<?xml version="1.0" standalone="no"?>
<!DOCTYPE svg PUBLIC "-//W3C//DTD SVG 1.1//EN" "http://www.w3.org/Graphics/SVG/1.1/DTD/svg11.dtd" >
<svg xmlns="http://www.w3.org/2000/svg" xmlns:xlink="http://www.w3.org/1999/xlink" version="1.1">
<metadata></metadata>
<defs>
<font id="003_koz_kjrregular" horiz-adv-x="0" >
<font-face units-per-em="2048" ascent="1638" descent="-410" />
<missing-glyph horiz-adv-x="561" />
<glyph unicode="&#x1039;&#x100d;" d="M-645 -315q0 18 27 32q4 1 4 4l8 3q10 4 14 5.5t6.5 1.5t6 -0.5t12.5 -0.5q26 0 45.5 -3.5t27.5 -13.5q4 -5 21 -16h2q2 -3 49 -10q72 0 72 41q0 195 -1 197q-11 20 -30.5 25t-40.5 5q-41 0 -57.5 -12.5t-16.5 -20.5v-2q0 -14 39 -26l-24 -13q-16 0 -31 -4q-50 0 -57 4 q-8 0 -17.5 3t-18 8.5t-14.5 13t-6 16.5q0 6 2 8q10 22 41 39l11 8l12 3q34 12 137 12q59 0 103 -12q20 -11 73 -11q22 0 43 8l2 -14q0 -21 -28 -37q-2 0 -2 -2q-15 -6 -29 -6l-2 -2l-57 2q13 -8 45 -8q22 0 49 12q4 -7 4 -145q0 -56 -2 -56v-6q-2 -4 -7.5 -11t-15.5 -17 l-33 -19q-39 -10 -57 -10l-4 -2h-49q-1 0 -1.5 -0.5t-2 -0.5t-6 -0.5t-13.5 -0.5q-24 0 -55 3q-15 1 -23 2t-12 2t-4.5 1h-0.5l-6 2q-8 2 -11 2q3 -4 6.5 -7t11 -6t20 -5.5t33.5 -5.5q72 0 99 6h67l35 -6q31 -7 31 -23q0 -117 2 -123q8 -35 33 -35q8 0 16 4.5t8 12.5 q6 -8 6 -25q-1 -10 -9 -16.5t-18.5 -10.5t-21.5 -6t-18 -2q-19 1 -41 6.5t-41 16t-32 26.5t-13 39v88q0 27 -41 27h-6q-85 0 -142 7t-86 22q-20 11 -20 35z" />
<glyph unicode="&#x102b;&#x103a;" horiz-adv-x="303" d="M-428 1358q0 18 4 31q8 -4 19 -11.5t32 -7.5q47 0 90 25q61 30 136 30q10 0 19 -0.5t17 -1.5l97 -2q40 0 69 -10q14 22 36.5 35t48.5 19.5t53.5 8t50.5 1.5q102 0 123 -86q0 -72 -84 -84q16 4 16 43q0 20 -14.5 32.5t-28.5 12.5q-13 0 -21 -6t-12 -15.5t-5.5 -20.5 t-2.5 -22q-1 -16 -1.5 -181t-0.5 -484q0 -568 2 -574q0 -42 23 -53l-2 -2q-7 -3 -11.5 -5t-10.5 -5l-16 -8t-28 -13q-23 -4 -68 -4q-82 0 -102 80v1139q0 18 -7 37t-19 34.5t-28.5 26t-35.5 10.5q-7 0 -15.5 -2.5t-19.5 -7.5q-12 -5 -22.5 -16t-18.5 -25t-13 -29t-5 -28 v-263q0 -45 8 -53q0 -7 14 -18q-19 -18 -47 -27l-6 -2q-25 -4 -45 -6t-37 -2q-20 0 -29 4q-31 0 -59 39q-14 34 -14 57v37h-2v242q2 5 2 14.5t4 9.5v2q16 -16 27.5 -21t35.5 -5q18 0 29 4q12 12 17 13t7 3q-24 -8 -49 -8q-48 0 -74 34t-26 85z" />
<glyph unicode="&#x1039;&#x105a;" d="M-702 -55l2 28q25 -16 57 -16q43 0 82 18h6q0 2 2 2q54 23 127 23q252 0 252 -145v-433q0 -10 2 -23.5t6.5 -26t12.5 -21t20 -8.5q22 0 34 24q0 2 -0.5 2.5t-0.5 1.5l2 -2q1 -7 1.5 -13.5t0.5 -14.5l2 -15q0 -6 -3 -18.5t-28 -30.5q-18 -12 -55 -12q-45 0 -86 26 q-70 45 -70 134v440q0 10 -6 24q-19 43 -84 43q-12 0 -26 -2.5t-27 -8t-22.5 -15t-12.5 -23.5q-4 -7 -4 -73q0 -228 2 -236q2 -10 8.5 -18t13.5 -13h2v-2q10 -8 23 -8q6 -2 12 -2q4 0 8.5 2t6.5 2q-5 -14 -11 -20q-23 -19 -41 -19h-92q-9 0 -19.5 3t-21 8.5t-19.5 12.5 t-13 15q-9 17 -14 27.5t-5 17.5v250q0 29 6 41q32 -23 62 -23q41 0 55 17q-32 -6 -61 -6l-15 6h-10q-2 2 -6 3t-12 5q0 1 -7 6q-36 25 -36 66z" />
<glyph unicode="&#x1039;&#x105c;" d="M-707 -59l2 22l3 4q23 -14 49 -14q58 0 96 18q63 21 133 21q72 0 108.5 -3t57.5 -14q92 -44 92 -116v-377q4 -14 4.5 -22.5t14.5 -14.5q-11 -6 -18 -9t-11 -7q-27 -11 -74 -11q-39 0 -58.5 18.5t-19.5 39.5q-2 2 -2 393q0 6 -6 20q-18 41 -88 41q-63 0 -84 -39 q-8 -14 -8 -18v-295q0 -12 2.5 -26.5t9 -27t16.5 -21.5t25 -9q24 0 36.5 18.5t12.5 41.5q0 28 -14 34q42 -6 62 -25.5t20 -43.5l-2 -15q-11 -84 -141 -84q-136 0 -181 88q-10 31 -10 60q0 287 2 295t2 10q34 -18 62 -18q35 0 57 14q-26 -6 -55 -6l-2 2h-13l-39 14l-2 2h-4 q-35 27 -35 60zM-494 -285q0 22 17 41q3 -16 10.5 -27t15.5 -17.5t16 -9.5t11 -3q-12 7 -27 20h-2l-6 9v4q-4 1 -4 6h-2l-4 14h-2v6q0 43 29 60q6 -28 39 -52q34 -25 34 -53q0 -26 -18.5 -44.5t-46.5 -18.5q-23 0 -41.5 18.5t-18.5 46.5z" />
<glyph unicode="&#x1062;&#x103a;" horiz-adv-x="670" d="M-16 1368q0 13 4 25q29 -15 63 -15q57 0 99 19q6 0 7 1t3 1q57 18 149 18q41 0 70.5 -0.5t51.5 -2.5t38 -5t29 -8l32 -12q74 -39 74 -107q0 -45 55 -63q-10 -12 -34 -23q-2 0 -7.5 -2t-19.5 -2q-23 -4 -55 -4l-37 2q-49 11 -69.5 33.5t-20.5 70.5q0 5 -8 21 q-20 41 -99 41q-45 0 -67 -13q-19 -11 -29 -21.5t-10 -23.5v-297q0 -15 3 -29.5t10.5 -26.5t19 -19.5t28.5 -7.5h6q49 6 49 57q0 6 -2 11.5t-4 10.5l-4 9q-1 5 -6 6q52 -7 72 -27t20 -47v-10q-7 -30 -25.5 -47t-42.5 -25.5t-51.5 -11t-52.5 -2.5q-57 4 -96 14t-61 31 q-52 34 -52 104v283q0 13 6 26q41 -18 74 -18q43 0 62 12q-28 -6 -58 -6q-2 0 -2 2h-18l-6 2l-6 2q-12 0 -29 9l-12 4v2q-41 23 -41 59zM82 694l2 17q26 125 180 125q87 0 125 -19q48 -19 83 -56.5t42 -90.5l6 -33v-522q0 -26 6 -47q7 -22 11 -24.5t8 -4.5q-13 -10 -16 -12 t-9 -4l-20 -11q-31 -12 -90 -12q-87 0 -103 82q-1 10 -1.5 144t-0.5 395q-2 8 -2 14l-2 4q0 14 -4.5 29t-14 28.5t-23.5 22t-32 8.5q-22 -5 -28 -14q-17 -13 -22 -32t-5 -38q0 -21 5.5 -36t11.5 -17q-56 9 -83 41q-24 24 -24 63z" />
<glyph unicode="&#x107e;&#x102f;" horiz-adv-x="1393" d="M-47 686q0 44 27 78q-27 17 -27 35q0 24 14 47q2 -2 6.5 -7t11.5 -10.5t15.5 -9.5t19.5 -4q41 0 79 10.5t77 10.5q46 0 90.5 -9.5t79 -31t55.5 -58t21 -90.5q0 -33 -8.5 -58.5t-22.5 -47.5t-32.5 -41t-39.5 -37q-62 -50 -96 -125q-20 4 -47 4q-72 0 -117 -33 q55 23 105 23q15 0 31 -2.5t31.5 -8t29.5 -14.5t23 -22q-64 -28 -64 -90q0 -58 48 -91q49 -34 97 -34q35 0 55.5 14t37.5 34q9 10 18.5 19t22 16.5t28.5 12t37 4.5q17 0 38 -6.5t35 -16.5q4 4 8 7.5t9 7.5q2 0 2 2h4l7 4q9 5 22 10l12 4q6 0 11.5 1t7.5 3h26q28 0 58 -8 q-15 15 -60 21h-14q-37 0 -82 -27q-8 19 -8 37v432q0 107 121 168q15 7 33 12t43.5 8t59.5 4t81 1q117 0 180 -27q62 -21 107 -21q47 0 71 21q6 -19 6 -37q0 -43 -34 -76l2 -6q2 -6 4 -15t2 -20q-2 -6 -2 -9t-2 -5q-1 -9 -9 -23q-10 -18 -25.5 -30.5t-33.5 -19.5t-38 -10 t-40 -3q-37 0 -70.5 5t-60.5 32q42 17 55 45q9 12 9 33q0 20 -11.5 37t-29.5 26q-7 0 -13 6q-31 17 -67 17q-91 0 -113 -64q-5 -12 -7.5 -21t-2.5 -16v-481q0 -5 10 -25q14 -28 41 -42.5t72 -14.5q54 0 80 19q41 30 41 71v137q0 16 -4.5 34t-13.5 33t-23 24.5t-33 9.5h-4 q-36 -12 -49 -49q-4 -15 -4 -33q0 -19 4 -35v-2q6 -17 11 -18q-106 18 -106 114v6q29 125 183 125l28 -2q56 0 98.5 -16.5t71 -45t43.5 -67t15 -82.5v-120q0 -110 -121 -168q-15 -7 -33.5 -12t-43.5 -8t-59 -4t-81 -1q-18 0 -34.5 1t-32.5 3q7 -2 19 -6.5t25 -10.5t23.5 -12 t14.5 -10q17 -9 25 -17.5t10 -9.5q1 0 1.5 -0.5t2 -3t5 -8.5t9.5 -16l-7 1q-2 0 -6 -1.5t-19 -18.5l-20 -42l-120 -305q-7 -28 -56 -81l-6 -3q-41 -37 -113 -43q-49 -4 -109 21q-27 8 -53 19.5t-47 29t-35 41t-17 54.5q-1 11 -0.5 22.5t2.5 22.5q19 71 92 79q21 3 47 -5 q1 1 3 1l2 -2q-2 0 -2.5 0.5t-2.5 0.5q-5 -1 -13 -11l-4 -2q-27 -38 -23 -78q2 -17 8 -26q2 -12 34 -30l14 -1q35 5 69 56q2 4 3.5 6.5t4 5.5t5 8.5t6.5 16.5l122 305q11 26 35 41t51 14q-23 4 -43.5 9.5t-39.5 13.5h-4v2h-6v2h-2l-5 2q-32 13 -84 20l-24 2q-41 0 -74 -21 q-75 -54 -205 -54q-44 0 -91.5 6.5t-94 20t-89.5 35t-78 50.5q-46 39 -46 115q0 31 1 61.5t3 61.5q11 79 60 127q25 25 50.5 46t53.5 38q46 29 77 58.5t31 68.5q0 23 -10 41t-25.5 30.5t-35.5 19.5t-41 7q-12 0 -27.5 -4.5t-29 -12.5t-22.5 -20t-9 -26q0 -50 82 -68 q-11 -23 -36.5 -35t-47.5 -12t-44 5t-39 16.5t-27.5 29.5t-10.5 45zM1045 -78q9 9 18 15q2 2 3.5 2.5t3.5 2.5q13 7 26 9q8 4 26 5t26 1q46 0 68 -39q3 -8 5.5 -17t4.5 -18q1 -10 1 -17.5v-12.5v-211q0 -9 0.5 -16t1.5 -12v-3q1 -1 1 -6q2 -11 5 -23.5t8.5 -23t13.5 -18.5 t18 -9h11q16 2 25 16t13 28q9 31 1 62q-1 3 -3.5 9.5t-6.5 8.5q42 -8 63 -37q11 -15 15.5 -32.5t2.5 -40.5q-5 -42 -30 -69t-59 -37q-11 -3 -30.5 -5t-30.5 0h-9q-29 3 -51.5 8.5t-41 16.5t-33.5 27.5t-29 42.5q0 2 -0.5 2.5t-0.5 2.5q-2 4 -3.5 8.5t-3.5 8.5q-8 23 -9 47 q-2 9 -2 15.5v15.5v246q-1 6 -1 10.5t-2 10.5l-4 16q-2 5 -11 10z" />
<glyph unicode="&#x107e;&#x1030;" horiz-adv-x="1393" d="M-47 686q0 44 27 78q-27 17 -27 35q0 24 14 47q2 -2 6.5 -7t11.5 -10.5t15.5 -9.5t19.5 -4q41 0 79 10.5t77 10.5q46 0 90.5 -9.5t79 -31t55.5 -58t21 -90.5q0 -33 -8.5 -58.5t-22.5 -47.5t-32.5 -41t-39.5 -37q-62 -50 -96 -125q-20 4 -47 4q-72 0 -117 -33 q55 23 105 23q15 0 31 -2.5t31.5 -8t29.5 -14.5t23 -22q-64 -28 -64 -90q0 -58 48 -91q49 -34 97 -34q35 0 55.5 14t37.5 34t40 36t66 16q18 0 38 -6t35 -17q4 4 8 7.5t9 7.5q2 0 2 2h4l7 4q9 5 22 10l12 4q6 0 11.5 1t7.5 3h26q28 0 58 -8q-15 15 -60 21h-14q-37 0 -82 -27 q-8 19 -8 37v432q0 107 121 168q15 7 33 12t43.5 8t59.5 4t81 1q117 0 180 -27q62 -21 107 -21q47 0 71 21q6 -19 6 -37q0 -43 -34 -76l2 -6q2 -6 4 -15t2 -20q-2 -6 -2 -9t-2 -5q-1 -9 -9 -23q-10 -18 -25.5 -30t-34 -19.5t-38.5 -10.5t-39 -3q-37 0 -70.5 5t-60.5 32 q42 17 55 45q9 12 9 33q0 20 -12 37.5t-29 25.5q-7 0 -13 6q-31 17 -67 17q-45 0 -72 -16t-41 -48q-10 -23 -10 -37v-481q0 -2 10 -25q24 -57 113 -57q54 0 80 19q41 30 41 71v137q0 16 -4.5 34t-13.5 33t-23 24.5t-33 9.5h-4q-36 -12 -49 -49q-4 -15 -4 -33q0 -19 4 -35v-2 q6 -17 11 -18q-106 18 -106 114v6q29 125 183 125l28 -2q56 0 98.5 -16.5t71 -45t43.5 -67t15 -82.5v-120q0 -110 -121 -168q-15 -7 -33.5 -12t-43.5 -8t-59 -4t-81 -1q-100 0 -170 29h-4v2h-6v2h-2l-5 2q-32 13 -84 20l-24 2q-42 0 -74 -22q-76 -53 -205 -53q-44 0 -92 6.5 t-94.5 20t-89 35t-77.5 50.5q-46 39 -46 115q0 31 1 61.5t3 61.5q5 38 20 68.5t37 55t49.5 46t57.5 41.5q45 30 76.5 59t31.5 68q0 23 -10 41t-25.5 30.5t-35.5 19.5t-41 7q-12 0 -27.5 -4.5t-29 -12.5t-22.5 -20t-9 -26q0 -50 82 -68q-11 -23 -36.5 -35t-47.5 -12t-44 5 t-39 16.5t-27.5 29.5t-10.5 45zM402.5 -395.5q0.5 11.5 2.5 22.5q19 71 92 79q21 3 47 -5q1 1 3 1l2 -2q-2 0 -2.5 0.5t-2.5 0.5q-5 -1 -13 -11l-4 -2q-27 -38 -23 -78q2 -17 8 -26q2 -12 34 -30l14 -1q35 5 69 56q2 4 3.5 6.5t4 5.5t5 8.5t6.5 16.5l122 305q9 22 29 37 t50 18q22 2 49 -10q50 -18 60 -31q12 -7 23 -16t19 -20q3 2 5.5 4t5.5 4q8 8 14.5 10t17.5 4q8 4 25.5 5t26.5 1q25 0 44 -11q12 -12 19 -22t10.5 -20.5t4.5 -22.5t1 -28v-337q0 -10 4 -23q0 -18 14 -26l-7 -7q-2 -2 -8.5 -6.5t-9.5 -4.5q-5 -4 -9.5 -6t-12.5 -6h-3 q-8 -3 -26 -4t-27 -1q-27 0 -44 11q-23 22 -28.5 42.5t-5.5 50.5v317q0 7 -0.5 11.5t-1.5 8.5v13.5t-1 9.5q-2 5 -3.5 9t-2.5 6q-2 0 -7 -3.5t-16 -16.5l-20 -42l-120 -305q-7 -28 -56 -81l-6 -3q-41 -37 -113 -43q-49 -4 -109 21q-27 8 -53 19.5t-47 29t-35 41t-17 54.5 q-1 11 -0.5 22.5zM1195 -78q9 9 18 15q2 2 3.5 2.5t3.5 2.5q13 7 26 9q8 4 26 5t26 1q46 0 68 -39q3 -8 5.5 -17t4.5 -18q1 -10 1 -17.5v-12.5v-211q0 -9 0.5 -16t1.5 -12v-3q1 -1 1 -6q2 -11 5 -23.5t8.5 -23t13.5 -18.5t18 -9h11q16 2 25 16t13 28q9 31 1 62 q-1 3 -3.5 9.5t-6.5 8.5q42 -8 63 -37q11 -15 15.5 -32.5t2.5 -40.5q-5 -42 -30 -69t-59 -37q-11 -3 -30.5 -5t-30.5 0h-9q-29 3 -51.5 8.5t-41 16.5t-33.5 27.5t-29 42.5q0 2 -0.5 2.5t-0.5 2.5q-2 4 -3.5 8.5t-3.5 8.5q-8 23 -9 47q-2 9 -2 15.5v15.5v246q-1 6 -1 10.5 t-2 10.5l-4 16q-2 5 -11 10z" />
<glyph unicode="&#x1081;&#x102f;" horiz-adv-x="764" d="M-215 -393q18 92 115 92l20 -2q-7 0 -12 -8q-23 -29 -23 -64q0 -27 11 -49l2 -4q14 -14 23 -17.5t18 -3.5q24 0 43.5 20.5t29.5 49.5h2l41 146q16 58 24.5 88.5t10.5 35.5q5 14 12 27.5t15 24.5q29 22 61 22q8 0 17.5 -1t19.5 -3l35 -10q9 -2 16.5 -6t12.5 -8 q11 -5 20.5 -11t17.5 -16l19 -23q-12 0 -17 -6l-20 -37l-61 -227q-8 -31 -16.5 -56.5t-21.5 -47t-33.5 -39.5t-53.5 -33q-33 -16 -88 -16q-44 0 -80 14q-32 4 -61 16.5t-51 32.5t-35 48t-13 63v8zM-33 766q0 18 4 35q33 -21 72 -21q7 0 20 1.5t29 4t32.5 7t31.5 10.5 q2 2 6.5 3t3.5 1q66 29 172 29q47 0 81 -1t59 -3.5t43.5 -7.5t33.5 -13q119 -63 119 -168v-633h-215v645q0 13 -8 33q-22 57 -113 57q-68 0 -100 -36q-23 -23 -23 -45v-545q0 -8 6 -23q0 -2 2 -2v-4h2l21 -27q19 -16 45 -16q12 0 24 6l-18 -2q-35 0 -55 41l-4 2l4 2 q10 10 19 22.5t9 37.5v389l2 28q0 68 -6 77t-8 9q-14 0 -18 -4q5 12 12 13l18 16q25 16 66 16q65 0 65 -98v-448q0 -56 -32.5 -89.5t-94.5 -56.5l-12 -4t-16 -2h-121q-21 0 -43 9t-40.5 24t-30 35.5t-11.5 42.5v514q0 18 6 37q44 -29 80 -29q54 0 76 22q-35 -8 -56 -8h-24 l-2 2h-10q-4 4 -10.5 3.5t-6.5 2.5q-13 0 -26 11q-2 0 -5 2l-6 4l-4 2q-45 38 -45 90zM365 -78q9 9 18 15q2 2 3.5 2.5t3.5 2.5q13 7 26 9q8 4 26 5t26 1q46 0 68 -39q3 -8 5.5 -17t4.5 -18q1 -10 1 -17.5v-12.5v-211q0 -9 0.5 -16t1.5 -12v-3q1 -1 1 -6q2 -11 5 -23.5 t8.5 -23t13.5 -18.5t18 -9h11q16 2 25 16t13 28q9 31 1 62q-1 3 -3.5 9.5t-6.5 8.5q42 -8 63 -37q11 -15 15.5 -32.5t2.5 -40.5q-5 -42 -30 -69t-59 -37q-11 -3 -30.5 -5t-30.5 0h-9q-29 3 -51.5 8.5t-41 16.5t-33.5 27.5t-29 42.5q0 2 -0.5 2.5t-0.5 2.5q-2 4 -3.5 8.5 t-3.5 8.5q-8 23 -9 47q-2 9 -2 15.5v15.5v246q-1 6 -1 10.5t-2 10.5l-4 16q-2 5 -11 10z" />
<glyph unicode="&#x1081;&#x1030;" horiz-adv-x="764" d="M-215 -393q18 92 115 92l20 -2q-7 0 -12 -8q-23 -29 -23 -64q0 -27 11 -49l2 -4q14 -14 23 -17.5t18 -3.5q24 0 43.5 20.5t29.5 49.5h2l41 146q16 58 24.5 88.5t10.5 35.5q5 14 12 27.5t15 24.5q29 22 61 22q8 0 17.5 -1t19.5 -3l35 -10q9 -2 16.5 -6t12.5 -8 q11 -5 20.5 -11t17.5 -16l19 -23q-12 0 -17 -6l-20 -37l-61 -227q-8 -31 -16.5 -56.5t-21.5 -47t-33.5 -39.5t-53.5 -33q-33 -16 -88 -16q-44 0 -80 14q-32 4 -61 16.5t-51 32.5t-35 48t-13 63v8zM-33 766q0 18 4 35q33 -21 72 -21q7 0 20 1.5t29 4t32.5 7t31.5 10.5 q2 2 6.5 3t3.5 1q66 29 172 29q47 0 81 -1t59 -3.5t43.5 -7.5t33.5 -13q119 -63 119 -168v-633h-215v645q0 13 -8 33q-22 57 -113 57q-68 0 -100 -36q-23 -23 -23 -45v-545q0 -8 6 -23q0 -2 2 -2v-4h2l21 -27q19 -16 45 -16q12 0 24 6l-18 -2q-35 0 -55 41l-4 2l4 2 q10 10 19 22.5t9 37.5v389l2 28q0 68 -6 77t-8 9q-14 0 -18 -4q5 12 12 13l18 16q25 16 66 16q65 0 65 -98v-448q0 -56 -32.5 -89.5t-94.5 -56.5l-12 -4t-16 -2h-121q-21 0 -43 9t-40.5 24t-30 35.5t-11.5 42.5v514q0 18 6 37q44 -29 80 -29q54 0 76 22q-35 -8 -56 -8h-24 l-2 2h-10q-4 4 -10.5 3.5t-6.5 2.5q-13 0 -26 11q-2 0 -5 2l-6 4l-4 2q-45 38 -45 90zM352 -78q0 2 8.5 7.5t10.5 7.5q7 7 15 9.5t17 4.5q8 4 25.5 5t26.5 1q25 0 44 -11q12 -12 19 -22t10.5 -20.5t4.5 -22.5t1 -28v-337q0 -10 4 -23q0 -8 3.5 -15t10.5 -11l-7 -7 q-2 -2 -8.5 -6.5t-9.5 -4.5q-5 -4 -9.5 -6t-12.5 -6h-3q-8 -3 -26 -4t-27 -1q-27 0 -44 11q-12 11 -18.5 21t-10 20.5t-4.5 23t-1 28.5v317q0 7 -0.5 11.5t-1.5 8.5v13.5t-1 9.5q-2 5 -3.5 9.5t-3.5 6.5q-1 5 -9 10zM555 -78q9 9 18 15q2 2 3.5 2.5t3.5 2.5q13 7 26 9 q8 4 26 5t26 1q46 0 68 -39q3 -8 5.5 -17t4.5 -18q1 -10 1 -17.5v-12.5v-211q0 -9 0.5 -16t1.5 -12v-3q1 -1 1 -6q2 -11 5 -23.5t8.5 -23t13.5 -18.5t18 -9h11q16 2 25 16t13 28q9 31 1 62q-1 3 -3.5 9.5t-6.5 8.5q42 -8 63 -37q11 -15 15.5 -32.5t2.5 -40.5q-5 -42 -30 -69 t-59 -37q-11 -3 -30.5 -5t-30.5 0h-9q-29 3 -51.5 8.5t-41 16.5t-33.5 27.5t-29 42.5q0 2 -0.5 2.5t-0.5 2.5q-2 4 -3.5 8.5t-3.5 8.5q-8 23 -9 47q-2 9 -2 15.5v15.5v246q-1 6 -1 10.5t-2 10.5l-4 16q-2 5 -11 10z" />
<glyph unicode="&#x1081;&#x103d;" horiz-adv-x="764" d="M-215 -393q18 92 115 92l20 -2q-7 0 -12 -8q-23 -29 -23 -64q0 -27 11 -49l2 -4q14 -14 23 -17.5t18 -3.5q24 0 43.5 20.5t29.5 49.5h2l41 146q16 58 24.5 88.5t10.5 35.5q5 14 12 27.5t15 24.5q29 22 61 22q8 0 17.5 -1t19.5 -3l35 -10q9 -2 16.5 -6t12.5 -8 q11 -5 20.5 -11t17.5 -16l19 -23q-12 0 -17 -6l-20 -37l-61 -227q-8 -31 -16.5 -56.5t-21.5 -47t-33.5 -39.5t-53.5 -33q-33 -16 -88 -16q-44 0 -80 14q-32 4 -61 16.5t-51 32.5t-35 48t-13 63v8zM-33 766q0 18 4 35q33 -21 72 -21q7 0 20 1.5t29 4t32.5 7t31.5 10.5 q2 2 6.5 3t3.5 1q66 29 172 29q47 0 81 -1t59 -3.5t43.5 -7.5t33.5 -13q119 -63 119 -168v-633h-215v645q0 13 -8 33q-22 57 -113 57q-68 0 -100 -36q-23 -23 -23 -45v-545q0 -8 6 -23q0 -2 2 -2v-4h2l21 -27q19 -16 45 -16q12 0 24 6l-18 -2q-35 0 -55 41l-4 2l4 2 q10 10 19 22.5t9 37.5v389l2 28q0 68 -6 77t-8 9q-14 0 -18 -4q5 12 12 13l18 16q25 16 66 16q65 0 65 -98v-448q0 -56 -32.5 -89.5t-94.5 -56.5l-12 -4t-16 -2h-121q-21 0 -43 9t-40.5 24t-30 35.5t-11.5 42.5v514q0 18 6 37q44 -29 80 -29q54 0 76 22q-35 -8 -56 -8h-24 l-2 2h-10q-4 4 -10.5 3.5t-6.5 2.5q-13 0 -26 11q-2 0 -5 2l-6 4l-4 2q-45 38 -45 90zM336 -63q0 11 4 20q24 -10 53 -10q23 0 42 3.5t36 8.5l6 2q48 16 119 16q34 0 58 -0.5t41.5 -1.5t30 -3.5t24.5 -6.5q81 -33 81 -94v-322q0 -9 -4 -20q-33 14 -57 14q-34 0 -51 -10 q20 4 49 4h16q5 -5 14.5 -6t16.5 -4l8 -4v-2q35 -17 35 -45q0 -12 -4 -21q-24 10 -53 10q-40 0 -76 -14h-6l-2 -2q-51 -14 -121 -14q-117 0 -152 12q-84 33 -84 94v320q0 11 7 22q33 -14 57 -14q38 0 51 10q-15 -4 -35 -4h-37q0 2 -10 5t-14 3l-8 4v2q-35 20 -35 48z M528 -154v-278l7 -12q16 -27 61 -27q21 0 34.5 4.5t21 10.5t10 12.5t2.5 9.5v276q0 4 -2.5 11t-10 13.5t-21 11.5t-34.5 5q-8 0 -19.5 -2t-22.5 -6t-18.5 -11.5t-7.5 -17.5z" />
<glyph unicode="&#x1081;&#x1082;" horiz-adv-x="764" d="M-215 -393q18 92 115 92l20 -2q-7 0 -12 -8q-23 -29 -23 -64q0 -27 11 -49l2 -4q14 -14 23 -17.5t18 -3.5q24 0 43.5 20.5t29.5 49.5h2l41 146q16 58 24.5 88.5t10.5 35.5q5 14 12 27.5t15 24.5q29 22 61 22q8 0 17.5 -1t19.5 -3l35 -10q9 -2 16.5 -6t12.5 -8 q11 -5 20.5 -11t17.5 -16l19 -23q-12 0 -17 -6l-20 -37l-61 -227q-8 -31 -16.5 -56.5t-21.5 -47t-33.5 -39.5t-53.5 -33q-33 -16 -88 -16q-44 0 -80 14q-32 4 -61 16.5t-51 32.5t-35 48t-13 63v8zM-33 766q0 18 4 35q33 -21 72 -21q7 0 20 1.5t29 4t32.5 7t31.5 10.5 q2 2 6.5 3t3.5 1q66 29 172 29q47 0 81 -1t59 -3.5t43.5 -7.5t33.5 -13q119 -63 119 -168v-633h-215v645q0 13 -8 33q-22 57 -113 57q-68 0 -100 -36q-23 -23 -23 -45v-545q0 -8 6 -23q0 -2 2 -2v-4h2l21 -27q19 -16 45 -16q12 0 24 6l-18 -2q-35 0 -55 41l-4 2l4 2 q10 10 19 22.5t9 37.5v389l2 28q0 68 -6 77t-8 9q-14 0 -18 -4q5 12 12 13l18 16q25 16 66 16q65 0 65 -98v-448q0 -56 -32.5 -89.5t-94.5 -56.5l-12 -4t-16 -2h-121q-21 0 -43 9t-40.5 24t-30 35.5t-11.5 42.5v514q0 18 6 37q44 -29 80 -29q54 0 76 22q-35 -8 -56 -8h-24 l-2 2h-10q-4 4 -10.5 3.5t-6.5 2.5q-13 0 -26 11q-2 0 -5 2l-6 4l-4 2q-45 38 -45 90zM328 -516q0 33 39 53v2l12 4q12 6 18 7.5t13 3.5l6 2h8q8 0 10 2h2q31 0 56 -7q-19 13 -54 13q-34 0 -76 -19q-6 16 -6 25v260q0 29 11.5 55.5t38.5 42.5q37 38 149 43q24 0 50 -2 t49.5 -10.5t41 -25t23.5 -44.5v-8q0 -56 -88 -71h-2h2q4 1 6 8l4 6q6 10 6 22q0 45 -47 54h-6q-25 0 -37 -17q-20 -20 -20 -51v-285q0 -5 6 -18q12 -37 53 -37q51 0 57 39l2 20q0 44 20 68t66 31l35 2h27q8 0 16 -2t25 -2l10 -2q27 -10 33 -23q-34 -12 -45 -33q-2 -8 -4 -14 t-2 -12q0 -64 -70 -103l-33 -10q-23 -7 -57.5 -11.5t-79.5 -4.5q-51 0 -84 12l-16 6h-11q-38 19 -92 19q-32 0 -61 -15q-4 13 -4 27z" />
<glyph unicode="&#x100b;&#x1039;&#x100b;" horiz-adv-x="764" d="M-31 764q0 18 4 35q33 -21 72 -21q54 0 111 23l10 4q74 29 170 29q48 0 83 -1.5t58 -3.5t46.5 -9.5t49.5 -18.5q57 -35 76 -72q25 -31 25 -65q0 -19 -8 -43q-35 -68 -144 -68q-47 0 -88 10q-21 7 -41 27q66 23 66 72q-2 22 -17 38.5t-33 27.5q-25 15 -73 15 q-63 0 -98 -36q-23 -23 -23 -45v-482q0 -19 14 -45q27 -55 107 -55q15 0 33 4t35 12.5t30.5 20t20.5 26.5q39 43 114 43h23q6 -2 9 -2q7 0 10 -1t6 -1q5 0 14 -4.5t14 -6.5q4 -2 7 -4t5 -3q6 -2 8.5 -5.5t2.5 -4.5q0 -2 4 -2q37 -28 37 -76q0 -62 -37 -84 q-26 -19 -65.5 -32.5t-84 -21.5t-88 -12t-76.5 -4l-77 2q-56 0 -62 8q-41 0 -41 -28q0 -15 19.5 -26t45 -18t50 -10.5t35.5 -3.5q20 0 36.5 1t28.5 3q44 8 66 56q45 0 84.5 -16.5t68.5 -45.5t45.5 -68.5t16.5 -84.5q0 -164 57 -164q15 0 27.5 9t17.5 23q-1 2 -1 2.5t-1 2.5 l2 -4q6 -21 6 -45l2 -13q0 -22 -11 -37.5t-27.5 -25.5t-37 -14.5t-38.5 -4.5q-61 0 -117 35q-94 58 -94 180q0 175 -13 175q-16 -9 -88 -9q-100 0 -151 9h-4q-23 4 -49 4q-75 0 -107 -15q-20 11 -20 23q0 18 30 24q-14 8 -25.5 16t-19.5 15q-12 19 -12 39q0 72 188 72 q50 0 95 -15l53 -2q115 0 162 41q8 8 8 15h-6v-2l-35 -11q-61 -12 -84 -12q-10 -2 -80 -2q-20 0 -33 0.5t-20 1.5q-29 0 -35 2q-18 0 -20 2q-23 0 -27 4q-3 0 -12.5 2.5t-19.5 6.5t-18.5 7.5t-11.5 6.5q-7 0 -12 6q-10 5 -23 15.5t-30 27.5l-2 4q-14 17 -18 28q-5 12 -9 17 v4h-2v2q-1 2 -2 4.5t-2 4.5q-2 5 -3 14q-1 5 -1 120.5v344.5q0 18 6 37q44 -29 80 -29q54 0 76 22q-35 -8 -82 -8l-2 2h-8l-19 6h-4l-22 11v2q-8 0 -9 4l-4 2q-43 39 -43 90zM104 -231l2 12q9 -4 50 -4q10 0 18 2t7 2q1 0 1 2q27 6 119 6q36 -5 37 -8q4 0 10.5 -4t13 -9 t11 -10.5t4.5 -9.5v-8l-2 -2q-9 -9 -17.5 -15t-21.5 -6l-8 -2q-17 0 -23 2q-11 0 -37 9q27 6 27 16v4l-2 4q-17 17 -45 17q-47 0 -47 -23v-127q7 -25 47 -25q8 0 26 5q10 8 19 12q12 12 49 12q6 0 8 -2q10 0 17 -4h4v-2h4v-2q16 -7 16 -21q0 -12 -11 -18q-12 -7 -38 -14 q-25 -7 -133 -7q-4 3 -16 3q-5 -5 -5 -7q0 -6 9 -10h2q29 -6 59 -6q25 0 37 16q55 0 74 -34q12 -23 12 -39l-2 -4q0 -22 22 -23q6 0 7 1l3 3t5 6q4 -5 4 -16q-4 -21 -45 -21q-44 0 -76 33q-4 7 -4 58v2q-1 3 -4 6q-2 2 -15 2q-6 -2 -51 -2q-10 2 -25.5 3t-35.5 1 q-15 0 -27 -4l-8 6v2q4 4 10 4q-22 10 -22 18q6 19 63 19q27 0 47 -4q66 0 74 8l4 2q6 2 5 2q1 0 1 2q-8 0 -10 -2q-18 0 -33 -4h-55q-14 0 -16 2h-17q-8 2 -13 3.5t-7 2.5h-2l-4 2q-7 4 -15 6l-2 4h-4v2l-2 3q-2 2 -4 2q-6 7 -6 10q0 2 -2 4v129l2 2q18 -8 31 -8q22 0 28 8 h-4q-2 -2 -5 -2q-4 0 -7 -1t-12 -1v2h-15q-8 6 -14 6q-19 7 -19 21zM229 -467q9 -2 29 -2q-20 0 -29 2zM287 -150l75 -2z" />
<glyph unicode="&#x100b;&#x1039;&#x100c;" horiz-adv-x="764" d="M-33 764q0 18 4 35q33 -21 72 -21q54 0 111 23q2 0 2 2h4l4 2q32 16 75 22.5t97 6.5q47 0 81.5 -1t59.5 -4t43 -7.5t31 -11.5q14 -7 26.5 -14t25.5 -16q11 -8 23 -22t22.5 -30t17 -33t6.5 -31q0 -58 -49 -86q-34 -25 -103 -25q-47 0 -88 10q-19 8 -39 27q30 11 47 25 t17 47q-1 10 -7.5 24t-20.5 26.5t-36.5 21.5t-56.5 9q-68 0 -100 -36q-23 -23 -23 -45v-482q0 -6 8 -35q26 -65 113 -65q20 0 37.5 3t31.5 13q3 2 7 3t10 7q23 16 33 37v4q4 12 4 25q0 26 -21.5 44.5t-42.5 27.5q20 19 39 26q47 11 88 11q27 0 54.5 -5.5t49 -18.5t35 -34 t13.5 -53q0 -24 -14 -45.5t-34 -38.5t-43.5 -30t-43.5 -21q-11 -2 -14 -5t-5 -3q-63 -27 -184 -27q-97 0 -144 6q-26 -20 -26 -37q0 -4 4 -12q18 -36 123 -41q23 0 49 2.5t55 7.5l66 19q12 4 25.5 5.5t27.5 2.5q19 4 35 4q102 0 123 -63v-250q0 -125 -121 -195 q-14 -7 -34 -12.5t-46 -9.5q-17 -2 -52 -3.5t-87 -1.5q-2 3 -17 5l-84 12q-49 10 -98 10q-44 -1 -80 -31q-24 25 -24 50q0 37 34 53q-63 58 -63 147q0 81 49.5 121.5t128.5 40.5q24 0 47 -4t43 -11.5t34 -19.5t20 -28l-25 -7l-15 -3t-7 -2t-2.5 -1.5t-2.5 -1.5 q-20 -11 -35 -24.5t-24 -30.5q-14 -23 -14 -47q0 -39 39 -78q51 -59 102 -59q53 0 78 24q41 39 41 90v248q-4 10 -17 10q-4 0 -9 -3t-19 -3q-2 -2 -11 -2q-20 -4 -38.5 -6t-36.5 -2q-55 -6 -117 -6q-129 4 -203 43q-37 19 -37 65q16 78 158 78q56 0 117 -14q-7 4 -16.5 8 t-22.5 8h-4q-23 5 -49 7.5t-54 2.5q-33 0 -37 -4q-61 54 -61 136v432q0 20 4 37q44 -29 80 -29q54 0 76 22q-35 -8 -80 -8q-2 2 -11.5 3t-10.5 1q-3 0 -7 4q-15 1 -26 11h-2v2q-6 0 -11 6q-45 39 -45 90z" />
<glyph unicode="&#x100d;&#x1039;&#x100e;" horiz-adv-x="764" d="M-45 690q0 34 29 74q-27 14 -27 41q0 22 12 41l31 -27q7 -4 20 -4q61 0 78 10q33 11 99 11q77 0 135 -33q36 -17 49 -39q41 -44 41 -121q0 -25 -8.5 -50t-22 -48t-31 -43t-36.5 -35q-76 -70 -99 -129q-10 2 -22.5 3t-26.5 1q-9 0 -22 -0.5t-28 -3.5t-31.5 -10t-33.5 -19 q35 23 97 23q88 0 121 -47q-64 -28 -64 -88q0 -22 11 -41.5t28.5 -33.5t39 -22t42.5 -8q22 0 41 6v39q0 4 -4 4q-11 0 -17 -2q-23 0 -46 2t-46 6q-2 2 -8.5 4t-13 6t-12 10.5t-5.5 16.5q0 13 13 23l26 10q17 0 21 -4h2q9 -1 16 -8h2q0 -1 8 -12h4q0 -7 23 -7q20 0 28.5 10.5 t8.5 18.5v137q-2 23 -37 23q-27 0 -33 -13l-4 -10q0 -14 19 -20l-19 -10q-37 0 -51 6l-12 12v4q-2 0 -2 2q0 16 6 25q19 22 30 22q22 8 66 8q33 0 51 -8q2 0 2 -2q20 -6 41 -6q10 0 19 6l2 -10q0 -14 -17 -25v-2h-2v-2q-7 0 -12 -4q-21 0 -31 2q5 -6 23 -6q10 0 24 8l2 -4 v-141l-2 -2v-4q-6 -6 -6 -13l-14 -12h-2q-10 -4 -15.5 -5.5t-8.5 -2.5t-4 -1.5t-3 -2.5q-71 0 -81 2q-7 2 -10 3t-7 1q0 -10 35 -16q18 0 27 0.5t14.5 1.5t11 1.5t16.5 0.5q19 -2 26 -2t12 -1t7 -7.5t4 -10.5l2 4q15 15 15 41v559q-2 11 -4.5 22t-5.5 21l-15 11l10 8l45 20 q8 6 29 6l55 2q39 0 54 -12q42 -25 45 -67q1 -10 1.5 -152t0.5 -420q0 -91 -92 -135q-9 -9 -27.5 -16t-39.5 -12t-41 -8.5t-32 -4.5v-530q4 -6 6.5 -15.5t14.5 -9.5q10 6 10 10q4 0 4 -20q-1 -19 -31 -19q-26 0 -47.5 16.5t-21.5 45.5v518h-64q-81 0 -157 29q-10 3 -27 13 t-43 26q-86 53 -86 133q0 39 1 72t3 59q5 31 16 58.5t29 51.5q32 42 156 125q48 33 61 64l10 39q0 47 -45 78q-23 20 -63 20q-45 0 -82 -37q-8 -11 -8 -26q0 -16 7.5 -27t19.5 -19t26 -13t27 -9q-8 -21 -32 -34t-50 -13q-72 0 -90 28q-31 32 -31 72z" />
<glyph unicode="&#x100f;&#x1039;&#x100d;" horiz-adv-x="1534" d="M-33 762q0 18 4 35q28 -19 66 -19q66 0 117 23q4 4 10 4q69 29 168 29q61 0 92 -3q29 -3 59 -13t60 -30q26 8 37 13q50 33 141 33q37 0 65 -1.5t47 -3.5t34 -7.5t26 -12.5l22 -14q74 41 175 41q142 0 249 -43q105 -52 105 -144q0 -276 -0.5 -414.5t-1.5 -143.5t-1.5 -8 t-0.5 -5q0 -20 -13 -37q-17 -41 -88 -41q-57 0 -66 3q-5 2 -9 3t-9 2q-10 1 -16 6q-33 14 -33 21l13 10q10 20 10 66v536q0 29 -12 41q-23 23 -48.5 36t-56.5 13q-36 0 -71 -20.5t-50 -54.5l-4 -25q0 -62 64 -92v-2q-15 -4 -15 -15q-5 -4 -11 -8t-13 -8q-15 -8 -24.5 -10 t-26.5 -2q-50 0 -97 32q50 -47 117 -47q2 2 6 2v-278q0 -19 -6 -37q-28 25 -63 25q-33 0 -58 -19q27 8 62 8q2 0 6 -0.5t4 -3.5h12q2 -1 29 -18q43 -39 43 -92q0 -21 -4 -37q-25 22 -60 22q-39 0 -82 -22q-67 -35 -149 -35q-38 0 -66 1t-47 3q-34 4 -63 21.5t-49 43.5 t-31.5 58t-11.5 66v460q0 11 -9 33q-22 57 -112 57q-83 0 -111 -55l-2 -6q-8 -14 -8 -23v-430q0 -58 27 -96q14 -27 51 -27q55 21 55 84q0 5 -1 13t-3 16.5t-5 15.5t-8 9q59 -12 81 -41q24 -22 24 -64l-2 -16q-6 -48 -35.5 -77t-79.5 -40q-43 -6 -79 -6q-53 0 -96.5 13 t-74.5 39.5t-48 67t-17 95.5v410q0 18 4 37q44 -29 80 -29q54 0 76 22q-27 -8 -49 -8q-37 0 -41 1t-6.5 1t-4.5 1q-4 1 -4 3q-23 6 -30 13q-6 0 -8 3q-1 3 -5 3v2q-45 38 -45 88zM152 -317q0 68 22 118q0 2 2 2v4q12 21 16.5 43t4.5 46q-1 23 -17 43q17 6 31 6q52 0 84 -62 v-4l4 -6v-8l2 -4q0 -31 -6 -58q16 20 16 45v2q0 19 -6 34t-16 30q3 0 6.5 0.5t8.5 1.5t95 1.5t267 0.5q22 0 24 -2h8q6 -2 11 -2q6 0 6 -4h4l35 -19q16 -12 22 -20q6 -7 8 -9q3 -2 8 -10t9.5 -18t8 -18.5t3.5 -12.5q0 -3 1 -5q3 -8 3 -17q0 -7 1 -9t1 -16q0 -29 2 -35 q0 -51 -2 -61q0 -38 -20 -96q18 0 30 26q8 24 13 45.5t6 40.5q0 11 -2 28t-6 40q-6 34 -6 43q0 18 1 41.5t7.5 43.5t20 34t38.5 14l12 -2q211 0 221 2q4 1 7 1.5t6 0.5q57 7 57 43q-13 25 -28 25q7 0 15 4t21 4l29 -4q42 -6 49 -70q-3 -29 -10 -52t-20 -40l-21 -25 q-44 -40 -123 -40h-227q-6 0 -6 -29q0 -11 2 -17q0 -43 -1 -73t-3 -47v-15q-21 -166 -119 -166q-44 0 -70 35h-2v4q-1 0 -6 5q-3 3 -5 11t-5 21l-2 2v10l-2 5q0 49 30 81l5 7q28 8 39.5 32t11.5 50q0 69 -72 84h-393l-21 -7q-47 -15 -47 -77q0 -80 66 -86q38 0 57 45 q13 -8 23 -29q8 -35 8 -66q-7 -102 -88 -102q-6 0 -8 2q-12 0 -26.5 6t-28.5 15t-25.5 20t-18.5 20q-12 19 -12 21q-12 23 -15 55q-3 33 -3 99zM625 180q0 -7 6 -33q20 -57 90 -57q32 0 57 17t35 49q4 12 4 497q0 11 -6 33q-19 57 -90 57q-39 0 -62 -18q-34 -31 -34 -66 v-479z" />
<glyph unicode="&#x102d;&#x1032;" d="M-1202 1268q4 8 5 11t2.5 5.5l4.5 7.5t12 17q4 1 7 6l41 31q26 14 40 14q37 0 58 -25l14 -22q72 -113 108.5 -173t40.5 -68t11 -16t16 -18q26 -22 43 -22q23 0 29 18q2 2 2 8q0 15 -2 17q14 -7 25.5 -28.5t11.5 -37.5q0 -28 -25 -49q-44 -43 -112 -43q-94 0 -146 105 l-141 223q0 4 -5 10t-7 10q-2 5 -10 13t-19 8zM-750 1368q0 10 5 25q28 -15 63 -15q56 0 98 19q6 0 7.5 1t3.5 1q61 18 149 18q41 0 70.5 -0.5t51 -2.5t37.5 -5t29 -8q107 -39 107 -117v-297q0 -8 -6 -26q-41 18 -74 18q-44 0 -63 -14q24 8 41 8l38 -2l3 -2h8q0 -2 8 -3 t20 -8q4 0 4 -2h5l4 -4q41 -23 41 -59q0 -14 -4 -27q-29 15 -64 15q-62 0 -98 -17l-10 -2q-60 -20 -148 -20q-42 0 -72 0.5t-52 2t-37.5 5t-28.5 8.5q-105 42 -105 117v299q0 13 6 26q40 -18 74 -18q43 0 61 12q-29 -6 -57 -6q-2 0 -2 2h-18q-4 1 -7 2l-6 2q-12 0 -28 9 l-9 2v2h-4v2q-41 23 -41 59zM-530 967q0 -7 8 -23q21 -39 98 -39q33 0 54 8t33 18t16 19.5t4 12.5v331q0 4 -4 14t-16 20.5t-33 19t-54 8.5q-12 0 -30.5 -2.5t-35 -9.5t-28.5 -18t-12 -28v-331z" />
<glyph unicode="&#x100d;&#x1039;&#x100d;" horiz-adv-x="764" d="M-31 70q0 59 45 90l6 6h3v2l36 14q9 0 11 2q10 0 12 2h24q74 0 113 -43q11 -21 33 -37q44 -26 84 -26q45 0 79.5 21t41.5 69l2 4v488q0 23 -21 45q-34 36 -102 36q-107 0 -121 -81q0 -33 17 -47t47 -25q-20 -20 -41 -27q-37 -10 -86 -10q-124 0 -150 86l-2 4v23 q0 13 7 30t18 34t23.5 31t23.5 21q32 21 62.5 33t62.5 14q23 2 57 3.5t82 1.5q100 0 172 -29l10 -4q15 -6 35.5 -11.5t48.5 -9.5l35 -2q37 0 68 21q4 -17 4 -35q0 -33 -18.5 -59t-44.5 -43q-10 -7 -23 -7q-7 -4 -12 -4q-7 0 -10 -1l-9 -3q-45 0 -80 8q16 -16 76 -22 q36 0 80 29q6 -19 6 -37v-455q-2 -2 -2 -6q0 -6 -1.5 -14.5t-4.5 -13.5q-5 -9 -9 -18l-8 -18q0 -2 -3 -4q-3 -1 -14 -16q-11 -14 -16 -14q-20 -16 -30.5 -23.5t-11.5 -8.5q-2 -2 -4 -3t-8 -3t-8 -3q-4 -2 -7 -2q-14 -8 -37 -13q-11 -4 -29 -4l-2 -2h-18q-2 -2 -37 -2 q-10 -2 -39 -2q-42 0 -64.5 0.5t-27.5 1.5q-57 0 -125 27v-4q7 -20 39 -31q48 -23 129 -23l55 2q51 15 121 15q14 0 27 -0.5t24 -1.5q7 0 19.5 -2t25 -5.5t24 -8.5t15.5 -11q24 -13 29 -43q-1 -20 -1.5 -86t-0.5 -180q0 -21 4 -37q0 -6 2 -12q11 -74 53 -74q23 0 35 18 q7 7 8 15l-2 4q12 -14 12 -58q0 -21 -12 -38t-27 -30q-11 -10 -27 -14t-36 -4q-53 4 -94 17l-45 22l-29 23q-30 32 -43.5 70.5t-13.5 82.5v283q0 8 -21 8q-10 0 -18 -0.5t-14 -1.5l-91 -2q-33 0 -76.5 3.5t-87.5 12t-83.5 21.5t-65.5 33q-33 23 -33 78zM-10 -399q0 23 26 37 v2h4q0 2 11 2q10 0 16 6q70 0 90 -17q4 -5 21 -16h2q3 -3 49 -10q72 0 72 41v192q0 35 -72 35q-41 0 -57 -13q-17 -14 -17 -20q0 -18 27 -24l12 -4l-24 -13q-16 0 -31 -4q-50 0 -58 4q-8 0 -17.5 3t-18 8t-14 13t-5.5 17q0 6 2 8q11 23 41 39l10 9l13 2q35 12 137 12 q76 0 106 -14q32 -9 70 -9q24 0 43 9l2 -15q0 -20 -29 -37q-2 0 -2 -2q-13 -6 -28 -6v-2l-60 2q14 -8 45 -8q23 0 50 12q0 -1 2 -5t2 -101v-94h-2q0 -6 -2 -10q-1 -2 -2 -3t-1 -2l-18 -20q-3 -1 -6 -4t-23 -13l-8 -2q-23 -10 -53 -10q-2 -2 -53 -2q-2 -2 -43 -2 q-7 1 -14 1.5t-15 0.5q-10 2 -14 2q-5 0 -11 2h-14l-25 6q7 -6 7 -7q0 -2 4.5 -3.5t9.5 -3.5t10.5 -3t6.5 -1q11 -1 34 -6q73 0 98 6h68l49 -10q17 -9 17 -19q0 -74 2 -82q9 -35 32 -35q17 0 21 9l4 8q6 -8 6 -25q-1 -10 -8.5 -16.5t-18 -10.5t-21.5 -6t-19 -2q-19 1 -41 6 t-41 15.5t-32 27t-13 39.5v48q0 26 -48 26q-225 0 -241 49z" />
<glyph unicode="&#x1020;&#x103e;" horiz-adv-x="764" d="M-33 764q0 18 4 35q32 -21 70 -21q56 0 113 23q2 0 2 2h4l4 2q32 16 75 22.5t97 6.5q164 0 208 -20t56 -32q12 -10 25 -23.5t23.5 -29t17 -32.5t6.5 -33q0 -19 -8 -43q-35 -68 -144 -68q-94 0 -127 37q30 11 47 25t17 47q-1 10 -7.5 24t-20.5 26.5t-36.5 21.5t-56.5 9 q-68 0 -100 -36q-23 -23 -23 -45v-482q0 -8 2 -10q1 -7 5 -15.5t9 -19.5q28 -55 105 -55q20 0 37.5 3t31.5 13q3 2 7 3t10 7q23 16 33 37q39 43 114 43h23l4 -2h8q2 0 7 -1t6 -1q2 0 7.5 -2t11.5 -5l12 -6t9 -5q11 -8 11 -10t4 -2q37 -28 37 -76q0 -13 -5 -35 q-2 -21 -19 -37.5t-39.5 -28t-47.5 -19.5t-43 -12l-8 -22q0 -37 -0.5 -58t-1.5 -26q0 -8 -1 -13q60 -13 94 -51t36 -100q0 -95 -66 -153q35 -17 35 -53q0 -27 -25 -52q-31 33 -79 33q-24 0 -48.5 -2.5t-50.5 -7.5q-42 -8 -64.5 -11t-27.5 -3l-4 -3q-52 0 -87.5 1t-55.5 4 q-26 4 -46 9.5t-34 12.5q-119 71 -119 201v227q0 38 12.5 60t34.5 33.5t51 14.5t62 3q78 0 121 -15l63 -2q121 0 158 49l2 7h-6v-2l-35 -11q-61 -12 -84 -12q-10 -2 -80 -2q-20 0 -32.5 0.5t-18.5 1.5q-33 0 -35 2q-19 0 -23 2q-25 0 -65 17q-12 0 -23 7.5t-12 8.5 q-15 8 -35 27q-3 0 -4 4q-24 24 -24 28h-2l-19 39q0 3 -0.5 4t-1.5 2.5t-1.5 5t-0.5 11.5q-2 0 -2 2v463q0 20 4 37q44 -29 80 -29q54 0 76 22q-35 -8 -80 -8q-2 2 -12 2q-2 2 -9.5 2t-7.5 4q-13 0 -26 11q-4 0 -2.5 3t-10.5 3v2q-45 39 -45 90zM213 -106v-267 q0 -4 2.5 -13.5t7.5 -23.5q24 -77 107 -77q53 0 104 59q39 39 39 78q0 18 -9 37.5t-22 33.5q-27 -10 -63 -10l-33 2q-93 6 -110 86v13q0 53 75 71q-14 -5 -14 -39q0 -26 15.5 -41.5t33.5 -15.5q11 0 14 1.5t10 8.5q11 11 16 27t5 29v57q0 8 1 13q-11 -1 -23 -1h-25 q-53 0 -106 6q-9 0 -17 -9t-8 -25zM334 -580h22l-10 -2h-12v2z" />
<glyph unicode="&#x1062;&#x1086;" horiz-adv-x="608" d="M20 694l3 17q23 125 180 125q87 0 125 -19q47 -19 82 -57.5t43 -89.5l6 -33v-522q0 -26 6 -47q7 -22 10.5 -24.5t7.5 -4.5q-12 -10 -15 -12t-9 -4l-21 -11q-30 -12 -90 -12q-86 0 -102 82q-1 10 -1.5 144t-0.5 395q-2 8 -2 14l-2 4q0 14 -4.5 29t-14 28.5t-23.5 22 t-32 8.5q-22 -5 -29 -14q-16 -13 -21 -32t-5 -38q0 -21 5.5 -36t11.5 -17q-56 9 -83 41q-25 24 -25 63zM153.5 1228q4.5 26 19.5 49q26 38 77 55q59 19 119 -12q28 -19 44 -42q20 -36 17.5 -74t-15.5 -70q-6 -7 -10 -13.5t-22 -21.5q-22 -22 -32 -28t-26 -21t-39.5 -40 t-82.5 -110q-30 -55 -13.5 28.5t40.5 155.5q0 2 1 2.5t0 2.5l-2 7q0 2 1 3t0 4l-1 4q3 7 3 13.5t2 13.5l1 4q2 8 7 16q2 3 1 5h2q0 2 3 7q0 2 1 5l7 10q9 14 20 27t26 25q-9 -1 -23 -11t-29 -28t-25 -43.5t-9 -57.5q-24 15 -39.5 37.5t-21.5 47t-1.5 50.5z" />
<glyph unicode="&#x103b;&#x1082;" horiz-adv-x="305" d="M-595 -561q0 37 34 59v2l10 4q13 9 25 9q0 2 4.5 2.5t5.5 1.5h15q0 2 2 2q24 0 48 -6q-15 12 -51 12q-28 0 -62 -19q-6 15 -6 27v283q0 69 44 104q19 21 51.5 31t80.5 14q24 0 47.5 -3t43.5 -12t34 -26t20 -45v-10q0 -27 -16.5 -47t-60.5 -27h-2h2q4 2 5 6l3 9 q2 5 3.5 10.5t1.5 11.5q0 51 -41 57h-5q-23 0 -33 -16q-19 -25 -19 -68v-296q0 -25 33 -46q19 -12 57 -12q62 0 82 41q7 16 7 21q0 43 15 67.5t61 36.5l31 2q28 0 47 -4q12 0 16 -2t6 -2q22 -11 29 -23q-46 -18 -46 -63v-8t-1 -8q15 6 33 20q16 16 28.5 38.5t12.5 47.5v1104 q0 54 25 84.5t79 30.5q13 0 35.5 -1.5t32.5 -3.5q10 -4 18.5 -6t16.5 -6q4 -4 8 -4q3 -2 6.5 -4t7.5 -4q14 -8 11 -8q-8 -1 -13 -13q-7 -7 -8.5 -20t-1.5 -21q-2 -10 -2 -22v-1092q0 -26 -7 -60t-34 -69q-26 -30 -52.5 -48t-55 -27t-60.5 -12t-69 -3h-3h-87l-10 -4 q-11 -5 -24.5 -8t-31.5 -4.5t-43 -2.5t-59 -1q-78 0 -126 18q-2 0 -3 1t-6 1q-35 19 -83 19q-29 0 -53 -15q-3 13 -3 25zM-117 -569q1 -1 2 -1t2 -1l15 -9l4 15q7 19 7 31q-13 -21 -30 -35z" />
<glyph unicode="&#x1083;&#x1037;" horiz-adv-x="664" d="M-80 694l2 17q26 125 178 125q87 0 125 -19q36 -14 61 -37t44 -51l4 -6q7 -16 11 -29t5 -24l6 -33v-799q0 -201 2 -209v-16l2 -4q0 -14 4.5 -29t14 -28.5t23.5 -22t32 -8.5q18 5 25 12l4 2q13 11 19 28.5t7 35.5q-41 11 -65.5 45t-24.5 80q0 45 35 83q6 -30 20.5 -51.5 t30.5 -35t31.5 -19.5t22.5 -6q-28 13 -54 39q0 2 -10 12q0 2 -4 6v2l-2 4q-8 5 -8 11v2l-12 24l-3 17q-4 0 -4 24q0 62 62 94q12 -63 86 -102q61 -45 61 -107q0 -52 -37 -92q-23 -20 -48 -29q12 -21 12 -51v-12q-14 -63 -56 -91t-102 -32h-23q-176 0 -229 105q-27 43 -27 94 v1008l-2 16l-2 2v6q-10 72 -59 82q-31 0 -43 -14q-17 -13 -22 -32t-5 -38q0 -21 5.5 -36t11.5 -17q-54 9 -80 41q-25 24 -25 63zM471 -342z" />
<glyph unicode="&#x1083;&#x103a;" horiz-adv-x="739" d="M-16 1368q0 13 4 25q29 -15 63 -15q57 0 99 19q6 0 7 1t3 1q57 18 149 18q41 0 70.5 -0.5t51.5 -2.5t38 -5t29 -8l32 -12q74 -39 74 -107q0 -45 55 -63q-10 -12 -34 -23q-2 0 -7.5 -2t-19.5 -2q-23 -4 -55 -4l-37 2q-49 11 -69.5 33.5t-20.5 70.5q0 5 -8 21 q-20 41 -99 41q-45 0 -67 -13q-19 -11 -29 -21.5t-10 -23.5v-297q0 -15 3 -29.5t10.5 -26.5t19 -19.5t28.5 -7.5h6q49 6 49 57q0 6 -2 11.5t-4 10.5l-4 9q-1 5 -6 6h-2h2q52 -7 72 -27t20 -47v-10q-7 -30 -25.5 -47t-42.5 -25.5t-51.5 -11t-52.5 -2.5q-57 4 -96 14t-61 31 q-52 34 -52 104v283q0 13 6 26q41 -18 74 -18q43 0 62 12q-28 -6 -58 -6q-2 0 -2 2h-18l-6 2l-6 2q-12 0 -29 9l-12 4v2q-41 23 -41 59zM61 694l2 17q26 125 181 125q87 0 125 -19q50 -20 82.5 -57t42.5 -90l6 -33v-799q0 -204 1 -206q2 -3 3 -21v-2q0 -14 4.5 -29t14 -28.5 t23.5 -22t32 -8.5q17 4 24 12l4 2q15 12 21 31.5t6 38.5q0 21 -7 36t-11 17q46 -7 76 -33.5t30 -75.5v-12q-26 -110 -152 -123h-28q-176 0 -230 105q-26 44 -26 94v1008q-2 8 -2 14l-2 4q0 14 -4.5 29t-14 28.5t-23.5 22t-32 8.5q-22 -5 -29 -14q-16 -13 -21 -32t-5 -38 q0 -21 5.5 -36t11.5 -17q-56 9 -83 41q-25 24 -25 63z" />
<glyph unicode="&#x103b;&#x103e;" horiz-adv-x="305" d="M-774 -487q0 29 8 51q0 -10 6 -19q19 -18 35 -18h6q17 0 27.5 15t16 35t7.5 41t2 32v231q0 115 105 115h33q18 -2 38.5 -5t38.5 -18q7 0 12 -5t13 -11q-4 0 -8 -3t-12 -26q-5 -7 -5 -293q0 -47 -14 -86q-57 -121 -197 -129q-34 0 -73 17q-39 31 -39 76zM-399 -109 q0 22 14 56q28 43 90 43q20 0 37 -1t31 -3q20 -11 32 -11q15 -10 23 -14t12 -8v-2q-8 0 -14 -10q-10 -27 -10 -60v-262q0 -12 3 -20.5t3 -12.5q4 -12 11.5 -25t19 -24.5t26.5 -18.5t33 -7q30 0 49 22q39 37 39 86v1114q0 101 102 101q22 0 38.5 -1.5t29.5 -3.5 q31 -10 41 -16h2l25 -16q-8 -1 -13 -13q-10 -4 -10 -63v-1088q0 -68 -43 -129q-66 -88 -192 -88l-136 -4q-24 0 -43 6q-6 0 -8 2q-15 3 -35 8.5t-39.5 13.5t-36 19t-24.5 25q0 2 -3 5t-5 6q-1 2 -6.5 6t-5.5 10q-7 8 -11 15.5t-6 14.5q-9 9 -10 27l-4 6v8l-4 13v12l-2 2v280 z" />
<glyph unicode="&#x103b;&#x103d;" horiz-adv-x="305" d="M-748 -55l3 22l2 4q25 -14 55 -14l20 2q69 5 93 16h4q58 21 147 21q42 0 72.5 -0.5t52.5 -2.5t38 -5t28 -8q104 -42 104 -117v-299q0 -14 -6 -27q-38 21 -72 21q-51 -9 -63 -15q30 6 61 6l2 -2h19q2 -2 10 -2q0 -2 7 -3t24 -9h4q0 -3 4 -4q22 -8 31.5 -23.5t9.5 -33.5 l-2 -23l-2 -4q-26 14 -56 14h-20q-62 -6 -86 -18q-4 0 -10 -2q-58 -19 -150 -19q-41 0 -71 1t-52 3t-37.5 5t-27.5 8q-107 41 -107 117v296q0 13 8 27q40 -18 74 -18q42 0 62 14q-26 -6 -78 -6q0 2 -13 2q0 2 -7 3t-25 9q-2 0 -2 2h-7v2q-41 23 -41 60zM-530 -125 q0 -332 2 -338q18 -55 104 -55q33 0 54 7.5t33 17.5t16 19.5t4 12.5v332q0 6 -4 16t-16 20t-33 17.5t-54 7.5q-75 0 -98 -38q-8 -14 -8 -19zM-254 -569q39 12 88 12q40 0 72 -18l4 20q6 19 6 27q0 22 -12 39q34 0 59 22q37 37 37 86v1100q0 115 104 115q22 0 38.5 -1.5 t29.5 -3.5q15 -6 28.5 -12t18.5 -6l21 -14q-11 -2 -18 -16t-7 -46v-1102q0 -124 -119 -192q-51 -27 -155 -27h-66q-22 0 -40 1t-34 3q-4 0 -6 2q-13 0 -49 11z" />
<glyph unicode="&#x103c;&#x103d;" horiz-adv-x="305" d="M0 -365v1403v158q0 21 4 46.5t17 52t37 51.5t63 45q16 8 34.5 12.5t45.5 9.5q24 4 56.5 4h80.5h301q4 0 6 -1t6 -1q94 -8 160 -34.5t104 -61.5q27 -23 45.5 -52.5t20.5 -64.5q0 -29 -13.5 -53t-35 -42.5t-47.5 -31.5t-51 -20q-40 -11 -72 -2q-23 4 -41.5 18t-26.5 37 q29 4 53.5 16.5t30.5 46.5q6 27 -5 52.5t-30 42.5q-17 17 -40 28t-48.5 18t-51.5 10.5t-50 4.5h-221q-37 -2 -59.5 -17t-35.5 -33.5t-17.5 -37t-4.5 -27.5v-1591q0 -7 4.5 -26t17.5 -38.5t35.5 -35t59.5 -15.5h53q10 -22 33 -45.5t74 -42.5q2 -2 4 -2t6 -2h-164 q-87 0 -137 6q-54 6 -80 23q-39 20 -63 45t-36.5 51t-17 51t-4.5 45zM364.5 -81.5q-10.5 22.5 0.5 48.5q14 -8 31 -11t36 -3q29 0 55 5.5t39 10.5h2q4 0 4 2h5q28 11 66 16t83 5q41 0 70 -0.5t51 -2.5t37.5 -5t29.5 -9q34 -12 55 -27t32.5 -31t15.5 -31t4 -27v-299 q0 -13 -8 -27q-46 27 -86 19t-49 -13q30 6 57 6q4 0 6 -2h19q2 -2 8 -2q2 -2 4 -2h4q6 -2 11 -4t9 -4q5 0 5 -2h4l2 -2q2 0 2 -2q26 -14 36.5 -35.5t0.5 -48.5q-14 8 -29.5 10.5t-32.5 2.5q-29 0 -57 -6t-43 -9l-2 -2h-4l-2 -2h-2q-57 -19 -148 -19q-42 0 -71.5 0.5 t-51.5 2.5t-37.5 5t-29.5 9q-34 12 -54.5 26.5t-32 30t-15 31t-3.5 28.5v297q0 10 6 27q46 -25 86 -19q20 3 32 7t17 8q-30 -8 -57 -6h-20q0 2 -4 2h-7q-2 2 -6 2h-4q-6 2 -11 4t-9 4q-2 0 -4 2q-2 0 -4 2h-3l-2 2q-26 15 -36.5 37.5zM580 -129v-332q0 -4 4 -14t15.5 -20.5 t32 -18.5t54.5 -8q33 0 53.5 7.5t32.5 17t16.5 19t4.5 13.5v332q0 6 -4.5 16.5t-16.5 20.5t-32.5 17t-53.5 7q-34 0 -54.5 -7t-32 -17t-15.5 -19.5t-4 -13.5z" />
<glyph unicode="&#x107e;&#x103c;" horiz-adv-x="305" d="M0 -362v1560q0 45 15.5 82.5t42.5 65t63.5 45t79.5 22.5q24 4 56.5 4h80.5h772q94 -10 159.5 -36.5t104.5 -61.5q27 -23 45.5 -52.5t20.5 -64.5q0 -28 -13.5 -52.5t-34.5 -44t-47 -32.5t-51 -18q-18 -4 -36.5 -5t-34.5 3q-23 4 -42.5 18t-27.5 37q15 3 28.5 7t25 10.5 t20 17.5t12.5 28q4 29 -6 53.5t-31 43.5q-18 16 -41 26.5t-48.5 17.5t-51 10.5t-49.5 4.5h-678q-37 0 -60.5 -15t-36.5 -35t-17.5 -38.5t-4.5 -26.5v-1591q0 -7 4.5 -26t17.5 -38.5t36.5 -35t60.5 -15.5h467q10 -22 34 -45.5t72 -42.5q4 0 6 -1t5 -1h-580h-80.5t-56.5 4 q-27 4 -54 13t-51 23.5t-43 34.5t-30 47q-23 57 -23 100zM782 -33q14 -8 31.5 -10.5t36.5 -2.5q29 0 55.5 5t38.5 10h2q2 0 4 2h4q29 11 66 16t82 5q42 0 71.5 -0.5t51.5 -2.5t37.5 -5t29.5 -9q68 -24 87 -58q10 -17 14 -31.5t4 -26.5v-299q0 -14 -6 -27q-47 27 -86 19 q-41 -8 -50 -13q32 6 58 6q4 0 6 -2h18q1 -1 6.5 -2.5t6.5 -1.5h4q6 -2 11 -4t9 -4q2 0 4 -2h4l2 -2q2 0 2 -2q27 -14 37.5 -35.5t-0.5 -48.5q-13 8 -28.5 10.5t-32.5 2.5q-30 0 -58 -6l-42 -9l-2 -2h-5q-2 -2 -4 -2q-60 -19 -149 -19q-41 0 -70 0.5t-50.5 2.5t-37.5 5.5 t-31 8.5q-33 12 -54 26.5t-32.5 30t-15.5 31t-4 28.5v297q0 13 8 27q46 -25 86 -19q20 3 32 7t17 8q-30 -8 -57 -6h-21q-2 2 -4 2h-8q0 2 -4 2h-4q-6 2 -11 4l-10 4q-4 0 -4 2q-2 0 -4 2h-2l-2 2q-22 22 -34.5 41t-2.5 45zM995 -129v-332q0 -4 4.5 -14t16.5 -20.5 t32.5 -18.5t53.5 -8q34 0 55 7.5t32 17t15 19t4 13.5v332q0 6 -4 16.5t-15 20.5t-32 17t-55 7q-33 0 -53.5 -7t-32.5 -17t-16.5 -19.5t-4.5 -13.5z" />
<glyph unicode="&#x103d;&#x103e;" d="M-872 -500q-1 37 18 58q17 20 63 26q-10 -2 -12 -13t-2 -20q-2 -10 0 -20t10 -18q15 -15 35 -15q12 0 21 6q16 15 16 43v299q0 10 6 27q46 -25 87 -19q20 3 32.5 7t17.5 8q-30 -8 -57 -6h-20q-2 2 -5 2h-8q-2 2 -4 2h-4q-6 2 -11 4t-9 4q-4 0 -4 2q-3 0 -5 2h-2l-2 2 q-22 22 -34.5 41t-2.5 45q14 -8 31.5 -10.5t36.5 -2.5q29 0 55.5 5t38.5 10h2q2 0 4 2h5q28 11 65 16t82 5q42 0 71.5 -0.5t51.5 -2.5t37.5 -5t29.5 -9q68 -24 86 -58q19 -36 19 -58v-299q0 -14 -6 -27q-46 27 -86 19t-49 -13q30 6 57 6q4 0 6 -2h18q1 0 6.5 -2t6.5 -2h4 q6 -2 11 -4t9 -4q2 0 4 -2h5q0 -2 2 -2t2 -2q26 -14 36.5 -35.5t0.5 -48.5q-14 8 -31 10.5t-35 2.5q-29 0 -55.5 -6t-40.5 -11h-6q-2 -2 -5 -2q-60 -19 -149 -19q-36 0 -62.5 0.5t-47 1.5t-36 3.5t-28.5 5.5q29 18 41 41.5t14 33.5q-13 -28 -31.5 -41.5t-44.5 -27.5 q-3 0 -14 -4q-2 0 -3 -1t-3 -1q-36 -11 -76 -11h-13.5h-18t-18 1t-13.5 3q-35 9 -60.5 28.5t-29.5 51.5zM-535 -129v-168v-164q0 -4 4.5 -14t16.5 -20.5t32.5 -18.5t53.5 -8q34 0 54.5 7.5t32 17t15.5 19t4 13.5v332q0 6 -4 16.5t-15.5 20.5t-32 17t-54.5 7q-33 0 -53.5 -7 t-32.5 -17t-16.5 -19.5t-4.5 -13.5z" />
<glyph unicode="&#x1020;&#x1039;&#x1020;" horiz-adv-x="766" d="M-33 764q0 18 4 35q32 -21 70 -21q56 0 113 23q2 0 2 2h4l4 2q32 16 75 22.5t97 6.5q164 0 208 -20t56 -32q12 -10 25 -23.5t23.5 -29t17 -32.5t6.5 -33q0 -19 -8 -43q-35 -68 -144 -68q-94 0 -127 37q30 11 47 25t17 47q-1 10 -7.5 24t-20.5 26.5t-36.5 21.5t-56.5 9 q-68 0 -100 -36q-23 -23 -23 -45v-482q0 -8 2 -10q1 -7 5 -15.5t9 -19.5q28 -55 105 -55q20 0 37.5 3t31.5 13q3 2 7 3t10 7q23 16 33 37q39 43 114 43h23l4 -2h8q2 0 7 -1t6 -1q2 0 7.5 -2t11.5 -5l12 -6t9 -5q11 -8 11 -10t4 -2q37 -28 37 -76q0 -13 -5 -35 q-2 -23 -21.5 -40.5t-48.5 -30.5t-63.5 -21.5t-68.5 -14t-63 -8t-47 -3.5q35 -7 63 -32l20 -18l-57 -45l-6 6q-15 23 -52 23q-26 0 -46.5 -21.5t-20.5 -52.5q0 -12 5.5 -24.5t15 -22t21.5 -15.5t25 -6l76 2l2 -69h37q0 34 -22.5 62t-51.5 42h-2l-2 2q-2 2 -10 3t-37 10 q5 16 19 28t34 19.5t43.5 11.5t47.5 4q37 0 69 -9.5t56 -28.5t39 -48.5t16 -69.5q0 -95 -66 -153q35 -17 35 -53q0 -27 -25 -52q-31 33 -79 33q-24 0 -48.5 -2.5t-50.5 -7.5q-42 -8 -64.5 -11t-27.5 -3l-4 -3q-52 0 -87.5 1t-55.5 4q-26 4 -46 9.5t-34 12.5 q-119 71 -119 201v227q0 38 12.5 60t34.5 33.5t51 14.5t62 3q78 0 121 -15l63 -2q121 0 158 49l2 7h-6v-2l-35 -11q-61 -12 -84 -12q-10 -2 -80 -2q-20 0 -32.5 0.5t-18.5 1.5q-33 0 -35 2q-19 0 -23 2q-25 0 -65 17q-12 0 -23 7.5t-12 8.5q-15 8 -35 27q-3 0 -4 4 q-24 24 -24 28h-2l-19 39q0 3 -0.5 4t-1.5 2.5t-1.5 5t-0.5 11.5q-2 0 -2 2v463q0 20 4 37q44 -29 80 -29q54 0 76 22q-35 -8 -80 -8q-2 2 -12 2q-2 2 -9.5 2t-7.5 4q-13 0 -26 11q-4 0 -2.5 3t-10.5 3v2q-45 39 -45 90zM213 -106v-267q0 -4 2.5 -13.5t7.5 -23.5 q24 -77 107 -77q53 0 104 59l4 4h-55v82q-18 -6 -37 -6q-28 0 -50 10t-37.5 28t-23.5 42t-8 51q0 22 7 44.5t19.5 42t31 33.5t40.5 19q-43 1 -87 6q-9 0 -17 -9t-8 -25zM334 -580h22l-10 -2h-12v2z" />
<glyph unicode="&#x102d;&#x1036;" d="M-748 1368q0 10 5 25q24 -15 55 -15l33 2q47 6 73 17q5 0 11 2q29 10 65.5 14t81.5 4q42 0 72.5 -1t52.5 -2.5t38 -4.5t28 -8q104 -38 104 -117v-297q0 -8 -6 -26q-39 18 -74 18q-42 0 -61 -14q24 8 41 8l36 -2q5 -2 11 -2t30 -11l13 -4q41 -24 41 -61l-2 -23l-2 -4 q-26 15 -56 15h-20q-32 -4 -53.5 -8t-32.5 -9q-6 0 -6 -2h-4q-62 -20 -150 -20q-41 0 -71 0.5t-52 2.5t-37.5 5t-27.5 8q-107 44 -107 117v299q0 12 8 26q40 -18 86 -18q36 0 50 12q-29 -6 -58 -6h-2v2q-4 0 -14 1t-21 3.5t-19.5 5t-8.5 5.5l-9 2v2q-41 23 -41 59zM-530 967 q0 -18 11.5 -30t28 -19t34.5 -10t32 -3q33 0 54 8t33 18t16 19.5t4 12.5v331q0 4 -4 14t-16 20.5t-33 19t-54 8.5q-38 0 -62 -10t-36 -29q-8 -13 -8 -19v-331zM-137 1368l2 10q0 15 5.5 29.5t15 26t23 19t30.5 7.5q34 0 51.5 -26t17.5 -68q-1 -82 -41 -96q-8 -8 -30 -8 q-27 0 -41.5 14t-20.5 30q-6 15 -7 20t-1 3q-4 17 -4 39zM-84 1364q0 -18 7 -29.5t16 -11.5q20 0 20 39q0 35 -20 35q-22 0 -23 -33z" />
<glyph unicode="&#x1004;&#x103a;&#x1039;" d="M-670 1153q0 7 4 16q24 -8 48 -8q48 0 75 8l2 2h4q46 13 138 13q45 0 75.5 -3.5t47.5 -9.5q22 -7 22 -10h2q19 -7 31 -18v-2h2q14 -16 14 -29q0 -12 -17.5 -25.5t-47.5 -17.5l-43 -2l-47 6q-13 1 -27 10q32 8 39 19l4 10q0 11 -10 18t-23.5 10.5t-27.5 5t-21 1.5 q-17 0 -29 -1t-20 -5q-29 -14 -29 -29q0 -200 2 -203q11 -17 29 -26t47 -9q28 0 45 9q6 0 10 4q25 7 25 20l2 4l-2 4q-1 19 -41 27q14 9 27 10q3 3 92 4q8 -1 15.5 -3.5t14.5 -6.5q29 -11 33 -26q0 -13 -2 -15q-13 -27 -69 -43q-21 -8 -29 -8q-45 -12 -121 -12h-51.5t-38 1 t-28.5 3t-23 6q-78 27 -78 70v176q0 10 4 14q30 -10 55 -10q30 0 43 8q-10 -2 -21 -3t-22 -1l-4 2h-16l-2 2l-23 4v2q-4 0 -6 2q-33 15 -33 35zM-639 1397q0 7 4 12q17 -4 39 -4q20 0 35.5 1t25.5 3q11 0 13 2q40 6 98 6h58.5t31.5 -1q10 -1 27.5 -4.5t34.5 -9.5t29 -15.5 t12 -22.5l4 -12q12 -13 32 -15q-18 -12 -31 -11.5t-22 -2.5h-28q-7 0 -50 8q-28 10 -28 36t-62 26q-49 0 -63 -11l-15 -12v-127q0 -12 11.5 -21.5t21.5 -9.5q34 0 39 15q6 8 6 10q0 7 -6 8q0 4 -5 6q58 -4 58 -32q-11 -28 -65 -35h-47q-124 0 -135 59v117q0 6 4 10 q27 -8 47 -8q35 0 41 6q-11 -1 -23 -1.5t-26 -0.5q-16 0 -23 4h-6l-2 2h-6v2q-29 8 -29 23z" />
<glyph unicode="&#x101b;&#x103a;&#x1039;" d="M-719 1161q0 66 27 122.5t72 97.5t104 64t123 23q47 0 89 -14t77 -39.5t62.5 -61t47.5 -77.5l21 -62l-113 -28l-16 43q-34 76 -107 106q-30 15 -65 15q-40 0 -86 -21q-109 -49 -115 -168q35 8 66 8q74 0 129 -35.5t88 -101.5q16 -32 16 -74q0 -27 -9.5 -49.5t-26 -38.5 t-39 -25t-48.5 -9q-11 0 -57 8q-150 35 -209 178q-31 75 -31 139zM-580 1069q48 -100 158 -117q4 0 8 4.5t4 8.5t-12 28q-41 80 -115 80h-17.5t-16.5 -2z" />
<glyph unicode="&#x103e;&#x102d;&#xe2f1;" d="M-889 -461q-6 48 23 80q28 32 83 41q-4 -2 -8 -9t-6 -11q-9 -15 -7 -33t9 -35q1 -15 21 -35l12 -8t17 -6h12q14 2 24.5 10.5t18 20t12 25.5t6.5 26v6q0 2 1 2t1 2q0 8 1 15.5t1 15.5v231q0 21 3 36.5t12 35.5q11 17 30 31q21 12 58 12h15.5t20 -1t19.5 -2t14 -3 q8 -2 22.5 -6.5t20.5 -10.5q5 -2 8.5 -3.5t6.5 -4.5l8 -8q-8 -4 -13.5 -12t-5.5 -17q-4 -11 -4 -22v-271v-17t-2 -17q-3 -36 -20 -70q-2 -2 -2 -3t-2 -3q-19 -33 -49 -58q-37 -26 -72 -35t-80 -12h-12q-15 -2 -40.5 0t-41.5 6q-45 11 -77 40t-38 77zM-750 1368q0 10 5 25 q28 -15 63 -15q56 0 98 19q6 0 7.5 1t3.5 1q61 18 149 18q41 0 70.5 -0.5t51 -2.5t37.5 -5t29 -8q107 -39 107 -117v-297q0 -8 -6 -26q-41 18 -74 18q-44 0 -63 -14q24 8 41 8l38 -2l3 -2h8q0 -2 8 -3t20 -8q4 0 4 -2h5l4 -4q41 -23 41 -59q0 -14 -4 -27q-29 15 -64 15 q-62 0 -98 -17l-10 -2q-60 -20 -148 -20q-42 0 -72 0.5t-52 2t-37.5 5t-28.5 8.5q-105 42 -105 117v299q0 13 6 26q40 -18 74 -18q43 0 61 12q-29 -6 -57 -6q-2 0 -2 2h-18q-4 1 -7 2l-6 2q-12 0 -28 9l-9 2v2h-4v2q-41 23 -41 59zM-530 967q0 -7 8 -23q21 -39 98 -39 q33 0 54 8t33 18t16 19.5t4 12.5v331q0 4 -4 14t-16 20.5t-33 19t-54 8.5q-12 0 -30.5 -2.5t-35 -9.5t-28.5 -18t-12 -28v-331zM-426 -47q11 11 25 16q2 2 4 3t4 3q19 10 35 11q5 2 14 3t19.5 2t19.5 1h14q30 0 51.5 -8.5t38.5 -34.5q8 -21 11.5 -35t3.5 -37v-231 q0 -11 0.5 -18.5t1.5 -12.5v-4q2 -2 2 -6q2 -12 6.5 -26t11.5 -25.5t17 -20t24 -10.5h14q11 2 17 6l12 8q12 12 21 35q10 33 2 68q-2 4 -6 11t-8 9q55 -9 83 -41q29 -33 23 -80q-6 -48 -39 -77t-78 -40q-7 -2 -17.5 -3.5t-22 -2.5t-22.5 -1t-18 1h-12q-45 3 -80 12t-72 35 q-31 26 -51 58q0 2 -1 3t-1 3q-2 4 -4 9t-4 9q-7 12 -9 25t-3 27q-2 10 -2 17v17v271q-2 6 -2 11t-3 11l-6 19q-4 6 -14 10z" />
<glyph unicode="&#x103e;&#x1072;&#xe2f1;" d="M-889 -461q-6 48 23 80q28 32 83 41q-4 -2 -8 -9t-6 -11q-9 -15 -7 -33t9 -35q1 -15 21 -35l12 -8t17 -6h12q14 2 24.5 10.5t18 20t12 25.5t6.5 26v6q0 2 1 2t1 2q0 8 1 15.5t1 15.5v231q0 21 3 36.5t12 35.5q11 17 30 31q21 12 58 12h15.5t20 -1t19.5 -2t14 -3 q8 -2 22.5 -6.5t20.5 -10.5q5 -2 8.5 -3.5t6.5 -4.5l8 -8q-8 -4 -13.5 -12t-5.5 -17q-4 -11 -4 -22v-271v-17t-2 -17q-3 -36 -20 -70q-2 -2 -2 -3t-2 -3q-19 -33 -49 -58q-37 -26 -72 -35t-80 -12h-12q-15 -2 -40.5 0t-41.5 6q-45 11 -77 40t-38 77zM-752 1368q0 13 4 25 q28 -15 64 -15q56 0 98 19q6 0 7 1t4 1q57 18 149 18q41 0 70.5 -0.5t51 -2.5t37.5 -5t29 -8l33 -12q74 -39 74 -107q0 -45 55 -63q-10 -13 -35 -23q-2 0 -7 -2t-19 -2q-23 -4 -56 -4l-36 2q-50 11 -70 33t-20 71q0 6 -9 21q-12 20 -36 30.5t-62 10.5q-12 0 -30.5 -2.5 t-35 -9.5t-28.5 -18t-12 -28v-297q0 -44 22 -67q12 -16 39 -16h6q49 6 49 57q0 6 -2 11.5t-4 10.5l-4 9q-2 5 -6 6q52 -7 72 -27t20 -47v-10q-8 -30 -26 -47t-42 -25.5t-51.5 -11t-52.5 -2.5q-57 4 -96 14t-62 31q-51 35 -51 104v283q0 13 6 26q40 -18 74 -18q43 0 61 12 q-29 -6 -57 -6q-2 0 -2 2h-18q-1 1 -7 1.5t-6 2.5q-12 0 -28 9l-13 4v2q-41 23 -41 59zM-426 -47q11 11 25 16q2 2 4 3t4 3q19 10 35 11q5 2 14 3t19.5 2t19.5 1h14q30 0 51.5 -8.5t38.5 -34.5q8 -21 11.5 -35t3.5 -37v-231q0 -11 0.5 -18.5t1.5 -12.5v-4q2 -2 2 -6 q2 -12 6.5 -26t11.5 -25.5t17 -20t24 -10.5h14q11 2 17 6l12 8q12 12 21 35q10 33 2 68q-2 4 -6 11t-8 9q55 -9 83 -41q29 -33 23 -80q-6 -48 -39 -77t-78 -40q-7 -2 -17.5 -3.5t-22 -2.5t-22.5 -1t-18 1h-12q-45 3 -80 12t-72 35q-31 26 -51 58q0 2 -1 3t-1 3q-2 4 -4 9 t-4 9q-7 12 -9 25t-3 27q-2 10 -2 17v17v271q-2 6 -2 11t-3 11l-6 19q-4 6 -14 10z" />
<glyph unicode="&#x103e;&#x103a;" d="M-752 1368q0 13 4 25q28 -15 64 -15q56 0 98 19q6 0 7 1t4 1q57 18 149 18q41 0 70.5 -0.5t51 -2.5t37.5 -5t29 -8l33 -12q74 -39 74 -107q0 -45 55 -63q-10 -13 -35 -23q-2 0 -7 -2t-19 -2q-23 -4 -56 -4l-36 2q-50 11 -70 33t-20 71q0 6 -9 21q-12 20 -36 30.5 t-62 10.5q-12 0 -30.5 -2.5t-35 -9.5t-28.5 -18t-12 -28v-297q0 -44 22 -67q12 -16 39 -16h6q49 6 49 57q0 6 -2 11.5t-4 10.5l-4 9q-2 5 -6 6q52 -7 72 -27t20 -47v-10q-8 -30 -26 -47t-42 -25.5t-51.5 -11t-52.5 -2.5q-57 4 -96 14t-62 31q-51 35 -51 104v283q0 13 6 26 q40 -18 74 -18q43 0 61 12q-29 -6 -57 -6q-2 0 -2 2h-18q-1 1 -7 1.5t-6 2.5q-12 0 -28 9l-13 4v2q-41 23 -41 59zM-699 -461q-6 48 23 80q28 32 83 41q-4 -2 -8 -9t-6 -11q-9 -15 -7 -33t9 -35q1 -15 21 -35l12 -8t17 -6h12q14 2 24.5 10.5t18 20t12 25.5t6.5 26v6q0 2 1 2 t1 2q0 8 1 15.5t1 15.5v231q0 21 3 36.5t12 35.5q11 17 30 31q21 12 58 12h15.5t20 -1t19.5 -2t14 -3q8 -2 22.5 -6.5t20.5 -10.5q5 -2 8.5 -3.5t6.5 -4.5l8 -8q-8 -4 -13.5 -12t-5.5 -17q-4 -11 -4 -22v-271v-17t-2 -17q-3 -36 -20 -70q-2 -2 -2 -3t-2 -3q-19 -33 -49 -58 q-37 -26 -72 -35t-80 -12h-12q-15 -2 -40.5 0t-41.5 6q-45 11 -77 40t-38 77z" />
<glyph unicode="&#x103e;&#x102d;&#xe2f2;" d="M-903.5 -468q2.5 17 6.5 28q-2 -6 5 -15.5t11 -13.5q13 -8 27 -8q23 0 35 18q14 21 18 50.5t4 54.5v231q0 6 1 14.5t3 18.5q0 20 13 39q11 25 36.5 34t51.5 9h15.5t20 -1t19.5 -2t14 -3q11 -2 18 -4t15 -7q2 -1 7.5 -4t11 -7t10 -7t4.5 -4q-9 -5 -13.5 -12t-7.5 -17 q0 -6 -1 -11t-1 -11v-271q0 -45 -15.5 -84t-43.5 -68t-67 -46t-85 -17q-18 -2 -38 2t-37 15q-18 11 -26.5 28.5t-11 35.5t0 35zM-750 1368q0 10 5 25q28 -15 63 -15q56 0 98 19q6 0 7.5 1t3.5 1q61 18 149 18q41 0 70.5 -0.5t51 -2.5t37.5 -5t29 -8q107 -39 107 -117v-297 q0 -8 -6 -26q-41 18 -74 18q-44 0 -63 -14q24 8 41 8l38 -2l3 -2h8q0 -2 8 -3t20 -8q4 0 4 -2h5l4 -4q41 -23 41 -59q0 -14 -4 -27q-29 15 -64 15q-62 0 -98 -17l-10 -2q-60 -20 -148 -20q-42 0 -72 0.5t-52 2t-37.5 5t-28.5 8.5q-105 42 -105 117v299q0 13 6 26 q40 -18 74 -18q43 0 61 12q-29 -6 -57 -6q-2 0 -2 2h-18q-4 1 -7 2l-6 2q-12 0 -28 9l-9 2v2h-4v2q-41 23 -41 59zM-553 -47q0 2 10 8q4 2 7.5 4t7.5 4q8 8 20 11.5t23 5.5q5 2 14 3t18.5 2t19 1h15.5q35 0 58 -12q28 -23 37.5 -44t9.5 -59v-371q0 -9 4 -24q0 -19 18 -29 l-8 -8q-4 -2 -7 -4t-7 -4l-7.5 -3t-3.5 -1q-6 -4 -12 -6t-16 -7h-4q-6 -2 -15 -3t-19.5 -2t-20 -1h-15.5q-31 0 -50.5 9.5t-37.5 33.5q-8 18 -11 35t-3 37v348q0 3 -0.5 10t-1 14.5t-1 14t-1.5 8.5q-3 7 -5.5 11t-3.5 8q-1 5 -12 10zM-530 967q0 -9 8 -23q22 -39 98 -39 q33 0 54 8t33 18t16 19.5t4 12.5v331q0 4 -4 14t-16 20.5t-33 19t-54 8.5q-12 0 -30.5 -2.5t-35 -9.5t-28.5 -18t-12 -28v-331zM-287 -47q4 4 12 9t13 7q4 4 8 6q9 5 17 7t18 4q5 2 14 3t19.5 2t19.5 1h14q32 0 52 -8.5t39 -34.5q8 -20 11 -35.5t3 -36.5v-231q0 -14 2 -34.5 t8 -40.5t17.5 -34t30.5 -14q13 0 26 8q4 4 11 13.5t5 15.5q5 -12 7.5 -29t0.5 -34.5t-10.5 -34.5t-27.5 -29q-17 -11 -37.5 -15t-36.5 -2q-32 0 -62.5 9t-57 25.5t-46.5 40.5t-31 54q-14 39 -14 86v246q0 7 -0.5 13.5t-1.5 11.5v12.5t-2 9.5l-6 19q-4 5 -15 10z" />
<glyph unicode="&#x102b;&#x1036;" d="M-559 1104q0 45 33 82q13 -61 52 -87q38 -26 54 -26q-29 17 -53 41v2h-2l-6 6v2h-2v4l-4 2l-2 5q-9 8 -10 11t-1 5v2q-9 15 -9 20.5t-3 8.5v10h-2l-2 22q0 62 59 97q15 -60 88 -105q62 -51 62 -106q0 -58 -39 -90q-34 -37 -86 -37q-27 0 -50.5 10t-40.5 27t-26.5 41.5 t-9.5 52.5zM-201 1366q0 59 54 59q120 0 161 -6q44 -5 80.5 -22.5t63.5 -46t42 -66t15 -82.5q0 -1114 2 -1124q0 -33 21 -41q-9 -9 -16 -13t-15 -7t-16.5 -5.5t-20.5 -7.5q-23 -4 -68 -4q-85 0 -102 80v1139q0 17 -7 35.5t-19 35t-28 27t-34 10.5q-12 0 -21.5 -2t-15.5 -8 q-16 -7 -25 -19q-51 23 -51 68z" />
<glyph unicode="&#x102b;&#x1032;" d="M-506 1268q4 8 5 10.5t2.5 5.5t5 8t12.5 17q4 2 6 6l41 31q26 14 41 14q38 0 57 -25l14 -22q72 -114 109 -173.5t41 -67.5q7 -14 27 -34q25 -22 43 -22q22 0 28 18q2 2 2 8q0 15 -2 17q17 -8 29 -35q8 -14 8 -31q0 -14 -6.5 -26t-17.5 -23q-43 -43 -113 -43 q-93 0 -145 105l-142 223q0 4 -5 10t-7 10q-2 5 -9.5 13t-19.5 8zM-201 1366q0 59 54 59q120 0 161 -6q44 -5 80.5 -22.5t63.5 -46t42 -66t15 -82.5q0 -1114 2 -1124q0 -33 21 -41q-9 -9 -16 -13t-15 -7t-16.5 -5.5t-20.5 -7.5q-23 -4 -68 -4q-85 0 -102 80v1139 q0 17 -7 35.5t-19 35t-28 27t-34 10.5q-12 0 -21.5 -2t-15.5 -8q-16 -7 -25 -19q-51 23 -51 68z" />
<glyph unicode="&#x1032;&#xaa70;" d="M-748 1188q0 77 84 96q11 2 21.5 4t19.5 2q84 0 103 -88q6 -22 6 -41q0 -25 -10 -41l356 -157l-45 -105l-461 205q-21 5 -35 18t-22.5 30.5t-12.5 37.5t-4 39zM-485 1264l47 86l370 -191l-45 -86z" />
<glyph unicode="&#x103a;&#xaa70;" d="M-682 1229l2 12q4 41 39 93q17 26 42 50.5t57.5 43t72 29.5t86.5 11q264 0 342 -319l-113 -31q-24 128 -90 178q-76 56 -149 56q-176 0 -252 -142zM-637 1081q0 48 16.5 88.5t46 70.5t70 46.5t88.5 16.5q176 0 215 -199q-59 -23 -116 -29q-14 111 -103 111 q-92 0 -102 -105q0 -21 7.5 -39t21 -31.5t32 -21.5t39.5 -8l51 6v-121q-30 -6 -49 -6q-47 0 -86.5 17t-68.5 47t-45.5 70.5t-16.5 86.5z" />
<glyph unicode="&#x102c;&#x103e;&#x103a;" horiz-adv-x="459" d="M-752 1368q0 13 4 25q28 -15 64 -15q56 0 98 19q6 0 7 1t4 1q57 18 149 18q41 0 70.5 -0.5t51 -2.5t37.5 -5t29 -8l33 -12q74 -39 74 -107q0 -45 55 -63q-10 -13 -35 -23q-2 0 -7 -2t-19 -2q-23 -4 -56 -4l-36 2q-50 11 -70 33t-20 71q0 6 -9 21q-12 20 -36 30.5 t-62 10.5q-12 0 -30.5 -2.5t-35 -9.5t-28.5 -18t-12 -28v-297q0 -44 22 -67q12 -16 39 -16h6q49 6 49 57q0 6 -2 11.5t-4 10.5l-4 9q-2 5 -6 6q52 -7 72 -27t20 -47v-10q-8 -30 -26 -47t-42 -25.5t-51.5 -11t-52.5 -2.5q-57 4 -96 14t-62 31q-51 35 -51 104v283q0 13 6 26 q40 -18 74 -18q43 0 61 12q-29 -6 -57 -6q-2 0 -2 2h-18q-1 1 -7 1.5t-6 2.5q-12 0 -28 9l-13 4v2q-41 23 -41 59zM-699 -461q-6 48 23 80q28 32 83 41q-4 -2 -8 -9t-6 -11q-9 -15 -7 -33t9 -35q1 -15 21 -35l12 -8t17 -6h12q14 2 24.5 10.5t18 20t12 25.5t6.5 26v6q0 2 1 2 t1 2q0 8 1 15.5t1 15.5v231q0 21 3 36.5t12 35.5q11 17 30 31q21 12 58 12h15.5t20 -1t19.5 -2t14 -3q8 -2 22.5 -6.5t20.5 -10.5q5 -2 8.5 -3.5t6.5 -4.5l8 -8q-8 -4 -13.5 -12t-5.5 -17q-4 -11 -4 -22v-271v-17t-2 -17q-3 -36 -20 -70q-2 -2 -2 -3t-2 -3q-19 -33 -49 -58 q-37 -26 -72 -35t-80 -12h-12q-15 -2 -40.5 0t-41.5 6q-45 11 -77 40t-38 77zM-303 631q0 33 14.5 58.5t36.5 46t49 36.5t53 29h3v2q94 33 188 33q57 0 114.5 -10.5t108.5 -32.5q105 -45 105 -144v-551q0 -11 1 -19t3 -13l6 -19q6 -7 14 -12l-2 -2q-19 -19 -46.5 -26 t-53.5 -7h-33q-42 0 -68 18.5t-33 60.5q-3 18 -3 568q0 30 -15 43q-41 47 -104 47q-22 0 -44 -7t-39.5 -20.5t-28.5 -33t-11 -43.5q0 -58 63 -88q-13 -21 -41 -33q-18 -8 -73 -14q-33 0 -62.5 7t-52 23t-36 41t-13.5 62z" />
<glyph unicode="&#x1051;&#x1039;&#x100d;" horiz-adv-x="764" d="M-25 797l3 2q33 22 62.5 28.5t68.5 6.5q41 0 57 -13q30 -17 38.5 -43.5t8.5 -58.5v-541q0 -7 8 -28q23 -60 115 -60q66 0 100 37q21 23 21 45v545q0 12 -6.5 24.5t-17 22t-23.5 16t-25 6.5q-14 0 -29 -4q2 11 15 27q29 22 55 22q11 3 121 3q55 0 94 -43q0 -3 2 -3 q5 -9 12 -16q17 -25 17 -51v-514q0 -14 -6 -37q-46 29 -84 29q-49 0 -72 -23q31 10 70 10h4l2 -2h18q4 -2 8 -3t7 -3h4q6 -4 9 -4t15 -8h4q2 -2 2 -4l7 -2v-2q47 -35 47 -88q0 -19 -4 -35q-33 18 -70 18q-7 0 -20.5 -1t-30 -4t-34 -7t-32.5 -10h-6q-4 -1 -4 -4 q-67 -27 -170 -27q-47 0 -81 1t-59.5 3t-43.5 7t-33 12q-121 61 -121 170v550q-1 20 -8 41q-7 12 -15 13zM21 -43q0 14 6.5 22.5t16.5 13t22.5 6t23.5 1.5q27 0 60 -12q66 -29 133 -29h22q39 4 73.5 10.5t63.5 14.5q44 12 68 12q19 0 45.5 -2t52 -9.5t44.5 -22t22 -38.5v-18 q-1 -5 -1.5 -69t-0.5 -189q0 -14 2 -34.5t8 -40.5t18 -34t31 -14q17 0 30 11.5t13 19.5l-2 6q8 -18 8 -49q-11 -95 -94 -95q-122 0 -172 59q-49 59 -55 130q-6 70 -6 125l4 186q0 8 -3 12t-26 4q-14 0 -35 -6q-25 -7 -49 -9.5t-49 -2.5q-41 0 -102 14q-34 -1 -45 -22l-7 -2 l-24.5 -7t-18.5 -3q-33 0 -61 26q-16 19 -16 35zM252 440q0 28 20 54q6 -21 16 -35.5t21 -23.5t20.5 -13t14.5 -4q-19 12 -35 26q0 3 -6 9h-2q-4 4 -4 10q-6 4 -6 8q-6 12 -6 18h-2v9h-2q0 58 39 77q4 -16 17.5 -33.5t39.5 -35.5q41 -29 41 -70q0 -35 -24.5 -59.5 t-61.5 -24.5q-31 0 -55.5 24.5t-24.5 63.5z" />
<glyph unicode="&#x1051;&#x1039;&#x100c;" horiz-adv-x="764" d="M-25 797l3 2q33 22 62.5 28.5t68.5 6.5q41 0 57 -13q30 -17 38.5 -43.5t8.5 -58.5v-541q0 -7 8 -28q23 -60 115 -60q66 0 100 37q21 23 21 45v545q0 12 -6.5 24.5t-17 22t-23.5 16t-25 6.5q-14 0 -29 -4q2 11 15 27q29 22 55 22q11 3 121 3q55 0 94 -43q0 -3 2 -3 q5 -9 12 -16q17 -25 17 -51v-514q0 -14 -6 -37q-46 29 -84 29q-49 0 -72 -23q31 10 70 10h4l2 -2h18q4 -2 8 -3t7 -3h4q6 -4 9 -4t15 -8h4q2 -2 2 -4l7 -2v-2q47 -35 47 -88q0 -19 -4 -35q-33 18 -70 18q-7 0 -20.5 -1t-30 -4t-34 -7t-32.5 -10h-6q-4 -1 -4 -4 q-67 -27 -170 -27q-47 0 -81 1t-59.5 3t-43.5 7t-33 12q-121 61 -121 170v550q-1 20 -8 41q-7 12 -15 13zM-2 -328q7 81 56 118.5t124 37.5q24 0 47.5 -4t43.5 -11.5t34 -20t19 -28.5q-19 -4 -29.5 -7t-15 -4.5t-5.5 -2t-2 -0.5q-40 -19 -59 -55q-14 -23 -14 -47 q0 -41 39 -78q51 -59 102 -59q38 0 61.5 14.5t36.5 34t17 38t4 27.5v293q0 8 -3 12t-26 4q-14 0 -35 -6q-25 -7 -49 -9.5t-49 -2.5q-41 0 -102 14q-34 -1 -45 -22l-7 -2l-24.5 -7t-18.5 -3q-33 0 -61 26q-16 19 -16 35q0 14 6.5 22.5t16.5 13t22.5 6t23.5 1.5q27 0 60 -12 q66 -29 133 -29h22q39 4 73.5 10.5t63.5 14.5q44 12 68 12q21 0 49.5 -2.5t54 -11t43 -25.5t17.5 -45v-18q-1 -5 -1.5 -13t-0.5 -18v-221q0 -128 -121 -195q-26 -14 -80 -22q-19 -3 -49.5 -4t-75.5 -1h-14q-1 1 -12 3t-26.5 4.5t-32 4.5t-30.5 5q-49 10 -98 10 q-44 -1 -80 -31q-24 25 -24 49q0 37 35 54q-66 61 -66 153zM252 440q0 28 20 54q6 -21 16 -35.5t21 -23.5t20.5 -13t14.5 -4q-19 12 -35 26q0 3 -6 9h-2q-4 4 -4 10q-6 4 -6 8q-6 12 -6 18h-2v9h-2q0 58 39 77q4 -16 17.5 -33.5t39.5 -35.5q41 -29 41 -70q0 -35 -24.5 -59.5 t-61.5 -24.5q-31 0 -55.5 24.5t-24.5 63.5z" />
<glyph unicode="&#x103a;&#x1036;" d="M-752 1368q0 13 4 25q28 -15 64 -15q56 0 98 19q6 0 7 1t4 1q57 18 149 18q41 0 70.5 -0.5t51 -2.5t37.5 -5t29 -8l33 -12q74 -39 74 -107q0 -45 55 -63q-10 -13 -35 -23q-2 0 -7 -2t-19 -2q-23 -4 -56 -4l-36 2q-25 5 -42 13t-27.5 20t-15.5 29.5t-5 41.5q0 6 -9 21 q-12 20 -36 30.5t-62 10.5q-46 0 -68 -13q-38 -22 -38 -45v-297q0 -44 22 -67q12 -16 39 -16h6q49 6 49 57q0 6 -2 11.5t-4 10.5l-4 9q-2 5 -6 6h-2h2q52 -7 72 -27t20 -47v-10q-8 -30 -26 -47t-42 -25.5t-51.5 -11t-52.5 -2.5q-57 4 -96 14t-62 31q-51 35 -51 104v283 q0 13 6 26q40 -18 74 -18q43 0 61 12q-29 -6 -57 -6q-2 0 -2 2h-18q-1 1 -7 1.5t-6 2.5q-12 0 -28 9l-13 4v2q-41 23 -41 59zM-479 1139q0 19 16 39q3 -15 10.5 -26t16 -18t16 -10.5t10.5 -3.5q-14 8 -26 21v2q-3 0 -8 8q0 4 -1.5 6t-4 4.5t-4 5.5t-1.5 9h-2v6q0 43 29 57 q6 -25 40 -49t34 -55q0 -27 -18.5 -45.5t-47.5 -18.5q-22 0 -40.5 19.5t-18.5 48.5z" />
<glyph unicode="&#x1039;&#x1010;&#x103d;" horiz-adv-x="2" d="M-658 -53q0 6 3 14v2q13 -8 26 -8q31 0 51 9q2 0 2 1h2q33 11 70 11q30 0 48 -1t28.5 -3.5t16.5 -5.5t13 -7q3 4 5 4q42 13 84 13q48 0 92 -15q43 -18 43 -54v-200q0 -42 -43 -42q-26 0 -29 1q-14 5 -15.5 5.5t-2.5 1.5q-9 4 -9 6q7 0 8.5 7.5t1.5 6.5v213q0 18 -17 26.5 t-32 8.5q-16 0 -34 -10.5t-18 -28.5q0 -22 27 -34q-11 -14 -27 -14q-1 -1 -9 -1l-1 -1h-11q-2 -2 -6 -2q-3 0 -5 2h-9q-7 2 -12.5 3.5t-13.5 6.5q7 -9 19.5 -12.5t23.5 -3.5q5 0 11 0.5t13 1.5v-106q0 -4 -3 -13q-19 10 -35 10q-19 0 -30 -8q13 4 35 4q5 -1 7 -3h5 q3 -3 8 -2.5t5 -3.5h2q0 -1 2 -1q19 -13 19 -32l-3 -14q-13 7 -29 7q-22 0 -42 -7q-2 0 -8 -2q-33 -11 -73 -11q-39 0 -58.5 1.5t-31.5 7.5q-49 21 -49 62q0 168 1 171q1 1 1 4q20 -10 36 -10q19 0 29 7q-14 -3 -34 -3l-1 1h-4q-6 2 -5.5 1.5t-11.5 4.5l-7 3q-19 13 -19 31z M-554 -88v-180q0 -10 5 -16.5t12.5 -10t16 -5t16.5 -1.5q13 0 29 5.5t21 19.5q1 3 1 176q0 25 -13.5 33.5t-37.5 8.5q-6 0 -15 -1.5t-16.5 -5t-13 -9.5t-5.5 -14zM-447 -366q0 3 2 11q12 -6 27 -6q23 0 42 7l3 1q25 9 63 9q35 0 52 -1t28 -6q44 -20 44 -50v-126q0 -3 -2 -11 q-18 8 -31 8q-19 0 -26 -6q13 3 24 3q2 0 2 -1h8q1 -1 5 -1q0 1 11 -4l5 -2v-1q17 -8 17 -24q0 -7 -1 -11q-12 6 -27 6q-23 0 -42 -8h-2l-2 -1q-12 -6 -28 -7t-35 -1q-35 0 -52 1t-28 6q-45 18 -45 50v125q0 6 4 11q15 -7 31 -7q18 0 26 6q-11 -3 -20 -3h-13v1h-5 q0 -1 -13 4q-1 0 -1.5 1t-1.5 1l-2 1q-17 9 -17 25zM-355 -395v-141q0 -8 5 -13t12 -8t14.5 -4t13.5 -1q14 0 23 3.5t14 7.5t6.5 8t1.5 6v140q0 4 -8.5 15t-36.5 11q-5 0 -12.5 -1t-14.5 -4t-12.5 -7.5t-5.5 -11.5z" />
<glyph unicode="&#xd;" horiz-adv-x="561" />
<glyph />
<glyph unicode=" "  horiz-adv-x="561" />
<glyph unicode="&#x09;" horiz-adv-x="561" />
<glyph unicode="&#xa0;" horiz-adv-x="561" />
<glyph unicode="!" horiz-adv-x="330" d="M0 1434h330q-53 -13 -58 -150l-28 -1018h-156l-31 1018q-3 137 -57 150zM74 92q0 37 26.5 63.5t65.5 26.5q37 0 63.5 -26.5t26.5 -63.5q0 -39 -26.5 -65.5t-63.5 -26.5q-39 0 -65.5 26.5t-26.5 65.5z" />
<glyph unicode="&#x22;" horiz-adv-x="483" d="M42 1337.5q-2 29.5 8 62t29 61t45.5 49t57.5 26.5q-10 -14 -19.5 -31.5t-14.5 -33t-3.5 -27t11.5 -14.5q36 -11 54.5 -42.5t8.5 -68.5q-5 -18 -16.5 -32.5t-26.5 -23.5t-32.5 -12t-34.5 2q-33 9 -49 32t-18 52.5zM260 1335.5q-2 29.5 8 62.5t29.5 61.5t46 49.5t57.5 27 q-10 -14 -19.5 -31.5t-14.5 -33t-4.5 -27t10.5 -14.5q37 -11 56.5 -42.5t8.5 -68.5q-5 -18 -16.5 -32.5t-26.5 -23.5t-33 -12t-36 2q-33 8 -48.5 30.5t-17.5 52z" />
<glyph unicode="#" horiz-adv-x="1141" d="M41 399q41 24 60.5 57t35.5 66h133l111 381h-234q39 25 58.5 58t36.5 65h174l119 408h178q-38 -25 -60.5 -58t-34.5 -65q-25 -72 -47 -142.5t-45 -142.5h336l119 408h180q-38 -25 -61 -58t-35 -65q-27 -72 -48.5 -143.5t-41.5 -143.5h207q-21 -12 -35.5 -26.5t-25 -30 t-19 -32t-17.5 -32.5h-145q-26 -97 -52 -191.5t-50 -191.5h237q-38 -23 -57.5 -55.5t-36.5 -67.5l-178 2q-26 -94 -54.5 -185t-60.5 -185h-174q37 23 61 56t35 69l72 245h-326q-26 -94 -54 -185t-60 -185h-174q37 23 61 56t35 69l72 245h-195zM391 522l326 -2l110 383h-335 q-26 -97 -51 -190.5t-50 -190.5z" />
<glyph unicode="$" horiz-adv-x="834" d="M31 0q28 24 48.5 75.5t32.5 116t15 135t-4 133t-25 109t-47 62.5q68 8 108 -15t63 -66t33 -99.5t16.5 -116.5t14.5 -117.5t27.5 -101t55 -68t96.5 -18.5q34 3 63.5 21.5t51.5 49t33 72t8 90.5q-3 46 -20 87.5t-45 80.5t-63.5 77t-76.5 77q-46 43 -94.5 85.5t-93.5 86.5 t-83.5 91t-65.5 97.5t-39.5 105.5t-4.5 117q3 29 17.5 74.5t46.5 89.5t85 75.5t133 31.5h15v180q32 14 65 31t56 49l2 -260h342q-28 -24 -50 -60.5t-36 -78.5t-19.5 -86t-0.5 -83t21.5 -70.5t45.5 -47.5q-65 -8 -104.5 4t-62.5 37t-33 60t-15 73.5t-10.5 77.5t-18.5 71 q-16 40 -50.5 60t-73.5 20q-36 0 -71 -17.5t-56.5 -53.5t-25.5 -90t21 -128q19 -56 52.5 -101t75 -84.5t89 -76.5t94 -75.5t89.5 -81.5t76.5 -95.5t54 -117t22.5 -146.5q1 -67 -17 -130t-57 -111.5t-100 -77.5t-145 -29h-37v-181q-16 -7 -33 -14t-33.5 -15.5t-31 -20.5 t-25.5 -30v261h-301z" />
<glyph unicode="%" horiz-adv-x="909" d="M41 1104q0 40 14.5 74t39 59.5t57.5 40t71 14.5q37 0 70 -14.5t57.5 -40t38.5 -59.5t14 -74q0 -39 -14 -73t-38 -59t-57 -39.5t-71 -14.5t-71 14.5t-57.5 39.5t-39 59t-14.5 73zM147 -118q38 29 62 66.5t35 80.5l370 1507h181q-39 -29 -63 -66t-34 -79l-376 -1509h-175z M164 1100q2 -80 21 -115.5t40 -35.5q1 0 13 1t30.5 39.5t18.5 108.5q0 78 -20 118t-32 40.5l-12 0.5q-23 0 -41 -37t-18 -105v-15zM504 293q0 40 14.5 74t39 59.5t57.5 40t71 14.5q37 0 70.5 -14.5t58 -40t39 -59.5t14.5 -74q0 -39 -14.5 -73.5t-39 -59.5t-58 -39.5 t-70.5 -14.5q-38 0 -71 14.5t-57.5 39.5t-39 59.5t-14.5 73.5zM629 289q2 -80 21 -115.5t40 -35.5q1 0 13 1t30.5 39.5t18.5 108.5q0 78 -20 118t-32 40.5l-12 0.5q-23 0 -41 -37t-18 -105v-15z" />
<glyph unicode="&#x26;" horiz-adv-x="1247" d="M65 348q0 67 22 123t58.5 103t84 86.5t99.5 74.5q-42 85 -65 163t-23 153q0 67 22.5 125t63.5 100.5t98.5 67t126.5 24.5q61 0 110 -19t83.5 -53.5t53 -83.5t18.5 -110q0 -66 -27 -121t-70 -103t-97 -90.5t-109 -82.5q66 -106 154 -201t185 -176q63 85 110.5 182 t78.5 215h158q-42 -135 -98.5 -255t-137.5 -226q141 -97 252 -129l-45 -139q-72 20 -149.5 58t-159.5 95q-78 -70 -173.5 -111.5t-213.5 -41.5q-92 0 -167.5 27.5t-129.5 77t-83.5 117.5t-29.5 150zM229 358q0 -56 20.5 -101.5t56 -78t84 -50t103.5 -17.5q70 0 133 28.5 t123 79.5q-100 88 -190 189t-162 210q-36 -29 -67 -58.5t-53.5 -61t-35 -66t-12.5 -74.5zM387 1053q0 -57 17 -115t46 -121q46 31 87.5 62.5t73 65.5t50 72t18.5 83q0 29 -8 55t-22 48q-29 44 -97 44q-41 0 -72 -16t-51.5 -43t-31 -62t-10.5 -73z" />
<glyph unicode="'" horiz-adv-x="509" d="M163 1413h180l-6 -188l-33 -342h-102l-33 342z" />
<glyph unicode="(" horiz-adv-x="420" d="M1.5 710q2.5 126 21.5 244.5t53 224.5t83.5 185t115 125.5t145.5 46.5q-42 -15 -78.5 -79t-65 -161.5t-48.5 -221t-28 -257.5t-3 -270.5t25 -261t57.5 -228.5t93.5 -173q-78 0 -139 46.5t-106 125.5t-74 185t-42 224.5t-10.5 244.5z" />
<glyph unicode=")" horiz-adv-x="420" d="M0 1536q81 0 146 -46.5t115 -125.5t84 -185t52.5 -224.5t21.5 -244.5t-10 -244.5t-42 -224.5t-74.5 -185t-106.5 -125.5t-139 -46.5q56 69 93.5 173t57.5 228.5t25 261t-3 270.5t-28 257.5t-48.5 221t-65 161.5t-78.5 79z" />
<glyph unicode="*" horiz-adv-x="598" d="M41 1237q23 17 33.5 40t21.5 46h99l-109 111q20 -6 35 -6q20 0 38.5 6t35.5 12l61 -62v154q17 -29 40 -41.5t48 -23.5l-2 -89l111 109q-11 -31 -3.5 -57.5t15.5 -51.5l-62 -61h154q-29 -17 -41.5 -40t-23.5 -46h-89l109 -109q-15 4 -30 4q-22 0 -41 -6l-38 -12l-61 62 v-154q-17 29 -40 42l-46 26v86l-109 -109q8 32 1 58t-15 51l62 61h-154z" />
<glyph unicode="+" horiz-adv-x="936" d="M41 709q32 23 48.5 55t29.5 67l289 -2v367q23 -32 56.5 -49t65.5 -31v-287h365q-32 -22 -49 -56t-29 -66h-289v-365q-23 32 -55 48.5t-67 29.5l2 289h-367z" />
<glyph unicode="," horiz-adv-x="225" d="M22.5 77.5q-2.5 17.5 2.5 35.5q11 37 43 56t69 9q33 -9 48.5 -31.5t18 -52.5t-7.5 -62.5t-29 -60.5t-46.5 -48.5t-59.5 -25.5q11 14 20.5 31t14.5 32.5t4 27t-10 14.5q-18 5 -32.5 16.5t-23.5 26.5t-11.5 32.5z" />
<glyph unicode="-" horiz-adv-x="598" d="M41 469q32 23 48.5 55.5t29.5 67.5l438 -2q-32 -23 -48.5 -57t-29.5 -66z" />
<glyph unicode="." horiz-adv-x="223" d="M20 92q0 18 7 34.5t20 29t30 19.5t36 7q37 0 63.5 -26.5t26.5 -63.5q0 -39 -26.5 -65.5t-63.5 -26.5q-39 0 -66 26.5t-27 65.5z" />
<glyph unicode="/" horiz-adv-x="645" d="M41 -103q37 29 61 66.5t35 79.5l371 1509h178q-38 -29 -61 -67.5t-33 -77.5l-377 -1510h-174z" />
<glyph unicode="0" horiz-adv-x="829" d="M34 647q-6 103 1.5 206.5t28 197t54.5 173t81 134.5q39 47 97 71t121 24q57 0 111 -21t95 -66q48 -53 83 -130.5t56.5 -170t30 -195t4 -206t-22.5 -202.5t-48.5 -184t-74 -151t-100.5 -104q-68 -45 -138 -45q-65 0 -126 38q-57 35 -101.5 99.5t-76.5 148t-50.5 182 t-24.5 201.5zM255 715.5q-1 -99.5 4.5 -196.5t18.5 -182.5t33.5 -155t48.5 -113.5q31 -48 54 -48q14 0 27 14t30 40q27 44 47 113t32.5 154.5t18.5 182.5t5 196t-8.5 196t-21.5 182.5t-34.5 154.5t-46.5 113q-15 25 -26 37.5t-22 12.5q-19 0 -48 -50q-26 -45 -46.5 -115 t-34.5 -155.5t-22 -183t-9 -197zM313 352q44 5 62 29.5t19 62.5t-10 86.5t-25 101.5t-26.5 108t-14.5 105.5t11 93.5t50 73q38 31 84 31q24 0 45 -7q-36 -3 -52.5 -24t-18.5 -54.5t6 -77t20 -92t25 -99t20.5 -99t6 -91.5t-18.5 -75q-16 -30 -48 -55t-82 -25q-12 0 -25.5 1.5 t-27.5 6.5z" />
<glyph unicode="1" horiz-adv-x="438" d="M0 1190q44 23 73.5 55.5t47.5 67t27.5 67t13.5 56.5h246q-26 -8 -42 -54t-16 -131v-1069q0 -85 16 -129.5t42 -52.5h-330q26 8 41.5 52.5t15.5 129.5v987q-21 -12 -46 -12q-39 0 -89 33z" />
<glyph unicode="2" horiz-adv-x="760" d="M0 0q15 5 23.5 16.5t13.5 25.5t7 29t3 27q6 110 25.5 196.5t48 156t64 126.5t73.5 108t76 99.5t72 101.5t61.5 114.5t44.5 138.5q14 63 7 112t-27.5 82.5t-50 50.5t-59.5 17q-29 0 -54.5 -16.5t-40.5 -49.5q-15 -32 -21 -71t-11 -77.5t-14 -74t-31 -61t-61.5 -37.5 t-105.5 -4q29 16 45.5 47.5t21.5 70.5t-0.5 83t-19.5 86t-36 78.5t-50 60.5h416q83 0 142.5 -33.5t95.5 -89.5t47 -130t-5 -155t-59 -164.5t-115 -158.5q-68 -71 -140 -146t-134.5 -156.5t-108.5 -172t-61 -191.5h303q40 0 60.5 26.5t30 70t12 98.5t7 112t15 111t35.5 95.5 t69 65t115 19.5q-25 -20 -42 -59.5t-26 -92t-9.5 -114.5t7.5 -126t25 -127t43 -118h-727z" />
<glyph unicode="3" horiz-adv-x="774" d="M0 1436h442q70 0 121 -23t83.5 -61.5t47.5 -89t13 -104.5t-20.5 -108.5t-53 -101.5t-84.5 -82.5t-115 -52.5q77 -2 133.5 -36.5t94.5 -89.5t58 -124.5t22.5 -141.5t-12 -140.5t-44.5 -122.5q-36 -64 -76.5 -97t-89 -46.5t-106.5 -14t-129 -0.5h-246q26 55 43 118t25 127 t7.5 126t-9.5 114.5t-26 92t-42 59.5q64 4 106 -15.5t67.5 -54.5t37.5 -82.5t17.5 -99.5t7.5 -104.5t6 -98.5q7 -70 31 -109t56 -39q27 0 55.5 31t53.5 97q20 54 30.5 119.5t11.5 134t-6.5 134t-23.5 118.5t-41 89.5t-57 45.5q34 34 58 81.5t37.5 101t16.5 109.5t-5 107 q-7 44 -21.5 81.5t-32.5 64.5t-38.5 42.5t-41.5 15.5q-32 0 -60 -42.5t-42 -140.5q-4 -29 -8 -57.5t-12 -54.5t-21.5 -47.5t-37 -35.5t-58 -19.5t-84.5 1.5q29 16 45.5 47.5t21.5 70.5t-0.5 83t-19.5 86t-36 78.5t-50 60.5z" />
<glyph unicode="4" horiz-adv-x="868" d="M20 487q29 19 56.5 67.5t52 115t44 145.5t32 159.5t17 157t-1 138t-22 102t-46.5 49.5q56 8 96 -16t66 -70.5t40.5 -110.5t19 -137t1.5 -150.5t-11.5 -151t-20.5 -137.5t-26 -111h197v899h272q-26 -8 -41.5 -54t-15.5 -131v-714h109q-20 -11 -29.5 -24t-17.5 -26h-62 v-305q0 -85 15.5 -129.5t41.5 -52.5h-329q26 8 41.5 53.5t15.5 130.5v303h-494z" />
<glyph unicode="5" horiz-adv-x="817" d="M20 1436h766q-37 -26 -65 -63t-46 -79t-25.5 -85.5t-3.5 -82t20 -69t45 -47.5q-66 -8 -106 4t-62.5 37t-32 60t-14.5 74l-10 78t-19 72q-16 37 -40.5 54t-50.5 17q-32 0 -57.5 -25.5t-25.5 -69.5v-371q91 -14 169 -55.5t138 -102.5t99.5 -136.5t54.5 -157.5t2.5 -166.5 t-56.5 -163.5q-36 -63 -76.5 -96t-89 -46.5t-106.5 -14.5t-129 -1h-246q26 55 43 118t25.5 127.5t8 126.5t-9 114.5t-25.5 92t-42 58.5q59 3 99 -13t65 -45.5t38.5 -70t20 -86t8.5 -93.5t4.5 -93t8.5 -84.5t20 -67.5q14 -29 29 -41.5t30 -12.5q21 0 41 20t37 48.5t30 58.5 t20 50q22 76 21 154t-21 153q-21 80 -58 149t-86 120t-108.5 80.5t-124.5 29.5q-22 0 -43.5 -3t-44.5 -11q9 20 39 36v336q0 169 -58 185z" />
<glyph unicode="6" horiz-adv-x="868" d="M37.5 616.5q-8.5 118.5 1 234.5t37 222t73 186.5t108.5 128.5t144 48h418q-28 -24 -50 -60.5t-36 -78.5t-20 -86t-1 -83.5t21 -70.5t45 -47q-66 -8 -106 4t-62.5 37t-31.5 60t-14 74l-10 78t-19 72q-5 12 -12.5 25t-17.5 23.5t-23.5 17t-30.5 6.5q-40 0 -72 -46t-56 -123 t-39.5 -178t-21.5 -212q29 20 65 32.5t81 14.5q82 4 149 -20t118.5 -68t87 -104.5t54.5 -129t20.5 -142t-15 -143t-51.5 -132t-89 -109.5q-36 -32 -87 -46t-107 -14q-66 0 -129.5 18.5t-106.5 53.5q-63 52 -108 138.5t-71.5 193.5t-35 225.5zM257.5 640q1.5 -92 9.5 -177.5 t21.5 -161.5t34.5 -134t48.5 -94.5t62.5 -43.5q27 -6 49.5 7.5t41 38.5t33 58t24.5 66t16 62.5t8 47.5q13 97 3 192t-41.5 170.5t-85 122t-127.5 46.5q-45 0 -95 -19q-4 -89 -2.5 -181z" />
<glyph unicode="7" horiz-adv-x="922" d="M0 1436h891q-23 -11 -41.5 -27.5t-30.5 -54.5l-160 -518q26 -6 48.5 -9.5t42.5 -3.5q42 0 67.5 18.5t30.5 63.5q18 -60 3.5 -100.5t-49 -64t-83 -30.5t-98.5 -1l-189 -613q0 1 -4.5 -10t-6 -26.5t4.5 -32.5t27 -27h-320q15 3 28 13.5t24 24.5t19 30t13 30l203 656 q-47 11 -90.5 20t-78.5 9q-38 0 -62.5 -15t-26.5 -55q-16 53 -4 88.5t42 57t72 30.5t86 9q54 0 101 -11l141 450q6 29 -7.5 40.5t-39.5 11.5h-152q-35 0 -53 -14.5t-29 -39.5q-14 -33 -19 -72l-10 -78t-14 -74t-31.5 -60t-62.5 -37t-106 -4q29 16 45 47t20 69.5t-3 82 t-25 85.5t-46.5 79t-66.5 63z" />
<glyph unicode="8" horiz-adv-x="868" d="M31 402.5q0 76.5 22 150t62.5 131t98 93t128.5 36.5q-61 15 -112 50.5t-87 82.5t-56.5 102.5t-20.5 110.5q0 56 19.5 107t63.5 91t114 64.5t169 26.5q98 1 168 -22.5t114.5 -63.5t65.5 -92t21 -108t-19.5 -112t-55.5 -103.5t-87.5 -83t-114.5 -50.5q74 -2 132 -39 t98.5 -96t61.5 -134t20.5 -152.5t-24.5 -151t-73 -130.5t-124.5 -91t-180.5 -32q-107 2 -183.5 38.5t-125.5 94.5t-71.5 132t-22.5 150.5zM261 374q4 -64 16 -121.5t28 -98.5q25 -63 58 -95t68 -32q34 0 67 29t59 89q21 49 34.5 109t18 123.5t-1.5 126.5t-24 119 q-27 81 -67.5 122t-84.5 41q-43 0 -82 -40t-65 -121q-18 -57 -23 -122t-1 -129zM276 1111q1 -70 19 -136t56.5 -105t83.5 -39q35 0 69.5 29.5t60.5 97.5q25 66 28.5 141.5t-13.5 141.5q-22 81 -61 118.5t-82 37.5q-24 0 -46.5 -10.5t-42.5 -30.5t-35 -49t-24 -66 q-14 -60 -13 -130z" />
<glyph unicode="9" horiz-adv-x="868" d="M32.5 977q-5.5 87 15 173t69.5 157t124 107t156 36q59 0 115 -19t104 -59q57 -47 101.5 -132t73 -191t39.5 -226.5t3 -238.5t-37 -226.5t-81.5 -191t-130 -132t-181.5 -49.5q-80 0 -130.5 15t-80.5 41t-43 59.5t-17.5 70.5t-5 75t-5 72.5t-17 62.5t-41.5 45 q22 20 48.5 30t53.5 10q28 0 53.5 -10t43.5 -30q28 -33 38.5 -74t13 -84t2 -84.5t5 -74.5t22.5 -55t54 -27q42 -5 84.5 39.5t71.5 150.5q20 75 33.5 169t19.5 200q-60 -45 -145 -49q-98 -5 -175.5 30t-132 97t-85 144t-36 169zM261 995.5q2 -74.5 16 -147t43 -130t74.5 -93 t109.5 -35.5q48 0 104 22q8 143 0 283t-33 256q-28 132 -70.5 193.5t-87.5 61.5q-35 0 -68 -37t-56 -109q-16 -51 -25 -120.5t-7 -144z" />
<glyph unicode=":" horiz-adv-x="264" d="M41 510q0 37 26.5 63.5t65.5 26.5q37 0 63.5 -26.5t26.5 -63.5q0 -39 -26.5 -65.5t-63.5 -26.5q-39 0 -65.5 26.5t-26.5 65.5zM41 817q0 37 26.5 63.5t65.5 26.5q37 0 63.5 -26.5t26.5 -63.5q0 -39 -26.5 -65.5t-63.5 -26.5q-39 0 -65.5 26.5t-26.5 65.5z" />
<glyph unicode=";" horiz-adv-x="266" d="M41 817q0 37 26.5 63.5t65.5 26.5q37 0 63.5 -26.5t26.5 -63.5q0 -39 -26.5 -65.5t-63.5 -26.5q-39 0 -65.5 26.5t-26.5 65.5zM42.5 497.5q-2.5 17.5 2.5 34.5q5 19 16.5 33.5t26.5 23.5t33 11.5t37 -2.5q33 -9 49 -32t18 -52t-8 -62t-29.5 -61t-46.5 -49t-59 -27 q11 15 20 32t14 32.5t4.5 27t-9.5 15.5q-19 5 -33.5 16.5t-23.5 26.5t-11.5 32.5z" />
<glyph unicode="&#x3c;" horiz-adv-x="545" d="M41 616l461 465q-4 -21 -6.5 -46t-2.5 -49t2.5 -44.5t8.5 -32.5l-291 -293l291 -292q-6 -11 -8 -31.5t-2 -44.5t2 -49t6 -45z" />
<glyph unicode="=" horiz-adv-x="936" d="M41 547q32 23 48.5 57t29.5 66l776 -2q-32 -23 -48.5 -56t-29.5 -65h-776zM41 817q32 23 48.5 57t29.5 66l776 -2q-32 -23 -48.5 -56t-29.5 -65h-776z" />
<glyph unicode="&#x3e;" horiz-adv-x="545" d="M41 324l291 292l-291 293q6 12 8.5 32.5t2.5 44.5t-2.5 49t-6.5 46l461 -465l-461 -462q4 21 6 45.5t2 48.5t-2.5 44t-7.5 32z" />
<glyph unicode="?" horiz-adv-x="713" d="M0 1434h418q63 0 116 -22.5t92 -60.5t61.5 -88t23.5 -106q1 -60 -13.5 -112t-39.5 -98.5t-58 -89t-69 -85t-72.5 -85.5t-69.5 -91q-19 -29 -35 -62.5t-27 -73t-16.5 -87.5t-3.5 -107q-53 90 -61.5 169t11 151.5t58 140.5t80 136t76.5 137.5t47 146.5q7 43 1 84.5 t-27.5 73.5t-60.5 51t-97 18q-51 -1 -83.5 -29t-48.5 -70t-16.5 -91t12.5 -92.5t37.5 -75t59.5 -37.5q-49 -24 -94 -24q-42 0 -76.5 18t-59 49.5t-36.5 73.5t-9 90q2 26 5 63t2.5 74t-6.5 67.5t-21 43.5zM221 92q0 37 26.5 63.5t65.5 26.5q20 0 36.5 -7t29.5 -19.5t20 -29 t7 -34.5q0 -39 -27 -65.5t-66 -26.5t-65.5 26.5t-26.5 65.5z" />
<glyph unicode="@" horiz-adv-x="1734" d="M104 416q0 137 31.5 257.5t88 221t135.5 180.5t174 135t203 84t222 29q155 0 279.5 -49t211.5 -138t134 -214t47 -277q0 -134 -38 -236t-97.5 -170.5t-132 -103.5t-142.5 -35q-42 0 -78.5 9.5t-64 29t-45.5 49t-23 68.5h-4q-25 -30 -54.5 -55t-61.5 -44t-65.5 -29.5 t-68.5 -10.5q-105 0 -175 73t-70 216q0 55 12.5 111t36 109t57.5 99.5t78 81t96.5 54.5t112.5 20q54 0 94.5 -23.5t69.5 -75.5h4l22 82h113l-80 -409q-24 -122 0 -181t111 -59q48 0 97 28.5t88 83t64 133.5t25 179q0 124 -36 228.5t-107.5 180.5t-177.5 119t-246 43 q-92 0 -180.5 -25t-168.5 -72.5t-147.5 -116.5t-116.5 -156.5t-76.5 -192.5t-27.5 -225q0 -150 46 -266.5t128 -196.5t193.5 -121.5t242.5 -41.5q94 0 178 25t154 67l45 -100q-176 -104 -389 -104q-151 0 -282.5 47.5t-229 140t-153.5 229.5t-56 315zM645 416 q0 -49 11 -84.5t30 -57.5t45.5 -32.5t56.5 -10.5q43 0 88.5 29t99.5 92l60 326q-29 48 -59 67t-72 19q-62 0 -110.5 -33t-81.5 -84t-50.5 -112.5t-17.5 -118.5z" />
<glyph unicode="A" horiz-adv-x="946" d="M20 0q36 23 55 54.5t27 64.5l336 1370l418 -1411q3 -9 10 -20.5t16 -22.5t20.5 -20.5t23.5 -14.5h-330q12 5 22.5 11t17.5 15t9.5 20.5t-2.5 27.5l-88 295q-36 -9 -64 -19.5t-49 -25t-36 -35t-25 -49.5q-12 30 -27.5 50t-35.5 34.5t-46.5 24t-60.5 18.5l-59 -242 q-7 -26 -4 -47t11 -37t20 -26t24 -15h-183zM213 377q137 36 168 123q27 -89 172 -125l-186 626z" />
<glyph unicode="B" horiz-adv-x="811" d="M20 0q26 8 42 52.5t16 129.5v1069q0 85 -16 131t-42 54h469q70 0 121 -23t84 -61q32 -40 47 -90q13 -45 14 -91q0 -6 -1 -13q-2 -54 -20.5 -108.5t-53 -101.5t-84.5 -82.5t-115 -52.5q77 -2 133.5 -36.5t94.5 -89t57.5 -124t21.5 -141.5v-22q0 -61 -11 -119 q-14 -69 -44 -123q-38 -69 -82 -102q-44 -34 -97 -46q-49 -12 -108 -11h-10q-64 1 -143 1h-273zM293 113q0 -27 8.5 -46.5t23 -30.5t33 -14.5t39.5 1.5q41 9 71.5 45.5t51 90t30.5 119.5t12 135q0 12 1 23q-1 57 -7 112q-8 66 -23.5 119.5t-40 90t-56.5 45.5q42 42 68 103 t36 128q7 45 8 90q0 21 -2 43q-5 66 -25 119t-54.5 86.5t-83.5 34.5q-16 0 -32 -7t-29 -19.5t-21 -30.5t-8 -39v-1198z" />
<glyph unicode="C" horiz-adv-x="829" d="M23 718q0 109 14.5 212.5t44 195.5t73.5 161t103 109t133 40h418q-28 -24 -50.5 -60.5t-36.5 -78.5t-20 -86q-3 -24 -3 -47q1 -19 3 -36q4 -39 20.5 -70.5t45.5 -47.5q-26 -3 -49 -3q-33 0 -57 7q-40 12 -62.5 37t-32 60.5t-14.5 74.5t-10 78.5t-19 72.5q-5 12 -12.5 25 t-17.5 23.5t-23.5 17t-30.5 6.5q-36 0 -65.5 -38t-52.5 -103.5t-39.5 -153t-26.5 -186.5q-8 -98 -10 -202q0 -20 -1 -39q-1 -84 5 -165q6 -99 21 -187.5t38.5 -156t56 -108t74.5 -43.5q40 3 60.5 31.5t29.5 73t11 100t5.5 112.5t13 111t34 95.5t68.5 65.5q39 21 99 21h15 q-24 -19 -41 -59t-25 -92q-10 -54 -10 -116v-7q0 -59 8 -119q8 -64 25 -127t43 -117h-381q-74 0 -133.5 40t-104 109t-74.5 161t-45 195.5t-15 212.5z" />
<glyph unicode="D" horiz-adv-x="823" d="M20 0q58 15 58 182v1069q0 169 -58 185h414q74 0 133 -40t103.5 -109t74 -161t43.5 -196q14 -100 15 -205v-7q0 -109 -16 -212.5t-46 -195.5t-74.5 -161t-104.5 -109t-134 -40h-408zM293 113q0 -26 9 -44t23.5 -28.5t33.5 -13.5t40 2q32 8 58 40t46.5 82.5t35 117 t23.5 143.5q9 76 13 160q3 56 3 112q0 28 -1 57q-2 84 -8.5 166.5t-18 156.5t-28 137.5t-37.5 109.5t-46.5 72t-55.5 26q-16 0 -32 -7.5t-29 -20.5t-21 -31t-8 -39v-1198z" />
<glyph unicode="E" horiz-adv-x="786" d="M20 0q26 8 42 52.5t16 129.5v1069q0 85 -16 131t-42 54h766q-37 -26 -65 -63t-46 -79q-17 -42 -25 -86q-5 -28 -5 -54q0 -14 1 -28q4 -38 20 -68.5t45 -47.5q-26 -3 -49 -3q-33 0 -57 7q-40 12 -63 37t-32.5 60t-14.5 74l-10 78t-18 72q-16 38 -40 54.5t-48 16.5 q-34 0 -60 -26.5t-26 -68.5v-484q89 38 110 105q34 -93 191 -129q-39 -9 -68.5 -19t-52 -25t-39 -36t-31.5 -51q-21 68 -110 104v-663q0 -26 9 -44t23.5 -28.5t33.5 -13.5t40 2q35 8 52.5 40.5t26 79.5t11.5 104.5t7 115t12.5 110.5t29.5 92t58 59q27 15 65 15q15 0 31 -2 q-23 -33 -35 -86t-14 -116v-24q1 -53 7 -107q8 -68 26 -128t45.5 -108.5t64.5 -74.5q-194 0 -383 0.5t-383 0.5z" />
<glyph unicode="F" horiz-adv-x="705" d="M20 0q58 15 58 182v1069q0 169 -58 185h766q-37 -26 -65 -63t-46 -79q-17 -42 -25 -86q-5 -28 -5 -54q0 -14 1 -28q4 -38 20 -68.5t45 -47.5q-26 -3 -49 -3q-33 0 -57 7q-40 12 -63 37t-32.5 60t-14.5 74l-10 78t-18 72q-16 38 -40 54.5t-48 16.5q-34 0 -60 -26.5 t-26 -68.5v-484q89 38 110 105q34 -93 191 -129q-39 -9 -68.5 -19t-52 -25t-39 -36t-31.5 -51q-21 68 -110 104v-594q0 -85 15.5 -129.5t41.5 -52.5h-330z" />
<glyph unicode="G" horiz-adv-x="827" d="M25 691q-1 26 -1 52q0 66 6 131q7 91 26 174t49 154t71.5 123t94.5 81.5t118 29.5h418q-28 -24 -50 -60.5t-36 -78.5t-19 -86q-3 -23 -3 -45q0 -19 2 -38q5 -39 21.5 -70.5t45.5 -47.5q-26 -3 -48 -3q-33 0 -57 7q-40 12 -62.5 37t-32.5 60t-15.5 74l-11 78t-19.5 72 q-5 12 -12 25t-16.5 23.5t-22.5 17t-31 6.5q-36 0 -65.5 -37t-52.5 -101t-39.5 -149.5t-25.5 -182t-11 -199.5q-1 -27 -1 -54q0 -74 5 -146q5 -99 18.5 -187.5t34.5 -157.5t51 -112.5t68 -51.5q15 -3 28 -3q27 0 48 13q32 20 32 74v448q0 73 -57 82h330q-57 -16 -58 -182 l-2 -357q0 -39 2 -76.5t6.5 -67.5t12 -49.5t18.5 -22.5q-23 3 -58.5 11t-71.5 25.5t-67 46.5t-46 74q-11 -25 -37.5 -39t-59.5 -17q-16 -2 -32 -2q-47 0 -88 18q-56 24 -101.5 71.5t-80.5 115t-59.5 148t-38.5 170t-17 181.5z" />
<glyph unicode="H" horiz-adv-x="807" d="M20 0q58 15 58 182v1069q0 169 -58 185h330q-26 -8 -41.5 -54t-15.5 -131v-424q89 38 110 105q25 -65 111 -103v422q0 85 -15.5 131t-41.5 54h329q-26 -8 -41.5 -54t-15.5 -131v-1069q0 -85 15.5 -129.5t41.5 -52.5h-329q26 8 41.5 52.5t15.5 129.5v598 q-38 -17 -64.5 -41t-46.5 -67q-21 68 -110 104v-594q0 -85 15.5 -129.5t41.5 -52.5h-330z" />
<glyph unicode="I" horiz-adv-x="371" d="M20 0q26 8 42 52.5t16 129.5v1069q0 85 -16 131t-42 54h330q-26 -8 -41.5 -54t-15.5 -131v-1069q0 -85 15.5 -129.5t41.5 -52.5h-330z" />
<glyph unicode="J" horiz-adv-x="692" d="M22 180q3 52 15 108q12 57 25.5 113t19.5 104q4 26 4 49q0 19 -2 36q-6 36 -33 53q15 2 29 2q27 0 46 -8q30 -12 47.5 -37t25.5 -61t10 -79q1 -21 1 -43t-1 -45q-2 -47 -4 -93q-2 -31 -2 -73.5t9.5 -81t32 -67t64.5 -32.5q6 -1 11 -1q29 0 52 19q27 22 27 70v1138 q0 85 -15.5 131t-41.5 54h330q-26 -8 -42 -54t-16 -131v-1069q0 -85 16 -129.5t42 -52.5q-125 0 -243 -0.5t-241 -0.5q-69 0 -105.5 24t-50.5 64q-11 32 -11 72q0 10 1 21z" />
<glyph unicode="K" horiz-adv-x="745" d="M20 0q26 8 42 52.5t16 129.5v1069q0 85 -16 131t-42 54h330q-26 -8 -41.5 -54t-15.5 -131v-602l219 668q11 35 11 58q1 13 -3 23q-10 27 -33 38h299q-35 -20 -56 -45.5t-38 -51.5l-280 -583q42 -66 102.5 -104t138.5 -44q4 -76 5.5 -157t5.5 -160.5t11.5 -155t23 -141 t41.5 -118.5t67 -86h-19q-74 0 -126 28q-60 32 -99 90t-61.5 133.5t-34.5 157.5t-16 164.5t-7 152.5q-2 69 -15 120.5t-36 76.5l-100 -207v-324q0 -85 15.5 -129.5t41.5 -52.5h-330z" />
<glyph unicode="L" horiz-adv-x="786" d="M20 0q58 15 58 182v1069q0 169 -58 185h330q-26 -8 -41.5 -54t-15.5 -131v-1138q0 -41 24.5 -65.5t56.5 -23.5q32 0 62.5 29t42.5 97q8 47 10.5 104t6.5 114.5t13 110.5t30 92t57 59q26 15 65 15q15 0 31 -2q-23 -33 -35 -86t-14 -116v-24q1 -53 7 -107q8 -68 26 -128 t45.5 -108.5t64.5 -74.5q-194 0 -383 0.5t-383 0.5z" />
<glyph unicode="M" horiz-adv-x="1143" d="M20 1436h328q-12 -6 -22.5 -12t-17.5 -14.5t-9.5 -20t2.5 -27.5l277 -928l215 875q6 27 3.5 48t-11 36.5t-20.5 26t-24 16.5h381q-57 -16 -57 -185v-1069q0 -167 57 -182h-331q27 8 43 52.5t16 129.5v1155q-19 -63 -33.5 -126.5t-30.5 -127.5l-280 -1137l-367 1240 l-2 -1094q0 -37 18 -60.5t38 -31.5h-158q18 8 36.5 29.5t18.5 56.5v1190q0 25 -0.5 48.5t-6.5 44.5t-20.5 38t-42.5 29z" />
<glyph unicode="N" horiz-adv-x="928" d="M20 1436h328q-12 -3 -23 -11t-18 -18.5t-8 -23.5t8 -27l498 -824v809q0 39 -17.5 61.5t-37.5 33.5h157q-18 -8 -33 -27.5t-20 -50.5l-2 -1266q0 -37 17.5 -60.5t37.5 -31.5h-157q18 8 34.5 29.5t18.5 56.5l2 33l-666 1100l-2 -1127q0 -37 18 -60.5t38 -31.5h-158 q18 8 36.5 29.5t18.5 56.5v1255q0 16 -6.5 31t-17 27t-22.5 21.5t-24 15.5z" />
<glyph unicode="O" horiz-adv-x="809" d="M24 648q-3 46 -3 92q1 58 5 114q8 104 28 197.5t53.5 172.5t80.5 134q40 46 98.5 70.5t121.5 24.5q57 0 110.5 -21t93.5 -66q48 -53 83 -130.5t56.5 -170t30.5 -195.5q6 -69 6 -137q0 -34 -2 -69q-4 -103 -21.5 -202t-48.5 -184t-74.5 -151t-100.5 -104q-67 -44 -137 -44 q-66 0 -128 37q-57 35 -101.5 99.5t-76 148t-50 182t-24.5 202.5zM245 716v-31q0 -84 4 -166q6 -97 19 -182.5t33.5 -155t48.5 -113.5q29 -48 53 -48q25 0 58 54q27 44 47 113t33 154.5t19 182.5q5 82 4 166v30q-1 99 -8.5 196t-21.5 182.5t-34.5 154.5t-46.5 113 q-15 25 -26.5 37.5t-22.5 12.5t-22 -12.5t-26 -37.5q-26 -45 -46.5 -115t-34.5 -156t-21.5 -182.5t-8.5 -196.5z" />
<glyph unicode="P" horiz-adv-x="774" d="M20 0q58 15 58 182v1069q0 169 -58 185h469q71 0 121 -35.5t82 -90.5q34 -56 48 -120q13 -57 13 -109q0 -7 -1 -14q-3 -75 -28.5 -141.5t-71 -116.5t-109 -79.5t-142.5 -29.5q-41 0 -88 9q57 8 99 42t69 84.5t41 112.5q12 62 14 126q0 8 1 16q0 55 -9 107 q-10 60 -30 106.5t-49 75t-66 28.5q-16 0 -32 -7t-29 -19.5t-21 -30.5t-8 -39v-1129q0 -85 15.5 -129.5t41.5 -52.5h-330z" />
<glyph unicode="Q" horiz-adv-x="809" d="M24 648q-3 46 -3 92q0 57 5 114q7 104 27.5 197.5t54 172.5t80.5 134q40 46 98.5 70.5t121.5 24.5q57 0 110.5 -21t93.5 -66q49 -54 84 -131.5t56.5 -170t29.5 -194.5q6 -64 6 -129q0 -38 -2 -75q-5 -103 -23 -202t-48.5 -184t-74 -151.5t-99.5 -105.5q-27 -18 -57 -29.5 t-62 -15.5q23 -35 66 -59.5t106 -40.5q-22 -4 -49.5 -11t-54.5 -20.5t-49.5 -35.5t-34.5 -56q-34 94 -189 127q32 9 57 17.5t45 19t36.5 24.5t31.5 35q-29 5 -56.5 14t-54.5 24q-57 35 -101.5 99.5t-76 148t-50 182t-24.5 202.5zM245 716v-31q0 -84 5 -166q5 -97 18 -182.5 t33.5 -155t48.5 -113.5q29 -48 53 -48q25 0 58 54q27 44 47 113t33 154.5t19 182.5q4 82 4 166v30q-1 99 -8.5 196t-21.5 182.5t-34.5 154.5t-46.5 113q-15 25 -26.5 37.5t-22.5 12.5t-22 -12.5t-26 -37.5q-26 -45 -46.5 -115t-34.5 -156t-21.5 -183t-8.5 -196z" />
<glyph unicode="R" horiz-adv-x="786" d="M20 0q58 15 58 182v1069q0 169 -58 185h469q71 0 121 -35.5t82 -90.5q34 -56 48 -120q13 -57 13 -109q0 -7 -1 -14q-3 -68 -24.5 -129.5t-59.5 -110t-92.5 -81.5t-122.5 -44q19 -19 38.5 -35t43 -28t52.5 -20t66 -11q4 -76 5.5 -157t5.5 -160.5t11.5 -155t23 -141 t41.5 -118.5t67 -86q-12 -1 -23 -1q-68 -1 -118 25q-58 30 -97.5 83.5t-62.5 125t-36 150t-18 159t-8 152t-6.5 128.5t-13.5 88q-13 -1 -26 -1q-42 0 -85 10q57 8 99 42t69 84.5t41 112.5q12 62 14 126q0 8 1 16q0 55 -9 107q-10 60 -30 106.5t-49 75t-66 28.5q-16 0 -32 -7 t-29 -19.5t-21 -30.5t-8 -39v-1129q0 -85 15.5 -129.5t41.5 -52.5h-330z" />
<glyph unicode="S" horiz-adv-x="834" d="M31 -3q28 24 48.5 75.5t32.5 115.5t15 134q1 21 1 42q0 48 -5 91q-7 62 -25 108.5t-47 63.5q18 2 33 2q46 0 76 -17q40 -23 62.5 -65.5t32.5 -99t17 -116.5t15 -117t27.5 -100.5t54.5 -67.5q28 -20 73 -20q11 0 23 1q34 3 63.5 21t51.5 48.5t33 71.5q9 32 9 69 q0 10 -1 21q-3 46 -20 87.5t-45 81.5t-63.5 78t-76.5 77q-46 43 -94 85.5t-93 86t-84 89.5t-66 96.5t-39 106.5q-8 34 -8 71q0 24 3 48q3 29 17.5 74.5t46.5 89t85 74.5t133 31l480 2q-28 -24 -50 -60.5t-36 -78.5q-13 -42 -19 -86q-3 -23 -3 -45q0 -20 2 -38 q5 -39 21.5 -70.5t45.5 -47.5q-27 -3 -49 -3q-31 1 -55 7q-40 12 -63 36.5t-33 59.5t-15.5 73.5t-10.5 77t-18 70.5q-17 40 -52 60.5t-74 20.5q-36 0 -70.5 -17.5t-55.5 -53.5q-22 -37 -26 -91v-13q0 -50 22 -115q19 -56 52.5 -101t75 -84.5t89 -76.5t94 -75.5t89.5 -81.5 t76.5 -95.5t54 -117t22.5 -146.5v-7q0 -63 -17 -123q-18 -62 -57 -110.5t-100 -77.5t-145 -29h-461z" />
<glyph unicode="T" horiz-adv-x="893" d="M0 717q22 12 37.5 47.5t24.5 85.5q10 50 14 112q4 55 4 111v13q0 62 -6.5 122.5t-16.5 108.5t-24.5 80t-32.5 39h893q-18 -7 -32.5 -39t-24.5 -80t-16 -108q-6 -61 -6 -123v-13q0 -55 3 -111q4 -62 13.5 -112t25 -85.5t37.5 -47.5q-76 18 -125 46.5t-78 64.5t-40.5 77 t-12.5 85v11q-1 37 5 75q6 44 15 85q2 11 5.5 31.5t6 46t3 52.5t-4 50t-15 39t-29.5 19q-68 0 -68 -88v-1129q0 -167 57 -182h-331q27 8 43 53t16 129v1069q0 20 -1 45.5t-7 48t-20.5 38.5t-41.5 16q-18 -3 -28.5 -19t-14.5 -39t-4 -50.5t2 -53t5.5 -46t5.5 -30.5 q8 -41 15 -85q6 -38 7 -76q0 -4 -1 -10q-1 -44 -12.5 -85t-40.5 -77t-78.5 -64.5t-125.5 -46.5z" />
<glyph unicode="U" horiz-adv-x="911" d="M20 1436h330q-26 -8 -41.5 -54t-15.5 -131v-901q0 -87 21 -150t55 -104t78 -60.5t90 -19.5q47 0 92 19.5t80.5 57t57 92t21.5 124.5v1032q0 39 -16.5 61.5t-36.5 33.5h156q-17 -8 -32.5 -27.5t-20.5 -50.5v-1053q0 -94 -29 -160.5t-77.5 -107.5t-111.5 -59 q-60 -18 -124 -18h-7q-100 1 -177 37t-129 97.5t-78.5 144.5t-26.5 179v833q0 85 -16 131t-42 54z" />
<glyph unicode="V" horiz-adv-x="782" d="M-60 1434h328q-10 -6 -20.5 -12t-18 -14.5t-10.5 -20t2 -27.5l277 -928l215 877q6 27 3.5 47.5t-10.5 36t-20 25.5t-24 16h182q-35 -25 -53.5 -56t-26.5 -63l-338 -1369l-418 1408q-3 10 -10 21.5t-16 22.5t-20 20.5t-22 15.5z" />
<glyph unicode="W" horiz-adv-x="1212" d="M-60 1434h328q-10 -6 -20.5 -12t-18 -14.5t-10.5 -20t2 -27.5l277 -928l96 395l-156 527q-6 20 -26 43.5t-43 36.5h329q-10 -6 -20.5 -12t-18 -14.5t-10.5 -20t2 -27.5l277 -928l215 877q6 27 3.5 47.5t-10.5 36t-20 25.5t-24 16h182q-35 -25 -53.5 -56t-26.5 -63 l-338 -1369l-235 791l-195 -791l-418 1408q-3 10 -10 21.5t-16 22.5t-20 20.5t-22 15.5z" />
<glyph unicode="X" horiz-adv-x="911" d="M0 1436h330q-10 -6 -19.5 -12t-16 -14.5t-8 -19.5t4.5 -28l209 -512l217 459q12 26 14.5 47t-2 37t-14 26.5t-21.5 16.5h183q-42 -25 -67 -56t-40 -63l-248 -520l291 -719q4 -9 12.5 -21t19 -23t22.5 -20.5t24 -13.5h-330q21 8 36 25t3 49l-194 477l-203 -426 q-13 -26 -15.5 -47t2 -36.5t14.5 -26t21 -15.5h-182q42 23 67.5 54.5t41.5 64.5l231 487l-305 750q-4 10 -12.5 21.5t-19 22.5t-22.5 20.5t-24 15.5z" />
<glyph unicode="Y" horiz-adv-x="754" d="M-60 1436h328q-9 -6 -18.5 -12t-15.5 -14.5t-7 -20t6 -27.5l228 -518l201 465q11 26 12.5 47t-3.5 37t-14.5 26.5t-21.5 16.5h180q-42 -25 -65 -56.5t-37 -62.5l-224 -518v-676q0 -16 1.5 -36.5t7.5 -39t18 -32t33 -15.5h-332q57 9 57 104v672l-254 580q-11 20 -34 43.5 t-46 36.5z" />
<glyph unicode="Z" horiz-adv-x="932" d="M20 0q12 4 24 13.5t22.5 20.5t19 23t12.5 21l281 690q-30 7 -57 11t-50 4q-38 0 -62 -15t-28 -55q-7 26 -7 48q0 19 6 37q12 36 39.5 58.5t66.5 33.5t81 11q32 0 62 -6l178 436q13 32 3.5 45t-38.5 13h-151q-35 0 -53 -14.5t-29 -39.5q-14 -33 -19 -72t-10.5 -78 t-14.5 -74t-31.5 -60t-62.5 -37q-24 -7 -57 -7q-22 0 -49 3q29 16 45 46q17 31 21 70q2 15 1 30q-1 24 -5 52q-8 44 -26 86t-46 79t-66 63h891q-11 -6 -23 -15.5t-22.5 -20.5t-19 -22.5t-12.5 -21.5l-207 -506q42 -11 78.5 -18t66.5 -7q41 0 66 17.5t30 62.5q8 -28 8 -51 q0 -7 -1 -14q-3 -29 -14 -51.5t-28.5 -39t-35.5 -26.5q-37 -20 -90 -20q-30 0 -63 5t-69 13l-253 -623q-11 -35 -1.5 -47t29.5 -12h131q41 0 63 28t32.5 73t14 102t7.5 116t12.5 114t29.5 96q20 41 58 63q28 16 68 16q15 0 31 -2q-23 -32 -35 -85q-12 -52 -14 -116v-26 q0 -52 6 -106q8 -68 26 -129.5t46 -110t65 -72.5h-871z" />
<glyph unicode="[" d="M-702 -578q2 13 4 25t6 25q2 6 6 14q0 4 2 6t2 6q4 6 7 12.5t7 14.5q35 51 93 84q8 4 15 8t15 8q6 4 14.5 6t16.5 7q35 12 70 18q71 8 149 -4q76 -17 148 -43q34 -15 69 -30t70 -32q35 -16 67.5 -31.5t65.5 -29.5q16 -6 32.5 -12t32.5 -11q17 -6 33.5 -10t32.5 -8 t31.5 -6t31.5 -4q17 -2 31.5 -2h30.5t29.5 1t27.5 3q4 2 7.5 2t7.5 2q4 0 7 1t7 1l6 2l6 2q4 2 6 2t7 2q53 21 88 49q10 8 17 16.5t13 16.5q19 21 25 35q0 4 4 8q0 4 4 8q4 13 6 17q4 10 4 17t2 17q2 17 1 31.5t-5 24.5q-6 26 -22 45q-19 22 -35 31q-21 14 -41.5 20 t-36.5 10t-29.5 8.5t-17.5 14.5q-12 22 20 49q19 18 48 27q30 12 77 12q50 -4 101 -31q26 -16 49.5 -37.5t44.5 -52.5q41 -66 41 -149q0 -23 -2 -42.5t-8 -41.5q-4 -13 -6 -21q-5 -12 -7 -20l-4 -10t-4 -9q-4 -6 -5 -11t-5 -9q-16 -35 -47 -68q-31 -35 -60 -57 q-69 -54 -153 -78q-4 -4 -10.5 -4t-10.5 -2l-12 -4l-10 -2q-4 0 -10.5 -1t-10.5 -1q-6 -2 -11 -2t-11 -3q-23 -2 -43.5 -3t-42.5 1q-23 2 -43.5 4.5t-40.5 6.5q-23 4 -42.5 10t-39.5 12q-41 12 -79 28.5t-73 35.5q-34 18 -68 38.5t-65 39.5q-63 40 -124.5 73t-120.5 53 q-60 19 -117 19q-31 0 -58 -6q-6 -2 -13 -2t-13 -4q-17 -4 -25 -9q-47 -18 -82 -55q-4 -4 -7 -9t-7 -9q-2 -4 -3 -5t-3 -6q0 -4 -4 -8q-4 -10 -8.5 -20t-8.5 -21q-4 -20 -6 -39.5t-2 -35.5q4 -35 12 -56q7 -22 17 -33q4 -6 8 -10q0 -2 -10 8q-13 7 -25 29q-16 27 -24 59 q-7 41 -4 84zM-692 -47q4 4 10 8q4 2 7 4t7 4q2 2 4 3t5 3q8 5 16 7t18 4q11 4 33.5 5t34.5 1q35 0 57 -12q21 -17 31 -31q10 -17 14 -39q0 -10 1 -18.5t1 -14.5v-209q-16 -2 -31.5 -6t-33.5 -10h-2q-8 -4 -15.5 -7t-15.5 -7q-10 -5 -17 -8t-16 -7q-53 -33 -84 -76v119v15 v196q0 14 -2 23q0 16 -2 24q-4 13 -8 19q-2 6 -12 10zM-664 -631q0 15 3.5 30t13.5 32q8 16 22.5 27.5t30.5 19.5q33 12 68 8q34 -4 57 -14q25 -11 40 -28t19 -32q7 -16 3.5 -25.5t-9.5 -13.5q-8 -6 -35 4q-12 9 -20 13q-6 4 -13.5 7t-15.5 7q-16 8 -35.5 12t-37.5 0 q-21 -4 -33 -16q-15 -14 -21 -37q-4 -10 -4 -20.5v-20.5q0 -16 4 -37q2 -16 6 -24q3 -4 5 -9l-7 7l-8 8q-2 4 -4 6t-4 6q-10 19 -16 37q-4 12 -7.5 24.5t-1.5 28.5zM-664 -631q0 15 3.5 30t13.5 32q8 16 22.5 27.5t30.5 19.5q33 12 68 8q34 -4 57 -14q25 -11 40 -28t19 -32 q7 -16 3.5 -25.5t-9.5 -13.5q-8 -6 -35 4q-12 9 -20 13q-6 4 -13.5 7t-15.5 7q-16 8 -35.5 12t-37.5 0q-21 -4 -33 -16q-15 -14 -21 -37q-4 -10 -4 -20.5v-20.5q0 -16 4 -37q2 -16 6 -24q3 -4 5 -9l-7 7l-8 8q-2 4 -4 6t-4 6q-10 19 -16 37q-4 12 -7.5 24.5t-1.5 28.5z M-598 -502q0 2 2 2l8 8q13 9 29 17t43 12q22 4 41 0q16 -2 26 -12q9 -10 5 -21q-5 -10 -15 -14q-6 -2 -24 -2q-15 4 -34.5 7t-35.5 5h-33q-4 -2 -10 -2h-2zM-598 -502q0 2 2 2l8 8q13 9 29 17t43 12q22 4 41 0q16 -2 26 -12q9 -10 5 -21q-5 -10 -15 -14q-6 -2 -24 -2 q-15 4 -34.5 7t-35.5 5h-33q-4 -2 -10 -2h-2zM-426 -47q4 4 10 8q4 2 7 4t8 4q2 2 4 3t4 3q18 9 35 11q10 4 33.5 5t33.5 1q35 0 58 -12q20 -17 30 -31q10 -17 15 -39q2 -10 2 -18.5v-14.5v-231v-8q-11 4 -18 6t-17 4q-4 2 -6 2t-6 2q-80 22 -148 22h-16h-4v203q0 14 -2 23 q0 16 -3 24l-6 19q-4 6 -14 10zM-145 -309q2 12 16 26q6 4 13 9.5t16 9.5q8 4 15 7t15 7q11 4 23 7t27 7q14 5 29.5 8t31.5 9t32.5 13t32.5 18q17 10 32.5 23t27.5 30q-23 -43 -44.5 -81t-43.5 -71q-23 -30 -44.5 -55t-43.5 -39q-47 -27 -90 -16q-41 6 -41 39q22 2 46.5 10 t47.5 20q24 13 41.5 26t28.5 23q-7 -4 -21 -14t-37 -20q-22 -11 -49 -19t-59 -12q-9 18 -2 35zM-37 -428q-4 2 2 8q6 -4 14.5 -4h18.5q20 4 29 6q-4 0 -9.5 -1t-13.5 -1q-18 -4 -37 6q0 6 4 11q2 2 4 3t5 3q6 2 20 2q8 0 18.5 -2t20.5 -4h24l14 4t11 6q-6 -8 -22 -21 q-7 -4 -13 -8t-10 -8q-25 -14 -41 -16q-18 -5 -31 6q-8 4 -8 10z" />
<glyph unicode="\" horiz-adv-x="645" d="M-40 1552h177l371 -1509q11 -42 35 -79.5t61 -66.5h-174l-377 1510q-10 39 -32.5 77.5t-60.5 67.5z" />
<glyph unicode="]" horiz-adv-x="305" d="M-3256 -711q0 19 8 41l6 15q4 8 8 15t8 15q2 11 19 33q8 14 15 25.5t16 21.5q28 45 77.5 94.5t114.5 102.5q62 51 140.5 97t181.5 81l69 25q35 6 76 18q12 4 24.5 6t26.5 4q19 6 39 6q25 7 41 7l27 2q14 2 41.5 3t68.5 1q117 0 232 -25q129 -29 276.5 -92.5t321.5 -149.5 l37 -18q98 -49 193 -91t192 -77q127 -45 239 -45q49 0 60 2q30 0 61 6q10 4 22.5 5t22.5 5q6 7 12.5 7t16.5 4l2 2h2l12 4q4 2 10 4l9 4q8 4 10 6q2 0 6 3t33 20l10 6h2q4 4 8 6t23 20q14 19 20 26t8 9t3.5 4t5.5 13q14 30 14 67q0 21 -6 39q-10 35 -27.5 65.5t-42.5 55.5 l-16 16h2l8 -6q98 -73 111 -182q0 -68 -34 -116t-77 -79.5t-83 -48t-54 -20.5q-41 -13 -65.5 -17t-32.5 -4q-11 -2 -28.5 -4t-43.5 -2q-137 0 -250 27q-123 28 -244 71t-241 97q-86 39 -171 70.5t-171 60.5q-195 61 -357 61q-92 0 -131 -6q-6 -2 -24 -2q-7 -2 -17 -4t-26 -4 q-23 -4 -39.5 -7t-26.5 -7q-10 -5 -21.5 -6t-21.5 -5t-20.5 -7t-40.5 -13q-162 -56 -287 -135q-57 -37 -104.5 -70t-88.5 -63l-51 -39q-100 -78 -131 -78q-18 0 -18 24zM-3045 -666q0 4 20 23q10 12 19.5 19.5t15.5 13.5q8 4 15 11t16 15l26 21q19 14 41.5 30.5t48.5 32.5 q174 121 400 164q61 12 124.5 16.5t129.5 4.5h32l56 -4l10 -3q27 0 66 -8l65 -12q70 -12 134.5 -32.5t123.5 -49.5l12 -6l209 -84q105 -41 169.5 -63.5t86.5 -30.5l72 -25q-84 23 -158 49q-55 19 -123.5 43.5t-150.5 57.5q-189 75 -348 116h-1t-6.5 2.5t-18.5 5.5t-38 7 l-22 4q-45 8 -66.5 8t-23.5 2h-17q-24 0 -31 2q-165 0 -282 -23.5t-215 -66.5q-119 -53 -180 -94l-52 -33q-16 -10 -30.5 -19.5t-24.5 -19.5q-49 -33 -74.5 -53.5t-29.5 -20.5zM-2367 -504q0 12 55 47l51 19q55 20 129 26q23 4 44.5 6.5t43.5 -0.5l53 -2q39 -2 66 -7t43 -9 l29 -6q0 -2 3 -2t5 -2h-19q-10 2 -24.5 3t-36.5 1q-60 0 -109 -4t-90 -19l-6 -2q-68 -12 -115 -30q-98 -27 -106 -27q-16 0 -16 8zM-1954 -573q0 24 27 51q35 30 69 41q21 12 46 12q24 6 59 6q22 0 53 -10l14 -4l-2 -2h-22q-53 0 -129 -39q-16 -8 -42 -29.5t-30 -27.5 q-6 -13 -7 -15t-11 -14q-25 0 -25 31zM-1051 -369q222 -10 295 -59q56 -41 56 -90q0 -31 -21 -37q-33 61 -135 115q-4 0 -6 2l8 -4q18 -11 52 -38.5t69 -82.5q-12 -17 -31 -17h-8q-21 0 -43 17l-8 4q-37 35 -57.5 61.5t-41.5 51.5q-65 65 -129 77zM-764 -336q12 -4 21 -12h2 l4 -3t13 -10.5t30 -21.5q16 -23 16 -37l-2 -18l-8 -6h-6q0 18 -7.5 31.5t-9.5 15.5l-2 4l2 -2q13 -23 13 -37l-2 -12q-11 0 -13 2q-10 8 -14 14t-4 12t-1 14.5t-5 22.5l-8 23q-9 12 -19 20zM-666 -119q0 115 105 115q51 0 67 -6q29 -6 43.5 -15.5t24.5 -17.5q-10 -4 -14 -10 l-11 -41v-105q-10 11 -24 19t-43 20l6 -8q14 -18 22.5 -31.5t20.5 -27.5l4 -6h2q8 -9 8 -12t4 -5v-235q-2 -9 -71 -50l-41 -18q-10 -4 -24.5 -8t-30.5 -8v2q-21 12 -33 30q-15 27 -15 72v346zM-399 -109q0 48 28.5 73.5t75.5 25.5q29 0 51.5 -4t48.5 -11q9 -6 19 -11t16 -11 v-2q-8 0 -12 -9.5t-7 -20.5t-4 -22.5t-1 -17.5v-262q0 -10 3 -17.5t3 -15.5q10 -28 33.5 -51.5t56.5 -23.5q39 0 63.5 36.5t24.5 71.5v1114q0 49 27.5 75t74.5 26q21 0 58 -3.5t51 -17.5h4q4 -4 11 -8t12 -8q-11 -4 -13 -13q-4 -2 -6 -11t-3 -19.5t-1 -20.5v-12v-1088 q0 -69 -43 -129q-29 -36 -66.5 -55.5t-81.5 -28t-89.5 -8.5h-88.5q-24 0 -54 6.5t-58.5 17.5t-54 29.5t-39.5 42.5q32 72 19 136.5t-58 111.5v135z" />
<glyph unicode="^" d="M-3117 -674q4 6 6 13.5t6 15.5q4 6 8.5 14t8.5 17q4 10 10 18t12 18q6 11 13.5 21t15.5 20q31 41 76 89.5t108 95.5q62 49 141.5 95t180.5 83q4 2 10 4l12 4l12 4l11 4q12 4 24.5 7.5t24.5 7.5t24.5 6t26.5 6q12 4 24.5 6t26.5 4q13 4 26 5t28 3q16 4 26 4q6 0 13.5 1.5 t13.5 1.5q14 2 27.5 3t27.5 1h55q117 0 232 -25q110 -25 223 -68q109 -41 210 -91t202 -101q98 -49 193 -93t192 -75q98 -33 186 -41q23 -4 45.5 -4h44.5q10 0 21.5 1t21.5 1q10 2 20.5 3t20.5 3q10 4 22.5 5t22.5 5q2 2 6 2q2 2 6 2l3 3q4 0 6 2h4q2 2 4 2q2 2 4 2h2 q2 2 6 2l4 2l6 2q2 2 4 2l13 6q8 4 10 4q8 6 25 14q4 5 10 8t10 7h2q4 4 6 4q6 6 13.5 11t11.5 11q8 9 20 25q4 6 9 14q4 4 8 13q14 28 14 56t-6 50q-8 25 -18.5 43.5t-20.5 34.5t-18.5 26.5t-14.5 18.5l-14 14q2 0 4 -2q4 -2 12 -10q8 -6 18.5 -15.5t22.5 -23.5 q13 -16 26 -34.5t23 -43.5q4 -14 8.5 -28.5t6.5 -30.5v-16.5t-2 -16.5q-4 -20 -9 -35q-4 -12 -6 -16q-4 -6 -8 -19q-4 -8 -10 -15t-12 -15q-7 -8 -13 -15.5t-14 -15.5q-6 -4 -16 -14q-4 -4 -17 -13q-8 -6 -16 -11t-19 -11l-18 -12q-2 0 -10 -4q-2 -3 -4 -4t-4 -3 q-21 -10 -42.5 -17t-43.5 -15q-27 -9 -48 -11q-10 -4 -22 -5t-25 -3q-24 -4 -49.5 -5t-50.5 1q-53 0 -104.5 7t-104.5 20q-104 22 -208.5 60t-208 81t-206 85t-204.5 73q-103 35 -201 49q-98 16 -195 12h-22t-25 -2q-10 0 -22.5 -1t-22.5 -3q-8 -2 -24 -2q-13 -4 -23 -4 q-10 -2 -21.5 -4t-21.5 -4t-21.5 -4t-21.5 -7q-10 -4 -21.5 -5t-21.5 -5t-20.5 -6t-20.5 -6l-10 -4l-10 -4l-19 -6q-78 -29 -143.5 -62t-124.5 -67q-57 -35 -104.5 -70t-88.5 -64q-79 -61 -127.5 -95t-64.5 -19q-18 12 0 63zM-2914 -670q0 4 20 23q4 6 11.5 12t15.5 14 q8 7 18 15t21 18q22 17 51 39.5t65 44.5q78 51 179 96q49 21 104 38.5t117 29.5q59 10 123.5 16.5t130.5 4.5h16h17q8 -3 16 -3h16q13 0 33 -4q8 0 16.5 -1t16.5 -1l33 -6q4 0 8 -1t8 -1l16 -4q9 -2 16 -3t17 -3l31 -6q65 -17 124.5 -38.5t114.5 -43.5q58 -23 110 -44.5 t99 -39.5q50 -19 93 -35t77 -31q37 -12 66 -22t51 -17q10 -4 17.5 -6t13.5 -4t10 -4l-43 12q-20 7 -49 16t-66 21q-37 13 -81 28t-91 34q-49 18 -101 38.5t-110 43.5q-57 20 -116.5 39.5t-122.5 33.5q-10 4 -31 9q-8 2 -15 3t-18 3l-14 2q-4 0 -8 1t-8 1l-33 4q-8 2 -16.5 2 t-16.5 2q-8 0 -15.5 1t-17.5 1q-20 0 -30 2h-17h-16q-131 0 -250 -25q-59 -10 -113.5 -27.5t-101.5 -37.5q-47 -21 -89 -42.5t-77 -43.5q-10 -4 -17.5 -10t-17.5 -11q-8 -6 -15 -11t-16 -9q-16 -10 -29.5 -19.5t-25.5 -19.5q-24 -16 -42.5 -30.5t-33.5 -24.5 q-24 -19 -28 -19zM-2236 -510q-2 8 22 29q6 4 14.5 9t18.5 11q10 4 23.5 9.5t27.5 9.5q29 10 61.5 16t67.5 10t71 5t70 -1q64 -6 109 -16q10 -2 18.5 -4t12.5 -4q4 0 6 -2h2h4h-4h-8q-6 0 -14.5 1t-18.5 1q-21 2 -48.5 2t-58.5 -4q-69 -4 -133 -19q-35 -8 -64.5 -15 t-56.5 -17q-26 -9 -46.5 -14t-37.5 -9q-30 -10 -38 2zM-1821 -590q-4 15 2 31q4 14 23 33q14 14 31 22q18 12 39 19q22 10 40 12q11 2 21 3t20 1q21 2 37.5 0t28.5 -6q6 -2 10 -2t8 -2l5 -2h2l-2 -2h-5h-18q-25 0 -61 -11q-11 -4 -18 -6t-17 -6q-11 -4 -18 -8t-15 -8 q-10 -4 -17.5 -10.5t-13.5 -10.5q-16 -12 -24 -20q-11 -8 -15 -14.5t-8 -12.5q-2 -2 -6 -10q-2 -2 -3 -4t-3 -4q-10 0 -12 2q-7 4 -11 16zM-920 -373q50 -2 93 -6t79 -10q80 -12 123 -43q23 -14 36.5 -33.5t17.5 -40.5q4 -18 0 -33.5t-19 -19.5q-10 18 -27.5 37.5 t-39.5 36.5q-23 16 -42.5 26t-31.5 17q8 -4 23.5 -13.5t33.5 -25.5q19 -17 37.5 -37.5t34.5 -48.5q-12 -17 -31 -17q-14 -2 -31 4q-14 7 -28 17q-8 6 -14.5 12t-10.5 10q-16 17 -35 41q-18 25 -39 49q-12 13 -26 25t-31 23q-31 20 -72 30zM-633 -340q15 -6 29 -16 q6 -4 11 -7.5t11 -7.5q11 -10 18 -17t11 -15q10 -17 4 -33q0 -8 -6 -10q-2 -3 -8 -3q0 19 -8 33q-4 10 -8.5 15.5t-6.5 9.5q2 -2 11 -19q4 -8 6 -18t0 -21q-9 0 -13 3q-2 2 -4 3t-4 3q-4 4 -5 9t-3 9q-4 8 -4 17.5t-4 21.5t-8 23q-7 10 -19 20zM-535 -108.5q0 8.5 3 18.5 q4 20 12 39q12 18 33 31q18 12 57 12q10 0 33.5 -1t34.5 -5q18 -4 32 -11q8 -4 11 -6q8 -4 14 -8t10 -8q-10 -4 -14 -10l-6 -19q-2 -6 -2 -11t-2 -11v-25v-80q-5 4 -7 4q-4 4 -8 6.5t-8 6.5q-10 4 -17.5 8t-13.5 8q-8 4 -14 6q2 -2 2 -4q6 -6 8 -10q10 -15 19.5 -28 t19.5 -25q2 -5 4 -6t4 -5l6 -6q0 -2 2 -4l3 -2v-65v-15v-139v-16q-5 -7 -19 -17q-6 -4 -13 -9t-16 -9q-8 -6 -24 -15l-8 -4q-2 0 -11 -4q-2 0 -3 -1t-3 -1l-8 -4q-2 -2 -6 -2l-2 -2q-12 -4 -25.5 -8t-29.5 -8v2q-21 12 -33 30q-10 19 -12 37q-3 10 -3 18.5v16.5v141v205 v14.5z" />
<glyph unicode="_" horiz-adv-x="813" d="M20 2l78 121l695 -2q-32 -23 -49 -56t-31 -65z" />
<glyph unicode="`" d="M-700 -559q4 12 7 25.5t9 25.5q4 8 7 14.5t7 12.5q2 4 4 7t4 7l7 6q0 2 4 6q22 27 47 45q26 21 61 37q33 15 69 23t77 10q78 2 159 -22q41 -11 79 -27.5t75 -34.5q37 -20 73 -40.5t70 -41.5q35 -20 69 -38.5t69 -35.5q10 -4 18 -8l16 -8l35 -12q10 -4 17.5 -6t17.5 -4 q10 -5 17.5 -6t17.5 -5q72 -16 143.5 -18t136.5 8q66 10 125.5 30.5t110.5 49.5q25 14 47.5 27.5t44.5 29.5q4 4 9 7t12 8q4 4 9 8t9 8q6 4 11 7t10 7q4 4 8 8.5t8 8.5q37 30 65.5 60t53.5 56q22 27 40.5 47.5t34.5 36.5q33 31 52 25q20 -6 22 -49q2 -19 -4 -51 q-4 -17 -7 -33.5t-11 -34.5q-15 -39 -39.5 -83t-63.5 -91q-20 -23 -41.5 -46.5t-50.5 -45.5q-51 -45 -125 -84q-65 -37 -143 -61.5t-164 -32.5q-86 -11 -174 -1.5t-174 37.5q-10 5 -21.5 8t-21.5 7l-43 18q-10 4 -20.5 9.5t-20.5 9.5q-10 6 -19.5 11t-19.5 11 q-39 23 -74 47.5t-67 48.5q-35 25 -66 47.5t-63 45.5q-31 20 -63 37.5t-62 31.5q-33 15 -65 23t-64 10q-60 6 -119 -10q-17 -4 -29 -10.5t-24 -12.5q-25 -12 -43 -30l-4 -5l-5 -4q-6 -6 -8 -10q-6 -6 -14 -18q-14 -19 -21 -43q-14 -41 -14 -80q2 -19 6 -34t8 -28 q11 -24 20 -35.5t7 -11.5l-2 2q-6 0 -8 6q-15 11 -27 33q-8 12 -14 28.5t-10 37.5q-11 39 0 92zM-692 -47q4 4 10 8q4 2 7 4t7 4q2 2 4 3t5 3q8 5 16 7t18 4q11 4 33.5 5t34.5 1q35 0 57 -12q21 -17 31 -31q10 -17 14 -39q2 -10 2 -18.5v-14.5v-209q-47 -8 -96 -28 q-31 -15 -63 -37q-31 -25 -50 -49l-2 -3l-4 -4v-2v121v15v196q0 14 -2 23q0 16 -2 24l-6 19q-4 6 -14 10zM-664 -631q0 15 3.5 30t13.5 32q8 16 23.5 27.5t31.5 19.5q17 6 33 8t33 0q34 -4 57 -14q25 -11 40 -28t19 -32q13 -30 -6 -39q-8 -6 -35 4q-12 9 -20 13 q-6 4 -13.5 7t-15.5 7q-16 8 -35.5 12t-37.5 0q-21 -4 -33 -16q-15 -14 -21 -37q-4 -10 -4 -20.5v-20.5q0 -16 4 -37q2 -16 6 -24q3 -4 5 -9l-7 7l-8 8q-2 4 -4 6t-4 6q-10 19 -16 37q-4 12 -7.5 24.5t-1.5 28.5zM-598 -502q0 2 2 2l8 8q13 9 29 17t43 12q22 4 41 0 q16 -2 26 -12q9 -10 5 -21q-5 -10 -15 -14q-6 -2 -24 -2q-15 4 -33.5 7t-36.5 5h-33q-4 -2 -10 -2h-2zM-426 -47q4 4 10 8q4 2 7 4t8 4q2 2 4 3t4 3q18 9 35 11q10 4 33.5 5t33.5 1q39 0 58 -12q18 -15 32 -31q8 -19 13 -39q2 -10 2 -18.5v-14.5v-231v-8q-13 4 -24 7t-23 7 q-80 22 -148 22h-16h-4v203v23q-2 6 -2 12t-3 12l-6 19q-4 6 -14 10zM-145 -309q2 12 16 26q6 4 13 9.5t16 9.5q8 4 15 7t15 7q11 4 23 7t27 7q14 5 29.5 8t31.5 9t32.5 13t32.5 18q17 10 32.5 23t27.5 30q-45 -90 -86 -152q-23 -30 -45.5 -55t-44.5 -39q-47 -27 -90 -16 q-41 6 -41 39q22 2 46.5 10t47.5 20q24 13 42.5 26t29.5 23q-9 -4 -23 -14t-37 -20q-22 -11 -49 -19t-59 -12q-9 18 -2 35zM-37 -428q-4 2 2 8q6 -4 14.5 -4h18.5q20 4 29 6q-4 0 -9.5 -1t-13.5 -1q-18 -4 -37 6q0 6 4 11q2 2 4 3t5 3q6 2 20 2q8 0 18.5 -2t20.5 -4h24 q19 4 27 10q-6 -6 -12 -11.5t-12 -9.5q-7 -4 -13 -8t-10 -8q-25 -14 -41 -16q-18 -5 -31 6q-8 4 -8 10z" />
<glyph unicode="a" horiz-adv-x="631" d="M24 364q6 69 31 135.5t68 120t105 88.5t143 40q0 60 -3.5 113.5t-13.5 94t-28.5 64t-49.5 22.5q-24 -1 -39.5 -19t-22.5 -45t-6.5 -57t8.5 -56t23 -42t37 -14q-7 -19 -27 -29.5t-45 -10.5q-22 0 -40 7q-24 10 -38.5 25.5t-22 35t-10 41.5t-3.5 44l-2 44t-4.5 41.5t-12 34 t-24.5 21.5h264q77 0 124.5 -17.5t73.5 -55.5t35 -97t9 -143q0 -144 -2 -284q-1 -70 -1 -141t1 -143q1 -166 59 -182h-368q-60 0 -104 31t-72 82t-38 117q-6 40 -6 82q0 26 2 52zM206 270q4 -60 16 -109.5t26 -80.5t32 -44.5t35 -13.5q22 0 38 20t16 54l2 627 q-54 -36 -88 -89t-53 -114q-18 -62 -23 -126q-3 -34 -3 -66q0 -30 2 -58z" />
<glyph unicode="b" horiz-adv-x="639" d="M20 0q26 8 42 52.5t16 129.5v1069q0 85 -16 131t-42 54h240v-375l98 2h3q51 0 91 -28q42 -29 73 -80t51.5 -118.5t31 -144.5t10.5 -158t-10.5 -158t-31.5 -145t-52.5 -119.5t-74 -81.5t-95.5 -30h-334zM260 84q0 -38 22.5 -56t51.5 -8q23 7 40 40t29.5 84.5t19.5 117.5 q7 68 9 140q2 45 2 91v57q-2 76 -7.5 147.5t-15 134.5t-22.5 110q-16 54 -37.5 77t-41.5 23q-21 0 -35.5 -20t-14.5 -51v-887z" />
<glyph unicode="c" horiz-adv-x="598" d="M22 532q0 3 -1 6q0 96 16 188q16 96 48.5 171t81.5 120.5t114 45.5h272q-16 -7 -25 -21.5t-13 -34t-5 -41.5l-2 -44t-4 -44t-10.5 -41t-21.5 -35t-38 -26q-21 -9 -42 -9q-23 0 -41.5 11t-26.5 29q24 0 39 19t21 46.5t4 59.5t-11 59q-8 26 -22 39.5t-31 13.5 q-31 0 -54 -45q-20 -39 -34 -109.5t-22.5 -157.5t-10.5 -183q-1 -27 0 -54q0 -67 3 -131q5 -89 17.5 -164.5t32.5 -121.5q23 -53 64 -53h6q26 1 39.5 24t19.5 59.5t7.5 83t4.5 94t9.5 93t23 80t45.5 54.5q25 17 64 17h12q-19 -11 -32 -51.5t-19 -96.5q-4 -38 -4 -79 q0 -19 2 -39q2 -62 13.5 -117t33 -95.5t53.5 -51.5h-313q-65 0 -114.5 45.5t-82.5 120.5t-49.5 170.5t-16.5 195.5z" />
<glyph unicode="d" horiz-adv-x="639" d="M22 534q0 3 -1 6q0 98 16 190q16 96 48.5 170t81.5 119q48 44 111 44h3l98 -2v375h239q-59 -17 -59 -185v-1069q0 -84 16 -129t43 -53h-333q-65 0 -114.5 46t-82.5 121t-49.5 171t-16.5 196zM206 431q2 -77 9 -148t19 -127t29.5 -92t39.5 -44q29 -10 52.5 8t23.5 56v860 q0 43 -18 66t-41 23q-17 0 -34 -14t-28 -44q-15 -41 -26 -102.5t-17.5 -134t-8.5 -151.5q-1 -40 -1 -79t1 -77z" />
<glyph unicode="e" horiz-adv-x="631" d="M20 1063h369q60 0 104 -31t71 -82q28 -50 39 -116q7 -40 7 -82q0 -26 -3 -53q-7 -69 -31.5 -135.5t-67.5 -120t-105 -88.5t-143 -40q0 -51 -2 -106v-16q0 -46 10 -87q11 -41 38.5 -60.5t58.5 -19.5q26 0 47.5 12.5t31.5 37.5q8 21 8 42q0 23 -10 46q-12 29 -15 61.5t9 62 t41 53.5t80 36q-12 -26 -14.5 -47.5t0.5 -40.5t10.5 -36.5t15.5 -35.5q20 -43 20 -75q-1 -6 -1 -12q-4 -36 -27 -62q-25 -28 -63 -42t-80.5 -20t-86 -6h-79.5q-53 1 -87 17t-53.5 43.5t-26.5 66.5t-7 86v668q0 85 -16 129.5t-42 52.5zM260 338q55 38 89 91.5t52.5 114.5 t22.5 125q2 32 2 63q0 30 -2 60q-4 58 -15.5 108t-25.5 83q-14 31 -32.5 45t-36.5 14q-22 0 -38 -20t-16 -55v-629z" />
<glyph unicode="f" horiz-adv-x="522" d="M20 0q58 12 58 182v468q-1 78 -1 155q0 156 1 313q0 86 8.5 146t34.5 97.5t73.5 55t124.5 17.5h265q-16 -7 -25 -21.5t-13 -34t-5 -41.5t-2 -45q-1 -22 -3.5 -43.5t-10 -40.5t-22 -35t-38.5 -26q-22 -8 -40 -8q-24 0 -43 11t-28 30q22 -2 37 14t23 42t8.5 56t-7 57 t-23 45t-40.5 19q-26 1 -43.5 -19t-27.5 -52t-14.5 -72t-6.5 -79q-1 -29 -1 -56q0 -9 1 -17v-55h182q-20 -11 -29.5 -24t-17.5 -25h-135v-832q0 -85 15.5 -130.5t41.5 -51.5h-297z" />
<glyph unicode="g" horiz-adv-x="637" d="M22 539q-1 3 -1 6q0 96 16 187q16 94 48.5 167.5t81.5 118.5t114 45h335q-27 -8 -43 -53.5t-16 -130.5v-879q0 -93 -29.5 -169t-78.5 -128t-113 -77q-47 -18 -97 -18q-18 0 -36 2q54 16 87.5 60.5t52.5 101.5t25.5 118.5t6.5 109.5h-90q-66 4 -115 51.5t-82 123 t-49.5 170.5t-16.5 194zM204 554q-1 -21 -1 -41q0 -75 5 -146q5 -90 17.5 -166t32.5 -123q14 -32 33 -46.5t37 -14.5q17 0 30 11.5t17 32.5v818q0 113 -25 153q-15 10 -28 10q-28 0 -50 -36q-21 -39 -35.5 -109.5t-23 -158t-9.5 -184.5z" />
<glyph unicode="h" horiz-adv-x="676" d="M20 0q58 12 58 182v1069q0 167 -58 183h240v-373h98q77 0 124.5 -17.5t73.5 -55.5t35 -97t9 -143q0 -144 -2 -283q-1 -70 -1 -140.5t1 -142.5q1 -85 16 -130.5t41 -51.5h-239v754q0 58 -3 110.5t-12.5 92.5t-27.5 62.5t-49 20.5q-25 -1 -44.5 -19.5t-19.5 -49.5v-789 q0 -85 15.5 -130.5t41.5 -51.5h-297z" />
<glyph unicode="i" horiz-adv-x="297" d="M0 0q57 12 57 182v697q0 169 -57 184h297q-26 -8 -41.5 -53.5t-15.5 -130.5v-697q0 -85 15.5 -130.5t41.5 -51.5h-297zM57 1212q0 39 27 66t66 27q18 0 34.5 -7t29 -20t19.5 -29.5t7 -36.5q0 -37 -26.5 -63.5t-63.5 -26.5q-19 0 -36 7t-30 19.5t-20 29t-7 34.5z" />
<glyph unicode="j" horiz-adv-x="332" d="M-101 -390q52 15 85.5 60t53 103t27 119t7.5 108v879q0 85 -16 130.5t-42 53.5h297q-57 -15 -57 -184v-879q0 -93 -29.5 -169t-78.5 -128t-114 -77q-47 -18 -97 -18q-18 0 -36 2zM72 1212q0 20 7 36.5t19.5 29.5t29 20t34.5 7q39 0 65.5 -27t26.5 -66q0 -37 -26.5 -63.5 t-65.5 -26.5q-37 0 -63.5 26.5t-26.5 63.5z" />
<glyph unicode="k" horiz-adv-x="676" d="M20 0q58 12 58 182v1069q0 167 -58 183h240v-605l66 97q38 57 40 91.5t-18 45.5h234q-29 -14 -60 -34.5t-59 -49.5l-158 -168l53 2h22q62 0 102 -14q48 -17 74 -56t35 -100t9 -145q0 -79 -2 -158q-1 -47 0 -95v-63q1 -85 16 -130.5t41 -51.5h-297q26 6 42 50t16 128v326 q0 60 -3 112.5t-12.5 91.5t-28 62t-48.5 23q-25 -1 -44.5 -21t-19.5 -51v-539q0 -85 15.5 -130.5t41.5 -51.5h-297z" />
<glyph unicode="l" horiz-adv-x="338" d="M20 0q58 12 58 182v1069q0 167 -58 183h240v-1252q0 -85 15.5 -130.5t41.5 -51.5h-297z" />
<glyph unicode="m" horiz-adv-x="1016" d="M20 0q26 6 42 51.5t16 130.5v697q0 166 -58 182h676q77 0 124.5 -17.5t73.5 -55.5t35 -97t9 -143q0 -144 -2 -283q-1 -70 -1 -140.5t1 -142.5q2 -170 59 -182h-241v754q0 58 -3 110.5t-12.5 92.5t-27.5 62.5t-49 20.5q-25 -1 -44.5 -19.5t-19.5 -49.5v-789 q0 -85 15.5 -130.5t41.5 -51.5h-297q58 12 58 182v572q0 58 -3 110.5t-12.5 92.5t-27.5 62.5t-49 20.5q-25 -1 -44.5 -19.5t-19.5 -49.5v-789q0 -85 15.5 -130.5t41.5 -51.5h-297z" />
<glyph unicode="n" horiz-adv-x="676" d="M20 0q58 12 58 182v697q0 167 -58 182h338q77 0 124.5 -17.5t73.5 -55.5t35 -97t9 -143q0 -144 -2 -283q-1 -70 -1 -140.5t1 -142.5q1 -85 16 -130.5t41 -51.5h-239v754q0 58 -3 110.5t-12.5 92.5t-27.5 62.5t-49 20.5q-25 -1 -44.5 -19.5t-19.5 -49.5v-789 q0 -85 15.5 -130.5t41.5 -51.5h-297z" />
<glyph unicode="o" horiz-adv-x="612" d="M25 491q-2 34 -2 68q-1 58 5 115q8 90 30 170t57 139t87.5 90t108.5 31q50 0 96.5 -25.5t81.5 -79.5q37 -56 61 -135q24 -80 34 -171q8 -68 7 -139v-47q-4 -95 -21 -182t-48.5 -159.5t-77.5 -116.5q-64 -62 -140 -62q-35 0 -69 14.5t-65 45.5q-43 43 -74 112.5t-48.5 154 t-22.5 177.5zM204 536v-28q0 -78 4 -151q6 -86 17.5 -158.5t30.5 -118.5q25 -63 50 -63t50 63q18 47 29.5 119.5t16.5 158.5q5 78 5 160q-1 8 -1 17q0 92 -6 178.5t-17 161t-27 124.5q-23 73 -48 73q-24 0 -48 -68q-17 -49 -29 -124t-19 -162.5t-8 -181.5z" />
<glyph unicode="p" horiz-adv-x="639" d="M20 -372q26 8 42 53t16 130v1068q0 85 -16 130.5t-42 53.5q81 0 167 3h57q56 0 110 -3q66 -4 115.5 -51.5t82.5 -123t49.5 -170.5t16.5 -194q1 -3 1 -6q0 -96 -17 -187q-16 -94 -48.5 -167.5t-81.5 -118.5t-114 -45h-98v-372h-240zM260 92q0 -32 19.5 -51t44.5 -21h1 q24 0 44 40q20 42 34 110.5t22 157t9 182.5q1 20 1 39q0 74 -5 145q-5 92 -17 165.5t-32 122.5t-47 58q-13 5 -23 5q-22 0 -36.5 -17t-14.5 -51v-885z" />
<glyph unicode="q" horiz-adv-x="612" d="M25 492q-2 34 -2 68q0 58 5 114q9 90 30.5 170t56.5 139t87.5 90t108.5 31q50 0 96.5 -25.5t81.5 -79.5q37 -56 61 -136t34 -171q7 -67 7 -136q0 -25 -1 -50q-3 -95 -20 -182t-48.5 -159t-77.5 -116q-47 -46 -100 -58q47 -9 119 -47q23 -12 51 -30.5t57.5 -35.5t59 -29 t56.5 -12q26 0 48.5 14.5t38.5 51.5q25 -38 25 -76q0 -3 -1 -7q-2 -42 -22.5 -75.5t-53.5 -52.5q-27 -16 -55 -16q-7 0 -14 1q-31 4 -61.5 28t-61.5 58t-64 72t-69 70q-26 23 -50 38t-44 23q-18 5 -39 5q-27 0 -53 -12t-35 -44q-5 -18 -2.5 -34t11 -27.5t20 -17t24.5 -3.5 q-5 -17 -13.5 -26t-22.5 -7q-24 4 -38 19t-18 35.5t1 44t18.5 44.5t35.5 36.5t50 20.5q-41 17 -72 47q-43 43 -73.5 113t-48.5 154.5t-23 177.5zM204 536v-28q0 -78 4 -151q6 -86 17.5 -158.5t30.5 -118.5q25 -63 50 -63t50 63q18 47 29.5 119.5t16.5 158.5q5 77 5 160 q0 9 -1 17q0 92 -6 178.5t-17 161t-27 124.5q-23 73 -48 73q-24 0 -48 -68q-17 -49 -29 -124t-19 -162.5t-8 -181.5z" />
<glyph unicode="r" horiz-adv-x="584" d="M20 0q58 12 58 182v697q0 169 -58 184h564q-16 -7 -25 -21.5t-13 -34t-5 -41.5l-2 -44t-4 -44t-10.5 -41t-21.5 -35t-38 -26q-11 -5 -21.5 -7t-20.5 -2q-24 0 -42.5 11t-26.5 29q17 -1 29.5 8t21 25t13.5 36q5 21 5 48q0 42 -17 76q-18 36 -54 42q-29 0 -47 -23t-28 -62 t-13.5 -91.5t-3.5 -111.5v-572q0 -85 15.5 -130.5t41.5 -51.5h-297z" />
<glyph unicode="s" horiz-adv-x="600" d="M23 -1q20 18 36 44.5t26.5 57.5t14.5 63.5t0.5 61.5t-15.5 52t-34 35q19 2 34 2q34 0 56 -9q31 -13 45.5 -38t18.5 -59.5t10 -71.5q11 -64 41.5 -92.5t67.5 -28.5t71 25t51 70q15 39 15 75q-1 14 -3 28q-8 48 -36 92t-70 85.5t-88.5 83t-92 84.5t-80.5 90t-54 99 q-14 38 -14 82q0 16 2 32q3 21 14 54.5t34.5 66t62.5 55.5t97 23l320 2q-16 -7 -25 -21.5t-13 -34t-5 -41.5l-2 -44t-4 -44t-10.5 -41t-21.5 -35t-38 -26q-21 -9 -42 -9q-23 0 -41.5 11t-26.5 29q22 0 37 15.5t22.5 40t8 54t-6.5 56.5q-11 36 -38 54t-59 18q-20 0 -42 -8 q-20 -8 -37 -25t-26 -42.5t-9 -60t16 -78.5q19 -56 56 -98t81 -79.5t91 -74t86 -81.5t65 -103t29 -139v-7q0 -45 -12 -89q-14 -46 -43 -81.5t-74 -57t-107 -21.5z" />
<glyph unicode="t" horiz-adv-x="344" d="M20 1434h240v-371h227q-20 -11 -29.5 -24t-17.5 -25h-180v-842q0 -66 10 -128.5t31 -114.5t54 -88.5t79 -50.5q-17 -2 -34 -2q-52 0 -100 18q-64 24 -113.5 75t-79 125t-29.5 166v1077q0 85 -16 131t-42 54z" />
<glyph unicode="u" horiz-adv-x="676" d="M20 1063h240v-756q0 -58 3.5 -111t13.5 -93t28.5 -63t48.5 -20q23 2 42.5 21t19.5 51v787q0 169 -58 184h297q-26 -8 -41.5 -53.5t-15.5 -130.5v-697q0 -85 15.5 -129.5t41.5 -52.5h-336q-77 0 -124.5 17.5t-73.5 55t-34.5 97.5t-8.5 145q-1 96 -1 189q1 47 1 93v282 q0 169 -58 184z" />
<glyph unicode="v" horiz-adv-x="717" d="M20 1061h275q-17 -6 -28.5 -17t-6.5 -34l193 -645l145 598q5 21 3.5 37t-7.5 28.5t-15 20.5t-18 12h135q-26 -17 -39.5 -41t-19.5 -47l-252 -1025l-313 1056q-5 17 -20 34t-32 23z" />
<glyph unicode="w" horiz-adv-x="1087" d="M20 1061h275q-17 -6 -28.5 -18.5t-6.5 -36.5l193 -641l79 333l-90 306q-5 17 -19.5 34t-31.5 23h275q-17 -6 -28.5 -17t-6.5 -34l192 -645l146 598q5 21 3 37.5t-8 28.5t-14.5 20t-17.5 12h135q-26 -17 -40 -41t-19 -47l-252 -1025l-203 685l-168 -685l-313 1056 q-5 17 -20 34t-32 23z" />
<glyph unicode="x" horiz-adv-x="737" d="M20 1061h279q-14 -6 -25.5 -18t-1.5 -35l138 -336l141 297q12 26 12 45q-1 9 -3 17q-8 24 -25 30h135q-31 -17 -50 -40.5t-30 -47.5l-164 -342l233 -574q7 -17 24 -34t34 -23h-281q17 6 27 18t0 35l-144 355l-149 -316q-18 -38 -9.5 -61t25.5 -31h-135q31 17 51 41t31 47 l170 361l-225 555q-5 14 -22.5 32.5t-35.5 24.5z" />
<glyph unicode="y" horiz-adv-x="674" d="M20 1063h240v-756q0 -58 3.5 -111t13.5 -93t28.5 -63t48.5 -20q23 2 37.5 14t22.5 38v807q0 85 -16 130.5t-42 53.5h297q-26 -8 -41.5 -53.5t-15.5 -130.5v-879q0 -93 -29.5 -169t-79 -128t-113.5 -77q-47 -18 -97 -18q-18 0 -37 2q36 10 62.5 34.5t45.5 57t31 71 t19.5 78.5t10.5 78.5t5 70.5h-115q-70 0 -113.5 18t-67.5 56.5t-32 98t-8 142.5q-1 96 -1 189q0 47 1 93v282q0 169 -58 184z" />
<glyph unicode="z" horiz-adv-x="715" d="M0 0q17 6 33.5 23t23.5 34l379 934q10 24 1 33.5t-27 9.5l-121 2q-37 1 -60 -11.5t-34 -53.5q-7 -27 -7 -57t8 -54.5t23 -39.5t37 -13q-8 -19 -28 -29.5t-45 -10.5q-22 0 -40 7q-24 10 -37.5 25.5t-20.5 35t-9.5 41.5t-3.5 44q-2 22 -3 44t-5 41.5t-12.5 34t-24.5 21.5 h667q-8 -4 -22.5 -14.5t-32.5 -42.5l-377 -924q-10 -24 0 -35.5t27 -13.5l141 2q23 0 33.5 11.5t17.5 29.5q9 24 12.5 53t8 57.5t12 54.5t25 44.5t47.5 26.5q17 5 41 5q17 0 37 -2q-22 -12 -34.5 -35t-16 -52t0.5 -61t14.5 -63t26.5 -57.5t37 -44.5h-692z" />
<glyph unicode="{" horiz-adv-x="535" d="M-61 797l8 8q4 2 7 3t7 5q2 0 10 4q6 4 14.5 6t18.5 6q10 2 33.5 3.5t36.5 1.5q37 0 57 -13q19 -12 31 -30q10 -19 12 -37q2 -11 2 -19v-16v-842v-348q0 -14 2 -23q0 -16 2 -24q4 -12 8 -19q2 -6 13 -10q0 -2 -11 -8q-4 -2 -7 -4t-7 -4q-4 -4 -8 -4q-8 -4 -29 -13h-6 q-10 -4 -32.5 -5t-34.5 -1q-35 0 -58 13q-22 14 -31 30q-10 17 -14 39q-2 10 -2 18.5v14.5v102v35v15v288v752v22q0 11 -4 23q0 6 -2 10l-4 8q-6 11 -12 13zM205 797l2 2q2 2 4 3t4 3q8 4 12 8q2 0 11 4q8 4 15 6t17 6q11 2 34.5 3.5t35.5 1.5q37 0 57 -13q23 -12 31 -30 q12 -19 12 -37q2 -11 3 -19t1 -16v-1073q0 -21 2 -31v-4v-6q5 -25 19 -51.5t43 -30.5h14q13 2 29 14q14 19 20 35q4 16 5.5 33.5t-5.5 34.5q-2 4 -5 12t-7 8q55 -10 84 -41q25 -33 23 -80q-9 -47 -40.5 -76.5t-76.5 -40.5q-17 -4 -42.5 -6t-39.5 0h-12q-27 2 -50.5 5.5 t-44.5 11.5q-32 12 -55 30q-16 13 -28.5 27t-22.5 31q-2 2 -2 6q-4 4 -5 9t-5 9q-4 13 -7.5 25t-5.5 27q0 10 -1 17t-1 17v35v15v1040v22q0 7 -1 13t-1 10q-4 14 -8 18q-2 9 -12 13z" />
<glyph unicode="|" horiz-adv-x="322" d="M41 -118q59 59 59 147l2 1507h179q-31 -29 -43 -66t-17 -79l-6 -1509h-174z" />
<glyph unicode="}" d="M-559 -47q4 4 10 8q4 4 14 8q3 2 5 3t4 3q8 5 16 7t18 4q11 4 34.5 5t33.5 1q39 0 57 -12q21 -13 33 -31q8 -19 12 -39q3 -10 3 -18.5v-14.5v-231q0 -21 2 -31v-4q2 -2 2 -6q4 -25 17 -51.5t42 -30.5h14q13 2 29 14q12 12 20 35q11 35 3 68q-3 4 -7 12t-8 8q55 -8 84 -41 q29 -31 23 -80q-6 -47 -39 -76.5t-78 -40.5q-14 -4 -40 -6t-40 0h-12q-29 2 -52.5 5.5t-43.5 11.5q-31 12 -56 30q-30 25 -51 58q0 2 -1 3t-1 3q-4 6 -8 18q-10 25 -12 52q-3 10 -3 17v17v35v15v196q0 14 -2 25q0 14 -2 22l-6 19q-4 6 -14 10z" />
<glyph unicode="~" horiz-adv-x="860" d="M41 669.5q5 47.5 28 79t61.5 47.5t84.5 19q39 2 81.5 -7.5t86.5 -25t88 -34t85 -35t78 -27.5t67 -11q34 0 56.5 17t30.5 60q26 -39 29 -83t-14.5 -81t-55 -61t-93.5 -24q-38 0 -82.5 12.5t-96.5 41.5q-76 42 -148.5 68.5t-132.5 26.5q-49 0 -84.5 -22t-52.5 -73 q-21 65 -16 112.5z" />
<glyph unicode="&#xa2;" d="M-569 -578q2 25 12 50q0 6 4 14l6 12q2 6 5 12.5t7 14.5q35 51 93 84q8 4 15 8t15 8l31 13q35 12 70 18q71 8 149 -4q76 -17 148 -43q34 -15 69 -30t70 -32q35 -16 67.5 -31.5t65.5 -29.5q16 -6 32.5 -12t33.5 -11q16 -6 32.5 -10t32.5 -8q17 -4 32 -6t32 -4 q16 -2 30.5 -2h30.5t29.5 1t27.5 3q4 2 7.5 2t7.5 2q4 0 7 1t7 1l6 2l6 2q4 2 6.5 2t6.5 2q53 21 88 49q10 8 17 16.5t13 16.5q19 21 25 35q2 2 2 4t2 4q0 4 4 8q4 13 6 17q6 18 6 34q7 31 -4 56q-6 26 -22 45q-19 22 -35 31q-20 14 -40.5 20t-37.5 10q-16 4 -29.5 8.5 t-17.5 14.5q-12 22 21 49q18 18 47 27q30 12 78 12q49 -4 100 -31q26 -16 50 -37.5t44 -52.5q41 -66 41 -149q0 -23 -2 -42.5t-8 -41.5q-2 -5 -2 -10t-2 -11q-4 -8 -8 -20q-3 -5 -5 -10t-4 -9q-4 -6 -5 -11t-5 -9q-16 -35 -47 -68q-31 -35 -59 -57q-70 -54 -154 -78 q-4 -4 -10 -4t-10 -2l-11 -4l-12 -2q-4 0 -10 -1t-11 -1q-6 -2 -11 -2t-11 -3q-23 -2 -43.5 -3t-42.5 1q-23 2 -43.5 4.5t-40.5 6.5q-23 4 -42 10t-40 12q-41 12 -79 28.5t-72 35.5q-35 18 -69 38.5t-65 39.5q-63 40 -124.5 73t-120.5 53q-60 19 -117 19q-31 0 -57 -6 q-7 -2 -14 -2t-13 -4q-16 -4 -25 -9q-47 -18 -82 -55q-4 -4 -7 -9t-7 -9q0 -4 -2 -5t-2 -6q-2 -2 -3 -4t-3 -4l-8 -20t-9 -21q-4 -20 -6 -39.5t-2 -35.5q4 -35 13 -56q6 -22 16 -33q4 -6 8 -10q0 -2 -10 8q-12 7 -25 29q-16 27 -24 59q-6 41 -4 84zM-559 -47q4 4 10 8 q4 2 7 4t7 4q3 2 5 3t4 3q8 5 16 7t18 4q11 4 34.5 5t33.5 1q35 0 57 -12q21 -17 31 -31q10 -17 14 -39q3 -10 3 -18.5v-14.5v-209q-17 -2 -32.5 -6t-33.5 -10h-2q-8 -4 -15.5 -7t-15.5 -7q-10 -5 -17 -8t-16 -7q-53 -33 -84 -76v119v15v196q0 14 -2 23q0 16 -2 24l-6 19 q-4 6 -14 10zM-530 -631q0 15 3 30t13 32q18 30 55 47q33 12 66 8q35 -4 57 -14q25 -11 40 -28t20 -32q12 -30 -7 -39q-10 -8 -32 4q-7 5 -12 7t-11 6t-13 7t-16 7q-16 8 -35.5 12t-37.5 0q-21 -4 -33 -16q-14 -14 -21 -37q-4 -10 -4 -20.5v-20.5q0 -16 4 -37q2 -16 7 -24 q2 -4 4 -9l-6 7l-9 8q-2 4 -4 6t-4 6q-10 19 -16 37q-8 22 -8 53zM-465 -502q0 2 2 2l8 8q13 9 29 17t43 12q23 4 41 0q16 -2 27 -12q8 -10 4 -21q-4 -10 -15 -14q-6 -2 -24 -2q-15 4 -33 7t-37 5h-33q-4 -2 -10 -2h-2zM-297 -270q0 10 6 20q8 14 17 19q6 10 16 16q8 4 15 9 t18 9q10 7 19 12t20 13q10 6 19 14t20 19q18 20 30 49q-8 -35 -14 -64.5t-16 -56.5q-21 -55 -43 -82q-29 -29 -58 -29q-31 -4 -37 19q15 4 30 15.5t30 23.5q14 14 23 26.5t16 20.5q-4 -4 -12.5 -14.5t-20.5 -20.5q-31 -27 -70 -41q-8 8 -8 23zM-169 -327q-1 1 1 5 q16 -4 33 7q10 4 16 7l10 5l-8 -4t-12 -4q-8 -4 -18.5 -6t-20.5 2q0 4 1 6t1 4q2 4 6 8q8 4 21 8q8 2 17 2t22 4q12 0 22 7q17 8 23 16q-4 -8 -9.5 -14.5t-9.5 -12.5t-8 -11t-8 -9q-21 -25 -35 -29q-18 -8 -31 -2q-10 2 -12 6q0 4 -1 5z" />
<glyph unicode="&#xa3;" horiz-adv-x="266" d="M-80 -601.5q0 23.5 4 50.5q6 29 19 51q6 17 14 27q2 8 8 14l4 6l6 7q11 12 22 23t26 22q28 22 59 34q70 33 147 35q76 2 160 -22q41 -11 79 -27t75 -35q37 -20 72.5 -40.5t70.5 -41.5q35 -20 68.5 -38.5t68.5 -34.5q8 -4 16.5 -8.5t18.5 -8.5l33 -12q10 -4 18.5 -6 t16.5 -4q10 -4 18 -5t19 -6q71 -16 142 -18t136 8q68 10 127 30.5t109 49.5q24 14 46.5 27.5t45.5 29.5q6 5 11 8t9 7t10.5 8t10.5 8t9 7t9 7q4 5 9 9l10 8q34 31 64 60.5t52 56.5q25 26 43.5 46.5t34.5 37.5q33 30 51 24q21 -10 23 -49q0 -10 -1 -22.5t-3 -28.5 q-6 -35 -21 -68q-14 -39 -37.5 -83t-62.5 -91t-92 -92q-58 -47 -125 -86q-66 -35 -143.5 -59.5t-163.5 -32.5q-86 -10 -175.5 -1t-175.5 38q-10 4 -21 7t-22 7q-10 4 -20 9t-21 9l-20 10t-20 9q-11 6 -20 11t-19 11q-39 23 -74 47.5t-70 49.5q-33 22 -64.5 45.5t-62.5 46.5 q-32 20 -63 37.5t-64 31.5q-32 15 -64 23t-63 10q-63 6 -121 -10q-28 -10 -51 -23q-24 -12 -43 -30q-2 -2 -3 -2t-3 -2l-4 -4q-2 -5 -4 -6t-4 -5q-4 -4 -7 -9t-7 -9q-7 -10 -12 -21.5t-9 -21.5q-16 -43 -12 -80q0 -18 4 -33.5t8 -27.5q4 -13 10 -22t11 -15q4 -6 8 -11 q-2 0 -13 9q-12 10 -26 32q-15 25 -25 66q-4 18 -4 41.5zM-66 803q0 4 11 10q2 2 5 3t7 3t5 3t5 3q6 4 14.5 6.5t18.5 6.5q10 2 33.5 3t36.5 1q36 0 57 -13q23 -14 31 -30q4 -11 8 -20t4 -19q2 -10 2 -17.5v-15.5v-1051q-47 -8 -96 -28q-33 -17 -62 -37q-26 -23 -51 -49v-2 q-4 0 -4 -4l-2 -2v120v15v1040v23q0 10 -4 22q0 12 -6 19q-6 10 -13 10zM-39 -623q0 15 3 30t13 32q19 33 56 45q30 14 67 10q33 -4 56 -14q24 -10 40.5 -27.5t20.5 -32.5q10 -30 -6 -38q-12 -9 -35 4q-6 4 -22 12q-4 4 -11.5 7l-17.5 7q-16 6 -34.5 11.5t-37.5 1.5 q-20 -5 -33 -17q-14 -14 -20 -37q-6 -22 -6 -41q2 -10 2 -19t4 -18q4 -16 7 -24t3 -10l-8 8q-4 4 -6 8t-4 6t-4 6q-11 15 -19 37q-4 12 -6 24.5t-2 28.5zM27 -494q2 0 4 2q0 3 2 4t4 5q6 4 13 8t18 8q18 8 41 12q22 4 43 0q18 -4 24 -12q10 -12 4 -20q-4 -13 -12 -15t-25 -2 q-16 4 -34.5 7t-36.5 5q-23 0 -31 -2h-14zM209 -238q0 15 10 29q10 16 23 27q12 10 26 20q21 15 45 25q13 6 27 13t29 18q30 20 57 47q12 14 23.5 29.5t21.5 35.5q-22 -90 -49 -168q-14 -35 -29.5 -64.5t-36.5 -47.5q-16 -17 -38.5 -27t-43.5 -12q-43 0 -49 28 q21 6 42.5 20.5t41.5 33.5q21 16 35 34.5t21 28.5q-5 -6 -17 -18.5t-31 -28.5q-18 -16 -42.5 -30.5t-55.5 -24.5q-10 12 -10 32zM342 -313q0 4 4 12q0 6 6 6q8 8 19 8q8 2 18 2t21 2l24 7q17 8 23 16q-4 -8 -9.5 -14.5t-9.5 -12.5q-6 -8 -18 -20q-10 -10 -17.5 -16.5 t-17.5 -10.5q-14 -6 -33 -2q-4 2 -10 8q-4 4 0 11q12 -5 33 4q16 2 26 12l-8 -4l-12 -6q-8 -2 -18.5 -4t-20.5 2zM733 -492l4 -2q8 -4 15 -6q6 -4 22 -12q8 -4 29 -12q35 -17 81 -32t101 -28q55 -10 116.5 -13t121.5 5q59 10 112.5 28.5t96.5 43.5q41 22 71.5 45.5 t50.5 44.5q11 10 19 17t12 12q12 12 14 10q5 0 -4 -15q-2 -4 -4 -7t-6 -7q-8 -12 -14 -20q-17 -23 -48.5 -49.5t-78.5 -53.5q-45 -26 -101.5 -44.5t-117.5 -24.5q-62 -9 -124.5 -3.5t-117.5 19.5q-57 14 -102 32.5t-80 35.5q-8 4 -15.5 7t-13.5 7q-8 4 -20 12q-4 2 -7.5 4 t-7.5 4q-2 0 -4 2z" />
<glyph unicode="&#xa4;" horiz-adv-x="1017" d="M53 303l131 133q-35 47 -54.5 106.5t-19.5 131.5q0 71 19.5 131.5t54.5 107.5l-131 136l90 92l139 -144q99 76 228 76q59 0 118.5 -19.5t106.5 -56.5l139 144l90 -92l-133 -136q35 -47 55.5 -107.5t20.5 -131.5q0 -72 -20.5 -131.5t-55.5 -106.5l133 -133l-90 -92 l-139 141q-47 -39 -106.5 -58.5t-118.5 -19.5q-131 0 -228 78l-139 -141zM266 674q0 -62 19.5 -112t52 -87t78 -56.5t94.5 -19.5t93 19.5t76.5 56.5t52 87t19.5 112q0 61 -19.5 111.5t-52 87t-76.5 56t-93 19.5t-94.5 -19.5t-78 -56t-52 -87t-19.5 -111.5z" />
<glyph unicode="&#xa5;" d="M-803 1257q0 21 12 39q17 19 39 25q25 6 47 -4q23 -10 33 -35q10 -22 6 -47q0 -10 -1 -21.5t-3 -21.5q-2 -45 0 -88q2 -23 5 -43.5t10 -40.5q12 -43 32 -68q11 -16 20 -26.5t19 -20.5q11 -10 19 -17t12 -11q4 -3 6 -5t4 -2l2 -4l-4 2q-2 2 -3 4t-5 5q-16 8 -33 24 q-10 10 -21 20.5t-22 26.5q-10 15 -20 31t-17 37q-14 37 -20 86q-4 22 -4 44.5t2 45.5q0 12 1 23.5t1 21.5q0 18 -6 37q-8 12 -23 20q-18 4 -28 -2q-11 -2 -19 -14t-8 -18q-2 -7 2 -19q0 -6 8 -14q6 -6 13.5 -9.5t11.5 -5.5q4 -4 8 -4l2 -2q0 -2 -10 -6q-6 0 -15.5 1 t-19.5 5q-4 4 -10 7.5t-11 9.5q-12 12 -12 34zM-723 1413q4 12 14 14q13 5 29 -8q18 -14 27 -33q10 -22 6 -43q-2 -14 -10 -30q-2 -2 -2 -4t-3 -4l-2 -2v4q0 2 -1 4t-1 4q0 8 -8 24q-6 15 -16 25q-6 6 -19 14q-8 6 -12 15q-4 12 -2 20zM-649 1153q2 37 11 77t32 77 q10 18 24.5 35.5t30.5 33.5q4 4 9 7t10 8q4 4 9 7t9 7q12 8 20 12l9 6l12 4q20 11 43.5 19t46.5 12q25 4 49.5 4t48.5 -2q47 -4 93.5 -17t87.5 -32q22 -10 42.5 -20.5t41.5 -20.5q10 -4 19 -10t19 -12l37 -23l37 -22l19 -11q12 -6 18 -10q16 -10 33.5 -18.5t36.5 -16.5 q69 -30 142 -44.5t140 -12.5q70 2 131 18l9 2l8 2q8 5 14 7q6 0 14 4q5 2 8 3t7 3q8 4 14 6q4 2 6 2t6 4q11 4 27 12q49 25 88 58q10 10 19.5 17t17.5 18q10 8 17 16t16 16q16 19 27.5 36.5t21.5 33.5t18 32.5t15 32.5q12 31 18 56.5t10 46.5q6 20 11.5 33.5t15.5 17.5 q10 2 22 -4q13 -6 27 -27q12 -18 23.5 -51t11.5 -80t-12 -102q-17 -57 -50 -115q-34 -61 -90 -112q-28 -29 -61 -53.5t-74 -45.5l-37 -18q-12 -4 -18 -8l-19 -7q-8 -4 -20 -8q-4 -2 -10 -3t-11 -3q-4 -2 -10 -3t-10 -3l-10 -4l-10 -2q-87 -23 -179 -19q-92 2 -184 27 t-176 70q-21 12 -40.5 23t-39.5 26q-4 4 -9 7t-9 7l-19 12l-35 25l-34 27q-9 6 -17 11t-16 11q-17 10 -34 20.5t-34 20.5q-69 41 -137 53q-70 15 -131 -6l-8 -2l-9 -4q-8 -4 -14 -6q-4 -2 -7 -4t-7 -4q-4 -4 -6 -5t-6 -5q-13 -11 -24 -21t-22 -22q-20 -25 -31.5 -54.5 t-17.5 -58.5q-10 -62 6 -117q7 -26 18 -49t25 -43q29 -33 66 -57q29 -17 61 -25q23 -8 41 -8q5 0 7 -1t6 -1h4q-2 -2 -4 -2h-13q-16 -2 -43 0q-16 2 -32.5 5t-36.5 11q-21 10 -41.5 22.5t-38.5 32.5q-43 39 -68 99q-24 63 -22 139zM-649 1274v14q2 4 6 17q4 8 12 20 q4 6 6 11t7 12q2 4 4 10t2 10q6 21 2 41q-2 10 -3 17.5t-1 13.5q-4 12 2 14q6 4 16 -4q12 -12 14 -35q2 -12 1 -26.5t-7 -26.5q-6 -16 -14 -27q-6 -10 -16 -18q-19 -19 -25 -31q-4 -8 -4 -12v-4q-2 2 -2 4zM-561 1088.5q-2 11.5 0 27.5q4 33 22 62q21 26 50 41q22 8 45 4 q18 -6 14 -17q0 -12 -10 -18q-9 -6 -29 -14q-10 -5 -18.5 -10t-18.5 -13q-18 -16 -29 -41q-6 -10 -8 -21.5t-2 -19.5q-4 -18 -2 -18l-2 4q-4 4 -6 12q-4 10 -6 21.5zM-520 1018q-6 31 4 59q4 15 12 26t19 21q20 15 43 19q22 0 34 -6q15 -7 19 -15q4 -10 0 -16 q-2 -8 -8 -13.5t-13 -9.5q-8 -4 -14 -8q-4 -2 -7 -4t-7 -6q-4 -2 -13 -14q-6 -9 -6 -25q0 -8 1 -16.5t3 -18.5q4 -10 7.5 -18t7.5 -17q16 -30 41 -51l20 -16h-6q-4 2 -9 2t-14 4q-12 4 -29.5 12t-33.5 25q-16 16 -31 37q-6 10 -11 22.5t-9 26.5zM8 1378l4 -4q4 -2 17 -10 l12 -8t14 -8q8 -5 16.5 -10t18.5 -11q12 -8 21 -12q6 -2 11 -4t11 -6l25 -13q8 -4 14 -6t14 -6q13 -6 27 -11t31 -9q8 -5 16 -6t16 -5q5 0 17 -4q8 0 16 -4q70 -16 145.5 -14t147.5 24q35 11 69 26t62 32q60 37 101 82q40 43 65 85t37 74q12 33 14 51.5t6 18.5l5 -16 q0 -11 -1.5 -24t-5.5 -30q-4 -16 -11 -36.5t-19 -43.5q-25 -45 -72 -96q-43 -45 -107 -84q-63 -41 -137 -59q-76 -23 -153.5 -22t-147.5 20q-12 4 -16 4l-19 6q-8 4 -15 5t-15 5q-17 6 -31 11.5t-29 13.5q-10 4 -26 12l-25 12q-16 9 -22 13q-9 4 -21 12q-10 6 -18.5 11 t-16.5 12q-8 4 -14 8t-10 8q-9 8 -17 12z" />
<glyph unicode="&#xa6;" horiz-adv-x="493" d="M188 438h119v-950h-119v950zM188 596v940h119v-940h-119z" />
<glyph unicode="&#xa9;" d="M-567 -559q4 12 7 25.5t9 25.5q4 8 7 14.5t7 12.5q2 4 4.5 7t4.5 7l6 6q0 2 4 6q10 13 22.5 24t24.5 21q27 21 61 37q33 15 69 23t77 10q78 2 160 -22q41 -11 78.5 -27.5t74.5 -34.5q37 -20 73 -40.5t71 -41.5q34 -20 68 -38.5t69 -35.5q10 -4 18 -8t17 -8l34 -12 q11 -4 18 -6t17 -4q10 -5 17.5 -6t17.5 -5q72 -16 143.5 -18t137.5 8q65 10 124.5 30.5t110.5 49.5q25 14 47.5 27.5t44.5 29.5q4 4 9.5 7t11.5 8q4 4 9 8t9 8q6 4 11.5 7t9.5 7t8 8.5t8 8.5q37 30 65.5 60t53.5 56q22 27 40.5 47.5t35.5 36.5q32 31 51 25q20 -6 22 -49 q2 -19 -4 -51q-4 -17 -7 -33.5t-11 -34.5q-15 -39 -39.5 -83t-63.5 -91q-36 -47 -92 -92q-51 -45 -125 -84q-65 -37 -143 -61.5t-164 -32.5q-86 -11 -174 -1.5t-174 37.5q-10 5 -21.5 8t-21.5 7l-43 18q-10 4 -20.5 9.5t-20.5 9.5q-10 6 -19.5 11t-19.5 11 q-39 23 -73.5 47.5t-67.5 48.5q-35 25 -66 47.5t-63 45.5q-31 20 -62.5 37.5t-62.5 31.5q-33 15 -64.5 23t-64.5 10q-60 6 -119 -10q-16 -4 -28.5 -10.5t-24.5 -12.5q-25 -12 -43 -30l-4 -5l-4 -4q-7 -6 -9 -10q-6 -6 -14 -18q-14 -19 -20 -43q-15 -41 -15 -80q2 -19 6 -34 t9 -28q10 -24 19 -35.5t7 -11.5l-2 2q-6 0 -8 6q-14 11 -27 33q-8 12 -14 28.5t-10 37.5q-11 39 0 92zM-559 -47q4 4 10 8q4 2 7 4t7 4q3 2 5 3t4 3q8 5 16 7t18 4q11 4 34.5 5t33.5 1q35 0 57 -12q21 -17 31 -31q10 -17 14 -39q3 -10 3 -18.5v-14.5v-209q-48 -8 -97 -28 q-30 -15 -63 -37q-31 -25 -49 -49l-2 -3l-5 -4v-2v121v15v196q0 14 -2 23q0 16 -2 24l-6 19q-4 6 -14 10zM-530 -631q0 15 3 30t13 32q18 30 55 47q33 12 66 8q35 -4 57 -14q25 -11 40 -28t20 -32q12 -30 -7 -39q-10 -8 -32 4q-7 5 -12 7t-11 6t-13 7t-16 7q-16 8 -35.5 12 t-37.5 0q-21 -4 -33 -16q-14 -14 -21 -37q-4 -10 -4 -20.5v-20.5q0 -16 4 -37q2 -16 7 -24q2 -4 4 -9l-6 7l-9 8q-2 4 -4 6t-4 6q-10 19 -16 37q-8 22 -8 53zM-465 -502q0 2 2 2l8 8q13 9 29 17t43 12q23 4 41 0q16 -2 27 -12q8 -10 4 -21q-4 -10 -15 -14q-6 -2 -24 -2 q-15 4 -33 7t-37 5h-33q-4 -2 -10 -2h-2zM-297 -270q0 10 6 20q8 14 17 19q6 10 16 16q8 4 15 9t18 9q10 7 19 12t20 13q10 6 19 14t20 19q18 20 30 49q-8 -35 -14 -64.5t-16 -56.5q-21 -55 -43 -82q-29 -29 -58 -29q-31 -4 -37 19q15 4 30 15.5t30 23.5q14 14 23 26.5 t16 20.5q-4 -4 -12.5 -14.5t-20.5 -20.5q-31 -27 -70 -41q-8 8 -8 23zM-169 -327q-1 1 1 5q16 -4 33 7q10 4 16 7l10 5l-8 -4t-12 -4q-8 -4 -18.5 -6t-20.5 2q0 4 1 6t1 4q2 4 6 8q8 4 21 8q8 2 17 2t22 4q12 0 22 7q17 8 23 16q-4 -8 -9.5 -14.5t-9.5 -12.5t-8 -11t-8 -9 q-21 -25 -35 -29q-18 -8 -31 -2q-10 2 -12 6q0 4 -1 5z" />
<glyph unicode="&#xad;" horiz-adv-x="598" d="M41 469q32 23 48.5 55.5t29.5 67.5l438 -2q-32 -23 -48.5 -57t-29.5 -66z" />
<glyph unicode="&#xae;" d="M-2931 -743q-16 12 2 63q2 8 11 29q4 6 8 14l8 16q6 11 11 19t12 18q6 11 13 21t15 20q33 41 78 89t107 96q63 49 143 96t178 82q6 4 12 5t11 3l12 4l12 4q12 4 24.5 7t24.5 7q11 5 24 7t25 6q13 4 26 6l26 4q14 4 26.5 5t26.5 3q16 4 27 4q8 0 14 1t14 1q12 2 25.5 3 t27.5 1h58q114 0 229 -24q119 -25 223 -68q111 -41 212.5 -91t199.5 -99q98 -51 194.5 -95t192.5 -75q47 -14 93 -24.5t93 -16.5q23 -4 44.5 -4h44.5q10 0 21 1t22 1l43 6q20 4 39.5 9t35.5 14q4 2 5 2t6 2l8 4l18 6q8 4 16.5 9t16.5 9t15 9.5t14 11.5q8 4 14 10t12 10 q4 6 10.5 12.5t10.5 14.5q2 4 4 6t4 6q4 8 6 14q14 27 15 54.5t-7 50.5q-6 25 -16 44t-21 34q-10 16 -19 26.5t-15 18.5l-11 10q0 2 -2 4q2 0 4 -2l11 -10q8 -6 18 -15.5t23 -23.5q12 -14 26.5 -32.5t24.5 -45.5q4 -12 8 -27.5t4 -31.5q2 -8 1 -15.5t-1 -17.5 q-2 -10 -4 -17.5t-6 -17.5q0 -4 -2 -8l-4 -8q-4 -13 -8 -17q-11 -18 -21 -32q-6 -9 -13 -16t-16 -15l-7 -7l-7 -7q-12 -9 -16 -13q-11 -6 -18 -11t-17 -11q-12 -8 -19 -10q-8 -5 -10 -7q-8 -4 -10 -4q-21 -10 -42.5 -18t-43.5 -17q-27 -8 -45 -10q-12 -4 -24.5 -5t-24.5 -3 q-25 -4 -49.5 -5t-51.5 1q-51 0 -102 7t-105 20q-104 22 -208.5 60t-208 81t-207 85t-203.5 73q-100 32 -201 49q-51 8 -99 12t-95 0h-24.5t-22.5 -2q-13 0 -24 -1t-23 -3q-7 0 -12 -1t-11 -1q-6 -2 -11 -2t-11 -2q-11 -2 -23 -4t-22 -4q-11 -3 -22 -5t-21 -6q-11 -4 -22 -5 t-22 -5q-10 -4 -19 -6t-19 -6l-11 -4l-10 -2q-4 -4 -10 -5.5t-10 -3.5q-76 -28 -142.5 -61t-124.5 -68q-59 -34 -106 -69t-88 -64q-78 -59 -126 -93t-67 -21zM-2726 -676q-4 2 19 25q8 6 26 24q10 6 19.5 14.5t19.5 18.5q23 19 52.5 40.5t66.5 43.5q74 51 178 96 q49 21 104.5 38.5t114.5 29.5q62 10 125.5 16t128.5 4h17h16q10 -2 17 -2h18q8 0 15 -1t17 -3q9 0 16 -1t17 -1l33 -6q10 0 14 -2l17 -2q10 -2 17 -4t16 -4q8 -2 15 -3t17 -3q64 -17 123.5 -37.5t116.5 -42.5q55 -23 107.5 -45.5t101.5 -40.5q47 -19 90 -35t80 -31 q37 -12 65.5 -22.5t48.5 -16.5l31 -10q8 -2 12 -4q-4 2 -12 2l-31 10q-43 13 -116 37q-37 12 -80 28.5t-92 33.5q-47 18 -100.5 38.5t-110.5 42.5q-56 21 -115 40.5t-123 35.5q-8 2 -16 3t-17 3l-30 7l-17 2q-6 2 -16 2l-33 4q-8 2 -15 2t-16 2q-10 0 -17 1t-15 1h-17t-16 2 h-16h-17q-131 0 -248 -25q-59 -10 -113.5 -27.5t-103.5 -37.5q-47 -21 -88 -42.5t-76 -43.5q-10 -4 -18 -10.5t-16 -10.5q-11 -6 -18 -11t-13 -9q-17 -10 -30 -19.5t-25 -19.5q-25 -16 -44.5 -30.5t-31.5 -24.5q-17 -11 -21 -15zM-2048 -516q-6 8 20 29q7 4 16 9t19 11 q25 10 51 18q29 11 62 17t68 10q34 4 70 5t69 -1q63 -6 108 -16q11 -2 19 -4t14 -4q6 0 8 -2h2h-2h-8q-6 0 -14 1t-19 1q-22 2 -48.5 2t-59.5 -4q-66 -5 -133 -19q-33 -6 -64 -14t-57 -19q-25 -8 -46.5 -13t-37.5 -9q-33 -10 -37 2zM-1632 -565q6 20 22 33q8 8 15.5 13 t17.5 11q8 4 17.5 9t19.5 10q10 4 21.5 6t21.5 4q10 4 20.5 4t20.5 2q18 0 35.5 -2t27.5 -4q9 -2 21 -6l4 -2h2h-8q-4 0 -8 -1t-11 -1q-22 0 -59 -11q-10 -2 -18.5 -5t-16.5 -7q-16 -6 -35 -16q-8 -4 -15 -9.5t-13 -11.5q-9 -4 -15 -9t-10 -9q-16 -17 -22 -29q-2 -2 -7 -10 q-2 -2 -3 -4t-5 -4q-6 0 -10 2q-6 4 -10 16q-6 12 0 31zM-1112 -274q49 -2 92 -6.5t80 -10.5q39 -8 70.5 -17t54.5 -26q41 -28 51 -74q10 -43 -18 -53q-11 19 -28 38.5t-40 35.5q-20 16 -40.5 26.5t-33.5 16.5q9 -4 24 -13.5t34 -25.5q18 -16 36.5 -36.5t34.5 -49.5 q-12 -16 -30 -16q-15 -2 -31 4q-14 6 -29 16q-18 14 -24 23q-19 18 -33 41q-10 10 -20.5 23t-20.5 26q-12 12 -26.5 24.5t-30.5 22.5q-31 20 -72 31zM-815 -252q8 -4 14 -8t13 -8q6 -4 12 -8.5t12 -8.5q10 -8 17.5 -15t11.5 -15q10 -17 4 -33q0 -8 -6 -10q-6 -7 -8 -2 q0 18 -9 32q-4 9 -8 15t-8 10q2 -4 5 -8t7 -13q8 -20 6 -36q-8 0 -12 2q-4 0 -8 4q-4 8 -8 20q-4 6 -4 16.5t-4 20.5q-5 16 -9 25q-8 12 -18 20zM-748 -33q19 -10 42.5 -12t46 0t43 6t30.5 8h2q2 0 4 2h2h3q28 11 65 16t82 5q59 0 96 -2t62 -6q10 -2 17 -4.5t15 -4.5 q68 -24 86.5 -58t18.5 -58v-68q-4 4 -6 4q-4 4 -17 12q-16 11 -29.5 17t-15.5 6l4 -4q2 -2 7 -10l18 -25q4 -6 8 -11t8 -11q4 -5 4 -7q5 -2 6 -4t5 -6q0 -2 4 -6q2 -2 2 -4h2v-2v-66v-14v-100q0 -13 -6 -27q-47 25 -86 18.5t-49 -12.5q30 6 57 6q2 0 3 -1t3 -1h4h4h4h2 q2 0 4 -2h7q2 0 3 -1t3 -1h4q12 -4 20 -8q2 0 4 -2h5l2 -2q2 0 2 -2q8 -4 10 -6q4 -2 8 -6q0 -2 -1 -2t-1 -3q-4 -4 -10 -9t-15 -11q-6 -4 -13 -9t-13 -9h-2q-4 -5 -10.5 -8t-12.5 -7q-4 0 -8 -4q-4 0 -6 -2q-37 -6 -51 -12h-2h-4q-2 -2 -5 -2q-8 -2 -15 -4t-15 -4 q-25 -5 -54.5 -8t-64.5 -3h-96q-64 2 -92 17q-19 6 -31 12q-47 25 -61.5 53.5t-14.5 50.5v154v143q0 13 8 27q47 -25 86 -18.5t49 14.5q-30 -8 -57 -6h-6h-4h-4h-6q-2 2 -5 2h-8q0 2 -4 2h-4q-6 2 -11 4t-9 4q-4 0 -4 2h-5l-2 2l-2 2q-26 15 -36.5 37.5t-0.5 48.5z M-535 -129v-168v-164q0 -4 4.5 -14t16.5 -20.5t32.5 -18.5t53.5 -8q31 0 50.5 6t31.5 14q16 10 20 21.5t4 15.5v168v164q0 6 -4 17.5t-20 21.5q-10 10 -30.5 16t-51.5 6q-33 0 -53.5 -7t-32.5 -17t-16.5 -19.5t-4.5 -13.5z" />
<glyph unicode="&#xb0;" d="M-1739 -618q-4 34 4.5 60t18.5 40q8 12 22 20q8 6 21 2q10 -4 17 -12t16 -20q8 -13 17 -27t21 -29q7 -8 14 -15l15 -15q4 -4 8 -6.5t9 -6.5q4 -4 10 -6t10 -6q47 -27 115 -39q37 -6 79 -7t87 7q43 6 90 23q22 8 43.5 18t44.5 23q45 24 85 58t81 75q20 22 39.5 41.5 l40.5 40.5q4 6 10 11t10 9t9 10.5t11 10.5q11 10 23 19t23 20q24 18 48.5 33.5t53.5 25.5q27 12 53.5 17t54.5 5q29 0 51.5 -5t45.5 -15q39 -18 69 -45l13 -12q4 -4 6 -7.5t6 -7.5q2 -4 4 -6t4 -6q4 -4 8 -12q4 -4 9 -13q2 -4 3 -5t3 -5q2 -6 4 -11t4 -9q4 -13 6 -17 q0 -4 1 -7t1 -5q0 -4 1 -5t1 -3v-2l-6 8q-2 2 -2 4t-4 6q-2 4 -3 7t-5 8q-11 16 -29 35.5t-47 35.5q-15 8 -30 14.5t-34 10.5q-34 8 -75 2q-39 -6 -76 -31q-33 -18 -70 -59q-8 -11 -15 -20t-16 -19q-8 -8 -16 -21q-4 -6 -8 -11t-8 -11q-17 -23 -33 -46.5t-35 -47.5 q-18 -23 -36.5 -47.5t-41.5 -47.5q-22 -24 -45.5 -45.5t-50.5 -44.5q-29 -20 -56.5 -36.5t-58.5 -30.5q-61 -29 -121 -41q-61 -17 -122.5 -19t-116.5 9q-62 10 -114 36.5t-91 63.5q-18 16 -33 39q-14 20 -22 41q-10 20 -14.5 38.5t-8.5 37.5zM-1589 -535q2 3 30 -24 q13 -12 33.5 -26.5t48.5 -26.5q33 -13 66 -19q33 -8 76 -8q82 0 155 23q35 10 65 22t52 23q10 6 19.5 10t13.5 8l12 6q-4 -4 -10 -8q-10 -8 -33 -20q-20 -13 -50 -27t-65 -27q-36 -12 -77 -20t-82 -10q-35 -3 -80 4q-21 4 -37 9t-33 11q-35 17 -56.5 34t-33.5 34 q-10 14 -14 23t0 9zM-715 -477q4 20 13 33q12 10 22 4q-6 -6 -6 -17q-2 -4 -2 -9t-2 -11q0 -25 2 -33v10v17q2 4 2 9t2 11q2 4 4 10.5t4 10.5q8 0 12 -7q5 -4 5 -10q2 -4 2 -14v-6q-2 -2 -2 -6q0 -2 -1.5 -3t-1.5 -6q-2 -2 -2 -4t-2 -6q0 -2 -4 -10q0 -4 -4 -12q0 -9 -2 -15 v-14v-14q2 -4 2 -7.5t2 -7.5q-10 17 -17 30t-13 30q-9 24 -13 47zM-694 -164q16 4 32.5 4h32.5q15 -2 27 -4t22 -6q17 -10 23 -25q6 -16 -4 -20q-4 6 -12 12q-9 6 -17 10q-10 7 -17 9l-14 4q3 0 11 -4t14 -6q4 -5 16 -13q5 -4 8 -8t7 -8q-2 -8 -10 -8q-7 -4 -13 0q-4 2 -6 2 t-6 2l-4 4q-2 0 -6 4l-6 6q-2 2 -4.5 3t-4.5 3q-2 4 -4 5t-4 3q-6 7 -10 9q-2 4 -10 8l-13 6q-4 2 -7 3t-7 3t-14 2zM-643 -453q0 33 25 64q4 6 9 11l9 9l8 4h2l-2 -2q0 -2 -1 -4t-1 -4q-2 -6 -6 -22q-4 -15 -3 -30t-1 -28q0 -26 -19 -26q-20 -4 -20 28zM-573 -397.5 q2 18.5 14 35.5q18 18 37 26q18 8 47 8q22 -2 45 -12q10 -6 18.5 -12t16.5 -13q14 -14 23.5 -27.5t15.5 -23.5q8 -12 10 -16l2 -4v-2l-4 4l-14 14q-11 8 -22 17.5t-26 17.5q-34 16 -65 14q-17 -2 -28 -8t-17 -14q-6 -10 -9 -17.5t-8 -13.5q-2 -14 -12 -20q-6 0 -10 2t-12 14 q-4 12 -2 30.5zM-535 -108.5q0 8.5 3 18.5q4 20 12 39q14 16 33 31q18 12 57 12q10 0 33.5 -1t34.5 -5q18 -4 32 -11q8 -4 11 -6q4 -2 7 -4t7 -4q6 -4 10 -8q-10 -4 -14 -10l-6 -19q-2 -6 -2 -12t-2 -12v-23v-110v-15v-92l-5 6q-2 4 -8 10q-2 2 -2 5l-12 12l-2 2l-12 12 q-33 29 -72 47q-51 23 -103 23v100v14.5z" />
<glyph unicode="&#xb1;" horiz-adv-x="1017" d="M69 0v127h879v-127h-879zM69 623v127h373v389h133v-389h373v-127h-373v-363h-133v363h-373z" />
<glyph unicode="&#xb6;" horiz-adv-x="1146" d="M83 907q0 121 37 204t103.5 135t156.5 74.5t197 22.5h90v-880h-68q-110 0 -205.5 25.5t-164 80t-107.5 138.5t-39 200zM777 -164v1507h172v-1507h-172z" />
<glyph unicode="&#xbc;" horiz-adv-x="1599" d="M129 1176v86q68 12 112 31.5t85 49.5h108v-798h-131v631h-174zM369 -25l741 1393h115l-742 -1393h-114zM934 213v68l334 518h147v-492h119v-94h-119v-213h-119v213h-362zM1069 307h227v144l11 223h-9l-102 -166z" />
<glyph unicode="&#xbd;" horiz-adv-x="1654" d="M129 1176v86q68 12 112 31.5t85 49.5h108v-798h-131v631h-174zM328 -25l741 1393h115l-742 -1393h-114zM985 668q47 69 115.5 112t150.5 43q121 0 194 -65.5t73 -192.5q0 -57 -23 -110.5t-62.5 -107.5t-94 -111.5t-117.5 -122.5h338v-113h-549v76q92 84 163.5 150.5 t118.5 121.5t72 103.5t25 93.5q0 78 -41 123t-113 45q-51 0 -94 -34t-78 -83z" />
<glyph unicode="&#xbe;" horiz-adv-x="1630" d="M69 678l86 65q37 -55 89 -86.5t114 -31.5q65 0 112.5 37.5t47.5 105.5q0 70 -65 105.5t-183 35.5v84q104 0 160.5 41t56.5 103q0 59 -39 93t-105 34q-45 0 -87 -27t-76 -70l-78 70q51 59 113.5 95t146.5 36q51 0 98 -14.5t82 -42t55.5 -67.5t20.5 -91q0 -72 -39 -119 t-100 -76q67 -18 118.5 -68t51.5 -130q0 -55 -22.5 -99.5t-60.5 -76t-90.5 -48t-109.5 -16.5q-98 0 -174 45t-123 113zM446 -25l741 1393h113l-742 -1393h-112zM962 213v68l336 518h147v-492h119v-94h-119v-213h-119v213h-364zM1099 307h227v144l11 223h-8l-103 -166z" />
<glyph unicode="&#x2dc;" horiz-adv-x="1110" d="M270 1186q8 92 49 154.5t117 62.5q39 0 71.5 -16.5t60.5 -36t52.5 -36t48.5 -16.5q58 0 76 105h94q-8 -92 -49 -154.5t-117 -62.5q-38 0 -70 16.5t-59.5 35.5t-52 35.5t-51.5 16.5q-59 0 -74 -104h-96z" />
<glyph unicode="&#x3c0;" horiz-adv-x="532" d="M-72 -557q6 27 19 53q2 6 5 12.5t7 14.5q4 4 5 6t5 6l4 6q4 4 4 6q19 21 50 45q22 21 59 37q33 15 70 23t75 10q41 2 81 -4t81 -16q39 -13 77 -29t77 -35q37 -20 71.5 -39.5t69.5 -42.5q35 -20 70 -38.5t69 -35.5q9 -4 17 -8l16 -8l35 -12q10 -4 18.5 -6t16.5 -4 q10 -5 18 -6t17 -5q71 -16 143 -18t137 8q68 10 127.5 30.5t108.5 49.5q24 14 46.5 27.5t45.5 29.5q4 4 10 7.5t10 7.5t10.5 8t10.5 8t9 7t9 7t9.5 8.5t9.5 8.5q35 30 64.5 60t51.5 56q23 27 42.5 47.5t35.5 36.5q33 31 49 25q23 -6 25 -49q0 -10 -1 -22.5t-3 -28.5 q-6 -35 -21 -68q-14 -39 -38.5 -82t-61.5 -90q-20 -22 -42.5 -47t-49.5 -47q-29 -23 -59.5 -44.5t-65.5 -39.5q-66 -37 -143.5 -61.5t-163.5 -32.5q-176 -19 -350 37q-11 4 -22 7t-21 7q-11 4 -21 9t-20 9q-11 4 -21 9.5t-20 9.5q-11 6 -21 11t-20 11q-39 23 -73 47.5 t-69 49.5q-32 24 -64 46.5t-63 45.5q-32 20 -63 37.5t-64 31.5q-32 15 -64 23t-63 10q-63 6 -120 -10q-15 -4 -28 -9.5t-24 -13.5q-24 -12 -43 -30q-2 -2 -3 -2t-3 -3l-4 -4q-2 -4 -4 -5t-4 -5q-4 -4 -7 -9t-7 -9q-7 -11 -12 -22t-9 -21q-16 -43 -12 -80q0 -19 4 -34t8 -28 q10 -24 19.5 -35.5t7.5 -11.5l-2 2q-6 0 -8 6q-13 11 -27 33q-14 25 -25 66q-10 39 0 92zM-61 799l8 8q4 2 7 3t7 5q2 0 10 4q6 4 14.5 6t18.5 6q10 3 33.5 4t36.5 1q37 0 57 -13q19 -12 31 -30q10 -19 12 -37q2 -11 2 -19v-16v-1051q-47 -8 -96 -28q-31 -15 -64 -37 q-28 -25 -49 -49l-2 -2q-2 -3 -2 -5h-2v119v15v1040v22q0 11 -4 23q0 6 -2 10l-4 8q-6 11 -12 13zM-35 -629q0 15 3 30t14 32q18 30 55 47q31 12 67 8q33 -4 56 -14q24 -11 40.5 -28t20.5 -32q10 -30 -6 -39q-12 -8 -35 4q-6 5 -22 13q-6 4 -12.5 7t-16.5 7q-16 8 -35.5 12 t-36.5 0q-22 -4 -32 -16q-13 -10 -21 -37q-6 -18 -6 -41q0 -16 4 -37l10 -32l-6 6q-2 2 -3 4t-3 4q-4 4 -5 6t-5 6q-4 8 -8.5 17.5t-8.5 19.5q-4 12 -6 24.5t-2 28.5zM31 -500l2 2l8 9q4 4 12 8t19 8q18 8 41 12q24 4 41 0q20 -4 26 -12q10 -12 4 -21q-4 -12 -14 -14 q-8 -4 -25 0q-14 2 -32.5 5t-36.5 5h-31q-4 -2 -10 -2h-4zM205 799l2 2q2 2 4 3t4 3t5 3t7 5q2 0 11 4q6 4 14 6t18 6q11 3 34.5 4t35.5 1q37 0 57 -13q19 -12 31 -30q4 -11 8 -19t4 -18q2 -11 2 -19v-16v-1073q0 -6 2 -8q-12 4 -24 7t-23 7q-80 22 -149 22h-17h-4v1047v22 q0 11 -4 23q0 12 -6 18q-6 11 -12 13zM483 -307q6 14 19 26q12 13 26 19q9 4 16 7t15 7q19 8 51 15q15 4 30 7t32 9q16 6 32.5 13t32.5 18q17 10 31 23t29 30q-23 -43 -44.5 -81t-43.5 -71q-45 -65 -91 -92q-22 -14 -45.5 -18t-42.5 0q-45 6 -41 39q43 4 95 30 q22 13 40.5 26t28.5 24q-8 -5 -21.5 -15t-35.5 -20q-23 -11 -50.5 -19t-60.5 -12q-6 18 -2 35zM592 -426q0 6 2 8q6 -4 15 -4h20q16 4 26 8q-8 -4 -22 -4q-19 -4 -37 6q0 4 6 11l6 6q6 2 23 2q8 0 17 -2t22 -4q16 0 24 2q15 0 25 8q-8 -8 -25 -21q-6 -4 -11 -8t-11 -8 q-25 -14 -39 -16q-21 -4 -33 6q-4 2 -8 10z" />
<glyph unicode="&#x1000;" horiz-adv-x="1225" d="M-33 760q0 18 6 39q35 -21 74 -21q54 0 111 23l10 4q72 29 170 29q47 0 81 -1t59 -4t43.5 -7.5t33.5 -12.5l37 -18l24 10v2q95 33 189 33q42 0 87 -6t86 -18t75 -31t53 -46q29 -31 29 -84v-538q0 -15 -2 -34.5t-12 -37t-31.5 -29.5t-59.5 -12q-54 0 -65 3t-20 5t-15 6 q-13 7 -20.5 10.5t-10.5 6.5l-4 4q8 5 14 12l11 41v559q0 30 -15 43q-41 47 -104 47q-37 0 -72 -18q-53 -35 -53 -86q0 -58 63 -88q-9 -13 -23.5 -22t-31 -14.5t-34 -8t-32.5 -2.5q-67 0 -108 30q41 -41 113 -41q11 0 24 1.5t29 3.5v-379q0 -16 0.5 -26t1.5 -15q2 -2 2 -7.5 t4 -11.5q0 -8 14 -16l-4 -4q-2 -2 -9 -5.5t-19 -11.5q-13 -8 -35.5 -12t-67.5 -4q-60 0 -88 43q-14 34 -14 70v540q0 9 -8 33q-27 57 -115 57q-66 0 -98 -36q-23 -23 -23 -45v-344t2 -128q5 -30 22 -55.5t46 -25.5h8q55 18 55 81q0 17 -6 33v2q-6 17 -12 21q60 -13 83 -42.5 t23 -64.5l-2 -16q-8 -40 -26.5 -64.5t-45 -37.5t-58 -17t-66.5 -4q-51 0 -95 13.5t-76.5 41t-50.5 68t-18 94.5v408q0 21 8 37q45 -27 82 -27q52 0 74 20q-35 -8 -55 -8h-27l-2 2h-10q-4 4 -10.5 2.5t-6.5 3.5h-4l-26 13q-5 3 -7 3.5t-2 2.5h-2q-45 35 -45 86z" />
<glyph unicode="&#x1001;" horiz-adv-x="764" d="M-27 770q0 17 7 37q26 -21 69 -21q46 0 107 21q59 24 180 27q47 0 81 -1t59.5 -4t43.5 -8t33 -12q121 -59 121 -168v-432q0 -14 -6 -37q-46 29 -84 29q-49 0 -72 -23q35 8 57 8h25q0 -2 2 -2h8l4 -2h8q0 -2 3.5 -3t5.5 -1q10 -1 22 -10l10 -4q0 -2 5 -2q47 -39 47 -92 q0 -19 -4 -35q-32 22 -74 22q-26 0 -53 -6t-56 -16l-6 -2v-2q-6 0 -6 -1t-2 -1q-72 -29 -172 -29q-47 0 -81 1t-59 4t-43.5 8t-33.5 12q-38 19 -62.5 39.5t-34.5 46.5t-16 45.5t-6 36.5v120q0 50 17 89.5t47 66.5t71 41t90 14l33 2q154 0 178 -125l2 -16q0 -39 -24 -66 t-83 -38q4 2 10.5 16.5t6.5 38.5q0 63 -55 82h-4q-16 0 -28.5 -7.5t-21 -19t-13.5 -26t-7 -29.5l-2 -8q-2 -7 -2 -43.5v-104.5q0 -9 8 -30q23 -60 113 -60q68 0 102 37q21 23 21 45v481q0 11 -8 37q-19 64 -115 64q-19 0 -36 -3.5t-32 -13.5l-16 -10q-37 -22 -37 -65 q0 -8 8 -27q16 -28 56 -45q-20 -20 -41 -27q-37 -10 -86 -10q-64 0 -103 23.5t-47 62.5l-2 4v23q0 14 2 19t4 9q-33 33 -33 76z" />
<glyph unicode="&#x1002;" horiz-adv-x="764" d="M-35 764q0 18 4 35q35 -21 74 -21q54 0 111 23h2v2l8 2q78 29 170 29q47 0 81 -1t59.5 -4t43.5 -7.5t33 -12.5q121 -61 121 -168v-541q0 -23 4 -34l6 -19q1 -4 14 -10l-10 -8q-21 -11 -34.5 -17t-26 -8.5t-27 -3t-37.5 -0.5q-84 0 -102 80q-1 10 -1.5 152.5t-0.5 420.5 q0 13 -8 33q-22 57 -115 57q-66 0 -98 -36q-23 -23 -23 -45v-447q0 -13 4 -25q4 -30 21.5 -55.5t48.5 -25.5h4q55 18 55 81q0 4 -1 13t-3 18t-5.5 16.5t-8.5 8.5q108 -22 108 -105l-2 -18q-18 -94 -117 -117q-43 -6 -81 -6q-113 0 -181 63q-57 62 -57 154v408q0 18 6 37 q44 -29 80 -29q54 0 76 22q-35 -8 -56 -8h-24l-4 2h-8q-2 2 -7.5 2t-5.5 2h-4l-2 2h-4l-22 11v2q-7 0 -9 2.5t-2 3.5q-47 38 -47 90z" />
<glyph unicode="&#x1003;" horiz-adv-x="1225" d="M-45 688q0 39 27 76q-25 16 -25 43q0 20 12 41q16 -19 27.5 -25t36.5 -6l26 2q19 3 29 5t16 5q16 0 33 7q11 1 26.5 1.5t35.5 0.5q58 0 106 -17.5t78 -56.5q23 -21 32 -53.5t9 -63.5q0 -49 -25 -94t-63 -74q-25 -20 -46 -43t-40 -49q-17 -20 -23 -41l-2 -8q-24 6 -51 6 q-8 0 -20 -0.5t-27 -3.5t-31.5 -10t-34.5 -19q5 0 8 1t9 7h2q3 0 8 5q11 0 19 4t18 4h14q2 2 8 2q37 0 73.5 -7.5t60.5 -39.5q-26 -13 -46 -36t-20 -54q0 -47 55 -84q37 -19 72 -19q36 0 70 19q22 12 35.5 31.5t13.5 58.5v518q0 16 -2 22q0 15 -8 41q-8 12 -15 13l2 2 q2 2 7.5 5.5t12.5 7.5t14.5 7t13.5 4q4 1 9 2t10 3q6 2 15 3t19 1.5t18.5 1t13.5 0.5q105 0 105 -115v-516q0 -21 2 -26t2 -7q12 -33 49 -57q34 -19 72 -19q19 0 40 6t38.5 17.5t29 28t11.5 38.5v559l-11 41q-7 12 -14 13l10 8q18 8 27.5 12t14.5 6t8.5 3t7.5 3 q12 2 28.5 3.5t38.5 1.5q41 0 57 -13q20 -12 32 -28.5t14 -38.5q1 -10 1.5 -152.5t0.5 -421.5q0 -49 -27 -84t-78 -57q-102 -41 -219 -41q-99 0 -195 31l-32 16q-92 -47 -234 -47q-99 0 -192 31l-11 6q-38 21 -68 41t-50 43q-29 34 -29 84q0 70 6 131q13 106 98 162 q4 0 48 32q11 10 24.5 20.5t30.5 18.5q15 7 26 23q42 42 46 82q0 22 -11 39q-14 26 -36.5 41.5t-59.5 15.5q-6 0 -11.5 -0.5t-10.5 -1.5q-30 0 -62 -33q-8 -14 -8 -26q0 -16 7 -27t18.5 -18.5t26 -12.5t28.5 -10q-4 -13 -15 -22t-24.5 -14.5t-28 -8t-26.5 -2.5 q-29 0 -50 8.5t-34.5 22t-20 30.5t-6.5 35z" />
<glyph unicode="&#x1004;" horiz-adv-x="764" d="M-33 764q0 18 4 35q35 -21 74 -21q54 0 111 23h2v2l8 2q78 29 170 29q47 0 81 -1t59.5 -3.5t43.5 -7.5t33 -13q7 -1 20 -8q57 -35 76 -72q25 -32 25 -65q0 -22 -8 -43l-2 -5q-37 -63 -142 -63q-47 0 -88 10q-21 7 -41 27q27 9 46.5 25t19.5 47q-1 10 -7.5 24t-20.5 26.5 t-37 21.5t-58 9q-66 0 -98 -36q-23 -23 -23 -45v-482q0 -12 8 -35q23 -65 113 -65q15 0 33 4t35 12.5t30.5 20t20.5 26.5v4q4 12 4 25q0 14 -6 25.5t-15.5 20.5t-21.5 15.5t-23 10.5q21 19 41 26q47 11 88 11q53 0 89 -15.5t53 -48.5l2 -4q5 -9 6.5 -20.5t1.5 -22.5 q0 -23 -14 -44.5t-34.5 -39.5t-44 -31t-42.5 -20q-15 -5 -19 -8q-88 -27 -155 -27q-62 0 -104 1.5t-65 3.5q-24 2 -50 10t-50 21.5t-43.5 32t-30.5 41.5t-16.5 43.5t-5.5 39.5v432q0 18 6 37q44 -29 80 -29q54 0 76 22q-35 -8 -56 -8h-26l-2 2h-8q-2 2 -7.5 2t-5.5 2h-4 l-2 2h-4l-22 11v2q-7 0 -9 2l-4 4q-21 21 -33 42.5t-12 47.5z" />
<glyph unicode="&#x1005;" horiz-adv-x="764" d="M0 193v176q0 94 63 155h3q47 -80 120 -116l-6 4q-4 0 -6 4t-4 4v2l-8 6l-41 41q-2 7 -12 14q0 4 -3.5 3.5t-3.5 7.5q-14 14 -23 34q-4 9 -6.5 13.5t-3.5 6t-1.5 2l-1.5 1.5q-25 50 -25 100q0 10 2 24.5t6 34.5q7 40 78 82t209 42q47 0 81 -1t59.5 -4t43.5 -7.5t33 -12.5 q121 -61 121 -168v-432q0 -19 -6 -37q-39 27 -80 27q-47 0 -76 -21q35 8 76 8q4 0 4 -2h12q2 -2 6 -3t6 -1h7q0 -2 2 -2q10 -1 22 -10h2l2 -2h4q0 -1 4 -4l3 -2q25 -17 36 -40.5t11 -49.5q0 -19 -4 -35q-32 22 -74 22q-55 0 -109 -22q-4 -4 -7 -4t-3 -2h-4q-66 -29 -172 -29 q-47 0 -81 1t-59 3t-43.5 7t-33.5 12q-119 59 -119 170zM168 573q27 9 63 9q70 0 88 -7q99 -23 117 -116l2 -19q0 -84 -107 -102q4 2 10.5 17t6.5 38q0 67 -55 80h-10q-37 0 -54 -47q49 -64 146 -117q-88 25 -158 76q-2 -10 -2 -31v-174q0 -9 8 -30q23 -60 113 -60 q68 0 102 37q21 23 21 45v481q0 8 -4 23t-17 30t-37.5 26t-64.5 11q-41 0 -72.5 -12.5t-52.5 -33.5t-32 -49.5t-11 -61.5v-13z" />
<glyph unicode="&#x1006;" horiz-adv-x="1225" d="M-27 772q0 8 1.5 16.5t3.5 18.5q26 -21 71 -21q46 0 107 21q74 27 180 27q47 0 81 -1t59 -3.5t43.5 -7.5t33.5 -13l16 -6q-33 -10 -69 -10q-39 0 -64 16l-16 12q-12 -34 -12 -59q0 -18 4 -29q-25 21 -68 21q-46 0 -78 -17l-14 -10q-19 -14 -29 -29.5t-10 -35.5q0 -5 2 -7 q0 -12 6 -22.5t15.5 -19t21 -14.5t21.5 -9q-37 -37 -115 -37h-14q-105 0 -140 63q-12 17 -12 48q0 4 2 10v8l4 12q-31 34 -31 78zM-2 193v120q0 46 14 82q4 4 5 10.5t6 10.5q13 27 35.5 47.5t50 34t58 20t58.5 6.5l29 2q156 0 180 -125l2 -16q0 -39 -25 -67.5t-82 -36.5 q5 2 8.5 8.5t5.5 14.5t3.5 16t1.5 12q0 16 -8 37q-10 37 -49 49h-4q-16 0 -28.5 -7.5t-21 -19t-13.5 -26t-7 -29.5l-2 -8q-2 -7 -2 -43.5v-104.5q0 -11 10 -30q26 -60 113 -60q53 0 78 19q43 34 43 63v453q0 15 8 37h2q4 -8 8.5 -8t7.5 -3h2v-2q4 0 10 -1.5t12 -4t11 -4.5 l4 -2l35 -2h6q2 2 15 2v2h8l2 2h4l4 2q6 0 10 4h2v2h4v2l9 4h-5q-4 -4 -8 -3.5t-10 -2.5h-12v-2h-47l-2 2h-11q-2 2 -6 2t-4 2h-4l-2 2h-4l-27 13v2q-8 0 -8 4h-2q-45 35 -45 88q0 20 4 37v-2l6 -2q0 -2 4 -2v-2h4q0 -4 8.5 -5.5t10.5 -1.5q0 -2 3 -2t3 -2q12 0 14 -2h27 q32 0 70 13h6v2q14 2 20 4t10 4h2v2l9 2q70 29 170 29q47 0 81 -1t59 -4t43.5 -8t33.5 -12q121 -61 121 -168v-432q0 -19 -9 -37q-45 27 -82 27q-53 0 -73 -21q30 8 57 8h29q0 -2 2 -2h6l4 -2h8q0 -2 3 -3t5 -1q11 -1 23 -10l10 -4q0 -2 4 -2q47 -39 47 -92q0 -19 -4 -35 q-31 22 -73 22q-55 0 -109 -22q-4 -4 -6.5 -3.5t-7.5 -2.5q-33 -19 -77 -24t-95 -5q-48 0 -82 0.5t-59 3t-43 7.5t-33 14l-33 16l-31 -10h-4l-4 -2q-33 -17 -76 -23t-94 -6q-47 0 -81 1t-59 4t-43.5 8t-33.5 12q-74 36 -101 84q-20 52 -20 84zM674 180q0 -13 8 -33 q23 -57 113 -57q38 0 62 11.5t37.5 26.5t18.5 28t5 16v481q0 8 -5 23t-18.5 30t-37.5 26t-62 11q-68 0 -101 -36q-20 -26 -20 -45v-482z" />
<glyph unicode="&#x1007;" horiz-adv-x="766" d="M-33 760q0 18 6 39q33 -21 72 -21q6 0 19 1t28.5 3.5t32.5 7t31 11.5l8 4h4q72 29 170 29q47 0 81 -1t59 -3.5t43.5 -7t33.5 -11.5q121 -58 121 -170v-154q0 -65 -14 -104q-5 -6 -6 -12t-5 -11q-39 -64 -108 -90q0 -2 -4 -2q-15 86 -60 140q47 -77 47 -170q5 -91 33 -111 q17 -21 37 -21l10 3q53 17 53 84q0 16 -5 32.5t-13 20.5q55 -7 84 -41q25 -25 25 -72q-26 -131 -177 -131q-44 0 -71 12t-41.5 34t-19.5 52.5t-5 67.5l2 37v47l-41 2q-135 4 -157 121l-2 16q0 86 106 105q-10 9 -21 16t-22 12q108 -31 154 -86q4 12 4 25v190q0 9 -8 33 q-10 29 -39 43t-74 14q-86 0 -113 -55q-10 -22 -10 -26v-482q0 -48 55 -76q68 -32 68 -104q-47 0 -81 1t-59 4t-43.5 8t-33.5 12q-121 59 -121 168v432q0 21 8 37q38 -25 82 -25q23 0 44.5 6t29.5 12q-34 -8 -78 -8q-2 2 -6.5 0.5t-9.5 3.5h-9q-2 2 -6.5 3t-3.5 1 q-7 2 -13 4.5t-11 6.5l-9 4q0 2 -4 2v2h-2q-45 35 -45 86zM328 442q0 -62 53 -82l10 -2q18 0 35 17l-16 41q-18 46 -66 80q-4 -1 -6 -9q-10 -19 -10 -45z" />
<glyph unicode="&#x1008;" horiz-adv-x="1090" d="M0 193v176q0 94 63 155h3q47 -80 120 -116l-6 4q-4 0 -6 4t-4 4v2l-8 6l-41 41q-2 7 -12 14q0 4 -3.5 3.5t-3.5 7.5q-14 14 -23 34q-4 9 -6.5 13.5t-3.5 6t-1.5 2l-1.5 1.5q-25 50 -25 100q0 10 2 24.5t6 34.5q7 40 78 82t209 42q47 0 81 -1t59.5 -4t43.5 -7.5t33 -12.5 q121 -61 121 -168v-432q0 -19 -6 -37q-39 27 -80 27q-47 0 -76 -21q35 8 76 8q4 0 4 -2h12q2 -2 6 -3t6 -1h7q0 -2 2 -2q10 -1 22 -10h2l2 -2h4q0 -1 4 -4l3 -2q25 -17 36 -40.5t11 -49.5q0 -19 -4 -35q-32 22 -74 22q-55 0 -109 -22q-4 -4 -7 -4t-3 -2h-4q-66 -29 -172 -29 q-47 0 -81 1t-59 3t-43.5 7t-33.5 12q-119 59 -119 170zM168 573q27 9 63 9q70 0 88 -7q99 -23 117 -116l2 -19q0 -84 -107 -102q4 2 10.5 17t6.5 38q0 67 -55 80h-10q-37 0 -54 -47q49 -64 146 -117q-88 25 -158 76q-2 -10 -2 -31v-174q0 -9 8 -30q23 -60 113 -60 q68 0 102 37q21 23 21 45v481q0 8 -4 23t-17 30t-37.5 26t-64.5 11q-41 0 -72.5 -12.5t-52.5 -33.5t-32 -49.5t-11 -61.5v-13zM354 -367q0 248 2 258q1 5 1.5 8.5t0.5 6.5q0 44 43 69q5 0 17.5 6.5t40.5 6.5q23 0 40 -1t29 -3q16 -6 25 -9t11 -5q1 -1 2 -3t8 -4q6 -2 13 -6 t7 -8q-8 0 -12 -10q-11 -5 -11 -60v-262q0 -19 7 -33q18 -51 53 -65q19 -11 37 -11q13 0 25 6t24 17q41 35 41 86v1102q0 115 104 115q10 0 23.5 -0.5t27.5 -2.5t27 -5t22 -8q10 -5 14 -8t19 -11l2 -2q-7 -1 -14 -13q-10 -29 -10 -63v-1090q0 -131 -121 -192 q-25 -15 -80 -23q-16 -2 -47.5 -3t-79.5 -1l-35 -2q-32 0 -55 6q-6 0 -8 2q-43 7 -72 21q-4 4 -10 6t-8 6l-4 2h-2v2l-15 8v2q-2 0 -6 4.5t-6 4.5v2h-2l-21 22q0 2 -4 3.5t-6 6.5t-4 11t-8 12v2h-2l-8 25h-2q0 6 -2 6v2q0 4 -3 4v8q-2 0 -2 4t-2 6v11q-2 2 -2 18z" />
<glyph unicode="&#x1009;" horiz-adv-x="764" d="M-35 74q0 23 8.5 42.5t28.5 35.5l10 8q2 2 4 2l4 4q3 0 3 2l36 14q9 0 11 2h6q0 2 11 2h19q74 0 113 -43q11 -21 33 -37l16 -10q31 -16 68 -16q45 0 79.5 21t41.5 69q2 2 2 6v486q0 23 -21 45q-34 36 -102 36q-107 0 -121 -81q0 -33 17 -47t47 -25q-20 -20 -41 -27 q-37 -10 -86 -10q-64 0 -103 23.5t-47 62.5l-2 4v23q0 13 7.5 30t18.5 33.5t23.5 31t22.5 21.5q63 40 125 47q23 2 57 3.5t82 1.5q100 0 172 -29l8 -2v-2h2q29 -13 84 -21l29 -2q40 0 74 21q4 -17 4 -35q0 -52 -47 -90h-3v-2l-12 -6q-11 -10 -22 -11h-2q-2 -2 -8.5 -2 t-10.5 -4q-10 0 -12 -2h-23q-22 0 -57 8q7 -7 21 -12.5t36 -7.5l19 -2q36 0 80 29q6 -19 6 -37v-455q-2 -2 -2 -6v-4l-2 -2q0 -11 -2 -13v-6l-2 -2q-3 -3 -7.5 -13.5t-9.5 -23.5v-2q-2 -2 -5 -4t-9 -10l-6 -8l-19 -17l-13.5 -10.5t-7.5 -5.5l-4.5 -3l-4.5 -3q-7 -4 -11 -6 t-16 -6q-2 -2 -6 -2q-8 -5 -17.5 -8t-19.5 -5q-11 -4 -23 -4h-6l-2 -2h-18q-6 -2 -37 -2q-10 -2 -39 -2q-42 0 -64.5 0.5t-27.5 1.5q-31 0 -78 12v-389q0 -6 2.5 -15.5t7.5 -23.5q26 -75 107 -75h6q47 0 98 59q39 37 39 78q0 33 -23 60.5t-51 41.5q-1 0 -2 0.5t-5.5 2 t-14 4.5t-29.5 7q5 16 19 28.5t33.5 20t43.5 11.5t48 4q37 0 69 -9.5t56 -28.5t39 -48.5t16 -69.5q0 -96 -66 -153q35 -17 35 -54q0 -24 -25 -49q-31 31 -94 31q-20 0 -41 -2.5t-43 -7.5q-13 -3 -30 -5t-32 -4.5t-25.5 -4.5t-12.5 -3h-12q-45 0 -77 1.5t-52 3.5 q-25 4 -44.5 9.5t-35.5 12.5q-119 71 -119 195v393l2 2h4q27 8 57 8q48 0 103 -16l-10 4q-11 6 -23 8t-22 6q-35 8 -70 8q-21 0 -41 -6h-5t-3 -1.5t-6.5 -4t-14.5 -8.5q-6 20 -6 39z" />
<glyph unicode="&#x100a;" horiz-adv-x="1225" d="M0 172q0 8 1 15.5t3 9.5q6 34 42.5 60t105.5 26q36 0 68.5 -5.5t60.5 -31.5q-64 -22 -64 -78q0 -34 37 -59l16 -11q28 -16 68 -16q88 0 113 61v-6q24 -49 73 -80q-26 20 -44.5 49.5t-18.5 63.5q0 19 2 23q1 8 8 22q32 47 94 59q24 7 53 7q4 -2 7 -2q31 0 61 -7t53 -30 q-63 -21 -63 -72q13 -82 121 -82q85 0 112 55q11 22 11 27v571q-2 11 -4.5 22t-6.5 21q-1 3 -14 11q8 6 16.5 11t18.5 9q12 9 22 10h2q2 2 10.5 4t26.5 2h39q105 0 105 -114v-510q0 -20 -7 -37q-46 29 -84 29q-48 0 -71 -23q35 8 57 8h23l4 -2h8q2 -2 6 -3t6 -1h6q0 -2 2 -2 q11 -1 23 -10h2l2 -2h4l4 -4l2 -2q21 -21 34 -42.5t13 -47.5q0 -19 -4 -35q-31 22 -73 22q-27 0 -54.5 -4t-54.5 -18l-8 -4q-4 0 -4 -1t-2 -1q-41 -19 -84 -23t-88 -4q-48 0 -82 0.5t-59 2.5t-43 6.5t-33 13.5l-17 8q-4 -4 -8 -4q-15 -9 -33.5 -14t-43.5 -7.5t-59 -3 t-81 -0.5l-53 2l-45 4l-23 4v-389q0 -5 2.5 -14t7.5 -23q26 -78 107 -78h366q57 0 103 17q131 33 131 123q0 37 -22.5 60t-51.5 40q-4 2 -16.5 5.5t-34.5 8.5q14 33 54.5 48.5t90.5 15.5q36 0 68.5 -9.5t57.5 -29t40 -48.5t15 -69q0 -96 -66 -153q35 -17 35 -52 q0 -27 -25 -53q-31 33 -80 33h-14q-43 0 -84 -10l-82 -15h-12q-6 -1 -139.5 -1.5t-397.5 -0.5q-98 0 -149 27q-121 67 -121 195v532zM0 666q0 11 4 18q7 32 27 58t47 45t59 30t62 14q23 2 57 3.5t82 1.5q100 0 172 -29h2v-2h6l2 -2q29 -12 84 -21l29 -2q39 0 72 21 q6 -19 6 -37q0 -53 -47 -88h-2v-2l-11 -4l-12 -8l-14 -5q-2 -2 -8.5 -2t-10.5 -4q-10 0 -12 -2h-25q-22 0 -57 8q14 -14 59 -20h15q37 0 82 27q8 -16 8 -37v-338h-6q-14 2 -33 3t-45 1q-43 0 -90 -27q-27 -19 -41 -43v441q0 5 -8 26q-28 55 -115 55q-79 0 -107 -49 q-14 -20 -14 -39q0 -43 64 -65q-20 -20 -41 -27q-37 -10 -88 -10q-69 0 -101 25q-40 24 -47 61q-2 2 -2 14q-2 6 -2 11z" />
<glyph unicode="&#x100b;" horiz-adv-x="764" d="M-35 764q0 18 4 35q33 -21 72 -21q7 0 20 1t29 4t32.5 7.5t31.5 10.5h2v2q6 0 6 1t2 1q66 29 172 29q47 0 81 -1.5t59 -4.5t42.5 -7.5t31.5 -10.5q14 -7 27 -14t25 -15q11 -7 23 -21.5t22.5 -31t17.5 -33.5t7 -31q0 -58 -49 -86q-34 -25 -103 -25q-36 0 -68 5t-59 32 q30 11 47 25t17 47q-1 10 -7.5 24t-20.5 26.5t-36.5 21.5t-56.5 9q-68 0 -100 -36q-23 -23 -23 -45v-482q0 -8 2 -10q1 -13 14 -35q27 -55 107 -55q37 0 68 16q3 3 6.5 3.5t9.5 6.5q22 16 33 37q39 43 114 43h23l4 -2h8q2 -2 14 -2l31 -14l6 -4q25 -17 40.5 -38.5 t15.5 -53.5q0 -58 -39 -82q-26 -20 -66 -33t-83.5 -21.5t-87 -12t-77.5 -3.5l-75 2q-61 6 -63 7q-3 1 -15 1q-11 0 -19 -8.5t-8 -19.5q0 -18 33 -33q56 -25 117 -25q20 0 36.5 1t28.5 3q44 8 66 56q45 0 84.5 -16.5t68.5 -45.5t45.5 -68.5t16.5 -84.5q0 -74 8 -101 q2 -24 16.5 -43.5t32.5 -19.5q14 0 29.5 10.5t15.5 26.5q8 -18 8 -41v-14t-3 -20.5t-11.5 -25t-26.5 -26.5q-37 -17 -73 -17q-61 0 -117 35q-94 55 -94 180v91l-4 47q0 36 -9 36l-4 -2q-10 -1 -18 -2t-13 -2q-6 -1 -19.5 -1.5t-33.5 -0.5q-51 0 -88.5 1.5t-62.5 6.5 q-14 2 -26.5 3.5t-24.5 1.5q-72 0 -107 -15q-22 10 -22 23q0 16 30 24q-14 8 -25.5 16t-19.5 15q-12 19 -12 39q0 29 27 43q11 10 24 12q42 17 111 17q76 0 121 -15l53 -2q87 0 131 23h2q16 7 31 20q0 6 6 13v2h-2q-4 0 -6 -1t-15 -6q-2 -2 -6 -2.5t-10 -3.5 q-66 -12 -86 -12q-10 -2 -80 -2q-20 0 -33 0.5t-18 1.5q-33 0 -35 2q-20 0 -22 2q-15 0 -32.5 4t-33.5 13q-4 0 -6 2q-18 6 -21 7.5t-8 6.5q-15 8 -35 27l-10 10l-16 18q-12 16 -16 28t-7 15v2q0 4 -3 8.5t-3 16.5v6l-2 4v451q0 18 6 37q44 -29 80 -29q54 0 76 22 q-35 -8 -56 -8h-24q-2 2 -12 2q-4 4 -10.5 2.5t-6.5 3.5q-13 0 -26 11q-3 0 -5.5 3t-7.5 3v2q-47 38 -47 90z" />
<glyph unicode="&#x100c;" horiz-adv-x="764" d="M-31 764q0 18 4 35q35 -21 74 -21q54 0 111 23l10 4q74 29 170 29q47 0 81 -1t59.5 -3.5t43.5 -7.5t33 -13q7 -1 20 -8q57 -35 76 -72q25 -32 25 -65q0 -22 -8 -43l-2 -5q-37 -63 -142 -63q-47 0 -88 10q-21 7 -41 27q65 23 66 61q0 19 -15 43q-30 49 -108 49 q-66 0 -98 -36q-23 -23 -23 -45v-482q0 -19 14 -45q27 -55 107 -55q14 0 32.5 4t35.5 12.5t31 20t18 26.5h2q39 43 112 43h29q0 -2 2 -2h6l4 -2h8q0 -2 3.5 -3t5.5 -1q10 -1 22 -10l10 -4q0 -2 2.5 -2t8.5 -6q0 -4 4 -4q37 -33 37 -80q0 -21 -4 -37l-23 12l-8 2 q-10 2 -20.5 4t-22.5 2q-31 0 -68 -8q-10 -4 -22.5 -6t-22.5 -8h-2v-2q54 14 94 14q31 0 58 -8h4l2 -2v-393q0 -46 -15 -83.5t-42 -65.5t-63.5 -45.5t-80.5 -22.5q-20 -2 -54.5 -3.5t-82.5 -1.5q-4 0 -4 2l-58 7l-43 8q-25 5 -49 7.5t-47 2.5q-47 -1 -80 -31q-24 22 -24 45 q0 41 33 58q-30 29 -50 67q-16 42 -16 86q6 78 55 117t127 39q49 0 89.5 -14.5t54.5 -49.5q-23 -5 -35.5 -8.5t-16.5 -5.5q-20 -11 -35 -24.5t-24 -30.5q-14 -23 -14 -47q0 -41 37 -78l12 -10q20 -16 41.5 -32.5t50.5 -16.5q38 0 61.5 14.5t36.5 34t17 38t4 27.5v389 q-45 -12 -78 -12q-10 -2 -80 -2q-20 0 -33 0.5t-20 1.5q-29 0 -35 2q-18 0 -20 2q-17 0 -22 2t-7 2q-25 6 -45 15q-5 0 -11.5 4t-9.5 7q-2 1 -13 6t-26 21l-4 3q-1 1 -4.5 5.5t-11.5 12.5l-2 2q-14 15 -19 31l-8 14v4q-3 0 -5 8t-3 18t-1.5 18.5l-0.5 8.5q-2 2 -2 437 q0 15 8 37q44 -29 80 -29q54 0 76 22q-35 -8 -55 -8h-27l-2 2h-8q-2 2 -7.5 3t-7.5 3h-8l-31 15l-2 4q-47 38 -47 90zM511 29q2 1 3 1t3 1q-4 0 -4.5 -0.5z" />
<glyph unicode="&#x100d;" horiz-adv-x="764" d="M-33 70q0 49 35 82l12 8l6 6q3 0 3 2l36 14q9 0 11 2q10 0 12 2h24q74 0 113 -43q11 -21 33 -37l16 -10q31 -16 68 -16q45 0 79.5 21t41.5 69q2 2 2 6v486q0 23 -21 45q-34 36 -102 36q-107 0 -121 -81q0 -33 17 -47t47 -25q-20 -20 -41 -27q-37 -10 -86 -10 q-21 0 -45.5 4t-46 14t-37.5 26.5t-21 41.5l-2 4v23q0 13 7.5 30t18.5 33.5t23.5 31t22.5 21.5q63 40 125 47q23 2 57 3.5t82 1.5q100 0 172 -29l8 -2v-2h2q29 -13 84 -21l29 -2q40 0 74 21q4 -17 4 -35q0 -26 -11 -49.5t-36 -40.5l-9 -6l-6 -2q-11 -10 -22 -11h-2l-5 -2 q-6 -2 -8 -2q-4 0 -6 -2q-10 0 -12 -2h-23q-22 0 -57 8q7 -7 21 -12.5t36 -7.5l19 -2q36 0 80 29q6 -19 6 -37v-455q-2 -2 -2 -6v-4l-2 -2q0 -11 -2 -13v-6l-2 -2q-2 -2 -5.5 -10.5t-4.5 -10.5q-2 -4 -3.5 -7.5t-3.5 -8.5v-2q-3 -3 -5 -4t-9 -10l-6 -8q-10 -10 -13 -10 q-10 -10 -18.5 -16.5t-15.5 -10.5q-2 -2 -3.5 -3t-2.5 -2q-4 -2 -7 -3q-2 -1 -6 -2.5t-10 -3.5q-2 -2 -6 -2q-8 -5 -17.5 -8t-19.5 -5q-11 -4 -23 -4h-6l-2 -2h-18q-6 -2 -37 -2q-10 -2 -39 -2q-42 0 -64.5 0.5t-27.5 1.5h-12q-62 6 -113 27v-4q8 -21 39 -33q48 -23 129 -23 l55 2q50 15 121 15q14 0 27 -0.5t24 -1.5q15 -5 30 -8t31 -6t23 -13q24 -13 29 -43l-2 -39v-227q0 -21 4 -37q0 -10 2 -12q11 -74 53 -74q13 0 27 9.5t16 23.5l-2 4q10 -14 10 -47q0 -47 -27 -72t-73 -25q-28 2 -51 6t-43 11l-45 22l-29 23q-57 57 -57 153v283q0 8 -31 8 q-6 0 -11.5 -0.5t-10.5 -1.5l-91 -2q-33 0 -76.5 3.5t-87.5 12t-83.5 21.5t-65.5 33q-35 24 -35 80z" />
<glyph unicode="&#x100e;" horiz-adv-x="766" d="M-45 690q2 41 27 74q-25 13 -27 35q0 27 14 47q1 -3 15 -17q12 -6 16 -10q12 -4 23 -4q14 0 23.5 1t17 2.5t14.5 3t16 3.5l19 4q35 7 84 7q120 0 186 -72q41 -56 41 -119q0 -48 -25 -92.5t-61 -73.5l-43 -39q-28 -25 -45 -55q-17 -20 -23 -41q0 -4 -2 -6q-20 4 -47 4 q-9 0 -22 -0.5t-28 -3.5t-32 -10t-35 -19q40 23 99 23q36 0 63 -8q11 -1 17 -7q24 -8 41 -32q-66 -28 -66 -90q0 -15 6 -27q6 -18 19 -32t30 -23.5t36.5 -14t37.5 -4.5q64 0 102 47q15 21 15 41v547l-2 12q0 15 -4.5 30.5t-18.5 23.5q0 2 6.5 5.5t15 8t17 8t11.5 4.5 q8 2 18 6q9 4 57 4q44 0 74.5 -15.5t38.5 -63.5q0 -11 2 -21v-551q0 -57 -33.5 -92.5t-83 -56t-105 -28t-100.5 -7.5q-51 0 -99.5 8t-96.5 25l-11 4q-26 12 -52.5 28t-47.5 36t-34 46t-13 58q0 76 6 131q11 103 98 162l5 2q25 20 49 38t47 33q12 8 20 17q47 35 54 86 q0 21 -9.5 39t-25.5 31t-36 20.5t-40 7.5q-14 0 -23 -4q-13 -1 -25.5 -7.5t-21.5 -15.5t-14.5 -18.5t-5.5 -17.5q3 -18 10.5 -29t18 -18t24.5 -11.5t29 -9.5q-15 -36 -84 -47q-34 0 -57 8.5t-37.5 23t-20.5 32.5t-6 36z" />
<glyph unicode="&#x100f;" horiz-adv-x="1546" d="M-33 764q0 18 4 35q35 -21 74 -21q54 0 111 23h2v2l8 2q78 29 170 29q61 0 91 -2.5t48 -7.5q17 -5 37 -14t37 -22q33 9 41 17h2q60 29 135 29q38 0 65 -1t47.5 -4t35 -7.5t26.5 -12.5l23 -14q76 41 178 41q76 0 141 -13q36 -5 74 -16t68.5 -31.5t50.5 -51t20 -73.5 q0 -278 -0.5 -420.5t-1.5 -152.5q-3 -41 -45 -68q-16 -10 -57 -10q-55 0 -66 3q-10 3 -19.5 5t-15.5 6q-12 8 -19.5 11t-10.5 6l-4 4q8 5 14 12q10 30 10 64v536q0 23 -11.5 39.5t-28.5 28t-38 17t-41 5.5q-36 0 -71 -18q-36 -25 -50 -57q0 -5 -2 -7l-2 -18q0 -62 64 -92 q-4 -2 -9 -7.5t-5 -9.5l-27 -18q-20 -10 -51 -10q-44 0 -84 23q24 -18 48.5 -28t43.5 -10l20 2v-278q0 -14 -6 -37q-30 27 -65 27q-39 0 -60 -21q29 8 47 8h23q0 -2 4 -3t6 -1h6q0 -2 6.5 -4t20.5 -10l4 -4q43 -43 43 -92q0 -21 -4 -37q-22 20 -59 20q-16 0 -36.5 -6 t-49.5 -14l-7 -2v-2h-4l-2 -2q-58 -29 -137 -29q-37 0 -64 1t-47 4t-34.5 8t-26.5 12q-96 63 -96 168v460q0 9 -8 33q-27 57 -115 57q-66 0 -98 -36q-23 -23 -23 -45v-447q0 -13 4 -25q2 -15 7 -30t13.5 -27t19 -19.5t22.5 -7.5l12 3q55 13 55 81q0 17 -6 33v2q-6 17 -12 21 q108 -22 108 -105l-2 -18q-18 -94 -117 -117q-43 -6 -81 -6q-52 0 -95.5 13.5t-75 40.5t-49.5 68t-18 95v408q0 18 6 37q44 -29 80 -29q54 0 76 22q-35 -8 -56 -8h-26l-2 2h-8q-2 2 -7.5 2t-5.5 2h-4l-2 2h-4l-27 13l-8 6q-23 17 -34 40.5t-11 49.5zM631 180q0 -10 6 -33 q20 -57 90 -57q31 0 50.5 11.5t30 26.5t14 28t3.5 16v481q0 8 -3.5 23t-14 30t-30 26t-50.5 11q-70 0 -90 -57q-6 -18 -6 -24v-482z" />
<glyph unicode="&#x1010;" horiz-adv-x="1225" d="M-33 760q0 18 6 39q35 -21 74 -21q54 0 111 23l10 4q72 29 170 29q47 0 81 -1t59 -4t43.5 -7.5t33.5 -12.5l37 -18l24 10v2q95 33 189 33q29 0 64.5 -3t72.5 -11t71.5 -21t61.5 -34t43.5 -49.5t16.5 -66.5q0 -278 -0.5 -420.5t-1.5 -152.5q-2 -22 -14 -38.5t-32 -29.5 q-16 -10 -57 -10q-54 0 -65 3t-20 5t-15 6q-13 7 -20.5 10.5t-10.5 6.5l-4 4q8 5 14 12q11 33 11 64v536q0 30 -15 43q-41 47 -104 47q-37 0 -72 -18q-53 -35 -53 -86q0 -58 63 -88q-6 -8 -16.5 -16t-23 -14t-25 -9.5t-23.5 -3.5q-20 -4 -55 -4v2h-16v2q-13 0 -15 2 q-31 6 -51 22q17 -20 50 -29.5t59 -9.5q11 0 24 1.5t29 3.5v-283q0 -18 -8 -37q-45 27 -82 27q-54 0 -74 -21q35 8 57 8h29q0 -2 5 -3t7 -1h8q0 -2 3 -2h2l2 -2q14 -4 21 -8t9 -4l2 -2q1 0 5 -2v-2h2q47 -35 47 -88q0 -17 -6 -37q-32 22 -74 22q-26 0 -51.5 -5.5 t-53.5 -16.5l-16 -6q-35 -14 -78 -21.5t-94 -7.5q-47 0 -81 1t-59 3.5t-43.5 7.5t-33.5 13q-121 61 -121 168v432q0 21 8 37q45 -27 82 -27q52 0 74 20q-35 -8 -55 -8h-27l-2 2h-10q-4 4 -10.5 2.5t-6.5 3.5h-4l-26 13q-5 3 -7 3.5t-2 2.5h-2q-45 35 -45 86zM217 180 q0 -13 8 -33q23 -57 113 -57q38 0 62 11.5t37.5 26.5t18.5 28t5 16v481q0 12 -10 33q-27 57 -113 57q-34 0 -59.5 -8.5t-40.5 -27.5q-21 -25 -21 -45v-482z" />
<glyph unicode="&#x1011;" horiz-adv-x="1225" d="M-33 760q0 18 6 39q35 -21 74 -21q54 0 111 23l10 4q72 29 170 29q47 0 81 -1t59 -3.5t43.5 -7.5t33.5 -13l16 -6q-33 -10 -69 -10q-38 0 -64 16l-16 12l-4 -18q-6 -19 -6 -39q0 -21 6 -41q-22 20 -80 20q-66 0 -98 -36q-23 -23 -23 -45v-482q0 -9 8 -30q23 -60 113 -60 q84 0 113 55q10 19 10 27v453q0 18 6 37q3 0 5 -5q1 -2 5 -2t5 -1q3 -3 7.5 -4.5t12.5 -4.5v-2q6 0 9 -2t13 -2l4 -2h11q0 -2 14 -2l27 2q2 2 5 2t5 2h6v2h6l2 2q5 0 10.5 3.5t8.5 6.5q-9 -4 -21 -4l-4 -2h-8q-2 -2 -27 -2h-20l-4 2h-9q-2 2 -7 2t-5 2h-4l-2 2h-4l-23 11v2 q-6 0 -8 2.5t-2 3.5q-49 37 -49 90q0 18 4 35l6 -6h2q4 -5 7.5 -6t9.5 -1v-2h2l12 -2q0 -2 12 -2l2 -2h21q18 0 20 2q19 0 21 2h6q2 2 7 2t7 2h4q2 2 11 2v3h6l32 10v2l9 2q76 29 170 29q47 0 81 -1t59.5 -4t43.5 -7.5t33 -12.5q121 -61 121 -168v-432q0 -16 -7 -37 q-46 29 -84 29q-48 0 -71 -23q35 8 57 8h25q0 -2 2 -2h8l4 -2h8q0 -2 3 -3t5 -1q11 -1 23 -10l10 -4q0 -2 4 -2q47 -39 47 -92q0 -19 -4 -35q-31 22 -73 22q-27 0 -53.5 -6t-55.5 -16l-6 -2v-2h-6l-2 -2q-66 -29 -172 -29q-48 0 -82 0.5t-59 3t-43 7.5t-33 14l-33 16 l-37 -12q-72 -29 -172 -29q-47 0 -81 1t-59 3.5t-43.5 7.5t-33.5 13q-121 61 -121 168v432q0 21 8 37q45 -27 82 -27q52 0 74 20q-35 -8 -55 -8h-27l-2 2h-10q-4 4 -10.5 2.5t-6.5 3.5h-4l-26 13q-5 3 -7 3.5t-2 2.5h-2q-45 35 -45 86zM676 180q0 -13 8 -33q23 -57 113 -57 q35 0 60.5 8.5t41.5 28.5q21 26 21 45v481q0 8 -4 23t-17 30t-37.5 26t-64.5 11q-68 0 -101 -36q-20 -26 -20 -45v-482z" />
<glyph unicode="&#x1012;" horiz-adv-x="764" d="M0 213q2 51 28.5 81.5t77.5 45.5q13 4 29 4h39q30 0 49 -10q41 -6 53 -43q-31 -8 -54 -18.5t-40 -41.5q-12 -18 -12 -38q0 -39 33 -66q44 -43 125 -43q29 0 62.5 12t53.5 33q41 38 41 86q0 17 -7.5 33.5t-18.5 31.5t-25 27.5t-28 21.5q-18 12 -47.5 24.5t-69.5 26.5 q-80 29 -80 36q0 6 7 11t15 7q145 25 209 115q17 24 22 44.5t5 37.5q0 6 -2 12t-2 14q-7 21 -29 48q-43 43 -104 43q-37 0 -65.5 -9.5t-47.5 -29.5q-29 -32 -29 -68q0 -27 17.5 -50t40.5 -36q2 -1 2.5 -1.5t3.5 -1.5t10.5 -3l22.5 -6q-6 -21 -25 -33l-31 -14l-8 -2 q-7 -2 -13.5 -3.5t-12.5 -1.5h-37q-14 0 -27 5q-94 35 -94 127q0 78 49 131q-17 7 -25 34v7q0 27 19 47q23 -23 61 -27q39 0 74 8q44 15 107 15h30q44 0 86 -13q40 -8 76 -28t63.5 -48.5t43.5 -65.5t16 -79q0 -26 -6.5 -52t-20.5 -52l-6 -11q-11 -19 -21.5 -37t-27.5 -32 l51 -39q68 -53 68 -143q0 -66 -32.5 -111t-82 -72.5t-108 -40t-109.5 -12.5h-74q-35 4 -68.5 12t-70.5 8q-53 0 -82 -24q-20 18 -20 41q0 33 28 45q-55 46 -55 131z" />
<glyph unicode="&#x1013;" horiz-adv-x="764" d="M-35 762q0 18 4 35q31 -19 68 -19q8 0 22 1t30.5 4t34 7.5t32.5 10.5q2 0 2 1t2 1l2 2h2q72 29 170 29q47 0 81 -1t59.5 -4t43.5 -7.5t33 -12.5q121 -61 121 -170v-432q0 -14 -6 -37q-40 27 -84 27q-47 0 -72 -19q35 8 70 8q6 0 6 -2h18q3 -1 6 -4h6q5 -3 14 -5t15 -5 l4 -4h2l6 -6h3q47 -38 47 -90q0 -19 -4 -35q-28 20 -62 20q-55 0 -121 -22q-2 -2 -6 -2h-2v-2h-6v-2q-64 -27 -172 -27q-47 0 -81 1t-59 3t-43.5 7t-33.5 12q-119 59 -119 170v432q0 16 6 37q44 -29 80 -29q54 0 76 22q-30 -10 -66 -10q-4 0 -6 2h-16v2q-13 0 -16 1t-5 3h-4 l-31 15v2q-4 0 -4 2h-2v2q-45 35 -45 88zM213 178q0 -7 8 -28q23 -60 113 -60q68 0 102 37q21 23 21 45v90l-4 -2q-22 -11 -44.5 -19t-48.5 -8q-17 0 -45 5q37 16 37 41l-2 8q-11 11 -22 12l-23 4q-10 0 -24 -2t-27.5 -6.5t-24 -12t-14.5 -18.5v-2q-2 -2 -2 -84zM213 362 l41 17q51 14 106 14q52 0 97 -24v284q0 10 -8 31q-22 57 -115 57q-39 0 -63 -10.5t-37 -24t-17 -27.5t-4 -20v-297z" />
<glyph unicode="&#x1014;" horiz-adv-x="768" d="M0 246q19 93 117 116q29 9 63 9l29 -2q50 0 92 -14.5t72 -42t46.5 -67.5t16.5 -91v-29q53 35 53 98q0 54 -44 95.5t-132 76.5q-66 26 -123 64q-18 10 -34.5 21.5t-32.5 25.5q-33 34 -51 80q0 4 -2 6q-7 17 -7 41q0 69 48 129q19 19 45 33.5t55.5 24t59.5 14t57 4.5 q81 0 141 -17l23 -4q6 -1 12.5 -1.5t13.5 -0.5q25 0 41 6t39 25q16 -20 16 -43q0 -29 -30 -41q31 -40 32 -78q0 -40 -34 -74q-37 -28 -97 -28q-47 0 -73 14q-25 8 -39 33l51 16q43 25 43 55q0 18 -12 30.5t-29 20t-35.5 10.5t-32.5 3q-21 0 -43 -7t-40.5 -19.5t-30 -31 t-11.5 -42.5q4 -33 43 -78q4 -2 8 -5t9 -7q6 -4 13 -9.5t17 -10.5t44.5 -21.5t95.5 -43.5l80 -38q20 -10 37 -22t30 -28q31 -28 49.5 -62.5t18.5 -88.5q0 -49 -18 -88.5t-48.5 -69.5t-70.5 -50t-84 -30q-2 0 -7.5 -2t-13.5 -2q0 -248 0.5 -372t1.5 -128q0 -16 8 -43l15 -10 q-49 -37 -94 -37h-41q-105 0 -105 115v477q-9 0 -16 4q-33 9 -68 9h-14q-37 0 -70 -27q-20 20 -20 41q0 35 28 51q-25 28 -41 59l5 -2q16 -12 38.5 -16t34.5 -4h8q-60 10 -83 40t-23 81zM90 197q4 17 18.5 35t34.5 18q21 0 39 -19q-4 -16 -4 -32q0 -35 31 -66l12 -10 q0 63 -16 96l-2 4q-9 19 -21 29t-30 10h-9q-39 -12 -49 -49q0 -2 -2 -5t-2 -11z" />
<glyph unicode="&#x1015;" horiz-adv-x="764" d="M-25 797l3 2q33 22 62.5 28.5t68.5 6.5q41 0 57 -13q30 -17 38.5 -43.5t8.5 -58.5v-541q0 -7 8 -28q23 -60 115 -60q66 0 100 37q21 23 21 45v545q0 12 -6.5 24.5t-17 22t-23.5 16t-25 6.5q-14 0 -29 -4q2 11 15 27q29 22 55 22q11 3 121 3q55 0 94 -43q0 -3 2 -3 q5 -9 12 -16q17 -25 17 -51v-514q0 -14 -6 -37q-46 29 -84 29q-49 0 -72 -23q31 10 70 10h4l2 -2h18q4 -2 8 -3t7 -3h4q6 -4 9 -4t15 -8h4q2 -2 2 -4l7 -2v-2q47 -35 47 -88q0 -19 -4 -35q-33 18 -70 18q-7 0 -20.5 -1t-30 -4t-34 -7t-32.5 -10h-6q-4 -1 -4 -4 q-67 -27 -170 -27q-47 0 -81 1t-59.5 3t-43.5 7t-33 12q-121 61 -121 170v550q-1 20 -8 41q-7 12 -15 13z" />
<glyph unicode="&#x1016;" horiz-adv-x="764" d="M-25 797l11 8q13 8 21.5 12t14.5 6t10 3t9 3q13 2 29.5 3.5t38.5 1.5q41 0 57 -13q30 -17 38.5 -43.5t8.5 -58.5v-541q0 -7 8 -28q23 -60 115 -60q63 0 100 37q21 26 21 45v545q0 9 -4 16v4l-2 2v4q-4 0 -4 5q-21 31 -54 38q-28 0 -37 -4l19 2q33 0 55 -39h2v-4h2l-4 -2 q-17 -8 -23 -24t-6 -35v-449q0 -34 5 -49l4 -2v-2l8 -2h5t5 2h4q0 -2 -4 -5q-2 -1 -7 -6.5t-14.5 -12t-23.5 -12.5t-35 -9q-26 0 -49 12q-27 27 -27 58q-1 5 -1.5 12t-0.5 16v451q0 60 34 95.5t93 47.5q18 7 28 8q5 1 35.5 1h86.5q55 0 94 -43q0 -3 2 -3q5 -9 12 -16 q17 -34 17 -51v-514q0 -14 -6 -37q-46 29 -84 29q-49 0 -72 -23q31 10 70 10h4l2 -2h18q4 -2 8 -3t7 -3h4q6 -4 9 -4t15 -8h2v-2q4 0 4 -2h4v-2h3v-2q47 -35 47 -88q0 -19 -4 -35q-33 18 -70 18q-66 0 -117 -22h-6q-4 -1 -4 -4q-67 -27 -170 -27q-47 0 -81 1t-59.5 3.5 t-43.5 7t-33 11.5q-73 36 -97 85q-24 50 -24 85v550q-5 50 -23 54z" />
<glyph unicode="&#x1017;" horiz-adv-x="764" d="M-25 797l3 2q33 22 62.5 28.5t68.5 6.5q62 0 90 -43q14 -28 14 -66l6 -16q28 -37 66 -37q26 0 40.5 10t14.5 25q0 17 -16 30q17 4 39 4q60 0 90 -30l4 -4q0 14 -5.5 28.5t-15 25.5t-23 18t-28.5 7q-14 0 -29 -4q2 11 15 27q29 22 55 22q11 3 121 3q55 0 94 -43q0 -3 2 -3 q5 -9 12 -16q17 -25 17 -51v-514q0 -14 -6 -37q-46 29 -84 29q-49 0 -72 -23q31 10 70 10h4l2 -2h18q4 -2 8 -3t7 -3h4q6 -4 9 -4t15 -8h4q2 -2 2 -4l7 -2v-2q47 -35 47 -88q0 -19 -4 -35q-33 18 -70 18q-7 0 -20.5 -1t-30 -4t-34 -7t-32.5 -10h-6q-4 -1 -4 -4 q-67 -27 -170 -27q-47 0 -81 1t-59.5 3t-43.5 7t-33 12q-121 61 -121 170v550q-1 20 -8 41q-7 12 -15 13zM213 178q0 -4 1.5 -12t6.5 -19q23 -57 115 -57q69 0 100 37q21 26 21 45v438l-8 -6q-37 -37 -111 -37q-17 1 -33 4.5t-33 8.5q-32 6 -59 24v-426z" />
<glyph unicode="&#x1018;" horiz-adv-x="1223" d="M0 170q0 31 14 52.5t36 34.5t49 18.5t53 5.5q23 0 44.5 -3t43.5 -8q19 -7 39 -26q-64 -21 -64 -72q13 -82 121 -82q68 0 102 37q21 23 21 45v481q0 11 -8 37q-19 64 -115 64q-19 0 -36 -3.5t-32 -13.5l-16 -10q-37 -23 -37 -65q0 -8 8 -27q16 -28 56 -45q-19 -19 -39 -27 q-41 -10 -88 -10q-20 0 -41 3t-39.5 10t-34.5 19t-27 31q-10 21 -10 48q0 23 14 44.5t34 39t44 31t43 20.5l21 8q29 11 74 18t106 9q47 0 81 -1t59.5 -4t43.5 -8t33 -12l37 -18l24 10v2q98 33 191 33q59 0 115 -13q63 -8 111 -30.5t73 -57.5q29 -31 29 -84q0 -278 -1 -420.5 t-2 -152.5q-3 -41 -45 -68q-16 -10 -57 -10q-54 0 -65 3t-20 5t-15 6q-13 7 -20.5 10.5t-10.5 6.5l-4 4q16 7 16 18q4 4 6.5 15.5t2.5 19.5v559q0 30 -15 43q-41 47 -104 47q-37 0 -72 -18q-37 -25 -49 -57q0 -5 -2 -7l-2 -20q0 -61 65 -90q-23 -29 -65 -39q-2 -2 -12 -2 l-3 -2h-12q-2 -2 -10 -2h-10l-2 -2q-76 0 -117 30q41 -41 113 -41q11 0 24 1.5t29 3.5v-283q0 -14 -6 -37q-46 29 -84 29q-49 0 -72 -23q35 8 57 8h27q0 -2 2 -2h6l4 -2h8q0 -2 3.5 -3t5.5 -1q10 -1 22 -10l10 -4q0 -2 5 -2q47 -39 47 -92q0 -19 -4 -35q-32 22 -74 22 q-26 0 -53 -6t-56 -16l-6 -2v-2q-6 0 -6 -1t-2 -1q-72 -29 -172 -29q-47 0 -81 0.5t-59 3t-43.5 7.5t-33.5 14l-47 26q-14 11 -24 22t-19 23l-6 8q-23 41 -23 66z" />
<glyph unicode="&#x1019;" horiz-adv-x="764" d="M-25 797l3 2q33 22 62.5 28.5t68.5 6.5q41 0 57 -13q30 -17 38.5 -43.5t8.5 -58.5v-340l2 2q7 20 22 33.5t34 21.5t39.5 11.5t39.5 3.5q31 -1 66 -11l41 -16v293q0 12 -6.5 24.5t-17 22t-23.5 16t-25 6.5q-14 0 -29 -4q2 11 15 27q29 22 55 22q11 3 121 3q55 0 94 -43 q0 -3 2 -3q5 -9 12 -16q17 -25 17 -51v-514q0 -14 -6 -37q-46 29 -84 29q-49 0 -72 -23q31 10 70 10h4l2 -2h18q4 -2 8 -3t7 -3h4q6 -4 9 -4t15 -8h4q2 -2 2 -4l7 -2v-2q47 -35 47 -88q0 -19 -4 -35q-33 18 -70 18q-7 0 -20.5 -1t-30 -4t-34 -7t-32.5 -10h-6q-4 -1 -4 -4 q-67 -27 -170 -27q-47 0 -81 1t-59.5 3t-43.5 7t-33 12q-121 61 -121 170v550q-1 20 -8 41q-7 12 -15 13zM213 178q0 -6 4 -20.5t17 -29.5t37.5 -26.5t64.5 -11.5q66 0 100 37q21 23 21 45v150l-21 16q-19 10 -45 10q-18 -2 -30.5 -11t-12.5 -26q0 -13 17 -30q-23 -5 -39 -5 q-26 0 -52 9q-20 10 -37.5 24.5t-23.5 32.5v-164z" />
<glyph unicode="&#x101a;" horiz-adv-x="1223" d="M0 180v539q0 115 102 115q23 0 40 -1.5t30 -3.5q8 -4 17.5 -6t15.5 -6q23 -11 33 -20q-6 -1 -13 -13q-2 -2 -6 -12t-4 -29v-559q0 -23 11.5 -40t29.5 -28t39.5 -16.5t40.5 -5.5q38 0 70 19q53 38 53 88q0 58 -66 86q23 29 66 39q26 8 57 8q69 0 109 -31q-41 41 -113 41 q-11 0 -24.5 -1t-28.5 -3v401q-2 11 -4.5 22t-5.5 21q-2 3 -15 11q44 32 68 32q9 4 28 4h39q105 0 105 -114v-539q0 -9 8 -31q21 -59 115 -59q66 0 100 37q21 23 21 45v246q0 102 -1.5 156.5t-3.5 64.5q0 15 -4.5 30.5t-13 28t-20.5 20t-27 7.5h-8q-54 -13 -54 -80 q0 -4 1 -13t3 -18t5 -16.5t8 -9.5q-109 19 -109 104l2 19q8 39 27.5 63t45.5 37t58 17.5t66 4.5q119 0 182 -63q58 -52 58 -154v-407q0 -20 -7 -37q-46 29 -84 29q-48 0 -71 -23q35 8 57 8h23l4 -2h8q5 -5 11.5 -4.5t8.5 -1.5q11 -1 23 -10h2l2 -2h4l4 -4l2 -2 q21 -21 34 -42.5t13 -47.5q0 -19 -4 -35q-26 20 -78 20q-39 0 -108 -22l-4 -2h-4l-2 -2q-73 -27 -170 -27q-48 0 -82.5 1t-60 3t-43 7t-31.5 12l-37 18l-25 -10v-2q-94 -31 -194 -31q-42 0 -86.5 5.5t-85 17.5t-73 30.5t-50.5 44.5q-29 34 -29 84z" />
<glyph unicode="&#x101b;" horiz-adv-x="764" d="M-35 764q0 18 4 35q33 -21 72 -21q7 0 20 1t29 4t32.5 7.5t31.5 10.5h2v2q6 0 6 1t2 1q66 29 172 29q47 0 81 -1t59 -3.5t43.5 -7.5t33.5 -13q119 -65 119 -168v-973q0 -53 8 -80q2 -24 16.5 -43.5t32.5 -19.5q14 0 27.5 9t17.5 23q6 -20 6 -44q0 -15 -1 -25.5t-4.5 -19 t-11.5 -16.5t-22 -17q-37 -17 -73 -17q-61 0 -117 35q-94 58 -94 180v1020q0 13 -8 33q-22 57 -113 57q-68 0 -100 -36q-23 -23 -23 -45v-545q0 -8 6 -23q0 -2 4 -6l21 -27q19 -16 45 -16q12 0 24 6l-18 -2q-17 0 -31 9.5t-24 29.5l-2 4q12 10 21 24.5t9 35.5v481 q-1 10 -8 22q-2 2 -10 2q-10 -2 -10 -3q0 10 10 12l18 16q25 16 66 16q39 0 57 -36l2 -9q6 -13 6 -53v-450q0 -78 -63 -119q-26 -14 -64 -25q-12 -6 -28 -6h-121q-22 0 -44.5 8.5t-40.5 23.5t-29 35t-11 44v514q0 18 6 37q44 -29 80 -29q54 0 76 22q-35 -8 -56 -8h-24 q-2 2 -12 2q-4 4 -10.5 2.5t-6.5 3.5q-13 0 -26 11q-3 0 -5.5 3t-7.5 3v2q-47 38 -47 90z" />
<glyph unicode="&#x101c;" horiz-adv-x="1223" d="M-35 764q0 18 4 35q35 -21 74 -21q54 0 111 23h2v2q6 0 6 1t2 1q78 29 170 29q47 0 81 -1t59.5 -4t43.5 -7.5t33 -12.5q121 -61 121 -168v-438q0 -21 2 -26t2 -7q12 -33 49 -57q34 -19 72 -19q19 0 40 6t38.5 17.5t29 28t11.5 38.5v537q0 50 -9 57q0 4 -2 6q-7 12 -14 13 l10 8q18 8 27.5 12t14.5 6t8.5 3t7.5 3q12 2 28.5 3.5t38.5 1.5q41 0 57 -13q41 -24 45 -67q3 -19 3 -574q0 -50 -29 -84q-20 -28 -56 -47t-78 -30t-84.5 -16t-76.5 -5q-98 0 -195 31v2l-32 14q-40 17 -81 55q-42 39 -42 103v450q0 9 -8 33q-27 57 -115 57q-66 0 -98 -36 q-23 -23 -23 -45v-431q0 -20 4 -36q0 -28 23 -62q17 -24 47 -24h4q55 18 55 81q0 4 -1 13t-3 18t-5.5 16.5t-8.5 8.5q108 -22 108 -105l-2 -18q-18 -94 -117 -117q-43 -6 -81 -6q-113 0 -181 63q-57 62 -57 154v408q0 18 6 37q44 -29 80 -29q54 0 76 22q-35 -8 -56 -8h-24 q-2 2 -12 2q-2 2 -8.5 2t-6.5 2l-6 2q-6 2 -11.5 4t-10.5 7q-2 0 -2 2h-5l-6 6q-47 38 -47 90z" />
<glyph unicode="&#x101d;" horiz-adv-x="764" d="M-35 764q0 18 4 35q33 -21 72 -21q7 0 20 1t29 4t32.5 7.5t31.5 10.5h2v2q6 0 6 1t2 1q66 29 172 29q47 0 81 -1t59 -3.5t43.5 -7.5t33.5 -13q119 -65 119 -168v-432q0 -14 -6 -37q-46 29 -84 29q-49 0 -72 -23q35 8 57 8h25q0 -2 2 -2l18 -2q0 -2 5 -2.5t6 -1.5 q10 -1 22 -10l10 -4q0 -2 5 -2q47 -39 47 -92q0 -19 -4 -35q-28 20 -78 20q-14 0 -29 -1.5t-31 -6.5l-51 -14v-2h-6l-2 -2q-75 -29 -170 -29q-47 0 -81 1t-59.5 4t-43.5 8t-33 12q-121 61 -121 168v432q0 18 6 37q44 -29 80 -29q54 0 76 22q-35 -8 -56 -8h-24q-2 2 -12 2 q-4 4 -10.5 2.5t-6.5 3.5q-13 0 -26 11q-3 0 -5.5 3t-7.5 3v2q-47 38 -47 90zM213 180q0 -13 8 -33q23 -57 115 -57q69 0 100 37q21 26 21 45v481q0 8 -4 23t-17 30t-37 26t-63 11q-35 0 -59.5 -9.5t-40.5 -26.5q-23 -26 -23 -45v-482z" />
<glyph unicode="&#x101e;" horiz-adv-x="1223" d="M0 172q0 31 14 52.5t36 34.5t49 18.5t53 5.5q23 0 44.5 -3t43.5 -8q23 -7 39 -26q-40 -17 -56 -45q-8 -18 -8 -27q0 -39 37 -65l16 -11q31 -16 70 -16q26 0 46.5 4.5t33.5 15.5q41 33 41 80v482q0 23 -21 45q-34 36 -102 36q-107 0 -121 -81q0 -33 17 -47t47 -25 q-19 -19 -39 -27q-41 -10 -88 -10q-101 0 -142 63q-10 21 -10 48q0 14 7 31t18 34t23.5 31t23.5 22q63 40 125 47q23 2 57 3.5t82 1.5q100 0 172 -29l8 -2v-2h2q29 -12 84 -21l29 -2q40 0 74 21q4 -17 4 -35q0 -52 -47 -90h-3v-2l-12 -6q-11 -10 -22 -11h-2q-2 -2 -8.5 -2 t-10.5 -4q-10 0 -12 -2h-23q-22 0 -57 8q7 -7 21 -12.5t36 -7.5l19 -2q36 0 80 29q6 -19 6 -37v-353l24 -6q23 -7 41 -26q-65 -21 -65 -72q13 -82 123 -82q36 0 59.5 11t37 25t19 27.5t5.5 18.5v549q0 31 -3 41q-2 2 -2 7t-4 11q0 8 -16 17q8 6 16.5 11t18.5 9q12 9 22 10 q4 0 6 2h5q9 4 28 4h39q105 0 105 -114v-510q0 -20 -7 -37q-46 29 -84 29q-48 0 -71 -23q35 8 57 8h23l4 -2h8q2 -2 6 -3t6 -1h6q0 -2 2 -2q11 -1 23 -10h2l2 -2h4l4 -4l2 -2q21 -21 34 -42.5t13 -47.5q0 -19 -4 -35q-26 20 -78 20q-39 0 -108 -22l-4 -2h-4l-2 -2 q-41 -20 -83 -23.5t-87 -3.5q-96 0 -143 3q-45 3 -76 20q-3 0 -7 1t-10 7q-4 -4 -8 -4q-15 -9 -33 -14t-43.5 -7.5t-59.5 -3t-81 -0.5q-61 1 -105.5 8.5t-74.5 18.5l-21 8q-19 8 -43 21t-44 30.5t-34 39t-14 44.5z" />
<glyph unicode="&#x101f;" horiz-adv-x="1223" d="M0 180v539q0 115 102 115q23 0 40 -1.5t30 -3.5q8 -4 17.5 -6t15.5 -6q23 -11 33 -20q-6 -1 -13 -13q-2 -2 -6 -12t-4 -29v-559q0 -23 11.5 -40t29.5 -28t39.5 -16.5t40.5 -5.5q38 0 70 19q38 26 47 57q4 8 5 12t1 21v438q0 107 121 168q14 7 31.5 12t43 8t60 4t82.5 1 t90.5 -7t79.5 -22l10 -4q16 -6 37 -11.5t49 -9.5l24 -2q42 0 76 21q4 -17 4 -35q0 -55 -47 -90l-8 -6l-6 -2q-11 -10 -23 -11h-6q-4 -1 -4 -4h-2q-6 0 -8 -2q-10 0 -12 -2h-23q-22 0 -57 8q7 -7 21 -12.5t36 -7.5l19 -2q35 0 79 29q7 -18 7 -37v-408q0 -53 -18 -93.5 t-49.5 -68t-75.5 -41.5t-97 -14q-30 0 -80 6q-97 23 -117 117l-2 18q0 83 109 105q-5 -3 -8 -10t-5 -16t-3 -17t-1 -13q0 -64 54 -81h4q15 0 27.5 8t22 20.5t14.5 27.5t5 30q5 20 5 221v246q0 23 -21 45q-34 36 -100 36q-54 0 -80 -18q-43 -31 -43 -72v-454q0 -28 -10 -52 t-27 -43t-39.5 -33.5t-46.5 -25.5l-33 -14v-2q-94 -31 -194 -31q-34 0 -76.5 4.5t-84.5 16t-77.5 30.5t-56.5 47q-29 34 -29 84z" />
<glyph unicode="&#x1020;" horiz-adv-x="764" d="M-35 764q0 18 4 35q33 -21 72 -21q7 0 20 1t29 4t32.5 7.5t31.5 10.5h2v2q6 0 6 1t2 1q66 29 172 29q48 0 82.5 -1.5t57.5 -3.5q54 -5 99 -29.5t74 -70.5q23 -41 23 -65q0 -22 -8 -43l-2 -5q-37 -63 -142 -63q-94 0 -127 37q30 11 47 25t17 47q-1 10 -7.5 24t-20.5 26.5 t-36.5 21.5t-56.5 9q-68 0 -100 -36q-23 -23 -23 -45v-482q0 -8 2 -10q1 -13 14 -35q27 -55 105 -55q42 0 70 16q3 3 6.5 3.5t9.5 6.5q23 16 33 37q39 43 114 43h23l4 -2h8l4 -2h8q0 -2 3.5 -3t5.5 -1q10 -1 22 -10l10 -4q0 -2 2.5 -2t8.5 -6q0 -4 4 -4q37 -31 37 -76 q0 -19 -4 -35q-8 -57 -119 -90q-93 -31 -240 -31q-22 0 -43 1t-43 3l-20 2q-9 0 -17 -9t-8 -26v-266q0 -5 2.5 -14t7.5 -23q26 -77 107 -77h6q47 0 98 59q39 37 39 78q0 33 -23 60.5t-51 41.5q-1 0 -2 0.5t-5.5 2t-14 4.5t-29.5 7q5 16 19 28.5t33.5 20t43.5 11.5t48 4 q37 0 69 -9.5t56 -28.5t39 -48.5t16 -69.5q0 -96 -66 -153q35 -17 35 -54q0 -26 -25 -51q-31 33 -79 33h-15q-43 0 -84 -10l-82 -15h-10l-4 -2q-52 0 -87.5 1t-55.5 4q-26 4 -46 9.5t-34 12.5q-121 67 -121 201v227q0 37 13.5 59.5t36 33.5t51.5 14.5t61 3.5q76 0 121 -15 l53 -2q129 0 168 51l2 7h-6v-2l-17 -5q-2 -2 -5 -2t-13 -4q-64 -12 -84 -12q-10 -2 -80 -2q-20 0 -33 0.5t-18 1.5q-33 0 -35 2q-20 0 -22 2q-15 0 -32.5 4t-33.5 13q-4 0 -6 2q-18 6 -21 7.5t-8 6.5q-15 8 -35 27l-10 10l-10 10q-8 10 -9 11t-1 3l-19 37v2q0 2 -2 5t-2 10 v6q-2 0 -2 4v6l-2 4v451q0 18 6 37q44 -29 80 -29q54 0 76 22q-35 -8 -56 -8h-24q-2 2 -12 2q-4 4 -10.5 2.5t-6.5 3.5q-13 0 -26 11q-3 0 -5.5 3t-7.5 3v2q-47 38 -47 90zM334 -582h22l-10 -2h-12v2z" />
<glyph unicode="&#x1021;" horiz-adv-x="1223" d="M0 213q2 51 28.5 80.5t77.5 46.5q12 4 29 4h41q17 0 28 -4t23 -6q11 -2 26 -11.5t26 -31.5q-13 -2 -23 -4t-23 -8q-63 -34 -63 -86q0 -39 33 -66q44 -43 125 -43q26 0 54 9t51 25.5t37.5 40t14.5 52.5q0 32 -16 55q-23 39 -64.5 62.5t-89.5 40.5l-51 18q-55 19 -55 29 q0 8 9 12t13 6q31 5 61 13.5t57.5 22t51 33t41.5 46.5q13 22 19 43.5t6 38.5q0 6 -2 12t-2 14q-22 63 -96 86q-15 7 -37 7q-25 0 -51 -9q-41 -11 -62 -32q-27 -31 -27 -66q0 -21 11 -41q6 -15 14.5 -24.5t19.5 -16t24 -10.5l26 -8q-5 -16 -18.5 -28.5t-30.5 -14.5 q-7 -2 -18 -6.5t-23 -4.5h-37q-12 0 -25 5q-92 29 -96 127q0 79 51 131q-27 11 -27 47q0 21 19 41q23 -23 61 -27q41 0 72 9t63 12l46 2q62 0 121.5 -14t109.5 -54q40 27 59 33h2v2q98 33 191 33q59 0 115 -13q63 -8 111 -30.5t73 -57.5q29 -31 29 -84v-434 q0 -162 -158 -207l-25 -6q-11 -3 -25.5 -3.5t-31.5 -0.5q-30 0 -80 6q-97 23 -117 117l-2 18q0 83 109 105q-5 -3 -8 -10t-5 -16t-3 -17t-1 -13q0 -64 54 -81h4q22 0 36 12.5t22.5 31t12 40t3.5 38.5v416q0 30 -15 43q-41 47 -104 47q-37 0 -72 -18q-53 -35 -53 -86 q0 -59 65 -88q-23 -29 -65 -39q-2 -2 -7 -3t-20 -1q-2 -2 -11 -2t-11 -2h-15q-61 0 -102 30q23 -27 96 -41q-9 -19 -21 -37t-28 -32l51 -39q68 -53 68 -143q0 -66 -32.5 -111t-82 -72.5t-108 -40t-109.5 -12.5h-74q-35 4 -71.5 12t-79.5 8q-43 -4 -70 -24q-20 18 -20 41 q0 33 28 45q-55 46 -55 131z" />
<glyph unicode="&#x1022;" horiz-adv-x="1225" d="M-45 158q0 17 7.5 33.5t21.5 33.5t35.5 24t41.5 7l15 -2q69 -9 84 -47q-14 -4 -28.5 -9t-26 -12.5t-18.5 -18.5t-7 -28q0 -12 8 -26q12 -12 25 -21q31 -14 59 -14h12q59 8 84 57q11 17 11 39q-4 41 -46 82q-12 15 -26 23q-17 9 -30.5 19t-24.5 19q-21 17 -33.5 25 t-14.5 8q-85 56 -98 162q-6 62 -6 135q0 32 14.5 58t37.5 46.5t50.5 36t53.5 27.5l2 2q92 33 188 33q57 0 120.5 -11.5t117.5 -37.5l32 16q95 33 189 33q43 0 100 -7.5t108 -27.5t86.5 -56t35.5 -93v-539q0 -115 -105 -115q-22 0 -38.5 1t-28.5 3q-9 4 -18 6.5t-15 6.5 q-13 6 -20.5 9.5t-10.5 6.5l-4 4q8 5 14 12l11 41v560q0 28 -15 43q-41 47 -104 47q-38 0 -72 -19q-37 -24 -49 -57q0 -2 -2 -7t-2 -26v-516q0 -115 -105 -115q-23 0 -43 2.5t-42 8.5q-12 3 -27 12t-21 12l-2 2q17 10 21 28.5t4 35.5v549q0 21 -11.5 38t-29 28.5t-38.5 17.5 t-40 6q-35 0 -72 -19q-55 -37 -55 -84q0 -31 20 -54t46 -36q-22 -29 -60.5 -38t-73.5 -9q-6 0 -8 2h-14q-10 0 -18 4t-19 4q-4 4 -7 4t-3 2h-4q-4 4 -6 5.5t-7 1.5q48 -33 113 -33q27 0 51 6l2 -8q6 -21 23 -41q19 -26 39.5 -49t46.5 -43q38 -29 63 -73.5t25 -94.5 q0 -31 -9 -64t-32 -53q-29 -38 -78 -56t-106 -18q-20 0 -35.5 0.5t-26.5 1.5q-18 6 -33 6q-3 2 -9.5 3.5t-14 3t-14 3t-9.5 1.5l-24 2q-13 0 -21 -1.5t-14.5 -4.5t-13 -8.5t-15.5 -14.5q-12 18 -12 39q0 30 25 43q-27 39 -27 76z" />
<glyph unicode="&#x1023;" horiz-adv-x="1223" d="M-35 774q0 16 4 31q32 -19 74 -19q55 0 113 21q-1 0 3.5 1t4.5 3q78 23 170 23q48 0 82.5 -0.5t60 -3t43.5 -6.5t33 -11l35 -16q17 10 26 10q95 29 187 29q29 0 59 -3t60 -8q45 -4 84 -16t67.5 -31t45 -44t16.5 -56q0 -461 -2 -471q0 -24 -15 -47q-8 -15 -29.5 -26 t-58.5 -11h-14.5t-19.5 1q-23 2 -34.5 4.5t-18.5 3.5q-3 0 -10.5 3t-16 7t-15 8t-6.5 6q18 14 19 21t4 13v486q0 20 -12 34.5t-30 23.5t-38.5 13.5t-36.5 4.5q-19 0 -41 -5t-41 -15.5t-31 -27.5t-12 -40q0 -53 63 -76q-19 -21 -41 -27q-18 -5 -36 -7.5t-37 -4.5 q-19 0 -33 0.5t-24 1.5q-21 2 -60 24q41 -36 115 -36l51 4v-322q0 -5 0.5 -15.5t3 -21t7.5 -18.5t13 -8q-7 -7 -12 -8.5t-20 -10.5q-12 -8 -38 -11t-65 -3q-37 0 -57.5 11t-32.5 26q-14 30 -14 61v459q0 6 -8 27q-10 26 -39.5 37.5t-75.5 11.5q-51 0 -78 -15 q-43 -24 -43 -55q0 -191 0.5 -287t1.5 -101t1.5 -8t0.5 -5q4 -25 20.5 -47.5t47.5 -22.5h6q55 16 55 72q0 14 -6 26q0 4 -2.5 10.5t-7.5 8.5h-2h2q106 -19 106 -90q0 -80 -119 -113q-43 -6 -79 -6q-57 2 -100.5 14.5t-76.5 34.5l-6 4q-57 50 -57 131v348q0 13 6 31 q45 -22 86 -22q50 0 70 16q-31 -6 -76 -6q-6 0 -8 2q-12 0 -12 2h-7q-4 0 -6 2q-15 0 -26 10q-4 0 -5.5 1t-5.5 3l-4 2q-25 12 -35 32.5t-10 43.5zM100 82q0 11 4 22q24 -10 54 -10l30 2q20 2 35 4.5t25 5.5q4 0 4 3h4q54 16 129 16h62t45.5 -1.5t33.5 -4t25 -8.5l4 -2 q5 -2 10.5 -4t12.5 -5q80 27 163 27q25 0 67.5 -4t83.5 -16t71 -33.5t30 -57.5q0 -395 2 -405v-10q13 -70 47 -80q9 0 11 2q41 12 41 82q0 29 -4 33q0 11 -9 16q38 -7 64 -39q16 -25 16 -78q-12 -93 -88 -112q-17 -7 -61 -7q-8 0 -10 2q-38 0 -72 17q-54 20 -82 84l-4 14 q-5 17 -9 31t-6 26v422q0 18 -12 25q-5 8 -15 14t-21.5 9.5t-23 5.5t-20.5 2q-12 0 -27.5 -4t-30 -11.5t-24.5 -18t-10 -24.5v-6q0 -33 47 -51q-24 -25 -92 -27q-26 0 -43.5 4t-40.5 15q25 -25 84 -25l43 2v-239q0 -8 4.5 -19.5t14.5 -11.5l-5 -4q-4 -3 -22 -8q-6 -5 -25 -9 q-10 -2 -53 -2q-26 0 -43 9q-27 12 -33 34q-2 2 -2 6.5t-2 10.5v327q0 8 -6 21q-22 33 -86 33q-67 0 -84 -33q-8 -13 -8 -16v-254q0 -32 13 -52t46 -20q43 6 43 51q0 10 -6 16q0 11 -9 13q43 -2 62 -21.5t19 -50.5q-6 -26 -22 -40.5t-38 -22t-46.5 -9.5t-45.5 -2 q-45 1 -82 11l-4 2q-29 7 -51 26q-45 33 -45 90v242q0 11 6 21q33 -13 62 -13h26q17 1 31 10q-25 -6 -59 -6q-5 0 -5 2q-12 0 -17 1t-23 8v2l-5 2q-4 0 -4 2h-2q-37 19 -37 51z" />
<glyph unicode="&#x1024;" horiz-adv-x="1481" d="M-33 762q0 16 6 37q31 -19 68 -19q16 0 51 5.5t66 17.5l8 4q34 17 76.5 23t93.5 6q46 0 79.5 -1t58.5 -4t43.5 -8t33.5 -12l37 -20q6 4 11 6t9 6h4q95 33 191 33q50 0 108 -11l4 -2q36 -5 73 -16.5t68 -32t50.5 -51t19.5 -72.5v-837q0 -73 -0.5 -113t-1.5 -47 q-2 -6 -2 -10q0 -14 -5.5 -28.5t-17.5 -26.5t-31 -19.5t-46 -7.5q-48 0 -68 6h-4q-15 8 -21 9.5t-11 3.5q-3 2 -6 2.5t-3 1.5t-3 3.5t-7 5t-7 4.5t-3 3q6 6 9 9.5t5 7t3.5 9t4.5 15.5v1007q0 23 -12 41q-43 49 -104 49q-23 0 -45.5 -7.5t-40 -21t-28.5 -33t-11 -44.5 q0 -29 18.5 -52.5t44.5 -35.5q-10 -19 -39 -33q-49 -12 -80 -12q-14 0 -27.5 1t-27.5 3q-17 5 -30 11.5t-23 14.5q20 -22 50.5 -32.5t59.5 -10.5q11 0 24.5 1.5t29.5 3.5v-379q0 -17 2 -23q0 -43 22 -53l-10 -8q-10 -2 -20.5 -9.5t-18.5 -9.5q-22 -6 -42.5 -8t-43.5 -2 q-28 0 -47.5 8.5t-31.5 24t-17.5 36.5t-5.5 46v540q0 10 -8 31q-22 57 -113 57q-52 0 -78 -16q-43 -28 -43 -65v-447q0 -13 4 -25q2 -14 7 -28.5t13.5 -26t19.5 -19t24 -7.5h8q55 18 55 84q0 21 -6.5 36t-10.5 17q54 -8 83 -41q24 -22 24 -62q0 -54 -33 -90t-84 -47 q-20 -4 -65 -4q-78 0 -123 16q-131 59 -131 199v410q0 15 8 37q45 -27 82 -27q50 0 72 20q-30 -10 -68 -10l-6 2h-14q-5 1 -9 3q-4 1 -6.5 2t-3.5 1h-4q-6 4 -13 5.5t-13 5.5l-5 6h-4v2l-4 2q-25 13 -35 36.5t-10 49.5zM0 -328q2 59 33.5 94.5t91.5 55.5q12 4 31 4h51 q17 0 35 -4t34 -12t29 -20t19 -28q-17 -4 -29 -5t-23 -9q-14 -6 -27 -16.5t-23.5 -23.5t-16.5 -28.5t-6 -31.5l2 -17q13 -73 114 -102q11 -3 18.5 -6t15.5 -6t19 -4.5t27 -1.5h668q42 0 67.5 19.5t38.5 57.5q9 27 9 37v1170q0 28 -17 39q-2 0 -2 2q-8 4 -19.5 8t-23.5 4 l-102 -6q-57 4 -95 14t-61 31q-51 38 -51 104v283q0 13 6 26q41 -18 74 -18q43 0 61 12q-28 -6 -57 -6q-2 0 -2 2h-17q-4 0 -4 2q-10 0 -10 2q-12 0 -16 1q-6 2 -10.5 6t-6.5 4l-2 2q-2 0 -4 2q-43 22 -43 59q0 13 4 25q29 -15 64 -15q56 0 98 19h6l4 2q60 18 148 18 q41 0 70.5 -0.5t51.5 -2.5t37.5 -5t28.5 -8q8 -4 16.5 -6t14.5 -6q74 -39 74 -107q0 -45 55 -63q-10 -13 -35 -23q-2 0 -7 -2t-20 -2q-12 -2 -25.5 -3t-29.5 -1l-35 2q-47 11 -69.5 34t-22.5 70q0 5 -8 21q-20 41 -96 41q-12 0 -30.5 -3t-35.5 -9.5t-29 -17.5t-12 -28 q0 -301 2 -311q0 -28 23 -51q14 -18 43 -18l51 -3q101 -7 122 -14q17 -5 44 -14.5t52.5 -23t44 -31t18.5 -37.5v-1155q0 -126 -121 -193q-47 -29 -215 -29q-709 0 -717 2h-14q-2 2 -13 2q-20 2 -39 5.5t-36 7.5q-2 2 -7 2q-33 10 -71 10l-25 -2q-46 0 -80 -31q-22 25 -22 49 q0 41 33 56q-66 61 -66 153z" />
<glyph unicode="&#x1025;" horiz-adv-x="764" d="M-35 74q0 23 8.5 42.5t28.5 35.5l10 8q2 2 4 2l4 4q3 0 3 2l36 14q9 0 11 2h6q0 2 11 2h19q74 0 113 -43q11 -21 33 -37l16 -10q31 -16 68 -16q45 0 79.5 21t41.5 69q2 2 2 6v486q0 23 -21 45q-34 36 -102 36q-107 0 -121 -81q0 -33 17 -47t47 -25q-20 -20 -41 -27 q-37 -10 -86 -10q-64 0 -103 23.5t-47 62.5l-2 4v23q0 13 7.5 30t18.5 33.5t23.5 31t22.5 21.5q63 40 125 47q23 2 57 3.5t82 1.5q100 0 172 -29l8 -2v-2h2q29 -13 84 -21l29 -2q40 0 74 21q4 -17 4 -35q0 -52 -47 -90h-3v-2l-12 -6q-11 -10 -22 -11h-2q-2 -2 -8.5 -2 t-10.5 -4q-10 0 -12 -2h-23q-22 0 -57 8q7 -7 21 -12.5t36 -7.5l19 -2q36 0 80 29q6 -19 6 -37v-455q-2 -2 -2 -6v-4l-2 -2q0 -11 -2 -13v-6l-2 -2q-3 -3 -7.5 -13.5t-9.5 -23.5v-2q-2 -2 -5 -4t-9 -10l-6 -8l-19 -17l-13.5 -10.5t-7.5 -5.5l-4.5 -3l-4.5 -3q-7 -4 -11 -6 t-16 -6q-2 -2 -6 -2q-8 -5 -17.5 -8t-19.5 -5q-11 -4 -23 -4h-6l-2 -2h-18q-6 -2 -37 -2q-10 -2 -39 -2q-42 0 -64.5 0.5t-27.5 1.5q-31 0 -78 12v-389q0 -6 2.5 -15.5t7.5 -23.5q26 -75 107 -75h6q47 0 98 59q39 37 39 78q0 33 -23 60.5t-51 41.5q-1 0 -2 0.5t-5.5 2 t-14 4.5t-29.5 7q5 16 19 28.5t33.5 20t43.5 11.5t48 4q37 0 69 -9.5t56 -28.5t39 -48.5t16 -69.5q0 -96 -66 -153q35 -17 35 -54q0 -24 -25 -49q-31 31 -94 31q-20 0 -41 -2.5t-43 -7.5q-13 -3 -30 -5t-32 -4.5t-25.5 -4.5t-12.5 -3h-12q-45 0 -77 1.5t-52 3.5 q-25 4 -44.5 9.5t-35.5 12.5q-119 71 -119 195v393l2 2h4q27 8 57 8q48 0 103 -16l-10 4q-11 6 -23 8t-22 6q-35 8 -70 8q-21 0 -41 -6h-5t-3 -1.5t-6.5 -4t-14.5 -8.5q-6 20 -6 39z" />
<glyph unicode="&#x1026;" horiz-adv-x="764" d="M-35 74q0 23 8.5 42.5t28.5 35.5l10 8q2 2 4 2l4 4q3 0 3 2l36 14q9 0 11 2h6q0 2 11 2h19q74 0 113 -43q11 -21 33 -37l16 -10q31 -16 68 -16q45 0 79.5 21t41.5 69q2 2 2 6v486q0 23 -21 45q-34 36 -102 36q-107 0 -121 -81q0 -33 17 -47t47 -25q-20 -20 -41 -27 q-37 -10 -86 -10q-64 0 -103 23.5t-47 62.5l-2 4v23q0 13 7.5 30t18.5 33.5t23.5 31t22.5 21.5q63 40 125 47q23 2 57 3.5t82 1.5q100 0 172 -29l8 -2v-2h2q29 -13 84 -21l29 -2q40 0 74 21q4 -17 4 -35q0 -52 -47 -90h-3v-2l-12 -6q-11 -10 -22 -11h-2q-2 -2 -8.5 -2 t-10.5 -4q-10 0 -12 -2h-23q-22 0 -57 8q7 -7 21 -12.5t36 -7.5l19 -2q36 0 80 29q6 -19 6 -37v-455q-2 -2 -2 -6v-4l-2 -2q0 -11 -2 -13v-6l-2 -2q-3 -3 -7.5 -13.5t-9.5 -23.5v-2q-2 -2 -5 -4t-9 -10l-6 -8l-19 -17l-13.5 -10.5t-7.5 -5.5l-4.5 -3l-4.5 -3q-7 -4 -11 -6 t-16 -6q-2 -2 -6 -2q-8 -5 -17.5 -8t-19.5 -5q-11 -4 -23 -4h-6l-2 -2h-18q-6 -2 -37 -2q-10 -2 -39 -2q-42 0 -64.5 0.5t-27.5 1.5q-31 0 -78 12v-389q0 -6 2.5 -15.5t7.5 -23.5q26 -75 107 -75h6q47 0 98 59q39 37 39 78q0 33 -23 60.5t-51 41.5q-1 0 -2 0.5t-5.5 2 t-14 4.5t-29.5 7q5 16 19 28.5t33.5 20t43.5 11.5t48 4q37 0 69 -9.5t56 -28.5t39 -48.5t16 -69.5q0 -96 -66 -153q35 -17 35 -54q0 -24 -25 -49q-31 31 -94 31q-20 0 -41 -2.5t-43 -7.5q-13 -3 -30 -5t-32 -4.5t-25.5 -4.5t-12.5 -3h-12q-45 0 -77 1.5t-52 3.5 q-25 4 -44.5 9.5t-35.5 12.5q-119 71 -119 195v393l2 2h4q27 8 57 8q48 0 103 -16l-10 4q-11 6 -23 8t-22 6q-35 8 -70 8q-21 0 -41 -6h-5t-3 -1.5t-6.5 -4t-14.5 -8.5q-6 20 -6 39zM57 1368q0 13 4 25q22 -13 56 -13q66 0 106 17h6l4 2q60 18 148 18q42 0 72 -0.5t52 -2.5 t37.5 -5t28.5 -8q105 -39 105 -117v-297q0 -8 -6 -26q-40 18 -74 18q-42 0 -61 -14q21 8 40 8l29 -2h10q0 -4 11 -3.5t28 -9.5h2l4 -2q4 -2 7 -2q41 -24 41 -61q0 -10 -5 -27q-28 15 -63 15q-62 0 -98 -17q-6 0 -6 -2h-5q-60 -20 -149 -20q-41 0 -70.5 0.5t-51 2t-37.5 5 t-29 8.5q-107 42 -107 117v299q0 13 6 26q41 -18 76 -18q43 0 61 12q-28 -6 -57 -6q-2 0 -2 2h-18q-4 1 -7 2l-8 2h-6l-25 9v2h-4l-4 2v2q-41 23 -41 59zM274 967q0 -8 9 -23q23 -39 98 -39q34 0 54.5 8t32 18t15.5 19.5t4 12.5v61q-35 -20 -90 -20l-32 2q22 10 26 18l6 12 l-2 4q-8 9 -19 10t-20 3q-13 0 -22.5 -0.5t-16.5 -3.5q-34 -14 -41 -23q0 -4 -2 -6v-53zM274 1094q20 8 45.5 13t57.5 7q17 0 33 -0.5t30 -1.5l47 -14v196q0 5 -8 21q-20 41 -98 41q-33 0 -54 -7.5t-33 -17.5t-16 -19.5t-4 -13.5v-204z" />
<glyph unicode="&#x1027;" horiz-adv-x="758" d="M-35 764q0 18 4 35q33 -21 72 -21q6 0 18.5 1t28.5 4t32.5 7.5t31.5 10.5h2v2q6 0 6 1t4 1q69 29 168 29q47 0 81 -1t59 -3.5t42.5 -7.5t32.5 -13q7 -1 20 -8q26 -17 43 -33.5t27 -30.5l6 -8q25 -44 25 -70l-2 -16q-20 -97 -113 -141q-110 -53 -207 -53q-54 0 -110 12 q40 6 77 26q3 0 7 2q26 13 49.5 27.5t41.5 32t29 40t13 52.5q0 21 -4.5 37t-20.5 33q-44 32 -96 32q-80 0 -107 -47q-14 -25 -14 -34v-228h-4q-48 -25 -70 -53q8 8 29 18.5t53 24.5q48 22 123 22h35q50 0 98 -15t87 -44t66 -70t34 -94l2 -26q0 -46 -22 -80t-56.5 -57.5 t-76.5 -36.5t-81 -17q-63 -6 -96 -6q-47 0 -81 1t-59.5 4t-43 8t-31.5 12q-75 37 -97 85q-11 23 -16.5 43.5t-5.5 39.5v432q0 18 6 37q45 -27 82 -27q52 0 74 20q-30 -8 -56 -8h-26l-2 2h-10q-2 2 -6.5 2t-4.5 2h-4l-2 2h-4l-27 13l-8 6q-23 17 -34 40.5t-11 49.5zM211 180 q0 -7 4 -24t17 -33.5t37 -29.5t63 -13q38 0 67 16q4 4 7.5 4t9.5 6q37 27 37 66v16q0 81 -68 146q-71 59 -154 59h-20v-213z" />
<glyph unicode="&#x1028;" horiz-adv-x="758" d="M0 -362v1015q0 39 20 74h3q25 34 67 59q43 19 105 34.5t131 15.5q97 0 188 -33v-2h2q26 -13 53 -29t49.5 -36t37 -45.5t14.5 -57.5v-103l2 -81q0 -89 -14.5 -157t-45.5 -116q-68 -104 -172 -104q-25 0 -52 7.5t-49.5 22t-37 36t-14.5 50.5q0 66 51 97q16 11 30.5 21 t28.5 20l21 18q17 17 22 45q0 13 -6 23.5t-15 18t-20.5 11.5t-23.5 4q-26 0 -32 -5.5t-7 -6.5q-14 -11 -14 -24q0 -17 16.5 -27t30.5 -14q-7 -13 -21 -21l-29 -8q-30 0 -51.5 14t-21.5 47q0 20 16 43q-14 8 -14 27q0 13 6 23q9 -12 13.5 -13.5t6.5 -3.5l13 -2q13 0 31 1.5 t36 10.5q64 0 80 -4l8 -2q18 -5 34 -12.5t26 -24.5q24 -28 24 -71q0 -30 -17.5 -59t-41.5 -46q-27 -24 -45 -51v-8q0 -37 37 -37q13 0 29 6t30.5 21t26 40t14.5 62q1 8 1.5 16.5t0.5 18.5q0 63 -33 153q47 8 80 31q-40 -22 -96 -22q-83 0 -121 47q64 28 64 88q0 24 -11 43.5 t-28.5 33t-39.5 20.5t-44 7q-34 0 -72 -18l-7.5 -4.5t-5 -3.5t-5 -6t-6.5 -13v-28.5t-1 -74.5t-1.5 -161t-0.5 -291v-514q0 -21 8 -40.5t22.5 -34.5t33 -24t39.5 -9q33 0 58 22t34 53q6 15 6 33v221q-2 6 -3 14.5t-4 11.5q-4 4 -8.5 7.5t-8.5 7.5q0 1 4.5 4.5t10.5 7.5 t11.5 6.5t7.5 2.5q36 16 66 16h47q35 0 39 -4q28 -5 46.5 -27t23.5 -49q0 -2 0.5 -5t1.5 -8t1.5 -54.5t0.5 -145.5l-2 -4v-16q-2 -2 -2 -7t-2 -8v-8l-5 -10v-6q-5 -10 -6.5 -14.5t-3.5 -6.5l-6 -12l-14 -20v-2q-2 -2 -3 -4.5t-8 -6.5v-2h-2q0 -4 -4 -6t-4 -4h-2v-2 q-4 0 -9 -6t-15 -14h-2l-15 -11l-26 -14q-17 -9 -36 -13.5t-42 -6.5q-1 -3 -8 -3q-17 -2 -37 -3t-43 -1q-59 0 -97.5 1t-58.5 3q-45 5 -84.5 21.5t-69 44t-46.5 65t-17 85.5z" />
<glyph unicode="&#x1029;" horiz-adv-x="1524" d="M0 -360v1558q0 126 121 193q14 7 34 12.5t46 9.5q22 2 55.5 3t81.5 1h772q304 -39 330 -215q0 -19 -8 -41q-20 -42 -58 -67q-61 -45 -121 -45q-75 0 -102 59q38 5 63 21t25 61t-37 78q-68 59 -190 59h-680q-80 0 -107 -76q-10 -27 -10 -39v-1589q0 -10 9 -38 q4 -14 12 -27.5t21.5 -24.5t33.5 -18t47 -7h668q56 0 102 17q131 33 131 121q0 90 -125 116q15 35 55 49.5t88 14.5q37 0 69.5 -9t57.5 -28t40 -48.5t16 -70.5q0 -51 -17.5 -87t-48.5 -66q35 -17 35 -52q0 -27 -25 -53q-31 28 -81 33q-23 0 -47 -2.5t-50 -7.5l-82 -15h-12 q-5 -1 -198.5 -1.5t-575.5 -0.5q-48 0 -81.5 1t-55.5 3q-50 9 -80 23q-121 67 -121 195zM301 172q0 31 14 52.5t36 34.5t49 18.5t53 5.5q23 0 44.5 -3t43.5 -8q23 -7 39 -26q-40 -17 -56 -45q-8 -18 -8 -27q0 -39 37 -65l16 -11q31 -16 70 -16q26 0 46.5 4.5t33.5 15.5 q41 33 41 80v482q0 23 -21 45q-34 36 -102 36q-107 0 -121 -81q0 -20 4 -29q15 -26 60 -43q-19 -19 -39 -27q-41 -10 -88 -10q-101 0 -142 63q-10 21 -10 48q0 14 7 31t18 34t23.5 31t23.5 22q63 40 125 47q23 2 57 3.5t82 1.5q100 0 172 -29l8 -2v-2h2q29 -12 84 -21l29 -2 q40 0 74 21q4 -17 4 -35q0 -52 -47 -90h-2v-2l-13 -6q-11 -10 -22 -11h-2q-2 -2 -8.5 -2t-10.5 -4q-10 0 -12 -2h-23q-22 0 -57 8q7 -7 21 -12.5t36 -7.5l19 -2q36 0 80 29q6 -19 6 -37v-353l24 -6q23 -7 41 -26q-65 -21 -65 -72q13 -82 123 -82q36 0 59.5 11t37 25t19 27.5 t5.5 18.5v549q0 16 -0.5 26t-1.5 15q-3 2 -3 7t-4 11q0 8 -16 17q8 6 16.5 11t18.5 9q12 9 22 10q4 0 6 2h5q9 4 28 4h39q105 0 105 -114v-510q0 -20 -7 -37q-46 29 -84 29q-48 0 -71 -23q35 8 57 8h23l4 -2h8q2 -2 6 -3t6 -1h6q0 -2 2 -2q11 -1 23 -10h2l2 -2h4l4 -4l2 -2 q21 -21 34 -42.5t13 -47.5q0 -19 -4 -35q-26 20 -78 20q-39 0 -108 -22l-4 -2h-4l-2 -2q-41 -20 -83 -23.5t-87 -3.5q-96 0 -143 3q-45 3 -76 20q-2 0 -6.5 1t-10.5 7q-4 -4 -8 -4q-15 -9 -33 -14t-43.5 -7.5t-59.5 -3t-81 -0.5q-61 1 -105.5 8.5t-74.5 18.5l-21 8 q-19 8 -43 21t-44 30.5t-34 39t-14 44.5z" />
<glyph unicode="&#x102a;" horiz-adv-x="2927" d="M-35 70q0 53 47 92q2 0 2 2h4l7 4q9 5 22 10l12 4q4 0 10 0.5t9 3.5h26q28 0 58 -8q-13 15 -60 21h-14q-37 0 -82 -27q-8 19 -8 37v432q0 107 121 168q16 7 35 12t42 8t57.5 4t82.5 1q117 0 180 -27q62 -21 107 -21q47 0 71 21q6 -19 6 -37q0 -43 -34 -76l2 -6 q2 -6 4 -15t2 -20q-2 -8 -2 -9q0 -3 -2 -5q-3 -24 -18.5 -40.5t-36.5 -26.5t-45.5 -14.5t-45.5 -4.5q-37 0 -70.5 5t-60.5 32q41 17 56 45q8 13 8 33t-11.5 37t-29.5 26q-6 0 -12 6q-32 17 -68 17q-91 0 -113 -64q-5 -12 -7.5 -21t-2.5 -16v-481q0 -5 10 -25 q14 -28 41 -42.5t72 -14.5q54 0 80 19q41 30 41 71v137q0 16 -4.5 34t-13.5 33t-23 24.5t-33 9.5h-4q-36 -12 -49 -49q-4 -15 -4 -33q0 -19 4 -35v-2q6 -17 11 -18q-105 18 -105 114v6q29 125 182 125l29 -2q49 0 90.5 -14.5t72 -42t47.5 -66.5t17 -88v-120q0 -40 -17 -73.5 t-44.5 -57.5t-63 -38.5t-73.5 -18.5q-23 -2 -57.5 -3.5t-82.5 -1.5q-98 0 -170 29h-4v2h-6v2h-2l-4 2q-15 8 -36.5 12t-47.5 8l-25 2q-40 0 -72 -22q-4 16 -4 35zM756 -360v1558q0 126 121 193q14 7 33.5 12.5t45.5 9.5q22 2 56 3t82 1h772q304 -39 330 -215 q0 -32 -20 -61.5t-46 -46.5q-61 -45 -121 -45q-76 0 -102 59q39 6 63.5 21.5t24.5 60.5q0 39 -24 65.5t-59.5 42.5t-75 22.5t-69.5 6.5h-679q-82 0 -107 -76q-5 -14 -7.5 -24t-2.5 -15v-1589q0 -23 13.5 -48.5t29.5 -41.5q25 -25 80 -25h667q57 0 103 17q131 33 131 121 q0 90 -125 116q9 20 25.5 32.5t36 19.5t41 9.5t40.5 2.5q37 0 69.5 -9t57.5 -28.5t40 -49t16 -69.5q0 -48 -15.5 -84t-50.5 -69q35 -17 35 -52q0 -27 -25 -53q-33 29 -82 33q-23 0 -46.5 -2.5t-49.5 -7.5l-82 -15h-12q-5 -1 -198.5 -1.5t-575.5 -0.5q-48 0 -82 1t-56 3 q-49 9 -79 23q-121 67 -121 195zM1057 172q0 31 14 52t35.5 34t48.5 19t53 6q14 0 32 -1t36 -5t34 -11.5t25 -19.5q-21 -9 -42 -27.5t-21 -44.5q0 -39 37 -65l16 -11q31 -16 70 -16q24 0 45.5 5.5t38.5 17.5t27 31t10 46v482q0 23 -21 45q-34 36 -102 36q-107 0 -121 -81 q0 -32 16.5 -46.5t46.5 -25.5q-18 -19 -39 -27q-41 -10 -88 -10q-100 0 -141 63q-10 21 -10 48q0 13 7.5 30.5t18 34.5t23 31.5t22.5 21.5q62 40 125 47q23 3 57.5 4t82.5 1q100 0 172 -29l8 -2v-2h2q29 -12 84 -21l29 -2q39 0 73 21q4 -17 4 -35q0 -52 -47 -90h-2v-2 l-12 -6q-11 -10 -23 -11h-2q-2 -2 -5 -2t-7 -1t-6 -3q-10 0 -12 -2h-23q-22 0 -57 8q7 -7 21 -12.5t36 -7.5l19 -2q35 0 79 29q7 -18 7 -37v-353l24 -6q23 -7 41 -26q-65 -21 -65 -72q13 -82 122 -82q15 0 32 3t32.5 9.5t28 17t19.5 26.5q9 20 9 26v549q0 16 -0.5 26 t-1.5 15q-2 2 -2 7q0 6 -4 11q0 8 -16 17q8 6 16.5 11t18.5 9q12 9 22 10q4 0 6 2h4q9 4 29 4h39q101 0 104 -106q24 24 54.5 42.5t60.5 33.5h2v2q95 33 189 33q30 0 65.5 -3t72 -11t71 -21.5t61.5 -34t43 -49.5t16 -68v-551q0 -11 1 -19t3 -13l6 -19q8 -7 15 -12l-2 -2 q-2 -2 -8 -6t-13.5 -8t-14.5 -7t-11 -4l-10 -2t-10 -3q-10 -3 -34 -3h-32q-41 0 -68.5 18.5t-33.5 60.5q-3 20 -3 568q0 29 -14 43q-22 22 -47.5 34.5t-57.5 12.5q-22 0 -44 -7.5t-40 -21t-29.5 -32.5t-11.5 -43q0 -58 64 -88q-13 -21 -41 -33q-18 -8 -74 -14q-32 0 -67 8 t-58 31v-330q0 -19 -6 -37q-46 29 -84 29q-48 0 -71 -23q34 8 57 8h22l5 -2h8q4 -4 12 -4h6q0 -2 2 -2q11 -1 23 -10h2l2 -2h4l4 -4l2 -2q21 -21 34 -42.5t13 -47.5q0 -19 -4 -35q-28 20 -78 20q-41 0 -108 -22l-4 -2h-4l-3 -2q-20 -14 -45 -18.5t-53 -6.5q-17 -2 -35 -2 h-37q-95 0 -142 3q-44 3 -77 20q-8 0 -16 8q-4 -4 -8 -4q-28 -16 -76 -21q-23 -2 -58 -3t-83 -1q-61 1 -106 8t-75 19l-20 8q-19 8 -43 21t-44 30.5t-34 38.5t-14 45zM2193 1368q0 10 5 25q29 -15 63 -15q56 0 98 19q7 0 8 1t3 1q57 18 149 18q82 0 122 -3q41 -3 67 -13 l32 -12q74 -39 74 -107q0 -45 55 -63q-10 -13 -35 -23q-1 0 -7 -2t-19 -2q-23 -4 -55 -4l-37 2q-49 11 -69.5 33.5t-20.5 70.5q0 6 -9 21q-12 20 -36 30.5t-62 10.5q-45 0 -67 -13q-19 -11 -29 -21.5t-10 -23.5v-297q0 -44 22 -67q12 -16 39 -16h6q49 6 49 57q0 6 -2 11.5 t-4 10.5l-4 9q-1 5 -6 6h-2h2q17 -2 33.5 -6.5t29.5 -12.5t21 -21.5t8 -33.5v-10q-7 -30 -25.5 -47t-42.5 -25.5t-51.5 -11t-52.5 -2.5q-18 2 -40 4t-43.5 7t-41 13t-33.5 21q-51 35 -51 104v283q0 13 6 26q41 -18 74 -18q43 0 61 12q-28 -6 -57 -6q-2 0 -2 2h-18q-2 2 -3 2 h-5q-5 0 -5 2q-11 0 -28 9l-13 4v2q-41 23 -41 59z" />
<glyph unicode="&#x102b;" horiz-adv-x="305" d="M-430 1358q0 8 0.5 15.5t1.5 15.5q4 -3 6 -4t6 -5q20 -10 39 -10q47 0 90 25q66 30 136 30q60 0 100.5 -2t62.5 -4q105 -11 158 -86q43 -61 43 -131v-1089q0 -27 2 -35v-10q6 -25 21 -31q-3 -3 -7.5 -6t-8.5 -6q-6 -3 -11 -6q-4 -2 -15 -5.5t-26 -9.5q-23 -4 -68 -4 q-85 0 -102 80q0 10 -2 20v1119q0 17 -6.5 36t-18.5 35t-28 26.5t-35 10.5q-14 0 -23 -4q-8 0 -14 -6q-18 -8 -32.5 -28t-20.5 -38q0 -4 -3 -13t-3 -19v-281l10 -41q6 -7 14 -12l-2 -2q-7 -4 -13 -8t-10 -6q-5 -2 -16.5 -7t-25.5 -10q-23 -4 -68 -4q-47 0 -75.5 25t-28.5 75 v37h-2q0 240 2 242q0 10 2 12q0 10 2 10v4l25.5 -17t37.5 -9q14 0 26 2.5t23 13.5h2l2 4q-21 -8 -43 -8q-24 0 -43.5 10.5t-33 27.5t-20.5 38.5t-7 42.5z" />
<glyph unicode="&#x102c;" horiz-adv-x="459" d="M-303 631q0 33 14.5 58.5t36.5 46t49 36.5t53 29h3v2q94 33 188 33q57 0 114.5 -10.5t108.5 -32.5q105 -45 105 -144v-551q0 -11 1 -19t3 -13l6 -19q6 -7 14 -12l-2 -2q-19 -19 -46.5 -26t-53.5 -7h-33q-42 0 -68 18.5t-33 60.5q-3 18 -3 568q0 30 -15 43q-41 47 -104 47 q-22 0 -44 -7t-39.5 -20.5t-28.5 -33t-11 -43.5q0 -58 63 -88q-13 -21 -41 -33q-18 -8 -73 -14q-33 0 -62.5 7t-52 23t-36 41t-13.5 62z" />
<glyph unicode="&#x102d;" d="M-750 1368q0 10 5 25q28 -15 63 -15q56 0 98 19q6 0 7.5 1t3.5 1q61 18 149 18q41 0 70.5 -0.5t51 -2.5t37.5 -5t29 -8q107 -39 107 -117v-297q0 -8 -6 -26q-41 18 -74 18q-44 0 -63 -14q24 8 41 8l38 -2l3 -2h8q0 -2 8 -3t20 -8q4 0 4 -2h5l4 -4q41 -23 41 -59 q0 -14 -4 -27q-29 15 -64 15q-62 0 -98 -17l-10 -2q-60 -20 -148 -20q-42 0 -72 0.5t-52 2t-37.5 5t-28.5 8.5q-105 42 -105 117v299q0 13 6 26q40 -18 74 -18q43 0 61 12q-29 -6 -57 -6q-2 0 -2 2h-18q-4 1 -7 2l-6 2q-12 0 -28 9l-9 2v2h-4v2q-41 23 -41 59zM-530 967 q0 -7 8 -23q21 -39 98 -39q33 0 54 8t33 18t16 19.5t4 12.5v331q0 4 -4 14t-16 20.5t-33 19t-54 8.5q-12 0 -30.5 -2.5t-35 -9.5t-28.5 -18t-12 -28v-331z" />
<glyph unicode="&#x102e;" d="M-750 1368q0 10 5 25q22 -13 55 -13q66 0 106 17h6l5 2q29 11 65.5 14.5t81.5 3.5q42 0 72 -0.5t52 -2.5t37.5 -5t28.5 -8q105 -39 105 -117v-297q0 -8 -6 -26q-41 18 -74 18q-42 0 -61 -14q21 8 41 8l28 -2h10q0 -4 11 -3.5t28 -9.5h2l5 -2q2 -2 3 -2h3q41 -24 41 -61 q0 -14 -4 -27q-29 15 -64 15q-62 0 -98 -17q-6 0 -6 -2h-4q-62 -20 -150 -20q-41 0 -70.5 0.5t-51.5 2t-37.5 5t-28.5 8.5q-107 42 -107 117v299q0 13 6 26q40 -18 76 -18q43 0 61 12q-29 -6 -57 -6q-2 0 -2 2h-18q-2 2 -3 2h-6.5t-5.5 2h-6l-24 9v2h-5l-4 2v2 q-41 23 -41 59zM-532 967q0 -9 8 -23q22 -39 98 -39q33 0 54 8t33 18t16 19.5t4 12.5v61q-35 -20 -91 -20l-32 2q22 10 26 18l6 12l-2 4q-8 9 -19 10t-20 3q-9 0 -20.5 -1.5t-22.5 -4.5t-20.5 -8t-15.5 -13q0 -4 -2 -6v-53zM-532 1094q19 8 44.5 13t57.5 7q17 0 33 -0.5 t30 -1.5l48 -14v196q0 6 -9 21q-20 41 -98 41q-34 0 -54.5 -7.5t-32 -17.5t-15.5 -19.5t-4 -13.5v-204z" />
<glyph unicode="&#x102f;" d="M-646 -403q9 0 16.5 -1t15.5 -2q7 -2 14 -3t13 -3q13 -3 23 -7t18 -10q6 -5 10.5 -12t5.5 -15q2 -9 -1 -13t-6 -5q-2 8 -8 15.5t-13 13.5t-14 9t-11 5q2 -2 7 -6t11 -9q6 -6 11.5 -13t8.5 -18q-6 -3 -10 -3t-10 2q-9 5 -16 13q-5 6 -10.5 14.5t-12.5 18.5q-8 9 -17 17 q-5 4 -11 7t-14 5zM-559 -47q2 3 10 9q3 2 6.5 4t7.5 4q3 1 9 5l16 6t18 5q5 1 14 2t19.5 2t20 1h15.5q36 0 57 -12q19 -11 31 -31t13 -38q3 -20 3 -33v-212q-8 -1 -14.5 -1.5t-13.5 -1.5q-19 -2 -41 -9h-1q-11 -4 -20 -7t-17 -8q-32 -15 -57 -39q-22 -20 -36 -43l-3 -6 q-8 25 -11 47q-1 8 -1.5 17t-0.5 18v34v15v197v10.5t-1 12.5q0 12 -3 23q-2 11 -7 19q-5 9 -13 10zM-529 -510q1 9 6 24q2 8 6 16.5t10 18.5q6 9 14.5 19t19.5 21q11 10 24 19.5t30 17.5q8 4 16.5 7.5t18.5 6.5q9 2 18.5 4t20.5 4q41 6 86 0q44 -6 89 -23t86.5 -42t79.5 -54 q38 -28 73.5 -55t70.5 -49q32 -22 66 -38q16 -7 32 -12q17 -6 31 -9q32 -7 62 -8t57 3q26 4 49.5 9.5t45.5 12.5q22 8 41 15t37 14q17 7 32 12.5t29 7.5q28 6 44 -4q18 -13 19 -40q0 -15 -5 -33.5t-18 -39.5q-13 -22 -33.5 -45t-51.5 -44q-33 -22 -72 -38q-42 -17 -91 -24 q-46 -6 -96.5 -2t-101.5 21q-13 5 -25 9.5t-25 10.5l-24 12t-23 14q-23 14 -43 29.5t-40 32.5q-38 33 -69.5 67.5t-61.5 66.5t-59.5 59.5t-60.5 47.5q-64 43 -128 49q-31 4 -59 -3t-50 -18q-11 -6 -20.5 -12.5t-17.5 -13.5q-14 -14 -23 -26l-7 -10.5t-5 -8.5t-3 -5 q0 -1 -1 -2v8zM-509 -516l1 1h1q1 0 2 1q5 3 13 6t19.5 6.5t25.5 5.5q28 5 59 0q13 -1 28 -8q12 -4 23 -13l4 -4l4 -4q2 -1 2.5 -2t1.5 -2l2 -2q0 -1 0.5 -1t0.5 -1q3 -4 4.5 -8t3.5 -7q1 -1 1 -3q1 -1 1 -3q1 -2 1 -4v-2l1 -1v-1l-6 12q-2 3 -3.5 6.5t-4.5 7.5t-6.5 8 t-8.5 8q-10 9 -22 13q-15 7 -28 8q-14 3 -29 3t-29 -2t-25.5 -4.5t-19.5 -5.5t-13 -6q-3 -3 -3 -2h-1zM-489 -488q2 2 5 4q6 6 15 11q10 6 24 12t32 11q36 10 76 8q20 -2 38.5 -7t32.5 -13t24 -16.5t16 -16.5q11 -17 5 -21q-5 -3 -17 7t-39 25q-13 7 -29 12.5t-33 8.5 q-18 2 -36.5 2.5t-35.5 -1.5t-31 -6t-25 -9q-5 -2 -9 -4t-7 -4l-4 -2q-1 -1 -2 -1z" />
<glyph unicode="&#x1030;" d="M-794 -403q8 0 15.5 -1t15.5 -2q15 -3 27 -6q13 -3 23 -7t18 -10q14 -11 17 -27q0 -10 -2 -13q-1 -4 -6 -5q-2 8 -7.5 15.5t-12.5 13.5q-8 6 -15 9t-11 5q2 -2 7 -6t11 -9q6 -6 11.5 -13t8.5 -18q-6 -3 -10 -3t-10 2q-8 4 -16 13q-5 6 -10 14.5t-13 18.5q-4 5 -8 9t-9 8 t-11 7t-13 5zM-692 -47q2 4 10 8q3 2 6 4.5t8 4.5q2 1 4.5 2t4.5 2q15 8 34 12q5 1 14 2t19 1.5t19.5 1t15.5 0.5q37 0 58 -12q10 -7 18 -14.5t13 -16.5q10 -17 13 -38q2 -10 2 -18v-16v-211q-22 0 -43 -3q-17 -1 -41 -9q-11 -4 -20 -7t-17 -8q-32 -15 -57 -39 q-22 -20 -36 -43q-1 -1 -1 -2v112v14v197v11.5t-1 12.5q0 12 -3 23q-1 5 -3 9.5t-4 9.5q-5 9 -13 10zM-678 -517q0 4 1 7q0 7 5 24q2 6 4 9q2 6 5 12.5t8 13.5q6 9 14 19t19 21q11 10 24.5 19.5t29.5 17.5q8 4 17 7.5t18 6.5q10 2 19.5 4t19.5 4q5 1 10 1.5t10 0.5 q5 1 10.5 1h10.5q22 0 45 -3q4 0 6 -1q21 -3 42 -8.5t42 -13.5q45 -17 86.5 -42t79.5 -54q32 -23 61 -45.5t58 -42.5q6 -5 12 -8.5t12 -7.5q17 -11 33.5 -20.5t33.5 -17.5q8 -3 16 -6.5t16 -5.5q15 -6 31 -9q18 -5 36.5 -6.5t35.5 -1.5q25 0 46 3q26 4 49.5 9.5t45.5 12.5 q22 8 41.5 15t36.5 14t32 12.5t29 7.5q2 1 5 1t5 1h9h7q3 0 4 -1q2 0 8 -2l6 -3q19 -13 19 -40q2 -32 -23 -73q-12 -22 -33 -45t-52 -44q-32 -22 -72 -38t-91 -24q-27 -3 -57 -3q-21 0 -43 1.5t-44 6.5l-27 6q-7 2 -13 4t-13 4q-13 5 -25.5 9.5t-24.5 10.5q-13 6 -24.5 12 t-22.5 14q-23 14 -43.5 29.5t-39.5 32.5q-38 33 -70 67.5t-62 66.5q-29 32 -58.5 59.5t-61.5 47.5q-6 4 -11.5 7.5t-11.5 7.5q-33 18 -66 27q-10 2 -19.5 4t-18.5 3q-5 1 -10.5 1h-10.5q-27 0 -53 -8q-8 -2 -11 -3q-7 -2 -13 -5l-12 -6q-20 -11 -37 -26q-14 -12 -24 -26 q-1 -2 -2 -3.5t-2 -3.5q-3 -4 -4.5 -7t-3.5 -5l-4 -7v1zM-658 -516l1 1h1q1 0 2 1q5 3 13 6t19.5 6.5t25.5 5.5q29 5 59 0q15 -2 28 -8q12 -4 23 -13q4 -3 9 -8q1 -1 1.5 -2t1.5 -2l2 -2q0 -1 0.5 -1t0.5 -1q6 -8 8 -15q1 -1 1 -1.5t1 -1.5q0 -2 1 -3q0 -2 0.5 -2.5 t0.5 -1.5v-4q-1 1 -1 3l-2 4t-2 5q-4 7 -9 14q-6 9 -15 16q-11 9 -22 13q-13 6 -27 8q-15 3 -29.5 3t-28.5 -2t-26 -4.5t-20 -5.5q-10 -4 -13 -6q-1 -1 -1.5 -1t-1.5 -1h-1zM-637 -488q2 2 5 4q2 2 5.5 5t8.5 6q10 6 24.5 12t31.5 11q36 10 77 8q20 -2 38 -7t33 -13 q14 -8 24 -16.5t15 -16.5q10 -17 6 -21q-5 -3 -17.5 7t-39.5 25q-13 7 -28.5 12.5t-33.5 8.5q-17 2 -35.5 2.5t-35.5 -1.5t-31.5 -6t-25.5 -9q-5 -2 -9 -4t-6 -4zM-425 -47q0 2 10 9q2 2 5.5 4t7.5 4q2 1 4.5 2t5.5 3q16 7 33 11q5 1 14 2t19.5 2t20 1h15.5q36 0 57 -12 q19 -11 31 -31q11 -17 13 -38q3 -20 3 -33v-231q0 -8 0.5 -15t1.5 -15q0 -4 1 -6v-5q2 -11 6 -24t11 -25q-30 22 -67.5 44t-79.5 38q-23 8 -44.5 14t-44.5 9v5v15v197v23q-1 6 -1.5 12t-1.5 11q-3 12 -7 19q-7 9 -13 10z" />
<glyph unicode="&#x1031;" horiz-adv-x="764" d="M-35 70q0 53 47 92q2 0 2 2h4l7 4q9 5 22 10l12 4q15 0 19 4h26q28 0 58 -8q-13 15 -60 21h-14q-37 0 -82 -27q-8 19 -8 37v432q0 107 121 168q15 7 33.5 12t43.5 8t59 4t81 1q117 0 180 -27q62 -21 107 -21q47 0 71 21q6 -19 6 -37q0 -43 -34 -76l2 -6q2 -6 4 -15t2 -20 q-2 -6 -2 -9t-2 -5q-5 -25 -20 -41.5t-35.5 -26.5t-44.5 -14t-46 -4q-37 0 -70.5 5t-60.5 32q41 17 56 45q8 13 8 33t-11.5 37t-29.5 26q-6 0 -12 6q-32 17 -68 17q-91 0 -113 -64q-5 -12 -7.5 -21t-2.5 -16v-481q0 -5 10 -25q14 -28 41 -42.5t72 -14.5q54 0 80 19 q41 30 41 71v137q0 16 -4.5 34t-13.5 33t-23 24.5t-33 9.5h-4q-36 -12 -49 -49q-4 -15 -4 -33q0 -19 4 -35v-2q6 -17 11 -18q-105 18 -105 114v6q29 125 182 125l29 -2q55 0 97 -16.5t71 -45t44 -67t15 -82.5v-120q0 -110 -121 -168q-15 -7 -33.5 -12t-43.5 -8t-59 -4 t-81 -1q-98 0 -170 29h-4v2h-6v2h-2l-4 2q-15 8 -36.5 12t-47.5 8l-25 2q-40 0 -72 -22q-4 16 -4 35z" />
<glyph unicode="&#x1032;" d="M-623 1206q0 17 2 23q0 13 3 14v2q7 30 20 51l29 41q37 45 77 45q33 -2 50 -14q14 -11 61.5 -48.5t132.5 -100.5l23 -17q17 -17 41 -24q23 -17 49 -17q18 0 31.5 12.5t13.5 28.5q0 25 -12 31q12 -2 26.5 -10t26.5 -20.5t20.5 -29t8.5 -36.5q0 -37 -33 -76 q-70 -82 -166 -82q-74 0 -135 49l-39 31q-83 66 -126.5 98.5t-47.5 34.5q-12 15 -27.5 17.5t-19.5 2.5z" />
<glyph unicode="&#x1033;" d="M-750 1368q0 10 5 25q28 -15 63 -15q56 0 98 19q6 0 7.5 1t3.5 1q61 18 149 18q41 0 70.5 -0.5t51 -2.5t37.5 -5t29 -8q107 -39 107 -117v-297q0 -8 -6 -26q-41 18 -74 18q-44 0 -63 -14q24 8 41 8l38 -2l3 -2h8q0 -2 8 -3t20 -8q4 0 4 -2h5l4 -4q41 -23 41 -59 q0 -14 -4 -27q-29 15 -64 15q-62 0 -98 -17l-10 -2q-60 -20 -148 -20q-42 0 -72 0.5t-52 2t-37.5 5t-28.5 8.5q-105 42 -105 117v299q0 13 6 26q40 -18 74 -18q43 0 61 12q-29 -6 -57 -6q-2 0 -2 2h-18q-4 1 -7 2l-6 2q-12 0 -28 9l-9 2v2h-4v2q-41 23 -41 59zM-530 967 q0 -9 8 -23q22 -39 98 -39q33 0 54 8t33 18t16 19.5t4 12.5v331q0 4 -4 14t-16 20.5t-33 19t-54 8.5q-12 0 -30.5 -2.5t-35 -9.5t-28.5 -18t-12 -28v-331zM-508 1110q0 29 21 53q4 -20 14 -34.5t21 -23.5t21 -13.5t15 -4.5q-10 7 -18.5 13.5t-16.5 13.5v2h-2l-4 6h-2l-4 6v5 l-4 2v4h-2v2q-6 12 -6 18h-2v8h-2v2q0 57 39 76q4 -17 18.5 -33.5t38.5 -35.5q41 -32 41 -70q0 -35 -24.5 -59.5t-61.5 -24.5q-31 0 -55.5 24.5t-24.5 63.5z" />
</font>
</defs>
</svg>
