<?xml version="1.0" standalone="no"?>
<!DOCTYPE svg PUBLIC "-//W3C//DTD SVG 1.1//EN" "http://www.w3.org/Graphics/SVG/1.1/DTD/svg11.dtd" >
<svg xmlns="http://www.w3.org/2000/svg" xmlns:xlink="http://www.w3.org/1999/xlink" version="1.1">
<metadata></metadata>
<defs>
<font id="a_ying_70normal" horiz-adv-x="802" >
<font-face units-per-em="2048" ascent="1638" descent="-410" />
<missing-glyph horiz-adv-x="509" />
<glyph unicode="&#xd;" horiz-adv-x="509" />
<glyph unicode=" "  horiz-adv-x="509" />
<glyph unicode="&#x09;" horiz-adv-x="509" />
<glyph unicode="&#xa0;" horiz-adv-x="509" />
<glyph unicode="!" horiz-adv-x="1392" d="M20 561q8 -27 43 -72q66 -72 195 -71q47 0 96 41q57 51 58 110q0 49 -19 74q89 -12 148 -78q78 -74 77 -184q0 -111 -71.5 -187.5t-190.5 -76.5q-174 0 -250 186l-83 -104q35 -78 139 -144q23 -6 31 -16l63 -25l45 -10l55 -4q94 0 174 47q88 43 146 125q55 -76 144 -124 t173 -48q150 0 264.5 110.5t114.5 270.5t-109.5 270.5t-269.5 110.5h-45l-30 -10l-19 -134l45 11l47 4q55 0 99 -19q43 -12 81 -57q78 -74 78 -176q0 -106 -74.5 -184t-181.5 -78q-102 0 -179 74.5t-77 187.5q0 160 -111.5 270.5t-269.5 110.5q-227 0 -336 -201zM182 557 q0 16 17 31q29 29 63 41l45 12l12 -57q0 -25 -22 -47l-53 -19q-61 0 -62 39z" />
<glyph unicode="&#x22;" horiz-adv-x="493" d="M59 1157l2 215l39 234l125 -23l-41 -231l-75 -203zM279 1116l2 219l41 232l122 -21l-43 -233l-73 -205z" />
<glyph unicode="#" horiz-adv-x="1437" d="M20 381q0 152 111 266.5t270 114.5q104 0 179 -40t139 -134q115 174 317 174q154 0 267.5 -111.5t113.5 -269.5q0 -152 -111.5 -266.5t-269.5 -114.5l-73 6l-11 135l39 -10l45 -4q102 0 179 74.5t77 179.5q0 94 -73.5 174t-182.5 80q-102 0 -178 -76t-76 -178 q0 -152 -111.5 -266.5t-269.5 -114.5q-150 0 -265.5 110.5t-115.5 270.5zM147 381q0 -96 74 -175t180 -79t180 71.5t74 182.5q0 96 -72.5 175t-181.5 79q-98 0 -176 -75t-78 -179zM305 383q0 21 10 39q29 45 72 45q20 0 43 -14q43 -23 43 -70q0 -18 -12 -43q-23 -43 -72 -43 q-25 0 -41 10q-43 29 -43 76z" />
<glyph unicode="$" horiz-adv-x="1437" d="M20 381q0 152 111 266.5t270 114.5q197 0 318 -170q117 170 317 170q154 0 267.5 -111.5t113.5 -269.5q0 -152 -111.5 -266.5t-269.5 -114.5q-197 0 -317 172q-111 -172 -318 -172q-150 0 -265.5 110.5t-115.5 270.5zM147 381q0 -96 74 -175t180 -79t180 71.5t74 182.5 q0 96 -72.5 175t-181.5 79q-98 0 -176 -75t-78 -179zM305 383q0 21 10 39q29 45 72 45q20 0 43 -14q43 -23 43 -70q0 -18 -12 -43q-23 -43 -72 -43q-25 0 -41 10q-43 29 -43 76zM782 381q0 -92 74 -173t180 -81q102 0 179 74.5t77 179.5q0 94 -73.5 174t-182.5 80 q-102 0 -178 -76t-76 -178z" />
<glyph unicode="%" horiz-adv-x="1437" d="M20 381q0 147 111 263t270 116q98 0 183 -49q63 -35 135 -125q113 174 317 174q154 0 267.5 -111.5t113.5 -267.5q0 -141 -108.5 -261t-276.5 -120q-33 0 -100 37q-45 31 -76 98l-4 33q6 51 45 92l21 14l40 19l33 8l45 4q53 0 119 -43l37 -33l25 -39q78 82 77 191 q0 102 -73.5 178t-184.5 76q-100 0 -177 -75t-77 -179q0 -152 -111.5 -266.5t-269.5 -114.5q-150 0 -265.5 110.5t-115.5 270.5zM145 381q0 -102 75 -179t181 -77q102 0 179 74.5t77 181.5q0 96 -72.5 175t-183.5 79q-102 0 -179 -75t-77 -179zM295 391l6 31q6 18 29.5 29.5 t50.5 15.5q29 0 49 -14q43 -31 43 -72q0 -16 -12 -41q-23 -43 -72 -43q-20 0 -41 10q-53 25 -53 84zM973 172q0 -16 22 -41q15 -8 52 -14q33 0 50 7t29 38l-6 12l-16 19l-14 12q-18 12 -48 12q-35 0 -52 -7t-17 -38z" />
<glyph unicode="&#x26;" horiz-adv-x="6" d="M-760 1116q0 125 96.5 223.5t225.5 98.5q121 0 222 -97.5t101 -224.5q0 -123 -95 -223t-228 -100q-125 0 -223.5 96t-98.5 227zM-647 1116q0 -92 61 -147q59 -61 148 -62q92 0 147 62q62 55 62 147q0 86 -62 148q-55 61 -147 61q-86 0 -147.5 -61.5t-61.5 -147.5z M-178 1366q0 55 38 92t95 37q55 0 92 -38t37 -95q0 -55 -38 -92t-95 -37q-55 0 -92 38t-37 95zM-100 1368q0 -23 18 -41q18 -12 35 -12q25 0 43 20q6 10 10 33q0 23 -17.5 37t-35.5 16q-23 0 -37 -17.5t-16 -35.5z" />
<glyph unicode="'" horiz-adv-x="1368" d="M23 371q0 31 2 49t15 66.5t44 93.5q12 12 59 -13l64 -37l26 -4q66 0 86 64l5 24q0 68 -64 88l-27 5q-29 0 -49 -15l33 111l35 4q43 0 86 -25q104 -59 104 -170q0 -27 -4 -44t-18 -44q-53 -98 -168 -98q-43 0 -92 18l-8 -26l-5 -41l7 -62q6 -27 28 -65q53 -86 154 -121 l29 -6l30 -2q35 0 64.5 10t65.5 28.5t65 45.5q29 23 45 53q-8 27 -14.5 61.5t-6.5 65.5q0 80 27 141q25 66 86 123q104 109 274 109q141 0 256 -82l27 -25l29 -28q18 -18 33 -48l-78 -90q-25 63 -97 105l-84 33q-41 12 -86 12q-117 0 -196 -74l-35 -43l-20 -41l-17 -57v-29 q0 -47 6 -59l52 45q25 18 67 37l53 16l56 10h34q117 0 207 -37q49 -18 107 -88l20 -32l13 -35q0 -94 -134 -185q-94 -66 -213 -65q-43 0 -66.5 6t-40.5 12.5t-48 22.5q-88 43 -133 108q-41 -59 -127 -108q-86 -45 -183 -45l-51 2q-16 0 -53 12q-156 47 -227 182 q-49 90 -49 181zM473 -449q0 45 29 84q47 59 116 60q20 0 39 -6q-16 4 -28 4q-63 0 -82 -53q-6 -18 -6 -35q0 -49 51 -62q16 -8 39 -8q6 0 25.5 -2t33.5 -2q49 0 67.5 11.5t30 41t11.5 68.5v348h119v-348q0 -78 -9 -113q-16 -70 -63 -102q-20 -14 -57 -20.5t-72 -6.5 q-27 0 -48.5 1t-37.5 1q-59 -6 -103 25q-55 43 -55 114zM786 233q18 -41 97 -86q63 -29 118 -28q74 0 144 42.5t72 71.5q0 33 -84 72l-64 17l-68 10q-41 0 -63 -6q-20 0 -64 -23q-74 -25 -88 -70z" />
<glyph unicode="(" horiz-adv-x="522" d="M59 379q0 557 525 919q-369 -424 -369 -921q0 -504 371 -920q-267 185 -398 410q-84 156 -110 274q-18 84 -19 238z" />
<glyph unicode=")" horiz-adv-x="479" d="M-98 -543q371 418 370 920q0 498 -368 921q524 -358 524 -919q0 -152 -18 -238q-25 -113 -111 -274q-129 -223 -397 -410z" />
<glyph unicode="*" horiz-adv-x="958" d="M88 270q0 55 113 99q170 37 245 92l-20 14l-223 76q-115 25 -115 96l6 31q18 45 68 45q43 0 84 -41q96 -106 217 -190v28l-6 94q0 18 -8 43l-15 50q-25 84 -24 116q0 55 34 74l45 10q29 0 58 -26l16 -58l-39 -157l-14 -64l-4 -55v-58l14 9l25 14l24 20l80 72 q111 123 150 123q25 0 52.5 -20.5t27.5 -59.5q0 -66 -91 -90l-83 -20l-70 -23q-63 -18 -113 -55l17 -10q72 -41 235 -80q106 -18 107 -93q0 -39 -21 -61l-26 -14l-33 -4q-35 0 -125 92q-68 84 -156 133l-14 8v-18l2 -103l2 -37l12 -34l45 -138q0 -29 -26 -61l-27 -21l-33 -6 q-33 0 -55 21q-10 14 -23 63l41 154l15 69l6 50l-2 43l-2 18l-86 -61l-39 -27l-41 -47l-45 -53l-31 -27l-55 -16q-31 0 -60 22z" />
<glyph unicode="+" horiz-adv-x="909" d="M84 309v123h311v330h123v-330h326v-123h-326v-309h-123v309h-311z" />
<glyph unicode="," horiz-adv-x="385" d="M18 168q0 68 50 120t118 52q80 0 129 -49q49 -43 50 -127v-29l-5 -43l-20 -86l-14 -37l-31 -67q-68 -141 -172 -209h-35q6 23 33 51l51 84q47 94 47 145q0 25 -33 25q-61 0 -118 51q-49 49 -50 119zM102 166q0 -20 24 -46t56 -30q88 0 88 76q0 62 -82 76 q-27 0 -56.5 -17.5t-29.5 -58.5z" />
<glyph unicode="-" horiz-adv-x="841" d="M111 322h604v118h-604v-118z" />
<glyph unicode="." horiz-adv-x="380" d="M23 166q0 66 50 118t120 52q68 0 120 -47q47 -53 47 -123q0 -55 -49 -121q-51 -51 -118 -51q-55 0 -121 49q-49 53 -49 123zM111 166q0 -23 18 -53l25 -17l39 -10q27 0 46 17.5t35 62.5q0 20 -17 44t-64 38q-25 0 -50.5 -19.5t-31.5 -62.5z" />
<glyph unicode="/" horiz-adv-x="442" d="M41 0v762h119v-762h-119zM281 0v762h120v-762h-120z" />
<glyph unicode="0" d="M20 422q0 166 110.5 293t270.5 127q154 0 267.5 -123t113.5 -297q0 -166 -111.5 -293t-269.5 -127q-150 0 -265.5 122t-115.5 298zM147 422q0 -104 74 -191.5t180 -87.5t180 79t74 200q0 104 -74 192t-180 88q-96 0 -175 -83.5t-79 -196.5z" />
<glyph unicode="1" d="M131 442v123q201 98 293 254h80v-819h-121v592q-84 -76 -252 -150z" />
<glyph unicode="2" horiz-adv-x="782" d="M63 524q0 139 87.5 217t244.5 78q123 0 226 -74q43 -31 62 -88t19 -118q0 -25 -73 -115q-47 -53 -127 -115q-37 -27 -57.5 -44t-82.5 -72l-75 -76l422 2l4 -115l-633 2q0 29 11 58.5t34 54.5q39 53 184 176l140 117l63 57q63 59 63 106q0 46 -47 93q-49 49 -137 49 q-199 0 -198 -207z" />
<glyph unicode="3" d="M78 268l127 15q18 -92 65 -140q51 -41 133 -41q80 0 148 62q25 25 44 56.5t19 78.5q0 37 -56 55.5t-116 18.5l-55 -2l-33 -6l2 104l33 -2h74q31 0 66.5 23.5t35.5 62.5q0 76 -47 117q-43 43 -117 43q-141 0 -186 -181l-123 21q43 264 307 264q113 0 205 -72.5t92 -199.5 l-6 -41q-10 -44 -35 -64q31 -2 62 -34.5t31 -104.5q0 -70 -23 -115q-12 -25 -29.5 -47t-48.5 -51q-100 -88 -244 -88q-84 0 -129 16.5t-91 58.5t-74 85q-23 43 -31 108z" />
<glyph unicode="4" d="M59 182v115l463 541h105v-541h137v-115h-137v-182h-127v182h-441zM180 307h322v363z" />
<glyph unicode="5" d="M61 264l132 10q12 -70 71 -110q55 -43 125 -43q59 0 104.5 18.5t77.5 71.5l27 57l8 64q0 51 -22 76l-35 45q-55 68 -162 67q-115 0 -184 -96l-121 14l102 381h506v-119h-407l-54 -133q84 66 191 66q127 0 225 -98q45 -45 69.5 -87t24.5 -108q0 -68 -21.5 -121t-76.5 -115 q-96 -104 -252 -104q-131 0 -221 72q-45 35 -68 75q-10 27 -19.5 54.5t-19.5 62.5z" />
<glyph unicode="6" d="M63 352q0 262 91 367q84 96 276 96q113 0 182.5 -54t94.5 -138l-123 -11q-23 47 -54 70q-41 31 -108 31q-113 0 -176 -82q-57 -82 -58 -271q18 78 95 111q59 25 151 25q70 0 131.5 -18.5t104.5 -65.5q27 -33 39 -74q6 -35 6 -92q0 -51 -10.5 -78t-59.5 -88 q-33 -39 -92 -64q-61 -16 -135 -16q-176 0 -265.5 80t-89.5 272zM252 236q0 -63 70 -115q41 -25 94 -25q94 1 149 62q27 33 27 80q0 66 -64 114q-45 29 -100 29q-35 0 -45 -4q-14 0 -42 -12.5t-62 -51.5q-27 -33 -27 -77z" />
<glyph unicode="7" d="M63 705v116h662v-96q-74 -74 -152 -190q-66 -104 -124 -236l-84 -215l-29 -84h-129l14 70l21 65l63 160l53 121l48 94q25 45 60.5 96t74.5 99h-478z" />
<glyph unicode="8" d="M72 270q0 59 30.5 98.5t87.5 69.5l-45 31q-31 29 -30 84q0 152 145 225q47 23 148 37q119 0 204 -72q90 -68 90 -194q0 -37 -13 -57.5t-85 -59.5q70 -10 105.5 -52t35.5 -114q0 -55 -24 -98q-12 -25 -74 -80q-100 -88 -239 -88q-150 0 -242 84q-43 39 -72 82 q-23 41 -22 104zM211 272q0 -72 56.5 -120t131.5 -48q74 0 140 50q25 23 38 55t13 57q0 53 -62 88q-61 31 -129 31q-55 0 -121.5 -29.5t-66.5 -83.5zM246 573q0 -39 53 -79q53 -33 109 -33q51 0 102 33t51 88t-51 89t-109 34q-51 0 -103 -36t-52 -96z" />
<glyph unicode="9" d="M88 569q0 55 9 82t26.5 46.5t34.5 37.5q37 43 92 61.5t135 18.5q178 0 266 -82t88 -270q0 -262 -88 -362.5t-278 -100.5q-111 0 -189 55q-68 55 -88 138l123 10q23 -47 53 -70q41 -31 109 -31q111 0 176 80q57 82 57 273q-18 -78 -94 -111q-59 -25 -151 -25 q-72 0 -131.5 18.5t-104.5 65.5q-31 37 -38 73t-7 93zM205 569q0 -66 63 -114q47 -29 103 -29q47 0 80 16q42 12 65 47l19 31q10 23 12 51q0 63 -70 115q-43 25 -96 25q-94 0 -148 -62q-29 -35 -28 -80z" />
<glyph unicode=":" horiz-adv-x="391" d="M18 178q0 72 52 123l30 25l15 8l32 12l46 8q78 0 124 -53q53 -53 54 -123q0 -74 -52.5 -126t-125.5 -52q-68 0 -121 51l-23 25l-20 37q-10 27 -11 65zM18 584q0 74 52 125l49 34q35 19 74 19q78 0 124 -53q53 -49 54 -125q0 -72 -51.5 -124t-126.5 -52q-68 0 -121 51 l-23 24l-18 31q-12 31 -13 70zM111 178q0 -29 18 -53q18 -18 64 -31q31 0 49 19l22 28l15 37q0 25 -25 49q-16 21 -61 33q-29 0 -47.5 -18.5t-34.5 -63.5zM111 584q0 -29 22 -52q18 -25 60 -30q31 0 53 20l22 29l11 33q0 23 -21.5 48.5t-64.5 33.5q-29 0 -52 -21 q-18 -12 -30 -61z" />
<glyph unicode=";" horiz-adv-x="387" d="M14 168q0 68 50 120t120 52q80 0 129 -49q49 -43 49 -127v-29l-6 -43l-22 -86l-12 -37l-31 -67q-72 -145 -170 -209h-35q6 23 33 51l51 84q47 94 47 145q0 23 -33 25q-61 0 -121 51q-23 23 -36 51.5t-13 67.5zM18 584q0 72 49 125t123 53q78 0 125 -53q51 -51 52 -125 q0 -72 -51.5 -124t-125.5 -52q-68 0 -120 51t-52 125zM100 166q0 -23 25 -53q18 -16 55 -23q88 0 88 76q0 56 -82 76q-27 0 -56.5 -17.5t-29.5 -58.5zM109 584l2 -23q0 -10 17 -29.5t62 -29.5q31 0 54 22q18 23 30 60q0 31 -22 51q-19 23 -62 31q-25 0 -47 -18.5t-34 -63.5z " />
<glyph unicode="&#x3c;" horiz-adv-x="614" d="M27 159q0 -9 8 -36q31 -70 94 -107q23 -12 57 -16q31 0 74 18l76 35l63 47l60 70q53 59 82 111l28 53l25 67l-12 37l-37 -49l-62 -78l-53 -55l-43 -35q-16 -6 -35 19q-25 61 -86 92q-39 14 -80 14l-51 -6l-29 -14q-12 -4 -31.5 -18.5t-33.5 -55.5q-14 -29 -14 -68v-25z M27 568.5q0 -9.5 8 -36.5q31 -70 94 -106q23 -12 57 -16q31 0 74 18l76 35l63 47l60 70q53 59 82 110l28 53l25 68l-12 37l-37 -49l-62 -78l-53 -55l-43 -35q-16 -6 -35 18q-25 61 -86 92q-39 14 -80 15l-51 -6l-29 -15q-12 -4 -31.5 -18.5t-33.5 -54.5q-14 -29 -14 -68 v-25.5zM119 170q-6 14 2 38.5t45 55.5l20 4q12 0 35 -12q25 -2 45 -39l10 -47q0 -41 -53 -66l-33 -8q-34 1 -65 56zM119 580q-6 14 2 38.5t45 55.5l20 4q12 0 35 -12q25 -2 45 -39l10 -47q0 -41 -53 -66l-33 -8q-34 0 -65 55z" />
<glyph unicode="=" horiz-adv-x="841" d="M90 147v125h660v-125h-660zM90 492v122h660v-122h-660z" />
<glyph unicode="&#x3e;" horiz-adv-x="2" d="M-590 1094q0 72 53.5 130t133.5 58q74 0 133 -57q53 -49 53 -131q0 -41 -12.5 -74t-40.5 -64q-57 -53 -133 -53q-72 0 -134 55l-16 21l-18 33l-15 39zM-494 1094q0 -86 91 -86q90 0 90 86q0 88 -90 88t-91 -88z" />
<glyph unicode="?" horiz-adv-x="200" d="M41 0v762h119v-762h-119z" />
<glyph unicode="@" horiz-adv-x="1392" d="M20 561l86 -102q18 78 93 131t157 53q113 0 185 -78q78 -74 77 -184q0 -111 -71.5 -187.5t-190.5 -76.5q-174 0 -250 186l-83 -104q35 -78 139 -144q23 -6 31 -16l63 -25l45 -10l55 -4q94 0 174 47q88 43 146 125q55 -76 144 -124t173 -48q150 0 264.5 110.5t114.5 270.5 t-109.5 270.5t-269.5 110.5h-45l-30 -10l-44 -39l-32 -51l-11 -56l3 -37l2 -6l20 -45q12 -25 57 -51l45 -18l46 -3q39 0 61 9l43 20l33 25q18 12 37 51q71 -66 71 -170q0 -106 -74.5 -184t-181.5 -78q-102 0 -179 74.5t-77 187.5q0 160 -111.5 270.5t-269.5 110.5 q-227 0 -336 -201zM965 600q0 25 26 33q55 0 99 -19l24 -10q-4 -14 -10 -22l-17 -19q-12 -12 -53 -24q-23 0 -51 14q-12 16 -18 47z" />
<glyph unicode="A" horiz-adv-x="2" d="M-717 1098q0 129 87 225t235 96q82 0 143 -26q53 -18 88 -50q45 -38 74 -106q12 -29 24 -39q23 -20 58 -20q41 0 63.5 25.5t22.5 60.5q0 41 -31 65q45 -39 45 -102q0 -29 -12 -60q-37 -86 -131 -86q-27 0 -55 13q-47 20 -72 73l-41 70q-14 23 -64 51l-55 19l-57 6 q-90 0 -148 -64q-63 -59 -63 -149q0 -27 4 -31q12 14 84 47q66 35 125 35q160 0 243 -78q43 -43 44 -92q0 -53 -72 -119q-84 -88 -217 -88q-129 0 -225.5 96.5t-96.5 227.5zM-569 981q55 -96 174 -96q37 0 63.5 8t65.5 33q35 33 49 57q0 16 -74 53q-27 6 -51.5 10.5 t-52.5 4.5l-37 -2q-27 0 -62 -17q-39 -12 -75 -51z" />
<glyph unicode="B" horiz-adv-x="159" d="M-305 -449q0 45 29 84q47 59 116 60q20 0 39 -6q-16 4 -29 4q-63 0 -81 -53q-6 -18 -7 -35q0 -49 52 -62q16 -8 39 -8q6 0 25.5 -2t33.5 -2q49 0 67.5 11.5t29.5 41t11 68.5v348l3 762h116v-246v-516v-348q0 -78 -8 -113q-16 -70 -63 -102q-20 -14 -57.5 -20.5 t-71.5 -6.5q-20 0 -42 1t-44 1q-10 -1 -19 -1q-47 0 -84 26q-55 43 -55 114z" />
<glyph unicode="C" horiz-adv-x="761" d="M63 307q47 47 173 84l32 8l86 9q70 0 129.5 -19.5t124.5 -69.5l8 62q0 61 -16 94q-14 37 -65 92q-16 16 -46 31l-75 33l-41 6l6 -39q0 -70 -45 -122t-113 -52q-66 0 -127 37q-57 39 -57 98l6 35l47 55q113 113 270 113q154 0 267.5 -111.5t113.5 -269.5 q0 -152 -111.5 -266.5t-269.5 -114.5q-147 0 -268 111q-67 65 -67 116q0 41 38 80zM158 539q20 -20 57 -21q31 0 50.5 20.5t19.5 57.5l-4 27q-68 -27 -123 -84zM164 236q0 -29 63 -72q68 -39 135 -39h2q122 0 209 108q-102 78 -211 78q-70 0 -116.5 -19.5t-81.5 -55.5z" />
<glyph unicode="D" horiz-adv-x="2" d="M-719 1116q0 135 103 236q94 84 219 84q127 0 224 -96.5t97 -223.5q0 -70 -20 -123q-18 -57 -70 -104q-92 -96 -231 -96q-125 0 -223.5 96t-98.5 227zM-616 1116q0 -47 24 -100q0 16 23 55q18 45 53 68q29 23 78 35l41 6q72 0 135 -45q57 -47 65 -115l15 45l4 51 q0 82 -62 156q-61 61 -157 61q-51 0 -89 -13t-67 -48q-63 -76 -63 -156zM-526 969q0 -18 4 -25l26 -20q42 -23 99 -23q72 0 133 47l-2 35l-13 43l-14 21l-43 36l-22 7l-41 8q-20 0 -47 -11l-15 -6q-29 -14 -47 -47t-18 -65z" />
<glyph unicode="E" horiz-adv-x="1374" d="M27 539q10 25 30.5 52t46.5 56q111 115 271 115q154 0 266 -113l21.5 -21.5t29.5 -37.5q8 14 19.5 27.5t27.5 29.5q111 115 271 115q154 0 266 -113q20 -20 42 -51.5t34 -58.5l-103 -78q-18 53 -59 96q-72 78 -180 78q-98 0 -176 -76q-39 -37 -53.5 -67.5t-22.5 -88.5 h241q344 0 344 -170q0 -35 -14 -58t-51 -60q-111 -115 -268 -115q-150 0 -267 111q-12 12 -25 28.5t-26 32.5l-49 -57q-111 -115 -268 -115q-150 0 -266 111q-20 18 -30.5 34.5t-37.5 75.5q0 184 344 185h231q0 49 -12 80.5t-47 69.5t-82 56q-29 -88 -87 -132t-136 -44 q-59 0 -121 25zM176 213q39 -35 93.5 -60.5t105.5 -25.5q106 0 178 72q18 12 27 20q26 29 36 76h-116q-57 0 -112.5 -1t-82.5 -7q-68 -8 -80 -13q-49 -12 -49 -61zM199 559q-10 -10 3 -16t44 -6q20 0 43.5 4t51.5 31.5t34 62.5q-98 0 -176 -76zM768 295q8 -20 19.5 -43 t39.5 -53q72 -72 179 -72q51 0 104 25.5t94 68.5q8 8 8 17q0 16 -36.5 31.5t-96.5 25.5h-311z" />
<glyph unicode="F" horiz-adv-x="161" d="M20 1149v59q0 59 5.5 97t23.5 65q31 45 101 64q41 10 108 10h498q63 0 120.5 -13.5t88.5 -60.5q14 -20 20 -56t6 -73q0 -27 -1 -48.5t-1 -37.5q1 -10 1 -19q0 -47 -25 -83q-43 -55 -115 -56q-45 0 -84 29q-59 47 -59 117q0 20 6 39q-4 -16 -4 -29q0 -63 53 -82 q18 -6 35 -6q49 0 61 51q8 16 8 39q0 6 2 26.5t2 32.5q0 49 -11 67.5t-41 30t-68 11.5h-480q-10 2 -21 2q-23 0 -47 -9q-36 -13 -45.5 -29.5t-13.5 -45.5t-4 -53v-23.5t2 -15.5l6 -1450q0 -6 -2 -21.5t-2 -29.5q0 -31 3.5 -45.5t15.5 -32.5q27 -39 102 -39h500q37 0 67.5 10 t40 26.5t11.5 33t2 41.5q0 18 -1 32.5t-3 24.5q0 23 -9 39q-12 51 -63 51q-14 0 -33 -6q-53 -18 -53 -84q0 -10 4 -27q-6 23 -6 41q0 68 59 115q39 29 84 29q72 0 115 -56q27 -35 27 -82q-2 -14 -2 -20v-42t2 -44q0 -45 -5.5 -75t-21.5 -54q-31 -45 -100 -64 q-41 -10 -109 -10h-512q-63 0 -106 10q-72 16 -103 64q-14 20 -20 56t-6 73v44t2 42z" />
<glyph unicode="G" horiz-adv-x="6" d="M-666 -295q0 121 85 205t204 84l64 -8l-9 -97q-18 6 -49 7q-82 0 -139 -54.5t-57 -132.5q0 -82 55 -138t133 -56q72 0 121 41t68 100q23 47 63 65q27 10 51 11q84 0 117 -76q6 -12 8 -26.5t2 -28.5q0 -53 -39 -93q27 25 27 62q0 27 -19.5 51.5t-60.5 24.5q-27 0 -49 -19 l-23 -35q-33 -84 -102.5 -130t-159.5 -46q-121 0 -206 85t-85 204z" />
<glyph unicode="H" horiz-adv-x="380" d="M55 121q0 53 44 94t91 41q57 0 99 -41q41 -35 41 -94q0 -55 -41 -93t-99 -38q-41 0 -96 37q-39 39 -39 94zM111 1036l10 -143l4 -119l49 -473l35 2l92 809q0 201 -88 201q-53 0 -88 -117l-10 -76zM123 125q0 -63 67 -64q68 0 68 64q0 51 -68 63q-67 0 -67 -63z" />
<glyph unicode="I" d="M20 381q0 152 111 266.5t270 114.5q154 0 267.5 -111.5t113.5 -269.5v-729q0 -37 10.5 -67.5t31 -43t24.5 -10.5v4q23 0 39 8q51 12 51 64q0 14 -6 33q-18 53 -84 53q-10 0 -27 -4q23 6 41 6q68 0 115 -60q29 -39 29 -84q0 -72 -56 -114q-35 -27 -82 -27q-14 2 -20 2 q-43 -2 -53 -2q-20 0 -62.5 29t-60 90.5t-17.5 122.5v729q0 96 -72.5 175t-181.5 79q-102 0 -178 -73t-76 -181q0 -96 72 -180q74 -74 182 -74h15l-15 -127q-150 0 -265.5 110.5t-115.5 270.5z" />
<glyph unicode="J" horiz-adv-x="1636" d="M96 391q0 66 50 118t120 52q68 0 121 -47q47 -53 47 -123q0 -55 -49 -121q-51 -51 -119 -51q-55 0 -121 49q-49 53 -49 123zM184 391q0 -23 19 -53l24 -16l39 -11q27 0 46.5 17.5t35.5 62.5q0 20 -17.5 44t-64.5 38q-25 0 -50.5 -19.5t-31.5 -62.5zM637 391q0 66 50 118 t120 52q72 0 121 -47q49 -55 49 -123q0 -37 -21 -78l-30 -43q-47 -51 -119 -51q-57 0 -119 49q-51 51 -51 123zM725 391q0 -23 18 -53q23 -16 64 -27q27 0 46 17.5t36 62.5q0 25 -15.5 44.5t-66.5 37.5q-25 0 -50.5 -19.5t-31.5 -62.5zM1163 391q0 66 50 118t118 52 q70 0 123 -47q47 -53 47 -123q0 -55 -49 -121q-51 -51 -121 -51q-57 0 -119 49q-49 53 -49 123zM1249 391q0 -18 19 -53q20 -14 63 -27q31 0 48.5 17.5t33.5 62.5q0 29 -20 49q-11 15 -62 33q-25 0 -53 -22q-14 -10 -29 -60z" />
<glyph unicode="K" horiz-adv-x="159" d="M20 0v516v246h117l2 -762v-348q0 -37 10.5 -67.5t27 -40t32.5 -11.5t41 -2q20 0 33.5 1t23.5 3q23 0 39 8q51 12 51 64q0 14 -6 33q-18 53 -84 53q-10 0 -26 -4q23 6 41 6q68 0 114 -60q29 -39 29 -84q0 -72 -55 -114q-35 -27 -82 -27q-14 2 -21 2h-41.5t-44.5 -2 q-45 0 -74.5 5t-54.5 22q-45 31 -58.5 89t-13.5 126v348z" />
<glyph unicode="L" horiz-adv-x="376" d="M20 -590v1249v103h117v-1352h-117zM238 0v516v246h116l2 -762v-348q0 -37 10.5 -67.5t27 -40t32.5 -11.5t41 -2q20 0 33.5 1t23.5 3q23 0 39 8q51 12 51 64q0 14 -6 33q-18 53 -84 53q-10 0 -26 -4q23 6 41 6q68 0 114 -60q29 -39 29 -84q0 -72 -55 -114q-35 -27 -82 -27 q-14 2 -21 2h-41.5t-44.5 -2q-45 0 -74.5 5t-54.5 22q-45 31 -58 89t-13 126v348z" />
<glyph unicode="M" d="M20 381q0 152 111 266.5t270 114.5q154 0 267.5 -111.5t113.5 -269.5v-109h-125v109q0 98 -67 172q-80 84 -189 84q-100 0 -192 -86q-63 -76 -64 -174q0 -47 21 -88q16 43 53 83t80 52q12 2 24.5 5t28.5 3q63 0 115.5 -40t71.5 -103q6 -25 6 -51q0 -68 -40 -122.5 t-99 -66.5v-12v-187l102 162h106l95 -137l114 -182l19 -37l8 -47l-2 -45q0 -23 -10 -39q-6 -29 -33 -62q-43 -53 -119 -53h-242q-49 0 -96 35q-39 -27 -48 -30t-58 -3q-10 -1 -19 -1q-47 0 -84 26q-55 43 -55 114q0 45 29 84q47 59 116 60q20 0 39 -6q-16 4 -28 4 q-63 0 -82 -53q-6 -18 -6 -35q0 -49 51 -62q16 -8 39 -8l-13 -2q10 6 19 10q16 10 27.5 40t11.5 69v397l-62 19l-49 24q-45 27 -78 68q-78 102 -78 221zM274 236q0 -8 6.5 -31t29 -35t40.5 -12q6 0 31 6t37 28.5t12 40.5q0 7 -4 23q-6 29 -26.5 43t-49.5 14q-12 0 -18 -2 q-57 -16 -58 -75zM401 -463q29 -29 64 -29h207q20 0 61 29l15 33l4 43q0 27 -21 59l-168 236l-61 -80q-20 -27 -46 -67t-50 -80q-4 -11 0 -29q0 -18 2 -41t2 -27q0 -25 -9 -47z" />
<glyph unicode="N" d="M20 381q0 152 111 266.5t270 114.5q154 0 267.5 -111.5t113.5 -269.5v-109h-125v109q0 98 -67 172q-80 84 -189 84q-100 0 -192 -86q-63 -76 -64 -174q0 -47 21 -88q16 43 53 83t80 52q12 2 24.5 5t28.5 3q63 0 115.5 -40t71.5 -103q6 -25 6 -51q0 -68 -40 -122.5 t-99 -66.5v-12v-385q0 -70 -13 -113q-20 -70 -67 -102q-39 -27 -60 -27q-27 2 -53 2q-10 -1 -19 -1q-47 0 -83 26q-55 43 -56 114q0 45 29 84q47 59 117 60q20 0 39 -6q-16 4 -29 4q-63 0 -82 -53q-6 -18 -6 -35q0 -49 51 -62q16 -8 39 -8v-4q4 -2 24.5 10.5t35 42 t14.5 68.5v397l-62 19l-49 24q-45 27 -78 68q-78 102 -78 221zM274 236q0 -8 6.5 -31t29 -35t40.5 -12q6 0 31 6t37 28.5t12 40.5q0 7 -4 23q-6 29 -26.5 43t-49.5 14q-12 0 -18 -2q-57 -16 -58 -75zM473 -2l117 2v-596h-117v594zM647 0h119v-348q0 -37 10 -67.5t26.5 -40 t33 -11.5t41.5 -2q20 0 33.5 1t23.5 3q23 0 39 8q51 12 51 64q0 14 -6 33q-18 53 -84 53q-10 0 -27 -4q23 6 41 6q68 0 115 -60q29 -39 29 -84q0 -72 -56 -114q-35 -27 -82 -27q-14 2 -20 2h-42t-44 -2q-45 0 -75 5t-54 22q-45 31 -58.5 89t-13.5 126v348z" />
<glyph unicode="O" horiz-adv-x="1392" d="M20 561l86 -102q18 78 93 131t157 53q113 0 185 -78q77 -73 77 -181q0 -114 -71.5 -190.5t-190.5 -76.5q-174 0 -250 186l-83 -104q35 -78 139 -144q23 -6 31 -16l63 -25l45 -10l55 -4q94 0 174 47q88 43 146 125q55 -76 144 -124t173 -48q150 0 264.5 110.5t114.5 270.5 t-109.5 270.5t-269.5 110.5h-45l-30 -10l-19 -134l45 11l47 4q55 0 99 -19q43 -12 81 -57q78 -74 78 -176q0 -106 -74.5 -184t-181.5 -78q-102 0 -179 74.5t-77 187.5q0 160 -111.5 270.5t-269.5 110.5q-227 0 -336 -201z" />
<glyph unicode="P" d="M20 381q0 152 111 266.5t270 114.5q154 0 267.5 -111.5t113.5 -269.5v-109h-125v109q0 98 -67 172q-80 84 -189 84q-100 0 -192 -86q-63 -76 -64 -174q0 -47 21 -88q16 43 53 83t80 52q12 2 24.5 5t28.5 3q63 0 115.5 -40t71.5 -103q6 -25 6 -51q0 -68 -40 -122.5 t-99 -66.5v-12v-43q20 0 50.5 -2t49.5 -6l-8 -97q-6 2 -35 2h-32.5t-24.5 -2v-237q0 -20 -4.5 -58t-10.5 -69q16 -4 27.5 -7t21.5 -3q72 0 121 41t68 100q23 47 63 65q27 10 51 11q84 0 117 -76q6 -12 8 -26.5t2 -28.5q0 -53 -39 -93q27 25 27 62q0 27 -19.5 51.5 t-60.5 24.5q-27 0 -49 -19l-22 -35q-33 -84 -102.5 -130t-160.5 -46q-39 0 -66.5 8.5t-43.5 12.5q-39 -27 -74 -27q-33 2 -59 2q-10 -1 -19 -1q-47 0 -84 26q-55 43 -55 114q0 45 30.5 85t80.5 57q0 70 22.5 124t63.5 95l47 37v100l-62 19l-49 24q-45 27 -78 68 q-78 102 -78 221zM74 1112q0 133 94 227.5t227 94.5q102 0 178 -51.5t115 -145.5q6 -14 11.5 -23.5t13.5 -15.5q23 -20 57 -20q41 0 63.5 25.5t22.5 60.5q0 41 -31 65q45 -39 45 -102q0 -29 -12 -60q-37 -86 -131 -86q-27 0 -55 13q-47 20 -72 73q-18 68 -74.5 112 t-134.5 44q-86 0 -147.5 -62.5t-61.5 -154.5q0 -86 63.5 -146.5t153.5 -60.5q37 0 56 8l10 -106q-35 -10 -72 -10q-129 0 -224 93t-95 228zM111 -395q0 -49 51 -62q16 -8 39 -8q6 -4 8 -4v4q-45 66 -55 143q-16 -14 -25.5 -23t-11.5 -15q-6 -18 -6 -35zM252 -291 q0 -55 27 -104q8 20 8 47v166q-35 -49 -35 -109zM274 236q0 -8 6.5 -31t29 -35t40.5 -12q6 0 31 6t37 28.5t12 40.5q0 7 -4 23q-6 29 -26.5 43t-49.5 14q-12 0 -18 -2q-57 -16 -58 -75z" />
<glyph unicode="Q" horiz-adv-x="1437" d="M20 381q0 152 111 266.5t270 114.5q152 0 269 -111l24 -30l25 -35q111 176 321 176q145 0 261 -109.5t116 -271.5q0 -152 -109.5 -266.5t-267.5 -114.5t-272 113l-29 26l-22 31l-12 -18l-33 -39q-49 -49 -117 -80l-63 110q45 12 88 56q73 71 73 183q0 103 -71.5 178 t-180.5 75q-98 0 -178 -74q-51 -49 -69 -121l-7 -59l27 2q76 0 130 -39t71 -113l4 -41q0 -61 -43 -116q-43 -49 -111 -68l-43 -4q-43 0 -80 18v115q25 -31 70 -31q37 0 62.5 29t25.5 64q0 39 -29 61q-27 27 -63 27l-66 -15l-43 -8q-14 0 -22 8q-8 29 -12.5 54.5t-4.5 56.5z M782 381q0 -88 74 -180q74 -74 182 -74q96 0 175 72.5t79 181.5q0 98 -75 176q-68 78 -179 78q-102 0 -179 -75t-77 -179z" />
<glyph unicode="R" horiz-adv-x="159" d="M-721 -391q0 35 25 82l88 131l63 80l78 90h115l112 -127l29 -37l33 -41l33 -55l28 -35q25 -47 25 -88v-74q20 0 41.5 1t35 9.5t24.5 38t11 68.5v348l3 762h116v-246v-516v-348q0 -78 -8 -113q-16 -70 -63 -102q-20 -14 -57.5 -20.5t-71.5 -6.5q-20 0 -42 1t-44 1 q-10 -2 -29 2t-35 8q-36 -10 -61 -10h-269q-86 0 -131 51q-18 18 -33 54l-14 49zM-610 -385q0 -35 4 -41q0 -14 22.5 -38.5t65.5 -24.5h229q33 0 68 26l4 10l12 25l6 43q0 18 -24 59l-185 211l-30 -20l-43 -43l-109 -148z" />
<glyph unicode="S" horiz-adv-x="2" d="M-664 989l2 27l3 8q6 49 49 74l82 30l-70 25q-27 12 -45.5 36.5t-18.5 72.5q0 33 9 49q25 61 101.5 94t158.5 33l45 -2q102 -10 184 -54l70 -53q15 -25 33 -39q23 -20 57 -20q41 0 63.5 25.5t22.5 60.5q0 41 -31 65q45 -39 45 -102q0 -29 -12 -59q-37 -86 -131 -86 q-27 0 -55 12q-47 20 -72 74q-79 79 -192 79h-3h-45q-41 0 -62.5 -7t-53.5 -42q-6 -12 -11 -37q0 -49 99 -67h219l-2 -113h-60l-61 2l-49 -2h-33q-18 -6 -25 -8q-63 -12 -90 -47l-12 -33q0 -39 31 -61q47 -31 166 -31q76 0 113.5 17.5t84.5 70.5l66 -88l-74 -53l-86 -37 l-45 -12l-63 -3h-48q-14 0 -20 5q-133 18 -195 88q-39 49 -39 108z" />
<glyph unicode="T" horiz-adv-x="161" d="M20 1149v59q0 59 5.5 97t23.5 65q31 45 101 64q41 10 108 10h1112q63 0 120.5 -13.5t88.5 -60.5q14 -20 20.5 -56t6.5 -73q0 -27 -1 -48.5t-1 -37.5q1 -10 1 -19q0 -47 -26 -83q-43 -55 -115 -56q-45 0 -84 29q-59 47 -59 117q0 20 6 39q-4 -16 -4 -29q0 -63 53 -82 q18 -6 35 -6q49 0 62 51q8 16 8 39q0 6 2 26.5t2 32.5q0 49 -11.5 67.5t-41 30t-68.5 11.5h-1094q-10 2 -21 2q-23 0 -47 -9q-36 -13 -45.5 -29.5t-13.5 -45.5t-4 -53v-23.5t2 -15.5l6 -1450q0 -6 -2 -21.5t-2 -29.5q0 -31 3.5 -45.5t15.5 -32.5q27 -39 102 -39h1114 q37 0 68 10t40 26.5t11 33t2 41.5q0 18 -1 32.5t-3 24.5q0 23 -8 39q-12 51 -64 51q-14 0 -32 -6q-53 -18 -54 -84q0 -10 4 -27q-6 23 -6 41q0 68 60 115q39 29 84 29q72 0 114 -56q27 -35 27 -82q-2 -14 -2 -20v-42t2 -44q0 -45 -5 -75t-22 -54q-31 -45 -100 -64 q-41 -10 -109 -10h-1126q-63 0 -106 10q-72 16 -103 64q-14 20 -20 56t-6 73v44t2 42z" />
<glyph unicode="U" d="M20 381q0 152 111 266.5t270 114.5q154 0 267.5 -111.5t113.5 -269.5q0 -147 -110 -268q-25 -25 -54 -43l-65 -33q-70 0 -105.5 38t-35.5 89q0 57 34 92q16 23 43 35t50 12q29 0 65 -18l27 -19q24 45 24 110v5q0 96 -72.5 175t-181.5 79q-98 0 -178 -74q-51 -49 -69 -121 l-7 -59l27 2q76 0 130 -39t71 -113l4 -41q0 -61 -43 -116q-43 -49 -111 -68l-43 -4q-43 0 -80 18v115q25 -31 70 -31q37 0 62.5 29t25.5 64q0 39 -29 61q-27 27 -63 27l-66 -15l-43 -8q-14 0 -22 8q-8 29 -12.5 54.5t-4.5 56.5zM502 178q0 -14 4 -20l8 -15l33 21l35 31 l-11 10q-16 12 -30 12q-16 -6 -27.5 -12t-11.5 -27z" />
<glyph unicode="V" horiz-adv-x="1437" d="M20 381q0 152 111 266.5t270 114.5q154 0 267.5 -111.5t113.5 -269.5q0 -90 74 -180q74 -74 180 -74q104 0 178 74q37 37 57.5 85t20.5 95q0 94 -73.5 174t-182.5 80q-51 0 -88 -14l10 131l80 10q152 0 265.5 -111.5t113.5 -269.5q0 -152 -111.5 -266.5t-269.5 -114.5 q-145 0 -263 110.5t-118 270.5q0 96 -72.5 175t-179.5 79q-104 0 -180 -76t-76 -178q0 -84 60 -164q6 41 61 88q43 37 107 37q61 0 102 -35q33 -23 45 -49l13 -39l8 -51l-6 -43q-6 -25 -21.5 -46.5t-60.5 -60.5l-56 -16q-150 0 -264.5 111.5t-114.5 267.5zM274 166l62 -33 q30 -12 61 -12q12 0 27 14q10 14 14 39q0 31 -20 53l-33 17q-45 0 -63.5 -10.5t-47.5 -67.5z" />
<glyph unicode="W" horiz-adv-x="1437" d="M20 381q0 147 111 263t270 116q98 0 183 -49q63 -35 135 -125q113 174 317 174q154 0 267.5 -111.5t113.5 -267.5q0 -141 -108.5 -261t-276.5 -120q-33 0 -100 37q-45 31 -76 98l-4 33q6 51 45 92l21 14l40 19l33 8l45 4q53 0 119 -43l37 -33l25 -39q77 81 77 188 q0 105 -73.5 181t-184.5 76q-100 0 -177 -75t-77 -179q0 -152 -111.5 -266.5t-269.5 -114.5q-150 0 -265.5 110.5t-115.5 270.5zM145 381q0 -102 75 -179t181 -77q102 0 179 74.5t77 181.5q0 96 -72.5 175t-183.5 79q-102 0 -179 -75t-77 -179zM973 172q0 -16 22 -41 q15 -8 52 -14q33 0 50 7t29 38l-6 12l-16 19l-14 12q-18 12 -48 12q-35 0 -52 -7t-17 -38z" />
<glyph unicode="X" horiz-adv-x="1437" d="M20 381q0 152 111 266.5t270 114.5q197 0 318 -170q117 170 317 170q154 0 267.5 -111.5t113.5 -269.5q0 -152 -111.5 -266.5t-269.5 -114.5q-197 0 -317 172q-111 -172 -318 -172q-150 0 -265.5 110.5t-115.5 270.5zM147 381q0 -96 74 -175t180 -79t180 71.5t74 182.5 q0 96 -72.5 175t-181.5 79q-98 0 -176 -75t-78 -179zM782 381q0 -68 33 -125q12 25 51 57.5t97 32.5q92 0 143 -53q18 -18 30.5 -48t12.5 -71l-2 -22l37 20l33 27q75 75 75 179q0 97 -73.5 177t-182.5 80q-102 0 -178 -76t-76 -178zM895 193q0 -16 12 -35q12 -12 51 -25 l23 -6l29 -2l49 6q8 10 8 19l-2 16l-2 14q-6 35 -22.5 53.5t-51.5 24.5q-7 1 -14 1q-27 0 -51 -19q-23 -23 -29 -47z" />
<glyph unicode="Y" d="M20 381q0 160 136 289q14 10 82 32l26 5l53 -11q88 -25 89 -116q0 -49 -39 -97q-35 -47 -93 -47q-53 0 -120 37l-9 -43l-4 -47q0 -45 16.5 -86t55.5 -88q72 -84 188 -84q57 0 97.5 17.5t83.5 58.5q75 82 75 182q0 154 -139 229l82 90q182 -104 182 -321 q0 -160 -110.5 -270.5t-270.5 -110.5q-152 0 -266.5 109.5t-114.5 271.5zM205 545l10 -8l33 -15l35 8q16 0 34 45l7 9l-7 4l-38 22l-29 -10q-23 -14 -45 -55z" />
<glyph unicode="Z" horiz-adv-x="1359" d="M20 381q0 152 111 266.5t270 114.5q41 0 60.5 -2t58.5 -15l-41 -122q-37 12 -78 12q-98 0 -178 -74q-33 -33 -59 -82q-18 -41 -19 -94q0 -98 75 -178t181 -80q82 0 150 47l37 39l37 49l-13 60l-6 63q0 80 27 141q25 66 86 123q104 109 274 109q141 0 256 -82l27 -25 l29 -28q18 -18 32 -48l-77 -90q-25 63 -97 105l-84 33q-41 12 -86 12q-117 0 -196 -74l-35 -43l-21 -41l-16 -57v-29q0 -47 6 -59l51 45q25 18 68 37l53 16l55 10h35q117 0 207 -37q49 -18 107 -88l20 -32l12 -35q0 -94 -133 -185q-93 -65 -209 -65h-4q-43 0 -66.5 6 t-41 12.5t-47.5 22.5q-84 41 -144 108l-41 -43q-29 -29 -51 -43q-92 -61 -201 -61q-150 0 -265.5 110.5t-115.5 270.5zM778 233q18 -41 96 -86q61 -28 115 -28h4q74 0 143.5 42.5t71.5 71.5q0 33 -84 72l-63 17l-68 10q-41 0 -63 -6q-20 0 -64 -23q-74 -25 -88 -70z" />
<glyph unicode="[" horiz-adv-x="6" d="M-705 1112q0 133 94.5 227.5t227.5 94.5q102 0 178 -51.5t115 -145.5q6 -14 11 -23.5t13 -15.5q23 -20 58 -20q41 0 63.5 25.5t22.5 60.5q0 41 -31 65q45 -39 45 -102q0 -29 -12 -60q-37 -86 -131 -86q-27 0 -55 13q-47 20 -72 73q-18 68 -74.5 112t-134.5 44 q-86 0 -147.5 -62.5t-61.5 -154.5q0 -86 63.5 -146.5t153.5 -60.5q37 0 55 8l11 -106q-35 -10 -72 -10q-129 0 -224.5 93t-95.5 228zM-666 -295q0 121 85 205t204 84l64 -8l-9 -97q-18 6 -49 7q-82 0 -139 -54.5t-57 -132.5q0 -82 55 -138t133 -56q72 0 121 41t68 100 q23 47 63 65q27 10 51 11q84 0 117 -76q6 -12 8 -26.5t2 -28.5q0 -53 -39 -93q27 25 27 62q0 27 -19.5 51.5t-60.5 24.5q-27 0 -49 -19l-23 -35q-33 -84 -102.5 -130t-159.5 -46q-121 0 -206 85t-85 204z" />
<glyph unicode="\" horiz-adv-x="841" d="M111 322h604v118h-604v-118zM297 129q-6 43 18.5 76t71.5 43q43 6 76 -18.5t43 -71.5q6 -41 -17.5 -75t-70.5 -44q-39 -6 -77 19.5t-44 70.5zM297 600q-6 43 18.5 76t71.5 43q43 6 76 -18.5t43 -71.5q6 -41 -17.5 -75t-70.5 -44q-39 -6 -77 19.5t-44 70.5z" />
<glyph unicode="]" horiz-adv-x="477" d="M51 1262q0 43 15.5 82.5t46.5 64.5l24 25q63 59 105.5 88.5t91.5 52.5l102 45l-100 -107l-43 -90q49 -14 79.5 -59t30.5 -104q0 -74 -51 -125.5t-125 -51.5q-72 0 -125 52q-51 55 -51 127zM141 1260q0 -35 23 -60q27 -23 59 -22q31 0 57.5 24.5t26.5 59.5q0 33 -25.5 56 t-58.5 23q-31 0 -56.5 -23.5t-25.5 -57.5z" />
<glyph unicode="^" horiz-adv-x="1437" d="M20 381q0 152 111 266.5t270 114.5q197 0 318 -170q117 170 317 170q154 0 267.5 -111.5t113.5 -269.5q0 -152 -111.5 -266.5t-269.5 -114.5q-197 0 -317 172q-111 -172 -318 -172q-150 0 -265.5 110.5t-115.5 270.5zM147 381q0 -96 74 -175t180 -79t180 71.5t74 182.5 q0 96 -72.5 175t-181.5 79q-98 0 -176 -75t-78 -179zM295 391l6 31q6 18 29.5 29.5t50.5 15.5q29 0 49 -14q43 -31 43 -72q0 -16 -12 -41q-23 -43 -72 -43q-20 0 -41 10q-53 25 -53 84zM782 381q0 -68 33 -125q12 25 51 57.5t97 32.5q92 0 143 -53q43 -43 43 -105l-4 -36 q35 12 72 47q76 76 75 182q0 94 -73.5 174t-182.5 80q-102 0 -178 -76t-76 -178zM895 193q0 -18 14 -33q12 -20 74 -31l74 -2l2 41q0 23 -4 31l-15 30q-8 23 -55 29q-29 0 -37 -3t-12 -4t-14 -11q-25 -25 -27 -47z" />
<glyph unicode="_" horiz-adv-x="559" d="M-135 -449l508 1317h145l-508 -1317h-145z" />
<glyph unicode="`" horiz-adv-x="872" d="M51 1139q0 143 123 241q49 37 114.5 56.5t119.5 19.5q51 0 91 -7t93 -34q86 -31 133 -90q43 -49 61 -104q6 -8 17 -52l4 -77q0 -80 -57 -183q-27 -55 -52 -86l-55 -71q-84 -96 -139 -195q-29 -69 -70 -219h-35l2 104l15 76l2 43l12 41q6 35 14 45l60 137l28 76l29 92 q27 121 27 172q0 111 -49 179q-59 78 -181 77q-33 0 -59 -10q-31 -6 -59 -29q-57 -39 -58 -92q0 -18 39 -69q41 -47 41 -88q0 -31 -20 -64q-25 -29 -66 -29q-51 0 -94 41q-31 41 -31 99zM307 135q0 49 31 86q35 35 82 35q45 0 84 -39q31 -25 39 -82q0 -49 -41 -82 q-31 -24 -82 -30q-37 0 -75 27.5t-38 84.5z" />
<glyph unicode="a" horiz-adv-x="778" d="M20 389q0 39 6.5 73t22.5 70q31 66 86 119q104 109 275 109q72 0 122 -23q57 -18 119 -65l47 -54l37 -53l-92 -100l-39 72l-41 41q-70 59 -153 59q-35 0 -64 -6t-57 -23q-18 -6 -68 -51l-20 -27l-35 -61l-12 -53l-2 -54v-22q59 57 145 86l76 16l37 2q35 0 101.5 -11 t102.5 -27q23 -6 49.5 -28t57.5 -59l20 -34l17 -37q-18 -49 -43 -86q-37 -53 -97 -94q-39 -29 -98 -52q-27 -8 -51.5 -12t-58.5 -4q-156 0 -273 108.5t-117 280.5zM193 236q23 -41 81 -78q59 -33 129 -33q72 0 136.5 41t76.5 80q4 18 -26 37l-51 24q-74 25 -127 25l-62 -6 q-29 -4 -67 -21q-66 -25 -90 -69z" />
<glyph unicode="b" horiz-adv-x="1437" d="M20 381q0 117 68 219q37 47 79 82t101 55l88 -106q-74 -12 -151 -86q-57 -70 -58 -164q0 -96 74 -175t180 -79t180 71.5t74 182.5q0 123 -108 207l98 88q137 -115 137 -295q0 -92 74 -173t180 -81q102 0 179 74.5t77 179.5q0 94 -73.5 174t-182.5 80l-43 -2l-45 -12 l13 135l75 6q154 0 267.5 -111.5t113.5 -269.5q0 -152 -111.5 -266.5t-269.5 -114.5q-188 0 -317 168q-113 -168 -318 -168q-150 0 -265.5 110.5t-115.5 270.5z" />
<glyph unicode="c" horiz-adv-x="761" d="M63 307q47 47 173 84l32 8l86 9q70 0 129.5 -19.5t124.5 -69.5l8 62q0 61 -16 94q-14 37 -65 92q-16 16 -46 31l-75 33l-41 -66l-19 -28q-14 -16 -35 -29l-28 -10q-41 -10 -74 -11q-35 0 -48 3.5t-48 15.5t-74 55l-12 62l14 59l141 41l-30 -86q6 -37 53 -37q25 0 55 18 l23 29l16 43q16 70 62 70h55q29 -2 65 -19q109 -43 180.5 -137t71.5 -223q0 -154 -112.5 -267.5t-268.5 -113.5q-141 0 -256 100q-79 73 -79 128q0 40 38 79zM164 236q0 -29 63 -72q68 -39 135 -39q123 0 211 108q-102 78 -211 78q-70 0 -116.5 -19.5t-81.5 -55.5z" />
<glyph unicode="d" horiz-adv-x="2" d="M-719 1116q0 125 96.5 223.5t225.5 98.5q121 0 222 -97.5t101 -224.5q0 -123 -95 -223t-228 -100q-125 0 -223.5 96t-98.5 227zM-606 1116q0 -92 61 -147q59 -61 148 -62q92 0 147 62q61 55 62 147q0 86 -62 148q-55 61 -147 61q-86 0 -147.5 -61.5t-61.5 -147.5z" />
<glyph unicode="e" horiz-adv-x="1374" d="M27 539q10 25 30.5 52t46.5 56q111 115 271 115q154 0 266 -113l21.5 -21.5t29.5 -37.5q8 14 19.5 27.5t27.5 29.5q111 115 271 115q154 0 266 -113q20 -20 42 -51.5t34 -58.5l-103 -78q-18 53 -59 96q-72 78 -180 78q-98 0 -176 -76q-39 -37 -53.5 -67.5t-22.5 -88.5 h241q344 0 344 -170q0 -35 -14 -58t-51 -60q-111 -115 -268 -115q-150 0 -267 111q-12 12 -25 28.5t-26 32.5l-49 -57q-111 -115 -268 -115q-150 0 -266 111q-20 18 -30.5 34.5t-37.5 75.5q0 184 344 185h231q0 49 -12 80.5t-49 70.5q-72 78 -180 78q-98 0 -176 -76 q-51 -47 -68 -98zM176 213q39 -35 93.5 -60.5t105.5 -25.5q106 0 178 72q18 12 27 20q26 29 36 76h-116q-57 0 -112.5 -1t-82.5 -7q-68 -8 -80 -13q-49 -12 -49 -61zM768 295q8 -20 19.5 -43t39.5 -53q72 -72 179 -72q51 0 104 25.5t94 68.5q8 8 8 17q0 16 -36.5 31.5 t-96.5 25.5h-311z" />
<glyph unicode="f" horiz-adv-x="2" d="M-705 1112q0 133 94.5 227.5t227.5 94.5q102 0 178 -51.5t115 -145.5q6 -14 11 -23.5t13 -15.5q23 -20 58 -20q41 0 63.5 25.5t22.5 60.5q0 41 -31 65q45 -39 45 -102q0 -29 -12 -60q-37 -86 -131 -86q-27 0 -55 13q-47 20 -72 73q-18 68 -74.5 112t-134.5 44 q-86 0 -147.5 -62.5t-61.5 -154.5q0 -86 63.5 -146.5t153.5 -60.5q37 0 55 8l11 -106q-35 -10 -72 -10q-129 0 -224.5 93t-95.5 228z" />
<glyph unicode="g" horiz-adv-x="2" d="M-709 -403q0 43 23 79l94 140l133 184h119l104 -137l127 -182l21 -37l8 -47l-2 -46q0 -23 -10 -38q-6 -29 -37 -62q-49 -53 -131 -53h-270q-80 0 -132 53q-23 18 -30 53l-15 47zM-600 -399q0 -35 4 -39q0 -18 21 -37q25 -29 67 -29h232q23 0 67 29l16 33l5 43 q0 29 -23 59l-186 236l-70 -80q-48 -56 -111 -156l-12 -27z" />
<glyph unicode="h" horiz-adv-x="2" d="M-477 1231q0 63 53 117q47 51 117 51q82 0 130 -47t48 -127q0 -51 -31 -156q0 -20 -16 -45l-23 -39q-78 -141 -174 -207l-35 2l35 51l49 84l27 56l21 61q0 12 -31 29q-63 0 -116.5 49t-53.5 121zM-393 1227q0 -25 24 -56q20 -18 54 -20q90 0 90 76t-84 76 q-33 0 -58.5 -16.5t-25.5 -59.5z" />
<glyph unicode="i" horiz-adv-x="761" d="M20 381q0 152 111 266.5t270 114.5q225 0 340 -209l-94 -100q-18 78 -89 130t-157 52q-98 0 -178 -74q-33 -33 -59 -82q-18 -41 -19 -94q0 -98 75 -178t181 -80q82 0 150 47q57 47 96 133l96 -94q-39 -86 -137 -149.5t-205 -63.5q-150 0 -265.5 110.5t-115.5 270.5z" />
<glyph unicode="j" horiz-adv-x="239" d="M4 623q0 72 55 114q35 27 82 27q14 -2 21 -2h57l2 -762v-348q0 -37 10.5 -67.5t26.5 -40t32.5 -11.5t41.5 -2q20 0 33.5 1t23.5 3q23 0 39 8q51 12 51 64q0 14 -6 33q-18 53 -84 53q-10 0 -27 -4q23 6 41 6q68 0 115 -60q29 -39 29 -84q0 -72 -55 -114q-35 -27 -82 -27 q-14 2 -21 2h-41.5t-44.5 -2q-45 0 -74.5 5t-54.5 22q-45 31 -58.5 89t-13.5 126v348v623q-28 -24 -28 -60q0 -12 5 -29.5t10 -26.5t13 -15q-20 0 -45 20q-10 9 -24 27q-29 39 -29 84z" />
<glyph unicode="k" horiz-adv-x="2" d="M-459 0h119v-348q0 -37 10.5 -67.5t26.5 -40t32.5 -11.5t41.5 -2q20 0 33.5 1t23.5 3q23 0 39 8q51 12 51 64q0 14 -6 33q-18 53 -84 53q-10 0 -27 -4q23 6 41 6q68 0 115 -60q29 -39 29 -84q0 -72 -56 -114q-35 -27 -82 -27q-14 2 -20 2h-42t-44 -2q-45 0 -74.5 5 t-54.5 22q-45 31 -58.5 89t-13.5 126v348z" />
<glyph unicode="l" horiz-adv-x="2" d="M-496 4h117v-594h-117v594zM-254 0h119v-348q0 -37 10 -67.5t26.5 -40t33 -11.5t40.5 -2q20 0 34 1t24 3q23 0 39 8q51 12 51 64q0 14 -6 33q-18 53 -84 53q-10 0 -27 -4q23 6 41 6q68 0 115 -60q28 -38 28 -81q0 -75 -55 -117q-35 -27 -82 -27q-14 2 -20 2h-42t-44 -2 q-45 0 -75 5t-54 22q-45 31 -58.5 89t-13.5 126v348z" />
<glyph unicode="m" horiz-adv-x="239" d="M4 623q0 72 55 114q35 27 82 27q14 -2 21 -2h57v-762h-117v623q-28 -24 -28 -60q0 -12 5 -29.5t10 -26.5t13 -15q-20 0 -45 20q-10 8 -24 27q-29 39 -29 84z" />
<glyph unicode="n" horiz-adv-x="1437" d="M20 381q0 -160 116 -270.5t265 -110.5l9 121l-9 6q-109 0 -182 74q-72 84 -72 180q0 109 76 181.5t178 72.5q109 0 181.5 -79t72.5 -175l-4 -727q0 -82 21.5 -136.5t59.5 -80t59 -25.5q27 2 53 2q10 -1 19 -1q47 0 83 26q55 43 55 115q0 45 -28 84q-47 59 -117 59 q-20 0 -39 -6q16 4 29 4q63 0 82 -53q6 -18 6 -35q0 -49 -51 -62q-16 -8 -39 -8v-4q-4 -2 -23.5 9.5t-31 46t-11.5 65.5l4 446q115 -100 254 -100q158 0 269.5 114.5t111.5 266.5q0 156 -113.5 267.5t-267.5 111.5l-75 -4l-13 -135q37 14 88 14q109 0 182.5 -80t73.5 -174 q0 -109 -78.5 -181.5t-177.5 -72.5q-111 0 -184 74q-70 78 -70 180q0 158 -113.5 269.5t-267.5 111.5q-160 0 -270.5 -115t-110.5 -266z" />
<glyph unicode="o" d="M20 381q0 152 110.5 266.5t270.5 114.5q154 0 267.5 -111.5t113.5 -269.5q0 -152 -111.5 -266.5t-269.5 -114.5q-150 0 -265.5 110.5t-115.5 270.5zM147 381q0 -96 74 -175t180 -79t180 71.5t74 182.5q0 96 -72.5 175t-181.5 79q-98 0 -176 -75t-78 -179z" />
<glyph unicode="p" d="M20 381q0 152 111 266.5t270 114.5q154 0 267.5 -111.5t113.5 -269.5v-109h-125v109q0 98 -67 172q-80 84 -189 84q-100 0 -192 -86q-63 -76 -64 -174q0 -47 21 -88q16 43 53 83t80 52q12 2 24.5 5t28.5 3q63 0 115.5 -40t71.5 -103q6 -25 6 -51q0 -68 -40 -122.5 t-99 -66.5v-12v-385q0 -70 -13 -113q-20 -70 -67 -102q-39 -27 -60 -27q-27 2 -53 2q-10 -1 -19 -1q-47 0 -83 26q-55 43 -56 114q0 45 29 84q47 59 117 60q20 0 39 -6q-16 4 -29 4q-63 0 -82 -53q-6 -18 -6 -35q0 -49 51 -62q16 -8 39 -8v-4q4 -2 24.5 10.5t35 42 t14.5 68.5v397l-62 19l-49 24q-45 27 -78 68q-78 102 -78 221zM274 236q0 -8 6.5 -31t29 -35t40.5 -12q6 0 31 6t37 28.5t12 40.5q0 7 -4 23q-6 29 -26.5 43t-49.5 14q-12 0 -18 -2q-57 -16 -58 -75z" />
<glyph unicode="q" horiz-adv-x="1437" d="M20 381q0 152 111 266.5t270 114.5q59 0 86 -8q33 -6 97 -41q84 -41 135 -127q111 176 319 176q152 0 265.5 -111.5t113.5 -269.5q0 -152 -111.5 -266.5t-267.5 -114.5t-269.5 112.5t-113.5 268.5q0 96 -72.5 175t-181.5 79q-102 0 -178 -73t-76 -181q0 -96 72 -180 q74 -74 182 -74q43 0 86 14l-14 -131l-72 -10q-150 0 -265.5 110.5t-115.5 270.5zM782 381q0 -88 74 -180q74 -74 180 -74q98 0 177 72.5t79 181.5q0 94 -73.5 174t-182.5 80q-100 0 -177 -75t-77 -179z" />
<glyph unicode="r" d="M20 381q0 109 56.5 201t167.5 145l67 -96q-68 -25 -127 -99q-47 -70 -47 -151q0 -72 45 -150q0 78 70 146q63 57 149 57q94 0 158 -59.5t64 -134.5q43 80 43 141q0 45 -10.5 76.5t-39.5 72.5q-39 55 -124 97l69 96q74 -27 158 -135q31 -47 47 -97.5t16 -109.5 q0 -152 -111.5 -266.5t-269.5 -114.5q-150 0 -265.5 110.5t-115.5 270.5zM270 188l4 -36q41 -35 127 -35q53 0 80 8t54 33l4 37q0 57 -31 89.5t-107 49.5q-41 0 -92 -39q-31 -25 -39 -107z" />
<glyph unicode="s" horiz-adv-x="671" d="M16 225q0 61 72 119q16 12 30.5 20.5t37.5 14.5l57 12q-18 2 -34.5 3t-22.5 5l-43 19q-92 35 -93 123q0 16 19.5 44.5t50.5 61.5q111 115 270 115q154 0 267 -113l24 -24l-92 -93l-18 25q-31 39 -76 58.5t-105 19.5q-94 0 -176 -76q-16 -16 -16 -22q0 -10 45 -33 q20 -12 74 -33l43 -12l123 -15v-118l-105 -13q-27 -4 -53.5 -9t-38.5 -11q-37 -6 -63 -23q-8 -4 -19.5 -10t-17.5 -35q39 -39 96 -68.5t108 -29.5t90 16.5t89 55.5l20 16l100 -74l-30 -26q-63 -55 -128 -85t-141 -30q-150 0 -266 111q-29 27 -47 52t-31 62z" />
<glyph unicode="t" horiz-adv-x="1441" d="M20 381q0 -20 1.5 -45t15.5 -66l22 -8l41 6l68 17q37 0 64.5 -26t27.5 -62q0 -37 -26.5 -65t-61.5 -28q-41 0 -70 31v-115q37 -18 82 -18q29 0 41 4q70 16 112 65.5t42 118.5l-4 41q-12 72 -69.5 112t-133.5 40l-25 -2v33q0 39 20.5 76.5t55.5 70.5q80 74 178 74 q109 0 181.5 -76t72.5 -178q0 -109 -75 -182q-41 -41 -88 -56l63 -110q61 27 115 80q49 53 79.5 117.5t30.5 129.5l2 37q6 55 23 86q10 16 24.5 38t30.5 38q78 76 176 76q109 0 181.5 -79t72.5 -175q0 -111 -73.5 -182.5t-180.5 -71.5q-45 0 -88 16l-41 -123q59 -20 129 -20 q158 0 269.5 114.5t111.5 266.5q0 158 -113.5 269.5t-267.5 111.5q-160 0 -270 -115q-31 -33 -45 -53v-10l-25 37l-26 30q-115 111 -269 111q-158 0 -269.5 -112.5t-111.5 -268.5z" />
<glyph unicode="u" d="M20 381q0 152 111 266.5t270 114.5q154 0 267.5 -111.5t113.5 -269.5q0 -147 -110 -268q-49 -49 -117 -80l-63 110q45 12 88 56q75 71 75 179q0 99 -72.5 178t-181.5 79q-98 0 -178 -74q-51 -49 -69 -121l-7 -59l27 2q76 0 130 -39t71 -113l4 -41q0 -61 -43 -116 q-43 -49 -111 -68l-43 -4q-43 0 -80 18v115q25 -31 70 -31q37 0 62.5 29t25.5 64q0 39 -29 61q-27 27 -63 27l-66 -15l-43 -8q-14 0 -22 8q-8 29 -12.5 54.5t-4.5 56.5z" />
<glyph unicode="v" horiz-adv-x="1437" d="M20 381q0 152 111 266.5t270 114.5q154 0 267.5 -111.5t113.5 -269.5q0 -90 74 -180q74 -74 180 -74q104 0 178 74q37 37 57.5 85t20.5 95q0 94 -73.5 174t-182.5 80q-51 0 -88 -14l10 131l80 10q152 0 265.5 -111.5t113.5 -269.5q0 -152 -111.5 -266.5t-269.5 -114.5 q-145 0 -263 110.5t-118 270.5q0 96 -72.5 175t-179.5 79q-104 0 -180 -76t-76 -178q0 -96 72 -175t182 -79q43 0 86 14l-12 -135l-74 -6q-150 0 -265.5 110.5t-115.5 270.5z" />
<glyph unicode="w" horiz-adv-x="1437" d="M20 381q0 152 111 266.5t270 114.5q104 0 179 -40t139 -134q115 174 317 174q154 0 267.5 -111.5t113.5 -269.5q0 -152 -111.5 -266.5t-269.5 -114.5l-73 6l-11 135l39 -10l45 -4q102 0 179 74.5t77 179.5q0 94 -73.5 174t-182.5 80q-102 0 -178 -76t-76 -178 q0 -152 -111.5 -266.5t-269.5 -114.5q-150 0 -265.5 110.5t-115.5 270.5zM147 381q0 -96 74 -175t180 -79t180 71.5t74 182.5q0 96 -72.5 175t-181.5 79q-98 0 -176 -75t-78 -179z" />
<glyph unicode="x" horiz-adv-x="1437" d="M20 381q0 152 111 266.5t270 114.5q197 0 318 -170q117 170 317 170q154 0 267.5 -111.5t113.5 -269.5q0 -152 -111.5 -266.5t-269.5 -114.5q-197 0 -317 172q-111 -172 -318 -172q-150 0 -265.5 110.5t-115.5 270.5zM147 381q0 -96 74 -175t180 -79t180 71.5t74 182.5 q0 96 -72.5 175t-181.5 79q-98 0 -176 -75t-78 -179zM782 381q0 -92 74 -173t180 -81q102 0 179 74.5t77 179.5q0 94 -73.5 174t-182.5 80q-102 0 -178 -76t-76 -178z" />
<glyph unicode="y" d="M20 381q0 47 12.5 99t47.5 102q55 96 153 141l91 -98q-72 -23 -124.5 -91.5t-52.5 -152.5q0 -96 74 -175t180 -79t180 71.5t74 182.5q0 82 -47 143q-43 61 -133 101l96 98q90 -43 150.5 -137t60.5 -205q0 -152 -111.5 -266.5t-269.5 -114.5q-150 0 -265.5 110.5 t-115.5 270.5z" />
<glyph unicode="z" horiz-adv-x="1368" d="M23 371q0 31 2 49t15 66.5t44 93.5q12 12 59 -13l64 -37l26 -4q66 0 86 64l5 24q0 68 -64 88l-27 5q-29 0 -49 -15l33 111l35 4q43 0 86 -25q104 -59 104 -170q0 -27 -4 -44t-18 -44q-53 -98 -168 -98q-43 0 -92 18l-8 -26l-5 -41l7 -62q6 -27 28 -65q53 -86 154 -121 l29 -6l30 -2q35 0 64.5 10t65.5 28.5t65 45.5q29 23 45 53q-8 27 -14.5 61.5t-6.5 65.5q0 80 27 141q25 66 86 123q104 109 274 109q141 0 256 -82l27 -25l29 -28q18 -18 33 -48l-78 -90q-25 63 -97 105l-84 33q-41 12 -86 12q-117 0 -196 -74l-35 -43l-20 -41l-17 -57v-29 q0 -47 6 -59l52 45q25 18 67 37l53 16l56 10h34q117 0 207 -37q49 -18 107 -88l20 -32l13 -35q0 -94 -134 -185q-93 -65 -209 -65h-4q-43 0 -66.5 6t-40.5 12.5t-48 22.5q-88 42 -133 108q-41 -59 -127 -108q-86 -45 -183 -45l-51 2q-16 0 -53 12q-156 47 -227 182 q-49 90 -49 181zM786 233q18 -41 97 -86q61 -28 114 -28h4q74 0 144 42.5t72 71.5q0 33 -84 72l-64 17l-68 10q-41 0 -63 -6q-20 0 -64 -23q-74 -25 -88 -70z" />
<glyph unicode="{" horiz-adv-x="729" d="M55 582l90 88l232 -236l229 230l88 -84l-233 -230l221 -221l-84 -84l-221 219l-219 -221l-88 84l223 223z" />
<glyph unicode="|" horiz-adv-x="718" d="M-6 -336l504 1319l149 -2l-508 -1317h-145zM29 764q0 69 53 110q41 31 88 31q70 0 111 -53q33 -39 32 -90q0 -68 -53 -109q-41 -31 -90 -30q-70 0 -111 53q-31 41 -30 88zM348 -41q0 70 53 111q41 31 88 30q70 0 111 -53q33 -39 33 -90q0 -68 -53 -109q-41 -31 -91 -30 q-70 0 -110 53q-31 41 -31 88z" />
<glyph unicode="}" horiz-adv-x="477" d="M39 1620l102 -45q49 -25 92 -54.5t103 -84.5l26 -27q27 -23 44.5 -64.5t17.5 -82.5q0 -72 -50 -125.5t-126 -53.5q-74 0 -125 51.5t-51 125.5q0 121 110 163l-43 90zM168 1262q0 -31 24.5 -57.5t59.5 -26.5t58.5 23.5t23.5 58.5q0 33 -23.5 57t-58.5 24t-59.5 -22.5 t-24.5 -56.5z" />
<glyph unicode="~" horiz-adv-x="909" d="M84 369q10 29 91 90t124 61q61 0 151.5 -51t153.5 -51q47 0 119 31l61 30l60 41q0 -12 -33 -53l-43 -49l-88 -78q-45 -35 -115 -35q-57 0 -137 50.5t-129 62.5z" />
<glyph horiz-adv-x="831" d="M242 528l69 107q68 102 113 184h80v-700l86 20l-86 -139h-121v592l-64 -29z" />
<glyph horiz-adv-x="831" d="M82 666q23 0 37 -9l37 -12q37 84 98 131q61 43 182 43q123 0 226 -74q43 -31 62 -88t19 -118q0 -25 -73 -115q-47 -53 -127 -115l-88 -71l-54 -50q-49 -43 -75 -79l16 -97l-45 -10l-47 -4q-33 0 -45 6t-23 21q16 154 160 270l147 117l64 57q63 59 63 106q0 46 -47 93 q-49 49 -137 49q-199 0 -199 -207l-129 14z" />
<glyph horiz-adv-x="831" d="M111 152h53l254 643l-33 88l145 -131l-122 -330q88 -12 127 -35q129 -68 129 -223v-51l-9 -37l27 -15l16 -6q-6 -18 -45 -36.5t-73 -18.5q-37 0 -37 27l4 16l10 53l4 47q0 84 -60.5 137.5t-105.5 53.5l-24 -4l-133 -314z" />
<glyph horiz-adv-x="831" d="M37 184l69 -20l316 618l53 66l137 -117l107 -547l78 33l-199 -205l-86 602l-41 -8l-86 -180l-197 -418z" />
<glyph unicode="&#xa0;" horiz-adv-x="1290" d="M100 643q0 80 58 139q53 59 143 60q59 0 98 -23l70 -49l59 -55l-34 98l-17 55l-4 50q0 27 10 55l17 43l26 41q51 57 136 57q76 0 143 -53q63 -57 63 -141l-2 -58l-12 -41l-41 -98l107 84q66 35 131 35q80 0 135 -62q57 -57 57 -137q0 -74 -67 -151q-64 -54 -160 -54 l-109 11q102 -49 164 -125q39 -61 39 -117q0 -76 -59 -135l-60 -45l-41 -13l-35 -2q-104 0 -174 88q-35 43 -65 193l-25 -119l-12 -31l-21 -30q-16 -29 -73 -76l-41 -17l-27 -6l-28 -2q-59 0 -144 58q-59 63 -59 141q0 49 57 143q47 43 135 92l-88 -6q-96 0 -170 49 q-80 55 -80 154zM195 633q0 -49 65 -121l62 -31q37 -10 73 -10h33l68 18v62l-117 45l-17 8l-20 23l16 10l13 -2h12l125 -23l35 41q-25 51 -94 90l-54 23l-53 8q-39 0 -57 -10q-27 -6 -49 -33l-29 -37zM328 238q0 -27 41 -97q41 -43 98 -43q53 0 125 70q59 70 59 145l-2 29 l-55 16l-86 -94l-12 -14l-19 -8l-10 14l12 31l66 114l-37 41q-27 -6 -59 -28l-66 -45q-55 -55 -55 -131zM524 842q1 -66 62 -156l55 21l12 124v27q4 12 17 12l12 -16l4 -23l21 -124l49 -21l30 45l15 33l14 82q0 57 -35 125q-18 25 -49 37q-18 10 -63 16q-39 0 -107 -53 q-37 -80 -37 -129zM707 313q0 -57 10 -75l18 -39l23 -33q55 -68 135 -68q18 0 96 43l23 33q12 18 18 66q0 68 -63 131l-45 28l-86 41l-29 -39l70 -108l16 -35l-12 -14l-7 4l-12 10l-14 12l-92 88l-49 -16v-29zM799 657l37 -45l122 29l25 4q16 0 18 -14l-6 -15l-28 -12 l-113 -51v-64l45 -8l53 -2q74 0 137.5 37t63.5 119q0 59 -45 98q-41 45 -107 45q-49 0 -108 -30q-53 -32 -94 -91z" />
<glyph unicode="&#xa1;" horiz-adv-x="1320" d="M111 565q0 55 57 56l18 -11l33 -24l6 78l8 34l13 35q25 49 92 135l-27 -8q-51 0 -51 58q0 55 53 55q57 0 58 -53l-2 -23q27 27 127 86l73 21l76 10q-31 12 -31 51q0 55 52 55q53 0 53 -55q0 -20 -31 -51q66 0 146 -31q68 -25 135 -86l-4 23q0 53 55 53t55 -55 q0 -57 -55 -58l-21 8q115 -133 115 -282q12 27 51 35q55 0 56 -56q0 -41 -56 -57q-31 0 -51 39q0 -35 -4 -45q0 -27 -4 -33l-25 -74l-30 -55l-52 -76l21 2q55 0 55 -53q0 -55 -55 -55q-49 0 -55 53l4 25q-135 -117 -281 -117q31 -12 31 -53q0 -53 -53 -54q-51 0 -52 54 q0 22 31 53l-61 6l-78 20q-45 12 -137 91l2 -25q0 -53 -58 -53q-53 0 -53 55q0 53 51 53l23 -2l-43 64l-43 67q-29 70 -29 152q-12 -39 -51 -39q-57 0 -57 57zM334 514l8 -37l12 -37l15 -30l28 -43q6 18 49 36q0 18 56 56l10 18l23 31h-27l-12 6l-21 12l-41 -18 q-18 0 -37 18l-37 -18zM334 616l26 5l19 -7l18 -8l37 15q12 0 41 -15l33 15q20 0 27 -5v9l-31 51q-23 0 -58 53l-12 8l-37 27l-37 -70l-14 -32zM469 295l53 -25l94 -34l-4 22q0 12 17 35l-15 41q0 25 15 39l-15 37l2 22l-8 2l-51 -31q0 -16 -55 -59q0 -29 -33 -49zM469 838 q12 -6 35 -56q39 0 53 -53q14 0 27 -10q16 -6 24 -25l8 4l-2 25q0 20 15 37l-15 37q0 27 15 43l-15 32l2 25q-33 -6 -77 -25l-31 -12zM592 565q0 -23 16 -47l58 -29q25 0 48 21.5t23 54.5l-20 53l-12 9l-39 14q-25 0 -48 -20q-8 -6 -26 -56zM705 293q2 -6 7 -15.5t9 -19.5 l-4 -22q33 0 68.5 13t78.5 46l-33 49l-12 6l-14 12l-29 41q-26 0 -51 31l-8 -2l4 -22l-4 -17l-12 -20q6 -6 16 -37q0 -27 -16 -43zM705 760l16 -37l-4 -25l8 -4q6 16 51 35q0 37 55 53q0 37 33 56l-147 59l4 -25l-4 -14l-12 -18l16 -43l-4 -17zM797 514l22 -27l12 -28 q35 -6 52 -56q35 -6 55 -36l61 147l-26 -6l-17 6l-18 12l-39 -18q-6 2 -10 4q-16 8 -29 14l-35 -18zM797 616l28 5q12 0 35 -15l39 15q12 0 39 -15l35 15l26 -5q-6 49 -24 80q-14 33 -39 68q-6 -14 -53 -35q0 -14 -52 -53l-6 -17l-28 -34v-9z" />
<glyph unicode="&#xa2;" horiz-adv-x="1456" d="M82 696h434l135 402h19l172 -29l129 -373h323l97 -32l-332 -240l141 -406l-205 9l-225 170l-274 -201l-199 37l131 399zM176 664l293 -215l-125 -367l322 231l311 -231l-117 367l314 215h-379l-129 378l-123 -378h-367z" />
<glyph unicode="&#xa3;" horiz-adv-x="1298" d="M80 575q0 217 169 400.5t410 183.5q227 0 405.5 -171t178.5 -413q0 -238 -174 -411q-70 -63 -186 -127l-103 -31l-61 -8l-60 -2q-240 0 -409.5 173t-169.5 406zM152 575q0 -193 147 -358q155 -149 360 -149q199 0 352.5 141t153.5 366q0 106 -34.5 194.5t-112.5 166.5 q-145 147 -359 147q-203 0 -355 -155.5t-152 -352.5zM319 545h43q55 -240 297 -240q203 0 293 240h49q0 -76 -24.5 -133.5t-81.5 -116.5q-94 -84 -236 -84q-123 0 -231 82q-66 66 -109 252zM381 762q0 29 24.5 55.5t69.5 34.5q37 0 64 -27q29 -23 28 -63q0 -35 -18.5 -56.5 t-73.5 -35.5q-39 0 -63.5 23.5t-30.5 68.5zM750 762l6 31q6 16 18 29.5t72 29.5q37 0 63 -27l17 -24l10 -39q0 -37 -27 -66q-6 -12 -24 -18l-39 -8q-33 0 -70 24q-27 27 -26 68z" />
<glyph unicode="&#xa4;" horiz-adv-x="1339" d="M80 352v445h553v241h190l432 -463l-432 -462h-190v239h-553zM236 391h561v-248l407 432l-407 429v-244h-561v-369z" />
<glyph unicode="&#xa5;" horiz-adv-x="1388" d="M98 12l2 11l13 24l63 135l17 17l-19 18l45 127l25 86l45 125l73 74l58 49l82 55l39 23l41 20l90 -53l123 135l14 68q6 53 27 65q16 0 47 -82l14 -57l6 -49l-6 -17l-20 -24l-99 -115l127 -82l39 -20l35 -13l41 -2l18 27l230 -12l30 -111l5 -155l-39 -216l-226 -2l-22 80 l-142 -28l-139 14l-24 2l-95 -8l-92 -6q-55 0 -86 6l-100 29l-86 -89l-115 -45l-31 -12zM145 63q0 -12 11 -18l22 4l27 14l28 7l11 14l-4 14l-15 23q-12 16 -28 29l-15 -9l-26 -43l-9 -20zM197 225l18 -2l10 4l33 27l14 65q0 12 -24 37zM252 373l31 -17l10 -47l-33 -84h23 l22 23l27 31l18 24l19 37l34 76l244 278l-33 23q-6 12 -32 20q-12 -4 -25.5 -10t-50.5 -27l-41 -30l-27 -25l-88 -78l-28 -26l-15 -23l-14 -31zM342 205q0 -18 8 -25l43 -14l35 -4l16 6l7 16l6 15l-6 39l-5 32l7 -6l16 -16l8 -39q0 -16 -8 -35l-12 -12l20 -12l33 -3l35 -2 l39 2q35 0 51 11l59 8l37 2l29 -4l71 -8l43 -6l37 2l35 8l92 24l13 4l14 93l2 45q0 47 -8 77l-25 93l-102 8l-182 112l-88 -98l2 -31q0 -29 -13 -65l-67 -80l20 -2l43 4l84 31l-4 -13l-12 -18l-31 -25l-174 -10q-53 0 -70 -8l-41 -20l-41 -27q-6 -8 -16 -49zM510 344l39 -4 q27 0 55 53l21 47l8 45zM1059 98l160 15l14 86l12 106l-2 55q0 33 -10 52l-6 28l-23 68h-131l4 -21l15 -153v-60l-7 -45l-12 -69l-2 -25z" />
<glyph unicode="&#xa6;" horiz-adv-x="1738" d="M145 752v34q0 47 19 119l24 68l17 37l24 43l131 41l160 36q178 29 330 29l168 -6l74 -6q31 -2 45 -4t57 -13l84 -14q20 0 27 -4l36 -12l140 -47q86 -145 86 -262v-29q0 -68 -31 -98q-35 -29 -111 -29q-223 0 -223 160v47q0 57 -14 73q-8 14 -68 52q-49 16 -110 24l-154 8 q-174 0 -266 -32q-82 -37 -82 -123v-45q0 -164 -225 -164q-66 0 -107 24q-31 31 -31 93zM180 764q0 -37 25 -68l31 -16q18 -6 47 -6q88 0 145 28q45 29 45 93v32q-88 -53 -192 -53l-52 2q-31 4 -49 12v-24zM186 827l41 -12l47 -4q76 0 199 55v11q0 160 375 159 q389 0 389 -159v-11l53 -20l60 -21l53 -10l41 -4l43 2l37 14l-31 107q-13 51 -33 88q-106 33 -284 76l-162 16l-166 6q-201 0 -331 -22.5t-269 -75.5l-33 -96zM301 6v154q0 82 21 145q6 41 22 62l45 79l184 291v178h170v-141h228v141h166v-178l184 -295q63 -106 74 -139 l8 -57l6 -86v-154h-1108zM342 45h1026v115v47q0 66 -8 88q-6 33 -82 147l-180 289v146h-92v-140h-297v140h-95v-152l-178 -279l-51 -92l-29 -59q-14 -57 -14 -135v-115zM651 362v68h92v-68h-92zM651 475v64h92v-64h-92zM651 586v67h92v-67h-92zM807 362v68h96v-68h-96z M807 475v64h96v-64h-96zM807 586v67h96v-67h-96zM971 362v68h90v-68h-90zM971 475v64h90v-64h-90zM971 586v67h90v-67h-90zM1237 780q0 -31 55 -71l58 -19l77 -8q63 0 83 16.5t20 67.5v22l-39 -10l-47 -4q-115 0 -207 53v-47z" />
<glyph unicode="&#xa7;" horiz-adv-x="1730" d="M162 700q0 281 202.5 492t501.5 211q283 0 492 -210t209 -493q0 -289 -205 -494.5t-496 -205.5t-497.5 207t-206.5 493zM209 700q0 -266 194 -462q88 -84 211 -144q119 -47 252 -47q264 0 459 188.5t195 464.5q0 270 -193 463t-461 193q-270 0 -463.5 -193.5 t-193.5 -462.5zM266 670v61h68v-61h-68zM334 432l55 29l31 -55l-58 -33zM334 973l28 53l60 -33l-33 -55zM539 199l30 59l58 -35l-33 -57zM539 1200l57 35l31 -55l-58 -33zM762 664v69h67v74h72v-74h219v47l164 -80l-164 -82v46h-219v-406h43l-78 -166l-84 166h47v406h-67z M831 1235v61h66v-61h-66zM1104 223l55 35l33 -59l-57 -33zM1104 1180l31 55l57 -35l-33 -55zM1311 993l53 33l33 -55l-56 -33zM1313 406l30 55l58 -29l-37 -59zM1397 670v61h63v-61h-63z" />
<glyph unicode="&#xa8;" horiz-adv-x="1392" d="M16 260q0 109 95 148q31 12 63 12q49 0 89 -27.5t59 -75.5q8 -18 8 -45q0 -37 -17.5 -75.5t-44.5 -65.5q37 -14 88 -14q119 0 190.5 76.5t71.5 187.5t-77 184q-72 78 -185 78q-82 0 -156.5 -53t-93.5 -131l-86 102q109 201 336 201q158 0 269.5 -110.5t111.5 -270.5 q0 -113 77 -187.5t179 -74.5q106 0 181 77.5t75 184.5q0 102 -78 176q-39 45 -81 57q-43 18 -99 19l-47 -4l-45 -11l19 134l30 10h45q160 0 269.5 -110.5t109.5 -270.5t-114.5 -270.5t-264.5 -110.5q-84 0 -173 48t-144 124q-57 -82 -146 -125q-80 -47 -174 -47l-55 4 l-45 10l-63 25q-8 10 -31 16q-104 66 -139 144q-6 35 -7 61zM125 258q0 -43 51 -43q18 0 30.5 16.5t12.5 36.5t-14.5 30.5t-36.5 10.5q-43 0 -43 -51z" />
<glyph unicode="&#xa9;" horiz-adv-x="987" d="M41 381q0 150 110.5 265.5t270.5 115.5q154 0 267.5 -111.5t113.5 -269.5v-707h53v1139h-276h-66l-55 -6l-51 14q-29 10 -66 35q-57 41 -121 141l-18 58l-10 67q0 84 49 168q43 72 141 131l63 23l68 8l37 -2q20 0 39 -10l78 -31q92 -43 135 -158l-25 -22l-61 -41 q-18 59 -80 108q-51 45 -125 45q-84 0 -146.5 -62t-62.5 -151q0 -45 4 -49q0 -12 21 -53q6 -31 69 -74l27 -18l29 -10l61 -2h57h328q12 0 43 -43l25 -23v-1255h-291v780q0 94 -73 174t-181 80q-100 0 -177 -73t-77 -181q0 -96 72 -180q74 -74 182 -74h14l-14 -127 q-145 0 -263 110.5t-118 270.5z" />
<glyph unicode="&#xab;" horiz-adv-x="1368" d="M23 371q0 31 2 49t15 66.5t44 93.5q12 12 59 -13l64 -37l26 -4q66 0 86 64l5 24q0 68 -64 88l-27 5q-29 0 -49 -15l33 111l35 4q43 0 86 -25q104 -59 104 -170q0 -27 -4 -44t-18 -44q-53 -98 -168 -98q-43 0 -92 18l-8 -26l-5 -41l7 -62q6 -27 28 -65q53 -86 154 -121 l29 -6l30 -2q35 0 64.5 10t65.5 28.5t65 45.5q29 23 45 53q-8 27 -14.5 61.5t-6.5 65.5q0 80 27 141q25 66 86 123q104 109 274 109q141 0 256 -82l27 -25l29 -28q18 -18 33 -48l-78 -90q-25 63 -97 105l-84 33q-41 12 -86 12q-117 0 -196 -74l-35 -43l-20 -41l-17 -57v-29 q0 -47 6 -59l52 45q25 18 67 37l53 16l56 10h34q117 0 207 -37q49 -18 107 -88l20 -32l13 -35q0 -94 -134 -185q-94 -66 -213 -65q-43 0 -66.5 6t-40.5 12.5t-48 22.5q-88 43 -133 108q-41 -59 -127 -108q-86 -45 -183 -45l-51 2q-16 0 -53 12q-156 47 -227 182 q-49 90 -49 181zM473 -449q0 45 29 84q47 59 116 60q20 0 39 -6q-16 4 -28 4q-63 0 -82 -53q-6 -18 -6 -35q0 -49 51 -62q16 -8 39 -8q6 0 25.5 -2t33.5 -2q49 0 67.5 11.5t30 41t11.5 68.5v348h119v-348q0 -78 -9 -113q-16 -70 -63 -102q-20 -14 -57 -20.5t-72 -6.5 q-27 0 -48.5 1t-37.5 1q-59 -6 -103 25q-55 43 -55 114zM786 233q18 -41 97 -86q63 -29 118 -28q74 0 144 42.5t72 71.5q0 33 -84 72l-64 17l-68 10q-41 0 -63 -6q-20 0 -64 -23q-74 -25 -88 -70zM999 4h117v-594h-117v594zM1221 6l118 -6v-348q0 -37 10.5 -67.5t27 -40 t32.5 -11.5t41 -2q20 0 33.5 1t23.5 3q23 0 39 8q51 12 51 64q0 14 -6 33q-18 53 -84 53q-10 0 -26 -4q23 6 41 6q68 0 114 -60q29 -39 29 -84q0 -72 -55 -114q-35 -27 -82 -27q-14 2 -21 2h-41.5t-44.5 -2q-45 0 -74.5 5t-54.5 22q-45 31 -58 89t-13 126v354z" />
<glyph unicode="&#xac;" d="M20 381q0 152 111 266.5t270 114.5q154 0 267.5 -111.5t113.5 -269.5v-109h-125v109q0 98 -67 172q-80 84 -189 84q-100 0 -192 -86q-63 -76 -64 -174q0 -47 21 -88q16 43 53 83t80 52q12 2 24.5 5t28.5 3q63 0 115.5 -40t71.5 -103q6 -25 6 -51q0 -68 -40 -122.5 t-99 -66.5v-12v-385q0 -70 -13 -113q-20 -70 -67 -102q-39 -27 -60 -27q-27 2 -53 2q-59 -6 -102 25q-55 43 -56 114q0 45 29 84q47 59 117 60q20 0 39 -6q-16 4 -29 4q-63 0 -82 -53q-6 -18 -6 -35q0 -49 51 -62q16 -8 39 -8v-4q4 -2 24.5 10.5t35 42t14.5 68.5v397l-62 19 l-49 24q-45 27 -78 68q-78 102 -78 221zM274 236q0 -8 6.5 -31t29 -35t40.5 -12q6 0 31 6t37 28.5t12 40.5q0 7 -4 23q-6 29 -26.5 43t-49.5 14q-12 0 -18 -2q-57 -16 -58 -75zM504 0h119v-348q0 -37 10 -67.5t26.5 -40t33 -11.5t40.5 -2q20 0 33.5 1t24.5 3q23 0 38 8 q51 12 52 64q0 14 -7 33q-18 53 -83 53q-10 0 -27 -4q23 6 41 6q68 0 115 -60q29 -39 28 -84q0 -72 -55 -114q-35 -27 -82 -27q-14 2 -20 2h-42t-44 -2q-45 0 -75 5t-55 22q-45 31 -58 89t-13 126v348z" />
<glyph unicode="&#xad;" horiz-adv-x="841" d="M111 322h604v118h-604v-118z" />
<glyph unicode="&#xb5;" horiz-adv-x="831" d="M242 528l69 107q68 102 113 184h80v-700l86 20l-86 -139h-121v592l-64 -29z" />
<glyph unicode="&#xb6;" horiz-adv-x="831" d="M82 666q23 0 37 -9l37 -12q37 84 98 131q61 43 182 43q123 0 226 -74q43 -31 62 -88t19 -118q0 -25 -73 -115q-47 -53 -127 -115l-88 -71l-54 -50q-49 -43 -75 -79l16 -97l-45 -10l-47 -4q-33 0 -45 6t-23 21q16 154 160 270l147 117l64 57q63 59 63 106q0 46 -47 93 q-49 49 -137 49q-199 0 -199 -207l-129 14z" />
<glyph unicode="&#xb8;" horiz-adv-x="831" d="M37 184l69 -20l316 618l53 66l137 -117l107 -547l78 33l-199 -205l-86 602l-41 -8l-86 -180l-197 -418z" />
<glyph unicode="&#xb9;" horiz-adv-x="831" d="M104 254l2 65q0 33 25 72t82 84l27 19l161 6l62 2l47 6l-2 336l117 -68v-272h37h61v-125h-98v-330l-39 -53h-240q-49 0 -78.5 12t-74.5 58q-61 55 -89 188zM236 248l8 -47q6 -43 45 -70l73 -2l105 -2l41 45v207h-57h-45l-50 -4q-41 0 -63 -6l-33 -21q-8 -8 -14 -31z" />
<glyph unicode="&#xba;" horiz-adv-x="831" d="M104 582q25 125 89 188q29 29 66.5 49.5t86.5 20.5h240l39 -54v-329h98v-125h-61h-37v-273l-117 -67l2 336l-100 6l-170 8l-41 31q-23 18 -37.5 33.5t-28.5 33.5q-18 31 -24 72zM236 588l10 -70q0 -18 14 -33l31 -18l63 -6h43l54 -4h57v207l-41 45h-109q-59 0 -69 -4 q-37 -25 -45 -60z" />
<glyph unicode="&#xbb;" horiz-adv-x="831" d="M115 121l456 526l-41 70l-411 -17l47 131h430l61 -77l60 -95l-434 -509l18 -44l387 15l-22 -121h-471l-74 39z" />
<glyph unicode="&#xbc;" d="M72 270q0 59 30.5 98.5t87.5 69.5l-45 31q-31 29 -30 84q0 152 145 225q16 8 27.5 13.5t29.5 9.5q10 -27 21 -51q2 -18 4 -58l-47 -24q-49 -35 -49 -95q0 -39 53 -79q53 -33 109 -33q51 0 102 32.5t51 88.5q0 55 -51 88q-14 10 -30.5 15t-22.5 8t-6 18q0 27 13.5 59.5 t27.5 30.5q39 -8 65.5 -20.5t54.5 -37.5q90 -68 90 -194q0 -37 -13 -57.5t-85 -59.5q70 -10 105.5 -52t35.5 -114q0 -55 -24 -98q-12 -25 -74 -80q-100 -88 -239 -88q-150 0 -242 84q-43 39 -72 82q-23 41 -22 104zM211 272q0 -72 56.5 -120t131.5 -48q74 0 140 50 q25 23 38 55t13 57q0 53 -62 88q-61 31 -129 31q-55 0 -121.5 -29.5t-66.5 -83.5z" />
<glyph unicode="&#xbd;" d="M72 270q0 59 30.5 98.5t87.5 69.5l-45 31q-31 29 -30 84q0 152 145 225q47 23 148 37q119 0 204 -72q90 -68 90 -194q0 -37 -13 -57.5t-85 -59.5q70 -10 105.5 -52t35.5 -114q0 -55 -24 -98q-12 -25 -74 -80q-20 -18 -80.5 -49t-97.5 -43q0 18 -2 37.5t-4 38.5 q0 39 26 59q37 27 59.5 45.5t26.5 28.5q14 37 15 61q0 53 -62 88q-61 31 -129 31q-55 0 -121.5 -29.5t-66.5 -83.5q0 -33 26.5 -71.5t61.5 -69.5q0 -16 8 -55t8 -53q0 -27 -20 -19q-29 12 -67 35.5t-62 44.5q-43 39 -72 82q-23 41 -22 104zM246 573q0 -39 53 -79 q53 -33 109 -33q51 0 102 33t51 88t-51 89t-109 34q-51 0 -103 -36t-52 -96z" />
<glyph unicode="&#xbe;" horiz-adv-x="831" d="M39 412q0 178 107.5 294.5t269.5 116.5q160 0 265 -116.5t105 -294.5q0 -172 -105 -292t-265 -120q-164 0 -270.5 115.5t-106.5 296.5zM152 412q0 -121 73.5 -204t190.5 -83q111 0 185.5 84t74.5 203q0 125 -76 202q-73 84 -184 84q-109 0 -186.5 -81.5t-77.5 -204.5z " />
<glyph unicode="&#xbf;" horiz-adv-x="831" d="M61 270l99 60q102 -201 256 -201q109 0 186 80q74 84 74 205q0 125 -76 202q-74 84 -184 84q-154 0 -256 -200l-99 59q137 266 355 266q160 0 266 -117.5t106 -293.5t-104 -294t-268 -118q-221 0 -326 209z" />
<glyph unicode="&#xc0;" horiz-adv-x="831" d="M39 -131h113v-64q0 -119 75 -206q39 -41 85 -62.5t104 -21.5q111 0 185.5 86t74.5 204v961h110v-961q0 -182 -100 -297.5t-270 -115.5q-164 0 -270.5 116.5t-106.5 296.5v64z" />
<glyph unicode="&#xc1;" horiz-adv-x="831" d="M63 565l29 58q102 201 324 200q164 0 267 -115.5t103 -299.5q0 -180 -103 -296t-267 -116q-35 0 -70 6t-74 23l217 -572l-104 -51l-307 825l69 33l25 23l6 -11l8 -10q51 -70 109.5 -105.5t120.5 -35.5q109 0 184.5 82t75.5 205q0 121 -74 205.5t-186 84.5 q-145 0 -256 -196z" />
<glyph unicode="&#xc2;" horiz-adv-x="831" d="M45 408q0 182 105.5 298.5t269.5 116.5q227 0 321 -200l27 -58l-92 -63q-109 197 -256 196q-111 0 -186.5 -81.5t-75.5 -208.5q0 -121 75.5 -204t186.5 -83q90 0 237 153l37 -12l62 -39l-305 -821l-105 51l213 572q-70 -29 -139 -29q-158 0 -266.5 116.5t-108.5 295.5z " />
<glyph unicode="&#xc3;" horiz-adv-x="831" d="M39 -131h113v-66q0 -121 75 -204q39 -41 85 -62.5t104 -21.5q109 0 184.5 84t75.5 204v605q0 121 -74 205.5t-186 84.5q-166 0 -246 -182q164 -23 229 -154q37 -74 37 -155q0 -76 -35 -125q-37 -59 -104 -59q-45 0 -117 57q-141 111 -141 326q0 184 105.5 300.5 t271.5 116.5q172 0 271 -105.5t99 -293.5v-621q0 -186 -103 -299.5t-267 -113.5t-270.5 115.5t-106.5 297.5v66zM152 406q0 -131 86 -222q25 -12 45 -30l16 -2q29 0 29 67q0 82 -51 143.5t-125 61.5v-18z" />
<glyph unicode="&#xc4;" horiz-adv-x="831" d="M39 414v604q0 182 105.5 299t271.5 117q170 0 270 -115t100 -305h-110q0 127 -70.5 211t-189.5 84q-115 0 -189.5 -82t-74.5 -209v-604q0 -123 73.5 -206t190.5 -83q100 0 166.5 65.5t91.5 171.5l-225 46q-180 35 -181 184q0 72 50.5 130t117.5 58q39 0 84 -22l68 -51 l-76 -103q-39 51 -70 43q-51 -23 -51 -57q0 -31 21 -43q141 -25 327 -68q23 0 47 -47v-18q0 -182 -102 -298t-268 -116q-164 0 -270.5 115.5t-106.5 298.5z" />
<glyph unicode="&#xc5;" horiz-adv-x="831" d="M39 408q0 182 105.5 298.5t271.5 116.5q164 0 267 -115.5t103 -299.5q0 -45 -2 -65.5t-14 -55.5l-141 -486q-20 -76 -21 -170q0 -121 68 -120q10 0 39 30l45 -112q-39 -39 -92 -39q-47 0 -93 32q-80 61 -79 209q0 188 170 697q10 31 10 80q0 121 -74 205.5t-186 84.5 q-115 0 -189.5 -81.5t-74.5 -208.5q0 -158 178 -279l-60 -109l-49 33q-182 127 -182 355z" />
<glyph unicode="&#xc6;" horiz-adv-x="831" d="M39 408q0 180 105.5 295.5t271.5 115.5q162 0 266 -115.5t104 -295.5q1 -236 -239 -388l-58 109q186 113 187 279q0 121 -74 205.5t-186 84.5q-166 0 -246 -182q78 0 135 -40t94 -113.5t37 -151.5q0 -66 -37 -126t-102 -60q-39 0 -117 61q-141 111 -141 322zM152 408 q0 -129 86 -220q25 -12 45 -30l16 -4q29 0 29 69q0 86 -49 143.5t-127 57.5v-16z" />
<glyph unicode="&#xc7;" horiz-adv-x="831" d="M39 -197v609q0 182 104.5 297.5t272.5 115.5q164 0 267 -116.5t103 -296.5v-21q-16 -37 -47 -45l-327 -70q-18 -6 -21 -38q0 -39 51 -60q29 -6 70 43l76 -104l-68 -49q-39 -23 -84 -23q-66 0 -117 57.5t-51 128.5q0 147 181 187l225 45q-18 104 -90 170q-68 68 -168 67 q-111 0 -187.5 -82.5t-76.5 -205.5v-609q0 -121 75 -204q39 -41 85 -62.5t104 -21.5q115 0 187.5 85t72.5 212h110q0 -183 -106 -304q-70 -80 -133 -102q-39 -16 -131 -16q-164 0 -270.5 115.5t-106.5 297.5z" />
<glyph unicode="&#xf6;" d="M20 381q0 152 111 266.5t270 114.5q154 0 267.5 -111.5t113.5 -269.5v-481l105 4l-2 -119h-230v596q0 96 -72.5 175t-181.5 79q-102 0 -178 -73t-76 -181q0 -96 72 -180q74 -74 182 -74h15l-15 -127q-150 0 -265.5 110.5t-115.5 270.5zM422 0h119v-348q0 -37 10 -67.5 t26.5 -40t33 -11.5t40.5 -2q20 0 33.5 1t24.5 3q23 0 39 8q51 12 51 64q0 14 -6 33q-18 53 -84 53q-10 0 -27 -4q23 6 41 6q68 0 115 -60q29 -39 28 -84q0 -72 -55 -114q-35 -27 -82 -27q-14 2 -20 2h-42t-44 -2q-45 0 -75 5t-54 22q-45 31 -58.5 89t-13.5 126v348z" />
<glyph unicode="&#xf7;" d="M20 381q0 152 111 266.5t270 114.5q154 0 267.5 -111.5t113.5 -269.5v-522l105 4l-2 -119h-230v637q0 96 -72.5 175t-181.5 79q-102 0 -178 -73t-76 -181q0 -96 72 -180q74 -74 182 -74h15l-15 -127q-150 0 -265.5 110.5t-115.5 270.5zM242 4h116v-594h-116v594zM483 0 h119v-348q0 -37 10.5 -67.5t26.5 -40t32.5 -11.5t41.5 -2q20 0 33.5 1t23.5 3q23 0 39 8q51 12 51 64q0 14 -6 33q-18 53 -84 53q-10 0 -27 -4q23 6 41 6q68 0 115 -60q29 -39 29 -84q0 -72 -56 -114q-35 -27 -81 -27q-14 2 -21 2h-41.5t-44.5 -2q-45 0 -74.5 5t-54.5 22 q-45 31 -58.5 89t-13.5 126v348z" />
<glyph unicode="&#xf8;" d="M8 -403q0 43 23 79l94 140l133 184h119l104 -137l127 -182l21 -37l8 -47l-2 -46q0 -23 -10 -38q-6 -29 -37 -62q-49 -53 -131 -53h-271q-80 0 -131 53q-23 18 -30 53l-15 47zM20 381q0 152 111 266.5t270 114.5q154 0 267.5 -111.5t113.5 -269.5v-809l105 4l-2 -119h-230 v924q0 96 -72.5 175t-181.5 79q-102 0 -178 -73t-76 -181q0 -96 72 -180q74 -74 182 -74h15l-15 -127q-150 0 -265.5 110.5t-115.5 270.5zM117 -399q0 -35 4 -39q0 -18 20 -37q25 -29 68 -29h231q23 0 68 29l16 33l4 43q0 29 -22 59l-187 236l-69 -80q-48 -56 -111 -156 l-12 -27z" />
<glyph unicode="&#x2000;" horiz-adv-x="819" />
<glyph unicode="&#x2001;" horiz-adv-x="1638" />
<glyph unicode="&#x2002;" horiz-adv-x="819" />
<glyph unicode="&#x2003;" horiz-adv-x="1638" />
<glyph unicode="&#x2004;" horiz-adv-x="546" />
<glyph unicode="&#x2005;" horiz-adv-x="409" />
<glyph unicode="&#x2006;" horiz-adv-x="273" />
<glyph unicode="&#x2007;" horiz-adv-x="273" />
<glyph unicode="&#x2008;" horiz-adv-x="204" />
<glyph unicode="&#x2009;" horiz-adv-x="327" />
<glyph unicode="&#x200a;" horiz-adv-x="91" />
<glyph unicode="&#x2010;" horiz-adv-x="841" d="M111 322h604v118h-604v-118z" />
<glyph unicode="&#x2011;" horiz-adv-x="841" d="M111 322h604v118h-604v-118z" />
<glyph unicode="&#x2012;" horiz-adv-x="841" d="M111 322h604v118h-604v-118z" />
<glyph unicode="&#x2013;" horiz-adv-x="1261" d="M111 322h1024v118h-1024v-118z" />
<glyph unicode="&#x2014;" horiz-adv-x="2285" d="M111 322h2048v118h-2048v-118z" />
<glyph unicode="&#x2018;" horiz-adv-x="831" d="M104 254l2 65q0 33 25 72t82 84l27 19l161 6l62 2l47 6l-2 336l117 -68v-272h37h61v-125h-98v-330l-39 -53h-240q-49 0 -78.5 12t-74.5 58q-61 55 -89 188zM236 248l8 -47q6 -43 45 -70l73 -2l105 -2l41 45v207h-57h-45l-50 -4q-41 0 -63 -6l-33 -21q-8 -8 -14 -31z" />
<glyph unicode="&#x2019;" horiz-adv-x="831" d="M104 582q25 125 89 188q29 29 66.5 49.5t86.5 20.5h240l39 -54v-329h98v-125h-61h-37v-273l-117 -67l2 336l-100 6l-170 8l-41 31q-23 18 -37.5 33.5t-28.5 33.5q-18 31 -24 72zM236 588l10 -70q0 -18 14 -33l31 -18l63 -6h43l54 -4h57v207l-41 45h-109q-59 0 -69 -4 q-37 -25 -45 -60z" />
<glyph unicode="&#x201c;" horiz-adv-x="831" d="M115 121l456 526l-41 70l-411 -17l47 131h430l61 -77l60 -95l-434 -509l18 -44l387 15l-22 -121h-471l-74 39z" />
<glyph unicode="&#x201d;" horiz-adv-x="831" d="M72 262q0 59 30.5 98t87.5 70l-45 31q-31 29 -30 84q0 80 48 145.5t122 97.5l28 -57l15 -39l6 -24q-25 -18 -45 -45q-10 -14 -17 -58q0 -33 45 -71q47 -31 91 -31q41 0 84 30.5t43 79.5q0 31 -17 54q-12 23 -41 37l8 38q25 84 60 76q68 -29 112.5 -91t44.5 -146 q0 -37 -13 -57.5t-85 -59.5q70 -10 105.5 -52t35.5 -114q0 -55 -24 -98q-12 -25 -74 -80q-100 -88 -239 -88q-150 0 -242 84q-43 39 -72 82q-23 41 -22 104zM229 264q0 -70 52 -121q51 -47 120 -47q68 0 127 49q20 20 32.5 51t12.5 62q0 53 -55 88q-55 31 -117 31 q-51 0 -111.5 -30t-60.5 -83z" />
<glyph unicode="&#x2022;" horiz-adv-x="831" d="M72 549q0 70 22 106l27 33l45 47q94 84 242 84q143 0 239 -88l60 -59q38 -51 38 -119q0 -141 -141 -166l68 -39q31 -25 30 -78q0 -78 -43 -143.5t-114 -93.5q-31 -12 -58 73l-10 41q25 12 38 32t20 59q0 51 -41 79q-37 31 -86 31q-43 0 -89.5 -32.5t-46.5 -69.5 q0 -33 17.5 -57.5t44.5 -45.5q6 -6 -19 -63l-30 -57q-74 31 -119 90q-51 70 -51 153q0 37 18 72q12 18 57 43q-57 29 -90 68q-29 39 -28 100zM229 547q0 -47 56 -82q55 -31 116 -31q57 0 107.5 27t64.5 88q6 59 -49 115q-55 51 -123 51q-63 0 -117.5 -48.5t-54.5 -119.5z " />
<glyph unicode="&#x202f;" horiz-adv-x="327" />
<glyph unicode="&#x205f;" horiz-adv-x="409" />
<glyph unicode="&#x2219;" horiz-adv-x="831" d="M111 152h53l254 643l-33 88l145 -131l-122 -330q88 -12 127 -35q129 -68 129 -223v-51l-9 -37l27 -15l16 -6q-6 -18 -45 -36.5t-73 -18.5q-37 0 -37 27l4 16l10 53l4 47q0 84 -60.5 137.5t-105.5 53.5l-24 -4l-133 -314z" />
<glyph unicode="&#x25fc;" horiz-adv-x="757" d="M0 0v758h758v-758h-758z" />
</font>
</defs>
</svg>
