<?xml version="1.0" standalone="no"?>
<!DOCTYPE svg PUBLIC "-//W3C//DTD SVG 1.1//EN" "http://www.w3.org/Graphics/SVG/1.1/DTD/svg11.dtd" >
<svg xmlns="http://www.w3.org/2000/svg" xmlns:xlink="http://www.w3.org/1999/xlink" version="1.1">
<metadata></metadata>
<defs>
<font id="aj_13semi_bold" horiz-adv-x="0" >
<font-face units-per-em="2048" ascent="1638" descent="-410" />
<missing-glyph horiz-adv-x="659" />
<glyph unicode="&#x107a;&#x102f;" horiz-adv-x="1899" d="M89 513q0 108 32.5 201.5t94 162.5t150 108t201.5 39q144 0 257 -68t173 -201q17 -35 27.5 -70.5t10.5 -72.5q1 -35 1.5 -73t3.5 -80q2 -24 7 -50t12 -49q13 -43 34 -78.5t53 -61.5t76 -40.5t102 -14.5q76 0 131 29t91 77.5t53 111.5t17 131t-17 131.5t-53 112t-91 78 t-131 29.5q-28 0 -55.5 -4.5t-54.5 -10.5l-30 160q35 7 70 11.5t70 4.5q113 0 201.5 -39t150 -108t94 -162.5t32.5 -202.5t-32 -202.5t-93.5 -162t-150.5 -107.5t-202 -39q-78 0 -153 23t-137 72v-630q0 -13 0.5 -25t1.5 -23q4 -7 26 -7q14 -2 34 -2h42t44.5 0.5t42 0.5 t35 0.5t23.5 0.5v-158h-297q-10 0 -18.5 1t-17.5 4q-41 9 -69.5 40.5t-28.5 76.5v1248q0 17 -9.5 40.5t-17.5 38.5q-39 78 -104.5 120t-153.5 42q-76 0 -132 -29.5t-92.5 -78.5t-54 -112.5t-17.5 -132.5q0 -50 8.5 -97.5t28 -88.5t52 -73.5t80.5 -53.5q50 -22 104 -22 q18 0 35 1.5t34 6.5l47 -169q-23 -8 -46.5 -12t-46.5 -4q-113 0 -201.5 39.5t-150 108.5t-94 162.5t-32.5 201.5zM1409 -40h193v-553h198v-166h-293q-40 0 -69 21t-29 65v633z" />
<glyph unicode="&#x107a;&#x1030;" horiz-adv-x="1903" d="M89 513q0 103 29.5 192.5t85.5 157.5t136.5 110.5t183.5 49.5q12 0 24.5 0.5t26.5 0.5q99 -1 180.5 -29.5t140.5 -82t94.5 -130t43.5 -174.5q1 -5 1 -11t1 -12q0 -20 -2 -41t-2 -43q0 -66 18.5 -127t55 -107.5t91 -74t127.5 -27.5q76 0 131 29t91 77.5t53 111.5t17 131 t-17 131.5t-53 112t-91 78t-131 29.5q-28 0 -55.5 -4.5t-54.5 -10.5l-30 160q33 7 66.5 11.5t67.5 4.5q13 0 25 -0.5t25 -0.5q103 -7 183.5 -49.5t136 -110.5t85 -158t29.5 -193q0 -109 -32 -202.5t-93.5 -162t-150.5 -107.5t-202 -39q-78 0 -153 23t-137 72 q0 -163 -0.5 -323.5t-0.5 -323.5v-9t1 -8q0 -5 1 -9t2 -7q10 -1 19.5 -2t19.5 -1l159 -2v-158h-249q-10 0 -18.5 1t-17.5 4q-41 9 -69.5 40.5t-28.5 76.5v1067v91.5t-2 91.5q-1 23 -9.5 43.5t-18.5 39.5q-42 75 -105.5 115.5t-149.5 40.5q-76 0 -132 -29.5t-92.5 -78.5 t-54 -112.5t-17.5 -132.5q0 -50 8.5 -97.5t29 -89t53 -74.5t80.5 -53q23 -10 49 -15.5t53 -5.5q18 0 35 1.5t34 6.5l47 -169q-23 -8 -46.5 -12t-46.5 -4q-113 0 -201.5 39.5t-150 108.5t-94 162.5t-32.5 201.5zM1278 -40h192v-705h-192v705zM1550 -40h193v-553h198v-166 h-293q-40 0 -69 21t-29 65v633z" />
<glyph unicode="&#x107a;&#x102d;&#x102f;" horiz-adv-x="1896" d="M89 513q0 108 32.5 201.5t94 162.5t150 108t201.5 39q133 0 240 -58.5t170 -171.5q23 -40 40.5 -89t17.5 -95q0 -26 -1.5 -51t-1.5 -50q1 -67 18 -129t52.5 -110t90.5 -76.5t131 -28.5t131 29t91 77.5t53 111.5t17 131t-17 131.5t-53 112t-91 78t-131 29.5 q-28 0 -55.5 -4.5t-54.5 -10.5l-30 160q35 7 70 11.5t70 4.5q113 0 201.5 -39.5t150 -108.5t94 -162.5t32.5 -201.5q0 -109 -32 -202.5t-93.5 -162t-150.5 -107.5t-202 -39q-78 0 -153 23t-137 72v-663q0 -7 1 -12q0 -5 2 -9q12 -2 23.5 -2h25.5l197 1v-158h-297 q-10 0 -18.5 1t-17.5 4q-41 9 -69.5 40.5t-28.5 76.5v1248q0 17 -9.5 40t-17.5 39q-40 78 -104 120t-154 42q-76 0 -132 -29.5t-92.5 -78.5t-54 -112.5t-17.5 -132.5t15.5 -128.5t48.5 -104t84.5 -71.5t124.5 -31q3 0 11.5 0.5t19 1t21 2t17.5 4.5l47 -169q-23 -8 -46.5 -12 t-46.5 -4q-113 0 -201.5 39.5t-150 108.5t-94 162.5t-32.5 201.5zM950 1434q0 63 20.5 129t65.5 120.5t118 89.5t178 35t177.5 -35t118 -89.5t65.5 -121t20 -128.5t-20 -128t-65.5 -121t-118 -90t-177.5 -35t-178 35t-118 89.5t-65.5 121t-20.5 128.5zM1128 1434 q0 -46 12.5 -86.5t38 -70.5t63.5 -47t90 -17q51 0 89.5 17t64 47t38 70.5t12.5 86.5q0 47 -12.5 87.5t-38 70.5t-64 47t-89.5 17q-52 0 -90 -17t-63.5 -47t-38 -70.5t-12.5 -87.5zM1409 -40h193v-553h198v-166h-293q-31 0 -50.5 9t-30 22.5t-14 28.5t-3.5 26v633z" />
<glyph unicode="&#x107a;&#x102d;&#x1030;" horiz-adv-x="1902" d="M89 513q0 108 32.5 201.5t94 162.5t150 108t201.5 39q56 0 112 -14t108 -40t97.5 -62.5t79 -82.5t52.5 -99.5t19 -112.5q0 -24 -2 -49.5t-2 -52.5q0 -68 18 -130.5t54 -110.5t91 -76.5t130 -28.5q76 0 131 29t91 77.5t53 111.5t17 131t-17 131.5t-53 112t-91 78 t-131 29.5q-28 0 -55.5 -4.5t-54.5 -10.5l-30 160q35 7 70 11.5t70 4.5q11 0 22 -0.5t22 -0.5q103 -7 183.5 -49.5t136 -110.5t85 -158t29.5 -193q0 -109 -32 -202.5t-93.5 -162t-150.5 -107.5t-202 -39q-78 0 -153 23t-137 72v-162.5t0.5 -175t0.5 -175v-162.5q0 -14 7 -14 q5 0 15 1.5t27 1.5h75.5t75.5 1v-158h-249q-10 0 -18.5 1t-17.5 4q-41 9 -69.5 40.5t-28.5 76.5v1248q0 17 -9.5 40.5t-17.5 38.5q-38 78 -104 120t-154 42q-76 0 -132 -29.5t-92.5 -78.5t-54 -112.5t-17.5 -132.5q0 -51 8.5 -98.5t28.5 -88.5t53 -73.5t81 -53.5 q23 -10 49 -15.5t53 -5.5q18 0 35 1.5t34 6.5l47 -169q-23 -8 -46.5 -12t-46.5 -4q-112 0 -201 39t-150.5 108t-94 162.5t-32.5 202.5zM950 1434q0 85 28 154t78.5 118t121 75.5t154.5 26.5t154 -26.5t120.5 -75.5t78.5 -118t28 -154t-28 -154t-78.5 -118t-120.5 -75.5 t-154 -26.5t-154.5 26.5t-121 75.5t-78.5 118t-28 154zM1128 1434q0 -48 13 -88.5t38.5 -70t63.5 -46t89 -16.5q50 0 88.5 16.5t64 46t38.5 70t13 88.5t-13 88.5t-38.5 70.5t-64 46.5t-88.5 16.5q-51 0 -89 -16.5t-63.5 -46.5t-38.5 -70.5t-13 -88.5zM1278 -40h192v-705 h-192v705zM1550 -40h193v-553h198v-166h-293q-40 0 -69 21t-29 65v633z" />
<glyph unicode="&#x107a;&#x103d;" horiz-adv-x="1902" d="M89 513q0 108 32.5 201.5t94 162.5t150 108t201.5 39q144 0 257 -68t173 -201q14 -31 26 -67.5t12 -71.5q0 -25 -1.5 -58t-1.5 -58q2 -67 20.5 -127.5t54.5 -106.5t90 -73.5t127 -27.5q76 0 131 29t91 77.5t53 111.5t17 131t-17 131.5t-53 112t-91 78t-131 29.5 q-28 0 -55.5 -4.5t-54.5 -10.5l-30 160q35 7 70 11.5t70 4.5q113 0 201.5 -39.5t150 -108.5t94 -162.5t32.5 -201.5q0 -109 -32 -202.5t-93.5 -162t-150.5 -107.5t-202 -39q-81 0 -155 23.5t-135 71.5v-671q0 -13 10 -15l66 1v-158h-124q-26 0 -50.5 9t-43 25t-29.5 38.5 t-11 49.5v1248q0 8 -3 18.5t-7 21.5t-9 21.5t-8 17.5q-39 79 -103.5 120.5t-154.5 41.5q-76 0 -132 -29.5t-92.5 -78t-54 -112.5t-17.5 -133t15.5 -128.5t48.5 -104t84.5 -71.5t124.5 -31q3 0 11.5 0.5t19 1t21 2t17.5 4.5l47 -169q-23 -8 -46.5 -12t-46.5 -4 q-113 0 -201.5 39.5t-150 108.5t-94 162.5t-32.5 201.5zM1087 -402q0 60 19.5 124t63.5 116.5t114.5 86.5t172.5 34q101 0 171.5 -34t114.5 -86.5t63.5 -116.5t19.5 -124t-19.5 -124t-63.5 -116.5t-114.5 -86.5t-171.5 -34q-102 0 -172.5 34t-114.5 86.5t-63.5 116.5 t-19.5 124zM1263 -402q0 -44 12 -82t36.5 -66.5t61 -44.5t84.5 -16q49 0 85 16t60 44.5t35.5 66.5t11.5 82t-11.5 82.5t-35.5 66.5t-60 44t-85 16q-48 0 -84.5 -16t-61 -44t-36.5 -66.5t-12 -82.5z" />
<glyph unicode="&#x1081;&#x1082;&#x103a;" horiz-adv-x="1132" d="M-58 -674l64 160q39 -17 77.5 -35t79.5 -30q4 12 7 24t7 25l140 571q-62 35 -106.5 85.5t-73 111.5t-41.5 128.5t-13 135.5q0 110 31.5 205t92.5 166t150.5 111.5t204.5 40.5t204.5 -40.5t151 -111.5t93.5 -166t32 -205q0 -79 -16 -151t-49.5 -133.5t-86 -112 t-125.5 -86.5l-125 131q115 51 163 140.5t48 211.5q0 68 -16.5 132t-51.5 114t-90 80.5t-132 30.5q-86 0 -152 -45.5t-100 -123.5q66 -9 116.5 -40.5t84.5 -78t51.5 -105t17.5 -121.5q0 -68 -19 -129q-4 -12 -9.5 -22.5t-8.5 -21.5l-190 -777q-7 -32 -19.5 -59t-31.5 -47 t-45.5 -31.5t-61.5 -11.5q-33 0 -65.5 7.5t-64.5 19t-63 25.5t-60 28zM193 1433q0 83 27.5 151t77 116t118.5 74t151 26t151 -26t118.5 -74t77.5 -116t28 -151l-176 -32q0 50 -9.5 95t-33 79t-61.5 54t-95 20q-49 0 -86.5 -16t-62.5 -45t-37.5 -68.5t-12.5 -86.5t12.5 -86.5 t37.5 -68.5t62.5 -45t86.5 -16h74v-151h-74q-82 0 -151 26t-118.5 74t-77 116t-27.5 151zM277 541q-1 -44 3.5 -88t17 -85.5t33.5 -80t53 -70.5q25 24 33.5 57.5t9.5 67.5q1 14 0 27q-3 32 -13.5 61.5t-29 53t-45.5 38.5t-62 19zM459 -405q0 84 27.5 151.5t77 115.5 t118.5 74t151 26h75v-151h-75q-49 0 -86 -16t-62 -45t-38 -68.5t-13 -86.5t12.5 -86.5t37.5 -68.5t62.5 -45t86.5 -16q57 0 95.5 20t61.5 54t33 79.5t10 95.5l176 -33q0 -83 -28 -151t-77.5 -116t-118.5 -74t-152 -26q-82 0 -150.5 26.5t-118 74.5t-77.5 115.5t-28 150.5z " />
<glyph unicode="&#x1081;&#x1082;" horiz-adv-x="1132" d="M-58 -674l64 160q39 -17 77.5 -35t79.5 -30q4 12 7 24t7 25l140 571q-62 35 -106.5 85.5t-73 111.5t-41.5 128.5t-13 135.5q0 110 31.5 205t92.5 166t150.5 111.5t204.5 40.5t204.5 -40.5t151 -111.5t93.5 -166t32 -205q0 -79 -16 -151t-49.5 -133.5t-86 -112 t-125.5 -86.5l-125 131q115 51 163 140.5t48 211.5q0 68 -16.5 132t-51.5 114t-90 80.5t-132 30.5q-86 0 -152 -45.5t-100 -123.5q66 -9 116.5 -40.5t84.5 -78t51.5 -105t17.5 -121.5q0 -68 -19 -129q-4 -12 -9.5 -22.5t-8.5 -21.5l-190 -777q-7 -32 -19.5 -59t-31.5 -47 t-45.5 -31.5t-61.5 -11.5q-33 0 -65.5 7.5t-64.5 19t-63 25.5t-60 28zM277 541q-1 -44 3.5 -88t17 -85.5t33.5 -80t53 -70.5q25 24 33.5 57.5t9.5 67.5q1 14 0 27q-3 32 -13.5 61.5t-29 53t-45.5 38.5t-62 19zM464 -407q0 83 27.5 151t77 116t118.5 74t151 26h74v-151h-74 q-49 0 -86 -16t-62 -45t-38 -68.5t-13 -86.5t12.5 -86.5t37.5 -68.5t62.5 -45t86.5 -16q57 0 95.5 20t61.5 54t33 79t10 95l175 -32q0 -83 -28 -151t-77.5 -116t-118.5 -74t-151 -26t-151 26t-118.5 74t-77 116t-27.5 151z" />
<glyph unicode="&#x103b;&#x103d;" horiz-adv-x="325" d="M-881 -394q0 81 27 146.5t75 112t114.5 72t146.5 25.5q74 0 136 -21.5t108 -60.5t75.5 -94t38.5 -122q4 -24 5 -49.5t-1 -51.5l206 -107v1550h185v-1761h-162l-286 156q-26 -39 -59.5 -67t-73 -47t-83 -28t-89.5 -9q-80 0 -146.5 25.5t-114.5 72t-75 112t-27 146.5z M-706 -394q0 -44 12 -81.5t35.5 -64.5t58.5 -42.5t82 -15.5t82 15.5t58.5 42.5t35 64.5t11.5 81.5t-11.5 81.5t-35 64.5t-58.5 42.5t-82 15.5t-82 -15.5t-58.5 -42.5t-35.5 -64.5t-12 -81.5z" />
<glyph unicode="&#xd;" horiz-adv-x="682" />
<glyph unicode="&#xa;" horiz-adv-x="682" />
<glyph horiz-adv-x="682" />
<glyph unicode=" "  horiz-adv-x="659" />
<glyph unicode="&#x09;" horiz-adv-x="659" />
<glyph unicode="&#xa0;" horiz-adv-x="659" />
<glyph unicode="!" horiz-adv-x="827" d="M247 136q0 19 7 41.5t23.5 41.5t44 31.5t67.5 12.5q41 0 68 -13t43.5 -32t23 -41t6.5 -41q0 -18 -6.5 -40t-22.5 -41.5t-43.5 -32.5t-68.5 -13t-68 13t-43.5 32t-23.5 41t-7 41zM261 1454h254l-44 -1097h-166z" />
<glyph unicode="&#x22;" horiz-adv-x="840" d="M128 1413h223l-37 -456h-149zM409 1413h222l-36 -456h-148z" />
<glyph unicode="#" horiz-adv-x="1499" d="M82 471v171h323l58 222h-278v171h324l96 369h204l-97 -369h196l97 369h203l-97 -369h273v-171h-318l-59 -222h273v-171h-319l-123 -471h-203l123 471h-195l-124 -471h-203l123 471h-277zM609 642h195l58 222h-195z" />
<glyph unicode="$" horiz-adv-x="1192" d="M85 455v54l195 -2q0 -51 3 -102.5t20.5 -93t54.5 -68t104 -28.5v473q-70 8 -131.5 34.5t-107 70.5t-71.5 104.5t-26 135.5t25.5 137.5t70.5 109.5t106.5 77t133.5 40v155h194v-151q97 -9 167 -44t115 -92t67 -133.5t23 -169.5l-195 1q0 48 -7.5 92.5t-27 80.5t-54 60.5 t-88.5 33.5v-395q32 -5 63 -8.5t62 -8.5q75 -14 134 -46t100 -80t63 -111t22 -139q0 -85 -28.5 -158t-80.5 -127t-123.5 -84.5t-157.5 -30.5h-53v-192h-194v195q-100 6 -171 35t-116.5 80.5t-67.5 125t-23 169.5zM298 1033q0 -31 8.5 -59.5t25 -52t41 -40.5t56.5 -23 q10 -2 20 -3t20 -3v375q-40 -3 -71.5 -19.5t-53.5 -42t-34 -59.5t-12 -73zM657 211h53q47 0 83.5 20t61.5 52.5t37.5 74t12.5 84.5q0 64 -19 104.5t-52 64.5t-78.5 35.5t-98.5 17.5v-453z" />
<glyph unicode="%" horiz-adv-x="1758" d="M166 1093q0 68 17.5 134t54 118t92.5 83.5t133 31.5t133 -31.5t92 -83.5t53.5 -118t17.5 -134t-17.5 -134t-53.5 -117.5t-92 -83t-133 -31.5t-133 31.5t-92.5 83t-54 117.5t-17.5 134zM267 0l916 1451h226l-915 -1451h-227zM354 1093q0 -24 5 -58.5t18 -66.5t34 -55 t52 -23t51.5 23t33 55.5t17.5 67t5 57.5q0 24 -5 58.5t-17.5 67t-33 55.5t-51.5 23t-52 -23t-34 -55t-18 -67t-5 -59zM933 388q0 69 18 136.5t54.5 120t93.5 85t135 32.5q79 0 136 -32.5t94 -85t54.5 -119.5t17.5 -137q0 -69 -17.5 -136t-54.5 -119.5t-94 -85t-136 -32.5 q-78 0 -135 32.5t-93.5 85t-54.5 119.5t-18 136zM1125 388q0 -24 5 -59t18 -68t34 -56.5t52 -23.5q32 0 53.5 23.5t34 56t17.5 68t5 59.5t-5 59.5t-17.5 68.5t-34 56t-53.5 23q-31 0 -52 -23.5t-34 -56t-18 -68t-5 -59.5z" />
<glyph unicode="&#x26;" horiz-adv-x="1406" d="M83 394q0 77 27 135.5t72 104.5t103 81t120 66q-34 34 -65.5 68t-54.5 71.5t-37 80.5t-14 94q0 81 29 147t80 113.5t119.5 73t147.5 25.5t146.5 -26t117.5 -73.5t78.5 -113.5t28.5 -146q0 -67 -22 -121.5t-59 -98t-86.5 -78.5t-104.5 -63l281 -302q2 7 3 13t1 14 q2 63 -20 115t-55 103h224q23 -49 36 -101.5t13 -106.5q0 -109 -45 -205l246 -264h-255l-108 116q-87 -75 -197 -110t-225 -35q-59 0 -121.5 13t-120.5 37.5t-109.5 61t-90 83.5t-61 104t-22.5 124zM282 395q0 -62 31 -109t79 -79t106.5 -48.5t112.5 -16.5q81 0 158.5 25.5 t135.5 82.5l-371 399q-39 -19 -83.5 -42t-82 -53t-62 -68.5t-24.5 -90.5zM430 1095q0 -35 14.5 -67t37 -60.5t49 -53.5t50.5 -47q36 18 72.5 38.5t65.5 47t47 61.5t18 81q0 39 -12 73.5t-34.5 60t-54.5 40t-73 14.5q-40 0 -73.5 -14.5t-57 -40t-36.5 -60t-13 -73.5z" />
<glyph unicode="'" horiz-adv-x="520" d="M127 1416h240l-37 -466h-164z" />
<glyph unicode="(" horiz-adv-x="873" d="M177 584q0 137 22 268.5t70 251.5t124.5 227t185.5 196l119 -138q-89 -66 -150.5 -160t-100 -202t-55.5 -222t-17 -220q0 -100 14.5 -205t48.5 -203t89.5 -185t137.5 -153l-118 -138q-102 84 -173 184t-114.5 212.5t-63 235t-19.5 251.5z" />
<glyph unicode=")" horiz-adv-x="874" d="M175 1389l118 138q109 -89 185.5 -195.5t124.5 -226.5t70 -251.5t22 -269.5q0 -129 -19.5 -251.5t-63.5 -235t-114 -212.5t-172 -184l-119 138q83 66 138.5 153t90 185t49 203t14.5 205q0 108 -17 221.5t-55.5 220t-100 200t-151.5 162.5z" />
<glyph unicode="*" horiz-adv-x="1126" d="M197 1212l115 159l165 -129l-18 197h221l-15 -189l149 131l119 -156l-215 -143l237 -138l-125 -147l-166 127l16 -196l-213 -2l10 191l-157 -138l-121 150l225 150z" />
<glyph unicode="+" horiz-adv-x="1367" d="M163 505v170h422v415h197v-415h423v-170h-423v-413h-197v413h-422z" />
<glyph unicode="," horiz-adv-x="576" d="M54 -203q25 24 50.5 50t48 54.5t40.5 61.5t27 72q-32 13 -51 41.5t-19 63.5q0 28 10.5 49.5t28.5 36.5t41.5 22.5t49.5 7.5t49.5 -7.5t41.5 -22.5t29 -36.5t11 -49.5q0 -58 -19.5 -105.5t-50.5 -88.5t-70.5 -77t-78.5 -72h-138z" />
<glyph unicode="-" horiz-adv-x="1151" d="M163 508v170h811v-170h-811z" />
<glyph unicode="." horiz-adv-x="526" d="M122 125q0 18 6.5 40t21.5 41t40 32t63 13t64 -13t41.5 -32t22 -41t6.5 -40t-6.5 -40t-22 -41t-41.5 -32t-64 -13t-63 13t-40 32t-21.5 41t-6.5 40z" />
<glyph unicode="/" horiz-adv-x="952" d="M100 0l618 1451h209l-618 -1451h-209z" />
<glyph unicode="0" horiz-adv-x="1243" d="M114 719q0 86 8.5 174t29.5 169.5t57.5 152.5t93 123.5t135 83t184.5 30.5t184.5 -30.5t135 -83t93 -124t57.5 -153t29.5 -169t8.5 -173.5q0 -85 -8.5 -172.5t-30 -169t-58 -152.5t-93 -124t-135 -83.5t-183.5 -30.5t-184 30.5t-135.5 83t-93 123.5t-57.5 152.5 t-29.5 169t-8.5 173.5zM308 719q0 -53 3.5 -116t14.5 -125.5t31.5 -120.5t55.5 -102.5t86 -71.5t123 -27t123 27t85.5 71.5t55.5 103t31.5 121t14 125t3.5 115.5q0 54 -3.5 116.5t-14 125t-31.5 121t-55.5 103t-85.5 71.5t-123 27t-123.5 -27t-86 -71.5t-55.5 -102.5 t-31.5 -120.5t-14 -125.5t-3.5 -117z" />
<glyph unicode="1" horiz-adv-x="831" d="M86 1077v168q81 0 136 17t93.5 44t64 60.5t46.5 66.5l200 1v-1434h-195v1155q-41 -25 -82 -40t-83 -23.5t-87 -11.5t-93 -3z" />
<glyph unicode="2" horiz-adv-x="1186" d="M113 1017q0 105 38.5 188t103 141t150 88.5t178.5 30.5q97 0 184.5 -34t154 -96.5t105.5 -150.5t39 -195q0 -102 -27 -177t-72 -131t-104 -97.5t-123 -76t-128 -66.5t-120 -69.5t-99 -84.5t-64 -112l685 1v-171l-889 -1v60q0 111 32.5 191t85.5 138.5t121 102t139 80.5 t139 74t121 83.5t85.5 108t32.5 147.5q0 67 -23.5 123t-64 96.5t-94.5 63.5t-116 23q-59 0 -111 -19t-90.5 -55t-61 -88t-22.5 -117q0 -28 5 -56t11 -56l-182 -35q-8 36 -13.5 73.5t-5.5 74.5z" />
<glyph unicode="3" horiz-adv-x="1182" d="M119 423l180 -7q-3 -63 11 -111.5t47.5 -81t88.5 -49t136 -17.5q79 -1 135.5 21t92.5 59.5t53 87.5t17 106q0 35 -12 77.5t-39 81.5t-71.5 68.5t-109.5 36.5l-166 1v178h184q51 7 84.5 29t53 49.5t26.5 57t5 52.5q2 112 -62 163.5t-180 51.5q-70 0 -115 -12.5t-70 -37.5 t-33.5 -61.5t-6.5 -84.5l-179 -7q-4 86 18 156.5t71.5 120.5t128 77.5t186.5 27.5q109 0 188.5 -31.5t131 -85t76.5 -124t25 -148.5q5 -72 -26 -148t-100 -133q43 -33 75 -75.5t53.5 -89t32 -95t10.5 -95.5q0 -90 -30 -172.5t-90 -145.5t-149.5 -99.5t-208.5 -35.5 t-207.5 32.5t-146.5 89.5t-85 140t-23 183z" />
<glyph unicode="4" horiz-adv-x="1261" d="M116 234l3 140l698 1059l184 -3v-1026h147v-169h-147v-238h-194v238zM362 403l445 1v669q-50 -74 -107.5 -160t-116 -174.5t-115.5 -174.5t-106 -161z" />
<glyph unicode="5" horiz-adv-x="1211" d="M114 315l180 68q19 -52 45.5 -94t62.5 -72t83 -46.5t106 -16.5q81 0 140 31t97.5 82.5t56.5 118t18 138.5q0 71 -20 133.5t-59 109.5t-97.5 74t-135.5 27q-40 0 -79 -10t-73 -29t-61 -47.5t-43 -66.5l-198 2l55 700h851v-154h-657l-30 -293q54 28 113.5 40t121.5 12 q114 0 207.5 -35.5t160 -101t103.5 -157t37 -204.5q0 -114 -34.5 -212t-99.5 -170t-159.5 -113.5t-214.5 -41.5q-174 0 -294 85t-183 243z" />
<glyph unicode="6" horiz-adv-x="1243" d="M114 498q0 115 1.5 228t1.5 228q0 113 37 205.5t103.5 159.5t159.5 103.5t205 36.5q78 0 150.5 -18.5t134 -54.5t109 -90t76.5 -126l-180 -67q-37 93 -109 140.5t-181 47.5q-78 0 -134 -25t-92.5 -68.5t-56 -102t-25.5 -125.5q-1 -9 -1.5 -24t-1 -31.5t-0.5 -32v-24.5 q24 37 60 62t78 40.5t87 22t86 6.5q111 0 204.5 -34.5t161 -98t105 -154.5t37.5 -204q0 -114 -36.5 -208.5t-103 -162t-160 -104.5t-208.5 -37t-209 37t-160.5 104.5t-102.5 161.5t-36 209zM308 498q0 -74 20 -137t59 -108.5t98 -71.5t137 -26q77 0 135.5 26t98 72t59.5 109 t20 136q0 72 -21 131.5t-61.5 102t-98.5 66t-132 23.5t-132.5 -23t-99 -65.5t-61.5 -102t-21 -132.5z" />
<glyph unicode="7" horiz-adv-x="1138" d="M113 1251v167h883l-8 -168l-447 -1250h-205l442 1251h-665z" />
<glyph unicode="8" horiz-adv-x="1243" d="M114 437q0 123 55.5 222t159.5 158q-68 48 -104 119t-36 157q0 92 36.5 160t97.5 113t139 67.5t160 22.5q83 0 161 -22.5t138.5 -67.5t97.5 -113t37 -160q0 -86 -36.5 -157t-104.5 -119q104 -59 159.5 -158t55.5 -222q0 -109 -41.5 -193.5t-111 -142t-161.5 -87 t-194 -29.5q-103 0 -195.5 29t-162 86t-110 141.5t-40.5 195.5zM308 437q0 -70 24.5 -123.5t66.5 -88.5t99.5 -53t123.5 -18t123 18t99.5 53t66.5 88.5t24 123.5q0 71 -24 124t-66 88t-99.5 53t-123.5 18t-123.5 -17.5t-100 -53t-66.5 -88.5t-24 -124zM384 1093 q0 -52 20 -89t53 -60t76 -33.5t89 -10.5q47 0 90 10.5t76 34t52.5 60t19.5 88.5q0 53 -19.5 89.5t-52.5 60t-76 34t-90 10.5q-46 0 -89 -10.5t-76 -34t-53 -60t-20 -89.5z" />
<glyph unicode="9" horiz-adv-x="1243" d="M113 949q0 114 36.5 208t103.5 161.5t160.5 104.5t207.5 37q116 0 209.5 -36.5t160 -103.5t102.5 -161.5t36 -209.5v-460q0 -115 -36.5 -207.5t-103 -157.5t-160.5 -100.5t-208 -35.5q-88 0 -165 21.5t-140 64t-110 107t-74 150.5l183 61q31 -115 109 -175.5t197 -60.5 q101 0 172 42t113 130q12 26 19 51.5t7 54.5v116q-67 -48 -147.5 -70.5t-163.5 -22.5q-111 0 -204 34.5t-160.5 98.5t-105.5 155t-38 204zM308 949q0 -72 21.5 -131.5t61.5 -102t98.5 -66t131.5 -23.5q75 0 133 22.5t97.5 63.5t61 100t22.5 132v10q0 73 -20.5 135t-60 107 t-98 70.5t-135.5 25.5q-76 0 -134.5 -26.5t-98 -72.5t-60 -109t-20.5 -135z" />
<glyph unicode=":" horiz-adv-x="551" d="M145 147q0 18 6 41t21 43t40 33.5t63 13.5t63 -13.5t40 -33.5t21 -42.5t6 -41.5t-6 -42t-21 -42.5t-40 -33t-63 -13.5t-63 13.5t-40 33.5t-21 43t-6 41zM145 890q0 18 6 41t21 43t40 33.5t63 13.5t63 -13.5t40 -33t21 -42.5t6 -42q0 -18 -6 -41t-21 -43t-40 -33.5 t-63 -13.5t-63 13.5t-40 34t-21 43t-6 40.5z" />
<glyph unicode=";" horiz-adv-x="631" d="M95 -194q25 24 50 49.5t47.5 54t40.5 61t27 71.5q-32 13 -50.5 41.5t-18.5 63.5q0 27 10.5 48.5t28.5 36t41.5 22t48.5 7.5q26 0 49.5 -7.5t41.5 -22t29 -35.5t11 -49q0 -57 -19.5 -104.5t-50.5 -88t-70 -77t-78 -71.5h-138zM199 890q0 18 6 41t21 42.5t40 33t62 13.5 q38 0 63 -13.5t40 -33t21 -42t6 -41.5q0 -18 -6 -41t-21 -43.5t-40 -34t-63 -13.5t-63 14t-39.5 34t-20.5 43t-6 41z" />
<glyph unicode="&#x3c;" horiz-adv-x="1239" d="M212 588v166l823 451v-202l-603 -333l603 -331v-201z" />
<glyph unicode="=" horiz-adv-x="1346" d="M190 327v171h945v-171h-945zM190 664v170h945v-170h-945z" />
<glyph unicode="&#x3e;" horiz-adv-x="1239" d="M204 138v201l603 333l-603 331v202l823 -451v-166z" />
<glyph unicode="?" horiz-adv-x="1176" d="M164 1036q0 91 34.5 163.5t93.5 123.5t136.5 78t164.5 27q90 0 169.5 -30.5t139.5 -85.5t95 -132t35 -169q0 -73 -19 -124t-50.5 -87.5t-70.5 -63.5t-79.5 -52t-78.5 -52t-66 -64t-42 -88t-8 -125l-194 -9q-2 14 -2 28.5v28.5q0 79 18 137t47 101.5t66.5 75.5t77 58 t77 49.5t66.5 50t47 59t18 77.5q0 52 -18.5 97.5t-51.5 79t-78 52.5t-98 19q-51 0 -94 -15.5t-74.5 -45t-49 -71t-17.5 -93.5q0 -24 4.5 -48.5t9.5 -48.5l-192 -35q-7 34 -11.5 67t-4.5 67zM386 140q0 32 12 56.5t32 41.5t46.5 26t56.5 9t56.5 -9t46.5 -26t32 -41.5 t12 -56.5q0 -31 -12 -56t-32 -41.5t-46.5 -25.5t-56.5 -9t-56.5 9t-46.5 25.5t-32 41.5t-12 56z" />
<glyph unicode="@" horiz-adv-x="1746" d="M113 654q0 176 56.5 319.5t159.5 245.5t247.5 157.5t319.5 55.5q161 0 298 -49t236.5 -140.5t156 -223t56.5 -297.5q0 -62 -7.5 -134t-28.5 -140.5t-57.5 -127t-94.5 -93.5q-32 -18 -66.5 -29.5t-71.5 -11.5q-48 0 -93 18t-75 58q-59 -48 -131 -70t-147 -22 q-101 0 -183.5 33t-141 92.5t-90.5 143t-32 184.5q0 100 32 183t90.5 143t141 93t183.5 33q34 0 68 -7.5t65.5 -22.5t58 -37t45.5 -51v67l158 -44v-155.5t0.5 -148t0.5 -148v-155.5q0 -4 7 -8.5t16 -8.5t18 -6.5t13 -4.5q8 1 17 4t15 10q39 40 62 82t35 86.5t15.5 93 t3.5 101.5q0 129 -42.5 230t-119 170t-181.5 105t-230 36q-138 0 -247 -44.5t-184.5 -125t-116 -192.5t-40.5 -247t40.5 -247t116 -193t184.5 -125.5t247 -44.5q67 0 135 10t130 35h299q-23 -17 -45.5 -34.5t-45.5 -34.5q-105 -76 -224.5 -110t-248.5 -34 q-175 0 -319.5 55.5t-247.5 157.5t-159.5 245.5t-56.5 319.5zM620 623q0 -59 15.5 -111t46.5 -90.5t78 -61t111 -22.5q42 0 82 14t73 39.5t55.5 60.5t28.5 77q2 9 2 18v19q1 34 0 66.5t-1 65.5q0 46 -21.5 84.5t-56 66t-77 42.5t-85.5 15q-62 0 -109 -22.5t-78.5 -61 t-47.5 -90t-16 -109.5z" />
<glyph unicode="A" horiz-adv-x="1278" d="M12 -1l560 1452h136l558 -1452h-206l-125 327h-591l-125 -327h-207zM409 494h460l-229 599z" />
<glyph unicode="B" horiz-adv-x="1296" d="M121 -1v1453h63h281.5t281.5 -1q75 0 142 -23.5t117 -67.5t79 -107t29 -141t-32.5 -148t-95.5 -118q93 -66 141 -165t48 -212q0 -106 -40.5 -193t-109.5 -148.5t-161 -95t-194 -33.5h-549zM316 168h354q66 0 123 21t99 59.5t66 93.5t24 123q0 98 -48.5 172t-138.5 112 q-19 8 -39 14.5t-40 6.5h-400v-602zM316 943q108 -2 215 -3.5t215 -1.5q38 0 70 13t55 36t36 55t13 70t-13 69t-36 53.5t-54.5 35t-69.5 12.5h-215.5t-215.5 1v-340z" />
<glyph unicode="C" horiz-adv-x="1517" d="M122 719q0 155 45 289t131.5 232.5t212.5 155t288 56.5q204 0 355.5 -91.5t236.5 -258.5l-174 -83q-29 61 -69 110t-92 83t-116 52.5t-141 18.5q-123 0 -214 -46t-150.5 -123.5t-89 -179.5t-29.5 -215q0 -112 29.5 -214t89 -179.5t150.5 -123.5t214 -46q150 0 251 66 t161 183l168 -90q-88 -158 -235 -243t-345 -85q-161 0 -287 56.5t-212.5 155.5t-132 232.5t-45.5 287.5z" />
<glyph unicode="D" horiz-adv-x="1422" d="M121 0v1460q34 -1 72 -1q19 1 39 1h124t129 -1t126 -4q51 -3 96.5 -8.5t83.5 -14.5q128 -28 223.5 -95t159.5 -161.5t95.5 -211.5t31.5 -245q0 -155 -45.5 -287t-132.5 -228t-213 -150t-287 -54h-502zM316 168l307 1q123 0 213.5 43.5t150.5 118t89.5 174.5t29.5 214 q0 97 -21 187t-66 163.5t-116 126t-171 74.5q-20 5 -40.5 8t-42.5 5q-73 6 -148 6h-22q-87 -1 -163 -1v-1120z" />
<glyph unicode="E" horiz-adv-x="1164" d="M121 -1v1453l947 -1v-169l-752 1v-448h662v-168h-662v-499h752v-169h-947z" />
<glyph unicode="F" horiz-adv-x="1140" d="M121 0v1452l889 -1v-169l-694 1v-448h638v-168h-638v-667h-195z" />
<glyph unicode="G" horiz-adv-x="1569" d="M122 719q0 155 45 289t131.5 232.5t212.5 155t288 56.5q115 0 217 -32t185 -92t144 -147.5t94 -198.5l-189 -42q-24 80 -66 143.5t-100 107.5t-129.5 68t-155.5 24q-123 0 -214 -46t-151 -123.5t-89 -179.5t-29 -215t29.5 -215t90 -179.5t152 -123t215.5 -45.5 q91 0 169.5 27t137.5 76.5t94.5 120t40.5 157.5h-533v168h728v-136q0 -56 -11 -111t-31 -107q-36 -93 -95.5 -161.5t-136.5 -113.5t-169.5 -67t-193.5 -22q-163 0 -289.5 56t-213.5 154t-132.5 232t-45.5 290z" />
<glyph unicode="H" horiz-adv-x="1301" d="M121 0v1451h195v-616h670v616h194v-1451h-194v667h-670v-667h-195z" />
<glyph unicode="I" horiz-adv-x="436" d="M121 0v1451h195v-1451h-195z" />
<glyph unicode="J" horiz-adv-x="1175" d="M123 440l193 8q0 -60 19 -113t54.5 -92.5t86 -62.5t113.5 -23t113 23t85 62t53.5 92t18.5 113v1005h196v-1005q0 -101 -35.5 -185.5t-98 -145t-147.5 -94.5t-185 -34q-104 0 -188 33.5t-144.5 93.5t-95 143t-38.5 182z" />
<glyph unicode="K" horiz-adv-x="1250" d="M121 1451h195l1 -702l575 702h240l-506 -617l581 -834h-229l-471 677l-190 -221l2 -456h-195z" />
<glyph unicode="L" horiz-adv-x="1118" d="M121 -1v1452h195v-1283h749v-169h-944z" />
<glyph unicode="M" horiz-adv-x="1681" d="M121 0v1451h180l538 -1113l533 1113h187v-1451h-195v984l-474 -979h-101l-473 979v-984h-195z" />
<glyph unicode="N" horiz-adv-x="1426" d="M121 0v1451h175l813 -1109v1109h196v-1451h-165l-824 1107v-1107h-195z" />
<glyph unicode="O" horiz-adv-x="1593" d="M117 721q0 156 45 290.5t132 233.5t213.5 155.5t289.5 56.5q162 0 288.5 -57t213.5 -156t132.5 -233.5t45.5 -289.5t-45.5 -289.5t-132.5 -234t-213.5 -156.5t-288.5 -57t-288.5 57t-213.5 156.5t-132.5 234t-45.5 289.5zM311 721q0 -114 29.5 -216.5t89.5 -180.5 t151.5 -124t215.5 -46q123 0 214 46.5t151.5 124.5t90 180.5t29.5 215.5t-29.5 215.5t-89.5 180.5t-151.5 124t-214.5 46q-124 0 -215.5 -46t-151.5 -124t-89.5 -180.5t-29.5 -215.5z" />
<glyph unicode="P" horiz-adv-x="1268" d="M132 0v1460q18 0 48 -0.5t65.5 -0.5h74h74h65.5h48q75 0 151.5 -5.5t147.5 -22t133 -46.5t108.5 -78.5t73 -118t26.5 -165.5q0 -99 -36.5 -178t-99.5 -134.5t-147 -85.5t-179 -30h-86t-92.5 -0.5t-92.5 -0.5h-86v-594h-196zM328 1290l1 -528q89 1 177.5 0.5t178.5 -0.5 q58 0 106.5 19t84 53t55.5 82t20 106q0 92 -35.5 145t-92 80.5t-128 35t-143.5 7.5h-224z" />
<glyph unicode="Q" horiz-adv-x="1683" d="M122 719q0 155 45 289t131.5 232.5t212.5 155t288 56.5t287.5 -56.5t212 -155.5t131.5 -232.5t45 -288.5q0 -88 -16.5 -176.5t-51 -169.5t-89 -150.5t-129.5 -121.5l242 -226h-294l-142 136q-96 -24 -196 -24q-161 0 -287 56.5t-212.5 155.5t-132 232.5t-45.5 287.5z M316 719q0 -112 29.5 -214.5t89 -179.5t150.5 -123t214 -46q20 0 41 1.5t42 5.5l-183 174h244l113 -108q60 40 103 95.5t70 120t39.5 135t12.5 139.5q0 113 -29.5 215t-89 179.5t-150 123.5t-213.5 46t-214 -46t-151 -123.5t-89 -179.5t-29 -215z" />
<glyph unicode="R" horiz-adv-x="1318" d="M122 0v1460q127 -4 252.5 -4h252.5q27 0 55 -0.5t55 -1.5q96 -5 179.5 -35t145.5 -84t98 -132t36 -180q0 -104 -45 -195t-132 -150q85 -59 131 -149t46 -193v-336h-194v329q0 59 -20 108t-55.5 84t-84.5 54.5t-108 19.5q-105 0 -208.5 -0.5t-208.5 -0.5v-594h-195z M317 762q105 1 209 0.5t209 -0.5q57 0 106 19t85 53t56 82t20 106q0 63 -20 110t-55.5 79.5t-85 51t-108.5 23.5q-36 3 -71 3q-6 -1 -12 -1h-82q-63 0 -125.5 0.5t-125.5 0.5v-527z" />
<glyph unicode="S" horiz-adv-x="1336" d="M122 446l195 3q0 -73 9.5 -128t37 -92t77 -56t129.5 -19q57 0 113.5 -0.5t113.5 -0.5q54 0 96 23.5t70.5 61.5t43 86t14.5 97q0 77 -25 125t-67 76t-96 40.5t-113 19t-118 11t-110 15.5q-70 16 -128 46t-100 75t-65.5 104.5t-23.5 134.5q0 87 30 156.5t83 119.5t125 79.5 t155 36.5q23 2 44.5 2h44.5q227 0 342 -110t129 -326h-192q0 67 -15.5 117.5t-49 84t-86.5 50.5t-128 17q-56 0 -108 -10.5t-92 -36t-64 -69t-24 -108.5q0 -64 25.5 -105t67.5 -64.5t96 -34.5t110 -16.5t110 -9t96 -12.5q80 -18 143.5 -52.5t107.5 -86t67.5 -119.5 t23.5 -151q0 -92 -30.5 -171.5t-85.5 -138.5t-132.5 -92.5t-170.5 -33.5q-57 0 -113.5 0.5t-113.5 0.5q-118 0 -203 28.5t-139.5 86t-80 144t-25.5 202.5z" />
<glyph unicode="T" horiz-adv-x="1298" d="M50 1283v169h1196v-169h-503v-1283h-195v1283h-498z" />
<glyph unicode="U" horiz-adv-x="1325" d="M121 519v932h195v-932q0 -77 24.5 -144t70 -116.5t109.5 -78t143 -28.5t143 28.5t109 78t69.5 116.5t24.5 144v932h195v-932q0 -119 -40.5 -217.5t-112.5 -169.5t-171 -110t-217 -39t-217.5 39t-171.5 110t-112.5 169.5t-40.5 217.5z" />
<glyph unicode="V" horiz-adv-x="1387" d="M82 1451h205l406 -1088l407 1088h206l-542 -1450h-141z" />
<glyph unicode="W" horiz-adv-x="2020" d="M78 1451h201l322 -1057l318 1058l180 -5l321 -1053l320 1057h202l-438 -1448h-168l-327 1074l-324 -1074h-168z" />
<glyph unicode="X" horiz-adv-x="1518" d="M122 1l526 736l-502 714h230l388 -553l395 553h230l-511 -714l520 -737h-230l-405 577l-411 -576h-230z" />
<glyph unicode="Y" horiz-adv-x="1418" d="M77 1451h219l412 -708l412 708h220l-537 -922l3 -529h-196v536z" />
<glyph unicode="Z" horiz-adv-x="1443" d="M122 -1v169l941 1115h-941v169h1199v-169l-943 -1115h943v-169h-1199z" />
<glyph unicode="[" horiz-adv-x="560" d="M100 -250v1764l393 -2v-169l-197 1v-1425h197v-169h-393z" />
<glyph unicode="\" horiz-adv-x="952" d="M24 1451h209l619 -1451h-209z" />
<glyph unicode="]" horiz-adv-x="560" d="M67 -81h198v1440l-198 -1v169l393 2v-1779h-393v169z" />
<glyph unicode="^" horiz-adv-x="1347" d="M108 710l472 787h197l472 -787h-223l-349 576l-346 -576h-223z" />
<glyph unicode="_" horiz-adv-x="1036" d="M42 -96h968v-170h-968v170z" />
<glyph unicode="`" horiz-adv-x="595" d="M-5 1599l287 2l209 -369h-181z" />
<glyph unicode="a" horiz-adv-x="1119" d="M120 326q0 79 28.5 135t76.5 93.5t110.5 59t130.5 32.5t138 14q52 2 100 2h31q17 0 34.5 -0.5t34.5 -0.5v5q0 62 -17 105t-48.5 69.5t-77.5 38.5t-104 12q-47 0 -86.5 -8.5t-68.5 -29.5t-45 -56t-17 -87l-196 15q6 89 41 152.5t90.5 104t129 59t155.5 18.5 q104 0 185.5 -25.5t138 -77.5t86 -130.5t29.5 -185.5q0 -161 -0.5 -320t-0.5 -320h-167l-27 103q-28 -29 -64.5 -51t-77 -36.5t-83 -21.5t-82.5 -7q-80 0 -149 21t-119.5 63.5t-79.5 106t-29 148.5zM314 326q0 -91 48 -130.5t135 -39.5q63 0 118 12t96.5 40.5t66 76 t26.5 117.5l1 89q-28 1 -55.5 1.5t-55.5 0.5q-24 0 -62 -1t-80 -5.5t-84.5 -14.5t-76.5 -28.5t-55.5 -47.5t-21.5 -70z" />
<glyph unicode="b" horiz-adv-x="1254" d="M119 1454h195l1 -537q21 39 56.5 69t78 50.5t89 31t88.5 10.5q120 0 214.5 -42t160 -115t99.5 -172.5t34 -215.5q0 -115 -34 -215t-99.5 -173.5t-160 -115.5t-214.5 -42q-44 0 -89.5 8.5t-87 26.5t-76.5 46.5t-58 68.5l1 -121h-196zM315 537q1 -72 19.5 -141t56 -122 t96 -85.5t140.5 -32.5t141 31.5t97.5 83.5t57 120.5t18.5 141.5q0 74 -18.5 141.5t-57 120t-97.5 83.5t-141 31q-78 0 -136.5 -31.5t-97.5 -84t-58.5 -119t-19.5 -137.5z" />
<glyph unicode="c" horiz-adv-x="1202" d="M110 533q0 116 34 215.5t99 173t159.5 115t215.5 41.5q172 0 294 -86.5t180 -248.5l-185 -53q-35 102 -106.5 160.5t-182.5 58.5q-82 0 -141 -31t-97.5 -83t-57 -120t-18.5 -142q0 -73 18.5 -141.5t57 -120.5t97.5 -83.5t141 -31.5q108 0 179 55.5t106 155.5l181 -68 q-61 -152 -181.5 -232t-284.5 -80q-121 0 -215.5 41.5t-159.5 115t-99 173.5t-34 216z" />
<glyph unicode="d" horiz-adv-x="1254" d="M120 533q0 116 34 215.5t99 173t159.5 115t215.5 41.5q43 0 89 -11t88.5 -31.5t77.5 -49t56 -64.5q0 136 0.5 268.5t0.5 263.5h196l-2 -1438h-196l1 117q-26 -34 -61 -61t-75.5 -46t-85 -29t-89.5 -10q-121 0 -215.5 41.5t-159.5 115t-99 173.5t-34 216zM314 533 q0 -73 18.5 -141.5t57 -120.5t98 -83.5t140.5 -31.5q87 0 146.5 35t96 91.5t52.5 128.5t16 146v4q-1 66 -23 128.5t-62 111.5t-97.5 78.5t-128.5 29.5q-82 0 -141 -31t-97.5 -83t-57 -120t-18.5 -142z" />
<glyph unicode="e" horiz-adv-x="1254" d="M120 533q0 116 34 215.5t99.5 173t160 115t214.5 41.5q135 0 231 -47t157.5 -127t90.5 -186t29 -225l-821 3q5 -69 26 -131t59.5 -108.5t95.5 -73.5t132 -27q102 0 175.5 53t108.5 148l186 -52q-28 -76 -75 -135.5t-108 -100t-134 -61.5t-153 -21q-120 0 -214.5 42 t-160 115.5t-99.5 173t-34 215.5zM331 666l594 -2q-13 54 -39.5 99.5t-64.5 77.5t-86.5 50t-106.5 18q-59 0 -107.5 -17.5t-86 -50t-63.5 -77t-40 -98.5z" />
<glyph unicode="f" horiz-adv-x="638" d="M84 890v168h97v122q0 138 71.5 205t207.5 67h153v-169h-103h-28.5t-27.5 -1q-27 -1 -43 -12.5t-24 -30.5t-10.5 -43.5t-2.5 -51.5q1 -22 2 -43.5t1 -42.5h235v-168h-235l-3 -874h-196l3 874h-97z" />
<glyph unicode="g" horiz-adv-x="1254" d="M120 539q0 116 34 216t99 173t159.5 114.5t215.5 41.5q46 0 92 -11.5t87.5 -33t75 -52.5t55.5 -70l-1 138h197l2 -1060q0 -106 -37 -193t-102 -149.5t-154 -96.5t-194 -34q-93 0 -171.5 25.5t-139.5 74t-103.5 119t-62.5 161.5h199q14 -50 41 -89t64 -66t82.5 -41.5 t96.5 -14.5q67 0 120 23t89.5 64t56 96.5t19.5 120.5v175q-23 -37 -57 -69.5t-75 -56t-87 -37t-93 -13.5q-121 0 -215.5 41.5t-159.5 114.5t-99 172.5t-34 216.5zM314 539q0 -73 18.5 -141.5t57 -120.5t98 -83.5t140.5 -31.5q74 0 131.5 30.5t97.5 81t61.5 115t21.5 132.5 q0 74 -17 144.5t-54.5 126.5t-96.5 90t-144 34q-81 0 -140.5 -31.5t-98 -83.5t-57 -120t-18.5 -142z" />
<glyph unicode="h" horiz-adv-x="1121" d="M120 1451h194l1 -504q23 30 58.5 55t76.5 43t85.5 28t86.5 10h12q82 -3 149 -28.5t114.5 -72t73.5 -113t26 -152.5q0 -180 -1 -358.5t-1 -358.5h-195l3 717q0 48 -15 85t-43 62t-66 38t-85 13q-37 0 -75 -9t-72 -26t-63 -41.5t-50 -55.5q-3 -5 -11 -18t-8 -17l2 -748 h-195z" />
<glyph unicode="i" horiz-adv-x="489" d="M119 1286q0 15 6.5 34.5t21 37t38.5 29.5t59 12q37 0 61.5 -12t39 -29.5t20.5 -37t6 -34.5t-6.5 -34.5t-21 -36.5t-39 -29t-60.5 -12q-35 0 -59 12t-38.5 29t-21 36.5t-6.5 34.5zM148 1058h195l3 -1058h-195z" />
<glyph unicode="j" horiz-adv-x="480" d="M-101 -202q49 0 93 -1h7q39 0 69 10q33 11 52.5 41.5t21.5 92.5q3 7 3 19l-3 1098h195l2 -1098q0 -76 -16 -129.5t-45 -90.5t-69 -59t-89 -33.5t-105 -15t-116 -3.5v169zM112 1301q0 27 10.5 49.5t27.5 38t39.5 24t46.5 8.5q25 0 47.5 -8t40 -23.5t28 -38t10.5 -50.5 q0 -27 -10.5 -49t-28 -37.5t-40.5 -24t-47 -8.5t-46.5 8.5t-39.5 24t-27.5 37.5t-10.5 49z" />
<glyph unicode="k" horiz-adv-x="1103" d="M120 1451h194l1 -864l439 470h251l-437 -468l466 -589h-237l-354 445l-127 -127v-318h-194z" />
<glyph unicode="l" horiz-adv-x="437" d="M120 1451h194l3 -1451h-195z" />
<glyph unicode="m" horiz-adv-x="1711" d="M125 1057h194v-110q22 35 52.5 60.5t66.5 41.5t75.5 23.5t79.5 7.5q177 0 285 -138q59 70 143 104t175 34q75 0 145 -28t123.5 -76.5t85.5 -115t32 -144.5q0 -180 -1 -358t-1 -358h-195l2 716q0 38 -16 73.5t-42.5 62.5t-61.5 43t-73 16q-40 0 -82.5 -16t-77 -43.5 t-57 -65t-22.5 -81.5l-2 -705h-199l2 716q0 41 -12 76t-35 61t-55 42t-73 17q-3 1 -11 1q-37 0 -75 -11t-71.5 -31t-60.5 -49t-42 -64v-758h-194z" />
<glyph unicode="n" horiz-adv-x="1117" d="M120 1057h194v-114q27 33 64.5 58.5t80.5 43t89 27t88 9.5q83 0 149.5 -27t113.5 -76t72.5 -115.5t25.5 -146.5l-2 -716h-195l3 716q0 91 -53 144t-156 53q-36 0 -80.5 -12t-85 -33.5t-71.5 -52t-41 -66.5l1 -749h-195z" />
<glyph unicode="o" horiz-adv-x="1254" d="M120 533q0 117 35 217t100.5 173t160 114t212.5 41t212 -41.5t160 -114t101 -172.5t35 -217t-35 -217t-100.5 -173t-159.5 -114.5t-213 -41.5t-213.5 41t-160 114t-100 173t-34.5 218zM314 533q0 -76 19 -144t58 -120t98 -82.5t139 -30.5t138.5 30.5t97 82.5t57.5 120 t19 144q0 75 -19 143t-57.5 120t-97 82.5t-138.5 30.5t-139 -30.5t-98 -82t-58 -120t-19 -143.5z" />
<glyph unicode="p" horiz-adv-x="1255" d="M119 -392l3 1437h196q-1 -27 -1.5 -55t-0.5 -55q30 38 69.5 65t83 43.5t89.5 24t90 7.5q121 0 212 -42t152.5 -115.5t92.5 -173t31 -215.5t-34 -215.5t-99.5 -173t-160 -115t-214.5 -41.5q-44 0 -91.5 11.5t-90.5 31.5t-77.5 48t-52.5 62l-1 -529h-196zM316 547 q0 -73 17.5 -144t55 -126.5t96.5 -89.5t143 -34q82 0 141 31t97.5 83.5t57 120.5t18.5 141q0 74 -18.5 142t-57 120t-97.5 83.5t-141 31.5q-74 0 -132 -30.5t-98 -80.5t-61 -115t-21 -133z" />
<glyph unicode="q" horiz-adv-x="1255" d="M120 529q0 116 34 215.5t99 173t159.5 115.5t215.5 42q42 0 85.5 -8.5t85 -25t77.5 -42t63 -58.5l-1 104h196l3 -1437h-196l-1 532q-26 -38 -61 -67t-76 -49t-85.5 -30t-89.5 -10q-121 0 -215.5 41.5t-159.5 114.5t-99 173t-34 216zM314 529q0 -74 18.5 -142t57 -120 t97.5 -83t141 -31q84 0 143.5 34t97 89.5t54.5 126t17 144.5q0 69 -21 133.5t-60.5 115t-97.5 80.5t-133 30q-81 0 -140.5 -31.5t-98 -83.5t-57 -120t-18.5 -142z" />
<glyph unicode="r" horiz-adv-x="692" d="M120 1058h194v-124q28 43 64.5 68t78.5 37.5t87.5 15.5t91.5 3v-178q-16 2 -32.5 3.5t-34.5 1.5q-43 0 -87.5 -8.5t-81 -28.5t-60 -53t-25.5 -81l2 -714h-195z" />
<glyph unicode="s" horiz-adv-x="1111" d="M117.5 314q0.5 9 0.5 17l194 -4q0 -49 7 -82t25.5 -53t50.5 -28t81 -8q45 0 88.5 -0.5t88.5 -0.5q32 0 58 12t45 32.5t29 48.5t10 59q0 46 -20 74t-52.5 44.5t-73.5 23.5t-83.5 10.5t-82 5t-68.5 7.5q-58 11 -109 35t-88.5 61t-59.5 87.5t-22 114.5q0 87 35 147.5 t91.5 98.5t128.5 55.5t146 17.5q89 0 160.5 -20.5t124 -64t83.5 -111t37 -160.5l-195 -1q0 54 -14.5 90t-41.5 57t-65.5 30t-88.5 9q-37 0 -73.5 -6t-66 -22t-47.5 -45t-18 -75q0 -43 20.5 -70.5t53.5 -43t74.5 -23t84 -11t81 -5t66.5 -7.5q59 -12 110 -36.5t88 -62 t58 -88.5t21 -116q0 -73 -26.5 -133t-72 -102t-107 -65t-131.5 -23q-26 0 -51.5 -0.5t-51.5 -0.5q-88 0 -166 9.5t-136.5 42t-93 94.5t-35.5 168q-1 8 -0.5 17z" />
<glyph unicode="t" horiz-adv-x="661" d="M81 891v168h78l1 270h195l-1 -270h218v-168h-219l-1 -593q0 -45 9.5 -71.5t28.5 -40t47.5 -17.5t67.5 -4q23 1 46 1.5t47 1.5v-169h-125q-158 0 -236.5 78t-78.5 231v583h-77z" />
<glyph unicode="u" horiz-adv-x="1117" d="M119 347q0 181 0.5 357.5t0.5 357.5h197l-3 -715q0 -49 14.5 -85.5t42 -61.5t66.5 -37.5t86 -12.5q39 0 82 11.5t81 33t68.5 52t45.5 69.5l1 1l-2 745h195l2 -1056h-194v106q-54 -63 -130.5 -96.5t-158.5 -33.5q-83 0 -155 24.5t-125 71.5t-83.5 115t-30.5 154z" />
<glyph unicode="v" horiz-adv-x="1100" d="M18 1057h211l320 -716l322 716h210l-475 -1057h-113z" />
<glyph unicode="w" horiz-adv-x="1569" d="M31 1057h204l234 -683l231 680h179l234 -680l233 683h203l-359 -1055l-152 1l-248 720l-247 -720l-150 -1z" />
<glyph unicode="x" horiz-adv-x="1136" d="M34 1056h235l301 -386l306 386h237l-425 -536l404 -520h-237l-286 369l-290 -368h-236l409 519z" />
<glyph unicode="y" horiz-adv-x="1119" d="M15 1057h207l310 -775l355 775h211l-607 -1323q-29 -64 -86.5 -100.5t-127.5 -36.5q-48 0 -93 14t-90 27v178q14 -5 34.5 -14.5t43 -18.5t45 -16t40.5 -7q6 0 10.5 1t9.5 3q9 2 21.5 18.5t24.5 43.5q14 28 28.5 60.5t28 63t24.5 55.5t17 38z" />
<glyph unicode="z" horiz-adv-x="1217" d="M133 170l697 718h-661v169h930v-131l-742 -758h742v-169h-965z" />
<glyph unicode="{" horiz-adv-x="862" d="M104 521v150q26 6 59 13t62.5 20t49.5 34t20 56v390q0 12 0.5 23.5t1.5 22.5q7 55 31.5 95t62 67t86 40t103.5 14q11 1 21 1h20h118v-172q-36 1 -72 1.5t-72 0.5q-25 0 -44.5 -3.5t-32.5 -12.5t-19.5 -25.5t-6.5 -44.5v-397q0 -61 -27.5 -111.5t-76.5 -85.5 q48 -35 76 -87t28 -112v-397q0 -28 7 -44.5t19.5 -25.5t31 -12t41.5 -4q37 -1 74 0l74 2v-171h-118h-41q-134 2 -209.5 68.5t-75.5 199.5v384q0 35 -20 56.5t-49.5 34t-62.5 19.5t-59 13z" />
<glyph unicode="|" horiz-adv-x="519" d="M157 1451h197l4 -1630h-197z" />
<glyph unicode="}" horiz-adv-x="862" d="M124 -78q37 -1 73 -1.5t73 -0.5q23 0 41 2.5t30.5 10.5t19.5 23t8 41q1 3 1 8v397q0 61 28 111t76 86q-48 35 -76 86t-28 111v395q0 29 -6.5 45.5t-19.5 25.5t-31 12t-42 3q-36 1 -73 0.5t-74 -1.5v171h118h21t20 -1q63 -1 115.5 -17.5t90 -48.5t58.5 -81t21 -114v-389 q0 -34 20 -55t49 -32.5t62 -15.5t58 -4v-180q-25 -1 -57 -4.5t-60.5 -14t-48.5 -30t-22 -52.5q-1 -10 -1 -19.5v-19.5v-351q0 -131 -76.5 -198t-208.5 -69h-41h-118v171z" />
<glyph unicode="~" horiz-adv-x="1250" d="M72 656q33 47 68.5 87t77.5 68.5t91.5 44.5t110.5 16q43 0 81 -10.5t72 -26.5t65.5 -34.5t62 -34.5t61 -26.5t62.5 -10.5q30 0 55 12t45 31.5t36 43.5t29 48l144 -82q-27 -47 -59.5 -87.5t-72 -70t-87.5 -46t-106 -16.5q-65 0 -120 22t-103 49t-92 49t-86 22 q-34 0 -62.5 -11t-52 -29.5t-43 -43t-35.5 -52.5z" />
<glyph unicode="&#xa1;" horiz-adv-x="715" d="M207 1304q0 24 8 49.5t26 46.5t46.5 34.5t68.5 13.5q41 0 69 -14t45.5 -35t25.5 -46.5t8 -48.5q0 -24 -8 -49.5t-26 -46.5t-46 -34.5t-68 -13.5t-68.5 13.5t-46.5 34.5t-26 46.5t-8 49.5zM217.5 -155.5q0.5 10.5 0.5 19.5l50 1130h162l37 -1139q1 -3 0.5 -6t-0.5 -6 v-14.5t-2 -16.5q-4 -51 -38 -81t-85 -30q-27 0 -47 7.5t-33.5 19.5t-21.5 26t-12 28q-7 19 -9 41q-2 11 -1.5 21.5z" />
<glyph unicode="&#xa2;" horiz-adv-x="1398" d="M175 724q0 110 32 204.5t92.5 168t147 122t195.5 66.5v159h194v-152q119 -11 218.5 -59t179.5 -139l-137 -123q-36 41 -71.5 70.5t-75.5 49t-85 28.5t-100 9q-92 0 -165 -29t-124 -81.5t-78 -127t-27 -166.5q0 -91 27 -165.5t78 -127t124 -81.5t165 -29q56 0 101 9.5 t84 29t75 48.5t72 69l137 -124q-80 -90 -179.5 -138t-218.5 -59v-156h-194v163q-109 18 -196 67t-147 122t-92 168t-32 204z" />
<glyph unicode="&#xa3;" horiz-adv-x="1230" d="M102 3v161q68 0 119.5 22.5t87 63t53.5 98t18 127.5q0 63 -12 124h-266v170h229q-14 63 -25 126t-11 127q0 98 32 177t89.5 134.5t138 85.5t177.5 30q108 0 202.5 -39t168.5 -118l-140 -126q-47 56 -99 84t-126 28q-60 0 -106 -18.5t-77 -52t-47 -81t-16 -106.5 q0 -64 12 -126.5t26 -124.5h368v-170h-331q11 -64 11 -125q0 -40 -5.5 -81.5t-18.5 -80.5t-33.5 -74t-50.5 -64h639v-171h-1007z" />
<glyph unicode="&#xa4;" horiz-adv-x="1216" d="M123 328l138 135q-28 46 -43.5 97.5t-15.5 105.5t15 106t44 97l-138 136l154 152l143 -141q48 24 99 38t105 14q53 0 104 -13t97 -38l144 140l153 -152l-137 -135q29 -46 44 -98t15 -106t-15 -106t-44 -98l137 -134l-153 -151l-144 140q-46 -25 -97.5 -38.5t-104.5 -13.5 q-54 0 -105.5 12.5t-98.5 38.5l-142 -139zM399 665q0 -45 18 -86t49 -72.5t71.5 -50.5t85.5 -19t85.5 19t71 51t48.5 73t18 86t-18 87t-48.5 73.5t-71.5 50.5t-87 19q-45 0 -85.5 -19.5t-70.5 -51.5t-48 -74t-18 -86z" />
<glyph unicode="&#xa5;" horiz-adv-x="1305" d="M18 1451h219l412 -708l412 708h220l-483 -829h246v-148h-300v-98h300v-135h-299v-241h-195v241h-315v135h315v98h-315v148h265z" />
<glyph unicode="&#xa6;" horiz-adv-x="647" d="M220 -489l13 829l197 -4l-12 -830zM220 689l13 829l197 -4l-12 -829z" />
<glyph unicode="&#xa7;" horiz-adv-x="1075" d="M115 757q0 36 11 69t31.5 60t49 46.5t63.5 28.5q-69 38 -112 96.5t-43 139.5q0 84 34.5 143.5t90.5 97t127.5 55t144.5 17.5q60 0 114.5 -9t102 -31t88 -57.5t72.5 -89.5l-164 -95q-15 36 -36.5 58t-48 34t-58.5 16t-68 4t-73 -5.5t-66.5 -20.5t-48 -43t-18.5 -73 q0 -41 20.5 -67.5t54 -42t75.5 -23t84.5 -11t81 -5.5t65.5 -7q60 -11 111 -34.5t88.5 -60t58.5 -86.5t21 -115q0 -69 -41 -117.5t-101 -74.5q39 -16 66 -41.5t43.5 -57.5t24 -69.5t8.5 -76.5q0 -73 -26 -132t-71.5 -100.5t-107 -64t-132.5 -22.5q-31 0 -61 -0.5t-61 -0.5 q-54 0 -107.5 3.5t-103 18t-92 43.5t-73.5 80q-5 8 -8.5 17t-8.5 17l170 84q8 -24 23 -40.5t34.5 -27t42 -16.5t45.5 -9q26 -3 52.5 -3.5t50.5 -0.5q41 0 83.5 3t77 17t57 44t22.5 85q0 30 -8.5 51t-23.5 36t-36.5 25t-47.5 17q-8 2 -16 3.5t-16 3.5q-57 10 -114.5 12 t-114.5 12q-58 11 -109.5 33.5t-89.5 58.5t-60.5 86t-22.5 115zM308 757q0 -37 16 -63.5t43 -44.5t61.5 -28.5t70.5 -16t72 -7t65 -1.5q7 0 19 4t17 4q48 18 75 54.5t27 87.5q0 29 -8 50t-22 36t-34.5 25t-45.5 17q-48 15 -99.5 19t-100.5 6q-30 0 -58 -10.5t-50 -29 t-35 -44.5t-13 -58z" />
<glyph unicode="&#xa8;" horiz-adv-x="919" d="M115 1387q0 20 6.5 42t22 40.5t41 31t62.5 12.5q38 0 63 -12.5t40 -31.5t21.5 -41t6.5 -41q0 -18 -6.5 -40t-21.5 -41t-40 -31.5t-63 -12.5q-37 0 -62.5 12.5t-41 31.5t-22 40.5t-6.5 40.5zM481 1387q0 20 6.5 42t22.5 40.5t41.5 31t62.5 12.5q38 0 63 -12.5t40 -31.5 t21 -41t6 -41q0 -18 -6 -40t-21 -41t-40 -31.5t-63 -12.5q-37 0 -62.5 12.5t-41.5 31.5t-22.5 40.5t-6.5 40.5z" />
<glyph unicode="&#xa9;" horiz-adv-x="1744" d="M100 727q0 106 28.5 202.5t79.5 179.5t122 150t157 114.5t183.5 73t201.5 25.5t202 -25.5t183.5 -73t156.5 -114.5t122 -150t79 -179.5t28 -202.5t-28 -202.5t-79 -179t-122 -149.5t-156.5 -114.5t-183.5 -73t-202 -25.5t-201.5 25.5t-183.5 73t-157 114.5t-122 149.5 t-79.5 179t-28.5 202.5zM258 727q0 -85 22 -163.5t62 -146.5t96 -123.5t124 -95.5t146.5 -61.5t163.5 -21.5q127 0 239 48t195 131t131.5 194.5t48.5 238.5q0 85 -22 163.5t-62 146.5t-96 123.5t-124 95.5t-146.5 61.5t-163.5 21.5t-163.5 -21.5t-147 -61t-124 -95.5 t-95.5 -124t-62 -146.5t-22 -163.5zM451 714q0 99 30 184.5t86 147.5t137 97.5t184 35.5q164 0 271.5 -86.5t151.5 -242.5l-185 -56q-11 46 -30.5 85.5t-48.5 69t-68.5 46t-90.5 16.5q-64 0 -109.5 -25t-75 -66.5t-43.5 -95t-14 -110.5t14 -111t43.5 -95.5t75 -67 t109.5 -25.5q51 0 90.5 16.5t68.5 45.5t48.5 69t30.5 86l185 -57q-43 -155 -151.5 -241.5t-271.5 -86.5q-103 0 -184 35.5t-137.5 98.5t-86 148.5t-29.5 184.5z" />
<glyph unicode="&#xaa;" horiz-adv-x="841" d="M103 977q0 20 3 38q8 53 37.5 85.5t71 52.5t90 31.5t94.5 20.5q45 10 92 18q-1 56 -28 78.5t-81 22.5q-45 0 -70 -17t-23 -67l-173 16q1 8 1 17t1 17q6 50 31.5 85t62.5 57.5t82 33t90 10.5q134 0 208 -64.5t74 -203.5v-405h-173v65q-12 -15 -29 -27t-37 -21t-41.5 -15 t-41.5 -8q-16 -3 -30 -3q-49 1 -87.5 9.5t-66 29.5t-42 56t-15.5 88zM274 1013q-6 -39 12 -58.5t54 -19.5q82 0 116.5 45t36.5 122q-11 -2 -31 -6t-43.5 -9t-48 -12t-45.5 -16t-35 -20.5t-16 -25.5z" />
<glyph unicode="&#xab;" horiz-adv-x="1166" d="M133 532l421 408l130 -132l-284 -273l283 -265l-127 -131zM522 532l421 408l131 -132l-283 -273l282 -265l-127 -131z" />
<glyph unicode="&#xac;" horiz-adv-x="1254" d="M151 637v171h960v-471h-197v300h-763z" />
<glyph unicode="&#xad;" horiz-adv-x="1151" d="M163 508v170h811v-170h-811z" />
<glyph unicode="&#xae;" horiz-adv-x="1744" d="M100 727q0 106 28.5 202.5t79.5 179.5t122 150t157 114.5t183.5 73t201.5 25.5t202 -25.5t183.5 -73t156.5 -114.5t122 -150t79 -179.5t28 -202.5t-28 -202.5t-79 -179t-122 -149.5t-156.5 -114.5t-183.5 -73t-202 -25.5t-201.5 25.5t-183.5 73t-157 114.5t-122 149.5 t-79.5 179t-28.5 202.5zM243 727q0 -87 22.5 -167.5t63.5 -150t98.5 -126.5t127.5 -97.5t150 -63t167 -22.5q86 0 166.5 22.5t150 63.5t127 98t99 126.5t64 150t22.5 166.5q0 87 -22.5 167.5t-63.5 150t-98 126.5t-127 97.5t-150.5 63t-167.5 22.5t-167.5 -22t-150.5 -62.5 t-127 -97.5t-98 -127t-63.5 -150.5t-22.5 -167.5zM549 278v863l277 -3q30 0 59.5 0.5t59.5 -1.5q60 -5 115 -22.5t96 -50t65.5 -81t24.5 -115.5q0 -52 -19.5 -100.5t-57.5 -84.5q38 -35 57.5 -83t19.5 -100v-225h-195q0 19 0.5 41.5t1 45.5t1 45.5t0.5 41.5q0 52 -9.5 82 t-30 45.5t-54 19.5t-81.5 4h-136v-322h-194zM743 769h200q22 0 42 6.5t35 19.5t23.5 31t8.5 42q0 35 -14.5 55t-38 30.5t-52 13.5t-55.5 3q-34 0 -74.5 -0.5t-74.5 -0.5v-200z" />
<glyph unicode="&#xaf;" horiz-adv-x="1111" d="M182 1513v170h746v-170h-746z" />
<glyph unicode="&#xb0;" horiz-adv-x="965" d="M210 990.5q-6 44.5 2 84.5q14 71 44.5 131t76 103.5t107 67.5t136.5 24q72 0 118 -25t71 -62.5t31 -82t-2 -83.5q-14 -71 -44 -131t-76 -104t-107 -68.5t-136 -24.5q-72 0 -118.5 25t-71.5 63t-31 82.5zM378 988.5q4 -24.5 31 -24.5q17 0 45 11q29 11 53.5 31t44.5 45 t36 54t28 59q17 45 13.5 69.5t-31.5 24.5q-17 0 -45 -11q-29 -11 -53.5 -30.5t-44.5 -44.5t-36 -54t-28 -59q-17 -46 -13 -70.5z" />
<glyph unicode="&#xb1;" horiz-adv-x="1434" d="M162 -48v159h1030v-159h-1030zM162 533v159h424v417h181v-417h425v-159h-425v-387h-181v387h-424z" />
<glyph unicode="&#xb2;" horiz-adv-x="966" d="M92 900q0 58 18.5 100.5t49 75t69 57t79.5 46.5t80 43.5t70 48t51 59.5t21 79q1 2 1 8q0 29 -9 53t-26 42t-41 28t-53 10q-41 0 -66.5 -18.5t-39 -48t-18 -64.5t-3.5 -68h-183v23t1 22q1 68 23.5 124.5t63 98t97 64.5t125.5 23q63 0 119.5 -20.5t99 -58.5t67.5 -91.5 t25 -119.5q0 -58 -15 -105t-42 -85t-65 -68.5t-85 -56.5q-25 -14 -50.5 -26t-49.5 -25t-46 -27.5t-40 -34.5h404v-156h-627q-1 17 -3 34t-2 34z" />
<glyph unicode="&#xb3;" horiz-adv-x="979" d="M89 1162v22h178v-26t2 -25q4 -64 44 -101.5t106 -37.5q71 0 111.5 41.5t40.5 111.5t-40 112.5t-112 42.5q-24 0 -48 -4.5t-47 -10.5l-36 74l161 170h-317v151h607l26 -59l-189 -202q41 -18 73.5 -46.5t54.5 -64t33.5 -77t11.5 -86.5q0 -71 -26 -127.5t-71 -95.5t-105 -60 t-128 -21q-67 0 -126 20.5t-104 58.5t-71.5 93t-27.5 125q-1 11 -1 22z" />
<glyph unicode="&#xb4;" horiz-adv-x="730" d="M181 1229l194 362h249l-282 -362h-161z" />
<glyph unicode="&#xb6;" horiz-adv-x="1357" d="M209 1161q0 45 16.5 95t51 92.5t89 70t129.5 27.5h522v-144h-128v-1303h-162v1303h-108v-1303h-163v881q-65 6 -111.5 35.5t-76.5 70.5t-44.5 87.5t-14.5 87.5z" />
<glyph unicode="&#xb7;" horiz-adv-x="644" d="M239 727q0 22 7.5 48t24.5 48t45 36.5t69 14.5q42 0 70 -14.5t45 -36.5t24.5 -48t7.5 -48t-7.5 -47.5t-24.5 -47.5t-45 -36.5t-70 -14.5q-41 0 -69 14.5t-45 36.5t-24.5 47.5t-7.5 47.5z" />
<glyph unicode="&#xb8;" horiz-adv-x="532" d="M23 -429l110 124q20 -27 58.5 -42t81.5 -8q17 2 28 10t13 27q3 22 -4 36.5t-20 23.5t-29.5 12.5t-33.5 3.5q-25 0 -62 -1.5t-75 -11.5v89q0 5 8.5 19.5t21 33.5t28 40.5t30 41t26 34.5t16.5 22h234l-112 -145q72 -20 117 -68.5t45 -126.5q0 -50 -20.5 -88t-54 -64 t-77 -39t-88.5 -13q-68 0 -127.5 26t-113.5 64z" />
<glyph unicode="&#xb9;" horiz-adv-x="709" d="M38 1519l369 201l54 -705l-164 -131l-13 488l-145 37z" />
<glyph unicode="&#xba;" horiz-adv-x="858" d="M157.5 991q-6.5 45 1.5 84q14 71 44.5 130.5t76 103t107 68t136.5 24.5q72 0 118 -25t71 -62.5t31.5 -82t-1.5 -83.5q-14 -70 -44.5 -130.5t-76 -104t-106.5 -68.5t-136 -25q-72 0 -118.5 25t-71.5 63t-31.5 83zM325 988.5q4 -24.5 31 -24.5q17 0 45 11q29 11 53.5 31 t45 45t36.5 54t28 59q17 45 13.5 69.5t-31.5 24.5q-16 0 -46 -11q-29 -11 -53.5 -30.5t-44.5 -44.5t-36 -54t-28 -59q-17 -46 -13 -70.5z" />
<glyph unicode="&#xbb;" horiz-adv-x="1115" d="M60 808l131 132l421 -408l-424 -393l-127 131l282 265zM460 808l130 132l422 -408l-424 -393l-127 131l283 265z" />
<glyph unicode="&#xbc;" horiz-adv-x="1773" d="M190 1190l346 270l69 -31v-791h-178v531l-135 -103zM296 0l915 1451h226l-915 -1451h-226zM778 186l629 814l100 -33v-684h84v-151h-84v-159h-177v159h-525zM1068 283h262v340z" />
<glyph unicode="&#xbd;" horiz-adv-x="1772" d="M124 1278l428 217v-865h-178v597l-179 -89zM220 0l915 1451h193l-915 -1451h-193zM914 77q0 58 19 100t49.5 74.5t70 57t81 46.5t81 44.5t70 49.5t49.5 62t19 82q0 28 -9.5 52.5t-26.5 42.5t-40.5 28t-52.5 10q-41 0 -66 -18.5t-38.5 -47.5t-18 -64t-3.5 -68h-184v45 q1 68 24 124.5t63.5 97.5t97 64t125.5 23q63 0 119.5 -20.5t99 -58t67.5 -91t25 -119.5q0 -58 -15 -105t-42 -85t-65.5 -68.5t-85.5 -56.5q-24 -14 -49.5 -26t-49.5 -25t-46 -28t-40 -34h404v-156h-627q-2 17 -3.5 34t-1.5 34z" />
<glyph unicode="&#xbe;" horiz-adv-x="1756" d="M35 920h177q0 -70 41 -111t111 -41q71 0 112 41t41 111t-40.5 113t-112.5 43q-24 0 -47.5 -5t-46.5 -10l-36 73l160 170h-316v152h606l26 -60l-189 -202q41 -18 73.5 -46t54.5 -64t33.5 -77.5t11.5 -86.5q0 -71 -26 -127.5t-71 -95.5t-105 -60t-128 -21t-128 21 t-104.5 60t-70.5 95.5t-26 127.5zM279 0l915 1451h226l-915 -1451h-226zM757 180l634 820l100 -33v-684h83v-151h-83v-159h-178v159h-528zM1051 283h262v340z" />
<glyph unicode="&#xbf;" horiz-adv-x="1176" d="M146 134q0 69 17.5 118.5t46 85.5t65.5 62.5t75.5 50t75.5 48t66.5 57t48 76t20.5 104.5q1 18 0.5 36.5t-2.5 38.5l194 10q3 -39 3 -78q0 -79 -18 -137.5t-47 -102t-66.5 -75t-76.5 -57.5t-76.5 -49.5t-66.5 -50t-47 -59.5t-18 -78q0 -52 19 -97.5t52 -79.5t78 -53 t98 -19q49 0 91 15.5t73.5 44t49.5 68.5t19 90q1 9 0.5 18t-1.5 18q-3 36 -12 69l191 35q7 -33 12 -67t5 -68q0 -90 -34.5 -162.5t-93.5 -123.5t-136.5 -78t-163.5 -27q-90 0 -170 30.5t-140 85.5t-95.5 132t-35.5 169zM498 1005q0 31 12 55.5t32.5 41.5t47 26t55.5 9 q30 0 56.5 -9t46.5 -25.5t32 -41t12 -56.5q0 -31 -12 -56t-32 -42t-46.5 -26t-56.5 -9q-29 0 -55.5 9t-47 26.5t-32.5 42t-12 55.5z" />
<glyph unicode="&#xc0;" horiz-adv-x="1278" d="M12 -1l560 1452h136l558 -1452h-206l-125 327h-591l-125 -327h-207zM391 1948l287 2l209 -369h-181zM409 494h460l-229 599z" />
<glyph unicode="&#xc1;" horiz-adv-x="1278" d="M12 -1l560 1452h136l558 -1452h-206l-125 327h-591l-125 -327h-207zM406 1615l194 362h272l-282 -362h-184zM409 494h460l-229 599z" />
<glyph unicode="&#xc2;" horiz-adv-x="1278" d="M12 -1l560 1452h136l558 -1452h-206l-125 327h-591l-125 -327h-207zM284 1606l289 372h133l288 -372h-195l-158 168l-153 -168h-204zM409 494h460l-229 599z" />
<glyph unicode="&#xc3;" horiz-adv-x="1278" d="M12 -1l560 1452h136l558 -1452h-206l-125 327h-591l-125 -327h-207zM247 1665q14 49 37 90t56 71t76 46.5t97 16.5q47 0 87.5 -16.5t74.5 -36.5t61.5 -36.5t48.5 -16.5q18 0 32 12.5t24 30t17 37t11 34.5l163 -49q-15 -49 -36 -91.5t-51.5 -74t-72 -49.5t-97.5 -18 q-46 0 -87 17t-75 37t-61 37t-46 17q-21 0 -37 -10t-27.5 -25t-19 -34t-12.5 -37zM409 494h460l-229 599z" />
<glyph unicode="&#xc4;" horiz-adv-x="1278" d="M12 -1l560 1452h136l558 -1452h-206l-125 327h-591l-125 -327h-207zM299 1743q0 20 7 42.5t22.5 42t42 32.5t65.5 13t65 -13t42 -32.5t22.5 -42.5t6.5 -42t-6.5 -42t-22.5 -43t-42 -33t-65 -13t-65.5 13t-42 32.5t-22.5 42.5t-7 43zM409 494h460l-229 599zM704 1743 q0 20 7 42.5t22.5 42t41.5 32.5t65 13t65.5 -13t42 -32.5t22 -42.5t6.5 -42t-6.5 -42t-22 -43t-42 -33t-65.5 -13t-65 13t-41.5 32.5t-22.5 42.5t-7 43z" />
<glyph unicode="&#xc5;" horiz-adv-x="1278" d="M12 -1l560 1452h136l558 -1452h-206l-125 327h-591l-125 -327h-207zM409 494h460l-229 599zM434 1850q0 46 15.5 84.5t43.5 66t66 42.5t84 15t84.5 -15t66 -42.5t43 -66t15.5 -84.5t-15 -84.5t-43 -66.5t-66 -43.5t-85 -15.5q-46 0 -84.5 15.5t-66.5 43.5t-43 66.5 t-15 84.5zM576 1850q0 -32 17.5 -50t49.5 -18t49.5 18t17.5 50q0 31 -18 48.5t-49 17.5t-49 -17.5t-18 -48.5z" />
<glyph unicode="&#xc6;" horiz-adv-x="2058" d="M68 -1l986 1452h915v-169l-735 1v-448h680v-168h-680v-499h735v-169h-930v327h-522l-221 -327h-228zM631 494h408v602z" />
<glyph unicode="&#xc7;" horiz-adv-x="1517" d="M122 719q0 155 45 289t131.5 232.5t212.5 155t288 56.5q204 0 355.5 -91.5t236.5 -258.5l-174 -83q-29 61 -69 110t-92 83t-116 52.5t-141 18.5q-123 0 -214 -46t-150.5 -123.5t-89 -179.5t-29.5 -215q0 -112 29.5 -214t89 -179.5t150.5 -123.5t214 -46q150 0 251 66 t161 183l168 -90q-88 -158 -235 -243t-345 -85q-161 0 -287 56.5t-212.5 155.5t-132 232.5t-45.5 287.5zM569 -492l110 124q20 -27 58.5 -42t81.5 -8q17 2 28 10t13 27q3 22 -4 36.5t-20 23.5t-29.5 12.5t-33.5 3.5q-25 0 -62 -1.5t-75 -11.5v89q0 5 8.5 19.5t21 33.5 t28 40.5t30 41t26 34.5t16.5 22h234l-112 -145q72 -20 117 -68.5t45 -126.5q0 -50 -20.5 -88t-54 -64t-77 -39t-88.5 -13q-68 0 -127.5 26t-113.5 64z" />
<glyph unicode="&#xc8;" horiz-adv-x="1164" d="M121 -1v1453l947 -1v-169l-752 1v-448h662v-168h-662v-499h752v-169h-947zM334 1948l287 2l209 -369h-181z" />
<glyph unicode="&#xc9;" horiz-adv-x="1164" d="M121 -1v1453l947 -1v-169l-752 1v-448h662v-168h-662v-499h752v-169h-947zM349 1615l194 362h272l-282 -362h-184z" />
<glyph unicode="&#xca;" horiz-adv-x="1164" d="M121 -1v1453l947 -1v-169l-752 1v-448h662v-168h-662v-499h752v-169h-947zM227 1606l289 372h133l288 -372h-195l-158 168l-153 -168h-204z" />
<glyph unicode="&#xcb;" horiz-adv-x="1164" d="M121 -1v1453l947 -1v-169l-752 1v-448h662v-168h-662v-499h752v-169h-947zM241 1743q0 20 7 42.5t22.5 42t42 32.5t65.5 13t65 -13t42 -32.5t22.5 -42.5t6.5 -42t-6.5 -42t-22.5 -43t-42 -33t-65 -13t-65.5 13t-42 32.5t-22.5 42.5t-7 43zM646 1743q0 20 7 42.5t22.5 42 t41.5 32.5t65 13t65.5 -13t42 -32.5t22 -42.5t6.5 -42t-6.5 -42t-22 -43t-42 -33t-65.5 -13t-65 13t-41.5 32.5t-22.5 42.5t-7 43z" />
<glyph unicode="&#xcc;" horiz-adv-x="436" d="M-30 1948l287 2l209 -369h-181zM121 0v1451h195v-1451h-195z" />
<glyph unicode="&#xcd;" horiz-adv-x="436" d="M-15 1615l194 362h272l-282 -362h-184zM121 0v1451h195v-1451h-195z" />
<glyph unicode="&#xce;" horiz-adv-x="436" d="M-137 1606l289 372h133l288 -372h-195l-158 168l-153 -168h-204zM121 0v1451h195v-1451h-195z" />
<glyph unicode="&#xcf;" horiz-adv-x="436" d="M-123 1743q0 20 7 42.5t22.5 42t42 32.5t65.5 13t65 -13t42 -32.5t22.5 -42.5t6.5 -42t-6.5 -42t-22.5 -43t-42 -33t-65 -13t-65.5 13t-42 32.5t-22.5 42.5t-7 43zM121 0v1451h195v-1451h-195zM282 1743q0 20 7 42.5t22.5 42t41.5 32.5t65 13t65.5 -13t42 -32.5t22 -42.5 t6.5 -42t-6.5 -42t-22 -43t-42 -33t-65.5 -13t-65 13t-41.5 32.5t-22.5 42.5t-7 43z" />
<glyph unicode="&#xd0;" horiz-adv-x="1422" d="M19 610v170h811v-170h-811zM121 0v1460q51 -1 111.5 -0.5t124 0.5t128.5 -1t126 -4q51 -3 96.5 -8.5t83.5 -14.5q128 -28 223.5 -95t159.5 -161.5t95.5 -211.5t31.5 -245q0 -155 -45.5 -287t-132.5 -228t-213 -150t-287 -54h-502zM316 168l307 1q123 0 213.5 43.5 t150.5 118t89.5 174.5t29.5 214q0 97 -21 187t-66 163.5t-116 126t-171 74.5q-20 5 -40.5 8t-42.5 5q-83 7 -170 6t-163 -1v-1120z" />
<glyph unicode="&#xd1;" horiz-adv-x="1426" d="M121 0v1451h175l813 -1109v1109h196v-1451h-165l-824 1107v-1107h-195zM321 1665q14 49 37 90t56 71t76 46.5t97 16.5q47 0 87.5 -16.5t74.5 -36.5t61.5 -36.5t48.5 -16.5q18 0 32 12.5t24 30t17 37t11 34.5l163 -49q-15 -49 -36 -91.5t-51.5 -74t-72 -49.5t-97.5 -18 q-46 0 -87 17t-75 37t-61 37t-46 17q-21 0 -37 -10t-27.5 -25t-19 -34t-12.5 -37z" />
<glyph unicode="&#xd2;" horiz-adv-x="1596" d="M122 721q0 156 45 290.5t132 233.5t213.5 155.5t289.5 56.5q162 0 288.5 -57t213.5 -156t132.5 -233.5t45.5 -289.5t-45.5 -289.5t-132.5 -234t-213.5 -156.5t-288.5 -57t-288.5 57t-213.5 156.5t-132.5 234t-45.5 289.5zM316 721q0 -114 29.5 -216.5t89.5 -180.5 t151.5 -124t215.5 -46q123 0 214 46.5t151.5 124.5t90 180.5t29.5 215.5t-29.5 215.5t-89.5 180.5t-151.5 124t-214.5 46q-124 0 -215.5 -46t-151.5 -124t-89.5 -180.5t-29.5 -215.5zM550 1948l287 2l209 -369h-181z" />
<glyph unicode="&#xd3;" horiz-adv-x="1596" d="M122 721q0 156 45 290.5t132 233.5t213.5 155.5t289.5 56.5q162 0 288.5 -57t213.5 -156t132.5 -233.5t45.5 -289.5t-45.5 -289.5t-132.5 -234t-213.5 -156.5t-288.5 -57t-288.5 57t-213.5 156.5t-132.5 234t-45.5 289.5zM316 721q0 -114 29.5 -216.5t89.5 -180.5 t151.5 -124t215.5 -46q123 0 214 46.5t151.5 124.5t90 180.5t29.5 215.5t-29.5 215.5t-89.5 180.5t-151.5 124t-214.5 46q-124 0 -215.5 -46t-151.5 -124t-89.5 -180.5t-29.5 -215.5zM565 1615l194 362h272l-282 -362h-184z" />
<glyph unicode="&#xd4;" horiz-adv-x="1596" d="M122 721q0 156 45 290.5t132 233.5t213.5 155.5t289.5 56.5q162 0 288.5 -57t213.5 -156t132.5 -233.5t45.5 -289.5t-45.5 -289.5t-132.5 -234t-213.5 -156.5t-288.5 -57t-288.5 57t-213.5 156.5t-132.5 234t-45.5 289.5zM316 721q0 -114 29.5 -216.5t89.5 -180.5 t151.5 -124t215.5 -46q123 0 214 46.5t151.5 124.5t90 180.5t29.5 215.5t-29.5 215.5t-89.5 180.5t-151.5 124t-214.5 46q-124 0 -215.5 -46t-151.5 -124t-89.5 -180.5t-29.5 -215.5zM444 1606l289 372h133l288 -372h-195l-158 168l-153 -168h-204z" />
<glyph unicode="&#xd5;" horiz-adv-x="1596" d="M122 721q0 156 45 290.5t132 233.5t213.5 155.5t289.5 56.5q162 0 288.5 -57t213.5 -156t132.5 -233.5t45.5 -289.5t-45.5 -289.5t-132.5 -234t-213.5 -156.5t-288.5 -57t-288.5 57t-213.5 156.5t-132.5 234t-45.5 289.5zM316 721q0 -114 29.5 -216.5t89.5 -180.5 t151.5 -124t215.5 -46q123 0 214 46.5t151.5 124.5t90 180.5t29.5 215.5t-29.5 215.5t-89.5 180.5t-151.5 124t-214.5 46q-124 0 -215.5 -46t-151.5 -124t-89.5 -180.5t-29.5 -215.5zM406 1665q14 49 37 90t56 71t76 46.5t97 16.5q47 0 87.5 -16.5t74.5 -36.5t61.5 -36.5 t48.5 -16.5q18 0 32 12.5t24 30t17 37t11 34.5l163 -49q-15 -49 -36 -91.5t-51.5 -74t-72 -49.5t-97.5 -18q-46 0 -87 17t-75 37t-61 37t-46 17q-21 0 -37 -10t-27.5 -25t-19 -34t-12.5 -37z" />
<glyph unicode="&#xd6;" horiz-adv-x="1596" d="M122 721q0 156 45 290.5t132 233.5t213.5 155.5t289.5 56.5q162 0 288.5 -57t213.5 -156t132.5 -233.5t45.5 -289.5t-45.5 -289.5t-132.5 -234t-213.5 -156.5t-288.5 -57t-288.5 57t-213.5 156.5t-132.5 234t-45.5 289.5zM316 721q0 -114 29.5 -216.5t89.5 -180.5 t151.5 -124t215.5 -46q123 0 214 46.5t151.5 124.5t90 180.5t29.5 215.5t-29.5 215.5t-89.5 180.5t-151.5 124t-214.5 46q-124 0 -215.5 -46t-151.5 -124t-89.5 -180.5t-29.5 -215.5zM458 1743q0 20 7 42.5t22.5 42t42 32.5t65.5 13t65 -13t42 -32.5t22.5 -42.5t6.5 -42 t-6.5 -42t-22.5 -43t-42 -33t-65 -13t-65.5 13t-42 32.5t-22.5 42.5t-7 43zM863 1743q0 20 7 42.5t22.5 42t41.5 32.5t65 13t65.5 -13t42 -32.5t22 -42.5t6.5 -42t-6.5 -42t-22 -43t-42 -33t-65.5 -13t-65 13t-41.5 32.5t-22.5 42.5t-7 43z" />
<glyph unicode="&#xd7;" horiz-adv-x="1282" d="M163 1019l130 132l349 -335l348 335l131 -132l-345 -331l342 -329l-131 -132l-345 332l-346 -332l-130 132l342 329z" />
<glyph unicode="&#xd8;" horiz-adv-x="1596" d="M122 721q0 156 45 290.5t132 233.5t213.5 155.5t289.5 56.5q162 0 288.5 -57t213.5 -156t132.5 -233.5t45.5 -289.5t-45.5 -289.5t-132.5 -234t-213.5 -156.5t-288.5 -57t-288.5 57t-213.5 156.5t-132.5 234t-45.5 289.5zM316 721q0 -114 29.5 -216.5t89.5 -180.5 t151.5 -124t215.5 -46q123 0 214 46.5t151.5 124.5t90 180.5t29.5 215.5t-29.5 215.5t-89.5 180.5t-151.5 124t-214.5 46q-124 0 -215.5 -46t-151.5 -124t-89.5 -180.5t-29.5 -215.5zM385 0l618 1451h209l-618 -1451h-209z" />
<glyph unicode="&#xd9;" horiz-adv-x="1325" d="M121 519v932h195v-932q0 -77 24.5 -144t70 -116.5t109.5 -78t143 -28.5t143 28.5t109 78t69.5 116.5t24.5 144v932h195v-932q0 -119 -40.5 -217.5t-112.5 -169.5t-171 -110t-217 -39t-217.5 39t-171.5 110t-112.5 169.5t-40.5 217.5zM415 1948l287 2l209 -369h-181z" />
<glyph unicode="&#xda;" horiz-adv-x="1325" d="M121 519v932h195v-932q0 -77 24.5 -144t70 -116.5t109.5 -78t143 -28.5t143 28.5t109 78t69.5 116.5t24.5 144v932h195v-932q0 -119 -40.5 -217.5t-112.5 -169.5t-171 -110t-217 -39t-217.5 39t-171.5 110t-112.5 169.5t-40.5 217.5zM430 1615l194 362h272l-282 -362 h-184z" />
<glyph unicode="&#xdb;" horiz-adv-x="1325" d="M121 519v932h195v-932q0 -77 24.5 -144t70 -116.5t109.5 -78t143 -28.5t143 28.5t109 78t69.5 116.5t24.5 144v932h195v-932q0 -119 -40.5 -217.5t-112.5 -169.5t-171 -110t-217 -39t-217.5 39t-171.5 110t-112.5 169.5t-40.5 217.5zM308 1606l289 372h133l288 -372h-195 l-158 168l-153 -168h-204z" />
<glyph unicode="&#xdc;" horiz-adv-x="1325" d="M121 519v932h195v-932q0 -77 24.5 -144t70 -116.5t109.5 -78t143 -28.5t143 28.5t109 78t69.5 116.5t24.5 144v932h195v-932q0 -119 -40.5 -217.5t-112.5 -169.5t-171 -110t-217 -39t-217.5 39t-171.5 110t-112.5 169.5t-40.5 217.5zM322 1743q0 20 7 42.5t22.5 42 t42 32.5t65.5 13t65 -13t42 -32.5t22.5 -42.5t6.5 -42t-6.5 -42t-22.5 -43t-42 -33t-65 -13t-65.5 13t-42 32.5t-22.5 42.5t-7 43zM727 1743q0 20 7 42.5t22.5 42t41.5 32.5t65 13t65.5 -13t42 -32.5t22 -42.5t6.5 -42t-6.5 -42t-22 -43t-42 -33t-65.5 -13t-65 13 t-41.5 32.5t-22.5 42.5t-7 43z" />
<glyph unicode="&#xdd;" horiz-adv-x="1425" d="M81 1451h219l412 -708l412 708h220l-537 -922l3 -529h-196v536zM480 1615l194 362h272l-282 -362h-184z" />
<glyph unicode="&#xde;" horiz-adv-x="1001" d="M100 0v1451h198v-276h181q86 0 162.5 -27t134 -77t91 -122t33.5 -162t-33.5 -162.5t-91 -123t-134 -77.5t-162.5 -27h-181v-397h-198zM298 568h181q48 0 89 16t71 44.5t47 69t17 89.5t-17 89.5t-47 69t-71 44t-89 15.5h-181v-437z" />
<glyph unicode="&#xe0;" horiz-adv-x="1122" d="M122 326q0 79 28.5 135t76.5 93.5t110.5 59t131 32.5t138 14t130.5 2q17 0 34.5 -0.5t34.5 -0.5v5q0 62 -17 105t-48.5 69.5t-77.5 38.5t-104 12q-47 0 -86.5 -8.5t-68.5 -29.5t-45 -56t-17 -87l-196 15q6 89 41 152.5t90.5 104t129 59t155.5 18.5q104 0 185.5 -25.5 t138 -77.5t86 -130.5t29.5 -185.5q0 -161 -0.5 -320t-0.5 -320h-167l-27 103q-28 -29 -64.5 -51t-77 -36.5t-83 -21.5t-82.5 -7q-80 0 -149 21t-119.5 63.5t-79.5 106t-29 148.5zM264 1480l287 2l209 -369h-181zM316 326q0 -91 48 -130.5t135 -39.5q63 0 118 12t96.5 40.5 t66 76t26.5 117.5l1 89q-28 1 -55.5 1.5t-55.5 0.5q-24 0 -62 -1t-80 -5.5t-84.5 -14.5t-76.5 -28.5t-55.5 -47.5t-21.5 -70z" />
<glyph unicode="&#xe1;" horiz-adv-x="1122" d="M122 326q0 79 28.5 135t76.5 93.5t110.5 59t131 32.5t138 14t130.5 2q17 0 34.5 -0.5t34.5 -0.5v5q0 62 -17 105t-48.5 69.5t-77.5 38.5t-104 12q-47 0 -86.5 -8.5t-68.5 -29.5t-45 -56t-17 -87l-196 15q6 89 41 152.5t90.5 104t129 59t155.5 18.5q104 0 185.5 -25.5 t138 -77.5t86 -130.5t29.5 -185.5q0 -161 -0.5 -320t-0.5 -320h-167l-27 103q-28 -29 -64.5 -51t-77 -36.5t-83 -21.5t-82.5 -7q-80 0 -149 21t-119.5 63.5t-79.5 106t-29 148.5zM316 326q0 -91 48 -130.5t135 -39.5q63 0 118 12t96.5 40.5t66 76t26.5 117.5l1 89 q-28 1 -55.5 1.5t-55.5 0.5q-24 0 -62 -1t-80 -5.5t-84.5 -14.5t-76.5 -28.5t-55.5 -47.5t-21.5 -70zM413 1110l194 362h249l-282 -362h-161z" />
<glyph unicode="&#xe2;" horiz-adv-x="1122" d="M122 326q0 79 28.5 135t76.5 93.5t110.5 59t131 32.5t138 14t130.5 2q17 0 34.5 -0.5t34.5 -0.5v5q0 62 -17 105t-48.5 69.5t-77.5 38.5t-104 12q-47 0 -86.5 -8.5t-68.5 -29.5t-45 -56t-17 -87l-196 15q6 89 41 152.5t90.5 104t129 59t155.5 18.5q104 0 185.5 -25.5 t138 -77.5t86 -130.5t29.5 -185.5q0 -161 -0.5 -320t-0.5 -320h-167l-27 103q-28 -29 -64.5 -51t-77 -36.5t-83 -21.5t-82.5 -7q-80 0 -149 21t-119.5 63.5t-79.5 106t-29 148.5zM196 1111l289 372h132l289 -372h-194l-158 167l-154 -167h-204zM316 326q0 -91 48 -130.5 t135 -39.5q63 0 118 12t96.5 40.5t66 76t26.5 117.5l1 89q-28 1 -55.5 1.5t-55.5 0.5q-24 0 -62 -1t-80 -5.5t-84.5 -14.5t-76.5 -28.5t-55.5 -47.5t-21.5 -70z" />
<glyph unicode="&#xe3;" horiz-adv-x="1122" d="M122 326q0 79 28.5 135t76.5 93.5t110.5 59t131 32.5t138 14t130.5 2q17 0 34.5 -0.5t34.5 -0.5v5q0 62 -17 105t-48.5 69.5t-77.5 38.5t-104 12q-47 0 -86.5 -8.5t-68.5 -29.5t-45 -56t-17 -87l-196 15q6 89 41 152.5t90.5 104t129 59t155.5 18.5q104 0 185.5 -25.5 t138 -77.5t86 -130.5t29.5 -185.5q0 -161 -0.5 -320t-0.5 -320h-167l-27 103q-28 -29 -64.5 -51t-77 -36.5t-83 -21.5t-82.5 -7q-80 0 -149 21t-119.5 63.5t-79.5 106t-29 148.5zM174 1129q14 50 36.5 91.5t55.5 71t76 45.5t98 16q51 0 91 -16.5t73 -37t59.5 -37t48.5 -16.5 q18 0 32 12.5t24 30t17 37t11 34.5l163 -48q-15 -49 -36 -91.5t-51.5 -74t-72 -50t-97.5 -18.5q-49 0 -90.5 17t-74.5 37t-59 37t-45 17q-22 0 -38 -10t-27.5 -25t-18.5 -34t-12 -37zM316 326q0 -91 48 -130.5t135 -39.5q63 0 118 12t96.5 40.5t66 76t26.5 117.5l1 89 q-28 1 -55.5 1.5t-55.5 0.5q-24 0 -62 -1t-80 -5.5t-84.5 -14.5t-76.5 -28.5t-55.5 -47.5t-21.5 -70z" />
<glyph unicode="&#xe4;" horiz-adv-x="1122" d="M122 326q0 79 28.5 135t76.5 93.5t110.5 59t131 32.5t138 14t130.5 2q17 0 34.5 -0.5t34.5 -0.5v5q0 62 -17 105t-48.5 69.5t-77.5 38.5t-104 12q-47 0 -86.5 -8.5t-68.5 -29.5t-45 -56t-17 -87l-196 15q6 89 41 152.5t90.5 104t129 59t155.5 18.5q104 0 185.5 -25.5 t138 -77.5t86 -130.5t29.5 -185.5q0 -161 -0.5 -320t-0.5 -320h-167l-27 103q-28 -29 -64.5 -51t-77 -36.5t-83 -21.5t-82.5 -7q-80 0 -149 21t-119.5 63.5t-79.5 106t-29 148.5zM255 1268q0 20 6.5 42t22 40.5t41 31t62.5 12.5q38 0 63 -12.5t40 -31.5t21.5 -41t6.5 -41 q0 -18 -6.5 -40t-21.5 -41t-40 -31.5t-63 -12.5q-37 0 -62.5 12.5t-41 31.5t-22 40.5t-6.5 40.5zM316 326q0 -91 48 -130.5t135 -39.5q63 0 118 12t96.5 40.5t66 76t26.5 117.5l1 89q-28 1 -55.5 1.5t-55.5 0.5q-24 0 -62 -1t-80 -5.5t-84.5 -14.5t-76.5 -28.5t-55.5 -47.5 t-21.5 -70zM621 1268q0 20 6.5 42t22.5 40.5t41.5 31t62.5 12.5q38 0 63 -12.5t40 -31.5t21 -41t6 -41q0 -18 -6 -40t-21 -41t-40 -31.5t-63 -12.5q-37 0 -62.5 12.5t-41.5 31.5t-22.5 40.5t-6.5 40.5z" />
<glyph unicode="&#xe5;" horiz-adv-x="1122" d="M122 326q0 79 28.5 135t76.5 93.5t110.5 59t131 32.5t138 14t130.5 2q17 0 34.5 -0.5t34.5 -0.5v5q0 62 -17 105t-48.5 69.5t-77.5 38.5t-104 12q-47 0 -86.5 -8.5t-68.5 -29.5t-45 -56t-17 -87l-196 15q6 89 41 152.5t90.5 104t129 59t155.5 18.5q104 0 185.5 -25.5 t138 -77.5t86 -130.5t29.5 -185.5q0 -161 -0.5 -320t-0.5 -320h-167l-27 103q-28 -29 -64.5 -51t-77 -36.5t-83 -21.5t-82.5 -7q-80 0 -149 21t-119.5 63.5t-79.5 106t-29 148.5zM316 326q0 -91 48 -130.5t135 -39.5q63 0 118 12t96.5 40.5t66 76t26.5 117.5l1 89 q-28 1 -55.5 1.5t-55.5 0.5q-24 0 -62 -1t-80 -5.5t-84.5 -14.5t-76.5 -28.5t-55.5 -47.5t-21.5 -70zM332 1349q0 33 12 69.5t39 67t69.5 50.5t103.5 20t103.5 -20t69.5 -50.5t39 -67t12 -69.5t-12 -70t-38.5 -67.5t-69 -51t-104.5 -20.5t-104.5 20.5t-69 51t-38.5 67.5 t-12 70zM477 1351q0 -36 20.5 -56.5t57.5 -20.5q38 0 58 20.5t20 56.5t-21 55.5t-57 19.5t-57 -19.5t-21 -55.5z" />
<glyph unicode="&#xe6;" horiz-adv-x="1790" d="M56 326q0 62 19.5 106.5t53 76t77.5 51.5t93.5 33t101.5 19.5t100 11.5q13 2 25 3l24 2q96 9 192 21v10q0 65 -15.5 109t-46 71t-77 39t-108.5 12q-45 0 -85 -9.5t-70 -30.5t-47.5 -55.5t-17.5 -85.5l-193 15q5 89 40.5 152.5t92 104t129.5 59t154 18.5q63 0 122.5 -10.5 t111.5 -35.5t93.5 -66t67.5 -101q32 60 80.5 101t106.5 66t123 35.5t131 10.5q80 0 149 -21t120 -63.5t80 -106t29 -149.5q0 -60 -17 -102.5t-47 -72.5t-71.5 -50t-91.5 -34q-10 -3 -20 -5.5t-21 -5.5q-103 -24 -207 -32.5t-209 -19.5v-10q0 -64 15.5 -108t46 -71.5 t77 -39.5t107.5 -12q46 0 85.5 9t69 30.5t46.5 56t17 85.5l196 -17q-6 -82 -37 -142.5t-81.5 -101t-116 -62.5t-139.5 -26q-10 0 -20.5 -0.5t-21.5 -0.5q-63 0 -123 11t-111.5 35.5t-93 65.5t-67.5 101q-33 -61 -81.5 -101.5t-106.5 -65.5t-123.5 -35.5t-131.5 -10.5 q-80 0 -149 21t-120 63.5t-80 106t-29 148.5zM252 326q0 -90 47.5 -130t134.5 -40q90 0 149 19t94 58t49.5 100t14.5 145q-85 -9 -167.5 -18t-166.5 -20q-28 -4 -55.5 -8.5t-49.5 -16t-36 -32.5t-14 -57zM1028 568q84 10 166.5 19.5t166.5 20.5q29 4 56.5 8t50 15t36 31.5 t13.5 56.5q0 92 -47.5 132t-135.5 40t-147 -19.5t-94 -59.5t-50 -100.5t-15 -143.5z" />
<glyph unicode="&#xe7;" horiz-adv-x="1206" d="M112 533q0 116 34 215.5t99 173t159.5 115t215.5 41.5q172 0 294 -86.5t180 -248.5l-185 -53q-35 102 -106.5 160.5t-182.5 58.5q-82 0 -141 -31t-97.5 -83t-57 -120t-18.5 -142q0 -73 18.5 -141.5t57 -120.5t97.5 -83.5t141 -31.5q108 0 179 55.5t106 155.5l181 -68 q-61 -152 -181.5 -232t-284.5 -80q-121 0 -215.5 41.5t-159.5 115t-99 173.5t-34 216zM362 -492l110 124q20 -27 58.5 -42t81.5 -8q17 2 28 10t13 27q3 22 -4 36.5t-20 23.5t-29.5 12.5t-33.5 3.5q-25 0 -62 -1.5t-75 -11.5v89q0 5 8.5 19.5t21 33.5t28 40.5t30 41t26 34.5 t16.5 22h234l-112 -145q72 -20 117 -68.5t45 -126.5q0 -50 -20.5 -88t-54 -64t-77 -39t-88.5 -13q-68 0 -127.5 26t-113.5 64z" />
<glyph unicode="&#xe8;" horiz-adv-x="1258" d="M122 533q0 116 34 215.5t99.5 173t160 115t214.5 41.5q135 0 231 -47t157.5 -127t90.5 -186t29 -225l-821 3q5 -69 26 -131t59.5 -108.5t95.5 -73.5t132 -27q102 0 175.5 53t108.5 148l186 -52q-28 -76 -75 -135.5t-108 -100t-134 -61.5t-153 -21q-120 0 -214.5 42 t-160 115.5t-99.5 173t-34 215.5zM333 666l594 -2q-13 54 -39.5 99.5t-64.5 77.5t-86.5 50t-106.5 18q-59 0 -107.5 -17.5t-86 -50t-63.5 -77t-40 -98.5zM335 1480l287 2l209 -369h-181z" />
<glyph unicode="&#xe9;" horiz-adv-x="1258" d="M122 533q0 116 34 215.5t99.5 173t160 115t214.5 41.5q135 0 231 -47t157.5 -127t90.5 -186t29 -225l-821 3q5 -69 26 -131t59.5 -108.5t95.5 -73.5t132 -27q102 0 175.5 53t108.5 148l186 -52q-28 -76 -75 -135.5t-108 -100t-134 -61.5t-153 -21q-120 0 -214.5 42 t-160 115.5t-99.5 173t-34 215.5zM333 666l594 -2q-13 54 -39.5 99.5t-64.5 77.5t-86.5 50t-106.5 18q-59 0 -107.5 -17.5t-86 -50t-63.5 -77t-40 -98.5zM484 1110l194 362h249l-282 -362h-161z" />
<glyph unicode="&#xea;" horiz-adv-x="1258" d="M122 533q0 116 34 215.5t99.5 173t160 115t214.5 41.5q135 0 231 -47t157.5 -127t90.5 -186t29 -225l-821 3q5 -69 26 -131t59.5 -108.5t95.5 -73.5t132 -27q102 0 175.5 53t108.5 148l186 -52q-28 -76 -75 -135.5t-108 -100t-134 -61.5t-153 -21q-120 0 -214.5 42 t-160 115.5t-99.5 173t-34 215.5zM267 1111l289 372h132l289 -372h-194l-158 167l-154 -167h-204zM333 666l594 -2q-13 54 -39.5 99.5t-64.5 77.5t-86.5 50t-106.5 18q-59 0 -107.5 -17.5t-86 -50t-63.5 -77t-40 -98.5z" />
<glyph unicode="&#xeb;" horiz-adv-x="1258" d="M122 533q0 116 34 215.5t99.5 173t160 115t214.5 41.5q135 0 231 -47t157.5 -127t90.5 -186t29 -225l-821 3q5 -69 26 -131t59.5 -108.5t95.5 -73.5t132 -27q102 0 175.5 53t108.5 148l186 -52q-28 -76 -75 -135.5t-108 -100t-134 -61.5t-153 -21q-120 0 -214.5 42 t-160 115.5t-99.5 173t-34 215.5zM326 1268q0 20 6.5 42t22 40.5t41 31t62.5 12.5q38 0 63 -12.5t40 -31.5t21.5 -41t6.5 -41q0 -18 -6.5 -40t-21.5 -41t-40 -31.5t-63 -12.5q-37 0 -62.5 12.5t-41 31.5t-22 40.5t-6.5 40.5zM333 666l594 -2q-13 54 -39.5 99.5t-64.5 77.5 t-86.5 50t-106.5 18q-59 0 -107.5 -17.5t-86 -50t-63.5 -77t-40 -98.5zM692 1268q0 20 6.5 42t22.5 40.5t41.5 31t62.5 12.5q38 0 63 -12.5t40 -31.5t21 -41t6 -41q0 -18 -6 -40t-21 -41t-40 -31.5t-63 -12.5q-37 0 -62.5 12.5t-41.5 31.5t-22.5 40.5t-6.5 40.5z" />
<glyph unicode="&#xec;" horiz-adv-x="404" d="M-105 1509l287 2l209 -369h-181zM101 4v1055h198v-1055h-198z" />
<glyph unicode="&#xed;" horiz-adv-x="404" d="M44 1139l194 362h249l-282 -362h-161zM101 4v1055h198v-1055h-198z" />
<glyph unicode="&#xee;" horiz-adv-x="404" d="M-174 1140l289 372h132l289 -372h-194l-158 167l-154 -167h-204zM101 4v1055h198v-1055h-198z" />
<glyph unicode="&#xef;" horiz-adv-x="404" d="M-114 1297q0 20 6.5 42t22 40.5t41 31t62.5 12.5q38 0 63 -12.5t40 -31.5t21.5 -41t6.5 -41q0 -18 -6.5 -40t-21.5 -41t-40 -31.5t-63 -12.5q-37 0 -62.5 12.5t-41 31.5t-22 40.5t-6.5 40.5zM101 4v1055h198v-1055h-198zM252 1297q0 20 6.5 42t22.5 40.5t41.5 31 t62.5 12.5q38 0 63 -12.5t40 -31.5t21 -41t6 -41q0 -18 -6 -40t-21 -41t-40 -31.5t-63 -12.5q-37 0 -62.5 12.5t-41.5 31.5t-22.5 40.5t-6.5 40.5z" />
<glyph unicode="&#xf0;" horiz-adv-x="1292" d="M93 517q0 115 33.5 216.5t98 177.5t159 120t215.5 44q68 0 127 -25q-25 38 -53 74.5t-61 69.5l-304 -149l-73 140l256 122q-72 61 -147.5 113.5t-153.5 105.5h309q45 -29 85.5 -62.5t81.5 -68.5l302 147l77 -138l-259 -126q147 -152 226 -342.5t79 -403.5 q0 -114 -32.5 -215t-96 -176t-156.5 -118.5t-215 -43.5q-123 0 -216.5 40t-156 111.5t-94 170t-31.5 216.5zM286 519q0 -73 17.5 -140.5t55 -119.5t96 -82.5t141.5 -30.5q81 0 138.5 33t94 86.5t53 121.5t16.5 138q0 75 -13 144t-46 121.5t-90 83.5t-146 31 q-83 0 -143 -32.5t-98.5 -86.5t-57 -123.5t-18.5 -143.5z" />
<glyph unicode="&#xf1;" horiz-adv-x="1120" d="M122 1057h194v-114q27 33 64.5 58.5t80.5 43t89 27t88 9.5q83 0 149.5 -27t113.5 -76t72.5 -115.5t25.5 -146.5l-2 -716h-195l3 716q0 91 -53 144t-156 53q-36 0 -80.5 -12t-85 -33.5t-71.5 -52t-41 -66.5l1 -749h-195zM184 1129q14 50 36.5 91.5t55.5 71t76 45.5t98 16 q51 0 91 -16.5t73 -37t59.5 -37t48.5 -16.5q18 0 32 12.5t24 30t17 37t11 34.5l163 -48q-15 -49 -36 -91.5t-51.5 -74t-72 -50t-97.5 -18.5q-49 0 -90.5 17t-74.5 37t-59 37t-45 17q-22 0 -38 -10t-27.5 -25t-18.5 -34t-12 -37z" />
<glyph unicode="&#xf2;" horiz-adv-x="1258" d="M122 533q0 117 35 217t100.5 173t160 114t212.5 41t212 -41.5t160 -114t101 -172.5t35 -217t-35 -217t-100.5 -173t-159.5 -114.5t-213 -41.5t-213.5 41t-160 114t-100 173t-34.5 218zM316 533q0 -76 19 -144t58 -120t98 -82.5t139 -30.5t138.5 30.5t97 82.5t57.5 120 t19 144q0 75 -19 143t-57.5 120t-97 82.5t-138.5 30.5t-139 -30.5t-98 -82t-58 -120t-19 -143.5zM335 1480l287 2l209 -369h-181z" />
<glyph unicode="&#xf3;" horiz-adv-x="1258" d="M122 533q0 117 35 217t100.5 173t160 114t212.5 41t212 -41.5t160 -114t101 -172.5t35 -217t-35 -217t-100.5 -173t-159.5 -114.5t-213 -41.5t-213.5 41t-160 114t-100 173t-34.5 218zM316 533q0 -76 19 -144t58 -120t98 -82.5t139 -30.5t138.5 30.5t97 82.5t57.5 120 t19 144q0 75 -19 143t-57.5 120t-97 82.5t-138.5 30.5t-139 -30.5t-98 -82t-58 -120t-19 -143.5zM484 1110l194 362h249l-282 -362h-161z" />
<glyph unicode="&#xf4;" horiz-adv-x="1258" d="M122 533q0 117 35 217t100.5 173t160 114t212.5 41t212 -41.5t160 -114t101 -172.5t35 -217t-35 -217t-100.5 -173t-159.5 -114.5t-213 -41.5t-213.5 41t-160 114t-100 173t-34.5 218zM267 1111l289 372h132l289 -372h-194l-158 167l-154 -167h-204zM316 533 q0 -76 19 -144t58 -120t98 -82.5t139 -30.5t138.5 30.5t97 82.5t57.5 120t19 144q0 75 -19 143t-57.5 120t-97 82.5t-138.5 30.5t-139 -30.5t-98 -82t-58 -120t-19 -143.5z" />
<glyph unicode="&#xf5;" horiz-adv-x="1258" d="M122 533q0 117 35 217t100.5 173t160 114t212.5 41t212 -41.5t160 -114t101 -172.5t35 -217t-35 -217t-100.5 -173t-159.5 -114.5t-213 -41.5t-213.5 41t-160 114t-100 173t-34.5 218zM245 1129q14 50 36.5 91.5t55.5 71t76 45.5t98 16q51 0 91 -16.5t73 -37t59.5 -37 t48.5 -16.5q18 0 32 12.5t24 30t17 37t11 34.5l163 -48q-15 -49 -36 -91.5t-51.5 -74t-72 -50t-97.5 -18.5q-49 0 -90.5 17t-74.5 37t-59 37t-45 17q-22 0 -38 -10t-27.5 -25t-18.5 -34t-12 -37zM316 533q0 -76 19 -144t58 -120t98 -82.5t139 -30.5t138.5 30.5t97 82.5 t57.5 120t19 144q0 75 -19 143t-57.5 120t-97 82.5t-138.5 30.5t-139 -30.5t-98 -82t-58 -120t-19 -143.5z" />
<glyph unicode="&#xf6;" horiz-adv-x="1258" d="M122 533q0 117 35 217t100.5 173t160 114t212.5 41t212 -41.5t160 -114t101 -172.5t35 -217t-35 -217t-100.5 -173t-159.5 -114.5t-213 -41.5t-213.5 41t-160 114t-100 173t-34.5 218zM316 533q0 -76 19 -144t58 -120t98 -82.5t139 -30.5t138.5 30.5t97 82.5t57.5 120 t19 144q0 75 -19 143t-57.5 120t-97 82.5t-138.5 30.5t-139 -30.5t-98 -82t-58 -120t-19 -143.5zM326 1268q0 20 6.5 42t22 40.5t41 31t62.5 12.5q38 0 63 -12.5t40 -31.5t21.5 -41t6.5 -41q0 -18 -6.5 -40t-21.5 -41t-40 -31.5t-63 -12.5q-37 0 -62.5 12.5t-41 31.5 t-22 40.5t-6.5 40.5zM692 1268q0 20 6.5 42t22.5 40.5t41.5 31t62.5 12.5q38 0 63 -12.5t40 -31.5t21 -41t6 -41q0 -18 -6 -40t-21 -41t-40 -31.5t-63 -12.5q-37 0 -62.5 12.5t-41.5 31.5t-22.5 40.5t-6.5 40.5z" />
<glyph unicode="&#xf7;" horiz-adv-x="1284" d="M163 521v157h945v-157h-945zM481 324q0 19 7 42t23 43t42.5 33.5t64.5 13.5q39 0 65.5 -13.5t42.5 -33.5t23 -43t7 -42q0 -18 -7 -41t-23 -43.5t-42.5 -34t-65.5 -13.5q-38 0 -64.5 13.5t-42.5 34t-23 43.5t-7 41zM481 869q0 19 7 41.5t23 42.5t42.5 33.5t64.5 13.5 q39 0 65.5 -13.5t42.5 -33.5t23 -42.5t7 -41.5q0 -18 -7 -41t-23 -43.5t-42.5 -34t-65.5 -13.5q-38 0 -64.5 13.5t-42.5 34t-23 43.5t-7 41z" />
<glyph unicode="&#xf8;" horiz-adv-x="1258" d="M122 533q0 117 35 217t100.5 173t160 114t212.5 41t212 -41.5t160 -114t101 -172.5t35 -217t-35 -217t-100.5 -173t-159.5 -114.5t-213 -41.5t-213.5 41t-160 114t-100 173t-34.5 218zM162 -135l618 1451h209l-618 -1451h-209zM316 533q0 -76 19 -144t58 -120t98 -82.5 t139 -30.5t138.5 30.5t97 82.5t57.5 120t19 144q0 75 -19 143t-57.5 120t-97 82.5t-138.5 30.5t-139 -30.5t-98 -82t-58 -120t-19 -143.5z" />
<glyph unicode="&#xf9;" horiz-adv-x="1120" d="M121 347q0 181 0.5 357.5t0.5 357.5h197l-3 -715q0 -49 14.5 -85.5t42 -61.5t66.5 -37.5t86 -12.5q39 0 82 11.5t81 33t68.5 52t45.5 69.5l1 1l-2 745h195l2 -1056h-194v106q-54 -63 -130.5 -96.5t-158.5 -33.5q-83 0 -155 24.5t-125 71.5t-83.5 115t-30.5 154zM256 1552 l287 2l209 -369h-181z" />
<glyph unicode="&#xfa;" horiz-adv-x="1120" d="M121 347q0 181 0.5 357.5t0.5 357.5h197l-3 -715q0 -49 14.5 -85.5t42 -61.5t66.5 -37.5t86 -12.5q39 0 82 11.5t81 33t68.5 52t45.5 69.5l1 1l-2 745h195l2 -1056h-194v106q-54 -63 -130.5 -96.5t-158.5 -33.5q-83 0 -155 24.5t-125 71.5t-83.5 115t-30.5 154zM404 1182 l194 362h249l-282 -362h-161z" />
<glyph unicode="&#xfb;" horiz-adv-x="1120" d="M121 347q0 181 0.5 357.5t0.5 357.5h197l-3 -715q0 -49 14.5 -85.5t42 -61.5t66.5 -37.5t86 -12.5q39 0 82 11.5t81 33t68.5 52t45.5 69.5l1 1l-2 745h195l2 -1056h-194v106q-54 -63 -130.5 -96.5t-158.5 -33.5q-83 0 -155 24.5t-125 71.5t-83.5 115t-30.5 154zM187 1183 l289 372h132l289 -372h-194l-158 167l-154 -167h-204z" />
<glyph unicode="&#xfc;" horiz-adv-x="1120" d="M121 347q0 181 0.5 357.5t0.5 357.5h197l-3 -715q0 -49 14.5 -85.5t42 -61.5t66.5 -37.5t86 -12.5q39 0 82 11.5t81 33t68.5 52t45.5 69.5l1 1l-2 745h195l2 -1056h-194v106q-54 -63 -130.5 -96.5t-158.5 -33.5q-83 0 -155 24.5t-125 71.5t-83.5 115t-30.5 154zM247 1340 q0 20 6.5 42t22 40.5t41 31t62.5 12.5q38 0 63 -12.5t40 -31.5t21.5 -41t6.5 -41q0 -18 -6.5 -40t-21.5 -41t-40 -31.5t-63 -12.5q-37 0 -62.5 12.5t-41 31.5t-22 40.5t-6.5 40.5zM613 1340q0 20 6.5 42t22.5 40.5t41.5 31t62.5 12.5q38 0 63 -12.5t40 -31.5t21 -41t6 -41 q0 -18 -6 -40t-21 -41t-40 -31.5t-63 -12.5q-37 0 -62.5 12.5t-41.5 31.5t-22.5 40.5t-6.5 40.5z" />
<glyph unicode="&#xfd;" horiz-adv-x="1123" d="M16 1057h207l310 -775l355 775h211l-607 -1323q-29 -64 -86.5 -100.5t-127.5 -36.5q-48 0 -93 14t-90 27v178q14 -5 34.5 -14.5t43 -18.5t45 -16t40.5 -7q6 0 10.5 1t9.5 3q9 2 21.5 18.5t24.5 43.5q14 28 28.5 60.5t28 63t24.5 55.5t17 38zM358 1110l194 362h249 l-282 -362h-161z" />
<glyph unicode="&#xfe;" horiz-adv-x="1218" d="M100 -54v1508h196l1 -486q63 57 144 83.5t167 26.5q121 0 215.5 -41.5t159.5 -115t99 -173t34 -215.5t-34 -216t-99 -173.5t-159.5 -115t-215.5 -41.5q-86 0 -167 26.5t-144 85.5q0 -134 -0.5 -265.5t1.5 -265.5h-196q0 95 -1 189.5t-1 188.5zM297 514.5q0 -14.5 1 -29.5 q4 -66 26.5 -125.5t62 -104.5t95.5 -72t126 -27q82 0 141 31t97.5 83.5t57 120.5t18.5 142t-18.5 142t-57 120t-97.5 83t-141 31q-76 0 -134 -31t-97.5 -82.5t-59.5 -117t-20 -134.5v-29.5z" />
<glyph unicode="&#xff;" horiz-adv-x="1123" d="M16 1057h207l310 -775l355 775h211l-607 -1323q-29 -64 -86.5 -100.5t-127.5 -36.5q-48 0 -93 14t-90 27v178q14 -5 34.5 -14.5t43 -18.5t45 -16t40.5 -7q6 0 10.5 1t9.5 3q9 2 21.5 18.5t24.5 43.5q14 28 28.5 60.5t28 63t24.5 55.5t17 38zM217 1385q0 20 6.5 42 t22 40.5t41 31t62.5 12.5q38 0 63 -12.5t40 -31.5t21.5 -41t6.5 -41q0 -18 -6.5 -40t-21.5 -41t-40 -31.5t-63 -12.5q-37 0 -62.5 12.5t-41 31.5t-22 40.5t-6.5 40.5zM583 1385q0 20 6.5 42t22.5 40.5t41.5 31t62.5 12.5q38 0 63 -12.5t40 -31.5t21 -41t6 -41q0 -18 -6 -40 t-21 -41t-40 -31.5t-63 -12.5q-37 0 -62.5 12.5t-41.5 31.5t-22.5 40.5t-6.5 40.5z" />
<glyph unicode="&#x100;" horiz-adv-x="1278" d="M12 -1l560 1452h136l558 -1452h-206l-125 327h-591l-125 -327h-207zM266 1664v170h746v-170h-746zM409 494h460l-229 599z" />
<glyph unicode="&#x101;" horiz-adv-x="1122" d="M122 326q0 79 28.5 135t76.5 93.5t110.5 59t131 32.5t138 14t130.5 2q17 0 34.5 -0.5t34.5 -0.5v5q0 62 -17 105t-48.5 69.5t-77.5 38.5t-104 12q-47 0 -86.5 -8.5t-68.5 -29.5t-45 -56t-17 -87l-196 15q6 89 41 152.5t90.5 104t129 59t155.5 18.5q104 0 185.5 -25.5 t138 -77.5t86 -130.5t29.5 -185.5q0 -161 -0.5 -320t-0.5 -320h-167l-27 103q-28 -29 -64.5 -51t-77 -36.5t-83 -21.5t-82.5 -7q-80 0 -149 21t-119.5 63.5t-79.5 106t-29 148.5zM185 1132v170h746v-170h-746zM316 326q0 -91 48 -130.5t135 -39.5q63 0 118 12t96.5 40.5 t66 76t26.5 117.5l1 89q-28 1 -55.5 1.5t-55.5 0.5q-24 0 -62 -1t-80 -5.5t-84.5 -14.5t-76.5 -28.5t-55.5 -47.5t-21.5 -70z" />
<glyph unicode="&#x102;" horiz-adv-x="1278" d="M12 -1l560 1452h136l558 -1452h-206l-125 327h-591l-125 -327h-207zM293 1933h198q0 -64 40 -98t109 -34t108.5 34.5t39.5 97.5h198q0 -57 -21.5 -111t-64.5 -97t-108 -69t-152 -26t-152 26t-108.5 68.5t-65 97t-21.5 111.5zM409 494h460l-229 599z" />
<glyph unicode="&#x103;" horiz-adv-x="1122" d="M122 326q0 79 28.5 135t76.5 93.5t110.5 59t131 32.5t138 14t130.5 2q17 0 34.5 -0.5t34.5 -0.5v5q0 62 -17 105t-48.5 69.5t-77.5 38.5t-104 12q-47 0 -86.5 -8.5t-68.5 -29.5t-45 -56t-17 -87l-196 15q6 89 41 152.5t90.5 104t129 59t155.5 18.5q104 0 185.5 -25.5 t138 -77.5t86 -130.5t29.5 -185.5q0 -161 -0.5 -320t-0.5 -320h-167l-27 103q-28 -29 -64.5 -51t-77 -36.5t-83 -21.5t-82.5 -7q-80 0 -149 21t-119.5 63.5t-79.5 106t-29 148.5zM214 1546h198q0 -64 40 -98.5t109 -34.5t108.5 34.5t39.5 98.5h198q0 -57 -21 -111.5 t-64.5 -97.5t-108.5 -69t-152 -26t-152 26t-108.5 68.5t-65 97.5t-21.5 112zM316 326q0 -91 48 -130.5t135 -39.5q63 0 118 12t96.5 40.5t66 76t26.5 117.5l1 89q-28 1 -55.5 1.5t-55.5 0.5q-24 0 -62 -1t-80 -5.5t-84.5 -14.5t-76.5 -28.5t-55.5 -47.5t-21.5 -70z" />
<glyph unicode="&#x104;" horiz-adv-x="1278" d="M12 -1l560 1452h136l558 -1452h-206l-125 327h-591l-125 -327h-207zM409 494h460l-229 599zM414 -365q0 41 15.5 80t39.5 74.5t53 68t56 59.5h283q-15 -12 -39.5 -32.5t-52 -45t-56 -52t-51 -54.5t-37 -51.5t-14.5 -43.5q0 -15 12 -23.5t28 -13t33.5 -6t27.5 -1.5 q28 0 55 3t53 6v-173q-26 -2 -53.5 -4t-54.5 -2q-48 0 -100.5 11.5t-96.5 36.5t-72.5 65t-28.5 98z" />
<glyph unicode="&#x105;" horiz-adv-x="1122" d="M122 326q0 79 28.5 135t76.5 93.5t110.5 59t131 32.5t138 14t130.5 2q17 0 34.5 -0.5t34.5 -0.5v5q0 62 -17 105t-48.5 69.5t-77.5 38.5t-104 12q-47 0 -86.5 -8.5t-68.5 -29.5t-45 -56t-17 -87l-196 15q6 89 41 152.5t90.5 104t129 59t155.5 18.5q104 0 185.5 -25.5 t138 -77.5t86 -130.5t29.5 -185.5q0 -161 -0.5 -320t-0.5 -320h-167l-27 103q-28 -29 -64.5 -51t-77 -36.5t-83 -21.5t-82.5 -7q-80 0 -149 21t-119.5 63.5t-79.5 106t-29 148.5zM309 -320q0 41 15.5 80t39.5 74.5t53 68t56 59.5h283q-15 -12 -39.5 -32.5t-52 -45t-56 -52 t-51 -54.5t-37 -51.5t-14.5 -43.5q0 -15 12 -23.5t28 -13t33.5 -6t27.5 -1.5q28 0 55 3t53 6v-173q-26 -2 -53.5 -4t-54.5 -2q-48 0 -100.5 11.5t-96.5 36.5t-72.5 65t-28.5 98zM316 326q0 -91 48 -130.5t135 -39.5q63 0 118 12t96.5 40.5t66 76t26.5 117.5l1 89 q-28 1 -55.5 1.5t-55.5 0.5q-24 0 -62 -1t-80 -5.5t-84.5 -14.5t-76.5 -28.5t-55.5 -47.5t-21.5 -70z" />
<glyph unicode="&#x106;" horiz-adv-x="1517" d="M122 719q0 155 45 289t131.5 232.5t212.5 155t288 56.5q204 0 355.5 -91.5t236.5 -258.5l-174 -83q-29 61 -69 110t-92 83t-116 52.5t-141 18.5q-123 0 -214 -46t-150.5 -123.5t-89 -179.5t-29.5 -215q0 -112 29.5 -214t89 -179.5t150.5 -123.5t214 -46q150 0 251 66 t161 183l168 -90q-88 -158 -235 -243t-345 -85q-161 0 -287 56.5t-212.5 155.5t-132 232.5t-45.5 287.5zM526 1615l194 362h272l-282 -362h-184z" />
<glyph unicode="&#x107;" horiz-adv-x="1206" d="M112 533q0 116 34 215.5t99 173t159.5 115t215.5 41.5q172 0 294 -86.5t180 -248.5l-185 -53q-35 102 -106.5 160.5t-182.5 58.5q-82 0 -141 -31t-97.5 -83t-57 -120t-18.5 -142q0 -73 18.5 -141.5t57 -120.5t97.5 -83.5t141 -31.5q108 0 179 55.5t106 155.5l181 -68 q-61 -152 -181.5 -232t-284.5 -80q-121 0 -215.5 41.5t-159.5 115t-99 173.5t-34 216zM447 1192l194 362h249l-282 -362h-161z" />
<glyph unicode="&#x108;" horiz-adv-x="1517" d="M122 719q0 155 45 289t131.5 232.5t212.5 155t288 56.5q204 0 355.5 -91.5t236.5 -258.5l-174 -83q-29 61 -69 110t-92 83t-116 52.5t-141 18.5q-123 0 -214 -46t-150.5 -123.5t-89 -179.5t-29.5 -215q0 -112 29.5 -214t89 -179.5t150.5 -123.5t214 -46q150 0 251 66 t161 183l168 -90q-88 -158 -235 -243t-345 -85q-161 0 -287 56.5t-212.5 155.5t-132 232.5t-45.5 287.5zM404 1606l289 372h133l288 -372h-195l-158 168l-153 -168h-204z" />
<glyph unicode="&#x109;" horiz-adv-x="1206" d="M112 533q0 116 34 215.5t99 173t159.5 115t215.5 41.5q172 0 294 -86.5t180 -248.5l-185 -53q-35 102 -106.5 160.5t-182.5 58.5q-82 0 -141 -31t-97.5 -83t-57 -120t-18.5 -142q0 -73 18.5 -141.5t57 -120.5t97.5 -83.5t141 -31.5q108 0 179 55.5t106 155.5l181 -68 q-61 -152 -181.5 -232t-284.5 -80q-121 0 -215.5 41.5t-159.5 115t-99 173.5t-34 216zM230 1193l289 372h132l289 -372h-194l-158 167l-154 -167h-204z" />
<glyph unicode="&#x10a;" horiz-adv-x="1517" d="M122 719q0 155 45 289t131.5 232.5t212.5 155t288 56.5q204 0 355.5 -91.5t236.5 -258.5l-174 -83q-29 61 -69 110t-92 83t-116 52.5t-141 18.5q-123 0 -214 -46t-150.5 -123.5t-89 -179.5t-29.5 -215q0 -112 29.5 -214t89 -179.5t150.5 -123.5t214 -46q150 0 251 66 t161 183l168 -90q-88 -158 -235 -243t-345 -85q-161 0 -287 56.5t-212.5 155.5t-132 232.5t-45.5 287.5zM605 1755q0 21 7.5 45t25.5 45t47.5 35t73.5 14t73.5 -14t47 -35t25 -45t7.5 -45t-7.5 -45t-25 -45t-47 -35t-73.5 -14t-73.5 14t-47.5 35t-25.5 45t-7.5 45z" />
<glyph unicode="&#x10b;" horiz-adv-x="1206" d="M112 533q0 116 34 215.5t99 173t159.5 115t215.5 41.5q172 0 294 -86.5t180 -248.5l-185 -53q-35 102 -106.5 160.5t-182.5 58.5q-82 0 -141 -31t-97.5 -83t-57 -120t-18.5 -142q0 -73 18.5 -141.5t57 -120.5t97.5 -83.5t141 -31.5q108 0 179 55.5t106 155.5l181 -68 q-61 -152 -181.5 -232t-284.5 -80q-121 0 -215.5 41.5t-159.5 115t-99 173.5t-34 216zM458 1408q0 21 7 45t24 45t45 35t70 14t69.5 -14t44.5 -35t24 -45t7 -45q0 -20 -7 -44.5t-24 -45.5t-44.5 -35t-69.5 -14t-70 14t-45 35t-24 45.5t-7 44.5z" />
<glyph unicode="&#x10c;" horiz-adv-x="1517" d="M122 719q0 155 45 289t131.5 232.5t212.5 155t288 56.5q204 0 355.5 -91.5t236.5 -258.5l-174 -83q-29 61 -69 110t-92 83t-116 52.5t-141 18.5q-123 0 -214 -46t-150.5 -123.5t-89 -179.5t-29.5 -215q0 -112 29.5 -214t89 -179.5t150.5 -123.5t214 -46q150 0 251 66 t161 183l168 -90q-88 -158 -235 -243t-345 -85q-161 0 -287 56.5t-212.5 155.5t-132 232.5t-45.5 287.5zM491 1965l151 -52l114 -135l90 187h198l-224 -356l-87 36z" />
<glyph unicode="&#x10d;" horiz-adv-x="1206" d="M112 533q0 116 34 215.5t99 173t159.5 115t215.5 41.5q172 0 294 -86.5t180 -248.5l-185 -53q-35 102 -106.5 160.5t-182.5 58.5q-82 0 -141 -31t-97.5 -83t-57 -120t-18.5 -142q0 -73 18.5 -141.5t57 -120.5t97.5 -83.5t141 -31.5q108 0 179 55.5t106 155.5l181 -68 q-61 -152 -181.5 -232t-284.5 -80q-121 0 -215.5 41.5t-159.5 115t-99 173.5t-34 216zM236 1582h207l157 -169l163 169h196l-294 -373l-132 1z" />
<glyph unicode="&#x10e;" horiz-adv-x="1422" d="M121 0v1460q51 -1 111.5 -0.5t124 0.5t128.5 -1t126 -4q51 -3 96.5 -8.5t83.5 -14.5q128 -28 223.5 -95t159.5 -161.5t95.5 -211.5t31.5 -245q0 -155 -45.5 -287t-132.5 -228t-213 -150t-287 -54h-502zM316 168l307 1q123 0 213.5 43.5t150.5 118t89.5 174.5t29.5 214 q0 97 -21 187t-66 163.5t-116 126t-171 74.5q-20 5 -40.5 8t-42.5 5q-83 7 -170 6t-163 -1v-1120zM443 1965l151 -52l114 -135l90 187h198l-224 -356l-87 36z" />
<glyph unicode="&#x10f;" horiz-adv-x="1348" d="M101 533q0 116 34 215.5t99.5 172.5t160 115t214.5 42q87 0 167.5 -27t144.5 -84q0 125 0.5 248t0.5 239h195q0 -240 -0.5 -476.5t-0.5 -476.5q-1 -122 -0.5 -242.5t-0.5 -242.5h-195q0 21 0.5 41.5t0.5 40.5q-64 -58 -144.5 -84.5t-167.5 -26.5q-120 0 -214.5 42 t-160 115.5t-99.5 173t-34 215.5zM296 533q0 -73 18.5 -141.5t56.5 -120.5t97 -83.5t141 -31.5q79 0 137 31.5t97 83t58 118.5t20 138v9q0 71 -19.5 138t-58.5 119t-97.5 84t-136.5 32q-82 0 -141 -31t-97 -83.5t-56.5 -120t-18.5 -141.5zM1167 1107l46 327h192l-135 -331z " />
<glyph unicode="&#x110;" horiz-adv-x="1422" d="M19 610v170h811v-170h-811zM121 0v1460q51 -1 111.5 -0.5t124 0.5t128.5 -1t126 -4q51 -3 96.5 -8.5t83.5 -14.5q128 -28 223.5 -95t159.5 -161.5t95.5 -211.5t31.5 -245q0 -155 -45.5 -287t-132.5 -228t-213 -150t-287 -54h-502zM316 168l307 1q123 0 213.5 43.5 t150.5 118t89.5 174.5t29.5 214q0 97 -21 187t-66 163.5t-116 126t-171 74.5q-20 5 -40.5 8t-42.5 5q-83 7 -170 6t-163 -1v-1120z" />
<glyph unicode="&#x111;" horiz-adv-x="1258" d="M122 533q0 116 34 215.5t99 173t159.5 115t215.5 41.5q43 0 89 -11t88.5 -31.5t77.5 -49t56 -64.5q0 136 0.5 268.5t0.5 263.5h196l-2 -1438h-196l1 117q-26 -34 -61 -61t-75.5 -46t-85 -29t-89.5 -10q-121 0 -215.5 41.5t-159.5 115t-99 173.5t-34 216zM316 533 q0 -73 18.5 -141.5t57 -120.5t98 -83.5t140.5 -31.5q87 0 146.5 35t96 91.5t52.5 128.5t16 146v4q-1 66 -23 128.5t-62 111.5t-97.5 78.5t-128.5 29.5q-82 0 -141 -31t-97.5 -83t-57 -120t-18.5 -142zM494 1513v170h746v-170h-746z" />
<glyph unicode="&#x112;" horiz-adv-x="1164" d="M121 -1v1453l947 -1v-169l-752 1v-448h662v-168h-662v-499h752v-169h-947zM209 1664v170h746v-170h-746z" />
<glyph unicode="&#x113;" horiz-adv-x="1258" d="M122 533q0 116 34 215.5t99.5 173t160 115t214.5 41.5q135 0 231 -47t157.5 -127t90.5 -186t29 -225l-821 3q5 -69 26 -131t59.5 -108.5t95.5 -73.5t132 -27q102 0 175.5 53t108.5 148l186 -52q-28 -76 -75 -135.5t-108 -100t-134 -61.5t-153 -21q-120 0 -214.5 42 t-160 115.5t-99.5 173t-34 215.5zM256 1164v170h746v-170h-746zM333 666l594 -2q-13 54 -39.5 99.5t-64.5 77.5t-86.5 50t-106.5 18q-59 0 -107.5 -17.5t-86 -50t-63.5 -77t-40 -98.5z" />
<glyph unicode="&#x114;" horiz-adv-x="1164" d="M121 -1v1453l947 -1v-169l-752 1v-448h662v-168h-662v-499h752v-169h-947zM235 1933h198q0 -64 40 -98t109 -34t108.5 34.5t39.5 97.5h198q0 -57 -21.5 -111t-64.5 -97t-108 -69t-152 -26t-152 26t-108.5 68.5t-65 97t-21.5 111.5z" />
<glyph unicode="&#x115;" horiz-adv-x="1258" d="M122 533q0 116 34 215.5t99.5 173t160 115t214.5 41.5q135 0 231 -47t157.5 -127t90.5 -186t29 -225l-821 3q5 -69 26 -131t59.5 -108.5t95.5 -73.5t132 -27q102 0 175.5 53t108.5 148l186 -52q-28 -76 -75 -135.5t-108 -100t-134 -61.5t-153 -21q-120 0 -214.5 42 t-160 115.5t-99.5 173t-34 215.5zM282 1546h198q0 -64 40 -98.5t109 -34.5t108.5 34.5t39.5 98.5h198q0 -57 -21 -111.5t-64.5 -97.5t-108.5 -69t-152 -26t-152 26t-108.5 68.5t-65 97.5t-21.5 112zM333 666l594 -2q-13 54 -39.5 99.5t-64.5 77.5t-86.5 50t-106.5 18 q-59 0 -107.5 -17.5t-86 -50t-63.5 -77t-40 -98.5z" />
<glyph unicode="&#x116;" horiz-adv-x="1164" d="M121 -1v1453l947 -1v-169l-752 1v-448h662v-168h-662v-499h752v-169h-947zM429 1755q0 21 7.5 45t25.5 45t47.5 35t73.5 14t73.5 -14t47 -35t25 -45t7.5 -45t-7.5 -45t-25 -45t-47 -35t-73.5 -14t-73.5 14t-47.5 35t-25.5 45t-7.5 45z" />
<glyph unicode="&#x117;" horiz-adv-x="1258" d="M122 533q0 116 34 215.5t99.5 173t160 115t214.5 41.5q135 0 231 -47t157.5 -127t90.5 -186t29 -225l-821 3q5 -69 26 -131t59.5 -108.5t95.5 -73.5t132 -27q102 0 175.5 53t108.5 148l186 -52q-28 -76 -75 -135.5t-108 -100t-134 -61.5t-153 -21q-120 0 -214.5 42 t-160 115.5t-99.5 173t-34 215.5zM333 666l594 -2q-13 54 -39.5 99.5t-64.5 77.5t-86.5 50t-106.5 18q-59 0 -107.5 -17.5t-86 -50t-63.5 -77t-40 -98.5zM484 1408q0 21 7 45t24 45t45 35t70 14t69.5 -14t44.5 -35t24 -45t7 -45q0 -20 -7 -44.5t-24 -45.5t-44.5 -35 t-69.5 -14t-70 14t-45 35t-24 45.5t-7 44.5z" />
<glyph unicode="&#x118;" horiz-adv-x="1164" d="M121 -1v1453l947 -1v-169l-752 1v-448h662v-168h-662v-499h752v-169h-947z" />
<glyph unicode="&#x119;" horiz-adv-x="1258" d="M122 533q0 116 34 215.5t99.5 173t160 115t214.5 41.5q135 0 231 -47t157.5 -127t90.5 -186t29 -225l-821 3q5 -69 26 -131t59.5 -108.5t95.5 -73.5t132 -27q102 0 175.5 53t108.5 148l186 -52q-28 -76 -75 -135.5t-108 -100t-134 -61.5t-153 -21q-120 0 -214.5 42 t-160 115.5t-99.5 173t-34 215.5zM333 666l594 -2q-13 54 -39.5 99.5t-64.5 77.5t-86.5 50t-106.5 18q-59 0 -107.5 -17.5t-86 -50t-63.5 -77t-40 -98.5zM388 -320q0 41 15.5 80t39.5 74.5t53 68t56 59.5h283q-15 -12 -39.5 -32.5t-52 -45t-56 -52t-51 -54.5t-37 -51.5 t-14.5 -43.5q0 -15 12 -23.5t28 -13t33.5 -6t27.5 -1.5q28 0 55 3t53 6v-173q-26 -2 -53.5 -4t-54.5 -2q-48 0 -100.5 11.5t-96.5 36.5t-72.5 65t-28.5 98z" />
<glyph unicode="&#x11a;" horiz-adv-x="1164" d="M121 -1v1453l947 -1v-169l-752 1v-448h662v-168h-662v-499h752v-169h-947zM314 1965l151 -52l114 -135l90 187h198l-224 -356l-87 36z" />
<glyph unicode="&#x11b;" horiz-adv-x="1258" d="M122 533q0 116 34 215.5t99.5 173t160 115t214.5 41.5q135 0 231 -47t157.5 -127t90.5 -186t29 -225l-821 3q5 -69 26 -131t59.5 -108.5t95.5 -73.5t132 -27q102 0 175.5 53t108.5 148l186 -52q-28 -76 -75 -135.5t-108 -100t-134 -61.5t-153 -21q-120 0 -214.5 42 t-160 115.5t-99.5 173t-34 215.5zM268 1599h207l157 -169l163 169h196l-294 -373l-132 1zM333 666l594 -2q-13 54 -39.5 99.5t-64.5 77.5t-86.5 50t-106.5 18q-59 0 -107.5 -17.5t-86 -50t-63.5 -77t-40 -98.5z" />
<glyph unicode="&#x11c;" horiz-adv-x="1569" d="M122 719q0 155 45 289t131.5 232.5t212.5 155t288 56.5q115 0 217 -32t185 -92t144 -147.5t94 -198.5l-189 -42q-24 80 -66 143.5t-100 107.5t-129.5 68t-155.5 24q-123 0 -214 -46t-151 -123.5t-89 -179.5t-29 -215t29.5 -215t90 -179.5t152 -123t215.5 -45.5 q91 0 169.5 27t137.5 76.5t94.5 120t40.5 157.5h-533v168h728v-136q0 -56 -11 -111t-31 -107q-36 -93 -95.5 -161.5t-136.5 -113.5t-169.5 -67t-193.5 -22q-163 0 -289.5 56t-213.5 154t-132.5 232t-45.5 290zM430 1606l289 372h133l288 -372h-195l-158 168l-153 -168h-204z " />
<glyph unicode="&#x11d;" horiz-adv-x="1258" d="M122 539q0 116 34 216t99 173t159.5 114.5t215.5 41.5q46 0 92 -11.5t87.5 -33t75 -52.5t55.5 -70l-1 138h197l2 -1060q0 -106 -37 -193t-102 -149.5t-154 -96.5t-194 -34q-93 0 -171.5 25.5t-139.5 74t-103.5 119t-62.5 161.5h199q14 -50 41 -89t64 -66t82.5 -41.5 t96.5 -14.5q67 0 120 23t89.5 64t56 96.5t19.5 120.5v175q-23 -37 -57 -69.5t-75 -56t-87 -37t-93 -13.5q-121 0 -215.5 41.5t-159.5 114.5t-99 172.5t-34 216.5zM262 1210l289 372h132l289 -372h-194l-158 167l-154 -167h-204zM316 539q0 -73 18.5 -141.5t57 -120.5 t98 -83.5t140.5 -31.5q74 0 131.5 30.5t97.5 81t61.5 115t21.5 132.5q0 74 -17 144.5t-54.5 126.5t-96.5 90t-144 34q-81 0 -140.5 -31.5t-98 -83.5t-57 -120t-18.5 -142z" />
<glyph unicode="&#x11e;" horiz-adv-x="1569" d="M122 719q0 155 45 289t131.5 232.5t212.5 155t288 56.5q115 0 217 -32t185 -92t144 -147.5t94 -198.5l-189 -42q-24 80 -66 143.5t-100 107.5t-129.5 68t-155.5 24q-123 0 -214 -46t-151 -123.5t-89 -179.5t-29 -215t29.5 -215t90 -179.5t152 -123t215.5 -45.5 q91 0 169.5 27t137.5 76.5t94.5 120t40.5 157.5h-533v168h728v-136q0 -56 -11 -111t-31 -107q-36 -93 -95.5 -161.5t-136.5 -113.5t-169.5 -67t-193.5 -22q-163 0 -289.5 56t-213.5 154t-132.5 232t-45.5 290zM439 1933h198q0 -64 40 -98t109 -34t108.5 34.5t39.5 97.5h198 q0 -57 -21.5 -111t-64.5 -97t-108 -69t-152 -26t-152 26t-108.5 68.5t-65 97t-21.5 111.5z" />
<glyph unicode="&#x11f;" horiz-adv-x="1258" d="M122 539q0 116 34 216t99 173t159.5 114.5t215.5 41.5q46 0 92 -11.5t87.5 -33t75 -52.5t55.5 -70l-1 138h197l2 -1060q0 -106 -37 -193t-102 -149.5t-154 -96.5t-194 -34q-93 0 -171.5 25.5t-139.5 74t-103.5 119t-62.5 161.5h199q14 -50 41 -89t64 -66t82.5 -41.5 t96.5 -14.5q67 0 120 23t89.5 64t56 96.5t19.5 120.5v175q-23 -37 -57 -69.5t-75 -56t-87 -37t-93 -13.5q-121 0 -215.5 41.5t-159.5 114.5t-99 172.5t-34 216.5zM282 1546h198q0 -64 40 -98.5t109 -34.5t108.5 34.5t39.5 98.5h198q0 -57 -21 -111.5t-64.5 -97.5t-108.5 -69 t-152 -26t-152 26t-108.5 68.5t-65 97.5t-21.5 112zM316 539q0 -73 18.5 -141.5t57 -120.5t98 -83.5t140.5 -31.5q74 0 131.5 30.5t97.5 81t61.5 115t21.5 132.5q0 74 -17 144.5t-54.5 126.5t-96.5 90t-144 34q-81 0 -140.5 -31.5t-98 -83.5t-57 -120t-18.5 -142z" />
<glyph unicode="&#x120;" horiz-adv-x="1569" d="M122 719q0 155 45 289t131.5 232.5t212.5 155t288 56.5q115 0 217 -32t185 -92t144 -147.5t94 -198.5l-189 -42q-24 80 -66 143.5t-100 107.5t-129.5 68t-155.5 24q-123 0 -214 -46t-151 -123.5t-89 -179.5t-29 -215t29.5 -215t90 -179.5t152 -123t215.5 -45.5 q91 0 169.5 27t137.5 76.5t94.5 120t40.5 157.5h-533v168h728v-136q0 -56 -11 -111t-31 -107q-36 -93 -95.5 -161.5t-136.5 -113.5t-169.5 -67t-193.5 -22q-163 0 -289.5 56t-213.5 154t-132.5 232t-45.5 290zM631 1755q0 21 7.5 45t25.5 45t47.5 35t73.5 14t73.5 -14 t47 -35t25 -45t7.5 -45t-7.5 -45t-25 -45t-47 -35t-73.5 -14t-73.5 14t-47.5 35t-25.5 45t-7.5 45z" />
<glyph unicode="&#x121;" horiz-adv-x="1258" d="M122 539q0 116 34 216t99 173t159.5 114.5t215.5 41.5q46 0 92 -11.5t87.5 -33t75 -52.5t55.5 -70l-1 138h197l2 -1060q0 -106 -37 -193t-102 -149.5t-154 -96.5t-194 -34q-93 0 -171.5 25.5t-139.5 74t-103.5 119t-62.5 161.5h199q14 -50 41 -89t64 -66t82.5 -41.5 t96.5 -14.5q67 0 120 23t89.5 64t56 96.5t19.5 120.5v175q-23 -37 -57 -69.5t-75 -56t-87 -37t-93 -13.5q-121 0 -215.5 41.5t-159.5 114.5t-99 172.5t-34 216.5zM316 539q0 -73 18.5 -141.5t57 -120.5t98 -83.5t140.5 -31.5q74 0 131.5 30.5t97.5 81t61.5 115t21.5 132.5 q0 74 -17 144.5t-54.5 126.5t-96.5 90t-144 34q-81 0 -140.5 -31.5t-98 -83.5t-57 -120t-18.5 -142zM484 1408q0 21 7 45t24 45t45 35t70 14t69.5 -14t44.5 -35t24 -45t7 -45q0 -20 -7 -44.5t-24 -45.5t-44.5 -35t-69.5 -14t-70 14t-45 35t-24 45.5t-7 44.5z" />
<glyph unicode="&#x122;" horiz-adv-x="1584" d="M101 719q0 155 45.5 289t132 232.5t212.5 155t288 56.5q125 0 229 -34.5t186.5 -99t141.5 -157.5t93 -211l-186 -52q-25 87 -65 158t-97 121.5t-132 78t-170 27.5q-124 0 -215 -45.5t-150.5 -123t-88.5 -180t-29 -215.5q0 -114 29.5 -216t90 -179t152 -122.5t215.5 -45.5 q221 0 328 106t113 327h-532v168h728v-136q0 -313 -163 -473.5t-474 -160.5q-163 0 -290 56t-214 154t-132.5 232t-45.5 290zM616 -438l105 339h265l-204 -339h-166z" />
<glyph unicode="&#x123;" horiz-adv-x="1218" d="M101 539q0 116 34 215.5t99.5 172.5t160 115t214.5 42q86 0 167 -27.5t144 -84.5q0 11 -0.5 22.5t-0.5 22.5q-1 10 -1.5 19t-1.5 19h198q2 -100 4.5 -199t2.5 -199q0 -161 -2 -319.5t-2 -319.5q0 -105 -37 -192.5t-102 -149.5t-154 -96.5t-193 -34.5q-93 0 -172 25 t-140.5 74t-103 119.5t-61.5 162.5h198q29 -101 104.5 -156.5t179.5 -55.5q68 0 121 23t89.5 64t56 96.5t19.5 120.5v87q-64 -58 -145 -84.5t-168 -26.5q-121 0 -215.5 41.5t-159.5 114.5t-99 173t-34 216zM296 539q0 -73 18.5 -141.5t56.5 -120.5t97 -83.5t141 -31.5 q60 0 107 17.5t83 49t61.5 75.5t40.5 96q10 27 15.5 60t5.5 61q0 74 -17.5 145t-55 126.5t-97 89.5t-143.5 34q-82 0 -141 -31.5t-97 -83.5t-56.5 -120t-18.5 -142zM427 1644h285l69 -468l-179 2z" />
<glyph unicode="&#x124;" horiz-adv-x="1301" d="M121 0v1451h195v-616h670v616h194v-1451h-194v667h-670v-667h-195zM296 1606l289 372h133l288 -372h-195l-158 168l-153 -168h-204z" />
<glyph unicode="&#x125;" horiz-adv-x="1121" d="M-153 1557l289 372h132l289 -372h-194l-158 167l-154 -167h-204zM122 1451h194l1 -504q23 30 58.5 55t76.5 43t85.5 28t86.5 10h12q82 -3 149 -28.5t114.5 -72t73.5 -113t26 -152.5q0 -180 -1 -358.5t-1 -358.5h-195l3 717q0 48 -15 85t-43 62t-66 38t-85 13 q-37 0 -75 -9t-72 -26t-63 -41.5t-50 -55.5q-3 -5 -11 -18t-8 -17l2 -748h-195z" />
<glyph unicode="&#x126;" horiz-adv-x="1301" d="M121 0v1451h195v-616h670v616h194v-1451h-194v667h-670v-667h-195zM257 1475v170h746v-170h-746z" />
<glyph unicode="&#x127;" horiz-adv-x="1121" d="M-158 1511v170h746v-170h-746zM122 1451h194l1 -504q23 30 58.5 55t76.5 43t85.5 28t86.5 10h12q82 -3 149 -28.5t114.5 -72t73.5 -113t26 -152.5q0 -180 -1 -358.5t-1 -358.5h-195l3 717q0 48 -15 85t-43 62t-66 38t-85 13q-37 0 -75 -9t-72 -26t-63 -41.5t-50 -55.5 q-3 -5 -11 -18t-8 -17l2 -748h-195z" />
<glyph unicode="&#x128;" horiz-adv-x="436" d="M-174 1665q14 49 37 90t56 71t76 46.5t97 16.5q47 0 87.5 -16.5t74.5 -36.5t61.5 -36.5t48.5 -16.5q18 0 32 12.5t24 30t17 37t11 34.5l163 -49q-15 -49 -36 -91.5t-51.5 -74t-72 -49.5t-97.5 -18q-46 0 -87 17t-75 37t-61 37t-46 17q-21 0 -37 -10t-27.5 -25t-19 -34 t-12.5 -37zM121 0v1451h195v-1451h-195z" />
<glyph unicode="&#x129;" horiz-adv-x="404" d="M-187 1239q14 50 36.5 91.5t55.5 71t76 45.5t98 16q51 0 91 -16.5t73 -37t59.5 -37t48.5 -16.5q18 0 32 12.5t24 30t17 37t11 34.5l163 -48q-15 -49 -36 -91.5t-51.5 -74t-72 -50t-97.5 -18.5q-49 0 -90.5 17t-74.5 37t-59 37t-45 17q-22 0 -38 -10t-27.5 -25t-18.5 -34 t-12 -37zM101 4v1055h198v-1055h-198z" />
<glyph unicode="&#x12a;" horiz-adv-x="436" d="M-155 1664v170h746v-170h-746zM121 0v1451h195v-1451h-195z" />
<glyph unicode="&#x12b;" horiz-adv-x="404" d="M-99 1175v170h604v-170h-604zM101 4v1055h198v-1055h-198z" />
<glyph unicode="&#x12e;" horiz-adv-x="436" d="M-34 -320q0 41 15.5 80t39.5 74.5t53 68t56 59.5h283q-15 -12 -39.5 -32.5t-52 -45t-56 -52t-51 -54.5t-37 -51.5t-14.5 -43.5q0 -15 12 -23.5t28 -13t33.5 -6t27.5 -1.5q28 0 55 3t53 6v-173q-26 -2 -53.5 -4t-54.5 -2q-48 0 -100.5 11.5t-96.5 36.5t-72.5 65t-28.5 98z M121 0v1451h195v-1451h-195z" />
<glyph unicode="&#x12f;" horiz-adv-x="491" d="M-17 -303q0 41 15.5 80t39.5 74.5t53 68t56 59.5h283q-15 -12 -39.5 -32.5t-52 -45t-56 -52t-51 -54.5t-37 -51.5t-14.5 -43.5q0 -15 12 -23.5t28 -13t33.5 -6t27.5 -1.5q28 0 55 3t53 6v-173q-26 -2 -53.5 -4t-54.5 -2q-48 0 -100.5 11.5t-96.5 36.5t-72.5 65t-28.5 98z M119 1286q0 15 6.5 34.5t21 37t38.5 29.5t59 12q37 0 61.5 -12t39 -29.5t20.5 -37t6 -34.5t-6.5 -34.5t-21 -36.5t-39 -29t-60.5 -12q-35 0 -59 12t-38.5 29t-21 36.5t-6.5 34.5zM148 1058h195l3 -1058h-195z" />
<glyph unicode="&#x130;" horiz-adv-x="436" d="M65 1755q0 21 7.5 45t25.5 45t47.5 35t73.5 14t73.5 -14t47 -35t25 -45t7.5 -45t-7.5 -45t-25 -45t-47 -35t-73.5 -14t-73.5 14t-47.5 35t-25.5 45t-7.5 45zM121 0v1451h195v-1451h-195z" />
<glyph unicode="&#x131;" horiz-adv-x="404" d="M101 4v1055h198v-1055h-198z" />
<glyph unicode="&#x132;" horiz-adv-x="1611" d="M121 0v1451h195v-1451h-195zM559 440l193 8q0 -60 19 -113t54.5 -92.5t86 -62.5t113.5 -23t113 23t85 62t53.5 92t18.5 113v1005h196v-1005q0 -101 -35.5 -185.5t-98 -145t-147.5 -94.5t-185 -34q-104 0 -188 33.5t-144.5 93.5t-95 143t-38.5 182z" />
<glyph unicode="&#x133;" horiz-adv-x="974" d="M119 1286q0 15 6.5 34.5t21 37t38.5 29.5t59 12q37 0 61.5 -12t39 -29.5t20.5 -37t6 -34.5t-6.5 -34.5t-21 -36.5t-39 -29t-60.5 -12q-35 0 -59 12t-38.5 29t-21 36.5t-6.5 34.5zM148 1058h195l3 -1058h-195zM392 -202q49 0 92.5 -1t76.5 10t52.5 41.5t21.5 92.5 q3 7 3 19l-3 1098h195l2 -1098q0 -76 -16 -129.5t-45 -90.5t-69 -59t-89 -33.5t-105 -15t-116 -3.5v169zM605 1301q0 27 10.5 49.5t27.5 38t39.5 24t46.5 8.5q25 0 47.5 -8t40 -23.5t28 -38t10.5 -50.5q0 -27 -10.5 -49t-28 -37.5t-40.5 -24t-47 -8.5t-46.5 8.5t-39.5 24 t-27.5 37.5t-10.5 49z" />
<glyph unicode="&#x134;" horiz-adv-x="1175" d="M123 440l193 8q0 -60 19 -113t54.5 -92.5t86 -62.5t113.5 -23t113 23t85 62t53.5 92t18.5 113v1005h196v-1005q0 -101 -35.5 -185.5t-98 -145t-147.5 -94.5t-185 -34q-104 0 -188 33.5t-144.5 93.5t-95 143t-38.5 182zM233 1606l289 372h133l288 -372h-195l-158 168 l-153 -168h-204z" />
<glyph unicode="&#x135;" horiz-adv-x="436" d="M-157 1111l289 372h132l289 -372h-194l-158 167l-154 -167h-204zM-127 -202h60q34 0 61 2t48 8q38 10 57 42q11 22 15 50t4 60l-2 1098h195l2 -1098q0 -61 -15 -120t-53 -105.5t-104 -75.5t-167 -30h-53h-48v169z" />
<glyph unicode="&#x136;" horiz-adv-x="1250" d="M121 1451h195l1 -702l575 702h240l-506 -617l581 -834h-229l-471 677l-190 -221l2 -456h-195zM486 -441l104 339h266l-205 -339h-165z" />
<glyph unicode="&#x137;" horiz-adv-x="1117" d="M122 1451h194l1 -864l439 470h251l-437 -468l466 -589h-237l-354 445l-127 -127v-318h-194zM329 -444l104 339h266l-205 -339h-165z" />
<glyph unicode="&#x138;" horiz-adv-x="1117" d="M122 1451h194l1 -864l439 470h251l-437 -468l466 -589h-237l-354 445l-127 -127v-318h-194z" />
<glyph unicode="&#x139;" horiz-adv-x="1118" d="M121 -1v1452h195v-1283h749v-169h-944zM326 1615l194 362h272l-282 -362h-184z" />
<glyph unicode="&#x13a;" horiz-adv-x="441" d="M64 1586l194 362h249l-282 -362h-161zM122 1451h194l3 -1451h-195z" />
<glyph unicode="&#x13b;" horiz-adv-x="1118" d="M121 -1v1452h195v-1283h749v-169h-944zM447 -441l104 339h266l-205 -339h-165z" />
<glyph unicode="&#x13c;" horiz-adv-x="441" d="M38 -441l104 339h266l-205 -339h-165zM122 1451h194l3 -1451h-195z" />
<glyph unicode="&#x13d;" horiz-adv-x="1118" d="M121 -1v1452h195v-1283h749v-169h-944z" />
<glyph unicode="&#x13e;" horiz-adv-x="1297" d="M122 1451h194l3 -1451h-195z" />
<glyph unicode="&#x13f;" horiz-adv-x="1118" d="M121 -1v1452h195v-1283h749v-169h-944zM413 1137q0 22 7.5 48t24.5 48t45 36.5t69 14.5q42 0 70 -14.5t45 -36.5t24.5 -48t7.5 -48t-7.5 -47.5t-24.5 -47.5t-45 -36.5t-70 -14.5q-41 0 -69 14.5t-45 36.5t-24.5 47.5t-7.5 47.5z" />
<glyph unicode="&#x140;" horiz-adv-x="1085" d="M122 1451h194l3 -1451h-195zM680 727q0 22 7.5 48t24.5 48t45 36.5t69 14.5q42 0 70 -14.5t45 -36.5t24.5 -48t7.5 -48t-7.5 -47.5t-24.5 -47.5t-45 -36.5t-70 -14.5q-41 0 -69 14.5t-45 36.5t-24.5 47.5t-7.5 47.5z" />
<glyph unicode="&#x141;" horiz-adv-x="1118" d="M121 -1v1452h195v-1283h749v-169h-944zM167 483v170h784v-170h-784z" />
<glyph unicode="&#x142;" horiz-adv-x="441" d="M-171 483v170h784v-170h-784zM122 1451h194l3 -1451h-195z" />
<glyph unicode="&#x143;" horiz-adv-x="1426" d="M121 0v1451h175l813 -1109v1109h196v-1451h-165l-824 1107v-1107h-195zM480 1615l194 362h272l-282 -362h-184z" />
<glyph unicode="&#x144;" horiz-adv-x="1120" d="M122 1057h194v-114q27 33 64.5 58.5t80.5 43t89 27t88 9.5q83 0 149.5 -27t113.5 -76t72.5 -115.5t25.5 -146.5l-2 -716h-195l3 716q0 91 -53 144t-156 53q-36 0 -80.5 -12t-85 -33.5t-71.5 -52t-41 -66.5l1 -749h-195zM434 1227l194 362h249l-282 -362h-161z" />
<glyph unicode="&#x145;" horiz-adv-x="1426" d="M121 0v1451h175l813 -1109v1109h196v-1451h-165l-824 1107v-1107h-195zM554 -441l104 339h266l-205 -339h-165z" />
<glyph unicode="&#x146;" horiz-adv-x="1120" d="M122 1057h194v-114q27 33 64.5 58.5t80.5 43t89 27t88 9.5q83 0 149.5 -27t113.5 -76t72.5 -115.5t25.5 -146.5l-2 -716h-195l3 716q0 91 -53 144t-156 53q-36 0 -80.5 -12t-85 -33.5t-71.5 -52t-41 -66.5l1 -749h-195zM390 -441l104 339h266l-205 -339h-165z" />
<glyph unicode="&#x147;" horiz-adv-x="1426" d="M121 0v1451h175l813 -1109v1109h196v-1451h-165l-824 1107v-1107h-195zM445 1965l151 -52l114 -135l90 187h198l-224 -356l-87 36z" />
<glyph unicode="&#x148;" horiz-adv-x="1120" d="M122 1057h194v-114q27 33 64.5 58.5t80.5 43t89 27t88 9.5q83 0 149.5 -27t113.5 -76t72.5 -115.5t25.5 -146.5l-2 -716h-195l3 716q0 91 -53 144t-156 53q-36 0 -80.5 -12t-85 -33.5t-71.5 -52t-41 -66.5l1 -749h-195zM223 1617h207l157 -169l163 169h196l-294 -373 l-132 1z" />
<glyph unicode="&#x149;" horiz-adv-x="1120" d="M122 1057h194v-114q27 33 64.5 58.5t80.5 43t89 27t88 9.5q83 0 149.5 -27t113.5 -76t72.5 -115.5t25.5 -146.5l-2 -716h-195l3 716q0 91 -53 144t-156 53q-36 0 -80.5 -12t-85 -33.5t-71.5 -52t-41 -66.5l1 -749h-195zM396 1054l66 462h243l-173 -461z" />
<glyph unicode="&#x14c;" horiz-adv-x="1596" d="M122 721q0 156 45 290.5t132 233.5t213.5 155.5t289.5 56.5q162 0 288.5 -57t213.5 -156t132.5 -233.5t45.5 -289.5t-45.5 -289.5t-132.5 -234t-213.5 -156.5t-288.5 -57t-288.5 57t-213.5 156.5t-132.5 234t-45.5 289.5zM316 721q0 -114 29.5 -216.5t89.5 -180.5 t151.5 -124t215.5 -46q123 0 214 46.5t151.5 124.5t90 180.5t29.5 215.5t-29.5 215.5t-89.5 180.5t-151.5 124t-214.5 46q-124 0 -215.5 -46t-151.5 -124t-89.5 -180.5t-29.5 -215.5zM425 1664v170h746v-170h-746z" />
<glyph unicode="&#x14d;" horiz-adv-x="1258" d="M122 533q0 117 35 217t100.5 173t160 114t212.5 41t212 -41.5t160 -114t101 -172.5t35 -217t-35 -217t-100.5 -173t-159.5 -114.5t-213 -41.5t-213.5 41t-160 114t-100 173t-34.5 218zM254 1157v170h746v-170h-746zM316 533q0 -76 19 -144t58 -120t98 -82.5t139 -30.5 t138.5 30.5t97 82.5t57.5 120t19 144q0 75 -19 143t-57.5 120t-97 82.5t-138.5 30.5t-139 -30.5t-98 -82t-58 -120t-19 -143.5z" />
<glyph unicode="&#x14e;" horiz-adv-x="1596" d="M122 721q0 156 45 290.5t132 233.5t213.5 155.5t289.5 56.5q162 0 288.5 -57t213.5 -156t132.5 -233.5t45.5 -289.5t-45.5 -289.5t-132.5 -234t-213.5 -156.5t-288.5 -57t-288.5 57t-213.5 156.5t-132.5 234t-45.5 289.5zM316 721q0 -114 29.5 -216.5t89.5 -180.5 t151.5 -124t215.5 -46q123 0 214 46.5t151.5 124.5t90 180.5t29.5 215.5t-29.5 215.5t-89.5 180.5t-151.5 124t-214.5 46q-124 0 -215.5 -46t-151.5 -124t-89.5 -180.5t-29.5 -215.5zM452 1933h198q0 -64 40 -98t109 -34t108.5 34.5t39.5 97.5h198q0 -57 -21.5 -111 t-64.5 -97t-108 -69t-152 -26t-152 26t-108.5 68.5t-65 97t-21.5 111.5z" />
<glyph unicode="&#x14f;" horiz-adv-x="1258" d="M122 533q0 117 35 217t100.5 173t160 114t212.5 41t212 -41.5t160 -114t101 -172.5t35 -217t-35 -217t-100.5 -173t-159.5 -114.5t-213 -41.5t-213.5 41t-160 114t-100 173t-34.5 218zM282 1546h198q0 -64 40 -98.5t109 -34.5t108.5 34.5t39.5 98.5h198q0 -57 -21 -111.5 t-64.5 -97.5t-108.5 -69t-152 -26t-152 26t-108.5 68.5t-65 97.5t-21.5 112zM316 533q0 -76 19 -144t58 -120t98 -82.5t139 -30.5t138.5 30.5t97 82.5t57.5 120t19 144q0 75 -19 143t-57.5 120t-97 82.5t-138.5 30.5t-139 -30.5t-98 -82t-58 -120t-19 -143.5z" />
<glyph unicode="&#x150;" horiz-adv-x="1596" d="M122 721q0 156 45 290.5t132 233.5t213.5 155.5t289.5 56.5q162 0 288.5 -57t213.5 -156t132.5 -233.5t45.5 -289.5t-45.5 -289.5t-132.5 -234t-213.5 -156.5t-288.5 -57t-288.5 57t-213.5 156.5t-132.5 234t-45.5 289.5zM316 721q0 -114 29.5 -216.5t89.5 -180.5 t151.5 -124t215.5 -46q123 0 214 46.5t151.5 124.5t90 180.5t29.5 215.5t-29.5 215.5t-89.5 180.5t-151.5 124t-214.5 46q-124 0 -215.5 -46t-151.5 -124t-89.5 -180.5t-29.5 -215.5zM379 1640l191 387h259l-283 -387h-167zM728 1640l218 387h271l-312 -387h-177z" />
<glyph unicode="&#x151;" horiz-adv-x="1258" d="M122 533q0 117 35 217t100.5 173t160 114t212.5 41t212 -41.5t160 -114t101 -172.5t35 -217t-35 -217t-100.5 -173t-159.5 -114.5t-213 -41.5t-213.5 41t-160 114t-100 173t-34.5 218zM189 1258l186 378h308l-303 -378h-191zM316 533q0 -76 19 -144t58 -120t98 -82.5 t139 -30.5t138.5 30.5t97 82.5t57.5 120t19 144q0 75 -19 143t-57.5 120t-97 82.5t-138.5 30.5t-139 -30.5t-98 -82t-58 -120t-19 -143.5zM574 1258l186 378h308l-303 -378h-191z" />
<glyph unicode="&#x152;" horiz-adv-x="2040" d="M119 719q0 155 45 289t132 232.5t213 155t288 56.5q33 0 66.5 -3t66.5 -10v13l1003 -1v-169l-807 1v-448h717v-168h-717v-499h807v-169h-988q-12 0 -23.5 -1.5t-23.5 -3.5q-26 -4 -50.5 -5.5t-50.5 -1.5q-162 0 -288 56.5t-212.5 155t-132 232.5t-45.5 288zM314 719 q0 -112 29.5 -214.5t89 -179.5t150.5 -123t214 -46q33 0 67 4t66 12v1094q-66 17 -133 17q-123 0 -214 -45.5t-151 -123t-89 -180t-29 -215.5z" />
<glyph unicode="&#x153;" horiz-adv-x="2076" d="M119 533q0 116 34 215.5t99 172.5t159.5 115t215.5 42q134 0 242.5 -55.5t177.5 -167.5q69 112 178 167.5t243 55.5q119 0 213 -41t159 -113t100 -169.5t36 -210.5v-51l-820 3q4 -69 25 -131t59.5 -108.5t95.5 -73.5t132 -27q63 0 110.5 17.5t83 49.5t61 77t45.5 99 l182 -63q-4 -11 -7.5 -21.5t-8.5 -20.5q-30 -74 -76.5 -131t-106.5 -96t-131.5 -59.5t-151.5 -20.5q-134 0 -243 55.5t-178 167.5q-69 -112 -177.5 -167.5t-242.5 -55.5q-121 0 -215.5 42t-159.5 115.5t-99 173.5t-34 215zM314 533q0 -73 18.5 -141.5t56.5 -120.5t97 -83.5 t141 -31.5q81 0 140.5 31.5t97.5 83.5t56.5 120.5t18.5 141.5t-18.5 141t-56.5 120t-97.5 83.5t-140.5 31.5q-82 0 -141 -31t-97 -83.5t-56.5 -120t-18.5 -141.5zM1171 666l595 -2q-13 56 -39.5 101t-64.5 77t-87 49.5t-107 17.5q-59 0 -107.5 -17.5t-86 -49t-63.5 -76.5 t-40 -100z" />
<glyph unicode="&#x154;" horiz-adv-x="1318" d="M122 0v1460q127 -4 252.5 -4h252.5q27 0 55 -0.5t55 -1.5q96 -5 179.5 -35t145.5 -84t98 -132t36 -180q0 -104 -45 -195t-132 -150q85 -59 131 -149t46 -193v-336h-194v329q0 59 -20 108t-55.5 84t-84.5 54.5t-108 19.5q-105 0 -208.5 -0.5t-208.5 -0.5v-594h-195z M317 762q105 1 209 1h209q57 0 106 18.5t85 52.5t56 82t20 106q0 63 -20 110t-55.5 79.5t-85 51t-108.5 23.5q-42 3 -82.5 2.5t-82.5 -0.5q-63 0 -125.5 0.5t-125.5 0.5v-527zM427 1615l194 362h272l-282 -362h-184z" />
<glyph unicode="&#x155;" horiz-adv-x="703" d="M122 1058h194v-124q28 43 64.5 68t78.5 37.5t87.5 15.5t91.5 3v-178q-16 2 -32.5 3.5t-34.5 1.5q-43 0 -87.5 -8.5t-81 -28.5t-60 -53t-25.5 -81l2 -714h-195zM221 1213l194 362h249l-282 -362h-161z" />
<glyph unicode="&#x156;" horiz-adv-x="1318" d="M122 0v1460q127 -4 252.5 -4h252.5q27 0 55 -0.5t55 -1.5q96 -5 179.5 -35t145.5 -84t98 -132t36 -180q0 -104 -45 -195t-132 -150q85 -59 131 -149t46 -193v-336h-194v329q0 59 -20 108t-55.5 84t-84.5 54.5t-108 19.5q-105 0 -208.5 -0.5t-208.5 -0.5v-594h-195z M317 762q105 1 209 1h209q57 0 106 18.5t85 52.5t56 82t20 106q0 63 -20 110t-55.5 79.5t-85 51t-108.5 23.5q-42 3 -82.5 2.5t-82.5 -0.5q-63 0 -125.5 0.5t-125.5 0.5v-527zM461 -441l104 339h266l-205 -339h-165z" />
<glyph unicode="&#x157;" horiz-adv-x="703" d="M69 -441l104 339h266l-205 -339h-165zM122 1058h194v-124q28 43 64.5 68t78.5 37.5t87.5 15.5t91.5 3v-178q-16 2 -32.5 3.5t-34.5 1.5q-43 0 -87.5 -8.5t-81 -28.5t-60 -53t-25.5 -81l2 -714h-195z" />
<glyph unicode="&#x158;" horiz-adv-x="1318" d="M122 0v1460q127 -4 252.5 -4h252.5q27 0 55 -0.5t55 -1.5q96 -5 179.5 -35t145.5 -84t98 -132t36 -180q0 -104 -45 -195t-132 -150q85 -59 131 -149t46 -193v-336h-194v329q0 59 -20 108t-55.5 84t-84.5 54.5t-108 19.5q-105 0 -208.5 -0.5t-208.5 -0.5v-594h-195z M317 762q105 1 209 1h209q57 0 106 18.5t85 52.5t56 82t20 106q0 63 -20 110t-55.5 79.5t-85 51t-108.5 23.5q-42 3 -82.5 2.5t-82.5 -0.5q-63 0 -125.5 0.5t-125.5 0.5v-527zM391 1965l151 -52l114 -135l90 187h198l-224 -356l-87 36z" />
<glyph unicode="&#x159;" horiz-adv-x="703" d="M9 1603h207l157 -169l163 169h196l-294 -373l-132 1zM122 1058h194v-124q28 43 64.5 68t78.5 37.5t87.5 15.5t91.5 3v-178q-16 2 -32.5 3.5t-34.5 1.5q-43 0 -87.5 -8.5t-81 -28.5t-60 -53t-25.5 -81l2 -714h-195z" />
<glyph unicode="&#x15a;" horiz-adv-x="1336" d="M122 446l195 3q0 -73 9.5 -128t37 -92t77 -56t129.5 -19q57 0 113.5 -0.5t113.5 -0.5q54 0 96 23.5t70.5 61.5t43 86t14.5 97q0 77 -25 125t-67 76t-96 40.5t-113 19t-118 11t-110 15.5q-70 16 -128 46t-100 75t-65.5 104.5t-23.5 134.5q0 87 30 156.5t83 119.5t125 79.5 t155 36.5q23 2 44.5 2h44.5q227 0 342 -110t129 -326h-192q0 67 -15.5 117.5t-49 84t-86.5 50.5t-128 17q-56 0 -108 -10.5t-92 -36t-64 -69t-24 -108.5q0 -64 25.5 -105t67.5 -64.5t96 -34.5t110 -16.5t110 -9t96 -12.5q80 -18 143.5 -52.5t107.5 -86t67.5 -119.5 t23.5 -151q0 -92 -30.5 -171.5t-85.5 -138.5t-132.5 -92.5t-170.5 -33.5q-57 0 -113.5 0.5t-113.5 0.5q-118 0 -203 28.5t-139.5 86t-80 144t-25.5 202.5zM436 1615l194 362h272l-282 -362h-184z" />
<glyph unicode="&#x15b;" horiz-adv-x="1114" d="M119.5 314q0.5 9 0.5 17l194 -4q0 -49 7 -82t25.5 -53t50.5 -28t81 -8q45 0 88.5 -0.5t88.5 -0.5q32 0 58 12t45 32.5t29 48.5t10 59q0 46 -20 74t-52.5 44.5t-73.5 23.5t-83.5 10.5t-82 5t-68.5 7.5q-58 11 -109 35t-88.5 61t-59.5 87.5t-22 114.5q0 87 35 147.5 t91.5 98.5t128.5 55.5t146 17.5q89 0 160.5 -20.5t124 -64t83.5 -111t37 -160.5l-195 -1q0 54 -14.5 90t-41.5 57t-65.5 30t-88.5 9q-37 0 -73.5 -6t-66 -22t-47.5 -45t-18 -75q0 -43 20.5 -70.5t53.5 -43t74.5 -23t84 -11t81 -5t66.5 -7.5q59 -12 110 -36.5t88 -62 t58 -88.5t21 -116q0 -73 -26.5 -133t-72 -102t-107 -65t-131.5 -23q-26 0 -51.5 -0.5t-51.5 -0.5q-88 0 -166 9.5t-136.5 42t-93 94.5t-35.5 168q-1 8 -0.5 17zM392 1213l194 362h249l-282 -362h-161z" />
<glyph unicode="&#x15c;" horiz-adv-x="1336" d="M122 446l195 3q0 -73 9.5 -128t37 -92t77 -56t129.5 -19q57 0 113.5 -0.5t113.5 -0.5q54 0 96 23.5t70.5 61.5t43 86t14.5 97q0 77 -25 125t-67 76t-96 40.5t-113 19t-118 11t-110 15.5q-70 16 -128 46t-100 75t-65.5 104.5t-23.5 134.5q0 87 30 156.5t83 119.5t125 79.5 t155 36.5q23 2 44.5 2h44.5q227 0 342 -110t129 -326h-192q0 67 -15.5 117.5t-49 84t-86.5 50.5t-128 17q-56 0 -108 -10.5t-92 -36t-64 -69t-24 -108.5q0 -64 25.5 -105t67.5 -64.5t96 -34.5t110 -16.5t110 -9t96 -12.5q80 -18 143.5 -52.5t107.5 -86t67.5 -119.5 t23.5 -151q0 -92 -30.5 -171.5t-85.5 -138.5t-132.5 -92.5t-170.5 -33.5q-57 0 -113.5 0.5t-113.5 0.5q-118 0 -203 28.5t-139.5 86t-80 144t-25.5 202.5zM313 1606l289 372h133l288 -372h-195l-158 168l-153 -168h-204z" />
<glyph unicode="&#x15d;" horiz-adv-x="1114" d="M119.5 314q0.5 9 0.5 17l194 -4q0 -49 7 -82t25.5 -53t50.5 -28t81 -8q45 0 88.5 -0.5t88.5 -0.5q32 0 58 12t45 32.5t29 48.5t10 59q0 46 -20 74t-52.5 44.5t-73.5 23.5t-83.5 10.5t-82 5t-68.5 7.5q-58 11 -109 35t-88.5 61t-59.5 87.5t-22 114.5q0 87 35 147.5 t91.5 98.5t128.5 55.5t146 17.5q89 0 160.5 -20.5t124 -64t83.5 -111t37 -160.5l-195 -1q0 54 -14.5 90t-41.5 57t-65.5 30t-88.5 9q-37 0 -73.5 -6t-66 -22t-47.5 -45t-18 -75q0 -43 20.5 -70.5t53.5 -43t74.5 -23t84 -11t81 -5t66.5 -7.5q59 -12 110 -36.5t88 -62 t58 -88.5t21 -116q0 -73 -26.5 -133t-72 -102t-107 -65t-131.5 -23q-26 0 -51.5 -0.5t-51.5 -0.5q-88 0 -166 9.5t-136.5 42t-93 94.5t-35.5 168q-1 8 -0.5 17zM175 1214l289 372h132l289 -372h-194l-158 167l-154 -167h-204z" />
<glyph unicode="&#x15e;" horiz-adv-x="1336" d="M122 446l195 3q0 -73 9.5 -128t37 -92t77 -56t129.5 -19q57 0 113.5 -0.5t113.5 -0.5q54 0 96 23.5t70.5 61.5t43 86t14.5 97q0 77 -25 125t-67 76t-96 40.5t-113 19t-118 11t-110 15.5q-70 16 -128 46t-100 75t-65.5 104.5t-23.5 134.5q0 87 30 156.5t83 119.5t125 79.5 t155 36.5q23 2 44.5 2h44.5q227 0 342 -110t129 -326h-192q0 67 -15.5 117.5t-49 84t-86.5 50.5t-128 17q-56 0 -108 -10.5t-92 -36t-64 -69t-24 -108.5q0 -64 25.5 -105t67.5 -64.5t96 -34.5t110 -16.5t110 -9t96 -12.5q80 -18 143.5 -52.5t107.5 -86t67.5 -119.5 t23.5 -151q0 -92 -30.5 -171.5t-85.5 -138.5t-132.5 -92.5t-170.5 -33.5q-57 0 -113.5 0.5t-113.5 0.5q-118 0 -203 28.5t-139.5 86t-80 144t-25.5 202.5zM373 -492l110 124q20 -27 58.5 -42t81.5 -8q17 2 28 10t13 27q3 22 -4 36.5t-20 23.5t-29.5 12.5t-33.5 3.5 q-25 0 -62 -1.5t-75 -11.5v89q0 5 8.5 19.5t21 33.5t28 40.5t30 41t26 34.5t16.5 22h234l-112 -145q72 -20 117 -68.5t45 -126.5q0 -50 -20.5 -88t-54 -64t-77 -39t-88.5 -13q-68 0 -127.5 26t-113.5 64z" />
<glyph unicode="&#x15f;" horiz-adv-x="1114" d="M119.5 314q0.5 9 0.5 17l194 -4q0 -49 7 -82t25.5 -53t50.5 -28t81 -8q45 0 88.5 -0.5t88.5 -0.5q32 0 58 12t45 32.5t29 48.5t10 59q0 46 -20 74t-52.5 44.5t-73.5 23.5t-83.5 10.5t-82 5t-68.5 7.5q-58 11 -109 35t-88.5 61t-59.5 87.5t-22 114.5q0 87 35 147.5 t91.5 98.5t128.5 55.5t146 17.5q89 0 160.5 -20.5t124 -64t83.5 -111t37 -160.5l-195 -1q0 54 -14.5 90t-41.5 57t-65.5 30t-88.5 9q-37 0 -73.5 -6t-66 -22t-47.5 -45t-18 -75q0 -43 20.5 -70.5t53.5 -43t74.5 -23t84 -11t81 -5t66.5 -7.5q59 -12 110 -36.5t88 -62 t58 -88.5t21 -116q0 -73 -26.5 -133t-72 -102t-107 -65t-131.5 -23q-26 0 -51.5 -0.5t-51.5 -0.5q-88 0 -166 9.5t-136.5 42t-93 94.5t-35.5 168q-1 8 -0.5 17zM271 -492l110 124q20 -27 58.5 -42t81.5 -8q17 2 28 10t13 27q3 22 -4 36.5t-20 23.5t-29.5 12.5t-33.5 3.5 q-25 0 -62 -1.5t-75 -11.5v89q0 5 8.5 19.5t21 33.5t28 40.5t30 41t26 34.5t16.5 22h234l-112 -145q72 -20 117 -68.5t45 -126.5q0 -50 -20.5 -88t-54 -64t-77 -39t-88.5 -13q-68 0 -127.5 26t-113.5 64z" />
<glyph unicode="&#x160;" horiz-adv-x="1336" d="M122 446l195 3q0 -73 9.5 -128t37 -92t77 -56t129.5 -19q57 0 113.5 -0.5t113.5 -0.5q54 0 96 23.5t70.5 61.5t43 86t14.5 97q0 77 -25 125t-67 76t-96 40.5t-113 19t-118 11t-110 15.5q-70 16 -128 46t-100 75t-65.5 104.5t-23.5 134.5q0 87 30 156.5t83 119.5t125 79.5 t155 36.5q23 2 44.5 2h44.5q227 0 342 -110t129 -326h-192q0 67 -15.5 117.5t-49 84t-86.5 50.5t-128 17q-56 0 -108 -10.5t-92 -36t-64 -69t-24 -108.5q0 -64 25.5 -105t67.5 -64.5t96 -34.5t110 -16.5t110 -9t96 -12.5q80 -18 143.5 -52.5t107.5 -86t67.5 -119.5 t23.5 -151q0 -92 -30.5 -171.5t-85.5 -138.5t-132.5 -92.5t-170.5 -33.5q-57 0 -113.5 0.5t-113.5 0.5q-118 0 -203 28.5t-139.5 86t-80 144t-25.5 202.5zM400 1965l151 -52l114 -135l90 187h198l-224 -356l-87 36z" />
<glyph unicode="&#x161;" horiz-adv-x="1114" d="M119.5 314q0.5 9 0.5 17l194 -4q0 -49 7 -82t25.5 -53t50.5 -28t81 -8q45 0 88.5 -0.5t88.5 -0.5q32 0 58 12t45 32.5t29 48.5t10 59q0 46 -20 74t-52.5 44.5t-73.5 23.5t-83.5 10.5t-82 5t-68.5 7.5q-58 11 -109 35t-88.5 61t-59.5 87.5t-22 114.5q0 87 35 147.5 t91.5 98.5t128.5 55.5t146 17.5q89 0 160.5 -20.5t124 -64t83.5 -111t37 -160.5l-195 -1q0 54 -14.5 90t-41.5 57t-65.5 30t-88.5 9q-37 0 -73.5 -6t-66 -22t-47.5 -45t-18 -75q0 -43 20.5 -70.5t53.5 -43t74.5 -23t84 -11t81 -5t66.5 -7.5q59 -12 110 -36.5t88 -62 t58 -88.5t21 -116q0 -73 -26.5 -133t-72 -102t-107 -65t-131.5 -23q-26 0 -51.5 -0.5t-51.5 -0.5q-88 0 -166 9.5t-136.5 42t-93 94.5t-35.5 168q-1 8 -0.5 17zM181 1603h207l157 -169l163 169h196l-294 -373l-132 1z" />
<glyph unicode="&#x162;" horiz-adv-x="1298" d="M50 1283v169h1196v-169h-503v-1283h-195v1283h-498zM482 -441l104 339h266l-205 -339h-165z" />
<glyph unicode="&#x163;" horiz-adv-x="665" d="M82 891v168h78l1 270h195l-1 -270h218v-168h-219l-1 -593q0 -45 9.5 -71.5t28.5 -40t47.5 -17.5t67.5 -4q23 1 46 1.5t47 1.5v-169h-125q-158 0 -236.5 78t-78.5 231v583h-77zM192 -441l104 339h266l-205 -339h-165z" />
<glyph unicode="&#x164;" horiz-adv-x="1298" d="M50 1283v169h1196v-169h-503v-1283h-195v1283h-498zM381 1965l151 -52l114 -135l90 187h198l-224 -356l-87 36z" />
<glyph unicode="&#x165;" horiz-adv-x="994" d="M34 891v168h77l1 270h195l-1 -270h218v-168h-219q0 -147 -0.5 -292.5t-0.5 -292.5v-8q0 -25 3.5 -49t14.5 -41q16 -27 55 -34.5t82 -7.5q26 0 49.5 1t41.5 1v-169h-125q-137 0 -217.5 60.5t-93.5 189.5q-2 13 -3 27.5t-1 29.5v585h-76zM605 982l68 469h244l-174 -468z " />
<glyph unicode="&#x166;" horiz-adv-x="1298" d="M50 1283v169h1196v-169h-503v-1283h-195v1283h-498zM274 1516v170h746v-170h-746z" />
<glyph unicode="&#x167;" horiz-adv-x="665" d="M-41 1513v170h746v-170h-746zM82 891v168h78l1 270h195l-1 -270h218v-168h-219l-1 -593q0 -45 9.5 -71.5t28.5 -40t47.5 -17.5t67.5 -4q23 1 46 1.5t47 1.5v-169h-125q-158 0 -236.5 78t-78.5 231v583h-77z" />
<glyph unicode="&#x168;" horiz-adv-x="1325" d="M121 519v932h195v-932q0 -77 24.5 -144t70 -116.5t109.5 -78t143 -28.5t143 28.5t109 78t69.5 116.5t24.5 144v932h195v-932q0 -119 -40.5 -217.5t-112.5 -169.5t-171 -110t-217 -39t-217.5 39t-171.5 110t-112.5 169.5t-40.5 217.5zM271 1665q14 49 37 90t56 71t76 46.5 t97 16.5q47 0 87.5 -16.5t74.5 -36.5t61.5 -36.5t48.5 -16.5q18 0 32 12.5t24 30t17 37t11 34.5l163 -49q-15 -49 -36 -91.5t-51.5 -74t-72 -49.5t-97.5 -18q-46 0 -87 17t-75 37t-61 37t-46 17q-21 0 -37 -10t-27.5 -25t-19 -34t-12.5 -37z" />
<glyph unicode="&#x169;" horiz-adv-x="1120" d="M121 347q0 181 0.5 357.5t0.5 357.5h197l-3 -715q0 -49 14.5 -85.5t42 -61.5t66.5 -37.5t86 -12.5q39 0 82 11.5t81 33t68.5 52t45.5 69.5l1 1l-2 745h195l2 -1056h-194v106q-54 -63 -130.5 -96.5t-158.5 -33.5q-83 0 -155 24.5t-125 71.5t-83.5 115t-30.5 154zM144 1228 q14 50 36.5 91.5t55.5 71t76 45.5t98 16q51 0 91 -16.5t73 -37t59.5 -37t48.5 -16.5q18 0 32 12.5t24 30t17 37t11 34.5l163 -48q-15 -49 -36 -91.5t-51.5 -74t-72 -50t-97.5 -18.5q-49 0 -90.5 17t-74.5 37t-59 37t-45 17q-22 0 -38 -10t-27.5 -25t-18.5 -34t-12 -37z" />
<glyph unicode="&#x16a;" horiz-adv-x="1325" d="M121 519v932h195v-932q0 -77 24.5 -144t70 -116.5t109.5 -78t143 -28.5t143 28.5t109 78t69.5 116.5t24.5 144v932h195v-932q0 -119 -40.5 -217.5t-112.5 -169.5t-171 -110t-217 -39t-217.5 39t-171.5 110t-112.5 169.5t-40.5 217.5zM290 1664v170h746v-170h-746z" />
<glyph unicode="&#x16b;" horiz-adv-x="1120" d="M121 347q0 181 0.5 357.5t0.5 357.5h197l-3 -715q0 -49 14.5 -85.5t42 -61.5t66.5 -37.5t86 -12.5q39 0 82 11.5t81 33t68.5 52t45.5 69.5l1 1l-2 745h195l2 -1056h-194v106q-54 -63 -130.5 -96.5t-158.5 -33.5q-83 0 -155 24.5t-125 71.5t-83.5 115t-30.5 154zM160 1164 v170h746v-170h-746z" />
<glyph unicode="&#x16c;" horiz-adv-x="1325" d="M121 519v932h195v-932q0 -77 24.5 -144t70 -116.5t109.5 -78t143 -28.5t143 28.5t109 78t69.5 116.5t24.5 144v932h195v-932q0 -119 -40.5 -217.5t-112.5 -169.5t-171 -110t-217 -39t-217.5 39t-171.5 110t-112.5 169.5t-40.5 217.5zM316 1933h198q0 -64 40 -98t109 -34 t108.5 34.5t39.5 97.5h198q0 -57 -21.5 -111t-64.5 -97t-108 -69t-152 -26t-152 26t-108.5 68.5t-65 97t-21.5 111.5z" />
<glyph unicode="&#x16d;" horiz-adv-x="1120" d="M121 347q0 181 0.5 357.5t0.5 357.5h197l-3 -715q0 -49 14.5 -85.5t42 -61.5t66.5 -37.5t86 -12.5q39 0 82 11.5t81 33t68.5 52t45.5 69.5l1 1l-2 745h195l2 -1056h-194v106q-54 -63 -130.5 -96.5t-158.5 -33.5q-83 0 -155 24.5t-125 71.5t-83.5 115t-30.5 154zM213 1546 h198q0 -64 40 -98.5t109 -34.5t108.5 34.5t39.5 98.5h198q0 -57 -21 -111.5t-64.5 -97.5t-108.5 -69t-152 -26t-152 26t-108.5 68.5t-65 97.5t-21.5 112z" />
<glyph unicode="&#x16e;" horiz-adv-x="1325" d="M121 519v932h195v-932q0 -77 24.5 -144t70 -116.5t109.5 -78t143 -28.5t143 28.5t109 78t69.5 116.5t24.5 144v932h195v-932q0 -119 -40.5 -217.5t-112.5 -169.5t-171 -110t-217 -39t-217.5 39t-171.5 110t-112.5 169.5t-40.5 217.5zM454 1850q0 46 15.5 84.5t43.5 66 t66 42.5t84 15t84.5 -15t66 -42.5t43 -66t15.5 -84.5t-15 -84.5t-43 -66.5t-66 -43.5t-85 -15.5q-46 0 -84.5 15.5t-66.5 43.5t-43 66.5t-15 84.5zM596 1850q0 -32 17.5 -50t49.5 -18t49.5 18t17.5 50q0 31 -18 48.5t-49 17.5t-49 -17.5t-18 -48.5z" />
<glyph unicode="&#x16f;" horiz-adv-x="1120" d="M121 347q0 181 0.5 357.5t0.5 357.5h197l-3 -715q0 -49 14.5 -85.5t42 -61.5t66.5 -37.5t86 -12.5q39 0 82 11.5t81 33t68.5 52t45.5 69.5l1 1l-2 745h195l2 -1056h-194v106q-54 -63 -130.5 -96.5t-158.5 -33.5q-83 0 -155 24.5t-125 71.5t-83.5 115t-30.5 154zM302 1448 q0 33 12 69.5t39 67t69.5 50.5t103.5 20t103.5 -20t69.5 -50.5t39 -67t12 -69.5t-12 -70t-38.5 -67.5t-69 -51t-104.5 -20.5t-104.5 20.5t-69 51t-38.5 67.5t-12 70zM447 1450q0 -36 20.5 -56.5t57.5 -20.5q38 0 58 20.5t20 56.5t-21 55.5t-57 19.5t-57 -19.5t-21 -55.5z " />
<glyph unicode="&#x170;" horiz-adv-x="1325" d="M121 519v932h195v-932q0 -77 24.5 -144t70 -116.5t109.5 -78t143 -28.5t143 28.5t109 78t69.5 116.5t24.5 144v932h195v-932q0 -119 -40.5 -217.5t-112.5 -169.5t-171 -110t-217 -39t-217.5 39t-171.5 110t-112.5 169.5t-40.5 217.5zM244 1640l191 387h259l-283 -387 h-167zM593 1640l218 387h271l-312 -387h-177z" />
<glyph unicode="&#x171;" horiz-adv-x="1120" d="M121 347q0 181 0.5 357.5t0.5 357.5h197l-3 -715q0 -49 14.5 -85.5t42 -61.5t66.5 -37.5t86 -12.5q39 0 82 11.5t81 33t68.5 52t45.5 69.5l1 1l-2 745h195l2 -1056h-194v106q-54 -63 -130.5 -96.5t-158.5 -33.5q-83 0 -155 24.5t-125 71.5t-83.5 115t-30.5 154zM121 1258 l186 378h308l-303 -378h-191zM506 1258l186 378h308l-303 -378h-191z" />
<glyph unicode="&#x172;" horiz-adv-x="1325" d="M121 519v932h195v-932q0 -77 24.5 -144t70 -116.5t109.5 -78t143 -28.5t143 28.5t109 78t69.5 116.5t24.5 144v932h195v-932q0 -119 -40.5 -217.5t-112.5 -169.5t-171 -110t-217 -39t-217.5 39t-171.5 110t-112.5 169.5t-40.5 217.5zM385 -320q0 41 15.5 80t39.5 74.5 t53 68t56 59.5h283q-15 -12 -39.5 -32.5t-52 -45t-56 -52t-51 -54.5t-37 -51.5t-14.5 -43.5q0 -15 12 -23.5t28 -13t33.5 -6t27.5 -1.5q28 0 55 3t53 6v-173q-26 -2 -53.5 -4t-54.5 -2q-48 0 -100.5 11.5t-96.5 36.5t-72.5 65t-28.5 98z" />
<glyph unicode="&#x173;" horiz-adv-x="1120" d="M121 347q0 181 0.5 357.5t0.5 357.5h197l-3 -715q0 -49 14.5 -85.5t42 -61.5t66.5 -37.5t86 -12.5q39 0 82 11.5t81 33t68.5 52t45.5 69.5l1 1l-2 745h195l2 -1056h-194v106q-54 -63 -130.5 -96.5t-158.5 -33.5q-83 0 -155 24.5t-125 71.5t-83.5 115t-30.5 154zM259 -320 q0 41 15.5 80t39.5 74.5t53 68t56 59.5h283q-15 -12 -39.5 -32.5t-52 -45t-56 -52t-51 -54.5t-37 -51.5t-14.5 -43.5q0 -15 12 -23.5t28 -13t33.5 -6t27.5 -1.5q28 0 55 3t53 6v-173q-26 -2 -53.5 -4t-54.5 -2q-48 0 -100.5 11.5t-96.5 36.5t-72.5 65t-28.5 98z" />
<glyph unicode="&#x174;" horiz-adv-x="2027" d="M82 1451h201l322 -1057l318 1058l180 -5l321 -1053l320 1057h202l-438 -1448h-168l-327 1074l-324 -1074h-168zM659 1606l289 372h133l288 -372h-195l-158 168l-153 -168h-204z" />
<glyph unicode="&#x175;" horiz-adv-x="1560" d="M27 1057h204l234 -683l231 680h179l234 -680l233 683h203l-359 -1055l-152 1l-248 720l-247 -720l-150 -1zM374 1214l289 372h132l289 -372h-194l-158 167l-154 -167h-204z" />
<glyph unicode="&#x176;" horiz-adv-x="1425" d="M81 1451h219l412 -708l412 708h220l-537 -922l3 -529h-196v536zM358 1606l289 372h133l288 -372h-195l-158 168l-153 -168h-204z" />
<glyph unicode="&#x177;" horiz-adv-x="1123" d="M16 1057h207l310 -775l355 775h211l-607 -1323q-29 -64 -86.5 -100.5t-127.5 -36.5q-48 0 -93 14t-90 27v178q14 -5 34.5 -14.5t43 -18.5t45 -16t40.5 -7q6 0 10.5 1t9.5 3q9 2 21.5 18.5t24.5 43.5q14 28 28.5 60.5t28 63t24.5 55.5t17 38zM158 1228l289 372h132 l289 -372h-194l-158 167l-154 -167h-204z" />
<glyph unicode="&#x178;" horiz-adv-x="1425" d="M81 1451h219l412 -708l412 708h220l-537 -922l3 -529h-196v536zM374 1743q0 20 7 42.5t22.5 42t42 32.5t65.5 13t65 -13t42 -32.5t22.5 -42.5t6.5 -42t-6.5 -42t-22.5 -43t-42 -33t-65 -13t-65.5 13t-42 32.5t-22.5 42.5t-7 43zM779 1743q0 20 7 42.5t22.5 42t41.5 32.5 t65 13t65.5 -13t42 -32.5t22 -42.5t6.5 -42t-6.5 -42t-22 -43t-42 -33t-65.5 -13t-65 13t-41.5 32.5t-22.5 42.5t-7 43z" />
<glyph unicode="&#x179;" horiz-adv-x="1443" d="M122 -1v169l941 1115h-941v169h1199v-169l-943 -1115h943v-169h-1199zM489 1615l194 362h272l-282 -362h-184z" />
<glyph unicode="&#x17a;" horiz-adv-x="1222" d="M136 170l697 718h-661v169h930v-131l-742 -758h742v-169h-965zM466 1213l194 362h249l-282 -362h-161z" />
<glyph unicode="&#x17b;" horiz-adv-x="1443" d="M122 -1v169l941 1115h-941v169h1199v-169l-943 -1115h943v-169h-1199zM568 1755q0 21 7.5 45t25.5 45t47.5 35t73.5 14t73.5 -14t47 -35t25 -45t7.5 -45t-7.5 -45t-25 -45t-47 -35t-73.5 -14t-73.5 14t-47.5 35t-25.5 45t-7.5 45z" />
<glyph unicode="&#x17c;" horiz-adv-x="1222" d="M136 170l697 718h-661v169h930v-131l-742 -758h742v-169h-965zM466 1408q0 21 7 45t24 45t45 35t70 14t69.5 -14t44.5 -35t24 -45t7 -45q0 -20 -7 -44.5t-24 -45.5t-44.5 -35t-69.5 -14t-70 14t-45 35t-24 45.5t-7 44.5z" />
<glyph unicode="&#x17d;" horiz-adv-x="1443" d="M122 -1v169l941 1115h-941v169h1199v-169l-943 -1115h943v-169h-1199zM453 1965l151 -52l114 -135l90 187h198l-224 -356l-87 36z" />
<glyph unicode="&#x17e;" horiz-adv-x="1222" d="M136 170l697 718h-661v169h930v-131l-742 -758h742v-169h-965zM255 1603h207l157 -169l163 169h196l-294 -373l-132 1z" />
<glyph unicode="&#x17f;" horiz-adv-x="668" />
<glyph unicode="&#x192;" horiz-adv-x="1363" d="M201 242v76h197q0 -12 -0.5 -25.5t-0.5 -25.5q0 -21 3.5 -40t13 -34t25.5 -24t40 -9q36 0 59 23t23 59v649h-109v170h109v58q0 170 92.5 253t258.5 83q62 0 121.5 -23t110.5 -58l-98 -149q-14 9 -31 19.5t-35 19.5t-36 14.5t-36 5.5q-49 0 -78.5 -12t-45.5 -34.5t-21 -56 t-5 -76.5v-44h271v-170h-271v-649q0 -59 -22.5 -106t-60.5 -79.5t-89 -49.5t-107 -17t-106.5 17.5t-88.5 50t-60.5 79t-22.5 105.5z" />
<glyph unicode="&#x218;" horiz-adv-x="1336" d="M122 446l195 3q0 -73 9.5 -128t37 -92t77 -56t129.5 -19q57 0 113.5 -0.5t113.5 -0.5q54 0 96 23.5t70.5 61.5t43 86t14.5 97q0 77 -25 125t-67 76t-96 40.5t-113 19t-118 11t-110 15.5q-70 16 -128 46t-100 75t-65.5 104.5t-23.5 134.5q0 87 30 156.5t83 119.5t125 79.5 t155 36.5q23 2 44.5 2h44.5q227 0 342 -110t129 -326h-192q0 67 -15.5 117.5t-49 84t-86.5 50.5t-128 17q-56 0 -108 -10.5t-92 -36t-64 -69t-24 -108.5q0 -64 25.5 -105t67.5 -64.5t96 -34.5t110 -16.5t110 -9t96 -12.5q80 -18 143.5 -52.5t107.5 -86t67.5 -119.5 t23.5 -151q0 -92 -30.5 -171.5t-85.5 -138.5t-132.5 -92.5t-170.5 -33.5q-57 0 -113.5 0.5t-113.5 0.5q-118 0 -203 28.5t-139.5 86t-80 144t-25.5 202.5zM452 -441l104 339h266l-205 -339h-165z" />
<glyph unicode="&#x219;" horiz-adv-x="1114" d="M119.5 314q0.5 9 0.5 17l194 -4q0 -49 7 -82t25.5 -53t50.5 -28t81 -8q45 0 88.5 -0.5t88.5 -0.5q32 0 58 12t45 32.5t29 48.5t10 59q0 46 -20 74t-52.5 44.5t-73.5 23.5t-83.5 10.5t-82 5t-68.5 7.5q-58 11 -109 35t-88.5 61t-59.5 87.5t-22 114.5q0 87 35 147.5 t91.5 98.5t128.5 55.5t146 17.5q89 0 160.5 -20.5t124 -64t83.5 -111t37 -160.5l-195 -1q0 54 -14.5 90t-41.5 57t-65.5 30t-88.5 9q-37 0 -73.5 -6t-66 -22t-47.5 -45t-18 -75q0 -43 20.5 -70.5t53.5 -43t74.5 -23t84 -11t81 -5t66.5 -7.5q59 -12 110 -36.5t88 -62 t58 -88.5t21 -116q0 -73 -26.5 -133t-72 -102t-107 -65t-131.5 -23q-26 0 -51.5 -0.5t-51.5 -0.5q-88 0 -166 9.5t-136.5 42t-93 94.5t-35.5 168q-1 8 -0.5 17zM350 -441l104 339h266l-205 -339h-165z" />
<glyph unicode="&#x21a;" horiz-adv-x="1298" d="M50 1283v169h1196v-169h-503v-1283h-195v1283h-498zM482 -441l104 339h266l-205 -339h-165z" />
<glyph unicode="&#x21b;" horiz-adv-x="665" d="M82 891v168h78l1 270h195l-1 -270h218v-168h-219l-1 -593q0 -45 9.5 -71.5t28.5 -40t47.5 -17.5t67.5 -4q23 1 46 1.5t47 1.5v-169h-125q-158 0 -236.5 78t-78.5 231v583h-77zM192 -441l104 339h266l-205 -339h-165z" />
<glyph unicode="&#x237;" horiz-adv-x="484" d="M-99 -202q49 0 92.5 -1t76.5 10t52.5 41.5t21.5 92.5q3 7 3 19l-3 1098h195l2 -1098q0 -76 -16 -129.5t-45 -90.5t-69 -59t-89 -33.5t-105 -15t-116 -3.5v169zM114 1301q0 27 10.5 49.5t27.5 38t39.5 24t46.5 8.5q25 0 47.5 -8t40 -23.5t28 -38t10.5 -50.5 q0 -27 -10.5 -49t-28 -37.5t-40.5 -24t-47 -8.5t-46.5 8.5t-39.5 24t-27.5 37.5t-10.5 49z" />
<glyph unicode="&#x2c6;" horiz-adv-x="759" d="M20 1237l289 372h132l289 -372h-194l-158 167l-154 -167h-204z" />
<glyph unicode="&#x2c7;" horiz-adv-x="804" d="M27 1619h207l157 -169l163 169h196l-294 -373l-132 1z" />
<glyph unicode="&#x2c9;" horiz-adv-x="859" d="M91 1221v161h737v-161h-737z" />
<glyph unicode="&#x2d8;" horiz-adv-x="848" d="M54 1546h198q0 -64 40 -98.5t109 -34.5t108.5 34.5t39.5 98.5h198q0 -57 -21 -111.5t-64.5 -97.5t-108.5 -69t-152 -26t-152 26t-108.5 68.5t-65 97.5t-21.5 112z" />
<glyph unicode="&#x2d9;" horiz-adv-x="471" d="M102 1408q0 21 7 45t24 45t45 35t70 14t69.5 -14t44.5 -35t24 -45t7 -45q0 -20 -7 -44.5t-24 -45.5t-44.5 -35t-69.5 -14t-70 14t-45 35t-24 45.5t-7 44.5z" />
<glyph unicode="&#x2da;" horiz-adv-x="535" d="M7 1468q0 33 12 69.5t39 67t69.5 50.5t103.5 20t103.5 -20t69.5 -50.5t39 -67t12 -69.5t-12 -70t-38.5 -67.5t-69 -51t-104.5 -20.5t-104.5 20.5t-69 51t-38.5 67.5t-12 70zM152 1470q0 -36 20.5 -56.5t57.5 -20.5q38 0 58 20.5t20 56.5t-21 55.5t-57 19.5t-57 -19.5 t-21 -55.5z" />
<glyph unicode="&#x2db;" horiz-adv-x="640" d="M124 -257q0 41 15.5 80t39.5 74.5t53 68t56 59.5h283q-15 -12 -39.5 -32.5t-52 -45t-56 -52t-51 -54.5t-37 -51.5t-14.5 -43.5q0 -15 12 -23.5t28 -13t33.5 -6t27.5 -1.5q28 0 55 3t53 6v-173q-26 -2 -53.5 -4t-54.5 -2q-48 0 -100.5 11.5t-96.5 36.5t-72.5 65t-28.5 98z " />
<glyph unicode="&#x2dc;" horiz-adv-x="866" d="M43 1248q14 50 36.5 91.5t55.5 71t76 45.5t98 16q51 0 91 -16.5t73 -37t59.5 -37t48.5 -16.5q18 0 32 12.5t24 30t17 37t11 34.5l163 -48q-15 -49 -36 -91.5t-51.5 -74t-72 -50t-97.5 -18.5q-49 0 -90.5 17t-74.5 37t-59 37t-45 17q-22 0 -38 -10t-27.5 -25t-18.5 -34 t-12 -37z" />
<glyph unicode="&#x2dd;" horiz-adv-x="1007" d="M49 1258l186 378h308l-303 -378h-191zM434 1258l186 378h308l-303 -378h-191z" />
<glyph unicode="&#x323;" horiz-adv-x="581" d="M137 -246q0 21 7 45t24 45t45 35t70 14t69.5 -14t44.5 -35t24 -45t7 -45q0 -20 -7 -44.5t-24 -45.5t-44.5 -35t-69.5 -14t-70 14t-45 35t-24 45.5t-7 44.5z" />
<glyph unicode="&#x326;" horiz-adv-x="715" d="M165 -378l104 339h266l-205 -339h-165z" />
<glyph unicode="&#x384;" horiz-adv-x="730" d="M181 1178l194 363h271l-281 -363h-184z" />
<glyph unicode="&#x386;" horiz-adv-x="1309" />
<glyph unicode="&#x387;" horiz-adv-x="549" />
<glyph unicode="&#x388;" horiz-adv-x="1313" />
<glyph unicode="&#x389;" horiz-adv-x="1692" />
<glyph unicode="&#x38a;" horiz-adv-x="950" />
<glyph unicode="&#x38c;" horiz-adv-x="1694" />
<glyph unicode="&#x38e;" horiz-adv-x="1477" />
<glyph unicode="&#x38f;" horiz-adv-x="814" d="M-156 1571l194 363h272l-282 -363h-184z" />
<glyph unicode="&#x390;" horiz-adv-x="709" />
<glyph unicode="&#x3a8;" horiz-adv-x="1647" />
<glyph unicode="&#x3a9;" horiz-adv-x="1669" d="M101 761q0 156 51.5 282.5t144.5 216t222 137.5t283 48q157 0 286.5 -46.5t222.5 -134t144 -214t51 -286.5q0 -181 -74.5 -338t-212.5 -274h287v-148h-578l21 132q84 60 154 126.5t119.5 144t77 168t27.5 197.5q0 116 -36 212.5t-102.5 165.5t-162 107.5t-214.5 38.5 t-217 -37t-168 -105t-108.5 -164.5t-38.5 -215.5q0 -103 27.5 -195t78 -172t120.5 -148t155 -123l20 -132h-579v147h287q-140 117 -214 272t-74 338z" />
<glyph unicode="&#x3aa;" horiz-adv-x="694" />
<glyph unicode="&#x3ab;" horiz-adv-x="1159" />
<glyph unicode="&#x3ac;" horiz-adv-x="1260" />
<glyph unicode="&#x3ad;" horiz-adv-x="989" />
<glyph unicode="&#x3ae;" horiz-adv-x="1266" />
<glyph unicode="&#x3af;" horiz-adv-x="709" />
<glyph unicode="&#x3b0;" horiz-adv-x="1255" />
<glyph unicode="&#x3bc;" horiz-adv-x="1082" d="M101 -445l3 1528h196l-2 -742q0 -3 1 -6.5t2 -6.5q3 -40 21.5 -70t47 -50t64 -30t72.5 -10q33 0 68 7.5t67.5 22t61 35.5t48.5 48q10 12 17.5 26t14.5 28h1l-2 748h195l3 -1059h-195v74q-61 -49 -121 -73.5t-139 -24.5q-25 0 -56.5 5t-62.5 15.5t-59.5 27t-48.5 39.5 l-1 -532h-196z" />
<glyph unicode="&#x3c0;" horiz-adv-x="1313" d="M58 774v168q65 47 133 63.5t146 16.5h814v-138h-215v-601q0 -19 2.5 -40.5t11 -39.5t23.5 -30t39 -12q26 0 58.5 11.5t57.5 19.5v-176q-29 -9 -57.5 -18t-60.5 -9q-68 0 -116.5 21.5t-80 59.5t-46 91t-14.5 116v607h-281v-592q0 -76 -8 -146.5t-28 -144.5h-184 q13 38 21.5 73.5t13 70.5t6 71t1.5 76v587q-34 -5 -64.5 -15.5t-59 -24.5t-56 -30.5t-56.5 -34.5z" />
<glyph unicode="&#x3c6;" horiz-adv-x="1485" />
<glyph unicode="&#x3c7;" horiz-adv-x="1128" d="M30 1056h235l301 -386l306 386h237l-425 -536l404 -520h-237l-286 369l-290 -368h-236l409 519z" />
<glyph unicode="&#x3c8;" horiz-adv-x="1559" />
<glyph unicode="&#x3c9;" horiz-adv-x="1602" />
<glyph unicode="&#x3ca;" horiz-adv-x="709" />
<glyph unicode="&#x3cb;" horiz-adv-x="1255" />
<glyph unicode="&#x3cc;" horiz-adv-x="1239" />
<glyph unicode="&#x3cd;" horiz-adv-x="1255" />
<glyph unicode="&#x3ce;" horiz-adv-x="1602" />
<glyph unicode="&#x1000;" horiz-adv-x="1912" d="M89 514q0 109 32.5 203t94 163t150.5 108t202 39q117 0 216 -46t167 -143q68 97 168.5 143t216.5 46q113 0 203 -39t153 -108t97 -163t34 -203q0 -103 -29.5 -193t-85 -158t-136.5 -110t-184 -50q-22 -3 -45 -3q-43 0 -84.5 7t-82.5 16l38 158q32 -7 63.5 -13t65.5 -6 q76 0 131 29.5t91 78t53 112t17 132.5t-18.5 132.5t-55.5 112t-93 77.5t-132 29q-65 0 -118 -25t-90.5 -67.5t-58 -98t-21.5 -116.5q0 -6 -0.5 -12.5t-0.5 -13.5q0 -89 -15.5 -167t-50.5 -144t-92.5 -119t-140.5 -94l-74 152q100 56 144 147t44 202q0 67 -18 131t-54.5 114 t-91.5 80.5t-130 30.5q-76 0 -131 -29t-91 -78t-53 -112.5t-17 -131.5q0 -54 9 -106.5t30.5 -98.5t56.5 -84t87 -64l-68 -155q-80 38 -137 89.5t-94 115.5t-54 140t-17 163z" />
<glyph unicode="&#x1001;" horiz-adv-x="1117" d="M89 672q25 82 67 147t100 110.5t132 70t162 24.5q113 0 202 -39t150.5 -108t93.5 -162.5t32 -202.5q0 -108 -32.5 -202t-94 -163t-150 -108.5t-201.5 -39.5q-132 0 -230.5 52t-169.5 161q-12 19 -23.5 39t-19.5 42q-6 20 -6 41q0 32 21 59q27 39 68.5 67t90.5 46 t101.5 26.5t101.5 8.5q46 0 95 -11t95 -32t86 -50.5t68 -66.5q9 28 13 51.5t4 63.5q0 69 -16.5 135.5t-52 119t-91.5 84.5t-135 32q-60 0 -106.5 -18t-81 -49.5t-58 -75.5t-39.5 -97zM292 322q37 -80 103.5 -122.5t154.5 -42.5q59 0 113 21t94 66q-19 37 -49 63.5t-65.5 44 t-75.5 26t-80 8.5q-52 0 -103.5 -14.5t-91.5 -49.5z" />
<glyph unicode="&#x1002;" horiz-adv-x="1135" d="M89 507q0 109 32 203.5t93 164.5t150 110t203 40t203.5 -40t150.5 -110t93 -164.5t32 -203.5q0 -97 -23.5 -178.5t-66.5 -145t-104.5 -109t-136.5 -72.5l-67 148q60 26 101 61.5t66.5 80.5t36.5 98.5t11 116.5q0 69 -17 134.5t-53 115.5t-92 80.5t-134 30.5 q-77 0 -132.5 -30.5t-91.5 -81t-53 -115.5t-17 -134q0 -61 11 -114.5t36 -98.5t64.5 -81t97.5 -62l-72 -145q-84 38 -144.5 87t-99.5 110.5t-58 137t-19 166.5z" />
<glyph unicode="&#x1003;" horiz-adv-x="1906" d="M89 499q0 47 21 80.5t52 59.5t68 46.5t68 39.5t52 38.5t21 45.5q0 20 -11 36t-31 21q-18 0 -32.5 -7.5t-26 -19.5t-18.5 -27.5t-9 -32.5l-151 72q17 36 40.5 68t53.5 55t66 36.5t78 13.5q45 0 85 -16.5t71 -45.5t49 -68.5t18 -84.5q0 -49 -20.5 -86.5t-52 -66.5 t-67.5 -51t-67.5 -40t-52 -34.5t-20.5 -34.5q0 -67 19 -128t56.5 -108t92 -75t126.5 -28q77 0 133 29.5t92.5 79t54 113.5t17.5 133q0 65 -11.5 119.5t-37.5 100t-67 82t-100 65.5l81 143q78 -30 137.5 -79t99.5 -114t60 -145t20 -172q0 -15 -1.5 -31t-1.5 -32 q0 -21 6 -41.5t13 -40.5q35 -100 101 -155t174 -55q77 0 132.5 29.5t91.5 79t53 113.5t17 133q0 68 -17.5 132t-53.5 114t-91.5 80t-131.5 30q-32 0 -63 -6.5t-62 -14.5l-34 157q39 9 78.5 15t80.5 6q113 0 202 -39.5t150.5 -108.5t94 -162.5t32.5 -202.5t-32.5 -202.5 t-94 -162.5t-150.5 -108t-202 -39q-118 0 -217.5 47t-167.5 144q-68 -97 -167.5 -144t-217.5 -47q-108 0 -196.5 38t-151 105t-96.5 158.5t-34 197.5z" />
<glyph unicode="&#x1004;" horiz-adv-x="1120" d="M89 513q0 109 32.5 202.5t94 162.5t150.5 108t202 39q87 0 163 -25t136 -71.5t102 -113.5t61 -151l-176 -48q-13 55 -36 101.5t-58 80t-82.5 52t-109.5 18.5q-76 0 -132 -29.5t-92.5 -79t-54 -113.5t-17.5 -133t17.5 -133t53.5 -114t92 -80t133 -30q61 0 107.5 18.5 t80.5 51.5t58 77.5t40 96.5l174 -46q-22 -82 -63.5 -148t-100.5 -112t-134 -70.5t-162 -24.5q-114 0 -203 39.5t-150.5 108.5t-93.5 163t-32 203z" />
<glyph unicode="&#x1005;" horiz-adv-x="1139" d="M89 514q0 109 32.5 203t94 163t151 108t202.5 39t202.5 -39t151.5 -108t94.5 -162.5t32.5 -203.5q0 -109 -33 -203t-95 -163.5t-151 -109t-202 -39.5q-114 0 -203 39.5t-150.5 108.5t-94 163.5t-32.5 203.5zM263 503q0 -66 19 -128.5t61 -114.5q38 56 55 119.5t17 130.5 q0 64 -17.5 127.5t-58.5 114.5q-41 -55 -58.5 -118t-17.5 -131zM454 179q27 -11 56.5 -16.5t58.5 -5.5q77 0 133 30t92.5 79.5t54 114t17.5 133.5t-17.5 133.5t-54.5 113.5t-92.5 78.5t-132.5 29.5q-29 0 -58.5 -5t-56.5 -17q54 -72 84 -157t30 -175q0 -91 -30 -177.5 t-84 -158.5z" />
<glyph unicode="&#x1006;" horiz-adv-x="1906" d="M91 653q28 88 68.5 157.5t97.5 117.5t131.5 73.5t170.5 25.5q58 0 113 -12.5t105 -36.5t93 -60.5t76 -84.5q67 97 169 147t220 50q114 0 203 -39.5t151 -109t94.5 -163.5t32.5 -204q0 -109 -32.5 -203t-94.5 -163.5t-151.5 -109t-202.5 -39.5q-120 0 -220 48.5 t-169 147.5q-66 -98 -167.5 -147t-219.5 -49q-156 0 -271.5 79t-174.5 223q-6 18 -6 34q0 17 5.5 30t15.5 27q32 41 75 70t91.5 47.5t100.5 27t102 8.5q96 0 186.5 -30t160.5 -96q5 17 7.5 35t2.5 35q0 72 -15 140t-49.5 121.5t-91 86t-139.5 32.5q-67 0 -116.5 -22.5 t-84.5 -61t-58.5 -90t-38.5 -110.5zM302 320q39 -80 105 -121.5t152 -41.5q58 0 113 21t95 66q-21 38 -50 65t-64.5 44t-75 25.5t-80.5 8.5q-23 0 -50.5 -3t-54 -10.5t-50 -20.5t-40.5 -33zM1038 538q0 -72 15 -140.5t50 -122t92 -86t140 -32.5q77 0 133 30t93 79.5 t54.5 114t17.5 133.5q0 70 -17.5 134.5t-54 114t-93 79t-133.5 29.5q-70 0 -125.5 -27t-93.5 -72.5t-58 -106t-20 -127.5z" />
<glyph unicode="&#x1007;" horiz-adv-x="1183" d="M89 514q0 109 32.5 202.5t94 162.5t150.5 108.5t202 39.5q93 0 178 -31.5t149.5 -89t103 -137.5t38.5 -177q0 -22 -4 -42t-7 -42q-1 -9 -2 -18.5t0 -18.5q2 -16 17 -24.5t28 -9.5q10 0 19.5 2.5t17.5 6.5l3 -163q-14 -2 -29.5 -3t-29.5 -1q-59 0 -106.5 21.5t-76.5 75.5 q-27 -6 -53 -6q-50 0 -91 16t-70.5 45t-46 70t-16.5 91q0 39 11 74t32 63t51 47.5t68 27.5q-38 33 -85.5 49.5t-98.5 16.5q-76 0 -132 -29.5t-92 -79t-53.5 -114t-17.5 -133.5t17.5 -133.5t53.5 -114t91.5 -79.5t132.5 -30q64 0 115.5 22t90.5 64l129 -112 q-68 -65 -152.5 -98.5t-182.5 -33.5q-114 0 -203 39.5t-150.5 109t-93.5 163.5t-32 203zM695 589q0 -42 21.5 -70t65.5 -28q22 0 38.5 8t27 21.5t15.5 31.5t5 38q0 41 -21.5 68.5t-64.5 27.5t-65 -28t-22 -69z" />
<glyph unicode="&#x1008;" horiz-adv-x="1475" d="M111 493q0 112 33.5 208.5t96.5 167t154.5 110.5t207.5 40t207.5 -40.5t154.5 -111t96 -166.5t33 -208q0 -54 -8 -107t-25.5 -103t-45 -96t-66.5 -85v-518l207 -117v1526l161 3v-1738h-148l-400 246v489q-40 -14 -82 -20.5t-84 -6.5q-117 0 -208.5 40.5t-154.5 111.5 t-96 167t-33 208zM289 495q0 -63 18.5 -124t56.5 -111q38 51 56 113.5t18 127.5q0 63 -18 125.5t-60 111.5q-38 -54 -54.5 -116t-16.5 -127zM446 169q35 -23 75 -33t82 -10q79 0 136.5 30.5t95 81.5t55.5 117.5t18 137.5q0 72 -18 138t-55.5 117t-95 81t-136.5 30 q-42 0 -82 -10t-75 -33q66 -63 96.5 -147.5t30.5 -175.5q0 -45 -7.5 -89t-23.5 -86t-39.5 -79.5t-56.5 -69.5z" />
<glyph unicode="&#x1009;" horiz-adv-x="1114" d="M89 659q24 85 65 152.5t98.5 115t132 72.5t164.5 25q112 0 200 -39t149 -107t93 -160.5t32 -200.5t-32 -200.5t-93 -161t-149 -107.5t-200 -39q-72 0 -141.5 20.5t-128.5 62.5v-585q0 -25 3 -42.5t11.5 -28.5t24.5 -16t43 -5h1085q41 0 59 13t23 35t2.5 50t-2.5 57h182 v-63q0 -128 -70.5 -188t-193.5 -60h-1085q-123 0 -193 60t-70 188v828l165 44q3 -31 25 -68.5t59.5 -70t89 -54t112.5 -21.5q76 0 131.5 29.5t91.5 78t53 112t17 132.5t-17 132t-53 112t-91.5 78t-131.5 29q-62 0 -108.5 -19t-81 -53.5t-58.5 -81t-39 -102.5z" />
<glyph unicode="&#x100a;" horiz-adv-x="1880" d="M80 657q24 86 65 153.5t99.5 115t133.5 72.5t166 25q131 0 221 -44t146.5 -120.5t81.5 -179t25 -220.5q0 -63 22 -117.5t61.5 -95t94 -64t119.5 -23.5q76 0 131.5 29.5t91.5 78.5t53 112.5t17 132.5t-17 132.5t-53 112.5t-91.5 78.5t-131.5 29.5q-31 0 -62 -6t-61 -12 l-35 156q38 8 77.5 13.5t80.5 5.5q113 0 201 -39t149.5 -107.5t93.5 -162t32 -201.5t-32.5 -201t-93.5 -162t-149.5 -108t-200.5 -39q-58 0 -113.5 11t-106 34t-94 58t-77.5 83q-67 -94 -166 -140.5t-214 -46.5q-73 0 -142.5 20t-129.5 62v-580q0 -26 2.5 -43.5t11 -28.5 t25 -15.5t44.5 -4.5h1121q37 0 56.5 13.5t28 35.5t8.5 50t-1 57l182 -2v-62q0 -65 -20.5 -112t-57.5 -77.5t-88.5 -45.5t-112.5 -15h-1116q-62 0 -111.5 15t-84 46t-52.5 78t-18 111v814l167 47q12 -41 35 -78t58 -65.5t83.5 -45.5t111.5 -17q77 0 132.5 29.5t91.5 79 t53 113.5t17 133q0 67 -18.5 131t-55.5 114t-92.5 80.5t-129.5 30.5q-62 0 -109 -20t-81 -55t-57.5 -82.5t-38.5 -102.5z" />
<glyph unicode="&#x100b;" horiz-adv-x="1119" d="M89 517q0 108 32 201t93 161t149 107t200 39q88 0 163.5 -25t134.5 -72.5t101 -115t63 -152.5l-174 -49q-15 56 -38.5 103t-58 81.5t-81.5 53.5t-110 19q-76 0 -131 -29t-91 -78t-53 -112.5t-17 -131.5t17 -131.5t53 -112.5t91 -78.5t131 -29.5q47 0 91 14.5t80 41 t61.5 64t37.5 83.5l184 -77v-335q-99 -69 -212 -104.5t-234 -35.5q-60 0 -120 9.5t-117 29.5v-68q56 -17 112.5 -25t113.5 -8q97 0 191.5 21.5t184.5 56.5l81 -62v-348h188v-157h-372v391q-66 -16 -134.5 -24.5t-137.5 -8.5q-106 0 -209.5 22.5t-200.5 67.5v330l32 26 q83 -66 185.5 -95t207.5 -29q67 0 132.5 15t124.5 47v83q-59 -42 -128.5 -62t-141.5 -20q-112 0 -200 39.5t-149 108t-93 161.5t-32 200z" />
<glyph unicode="&#x100c;" horiz-adv-x="1120" d="M89 513q0 109 32 202.5t93 162t150 107.5t202 39q90 0 165 -25.5t133.5 -72.5t100 -115t65.5 -154l-175 -48q-16 56 -39.5 103.5t-58 82t-81.5 53.5t-110 19q-76 0 -131.5 -29.5t-91.5 -78.5t-53.5 -113t-17.5 -133t17.5 -133t53.5 -113t91.5 -78.5t131.5 -29.5 q62 0 108.5 14t79.5 40.5t54.5 64t33.5 84.5l180 -50v-763q0 -149 -82 -220.5t-227 -71.5h-324q-65 0 -117 16t-88.5 48.5t-56 82t-19.5 117.5q0 78 23.5 129t65.5 81t100 42t128 12q36 0 75 -2t76.5 -9t71 -20.5t59 -36.5t40.5 -57t15 -82v-36h-184q0 11 0.5 22t-0.5 22 q-12 29 -32 36t-49 7h-43h-47q-30 0 -52 -3t-36.5 -13.5t-21 -31t-6.5 -56.5q0 -30 3 -51t13 -34.5t29.5 -19.5t52.5 -6h324q39 0 63.5 7.5t38.5 23.5t19 41.5t5 62.5v535q-60 -42 -129.5 -62.5t-143.5 -20.5q-112 0 -201 39.5t-150 108.5t-93.5 162.5t-32.5 201.5z" />
<glyph unicode="&#x100d;" horiz-adv-x="1131" d="M89 655q24 86 65.5 154.5t100 116t134 72.5t166.5 25q113 0 202.5 -39.5t151 -108.5t94 -162.5t32.5 -202.5t-32.5 -203t-94 -163.5t-151 -109t-202.5 -39.5q-73 0 -143 20.5t-130 63.5v-168q63 -33 135 -48t144 -15q103 0 178.5 20.5t131.5 80.5l102 -42v-488h207v-157 h-392v467q-57 -23 -118 -31.5t-123 -8.5q-59 0 -118.5 8.5t-117 26t-111.5 44t-102 62.5v491l167 47q7 -43 29.5 -81.5t59.5 -68t87.5 -47t113.5 -17.5q77 0 133 29.5t92.5 79t54 113.5t17.5 134t-17.5 134t-54 113.5t-92.5 79t-133 29.5q-64 0 -111.5 -19t-82 -53.5 t-58 -82.5t-39.5 -105z" />
<glyph unicode="&#x100e;" horiz-adv-x="1145" d="M89 504q0 43 20.5 78t51.5 64.5t66.5 54t66.5 45.5t51.5 40t20.5 37q0 20 -16 30.5t-33 10.5q-15 0 -29 -6.5t-24.5 -17t-16.5 -24.5t-5 -29l-141 71q35 74 91 118.5t141 44.5q41 0 80 -15t69 -41.5t48 -62.5t18 -79q0 -46 -20.5 -82.5t-51 -65t-66 -52t-66 -44 t-51 -39.5t-20.5 -40q0 -67 19.5 -129t57.5 -109.5t94 -75.5t128 -28q78 0 134.5 30t93.5 79.5t54.5 114.5t17.5 135q0 65 -11 119t-36 99t-63.5 81t-94.5 66l77 143q161 -75 236 -199.5t75 -308.5q0 -109 -32.5 -203.5t-95 -164.5t-152 -109.5t-203.5 -39.5 q-109 0 -198 38.5t-152.5 106.5t-98 160t-34.5 199z" />
<glyph unicode="&#x100f;" horiz-adv-x="2198" d="M89 512q0 109 32.5 202.5t94 162.5t150 108t201.5 39q86 0 166 -26t145 -83q18 29 43 50.5t54.5 35.5t62 21t66.5 7q66 0 125.5 -27t94.5 -84q64 55 143.5 80.5t163.5 25.5q113 0 201.5 -39.5t150 -108.5t94 -162.5t32.5 -201.5t-33 -201.5t-94.5 -162.5t-150 -108.5 t-200.5 -39.5q-29 0 -57.5 3.5t-57.5 7.5l31 156q20 -5 41.5 -7.5t42.5 -2.5q77 0 132.5 29.5t91.5 79t53.5 113.5t17.5 133t-17.5 133t-53.5 113t-91.5 78.5t-132.5 29.5q-78 0 -134 -30.5t-92 -81t-52.5 -116t-16.5 -134.5q0 -37 4 -74t9.5 -73.5t9.5 -73.5t4 -75 q0 -52 -22.5 -91.5t-59.5 -65.5t-83 -39.5t-93 -13.5q-129 0 -194 60t-65 191q0 69 9 136t9 135t-18.5 130.5t-56 110.5t-93 76.5t-129.5 28.5q-76 0 -131.5 -29.5t-91.5 -79t-53.5 -113t-17.5 -132.5t17.5 -133t53.5 -113.5t91.5 -79t131.5 -29.5q43 0 87 11l34 -157 q-30 -4 -60 -7.5t-61 -3.5q-112 0 -201 39t-150.5 108t-94 162.5t-32.5 202.5zM1021 270q0 -22 3 -43t12 -37.5t25.5 -26.5t43.5 -10q24 0 39.5 8t24 21.5t11.5 31.5t3 39q0 29 -4 58t-9 57.5t-9 57t-4 58.5q0 40 4 79.5t8.5 79.5t8 79.5t3.5 79.5q0 33 -22.5 52t-54.5 19 q-34 0 -58.5 -20.5t-24.5 -56.5q0 -78 9.5 -155.5t9.5 -155.5q0 -54 -9.5 -107t-9.5 -108z" />
<glyph unicode="&#x1010;" horiz-adv-x="1919" d="M89 515q0 110 32.5 204.5t94.5 164t151.5 109t203.5 39.5q118 0 220 -48.5t169 -147.5q68 99 169 147t219 48q114 0 203.5 -39.5t151.5 -109t94.5 -163.5t32.5 -204q0 -109 -32.5 -203t-94.5 -163.5t-151.5 -109t-203.5 -39.5q-51 0 -101 9.5t-99 21.5l34 158 q41 -11 82.5 -20.5t83.5 -9.5q77 0 133.5 29.5t93 79t54 114t17.5 133.5q0 70 -17.5 134.5t-54 114t-93 79t-133.5 29.5q-78 0 -133.5 -29.5t-91 -79t-52.5 -114t-17 -134.5q0 -107 -32.5 -201t-94 -164t-151.5 -110.5t-205 -40.5q-114 0 -203.5 39.5t-151.5 109t-94.5 164 t-32.5 203.5zM274 515q0 -69 17.5 -133.5t54 -114t92.5 -79.5t133 -30q74 0 129.5 28.5t92.5 76t56 110t19 129.5v39q0 66 -20 126.5t-58 106t-93 72.5t-126 27q-77 0 -133 -30t-92.5 -79.5t-54 -114.5t-17.5 -134z" />
<glyph unicode="&#x1011;" horiz-adv-x="1907" d="M89 512q0 108 32 201.5t93.5 162.5t150 108.5t202.5 39.5q119 0 219 -48.5t167 -146.5q67 98 167.5 146.5t219.5 48.5q113 0 201.5 -39.5t150 -108.5t94 -162.5t32.5 -201.5t-32.5 -202t-94 -163t-150 -108.5t-201.5 -39.5q-119 0 -219.5 48.5t-167.5 147.5 q-67 -99 -167 -147.5t-219 -48.5q-113 0 -202 39.5t-150.5 108.5t-93.5 163t-32 202zM273 512q0 -69 17.5 -133t53.5 -113.5t91.5 -79t131.5 -29.5q77 0 132.5 29.5t91.5 79t53 113.5t17 133t-17 133t-53 113t-91.5 78.5t-132.5 29.5t-132.5 -29.5t-91.5 -79t-53 -113 t-17 -132.5zM1045 512q0 -69 17.5 -133t53.5 -113.5t91.5 -79t132.5 -29.5q76 0 131.5 29.5t91.5 79t53.5 113.5t17.5 133t-17 132.5t-53 113t-91.5 79t-132.5 29.5t-132.5 -29.5t-91.5 -78.5t-53.5 -113t-17.5 -133z" />
<glyph unicode="&#x1012;" horiz-adv-x="1101" d="M89 367l177 49q15 -57 38.5 -104.5t57.5 -82t81.5 -53.5t110.5 -19q161 0 243 139q-25 7 -57.5 16.5t-67 22.5t-68 30t-59.5 39t-42 48.5t-16 59.5q0 34 16 61t42 48.5t59 38t67.5 29.5t67.5 23t58 18q-80 137 -243 137q-64 0 -111 -19t-81.5 -53.5t-57.5 -81.5t-39 -104 l-176 48q24 86 66 154t100.5 115.5t133 73t165.5 25.5q143 0 254.5 -65t174.5 -195q8 -17 18 -41t10 -44q0 -21 -20.5 -38.5t-53 -32.5t-71.5 -28t-76 -24.5t-66.5 -22.5t-43.5 -22q14 -10 43.5 -20.5t66.5 -22t76 -24.5t71.5 -28t53 -33t20.5 -39q0 -9 -3 -20t-7 -22.5 t-9 -22.5t-9 -20q-30 -64 -74.5 -112.5t-100 -81.5t-120 -50t-134.5 -17q-91 0 -165.5 26t-132 74t-99 116t-68.5 152z" />
<glyph unicode="&#x1013;" horiz-adv-x="1137" d="M89 512q0 109 32.5 202.5t94 162.5t150.5 108.5t202 39.5t202 -39t151 -108t94.5 -163t32.5 -203t-32.5 -202.5t-94.5 -162.5t-151 -108.5t-202 -39.5t-202 39.5t-150.5 108.5t-94 163t-32.5 202zM273 512q0 -57 12 -111q62 45 134 66t149 21q76 0 148 -21t134 -67 q15 56 15 112q0 70 -17.5 134t-54 113t-92.5 78.5t-133 29.5t-132.5 -29.5t-91.5 -79t-53.5 -113.5t-17.5 -133zM361 243q40 -44 94 -65t113 -21q58 0 112 21t94 65q-41 45 -93.5 66t-112.5 21t-112.5 -21t-94.5 -66z" />
<glyph unicode="&#x1014;" horiz-adv-x="1155" d="M89 291q0 47 16 86t44.5 68.5t68 48.5t86.5 25q20 4 46 4h118q74 0 124 -19.5t80 -55.5t43 -86.5t13 -112.5q-1 -21 -1.5 -41.5t-0.5 -41.5q26 2 47 9q52 13 81.5 52t29.5 100q0 75 -28 120.5t-74.5 71.5t-105 38.5t-120 21.5t-120.5 19.5t-105.5 33.5t-74.5 63t-28 107 q0 54 19.5 95.5t53 69.5t78.5 42.5t96 14.5h177q63 0 109.5 -17t77.5 -48.5t45.5 -74.5t13.5 -96h-182q0 18 -1 32.5t-7 25t-19 16t-37 5.5h-177q-35 0 -49.5 -15t-14.5 -50q0 -21 19.5 -35t51 -23.5t71 -15.5t79 -10.5t74.5 -8.5t57 -10q69 -18 125 -52t95.5 -82t60.5 -109 t21 -132q0 -67 -21.5 -121t-60 -93.5t-91 -64t-114.5 -32.5q-13 -2 -25.5 -3.5t-26.5 -1.5v-752h-182v752h-147q-63 0 -119 19.5t-98 56.5t-66.5 89t-24.5 118zM272 278q0 -54 35 -83.5t90 -29.5h147v114q0 27 -4.5 44t-15 26t-28 12.5t-44.5 3.5h-86h-21q-18 -1 -32 -10 t-23 -22t-13.5 -27.5t-4.5 -27.5z" />
<glyph unicode="&#x1015;" horiz-adv-x="1133" d="M89 520q0 196 78.5 319.5t230.5 183.5l75 -149q-108 -55 -155 -140t-47 -214q0 -69 17 -134.5t53 -116.5t92 -82t134 -31q77 0 133 31t92 82t53 116.5t17 134.5q0 65 -11.5 118.5t-37 97t-64.5 78.5t-95 62l70 150q158 -59 239 -183.5t81 -322.5q0 -109 -32 -203.5 t-92.5 -165t-149.5 -111t-203 -40.5t-203 40.5t-150 111t-93 165t-32 203.5z" />
<glyph unicode="&#x1016;" horiz-adv-x="1148" d="M89 529q0 60 13 131t45 139.5t86 126.5t137 92l88 -166q-51 -23 -86 -58.5t-57 -78t-32 -90.5t-10 -96q0 -67 16.5 -133.5t52.5 -119t93.5 -85t138.5 -32.5q50 0 91 13t74 37t58 57t41 72q-81 11 -135 48t-86 87.5t-45.5 107.5t-13.5 107q0 62 12 111.5t37 90t64 73.5 t94 61q156 -77 224.5 -200.5t68.5 -294.5q0 -108 -31.5 -204.5t-93 -168.5t-151.5 -114t-208 -42t-208.5 42t-152 114t-93 168.5t-31.5 204.5zM689.5 688.5q0.5 -42.5 13.5 -83t36.5 -72t57.5 -50.5t76 -19q6 46 4.5 97t-15.5 101.5t-42.5 98t-76.5 86.5q-28 -33 -41 -74.5 t-12.5 -84z" />
<glyph unicode="&#x1017;" horiz-adv-x="1130" d="M89 518q0 92 17.5 167.5t55.5 136t97.5 108.5t143.5 85q-1 -33 9 -67t31 -62t51.5 -45.5t69.5 -17.5q40 0 69 18.5t48.5 47.5t29 64t9.5 69q20 -8 32.5 -17t31.5 -18q67 -34 115.5 -84t80 -111.5t46.5 -131.5t15 -142q0 -108 -32 -202.5t-93 -164.5t-149.5 -110.5 t-201.5 -40.5q-114 0 -202.5 40.5t-149 110.5t-92.5 164.5t-32 202.5zM271 518q0 -68 17 -133t53 -116t91.5 -82t132.5 -31q72 0 126 27.5t90 73.5t55 106t23 124q0 74 -11.5 141.5t-53.5 130.5q-45 -46 -106 -68.5t-125 -22.5t-124.5 22.5t-105.5 67.5q-35 -53 -48.5 -115 t-13.5 -125z" />
<glyph unicode="&#x1018;" horiz-adv-x="1902" d="M89 384l177 45q15 -57 37 -107t56 -86.5t82.5 -57.5t117.5 -21q77 0 133 29.5t92 79t53.5 114t17.5 133.5t-17.5 133.5t-53.5 114t-92 79.5t-133 30q-69 0 -118 -22t-83.5 -60.5t-56.5 -89.5t-37 -110l-174 48q25 89 64 161t96 123t133 79t176 28q119 0 220 -47.5 t168 -147.5q67 100 167 147t220 47q113 0 202 -39.5t150.5 -108.5t94 -162.5t32.5 -201.5t-32.5 -202t-94 -163.5t-150.5 -109t-202 -39.5q-26 0 -46 1t-38.5 3.5t-37.5 6.5t-44 10l34 158q21 -6 36 -10t29.5 -6.5t30 -3.5t36.5 -1q77 0 132.5 30t91.5 79.5t53 113.5t17 133 t-17 133t-53 113.5t-91.5 79t-132.5 29.5q-107 0 -175 -56.5t-99 -156.5q-7 -23 -14.5 -51.5t-7.5 -52.5q0 -59 -6 -113t-27 -110q-22 -78 -64 -139t-99.5 -103.5t-129 -65t-153.5 -22.5q-102 0 -178 27.5t-132 77.5t-94.5 121.5t-65.5 158.5z" />
<glyph unicode="&#x1019;" horiz-adv-x="1134" d="M89 521q0 77 15 146.5t46.5 129.5t81 110t119.5 87q11 6 18.5 9.5t14.5 6.5t14.5 6.5t19.5 9.5l72 -147q-9 -4 -14 -6t-9.5 -4t-9.5 -4.5t-14 -7.5q-48 -26 -80.5 -62.5t-53 -80t-29 -92.5t-8.5 -101q0 -57 12 -114q62 47 134.5 68.5t149.5 21.5q75 0 147.5 -21.5 t132.5 -67.5q7 28 10 56t3 57q0 53 -8.5 102t-28.5 92t-53 79t-82 63q-9 5 -14 7.5t-9 4t-9 3.5t-14 6l72 147q11 -6 18.5 -9t14.5 -6t14.5 -6.5t19.5 -9.5q70 -36 119.5 -86t81 -110.5t46.5 -130.5t15 -146q0 -109 -32 -204t-92.5 -165.5t-149.5 -111t-203 -40.5 q-115 0 -204 40.5t-150 111t-92.5 165.5t-31.5 204zM358 249q40 -48 93.5 -70t115.5 -22q61 0 114.5 22.5t93.5 70.5q-40 45 -93.5 67.5t-113.5 22.5t-115 -22t-95 -69z" />
<glyph unicode="&#x101a;" horiz-adv-x="1910" d="M89 512q0 176 76.5 308t239.5 206l75 -147q-59 -28 -98.5 -65.5t-63.5 -84t-34.5 -101t-10.5 -116.5q0 -69 17.5 -133t53.5 -113.5t91.5 -79t131.5 -29.5q77 0 133 29.5t92 79t53.5 113.5t17.5 133q0 65 -11 121t-37 103t-67.5 84t-103.5 64l76 145q95 -42 155 -91 t95.5 -110.5t52 -139t24.5 -175.5q6 -68 21.5 -132.5t48.5 -114t87.5 -79.5t137.5 -30q77 0 132.5 29.5t92 79t54 113.5t17.5 133t-17.5 133.5t-53.5 114t-92 79t-133 29.5q-21 0 -35.5 -1t-27.5 -3t-26.5 -5.5t-33.5 -8.5l-34 157q24 6 42.5 9.5t35.5 5.5t35.5 3t43.5 1 q113 0 202 -39.5t150.5 -108.5t94 -163t32.5 -203t-32.5 -202.5t-94 -162.5t-150.5 -108t-202 -39q-118 0 -220 49t-168 147q-66 -99 -167 -147.5t-220 -48.5q-113 0 -201.5 39t-150 108t-94 162.5t-32.5 202.5z" />
<glyph unicode="&#x101b;" horiz-adv-x="1106" d="M74 513q0 109 32 202.5t93.5 162t150 107.5t201.5 39q155 0 268 -75.5t173 -216.5q10 -23 17.5 -48t7.5 -50v-1230h146v-157h-193q-26 0 -50.5 8.5t-43 24.5t-30 38.5t-11.5 49.5v1257q0 14 -6.5 32t-12.5 30q-41 86 -103 132.5t-162 46.5q-66 0 -118 -23t-88.5 -63.5 t-58 -95t-27.5 -116.5q83 -12 150.5 -48t115 -90.5t73.5 -126.5t26 -156q0 -19 -2 -44t-9 -47.5t-21.5 -38.5t-40.5 -16q-113 0 -201.5 39t-150 108t-93.5 162.5t-32 202.5zM266 422q8 -36 26 -74.5t43.5 -73.5t57 -62.5t67.5 -40.5q4 41 -7.5 82.5t-37 77t-63 60 t-86.5 31.5z" />
<glyph unicode="&#x101c;" horiz-adv-x="1912" d="M89 512q0 109 32.5 203t94 163t150.5 108t202 39q116 0 205.5 -40t150 -109t92 -162.5t31.5 -201.5q0 -69 17.5 -133t54 -113.5t92.5 -79t132 -29.5q77 0 133 29.5t92 78.5t53.5 113.5t17.5 133.5t-17.5 133.5t-53.5 113.5t-92 78.5t-133 29.5q-21 0 -38 -1.5t-32.5 -4.5 t-32 -7.5t-36.5 -9.5l-36 156q24 6 45 10.5t41.5 7.5t42 5t46.5 2q113 0 202 -39t150.5 -108t94 -163t32.5 -203q0 -108 -32.5 -202t-94 -163t-150.5 -108.5t-202 -39.5q-114 0 -202.5 39t-150 108t-93.5 162.5t-32 202.5q0 69 -17.5 133.5t-54 114t-92.5 79t-133 29.5 t-133 -29.5t-92 -78.5t-53.5 -113.5t-17.5 -133.5t17 -131t52.5 -109t91 -74.5t131.5 -27.5q43 0 69.5 6t49.5 13l38 -170q-25 -6 -42.5 -10t-33.5 -6t-33.5 -3t-43.5 -1q-113 0 -202 39.5t-150.5 108.5t-94 163t-32.5 202z" />
<glyph unicode="&#x101d;" horiz-adv-x="1144" d="M89 516q0 110 32.5 204t95 163.5t152 109t203.5 39.5t203.5 -39.5t151.5 -108.5t95 -163.5t33 -204.5q0 -109 -33 -203.5t-95 -164.5t-151.5 -109.5t-203.5 -39.5t-203.5 39.5t-152 109.5t-95 164.5t-32.5 203.5zM274 516q0 -69 17.5 -134t54.5 -114.5t93 -79.5t133 -30 t133 30t92.5 79.5t54 114.5t17.5 134q0 70 -17.5 134.5t-54 114t-92.5 79.5t-133 30t-133.5 -30t-93 -79.5t-54 -114t-17.5 -134.5z" />
<glyph unicode="&#x101e;" horiz-adv-x="1898" d="M89 675q48 173 164 263.5t299 90.5q115 0 204.5 -40t151 -109.5t93.5 -163t32 -201.5q0 -69 17 -133.5t53 -114t92 -79.5t133 -30t132.5 29.5t91.5 79t53.5 114t17.5 133.5q0 68 -17.5 132.5t-54 114t-92 79.5t-131.5 30q-21 0 -39 -1.5t-34.5 -4.5t-33.5 -7t-37 -10 l-34 158q25 6 46.5 10t42.5 7t42.5 4.5t46.5 1.5q113 0 202 -39.5t151 -109t95 -163.5t33 -202q0 -109 -33 -203t-95 -163t-151 -108.5t-202 -39.5q-118 0 -219.5 48t-168.5 146q-68 -98 -169 -146.5t-219 -48.5q-363 0 -458 343l175 49q15 -55 37.5 -98.5t56.5 -73.5 t80.5 -46t108.5 -16q77 0 133 30t92.5 79.5t54 114t17.5 134.5t-17.5 134t-54 113.5t-92.5 79t-133 29.5q-60 0 -107.5 -17.5t-83 -50t-59 -77.5t-37.5 -100z" />
<glyph unicode="&#x101f;" horiz-adv-x="1913" d="M89 523q0 101 18 183.5t57.5 146t102 108.5t150.5 71l72 -148q-61 -21 -102.5 -53.5t-66.5 -77.5t-35.5 -102.5t-10.5 -127.5q0 -69 17 -134.5t53 -116.5t91.5 -82t133.5 -31t134 31t92 82t53.5 116.5t17.5 134.5q0 146 -54.5 233.5t-163.5 133.5l73 146q39 -17 73 -35.5 t63 -41.5t54.5 -51.5t49.5 -65.5q68 94 168 140.5t215 46.5q113 0 202 -39.5t150.5 -109t94 -163.5t32.5 -203t-32.5 -203t-94 -163t-150.5 -108.5t-202 -39.5q-26 0 -47 1.5t-40.5 4t-39.5 7t-45 10.5l34 158q21 -6 37 -10t31.5 -6.5t32 -4t37.5 -1.5q77 0 132.5 29.5 t91.5 79t53.5 113.5t17.5 133t-17.5 133t-54 113.5t-92 79.5t-131.5 30t-131.5 -28.5t-91.5 -76t-53.5 -110.5t-17.5 -132q0 -107 -31.5 -202t-93 -166.5t-151 -113t-205.5 -41.5q-115 0 -204.5 40.5t-150.5 111.5t-93 166.5t-32 204.5z" />
<glyph unicode="&#x1020;" horiz-adv-x="1126" d="M89 512q0 109 32.5 203t94 163t150.5 108t203 39q92 0 167.5 -25t134 -72.5t100 -116t66.5 -155.5l-177 -49q-16 57 -39.5 105t-58 82.5t-82 53.5t-111.5 19q-76 0 -132 -29.5t-92.5 -79t-54 -113.5t-17.5 -133t17.5 -134t53.5 -114.5t92 -79.5t133 -30q64 0 111.5 19.5 t82 54t57.5 82t39 104.5l169 -47q-4 -108 -3 -215.5t1 -215.5q-96 -72 -212.5 -107t-236.5 -35q-62 0 -122.5 9.5t-118.5 29.5v-328q0 -45 18 -68.5t66 -23.5h342q27 0 44 8t26.5 22.5t13 34.5t3.5 43q0 17 -1 35t-2 37h184v-88q0 -60 -20 -107t-56 -78.5t-85 -48 t-107 -16.5h-342q-58 0 -107.5 16.5t-85 48.5t-55.5 78.5t-20 106.5v131.5t-0.5 138t-0.5 138v130.5l64 19q32 -38 72.5 -63.5t86 -40.5t94 -21t96.5 -6q72 0 143.5 14.5t136.5 48.5v85q-60 -43 -130.5 -63.5t-144.5 -20.5q-114 0 -203 39.5t-150.5 109.5t-94 164.5 t-32.5 203.5z" />
<glyph unicode="&#x1021;" horiz-adv-x="1834" d="M89 674q25 89 69 155t104.5 109.5t137 64.5t166.5 21q98 -2 189 -38.5t158 -110.5q67 75 160 112t193 37q114 0 203 -39t150.5 -108t93.5 -162.5t32 -202.5q0 -112 -33 -206t-96 -162t-153.5 -106.5t-205.5 -38.5q-36 0 -67.5 4t-55 17.5t-37.5 39t-14 68.5q0 42 13 79.5 t34 72.5q33 53 82 91.5t106.5 63.5t120 38t122.5 16q0 5 0.5 11t0.5 12q0 69 -17.5 133t-54 113t-92 78.5t-132.5 29.5q-87 0 -152.5 -42t-103.5 -119q2 -6 4 -13t2 -12q0 -20 -21 -38t-53 -33.5t-71.5 -29.5t-76 -26t-66.5 -22t-43 -19q13 -7 42.5 -17t66.5 -22.5t76 -27.5 t71.5 -31t53.5 -34t21 -36q0 -19 -10.5 -43t-18.5 -41q-63 -128 -175 -194.5t-254 -66.5q-176 0 -292 83.5t-164 256.5l176 48q16 -56 38 -99t55 -72t78.5 -44t108.5 -15q66 0 126 27.5t99 82.5q6 7 10.5 14t9.5 15q-25 8 -58.5 17.5t-68 22t-68 28.5t-59.5 37.5t-42 49 t-16 61.5q0 35 16 62.5t42 48.5t59 37t68 28.5t68 22t59 18.5q-38 66 -103.5 101.5t-141.5 35.5q-63 0 -111 -16t-83 -47t-58.5 -75.5t-38.5 -101.5zM1272 159q11 1 20.5 2t18.5 3q44 8 83 28t70 49.5t53 68t31 81.5q-47 -6 -94 -23.5t-85.5 -46.5t-64.5 -69.5t-32 -92.5z " />
<glyph unicode="&#x1022;" horiz-adv-x="1910" d="M90 168l152 69q5 -31 26.5 -54.5t54.5 -23.5q19 0 33 14t14 33q0 22 -15 33l-260 191q-2 20 -3.5 41.5t-1.5 41.5q0 109 32.5 202.5t94 162.5t150.5 108t201 39q118 0 219 -48.5t167 -147.5q68 98 168.5 147t218.5 49q113 0 202 -39.5t150.5 -108.5t94 -162.5 t32.5 -201.5q0 -111 -33.5 -205t-96 -162.5t-152.5 -107t-203 -38.5q-49 1 -96.5 10t-95.5 21l34 156q32 -8 64 -15.5t65 -11.5q11 -2 22 -2h22q75 2 129 32t89 79t52 112.5t17 131.5q0 69 -17.5 133t-53.5 113t-92 78.5t-133 29.5q-76 0 -131.5 -29.5t-91.5 -79 t-53.5 -113.5t-17.5 -132q0 -86 -20.5 -166t-62 -147.5t-104 -118.5t-146.5 -80l-71 151q64 25 106.5 60t68 80t36 100.5t10.5 120.5q0 69 -17.5 133t-54 113t-92 78.5t-132.5 29.5q-78 0 -133.5 -30t-91.5 -80t-53 -114.5t-17 -133.5q39 -28 87.5 -59t90.5 -67.5t70.5 -81 t28.5 -99.5q0 -43 -18.5 -79.5t-49 -63.5t-69.5 -42t-81 -15q-85 0 -146.5 44.5t-95.5 121.5z" />
<glyph unicode="&#x1023;" horiz-adv-x="1901" d="M89 516q0 108 32.5 201t94 161.5t150 107.5t199.5 39q118 0 218.5 -48t166.5 -146q68 97 168 145.5t218 48.5q113 0 201 -39t149.5 -107.5t93.5 -161.5t32 -201q0 -109 -32.5 -202t-94 -161.5t-149.5 -107.5t-200 -39q-25 0 -43.5 1t-36 3.5t-36 6.5t-42.5 10l34 154 q35 -8 67.5 -13t67.5 -5q73 2 126.5 32.5t88 79t51.5 111.5t17 130q0 68 -17.5 132t-53.5 113t-91.5 78.5t-131.5 29.5t-131.5 -29.5t-91.5 -78.5t-53.5 -112.5t-17.5 -132.5v-255h-183v261q0 67 -18 129.5t-55 111t-92 77.5t-129 29q-76 0 -131 -29.5t-91 -78.5t-53.5 -113 t-17.5 -132q0 -67 17 -130t51.5 -111.5t88 -79t126.5 -32.5q33 0 64 4t63 12l34 -154q-25 -6 -42 -9.5t-32.5 -5.5t-33 -3t-43.5 -1q-112 0 -200.5 39t-149.5 107.5t-93.5 162t-32.5 201.5zM304 -393q0 79 26 143t72 110t109.5 72.5t137.5 31.5q11 1 20.5 1.5t20.5 -0.5 q79 -1 153 -29t128 -87q55 60 131 88.5t157 28.5q80 0 148 -22t117.5 -64.5t77.5 -106.5t28 -148q0 -65 -23.5 -119t-77.5 -84q-14 -8 -41 -15.5t-54 -16.5t-47 -20t-20 -26q0 -11 7.5 -15t18.5 -4q12 0 26.5 3.5t28 7.5t25 8t16.5 6l54 -113q-39 -13 -80.5 -23t-83.5 -10 q-28 0 -56.5 5.5t-52.5 18.5t-41 34t-24 52q-2 8 -3 17t-1 18q0 43 11 70t29 43t40.5 24t46.5 13t46.5 10.5t40.5 16t29 29.5t11 52q0 93 -51 147.5t-145 54.5q-67 0 -106.5 -23.5t-60 -62.5t-26 -89.5t-4.5 -104.5h-184q0 54 -5 104.5t-24.5 89.5t-58 62.5t-106.5 23.5 q-94 0 -146 -55t-52 -147q0 -69 16.5 -109t48 -60.5t78 -26t106.5 -5.5v-157q-33 -3 -65 -3q-82 0 -149.5 22t-115.5 67t-74.5 113t-26.5 159z" />
<glyph unicode="&#x1024;" horiz-adv-x="2229" d="M89 515q0 108 32.5 201.5t94 162.5t150.5 108.5t202 39.5q118 0 218.5 -49t168.5 -147q33 50 75.5 86.5t92 61t105 36.5t114.5 12q113 0 202.5 -39.5t151 -108.5t94 -162.5t32.5 -201.5v-1012q0 -65 -14.5 -112t-47 -78.5t-83.5 -46.5t-124 -15h-1106q-138 0 -203 66.5 t-65 203.5q0 130 71.5 191t196.5 61h952v-158h-952q-29 0 -46 -7t-25.5 -20.5t-11 -33.5t-2.5 -45t2.5 -44t11 -31.5t25.5 -18.5t46 -6h1106q28 0 45 5t26 16.5t12 29t3 43.5v1012q0 69 -17.5 133.5t-54 113.5t-92.5 78.5t-133 29.5t-133 -29.5t-92 -79t-53.5 -113.5 t-17.5 -133v-256h-183v262q0 68 -18 130.5t-55 111.5t-92 78t-130 29q-77 0 -133 -29.5t-92 -79t-53.5 -113.5t-17.5 -133t17.5 -133.5t53.5 -114t92 -79t133 -29.5q42 0 83 9.5t82 20.5l36 -156q-49 -12 -99.5 -21.5t-101.5 -9.5q-114 0 -203 39t-150.5 108t-93.5 163 t-32 203zM1369 1447q0 84 29 153.5t80.5 119t122 77t154.5 27.5q95 0 167 -30.5t120 -85.5t72.5 -131t24.5 -167h-183q0 52 -8.5 98.5t-31 81.5t-62 55.5t-99.5 20.5q-50 0 -87.5 -16.5t-63 -45.5t-38 -69t-12.5 -88q0 -55 12 -92t33 -62.5t49.5 -42.5t62.5 -31t71 -28 t75 -34q140 -72 203 -181t63 -266l1 -1468h-183l-1 1468q0 79 -15.5 131t-42.5 87t-64.5 58t-82.5 43l-94.5 42t-101.5 55q-51 33 -83.5 64.5t-52 68.5t-27 82.5t-7.5 105.5z" />
<glyph unicode="&#x1025;" horiz-adv-x="1124" d="M89 656q24 86 66 154.5t100.5 116t133.5 73t166 25.5q114 0 203 -39.5t150.5 -108.5t94 -163t32.5 -203t-32.5 -203t-94 -163t-150.5 -108.5t-203 -39.5q-73 0 -143 20.5t-130 62.5v-541q0 -38 5.5 -63.5t19.5 -42t39 -23.5t64 -7h318q51 0 82 32t31 83q0 43 -17.5 66.5 t-45.5 34t-62 12.5t-66 2q-21 0 -42 -2t-38 -10.5t-26.5 -25t-8.5 -45.5h-175q0 74 23.5 121t65.5 73.5t99 36.5t124 10h55q60 0 114.5 -19t95 -54.5t64.5 -86.5t24 -114t-24 -113.5t-64.5 -86t-94.5 -54.5t-114 -19h-318q-146 0 -228.5 71.5t-82.5 223.5v797l167 46 q15 -56 39 -98.5t58.5 -71t81.5 -43t110 -14.5q77 0 133 29.5t92.5 79t54 114t17.5 133.5t-17.5 133.5t-54 114t-92.5 79t-133 29.5q-63 0 -110 -19.5t-81.5 -54t-58.5 -82.5t-40 -104z" />
<glyph unicode="&#x1026;" horiz-adv-x="1119" d="M89 656q24 86 65.5 154t100 115.5t133.5 73t165 25.5q113 0 202 -39.5t150 -108.5t93 -162.5t32 -201.5t-32 -201.5t-93 -162.5t-150 -108.5t-202 -39.5q-73 0 -142 20.5t-129 62.5v-522q0 -37 5 -62.5t19 -41.5t38.5 -23t63.5 -7h317q49 0 81 31.5t32 81.5 q0 39 -14.5 62t-38.5 35t-54.5 15t-61.5 3h-22q-21 0 -42 -2t-37.5 -10.5t-26.5 -25t-8 -45.5h-175q0 74 23.5 120.5t65 73t98.5 36t124 9.5h55q60 0 114 -18.5t94.5 -54t64.5 -86t24 -113.5t-24 -113t-64.5 -85t-94.5 -53.5t-113 -18.5h-317q-73 0 -130 17.5t-97 53.5 t-61 91t-21 130v777l165 47q16 -56 39.5 -98.5t58 -71.5t81.5 -43.5t110 -14.5q77 0 132.5 29.5t91.5 79t53.5 113.5t17.5 133t-17.5 133t-53.5 113t-91.5 78.5t-132.5 29.5q-63 0 -110 -19t-81.5 -53.5t-58 -82t-40.5 -103.5zM177 1447q0 82 27.5 150t77 116.5t118.5 75.5 t153 27t152.5 -27t118 -76t76.5 -117t27 -149t-27 -149t-76.5 -117t-118 -76t-152.5 -27t-153 27t-118.5 76t-77 116.5t-27.5 149.5zM341 1447q0 -26 6 -52q104 61 199 61q51 0 106.5 -16t105.5 -46q6 26 6 53q0 53 -14.5 95.5t-42 72.5t-66.5 46t-88 16t-88.5 -16t-67 -46 t-42 -72.5t-14.5 -95.5zM380 1296q33 -38 72.5 -54t93.5 -16q52 0 97 19t66 51q-15 12 -34.5 22.5t-41 18t-44 11.5t-42.5 4q-48 0 -90.5 -14t-76.5 -42z" />
<glyph unicode="&#x1027;" horiz-adv-x="1113" d="M89 513q0 109 32 202.5t93.5 162.5t150.5 108t202 39q140 0 248.5 -67t173.5 -190q11 -21 23 -48t12 -51q0 -12 -1 -24t-2 -26q-29 -27 -70 -46.5t-86 -32.5t-90.5 -19.5t-84.5 -6.5q-57 0 -112.5 10.5t-104.5 33.5t-90.5 59.5t-70.5 88.5q-20 -45 -29.5 -94t-9.5 -99 q0 -55 10.5 -108t33.5 -102q30 42 70.5 76t87.5 57t98 35.5t103 12.5q38 0 86 -4t96 -14.5t91.5 -28t71.5 -43.5q1 -12 2 -24.5t1 -25.5q0 -11 -4 -24.5t-10 -27t-12.5 -26.5t-12.5 -23q-66 -120 -173.5 -182t-244.5 -62q-113 0 -201.5 39.5t-150 109t-94 163.5t-32.5 202z M432 835q28 -90 98 -136t163 -46q35 0 69.5 8t66.5 25q-35 83 -102.5 132t-159.5 49q-35 0 -69.5 -7.5t-65.5 -24.5zM435 188q30 -17 64 -24t68 -7q90 0 158.5 45.5t103.5 126.5q-32 17 -66.5 24t-69.5 7q-44 0 -84.5 -10.5t-74 -32t-59 -54t-40.5 -75.5z" />
<glyph unicode="&#x1028;" horiz-adv-x="2317" />
<glyph unicode="&#x1029;" horiz-adv-x="2143" d="M102 -503v2037q0 128 71 188.5t194 60.5h1378q125 0 195 -60.5t70 -188.5v-120h-183q1 28 1.5 55t0.5 55q0 26 -2 45t-10.5 31.5t-25.5 18.5t-46 6h-1378q-27 0 -43.5 -4.5t-25.5 -15.5t-11.5 -28t-2.5 -43v-2037q0 -26 2.5 -43.5t11.5 -28t25.5 -15t43.5 -4.5h1393 q28 0 44.5 4.5t25 15.5t11 28t2.5 43v578q-57 -38 -125 -57t-138 -19q-118 0 -216.5 48t-166.5 146q-66 -98 -166 -146t-216 -48q-93 0 -168 26t-132 74.5t-96.5 116.5t-63.5 152l173 55q14 -56 36 -105t55.5 -85t81.5 -56.5t114 -20.5q76 0 131 29.5t91 78.5t53 112.5 t17 131.5t-17 131.5t-53 112.5t-91 78t-131 29q-68 0 -116.5 -20.5t-82 -57t-55.5 -86.5t-36 -108l-175 47q23 87 63 158t97.5 120.5t133 76.5t171.5 27q84 0 157 -23.5t131 -68t99.5 -108.5t62.5 -145q16 -50 20 -101.5t4 -103.5q0 -23 4.5 -46t12.5 -46q31 -102 97.5 -160 t176.5 -58q75 0 130 29.5t91 78t53 112t17 130.5q0 68 -17 131.5t-52.5 112t-90.5 78t-131 29.5q-21 0 -37 -1.5t-30.5 -4t-30 -6.5t-35.5 -9l-35 158q24 5 44 8.5t39 6t39.5 4t45.5 1.5q113 0 201 -38.5t148.5 -107t92.5 -161.5t32 -201q0 -31 -2 -63t-10 -62 q-4 -15 -10 -30t-6 -31v-823q0 -64 -18.5 -110.5t-53 -77t-83.5 -45.5t-111 -15h-1393q-61 0 -110.5 15t-83.5 45.5t-52.5 77t-18.5 110.5z" />
<glyph unicode="&#x102a;" horiz-adv-x="4052" d="M104 512q0 109 32.5 202.5t94 162.5t150.5 108t203 39q195 0 314 -103.5t159 -291.5l-177 -50q-11 61 -33.5 113.5t-58.5 91t-86.5 60.5t-117.5 22q-77 0 -132.5 -30t-91.5 -80t-53.5 -114t-17.5 -133q0 -47 10 -91q70 65 160.5 95t186.5 30q53 0 112.5 -11.5 t114.5 -35.5t100 -61t69 -88q-23 -82 -65.5 -147t-101 -110t-132 -68.5t-159.5 -23.5q-114 0 -203 39.5t-150.5 108.5t-94 163t-32.5 203zM377 243q40 -43 94 -64.5t113 -21.5q87 0 154 43t103 123q-40 35 -91.5 48.5t-103.5 13.5q-40 0 -79.5 -8.5t-75 -26t-64.5 -44.5 t-50 -63zM1134 -496v2036q0 70 20.5 117.5t57 77t88 42.5t113.5 13h1322q62 0 113.5 -13t88 -42t57 -77t20.5 -118v-120h-184q1 28 1.5 55t0.5 55q0 24 -2 42t-9.5 30.5t-22 19.5t-40.5 8q-6 2 -11 2h-1346q-26 0 -42 -4t-24.5 -14t-12 -25.5t-4.5 -38.5q0 -2 -0.5 -4.5 t-0.5 -5.5v-2036q0 -24 2 -41t9.5 -27.5t22 -15.5t39.5 -6q3 -1 11 -1h1402q26 0 42 4t24.5 13.5t11.5 24.5t4 38q1 3 1 11v572q-58 -40 -125.5 -58.5t-138.5 -18.5q-119 0 -218.5 48t-167.5 146q-67 -99 -166.5 -146.5t-217.5 -47.5q-92 0 -167 26t-133 74t-99 116.5 t-65 154.5l173 56q15 -58 38 -107.5t57.5 -85.5t82.5 -56t113 -20q76 0 131.5 29.5t91.5 78.5t53.5 113t17.5 133t-17 133t-53 113t-91.5 78.5t-132.5 29.5q-67 0 -116 -20.5t-83 -57t-56.5 -87t-37.5 -109.5l-176 47q24 89 64.5 160.5t98.5 121t134.5 76t171.5 26.5 q125 0 214.5 -42t148 -115.5t86 -173t27.5 -215.5q0 -25 5 -49.5t12 -48.5q15 -49 39.5 -90t59 -70t79 -45t99.5 -16q76 0 131 29.5t91 78.5t53 112.5t17 131.5t-17 132t-53 113.5t-91 79t-131 29.5q-35 0 -68.5 -7t-65.5 -15l-36 159q42 9 84 15t86 6q117 0 218.5 -49 t167.5 -147q66 103 169 152t223 49q114 0 203.5 -39.5t151.5 -109t94.5 -163.5t32.5 -203q0 -108 -32.5 -202.5t-94 -164t-150 -109.5t-200.5 -40q-53 0 -103.5 8.5t-101.5 21.5l32 154q42 -9 84 -18.5t84 -9.5q78 0 134 30t93 80t54.5 115t17.5 135t-17.5 134.5t-54.5 114 t-93.5 79.5t-133.5 30q-79 0 -132 -24.5t-86 -65t-49.5 -93t-22.5 -108.5q-5 -54 -8.5 -104t-14.5 -92q-4 -15 -9.5 -29.5t-7.5 -30.5h1v-818q0 -128 -71.5 -189t-196.5 -61h-1402q-124 0 -195.5 61t-71.5 189zM3044 1422q0 83 28 150.5t78 115.5t118.5 74.5t150.5 26.5 q83 0 149.5 -24.5t115 -70t77 -111t34.5 -147.5l-176 -51q0 14 0.5 26.5t-0.5 26.5q-3 42 -16.5 78.5t-37.5 63.5t-60 42.5t-86 15.5q-49 0 -86.5 -16t-62.5 -44.5t-37.5 -68.5t-12.5 -87q0 -65 16.5 -107t48.5 -66t78.5 -33t106.5 -9l-9 -152q-89 0 -165.5 21.5t-132.5 66 t-87.5 114t-31.5 165.5z" />
<glyph unicode="&#x102b;" horiz-adv-x="333" d="M-326 1115v467l398 226h172v-1803h-182v1610l-210 -124v-376h-178z" />
<glyph unicode="&#x102c;" horiz-adv-x="791" d="M-266 531q13 108 45.5 199.5t90.5 158.5t144 104.5t206 37.5q114 0 203.5 -39.5t151.5 -109t94.5 -163.5t32.5 -203t-32.5 -203.5t-94.5 -164t-151.5 -109t-203.5 -39.5q-32 0 -64 4t-64 10l24 156q26 -6 52 -10t52 -4q78 0 134.5 30t93 80t54.5 115t18 135t-18 134.5 t-54.5 114.5t-93 80t-134.5 30q-84 0 -139 -30.5t-89.5 -81.5t-52 -117t-25.5 -136z" />
<glyph unicode="&#x102d;" d="M-956 1434q0 63 20 129t65.5 121t118 90t177.5 35t178 -35t118 -90t65.5 -121.5t20.5 -128.5t-20.5 -128t-65.5 -121t-118 -90t-178 -35t-177.5 35t-118 89.5t-65.5 121t-20 128.5zM-779 1434q0 -46 12.5 -86.5t38 -70.5t64 -47t89.5 -17q52 0 90 17t63.5 47t38 70.5 t12.5 86.5q0 47 -12.5 87.5t-38 70.5t-63.5 47t-90 17q-51 0 -89.5 -17t-64 -47t-38 -70.5t-12.5 -87.5z" />
<glyph unicode="&#x102e;" d="M-958 1441q0 83 27.5 152t78 118.5t121 77t156.5 27.5q85 0 155 -27.5t120.5 -77t78 -118.5t27.5 -152t-27.5 -152t-78 -119t-120.5 -77.5t-155 -27.5q-86 0 -156.5 27.5t-121 77t-78 119t-27.5 152.5zM-791 1441q0 -29 7 -53q105 62 202 62q51 0 108 -16t107 -46 q7 24 7 53q0 54 -15 97t-42.5 73.5t-67.5 47t-90 16.5t-90 -16.5t-68 -47t-43 -73.5t-15 -97zM-751 1287q34 -39 74 -55.5t95 -16.5q54 0 99 19.5t66 52.5q-15 13 -35 23.5t-41.5 18t-44 11.5t-43.5 4q-48 0 -91.5 -14.5t-78.5 -42.5z" />
<glyph unicode="&#x102f;" d="M-644 -40h193v-555h198v-165h-292q-31 0 -50.5 9t-30 22t-14.5 28t-4 26v635z" />
<glyph unicode="&#x1030;" d="M-769 -40h191v-722h-191v722zM-472 -40h192v-556h204v-166h-298q-31 0 -50.5 9t-30 22.5t-14 28t-3.5 26.5v636z" />
<glyph unicode="&#x1031;" horiz-adv-x="1123" d="M89 512q0 109 32 202.5t93.5 162.5t150.5 108t203 39q94 0 169 -25.5t132.5 -74t98.5 -118t66 -157.5l-175 -46q-15 58 -38 106.5t-58 83.5t-83 54.5t-112 19.5q-76 0 -132 -29.5t-92.5 -79t-54 -113.5t-17.5 -133q0 -23 2.5 -47t7.5 -47q70 66 161 96t186 30 q57 0 115 -11t110.5 -35t97 -60.5t74.5 -87.5q-18 -81 -61.5 -146t-104.5 -110.5t-136 -70t-156 -24.5q-113 0 -202 39.5t-150.5 108.5t-94 163t-32.5 202zM361 243q39 -43 94 -65t113 -22q88 0 154.5 42.5t103.5 123.5q-41 35 -92.5 49.5t-104.5 14.5q-82 0 -154 -34 t-114 -109z" />
<glyph unicode="&#x1032;" d="M-920 1495l89 154l706 -390l-90 -155z" />
<glyph unicode="&#x1033;" horiz-adv-x="682" />
<glyph unicode="&#x1034;" horiz-adv-x="682" />
<glyph unicode="&#x1035;" d="M-924 1441q0 83 27.5 150.5t76.5 115t117.5 73.5t150.5 26q64 0 115.5 -12.5t93 -39t75.5 -66.5t65 -96l-125 -68q-36 73 -88.5 109.5t-135.5 36.5q-54 0 -93.5 -16t-65.5 -45t-40 -69t-17 -88q-1 -10 -1.5 -20.5t0.5 -21.5q45 45 101.5 69t119.5 24q106 0 191.5 -47 t129.5 -146q3 -7 3 -14q0 -14 -9 -30t-16 -28q-56 -84 -128.5 -123.5t-174.5 -39.5q-83 0 -151 26t-117.5 74t-76.5 115.5t-27 150.5zM-726 1298q34 -44 76 -65.5t98 -21.5q52 0 99 25t66 76q-13 18 -32.5 32t-42 23.5t-46.5 14t-46 4.5q-58 0 -97.5 -21.5t-74.5 -66.5z" />
<glyph unicode="&#x1036;" d="M-733 1390q0 45 15.5 83t43 65.5t65.5 43t83 15.5t83 -15.5t65.5 -43.5t43 -65.5t15.5 -82.5t-15.5 -83t-43 -65.5t-65.5 -43t-83 -15.5t-83 15.5t-65.5 43t-43 65.5t-15.5 83zM-591 1390q0 -29 18 -47.5t47 -18.5q30 0 47.5 18.5t17.5 47.5t-18 47.5t-47 18.5t-47 -18.5 t-18 -47.5z" />
<glyph unicode="&#x1037;" d="M-791 -326q0 45 15.5 83t43 65.5t65.5 43t83 15.5t82.5 -15.5t65 -43.5t43 -65.5t15.5 -82.5t-15.5 -83t-42.5 -65.5t-65 -43t-83 -15.5t-83 15.5t-65.5 43t-43 65.5t-15.5 83zM-649 -326q0 -29 17.5 -47.5t47.5 -18.5q29 0 47 18.5t18 47.5t-18 47.5t-47 18.5 q-30 0 -47.5 -18.5t-17.5 -47.5z" />
<glyph unicode="&#x1038;" horiz-adv-x="560" d="M86 216q0 43 14.5 78.5t40 61t61.5 40t78 14.5t77.5 -14.5t61.5 -40t40.5 -61.5t14.5 -78t-14.5 -77.5t-40 -61.5t-61.5 -40.5t-78 -14.5t-78 14.5t-61.5 40t-40 61.5t-14.5 78zM86 826q0 42 14.5 78t40 62t61.5 40.5t78 14.5t77.5 -14.5t61.5 -41t40.5 -62t14.5 -77.5 t-14.5 -77.5t-40 -61.5t-61.5 -40.5t-78 -14.5t-78 14.5t-61.5 40t-40 61.5t-14.5 78zM220 216q0 -27 16.5 -44t43.5 -17q28 0 44.5 17t16.5 44q0 28 -17 45t-44 17t-43.5 -17t-16.5 -45zM220 826q0 -27 16.5 -44t43.5 -17q28 0 44.5 17t16.5 44t-16.5 44.5t-44.5 17.5 q-27 0 -43.5 -17.5t-16.5 -44.5z" />
<glyph unicode="&#x1039;" d="M-799 -275h232v221h141v-221h233v-129h-233v-223h-141v223h-232v129z" />
<glyph unicode="&#x103a;" d="M-927 1426q0 86 28.5 155.5t79.5 118.5t122 76t156 27q83 0 151.5 -24.5t118 -70.5t79.5 -112.5t36 -149.5l-180 -46q-2 51 -12.5 96t-33.5 79t-61.5 53.5t-97.5 19.5q-51 0 -89.5 -16.5t-64.5 -46t-39 -70.5t-13 -89q0 -75 20 -118.5t54.5 -66t81.5 -29.5t101 -9 l-9 -155q-92 0 -170.5 22t-135.5 68t-89.5 117.5t-32.5 170.5z" />
<glyph unicode="&#x103b;" horiz-adv-x="323" d="M-337 265l177 40v-737l210 -121v1575h180v-1777h-165l-402 237v783z" />
<glyph unicode="&#x103c;" horiz-adv-x="343" d="M89 -507v2016q0 128 71.5 189.5t195.5 61.5h678q124 0 194 -61.5t70 -189.5v-88h-182q0 30 2 62t-3 59t-23 44t-58 17h-678q-28 0 -45 -5t-26 -16t-11.5 -29t-2.5 -44v-2016q0 -26 2.5 -44t11.5 -29t26 -16t45 -5h692q29 0 45.5 4.5t25 15.5t11 29t2.5 45v752l182 97 v-849q0 -130 -70 -190.5t-196 -60.5h-692q-62 0 -111.5 15t-84 46t-53 78.5t-18.5 111.5z" />
<glyph unicode="&#x103d;" d="M-913 -409q0 62 20.5 127.5t65.5 119.5t117.5 88.5t176.5 34.5q69 0 124 -16t97 -43.5t71.5 -64t48.5 -77.5t28 -84.5t9 -84.5q0 -62 -20.5 -127.5t-65.5 -119.5t-117 -88.5t-175 -34.5q-104 0 -176.5 34.5t-117.5 88.5t-65.5 119.5t-20.5 127.5zM-733 -409 q0 -45 12.5 -84.5t37.5 -68.5t62.5 -45.5t87.5 -16.5t87 16.5t61.5 45.5t36.5 68.5t12 84.5t-12 84.5t-36.5 68.5t-61.5 45.5t-87 16.5t-87.5 -16.5t-62.5 -45.5t-37.5 -68.5t-12.5 -84.5z" />
<glyph unicode="&#x103e;" d="M-791 -593h202v555h178v-607q0 -15 -4.5 -33t-17 -33.5t-34.5 -25.5t-58 -10h-266v154z" />
<glyph unicode="&#x103f;" horiz-adv-x="2672" d="M89 616q27 92 66 167t95 128.5t133 82.5t182 29q84 0 157.5 -24t131.5 -69t99.5 -109t62.5 -145q17 -52 21 -101t4 -103q0 -9 1.5 -16t3.5 -15q14 -61 35 -113t54 -90t82 -59.5t119 -21.5q75 0 130 30t91.5 79.5t54.5 113t18 130.5q0 69 -17 133t-53 113.5t-91.5 79 t-132.5 29.5q-42 0 -83 -9.5t-82 -19.5l-34 156q49 11 98.5 20.5t100.5 9.5q83 0 155.5 -24t131 -68t100 -107.5t63.5 -142.5q19 -56 22 -107.5t3 -110.5q0 -5 1 -10.5t3 -10.5q14 -61 35 -113.5t54 -90t82 -59t119 -21.5q77 0 132.5 29.5t91.5 78t53 112.5t17 133t-17 133 t-53 113.5t-91.5 79t-132.5 29.5q-42 0 -83.5 -9.5t-82.5 -19.5l-33 156q50 11 99 20.5t100 9.5q113 0 201.5 -39.5t150 -108.5t94 -162.5t32.5 -201.5t-32.5 -201t-94 -162t-150.5 -108t-201 -39q-118 0 -218 47.5t-167 145.5q-66 -97 -166.5 -145t-217.5 -48 q-118 0 -218.5 47.5t-167.5 146.5q-67 -99 -167 -147t-218 -48q-103 0 -180.5 29.5t-134 83t-95 128.5t-64.5 167l175 49q15 -61 37 -115.5t56 -95.5t84 -65t122 -24q77 0 132.5 29.5t91.5 79t53 113.5t17 133t-17 133t-53 113.5t-91.5 79t-132.5 29.5q-73 0 -123 -23.5 t-84 -64.5t-55.5 -95.5t-37.5 -116.5z" />
<glyph unicode="&#x1040;" horiz-adv-x="1171" d="M91 516q0 105 30.5 197t89 161.5t143.5 111.5t194 46l-1 -159q-71 -5 -122.5 -37.5t-84.5 -82t-49 -111t-16 -126.5q0 -64 16 -126t49 -111.5t84.5 -81.5t122.5 -38l2 -159q-110 5 -195 46.5t-143.5 111t-89 161.5t-30.5 197zM583 -1l2 159q74 2 128 33t89 81t52 113.5 t17 130.5q0 68 -17 131.5t-52 113t-89 80.5t-128 33l-2 158q113 -2 200.5 -42.5t148.5 -109.5t92.5 -162.5t31.5 -201.5t-31.5 -201.5t-92.5 -163t-148.5 -110t-200.5 -42.5z" />
<glyph unicode="&#x1041;" horiz-adv-x="1126" d="M91 368l176 46q16 -55 39.5 -102.5t58 -82t82 -54t110.5 -19.5q77 0 132.5 30t91.5 79.5t53.5 114t17.5 133.5t-17.5 133t-53.5 113.5t-91.5 79t-132.5 29.5q-64 0 -111.5 -19.5t-82 -54t-58 -81.5t-39.5 -103l-175 48q25 86 66.5 154t99 115t132.5 72.5t168 25.5 q114 0 202.5 -39t150 -108t93.5 -162.5t32 -202.5t-32 -203t-93 -163t-150 -108.5t-203 -39.5q-93 0 -167.5 26t-132 74t-99 116t-67.5 153z" />
<glyph unicode="&#x1042;" horiz-adv-x="1149" d="M123 -185h178v-77q0 -68 17 -130.5t52.5 -110.5t90.5 -76.5t130 -28.5t129 28.5t89.5 76.5t52.5 110.5t17 130.5l-6 1286h185v-1286q0 -106 -31.5 -197.5t-91.5 -159t-146.5 -106t-197.5 -38.5q-79 0 -149 22t-126 63t-97.5 101t-63.5 135q-13 34 -19.5 65t-9.5 62t-3 63 v67z" />
<glyph unicode="&#x1043;" horiz-adv-x="1157" d="M91 658q24 86 65.5 154t99.5 115t133.5 72.5t166.5 25.5q114 0 202.5 -39t150 -108t93.5 -162.5t32 -201.5q0 -109 -32 -203t-93.5 -163t-150.5 -108.5t-202 -39.5q-30 0 -60.5 3.5t-59.5 11.5l329 -770h-195l-448 1038l175 63q21 -58 39.5 -94.5t45.5 -57.5t68 -29 t106 -8q77 0 132.5 30t92 80t54 114t17.5 133t-17.5 133t-54 113t-92 78.5t-132.5 29.5q-64 0 -111 -19.5t-81.5 -54t-57.5 -81.5t-40 -103z" />
<glyph unicode="&#x1044;" horiz-adv-x="1157" d="M123 514q0 108 32 201.5t93.5 162.5t150 108t202.5 39q92 0 167 -25.5t133 -72.5t99.5 -115t65.5 -154l-175 -48q-16 56 -39.5 103t-58 81.5t-81.5 54t-111 19.5q-76 0 -132 -29.5t-92.5 -78.5t-54 -113t-17.5 -133t17.5 -133t54 -114t92.5 -80t132 -30q65 0 106 8t68 29 t45.5 57.5t39.5 94.5l175 -63l-448 -1038h-195l329 770q-29 -8 -59.5 -11.5t-60.5 -3.5q-113 0 -202 39.5t-150.5 108.5t-93.5 163t-32 203z" />
<glyph unicode="&#x1045;" horiz-adv-x="1171" d="M91 -230h189q0 -74 15 -145.5t50 -127.5t93.5 -90t146.5 -34q78 0 135.5 30.5t95 81.5t55.5 117t18 137v756q0 72 -18 138t-55 116.5t-94.5 81t-136.5 30.5q-61 0 -110.5 -20t-86.5 -55.5t-62 -84t-36 -105.5q11 4 23.5 5.5t24.5 1.5q45 0 88.5 -16t78 -45.5t55.5 -69.5 t21 -88q0 -45 -17.5 -82t-47.5 -64t-69.5 -42t-82.5 -15q-67 0 -118.5 26t-85.5 69.5t-51.5 100t-17.5 118.5q0 113 33.5 209.5t97 167.5t155 111.5t208.5 40.5q165 0 283.5 -81t174.5 -230q5 -14 9.5 -29.5t9.5 -30.5q7 -28 12 -56t5 -57l1 -801q0 -112 -33.5 -208.5 t-97.5 -168t-156 -112t-208 -40.5q-81 0 -153 21.5t-132 63t-105 100.5t-71 134q-20 58 -26.5 119t-6.5 122zM274 439q5 -19 13 -37t20 -32t28.5 -22.5t37.5 -8.5q28 0 44.5 18t16.5 46q0 32 -24 53t-55 21q-23 0 -43.5 -11.5t-37.5 -26.5z" />
<glyph unicode="&#x1046;" horiz-adv-x="1171" d="M91 485v776q0 112 33.5 209t97 168t155 112t208.5 41q136 0 230 -42.5t153 -118t85.5 -179.5t26.5 -228h-190q0 80 -12.5 153.5t-46 129t-93 88.5t-153.5 33q-78 0 -135.5 -30.5t-95 -81.5t-55.5 -117t-18 -137v-731q0 -71 18 -137t55 -117t94.5 -81.5t136.5 -30.5 q56 0 109.5 7t95 29t67 63.5t25.5 109.5q0 67 -18 107t-47.5 64t-67.5 38t-77.5 28t-77.5 34.5t-67 57.5q-23 30 -37 65.5t-14 73.5q0 50 22 94.5t58 78.5t82.5 53.5t95.5 19.5q97 0 164.5 -43t105.5 -133l-165 -92q-6 17 -15.5 33.5t-23 29.5t-30.5 20.5t-37 7.5 q-13 0 -25 -6t-21 -16t-14.5 -22.5t-5.5 -25.5q0 -28 17.5 -47t45.5 -33.5t64.5 -27.5t74 -30t74 -40.5t64.5 -59.5t45.5 -87t17.5 -122q0 -111 -39 -186t-105.5 -121t-154.5 -65.5t-186 -19.5q-89 0 -165.5 24.5t-137 70.5t-104.5 113.5t-68 152.5q-8 30 -13.5 60.5 t-5.5 62.5z" />
<glyph unicode="&#x1047;" horiz-adv-x="1171" d="M91 499q0 112 33.5 208.5t97.5 168t155.5 112t208.5 40.5q119 0 211 -41t155 -112.5t95.5 -169t32.5 -211.5q0 -57 -10.5 -112t-26.5 -109t-35.5 -107t-38.5 -105q-22 -59 -42 -119t-35.5 -121.5t-24.5 -123.5t-9 -126q0 -25 3.5 -59t14.5 -65t31.5 -52.5t53.5 -21.5 q17 0 33 1l32 2l-1 -166q-96 -1 -163.5 20.5t-110.5 66.5t-62.5 114t-19.5 163q0 118 24 232t63 226q20 57 43.5 113.5t43.5 114t33.5 116.5t13.5 120q0 72 -17.5 138.5t-54.5 118t-94.5 82t-137.5 30.5q-79 0 -137 -30.5t-95.5 -81.5t-55.5 -117t-18 -137 q0 -73 11.5 -133.5t40 -106.5t78 -75.5t125.5 -40.5l-50 -175q-106 21 -181 65.5t-122.5 111.5t-69 156t-21.5 198z" />
<glyph unicode="&#x1048;" horiz-adv-x="1157" d="M91 502q0 111 32.5 208t95 169t153 113.5t207.5 41.5t207.5 -41.5t153 -113.5t95 -169t32.5 -208q0 -90 -20 -169.5t-61 -144.5t-103.5 -115.5t-148.5 -83.5l-72 149q61 22 103 59t68 84.5t37.5 103.5t11.5 117q0 71 -17.5 138t-54 119t-94 83.5t-137.5 31.5 q-93 0 -161.5 -47.5t-103.5 -132.5q69 -9 121.5 -40.5t88 -78.5t53.5 -107t18 -126q0 -117 -50 -204t-159 -135q-78 35 -134 86.5t-91.5 115.5t-52.5 139t-17 158zM284 477q0 -37 6.5 -75.5t21.5 -74t39 -66.5t59 -52q33 27 45.5 66.5t12.5 80.5q0 30 -10 61.5t-30 57 t-49 42t-67 16.5h-24q-2 -14 -3 -28t-1 -28z" />
<glyph unicode="&#x1049;" horiz-adv-x="1139" d="M91 -68.5q0 105.5 0.5 212t0.5 212v201.5q0 104 37.5 190t103 147.5t155 96t193.5 34.5q95 0 180 -31.5t149 -89.5t101.5 -138.5t37.5 -179.5q0 -64 -18 -114t-50 -86.5t-77.5 -59.5t-101.5 -35q-18 -4 -44.5 -7.5t-51 -11t-42 -21.5t-17.5 -38q0 -21 15 -40.5t36 -21.5 q12 -2 23.5 -2t22.5 5q23 7 39.5 27t22.5 45l161 -72q-72 -167 -251 -167q-46 0 -91.5 16.5t-81.5 46.5t-58 71.5t-22 90.5q0 48 21 92t61 71q28 20 62.5 31t70.5 19.5t70 18t60.5 26t42.5 44t16 71.5q0 62 -22 114t-60.5 89.5t-91 58.5t-114.5 21q-82 0 -140 -27t-94.5 -75 t-53 -113t-16.5 -140v-783q0 -68 17.5 -131.5t53.5 -113t91.5 -79.5t130.5 -30q74 0 128.5 27.5t90.5 74t54.5 107t20.5 125.5q1 14 1.5 28t0.5 29h182v-47q-1 -107 -34 -198.5t-94.5 -158.5t-150 -105.5t-199.5 -38.5q-113 0 -201.5 39t-150 108t-93.5 162.5t-32 201.5 v201.5z" />
<glyph unicode="&#x104a;" horiz-adv-x="379" d="M95 4v998h187v-998h-187z" />
<glyph unicode="&#x104b;" horiz-adv-x="682" d="M95 4v998h187v-998h-187zM398 4v998h187v-998h-187z" />
<glyph unicode="&#x104c;" horiz-adv-x="1114" d="M90 659q24 86 65 153.5t98.5 114t132 71.5t164.5 25q112 0 200 -38.5t149 -107t93 -161t32 -200.5t-32 -200.5t-93 -161t-149 -107.5t-200 -39q-72 0 -140.5 20t-126.5 61v-89q63 -34 132.5 -47.5t139.5 -13.5q40 0 81.5 4t81 16t74.5 33t60 55l110 -76v-463 q0 -60 -19.5 -106.5t-54.5 -78.5t-83.5 -48.5t-106.5 -16.5h-377q-48 0 -89 14.5t-71.5 41.5t-47.5 66t-17 89v66q0 54 27.5 93t69.5 64t92.5 37t96.5 12q49 0 94.5 -5t85 -20t72.5 -44t57 -77l-155 -78q-9 24 -25 37.5t-35.5 20t-42 8t-44.5 1.5q-30 0 -51 -3.5t-34 -14 t-19 -30t-6 -52.5q0 -11 1 -23t5 -22t12.5 -16.5t23.5 -6.5h377q47 0 64 24t17 68v331q-57 -20 -116.5 -29t-119.5 -9q-119 0 -233.5 34.5t-210.5 105.5v404l166 46q32 -112 99 -168.5t186 -56.5q75 0 130 29t91 78t53 112t17 131t-17 131.5t-52.5 112t-90.5 77.5t-131 29 q-61 0 -107.5 -19.5t-80.5 -54t-58 -81.5t-40 -101zM180 1440q0 82 28 148.5t77.5 113.5t117.5 72.5t149 25.5q89 0 157 -27.5t115 -78t72.5 -120.5t28.5 -156l-180 -20q0 50 -8 95.5t-30 80t-59 55t-96 20.5q-47 0 -83.5 -15.5t-61 -43.5t-37.5 -66.5t-13 -83.5 q0 -46 12.5 -84.5t37.5 -66.5t61 -43.5t84 -15.5h89v-152h-89q-81 0 -149.5 25.5t-118 72.5t-77 114t-27.5 150z" />
<glyph unicode="&#x104d;" horiz-adv-x="1376" d="M89 520q0 107 32 198.5t93 159t148 106t198 38.5q151 0 259.5 -70.5t171.5 -207.5q11 -24 20 -51.5t9 -53.5v-1108h-181v1099q0 17 -7 33t-15 31q-22 42 -46.5 74t-55 53.5t-68.5 33t-87 11.5q-64 0 -114 -23t-86 -62.5t-57 -92.5t-27 -113q81 -12 147 -48t112.5 -90.5 t71.5 -125t25 -152.5q0 -18 -1.5 -43t-8.5 -47.5t-21.5 -38t-40.5 -15.5q-111 0 -198.5 39t-148 107t-92.5 160t-32 199zM91 -441q0 60 19.5 106t54.5 77.5t83.5 47.5t105.5 16h365v-156h-365q-30 0 -46.5 -10.5t-24 -27.5t-9 -39t-1.5 -45t3 -42t11.5 -33t24.5 -22t42 -8 h654q47 0 64 23.5t17 66.5q0 284 -0.5 564.5t-0.5 564.5v65q-1 74 -21 125t-52.5 87.5t-76 62.5t-92.5 49q-60 28 -117 54.5t-101.5 67t-72 103t-27.5 161.5q0 84 28.5 152t79 116.5t120 75t152.5 26.5q51 0 102 -12t96.5 -35.5t82.5 -59.5t59 -84q14 -30 22 -56t11.5 -51.5 t4.5 -53t1 -59.5h-184v41q0 46 -12.5 85t-37 67.5t-61 45t-84.5 16.5q-49 0 -86 -16t-61.5 -44.5t-37 -68t-12.5 -85.5q0 -55 8 -89.5t27.5 -58t51 -39.5t77.5 -35q93 -37 166 -80t124 -101t78 -135.5t27 -184.5q0 -297 0.5 -590.5t0.5 -590.5q0 -59 -19.5 -105t-54.5 -77.5 t-83.5 -47.5t-105.5 -16h-654q-57 0 -105.5 16t-83.5 47.5t-54.5 77t-19.5 105.5v46zM286 409q8 -34 21 -67t33 -61.5t47 -50.5t61 -35l-3 27q-11 66 -53.5 116t-105.5 71z" />
<glyph unicode="&#x104e;" horiz-adv-x="1123" d="M89 511q0 109 32.5 203t94 163t150.5 108t202 39q91 0 166.5 -25.5t134 -73t100.5 -115.5t65 -154l-175 -49q-15 57 -38.5 104.5t-58.5 82t-82.5 53.5t-111.5 19q-76 0 -132 -29.5t-92 -79t-53.5 -113.5t-17.5 -133t17.5 -133.5t53.5 -114t92 -79t132 -29.5 q63 0 110.5 19.5t82 54t58 82.5t39.5 104l167 -48v-1150h-183v863q-60 -42 -130 -62.5t-144 -20.5q-113 0 -202 39.5t-150.5 108.5t-94 163t-32.5 203z" />
<glyph unicode="&#x104f;" horiz-adv-x="1674" d="M89 512q0 109 32 203t93.5 163t150 108t202.5 39q75 0 147.5 -22.5t133.5 -66.5q37 20 78.5 30.5t83.5 10.5q55 0 104.5 -17.5t87 -50t59.5 -77.5t22 -100l2 -733h-182l-1 732q0 18 -7.5 34t-19.5 28.5t-28 19.5t-33 7q-25 0 -50 -11q9 -14 19.5 -31.5t19 -35.5t14.5 -37 t6 -36q0 -12 -1 -24t-2 -25q-25 -25 -61.5 -44t-77 -32t-81.5 -19.5t-76 -6.5q-52 0 -112.5 9.5t-118 30t-106.5 52.5t-79 78q-20 -42 -27.5 -86.5t-7.5 -89.5q0 -47 8 -93.5t29 -88.5q31 45 75 77t95.5 53t107 30.5t108.5 9.5q37 0 82 -6.5t90 -19.5t85 -33t67 -47 q1 -13 2 -25t1 -26q0 -26 -12.5 -53t-26.5 -49q-69 -119 -173.5 -180.5t-243.5 -61.5q-117 0 -206 38.5t-149.5 106.5t-91.5 162t-31 206zM432 835q28 -91 97 -137t162 -46q35 0 70.5 8.5t67.5 24.5q-17 41 -43.5 74.5t-60 57.5t-73.5 37t-85 13q-35 0 -69.5 -7.5 t-65.5 -24.5zM436 187q30 -16 63.5 -23t67.5 -7q90 0 158 45t103 127q-32 17 -66.5 24t-69.5 7q-90 0 -158.5 -43t-97.5 -130zM824 1426q0 84 28.5 153t79 117.5t120.5 75t153 26.5t153 -26.5t120 -75t78 -117t28 -153.5h-182q0 45 -13 84.5t-38.5 68.5t-62 45.5t-83.5 16.5 q-49 0 -86.5 -16t-62.5 -44.5t-37.5 -68t-12.5 -86.5q0 -62 11.5 -100t36.5 -62.5t63.5 -40t93.5 -31.5q81 -23 146.5 -53.5t112 -77t72 -112.5t25.5 -159l1 -790h-181v790q0 75 -24 121.5t-64 74.5t-90.5 45t-103 33.5t-103 38.5t-90.5 61.5t-64 102t-24 159.5z" />
<glyph unicode="&#x1050;" horiz-adv-x="1144" d="M89 504q0 110 32 205.5t94 166.5t152 112t205 41t205 -41t151.5 -112t94 -166.5t32.5 -205.5q0 -95 -20 -172t-60.5 -138.5t-101.5 -110t-143 -87.5l-77 144q59 27 100.5 62t67.5 79.5t38 100t12 122.5q0 70 -17.5 136t-54 117.5t-93 82.5t-134.5 31t-134.5 -31 t-93 -82.5t-54 -117.5t-17.5 -136q0 -131 49 -218.5t162 -142.5l-73 -147q-82 39 -142.5 87.5t-100.5 110t-59.5 138.5t-19.5 172zM433 509q0 30 10 53t27.5 38.5t40 24t47.5 8.5t47 -8.5t39 -24.5t27 -39t10 -52t-10 -52t-27 -39t-39 -24.5t-47 -8.5t-47.5 8.5t-40 24.5 t-27.5 39t-10 52z" />
<glyph unicode="&#x1051;" horiz-adv-x="1144" d="M89 521q0 95 19.5 172t59.5 138.5t100.5 110t142.5 87.5l73 -147q-113 -55 -162 -142.5t-49 -218.5q0 -70 17.5 -136t54 -117.5t93 -82.5t134.5 -31t134.5 31t93 82.5t54 117.5t17.5 136q0 68 -12 123t-38 99.5t-67.5 79.5t-100.5 62l77 144q82 -39 143 -87.5t101.5 -110 t60.5 -138.5t20 -172q0 -109 -32.5 -205t-94 -167t-151.5 -112t-205 -41t-205 41t-152 112t-94 167t-32 205zM433 516q0 29 10 52t27.5 39t40 24.5t47.5 8.5t47 -8.5t39 -24.5t27 -39t10 -52t-10 -52t-27 -39t-39 -24.5t-47 -8.5t-47.5 8.5t-40 24t-27.5 38.5t-10 53z" />
<glyph unicode="&#x1052;" horiz-adv-x="1145" d="M89 517q0 184 75.5 308.5t236.5 199.5l77 -143q-55 -30 -94 -66t-64 -81t-36 -99t-11 -119q0 -70 17.5 -135t54.5 -114.5t93.5 -79.5t134.5 -30q72 0 128 28t94 75.5t57.5 109.5t19.5 129q0 21 -20.5 40t-51 39.5t-66 44t-66 52t-51 65t-20.5 82.5q0 43 18 79t48 62.5 t69 41.5t80 15q85 0 141 -44.5t91 -118.5l-141 -71q1 15 -5 29t-17 24.5t-25 17t-28 6.5q-18 0 -33.5 -11t-15.5 -30q0 -18 20.5 -37t51 -40t66.5 -45.5t66.5 -54t51 -64.5t20.5 -78q0 -107 -34.5 -199t-97.5 -160t-152 -106.5t-198 -38.5q-114 0 -204 39.5t-152 109.5 t-95 164.5t-33 203.5z" />
<glyph unicode="&#x1053;" horiz-adv-x="1154" d="M89 451q0 36 3.5 65t13.5 54.5t27 48.5t45 47q9 8 26.5 20t39 26t43.5 30t40.5 31.5t30 29.5t11.5 25q0 19 -15 30.5t-32 11.5q-37 0 -55 -19t-24 -51l-139 67q39 78 94.5 119t143.5 41q40 -1 74 -16.5t59 -42t39 -63t14 -78.5q0 -27 -4.5 -47.5t-13 -37t-21.5 -31 t-30 -28.5q-43 -35 -82 -68.5t-71 -62.5q-20 -19 -28 -42q-2 -11 -2.5 -22t-0.5 -22q0 -146 77 -226t225 -80q71 0 127.5 20.5t95.5 59.5t59.5 95t20.5 127q0 43 -19.5 73.5t-48.5 56t-62.5 48t-62.5 49t-48.5 60t-19.5 79.5q0 40 14.5 76t40.5 63t61 43t76 17 q44 0 79 -10.5t64 -31t52.5 -50t43.5 -67.5l-146 -71q-6 30 -26 50t-52 20q-17 0 -29 -9t-11 -30q0 -13 9.5 -25t25.5 -26q18 -15 40.5 -30.5t44.5 -30.5t41 -28t29 -22q28 -24 45 -47t26.5 -48t13 -54t3.5 -65q0 -108 -37.5 -192t-103 -141.5t-154.5 -88t-192 -30.5 q-102 0 -191 30.5t-155 88t-104 141.5t-38 191z" />
<glyph unicode="&#x1058;" d="M-933 -403q0 82 28.5 149t78.5 114t118.5 72.5t149.5 25.5q106 0 194 -45.5t140 -139.5q6 -11 10.5 -22.5t4.5 -24.5q0 -26 -16.5 -48t-43 -40t-60 -31.5t-67 -23t-63.5 -14.5t-50 -5q-65 0 -125.5 21.5t-111.5 59.5q-4 -16 -6.5 -31.5t-2.5 -32.5q0 -43 15 -78 t41.5 -59.5t62.5 -37.5t78 -13q58 0 105.5 26t70.5 81l159 -78q-24 -47 -60 -82t-80 -58t-94 -34t-101 -11q-81 0 -149.5 25t-118.5 72t-78.5 113.5t-28.5 149.5zM-671 -228q30 -38 74 -56.5t91 -18.5q28 0 56 6.5t51 23.5q-26 39 -69.5 57.5t-89.5 18.5q-29 0 -58 -7.5 t-55 -23.5z" />
<glyph unicode="&#x1059;" d="M-897 -401q0 81 27 147.5t75.5 113.5t116 72.5t147.5 25.5q48 0 97 -11.5t92.5 -34.5t79 -57.5t56.5 -79.5q13 -26 13 -51q0 -30 -14.5 -53.5t-38.5 -42.5t-54.5 -32.5t-62.5 -22.5t-62.5 -13.5t-53.5 -4.5q-71 0 -138 22.5t-121 69.5q-2 -12 -3 -24t-1 -24 q0 -51 17 -99.5t58 -79.5q29 21 52.5 40.5t44 34.5t37.5 24t32 9t32.5 -12t37.5 -30.5t41.5 -41t45.5 -42.5q17 14 17 40q0 13 -5 25.5t-11 23.5l143 50q11 -23 18.5 -47.5t7.5 -50.5q0 -46 -15.5 -81.5t-43 -60t-65 -37t-81.5 -12.5l-130 121l-107 -121q-23 0 -45 8t-42 18 q-95 48 -144.5 131.5t-49.5 189.5zM-666 -219q32 -46 83 -67.5t105 -21.5q33 0 67 8t60 30q-28 47 -77 69.5t-103 22.5q-35 0 -70.5 -9.5t-64.5 -31.5z" />
<glyph unicode="&#x105b;" horiz-adv-x="1780" />
<glyph unicode="&#x105e;" horiz-adv-x="682" />
<glyph unicode="&#x105f;" horiz-adv-x="682" />
<glyph unicode="&#x1060;" horiz-adv-x="682" />
<glyph unicode="&#x1061;" horiz-adv-x="1411" />
<glyph unicode="&#x1062;" horiz-adv-x="381" d="M-36 840v161h235q30 0 48.5 -8.5t28 -21t13 -26t3.5 -24.5v-917h-181v836h-147z" />
<glyph unicode="&#x1065;" horiz-adv-x="1366" />
<glyph unicode="&#x1071;" horiz-adv-x="682" />
<glyph unicode="&#x1072;" horiz-adv-x="682" />
<glyph unicode="&#x1073;" horiz-adv-x="682" />
<glyph unicode="&#x1075;" horiz-adv-x="1164" d="M89 532q0 105 34.5 195t97 156t150.5 103.5t195 37.5q113 0 201.5 -39t150 -107.5t94 -162t32.5 -202.5q0 -75 -15 -146.5t-47.5 -134.5t-82.5 -114.5t-120 -87.5q-23 -11 -47 -21.5t-47 -20.5l-74 152q66 29 112 64t75.5 80t42.5 101t13 128q0 68 -17 130.5t-52 110.5 t-89.5 77t-129.5 29q-70 0 -123.5 -27t-90 -72t-55.5 -104.5t-19 -124.5q0 -18 19 -37t47 -40.5t61.5 -46.5t61.5 -56t47 -69t19 -85q0 -45 -16 -82t-43.5 -63.5t-65 -41t-79.5 -14.5q-79 0 -132 30.5t-88 99.5l143 88q6 -23 24.5 -38.5t41.5 -15.5q17 0 31.5 10.5 t14.5 29.5q0 29 -19.5 45t-40.5 29q-33 22 -71 48t-70 57t-53 68.5t-21 83.5z" />
<glyph unicode="&#x1076;" horiz-adv-x="1121" d="M90 826q0 42 13.5 74t36 56.5t52.5 44t63 35.5l81 -144q-22 -8 -42.5 -24.5t-20.5 -43.5q0 -17 11.5 -29.5t28.5 -14.5q36 22 61.5 48.5t45 54t34.5 53t29.5 46t31 32.5t37.5 12q114 0 203.5 -39t151 -108t93.5 -162.5t32 -203.5q0 -109 -32.5 -203t-94 -163 t-150.5 -108.5t-203 -39.5q-81 0 -155.5 24.5t-135.5 70t-104.5 110.5t-63.5 145q21 50 67.5 87t103 61t117 36t109.5 12q95 0 183.5 -36.5t155.5 -117.5q14 34 17 66t3 55q0 57 -13.5 114.5t-42.5 106.5t-73 83.5t-106 45.5q-27 -39 -57.5 -81.5t-67.5 -78t-81 -58.5 t-97 -23q-43 0 -82.5 15t-70.5 42.5t-49.5 65t-18.5 82.5zM294 322q37 -78 105 -121.5t153 -43.5q58 0 112.5 21t94.5 65q-41 75 -113.5 109.5t-155.5 34.5q-52 0 -104 -15t-92 -50z" />
<glyph unicode="&#x1077;" horiz-adv-x="1134" d="M89 514q0 109 32 202.5t93.5 162t150 107.5t201.5 39t202 -39t150.5 -107.5t93.5 -162t32 -202.5q0 -72 -16.5 -151t-51.5 -150t-88.5 -126.5t-127.5 -82.5q-10 -3 -20 -5t-21 -2q-43 0 -70.5 18.5t-42.5 48t-20.5 65.5t-5.5 72q0 71 15 129.5t48 102.5t85 72.5t126 40.5 q-4 63 -23.5 120.5t-55 100.5t-88 68.5t-121.5 25.5q-75 0 -129.5 -29.5t-89.5 -78t-52 -111.5t-17 -130l192 -152q32 -26 46.5 -65.5t14.5 -79.5q0 -16 -3 -33q-5 -40 -22 -73.5t-43 -58t-60.5 -38t-75.5 -13.5q-33 0 -65 8.5t-60.5 25t-52 40t-38.5 52.5l150 84 q9 -20 27.5 -33.5t41.5 -13.5q4 0 5 1q15 2 24.5 13t9.5 25q0 10 -4.5 22t-12.5 18l-258 190q-2 21 -3.5 42t-1.5 41zM687 221q2 -30 9 -57q40 23 67 54t45 67t28 77t17 84q-85 -26 -125.5 -83t-40.5 -142z" />
<glyph unicode="&#x1078;" horiz-adv-x="1905" d="M89 512q0 109 32 202.5t93.5 162t150.5 107.5t202 39q117 0 217 -48.5t167 -145.5q68 98 168.5 146.5t218.5 48.5q113 0 201.5 -39.5t150 -108.5t94 -162.5t32.5 -201.5t-32.5 -202t-94 -163t-150 -108.5t-201.5 -39.5q-114 0 -203.5 40t-150.5 109.5t-93 163t-32 200.5 q0 69 -16.5 133t-52 113t-91 78t-132.5 29q-76 0 -131.5 -29.5t-91.5 -78.5t-53.5 -112.5t-17.5 -132.5t17.5 -132.5t53.5 -113t91.5 -79t131.5 -29.5q26 0 53 4t53 10l33 -156q-35 -7 -69.5 -11.5t-69.5 -4.5q-113 0 -201.5 39.5t-150 108.5t-94 162.5t-32.5 201.5z M1043 546q0 -73 14 -143t47.5 -124.5t90.5 -88t143 -33.5q76 0 131.5 30t91.5 79.5t53.5 113.5t17.5 132q0 69 -17.5 132.5t-53.5 113t-91.5 79t-131.5 29.5q-67 0 -121.5 -26t-93 -70t-59.5 -102t-21 -122z" />
<glyph unicode="&#x1079;" horiz-adv-x="2526" />
<glyph unicode="&#x107a;" horiz-adv-x="1891" d="M89 513q0 108 32.5 201.5t94 162.5t150 108t201.5 39q145 0 257 -68t173 -201q15 -34 26.5 -69.5t11.5 -73.5q0 -25 -2 -50.5t-2 -50.5q0 -68 18 -130.5t54 -110.5t91 -76.5t130 -28.5q76 0 131 29t91 77.5t53 111.5t17 131t-17 131.5t-53 112t-91 78t-131 29.5 q-28 0 -55.5 -4.5t-54.5 -10.5l-30 160q35 7 70 11.5t70 4.5q113 0 201.5 -39.5t150 -108.5t94 -162.5t32.5 -201.5q0 -109 -32 -202.5t-93.5 -162t-150.5 -107.5t-202 -39q-78 0 -153 23t-137 72v-671q0 -13 10 -15l340 1v-158h-398q-26 0 -50.5 9t-43 25t-29.5 38.5 t-11 49.5v1248q0 17 -9.5 40.5t-17.5 38.5q-40 79 -104 120.5t-154 41.5q-76 0 -132 -29.5t-92.5 -78.5t-54 -112.5t-17.5 -132.5t15.5 -128.5t48.5 -104t84.5 -71.5t124.5 -31q3 0 11.5 0.5t19 1t21 2t17.5 4.5l47 -169q-23 -8 -46.5 -12t-46.5 -4q-113 0 -201.5 39.5 t-150 108.5t-94 162.5t-32.5 201.5z" />
<glyph unicode="&#x107b;" horiz-adv-x="1909" d="M89 513q0 109 32.5 202.5t94 162.5t150.5 108t202 39q58 0 113.5 -12t105 -36.5t92.5 -61t76 -84.5q67 96 167.5 144.5t218.5 48.5q112 0 201 -39t150.5 -108t94 -162.5t32.5 -201.5t-32.5 -202t-94 -163t-150 -108.5t-201.5 -39.5q-59 0 -116 12t-108 42q-5 23 -8.5 46 t-3.5 46q0 82 37.5 145.5t97.5 106.5t134.5 65.5t147.5 22.5q29 0 57 -3t55 -8q1 9 1.5 18.5t0.5 19.5q0 69 -17.5 132.5t-54 113t-92 79t-131.5 29.5q-77 0 -132.5 -29.5t-91.5 -78.5t-53 -113t-17 -133q0 -106 -32 -200t-93.5 -163.5t-150.5 -110t-203 -40.5 q-113 0 -202 39.5t-150.5 108.5t-94 163t-32.5 203zM272 513q0 -69 17.5 -133t54 -113.5t92.5 -79.5t132 -30q85 0 142 33t91 86.5t48 122t14 138.5q0 66 -19.5 126t-57.5 105.5t-92.5 72.5t-125.5 27q-76 0 -132 -29.5t-92.5 -79t-54 -113.5t-17.5 -133zM1289 162 q23 -4 52 -4q85 0 151 42.5t103 118.5q-17 4 -35.5 6.5t-37.5 2.5q-37 0 -76.5 -10.5t-73 -31t-56.5 -51.5t-27 -73z" />
<glyph unicode="&#x107c;" horiz-adv-x="2047" d="M90 688q54 161 169 249t286 88q96 0 176.5 -29t141 -83t100 -130t54.5 -171h9q15 95 54.5 171t101 130t142.5 83t177 29q170 0 287.5 -88t168.5 -249l-178 -40q-16 48 -41.5 88.5t-60.5 69.5t-79 45.5t-97 16.5q-60 0 -108.5 -20t-85 -55t-60 -83t-33.5 -104 q47 -1 110 -3.5t132.5 -9.5t141 -20t134 -34.5t111.5 -53.5t75 -78q10 -18 17 -37.5t7 -40.5q0 -20 -5.5 -40t-13.5 -38q-27 -61 -72 -108t-101.5 -79t-120.5 -48.5t-128 -16.5q-101 0 -182.5 31t-142 87.5t-98.5 136t-52 176.5h-8q-13 -97 -51 -176.5t-98.5 -136 t-142 -87.5t-181.5 -31q-65 0 -129 16.5t-120 48.5t-101 79t-72 108q-8 18 -13.5 38t-5.5 40q0 42 18.5 70.5t46.5 55.5q35 34 84.5 58t108 40.5t122 26.5t125.5 15.5t119.5 7.5t103.5 3q-10 56 -33.5 104t-60 83t-85 55t-108.5 20q-53 0 -97.5 -16.5t-79 -46t-60 -70.5 t-41.5 -89zM289 326q0 -3 0.5 -6.5t2.5 -6.5q40 -75 103 -115.5t150 -40.5q66 0 117 22.5t87.5 61.5t58.5 92t30 114q-52 -1 -124.5 -3.5t-148 -12.5t-144 -29.5t-112.5 -54.5q-13 -12 -20 -21zM1210 447q8 -61 29.5 -114t58 -92t87 -61.5t116.5 -22.5q89 0 150.5 41.5 t103.5 116.5q1 2 3 8q1 5 -1 11q-28 27 -69 45.5t-89.5 31t-101 19.5t-104 10.5t-98.5 4.5t-85 2z" />
<glyph unicode="&#x107d;" horiz-adv-x="1873" d="M89 511q0 30 4 74t14.5 90t28.5 88t45 67q11 9 24 14.5t29 5.5q29 0 54.5 -16.5t50 -36.5t49.5 -36.5t53 -16.5t47 18.5t19 46.5q0 35 -23 49.5t-54 14.5q-36 0 -66 -15l-10 157q17 3 33.5 5.5t33.5 4.5h32q43 -1 83 -14t71.5 -37t52 -58t26.5 -77q3 -15 3 -31 q0 -50 -21 -90.5t-55.5 -69.5t-79.5 -45t-92 -16q-41 0 -80.5 12.5t-75.5 32.5q-7 -29 -9.5 -59.5t-2.5 -61.5q0 -69 17 -133t53 -113.5t91.5 -79t132.5 -29.5q97 0 170.5 45.5t126.5 124.5q-15 46 -21 92t-6 94q0 109 32.5 202.5t94 162.5t150 108t201.5 39 q90 0 162.5 -23.5t128.5 -68t97.5 -109t69.5 -147.5l-175 -47q-18 53 -42 97t-57.5 75.5t-78.5 48.5t-105 17q-76 0 -132 -29.5t-92.5 -78.5t-54 -113t-17.5 -133q0 -10 1 -19.5t2 -19.5q76 45 162.5 67.5t174.5 22.5q50 0 102 -8.5t101.5 -27t92.5 -47.5t73 -70 q13 -17 23 -39t10 -43q0 -24 -9 -47q-24 -67 -69 -119.5t-104 -89t-127 -55.5t-137 -19q-105 0 -200.5 40.5t-162.5 121.5q-75 -78 -173 -119t-206 -43q-114 0 -203.5 38.5t-152 106.5t-95.5 162t-33 205zM1069 301q38 -71 102 -107.5t144 -36.5q88 0 153 46t103 124 q-42 42 -97.5 61.5t-114.5 19.5q-79 0 -154.5 -28t-135.5 -79z" />
<glyph unicode="&#x107e;" horiz-adv-x="1863" d="M89 511q0 30 4 74t14.5 90t28.5 88t45 67q14 11 27 15t30 4q25 -2 46.5 -14.5t42.5 -28.5t42 -31.5t43 -23.5q17 -6 35 -6q26 2 43 20t17 44q0 33 -22.5 48.5t-52.5 15.5q-36 0 -68 -15l-10 157q17 3 33.5 5.5t33.5 4.5h33q46 -1 88.5 -16.5t75 -44t52 -68t19.5 -88.5 q0 -50 -21 -90.5t-55.5 -69.5t-79.5 -45t-92 -16q-41 0 -80.5 12.5t-75.5 32.5q-7 -29 -9.5 -59.5t-2.5 -61.5q0 -69 17 -133t53 -113.5t91.5 -79t132.5 -29.5q97 0 170.5 45.5t126.5 124.5q-15 46 -21 92t-6 94q0 109 32.5 202.5t94 162.5t150 108t201.5 39 q179 0 290 -90.5t168 -257.5l-175 -47q-18 53 -42 96.5t-57.5 75t-78.5 49t-105 17.5q-76 0 -132 -29.5t-92 -78.5t-53.5 -113.5t-17.5 -133.5q0 -9 0.5 -19t1.5 -19q75 45 160.5 68t174.5 23q50 0 103.5 -9t104 -28t94 -49t73.5 -73q4 -5 7 -10t5 -10q8 -14 12.5 -28 t4.5 -29q0 -24 -9 -47q-24 -68 -67.5 -120.5t-102 -88.5t-129.5 -55t-151 -19q-18 0 -36 1t-37 3l-127 -595q-4 -20 -12 -36q-20 -51 -57.5 -79.5t-97.5 -28.5q-16 4 -43 11.5t-59.5 16t-67.5 17.5t-67.5 17.5t-59.5 16t-43 11.5l51 152l281 -78q5 8 8 18.5t6 21.5l135 590 q-72 39 -124 103q-75 -78 -173 -119t-205 -43q-114 0 -204 38t-152.5 106.5t-95.5 162.5t-33 205zM1069 301q37 -70 102 -107t144 -37q88 0 153 46t103 124q-42 41 -96.5 60.5t-111.5 20.5q-82 0 -156.5 -26.5t-137.5 -80.5z" />
<glyph unicode="&#x107f;" horiz-adv-x="1157" d="M89 534q0 167 73.5 296t224.5 204q105 -51 156.5 -137.5t51.5 -202.5q0 -69 -19.5 -127.5t-56 -104.5t-88.5 -78t-118 -46q36 -85 104.5 -131t161.5 -46q80 0 137.5 31.5t94.5 83.5t54.5 119.5t17.5 138.5q0 62 -10.5 116t-35 99.5t-64.5 82.5t-98 64l89 142 q160 -75 232 -203t72 -301q0 -112 -32.5 -209.5t-94.5 -169.5t-153.5 -113.5t-208.5 -41.5q-118 0 -209 41.5t-153.5 113.5t-95 169.5t-32.5 209.5zM272 528q0 -40 6 -81q55 19 89.5 53t53 75t23.5 84.5t0.5 81.5t-16 66t-25.5 37q-36 -29 -61 -66t-40.5 -78.5t-22.5 -85.5 t-7 -86z" />
<glyph unicode="&#x1080;" horiz-adv-x="1895" d="M89 657q50 174 170.5 271t302.5 97q113 -2 200.5 -43t147.5 -110.5t91.5 -162t31.5 -197.5q0 -68 17.5 -132t53.5 -113.5t91.5 -79.5t131.5 -30q77 0 132.5 29.5t91.5 79t53 113.5t17 133q0 70 -17.5 134t-54 113t-93 78t-133.5 29q-41 0 -82 -8.5t-80 -19.5l-34 156 q48 11 96 20t97 10q113 0 203 -38.5t153 -106.5t96.5 -162t33.5 -205q0 -108 -32.5 -201.5t-94.5 -162.5t-150.5 -108.5t-201.5 -39.5q-58 0 -113 12.5t-104.5 36.5t-92.5 60.5t-76 84.5q-33 -47 -76 -83.5t-93 -61t-105.5 -37.5t-112.5 -13q-168 0 -281 83t-170 241 q-5 13 -5 30q0 5 1 9.5t3 9.5q15 26 44.5 47.5t67.5 39t81.5 30t85.5 21t80 13t66 4.5q85 0 166 -29t140 -92q11 26 14 51.5t3 54.5q0 70 -17.5 134t-53.5 113t-92 78.5t-133 29.5q-62 0 -109.5 -19.5t-82 -54t-58.5 -82t-40 -102.5zM299 313q18 -37 44.5 -66.5t59.5 -49 t71.5 -30t79.5 -10.5q66 0 122.5 24t97.5 78q-45 58 -109 84.5t-136 26.5q-60 0 -118 -14t-112 -43z" />
<glyph unicode="&#x1081;" horiz-adv-x="1132" d="M-58 -674l64 160q39 -17 77.5 -35t79.5 -30q4 12 7 24t7 25l140 571q-62 35 -106.5 85.5t-73 111.5t-41.5 128.5t-13 135.5q0 110 31.5 205t92.5 166t150.5 111.5t204.5 40.5t204.5 -40.5t151 -111.5t93.5 -166t32 -205q0 -78 -15.5 -149t-48 -132.5t-83.5 -111.5 t-122 -86q-14 -8 -29 -14.5t-30 -14.5l-74 156q115 51 163 140.5t48 211.5q0 68 -16.5 132t-51.5 114t-90 80.5t-132 30.5q-87 0 -152.5 -44.5t-99.5 -124.5q66 -9 116.5 -40.5t84.5 -78t51.5 -105t17.5 -121.5q0 -68 -19 -129q-4 -12 -9.5 -22.5t-8.5 -21.5l-190 -777 q-7 -31 -19.5 -58t-31 -47.5t-45 -32t-62.5 -11.5q-33 0 -65.5 7.5t-64.5 19t-63 25.5t-60 28zM277 506q0 -6 1 -12q2 -75 27 -149t79 -128q26 23 34.5 58.5t9.5 67.5v12t-1 12q-2 33 -12.5 62.5t-29.5 53t-46 39t-62 19.5v-23v-12z" />
<glyph unicode="&#x1082;" d="M-892 -407q0 83 27.5 151t77 116t118 74t151.5 26h74v-151h-74q-49 0 -86.5 -16t-62.5 -45t-37.5 -68.5t-12.5 -86.5t12.5 -86.5t37.5 -68.5t62.5 -45t86.5 -16q66 0 105.5 24.5t60.5 62t27 80.5t6 81l176 -32q0 -84 -27.5 -151.5t-77.5 -115.5t-119 -74t-151 -26 t-151 26t-118.5 74t-77 116t-27.5 151z" />
<glyph unicode="&#x1083;" horiz-adv-x="379" d="M-44 838v163h218q36 0 58.5 -10t35 -25t17 -32.5t4.5 -32.5v-1477q0 -13 10 -15l221 1v-166h-227q-54 0 -91 17.5t-60 44.5t-33 58.5t-10 59.5v1414h-143z" />
<glyph unicode="&#x1084;" horiz-adv-x="1110" d="M89 363l291 147v4l-291 149q23 84 65 151.5t101 114.5t134 72t164 25q97 0 173 -27t133 -76.5t97 -119.5t65 -157l-177 -45q-15 56 -37.5 105t-56.5 85t-82 56.5t-115 20.5q-77 0 -140.5 -33.5t-102.5 -100.5l286 -149v-149l-285 -145q38 -66 101.5 -100t140.5 -34 q68 0 116 21.5t82 58t56.5 86.5t37.5 107l176 -49q-25 -86 -64.5 -156.5t-97 -120.5t-133.5 -77.5t-173 -27.5q-90 0 -165.5 25t-134.5 72t-100.5 114.5t-63.5 152.5z" />
<glyph unicode="&#x1085;" d="M-850 1282q0 56 29 89.5t76 58.5q-42 27 -72 62.5t-30 89.5q0 63 32 104t80.5 65.5t105.5 34t107 9.5q59 0 117 -12t103.5 -40t74 -75t28.5 -116h-176q0 33 -13.5 51t-35 27t-47.5 11t-51 2q-15 0 -40 -1.5t-49 -7.5t-41.5 -18t-17.5 -33q0 -30 21.5 -49.5t52 -31.5 t63 -17t54.5 -6v-98q-21 -1 -54 -5.5t-64 -15.5t-53.5 -30t-22.5 -49q0 -24 18 -37.5t43.5 -19.5t51.5 -7.5t43 -1.5q74 0 107.5 19t33.5 69l176 -4q0 -70 -28 -115.5t-73.5 -72t-103.5 -36.5t-117 -10q-43 0 -87.5 4.5t-86 19t-76 40.5t-56.5 68q-10 19 -16 41t-6 44z" />
<glyph unicode="&#x1086;" d="M-723 1574q0 52 18 94t49.5 71t75 45t94.5 16t94 -16t74.5 -45.5t49 -71t17.5 -93.5q0 -110 -26 -189t-75 -140t-119.5 -110t-159.5 -99l-69 115q69 36 127 82t95 116q-51 -3 -96 12t-78 44.5t-52 72.5t-19 96zM-587 1571q0 -45 24 -72.5t71 -27.5q48 0 71 27.5t23 72.5 t-24 72t-70 27q-47 0 -71 -26.5t-24 -72.5z" />
<glyph unicode="&#x1087;" horiz-adv-x="564" d="M89 234q0 45 14.5 81.5t40.5 62t61.5 39.5t76.5 14t76.5 -14t61 -39.5t40 -62t14.5 -81.5q0 -89 -23 -165t-66.5 -139t-105 -113.5t-138.5 -89.5l-46 83q33 16 65 42.5t58 58t45 65t25 64.5q-42 -2 -78 10.5t-63 38t-42.5 62.5t-15.5 83zM218 234q0 -27 16 -44t44 -17 q26 0 43 16.5t17 42.5q0 28 -16 46t-44 18q-27 0 -43.5 -17.5t-16.5 -44.5z" />
<glyph unicode="&#x1088;" horiz-adv-x="564" d="M89 234q0 45 14.5 81.5t40.5 62t61.5 39.5t76.5 14t76.5 -14t61 -39.5t40 -62t14.5 -81.5q0 -89 -23 -165t-66.5 -139t-105 -113.5t-138.5 -89.5l-46 83q33 16 65 42.5t58 58t45 65t25 64.5q-42 -2 -78 10.5t-63 38t-42.5 62.5t-15.5 83zM89 831q0 45 14.5 81.5t40.5 62 t61.5 39t76.5 13.5t76.5 -13.5t61 -39t40 -62t14.5 -81.5t-14.5 -81.5t-40 -62t-60.5 -39.5t-77 -14q-41 0 -76.5 14t-61.5 39.5t-40.5 62t-14.5 81.5zM218 234q0 -27 16 -44t44 -17q26 0 43 16.5t17 42.5q0 28 -16 46t-44 18q-27 0 -43.5 -17.5t-16.5 -44.5zM218 834 q0 -27 16 -44.5t44 -17.5q27 0 43.5 17.5t16.5 44.5t-16.5 44t-43.5 17q-28 0 -44 -17t-16 -44z" />
<glyph unicode="&#x1089;" horiz-adv-x="560" d="M86 211q0 43 14.5 78.5t40 61.5t61.5 40.5t78 14.5t77.5 -14.5t61.5 -40.5t40.5 -62t14.5 -78t-14.5 -77.5t-40 -61.5t-61.5 -40.5t-78 -14.5t-78 14.5t-61.5 40.5t-40 61.5t-14.5 77.5zM221 211q0 -26 16 -43t43 -17t44 17t17 43q0 28 -17 45t-44 17t-43 -17t-16 -45z " />
</font>
</defs>
</svg>
