<?xml version="1.0" standalone="no"?>
<!DOCTYPE svg PUBLIC "-//W3C//DTD SVG 1.1//EN" "http://www.w3.org/Graphics/SVG/1.1/DTD/svg11.dtd" >
<svg xmlns="http://www.w3.org/2000/svg" xmlns:xlink="http://www.w3.org/1999/xlink" version="1.1">
<metadata></metadata>
<defs>
<font id="aj_13bold" horiz-adv-x="0" >
<font-face units-per-em="2048" ascent="1638" descent="-410" />
<missing-glyph horiz-adv-x="659" />
<glyph unicode="&#x107a;&#x102f;" horiz-adv-x="1893" d="M85 513q0 109 33 202.5t95 162t151.5 107.5t202.5 39q72 0 137.5 -17.5t122 -51.5t101 -84.5t74.5 -116.5q15 -34 26.5 -69.5t11.5 -73.5q0 -50 2 -101.5t11 -99.5t26.5 -90t48 -73.5t76.5 -50t112 -18.5q72 0 124.5 28t86.5 75t50.5 107.5t16.5 125.5t-16.5 126 t-50.5 108t-86.5 75.5t-124.5 28.5q-27 0 -54 -4.5t-53 -10.5l-31 173q34 7 68.5 11.5t69.5 4.5q112 0 201.5 -39t151.5 -107.5t95.5 -162t33.5 -203.5q0 -109 -33 -203t-95 -162t-151.5 -107t-202.5 -39q-73 0 -144 19t-133 60v-600v-50q0 -4 23 -6q14 -2 35 -2.5t44 -0.5 t47 0.5t45 1t36.5 1t21.5 0.5v-171h-310q-27 0 -53 9t-45.5 25.5t-31.5 40.5t-12 53v1240q0 16 -9.5 38.5t-16.5 36.5q-38 75 -100 115t-146 40q-73 0 -126.5 -28.5t-88 -76t-51 -108.5t-16.5 -127q0 -48 7.5 -93t26 -84t50 -70t78.5 -51q22 -9 45.5 -14.5t47.5 -5.5 q18 0 36 1t35 6l50 -185q-23 -8 -46.5 -12t-47.5 -4q-113 0 -202.5 39t-151.5 108t-95 162.5t-33 202.5zM1405 -40h212v-540h197v-180h-301q-22 0 -41.5 5.5t-34.5 17t-23.5 29t-8.5 41.5v627z" />
<glyph unicode="&#x107a;&#x1030;" horiz-adv-x="1897" d="M85 513q0 110 33.5 203.5t95.5 161.5t151.5 107t201.5 39q101 0 184.5 -27t144.5 -79.5t98 -129.5t46 -177q1 -5 1 -9v-9q0 -20 -2.5 -40.5t-2.5 -41.5q0 -64 17 -124.5t51.5 -106.5t87 -74t124.5 -28t124.5 28t86.5 75t50.5 107.5t16.5 125.5t-16.5 126t-50.5 108 t-86.5 75.5t-124.5 28.5q-27 0 -54 -4.5t-53 -10.5l-31 173q34 7 68.5 11.5t69.5 4.5q113 0 202 -39t151.5 -107.5t95.5 -162t33 -203.5q0 -109 -33 -203t-95 -162t-151.5 -107t-202.5 -39q-73 0 -144 19t-133 60q0 -158 -0.5 -315t-0.5 -315q0 -8 1 -11q0 -3 0.5 -6t0.5 -5 q10 0 19.5 -0.5t19.5 -0.5l154 -3v-171h-252q-27 0 -53 9t-45.5 25.5t-31.5 40.5t-12 53v1056v184q0 20 -8.5 39t-17.5 36q-39 73 -100 114t-146 41q-73 0 -126.5 -28.5t-88 -76t-51 -108.5t-16.5 -127q0 -47 7.5 -92t26.5 -84.5t50 -70.5t78 -51q22 -9 45.5 -14.5 t47.5 -5.5q18 0 36 1t35 6l50 -185q-23 -8 -46.5 -12t-47.5 -4q-113 0 -202.5 39t-151.5 108t-95 162.5t-33 202.5zM1272 -40h212v-704h-212v704zM1550 -40h212v-540h197v-180h-301q-22 0 -41.5 5.5t-34.5 17t-23.5 29t-8.5 41.5v627z" />
<glyph unicode="&#x107a;&#x102d;&#x102f;" horiz-adv-x="1889" d="M85 513q0 109 33 202.5t95 162t151.5 107.5t202.5 39q133 0 239 -56t172 -168q23 -42 42.5 -91.5t19.5 -97.5q0 -25 -2 -50t-2 -50q0 -65 17 -125t51.5 -106.5t87 -74t124.5 -27.5t124.5 28t86.5 75t50.5 107.5t16.5 125.5t-16.5 126t-50.5 108t-86.5 75.5t-124.5 28.5 q-27 0 -54 -4.5t-53 -10.5l-31 173q34 7 68.5 11.5t69.5 4.5q113 0 202.5 -39t151.5 -108t95 -162.5t33 -202.5t-33 -203t-95 -162t-151.5 -107t-202.5 -39q-73 0 -144 19t-133 60v-650q0 -2 1 -4v-3h50l201 1v-171h-310q-27 0 -53 9t-45.5 25.5t-31.5 40.5t-12 53v1240 q0 16 -9.5 38.5t-16.5 36.5q-38 75 -99 115t-147 40q-73 0 -126.5 -28.5t-88 -76t-51 -108.5t-16.5 -127t14 -121.5t44.5 -97.5t79 -68t117.5 -31h10.5t19.5 1t22.5 2t18.5 4l50 -185q-23 -8 -46.5 -12t-47.5 -4q-113 0 -202.5 39t-151.5 108t-95 162.5t-33 202.5zM937 1434 q0 59 19.5 125t64.5 121.5t119 92t183 36.5q73 0 130 -17t100 -45.5t72.5 -66.5t48 -79.5t27 -84.5t8.5 -82t-8.5 -81.5t-27 -84.5t-48 -79.5t-72.5 -66.5t-100 -46t-130 -17t-130 17t-100 45.5t-72.5 66.5t-48 79.5t-27 84.5t-8.5 82zM1132 1434q0 -43 11.5 -81.5t35 -66.5 t59.5 -44.5t85 -16.5t85 16.5t59.5 45t35 66.5t11.5 81t-11.5 81.5t-35 67t-59.5 45t-85 16.5t-85 -16.5t-59.5 -45t-35 -66.5t-11.5 -82zM1405 -40h212v-540h197v-180h-301q-35 0 -56 10.5t-32.5 25t-15.5 30.5t-4 27v627z" />
<glyph unicode="&#x107a;&#x102d;&#x1030;" horiz-adv-x="1896" d="M85 513q0 109 33 202.5t95 162t151.5 107.5t202.5 39q56 0 113 -14t109.5 -40t98 -62.5t79.5 -82.5t53.5 -100t19.5 -114q0 -25 -2 -50t-2 -50q0 -65 17 -125t51.5 -106.5t87 -74t124.5 -27.5t124.5 28t86.5 75t50.5 107.5t16.5 125.5t-16.5 126t-50.5 108t-86.5 75.5 t-124.5 28.5q-27 0 -54 -4.5t-53 -10.5l-31 173q34 7 68.5 11.5t69.5 4.5q113 0 202 -39t151.5 -107.5t95.5 -162t33 -203.5q0 -109 -33 -203t-95 -162t-151.5 -107t-202.5 -39q-73 0 -144 19t-133 60q0 -164 0.5 -327t0.5 -327q0 -9 2 -9q3 0 13 3t33 3h72.5t72.5 1v-171 h-252q-27 0 -53 9t-45.5 25.5t-31.5 40.5t-12 53v1240q0 16 -9.5 38.5t-16.5 36.5q-37 74 -100 114.5t-146 40.5q-73 0 -126.5 -28.5t-88 -76t-51 -108.5t-16.5 -127q0 -48 7.5 -93t26 -84t50 -70t78.5 -51q22 -9 45.5 -14.5t47.5 -5.5q18 0 36 1t35 6l50 -185 q-23 -8 -46.5 -12t-47.5 -4q-112 0 -201.5 39t-152 107.5t-95.5 162t-33 203.5zM937 1434q0 86 28.5 155.5t80 118t122.5 75t155 26.5t155 -26.5t122.5 -75t80 -118t28.5 -155.5q0 -85 -29 -154.5t-80 -118.5t-122 -75.5t-155 -26.5t-155 26.5t-122.5 75t-80 118 t-28.5 155.5zM1132 1434q0 -45 12 -83.5t36 -66t59.5 -43.5t83.5 -16t83.5 16t59.5 43.5t36 66t12 83.5t-12 83.5t-36 66.5t-59.5 44t-83.5 16t-83.5 -16t-59.5 -44t-36 -66.5t-12 -83.5zM1272 -40h212v-704h-212v704zM1550 -40h212v-540h197v-180h-301q-22 0 -41.5 5.5 t-34.5 17t-23.5 29t-8.5 41.5v627z" />
<glyph unicode="&#x107a;&#x103d;" horiz-adv-x="1896" d="M85 513q0 109 33 202.5t95 162t151.5 107.5t202.5 39q146 0 259.5 -68t175.5 -202q15 -34 26.5 -69.5t11.5 -73.5q0 -25 -2 -50t-2 -50q0 -65 17 -125t51.5 -106.5t87 -74t124.5 -27.5t124.5 28t86.5 75t50.5 107.5t16.5 125.5t-16.5 126t-50.5 108t-86.5 75.5 t-124.5 28.5q-27 0 -54 -4.5t-53 -10.5l-31 173q34 7 68.5 11.5t69.5 4.5q113 0 202.5 -39t151.5 -108t95 -162.5t33 -202.5t-33 -203t-95 -162t-151.5 -107t-202.5 -39q-73 0 -144 19t-133 60v-650q0 -2 0.5 -3.5t0.5 -3.5l64 1v-171h-123q-27 0 -53 9t-45.5 26t-31.5 40.5 t-12 52.5v1240q0 16 -9.5 38.5t-16.5 36.5q-38 75 -99 115t-147 40q-73 0 -126.5 -28.5t-88 -76t-51 -108.5t-16.5 -127t14 -121.5t44.5 -97.5t79 -68t117.5 -31h10.5t19.5 1t22.5 2t18.5 4l50 -185q-23 -8 -46.5 -12t-47.5 -4q-113 0 -202.5 39t-151.5 108t-95 162.5 t-33 202.5zM1084 -402q0 38 8 79.5t26 81.5t47 76t70.5 63.5t97 44t125.5 16.5t125 -16.5t96.5 -44t70.5 -64t47 -76.5t26 -81.5t8 -78.5q0 -38 -8 -79t-26 -81t-47 -76.5t-70.5 -64t-96.5 -44t-125 -16.5t-125.5 16.5t-97 44t-70.5 63.5t-47 76t-26 81.5t-8 79.5z M1276 -402q0 -41 11 -77t33.5 -63t57 -42.5t80.5 -15.5t80 15.5t56 42.5t32.5 63t10.5 77t-10.5 77t-32.5 63t-56 42.5t-80 15.5t-80.5 -15.5t-57 -42.5t-33.5 -63t-11 -77z" />
<glyph unicode="&#x1081;&#x1082;&#x103a;" horiz-adv-x="1133" d="M-68 -672l69 174q39 -17 77 -35t78 -32q3 13 6 25.5t7 25.5l139 558q-61 35 -105 85.5t-72 111t-41 127.5t-13 134q0 111 32.5 206.5t94.5 166t152.5 110.5t205.5 40q116 0 206 -40t152.5 -110.5t95 -166t32.5 -206.5q0 -80 -16 -151.5t-50 -133t-87 -111.5t-126 -87 l-142 139q115 50 163.5 136t48.5 208q0 65 -15.5 127t-49.5 110t-86 77.5t-126 29.5q-78 0 -140.5 -41t-96.5 -111q65 -11 114.5 -43.5t83 -79t50.5 -104t17 -120.5q0 -33 -4.5 -65t-15.5 -64q-4 -11 -9 -21.5t-8 -21.5l-194 -785q-16 -65 -55 -104.5t-110 -39.5 q-35 0 -68.5 7.5t-66.5 19t-64.5 26t-62.5 29.5zM184 1435q0 84 28.5 151.5t78.5 115.5t119.5 74t151.5 26q83 0 152.5 -26t119.5 -73.5t78.5 -115.5t28.5 -152l-193 -35q0 47 -8.5 90.5t-30 76.5t-57.5 52.5t-90 19.5q-46 0 -81 -15.5t-58.5 -42.5t-35 -64.5t-11.5 -81.5 t12 -81.5t35 -64.5t58 -42.5t81 -15.5h80v-163h-80q-82 0 -151.5 26t-120 73.5t-78.5 115.5t-28 152zM290 535q0 -84 20.5 -161.5t77.5 -141.5q23 23 30.5 54.5t7.5 63.5t-8 63t-25 56.5t-42.5 43t-60.5 22.5zM463 -407q0 84 28 152t78.5 115.5t120 73.5t151.5 26h80v-163 h-80q-46 0 -81 -15.5t-58 -42.5t-35 -64.5t-12 -81.5t11.5 -81.5t35 -64.5t58.5 -42.5t81 -15.5q54 0 90 19.5t57.5 52.5t30 76.5t8.5 90.5l193 -35q0 -84 -28.5 -152t-78.5 -115.5t-119.5 -73.5t-152.5 -26q-82 0 -151.5 26t-119.5 74t-78.5 115.5t-28.5 151.5z" />
<glyph unicode="&#x1081;&#x1082;" horiz-adv-x="1133" d="M-68 -672l69 174q39 -17 77 -35t78 -32q3 13 6 25.5t7 25.5l139 558q-61 35 -105 85.5t-72 111t-41 127.5t-13 134q0 111 32.5 206.5t94.5 166t152.5 110.5t205.5 40q116 0 206 -40t152.5 -110.5t95 -166t32.5 -206.5q0 -80 -16 -151.5t-50 -133t-87 -111.5t-126 -87 l-142 139q115 50 163.5 136t48.5 208q0 65 -15.5 127t-49.5 110t-86 77.5t-126 29.5q-78 0 -140.5 -41t-96.5 -111q65 -11 114.5 -43.5t83 -79t50.5 -104t17 -120.5q0 -33 -4.5 -65t-15.5 -64q-4 -11 -9 -21.5t-8 -21.5l-194 -785q-16 -65 -55 -104.5t-110 -39.5 q-35 0 -68.5 7.5t-66.5 19t-64.5 26t-62.5 29.5zM290 535q0 -84 20.5 -161.5t77.5 -141.5q23 23 30.5 54.5t7.5 63.5t-8 63t-25 56.5t-42.5 43t-60.5 22.5zM463 -407q0 84 28 152t78.5 115.5t120 73.5t151.5 26h80v-163h-80q-46 0 -81 -15.5t-58 -42.5t-35 -64.5t-12 -81.5 t11.5 -81.5t35 -64.5t58.5 -42.5t81 -15.5q54 0 90 19.5t57.5 52.5t30 76.5t8.5 90.5l193 -35q0 -84 -28.5 -152t-78.5 -115.5t-119.5 -73.5t-152.5 -26q-82 0 -151.5 26t-119.5 74t-78.5 115.5t-28.5 151.5z" />
<glyph unicode="&#x103b;&#x103d;" horiz-adv-x="331" d="M-881 -393q0 81 27.5 147t76.5 112.5t116.5 71.5t147.5 25q73 0 134.5 -20.5t108 -58t77 -90.5t41.5 -117q9 -53 5 -109l190 -91v1527h203v-1758h-173l-282 148q-54 -74 -134 -108.5t-170 -34.5q-80 0 -147.5 25t-116.5 71.5t-76.5 112.5t-27.5 147zM-688 -393 q0 -41 11 -76.5t32.5 -61t54.5 -40t77 -14.5t76.5 14.5t54.5 40t32.5 61t10.5 76.5t-10.5 76.5t-32.5 61t-54.5 40t-76.5 14.5t-77 -14.5t-54.5 -40t-32.5 -61t-11 -76.5z" />
<glyph unicode="&#xd;" horiz-adv-x="682" />
<glyph unicode="&#xa;" horiz-adv-x="682" />
<glyph horiz-adv-x="682" />
<glyph unicode=" "  horiz-adv-x="659" />
<glyph unicode="&#x09;" horiz-adv-x="659" />
<glyph unicode="&#xa0;" horiz-adv-x="659" />
<glyph unicode="!" horiz-adv-x="846" d="M247 143q0 18 7 41.5t24.5 43.5t47 34t73.5 14q45 0 74 -14t46 -34.5t23.5 -43.5t6.5 -41t-6.5 -41t-23.5 -43.5t-46 -35t-74 -14.5t-74.5 14t-46.5 34.5t-24 44t-7 41.5zM261 1457h273l-44 -1103h-185z" />
<glyph unicode="&#x22;" horiz-adv-x="876" d="M128 1416h240l-38 -466h-164zM416 1416h240l-37 -466h-164z" />
<glyph unicode="#" horiz-adv-x="1514" d="M82 467v185h323l54 205h-274v185h324l96 366h224l-97 -366h174l97 366h223l-97 -366h270v-185h-319l-54 -205h269v-185h-319l-123 -467h-223l123 467h-174l-123 -467h-223l123 467h-274zM629 652h174l53 205h-173z" />
<glyph unicode="$" horiz-adv-x="1208" d="M85 468v52l215 -2q0 -13 -0.5 -25t-0.5 -25q0 -45 4.5 -87t21 -75t48.5 -54t87 -23v454q-70 8 -131 36t-106 72.5t-71 105.5t-26 135t25.5 137t70 110.5t105.5 78.5t133 42v154h214v-150q98 -11 168 -47.5t114.5 -94.5t66 -136t22.5 -172l-215 2q0 44 -5.5 86.5t-22 78.5 t-47 61.5t-81.5 35.5v-376q29 -4 58.5 -7.5t58.5 -8.5q75 -14 135.5 -46t102.5 -80.5t64.5 -112t22.5 -141.5q0 -86 -29.5 -160t-82.5 -128t-126 -85t-160 -31h-43v-191h-214v194q-100 7 -171 37.5t-116.5 84t-67 129t-21.5 172.5zM313 1032q0 -28 7.5 -55.5t22 -50 t37 -38.5t52.5 -22q9 -2 18.5 -3t18.5 -3v356q-37 -3 -66 -19t-49 -40.5t-30.5 -56.5t-10.5 -68zM675 225h43q45 0 79 19.5t57.5 50.5t35.5 71t12 80q0 59 -17 97t-47 61.5t-71.5 35t-91.5 17.5v-432z" />
<glyph unicode="%" horiz-adv-x="1773" d="M166 1095q0 70 18 136t55.5 117.5t94.5 83t135 31.5t135 -31.5t94.5 -83t55.5 -118t18 -135.5q0 -70 -18 -136t-55.5 -117.5t-94.5 -83t-135 -31.5t-135 31.5t-94.5 83t-55.5 117.5t-18 136zM264 0l922 1454h247l-921 -1454h-248zM372 1095q0 -21 4.5 -53.5t16 -63.5 t30 -53t46.5 -22t46.5 22.5t29.5 53t15.5 63t4.5 53.5t-4.5 53.5t-15.5 63.5t-29.5 53.5t-46.5 22.5t-46.5 -22.5t-30 -53t-16 -63.5t-4.5 -54zM945 391q0 71 18.5 138.5t56.5 120.5t96.5 85t137.5 32q80 0 138 -32t96 -84.5t56.5 -120.5t18.5 -139t-18.5 -139t-56.5 -120.5 t-96 -84.5t-138 -32q-79 0 -137.5 32t-96.5 84.5t-56.5 120.5t-18.5 139zM1156 391q0 -21 5 -54.5t16 -65t30 -54.5t47 -23q29 0 48 23t30.5 54.5t16 65t4.5 54.5t-4.5 54.5t-16 65t-30.5 54t-48 22.5q-28 0 -47 -22.5t-30 -54t-16 -65t-5 -54.5z" />
<glyph unicode="&#x26;" horiz-adv-x="1430" d="M83 398q0 77 26.5 135t70 103.5t101 81t118.5 66.5q-34 33 -64.5 66.5t-53 70.5t-35.5 79.5t-13 92.5q0 83 30 150t82 114.5t122.5 73.5t150.5 26t149.5 -26t120.5 -74t80.5 -115t29.5 -149q0 -66 -21.5 -120t-58 -98t-85 -79t-102.5 -63l259 -277q1 5 1 14 q0 32 -6.5 60.5t-17.5 54.5t-25.5 51t-31.5 51h246q23 -51 37.5 -104.5t14.5 -110.5q0 -105 -44 -201l253 -271h-279l-102 110q-88 -72 -197.5 -105.5t-222.5 -33.5q-60 0 -123 13t-122.5 38t-111.5 61.5t-91.5 84t-62 105.5t-22.5 125zM301 399q0 -59 30 -104.5t76.5 -76 t103 -46.5t108.5 -16q76 0 150 23.5t130 76.5l-360 385q-37 -19 -79 -40.5t-77 -50t-58.5 -65.5t-23.5 -86zM449 1093q0 -33 14 -63t35 -57t46.5 -51t47.5 -44q34 17 68 36t61 44.5t43.5 58.5t16.5 76q0 37 -11 69.5t-32 57t-51 38.5t-69 14q-38 0 -69.5 -14t-53.5 -38.5 t-34 -57t-12 -69.5z" />
<glyph unicode="'" horiz-adv-x="541" d="M127 1420h261l-38 -478h-183z" />
<glyph unicode="(" horiz-adv-x="894" d="M177 587q0 141 22.5 272.5t72 251.5t127.5 226.5t190 197.5l130 -151q-90 -64 -152 -157.5t-100.5 -200t-55.5 -220t-17 -218.5q0 -101 14.5 -204.5t48.5 -200.5t90 -183t139 -151l-129 -150q-105 86 -177.5 186t-117.5 211.5t-65 235t-20 255.5z" />
<glyph unicode=")" horiz-adv-x="895" d="M175 1384l129 151q112 -91 190 -197.5t127.5 -226t72 -251.5t22.5 -273q0 -132 -20 -255t-65 -235.5t-117.5 -212.5t-176.5 -185l-130 150q83 65 139 151t90.5 183t49 200.5t14.5 204.5q0 108 -17 220.5t-55 217.5t-100.5 197.5t-152.5 160.5z" />
<glyph unicode="*" horiz-adv-x="1150" d="M197 1207l125 173l155 -120l-17 182h242l-14 -172l138 120l130 -169l-211 -140l234 -135l-137 -160l-155 118l15 -182l-234 -2l10 175l-147 -128l-132 163l221 147z" />
<glyph unicode="+" horiz-adv-x="1383" d="M163 501v184h420v411h217v-411h421v-184h-421v-410h-217v410h-420z" />
<glyph unicode="," horiz-adv-x="587" d="M35 -206q26 25 52.5 51t50 54.5t42.5 62t30 74.5q-31 15 -48.5 44.5t-17.5 63.5q0 29 11.5 51.5t30.5 37.5t43.5 23t51.5 8t52 -8t44.5 -23t31 -37.5t11.5 -51.5q0 -59 -21 -107.5t-54 -90.5t-73.5 -79t-80.5 -73h-156z" />
<glyph unicode="-" horiz-adv-x="1168" d="M163 504v184h828v-184h-828z" />
<glyph unicode="." horiz-adv-x="537" d="M120 130q0 17 6 39.5t21.5 42.5t42 34t67.5 14t68 -14t43 -34t22 -42.5t6 -39.5t-6 -39.5t-22 -42.5t-43 -34t-68 -14t-67.5 14t-42 34t-21.5 42.5t-6 39.5z" />
<glyph unicode="/" horiz-adv-x="976" d="M100 0l622 1454h229l-622 -1454h-229z" />
<glyph unicode="0" horiz-adv-x="1254" d="M112 721q0 88 8.5 176t30 169.5t59 152.5t94.5 123.5t137 82.5t187 30t186.5 -30t136.5 -82.5t94.5 -123.5t59.5 -152.5t30.5 -170t8.5 -175.5t-8.5 -175t-30.5 -170t-59.5 -152.5t-95 -123.5t-137 -83t-185.5 -30t-186 30t-137 82.5t-94.5 123.5t-59.5 152.5t-30.5 170 t-8.5 175.5zM325 721q0 -51 3 -112t13.5 -122.5t30.5 -118.5t54 -101t83.5 -70.5t118.5 -26.5t118.5 26.5t83 70.5t53 101.5t30 118.5t13.5 122t3 112t-3 112t-13.5 122t-30 118.5t-53 101.5t-83 70.5t-118.5 26.5q-70 0 -119.5 -26.5t-83 -70.5t-53.5 -101t-30.5 -118 t-13.5 -122t-3 -113z" />
<glyph unicode="1" horiz-adv-x="842" d="M78 1068v182q85 0 141 18t93.5 45.5t61 60.5t42.5 63h220v-1437h-214v1134q-42 -23 -83.5 -36t-84 -20t-86 -8.5t-90.5 -1.5z" />
<glyph unicode="2" horiz-adv-x="1194" d="M111 1016q0 107 39 190.5t104.5 142t151.5 89t180 30.5q98 0 186.5 -34t155.5 -97t107 -151.5t40 -197.5q0 -101 -26.5 -176t-70.5 -130.5t-102 -97t-120.5 -75.5t-126 -65.5t-118.5 -67.5t-98.5 -80.5t-65.5 -106.5l676 1v-185l-901 -1v67q0 111 32 191t85 138.5 t120.5 102t137.5 80.5t137.5 73.5t120.5 82t85 105.5t32 144q0 65 -22.5 119t-61.5 93.5t-91 61.5t-111 22q-56 0 -105.5 -18.5t-86.5 -53.5t-58.5 -84.5t-21.5 -112.5q0 -29 5 -58.5t12 -58.5l-200 -38q-9 38 -14.5 77.5t-5.5 78.5z" />
<glyph unicode="3" horiz-adv-x="1184" d="M121 427l196 -8q-2 -58 9.5 -103.5t42 -77t83.5 -48t134 -17.5q75 -1 128.5 19.5t88 56t50.5 83.5t16 103q0 31 -10.5 71t-35 77.5t-65.5 66t-102 36.5l-171 1v195h186q48 8 78.5 29t47.5 47t23 53.5t4 47.5q1 57 -15 96t-45.5 64t-71.5 36t-95 11q-65 0 -107 -11 t-66 -33.5t-32 -58t-6 -83.5l-195 -8q-4 88 18.5 160t72 123t128 79t187.5 28t188.5 -32.5t131.5 -87t77 -126.5t25 -151q5 -70 -23.5 -145.5t-91.5 -133.5q40 -34 70 -76t50 -88t30 -93.5t10 -93.5q0 -91 -30 -174.5t-90 -146.5t-150 -100t-210 -36q-119 1 -208 32.5 t-147 90t-85 141.5t-23 185z" />
<glyph unicode="4" horiz-adv-x="1273" d="M114 232l3 148l699 1057l200 -4v-1017h146v-183h-146v-236h-214v236zM386 415l416 1v622q-105 -156 -209 -310.5t-207 -312.5z" />
<glyph unicode="5" horiz-adv-x="1225" d="M112 329l197 75q19 -52 44.5 -95.5t60 -74t80.5 -47.5t105 -17q79 0 136 31t93.5 82t54 117t17.5 136q0 69 -19.5 130t-57.5 106.5t-94 71.5t-130 26q-37 0 -74.5 -9.5t-70.5 -27.5t-59.5 -45.5t-40.5 -63.5l-218 -1l53 696h874v-165h-660l-26 -259q53 23 109 32.5 t113 9.5q113 0 208 -35t163.5 -100.5t106.5 -158t38 -207.5q0 -117 -35 -217.5t-101.5 -174t-162.5 -115.5t-217 -42q-179 0 -301 88.5t-186 253.5z" />
<glyph unicode="6" horiz-adv-x="1254" d="M112 502q0 114 1.5 226t1.5 226t37.5 208t105.5 160.5t162.5 103.5t207.5 37q79 0 152 -18t135 -54t110.5 -90t78.5 -126l-198 -74q-36 88 -104 134t-174 46q-72 0 -124.5 -22.5t-88.5 -61.5t-56 -92t-27 -115q-1 -9 -2 -25t-1.5 -33.5t-0.5 -34v-25.5q22 36 57 60 t76 38.5t84.5 20.5t82.5 6q112 0 206.5 -34.5t163.5 -98.5t107.5 -156t38.5 -206q0 -116 -37 -211t-105 -162.5t-163 -104.5t-211 -37t-211.5 37t-163 104.5t-104.5 162.5t-37 211zM325 496q0 -70 20 -130t58 -103.5t95 -68t130 -24.5q75 0 131 25.5t94 70t57 105.5t19 131 t-20.5 127.5t-59 99t-94.5 64t-127 22.5q-74 0 -130.5 -23t-95 -64.5t-58 -100.5t-19.5 -131z" />
<glyph unicode="7" horiz-adv-x="1151" d="M111 1240v182h894l-9 -182l-441 -1240h-226l436 1240h-654z" />
<glyph unicode="8" horiz-adv-x="1254" d="M112 441q0 118 52.5 216.5t154.5 159.5q-66 49 -99.5 120t-33.5 152q0 93 37.5 162t99.5 114t141.5 67.5t163.5 22.5q83 0 162.5 -22.5t141.5 -68t100 -114t38 -161.5q0 -81 -33.5 -152t-99.5 -120q102 -61 154.5 -159.5t52.5 -216.5q0 -110 -42 -194.5t-113.5 -142.5 t-165 -87.5t-195.5 -29.5q-104 0 -198 29t-164.5 86t-112 142t-41.5 197zM325 441q0 -68 23.5 -119t64.5 -84.5t96 -50.5t119 -17t119 17t95.5 50.5t63.5 84.5t23 119t-23 119t-63.5 85t-95.5 51t-119 17t-119.5 -17t-96 -51t-64 -85t-23.5 -119zM401 1089q0 -50 19 -85 t50.5 -56.5t72.5 -31.5t85 -10t85 10t72.5 31.5t50.5 56.5t19 85t-19 85t-50.5 56.5t-72.5 31.5t-85 10t-85 -10t-72.5 -31.5t-50.5 -56.5t-19 -85z" />
<glyph unicode="9" horiz-adv-x="1254" d="M111 949q0 116 37.5 210.5t105.5 162t163 104.5t210 37q116 0 211.5 -36.5t163 -104t104.5 -162t37 -211.5v-458q0 -116 -37.5 -209t-106 -158.5t-163.5 -100.5t-209 -35q-90 0 -169 22t-143.5 66t-112 110t-74.5 154l201 67q29 -114 103.5 -175.5t194.5 -61.5 q96 0 164.5 39.5t110.5 127.5q10 21 17 44t7 46v105q-67 -42 -144 -60.5t-155 -18.5q-112 0 -206.5 34.5t-163.5 99t-107.5 156.5t-38.5 206zM325 949q0 -70 20.5 -127.5t59.5 -98.5t95 -64t127 -23q75 0 131.5 22.5t94.5 64t57 100.5t19 131q0 71 -19.5 130.5t-57.5 103.5 t-94.5 68.5t-130.5 24.5q-73 0 -129.5 -25.5t-95 -70.5t-58 -105.5t-19.5 -130.5z" />
<glyph unicode=":" horiz-adv-x="557" d="M140 157q0 18 6 42t21.5 45.5t42.5 36.5t68 15t67.5 -15t42.5 -36.5t22 -45.5t6 -42q0 -19 -6 -43t-22 -45.5t-42.5 -36t-67.5 -14.5t-68 15t-42.5 36.5t-21.5 45.5t-6 42zM140 886q0 18 6 42t21.5 45.5t42.5 36.5t68 15t67.5 -14.5t42.5 -36t22 -45.5t6 -43 q0 -18 -6 -42t-22 -46t-42.5 -37t-67.5 -15q-42 0 -68.5 15.5t-42 37t-21.5 45.5t-6 42z" />
<glyph unicode=";" horiz-adv-x="643" d="M76 -206q26 25 52.5 51t50 54.5t42.5 62t30 74.5q-31 15 -48.5 44.5t-17.5 63.5q0 29 11.5 51.5t30.5 37.5t43.5 23t51.5 8t52 -8t44.5 -23t31 -37.5t11.5 -51.5q0 -59 -21 -107.5t-54 -90.5t-73.5 -79t-80.5 -73h-156zM194 886q0 18 6 42t21.5 45.5t42.5 36.5t68 15 t67.5 -14.5t42.5 -36t22 -45.5t6 -43q0 -18 -6 -42t-22 -46t-42.5 -37t-67.5 -15q-42 0 -68.5 15.5t-42 37t-21.5 45.5t-6 42z" />
<glyph unicode="&#x3c;" horiz-adv-x="1256" d="M212 587v172l840 459v-220l-596 -325l596 -325v-219z" />
<glyph unicode="=" horiz-adv-x="1362" d="M190 330v185h961v-185h-961zM190 664v185h961v-185h-961z" />
<glyph unicode="&#x3e;" horiz-adv-x="1256" d="M204 129v219l596 325l-596 325v220l840 -459v-172z" />
<glyph unicode="?" horiz-adv-x="1193" d="M164 1035q0 93 35.5 166.5t95.5 124.5t139 78t167 27q91 0 172 -30.5t142.5 -86t97.5 -133t36 -171.5q0 -73 -19 -124t-50.5 -88t-71 -64t-79.5 -52t-78 -51.5t-65.5 -63.5t-41.5 -87.5t-7 -122.5l-214 -10q-2 15 -2 30v30q0 78 18 136.5t47 102t66.5 75.5t76 58.5 t76 49.5t66.5 49t47 57.5t18 74.5q0 50 -18 93.5t-49.5 75.5t-74.5 50.5t-93 18.5q-48 0 -89 -15t-71 -43t-47 -67.5t-17 -89.5q0 -26 5 -51.5t11 -50.5l-211 -38q-8 35 -13 70.5t-5 71.5zM385 147q0 33 13 59t34.5 44t50 27t59.5 9t59 -9.5t49.5 -27t34.5 -43.5t13 -59 t-12.5 -59t-34 -44t-50 -27t-59.5 -9t-59.5 9t-50 27t-34.5 44t-13 59z" />
<glyph unicode="@" horiz-adv-x="1760" d="M113 656q0 177 57.5 321t162 245.5t250 157t320.5 55.5q161 0 299 -48.5t239 -140t158.5 -223.5t57.5 -299q0 -63 -8 -135t-29 -141t-58 -127.5t-96 -93.5q-35 -21 -71 -32.5t-77 -11.5q-47 0 -90.5 16.5t-75.5 52.5q-60 -44 -130.5 -63.5t-143.5 -19.5q-102 0 -186 33 t-144 93t-92.5 144t-32.5 186t32.5 186t92.5 144t144 93t186 33q33 0 65.5 -7.5t62.5 -21.5t55 -35.5t43 -50.5v59l170 -52v-153.5t0.5 -144t0.5 -144v-153.5q0 -3 7.5 -5.5t16.5 -5t17 -5t10 -4.5q7 1 13.5 3.5t11.5 7.5q38 41 60 81.5t33.5 83.5t15 89.5t3.5 100.5 q0 126 -41.5 224.5t-116 166t-177.5 102.5t-225 35q-135 0 -241.5 -43.5t-181 -122.5t-114 -188.5t-39.5 -241.5t39.5 -242t114 -188.5t181 -122.5t241.5 -44q66 0 134 10t130 35h322q-25 -19 -49.5 -38t-49.5 -38q-108 -80 -230.5 -115.5t-256.5 -35.5q-176 0 -321.5 55 t-249.5 157t-161.5 246t-57.5 321zM638 625q0 -57 14.5 -106.5t44.5 -87t75 -59t106 -21.5q47 0 88.5 17t73.5 46.5t50.5 70t18.5 87.5q0 32 -1 64t-1 64q0 44 -20.5 80.5t-53 62.5t-73.5 40.5t-82 14.5q-60 0 -105 -22t-75 -59t-45 -86.5t-15 -105.5z" />
<glyph unicode="A" horiz-adv-x="1300" d="M12 -1l564 1455h150l562 -1455h-226l-125 324h-573l-125 -324h-227zM435 505h430l-214 558z" />
<glyph unicode="B" horiz-adv-x="1312" d="M121 -1v1456h59q145 0 287.5 -0.5t287.5 -0.5q77 0 145 -23.5t119 -68t81 -108.5t30 -144q0 -76 -31 -145.5t-91 -117.5q90 -67 136.5 -165t46.5 -209q0 -108 -41.5 -195.5t-112 -149.5t-163.5 -95.5t-196 -33.5h-557zM335 182h343q64 0 119 20t95 57.5t63 90.5t23 119 q0 95 -46.5 166t-134.5 109q-17 8 -35.5 13.5t-37.5 5.5h-389v-581zM335 951q106 -2 209.5 -3.5t209.5 -1.5q36 0 65.5 12.5t51.5 34t34 51.5t12 66q0 35 -12 64.5t-33.5 51t-51.5 33.5t-65 12h-210t-210 1v-321z" />
<glyph unicode="C" horiz-adv-x="1532" d="M122 721q0 156 46 290.5t133.5 233t214.5 154.5t290 56q208 0 358.5 -90t238.5 -258l-191 -89q-28 59 -67 106t-89 80t-112.5 50.5t-137.5 17.5q-120 0 -208.5 -45t-147 -120.5t-87 -175.5t-28.5 -210q0 -109 28.5 -209t87 -176t147 -121t208.5 -45q146 0 243.5 64 t155.5 175l184 -99q-89 -155 -236.5 -239t-346.5 -84q-162 0 -289 56.5t-215 155t-134 232.5t-46 290z" />
<glyph unicode="D" horiz-adv-x="1437" d="M121 0v1463q33 -1 71 -1h40q60 0 125 2h43q44 0 88 -1q66 -1 129 -4q50 -3 94.5 -8t81.5 -13q132 -28 230 -95.5t163 -163t97.5 -213t32.5 -245.5q0 -157 -46.5 -289t-134.5 -228t-215.5 -150t-288.5 -54h-510zM335 182l296 1q120 0 208.5 42.5t147 115.5t87 171 t28.5 209q0 93 -20 180.5t-63.5 160t-112.5 124.5t-167 74q-35 7 -77 12q-40 4 -82.5 5.5t-84.5 1.5t-83 -1t-77 -1v-1095z" />
<glyph unicode="E" horiz-adv-x="1173" d="M121 -1v1456l952 -1v-183l-738 1v-429h648v-182h-648v-479h738v-183h-952z" />
<glyph unicode="F" horiz-adv-x="1163" d="M121 0v1455l896 -1v-183l-682 1v-429h626v-182h-626v-661h-214z" />
<glyph unicode="G" horiz-adv-x="1586" d="M122 721q0 156 46 290.5t133.5 233t214.5 154.5t290 56q116 0 219 -31.5t187 -92t146 -148.5t96 -200l-208 -45q-24 77 -65 139t-97 105.5t-126.5 66.5t-151.5 23q-120 0 -209 -45t-147 -120.5t-86.5 -175.5t-28.5 -210q0 -111 29 -210.5t88 -175.5t148 -120.5t210 -44.5 q83 0 158 23.5t133.5 69.5t95.5 113t43 154h-530v182h745v-143q0 -55 -11 -109.5t-31 -105.5q-37 -97 -98.5 -167t-140.5 -114t-172 -65t-192 -21q-163 0 -291 55.5t-216.5 154t-134.5 233t-46 291.5z" />
<glyph unicode="H" horiz-adv-x="1317" d="M121 0v1454h214v-611h647v611h214v-1454h-214v661h-647v-661h-214z" />
<glyph unicode="I" horiz-adv-x="456" d="M121 0v1454h214v-1454h-214z" />
<glyph unicode="J" horiz-adv-x="1191" d="M123 442l212 10q0 -58 18.5 -109t52.5 -89t82.5 -60.5t108.5 -22.5t108 22t81.5 60t51.5 89t18 109v1004h215v-1004q0 -102 -36 -187.5t-100 -146.5t-150.5 -95t-187.5 -34q-105 0 -190.5 33.5t-147 93.5t-96.5 143.5t-40 183.5z" />
<glyph unicode="K" horiz-adv-x="1273" d="M121 1454h215l1 -676l556 676h263l-510 -620l584 -834h-251l-464 663l-178 -205l2 -458h-215z" />
<glyph unicode="L" horiz-adv-x="1134" d="M121 -1v1455h214v-1272h746v-183h-960z" />
<glyph unicode="M" horiz-adv-x="1695" d="M121 0v1454h197l528 -1088l522 1088h205v-1454h-214v939l-455 -934h-115l-454 934v-939h-214z" />
<glyph unicode="N" horiz-adv-x="1441" d="M121 0v1454h191l793 -1077v1077h215v-1454h-178l-807 1075v-1075h-214z" />
<glyph unicode="O" horiz-adv-x="1611" d="M122 721q0 156 46 290.5t133.5 233t214.5 154.5t290 56q162 0 289.5 -56t215 -155t133.5 -233t46 -290t-46 -290t-134 -232.5t-215 -155t-289 -56.5t-289 56.5t-215 155t-134 232.5t-46 290zM335 721q0 -110 28.5 -210t87 -175.5t147 -120.5t208.5 -45q119 0 207.5 45 t147 121t87 176t28.5 209q0 110 -28.5 209.5t-86.5 175.5t-146.5 121t-208.5 45t-209 -45t-147 -120.5t-86.5 -175.5t-28.5 -210z" />
<glyph unicode="P" horiz-adv-x="1284" d="M132 0v1463h45h65t76 -0.5t76 -0.5h65.5h44.5q76 0 154 -5t151 -21t137.5 -45.5t112.5 -78.5t76 -120t28 -170q0 -100 -37.5 -180.5t-101.5 -136t-149.5 -85.5t-181.5 -30q-87 0 -173 -0.5t-173 -0.5v-589h-215zM348 771q87 1 172.5 1h172.5q56 0 102.5 18t80.5 50.5 t53 78.5t19 102q0 89 -34.5 140t-89.5 77.5t-124.5 33.5t-139.5 7h-212v-508z" />
<glyph unicode="Q" horiz-adv-x="1715" d="M122 721q0 156 46 290t133.5 233t215 155t289.5 56t289.5 -56t215 -155t133.5 -233t46 -290q0 -87 -16 -174t-50 -167t-87 -149.5t-126 -122.5l250 -232h-320l-141 134q-97 -23 -194 -23q-162 0 -289 56.5t-215 155t-134 232.5t-46 290zM335 721q0 -110 28.5 -210 t87 -175.5t147 -120.5t208.5 -45q18 0 36 1.5t36 3.5l-177 169h264l101 -97q57 40 96.5 94t65 116.5t37 130t11.5 133.5q0 110 -28.5 209.5t-86.5 175.5t-146.5 121t-208.5 45t-209 -45t-147 -120.5t-86.5 -175.5t-28.5 -210z" />
<glyph unicode="R" horiz-adv-x="1334" d="M122 0v1463q133 -4 264.5 -4h264.5q23 0 47 -0.5t47 -1.5q96 -4 181 -34t148.5 -85t100.5 -134t37 -182q0 -102 -43.5 -192t-126.5 -150q81 -60 125.5 -149t44.5 -190v-341h-214v340q0 56 -19.5 102t-54 79t-81 51t-101.5 18q-102 0 -203 -0.5t-203 -0.5v-589h-214z M336 771q103 1 203.5 1h203.5q55 0 102 18t81 50.5t53 78.5t19 102q0 60 -19 105.5t-53.5 77t-81.5 49.5t-104 22q-36 3 -71 3h-11q-40 0 -83 -1q-60 0 -119.5 0.5t-119.5 0.5v-507z" />
<glyph unicode="S" horiz-adv-x="1352" d="M122 449l214 4q0 -70 8.5 -123t34.5 -89t73.5 -54.5t125.5 -18.5q57 0 113 -0.5t113 -0.5q52 0 91.5 23t66.5 59.5t41 83t14 92.5q0 75 -25 121.5t-66 73.5t-94.5 39t-111.5 17.5t-115.5 9.5t-106.5 16q-70 17 -129.5 47t-102.5 75.5t-67 106t-24 136.5q0 88 31 158.5 t85 121t127 80.5t157 36q23 2 45 2h45q232 0 347.5 -111.5t131.5 -329.5l-211 1q0 63 -14 111.5t-46 81.5t-83 49.5t-125 16.5q-54 0 -104 -10t-88.5 -34.5t-61.5 -65.5t-23 -104t25.5 -102t67 -62t94.5 -33t108 -15t107.5 -8.5t93.5 -12.5q81 -18 145.5 -53t109.5 -86.5 t69 -120t24 -153.5q0 -93 -31.5 -173.5t-88 -140t-135 -93t-173.5 -33.5q-57 0 -113 0.5t-113 0.5q-119 0 -205 28.5t-142 86t-82.5 145t-26.5 204.5z" />
<glyph unicode="T" horiz-adv-x="1313" d="M50 1272v183h1211v-183h-501v-1272h-214v1272h-496z" />
<glyph unicode="U" horiz-adv-x="1341" d="M121 522v932h214v-932q0 -74 23.5 -139t67.5 -113t106 -76t139 -28t138.5 28t105 76t67 113t23.5 139v932h215v-932q0 -120 -41.5 -219t-114.5 -170.5t-173.5 -110.5t-219.5 -39t-220 39t-174.5 110t-114.5 170.5t-41 219.5z" />
<glyph unicode="V" horiz-adv-x="1409" d="M82 1454h225l397 -1058l398 1058h226l-545 -1453h-157z" />
<glyph unicode="W" horiz-adv-x="2045" d="M82 1454h221l313 -1020l308 1022l196 -6l311 -1017l311 1021h222l-441 -1451h-183l-318 1038l-315 -1038h-183z" />
<glyph unicode="X" horiz-adv-x="1547" d="M122 1l529 738l-505 715h252l380 -539l388 539h252l-514 -715l523 -739h-252l-398 563l-403 -562h-252z" />
<glyph unicode="Y" horiz-adv-x="1451" d="M81 1454h240l404 -690l404 690h241l-541 -924l4 -530h-216l1 537z" />
<glyph unicode="Z" horiz-adv-x="1458" d="M122 -1v183l930 1090h-930v183h1214v-183l-932 -1090h932v-183h-1214z" />
<glyph unicode="[" horiz-adv-x="579" d="M100 -248v1763l412 -2v-184l-197 1v-1395h197v-183h-412z" />
<glyph unicode="\" horiz-adv-x="976" d="M24 1454h230l622 -1454h-229z" />
<glyph unicode="]" horiz-adv-x="579" d="M67 -65h197v1411l-197 -1v184l412 2v-1779h-412v183z" />
<glyph unicode="^" horiz-adv-x="1374" d="M108 704l479 796h210l479 -796h-245l-339 563l-339 -563h-245z" />
<glyph unicode="_" horiz-adv-x="1052" d="M42 -80h984v-184h-984v184z" />
<glyph unicode="`" horiz-adv-x="627" d="M-15 1610l311 2l217 -381h-201z" />
<glyph unicode="a" horiz-adv-x="1139" d="M122 331q0 80 29 137t78.5 95t113.5 60.5t134 33.5t141 13q51 2 97 2h36q14 0 27 -0.5t25 -0.5v5q0 59 -16.5 98.5t-47.5 63.5t-74.5 34.5t-97.5 10.5q-48 0 -86 -8.5t-64.5 -29.5t-41 -55.5t-14.5 -86.5l-216 17q6 92 41 157.5t92 107.5t132 61.5t160 19.5 q105 0 188 -25.5t140.5 -78t88.5 -132.5t31 -188q0 -161 -1 -321t0 -321h-181l-33 100q-26 -27 -61.5 -48.5t-75 -35.5t-80 -21.5t-78.5 -7.5q-81 0 -151.5 21.5t-122.5 64t-82 107t-30 151.5zM335 331q0 -87 45 -124t128 -37q61 0 114 11.5t92.5 39t63 73t25.5 113.5l1 80 q-26 1 -51.5 1.5t-51.5 0.5q-21 0 -56.5 -1t-76.5 -5.5t-82.5 -14t-75 -27t-54.5 -44.5t-21 -66z" />
<glyph unicode="b" horiz-adv-x="1274" d="M121 1457h214l1 -525q20 36 54.5 64.5t76 48t86.5 29.5t84 10q121 0 217 -41.5t162.5 -115t101.5 -174t35 -217.5t-35 -217.5t-101.5 -174t-162.5 -115.5t-217 -42q-41 0 -85 7.5t-84.5 24t-74.5 42.5t-56 64l1 -109h-215zM336 551q0 -71 16.5 -139.5t52.5 -122 t93.5 -86.5t138.5 -33q79 0 136 30.5t94 81.5t54.5 117t17.5 137t-17.5 137t-54.5 116.5t-94 81t-136 30.5q-72 0 -128.5 -29.5t-94.5 -78.5t-58 -112t-20 -130z" />
<glyph unicode="c" horiz-adv-x="1217" d="M110 536q0 118 35 218t101 173.5t162 115t218 41.5q174 0 297.5 -85.5t183.5 -249.5l-204 -58q-35 99 -102 154.5t-175 55.5q-79 0 -136.5 -30.5t-94.5 -81t-54.5 -116.5t-17.5 -137t17.5 -137t54.5 -117t94.5 -81.5t136.5 -30.5q104 0 171 53t102 148l198 -76 q-64 -152 -185.5 -230t-285.5 -78q-122 0 -218 41.5t-162 115t-101 174t-35 218.5z" />
<glyph unicode="d" horiz-adv-x="1274" d="M122 536q0 118 35 218t101 173.5t162 115t218 41.5q38 0 82 -10t86 -29t77 -46t55 -61q0 131 0.5 259.5t0.5 259.5h215l-2 -1441h-216l1 105q-26 -32 -61 -57t-74 -42t-81 -26t-83 -9q-122 0 -218 41.5t-162 115t-101 174t-35 218.5zM335 536q0 -71 18 -137t55 -117 t94 -81.5t136 -30.5q85 0 142.5 34.5t92.5 90t50 126.5t15 143q0 63 -21.5 124t-61 108t-94.5 76t-123 29q-79 0 -136.5 -30.5t-94.5 -81t-54.5 -116.5t-17.5 -137z" />
<glyph unicode="e" horiz-adv-x="1274" d="M122 536q0 117 35 217.5t101.5 174t162.5 115t217 41.5q138 0 236 -47.5t160.5 -129t91 -189.5t28.5 -229l-817 3q5 -66 26 -124.5t58 -102.5t91 -69.5t126 -25.5q98 0 168.5 51.5t104.5 142.5l205 -56q-28 -77 -76 -137t-110.5 -101t-136.5 -62t-155 -21q-121 0 -217 42 t-162.5 115.5t-101.5 174t-35 217.5zM354 676l568 -2q-14 51 -40 92.5t-62 71.5t-82 46.5t-100 16.5t-100 -16t-82 -45.5t-61.5 -71t-40.5 -92.5z" />
<glyph unicode="f" horiz-adv-x="634" d="M78 882v183h97v122q0 69 20.5 119.5t58 83.5t90.5 49t119 16h162v-183h-105h-53q-28 0 -44 -12t-24.5 -31.5t-10.5 -44.5t-1 -51q1 -17 2 -34.5t1 -33.5h234v-183h-234l-3 -866h-216l4 866h-97z" />
<glyph unicode="g" horiz-adv-x="1274" d="M122 542q0 118 35 218.5t101 173.5t162 114.5t218 41.5q42 0 86 -10.5t84.5 -30.5t73.5 -50t54 -68l-1 131h217l2 -1064q0 -108 -38 -196t-104.5 -150.5t-157 -96.5t-195.5 -34q-96 0 -176.5 26t-142.5 76.5t-104.5 123.5t-63.5 167h218q14 -49 39.5 -88t61 -66 t79.5 -41.5t95 -14.5q65 0 116 22.5t86 62t53.5 93.5t18.5 116v166q-23 -36 -57 -67t-74 -54t-83.5 -36t-86.5 -13q-122 0 -218 41.5t-162 114.5t-101 173.5t-35 218.5zM335 542q0 -71 18 -137t55 -117t94 -81.5t136 -30.5q70 0 126 30t95 79t59.5 111.5t20.5 127.5 q0 71 -16.5 140t-52.5 123t-93 87.5t-139 33.5q-79 0 -136 -30.5t-94 -81.5t-55 -117t-18 -137z" />
<glyph unicode="h" horiz-adv-x="1138" d="M122 1454h214l1 -492q22 28 56 51t74.5 40t84 26.5t84.5 9.5h14q83 -4 150.5 -29.5t115.5 -72t74 -114t26 -154.5q0 -181 -1 -359.5t-1 -359.5h-215l3 719q0 46 -14 81t-40 59t-62.5 36t-81.5 12q-35 0 -69.5 -8t-66.5 -23t-60 -37t-49 -50q-2 -3 -5.5 -8.5t-7.5 -12.5 t-6.5 -12.5t-2.5 -8.5l2 -747h-215z" />
<glyph unicode="i" horiz-adv-x="510" d="M121 1287q0 14 6.5 34.5t21.5 39.5t41 32t65 13q40 0 66 -13t41.5 -32t21.5 -39.5t6 -34.5q0 -15 -6.5 -35t-22 -38.5t-41.5 -31.5t-65 -13t-64.5 13t-41 31.5t-22 38.5t-6.5 35zM150 1065h214l3 -1065h-214z" />
<glyph unicode="j" horiz-adv-x="502" d="M-99 -184q50 0 95 -2h12q37 0 66 10q33 11 52.5 43t19.5 101l-3 1097h215l1 -1097q0 -78 -17 -133t-47.5 -92.5t-72.5 -59.5t-93 -33t-109 -14.5t-119 -3.5v184zM113 1306q0 30 11 53.5t30 40.5t43 26t50 9t50.5 -9t43.5 -25.5t30 -40.5t11 -54t-11.5 -53.5t-30 -40 t-43 -25t-50.5 -8.5q-25 0 -49.5 9t-43 25.5t-30 40t-11.5 52.5z" />
<glyph unicode="k" horiz-adv-x="1142" d="M122 1454h214l1 -839l421 449h275l-442 -473l469 -591h-259l-348 435l-115 -115v-320h-214z" />
<glyph unicode="l" horiz-adv-x="461" d="M122 1454h214l3 -1454h-215z" />
<glyph unicode="m" horiz-adv-x="1726" d="M122 1065h214v-103q22 35 52 59t65.5 39t75 22t78.5 7q85 0 152.5 -32t124.5 -96q62 65 145.5 96t171.5 31q77 0 148 -28t126 -77t88 -116.5t33 -147.5q0 -181 -1 -359.5t-1 -359.5h-215l2 719q0 36 -15 69.5t-40 59.5t-58.5 41.5t-69.5 15.5q-38 0 -78.5 -15.5 t-73.5 -42t-54.5 -62.5t-21.5 -77l-2 -708h-219l3 719q0 39 -12.5 73.5t-35 60t-55 40t-73.5 14.5q-76 0 -140 -40t-98 -107v-760h-214z" />
<glyph unicode="n" horiz-adv-x="1137" d="M122 1065h214v-107q26 31 64 55.5t80.5 41t87.5 25.5t85 9q84 0 151 -28t114 -77.5t72.5 -117t25.5 -147.5l-2 -719h-215l3 719q0 85 -49 136.5t-149 51.5q-34 0 -76.5 -11.5t-81.5 -32.5t-69 -49.5t-39 -63.5l1 -750h-215z" />
<glyph unicode="o" horiz-adv-x="1274" d="M122 536q0 117 35 217.5t101.5 174t162.5 115t217 41.5t216.5 -42t162 -115.5t102 -173.5t35.5 -217t-35 -217.5t-101.5 -174t-162.5 -115.5t-217 -42q-122 0 -218 42t-162 115.5t-101 174t-35 217.5zM335 536q0 -71 18 -137t55 -117t94 -81.5t136 -30.5t136 30.5 t93.5 81.5t54 117t17.5 137t-17.5 136.5t-54 116.5t-93.5 81.5t-136 30.5t-136 -30.5t-94 -81t-55 -116.5t-18 -137z" />
<glyph unicode="p" horiz-adv-x="1275" d="M121 -389l3 1441h215q0 -24 -0.5 -48.5t-0.5 -48.5q31 36 70.5 60.5t82.5 39t87 20.5t84 6q122 0 214 -42t154 -115.5t93 -174t31 -217.5t-35 -217.5t-101.5 -174t-162 -115t-217.5 -41.5q-40 0 -85.5 10.5t-88 29.5t-76.5 45.5t-51 57.5l-1 -516h-215zM337 550 q0 -71 16.5 -139.5t52.5 -122.5t93.5 -87.5t138.5 -33.5q79 0 136 30.5t94 81t54.5 116.5t17.5 137t-17.5 137t-54.5 117t-94 81.5t-136 30.5q-72 0 -128 -29.5t-94.5 -78.5t-58.5 -111.5t-20 -128.5z" />
<glyph unicode="q" horiz-adv-x="1275" d="M122 532q0 118 35 218.5t101 174t162 115t218 41.5q38 0 80 -7.5t82 -22t75.5 -37t61.5 -52.5l-1 90h216l3 -1441h-216l-1 519q-25 -35 -59 -62t-73.5 -46t-82.5 -28.5t-85 -9.5q-122 0 -218 41.5t-162 115t-101 173.5t-35 218zM335 532q0 -71 17.5 -137t54.5 -116.5 t94.5 -81t136.5 -30.5q82 0 139 33t93 87t52 123t16 140q0 66 -20 129t-58 111.5t-94 78t-128 29.5q-79 0 -136 -30.5t-94 -81.5t-55 -117t-18 -137z" />
<glyph unicode="r" horiz-adv-x="721" d="M122 1065h214v-116q29 44 66 67.5t79 34t87 12.5t88 2v-195q-17 3 -37 5t-41 2q-42 0 -84.5 -8t-77.5 -27t-57 -50t-22 -76l2 -716h-215z" />
<glyph unicode="s" horiz-adv-x="1131" d="M121 306q0 8 0.5 15.5t0.5 15.5l213 -5q0 -47 6 -78t23 -50t47 -26.5t77 -7.5q45 0 88.5 -0.5t88.5 -0.5q30 0 54 11.5t41 31t26.5 45.5t9.5 55q0 44 -19.5 71t-51.5 42.5t-72.5 22.5t-81.5 10t-79 4.5t-66 6.5q-59 11 -111 35t-91 62t-61.5 89.5t-22.5 117.5 q0 88 35.5 150t93.5 101t131.5 56.5t148.5 17.5q90 0 163.5 -21t127 -65.5t85 -113.5t38.5 -164h-215q0 52 -13.5 86.5t-39 54.5t-62 28.5t-84.5 8.5q-35 0 -70 -5.5t-62.5 -20.5t-44.5 -42t-17 -71q0 -41 20 -67t52.5 -41t73.5 -22t82 -10t78.5 -5t63.5 -7q60 -12 112 -37 t90 -63.5t60 -90.5t22 -118q0 -75 -27 -136t-74 -104t-110 -66t-134 -23q-26 0 -51.5 -0.5t-51.5 -0.5q-88 0 -168 9.5t-140.5 43t-96 98t-35.5 173.5z" />
<glyph unicode="t" horiz-adv-x="683" d="M82 883v183h78l1 267h214l-1 -267h217v-183h-218l-1 -580q0 -42 9 -67t27 -37.5t45.5 -16t65.5 -3.5q25 1 49 1.5t49 1.5v-183h-134q-154 0 -239 75.5t-85 228.5v580h-77z" />
<glyph unicode="u" horiz-adv-x="1137" d="M121 351q0 181 0.5 359.5t0.5 359.5h216l-3 -719q-1 -94 53 -141t145 -47q38 0 79 11t77.5 31.5t66 50t43.5 66.5l1 1l-2 747h214l3 -1065h-214v96q-54 -58 -127 -89t-151 -31q-84 0 -157.5 25t-127.5 72t-85.5 116t-31.5 157z" />
<glyph unicode="v" horiz-adv-x="1126" d="M18 1064h231l312 -694l313 694h231l-480 -1064h-127z" />
<glyph unicode="w" horiz-adv-x="1580" d="M27 1064h224l225 -654l223 651h194l225 -651l224 654h224l-363 -1062h-170l-237 688l-235 -688h-169z" />
<glyph unicode="x" horiz-adv-x="1159" d="M30 1064h258l294 -377l299 377h259l-429 -541l408 -523h-259l-279 358l-283 -357h-259l413 522z" />
<glyph unicode="y" horiz-adv-x="1147" d="M16 1064h227l302 -751l346 751h231l-609 -1322q-30 -66 -90 -103.5t-132 -37.5q-51 0 -98 14.5t-95 28.5v193q14 -5 35.5 -15t45.5 -20t48 -17.5t42 -7.5q12 0 22 5q5 2 15.5 18.5t23.5 43.5q14 27 28.5 59t27.5 62t23 53.5t14 32.5z" />
<glyph unicode="z" horiz-adv-x="1247" d="M137 184l693 698h-649v183h946v-138l-745 -745h745v-183h-988z" />
<glyph unicode="{" horiz-adv-x="880" d="M104 520v157q25 7 57.5 13.5t62 18t50 32t20.5 54.5v393q0 67 23.5 116.5t64 81.5t96 48t118.5 16h40h121v-186q-37 1 -73.5 1.5t-73.5 0.5q-24 0 -42.5 -2t-31 -9.5t-19 -23.5t-6.5 -43v-393q0 -59 -26 -110t-72 -86q45 -35 71.5 -87.5t26.5 -109.5v-394q0 -27 6.5 -43 t19 -23.5t30.5 -9.5t42 -2q37 0 74 0.5t74 1.5v-185h-121h-40q-65 0 -120.5 15.5t-96 47.5t-63 81t-22.5 117v394q0 35 -20.5 55t-50 31.5t-62 18t-57.5 13.5z" />
<glyph unicode="|" horiz-adv-x="539" d="M157 1454h217l4 -1631h-217z" />
<glyph unicode="}" horiz-adv-x="880" d="M124 -62q37 -1 74 -1.5t74 -0.5q23 0 41 2t30.5 9.5t19 23t6.5 42.5v393q0 60 26 109.5t72 86.5q-46 35 -72 86t-26 109v392q0 27 -6.5 43t-19 23.5t-30.5 9.5t-42 2q-37 0 -73.5 -0.5t-73.5 -1.5v185h121h40q63 0 118 -15.5t95.5 -48t64 -81.5t23.5 -116v-392 q0 -33 20.5 -52.5t49.5 -30t62 -13.5t57 -3v-193q-25 0 -57.5 -3t-61.5 -13t-49.5 -29.5t-20.5 -53.5v-39v-354q0 -67 -23 -116t-63 -81t-95 -47.5t-120 -15.5h-40h-121v185z" />
<glyph unicode="~" horiz-adv-x="1271" d="M72 656q34 49 70.5 90t79.5 71t94.5 46.5t114.5 16.5q65 0 119 -22t102 -49t92.5 -49t89.5 -22q30 0 54 13t43.5 33t35 44.5t27.5 47.5l160 -90q-28 -49 -61.5 -91t-74.5 -73t-90.5 -48t-109.5 -17q-64 0 -119.5 22t-104.5 48.5t-92.5 48.5t-82.5 22q-35 0 -63 -11.5 t-50.5 -30.5t-41 -44t-34.5 -53z" />
<glyph unicode="&#xa1;" horiz-adv-x="734" d="M207 1297q0 24 8 51t27 50t49 38t75 15q44 0 74 -15.5t48.5 -38.5t26.5 -50t8 -50q0 -24 -8 -50.5t-26.5 -49.5t-48.5 -38t-74 -15t-74.5 15t-49 37.5t-27 49.5t-8.5 51zM217.5 -153q0.5 10 0.5 18l50 1136h181l37 -1137q1 -3 0.5 -6t-0.5 -6q0 -20 -2.5 -42t-12.5 -39 q-6 -11 -15.5 -23t-24 -22t-34 -16t-45.5 -6q-58 0 -93.5 33t-39.5 89q-2 11 -1.5 21z" />
<glyph unicode="&#xa2;" horiz-adv-x="1417" d="M175 726q0 109 32 203.5t92 168t146.5 122.5t194.5 68v159h213v-151q121 -12 220 -62t179 -142l-150 -134q-36 42 -71 72t-73.5 49.5t-83.5 29t-101 9.5q-90 0 -161 -28t-120.5 -79t-75.5 -123.5t-26 -161.5q0 -88 26 -160.5t75.5 -124t120.5 -79.5t161 -28 q57 0 101.5 9.5t83 29.5t73.5 50t72 71l149 -136q-81 -91 -179.5 -140.5t-219.5 -62.5v-155h-213v163q-109 19 -195 68.5t-146 123t-92 168t-32 203.5z" />
<glyph unicode="&#xa3;" horiz-adv-x="1246" d="M102 3v168q67 0 118.5 21.5t87 61t53.5 96.5t18 129q0 29 -3 57.5t-8 57.5h-266v184h226q-14 60 -24 120.5t-10 122.5q0 100 33 179.5t92 135.5t140.5 86t179.5 30q112 0 209 -41t174 -123l-153 -137q-24 29 -47.5 50.5t-50 36t-57.5 22t-69 7.5q-58 0 -102 -17.5 t-73 -50t-44 -78.5t-15 -102q0 -62 11 -121.5t25 -119.5h368v-184h-328q9 -57 9 -116q0 -77 -20.5 -153.5t-71.5 -136.5h621v-185h-1023z" />
<glyph unicode="&#xa4;" horiz-adv-x="1238" d="M123 333l138 135q-27 45 -42 96t-15 104q0 109 57 201l-138 135l166 164l144 -142q48 23 98.5 35.5t103.5 12.5q51 0 101.5 -12t96.5 -35l145 141l165 -164l-137 -134q28 -46 42.5 -97t14.5 -105q0 -109 -57 -201l137 -134l-165 -163l-145 141q-46 -23 -96.5 -35.5 t-102.5 -12.5q-53 0 -104 11.5t-98 35.5l-143 -140zM421 667q0 -42 17.5 -81.5t46.5 -70t67.5 -48.5t81.5 -18t81.5 18.5t67.5 49t46 70t17 81.5q0 43 -17 83t-46 70.5t-68 48.5t-83 18q-43 0 -81 -19t-67 -49.5t-46 -70.5t-17 -82z" />
<glyph unicode="&#xa5;" horiz-adv-x="1331" d="M18 1454h240l404 -690l404 690h241l-481 -822h239v-158h-298v-92h298v-143h-297v-239h-215v239h-314v143h314v92h-314v158h259z" />
<glyph unicode="&#xa6;" horiz-adv-x="667" d="M220 -485l13 838l217 -5l-12 -838zM220 683l13 838l217 -4l-12 -838z" />
<glyph unicode="&#xa7;" horiz-adv-x="1092" d="M114 177l187 93q14 -48 51.5 -69t82.5 -28q27 -4 54 -4.5t52 -0.5q39 0 79.5 2.5t74 16t55 42t21.5 80.5q0 33 -11 55t-30 36.5t-44 22.5t-53 14q-58 11 -116.5 12.5t-115.5 11.5q-59 11 -111 34.5t-91 60t-61.5 87.5t-22.5 115q0 36 12 69t33 59.5t50.5 45t65.5 25.5 q-36 19 -65.5 43t-50.5 53.5t-33 64.5t-12 77q0 86 35.5 146t93 98.5t130 56t147.5 17.5q63 0 119 -9.5t104.5 -32.5t90 -60.5t74.5 -93.5l-180 -104q-15 38 -35 60.5t-45.5 35t-57 16.5t-68.5 4q-34 0 -69 -4.5t-63 -19t-45.5 -40.5t-17.5 -69q0 -39 20.5 -64t53 -40 t73.5 -22t82.5 -10t79 -4.5t62.5 -6.5q61 -11 113 -35t90.5 -61.5t60.5 -88.5t22 -117q0 -34 -11.5 -62.5t-31.5 -51.5t-47 -40.5t-57 -28.5q42 -15 70 -41.5t45.5 -60t24.5 -73t7 -80.5q0 -73 -27.5 -132t-74.5 -100.5t-110 -64t-134 -22.5q-30 0 -60 -0.5t-60 -0.5 q-56 0 -112 4t-107 19.5t-94 46t-75 84.5q-5 8 -8.5 17t-8.5 17zM328 758q0 -36 15 -61t40.5 -42t58 -26.5t67 -14.5t68.5 -6.5t62 -2.5q5 0 16 3.5t17 3.5q46 17 72.5 51t26.5 84q0 28 -7.5 47.5t-21 33.5t-33 23.5t-43.5 16.5q-47 14 -95.5 18.5t-96.5 4.5 q-28 0 -54.5 -9.5t-46.5 -27t-32.5 -42t-12.5 -54.5z" />
<glyph unicode="&#xa8;" horiz-adv-x="937" d="M115 1391q0 19 6.5 42t22.5 43t42.5 33.5t66.5 13.5q41 0 67.5 -14t42.5 -34t22 -43t6 -41t-6 -40.5t-22 -42.5t-42.5 -34t-67.5 -14q-40 0 -66.5 13.5t-42.5 34t-22.5 43t-6.5 40.5zM486 1391q0 19 6.5 42t23 43t43.5 33.5t67 13.5q41 0 67 -14t42 -34t22 -43t6 -41 t-6 -40.5t-22 -42.5t-42 -34t-67 -14q-40 0 -67 13.5t-43.5 34t-23 43t-6.5 40.5z" />
<glyph unicode="&#xa9;" horiz-adv-x="1758" d="M100 729q0 107 28.5 204t80.5 180t124 149.5t158.5 114t185 73t202.5 25.5q105 0 203 -25.5t184.5 -73t158.5 -114t123.5 -149.5t80 -180t28.5 -204t-28.5 -204t-80 -180t-123.5 -149.5t-158.5 -114t-185 -73t-202.5 -25.5t-202.5 25.5t-185 73t-158.5 114t-124 149.5 t-80.5 180t-28.5 204zM278 729q0 -83 21.5 -160t60.5 -143.5t94 -121t121.5 -93.5t143.5 -60t160 -21t160 21.5t143.5 60t121.5 93.5t94 121.5t60.5 143t21.5 159.5q0 125 -47 234t-129 190t-191 128t-234 47t-234.5 -46.5t-191 -127.5t-128.5 -190.5t-47 -234.5zM449 716 q0 101 30.5 187t88.5 148.5t140.5 98t186.5 35.5q168 0 278.5 -89.5t154.5 -249.5l-203 -62q-10 46 -28.5 85.5t-46 69t-66 46.5t-89.5 17q-61 0 -105 -24.5t-72 -64.5t-41 -91.5t-13 -105.5t13 -106t41 -92.5t72 -65.5t105 -25q51 0 89.5 17t66 46.5t46 69t28.5 85.5 l203 -62q-22 -80 -61 -142.5t-93.5 -106t-124.5 -66.5t-154 -23q-104 0 -187 35.5t-140.5 98.5t-88 149.5t-30.5 187.5z" />
<glyph unicode="&#xaa;" horiz-adv-x="863" d="M103 979q0 23 4 39q9 51 39 83t72 52t90.5 31.5t94.5 20.5q21 5 42 9t42 7q0 51 -24.5 73t-74.5 22q-46 0 -67 -17.5t-18 -66.5l-188 17q1 8 1 17t1 17q6 52 31.5 89t64 61t85 35t92.5 11q135 0 211 -65.5t76 -205.5v-406h-188v69q-11 -17 -31 -31.5t-43.5 -25t-48.5 -16 t-46 -5.5q-51 0 -91.5 8t-68 29t-42.5 57t-15 92zM289 1015q-8 -35 8 -54t50 -19q71 0 105.5 42.5t36.5 110.5q-14 -3 -45.5 -9t-64.5 -15.5t-59.5 -23t-30.5 -32.5z" />
<glyph unicode="&#xab;" horiz-adv-x="1191" d="M133 535l432 418l142 -144l-282 -271l281 -262l-138 -143zM528 535l432 418l143 -144l-282 -271l281 -262l-139 -143z" />
<glyph unicode="&#xac;" horiz-adv-x="1270" d="M151 632v185h976v-483h-216v298h-760z" />
<glyph unicode="&#xad;" horiz-adv-x="1168" d="M163 504v184h828v-184h-828z" />
<glyph unicode="&#xae;" horiz-adv-x="1758" d="M100 729q0 107 28.5 204t80.5 180t124 149.5t158.5 114t185 73t202.5 25.5q105 0 203 -25.5t184.5 -73t158.5 -114t123.5 -149.5t80 -180t28.5 -204t-28.5 -204t-80 -180t-123.5 -149.5t-158.5 -114t-185 -73t-202.5 -25.5t-202.5 25.5t-185 73t-158.5 114t-124 149.5 t-80.5 180t-28.5 204zM260 729q0 -129 48.5 -241.5t132.5 -196t197 -131.5t241 -48q127 0 239.5 48.5t197 132t133.5 196t49 240.5q0 86 -22 164.5t-62.5 147.5t-97 125t-125 96t-148 62t-164.5 22q-129 0 -241.5 -48t-196.5 -131.5t-132.5 -196t-48.5 -241.5zM547 281v866 l297 -3q27 0 54 0.5t54 -1.5q62 -5 117.5 -23t98.5 -51t68 -82.5t25 -118.5q0 -51 -18.5 -99t-54.5 -84q36 -35 54.5 -82.5t18.5 -98.5v-225h-214q0 41 1.5 81.5t1.5 81.5q0 53 -7 83t-25 46t-49.5 20t-81.5 4h-126v-314h-214zM761 778h189q41 0 69.5 23.5t28.5 66.5 q0 32 -13 50.5t-34 28.5t-46.5 12.5t-50.5 2.5q-36 0 -71.5 -0.5t-71.5 -0.5v-183z" />
<glyph unicode="&#xaf;" horiz-adv-x="1128" d="M182 1500v184h763v-184h-763z" />
<glyph unicode="&#xb0;" horiz-adv-x="983" d="M163 1110q0 51 16.5 111t56.5 112t107 87t169 35q101 0 168.5 -35t107.5 -87t56.5 -112t16.5 -111q0 -34 -7 -72.5t-23.5 -77.5t-43 -74.5t-65 -62.5t-91 -43.5t-119.5 -16.5q-102 0 -169 35t-107 87.5t-56.5 113t-16.5 111.5zM377 1110q0 -72 33.5 -118t101.5 -46 q69 0 102 46t33 118q0 36 -8.5 65.5t-25 51t-42 33.5t-59.5 12q-69 0 -102 -45t-33 -117z" />
<glyph unicode="&#xb1;" horiz-adv-x="1464" d="M162 -47v170h1043v-170h-1043zM162 534v171h422v414h198v-414h423v-171h-423v-378h-198v378h-422z" />
<glyph unicode="&#xb2;" horiz-adv-x="984" d="M92 900q0 59 19 102t49.5 76t70 57.5t80 46.5t80 44t70 48t49.5 59.5t19 79.5q0 26 -8.5 49t-23.5 39.5t-37 26t-49 9.5q-40 0 -64 -19t-36 -48.5t-14.5 -64t-1.5 -65.5h-203v44q0 71 23 130.5t65 102t101 66.5t130 24q65 0 123 -21t101.5 -59t69.5 -92.5t26 -122.5 q0 -58 -15 -105.5t-43 -86.5t-67.5 -70.5t-88.5 -58.5q-43 -23 -88 -43t-82 -53h395v-170h-644q-2 19 -4 37.5t-2 37.5z" />
<glyph unicode="&#xb3;" horiz-adv-x="998" d="M89 1145v44h198q0 -11 -0.5 -22t-0.5 -22q0 -66 38 -105t104 -39t103.5 39t37.5 105t-37 106t-104 40q-26 0 -51 -5t-50 -12l-41 84l152 160h-306v165h622l30 -67l-185 -196q40 -19 71 -48t52.5 -65t32.5 -77t11 -85q0 -73 -27 -130t-73 -97t-107.5 -61t-130.5 -21 t-130.5 21t-108 61t-73.5 97t-27 130z" />
<glyph unicode="&#xb4;" horiz-adv-x="761" d="M181 1229l201 375h268l-292 -375h-177z" />
<glyph unicode="&#xb6;" horiz-adv-x="1410" d="M209 1159q0 43 16 93.5t51 94t90.5 72.5t134.5 29h527v-154h-127v-1295h-175v1295h-95v-1295h-176v876q-67 8 -113.5 39t-76 72.5t-43 88t-13.5 84.5z" />
<glyph unicode="&#xb7;" horiz-adv-x="663" d="M239 729q0 21 7 48t24.5 50t47 39t73.5 16q45 0 74.5 -16t47.5 -39t25 -50t7 -48t-7 -48t-25 -50t-47.5 -39t-74.5 -16q-44 0 -73.5 16t-47 39t-24.5 50t-7 48z" />
<glyph unicode="&#xb8;" horiz-adv-x="553" d="M20 -436l120 132q17 -23 47.5 -37.5t66.5 -14.5q9 0 19 0.5t18 3.5t14 9.5t8 17.5q3 19 -2 32.5t-15.5 22t-24.5 12t-29 3.5q-38 0 -76 -2t-76 -12v95q0 6 8.5 20.5t21.5 34t28.5 41.5t30.5 42t26.5 36t17.5 23h257l-114 -146q71 -22 113.5 -72.5t42.5 -126.5 q0 -51 -21.5 -90.5t-56.5 -66t-79.5 -40t-91.5 -13.5q-72 0 -134 28t-119 68z" />
<glyph unicode="&#xb9;" horiz-adv-x="730" d="M32 1529l450 227v-880h-197v586l-174 -87z" />
<glyph unicode="&#xba;" horiz-adv-x="876" d="M110 1110q0 51 16.5 111t56.5 112t107.5 87t168.5 35t168.5 -35t108 -87t57 -112t16.5 -111t-16.5 -111.5t-57 -113t-108 -87.5t-168.5 -35q-67 0 -119.5 16.5t-91 43.5t-65 62.5t-43 74.5t-23.5 77.5t-7 72.5zM324 1110q0 -72 33.5 -118t101.5 -46q69 0 102.5 46 t33.5 118t-33.5 117t-102.5 45t-102 -45t-33 -117z" />
<glyph unicode="&#xbb;" horiz-adv-x="1145" d="M60 809l143 144l432 -418l-435 -402l-139 143l281 262zM470 809l142 144l433 -418l-436 -402l-138 143l281 262z" />
<glyph unicode="&#xbc;" horiz-adv-x="1790" d="M190 1189l356 276l80 -36v-796h-197v515l-126 -96zM292 0l921 1454h248l-921 -1454h-248zM773 187l638 822l114 -37v-676h83v-165h-83v-158h-197v158h-523zM1095 296h233v301z" />
<glyph unicode="&#xbd;" horiz-adv-x="1789" d="M113 1278l449 227v-880h-197v585l-173 -86zM221 0l921 1454h208l-921 -1454h-208zM913 84q0 58 19 100.5t49.5 75t70 57.5t80 47t80 43.5t70 48.5t49.5 60.5t19 79.5q0 26 -8.5 48.5t-24 39.5t-37 26.5t-48.5 9.5q-40 0 -63.5 -19t-35.5 -48t-14.5 -63.5t-1.5 -65.5h-204 v44q0 71 23 130t65 102t101 66.5t130 23.5q65 0 123 -20.5t102 -58.5t69.5 -92.5t25.5 -122.5q0 -58 -15 -105.5t-43 -86.5t-67.5 -70.5t-88.5 -58.5q-21 -12 -43 -22.5t-44 -21.5t-43 -23.5t-40 -28.5h395v-170h-644q-2 19 -4 37.5t-2 37.5z" />
<glyph unicode="&#xbe;" horiz-adv-x="1770" d="M35 920h197q0 -66 37.5 -104.5t103.5 -38.5t104 38.5t38 104.5t-37.5 106.5t-104.5 40.5q-26 0 -50.5 -5.5t-49.5 -11.5l-41 83l151 160h-305v166h621l30 -68l-185 -196q40 -19 71.5 -48t53 -65t32.5 -77t11 -85q0 -73 -27 -130t-73.5 -97t-108 -61t-130.5 -21t-130.5 21 t-107.5 60.5t-73 97t-27 130.5zM272 0l921 1454h248l-921 -1454h-248zM753 187l638 822l114 -37v-676h83v-165h-83v-158h-197v158h-523zM1075 296h233v301z" />
<glyph unicode="&#xbf;" horiz-adv-x="1193" d="M146 141q0 70 18 120t47 86t66.5 63t76 51t76 48.5t66.5 57.5t47 77t18 107q0 17 -1 34t-3 34l213 11q2 -22 3 -43t1 -43q0 -79 -18 -137.5t-47 -102t-66 -75t-76 -57.5t-76 -49t-66 -49t-47 -57.5t-18 -75.5q0 -50 17.5 -93.5t49 -76t74.5 -51t94 -18.5q48 0 89 15 t70.5 43t46.5 68t17 89q0 26 -4 52t-11 51l210 38q8 -35 13.5 -71t5.5 -72q0 -92 -35.5 -165t-96 -124t-139.5 -78.5t-166 -27.5q-91 0 -172.5 30.5t-143 86t-97.5 133t-36 171.5zM497 1004q0 33 13 59t34.5 43.5t49.5 27t59 9.5t59.5 -9t50 -27t34.5 -44t13 -59t-13 -59 t-34.5 -44t-50 -27t-59.5 -9t-59 9.5t-49.5 27t-34.5 43.5t-13 59z" />
<glyph unicode="&#xc0;" horiz-adv-x="1300" d="M12 -1l564 1455h150l562 -1455h-226l-125 324h-573l-125 -324h-227zM386 1947l311 2l217 -381h-201zM435 505h430l-214 558z" />
<glyph unicode="&#xc1;" horiz-adv-x="1300" d="M12 -1l564 1455h150l562 -1455h-226l-125 324h-573l-125 -324h-227zM402 1610l201 375h296l-293 -375h-204zM435 505h430l-214 558z" />
<glyph unicode="&#xc2;" horiz-adv-x="1300" d="M12 -1l564 1455h150l562 -1455h-226l-125 324h-573l-125 -324h-227zM279 1596l299 384h144l299 -384h-217l-152 160l-147 -160h-226zM435 505h430l-214 558z" />
<glyph unicode="&#xc3;" horiz-adv-x="1300" d="M12 -1l564 1455h150l562 -1455h-226l-125 324h-573l-125 -324h-227zM247 1654q15 52 38.5 95t58 74t79 48.5t101.5 17.5q47 0 88.5 -16.5t76 -36.5t61.5 -36.5t45 -16.5q17 0 30 13t22 31.5t15 38.5t9 33l182 -54q-16 -51 -37.5 -95.5t-53 -77.5t-75 -52t-102.5 -19 q-46 0 -87.5 16.5t-76.5 37t-62 37t-42 16.5q-21 0 -36 -10.5t-25 -26.5t-16.5 -35t-10.5 -36zM435 505h430l-214 558z" />
<glyph unicode="&#xc4;" horiz-adv-x="1300" d="M12 -1l564 1455h150l562 -1455h-226l-125 324h-573l-125 -324h-227zM295 1736q0 19 7 43t23.5 45t44.5 35t70 14t70 -14.5t44 -35.5t22.5 -45t6.5 -42q0 -19 -6.5 -43t-22.5 -45t-44 -35.5t-70 -14.5t-70 14.5t-44.5 35.5t-23.5 45t-7 43zM435 505h430l-214 558z M714 1736q0 19 6.5 43t23 45t44 35t69.5 14q43 0 70.5 -14.5t44 -35.5t23 -45t6.5 -42q0 -19 -6.5 -43t-23 -45t-44 -35.5t-70.5 -14.5q-42 0 -69.5 14.5t-44 35.5t-23 45t-6.5 43z" />
<glyph unicode="&#xc5;" horiz-adv-x="1300" d="M12 -1l564 1455h150l562 -1455h-226l-125 324h-573l-125 -324h-227zM435 505h430l-214 558zM440 1850q0 48 16 87t44.5 67.5t68 44t86.5 15.5t86.5 -15.5t68 -44t44.5 -67.5t16 -87t-15.5 -87.5t-44 -68t-68 -44.5t-87.5 -16t-87.5 16t-68 44.5t-44 68t-15.5 87.5z M594 1850q0 -29 16 -45.5t45 -16.5t45 16.5t16 45.5q0 28 -16.5 44t-44.5 16t-44.5 -16t-16.5 -44z" />
<glyph unicode="&#xc6;" horiz-adv-x="2077" d="M68 -1l991 1455h929v-183l-732 1v-429h677v-182h-677v-479h732v-183h-946v324h-504l-220 -324h-250zM662 505h380v557z" />
<glyph unicode="&#xc7;" horiz-adv-x="1532" d="M122 721q0 156 46 290.5t133.5 233t214.5 154.5t290 56q208 0 358.5 -90t238.5 -258l-191 -89q-28 59 -67 106t-89 80t-112.5 50.5t-137.5 17.5q-120 0 -208.5 -45t-147 -120.5t-87 -175.5t-28.5 -210q0 -109 28.5 -209t87 -176t147 -121t208.5 -45q146 0 243.5 64 t155.5 175l184 -99q-89 -155 -236.5 -239t-346.5 -84q-162 0 -289 56.5t-215 155t-134 232.5t-46 290zM563 -499l120 132q17 -23 47.5 -37.5t66.5 -14.5q9 0 19 0.5t18 3.5t14 9.5t8 17.5q3 19 -2 32.5t-15.5 22t-24.5 12t-29 3.5q-38 0 -76 -2t-76 -12v95q0 6 8.5 20.5 t21.5 34t28.5 41.5t30.5 42t26.5 36t17.5 23h257l-114 -146q71 -22 113.5 -72.5t42.5 -126.5q0 -51 -21.5 -90.5t-56.5 -66t-79.5 -40t-91.5 -13.5q-72 0 -134 28t-119 68z" />
<glyph unicode="&#xc8;" horiz-adv-x="1173" d="M121 -1v1456l952 -1v-183l-738 1v-429h648v-182h-648v-479h738v-183h-952zM323 1947l311 2l217 -381h-201z" />
<glyph unicode="&#xc9;" horiz-adv-x="1173" d="M121 -1v1456l952 -1v-183l-738 1v-429h648v-182h-648v-479h738v-183h-952zM338 1610l201 375h296l-293 -375h-204z" />
<glyph unicode="&#xca;" horiz-adv-x="1173" d="M121 -1v1456l952 -1v-183l-738 1v-429h648v-182h-648v-479h738v-183h-952zM216 1596l299 384h144l299 -384h-217l-152 160l-147 -160h-226z" />
<glyph unicode="&#xcb;" horiz-adv-x="1173" d="M121 -1v1456l952 -1v-183l-738 1v-429h648v-182h-648v-479h738v-183h-952zM231 1736q0 19 7 43t23.5 45t44.5 35t70 14t70 -14.5t44 -35.5t22.5 -45t6.5 -42q0 -19 -6.5 -43t-22.5 -45t-44 -35.5t-70 -14.5t-70 14.5t-44.5 35.5t-23.5 45t-7 43zM650 1736q0 19 6.5 43 t23 45t44 35t69.5 14q43 0 70.5 -14.5t44 -35.5t23 -45t6.5 -42q0 -19 -6.5 -43t-23 -45t-44 -35.5t-70.5 -14.5q-42 0 -69.5 14.5t-44 35.5t-23 45t-6.5 43z" />
<glyph unicode="&#xcc;" horiz-adv-x="456" d="M-36 1947l311 2l217 -381h-201zM121 0v1454h214v-1454h-214z" />
<glyph unicode="&#xcd;" horiz-adv-x="456" d="M-21 1610l201 375h296l-293 -375h-204zM121 0v1454h214v-1454h-214z" />
<glyph unicode="&#xce;" horiz-adv-x="456" d="M-143 1596l299 384h144l299 -384h-217l-152 160l-147 -160h-226zM121 0v1454h214v-1454h-214z" />
<glyph unicode="&#xcf;" horiz-adv-x="456" d="M-128 1736q0 19 7 43t23.5 45t44.5 35t70 14t70 -14.5t44 -35.5t22.5 -45t6.5 -42q0 -19 -6.5 -43t-22.5 -45t-44 -35.5t-70 -14.5t-70 14.5t-44.5 35.5t-23.5 45t-7 43zM121 0v1454h214v-1454h-214zM291 1736q0 19 6.5 43t23 45t44 35t69.5 14q43 0 70.5 -14.5t44 -35.5 t23 -45t6.5 -42q0 -19 -6.5 -43t-23 -45t-44 -35.5t-70.5 -14.5q-42 0 -69.5 14.5t-44 35.5t-23 45t-6.5 43z" />
<glyph unicode="&#xd0;" horiz-adv-x="1437" d="M19 606v184h828v-184h-828zM121 0v1463q50 -1 110.5 -0.5t125.5 1t131.5 -0.5t128.5 -4q50 -3 94.5 -8t81.5 -13q132 -28 230 -95.5t163 -163t97.5 -213t32.5 -245.5q0 -157 -46.5 -289t-134.5 -228t-215.5 -150t-288.5 -54h-510zM335 182l296 1q120 0 208.5 42.5 t147 115.5t87 171t28.5 209q0 93 -20 180.5t-63.5 160t-112.5 124.5t-167 74q-35 7 -77 12q-40 4 -82.5 5.5t-84.5 1.5t-83 -1t-77 -1v-1095z" />
<glyph unicode="&#xd1;" horiz-adv-x="1441" d="M121 0v1454h191l793 -1077v1077h215v-1454h-178l-807 1075v-1075h-214zM318 1654q15 52 38.5 95t58 74t79 48.5t101.5 17.5q47 0 88.5 -16.5t76 -36.5t61.5 -36.5t45 -16.5q17 0 30 13t22 31.5t15 38.5t9 33l182 -54q-16 -51 -37.5 -95.5t-53 -77.5t-75 -52t-102.5 -19 q-46 0 -87.5 16.5t-76.5 37t-62 37t-42 16.5q-21 0 -36 -10.5t-25 -26.5t-16.5 -35t-10.5 -36z" />
<glyph unicode="&#xd2;" horiz-adv-x="1611" d="M122 721q0 156 46 290.5t133.5 233t214.5 154.5t290 56q162 0 289.5 -56t215 -155t133.5 -233t46 -290t-46 -290t-134 -232.5t-215 -155t-289 -56.5t-289 56.5t-215 155t-134 232.5t-46 290zM335 721q0 -110 28.5 -210t87 -175.5t147 -120.5t208.5 -45q119 0 207.5 45 t147 121t87 176t28.5 209q0 110 -28.5 209.5t-86.5 175.5t-146.5 121t-208.5 45t-209 -45t-147 -120.5t-86.5 -175.5t-28.5 -210zM542 1947l311 2l217 -381h-201z" />
<glyph unicode="&#xd3;" horiz-adv-x="1611" d="M122 721q0 156 46 290.5t133.5 233t214.5 154.5t290 56q162 0 289.5 -56t215 -155t133.5 -233t46 -290t-46 -290t-134 -232.5t-215 -155t-289 -56.5t-289 56.5t-215 155t-134 232.5t-46 290zM335 721q0 -110 28.5 -210t87 -175.5t147 -120.5t208.5 -45q119 0 207.5 45 t147 121t87 176t28.5 209q0 110 -28.5 209.5t-86.5 175.5t-146.5 121t-208.5 45t-209 -45t-147 -120.5t-86.5 -175.5t-28.5 -210zM557 1610l201 375h296l-293 -375h-204z" />
<glyph unicode="&#xd4;" horiz-adv-x="1611" d="M122 721q0 156 46 290.5t133.5 233t214.5 154.5t290 56q162 0 289.5 -56t215 -155t133.5 -233t46 -290t-46 -290t-134 -232.5t-215 -155t-289 -56.5t-289 56.5t-215 155t-134 232.5t-46 290zM335 721q0 -110 28.5 -210t87 -175.5t147 -120.5t208.5 -45q119 0 207.5 45 t147 121t87 176t28.5 209q0 110 -28.5 209.5t-86.5 175.5t-146.5 121t-208.5 45t-209 -45t-147 -120.5t-86.5 -175.5t-28.5 -210zM435 1596l299 384h144l299 -384h-217l-152 160l-147 -160h-226z" />
<glyph unicode="&#xd5;" horiz-adv-x="1611" d="M122 721q0 156 46 290.5t133.5 233t214.5 154.5t290 56q162 0 289.5 -56t215 -155t133.5 -233t46 -290t-46 -290t-134 -232.5t-215 -155t-289 -56.5t-289 56.5t-215 155t-134 232.5t-46 290zM335 721q0 -110 28.5 -210t87 -175.5t147 -120.5t208.5 -45q119 0 207.5 45 t147 121t87 176t28.5 209q0 110 -28.5 209.5t-86.5 175.5t-146.5 121t-208.5 45t-209 -45t-147 -120.5t-86.5 -175.5t-28.5 -210zM403 1654q15 52 38.5 95t58 74t79 48.5t101.5 17.5q47 0 88.5 -16.5t76 -36.5t61.5 -36.5t45 -16.5q17 0 30 13t22 31.5t15 38.5t9 33l182 -54 q-16 -51 -37.5 -95.5t-53 -77.5t-75 -52t-102.5 -19q-46 0 -87.5 16.5t-76.5 37t-62 37t-42 16.5q-21 0 -36 -10.5t-25 -26.5t-16.5 -35t-10.5 -36z" />
<glyph unicode="&#xd6;" horiz-adv-x="1611" d="M122 721q0 156 46 290.5t133.5 233t214.5 154.5t290 56q162 0 289.5 -56t215 -155t133.5 -233t46 -290t-46 -290t-134 -232.5t-215 -155t-289 -56.5t-289 56.5t-215 155t-134 232.5t-46 290zM335 721q0 -110 28.5 -210t87 -175.5t147 -120.5t208.5 -45q119 0 207.5 45 t147 121t87 176t28.5 209q0 110 -28.5 209.5t-86.5 175.5t-146.5 121t-208.5 45t-209 -45t-147 -120.5t-86.5 -175.5t-28.5 -210zM450 1736q0 19 7 43t23.5 45t44.5 35t70 14t70 -14.5t44 -35.5t22.5 -45t6.5 -42q0 -19 -6.5 -43t-22.5 -45t-44 -35.5t-70 -14.5t-70 14.5 t-44.5 35.5t-23.5 45t-7 43zM869 1736q0 19 6.5 43t23 45t44 35t69.5 14q43 0 70.5 -14.5t44 -35.5t23 -45t6.5 -42q0 -19 -6.5 -43t-23 -45t-44 -35.5t-70.5 -14.5q-42 0 -69.5 14.5t-44 35.5t-23 45t-6.5 43z" />
<glyph unicode="&#xd7;" horiz-adv-x="1304" d="M163 1018l142 144l348 -332l347 332l143 -144l-344 -328l341 -326l-143 -144l-344 329l-345 -329l-142 144l340 326z" />
<glyph unicode="&#xd8;" horiz-adv-x="1611" d="M122 721q0 156 46 290.5t133.5 233t214.5 154.5t290 56q162 0 289.5 -56t215 -155t133.5 -233t46 -290t-46 -290t-134 -232.5t-215 -155t-289 -56.5t-289 56.5t-215 155t-134 232.5t-46 290zM335 721q0 -110 28.5 -210t87 -175.5t147 -120.5t208.5 -45q119 0 207.5 45 t147 121t87 176t28.5 209q0 110 -28.5 209.5t-86.5 175.5t-146.5 121t-208.5 45t-209 -45t-147 -120.5t-86.5 -175.5t-28.5 -210zM380 0l622 1454h229l-622 -1454h-229z" />
<glyph unicode="&#xd9;" horiz-adv-x="1341" d="M121 522v932h214v-932q0 -74 23.5 -139t67.5 -113t106 -76t139 -28t138.5 28t105 76t67 113t23.5 139v932h215v-932q0 -120 -41.5 -219t-114.5 -170.5t-173.5 -110.5t-219.5 -39t-220 39t-174.5 110t-114.5 170.5t-41 219.5zM407 1947l311 2l217 -381h-201z" />
<glyph unicode="&#xda;" horiz-adv-x="1341" d="M121 522v932h214v-932q0 -74 23.5 -139t67.5 -113t106 -76t139 -28t138.5 28t105 76t67 113t23.5 139v932h215v-932q0 -120 -41.5 -219t-114.5 -170.5t-173.5 -110.5t-219.5 -39t-220 39t-174.5 110t-114.5 170.5t-41 219.5zM422 1610l201 375h296l-293 -375h-204z" />
<glyph unicode="&#xdb;" horiz-adv-x="1341" d="M121 522v932h214v-932q0 -74 23.5 -139t67.5 -113t106 -76t139 -28t138.5 28t105 76t67 113t23.5 139v932h215v-932q0 -120 -41.5 -219t-114.5 -170.5t-173.5 -110.5t-219.5 -39t-220 39t-174.5 110t-114.5 170.5t-41 219.5zM300 1596l299 384h144l299 -384h-217 l-152 160l-147 -160h-226z" />
<glyph unicode="&#xdc;" horiz-adv-x="1341" d="M121 522v932h214v-932q0 -74 23.5 -139t67.5 -113t106 -76t139 -28t138.5 28t105 76t67 113t23.5 139v932h215v-932q0 -120 -41.5 -219t-114.5 -170.5t-173.5 -110.5t-219.5 -39t-220 39t-174.5 110t-114.5 170.5t-41 219.5zM315 1736q0 19 7 43t23.5 45t44.5 35t70 14 t70 -14.5t44 -35.5t22.5 -45t6.5 -42q0 -19 -6.5 -43t-22.5 -45t-44 -35.5t-70 -14.5t-70 14.5t-44.5 35.5t-23.5 45t-7 43zM734 1736q0 19 6.5 43t23 45t44 35t69.5 14q43 0 70.5 -14.5t44 -35.5t23 -45t6.5 -42q0 -19 -6.5 -43t-23 -45t-44 -35.5t-70.5 -14.5 q-42 0 -69.5 14.5t-44 35.5t-23 45t-6.5 43z" />
<glyph unicode="&#xdd;" horiz-adv-x="1451" d="M81 1454h240l404 -690l404 690h241l-541 -924l4 -530h-216l1 537zM477 1610l201 375h296l-293 -375h-204z" />
<glyph unicode="&#xde;" horiz-adv-x="1018" d="M100 0v1454h217v-273h170q87 0 165 -27t137 -78t93.5 -123.5t34.5 -164.5t-34.5 -165t-93 -124t-137 -78t-165.5 -27h-170v-394h-217zM317 579h170q46 0 85 15t67.5 42.5t44.5 66t16 85.5t-16 85.5t-44.5 65.5t-67.5 42t-85 15h-170v-417z" />
<glyph unicode="&#xe0;" horiz-adv-x="1139" d="M122 331q0 80 29 137t78.5 95t113.5 60.5t134 33.5t141 13.5t133 1.5q14 0 27 -0.5t25 -0.5v5q0 59 -16.5 98.5t-47.5 63.5t-74.5 34.5t-97.5 10.5q-48 0 -86 -8.5t-64.5 -29.5t-41 -55.5t-14.5 -86.5l-216 17q6 92 41 157.5t92 107.5t132 61.5t160 19.5q105 0 188 -25.5 t140.5 -78t88.5 -132.5t31 -188q0 -161 -0.5 -321t-0.5 -321h-181l-33 100q-26 -27 -61.5 -48.5t-75 -35.5t-80 -21.5t-78.5 -7.5q-81 0 -151.5 21.5t-122.5 64t-82 107t-30 151.5zM246 1491l311 2l217 -381h-201zM335 331q0 -87 45 -124t128 -37q61 0 114 11.5t92.5 39 t63 73t25.5 113.5l1 80q-26 1 -51.5 1.5t-51.5 0.5q-21 0 -56.5 -1t-76.5 -5.5t-82.5 -14t-75 -27t-54.5 -44.5t-21 -66z" />
<glyph unicode="&#xe1;" horiz-adv-x="1139" d="M122 331q0 80 29 137t78.5 95t113.5 60.5t134 33.5t141 13.5t133 1.5q14 0 27 -0.5t25 -0.5v5q0 59 -16.5 98.5t-47.5 63.5t-74.5 34.5t-97.5 10.5q-48 0 -86 -8.5t-64.5 -29.5t-41 -55.5t-14.5 -86.5l-216 17q6 92 41 157.5t92 107.5t132 61.5t160 19.5q105 0 188 -25.5 t140.5 -78t88.5 -132.5t31 -188q0 -161 -0.5 -321t-0.5 -321h-181l-33 100q-26 -27 -61.5 -48.5t-75 -35.5t-80 -21.5t-78.5 -7.5q-81 0 -151.5 21.5t-122.5 64t-82 107t-30 151.5zM335 331q0 -87 45 -124t128 -37q61 0 114 11.5t92.5 39t63 73t25.5 113.5l1 80 q-26 1 -51.5 1.5t-51.5 0.5q-21 0 -56.5 -1t-76.5 -5.5t-82.5 -14t-75 -27t-54.5 -44.5t-21 -66zM408 1110l201 375h268l-292 -375h-177z" />
<glyph unicode="&#xe2;" horiz-adv-x="1139" d="M122 331q0 80 29 137t78.5 95t113.5 60.5t134 33.5t141 13.5t133 1.5q14 0 27 -0.5t25 -0.5v5q0 59 -16.5 98.5t-47.5 63.5t-74.5 34.5t-97.5 10.5q-48 0 -86 -8.5t-64.5 -29.5t-41 -55.5t-14.5 -86.5l-216 17q6 92 41 157.5t92 107.5t132 61.5t160 19.5q105 0 188 -25.5 t140.5 -78t88.5 -132.5t31 -188q0 -161 -0.5 -321t-0.5 -321h-181l-33 100q-26 -27 -61.5 -48.5t-75 -35.5t-80 -21.5t-78.5 -7.5q-81 0 -151.5 21.5t-122.5 64t-82 107t-30 151.5zM188 1109l300 384h143l300 -384h-217l-152 160l-148 -160h-226zM335 331q0 -87 45 -124 t128 -37q61 0 114 11.5t92.5 39t63 73t25.5 113.5l1 80q-26 1 -51.5 1.5t-51.5 0.5q-21 0 -56.5 -1t-76.5 -5.5t-82.5 -14t-75 -27t-54.5 -44.5t-21 -66z" />
<glyph unicode="&#xe3;" horiz-adv-x="1139" d="M122 331q0 80 29 137t78.5 95t113.5 60.5t134 33.5t141 13.5t133 1.5q14 0 27 -0.5t25 -0.5v5q0 59 -16.5 98.5t-47.5 63.5t-74.5 34.5t-97.5 10.5q-48 0 -86 -8.5t-64.5 -29.5t-41 -55.5t-14.5 -86.5l-216 17q6 92 41 157.5t92 107.5t132 61.5t160 19.5q105 0 188 -25.5 t140.5 -78t88.5 -132.5t31 -188q0 -161 -0.5 -321t-0.5 -321h-181l-33 100q-26 -27 -61.5 -48.5t-75 -35.5t-80 -21.5t-78.5 -7.5q-81 0 -151.5 21.5t-122.5 64t-82 107t-30 151.5zM172 1116q15 53 38.5 96.5t57 74t78.5 47.5t103 17q50 0 91.5 -16.5t75 -36.5t59.5 -36.5 t45 -16.5q17 0 30 13t22 31.5t15 38.5t9 33l182 -54q-16 -51 -37.5 -95.5t-53 -77.5t-75 -52t-102.5 -19q-49 0 -91.5 16.5t-76.5 37t-59.5 37t-40.5 16.5q-22 0 -37 -10.5t-25 -26.5t-16 -35t-10 -36zM335 331q0 -87 45 -124t128 -37q61 0 114 11.5t92.5 39t63 73 t25.5 113.5l1 80q-26 1 -51.5 1.5t-51.5 0.5q-21 0 -56.5 -1t-76.5 -5.5t-82.5 -14t-75 -27t-54.5 -44.5t-21 -66z" />
<glyph unicode="&#xe4;" horiz-adv-x="1139" d="M122 331q0 80 29 137t78.5 95t113.5 60.5t134 33.5t141 13.5t133 1.5q14 0 27 -0.5t25 -0.5v5q0 59 -16.5 98.5t-47.5 63.5t-74.5 34.5t-97.5 10.5q-48 0 -86 -8.5t-64.5 -29.5t-41 -55.5t-14.5 -86.5l-216 17q6 92 41 157.5t92 107.5t132 61.5t160 19.5q105 0 188 -25.5 t140.5 -78t88.5 -132.5t31 -188q0 -161 -0.5 -321t-0.5 -321h-181l-33 100q-26 -27 -61.5 -48.5t-75 -35.5t-80 -21.5t-78.5 -7.5q-81 0 -151.5 21.5t-122.5 64t-82 107t-30 151.5zM255 1272q0 19 6.5 42t22.5 43t42.5 33.5t66.5 13.5q41 0 67.5 -14t42.5 -34t22 -43t6 -41 t-6 -40.5t-22 -42.5t-42.5 -34t-67.5 -14q-40 0 -66.5 13.5t-42.5 34t-22.5 43t-6.5 40.5zM335 331q0 -87 45 -124t128 -37q61 0 114 11.5t92.5 39t63 73t25.5 113.5l1 80q-26 1 -51.5 1.5t-51.5 0.5q-21 0 -56.5 -1t-76.5 -5.5t-82.5 -14t-75 -27t-54.5 -44.5t-21 -66z M626 1272q0 19 6.5 42t23 43t43.5 33.5t67 13.5q41 0 67 -14t42 -34t22 -43t6 -41t-6 -40.5t-22 -42.5t-42 -34t-67 -14q-40 0 -67 13.5t-43.5 34t-23 43t-6.5 40.5z" />
<glyph unicode="&#xe5;" horiz-adv-x="1139" d="M122 331q0 80 29 137t78.5 95t113.5 60.5t134 33.5t141 13.5t133 1.5q14 0 27 -0.5t25 -0.5v5q0 59 -16.5 98.5t-47.5 63.5t-74.5 34.5t-97.5 10.5q-48 0 -86 -8.5t-64.5 -29.5t-41 -55.5t-14.5 -86.5l-216 17q6 92 41 157.5t92 107.5t132 61.5t160 19.5q105 0 188 -25.5 t140.5 -78t88.5 -132.5t31 -188q0 -161 -0.5 -321t-0.5 -321h-181l-33 100q-26 -27 -61.5 -48.5t-75 -35.5t-80 -21.5t-78.5 -7.5q-81 0 -151.5 21.5t-122.5 64t-82 107t-30 151.5zM326 1355q0 32 12 69t39 69t71.5 53.5t110.5 21.5q65 0 109.5 -21.5t72 -53.5t39.5 -69 t12 -69t-11.5 -69.5t-39 -70t-72 -54t-110.5 -21.5t-111 21.5t-72 54t-38.5 70t-11.5 69.5zM335 331q0 -87 45 -124t128 -37q61 0 114 11.5t92.5 39t63 73t25.5 113.5l1 80q-26 1 -51.5 1.5t-51.5 0.5q-21 0 -56.5 -1t-76.5 -5.5t-82.5 -14t-75 -27t-54.5 -44.5t-21 -66z M484 1357q0 -34 19.5 -53.5t54.5 -19.5t54.5 19.5t19.5 53.5t-20 52.5t-54 18.5q-35 0 -54.5 -18.5t-19.5 -52.5z" />
<glyph unicode="&#xe6;" horiz-adv-x="1803" d="M56 331q0 62 19.5 106.5t52.5 76.5t77 53t93.5 34t101 20t100.5 12q13 2 25 3t23 2q48 5 95.5 10t95.5 11v6q0 62 -15 103.5t-44.5 67t-73.5 36.5t-103 11q-45 0 -84 -9t-67 -30t-43.5 -55.5t-14.5 -85.5l-213 17q5 92 40.5 157.5t93 107.5t132.5 61.5t159 19.5 q58 0 115.5 -9t109.5 -30t96 -57t74 -90q36 53 86.5 89t108 57.5t120 30.5t123.5 9q81 0 151.5 -21.5t122.5 -64t82 -107.5t30 -152q0 -67 -21.5 -113.5t-58.5 -78t-87 -50.5t-107 -33q-50 -12 -100.5 -19.5t-101.5 -12.5t-102.5 -9.5t-102.5 -9.5v-6q0 -61 14.5 -103 t44 -68t73.5 -37t103 -11q46 0 84.5 9t66.5 30.5t43 56t14 85.5l215 -19q-6 -92 -41.5 -157.5t-93 -107t-132 -61t-158.5 -19.5q-58 0 -115.5 9t-109.5 30t-96 57t-74 90q-37 -54 -87 -90t-108 -57t-120.5 -30t-124.5 -9q-81 0 -151.5 21.5t-122.5 64t-82 107t-30 151.5z M271 331q0 -86 44 -123.5t127 -37.5q84 0 141 17.5t91.5 54t49 94t14.5 137.5q-81 -9 -160.5 -17.5t-159.5 -19.5q-26 -4 -52.5 -8t-47.5 -14t-34 -29.5t-13 -53.5zM1044 580q81 9 160 18.5t160 19.5q26 3 52.5 7t47.5 14t34 29t13 53q0 87 -44 124.5t-128 37.5 q-82 0 -138.5 -18t-91.5 -55t-50 -94.5t-15 -135.5z" />
<glyph unicode="&#xe7;" horiz-adv-x="1217" d="M110 536q0 118 35 218t101 173.5t162 115t218 41.5q174 0 297.5 -85.5t183.5 -249.5l-204 -58q-35 99 -102 154.5t-175 55.5q-79 0 -136.5 -30.5t-94.5 -81t-54.5 -116.5t-17.5 -137t17.5 -137t54.5 -117t94.5 -81.5t136.5 -30.5q104 0 171 53t102 148l198 -76 q-64 -152 -185.5 -230t-285.5 -78q-122 0 -218 41.5t-162 115t-101 174t-35 218.5zM354 -499l120 132q17 -23 47.5 -37.5t66.5 -14.5q9 0 19 0.5t18 3.5t14 9.5t8 17.5q3 19 -2 32.5t-15.5 22t-24.5 12t-29 3.5q-38 0 -76 -2t-76 -12v95q0 6 8.5 20.5t21.5 34t28.5 41.5 t30.5 42t26.5 36t17.5 23h257l-114 -146q71 -22 113.5 -72.5t42.5 -126.5q0 -51 -21.5 -90.5t-56.5 -66t-79.5 -40t-91.5 -13.5q-72 0 -134 28t-119 68z" />
<glyph unicode="&#xe8;" horiz-adv-x="1274" d="M122 536q0 117 35 217.5t101.5 174t162.5 115t217 41.5q138 0 236 -47.5t160.5 -129t91 -189.5t28.5 -229l-817 3q5 -66 26 -124.5t58 -102.5t91 -69.5t126 -25.5q98 0 168.5 51.5t104.5 142.5l205 -56q-28 -77 -76 -137t-110.5 -101t-136.5 -62t-155 -21q-121 0 -217 42 t-162.5 115.5t-101.5 174t-35 217.5zM317 1491l311 2l217 -381h-201zM354 676l568 -2q-14 51 -40 92.5t-62 71.5t-82 46.5t-100 16.5t-100 -16t-82 -45.5t-61.5 -71t-40.5 -92.5z" />
<glyph unicode="&#xe9;" horiz-adv-x="1274" d="M122 536q0 117 35 217.5t101.5 174t162.5 115t217 41.5q138 0 236 -47.5t160.5 -129t91 -189.5t28.5 -229l-817 3q5 -66 26 -124.5t58 -102.5t91 -69.5t126 -25.5q98 0 168.5 51.5t104.5 142.5l205 -56q-28 -77 -76 -137t-110.5 -101t-136.5 -62t-155 -21q-121 0 -217 42 t-162.5 115.5t-101.5 174t-35 217.5zM354 676l568 -2q-14 51 -40 92.5t-62 71.5t-82 46.5t-100 16.5t-100 -16t-82 -45.5t-61.5 -71t-40.5 -92.5zM479 1110l201 375h268l-292 -375h-177z" />
<glyph unicode="&#xea;" horiz-adv-x="1274" d="M122 536q0 117 35 217.5t101.5 174t162.5 115t217 41.5q138 0 236 -47.5t160.5 -129t91 -189.5t28.5 -229l-817 3q5 -66 26 -124.5t58 -102.5t91 -69.5t126 -25.5q98 0 168.5 51.5t104.5 142.5l205 -56q-28 -77 -76 -137t-110.5 -101t-136.5 -62t-155 -21q-121 0 -217 42 t-162.5 115.5t-101.5 174t-35 217.5zM259 1109l300 384h143l300 -384h-217l-152 160l-148 -160h-226zM354 676l568 -2q-14 51 -40 92.5t-62 71.5t-82 46.5t-100 16.5t-100 -16t-82 -45.5t-61.5 -71t-40.5 -92.5z" />
<glyph unicode="&#xeb;" horiz-adv-x="1274" d="M122 536q0 117 35 217.5t101.5 174t162.5 115t217 41.5q138 0 236 -47.5t160.5 -129t91 -189.5t28.5 -229l-817 3q5 -66 26 -124.5t58 -102.5t91 -69.5t126 -25.5q98 0 168.5 51.5t104.5 142.5l205 -56q-28 -77 -76 -137t-110.5 -101t-136.5 -62t-155 -21q-121 0 -217 42 t-162.5 115.5t-101.5 174t-35 217.5zM326 1272q0 19 6.5 42t22.5 43t42.5 33.5t66.5 13.5q41 0 67.5 -14t42.5 -34t22 -43t6 -41t-6 -40.5t-22 -42.5t-42.5 -34t-67.5 -14q-40 0 -66.5 13.5t-42.5 34t-22.5 43t-6.5 40.5zM354 676l568 -2q-14 51 -40 92.5t-62 71.5t-82 46.5 t-100 16.5t-100 -16t-82 -45.5t-61.5 -71t-40.5 -92.5zM697 1272q0 19 6.5 42t23 43t43.5 33.5t67 13.5q41 0 67 -14t42 -34t22 -43t6 -41t-6 -40.5t-22 -42.5t-42 -34t-67 -14q-40 0 -67 13.5t-43.5 34t-23 43t-6.5 40.5z" />
<glyph unicode="&#xec;" horiz-adv-x="424" d="M-123 1531l311 2l217 -381h-201zM101 4v1062h217v-1062h-217z" />
<glyph unicode="&#xed;" horiz-adv-x="424" d="M39 1150l201 375h268l-292 -375h-177zM101 4v1062h217v-1062h-217z" />
<glyph unicode="&#xee;" horiz-adv-x="424" d="M-181 1149l300 384h143l300 -384h-217l-152 160l-148 -160h-226zM101 4v1062h217v-1062h-217z" />
<glyph unicode="&#xef;" horiz-adv-x="424" d="M-114 1312q0 19 6.5 42t22.5 43t42.5 33.5t66.5 13.5q41 0 67.5 -14t42.5 -34t22 -43t6 -41t-6 -40.5t-22 -42.5t-42.5 -34t-67.5 -14q-40 0 -66.5 13.5t-42.5 34t-22.5 43t-6.5 40.5zM101 4v1062h217v-1062h-217zM257 1312q0 19 6.5 42t23 43t43.5 33.5t67 13.5 q41 0 67 -14t42 -34t22 -43t6 -41t-6 -40.5t-22 -42.5t-42 -34t-67 -14q-40 0 -67 13.5t-43.5 34t-23 43t-6.5 40.5z" />
<glyph unicode="&#xf0;" horiz-adv-x="1320" d="M93 520q0 117 34 219t99.5 177.5t161 119.5t218.5 44q55 0 106 -13q-22 31 -45.5 60t-49.5 56l-305 -149l-80 152l253 120q-74 62 -152 115t-158 107h334q45 -29 85 -61t80 -67l303 147l84 -149l-257 -124q145 -152 222.5 -340.5t77.5 -398.5q0 -116 -33 -217.5 t-97.5 -176.5t-159 -118.5t-216.5 -43.5q-124 0 -218.5 40t-158 111.5t-96 171t-32.5 218.5zM302 522q0 -72 17 -138t53.5 -116t93.5 -80t137 -30q78 0 133.5 32t91 84.5t51.5 118.5t16 135q0 74 -12.5 141t-44.5 118t-87 81.5t-141 30.5q-81 0 -139 -32t-95.5 -84.5 t-55.5 -120.5t-18 -140z" />
<glyph unicode="&#xf1;" horiz-adv-x="1137" d="M122 1065h214v-107q26 31 64 55.5t80.5 41t87.5 25.5t85 9q84 0 151 -28t114 -77.5t72.5 -117t25.5 -147.5l-2 -719h-215l3 719q0 85 -49 136.5t-149 51.5q-34 0 -76.5 -11.5t-81.5 -32.5t-69 -49.5t-39 -63.5l1 -750h-215zM182 1116q15 53 38.5 96.5t57 74t78.5 47.5 t103 17q50 0 91.5 -16.5t75 -36.5t59.5 -36.5t45 -16.5q17 0 30 13t22 31.5t15 38.5t9 33l182 -54q-16 -51 -37.5 -95.5t-53 -77.5t-75 -52t-102.5 -19q-49 0 -91.5 16.5t-76.5 37t-59.5 37t-40.5 16.5q-22 0 -37 -10.5t-25 -26.5t-16 -35t-10 -36z" />
<glyph unicode="&#xf2;" horiz-adv-x="1274" d="M122 536q0 117 35 217.5t101.5 174t162.5 115t217 41.5t216.5 -42t162 -115.5t102 -173.5t35.5 -217t-35 -217.5t-101.5 -174t-162.5 -115.5t-217 -42q-122 0 -218 42t-162 115.5t-101 174t-35 217.5zM317 1491l311 2l217 -381h-201zM335 536q0 -71 18 -137t55 -117 t94 -81.5t136 -30.5t136 30.5t93.5 81.5t54 117t17.5 137t-17.5 136.5t-54 116.5t-93.5 81.5t-136 30.5t-136 -30.5t-94 -81t-55 -116.5t-18 -137z" />
<glyph unicode="&#xf3;" horiz-adv-x="1274" d="M122 536q0 117 35 217.5t101.5 174t162.5 115t217 41.5t216.5 -42t162 -115.5t102 -173.5t35.5 -217t-35 -217.5t-101.5 -174t-162.5 -115.5t-217 -42q-122 0 -218 42t-162 115.5t-101 174t-35 217.5zM335 536q0 -71 18 -137t55 -117t94 -81.5t136 -30.5t136 30.5 t93.5 81.5t54 117t17.5 137t-17.5 136.5t-54 116.5t-93.5 81.5t-136 30.5t-136 -30.5t-94 -81t-55 -116.5t-18 -137zM479 1110l201 375h268l-292 -375h-177z" />
<glyph unicode="&#xf4;" horiz-adv-x="1274" d="M122 536q0 117 35 217.5t101.5 174t162.5 115t217 41.5t216.5 -42t162 -115.5t102 -173.5t35.5 -217t-35 -217.5t-101.5 -174t-162.5 -115.5t-217 -42q-122 0 -218 42t-162 115.5t-101 174t-35 217.5zM259 1109l300 384h143l300 -384h-217l-152 160l-148 -160h-226z M335 536q0 -71 18 -137t55 -117t94 -81.5t136 -30.5t136 30.5t93.5 81.5t54 117t17.5 137t-17.5 136.5t-54 116.5t-93.5 81.5t-136 30.5t-136 -30.5t-94 -81t-55 -116.5t-18 -137z" />
<glyph unicode="&#xf5;" horiz-adv-x="1274" d="M122 536q0 117 35 217.5t101.5 174t162.5 115t217 41.5t216.5 -42t162 -115.5t102 -173.5t35.5 -217t-35 -217.5t-101.5 -174t-162.5 -115.5t-217 -42q-122 0 -218 42t-162 115.5t-101 174t-35 217.5zM243 1116q15 53 38.5 96.5t57 74t78.5 47.5t103 17q50 0 91.5 -16.5 t75 -36.5t59.5 -36.5t45 -16.5q17 0 30 13t22 31.5t15 38.5t9 33l182 -54q-16 -51 -37.5 -95.5t-53 -77.5t-75 -52t-102.5 -19q-49 0 -91.5 16.5t-76.5 37t-59.5 37t-40.5 16.5q-22 0 -37 -10.5t-25 -26.5t-16 -35t-10 -36zM335 536q0 -71 18 -137t55 -117t94 -81.5 t136 -30.5t136 30.5t93.5 81.5t54 117t17.5 137t-17.5 136.5t-54 116.5t-93.5 81.5t-136 30.5t-136 -30.5t-94 -81t-55 -116.5t-18 -137z" />
<glyph unicode="&#xf6;" horiz-adv-x="1274" d="M122 536q0 117 35 217.5t101.5 174t162.5 115t217 41.5t216.5 -42t162 -115.5t102 -173.5t35.5 -217t-35 -217.5t-101.5 -174t-162.5 -115.5t-217 -42q-122 0 -218 42t-162 115.5t-101 174t-35 217.5zM326 1272q0 19 6.5 42t22.5 43t42.5 33.5t66.5 13.5q41 0 67.5 -14 t42.5 -34t22 -43t6 -41t-6 -40.5t-22 -42.5t-42.5 -34t-67.5 -14q-40 0 -66.5 13.5t-42.5 34t-22.5 43t-6.5 40.5zM335 536q0 -71 18 -137t55 -117t94 -81.5t136 -30.5t136 30.5t93.5 81.5t54 117t17.5 137t-17.5 136.5t-54 116.5t-93.5 81.5t-136 30.5t-136 -30.5t-94 -81 t-55 -116.5t-18 -137zM697 1272q0 19 6.5 42t23 43t43.5 33.5t67 13.5q41 0 67 -14t42 -34t22 -43t6 -41t-6 -40.5t-22 -42.5t-42 -34t-67 -14q-40 0 -67 13.5t-43.5 34t-23 43t-6.5 40.5z" />
<glyph unicode="&#xf7;" horiz-adv-x="1300" d="M163 519v169h961v-169h-961zM480 326q0 18 7 42t23.5 45t44.5 36t70 15t70.5 -15t45 -36t23.5 -45t7 -42t-7 -42t-23.5 -45.5t-45 -36.5t-70.5 -15t-70 15t-44.5 36.5t-23.5 45.5t-7 42zM480 877q0 18 7 42t23.5 45t44.5 36t70 15t70.5 -15t45 -36t23.5 -45t7 -42t-7 -42 t-23.5 -45.5t-45 -36.5t-70.5 -15t-70 15t-44.5 36.5t-23.5 45.5t-7 42z" />
<glyph unicode="&#xf8;" horiz-adv-x="1274" d="M122 536q0 117 35 217.5t101.5 174t162.5 115t217 41.5t216.5 -42t162 -115.5t102 -173.5t35.5 -217t-35 -217.5t-101.5 -174t-162.5 -115.5t-217 -42q-122 0 -218 42t-162 115.5t-101 174t-35 217.5zM154 -136l622 1454h229l-622 -1454h-229zM335 536q0 -71 18 -137 t55 -117t94 -81.5t136 -30.5t136 30.5t93.5 81.5t54 117t17.5 137t-17.5 136.5t-54 116.5t-93.5 81.5t-136 30.5t-136 -30.5t-94 -81t-55 -116.5t-18 -137z" />
<glyph unicode="&#xf9;" horiz-adv-x="1137" d="M121 351q0 181 0.5 359.5t0.5 359.5h216l-3 -719q-1 -94 53 -141t145 -47q38 0 79 11t77.5 31.5t66 50t43.5 66.5l1 1l-2 747h214l3 -1065h-214v96q-54 -58 -127 -89t-151 -31q-84 0 -157.5 25t-127.5 72t-85.5 116t-31.5 157zM237 1578l311 2l217 -381h-201z" />
<glyph unicode="&#xfa;" horiz-adv-x="1137" d="M121 351q0 181 0.5 359.5t0.5 359.5h216l-3 -719q-1 -94 53 -141t145 -47q38 0 79 11t77.5 31.5t66 50t43.5 66.5l1 1l-2 747h214l3 -1065h-214v96q-54 -58 -127 -89t-151 -31q-84 0 -157.5 25t-127.5 72t-85.5 116t-31.5 157zM399 1197l201 375h268l-292 -375h-177z" />
<glyph unicode="&#xfb;" horiz-adv-x="1137" d="M121 351q0 181 0.5 359.5t0.5 359.5h216l-3 -719q-1 -94 53 -141t145 -47q38 0 79 11t77.5 31.5t66 50t43.5 66.5l1 1l-2 747h214l3 -1065h-214v96q-54 -58 -127 -89t-151 -31q-84 0 -157.5 25t-127.5 72t-85.5 116t-31.5 157zM179 1196l300 384h143l300 -384h-217 l-152 160l-148 -160h-226z" />
<glyph unicode="&#xfc;" horiz-adv-x="1137" d="M121 351q0 181 0.5 359.5t0.5 359.5h216l-3 -719q-1 -94 53 -141t145 -47q38 0 79 11t77.5 31.5t66 50t43.5 66.5l1 1l-2 747h214l3 -1065h-214v96q-54 -58 -127 -89t-151 -31q-84 0 -157.5 25t-127.5 72t-85.5 116t-31.5 157zM246 1359q0 19 6.5 42t22.5 43t42.5 33.5 t66.5 13.5q41 0 67.5 -14t42.5 -34t22 -43t6 -41t-6 -40.5t-22 -42.5t-42.5 -34t-67.5 -14q-40 0 -66.5 13.5t-42.5 34t-22.5 43t-6.5 40.5zM617 1359q0 19 6.5 42t23 43t43.5 33.5t67 13.5q41 0 67 -14t42 -34t22 -43t6 -41t-6 -40.5t-22 -42.5t-42 -34t-67 -14 q-40 0 -67 13.5t-43.5 34t-23 43t-6.5 40.5z" />
<glyph unicode="&#xfd;" horiz-adv-x="1147" d="M16 1064h227l302 -751l346 751h231l-609 -1322q-30 -66 -90 -103.5t-132 -37.5q-51 0 -98 14.5t-95 28.5v193q14 -5 35.5 -15t45.5 -20t48 -17.5t42 -7.5q12 0 22 5q5 2 15.5 18.5t23.5 43.5q14 27 28.5 59t27.5 62t23 53.5t14 32.5zM357 1110l201 375h268l-292 -375 h-177z" />
<glyph unicode="&#xfe;" horiz-adv-x="1234" d="M100 -109v1566h215l1 -464q65 48 142.5 69.5t157.5 21.5q122 0 218 -41.5t162 -115t101 -173.5t35 -218t-35 -218.5t-101 -174t-162 -115t-218 -41.5q-80 0 -158 21.5t-142 71.5q0 -128 -0.5 -254t2.5 -254h-216q1 80 -0.5 159.5t-1.5 159.5zM316 524.5q0 -17.5 1 -35.5 q3 -63 25 -120.5t60.5 -102t92.5 -70.5t121 -26q79 0 136.5 30.5t94.5 81.5t54.5 117t17.5 137t-17.5 137t-54.5 116.5t-94.5 81t-136.5 30.5q-70 0 -125.5 -29t-94.5 -77t-59.5 -109t-20.5 -126v-35.5z" />
<glyph unicode="&#xff;" horiz-adv-x="1147" d="M16 1064h227l302 -751l346 751h231l-609 -1322q-30 -66 -90 -103.5t-132 -37.5q-51 0 -98 14.5t-95 28.5v193q14 -5 35.5 -15t45.5 -20t48 -17.5t42 -7.5q12 0 22 5q5 2 15.5 18.5t23.5 43.5q14 27 28.5 59t27.5 62t23 53.5t14 32.5zM224 1413q0 19 6.5 42t22.5 43 t42.5 33.5t66.5 13.5q41 0 67.5 -14t42.5 -34t22 -43t6 -41t-6 -40.5t-22 -42.5t-42.5 -34t-67.5 -14q-40 0 -66.5 13.5t-42.5 34t-22.5 43t-6.5 40.5zM595 1413q0 19 6.5 42t23 43t43.5 33.5t67 13.5q41 0 67 -14t42 -34t22 -43t6 -41t-6 -40.5t-22 -42.5t-42 -34t-67 -14 q-40 0 -67 13.5t-43.5 34t-23 43t-6.5 40.5z" />
<glyph unicode="&#x100;" horiz-adv-x="1300" d="M12 -1l564 1455h150l562 -1455h-226l-125 324h-573l-125 -324h-227zM269 1661v184h763v-184h-763zM435 505h430l-214 558z" />
<glyph unicode="&#x101;" horiz-adv-x="1139" d="M122 331q0 80 29 137t78.5 95t113.5 60.5t134 33.5t141 13.5t133 1.5q14 0 27 -0.5t25 -0.5v5q0 59 -16.5 98.5t-47.5 63.5t-74.5 34.5t-97.5 10.5q-48 0 -86 -8.5t-64.5 -29.5t-41 -55.5t-14.5 -86.5l-216 17q6 92 41 157.5t92 107.5t132 61.5t160 19.5q105 0 188 -25.5 t140.5 -78t88.5 -132.5t31 -188q0 -161 -0.5 -321t-0.5 -321h-181l-33 100q-26 -27 -61.5 -48.5t-75 -35.5t-80 -21.5t-78.5 -7.5q-81 0 -151.5 21.5t-122.5 64t-82 107t-30 151.5zM184 1132v184h763v-184h-763zM335 331q0 -87 45 -124t128 -37q61 0 114 11.5t92.5 39t63 73 t25.5 113.5l1 80q-26 1 -51.5 1.5t-51.5 0.5q-21 0 -56.5 -1t-76.5 -5.5t-82.5 -14t-75 -27t-54.5 -44.5t-21 -66z" />
<glyph unicode="&#x102;" horiz-adv-x="1300" d="M12 -1l564 1455h150l562 -1455h-226l-125 324h-573l-125 -324h-227zM295 1932h217q0 -59 36 -91.5t103 -32.5q66 0 101.5 33t35.5 91h217q0 -55 -20.5 -110t-64 -99.5t-110.5 -72t-159 -27.5t-159 27.5t-111 71.5t-65 99.5t-21 110.5zM435 505h430l-214 558z" />
<glyph unicode="&#x103;" horiz-adv-x="1139" d="M122 331q0 80 29 137t78.5 95t113.5 60.5t134 33.5t141 13.5t133 1.5q14 0 27 -0.5t25 -0.5v5q0 59 -16.5 98.5t-47.5 63.5t-74.5 34.5t-97.5 10.5q-48 0 -86 -8.5t-64.5 -29.5t-41 -55.5t-14.5 -86.5l-216 17q6 92 41 157.5t92 107.5t132 61.5t160 19.5q105 0 188 -25.5 t140.5 -78t88.5 -132.5t31 -188q0 -161 -0.5 -321t-0.5 -321h-181l-33 100q-26 -27 -61.5 -48.5t-75 -35.5t-80 -21.5t-78.5 -7.5q-81 0 -151.5 21.5t-122.5 64t-82 107t-30 151.5zM214 1549h217q0 -59 36 -91.5t102 -32.5t102 32.5t36 91.5h217q0 -55 -21 -110t-64.5 -99.5 t-110.5 -72t-159 -27.5q-91 0 -158.5 27.5t-111 71.5t-64.5 99.5t-21 110.5zM335 331q0 -87 45 -124t128 -37q61 0 114 11.5t92.5 39t63 73t25.5 113.5l1 80q-26 1 -51.5 1.5t-51.5 0.5q-21 0 -56.5 -1t-76.5 -5.5t-82.5 -14t-75 -27t-54.5 -44.5t-21 -66z" />
<glyph unicode="&#x104;" horiz-adv-x="1300" d="M12 -1l564 1455h150l562 -1455h-226l-125 324h-573l-125 -324h-227zM417 -371q0 42 15.5 81.5t40 76t54.5 69t58 60.5h310q-15 -12 -40 -33t-54.5 -46t-59 -53.5t-54 -56t-39.5 -52t-15 -43.5q0 -12 11 -19.5t26 -11t30 -4.5t24 -1q30 0 59.5 3.5t58.5 6.5v-187 q-29 -3 -59 -5t-59 -2q-49 0 -103 11.5t-99.5 37.5t-75 67.5t-29.5 100.5zM435 505h430l-214 558z" />
<glyph unicode="&#x105;" horiz-adv-x="1139" d="M122 331q0 80 29 137t78.5 95t113.5 60.5t134 33.5t141 13.5t133 1.5q14 0 27 -0.5t25 -0.5v5q0 59 -16.5 98.5t-47.5 63.5t-74.5 34.5t-97.5 10.5q-48 0 -86 -8.5t-64.5 -29.5t-41 -55.5t-14.5 -86.5l-216 17q6 92 41 157.5t92 107.5t132 61.5t160 19.5q105 0 188 -25.5 t140.5 -78t88.5 -132.5t31 -188q0 -161 -0.5 -321t-0.5 -321h-181l-33 100q-26 -27 -61.5 -48.5t-75 -35.5t-80 -21.5t-78.5 -7.5q-81 0 -151.5 21.5t-122.5 64t-82 107t-30 151.5zM309 -320q0 42 15.5 81.5t40 76t54.5 69t58 60.5h310q-15 -12 -40 -33t-54.5 -46t-59 -53.5 t-54 -56t-39.5 -52t-15 -43.5q0 -12 11 -19.5t26 -11t30 -4.5t24 -1q30 0 59.5 3.5t58.5 6.5v-187q-29 -3 -59 -5t-59 -2q-49 0 -103 11.5t-99.5 37.5t-75 67.5t-29.5 100.5zM335 331q0 -87 45 -124t128 -37q61 0 114 11.5t92.5 39t63 73t25.5 113.5l1 80q-26 1 -51.5 1.5 t-51.5 0.5q-21 0 -56.5 -1t-76.5 -5.5t-82.5 -14t-75 -27t-54.5 -44.5t-21 -66z" />
<glyph unicode="&#x106;" horiz-adv-x="1532" d="M122 721q0 156 46 290.5t133.5 233t214.5 154.5t290 56q208 0 358.5 -90t238.5 -258l-191 -89q-28 59 -67 106t-89 80t-112.5 50.5t-137.5 17.5q-120 0 -208.5 -45t-147 -120.5t-87 -175.5t-28.5 -210q0 -109 28.5 -209t87 -176t147 -121t208.5 -45q146 0 243.5 64 t155.5 175l184 -99q-89 -155 -236.5 -239t-346.5 -84q-162 0 -289 56.5t-215 155t-134 232.5t-46 290zM518 1610l201 375h296l-293 -375h-204z" />
<glyph unicode="&#x107;" horiz-adv-x="1217" d="M110 536q0 118 35 218t101 173.5t162 115t218 41.5q174 0 297.5 -85.5t183.5 -249.5l-204 -58q-35 99 -102 154.5t-175 55.5q-79 0 -136.5 -30.5t-94.5 -81t-54.5 -116.5t-17.5 -137t17.5 -137t54.5 -117t94.5 -81.5t136.5 -30.5q104 0 171 53t102 148l198 -76 q-64 -152 -185.5 -230t-285.5 -78q-122 0 -218 41.5t-162 115t-101 174t-35 218.5zM435 1208l201 375h268l-292 -375h-177z" />
<glyph unicode="&#x108;" horiz-adv-x="1532" d="M122 721q0 156 46 290.5t133.5 233t214.5 154.5t290 56q208 0 358.5 -90t238.5 -258l-191 -89q-28 59 -67 106t-89 80t-112.5 50.5t-137.5 17.5q-120 0 -208.5 -45t-147 -120.5t-87 -175.5t-28.5 -210q0 -109 28.5 -209t87 -176t147 -121t208.5 -45q146 0 243.5 64 t155.5 175l184 -99q-89 -155 -236.5 -239t-346.5 -84q-162 0 -289 56.5t-215 155t-134 232.5t-46 290zM395 1596l299 384h144l299 -384h-217l-152 160l-147 -160h-226z" />
<glyph unicode="&#x109;" horiz-adv-x="1217" d="M110 536q0 118 35 218t101 173.5t162 115t218 41.5q174 0 297.5 -85.5t183.5 -249.5l-204 -58q-35 99 -102 154.5t-175 55.5q-79 0 -136.5 -30.5t-94.5 -81t-54.5 -116.5t-17.5 -137t17.5 -137t54.5 -117t94.5 -81.5t136.5 -30.5q104 0 171 53t102 148l198 -76 q-64 -152 -185.5 -230t-285.5 -78q-122 0 -218 41.5t-162 115t-101 174t-35 218.5zM215 1207l300 384h143l300 -384h-217l-152 160l-148 -160h-226z" />
<glyph unicode="&#x10a;" horiz-adv-x="1532" d="M122 721q0 156 46 290.5t133.5 233t214.5 154.5t290 56q208 0 358.5 -90t238.5 -258l-191 -89q-28 59 -67 106t-89 80t-112.5 50.5t-137.5 17.5q-120 0 -208.5 -45t-147 -120.5t-87 -175.5t-28.5 -210q0 -109 28.5 -209t87 -176t147 -121t208.5 -45q146 0 243.5 64 t155.5 175l184 -99q-89 -155 -236.5 -239t-346.5 -84q-162 0 -289 56.5t-215 155t-134 232.5t-46 290zM603 1748q0 20 7.5 45t26 47.5t50 37.5t79.5 15t79.5 -15t50 -37.5t26 -47.5t7.5 -45t-7.5 -45t-26 -47.5t-50 -38t-79.5 -15.5t-79.5 15.5t-50 38t-26 47.5t-7.5 45z " />
<glyph unicode="&#x10b;" horiz-adv-x="1217" d="M110 536q0 118 35 218t101 173.5t162 115t218 41.5q174 0 297.5 -85.5t183.5 -249.5l-204 -58q-35 99 -102 154.5t-175 55.5q-79 0 -136.5 -30.5t-94.5 -81t-54.5 -116.5t-17.5 -137t17.5 -137t54.5 -117t94.5 -81.5t136.5 -30.5q104 0 171 53t102 148l198 -76 q-64 -152 -185.5 -230t-285.5 -78q-122 0 -218 41.5t-162 115t-101 174t-35 218.5zM455 1414q0 20 7 45t24.5 47.5t47 37.5t75.5 15q45 0 75 -15t47 -37.5t24 -47.5t7 -45t-7 -45t-24 -47.5t-47 -38t-75 -15.5q-46 0 -75.5 15.5t-47 38t-24.5 47.5t-7 45z" />
<glyph unicode="&#x10c;" horiz-adv-x="1532" d="M122 721q0 156 46 290.5t133.5 233t214.5 154.5t290 56q208 0 358.5 -90t238.5 -258l-191 -89q-28 59 -67 106t-89 80t-112.5 50.5t-137.5 17.5q-120 0 -208.5 -45t-147 -120.5t-87 -175.5t-28.5 -210q0 -109 28.5 -209t87 -176t147 -121t208.5 -45q146 0 243.5 64 t155.5 175l184 -99q-89 -155 -236.5 -239t-346.5 -84q-162 0 -289 56.5t-215 155t-134 232.5t-46 290zM388 1964h230l151 -162l157 162h218l-306 -386l-142 2z" />
<glyph unicode="&#x10d;" horiz-adv-x="1217" d="M110 536q0 118 35 218t101 173.5t162 115t218 41.5q174 0 297.5 -85.5t183.5 -249.5l-204 -58q-35 99 -102 154.5t-175 55.5q-79 0 -136.5 -30.5t-94.5 -81t-54.5 -116.5t-17.5 -137t17.5 -137t54.5 -117t94.5 -81.5t136.5 -30.5q104 0 171 53t102 148l198 -76 q-64 -152 -185.5 -230t-285.5 -78q-122 0 -218 41.5t-162 115t-101 174t-35 218.5zM219 1610h230l151 -162l157 162h218l-305 -386l-143 1z" />
<glyph unicode="&#x10e;" horiz-adv-x="1437" d="M121 0v1463q50 -1 110.5 -0.5t125.5 1t131.5 -0.5t128.5 -4q50 -3 94.5 -8t81.5 -13q132 -28 230 -95.5t163 -163t97.5 -213t32.5 -245.5q0 -157 -46.5 -289t-134.5 -228t-215.5 -150t-288.5 -54h-510zM335 182l296 1q120 0 208.5 42.5t147 115.5t87 171t28.5 209 q0 93 -20 180.5t-63.5 160t-112.5 124.5t-167 74q-35 7 -77 12q-40 4 -82.5 5.5t-84.5 1.5t-83 -1t-77 -1v-1095zM341 1964h230l151 -162l157 162h218l-306 -386l-142 2z" />
<glyph unicode="&#x10f;" horiz-adv-x="1367" d="M101 536q0 117 35 217.5t101.5 174t162.5 115t217 41.5q81 0 158 -22t143 -70q0 117 0.5 232.5t0.5 232.5h214q0 -241 -0.5 -480t-0.5 -481q-1 -121 -1 -240v-240h-215q0 16 0.5 31.5t0.5 31.5q-65 -49 -142.5 -70.5t-157.5 -21.5q-121 0 -217 42t-162.5 115.5 t-101.5 174t-35 217.5zM315 536q0 -71 17.5 -137t54.5 -117t94 -81.5t136 -30.5q78 0 135 31.5t93.5 83.5t54.5 118t18 136q0 68 -19 133t-56.5 116t-94 82t-131.5 31q-79 0 -136 -30.5t-94 -81t-54.5 -116.5t-17.5 -137zM1174 1107l46 327h200l-135 -331z" />
<glyph unicode="&#x110;" horiz-adv-x="1437" d="M19 606v184h828v-184h-828zM121 0v1463q50 -1 110.5 -0.5t125.5 1t131.5 -0.5t128.5 -4q50 -3 94.5 -8t81.5 -13q132 -28 230 -95.5t163 -163t97.5 -213t32.5 -245.5q0 -157 -46.5 -289t-134.5 -228t-215.5 -150t-288.5 -54h-510zM335 182l296 1q120 0 208.5 42.5 t147 115.5t87 171t28.5 209q0 93 -20 180.5t-63.5 160t-112.5 124.5t-167 74q-35 7 -77 12q-40 4 -82.5 5.5t-84.5 1.5t-83 -1t-77 -1v-1095z" />
<glyph unicode="&#x111;" horiz-adv-x="1274" d="M122 536q0 118 35 218t101 173.5t162 115t218 41.5q38 0 82 -10t86 -29t77 -46t55 -61q0 131 0.5 259.5t0.5 259.5h215l-2 -1441h-216l1 105q-26 -32 -61 -57t-74 -42t-81 -26t-83 -9q-122 0 -218 41.5t-162 115t-101 174t-35 218.5zM335 536q0 -71 18 -137t55 -117 t94 -81.5t136 -30.5q85 0 142.5 34.5t92.5 90t50 126.5t15 143q0 63 -21.5 124t-61 108t-94.5 76t-123 29q-79 0 -136.5 -30.5t-94.5 -81t-54.5 -116.5t-17.5 -137zM493 1500v184h763v-184h-763z" />
<glyph unicode="&#x112;" horiz-adv-x="1173" d="M121 -1v1456l952 -1v-183l-738 1v-429h648v-182h-648v-479h738v-183h-952zM205 1661v184h763v-184h-763z" />
<glyph unicode="&#x113;" horiz-adv-x="1274" d="M122 536q0 117 35 217.5t101.5 174t162.5 115t217 41.5q138 0 236 -47.5t160.5 -129t91 -189.5t28.5 -229l-817 3q5 -66 26 -124.5t58 -102.5t91 -69.5t126 -25.5q98 0 168.5 51.5t104.5 142.5l205 -56q-28 -77 -76 -137t-110.5 -101t-136.5 -62t-155 -21q-121 0 -217 42 t-162.5 115.5t-101.5 174t-35 217.5zM255 1171v184h763v-184h-763zM354 676l568 -2q-14 51 -40 92.5t-62 71.5t-82 46.5t-100 16.5t-100 -16t-82 -45.5t-61.5 -71t-40.5 -92.5z" />
<glyph unicode="&#x114;" horiz-adv-x="1173" d="M121 -1v1456l952 -1v-183l-738 1v-429h648v-182h-648v-479h738v-183h-952zM231 1932h217q0 -59 36 -91.5t103 -32.5q66 0 101.5 33t35.5 91h217q0 -55 -20.5 -110t-64 -99.5t-110.5 -72t-159 -27.5t-159 27.5t-111 71.5t-65 99.5t-21 110.5z" />
<glyph unicode="&#x115;" horiz-adv-x="1274" d="M122 536q0 117 35 217.5t101.5 174t162.5 115t217 41.5q138 0 236 -47.5t160.5 -129t91 -189.5t28.5 -229l-817 3q5 -66 26 -124.5t58 -102.5t91 -69.5t126 -25.5q98 0 168.5 51.5t104.5 142.5l205 -56q-28 -77 -76 -137t-110.5 -101t-136.5 -62t-155 -21q-121 0 -217 42 t-162.5 115.5t-101.5 174t-35 217.5zM282 1549h217q0 -59 36 -91.5t102 -32.5t102 32.5t36 91.5h217q0 -55 -21 -110t-64.5 -99.5t-110.5 -72t-159 -27.5q-91 0 -158.5 27.5t-111 71.5t-64.5 99.5t-21 110.5zM354 676l568 -2q-14 51 -40 92.5t-62 71.5t-82 46.5t-100 16.5 t-100 -16t-82 -45.5t-61.5 -71t-40.5 -92.5z" />
<glyph unicode="&#x116;" horiz-adv-x="1173" d="M121 -1v1456l952 -1v-183l-738 1v-429h648v-182h-648v-479h738v-183h-952zM424 1748q0 20 7.5 45t26 47.5t50 37.5t79.5 15t79.5 -15t50 -37.5t26 -47.5t7.5 -45t-7.5 -45t-26 -47.5t-50 -38t-79.5 -15.5t-79.5 15.5t-50 38t-26 47.5t-7.5 45z" />
<glyph unicode="&#x117;" horiz-adv-x="1274" d="M122 536q0 117 35 217.5t101.5 174t162.5 115t217 41.5q138 0 236 -47.5t160.5 -129t91 -189.5t28.5 -229l-817 3q5 -66 26 -124.5t58 -102.5t91 -69.5t126 -25.5q98 0 168.5 51.5t104.5 142.5l205 -56q-28 -77 -76 -137t-110.5 -101t-136.5 -62t-155 -21q-121 0 -217 42 t-162.5 115.5t-101.5 174t-35 217.5zM354 676l568 -2q-14 51 -40 92.5t-62 71.5t-82 46.5t-100 16.5t-100 -16t-82 -45.5t-61.5 -71t-40.5 -92.5zM484 1414q0 20 7 45t24.5 47.5t47 37.5t75.5 15q45 0 75 -15t47 -37.5t24 -47.5t7 -45t-7 -45t-24 -47.5t-47 -38t-75 -15.5 q-46 0 -75.5 15.5t-47 38t-24.5 47.5t-7 45z" />
<glyph unicode="&#x118;" horiz-adv-x="1173" d="M121 -1v1456l952 -1v-183l-738 1v-429h648v-182h-648v-479h738v-183h-952z" />
<glyph unicode="&#x119;" horiz-adv-x="1274" d="M122 536q0 117 35 217.5t101.5 174t162.5 115t217 41.5q138 0 236 -47.5t160.5 -129t91 -189.5t28.5 -229l-817 3q5 -66 26 -124.5t58 -102.5t91 -69.5t126 -25.5q98 0 168.5 51.5t104.5 142.5l205 -56q-28 -77 -76 -137t-110.5 -101t-136.5 -62t-155 -21q-121 0 -217 42 t-162.5 115.5t-101.5 174t-35 217.5zM354 676l568 -2q-14 51 -40 92.5t-62 71.5t-82 46.5t-100 16.5t-100 -16t-82 -45.5t-61.5 -71t-40.5 -92.5zM388 -320q0 42 15.5 81.5t40 76t54.5 69t58 60.5h310q-15 -12 -40 -33t-54.5 -46t-59 -53.5t-54 -56t-39.5 -52t-15 -43.5 q0 -12 11 -19.5t26 -11t30 -4.5t24 -1q30 0 59.5 3.5t58.5 6.5v-187q-29 -3 -59 -5t-59 -2q-49 0 -103 11.5t-99.5 37.5t-75 67.5t-29.5 100.5z" />
<glyph unicode="&#x11a;" horiz-adv-x="1173" d="M121 -1v1456l952 -1v-183l-738 1v-429h648v-182h-648v-479h738v-183h-952zM209 1964h230l151 -162l157 162h218l-306 -386l-142 2z" />
<glyph unicode="&#x11b;" horiz-adv-x="1274" d="M122 536q0 117 35 217.5t101.5 174t162.5 115t217 41.5q138 0 236 -47.5t160.5 -129t91 -189.5t28.5 -229l-817 3q5 -66 26 -124.5t58 -102.5t91 -69.5t126 -25.5q98 0 168.5 51.5t104.5 142.5l205 -56q-28 -77 -76 -137t-110.5 -101t-136.5 -62t-155 -21q-121 0 -217 42 t-162.5 115.5t-101.5 174t-35 217.5zM257 1631h230l151 -162l157 162h218l-305 -386l-143 1zM354 676l568 -2q-14 51 -40 92.5t-62 71.5t-82 46.5t-100 16.5t-100 -16t-82 -45.5t-61.5 -71t-40.5 -92.5z" />
<glyph unicode="&#x11c;" horiz-adv-x="1586" d="M122 721q0 156 46 290.5t133.5 233t214.5 154.5t290 56q116 0 219 -31.5t187 -92t146 -148.5t96 -200l-208 -45q-24 77 -65 139t-97 105.5t-126.5 66.5t-151.5 23q-120 0 -209 -45t-147 -120.5t-86.5 -175.5t-28.5 -210q0 -111 29 -210.5t88 -175.5t148 -120.5t210 -44.5 q83 0 158 23.5t133.5 69.5t95.5 113t43 154h-530v182h745v-143q0 -55 -11 -109.5t-31 -105.5q-37 -97 -98.5 -167t-140.5 -114t-172 -65t-192 -21q-163 0 -291 55.5t-216.5 154t-134.5 233t-46 291.5zM422 1596l299 384h144l299 -384h-217l-152 160l-147 -160h-226z" />
<glyph unicode="&#x11d;" horiz-adv-x="1274" d="M122 542q0 118 35 218.5t101 173.5t162 114.5t218 41.5q42 0 86 -10.5t84.5 -30.5t73.5 -50t54 -68l-1 131h217l2 -1064q0 -108 -38 -196t-104.5 -150.5t-157 -96.5t-195.5 -34q-96 0 -176.5 26t-142.5 76.5t-104.5 123.5t-63.5 167h218q14 -49 39.5 -88t61 -66 t79.5 -41.5t95 -14.5q65 0 116 22.5t86 62t53.5 93.5t18.5 116v166q-23 -36 -57 -67t-74 -54t-83.5 -36t-86.5 -13q-122 0 -218 41.5t-162 114.5t-101 173.5t-35 218.5zM253 1228l300 384h143l300 -384h-217l-152 160l-148 -160h-226zM335 542q0 -71 18 -137t55 -117 t94 -81.5t136 -30.5q70 0 126 30t95 79t59.5 111.5t20.5 127.5q0 71 -16.5 140t-52.5 123t-93 87.5t-139 33.5q-79 0 -136 -30.5t-94 -81.5t-55 -117t-18 -137z" />
<glyph unicode="&#x11e;" horiz-adv-x="1586" d="M122 721q0 156 46 290.5t133.5 233t214.5 154.5t290 56q116 0 219 -31.5t187 -92t146 -148.5t96 -200l-208 -45q-24 77 -65 139t-97 105.5t-126.5 66.5t-151.5 23q-120 0 -209 -45t-147 -120.5t-86.5 -175.5t-28.5 -210q0 -111 29 -210.5t88 -175.5t148 -120.5t210 -44.5 q83 0 158 23.5t133.5 69.5t95.5 113t43 154h-530v182h745v-143q0 -55 -11 -109.5t-31 -105.5q-37 -97 -98.5 -167t-140.5 -114t-172 -65t-192 -21q-163 0 -291 55.5t-216.5 154t-134.5 233t-46 291.5zM438 1932h217q0 -59 36 -91.5t103 -32.5q66 0 101.5 33t35.5 91h217 q0 -55 -20.5 -110t-64 -99.5t-110.5 -72t-159 -27.5t-159 27.5t-111 71.5t-65 99.5t-21 110.5z" />
<glyph unicode="&#x11f;" horiz-adv-x="1274" d="M122 542q0 118 35 218.5t101 173.5t162 114.5t218 41.5q42 0 86 -10.5t84.5 -30.5t73.5 -50t54 -68l-1 131h217l2 -1064q0 -108 -38 -196t-104.5 -150.5t-157 -96.5t-195.5 -34q-96 0 -176.5 26t-142.5 76.5t-104.5 123.5t-63.5 167h218q14 -49 39.5 -88t61 -66 t79.5 -41.5t95 -14.5q65 0 116 22.5t86 62t53.5 93.5t18.5 116v166q-23 -36 -57 -67t-74 -54t-83.5 -36t-86.5 -13q-122 0 -218 41.5t-162 114.5t-101 173.5t-35 218.5zM282 1549h217q0 -59 36 -91.5t102 -32.5t102 32.5t36 91.5h217q0 -55 -21 -110t-64.5 -99.5t-110.5 -72 t-159 -27.5q-91 0 -158.5 27.5t-111 71.5t-64.5 99.5t-21 110.5zM335 542q0 -71 18 -137t55 -117t94 -81.5t136 -30.5q70 0 126 30t95 79t59.5 111.5t20.5 127.5q0 71 -16.5 140t-52.5 123t-93 87.5t-139 33.5q-79 0 -136 -30.5t-94 -81.5t-55 -117t-18 -137z" />
<glyph unicode="&#x120;" horiz-adv-x="1586" d="M122 721q0 156 46 290.5t133.5 233t214.5 154.5t290 56q116 0 219 -31.5t187 -92t146 -148.5t96 -200l-208 -45q-24 77 -65 139t-97 105.5t-126.5 66.5t-151.5 23q-120 0 -209 -45t-147 -120.5t-86.5 -175.5t-28.5 -210q0 -111 29 -210.5t88 -175.5t148 -120.5t210 -44.5 q83 0 158 23.5t133.5 69.5t95.5 113t43 154h-530v182h745v-143q0 -55 -11 -109.5t-31 -105.5q-37 -97 -98.5 -167t-140.5 -114t-172 -65t-192 -21q-163 0 -291 55.5t-216.5 154t-134.5 233t-46 291.5zM630 1748q0 20 7.5 45t26 47.5t50 37.5t79.5 15t79.5 -15t50 -37.5 t26 -47.5t7.5 -45t-7.5 -45t-26 -47.5t-50 -38t-79.5 -15.5t-79.5 15.5t-50 38t-26 47.5t-7.5 45z" />
<glyph unicode="&#x121;" horiz-adv-x="1274" d="M122 542q0 118 35 218.5t101 173.5t162 114.5t218 41.5q42 0 86 -10.5t84.5 -30.5t73.5 -50t54 -68l-1 131h217l2 -1064q0 -108 -38 -196t-104.5 -150.5t-157 -96.5t-195.5 -34q-96 0 -176.5 26t-142.5 76.5t-104.5 123.5t-63.5 167h218q14 -49 39.5 -88t61 -66 t79.5 -41.5t95 -14.5q65 0 116 22.5t86 62t53.5 93.5t18.5 116v166q-23 -36 -57 -67t-74 -54t-83.5 -36t-86.5 -13q-122 0 -218 41.5t-162 114.5t-101 173.5t-35 218.5zM335 542q0 -71 18 -137t55 -117t94 -81.5t136 -30.5q70 0 126 30t95 79t59.5 111.5t20.5 127.5 q0 71 -16.5 140t-52.5 123t-93 87.5t-139 33.5q-79 0 -136 -30.5t-94 -81.5t-55 -117t-18 -137zM484 1414q0 20 7 45t24.5 47.5t47 37.5t75.5 15q45 0 75 -15t47 -37.5t24 -47.5t7 -45t-7 -45t-24 -47.5t-47 -38t-75 -15.5q-46 0 -75.5 15.5t-47 38t-24.5 47.5t-7 45z" />
<glyph unicode="&#x122;" horiz-adv-x="1601" d="M101 721q0 156 46 290t134 233t215.5 155t289.5 56q127 0 233 -34.5t189.5 -100.5t143 -160.5t94.5 -214.5l-205 -57q-25 86 -63.5 157t-94 121.5t-129 78t-168.5 27.5q-121 0 -209.5 -44.5t-146.5 -120.5t-86.5 -176t-28.5 -210q0 -111 29 -211t88 -175.5t148 -120 t210 -44.5q212 0 317 100.5t112 313.5h-530v182h746v-143q0 -315 -166 -475.5t-479 -160.5q-163 0 -291.5 55.5t-216.5 154t-134.5 233t-46.5 291.5zM611 -434l109 352h288l-212 -352h-185z" />
<glyph unicode="&#x123;" horiz-adv-x="1234" d="M101 542q0 117 35 217.5t101.5 174t162.5 115t217 41.5q80 0 157.5 -22.5t142.5 -70.5q-1 8 -1.5 16.5t-0.5 16.5q-1 8 -1.5 16t-1.5 16h218q2 -101 4.5 -201.5t2.5 -201.5q0 -159 -2 -316.5t-2 -316.5q0 -107 -38 -195t-104.5 -150.5t-156.5 -97t-195 -34.5 q-195 0 -321 101.5t-166 291.5h217q28 -100 100 -155t175 -55q65 0 116.5 22.5t86.5 62t53.5 93t18.5 116.5v60q-66 -49 -143.5 -70.5t-158.5 -21.5q-122 0 -218 41.5t-162 115t-101 173.5t-35 218zM315 542q0 -71 17.5 -137t54.5 -117t94 -81.5t136 -30.5q63 0 112 21 t85 58t59.5 87t35.5 107q4 18 7 37t3 38q0 71 -16.5 140t-53 123t-94 87.5t-138.5 33.5q-79 0 -136 -30.5t-94 -81.5t-54.5 -117t-17.5 -137zM422 1646h307l71 -480l-198 2z" />
<glyph unicode="&#x124;" horiz-adv-x="1317" d="M121 0v1454h214v-611h647v611h214v-1454h-214v661h-647v-661h-214zM288 1596l299 384h144l299 -384h-217l-152 160l-147 -160h-226z" />
<glyph unicode="&#x125;" horiz-adv-x="1138" d="M-160 1576l300 384h143l300 -384h-217l-152 160l-148 -160h-226zM122 1454h214l1 -492q22 28 56 51t74.5 40t84 26.5t84.5 9.5h14q83 -4 150.5 -29.5t115.5 -72t74 -114t26 -154.5q0 -181 -1 -359.5t-1 -359.5h-215l3 719q0 46 -14 81t-40 59t-62.5 36t-81.5 12 q-35 0 -69.5 -8t-66.5 -23t-60 -37t-49 -50q-2 -3 -5.5 -8.5t-7.5 -12.5t-6.5 -12.5t-2.5 -8.5l2 -747h-215z" />
<glyph unicode="&#x126;" horiz-adv-x="1317" d="M121 0v1454h214v-611h647v611h214v-1454h-214v661h-647v-661h-214zM257 1462v184h763v-184h-763z" />
<glyph unicode="&#x127;" horiz-adv-x="1138" d="M-158 1519v184h763v-184h-763zM122 1454h214l1 -492q22 28 56 51t74.5 40t84 26.5t84.5 9.5h14q83 -4 150.5 -29.5t115.5 -72t74 -114t26 -154.5q0 -181 -1 -359.5t-1 -359.5h-215l3 719q0 46 -14 81t-40 59t-62.5 36t-81.5 12q-35 0 -69.5 -8t-66.5 -23t-60 -37t-49 -50 q-2 -3 -5.5 -8.5t-7.5 -12.5t-6.5 -12.5t-2.5 -8.5l2 -747h-215z" />
<glyph unicode="&#x128;" horiz-adv-x="456" d="M-175 1654q15 52 38.5 95t58 74t79 48.5t101.5 17.5q47 0 88.5 -16.5t76 -36.5t61.5 -36.5t45 -16.5q17 0 30 13t22 31.5t15 38.5t9 33l182 -54q-16 -51 -37.5 -95.5t-53 -77.5t-75 -52t-102.5 -19q-46 0 -87.5 16.5t-76.5 37t-62 37t-42 16.5q-21 0 -36 -10.5t-25 -26.5 t-16.5 -35t-10.5 -36zM121 0v1454h214v-1454h-214z" />
<glyph unicode="&#x129;" horiz-adv-x="424" d="M-187 1253q15 53 38.5 96.5t57 74t78.5 47.5t103 17q50 0 91.5 -16.5t75 -36.5t59.5 -36.5t45 -16.5q17 0 30 13t22 31.5t15 38.5t9 33l182 -54q-16 -51 -37.5 -95.5t-53 -77.5t-75 -52t-102.5 -19q-49 0 -91.5 16.5t-76.5 37t-59.5 37t-40.5 16.5q-22 0 -37 -10.5 t-25 -26.5t-16 -35t-10 -36zM101 4v1062h217v-1062h-217z" />
<glyph unicode="&#x12a;" horiz-adv-x="456" d="M-154 1661v184h763v-184h-763zM121 0v1454h214v-1454h-214z" />
<glyph unicode="&#x12b;" horiz-adv-x="424" d="M-95 1189v184h616v-184h-616zM101 4v1062h217v-1062h-217z" />
<glyph unicode="&#x12e;" horiz-adv-x="456" d="M-34 -320q0 42 15.5 81.5t40 76t54.5 69t58 60.5h310q-15 -12 -40 -33t-54.5 -46t-59 -53.5t-54 -56t-39.5 -52t-15 -43.5q0 -12 11 -19.5t26 -11t30 -4.5t24 -1q30 0 59.5 3.5t58.5 6.5v-187q-29 -3 -59 -5t-59 -2q-49 0 -103 11.5t-99.5 37.5t-75 67.5t-29.5 100.5z M121 0v1454h214v-1454h-214z" />
<glyph unicode="&#x12f;" horiz-adv-x="510" d="M-20 -299q0 42 15.5 81.5t40 76t54.5 69t58 60.5h310q-15 -12 -40 -33t-54.5 -46t-59 -53.5t-54 -56t-39.5 -52t-15 -43.5q0 -12 11 -19.5t26 -11t30 -4.5t24 -1q30 0 59.5 3.5t58.5 6.5v-187q-29 -3 -59 -5t-59 -2q-49 0 -103 11.5t-99.5 37.5t-75 67.5t-29.5 100.5z M121 1287q0 14 6.5 34.5t21.5 39.5t41 32t65 13q40 0 66 -13t41.5 -32t21.5 -39.5t6 -34.5q0 -15 -6.5 -35t-22 -38.5t-41.5 -31.5t-65 -13t-64.5 13t-41 31.5t-22 38.5t-6.5 35zM150 1065h214l3 -1065h-214z" />
<glyph unicode="&#x130;" horiz-adv-x="456" d="M65 1748q0 20 7.5 45t26 47.5t50 37.5t79.5 15t79.5 -15t50 -37.5t26 -47.5t7.5 -45t-7.5 -45t-26 -47.5t-50 -38t-79.5 -15.5t-79.5 15.5t-50 38t-26 47.5t-7.5 45zM121 0v1454h214v-1454h-214z" />
<glyph unicode="&#x131;" horiz-adv-x="424" d="M101 4v1062h217v-1062h-217z" />
<glyph unicode="&#x132;" horiz-adv-x="1647" d="M121 0v1454h214v-1454h-214zM579 442l212 10q0 -58 18.5 -109t52.5 -89t82.5 -60.5t108.5 -22.5t108 22t81.5 60t51.5 89t18 109v1004h215v-1004q0 -102 -36 -187.5t-100 -146.5t-150.5 -95t-187.5 -34q-105 0 -190.5 33.5t-147 93.5t-96.5 143.5t-40 183.5z" />
<glyph unicode="&#x133;" horiz-adv-x="1012" d="M121 1287q0 14 6.5 34.5t21.5 39.5t41 32t65 13q40 0 66 -13t41.5 -32t21.5 -39.5t6 -34.5q0 -15 -6.5 -35t-22 -38.5t-41.5 -31.5t-65 -13t-64.5 13t-41 31.5t-22 38.5t-6.5 35zM150 1065h214l3 -1065h-214zM411 -184q50 0 94.5 -2t78 9.5t53 43.5t19.5 101l-3 1097h215 l1 -1097q0 -78 -17 -133t-47.5 -92.5t-72.5 -59.5t-93 -33t-109 -14.5t-119 -3.5v184zM623 1306q0 30 11 53.5t30 40.5t43 26t50 9t50.5 -9t43.5 -25.5t30 -40.5t11 -54t-11.5 -53.5t-30 -40t-43 -25t-50.5 -8.5q-25 0 -49.5 9t-43 25.5t-30 40t-11.5 52.5z" />
<glyph unicode="&#x134;" horiz-adv-x="1191" d="M123 442l212 10q0 -58 18.5 -109t52.5 -89t82.5 -60.5t108.5 -22.5t108 22t81.5 60t51.5 89t18 109v1004h215v-1004q0 -102 -36 -187.5t-100 -146.5t-150.5 -95t-187.5 -34q-105 0 -190.5 33.5t-147 93.5t-96.5 143.5t-40 183.5zM225 1596l299 384h144l299 -384h-217 l-152 160l-147 -160h-226z" />
<glyph unicode="&#x135;" horiz-adv-x="454" d="M-164 1109l300 384h143l300 -384h-217l-152 160l-148 -160h-226zM-127 -184q15 0 29.5 -0.5t29.5 -0.5q35 0 62 1.5t48 6.5q27 6 42 20.5t22.5 34.5t9 43.5t1.5 46.5l-2 1097h214l2 -1097q0 -60 -14.5 -120t-54.5 -108t-109.5 -78t-179.5 -30h-50h-50v184z" />
<glyph unicode="&#x136;" horiz-adv-x="1273" d="M121 1454h215l1 -676l556 676h263l-510 -620l584 -834h-251l-464 663l-178 -205l2 -458h-215zM483 -438l108 352h289l-213 -352h-184z" />
<glyph unicode="&#x137;" horiz-adv-x="1142" d="M122 1454h214l1 -839l421 449h275l-442 -473l469 -591h-259l-348 435l-115 -115v-320h-214zM322 -441l108 352h289l-213 -352h-184z" />
<glyph unicode="&#x138;" horiz-adv-x="1142" d="M122 1454h214l1 -839l421 449h275l-442 -473l469 -591h-259l-348 435l-115 -115v-320h-214z" />
<glyph unicode="&#x139;" horiz-adv-x="1134" d="M121 -1v1455h214v-1272h746v-183h-960zM319 1610l201 375h296l-293 -375h-204z" />
<glyph unicode="&#x13a;" horiz-adv-x="461" d="M57 1599l201 375h268l-292 -375h-177zM122 1454h214l3 -1454h-215z" />
<glyph unicode="&#x13b;" horiz-adv-x="1134" d="M121 -1v1455h214v-1272h746v-183h-960zM444 -438l108 352h289l-213 -352h-184z" />
<glyph unicode="&#x13c;" horiz-adv-x="461" d="M36 -438l108 352h289l-213 -352h-184zM122 1454h214l3 -1454h-215z" />
<glyph unicode="&#x13d;" horiz-adv-x="1134" d="M121 -1v1455h214v-1272h746v-183h-960z" />
<glyph unicode="&#x13e;" horiz-adv-x="1317" d="M122 1454h214l3 -1454h-215z" />
<glyph unicode="&#x13f;" horiz-adv-x="1134" d="M121 -1v1455h214v-1272h746v-183h-960zM414 1139q0 21 7 48t24.5 50t47 39t73.5 16q45 0 74.5 -16t47.5 -39t25 -50t7 -48t-7 -48t-25 -50t-47.5 -39t-74.5 -16q-44 0 -73.5 16t-47 39t-24.5 50t-7 48z" />
<glyph unicode="&#x140;" horiz-adv-x="1124" d="M122 1454h214l3 -1454h-215zM700 729q0 21 7 48t24.5 50t47 39t73.5 16q45 0 74.5 -16t47.5 -39t25 -50t7 -48t-7 -48t-25 -50t-47.5 -39t-74.5 -16q-44 0 -73.5 16t-47 39t-24.5 50t-7 48z" />
<glyph unicode="&#x141;" horiz-adv-x="1134" d="M121 -1v1455h214v-1272h746v-183h-960zM167 479v184h801v-184h-801z" />
<glyph unicode="&#x142;" horiz-adv-x="461" d="M-170 479v184h801v-184h-801zM122 1454h214l3 -1454h-215z" />
<glyph unicode="&#x143;" horiz-adv-x="1441" d="M121 0v1454h191l793 -1077v1077h215v-1454h-178l-807 1075v-1075h-214zM472 1610l201 375h296l-293 -375h-204z" />
<glyph unicode="&#x144;" horiz-adv-x="1137" d="M122 1065h214v-107q26 31 64 55.5t80.5 41t87.5 25.5t85 9q84 0 151 -28t114 -77.5t72.5 -117t25.5 -147.5l-2 -719h-215l3 719q0 85 -49 136.5t-149 51.5q-34 0 -76.5 -11.5t-81.5 -32.5t-69 -49.5t-39 -63.5l1 -750h-215zM432 1251l201 375h268l-292 -375h-177z" />
<glyph unicode="&#x145;" horiz-adv-x="1441" d="M121 0v1454h191l793 -1077v1077h215v-1454h-178l-807 1075v-1075h-214zM551 -438l108 352h289l-213 -352h-184z" />
<glyph unicode="&#x146;" horiz-adv-x="1137" d="M122 1065h214v-107q26 31 64 55.5t80.5 41t87.5 25.5t85 9q84 0 151 -28t114 -77.5t72.5 -117t25.5 -147.5l-2 -719h-215l3 719q0 85 -49 136.5t-149 51.5q-34 0 -76.5 -11.5t-81.5 -32.5t-69 -49.5t-39 -63.5l1 -750h-215zM387 -438l108 352h289l-213 -352h-184z" />
<glyph unicode="&#x147;" horiz-adv-x="1441" d="M121 0v1454h191l793 -1077v1077h215v-1454h-178l-807 1075v-1075h-214zM343 1964h230l151 -162l157 162h218l-306 -386l-142 2z" />
<glyph unicode="&#x148;" horiz-adv-x="1137" d="M122 1065h214v-107q26 31 64 55.5t80.5 41t87.5 25.5t85 9q84 0 151 -28t114 -77.5t72.5 -117t25.5 -147.5l-2 -719h-215l3 719q0 85 -49 136.5t-149 51.5q-34 0 -76.5 -11.5t-81.5 -32.5t-69 -49.5t-39 -63.5l1 -750h-215zM216 1653h230l151 -162l157 162h218l-305 -386 l-143 1z" />
<glyph unicode="&#x149;" horiz-adv-x="1137" d="M122 1065h214v-107q26 31 64 55.5t80.5 41t87.5 25.5t85 9q84 0 151 -28t114 -77.5t72.5 -117t25.5 -147.5l-2 -719h-215l3 719q0 85 -49 136.5t-149 51.5q-34 0 -76.5 -11.5t-81.5 -32.5t-69 -49.5t-39 -63.5l1 -750h-215zM392 1052l70 480h261l-180 -479z" />
<glyph unicode="&#x14c;" horiz-adv-x="1611" d="M122 721q0 156 46 290.5t133.5 233t214.5 154.5t290 56q162 0 289.5 -56t215 -155t133.5 -233t46 -290t-46 -290t-134 -232.5t-215 -155t-289 -56.5t-289 56.5t-215 155t-134 232.5t-46 290zM335 721q0 -110 28.5 -210t87 -175.5t147 -120.5t208.5 -45q119 0 207.5 45 t147 121t87 176t28.5 209q0 110 -28.5 209.5t-86.5 175.5t-146.5 121t-208.5 45t-209 -45t-147 -120.5t-86.5 -175.5t-28.5 -210zM424 1661v184h763v-184h-763z" />
<glyph unicode="&#x14d;" horiz-adv-x="1274" d="M122 536q0 117 35 217.5t101.5 174t162.5 115t217 41.5t216.5 -42t162 -115.5t102 -173.5t35.5 -217t-35 -217.5t-101.5 -174t-162.5 -115.5t-217 -42q-122 0 -218 42t-162 115.5t-101 174t-35 217.5zM252 1163v184h763v-184h-763zM335 536q0 -71 18 -137t55 -117 t94 -81.5t136 -30.5t136 30.5t93.5 81.5t54 117t17.5 137t-17.5 136.5t-54 116.5t-93.5 81.5t-136 30.5t-136 -30.5t-94 -81t-55 -116.5t-18 -137z" />
<glyph unicode="&#x14e;" horiz-adv-x="1611" d="M122 721q0 156 46 290.5t133.5 233t214.5 154.5t290 56q162 0 289.5 -56t215 -155t133.5 -233t46 -290t-46 -290t-134 -232.5t-215 -155t-289 -56.5t-289 56.5t-215 155t-134 232.5t-46 290zM335 721q0 -110 28.5 -210t87 -175.5t147 -120.5t208.5 -45q119 0 207.5 45 t147 121t87 176t28.5 209q0 110 -28.5 209.5t-86.5 175.5t-146.5 121t-208.5 45t-209 -45t-147 -120.5t-86.5 -175.5t-28.5 -210zM450 1932h217q0 -59 36 -91.5t103 -32.5q66 0 101.5 33t35.5 91h217q0 -55 -20.5 -110t-64 -99.5t-110.5 -72t-159 -27.5t-159 27.5t-111 71.5 t-65 99.5t-21 110.5z" />
<glyph unicode="&#x14f;" horiz-adv-x="1274" d="M122 536q0 117 35 217.5t101.5 174t162.5 115t217 41.5t216.5 -42t162 -115.5t102 -173.5t35.5 -217t-35 -217.5t-101.5 -174t-162.5 -115.5t-217 -42q-122 0 -218 42t-162 115.5t-101 174t-35 217.5zM282 1549h217q0 -59 36 -91.5t102 -32.5t102 32.5t36 91.5h217 q0 -55 -21 -110t-64.5 -99.5t-110.5 -72t-159 -27.5q-91 0 -158.5 27.5t-111 71.5t-64.5 99.5t-21 110.5zM335 536q0 -71 18 -137t55 -117t94 -81.5t136 -30.5t136 30.5t93.5 81.5t54 117t17.5 137t-17.5 136.5t-54 116.5t-93.5 81.5t-136 30.5t-136 -30.5t-94 -81 t-55 -116.5t-18 -137z" />
<glyph unicode="&#x150;" horiz-adv-x="1611" d="M122 721q0 156 46 290.5t133.5 233t214.5 154.5t290 56q162 0 289.5 -56t215 -155t133.5 -233t46 -290t-46 -290t-134 -232.5t-215 -155t-289 -56.5t-289 56.5t-215 155t-134 232.5t-46 290zM335 721q0 -110 28.5 -210t87 -175.5t147 -120.5t208.5 -45q119 0 207.5 45 t147 121t87 176t28.5 209q0 110 -28.5 209.5t-86.5 175.5t-146.5 121t-208.5 45t-209 -45t-147 -120.5t-86.5 -175.5t-28.5 -210zM372 1635l197 400h270l-289 -400h-178zM725 1635l230 400h284l-323 -400h-191z" />
<glyph unicode="&#x151;" horiz-adv-x="1274" d="M122 536q0 117 35 217.5t101.5 174t162.5 115t217 41.5t216.5 -42t162 -115.5t102 -173.5t35.5 -217t-35 -217.5t-101.5 -174t-162.5 -115.5t-217 -42q-122 0 -218 42t-162 115.5t-101 174t-35 217.5zM179 1259l191 388h329l-313 -388h-207zM335 536q0 -71 18 -137 t55 -117t94 -81.5t136 -30.5t136 30.5t93.5 81.5t54 117t17.5 137t-17.5 136.5t-54 116.5t-93.5 81.5t-136 30.5t-136 -30.5t-94 -81t-55 -116.5t-18 -137zM576 1259l191 388h328l-312 -388h-207z" />
<glyph unicode="&#x152;" horiz-adv-x="2053" d="M119 721q0 156 46 290.5t134 233t215 154.5t290 56q64 0 123 -10v10l1019 -1v-183l-804 1v-429h714v-182h-714v-479h804v-183h-1002q-14 0 -28 -3t-28 -5q-21 -2 -42 -3t-42 -1q-162 0 -289.5 56t-215.5 155t-134 233t-46 290zM333 721q0 -110 28.5 -210t87 -175.5 t147 -120.5t208.5 -45q31 0 62 3t61 11v1074q-62 14 -123 14q-120 0 -209 -44.5t-147 -120.5t-86.5 -176t-28.5 -210z" />
<glyph unicode="&#x153;" horiz-adv-x="2089" d="M119 536q0 117 35 217.5t101 174t162 115t218 41.5q128 0 236.5 -50t181.5 -157q36 54 82.5 93t100 64.5t113.5 37.5t124 12q122 0 218 -42t162 -116t101 -174t35 -217v-46l-817 3q5 -66 26 -124.5t58 -102.5t91 -69.5t126 -25.5q63 0 109.5 18t80 50t58 77t44.5 99 l200 -69q-4 -9 -7 -18.5t-7 -18.5q-30 -77 -77.5 -137t-109 -101t-135 -62t-156.5 -21q-128 0 -237 50t-183 157q-73 -107 -181.5 -157t-236.5 -50q-122 0 -218 42t-162 115.5t-101 174t-35 217.5zM333 536q0 -71 17.5 -137t54.5 -117t94 -81.5t136 -30.5t136 31t94 82 t54.5 117t17.5 136q0 71 -17.5 136.5t-54.5 116.5t-94 81.5t-136 30.5t-136 -30.5t-94 -81t-54.5 -116.5t-17.5 -137zM1189 676l569 -2q-14 52 -40 94t-62 71.5t-82.5 45.5t-100.5 16q-111 0 -183 -60t-101 -165z" />
<glyph unicode="&#x154;" horiz-adv-x="1334" d="M122 0v1463q133 -4 264.5 -4h264.5q23 0 47 -0.5t47 -1.5q96 -4 181 -34t148.5 -85t100.5 -134t37 -182q0 -102 -43.5 -192t-126.5 -150q81 -60 125.5 -149t44.5 -190v-341h-214v340q0 56 -19.5 102t-54 79t-81 51t-101.5 18q-102 0 -203 -0.5t-203 -0.5v-589h-214z M336 771q103 1 203.5 1h203.5q55 0 102 18t81 50.5t53 78.5t19 102q0 60 -19 105.5t-53.5 77t-81.5 49.5t-104 22q-42 3 -82.5 2.5t-82.5 -0.5q-60 0 -119.5 0.5t-119.5 0.5v-507zM419 1610l201 375h296l-293 -375h-204z" />
<glyph unicode="&#x155;" horiz-adv-x="721" d="M122 1065h214v-116q29 44 66 67.5t79 34t87 12.5t88 2v-195q-17 3 -37 5t-41 2q-42 0 -84.5 -8t-77.5 -27t-57 -50t-22 -76l2 -716h-215zM217 1234l201 375h268l-292 -375h-177z" />
<glyph unicode="&#x156;" horiz-adv-x="1334" d="M122 0v1463q133 -4 264.5 -4h264.5q23 0 47 -0.5t47 -1.5q96 -4 181 -34t148.5 -85t100.5 -134t37 -182q0 -102 -43.5 -192t-126.5 -150q81 -60 125.5 -149t44.5 -190v-341h-214v340q0 56 -19.5 102t-54 79t-81 51t-101.5 18q-102 0 -203 -0.5t-203 -0.5v-589h-214z M336 771q103 1 203.5 1h203.5q55 0 102 18t81 50.5t53 78.5t19 102q0 60 -19 105.5t-53.5 77t-81.5 49.5t-104 22q-42 3 -82.5 2.5t-82.5 -0.5q-60 0 -119.5 0.5t-119.5 0.5v-507zM458 -438l108 352h289l-213 -352h-184z" />
<glyph unicode="&#x157;" horiz-adv-x="721" d="M67 -438l108 352h289l-213 -352h-184zM122 1065h214v-116q29 44 66 67.5t79 34t87 12.5t88 2v-195q-17 3 -37 5t-41 2q-42 0 -84.5 -8t-77.5 -27t-57 -50t-22 -76l2 -716h-215z" />
<glyph unicode="&#x158;" horiz-adv-x="1334" d="M122 0v1463q133 -4 264.5 -4h264.5q23 0 47 -0.5t47 -1.5q96 -4 181 -34t148.5 -85t100.5 -134t37 -182q0 -102 -43.5 -192t-126.5 -150q81 -60 125.5 -149t44.5 -190v-341h-214v340q0 56 -19.5 102t-54 79t-81 51t-101.5 18q-102 0 -203 -0.5t-203 -0.5v-589h-214z M289 1964h230l151 -162l157 162h218l-306 -386l-142 2zM336 771q103 1 203.5 1h203.5q55 0 102 18t81 50.5t53 78.5t19 102q0 60 -19 105.5t-53.5 77t-81.5 49.5t-104 22q-42 3 -82.5 2.5t-82.5 -0.5q-60 0 -119.5 0.5t-119.5 0.5v-507z" />
<glyph unicode="&#x159;" horiz-adv-x="721" d="M1 1636h230l151 -162l157 162h218l-305 -386l-143 1zM122 1065h214v-116q29 44 66 67.5t79 34t87 12.5t88 2v-195q-17 3 -37 5t-41 2q-42 0 -84.5 -8t-77.5 -27t-57 -50t-22 -76l2 -716h-215z" />
<glyph unicode="&#x15a;" horiz-adv-x="1352" d="M122 449l214 4q0 -70 8.5 -123t34.5 -89t73.5 -54.5t125.5 -18.5q57 0 113 -0.5t113 -0.5q52 0 91.5 23t66.5 59.5t41 83t14 92.5q0 75 -25 121.5t-66 73.5t-94.5 39t-111.5 17.5t-115.5 9.5t-106.5 16q-70 17 -129.5 47t-102.5 75.5t-67 106t-24 136.5q0 88 31 158.5 t85 121t127 80.5t157 36q23 2 45 2h45q232 0 347.5 -111.5t131.5 -329.5l-211 1q0 63 -14 111.5t-46 81.5t-83 49.5t-125 16.5q-54 0 -104 -10t-88.5 -34.5t-61.5 -65.5t-23 -104t25.5 -102t67 -62t94.5 -33t108 -15t107.5 -8.5t93.5 -12.5q81 -18 145.5 -53t109.5 -86.5 t69 -120t24 -153.5q0 -93 -31.5 -173.5t-88 -140t-135 -93t-173.5 -33.5q-57 0 -113 0.5t-113 0.5q-119 0 -205 28.5t-142 86t-82.5 145t-26.5 204.5zM428 1610l201 375h296l-293 -375h-204z" />
<glyph unicode="&#x15b;" horiz-adv-x="1131" d="M121 306q0 8 0.5 15.5t0.5 15.5l213 -5q0 -47 6 -78t23 -50t47 -26.5t77 -7.5q45 0 88.5 -0.5t88.5 -0.5q30 0 54 11.5t41 31t26.5 45.5t9.5 55q0 44 -19.5 71t-51.5 42.5t-72.5 22.5t-81.5 10t-79 4.5t-66 6.5q-59 11 -111 35t-91 62t-61.5 89.5t-22.5 117.5 q0 88 35.5 150t93.5 101t131.5 56.5t148.5 17.5q90 0 163.5 -21t127 -65.5t85 -113.5t38.5 -164h-215q0 52 -13.5 86.5t-39 54.5t-62 28.5t-84.5 8.5q-35 0 -70 -5.5t-62.5 -20.5t-44.5 -42t-17 -71q0 -41 20 -67t52.5 -41t73.5 -22t82 -10t78.5 -5t63.5 -7q60 -12 112 -37 t90 -63.5t60 -90.5t22 -118q0 -75 -27 -136t-74 -104t-110 -66t-134 -23q-26 0 -51.5 -0.5t-51.5 -0.5q-88 0 -168 9.5t-140.5 43t-96 98t-35.5 173.5zM384 1234l201 375h268l-292 -375h-177z" />
<glyph unicode="&#x15c;" horiz-adv-x="1352" d="M122 449l214 4q0 -70 8.5 -123t34.5 -89t73.5 -54.5t125.5 -18.5q57 0 113 -0.5t113 -0.5q52 0 91.5 23t66.5 59.5t41 83t14 92.5q0 75 -25 121.5t-66 73.5t-94.5 39t-111.5 17.5t-115.5 9.5t-106.5 16q-70 17 -129.5 47t-102.5 75.5t-67 106t-24 136.5q0 88 31 158.5 t85 121t127 80.5t157 36q23 2 45 2h45q232 0 347.5 -111.5t131.5 -329.5l-211 1q0 63 -14 111.5t-46 81.5t-83 49.5t-125 16.5q-54 0 -104 -10t-88.5 -34.5t-61.5 -65.5t-23 -104t25.5 -102t67 -62t94.5 -33t108 -15t107.5 -8.5t93.5 -12.5q81 -18 145.5 -53t109.5 -86.5 t69 -120t24 -153.5q0 -93 -31.5 -173.5t-88 -140t-135 -93t-173.5 -33.5q-57 0 -113 0.5t-113 0.5q-119 0 -205 28.5t-142 86t-82.5 145t-26.5 204.5zM305 1596l299 384h144l299 -384h-217l-152 160l-147 -160h-226z" />
<glyph unicode="&#x15d;" horiz-adv-x="1131" d="M121 306q0 8 0.5 15.5t0.5 15.5l213 -5q0 -47 6 -78t23 -50t47 -26.5t77 -7.5q45 0 88.5 -0.5t88.5 -0.5q30 0 54 11.5t41 31t26.5 45.5t9.5 55q0 44 -19.5 71t-51.5 42.5t-72.5 22.5t-81.5 10t-79 4.5t-66 6.5q-59 11 -111 35t-91 62t-61.5 89.5t-22.5 117.5 q0 88 35.5 150t93.5 101t131.5 56.5t148.5 17.5q90 0 163.5 -21t127 -65.5t85 -113.5t38.5 -164h-215q0 52 -13.5 86.5t-39 54.5t-62 28.5t-84.5 8.5q-35 0 -70 -5.5t-62.5 -20.5t-44.5 -42t-17 -71q0 -41 20 -67t52.5 -41t73.5 -22t82 -10t78.5 -5t63.5 -7q60 -12 112 -37 t90 -63.5t60 -90.5t22 -118q0 -75 -27 -136t-74 -104t-110 -66t-134 -23q-26 0 -51.5 -0.5t-51.5 -0.5q-88 0 -168 9.5t-140.5 43t-96 98t-35.5 173.5zM164 1233l300 384h143l300 -384h-217l-152 160l-148 -160h-226z" />
<glyph unicode="&#x15e;" horiz-adv-x="1352" d="M122 449l214 4q0 -70 8.5 -123t34.5 -89t73.5 -54.5t125.5 -18.5q57 0 113 -0.5t113 -0.5q52 0 91.5 23t66.5 59.5t41 83t14 92.5q0 75 -25 121.5t-66 73.5t-94.5 39t-111.5 17.5t-115.5 9.5t-106.5 16q-70 17 -129.5 47t-102.5 75.5t-67 106t-24 136.5q0 88 31 158.5 t85 121t127 80.5t157 36q23 2 45 2h45q232 0 347.5 -111.5t131.5 -329.5l-211 1q0 63 -14 111.5t-46 81.5t-83 49.5t-125 16.5q-54 0 -104 -10t-88.5 -34.5t-61.5 -65.5t-23 -104t25.5 -102t67 -62t94.5 -33t108 -15t107.5 -8.5t93.5 -12.5q81 -18 145.5 -53t109.5 -86.5 t69 -120t24 -153.5q0 -93 -31.5 -173.5t-88 -140t-135 -93t-173.5 -33.5q-57 0 -113 0.5t-113 0.5q-119 0 -205 28.5t-142 86t-82.5 145t-26.5 204.5zM367 -499l120 132q17 -23 47.5 -37.5t66.5 -14.5q9 0 19 0.5t18 3.5t14 9.5t8 17.5q3 19 -2 32.5t-15.5 22t-24.5 12 t-29 3.5q-38 0 -76 -2t-76 -12v95q0 6 8.5 20.5t21.5 34t28.5 41.5t30.5 42t26.5 36t17.5 23h257l-114 -146q71 -22 113.5 -72.5t42.5 -126.5q0 -51 -21.5 -90.5t-56.5 -66t-79.5 -40t-91.5 -13.5q-72 0 -134 28t-119 68z" />
<glyph unicode="&#x15f;" horiz-adv-x="1131" d="M121 306q0 8 0.5 15.5t0.5 15.5l213 -5q0 -47 6 -78t23 -50t47 -26.5t77 -7.5q45 0 88.5 -0.5t88.5 -0.5q30 0 54 11.5t41 31t26.5 45.5t9.5 55q0 44 -19.5 71t-51.5 42.5t-72.5 22.5t-81.5 10t-79 4.5t-66 6.5q-59 11 -111 35t-91 62t-61.5 89.5t-22.5 117.5 q0 88 35.5 150t93.5 101t131.5 56.5t148.5 17.5q90 0 163.5 -21t127 -65.5t85 -113.5t38.5 -164h-215q0 52 -13.5 86.5t-39 54.5t-62 28.5t-84.5 8.5q-35 0 -70 -5.5t-62.5 -20.5t-44.5 -42t-17 -71q0 -41 20 -67t52.5 -41t73.5 -22t82 -10t78.5 -5t63.5 -7q60 -12 112 -37 t90 -63.5t60 -90.5t22 -118q0 -75 -27 -136t-74 -104t-110 -66t-134 -23q-26 0 -51.5 -0.5t-51.5 -0.5q-88 0 -168 9.5t-140.5 43t-96 98t-35.5 173.5zM265 -499l120 132q17 -23 47.5 -37.5t66.5 -14.5q9 0 19 0.5t18 3.5t14 9.5t8 17.5q3 19 -2 32.5t-15.5 22t-24.5 12 t-29 3.5q-38 0 -76 -2t-76 -12v95q0 6 8.5 20.5t21.5 34t28.5 41.5t30.5 42t26.5 36t17.5 23h257l-114 -146q71 -22 113.5 -72.5t42.5 -126.5q0 -51 -21.5 -90.5t-56.5 -66t-79.5 -40t-91.5 -13.5q-72 0 -134 28t-119 68z" />
<glyph unicode="&#x160;" horiz-adv-x="1352" d="M122 449l214 4q0 -70 8.5 -123t34.5 -89t73.5 -54.5t125.5 -18.5q57 0 113 -0.5t113 -0.5q52 0 91.5 23t66.5 59.5t41 83t14 92.5q0 75 -25 121.5t-66 73.5t-94.5 39t-111.5 17.5t-115.5 9.5t-106.5 16q-70 17 -129.5 47t-102.5 75.5t-67 106t-24 136.5q0 88 31 158.5 t85 121t127 80.5t157 36q23 2 45 2h45q232 0 347.5 -111.5t131.5 -329.5l-211 1q0 63 -14 111.5t-46 81.5t-83 49.5t-125 16.5q-54 0 -104 -10t-88.5 -34.5t-61.5 -65.5t-23 -104t25.5 -102t67 -62t94.5 -33t108 -15t107.5 -8.5t93.5 -12.5q81 -18 145.5 -53t109.5 -86.5 t69 -120t24 -153.5q0 -93 -31.5 -173.5t-88 -140t-135 -93t-173.5 -33.5q-57 0 -113 0.5t-113 0.5q-119 0 -205 28.5t-142 86t-82.5 145t-26.5 204.5zM298 1964h230l151 -162l157 162h218l-306 -386l-142 2z" />
<glyph unicode="&#x161;" horiz-adv-x="1131" d="M121 306q0 8 0.5 15.5t0.5 15.5l213 -5q0 -47 6 -78t23 -50t47 -26.5t77 -7.5q45 0 88.5 -0.5t88.5 -0.5q30 0 54 11.5t41 31t26.5 45.5t9.5 55q0 44 -19.5 71t-51.5 42.5t-72.5 22.5t-81.5 10t-79 4.5t-66 6.5q-59 11 -111 35t-91 62t-61.5 89.5t-22.5 117.5 q0 88 35.5 150t93.5 101t131.5 56.5t148.5 17.5q90 0 163.5 -21t127 -65.5t85 -113.5t38.5 -164h-215q0 52 -13.5 86.5t-39 54.5t-62 28.5t-84.5 8.5q-35 0 -70 -5.5t-62.5 -20.5t-44.5 -42t-17 -71q0 -41 20 -67t52.5 -41t73.5 -22t82 -10t78.5 -5t63.5 -7q60 -12 112 -37 t90 -63.5t60 -90.5t22 -118q0 -75 -27 -136t-74 -104t-110 -66t-134 -23q-26 0 -51.5 -0.5t-51.5 -0.5q-88 0 -168 9.5t-140.5 43t-96 98t-35.5 173.5zM168 1636h230l151 -162l157 162h218l-305 -386l-143 1z" />
<glyph unicode="&#x162;" horiz-adv-x="1313" d="M50 1272v183h1211v-183h-501v-1272h-214v1272h-496zM479 -438l108 352h289l-213 -352h-184z" />
<glyph unicode="&#x163;" horiz-adv-x="683" d="M82 883v183h78l1 267h214l-1 -267h217v-183h-218l-1 -580q0 -42 9 -67t27 -37.5t45.5 -16t65.5 -3.5q25 1 49 1.5t49 1.5v-183h-134q-154 0 -239 75.5t-85 228.5v580h-77zM189 -438l108 352h289l-213 -352h-184z" />
<glyph unicode="&#x164;" horiz-adv-x="1313" d="M50 1272v183h1211v-183h-501v-1272h-214v1272h-496zM279 1964h230l151 -162l157 162h218l-306 -386l-142 2z" />
<glyph unicode="&#x165;" horiz-adv-x="997" d="M34 883v183h77l1 267h214l-1 -267h217v-183h-218q0 -146 -0.5 -290t-0.5 -290q0 -19 2 -41.5t11 -39.5q7 -13 21 -21.5t32 -13.5t39 -6.5t42 -1.5q29 0 55 1.5t43 1.5v-183h-134q-154 0 -239 75t-85 229v580h-76zM601 974l70 480h258l-179 -479z" />
<glyph unicode="&#x166;" horiz-adv-x="1313" d="M50 1272v183h1211v-183h-501v-1272h-214v1272h-496zM274 1511v184h763v-184h-763z" />
<glyph unicode="&#x167;" horiz-adv-x="683" d="M-40 1500v184h763v-184h-763zM82 883v183h78l1 267h214l-1 -267h217v-183h-218l-1 -580q0 -42 9 -67t27 -37.5t45.5 -16t65.5 -3.5q25 1 49 1.5t49 1.5v-183h-134q-154 0 -239 75.5t-85 228.5v580h-77z" />
<glyph unicode="&#x168;" horiz-adv-x="1341" d="M121 522v932h214v-932q0 -74 23.5 -139t67.5 -113t106 -76t139 -28t138.5 28t105 76t67 113t23.5 139v932h215v-932q0 -120 -41.5 -219t-114.5 -170.5t-173.5 -110.5t-219.5 -39t-220 39t-174.5 110t-114.5 170.5t-41 219.5zM268 1654q15 52 38.5 95t58 74t79 48.5 t101.5 17.5q47 0 88.5 -16.5t76 -36.5t61.5 -36.5t45 -16.5q17 0 30 13t22 31.5t15 38.5t9 33l182 -54q-16 -51 -37.5 -95.5t-53 -77.5t-75 -52t-102.5 -19q-46 0 -87.5 16.5t-76.5 37t-62 37t-42 16.5q-21 0 -36 -10.5t-25 -26.5t-16.5 -35t-10.5 -36z" />
<glyph unicode="&#x169;" horiz-adv-x="1137" d="M121 351q0 181 0.5 359.5t0.5 359.5h216l-3 -719q-1 -94 53 -141t145 -47q38 0 79 11t77.5 31.5t66 50t43.5 66.5l1 1l-2 747h214l3 -1065h-214v96q-54 -58 -127 -89t-151 -31q-84 0 -157.5 25t-127.5 72t-85.5 116t-31.5 157zM137 1235q15 53 38.5 96.5t57 74t78.5 47.5 t103 17q50 0 91.5 -16.5t75 -36.5t59.5 -36.5t45 -16.5q17 0 30 13t22 31.5t15 38.5t9 33l182 -54q-16 -51 -37.5 -95.5t-53 -77.5t-75 -52t-102.5 -19q-49 0 -91.5 16.5t-76.5 37t-59.5 37t-40.5 16.5q-22 0 -37 -10.5t-25 -26.5t-16 -35t-10 -36z" />
<glyph unicode="&#x16a;" horiz-adv-x="1341" d="M121 522v932h214v-932q0 -74 23.5 -139t67.5 -113t106 -76t139 -28t138.5 28t105 76t67 113t23.5 139v932h215v-932q0 -120 -41.5 -219t-114.5 -170.5t-173.5 -110.5t-219.5 -39t-220 39t-174.5 110t-114.5 170.5t-41 219.5zM289 1661v184h763v-184h-763z" />
<glyph unicode="&#x16b;" horiz-adv-x="1137" d="M121 351q0 181 0.5 359.5t0.5 359.5h216l-3 -719q-1 -94 53 -141t145 -47q38 0 79 11t77.5 31.5t66 50t43.5 66.5l1 1l-2 747h214l3 -1065h-214v96q-54 -58 -127 -89t-151 -31q-84 0 -157.5 25t-127.5 72t-85.5 116t-31.5 157zM155 1171v184h763v-184h-763z" />
<glyph unicode="&#x16c;" horiz-adv-x="1341" d="M121 522v932h214v-932q0 -74 23.5 -139t67.5 -113t106 -76t139 -28t138.5 28t105 76t67 113t23.5 139v932h215v-932q0 -120 -41.5 -219t-114.5 -170.5t-173.5 -110.5t-219.5 -39t-220 39t-174.5 110t-114.5 170.5t-41 219.5zM315 1932h217q0 -59 36 -91.5t103 -32.5 q66 0 101.5 33t35.5 91h217q0 -55 -20.5 -110t-64 -99.5t-110.5 -72t-159 -27.5t-159 27.5t-111 71.5t-65 99.5t-21 110.5z" />
<glyph unicode="&#x16d;" horiz-adv-x="1137" d="M121 351q0 181 0.5 359.5t0.5 359.5h216l-3 -719q-1 -94 53 -141t145 -47q38 0 79 11t77.5 31.5t66 50t43.5 66.5l1 1l-2 747h214l3 -1065h-214v96q-54 -58 -127 -89t-151 -31q-84 0 -157.5 25t-127.5 72t-85.5 116t-31.5 157zM213 1549h217q0 -59 36 -91.5t102 -32.5 t102 32.5t36 91.5h217q0 -55 -21 -110t-64.5 -99.5t-110.5 -72t-159 -27.5q-91 0 -158.5 27.5t-111 71.5t-64.5 99.5t-21 110.5z" />
<glyph unicode="&#x16e;" horiz-adv-x="1341" d="M121 522v932h214v-932q0 -74 23.5 -139t67.5 -113t106 -76t139 -28t138.5 28t105 76t67 113t23.5 139v932h215v-932q0 -120 -41.5 -219t-114.5 -170.5t-173.5 -110.5t-219.5 -39t-220 39t-174.5 110t-114.5 170.5t-41 219.5zM456 1850q0 48 16 87t44.5 67.5t68 44 t86.5 15.5t86.5 -15.5t68 -44t44.5 -67.5t16 -87t-15.5 -87.5t-44 -68t-68 -44.5t-87.5 -16t-87.5 16t-68 44.5t-44 68t-15.5 87.5zM610 1850q0 -29 16 -45.5t45 -16.5t45 16.5t16 45.5q0 28 -16.5 44t-44.5 16t-44.5 -16t-16.5 -44z" />
<glyph unicode="&#x16f;" horiz-adv-x="1137" d="M121 351q0 181 0.5 359.5t0.5 359.5h216l-3 -719q-1 -94 53 -141t145 -47q38 0 79 11t77.5 31.5t66 50t43.5 66.5l1 1l-2 747h214l3 -1065h-214v96q-54 -58 -127 -89t-151 -31q-84 0 -157.5 25t-127.5 72t-85.5 116t-31.5 157zM291 1474q0 32 12 69t39 69t71.5 53.5 t110.5 21.5q65 0 109.5 -21.5t72 -53.5t39.5 -69t12 -69t-11.5 -69.5t-39 -70t-72 -54t-110.5 -21.5t-111 21.5t-72 54t-38.5 70t-11.5 69.5zM449 1476q0 -34 19.5 -53.5t54.5 -19.5t54.5 19.5t19.5 53.5t-20 52.5t-54 18.5q-35 0 -54.5 -18.5t-19.5 -52.5z" />
<glyph unicode="&#x170;" horiz-adv-x="1341" d="M121 522v932h214v-932q0 -74 23.5 -139t67.5 -113t106 -76t139 -28t138.5 28t105 76t67 113t23.5 139v932h215v-932q0 -120 -41.5 -219t-114.5 -170.5t-173.5 -110.5t-219.5 -39t-220 39t-174.5 110t-114.5 170.5t-41 219.5zM237 1635l197 400h270l-289 -400h-178z M590 1635l230 400h284l-323 -400h-191z" />
<glyph unicode="&#x171;" horiz-adv-x="1137" d="M111 1259l191 388h329l-313 -388h-207zM121 351q0 181 0.5 359.5t0.5 359.5h216l-3 -719q-1 -94 53 -141t145 -47q38 0 79 11t77.5 31.5t66 50t43.5 66.5l1 1l-2 747h214l3 -1065h-214v96q-54 -58 -127 -89t-151 -31q-84 0 -157.5 25t-127.5 72t-85.5 116t-31.5 157z M508 1259l191 388h328l-312 -388h-207z" />
<glyph unicode="&#x172;" horiz-adv-x="1341" d="M121 522v932h214v-932q0 -74 23.5 -139t67.5 -113t106 -76t139 -28t138.5 28t105 76t67 113t23.5 139v932h215v-932q0 -120 -41.5 -219t-114.5 -170.5t-173.5 -110.5t-219.5 -39t-220 39t-174.5 110t-114.5 170.5t-41 219.5zM385 -320q0 42 15.5 81.5t40 76t54.5 69 t58 60.5h310q-15 -12 -40 -33t-54.5 -46t-59 -53.5t-54 -56t-39.5 -52t-15 -43.5q0 -12 11 -19.5t26 -11t30 -4.5t24 -1q30 0 59.5 3.5t58.5 6.5v-187q-29 -3 -59 -5t-59 -2q-49 0 -103 11.5t-99.5 37.5t-75 67.5t-29.5 100.5z" />
<glyph unicode="&#x173;" horiz-adv-x="1137" d="M121 351q0 181 0.5 359.5t0.5 359.5h216l-3 -719q-1 -94 53 -141t145 -47q38 0 79 11t77.5 31.5t66 50t43.5 66.5l1 1l-2 747h214l3 -1065h-214v96q-54 -58 -127 -89t-151 -31q-84 0 -157.5 25t-127.5 72t-85.5 116t-31.5 157zM259 -320q0 42 15.5 81.5t40 76t54.5 69 t58 60.5h310q-15 -12 -40 -33t-54.5 -46t-59 -53.5t-54 -56t-39.5 -52t-15 -43.5q0 -12 11 -19.5t26 -11t30 -4.5t24 -1q30 0 59.5 3.5t58.5 6.5v-187q-29 -3 -59 -5t-59 -2q-49 0 -103 11.5t-99.5 37.5t-75 67.5t-29.5 100.5z" />
<glyph unicode="&#x174;" horiz-adv-x="2045" d="M82 1454h221l313 -1020l308 1022l196 -6l311 -1017l311 1021h222l-441 -1451h-183l-318 1038l-315 -1038h-183zM652 1596l299 384h144l299 -384h-217l-152 160l-147 -160h-226z" />
<glyph unicode="&#x175;" horiz-adv-x="1580" d="M27 1064h224l225 -654l223 651h194l225 -651l224 654h224l-363 -1062h-170l-237 688l-235 -688h-169zM363 1233l300 384h143l300 -384h-217l-152 160l-148 -160h-226z" />
<glyph unicode="&#x176;" horiz-adv-x="1451" d="M81 1454h240l404 -690l404 690h241l-541 -924l4 -530h-216l1 537zM355 1596l299 384h144l299 -384h-217l-152 160l-147 -160h-226z" />
<glyph unicode="&#x177;" horiz-adv-x="1147" d="M16 1064h227l302 -751l346 751h231l-609 -1322q-30 -66 -90 -103.5t-132 -37.5q-51 0 -98 14.5t-95 28.5v193q14 -5 35.5 -15t45.5 -20t48 -17.5t42 -7.5q12 0 22 5q5 2 15.5 18.5t23.5 43.5q14 27 28.5 59t27.5 62t23 53.5t14 32.5zM157 1250l300 384h143l300 -384h-217 l-152 160l-148 -160h-226z" />
<glyph unicode="&#x178;" horiz-adv-x="1451" d="M81 1454h240l404 -690l404 690h241l-541 -924l4 -530h-216l1 537zM373 1736q0 19 7 43t23.5 45t44.5 35t70 14t70 -14.5t44 -35.5t22.5 -45t6.5 -42q0 -19 -6.5 -43t-22.5 -45t-44 -35.5t-70 -14.5t-70 14.5t-44.5 35.5t-23.5 45t-7 43zM792 1736q0 19 6.5 43t23 45 t44 35t69.5 14q43 0 70.5 -14.5t44 -35.5t23 -45t6.5 -42q0 -19 -6.5 -43t-23 -45t-44 -35.5t-70.5 -14.5q-42 0 -69.5 14.5t-44 35.5t-23 45t-6.5 43z" />
<glyph unicode="&#x179;" horiz-adv-x="1458" d="M122 -1v183l930 1090h-930v183h1214v-183l-932 -1090h932v-183h-1214zM481 1610l201 375h296l-293 -375h-204z" />
<glyph unicode="&#x17a;" horiz-adv-x="1247" d="M137 184l693 698h-649v183h946v-138l-745 -745h745v-183h-988zM474 1234l201 375h268l-292 -375h-177z" />
<glyph unicode="&#x17b;" horiz-adv-x="1458" d="M122 -1v183l930 1090h-930v183h1214v-183l-932 -1090h932v-183h-1214zM566 1748q0 20 7.5 45t26 47.5t50 37.5t79.5 15t79.5 -15t50 -37.5t26 -47.5t7.5 -45t-7.5 -45t-26 -47.5t-50 -38t-79.5 -15.5t-79.5 15.5t-50 38t-26 47.5t-7.5 45z" />
<glyph unicode="&#x17c;" horiz-adv-x="1247" d="M137 184l693 698h-649v183h946v-138l-745 -745h745v-183h-988zM470 1414q0 20 7 45t24.5 47.5t47 37.5t75.5 15q45 0 75 -15t47 -37.5t24 -47.5t7 -45t-7 -45t-24 -47.5t-47 -38t-75 -15.5q-46 0 -75.5 15.5t-47 38t-24.5 47.5t-7 45z" />
<glyph unicode="&#x17d;" horiz-adv-x="1458" d="M122 -1v183l930 1090h-930v183h1214v-183l-932 -1090h932v-183h-1214zM351 1964h230l151 -162l157 162h218l-306 -386l-142 2z" />
<glyph unicode="&#x17e;" horiz-adv-x="1247" d="M137 184l693 698h-649v183h946v-138l-745 -745h745v-183h-988zM258 1636h230l151 -162l157 162h218l-305 -386l-143 1z" />
<glyph unicode="&#x17f;" horiz-adv-x="668" />
<glyph unicode="&#x192;" horiz-adv-x="1382" d="M201 248v83h216q0 -14 -0.5 -26.5t-0.5 -26.5q0 -19 2.5 -37.5t10 -33.5t21.5 -24t38 -9q32 0 52 21t20 53v635h-109v185h109v49q0 87 24.5 151t71 106t113 63t150.5 21q66 0 128 -24.5t116 -61.5l-107 -162q-15 10 -32 21t-35 20.5t-37 15.5t-37 6q-48 0 -75.5 -11.5 t-41.5 -33.5t-18 -54t-4 -73v-33h270v-185h-270v-635q0 -61 -23.5 -109t-63 -81t-92 -50.5t-109.5 -17.5t-109 17.5t-91.5 50.5t-63 81t-23.5 109z" />
<glyph unicode="&#x218;" horiz-adv-x="1352" d="M122 449l214 4q0 -70 8.5 -123t34.5 -89t73.5 -54.5t125.5 -18.5q57 0 113 -0.5t113 -0.5q52 0 91.5 23t66.5 59.5t41 83t14 92.5q0 75 -25 121.5t-66 73.5t-94.5 39t-111.5 17.5t-115.5 9.5t-106.5 16q-70 17 -129.5 47t-102.5 75.5t-67 106t-24 136.5q0 88 31 158.5 t85 121t127 80.5t157 36q23 2 45 2h45q232 0 347.5 -111.5t131.5 -329.5l-211 1q0 63 -14 111.5t-46 81.5t-83 49.5t-125 16.5q-54 0 -104 -10t-88.5 -34.5t-61.5 -65.5t-23 -104t25.5 -102t67 -62t94.5 -33t108 -15t107.5 -8.5t93.5 -12.5q81 -18 145.5 -53t109.5 -86.5 t69 -120t24 -153.5q0 -93 -31.5 -173.5t-88 -140t-135 -93t-173.5 -33.5q-57 0 -113 0.5t-113 0.5q-119 0 -205 28.5t-142 86t-82.5 145t-26.5 204.5zM449 -438l108 352h289l-213 -352h-184z" />
<glyph unicode="&#x219;" horiz-adv-x="1131" d="M121 306q0 8 0.5 15.5t0.5 15.5l213 -5q0 -47 6 -78t23 -50t47 -26.5t77 -7.5q45 0 88.5 -0.5t88.5 -0.5q30 0 54 11.5t41 31t26.5 45.5t9.5 55q0 44 -19.5 71t-51.5 42.5t-72.5 22.5t-81.5 10t-79 4.5t-66 6.5q-59 11 -111 35t-91 62t-61.5 89.5t-22.5 117.5 q0 88 35.5 150t93.5 101t131.5 56.5t148.5 17.5q90 0 163.5 -21t127 -65.5t85 -113.5t38.5 -164h-215q0 52 -13.5 86.5t-39 54.5t-62 28.5t-84.5 8.5q-35 0 -70 -5.5t-62.5 -20.5t-44.5 -42t-17 -71q0 -41 20 -67t52.5 -41t73.5 -22t82 -10t78.5 -5t63.5 -7q60 -12 112 -37 t90 -63.5t60 -90.5t22 -118q0 -75 -27 -136t-74 -104t-110 -66t-134 -23q-26 0 -51.5 -0.5t-51.5 -0.5q-88 0 -168 9.5t-140.5 43t-96 98t-35.5 173.5zM347 -438l108 352h289l-213 -352h-184z" />
<glyph unicode="&#x21a;" horiz-adv-x="1313" d="M50 1272v183h1211v-183h-501v-1272h-214v1272h-496zM479 -438l108 352h289l-213 -352h-184z" />
<glyph unicode="&#x21b;" horiz-adv-x="683" d="M82 883v183h78l1 267h214l-1 -267h217v-183h-218l-1 -580q0 -42 9 -67t27 -37.5t45.5 -16t65.5 -3.5q25 1 49 1.5t49 1.5v-183h-134q-154 0 -239 75.5t-85 228.5v580h-77zM189 -438l108 352h289l-213 -352h-184z" />
<glyph unicode="&#x237;" horiz-adv-x="502" d="M-99 -184q50 0 94.5 -2t78 9.5t53 43.5t19.5 101l-3 1097h215l1 -1097q0 -78 -17 -133t-47.5 -92.5t-72.5 -59.5t-93 -33t-109 -14.5t-119 -3.5v184zM113 1306q0 30 11 53.5t30 40.5t43 26t50 9t50.5 -9t43.5 -25.5t30 -40.5t11 -54t-11.5 -53.5t-30 -40t-43 -25 t-50.5 -8.5q-25 0 -49.5 9t-43 25.5t-30 40t-11.5 52.5z" />
<glyph unicode="&#x2c6;" horiz-adv-x="792" d="M20 1235l300 384h143l300 -384h-217l-152 160l-148 -160h-226z" />
<glyph unicode="&#x2c7;" horiz-adv-x="837" d="M25 1631h230l151 -162l157 162h218l-305 -386l-143 1z" />
<glyph unicode="&#x2c9;" horiz-adv-x="876" d="M91 1211v175h754v-175h-754z" />
<glyph unicode="&#x2d8;" horiz-adv-x="865" d="M47 1549h217q0 -59 36 -91.5t102 -32.5t102 32.5t36 91.5h217q0 -55 -21 -110t-64.5 -99.5t-110.5 -72t-159 -27.5q-91 0 -158.5 27.5t-111 71.5t-64.5 99.5t-21 110.5z" />
<glyph unicode="&#x2d9;" horiz-adv-x="490" d="M93 1414q0 20 7 45t24.5 47.5t47 37.5t75.5 15q45 0 75 -15t47 -37.5t24 -47.5t7 -45t-7 -45t-24 -47.5t-47 -38t-75 -15.5q-46 0 -75.5 15.5t-47 38t-24.5 47.5t-7 45z" />
<glyph unicode="&#x2da;" horiz-adv-x="553" d="M1 1474q0 32 12 69t39 69t71.5 53.5t110.5 21.5q65 0 109.5 -21.5t72 -53.5t39.5 -69t12 -69t-11.5 -69.5t-39 -70t-72 -54t-110.5 -21.5t-111 21.5t-72 54t-38.5 70t-11.5 69.5zM159 1476q0 -34 19.5 -53.5t54.5 -19.5t54.5 19.5t19.5 53.5t-20 52.5t-54 18.5 q-35 0 -54.5 -18.5t-19.5 -52.5z" />
<glyph unicode="&#x2db;" horiz-adv-x="667" d="M124 -257q0 42 15.5 81.5t40 76t54.5 69t58 60.5h310q-15 -12 -40 -33t-54.5 -46t-59 -53.5t-54 -56t-39.5 -52t-15 -43.5q0 -12 11 -19.5t26 -11t30 -4.5t24 -1q30 0 59.5 3.5t58.5 6.5v-187q-29 -3 -59 -5t-59 -2q-49 0 -103 11.5t-99.5 37.5t-75 67.5t-29.5 100.5z " />
<glyph unicode="&#x2dc;" horiz-adv-x="887" d="M43 1235q15 53 38.5 96.5t57 74t78.5 47.5t103 17q50 0 91.5 -16.5t75 -36.5t59.5 -36.5t45 -16.5q17 0 30 13t22 31.5t15 38.5t9 33l182 -54q-16 -51 -37.5 -95.5t-53 -77.5t-75 -52t-102.5 -19q-49 0 -91.5 16.5t-76.5 37t-59.5 37t-40.5 16.5q-22 0 -37 -10.5 t-25 -26.5t-16 -35t-10 -36z" />
<glyph unicode="&#x2dd;" horiz-adv-x="1046" d="M48 1259l191 388h329l-313 -388h-207zM445 1259l191 388h328l-312 -388h-207z" />
<glyph unicode="&#x323;" horiz-adv-x="588" d="M127 -245q0 20 7 45t24.5 47.5t47 37.5t75.5 15q45 0 75 -15t47 -37.5t24 -47.5t7 -45t-7 -45t-24 -47.5t-47 -38t-75 -15.5q-46 0 -75.5 15.5t-47 38t-24.5 47.5t-7 45z" />
<glyph unicode="&#x326;" horiz-adv-x="742" d="M165 -375l108 352h289l-213 -352h-184z" />
<glyph unicode="&#x384;" horiz-adv-x="761" d="M181 1168l201 375h295l-292 -375h-204z" />
<glyph unicode="&#x386;" horiz-adv-x="1309" />
<glyph unicode="&#x387;" horiz-adv-x="549" />
<glyph unicode="&#x388;" horiz-adv-x="1313" />
<glyph unicode="&#x389;" horiz-adv-x="1692" />
<glyph unicode="&#x38a;" horiz-adv-x="950" />
<glyph unicode="&#x38c;" horiz-adv-x="1694" />
<glyph unicode="&#x38e;" horiz-adv-x="1477" />
<glyph unicode="&#x38f;" horiz-adv-x="845" d="M-156 1558l201 375h296l-293 -375h-204z" />
<glyph unicode="&#x390;" horiz-adv-x="709" />
<glyph unicode="&#x3a8;" horiz-adv-x="1647" />
<glyph unicode="&#x3a9;" horiz-adv-x="1684" d="M101 762q0 158 52.5 284.5t146 216t223.5 137.5t285 48q157 0 287.5 -46.5t224.5 -134t146 -214.5t52 -288q0 -176 -71 -330.5t-203 -270.5h274v-160h-594l22 141q84 59 153 124.5t119 141.5t77.5 165.5t27.5 196.5q0 115 -35.5 209.5t-101 162t-159 105t-209.5 37.5 t-212 -36t-165 -102.5t-107 -161.5t-38 -212q0 -102 27.5 -193.5t78 -170.5t120.5 -146t154 -120l21 -141h-595v159h274q-134 116 -204.5 269t-70.5 330z" />
<glyph unicode="&#x3aa;" horiz-adv-x="694" />
<glyph unicode="&#x3ab;" horiz-adv-x="1159" />
<glyph unicode="&#x3ac;" horiz-adv-x="1260" />
<glyph unicode="&#x3ad;" horiz-adv-x="989" />
<glyph unicode="&#x3ae;" horiz-adv-x="1266" />
<glyph unicode="&#x3af;" horiz-adv-x="709" />
<glyph unicode="&#x3b0;" horiz-adv-x="1255" />
<glyph unicode="&#x3bc;" horiz-adv-x="1099" d="M101 -441l3 1530h216l-2 -743q0 -40 17 -71t45 -51.5t63 -31t72 -10.5q31 0 64.5 7.5t65 21t59 34t46.5 45.5q9 12 16 25t15 27l-2 747h215l3 -1065h-215v58q-31 -21 -58.5 -36t-56 -25.5t-59.5 -15.5t-68 -5q-24 0 -54.5 4.5t-61.5 15t-59 27t-47 39.5l-1 -527h-216z " />
<glyph unicode="&#x3c0;" horiz-adv-x="1325" d="M58 761v184q67 48 136 65.5t150 17.5h820v-150h-214v-591q0 -17 2 -37t9 -37t20.5 -28.5t35.5 -11.5q14 0 30 4t32.5 9t32.5 11t29 10v-189q-30 -10 -62 -19.5t-64 -9.5q-69 0 -119 21.5t-82.5 60t-48 92.5t-15.5 119v596h-263v-582q0 -78 -8.5 -149t-28.5 -146h-201 q14 40 22.5 75.5t13 70.5t6.5 71t2 78v576q-34 -6 -64.5 -17t-58.5 -26t-55.5 -32.5t-56.5 -35.5z" />
<glyph unicode="&#x3c6;" horiz-adv-x="1485" />
<glyph unicode="&#x3c7;" horiz-adv-x="1159" d="M30 1064h258l294 -377l299 377h259l-429 -541l408 -523h-259l-279 358l-283 -357h-259l413 522z" />
<glyph unicode="&#x3c8;" horiz-adv-x="1559" />
<glyph unicode="&#x3c9;" horiz-adv-x="1602" />
<glyph unicode="&#x3ca;" horiz-adv-x="709" />
<glyph unicode="&#x3cb;" horiz-adv-x="1255" />
<glyph unicode="&#x3cc;" horiz-adv-x="1239" />
<glyph unicode="&#x3cd;" horiz-adv-x="1255" />
<glyph unicode="&#x3ce;" horiz-adv-x="1602" />
<glyph unicode="&#x1000;" horiz-adv-x="1905" d="M85 514q0 110 33 204t95.5 162.5t152.5 107.5t203 39q112 0 210.5 -42t168.5 -133q69 90 169 132.5t212 42.5q113 0 203.5 -39t154.5 -107.5t98.5 -162.5t34.5 -204t-33.5 -204t-96 -163t-152.5 -108t-203 -39q-43 0 -85 7t-84 16l42 171q31 -7 62.5 -13t64.5 -6 q73 0 126 28.5t87 75.5t50 108t16 127t-17 127t-52.5 108t-89 75t-126.5 28q-61 0 -112 -24.5t-87.5 -65.5t-56.5 -94.5t-20 -112.5v-20v-21q0 -173 -71 -300t-229 -204l-79 165q94 55 134.5 141.5t40.5 192.5q0 64 -17 125.5t-51.5 110t-87.5 78t-124 29.5 q-73 0 -125.5 -28.5t-86.5 -75.5t-50.5 -108t-16.5 -126q0 -51 8.5 -101t28.5 -94.5t53 -81t81 -62.5l-72 -168q-160 75 -232 204t-72 303z" />
<glyph unicode="&#x1001;" horiz-adv-x="1119" d="M85 668q26 83 68 149t100.5 112t133 70.5t164.5 24.5q114 0 203.5 -39t151.5 -107.5t95 -162t33 -203.5q0 -109 -33 -203t-95 -163t-152 -108t-203 -39q-133 0 -232.5 52t-172.5 163q-18 27 -33.5 57.5t-15.5 64.5q0 33 22 63q27 38 68.5 66t90.5 46t102 27t103 9 q45 0 92.5 -10.5t92 -30.5t84 -48t67.5 -64q4 12 6.5 22t4 20.5t2.5 23.5t1 32q0 66 -15.5 131t-49 116t-87 83t-130.5 32q-59 0 -103.5 -17.5t-77 -49t-55 -74.5t-37.5 -94zM308 323q35 -74 98 -113.5t145 -39.5q55 0 105.5 19t88.5 60q-19 34 -47.5 58.5t-62 40.5t-71 24 t-75.5 8q-48 0 -95.5 -13t-85.5 -44z" />
<glyph unicode="&#x1002;" horiz-adv-x="1136" d="M85 507q0 110 32.5 204.5t94.5 164.5t151.5 109.5t204.5 39.5q114 0 204 -39.5t152 -109t94.5 -164.5t32.5 -205q0 -100 -25 -182.5t-69.5 -146.5t-106.5 -109t-136 -69l-72 162q58 25 97.5 59t64 77.5t35.5 95.5t11 113q0 66 -16 129t-50.5 111.5t-87.5 78t-128 29.5 q-74 0 -127.5 -30t-87.5 -78.5t-50 -111t-16 -128.5q0 -59 10.5 -110.5t34.5 -95t62.5 -78.5t94.5 -60l-79 -158q-84 38 -145.5 86.5t-101 110t-59 137t-19.5 168.5z" />
<glyph unicode="&#x1003;" horiz-adv-x="1898" d="M85 499q0 47 20.5 81t51.5 60.5t67.5 46.5t67.5 38.5t51.5 37.5t20.5 42q0 15 -8 28t-24 20q-18 0 -32.5 -7.5t-25.5 -20t-17 -28.5t-7 -33l-165 79q18 38 42.5 71t55.5 57.5t68.5 38.5t81.5 14q46 0 87.5 -16.5t73.5 -46t51 -69.5t19 -87q0 -49 -20.5 -86.5t-51.5 -66.5 t-66.5 -51t-66.5 -40t-51.5 -33.5t-20.5 -31.5q0 -64 18 -123t53.5 -104t88 -72t121.5 -27q74 0 127 28.5t88 76.5t51.5 109.5t16.5 127.5t-11.5 119t-37 96t-66 78t-99.5 64l90 155q159 -59 242 -190t83 -322q0 -15 -1.5 -30.5t-1.5 -31.5q0 -20 5.5 -39.5t12.5 -39.5 q33 -96 96 -148.5t166 -52.5q74 0 127 29t87 76.5t50.5 109t16.5 127.5q0 65 -16.5 126.5t-51 109.5t-87.5 77.5t-126 29.5q-32 0 -63.5 -7t-63.5 -15l-37 170q41 9 81.5 15.5t82.5 6.5q114 0 203.5 -39t152 -107.5t95.5 -162.5t33 -204q0 -109 -33 -203t-95.5 -162.5 t-152.5 -107.5t-203 -39t-211.5 43t-169.5 134q-70 -91 -168.5 -134t-211.5 -43q-109 0 -198 38t-152.5 104.5t-98 158t-34.5 198.5z" />
<glyph unicode="&#x1004;" horiz-adv-x="1121" d="M85 513q0 110 33 204t95 162.5t151.5 107t203.5 38.5q89 0 165.5 -25t137 -72t103 -114t62.5 -152l-194 -52q-13 53 -34.5 98t-54.5 77.5t-78.5 51t-106.5 18.5q-73 0 -126.5 -29t-88 -76.5t-51 -109t-16.5 -127.5t16.5 -128t51 -110t88 -77t126.5 -29q60 0 104 18 t76.5 50t55 75t38.5 93l191 -51q-22 -82 -64.5 -148t-102 -112t-134.5 -70.5t-164 -24.5q-114 0 -203.5 39t-152 108t-95 163t-32.5 204z" />
<glyph unicode="&#x1005;" horiz-adv-x="1141" d="M85 514q0 110 33 204t95.5 163t152.5 108t204 39t204 -39t152.5 -107.5t96 -162.5t33.5 -205q0 -110 -33.5 -204t-96.5 -163t-153 -108.5t-203 -39.5q-114 0 -204.5 39t-152.5 108t-95 163.5t-33 204.5zM275 501q0 -63 19 -121.5t57 -107.5q33 53 49 113.5t16 123.5 q0 60 -16 120.5t-54 108.5q-38 -54 -54.5 -113t-16.5 -124zM470 187q24 -9 49 -13t51 -4q74 0 127.5 29t88.5 77t51.5 110t16.5 128t-17 128t-51.5 110t-88 76.5t-127.5 28.5q-26 0 -51 -4t-49 -13q51 -70 81.5 -153.5t30.5 -171.5q0 -89 -30.5 -173t-81.5 -155z" />
<glyph unicode="&#x1006;" horiz-adv-x="1899" d="M85 647q29 90 70 160.5t98 119t133 74.5t174 26q112 0 213 -44.5t170 -134.5q35 45 78 79t92.5 57t104 34.5t110.5 11.5q114 0 204 -39t153 -108t96 -163.5t33 -205.5q0 -109 -33.5 -203.5t-96.5 -163.5t-153 -108.5t-203 -39.5q-116 0 -215 44t-170 138 q-69 -93 -169 -137.5t-214 -44.5q-157 0 -274.5 78.5t-176.5 224.5q-7 17 -7 36q0 18 6 32t17 28q32 41 75.5 70.5t93 48t102 27t102.5 8.5q92 0 180 -26t159 -86q2 13 3.5 25t1.5 24q0 69 -14 134.5t-47 117.5t-87 83.5t-134 31.5q-66 0 -114 -23t-82 -62t-56 -90.5 t-36 -108.5zM316 323q38 -75 99 -114t145 -39q54 0 105 19.5t89 59.5q-20 35 -48 60t-61.5 41t-70.5 23.5t-76 7.5q-48 0 -97.5 -11t-84.5 -47zM1044 538q0 -69 14.5 -135t47.5 -118t87.5 -83.5t134.5 -31.5q74 0 127.5 29t88 77t51.5 110t17 128q0 67 -16.5 129t-51.5 110 t-88.5 76.5t-127.5 28.5q-68 0 -121 -26t-89 -70t-55 -102t-19 -122z" />
<glyph unicode="&#x1007;" horiz-adv-x="1198" d="M85 514q0 110 33 204t95.5 162.5t152 107.5t203.5 39q93 0 179 -31.5t151.5 -88.5t104.5 -137.5t39 -178.5q0 -20 -3.5 -38t-6.5 -38q-2 -9 -3 -18.5t-1 -18.5q0 -16 16 -24.5t29 -8.5q10 0 19.5 3t17.5 8l2 -177q-17 -2 -33.5 -3.5t-33.5 -1.5q-59 0 -107.5 21t-80.5 73 q-24 -3 -46 -3q-51 0 -93.5 16t-73.5 45.5t-48 71t-17 93.5q0 37 10.5 71t30 62.5t47.5 50t64 31.5q-35 26 -77 38.5t-86 12.5q-73 0 -126.5 -29t-88 -76.5t-51 -109.5t-16.5 -128t16.5 -128t51 -110t87.5 -77t127 -29q60 0 107 20t85 58l140 -123q-69 -62 -152 -94 t-180 -32q-114 0 -204 39.5t-152 108.5t-95 163t-33 204zM688 587q0 -40 22 -67.5t64 -27.5t63.5 28t21.5 67q0 40 -21.5 67.5t-63.5 27.5t-64 -27.5t-22 -67.5z" />
<glyph unicode="&#x1008;" horiz-adv-x="1490" d="M111 493q0 113 34 209t98 166.5t156 110t208 39.5q117 0 208.5 -40t155.5 -110t97.5 -166t33.5 -209q0 -53 -8 -106t-25 -102.5t-44.5 -95t-65.5 -84.5v-514l189 -103v1504l175 3v-1736h-160l-402 246v483q-37 -11 -76 -16t-78 -5q-117 0 -209 40t-155.5 110.5 t-97.5 166.5t-34 209zM305 495q0 -61 19 -119.5t57 -106.5q32 52 48 111.5t16 121.5q0 60 -16 119.5t-53 108.5q-38 -52 -54.5 -112t-16.5 -123zM466 174q32 -18 68 -26.5t73 -8.5q76 0 131 29.5t91 79t53 113.5t17 132q0 69 -17 132.5t-53 112t-91 78t-131 29.5 q-37 0 -73 -8t-68 -27q63 -63 92.5 -146t29.5 -171q0 -87 -30 -171.5t-92 -147.5z" />
<glyph unicode="&#x1009;" horiz-adv-x="1118" d="M85 652q24 87 65 156t99.5 117t134 73.5t167.5 25.5q112 0 200.5 -38.5t150 -106.5t94.5 -161t33 -201t-33 -201t-94.5 -161t-150 -106.5t-200.5 -38.5q-68 0 -133.5 17t-123.5 52v-568q0 -22 2 -38t9 -26t21.5 -14.5t38.5 -4.5h1072q38 0 53.5 13t19.5 33.5t0.5 46.5 t-3.5 52h201v-62q0 -65 -19 -112.5t-54 -78.5t-85.5 -46t-112.5 -15h-1072q-62 0 -112 15t-85 46t-54 78.5t-19 112.5v824l181 48q0 -26 19.5 -61t56 -67t87.5 -54t112 -22q73 0 125.5 28.5t86.5 75.5t50.5 108t16.5 126q0 66 -16.5 127t-50.5 108t-86.5 75t-125.5 28 q-61 0 -106.5 -19.5t-78 -53.5t-54.5 -80.5t-37 -100.5z" />
<glyph unicode="&#x100a;" horiz-adv-x="1873" d="M74 650q24 87 65.5 156.5t101 117.5t135.5 73.5t169 25.5q134 0 225.5 -44.5t147.5 -122t80.5 -182.5t24.5 -226q0 -58 22.5 -108.5t61.5 -88t90.5 -58.5t109.5 -21q73 0 126 28.5t87 76t50.5 108.5t16.5 127t-16.5 127t-50.5 108.5t-87 76t-126 28.5q-32 0 -64.5 -7 t-64.5 -13l-38 169q41 8 82.5 14.5t84.5 6.5q113 0 202 -38.5t151 -107t95 -161.5t33 -203q0 -109 -33 -202.5t-95 -161.5t-151 -107t-202 -39q-55 0 -109.5 10t-104.5 31t-93.5 53.5t-78.5 77.5q-69 -88 -167 -130.5t-209 -42.5q-69 0 -134.5 16.5t-124.5 51.5v-563 q0 -23 1.5 -39t8.5 -26t21.5 -14t40.5 -4h1110q33 0 50 13t24 34t7.5 46.5t-1.5 51.5l200 -2v-60q0 -66 -21.5 -114t-59.5 -79t-90.5 -46t-114.5 -15h-1104q-63 0 -113.5 15t-86 46.5t-54.5 79t-19 113.5v808l182 51q11 -37 32.5 -72t55 -62t80.5 -43.5t110 -16.5 q73 0 126 29t87.5 76.5t51 109t16.5 127.5q0 64 -18 125.5t-53.5 110t-88.5 78t-124 29.5q-62 0 -107 -20.5t-77 -55.5t-54 -82.5t-37 -100.5z" />
<glyph unicode="&#x100b;" horiz-adv-x="1118" d="M85 517q0 109 32.5 202t94.5 161t151 106.5t201 38.5q90 0 166.5 -25.5t136.5 -73.5t102 -117t63 -156l-191 -54q-15 55 -36.5 101.5t-54.5 81t-78.5 54t-107.5 19.5q-73 0 -125.5 -28.5t-86.5 -75.5t-50.5 -108t-16.5 -126t16.5 -126t50.5 -108.5t86.5 -76t125.5 -28.5 q45 0 86.5 14t75.5 39t58.5 61t36.5 79l202 -85v-325q-100 -70 -214.5 -106t-236.5 -36q-57 0 -114 8t-111 25v-55q53 -16 106.5 -23t107.5 -7q97 0 191 22t184 57l87 -62v-348h186v-170h-388v392q-128 -29 -259 -29q-109 0 -213.5 22.5t-202.5 69.5v325l32 27 q88 -62 192 -90t210 -28q63 0 124 14t117 43v64q-58 -35 -123.5 -51.5t-133.5 -16.5q-112 0 -201 39t-150.5 107t-94.5 161.5t-33 201.5z" />
<glyph unicode="&#x100c;" horiz-adv-x="1123" d="M85 513q0 110 32.5 203.5t94.5 161.5t151.5 107t203.5 39q92 0 168 -26t135 -74t101 -117.5t66 -156.5l-192 -53q-16 55 -38 102t-54.5 81.5t-78 54t-107.5 19.5q-73 0 -126.5 -28.5t-87.5 -76t-50.5 -109t-16.5 -127.5t16.5 -127.5t50.5 -109t87.5 -76t126.5 -28.5 q62 0 106.5 13t75.5 37.5t50.5 60t30.5 79.5l198 -54v-755q0 -76 -22 -132t-63 -92.5t-99.5 -54t-131.5 -17.5h-321q-66 0 -119 16t-90.5 49t-58 83.5t-20.5 119.5q0 79 24 131t67.5 82.5t103 42.5t129.5 12q56 0 116 -5.5t110 -27t82.5 -64t32.5 -116.5v-42h-202 q0 11 0.5 23t0.5 23q-12 28 -28 34t-42 6h-42h-44q-29 0 -49.5 -2.5t-33 -12t-18 -28t-5.5 -51.5q0 -27 2 -46.5t10.5 -32t25.5 -18.5t48 -6h321q36 0 58.5 7t35 22t17 39t4.5 58v517q-59 -35 -125 -52t-135 -17q-113 0 -202.5 39t-151.5 108t-95 162.5t-33 202.5z" />
<glyph unicode="&#x100d;" horiz-adv-x="1136" d="M85 647q25 88 66.5 158t100.5 118.5t135.5 74t169.5 25.5q114 0 204 -39t152.5 -108t95.5 -163t33 -204t-33 -204t-95.5 -163t-152.5 -108.5t-204 -39.5q-68 0 -134.5 17t-125.5 54v-147q62 -31 129.5 -45t136.5 -14q52 0 95.5 4t80 14.5t68 28t59.5 45.5l115 -48v-471 h205v-170h-408v459q-55 -19 -112.5 -26.5t-115.5 -7.5q-120 0 -239 35.5t-216 107.5v489l183 51q5 -39 25.5 -75.5t56 -65t85.5 -46t112 -17.5q74 0 128 28.5t88.5 76.5t51 110t16.5 128q0 67 -16.5 129t-51 109.5t-88.5 76t-128 28.5q-64 0 -109.5 -19.5t-78.5 -54 t-54.5 -81.5t-37.5 -103z" />
<glyph unicode="&#x100e;" horiz-adv-x="1146" d="M85 504q0 43 20.5 78t50.5 64.5t66 54t66 45t50.5 38.5t20.5 34q0 10 -6.5 18t-15.5 13q-9 3 -18 3q-14 0 -28 -6t-24.5 -16.5t-16 -24.5t-2.5 -29l-152 76q36 77 93.5 123t146.5 46q42 0 82.5 -15t71.5 -42t50 -64.5t19 -81.5q0 -46 -20 -82t-50.5 -65.5t-65.5 -52.5 t-65.5 -43t-50.5 -38t-20 -37q0 -64 18.5 -123.5t54.5 -105.5t89.5 -73t122.5 -27q75 0 129 29t89.5 77t52 110.5t16.5 129.5q0 65 -11 117t-35 95t-62 78t-92 64l85 155q81 -38 141 -87t99 -111t58 -139t19 -172q0 -110 -33.5 -204.5t-96.5 -164t-154 -109t-205 -39.5 q-109 0 -199 38.5t-154 106t-99 159.5t-35 200z" />
<glyph unicode="&#x100f;" horiz-adv-x="2188" d="M85 512q0 110 33 203.5t95.5 162t152 107.5t202.5 39q82 0 160.5 -24t143.5 -75q40 54 100.5 79t126.5 25q64 0 123 -24t98 -77q64 50 142 73t158 23q113 0 202.5 -39t152 -108t95.5 -162.5t33 -202.5t-33.5 -202.5t-96 -162.5t-152 -108t-201.5 -39q-29 0 -56.5 3 t-56.5 8l33 169q20 -5 40 -7.5t40 -2.5q74 0 127 28.5t87.5 76.5t51 109.5t16.5 127.5t-16.5 127.5t-51 109t-87.5 76t-127 28.5q-75 0 -128.5 -29.5t-87.5 -78.5t-50 -112t-16 -129q0 -37 4 -73t9.5 -72.5t9.5 -72.5t4 -73q0 -54 -23.5 -94t-61.5 -67t-85 -40.5t-95 -13.5 q-131 0 -198.5 60.5t-67.5 194.5q0 67 8.5 133.5t8.5 133.5q0 65 -17.5 125t-53 106.5t-88.5 74t-124 27.5q-73 0 -126 -28.5t-87.5 -76t-51 -109t-16.5 -127.5t16.5 -127.5t51 -109t87.5 -76.5t126 -29q40 0 84 11l36 -170q-29 -4 -59.5 -7.5t-60.5 -3.5q-113 0 -202.5 39 t-152 107.5t-95.5 162.5t-33 203zM1027 274q0 -19 2.5 -38.5t10 -35t22 -25t38.5 -9.5q22 0 35.5 7.5t20.5 20t9 29t2 34.5q0 29 -4 57t-9 56.5t-9 56.5t-4 57q0 39 4 78.5t8.5 78.5t8 78.5t3.5 78.5q0 29 -18.5 45.5t-47.5 16.5q-30 0 -51 -18t-21 -50q0 -78 9.5 -153.5 t9.5 -153.5q0 -54 -9.5 -105.5t-9.5 -105.5z" />
<glyph unicode="&#x1010;" horiz-adv-x="1915" d="M85 516q0 111 33.5 205.5t96 164t153 108.5t204.5 39t215 -44.5t171 -136.5q70 93 170 136.5t214 43.5t204.5 -39t153.5 -108t96.5 -163.5t33.5 -205.5q0 -110 -33.5 -204.5t-96.5 -163.5t-153.5 -108.5t-204.5 -39.5q-54 0 -106 10t-104 23l37 172q43 -12 86 -22.5 t87 -10.5q74 0 128 29t89 77t51.5 110t16.5 128q0 67 -16.5 129t-51.5 110t-89 76.5t-128 28.5q-75 0 -128 -28.5t-87 -76.5t-50 -110t-16 -129q0 -108 -33 -202.5t-95.5 -164t-153.5 -110t-207 -40.5q-114 0 -204.5 39.5t-153 109t-96 164t-33.5 204.5zM288 516 q0 -66 16.5 -128t51.5 -110.5t88.5 -77.5t127.5 -29q71 0 124 27.5t88.5 74t53.5 106.5t18 124v38q0 64 -19 122t-55 102t-89 70t-121 26q-74 0 -127.5 -29t-88.5 -77t-51.5 -110.5t-16.5 -128.5z" />
<glyph unicode="&#x1011;" horiz-adv-x="1901" d="M85 512q0 109 32.5 202.5t95 162.5t152 108t203.5 39q115 0 213.5 -44t168.5 -136q69 92 168.5 136t214.5 44q113 0 203 -39t152 -108t95 -162.5t33 -202.5t-33 -203t-95 -163t-152 -108t-203 -39q-115 0 -214.5 44t-168.5 137q-70 -93 -168.5 -137t-213.5 -44 q-114 0 -203.5 39t-151.5 108t-95 163t-33 203zM287 512q0 -66 16.5 -127.5t50.5 -109.5t87.5 -76.5t126.5 -28.5q74 0 127 28.5t87 76.5t50.5 109.5t16.5 127.5t-16.5 127.5t-50.5 109t-87 76t-127 28.5t-127 -28.5t-87.5 -76t-50.5 -109t-16 -127.5zM1051 512 q0 -66 16.5 -127.5t51 -109.5t87.5 -76.5t127 -28.5q73 0 126 29t87.5 76.5t51 109t16.5 127.5t-16 127.5t-50.5 109t-87.5 76t-127 28.5t-127 -28.5t-87.5 -76t-51 -109t-16.5 -127.5z" />
<glyph unicode="&#x1012;" horiz-adv-x="1104" d="M85 374l194 54q15 -56 36.5 -103t54 -81.5t78.5 -54t109 -19.5q73 0 130.5 31t96.5 94q-25 7 -57.5 16.5t-66 22.5t-66 30.5t-58 39t-41 48.5t-15.5 60q0 51 33 87t80.5 61t100 42t90.5 29q-39 63 -96 93t-131 30q-64 0 -109.5 -19t-78 -53.5t-54.5 -81.5t-37 -103 l-193 53q25 88 67 157.5t101 118t135 74t169 25.5q71 0 136 -16.5t120.5 -49t101 -81.5t76.5 -114q9 -19 18.5 -42t9.5 -45t-19.5 -40t-50.5 -33t-68.5 -27.5t-73.5 -23.5t-66.5 -21t-46.5 -20q17 -9 47 -19t66.5 -20.5t74 -23t68 -27.5t50 -33.5t19.5 -40.5 q0 -20 -10 -44.5t-18 -42.5q-30 -64 -75.5 -113t-102 -82t-121.5 -50t-135 -17q-94 0 -169.5 26.5t-133.5 75t-100 118t-69 155.5z" />
<glyph unicode="&#x1013;" horiz-adv-x="1138" d="M85 512q0 110 33 203.5t95.5 162.5t152 108t202.5 39t203 -39t152.5 -107.5t96 -162.5t33.5 -204t-33.5 -204t-96 -162.5t-152.5 -107.5t-203 -39t-202.5 39t-152 108t-95.5 163t-33 203zM287 512q0 -23 2 -46.5t5 -46.5q61 40 131.5 58.5t142.5 18.5t142.5 -18.5 t131.5 -59.5q10 44 10 94q0 66 -16.5 128t-51.5 109.5t-88.5 76t-127.5 28.5q-73 0 -126.5 -29t-87.5 -76.5t-50.5 -109t-16.5 -127.5zM376 247q38 -39 88 -58t104 -19t104 19t88 58q-38 40 -87.5 59t-104.5 19t-104 -19t-88 -59z" />
<glyph unicode="&#x1014;" horiz-adv-x="1155" d="M85 294q0 56 23 99t60.5 72.5t85.5 45t99 15.5h116q74 0 125 -18.5t82.5 -53t45.5 -84.5t14 -113q0 -20 -0.5 -38.5t-0.5 -38.5q64 4 100 44.5t36 105.5q0 73 -28 116.5t-73.5 68.5t-104 37t-119 20.5t-119 19.5t-104 34t-73.5 63.5t-28 108.5q0 56 20 98t54.5 70.5 t81 43t98.5 14.5h175q65 0 113 -17.5t79.5 -49t47 -75t13.5 -96.5h-200v27.5t-4.5 21.5t-15.5 14t-33 5h-175q-31 0 -42 -13t-11 -43q0 -19 21 -32t54 -22t73 -14.5t78 -9.5t69.5 -7t46.5 -7q68 -18 124.5 -52.5t96.5 -83.5t62 -110.5t22 -132.5q0 -75 -26.5 -132.5t-72 -98 t-106.5 -62.5t-130 -26v-752h-201v752h-135q-64 0 -121 19.5t-100 56.5t-68 90t-25 120zM286 279q0 -49 31 -75t82 -26h135v102q0 25 -4 39.5t-14 22.5t-26 10.5t-40 2.5h-78h-19q-17 0 -29.5 -8t-21 -20t-12.5 -25t-4 -23z" />
<glyph unicode="&#x1015;" horiz-adv-x="1132" d="M85 519q0 199 80 322.5t231 179.5l81 -162q-102 -52 -147.5 -133.5t-45.5 -206.5q0 -66 16 -129t50.5 -112t87.5 -79t128 -30q74 0 127.5 30t88 79t50.5 112t16 129q0 63 -11.5 115t-36 94t-62.5 75t-91 59l76 163q158 -54 241 -179t83 -327q0 -109 -32.5 -204t-94 -165 t-151 -110t-203.5 -40t-203.5 40t-151 110t-94 165t-32.5 204z" />
<glyph unicode="&#x1016;" horiz-adv-x="1148" d="M85 528q0 57 12.5 127.5t44 139t86.5 128t140 93.5l97 -182q-49 -23 -83 -56t-55 -73t-30.5 -85t-9.5 -92q0 -63 15.5 -126.5t49.5 -114.5t88.5 -83t133.5 -32q47 0 85.5 12t69.5 33.5t54 51.5t39 65q-82 13 -135 52t-84 90t-43 107t-12 102q0 64 12.5 114t38.5 90.5 t66.5 73.5t97.5 62q159 -79 229.5 -200t70.5 -297q0 -109 -32 -205t-94 -168t-153 -113.5t-210 -41.5q-118 0 -209.5 41.5t-153.5 113.5t-94 168t-32 205zM686.5 679.5q1.5 -40.5 15 -79t36 -68t54 -47.5t68.5 -19q6 43 5 91t-14 96.5t-40.5 94.5t-74.5 86q-27 -34 -39 -74 t-10.5 -80.5z" />
<glyph unicode="&#x1017;" horiz-adv-x="1129" d="M85 516q0 96 18.5 172t57.5 136t100.5 107t148.5 86q-2 -32 7 -66t28.5 -62.5t49 -46.5t68.5 -18q40 0 68 19.5t46 49t26 65t8 67.5q20 -9 33.5 -18t33.5 -19q69 -33 119 -83t83 -112t48.5 -132.5t15.5 -144.5q0 -108 -32.5 -202.5t-94.5 -164t-151 -109.5t-202 -40 q-114 0 -203 40t-150.5 109.5t-93.5 163.5t-32 203zM284 516q0 -64 16 -126.5t50.5 -111.5t87.5 -79t126 -30q74 0 127 30t87 78.5t50.5 111t16.5 127.5q0 58 -13 115t-42 108q-46 -42 -106 -62.5t-122 -20.5t-121 20t-105 62q-29 -51 -40.5 -108t-11.5 -114z" />
<glyph unicode="&#x1018;" horiz-adv-x="1896" d="M85 386l194 49q15 -55 35.5 -103.5t53 -84.5t79 -56.5t113.5 -20.5q74 0 127.5 28.5t88 76.5t51 110t16.5 128t-16.5 128t-51 110t-88 77t-127.5 29q-68 0 -115 -22t-79.5 -59.5t-53 -88t-35.5 -106.5l-192 53q26 90 65.5 162.5t96.5 124t134 79.5t179 28 q114 0 214.5 -44t169.5 -137q69 93 168.5 136.5t214.5 43.5q113 0 203 -39t152.5 -108t95.5 -163t33 -203t-33 -203t-95.5 -163t-152.5 -108.5t-203 -39.5q-27 0 -47 1t-38 3t-37.5 6.5l-45.5 10.5l37 171q21 -6 36 -10t28.5 -6.5t29 -3.5t37.5 -1q74 0 127 29t87 76.5 t50.5 109.5t16.5 128t-16.5 127.5t-50.5 109t-87 76.5t-127 29q-97 0 -161 -48.5t-96 -139.5q-8 -25 -17 -57t-9 -59q0 -69 -7 -131.5t-32 -128.5q-27 -72 -71.5 -127t-102.5 -91.5t-126.5 -55.5t-144.5 -19q-103 0 -180 27.5t-133.5 78t-95.5 122t-66 159.5z" />
<glyph unicode="&#x1019;" horiz-adv-x="1134" d="M85 520q0 154 62 276t201 196l20 10t15.5 7.5t15.5 7t21 9.5l78 -159q-9 -4 -14.5 -6.5t-9.5 -4.5t-9.5 -4.5t-14.5 -7.5q-46 -25 -77.5 -60t-50.5 -77t-27.5 -89.5t-8.5 -97.5q0 -23 2 -47t5 -48q61 42 131.5 60.5t143.5 18.5q72 0 141.5 -18t129.5 -60q9 47 9 94 q0 51 -8.5 98.5t-28 89t-51 76t-78.5 60.5q-9 5 -14 7.5t-9.5 4t-9.5 4t-14 6.5l78 159q13 -6 21 -9.5t15 -6.5t15 -7t21 -10q70 -36 120 -86t82 -110t47 -129.5t15 -146.5q0 -109 -32.5 -204t-94 -165.5t-151.5 -110.5t-204 -40q-115 0 -205 40t-151.5 110t-93.5 165 t-32 205zM372 253q38 -43 88 -63t107 -20t106.5 20t87.5 63q-38 40 -88.5 60.5t-104.5 20.5q-56 0 -107 -19.5t-89 -61.5z" />
<glyph unicode="&#x101a;" horiz-adv-x="1903" d="M85 512q0 177 77.5 309t242.5 205l81 -159q-57 -27 -95 -63.5t-61.5 -81.5t-33 -97.5t-9.5 -112.5q0 -66 16.5 -127.5t51 -109t87.5 -76.5t126 -29q74 0 127.5 28.5t88 76.5t51 109.5t16.5 127.5q0 63 -11 117.5t-36 100t-66 81.5t-101 62l83 157q95 -42 156.5 -90.5 t98 -110t54 -139t24.5 -177.5q5 -64 20 -126t46.5 -110t83.5 -77.5t131 -29.5q74 0 127 28.5t88 76.5t51.5 109.5t16.5 127.5t-16.5 128t-51 110t-88 76.5t-127.5 28.5q-22 0 -36 -0.5t-25.5 -2.5t-24.5 -5.5t-34 -9.5l-37 170q26 6 43.5 9.5t34 6t35 3t44.5 0.5 q114 0 203.5 -39t152 -108t95.5 -163t33 -204q0 -109 -33 -203t-95.5 -162.5t-152.5 -107.5t-203 -39q-114 0 -214 44t-169 137q-69 -92 -169 -136.5t-214 -44.5q-113 0 -202.5 39t-152 107.5t-95.5 162.5t-33 203z" />
<glyph unicode="&#x101b;" horiz-adv-x="1103" d="M67 513q0 110 32.5 203.5t94.5 161.5t151.5 107t202.5 39q156 0 270 -75.5t176 -217.5q11 -24 18 -48.5t7 -50.5v-1216h144v-170h-201q-27 0 -53 9t-46 25.5t-32 40t-12 52.5v1250q0 14 -6.5 30.5t-12.5 28.5q-20 41 -44 73t-54 54t-68 33t-86 11q-62 0 -111 -22 t-83.5 -59.5t-55.5 -88.5t-28 -109q82 -13 148.5 -49.5t113.5 -91.5t72.5 -126t25.5 -154q0 -21 -2 -47t-10 -49.5t-24.5 -39t-45.5 -15.5q-113 0 -202.5 39t-151.5 107t-94.5 162t-32.5 203zM278 418q8 -30 25.5 -65t40.5 -67.5t51 -59t57 -40.5q5 34 -5.5 72t-33.5 71 t-57.5 57.5t-77.5 31.5z" />
<glyph unicode="&#x101c;" horiz-adv-x="1904" d="M85 512q0 110 33 204t95.5 162.5t152 107.5t202.5 39q117 0 207 -39.5t151.5 -109t93.5 -163t32 -201.5q0 -66 16.5 -127.5t51.5 -109.5t88.5 -76.5t126.5 -28.5q74 0 127 28.5t87.5 76t51 109.5t16.5 128t-16.5 128t-51 109.5t-87.5 76t-127 28.5q-22 0 -38.5 -2 t-32.5 -5t-32 -7.5t-37 -9.5l-39 169q26 6 47 11t41.5 8t42 5t48.5 2q113 0 203 -39t152.5 -107.5t95.5 -162.5t33 -204q0 -109 -33.5 -203t-96 -163t-152 -108t-202.5 -39q-114 0 -203.5 39t-152 107.5t-95 162t-32.5 203.5q0 66 -16.5 128t-51.5 110t-88.5 76.5 t-127.5 28.5q-73 0 -126.5 -28.5t-88 -76.5t-51 -109.5t-16.5 -127.5t16 -125t49.5 -104t86.5 -71t126 -26q44 0 69.5 6t45.5 12l42 -185q-26 -6 -43 -10t-32.5 -6.5t-33 -3t-44.5 -0.5q-113 0 -202.5 39t-152 108t-95.5 163t-33 203z" />
<glyph unicode="&#x101d;" horiz-adv-x="1147" d="M85 517q0 111 33.5 205.5t96.5 163.5t153.5 108.5t204.5 39.5t205 -39t154 -108.5t96.5 -164t33.5 -205.5t-33.5 -205.5t-96.5 -164t-154 -109t-205 -39.5t-204.5 39.5t-153.5 109t-96.5 164t-33.5 205.5zM288 517q0 -66 17 -128.5t52 -111t88.5 -77.5t127.5 -29 t127.5 29t88.5 77.5t52 111t17 128.5q0 67 -16.5 129t-51.5 110t-89 77t-128 29t-128 -29t-89 -77t-51.5 -110t-16.5 -129z" />
<glyph unicode="&#x101e;" horiz-adv-x="1894" d="M85 671q49 177 165 268t304 91q116 0 206.5 -40t152.5 -109.5t94.5 -163.5t32.5 -202q0 -66 16 -128t50.5 -110t88 -77t127.5 -29t127.5 29t88 76.5t51 109.5t16.5 128t-16.5 128t-51.5 110t-88 77t-127 29q-22 0 -39.5 -1.5t-34 -4.5t-33.5 -7.5t-38 -10.5l-37 171 q26 6 48 10.5t43 7.5t43 4.5t48 1.5q113 0 203.5 -39.5t153.5 -108.5t96.5 -163t33.5 -204q0 -109 -33.5 -203t-96.5 -163t-153 -108.5t-204 -39.5t-214 44t-170 136q-70 -93 -169.5 -137t-214.5 -44q-186 0 -300.5 84.5t-163.5 260.5l193 54q14 -54 35 -96.5t53 -72 t77 -44.5t106 -15q74 0 127.5 29t88.5 77t51.5 110.5t16.5 128.5q0 67 -16.5 129t-51 110t-88.5 76.5t-128 28.5q-60 0 -105.5 -17.5t-79.5 -49.5t-56 -76t-35 -98z" />
<glyph unicode="&#x101f;" horiz-adv-x="1908" d="M85 524q0 104 18.5 188t58.5 148t103.5 108t153.5 67l79 -161q-60 -19 -100.5 -50t-64.5 -74.5t-34.5 -100t-10.5 -125.5q0 -66 16 -129t50.5 -112.5t87.5 -80t128 -30.5t128.5 30.5t88 80t51 112.5t16.5 129q0 73 -13.5 130t-40.5 100.5t-66.5 74.5t-91.5 52l79 159 q39 -16 71.5 -33.5t61.5 -39t54.5 -48t50.5 -61.5q70 87 169.5 129.5t209.5 42.5q114 0 204 -39t152.5 -108t95.5 -163.5t33 -204.5t-33 -204t-95.5 -163t-152.5 -108.5t-204 -39.5q-27 0 -48 1t-41 4t-40.5 7.5t-46.5 10.5l37 172q21 -6 37.5 -10.5t31.5 -7t31.5 -4 t38.5 -1.5q74 0 127 29t87.5 77t51 109.5t16.5 127.5t-16.5 127.5t-51 109.5t-88 77t-126.5 29t-126 -27.5t-87.5 -73.5t-51 -106.5t-16.5 -126.5q0 -108 -32.5 -203.5t-94.5 -166.5t-152.5 -112.5t-207.5 -41.5q-115 0 -205.5 40.5t-152.5 111t-94.5 166t-32.5 206.5z" />
<glyph unicode="&#x1020;" horiz-adv-x="1130" d="M85 511q0 110 33 204t95.5 163t152.5 108t204 39q95 0 171.5 -25.5t135.5 -74t101 -118.5t67 -159l-194 -53q-16 56 -37.5 103.5t-54.5 82t-79 54t-110 19.5q-73 0 -126.5 -29t-88.5 -76.5t-51.5 -109.5t-16.5 -128t16.5 -128.5t51 -110.5t88 -77t127.5 -29 q64 0 110 19.5t78.5 54t54.5 82t37 103.5l185 -51q-5 -109 -3.5 -217t1.5 -217q-97 -73 -215.5 -108.5t-239.5 -35.5q-59 0 -116 8t-113 25v-319q0 -40 14.5 -61.5t58.5 -21.5h339q23 0 38 7.5t23.5 20t12 30t3.5 37.5q0 18 -1.5 36.5t-2.5 37.5h203v-86q0 -62 -21 -109.5 t-58 -79.5t-87.5 -48.5t-109.5 -16.5h-339q-59 0 -109.5 16.5t-87 49t-57.5 79.5t-21 109v130t-0.5 139.5t-0.5 139.5v130l70 19q33 -37 73.5 -61.5t86 -38.5t94 -20t95.5 -6q69 0 136.5 13t130.5 45v64q-60 -36 -126.5 -53t-135.5 -17q-114 0 -204 39.5t-152.5 109 t-95.5 164t-33 204.5z" />
<glyph unicode="&#x1021;" horiz-adv-x="1832" d="M85 671q51 179 172.5 266.5t304.5 87.5q97 0 189.5 -34t161.5 -105q69 69 161 104t189 35q114 0 204 -39t152 -107.5t95 -162.5t33 -204q0 -112 -34 -206.5t-97.5 -162.5t-155 -106t-206.5 -38q-37 0 -70 4.5t-58 19t-39.5 41t-14.5 70.5q0 40 12.5 77t32.5 72 q33 54 81 93t105 65t119.5 39.5t122.5 16.5q0 4 0.5 7.5t0.5 7.5q0 66 -16.5 127.5t-51.5 109.5t-88 76.5t-127 28.5q-82 0 -144 -39.5t-99 -112.5q5 -13 5 -24q0 -21 -19.5 -39t-50.5 -34.5t-68.5 -30t-73.5 -25t-66.5 -21t-46.5 -16.5q16 -5 46 -14t66 -21t74 -27 t68.5 -31.5t50.5 -34.5t20 -37q0 -20 -10 -43.5t-19 -42.5q-63 -128 -177 -195t-257 -67q-180 0 -296.5 82.5t-165.5 259.5l194 53q16 -55 36 -97t50.5 -70t74.5 -42.5t107 -14.5q74 0 132.5 31.5t97.5 93.5q-26 8 -59 18t-67 22.5t-66.5 28.5t-58 37.5t-41 48.5t-15.5 62 q0 36 15.5 63.5t40.5 49t57.5 37.5t66.5 28.5t67 22t60 18.5q-38 60 -99 91.5t-131 31.5q-63 0 -109.5 -16t-80 -46t-55.5 -74t-37 -100zM1280 171q45 3 87 22.5t76.5 50t58.5 70.5t31 84q-45 -7 -88 -25.5t-77.5 -47t-57.5 -67.5t-30 -87z" />
<glyph unicode="&#x1022;" horiz-adv-x="1903" d="M85 171l166 75q3 -30 22.5 -52t51.5 -22q15 0 26.5 11t11.5 27q0 19 -12 28l-260 190q-2 21 -3.5 42.5t-1.5 42.5q0 110 33.5 204t95.5 162.5t152 107t202 38.5q114 0 213.5 -44t168.5 -137q70 92 169 136.5t214 44.5q114 0 203.5 -39t152 -107.5t95.5 -162t33 -203.5 t-33.5 -204t-96 -162.5t-152 -107.5t-202.5 -39q-53 0 -104.5 9.5t-103.5 23.5l37 169l64 -16t64 -13q11 -2 21.5 -2h21.5q74 0 127.5 28.5t88 76t51 109.5t16.5 128t-16.5 127.5t-51 109t-88 76t-127.5 28.5q-73 0 -126 -29t-87.5 -76.5t-51 -109t-16.5 -126.5 q0 -86 -21 -167t-63.5 -149t-106.5 -119t-149 -78l-77 164q63 24 105 57.5t66.5 76.5t34.5 97t10 118q0 66 -16.5 127.5t-51.5 109t-88 76t-127 28.5t-127 -28.5t-87.5 -76t-51 -109t-16.5 -127.5q41 -28 88.5 -58t89 -67t69 -81.5t27.5 -101.5q0 -45 -19.5 -82t-51 -64 t-72.5 -42t-83 -15q-88 0 -151.5 44.5t-98.5 124.5z" />
<glyph unicode="&#x1023;" horiz-adv-x="1894" d="M85 516q0 110 33 203t95.5 161t151.5 106.5t201 38.5q114 0 213 -43.5t168 -135.5q70 91 169 135t213 44q113 0 202 -38.5t150.5 -107t94.5 -161.5t33 -202t-33 -202.5t-95 -162t-151 -107t-201 -38.5q-27 0 -45.5 1t-35.5 3.5t-35 6.5t-44 10l37 167q31 -8 61 -13t62 -5 q73 0 125.5 28.5t87 76t51 109t16.5 126.5t-16.5 126.5t-51 109t-87 76t-125.5 28.5t-126.5 -28.5t-87.5 -76t-50.5 -108.5t-16.5 -127v-258h-202v264q0 65 -17 125t-52 106.5t-87.5 74.5t-123.5 28q-73 0 -125.5 -28.5t-87 -76t-51 -109t-16.5 -126.5t16.5 -126.5t51 -109 t87 -76t125.5 -28.5q20 0 44.5 3t68.5 13l37 -167q-26 -6 -42.5 -9.5t-31.5 -6t-32 -3t-44 -0.5q-112 0 -201.5 39t-151.5 107t-95 161.5t-33 202.5zM297 -396q0 85 30 152t82.5 114t123 72t151.5 25q78 0 153 -26t132 -82q57 55 132.5 81.5t153.5 26.5q81 0 149.5 -21 t119 -64t79 -107t28.5 -149q0 -31 -5.5 -61.5t-17.5 -57.5t-32 -49.5t-49 -38.5q-10 -6 -36 -13.5t-52 -17t-46.5 -21t-20.5 -24.5q0 -18 23 -18q11 0 25.5 3.5t28 8.5t24.5 9t16 6l59 -119q-42 -14 -85 -25t-88 -11q-38 0 -71.5 8.5t-59 27t-40 47t-14.5 69.5q0 58 18.5 88 t46 45t60 20t60 14t46 28t18.5 60q0 88 -47 140.5t-137 52.5q-66 0 -103.5 -24t-56.5 -63t-23 -89t-2 -102h-203q0 52 -3.5 102t-21.5 89t-55 63t-103 24q-89 0 -137.5 -53t-48.5 -140q0 -69 15 -107.5t45 -57t75 -22.5t104 -4v-171q-20 -2 -38.5 -3t-36.5 -1q-82 0 -149 23 t-115 68.5t-74.5 114t-26.5 160.5z" />
<glyph unicode="&#x1024;" horiz-adv-x="2233" d="M85 515q0 110 33 203.5t95.5 162t152 107.5t203.5 39q113 0 212.5 -44.5t169.5 -136.5q69 93 169 137t214 44t204 -39t152.5 -107.5t95.5 -162t33 -203.5v-1007q0 -66 -14.5 -114.5t-47.5 -80t-85.5 -46.5t-128.5 -15h-1094q-140 0 -207.5 66.5t-67.5 206.5 q0 66 19 114.5t54.5 80t86.5 46.5t115 15h952v-171h-952q-26 0 -41 -6.5t-22.5 -19t-9 -30t-1.5 -39.5q0 -23 1.5 -40t8.5 -28.5t22 -17.5t42 -6h1094q26 0 41 4.5t22.5 15t9.5 26.5t2 39v1007q0 66 -16.5 128t-51 109.5t-88.5 76t-128 28.5q-73 0 -126.5 -28.5t-88 -76.5 t-51 -109.5t-16.5 -127.5v-259h-202v265q0 65 -17 125.5t-52 107t-88 75t-124 28.5q-74 0 -127.5 -28.5t-88 -76.5t-51 -109.5t-16.5 -127.5t16.5 -128t51 -109.5t88 -76.5t127.5 -29q44 0 86.5 10.5t84.5 22.5l39 -170q-51 -13 -103.5 -23t-106.5 -10q-114 0 -204 39 t-152 107.5t-95 162.5t-33 204zM1366 1444q0 86 29.5 155.5t82 119.5t124.5 77t156 27q98 0 171 -31t121.5 -87.5t73 -134t24.5 -170.5h-202q0 50 -7 96t-27 80.5t-57 55t-97 20.5q-48 0 -83.5 -15.5t-59 -43.5t-35 -66t-11.5 -83q0 -56 13.5 -94t36.5 -63.5t54.5 -42 t67.5 -30.5t74.5 -28t76.5 -34q128 -68 184 -180t56 -253l1 -1479h-202l-1 1479q0 81 -16.5 133.5t-45.5 86.5t-68.5 55.5t-85.5 40.5t-96.5 41t-101.5 57q-46 32 -75.5 64t-46 68.5t-22.5 80t-6 98.5z" />
<glyph unicode="&#x1025;" horiz-adv-x="1128" d="M85 649q25 88 67 157.5t101.5 118t135.5 74.5t169 26q114 0 204 -39.5t152.5 -108.5t95.5 -163t33 -204t-33 -204t-95.5 -163t-152.5 -108t-204 -39q-69 0 -135 17t-125 52v-523q0 -35 4.5 -59t17 -39t35 -21.5t59.5 -6.5h315q46 0 74 30t28 75q0 40 -15 61.5t-39 31.5 t-54.5 11.5t-60.5 1.5q-21 0 -42.5 -0.5t-38 -8t-25.5 -24.5t-7 -49h-192q0 78 23 127t65 77t101 38.5t130 10.5h52q62 0 117 -19t97 -55t66.5 -87.5t24.5 -116.5q0 -64 -24.5 -115t-66.5 -87t-97 -55t-116 -19h-315q-74 0 -133 17.5t-100 54.5t-63 93t-22 133v794l183 51 q15 -55 37 -96.5t55 -69t78.5 -41t108.5 -13.5q74 0 128 28.5t88.5 76.5t51 110t16.5 128t-16.5 128t-51 110t-88.5 77t-128 29q-63 0 -108.5 -20t-78.5 -54.5t-55 -82t-38 -102.5z" />
<glyph unicode="&#x1026;" horiz-adv-x="1122" d="M85 649q24 87 66 156.5t101 118t134.5 74.5t168.5 26q114 0 203.5 -39t151.5 -108t94.5 -162.5t32.5 -202.5t-32.5 -203t-94.5 -162.5t-151.5 -107.5t-203.5 -39q-68 0 -133.5 17t-124.5 52v-500q0 -35 4.5 -58.5t17 -38.5t35 -21.5t58.5 -6.5h313q45 0 73.5 29.5 t28.5 74.5q0 40 -15 61.5t-39 31.5t-54.5 11.5t-60.5 1.5q-21 0 -42 -1t-37.5 -8.5t-25.5 -24t-7 -48.5h-191q0 77 23 126t65 76.5t100.5 38t129.5 10.5h51q61 0 116 -19t97 -54.5t66.5 -87t24.5 -115.5t-24.5 -115t-66.5 -86t-97 -54t-115 -19h-313q-73 0 -132 17.5 t-99.5 54t-62.5 92t-22 132.5v770l181 51q15 -55 37 -96.5t55 -69t78.5 -41t107.5 -13.5q74 0 127 28.5t87.5 76.5t51 109.5t16.5 127.5t-16.5 127.5t-51 109t-87.5 76t-127 28.5q-63 0 -108 -19.5t-78 -54t-55 -81.5t-38 -102zM177 1450q0 82 27.5 149.5t78 116t120.5 75.5 t154 27t153.5 -27t119.5 -75.5t77.5 -116.5t27.5 -149q0 -82 -27.5 -149.5t-77.5 -116.5t-119.5 -76t-153.5 -27t-154 27t-120.5 75.5t-78 116.5t-27.5 150zM357 1450q0 -19 3 -37q53 28 98.5 41.5t90.5 13.5q47 0 101 -14.5t103 -40.5q3 18 3 37q0 101 -53 159.5t-146 58.5 t-146.5 -58.5t-53.5 -159.5zM390 1309q32 -37 68.5 -52.5t90.5 -15.5q26 0 50 5t44.5 14t36 21.5t24.5 27.5q-29 22 -72.5 36.5t-81.5 14.5q-92 0 -160 -51z" />
<glyph unicode="&#x1027;" horiz-adv-x="1115" d="M85 513q0 110 33 203.5t95 162t151.5 107.5t203.5 39q142 0 251 -67t176 -191q12 -23 23.5 -48.5t11.5 -51.5q0 -13 -1 -25.5t-2 -26.5q-29 -27 -71 -46.5t-88.5 -32.5t-93 -19.5t-85.5 -6.5q-55 0 -108.5 9t-102 30t-90 55t-71.5 83q-14 -42 -22 -85.5t-8 -88.5 q0 -99 35 -192q31 38 71.5 68.5t86 51.5t94.5 32.5t98 11.5q38 0 87.5 -3.5t99.5 -13.5t95 -26.5t73 -42.5l2 -26t1 -26q0 -24 -13.5 -53t-25.5 -50q-68 -121 -176.5 -183t-246.5 -62q-113 0 -202.5 39.5t-152 108.5t-95.5 163t-33 203zM445 827q28 -84 94 -126t153 -42 q32 0 63 7t60 21q-34 77 -97.5 122t-149.5 45q-32 0 -63 -6.5t-60 -20.5zM448 196q28 -14 58.5 -20t61.5 -6q84 0 148 42t99 117q-56 26 -123 26q-41 0 -79 -10t-69.5 -29.5t-56 -49.5t-39.5 -70z" />
<glyph unicode="&#x1028;" horiz-adv-x="2317" />
<glyph unicode="&#x1029;" horiz-adv-x="2137" d="M100 -499v2029q0 65 19 113t54.5 79t86 46t113.5 15h1363q63 0 113.5 -15t85.5 -46t54 -79t19 -113v-126h-201q1 29 1.5 58t0.5 58q0 23 -1.5 40.5t-8 29t-21.5 17t-42 5.5h-1363q-25 0 -39.5 -4t-22 -14t-9 -25.5t-1.5 -38.5v-2029q0 -23 1.5 -39t9 -25.5t22 -13.5 t39.5 -4h1378q26 0 40.5 4t21.5 14t8.5 25.5t1.5 38.5v560q-57 -32 -120.5 -47.5t-129.5 -15.5q-114 0 -211.5 43.5t-167.5 135.5q-69 -93 -167 -136t-211 -43q-94 0 -169.5 26t-133 74t-98 116t-64.5 152l190 61q14 -54 34.5 -101t52.5 -82t78 -55.5t110 -20.5 q73 0 126 28.5t87 76t50 108.5t16 126t-16 126t-50 108t-87 75.5t-126 28.5q-66 0 -112.5 -20.5t-79 -56.5t-52.5 -84t-34 -104l-192 51q24 88 64 159t98 121t134.5 77t173.5 27q78 0 149 -20.5t129.5 -60t102.5 -98t69 -134.5q19 -57 24 -117t5 -120q0 -22 4.5 -44 t11.5 -44q30 -97 93.5 -153t168.5 -56q72 0 124.5 28.5t86.5 75.5t50.5 108t16.5 125q0 65 -16.5 125.5t-50.5 108t-86.5 76t-124.5 28.5q-22 0 -37.5 -1.5t-29.5 -4.5t-29.5 -7t-36.5 -9l-39 172q26 5 46 8.5t39.5 6t40 4t46.5 1.5q113 0 202 -38.5t150.5 -106.5t94 -161 t32.5 -202q0 -31 -2 -63t-10 -62q-4 -14 -10 -28.5t-6 -29.5v-821q0 -65 -19 -112.5t-54.5 -78.5t-86 -46t-113.5 -15h-1378q-63 0 -113.5 15t-86 46t-54.5 78.5t-19 112.5z" />
<glyph unicode="&#x102a;" horiz-adv-x="4060" d="M103 511q0 110 33 204t95.5 162.5t152.5 107.5t204 39q199 0 320 -103t160 -296l-195 -55q-10 59 -31.5 111t-56 90t-83.5 60t-114 22q-74 0 -127.5 -29.5t-87.5 -77.5t-50 -110.5t-16 -128.5q0 -17 1 -34t3 -35q72 58 159.5 85t179.5 27q53 0 113.5 -11.5t117 -36.5 t102.5 -62.5t69 -90.5q-23 -84 -66 -149.5t-102.5 -110.5t-134 -68.5t-161.5 -23.5q-114 0 -204 39t-152.5 108t-95.5 163t-33 204zM395 247q38 -39 88.5 -58.5t104.5 -19.5q81 0 144.5 40t98.5 114q-38 32 -85.5 43.5t-95.5 11.5q-38 0 -75.5 -8t-70.5 -24t-61 -40.5 t-48 -58.5zM1133 -492v2028q0 67 20 115.5t56.5 79.5t87 45.5t111.5 14.5h1324q62 0 112.5 -14.5t86.5 -45.5t55.5 -79t19.5 -116v-126h-202q1 29 1.5 58t0.5 58q0 23 -1.5 40.5t-8.5 29t-22 17.5t-42 6h-1324q-26 0 -40.5 -4t-22 -14t-9 -26t-1.5 -39v-2028 q0 -24 1.5 -39.5t9 -25t22 -13.5t40.5 -4h1388q26 0 40.5 4t21.5 13.5t8.5 25.5t1.5 39v553q-57 -33 -121 -48t-130 -15q-115 0 -213.5 43.5t-169.5 135.5q-69 -92 -168 -135.5t-212 -43.5q-92 0 -167.5 25.5t-134 73.5t-100.5 116.5t-67 154.5l191 62q14 -56 35.5 -103.5 t54.5 -82.5t79 -55t109 -20q74 0 127 28.5t87 76t50.5 109t16.5 127.5t-16.5 127.5t-50.5 109t-87 76t-127 28.5q-66 0 -112.5 -20t-79 -56t-53.5 -85t-36 -106l-193 51q24 90 65 162t100 121.5t136 76t173 26.5q128 0 219 -42t149.5 -116.5t86 -175.5t27.5 -219 q0 -23 5 -45t12 -44q14 -48 38 -86.5t57 -66t75 -42.5t94 -15q73 0 125.5 28.5t86.5 76t50.5 108.5t16.5 126t-16.5 126.5t-50.5 109t-86.5 76.5t-125.5 29q-35 0 -68.5 -7t-65.5 -16l-40 174q43 8 86 14t88 6q114 0 214 -44t169 -138q34 49 77 84.5t93.5 59t106 34.5 t113.5 11q114 0 204.5 -39.5t153.5 -109t96.5 -164t33.5 -204.5q0 -111 -34 -206t-97 -164t-153.5 -108.5t-203.5 -39.5q-54 0 -106 9.5t-104 22.5l35 168q44 -10 87 -20t88 -10q75 0 129 29.5t89 78t52 111t17 129.5t-17 129.5t-52 111t-89 77.5t-129 29 q-80 0 -130.5 -23.5t-80.5 -62.5t-44.5 -89t-21.5 -103q-7 -54 -11 -104.5t-15 -92.5q-4 -14 -10 -28.5t-6 -29.5v-816q0 -66 -19.5 -113.5t-55 -79t-86.5 -46.5t-114 -15h-1388q-63 0 -114 15t-86.5 46.5t-55 79t-19.5 113.5zM3033 1421q0 84 28.5 152t79.5 116t120.5 74 t151.5 26q83 0 150 -24t116.5 -70t78.5 -111t35 -148l-192 -50q0 14 0.5 27t-1.5 27q-4 39 -16 73t-34.5 59t-56 39.5t-80.5 14.5t-82 -15.5t-58.5 -42.5t-35 -64.5t-11.5 -82.5q0 -63 15.5 -103t46 -62.5t75 -30.5t102.5 -8l-11 -164q-89 0 -166 21.5t-133.5 66.5 t-89 114.5t-32.5 165.5z" />
<glyph unicode="&#x102b;" horiz-adv-x="338" d="M-336 1115v465l404 228h185v-1803h-198v1594l-198 -117v-367h-193z" />
<glyph unicode="&#x102c;" horiz-adv-x="785" d="M-279 525q13 110 45.5 202.5t91 160.5t146 106t209.5 38q114 0 204.5 -39.5t153.5 -108.5t96 -163.5t33 -204.5t-33 -204.5t-96 -163.5t-153.5 -108.5t-204.5 -39.5q-31 0 -61.5 3.5t-61.5 9.5l25 169q25 -5 49 -9t49 -4q75 0 129 29.5t89 78t52 111t17 128.5 q0 67 -17 129.5t-52 111t-89 77.5t-129 29q-83 0 -136 -31t-85.5 -82t-48.5 -116t-24 -133z" />
<glyph unicode="&#x102d;" d="M-965 1434q0 39 8.5 82t27 85t48 79.5t72.5 66t100 45.5t130 17q109 0 183 -36.5t119 -92.5t64.5 -121.5t19.5 -124.5q0 -39 -8.5 -81.5t-27 -84.5t-48 -79.5t-72.5 -66.5t-100 -46t-130 -17t-130 17t-100 45.5t-72.5 66.5t-48 79.5t-27 84.5t-8.5 82zM-770 1434 q0 -43 11.5 -81.5t35 -66.5t59.5 -44.5t85 -16.5t85 16.5t59.5 45t35 66.5t11.5 81t-11.5 81.5t-35 67t-59.5 45t-85 16.5t-85 -16.5t-59.5 -45t-35 -66.5t-11.5 -82z" />
<glyph unicode="&#x102e;" d="M-967 1442q0 84 28.5 153.5t79.5 119t122.5 77t158.5 27.5q85 0 156 -27.5t122 -77.5t79.5 -119t28.5 -153q0 -83 -28.5 -152.5t-79.5 -119.5t-122 -77.5t-156 -27.5q-87 0 -158.5 27.5t-122.5 77.5t-79.5 119t-28.5 153zM-783 1442q0 -19 3 -37q54 29 100.5 42.5 t92.5 13.5q48 0 103.5 -15t105.5 -41q3 18 3 37q0 52 -14 93.5t-40.5 70.5t-64 44.5t-84.5 15.5q-95 0 -150 -60t-55 -164zM-749 1298q32 -38 69.5 -54t92.5 -16q26 0 51 5t46 14.5t36.5 22.5t24.5 28q-14 11 -33.5 20.5t-40.5 16.5t-42.5 11t-40.5 4q-94 0 -163 -52z" />
<glyph unicode="&#x102f;" d="M-663 -40h212v-540h197v-180h-301q-35 0 -56 10.5t-32.5 25t-15.5 30.5t-4 27v627z" />
<glyph unicode="&#x1030;" d="M-781 -40h211v-722h-211v722zM-473 -40h211v-542h203v-180h-306q-35 0 -56 10.5t-32.5 25t-15.5 30.5t-4 27v629z" />
<glyph unicode="&#x1031;" horiz-adv-x="1124" d="M85 512q0 110 33 203.5t95 162t151.5 107.5t203.5 39q95 0 170.5 -25.5t133.5 -74t99.5 -118t67.5 -157.5l-192 -50q-14 55 -36.5 102t-56 81t-79 53t-107.5 19q-73 0 -126.5 -29t-88 -76.5t-51 -109t-16.5 -127.5q0 -18 1.5 -36.5t3.5 -36.5q71 59 159 85.5t179 26.5 q58 0 116.5 -11.5t112 -35.5t99 -61.5t75.5 -89.5q-18 -82 -62 -147.5t-106 -111.5t-138.5 -70.5t-157.5 -24.5q-113 0 -202.5 39t-152 108t-95.5 163t-33 203zM375 248q37 -39 88 -59t105 -20q82 0 145.5 39.5t98.5 114.5q-38 31 -86 44t-97 13q-38 0 -75 -8t-70 -24 t-61 -41t-48 -59z" />
<glyph unicode="&#x1032;" d="M-924 1489l97 168l714 -393l-98 -168z" />
<glyph unicode="&#x1033;" horiz-adv-x="682" />
<glyph unicode="&#x1034;" horiz-adv-x="682" />
<glyph unicode="&#x1035;" d="M-926 1442q0 84 28 151.5t77.5 115.5t118.5 74t152 26q66 0 117.5 -12.5t93.5 -39t76.5 -67.5t65.5 -98l-134 -72q-35 72 -86.5 107.5t-132.5 35.5q-59 0 -99 -19.5t-64.5 -53t-35 -78.5t-10.5 -97q44 44 98 67t116 23q54 0 103 -11.5t90.5 -36t74.5 -61.5t55 -88 q3 -7 3 -15q0 -13 -8.5 -27.5t-15.5 -25.5q-58 -86 -130.5 -125.5t-176.5 -39.5q-83 0 -152 26t-119 73.5t-77.5 115.5t-27.5 152zM-714 1301q34 -40 72 -60t92 -20q23 0 47 5.5t45 17t37.5 29t24.5 41.5q-12 17 -30.5 29.5t-39.5 21t-43.5 13t-42.5 4.5q-28 0 -50 -5 t-41 -15t-36 -25.5t-35 -35.5z" />
<glyph unicode="&#x1036;" d="M-739 1388q0 47 16 86.5t45 68t68.5 44.5t86.5 16q46 0 86 -16t68.5 -45t45 -68t16.5 -86q0 -46 -16 -85.5t-45 -68.5t-68.5 -45t-86.5 -16t-86.5 16t-68.5 44.5t-45 68t-16 86.5zM-584 1388q0 -27 17 -44t44 -17t44 17t17 44t-17 44t-44 17t-44 -17t-17 -44z" />
<glyph unicode="&#x1037;" d="M-809 -332q0 47 16 86.5t45 68t68.5 44.5t86.5 16q46 0 86 -16t68.5 -45t45 -68.5t16.5 -85.5q0 -47 -16 -86t-45 -68t-68.5 -45t-86.5 -16t-86.5 16t-68.5 44.5t-45 68t-16 86.5zM-654 -332q0 -27 17 -44t44 -17t44 17t17 44t-17 44t-44 17t-44 -17t-17 -44z" />
<glyph unicode="&#x1038;" horiz-adv-x="572" d="M85 218q0 44 15 80.5t42 63t64 41.5t80 15t80 -15t64 -41.5t42 -63t15 -80.5q0 -43 -15 -79.5t-42 -63.5t-63.5 -42t-80.5 -15q-43 0 -80 15t-64 41.5t-42 63.5t-15 80zM85 825q0 44 15 80.5t42 63t64 41.5t80 15t80 -15t64 -42t42 -63.5t15 -79.5t-15 -79.5t-42 -63.5 t-63.5 -42t-80.5 -15q-43 0 -80 15t-64 41.5t-42 63.5t-15 80zM230 218q0 -25 15.5 -40.5t40.5 -15.5t41 15.5t16 40.5q0 26 -16 42t-41 16t-40.5 -16t-15.5 -42zM230 825q0 -25 15.5 -41t40.5 -16t41 16t16 41t-16 41t-41 16t-40.5 -16t-15.5 -41z" />
<glyph unicode="&#x1039;" d="M-804 -274h230v218h152v-218h232v-136h-232v-220h-152v220h-230v136z" />
<glyph unicode="&#x103a;" d="M-932 1424q0 87 29.5 157t81.5 119.5t124 76t157 26.5t155 -25t120.5 -72t80.5 -114.5t36 -152.5l-198 -51q-2 50 -10.5 94.5t-29.5 78.5t-58 54t-96 20q-48 0 -84.5 -16t-60.5 -44t-36 -66.5t-12 -84.5q0 -75 19.5 -116t52.5 -61.5t78 -25.5t96 -8l-11 -169 q-92 0 -171.5 22t-138 68.5t-91.5 118.5t-33 171z" />
<glyph unicode="&#x103b;" horiz-adv-x="329" d="M-348 277l194 44v-742l195 -111v1556h199v-1779h-177l-411 242v790z" />
<glyph unicode="&#x103c;" horiz-adv-x="354" d="M85 -503v2008q0 65 19 113t54.5 79.5t86 46.5t113.5 15h683q63 0 113 -15.5t85 -47t54 -79t19 -112.5v-95h-200q0 27 3 58.5t-1 58.5t-20 44.5t-53 17.5h-683q-26 0 -40.5 -4.5t-22 -14t-9.5 -25.5t-2 -40v-2008q0 -24 1.5 -40t9 -26t22.5 -14.5t41 -4.5h697 q27 0 41.5 4.5t21.5 14t8.5 26t1.5 40.5v743l200 106v-849q0 -66 -18.5 -114.5t-54 -79.5t-86 -46t-114.5 -15h-697q-63 0 -113.5 15t-86 46.5t-54.5 79.5t-19 114z" />
<glyph unicode="&#x103d;" d="M-915 -410q0 58 19 123t64 120t118.5 91t181.5 36q72 0 128.5 -16.5t98.5 -45t72 -66t48 -78.5t26.5 -83.5t8.5 -80.5q0 -39 -8.5 -81t-26.5 -83t-48 -78.5t-72 -66t-98.5 -45t-128.5 -16.5q-108 0 -181.5 36t-118.5 91t-64 120t-19 123zM-718 -410q0 -42 11.5 -79 t34.5 -64.5t58 -43.5t82 -16t82 16t57.5 43.5t33.5 64.5t11 79t-11 79t-33.5 64.5t-57.5 43.5t-82 16t-82 -16t-58 -43.5t-34.5 -64.5t-11.5 -79z" />
<glyph unicode="&#x103e;" d="M-795 -582h198v542h195v-600q0 -15 -4.5 -33.5t-17.5 -35t-37 -28t-63 -11.5h-271v166z" />
<glyph unicode="&#x103f;" horiz-adv-x="2658" d="M85 609q28 93 67 169.5t95.5 131t134.5 84t185 29.5q79 0 150 -20.5t129.5 -60.5t102.5 -98.5t69 -134.5q20 -60 25 -117t5 -120q0 -8 1.5 -14.5t3.5 -14.5q14 -58 33.5 -108t51 -87t78 -57.5t114.5 -20.5q71 0 124 29t87.5 77t51.5 109t17 125q0 66 -16 127.5t-50.5 109 t-87 76.5t-126.5 29q-44 0 -87 -10.5t-85 -20.5l-37 169q52 12 103.5 22t105.5 10q78 0 148 -20.5t128.5 -59.5t102.5 -96.5t70 -131.5q11 -33 17.5 -63.5t9.5 -61t3.5 -61.5t0.5 -65q0 -5 1 -10t3 -10q14 -58 33.5 -108t51 -87t78 -57.5t113.5 -20.5q74 0 127 28.5t87 75.5 t50.5 108.5t16.5 127.5t-16.5 127.5t-50.5 109.5t-87 76.5t-127 28.5q-44 0 -87 -10.5t-85 -20.5l-36 169q52 12 103 22t105 10q113 0 203 -39t152 -108t95 -162.5t33 -202.5t-33.5 -202t-95.5 -161.5t-151.5 -107.5t-202.5 -39t-212 43.5t-168 135.5q-69 -92 -168 -135.5 t-212 -43.5q-114 0 -213.5 43.5t-168.5 136.5q-69 -92 -168.5 -136.5t-212.5 -44.5q-105 0 -183.5 29.5t-135.5 84t-96 131t-65 169.5l192 54q15 -59 35 -113t52.5 -95t81 -65.5t119.5 -24.5q74 0 127 29t87 76.5t50.5 109t16.5 127.5t-16.5 127.5t-50.5 109t-87 76.5 t-127 29q-72 0 -120.5 -24t-81 -65t-52.5 -95t-35 -114z" />
<glyph unicode="&#x1040;" horiz-adv-x="1175" d="M85 517q0 105 31 197t89.5 161.5t144.5 111.5t195 46l-2 -172q-67 -6 -115.5 -37.5t-79.5 -79.5t-45.5 -107t-14.5 -120t14.5 -120t45.5 -107t79.5 -80t115.5 -38l3 -172q-110 5 -196 47t-145 111t-89.5 161.5t-30.5 197.5zM582 -1l2 172q72 2 123.5 32.5t85 78.5 t49.5 109.5t16 125.5q0 65 -16 126t-49.5 109t-85 78t-123.5 32l-2 172q113 -2 202.5 -42t151 -109t94 -163t32.5 -203t-32.5 -203t-94 -163.5t-151 -109.5t-202.5 -42z" />
<glyph unicode="&#x1041;" horiz-adv-x="1126" d="M85 375l193 51q16 -54 38 -101t54.5 -81.5t78.5 -54.5t109 -20q74 0 127 29t87.5 77t51 110t16.5 128t-16.5 127.5t-51 109.5t-87.5 76.5t-127 28.5q-64 0 -109.5 -19.5t-78.5 -54t-55 -81.5t-38 -102l-192 53q26 87 67.5 156.5t100 118t134.5 74t171 25.5 q114 0 203.5 -39t152 -107.5t95 -162t32.5 -203.5q0 -109 -32.5 -203t-94.5 -163t-152 -108.5t-204 -39.5q-95 0 -171 26.5t-134 75.5t-99.5 118.5t-68.5 155.5z" />
<glyph unicode="&#x1042;" horiz-adv-x="1149" d="M124 -180h195v-84q0 -64 16 -124t49.5 -106t85.5 -73.5t124 -27.5q71 0 123 27.5t85.5 73.5t49.5 106t16 124l-8 1288h204v-1288q0 -106 -32 -197t-92.5 -158t-147.5 -105t-198 -38q-73 0 -139.5 18t-122.5 53.5t-99.5 88.5t-70.5 122q-15 40 -23 76t-11.5 72t-3.5 73v79 z" />
<glyph unicode="&#x1043;" horiz-adv-x="1163" d="M85 651q24 87 66 156.5t101 118t135 74t170 25.5q114 0 203.5 -39t152 -107.5t95 -162t32.5 -202.5t-33 -203t-95 -163t-151.5 -108.5t-203.5 -39.5q-26 0 -51.5 2t-51.5 7l326 -757h-215l-450 1039l192 69q21 -58 38 -95t42.5 -58t65 -29t104.5 -8q74 0 127 29t87.5 77 t51 110t16.5 128t-16.5 127.5t-51 109t-87.5 76t-127 28.5q-64 0 -109.5 -19.5t-78 -54t-54 -81.5t-38.5 -102z" />
<glyph unicode="&#x1044;" horiz-adv-x="1163" d="M123 514q0 109 32.5 202.5t95 162t152 107.5t203.5 39q94 0 170 -25.5t135 -74t101 -118t66 -156.5l-192 -53q-16 55 -38 102t-54.5 81.5t-78 54t-109.5 19.5q-73 0 -126.5 -28.5t-88 -76t-51 -109t-16.5 -127.5t16.5 -128t51 -110t88 -77t126.5 -29q65 0 104.5 8t65 29 t42.5 58t38 95l192 -69l-450 -1039h-215l326 757q-26 -5 -51.5 -7t-51.5 -2q-114 0 -203.5 39.5t-151.5 108.5t-95 163t-33 203z" />
<glyph unicode="&#x1045;" horiz-adv-x="1175" d="M85 -230h208q0 -71 14.5 -140t48.5 -123t90.5 -87t140.5 -33q76 0 131 30t91 79.5t53.5 113.5t17.5 132v750q0 69 -17 133t-53 113.5t-91 79t-132 29.5q-56 0 -102.5 -18.5t-82 -51t-60.5 -77t-37 -96.5q9 2 18 2h18q47 0 92 -16.5t80.5 -46t57.5 -70.5t22 -91 q0 -46 -18.5 -85t-50 -66.5t-72 -43t-85.5 -15.5q-69 0 -121.5 26t-88.5 70t-54 102t-18 122q0 114 34.5 211.5t99 168.5t157.5 111.5t211 40.5q83 0 155 -20.5t131.5 -60.5t104.5 -97.5t73 -131.5q16 -40 27 -88t11 -90l1 -794q0 -114 -34.5 -211t-99.5 -168.5t-158.5 -112 t-210.5 -40.5q-79 0 -152 21t-133.5 61.5t-107.5 99.5t-74 135q-21 59 -28 120t-7 123zM285 438q4 -18 11.5 -34.5t19 -30t27 -21.5t35.5 -8q26 0 42 17t16 43q0 30 -23 50t-52 20q-22 0 -41 -11t-35 -25z" />
<glyph unicode="&#x1046;" horiz-adv-x="1175" d="M85 489v769q0 114 34.5 211.5t99 169t157.5 112t211 40.5q139 0 235 -43t155.5 -119.5t86 -183t26.5 -232.5h-209q0 78 -11 150.5t-42.5 128t-89.5 88.5t-151 33q-76 0 -131 -30t-91 -79.5t-53 -113.5t-17 -132v-725q0 -69 17 -133t52.5 -113.5t91 -79t131.5 -29.5 q54 0 105 6.5t91.5 27.5t65 60.5t24.5 105.5q0 64 -18 102.5t-47 62t-66.5 37.5t-76.5 28.5t-76.5 34.5t-67.5 57q-24 30 -38.5 66.5t-14.5 75.5q0 51 23 97.5t60.5 81t85.5 55t98 20.5q100 0 170.5 -41.5t109.5 -136.5l-182 -101q-10 33 -35.5 59t-62.5 26 q-11 0 -21.5 -5.5t-18 -14.5t-12 -19.5t-4.5 -21.5q0 -27 17 -44.5t45.5 -31.5t64.5 -27t73.5 -30t73.5 -41t64.5 -60.5t45.5 -87.5t17 -122q0 -112 -40 -188t-108 -122t-157 -66t-188 -20q-90 0 -168 24.5t-139.5 71t-106.5 114.5t-69 155q-8 30 -13.5 60.5t-5.5 62.5z" />
<glyph unicode="&#x1047;" horiz-adv-x="1175" d="M85 496q0 114 34.5 211.5t99.5 169t158 112t211 40.5q120 0 213.5 -40.5t157.5 -112.5t97.5 -170.5t33.5 -214.5q0 -57 -10.5 -112t-26.5 -109t-36 -107t-39 -106q-21 -58 -40.5 -117t-35 -119t-24.5 -121.5t-9 -123.5q0 -22 3 -54t13 -62t28.5 -51t48.5 -21q19 0 37.5 1 t37.5 2l-2 -181q-99 -1 -170 19.5t-116 65t-66.5 115t-21.5 169.5q0 117 23.5 230.5t62.5 223.5q20 56 43.5 112t43.5 113t33.5 115.5t13.5 119.5q0 69 -16.5 134t-52 114.5t-91 79.5t-133.5 30q-76 0 -131.5 -29.5t-91.5 -79t-53.5 -113.5t-17.5 -133q0 -73 10 -132 t37.5 -102.5t76 -71t124.5 -38.5l-56 -192q-109 21 -185.5 65t-124.5 111t-69.5 157t-21.5 203z" />
<glyph unicode="&#x1048;" horiz-adv-x="1156" d="M85 502q0 112 33 209t96.5 169t155 113t208.5 41t208.5 -41t155 -113t96.5 -169t33 -209q0 -187 -83.5 -318t-261.5 -198l-78 161q62 22 104 57t67.5 81t37 101t11.5 116q0 68 -16.5 133t-51.5 115t-90 80.5t-132 30.5q-85 0 -149.5 -42.5t-99.5 -120.5q67 -11 118.5 -43 t86 -79.5t52.5 -106.5t18 -124q0 -121 -52.5 -208t-164.5 -136q-79 36 -136.5 87t-94 114.5t-54 139t-17.5 160.5zM298 473q0 -34 6 -69.5t20 -68t36.5 -60.5t55.5 -48q31 24 43 60.5t12 73.5q0 27 -10 55.5t-29 52.5t-46 39.5t-62 15.5h-22q-2 -12 -3 -25.5t-1 -25.5z" />
<glyph unicode="&#x1049;" horiz-adv-x="1137" d="M85 -69.5q0 105.5 0.5 212.5t0.5 212.5v200.5q0 104 38 190.5t105 148.5t157 96t194 34q96 0 181.5 -31.5t150 -89t102.5 -139t38 -180.5q0 -120 -63.5 -196t-179.5 -100q-16 -3 -42 -6.5t-51 -10t-43 -19t-18 -35.5q0 -21 16 -40t38 -19q23 0 39 10q17 8 29.5 24.5 t15.5 37.5l178 -77q-37 -88 -100.5 -127t-157.5 -39q-47 0 -93.5 17t-83.5 47t-60 72t-23 93t23 96.5t66 73.5q28 17 62 27.5t68.5 19t67 18t57.5 25.5t40 41.5t15 65.5q0 59 -21 108.5t-57.5 85.5t-86.5 56.5t-109 20.5q-79 0 -134.5 -26.5t-90 -72.5t-50.5 -108.5 t-16 -134.5v-783q0 -65 16.5 -126t51 -109t87.5 -77t125 -29q74 0 127 28.5t87.5 76t51 109t16.5 127.5v44h201v-44q0 -109 -33 -202.5t-95.5 -162t-152 -107.5t-202.5 -39t-202.5 39t-151.5 107.5t-95 162t-33 202.5v200.5z" />
<glyph unicode="&#x104a;" horiz-adv-x="385" d="M90 4v998h205v-998h-205z" />
<glyph unicode="&#x104b;" horiz-adv-x="707" d="M90 4v998h205v-998h-205zM412 4v998h205v-998h-205z" />
<glyph unicode="&#x104c;" horiz-adv-x="1118" d="M85 653q24 87 65.5 156t100 117t134 73t168.5 25q112 0 201 -38.5t151 -106.5t95 -160.5t33 -201.5t-33 -202t-94.5 -161t-150.5 -107t-202 -39q-67 0 -132 16.5t-123 50.5v-70q60 -31 126.5 -43.5t133.5 -12.5q38 0 78.5 3.5t78.5 14t72 30t59 51.5l125 -88v-449 q0 -62 -20.5 -109t-56.5 -79.5t-86 -49t-109 -16.5h-373q-49 0 -91.5 14.5t-74 42t-49.5 68t-18 91.5v65q0 55 28 95t71.5 66t95 38t98.5 12q51 0 97.5 -4.5t87 -19.5t74.5 -44.5t59 -79.5l-171 -86q-8 23 -21.5 35.5t-30.5 18.5t-36.5 7.5t-39.5 1.5q-32 0 -53.5 -2 t-34 -11t-18 -28.5t-5.5 -54.5q0 -8 1 -17.5t4 -17.5t9.5 -13.5t17.5 -5.5h373q44 0 57.5 22t13.5 61v323q-54 -17 -110.5 -24.5t-113.5 -7.5q-121 0 -237 35t-213 107v403l182 50q16 -55 38.5 -96t55.5 -68t77.5 -40.5t103.5 -13.5q72 0 124.5 28.5t86.5 75.5t50.5 108 t16.5 126t-16 126t-50 108t-86.5 75t-125.5 28q-61 0 -105.5 -20t-77.5 -54.5t-55 -81t-38 -99.5zM176 1439q0 83 28.5 149.5t79 113.5t119.5 72.5t150 25.5q91 0 160 -28t116.5 -79t73 -123t28.5 -159l-198 -22q0 48 -6.5 93t-25.5 79t-54.5 54.5t-93.5 20.5 q-45 0 -79 -14.5t-57 -41t-34.5 -62.5t-11.5 -79t11.5 -79t34.5 -62.5t57 -41.5t79 -15h98v-164h-98q-82 0 -151 25t-119 72t-78.5 114t-28.5 151z" />
<glyph unicode="&#x104d;" horiz-adv-x="1385" d="M85 521q0 108 33 200t94.5 159.5t150 105.5t199.5 38q153 0 262.5 -70.5t173.5 -209.5q11 -25 20.5 -51.5t9.5 -54.5v-1101h-200v1092q0 17 -6.5 32t-14.5 29q-21 40 -44.5 70.5t-52 51.5t-65 31.5t-83.5 10.5q-60 0 -107.5 -21.5t-81.5 -58.5t-55 -86.5t-27 -105.5 q80 -13 145 -49.5t111 -91.5t71 -125t25 -151q0 -21 -1.5 -47t-9.5 -49t-24.5 -38.5t-45.5 -15.5q-112 0 -200.5 38.5t-150 106.5t-94 160.5t-32.5 200.5zM87 -439q0 61 20.5 108t56.5 79t86 48.5t108 16.5h364v-170h-364q-27 0 -41 -9.5t-21 -25t-8 -35.5t-1 -40t2 -38 t9 -31.5t21 -21t39 -7.5h656q42 0 56 21.5t14 59.5q0 281 -0.5 560t-0.5 561v62q0 74 -18.5 126t-49.5 88.5t-72 61.5t-86 46q-38 18 -77.5 35t-76 38t-68.5 48t-56 64.5t-37.5 88t-13.5 118.5q0 85 29 154t80.5 117.5t122.5 75t154 26.5q51 0 103.5 -12t99 -36t84.5 -60.5 t60 -85.5q14 -31 22 -56.5t12 -51t4.5 -52.5t0.5 -60h-202v41q0 43 -11.5 80t-34.5 64.5t-57.5 43t-80.5 15.5t-80.5 -15.5t-58 -42.5t-35 -64t-11.5 -81q0 -52 8 -85.5t26.5 -56t48.5 -38t74 -32.5q93 -35 166.5 -78.5t124.5 -102.5t78.5 -137.5t27.5 -183.5 q0 -297 0.5 -591.5t0.5 -591.5q0 -61 -20.5 -107.5t-56.5 -78.5t-85.5 -48.5t-107.5 -16.5h-656q-58 0 -108 16.5t-86 48t-56.5 78.5t-20.5 108v45zM302 400q15 -58 48.5 -109.5t89.5 -78.5l-2 12l-2 12q-13 54 -47.5 97.5t-86.5 66.5z" />
<glyph unicode="&#x104e;" horiz-adv-x="1127" d="M85 510q0 110 33 204t95.5 163t152 108t203.5 39q93 0 169.5 -26t136 -74.5t101.5 -118t66 -157.5l-193 -53q-15 56 -37 103t-55 81.5t-79 54t-109 19.5q-73 0 -126.5 -29t-88 -76.5t-51 -109.5t-16.5 -128t16.5 -128t51 -109.5t88 -76.5t126.5 -29q63 0 109 20 t78.5 54.5t54.5 82t37 102.5l183 -52v-1156h-201v847q-60 -35 -126 -52t-135 -17q-114 0 -203.5 39t-152 108t-95.5 163t-33 204z" />
<glyph unicode="&#x104f;" horiz-adv-x="1686" d="M85 512q0 110 32.5 204t95 162.5t152 107.5t203.5 39q75 0 146.5 -21.5t132.5 -63.5q37 18 77 28t82 10q56 0 108 -17.5t92 -50t63.5 -78.5t23.5 -103l2 -730h-201l-1 729q0 16 -7.5 30.5t-19.5 25.5t-26.5 17.5t-29.5 6.5q-18 0 -36 -6q18 -29 36.5 -64.5t18.5 -70.5 q0 -13 -1 -25.5t-2 -25.5q-24 -24 -61 -43t-78 -32t-82 -19.5t-75 -6.5q-49 0 -109 8t-118.5 25.5t-109 46t-82.5 70.5q-14 -37 -19 -75.5t-5 -77.5q0 -41 5.5 -81t20.5 -78q32 41 77 70t96.5 47t105.5 26t104 8q36 0 82.5 -6.5t92.5 -19.5t87.5 -32.5t67.5 -46.5 q1 -14 2 -26.5t1 -26.5q0 -28 -12.5 -54.5t-26.5 -49.5q-72 -120 -177 -181.5t-245 -61.5q-117 0 -207 38t-151.5 106t-93 162t-31.5 207zM445 827q28 -84 93 -126.5t152 -42.5q64 0 125 28q-17 37 -42 68t-56.5 53t-69 34.5t-79.5 12.5q-32 0 -63 -6.5t-60 -20.5zM449 195 q28 -13 58 -19t61 -6q84 0 147.5 41.5t98.5 117.5q-29 14 -60 20t-63 6q-83 0 -148 -39.5t-94 -120.5zM828 1424q0 85 29 154t81 118t122.5 75.5t154.5 26.5t155 -26.5t122 -75t80 -117.5t29 -155h-201q0 42 -12 79.5t-35.5 65t-58 43.5t-79.5 16q-46 0 -81.5 -15.5 t-58.5 -42.5t-35 -64.5t-12 -81.5q0 -60 11 -96.5t34.5 -59t61 -37t89.5 -30.5q81 -25 147 -55.5t113.5 -76.5t73.5 -111.5t26 -160.5l1 -797h-200v797q0 73 -24 117.5t-63 72t-89 43.5t-102.5 32.5t-102.5 38.5t-89 61.5t-63 102t-24 159.5z" />
<glyph unicode="&#x1050;" horiz-adv-x="1145" d="M85 504q0 111 33 206.5t95 166.5t153 111.5t206 40.5q116 0 206.5 -40.5t153 -111.5t95.5 -166.5t33 -206.5q0 -96 -20.5 -173.5t-62 -139t-103 -109.5t-143.5 -87l-85 156q57 26 97.5 60t66 77t37 96.5t11.5 119.5q0 67 -16.5 130.5t-51 113t-89 80t-129.5 30.5 t-129 -30.5t-88.5 -80t-51 -113t-16.5 -130.5q0 -127 48 -211.5t156 -137.5l-80 -160q-82 39 -143.5 87t-102 109.5t-60.5 138.5t-20 174zM428 509q0 31 11 55.5t29 41t41.5 25t49.5 8.5t49 -9t41 -25.5t28.5 -40.5t10.5 -55t-10.5 -55t-28.5 -40.5t-41 -25.5t-49 -9 t-49.5 9t-41.5 25.5t-29 40.5t-11 55z" />
<glyph unicode="&#x1051;" horiz-adv-x="1145" d="M85 520q0 97 20 174t60.5 138.5t102 109.5t143.5 87l80 -160q-108 -52 -156 -137t-48 -212q0 -67 16.5 -130.5t51 -113t88.5 -80t129 -30.5t129.5 30.5t89 80t51 113t16.5 130.5q0 66 -11.5 119.5t-37 96.5t-66 77t-97.5 60l85 156q82 -39 143.5 -87t103 -109.5t62 -139 t20.5 -173.5q0 -111 -33 -206.5t-95.5 -166.5t-153 -111.5t-206.5 -40.5q-115 0 -206 40.5t-153 111.5t-95 166.5t-33 206.5zM428 515q0 31 11 55t29 40.5t41.5 25.5t49.5 9t49 -9t41 -25.5t28.5 -40.5t10.5 -55t-10.5 -55t-28.5 -40.5t-41 -25.5t-49 -9t-49.5 8.5t-41.5 25 t-29 41t-11 55.5z" />
<glyph unicode="&#x1052;" horiz-adv-x="1146" d="M85 517q0 95 19 172t58 139t99 111t141 87l85 -155q-54 -29 -92 -64t-62 -78t-35 -95t-11 -117q0 -67 16.5 -129.5t52 -110.5t89.5 -77t129 -29q69 0 122.5 27t89.5 73t54.5 105.5t18.5 123.5q0 19 -20 37t-50.5 38t-65.5 43t-65.5 52.5t-50.5 65.5t-20 82q0 44 19 81.5 t50 64.5t71.5 42t82.5 15q89 0 146.5 -46t93.5 -123l-152 -76q3 15 -2.5 29t-16 24.5t-24.5 16.5t-28 6q-9 0 -18 -3q-9 -5 -15.5 -13t-6.5 -18q0 -16 20.5 -34t50.5 -38.5t66 -45t66 -54t50.5 -65t20.5 -77.5q0 -108 -35 -200t-99 -159.5t-153.5 -106t-199.5 -38.5 q-114 0 -205 39.5t-154 109t-96.5 164t-33.5 204.5z" />
<glyph unicode="&#x1053;" horiz-adv-x="1156" d="M85 452q0 36 3.5 65.5t13.5 55.5t27.5 49.5t45.5 47.5q12 11 43 31t63 42.5t56.5 44.5t24.5 36q0 17 -12.5 25.5t-27.5 8.5q-36 0 -52.5 -17t-20.5 -50l-150 72q35 69 82 111t123 53q8 1 17 1.5t18 0.5q42 0 78 -15.5t62.5 -42.5t41 -64.5t14.5 -82.5q0 -27 -4.5 -48 t-13 -38.5t-21.5 -32t-30 -29.5q-42 -35 -80.5 -68t-67.5 -60q-20 -19 -24.5 -35t-4.5 -42q0 -141 72.5 -219.5t216.5 -78.5q140 0 215 77t75 216q0 41 -19 70.5t-47 54t-61 46.5t-61.5 48.5t-47.5 59.5t-19 79q0 42 15.5 79.5t43 65.5t64.5 44t80 16q9 0 18 -0.5t17 -1.5 q39 -6 69 -19t54.5 -33.5t44.5 -48t38 -61.5l-158 -77q-3 24 -11 36.5t-30 24.5q-14 8 -30 8q-13 0 -23 -7.5t-10 -25.5q0 -8 8.5 -19t22.5 -24q18 -15 41 -31.5t45.5 -31.5t41 -27.5t27.5 -20.5q29 -25 46.5 -48t27 -48.5t13 -54.5t3.5 -66q0 -108 -38 -192.5t-105 -142.5 t-156.5 -88t-193.5 -30q-103 0 -192.5 30t-156.5 88t-105.5 142t-38.5 192z" />
<glyph unicode="&#x1058;" d="M-940 -402q0 83 29 150t80 114t120.5 72.5t150.5 25.5q109 0 197 -45.5t142 -141.5q6 -11 11 -22.5t5 -24.5q0 -26 -17 -48t-44.5 -40t-61.5 -32t-68.5 -24t-65 -15t-50.5 -5q-61 0 -118 19.5t-108 51.5q-3 -14 -5 -27t-2 -27q0 -40 14.5 -72.5t39.5 -55t59 -34.5t72 -12 q52 0 95.5 22.5t66.5 70.5l173 -88q-26 -45 -62.5 -78t-80.5 -54t-93 -31.5t-99 -10.5q-81 0 -150.5 25t-120.5 72t-80 114t-29 151zM-659 -232q29 -32 69 -48t82 -16q24 0 48 5t45 18q-25 34 -64 49.5t-81 15.5q-53 0 -99 -24z" />
<glyph unicode="&#x1059;" d="M-897 -400q0 82 27.5 148.5t77 113.5t117 72.5t148.5 25.5q48 0 97.5 -11.5t93.5 -34.5t80 -57.5t57 -80.5q13 -26 13 -52q0 -30 -15 -54.5t-39 -44t-55 -33.5t-63 -23t-63 -13.5t-55 -4.5q-68 0 -133.5 21t-119.5 63q-1 -9 -1 -17.5v-17.5q0 -46 15 -91.5t50 -76.5 q33 23 57.5 41t43.5 31t35 19.5t32 6.5t32.5 -10t35.5 -26t41 -37t49 -43q7 14 7 31q0 14 -5.5 27t-12.5 24l155 54q11 -25 19.5 -51t8.5 -53q0 -47 -16 -83t-44.5 -61t-66.5 -37.5t-83 -12.5l-129 116l-106 -116q-24 0 -46.5 8t-43.5 19q-95 48 -145 131.5t-50 189.5z M-653 -221q32 -42 79.5 -62t98.5 -20q31 0 62 7t56 26q-27 44 -73.5 64.5t-96.5 20.5q-33 0 -66 -8t-60 -28z" />
<glyph unicode="&#x105b;" horiz-adv-x="1780" />
<glyph unicode="&#x105e;" horiz-adv-x="682" />
<glyph unicode="&#x105f;" horiz-adv-x="682" />
<glyph unicode="&#x1060;" horiz-adv-x="682" />
<glyph unicode="&#x1061;" horiz-adv-x="1411" />
<glyph unicode="&#x1062;" horiz-adv-x="389" d="M-40 827v174h242q33 0 53.5 -10t31 -23.5t14 -28.5t3.5 -25v-910h-198v823h-146z" />
<glyph unicode="&#x1065;" horiz-adv-x="1366" />
<glyph unicode="&#x1071;" horiz-adv-x="682" />
<glyph unicode="&#x1072;" horiz-adv-x="682" />
<glyph unicode="&#x1073;" horiz-adv-x="682" />
<glyph unicode="&#x1075;" horiz-adv-x="1172" d="M85 531q0 106 35 196.5t98 156.5t151.5 103t196.5 37q113 0 203 -38.5t152 -107t95 -162t33 -203.5q0 -76 -15.5 -147.5t-48 -133.5t-82.5 -113.5t-120 -87.5q-26 -13 -52 -24.5t-52 -22.5l-80 165q66 29 112 62.5t75 76.5t42 98t13 127q0 64 -16 124.5t-49.5 107 t-85.5 74.5t-124 28q-67 0 -118 -26t-85.5 -70t-52.5 -101t-18 -119q0 -16 18.5 -34t45.5 -39t59.5 -46t59.5 -56t45.5 -69t18.5 -85q0 -46 -16 -84t-44 -65t-65.5 -41.5t-81.5 -14.5q-83 0 -136.5 30.5t-90.5 103.5l154 96q4 -23 21.5 -38t39.5 -15q14 0 25.5 8t11.5 23 q0 27 -18.5 41t-37.5 27q-34 22 -72 48t-70 57t-53 69t-21 84z" />
<glyph unicode="&#x1076;" horiz-adv-x="1122" d="M85 821q0 44 14.5 77.5t38.5 59t55.5 45t66.5 36.5l89 -157q-21 -7 -41.5 -22t-20.5 -41q0 -13 8 -23t21 -12q38 26 64 54t44.5 55t32 51t27 42.5t30 29t39.5 10.5q114 0 204 -39t152 -107.5t95 -162.5t33 -204t-33 -204t-95.5 -163t-152 -108t-203.5 -39 q-82 0 -157.5 25t-137.5 70.5t-106 111t-64 146.5q20 51 67 88.5t105.5 62.5t120 37t110.5 12q91 0 176 -34.5t152 -111.5q13 31 15 59.5t2 46.5q0 53 -12.5 107.5t-38.5 101.5t-67.5 81t-98.5 46q-27 -39 -58 -81t-68 -76.5t-81.5 -56.5t-97.5 -22q-44 0 -85 15t-73 43 t-51.5 66.5t-19.5 84.5zM309 323q35 -72 99.5 -112.5t144.5 -40.5q54 0 104.5 19t88.5 59q-20 35 -48 60t-61 41.5t-70 24t-76 7.5q-48 0 -96 -13t-86 -45z" />
<glyph unicode="&#x1077;" horiz-adv-x="1135" d="M85 514q0 110 33 203.5t95 161.5t151.5 107t202.5 39t203 -38.5t152 -107t95 -162t33 -203.5q0 -72 -17 -151t-52 -150t-89.5 -126.5t-128.5 -81.5q-22 -8 -45 -8q-45 0 -73.5 17t-44 45.5t-21.5 64.5t-6 73q0 71 13.5 130.5t45 105t83 76t126.5 43.5q-4 60 -23.5 113.5 t-53.5 94t-83 64.5t-114 24q-71 0 -123 -28t-85.5 -74.5t-50 -106.5t-16.5 -124l185 -148q32 -26 46 -65.5t14 -79.5q0 -44 -14.5 -84.5t-41 -71.5t-64 -49.5t-84.5 -18.5q-34 0 -67.5 9t-63.5 25.5t-54.5 40.5t-40.5 55l162 92q8 -20 25 -32.5t39 -12.5q14 0 21.5 9t7.5 22 q0 8 -3.5 18.5t-10.5 15.5l-258 189q-2 21 -3.5 42.5t-1.5 42.5zM682 231q0 -29 6 -56q40 23 66.5 53.5t43.5 65.5t26.5 75t16.5 83q-76 -26 -117.5 -84t-41.5 -137z" />
<glyph unicode="&#x1078;" horiz-adv-x="1899" d="M85 512q0 110 33 203.5t95 162t151.5 107t203.5 38.5q112 0 211 -44t169 -135q70 92 169 136t214 44q113 0 202.5 -39t152 -107.5t95.5 -162t33 -203.5q0 -109 -33 -203t-95 -163t-152 -108t-203 -39q-115 0 -205 40t-152 109.5t-94.5 163t-32.5 200.5q0 66 -16 127.5 t-49.5 109t-86.5 75.5t-127 28q-73 0 -126 -28.5t-87.5 -76t-51 -108.5t-16.5 -127t16.5 -127.5t50.5 -109t87.5 -76t126.5 -28.5q25 0 50 4t50 9l36 -169q-34 -7 -68 -11t-68 -4q-113 0 -202.5 39t-152 108t-95.5 162.5t-33 202.5zM1049 546q0 -70 13 -137.5t45 -120.5 t86.5 -85.5t137.5 -32.5q73 0 126 29t87.5 77t51 109.5t16.5 126.5q0 66 -16.5 127.5t-51 109t-87.5 76t-126 28.5q-64 0 -116 -25t-89 -67.5t-57 -98t-20 -116.5z" />
<glyph unicode="&#x1079;" horiz-adv-x="2526" />
<glyph unicode="&#x107a;" horiz-adv-x="1883" d="M85 513q0 109 33 202.5t95 162t151.5 107.5t202.5 39q146 0 259.5 -68t175.5 -202q15 -34 26.5 -69.5t11.5 -73.5q0 -25 -2 -50t-2 -50q0 -65 17 -125t51.5 -106.5t87 -74t124.5 -27.5t124.5 28t86.5 75t50.5 107.5t16.5 125.5t-16.5 126t-50.5 108t-86.5 75.5 t-124.5 28.5q-27 0 -54 -4.5t-53 -10.5l-31 173q34 7 68.5 11.5t69.5 4.5q113 0 202.5 -39t151.5 -108t95 -162.5t33 -202.5t-33 -203t-95 -162t-151.5 -107t-202.5 -39q-73 0 -144 19t-133 60v-650q0 -2 0.5 -3.5t0.5 -3.5l345 1v-171h-404q-27 0 -53 9t-45.5 26 t-31.5 40.5t-12 52.5v1240q0 16 -9.5 38.5t-16.5 36.5q-38 75 -99 115t-147 40q-73 0 -126.5 -28.5t-88 -76t-51 -108.5t-16.5 -127t14 -121.5t44.5 -97.5t79 -68t117.5 -31h10.5t19.5 1t22.5 2t18.5 4l50 -185q-23 -8 -46.5 -12t-47.5 -4q-113 0 -202.5 39t-151.5 108 t-95 162.5t-33 202.5z" />
<glyph unicode="&#x107b;" horiz-adv-x="1902" d="M85 513q0 110 33 203.5t95.5 162t152.5 107.5t203 39q112 0 212.5 -44.5t169.5 -135.5q70 91 169.5 135t212.5 44t202.5 -39t152 -107.5t96 -162t33.5 -202.5t-33.5 -203t-96 -163t-152 -108t-202.5 -39q-60 0 -119 12.5t-111 43.5q-5 23 -9 47t-4 48q0 83 38.5 147 t99 107.5t136 66t149.5 22.5q26 0 51 -2t50 -6q0 7 0.5 13.5t0.5 13.5q0 66 -16.5 127.5t-51 109t-88 76t-126.5 28.5q-74 0 -127 -28.5t-87 -76t-50 -109t-16 -127.5q0 -107 -32.5 -200.5t-95 -163.5t-152.5 -110t-204 -40q-113 0 -203 39.5t-152.5 108.5t-95.5 163 t-33 203zM286 513q0 -66 16.5 -128t51.5 -109.5t88.5 -76.5t126.5 -29q82 0 136 32t86.5 84t45.5 118t13 133q0 63 -18.5 120.5t-54.5 101.5t-88 70t-120 26q-73 0 -126.5 -29t-88 -76.5t-51.5 -109t-17 -127.5zM1292 173q11 -2 20.5 -2h20.5q78 0 140.5 38.5t98.5 107.5 q-14 2 -29 4t-30 2q-34 0 -71 -9t-68.5 -28t-54 -47t-27.5 -66z" />
<glyph unicode="&#x107c;" horiz-adv-x="2049" d="M85 687q54 161 171 249.5t289 88.5q95 0 175.5 -28t142 -80.5t102 -127.5t56.5 -169h2q16 94 57.5 169t103.5 127.5t143 80.5t176 28q171 0 289.5 -88.5t171.5 -249.5l-196 -43q-15 45 -39.5 84t-58 67t-75.5 44t-92 16q-55 0 -101 -18.5t-80.5 -51t-57.5 -77t-34 -96.5 q47 -1 110 -3.5t132.5 -10t139.5 -20.5t132 -35.5t110.5 -56t73.5 -80.5q9 -17 15 -35.5t6 -38.5q0 -21 -5.5 -41t-13.5 -39q-27 -61 -72.5 -108t-103 -79.5t-122 -49t-129.5 -16.5q-100 0 -181.5 29.5t-142 84.5t-100 132.5t-55.5 174.5h-2q-14 -97 -53.5 -174.5 t-100.5 -132.5t-142.5 -84.5t-180.5 -29.5q-65 0 -130 16.5t-122 48.5t-102.5 79.5t-72.5 108.5q-8 19 -13.5 39t-5.5 41q0 40 17 68t44 56q34 34 83 59t106.5 42t121 27.5t125.5 16.5t119 8t103 3q-10 52 -33.5 96.5t-58 77t-80 51t-101.5 18.5q-51 0 -93 -16t-75 -44.5 t-57.5 -67.5t-39.5 -85zM302 329q0 -7 2 -10q38 -72 98.5 -110.5t142.5 -38.5q62 0 110 20.5t82.5 57t56 86t30.5 106.5q-33 0 -74.5 -1.5t-87.5 -4.5t-93.5 -9t-92 -16.5t-84 -25.5t-68.5 -36q-6 -5 -11.5 -9t-10.5 -9zM1226 440q8 -57 29.5 -106.5t56 -86t82.5 -57 t109 -20.5q85 0 142 39t99 109q2 4 3 7q1 2 1 7q-42 39 -108 60t-139.5 31.5t-146.5 13t-128 3.5z" />
<glyph unicode="&#x107d;" horiz-adv-x="1868" d="M85 511q0 22 2.5 56t9 72t17.5 76t28 68.5t41 49.5t55 19q32 0 57.5 -16t49.5 -35.5t47.5 -36t50.5 -16.5q23 0 39 16.5t16 39.5q0 31 -20 43.5t-47 12.5q-37 0 -66 -16l-9 171q16 2 31 4.5t31 4.5q8 0 15.5 0.5t15.5 0.5q49 0 94 -15.5t79.5 -44t55 -70t20.5 -92.5 t-22 -93t-57.5 -71t-81.5 -45t-94 -16q-38 0 -75.5 10t-72.5 27q-5 -26 -6.5 -52t-1.5 -52q0 -66 16 -127.5t50.5 -109t87.5 -76.5t126 -29q91 0 162 43t121 118q-14 45 -20 90t-6 92q0 110 33 203.5t95.5 162t152 107t202.5 38.5q91 0 163.5 -23t129.5 -67.5t98.5 -109 t71.5 -148.5l-193 -51q-18 51 -40.5 93t-54 72t-74 47t-101.5 17q-73 0 -126.5 -28.5t-88 -76t-51 -109t-16.5 -127.5q0 -5 0.5 -11t0.5 -11q75 41 157.5 61t167.5 20q51 0 104.5 -9t104 -28t94 -49.5t74.5 -73.5q13 -17 21.5 -37.5t8.5 -41.5q0 -25 -9 -49 q-24 -68 -70 -121t-105.5 -89t-128.5 -55t-138 -19q-102 0 -196.5 37.5t-163.5 114.5q-75 -75 -174.5 -113.5t-205.5 -38.5q-112 0 -201.5 39t-152 107.5t-95.5 162.5t-33 203zM1075 302q36 -65 97 -98.5t135 -33.5q83 0 144 43t98 115q-40 38 -92 56t-106 18 q-75 0 -146.5 -26t-129.5 -74z" />
<glyph unicode="&#x107e;" horiz-adv-x="1855" d="M85 511q0 22 2.5 56t9 72t17.5 76t28 68.5t41 49.5t55 19q26 0 48 -11.5t42 -27.5t39.5 -32t40.5 -25q18 -8 35 -8q23 0 39 16.5t16 39.5q0 30 -20 43t-47 13q-37 0 -66 -16l-9 171q16 2 31 4.5t31 4.5q8 0 15.5 0.5t15.5 0.5q48 0 93 -15.5t79.5 -44t55.5 -70t21 -92.5 t-22 -93t-57.5 -71t-81.5 -45t-94 -16q-38 0 -75.5 10t-72.5 27q-5 -26 -6.5 -52t-1.5 -52q0 -66 16 -127.5t50.5 -109t87.5 -76.5t126 -29q91 0 162 43t121 118q-14 45 -20 90t-6 92q0 110 33 203.5t95.5 162t152 107t202.5 38.5q90 0 162.5 -23t129.5 -67t99 -109t72 -149 l-193 -51q-18 50 -40.5 92t-54 72.5t-74.5 47.5t-101 17q-73 0 -126.5 -28.5t-88 -76t-51 -109t-16.5 -127.5q0 -5 0.5 -11t0.5 -11q75 41 157.5 61t167.5 20q51 0 105 -8.5t104 -28t93.5 -49.5t74.5 -74q13 -17 21.5 -37.5t8.5 -41.5q0 -25 -9 -49q-24 -68 -67.5 -121 t-103.5 -89.5t-133.5 -55.5t-156.5 -19q-14 0 -28.5 0.5t-28.5 1.5l-125 -594q-15 -66 -59 -103.5t-114 -37.5q-22 6 -70.5 18.5t-103 27t-103 27t-70.5 18.5l55 163l283 -77q2 10 5 19.5t5 19.5l132 577q-68 37 -119 93q-75 -75 -175 -113.5t-205 -38.5q-112 0 -201.5 39 t-152 107.5t-95.5 162.5t-33 203zM1075 302q36 -64 97.5 -98t134.5 -34q83 0 144 43t98 115q-40 38 -92 56t-106 18q-75 0 -146.5 -26t-129.5 -74z" />
<glyph unicode="&#x107f;" horiz-adv-x="1159" d="M85 534q0 171 75 298.5t230 204.5q216 -104 216 -345q0 -136 -71.5 -230.5t-205.5 -126.5q36 -77 101 -119t150 -42q77 0 132 30.5t90.5 81t52 115.5t16.5 133q0 62 -10.5 115t-35 97.5t-64.5 79.5t-98 62l99 154q164 -76 238 -203.5t74 -304.5q0 -112 -33 -209.5 t-96 -169.5t-155 -113.5t-210 -41.5t-210 41t-155.5 113t-96.5 169.5t-33 210.5zM285 527q0 -40 6 -79q54 21 86 56t48 76t19.5 83.5t-1 78t-14.5 60t-19 29.5q-34 -28 -58 -64t-39 -76t-21.5 -81.5t-6.5 -82.5z" />
<glyph unicode="&#x1080;" horiz-adv-x="1890" d="M85 650q25 87 67.5 156t101.5 118t135 75t167 26q115 0 205 -40t152 -109t94.5 -162.5t32.5 -201.5q0 -65 16.5 -126.5t51 -109.5t87.5 -77t126 -29q74 0 127 28.5t87.5 76.5t50.5 109.5t16 127.5q0 65 -16.5 126.5t-51 109.5t-87.5 77t-126 29q-21 0 -44 -3 q-32 -4 -64 -12l-64 -16l-37 169q52 12 103.5 22t105.5 10q112 0 201.5 -39t152.5 -107.5t96.5 -162t33.5 -203.5q0 -109 -33.5 -202.5t-96 -162.5t-152 -108t-202.5 -39q-112 0 -212.5 44.5t-169.5 135.5q-69 -88 -170.5 -134.5t-212.5 -46.5q-169 0 -283.5 83t-172.5 242 q-5 13 -5 31q0 5 1 10.5t3 10.5q13 27 42.5 49t68.5 39.5t83.5 31t88 22t82.5 13t66 4.5q81 0 159 -27.5t135 -87.5q11 23 13 45t2 47q0 67 -16.5 128.5t-51 109t-88 76t-127.5 28.5q-61 0 -107 -20t-79 -54.5t-55.5 -81.5t-37.5 -101zM316 313q35 -69 99.5 -106t140.5 -37 q61 0 114.5 22t91.5 71q-42 53 -103 77t-127 24q-115 0 -216 -51z" />
<glyph unicode="&#x1081;" horiz-adv-x="1133" d="M-68 -672l69 174q39 -17 77 -35t78 -32q3 13 6 25.5t7 25.5l139 558q-61 35 -105 85.5t-72 111t-41 127.5t-13 134q0 111 32.5 206.5t94.5 166t152.5 110.5t205.5 40q116 0 206 -40t152.5 -110.5t95 -166t32.5 -206.5q0 -79 -16 -151t-50 -134t-87 -112t-126 -86 q-15 -8 -30.5 -14.5t-30.5 -14.5l-81 168q115 50 163.5 136t48.5 208q0 65 -15.5 127t-49.5 110t-86 77.5t-126 29.5q-80 0 -141.5 -40t-95.5 -112q65 -11 114.5 -43.5t83 -79t50.5 -104t17 -120.5q0 -33 -4.5 -65t-15.5 -64q-4 -11 -9 -21.5t-8 -21.5l-194 -785 q-15 -63 -55 -103.5t-110 -40.5q-35 0 -68.5 7.5t-66.5 19t-64.5 26t-62.5 29.5zM290 505q0 -6 1 -12q3 -71 26 -139t71 -122q24 24 31 55t7 63v12t-1 11q-3 29 -12.5 56.5t-26 49.5t-40.5 37t-56 19v-18v-12z" />
<glyph unicode="&#x1082;" d="M-901 -407q0 84 28 152t78.5 115.5t119.5 73.5t152 26h80v-163h-80q-46 0 -81 -15.5t-58 -42.5t-35 -64.5t-12 -81.5t11.5 -81.5t35 -64.5t58 -42.5t81.5 -15.5q65 0 102.5 25t56 62t23 78.5t4.5 73.5l193 -35q0 -84 -28.5 -152t-78.5 -115.5t-120 -73.5t-152 -26 t-151.5 26t-119.5 74t-78.5 115.5t-28.5 151.5z" />
<glyph unicode="&#x1083;" horiz-adv-x="387" d="M-44 824v177h222q40 0 64 -11.5t37.5 -28t18 -35t4.5 -32.5v-1465q0 -2 0.5 -3.5t0.5 -3.5l228 1v-179h-235q-58 0 -97 19t-62.5 46.5t-33.5 60t-10 59.5v1395h-137z" />
<glyph unicode="&#x1084;" horiz-adv-x="1113" d="M85 369l282 142v3l-282 143q23 86 65.5 154.5t102 116t135.5 73t167 25.5q98 0 175 -27t134.5 -76.5t98 -119.5t65.5 -157l-194 -50q-15 54 -36 101t-53.5 82t-78.5 55.5t-111 20.5q-72 0 -131 -30t-97 -91l281 -146v-155l-280 -142q37 -60 96.5 -90.5t130.5 -30.5 q66 0 112 21t78.5 57t53.5 84.5t36 103.5l193 -54q-25 -87 -65.5 -157.5t-98 -120.5t-134.5 -77.5t-175 -27.5q-91 0 -168 25.5t-136.5 73t-101.5 116t-64 155.5z" />
<glyph unicode="&#x1085;" d="M-851 1285q0 52 25.5 87t70.5 58q-41 27 -67 62.5t-26 86.5q0 64 32.5 105.5t81 66t106.5 34.5t109 10q61 0 119.5 -12t105 -40.5t75 -76t28.5 -118.5h-193q0 31 -12.5 47.5t-32 24.5t-43.5 9.5t-47 1.5q-12 0 -35 -1t-45 -6t-38.5 -15.5t-16.5 -28.5q0 -30 20 -49 t48.5 -29.5t60 -14t53.5 -3.5v-107q-22 0 -53.5 -2.5t-61 -12.5t-50 -28t-20.5 -50q0 -21 17.5 -33t41 -17t48 -6t39.5 -1q37 0 61 5t38.5 15t20.5 25t6 35l193 -5q0 -71 -28.5 -117t-75 -72.5t-105 -37t-118.5 -10.5q-42 0 -87 5t-86.5 19t-77 39.5t-57.5 66.5 q-11 20 -17.5 43.5t-6.5 46.5z" />
<glyph unicode="&#x1086;" d="M-724 1572q0 53 18.5 95.5t51 72t77 45t95.5 15.5t95.5 -16t76.5 -45.5t50.5 -71.5t18.5 -95q0 -111 -27 -190t-77.5 -139.5t-122 -109t-160.5 -98.5l-76 127q66 33 121.5 74.5t93.5 106.5q-51 1 -94 17.5t-74.5 46t-49 71.5t-17.5 94zM-579 1569q0 -43 22.5 -69 t67.5 -26t67 26t22 69q0 42 -22.5 68t-66.5 26q-45 0 -67.5 -25.5t-22.5 -68.5z" />
<glyph unicode="&#x1087;" horiz-adv-x="568" d="M81 -187q32 16 64.5 42t59.5 57t46.5 63.5t25.5 61.5q-42 1 -77 16t-60.5 41t-40 63t-14.5 83q0 47 15.5 85t42 64t63 40t78.5 14t78.5 -14t63.5 -40.5t42 -64t15 -84.5q0 -92 -25 -170.5t-71 -143t-110.5 -116t-144.5 -90.5zM223 240q0 -25 15.5 -41t40.5 -16t41 16 t16 41t-16 41t-41 16t-40.5 -16t-15.5 -41z" />
<glyph unicode="&#x1088;" horiz-adv-x="568" d="M81 -187q32 16 64.5 42t59.5 57t46.5 63.5t25.5 61.5q-42 1 -77 16t-60.5 41t-40 63t-14.5 83q0 47 15.5 85t42 64t63 40t78.5 14t78.5 -14t63.5 -40.5t42 -64t15 -84.5q0 -92 -25 -170.5t-71 -143t-110.5 -116t-144.5 -90.5zM85 832q0 47 15.5 84.5t42 63.5t63 40 t78.5 14t78.5 -14t63.5 -40t42 -63.5t15 -84.5t-15 -84.5t-42 -64t-63.5 -40.5t-78.5 -14t-78.5 14t-63 40.5t-42 64t-15.5 84.5zM223 240q0 -25 15.5 -41t40.5 -16t41 16t16 41t-16 41t-41 16t-40.5 -16t-15.5 -41zM223 835q0 -25 15.5 -41t40.5 -16t41 16t16 41t-16 41 t-41 16t-40.5 -16t-15.5 -41z" />
<glyph unicode="&#x1089;" horiz-adv-x="572" d="M85 217q0 44 15 80.5t42 63t64 41.5t80 15t80 -15t64 -41.5t42 -63t15 -80.5q0 -43 -15 -79.5t-42 -63.5t-63.5 -42t-80.5 -15q-43 0 -80 15t-64 41.5t-42 63.5t-15 80zM230 217q0 -25 15.5 -40.5t40.5 -15.5t41 15.5t16 40.5q0 26 -16 42t-41 16t-40.5 -16t-15.5 -42z " />
<glyph unicode="&#x108a;" horiz-adv-x="730" d="M85 216q0 28 4.5 62.5t23.5 64.5t56 50t102 20q32 0 59 -13.5t46.5 -35.5t30 -51t10.5 -59q44 23 65.5 61.5t32.5 80.5l130 5q-15 -73 -44 -142t-75 -121.5t-109 -84.5t-146 -32q-55 0 -91 20t-57 50t-29.5 64t-8.5 61zM85 811q0 28 4.5 62.5t23.5 64.5t56 50t102 20 q32 0 59 -13.5t46.5 -35.5t30 -51t10.5 -59q22 11 38 28.5t27.5 38t19 42.5t13.5 43l130 5q-15 -73 -43.5 -143t-74.5 -125t-109 -88.5t-147 -33.5q-55 0 -91 20t-57 50t-29.5 64t-8.5 61zM200 226q0 -29 15.5 -47t40.5 -18q7 0 11 1q21 4 33 21t12 43q0 29 -15 47t-41 18 q-25 0 -40.5 -18t-15.5 -47zM200 821q0 -29 15.5 -47t40.5 -18q7 0 11 1q21 4 33 21t12 43q0 29 -15 47t-41 18q-25 0 -40.5 -18t-15.5 -47z" />
<glyph unicode="&#x108b;" horiz-adv-x="709" />
<glyph unicode="&#x108c;" horiz-adv-x="1339" />
<glyph unicode="&#x108d;" horiz-adv-x="682" />
<glyph unicode="&#x1090;" horiz-adv-x="1234" d="M101 711q0 86 8.5 173t30 167.5t58 150t93 121.5t135.5 81.5t184 29.5t183.5 -29.5t135 -81.5t93 -121.5t58 -150t30 -167.5t8.5 -173t-8.5 -173t-30 -167.5t-58.5 -150.5t-93.5 -122t-134.5 -81.5t-183 -29.5t-184 29.5t-135.5 81.5t-93 122t-58 150t-30 167.5 t-8.5 173.5zM312 711q0 -51 3 -111t13.5 -120.5t30 -117t53 -100t82 -69.5t116.5 -26t116.5 26.5t81.5 70t52.5 100t30 117t13.5 120.5t3 110q0 51 -3 110.5t-13.5 120t-30 117t-52.5 100t-81.5 69.5t-116.5 26t-117 -26t-82 -69.5t-52.5 -100t-30 -116.5t-13.5 -120 t-3 -111z" />
<glyph unicode="&#x1091;" horiz-adv-x="846" d="M63 1088v198l349 148l107 -80l1 -1130l256 120v-202l-261 -135l-201 -9l-1 1195z" />
<glyph unicode="&#x1092;" horiz-adv-x="1337" d="M28 1071l168 113l72 -119q-9 60 5 112.5t44.5 97t75 79.5t96 59t107 37t107.5 13q102 0 193.5 -35t160 -98.5t108.5 -151t40 -192.5q0 -88 -22 -159t-58.5 -129.5t-83 -105.5t-94.5 -87.5t-94.5 -75t-83 -68t-58.5 -66.5t-22 -71q0 -43 21.5 -83.5t46.5 -73.5l-170 -108 q-21 30 -40.5 61.5t-35 65t-25 69t-9.5 72.5q0 58 22.5 106t59 90t83 80t95 77t95 80.5t83 90.5t59 106.5t22.5 128.5q0 62 -22 117t-61 95.5t-93 64t-117 23.5q-61 0 -113 -20t-89 -56.5t-58 -87t-21 -112.5q0 -49 14 -96t35 -91l-203 -87z" />
<glyph unicode="&#x1093;" horiz-adv-x="1234" d="M101 0v45q0 227 49 419.5t140.5 363t221.5 324.5t292 303h288q-67 -63 -133.5 -127t-130 -131t-123.5 -137t-114 -145h26q119 0 203.5 -43t142 -115t91.5 -166t51.5 -195.5t22.5 -204t5 -191.5h-214q0 38 -1 90t-4.5 111t-11.5 121t-22.5 121t-36.5 111.5t-53.5 92 t-74 62.5t-98.5 23q-43 0 -79.5 -14.5t-65 -40t-48.5 -60t-31 -73.5q-35 -134 -56 -269.5t-21 -274.5h-215z" />
<glyph unicode="&#x1094;" horiz-adv-x="1485" d="M60 0l748 1434l222 -2l72 -1215l314 85v-189l-513 -137l-62 1075l-550 -1051h-231z" />
</font>
</defs>
</svg>
