<?xml version="1.0" standalone="no"?>
<!DOCTYPE svg PUBLIC "-//W3C//DTD SVG 1.1//EN" "http://www.w3.org/Graphics/SVG/1.1/DTD/svg11.dtd" >
<svg xmlns="http://www.w3.org/2000/svg" xmlns:xlink="http://www.w3.org/1999/xlink" version="1.1">
<metadata></metadata>
<defs>
<font id="aj_13thin" horiz-adv-x="0" >
<font-face units-per-em="2048" ascent="1638" descent="-410" />
<missing-glyph horiz-adv-x="659" />
<glyph unicode="&#x107a;&#x102f;" horiz-adv-x="1931" d="M111 512q0 104 29 197.5t86.5 163.5t142.5 111t197 41q141 0 245 -68t162 -196q21 -46 29 -79t10 -66t-0.5 -72.5t-2.5 -99.5q0 -10 3 -25.5t7.5 -31.5t9 -31.5t8.5 -25.5q41 -115 124 -174t205 -59q91 0 158.5 33.5t111.5 90.5t66 132.5t22 159.5t-22 159.5t-66 132.5 t-111.5 91t-158.5 34q-33 0 -65.5 -5t-64.5 -13l-20 95q37 9 74.5 14.5t75.5 5.5q111 0 196 -41.5t142.5 -112t87 -163.5t29.5 -197t-29.5 -197.5t-87 -163.5t-142.5 -111t-196 -41q-108 0 -201 42.5t-156 133.5v-776q0 -54 54 -54h181v-93h-235q-19 0 -36 7.5t-29.5 20 t-19.5 29.5t-7 36v1287q0 11 -3 24t-8 26.5t-10 26t-10 21.5q-48 100 -128.5 150.5t-191.5 50.5q-92 0 -160.5 -34t-113.5 -91.5t-67 -133.5t-22 -161q0 -87 22.5 -163.5t68 -134t113.5 -91t159 -33.5q14 0 28.5 4t28.5 9l29 -88q-20 -8 -42 -12.5t-44 -4.5q-112 0 -197 41 t-142.5 111.5t-86.5 164t-29 197.5zM1429 -42h95v-614h208v-95h-253q-50 0 -50 50v659z" />
<glyph unicode="&#x107a;&#x1030;" horiz-adv-x="1931" d="M111 512q0 104 29 197.5t86.5 163.5t142.5 111t197 41q58 0 113 -13t103.5 -39t89.5 -64.5t71 -89.5q31 -52 44.5 -108.5t18.5 -116.5q1 -11 1 -23t1 -24q1 -23 1 -47v-47v-9q7 -75 34.5 -138.5t73 -110t108.5 -72.5t141 -26q91 0 158.5 33.5t111.5 90.5t66 132.5 t22 159.5t-22 159.5t-66 132.5t-111.5 91t-158.5 34q-33 0 -65.5 -5t-64.5 -13l-20 95q38 9 75 14.5t75 5.5q111 0 196 -41.5t142.5 -112t87 -163.5t29.5 -197t-29.5 -197.5t-87 -163.5t-142.5 -111t-196 -41q-108 0 -201 42.5t-156 133.5v-728v-48q0 -54 54 -54h181v-93 h-235q-19 0 -36 7.5t-29.5 20t-19.5 29.5t-7 36v1123q0 44 -1 88.5t-9 89.5q-10 66 -39.5 118.5t-74 89.5t-102 57t-125.5 20q-92 0 -160.5 -34t-113.5 -91.5t-67 -133.5t-22 -161q0 -87 22.5 -164t68 -134t113.5 -90.5t159 -33.5q14 0 28.5 4t28.5 9l29 -88 q-20 -8 -42 -12.5t-44 -4.5q-112 0 -197 41t-142.5 111.5t-86.5 164t-29 197.5zM1306 -42h95v-709h-95v709zM1550 -42h95v-614h208v-95h-253q-50 0 -50 50v659z" />
<glyph unicode="&#x107a;&#x102d;&#x102f;" horiz-adv-x="1931" d="M111 512q0 104 29 197.5t86.5 163.5t142.5 111t197 41q69 0 131 -17.5t114 -51t93.5 -82.5t68.5 -113q18 -36 26.5 -77.5t8.5 -81.5q0 -62 5 -123.5t19 -117.5t38.5 -104.5t64.5 -84t96.5 -55.5t134.5 -20q91 0 158.5 33.5t111.5 90.5t66 132.5t22 159.5t-22 159.5 t-66 132.5t-111.5 91t-158.5 34q-33 0 -65.5 -5t-64.5 -13l-20 95q37 9 74.5 14.5t75.5 5.5q111 0 196 -41.5t142.5 -112t87 -163.5t29.5 -197t-29.5 -197.5t-87 -163.5t-142.5 -111t-196 -41q-108 0 -201 42.5t-156 133.5v-776q0 -54 54 -54h181v-93h-235q-19 0 -36 7.5 t-29.5 20t-19.5 29.5t-7 36v1287q0 26 -10 50.5t-21 47.5q-49 95 -130.5 148t-189.5 53q-92 0 -160.5 -34t-113.5 -91.5t-67 -133.5t-22 -161t22 -161.5t67 -134.5t113.5 -92t160.5 -34q14 0 28.5 4t28.5 9l29 -88q-20 -8 -42 -12.5t-44 -4.5q-112 0 -197 41t-142.5 111.5 t-86.5 164t-29 197.5zM1015 1434q0 81 25 149.5t72 117.5t113.5 76.5t149.5 27.5t149 -27.5t113 -77t72 -117.5t25 -149t-25 -149t-72 -117.5t-113 -77t-149 -27.5t-149.5 27.5t-113.5 76.5t-72 117.5t-25 149.5zM1105 1434q0 -63 18 -114.5t52.5 -88.5t85 -57.5 t114.5 -20.5t114 20.5t84.5 57.5t52.5 89t18 114t-18 114t-52.5 89t-84.5 57.5t-114 20.5t-114.5 -20.5t-85 -57.5t-52.5 -88.5t-18 -114.5zM1429 -42h95v-614h208v-95h-253q-50 0 -50 50v659z" />
<glyph unicode="&#x107a;&#x102d;&#x1030;" horiz-adv-x="1931" d="M111 512q0 104 29 197.5t86.5 163.5t142.5 111t197 41q140 0 245 -68t162 -196q11 -25 17.5 -43.5t11 -34t6 -29.5t1.5 -29q1 -21 -0.5 -47.5t-2.5 -67.5q0 -84 22.5 -159t67.5 -131.5t112.5 -89.5t157.5 -33q91 0 158.5 33.5t111.5 90.5t66 132.5t22 159.5t-22 159.5 t-66 132.5t-111.5 91t-158.5 34q-33 0 -65.5 -5t-64.5 -13l-20 95q37 9 74.5 14.5t75.5 5.5q111 0 196 -41.5t142.5 -112t87 -163.5t29.5 -197t-29.5 -197.5t-87 -163.5t-142.5 -111t-196 -41q-108 0 -201 42.5t-156 133.5v-776q0 -54 54 -54h181v-93h-235q-19 0 -36 7.5 t-29.5 20t-19.5 29.5t-7 36v1287q0 11 -3 24t-8 26.5t-10 26t-10 21.5q-48 99 -129 150t-191 51q-92 0 -160.5 -34t-113.5 -91.5t-67 -133.5t-22 -161q0 -87 22.5 -164t68 -134t113.5 -90.5t159 -33.5q14 0 28.5 4t28.5 9l29 -88q-20 -8 -42 -12.5t-44 -4.5q-112 0 -197 41 t-142.5 111.5t-86.5 164t-29 197.5zM1015 1434q0 81 25 149.5t72 117.5t113.5 76.5t149.5 27.5t149 -27.5t113 -77t72 -117.5t25 -149t-25 -149t-72 -117.5t-113 -77t-149 -27.5t-149.5 27.5t-113.5 76.5t-72 117.5t-25 149.5zM1105 1434q0 -63 18 -114.5t52.5 -88.5 t85 -57.5t114.5 -20.5t114 20.5t84.5 57.5t52.5 89t18 114t-18 114t-52.5 89t-84.5 57.5t-114 20.5t-114.5 -20.5t-85 -57.5t-52.5 -88.5t-18 -114.5zM1306 -42h95v-709h-95v709zM1550 -42h95v-614h208v-95h-253q-50 0 -50 50v659z" />
<glyph unicode="&#x107a;&#x103d;" horiz-adv-x="1931" d="M111 512q0 105 29 198t86.5 163t142.5 111t197 41q69 0 131 -17.5t114 -51t93.5 -82.5t68.5 -113q4 -8 10 -24.5t12 -35t10 -35t4 -24.5v-198q11 -76 37.5 -139.5t70 -109.5t105.5 -72t144 -26q91 0 158.5 33.5t111.5 90.5t66 132.5t22 159.5t-22 159.5t-66 133 t-111.5 91t-158.5 33.5q-34 0 -66 -5t-64 -13l-20 95q37 9 74.5 14.5t75.5 5.5q111 0 196 -41t142.5 -111.5t87 -164t29.5 -197.5t-29.5 -197.5t-87 -163.5t-142.5 -111t-196 -41q-122 0 -211 47t-146 129v-776q0 -54 54 -54h75v-93h-129q-19 0 -36 7.5t-29.5 20t-19.5 29.5 t-7 36v1287q0 7 -3.5 20.5t-9 28.5t-10.5 28.5t-8 20.5q-46 100 -128.5 150.5t-191.5 50.5q-92 0 -160.5 -33.5t-113.5 -91t-67 -134t-22 -161.5t22 -161.5t67 -134.5t113.5 -92t160.5 -34q14 0 28.5 4t28.5 9l29 -88q-20 -7 -42 -12t-44 -5q-112 0 -197 41t-142.5 111.5 t-86.5 163.5t-29 198zM1102 -401q0 79 24.5 145.5t70 114.5t110 74.5t145.5 26.5q80 0 144.5 -27t110 -75t70 -114t24.5 -145t-24.5 -145t-70 -114t-110 -75t-144.5 -27q-81 0 -145.5 26.5t-110 74.5t-70 114.5t-24.5 145.5zM1197 -401q0 -59 17 -108t49.5 -84t80 -54.5 t108.5 -19.5t108 19.5t79.5 54.5t49.5 84t17 108t-17 108t-49.5 84t-79.5 54.5t-108 19.5t-108.5 -19.5t-80 -54.5t-49.5 -84t-17 -108z" />
<glyph unicode="&#x1081;&#x1082;&#x103a;" horiz-adv-x="1129" d="M-7 -684l36 93q42 -19 83.5 -37t87.5 -23q6 9 10 19t6 21l146 635q-67 33 -115 85t-78.5 115.5t-44.5 134.5t-14 142q0 105 28.5 199.5t85.5 166.5t142 114.5t198 42.5t198.5 -42.5t142.5 -114.5t85.5 -166.5t28.5 -199.5q0 -75 -15.5 -147.5t-48 -136t-83 -115.5 t-121.5 -86l-43 91q59 27 99 69.5t65 94.5t36 111t11 119q0 84 -21 160.5t-64.5 135t-110.5 93t-159 34.5q-62 0 -114.5 -17.5t-94.5 -50.5t-72.5 -80t-48.5 -105q74 0 129.5 -27t93 -73.5t56.5 -107.5t19 -130q0 -33 -4.5 -65.5t-14.5 -64.5q-4 -13 -9.5 -24.5t-8.5 -24.5 l-170 -735q-6 -27 -13.5 -56.5t-21 -55t-35.5 -42t-57 -16.5q-23 0 -50 7t-54 17.5t-53.5 22t-47.5 20.5zM211 453.5q4 -61.5 22 -120t50 -109t80 -85.5q19 17 32.5 40.5t22.5 50t13.5 54t4.5 52.5q0 50 -15 93t-43.5 74.5t-70 49.5t-93.5 18q-7 -56 -3 -117.5zM235 1424 q0 80 25 147.5t71.5 116.5t112 76t147.5 27q81 0 146.5 -27.5t112 -76.5t72 -116t25.5 -147l-90 -21q0 65 -15.5 120t-48 94.5t-83 61.5t-119.5 22q-63 0 -112.5 -20t-83.5 -56.5t-52 -87.5t-18 -113t18 -113t52 -88t83.5 -57t112.5 -20h45v-90h-45q-82 0 -148 27.5t-112 76 t-71 116t-25 148.5zM439 -394q0 81 25 148.5t71 116t112 76t148 27.5h45v-90h-45q-63 0 -112.5 -20t-83.5 -57t-52 -88t-18 -113t18 -113t52 -87.5t83.5 -56.5t112.5 -20q69 0 119.5 22t83 61.5t48 94.5t15.5 120l90 -21q0 -80 -25.5 -147t-72 -116t-112 -76.5t-146.5 -27.5 q-82 0 -147.5 27t-112 76t-71.5 116.5t-25 147.5z" />
<glyph unicode="&#x1081;&#x1082;" horiz-adv-x="1129" d="M-7 -684l36 93q42 -19 83.5 -37t87.5 -23q6 9 10 19t6 21l146 635q-67 33 -115 85t-78.5 115.5t-44.5 134.5t-14 142q0 105 28.5 199.5t85.5 166.5t142 114.5t198 42.5t198.5 -42.5t142.5 -114.5t85.5 -166.5t28.5 -199.5q0 -75 -15.5 -147.5t-48 -136t-83 -115.5 t-121.5 -86l-43 91q59 27 99 69.5t65 94.5t36 111t11 119q0 84 -21 160.5t-64.5 135t-110.5 93t-159 34.5q-62 0 -114.5 -17.5t-94.5 -50.5t-72.5 -80t-48.5 -105q74 0 129.5 -27t93 -73.5t56.5 -107.5t19 -130q0 -33 -4.5 -65.5t-14.5 -64.5q-4 -13 -9.5 -24.5t-8.5 -24.5 l-170 -735q-6 -27 -13.5 -56.5t-21 -55t-35.5 -42t-57 -16.5q-23 0 -50 7t-54 17.5t-53.5 22t-47.5 20.5zM211 453.5q4 -61.5 22 -120t50 -109t80 -85.5q19 17 32.5 40.5t22.5 50t13.5 54t4.5 52.5q0 50 -15 93t-43.5 74.5t-70 49.5t-93.5 18q-7 -56 -3 -117.5zM468 -408 q0 81 25 148.5t71 116t112 76t148 27.5h45v-90h-45q-63 0 -112.5 -20t-83.5 -57t-52 -88t-18 -113t18 -113t52 -87.5t83.5 -56.5t112.5 -20q69 0 119.5 22t83 61.5t48 94.5t15.5 120l90 -21q0 -80 -25.5 -147t-72 -116t-112 -76.5t-146.5 -27.5q-82 0 -147.5 27t-112 76 t-71.5 116.5t-25 147.5z" />
<glyph unicode="&#x103b;&#x103d;" horiz-adv-x="292" d="M-883 -399q0 78 24 143t68.5 112t108 73t142.5 26t142 -26.5t107.5 -73.5t68.5 -112t24 -142q0 -16 -1 -32t-4 -32l285 -185v1662h100v-1772h-107l-306 195q-21 -47 -53 -82.5t-72 -59.5t-86.5 -36t-97.5 -12q-79 0 -142.5 26t-108 73t-68.5 112t-24 143zM-793 -399 q0 -59 17 -107t49.5 -83t79.5 -54t107 -19t107 19t79 54t49 83t17 107q0 58 -17 106.5t-49 83.5t-79 54t-107 19t-107 -19t-79.5 -54t-49.5 -83.5t-17 -106.5z" />
<glyph unicode="&#xd;" horiz-adv-x="682" />
<glyph unicode="&#xa;" horiz-adv-x="682" />
<glyph horiz-adv-x="682" />
<glyph unicode=" "  horiz-adv-x="659" />
<glyph unicode="&#x09;" horiz-adv-x="659" />
<glyph unicode="&#xa0;" horiz-adv-x="659" />
<glyph unicode="!" horiz-adv-x="731" d="M247 103q0 42 26 67.5t68 25.5t67.5 -25.5t25.5 -67.5t-25.5 -68t-67.5 -26q-43 0 -68.5 25.5t-25.5 68.5zM263 1437h154l-42 -1065h-70z" />
<glyph unicode="&#x22;" horiz-adv-x="659" d="M127 1398h137l-32 -408h-72zM371 1398h137l-32 -408h-72z" />
<glyph unicode="#" horiz-adv-x="1424" d="M82 491v100h320l80 310h-295v100h321l99 385h104l-99 -385h303l99 385h104l-99 -385h290v-100h-316l-80 -310h290v-100h-316l-126 -491h-104l126 491h-303l-126 -491h-104l126 491h-294zM506 591h303l80 310h-303z" />
<glyph unicode="$" horiz-adv-x="1111" d="M85 451l97 -1q0 -78 11.5 -136t43 -96t87.5 -56.5t146 -18.5l-1 568q-18 2 -36 4.5t-36 5.5q-61 11 -111 38t-85.5 67.5t-54.5 94t-19 116.5q0 76 25.5 138t71.5 107t108.5 71t136.5 30v156h97v-153q183 -6 278 -105t101 -281l-98 -3q-1 68 -18 120.5t-51 89.5 t-86.5 57.5t-125.5 23.5v-491q42 -5 83.5 -9.5t83.5 -12.5q69 -12 122.5 -42.5t90 -76.5t55 -105.5t18.5 -128.5q0 -76 -24 -145t-69 -120.5t-109.5 -82t-144.5 -30.5h-105v-201h-97v202q-108 0 -181.5 25.5t-119 76.5t-65 127t-19.5 177zM224 1039q0 -43 13.5 -80.5t38 -66 t59 -48t76.5 -26.5q14 -2 29 -4t29 -4v474q-52 -4 -97 -22t-78 -49.5t-51.5 -75.5t-18.5 -98zM566 698l1 -556h105q59 0 105.5 23t78.5 62t49 89.5t17 105.5q0 49 -13 92t-38.5 76.5t-63 56t-87.5 31.5q-38 7 -77 11t-77 9z" />
<glyph unicode="%" horiz-adv-x="1683" d="M166 1084q0 61 14.5 125t46 116t82 85.5t122.5 33.5t122.5 -33.5t82 -85.5t46 -116t14.5 -125t-14.5 -125t-46 -116t-82 -85.5t-122.5 -33.5t-122.5 33.5t-82 85.5t-46 116t-14.5 125zM266 1084q0 -38 7.5 -83.5t26.5 -84.5t51 -65.5t80 -26.5t80 26.5t51 65.5t26.5 84.5 t7.5 83.5t-7.5 83.5t-26.5 84.5t-51 65.5t-80 26.5t-80 -26.5t-51 -65.5t-26.5 -84.5t-7.5 -83.5zM283 0l886 1434h118l-886 -1434h-118zM871 375q0 61 14.5 125t46 116t82 85.5t122.5 33.5t122.5 -33.5t82 -85.5t46 -116t14.5 -125t-14.5 -125t-46 -116t-82 -85.5 t-122.5 -33.5t-122.5 33.5t-82 85.5t-46 116t-14.5 125zM971 375q0 -38 7.5 -83.5t26.5 -84.5t51 -65.5t80 -26.5t80 26.5t51 65.5t26.5 84.5t7.5 83.5t-7.5 83.5t-26.5 84.5t-51 65.5t-80 26.5t-80 -26.5t-51 -65.5t-26.5 -84.5t-7.5 -83.5z" />
<glyph unicode="&#x26;" horiz-adv-x="1283" d="M83 371q0 82 31 142t81 105.5t113 80.5t127 67q-37 37 -73 72.5t-64 75t-45 85.5t-17 103q0 73 25 134.5t69 106t105.5 69.5t134.5 25t133.5 -25t103.5 -70t67 -106.5t24 -133.5t-24.5 -127.5t-66 -99t-95.5 -77.5t-113 -62l388 -425q19 45 23 90q8 59 -3.5 118 t-41.5 109h112q36 -84 36 -177q1 -57 -12.5 -113t-40.5 -107l211 -231h-136l-134 147q-40 -45 -90.5 -78.5t-106.5 -55.5t-116 -33t-120 -11q-85 0 -171 28t-156 80t-114 126.5t-44 167.5zM184 372q0 -61 28.5 -112.5t73.5 -90.5t101.5 -63.5t111.5 -31.5q18 -2 36 -3t36 -1 q50 0 100.5 9t97.5 27.5t89 47.5t75 68l-427 468q-50 -24 -106.5 -52t-104.5 -65t-79.5 -86t-31.5 -115zM336 1102q0 -47 19 -86.5t47.5 -74t62 -66t63.5 -61.5q47 21 95 46t87 59t63.5 78.5t24.5 104.5q0 51 -16.5 94t-46.5 74.5t-72 49t-93 17.5t-94 -17.5t-74 -49 t-48.5 -74.5t-17.5 -94z" />
<glyph unicode="'" horiz-adv-x="416" d="M127 1398h137l-32 -408h-72z" />
<glyph unicode="(" horiz-adv-x="769" d="M177 570q0 120 19.5 248.5t61.5 251t109 231t163 188.5l64 -76q-87 -73 -147.5 -173t-98 -212.5t-54.5 -230t-17 -226.5q0 -99 14.5 -208.5t48 -214.5t88 -198.5t133.5 -160.5l-64 -76q-88 74 -149.5 175.5t-99 216t-54.5 234.5t-17 231z" />
<glyph unicode=")" horiz-adv-x="769" d="M174 1413l64 76q96 -81 163 -189.5t109.5 -230t61.5 -250t19 -249.5q0 -111 -16.5 -231t-54.5 -234t-99 -215.5t-150 -176.5l-64 76q80 68 134.5 161t87.5 197.5t47.5 214t14.5 209.5q0 110 -17 227.5t-54.5 229.5t-98 211.5t-147.5 173.5z" />
<glyph unicode="*" horiz-adv-x="1007" d="M196 1234l63 90l218 -173l-25 270h117l-22 -270l205 182l65 -87l-236 -159l255 -151l-68 -82l-220 172l21 -267l-110 -1l15 268l-211 -187l-65 82l243 167z" />
<glyph unicode="+" horiz-adv-x="1286" d="M162 526v100h431v432h100v-432h432v-100h-432v-431h-100v431h-431z" />
<glyph unicode="," horiz-adv-x="518" d="M147 -189q19 20 39.5 45.5t38 54t29.5 58.5t15 59q-41 1 -65 27t-24 67q0 42 25.5 67.5t67.5 25.5t68 -25.5t26 -67.5q0 -51 -13 -93.5t-36 -80t-54 -71.5t-68 -66h-49z" />
<glyph unicode="-" horiz-adv-x="1066" d="M162 529v100h727v-100h-727z" />
<glyph unicode="." horiz-adv-x="470" d="M131 101q0 48 28 76t76 28q47 0 76 -28t29 -76q0 -47 -29 -75.5t-76 -28.5q-48 0 -76 28.5t-28 75.5z" />
<glyph unicode="/" horiz-adv-x="829" d="M100 0l599 1434h106l-599 -1434h-106z" />
<glyph unicode="0" horiz-adv-x="1186" d="M125 711q0 80 7 164.5t25.5 164.5t51 152t84.5 126t126 85.5t174 31.5t173.5 -31.5t125.5 -85.5t85 -126t51.5 -152t25.5 -165t7 -164t-7 -163.5t-25.5 -165t-51.5 -152.5t-85 -126.5t-125.5 -86t-173.5 -31.5t-174 31.5t-126 85.5t-84.5 126t-51 152.5t-25.5 165.5 t-7 164zM222 711q0 -64 4.5 -135.5t17.5 -141t38 -133t66.5 -112t101.5 -77t143 -28.5t143 29t101 77.5t66 112t38 133t17.5 141t4.5 134.5q0 64 -4.5 135t-17.5 140.5t-38 133t-66 112t-101 77t-143 28.5q-84 0 -144 -28.5t-101 -77t-66 -111.5t-38.5 -132.5t-17.5 -141 t-4 -135.5z" />
<glyph unicode="1" horiz-adv-x="774" d="M125 1122v98q60 0 110.5 11.5t93.5 35.5t79.5 60.5t69.5 87.5l97 1v-1416h-97v1258q-69 -69 -155.5 -102.5t-197.5 -33.5z" />
<glyph unicode="2" horiz-adv-x="1148" d="M125 1022q0 98 35 177t95 135t140.5 86.5t171.5 30.5q94 0 177 -34t145 -95t98 -145t36 -184q0 -106 -30 -183t-80.5 -133.5t-115.5 -98t-134.5 -77.5t-138.5 -72t-127 -80.5t-99.5 -103.5t-57.5 -142l727 1v-99l-830 -1v22q0 112 34 192t89.5 139t126.5 102t145 82 t145 78t126.5 90t89.5 119.5t34 164.5q0 79 -28.5 145t-77.5 113.5t-114.5 74t-139.5 26.5q-71 0 -134 -22.5t-110.5 -65t-75 -104t-27.5 -139.5q0 -43 9 -87l-93 -18q-11 55 -11 106z" />
<glyph unicode="3" horiz-adv-x="1172" d="M111 405l98 -4q-4 -90 21.5 -151.5t73 -100t114.5 -55.5t146 -18q97 -1 167 27t115 75t66 108t21 126q0 50 -18.5 106t-58 104t-101 81t-148.5 36h-142v97h175q67 6 115.5 30t79 58t44 73.5t10.5 76.5q1 53 -16.5 99t-55.5 81t-98 55t-144 20q-99 0 -158.5 -21t-91.5 -55 t-41.5 -77.5t-7.5 -87.5l-97 -5q-4 78 17.5 141.5t70 108.5t125.5 69.5t183 24.5q107 0 184.5 -28.5t128 -76.5t75 -111.5t24.5 -133.5q3 -38 -6.5 -79t-31.5 -80t-56.5 -73.5t-82.5 -58.5q56 -30 97.5 -73t69 -93t41 -103.5t13.5 -104.5q0 -87 -29.5 -165.5t-88 -138.5 t-146 -95t-204.5 -34t-204 31.5t-143.5 86t-82.5 133.5t-22 175z" />
<glyph unicode="4" horiz-adv-x="1201" d="M125 244l1 98l695 1073l106 -2v-1070h149v-98h-149v-248h-98v248zM243 342l586 1v902q-18 -28 -49 -75.5t-70 -107.5t-83.5 -129t-90.5 -139.5t-90.5 -139t-83.5 -128.5t-70 -108t-49 -76z" />
<glyph unicode="5" horiz-adv-x="1143" d="M125 247l92 32q43 -100 129.5 -151.5t203.5 -51.5q94 0 163.5 31.5t115 85t67.5 124.5t22 149t-22 149t-67.5 124.5t-115 85t-163.5 31.5q-110 0 -187 -46.5t-123 -137.5l-101 14l68 718h736v-97h-645l-46 -463q61 54 137.5 78t160.5 24q115 0 202.5 -38.5t146.5 -104 t89 -152.5t30 -185q0 -97 -30 -184t-89 -153t-146.5 -104.5t-202.5 -38.5q-73 0 -138.5 17.5t-120.5 50.5t-97 81.5t-69 111.5z" />
<glyph unicode="6" horiz-adv-x="1186" d="M125 476q0 120 1.5 238t1.5 238q0 105 32 194t92.5 154.5t146.5 102t194 36.5q75 0 144 -19t126.5 -56t101 -92.5t67.5 -128.5l-92 -31q-19 58 -53.5 101.5t-80 72t-100 42.5t-113.5 14q-110 0 -181.5 -38.5t-113.5 -103.5t-58.5 -150.5t-16.5 -180.5v-83 q68 86 165.5 125t204.5 39q106 0 192.5 -34.5t147.5 -97t94.5 -150t33.5 -192.5q0 -106 -32 -196.5t-92.5 -156.5t-147 -103.5t-196.5 -37.5q-111 0 -198 37t-147 103t-91.5 156.5t-31.5 197.5zM222 510q0 -91 20 -169.5t64.5 -136.5t115 -91t171.5 -33q89 0 158 29.5 t116 82.5t71.5 125.5t24.5 158.5q0 85 -25.5 154.5t-73.5 118.5t-116.5 76t-154.5 27q-75 0 -142.5 -24t-118 -68.5t-80.5 -108t-30 -141.5z" />
<glyph unicode="7" horiz-adv-x="1075" d="M125 1303v97h824l1 -99l-478 -1301h-104l477 1303h-720z" />
<glyph unicode="8" horiz-adv-x="1186" d="M125 415q0 75 18.5 138t52 113.5t80.5 88t104 61.5q-40 20 -73 49t-56.5 66t-36.5 82.5t-13 99.5q0 87 32 152t86 108.5t125 65t149 21.5t149 -22t125 -65.5t86 -108.5t32 -151q0 -108 -49.5 -182t-129.5 -115q57 -24 104 -61.5t80.5 -88t52 -113.5t18.5 -138 q0 -105 -36.5 -187t-99.5 -138t-148.5 -85.5t-183.5 -29.5t-183.5 29t-148.5 85.5t-99.5 138.5t-36.5 187zM222 415q0 -84 29 -147.5t79 -106t117.5 -64t145.5 -21.5t145.5 21.5t117.5 64.5t78.5 106t28.5 147q0 85 -28.5 149t-78.5 107t-117.5 64.5t-145.5 21.5 t-145.5 -21.5t-118 -64.5t-79 -107t-28.5 -149zM299 1113q0 -65 24.5 -111t65.5 -75.5t94 -43.5t110 -14t110 14t94 43.5t65.5 76t24.5 110.5q0 65 -24.5 111.5t-65.5 76.5t-94 44t-110 14t-110 -14t-94 -44t-65.5 -76.5t-24.5 -111.5z" />
<glyph unicode="9" horiz-adv-x="1186" d="M125 950q0 106 32 196.5t92.5 156.5t147.5 103.5t196 37.5q111 0 198 -37t147 -103t91.5 -156.5t31.5 -197.5v-470q0 -109 -31 -199.5t-90.5 -156t-146.5 -101.5t-200 -36q-75 0 -144 19t-126.5 56t-101 92.5t-67.5 128.5l92 31q20 -58 54 -101.5t79.5 -72t100 -42.5 t113.5 -14q89 0 158.5 28.5t116.5 79.5t71.5 122t24.5 156q0 43 -0.5 85.5t-0.5 85.5q-33 -42 -75.5 -73t-90.5 -51.5t-99.5 -30.5t-104.5 -10q-106 0 -192.5 34.5t-147.5 97t-94.5 150t-33.5 192.5zM223 950q0 -85 26 -154t74 -118.5t116.5 -76.5t153.5 -27q76 0 140 21.5 t112 62.5t78.5 101t38.5 137h2v60q0 86 -25 157.5t-72.5 123t-116.5 80.5t-157 29q-89 0 -158 -29.5t-116 -82.5t-71.5 -125.5t-24.5 -158.5z" />
<glyph unicode=":" horiz-adv-x="519" d="M169 95q0 41 24.5 65.5t64.5 24.5q41 0 66 -24.5t25 -65.5q0 -40 -25 -64.5t-66 -24.5q-40 0 -64.5 24.5t-24.5 64.5zM169 912q0 40 24.5 64.5t64.5 24.5q41 0 66 -24.5t25 -64.5q0 -41 -25 -66t-66 -25q-40 0 -64.5 25t-24.5 66z" />
<glyph unicode=";" horiz-adv-x="568" d="M189 -136q18 19 37.5 43.5t36 51.5t28.5 55.5t15 55.5q-39 2 -62 27t-23 63q0 40 24 64t64 24t65 -24t25 -64q0 -48 -12.5 -88.5t-34 -76.5t-51.5 -68t-65 -63h-47zM221 909q0 40 24 64t64 24t65 -24t25 -64t-25 -64.5t-65 -24.5t-64 24.5t-24 64.5z" />
<glyph unicode="&#x3c;" horiz-adv-x="1154" d="M212 594v133l739 413v-114l-639 -374l639 -357v-114z" />
<glyph unicode="=" horiz-adv-x="1263" d="M189 310v100h863v-100h-863zM189 661v100h863v-100h-863z" />
<glyph unicode="&#x3e;" horiz-adv-x="1154" d="M203 181v114l639 374l-639 357v114l739 -413v-133z" />
<glyph unicode="?" horiz-adv-x="1092" d="M163 1041q0 83 30 151t82.5 116.5t123 75t151.5 26.5q84 0 157 -30t127 -83.5t84.5 -126t30.5 -156.5q0 -72 -19 -121.5t-50.5 -85.5t-71 -62t-80 -50.5t-79 -52.5t-67.5 -67.5t-45 -94.5t-12 -135l-97 -5q-1 10 -1 20v20q0 81 18.5 140t48 101.5t68 73.5t78 56.5t78 49 t68 53t48 68t18.5 92.5q0 65 -23 119.5t-63.5 94t-96 62t-119.5 22.5q-61 0 -114 -19t-92 -54t-61.5 -86t-22.5 -114q0 -38 7 -72l-95 -18q-9 45 -9 92zM390 107q0 45 27.5 72t72.5 27t72 -27t27 -72t-27 -72t-72 -27t-72.5 27t-27.5 72z" />
<glyph unicode="@" horiz-adv-x="1676" d="M112 642q0 170 52.5 311.5t149.5 244t236 159.5t311 57q158 0 289 -49.5t225 -141t146 -220.5t52 -289q0 -58 -7 -128.5t-26.5 -138.5t-53 -126.5t-87.5 -92.5q-26 -17 -54 -26.5t-59 -9.5q-56 0 -98.5 32t-54.5 88q-54 -70 -132.5 -102.5t-165.5 -32.5q-96 0 -171.5 33 t-127 91t-79 137t-27.5 172q0 92 27.5 171t79.5 137t127 91t171 33q85 0 162 -31t131 -99v105h97q0 -168 0.5 -333.5t0.5 -333.5q0 -30 18 -49.5t49 -19.5q20 0 38.5 7.5t33.5 19.5q43 35 68.5 83.5t39.5 103t18.5 111t4.5 108.5q0 143 -47.5 255t-132 189t-201 117.5 t-254.5 40.5q-152 0 -273 -49.5t-205 -138.5t-128.5 -213t-44.5 -273t44.5 -273t128.5 -213t205 -138.5t273 -49.5q69 0 138 10t133 37h184q-47 -38 -102 -65.5t-113.5 -45t-119 -26t-120.5 -8.5q-173 0 -311.5 57t-236 159t-149.5 244t-52 312zM528 610q0 -72 19.5 -133.5 t58 -106t96 -70t133.5 -25.5q42 0 93 16.5t96 46t75 71t30 90.5v38q1 38 1.5 76t0.5 76q0 57 -26.5 104t-68.5 80.5t-95 52t-106 18.5q-74 0 -131.5 -25.5t-96.5 -70.5t-59 -106t-20 -132z" />
<glyph unicode="A" horiz-adv-x="1166" d="M11 -1l542 1435h62l540 -1435h-104l-128 340h-679l-128 -340h-105zM281 437h605l-302 803z" />
<glyph unicode="B" horiz-adv-x="1216" d="M120 -1v1436h84q127 0 252.5 -0.5t252.5 -0.5q69 0 128.5 -23t103 -64t68 -99t24.5 -129q0 -43 -10.5 -84t-30.5 -77t-49.5 -65.5t-67.5 -50.5q54 -30 95.5 -72t69 -92.5t41.5 -108t14 -119.5q0 -99 -36 -182t-99 -142.5t-147.5 -93t-182.5 -33.5h-510zM218 97h412 q78 0 145 24.5t117 70t78.5 110t28.5 144.5q0 112 -57 199t-160 131q-25 11 -51.5 18.5t-53.5 7.5h-459v-705zM218 905q123 -2 245 -3.5t245 -1.5q48 0 90 15.5t72.5 44.5t48 69.5t17.5 89.5t-17.5 89t-48 68.5t-72 44t-89.5 15.5q-124 0 -245.5 0.5t-245.5 0.5v-432z" />
<glyph unicode="C" horiz-adv-x="1444" d="M121 711q0 148 41 279.5t121.5 230.5t200.5 156.5t278 57.5q98 0 184 -24.5t158 -70.5t128.5 -112t95.5 -150l-84 -53q-64 148 -188 230t-294 82q-137 0 -239.5 -50t-170 -135.5t-101 -199.5t-33.5 -241t33.5 -240.5t101 -199.5t170 -136.5t239.5 -50.5q167 0 289 78.5 t188 221.5l87 -46q-39 -83 -95.5 -148.5t-128.5 -110.5t-157.5 -69t-182.5 -24q-158 0 -278 58t-200.5 157t-121.5 231t-41 279z" />
<glyph unicode="D" horiz-adv-x="1344" d="M120 0v1442q116 -2 231 -2t231 -5q157 -7 277 -62t201 -150t122 -225t41 -287q0 -148 -41 -277.5t-122 -226t-201 -152t-277 -55.5q-109 0 -215.5 -0.5t-215.5 -0.5v1h-31zM218 98h364q137 0 239 48t170 131t101.5 194.5t33.5 239.5q0 135 -33.5 247.5t-101.5 194 t-170 129.5t-240 55l-363 6v-1245z" />
<glyph unicode="E" horiz-adv-x="1118" d="M120 -1v1436l922 -1v-98l-824 1v-545h732v-98h-732v-597h824v-98h-922z" />
<glyph unicode="F" horiz-adv-x="1022" d="M120 0v1435l856 -1v-98l-758 1v-545h701v-98h-701v-694h-98z" />
<glyph unicode="G" horiz-adv-x="1486" d="M121 711q0 148 41 279.5t121.5 230.5t200.5 156.5t278 57.5q112 0 208.5 -32t174 -91t134 -144t87.5 -192l-94 -27q-27 91 -74.5 163t-112.5 122t-146.5 76.5t-176.5 26.5q-137 0 -239.5 -50t-170 -135.5t-101 -199.5t-33.5 -241q0 -128 34 -242t102 -199.5t171 -135.5 t241 -50q134 0 229 42.5t156 111.5t89 156.5t28 177.5h-544v97h642v-103q0 -60 -10.5 -118.5t-32.5 -113.5q-29 -73 -78 -136.5t-118.5 -110.5t-159.5 -74t-201 -27q-159 0 -279.5 57.5t-201.5 156t-122.5 230.5t-41.5 281z" />
<glyph unicode="H" horiz-adv-x="1221" d="M120 0v1434h98v-642h785v642h97v-1434h-97v694h-785v-694h-98z" />
<glyph unicode="I" horiz-adv-x="338" d="M120 0v1434h98v-1434h-98z" />
<glyph unicode="J" horiz-adv-x="1092" d="M121 428h97q0 -72 23.5 -135t66.5 -109t104 -72.5t135 -26.5t134.5 26.5t103.5 72.5t66 108.5t23 134.5v1008h98v-1008q0 -94 -30.5 -174.5t-86.5 -139.5t-134 -92.5t-174 -33.5t-174.5 34t-134.5 93t-86.5 139.5t-30.5 174.5z" />
<glyph unicode="K" horiz-adv-x="1136" d="M120 1434h98l1 -829l665 829h125l-483 -603l567 -831h-118l-508 744l-248 -296l1 -448h-98z" />
<glyph unicode="L" horiz-adv-x="1035" d="M120 -1v1435h98v-1337h764v-98h-862z" />
<glyph unicode="M" horiz-adv-x="1608" d="M120 0v1434h98l585 -1235l586 1235h98v-1434h-98v1207l-570 -1202h-32l-569 1203v-1208h-98z" />
<glyph unicode="N" horiz-adv-x="1348" d="M120 0v1434h98l911 -1268v1268h98v-1434h-97l-912 1266v-1266h-98z" />
<glyph unicode="O" horiz-adv-x="1501" d="M90 718q0 153 42.5 288.5t125.5 237.5t206.5 161.5t286.5 59.5q108 0 199 -27t164.5 -76.5t129 -118t92.5 -151.5t56 -178t19 -196t-19 -195.5t-56 -177.5t-92.5 -152t-129 -118t-164.5 -76.5t-199 -27.5t-199.5 27t-165 76.5t-129 118t-92.5 151.5t-56 178t-19 196z M190 718q0 -130 34.5 -247.5t104.5 -206t175 -140.5t247 -52q141 0 245.5 52.5t174.5 141t104.5 205.5t34.5 247q0 131 -34.5 248t-104 205.5t-174.5 140.5t-246 52q-142 0 -247 -51.5t-175 -140t-104.5 -206t-34.5 -248.5z" />
<glyph unicode="P" horiz-adv-x="1187" d="M132 0v1442q65 -1 130 -1q32 1 65 1h195q106 0 204.5 -18.5t174 -65t120.5 -127t45 -204.5q0 -91 -32 -166t-88.5 -128.5t-133 -83t-166.5 -29.5h-50h-73.5t-84.5 -0.5t-84.5 -0.5h-73.5h-50v-619h-98zM230 1344l1 -628q104 0 207.5 1t207.5 0q69 0 127.5 22t102 62.5 t68 97.5t24.5 127q0 71 -19 121.5t-51.5 86t-77 57t-95.5 33.5t-106 16t-110 4h-279z" />
<glyph unicode="Q" horiz-adv-x="1522" d="M121 711q0 98 18 190t54.5 172.5t90 147t125 114t160 74t193.5 26.5q158 0 277.5 -58t200 -157t121.5 -230.5t41 -278.5q0 -94 -18 -188.5t-57 -180t-100 -157t-147 -120.5l202 -196h-164l-147 148q-100 -31 -209 -31q-158 0 -278 58t-200.5 157t-121.5 231t-41 279z M218 711q0 -127 33.5 -240.5t101 -199.5t170 -136.5t239.5 -50.5q35 0 69 4t68 12l-209 200h143l170 -163q81 40 138 102.5t93 139t53 162t17 170.5q0 126 -33.5 239.5t-101 199.5t-169 136.5t-238.5 50.5t-239.5 -50.5t-170 -136t-101 -199t-33.5 -240.5z" />
<glyph unicode="R" horiz-adv-x="1238" d="M121 0v1442q65 -1 128 -1q32 1 64 1h192q48 0 96 -0.5t96 -4.5q92 -7 169 -36t132.5 -79.5t87 -124t31.5 -170.5q0 -57 -13.5 -110.5t-40.5 -100t-66.5 -84.5t-91.5 -64q103 -53 157.5 -147.5t54.5 -209.5v-311h-98v276q0 77 -21 140t-61.5 108.5t-101 70.5t-139.5 25 q-120 0 -238.5 -0.5t-238.5 -0.5v-619h-98zM219 716q120 0 239 0.5t239 0.5q69 0 127.5 22t102 62.5t68 97.5t24.5 127q0 76 -24 132t-67 94.5t-102 59.5t-130 28q-42 4 -83 4.5t-83 0.5q-78 0 -156 -1h-77.5h-77.5v-628z" />
<glyph unicode="S" horiz-adv-x="1257" d="M121 431l98 -2q0 -87 13.5 -152t48 -108.5t94.5 -65t153 -21.5q58 0 115.5 -0.5t115.5 -0.5q66 0 118 26.5t88 70.5t55 101.5t19 119.5q0 87 -26 142.5t-70.5 89t-103 50t-122.5 25t-130 14t-125 17.5q-66 14 -118.5 42.5t-90 71.5t-57.5 99t-20 124q0 81 26 146.5 t73 112.5t112.5 75t144.5 35q42 3 85 3q205 0 314.5 -103.5t115.5 -309.5l-97 -3q-5 166 -87 242.5t-246 76.5q-67 0 -129.5 -13.5t-110.5 -45t-76.5 -83.5t-28.5 -130q0 -74 27 -121.5t71.5 -76.5t102.5 -43.5t119.5 -22.5t122 -12.5t110.5 -14.5q76 -15 134 -48.5 t97.5 -83.5t60 -114.5t20.5 -141.5q0 -83 -26 -158.5t-75 -132.5t-119 -90.5t-158 -33.5q-58 0 -115.5 0.5t-115.5 0.5q-115 0 -193 29t-125.5 86t-68 140.5t-20.5 191.5z" />
<glyph unicode="T" horiz-adv-x="1220" d="M50 1337v98h1119v-98h-514v-1337h-97v1337h-508z" />
<glyph unicode="U" horiz-adv-x="1245" d="M120 501v933h98v-933q0 -90 29 -167t82 -133.5t128 -88.5t166 -32t165.5 32t127.5 88.5t82 133.5t29 167v933h98v-933q0 -111 -36 -206t-102 -164.5t-158.5 -109t-205.5 -39.5t-205.5 39.5t-158.5 109t-102.5 164.5t-36.5 206z" />
<glyph unicode="V" horiz-adv-x="1277" d="M81 1434h103l454 -1239l454 1239h104l-525 -1433h-66z" />
<glyph unicode="W" horiz-adv-x="1895" d="M60 1434h101l369 -1238l365 1238l103 -3l368 -1235l368 1238h101l-424 -1431h-90l-374 1256l-372 -1256h-90z" />
<glyph unicode="X" horiz-adv-x="1374" d="M121 1l510 728l-486 705h119l427 -619l434 619h119l-494 -705l504 -729h-119l-445 644l-450 -643h-119z" />
<glyph unicode="Y" horiz-adv-x="1253" d="M60 1434h112l454 -796l454 796h113l-520 -911l1 -523h-98l-1 530z" />
<glyph unicode="Z" horiz-adv-x="1366" d="M121 -1l1 98l998 1240h-999v98h1123l1 -98l-997 -1240h996v-98h-1123z" />
<glyph unicode="[" horiz-adv-x="466" d="M100 -261v1770l300 -1v-98l-202 1v-1574h202v-98h-300z" />
<glyph unicode="\" horiz-adv-x="829" d="M24 1434h106l599 -1434h-106z" />
<glyph unicode="]" horiz-adv-x="466" d="M66 -163h202v1585l-202 -1v98l300 1v-1781h-300v98z" />
<glyph unicode="^" horiz-adv-x="1212" d="M107 740l436 742h135l436 -742h-116l-397 642l-378 -642h-116z" />
<glyph unicode="_" horiz-adv-x="954" d="M42 -178h886v-100h-886v100z" />
<glyph unicode="`" horiz-adv-x="434" d="M43 1542l167 1l169 -305h-80z" />
<glyph unicode="a" horiz-adv-x="1017" d="M110 301q0 73 25 124.5t67.5 86t98 54.5t116 30t122.5 13t116 3q38 0 77 -1t77 -3v10q0 160 -72 235t-231 75q-45 0 -91.5 -9t-84.5 -30.5t-64 -56.5t-30 -88l-98 8q7 74 41 126t85.5 85t115 48t129.5 15q398 0 398 -398q0 -158 -0.5 -314t-0.5 -314h-98v116 q-34 -38 -76.5 -63t-90 -40t-97.5 -21t-99 -6q-75 0 -136.5 20t-105.5 60t-68.5 98.5t-24.5 136.5zM207 301q0 -57 17 -98.5t48 -67.5t75 -38.5t98 -12.5q76 0 141 15t113 49.5t77 91t33 139.5v131q-43 2 -85.5 3t-85.5 1q-40 0 -87.5 -1.5t-95.5 -7.5t-92.5 -19.5t-79 -37 t-55.5 -59.5t-21 -88z" />
<glyph unicode="b" horiz-adv-x="1156" d="M110 1437h98l1 -597q60 104 155.5 154.5t213.5 50.5q116 0 203.5 -42.5t146 -114.5t88.5 -168t30 -204t-30 -204t-88.5 -168.5t-146 -115t-203.5 -42.5q-120 0 -215.5 51.5t-154.5 157.5l2 -179h-98zM209 466q6 -78 33.5 -147.5t74 -121.5t112.5 -82.5t149 -30.5 q95 0 165 35t115.5 94t68 137.5t22.5 165.5t-22.5 165t-68 137.5t-115.5 94t-165 34.5q-107 0 -178 -41.5t-113.5 -109.5t-60 -154.5t-17.5 -175.5z" />
<glyph unicode="c" horiz-adv-x="1128" d="M110 516q0 108 30 204t88.5 168t146.5 114.5t203 42.5q81 0 151.5 -23t127 -66t97.5 -105t64 -139l-93 -28q-18 61 -50.5 109.5t-77 82.5t-100 52.5t-119.5 18.5q-95 0 -165 -34.5t-115.5 -94t-68 -137.5t-22.5 -165t22.5 -165t68.5 -137.5t116 -94.5t164 -35 q64 0 119.5 18.5t100 52.5t77 82.5t50.5 109.5l93 -28q-23 -77 -64 -139t-97.5 -105t-127 -66t-151.5 -23q-115 0 -203 42.5t-146.5 115t-88.5 168.5t-30 204z" />
<glyph unicode="d" horiz-adv-x="1156" d="M110 516q0 108 30 204t88.5 168.5t146.5 114.5t203 42q67 0 123 -14.5t101.5 -41.5t81.5 -64.5t63 -83.5v315t1 281h98l-2 -1421h-98l2 179q-27 -47 -63 -85.5t-82 -66t-102.5 -42.5t-122.5 -15q-115 0 -203 42.5t-146.5 114.5t-88.5 168.5t-30 204.5zM207 516 q0 -87 22.5 -165.5t68 -137.5t115.5 -94t165 -35q87 0 156 34t116 91.5t72 132t25 155.5v25v24q-5 80 -30 152.5t-70.5 128t-112.5 88t-156 32.5q-95 0 -165 -34.5t-115.5 -94t-68 -137.5t-22.5 -165z" />
<glyph unicode="e" horiz-adv-x="1156" d="M110 516q0 108 30 204t88.5 168.5t146.5 114.5t203 42t202.5 -42.5t146.5 -115t89 -168.5t30 -204l-839 3q0 -88 22.5 -166.5t68 -138t115.5 -94.5t165 -35q121 0 209 62t130 176l92 -33q-26 -71 -68 -127.5t-97.5 -95.5t-122.5 -59.5t-143 -20.5q-115 0 -203 42.5 t-146.5 115t-88.5 168.5t-30 204zM215 616l726 -3q-10 73 -39.5 134.5t-76 105.5t-108.5 69t-139 25q-81 0 -143.5 -25.5t-107.5 -70t-73 -105t-39 -130.5z" />
<glyph unicode="f" horiz-adv-x="659" d="M110 927v98h100l-1 120q0 66 8.5 119.5t34 91.5t71.5 58.5t121 20.5h105v-98l-95 2q-37 0 -64.5 -6t-45.5 -22t-27 -43t-9 -68v-175h240v-98h-240l-2 -911h-98l2 911h-100z" />
<glyph unicode="g" horiz-adv-x="1156" d="M110 522q0 108 30 204t88.5 168.5t146.5 114.5t203 42q132 0 223.5 -56.5t144.5 -149.5l-1 177h99l2 -1042q0 -99 -32.5 -182.5t-91 -143.5t-140.5 -94t-182 -34q-75 0 -144.5 21.5t-126.5 62.5t-97.5 100t-57.5 135h101q16 -54 49.5 -95t78.5 -69t97 -42.5t106 -14.5 q79 0 142.5 26.5t107.5 74t68 112.5t24 143v219q-52 -93 -144 -149.5t-226 -56.5q-115 0 -203 42t-146.5 114.5t-88.5 168.5t-30 204zM207 522q0 -87 22.5 -165t68 -137.5t115.5 -94t165 -34.5q91 0 158.5 34t113.5 91t70 131.5t28 155.5q0 86 -20.5 167.5t-65 144.5 t-114.5 101t-170 38q-95 0 -165 -35t-115.5 -94t-68 -137.5t-22.5 -165.5z" />
<glyph unicode="h" horiz-adv-x="1034" d="M110 1434h97l1 -560q28 43 66.5 75.5t83.5 55t94.5 34t100.5 11.5q77 0 141.5 -24t111 -68.5t72.5 -108t26 -141.5q0 -178 -0.5 -354t-1.5 -354h-98l2 708q0 59 -20 105t-55.5 77t-83.5 47t-105 16q-49 0 -100.5 -13.5t-97 -40t-81 -64t-53.5 -85.5h-2l1 -750h-97z" />
<glyph unicode="i" horiz-adv-x="386" d="M110 1280q0 18 6.5 33.5t18 27t26.5 18t32 6.5q37 0 60.5 -24.5t23.5 -60.5q0 -35 -24 -59t-60 -24q-35 0 -59 24t-24 59zM141 1025h97l2 -1025h-97z" />
<glyph unicode="j" horiz-adv-x="370" d="M-111 -289q66 0 113 7.5t78 29.5t45.5 63t14.5 108l-2 1106h97l2 -1106q0 -306 -306 -306h-42v98zM106 1274q0 32 22.5 55t54.5 23q34 0 55.5 -22.5t21.5 -55.5t-22 -55t-55 -22q-32 0 -54.5 22.5t-22.5 54.5z" />
<glyph unicode="k" horiz-adv-x="909" d="M110 1434h97l1 -985l524 575h132l-408 -448l446 -576h-123l-385 495l-185 -190v-305h-97z" />
<glyph unicode="l" horiz-adv-x="319" d="M110 1434h97l2 -1434h-97z" />
<glyph unicode="m" horiz-adv-x="1635" d="M137 1015h96v-142q26 39 60.5 70t75.5 52.5t86 33t92 11.5q99 0 179 -48t119 -143q23 47 57.5 82.5t77 59.5t91.5 36t100 12q69 0 130.5 -27t108 -73t74 -107.5t27.5 -130.5q-1 -177 -1 -350.5t-1 -350.5h-96l1 701q0 49 -20 92.5t-53.5 76.5t-77.5 52.5t-92 19.5 q-50 0 -102 -19.5t-95 -53t-70 -79.5t-27 -100l-2 -690h-101l2 701q0 55 -17 100t-48.5 76.5t-75.5 49t-98 17.5q-80 0 -150.5 -36.5t-118.5 -99.5q-4 -5 -10 -13t-11 -17t-9 -18t-4 -15l1 -745h-96z" />
<glyph unicode="n" horiz-adv-x="1015" d="M110 1017h97v-152q28 42 66 75t83 55.5t95 34.5t102 12q78 0 142.5 -24.5t111 -69t72 -107.5t25.5 -141l-2 -699h-98l2 699q0 60 -19.5 106t-54 77t-83 46.5t-107.5 15.5q-43 0 -96 -14t-102 -40.5t-86.5 -63.5t-49.5 -84l1 -742h-97z" />
<glyph unicode="o" horiz-adv-x="1156" d="M110 516q0 119 33.5 216.5t95 167t148 107.5t191.5 38t191.5 -38t148 -107.5t95 -167t33.5 -216.5t-33.5 -216.5t-95 -167.5t-148 -108t-191.5 -38t-191.5 38t-148 107.5t-95 167.5t-33.5 217zM207 516q0 -99 26 -178.5t74.5 -136t117 -87t153.5 -30.5q84 0 152.5 30.5 t117 87t74.5 136t26 178.5t-26 178.5t-74 135.5t-116.5 86.5t-153.5 30.5t-153.5 -30.5t-117 -86.5t-74.5 -135.5t-26 -178.5z" />
<glyph unicode="p" horiz-adv-x="1156" d="M110 -409l2 1421h98q-1 -45 -1.5 -89.5t-0.5 -89.5q27 47 63 85.5t82 66t102.5 42.5t122.5 15q116 0 203.5 -42.5t146 -114.5t88.5 -168.5t30 -204.5t-30 -204t-88.5 -168.5t-146 -114.5t-203.5 -42q-67 0 -123 14.5t-101.5 41.5t-81.5 64.5t-63 83.5l-1 -596h-98z M209 531q0 -86 21 -167t65.5 -144t114.5 -101t168 -38q95 0 165 34.5t115.5 94t68 137.5t22.5 165t-22.5 165.5t-68 137.5t-115.5 94t-165 35q-87 0 -156 -34.5t-116 -92t-72 -132t-25 -154.5z" />
<glyph unicode="q" horiz-adv-x="1156" d="M110 512q0 108 30 204t88.5 168.5t146.5 115t203 42.5q118 0 214.5 -52t155.5 -157l-2 179h98l2 -1421h-98l-1 596q-60 -104 -155.5 -154t-213.5 -50q-115 0 -203 42.5t-146.5 114.5t-88.5 168t-30 204zM207 512q0 -87 22.5 -165t68 -137.5t115.5 -94t165 -34.5 q98 0 167.5 37.5t114.5 100.5t66 144t21 168q0 81 -25 156t-72.5 132t-116 91t-155.5 34q-95 0 -165 -35t-115.5 -94t-68 -137.5t-22.5 -165.5z" />
<glyph unicode="r" horiz-adv-x="548" d="M110 1025h97v-167q48 83 131 125t197 42v-98q-59 0 -113.5 -10.5t-98.5 -36t-74 -68t-41 -107.5l1 -705h-97z" />
<glyph unicode="s" horiz-adv-x="1009" d="M100 302l98 -2q0 -62 11 -103.5t36.5 -66t67.5 -34.5t103 -10q45 0 90.5 -0.5t90.5 -0.5q42 0 77.5 14.5t62 40.5t41 61.5t14.5 77.5q0 56 -21.5 91t-57 55.5t-81 30t-93.5 14t-93.5 8t-82.5 11.5q-53 12 -97.5 33.5t-77 54t-50.5 77t-18 102.5q0 78 30 133t80 89.5 t114.5 50.5t133.5 16q80 0 145.5 -18t113 -56.5t74.5 -99t30 -145.5l-98 -3q-1 64 -21 107t-54.5 69t-83 37t-106.5 11q-47 0 -93.5 -9t-83.5 -30.5t-60 -58.5t-23 -93q0 -54 22 -88t58 -54t81.5 -29t93.5 -13.5t93.5 -8t80.5 -11.5q56 -13 100.5 -34.5t76 -54.5t48.5 -78.5 t17 -105.5q0 -64 -22 -117.5t-61 -92.5t-92.5 -60.5t-117.5 -21.5q-26 0 -53 -0.5t-53 -0.5q-94 0 -166.5 10.5t-122 43.5t-75.5 95.5t-26 166.5z" />
<glyph unicode="t" horiz-adv-x="549" d="M76 928v98h79l1 281h97l-1 -281h223v-98h-223l-1 -657q0 -57 13 -91.5t36.5 -52.5t57 -23.5t74.5 -6.5h70v-98h-77q-271 0 -271 272v60l1 597h-79z" />
<glyph unicode="u" horiz-adv-x="1014" d="M110 329q0 177 0.5 345t1.5 345h98l-2 -690q0 -60 20 -105.5t55 -76.5t83.5 -47t105.5 -16q48 0 99.5 14t97.5 40t82 63.5t53 85.5l2 -1l-1 733h97l2 -1007h-97v152q-28 -43 -67 -76t-84 -55.5t-94.5 -34t-100.5 -11.5q-77 0 -141.5 24t-111 68.5t-72.5 108t-26 141.5z " />
<glyph unicode="v" horiz-adv-x="969" d="M19 1024h107l364 -830l365 830h106l-449 -1024h-43z" />
<glyph unicode="w" horiz-adv-x="1512" d="M50 1024h99l279 -829l276 826h103l279 -826l277 829h99l-341 -1022l-59 4l-304 881l-307 -881l-58 -4z" />
<glyph unicode="x" horiz-adv-x="1023" d="M50 1017h123l336 -435l341 435h123l-403 -515l382 -502h-123l-321 422l-325 -421h-123l387 501z" />
<glyph unicode="y" horiz-adv-x="976" d="M11 1024h104l352 -895l402 895h107l-596 -1327q-23 -53 -67 -85t-103 -32q-35 0 -69 10.5t-68 20.5v101q33 -10 67.5 -22.5t69.5 -12.5q30 0 50 17t31 43l60 134l60 134z" />
<glyph unicode="z" horiz-adv-x="1067" d="M110 -1v98l719 822h-719v98h847v-98l-724 -822h724v-98h-847z" />
<glyph unicode="{" horiz-adv-x="773" d="M104 528v114q32 2 66 11.5t62.5 27.5t47 45t18.5 64v375v38q0 59 18 102t50.5 71t78 41t100.5 13h104v-100q-23 0 -44.5 1t-44.5 1q-34 0 -64 -4.5t-51.5 -18.5t-34 -39.5t-12.5 -66.5v-413q0 -72 -36.5 -123t-99.5 -82q63 -32 99.5 -83t36.5 -123v-413q0 -32 8 -54 t22 -36t32.5 -22t40.5 -12q35 -5 74 -3.5t74 1.5v-100h-104q-54 0 -99.5 13t-78.5 40.5t-51 70.5t-18 102v75v338q0 37 -18.5 64.5t-47 45.5t-62.5 27.5t-66 11.5z" />
<glyph unicode="|" horiz-adv-x="420" d="M156 1434h100l3 -1620h-100z" />
<glyph unicode="}" horiz-adv-x="773" d="M124 -160q23 0 45 -1t45 -1q24 0 48.5 2.5t45.5 10.5t37.5 24.5t24.5 43.5q2 11 3.5 22t1.5 25v413q0 72 36.5 123t99.5 83q-63 31 -99.5 82t-36.5 123v413q0 32 -8 54.5t-21.5 36.5t-32 22t-40.5 12q-35 5 -74 3.5t-75 -1.5v100h104q55 0 100.5 -13t78 -41t50.5 -71 t18 -102v-38v-375q0 -37 18.5 -64t47 -45t63 -27.5t65.5 -11.5v-114q-32 -2 -66 -11.5t-62.5 -28t-47 -45.5t-18.5 -64v-338v-75q0 -59 -18 -102t-51 -70.5t-78.5 -40.5t-99.5 -13h-104v100z" />
<glyph unicode="~" horiz-adv-x="1144" d="M71 655q24 38 55.5 70.5t68 56t79 36.5t88.5 13q45 0 81.5 -11t68.5 -28t62 -36t61 -36t65 -28t75 -11q64 0 110 33t78 87l64 -37q-22 -37 -49.5 -70t-61 -57t-73 -38t-85.5 -14q-47 0 -84.5 11t-70.5 27.5t-62.5 35.5t-59 35.5t-62 27.5t-70.5 11q-65 0 -123 -31.5 t-92 -86.5z" />
<glyph unicode="&#xa1;" horiz-adv-x="619" d="M207 1336q0 45 28.5 70t72.5 25q43 0 71.5 -25t28.5 -70t-28.5 -69.5t-71.5 -24.5q-44 0 -72.5 24.5t-28.5 69.5zM218 -191q1 12 1 24t1 24l47 1101h67l37 -1149q0 -20 -2 -41.5t-10 -39t-23.5 -28.5t-41.5 -11t-41.5 11t-23 28.5t-9.5 39t-2 41.5z" />
<glyph unicode="&#xa2;" horiz-adv-x="1305" d="M175 716q0 111 32 206.5t93 168.5t149.5 119t201.5 58v159h97v-155q111 -3 214 -44t179 -124l-72 -66q-66 72 -156 104.5t-186 32.5q-105 0 -189.5 -32.5t-143 -92.5t-90 -144.5t-31.5 -189.5q0 -104 31.5 -189t90.5 -145t143 -92.5t189 -32.5q96 0 186 32.5t156 104.5 l72 -67q-76 -83 -179 -124t-214 -44v-159h-97v163q-112 12 -200.5 58.5t-150 119.5t-93.5 168.5t-32 206.5z" />
<glyph unicode="&#xa3;" horiz-adv-x="1149" d="M102 3v124q71 1 124 28.5t88.5 73t53.5 104.5t18 123q0 42 -5 84t-13 84h-266v100h244q-17 75 -32 150t-15 152q0 90 27.5 164.5t78.5 128.5t124.5 83.5t164.5 29.5q43 0 86.5 -7.5t84.5 -22.5t77.5 -38t66.5 -55l-74 -68q-45 48 -108 69.5t-127 21.5q-72 0 -128 -21.5 t-94.5 -61.5t-58.5 -97t-20 -128q0 -77 15 -151t32 -149h367v-100h-345q8 -42 13 -84t5 -85q0 -52 -9.5 -105.5t-31 -100.5t-57 -85.5t-87.5 -60.5h728v-100h-927z" />
<glyph unicode="&#xa4;" horiz-adv-x="1108" d="M122 303l137 136q-32 48 -51 103t-19 113t18 113.5t52 102.5l-137 137l93 94l137 -137q48 32 104.5 51t113.5 19t112 -18.5t102 -51.5l137 137l93 -94l-136 -136q34 -48 52 -103.5t18 -113.5t-18.5 -113.5t-51.5 -102.5l136 -136l-93 -94l-137 137q-48 -32 -103 -51 t-112 -19q-58 0 -114 17.5t-103 52.5l-137 -137zM290 654q0 -57 22.5 -107t61 -87.5t89 -59.5t106.5 -22q57 0 107.5 22t88.5 60t60 88t22 107t-22.5 108t-60.5 88.5t-89 59.5t-108 22q-56 0 -106.5 -22.5t-88.5 -60.5t-60 -89t-22 -107z" />
<glyph unicode="&#xa5;" horiz-adv-x="1174" d="M18 1434h112l454 -796l454 796h113l-493 -864h278v-98h-305v-124h305v-97h-304v-251h-98v251h-322v97h321v124h-321v98h298z" />
<glyph unicode="&#xa6;" horiz-adv-x="548" d="M220 -511l12 786l100 -2l-12 -786zM220 717l12 786l100 -2l-12 -786z" />
<glyph unicode="&#xa7;" horiz-adv-x="990" d="M113 749q0 73 33 134t95 100q-61 36 -94.5 95.5t-33.5 130.5q0 77 30 131.5t79.5 89t113.5 50.5t132 16q47 0 93.5 -6.5t88.5 -23t78.5 -44t61.5 -70.5l-84 -50q-18 31 -45 49.5t-58.5 28.5t-65.5 13.5t-67 3.5q-46 0 -92.5 -8.5t-83.5 -29.5t-60.5 -57t-23.5 -92 q0 -53 22 -87t58 -54t82.5 -29t94 -13.5t93 -8t80.5 -10.5q54 -12 99 -33.5t77 -54.5t49.5 -78t17.5 -104q0 -69 -31 -131t-86 -104q59 -38 88 -97.5t29 -128.5q0 -64 -22.5 -117t-61.5 -91t-93 -59t-117 -21q-32 0 -64.5 -1t-64.5 -1q-46 0 -95 4t-94 17.5t-82.5 40 t-62.5 71.5l87 44q14 -27 36.5 -42t49.5 -22.5t56 -9.5t55 -2h90q23 -1 45 -1h45q41 0 77 14t62.5 39t41.5 60t15 77q0 47 -15.5 79.5t-42 53t-62.5 31.5t-77 14q-49 4 -103 9t-108 16q-53 11 -101 29.5t-84.5 50t-58 77.5t-21.5 112zM210 749q0 -45 21 -77.5t55 -54.5 t78 -35.5t90 -20.5t90 -9.5t79 -2.5q13 0 26 4.5t24 9.5q52 24 82.5 71t30.5 104q0 37 -10 64.5t-28 47.5t-42.5 33t-53.5 22q-28 9 -58.5 14t-61.5 8t-60.5 5t-55.5 5v-1q-40 -2 -77 -15t-65.5 -37t-46 -58t-17.5 -77z" />
<glyph unicode="&#xa8;" horiz-adv-x="830" d="M117 1367q0 45 27 71.5t72 26.5t71.5 -26.5t26.5 -71.5t-26.5 -71.5t-71.5 -26.5t-72 26.5t-27 71.5zM454 1367q0 45 27 71.5t72 26.5t71.5 -26.5t26.5 -71.5t-26.5 -71.5t-71.5 -26.5t-72 26.5t-27 71.5z" />
<glyph unicode="&#xa9;" horiz-adv-x="1674" d="M100 719q0 102 26 196.5t74 176.5t115 149t149 115t176.5 74t196.5 26t196.5 -26t176.5 -74t149 -115t115 -149t74 -176.5t26 -196.5t-26 -196.5t-74 -176.5t-115 -149t-149 -115t-176.5 -74t-196.5 -26t-196.5 26t-176.5 74t-149 115t-115 149t-74 176.5t-26 196.5z M160 719q0 -141 53 -264t145 -215t215 -145t264 -53q94 0 180.5 24t162 68t137 105.5t105.5 137t68 162t24 180.5t-24 180.5t-68 162t-105.5 137t-137 105.5t-162 68t-180.5 24t-180.5 -24t-162 -68t-137 -105.5t-105.5 -137t-68 -162t-24 -180.5zM458 705q0 91 25.5 172 t75.5 142t124 96.5t171 35.5q68 0 127.5 -19.5t107.5 -55.5t83 -88t54 -117l-93 -29q-31 100 -102 155.5t-177 55.5q-76 0 -132.5 -28t-93 -75.5t-54.5 -110.5t-18 -134q0 -70 18 -133.5t54.5 -111.5t93 -76.5t132.5 -28.5q106 0 177 55.5t102 155.5l93 -29 q-19 -65 -54 -117t-83 -88t-107.5 -55.5t-127.5 -19.5q-97 0 -171 36t-124 97.5t-75.5 142.5t-25.5 172z" />
<glyph unicode="&#xaa;" horiz-adv-x="731" d="M101 1000q0 60 26.5 96.5t67.5 58t90.5 32.5t95.5 20q32 7 65 13t65 12q-2 40 -13 66t-30.5 41t-48 20.5t-65.5 5.5q-21 0 -44.5 -3.5t-43.5 -13.5t-34 -26.5t-16 -42.5l-98 9q4 47 26 80t55 54t74 31t83 10q254 0 254 -254v-401h-98v43q-43 -30 -94.5 -41t-102.5 -11 q-48 0 -87.5 13t-67.5 38.5t-43.5 63t-15.5 86.5zM198 1000q0 -59 31.5 -81t85.5 -22q67 0 106 15t59.5 45t26 74.5t5.5 102.5q-18 -3 -48 -7.5t-65 -11t-70.5 -16.5t-64.5 -24t-47.5 -32.5t-18.5 -42.5z" />
<glyph unicode="&#xab;" horiz-adv-x="1042" d="M132 516l364 360l70 -72l-290 -286l289 -276l-68 -72zM494 516l364 360l70 -72l-290 -286l289 -276l-68 -72z" />
<glyph unicode="&#xac;" horiz-adv-x="1171" d="M150 664v100h879v-413h-100v313h-779z" />
<glyph unicode="&#xad;" horiz-adv-x="1066" d="M162 529v100h727v-100h-727z" />
<glyph unicode="&#xae;" horiz-adv-x="1674" d="M100 719q0 102 26 196.5t74 176.5t115 149t149 115t176.5 74t196.5 26t196.5 -26t176.5 -74t149 -115t115 -149t74 -176.5t26 -196.5t-26 -196.5t-74 -176.5t-115 -149t-149 -115t-176.5 -74t-196.5 -26t-196.5 26t-176.5 74t-149 115t-115 149t-74 176.5t-26 196.5z M160 719q0 -141 53 -264t145 -215t215 -145t264 -53q94 0 180.5 24t162 68t137 105.5t105.5 137t68 162t24 180.5t-24 180.5t-68 162t-105.5 137t-137 105.5t-162 68t-180.5 24t-180.5 -24t-162 -68t-137 -105.5t-105.5 -137t-68 -162t-24 -180.5zM558 263v847h176h88.5 t87.5 -3q54 -3 101 -20t82 -47t55 -73.5t20 -101.5q0 -57 -25.5 -107.5t-71.5 -84.5q48 -33 72.5 -83t24.5 -108v-226h-97v225q0 51 -21.5 80t-55.5 43.5t-75 18t-80 3.5h-184v-363h-97zM655 724h255q32 0 61 9t51.5 27t36 44.5t13.5 60.5q0 51 -23 80.5t-58 44t-77.5 18 t-81.5 3.5h-177v-287z" />
<glyph unicode="&#xaf;" horiz-adv-x="1024" d="M182 1576v100h660v-100h-660z" />
<glyph unicode="&#xb0;" horiz-adv-x="877" d="M162 1119q0 68 20 125.5t58.5 100t93.5 66.5t125 24t125 -24t93.5 -66.5t58.5 -100t20 -125.5q0 -67 -20 -125t-58.5 -101t-93.5 -67t-125 -24t-125 24t-93.5 67t-58.5 101t-20 125zM260 1119q0 -47 12.5 -87t37.5 -69.5t62.5 -46t86.5 -16.5q50 0 87 16.5t62.5 46 t38 69.5t12.5 87t-12.5 87t-38 69t-62.5 45.5t-87 16.5t-87.5 -16t-62 -45t-37 -69t-12.5 -88z" />
<glyph unicode="&#xb1;" horiz-adv-x="1286" d="M162 -50v100h963v-100h-963zM162 526v100h431v432h100v-432h432v-100h-432v-431h-100v431h-431z" />
<glyph unicode="&#xb2;" horiz-adv-x="877" d="M92 899q0 71 29.5 118.5t74.5 82t99 61.5t103.5 57.5t87 70t49.5 98.5q2 12 3.5 24.5t1.5 26.5q0 40 -14 72.5t-38 56t-57.5 36t-72.5 12.5q-45 0 -79 -16.5t-56.5 -44.5t-34 -66t-11.5 -80h-85q0 60 17.5 113t51.5 92.5t83.5 63t113.5 23.5q57 0 106 -19.5t84.5 -54.5 t56 -83.5t20.5 -105.5q0 -58 -14.5 -102t-38.5 -78.5t-56 -60.5t-67 -47q-40 -24 -81.5 -45t-77.5 -43t-63.5 -48t-39.5 -61h449v-85h-542q-1 8 -1.5 16t-0.5 16z" />
<glyph unicode="&#xb3;" horiz-adv-x="885" d="M89 1156h80q0 -45 15 -82t42 -62.5t65 -39.5t84 -14q45 0 83 13.5t65.5 39t42.5 62.5t15 83q0 47 -15 84t-42 63t-65 40t-84 14q-17 0 -33 -1.5t-32 -5.5l-11 23l205 222h-371v80h532l7 -16l-214 -232q48 -12 86 -37.5t64 -61t39.5 -79.5t13.5 -93q0 -63 -21.5 -114.5 t-59.5 -87.5t-90.5 -56t-114.5 -20q-63 0 -115.5 20t-90.5 56.5t-59 88t-21 113.5z" />
<glyph unicode="&#xb4;" horiz-adv-x="575" d="M181 1227l157 301h154l-228 -301h-83z" />
<glyph unicode="&#xb6;" horiz-adv-x="1090" d="M209 1168q0 55 19 103.5t53 84.5t81 57t103 21h495v-95h-130v-1339h-96v1339h-178v-1339h-97v903q-55 0 -101 21.5t-79 57.5t-51.5 84t-18.5 102z" />
<glyph unicode="&#xb7;" horiz-adv-x="549" d="M238 719q0 51 31.5 82.5t82.5 31.5t82.5 -31.5t31.5 -82.5t-31.5 -82.5t-82.5 -31.5t-82.5 31.5t-31.5 82.5z" />
<glyph unicode="&#xb8;" horiz-adv-x="426" d="M35 -391l60 80q28 -22 61.5 -36t69.5 -14q17 0 34 5t30 14.5t21 24t8 33.5q0 33 -16.5 54t-41.5 33t-54.5 16t-55.5 4q-15 0 -30 -1.5t-30 -3.5v57q1 2 9.5 14t20 28.5t25 36t26 36.5t21 29.5t10.5 15.5h119l-103 -137q41 -6 76 -17t61 -32t40.5 -52.5t14.5 -77.5 q0 -41 -16 -73.5t-42.5 -54.5t-61.5 -33.5t-74 -11.5q-49 0 -95.5 17.5t-86.5 45.5z" />
<glyph unicode="&#xb9;" horiz-adv-x="604" d="M31 1542l325 168v-789h-80v657l-209 -108z" />
<glyph unicode="&#xba;" horiz-adv-x="770" d="M109 1119q0 68 20.5 125.5t58.5 100t93 66.5t125 24t125 -24t93.5 -66.5t59 -100t20.5 -125.5q0 -67 -20.5 -125t-59 -101t-93.5 -67t-125 -24t-125 24t-93 67t-58.5 101t-20.5 125zM207 1119q0 -47 12.5 -87t37.5 -69.5t62.5 -46t86.5 -16.5q50 0 87 16.5t62.5 46 t38 69.5t12.5 87q0 48 -12.5 88t-37.5 69t-62.5 45t-87.5 16t-87.5 -16t-62 -45t-37 -69t-12.5 -88z" />
<glyph unicode="&#xbb;" horiz-adv-x="966" d="M60 804l70 72l364 -360l-365 -346l-68 72l289 276zM411 804l70 72l364 -360l-365 -346l-68 72l289 276z" />
<glyph unicode="&#xbc;" horiz-adv-x="1686" d="M189 1196l298 237l11 -5v-763h-80v611l-179 -142zM313 0l886 1434h118l-886 -1434h-118zM803 137v42l586 774l30 -10v-726h85v-80h-85v-166h-80v166h-536zM932 217h407v538z" />
<glyph unicode="&#xbd;" horiz-adv-x="1686" d="M176 1278l325 168v-789h-80v657l-209 -108zM213 0l886 1434h118l-886 -1434h-118zM917 41q0 57 19.5 98t51 72.5t71.5 55.5t82 46.5t82.5 46t72 54t50.5 70.5t19 95q0 40 -14 72.5t-38 56t-57.5 36t-72.5 12.5q-45 0 -79 -16.5t-56.5 -44.5t-33.5 -65.5t-11 -79.5h-86 q0 59 18 112t52 93t83.5 63t112.5 23q57 0 106 -19.5t84.5 -54t56 -83t20.5 -105.5q0 -58 -14.5 -102t-38.5 -78.5t-56 -60.5t-67 -47q-40 -24 -81.5 -45t-77.5 -43t-63.5 -48t-39.5 -61h449v-85h-542q-1 8 -1.5 16t-0.5 16z" />
<glyph unicode="&#xbe;" horiz-adv-x="1686" d="M34 920h80q0 -46 15 -83t42.5 -62.5t65.5 -39t83 -13.5t83 13.5t65.5 39t42.5 62.5t15 83q0 47 -15 84t-42 63t-65 40t-84 14q-17 0 -33 -1.5t-32 -5.5l-11 23l205 222h-371v80h532l7 -16l-214 -232q48 -12 86 -37.5t64 -61t39.5 -79.5t13.5 -93q0 -63 -21.5 -114.5 t-59.5 -87.5t-90.5 -56t-114.5 -20t-114.5 20t-90.5 56t-59.5 87.5t-21.5 114.5zM313 0l886 1434h118l-886 -1434h-118zM778 146l611 807l30 -10v-726h85v-80h-85v-166h-80v166h-556zM932 217h407v538z" />
<glyph unicode="&#xbf;" horiz-adv-x="1092" d="M145 101q0 64 15.5 110.5t42 81t60 60t70.5 48t73.5 45.5t67.5 52t55 68t34 93q9 48 6 111l97 5q1 -10 1 -20v-20q0 -81 -18.5 -139.5t-48 -101t-68 -73.5t-78 -57t-78 -50t-68 -53.5t-48 -67.5t-18.5 -92q0 -64 23 -119t63.5 -94.5t96 -62t119.5 -22.5q62 0 115 19 t92 54.5t61 86t22 113.5q0 38 -7 72l95 18q9 -45 9 -92q0 -83 -30 -151t-82.5 -116.5t-123 -75t-151.5 -26.5q-84 0 -157 30t-126.5 83.5t-84.5 126t-31 156.5zM505 1008q0 45 27 72t72 27t72.5 -27t27.5 -72t-27.5 -72t-72.5 -27t-72 27t-27 72z" />
<glyph unicode="&#xc0;" horiz-adv-x="1166" d="M11 -1l542 1435h62l540 -1435h-104l-128 340h-679l-128 -340h-105zM281 437h605l-302 803zM415 1952l167 1l169 -305h-80z" />
<glyph unicode="&#xc1;" horiz-adv-x="1166" d="M11 -1l542 1435h62l540 -1435h-104l-128 340h-679l-128 -340h-105zM281 437h605l-302 803zM428 1637l157 301h154l-228 -301h-83z" />
<glyph unicode="&#xc2;" horiz-adv-x="1166" d="M11 -1l542 1435h62l540 -1435h-104l-128 340h-679l-128 -340h-105zM281 437h605l-302 803zM310 1657l235 310h77l235 -310h-83l-189 204l-182 -204h-93z" />
<glyph unicode="&#xc3;" horiz-adv-x="1166" d="M11 -1l542 1435h62l540 -1435h-104l-128 340h-679l-128 -340h-105zM242 1720q11 36 31 67t47 54.5t61 36.5t73 13q50 0 85 -17.5t65 -38t60 -38t68 -17.5q49 0 78 30.5t43 74.5l71 -22q-11 -36 -28.5 -68.5t-42.5 -57.5t-57.5 -39.5t-73.5 -14.5q-49 0 -84.5 17.5 t-66 38.5t-59.5 38.5t-65 17.5q-45 0 -83 -26t-51 -70zM281 437h605l-302 803z" />
<glyph unicode="&#xc4;" horiz-adv-x="1166" d="M11 -1l542 1435h62l540 -1435h-104l-128 340h-679l-128 -340h-105zM281 437h605l-302 803zM316 1777q0 45 27 71.5t72 26.5t71.5 -26.5t26.5 -71.5t-26.5 -71.5t-71.5 -26.5t-72 26.5t-27 71.5zM653 1777q0 45 27 71.5t72 26.5t71.5 -26.5t26.5 -71.5t-26.5 -71.5 t-71.5 -26.5t-72 26.5t-27 71.5z" />
<glyph unicode="&#xc5;" horiz-adv-x="1166" d="M11 -1l542 1435h62l540 -1435h-104l-128 340h-679l-128 -340h-105zM281 437h605l-302 803zM405 1850q0 39 13 72t37 56t56.5 36t71.5 13t71.5 -13t56.5 -36t37 -56t13 -72t-13 -72t-36.5 -57t-56 -37t-72.5 -13t-72.5 13t-56 37t-36.5 57t-13 72zM485 1850 q0 -46 25.5 -72.5t72.5 -26.5t72.5 26.5t25.5 72.5t-26.5 71.5t-71.5 25.5t-71.5 -25.5t-26.5 -71.5z" />
<glyph unicode="&#xc6;" horiz-adv-x="1963" d="M67 -1l959 1435h848v-98l-750 1v-545h694v-98h-694v-597h750v-98h-848v340h-615l-226 -340h-118zM476 437h550v828z" />
<glyph unicode="&#xc7;" horiz-adv-x="1444" d="M121 711q0 148 41 279.5t121.5 230.5t200.5 156.5t278 57.5q98 0 184 -24.5t158 -70.5t128.5 -112t95.5 -150l-84 -53q-64 148 -188 230t-294 82q-137 0 -239.5 -50t-170 -135.5t-101 -199.5t-33.5 -241t33.5 -240.5t101 -199.5t170 -136.5t239.5 -50.5q167 0 289 78.5 t188 221.5l87 -46q-39 -83 -95.5 -148.5t-128.5 -110.5t-157.5 -69t-182.5 -24q-158 0 -278 58t-200.5 157t-121.5 231t-41 279zM594 -454l60 80q28 -22 61.5 -36t69.5 -14q17 0 34 5t30 14.5t21 24t8 33.5q0 33 -16.5 54t-41.5 33t-54.5 16t-55.5 4q-15 0 -30 -1.5 t-30 -3.5v57q1 2 9.5 14t20 28.5t25 36t26 36.5t21 29.5t10.5 15.5h119l-103 -137q41 -6 76 -17t61 -32t40.5 -52.5t14.5 -77.5q0 -41 -16 -73.5t-42.5 -54.5t-61.5 -33.5t-74 -11.5q-49 0 -95.5 17.5t-86.5 45.5z" />
<glyph unicode="&#xc8;" horiz-adv-x="1118" d="M120 -1v1436l922 -1v-98l-824 1v-545h732v-98h-732v-597h824v-98h-922zM391 1952l167 1l169 -305h-80z" />
<glyph unicode="&#xc9;" horiz-adv-x="1118" d="M120 -1v1436l922 -1v-98l-824 1v-545h732v-98h-732v-597h824v-98h-922zM404 1637l157 301h154l-228 -301h-83z" />
<glyph unicode="&#xca;" horiz-adv-x="1118" d="M120 -1v1436l922 -1v-98l-824 1v-545h732v-98h-732v-597h824v-98h-922zM286 1657l235 310h77l235 -310h-83l-189 204l-182 -204h-93z" />
<glyph unicode="&#xcb;" horiz-adv-x="1118" d="M120 -1v1436l922 -1v-98l-824 1v-545h732v-98h-732v-597h824v-98h-922zM292 1777q0 45 27 71.5t72 26.5t71.5 -26.5t26.5 -71.5t-26.5 -71.5t-71.5 -26.5t-72 26.5t-27 71.5zM629 1777q0 45 27 71.5t72 26.5t71.5 -26.5t26.5 -71.5t-26.5 -71.5t-71.5 -26.5t-72 26.5 t-27 71.5z" />
<glyph unicode="&#xcc;" horiz-adv-x="338" d="M1 1952l167 1l169 -305h-80zM120 0v1434h98v-1434h-98z" />
<glyph unicode="&#xcd;" horiz-adv-x="338" d="M13 1637l157 301h154l-228 -301h-83zM120 0v1434h98v-1434h-98z" />
<glyph unicode="&#xce;" horiz-adv-x="338" d="M-105 1657l235 310h77l235 -310h-83l-189 204l-182 -204h-93zM120 0v1434h98v-1434h-98z" />
<glyph unicode="&#xcf;" horiz-adv-x="338" d="M-98 1777q0 45 27 71.5t72 26.5t71.5 -26.5t26.5 -71.5t-26.5 -71.5t-71.5 -26.5t-72 26.5t-27 71.5zM120 0v1434h98v-1434h-98zM239 1777q0 45 27 71.5t72 26.5t71.5 -26.5t26.5 -71.5t-26.5 -71.5t-71.5 -26.5t-72 26.5t-27 71.5z" />
<glyph unicode="&#xd0;" horiz-adv-x="1344" d="M18 631v100h727v-100h-727zM120 0v1442q116 -2 231 -2t231 -5q157 -7 277 -62t201 -150t122 -225t41 -287q0 -148 -41 -277.5t-122 -226t-201 -152t-277 -55.5q-109 0 -215.5 -0.5t-215.5 -0.5v1h-31zM218 97l364 1q137 0 239 48t170 131t101.5 194.5t33.5 239.5 q0 135 -33.5 247.5t-101.5 194t-170 129.5t-240 55l-363 6v-1246z" />
<glyph unicode="&#xd1;" horiz-adv-x="1348" d="M120 0v1434h98l911 -1268v1268h98v-1434h-97l-912 1266v-1266h-98zM333 1720q11 36 31 67t47 54.5t61 36.5t73 13q50 0 85 -17.5t65 -38t60 -38t68 -17.5q49 0 78 30.5t43 74.5l71 -22q-11 -36 -28.5 -68.5t-42.5 -57.5t-57.5 -39.5t-73.5 -14.5q-49 0 -84.5 17.5 t-66 38.5t-59.5 38.5t-65 17.5q-45 0 -83 -26t-51 -70z" />
<glyph unicode="&#xd2;" horiz-adv-x="1522" d="M121 718q0 153 42.5 288.5t125.5 237.5t206.5 161.5t286.5 59.5q108 0 199 -27t164.5 -76.5t129 -118t92.5 -151.5t56 -178t19 -196t-19 -195.5t-56 -177.5t-92.5 -152t-129 -118t-164.5 -76.5t-199 -27.5t-199.5 27t-165 76.5t-129 118t-92.5 151.5t-56 178t-19 196z M221 718q0 -130 34.5 -247.5t104.5 -206t175 -140.5t247 -52q141 0 245.5 52.5t174.5 141t104.5 205.5t34.5 247q0 131 -34.5 248t-104 205.5t-174.5 140.5t-246 52q-142 0 -247 -51.5t-175 -140t-104.5 -206t-34.5 -248.5zM593 1952l167 1l169 -305h-80z" />
<glyph unicode="&#xd3;" horiz-adv-x="1522" d="M121 718q0 153 42.5 288.5t125.5 237.5t206.5 161.5t286.5 59.5q108 0 199 -27t164.5 -76.5t129 -118t92.5 -151.5t56 -178t19 -196t-19 -195.5t-56 -177.5t-92.5 -152t-129 -118t-164.5 -76.5t-199 -27.5t-199.5 27t-165 76.5t-129 118t-92.5 151.5t-56 178t-19 196z M221 718q0 -130 34.5 -247.5t104.5 -206t175 -140.5t247 -52q141 0 245.5 52.5t174.5 141t104.5 205.5t34.5 247q0 131 -34.5 248t-104 205.5t-174.5 140.5t-246 52q-142 0 -247 -51.5t-175 -140t-104.5 -206t-34.5 -248.5zM606 1637l157 301h154l-228 -301h-83z" />
<glyph unicode="&#xd4;" horiz-adv-x="1522" d="M121 718q0 153 42.5 288.5t125.5 237.5t206.5 161.5t286.5 59.5q108 0 199 -27t164.5 -76.5t129 -118t92.5 -151.5t56 -178t19 -196t-19 -195.5t-56 -177.5t-92.5 -152t-129 -118t-164.5 -76.5t-199 -27.5t-199.5 27t-165 76.5t-129 118t-92.5 151.5t-56 178t-19 196z M221 718q0 -130 34.5 -247.5t104.5 -206t175 -140.5t247 -52q141 0 245.5 52.5t174.5 141t104.5 205.5t34.5 247q0 131 -34.5 248t-104 205.5t-174.5 140.5t-246 52q-142 0 -247 -51.5t-175 -140t-104.5 -206t-34.5 -248.5zM488 1657l235 310h77l235 -310h-83l-189 204 l-182 -204h-93z" />
<glyph unicode="&#xd5;" horiz-adv-x="1522" d="M121 718q0 153 42.5 288.5t125.5 237.5t206.5 161.5t286.5 59.5q108 0 199 -27t164.5 -76.5t129 -118t92.5 -151.5t56 -178t19 -196t-19 -195.5t-56 -177.5t-92.5 -152t-129 -118t-164.5 -76.5t-199 -27.5t-199.5 27t-165 76.5t-129 118t-92.5 151.5t-56 178t-19 196z M221 718q0 -130 34.5 -247.5t104.5 -206t175 -140.5t247 -52q141 0 245.5 52.5t174.5 141t104.5 205.5t34.5 247q0 131 -34.5 248t-104 205.5t-174.5 140.5t-246 52q-142 0 -247 -51.5t-175 -140t-104.5 -206t-34.5 -248.5zM420 1720q11 36 31 67t47 54.5t61 36.5t73 13 q50 0 85 -17.5t65 -38t60 -38t68 -17.5q49 0 78 30.5t43 74.5l71 -22q-11 -36 -28.5 -68.5t-42.5 -57.5t-57.5 -39.5t-73.5 -14.5q-49 0 -84.5 17.5t-66 38.5t-59.5 38.5t-65 17.5q-45 0 -83 -26t-51 -70z" />
<glyph unicode="&#xd6;" horiz-adv-x="1522" d="M121 718q0 153 42.5 288.5t125.5 237.5t206.5 161.5t286.5 59.5q108 0 199 -27t164.5 -76.5t129 -118t92.5 -151.5t56 -178t19 -196t-19 -195.5t-56 -177.5t-92.5 -152t-129 -118t-164.5 -76.5t-199 -27.5t-199.5 27t-165 76.5t-129 118t-92.5 151.5t-56 178t-19 196z M221 718q0 -130 34.5 -247.5t104.5 -206t175 -140.5t247 -52q141 0 245.5 52.5t174.5 141t104.5 205.5t34.5 247q0 131 -34.5 248t-104 205.5t-174.5 140.5t-246 52q-142 0 -247 -51.5t-175 -140t-104.5 -206t-34.5 -248.5zM494 1777q0 45 27 71.5t72 26.5t71.5 -26.5 t26.5 -71.5t-26.5 -71.5t-71.5 -26.5t-72 26.5t-27 71.5zM831 1777q0 45 27 71.5t72 26.5t71.5 -26.5t26.5 -71.5t-26.5 -71.5t-71.5 -26.5t-72 26.5t-27 71.5z" />
<glyph unicode="&#xd7;" horiz-adv-x="1173" d="M162 1024l70 72l355 -348l355 348l70 -72l-353 -346l350 -344l-70 -72l-352 345l-352 -345l-70 72l350 344z" />
<glyph unicode="&#xd8;" horiz-adv-x="1522" d="M121 718q0 153 42.5 288.5t125.5 237.5t206.5 161.5t286.5 59.5q108 0 199 -27t164.5 -76.5t129 -118t92.5 -151.5t56 -178t19 -196t-19 -195.5t-56 -177.5t-92.5 -152t-129 -118t-164.5 -76.5t-199 -27.5t-199.5 27t-165 76.5t-129 118t-92.5 151.5t-56 178t-19 196z M221 718q0 -130 34.5 -247.5t104.5 -206t175 -140.5t247 -52q141 0 245.5 52.5t174.5 141t104.5 205.5t34.5 247q0 131 -34.5 248t-104 205.5t-174.5 140.5t-246 52q-142 0 -247 -51.5t-175 -140t-104.5 -206t-34.5 -248.5zM409 0l599 1434h106l-599 -1434h-106z" />
<glyph unicode="&#xd9;" horiz-adv-x="1245" d="M120 501v933h98v-933q0 -90 29 -167t82 -133.5t128 -88.5t166 -32t165.5 32t127.5 88.5t82 133.5t29 167v933h98v-933q0 -111 -36 -206t-102 -164.5t-158.5 -109t-205.5 -39.5t-205.5 39.5t-158.5 109t-102.5 164.5t-36.5 206zM455 1952l167 1l169 -305h-80z" />
<glyph unicode="&#xda;" horiz-adv-x="1245" d="M120 501v933h98v-933q0 -90 29 -167t82 -133.5t128 -88.5t166 -32t165.5 32t127.5 88.5t82 133.5t29 167v933h98v-933q0 -111 -36 -206t-102 -164.5t-158.5 -109t-205.5 -39.5t-205.5 39.5t-158.5 109t-102.5 164.5t-36.5 206zM467 1637l157 301h154l-228 -301h-83z" />
<glyph unicode="&#xdb;" horiz-adv-x="1245" d="M120 501v933h98v-933q0 -90 29 -167t82 -133.5t128 -88.5t166 -32t165.5 32t127.5 88.5t82 133.5t29 167v933h98v-933q0 -111 -36 -206t-102 -164.5t-158.5 -109t-205.5 -39.5t-205.5 39.5t-158.5 109t-102.5 164.5t-36.5 206zM349 1657l235 310h77l235 -310h-83 l-189 204l-182 -204h-93z" />
<glyph unicode="&#xdc;" horiz-adv-x="1245" d="M120 501v933h98v-933q0 -90 29 -167t82 -133.5t128 -88.5t166 -32t165.5 32t127.5 88.5t82 133.5t29 167v933h98v-933q0 -111 -36 -206t-102 -164.5t-158.5 -109t-205.5 -39.5t-205.5 39.5t-158.5 109t-102.5 164.5t-36.5 206zM356 1777q0 45 27 71.5t72 26.5t71.5 -26.5 t26.5 -71.5t-26.5 -71.5t-71.5 -26.5t-72 26.5t-27 71.5zM693 1777q0 45 27 71.5t72 26.5t71.5 -26.5t26.5 -71.5t-26.5 -71.5t-71.5 -26.5t-72 26.5t-27 71.5z" />
<glyph unicode="&#xdd;" horiz-adv-x="1294" d="M81 1434h112l454 -796l454 796h113l-520 -911l1 -523h-98l-1 530zM492 1637l157 301h154l-228 -301h-83z" />
<glyph unicode="&#xde;" horiz-adv-x="915" d="M100 0v1434h100v-287h236q81 0 150.5 -26t120 -74t79.5 -115.5t29 -150.5q0 -82 -29 -150t-79.5 -116t-120 -74.5t-150.5 -26.5h-236v-414h-100zM200 514h236q59 0 110 19t88.5 54t59 84.5t21.5 109.5q0 61 -21.5 110t-59 83.5t-88.5 53.5t-110 19h-236v-533z" />
<glyph unicode="&#xe0;" horiz-adv-x="1038" d="M121 301q0 73 25 124.5t67.5 86t98 54.5t116 30t122.5 13t116 3q38 0 77 -1t77 -3v10q0 160 -72 235t-231 75q-45 0 -91.5 -9t-84.5 -30.5t-64 -56.5t-30 -88l-98 8q7 74 41 126t85.5 85t115 48t129.5 15q398 0 398 -398q0 -158 -0.5 -314t-0.5 -314h-98v116 q-34 -38 -76.5 -63t-90 -40t-97.5 -21t-99 -6q-75 0 -136.5 20t-105.5 60t-68.5 98.5t-24.5 136.5zM218 301q0 -57 17 -98.5t48 -67.5t75 -38.5t98 -12.5q76 0 141 15t113 49.5t77 91t33 139.5v131q-43 2 -85.5 3t-85.5 1q-40 0 -87.5 -1.5t-95.5 -7.5t-92.5 -19.5t-79 -37 t-55.5 -59.5t-21 -88zM354 1423l167 1l169 -305h-80z" />
<glyph unicode="&#xe1;" horiz-adv-x="1038" d="M121 301q0 73 25 124.5t67.5 86t98 54.5t116 30t122.5 13t116 3q38 0 77 -1t77 -3v10q0 160 -72 235t-231 75q-45 0 -91.5 -9t-84.5 -30.5t-64 -56.5t-30 -88l-98 8q7 74 41 126t85.5 85t115 48t129.5 15q398 0 398 -398q0 -158 -0.5 -314t-0.5 -314h-98v116 q-34 -38 -76.5 -63t-90 -40t-97.5 -21t-99 -6q-75 0 -136.5 20t-105.5 60t-68.5 98.5t-24.5 136.5zM218 301q0 -57 17 -98.5t48 -67.5t75 -38.5t98 -12.5q76 0 141 15t113 49.5t77 91t33 139.5v131q-43 2 -85.5 3t-85.5 1q-40 0 -87.5 -1.5t-95.5 -7.5t-92.5 -19.5t-79 -37 t-55.5 -59.5t-21 -88zM437 1108l157 301h154l-228 -301h-83z" />
<glyph unicode="&#xe2;" horiz-adv-x="1038" d="M121 301q0 73 25 124.5t67.5 86t98 54.5t116 30t122.5 13t116 3q38 0 77 -1t77 -3v10q0 160 -72 235t-231 75q-45 0 -91.5 -9t-84.5 -30.5t-64 -56.5t-30 -88l-98 8q7 74 41 126t85.5 85t115 48t129.5 15q398 0 398 -398q0 -158 -0.5 -314t-0.5 -314h-98v116 q-34 -38 -76.5 -63t-90 -40t-97.5 -21t-99 -6q-75 0 -136.5 20t-105.5 60t-68.5 98.5t-24.5 136.5zM218 301q0 -57 17 -98.5t48 -67.5t75 -38.5t98 -12.5q76 0 141 15t113 49.5t77 91t33 139.5v131q-43 2 -85.5 3t-85.5 1q-40 0 -87.5 -1.5t-95.5 -7.5t-92.5 -19.5t-79 -37 t-55.5 -59.5t-21 -88zM233 1121l235 310h77l235 -310h-83l-189 204l-182 -204h-93z" />
<glyph unicode="&#xe3;" horiz-adv-x="1038" d="M121 301q0 73 25 124.5t67.5 86t98 54.5t116 30t122.5 13t116 3q38 0 77 -1t77 -3v10q0 160 -72 235t-231 75q-45 0 -91.5 -9t-84.5 -30.5t-64 -56.5t-30 -88l-98 8q7 74 41 126t85.5 85t115 48t129.5 15q398 0 398 -398q0 -158 -0.5 -314t-0.5 -314h-98v116 q-34 -38 -76.5 -63t-90 -40t-97.5 -21t-99 -6q-75 0 -136.5 20t-105.5 60t-68.5 98.5t-24.5 136.5zM182 1191q11 37 30.5 68.5t46.5 54t61 35.5t74 13q53 0 88 -17.5t63.5 -38t57 -38t69.5 -17.5q49 0 78 30.5t43 74.5l71 -22q-11 -36 -28.5 -68.5t-42.5 -57.5t-57.5 -39.5 t-73.5 -14.5q-35 0 -62 8.5t-49.5 20.5t-41 27t-37.5 27t-39.5 20.5t-45.5 8.5q-45 0 -83 -26t-51 -70zM218 301q0 -57 17 -98.5t48 -67.5t75 -38.5t98 -12.5q76 0 141 15t113 49.5t77 91t33 139.5v131q-43 2 -85.5 3t-85.5 1q-40 0 -87.5 -1.5t-95.5 -7.5t-92.5 -19.5 t-79 -37t-55.5 -59.5t-21 -88z" />
<glyph unicode="&#xe4;" horiz-adv-x="1038" d="M121 301q0 73 25 124.5t67.5 86t98 54.5t116 30t122.5 13t116 3q38 0 77 -1t77 -3v10q0 160 -72 235t-231 75q-45 0 -91.5 -9t-84.5 -30.5t-64 -56.5t-30 -88l-98 8q7 74 41 126t85.5 85t115 48t129.5 15q398 0 398 -398q0 -158 -0.5 -314t-0.5 -314h-98v116 q-34 -38 -76.5 -63t-90 -40t-97.5 -21t-99 -6q-75 0 -136.5 20t-105.5 60t-68.5 98.5t-24.5 136.5zM218 301q0 -57 17 -98.5t48 -67.5t75 -38.5t98 -12.5q76 0 141 15t113 49.5t77 91t33 139.5v131q-43 2 -85.5 3t-85.5 1q-40 0 -87.5 -1.5t-95.5 -7.5t-92.5 -19.5t-79 -37 t-55.5 -59.5t-21 -88zM257 1248q0 45 27 71.5t72 26.5t71.5 -26.5t26.5 -71.5t-26.5 -71.5t-71.5 -26.5t-72 26.5t-27 71.5zM594 1248q0 45 27 71.5t72 26.5t71.5 -26.5t26.5 -71.5t-26.5 -71.5t-71.5 -26.5t-72 26.5t-27 71.5z" />
<glyph unicode="&#xe5;" horiz-adv-x="1038" d="M121 301q0 73 25 124.5t67.5 86t98 54.5t116 30t122.5 13t116 3q38 0 77 -1t77 -3v10q0 160 -72 235t-231 75q-45 0 -91.5 -9t-84.5 -30.5t-64 -56.5t-30 -88l-98 8q7 74 41 126t85.5 85t115 48t129.5 15q398 0 398 -398q0 -158 -0.5 -314t-0.5 -314h-98v116 q-34 -38 -76.5 -63t-90 -40t-97.5 -21t-99 -6q-75 0 -136.5 20t-105.5 60t-68.5 98.5t-24.5 136.5zM218 301q0 -57 17 -98.5t48 -67.5t75 -38.5t98 -12.5q76 0 141 15t113 49.5t77 91t33 139.5v131q-43 2 -85.5 3t-85.5 1q-40 0 -87.5 -1.5t-95.5 -7.5t-92.5 -19.5t-79 -37 t-55.5 -59.5t-21 -88zM362 1321q0 39 13 72t37 56t56.5 36t71.5 13t71.5 -13t56.5 -36t37 -56t13 -72t-13 -72t-36.5 -57t-56 -37t-72.5 -13t-72.5 13t-56 37t-36.5 57t-13 72zM442 1321q0 -46 25.5 -72.5t72.5 -26.5t72.5 26.5t25.5 72.5t-26.5 71.5t-71.5 25.5 t-71.5 -25.5t-26.5 -71.5z" />
<glyph unicode="&#xe6;" horiz-adv-x="1722" d="M56 301q0 62 21 105t55.5 72t80.5 46t96 27t101 15t97 10q13 2 25 3t25 2q50 6 99.5 11.5t99.5 12.5v31q0 81 -19 137t-57 90.5t-94.5 49.5t-132.5 15q-45 0 -91 -9.5t-84.5 -31t-64.5 -56.5t-31 -87l-97 8q6 73 40.5 125t86 85t115 48.5t129.5 15.5q88 0 159 -20.5 t122 -63t80.5 -108.5t35.5 -157q11 95 51 161.5t101 108t139 60.5t166 19q75 0 136.5 -20t105.5 -60t68.5 -98.5t24.5 -136.5q0 -60 -17.5 -101t-49 -69t-75 -45t-96.5 -30q-57 -13 -114.5 -21t-115.5 -13.5t-116 -10.5t-115 -12v-33q0 -79 19 -135t57 -90.5t94.5 -50.5 t131.5 -16q45 0 91.5 9.5t84.5 31t64.5 57t30.5 87.5l98 -9q-6 -73 -40.5 -125t-86 -85t-115 -48.5t-129.5 -15.5q-88 0 -159 20.5t-122 63.5t-81 109.5t-35 157.5q-12 -96 -51.5 -162.5t-100 -108.5t-139 -61t-167.5 -19q-75 0 -136.5 20t-105.5 60t-68.5 98.5t-24.5 136.5 zM154 301q0 -57 17 -98t47.5 -67.5t74.5 -39t98 -12.5q95 0 163.5 20t113 63t66 110.5t21.5 163.5v64q-101 -13 -201 -23t-200 -25q-37 -6 -73 -13.5t-64 -23.5t-45.5 -44t-17.5 -75zM946 507q101 13 201 23.5t201 25.5q38 6 74 12.5t64 22.5t44.5 44t16.5 76q0 57 -17 98 t-47.5 67.5t-74.5 39t-98 12.5q-94 0 -163 -20t-113.5 -63t-66 -110.5t-21.5 -163.5v-64z" />
<glyph unicode="&#xe7;" horiz-adv-x="1150" d="M121 516q0 108 30 204t88.5 168t146.5 114.5t203 42.5q81 0 151.5 -23t127 -66t97.5 -105t64 -139l-93 -28q-18 61 -50.5 109.5t-77 82.5t-100 52.5t-119.5 18.5q-95 0 -165 -34.5t-115.5 -94t-68 -137.5t-22.5 -165t22.5 -165t68.5 -137.5t116 -94.5t164 -35 q64 0 119.5 18.5t100 52.5t77 82.5t50.5 109.5l93 -28q-23 -77 -64 -139t-97.5 -105t-127 -66t-151.5 -23q-115 0 -203 42.5t-146.5 115t-88.5 168.5t-30 204zM397 -454l60 80q28 -22 61.5 -36t69.5 -14q17 0 34 5t30 14.5t21 24t8 33.5q0 33 -16.5 54t-41.5 33t-54.5 16 t-55.5 4q-15 0 -30 -1.5t-30 -3.5v57q1 2 9.5 14t20 28.5t25 36t26 36.5t21 29.5t10.5 15.5h119l-103 -137q41 -6 76 -17t61 -32t40.5 -52.5t14.5 -77.5q0 -41 -16 -73.5t-42.5 -54.5t-61.5 -33.5t-74 -11.5q-49 0 -95.5 17.5t-86.5 45.5z" />
<glyph unicode="&#xe8;" horiz-adv-x="1177" d="M121 516q0 108 30 204t88.5 168.5t146.5 114.5t203 42t202.5 -42.5t146.5 -115t89 -168.5t30 -204l-839 3q0 -88 22.5 -166.5t68 -138t115.5 -94.5t165 -35q121 0 209 62t130 176l92 -33q-26 -71 -68 -127.5t-97.5 -95.5t-122.5 -59.5t-143 -20.5q-115 0 -203 42.5 t-146.5 115t-88.5 168.5t-30 204zM226 616l726 -3q-10 73 -39.5 134.5t-76 105.5t-108.5 69t-139 25q-81 0 -143.5 -25.5t-107.5 -70t-73 -105t-39 -130.5zM425 1423l167 1l169 -305h-80z" />
<glyph unicode="&#xe9;" horiz-adv-x="1177" d="M121 516q0 108 30 204t88.5 168.5t146.5 114.5t203 42t202.5 -42.5t146.5 -115t89 -168.5t30 -204l-839 3q0 -88 22.5 -166.5t68 -138t115.5 -94.5t165 -35q121 0 209 62t130 176l92 -33q-26 -71 -68 -127.5t-97.5 -95.5t-122.5 -59.5t-143 -20.5q-115 0 -203 42.5 t-146.5 115t-88.5 168.5t-30 204zM226 616l726 -3q-10 73 -39.5 134.5t-76 105.5t-108.5 69t-139 25q-81 0 -143.5 -25.5t-107.5 -70t-73 -105t-39 -130.5zM508 1108l157 301h154l-228 -301h-83z" />
<glyph unicode="&#xea;" horiz-adv-x="1177" d="M121 516q0 108 30 204t88.5 168.5t146.5 114.5t203 42t202.5 -42.5t146.5 -115t89 -168.5t30 -204l-839 3q0 -88 22.5 -166.5t68 -138t115.5 -94.5t165 -35q121 0 209 62t130 176l92 -33q-26 -71 -68 -127.5t-97.5 -95.5t-122.5 -59.5t-143 -20.5q-115 0 -203 42.5 t-146.5 115t-88.5 168.5t-30 204zM226 616l726 -3q-10 73 -39.5 134.5t-76 105.5t-108.5 69t-139 25q-81 0 -143.5 -25.5t-107.5 -70t-73 -105t-39 -130.5zM304 1121l235 310h77l235 -310h-83l-189 204l-182 -204h-93z" />
<glyph unicode="&#xeb;" horiz-adv-x="1177" d="M121 516q0 108 30 204t88.5 168.5t146.5 114.5t203 42t202.5 -42.5t146.5 -115t89 -168.5t30 -204l-839 3q0 -88 22.5 -166.5t68 -138t115.5 -94.5t165 -35q121 0 209 62t130 176l92 -33q-26 -71 -68 -127.5t-97.5 -95.5t-122.5 -59.5t-143 -20.5q-115 0 -203 42.5 t-146.5 115t-88.5 168.5t-30 204zM226 616l726 -3q-10 73 -39.5 134.5t-76 105.5t-108.5 69t-139 25q-81 0 -143.5 -25.5t-107.5 -70t-73 -105t-39 -130.5zM328 1248q0 45 27 71.5t72 26.5t71.5 -26.5t26.5 -71.5t-26.5 -71.5t-71.5 -26.5t-72 26.5t-27 71.5zM665 1248 q0 45 27 71.5t72 26.5t71.5 -26.5t26.5 -71.5t-26.5 -71.5t-71.5 -26.5t-72 26.5t-27 71.5z" />
<glyph unicode="&#xec;" horiz-adv-x="306" d="M-15 1398l167 1l169 -305h-80zM101 4v1022h100v-1022h-100z" />
<glyph unicode="&#xed;" horiz-adv-x="306" d="M68 1083l157 301h154l-228 -301h-83zM101 4v1022h100v-1022h-100z" />
<glyph unicode="&#xee;" horiz-adv-x="306" d="M-136 1096l235 310h77l235 -310h-83l-189 204l-182 -204h-93zM101 4v1022h100v-1022h-100z" />
<glyph unicode="&#xef;" horiz-adv-x="306" d="M-112 1223q0 45 27 71.5t72 26.5t71.5 -26.5t26.5 -71.5t-26.5 -71.5t-71.5 -26.5t-72 26.5t-27 71.5zM101 4v1022h100v-1022h-100zM225 1223q0 45 27 71.5t72 26.5t71.5 -26.5t26.5 -71.5t-26.5 -71.5t-71.5 -26.5t-72 26.5t-27 71.5z" />
<glyph unicode="&#xf0;" horiz-adv-x="1150" d="M93 503q0 108 30 206.5t89 173.5t148 119.5t206 44.5q64 0 121.5 -20t105.5 -65l4 4q-43 77 -94 148t-114 133l-299 -150l-43 84l273 132q-61 55 -125.5 105t-132.5 96h185q47 -34 91 -70.5t88 -74.5l295 146l45 -82l-272 -133q160 -160 244.5 -357.5t84.5 -424.5 q0 -107 -29 -205t-87.5 -172.5t-145.5 -119t-204 -44.5q-119 0 -206.5 40.5t-144.5 111.5t-85 167t-28 207zM204 505q0 -81 19.5 -156.5t62.5 -134t111.5 -93.5t165.5 -35q95 0 161.5 37.5t108 98t60.5 136.5t19 153q0 83 -15 160t-53.5 136t-105 94.5t-168.5 35.5 q-97 0 -166.5 -37.5t-114 -98.5t-65 -138.5t-20.5 -157.5z" />
<glyph unicode="&#xf1;" horiz-adv-x="1036" d="M121 1017h97v-152q28 42 66 75t83 55.5t95 34.5t102 12q78 0 142.5 -24.5t111 -69t72 -107.5t25.5 -141l-2 -699h-98l2 699q0 60 -19.5 106t-54 77t-83 46.5t-107.5 15.5q-43 0 -96 -14t-102 -40.5t-86.5 -63.5t-49.5 -84l1 -742h-97zM191 1191q11 37 30.5 68.5t46.5 54 t61 35.5t74 13q53 0 88 -17.5t63.5 -38t57 -38t69.5 -17.5q49 0 78 30.5t43 74.5l71 -22q-11 -36 -28.5 -68.5t-42.5 -57.5t-57.5 -39.5t-73.5 -14.5q-35 0 -62 8.5t-49.5 20.5t-41 27t-37.5 27t-39.5 20.5t-45.5 8.5q-45 0 -83 -26t-51 -70z" />
<glyph unicode="&#xf2;" horiz-adv-x="1177" d="M121 516q0 119 33.5 216.5t95 167t148 107.5t191.5 38t191.5 -38t148 -107.5t95 -167t33.5 -216.5t-33.5 -216.5t-95 -167.5t-148 -108t-191.5 -38t-191.5 38t-148 107.5t-95 167.5t-33.5 217zM218 516q0 -99 26 -178.5t74.5 -136t117 -87t153.5 -30.5q84 0 152.5 30.5 t117 87t74.5 136t26 178.5t-26 178.5t-74 135.5t-116.5 86.5t-153.5 30.5t-153.5 -30.5t-117 -86.5t-74.5 -135.5t-26 -178.5zM425 1423l167 1l169 -305h-80z" />
<glyph unicode="&#xf3;" horiz-adv-x="1177" d="M121 516q0 119 33.5 216.5t95 167t148 107.5t191.5 38t191.5 -38t148 -107.5t95 -167t33.5 -216.5t-33.5 -216.5t-95 -167.5t-148 -108t-191.5 -38t-191.5 38t-148 107.5t-95 167.5t-33.5 217zM218 516q0 -99 26 -178.5t74.5 -136t117 -87t153.5 -30.5q84 0 152.5 30.5 t117 87t74.5 136t26 178.5t-26 178.5t-74 135.5t-116.5 86.5t-153.5 30.5t-153.5 -30.5t-117 -86.5t-74.5 -135.5t-26 -178.5zM508 1108l157 301h154l-228 -301h-83z" />
<glyph unicode="&#xf4;" horiz-adv-x="1177" d="M121 516q0 119 33.5 216.5t95 167t148 107.5t191.5 38t191.5 -38t148 -107.5t95 -167t33.5 -216.5t-33.5 -216.5t-95 -167.5t-148 -108t-191.5 -38t-191.5 38t-148 107.5t-95 167.5t-33.5 217zM218 516q0 -99 26 -178.5t74.5 -136t117 -87t153.5 -30.5q84 0 152.5 30.5 t117 87t74.5 136t26 178.5t-26 178.5t-74 135.5t-116.5 86.5t-153.5 30.5t-153.5 -30.5t-117 -86.5t-74.5 -135.5t-26 -178.5zM304 1121l235 310h77l235 -310h-83l-189 204l-182 -204h-93z" />
<glyph unicode="&#xf5;" horiz-adv-x="1177" d="M121 516q0 119 33.5 216.5t95 167t148 107.5t191.5 38t191.5 -38t148 -107.5t95 -167t33.5 -216.5t-33.5 -216.5t-95 -167.5t-148 -108t-191.5 -38t-191.5 38t-148 107.5t-95 167.5t-33.5 217zM218 516q0 -99 26 -178.5t74.5 -136t117 -87t153.5 -30.5q84 0 152.5 30.5 t117 87t74.5 136t26 178.5t-26 178.5t-74 135.5t-116.5 86.5t-153.5 30.5t-153.5 -30.5t-117 -86.5t-74.5 -135.5t-26 -178.5zM253 1191q11 37 30.5 68.5t46.5 54t61 35.5t74 13q53 0 88 -17.5t63.5 -38t57 -38t69.5 -17.5q49 0 78 30.5t43 74.5l71 -22q-11 -36 -28.5 -68.5 t-42.5 -57.5t-57.5 -39.5t-73.5 -14.5q-35 0 -62 8.5t-49.5 20.5t-41 27t-37.5 27t-39.5 20.5t-45.5 8.5q-45 0 -83 -26t-51 -70z" />
<glyph unicode="&#xf6;" horiz-adv-x="1177" d="M121 516q0 119 33.5 216.5t95 167t148 107.5t191.5 38t191.5 -38t148 -107.5t95 -167t33.5 -216.5t-33.5 -216.5t-95 -167.5t-148 -108t-191.5 -38t-191.5 38t-148 107.5t-95 167.5t-33.5 217zM218 516q0 -99 26 -178.5t74.5 -136t117 -87t153.5 -30.5q84 0 152.5 30.5 t117 87t74.5 136t26 178.5t-26 178.5t-74 135.5t-116.5 86.5t-153.5 30.5t-153.5 -30.5t-117 -86.5t-74.5 -135.5t-26 -178.5zM328 1248q0 45 27 71.5t72 26.5t71.5 -26.5t26.5 -71.5t-26.5 -71.5t-71.5 -26.5t-72 26.5t-27 71.5zM665 1248q0 45 27 71.5t72 26.5t71.5 -26.5 t26.5 -71.5t-26.5 -71.5t-71.5 -26.5t-72 26.5t-27 71.5z" />
<glyph unicode="&#xf7;" horiz-adv-x="1201" d="M162 529v100h863v-100h-863zM487 315q0 43 27.5 70.5t70.5 27.5t70.5 -27.5t27.5 -70.5t-27.5 -71t-70.5 -28t-70.5 28t-27.5 71zM487 829q0 43 27.5 70.5t70.5 27.5t70.5 -27.5t27.5 -70.5t-27.5 -71t-70.5 -28t-70.5 28t-27.5 71z" />
<glyph unicode="&#xf8;" horiz-adv-x="1177" d="M121 516q0 119 33.5 216.5t95 167t148 107.5t191.5 38t191.5 -38t148 -107.5t95 -167t33.5 -216.5t-33.5 -216.5t-95 -167.5t-148 -108t-191.5 -38t-191.5 38t-148 107.5t-95 167.5t-33.5 217zM204 -132l599 1434h106l-599 -1434h-106zM218 516q0 -99 26 -178.5 t74.5 -136t117 -87t153.5 -30.5q84 0 152.5 30.5t117 87t74.5 136t26 178.5t-26 178.5t-74 135.5t-116.5 86.5t-153.5 30.5t-153.5 -30.5t-117 -86.5t-74.5 -135.5t-26 -178.5z" />
<glyph unicode="&#xf9;" horiz-adv-x="1036" d="M121 329q0 177 0.5 345t1.5 345h98l-2 -690q0 -60 20 -105.5t55 -76.5t83.5 -47t105.5 -16q48 0 99.5 14t97.5 40t82 63.5t53 85.5l2 -1l-1 733h97l2 -1007h-97v152q-28 -43 -67 -76t-84 -55.5t-94.5 -34t-100.5 -11.5q-77 0 -141.5 24t-111 68.5t-72.5 108t-26 141.5z M348 1423l167 1l169 -305h-80z" />
<glyph unicode="&#xfa;" horiz-adv-x="1036" d="M121 329q0 177 0.5 345t1.5 345h98l-2 -690q0 -60 20 -105.5t55 -76.5t83.5 -47t105.5 -16q48 0 99.5 14t97.5 40t82 63.5t53 85.5l2 -1l-1 733h97l2 -1007h-97v152q-28 -43 -67 -76t-84 -55.5t-94.5 -34t-100.5 -11.5q-77 0 -141.5 24t-111 68.5t-72.5 108t-26 141.5z M431 1108l157 301h154l-228 -301h-83z" />
<glyph unicode="&#xfb;" horiz-adv-x="1036" d="M121 329q0 177 0.5 345t1.5 345h98l-2 -690q0 -60 20 -105.5t55 -76.5t83.5 -47t105.5 -16q48 0 99.5 14t97.5 40t82 63.5t53 85.5l2 -1l-1 733h97l2 -1007h-97v152q-28 -43 -67 -76t-84 -55.5t-94.5 -34t-100.5 -11.5q-77 0 -141.5 24t-111 68.5t-72.5 108t-26 141.5z M227 1121l235 310h77l235 -310h-83l-189 204l-182 -204h-93z" />
<glyph unicode="&#xfc;" horiz-adv-x="1036" d="M121 329q0 177 0.5 345t1.5 345h98l-2 -690q0 -60 20 -105.5t55 -76.5t83.5 -47t105.5 -16q48 0 99.5 14t97.5 40t82 63.5t53 85.5l2 -1l-1 733h97l2 -1007h-97v152q-28 -43 -67 -76t-84 -55.5t-94.5 -34t-100.5 -11.5q-77 0 -141.5 24t-111 68.5t-72.5 108t-26 141.5z M251 1248q0 45 27 71.5t72 26.5t71.5 -26.5t26.5 -71.5t-26.5 -71.5t-71.5 -26.5t-72 26.5t-27 71.5zM588 1248q0 45 27 71.5t72 26.5t71.5 -26.5t26.5 -71.5t-26.5 -71.5t-71.5 -26.5t-72 26.5t-27 71.5z" />
<glyph unicode="&#xfd;" horiz-adv-x="1005" d="M16 1024h104l352 -895l402 895h107l-596 -1327q-23 -53 -67 -85t-103 -32q-35 0 -69 10.5t-68 20.5v101q33 -10 67.5 -22.5t69.5 -12.5q30 0 50 17t31 43l60 134l60 134zM365 1108l157 301h154l-228 -301h-83z" />
<glyph unicode="&#xfe;" horiz-adv-x="1137" d="M100 1437h98l1 -597q59 103 155 154t214 51q116 0 203.5 -42.5t146 -114.5t88.5 -168t30 -204t-30 -204t-88.5 -168.5t-146 -115t-203.5 -42.5q-118 0 -214 52t-155 156q0 -162 -0.5 -322t1.5 -322h-98q-2 170 -1.5 337t0.5 337q0 305 -0.5 606.5t-0.5 606.5zM199 466h1 q6 -78 33 -147.5t73.5 -121.5t112.5 -82.5t149 -30.5q95 0 165 35t115.5 94t68 137.5t22.5 165.5t-22.5 165t-68 137.5t-115.5 94t-165 34.5q-106 0 -176.5 -41t-113.5 -108.5t-61 -154t-18 -177.5z" />
<glyph unicode="&#xff;" horiz-adv-x="1005" d="M16 1024h104l352 -895l402 895h107l-596 -1327q-23 -53 -67 -85t-103 -32q-35 0 -69 10.5t-68 20.5v101q33 -10 67.5 -22.5t69.5 -12.5q30 0 50 17t31 43l60 134l60 134zM185 1248q0 45 27 71.5t72 26.5t71.5 -26.5t26.5 -71.5t-26.5 -71.5t-71.5 -26.5t-72 26.5 t-27 71.5zM522 1248q0 45 27 71.5t72 26.5t71.5 -26.5t26.5 -71.5t-26.5 -71.5t-71.5 -26.5t-72 26.5t-27 71.5z" />
<glyph unicode="&#x100;" horiz-adv-x="1166" d="M11 -1l542 1435h62l540 -1435h-104l-128 340h-679l-128 -340h-105zM253 1676v100h660v-100h-660zM281 437h605l-302 803z" />
<glyph unicode="&#x101;" horiz-adv-x="1038" d="M121 301q0 73 25 124.5t67.5 86t98 54.5t116 30t122.5 13t116 3q38 0 77 -1t77 -3v10q0 160 -72 235t-231 75q-45 0 -91.5 -9t-84.5 -30.5t-64 -56.5t-30 -88l-98 8q7 74 41 126t85.5 85t115 48t129.5 15q398 0 398 -398q0 -158 -0.5 -314t-0.5 -314h-98v116 q-34 -38 -76.5 -63t-90 -40t-97.5 -21t-99 -6q-75 0 -136.5 20t-105.5 60t-68.5 98.5t-24.5 136.5zM190 1128v100h660v-100h-660zM218 301q0 -57 17 -98.5t48 -67.5t75 -38.5t98 -12.5q76 0 141 15t113 49.5t77 91t33 139.5v131q-43 2 -85.5 3t-85.5 1q-40 0 -87.5 -1.5 t-95.5 -7.5t-92.5 -19.5t-79 -37t-55.5 -59.5t-21 -88z" />
<glyph unicode="&#x102;" horiz-adv-x="1166" d="M11 -1l542 1435h62l540 -1435h-104l-128 340h-679l-128 -340h-105zM281 437h605l-302 803zM281 1940h100q0 -45 16 -78.5t44 -55t64.5 -32.5t78.5 -11t78.5 11t64 33t43.5 55t16 78h100q0 -66 -23.5 -117.5t-64.5 -87t-96 -54t-118 -18.5t-118 18.5t-96 54t-65 87 t-24 117.5z" />
<glyph unicode="&#x103;" horiz-adv-x="1038" d="M121 301q0 73 25 124.5t67.5 86t98 54.5t116 30t122.5 13t116 3q38 0 77 -1t77 -3v10q0 160 -72 235t-231 75q-45 0 -91.5 -9t-84.5 -30.5t-64 -56.5t-30 -88l-98 8q7 74 41 126t85.5 85t115 48t129.5 15q398 0 398 -398q0 -158 -0.5 -314t-0.5 -314h-98v116 q-34 -38 -76.5 -63t-90 -40t-97.5 -21t-99 -6q-75 0 -136.5 20t-105.5 60t-68.5 98.5t-24.5 136.5zM217 1530h100q0 -45 16 -78.5t44 -55t64.5 -32.5t78.5 -11t78.5 11t64 33t43.5 55t16 78h100q0 -66 -23.5 -117.5t-64.5 -87t-96 -54t-118 -18.5t-118 18.5t-96 54t-65 87 t-24 117.5zM218 301q0 -57 17 -98.5t48 -67.5t75 -38.5t98 -12.5q76 0 141 15t113 49.5t77 91t33 139.5v131q-43 2 -85.5 3t-85.5 1q-40 0 -87.5 -1.5t-95.5 -7.5t-92.5 -19.5t-79 -37t-55.5 -59.5t-21 -88z" />
<glyph unicode="&#x104;" horiz-adv-x="1166" d="M11 -1l542 1435h62l540 -1435h-104l-128 340h-679l-128 -340h-105zM281 437h605l-302 803zM401 -334q0 35 13.5 70t34.5 68t46 62.5t48 53.5h148q-14 -12 -34 -30t-41 -39.5t-42 -45t-37.5 -47.5t-26.5 -47t-10 -42q0 -27 17 -43.5t41 -25.5t50.5 -12.5t45.5 -3.5 q30 0 60 3v-100q-30 -3 -60 -3q-42 0 -86.5 9.5t-81.5 31.5t-61 56.5t-24 84.5z" />
<glyph unicode="&#x105;" horiz-adv-x="1038" d="M121 301q0 73 25 124.5t67.5 86t98 54.5t116 30t122.5 13t116 3q38 0 77 -1t77 -3v10q0 160 -72 235t-231 75q-45 0 -91.5 -9t-84.5 -30.5t-64 -56.5t-30 -88l-98 8q7 74 41 126t85.5 85t115 48t129.5 15q398 0 398 -398q0 -158 -0.5 -314t-0.5 -314h-98v116 q-34 -38 -76.5 -63t-90 -40t-97.5 -21t-99 -6q-75 0 -136.5 20t-105.5 60t-68.5 98.5t-24.5 136.5zM218 301q0 -57 17 -98.5t48 -67.5t75 -38.5t98 -12.5q76 0 141 15t113 49.5t77 91t33 139.5v131q-43 2 -85.5 3t-85.5 1q-40 0 -87.5 -1.5t-95.5 -7.5t-92.5 -19.5t-79 -37 t-55.5 -59.5t-21 -88zM309 -319q0 35 13.5 70t34.5 68t46 62.5t48 53.5h148q-14 -12 -34 -30t-41 -39.5t-42 -45t-37.5 -47.5t-26.5 -47t-10 -42q0 -27 17 -43.5t41 -25.5t50.5 -12.5t45.5 -3.5q30 0 60 3v-100q-30 -3 -60 -3q-42 0 -86.5 9.5t-81.5 31.5t-61 56.5t-24 84.5 z" />
<glyph unicode="&#x106;" horiz-adv-x="1444" d="M121 711q0 148 41 279.5t121.5 230.5t200.5 156.5t278 57.5q98 0 184 -24.5t158 -70.5t128.5 -112t95.5 -150l-84 -53q-64 148 -188 230t-294 82q-137 0 -239.5 -50t-170 -135.5t-101 -199.5t-33.5 -241t33.5 -240.5t101 -199.5t170 -136.5t239.5 -50.5q167 0 289 78.5 t188 221.5l87 -46q-39 -83 -95.5 -148.5t-128.5 -110.5t-157.5 -69t-182.5 -24q-158 0 -278 58t-200.5 157t-121.5 231t-41 279zM567 1637l157 301h154l-228 -301h-83z" />
<glyph unicode="&#x107;" horiz-adv-x="1150" d="M121 516q0 108 30 204t88.5 168t146.5 114.5t203 42.5q81 0 151.5 -23t127 -66t97.5 -105t64 -139l-93 -28q-18 61 -50.5 109.5t-77 82.5t-100 52.5t-119.5 18.5q-95 0 -165 -34.5t-115.5 -94t-68 -137.5t-22.5 -165t22.5 -165t68.5 -137.5t116 -94.5t164 -35 q64 0 119.5 18.5t100 52.5t77 82.5t50.5 109.5l93 -28q-23 -77 -64 -139t-97.5 -105t-127 -66t-151.5 -23q-115 0 -203 42.5t-146.5 115t-88.5 168.5t-30 204zM508 1108l157 301h154l-228 -301h-83z" />
<glyph unicode="&#x108;" horiz-adv-x="1444" d="M121 711q0 148 41 279.5t121.5 230.5t200.5 156.5t278 57.5q98 0 184 -24.5t158 -70.5t128.5 -112t95.5 -150l-84 -53q-64 148 -188 230t-294 82q-137 0 -239.5 -50t-170 -135.5t-101 -199.5t-33.5 -241t33.5 -240.5t101 -199.5t170 -136.5t239.5 -50.5q167 0 289 78.5 t188 221.5l87 -46q-39 -83 -95.5 -148.5t-128.5 -110.5t-157.5 -69t-182.5 -24q-158 0 -278 58t-200.5 157t-121.5 231t-41 279zM449 1657l235 310h77l235 -310h-83l-189 204l-182 -204h-93z" />
<glyph unicode="&#x109;" horiz-adv-x="1150" d="M121 516q0 108 30 204t88.5 168t146.5 114.5t203 42.5q81 0 151.5 -23t127 -66t97.5 -105t64 -139l-93 -28q-18 61 -50.5 109.5t-77 82.5t-100 52.5t-119.5 18.5q-95 0 -165 -34.5t-115.5 -94t-68 -137.5t-22.5 -165t22.5 -165t68.5 -137.5t116 -94.5t164 -35 q64 0 119.5 18.5t100 52.5t77 82.5t50.5 109.5l93 -28q-23 -77 -64 -139t-97.5 -105t-127 -66t-151.5 -23q-115 0 -203 42.5t-146.5 115t-88.5 168.5t-30 204zM304 1121l235 310h77l235 -310h-83l-189 204l-182 -204h-93z" />
<glyph unicode="&#x10a;" horiz-adv-x="1444" d="M121 711q0 148 41 279.5t121.5 230.5t200.5 156.5t278 57.5q98 0 184 -24.5t158 -70.5t128.5 -112t95.5 -150l-84 -53q-64 148 -188 230t-294 82q-137 0 -239.5 -50t-170 -135.5t-101 -199.5t-33.5 -241t33.5 -240.5t101 -199.5t170 -136.5t239.5 -50.5q167 0 289 78.5 t188 221.5l87 -46q-39 -83 -95.5 -148.5t-128.5 -110.5t-157.5 -69t-182.5 -24q-158 0 -278 58t-200.5 157t-121.5 231t-41 279zM616 1790q0 48 29 77t77 29t77 -29t29 -77t-29 -77t-77 -29t-77 29t-29 77z" />
<glyph unicode="&#x10b;" horiz-adv-x="1150" d="M121 516q0 108 30 204t88.5 168t146.5 114.5t203 42.5q81 0 151.5 -23t127 -66t97.5 -105t64 -139l-93 -28q-18 61 -50.5 109.5t-77 82.5t-100 52.5t-119.5 18.5q-95 0 -165 -34.5t-115.5 -94t-68 -137.5t-22.5 -165t22.5 -165t68.5 -137.5t116 -94.5t164 -35 q64 0 119.5 18.5t100 52.5t77 82.5t50.5 109.5l93 -28q-23 -77 -64 -139t-97.5 -105t-127 -66t-151.5 -23q-115 0 -203 42.5t-146.5 115t-88.5 168.5t-30 204zM469 1380q0 48 29 77t77 29t77 -29t29 -77t-29 -77t-77 -29t-77 29t-29 77z" />
<glyph unicode="&#x10c;" horiz-adv-x="1444" d="M121 711q0 148 41 279.5t121.5 230.5t200.5 156.5t278 57.5q98 0 184 -24.5t158 -70.5t128.5 -112t95.5 -150l-84 -53q-64 148 -188 230t-294 82q-137 0 -239.5 -50t-170 -135.5t-101 -199.5t-33.5 -241t33.5 -240.5t101 -199.5t170 -136.5t239.5 -50.5q167 0 289 78.5 t188 221.5l87 -46q-39 -83 -95.5 -148.5t-128.5 -110.5t-157.5 -69t-182.5 -24q-158 0 -278 58t-200.5 157t-121.5 231t-41 279zM443 1970h95l186 -205l193 205h84l-240 -311l-76 1z" />
<glyph unicode="&#x10d;" horiz-adv-x="1150" d="M121 516q0 108 30 204t88.5 168t146.5 114.5t203 42.5q81 0 151.5 -23t127 -66t97.5 -105t64 -139l-93 -28q-18 61 -50.5 109.5t-77 82.5t-100 52.5t-119.5 18.5q-95 0 -165 -34.5t-115.5 -94t-68 -137.5t-22.5 -165t22.5 -165t68.5 -137.5t116 -94.5t164 -35 q64 0 119.5 18.5t100 52.5t77 82.5t50.5 109.5l93 -28q-23 -77 -64 -139t-97.5 -105t-127 -66t-151.5 -23q-115 0 -203 42.5t-146.5 115t-88.5 168.5t-30 204zM320 1441h95l186 -205l193 205h84l-240 -311l-76 1z" />
<glyph unicode="&#x10e;" horiz-adv-x="1344" d="M120 0v1442q116 -2 231 -2t231 -5q157 -7 277 -62t201 -150t122 -225t41 -287q0 -148 -41 -277.5t-122 -226t-201 -152t-277 -55.5q-109 0 -215.5 -0.5t-215.5 -0.5v1h-31zM218 97l364 1q137 0 239 48t170 131t101.5 194.5t33.5 239.5q0 135 -33.5 247.5t-101.5 194 t-170 129.5t-240 55l-363 6v-1246zM393 1970h95l186 -205l193 205h84l-240 -311l-76 1z" />
<glyph unicode="&#x10f;" horiz-adv-x="1254" d="M101 516q0 108 30 204t88.5 168t146.5 114.5t203 42.5q117 0 213 -50.5t156 -153.5v167v160t0.5 145.5t0.5 123.5h98q0 -230 -0.5 -457t-0.5 -457q0 -128 0.5 -253.5t-1.5 -253.5h-98q1 45 1.5 89.5t0.5 89.5q-59 -106 -155 -157.5t-215 -51.5q-115 0 -203 42.5 t-146.5 115t-88.5 168.5t-30 204zM198 516q0 -87 22.5 -165.5t68 -137.5t115.5 -94t165 -35q83 0 149 30.5t112.5 82.5t73.5 121.5t33 147.5h1v53q0 84 -23.5 161t-70 136.5t-115.5 95t-160 35.5q-95 0 -165 -34.5t-115.5 -94t-68 -137.5t-22.5 -165zM1134 1107l46 327h147 l-135 -331z" />
<glyph unicode="&#x110;" horiz-adv-x="1344" d="M18 631v100h727v-100h-727zM120 0v1442q116 -2 231 -2t231 -5q157 -7 277 -62t201 -150t122 -225t41 -287q0 -148 -41 -277.5t-122 -226t-201 -152t-277 -55.5q-109 0 -215.5 -0.5t-215.5 -0.5v1h-31zM218 97l364 1q137 0 239 48t170 131t101.5 194.5t33.5 239.5 q0 135 -33.5 247.5t-101.5 194t-170 129.5t-240 55l-363 6v-1246z" />
<glyph unicode="&#x111;" horiz-adv-x="1177" d="M121 516q0 108 30 204t88.5 168.5t146.5 114.5t203 42q67 0 123 -14.5t101.5 -41.5t81.5 -64.5t63 -83.5v315t1 281h98l-2 -1421h-98l2 179q-27 -47 -63 -85.5t-82 -66t-102.5 -42.5t-122.5 -15q-115 0 -203 42.5t-146.5 114.5t-88.5 168.5t-30 204.5zM218 516 q0 -87 22.5 -165.5t68 -137.5t115.5 -94t165 -35q87 0 156 34t116 91.5t72 132t25 155.5v25v24q-5 80 -30 152.5t-70.5 128t-112.5 88t-156 32.5q-95 0 -165 -34.5t-115.5 -94t-68 -137.5t-22.5 -165zM499 1576v100h660v-100h-660z" />
<glyph unicode="&#x112;" horiz-adv-x="1118" d="M120 -1v1436l922 -1v-98l-824 1v-545h732v-98h-732v-597h824v-98h-922zM229 1676v100h660v-100h-660z" />
<glyph unicode="&#x113;" horiz-adv-x="1177" d="M121 516q0 108 30 204t88.5 168.5t146.5 114.5t203 42t202.5 -42.5t146.5 -115t89 -168.5t30 -204l-839 3q0 -88 22.5 -166.5t68 -138t115.5 -94.5t165 -35q121 0 209 62t130 176l92 -33q-26 -71 -68 -127.5t-97.5 -95.5t-122.5 -59.5t-143 -20.5q-115 0 -203 42.5 t-146.5 115t-88.5 168.5t-30 204zM226 616l726 -3q-10 73 -39.5 134.5t-76 105.5t-108.5 69t-139 25q-81 0 -143.5 -25.5t-107.5 -70t-73 -105t-39 -130.5zM261 1128v100h660v-100h-660z" />
<glyph unicode="&#x114;" horiz-adv-x="1118" d="M120 -1v1436l922 -1v-98l-824 1v-545h732v-98h-732v-597h824v-98h-922zM257 1940h100q0 -45 16 -78.5t44 -55t64.5 -32.5t78.5 -11t78.5 11t64 33t43.5 55t16 78h100q0 -66 -23.5 -117.5t-64.5 -87t-96 -54t-118 -18.5t-118 18.5t-96 54t-65 87t-24 117.5z" />
<glyph unicode="&#x115;" horiz-adv-x="1177" d="M121 516q0 108 30 204t88.5 168.5t146.5 114.5t203 42t202.5 -42.5t146.5 -115t89 -168.5t30 -204l-839 3q0 -88 22.5 -166.5t68 -138t115.5 -94.5t165 -35q121 0 209 62t130 176l92 -33q-26 -71 -68 -127.5t-97.5 -95.5t-122.5 -59.5t-143 -20.5q-115 0 -203 42.5 t-146.5 115t-88.5 168.5t-30 204zM226 616l726 -3q-10 73 -39.5 134.5t-76 105.5t-108.5 69t-139 25q-81 0 -143.5 -25.5t-107.5 -70t-73 -105t-39 -130.5zM286 1530h100q0 -45 16 -78.5t44 -55t64.5 -32.5t78.5 -11t78.5 11t64 33t43.5 55t16 78h100q0 -66 -23.5 -117.5 t-64.5 -87t-96 -54t-118 -18.5t-118 18.5t-96 54t-65 87t-24 117.5z" />
<glyph unicode="&#x116;" horiz-adv-x="1118" d="M120 -1v1436l922 -1v-98l-824 1v-545h732v-98h-732v-597h824v-98h-922zM453 1790q0 48 29 77t77 29t77 -29t29 -77t-29 -77t-77 -29t-77 29t-29 77z" />
<glyph unicode="&#x117;" horiz-adv-x="1177" d="M121 516q0 108 30 204t88.5 168.5t146.5 114.5t203 42t202.5 -42.5t146.5 -115t89 -168.5t30 -204l-839 3q0 -88 22.5 -166.5t68 -138t115.5 -94.5t165 -35q121 0 209 62t130 176l92 -33q-26 -71 -68 -127.5t-97.5 -95.5t-122.5 -59.5t-143 -20.5q-115 0 -203 42.5 t-146.5 115t-88.5 168.5t-30 204zM226 616l726 -3q-10 73 -39.5 134.5t-76 105.5t-108.5 69t-139 25q-81 0 -143.5 -25.5t-107.5 -70t-73 -105t-39 -130.5zM483 1380q0 48 29 77t77 29t77 -29t29 -77t-29 -77t-77 -29t-77 29t-29 77z" />
<glyph unicode="&#x118;" horiz-adv-x="1118" d="M120 -1v1436l922 -1v-98l-824 1v-545h732v-98h-732v-597h824v-98h-922z" />
<glyph unicode="&#x119;" horiz-adv-x="1177" d="M121 516q0 108 30 204t88.5 168.5t146.5 114.5t203 42t202.5 -42.5t146.5 -115t89 -168.5t30 -204l-839 3q0 -88 22.5 -166.5t68 -138t115.5 -94.5t165 -35q121 0 209 62t130 176l92 -33q-26 -71 -68 -127.5t-97.5 -95.5t-122.5 -59.5t-143 -20.5q-115 0 -203 42.5 t-146.5 115t-88.5 168.5t-30 204zM226 616l726 -3q-10 73 -39.5 134.5t-76 105.5t-108.5 69t-139 25q-81 0 -143.5 -25.5t-107.5 -70t-73 -105t-39 -130.5zM388 -319q0 35 13.5 70t34.5 68t46 62.5t48 53.5h148q-14 -12 -34 -30t-41 -39.5t-42 -45t-37.5 -47.5t-26.5 -47 t-10 -42q0 -27 17 -43.5t41 -25.5t50.5 -12.5t45.5 -3.5q30 0 60 3v-100q-30 -3 -60 -3q-42 0 -86.5 9.5t-81.5 31.5t-61 56.5t-24 84.5z" />
<glyph unicode="&#x11a;" horiz-adv-x="1118" d="M120 -1v1436l922 -1v-98l-824 1v-545h732v-98h-732v-597h824v-98h-922zM280 1970h95l186 -205l193 205h84l-240 -311l-76 1z" />
<glyph unicode="&#x11b;" horiz-adv-x="1177" d="M121 516q0 108 30 204t88.5 168.5t146.5 114.5t203 42t202.5 -42.5t146.5 -115t89 -168.5t30 -204l-839 3q0 -88 22.5 -166.5t68 -138t115.5 -94.5t165 -35q121 0 209 62t130 176l92 -33q-26 -71 -68 -127.5t-97.5 -95.5t-122.5 -59.5t-143 -20.5q-115 0 -203 42.5 t-146.5 115t-88.5 168.5t-30 204zM226 616l726 -3q-10 73 -39.5 134.5t-76 105.5t-108.5 69t-139 25q-81 0 -143.5 -25.5t-107.5 -70t-73 -105t-39 -130.5zM320 1441h95l186 -205l193 205h84l-240 -311l-76 1z" />
<glyph unicode="&#x11c;" horiz-adv-x="1486" d="M121 711q0 148 41 279.5t121.5 230.5t200.5 156.5t278 57.5q112 0 208.5 -32t174 -91t134 -144t87.5 -192l-94 -27q-27 91 -74.5 163t-112.5 122t-146.5 76.5t-176.5 26.5q-137 0 -239.5 -50t-170 -135.5t-101 -199.5t-33.5 -241q0 -128 34 -242t102 -199.5t171 -135.5 t241 -50q134 0 229 42.5t156 111.5t89 156.5t28 177.5h-544v97h642v-103q0 -60 -10.5 -118.5t-32.5 -113.5q-29 -73 -78 -136.5t-118.5 -110.5t-159.5 -74t-201 -27q-159 0 -279.5 57.5t-201.5 156t-122.5 230.5t-41.5 281zM470 1657l235 310h77l235 -310h-83l-189 204 l-182 -204h-93z" />
<glyph unicode="&#x11d;" horiz-adv-x="1177" d="M121 522q0 108 30 204t88.5 168.5t146.5 114.5t203 42q132 0 223.5 -56.5t144.5 -149.5l-1 177h99l2 -1042q0 -99 -32.5 -182.5t-91 -143.5t-140.5 -94t-182 -34q-75 0 -144.5 21.5t-126.5 62.5t-97.5 100t-57.5 135h101q16 -54 49.5 -95t78.5 -69t97 -42.5t106 -14.5 q79 0 142.5 26.5t107.5 74t68 112.5t24 143v219q-52 -93 -144 -149.5t-226 -56.5q-115 0 -203 42t-146.5 114.5t-88.5 168.5t-30 204zM218 522q0 -87 22.5 -165t68 -137.5t115.5 -94t165 -34.5q91 0 158.5 34t113.5 91t70 131.5t28 155.5q0 86 -20.5 167.5t-65 144.5 t-114.5 101t-170 38q-95 0 -165 -35t-115.5 -94t-68 -137.5t-22.5 -165.5zM304 1121l235 310h77l235 -310h-83l-189 204l-182 -204h-93z" />
<glyph unicode="&#x11e;" horiz-adv-x="1486" d="M121 711q0 148 41 279.5t121.5 230.5t200.5 156.5t278 57.5q112 0 208.5 -32t174 -91t134 -144t87.5 -192l-94 -27q-27 91 -74.5 163t-112.5 122t-146.5 76.5t-176.5 26.5q-137 0 -239.5 -50t-170 -135.5t-101 -199.5t-33.5 -241q0 -128 34 -242t102 -199.5t171 -135.5 t241 -50q134 0 229 42.5t156 111.5t89 156.5t28 177.5h-544v97h642v-103q0 -60 -10.5 -118.5t-32.5 -113.5q-29 -73 -78 -136.5t-118.5 -110.5t-159.5 -74t-201 -27q-159 0 -279.5 57.5t-201.5 156t-122.5 230.5t-41.5 281zM441 1940h100q0 -45 16 -78.5t44 -55t64.5 -32.5 t78.5 -11t78.5 11t64 33t43.5 55t16 78h100q0 -66 -23.5 -117.5t-64.5 -87t-96 -54t-118 -18.5t-118 18.5t-96 54t-65 87t-24 117.5z" />
<glyph unicode="&#x11f;" horiz-adv-x="1177" d="M121 522q0 108 30 204t88.5 168.5t146.5 114.5t203 42q132 0 223.5 -56.5t144.5 -149.5l-1 177h99l2 -1042q0 -99 -32.5 -182.5t-91 -143.5t-140.5 -94t-182 -34q-75 0 -144.5 21.5t-126.5 62.5t-97.5 100t-57.5 135h101q16 -54 49.5 -95t78.5 -69t97 -42.5t106 -14.5 q79 0 142.5 26.5t107.5 74t68 112.5t24 143v219q-52 -93 -144 -149.5t-226 -56.5q-115 0 -203 42t-146.5 114.5t-88.5 168.5t-30 204zM218 522q0 -87 22.5 -165t68 -137.5t115.5 -94t165 -34.5q91 0 158.5 34t113.5 91t70 131.5t28 155.5q0 86 -20.5 167.5t-65 144.5 t-114.5 101t-170 38q-95 0 -165 -35t-115.5 -94t-68 -137.5t-22.5 -165.5zM286 1530h100q0 -45 16 -78.5t44 -55t64.5 -32.5t78.5 -11t78.5 11t64 33t43.5 55t16 78h100q0 -66 -23.5 -117.5t-64.5 -87t-96 -54t-118 -18.5t-118 18.5t-96 54t-65 87t-24 117.5z" />
<glyph unicode="&#x120;" horiz-adv-x="1486" d="M121 711q0 148 41 279.5t121.5 230.5t200.5 156.5t278 57.5q112 0 208.5 -32t174 -91t134 -144t87.5 -192l-94 -27q-27 91 -74.5 163t-112.5 122t-146.5 76.5t-176.5 26.5q-137 0 -239.5 -50t-170 -135.5t-101 -199.5t-33.5 -241q0 -128 34 -242t102 -199.5t171 -135.5 t241 -50q134 0 229 42.5t156 111.5t89 156.5t28 177.5h-544v97h642v-103q0 -60 -10.5 -118.5t-32.5 -113.5q-29 -73 -78 -136.5t-118.5 -110.5t-159.5 -74t-201 -27q-159 0 -279.5 57.5t-201.5 156t-122.5 230.5t-41.5 281zM637 1790q0 48 29 77t77 29t77 -29t29 -77 t-29 -77t-77 -29t-77 29t-29 77z" />
<glyph unicode="&#x121;" horiz-adv-x="1177" d="M121 522q0 108 30 204t88.5 168.5t146.5 114.5t203 42q132 0 223.5 -56.5t144.5 -149.5l-1 177h99l2 -1042q0 -99 -32.5 -182.5t-91 -143.5t-140.5 -94t-182 -34q-75 0 -144.5 21.5t-126.5 62.5t-97.5 100t-57.5 135h101q16 -54 49.5 -95t78.5 -69t97 -42.5t106 -14.5 q79 0 142.5 26.5t107.5 74t68 112.5t24 143v219q-52 -93 -144 -149.5t-226 -56.5q-115 0 -203 42t-146.5 114.5t-88.5 168.5t-30 204zM218 522q0 -87 22.5 -165t68 -137.5t115.5 -94t165 -34.5q91 0 158.5 34t113.5 91t70 131.5t28 155.5q0 86 -20.5 167.5t-65 144.5 t-114.5 101t-170 38q-95 0 -165 -35t-115.5 -94t-68 -137.5t-22.5 -165.5zM483 1380q0 48 29 77t77 29t77 -29t29 -77t-29 -77t-77 -29t-77 29t-29 77z" />
<glyph unicode="&#x122;" horiz-adv-x="1501" d="M101 711q0 148 41 279.5t121.5 230.5t200.5 156.5t278 57.5q112 0 208.5 -32t174 -91t134 -144t87.5 -192l-94 -27q-27 91 -74.5 163t-112.5 122t-146.5 76.5t-176.5 26.5q-137 0 -239.5 -50t-170 -135.5t-101 -199.5t-33.5 -241q0 -128 34 -242t102 -199.5t171 -135.5 t241 -50q134 0 229 34t156 100.5t89 166t28 229.5h-544v97h642v-103q0 -150 -36.5 -265.5t-111 -195t-187 -120.5t-265.5 -41q-159 0 -279.5 57.5t-201.5 156t-122.5 230.5t-41.5 281zM640 -457l83 276h152l-163 -276h-72z" />
<glyph unicode="&#x123;" horiz-adv-x="1137" d="M101 522q0 108 30 204t88.5 168t146.5 114.5t203 42.5q118 0 213.5 -51.5t154.5 -154.5q0 27 1 54.5t1 54.5q0 34 -3 68h99q3 -95 4 -188.5t1 -188.5q0 -168 -1.5 -332.5t-1.5 -332.5q0 -99 -32.5 -182t-91 -143.5t-140.5 -94.5t-182 -34q-75 0 -144.5 21.5t-126.5 62.5 t-97.5 100t-57.5 135h101q16 -54 49.5 -95t78.5 -69t97 -42.5t106 -14.5q79 0 142.5 26.5t107.5 74t68 113t24 142.5v219q-60 -104 -156 -155t-214 -51q-115 0 -203 42.5t-146.5 114.5t-88.5 168t-30 204zM198 522q0 -87 22.5 -165t68 -137.5t115.5 -94t165 -34.5 q77 0 137.5 24.5t105 68.5t74 104t44.5 130q4 21 6.5 42t2.5 43q0 88 -21 169.5t-66 144t-115 100t-168 37.5q-95 0 -165 -35t-115.5 -94t-68 -137.5t-22.5 -165.5zM450 1636h179l58 -410l-87 1z" />
<glyph unicode="&#x124;" horiz-adv-x="1221" d="M120 0v1434h98v-642h785v642h97v-1434h-97v694h-785v-694h-98zM337 1657l235 310h77l235 -310h-83l-189 204l-182 -204h-93z" />
<glyph unicode="&#x125;" horiz-adv-x="1036" d="M-116 1461l235 310h77l235 -310h-83l-189 204l-182 -204h-93zM121 1434h97l1 -560q28 43 66.5 75.5t83.5 55t94.5 34t100.5 11.5q77 0 141.5 -24t111 -68.5t72.5 -108t26 -141.5q0 -178 -0.5 -354t-1.5 -354h-98l2 708q0 59 -20 105t-55.5 77t-83.5 47t-105 16 q-49 0 -100.5 -13.5t-97 -40t-81 -64t-53.5 -85.5h-2l1 -750h-97z" />
<glyph unicode="&#x126;" horiz-adv-x="1221" d="M120 0v1434h98v-642h785v642h97v-1434h-97v694h-785v-694h-98zM257 1538v100h660v-100h-660z" />
<glyph unicode="&#x127;" horiz-adv-x="1036" d="M-159 1468v100h660v-100h-660zM121 1434h97l1 -560q28 43 66.5 75.5t83.5 55t94.5 34t100.5 11.5q77 0 141.5 -24t111 -68.5t72.5 -108t26 -141.5q0 -178 -0.5 -354t-1.5 -354h-98l2 708q0 59 -20 105t-55.5 77t-83.5 47t-105 16q-49 0 -100.5 -13.5t-97 -40t-81 -64 t-53.5 -85.5h-2l1 -750h-97z" />
<glyph unicode="&#x128;" horiz-adv-x="338" d="M-172 1720q11 36 31 67t47 54.5t61 36.5t73 13q50 0 85 -17.5t65 -38t60 -38t68 -17.5q49 0 78 30.5t43 74.5l71 -22q-11 -36 -28.5 -68.5t-42.5 -57.5t-57.5 -39.5t-73.5 -14.5q-49 0 -84.5 17.5t-66 38.5t-59.5 38.5t-65 17.5q-45 0 -83 -26t-51 -70zM120 0v1434h98 v-1434h-98z" />
<glyph unicode="&#x129;" horiz-adv-x="306" d="M-187 1166q11 37 30.5 68.5t46.5 54t61 35.5t74 13q53 0 88 -17.5t63.5 -38t57 -38t69.5 -17.5q49 0 78 30.5t43 74.5l71 -22q-11 -36 -28.5 -68.5t-42.5 -57.5t-57.5 -39.5t-73.5 -14.5q-35 0 -62 8.5t-49.5 20.5t-41 27t-37.5 27t-39.5 20.5t-45.5 8.5q-45 0 -83 -26 t-51 -70zM101 4v1022h100v-1022h-100z" />
<glyph unicode="&#x12a;" horiz-adv-x="338" d="M-161 1676v100h660v-100h-660zM120 0v1434h98v-1434h-98z" />
<glyph unicode="&#x12b;" horiz-adv-x="306" d="M-123 1103v100h548v-100h-548zM101 4v1022h100v-1022h-100z" />
<glyph unicode="&#x12e;" horiz-adv-x="338" d="M-34 -319q0 35 13.5 70t34.5 68t46 62.5t48 53.5h148q-14 -12 -34 -30t-41 -39.5t-42 -45t-37.5 -47.5t-26.5 -47t-10 -42q0 -27 17 -43.5t41 -25.5t50.5 -12.5t45.5 -3.5q30 0 60 3v-100q-30 -3 -60 -3q-42 0 -86.5 9.5t-81.5 31.5t-61 56.5t-24 84.5zM120 0v1434h98 v-1434h-98z" />
<glyph unicode="&#x12f;" horiz-adv-x="394" d="M1 -319q0 35 13.5 70t34.5 68t46 62.5t48 53.5h148q-14 -12 -34 -30t-41 -39.5t-42 -45t-37.5 -47.5t-26.5 -47t-10 -42q0 -27 17 -43.5t41 -25.5t50.5 -12.5t45.5 -3.5q30 0 60 3v-100q-30 -3 -60 -3q-42 0 -86.5 9.5t-81.5 31.5t-61 56.5t-24 84.5zM110 1280 q0 18 6.5 33.5t18 27t26.5 18t32 6.5q37 0 60.5 -24.5t23.5 -60.5q0 -35 -24 -59t-60 -24q-35 0 -59 24t-24 59zM141 1025h97l2 -1025h-97z" />
<glyph unicode="&#x130;" horiz-adv-x="338" d="M63 1790q0 48 29 77t77 29t77 -29t29 -77t-29 -77t-77 -29t-77 29t-29 77zM120 0v1434h98v-1434h-98z" />
<glyph unicode="&#x131;" horiz-adv-x="306" d="M101 4v1022h100v-1022h-100z" />
<glyph unicode="&#x132;" horiz-adv-x="1430" d="M120 0v1434h98v-1434h-98zM459 428h97q0 -72 23.5 -135t66.5 -109t104 -72.5t135 -26.5t134.5 26.5t103.5 72.5t66 108.5t23 134.5v1008h98v-1008q0 -94 -30.5 -174.5t-86.5 -139.5t-134 -92.5t-174 -33.5t-174.5 34t-134.5 93t-86.5 139.5t-30.5 174.5z" />
<glyph unicode="&#x133;" horiz-adv-x="785" d="M110 1280q0 18 6.5 33.5t18 27t26.5 18t32 6.5q37 0 60.5 -24.5t23.5 -60.5q0 -35 -24 -59t-60 -24q-35 0 -59 24t-24 59zM141 1025h97l2 -1025h-97zM294 -289q66 0 113 7.5t78 29.5t45.5 63t14.5 108l-2 1106h97l2 -1106q0 -306 -306 -306h-42v98zM511 1274 q0 32 22.5 55t54.5 23q34 0 55.5 -22.5t21.5 -55.5t-22 -55t-55 -22q-32 0 -54.5 22.5t-22.5 54.5z" />
<glyph unicode="&#x134;" horiz-adv-x="1092" d="M121 428h97q0 -72 23.5 -135t66.5 -109t104 -72.5t135 -26.5t134.5 26.5t103.5 72.5t66 108.5t23 134.5v1008h98v-1008q0 -94 -30.5 -174.5t-86.5 -139.5t-134 -92.5t-174 -33.5t-174.5 34t-134.5 93t-86.5 139.5t-30.5 174.5zM273 1657l235 310h77l235 -310h-83 l-189 204l-182 -204h-93z" />
<glyph unicode="&#x135;" horiz-adv-x="343" d="M-128 -289q41 0 86 3t82 20q27 13 43.5 33.5t25.5 45t11.5 52t2.5 54.5l-2 1106h97l2 -1106q0 -157 -78 -231.5t-228 -74.5h-42v98zM-119 1121l235 310h77l235 -310h-83l-189 204l-182 -204h-93z" />
<glyph unicode="&#x136;" horiz-adv-x="1136" d="M120 1434h98l1 -829l665 829h125l-483 -603l567 -831h-118l-508 744l-248 -296l1 -448h-98zM497 -457l83 276h152l-163 -276h-72z" />
<glyph unicode="&#x137;" horiz-adv-x="994" d="M121 1434h97l1 -985l524 575h132l-408 -448l446 -576h-123l-385 495l-185 -190v-305h-97zM364 -457l83 276h152l-163 -276h-72z" />
<glyph unicode="&#x138;" horiz-adv-x="994" d="M121 1434h97l1 -985l524 575h132l-408 -448l446 -576h-123l-385 495l-185 -190v-305h-97z" />
<glyph unicode="&#x139;" horiz-adv-x="1035" d="M120 -1v1435h98v-1337h764v-98h-862zM362 1637l157 301h154l-228 -301h-83z" />
<glyph unicode="&#x13a;" horiz-adv-x="341" d="M97 1517l157 301h154l-228 -301h-83zM121 1434h97l2 -1434h-97z" />
<glyph unicode="&#x13b;" horiz-adv-x="1035" d="M120 -1v1435h98v-1337h764v-98h-862zM459 -457l83 276h152l-163 -276h-72z" />
<glyph unicode="&#x13c;" horiz-adv-x="341" d="M50 -457l83 276h152l-163 -276h-72zM121 1434h97l2 -1434h-97z" />
<glyph unicode="&#x13d;" horiz-adv-x="1035" d="M120 -1v1435h98v-1337h764v-98h-862z" />
<glyph unicode="&#x13e;" horiz-adv-x="1197" d="M121 1434h97l2 -1434h-97z" />
<glyph unicode="&#x13f;" horiz-adv-x="1035" d="M120 -1v1435h98v-1337h764v-98h-862zM404 1129q0 51 31.5 82.5t82.5 31.5t82.5 -31.5t31.5 -82.5t-31.5 -82.5t-82.5 -31.5t-82.5 31.5t-31.5 82.5z" />
<glyph unicode="&#x140;" horiz-adv-x="890" d="M121 1434h97l2 -1434h-97zM579 719q0 51 31.5 82.5t82.5 31.5t82.5 -31.5t31.5 -82.5t-31.5 -82.5t-82.5 -31.5t-82.5 31.5t-31.5 82.5z" />
<glyph unicode="&#x141;" horiz-adv-x="1035" d="M120 -1v1435h98v-1337h764v-98h-862zM168 503v100h699v-100h-699z" />
<glyph unicode="&#x142;" horiz-adv-x="341" d="M-179 503v100h699v-100h-699zM121 1434h97l2 -1434h-97z" />
<glyph unicode="&#x143;" horiz-adv-x="1348" d="M120 0v1434h98l911 -1268v1268h98v-1434h-97l-912 1266v-1266h-98zM519 1637l157 301h154l-228 -301h-83z" />
<glyph unicode="&#x144;" horiz-adv-x="1036" d="M121 1017h97v-152q28 42 66 75t83 55.5t95 34.5t102 12q78 0 142.5 -24.5t111 -69t72 -107.5t25.5 -141l-2 -699h-98l2 699q0 60 -19.5 106t-54 77t-83 46.5t-107.5 15.5q-43 0 -96 -14t-102 -40.5t-86.5 -63.5t-49.5 -84l1 -742h-97zM446 1108l157 301h154l-228 -301 h-83z" />
<glyph unicode="&#x145;" horiz-adv-x="1348" d="M120 0v1434h98l911 -1268v1268h98v-1434h-97l-912 1266v-1266h-98zM566 -457l83 276h152l-163 -276h-72z" />
<glyph unicode="&#x146;" horiz-adv-x="1036" d="M121 1017h97v-152q28 42 66 75t83 55.5t95 34.5t102 12q78 0 142.5 -24.5t111 -69t72 -107.5t25.5 -141l-2 -699h-98l2 699q0 60 -19.5 106t-54 77t-83 46.5t-107.5 15.5q-43 0 -96 -14t-102 -40.5t-86.5 -63.5t-49.5 -84l1 -742h-97zM401 -457l83 276h152l-163 -276h-72 z" />
<glyph unicode="&#x147;" horiz-adv-x="1348" d="M120 0v1434h98l911 -1268v1268h98v-1434h-97l-912 1266v-1266h-98zM395 1970h95l186 -205l193 205h84l-240 -311l-76 1z" />
<glyph unicode="&#x148;" horiz-adv-x="1036" d="M121 1017h97v-152q28 42 66 75t83 55.5t95 34.5t102 12q78 0 142.5 -24.5t111 -69t72 -107.5t25.5 -141l-2 -699h-98l2 699q0 60 -19.5 106t-54 77t-83 46.5t-107.5 15.5q-43 0 -96 -14t-102 -40.5t-86.5 -63.5t-49.5 -84l1 -742h-97zM258 1441h95l186 -205l193 205h84 l-240 -311l-76 1z" />
<glyph unicode="&#x149;" horiz-adv-x="1036" d="M121 1017h97v-152q28 42 66 75t83 55.5t95 34.5t102 12q78 0 142.5 -24.5t111 -69t72 -107.5t25.5 -141l-2 -699h-98l2 699q0 60 -19.5 106t-54 77t-83 46.5t-107.5 15.5q-43 0 -96 -14t-102 -40.5t-86.5 -63.5t-49.5 -84l1 -742h-97zM415 1064l43 370h153l-135 -369z " />
<glyph unicode="&#x14c;" horiz-adv-x="1522" d="M121 718q0 153 42.5 288.5t125.5 237.5t206.5 161.5t286.5 59.5q108 0 199 -27t164.5 -76.5t129 -118t92.5 -151.5t56 -178t19 -196t-19 -195.5t-56 -177.5t-92.5 -152t-129 -118t-164.5 -76.5t-199 -27.5t-199.5 27t-165 76.5t-129 118t-92.5 151.5t-56 178t-19 196z M221 718q0 -130 34.5 -247.5t104.5 -206t175 -140.5t247 -52q141 0 245.5 52.5t174.5 141t104.5 205.5t34.5 247q0 131 -34.5 248t-104 205.5t-174.5 140.5t-246 52q-142 0 -247 -51.5t-175 -140t-104.5 -206t-34.5 -248.5zM431 1676v100h660v-100h-660z" />
<glyph unicode="&#x14d;" horiz-adv-x="1177" d="M121 516q0 119 33.5 216.5t95 167t148 107.5t191.5 38t191.5 -38t148 -107.5t95 -167t33.5 -216.5t-33.5 -216.5t-95 -167.5t-148 -108t-191.5 -38t-191.5 38t-148 107.5t-95 167.5t-33.5 217zM218 516q0 -99 26 -178.5t74.5 -136t117 -87t153.5 -30.5q84 0 152.5 30.5 t117 87t74.5 136t26 178.5t-26 178.5t-74 135.5t-116.5 86.5t-153.5 30.5t-153.5 -30.5t-117 -86.5t-74.5 -135.5t-26 -178.5zM261 1128v100h660v-100h-660z" />
<glyph unicode="&#x14e;" horiz-adv-x="1522" d="M121 718q0 153 42.5 288.5t125.5 237.5t206.5 161.5t286.5 59.5q108 0 199 -27t164.5 -76.5t129 -118t92.5 -151.5t56 -178t19 -196t-19 -195.5t-56 -177.5t-92.5 -152t-129 -118t-164.5 -76.5t-199 -27.5t-199.5 27t-165 76.5t-129 118t-92.5 151.5t-56 178t-19 196z M221 718q0 -130 34.5 -247.5t104.5 -206t175 -140.5t247 -52q141 0 245.5 52.5t174.5 141t104.5 205.5t34.5 247q0 131 -34.5 248t-104 205.5t-174.5 140.5t-246 52q-142 0 -247 -51.5t-175 -140t-104.5 -206t-34.5 -248.5zM459 1940h100q0 -45 16 -78.5t44 -55t64.5 -32.5 t78.5 -11t78.5 11t64 33t43.5 55t16 78h100q0 -66 -23.5 -117.5t-64.5 -87t-96 -54t-118 -18.5t-118 18.5t-96 54t-65 87t-24 117.5z" />
<glyph unicode="&#x14f;" horiz-adv-x="1177" d="M121 516q0 119 33.5 216.5t95 167t148 107.5t191.5 38t191.5 -38t148 -107.5t95 -167t33.5 -216.5t-33.5 -216.5t-95 -167.5t-148 -108t-191.5 -38t-191.5 38t-148 107.5t-95 167.5t-33.5 217zM218 516q0 -99 26 -178.5t74.5 -136t117 -87t153.5 -30.5q84 0 152.5 30.5 t117 87t74.5 136t26 178.5t-26 178.5t-74 135.5t-116.5 86.5t-153.5 30.5t-153.5 -30.5t-117 -86.5t-74.5 -135.5t-26 -178.5zM286 1530h100q0 -45 16 -78.5t44 -55t64.5 -32.5t78.5 -11t78.5 11t64 33t43.5 55t16 78h100q0 -66 -23.5 -117.5t-64.5 -87t-96 -54t-118 -18.5 t-118 18.5t-96 54t-65 87t-24 117.5z" />
<glyph unicode="&#x150;" horiz-adv-x="1522" d="M121 718q0 153 42.5 288.5t125.5 237.5t206.5 161.5t286.5 59.5q108 0 199 -27t164.5 -76.5t129 -118t92.5 -151.5t56 -178t19 -196t-19 -195.5t-56 -177.5t-92.5 -152t-129 -118t-164.5 -76.5t-199 -27.5t-199.5 27t-165 76.5t-129 118t-92.5 151.5t-56 178t-19 196z M221 718q0 -130 34.5 -247.5t104.5 -206t175 -140.5t247 -52q141 0 245.5 52.5t174.5 141t104.5 205.5t34.5 247q0 131 -34.5 248t-104 205.5t-174.5 140.5t-246 52q-142 0 -247 -51.5t-175 -140t-104.5 -206t-34.5 -248.5zM416 1663l157 326h208l-257 -326h-108zM742 1663 l157 326h208l-257 -326h-108z" />
<glyph unicode="&#x151;" horiz-adv-x="1177" d="M121 516q0 119 33.5 216.5t95 167t148 107.5t191.5 38t191.5 -38t148 -107.5t95 -167t33.5 -216.5t-33.5 -216.5t-95 -167.5t-148 -108t-191.5 -38t-191.5 38t-148 107.5t-95 167.5t-33.5 217zM218 516q0 -99 26 -178.5t74.5 -136t117 -87t153.5 -30.5q84 0 152.5 30.5 t117 87t74.5 136t26 178.5t-26 178.5t-74 135.5t-116.5 86.5t-153.5 30.5t-153.5 -30.5t-117 -86.5t-74.5 -135.5t-26 -178.5zM243 1253l157 326h208l-257 -326h-108zM569 1253l157 326h208l-257 -326h-108z" />
<glyph unicode="&#x152;" horiz-adv-x="1976" d="M118 711q0 148 41 279.5t121.5 230.5t200.5 156.5t278 57.5q48 0 95 -6t93 -20v26l922 -1v-98l-824 1v-545h732v-98h-732v-597h824v-98h-922v12q-90 -25 -188 -25q-158 0 -278 58t-200.5 157t-121.5 231t-41 279zM216 711q0 -127 33.5 -240.5t101 -199.5t169.5 -136.5 t239 -50.5q48 0 95.5 7t92.5 23v1193q-45 16 -92.5 23t-95.5 7q-137 0 -239 -50t-169.5 -135.5t-101 -199.5t-33.5 -241z" />
<glyph unicode="&#x153;" horiz-adv-x="2013" d="M118 516q0 108 30 204t89 168t146.5 114.5t202.5 42.5q83 0 151 -22t121.5 -62t93 -95t63.5 -121q24 66 63 121t93 95t122.5 62t151.5 22q116 0 203.5 -43t146.5 -115.5t88.5 -168.5t29.5 -203l-839 3q0 -88 22.5 -166.5t68 -138t115.5 -94.5t165 -35q121 0 209 62 t130 176l92 -33q-27 -70 -68.5 -126.5t-96.5 -95.5t-122 -60t-144 -21q-83 0 -151.5 22.5t-122.5 62t-93 95t-63 121.5q-24 -66 -63.5 -121.5t-93 -95t-121.5 -62t-151 -22.5q-115 0 -202.5 42.5t-146.5 115t-89 168.5t-30 204zM216 516q0 -87 22.5 -165.5t68 -137.5 t115.5 -94t164 -35q95 0 164.5 35t115.5 94t68.5 137.5t22.5 165.5t-22.5 165t-68.5 137.5t-115.5 94t-164.5 34.5q-94 0 -164 -34.5t-115.5 -94t-68 -137.5t-22.5 -165zM1082 616l726 -3q-10 74 -39.5 135t-76 105.5t-109 69t-138.5 24.5q-81 0 -143.5 -25.5t-107.5 -70 t-73 -105t-39 -130.5z" />
<glyph unicode="&#x154;" horiz-adv-x="1238" d="M121 0v1442q97 -1 192 -0.5t192 0.5q48 0 96 -0.5t96 -4.5q92 -7 169 -36t132.5 -79.5t87 -124t31.5 -170.5q0 -57 -13.5 -110.5t-40.5 -100t-66.5 -84.5t-91.5 -64q103 -53 157.5 -147.5t54.5 -209.5v-311h-98v276q0 77 -21 140t-61.5 108.5t-101 70.5t-139.5 25 q-120 0 -238.5 -0.5t-238.5 -0.5v-619h-98zM219 716q120 0 239 0.5t239 0.5q69 0 127.5 22t102 62.5t68 97.5t24.5 127q0 76 -24 132t-67 94.5t-102 59.5t-130 28q-42 4 -83 4.5t-83 0.5q-78 0 -155.5 -1t-155.5 0v-628zM464 1637l157 301h154l-228 -301h-83z" />
<glyph unicode="&#x155;" horiz-adv-x="610" d="M121 1025h97v-167q48 83 131 125t197 42v-98q-59 0 -113.5 -10.5t-98.5 -36t-74 -68t-41 -107.5l1 -705h-97zM238 1108l157 301h154l-228 -301h-83z" />
<glyph unicode="&#x156;" horiz-adv-x="1238" d="M121 0v1442q97 -1 192 -0.5t192 0.5q48 0 96 -0.5t96 -4.5q92 -7 169 -36t132.5 -79.5t87 -124t31.5 -170.5q0 -57 -13.5 -110.5t-40.5 -100t-66.5 -84.5t-91.5 -64q103 -53 157.5 -147.5t54.5 -209.5v-311h-98v276q0 77 -21 140t-61.5 108.5t-101 70.5t-139.5 25 q-120 0 -238.5 -0.5t-238.5 -0.5v-619h-98zM219 716q120 0 239 0.5t239 0.5q69 0 127.5 22t102 62.5t68 97.5t24.5 127q0 76 -24 132t-67 94.5t-102 59.5t-130 28q-42 4 -83 4.5t-83 0.5q-78 0 -155.5 -1t-155.5 0v-628zM473 -457l83 276h152l-163 -276h-72z" />
<glyph unicode="&#x157;" horiz-adv-x="610" d="M81 -457l83 276h152l-163 -276h-72zM121 1025h97v-167q48 83 131 125t197 42v-98q-59 0 -113.5 -10.5t-98.5 -36t-74 -68t-41 -107.5l1 -705h-97z" />
<glyph unicode="&#x158;" horiz-adv-x="1238" d="M121 0v1442q97 -1 192 -0.5t192 0.5q48 0 96 -0.5t96 -4.5q92 -7 169 -36t132.5 -79.5t87 -124t31.5 -170.5q0 -57 -13.5 -110.5t-40.5 -100t-66.5 -84.5t-91.5 -64q103 -53 157.5 -147.5t54.5 -209.5v-311h-98v276q0 77 -21 140t-61.5 108.5t-101 70.5t-139.5 25 q-120 0 -238.5 -0.5t-238.5 -0.5v-619h-98zM219 716q120 0 239 0.5t239 0.5q69 0 127.5 22t102 62.5t68 97.5t24.5 127q0 76 -24 132t-67 94.5t-102 59.5t-130 28q-42 4 -83 4.5t-83 0.5q-78 0 -155.5 -1t-155.5 0v-628zM340 1970h95l186 -205l193 205h84l-240 -311l-76 1z " />
<glyph unicode="&#x159;" horiz-adv-x="610" d="M50 1441h95l186 -205l193 205h84l-240 -311l-76 1zM121 1025h97v-167q48 83 131 125t197 42v-98q-59 0 -113.5 -10.5t-98.5 -36t-74 -68t-41 -107.5l1 -705h-97z" />
<glyph unicode="&#x15a;" horiz-adv-x="1257" d="M121 431l98 -2q0 -87 13.5 -152t48 -108.5t94.5 -65t153 -21.5q58 0 115.5 -0.5t115.5 -0.5q66 0 118 26.5t88 70.5t55 101.5t19 119.5q0 87 -26 142.5t-70.5 89t-103 50t-122.5 25t-130 14t-125 17.5q-66 14 -118.5 42.5t-90 71.5t-57.5 99t-20 124q0 81 26 146.5 t73 112.5t112.5 75t144.5 35q42 3 85 3q205 0 314.5 -103.5t115.5 -309.5l-97 -3q-5 166 -87 242.5t-246 76.5q-67 0 -129.5 -13.5t-110.5 -45t-76.5 -83.5t-28.5 -130q0 -74 27 -121.5t71.5 -76.5t102.5 -43.5t119.5 -22.5t122 -12.5t110.5 -14.5q76 -15 134 -48.5 t97.5 -83.5t60 -114.5t20.5 -141.5q0 -83 -26 -158.5t-75 -132.5t-119 -90.5t-158 -33.5q-58 0 -115.5 0.5t-115.5 0.5q-115 0 -193 29t-125.5 86t-68 140.5t-20.5 191.5zM473 1637l157 301h154l-228 -301h-83z" />
<glyph unicode="&#x15b;" horiz-adv-x="1030" d="M110 302l98 -2q0 -62 11 -103.5t36.5 -66t67.5 -34.5t103 -10q45 0 90.5 -0.5t90.5 -0.5q42 0 77.5 14.5t62 40.5t41 61.5t14.5 77.5q0 56 -21.5 91t-57 55.5t-81 30t-93.5 14t-93.5 8t-82.5 11.5q-53 12 -97.5 33.5t-77 54t-50.5 77t-18 102.5q0 78 30 133t80 89.5 t114.5 50.5t133.5 16q80 0 145.5 -18t113 -56.5t74.5 -99t30 -145.5l-98 -3q-1 64 -21 107t-54.5 69t-83 37t-106.5 11q-47 0 -93.5 -9t-83.5 -30.5t-60 -58.5t-23 -93q0 -54 22 -88t58 -54t81.5 -29t93.5 -13.5t93.5 -8t80.5 -11.5q56 -13 100.5 -34.5t76 -54.5t48.5 -78.5 t17 -105.5q0 -64 -22 -117.5t-61 -92.5t-92.5 -60.5t-117.5 -21.5q-26 0 -53 -0.5t-53 -0.5q-94 0 -166.5 10.5t-122 43.5t-75.5 95.5t-26 166.5zM432 1108l157 301h154l-228 -301h-83z" />
<glyph unicode="&#x15c;" horiz-adv-x="1257" d="M121 431l98 -2q0 -87 13.5 -152t48 -108.5t94.5 -65t153 -21.5q58 0 115.5 -0.5t115.5 -0.5q66 0 118 26.5t88 70.5t55 101.5t19 119.5q0 87 -26 142.5t-70.5 89t-103 50t-122.5 25t-130 14t-125 17.5q-66 14 -118.5 42.5t-90 71.5t-57.5 99t-20 124q0 81 26 146.5 t73 112.5t112.5 75t144.5 35q42 3 85 3q205 0 314.5 -103.5t115.5 -309.5l-97 -3q-5 166 -87 242.5t-246 76.5q-67 0 -129.5 -13.5t-110.5 -45t-76.5 -83.5t-28.5 -130q0 -74 27 -121.5t71.5 -76.5t102.5 -43.5t119.5 -22.5t122 -12.5t110.5 -14.5q76 -15 134 -48.5 t97.5 -83.5t60 -114.5t20.5 -141.5q0 -83 -26 -158.5t-75 -132.5t-119 -90.5t-158 -33.5q-58 0 -115.5 0.5t-115.5 0.5q-115 0 -193 29t-125.5 86t-68 140.5t-20.5 191.5zM355 1657l235 310h77l235 -310h-83l-189 204l-182 -204h-93z" />
<glyph unicode="&#x15d;" horiz-adv-x="1030" d="M110 302l98 -2q0 -62 11 -103.5t36.5 -66t67.5 -34.5t103 -10q45 0 90.5 -0.5t90.5 -0.5q42 0 77.5 14.5t62 40.5t41 61.5t14.5 77.5q0 56 -21.5 91t-57 55.5t-81 30t-93.5 14t-93.5 8t-82.5 11.5q-53 12 -97.5 33.5t-77 54t-50.5 77t-18 102.5q0 78 30 133t80 89.5 t114.5 50.5t133.5 16q80 0 145.5 -18t113 -56.5t74.5 -99t30 -145.5l-98 -3q-1 64 -21 107t-54.5 69t-83 37t-106.5 11q-47 0 -93.5 -9t-83.5 -30.5t-60 -58.5t-23 -93q0 -54 22 -88t58 -54t81.5 -29t93.5 -13.5t93.5 -8t80.5 -11.5q56 -13 100.5 -34.5t76 -54.5t48.5 -78.5 t17 -105.5q0 -64 -22 -117.5t-61 -92.5t-92.5 -60.5t-117.5 -21.5q-26 0 -53 -0.5t-53 -0.5q-94 0 -166.5 10.5t-122 43.5t-75.5 95.5t-26 166.5zM228 1121l235 310h77l235 -310h-83l-189 204l-182 -204h-93z" />
<glyph unicode="&#x15e;" horiz-adv-x="1257" d="M121 431l98 -2q0 -87 13.5 -152t48 -108.5t94.5 -65t153 -21.5q58 0 115.5 -0.5t115.5 -0.5q66 0 118 26.5t88 70.5t55 101.5t19 119.5q0 87 -26 142.5t-70.5 89t-103 50t-122.5 25t-130 14t-125 17.5q-66 14 -118.5 42.5t-90 71.5t-57.5 99t-20 124q0 81 26 146.5 t73 112.5t112.5 75t144.5 35q42 3 85 3q205 0 314.5 -103.5t115.5 -309.5l-97 -3q-5 166 -87 242.5t-246 76.5q-67 0 -129.5 -13.5t-110.5 -45t-76.5 -83.5t-28.5 -130q0 -74 27 -121.5t71.5 -76.5t102.5 -43.5t119.5 -22.5t122 -12.5t110.5 -14.5q76 -15 134 -48.5 t97.5 -83.5t60 -114.5t20.5 -141.5q0 -83 -26 -158.5t-75 -132.5t-119 -90.5t-158 -33.5q-58 0 -115.5 0.5t-115.5 0.5q-115 0 -193 29t-125.5 86t-68 140.5t-20.5 191.5zM398 -454l60 80q28 -22 61.5 -36t69.5 -14q17 0 34 5t30 14.5t21 24t8 33.5q0 33 -16.5 54t-41.5 33 t-54.5 16t-55.5 4q-15 0 -30 -1.5t-30 -3.5v57q1 2 9.5 14t20 28.5t25 36t26 36.5t21 29.5t10.5 15.5h119l-103 -137q41 -6 76 -17t61 -32t40.5 -52.5t14.5 -77.5q0 -41 -16 -73.5t-42.5 -54.5t-61.5 -33.5t-74 -11.5q-49 0 -95.5 17.5t-86.5 45.5z" />
<glyph unicode="&#x15f;" horiz-adv-x="1030" d="M110 302l98 -2q0 -62 11 -103.5t36.5 -66t67.5 -34.5t103 -10q45 0 90.5 -0.5t90.5 -0.5q42 0 77.5 14.5t62 40.5t41 61.5t14.5 77.5q0 56 -21.5 91t-57 55.5t-81 30t-93.5 14t-93.5 8t-82.5 11.5q-53 12 -97.5 33.5t-77 54t-50.5 77t-18 102.5q0 78 30 133t80 89.5 t114.5 50.5t133.5 16q80 0 145.5 -18t113 -56.5t74.5 -99t30 -145.5l-98 -3q-1 64 -21 107t-54.5 69t-83 37t-106.5 11q-47 0 -93.5 -9t-83.5 -30.5t-60 -58.5t-23 -93q0 -54 22 -88t58 -54t81.5 -29t93.5 -13.5t93.5 -8t80.5 -11.5q56 -13 100.5 -34.5t76 -54.5t48.5 -78.5 t17 -105.5q0 -64 -22 -117.5t-61 -92.5t-92.5 -60.5t-117.5 -21.5q-26 0 -53 -0.5t-53 -0.5q-94 0 -166.5 10.5t-122 43.5t-75.5 95.5t-26 166.5zM296 -454l60 80q28 -22 61.5 -36t69.5 -14q17 0 34 5t30 14.5t21 24t8 33.5q0 33 -16.5 54t-41.5 33t-54.5 16t-55.5 4 q-15 0 -30 -1.5t-30 -3.5v57q1 2 9.5 14t20 28.5t25 36t26 36.5t21 29.5t10.5 15.5h119l-103 -137q41 -6 76 -17t61 -32t40.5 -52.5t14.5 -77.5q0 -41 -16 -73.5t-42.5 -54.5t-61.5 -33.5t-74 -11.5q-49 0 -95.5 17.5t-86.5 45.5z" />
<glyph unicode="&#x160;" horiz-adv-x="1257" d="M121 431l98 -2q0 -87 13.5 -152t48 -108.5t94.5 -65t153 -21.5q58 0 115.5 -0.5t115.5 -0.5q66 0 118 26.5t88 70.5t55 101.5t19 119.5q0 87 -26 142.5t-70.5 89t-103 50t-122.5 25t-130 14t-125 17.5q-66 14 -118.5 42.5t-90 71.5t-57.5 99t-20 124q0 81 26 146.5 t73 112.5t112.5 75t144.5 35q42 3 85 3q205 0 314.5 -103.5t115.5 -309.5l-97 -3q-5 166 -87 242.5t-246 76.5q-67 0 -129.5 -13.5t-110.5 -45t-76.5 -83.5t-28.5 -130q0 -74 27 -121.5t71.5 -76.5t102.5 -43.5t119.5 -22.5t122 -12.5t110.5 -14.5q76 -15 134 -48.5 t97.5 -83.5t60 -114.5t20.5 -141.5q0 -83 -26 -158.5t-75 -132.5t-119 -90.5t-158 -33.5q-58 0 -115.5 0.5t-115.5 0.5q-115 0 -193 29t-125.5 86t-68 140.5t-20.5 191.5zM350 1970h95l186 -205l193 205h84l-240 -311l-76 1z" />
<glyph unicode="&#x161;" horiz-adv-x="1030" d="M110 302l98 -2q0 -62 11 -103.5t36.5 -66t67.5 -34.5t103 -10q45 0 90.5 -0.5t90.5 -0.5q42 0 77.5 14.5t62 40.5t41 61.5t14.5 77.5q0 56 -21.5 91t-57 55.5t-81 30t-93.5 14t-93.5 8t-82.5 11.5q-53 12 -97.5 33.5t-77 54t-50.5 77t-18 102.5q0 78 30 133t80 89.5 t114.5 50.5t133.5 16q80 0 145.5 -18t113 -56.5t74.5 -99t30 -145.5l-98 -3q-1 64 -21 107t-54.5 69t-83 37t-106.5 11q-47 0 -93.5 -9t-83.5 -30.5t-60 -58.5t-23 -93q0 -54 22 -88t58 -54t81.5 -29t93.5 -13.5t93.5 -8t80.5 -11.5q56 -13 100.5 -34.5t76 -54.5t48.5 -78.5 t17 -105.5q0 -64 -22 -117.5t-61 -92.5t-92.5 -60.5t-117.5 -21.5q-26 0 -53 -0.5t-53 -0.5q-94 0 -166.5 10.5t-122 43.5t-75.5 95.5t-26 166.5zM244 1441h95l186 -205l193 205h84l-240 -311l-76 1z" />
<glyph unicode="&#x162;" horiz-adv-x="1220" d="M50 1337v98h1119v-98h-514v-1337h-97v1337h-508zM494 -457l83 276h152l-163 -276h-72z" />
<glyph unicode="&#x163;" horiz-adv-x="573" d="M82 928v98h79l1 281h97l-1 -281h223v-98h-223l-1 -657q0 -57 13 -91.5t36.5 -52.5t57 -23.5t74.5 -6.5h70v-98h-77q-271 0 -271 272v60l1 597h-79zM204 -457l83 276h152l-163 -276h-72z" />
<glyph unicode="&#x164;" horiz-adv-x="1220" d="M50 1337v98h1119v-98h-514v-1337h-97v1337h-508zM331 1970h95l186 -205l193 205h84l-240 -311l-76 1z" />
<glyph unicode="&#x165;" horiz-adv-x="980" d="M33 928v98h79l1 281h97l-1 -281h223v-98h-223q0 -152 -0.5 -303t-0.5 -303v-51q0 -52 10.5 -84.5t30.5 -51.5q17 -16 39 -24t48.5 -11t57.5 -3h65v-98h-77q-271 0 -271 272v51q0 152 0.5 303t0.5 303h-79zM622 1024l58 410h179l-150 -409z" />
<glyph unicode="&#x166;" horiz-adv-x="1220" d="M50 1337v98h1119v-98h-514v-1337h-97v1337h-508zM274 1538v100h660v-100h-660z" />
<glyph unicode="&#x167;" horiz-adv-x="573" d="M-44 1576v100h660v-100h-660zM82 928v98h79l1 281h97l-1 -281h223v-98h-223l-1 -657q0 -57 13 -91.5t36.5 -52.5t57 -23.5t74.5 -6.5h70v-98h-77q-271 0 -271 272v60l1 597h-79z" />
<glyph unicode="&#x168;" horiz-adv-x="1245" d="M120 501v933h98v-933q0 -90 29 -167t82 -133.5t128 -88.5t166 -32t165.5 32t127.5 88.5t82 133.5t29 167v933h98v-933q0 -111 -36 -206t-102 -164.5t-158.5 -109t-205.5 -39.5t-205.5 39.5t-158.5 109t-102.5 164.5t-36.5 206zM282 1720q11 36 31 67t47 54.5t61 36.5 t73 13q50 0 85 -17.5t65 -38t60 -38t68 -17.5q49 0 78 30.5t43 74.5l71 -22q-11 -36 -28.5 -68.5t-42.5 -57.5t-57.5 -39.5t-73.5 -14.5q-49 0 -84.5 17.5t-66 38.5t-59.5 38.5t-65 17.5q-45 0 -83 -26t-51 -70z" />
<glyph unicode="&#x169;" horiz-adv-x="1036" d="M121 329q0 177 0.5 345t1.5 345h98l-2 -690q0 -60 20 -105.5t55 -76.5t83.5 -47t105.5 -16q48 0 99.5 14t97.5 40t82 63.5t53 85.5l2 -1l-1 733h97l2 -1007h-97v152q-28 -43 -67 -76t-84 -55.5t-94.5 -34t-100.5 -11.5q-77 0 -141.5 24t-111 68.5t-72.5 108t-26 141.5z M176 1191q11 37 30.5 68.5t46.5 54t61 35.5t74 13q53 0 88 -17.5t63.5 -38t57 -38t69.5 -17.5q49 0 78 30.5t43 74.5l71 -22q-11 -36 -28.5 -68.5t-42.5 -57.5t-57.5 -39.5t-73.5 -14.5q-35 0 -62 8.5t-49.5 20.5t-41 27t-37.5 27t-39.5 20.5t-45.5 8.5q-45 0 -83 -26 t-51 -70z" />
<glyph unicode="&#x16a;" horiz-adv-x="1245" d="M120 501v933h98v-933q0 -90 29 -167t82 -133.5t128 -88.5t166 -32t165.5 32t127.5 88.5t82 133.5t29 167v933h98v-933q0 -111 -36 -206t-102 -164.5t-158.5 -109t-205.5 -39.5t-205.5 39.5t-158.5 109t-102.5 164.5t-36.5 206zM293 1676v100h660v-100h-660z" />
<glyph unicode="&#x16b;" horiz-adv-x="1036" d="M121 329q0 177 0.5 345t1.5 345h98l-2 -690q0 -60 20 -105.5t55 -76.5t83.5 -47t105.5 -16q48 0 99.5 14t97.5 40t82 63.5t53 85.5l2 -1l-1 733h97l2 -1007h-97v152q-28 -43 -67 -76t-84 -55.5t-94.5 -34t-100.5 -11.5q-77 0 -141.5 24t-111 68.5t-72.5 108t-26 141.5z M184 1128v100h660v-100h-660z" />
<glyph unicode="&#x16c;" horiz-adv-x="1245" d="M120 501v933h98v-933q0 -90 29 -167t82 -133.5t128 -88.5t166 -32t165.5 32t127.5 88.5t82 133.5t29 167v933h98v-933q0 -111 -36 -206t-102 -164.5t-158.5 -109t-205.5 -39.5t-205.5 39.5t-158.5 109t-102.5 164.5t-36.5 206zM320 1940h100q0 -45 16 -78.5t44 -55 t64.5 -32.5t78.5 -11t78.5 11t64 33t43.5 55t16 78h100q0 -66 -23.5 -117.5t-64.5 -87t-96 -54t-118 -18.5t-118 18.5t-96 54t-65 87t-24 117.5z" />
<glyph unicode="&#x16d;" horiz-adv-x="1036" d="M121 329q0 177 0.5 345t1.5 345h98l-2 -690q0 -60 20 -105.5t55 -76.5t83.5 -47t105.5 -16q48 0 99.5 14t97.5 40t82 63.5t53 85.5l2 -1l-1 733h97l2 -1007h-97v152q-28 -43 -67 -76t-84 -55.5t-94.5 -34t-100.5 -11.5q-77 0 -141.5 24t-111 68.5t-72.5 108t-26 141.5z M216 1530h100q0 -45 16 -78.5t44 -55t64.5 -32.5t78.5 -11t78.5 11t64 33t43.5 55t16 78h100q0 -66 -23.5 -117.5t-64.5 -87t-96 -54t-118 -18.5t-118 18.5t-96 54t-65 87t-24 117.5z" />
<glyph unicode="&#x16e;" horiz-adv-x="1245" d="M120 501v933h98v-933q0 -90 29 -167t82 -133.5t128 -88.5t166 -32t165.5 32t127.5 88.5t82 133.5t29 167v933h98v-933q0 -111 -36 -206t-102 -164.5t-158.5 -109t-205.5 -39.5t-205.5 39.5t-158.5 109t-102.5 164.5t-36.5 206zM445 1850q0 39 13 72t37 56t56.5 36 t71.5 13t71.5 -13t56.5 -36t37 -56t13 -72t-13 -72t-36.5 -57t-56 -37t-72.5 -13t-72.5 13t-56 37t-36.5 57t-13 72zM525 1850q0 -46 25.5 -72.5t72.5 -26.5t72.5 26.5t25.5 72.5t-26.5 71.5t-71.5 25.5t-71.5 -25.5t-26.5 -71.5z" />
<glyph unicode="&#x16f;" horiz-adv-x="1036" d="M121 329q0 177 0.5 345t1.5 345h98l-2 -690q0 -60 20 -105.5t55 -76.5t83.5 -47t105.5 -16q48 0 99.5 14t97.5 40t82 63.5t53 85.5l2 -1l-1 733h97l2 -1007h-97v152q-28 -43 -67 -76t-84 -55.5t-94.5 -34t-100.5 -11.5q-77 0 -141.5 24t-111 68.5t-72.5 108t-26 141.5z M356 1321q0 39 13 72t37 56t56.5 36t71.5 13t71.5 -13t56.5 -36t37 -56t13 -72t-13 -72t-36.5 -57t-56 -37t-72.5 -13t-72.5 13t-56 37t-36.5 57t-13 72zM436 1321q0 -46 25.5 -72.5t72.5 -26.5t72.5 26.5t25.5 72.5t-26.5 71.5t-71.5 25.5t-71.5 -25.5t-26.5 -71.5z" />
<glyph unicode="&#x170;" horiz-adv-x="1245" d="M120 501v933h98v-933q0 -90 29 -167t82 -133.5t128 -88.5t166 -32t165.5 32t127.5 88.5t82 133.5t29 167v933h98v-933q0 -111 -36 -206t-102 -164.5t-158.5 -109t-205.5 -39.5t-205.5 39.5t-158.5 109t-102.5 164.5t-36.5 206zM277 1663l157 326h208l-257 -326h-108z M603 1663l157 326h208l-257 -326h-108z" />
<glyph unicode="&#x171;" horiz-adv-x="1036" d="M121 329q0 177 0.5 345t1.5 345h98l-2 -690q0 -60 20 -105.5t55 -76.5t83.5 -47t105.5 -16q48 0 99.5 14t97.5 40t82 63.5t53 85.5l2 -1l-1 733h97l2 -1007h-97v152q-28 -43 -67 -76t-84 -55.5t-94.5 -34t-100.5 -11.5q-77 0 -141.5 24t-111 68.5t-72.5 108t-26 141.5z M173 1253l157 326h208l-257 -326h-108zM499 1253l157 326h208l-257 -326h-108z" />
<glyph unicode="&#x172;" horiz-adv-x="1245" d="M120 501v933h98v-933q0 -90 29 -167t82 -133.5t128 -88.5t166 -32t165.5 32t127.5 88.5t82 133.5t29 167v933h98v-933q0 -111 -36 -206t-102 -164.5t-158.5 -109t-205.5 -39.5t-205.5 39.5t-158.5 109t-102.5 164.5t-36.5 206zM385 -319q0 35 13.5 70t34.5 68t46 62.5 t48 53.5h148q-14 -12 -34 -30t-41 -39.5t-42 -45t-37.5 -47.5t-26.5 -47t-10 -42q0 -27 17 -43.5t41 -25.5t50.5 -12.5t45.5 -3.5q30 0 60 3v-100q-30 -3 -60 -3q-42 0 -86.5 9.5t-81.5 31.5t-61 56.5t-24 84.5z" />
<glyph unicode="&#x173;" horiz-adv-x="1036" d="M121 329q0 177 0.5 345t1.5 345h98l-2 -690q0 -60 20 -105.5t55 -76.5t83.5 -47t105.5 -16q48 0 99.5 14t97.5 40t82 63.5t53 85.5l2 -1l-1 733h97l2 -1007h-97v152q-28 -43 -67 -76t-84 -55.5t-94.5 -34t-100.5 -11.5q-77 0 -141.5 24t-111 68.5t-72.5 108t-26 141.5z M260 -319q0 35 13.5 70t34.5 68t46 62.5t48 53.5h148q-14 -12 -34 -30t-41 -39.5t-42 -45t-37.5 -47.5t-26.5 -47t-10 -42q0 -27 17 -43.5t41 -25.5t50.5 -12.5t45.5 -3.5q30 0 60 3v-100q-30 -3 -60 -3q-42 0 -86.5 9.5t-81.5 31.5t-61 56.5t-24 84.5z" />
<glyph unicode="&#x174;" horiz-adv-x="1937" d="M81 1434h101l369 -1238l365 1238l103 -3l368 -1235l368 1238h101l-424 -1431h-90l-374 1256l-372 -1256h-90zM695 1657l235 310h77l235 -310h-83l-189 204l-182 -204h-93z" />
<glyph unicode="&#x175;" horiz-adv-x="1459" d="M29 1024h99l279 -829l276 826h103l279 -826l277 829h99l-341 -1022l-59 4l-304 881l-307 -881l-58 -4zM428 1121l235 310h77l235 -310h-83l-189 204l-182 -204h-93z" />
<glyph unicode="&#x176;" horiz-adv-x="1294" d="M81 1434h112l454 -796l454 796h113l-520 -911l1 -523h-98l-1 530zM374 1657l235 310h77l235 -310h-83l-189 204l-182 -204h-93z" />
<glyph unicode="&#x177;" horiz-adv-x="1005" d="M16 1024h104l352 -895l402 895h107l-596 -1327q-23 -53 -67 -85t-103 -32q-35 0 -69 10.5t-68 20.5v101q33 -10 67.5 -22.5t69.5 -12.5q30 0 50 17t31 43l60 134l60 134zM161 1121l235 310h77l235 -310h-83l-189 204l-182 -204h-93z" />
<glyph unicode="&#x178;" horiz-adv-x="1294" d="M81 1434h112l454 -796l454 796h113l-520 -911l1 -523h-98l-1 530zM380 1777q0 45 27 71.5t72 26.5t71.5 -26.5t26.5 -71.5t-26.5 -71.5t-71.5 -26.5t-72 26.5t-27 71.5zM717 1777q0 45 27 71.5t72 26.5t71.5 -26.5t26.5 -71.5t-26.5 -71.5t-71.5 -26.5t-72 26.5t-27 71.5 z" />
<glyph unicode="&#x179;" horiz-adv-x="1366" d="M121 -1l1 98l998 1240h-999v98h1123l1 -98l-997 -1240h996v-98h-1123zM528 1637l157 301h154l-228 -301h-83z" />
<glyph unicode="&#x17a;" horiz-adv-x="1096" d="M128 -1v98l719 822h-719v98h847v-98l-724 -822h724v-98h-847zM425 1108l157 301h154l-228 -301h-83z" />
<glyph unicode="&#x17b;" horiz-adv-x="1366" d="M121 -1l1 98l998 1240h-999v98h1123l1 -98l-997 -1240h996v-98h-1123zM577 1790q0 48 29 77t77 29t77 -29t29 -77t-29 -77t-77 -29t-77 29t-29 77z" />
<glyph unicode="&#x17c;" horiz-adv-x="1096" d="M128 -1v98l719 822h-719v98h847v-98l-724 -822h724v-98h-847zM442 1380q0 48 29 77t77 29t77 -29t29 -77t-29 -77t-77 -29t-77 29t-29 77z" />
<glyph unicode="&#x17d;" horiz-adv-x="1366" d="M121 -1l1 98l998 1240h-999v98h1123l1 -98l-997 -1240h996v-98h-1123zM404 1970h95l186 -205l193 205h84l-240 -311l-76 1z" />
<glyph unicode="&#x17e;" horiz-adv-x="1096" d="M128 -1v98l719 822h-719v98h847v-98l-724 -822h724v-98h-847zM237 1441h95l186 -205l193 205h84l-240 -311l-76 1z" />
<glyph unicode="&#x17f;" horiz-adv-x="668" />
<glyph unicode="&#x192;" horiz-adv-x="1268" d="M200 213v41h100v-41q0 -29 10.5 -52t29 -39t43 -24.5t51.5 -8.5t51.5 8.5t43 24.5t29 39t10.5 52v715h-111v100h111v99q0 311 307 311q20 0 43.5 -4.5t47 -12t45.5 -17.5t38 -21l-54 -84q-12 8 -27.5 15t-32.5 12t-33.5 8.5t-30.5 3.5q-111 0 -157 -51t-46 -160v-99h276 v-100h-276v-715q0 -51 -18 -92.5t-49.5 -70.5t-74 -45t-92.5 -16q-49 0 -92 16t-74.5 45t-49.5 70.5t-18 92.5z" />
<glyph unicode="&#x218;" horiz-adv-x="1257" d="M121 431l98 -2q0 -87 13.5 -152t48 -108.5t94.5 -65t153 -21.5q58 0 115.5 -0.5t115.5 -0.5q66 0 118 26.5t88 70.5t55 101.5t19 119.5q0 87 -26 142.5t-70.5 89t-103 50t-122.5 25t-130 14t-125 17.5q-66 14 -118.5 42.5t-90 71.5t-57.5 99t-20 124q0 81 26 146.5 t73 112.5t112.5 75t144.5 35q42 3 85 3q205 0 314.5 -103.5t115.5 -309.5l-97 -3q-5 166 -87 242.5t-246 76.5q-67 0 -129.5 -13.5t-110.5 -45t-76.5 -83.5t-28.5 -130q0 -74 27 -121.5t71.5 -76.5t102.5 -43.5t119.5 -22.5t122 -12.5t110.5 -14.5q76 -15 134 -48.5 t97.5 -83.5t60 -114.5t20.5 -141.5q0 -83 -26 -158.5t-75 -132.5t-119 -90.5t-158 -33.5q-58 0 -115.5 0.5t-115.5 0.5q-115 0 -193 29t-125.5 86t-68 140.5t-20.5 191.5zM464 -457l83 276h152l-163 -276h-72z" />
<glyph unicode="&#x219;" horiz-adv-x="1030" d="M110 302l98 -2q0 -62 11 -103.5t36.5 -66t67.5 -34.5t103 -10q45 0 90.5 -0.5t90.5 -0.5q42 0 77.5 14.5t62 40.5t41 61.5t14.5 77.5q0 56 -21.5 91t-57 55.5t-81 30t-93.5 14t-93.5 8t-82.5 11.5q-53 12 -97.5 33.5t-77 54t-50.5 77t-18 102.5q0 78 30 133t80 89.5 t114.5 50.5t133.5 16q80 0 145.5 -18t113 -56.5t74.5 -99t30 -145.5l-98 -3q-1 64 -21 107t-54.5 69t-83 37t-106.5 11q-47 0 -93.5 -9t-83.5 -30.5t-60 -58.5t-23 -93q0 -54 22 -88t58 -54t81.5 -29t93.5 -13.5t93.5 -8t80.5 -11.5q56 -13 100.5 -34.5t76 -54.5t48.5 -78.5 t17 -105.5q0 -64 -22 -117.5t-61 -92.5t-92.5 -60.5t-117.5 -21.5q-26 0 -53 -0.5t-53 -0.5q-94 0 -166.5 10.5t-122 43.5t-75.5 95.5t-26 166.5zM362 -457l83 276h152l-163 -276h-72z" />
<glyph unicode="&#x21a;" horiz-adv-x="1220" d="M50 1337v98h1119v-98h-514v-1337h-97v1337h-508zM494 -457l83 276h152l-163 -276h-72z" />
<glyph unicode="&#x21b;" horiz-adv-x="573" d="M82 928v98h79l1 281h97l-1 -281h223v-98h-223l-1 -657q0 -57 13 -91.5t36.5 -52.5t57 -23.5t74.5 -6.5h70v-98h-77q-271 0 -271 272v60l1 597h-79zM204 -457l83 276h152l-163 -276h-72z" />
<glyph unicode="&#x237;" horiz-adv-x="391" d="M-100 -289q66 0 113 7.5t78 29.5t45.5 63t14.5 108l-2 1106h97l2 -1106q0 -306 -306 -306h-42v98zM117 1274q0 32 22.5 55t54.5 23q34 0 55.5 -22.5t21.5 -55.5t-22 -55t-55 -22q-32 0 -54.5 22.5t-22.5 54.5z" />
<glyph unicode="&#x2c6;" horiz-adv-x="595" d="M20 1247l235 310h77l235 -310h-83l-189 204l-182 -204h-93z" />
<glyph unicode="&#x2c7;" horiz-adv-x="638" d="M35 1560h95l186 -205l193 205h84l-240 -311l-76 1z" />
<glyph unicode="&#x2c9;" horiz-adv-x="772" d="M91 1273v90h651v-90h-651z" />
<glyph unicode="&#x2d8;" horiz-adv-x="760" d="M91 1530h100q0 -45 16 -78.5t44 -55t64.5 -32.5t78.5 -11t78.5 11t64 33t43.5 55t16 78h100q0 -66 -23.5 -117.5t-64.5 -87t-96 -54t-118 -18.5t-118 18.5t-96 54t-65 87t-24 117.5z" />
<glyph unicode="&#x2d9;" horiz-adv-x="375" d="M146 1380q0 48 29 77t77 29t77 -29t29 -77t-29 -77t-77 -29t-77 29t-29 77z" />
<glyph unicode="&#x2da;" horiz-adv-x="442" d="M37 1440q0 39 13 72t37 56t56.5 36t71.5 13t71.5 -13t56.5 -36t37 -56t13 -72t-13 -72t-36.5 -57t-56 -37t-72.5 -13t-72.5 13t-56 37t-36.5 57t-13 72zM117 1440q0 -46 25.5 -72.5t72.5 -26.5t72.5 26.5t25.5 72.5t-26.5 71.5t-71.5 25.5t-71.5 -25.5t-26.5 -71.5z" />
<glyph unicode="&#x2db;" horiz-adv-x="502" d="M124 -256q0 35 13.5 70t34.5 68t46 62.5t48 53.5h148q-14 -12 -34 -30t-41 -39.5t-42 -45t-37.5 -47.5t-26.5 -47t-10 -42q0 -27 17 -43.5t41 -25.5t50.5 -12.5t45.5 -3.5q30 0 60 3v-100q-30 -3 -60 -3q-42 0 -86.5 9.5t-81.5 31.5t-61 56.5t-24 84.5z" />
<glyph unicode="&#x2dc;" horiz-adv-x="762" d="M42 1310q11 37 30.5 68.5t46.5 54t61 35.5t74 13q53 0 88 -17.5t63.5 -38t57 -38t69.5 -17.5q49 0 78 30.5t43 74.5l71 -22q-11 -36 -28.5 -68.5t-42.5 -57.5t-57.5 -39.5t-73.5 -14.5q-35 0 -62 8.5t-49.5 20.5t-41 27t-37.5 27t-39.5 20.5t-45.5 8.5q-45 0 -83 -26 t-51 -70z" />
<glyph unicode="&#x2dd;" horiz-adv-x="811" d="M56 1253l157 326h208l-257 -326h-108zM382 1253l157 326h208l-257 -326h-108z" />
<glyph unicode="&#x323;" horiz-adv-x="548" d="M183 -246q0 48 29 77t77 29t77 -29t29 -77t-29 -77t-77 -29t-77 29t-29 77z" />
<glyph unicode="&#x326;" horiz-adv-x="579" d="M164 -394l83 276h152l-163 -276h-72z" />
<glyph unicode="&#x384;" horiz-adv-x="575" d="M181 1227l157 301h154l-228 -301h-83z" />
<glyph unicode="&#x386;" horiz-adv-x="1309" />
<glyph unicode="&#x387;" horiz-adv-x="549" />
<glyph unicode="&#x388;" horiz-adv-x="1313" />
<glyph unicode="&#x389;" horiz-adv-x="1692" />
<glyph unicode="&#x38a;" horiz-adv-x="950" />
<glyph unicode="&#x38c;" horiz-adv-x="1694" />
<glyph unicode="&#x38e;" horiz-adv-x="1477" />
<glyph unicode="&#x38f;" horiz-adv-x="659" d="M-156 1637l157 301h154l-228 -301h-83z" />
<glyph unicode="&#x390;" horiz-adv-x="709" />
<glyph unicode="&#x3a8;" horiz-adv-x="1647" />
<glyph unicode="&#x3a9;" horiz-adv-x="1595" d="M101 755q0 152 48 276.5t135.5 213t211.5 137.5t276 49q155 0 279.5 -47t212 -135t135 -212t47.5 -279q0 -102 -23.5 -197t-68.5 -179.5t-110 -157.5t-148 -132h350v-88h-498l14 89q89 63 161 135.5t122 155.5t77 178.5t27 203.5q0 123 -38 228.5t-111 182.5 t-178.5 120.5t-239.5 43.5q-135 0 -243 -42.5t-183.5 -118.5t-116.5 -181t-41 -231q0 -109 27 -204.5t77.5 -179t123 -156t162.5 -135.5l13 -89h-499v87h350q-169 118 -260 287t-91 377z" />
<glyph unicode="&#x3aa;" horiz-adv-x="694" />
<glyph unicode="&#x3ab;" horiz-adv-x="1159" />
<glyph unicode="&#x3ac;" horiz-adv-x="1260" />
<glyph unicode="&#x3ad;" horiz-adv-x="989" />
<glyph unicode="&#x3ae;" horiz-adv-x="1266" />
<glyph unicode="&#x3af;" horiz-adv-x="709" />
<glyph unicode="&#x3b0;" horiz-adv-x="1255" />
<glyph unicode="&#x3bc;" horiz-adv-x="996" d="M101 -464l2 1514h98l-1 -734q0 -17 5 -39t12 -39q15 -38 41 -64.5t58.5 -43.5t70 -25t76.5 -8q84 0 161.5 35t131.5 101q12 15 23 31.5t16 35.5l2 -1l-1 751h97l2 -1025h-97v152q-28 -43 -67 -76t-84 -55.5t-94.5 -34t-100.5 -11.5q-69 0 -135 22.5t-117 70.5l-1 -557 h-98z" />
<glyph unicode="&#x3c0;" horiz-adv-x="1255" d="M58 837v92q53 37 115.5 50.5t125.5 13.5h786v-78h-218v-655q0 -31 5 -59.5t18.5 -50.5t36.5 -35t59 -13q20 0 39 4t37 10v-110q-13 -4 -21.5 -7t-17 -5.5t-17.5 -4t-22 -1.5q-62 0 -104 21t-67.5 57t-36.5 84.5t-11 103.5v661h-371v-646q0 -67 -5 -135.5t-23 -133.5h-98 q10 30 16 64t9 69.5t4 70t1 65.5v646q-65 -2 -125.5 -23t-114.5 -55z" />
<glyph unicode="&#x3c6;" horiz-adv-x="1485" />
<glyph unicode="&#x3c7;" horiz-adv-x="971" d="M29 1017h123l336 -435l341 435h123l-403 -515l382 -502h-123l-321 422l-325 -421h-123l387 501z" />
<glyph unicode="&#x3c8;" horiz-adv-x="1559" />
<glyph unicode="&#x3c9;" horiz-adv-x="1602" />
<glyph unicode="&#x3ca;" horiz-adv-x="709" />
<glyph unicode="&#x3cb;" horiz-adv-x="1255" />
<glyph unicode="&#x3cc;" horiz-adv-x="1239" />
<glyph unicode="&#x3cd;" horiz-adv-x="1255" />
<glyph unicode="&#x3ce;" horiz-adv-x="1602" />
<glyph unicode="&#x1000;" horiz-adv-x="1945" d="M110 514q0 104 29 197.5t86.5 163.5t142.5 111t197 41q137 0 241.5 -67t161.5 -192q57 126 162.5 192.5t242.5 66.5q111 0 197.5 -41t145 -110.5t89 -163t30.5 -198.5q0 -104 -29 -197.5t-86.5 -164t-142.5 -111.5t-197 -41q-39 0 -78 6.5t-77 14.5l20 95 q33 -8 66.5 -13.5t68.5 -5.5q92 0 159 33.5t111.5 91t66 133t21.5 159.5t-23 159.5t-69 132.5t-114.5 90.5t-158.5 33.5q-93 0 -160 -33.5t-110 -90.5t-63.5 -132.5t-20.5 -159.5q0 -86 -17 -162.5t-53 -142t-92.5 -118.5t-136.5 -92l-44 87q64 30 110.5 73.5t77 98 t45.5 118t15 131.5q0 82 -22.5 158.5t-67 135t-112 94t-157.5 35.5q-91 0 -158.5 -33.5t-111.5 -90.5t-66 -132.5t-22 -159.5q0 -70 12.5 -133.5t40.5 -118.5t73.5 -99t112.5 -74l-43 -87q-79 37 -135 90t-91 119t-51 142.5t-16 160.5z" />
<glyph unicode="&#x1001;" horiz-adv-x="1107" d="M110 693q22 77 62 138.5t95.5 104.5t125 66.5t149.5 23.5q112 0 197 -41t142.5 -111t86.5 -163.5t29 -197.5t-29 -197.5t-86.5 -164t-142.5 -111.5t-197 -41q-76 0 -141 20.5t-118 58.5t-93.5 92.5t-66.5 123.5q-5 13 -5 27q0 23 16 44q29 38 69 65t85.5 44t94.5 25.5 t94 8.5q57 0 113.5 -12t108 -36t95.5 -60t76 -84q18 48 26 97t8 100q0 85 -22 161.5t-67 134t-113 91.5t-160 34q-64 0 -119.5 -18.5t-99.5 -53t-75.5 -83.5t-48.5 -111zM214 316q42 -108 127.5 -166t200.5 -58q81 0 153 31t122 97q-21 50 -57.5 87t-82 61t-97 36t-103.5 12 q-72 0 -142.5 -23t-120.5 -77z" />
<glyph unicode="&#x1002;" horiz-adv-x="1128" d="M110 507q0 104 29 198.5t86 165.5t142 113t197 42q113 0 198 -42t142 -113t85.5 -165.5t28.5 -198.5q0 -87 -16.5 -161t-52.5 -136.5t-92.5 -112.5t-136.5 -88l-40 83q68 32 114.5 73.5t76 93t42.5 113.5t13 135q0 85 -21.5 162t-66.5 136t-113 94t-161 35 q-92 0 -160 -35.5t-112.5 -94.5t-66.5 -136t-22 -161q0 -72 13 -134t42.5 -113.5t76 -93.5t112.5 -74l-40 -83q-80 39 -136.5 89t-92 112t-52 136t-16.5 161z" />
<glyph unicode="&#x1003;" horiz-adv-x="1944" d="M110 497q0 46 22 79t55 58t71.5 45.5t71.5 42.5t55 47.5t22 61.5q0 19 -7 37t-19 32t-29 22.5t-37 8.5q-36 0 -65 -23.5t-42 -55.5l-83 41q14 27 33.5 50.5t43.5 41.5t52.5 28.5t59.5 10.5q39 0 72.5 -16t58.5 -42.5t39.5 -61.5t14.5 -73q0 -51 -22 -88t-55 -65 t-71 -49.5t-71 -42t-55 -42t-22 -50.5q0 -81 24 -154t70 -128t113 -87.5t154 -32.5q92 0 160 34t113 91.5t67 134t22 160.5q0 64 -12 126t-38.5 117t-69 99.5t-104.5 72.5l39 83q74 -34 126.5 -87t86 -118.5t49 -140.5t15.5 -152q0 -17 -1.5 -33.5t-1.5 -33.5q0 -26 6.5 -51 t14.5 -49q42 -122 124 -187.5t214 -65.5q92 0 160 34t112.5 91.5t66.5 134t22 160.5t-22 160t-67 134t-113 92.5t-159 34.5q-29 0 -56.5 -3.5t-55.5 -10.5l-19 90q32 8 65 12t66 4q111 0 196 -41t142.5 -111.5t86.5 -163.5t29 -197t-29 -197t-86.5 -163t-142.5 -111 t-196 -41q-137 0 -243 67.5t-162 193.5q-56 -126 -162 -193.5t-243 -67.5q-107 0 -191 39.5t-142.5 107.5t-89.5 158t-31 192z" />
<glyph unicode="&#x1004;" horiz-adv-x="1113" d="M111 513q0 104 29 197t86.5 163t142.5 111t196 41q81 0 153 -25t130 -71.5t98 -111t56 -144.5l-89 -25q-13 65 -44 117.5t-76.5 90t-103.5 57.5t-124 20q-92 0 -160 -34t-113 -91.5t-67 -134t-22 -160.5t22 -160.5t67 -134.5t113 -92.5t160 -34.5q70 0 126.5 20 t99.5 57.5t73.5 90t48.5 117.5l88 -25q-18 -79 -57.5 -144t-96.5 -111.5t-128.5 -71.5t-153.5 -25q-112 0 -197 41t-142 111.5t-86 164t-29 197.5z" />
<glyph unicode="&#x1005;" horiz-adv-x="1128" d="M111 512q0 104 29 197t86 162.5t142 110.5t196 41t196 -40.5t142.5 -110.5t86.5 -163t29 -197t-29 -197t-86.5 -163.5t-142.5 -111.5t-196 -41q-112 0 -196.5 41t-141.5 111t-86 163.5t-29 197.5zM203 512q0 -41 5.5 -83t17.5 -81.5t31 -76.5t47 -69q57 68 80.5 145 t23.5 165q0 85 -24 164t-80 145q-55 -64 -78 -145t-23 -164zM375 141q42 -26 90.5 -38t98.5 -12q92 0 160 34t113 92t67 134.5t22 160.5t-22 160t-67 133.5t-113 91.5t-160 34q-50 0 -98.5 -12t-90.5 -38q66 -77 95.5 -173t29.5 -196t-29.5 -196.5t-95.5 -174.5z" />
<glyph unicode="&#x1006;" horiz-adv-x="1938" d="M120 683q25 78 64 141.5t93 108t123 69t154 24.5q69 0 131.5 -17.5t114.5 -51.5t93.5 -83.5t68.5 -113.5q55 131 161.5 200t247.5 69q112 0 197.5 -41t143 -111.5t87 -164t29.5 -198.5t-29.5 -198.5t-87 -164t-143 -111.5t-197.5 -41q-140 0 -246.5 69.5t-162.5 198.5 q-27 -63 -68.5 -113t-94 -84.5t-114.5 -52.5t-131 -18q-154 0 -258.5 79.5t-161.5 218.5q-5 13 -5 25q0 22 15 40q31 38 71 65.5t85 45.5t93 26.5t96 8.5q59 0 115 -11.5t106.5 -35t94 -60t76.5 -87.5q16 42 25.5 85t9.5 88q0 88 -19.5 168.5t-62.5 142.5t-112 99t-168 37 q-71 0 -127.5 -20t-99.5 -57t-73 -90t-49 -119zM234 305q23 -53 57.5 -93t77 -66.5t90 -40t95.5 -13.5q81 0 153 31t122 97q-23 51 -59 88t-80.5 61t-95.5 35.5t-105 11.5q-21 0 -58.5 -6t-77 -19.5t-73 -34.5t-46.5 -51zM1009 540q0 -88 19 -169t62 -143t112 -99t169 -37 q92 0 160.5 34t113.5 92t67.5 134.5t22.5 161.5t-22 161.5t-67 134.5t-113.5 92t-161.5 34q-85 0 -152.5 -31.5t-114 -85.5t-71 -126t-24.5 -153z" />
<glyph unicode="&#x1007;" horiz-adv-x="1106" d="M111 513q0 104 29 197t86.5 163t142.5 111t196 41q91 0 171.5 -32.5t140.5 -89.5t95 -135.5t35 -170.5q0 -32 -7 -62t-7 -62q0 -27 11.5 -48t40.5 -28q15 -3 37 -1l5 -92q-32 0 -60.5 4.5t-51.5 17t-40 34.5t-26 56q-39 -19 -86 -19q-44 0 -78.5 15.5t-58.5 42.5 t-36.5 63.5t-12.5 78.5q0 47 15.5 85.5t43.5 65t67 39t87 6.5q-51 72 -124.5 106t-160.5 34q-92 0 -160 -34t-113 -91.5t-67 -134t-22 -160.5q0 -85 22 -161.5t67 -134.5t113 -92t160 -34q81 0 153 31.5t122 96.5l73 -56q-63 -82 -154.5 -123t-193.5 -41q-112 0 -197 41 t-142 111.5t-86 164t-29 197.5zM728 597q0 -23 5.5 -43t17 -34.5t29.5 -23t43 -8.5q27 0 44.5 9t27.5 24.5t14 36.5t4 44q0 45 -21 73.5t-69 28.5q-50 0 -72.5 -30t-22.5 -77z" />
<glyph unicode="&#x1008;" horiz-adv-x="1399" d="M110 495q0 108 30.5 204.5t89.5 168.5t147.5 114.5t203.5 42.5q116 0 203.5 -42.5t147 -114.5t89.5 -168.5t30 -204.5q0 -56 -8.5 -112.5t-27 -109.5t-47.5 -101t-71 -88v-532l301 -189v1637h90v-1745h-88l-393 247v516q-52 -29 -109.5 -42t-116.5 -13q-116 0 -204 42.5 t-147.5 115.5t-89.5 169.5t-30 204.5zM206 495q0 -74 16 -146.5t58 -135.5q33 25 56.5 57t38.5 68.5t22 76.5t7 80t-6.5 79.5t-21.5 76t-38.5 68.5t-56.5 57q-42 -62 -58.5 -134.5t-16.5 -146.5zM344 141q49 -42 111 -62t126 -20q95 0 165.5 35.5t117 95.5t69 139t22.5 166 t-22.5 166t-69 138.5t-117 94.5t-165.5 35q-64 0 -125.5 -19.5t-111.5 -61.5q41 -32 70.5 -72t48.5 -85.5t28 -95t9 -100.5q0 -102 -37.5 -195.5t-118.5 -158.5z" />
<glyph unicode="&#x1009;" horiz-adv-x="1096" d="M111 334l89 24q17 -60 49 -108.5t75.5 -83t98 -53.5t117.5 -19q92 0 160 34t112.5 91.5t66.5 134t22 160.5t-22 160t-66.5 133.5t-112.5 91.5t-160 34q-64 0 -119 -18.5t-98.5 -52.5t-75 -83t-48.5 -110l-88 24q21 77 60.5 138t95 104.5t124.5 66.5t149 23q111 0 196 -41 t142 -110.5t86 -162.5t29 -197t-29 -197t-86 -163t-142 -111t-196 -41q-98 0 -186 39t-151 114v-667q0 -77 30.5 -107.5t107.5 -30.5h1151q56 0 84.5 16t40.5 43.5t12.5 65.5t0.5 82h92v-69q0 -230 -230 -230h-1151q-230 0 -230 230v846z" />
<glyph unicode="&#x100a;" horiz-adv-x="1914" d="M110 693q22 76 62 137.5t95 104.5t124 66t149 23q111 0 195.5 -41t141.5 -110.5t86 -162t29 -196.5q0 -87 18.5 -163t60.5 -133t111 -90t170 -33q92 0 159.5 34t111.5 91t66 133t22 160t-22 160t-66 133t-111.5 91t-159.5 34q-44 0 -88 -9l-20 90q27 5 54 8t54 3 q111 0 195 -41t141 -111t86 -162.5t29 -195.5t-29 -196t-85.5 -162.5t-141 -110.5t-195.5 -41q-139 0 -246.5 63t-164.5 193q-57 -124 -161 -190.5t-240 -66.5q-98 0 -186 37.5t-151 113.5v-662q0 -39 7 -65.5t23 -42.5t42.5 -23t65.5 -7h1176q59 0 90 14.5t44.5 41.5 t15 65.5t1.5 86.5h92v-70q0 -118 -64 -174t-179 -56h-1176q-230 0 -230 230v842l88 25q17 -61 48.5 -109.5t75.5 -83t99 -53t118 -18.5q92 0 159.5 34t112 92t66.5 134t22 160t-22 160t-66.5 133t-112 91t-159.5 34q-130 0 -218.5 -69.5t-122.5 -194.5z" />
<glyph unicode="&#x100b;" horiz-adv-x="1122" d="M111 517q0 103 29 195t85.5 161.5t140.5 110t194 40.5q79 0 147.5 -23.5t123.5 -66t95 -103.5t61 -136l-88 -25q-35 124 -122 193.5t-217 69.5q-91 0 -158.5 -33.5t-111.5 -90.5t-66 -132.5t-22 -159.5t22 -159.5t66 -132.5t111.5 -91t158.5 -34q55 0 110 18t101.5 51 t79.5 79t43 102l92 -32v-386q-91 -65 -198.5 -97t-219.5 -32q-78 0 -154.5 15.5t-145.5 53.5v-135q69 -26 142 -37.5t147 -11.5q97 0 192 18.5t186 53.5l51 -58v-350h198v-91h-290v388q-164 -53 -336 -53q-99 0 -195.5 19t-186.5 61v354l34 16q28 -42 67.5 -71t85 -46 t95 -24.5t97.5 -7.5q88 0 175.5 19t163.5 66v177q-63 -72 -151 -111t-183 -39q-110 0 -194 41t-140.5 110.5t-85.5 161.5t-29 195z" />
<glyph unicode="&#x100c;" horiz-adv-x="1103" d="M111 514q0 104 29 197t86 162.5t141.5 110.5t195.5 41q80 0 149 -23t124.5 -66t95.5 -104t61 -138l-89 -25q-17 61 -48.5 110t-75 83t-98.5 52.5t-119 18.5q-92 0 -159.5 -34t-112 -91.5t-66.5 -133.5t-22 -160t22 -160t66.5 -133.5t112 -91.5t159.5 -34q63 0 118 19 t98.5 53.5t75 83t48.5 108.5l90 -25v-802q0 -276 -276 -276h-341q-245 0 -245 246q0 73 19 120.5t55.5 75t89 38.5t119.5 11q32 0 68 -1.5t71 -7t67 -16.5t56.5 -31t39 -50.5t14.5 -73.5v-5h-92q0 35 -20 54t-49 28t-62 10.5t-59 1.5h-61q-36 -1 -66.5 -6t-52 -21t-33.5 -46 t-12 -81q0 -42 8 -71.5t26 -48t47.5 -26.5t71.5 -8h341q50 0 85 10t57 32t32 57t10 85v623q-63 -76 -151.5 -114t-186.5 -38q-111 0 -195.5 41t-141.5 111t-86 163t-29 196z" />
<glyph unicode="&#x100d;" horiz-adv-x="1108" d="M111 -172v503l89 25q18 -61 49.5 -110t75 -83.5t98.5 -53t119 -18.5q92 0 160.5 34t113.5 92t67 134t22 161t-22 161.5t-67 134t-113.5 91.5t-160.5 34q-65 0 -120 -18.5t-98.5 -53t-75 -83.5t-49.5 -111l-88 25q21 77 61 138.5t95.5 105t125 66.5t149.5 23 q112 0 197 -41t142.5 -111t86.5 -163.5t29 -197.5t-29 -197.5t-86.5 -164t-142.5 -111.5t-197 -41q-99 0 -187 38t-151 115v-273q75 -46 166 -66.5t178 -20.5q49 0 98.5 7.5t95.5 25t86 46.5t68 72l35 -15v-572h218v-92h-311v504q-69 -38 -147.5 -54t-156.5 -16 q-113 0 -221.5 32.5t-201.5 98.5z" />
<glyph unicode="&#x100e;" horiz-adv-x="1138" d="M111 502q0 44 21.5 79t54 63.5t70 53t70 48t54 47.5t21.5 52q0 16 -7 31t-19 26t-27 18t-31 7q-38 0 -66 -25.5t-42 -57.5l-83 41q14 28 33 52.5t43.5 43t53.5 29t61 10.5q35 0 67 -14t56 -38t38.5 -56t14.5 -67q0 -47 -21.5 -82.5t-53.5 -63.5t-70 -51.5t-70 -46.5 t-53.5 -48t-21.5 -55q0 -82 24.5 -155.5t71 -129t114.5 -88t155 -32.5q93 0 161.5 34t114 92.5t67.5 135.5t22 162q0 68 -12 130t-39 116t-70.5 98t-106.5 76l39 84q76 -33 129.5 -86.5t87.5 -120.5t49.5 -143t15.5 -154q0 -105 -29.5 -199t-87 -164.5t-143 -112 t-198.5 -41.5q-107 0 -192 40t-144 109t-90.5 160t-31.5 193z" />
<glyph unicode="&#x100f;" horiz-adv-x="2248" d="M110 512q0 104 29 197t86.5 163t142.5 111t196 41q103 0 192 -39.5t153 -120.5q8 40 28.5 71t50 52t66 32t75.5 11q38 0 73.5 -10.5t64.5 -30.5t49.5 -50t27.5 -69q64 79 152 116.5t188 37.5q111 0 196 -41t142 -111t86 -163t29 -197q0 -103 -29 -196t-86.5 -163.5 t-142 -111.5t-195.5 -41q-31 0 -61 4.5t-60 8.5l19 91q25 -7 50.5 -9.5t51.5 -2.5q92 0 160 34t112.5 91.5t66.5 134t22 160.5t-22 160.5t-66.5 134t-112.5 91.5t-160 34q-94 0 -162 -35t-112 -94t-65.5 -136.5t-21.5 -162.5q0 -40 4.5 -80t9.5 -79.5t9.5 -79.5t4.5 -80 q0 -46 -19 -81t-49.5 -58.5t-70.5 -35.5t-82 -12q-120 0 -171 57t-51 174q0 74 9 146t9 146q0 83 -23.5 157.5t-69 130.5t-113 89.5t-156.5 33.5q-92 0 -160 -34t-112.5 -91.5t-66.5 -134t-22 -160.5t22 -160.5t66.5 -134t112.5 -91.5t160 -34q26 0 51.5 2.5t50.5 9.5 l19 -91q-30 -4 -60 -8.5t-61 -4.5q-111 0 -196 41t-142.5 111t-86.5 163t-29 197zM992 252q0 -36 6.5 -66.5t22.5 -52t43 -33.5t67 -12q72 0 102 38t30 107q0 32 -4.5 62.5t-9.5 61.5t-9.5 62t-4.5 62q0 43 4 86t8.5 85.5t8.5 85.5t4 86q0 28 -11 49.5t-29 36t-41.5 22 t-49.5 7.5q-27 0 -52 -8t-43.5 -23.5t-30 -38t-11.5 -51.5q0 -85 10 -167.5t10 -167.5q0 -59 -10 -115.5t-10 -115.5z" />
<glyph unicode="&#x1010;" horiz-adv-x="1941" d="M111 512q0 104 29 197t86.5 163t142.5 111t196 41q140 0 246 -68.5t161 -197.5q27 64 68 113.5t93 83t114 51t131 17.5q111 0 195.5 -41t142 -110.5t86.5 -162.5t29 -197q0 -103 -29 -196t-86.5 -163.5t-142 -111.5t-195.5 -41q-39 0 -77 6t-76 15l19 90 q33 -8 66.5 -13.5t67.5 -5.5q92 0 160 34t112.5 91.5t66.5 134t22 160.5t-22 160t-66.5 133.5t-112.5 91.5t-160 34q-93 0 -160.5 -33.5t-111.5 -91t-65.5 -133.5t-21.5 -161q0 -104 -29 -197t-86.5 -163.5t-142.5 -111.5t-196 -41t-196 41t-142.5 111.5t-86.5 163.5 t-29 197zM203 512q0 -85 22 -161t67 -134t113 -92t160 -34q87 0 154.5 33t113 88.5t69 129t23.5 155.5v41q0 81 -24.5 152.5t-71 125t-113 85t-151.5 31.5q-92 0 -160 -34t-113 -91.5t-67 -134t-22 -160.5z" />
<glyph unicode="&#x1011;" horiz-adv-x="1938" d="M111 510q0 104 29 197t86 162.5t141.5 110.5t195.5 41q69 0 131 -18t114 -52t93 -84t68 -114q27 64 68 114t93 84t114 52t131 18q111 0 195.5 -41t141.5 -111t86 -162.5t29 -196.5q0 -103 -29 -196t-86 -163t-141.5 -111t-195.5 -41q-69 0 -131 18t-114 52t-93 84 t-68 114q-27 -64 -68 -114t-93 -84t-114 -52t-131 -18q-111 0 -195.5 41t-141.5 111t-86 163t-29 196zM203 510q0 -84 22 -160t66.5 -133.5t112 -91.5t159.5 -34t159.5 34t112 91.5t66.5 133.5t22 160t-21.5 160t-66 133.5t-112.5 91.5t-160 34t-160 -34t-112.5 -91.5 t-66 -133.5t-21.5 -160zM1015 510q0 -84 22 -160t66.5 -133.5t112 -91.5t159.5 -34t159.5 34t112 91.5t66.5 133.5t22 160t-21.5 160t-66 133.5t-112.5 91.5t-160 34t-160 -34t-112.5 -91.5t-66 -133.5t-21.5 -160z" />
<glyph unicode="&#x1012;" horiz-adv-x="1083" d="M110 692q22 77 62 138t95 104.5t124.5 66.5t149.5 23q137 0 241 -64.5t162 -189.5q3 -6 7.5 -16.5t9 -22.5t8 -22.5t3.5 -16.5q0 -16 -26.5 -31t-66.5 -29.5t-87 -29t-87 -29t-66.5 -30t-26.5 -31.5t26.5 -31.5t66.5 -30t87 -29t87 -29t66.5 -29.5t26.5 -31 q0 -6 -3.5 -16.5t-8 -22.5t-9 -22.5t-7.5 -16.5q-58 -125 -162 -190t-241 -65q-79 0 -148 24t-124.5 67.5t-95.5 104.5t-62 136l89 25q17 -61 48.5 -110.5t75 -83.5t98.5 -52.5t119 -18.5q115 0 194 52.5t128 155.5q-24 8 -58.5 18t-72.5 23t-76 29.5t-68 37.5t-49 47 t-19 58t19 58t49 47t68 37.5t76 29.5t72.5 23t58.5 18q-48 102 -128.5 154.5t-193.5 52.5q-64 0 -119.5 -18.5t-99 -52.5t-75 -83t-48.5 -111z" />
<glyph unicode="&#x1013;" horiz-adv-x="1131" d="M110 513q0 104 29 197.5t86.5 164t142.5 111.5t197 41t197 -41t142.5 -111.5t87 -164t29.5 -197.5t-29.5 -197.5t-87 -164t-142.5 -111.5t-197 -41t-197 41t-142.5 111.5t-86.5 164t-29 197.5zM203 513q0 -52 8.5 -103.5t27.5 -99.5q66 72 148 105t178 33q95 0 178 -33 t148 -105q20 48 28.5 99.5t8.5 103.5q0 85 -22 161.5t-67 134t-113 91.5t-161 34t-161 -34t-112.5 -91.5t-66.5 -134t-22 -161.5zM287 223q51 -68 123 -99.5t155 -31.5t155 31.5t123 99.5q-53 69 -123 100.5t-155 31.5q-87 0 -155.5 -31.5t-122.5 -100.5z" />
<glyph unicode="&#x1014;" horiz-adv-x="1153" d="M111 275q0 50 16 92.5t45.5 74t71 49.5t92.5 18h124q77 0 122 -25t68 -67t29 -95.5t6 -110.5q-1 -29 -1.5 -57.5t-0.5 -56.5h37q50 0 92.5 14t73 41t48 67t17.5 92q0 69 -19.5 117t-52.5 80.5t-77.5 52t-94.5 31.5t-102.5 19.5t-102.5 16t-94.5 21t-77.5 34t-52.5 55.5 t-19.5 85q0 48 15 85.5t43 63t66.5 39t85.5 13.5h187q53 0 92 -16t65.5 -45.5t39.5 -70.5t13 -92h-92q0 62 -26 97t-92 35h-187q-56 0 -86 -25t-32 -84q-2 -45 28 -67.5t84 -35.5t128.5 -23t161.5 -31q149 -35 219.5 -128t70.5 -230q0 -72 -24 -128.5t-67 -95.5t-102 -59 t-129 -20h-37v-751h-92v751h-206q-59 0 -109 20t-87 56t-57.5 85.5t-20.5 108.5zM203 274q0 -39 14 -71.5t38.5 -56t58 -36.5t71.5 -13h206v178q0 39 -6.5 66t-21.5 44t-40 24.5t-63 7.5h-124q-31 0 -55.5 -11t-41.5 -30t-26.5 -45.5t-9.5 -56.5z" />
<glyph unicode="&#x1015;" horiz-adv-x="1137" d="M111 527q0 88 16.5 163t52.5 138t93 113t137 89l41 -84q-68 -33 -115 -75t-76.5 -93.5t-42.5 -114t-13 -136.5q0 -85 22 -163.5t67 -138.5t114 -96t162 -36t162 36t114 96t67 138.5t22 163.5q0 74 -13 136.5t-42.5 114t-77 93.5t-115.5 75l40 84q81 -39 138 -89.5 t93 -112.5t53 -137t17 -164q0 -105 -29 -200.5t-86 -168t-143 -115.5t-200 -43t-200 43t-143 115.5t-86 168t-29 200.5z" />
<glyph unicode="&#x1016;" horiz-adv-x="1146" d="M111 532q0 73 15.5 148t48 141.5t84 120t123.5 83.5l40 -85q-60 -24 -101 -68.5t-67 -100.5t-37.5 -118t-11.5 -121q0 -86 22 -165.5t67 -140t114.5 -96.5t164.5 -36q65 0 119.5 18.5t98.5 53t76 83.5t50 110q-76 0 -134 27t-97.5 73.5t-59.5 109t-20 134.5 q0 48 9.5 95.5t29.5 89.5t52 76.5t78 55.5q70 -33 119 -86t80.5 -118t46 -138t14.5 -146q0 -106 -29 -202.5t-87 -170t-144.5 -116.5t-201.5 -43t-201.5 43t-144.5 116.5t-87 170t-29 202.5zM702 735.5q-4 -52.5 7.5 -105t40 -94t74.5 -65t112 -18.5q9 59 4.5 124.5 t-23.5 128t-54 116.5t-86 88q-32 -29 -51.5 -75.5t-23.5 -99z" />
<glyph unicode="&#x1017;" horiz-adv-x="1134" d="M111 525q0 72 14.5 144t45 136t79 116.5t117.5 85.5q4 -40 20 -74.5t42 -60t61 -40t76 -14.5q42 0 76.5 14.5t61 39.5t42.5 60t20 75q69 -32 117.5 -84.5t80 -117t46 -136.5t14.5 -144q0 -105 -29 -200t-86 -167.5t-142.5 -115t-199.5 -42.5t-199.5 42.5t-142.5 115 t-85.5 167.5t-28.5 200zM204 525q0 -84 22 -162t66.5 -138t113 -96t161.5 -36q94 0 162.5 35.5t113.5 95.5t66.5 138t21.5 163q0 45 -6 91t-20 89.5t-36.5 83t-54.5 72.5q-19 -33 -46.5 -58t-60 -42.5t-68.5 -26t-74 -8.5q-75 0 -141.5 34t-104.5 100q-32 -33 -54 -72.5 t-35.5 -83t-19.5 -89t-6 -90.5z" />
<glyph unicode="&#x1018;" horiz-adv-x="1930" d="M111 375l88 25q17 -70 46 -127t72.5 -97.5t102 -62.5t133.5 -22q92 0 160 34t113 91.5t67 133.5t22 161q0 84 -22 160.5t-66.5 134.5t-112.5 92t-161 34q-75 0 -133 -22.5t-101.5 -63t-72.5 -97.5t-46 -126l-88 25q21 84 58.5 153.5t92 119t127 76.5t163.5 27 q141 0 246.5 -68t160.5 -199q55 130 160.5 198t246.5 68q111 0 195.5 -41t142 -110.5t86.5 -162.5t29 -197q0 -103 -29 -196t-86.5 -163.5t-142 -111.5t-195.5 -41q-39 0 -77 6t-76 15l19 90q33 -8 66.5 -13.5t67.5 -5.5q92 0 159.5 34t112 91.5t66.5 134t22 160.5t-22 160 t-66.5 133.5t-112 91.5t-159.5 34q-79 0 -140.5 -25t-105 -69.5t-71 -106.5t-39.5 -136q-2 -9 -3.5 -20t-1.5 -20q0 -11 0.5 -21.5t0.5 -21.5q0 -104 -29 -197t-86 -163t-142 -111t-197 -41q-93 0 -165 27t-126 76t-91 118.5t-60 154.5z" />
<glyph unicode="&#x1019;" horiz-adv-x="1131" d="M110 524q0 75 14 145.5t44.5 133t79.5 114t118 87.5q11 5 21 10t21 10l40 -84q-11 -5 -21 -10t-21 -10q-56 -30 -95 -73t-63 -94.5t-34.5 -109.5t-10.5 -119q0 -53 8 -104.5t28 -100.5q64 70 149 105.5t179 35.5q92 0 177.5 -36.5t148.5 -103.5q19 49 27 100.5t8 103.5 q0 62 -10.5 120t-34.5 109t-63 94t-96 73q-11 5 -21 10t-21 10l40 84q11 -5 21 -10t21 -10q70 -36 119 -87.5t79.5 -113.5t44.5 -133t14 -146q0 -105 -28.5 -200t-85.5 -167t-142.5 -114.5t-198.5 -42.5q-114 0 -199.5 42.5t-142.5 114.5t-85.5 167t-28.5 200zM285 231 q51 -71 123 -104.5t158 -33.5t158 33.5t122 105.5q-53 67 -123.5 101t-155.5 34q-83 0 -158 -33.5t-124 -102.5z" />
<glyph unicode="&#x101a;" horiz-adv-x="1944" d="M110 512q0 86 16.5 162t52 141t92 118t136.5 91l41 -83q-68 -31 -114.5 -75.5t-75.5 -99t-42 -119t-13 -135.5q0 -84 22 -160.5t66.5 -134t112.5 -91.5t160 -34t160 34t112.5 91.5t66.5 134t22 160.5q0 71 -13 135.5t-42 119t-76 99t-115 75.5l41 83q92 -43 145.5 -94 t83.5 -113t43.5 -137.5t25.5 -167.5q11 -86 30.5 -162.5t59 -133.5t104.5 -90.5t167 -33.5q92 0 160 34t113 91.5t67 134t22 160.5q0 85 -22 161.5t-67 134t-113 91.5t-160 34q-34 0 -67.5 -5.5t-66.5 -13.5l-19 90q38 9 76 15t77 6q111 0 196 -41t142.5 -111.5t86.5 -163.5 t29 -197t-29 -197t-86.5 -163t-142.5 -111t-196 -41q-69 0 -131 18t-114.5 52.5t-94 84.5t-68.5 113q-27 -64 -68 -113.5t-93.5 -84t-114.5 -52.5t-131 -18q-112 0 -197 41t-142 111t-86 163t-29 197z" />
<glyph unicode="&#x101b;" horiz-adv-x="1121" d="M111 512q0 104 29 197.5t86.5 163.5t142.5 111t197 41q72 0 136.5 -19.5t118.5 -57t95 -90.5t67 -121q3 -9 7.5 -21.5t8.5 -25.5t7 -25.5t3 -22.5v-1299h154v-93h-154q-19 0 -36 7.5t-29.5 20t-19.5 29.5t-7 36v1290q0 7 -2.5 17.5t-6.5 21.5t-7.5 21.5t-6.5 17.5 q-45 108 -128 164.5t-200 56.5q-88 0 -154.5 -31t-111.5 -84.5t-69 -125t-27 -153.5q90 -6 162 -39t122.5 -88t77 -130t26.5 -165q0 -7 -1 -26t-4 -39.5t-8 -36.5t-13 -16q-112 0 -197 41t-142.5 111.5t-86.5 164t-29 197.5zM207 444q7 -63 28.5 -122t57.5 -106t87.5 -78.5 t118.5 -41.5q0 72 -17 133t-52.5 106.5t-90.5 73.5t-132 35z" />
<glyph unicode="&#x101c;" horiz-adv-x="1949" d="M111 513q0 105 29 198t86.5 163.5t142.5 111.5t197 41q113 0 198 -41t142 -111.5t86 -163.5t29 -198q0 -85 22 -161t67 -134t113.5 -92t160.5 -34q93 0 161 34t112.5 91.5t66.5 134t22 161.5t-22 161.5t-67 134t-113 91.5t-160 34q-34 0 -67.5 -5.5t-66.5 -13.5l-20 90 q38 9 76.5 15.5t77.5 6.5q112 0 197 -41t142.5 -111.5t86.5 -164t29 -197.5t-29 -197.5t-86.5 -164t-142.5 -111.5t-197 -41t-197 41.5t-142.5 111.5t-86.5 163.5t-29 196.5q0 85 -22 161.5t-67 134.5t-113.5 92t-160.5 34t-160.5 -34t-113.5 -91.5t-67 -134t-22 -161.5 t22 -161t67 -134t113.5 -92t160.5 -34q34 0 67.5 5.5t66.5 13.5l20 -90q-38 -9 -76.5 -15.5t-77.5 -6.5q-112 0 -197 41t-142.5 111.5t-86.5 164t-29 197.5z" />
<glyph unicode="&#x101d;" horiz-adv-x="1129" d="M111 512q0 104 29 197t86.5 163t142.5 111t196 41t196 -41t142.5 -111t86.5 -163t29 -197t-29 -197.5t-86.5 -163.5t-142.5 -111t-196 -41t-196 41t-142.5 111t-86.5 163.5t-29 197.5zM203 512q0 -85 22 -161t67 -134t113 -92t160 -34t160 34t112.5 92t66.5 134.5 t22 160.5q0 85 -22 161t-66.5 133.5t-112.5 91.5t-160 34t-160 -34t-113 -91.5t-67 -133.5t-22 -161z" />
<glyph unicode="&#x101e;" horiz-adv-x="1918" d="M111 692q21 75 61.5 136.5t96 105t124.5 67t148 23.5q112 0 197 -41t142 -111t86 -163t29 -197q0 -84 21.5 -160.5t66 -134t112.5 -91.5t160 -34t159.5 34t112 91.5t66.5 133.5t22 160q0 83 -22 159t-67 134t-112.5 92.5t-158.5 34.5q-34 0 -67.5 -5.5t-66.5 -13.5 l-19 90q38 9 76 15t77 6q111 0 195.5 -41t142 -111.5t86.5 -163t29 -196.5t-29 -197t-86.5 -162.5t-142 -110.5t-195.5 -41q-140 0 -246 68.5t-161 197.5q-27 -64 -68.5 -113.5t-93.5 -83.5t-114 -52t-131 -18q-79 0 -148 23.5t-124.5 67t-95.5 104.5t-61 137l88 25 q17 -60 49 -109t75.5 -83.5t98.5 -53.5t118 -19q92 0 160 34t113 92t67 134t22 161t-22 161t-67 133.5t-113 91.5t-160 34q-64 0 -119 -18.5t-99 -53t-75.5 -83.5t-48.5 -110z" />
<glyph unicode="&#x101f;" horiz-adv-x="1935" d="M111 520q0 87 16 161t51.5 136t91.5 111.5t136 88.5l40 -83q-67 -31 -113.5 -73t-75 -93.5t-41.5 -113.5t-13 -134q0 -84 21.5 -161.5t65.5 -137t112 -94.5t161 -35t160.5 35.5t112 94.5t66 136.5t21.5 161.5q0 72 -13 134t-42 114t-75.5 93.5t-114.5 72.5l40 83 q88 -41 153 -101t100 -152q56 124 161.5 190.5t240.5 66.5q111 0 195.5 -41t141.5 -110.5t86 -162t29 -196.5q0 -103 -29 -196t-86 -163t-141.5 -111t-195.5 -41q-39 0 -77 6t-76 15l19 90q33 -8 66.5 -13.5t67.5 -5.5q92 0 159.5 34t112 91.5t66.5 133.5t22 160t-22 159.5 t-67 133t-112.5 91.5t-158.5 34q-90 0 -157.5 -32.5t-112 -88.5t-66.5 -130t-22 -158q0 -103 -28.5 -197.5t-85.5 -166t-141.5 -114t-196.5 -42.5q-113 0 -197.5 42t-141 113.5t-85 166t-28.5 198.5z" />
<glyph unicode="&#x1020;" horiz-adv-x="1107" d="M111 514q0 104 29 197t86 162.5t142 110.5t196 41q80 0 149.5 -23t124.5 -66.5t95 -104.5t62 -138l-89 -25q-17 62 -48.5 111t-75 83t-98.5 52.5t-120 18.5q-92 0 -160 -34t-112.5 -91.5t-66.5 -133.5t-22 -160t22 -160.5t66.5 -134.5t112.5 -92t160 -34q65 0 119.5 18.5 t98 52.5t75 83.5t48.5 110.5l89 -25q-2 -105 -1.5 -208.5t0.5 -208.5q-92 -66 -200.5 -98t-220.5 -32q-78 0 -156 15.5t-147 53.5v-373q0 -138 138 -138h359q45 0 72.5 12t42.5 34t20 54t5 71q0 16 -0.5 31t-0.5 31h92v-95q0 -108 -61.5 -169t-169.5 -61h-359 q-108 0 -169 61t-61 169q0 134 -0.5 266.5t-0.5 266.5l35 15q29 -43 68.5 -72t85.5 -46.5t95.5 -25t98.5 -7.5q88 0 177.5 20t164.5 67v186q-63 -76 -151 -113.5t-186 -37.5q-112 0 -196.5 41t-141.5 111t-86 163.5t-29 197.5z" />
<glyph unicode="&#x1021;" horiz-adv-x="1843" d="M110 689q21 77 61 138t95 103.5t124 65.5t149 23q115 0 212 -49.5t159 -147.5q63 97 159.5 147t211.5 50q111 0 195.5 -40.5t141.5 -110.5t86 -162.5t29 -196.5q0 -106 -29.5 -199t-88 -162t-144.5 -109t-199 -40q-30 0 -54 2t-41.5 11.5t-27 29.5t-9.5 56q0 62 22.5 112 t60.5 88.5t88.5 67t105.5 46.5t112 27t109 9q3 30 3 61q0 84 -22 160t-66.5 133t-112 91t-159.5 34q-111 0 -192.5 -55t-129.5 -155l5 -15t4 -13q0 -16 -26.5 -31t-66.5 -29.5t-86 -29t-86 -29t-66.5 -30t-26.5 -31.5t26.5 -31t66.5 -29.5t86 -29t86 -29t66.5 -29.5 t26.5 -31q0 -7 -3 -17.5t-7.5 -21.5t-9.5 -21.5t-8 -16.5q-60 -121 -162.5 -187.5t-238.5 -66.5q-79 0 -147.5 23.5t-124 66.5t-95.5 104t-61 136l89 25q17 -60 48.5 -109t75 -83t98 -52.5t117.5 -18.5q106 0 189.5 50.5t128.5 149.5q1 2 1 3.5t1 3.5q-24 8 -58.5 17.5 t-72.5 22t-75.5 29t-67.5 37.5t-48.5 47t-18.5 58t18.5 58t48.5 47t67.5 37.5t75.5 29.5t72.5 22.5t58.5 17.5q-22 47 -55 85t-74.5 65t-90 41.5t-100.5 14.5q-129 0 -217.5 -69.5t-122.5 -193.5zM1231 99q10 -1 19.5 -1h19.5q135 0 224 63.5t127 194.5q-37 -1 -80.5 -7.5 t-86.5 -20t-83.5 -33.5t-71.5 -48.5t-49.5 -65t-18.5 -82.5z" />
<glyph unicode="&#x1022;" horiz-adv-x="1942" d="M110 512q0 104 29 197t86 163t142 111t196 41q69 0 131.5 -18t114.5 -52t93 -84t68 -114q27 63 68.5 113t94 84.5t114.5 52.5t131 18q111 0 196 -41t142 -111t86 -163t29 -197q0 -103 -29 -196t-86.5 -163.5t-142 -111.5t-195.5 -41q-38 0 -76.5 6t-76.5 15l19 90 q33 -8 66.5 -13.5t67.5 -5.5q91 0 159 33.5t113 91t67 134t22 161.5q0 84 -22 160.5t-66.5 134t-112.5 91.5t-160 34q-91 0 -159 -34t-113 -92t-67 -134t-22 -160q0 -172 -71 -300t-227 -207l-39 84q66 29 112.5 73t76 99t43 119t13.5 132q0 86 -22.5 162t-67.5 133.5 t-113 91t-159 33.5q-92 0 -160 -34t-112.5 -91.5t-66.5 -134t-22 -160.5q0 -6 0.5 -11.5t0.5 -11.5q23 -19 53.5 -40.5t62.5 -45t63.5 -49t56.5 -52.5t40 -56t15 -59q0 -37 -14 -70.5t-38 -59t-56.5 -40.5t-70.5 -15q-35 0 -65.5 12t-56 32.5t-45 48t-33.5 57.5l82 42 q7 -19 18 -37t26 -32t33 -22.5t40 -8.5q19 0 35 7.5t28 20.5t18.5 29.5t6.5 34.5q0 17 -7 33t-21 27l-260 194q-2 18 -3 36t-1 36z" />
<glyph unicode="&#x1023;" horiz-adv-x="1935" d="M110 513q0 104 29 196.5t86 162t141.5 110t195.5 40.5q69 0 131 -17.5t113.5 -51.5t92.5 -83.5t68 -113.5q27 63 68 112.5t93.5 83.5t114 52t130.5 18q111 0 195.5 -40.5t141 -110.5t85.5 -162t29 -196q0 -103 -29 -195.5t-86 -162.5t-141 -111t-195 -41q-38 0 -76 6.5 t-76 15.5l19 89q33 -7 66 -13t67 -6q90 0 157.5 33.5t112.5 90.5t67.5 133t22.5 161q0 84 -22 160t-66.5 133t-112 91t-159.5 34q-91 0 -159 -34t-112.5 -91t-66.5 -133t-22 -160v-235h-92v242q0 83 -23 158t-68.5 131t-112.5 89t-155 33q-91 0 -159 -34t-112.5 -91 t-66.5 -133t-22 -160q0 -85 22.5 -161t67.5 -133t112.5 -90.5t157.5 -33.5q34 0 67 6t66 13l19 -89q-38 -9 -76 -15.5t-76 -6.5q-111 0 -195.5 40.5t-141.5 110.5t-86 162.5t-29 196.5zM336 -378q0 76 25 138.5t70.5 107t109 68.5t140.5 24q45 0 88 -10t82 -29.5t72 -49 t56 -69.5q23 40 56 69.5t72 49t83 29.5t89 10q77 0 140.5 -24.5t108.5 -69t69.5 -106.5t24.5 -138q0 -78 -24 -121t-59 -64q-31 -18 -65 -25.5t-63 -13.5t-48 -15t-19 -31q0 -16 14.5 -21.5t34.5 -5.5q14 0 28.5 2t27.5 4.5t23.5 5.5t15.5 5l27 -85q-25 -7 -56.5 -12.5 t-63.5 -5.5q-28 0 -53.5 5.5t-45 18.5t-31 35t-11.5 54q0 40 12 64t31.5 37.5t44.5 19.5t51 11t51 11.5t44.5 21t31.5 39.5t12 66q0 58 -17.5 104t-50 78t-79.5 49.5t-106 17.5q-73 0 -122 -22t-78.5 -61t-42 -92.5t-12.5 -117.5h-91q0 67 -13 121t-42.5 92t-77.5 59 t-119 21q-58 0 -105 -17.5t-80.5 -49.5t-51.5 -78t-18 -104q0 -72 22.5 -119.5t62.5 -76.5t95 -41t119 -12v-89q-84 0 -155.5 19t-123 59.5t-81 104.5t-29.5 155z" />
<glyph unicode="&#x1024;" horiz-adv-x="2206" d="M111 512q0 104 29 197t86 163t142 111t197 41q69 0 131 -18t114.5 -52.5t93.5 -84t68 -113.5q27 63 68.5 113t94 84.5t114.5 52.5t131 18q111 0 196 -41t142.5 -111t86.5 -163t29 -197v-1031q0 -232 -232 -232h-1165q-64 0 -108 16.5t-71.5 48.5t-39.5 78.5t-12 107.5 q0 232 231 232h952v-93h-952q-45 0 -72.5 -9t-42 -28.5t-19.5 -49.5t-5 -71q0 -39 7 -66t23.5 -43.5t43 -23.5t65.5 -7h1165q39 0 66 7t43.5 23.5t23.5 43.5t7 66v1031q0 85 -22 161t-67 133.5t-113 91.5t-160 34t-160 -34t-113 -91.5t-67 -133.5t-22 -161v-236h-92v242 q0 83 -23 158t-68 132t-112.5 90.5t-157.5 33.5q-92 0 -160 -34t-113 -91.5t-67 -133.5t-22 -161t22 -161t67 -134t113 -92t160 -34q34 0 67.5 6t65.5 14l20 -90q-38 -9 -76 -15.5t-77 -6.5q-112 0 -197 41t-142 111t-86 163.5t-29 197.5zM1386 1459q0 80 25 147.5 t71.5 116.5t112 76t147.5 27q81 0 146 -27.5t111.5 -76.5t71.5 -116.5t25 -146.5h-92q0 61 -17.5 111.5t-51 86.5t-82.5 56t-111 20q-63 0 -112 -19.5t-82.5 -55.5t-51 -86.5t-17.5 -112.5q0 -69 10 -111t34 -70t63.5 -49t97.5 -48q65 -30 120 -58t98.5 -59.5t76.5 -67.5 t55.5 -83.5t33.5 -107.5t11 -138l1 -1416h-92l-1 1416q0 100 -21 164.5t-63 110t-104 79t-144 72.5q-73 34 -124 63t-83 67.5t-47 94t-15 141.5z" />
<glyph unicode="&#x1025;" horiz-adv-x="1105" d="M111 693q21 75 61.5 136.5t96 105t124.5 67t148 23.5q111 0 196 -41t142 -111t86 -163t29 -197t-29 -197t-86 -163t-142 -111t-196 -41q-98 0 -186 38t-151 114v-629q0 -50 10 -85t32 -57t57 -32t85 -10h334q36 0 66.5 11.5t53.5 32.5t36 50.5t13 66.5t-13 66.5t-36 50.5 t-54 32.5t-67 11.5q-18 0 -44.5 1t-55 0t-57 -5t-50.5 -14t-35.5 -27t-12.5 -43h-92q-1 57 25 92.5t67 55t90.5 26t94.5 6.5h70q56 0 104 -18.5t83 -51.5t55 -80t20 -104t-20 -103.5t-55 -79.5t-82.5 -51.5t-103.5 -18.5h-334q-276 0 -276 277v809l88 25q17 -60 49 -109 t75.5 -83.5t98.5 -53.5t118 -19q92 0 160 34t112.5 91.5t66.5 134t22 160.5t-22 160.5t-66.5 134t-112.5 91.5t-160 34q-64 0 -119.5 -18.5t-99 -52.5t-75 -83t-48.5 -111z" />
<glyph unicode="&#x1026;" horiz-adv-x="1106" d="M111 693q21 75 61.5 136.5t96 105t124.5 67t148 23.5q111 0 196 -41t142 -111t86 -163t29 -197t-29 -197t-86 -163t-142 -111t-196 -41q-98 0 -186 38t-151 114v-629q0 -50 10 -85t32 -57t57 -32t85 -10h334q36 0 66.5 11.5t53.5 32.5t36 50.5t13 66.5t-13 66.5t-36 50.5 t-54 32.5t-67 11.5q-18 0 -44.5 1t-55 0t-57 -5t-50.5 -14t-35.5 -27t-12.5 -43h-92q-1 57 25 92.5t67 55t90.5 26t94.5 6.5h70q56 0 104 -18.5t83 -51.5t55 -80t20 -104t-20 -103.5t-55 -79.5t-82.5 -51.5t-103.5 -18.5h-334q-276 0 -276 277v809l88 25q17 -60 49 -109 t75.5 -83.5t98.5 -53.5t118 -19q92 0 160 34t112.5 91.5t66.5 134t22 160.5t-22 160.5t-66.5 134t-112.5 91.5t-160 34q-64 0 -119.5 -18.5t-99 -52.5t-75 -83t-48.5 -111zM174 1434q0 81 25 149t71.5 116.5t113 76t148.5 27.5q81 0 147 -27.5t112.5 -77t71.5 -117 t25 -147.5t-25 -147.5t-71.5 -117t-112.5 -77t-147 -27.5q-82 0 -148.5 27.5t-113 76t-71.5 116.5t-25 149zM258 1434q0 -34 5.5 -67t19.5 -65q50 48 115.5 70.5t133.5 22.5q69 0 133.5 -23t114.5 -71q14 32 19.5 65.5t5.5 67.5q0 63 -18.5 115.5t-53.5 90t-85.5 58.5 t-115.5 21t-116 -21t-86 -58.5t-53.5 -90t-18.5 -115.5zM329 1229q39 -43 92.5 -61.5t110.5 -18.5q56 0 109.5 19t92.5 61q-40 42 -92.5 62t-109.5 20t-110 -19.5t-93 -62.5z" />
<glyph unicode="&#x1027;" horiz-adv-x="1104" d="M111 512q0 104 29 197t86 162.5t142 110.5t196 41q65 0 124.5 -17t110.5 -49.5t92 -79t69 -105.5q3 -6 8.5 -19t11.5 -27.5t10 -27t4 -18.5q0 -10 -0.5 -19.5t-1.5 -19.5q-60 -56 -138 -82.5t-159 -26.5q-68 0 -131.5 17.5t-117 51.5t-94 85t-63.5 117 q-47 -63 -66.5 -138.5t-19.5 -152.5q0 -79 20 -156.5t70 -140.5q24 65 64.5 114.5t93 82.5t115 50t129.5 17q81 0 159 -26.5t138 -82.5q1 -10 1.5 -19.5t0.5 -19.5q0 -7 -4.5 -20t-10.5 -27.5t-12.5 -27.5t-9.5 -20q-59 -115 -161.5 -176t-231.5 -61q-111 0 -196 41 t-142 111.5t-86 163.5t-29 197zM365 875q14 -61 44 -107.5t73.5 -78.5t97.5 -48.5t115 -16.5q54 0 105.5 14.5t96.5 44.5q-19 56 -51 102t-74.5 78.5t-95 50t-112.5 17.5q-53 0 -103.5 -13.5t-95.5 -42.5zM367 146q44 -29 94.5 -42t102.5 -13q59 0 111.5 16t95 46.5t75 75 t51.5 100.5q-45 30 -96 44t-105 14q-59 0 -112.5 -15.5t-96.5 -46t-74 -75.5t-46 -104z" />
<glyph unicode="&#x1028;" horiz-adv-x="2317" />
<glyph unicode="&#x1029;" horiz-adv-x="2175" d="M110 -521v2074q0 229 229 229h1451q228 0 228 -229v-90h-91q0 20 0.5 39.5t0.5 39.5q0 39 -6 67t-22 46t-42.5 26.5t-67.5 8.5h-1451q-39 0 -65 -7t-42.5 -23t-23.5 -42t-7 -65v-2074q0 -39 7 -65t23.5 -42t42.5 -23t65 -7h1467q39 0 65 7t42 23t23 42t7 65v668 q-62 -71 -148 -106t-179 -35q-138 0 -243 68.5t-160 195.5q-27 -63 -67.5 -112t-92.5 -82.5t-113 -51.5t-129 -18q-90 0 -162 27t-126 76t-91.5 117.5t-58.5 152.5l88 25q17 -69 45.5 -125.5t71.5 -97t100.5 -62.5t132.5 -22q91 0 158.5 34t111.5 91t66 132.5t22 159.5 t-22 159.5t-66 132.5t-111.5 90.5t-158.5 33.5q-75 0 -133 -22t-100.5 -62t-71.5 -96.5t-46 -125.5l-88 24q21 84 58.5 153t92 118t126.5 75.5t162 26.5q110 0 194 -40.5t140.5 -110t85.5 -161.5t29 -195q0 -11 -0.5 -22.5t-0.5 -22.5q0 -28 5.5 -55t13.5 -53 q37 -124 121.5 -194t216.5 -70q91 0 158 33.5t111.5 90.5t66 132.5t21.5 158.5q0 84 -21.5 159.5t-66 132.5t-111.5 90.5t-158 33.5q-34 0 -67 -5.5t-65 -13.5l-20 90q38 8 76 14t76 6q110 0 194 -40.5t140.5 -110t85.5 -161.5t29 -195q0 -32 -2 -64t-10 -64 q-5 -18 -11.5 -35.5t-6.5 -36.5v-833q0 -229 -229 -229h-1467q-229 0 -229 229z" />
<glyph unicode="&#x102a;" horiz-adv-x="4012" d="M111 515q0 104 29 196t85.5 162t141 110.5t195.5 40.5q92 0 163.5 -27t125.5 -76t91.5 -118t59.5 -153l-88 -25q-17 69 -46 126t-72 97t-101 62t-133 22q-89 0 -156.5 -34t-113 -91.5t-68.5 -132.5t-23 -157q0 -104 36 -199q33 49 76.5 85t94 60t106.5 35.5t113 11.5 q51 0 104 -10t101 -31.5t89 -54.5t68 -79q-21 -76 -60.5 -137t-94.5 -104t-123.5 -66t-148.5 -23q-111 0 -195.5 41t-141 110.5t-85.5 162.5t-29 196zM289 224q50 -64 121.5 -95.5t151.5 -31.5q114 0 199.5 58t126.5 165q-24 27 -55 45.5t-65 30.5t-70 17t-71 5 q-52 0 -103 -11.5t-95.5 -35.5t-80.5 -60.5t-59 -86.5zM1136 -516v2074q0 229 230 229h73h1310h73q229 0 229 -229v-91h-92q0 20 1 40t1 40q0 41 -7 69t-23.5 45.5t-43 25.5t-65.5 8h-1456q-40 0 -66.5 -8t-42.5 -24.5t-22.5 -42.5t-6.5 -62v-2074q0 -41 8 -67t24.5 -42 t42.5 -22t63 -6h1472q41 0 67.5 7.5t42 24t22 42.5t6.5 63v665q-63 -73 -148.5 -108t-180.5 -35q-138 0 -243.5 68.5t-160.5 195.5q-27 -63 -68 -112.5t-92.5 -83.5t-113 -51.5t-130.5 -17.5q-90 0 -162 27t-126.5 76t-92 118t-58.5 153l88 25q17 -68 46 -124.5t72 -97 t101 -63t132 -22.5q91 0 158.5 34t112.5 91.5t67 133.5t22 159q0 84 -22 159.5t-66.5 133t-112 91t-159.5 33.5q-75 0 -133 -22t-101 -62t-72 -97t-46 -126l-88 25q21 84 58.5 153t92 118t127 76t162.5 27q111 0 195.5 -40.5t141 -110.5t85.5 -162t29 -196 q0 -81 21.5 -156.5t65.5 -133.5t111.5 -92.5t158.5 -34.5q90 0 157.5 34t112.5 91t67 132.5t22 158.5t-22 158.5t-67 133t-112.5 91.5t-157.5 34q-34 0 -67 -5.5t-66 -12.5l-19 89q38 9 76 15t76 6q137 0 242 -68t160 -194q55 126 160 194t242 68q111 0 195 -40.5t141 -110 t86 -161.5t29 -196q0 -103 -29 -195.5t-86 -162.5t-141 -110.5t-195 -40.5q-38 0 -76 6t-76 15l20 89q32 -7 65.5 -12.5t66.5 -5.5q91 0 158.5 34t112 91t66.5 132.5t22 159.5q0 83 -22 158.5t-67 132.5t-112.5 91t-157.5 34q-74 0 -139 -28.5t-113 -77t-76 -114t-28 -139.5 q0 -53 -0.5 -99t-10.5 -94q-6 -30 -18 -67h2v-828q0 -229 -230 -229h-1472q-230 0 -230 229zM3098 1427q0 80 24.5 147t70.5 115t111.5 75t146.5 27t145 -26t109 -73.5t70 -113t27 -144.5l-91 -53v46q0 60 -17.5 110.5t-50.5 86.5t-81.5 56t-110.5 20q-63 0 -111.5 -19.5 t-81.5 -55.5t-50.5 -86.5t-17.5 -111.5q0 -74 22 -126t62.5 -84.5t97 -47t125.5 -14.5v-92q-89 0 -162.5 21.5t-126 66.5t-81.5 113.5t-29 162.5z" />
<glyph unicode="&#x102b;" horiz-adv-x="306" d="M-273 1113v478l362 215h107v-1801h-100v1689l-269 -160v-421h-100z" />
<glyph unicode="&#x102c;" horiz-adv-x="820" d="M-200 563q11 99 43.5 183.5t88.5 147t136.5 98t186.5 35.5q111 0 196 -41t142.5 -111t87 -163.5t29.5 -197.5t-29.5 -197t-87 -163.5t-142.5 -112t-196 -41.5q-38 0 -76 6t-76 14l18 88q33 -8 66.5 -13t67.5 -5q93 0 161.5 34.5t113.5 92.5t67.5 135t22.5 162t-22.5 162 t-67.5 135t-113.5 92t-161.5 34q-89 0 -154 -30t-109 -81.5t-69 -122t-34 -151.5z" />
<glyph unicode="&#x102d;" d="M-912 1436q0 81 25 149.5t72 117.5t113.5 76.5t149.5 27.5q82 0 148.5 -27.5t113.5 -77t72 -117.5t25 -149t-25 -149t-72 -117.5t-113.5 -77t-148.5 -27.5q-83 0 -149.5 27.5t-113.5 76.5t-72 117.5t-25 149.5zM-822 1436q0 -63 18 -114.5t52.5 -88.5t85 -57.5 t114.5 -20.5t114 20.5t84.5 57.5t52.5 89t18 114t-18 114t-52.5 89t-84.5 57.5t-114 20.5t-114.5 -20.5t-85 -57.5t-52.5 -88.5t-18 -114.5z" />
<glyph unicode="&#x102e;" d="M-915 1434q0 81 25 149t71.5 116.5t112.5 76t149 27.5q81 0 147 -27.5t112.5 -77t71.5 -117t25 -147.5t-25 -147.5t-71.5 -117t-112.5 -77t-147 -27.5q-83 0 -149 27.5t-112.5 76t-71.5 116.5t-25 149zM-831 1434q0 -34 5.5 -67t19.5 -65q50 48 115.5 70.5t133.5 22.5 q69 0 133.5 -23t114.5 -71q14 32 19.5 65.5t5.5 67.5q0 63 -18.5 115.5t-53.5 90t-85.5 58.5t-115.5 21t-116 -21t-86 -58.5t-53.5 -90t-18.5 -115.5zM-760 1229q39 -43 92.5 -61.5t110.5 -18.5q56 0 109.5 19t92.5 61q-40 42 -92.5 62t-109.5 20t-110 -19.5t-93 -62.5z" />
<glyph unicode="&#x102f;" d="M-547 -39h95v-628h202v-95h-247q-50 0 -50 50v673z" />
<glyph unicode="&#x1030;" d="M-708 -38h95v-725h-95v725zM-464 -38h95v-630h208v-95h-253q-50 0 -50 50v675z" />
<glyph unicode="&#x1031;" horiz-adv-x="1119" d="M111 513q0 104 29 197t86 163t142 111t197 41q91 0 164 -27t128.5 -76.5t93 -119t58.5 -154.5l-89 -24q-17 69 -46.5 126t-73 97.5t-102 63t-133.5 22.5q-92 0 -160 -34t-113 -91.5t-67 -134t-22 -160.5q0 -51 8 -101.5t27 -98.5q33 50 76.5 86.5t94.5 60.5t107 36 t114 12q52 0 105 -10t101.5 -31.5t90 -55t69.5 -79.5q-22 -76 -62 -137.5t-95.5 -105t-124.5 -67t-149 -23.5q-112 0 -197 41t-142 111.5t-86 164t-29 197.5zM291 219q51 -65 122 -96.5t152 -31.5q115 0 201 58t127 167q-24 27 -55 46t-65.5 30.5t-71 17t-71.5 5.5 q-54 0 -105 -11.5t-95 -35.5t-80 -61t-59 -88z" />
<glyph unicode="&#x1032;" d="M-898 1522l50 88l665 -376l-50 -88z" />
<glyph unicode="&#x1033;" horiz-adv-x="682" />
<glyph unicode="&#x1034;" horiz-adv-x="682" />
<glyph unicode="&#x1035;" d="M-912 1434q0 79 24.5 145t70.5 113.5t111 74t146 26.5q116 0 193.5 -52t131.5 -152l-77 -43q-42 79 -99 119.5t-149 40.5q-63 0 -112 -19.5t-82.5 -55.5t-51.5 -86t-18 -111q0 -24 3 -47q49 53 117.5 78.5t140.5 25.5q47 0 93 -11.5t87 -33t74.5 -54t56.5 -74.5 q0 -3 0.5 -5.5t0.5 -4.5q0 -22 -9.5 -41t-20.5 -37q-49 -80 -116 -117.5t-163 -37.5q-81 0 -146 26.5t-111 74t-70.5 113.5t-24.5 145zM-787 1282q35 -61 96 -90.5t131 -29.5q76 0 130.5 34t85.5 104q-37 53 -96.5 78.5t-122.5 25.5q-34 0 -67.5 -7.5t-63 -22.5t-54 -38 t-39.5 -54z" />
<glyph unicode="&#x1036;" d="M-701 1399q0 36 11 66.5t32 52.5t51 34.5t67 12.5t66.5 -12.5t50.5 -34.5t32 -52.5t11 -66.5t-11 -66.5t-32 -52.5t-50.5 -34.5t-66.5 -12.5t-67 12.5t-51 34.5t-32 52.5t-11 66.5zM-625 1399q0 -42 21 -66t64 -24t63.5 24.5t20.5 65.5t-21 65.5t-63 24.5q-43 0 -64 -24 t-21 -66z" />
<glyph unicode="&#x1037;" d="M-701 -296q0 36 11 66.5t32 52.5t51 34.5t67 12.5t66.5 -12.5t50.5 -34.5t32 -52.5t11 -66.5t-11 -66.5t-32 -52.5t-50.5 -34.5t-66.5 -12.5t-67 12.5t-51 34.5t-32 52.5t-11 66.5zM-625 -296q0 -42 21 -66t64 -24q42 0 63 24.5t21 65.5t-21 65.5t-63 24.5q-43 0 -64 -24 t-21 -66z" />
<glyph unicode="&#x1038;" horiz-adv-x="501" d="M90 205q0 36 11 66.5t32 52.5t51 34.5t67 12.5t66.5 -12.5t50.5 -34.5t32 -52.5t11 -66.5t-11 -66.5t-32 -52.5t-50.5 -34.5t-66.5 -12.5t-67 12.5t-51 34.5t-32 52.5t-11 66.5zM90 832q0 36 11 66.5t32 52.5t51 34.5t67 12.5t66.5 -12.5t50.5 -34.5t32 -52.5t11 -66.5 t-11 -66.5t-32 -52.5t-50.5 -34.5t-66.5 -12.5t-67 12.5t-51 34.5t-32 52.5t-11 66.5zM171 832q0 -39 19.5 -62t60.5 -23t60 23.5t19 61.5t-19.5 61.5t-59.5 23.5q-41 0 -60.5 -23t-19.5 -62zM172 205q0 -38 19.5 -61t59.5 -23t59 23t19 61t-19.5 61t-58.5 23 q-40 0 -59.5 -23t-19.5 -61z" />
<glyph unicode="&#x1039;" d="M-772 -281h238v239h90v-239h239v-90h-239v-238h-90v238h-238v90z" />
<glyph unicode="&#x103a;" d="M-904 1433q0 80 25 147.5t71.5 116.5t112 76t147.5 27q72 0 134 -22.5t109 -64t75.5 -100.5t34.5 -132l-89 -23q-8 118 -76.5 185t-187.5 67q-63 0 -112.5 -20t-83.5 -56.5t-52 -87.5t-18 -113q0 -76 21.5 -129t62 -86t98 -48t129.5 -15v-90q-90 0 -164 22t-126.5 67 t-81.5 114.5t-29 164.5z" />
<glyph unicode="&#x103b;" horiz-adv-x="291" d="M-280 206l90 20v-715l282 -171v1674h90v-1769h-107l-355 215v746z" />
<glyph unicode="&#x103c;" horiz-adv-x="290" d="M111 -525v2056q0 233 232 233h653q232 0 232 -233v-57h-93q0 45 -1 81t-13.5 61.5t-41 39.5t-83.5 14h-653q-39 0 -65.5 -7t-43 -23.5t-23.5 -43t-7 -65.5v-2056q0 -39 7 -65.5t23.5 -43t43 -23.5t65.5 -7h669q39 0 66 7t43.5 23t23.5 43t7 66v795l93 50v-845 q0 -232 -233 -232h-669q-232 0 -232 232z" />
<glyph unicode="&#x103d;" d="M-900 -405q0 81 25 149.5t72 117.5t113.5 76.5t149.5 27.5q82 0 148.5 -27.5t113.5 -77t72 -117.5t25 -149t-25 -149t-72 -117.5t-113.5 -77t-148.5 -27.5q-83 0 -149.5 27.5t-113.5 76.5t-72 117.5t-25 149.5zM-805 -405q0 -62 18 -112.5t51.5 -87t83 -56.5t112.5 -20 t112 20t83 56.5t51.5 87t17.5 112.5q0 61 -17.5 112t-51.5 87.5t-83 56.5t-112 20t-112.5 -20t-83 -56.5t-51.5 -87.5t-18 -112z" />
<glyph unicode="&#x103e;" d="M-769 -649h220v619h95v-639q0 -75 -75 -75h-240v95z" />
<glyph unicode="&#x103f;" horiz-adv-x="2741" d="M111 648q23 85 60 154.5t91 118.5t126 76t165 27q112 0 197 -41t142 -111t86 -163t29 -197q0 -11 -0.5 -21.5t-0.5 -21.5q0 -18 5 -40q15 -75 41.5 -137t69.5 -106.5t103 -69t142 -24.5q91 0 158.5 35t112.5 93t67 133.5t22 157.5q0 84 -22 160.5t-66.5 134t-112 91.5 t-159.5 34q-34 0 -67.5 -5.5t-66.5 -13.5l-19 90q38 9 76 15t77 6q111 0 195.5 -41t142 -111.5t86.5 -163t29 -196.5q0 -13 -1 -26t-1 -26q0 -8 1 -15t3 -15q16 -75 42.5 -137t68.5 -106.5t102 -69t143 -24.5q92 0 159.5 34t112 91.5t66.5 133.5t22 160t-22 160.5t-66.5 134 t-112 91.5t-159.5 34q-34 0 -67.5 -5.5t-66.5 -13.5l-19 90q38 9 76 15t77 6q111 0 195.5 -41t142 -111.5t86.5 -163t29 -196.5t-29 -197t-86.5 -162.5t-142 -110.5t-195.5 -41q-139 0 -244.5 68t-161.5 196q-55 -128 -160.5 -196t-244.5 -68q-140 0 -246 68.5t-161 197.5 q-55 -129 -161 -198t-246 -69q-91 0 -163.5 27t-127 76.5t-92 118.5t-58.5 154l88 25q17 -69 46 -125.5t72.5 -97.5t101.5 -63.5t133 -22.5q92 0 160 34t113 92t67 134t22 161t-22 161t-67 133.5t-113 91.5t-160 34q-75 0 -133.5 -22t-102 -62.5t-72.5 -97.5t-46 -127z" />
<glyph unicode="&#x1040;" horiz-adv-x="1148" d="M120 512q0 103 28.5 195.5t85 162t139.5 111t192 43.5v-92q-89 -2 -155.5 -36.5t-110.5 -92t-65.5 -132.5t-21.5 -159t21.5 -159.5t65 -133t110 -92t156.5 -36.5v-92q-109 2 -192 43.5t-139.5 111.5t-85 162.5t-28.5 195.5zM588 -1v92q88 3 153.5 38t108.5 92.5t64 132.5 t21 158t-21 158t-64 132.5t-108 92t-154 37.5v92q108 -3 190.5 -44.5t138 -111.5t83.5 -161.5t28 -194.5q0 -102 -28 -194t-83.5 -162t-138 -112t-190.5 -45z" />
<glyph unicode="&#x1041;" horiz-adv-x="1126" d="M120 693q22 77 62 138.5t95.5 104.5t124.5 66t150 23q111 0 196 -41t142.5 -111t86.5 -163t29 -197t-29 -197.5t-86 -164t-142 -111.5t-197 -41q-80 0 -149.5 23.5t-124.5 67t-95 105t-62 137.5l89 24q17 -61 48.5 -110.5t75.5 -83.5t99 -52.5t119 -18.5q92 0 160 34.5 t113 92.5t67 134.5t22 160.5t-22 160.5t-67 134t-113 91.5t-160 34q-64 0 -119.5 -18t-99.5 -52.5t-75.5 -83.5t-48.5 -111z" />
<glyph unicode="&#x1042;" horiz-adv-x="1148" d="M120 -207h92v-46q0 -85 22 -161.5t67 -134t113 -91.5t160 -34t160 34t112.5 92t66.5 134.5t22 160.5v1278h93v-1278q0 -104 -29 -197.5t-86.5 -163.5t-142.5 -111t-196 -41t-196 41t-142.5 111t-86.5 163.5t-29 197.5v46z" />
<glyph unicode="&#x1043;" horiz-adv-x="1126" d="M120 693q22 77 62 138t95.5 104.5t125 66.5t149.5 23q112 0 197 -41t142 -111t86 -163t29 -197t-29 -197.5t-86 -164t-142 -111.5t-197 -41q-54 0 -107 10t-101 35l348 -832h-100l-435 1033l89 33q21 -59 47.5 -95.5t62.5 -57t84 -27.5t112 -7q92 0 160 34.5t113 92.5 t67 134.5t22 160.5t-22 160.5t-67 134t-113 91.5t-160 34q-64 0 -119 -18.5t-99 -53t-76 -83.5t-49 -110z" />
<glyph unicode="&#x1044;" horiz-adv-x="1126" d="M120 513q0 104 29 197t86 163t142 111t197 41q80 0 149.5 -23t125 -66.5t95.5 -104.5t62 -138l-89 -25q-17 61 -49 110t-76 83.5t-99 53t-119 18.5q-92 0 -160 -34t-113 -91.5t-67 -134t-22 -160.5t22 -160.5t67 -134.5t113 -92.5t160 -34.5q64 0 112 7t84 27.5t62.5 57 t47.5 95.5l89 -33l-435 -1033h-100l348 832q-48 -25 -101 -35t-107 -10q-112 0 -197 41t-142 111.5t-86 164t-29 197.5z" />
<glyph unicode="&#x1045;" horiz-adv-x="1148" d="M120 -230h92v-46q0 -84 22 -160.5t67 -134.5t113 -92t160 -34q91 0 159 34.5t113 92.5t67 134t22 160v788q0 85 -22 161t-66.5 133.5t-112.5 91.5t-160 34q-85 0 -150 -29t-110 -80t-70.5 -120t-30.5 -149q25 16 52.5 23.5t56.5 7.5q38 0 73.5 -15t63 -40.5t44 -60 t16.5 -73.5q0 -36 -13 -67.5t-36 -55t-54.5 -37t-67.5 -13.5q-59 0 -102 26t-71 67t-41.5 92.5t-13.5 103.5q0 104 29 197t86.5 163t142.5 111t196 41q87 0 159.5 -26.5t128.5 -74.5t94.5 -115.5t57.5 -149.5q6 -24 9.5 -49t3.5 -51l1 -834q0 -104 -29 -197t-86.5 -163.5 t-142.5 -111.5t-196 -41q-112 0 -197 42t-142 112.5t-86 163.5t-29 195v46zM220 443q5 -24 15 -47t26 -41t37 -28.5t49 -10.5q36 0 57.5 23t21.5 58q0 21 -8.5 38t-22.5 30t-32.5 20t-38.5 7q-30 0 -56.5 -14.5t-47.5 -34.5z" />
<glyph unicode="&#x1046;" horiz-adv-x="1148" d="M120 467v808q0 104 29 197t86.5 163.5t142.5 111.5t196 41q119 0 204.5 -39t141 -107.5t82 -162.5t26.5 -204h-92q0 91 -19.5 168t-62.5 133t-112 87.5t-168 31.5q-91 0 -159 -34t-113 -92t-67 -134t-22 -160v-762q0 -85 22 -161t66.5 -133.5t112.5 -91.5t160 -34 q66 0 130 10t114 38.5t80.5 78.5t30.5 130t-19.5 126.5t-51 73.5t-71.5 41t-81.5 27.5t-79.5 34t-67 59.5q-20 28 -33 59.5t-13 66.5q0 42 18.5 79t48.5 64.5t69 43.5t80 16q38 0 71.5 -14t61 -37.5t49.5 -54t37 -62.5l-80 -46q-9 22 -22.5 43.5t-31.5 39t-40.5 28 t-48.5 10.5q-22 0 -43.5 -8.5t-38 -23.5t-26.5 -35.5t-10 -43.5q0 -37 17.5 -61t46.5 -41t66 -30.5t75.5 -30t75.5 -39t66 -57t46.5 -85t17.5 -123.5q0 -104 -34.5 -175t-94.5 -114t-141 -61.5t-174 -18.5q-84 0 -153.5 24t-124.5 68t-94 107t-62 142q-9 31 -14.5 62 t-5.5 63z" />
<glyph unicode="&#x1047;" horiz-adv-x="1148" d="M120 512q0 104 29 197.5t86.5 163.5t142.5 111t197 41q114 0 199 -41.5t141.5 -112t84.5 -164.5t28 -200q0 -54 -10 -108.5t-25 -108.5t-34 -106.5t-37 -102.5q-24 -66 -45.5 -131.5t-38 -131.5t-26.5 -134t-10 -139q0 -39 6 -82t23 -79t47.5 -60t79.5 -24q4 0 7.5 0.5 t7.5 0.5l-1 -93q-79 0 -129.5 28t-80 75t-40.5 108t-11 129q0 128 24.5 244t67.5 236q21 58 44 117t43 119t33 121t13 124q0 86 -21 162.5t-65.5 134.5t-112.5 92t-162 34q-92 0 -160.5 -34t-113.5 -91.5t-67 -133.5t-22 -161q0 -70 16.5 -139t51.5 -125.5t89.5 -96.5 t130.5 -54l-21 -90q-92 20 -159.5 68t-112 115.5t-66 150t-21.5 171.5z" />
<glyph unicode="&#x1048;" horiz-adv-x="1164" d="M120 499q0 107 29 203t87 169.5t144.5 116.5t201.5 43t201.5 -43t144.5 -116.5t87 -169.5t29 -203q0 -73 -15.5 -148t-48 -141.5t-84 -120t-123.5 -83.5l-40 85q60 24 101 68.5t67 100.5t37.5 118t11.5 121q0 86 -22 165.5t-67 140t-114.5 96.5t-164.5 36 q-65 0 -120 -18.5t-98.5 -53t-75.5 -83.5t-50 -110q76 0 134 -26.5t97.5 -73t59.5 -109.5t20 -135q0 -48 -9 -95.5t-29.5 -89.5t-52.5 -76.5t-78 -55.5q-70 33 -119 86t-80.5 118t-46 138t-14.5 146zM214 499q0 -52 8.5 -106t28 -104.5t51 -94t76.5 -73.5q22 19 36.5 43.5 t23.5 51.5t13 55.5t4 56.5q0 49 -11.5 94t-36.5 79.5t-64 55.5t-93 21h-31q-3 -20 -4 -39.5t-1 -39.5z" />
<glyph unicode="&#x1049;" horiz-adv-x="1151" d="M120 -270q0 208 0.5 414.5t0.5 414.5q0 40 7.5 78.5t19.5 76.5q51 156 164.5 234t275.5 78q93 0 174 -32.5t141 -90t94 -137t34 -174.5q0 -60 -11 -103t-30.5 -73.5t-45.5 -49.5t-55.5 -31.5t-61 -19.5t-61.5 -12q-32 -6 -61 -12.5t-50.5 -18.5t-34.5 -31.5t-13 -51.5 q0 -23 10 -43.5t26.5 -35.5t38 -23.5t43.5 -8.5q26 0 48 10.5t40 28t32 39t23 43.5l80 -46q-16 -32 -37.5 -62t-49 -53.5t-60.5 -38t-72 -14.5q-41 0 -80 16t-69 43.5t-48.5 64.5t-18.5 79q0 21 2 37.5t7.5 30.5t14.5 28t22 30q27 33 65.5 48t81 24t84 17.5t75 28.5t54 57 t20.5 102q0 76 -27 139t-74.5 108.5t-112 70.5t-139.5 25q-98 0 -168.5 -31.5t-116 -88t-67 -133.5t-21.5 -168v-783q0 -84 22 -160t67 -134t113 -92.5t159 -34.5q93 0 161 34.5t113 92.5t66.5 134.5t21.5 159.5h92q0 -104 -29 -197t-86 -163t-142 -111.5t-197 -41.5 q-111 0 -196 41t-142.5 111.5t-86.5 163.5t-29 197z" />
<glyph unicode="&#x104a;" horiz-adv-x="347" d="M120 4v998h97v-998h-97z" />
<glyph unicode="&#x104b;" horiz-adv-x="554" d="M120 4v998h97v-998h-97zM327 4v998h97v-998h-97z" />
<glyph unicode="&#x104c;" horiz-adv-x="1091" d="M111 -478q0 47 24 81.5t60.5 56.5t80.5 32.5t84 10.5q38 0 77.5 -7.5t76 -24t66.5 -42t48 -61.5l-80 -41q-15 24 -36 40.5t-46.5 26t-52.5 14t-54 4.5q-30 0 -58.5 -5t-50.5 -18.5t-35.5 -36t-13.5 -56.5q0 -28 2 -53.5t11 -44.5t28 -30.5t54 -11.5h394q136 0 136 136 v375q-68 -38 -144.5 -53t-153.5 -15q-111 0 -217 32t-197 96v409l87 24q17 -60 47.5 -108t73.5 -81.5t96.5 -51.5t116.5 -18q90 0 157 33.5t111 90t65.5 131t21.5 157.5t-21.5 158t-65.5 131.5t-110.5 89.5t-157.5 33q-63 0 -117 -18t-96.5 -52t-73.5 -82t-48 -108l-87 25 q21 75 60 135.5t93 102.5t122 64.5t147 22.5q110 0 193 -40t139 -108.5t84.5 -160t28.5 -193.5t-28.5 -193.5t-84.5 -160.5t-139 -109t-193 -40q-94 0 -181.5 38t-148.5 110v-182q75 -48 161.5 -66.5t174.5 -18.5q48 0 96.5 7.5t93.5 24.5t84 45.5t67 70.5l34 -15v-532 q0 -106 -60 -166.5t-166 -60.5h-394q-85 0 -135 50.5t-50 135.5v71zM199 1442q0 79 24.5 145t69.5 114t109.5 74.5t144.5 26.5t142.5 -25.5t107 -72t69 -111t28.5 -141.5l-90 -10q0 60 -17 109.5t-50 85t-81 55t-109 19.5t-109 -19.5t-81 -55t-50.5 -85t-17.5 -109.5 t17.5 -109t50.5 -84.5t81 -55t109 -19.5h46v-91h-46q-80 0 -144.5 26.5t-109.5 74t-69.5 113.5t-24.5 145z" />
<glyph unicode="&#x104d;" horiz-adv-x="1330" d="M111 -451q0 106 59 165.5t165 59.5h366v-90h-366q-49 0 -76.5 -14.5t-40.5 -39t-15.5 -58t-2.5 -71.5q0 -135 135 -135h645q71 0 103 34.5t32 100.5q0 293 -0.5 582.5t-0.5 582.5q0 97 -20 159t-60.5 105.5t-101 77t-142.5 73.5q-70 34 -120 62.5t-81 65.5t-45.5 90.5 t-14.5 137.5q0 78 24 144t69 113t109 73.5t144 26.5q48 0 94 -11.5t86 -34.5t73 -57t54 -78q25 -51 31.5 -107.5t6.5 -112.5h-90v44q0 59 -17 108t-50 84.5t-80.5 55t-107.5 19.5q-62 0 -110 -20t-80.5 -55t-49 -84t-16.5 -108q0 -68 9.5 -108.5t33 -67.5t61.5 -47.5 t95 -47.5q93 -45 165 -86t121 -95.5t74 -130t25 -188.5q0 -293 0.5 -582.5t0.5 -582.5q0 -106 -59 -165.5t-165 -59.5h-645q-106 0 -165 59.5t-59 165.5v48zM111 516q0 101 28.5 191t84 158t138 108t190.5 40q69 0 130.5 -18t113 -52.5t91.5 -85t66 -114.5q4 -10 9 -23 t9.5 -27t7.5 -27.5t3 -23.5v-1142h-89v1133q0 21 -7.5 41t-16.5 39q-50 103 -125 156.5t-192 53.5q-84 0 -148 -30.5t-108 -82.5t-67.5 -121.5t-26.5 -147.5q88 -6 157.5 -38.5t118 -86t74 -126t25.5 -159.5q0 -6 -1 -25t-4 -38.5t-7.5 -35t-12.5 -15.5q-108 0 -190.5 40 t-138 108.5t-84 159t-28.5 191.5zM205 451q7 -61 27 -118.5t55 -103t84.5 -77t115.5 -40.5q3 21 3 42q0 62 -22 114t-60.5 91t-90.5 63t-112 29z" />
<glyph unicode="&#x104e;" horiz-adv-x="1105" d="M111 513q0 104 29 197t86 163t142 111t196 41q80 0 149 -23.5t124.5 -66.5t95.5 -104.5t61 -137.5l-88 -25q-17 62 -48.5 111t-75.5 83t-99 52.5t-119 18.5q-92 0 -160 -34t-112.5 -91.5t-66.5 -134t-22 -160.5t22 -160.5t66.5 -134t112.5 -91.5t160 -34q64 0 118.5 18.5 t98.5 53t75.5 83.5t48.5 110l88 -25v-1119h-92v939q-63 -76 -151 -114t-186 -38q-111 0 -196 41t-142 111t-86 163t-29 197z" />
<glyph unicode="&#x104f;" horiz-adv-x="1611" d="M111 511q0 104 29 197t86 162.5t141.5 110.5t195.5 41q80 0 155 -27.5t135 -81.5q38 27 83 42t92 15q50 0 88.5 -17t65 -47t40 -71t13.5 -89l1 -747h-91l-1 746q0 27 -6 51.5t-19.5 43t-35 29.5t-51.5 11q-31 0 -61 -9.5t-56 -26.5q8 -13 21 -35t25.5 -46t21.5 -46.5 t9 -37.5q0 -10 -0.5 -19t-1.5 -19q-60 -56 -137.5 -82.5t-158.5 -26.5q-69 0 -132 17.5t-116 51.5t-93 84.5t-63 117.5q-48 -63 -67.5 -138.5t-19.5 -153.5t20 -155.5t70 -140.5q24 65 64.5 114t93 82t114.5 50t129 17q81 0 158.5 -26.5t137.5 -82.5q1 -10 1.5 -19.5 t0.5 -19.5q0 -7 -4.5 -20t-10.5 -27.5t-12 -27t-10 -20.5q-60 -115 -161.5 -175.5t-230.5 -60.5q-115 0 -200 40t-141 109t-83.5 162.5t-27.5 200.5zM365 874q14 -61 44 -108t72.5 -78.5t96.5 -48t115 -16.5q54 0 106 14.5t97 44.5q-19 56 -51 102t-74.5 78.5t-95 50 t-112.5 17.5q-52 0 -103 -13.5t-95 -42.5zM368 145q43 -29 93.5 -41.5t101.5 -12.5q119 0 206.5 62.5t125.5 175.5q-45 30 -96 44t-105 14q-60 0 -112.5 -15.5t-95.5 -46t-73 -76t-45 -104.5zM802 1438q0 79 24.5 145.5t70 114.5t110 74.5t145.5 26.5t145.5 -26.5 t109.5 -74.5t69.5 -114.5t24.5 -145.5h-91q0 59 -18 108.5t-51 85.5t-81 56t-108 20q-62 0 -110 -19.5t-81 -55t-50.5 -85.5t-17.5 -110q0 -69 15 -117.5t46 -82t78.5 -54.5t112.5 -35q160 -31 249.5 -128.5t89.5 -264.5l1 -757h-91v757q0 88 -25.5 142.5t-67 87.5 t-94.5 51.5t-108.5 35t-109 38t-95 61t-67 103t-25.5 163.5z" />
<glyph unicode="&#x1050;" horiz-adv-x="1137" d="M111 503q0 105 29 200.5t86 168t143 115.5t200 43t200 -43t143 -115.5t86 -168t29 -200.5q0 -89 -17 -164t-53 -137t-93 -112.5t-138 -89.5l-40 84q68 33 115.5 75t77 93.5t42.5 114t13 136.5q0 85 -22 163.5t-67 138.5t-114 96t-162 36t-162 -36t-114 -96t-67 -138.5 t-22 -163.5q0 -74 13 -136.5t42.5 -114t76.5 -93.5t115 -75l-41 -84q-80 39 -137 89t-93 113t-52.5 138t-16.5 163zM460 510q0 42 26 68t68 26t68 -26t26 -68q0 -43 -25.5 -69t-68.5 -26t-68.5 26t-25.5 69z" />
<glyph unicode="&#x1051;" horiz-adv-x="1137" d="M111 527q0 88 16.5 163t52.5 138t93 113t137 89l41 -84q-68 -33 -115 -75t-76.5 -93.5t-42.5 -114t-13 -136.5q0 -85 22 -163.5t67 -138.5t114 -96t162 -36t162 36t114 96t67 138.5t22 163.5q0 74 -13 136.5t-42.5 114t-77 93.5t-115.5 75l40 84q81 -39 138 -89.5 t93 -112.5t53 -137t17 -164q0 -105 -29 -200.5t-86 -168t-143 -115.5t-200 -43t-200 43t-143 115.5t-86 168t-29 200.5zM460 520q0 43 25.5 69t68.5 26t68.5 -26t25.5 -69q0 -42 -26 -68t-68 -26t-68 26t-26 68z" />
<glyph unicode="&#x1052;" horiz-adv-x="1138" d="M111 517q0 78 15.5 154t49.5 143t87.5 120.5t129.5 86.5l39 -84q-63 -32 -106.5 -76t-70.5 -98t-39 -116t-12 -130q0 -85 22 -162t67.5 -135.5t114 -92.5t161.5 -34q87 0 155 32.5t114.5 88t71 129t24.5 155.5q0 31 -21.5 55.5t-53.5 47.5t-70 46.5t-70 51.5t-53.5 63.5 t-21.5 82.5q0 35 14.5 67t38.5 56t56 38t67 14q32 0 61 -10.5t53.5 -29t44 -43t32.5 -52.5l-83 -41q-14 32 -42 57.5t-66 25.5q-16 0 -31 -7t-27 -18t-19 -26t-7 -31q0 -28 21.5 -52t54 -47.5t70 -48t70 -53t54 -63.5t21.5 -79q0 -102 -31.5 -193t-90.5 -160t-144 -109 t-192 -40q-112 0 -198 41.5t-143.5 112t-87 164.5t-29.5 199z" />
<glyph unicode="&#x1053;" horiz-adv-x="1142" d="M111 443q0 35 3 62t11.5 50.5t24.5 45.5t42 46q19 18 54.5 40.5t70 48t60.5 53.5t26 56q0 16 -7 31t-19 26t-27 18t-31 7q-19 0 -35 -7t-29.5 -19t-24 -27t-18.5 -30l-84 41q14 27 33.5 51.5t43.5 43t53 29.5t61 11q35 0 67 -14.5t56 -38.5t38.5 -56t14.5 -67 q0 -46 -20.5 -74t-53.5 -55q-44 -36 -87 -71.5t-87 -71.5q-16 -13 -24.5 -27.5t-13.5 -31.5q-4 -17 -4.5 -34t-0.5 -37q0 -84 27 -149t75.5 -109.5t116 -67.5t148.5 -23t148.5 23.5t116 68.5t75.5 110t27 149q0 52 -21.5 88.5t-54 65t-70.5 53t-70.5 52t-54 61.5t-21.5 81 q0 35 14.5 67t38.5 56t56 38t67 14q32 0 61 -11t53 -29.5t43.5 -43t33.5 -51.5l-83 -41q-16 32 -43 57.5t-65 25.5q-37 0 -62.5 -21.5t-21.5 -60.5q0 -16 5 -28t13 -21.5t18.5 -18.5t21.5 -18q38 -29 78.5 -54t75.5 -58q25 -24 41 -46t25 -45.5t12 -50.5t3 -61 q0 -103 -34 -185.5t-95 -140t-145.5 -88t-185.5 -30.5q-100 0 -184.5 30.5t-146 88t-95.5 139.5t-34 185z" />
<glyph unicode="&#x1058;" d="M-897 -406q0 79 24.5 144t70.5 111.5t110 72.5t144 26q48 0 94 -11t86.5 -33t73 -55.5t54.5 -77.5q5 -11 8.5 -22t3.5 -23q0 -40 -30 -69t-72 -47.5t-87.5 -27.5t-76.5 -9q-84 0 -161 33.5t-130 99.5q-19 -53 -19 -112t18 -107t51 -82t80.5 -52.5t106.5 -18.5 q90 0 155.5 43t90.5 132l88 -27q-14 -59 -46.5 -104t-77 -75t-98.5 -45.5t-112 -15.5q-79 0 -143.5 25.5t-110 72t-70.5 111t-25 143.5zM-730 -210q18 -32 44 -55t57 -39t66 -23.5t70 -7.5q47 0 93.5 14t78.5 49q-14 33 -38.5 57t-55.5 39.5t-65 23.5t-68 8q-50 0 -98 -15.5 t-84 -50.5z" />
<glyph unicode="&#x1059;" d="M-897 -406q0 79 24.5 144t70.5 111.5t110 72.5t144 26q46 0 92.5 -11.5t87.5 -33.5t74.5 -55.5t53.5 -76.5q5 -11 8.5 -22t3.5 -23q0 -40 -30 -69t-72 -47.5t-87.5 -27.5t-76.5 -9q-84 0 -161 33.5t-130 99.5q-19 -53 -19 -112q0 -35 7 -70t22.5 -65.5t39.5 -55.5t58 -41 q5 7 16.5 22t26 32.5t31 36t32 34t28.5 25t21 9.5q7 0 19.5 -11t28.5 -28t33 -38t32 -40.5t26.5 -35.5t16.5 -23q33 5 49 27.5t16 54.5q0 22 -8 38l87 31q7 -16 10 -33.5t3 -34.5q0 -84 -48.5 -130.5t-131.5 -46.5l-133 150l-116 -150q-19 2 -37 9t-35 15 q-94 47 -140.5 131.5t-46.5 187.5zM-730 -210q18 -32 44 -55t57 -39t66 -23.5t70 -7.5q47 0 93.5 14t78.5 49q-15 33 -39.5 57t-54.5 39.5t-64.5 23.5t-68.5 8q-50 0 -98 -15.5t-84 -50.5z" />
<glyph unicode="&#x105b;" horiz-adv-x="1780" />
<glyph unicode="&#x105e;" horiz-adv-x="682" />
<glyph unicode="&#x105f;" horiz-adv-x="682" />
<glyph unicode="&#x1060;" horiz-adv-x="682" />
<glyph unicode="&#x1061;" horiz-adv-x="1411" />
<glyph unicode="&#x1062;" horiz-adv-x="343" d="M-17 905v97h201q49 0 49 -49v-949h-96v901h-154z" />
<glyph unicode="&#x1065;" horiz-adv-x="1366" />
<glyph unicode="&#x1071;" horiz-adv-x="682" />
<glyph unicode="&#x1072;" horiz-adv-x="682" />
<glyph unicode="&#x1073;" horiz-adv-x="682" />
<glyph unicode="&#x1075;" horiz-adv-x="1126" d="M111 534q0 101 31 190t89.5 156t142.5 106t189 39q111 0 196 -41t142 -110.5t86 -162.5t29 -197q0 -72 -14.5 -144.5t-45.5 -137.5t-79.5 -118.5t-116.5 -86.5l-45 -21l-42 90q67 31 113.5 73.5t75.5 95.5t42 115.5t13 133.5q0 83 -21.5 157.5t-65 131t-110.5 90 t-157 33.5q-85 0 -150.5 -31.5t-110.5 -85t-68.5 -124.5t-23.5 -151q0 -28 21.5 -52t53.5 -47t70 -47.5t70 -55t53.5 -68t21.5 -86.5q0 -37 -15.5 -70t-41 -57.5t-59 -38.5t-70.5 -14q-28 0 -55.5 8t-51.5 22.5t-44 35t-33 45.5l88 45q15 -25 41 -41t55 -16q16 0 31.5 6.5 t28 17.5t20 25.5t7.5 31.5q0 21 -6.5 37t-18 28.5t-26 23t-30.5 20.5q-31 21 -67.5 46t-68 55.5t-52.5 66.5t-21 79z" />
<glyph unicode="&#x1076;" horiz-adv-x="1114" d="M112 849q0 57 34 101.5t82 70.5l44 -81q-27 -14 -47 -37.5t-20 -55.5q0 -19 7.5 -34.5t20.5 -27t29.5 -18t34.5 -6.5q27 0 52.5 19.5t49 49t45.5 64t41 64t35.5 49t28.5 19.5q112 0 197 -41t142.5 -111t86.5 -163t29 -198t-29 -198t-86.5 -163.5t-142.5 -111.5t-197 -41 q-79 0 -148 24t-124.5 67.5t-96 105t-62.5 136.5q28 46 69 79.5t90 55t102 31.5t105 10q58 0 114.5 -11.5t107.5 -35.5t94.5 -60t76.5 -86q18 48 26.5 97t8.5 100q0 76 -19.5 148.5t-59.5 131t-101.5 96.5t-144.5 44q-26 -35 -56 -81t-65.5 -86.5t-77.5 -68.5t-93 -28 q-37 0 -70.5 14t-58.5 39t-39.5 58t-14.5 70zM221 316q41 -108 127 -166t201 -58q81 0 153 30.5t122 96.5q-23 51 -59 88t-80.5 61t-95.5 36t-105 12q-72 0 -142.5 -23t-120.5 -77z" />
<glyph unicode="&#x1077;" horiz-adv-x="1126" d="M110 514q0 104 29 197t86 162.5t142 110.5t196 41t196 -41t142 -110.5t86 -162.5t29 -197q0 -73 -15.5 -151t-48.5 -149t-85 -127.5t-125 -86.5q-7 -3 -18 -3q-37 0 -59 25t-33.5 60t-15 73.5t-3.5 65.5q0 70 23 122.5t63.5 89t96.5 57.5t121 27q0 83 -22 157t-65.5 130 t-110 89t-156.5 33t-157 -33.5t-110.5 -90t-65 -131t-21.5 -157.5v-10t1 -10l223 -168q33 -25 50 -66t17 -82q0 -37 -15.5 -70t-41 -57.5t-59 -38.5t-70.5 -14q-28 0 -55.5 8t-51.5 22.5t-44 35t-33 45.5l88 45q15 -25 41 -41t55 -16q17 0 32.5 6t27.5 17t19.5 26t7.5 32 q0 15 -7 37t-20 32l-260 195q-2 18 -3 36t-1 36zM710 220q0 -30 6 -57.5t17 -56.5q41 23 71 58t51.5 76t34.5 86.5t20 89.5q-42 -6 -78.5 -20t-63.5 -38t-42.5 -58t-15.5 -80z" />
<glyph unicode="&#x1078;" horiz-adv-x="1936" d="M111 511q0 104 29 196.5t86 162t141.5 110t195.5 40.5q68 0 129.5 -17.5t113.5 -51.5t93 -83t68 -112q27 63 68 112.5t93.5 83t114.5 51.5t130 18q111 0 195.5 -41t141.5 -110.5t86 -162t29 -196.5t-29 -197t-86 -163t-141.5 -111t-195.5 -41t-196 41t-142 111t-86 163 t-29 197q0 84 -21 160t-65 133t-111 90.5t-160 33.5q-91 0 -159 -33.5t-112.5 -91t-66.5 -133t-22 -159.5t22 -160t66.5 -133.5t112 -91.5t159.5 -34q34 0 67.5 5.5t65.5 13.5l19 -90q-38 -9 -76 -15t-76 -6q-111 0 -195.5 41t-141.5 111t-86 163t-29 196zM1013 548 q0 -89 17.5 -171.5t59.5 -146t111 -101.5t172 -38q92 0 159.5 34t112 92t66.5 134t22 160t-22 160t-66.5 133t-112 91t-159.5 34q-81 0 -147 -30.5t-113.5 -82t-73.5 -121t-26 -147.5z" />
<glyph unicode="&#x1079;" horiz-adv-x="2526" />
<glyph unicode="&#x107a;" horiz-adv-x="1931" d="M111 512q0 104 29 197.5t86.5 163.5t142.5 111t197 41q140 0 245 -68t162 -196q15 -34 25.5 -69t10.5 -73q0 -27 -1.5 -54.5t-1.5 -54.5q0 -84 22.5 -159t67.5 -131.5t112.5 -89.5t157.5 -33q91 0 158.5 33.5t111.5 90.5t66 132.5t22 159.5t-22 159.5t-66 132.5 t-111.5 91t-158.5 34q-33 0 -65.5 -5t-64.5 -13l-20 95q37 9 74.5 14.5t75.5 5.5q111 0 196 -41.5t142.5 -112t87 -163.5t29.5 -197t-29.5 -197.5t-87 -163.5t-142.5 -111t-196 -41q-108 0 -201 42.5t-156 133.5v-776q0 -54 54 -54h316v-93h-370q-19 0 -36 7.5t-29.5 20 t-19.5 29.5t-7 36v1287q0 11 -3 24t-8 26.5t-10 26t-10 21.5q-48 98 -129.5 149.5t-190.5 51.5q-92 0 -160.5 -34t-113.5 -91.5t-67 -133.5t-22 -161t22 -161.5t67 -134.5t113.5 -92t160.5 -34q14 0 28.5 4t28.5 9l29 -88q-20 -8 -42 -12.5t-44 -4.5q-112 0 -197 41 t-142.5 111.5t-86.5 164t-29 197.5z" />
<glyph unicode="&#x107b;" horiz-adv-x="1941" d="M111 512q0 104 29 197t86.5 163t142.5 111t196 41q140 0 246 -68.5t161 -197.5q27 63 68.5 112t93.5 83t114 52t130 18q111 0 195.5 -41t142 -110.5t86.5 -162.5t29 -197q0 -103 -29 -196t-86.5 -163.5t-142 -111.5t-195.5 -41q-49 0 -97 8.5t-92 32.5q-9 38 -9 77 q0 78 34.5 138.5t89.5 102.5t125 64t140 22q42 0 83 -7t80 -21q4 23 5.5 47t1.5 48q0 84 -22 160t-67 133.5t-112.5 91.5t-159.5 34q-93 0 -160.5 -33.5t-111.5 -91t-65.5 -133.5t-21.5 -161q0 -104 -29 -197t-86.5 -163.5t-142.5 -111.5t-196 -41t-196 41t-142.5 111.5 t-86.5 163.5t-29 197zM203 512q0 -85 22 -161t67 -134t113 -92t160 -34q100 0 168.5 37.5t111 100t61.5 143t19 166.5q0 81 -24.5 152.5t-71 125t-113 85t-151.5 31.5q-92 0 -160 -34t-113 -91.5t-67 -134t-22 -160.5zM1272 106q26 -8 52.5 -11t53.5 -3q118 0 204.5 62 t126.5 173q-70 25 -140 25q-55 0 -108.5 -15.5t-95.5 -46t-67.5 -76.5t-25.5 -108z" />
<glyph unicode="&#x107c;" horiz-adv-x="2035" d="M112 693q25 77 64 139t93 105t122.5 66t151.5 23q101 0 181.5 -34.5t138 -95t91.5 -143.5t42 -179h42q8 96 41.5 179t91 143.5t138 95t181.5 34.5q82 0 151 -23t124 -66t94.5 -105t62.5 -139l-89 -25q-37 124 -124 195t-219 71q-82 0 -145.5 -27.5t-108.5 -75.5t-71 -114 t-34 -143q46 0 110 -1.5t136 -7t146.5 -16t141 -28.5t120 -45.5t82.5 -66.5q16 -22 27 -44t11 -50q0 -19 -5 -36.5t-13 -34.5q-27 -58 -68.5 -104t-93.5 -77t-112 -47.5t-123 -16.5q-106 0 -189 38t-140.5 103t-89.5 153.5t-37 188.5h-37q-4 -100 -35.5 -188.5t-89 -153.5 t-140 -103t-189.5 -38q-63 0 -123.5 16t-112.5 47.5t-93.5 77t-67.5 104.5q-8 17 -12.5 34.5t-4.5 36.5q0 47 26 79t61 57q40 29 92.5 49t113 33.5t125 21.5t127.5 12t122 5.5t107 1.5q-7 78 -34 144t-72.5 114t-109 75t-144.5 27q-65 0 -119.5 -19t-98 -54t-75.5 -84.5 t-50 -110.5zM221 313q0 -15 8 -29q50 -94 128.5 -143t185.5 -49q87 0 153 30.5t111.5 83.5t70 124t28.5 152q-41 0 -99.5 -1t-124 -5.5t-133.5 -13t-129 -24t-110 -38.5t-77 -56q-12 -13 -12 -31zM1129 482q4 -81 28 -152t69 -124t111 -83.5t153 -30.5q104 0 185.5 49 t128.5 143q8 14 8 31q0 15 -12 29q-29 33 -78 56.5t-109.5 38.5t-128 24t-132.5 13t-123 5t-100 1z" />
<glyph unicode="&#x107d;" horiz-adv-x="1900" d="M110 512q0 41 3.5 83t13 82.5t25.5 79t41 71.5q7 11 19 11q17 0 39.5 -18t50.5 -39t60.5 -39t68.5 -18q24 0 46 8t38.5 22t26 34.5t9.5 44.5q0 28 -10.5 48t-28.5 32.5t-41 18t-47 5.5q-17 0 -33 -2.5t-32 -9.5l-13 91q23 4 46 7.5t46 3.5q42 0 79.5 -14t65.5 -39.5 t44 -61.5t16 -80q0 -43 -17 -80t-46 -63.5t-67.5 -41.5t-80.5 -15q-55 0 -104 24t-91 58q-20 -48 -27 -99.5t-7 -103.5q0 -84 22 -160.5t66.5 -134.5t112.5 -92t160 -34q124 0 213.5 57t153.5 160q-17 50 -24.5 101.5t-7.5 103.5q0 105 29 198t86.5 163t142.5 111t197 41 q86 0 156 -24t124 -69t93 -109t63 -144l-89 -25q-20 65 -50 116.5t-72.5 87.5t-98 55.5t-126.5 19.5q-90 0 -158 -34t-113.5 -91t-68.5 -132.5t-23 -159.5q0 -32 3.5 -62.5t9.5 -61.5q82 70 186 104t211 34q47 0 97 -8.5t96.5 -26.5t87.5 -46.5t69 -69.5q11 -15 17.5 -30 t6.5 -34t-8 -40q-24 -64 -66.5 -115t-97 -87t-118.5 -55.5t-131 -19.5q-121 0 -219.5 53t-160.5 158q-77 -103 -179.5 -157t-230.5 -54q-111 0 -196 41t-142.5 111.5t-86.5 163.5t-29 197zM1036 293q45 -99 127.5 -150t190.5 -51q58 0 108 16t91 46t73.5 72t54.5 94 q-54 62 -126.5 91t-153.5 29q-101 0 -197 -38t-168 -109z" />
<glyph unicode="&#x107e;" horiz-adv-x="1900" d="M110 512q0 38 4 80.5t13.5 85t25.5 81.5t40 69q9 11 19 11q11 0 25 -8q17 -10 38.5 -28t46 -35t52 -30t57.5 -13q24 0 45.5 7.5t38 22t26.5 34.5t10 45t-9 44t-24.5 32t-36.5 19.5t-44 6.5q-20 0 -39 -3t-39 -7l-13 91q23 4 46 7.5t46 3.5q42 0 79.5 -14t65 -39.5 t44 -61.5t16.5 -80q0 -43 -17 -80t-46 -63.5t-67.5 -41.5t-80.5 -15q-55 0 -104 24t-91 58q-20 -48 -27 -99.5t-7 -103.5q0 -84 22 -160.5t66.5 -134.5t112.5 -92t160 -34q124 0 213.5 57t153.5 160q-17 50 -24.5 101.5t-7.5 103.5q0 105 29 198t86.5 163t142.5 111t197 41 q86 0 156 -24t124 -69t93 -109t63 -144l-89 -25q-20 65 -50 116.5t-72.5 87.5t-98 55.5t-126.5 19.5q-92 0 -160 -34t-113 -91.5t-67 -134t-22 -161.5q0 -61 12 -120q79 68 177.5 103.5t202.5 35.5q45 0 98 -9.5t104 -28t95 -47t70 -67.5q10 -15 17 -30t7 -34t-8 -40 q-25 -68 -68.5 -119.5t-98.5 -86.5t-118.5 -53t-130.5 -18t-133 18l-139 -596q-6 -29 -14 -58t-23 -52.5t-38.5 -38.5t-59.5 -15l-303 87l30 95l270 -82q9 0 14.5 5t9 12t5.5 15t3 14l152 654q-48 28 -85.5 66.5t-65.5 86.5q-78 -104 -179 -157.5t-231 -53.5q-111 0 -196 41 t-142.5 111.5t-86.5 163.5t-29 197zM1036 293q45 -100 127.5 -150.5t190.5 -50.5q115 0 200 60.5t127 166.5q-27 32 -61.5 54.5t-73.5 37t-80 21.5t-82 7q-101 0 -188.5 -37.5t-159.5 -108.5z" />
<glyph unicode="&#x107f;" horiz-adv-x="1146" d="M111 532q0 74 14.5 146.5t46 137.5t81 118t119.5 86q45 -22 77 -56.5t52.5 -76.5t29.5 -89t9 -95q0 -75 -25.5 -136.5t-68.5 -107t-98.5 -73.5t-115.5 -36q38 -121 125 -188.5t216 -67.5q95 0 164.5 36t114.5 96.5t67 140t22 165.5q0 62 -10.5 121.5t-34.5 112t-63.5 96 t-97.5 73.5l41 85q71 -36 120 -88.5t80 -116t45 -135.5t14 -148q0 -106 -29 -202.5t-87 -170t-144.5 -116.5t-201.5 -43t-201.5 43t-144.5 116.5t-87 170t-29 202.5zM205 532q0 -45 6 -90q65 7 112 35t76.5 69.5t42.5 92t8.5 100t-25 95t-56.5 76.5q-45 -30 -76.5 -73.5 t-51 -93.5t-28 -104.5t-8.5 -106.5z" />
<glyph unicode="&#x1080;" horiz-adv-x="1918" d="M111 341l2 6q2 4 2 6q84 70 187 103t212 33q104 0 198.5 -37.5t162.5 -118.5q15 43 21.5 88t6.5 91q0 85 -22 161t-67 133.5t-113 91.5t-160 34q-64 0 -119.5 -18.5t-99 -52.5t-75 -83t-48.5 -111l-88 25q21 75 61.5 136.5t96 105t124.5 67t148 23.5q111 0 196 -40.5 t142.5 -110.5t86.5 -163t29 -198q0 -84 22 -160t66.5 -134t112 -92t159.5 -34t159.5 34t112 91.5t66.5 133.5t22 160q0 85 -22 161.5t-67 134t-112.5 91t-158.5 33.5q-34 0 -67.5 -5.5t-66.5 -13.5l-19 90q38 9 76.5 15t76.5 6q111 0 195.5 -41t142 -111.5t86.5 -163 t29 -196.5t-29 -197t-86.5 -162.5t-142 -110.5t-195.5 -41q-140 0 -246 68.5t-161 197.5q-55 -128 -161.5 -197.5t-245.5 -69.5q-84 0 -150.5 21.5t-118.5 62.5t-90.5 100.5t-66.5 135.5q-2 5 -3 11t-1 11zM214 312q20 -54 52 -95t74.5 -69t93.5 -42.5t107 -14.5 q90 0 164.5 36.5t125.5 111.5q-54 84 -136 121t-179 37q-80 0 -157 -21.5t-145 -63.5z" />
<glyph unicode="&#x1081;" horiz-adv-x="1129" d="M-7 -684l36 93q42 -19 83.5 -37t87.5 -23q6 9 10 19t6 21l146 635q-67 33 -115 85t-78.5 115.5t-44.5 134.5t-14 142q0 105 28.5 199.5t85.5 166.5t142 114.5t198 42.5t198.5 -42.5t142.5 -114.5t85.5 -166.5t28.5 -199.5q0 -75 -15.5 -147.5t-48 -136.5t-83 -116 t-121.5 -85l-43 91q59 27 99 69.5t65 94.5t36 111t11 119q0 84 -21 160.5t-64.5 135t-110.5 93t-159 34.5q-62 0 -114.5 -17.5t-94.5 -50.5t-72.5 -80t-48.5 -105q74 0 129.5 -27t93 -73.5t56.5 -107.5t19 -130q0 -33 -4.5 -65.5t-14.5 -64.5q-4 -13 -9.5 -24.5t-8.5 -24.5 l-170 -735l-6 -26l-6 -26q-5 -23 -14 -44t-22.5 -37.5t-32.5 -26.5t-46 -10q-22 0 -48.5 7.5t-54.5 18t-54.5 22t-47.5 19.5zM210 523q0 -53 6.5 -107.5t24 -105t47 -94.5t75.5 -77q12 11 22.5 23.5t15.5 28.5h1q17 34 25.5 70.5t8.5 74.5q0 50 -15 93t-43.5 74.5t-70 49.5 t-93.5 18q-2 -12 -2.5 -24t-1.5 -24z" />
<glyph unicode="&#x1082;" d="M-848 -408q0 81 25 148.5t71 116t112 76t148 27.5h45v-90h-45q-63 0 -112.5 -20t-83.5 -57t-52 -88t-18 -113t18 -113t52 -87.5t83.5 -56.5t112.5 -20q69 0 119.5 22t83 61.5t48 94.5t15.5 120l90 -21q0 -80 -25 -147.5t-71.5 -116.5t-112 -76t-147.5 -27t-147.5 27 t-112 76t-71.5 116.5t-25 147.5z" />
<glyph unicode="&#x1083;" horiz-adv-x="340" d="M-45 905v97h200q69 0 69 -69v-1535q0 -55 55 -55h186v-97h-186q-68 0 -110 42t-42 110v1507h-172z" />
<glyph unicode="&#x1084;" horiz-adv-x="1096" d="M111 333l335 173v7l-335 178q20 77 60 138.5t96.5 104.5t126 66.5t148.5 23.5q92 0 164 -27t126.5 -76.5t92 -118.5t60.5 -154l-89 -25q-18 69 -47 126t-72 97.5t-100.5 63t-134.5 22.5q-105 0 -189 -49.5t-129 -146.5l314 -167v-119l-313 -162q45 -97 128 -147t189 -50 q77 0 134.5 22.5t100 63t71.5 97.5t47 126l89 -25q-22 -84 -60 -153t-92.5 -118.5t-126.5 -77t-163 -27.5q-79 0 -149 23.5t-126 67t-96 105t-60 138.5z" />
<glyph unicode="&#x1085;" d="M-842 1266q0 38 13 62t34.5 41.5t48.5 30.5t54 28q-27 14 -53 29.5t-47 35t-34 45t-13 59.5q0 58 29.5 96t74.5 60t97.5 30.5t98.5 8.5q55 0 108.5 -10.5t96 -36t68.5 -68t26 -106.5h-90q0 43 -20 68.5t-51 39.5t-68 18.5t-70 4.5q-24 0 -60 -3t-69 -13.5t-56.5 -31.5 t-23.5 -56q0 -17 13.5 -33t35 -31t48 -28t53 -23.5t49.5 -18t37 -10.5v-51q-20 -5 -59.5 -18.5t-80 -32.5t-70.5 -41.5t-30 -46.5q0 -37 22.5 -59t55 -33t68 -14t61.5 -3q36 0 74 2.5t69.5 15t51.5 38.5t20 74h90q0 -68 -25.5 -111t-67 -67t-95.5 -33t-111 -9q-45 0 -89 4.5 t-82.5 19t-69.5 42t-50 74.5q-12 29 -12 61z" />
<glyph unicode="&#x1086;" d="M-717 1582q0 48 14.5 87.5t42 68t66.5 44t87 15.5t86.5 -16t65.5 -44.5t41.5 -68t14.5 -86.5q0 -105 -21.5 -183.5t-65 -141t-108.5 -114t-152 -102.5l-32 55q89 49 155.5 118t99.5 167q-41 -17 -87 -17q-42 0 -79.5 16t-66 44.5t-45 68.5t-16.5 89zM-627 1582 q0 -58 30 -92t90 -34t89 35t29 92t-30 90.5t-88 33.5q-60 0 -90 -33.5t-30 -91.5z" />
<glyph unicode="&#x1087;" horiz-adv-x="541" d="M110 205q0 36 11 66.5t32 52.5t51 34.5t67 12.5t66.5 -12.5t50.5 -34.5t32 -52.5t11 -66.5q0 -146 -58.5 -257.5t-186.5 -186.5l-20 34q74 43 116.5 109.5t59.5 148.5q-35 -16 -72 -16q-32 0 -61 12t-51 34.5t-35 53.5t-13 68zM192 205q0 -38 19.5 -60.5t59.5 -22.5 q34 0 54.5 18.5t23.5 52.5q0 20 -3.5 37.5t-12.5 30t-24 20t-38 7.5q-39 0 -59 -22.5t-20 -60.5z" />
<glyph unicode="&#x1088;" horiz-adv-x="541" d="M110 205q0 36 11 66.5t32 52.5t51 34.5t67 12.5t66.5 -12.5t50.5 -34.5t32 -52.5t11 -66.5q0 -146 -58.5 -257.5t-186.5 -186.5l-20 34q74 43 116.5 109.5t59.5 148.5q-35 -16 -72 -16q-32 0 -61 12t-51 34.5t-35 53.5t-13 68zM110 827q0 36 11 66.5t32 52.5t51 34.5 t67 12.5t66.5 -12.5t50.5 -34.5t32 -52.5t11 -66.5t-11 -66.5t-32 -52.5t-50.5 -34.5t-66.5 -12.5t-67 12.5t-51 34.5t-32 52.5t-11 66.5zM192 205q0 -38 19.5 -60.5t59.5 -22.5q34 0 54.5 18.5t23.5 52.5q0 20 -3.5 37.5t-12.5 30t-24 20t-38 7.5q-39 0 -59 -22.5 t-20 -60.5zM192 827q0 -38 19.5 -61t59.5 -23q39 0 58.5 23t19.5 61t-19.5 61t-58.5 23q-40 0 -59.5 -23t-19.5 -61z" />
<glyph unicode="&#x1089;" horiz-adv-x="501" d="M90 183q0 36 11 66.5t32 52.5t51 34.5t67 12.5t66.5 -12.5t50.5 -34.5t32 -52.5t11 -66.5t-11 -66.5t-32 -52.5t-50.5 -34.5t-66.5 -12.5t-67 12.5t-51 34.5t-32 52.5t-11 66.5zM173 183q0 -38 19.5 -60t58.5 -22t58 22.5t19 59.5t-19.5 59.5t-57.5 22.5q-39 0 -58.5 -22 t-19.5 -60z" />
<glyph unicode="&#x108a;" horiz-adv-x="672" d="M110 205q0 36 11 66.5t32 52.5t51 34.5t67 12.5t66.5 -12.5t50.5 -34.5t32 -52.5t11 -66.5q0 -14 -0.5 -22t-4.5 -21q22 11 43.5 30.5t39 46.5t28.5 60t11 71l53 1q0 -70 -24 -130.5t-67.5 -105.5t-104 -70.5t-134.5 -25.5q-37 0 -67 12.5t-51 34.5t-32 52.5t-11 66.5z M110 842q0 36 11 66.5t32 52.5t51 34.5t67 12.5t66.5 -12.5t50.5 -34.5t32 -52.5t11 -66.5q0 -14 -0.5 -22t-4.5 -21q22 11 43.5 30.5t39 46.5t28.5 60t11 71l53 1q0 -70 -24 -130.5t-67.5 -105.5t-104 -70.5t-134.5 -25.5q-37 0 -67 12.5t-51 34.5t-32 52.5t-11 66.5z M186 205q0 -44 20 -65t58 -24q5 -1 9 -1h9q20 0 33.5 7.5t22.5 20t13 29t4 33.5q0 41 -21 65.5t-63 24.5q-43 0 -64 -24t-21 -66zM186 842q0 -44 20 -65t58 -24q5 -1 9 -1h9q20 0 33.5 7.5t22.5 20t13 29t4 33.5q0 41 -21 65.5t-63 24.5q-43 0 -64 -24t-21 -66z" />
<glyph unicode="&#x108b;" horiz-adv-x="709" />
<glyph unicode="&#x108c;" horiz-adv-x="1339" />
<glyph unicode="&#x108d;" horiz-adv-x="682" />
<glyph unicode="&#x1090;" horiz-adv-x="1156" d="M110 711q0 79 7 163.5t25 165t51 152.5t85 126t126 85.5t174 31.5t174 -31.5t126 -86t84.5 -126t51 -152t25.5 -165t7 -163.5t-7 -163t-25.5 -165t-51.5 -153t-85 -126t-125.5 -86t-173.5 -32t-174 31.5t-126 86t-84.5 126.5t-51 152.5t-25.5 165t-7 163.5zM207 711 q0 -63 4 -134.5t17.5 -141t38.5 -133t66 -112t101 -77.5t144 -29q83 0 143 29t101 77.5t66 112t38 133.5t17.5 141t4.5 134t-4 134t-17.5 140.5t-38.5 133t-66 112t-101 77.5t-143 29q-84 0 -144 -28.5t-101 -77t-66 -112t-38.5 -133t-17.5 -140.5t-4 -135z" />
<glyph unicode="&#x1091;" horiz-adv-x="741" d="M62 1215v106l298 129l63 -48l1 -1291l270 130v-108l-270 -130l-97 -3l-1 1329z" />
<glyph unicode="&#x1092;" horiz-adv-x="1204" d="M27 1079l80 55l99 -144q-8 101 22.5 186.5t90.5 148t144.5 98t184.5 35.5q98 0 182 -35.5t145.5 -97t97 -145.5t35.5 -182q0 -91 -23 -163.5t-60.5 -131.5t-85.5 -107t-97.5 -89t-97.5 -78t-85.5 -74.5t-60.5 -77t-23 -86.5q0 -42 15.5 -81t38.5 -73l-81 -52 q-31 47 -52 100t-21 110q0 56 23 103t60.5 89.5t86 82.5t98.5 82t98.5 87.5t86 99.5t60.5 117.5t23 141.5t-27.5 144.5t-76 115.5t-115 77t-144.5 28q-75 0 -139 -24t-110.5 -68.5t-73 -107t-26.5 -139.5q0 -45 10 -89.5t27 -86.5l-114 -50z" />
<glyph unicode="&#x1093;" horiz-adv-x="1137" d="M101 0q0 237 47.5 430t136.5 361.5t217 324.5t289 319h139q-69 -68 -137.5 -138t-132.5 -143.5t-123.5 -150.5t-110.5 -160q35 13 70.5 18.5t72.5 5.5q106 0 182 -42.5t128 -112.5t83.5 -160.5t48 -187t21.5 -191.5t5 -173h-98q0 62 -3 143.5t-15 166.5t-36 167.5 t-65 147.5t-102.5 104.5t-148.5 39.5q-88 0 -154.5 -43t-104.5 -114q-19 -34 -34.5 -82.5t-27.5 -103.5t-21.5 -114t-15.5 -115.5t-9 -107.5t-3 -89h-98z" />
<glyph unicode="&#x1094;" horiz-adv-x="1368" d="M60 0l731 1436l130 -1l76 -1316l324 89v-101l-415 -114l-74 1307l-663 -1300h-109z" />
<glyph unicode="&#x1095;" horiz-adv-x="1156" d="M100 430q0 97 34 176t93.5 135.5t140.5 87t176 30.5h332v575h100v-575h119v-100h-119v-326q0 -433 -433 -433q-95 0 -176 31t-140.5 87.5t-93 136t-33.5 175.5zM200 430q0 -74 26.5 -135t72.5 -104.5t108.5 -67t135.5 -23.5q88 0 151 19t103.5 59.5t59.5 103.5t19 151 v326h-332q-73 0 -135.5 -23.5t-109 -66.5t-73 -103.5t-26.5 -135.5z" />
<glyph unicode="&#x1096;" horiz-adv-x="1151" d="M100 1026q0 97 33 177.5t92 138.5t140 90.5t178 32.5q221 0 327 -112.5t106 -330.5v-335h119v-100h-119v-587h-100v587h-332q-97 0 -178.5 32t-140.5 90t-92 139t-33 178zM200 1026q0 -75 26 -137.5t71.5 -107t108.5 -69.5t138 -25h332v335q0 89 -18.5 153.5t-58 106.5 t-103 62.5t-153.5 20.5q-75 0 -137.5 -25t-108.5 -70t-71.5 -107t-25.5 -137z" />
<glyph unicode="&#x1097;" horiz-adv-x="1048" d="M100 13v97l733 1205h-733v98h847v-98q-1 -1 -16 -25.5t-40.5 -67t-60.5 -99.5t-75.5 -124t-85 -141t-90.5 -149q-161 -264 -364 -599h732v-97h-847z" />
<glyph unicode="&#x1098;" horiz-adv-x="1147" d="M100 1071q0 66 14 123t44 103.5t76.5 81t110.5 55.5l30 -91q-50 -16 -84 -42t-55 -60.5t-30.5 -77t-9.5 -92.5q0 -91 28 -149t77.5 -91.5t117.5 -46t147 -12.5t147 12.5t117.5 46t77.5 91.5t28 149q0 50 -9 93t-30 77.5t-55.5 60t-84.5 41.5l28 91q66 -20 112.5 -54.5 t76.5 -81t43.5 -104t13.5 -123.5q0 -58 -10.5 -110.5t-34.5 -97t-62 -80.5t-92 -60q54 -26 91 -63.5t60.5 -83t33.5 -98.5t10 -110q0 -111 -33.5 -189t-94 -126.5t-145.5 -70.5t-188 -22t-188 22t-145.5 70.5t-94 126.5t-33.5 189q0 57 10 110t33.5 98.5t61 83t91.5 62.5 q-55 25 -93 61t-62 80.5t-35 97t-11 110.5zM201 368q0 -91 26 -151t74 -96t115.5 -50.5t149.5 -14.5q83 0 150 14.5t115 50t74 96t26 151.5q0 92 -26.5 151t-74.5 94t-115 48.5t-149 13.5t-149 -14t-115 -48.5t-74.5 -94t-26.5 -150.5z" />
<glyph unicode="&#x1099;" horiz-adv-x="1157" d="M110 371q0 57 10 110t33.5 99t60.5 84t91 63q-51 23 -87.5 57.5t-59 77t-33 92t-10.5 103.5q0 106 34 178.5t94 116.5t142 63.5t178 19.5t178 -19.5t142 -63.5t94.5 -116.5t34.5 -178.5q0 -54 -10.5 -103.5t-33 -92t-59 -77t-87.5 -57.5q54 -25 91 -63t60.5 -84t33.5 -99 t10 -110q0 -65 -13 -123t-41.5 -106t-74.5 -84.5t-111 -57.5l-29 88q50 16 84 44t54.5 64.5t29 81t8.5 93.5q0 91 -25.5 150.5t-72.5 95t-113.5 50t-149.5 14.5q-82 0 -148 -14.5t-113 -50.5t-72.5 -95.5t-25.5 -149.5q0 -48 8.5 -92.5t29 -81t54 -64.5t82.5 -45l-29 -88 q-65 22 -110.5 58t-74 84t-41.5 106t-13 123zM209 1057q0 -87 27 -141.5t75 -86t112.5 -43t139.5 -11.5t140 11.5t113 43t75.5 86t27.5 141.5q0 86 -27.5 141.5t-75.5 87t-113 43.5t-140 12t-140 -12t-112.5 -43.5t-74.5 -87t-27 -141.5z" />
<glyph unicode="&#x109a;" horiz-adv-x="709" />
<glyph unicode="&#x109b;" horiz-adv-x="711" />
<glyph unicode="&#x109c;" horiz-adv-x="889" />
<glyph unicode="&#x109d;" horiz-adv-x="682" />
</font>
</defs>
</svg>
