<?xml version="1.0" standalone="no"?>
<!DOCTYPE svg PUBLIC "-//W3C//DTD SVG 1.1//EN" "http://www.w3.org/Graphics/SVG/1.1/DTD/svg11.dtd" >
<svg xmlns="http://www.w3.org/2000/svg" xmlns:xlink="http://www.w3.org/1999/xlink" version="1.1">
<metadata></metadata>
<defs>
<font id="aj_13extra_light" horiz-adv-x="0" >
<font-face units-per-em="2048" ascent="1638" descent="-410" />
<missing-glyph horiz-adv-x="659" />
<glyph unicode="&#x107a;&#x102f;" horiz-adv-x="1925" d="M107 512q0 105 30 198.5t88 163t143.5 110.5t197.5 41q142 0 247.5 -68t164.5 -197q20 -44 28.5 -77.5t10.5 -67.5q1 -33 -1 -72.5t-1 -95.5q0 -10 3 -25t7 -30.5t8.5 -30t7.5 -25.5q38 -109 117 -167t200 -58q88 0 152.5 32.5t107 88t63.5 128.5t21 153q0 81 -21 154 t-63.5 128.5t-107 88.5t-152.5 33q-32 0 -63.5 -5t-62.5 -12l-22 108q36 8 73 13.5t75 5.5q6 0 9 -1q110 -1 194 -42.5t141 -111.5t86 -162.5t29 -196.5q0 -105 -30 -198t-88 -163t-143.5 -110.5t-197.5 -40.5q-103 0 -192 38.5t-152 120.5v-746q0 -27 10.5 -41t38.5 -14 q45 -1 96.5 -0.5t92.5 0.5v-106h-248q-2 0 -3.5 0.5t-3.5 0.5q-19 1 -36 9t-29.5 21t-20 30.5t-7.5 37.5v1279q0 10 -3 23t-7.5 26t-10 25t-9.5 21q-47 95 -124.5 144t-183.5 49q-89 0 -154.5 -33t-109 -89t-64.5 -129.5t-21 -155.5t21.5 -155.5t64.5 -129t107.5 -87.5 t151.5 -32q15 0 30 3.5t29 8.5l33 -105q-21 -8 -43 -12.5t-45 -4.5q-112 0 -197.5 41t-143.5 111t-88 163.5t-30 198.5zM1425 -42h115v-601h206v-110h-261q-28 0 -44 14.5t-16 43.5v653z" />
<glyph unicode="&#x107a;&#x1030;" horiz-adv-x="1925" d="M107 512q0 104 29 196.5t86 162.5t141.5 111.5t194.5 42.5q60 0 116 -12t106 -37t92.5 -63t74.5 -91q31 -51 45.5 -107.5t19.5 -117.5q1 -11 1 -21t1 -21v-92v-16q7 -72 33 -133.5t69.5 -106.5t104.5 -70.5t137 -25.5q88 0 152.5 32.5t107 88t63.5 128.5t21 153 q0 81 -21 154t-63.5 128.5t-107 88.5t-152.5 33q-32 0 -63.5 -5t-62.5 -12l-22 108q39 9 77.5 14t78.5 5q110 -1 194 -43t141 -112t86.5 -162.5t29.5 -196.5q0 -105 -30 -198t-88 -163t-143.5 -110.5t-197.5 -40.5q-103 0 -192 38.5t-152 120.5v-711v-42q0 -24 12 -36 q14 -11 40 -11l176 -1v-106h-238q-2 0 -3.5 0.5t-3.5 0.5q-19 1 -36 9t-29.5 21t-20 30.5t-7.5 37.5v1112q0 45 -1 89.5t-7 89.5q-9 63 -38 114t-72.5 87t-99.5 55.5t-120 19.5q-89 0 -154.5 -33t-109 -89t-64.5 -129.5t-21 -155.5q0 -83 21.5 -156.5t64 -128.5t107.5 -87 t152 -32q15 0 30 3.5t29 8.5l33 -105q-21 -8 -43 -12.5t-45 -4.5q-112 0 -197.5 41t-143.5 111t-88 163.5t-30 198.5zM1300 -42h115v-708h-115v708zM1550 -42h115v-601h206v-110h-261q-28 0 -44 14.5t-16 43.5v653z" />
<glyph unicode="&#x107a;&#x102d;&#x102f;" horiz-adv-x="1924" d="M107 512q0 105 30 198.5t88 163t143.5 110.5t197.5 41q138 0 244.5 -66t163.5 -191q18 -38 28.5 -79.5t10.5 -84.5q0 -26 0.5 -52t1.5 -52q5 -76 23 -146t57 -124t103 -86.5t160 -32.5q88 0 152.5 32.5t107 88t63.5 128.5t21 153q0 81 -21 154t-63.5 128.5t-107 88.5 t-152.5 33q-32 0 -63.5 -5t-62.5 -12l-22 108q36 8 73 13.5t75 5.5q111 0 197 -41t144 -111t88 -163.5t30 -198.5t-30 -198t-88 -163t-143.5 -110.5t-197.5 -40.5q-103 0 -192 38.5t-152 120.5v-711v-44q0 -23 12 -35q14 -11 42 -11h184v-106h-248q-2 0 -3.5 0.5t-3.5 0.5 q-19 1 -36 9t-29.5 21t-20 30.5t-7.5 37.5v1279q0 24 -9.5 48.5t-20.5 46.5q-48 91 -126 142t-182 51q-89 0 -154.5 -33t-109 -89t-64.5 -129.5t-21 -155.5q0 -81 20.5 -154t63.5 -128.5t108 -88t153 -33.5q13 0 29 3.5t30 8.5l33 -105q-21 -8 -43 -12.5t-45 -4.5 q-112 0 -197.5 41t-143.5 111t-88 163.5t-30 198.5zM1002 1434q0 78 24.5 145.5t71 118t114 79.5t154.5 29t155 -29t114.5 -79.5t70.5 -118.5t24 -145t-24 -145t-70.5 -118.5t-114.5 -79.5t-155 -29t-154.5 29t-114 79.5t-71 118t-24.5 145.5zM1110 1434q0 -59 17 -108.5 t49.5 -85t80.5 -55.5t109 -20q62 0 109.5 20t80 55.5t49.5 85t17 108.5t-17 108.5t-49.5 85t-80 55.5t-109.5 20q-61 0 -109 -19.5t-80.5 -55t-49.5 -85t-17 -109.5zM1425 -42h115v-601h206v-110h-261q-32 0 -46 16.5t-14 41.5v653z" />
<glyph unicode="&#x107a;&#x102d;&#x1030;" horiz-adv-x="1925" d="M107 512q0 105 30 198.5t88 163t143.5 110.5t197.5 41q68 0 130 -17.5t114.5 -50.5t95 -81.5t70.5 -110.5q11 -24 18 -42.5t11.5 -35t6.5 -32t2 -32.5q1 -22 -0.5 -48.5t-2.5 -64.5q0 -80 21.5 -152.5t64.5 -127t108.5 -87t152.5 -32.5q88 0 152.5 32.5t107 88 t63.5 128.5t21 153q0 81 -21 154t-63.5 128.5t-107 88.5t-152.5 33q-32 0 -63.5 -5t-62.5 -12l-22 108q36 8 73 13.5t75 5.5q112 0 197.5 -41t143.5 -111t88 -163.5t30 -198.5t-30 -198t-88 -163t-143.5 -110.5t-197.5 -40.5q-103 0 -192 38.5t-152 120.5v-755q0 -26 12 -36 t41 -10h175v-106h-238q-2 0 -3.5 0.5t-3.5 0.5q-19 1 -36 9t-29.5 21t-20 30.5t-7.5 37.5v1279q0 10 -3 23t-7.5 26t-10 25t-9.5 21q-47 94 -124.5 143.5t-183.5 49.5q-89 0 -154.5 -33t-109 -89t-64.5 -129.5t-21 -155.5q0 -83 21.5 -156.5t64 -128.5t107.5 -87t152 -32 q15 0 30 3.5t29 8.5l33 -105q-21 -8 -43 -12.5t-45 -4.5q-112 0 -197.5 41t-143.5 111.5t-88 163.5t-30 198zM1002 1434q0 82 26 150.5t73.5 117.5t114.5 76.5t150 27.5t150 -27.5t114.5 -77t73.5 -117.5t26 -150t-26 -150t-73.5 -117.5t-114.5 -77t-150 -27.5t-150 27.5 t-114.5 76.5t-73.5 117.5t-26 150.5zM1110 1434q0 -60 17 -109.5t50 -85t80.5 -55t108.5 -19.5t108.5 20t80.5 55.5t50 85t17 108.5t-17 108.5t-50 85t-80.5 55.5t-108.5 20t-108.5 -19.5t-80.5 -55t-50 -85t-17 -109.5zM1300 -42h115v-708h-115v708zM1550 -42h115v-601h206 v-110h-261q-28 0 -44 14.5t-16 43.5v653z" />
<glyph unicode="&#x107a;&#x103d;" horiz-adv-x="1925" d="M107 512q0 105 30 198.5t88 163.5t143.5 110.5t197.5 40.5q140 0 247.5 -68t164.5 -197q5 -10 11 -26.5t11.5 -34.5t9.5 -35t4 -27v-182q9 -74 34 -137t67 -109t102 -72t141 -26q88 0 152.5 32.5t107 88t63.5 128t21 153.5t-21 154.5t-63.5 129t-107 88t-152.5 32.5 q-33 0 -64 -5t-62 -12l-22 108q36 8 73 13.5t75 5.5q111 0 197 -41t144 -111t88 -163.5t30 -198.5t-30 -198t-88 -163t-143.5 -110.5t-197.5 -40.5q-114 0 -200 42t-144 117v-755q0 -46 45 -46h73v-106h-128q-20 0 -38.5 7.5t-32 21t-21.5 31.5t-8 39v1279q0 7 -3.5 20 t-8.5 27.5t-10 27.5t-8 20q-45 95 -123.5 144t-184.5 49q-89 0 -154.5 -33t-109 -88.5t-64.5 -129.5t-21 -156t20.5 -155t63.5 -128t108 -87.5t153 -33.5q13 0 29 3.5t30 8.5l33 -105q-21 -7 -43 -12t-45 -5q-112 0 -197.5 41t-143.5 111t-88 163.5t-30 198.5zM1099 -401 q0 75 23.5 141t68.5 115t111 77t151 28q84 0 150 -28.5t111 -77t68.5 -114.5t23.5 -141t-23.5 -141t-68.5 -114.5t-111 -77t-150 -28.5q-85 0 -151 28t-111 77t-68.5 115t-23.5 141zM1210 -401q0 -56 16 -103t47 -81t76.5 -52.5t103.5 -18.5q59 0 104 18.5t75.5 52.5 t46.5 81t16 103t-16 103t-46.5 80.5t-75.5 52t-104 18.5q-58 0 -103.5 -18.5t-76.5 -52t-47 -80.5t-16 -103z" />
<glyph unicode="&#x1081;&#x1082;&#x103a;" horiz-adv-x="1130" d="M-17 -682l41 106q42 -18 83 -36t86 -25q10 19 15 42l145 622q-66 33 -113 85t-77 115t-44 133.5t-14 140.5q0 106 29 201t87 166.5t143.5 113.5t199.5 42t200 -42t143.5 -113.5t87 -166.5t29.5 -201q0 -76 -15.5 -148t-48.5 -135.5t-84 -115t-122 -85.5l-59 99 q58 27 98.5 67.5t65.5 91t36 108.5t11 118q0 81 -20 155t-62 130.5t-106.5 90.5t-153.5 34q-117 0 -198 -63.5t-117 -172.5q72 -2 127 -30t92 -74t55.5 -107t18.5 -129t-19 -129q-4 -13 -9.5 -24.5t-8.5 -23.5l-174 -744q-6 -27 -14.5 -56.5t-23.5 -54t-38 -40t-58 -15.5 q-25 0 -53 7t-56 17.5t-55 23t-50 22.5zM225.5 453q4.5 -58 21 -113t46 -103t74.5 -82q18 17 31 39.5t21 47t11.5 51t3.5 50.5q0 47 -14.5 87t-41 70t-64.5 47t-87 18q-6 -54 -1.5 -112zM227 1426q0 81 25.5 148t72.5 116t113 76t148 27q81 0 147.5 -27t113.5 -76t73 -116.5 t26 -147.5l-107 -23q0 62 -14.5 115t-45 91.5t-78.5 60t-115 21.5q-60 0 -107 -19.5t-79.5 -54.5t-49 -83.5t-16.5 -107.5t16.5 -108t49 -84t79.5 -54.5t107 -19.5h51v-102h-51q-82 0 -148.5 27t-113 75.5t-72 116.5t-25.5 149zM443 -396q0 81 25.5 148.5t72.5 116.5 t113.5 76t148.5 27h51v-103h-51q-61 0 -108 -19.5t-79 -54.5t-49 -83.5t-17 -107.5t17 -107.5t49 -83.5t79 -54.5t108 -19.5q67 0 114.5 21.5t78.5 60t45 91.5t14 115l108 -23q0 -80 -26 -147.5t-73 -116.5t-113.5 -76t-147.5 -27q-82 0 -148.5 27t-113.5 75.5t-72.5 116 t-25.5 148.5z" />
<glyph unicode="&#x1081;&#x1082;" horiz-adv-x="1130" d="M-17 -682l41 106q42 -18 83 -36t86 -25q10 19 15 42l145 622q-66 33 -113 85t-77 115t-44 133.5t-14 140.5q0 106 29 201t87 166.5t143.5 113.5t199.5 42t200 -42t143.5 -113.5t87 -166.5t29.5 -201q0 -76 -15.5 -148t-48.5 -135.5t-84 -115t-122 -85.5l-59 99 q58 27 98.5 67.5t65.5 91t36 108.5t11 118q0 81 -20 155t-62 130.5t-106.5 90.5t-153.5 34q-117 0 -198 -63.5t-117 -172.5q72 -2 127 -30t92 -74t55.5 -107t18.5 -129t-19 -129q-4 -13 -9.5 -24.5t-8.5 -23.5l-174 -744q-6 -27 -14.5 -56.5t-23.5 -54t-38 -40t-58 -15.5 q-25 0 -53 7t-56 17.5t-55 23t-50 22.5zM225.5 453q4.5 -58 21 -113t46 -103t74.5 -82q18 17 31 39.5t21 47t11.5 51t3.5 50.5q0 47 -14.5 87t-41 70t-64.5 47t-87 18q-6 -54 -1.5 -112zM467 -408q0 81 25.5 149t72.5 116.5t113.5 75.5t148.5 27h51v-102h-51 q-60 0 -107.5 -19.5t-79.5 -54.5t-49 -84t-17 -108t17 -107.5t49 -83.5t79 -54.5t108 -19.5q67 0 115 21.5t78.5 60t45 91.5t14.5 115l107 -23q0 -80 -26 -147.5t-73 -116.5t-113.5 -76t-147.5 -27q-82 0 -148.5 27t-113.5 76t-72.5 116t-25.5 148z" />
<glyph unicode="&#x103b;&#x103d;" horiz-adv-x="299" d="M-883 -398q0 78 24.5 143.5t70 112t109.5 72.5t143 26q78 0 141 -25.5t108 -70.5t70 -108t27 -138q2 -38 -4 -72l270 -169v1639h117v-1769h-118l-302 187q-45 -92 -127 -137t-182 -45q-79 0 -143 26t-109.5 72.5t-70 112t-24.5 143.5zM-776 -398q0 -56 16 -102t47 -79 t75.5 -51.5t101.5 -18.5t101.5 18.5t75 51.5t46.5 79t16 102q0 55 -16 101.5t-46.5 79.5t-75 51.5t-101.5 18.5t-101.5 -18.5t-75.5 -51.5t-47 -79.5t-16 -101.5z" />
<glyph unicode="&#xd;" horiz-adv-x="682" />
<glyph unicode="&#xa;" horiz-adv-x="682" />
<glyph horiz-adv-x="682" />
<glyph unicode=" "  horiz-adv-x="659" />
<glyph unicode="&#x09;" horiz-adv-x="659" />
<glyph unicode="&#xa0;" horiz-adv-x="659" />
<glyph unicode="!" horiz-adv-x="750" d="M247 110q0 42 26.5 70.5t77.5 28.5q50 0 76 -29t26 -70q0 -42 -26 -71.5t-76 -29.5q-51 0 -77.5 29.5t-26.5 71.5zM263 1440h174l-43 -1071h-89z" />
<glyph unicode="&#x22;" horiz-adv-x="695" d="M127 1401h154l-33 -418h-87zM379 1401h154l-33 -418h-87z" />
<glyph unicode="#" horiz-adv-x="1439" d="M82 487v114h321l75 293h-291v114h321l99 382h124l-99 -382h282l98 382h124l-99 -382h287v-114h-316l-76 -293h286v-114h-316l-126 -487h-123l125 487h-281l-126 -487h-124l126 487h-291zM527 601h281l76 293h-282z" />
<glyph unicode="$" horiz-adv-x="1127" d="M85 463l117 -2q0 -72 10 -128.5t38.5 -95.5t80.5 -59.5t137 -20.5v549q-17 2 -34.5 4.5t-34.5 5.5q-61 11 -111.5 38.5t-86 69t-55 95t-19.5 117.5q0 76 25.5 138t71.5 107.5t108.5 72.5t135.5 32v156h116v-153q185 -8 278.5 -111.5t99.5 -285.5l-118 -2q-1 64 -16 115 t-46 88t-80 58t-118 25v-471q40 -5 79.5 -9.5t79.5 -11.5q70 -12 124.5 -43t91.5 -77.5t56.5 -106.5t19.5 -131q0 -78 -25 -147.5t-71 -121.5t-112 -82.5t-147 -30.5h-95v-200h-116v201q-109 2 -183 29t-118.5 79.5t-63.5 130t-19 179.5zM239 1038q0 -41 12.5 -76.5t35 -63 t55.5 -46.5t73 -26q13 -2 26.5 -4t27.5 -4v455q-49 -4 -91.5 -22t-73 -48t-48 -72t-17.5 -93zM584 691l1 -535h95q56 0 100.5 22.5t75.5 60t47 86.5t16 101q0 97 -48.5 162.5t-142.5 83.5q-35 6 -71.5 10.5t-72.5 8.5z" />
<glyph unicode="%" horiz-adv-x="1698" d="M166 1086q0 63 15 127t47.5 116t84 85t124.5 33t124.5 -33t84.5 -85t48 -116t15 -127t-15 -127t-48 -116t-84.5 -85t-124.5 -33t-124.5 33t-84 85t-47.5 116t-15 127zM280 0l892 1437h139l-891 -1437h-140zM284 1086q0 -35 7 -78.5t24.5 -81.5t47 -63.5t74.5 -25.5 t74.5 26t47.5 64t25 81t7 78t-7 78t-25 81t-47.5 64t-74.5 26t-74.5 -26t-47 -64t-24.5 -81t-7 -78zM883 378q0 63 15 127t48 116.5t85 85.5t125 33t124.5 -33t84.5 -85.5t48 -116.5t15 -127t-15 -127.5t-48 -117t-84.5 -85.5t-124.5 -33t-125 33t-85 85.5t-48 117 t-15 127.5zM1002 378q0 -35 7 -78.5t25 -81.5t47.5 -64t74.5 -26t74.5 26t47.5 64t25 81.5t7 78.5t-7 78t-25 81t-47.5 64t-74.5 26t-74.5 -26t-47.5 -64t-25 -81t-7 -78z" />
<glyph unicode="&#x26;" horiz-adv-x="1308" d="M83 376q0 81 30.5 140.5t79.5 105t111 81t125 66.5q-37 36 -71.5 71.5t-61.5 74.5t-43.5 84.5t-16.5 101.5q0 75 25.5 137t71 107t108.5 70t137 25t136 -25.5t106.5 -70.5t69.5 -107t25 -136q0 -71 -24 -126.5t-64.5 -99t-94 -77.5t-111.5 -62l367 -401q14 36 19 78 q6 60 -7 117t-44 108h134q19 -44 29 -89.5t10 -93.5q1 -57 -12.5 -112t-39.5 -105l218 -238h-159l-129 141q-41 -44 -91.5 -76.5t-106 -53.5t-115 -31.5t-118.5 -10.5q-57 0 -115.5 12.5t-113.5 36.5t-103 59.5t-84 80.5t-56.5 100t-20.5 118zM204 377q0 -59 27 -108.5 t69.5 -86.5t96 -60.5t106.5 -31.5q39 -6 76 -6q48 0 96.5 8.5t94 26.5t85.5 45t72 64l-415 454l-102 -51t-100 -62.5t-76 -82t-30 -109.5zM355 1101q0 -45 18 -83t45 -71.5t59.5 -63t61.5 -58.5q45 21 90.5 45t82.5 56t60 74.5t23 100.5q0 48 -15.5 89t-44 71.5t-68.5 47.5 t-89 17t-90 -17t-70.5 -47t-46 -71.5t-16.5 -89.5z" />
<glyph unicode="'" horiz-adv-x="437" d="M127 1402h158l-33 -420h-91z" />
<glyph unicode="(" horiz-adv-x="790" d="M177 573q0 123 20 252t63.5 251t112.5 230.5t167 190.5l75 -89q-87 -72 -148 -170.5t-98.5 -210t-54.5 -228.5t-17 -225q0 -99 14.5 -208t48 -212.5t88 -196t134.5 -158.5l-75 -88q-91 76 -154 177t-102 215t-56.5 235t-17.5 235z" />
<glyph unicode=")" horiz-adv-x="790" d="M174 1408l75 89q99 -83 168 -191t112.5 -229.5t63 -250t19.5 -253.5q0 -115 -17 -235.5t-56 -234.5t-102 -215t-155 -177l-75 88q80 67 135 159t88.5 195.5t48 212t14.5 208.5q0 110 -17 226.5t-55 227.5t-98.5 209t-148.5 171z" />
<glyph unicode="*" horiz-adv-x="1031" d="M196 1230l74 103l207 -164l-24 256h138l-20 -254l193 172l76 -101l-232 -156l252 -148l-80 -95l-209 163l20 -253l-130 -1l14 252l-201 -177l-76 96l240 163z" />
<glyph unicode="+" horiz-adv-x="1302" d="M162 522v114h429v428h120v-428h430v-114h-430v-428h-120v428h-429z" />
<glyph unicode="," horiz-adv-x="530" d="M128 -192q20 21 41.5 46.5t40.5 54t32 59t17 61.5q-39 4 -62 30.5t-23 66.5q0 45 28 71t72 26q45 0 73.5 -26t28.5 -71q0 -52 -14 -96t-39 -82t-57.5 -72.5t-70.5 -67.5h-67z" />
<glyph unicode="-" horiz-adv-x="1083" d="M162 525v114h744v-114h-744z" />
<glyph unicode="." horiz-adv-x="481" d="M129 106q0 45 28 76.5t82 31.5q53 0 81.5 -31.5t28.5 -76.5q0 -22 -7.5 -42t-21.5 -35t-34.5 -23.5t-46.5 -8.5q-27 0 -47.5 8.5t-34.5 23.5t-21 35t-7 42z" />
<glyph unicode="/" horiz-adv-x="854" d="M100 0l603 1437h126l-602 -1437h-127z" />
<glyph unicode="0" horiz-adv-x="1197" d="M123 713q0 81 7 166t26 165.5t52.5 152t86.5 125t128 85t176 31.5t175.5 -31.5t127.5 -85t86.5 -125t53 -152t26.5 -165.5t7 -166q0 -80 -7 -165.5t-26.5 -166t-53 -152.5t-86.5 -126t-127.5 -85.5t-175.5 -31.5t-176 31.5t-127.5 85.5t-86 125.5t-53 152.5t-26.5 166 t-7 166zM239 713q0 -62 4 -131.5t17 -138t37 -131t64 -110t98.5 -76t139.5 -28.5t139 28.5t98 76.5t63.5 110.5t36.5 131t17 138t4 130.5q0 62 -4 131t-17 137t-36.5 130.5t-63.5 110t-98 76t-139 28.5t-139.5 -28t-98.5 -75.5t-64 -110t-37 -130.5t-17 -137.5t-4 -131.5z " />
<glyph unicode="1" horiz-adv-x="785" d="M117 1113v112q65 0 116.5 12.5t93.5 37t76.5 61t64.5 83.5l117 1v-1420h-116v1237q-72 -65 -157.5 -94.5t-194.5 -29.5z" />
<glyph unicode="2" horiz-adv-x="1156" d="M123 1021q0 99 35.5 179.5t96.5 136.5t142.5 86.5t172.5 30.5q95 0 179 -34t147 -95.5t99.5 -146.5t36.5 -186q0 -106 -29.5 -182t-79 -132.5t-113 -98t-132 -77.5t-136.5 -71t-125.5 -78t-99.5 -100t-59 -136l718 1v-113l-841 -1v30q0 112 33.5 192t88.5 138.5 t125.5 102t144 81.5t144 77t125.5 89t88.5 117t33.5 161q0 77 -27.5 141t-74.5 110t-110.5 72t-135.5 26q-69 0 -129.5 -22t-106 -63t-72 -101t-26.5 -135q0 -23 2.5 -46t7.5 -46l-111 -21q-12 56 -12 114z" />
<glyph unicode="3" horiz-adv-x="1174" d="M113 409l114 -5q-3 -85 19.5 -144t67.5 -96t109.5 -54t144.5 -18q93 -1 160 25.5t110 72t63.5 104.5t20.5 122q0 47 -17 100.5t-54 99.5t-95 78t-141 36h-147v114h178q64 6 109 29.5t73.5 56t40.5 70.5t9 72q1 53 -16 98t-53.5 78t-93.5 52t-136 19q-93 0 -150 -19.5 t-87.5 -51.5t-40 -74t-7.5 -87l-113 -6q-4 80 18 145t70.5 111t125.5 71t184 25t185 -29t128.5 -78.5t75 -114t24.5 -136.5q3 -38 -6 -78.5t-29.5 -79t-53 -72.5t-77.5 -59q53 -31 93 -74t66 -92t39 -101.5t13 -102.5q0 -87 -29.5 -167t-88.5 -140t-147 -95.5t-205 -34.5 t-204.5 31.5t-144 86.5t-83 135t-22.5 177z" />
<glyph unicode="4" horiz-adv-x="1213" d="M123 242l2 106l695 1071l122 -3v-1061h148v-112h-148v-246h-117v246zM267 354l558 1v856q-26 -40 -70.5 -108t-98 -149.5t-111 -170.5t-111 -171t-97.5 -150t-70 -108z" />
<glyph unicode="5" horiz-adv-x="1157" d="M123 261l109 39q42 -100 125.5 -154t200.5 -54q92 0 159 31.5t111 84.5t65.5 123t21.5 147t-21.5 146t-66 121t-111.5 82.5t-158 30.5q-104 0 -180 -44.5t-119 -132.5l-120 11l65 715h759v-109h-647l-43 -429q60 48 133 70t152 22q115 0 203.5 -38t149 -103t92 -153 t31.5 -189q0 -100 -31 -189.5t-91 -157t-149 -106.5t-205 -39q-153 0 -266 71t-169 204z" />
<glyph unicode="6" horiz-adv-x="1197" d="M123 480q0 119 1.5 236.5t1.5 235.5q0 107 33 197t94.5 155t149 102t196.5 37q76 0 145.5 -18.5t127.5 -55.5t102.5 -92.5t69.5 -128.5l-110 -38q-19 56 -52 97.5t-76.5 69.5t-96 41.5t-110.5 13.5q-103 0 -171.5 -35.5t-109.5 -96.5t-58.5 -141.5t-18.5 -169.5v-89 q32 42 72.5 71.5t87 49t97 28.5t101.5 9q107 0 194.5 -34.5t150 -97.5t97 -151t34.5 -195q0 -108 -33 -199t-94.5 -157t-149.5 -103.5t-199 -37.5q-112 0 -200 37t-149.5 103t-94 157t-32.5 200zM239 508q0 -88 20 -163.5t63.5 -131t112 -87t164.5 -31.5q87 0 153.5 29 t112 80.5t69 122t23.5 153.5t-24.5 150.5t-71 115.5t-113 74t-149.5 26q-75 0 -140.5 -24t-114.5 -68t-77 -106.5t-28 -139.5z" />
<glyph unicode="7" horiz-adv-x="1088" d="M123 1293v111h835v-113l-472 -1291h-124l470 1293h-709z" />
<glyph unicode="8" horiz-adv-x="1197" d="M123 419q0 72 17.5 134t50 112t78 88t101.5 63q-78 42 -124.5 115.5t-46.5 177.5q0 88 33 153.5t88 109t127.5 65.5t151.5 22q78 0 150.5 -22t128 -65.5t88.5 -109.5t33 -153q0 -104 -46.5 -177t-124.5 -116q56 -25 102 -63t78 -88t49.5 -112t17.5 -134 q0 -106 -37.5 -188t-102 -138.5t-151 -86t-185.5 -29.5t-186 29t-151.5 85.5t-101.5 139t-37 188.5zM239 419q0 -81 28 -142t76.5 -102.5t114.5 -62t141 -20.5t140.5 20.5t114 62t76 102.5t27.5 142q0 82 -27.5 144t-75.5 103.5t-113.5 62.5t-141.5 21t-141.5 -21t-114 -62 t-76.5 -103t-28 -145zM316 1109q0 -62 23.5 -106.5t63 -73t90.5 -41.5t106 -13q54 0 105 13.5t90.5 42t63.5 72.5t24 106q0 63 -24 107.5t-63.5 73t-90.5 42t-105 13.5q-55 0 -106 -13.5t-90.5 -42t-63 -73t-23.5 -107.5z" />
<glyph unicode="9" horiz-adv-x="1197" d="M123 950q0 108 33 199t94.5 157t149.5 103.5t199 37.5t199.5 -37t150 -103t94 -157t32.5 -200v-468q0 -110 -32 -201t-93 -156.5t-149.5 -101.5t-201.5 -36q-78 0 -148.5 19.5t-129 58t-102.5 95.5t-69 133l110 37q19 -58 52 -101.5t77 -72.5t97.5 -43.5t112.5 -14.5 q119 0 201 51t124 145q11 26 19 54t11 59q2 14 3 28t1 28q0 40 -0.5 80t-0.5 80q-33 -38 -74.5 -66.5t-87.5 -47t-96 -28t-100 -9.5q-107 0 -195 34.5t-150.5 97.5t-96.5 151t-34 195zM240 950q0 -82 25 -149.5t71.5 -115.5t113 -74.5t149.5 -26.5q76 0 138.5 22t109 63 t75 101t35.5 136h1v50q0 83 -24 152.5t-70 120t-112.5 78.5t-152.5 28q-87 0 -153.5 -29t-112.5 -80.5t-69.5 -122t-23.5 -153.5z" />
<glyph unicode=":" horiz-adv-x="525" d="M164 105q0 40 25 69.5t72 29.5q48 0 73.5 -29t25.5 -70q0 -39 -25.5 -68t-73.5 -29q-47 0 -72 29t-25 68zM164 908q0 39 25 68t72 29q48 0 73.5 -29t25.5 -68q0 -40 -25.5 -69.5t-73.5 -29.5q-47 0 -72 29.5t-25 69.5z" />
<glyph unicode=";" horiz-adv-x="581" d="M170 -148q20 21 40.5 45.5t38.5 52t31 56.5t17 58q-38 4 -60 29.5t-22 63.5q0 43 27 68.5t69 25.5t70 -25t28 -69q0 -50 -13.5 -92t-37.5 -78.5t-55.5 -69.5t-67.5 -65h-65zM217 905q0 39 24 68t72 29q47 0 72.5 -28.5t25.5 -68.5q0 -39 -25.5 -68t-72.5 -29 q-48 0 -72 29t-24 68z" />
<glyph unicode="&#x3c;" horiz-adv-x="1171" d="M212 593v139l756 421v-132l-632 -365l632 -352v-132z" />
<glyph unicode="=" horiz-adv-x="1280" d="M189 313v115h880v-115h-880zM189 662v114h880v-114h-880z" />
<glyph unicode="&#x3e;" horiz-adv-x="1171" d="M203 172v132l632 366l-632 351v132l756 -421v-139z" />
<glyph unicode="?" horiz-adv-x="1109" d="M163 1040q0 85 31 154t85 118t126 75.5t154 26.5q85 0 159.5 -30.5t129.5 -84t86.5 -127t31.5 -159.5q0 -72 -19 -122t-50.5 -86t-71 -62t-80.5 -50.5t-79 -52.5t-67 -67t-44.5 -93.5t-10.5 -132.5l-117 -6q-1 11 -1 22v22q0 81 18 139.5t48 101.5t68 73.5t77.5 56.5 t77.5 49.5t68 52t48 66t18 89.5q0 62 -22 115t-61 91.5t-92 60t-115 21.5q-59 0 -110 -18t-88.5 -52t-59 -83t-21.5 -110q0 -20 2 -38.5t6 -38.5l-114 -21q-5 25 -8 49.5t-3 50.5zM389 114q0 48 31 76.5t79 28.5t78 -28.5t30 -76.5t-30 -77t-78 -29t-79 29t-31 77z" />
<glyph unicode="@" horiz-adv-x="1690" d="M112 644q0 171 53.5 313.5t152 244.5t238 159t312.5 57q159 0 291 -49.5t227 -141t148 -221t53 -290.5q0 -59 -7 -129.5t-26.5 -139t-54 -127t-89.5 -92.5q-25 -16 -52.5 -25.5t-57.5 -11.5q-57 0 -101.5 27t-62.5 84q-55 -66 -132 -96t-162 -30q-97 0 -173.5 33t-130 91 t-81.5 138.5t-28 174.5t28.5 173.5t81.5 138t129.5 91.5t173.5 33q82 0 156.5 -31t125.5 -97v97l109 -8q0 -167 0.5 -327.5t0.5 -327.5q0 -26 19.5 -43t45.5 -18q17 0 33.5 6.5t30.5 17.5q42 36 67.5 83.5t39 100t17.5 107.5t4 107q0 140 -46.5 249.5t-129.5 185t-197 115 t-250 39.5q-149 0 -267.5 -48.5t-201 -135.5t-126 -208.5t-43.5 -268.5q0 -146 43.5 -267.5t126 -209t201 -136t267.5 -48.5q69 0 137.5 10t132.5 37h207q-14 -11 -29 -21.5t-29 -21.5q-94 -61 -200.5 -88.5t-218.5 -27.5q-173 0 -313 56.5t-238.5 159t-151.5 244.5t-53 313 zM546 613q0 -70 19 -129.5t56 -103t92.5 -68t128.5 -24.5q42 0 91 16t91.5 44.5t71 68.5t29.5 88q1 10 1 19v19q1 38 1 74.5v73.5q0 55 -25.5 100t-66 77.5t-91.5 50t-102 17.5q-72 0 -127 -25t-92.5 -68.5t-57 -102.5t-19.5 -127z" />
<glyph unicode="A" horiz-adv-x="1188" d="M11 -1l546 1438h77l543 -1438h-124l-128 337h-661l-127 -337h-126zM307 448h576l-288 763z" />
<glyph unicode="B" horiz-adv-x="1232" d="M120 -1v1439h80h258.5t258.5 -1q71 0 131.5 -23t105 -64.5t70 -100.5t25.5 -131q0 -85 -39 -158.5t-113 -116.5q53 -31 93 -73t67 -92t40.5 -107t13.5 -117q0 -100 -37 -184t-101 -144t-150 -93.5t-185 -33.5h-518zM238 111h400q75 0 140.5 23.5t114 68t76 107 t27.5 140.5q0 109 -55.5 193.5t-155.5 127.5q-24 10 -49 17.5t-51 7.5h-447v-685zM238 913q120 -2 239 -3.5t239 -1.5q46 0 85.5 15t69 42.5t46 66.5t16.5 86t-16.5 85t-45.5 65t-68.5 42t-85.5 15q-121 0 -239.5 0.5t-239.5 0.5v-413z" />
<glyph unicode="C" horiz-adv-x="1459" d="M121 713q0 149 42 281t123.5 230.5t202.5 156t280 57.5q99 0 185.5 -24t159.5 -70t130 -111.5t97 -149.5l-102 -59q-63 142 -183.5 222t-286.5 80q-134 0 -234 -49t-166 -133t-98.5 -195.5t-32.5 -235.5t32.5 -235.5t98.5 -196t166 -134t234 -49.5q164 0 282 76.5 t182 213.5l104 -55q-40 -82 -97 -146.5t-129.5 -109t-158.5 -68t-183 -23.5q-158 0 -279 58t-203 157t-124 231t-42 281z" />
<glyph unicode="D" horiz-adv-x="1360" d="M120 0v1446q114 -2 232 -2t236 -5q158 -7 279.5 -61.5t204 -149.5t125 -225.5t42.5 -289.5q0 -150 -42 -280t-124.5 -226t-203.5 -151.5t-279 -55.5q-110 0 -219 -0.5t-220 -0.5v1h-31zM238 112h352q134 0 234 47t166 128.5t99 191t33 234.5q0 131 -32 240t-97.5 189.5 t-164.5 128.5t-233 55q-90 3 -179.5 3.5t-177.5 2.5v-1220z" />
<glyph unicode="E" horiz-adv-x="1127" d="M120 -1v1439l927 -1v-112l-809 1v-525h718v-112h-718v-578h809v-112h-927z" />
<glyph unicode="F" horiz-adv-x="1046" d="M120 0v1438l863 -1v-112l-745 1v-525h688v-112h-688v-689h-118z" />
<glyph unicode="G" horiz-adv-x="1503" d="M121 713q0 149 42 281t123.5 230.5t202.5 156t280 57.5q113 0 210.5 -31.5t176 -91t136 -145t89.5 -193.5l-113 -30q-27 89 -73 159t-110 119t-143.5 75t-172.5 26q-134 0 -234 -49t-166 -133t-98.5 -195.5t-32.5 -235.5q0 -125 33 -237t99.5 -196t167 -133t235.5 -49 q126 0 218 39.5t152 104.5t89.5 149t30.5 174h-541v111h659v-109q0 -59 -10.5 -117t-32.5 -113q-30 -77 -81.5 -141.5t-122.5 -111t-161.5 -72.5t-199.5 -26q-159 0 -281 57t-204.5 155.5t-124.5 231t-42 283.5z" />
<glyph unicode="H" horiz-adv-x="1237" d="M120 0v1437h118v-636h762v636h116v-1437h-116v689h-762v-689h-118z" />
<glyph unicode="I" horiz-adv-x="358" d="M120 0v1437h118v-1437h-118z" />
<glyph unicode="J" horiz-adv-x="1109" d="M121 430l117 2q0 -70 22.5 -130.5t64 -105.5t100 -71t130.5 -26t130.5 25.5t99.5 70.5t63.5 105.5t22.5 130.5v1007h118v-1007q0 -95 -31.5 -176.5t-88.5 -141t-137 -93t-177 -33.5t-176.5 33.5t-136.5 93t-88.5 140.5t-32.5 176z" />
<glyph unicode="K" horiz-adv-x="1159" d="M120 1437h118l1 -803l647 803h148l-488 -605l570 -832h-140l-501 731l-236 -281l1 -450h-118z" />
<glyph unicode="L" horiz-adv-x="1052" d="M120 -1v1438h118v-1326h761v-112h-879z" />
<glyph unicode="M" horiz-adv-x="1623" d="M120 0v1437h115l575 -1210l576 1210h115v-1437h-117v1162l-551 -1157h-46l-549 1158v-1163h-118z" />
<glyph unicode="N" horiz-adv-x="1364" d="M120 0v1437h114l891 -1236v1236h118v-1437h-111l-894 1234v-1234h-118z" />
<glyph unicode="O" horiz-adv-x="1519" d="M95 719q0 153 43 288.5t127 236.5t208 160t287 59q162 0 286 -59t208 -160.5t127 -237t43 -287.5t-43 -287.5t-127 -237t-208 -161t-286 -59.5q-108 0 -199.5 27t-165.5 76t-130 117t-94 151t-57 177.5t-19 196.5zM214 719q0 -127 33.5 -241.5t101.5 -201t170.5 -137.5 t240.5 -51q137 0 239.5 51t170 138t101 201.5t33.5 240.5q0 127 -33.5 241t-101 200.5t-169.5 137.5t-240 51t-240.5 -50.5t-170.5 -137t-101.5 -200.5t-33.5 -242z" />
<glyph unicode="P" horiz-adv-x="1203" d="M132 0v1446q45 0 94 -1t99.5 -0.5t99.5 0.5h94q72 0 141.5 -7.5t132 -25.5t115.5 -48.5t91.5 -77t60.5 -111t22 -149.5q0 -93 -33 -168.5t-90.5 -129.5t-135.5 -83.5t-169 -29.5h-51.5h-71t-80 -0.5t-80 -0.5h-70.5h-51v-614h-118zM250 1333l1 -608q101 0 201.5 0.5 t201.5 0.5q66 0 123 21.5t99 60.5t65.5 94t23.5 123q0 103 -40 164t-104 93t-143.5 41.5t-159.5 9.5h-268z" />
<glyph unicode="Q" horiz-adv-x="1554" d="M121 713q0 149 42 281t123.5 230.5t202.5 156t280 57.5t280 -57.5t202.5 -156.5t123.5 -230.5t42 -280.5q0 -93 -18 -186t-56 -178t-97.5 -156t-143.5 -121l210 -202h-190l-146 146q-100 -30 -207 -30q-158 0 -279 58t-203 157t-124 231t-42 281zM238 713 q0 -124 32.5 -235.5t98.5 -196t166 -134t234 -49.5q64 0 127 15l-204 194h163l159 -152q77 40 131 101t88 135.5t50 157t16 164.5q0 123 -32.5 234t-98.5 195.5t-165.5 134t-233.5 49.5t-234 -49.5t-166 -133.5t-98.5 -195t-32.5 -235z" />
<glyph unicode="R" horiz-adv-x="1254" d="M121 0v1446q82 -2 164 -2h40q101 0 204 1q45 0 88.5 -0.5t87.5 -4.5q92 -7 170.5 -35.5t135.5 -80t89.5 -126t32.5 -172.5q0 -56 -13 -108.5t-39 -98.5t-64.5 -84t-88.5 -65q50 -27 88 -64.5t64 -83.5t39.5 -98t13.5 -108v-316h-117v287q0 73 -20.5 133t-60.5 103.5 t-98 67.5t-133 24q-117 0 -232.5 -0.5t-232.5 -0.5v-614h-118zM239 725q117 0 233 0.5t233 0.5q66 0 123 21.5t99 60.5t65.5 94.5t23.5 122.5q0 74 -23.5 128t-65 91t-99 58t-125.5 27q-42 4 -82.5 4.5t-82.5 0.5q-76 0 -150 -1q-37 0 -74.5 -0.5t-74.5 0.5v-608z" />
<glyph unicode="S" horiz-adv-x="1273" d="M121 434l118 -1q0 -84 12.5 -147t45.5 -105.5t90.5 -63.5t148.5 -21q58 0 115.5 -0.5t115.5 -0.5q64 0 113.5 26t84 69t52.5 98.5t18 114.5q0 85 -26 139t-69.5 86.5t-101 48.5t-120.5 24t-127.5 13t-122.5 17q-66 14 -120 43t-92.5 72.5t-59 100t-20.5 126.5 q0 83 27 149t75 113.5t115 75.5t146 35q44 3 86 3q211 0 320.5 -104t117.5 -313l-116 -3q-4 160 -82.5 234.5t-239.5 74.5q-65 0 -125.5 -13t-107 -43t-74 -80.5t-27.5 -125.5q0 -72 27 -118.5t71 -74.5t101 -41.5t117.5 -21t119.5 -12t108 -13.5q154 -31 236 -133.5 t82 -259.5q0 -85 -27 -161t-77 -133.5t-121.5 -91t-160.5 -33.5q-58 0 -115.5 0.5t-115.5 0.5q-115 0 -194.5 29t-128.5 86t-70.5 141t-21.5 194z" />
<glyph unicode="T" horiz-adv-x="1236" d="M50 1326v112h1134v-112h-511v-1326h-117v1326h-506z" />
<glyph unicode="U" horiz-adv-x="1261" d="M120 505v932h118v-932q0 -87 28 -162.5t79.5 -130.5t124 -86.5t161.5 -31.5t161.5 31.5t123.5 86.5t79 130.5t28 162.5v932h118v-932q0 -113 -37 -209t-104 -165.5t-161 -109t-208 -39.5t-208 39.5t-161.5 109t-104.5 165.5t-37 209z" />
<glyph unicode="V" horiz-adv-x="1299" d="M81 1437h124l444 -1208l445 1208h124l-528 -1436h-81z" />
<glyph unicode="W" horiz-adv-x="1920" d="M63 1437h121l360 -1201l355 1202l119 -4l358 -1198l359 1201h121l-427 -1434h-105l-365 1220l-362 -1220h-106z" />
<glyph unicode="X" horiz-adv-x="1403" d="M121 1l513 730l-489 706h141l420 -605l426 605h141l-497 -706l507 -731h-141l-437 631l-443 -630h-141z" />
<glyph unicode="Y" horiz-adv-x="1286" d="M63 1437h133l446 -778l446 778h134l-523 -913l1 -524h-118v531z" />
<glyph unicode="Z" horiz-adv-x="1381" d="M121 -1l1 112l987 1215h-988v112h1138l1 -112l-986 -1215h985v-112h-1138z" />
<glyph unicode="[" horiz-adv-x="485" d="M100 -259v1769l319 -1v-112l-201 1v-1545h201v-112h-319z" />
<glyph unicode="\" horiz-adv-x="854" d="M24 1437h127l603 -1437h-127z" />
<glyph unicode="]" horiz-adv-x="485" d="M66 -147h201v1556l-201 -1v113l319 1v-1781h-319v112z" />
<glyph unicode="^" horiz-adv-x="1239" d="M107 734l443 751h148l443 -751h-137l-388 629l-371 -629h-138z" />
<glyph unicode="_" horiz-adv-x="970" d="M42 -162h902v-114h-902v114z" />
<glyph unicode="`" horiz-adv-x="466" d="M33 1553l191 2l177 -318h-100z" />
<glyph unicode="a" horiz-adv-x="1037" d="M112 306q0 74 26 126.5t69.5 87.5t100.5 55.5t119 31t125 13t119 2.5q35 0 69 -1l68 -2v9q0 152 -70.5 222.5t-221.5 70.5q-45 0 -90 -9t-81.5 -30.5t-60.5 -56.5t-27 -88l-118 10q7 77 41 131t86.5 88.5t118 50.5t134.5 16q203 0 305 -99.5t102 -303.5v-315t-1 -315 h-112l-6 113q-33 -36 -74 -60.5t-87 -39t-94.5 -21t-95.5 -6.5q-76 0 -139 20.5t-108.5 60.5t-71 100t-25.5 139zM229 306q0 -110 61 -159t166 -49q74 0 136.5 14.5t109 48t74.5 88t32 135.5v122q-40 2 -79.5 3t-79.5 1q-37 0 -82.5 -1t-92 -7t-91 -19t-78.5 -35.5t-55 -57 t-21 -84.5z" />
<glyph unicode="b" horiz-adv-x="1176" d="M112 1440h117l1 -585q57 99 151.5 148t206.5 49q116 0 205 -42t149 -115t91 -169.5t31 -206.5q0 -109 -31 -206t-91 -169.5t-149 -115t-205 -42.5q-114 0 -208 48.5t-150 148.5l1 -167h-117zM230 480q5 -77 30.5 -146t70.5 -121.5t109.5 -83.5t147.5 -31q92 0 160 34.5 t112 92t65.5 134t21.5 160.5t-21.5 160.5t-65.5 134t-112 91.5t-160 34q-101 0 -169.5 -39.5t-110.5 -104.5t-60 -147t-18 -168z" />
<glyph unicode="c" horiz-adv-x="1143" d="M110 519q0 110 30.5 206.5t90.5 169.5t149 115t206 42q82 0 153 -23t128.5 -66t99.5 -105t66 -140l-111 -33q-37 118 -123.5 186t-212.5 68q-92 0 -159.5 -34t-112 -91.5t-66 -134t-21.5 -160.5t21.5 -160.5t66 -134t112 -92t159.5 -34.5q125 0 211.5 68t123.5 185 l110 -36q-24 -77 -66.5 -138t-99.5 -103.5t-127.5 -65t-151.5 -22.5q-117 0 -206 42.5t-149 115t-90.5 169.5t-30.5 206z" />
<glyph unicode="d" horiz-adv-x="1176" d="M112 519q0 110 30.5 207t90.5 169.5t149 114.5t206 42q125 0 216 -53.5t142 -141.5v305.5t1 277.5h117l-2 -1424h-117l1 167q-53 -90 -143 -143.5t-215 -53.5q-117 0 -206 42t-149 115t-90.5 170t-30.5 206zM229 519q0 -84 21.5 -160.5t66 -134t112 -92t159.5 -34.5 q86 0 152 33.5t111.5 89t69 128t24.5 150.5q1 7 1 14.5v15.5v20q-4 77 -28.5 147.5t-69 124.5t-109.5 86t-151 32q-92 0 -159.5 -34t-112 -91.5t-66 -134t-21.5 -160.5z" />
<glyph unicode="e" horiz-adv-x="1176" d="M112 519q0 110 31 207t91 169.5t149 114.5t205 42q119 0 208.5 -43.5t149 -117.5t89 -172t29.5 -208l-835 3q1 -84 23 -159.5t66.5 -132.5t111.5 -90.5t158 -33.5q118 0 203 60.5t125 170.5l111 -37q-26 -72 -69 -129t-99.5 -96t-125 -60t-145.5 -21q-116 0 -205 42.5 t-149 115t-91 169.5t-31 206zM238 626l700 -3q-11 69 -39.5 127t-73.5 100t-104.5 65.5t-132.5 23.5q-76 0 -136 -24t-103.5 -66t-71 -99t-39.5 -124z" />
<glyph unicode="f" horiz-adv-x="655" d="M105 920v112h100l-1 120q0 66 10.5 119t38 90t75 57t120.5 20h114v-112l-96 2q-37 0 -64 -6q-45 -9 -63 -42q-17 -30 -17 -85v-6v-157h239v-112h-239l-2 -904h-118l3 904h-100z" />
<glyph unicode="g" horiz-adv-x="1176" d="M112 525q0 110 30.5 207t90.5 169.5t149 114.5t206 42q125 0 215 -54t142 -145l-1 170h118l2 -1046q0 -101 -33 -185t-93 -144.5t-143.5 -94.5t-184.5 -34q-78 0 -149.5 22t-129 64.5t-98.5 104t-59 140.5h120q16 -53 48 -93.5t75.5 -68.5t94.5 -42.5t104 -14.5 q77 0 138.5 26t104 72t65.5 109.5t23 138.5v210q-26 -45 -61.5 -81.5t-80.5 -63t-99.5 -41t-117.5 -14.5q-117 0 -206 42t-149 114.5t-90.5 169.5t-30.5 206zM229 525q0 -84 21.5 -160t66 -134t112 -92t159.5 -34q87 0 153 33.5t110.5 89t68.5 128.5t27 151q0 84 -20 163 t-63 140.5t-111 98.5t-165 37q-92 0 -159.5 -34t-112 -92t-66 -134.5t-21.5 -160.5z" />
<glyph unicode="h" horiz-adv-x="1051" d="M112 1437h117l1 -548q27 41 65 72t82.5 52.5t93.5 32.5t98 11q78 -1 143.5 -25t112 -69t72.5 -109t26 -144q0 -179 -0.5 -355t-1.5 -355h-118l3 710q0 57 -19 101t-53 73.5t-80.5 45t-100.5 15.5q-47 0 -95.5 -12.5t-92 -36.5t-78 -59t-52.5 -80q-1 -2 -3 -4t-2 -3 l1 -750h-117z" />
<glyph unicode="i" horiz-adv-x="407" d="M112 1281q0 17 6.5 33.5t18.5 29.5t29 20.5t38 7.5q22 0 39 -7.5t29 -20.5t18 -29t6 -34q0 -17 -6.5 -33t-18.5 -28.5t-29 -20t-38 -7.5t-38 7.5t-29 20t-18.5 28.5t-6.5 33zM143 1032h116l3 -1032h-117z" />
<glyph unicode="j" horiz-adv-x="392" d="M-109 -272q47 0 86 2.5t69 13t51 32t31 59.5q13 33 13 92l-2 1105h117l2 -1105q0 -160 -80.5 -234.5t-231.5 -75.5q-14 -1 -27.5 -1h-27.5v112zM107 1279q0 18 7 34t19 28t27.5 18.5t33.5 6.5q37 0 62 -24.5t25 -62.5q0 -37 -25.5 -61t-61.5 -24q-18 0 -33.5 6.5 t-27.5 18t-19 27t-7 33.5z" />
<glyph unicode="k" horiz-adv-x="948" d="M112 1437h117l1 -960l507 554h155l-413 -452l450 -579h-146l-379 485l-173 -177v-308h-117z" />
<glyph unicode="l" horiz-adv-x="343" d="M112 1437h117l2 -1437h-117z" />
<glyph unicode="m" horiz-adv-x="1650" d="M134 1023h116v-135q50 75 129.5 116.5t167.5 43.5q100 0 179.5 -43t124.5 -137q24 44 59 77.5t77.5 56t90.5 34t98 11.5q70 0 133 -27t111 -73.5t76.5 -109t28.5 -133.5q-1 -177 -1 -352t-1 -352h-116l1 704q0 47 -19 89t-51 73.5t-74 50.5t-89 19q-48 0 -98 -18.5 t-91.5 -51t-67.5 -77t-26 -96.5l-2 -693h-120l2 704q0 52 -16.5 95t-47 74t-72.5 48t-93 17q-75 0 -142.5 -34.5t-114.5 -93.5q-9 -11 -21 -30t-14 -32l1 -748h-116z" />
<glyph unicode="n" horiz-adv-x="1035" d="M112 1025h117v-144q27 40 65 71.5t82.5 53t94 33t99.5 11.5q79 0 144 -25t111.5 -70.5t72 -109.5t25.5 -142l-2 -702h-118l3 702q0 57 -18 101t-51.5 74t-80 45.5t-103.5 15.5q-42 0 -93.5 -13.5t-98.5 -39t-83 -61.5t-48 -81l1 -743h-117z" />
<glyph unicode="o" horiz-adv-x="1176" d="M112 519q0 119 34 217t96 168.5t150 109t196 38.5t195.5 -39t150 -109t96.5 -168t34 -217q0 -118 -34 -216.5t-96.5 -168.5t-150 -109t-195.5 -39t-196 38.5t-150 109t-96 168.5t-34 217zM229 519q0 -94 24.5 -171.5t71 -133t113 -86t150.5 -30.5t150.5 30.5t113 86 t71 133t24.5 171.5t-24.5 171.5t-71 132.5t-113 85.5t-150.5 30.5t-150.5 -30.5t-113 -85.5t-71 -132.5t-24.5 -171.5z" />
<glyph unicode="p" horiz-adv-x="1176" d="M112 -406l2 1425h118q-1 -42 -1.5 -83t-0.5 -83q55 92 146 144t216 52q117 0 205 -42t147.5 -115t89.5 -170t30 -207q0 -109 -30.5 -206t-90.5 -169.5t-149 -114.5t-206 -42q-62 0 -116.5 14t-99.5 39.5t-81 61.5t-61 79l-1 -583h-117zM230 534q0 -83 20 -162 t63.5 -140.5t111.5 -99t163 -37.5q92 0 160 34t112.5 92t66 134t21.5 160t-21.5 160.5t-66 134.5t-112.5 92t-160 34q-85 0 -151.5 -33.5t-112.5 -89.5t-70 -128.5t-24 -150.5z" />
<glyph unicode="q" horiz-adv-x="1176" d="M112 515q0 110 30.5 207t90.5 169.5t149 115t206 42.5q111 0 206 -48.5t152 -145.5l-2 164h118l2 -1425h-117l-1 584q-58 -99 -152 -147t-206 -48q-117 0 -206 42t-149 114.5t-90.5 169.5t-30.5 206zM228 515q0 -84 21.5 -160.5t66 -134t112.5 -91.5t160 -34 q95 0 162.5 37t111 98t64 140.5t20.5 163.5q0 79 -24.5 152t-70.5 128.5t-112.5 88.5t-150.5 33q-92 0 -160 -34t-112.5 -92t-66 -134.5t-21.5 -160.5z" />
<glyph unicode="r" horiz-adv-x="577" d="M112 1032h117v-159q49 84 133 121.5t193 37.5v-114h-11q-50 0 -100 -8q-54 -9 -99 -33t-75.5 -65.5t-39.5 -104.5l1 -707h-117z" />
<glyph unicode="s" horiz-adv-x="1029" d="M104 308l117 -3q0 -60 10.5 -99.5t34.5 -63t63.5 -33t98.5 -9.5q45 0 90.5 -0.5t90.5 -0.5q40 0 73.5 14t58 39t38.5 59t14 74q0 54 -21.5 87.5t-56 53.5t-79.5 28.5t-91.5 13t-91 7.5t-79.5 11q-54 12 -100 33.5t-79.5 55t-52 79.5t-18.5 105q0 80 31 136t82 91 t117 51.5t136 16.5q82 0 149 -18.5t115.5 -58.5t76.5 -101.5t31 -148.5l-118 -2q-1 62 -19.5 103.5t-51.5 66.5t-79.5 35.5t-103.5 10.5q-45 0 -89.5 -8t-80 -29t-57.5 -56t-22 -89q0 -52 21.5 -84.5t57 -51.5t80.5 -28t91.5 -13.5t91 -7.5t77.5 -10q57 -13 103 -35 t78.5 -56t50 -80.5t17.5 -107.5q0 -66 -22.5 -121t-63 -94.5t-95.5 -61.5t-120 -22q-26 0 -53 -0.5t-53 -0.5q-95 0 -169 11t-125 45t-77.5 98t-26.5 169z" />
<glyph unicode="t" horiz-adv-x="571" d="M77 921v112h79l1 278h116l-1 -278h222v-112h-222l-1 -645q0 -55 12.5 -87.5t35 -49.5t55.5 -22.5t73 -5.5h74v-112h-86q-136 0 -206 65.5t-73 199.5q-1 16 -1 31v31l1 595h-79z" />
<glyph unicode="u" horiz-adv-x="1035" d="M112 333q0 177 0.5 347t1.5 348h118l-3 -695q0 -58 19 -102t53 -74t80 -45t101 -15q47 0 97 13.5t94 39t79 61.5t51 82l2 -1l-1 736h117l2 -1017h-117v143q-28 -40 -65.5 -71.5t-81 -53t-91.5 -32.5t-96 -11q-78 0 -144 24t-114 69t-75 109.5t-27 144.5z" />
<glyph unicode="v" horiz-adv-x="995" d="M19 1031h128l355 -808l356 808h127l-454 -1031h-57z" />
<glyph unicode="w" horiz-adv-x="1523" d="M47 1031h120l270 -800l267 797h118l270 -797l268 800h120l-345 -1029l-77 3l-293 849l-295 -849l-77 -3z" />
<glyph unicode="x" horiz-adv-x="1046" d="M47 1025h146l329 -425l334 425h145l-407 -519l386 -506h-145l-314 411l-318 -410h-146l391 505z" />
<glyph unicode="y" horiz-adv-x="1005" d="M12 1031h125l343 -871l393 871h128l-599 -1327q-24 -55 -70.5 -88t-107.5 -33q-38 0 -74.5 11.5t-72.5 21.5v117q32 -10 69 -24.5t71 -14.5q31 0 50 17t31 44q29 65 59 131.5t56 126.5z" />
<glyph unicode="z" horiz-adv-x="1097" d="M115 -1v113l714 801h-707v112h863v-105l-727 -809h727v-112h-870z" />
<glyph unicode="{" horiz-adv-x="791" d="M104 527v121q30 3 64 12t62.5 26t47.5 43t19 62v378q0 10 0.5 19.5t0.5 19.5q2 61 22.5 104t55 70t82 39t102.5 12h107v-114q-23 0 -46 1t-46 1q-33 0 -62 -3.5t-50 -16t-33.5 -36t-12.5 -64.5v-410q0 -69 -35 -120.5t-95 -83.5q60 -32 95 -83.5t35 -120.5v-410 q0 -31 7.5 -52t21 -34t32.5 -20t41 -10q35 -5 74 -3.5t74 1.5v-114h-107q-54 0 -100.5 12t-81 38t-55.5 67.5t-24 100.5q-1 19 -1.5 38t-0.5 39v347q0 37 -18.5 63t-47 43t-62.5 26t-65 12z" />
<glyph unicode="|" horiz-adv-x="440" d="M156 1437h120l3 -1622h-120z" />
<glyph unicode="}" horiz-adv-x="791" d="M124 -144q23 0 46.5 -1t47.5 -1q35 0 63.5 4.5t49 17.5t32 36.5t11.5 61.5v410q0 69 35 120.5t95 83.5q-60 32 -95 83t-35 120v410q0 32 -7.5 53t-21 34t-32 20t-40.5 10q-36 5 -74.5 3t-74.5 -2v114h107q55 0 102 -12t82 -39t55.5 -69.5t22.5 -103.5q0 -11 0.5 -20 t0.5 -20v-378q0 -36 19 -61.5t47.5 -42.5t62.5 -25.5t64 -10.5v-127q-27 -1 -56.5 -7.5t-56.5 -19.5t-47 -33t-28 -48q-3 -9 -4 -18.5t-1 -20.5v-341q0 -40 -3 -77q-3 -59 -24 -100.5t-55.5 -67.5t-81 -37.5t-99.5 -11.5h-107v114z" />
<glyph unicode="~" horiz-adv-x="1165" d="M71 655q26 40 58 74t70 58.5t82 38t93 13.5q44 0 81 -11t69.5 -27.5t62.5 -35.5t61 -35.5t64.5 -27.5t72.5 -11q63 0 108 35t75 88l80 -46q-23 -40 -51.5 -74t-63 -59.5t-76 -40t-89.5 -14.5q-46 0 -84 11t-71 27t-63 35.5t-60 35.5t-61.5 27t-67.5 11q-66 0 -121.5 -33 t-89.5 -88z" />
<glyph unicode="&#xa1;" horiz-adv-x="638" d="M207 1330q0 45 30 74.5t81 29.5t80 -29.5t29 -74.5t-29 -74.5t-80 -29.5t-81 29t-30 75zM218 -188q1 12 1 23.5t1 22.5l47 1107h86l37 -1147q0 -22 -3 -44.5t-12 -41t-26 -30t-45 -11.5q-24 0 -40 9t-25.5 23.5t-13.5 33t-5 36.5q-1 5 -1.5 9.5t-0.5 9.5z" />
<glyph unicode="&#xa2;" horiz-adv-x="1324" d="M175 718q0 111 32 206t93 168t149 119.5t200 59.5v159h117v-154q113 -5 215 -47t179 -127l-85 -77q-67 74 -154.5 107.5t-185.5 33.5q-103 0 -185 -31.5t-139 -90t-87.5 -141.5t-30.5 -185t30.5 -184.5t88 -141t139.5 -90.5t184 -32q99 0 186 33.5t154 107.5l85 -79 q-77 -85 -179 -127t-215 -47v-158h-117v163q-112 14 -200 60.5t-149 119.5t-93 168.5t-32 206.5z" />
<glyph unicode="&#xa3;" horiz-adv-x="1165" d="M102 3v131q70 1 123 27.5t88.5 71t53.5 103.5t18 124q0 40 -4.5 80t-12.5 79h-266v114h241q-17 72 -31 145t-14 147q0 92 28.5 167.5t81 129.5t127 83.5t167.5 29.5q90 0 176.5 -31t149.5 -98l-87 -80q-45 50 -106 72.5t-127 22.5q-69 0 -123 -21t-91 -59.5t-56.5 -93.5 t-19.5 -124q0 -74 14 -146t31 -144h367v-114h-342q8 -40 12 -79.5t4 -80.5q0 -50 -8.5 -100.5t-28.5 -96.5t-52 -83.5t-80 -61.5h710v-114h-943z" />
<glyph unicode="&#xa4;" horiz-adv-x="1130" d="M122 308l137 136q-31 47 -49 101.5t-18 111.5t17.5 112t49.5 102l-137 136l105 106l139 -138q48 31 103 49t112 18t110.5 -17.5t100.5 -49.5l139 138l105 -106l-137 -135q33 -48 50.5 -103t17.5 -112t-18 -112t-50 -101l137 -136l-105 -105l-139 137q-47 -31 -101 -48.5 t-111 -17.5t-112.5 16.5t-102.5 49.5l-138 -137zM312 656q0 -54 21.5 -102.5t58.5 -84.5t85.5 -57.5t102.5 -21.5t102.5 21.5t85 58t58 85t21.5 102.5q0 55 -21.5 104t-58 85.5t-85.5 58t-104 21.5q-54 0 -102.5 -22t-84.5 -59t-57.5 -86t-21.5 -103z" />
<glyph unicode="&#xa5;" horiz-adv-x="1200" d="M18 1437h133l446 -778l446 778h134l-491 -857h272v-108h-304v-118h304v-105h-303v-249h-118v249h-320v105h319v118h-319v108h291z" />
<glyph unicode="&#xa6;" horiz-adv-x="568" d="M220 -507l12 795l120 -2l-12 -795zM220 711l12 795l120 -2l-12 -795z" />
<glyph unicode="&#xa7;" horiz-adv-x="1007" d="M113 751q0 72 35.5 132.5t98.5 95.5q-63 36 -98.5 95.5t-35.5 132.5q0 78 31 133.5t82 91t116.5 51.5t134.5 16q49 0 97 -7t91.5 -24.5t80.5 -47t64 -74.5l-100 -59q-18 32 -44 51.5t-56.5 30t-64 14t-66.5 3.5q-44 0 -88.5 -8t-80 -28t-58 -54.5t-22.5 -87.5 q0 -51 22 -83.5t57.5 -51.5t80.5 -28t91.5 -13t91 -7t77.5 -10q56 -12 102 -33.5t79 -55.5t51 -80t18 -106q0 -69 -33 -129t-89 -98q66 -38 94 -101.5t28 -135.5q-1 -64 -24.5 -117t-64 -90.5t-95.5 -58.5t-119 -21q-32 0 -63.5 -1t-63.5 -1q-51 0 -101 4t-96 18.5t-84 43 t-65 77.5l104 52q12 -26 33 -41.5t46.5 -23.5t53.5 -11t53 -4q23 -1 46.5 -1h46.5h46.5t46.5 1q39 0 72.5 13t58 36.5t39 57t14.5 73.5q0 44 -14.5 75t-40 51t-60 30.5t-73.5 13.5q-51 5 -105.5 9.5t-108.5 15.5t-103 30.5t-85.5 52t-58.5 79t-22 112.5zM230 751 q0 -43 20 -74.5t52.5 -53t74.5 -34t86 -19.5t86.5 -9.5t76.5 -2.5q11 0 23.5 4.5t23.5 8.5q51 23 81 67.5t30 101.5q0 35 -10 61t-27 45t-41 31.5t-52 21.5q-27 8 -56.5 13t-59 8t-58 5t-54.5 4q-38 -2 -73.5 -14.5t-62.5 -35.5t-43.5 -55t-16.5 -73z" />
<glyph unicode="&#xa8;" horiz-adv-x="848" d="M117 1371q0 44 27 74t78 30t78 -30.5t27 -73.5t-27 -73t-78 -30t-78 30t-27 73zM459 1371q0 44 27.5 74t78.5 30t78 -30.5t27 -73.5t-27 -73t-78 -30t-78.5 30t-27.5 73z" />
<glyph unicode="&#xa9;" horiz-adv-x="1688" d="M100 721q0 103 26.5 197.5t75 176.5t116.5 149.5t151 115t178 73.5t197 26q103 0 198 -26t177.5 -73.5t150.5 -115t116.5 -149.5t75 -176.5t26.5 -197.5t-26.5 -198t-75 -177t-116.5 -149t-150.5 -115t-177.5 -74t-198 -26q-102 0 -197 26t-178 74t-151 115t-116.5 149 t-75 177t-26.5 198zM180 721q0 -138 52 -259t142 -211t211 -142t259 -52q92 0 177 23.5t159 66.5t134.5 103.5t103.5 134.5t66.5 159t23.5 177t-23.5 177t-66.5 158.5t-103.5 134.5t-134.5 104t-159 66.5t-177 23.5t-177 -23.5t-159 -66.5t-134.5 -103.5t-103.5 -134.5 t-66.5 -159t-23.5 -177zM457 707q0 92 26.5 174t77.5 143.5t126.5 97t173.5 35.5q71 0 132 -20t110 -57.5t84.5 -91t55.5 -121.5l-111 -35q-29 99 -97.5 156t-173.5 57q-74 0 -128 -27.5t-89.5 -74t-52.5 -107.5t-17 -129q0 -67 17 -129t52.5 -108.5t89.5 -74.5t128 -28 q105 0 173.5 57t97.5 155l111 -34q-20 -67 -55.5 -121t-84.5 -91.5t-110 -57.5t-132 -20q-98 0 -173.5 36t-126.5 97.5t-77.5 143.5t-26.5 175z" />
<glyph unicode="&#xaa;" horiz-adv-x="753" d="M102 1003q2 59 29 94.5t68 56.5t90.5 32.5t95.5 20.5q30 6 61 12t61 11q-1 38 -11.5 62.5t-29 39t-45 20t-61.5 5.5q-22 0 -44 -3.5t-40.5 -13.5t-30.5 -26.5t-14 -42.5l-113 11q4 49 26 83.5t55.5 57t75.5 33t87 10.5q130 0 194.5 -63t64.5 -194v-402h-113v47 q-39 -30 -88.5 -42t-98.5 -13q-9 -1 -17 -0.5t-16 1.5q-95 8 -140.5 59.5t-45.5 143.5zM213 1003q-1 -54 27 -76t77 -22q62 0 100 14t58 41.5t26.5 69.5t6.5 98q-16 -3 -44 -7t-61 -10.5t-66.5 -16t-60.5 -22.5t-45 -30t-18 -39z" />
<glyph unicode="&#xab;" horiz-adv-x="1067" d="M132 519l376 370l82 -84l-289 -284l288 -273l-80 -84zM500 519l375 370l82 -84l-288 -284l287 -273l-80 -84z" />
<glyph unicode="&#xac;" horiz-adv-x="1188" d="M150 659v114h895v-425h-119v311h-776z" />
<glyph unicode="&#xad;" horiz-adv-x="1083" d="M162 525v114h744v-114h-744z" />
<glyph unicode="&#xae;" horiz-adv-x="1688" d="M100 721q0 103 26.5 197.5t75 176.5t116.5 149.5t151 115t178 73.5t197 26q103 0 198 -26t177.5 -73.5t150.5 -115t116.5 -149.5t75 -176.5t26.5 -197.5t-26.5 -198t-75 -177t-116.5 -149t-150.5 -115t-177.5 -74t-198 -26q-102 0 -197 26t-178 74t-151 115t-116.5 149 t-75 177t-26.5 198zM177 721q0 -92 24 -177.5t67 -159.5t104 -135t135 -104.5t159.5 -67t177.5 -23.5q139 0 260.5 52t212 142.5t142.5 212t52 260.5t-52 260.5t-142.5 212t-212 142.5t-260.5 52t-260.5 -52t-212 -142.5t-142.5 -212t-52 -260.5zM556 266v850h196h83t82 -3 q55 -4 103.5 -20.5t85 -47t57.5 -75t21 -104.5q0 -56 -24.5 -106t-68.5 -85q46 -33 69.5 -82.5t23.5 -106.5v-226h-117v44.5t0.5 62.5t0.5 63v45q0 51 -19 80t-50.5 43.5t-71 18.5t-80.5 4h-174v-355h-117zM673 733h244q30 0 57 8.5t48 25.5t33.5 42t12.5 57q0 48 -21 75.5 t-54 41t-72.5 17t-76.5 3.5h-171v-270z" />
<glyph unicode="&#xaf;" horiz-adv-x="1041" d="M182 1563v114h677v-114h-677z" />
<glyph unicode="&#xb0;" horiz-adv-x="895" d="M220 1090q6 61 30.5 114.5t63.5 93t91.5 62.5t115.5 23q51 0 89.5 -17.5t63.5 -49t36 -75t5 -96.5q-6 -61 -30 -114.5t-63 -93.5t-92 -63t-116 -23q-51 0 -89.5 17.5t-63.5 49.5t-35.5 76t-5.5 96zM289.5 961.5q15.5 -32.5 68.5 -32.5q54 0 97 21.5t76.5 56.5t59 79 t44.5 89q28 65 12.5 97.5t-69.5 32.5q-55 0 -97.5 -21.5t-76 -56t-58.5 -78.5t-44 -89q-28 -66 -12.5 -98.5z" />
<glyph unicode="&#xb1;" horiz-adv-x="1316" d="M162 -50v112h976v-112h-976zM162 527v112h430v429h116v-429h430v-112h-430v-422h-116v422h-430z" />
<glyph unicode="&#xb2;" horiz-adv-x="895" d="M92 899q0 54 17.5 94.5t46 71t65.5 54.5t76.5 45.5t78.5 43t71.5 47.5t55.5 59t31 77q4 19 4 43q0 38 -13 68.5t-35.5 53t-54 34.5t-68.5 12q-45 0 -77 -17t-53 -45t-30.5 -65t-9.5 -78h-105q0 62 18 117.5t52.5 97t86 65.5t118.5 24q58 0 108.5 -20t87.5 -55.5 t58.5 -84.5t21.5 -108q0 -58 -14.5 -102.5t-39 -79.5t-58 -62t-71.5 -50q-37 -22 -75 -41t-71.5 -39t-60 -44t-39.5 -56h440v-99h-559l-2 20t-1 19z" />
<glyph unicode="&#xb3;" horiz-adv-x="904" d="M89 1162h100q0 -44 13 -80t38 -62t61.5 -40.5t82.5 -14.5q43 0 79 13t61.5 37.5t40 59.5t14.5 79t-14 79.5t-40 60.5t-61.5 38.5t-79.5 13.5q-36 0 -71 -9l-16 34l196 211h-360v94h547l11 -24l-209 -226q47 -13 83.5 -39t62 -62t38.5 -79.5t13 -91.5q0 -64 -22.5 -116.5 t-62 -89.5t-93.5 -57t-117 -20q-66 0 -120.5 21t-93.5 59t-60 91.5t-21 119.5z" />
<glyph unicode="&#xb4;" horiz-adv-x="606" d="M181 1227l164 314h173l-238 -314h-99z" />
<glyph unicode="&#xb6;" horiz-adv-x="1143" d="M209 1167q0 53 18.5 101.5t52.5 86t82.5 59.5t108.5 22h500v-104h-129v-1332h-109v1332h-164v-1332h-111v898q-57 2 -103.5 24.5t-78.5 60t-49.5 85.5t-17.5 99z" />
<glyph unicode="&#xb7;" horiz-adv-x="568" d="M238 721q0 25 8 46.5t23.5 38t38 26t51.5 9.5t51 -9.5t37.5 -26t23.5 -38t8 -46.5t-8 -47t-23.5 -38.5t-37.5 -26t-51 -9.5t-51.5 9.5t-38 26t-23.5 38.5t-8 47z" />
<glyph unicode="&#xb8;" horiz-adv-x="447" d="M33 -399l70 89q26 -22 58.5 -36t67.5 -14q16 0 32 3.5t28.5 12t20.5 21.5t8 32q1 31 -13.5 50.5t-37 31t-50 15.5t-51.5 4q-17 0 -36 -1.5t-39 -5.5v64q2 4 18.5 28t37 53t38 54t21.5 31h142l-104 -139q40 -6 74 -18.5t59 -34t39 -53t14 -76.5q0 -43 -17 -76t-45 -56 t-65 -35t-77 -12q-53 0 -102 19.5t-91 48.5z" />
<glyph unicode="&#xb9;" horiz-adv-x="625" d="M61 1480l45 98l271 -7l-33 -657l-66 97l-29 533z" />
<glyph unicode="&#xba;" horiz-adv-x="788" d="M167 1090q6 61 30.5 114.5t63.5 93t92 62.5t116 23q51 0 89.5 -17.5t63.5 -49t36 -75t5 -96.5q-6 -61 -30.5 -114.5t-63.5 -93.5t-92 -63t-116 -23q-51 0 -89.5 17.5t-63.5 49.5t-35.5 76t-5.5 96zM236.5 961.5q15.5 -32.5 69.5 -32.5t96.5 21.5t76 56.5t59 79t44.5 89 q28 66 13 98t-69 32q-55 0 -98 -21t-76 -55.5t-58 -78.5t-45 -90q-28 -66 -12.5 -98.5z" />
<glyph unicode="&#xbb;" horiz-adv-x="996" d="M60 805l82 84l376 -370l-377 -355l-80 84l288 273zM421 805l82 84l375 -370l-376 -355l-80 84l288 273z" />
<glyph unicode="&#xbc;" horiz-adv-x="1703" d="M189 1195l308 243l22 -10v-768h-99v595l-170 -135zM310 0l891 1437h140l-892 -1437h-139zM798 180l595 782l44 -14v-718h84v-94h-84v-165h-100v165h-534zM959 230h378v499z" />
<glyph unicode="&#xbd;" horiz-adv-x="1703" d="M166 1278l345 178v-804h-99v645l-203 -105zM214 0l892 1437h133l-892 -1437h-133zM916 48q0 57 19 98.5t50.5 73t72 55.5t82 46.5t82 46t72 53.5t50.5 69t19 92q0 38 -13 68.5t-36 53t-54.5 34.5t-68.5 12q-44 0 -76 -17t-52.5 -45t-30.5 -65t-10 -77h-106q0 62 18 117.5 t53 96.5t86 65t118 24q59 0 109 -19.5t87.5 -54.5t58.5 -84.5t21 -108.5q0 -58 -14.5 -102.5t-39 -79.5t-57.5 -62t-71 -50q-37 -22 -75 -41t-72 -39t-60 -44t-40 -56h440v-99h-559l-2 20t-1 19z" />
<glyph unicode="&#xbe;" horiz-adv-x="1700" d="M34 920h100q0 -44 14 -79t40 -59.5t62 -37.5t79 -13t79 13t61.5 37.5t40 59.5t14.5 79t-14 79.5t-40 60.5t-61.5 38.5t-79.5 13.5q-36 0 -71 -9l-16 33l196 212h-360v94h547l11 -24l-209 -226q47 -13 83.5 -39t62 -62t38.5 -79.5t13 -91.5q0 -64 -22.5 -116.5t-62 -89.5 t-93.5 -57t-117 -20t-117 20t-93.5 57t-62 89.5t-22.5 116.5zM306 0l892 1437h140l-892 -1437h-140zM774 153l615 809l44 -14v-718h85v-94h-85v-165h-99v165h-551zM956 230h378v499z" />
<glyph unicode="&#xbf;" horiz-adv-x="1109" d="M145 108q0 65 16 112t42.5 81.5t61 60.5t71.5 48.5t74 46t68 53t53.5 69.5t31.5 95q7 44 4 104l116 6q2 -11 2 -23.5v-23.5q0 -81 -18 -139.5t-48 -101.5t-68 -74t-77.5 -56.5t-77.5 -49.5t-68 -53t-48 -66t-18 -89q0 -62 22.5 -115t61.5 -91.5t92 -60.5t115 -22t113 19 t88 54.5t57 85.5t20 111q0 18 -2 35.5t-6 35.5l114 21q11 -50 11 -100q0 -85 -31 -154t-84.5 -118t-125.5 -75.5t-154 -26.5q-85 0 -159.5 30.5t-129.5 84t-87 127t-32 159.5zM504 1007q0 48 30 77t78 29t79 -29t31 -77t-31 -76.5t-79 -28.5t-78 28.5t-30 76.5z" />
<glyph unicode="&#xc0;" horiz-adv-x="1188" d="M11 -1l546 1438h77l543 -1438h-124l-128 337h-661l-127 -337h-126zM307 448h576l-288 763zM410 1951l191 1l177 -317h-100z" />
<glyph unicode="&#xc1;" horiz-adv-x="1188" d="M11 -1l546 1438h77l543 -1438h-124l-128 337h-661l-127 -337h-126zM307 448h576l-288 763zM424 1633l164 313h178l-239 -313h-103z" />
<glyph unicode="&#xc2;" horiz-adv-x="1188" d="M11 -1l546 1438h77l543 -1438h-124l-128 337h-661l-127 -337h-126zM305 1647l245 322h89l245 -322h-105l-183 197l-176 -197h-115zM307 448h576l-288 763z" />
<glyph unicode="&#xc3;" horiz-adv-x="1188" d="M11 -1l546 1438h77l543 -1438h-124l-128 337h-661l-127 -337h-126zM243 1709q12 39 32.5 72t49 57.5t64 38.5t77.5 14q49 0 85.5 -17t67.5 -38t60 -38t64 -17q23 0 41.5 9t32.5 24t24 34t16 39l89 -27q-12 -39 -30 -73.5t-44 -60.5t-60.5 -41.5t-78.5 -15.5 q-48 0 -85 17.5t-68 38.5t-60 38.5t-61 17.5q-44 0 -79 -28t-47 -70zM307 448h576l-288 763z" />
<glyph unicode="&#xc4;" horiz-adv-x="1188" d="M11 -1l546 1438h77l543 -1438h-124l-128 337h-661l-127 -337h-126zM307 448h576l-288 763zM312 1770q0 44 28 74.5t79 30.5t78 -30.5t27 -74.5q0 -43 -27 -73.5t-78 -30.5t-79 30t-28 74zM663 1770q0 44 27.5 74.5t78.5 30.5t78.5 -30.5t27.5 -74.5q0 -43 -27.5 -73.5 t-78.5 -30.5t-78.5 30t-27.5 74z" />
<glyph unicode="&#xc5;" horiz-adv-x="1188" d="M11 -1l546 1438h77l543 -1438h-124l-128 337h-661l-127 -337h-126zM307 448h576l-288 763zM411 1850q0 41 13.5 74.5t38 57.5t58.5 37.5t74 13.5q41 0 74.5 -13.5t58 -37.5t38 -57.5t13.5 -74.5t-13.5 -75t-37.5 -58.5t-58 -38t-75 -13.5t-75 13.5t-58 38t-37.5 58.5 t-13.5 75zM503 1850q0 -43 24 -68t68 -25t68 25t24 68t-25 67t-67 24t-67 -24t-25 -67z" />
<glyph unicode="&#xc6;" horiz-adv-x="1982" d="M67 -1l965 1438h861v-112l-747 1v-525h691v-112h-691v-578h747v-112h-864v337h-597l-225 -337h-140zM507 448h522v783z" />
<glyph unicode="&#xc7;" horiz-adv-x="1459" d="M121 713q0 149 42 281t123.5 230.5t202.5 156t280 57.5q99 0 185.5 -24t159.5 -70t130 -111.5t97 -149.5l-102 -59q-63 142 -183.5 222t-286.5 80q-134 0 -234 -49t-166 -133t-98.5 -195.5t-32.5 -235.5t32.5 -235.5t98.5 -196t166 -134t234 -49.5q164 0 282 76.5 t182 213.5l104 -55q-40 -82 -97 -146.5t-129.5 -109t-158.5 -68t-183 -23.5q-158 0 -279 58t-203 157t-124 231t-42 281zM589 -462l70 89q26 -22 58.5 -36t67.5 -14q16 0 32 3.5t28.5 12t20.5 21.5t8 32q1 31 -13.5 50.5t-37 31t-50 15.5t-51.5 4q-17 0 -36 -1.5t-39 -5.5 v64q2 4 18.5 28t37 53t38 54t21.5 31h142l-104 -139q40 -6 74 -18.5t59 -34t39 -53t14 -76.5q0 -43 -17 -76t-45 -56t-65 -35t-77 -12q-53 0 -102 19.5t-91 48.5z" />
<glyph unicode="&#xc8;" horiz-adv-x="1127" d="M120 -1v1439l927 -1v-112l-809 1v-525h718v-112h-718v-578h809v-112h-927zM380 1951l191 1l177 -317h-100z" />
<glyph unicode="&#xc9;" horiz-adv-x="1127" d="M120 -1v1439l927 -1v-112l-809 1v-525h718v-112h-718v-578h809v-112h-927zM393 1633l164 313h178l-239 -313h-103z" />
<glyph unicode="&#xca;" horiz-adv-x="1127" d="M120 -1v1439l927 -1v-112l-809 1v-525h718v-112h-718v-578h809v-112h-927zM275 1647l245 322h89l245 -322h-105l-183 197l-176 -197h-115z" />
<glyph unicode="&#xcb;" horiz-adv-x="1127" d="M120 -1v1439l927 -1v-112l-809 1v-525h718v-112h-718v-578h809v-112h-927zM282 1770q0 44 28 74.5t79 30.5t78 -30.5t27 -74.5q0 -43 -27 -73.5t-78 -30.5t-79 30t-28 74zM633 1770q0 44 27.5 74.5t78.5 30.5t78.5 -30.5t27.5 -74.5q0 -43 -27.5 -73.5t-78.5 -30.5 t-78.5 30t-27.5 74z" />
<glyph unicode="&#xcc;" horiz-adv-x="358" d="M-5 1951l191 1l177 -317h-100zM120 0v1437h118v-1437h-118z" />
<glyph unicode="&#xcd;" horiz-adv-x="358" d="M7 1633l164 313h178l-239 -313h-103zM120 0v1437h118v-1437h-118z" />
<glyph unicode="&#xce;" horiz-adv-x="358" d="M-111 1647l245 322h89l245 -322h-105l-183 197l-176 -197h-115zM120 0v1437h118v-1437h-118z" />
<glyph unicode="&#xcf;" horiz-adv-x="358" d="M-103 1770q0 44 28 74.5t79 30.5t78 -30.5t27 -74.5q0 -43 -27 -73.5t-78 -30.5t-79 30t-28 74zM120 0v1437h118v-1437h-118zM248 1770q0 44 27.5 74.5t78.5 30.5t78.5 -30.5t27.5 -74.5q0 -43 -27.5 -73.5t-78.5 -30.5t-78.5 30t-27.5 74z" />
<glyph unicode="&#xd0;" horiz-adv-x="1360" d="M18 627v114h744v-114h-744zM120 0v1446q114 -2 232 -2t236 -5q158 -7 279.5 -61.5t204 -149.5t125 -225.5t42.5 -289.5q0 -150 -42 -280t-124.5 -226t-203.5 -151.5t-279 -55.5q-110 0 -219 -0.5t-220 -0.5v1h-31zM238 111l352 1q134 0 234 47t166 128.5t99 191t33 234.5 q0 131 -32 240t-97.5 189.5t-164.5 128.5t-233 55q-90 3 -179.5 3.5t-177.5 2.5v-1221z" />
<glyph unicode="&#xd1;" horiz-adv-x="1364" d="M120 0v1437h114l891 -1236v1236h118v-1437h-111l-894 1234v-1234h-118zM330 1709q12 39 32.5 72t49 57.5t64 38.5t77.5 14q49 0 85.5 -17t67.5 -38t60 -38t64 -17q23 0 41.5 9t32.5 24t24 34t16 39l89 -27q-12 -39 -30 -73.5t-44 -60.5t-60.5 -41.5t-78.5 -15.5 q-48 0 -85 17.5t-68 38.5t-60 38.5t-61 17.5q-44 0 -79 -28t-47 -70z" />
<glyph unicode="&#xd2;" horiz-adv-x="1537" d="M121 719q0 153 43 288.5t127 236.5t208 160t287 59q162 0 286 -59t208 -160.5t127 -237t43 -287.5t-43 -287.5t-127 -237t-208 -161t-286 -59.5q-108 0 -199.5 27t-165.5 76t-130 117t-94 151t-57 177.5t-19 196.5zM240 719q0 -127 33.5 -241.5t101.5 -201t170.5 -137.5 t240.5 -51q137 0 239.5 51t170 138t101 201.5t33.5 240.5q0 127 -33.5 241t-101 200.5t-169.5 137.5t-240 51t-240.5 -50.5t-170.5 -137t-101.5 -200.5t-33.5 -242zM585 1951l191 1l177 -317h-100z" />
<glyph unicode="&#xd3;" horiz-adv-x="1537" d="M121 719q0 153 43 288.5t127 236.5t208 160t287 59q162 0 286 -59t208 -160.5t127 -237t43 -287.5t-43 -287.5t-127 -237t-208 -161t-286 -59.5q-108 0 -199.5 27t-165.5 76t-130 117t-94 151t-57 177.5t-19 196.5zM240 719q0 -127 33.5 -241.5t101.5 -201t170.5 -137.5 t240.5 -51q137 0 239.5 51t170 138t101 201.5t33.5 240.5q0 127 -33.5 241t-101 200.5t-169.5 137.5t-240 51t-240.5 -50.5t-170.5 -137t-101.5 -200.5t-33.5 -242zM598 1633l164 313h178l-239 -313h-103z" />
<glyph unicode="&#xd4;" horiz-adv-x="1537" d="M121 719q0 153 43 288.5t127 236.5t208 160t287 59q162 0 286 -59t208 -160.5t127 -237t43 -287.5t-43 -287.5t-127 -237t-208 -161t-286 -59.5q-108 0 -199.5 27t-165.5 76t-130 117t-94 151t-57 177.5t-19 196.5zM240 719q0 -127 33.5 -241.5t101.5 -201t170.5 -137.5 t240.5 -51q137 0 239.5 51t170 138t101 201.5t33.5 240.5q0 127 -33.5 241t-101 200.5t-169.5 137.5t-240 51t-240.5 -50.5t-170.5 -137t-101.5 -200.5t-33.5 -242zM480 1647l245 322h89l245 -322h-105l-183 197l-176 -197h-115z" />
<glyph unicode="&#xd5;" horiz-adv-x="1537" d="M121 719q0 153 43 288.5t127 236.5t208 160t287 59q162 0 286 -59t208 -160.5t127 -237t43 -287.5t-43 -287.5t-127 -237t-208 -161t-286 -59.5q-108 0 -199.5 27t-165.5 76t-130 117t-94 151t-57 177.5t-19 196.5zM240 719q0 -127 33.5 -241.5t101.5 -201t170.5 -137.5 t240.5 -51q137 0 239.5 51t170 138t101 201.5t33.5 240.5q0 127 -33.5 241t-101 200.5t-169.5 137.5t-240 51t-240.5 -50.5t-170.5 -137t-101.5 -200.5t-33.5 -242zM417 1709q12 39 32.5 72t49 57.5t64 38.5t77.5 14q49 0 85.5 -17t67.5 -38t60 -38t64 -17q23 0 41.5 9 t32.5 24t24 34t16 39l89 -27q-12 -39 -30 -73.5t-44 -60.5t-60.5 -41.5t-78.5 -15.5q-48 0 -85 17.5t-68 38.5t-60 38.5t-61 17.5q-44 0 -79 -28t-47 -70z" />
<glyph unicode="&#xd6;" horiz-adv-x="1537" d="M121 719q0 153 43 288.5t127 236.5t208 160t287 59q162 0 286 -59t208 -160.5t127 -237t43 -287.5t-43 -287.5t-127 -237t-208 -161t-286 -59.5q-108 0 -199.5 27t-165.5 76t-130 117t-94 151t-57 177.5t-19 196.5zM240 719q0 -127 33.5 -241.5t101.5 -201t170.5 -137.5 t240.5 -51q137 0 239.5 51t170 138t101 201.5t33.5 240.5q0 127 -33.5 241t-101 200.5t-169.5 137.5t-240 51t-240.5 -50.5t-170.5 -137t-101.5 -200.5t-33.5 -242zM487 1770q0 44 28 74.5t79 30.5t78 -30.5t27 -74.5q0 -43 -27 -73.5t-78 -30.5t-79 30t-28 74zM838 1770 q0 44 27.5 74.5t78.5 30.5t78.5 -30.5t27.5 -74.5q0 -43 -27.5 -73.5t-78.5 -30.5t-78.5 30t-27.5 74z" />
<glyph unicode="&#xd7;" horiz-adv-x="1195" d="M162 1023l82 84l354 -345l354 345l82 -84l-352 -343l349 -341l-82 -84l-351 342l-351 -342l-82 84l349 341z" />
<glyph unicode="&#xd8;" horiz-adv-x="1537" d="M121 719q0 153 43 288.5t127 236.5t208 160t287 59q162 0 286 -59t208 -160.5t127 -237t43 -287.5t-43 -287.5t-127 -237t-208 -161t-286 -59.5q-108 0 -199.5 27t-165.5 76t-130 117t-94 151t-57 177.5t-19 196.5zM240 719q0 -127 33.5 -241.5t101.5 -201t170.5 -137.5 t240.5 -51q137 0 239.5 51t170 138t101 201.5t33.5 240.5q0 127 -33.5 241t-101 200.5t-169.5 137.5t-240 51t-240.5 -50.5t-170.5 -137t-101.5 -200.5t-33.5 -242zM404 0l603 1437h126l-602 -1437h-127z" />
<glyph unicode="&#xd9;" horiz-adv-x="1261" d="M120 505v932h118v-932q0 -87 28 -162.5t79.5 -130.5t124 -86.5t161.5 -31.5t161.5 31.5t123.5 86.5t79 130.5t28 162.5v932h118v-932q0 -113 -37 -209t-104 -165.5t-161 -109t-208 -39.5t-208 39.5t-161.5 109t-104.5 165.5t-37 209zM447 1951l191 1l177 -317h-100z" />
<glyph unicode="&#xda;" horiz-adv-x="1261" d="M120 505v932h118v-932q0 -87 28 -162.5t79.5 -130.5t124 -86.5t161.5 -31.5t161.5 31.5t123.5 86.5t79 130.5t28 162.5v932h118v-932q0 -113 -37 -209t-104 -165.5t-161 -109t-208 -39.5t-208 39.5t-161.5 109t-104.5 165.5t-37 209zM460 1633l164 313h178l-239 -313 h-103z" />
<glyph unicode="&#xdb;" horiz-adv-x="1261" d="M120 505v932h118v-932q0 -87 28 -162.5t79.5 -130.5t124 -86.5t161.5 -31.5t161.5 31.5t123.5 86.5t79 130.5t28 162.5v932h118v-932q0 -113 -37 -209t-104 -165.5t-161 -109t-208 -39.5t-208 39.5t-161.5 109t-104.5 165.5t-37 209zM341 1647l245 322h89l245 -322h-105 l-183 197l-176 -197h-115z" />
<glyph unicode="&#xdc;" horiz-adv-x="1261" d="M120 505v932h118v-932q0 -87 28 -162.5t79.5 -130.5t124 -86.5t161.5 -31.5t161.5 31.5t123.5 86.5t79 130.5t28 162.5v932h118v-932q0 -113 -37 -209t-104 -165.5t-161 -109t-208 -39.5t-208 39.5t-161.5 109t-104.5 165.5t-37 209zM349 1770q0 44 28 74.5t79 30.5 t78 -30.5t27 -74.5q0 -43 -27 -73.5t-78 -30.5t-79 30t-28 74zM700 1770q0 44 27.5 74.5t78.5 30.5t78.5 -30.5t27.5 -74.5q0 -43 -27.5 -73.5t-78.5 -30.5t-78.5 30t-27.5 74z" />
<glyph unicode="&#xdd;" horiz-adv-x="1320" d="M81 1437h133l446 -778l446 778h134l-523 -913l1 -524h-118v531zM490 1633l164 313h178l-239 -313h-103z" />
<glyph unicode="&#xde;" horiz-adv-x="932" d="M100 0v1437h120v-284h225q82 0 152.5 -26.5t122.5 -75t82 -117t30 -152.5t-30 -152.5t-82 -117t-122.5 -75t-152.5 -26.5h-225v-411h-120zM220 525h225q57 0 106 18.5t85 52t56.5 81t20.5 105.5q0 59 -20.5 106t-56.5 81t-85 52t-106 18h-225v-514z" />
<glyph unicode="&#xe0;" horiz-adv-x="1055" d="M121 306q0 74 26 126.5t69.5 87.5t100.5 55.5t119 31t125 13t119 2.5q35 0 69 -1l68 -2v9q0 152 -70.5 222.5t-221.5 70.5q-45 0 -90 -9t-81.5 -30.5t-60.5 -56.5t-27 -88l-118 10q7 77 41 131t86.5 88.5t118 50.5t134.5 16q203 0 305 -99.5t102 -303.5q0 -158 -0.5 -315 t-0.5 -315h-112l-6 113q-33 -36 -74 -60.5t-87 -39t-94.5 -21t-95.5 -6.5q-76 0 -139 20.5t-108.5 60.5t-71 100t-25.5 139zM238 306q0 -110 61 -159t166 -49q74 0 136.5 14.5t109 48t74.5 88t32 135.5v122q-40 2 -79.5 3t-79.5 1q-37 0 -82.5 -1t-92 -7t-91 -19 t-78.5 -35.5t-55 -57t-21 -84.5zM336 1434l191 2l177 -318h-100z" />
<glyph unicode="&#xe1;" horiz-adv-x="1055" d="M121 306q0 74 26 126.5t69.5 87.5t100.5 55.5t119 31t125 13t119 2.5q35 0 69 -1l68 -2v9q0 152 -70.5 222.5t-221.5 70.5q-45 0 -90 -9t-81.5 -30.5t-60.5 -56.5t-27 -88l-118 10q7 77 41 131t86.5 88.5t118 50.5t134.5 16q203 0 305 -99.5t102 -303.5q0 -158 -0.5 -315 t-0.5 -315h-112l-6 113q-33 -36 -74 -60.5t-87 -39t-94.5 -21t-95.5 -6.5q-76 0 -139 20.5t-108.5 60.5t-71 100t-25.5 139zM238 306q0 -110 61 -159t166 -49q74 0 136.5 14.5t109 48t74.5 88t32 135.5v122q-40 2 -79.5 3t-79.5 1q-37 0 -82.5 -1t-92 -7t-91 -19 t-78.5 -35.5t-55 -57t-21 -84.5zM432 1108l164 314h173l-238 -314h-99z" />
<glyph unicode="&#xe2;" horiz-adv-x="1055" d="M121 306q0 74 26 126.5t69.5 87.5t100.5 55.5t119 31t125 13t119 2.5q35 0 69 -1l68 -2v9q0 152 -70.5 222.5t-221.5 70.5q-45 0 -90 -9t-81.5 -30.5t-60.5 -56.5t-27 -88l-118 10q7 77 41 131t86.5 88.5t118 50.5t134.5 16q203 0 305 -99.5t102 -303.5q0 -158 -0.5 -315 t-0.5 -315h-112l-6 113q-33 -36 -74 -60.5t-87 -39t-94.5 -21t-95.5 -6.5q-76 0 -139 20.5t-108.5 60.5t-71 100t-25.5 139zM226 1119l246 322h88l246 -322h-106l-182 197l-177 -197h-115zM238 306q0 -110 61 -159t166 -49q74 0 136.5 14.5t109 48t74.5 88t32 135.5v122 q-40 2 -79.5 3t-79.5 1q-37 0 -82.5 -1t-92 -7t-91 -19t-78.5 -35.5t-55 -57t-21 -84.5z" />
<glyph unicode="&#xe3;" horiz-adv-x="1055" d="M121 306q0 74 26 126.5t69.5 87.5t100.5 55.5t119 31t125 13t119 2.5q35 0 69 -1l68 -2v9q0 152 -70.5 222.5t-221.5 70.5q-45 0 -90 -9t-81.5 -30.5t-60.5 -56.5t-27 -88l-118 10q7 77 41 131t86.5 88.5t118 50.5t134.5 16q203 0 305 -99.5t102 -303.5q0 -158 -0.5 -315 t-0.5 -315h-112l-6 113q-33 -36 -74 -60.5t-87 -39t-94.5 -21t-95.5 -6.5q-76 0 -139 20.5t-108.5 60.5t-71 100t-25.5 139zM180 1179q12 40 32 73t48 57t64 37.5t79 13.5q53 0 89 -17t65.5 -38t57.5 -38t65 -17q23 0 41.5 9t32.5 24t23.5 34.5t15.5 39.5l90 -27 q-12 -39 -30 -73.5t-44 -60.5t-60.5 -41.5t-78.5 -15.5q-35 0 -62.5 8t-50.5 20.5t-42.5 27t-38.5 27t-38.5 20.5t-41.5 8q-45 0 -79.5 -28t-46.5 -70zM238 306q0 -110 61 -159t166 -49q74 0 136.5 14.5t109 48t74.5 88t32 135.5v122q-40 2 -79.5 3t-79.5 1q-37 0 -82.5 -1 t-92 -7t-91 -19t-78.5 -35.5t-55 -57t-21 -84.5z" />
<glyph unicode="&#xe4;" horiz-adv-x="1055" d="M121 306q0 74 26 126.5t69.5 87.5t100.5 55.5t119 31t125 13t119 2.5q35 0 69 -1l68 -2v9q0 152 -70.5 222.5t-221.5 70.5q-45 0 -90 -9t-81.5 -30.5t-60.5 -56.5t-27 -88l-118 10q7 77 41 131t86.5 88.5t118 50.5t134.5 16q203 0 305 -99.5t102 -303.5q0 -158 -0.5 -315 t-0.5 -315h-112l-6 113q-33 -36 -74 -60.5t-87 -39t-94.5 -21t-95.5 -6.5q-76 0 -139 20.5t-108.5 60.5t-71 100t-25.5 139zM238 306q0 -110 61 -159t166 -49q74 0 136.5 14.5t109 48t74.5 88t32 135.5v122q-40 2 -79.5 3t-79.5 1q-37 0 -82.5 -1t-92 -7t-91 -19 t-78.5 -35.5t-55 -57t-21 -84.5zM257 1252q0 44 27 74t78 30t78 -30.5t27 -73.5t-27 -73t-78 -30t-78 30t-27 73zM599 1252q0 44 27.5 74t78.5 30t78 -30.5t27 -73.5t-27 -73t-78 -30t-78.5 30t-27.5 73z" />
<glyph unicode="&#xe5;" horiz-adv-x="1055" d="M121 306q0 74 26 126.5t69.5 87.5t100.5 55.5t119 31t125 13t119 2.5q35 0 69 -1l68 -2v9q0 152 -70.5 222.5t-221.5 70.5q-45 0 -90 -9t-81.5 -30.5t-60.5 -56.5t-27 -88l-118 10q7 77 41 131t86.5 88.5t118 50.5t134.5 16q203 0 305 -99.5t102 -303.5q0 -158 -0.5 -315 t-0.5 -315h-112l-6 113q-33 -36 -74 -60.5t-87 -39t-94.5 -21t-95.5 -6.5q-76 0 -139 20.5t-108.5 60.5t-71 100t-25.5 139zM238 306q0 -110 61 -159t166 -49q74 0 136.5 14.5t109 48t74.5 88t32 135.5v122q-40 2 -79.5 3t-79.5 1q-37 0 -82.5 -1t-92 -7t-91 -19 t-78.5 -35.5t-55 -57t-21 -84.5zM356 1327q0 38 13 71.5t37 58t59 39t78 14.5q44 0 78.5 -14.5t58.5 -39t37 -58t13 -71.5t-12.5 -72t-36.5 -59t-59 -39.5t-79 -14.5t-79 14.5t-59 39.5t-36.5 59t-12.5 72zM449 1327q0 -44 24.5 -69.5t69.5 -25.5t69.5 25.5t24.5 69.5 t-25 68.5t-69 24.5t-69 -24.5t-25 -68.5z" />
<glyph unicode="&#xe6;" horiz-adv-x="1736" d="M56 306q0 62 20.5 105.5t55 73t80.5 47t96 28t101 16t97 10.5q13 2 25 3t25 2q49 5 98.5 10.5t98.5 12.5v27q0 78 -18.5 131.5t-55 86.5t-91 47.5t-127.5 14.5q-45 0 -89.5 -9.5t-81.5 -31t-61.5 -56.5t-27.5 -87l-117 10q6 75 40 128.5t85 88t115.5 51t131.5 17.5 q3 1 8 1q83 0 151.5 -18.5t120 -57.5t83.5 -100t42 -146q15 88 56.5 149t102 99.5t136.5 56t159 17.5q76 0 139 -20.5t108.5 -60.5t70.5 -100t25 -139q0 -60 -17.5 -101.5t-48.5 -69.5t-74 -46t-95 -31q-6 -2 -9 -2q-55 -13 -111.5 -21t-113.5 -13.5t-113.5 -10 t-113.5 -11.5v-29q0 -138 60 -203t183 -74q23 -3 48 -3q45 0 90 9.5t82 31t61 57t28 87.5l117 -11q-6 -76 -40.5 -130.5t-87 -89t-118 -50.5t-134.5 -16q-83 0 -151.5 18.5t-120 58t-83.5 101t-41 146.5q-16 -89 -58 -150.5t-102 -100t-135.5 -56t-159.5 -17.5 q-76 0 -139 20.5t-108.5 60.5t-71 100t-25.5 139zM174 306q0 -55 16 -94t45 -64.5t71 -37.5t94 -12q92 0 158 19t109 60.5t63.5 106t21.5 155.5v61q-97 -12 -193.5 -22t-193.5 -24q-35 -6 -69.5 -13t-61.5 -22t-43.5 -41.5t-16.5 -71.5zM962 519q98 12 194.5 22.5 t194.5 24.5q36 5 70 11.5t61 21.5t43 41.5t16 72.5q0 55 -16 94t-45.5 64.5t-71 37.5t-93.5 12q-91 0 -157.5 -19t-109.5 -60.5t-64 -106t-21 -155.5q-1 -15 -1 -30.5v-30.5z" />
<glyph unicode="&#xe7;" horiz-adv-x="1161" d="M119 519q0 110 30.5 206.5t90.5 169.5t149 115t206 42q82 0 153 -23t128.5 -66t99.5 -105t66 -140l-111 -33q-37 118 -123.5 186t-212.5 68q-92 0 -159.5 -34t-112 -91.5t-66 -134t-21.5 -160.5t21.5 -160.5t66 -134t112 -92t159.5 -34.5q125 0 211.5 68t123.5 185 l110 -36q-24 -77 -66.5 -138t-99.5 -103.5t-127.5 -65t-151.5 -22.5q-117 0 -206 42.5t-149 115t-90.5 169.5t-30.5 206zM390 -462l70 89q26 -22 58.5 -36t67.5 -14q16 0 32 3.5t28.5 12t20.5 21.5t8 32q1 31 -13.5 50.5t-37 31t-50 15.5t-51.5 4q-17 0 -36 -1.5t-39 -5.5 v64q2 4 18.5 28t37 53t38 54t21.5 31h142l-104 -139q40 -6 74 -18.5t59 -34t39 -53t14 -76.5q0 -43 -17 -76t-45 -56t-65 -35t-77 -12q-53 0 -102 19.5t-91 48.5z" />
<glyph unicode="&#xe8;" horiz-adv-x="1193" d="M121 519q0 110 31 207t91 169.5t149 114.5t205 42q119 0 208.5 -43.5t149 -117.5t89 -172t29.5 -208l-835 3q1 -84 23 -159.5t66.5 -132.5t111.5 -90.5t158 -33.5q118 0 203 60.5t125 170.5l111 -37q-26 -72 -69 -129t-99.5 -96t-125 -60t-145.5 -21q-116 0 -205 42.5 t-149 115t-91 169.5t-31 206zM247 626l700 -3q-11 69 -39.5 127t-73.5 100t-104.5 65.5t-132.5 23.5q-76 0 -136 -24t-103.5 -66t-71 -99t-39.5 -124zM407 1434l191 2l177 -318h-100z" />
<glyph unicode="&#xe9;" horiz-adv-x="1193" d="M121 519q0 110 31 207t91 169.5t149 114.5t205 42q119 0 208.5 -43.5t149 -117.5t89 -172t29.5 -208l-835 3q1 -84 23 -159.5t66.5 -132.5t111.5 -90.5t158 -33.5q118 0 203 60.5t125 170.5l111 -37q-26 -72 -69 -129t-99.5 -96t-125 -60t-145.5 -21q-116 0 -205 42.5 t-149 115t-91 169.5t-31 206zM247 626l700 -3q-11 69 -39.5 127t-73.5 100t-104.5 65.5t-132.5 23.5q-76 0 -136 -24t-103.5 -66t-71 -99t-39.5 -124zM503 1108l164 314h173l-238 -314h-99z" />
<glyph unicode="&#xea;" horiz-adv-x="1193" d="M121 519q0 110 31 207t91 169.5t149 114.5t205 42q119 0 208.5 -43.5t149 -117.5t89 -172t29.5 -208l-835 3q1 -84 23 -159.5t66.5 -132.5t111.5 -90.5t158 -33.5q118 0 203 60.5t125 170.5l111 -37q-26 -72 -69 -129t-99.5 -96t-125 -60t-145.5 -21q-116 0 -205 42.5 t-149 115t-91 169.5t-31 206zM247 626l700 -3q-11 69 -39.5 127t-73.5 100t-104.5 65.5t-132.5 23.5q-76 0 -136 -24t-103.5 -66t-71 -99t-39.5 -124zM297 1119l246 322h88l246 -322h-106l-182 197l-177 -197h-115z" />
<glyph unicode="&#xeb;" horiz-adv-x="1193" d="M121 519q0 110 31 207t91 169.5t149 114.5t205 42q119 0 208.5 -43.5t149 -117.5t89 -172t29.5 -208l-835 3q1 -84 23 -159.5t66.5 -132.5t111.5 -90.5t158 -33.5q118 0 203 60.5t125 170.5l111 -37q-26 -72 -69 -129t-99.5 -96t-125 -60t-145.5 -21q-116 0 -205 42.5 t-149 115t-91 169.5t-31 206zM247 626l700 -3q-11 69 -39.5 127t-73.5 100t-104.5 65.5t-132.5 23.5q-76 0 -136 -24t-103.5 -66t-71 -99t-39.5 -124zM328 1252q0 44 27 74t78 30t78 -30.5t27 -73.5t-27 -73t-78 -30t-78 30t-27 73zM670 1252q0 44 27.5 74t78.5 30t78 -30.5 t27 -73.5t-27 -73t-78 -30t-78.5 30t-27.5 73z" />
<glyph unicode="&#xec;" horiz-adv-x="326" d="M-33 1420l191 2l177 -318h-100zM101 4v1029h120v-1029h-120z" />
<glyph unicode="&#xed;" horiz-adv-x="326" d="M63 1094l164 314h173l-238 -314h-99zM101 4v1029h120v-1029h-120z" />
<glyph unicode="&#xee;" horiz-adv-x="326" d="M-144 1105l246 322h88l246 -322h-106l-182 197l-177 -197h-115zM101 4v1029h120v-1029h-120z" />
<glyph unicode="&#xef;" horiz-adv-x="326" d="M-112 1238q0 44 27 74t78 30t78 -30.5t27 -73.5t-27 -73t-78 -30t-78 30t-27 73zM101 4v1029h120v-1029h-120zM230 1238q0 44 27.5 74t78.5 30t78 -30.5t27 -73.5t-27 -73t-78 -30t-78.5 30t-27.5 73z" />
<glyph unicode="&#xf0;" horiz-adv-x="1178" d="M93 506q0 110 30.5 209t91 174t150.5 119.5t208 44.5q58 0 110 -17.5t97 -55.5l3 3q-39 69 -85.5 133t-103.5 120l-300 -149l-49 95l269 130q-63 56 -130 106.5t-136 97.5h209q47 -32 90.5 -68t86.5 -74l296 146l52 -93l-270 -131q158 -158 241.5 -354.5t83.5 -420.5 q0 -109 -30 -207.5t-89 -173.5t-148 -119t-206 -44q-120 0 -208.5 40.5t-147 111.5t-87 168t-28.5 209zM220 508q0 -79 19.5 -153t61.5 -131t108.5 -91.5t160.5 -34.5q92 0 156.5 36.5t105 95.5t59 133.5t18.5 150.5q0 81 -14.5 156.5t-52 133.5t-102 92.5t-163.5 34.5 q-95 0 -162.5 -36.5t-111 -96t-63.5 -135.5t-20 -155z" />
<glyph unicode="&#xf1;" horiz-adv-x="1053" d="M121 1025h117v-144q27 40 65 71.5t82.5 53t94 33t99.5 11.5q79 0 144 -25t111.5 -70.5t72 -109.5t25.5 -142l-2 -702h-118l3 702q0 57 -18 101t-51.5 74t-80 45.5t-103.5 15.5q-42 0 -93.5 -13.5t-98.5 -39t-83 -61.5t-48 -81l1 -743h-117zM189 1179q12 40 32 73t48 57 t64 37.5t79 13.5q53 0 89 -17t65.5 -38t57.5 -38t65 -17q23 0 41.5 9t32.5 24t23.5 34.5t15.5 39.5l90 -27q-12 -39 -30 -73.5t-44 -60.5t-60.5 -41.5t-78.5 -15.5q-35 0 -62.5 8t-50.5 20.5t-42.5 27t-38.5 27t-38.5 20.5t-41.5 8q-45 0 -79.5 -28t-46.5 -70z" />
<glyph unicode="&#xf2;" horiz-adv-x="1193" d="M121 519q0 119 34 217t96 168.5t150 109t196 38.5t195.5 -39t150 -109t96.5 -168t34 -217q0 -118 -34 -216.5t-96.5 -168.5t-150 -109t-195.5 -39t-196 38.5t-150 109t-96 168.5t-34 217zM238 519q0 -94 24.5 -171.5t71 -133t113 -86t150.5 -30.5t150.5 30.5t113 86 t71 133t24.5 171.5t-24.5 171.5t-71 132.5t-113 85.5t-150.5 30.5t-150.5 -30.5t-113 -85.5t-71 -132.5t-24.5 -171.5zM407 1434l191 2l177 -318h-100z" />
<glyph unicode="&#xf3;" horiz-adv-x="1193" d="M121 519q0 119 34 217t96 168.5t150 109t196 38.5t195.5 -39t150 -109t96.5 -168t34 -217q0 -118 -34 -216.5t-96.5 -168.5t-150 -109t-195.5 -39t-196 38.5t-150 109t-96 168.5t-34 217zM238 519q0 -94 24.5 -171.5t71 -133t113 -86t150.5 -30.5t150.5 30.5t113 86 t71 133t24.5 171.5t-24.5 171.5t-71 132.5t-113 85.5t-150.5 30.5t-150.5 -30.5t-113 -85.5t-71 -132.5t-24.5 -171.5zM503 1108l164 314h173l-238 -314h-99z" />
<glyph unicode="&#xf4;" horiz-adv-x="1193" d="M121 519q0 119 34 217t96 168.5t150 109t196 38.5t195.5 -39t150 -109t96.5 -168t34 -217q0 -118 -34 -216.5t-96.5 -168.5t-150 -109t-195.5 -39t-196 38.5t-150 109t-96 168.5t-34 217zM238 519q0 -94 24.5 -171.5t71 -133t113 -86t150.5 -30.5t150.5 30.5t113 86 t71 133t24.5 171.5t-24.5 171.5t-71 132.5t-113 85.5t-150.5 30.5t-150.5 -30.5t-113 -85.5t-71 -132.5t-24.5 -171.5zM297 1119l246 322h88l246 -322h-106l-182 197l-177 -197h-115z" />
<glyph unicode="&#xf5;" horiz-adv-x="1193" d="M121 519q0 119 34 217t96 168.5t150 109t196 38.5t195.5 -39t150 -109t96.5 -168t34 -217q0 -118 -34 -216.5t-96.5 -168.5t-150 -109t-195.5 -39t-196 38.5t-150 109t-96 168.5t-34 217zM238 519q0 -94 24.5 -171.5t71 -133t113 -86t150.5 -30.5t150.5 30.5t113 86 t71 133t24.5 171.5t-24.5 171.5t-71 132.5t-113 85.5t-150.5 30.5t-150.5 -30.5t-113 -85.5t-71 -132.5t-24.5 -171.5zM251 1179q12 40 32 73t48 57t64 37.5t79 13.5q53 0 89 -17t65.5 -38t57.5 -38t65 -17q23 0 41.5 9t32.5 24t23.5 34.5t15.5 39.5l90 -27 q-12 -39 -30 -73.5t-44 -60.5t-60.5 -41.5t-78.5 -15.5q-35 0 -62.5 8t-50.5 20.5t-42.5 27t-38.5 27t-38.5 20.5t-41.5 8q-45 0 -79.5 -28t-46.5 -70z" />
<glyph unicode="&#xf6;" horiz-adv-x="1193" d="M121 519q0 119 34 217t96 168.5t150 109t196 38.5t195.5 -39t150 -109t96.5 -168t34 -217q0 -118 -34 -216.5t-96.5 -168.5t-150 -109t-195.5 -39t-196 38.5t-150 109t-96 168.5t-34 217zM238 519q0 -94 24.5 -171.5t71 -133t113 -86t150.5 -30.5t150.5 30.5t113 86 t71 133t24.5 171.5t-24.5 171.5t-71 132.5t-113 85.5t-150.5 30.5t-150.5 -30.5t-113 -85.5t-71 -132.5t-24.5 -171.5zM328 1252q0 44 27 74t78 30t78 -30.5t27 -73.5t-27 -73t-78 -30t-78 30t-27 73zM670 1252q0 44 27.5 74t78.5 30t78 -30.5t27 -73.5t-27 -73t-78 -30 t-78.5 30t-27.5 73z" />
<glyph unicode="&#xf7;" horiz-adv-x="1218" d="M162 527v112h880v-112h-880zM486 317q0 21 7.5 40t21 33.5t33 23t44.5 8.5t44.5 -8.5t33 -23t21 -33.5t7.5 -40t-7.5 -40t-21 -34t-33 -23.5t-44.5 -8.5t-44.5 8.5t-33 23.5t-21 34t-7.5 40zM486 837q0 21 7.5 40t21 33.5t33 23t44.5 8.5t44.5 -8.5t33 -23t21 -33.5 t7.5 -40t-7.5 -40t-21 -33.5t-33 -23.5t-44.5 -9t-44.5 9t-33 23.5t-21 33.5t-7.5 40z" />
<glyph unicode="&#xf8;" horiz-adv-x="1193" d="M121 519q0 119 34 217t96 168.5t150 109t196 38.5t195.5 -39t150 -109t96.5 -168t34 -217q0 -118 -34 -216.5t-96.5 -168.5t-150 -109t-195.5 -39t-196 38.5t-150 109t-96 168.5t-34 217zM196 -133l603 1437h126l-602 -1437h-127zM238 519q0 -94 24.5 -171.5t71 -133 t113 -86t150.5 -30.5t150.5 30.5t113 86t71 133t24.5 171.5t-24.5 171.5t-71 132.5t-113 85.5t-150.5 30.5t-150.5 -30.5t-113 -85.5t-71 -132.5t-24.5 -171.5z" />
<glyph unicode="&#xf9;" horiz-adv-x="1053" d="M121 333q0 177 0.5 347t1.5 348h118l-3 -695q0 -58 19 -102t53 -74t80 -45t101 -15q47 0 97 13.5t94 39t79 61.5t51 82l2 -1l-1 736h117l2 -1017h-117v143q-28 -40 -65.5 -71.5t-81 -53t-91.5 -32.5t-96 -11q-78 0 -144 24t-114 69t-75 109.5t-27 144.5zM329 1448l191 2 l177 -318h-100z" />
<glyph unicode="&#xfa;" horiz-adv-x="1053" d="M121 333q0 177 0.5 347t1.5 348h118l-3 -695q0 -58 19 -102t53 -74t80 -45t101 -15q47 0 97 13.5t94 39t79 61.5t51 82l2 -1l-1 736h117l2 -1017h-117v143q-28 -40 -65.5 -71.5t-81 -53t-91.5 -32.5t-96 -11q-78 0 -144 24t-114 69t-75 109.5t-27 144.5zM426 1122 l164 314h173l-238 -314h-99z" />
<glyph unicode="&#xfb;" horiz-adv-x="1053" d="M121 333q0 177 0.5 347t1.5 348h118l-3 -695q0 -58 19 -102t53 -74t80 -45t101 -15q47 0 97 13.5t94 39t79 61.5t51 82l2 -1l-1 736h117l2 -1017h-117v143q-28 -40 -65.5 -71.5t-81 -53t-91.5 -32.5t-96 -11q-78 0 -144 24t-114 69t-75 109.5t-27 144.5zM219 1133 l246 322h88l246 -322h-106l-182 197l-177 -197h-115z" />
<glyph unicode="&#xfc;" horiz-adv-x="1053" d="M121 333q0 177 0.5 347t1.5 348h118l-3 -695q0 -58 19 -102t53 -74t80 -45t101 -15q47 0 97 13.5t94 39t79 61.5t51 82l2 -1l-1 736h117l2 -1017h-117v143q-28 -40 -65.5 -71.5t-81 -53t-91.5 -32.5t-96 -11q-78 0 -144 24t-114 69t-75 109.5t-27 144.5zM251 1266 q0 44 27 74t78 30t78 -30.5t27 -73.5t-27 -73t-78 -30t-78 30t-27 73zM593 1266q0 44 27.5 74t78.5 30t78 -30.5t27 -73.5t-27 -73t-78 -30t-78.5 30t-27.5 73z" />
<glyph unicode="&#xfd;" horiz-adv-x="1029" d="M16 1031h125l343 -871l393 871h128l-599 -1327q-24 -55 -70.5 -88t-107.5 -33q-38 0 -74.5 11.5t-72.5 21.5v117q32 -10 69 -24.5t71 -14.5q31 0 50 17t31 44q29 65 59 131.5t56 126.5zM364 1108l164 314h173l-238 -314h-99z" />
<glyph unicode="&#xfe;" horiz-adv-x="1153" d="M100 1026v214.5v199.5h118l1 -574q60 94 152.5 140t204.5 46q117 0 206 -42t149 -115t90.5 -169.5t30.5 -206.5q0 -109 -30.5 -206t-90.5 -169.5t-149 -115t-206 -42.5q-112 0 -204.5 47t-152.5 142q0 -156 -0.5 -310.5t1.5 -310.5h-118q-2 155 -1.5 307.5t0.5 307.5 v199.5v214.5t-0.5 221.5t-0.5 221.5zM219 482q0 -8 1 -12q5 -76 31 -143.5t71.5 -118.5t109 -80.5t144.5 -29.5q92 0 160 34t112.5 92t66 134.5t21.5 160.5t-21.5 160.5t-66 134t-112.5 91.5t-160 34q-100 0 -168 -39t-110 -103t-60.5 -146.5t-18.5 -168.5z" />
<glyph unicode="&#xff;" horiz-adv-x="1029" d="M16 1031h125l343 -871l393 871h128l-599 -1327q-24 -55 -70.5 -88t-107.5 -33q-38 0 -74.5 11.5t-72.5 21.5v117q32 -10 69 -24.5t71 -14.5q31 0 50 17t31 44q29 65 59 131.5t56 126.5zM192 1275q0 44 27 74t78 30t78 -30.5t27 -73.5t-27 -73t-78 -30t-78 30t-27 73z M534 1275q0 44 27.5 74t78.5 30t78 -30.5t27 -73.5t-27 -73t-78 -30t-78.5 30t-27.5 73z" />
<glyph unicode="&#x100;" horiz-adv-x="1188" d="M11 -1l546 1438h77l543 -1438h-124l-128 337h-661l-127 -337h-126zM256 1674v114h677v-114h-677zM307 448h576l-288 763z" />
<glyph unicode="&#x101;" horiz-adv-x="1055" d="M121 306q0 74 26 126.5t69.5 87.5t100.5 55.5t119 31t125 13t119 2.5q35 0 69 -1l68 -2v9q0 152 -70.5 222.5t-221.5 70.5q-45 0 -90 -9t-81.5 -30.5t-60.5 -56.5t-27 -88l-118 10q7 77 41 131t86.5 88.5t118 50.5t134.5 16q203 0 305 -99.5t102 -303.5q0 -158 -0.5 -315 t-0.5 -315h-112l-6 113q-33 -36 -74 -60.5t-87 -39t-94.5 -21t-95.5 -6.5q-76 0 -139 20.5t-108.5 60.5t-71 100t-25.5 139zM189 1128v114h677v-114h-677zM238 306q0 -110 61 -159t166 -49q74 0 136.5 14.5t109 48t74.5 88t32 135.5v122q-40 2 -79.5 3t-79.5 1 q-37 0 -82.5 -1t-92 -7t-91 -19t-78.5 -35.5t-55 -57t-21 -84.5z" />
<glyph unicode="&#x102;" horiz-adv-x="1188" d="M11 -1l546 1438h77l543 -1438h-124l-128 337h-661l-127 -337h-126zM283 1939h120q0 -42 15 -73.5t41 -52.5t61 -31.5t75 -10.5t75 10.5t60.5 31.5t40.5 52.5t15 73.5h120q0 -64 -23.5 -116.5t-64.5 -89.5t-98 -57t-125 -20q-67 0 -124.5 20t-99 57t-65 89.5t-23.5 116.5z M307 448h576l-288 763z" />
<glyph unicode="&#x103;" horiz-adv-x="1055" d="M121 306q0 74 26 126.5t69.5 87.5t100.5 55.5t119 31t125 13t119 2.5q35 0 69 -1l68 -2v9q0 152 -70.5 222.5t-221.5 70.5q-45 0 -90 -9t-81.5 -30.5t-60.5 -56.5t-27 -88l-118 10q7 77 41 131t86.5 88.5t118 50.5t134.5 16q203 0 305 -99.5t102 -303.5q0 -158 -0.5 -315 t-0.5 -315h-112l-6 113q-33 -36 -74 -60.5t-87 -39t-94.5 -21t-95.5 -6.5q-76 0 -139 20.5t-108.5 60.5t-71 100t-25.5 139zM217 1533h119q0 -42 15 -73.5t41 -52.5t61 -31.5t75 -10.5q41 0 76 10.5t60.5 31.5t40.5 52.5t15 73.5h119q0 -64 -23.5 -116t-64.5 -89t-98 -57 t-125 -20q-67 0 -124 20t-98.5 57t-65 89t-23.5 116zM238 306q0 -110 61 -159t166 -49q74 0 136.5 14.5t109 48t74.5 88t32 135.5v122q-40 2 -79.5 3t-79.5 1q-37 0 -82.5 -1t-92 -7t-91 -19t-78.5 -35.5t-55 -57t-21 -84.5z" />
<glyph unicode="&#x104;" horiz-adv-x="1188" d="M11 -1l546 1438h77l543 -1438h-124l-128 337h-661l-127 -337h-126zM307 448h576l-288 763zM404 -340q0 36 14 72t35 69.5t47 63.5t50 54h175q-14 -12 -34.5 -30.5t-43 -40.5t-45 -46.5t-40 -49t-28.5 -47.5t-11 -42q0 -24 15.5 -39.5t38 -23.5t47 -11t42.5 -3q17 0 35 1 t35 3v-114q-17 -2 -35 -3t-35 -1q-43 0 -89 10t-84.5 32.5t-63.5 58.5t-25 87z" />
<glyph unicode="&#x105;" horiz-adv-x="1055" d="M121 306q0 74 26 126.5t69.5 87.5t100.5 55.5t119 31t125 13t119 2.5q35 0 69 -1l68 -2v9q0 152 -70.5 222.5t-221.5 70.5q-45 0 -90 -9t-81.5 -30.5t-60.5 -56.5t-27 -88l-118 10q7 77 41 131t86.5 88.5t118 50.5t134.5 16q203 0 305 -99.5t102 -303.5q0 -158 -0.5 -315 t-0.5 -315h-112l-6 113q-33 -36 -74 -60.5t-87 -39t-94.5 -21t-95.5 -6.5q-76 0 -139 20.5t-108.5 60.5t-71 100t-25.5 139zM238 306q0 -110 61 -159t166 -49q74 0 136.5 14.5t109 48t74.5 88t32 135.5v122q-40 2 -79.5 3t-79.5 1q-37 0 -82.5 -1t-92 -7t-91 -19 t-78.5 -35.5t-55 -57t-21 -84.5zM309 -319q0 36 14 72t35 69.5t47 63.5t50 54h175q-14 -12 -34.5 -30.5t-43 -40.5t-45 -46.5t-40 -49t-28.5 -47.5t-11 -42q0 -24 15.5 -39.5t38 -23.5t47 -11t42.5 -3q17 0 35 1t35 3v-114q-17 -2 -35 -3t-35 -1q-43 0 -89 10t-84.5 32.5 t-63.5 58.5t-25 87z" />
<glyph unicode="&#x106;" horiz-adv-x="1459" d="M121 713q0 149 42 281t123.5 230.5t202.5 156t280 57.5q99 0 185.5 -24t159.5 -70t130 -111.5t97 -149.5l-102 -59q-63 142 -183.5 222t-286.5 80q-134 0 -234 -49t-166 -133t-98.5 -195.5t-32.5 -235.5t32.5 -235.5t98.5 -196t166 -134t234 -49.5q164 0 282 76.5 t182 213.5l104 -55q-40 -82 -97 -146.5t-129.5 -109t-158.5 -68t-183 -23.5q-158 0 -279 58t-203 157t-124 231t-42 281zM559 1633l164 313h178l-239 -313h-103z" />
<glyph unicode="&#x107;" horiz-adv-x="1161" d="M119 519q0 110 30.5 206.5t90.5 169.5t149 115t206 42q82 0 153 -23t128.5 -66t99.5 -105t66 -140l-111 -33q-37 118 -123.5 186t-212.5 68q-92 0 -159.5 -34t-112 -91.5t-66 -134t-21.5 -160.5t21.5 -160.5t66 -134t112 -92t159.5 -34.5q125 0 211.5 68t123.5 185 l110 -36q-24 -77 -66.5 -138t-99.5 -103.5t-127.5 -65t-151.5 -22.5q-117 0 -206 42.5t-149 115t-90.5 169.5t-30.5 206zM496 1124l164 314h173l-238 -314h-99z" />
<glyph unicode="&#x108;" horiz-adv-x="1459" d="M121 713q0 149 42 281t123.5 230.5t202.5 156t280 57.5q99 0 185.5 -24t159.5 -70t130 -111.5t97 -149.5l-102 -59q-63 142 -183.5 222t-286.5 80q-134 0 -234 -49t-166 -133t-98.5 -195.5t-32.5 -235.5t32.5 -235.5t98.5 -196t166 -134t234 -49.5q164 0 282 76.5 t182 213.5l104 -55q-40 -82 -97 -146.5t-129.5 -109t-158.5 -68t-183 -23.5q-158 0 -279 58t-203 157t-124 231t-42 281zM440 1647l245 322h89l245 -322h-105l-183 197l-176 -197h-115z" />
<glyph unicode="&#x109;" horiz-adv-x="1161" d="M119 519q0 110 30.5 206.5t90.5 169.5t149 115t206 42q82 0 153 -23t128.5 -66t99.5 -105t66 -140l-111 -33q-37 118 -123.5 186t-212.5 68q-92 0 -159.5 -34t-112 -91.5t-66 -134t-21.5 -160.5t21.5 -160.5t66 -134t112 -92t159.5 -34.5q125 0 211.5 68t123.5 185 l110 -36q-24 -77 -66.5 -138t-99.5 -103.5t-127.5 -65t-151.5 -22.5q-117 0 -206 42.5t-149 115t-90.5 169.5t-30.5 206zM289 1135l246 322h88l246 -322h-106l-182 197l-177 -197h-115z" />
<glyph unicode="&#x10a;" horiz-adv-x="1459" d="M121 713q0 149 42 281t123.5 230.5t202.5 156t280 57.5q99 0 185.5 -24t159.5 -70t130 -111.5t97 -149.5l-102 -59q-63 142 -183.5 222t-286.5 80q-134 0 -234 -49t-166 -133t-98.5 -195.5t-32.5 -235.5t32.5 -235.5t98.5 -196t166 -134t234 -49.5q164 0 282 76.5 t182 213.5l104 -55q-40 -82 -97 -146.5t-129.5 -109t-158.5 -68t-183 -23.5q-158 0 -279 58t-203 157t-124 231t-42 281zM614 1783q0 23 7.5 43.5t22.5 36t36.5 24.5t49.5 9q56 0 85.5 -33t29.5 -80t-29.5 -80t-85.5 -33q-28 0 -49.5 9t-36.5 24.5t-22.5 36t-7.5 43.5z" />
<glyph unicode="&#x10b;" horiz-adv-x="1161" d="M119 519q0 110 30.5 206.5t90.5 169.5t149 115t206 42q82 0 153 -23t128.5 -66t99.5 -105t66 -140l-111 -33q-37 118 -123.5 186t-212.5 68q-92 0 -159.5 -34t-112 -91.5t-66 -134t-21.5 -160.5t21.5 -160.5t66 -134t112 -92t159.5 -34.5q125 0 211.5 68t123.5 185 l110 -36q-24 -77 -66.5 -138t-99.5 -103.5t-127.5 -65t-151.5 -22.5q-117 0 -206 42.5t-149 115t-90.5 169.5t-30.5 206zM467 1386q0 47 29.5 79.5t84.5 32.5q56 0 85 -32.5t29 -79.5t-29 -80t-85 -33q-55 0 -84.5 33t-29.5 80z" />
<glyph unicode="&#x10c;" horiz-adv-x="1459" d="M121 713q0 149 42 281t123.5 230.5t202.5 156t280 57.5q99 0 185.5 -24t159.5 -70t130 -111.5t97 -149.5l-102 -59q-63 142 -183.5 222t-286.5 80q-134 0 -234 -49t-166 -133t-98.5 -195.5t-32.5 -235.5t32.5 -235.5t98.5 -196t166 -134t234 -49.5q164 0 282 76.5 t182 213.5l104 -55q-40 -82 -97 -146.5t-129.5 -109t-158.5 -68t-183 -23.5q-158 0 -279 58t-203 157t-124 231t-42 281zM524 1969h116l104 -235l41 51l114 184l-18 -64l-96 -120l-47 -75l-38 -26z" />
<glyph unicode="&#x10d;" horiz-adv-x="1161" d="M119 519q0 110 30.5 206.5t90.5 169.5t149 115t206 42q82 0 153 -23t128.5 -66t99.5 -105t66 -140l-111 -33q-37 118 -123.5 186t-212.5 68q-92 0 -159.5 -34t-112 -91.5t-66 -134t-21.5 -160.5t21.5 -160.5t66 -134t112 -92t159.5 -34.5q125 0 211.5 68t123.5 185 l110 -36q-24 -77 -66.5 -138t-99.5 -103.5t-127.5 -65t-151.5 -22.5q-117 0 -206 42.5t-149 115t-90.5 169.5t-30.5 206zM303 1469h118l180 -198l187 198h106l-250 -324l-88 1z" />
<glyph unicode="&#x10e;" horiz-adv-x="1360" d="M120 0v1446q114 -2 232 -2t236 -5q158 -7 279.5 -61.5t204 -149.5t125 -225.5t42.5 -289.5q0 -150 -42 -280t-124.5 -226t-203.5 -151.5t-279 -55.5q-110 0 -219 -0.5t-220 -0.5v1h-31zM238 111l352 1q134 0 234 47t166 128.5t99 191t33 234.5q0 131 -32 240t-97.5 189.5 t-164.5 128.5t-233 55q-90 3 -179.5 3.5t-177.5 2.5v-1221zM474 1969h116l104 -235l41 51l114 184l-18 -64l-96 -120l-47 -75l-38 -26z" />
<glyph unicode="&#x10f;" horiz-adv-x="1273" d="M101 519q0 110 30.5 206.5t90.5 169.5t149 115t206 42q111 0 204 -46t154 -140v159v152.5t0.5 140.5t0.5 122h117q0 -232 -0.5 -460.5t-0.5 -460.5q0 -127 0.5 -251.5t-1.5 -251.5h-117q0 41 0.5 80t0.5 80q-60 -97 -153 -143.5t-205 -46.5q-117 0 -206 42.5t-149 115 t-90.5 169.5t-30.5 206zM218 519q0 -84 21.5 -160.5t66 -134t112 -92t159.5 -34.5q83 0 147 30.5t109 82.5t70.5 121t30.5 146h1v44q0 81 -23 156.5t-68 133t-112 92.5t-155 35q-92 0 -159.5 -34t-112 -91.5t-66 -134t-21.5 -160.5zM1141 1107l46 327h156l-135 -331z" />
<glyph unicode="&#x110;" horiz-adv-x="1360" d="M18 627v114h744v-114h-744zM120 0v1446q114 -2 232 -2t236 -5q158 -7 279.5 -61.5t204 -149.5t125 -225.5t42.5 -289.5q0 -150 -42 -280t-124.5 -226t-203.5 -151.5t-279 -55.5q-110 0 -219 -0.5t-220 -0.5v1h-31zM238 111l352 1q134 0 234 47t166 128.5t99 191t33 234.5 q0 131 -32 240t-97.5 189.5t-164.5 128.5t-233 55q-90 3 -179.5 3.5t-177.5 2.5v-1221z" />
<glyph unicode="&#x111;" horiz-adv-x="1193" d="M121 519q0 110 30.5 207t90.5 169.5t149 114.5t206 42q125 0 216 -53.5t142 -141.5v305.5t1 277.5h117l-2 -1424h-117l1 167q-53 -90 -143 -143.5t-215 -53.5q-117 0 -206 42t-149 115t-90.5 170t-30.5 206zM238 519q0 -84 21.5 -160.5t66 -134t112 -92t159.5 -34.5 q86 0 152 33.5t111.5 89t69 128t24.5 150.5q1 7 1 14.5v15.5v20q-4 77 -28.5 147.5t-69 124.5t-109.5 86t-151 32q-92 0 -159.5 -34t-112 -91.5t-66 -134t-21.5 -160.5zM498 1563v114h677v-114h-677z" />
<glyph unicode="&#x112;" horiz-adv-x="1127" d="M120 -1v1439l927 -1v-112l-809 1v-525h718v-112h-718v-578h809v-112h-927zM225 1674v114h677v-114h-677z" />
<glyph unicode="&#x113;" horiz-adv-x="1193" d="M121 519q0 110 31 207t91 169.5t149 114.5t205 42q119 0 208.5 -43.5t149 -117.5t89 -172t29.5 -208l-835 3q1 -84 23 -159.5t66.5 -132.5t111.5 -90.5t158 -33.5q118 0 203 60.5t125 170.5l111 -37q-26 -72 -69 -129t-99.5 -96t-125 -60t-145.5 -21q-116 0 -205 42.5 t-149 115t-91 169.5t-31 206zM247 626l700 -3q-11 69 -39.5 127t-73.5 100t-104.5 65.5t-132.5 23.5q-76 0 -136 -24t-103.5 -66t-71 -99t-39.5 -124zM260 1135v114h677v-114h-677z" />
<glyph unicode="&#x114;" horiz-adv-x="1127" d="M120 -1v1439l927 -1v-112l-809 1v-525h718v-112h-718v-578h809v-112h-927zM253 1939h120q0 -42 15 -73.5t41 -52.5t61 -31.5t75 -10.5t75 10.5t60.5 31.5t40.5 52.5t15 73.5h120q0 -64 -23.5 -116.5t-64.5 -89.5t-98 -57t-125 -20q-67 0 -124.5 20t-99 57t-65 89.5 t-23.5 116.5z" />
<glyph unicode="&#x115;" horiz-adv-x="1193" d="M121 519q0 110 31 207t91 169.5t149 114.5t205 42q119 0 208.5 -43.5t149 -117.5t89 -172t29.5 -208l-835 3q1 -84 23 -159.5t66.5 -132.5t111.5 -90.5t158 -33.5q118 0 203 60.5t125 170.5l111 -37q-26 -72 -69 -129t-99.5 -96t-125 -60t-145.5 -21q-116 0 -205 42.5 t-149 115t-91 169.5t-31 206zM247 626l700 -3q-11 69 -39.5 127t-73.5 100t-104.5 65.5t-132.5 23.5q-76 0 -136 -24t-103.5 -66t-71 -99t-39.5 -124zM286 1533h119q0 -42 15 -73.5t41 -52.5t61 -31.5t75 -10.5q41 0 76 10.5t60.5 31.5t40.5 52.5t15 73.5h119 q0 -64 -23.5 -116t-64.5 -89t-98 -57t-125 -20q-67 0 -124 20t-98.5 57t-65 89t-23.5 116z" />
<glyph unicode="&#x116;" horiz-adv-x="1127" d="M120 -1v1439l927 -1v-112l-809 1v-525h718v-112h-718v-578h809v-112h-927zM448 1783q0 23 7.5 43.5t22.5 36t36.5 24.5t49.5 9q56 0 85.5 -33t29.5 -80t-29.5 -80t-85.5 -33q-28 0 -49.5 9t-36.5 24.5t-22.5 36t-7.5 43.5z" />
<glyph unicode="&#x117;" horiz-adv-x="1193" d="M121 519q0 110 31 207t91 169.5t149 114.5t205 42q119 0 208.5 -43.5t149 -117.5t89 -172t29.5 -208l-835 3q1 -84 23 -159.5t66.5 -132.5t111.5 -90.5t158 -33.5q118 0 203 60.5t125 170.5l111 -37q-26 -72 -69 -129t-99.5 -96t-125 -60t-145.5 -21q-116 0 -205 42.5 t-149 115t-91 169.5t-31 206zM247 626l700 -3q-11 69 -39.5 127t-73.5 100t-104.5 65.5t-132.5 23.5q-76 0 -136 -24t-103.5 -66t-71 -99t-39.5 -124zM483 1386q0 47 29.5 79.5t84.5 32.5q56 0 85 -32.5t29 -79.5t-29 -80t-85 -33q-55 0 -84.5 33t-29.5 80z" />
<glyph unicode="&#x118;" horiz-adv-x="1127" d="M120 -1v1439l927 -1v-112l-809 1v-525h718v-112h-718v-578h809v-112h-927z" />
<glyph unicode="&#x119;" horiz-adv-x="1193" d="M121 519q0 110 31 207t91 169.5t149 114.5t205 42q119 0 208.5 -43.5t149 -117.5t89 -172t29.5 -208l-835 3q1 -84 23 -159.5t66.5 -132.5t111.5 -90.5t158 -33.5q118 0 203 60.5t125 170.5l111 -37q-26 -72 -69 -129t-99.5 -96t-125 -60t-145.5 -21q-116 0 -205 42.5 t-149 115t-91 169.5t-31 206zM247 626l700 -3q-11 69 -39.5 127t-73.5 100t-104.5 65.5t-132.5 23.5q-76 0 -136 -24t-103.5 -66t-71 -99t-39.5 -124zM388 -319q0 36 14 72t35 69.5t47 63.5t50 54h175q-14 -12 -34.5 -30.5t-43 -40.5t-45 -46.5t-40 -49t-28.5 -47.5t-11 -42 q0 -24 15.5 -39.5t38 -23.5t47 -11t42.5 -3q17 0 35 1t35 3v-114q-17 -2 -35 -3t-35 -1q-43 0 -89 10t-84.5 32.5t-63.5 58.5t-25 87z" />
<glyph unicode="&#x11a;" horiz-adv-x="1127" d="M120 -1v1439l927 -1v-112l-809 1v-525h718v-112h-718v-578h809v-112h-927zM358 1969h116l104 -235l41 51l114 184l-18 -64l-96 -120l-47 -75l-38 -26z" />
<glyph unicode="&#x11b;" horiz-adv-x="1193" d="M121 519q0 110 31 207t91 169.5t149 114.5t205 42q119 0 208.5 -43.5t149 -117.5t89 -172t29.5 -208l-835 3q1 -84 23 -159.5t66.5 -132.5t111.5 -90.5t158 -33.5q118 0 203 60.5t125 170.5l111 -37q-26 -72 -69 -129t-99.5 -96t-125 -60t-145.5 -21q-116 0 -205 42.5 t-149 115t-91 169.5t-31 206zM247 626l700 -3q-11 69 -39.5 127t-73.5 100t-104.5 65.5t-132.5 23.5q-76 0 -136 -24t-103.5 -66t-71 -99t-39.5 -124zM309 1473h118l180 -198l187 198h106l-250 -324l-88 1z" />
<glyph unicode="&#x11c;" horiz-adv-x="1503" d="M121 713q0 149 42 281t123.5 230.5t202.5 156t280 57.5q113 0 210.5 -31.5t176 -91t136 -145t89.5 -193.5l-113 -30q-27 89 -73 159t-110 119t-143.5 75t-172.5 26q-134 0 -234 -49t-166 -133t-98.5 -195.5t-32.5 -235.5q0 -125 33 -237t99.5 -196t167 -133t235.5 -49 q126 0 218 39.5t152 104.5t89.5 149t30.5 174h-541v111h659v-109q0 -59 -10.5 -117t-32.5 -113q-30 -77 -81.5 -141.5t-122.5 -111t-161.5 -72.5t-199.5 -26q-159 0 -281 57t-204.5 155.5t-124.5 231t-42 283.5zM462 1647l245 322h89l245 -322h-105l-183 197l-176 -197h-115 z" />
<glyph unicode="&#x11d;" horiz-adv-x="1193" d="M121 525q0 110 30.5 207t90.5 169.5t149 114.5t206 42q125 0 215 -54t142 -145l-1 170h118l2 -1046q0 -101 -33 -185t-93 -144.5t-143.5 -94.5t-184.5 -34q-78 0 -149.5 22t-129 64.5t-98.5 104t-59 140.5h120q16 -53 48 -93.5t75.5 -68.5t94.5 -42.5t104 -14.5 q77 0 138.5 26t104 72t65.5 109.5t23 138.5v210q-26 -45 -61.5 -81.5t-80.5 -63t-99.5 -41t-117.5 -14.5q-117 0 -206 42t-149 114.5t-90.5 169.5t-30.5 206zM238 525q0 -84 21.5 -160t66 -134t112 -92t159.5 -34q87 0 153 33.5t110.5 89t68.5 128.5t27 151q0 84 -20 163 t-63 140.5t-111 98.5t-165 37q-92 0 -159.5 -34t-112 -92t-66 -134.5t-21.5 -160.5zM296 1139l246 322h88l246 -322h-106l-182 197l-177 -197h-115z" />
<glyph unicode="&#x11e;" horiz-adv-x="1503" d="M121 713q0 149 42 281t123.5 230.5t202.5 156t280 57.5q113 0 210.5 -31.5t176 -91t136 -145t89.5 -193.5l-113 -30q-27 89 -73 159t-110 119t-143.5 75t-172.5 26q-134 0 -234 -49t-166 -133t-98.5 -195.5t-32.5 -235.5q0 -125 33 -237t99.5 -196t167 -133t235.5 -49 q126 0 218 39.5t152 104.5t89.5 149t30.5 174h-541v111h659v-109q0 -59 -10.5 -117t-32.5 -113q-30 -77 -81.5 -141.5t-122.5 -111t-161.5 -72.5t-199.5 -26q-159 0 -281 57t-204.5 155.5t-124.5 231t-42 283.5zM441 1939h120q0 -42 15 -73.5t41 -52.5t61 -31.5t75 -10.5 t75 10.5t60.5 31.5t40.5 52.5t15 73.5h120q0 -64 -23.5 -116.5t-64.5 -89.5t-98 -57t-125 -20q-67 0 -124.5 20t-99 57t-65 89.5t-23.5 116.5z" />
<glyph unicode="&#x11f;" horiz-adv-x="1193" d="M121 525q0 110 30.5 207t90.5 169.5t149 114.5t206 42q125 0 215 -54t142 -145l-1 170h118l2 -1046q0 -101 -33 -185t-93 -144.5t-143.5 -94.5t-184.5 -34q-78 0 -149.5 22t-129 64.5t-98.5 104t-59 140.5h120q16 -53 48 -93.5t75.5 -68.5t94.5 -42.5t104 -14.5 q77 0 138.5 26t104 72t65.5 109.5t23 138.5v210q-26 -45 -61.5 -81.5t-80.5 -63t-99.5 -41t-117.5 -14.5q-117 0 -206 42t-149 114.5t-90.5 169.5t-30.5 206zM238 525q0 -84 21.5 -160t66 -134t112 -92t159.5 -34q87 0 153 33.5t110.5 89t68.5 128.5t27 151q0 84 -20 163 t-63 140.5t-111 98.5t-165 37q-92 0 -159.5 -34t-112 -92t-66 -134.5t-21.5 -160.5zM286 1533h119q0 -42 15 -73.5t41 -52.5t61 -31.5t75 -10.5q41 0 76 10.5t60.5 31.5t40.5 52.5t15 73.5h119q0 -64 -23.5 -116t-64.5 -89t-98 -57t-125 -20q-67 0 -124 20t-98.5 57t-65 89 t-23.5 116z" />
<glyph unicode="&#x120;" horiz-adv-x="1503" d="M121 713q0 149 42 281t123.5 230.5t202.5 156t280 57.5q113 0 210.5 -31.5t176 -91t136 -145t89.5 -193.5l-113 -30q-27 89 -73 159t-110 119t-143.5 75t-172.5 26q-134 0 -234 -49t-166 -133t-98.5 -195.5t-32.5 -235.5q0 -125 33 -237t99.5 -196t167 -133t235.5 -49 q126 0 218 39.5t152 104.5t89.5 149t30.5 174h-541v111h659v-109q0 -59 -10.5 -117t-32.5 -113q-30 -77 -81.5 -141.5t-122.5 -111t-161.5 -72.5t-199.5 -26q-159 0 -281 57t-204.5 155.5t-124.5 231t-42 283.5zM636 1783q0 23 7.5 43.5t22.5 36t36.5 24.5t49.5 9 q56 0 85.5 -33t29.5 -80t-29.5 -80t-85.5 -33q-28 0 -49.5 9t-36.5 24.5t-22.5 36t-7.5 43.5z" />
<glyph unicode="&#x121;" horiz-adv-x="1193" d="M121 525q0 110 30.5 207t90.5 169.5t149 114.5t206 42q125 0 215 -54t142 -145l-1 170h118l2 -1046q0 -101 -33 -185t-93 -144.5t-143.5 -94.5t-184.5 -34q-78 0 -149.5 22t-129 64.5t-98.5 104t-59 140.5h120q16 -53 48 -93.5t75.5 -68.5t94.5 -42.5t104 -14.5 q77 0 138.5 26t104 72t65.5 109.5t23 138.5v210q-26 -45 -61.5 -81.5t-80.5 -63t-99.5 -41t-117.5 -14.5q-117 0 -206 42t-149 114.5t-90.5 169.5t-30.5 206zM238 525q0 -84 21.5 -160t66 -134t112 -92t159.5 -34q87 0 153 33.5t110.5 89t68.5 128.5t27 151q0 84 -20 163 t-63 140.5t-111 98.5t-165 37q-92 0 -159.5 -34t-112 -92t-66 -134.5t-21.5 -160.5zM483 1386q0 47 29.5 79.5t84.5 32.5q56 0 85 -32.5t29 -79.5t-29 -80t-85 -33q-55 0 -84.5 33t-29.5 80z" />
<glyph unicode="&#x122;" horiz-adv-x="1518" d="M101 713q0 149 42 281t123.5 230.5t202.5 156t280 57.5q114 0 212.5 -32t177 -92.5t135.5 -147t89 -195.5l-113 -32q-27 90 -72.5 161.5t-109 122t-144 77t-175.5 26.5q-134 0 -234 -49t-166 -133t-98.5 -195.5t-32.5 -235.5q0 -125 33 -237t99.5 -196t167 -133 t235.5 -49q129 0 222 32.5t152 96.5t87.5 160t28.5 222h-541v111h659v-109q0 -151 -37.5 -267.5t-113 -196t-190 -120.5t-267.5 -41q-159 0 -281 57t-204.5 155.5t-124.5 231t-42 283.5zM635 -453l88 288h174l-171 -288h-91z" />
<glyph unicode="&#x123;" horiz-adv-x="1153" d="M101 525q0 110 30.5 206.5t90.5 169.5t149 115t206 42q112 0 204.5 -47t152.5 -141q0 24 0.5 48.5t0.5 48.5q0 31 -3 62h119q3 -97 4 -191t1 -191q0 -166 -1.5 -329.5t-1.5 -329.5q0 -100 -33 -184t-93 -145t-143.5 -95t-184.5 -34q-79 0 -150.5 22t-129 64.5t-98.5 104 t-58 140.5h120q16 -53 48 -94t75.5 -68.5t94.5 -42t104 -14.5q77 0 138.5 26t104 72t65.5 109.5t23 138.5v192q-61 -95 -154 -141t-205 -46q-117 0 -206 42t-149 114.5t-90.5 169.5t-30.5 206zM218 525q0 -84 21.5 -160t66 -134t112 -92t159.5 -34q75 0 133.5 24t101.5 66.5 t71.5 101t43.5 126.5q4 21 6.5 41.5t2.5 42.5q0 85 -20 164t-63.5 140t-111.5 98t-164 37q-92 0 -159.5 -34t-112 -92t-66 -134.5t-21.5 -160.5zM445 1638h201l60 -422l-106 1z" />
<glyph unicode="&#x124;" horiz-adv-x="1237" d="M120 0v1437h118v-636h762v636h116v-1437h-116v689h-762v-689h-118zM329 1647l245 322h89l245 -322h-105l-183 197l-176 -197h-115z" />
<glyph unicode="&#x125;" horiz-adv-x="1053" d="M-123 1480l246 322h88l246 -322h-106l-182 197l-177 -197h-115zM121 1437h117l1 -548q27 41 65 72t82.5 52.5t93.5 32.5t98 11q78 -1 143.5 -25t112 -69t72.5 -109t26 -144q0 -179 -0.5 -355t-1.5 -355h-118l3 710q0 57 -19 101t-53 73.5t-80.5 45t-100.5 15.5 q-47 0 -95.5 -12.5t-92 -36.5t-78 -59t-52.5 -80q-1 -2 -3 -4t-2 -3l1 -750h-117z" />
<glyph unicode="&#x126;" horiz-adv-x="1237" d="M120 0v1437h118v-636h762v636h116v-1437h-116v689h-762v-689h-118zM257 1525v114h677v-114h-677z" />
<glyph unicode="&#x127;" horiz-adv-x="1053" d="M-159 1476v114h677v-114h-677zM121 1437h117l1 -548q27 41 65 72t82.5 52.5t93.5 32.5t98 11q78 -1 143.5 -25t112 -69t72.5 -109t26 -144q0 -179 -0.5 -355t-1.5 -355h-118l3 710q0 57 -19 101t-53 73.5t-80.5 45t-100.5 15.5q-47 0 -95.5 -12.5t-92 -36.5t-78 -59 t-52.5 -80q-1 -2 -3 -4t-2 -3l1 -750h-117z" />
<glyph unicode="&#x128;" horiz-adv-x="358" d="M-173 1709q12 39 32.5 72t49 57.5t64 38.5t77.5 14q49 0 85.5 -17t67.5 -38t60 -38t64 -17q23 0 41.5 9t32.5 24t24 34t16 39l89 -27q-12 -39 -30 -73.5t-44 -60.5t-60.5 -41.5t-78.5 -15.5q-48 0 -85 17.5t-68 38.5t-60 38.5t-61 17.5q-44 0 -79 -28t-47 -70zM120 0 v1437h118v-1437h-118z" />
<glyph unicode="&#x129;" horiz-adv-x="326" d="M-187 1181q12 40 32 73t48 57t64 37.5t79 13.5q53 0 89 -17t65.5 -38t57.5 -38t65 -17q23 0 41.5 9t32.5 24t23.5 34.5t15.5 39.5l90 -27q-12 -39 -30 -73.5t-44 -60.5t-60.5 -41.5t-78.5 -15.5q-35 0 -62.5 8t-50.5 20.5t-42.5 27t-38.5 27t-38.5 20.5t-41.5 8 q-45 0 -79.5 -28t-46.5 -70zM101 4v1029h120v-1029h-120z" />
<glyph unicode="&#x12a;" horiz-adv-x="358" d="M-160 1674v114h677v-114h-677zM120 0v1437h118v-1437h-118z" />
<glyph unicode="&#x12b;" horiz-adv-x="326" d="M-119 1117v114h559v-114h-559zM101 4v1029h120v-1029h-120z" />
<glyph unicode="&#x12e;" horiz-adv-x="358" d="M-34 -319q0 36 14 72t35 69.5t47 63.5t50 54h175q-14 -12 -34.5 -30.5t-43 -40.5t-45 -46.5t-40 -49t-28.5 -47.5t-11 -42q0 -24 15.5 -39.5t38 -23.5t47 -11t42.5 -3q17 0 35 1t35 3v-114q-17 -2 -35 -3t-35 -1q-43 0 -89 10t-84.5 32.5t-63.5 58.5t-25 87zM120 0v1437 h118v-1437h-118z" />
<glyph unicode="&#x12f;" horiz-adv-x="413" d="M-3 -316q0 36 14 72t35 69.5t47 63.5t50 54h175q-14 -12 -34.5 -30.5t-43 -40.5t-45 -46.5t-40 -49t-28.5 -47.5t-11 -42q0 -24 15.5 -39.5t38 -23.5t47 -11t42.5 -3q17 0 35 1t35 3v-114q-17 -2 -35 -3t-35 -1q-43 0 -89 10t-84.5 32.5t-63.5 58.5t-25 87zM112 1281 q0 17 6.5 33.5t18.5 29.5t29 20.5t38 7.5q22 0 39 -7.5t29 -20.5t18 -29t6 -34q0 -17 -6.5 -33t-18.5 -28.5t-29 -20t-38 -7.5t-38 7.5t-29 20t-18.5 28.5t-6.5 33zM143 1032h116l3 -1032h-117z" />
<glyph unicode="&#x130;" horiz-adv-x="358" d="M63 1783q0 23 7.5 43.5t22.5 36t36.5 24.5t49.5 9q56 0 85.5 -33t29.5 -80t-29.5 -80t-85.5 -33q-28 0 -49.5 9t-36.5 24.5t-22.5 36t-7.5 43.5zM120 0v1437h118v-1437h-118z" />
<glyph unicode="&#x131;" horiz-adv-x="326" d="M101 4v1029h120v-1029h-120z" />
<glyph unicode="&#x132;" horiz-adv-x="1466" d="M120 0v1437h118v-1437h-118zM479 430l117 2q0 -70 22.5 -130.5t64 -105.5t100 -71t130.5 -26t130.5 25.5t99.5 70.5t63.5 105.5t22.5 130.5v1007h118v-1007q0 -95 -31.5 -176.5t-88.5 -141t-137 -93t-177 -33.5t-176.5 33.5t-136.5 93t-88.5 140.5t-32.5 176z" />
<glyph unicode="&#x133;" horiz-adv-x="823" d="M112 1281q0 17 6.5 33.5t18.5 29.5t29 20.5t38 7.5q22 0 39 -7.5t29 -20.5t18 -29t6 -34q0 -17 -6.5 -33t-18.5 -28.5t-29 -20t-38 -7.5t-38 7.5t-29 20t-18.5 28.5t-6.5 33zM143 1032h116l3 -1032h-117zM314 -272q47 0 86 2.5t69 13t51 32t31 59.5q13 33 13 92l-2 1105 h117l2 -1105q0 -160 -80.5 -234.5t-231.5 -75.5q-14 -1 -27.5 -1h-27.5v112zM530 1279q0 18 7 34t19 28t27.5 18.5t33.5 6.5q37 0 62 -24.5t25 -62.5q0 -37 -25.5 -61t-61.5 -24q-18 0 -33.5 6.5t-27.5 18t-19 27t-7 33.5z" />
<glyph unicode="&#x134;" horiz-adv-x="1109" d="M121 430l117 2q0 -70 22.5 -130.5t64 -105.5t100 -71t130.5 -26t130.5 25.5t99.5 70.5t63.5 105.5t22.5 130.5v1007h118v-1007q0 -95 -31.5 -176.5t-88.5 -141t-137 -93t-177 -33.5t-176.5 33.5t-136.5 93t-88.5 140.5t-32.5 176zM265 1647l245 322h89l245 -322h-105 l-183 197l-176 -197h-115z" />
<glyph unicode="&#x135;" horiz-adv-x="362" d="M-128 -272q40 0 86 2.5t82 18.5q27 12 43.5 31t25 43t11 50.5t2.5 53.5l-2 1105h117l2 -1105q0 -83 -21.5 -141.5t-63 -96.5t-101.5 -55.5t-138 -17.5h-43v112zM-127 1119l246 322h88l246 -322h-106l-182 197l-177 -197h-115z" />
<glyph unicode="&#x136;" horiz-adv-x="1159" d="M120 1437h118l1 -803l647 803h148l-488 -605l570 -832h-140l-501 731l-236 -281l1 -450h-118zM495 -454l87 289h175l-171 -289h-91z" />
<glyph unicode="&#x137;" horiz-adv-x="1019" d="M121 1437h117l1 -960l507 554h155l-413 -452l450 -579h-146l-379 485l-173 -177v-308h-117zM357 -455l87 289h175l-171 -289h-91z" />
<glyph unicode="&#x138;" horiz-adv-x="1019" d="M121 1437h117l1 -960l507 554h155l-413 -452l450 -579h-146l-379 485l-173 -177v-308h-117z" />
<glyph unicode="&#x139;" horiz-adv-x="1052" d="M120 -1v1438h118v-1326h761v-112h-879zM355 1633l164 313h178l-239 -313h-103z" />
<glyph unicode="&#x13a;" horiz-adv-x="361" d="M90 1530l164 314h173l-238 -314h-99zM121 1437h117l2 -1437h-117z" />
<glyph unicode="&#x13b;" horiz-adv-x="1052" d="M120 -1v1438h118v-1326h761v-112h-879zM456 -454l87 289h175l-171 -289h-91z" />
<glyph unicode="&#x13c;" horiz-adv-x="361" d="M47 -454l87 289h175l-171 -289h-91zM121 1437h117l2 -1437h-117z" />
<glyph unicode="&#x13d;" horiz-adv-x="1052" d="M120 -1v1438h118v-1326h761v-112h-879z" />
<glyph unicode="&#x13e;" horiz-adv-x="1217" d="M121 1437h117l2 -1437h-117z" />
<glyph unicode="&#x13f;" horiz-adv-x="1052" d="M120 -1v1438h118v-1326h761v-112h-879zM406 1131q0 25 8 46.5t23.5 38t38 26t51.5 9.5t51 -9.5t37.5 -26t23.5 -38t8 -46.5t-8 -47t-23.5 -38.5t-37.5 -26t-51 -9.5t-51.5 9.5t-38 26t-23.5 38.5t-8 47z" />
<glyph unicode="&#x140;" horiz-adv-x="929" d="M121 1437h117l2 -1437h-117zM599 721q0 25 8 46.5t23.5 38t38 26t51.5 9.5t51 -9.5t37.5 -26t23.5 -38t8 -46.5t-8 -47t-23.5 -38.5t-37.5 -26t-51 -9.5t-51.5 9.5t-38 26t-23.5 38.5t-8 47z" />
<glyph unicode="&#x141;" horiz-adv-x="1052" d="M120 -1v1438h118v-1326h761v-112h-879zM168 499v114h716v-114h-716z" />
<glyph unicode="&#x142;" horiz-adv-x="361" d="M-178 499v114h716v-114h-716zM121 1437h117l2 -1437h-117z" />
<glyph unicode="&#x143;" horiz-adv-x="1364" d="M120 0v1437h114l891 -1236v1236h118v-1437h-111l-894 1234v-1234h-118zM511 1633l164 313h178l-239 -313h-103z" />
<glyph unicode="&#x144;" horiz-adv-x="1053" d="M121 1025h117v-144q27 40 65 71.5t82.5 53t94 33t99.5 11.5q79 0 144 -25t111.5 -70.5t72 -109.5t25.5 -142l-2 -702h-118l3 702q0 57 -18 101t-51.5 74t-80 45.5t-103.5 15.5q-42 0 -93.5 -13.5t-98.5 -39t-83 -61.5t-48 -81l1 -743h-117zM444 1131l164 314h173 l-238 -314h-99z" />
<glyph unicode="&#x145;" horiz-adv-x="1364" d="M120 0v1437h114l891 -1236v1236h118v-1437h-111l-894 1234v-1234h-118zM563 -454l87 289h175l-171 -289h-91z" />
<glyph unicode="&#x146;" horiz-adv-x="1053" d="M121 1025h117v-144q27 40 65 71.5t82.5 53t94 33t99.5 11.5q79 0 144 -25t111.5 -70.5t72 -109.5t25.5 -142l-2 -702h-118l3 702q0 57 -18 101t-51.5 74t-80 45.5t-103.5 15.5q-42 0 -93.5 -13.5t-98.5 -39t-83 -61.5t-48 -81l1 -743h-117zM399 -454l87 289h175 l-171 -289h-91z" />
<glyph unicode="&#x147;" horiz-adv-x="1364" d="M120 0v1437h114l891 -1236v1236h118v-1437h-111l-894 1234v-1234h-118zM476 1969h116l104 -235l41 51l114 184l-18 -64l-96 -120l-47 -75l-38 -26z" />
<glyph unicode="&#x148;" horiz-adv-x="1053" d="M121 1025h117v-144q27 40 65 71.5t82.5 53t94 33t99.5 11.5q79 0 144 -25t111.5 -70.5t72 -109.5t25.5 -142l-2 -702h-118l3 702q0 57 -18 101t-51.5 74t-80 45.5t-103.5 15.5q-42 0 -93.5 -13.5t-98.5 -39t-83 -61.5t-48 -81l1 -743h-117zM251 1476h118l180 -198 l187 198h106l-250 -324l-88 1z" />
<glyph unicode="&#x149;" horiz-adv-x="1053" d="M121 1025h117v-144q27 40 65 71.5t82.5 53t94 33t99.5 11.5q79 0 144 -25t111.5 -70.5t72 -109.5t25.5 -142l-2 -702h-118l3 702q0 57 -18 101t-51.5 74t-80 45.5t-103.5 15.5q-42 0 -93.5 -13.5t-98.5 -39t-83 -61.5t-48 -81l1 -743h-117zM412 1062l47 388h171 l-142 -387z" />
<glyph unicode="&#x14c;" horiz-adv-x="1537" d="M121 719q0 153 43 288.5t127 236.5t208 160t287 59q162 0 286 -59t208 -160.5t127 -237t43 -287.5t-43 -287.5t-127 -237t-208 -161t-286 -59.5q-108 0 -199.5 27t-165.5 76t-130 117t-94 151t-57 177.5t-19 196.5zM240 719q0 -127 33.5 -241.5t101.5 -201t170.5 -137.5 t240.5 -51q137 0 239.5 51t170 138t101 201.5t33.5 240.5q0 127 -33.5 241t-101 200.5t-169.5 137.5t-240 51t-240.5 -50.5t-170.5 -137t-101.5 -200.5t-33.5 -242zM430 1674v114h677v-114h-677z" />
<glyph unicode="&#x14d;" horiz-adv-x="1193" d="M121 519q0 119 34 217t96 168.5t150 109t196 38.5t195.5 -39t150 -109t96.5 -168t34 -217q0 -118 -34 -216.5t-96.5 -168.5t-150 -109t-195.5 -39t-196 38.5t-150 109t-96 168.5t-34 217zM238 519q0 -94 24.5 -171.5t71 -133t113 -86t150.5 -30.5t150.5 30.5t113 86 t71 133t24.5 171.5t-24.5 171.5t-71 132.5t-113 85.5t-150.5 30.5t-150.5 -30.5t-113 -85.5t-71 -132.5t-24.5 -171.5zM260 1133v114h677v-114h-677z" />
<glyph unicode="&#x14e;" horiz-adv-x="1537" d="M121 719q0 153 43 288.5t127 236.5t208 160t287 59q162 0 286 -59t208 -160.5t127 -237t43 -287.5t-43 -287.5t-127 -237t-208 -161t-286 -59.5q-108 0 -199.5 27t-165.5 76t-130 117t-94 151t-57 177.5t-19 196.5zM240 719q0 -127 33.5 -241.5t101.5 -201t170.5 -137.5 t240.5 -51q137 0 239.5 51t170 138t101 201.5t33.5 240.5q0 127 -33.5 241t-101 200.5t-169.5 137.5t-240 51t-240.5 -50.5t-170.5 -137t-101.5 -200.5t-33.5 -242zM458 1939h120q0 -42 15 -73.5t41 -52.5t61 -31.5t75 -10.5t75 10.5t60.5 31.5t40.5 52.5t15 73.5h120 q0 -64 -23.5 -116.5t-64.5 -89.5t-98 -57t-125 -20q-67 0 -124.5 20t-99 57t-65 89.5t-23.5 116.5z" />
<glyph unicode="&#x14f;" horiz-adv-x="1193" d="M121 519q0 119 34 217t96 168.5t150 109t196 38.5t195.5 -39t150 -109t96.5 -168t34 -217q0 -118 -34 -216.5t-96.5 -168.5t-150 -109t-195.5 -39t-196 38.5t-150 109t-96 168.5t-34 217zM238 519q0 -94 24.5 -171.5t71 -133t113 -86t150.5 -30.5t150.5 30.5t113 86 t71 133t24.5 171.5t-24.5 171.5t-71 132.5t-113 85.5t-150.5 30.5t-150.5 -30.5t-113 -85.5t-71 -132.5t-24.5 -171.5zM286 1533h119q0 -42 15 -73.5t41 -52.5t61 -31.5t75 -10.5q41 0 76 10.5t60.5 31.5t40.5 52.5t15 73.5h119q0 -64 -23.5 -116t-64.5 -89t-98 -57 t-125 -20q-67 0 -124 20t-98.5 57t-65 89t-23.5 116z" />
<glyph unicode="&#x150;" horiz-adv-x="1537" d="M121 719q0 153 43 288.5t127 236.5t208 160t287 59q162 0 286 -59t208 -160.5t127 -237t43 -287.5t-43 -287.5t-127 -237t-208 -161t-286 -59.5q-108 0 -199.5 27t-165.5 76t-130 117t-94 151t-57 177.5t-19 196.5zM240 719q0 -127 33.5 -241.5t101.5 -201t170.5 -137.5 t240.5 -51q137 0 239.5 51t170 138t101 201.5t33.5 240.5q0 127 -33.5 241t-101 200.5t-169.5 137.5t-240 51t-240.5 -50.5t-170.5 -137t-101.5 -200.5t-33.5 -242zM409 1658l164 339h218l-262 -339h-120zM739 1658l170 339h220l-268 -339h-122z" />
<glyph unicode="&#x151;" horiz-adv-x="1193" d="M121 519q0 119 34 217t96 168.5t150 109t196 38.5t195.5 -39t150 -109t96.5 -168t34 -217q0 -118 -34 -216.5t-96.5 -168.5t-150 -109t-195.5 -39t-196 38.5t-150 109t-96 168.5t-34 217zM233 1254l163 336h228l-267 -336h-124zM238 519q0 -94 24.5 -171.5t71 -133 t113 -86t150.5 -30.5t150.5 30.5t113 86t71 133t24.5 171.5t-24.5 171.5t-71 132.5t-113 85.5t-150.5 30.5t-150.5 -30.5t-113 -85.5t-71 -132.5t-24.5 -171.5zM571 1254l162 336h228l-266 -336h-124z" />
<glyph unicode="&#x152;" horiz-adv-x="1989" d="M118 713q0 149 42 281t123.5 230.5t203 156t280.5 57.5q45 0 89 -5.5t88 -17.5v23l938 -1v-112l-821 1v-525h729v-112h-729v-578h821v-112h-935q-3 2 -5.5 4.5l-4.5 4.5q-81 -22 -170 -22q-159 0 -280 58t-203 157t-124 231t-42 281zM236 713q0 -124 32.5 -235.5 t98.5 -196t165.5 -134t234.5 -49.5q45 0 89.5 7t87.5 21v1173q-43 14 -87.5 20.5t-89.5 6.5q-135 0 -234.5 -49t-165.5 -133t-98.5 -195.5t-32.5 -235.5z" />
<glyph unicode="&#x153;" horiz-adv-x="2026" d="M118 519q0 110 31 206.5t91 169.5t149 115t205 42q80 0 146.5 -20.5t120 -58t94 -90t66.5 -116.5q26 64 66.5 116.5t94.5 90t121 58t147 20.5q119 0 208 -43.5t148.5 -118t89.5 -172.5t30 -207l-836 3q1 -84 23.5 -159.5t66.5 -132.5t111.5 -90.5t158.5 -33.5 q122 0 205.5 63.5t125.5 175.5l110 -39q-26 -73 -69 -130.5t-99 -98t-125 -62t-148 -21.5q-80 0 -147 20.5t-121 58t-94.5 90.5t-66.5 117q-26 -64 -66.5 -117t-94 -90.5t-120 -58t-146.5 -20.5q-116 0 -205 42.5t-149 115t-91 169.5t-31 206zM236 519q0 -84 21.5 -160.5 t65.5 -134t111.5 -92t159.5 -34.5t159.5 34.5t112 92t66.5 134t22 160.5t-22 160.5t-66.5 134t-112 91.5t-159.5 34t-159.5 -34t-111.5 -91.5t-65.5 -134t-21.5 -160.5zM1100 626l700 -3q-10 70 -39 128t-74 100t-105 65t-132 23q-77 0 -137 -24t-103.5 -66t-70.5 -99 t-39 -124z" />
<glyph unicode="&#x154;" horiz-adv-x="1254" d="M121 0v1446q103 -2 204 -1.5t204 0.5q45 0 88.5 -0.5t87.5 -4.5q92 -7 170.5 -35.5t135.5 -80t89.5 -126t32.5 -172.5q0 -56 -13 -108.5t-39 -98.5t-64.5 -84t-88.5 -65q50 -27 88 -64.5t64 -83.5t39.5 -98t13.5 -108v-316h-117v287q0 73 -20.5 133t-60.5 103.5t-98 67.5 t-133 24q-117 0 -232.5 -0.5t-232.5 -0.5v-614h-118zM239 725q117 0 233 0.5t233 0.5q66 0 123 21.5t99 60.5t65.5 94.5t23.5 122.5q0 74 -23.5 128t-65 91t-99 58t-125.5 27q-42 4 -82.5 4.5t-82.5 0.5q-75 0 -149.5 -1t-149.5 0v-608zM457 1633l164 313h178l-239 -313 h-103z" />
<glyph unicode="&#x155;" horiz-adv-x="629" d="M121 1032h117v-159q49 84 133 121.5t193 37.5v-114q-57 1 -111.5 -8t-99 -33t-75 -65.5t-39.5 -104.5l1 -707h-117zM235 1129l164 314h173l-238 -314h-99z" />
<glyph unicode="&#x156;" horiz-adv-x="1254" d="M121 0v1446q103 -2 204 -1.5t204 0.5q45 0 88.5 -0.5t87.5 -4.5q92 -7 170.5 -35.5t135.5 -80t89.5 -126t32.5 -172.5q0 -56 -13 -108.5t-39 -98.5t-64.5 -84t-88.5 -65q50 -27 88 -64.5t64 -83.5t39.5 -98t13.5 -108v-316h-117v287q0 73 -20.5 133t-60.5 103.5t-98 67.5 t-133 24q-117 0 -232.5 -0.5t-232.5 -0.5v-614h-118zM239 725q117 0 233 0.5t233 0.5q66 0 123 21.5t99 60.5t65.5 94.5t23.5 122.5q0 74 -23.5 128t-65 91t-99 58t-125.5 27q-42 4 -82.5 4.5t-82.5 0.5q-75 0 -149.5 -1t-149.5 0v-608zM470 -454l87 289h175l-171 -289h-91z " />
<glyph unicode="&#x157;" horiz-adv-x="629" d="M78 -454l87 289h175l-171 -289h-91zM121 1032h117v-159q49 84 133 121.5t193 37.5v-114q-57 1 -111.5 -8t-99 -33t-75 -65.5t-39.5 -104.5l1 -707h-117z" />
<glyph unicode="&#x158;" horiz-adv-x="1254" d="M121 0v1446q103 -2 204 -1.5t204 0.5q45 0 88.5 -0.5t87.5 -4.5q92 -7 170.5 -35.5t135.5 -80t89.5 -126t32.5 -172.5q0 -56 -13 -108.5t-39 -98.5t-64.5 -84t-88.5 -65q50 -27 88 -64.5t64 -83.5t39.5 -98t13.5 -108v-316h-117v287q0 73 -20.5 133t-60.5 103.5t-98 67.5 t-133 24q-117 0 -232.5 -0.5t-232.5 -0.5v-614h-118zM239 725q117 0 233 0.5t233 0.5q66 0 123 21.5t99 60.5t65.5 94.5t23.5 122.5q0 74 -23.5 128t-65 91t-99 58t-125.5 27q-42 4 -82.5 4.5t-82.5 0.5q-75 0 -149.5 -1t-149.5 0v-608zM421 1969h116l104 -235l41 51 l114 184l-18 -64l-96 -120l-47 -75l-38 -26z" />
<glyph unicode="&#x159;" horiz-adv-x="629" d="M42 1474h118l180 -198l187 198h106l-250 -324l-88 1zM121 1032h117v-159q49 84 133 121.5t193 37.5v-114q-57 1 -111.5 -8t-99 -33t-75 -65.5t-39.5 -104.5l1 -707h-117z" />
<glyph unicode="&#x15a;" horiz-adv-x="1273" d="M121 434l118 -1q0 -84 12.5 -147t45.5 -105.5t90.5 -63.5t148.5 -21q58 0 115.5 -0.5t115.5 -0.5q64 0 113.5 26t84 69t52.5 98.5t18 114.5q0 85 -26 139t-69.5 86.5t-101 48.5t-120.5 24t-127.5 13t-122.5 17q-66 14 -120 43t-92.5 72.5t-59 100t-20.5 126.5 q0 83 27 149t75 113.5t115 75.5t146 35q44 3 86 3q211 0 320.5 -104t117.5 -313l-116 -3q-4 160 -82.5 234.5t-239.5 74.5q-65 0 -125.5 -13t-107 -43t-74 -80.5t-27.5 -125.5q0 -72 27 -118.5t71 -74.5t101 -41.5t117.5 -21t119.5 -12t108 -13.5q154 -31 236 -133.5 t82 -259.5q0 -85 -27 -161t-77 -133.5t-121.5 -91t-160.5 -33.5q-58 0 -115.5 0.5t-115.5 0.5q-115 0 -194.5 29t-128.5 86t-70.5 141t-21.5 194zM466 1633l164 313h178l-239 -313h-103z" />
<glyph unicode="&#x15b;" horiz-adv-x="1047" d="M112 308l117 -3q0 -60 10.5 -99.5t34.5 -63t63.5 -33t98.5 -9.5q45 0 90.5 -0.5t90.5 -0.5q40 0 73.5 14t58 39t38.5 59t14 74q0 54 -21.5 87.5t-56 53.5t-79.5 28.5t-91.5 13t-91 7.5t-79.5 11q-54 12 -100 33.5t-79.5 55t-52 79.5t-18.5 105q0 80 31 136t82 91 t117 51.5t136 16.5q82 0 149 -18.5t115.5 -58.5t76.5 -101.5t31 -148.5l-118 -2q-1 62 -19.5 103.5t-51.5 66.5t-79.5 35.5t-103.5 10.5q-45 0 -89.5 -8t-80 -29t-57.5 -56t-22 -89q0 -52 21.5 -84.5t57 -51.5t80.5 -28t91.5 -13.5t91 -7.5t77.5 -10q57 -13 103 -35 t78.5 -56t50 -80.5t17.5 -107.5q0 -66 -22.5 -121t-63 -94.5t-95.5 -61.5t-120 -22q-26 0 -53 -0.5t-53 -0.5q-95 0 -169 11t-125 45t-77.5 98t-26.5 169zM424 1129l164 314h173l-238 -314h-99z" />
<glyph unicode="&#x15c;" horiz-adv-x="1273" d="M121 434l118 -1q0 -84 12.5 -147t45.5 -105.5t90.5 -63.5t148.5 -21q58 0 115.5 -0.5t115.5 -0.5q64 0 113.5 26t84 69t52.5 98.5t18 114.5q0 85 -26 139t-69.5 86.5t-101 48.5t-120.5 24t-127.5 13t-122.5 17q-66 14 -120 43t-92.5 72.5t-59 100t-20.5 126.5 q0 83 27 149t75 113.5t115 75.5t146 35q44 3 86 3q211 0 320.5 -104t117.5 -313l-116 -3q-4 160 -82.5 234.5t-239.5 74.5q-65 0 -125.5 -13t-107 -43t-74 -80.5t-27.5 -125.5q0 -72 27 -118.5t71 -74.5t101 -41.5t117.5 -21t119.5 -12t108 -13.5q154 -31 236 -133.5 t82 -259.5q0 -85 -27 -161t-77 -133.5t-121.5 -91t-160.5 -33.5q-58 0 -115.5 0.5t-115.5 0.5q-115 0 -194.5 29t-128.5 86t-70.5 141t-21.5 194zM347 1647l245 322h89l245 -322h-105l-183 197l-176 -197h-115z" />
<glyph unicode="&#x15d;" horiz-adv-x="1047" d="M112 308l117 -3q0 -60 10.5 -99.5t34.5 -63t63.5 -33t98.5 -9.5q45 0 90.5 -0.5t90.5 -0.5q40 0 73.5 14t58 39t38.5 59t14 74q0 54 -21.5 87.5t-56 53.5t-79.5 28.5t-91.5 13t-91 7.5t-79.5 11q-54 12 -100 33.5t-79.5 55t-52 79.5t-18.5 105q0 80 31 136t82 91 t117 51.5t136 16.5q82 0 149 -18.5t115.5 -58.5t76.5 -101.5t31 -148.5l-118 -2q-1 62 -19.5 103.5t-51.5 66.5t-79.5 35.5t-103.5 10.5q-45 0 -89.5 -8t-80 -29t-57.5 -56t-22 -89q0 -52 21.5 -84.5t57 -51.5t80.5 -28t91.5 -13.5t91 -7.5t77.5 -10q57 -13 103 -35 t78.5 -56t50 -80.5t17.5 -107.5q0 -66 -22.5 -121t-63 -94.5t-95.5 -61.5t-120 -22q-26 0 -53 -0.5t-53 -0.5q-95 0 -169 11t-125 45t-77.5 98t-26.5 169zM217 1140l246 322h88l246 -322h-106l-182 197l-177 -197h-115z" />
<glyph unicode="&#x15e;" horiz-adv-x="1273" d="M121 434l118 -1q0 -84 12.5 -147t45.5 -105.5t90.5 -63.5t148.5 -21q58 0 115.5 -0.5t115.5 -0.5q64 0 113.5 26t84 69t52.5 98.5t18 114.5q0 85 -26 139t-69.5 86.5t-101 48.5t-120.5 24t-127.5 13t-122.5 17q-66 14 -120 43t-92.5 72.5t-59 100t-20.5 126.5 q0 83 27 149t75 113.5t115 75.5t146 35q44 3 86 3q211 0 320.5 -104t117.5 -313l-116 -3q-4 160 -82.5 234.5t-239.5 74.5q-65 0 -125.5 -13t-107 -43t-74 -80.5t-27.5 -125.5q0 -72 27 -118.5t71 -74.5t101 -41.5t117.5 -21t119.5 -12t108 -13.5q154 -31 236 -133.5 t82 -259.5q0 -85 -27 -161t-77 -133.5t-121.5 -91t-160.5 -33.5q-58 0 -115.5 0.5t-115.5 0.5q-115 0 -194.5 29t-128.5 86t-70.5 141t-21.5 194zM393 -462l70 89q26 -22 58.5 -36t67.5 -14q16 0 32 3.5t28.5 12t20.5 21.5t8 32q1 31 -13.5 50.5t-37 31t-50 15.5t-51.5 4 q-17 0 -36 -1.5t-39 -5.5v64q2 4 18.5 28t37 53t38 54t21.5 31h142l-104 -139q40 -6 74 -18.5t59 -34t39 -53t14 -76.5q0 -43 -17 -76t-45 -56t-65 -35t-77 -12q-53 0 -102 19.5t-91 48.5z" />
<glyph unicode="&#x15f;" horiz-adv-x="1047" d="M112 308l117 -3q0 -60 10.5 -99.5t34.5 -63t63.5 -33t98.5 -9.5q45 0 90.5 -0.5t90.5 -0.5q40 0 73.5 14t58 39t38.5 59t14 74q0 54 -21.5 87.5t-56 53.5t-79.5 28.5t-91.5 13t-91 7.5t-79.5 11q-54 12 -100 33.5t-79.5 55t-52 79.5t-18.5 105q0 80 31 136t82 91 t117 51.5t136 16.5q82 0 149 -18.5t115.5 -58.5t76.5 -101.5t31 -148.5l-118 -2q-1 62 -19.5 103.5t-51.5 66.5t-79.5 35.5t-103.5 10.5q-45 0 -89.5 -8t-80 -29t-57.5 -56t-22 -89q0 -52 21.5 -84.5t57 -51.5t80.5 -28t91.5 -13.5t91 -7.5t77.5 -10q57 -13 103 -35 t78.5 -56t50 -80.5t17.5 -107.5q0 -66 -22.5 -121t-63 -94.5t-95.5 -61.5t-120 -22q-26 0 -53 -0.5t-53 -0.5q-95 0 -169 11t-125 45t-77.5 98t-26.5 169zM291 -462l70 89q26 -22 58.5 -36t67.5 -14q16 0 32 3.5t28.5 12t20.5 21.5t8 32q1 31 -13.5 50.5t-37 31t-50 15.5 t-51.5 4q-17 0 -36 -1.5t-39 -5.5v64q2 4 18.5 28t37 53t38 54t21.5 31h142l-104 -139q40 -6 74 -18.5t59 -34t39 -53t14 -76.5q0 -43 -17 -76t-45 -56t-65 -35t-77 -12q-53 0 -102 19.5t-91 48.5z" />
<glyph unicode="&#x160;" horiz-adv-x="1273" d="M121 434l118 -1q0 -84 12.5 -147t45.5 -105.5t90.5 -63.5t148.5 -21q58 0 115.5 -0.5t115.5 -0.5q64 0 113.5 26t84 69t52.5 98.5t18 114.5q0 85 -26 139t-69.5 86.5t-101 48.5t-120.5 24t-127.5 13t-122.5 17q-66 14 -120 43t-92.5 72.5t-59 100t-20.5 126.5 q0 83 27 149t75 113.5t115 75.5t146 35q44 3 86 3q211 0 320.5 -104t117.5 -313l-116 -3q-4 160 -82.5 234.5t-239.5 74.5q-65 0 -125.5 -13t-107 -43t-74 -80.5t-27.5 -125.5q0 -72 27 -118.5t71 -74.5t101 -41.5t117.5 -21t119.5 -12t108 -13.5q154 -31 236 -133.5 t82 -259.5q0 -85 -27 -161t-77 -133.5t-121.5 -91t-160.5 -33.5q-58 0 -115.5 0.5t-115.5 0.5q-115 0 -194.5 29t-128.5 86t-70.5 141t-21.5 194zM431 1969h116l104 -235l41 51l114 184l-18 -64l-96 -120l-47 -75l-38 -26z" />
<glyph unicode="&#x161;" horiz-adv-x="1047" d="M112 308l117 -3q0 -60 10.5 -99.5t34.5 -63t63.5 -33t98.5 -9.5q45 0 90.5 -0.5t90.5 -0.5q40 0 73.5 14t58 39t38.5 59t14 74q0 54 -21.5 87.5t-56 53.5t-79.5 28.5t-91.5 13t-91 7.5t-79.5 11q-54 12 -100 33.5t-79.5 55t-52 79.5t-18.5 105q0 80 31 136t82 91 t117 51.5t136 16.5q82 0 149 -18.5t115.5 -58.5t76.5 -101.5t31 -148.5l-118 -2q-1 62 -19.5 103.5t-51.5 66.5t-79.5 35.5t-103.5 10.5q-45 0 -89.5 -8t-80 -29t-57.5 -56t-22 -89q0 -52 21.5 -84.5t57 -51.5t80.5 -28t91.5 -13.5t91 -7.5t77.5 -10q57 -13 103 -35 t78.5 -56t50 -80.5t17.5 -107.5q0 -66 -22.5 -121t-63 -94.5t-95.5 -61.5t-120 -22q-26 0 -53 -0.5t-53 -0.5q-95 0 -169 11t-125 45t-77.5 98t-26.5 169zM231 1474h118l180 -198l187 198h106l-250 -324l-88 1z" />
<glyph unicode="&#x162;" horiz-adv-x="1236" d="M50 1326v112h1134v-112h-511v-1326h-117v1326h-506zM491 -454l87 289h175l-171 -289h-91z" />
<glyph unicode="&#x163;" horiz-adv-x="591" d="M82 921v112h79l1 278h116l-1 -278h222v-112h-222l-1 -645q0 -55 12.5 -87.5t35 -49.5t55.5 -22.5t73 -5.5h74v-112h-86q-136 0 -206 65.5t-73 199.5q-1 16 -1 31v31l1 595h-79zM201 -454l87 289h175l-171 -289h-91z" />
<glyph unicode="&#x164;" horiz-adv-x="1236" d="M50 1326v112h1134v-112h-511v-1326h-117v1326h-506zM412 1969h116l104 -235l41 51l114 184l-18 -64l-96 -120l-47 -75l-38 -26z" />
<glyph unicode="&#x165;" horiz-adv-x="983" d="M33 921v112h79l1 278h116l-1 -278h222v-112h-222q0 -152 -0.5 -301.5t-0.5 -300.5v-43q0 -89 37 -126q15 -17 38.5 -25t51.5 -11t59.5 -3h63.5v-112h-86q-137 0 -207 66.5t-72 201.5q-1 13 -1 25.5v26.5q0 151 0.5 300.5t0.5 301.5h-79zM619 1016l60 421h192l-155 -420z " />
<glyph unicode="&#x166;" horiz-adv-x="1236" d="M50 1326v112h1134v-112h-511v-1326h-117v1326h-506zM274 1533v114h677v-114h-677z" />
<glyph unicode="&#x167;" horiz-adv-x="591" d="M-43 1563v114h677v-114h-677zM82 921v112h79l1 278h116l-1 -278h222v-112h-222l-1 -645q0 -55 12.5 -87.5t35 -49.5t55.5 -22.5t73 -5.5h74v-112h-86q-136 0 -206 65.5t-73 199.5q-1 16 -1 31v31l1 595h-79z" />
<glyph unicode="&#x168;" horiz-adv-x="1261" d="M120 505v932h118v-932q0 -87 28 -162.5t79.5 -130.5t124 -86.5t161.5 -31.5t161.5 31.5t123.5 86.5t79 130.5t28 162.5v932h118v-932q0 -113 -37 -209t-104 -165.5t-161 -109t-208 -39.5t-208 39.5t-161.5 109t-104.5 165.5t-37 209zM279 1709q12 39 32.5 72t49 57.5 t64 38.5t77.5 14q49 0 85.5 -17t67.5 -38t60 -38t64 -17q23 0 41.5 9t32.5 24t24 34t16 39l89 -27q-12 -39 -30 -73.5t-44 -60.5t-60.5 -41.5t-78.5 -15.5q-48 0 -85 17.5t-68 38.5t-60 38.5t-61 17.5q-44 0 -79 -28t-47 -70z" />
<glyph unicode="&#x169;" horiz-adv-x="1053" d="M121 333q0 177 0.5 347t1.5 348h118l-3 -695q0 -58 19 -102t53 -74t80 -45t101 -15q47 0 97 13.5t94 39t79 61.5t51 82l2 -1l-1 736h117l2 -1017h-117v143q-28 -40 -65.5 -71.5t-81 -53t-91.5 -32.5t-96 -11q-78 0 -144 24t-114 69t-75 109.5t-27 144.5zM169 1199 q12 40 32 73t48 57t64 37.5t79 13.5q53 0 89 -17t65.5 -38t57.5 -38t65 -17q23 0 41.5 9t32.5 24t23.5 34.5t15.5 39.5l90 -27q-12 -39 -30 -73.5t-44 -60.5t-60.5 -41.5t-78.5 -15.5q-35 0 -62.5 8t-50.5 20.5t-42.5 27t-38.5 27t-38.5 20.5t-41.5 8q-45 0 -79.5 -28 t-46.5 -70z" />
<glyph unicode="&#x16a;" horiz-adv-x="1261" d="M120 505v932h118v-932q0 -87 28 -162.5t79.5 -130.5t124 -86.5t161.5 -31.5t161.5 31.5t123.5 86.5t79 130.5t28 162.5v932h118v-932q0 -113 -37 -209t-104 -165.5t-161 -109t-208 -39.5t-208 39.5t-161.5 109t-104.5 165.5t-37 209zM292 1674v114h677v-114h-677z" />
<glyph unicode="&#x16b;" horiz-adv-x="1053" d="M121 333q0 177 0.5 347t1.5 348h118l-3 -695q0 -58 19 -102t53 -74t80 -45t101 -15q47 0 97 13.5t94 39t79 61.5t51 82l2 -1l-1 736h117l2 -1017h-117v143q-28 -40 -65.5 -71.5t-81 -53t-91.5 -32.5t-96 -11q-78 0 -144 24t-114 69t-75 109.5t-27 144.5zM179 1135v114 h677v-114h-677z" />
<glyph unicode="&#x16c;" horiz-adv-x="1261" d="M120 505v932h118v-932q0 -87 28 -162.5t79.5 -130.5t124 -86.5t161.5 -31.5t161.5 31.5t123.5 86.5t79 130.5t28 162.5v932h118v-932q0 -113 -37 -209t-104 -165.5t-161 -109t-208 -39.5t-208 39.5t-161.5 109t-104.5 165.5t-37 209zM319 1939h120q0 -42 15 -73.5 t41 -52.5t61 -31.5t75 -10.5t75 10.5t60.5 31.5t40.5 52.5t15 73.5h120q0 -64 -23.5 -116.5t-64.5 -89.5t-98 -57t-125 -20q-67 0 -124.5 20t-99 57t-65 89.5t-23.5 116.5z" />
<glyph unicode="&#x16d;" horiz-adv-x="1053" d="M121 333q0 177 0.5 347t1.5 348h118l-3 -695q0 -58 19 -102t53 -74t80 -45t101 -15q47 0 97 13.5t94 39t79 61.5t51 82l2 -1l-1 736h117l2 -1017h-117v143q-28 -40 -65.5 -71.5t-81 -53t-91.5 -32.5t-96 -11q-78 0 -144 24t-114 69t-75 109.5t-27 144.5zM216 1533h119 q0 -42 15 -73.5t41 -52.5t61 -31.5t75 -10.5q41 0 76 10.5t60.5 31.5t40.5 52.5t15 73.5h119q0 -64 -23.5 -116t-64.5 -89t-98 -57t-125 -20q-67 0 -124 20t-98.5 57t-65 89t-23.5 116z" />
<glyph unicode="&#x16e;" horiz-adv-x="1261" d="M120 505v932h118v-932q0 -87 28 -162.5t79.5 -130.5t124 -86.5t161.5 -31.5t161.5 31.5t123.5 86.5t79 130.5t28 162.5v932h118v-932q0 -113 -37 -209t-104 -165.5t-161 -109t-208 -39.5t-208 39.5t-161.5 109t-104.5 165.5t-37 209zM447 1850q0 41 13.5 74.5t38 57.5 t58.5 37.5t74 13.5q41 0 74.5 -13.5t58 -37.5t38 -57.5t13.5 -74.5t-13.5 -75t-37.5 -58.5t-58 -38t-75 -13.5t-75 13.5t-58 38t-37.5 58.5t-13.5 75zM539 1850q0 -43 24 -68t68 -25t68 25t24 68t-25 67t-67 24t-67 -24t-25 -67z" />
<glyph unicode="&#x16f;" horiz-adv-x="1053" d="M121 333q0 177 0.5 347t1.5 348h118l-3 -695q0 -58 19 -102t53 -74t80 -45t101 -15q47 0 97 13.5t94 39t79 61.5t51 82l2 -1l-1 736h117l2 -1017h-117v143q-28 -40 -65.5 -71.5t-81 -53t-91.5 -32.5t-96 -11q-78 0 -144 24t-114 69t-75 109.5t-27 144.5zM345 1347 q0 38 13 71.5t37 58t59 39t78 14.5q44 0 78.5 -14.5t58.5 -39t37 -58t13 -71.5t-12.5 -72t-36.5 -59t-59 -39.5t-79 -14.5t-79 14.5t-59 39.5t-36.5 59t-12.5 72zM438 1347q0 -44 24.5 -69.5t69.5 -25.5t69.5 25.5t24.5 69.5t-25 68.5t-69 24.5t-69 -24.5t-25 -68.5z" />
<glyph unicode="&#x170;" horiz-adv-x="1261" d="M120 505v932h118v-932q0 -87 28 -162.5t79.5 -130.5t124 -86.5t161.5 -31.5t161.5 31.5t123.5 86.5t79 130.5t28 162.5v932h118v-932q0 -113 -37 -209t-104 -165.5t-161 -109t-208 -39.5t-208 39.5t-161.5 109t-104.5 165.5t-37 209zM270 1658l164 339h218l-262 -339 h-120zM600 1658l170 339h220l-268 -339h-122z" />
<glyph unicode="&#x171;" horiz-adv-x="1053" d="M121 333q0 177 0.5 347t1.5 348h118l-3 -695q0 -58 19 -102t53 -74t80 -45t101 -15q47 0 97 13.5t94 39t79 61.5t51 82l2 -1l-1 736h117l2 -1017h-117v143q-28 -40 -65.5 -71.5t-81 -53t-91.5 -32.5t-96 -11q-78 0 -144 24t-114 69t-75 109.5t-27 144.5zM163 1254 l163 336h228l-267 -336h-124zM501 1254l162 336h228l-266 -336h-124z" />
<glyph unicode="&#x172;" horiz-adv-x="1261" d="M120 505v932h118v-932q0 -87 28 -162.5t79.5 -130.5t124 -86.5t161.5 -31.5t161.5 31.5t123.5 86.5t79 130.5t28 162.5v932h118v-932q0 -113 -37 -209t-104 -165.5t-161 -109t-208 -39.5t-208 39.5t-161.5 109t-104.5 165.5t-37 209zM385 -319q0 36 14 72t35 69.5 t47 63.5t50 54h175q-14 -12 -34.5 -30.5t-43 -40.5t-45 -46.5t-40 -49t-28.5 -47.5t-11 -42q0 -24 15.5 -39.5t38 -23.5t47 -11t42.5 -3q17 0 35 1t35 3v-114q-17 -2 -35 -3t-35 -1q-43 0 -89 10t-84.5 32.5t-63.5 58.5t-25 87z" />
<glyph unicode="&#x173;" horiz-adv-x="1053" d="M121 333q0 177 0.5 347t1.5 348h118l-3 -695q0 -58 19 -102t53 -74t80 -45t101 -15q47 0 97 13.5t94 39t79 61.5t51 82l2 -1l-1 736h117l2 -1017h-117v143q-28 -40 -65.5 -71.5t-81 -53t-91.5 -32.5t-96 -11q-78 0 -144 24t-114 69t-75 109.5t-27 144.5zM260 -319 q0 36 14 72t35 69.5t47 63.5t50 54h175q-14 -12 -34.5 -30.5t-43 -40.5t-45 -46.5t-40 -49t-28.5 -47.5t-11 -42q0 -24 15.5 -39.5t38 -23.5t47 -11t42.5 -3q17 0 35 1t35 3v-114q-17 -2 -35 -3t-35 -1q-43 0 -89 10t-84.5 32.5t-63.5 58.5t-25 87z" />
<glyph unicode="&#x174;" horiz-adv-x="1955" d="M81 1437h121l360 -1201l355 1202l119 -4l358 -1198l359 1201h121l-427 -1434h-105l-365 1220l-362 -1220h-106zM688 1647l245 322h89l245 -322h-105l-183 197l-176 -197h-115z" />
<glyph unicode="&#x175;" horiz-adv-x="1479" d="M29 1031h120l270 -800l267 797h118l270 -797l268 800h120l-345 -1029l-77 3l-293 849l-295 -849l-77 -3zM417 1140l246 322h88l246 -322h-106l-182 197l-177 -197h-115z" />
<glyph unicode="&#x176;" horiz-adv-x="1320" d="M81 1437h133l446 -778l446 778h134l-523 -913l1 -524h-118v531zM371 1647l245 322h89l245 -322h-105l-183 197l-176 -197h-115z" />
<glyph unicode="&#x177;" horiz-adv-x="1029" d="M16 1031h125l343 -871l393 871h128l-599 -1327q-24 -55 -70.5 -88t-107.5 -33q-38 0 -74.5 11.5t-72.5 21.5v117q32 -10 69 -24.5t71 -14.5q31 0 50 17t31 44q29 65 59 131.5t56 126.5zM160 1142l246 322h88l246 -322h-106l-182 197l-177 -197h-115z" />
<glyph unicode="&#x178;" horiz-adv-x="1320" d="M81 1437h133l446 -778l446 778h134l-523 -913l1 -524h-118v531zM379 1770q0 44 28 74.5t79 30.5t78 -30.5t27 -74.5q0 -43 -27 -73.5t-78 -30.5t-79 30t-28 74zM730 1770q0 44 27.5 74.5t78.5 30.5t78.5 -30.5t27.5 -74.5q0 -43 -27.5 -73.5t-78.5 -30.5t-78.5 30 t-27.5 74z" />
<glyph unicode="&#x179;" horiz-adv-x="1381" d="M121 -1l1 112l987 1215h-988v112h1138l1 -112l-986 -1215h985v-112h-1138zM520 1633l164 313h178l-239 -313h-103z" />
<glyph unicode="&#x17a;" horiz-adv-x="1121" d="M130 -1v113l714 801h-707v112h863v-105l-727 -809h727v-112h-870zM433 1129l164 314h173l-238 -314h-99z" />
<glyph unicode="&#x17b;" horiz-adv-x="1381" d="M121 -1l1 112l987 1215h-988v112h1138l1 -112l-986 -1215h985v-112h-1138zM575 1783q0 23 7.5 43.5t22.5 36t36.5 24.5t49.5 9q56 0 85.5 -33t29.5 -80t-29.5 -80t-85.5 -33q-28 0 -49.5 9t-36.5 24.5t-22.5 36t-7.5 43.5z" />
<glyph unicode="&#x17c;" horiz-adv-x="1121" d="M130 -1v113l714 801h-707v112h863v-105l-727 -809h727v-112h-870zM447 1386q0 47 29.5 79.5t84.5 32.5q56 0 85 -32.5t29 -79.5t-29 -80t-85 -33q-55 0 -84.5 33t-29.5 80z" />
<glyph unicode="&#x17d;" horiz-adv-x="1381" d="M121 -1l1 112l987 1215h-988v112h1138l1 -112l-986 -1215h985v-112h-1138zM485 1969h116l104 -235l41 51l114 184l-18 -64l-96 -120l-47 -75l-38 -26z" />
<glyph unicode="&#x17e;" horiz-adv-x="1121" d="M130 -1v113l714 801h-707v112h863v-105l-727 -809h727v-112h-870zM240 1474h118l180 -198l187 198h106l-250 -324l-88 1z" />
<glyph unicode="&#x17f;" horiz-adv-x="668" />
<glyph unicode="&#x192;" horiz-adv-x="1287" d="M200 219v48h120q0 -7 -0.5 -21.5t-0.5 -21.5q0 -55 35 -88t89 -33q26 0 48.5 8t39 23t26.5 36.5t10 48.5v702h-111v114h111v90q0 159 79.5 237.5t235.5 78.5q23 0 47.5 -4.5t49.5 -13t48 -19.5t41 -23l-63 -97q-12 8 -28 15.5t-33 13.5t-34 10t-32 4q-54 0 -90.5 -12.5 t-59 -37.5t-32.5 -63.5t-10 -90.5v-88h275v-114h-275v-702q0 -53 -19 -95.5t-51.5 -72.5t-77 -46t-95.5 -16t-95 16.5t-77 46.5t-52 72.5t-19 94.5z" />
<glyph unicode="&#x218;" horiz-adv-x="1273" d="M121 434l118 -1q0 -84 12.5 -147t45.5 -105.5t90.5 -63.5t148.5 -21q58 0 115.5 -0.5t115.5 -0.5q64 0 113.5 26t84 69t52.5 98.5t18 114.5q0 85 -26 139t-69.5 86.5t-101 48.5t-120.5 24t-127.5 13t-122.5 17q-66 14 -120 43t-92.5 72.5t-59 100t-20.5 126.5 q0 83 27 149t75 113.5t115 75.5t146 35q44 3 86 3q211 0 320.5 -104t117.5 -313l-116 -3q-4 160 -82.5 234.5t-239.5 74.5q-65 0 -125.5 -13t-107 -43t-74 -80.5t-27.5 -125.5q0 -72 27 -118.5t71 -74.5t101 -41.5t117.5 -21t119.5 -12t108 -13.5q154 -31 236 -133.5 t82 -259.5q0 -85 -27 -161t-77 -133.5t-121.5 -91t-160.5 -33.5q-58 0 -115.5 0.5t-115.5 0.5q-115 0 -194.5 29t-128.5 86t-70.5 141t-21.5 194zM461 -454l87 289h175l-171 -289h-91z" />
<glyph unicode="&#x219;" horiz-adv-x="1047" d="M112 308l117 -3q0 -60 10.5 -99.5t34.5 -63t63.5 -33t98.5 -9.5q45 0 90.5 -0.5t90.5 -0.5q40 0 73.5 14t58 39t38.5 59t14 74q0 54 -21.5 87.5t-56 53.5t-79.5 28.5t-91.5 13t-91 7.5t-79.5 11q-54 12 -100 33.5t-79.5 55t-52 79.5t-18.5 105q0 80 31 136t82 91 t117 51.5t136 16.5q82 0 149 -18.5t115.5 -58.5t76.5 -101.5t31 -148.5l-118 -2q-1 62 -19.5 103.5t-51.5 66.5t-79.5 35.5t-103.5 10.5q-45 0 -89.5 -8t-80 -29t-57.5 -56t-22 -89q0 -52 21.5 -84.5t57 -51.5t80.5 -28t91.5 -13.5t91 -7.5t77.5 -10q57 -13 103 -35 t78.5 -56t50 -80.5t17.5 -107.5q0 -66 -22.5 -121t-63 -94.5t-95.5 -61.5t-120 -22q-26 0 -53 -0.5t-53 -0.5q-95 0 -169 11t-125 45t-77.5 98t-26.5 169zM359 -454l87 289h175l-171 -289h-91z" />
<glyph unicode="&#x21a;" horiz-adv-x="1236" d="M50 1326v112h1134v-112h-511v-1326h-117v1326h-506zM491 -454l87 289h175l-171 -289h-91z" />
<glyph unicode="&#x21b;" horiz-adv-x="591" d="M82 921v112h79l1 278h116l-1 -278h222v-112h-222l-1 -645q0 -55 12.5 -87.5t35 -49.5t55.5 -22.5t73 -5.5h74v-112h-86q-136 0 -206 65.5t-73 199.5q-1 16 -1 31v31l1 595h-79zM201 -454l87 289h175l-171 -289h-91z" />
<glyph unicode="&#x237;" horiz-adv-x="410" d="M-100 -272q47 0 86 2.5t69 13t51 32t31 59.5q13 33 13 92l-2 1105h117l2 -1105q0 -160 -80.5 -234.5t-231.5 -75.5q-14 -1 -27.5 -1h-27.5v112zM116 1279q0 18 7 34t19 28t27.5 18.5t33.5 6.5q37 0 62 -24.5t25 -62.5q0 -37 -25.5 -61t-61.5 -24q-18 0 -33.5 6.5 t-27.5 18t-19 27t-7 33.5z" />
<glyph unicode="&#x2c6;" horiz-adv-x="628" d="M20 1245l246 322h88l246 -322h-106l-182 197l-177 -197h-115z" />
<glyph unicode="&#x2c7;" horiz-adv-x="671" d="M33 1572h118l180 -198l187 198h106l-250 -324l-88 1z" />
<glyph unicode="&#x2c9;" horiz-adv-x="789" d="M91 1263v104h668v-104h-668z" />
<glyph unicode="&#x2d8;" horiz-adv-x="778" d="M84 1533h119q0 -42 15 -73.5t41 -52.5t61 -31.5t75 -10.5q41 0 76 10.5t60.5 31.5t40.5 52.5t15 73.5h119q0 -64 -23.5 -116t-64.5 -89t-98 -57t-125 -20q-67 0 -124 20t-98.5 57t-65 89t-23.5 116z" />
<glyph unicode="&#x2d9;" horiz-adv-x="394" d="M137 1386q0 47 29.5 79.5t84.5 32.5q56 0 85 -32.5t29 -79.5t-29 -80t-85 -33q-55 0 -84.5 33t-29.5 80z" />
<glyph unicode="&#x2da;" horiz-adv-x="461" d="M31 1446q0 38 13 71.5t37 58t59 39t78 14.5q44 0 78.5 -14.5t58.5 -39t37 -58t13 -71.5t-12.5 -72t-36.5 -59t-59 -39.5t-79 -14.5t-79 14.5t-59 39.5t-36.5 59t-12.5 72zM124 1446q0 -44 24.5 -69.5t69.5 -25.5t69.5 25.5t24.5 69.5t-25 68.5t-69 24.5t-69 -24.5 t-25 -68.5z" />
<glyph unicode="&#x2db;" horiz-adv-x="530" d="M124 -256q0 36 14 72t35 69.5t47 63.5t50 54h175q-14 -12 -34.5 -30.5t-43 -40.5t-45 -46.5t-40 -49t-28.5 -47.5t-11 -42q0 -24 15.5 -39.5t38 -23.5t47 -11t42.5 -3q17 0 35 1t35 3v-114q-17 -2 -35 -3t-35 -1q-43 0 -89 10t-84.5 32.5t-63.5 58.5t-25 87z" />
<glyph unicode="&#x2dc;" horiz-adv-x="783" d="M42 1298q12 40 32 73t48 57t64 37.5t79 13.5q53 0 89 -17t65.5 -38t57.5 -38t65 -17q23 0 41.5 9t32.5 24t23.5 34.5t15.5 39.5l90 -27q-12 -39 -30 -73.5t-44 -60.5t-60.5 -41.5t-78.5 -15.5q-35 0 -62.5 8t-50.5 20.5t-42.5 27t-38.5 27t-38.5 20.5t-41.5 8 q-45 0 -79.5 -28t-46.5 -70z" />
<glyph unicode="&#x2dd;" horiz-adv-x="850" d="M55 1254l163 336h228l-267 -336h-124zM393 1254l162 336h228l-266 -336h-124z" />
<glyph unicode="&#x323;" horiz-adv-x="555" d="M174 -246q0 47 29.5 79.5t84.5 32.5q56 0 85 -32.5t29 -79.5t-29 -80t-85 -33q-55 0 -84.5 33t-29.5 80z" />
<glyph unicode="&#x326;" horiz-adv-x="606" d="M164 -391l87 289h175l-171 -289h-91z" />
<glyph unicode="&#x384;" horiz-adv-x="606" d="M181 1217l164 314h178l-239 -314h-103z" />
<glyph unicode="&#x386;" horiz-adv-x="1309" />
<glyph unicode="&#x387;" horiz-adv-x="549" />
<glyph unicode="&#x388;" horiz-adv-x="1313" />
<glyph unicode="&#x389;" horiz-adv-x="1692" />
<glyph unicode="&#x38a;" horiz-adv-x="950" />
<glyph unicode="&#x38c;" horiz-adv-x="1694" />
<glyph unicode="&#x38e;" horiz-adv-x="1477" />
<glyph unicode="&#x38f;" horiz-adv-x="690" d="M-156 1624l164 313h178l-239 -313h-103z" />
<glyph unicode="&#x390;" horiz-adv-x="709" />
<glyph unicode="&#x3a8;" horiz-adv-x="1647" />
<glyph unicode="&#x3a9;" horiz-adv-x="1610" d="M101 756q0 153 48.5 278t137.5 214t213.5 137.5t277.5 48.5q155 0 280.5 -47t214.5 -135t137 -212.5t48 -280.5q0 -100 -22.5 -192.5t-65.5 -176t-106 -155.5t-143 -131h337v-100h-514l15 98q89 62 160 133.5t121.5 153.5t77.5 176t27 202q0 122 -38 225.5t-109.5 179 t-175 118t-234.5 42.5q-132 0 -238 -41.5t-180.5 -115.5t-115 -177.5t-40.5 -228.5q0 -108 27 -202.5t77.5 -177.5t122.5 -154.5t162 -132.5l14 -98h-515v99h337q-163 118 -250.5 284.5t-87.5 368.5z" />
<glyph unicode="&#x3aa;" horiz-adv-x="694" />
<glyph unicode="&#x3ab;" horiz-adv-x="1159" />
<glyph unicode="&#x3ac;" horiz-adv-x="1260" />
<glyph unicode="&#x3ad;" horiz-adv-x="989" />
<glyph unicode="&#x3ae;" horiz-adv-x="1266" />
<glyph unicode="&#x3af;" horiz-adv-x="709" />
<glyph unicode="&#x3b0;" horiz-adv-x="1255" />
<glyph unicode="&#x3bc;" horiz-adv-x="1013" d="M101 -460l2 1517h118l-1 -736q0 -14 4 -32.5t10 -32.5q13 -38 37.5 -65.5t56 -45t69 -26t75.5 -8.5q40 0 79.5 9t76.5 25.5t69.5 41.5t57.5 56q11 14 21.5 30t16.5 34l1 -1l-1 751h117l2 -1032h-117v136q-58 -78 -144.5 -119.5t-183.5 -41.5q-33 0 -66.5 5.5t-65.5 16.5 t-61.5 28.5t-53.5 41.5l-1 -552h-118z" />
<glyph unicode="&#x3c0;" horiz-adv-x="1267" d="M58 824v108q55 38 119 52.5t130 14.5h791v-90h-217v-644q0 -28 4.5 -55.5t17 -48.5t34 -34t54.5 -13q21 0 42.5 5.5t41.5 11.5v-123q-13 -4 -23 -7.5t-19.5 -6.5t-19.5 -4.5t-24 -1.5q-63 0 -106 21t-70 57.5t-38.5 86t-11.5 106.5v650h-353v-635q0 -69 -5.5 -138 t-24.5 -136h-115q21 64 26.5 136t5.5 138v634q-66 -3 -125 -26t-114 -58z" />
<glyph unicode="&#x3c6;" horiz-adv-x="1485" />
<glyph unicode="&#x3c7;" horiz-adv-x="1002" d="M29 1025h146l329 -425l334 425h145l-407 -519l386 -506h-145l-314 411l-318 -410h-146l391 505z" />
<glyph unicode="&#x3c8;" horiz-adv-x="1559" />
<glyph unicode="&#x3c9;" horiz-adv-x="1602" />
<glyph unicode="&#x3ca;" horiz-adv-x="709" />
<glyph unicode="&#x3cb;" horiz-adv-x="1255" />
<glyph unicode="&#x3cc;" horiz-adv-x="1239" />
<glyph unicode="&#x3cd;" horiz-adv-x="1255" />
<glyph unicode="&#x3ce;" horiz-adv-x="1602" />
<glyph unicode="&#x1000;" horiz-adv-x="1938" d="M106 514q0 105 30 198.5t88 163.5t144 110.5t198 40.5q132 0 236 -63t163 -182q59 120 163 182.5t238 62.5q111 0 198 -40.5t147 -110t91 -163t31 -199.5q0 -104 -29.5 -196.5t-86.5 -162.5t-141 -111t-194 -43q-3 -1 -9 -1q-40 0 -79.5 6.5t-78.5 14.5l24 108 q32 -8 65.5 -13.5t68.5 -5.5q88 0 153 33t107.5 88.5t63 128.5t20.5 154t-22 154t-66 128.5t-110 88t-153 32.5q-90 0 -154.5 -32.5t-106 -87.5t-61 -128.5t-19.5 -154.5q0 -86 -17 -162.5t-53 -141.5t-92.5 -117.5t-136.5 -91.5l-50 100q61 29 105.5 71.5t73.5 95t43 113 t14 126.5q0 79 -21.5 153t-65 131t-108 91.5t-151.5 34.5q-88 0 -153 -32.5t-107.5 -88t-63.5 -128.5t-21 -154q0 -67 11.5 -128.5t38.5 -114.5t70.5 -95.5t107.5 -72.5l-48 -100q-80 37 -136 89.5t-91.5 118t-51.5 142.5t-16 161z" />
<glyph unicode="&#x1001;" horiz-adv-x="1109" d="M106 689q23 78 63 140t96 106t126.5 67.5t152.5 23.5q112 0 197.5 -41t143.5 -110.5t88 -163t30 -198.5t-30 -198.5t-88 -163.5t-143.5 -111t-197.5 -41q-127 0 -221 52t-157 151q-7 11 -16 26.5t-16.5 32t-13 33t-5.5 30.5q0 25 17 47q28 38 68.5 65t87.5 44.5t96.5 26 t95.5 8.5q57 0 112.5 -12.5t105.5 -36t92 -58t72 -79.5q16 44 23 88t7 93q0 81 -21 155.5t-63.5 131.5t-108 90.5t-155.5 33.5q-64 0 -117.5 -18.5t-95.5 -52.5t-72 -82t-47 -108zM230 317q40 -102 122 -157t192 -55q77 0 145 29t116 91q-21 48 -56 82.5t-78.5 57.5 t-92.5 34t-99 11q-68 0 -134.5 -21t-114.5 -72z" />
<glyph unicode="&#x1002;" horiz-adv-x="1129" d="M106 507q0 105 29.5 199.5t87 165.5t143.5 112.5t199 41.5t199 -41.5t143.5 -112.5t87 -165.5t29.5 -199.5q0 -179 -73 -303t-232 -196l-45 96q66 31 111.5 71t74 90.5t41 110.5t12.5 131q0 82 -20.5 157t-63.5 132t-108.5 91t-155.5 34q-89 0 -154.5 -34.5t-108.5 -92 t-64 -132t-21 -155.5q0 -70 13 -130t41 -110.5t73.5 -91t109.5 -71.5l-46 -96q-161 77 -231.5 200.5t-70.5 298.5z" />
<glyph unicode="&#x1003;" horiz-adv-x="1936" d="M106 497q0 47 22 80t54.5 58.5t70.5 46t70.5 41.5t54.5 45.5t22 58.5q0 35 -23 62.5t-59 28.5q-36 0 -64 -24t-39 -57l-97 48q15 29 35 54t45.5 44t55.5 30t63 11q40 0 75 -16t61.5 -43t41.5 -63t15 -75q0 -51 -21.5 -88t-54.5 -65.5t-70.5 -50t-70.5 -41.5t-54.5 -41 t-21.5 -47q0 -78 23 -149t67.5 -124t109 -84.5t148.5 -31.5q89 0 154.5 33t109 89t64.5 130t21 155q0 64 -12 124.5t-38.5 113.5t-69 96t-103.5 71l48 95q75 -33 128.5 -85t88.5 -117.5t51.5 -141.5t16.5 -156q0 -17 -1.5 -33t-1.5 -33q0 -25 6 -49.5t14 -47.5 q41 -117 120 -180.5t206 -63.5q89 0 154 33t108 89t64 130t21 155t-21.5 154.5t-64.5 130t-108 90t-153 33.5q-29 0 -57.5 -4t-57.5 -11l-22 103q34 8 68 12.5t69 4.5q112 0 197.5 -41t143.5 -110.5t88 -163t30 -198.5t-30 -198t-88 -163t-144 -110.5t-197 -40.5 q-134 0 -238.5 63.5t-162.5 183.5q-59 -120 -163.5 -183.5t-237.5 -63.5q-107 0 -192 39.5t-144.5 107t-91 158t-31.5 192.5z" />
<glyph unicode="&#x1004;" horiz-adv-x="1114" d="M107 513q0 105 30 198t88 163t143.5 110.5t197.5 40.5q82 0 155 -25t131 -71.5t98.5 -111.5t57.5 -146l-107 -29q-13 63 -42.5 114t-73 87.5t-99 56.5t-120.5 20q-89 0 -154.5 -33t-109 -89t-64.5 -130t-21 -155t21 -155.5t64 -130.5t109 -89.5t155 -33.5q68 0 122.5 20 t95.5 56.5t70 87.5t47 113l105 -29q-18 -80 -58 -145.5t-97.5 -111.5t-129.5 -71t-155 -25q-112 0 -198 41t-144 111t-87.5 163.5t-29.5 198.5z" />
<glyph unicode="&#x1005;" horiz-adv-x="1130" d="M107 512q0 105 29.5 198t87.5 163t143.5 110.5t197.5 40.5t197.5 -40.5t143.5 -110t88 -163t30 -198.5t-30 -198t-88 -163t-143.5 -111t-197.5 -41t-197.5 41t-143.5 110.5t-87.5 163t-29.5 198.5zM215 510q0 -79 22 -157t75 -139q54 65 75.5 139.5t21.5 158.5 q0 81 -22.5 156.5t-75.5 138.5q-52 -62 -74 -139.5t-22 -157.5zM391 149q39 -23 83.5 -34t90.5 -11q89 0 154.5 33t109 89.5t64.5 130.5t21 155t-21 155t-64.5 130t-109 89t-154.5 33q-46 0 -90.5 -11t-83.5 -34q63 -75 93 -169t30 -192q0 -99 -29.5 -193.5t-93.5 -170.5z " />
<glyph unicode="&#x1006;" horiz-adv-x="1932" d="M114 677q26 80 65 144.5t94 110t125 70t157 24.5q67 0 128 -16.5t112.5 -48.5t93.5 -78.5t70 -107.5q57 123 163 188.5t242 65.5q113 0 199 -41t144.5 -111t88.5 -163.5t30 -199.5q0 -105 -30 -199t-88.5 -164t-145 -111t-198.5 -41q-137 0 -242 65.5t-163 188.5 q-28 -61 -70 -108t-93.5 -79.5t-112.5 -49.5t-128 -17q-77 0 -142.5 20.5t-118.5 59t-94 94t-70 125.5q-5 15 -5 27q0 24 16 43q31 39 71.5 66.5t86 45.5t95 26.5t97.5 8.5q57 0 111 -10.5t103.5 -32.5t92.5 -56t76 -81q14 37 22 75.5t8 76.5q0 85 -18.5 163.5t-60 138.5 t-108 96t-162.5 36q-70 0 -125.5 -20.5t-96.5 -58t-70 -90t-47 -117.5zM248 308q22 -51 55 -89t73.5 -63.5t86 -38t92.5 -12.5q77 0 145.5 29t116.5 91q-23 48 -57.5 83t-77.5 57.5t-91.5 33.5t-99.5 11q-21 0 -57 -5.5t-72.5 -17.5t-68 -31.5t-45.5 -47.5zM1015 540 q0 -85 18.5 -163.5t59.5 -139t108 -96.5t163 -36q89 0 155 33.5t109.5 89.5t65 130t21.5 156t-21 156t-64.5 130.5t-109.5 89.5t-156 33q-82 0 -147 -30.5t-110 -83t-68.5 -122t-23.5 -147.5z" />
<glyph unicode="&#x1007;" horiz-adv-x="1121" d="M107 513q0 105 30 198.5t88 163t143.5 110t197.5 40.5q91 0 172.5 -32t142.5 -89t96.5 -136t35.5 -172q0 -29 -6.5 -58t-6.5 -58q-1 -11 0.5 -20t3.5 -17q8 -19 23.5 -29t35.5 -10q6 0 12 0.5t12 1.5l4 -106q-5 -1 -11.5 -1h-12.5q-59 0 -103.5 25t-62.5 84 q-38 -16 -80 -16q-45 0 -81 15.5t-61 42.5t-38 64.5t-13 81.5q0 45 14.5 83t41 65t64 40.5t82.5 10.5q-48 64 -116.5 94.5t-147.5 30.5q-89 0 -154.5 -33t-109 -89t-64.5 -130t-21 -155t21 -155.5t64 -130.5t109 -89.5t155 -33.5q77 0 145 30t116 90l84 -67 q-63 -79 -153.5 -118.5t-191.5 -39.5q-112 0 -198 41t-144 111t-87.5 163.5t-29.5 198.5zM721 595q0 -45 22.5 -75.5t71.5 -30.5q26 0 43 9t27.5 24t14.5 35t4 43q0 44 -21 72t-68 28q-48 0 -71 -29.5t-23 -75.5z" />
<glyph unicode="&#x1008;" horiz-adv-x="1414" d="M110 495q0 109 31 205t91 168t149 114t204 42q116 0 204.5 -42t148.5 -114t91 -168t31 -205q0 -56 -8.5 -111.5t-27 -108t-47.5 -100.5t-70 -87v-530l283 -174v1615h104v-1743h-100l-395 246v511q-49 -26 -103.5 -37.5t-110.5 -11.5q-116 0 -204.5 42t-148.5 114.5 t-91 169t-31 205.5zM223 495q0 -72 16.5 -142.5t57.5 -130.5q61 51 87.5 124t26.5 150q0 39 -6.5 77t-20 73.5t-35 66.5t-52.5 55q-41 -60 -57.5 -130.5t-16.5 -142.5zM364 147q47 -38 104 -56.5t117 -18.5q92 0 160 34.5t112.5 92.5t66.5 135t22 161t-22 160t-66.5 134 t-112.5 92t-160 34q-60 0 -117 -17.5t-104 -55.5q39 -32 67.5 -71.5t47 -84.5t27.5 -93t9 -98q0 -49 -9 -98t-27.5 -94t-47 -84.5t-67.5 -71.5z" />
<glyph unicode="&#x1009;" horiz-adv-x="1100" d="M107 686q21 78 61 141t95.5 107t126 67.5t152.5 23.5q111 0 196.5 -40.5t143.5 -110t87.5 -162t29.5 -197.5t-29.5 -198t-87.5 -162.5t-143.5 -110.5t-196.5 -41q-93 0 -177 35t-147 104v-650q0 -36 6 -60.5t21 -40t39.5 -22t60.5 -6.5h1138q53 0 79.5 15.5t37 42 t10.5 62.5v77h110v-68q0 -119 -59.5 -176.5t-177.5 -57.5h-1138q-118 0 -177.5 57.5t-59.5 176.5v842l105 28q14 -54 44 -100.5t72.5 -80.5t96 -53.5t116.5 -19.5q89 0 154 33t108 89t64 130t21 155t-21 154.5t-64 129t-108 88.5t-154 33q-64 0 -117 -18.5t-95 -52.5 t-71.5 -82.5t-46.5 -108.5z" />
<glyph unicode="&#x100a;" horiz-adv-x="1907" d="M104 686q23 78 63 140.5t96 106.5t126 67.5t152 23.5q115 0 200.5 -41.5t142.5 -112.5t85 -165.5t28 -201.5q0 -82 19 -154t61 -125.5t108 -84.5t160 -31q88 0 153 33t107.5 88.5t63.5 129t21 154.5t-21 154.5t-63.5 129t-107.5 88.5t-153 33q-25 0 -48.5 -3t-46.5 -8 l-23 103q29 6 58.5 9.5t59.5 3.5q111 0 196 -40.5t143 -110t87.5 -162.5t29.5 -197q0 -105 -29.5 -197.5t-87.5 -162t-143 -110t-196 -40.5q-134 0 -241 59.5t-166 182.5q-59 -118 -162.5 -180.5t-234.5 -62.5q-94 0 -177.5 34t-146.5 103v-646q0 -36 6 -60.5t20.5 -39.5 t39 -21.5t61.5 -6.5h1165q55 0 83.5 14.5t41 40.5t13.5 62t1 80h110v-69q0 -120 -67 -177t-183 -57h-1164q-118 0 -177.5 57.5t-59.5 176.5v837l103 29q16 -57 46 -103.5t72 -79.5t96 -51t117 -18q89 0 154.5 33t108 89.5t63.5 130t21 154.5t-21.5 154t-64.5 129t-108.5 89 t-153.5 33q-64 0 -117 -18.5t-95 -52.5t-71.5 -83t-46.5 -109z" />
<glyph unicode="&#x100b;" horiz-adv-x="1121" d="M107 517q0 104 29.5 196.5t87 161.5t142 109t195.5 40q81 0 150.5 -23.5t125.5 -67.5t96.5 -106t61.5 -139l-106 -30q-33 121 -116 191.5t-212 70.5q-88 0 -153 -32.5t-107.5 -88t-63.5 -128.5t-21 -154t21 -154t63.5 -128.5t107.5 -88.5t153 -33q53 0 106 17.5t97 49 t75.5 76t42.5 98.5l110 -41v-376q-93 -66 -201.5 -98.5t-221.5 -32.5q-75 0 -148.5 14t-139.5 49v-122q67 -24 136.5 -35t140.5 -11q97 0 191.5 19t185.5 54l57 -58v-350h196v-104h-306v388q-78 -24 -159.5 -36.5t-163.5 -12.5q-100 0 -198.5 20t-189.5 62v350l34 18 q31 -40 72 -68t87.5 -44.5t96 -24t98.5 -7.5q85 0 167.5 18t155.5 62v158q-62 -66 -146 -101t-175 -35q-111 0 -195.5 40.5t-142 110t-87 162t-29.5 195.5z" />
<glyph unicode="&#x100c;" horiz-adv-x="1106" d="M107 514q0 105 29.5 197.5t87.5 162.5t143 110.5t197 40.5q82 0 152 -23.5t126 -67.5t96 -106.5t62 -140.5l-106 -30q-17 60 -46.5 108.5t-71.5 83t-95 53t-117 18.5q-89 0 -154.5 -33t-108 -88.5t-63.5 -129.5t-21 -155t21 -155t63.5 -129.5t108 -88.5t154.5 -33 q63 0 116 18t94.5 51t71 79.5t45.5 103.5l108 -30v-795q0 -141 -71.5 -210t-211.5 -69h-337q-125 0 -189 61.5t-64 188.5q0 74 20 122t57.5 76.5t91.5 39.5t121 11q33 0 69.5 -1.5t72 -7.5t68 -17.5t57 -32.5t39 -52t14.5 -75v-11h-110q0 20 -4 35q-8 22 -28.5 33.5t-46 17 t-52 6.5t-46.5 1h-58q-35 -1 -63.5 -5.5t-48.5 -19.5t-31 -43t-11 -76q0 -40 7 -68t23.5 -45t44 -25t67.5 -8h337q48 0 81 9.5t53.5 30.5t29.5 54t9 80v606q-63 -69 -147.5 -103.5t-177.5 -34.5q-111 0 -196.5 40.5t-143.5 110.5t-87.5 162.5t-29.5 197.5z" />
<glyph unicode="&#x100d;" horiz-adv-x="1113" d="M107 685q22 79 62 142t96 107t127 67.5t153 23.5q112 0 197.5 -41t144 -110.5t88.5 -163t30 -198.5t-30 -199t-88.5 -164t-144 -111t-197.5 -41q-94 0 -178 35t-147 105v-252q36 -22 76.5 -37.5t83.5 -25.5t86 -15t85 -5q49 0 97.5 7t93 23.5t83 43.5t66.5 67l48 -20 v-555h216v-105h-327v496q-67 -35 -141.5 -49.5t-149.5 -14.5q-115 0 -225 33.5t-204 99.5v501l105 29q15 -57 45 -104t72.5 -80.5t96.5 -51.5t118 -18q89 0 155 33t109 89t64 130t21 156t-21 156t-64 130t-109 89t-155 33q-65 0 -118.5 -19t-95.5 -53.5t-72 -83.5t-47 -109z " />
<glyph unicode="&#x100e;" horiz-adv-x="1139" d="M107 502q0 44 21.5 79t53.5 64t69 53.5t69 47.5t53.5 46t21.5 49q0 15 -7 28.5t-18 23.5t-25 15.5t-29 5.5q-35 0 -62 -24.5t-38 -56.5l-94 47q14 29 34 54.5t45.5 44.5t55.5 30t64 11q36 0 69.5 -14t59 -38.5t40.5 -57t15 -69.5q0 -47 -21.5 -82.5t-53 -64t-69 -52 t-69 -46t-53 -46t-21.5 -52.5q0 -79 23.5 -150t68.5 -125t110.5 -85.5t149.5 -31.5q90 0 156.5 33.5t110 89.5t64.5 131t21 157q0 67 -12 127.5t-38.5 112.5t-69 95t-104.5 74l47 96q77 -34 131.5 -87t89 -119t51 -142t16.5 -157q0 -106 -30 -200t-89 -164.5t-145 -111.5 t-199 -41q-108 0 -193.5 40t-145.5 108.5t-92 159.5t-32 194z" />
<glyph unicode="&#x100f;" horiz-adv-x="2238" d="M106 512q0 105 30 198t88 163t143.5 110.5t197.5 40.5q99 0 186.5 -36.5t151.5 -113.5q9 38 30.5 67t51.5 49t65.5 30t73.5 10q37 0 71.5 -9.5t63.5 -28.5t50.5 -47t30.5 -65q64 74 150 109t183 35q112 0 197.5 -41t143.5 -110.5t87.5 -162.5t29.5 -198q0 -104 -30 -197 t-88 -163t-143.5 -111t-196.5 -41q-30 0 -60 4.5t-59 8.5l21 104q24 -7 49 -9.5t49 -2.5q89 0 154.5 33t108.5 89t64 130t21 155t-21 155t-64 130t-108.5 89t-154.5 33q-90 0 -155.5 -34t-108 -91.5t-63 -132.5t-20.5 -157q0 -39 4 -78.5t9.5 -78.5t9.5 -78.5t4 -78.5 q0 -48 -19.5 -84t-51.5 -60t-73 -36t-84 -12q-122 0 -175.5 57t-53.5 178q0 73 9 144t9 144q0 80 -22.5 152t-66.5 126.5t-109 87t-151 32.5q-89 0 -154.5 -33t-108.5 -89t-64 -130t-21 -155t21 -155t64 -130t108.5 -89t154.5 -33q25 0 50 2.5t49 9.5l22 -104 q-30 -4 -60 -8.5t-61 -4.5q-112 0 -197.5 40.5t-143.5 110.5t-88 163t-30 198zM998 256q0 -34 6 -62.5t20.5 -49t39.5 -32t62 -11.5q68 0 94.5 36.5t26.5 99.5q0 31 -4.5 61.5t-9.5 61t-9.5 61t-4.5 61.5q0 42 4 84.5t8.5 84.5t8.5 84t4 85q0 26 -9.5 45.5t-26 33 t-38.5 20.5t-46 7q-25 0 -48 -7.5t-40 -22t-27.5 -35t-10.5 -47.5q0 -84 10 -165.5t10 -165.5q0 -57 -10 -113t-10 -114z" />
<glyph unicode="&#x1010;" horiz-adv-x="1937" d="M107 513q0 105 30 198.5t88 163.5t143.5 110.5t197.5 40.5q136 0 241 -64.5t163 -187.5q57 122 162.5 186.5t239.5 64.5q111 0 197 -40.5t144 -110.5t88 -163t30 -198t-30 -198t-88 -163t-144 -111t-197 -41q-42 0 -82 6.5t-80 16.5l22 104q35 -9 70 -15.5t70 -6.5 q89 0 154.5 33t108.5 89.5t64 130.5t21 155t-21 155t-64 129.5t-108.5 88.5t-154.5 33q-90 0 -155 -33t-107.5 -88.5t-63 -129t-20.5 -155.5q0 -105 -30 -198t-88 -163.5t-144 -111.5t-198 -41t-197.5 41t-143.5 111t-88 163.5t-30 198.5zM217 513q0 -82 21 -156t64 -130 t109 -89.5t155 -33.5q85 0 150 32t109 86t66.5 125.5t22.5 150.5v41q0 78 -23.5 147t-68.5 121t-109.5 82.5t-146.5 30.5q-89 0 -154.5 -33t-109 -89t-64.5 -130t-21 -155z" />
<glyph unicode="&#x1011;" horiz-adv-x="1932" d="M107 510q0 105 29.5 198t87.5 163t143 110.5t197 40.5q135 0 240 -65.5t162 -188.5q57 123 161.5 188.5t240.5 65.5q111 0 196.5 -41t143.5 -110.5t87.5 -162.5t29.5 -198q0 -104 -29.5 -197t-87.5 -162.5t-143.5 -110.5t-196.5 -41q-136 0 -240.5 65.5t-161.5 188.5 q-57 -123 -162 -188.5t-240 -65.5q-111 0 -196.5 41t-143.5 110.5t-87.5 162.5t-29.5 197zM217 510q0 -81 21 -154.5t63.5 -129.5t108 -89t154.5 -33t154 33t108 89t64 129.5t21 154.5t-20.5 155t-63.5 129.5t-108.5 88.5t-154.5 33t-154.5 -33t-108 -88.5t-63.5 -129.5 t-21 -155zM1021 510q0 -81 21 -154.5t63.5 -129.5t108 -89t154.5 -33t154 33t108 89t64 129.5t21 154.5t-20.5 155t-63.5 129.5t-108.5 88.5t-154.5 33t-154.5 -33t-108 -88.5t-63.5 -129.5t-21 -155z" />
<glyph unicode="&#x1012;" horiz-adv-x="1087" d="M106 685q22 78 62.5 141t96.5 107t126.5 67.5t152.5 23.5q138 0 243.5 -65t164.5 -190q3 -6 8 -17t9.5 -22.5t7.5 -22t3 -17.5q0 -17 -25.5 -32.5t-64 -30.5t-83.5 -29t-84.5 -28t-66.5 -28.5t-30 -29.5q3 -15 30 -29.5t66.5 -28.5t84.5 -28t83.5 -28.5t64 -30 t25.5 -32.5q0 -7 -3 -17.5t-7.5 -22.5t-9.5 -22.5t-8 -17.5q-59 -125 -165 -190.5t-243 -65.5q-82 0 -152 24t-126 68.5t-96 107t-63 139.5l106 30q17 -60 46.5 -109t71.5 -83.5t95.5 -53t117.5 -18.5q108 0 183 49t123 145q-24 8 -58.5 18t-71.5 23t-74.5 29.5t-66.5 37.5 t-47.5 47.5t-18.5 58.5q0 33 18.5 59t47.5 47t66.5 37.5t74.5 29.5t71.5 23t58.5 18q-47 95 -123.5 144t-182.5 49q-64 0 -118 -18.5t-96 -53t-71.5 -83t-46.5 -109.5z" />
<glyph unicode="&#x1013;" horiz-adv-x="1132" d="M106 513q0 105 30 198.5t88 163.5t144 111t198 41t197.5 -41t144 -111t88.5 -163.5t30 -198.5t-30 -198.5t-88.5 -163.5t-144 -111t-197.5 -41t-198 41t-144 111t-88 163.5t-30 198.5zM217 513q0 -48 7.5 -94t23.5 -91q65 66 145.5 97t172.5 31q91 0 172 -31t145 -97 q17 45 24.5 91t7.5 94q0 82 -21 156t-64 130t-109 89t-155 33q-90 0 -155.5 -33t-108.5 -89t-64 -130t-21 -156zM302 227q48 -63 117 -92.5t147 -29.5t146.5 29.5t116.5 92.5q-51 64 -117 93.5t-146 29.5q-81 0 -147 -29.5t-117 -93.5z" />
<glyph unicode="&#x1014;" horiz-adv-x="1153" d="M107 278q0 49 16 91t45.5 73.5t70.5 49.5t91 19q3 1 9 1h123q77 0 122.5 -24t70 -64.5t32 -93.5t7.5 -111q-1 -28 -1.5 -55t-0.5 -53q10 0 19.5 0.5t19.5 1.5q45 1 83 15t65.5 39.5t43 62t15.5 84.5q0 84 -29.5 136.5t-77.5 83.5t-110 46t-126 25t-126 20.5t-110 32 t-77.5 59t-29.5 102.5q0 49 16 87t45 64.5t68.5 40t87.5 13.5h185q55 0 96 -16t68 -46t40.5 -71.5t13.5 -92.5h-110q0 57 -22.5 89t-85.5 32h-185q-51 0 -78 -23t-29 -77q-1 -28 13.5 -46.5t41 -31t63.5 -20t81 -14.5t93 -14.5t100 -19.5q147 -35 220 -129.5t73 -232.5 q0 -71 -24 -127t-66 -95t-99.5 -59.5t-125.5 -22.5q-10 -1 -20 -1h-20v-752h-110v752h-195q-60 0 -111 20t-88.5 56t-59 86t-21.5 110zM217 275q0 -37 13 -67t36 -51.5t54 -33.5t67 -12h195v165q0 29 -3.5 51.5t-13.5 38.5t-27 25.5t-43 12.5q-16 3 -37 3h-116q-18 0 -31 -4 q-22 -4 -39.5 -16t-29.5 -29t-18.5 -38.5t-6.5 -44.5z" />
<glyph unicode="&#x1015;" horiz-adv-x="1136" d="M107 526q0 180 71 304.5t230 198.5l47 -97q-65 -32 -110.5 -72.5t-74 -90.5t-41 -110.5t-12.5 -132.5q0 -82 21 -157.5t64.5 -134t110 -93.5t156.5 -35t156 35t109.5 93.5t64.5 134t21 157.5q0 72 -13 132.5t-41.5 110.5t-74 90.5t-111.5 72.5l46 97q80 -37 137.5 -86.5 t94.5 -111.5t54.5 -138t17.5 -167q0 -106 -29.5 -201.5t-87 -167.5t-144 -114.5t-200.5 -42.5t-200.5 42.5t-144.5 114.5t-87.5 167.5t-29.5 201.5z" />
<glyph unicode="&#x1016;" horiz-adv-x="1146" d="M107 531q0 70 15 144.5t47.5 141.5t84.5 121.5t126 85.5l49 -102q-58 -23 -98 -65.5t-65 -96t-36 -113t-11 -116.5q0 -82 20.5 -158.5t64 -135.5t110.5 -94.5t159 -35.5q123 0 207.5 67t120.5 181q-77 2 -134 31t-95 76.5t-57 109t-19 128.5q0 50 10 98t31 90t54.5 76 t81.5 57q71 -34 122 -86.5t83 -117t47 -137.5t15 -149q0 -107 -29.5 -203.5t-88 -169t-146 -115.5t-203.5 -43q-115 0 -202.5 43t-146 115.5t-88 169t-29.5 203.5zM699.5 726.5q-3.5 -50.5 8.5 -101t39.5 -89.5t71 -62t104.5 -19q9 56 5 119t-22 123t-51.5 112.5t-84.5 87.5 q-31 -29 -49 -74.5t-21.5 -96z" />
<glyph unicode="&#x1017;" horiz-adv-x="1133" d="M107 524q0 76 15 148.5t47 136t82.5 115t122.5 85.5q3 -39 18 -73.5t40 -60.5t59 -41t75 -15t75 15t58.5 41.5t39.5 61t18 73.5q14 -7 26 -14t24 -15q59 -36 100.5 -86.5t68 -110.5t39 -126.5t12.5 -133.5q0 -106 -29.5 -201t-87.5 -167t-144 -114t-199 -42 q-114 0 -200 42t-143.5 114t-87 167t-29.5 201zM217 524q0 -81 21 -156.5t64 -133.5t109 -93t156 -35q89 0 154.5 34t109 90.5t64.5 131t22 155.5q0 43 -5.5 87t-18.5 85.5t-33 80t-50 71.5q-40 -63 -106 -95t-139 -32t-138.5 31.5t-104.5 94.5q-29 -31 -49 -69t-32.5 -79 t-18 -83.5t-5.5 -84.5z" />
<glyph unicode="&#x1018;" horiz-adv-x="1924" d="M107 377l105 29q17 -67 45 -123t69 -95.5t97.5 -61.5t130.5 -22q89 0 155 33t109 89t64 130t21 155t-21 155.5t-64 130.5t-108.5 89.5t-155.5 33.5q-74 0 -130.5 -22.5t-97.5 -63t-68.5 -96t-44.5 -122.5l-105 30q22 85 60 155t92.5 119.5t127.5 77t166 27.5 q136 0 241 -64.5t162 -188.5q58 124 162 188t241 64q111 0 197 -40.5t144 -110.5t88 -163t30 -198q0 -104 -30 -197t-88 -163t-144 -111t-197 -41q-42 0 -78.5 5.5t-76.5 15.5l22 104q35 -9 66.5 -14.5t66.5 -5.5q89 0 154.5 33t108 89.5t63.5 130t21 154.5t-21 155 t-63.5 130t-108 89t-154.5 33q-74 0 -131.5 -23t-99.5 -64t-68.5 -99t-39.5 -127q-3 -11 -6 -25.5t-3 -26.5q0 -20 -0.5 -39.5t-4.5 -39.5q-4 -99 -36 -185.5t-89.5 -151t-139.5 -102t-188 -37.5q-94 0 -167 27t-127.5 76.5t-91.5 119.5t-61 155z" />
<glyph unicode="&#x1019;" horiz-adv-x="1132" d="M106 523q0 75 14 146t45 132.5t80 113t118 87.5q13 7 23.5 11.5t23.5 10.5l46 -96q-11 -6 -21 -10t-22 -11q-54 -29 -91.5 -70.5t-61 -91.5t-33.5 -106.5t-10 -115.5q0 -48 7 -94.5t24 -91.5q63 65 145.5 97.5t173.5 32.5q89 0 172 -33t145 -96q17 45 24 91.5t7 93.5 q0 60 -10 116.5t-33.5 106t-61 90.5t-93.5 71q-12 7 -21.5 11t-21.5 10l47 96q13 -6 23 -10.5t24 -11.5q70 -36 119 -87t80 -113t45 -132.5t14 -146.5q0 -105 -29.5 -200t-87 -167t-143.5 -114t-200 -42t-200 42t-143.5 113.5t-87 166.5t-29.5 201zM300 235 q48 -66 116.5 -97.5t149.5 -31.5t149.5 31.5t116.5 98.5q-51 63 -118 94.5t-147 31.5q-78 0 -149 -31t-118 -96z" />
<glyph unicode="&#x101a;" horiz-adv-x="1937" d="M106 512q0 86 17 162.5t53.5 141.5t93.5 117.5t137 90.5l47 -95q-66 -31 -111.5 -74t-73 -96t-40 -115.5t-12.5 -131.5q0 -81 21 -155t64 -130t108.5 -89t154.5 -33t154.5 33t108.5 89t64 130t21 155q0 70 -12.5 133t-41 116t-74.5 96t-113 73l48 95q93 -43 147.5 -93.5 t85.5 -112.5t45.5 -138t25.5 -169q10 -82 29 -156t57 -130t101 -88.5t161 -32.5q89 0 154 33t108.5 89t64.5 130t21 155q0 82 -21 156t-64 130t-108.5 89t-154.5 33q-36 0 -66.5 -5t-65.5 -14l-22 104q40 9 76 14.5t78 5.5q112 0 197.5 -41t143.5 -110.5t88 -163t30 -198.5 t-30 -198t-88 -163t-144 -110.5t-197 -40.5q-67 0 -128 17t-112.5 49.5t-93 79.5t-70.5 108q-28 -61 -69.5 -108.5t-93.5 -79.5t-112.5 -49t-127.5 -17q-112 0 -198 40.5t-144 110.5t-87.5 163t-29.5 198z" />
<glyph unicode="&#x101b;" horiz-adv-x="1118" d="M104 512q0 105 29.5 198.5t87.5 163.5t144 110.5t198 40.5q73 0 138 -19.5t119.5 -57t96 -91t68.5 -121.5q8 -19 17 -47t9 -49v-1285h152v-106h-162q-20 0 -38.5 7.5t-32 21t-21.5 31.5t-8 39v1283q0 7 -2.5 17.5t-6 21t-7.5 20.5t-7 16q-44 104 -122.5 158.5 t-192.5 54.5q-84 0 -147 -29.5t-106.5 -80t-67 -119t-27.5 -146.5q89 -7 160 -41t120.5 -89t76 -129t26.5 -163q0 -9 -1 -29.5t-5 -41t-11 -36.5t-18 -16q-112 0 -198 41t-144 110.5t-87.5 163t-29.5 198.5zM219 440q7 -58 27.5 -113t54.5 -99.5t81.5 -75t108.5 -41.5 q1 66 -15 123t-49 100.5t-85 71t-123 34.5z" />
<glyph unicode="&#x101c;" horiz-adv-x="1942" d="M107 513q0 105 29.5 198.5t87.5 163.5t144 111t198 41q113 0 199 -41t144 -111t87.5 -163.5t29.5 -198.5q0 -82 21 -156t64.5 -130t109.5 -89t155 -33q90 0 155.5 33t108.5 89t64 130t21 156t-21 156t-64 130t-109 89t-155 33q-35 0 -67.5 -6t-67.5 -14l-23 103 q40 10 78 16.5t80 6.5q112 0 198 -41t144 -111t88 -163.5t30 -198.5t-30 -198.5t-88.5 -163.5t-144 -111t-197.5 -41t-198 41t-144.5 111t-88 163t-29.5 198q0 82 -21 156t-64.5 130.5t-109.5 89.5t-155 33t-154.5 -33t-109 -89t-64.5 -130t-21 -156t21 -155.5t64 -129 t109 -88t155 -32.5q35 0 67 5.5t64 13.5l23 -106q-40 -10 -76 -16t-78 -6q-112 0 -197.5 41t-143.5 111t-88 163.5t-30 198.5z" />
<glyph unicode="&#x101d;" horiz-adv-x="1132" d="M107 513q0 105 30 198.5t88 163.5t143.5 110.5t197.5 40.5t198 -40.5t144 -110.5t88 -163.5t30 -198.5t-30 -198.5t-88 -163.5t-144 -111t-198 -41t-197.5 41t-143.5 111t-88 163.5t-30 198.5zM217 513q0 -82 21 -156t64.5 -130t109 -89.5t154.5 -33.5t154.5 33.5 t109 89.5t64.5 130.5t21 155.5q0 82 -21 155.5t-64 129.5t-109 89t-155 33t-154.5 -33t-109 -89t-64.5 -129.5t-21 -155.5z" />
<glyph unicode="&#x101e;" horiz-adv-x="1914" d="M107 689q22 77 62 139.5t96 106t126.5 67t151.5 23.5q113 0 198.5 -41t144 -110.5t88 -162.5t29.5 -198q0 -81 21 -155t63.5 -130.5t108 -89.5t154.5 -33t154.5 33t108 89t63.5 130t21 155q0 80 -21 154t-64 130t-108.5 89.5t-153.5 33.5q-36 0 -68.5 -5.5t-67.5 -14.5 l-22 104q40 9 78 15t80 6q111 0 196.5 -41t143.5 -111t88 -163t30 -197q0 -105 -30 -198t-88 -163t-143.5 -110.5t-196.5 -40.5q-136 0 -241 64.5t-163 187.5q-28 -61 -69.5 -108t-93.5 -79t-112.5 -49t-127.5 -17q-82 0 -152 23t-125.5 66.5t-95.5 105t-62 139.5l106 30 q17 -59 46.5 -107t71.5 -81.5t95 -52t116 -18.5q89 0 155 33.5t109 89.5t64 130t21 156t-21 155.5t-64 129.5t-109 89t-155 33q-63 0 -116.5 -18.5t-95.5 -52t-72 -82t-47 -108.5z" />
<glyph unicode="&#x101f;" horiz-adv-x="1931" d="M107 521q0 90 16.5 165.5t52.5 137.5t93.5 111t138.5 85l47 -96q-66 -29 -111.5 -69t-73.5 -90.5t-40.5 -111.5t-12.5 -132q0 -81 20.5 -156.5t63 -133t108 -92t155.5 -34.5t155.5 34.5t108 92.5t63.5 133t21 156q0 72 -13 133t-41.5 111.5t-74.5 90.5t-111 69l47 96 q85 -39 149 -96t101 -145q29 59 70.5 104t92.5 76t110.5 47t124.5 16q111 0 196.5 -40.5t143.5 -110.5t88 -162.5t30 -197.5t-30 -198t-88 -162.5t-143.5 -110.5t-196.5 -41q-42 0 -79 6t-78 15l22 104q35 -9 67.5 -14.5t67.5 -5.5q89 0 154 33t108 89.5t64 130t21 154.5 t-21 154t-64 129t-108.5 89t-153.5 33q-87 0 -152 -31.5t-108 -85.5t-64 -126t-21 -153q0 -104 -29 -198.5t-87 -166t-143.5 -114t-198.5 -42.5t-198.5 42t-143 113t-86.5 166t-29 200z" />
<glyph unicode="&#x1020;" horiz-adv-x="1111" d="M107 514q0 105 29.5 197.5t87.5 162.5t143.5 110.5t197.5 40.5q83 0 153 -23.5t126 -67.5t96.5 -107t62.5 -141l-106 -30q-17 60 -46.5 109t-71.5 83.5t-95.5 53t-118.5 18.5q-89 0 -154.5 -33t-108.5 -89t-64 -129.5t-21 -154.5t21 -155.5t64 -130.5t108.5 -89.5 t154.5 -33.5q65 0 118 18.5t95 53t71.5 83.5t46.5 109l105 -29q-2 -106 -1.5 -210t0.5 -210q-93 -67 -203 -99.5t-224 -32.5q-75 0 -149.5 14t-141.5 49v-364q0 -129 128 -129h355q42 0 67.5 11t39.5 32t18.5 50t4.5 65q0 17 -1 32t-1 32h111v-93q0 -111 -64.5 -172.5 t-174.5 -61.5h-355q-110 0 -174 61.5t-64 172.5q0 132 -0.5 266.5t-0.5 267.5l41 15q29 -42 69 -70t86 -45t95.5 -24.5t97.5 -7.5q84 0 170.5 19.5t159.5 63.5v165q-63 -69 -147 -103t-178 -34q-112 0 -197.5 41t-143.5 111t-87.5 163.5t-29.5 198.5z" />
<glyph unicode="&#x1021;" horiz-adv-x="1841" d="M106 686q22 78 61.5 139.5t94 104t123.5 66t150 24.5q114 0 212 -45.5t164 -141.5q63 92 159.5 139.5t207.5 47.5t196.5 -40.5t143.5 -110t87.5 -162t29.5 -197.5q0 -108 -30.5 -201t-89.5 -162t-146 -108.5t-200 -39.5q-31 0 -56.5 2.5t-44 12.5t-29 31.5t-10.5 58.5 q0 61 22 111t60 89t87.5 67.5t104.5 47t111.5 28t108.5 9.5q1 14 1.5 27t0.5 27q0 81 -21 154.5t-64 129t-108 88.5t-154 33q-20 0 -40 -3q-91 -9 -159 -60t-110 -137q2 -4 5.5 -15t3.5 -13q0 -16 -25.5 -31.5t-63.5 -30.5t-83 -29t-84.5 -28.5t-66.5 -28.5t-30 -29 q3 -14 30 -28.5t66 -28.5t84 -28.5t83.5 -29.5t64 -30.5t25.5 -31.5q0 -7 -3.5 -18t-8 -22t-9.5 -21.5t-8 -17.5q-60 -121 -164.5 -188t-241.5 -67q-81 0 -150.5 23t-125 66t-96 104.5t-62.5 138.5l107 30q17 -60 46 -107.5t70.5 -80.5t94.5 -51t116 -18q20 0 38 3 q87 8 155 53t106 126q2 3 3 6t3 6q-24 8 -58.5 17.5t-71.5 22t-74 29t-66 37.5t-47 47t-18 59t18 59t47 47t66 37.5t74 29.5t71.5 22.5t58.5 17.5q-21 44 -53 79.5t-71.5 60.5t-85.5 38.5t-95 13.5q-129 0 -213 -68.5t-117 -190.5zM1239 111q10 -1 19.5 -0.5t19.5 0.5 q126 3 210.5 66.5t117.5 185.5q-54 -2 -117.5 -17.5t-118.5 -45.5t-92.5 -77t-38.5 -112z" />
<glyph unicode="&#x1022;" horiz-adv-x="1936" d="M106 512q0 105 29.5 198t87.5 163t143.5 110.5t197.5 40.5q135 0 240.5 -65t162.5 -188q29 60 70.5 107.5t93 79.5t112.5 49t128 17q112 0 197.5 -40.5t143.5 -110.5t87.5 -163t29.5 -198q0 -103 -29 -195.5t-86 -162t-141 -111t-194 -43.5q-43 0 -85.5 6.5t-84.5 16.5 l22 103q36 -9 73 -14.5t74 -5.5q87 0 151 34t106.5 90t63 129.5t20.5 152.5q0 81 -21 155t-64 130t-108.5 89t-154.5 33q-88 0 -153.5 -33t-109 -89.5t-64.5 -130t-21 -154.5q0 -172 -73.5 -302.5t-231.5 -205.5l-45 98q65 28 111 70t74.5 95t41.5 115.5t13 129.5 q0 82 -21.5 156t-65 129.5t-109 88.5t-153.5 33t-153 -32t-107.5 -87t-64 -127.5t-22.5 -152.5q-1 -7 -0.5 -13.5t0.5 -13.5q24 -19 54 -40t62 -44t63 -48.5t55 -53t39 -57t15 -60.5q0 -38 -14.5 -72t-40 -60t-59.5 -41t-73 -15q-36 0 -67.5 12t-58 32.5t-47 48.5t-35.5 60 l96 48q6 -18 16.5 -35.5t24.5 -31t31 -21.5t38 -8q17 0 31.5 7t25.5 18.5t17 26.5t6 31t-6 30.5t-20 24.5l-260 193q-2 19 -3 37.5t-1 36.5z" />
<glyph unicode="&#x1023;" horiz-adv-x="1928" d="M106 514q0 105 29.5 197.5t87.5 161.5t143.5 109.5t196.5 40.5q134 0 239 -65t162 -187q28 60 69.5 107t93 79.5t112 49t127.5 16.5q111 0 196 -40.5t143 -110t87.5 -162t29.5 -196.5t-29.5 -197t-87.5 -162.5t-143 -110t-196 -40.5q-42 0 -78 6t-76 15l22 102 q33 -7 62 -12t62 -6q89 0 155.5 31.5t110.5 86.5t66 128.5t22 158.5q0 81 -21 154t-64 129t-108 89t-153 33t-153.5 -33t-108.5 -89t-64 -129t-21 -154v-239h-110v245q0 74 -18.5 141t-55.5 120t-92 88.5t-129 44.5q-12 2 -24.5 3.5t-26.5 1.5q-88 0 -153.5 -33t-108.5 -89 t-64 -129t-21 -154q0 -85 22 -158.5t66 -128.5t110.5 -86.5t155.5 -31.5q34 1 62 6t60 12l22 -102q-40 -10 -75 -15.5t-76 -5.5q-111 0 -196.5 40.5t-143.5 109.5t-87.5 162t-29.5 198zM330 -381q0 77 25 139.5t70.5 107t109 69.5t140.5 26q90 0 171 -36t131 -114 q24 38 57 66t72 47t82 28t87 9q78 0 142.5 -24t110 -68t71 -106.5t25.5 -139.5q0 -76 -24 -121t-63 -68q-27 -16 -60 -23.5t-61.5 -14t-47.5 -16t-19 -30.5q0 -14 12.5 -19.5t30.5 -5.5q14 0 28.5 2t28 5t24 6.5t15.5 5.5l33 -91q-28 -8 -61.5 -14.5t-68.5 -6.5 q-28 0 -53.5 5.5t-46 19t-33 34.5t-14.5 53q0 2 -0.5 3.5t-0.5 3.5q0 41 12 65.5t31 38.5t43.5 20.5t50.5 11.5t50.5 11.5t43.5 20t31 37t12 63.5q0 55 -16.5 99.5t-48 76t-76 48t-101.5 16.5q-72 0 -119 -22.5t-75 -61.5t-38.5 -92t-10.5 -115h-110q0 57 -9 107t-31.5 88.5 t-61.5 62.5t-100 30q-18 3 -38 3q-56 0 -101 -16.5t-77 -48t-49 -76t-17 -99.5q0 -71 21.5 -117.5t59.5 -73.5t91 -37.5t117 -10.5v-103q-86 -2 -159 16.5t-126 60t-82.5 107t-29.5 158.5z" />
<glyph unicode="&#x1024;" horiz-adv-x="2211" d="M107 513q0 105 29.5 198t87.5 163t144 110.5t198 40.5q67 0 127.5 -17t112.5 -49.5t93.5 -79.5t69.5 -108q29 61 70.5 108t93 79.5t112 49.5t127.5 17q112 0 197.5 -40.5t144 -110.5t88.5 -163t30 -198v-1028q0 -119 -58.5 -177.5t-181.5 -58.5h-1153q-65 0 -110 16.5 t-73.5 48.5t-41.5 80t-13 110q0 236 238 236h952v-106h-952q-42 0 -67 -9t-38.5 -27t-18 -45.5t-4.5 -65.5q0 -36 6 -61.5t21 -41t39.5 -22.5t61.5 -7h1153q37 0 62 6.5t40 22t21 40.5t6 61v1028q0 81 -21 155t-64 130t-109 89t-155 33t-154.5 -33t-108.5 -89t-64 -130 t-21 -155v-240h-111v246q0 80 -21.5 152.5t-65 127.5t-108.5 88t-152 33q-89 0 -155 -33t-109 -89t-64 -130t-21 -155q0 -82 21 -156t64 -130t109 -89t155 -33q35 0 70 7t69 15l23 -104q-40 -9 -80 -16.5t-82 -7.5q-112 0 -198 41t-144 111t-87.5 163.5t-29.5 198.5z M1383 1457q0 81 26 149t73 116.5t114 76t149 27.5q83 0 150 -28.5t113.5 -78.5t71.5 -119.5t25 -150.5h-111q0 59 -15.5 109t-47 86t-78 56t-108.5 20q-60 0 -107 -19t-79 -54t-48.5 -83t-16.5 -107q0 -72 13.5 -114.5t41 -70t70 -48t100.5 -48.5q92 -43 161.5 -85.5 t115.5 -98t69 -131t23 -185.5l1 -1427h-110l-1 1427q0 69 -10.5 119.5t-31 88.5t-50.5 66t-68.5 52.5t-85 47t-100.5 50.5q-68 34 -115.5 63.5t-77 67.5t-43 91.5t-13.5 134.5z" />
<glyph unicode="&#x1025;" horiz-adv-x="1109" d="M107 686q22 77 62.5 140t96.5 107t126.5 68t151.5 24q112 0 197.5 -41t143.5 -110.5t87.5 -162.5t29.5 -198t-29.5 -198.5t-87.5 -163t-143.5 -110.5t-197.5 -41q-94 0 -177.5 34.5t-146.5 103.5v-611q0 -48 9 -81t29 -53.5t53 -30t81 -9.5h331q34 0 63 11t50 30.5 t33 47.5t12 62q0 37 -13.5 65.5t-36.5 48t-54 29t-66 9.5q-17 0 -41.5 0.5t-50.5 -0.5t-51.5 -5t-45 -13.5t-31.5 -26t-11 -42.5h-109q-1 61 25 98.5t67 58.5t92 28t100 7h67q57 0 106 -18.5t85.5 -52t57 -81.5t20.5 -106t-20.5 -105.5t-56.5 -81t-85 -52t-106 -18.5h-331 q-283 0 -283 281v807l104 29q17 -59 47 -107t72 -81.5t95.5 -51.5t116.5 -18q89 0 154.5 33t108.5 89.5t64 130.5t21 155t-21 155t-64 130t-108.5 89t-154.5 33q-64 0 -117.5 -18.5t-95.5 -53t-72 -83.5t-47 -109z" />
<glyph unicode="&#x1026;" horiz-adv-x="1109" d="M107 686q22 77 62 140t96 107t126.5 68t151.5 24q112 0 197.5 -41t143.5 -110.5t87.5 -162.5t29.5 -198t-29.5 -198t-87.5 -163t-143.5 -110.5t-197.5 -40.5q-93 0 -176.5 34.5t-146.5 103.5v-608q0 -48 9 -81t29 -53.5t53 -30t81 -9.5h331q33 0 62 11t50 30.5t33 47.5 t12 63q0 37 -13.5 65.5t-36.5 47.5t-53.5 29t-65.5 10q-18 0 -42 0.5t-50.5 -0.5t-52 -5t-45 -14t-31.5 -26.5t-11 -41.5h-108q-1 60 24.5 97.5t67 58.5t92.5 28t100 7h67q57 0 106 -18.5t85 -52t57 -81t21 -105.5t-21 -105.5t-57 -81t-85 -52t-105 -18.5h-331 q-283 0 -283 280v803l104 29q34 -118 118.5 -187.5t211.5 -69.5q89 0 154.5 33t108.5 89t64 130t21 155t-21 155t-64 130t-108.5 89t-154.5 33q-64 0 -117.5 -18.5t-95.5 -53t-71.5 -83.5t-46.5 -109zM175 1437q0 81 25.5 149t72.5 116.5t113.5 76t149.5 27.5 q82 0 148.5 -27.5t113.5 -77t72.5 -117t25.5 -147.5t-25.5 -148t-72.5 -117t-113.5 -76.5t-148.5 -27.5q-83 0 -149.5 27t-113.5 76t-72.5 117t-25.5 149zM275 1437q0 -30 5 -59t16 -57q51 44 113 65t126 21q65 0 128 -21t113 -66q11 28 16 57.5t5 59.5q0 61 -17.5 111.5 t-51 86.5t-82 56t-110.5 20q-61 0 -109.5 -20t-82.5 -56t-51.5 -86.5t-17.5 -111.5zM339 1242q38 -42 89 -60t107 -18q55 0 107 19.5t87 58.5q-38 39 -89 58t-105 19q-55 0 -106 -18.5t-90 -58.5z" />
<glyph unicode="&#x1027;" horiz-adv-x="1106" d="M107 512q0 105 29.5 198t87.5 162.5t143.5 110t197.5 40.5q66 0 126 -17t111.5 -49.5t93 -79.5t70.5 -106q3 -7 9 -20t11.5 -26.5t9.5 -26.5t4 -20q0 -11 -0.5 -20.5t-1.5 -20.5q-30 -28 -66 -48.5t-75.5 -34t-81 -20t-81.5 -6.5q-66 0 -127.5 16t-114 48t-93.5 80 t-65 112q-42 -60 -59.5 -130t-17.5 -142q0 -74 18 -146.5t63 -132.5q25 60 65.5 106.5t92 77.5t111.5 47t124 16q40 0 82 -6t82 -19t76.5 -33t66.5 -47q1 -11 1.5 -21t0.5 -20q0 -8 -4.5 -21.5t-10.5 -27.5t-12 -27t-10 -21q-30 -58 -71.5 -102.5t-92.5 -74.5t-110 -45.5 t-124 -15.5q-112 0 -197.5 41t-143.5 111t-87.5 163t-29.5 198zM378 867q14 -57 43.5 -101.5t71 -74.5t93 -45.5t109.5 -15.5q50 0 98 13t90 41q-19 53 -49.5 96.5t-71 74t-90.5 47t-107 16.5q-50 0 -97.5 -12t-89.5 -39zM381 154q41 -26 88 -38t96 -12q113 0 196.5 59 t121.5 166q-42 27 -89.5 40t-98.5 13q-56 0 -106.5 -14.5t-92 -43t-71 -71.5t-44.5 -99z" />
<glyph unicode="&#x1028;" horiz-adv-x="2317" />
<glyph unicode="&#x1029;" horiz-adv-x="2169" d="M108 -517v2066q0 118 59.5 175.5t177.5 57.5h1436q235 0 235 -233v-96h-109q0 21 0.5 42.5t0.5 42.5q0 36 -5.5 62.5t-19.5 43.5t-38.5 25t-63.5 8h-1436q-36 0 -60.5 -6.5t-39.5 -21.5t-21 -39.5t-6 -60.5v-2066q0 -36 6 -60.5t21 -39.5t39.5 -21.5t60.5 -6.5h1452 q36 0 60.5 6.5t39 21.5t20.5 39.5t6 60.5v650q-61 -65 -143.5 -96.5t-170.5 -31.5q-134 0 -238 64.5t-161 185.5q-57 -121 -161 -185.5t-237 -64.5q-91 0 -163.5 27t-127 75.5t-92.5 117t-60 152.5l105 31q17 -66 44 -121t68 -94.5t97 -61.5t129 -22q88 0 153 33t107.5 88.5 t63.5 128.5t21 154t-21 154t-63.5 128.5t-107.5 88t-153 32.5q-73 0 -129 -21.5t-97.5 -61t-68.5 -94.5t-44 -122l-105 28q21 85 59 154.5t93 118.5t128 75.5t164 26.5q105 0 186.5 -37t138.5 -101.5t88.5 -151t35.5 -185.5q3 -19 3.5 -38t0.5 -39q0 -26 5.5 -52t13.5 -52 q35 -120 116 -187.5t209 -67.5q88 0 152.5 32.5t107 88t63.5 128.5t21 153t-20.5 153t-63 128.5t-107.5 88.5t-153 33q-35 0 -66.5 -5.5t-65.5 -14.5l-23 104q40 8 77 14t78 6q111 0 195.5 -40t142 -109t87 -161.5t29.5 -196.5q0 -32 -2 -64t-10 -64q-5 -17 -11.5 -34 t-6.5 -35v-831q0 -118 -59.5 -175.5t-176.5 -57.5h-1452q-118 0 -177.5 57.5t-59.5 175.5z" />
<glyph unicode="&#x102a;" horiz-adv-x="4020" d="M110 514q0 105 29.5 197.5t87 162t143 110t196.5 40.5q93 0 166 -26.5t128 -76t93 -119.5t60 -156l-106 -30q-16 68 -43.5 123.5t-69 95.5t-98 62t-130.5 22q-86 0 -151 -33.5t-108.5 -89t-65.5 -128.5t-22 -153q0 -91 30 -177q33 45 76 79t92.5 56t104 33t109.5 11 q51 0 105.5 -10.5t104 -32.5t91 -56t68.5 -81q-21 -77 -61.5 -139t-96 -105t-125.5 -66t-151 -23q-111 0 -196.5 40.5t-143 110t-87 162t-29.5 197.5zM307 228q48 -60 116 -89.5t143 -29.5q109 0 191 55t122 157q-24 25 -53 42.5t-61 28t-66.5 15t-67.5 4.5q-50 0 -98.5 -11 t-91.5 -33.5t-77.5 -57t-56.5 -81.5zM1136 -512v2066q0 227 224 233q18 0 36.5 0.5t37.5 0.5h1312q19 0 37.5 -0.5t36.5 -0.5q224 -6 224 -233v-96h-111q0 22 1 43t1 43q0 38 -6 64.5t-21 43t-39.5 23.5t-61.5 7h-1434q-57 0 -84.5 -16.5t-36.5 -57.5q-6 -21 -6 -54v-2066 q0 -37 7 -61.5t22 -39.5t39.5 -21t58.5 -6h1458q37 0 61.5 7.5t39 23t20.5 39.5t6 58v646q-62 -66 -143.5 -97.5t-172.5 -31.5q-134 0 -238.5 64.5t-161.5 185.5q-28 -61 -69.5 -107.5t-92.5 -78.5t-111.5 -48.5t-126.5 -16.5q-91 0 -163.5 26.5t-128 75.5t-93.5 118 t-59 153l105 31q17 -66 44.5 -121t69 -94.5t97.5 -61.5t128 -22q88 0 153 33t108 89t64 129.5t21 153.5q0 81 -21 154.5t-63.5 129t-107.5 88.5t-154 33q-73 0 -129.5 -21.5t-98 -61.5t-69 -95t-44.5 -123l-105 30q21 85 59 154.5t93.5 118.5t129 76t164.5 27 q114 0 199.5 -41t142.5 -111.5t85.5 -164.5t28.5 -200q0 -78 21.5 -149.5t64.5 -126.5t107.5 -88t150.5 -33q87 0 152 33t108 88.5t64.5 128.5t21.5 153t-21.5 153t-64.5 129t-108 89t-152 33q-34 0 -67 -5.5t-66 -12.5l-23 103q39 9 78 15t78 6q133 0 237.5 -64.5 t161.5 -184.5q57 121 161.5 185.5t238.5 64.5q111 0 196.5 -40.5t143 -110t87.5 -162t30 -197.5q0 -106 -30 -199t-88.5 -162t-144.5 -108.5t-198 -39.5q-40 0 -79.5 6t-78.5 16l23 102q34 -8 69 -14t70 -6q89 0 154 33t108 89t64 129t21 154t-21.5 154t-64.5 129t-108 89 t-153 33q-75 0 -138 -27.5t-108 -75t-70.5 -110t-26.5 -133.5q-1 -53 -2 -99.5t-11 -93.5q-7 -31 -18 -66h2v-826q0 -118 -60 -175.5t-178 -57.5h-1458q-117 0 -177 57.5t-60 175.5zM3087 1426q0 81 25.5 148t72 115t112.5 75t148 27q81 0 145.5 -26t110.5 -73t71.5 -112.5 t28.5 -145.5l-108 -52v47q-1 57 -17.5 104.5t-48 82t-77 53.5t-105.5 19t-106.5 -19t-78 -53.5t-48 -82.5t-16.5 -107q0 -72 21 -122t60 -81t93.5 -44.5t121.5 -13.5l-2 -104q-89 0 -163 21.5t-127.5 66.5t-83 114t-29.5 163z" />
<glyph unicode="&#x102b;" horiz-adv-x="311" d="M-284 1113v476l370 217h120v-1801h-117v1673l-257 -153v-412h-116z" />
<glyph unicode="&#x102c;" horiz-adv-x="814" d="M-213 557q12 101 44.5 187t88.5 149t137.5 99t190.5 36q112 0 197.5 -41t144 -111t88.5 -163.5t30 -198.5t-30 -198t-88.5 -163.5t-144 -111.5t-197.5 -41q-37 0 -74 5.5t-73 13.5l19 101q32 -7 64 -12t64 -5q90 0 156 33.5t109.5 90t65 131t21.5 156.5t-21.5 156.5 t-65 131t-109.5 90t-156 33.5q-88 0 -151 -30t-105 -81.5t-65.5 -121t-32.5 -148.5z" />
<glyph unicode="&#x102d;" d="M-921 1436q0 78 24 145.5t70.5 117.5t114.5 79t155 29t154.5 -29t114 -79t71 -118t24.5 -145t-24.5 -145t-71 -118.5t-114 -79.5t-154.5 -29t-155 29t-114.5 79.5t-70.5 118t-24 145.5zM-813 1436q0 -60 17 -109.5t49.5 -85t80 -55t109.5 -19.5q61 0 109 20t80.5 55.5 t49.5 85t17 108.5t-17 108.5t-49.5 85t-80.5 55.5t-109 20q-62 0 -109.5 -20t-80 -55.5t-49.5 -85t-17 -108.5z" />
<glyph unicode="&#x102e;" d="M-924 1435q0 82 25.5 150t73 117t114.5 76.5t150 27.5q82 0 148.5 -27.5t114 -77t73 -117.5t25.5 -149q0 -80 -25.5 -148t-73 -117.5t-114 -77t-148.5 -27.5q-83 0 -150 27.5t-114.5 76.5t-73 117t-25.5 149zM-823 1435q0 -29 5 -58.5t16 -57.5q51 45 113.5 66t126.5 21 q65 0 128 -21.5t113 -66.5q12 28 17 58t5 59q0 62 -17.5 112.5t-51.5 86.5t-82.5 56t-110.5 20t-110.5 -20t-82.5 -56t-51.5 -86.5t-17.5 -112.5zM-758 1241q38 -42 88.5 -60.5t107.5 -18.5q55 0 107 19.5t88 59.5q-38 38 -89.5 57.5t-105.5 19.5q-55 0 -106.5 -18.5 t-89.5 -58.5z" />
<glyph unicode="&#x102f;" d="M-566 -39h114v-614h201v-109h-256q-32 0 -45.5 16.5t-13.5 40.5v666z" />
<glyph unicode="&#x1030;" d="M-720 -38h114v-725h-114v725zM-465 -38h114v-616h207v-109h-262q-32 0 -45.5 16.5t-13.5 40.5v668z" />
<glyph unicode="&#x1031;" horiz-adv-x="1120" d="M107 513q0 105 29.5 198t87.5 163t144 110.5t198 40.5q91 0 164.5 -26.5t129.5 -76t94.5 -119t59.5 -155.5l-106 -28q-16 67 -44.5 122.5t-70.5 95t-98 61t-129 21.5q-89 0 -154.5 -33t-109 -89t-64.5 -130t-21 -155q0 -46 7 -91t23 -88q33 46 76 80t92.5 56.5t104 33.5 t110.5 11q53 0 107 -10.5t103.5 -32t91.5 -55.5t70 -81q-21 -77 -62 -139t-97.5 -106t-126.5 -68t-150 -24q-112 0 -198 41t-144 111t-87.5 163.5t-29.5 198.5zM305 224q48 -60 116.5 -90t144.5 -30q109 0 191.5 55t122.5 158q-24 25 -53.5 42.5t-62 28.5t-67 16t-67.5 5 q-51 0 -99.5 -11t-91 -33.5t-77 -57.5t-57.5 -83z" />
<glyph unicode="&#x1032;" d="M-902 1517l57 101l674 -379l-58 -101z" />
<glyph unicode="&#x1033;" horiz-adv-x="682" />
<glyph unicode="&#x1034;" horiz-adv-x="682" />
<glyph unicode="&#x1035;" d="M-914 1435q0 80 25 146.5t71.5 114t112.5 74t147 26.5q59 0 107.5 -13t88.5 -39t72.5 -64.5t60.5 -89.5l-86 -48q-41 77 -97 117t-146 40q-61 0 -108.5 -19t-79.5 -53.5t-49 -82.5t-18 -106q0 -11 0.5 -23t1.5 -23q48 51 114.5 76t136.5 25q48 0 94.5 -11.5t87.5 -33.5 t74.5 -55t56.5 -77q0 -3 0.5 -5.5t0.5 -4.5q0 -20 -9.5 -38.5t-19.5 -35.5q-51 -81 -118.5 -119t-164.5 -38q-81 0 -147 26.5t-112.5 74t-71.5 114t-25 145.5zM-775 1285q35 -58 92 -85.5t125 -27.5q71 0 124 32t81 98q-35 50 -91.5 74t-116.5 24q-66 0 -124 -28t-90 -87z " />
<glyph unicode="&#x1036;" d="M-707 1397q0 38 12 70t34 55t53.5 36t70.5 13q38 0 69.5 -13t53.5 -36t34 -55t12 -70t-12 -70t-34 -55t-53 -36t-70 -13t-70.5 13t-53.5 36t-34 55t-12 70zM-618 1397q0 -39 20 -62t61 -23q40 0 60 23.5t20 61.5t-20.5 61.5t-59.5 23.5q-41 0 -61 -23t-20 -62z" />
<glyph unicode="&#x1037;" d="M-719 -302q0 38 12 70t34.5 55t53.5 36t70 13q38 0 69.5 -13t53.5 -36t34 -55t12 -70t-12 -70t-34 -55t-53 -36t-70 -13t-70 13t-53.5 36t-34.5 55t-12 70zM-630 -302q0 -39 20.5 -62t60.5 -23t60 23.5t20 61.5t-20 61.5t-60 23.5t-60.5 -23t-20.5 -62z" />
<glyph unicode="&#x1038;" horiz-adv-x="513" d="M89 207q0 38 12 69.5t34 54.5t53 35.5t69 12.5t69 -13t52.5 -35.5t33.5 -54t12 -69.5q0 -37 -11.5 -68.5t-33.5 -54.5t-53 -35.5t-69 -12.5t-69 12.5t-53 35.5t-34 54.5t-12 68.5zM89 831q0 38 12 69.5t34 54t53 35.5t69 13t69 -13t52.5 -36t33.5 -54.5t12 -68.5 t-11.5 -69t-33.5 -54.5t-53 -35.5t-69 -13t-69 13t-53 35.5t-34 54.5t-12 69zM181 831q0 -37 19 -58.5t57 -21.5t56.5 22t18.5 58t-18.5 58t-56.5 22t-57 -21.5t-19 -58.5zM182 207q0 -36 18.5 -57.5t56.5 -21.5t56 22t18 57q0 36 -18.5 58t-55.5 22q-38 0 -56.5 -22 t-18.5 -58z" />
<glyph unicode="&#x1039;" d="M-777 -280h236v236h101v-236h237v-98h-237v-235h-101v235h-236v98z" />
<glyph unicode="&#x103a;" d="M-909 1432q0 81 26 149t73 116.5t114 76t149 27.5q74 0 137.5 -23t111 -65.5t76.5 -103t35 -135.5l-107 -28q-4 57 -21.5 103.5t-49.5 79.5t-77.5 51t-104.5 18q-61 0 -108 -19.5t-79.5 -54.5t-49.5 -84t-17 -108q0 -76 21.5 -127.5t61 -82t95 -44t123.5 -13.5l-2 -103 q-91 0 -166 22t-128.5 67t-83 115t-29.5 166z" />
<glyph unicode="&#x103b;" horiz-adv-x="297" d="M-291 218l107 24v-720l268 -161v1655h108v-1771h-119l-364 219v754z" />
<glyph unicode="&#x103c;" horiz-adv-x="301" d="M107 -521v2048q0 119 60.5 177.5t178.5 58.5h658q238 0 238 -236v-64h-111q0 42 -0.5 77.5t-11 61.5t-37 40.5t-78.5 14.5h-658q-37 0 -62 -6.5t-40 -22t-21 -40.5t-6 -61v-2048q0 -37 6 -62t21 -40t40 -21.5t62 -6.5h673q38 0 62.5 6.5t39.5 21.5t21 40t6 62v786l111 59 v-845q0 -121 -60 -178.5t-180 -57.5h-673q-239 0 -239 236z" />
<glyph unicode="&#x103d;" d="M-903 -406q0 78 24 145.5t70.5 117.5t114.5 79t155 29t154.5 -29t114 -79.5t70.5 -118t24 -144.5t-24 -145t-70.5 -118t-114 -79t-154.5 -29t-155 29t-114.5 79t-70.5 117.5t-24 145.5zM-791 -406q0 -58 16.5 -106.5t49 -83.5t79.5 -54.5t107 -19.5t107 19.5t79 54.5 t48.5 83.5t16.5 106.5t-16.5 107t-48.5 83.5t-79 54t-107 19.5t-107 -19.5t-79.5 -54t-49 -83.5t-16.5 -107z" />
<glyph unicode="&#x103e;" d="M-773 -638h216v606h112v-632q0 -36 -19 -58.5t-64 -22.5h-245v107z" />
<glyph unicode="&#x103f;" horiz-adv-x="2727" d="M107 642q24 86 61 156.5t91.5 120.5t127.5 77.5t168 27.5q107 0 189.5 -37.5t140 -102.5t89 -152.5t35.5 -186.5q3 -19 3.5 -37.5t0.5 -37.5q0 -17 5 -39q15 -72 40.5 -131.5t66 -103t99 -67.5t137.5 -24q87 0 152.5 34t108.5 90.5t64.5 129.5t21.5 152q0 81 -21 155 t-63.5 130t-108 89t-154.5 33q-35 0 -70 -6.5t-70 -14.5l-22 103q40 10 80 16.5t82 6.5q105 0 187.5 -37.5t140 -102.5t89 -152t35.5 -186q4 -22 4 -42.5v-42.5q0 -8 1 -14.5t3 -14.5q15 -72 40.5 -132t65.5 -103t98 -67t138 -24q89 0 154.5 33t108 88.5t63.5 129.5t21 155 t-21 155t-63.5 130t-108 89t-154.5 33q-35 0 -70 -6.5t-70 -14.5l-22 103q40 10 80 16.5t82 6.5q111 0 196.5 -41t143.5 -111t88 -163t30 -197q0 -105 -30 -197.5t-88 -162.5t-143.5 -110.5t-196.5 -40.5q-134 0 -238.5 64t-162.5 186q-28 -60 -69.5 -107t-93 -78.5 t-111.5 -48t-127 -16.5q-135 0 -240.5 65t-162.5 187q-57 -123 -161.5 -188t-241.5 -65q-93 0 -166.5 27.5t-128.5 77.5t-92.5 120.5t-59.5 156.5l105 30q17 -67 44.5 -123.5t69 -97t98 -63.5t130.5 -23q89 0 155 33t109 89t64 130t21 156q0 81 -21 155t-64 130t-109 89 t-155 33q-75 0 -131.5 -22.5t-98 -63t-69 -97t-44.5 -124.5z" />
<glyph unicode="&#x1040;" horiz-adv-x="1153" d="M114 513q0 104 29 196t86 161.5t140.5 111t192.5 44.5l-1 -106q-85 -3 -148.5 -37t-105 -89.5t-62 -128t-20.5 -152.5t20 -152.5t61.5 -128.5t105 -90t149.5 -37l1 -106q-109 3 -193 44.5t-140.5 111.5t-85.5 162.5t-29 195.5zM587 -1v105q86 3 149 37t104 90t61.5 129 t20.5 153t-20 153t-61.5 128.5t-104.5 89.5t-149 36v106q109 -3 192.5 -44.5t140 -111t85.5 -161.5t29 -196q0 -103 -29 -195.5t-85.5 -162t-140 -111.5t-192.5 -45z" />
<glyph unicode="&#x1041;" horiz-adv-x="1126" d="M114 686q23 79 63 141.5t96 106.5t126.5 67.5t153.5 23.5q112 0 197.5 -40.5t143.5 -110.5t88 -163t30 -198t-29.5 -198.5t-87.5 -163.5t-144 -111t-198 -41q-83 0 -153.5 24t-126 68.5t-95.5 107t-63 140.5l106 29q17 -60 47 -109t72 -83.5t95.5 -53t117.5 -18.5 q89 0 155 33.5t109 89.5t64 130.5t21 155.5t-21 155t-64.5 130t-109 89t-154.5 33q-64 0 -118 -18.5t-96 -53t-72 -83t-47 -109.5z" />
<glyph unicode="&#x1042;" horiz-adv-x="1148" d="M121 -203h109v-52q0 -81 21 -155t64 -129.5t108.5 -88.5t153.5 -33q89 0 154 33t108 89t64 129.5t21 154.5l-1 1280h111v-1280q0 -105 -29.5 -197.5t-87.5 -162t-143.5 -110t-196.5 -40.5q-105 0 -186.5 37t-138.5 101.5t-88.5 151t-36.5 184.5q-5 19 -5.5 44t-0.5 44z " />
<glyph unicode="&#x1043;" horiz-adv-x="1132" d="M114 686q22 78 62.5 141t97 107t127 67.5t152.5 23.5q112 0 198 -40.5t144 -110.5t87.5 -163t29.5 -198t-29.5 -198.5t-87.5 -163.5t-144 -111t-198 -41q-50 0 -98 9t-93 30l345 -819h-119l-438 1034l106 39q21 -59 46 -95.5t59.5 -57t81 -28t110.5 -7.5q89 0 154.5 33.5 t109 90t64.5 130.5t21 155t-21 155t-64.5 130t-109 89t-154.5 33q-64 0 -117.5 -18.5t-95.5 -53t-72.5 -83.5t-47.5 -109z" />
<glyph unicode="&#x1044;" horiz-adv-x="1132" d="M121 513q0 105 29.5 198t87.5 163t143.5 110.5t197.5 40.5q83 0 153.5 -23.5t126.5 -67.5t96.5 -107t62.5 -141l-106 -30q-17 60 -47.5 109t-72.5 83.5t-95.5 53t-117.5 18.5q-88 0 -153.5 -33t-109 -89t-64.5 -130t-21 -155t21 -155t64.5 -130.5t109 -90t153.5 -33.5 q64 0 110.5 7.5t81 28t59.5 57t46 95.5l106 -39l-437 -1034h-119l344 819q-45 -21 -93 -30t-98 -9q-112 0 -197.5 41t-143.5 111t-87.5 163.5t-29.5 198.5z" />
<glyph unicode="&#x1045;" horiz-adv-x="1153" d="M114 -230h112v-49q1 -81 22.5 -154.5t64.5 -129t108.5 -88t154.5 -32.5t154.5 33.5t109 90.5t65 131t21.5 155v782q0 82 -21 156t-64.5 130.5t-109 89.5t-155.5 33q-80 0 -142 -27.5t-105.5 -75.5t-68.5 -113t-32 -140q45 27 97 27q40 0 77 -15.5t65.5 -41.5t46 -61.5 t17.5 -76.5q0 -38 -14 -70.5t-38 -56.5t-57 -38t-71 -14q-60 0 -105 25.5t-74 67.5t-43.5 94.5t-14.5 106.5q0 106 30 199.5t88.5 163.5t145 111t198.5 41q160 0 271.5 -83.5t161.5 -232.5q12 -38 20 -75.5t8 -78.5l1 -827q0 -105 -30 -199t-88.5 -164.5t-144.5 -111.5 t-199 -41t-199 41.5t-144 112t-87.5 163t-31.5 195.5v47zM231 442q5 -23 14.5 -45t24.5 -39t35.5 -27t46.5 -10q35 0 55.5 21.5t20.5 55.5q0 20 -8 36.5t-21.5 28.5t-31.5 19t-37 7q-29 0 -54 -14t-45 -33z" />
<glyph unicode="&#x1046;" horiz-adv-x="1153" d="M114 471v801q0 106 30 200t88.5 164.5t145 111.5t198.5 41q122 0 209.5 -39.5t143.5 -109.5t82.5 -166t26.5 -209h-111q0 89 -18 165t-59 131.5t-108.5 87.5t-165.5 32q-89 0 -154.5 -33.5t-109 -89.5t-64.5 -130.5t-21 -155.5v-756q0 -82 21 -156t64 -130t108.5 -89.5 t155.5 -33.5q65 0 126.5 9.5t110 36.5t78 75.5t29.5 126.5q0 77 -19.5 122t-50.5 71.5t-70.5 40.5t-80.5 28t-79.5 34t-66.5 59q-21 29 -34 61.5t-13 67.5q0 44 19 82.5t50.5 67t72 45t82.5 16.5q40 0 75 -13.5t63.5 -36.5t51.5 -53.5t39 -65.5l-97 -56q-8 21 -21 42t-30 37 t-38 26t-46 10q-21 0 -40.5 -8t-34.5 -22t-24 -32.5t-9 -39.5q0 -36 17.5 -59t46.5 -39.5t65.5 -30t75 -29.5t75 -39t65.5 -58t46.5 -85.5t17.5 -122.5q0 -106 -35 -177.5t-96.5 -115t-143.5 -62.5t-177 -19q-85 0 -156 24t-127 68.5t-96 108.5t-63 144q-9 31 -14.5 62 t-5.5 63z" />
<glyph unicode="&#x1047;" horiz-adv-x="1153" d="M114 509q0 106 30 200t89 164.5t145.5 111.5t198.5 41q115 0 201.5 -41t144 -112t86.5 -166t29 -203q0 -54 -10 -108.5t-25.5 -108.5t-34.5 -107t-37 -103q-23 -64 -44.5 -128.5t-38 -130t-26 -132t-9.5 -136.5q0 -36 5.5 -77t21.5 -76t44.5 -58.5t74.5 -23.5q6 0 12 0.5 t13 0.5l-1 -108q-82 0 -136.5 27t-86 73.5t-44.5 109t-13 135.5q0 126 24.5 241.5t66.5 234.5q20 58 43.5 116.5t43.5 117.5t33 120t13 123q0 83 -20.5 158t-63.5 131.5t-109 90t-157 33.5q-90 0 -156 -33.5t-109.5 -89.5t-64.5 -130.5t-21 -156.5q0 -71 15.5 -138 t49 -121.5t87 -92.5t129.5 -51l-27 -107q-95 20 -164 67.5t-114 115t-66.5 151t-21.5 176.5z" />
<glyph unicode="&#x1048;" horiz-adv-x="1163" d="M114 500q0 107 30 203.5t88.5 169.5t146 116t202.5 43q116 0 203.5 -43t146 -116t88.5 -169.5t30 -203.5q0 -76 -16 -152t-50.5 -143t-88.5 -119.5t-129 -82.5l-46 97q60 24 101.5 67t67 97.5t37 115.5t11.5 120q0 83 -21 160t-64.5 135.5t-110.5 93.5t-159 35 q-123 0 -207 -66.5t-121 -181.5q75 -1 132 -29t95.5 -74.5t58 -108.5t19.5 -133q0 -50 -10 -98t-31 -90.5t-54.5 -77t-81.5 -56.5q-71 34 -121.5 86.5t-83 117.5t-47.5 138.5t-15 148.5zM228 495q0 -49 8 -100t26.5 -98.5t48.5 -88t73 -69.5q42 36 58 88.5t16 106.5 q0 45 -11.5 87.5t-35.5 75t-61 52.5t-88 20h-29q-3 -18 -4 -37t-1 -37z" />
<glyph unicode="&#x1049;" horiz-adv-x="1149" d="M114 -270q0 205 0.5 414t0.5 415q0 40 7.5 78.5t19.5 76.5q51 154 166.5 233t278.5 79q94 0 175.5 -32t142 -90t95.5 -138t35 -175q0 -85 -23 -137.5t-60.5 -83.5t-84 -45.5t-94.5 -23.5q-29 -6 -57.5 -12t-51 -17t-36 -29.5t-13.5 -48.5q0 -21 9.5 -39.5t25 -32 t35.5 -21.5t40 -8q24 0 44.5 10t37 25.5t29 35.5t20.5 40l96 -51q-16 -34 -38.5 -64.5t-50.5 -53.5t-62.5 -36.5t-74.5 -13.5q-42 0 -82 16t-71.5 44t-50.5 66t-19 82q0 42 10.5 69t36.5 59q4 4 6 5q27 30 65 44.5t79 23.5t81.5 18t72 28t51.5 54t20 96q0 73 -26 133.5 t-72 104.5t-108 68.5t-134 24.5q-95 0 -163 -30.5t-112 -85t-64.5 -129.5t-20.5 -163v-783q0 -81 21.5 -154.5t64.5 -130t108.5 -90t153.5 -33.5q91 0 157 34.5t108.5 92.5t63 133t20.5 155h110q0 -105 -29 -199.5t-86.5 -166t-143.5 -113t-200 -41.5q-112 0 -197.5 41 t-143.5 111t-88 163t-30 198z" />
<glyph unicode="&#x104a;" horiz-adv-x="353" d="M115 4v998h115v-998h-115z" />
<glyph unicode="&#x104b;" horiz-adv-x="580" d="M115 4v998h115v-998h-115zM341 4v998h115v-998h-115z" />
<glyph unicode="&#x104c;" horiz-adv-x="1096" d="M108 -475q0 48 24.5 83.5t62 58t83 33.5t86.5 11q40 0 81 -7t78 -23.5t68 -43t50 -64.5l-95 -48q-14 24 -34 39.5t-44 25t-50.5 13t-52.5 3.5q-30 0 -57 -4.5t-47 -17t-32 -34.5t-12 -56q0 -25 1.5 -47.5t9.5 -40t25 -28t48 -10.5h391q65 0 95 32t30 95v366 q-66 -34 -139 -48t-147 -14q-112 0 -220.5 32.5t-199.5 98.5v408l103 28q33 -119 116 -185.5t208 -66.5q87 0 151.5 32.5t107 87.5t63 127.5t20.5 152.5t-20.5 152.5t-62.5 127.5t-106.5 87t-152.5 32q-63 0 -115 -18.5t-93.5 -52t-70.5 -81.5t-46 -107l-105 30 q22 77 61.5 139t94.5 105t124 66t150 23q110 0 194 -40t141 -108t86.5 -159.5t29.5 -195.5q0 -103 -29.5 -195t-86.5 -160.5t-141 -108.5t-194 -40q-90 0 -173.5 34t-143.5 100v-163q72 -45 155 -62.5t168 -17.5q46 0 93.5 6.5t91.5 23t82 43.5t65 67l49 -28v-518 q0 -54 -16.5 -97t-46.5 -73t-73 -45.5t-97 -15.5h-391q-43 0 -79 13.5t-61 38t-39 60t-14 79.5v70zM195 1442q0 79 25 145t71 114t111.5 74.5t145.5 26.5q82 0 145.5 -26t108.5 -73.5t69.5 -113t28.5 -144.5l-108 -12q0 58 -15.5 106.5t-46 84t-76 55.5t-106.5 20 q-58 0 -104 -19t-77 -52.5t-47.5 -81t-16.5 -104.5t16.5 -104.5t47.5 -81t77 -52.5t104 -19h55v-103h-55q-81 0 -146 26.5t-111 74t-71 113.5t-25 146z" />
<glyph unicode="&#x104d;" horiz-adv-x="1339" d="M107 -449q0 109 62 169t170 60h366v-103h-366q-46 0 -71 -13.5t-37 -37t-14 -54.5t-2 -66q0 -63 29.5 -96t94.5 -33h647q66 0 95 32.5t29 93.5q0 291 -0.5 579t-0.5 579q0 94 -17.5 155t-55 104.5t-96 77.5t-139.5 73q-68 33 -119 61t-85 65.5t-51 93t-17 142.5 q0 80 25 146t71 113.5t111 74t146 26.5q48 0 95 -11.5t88.5 -35t75 -57.5t54.5 -79q26 -54 32 -108.5t6 -111.5h-108v43q0 56 -16.5 103t-47.5 81t-76 53t-103 19q-60 0 -105.5 -19t-76.5 -53t-47 -81t-16 -103q0 -65 9.5 -104.5t32 -66t59 -46t91.5 -44.5 q93 -43 165.5 -84.5t121.5 -96.5t74.5 -131t25.5 -188q0 -294 0.5 -584.5t0.5 -584.5q0 -108 -62 -168.5t-169 -60.5h-647q-108 0 -170 60.5t-62 168.5v48zM107 517q0 102 29 192.5t85.5 158.5t140 107.5t192.5 39.5q141 0 247 -70.5t160 -201.5q4 -10 9 -23t9.5 -27 t7.5 -27.5t3 -24.5v-1135h-108v1126q0 20 -7.5 39.5t-15.5 37.5q-24 50 -54 87.5t-67 63.5t-82.5 39t-101.5 13q-80 0 -141.5 -29t-104 -78.5t-65.5 -115.5t-26 -141q86 -7 155 -40t117 -87t73.5 -126t25.5 -158q0 -9 -1 -29t-5 -40t-10.5 -35.5t-17.5 -15.5 q-109 0 -192.5 39.5t-140 108t-85.5 159.5t-29 193zM221 443q7 -56 26 -108.5t51 -94.5t77 -71.5t104 -39.5q2 10 2 19.5v19.5q-1 56 -21.5 103.5t-55.5 83.5t-82 59t-101 29z" />
<glyph unicode="&#x104e;" horiz-adv-x="1109" d="M107 513q0 105 29.5 198t87.5 162.5t143.5 110.5t197.5 41q82 0 152.5 -23.5t126.5 -68t96 -107t62 -140.5l-105 -30q-17 60 -47 109t-72 83.5t-95.5 53t-117.5 18.5q-89 0 -154.5 -33t-108.5 -89.5t-64 -130t-21 -154.5t21 -155t64 -130.5t108.5 -89.5t154.5 -33 q64 0 117 19t95 53.5t72 83t47 108.5l103 -29v-1125h-110v923q-62 -69 -146.5 -103.5t-177.5 -34.5q-112 0 -197.5 41t-143.5 110.5t-87.5 163t-29.5 198.5z" />
<glyph unicode="&#x104f;" horiz-adv-x="1624" d="M107 511q0 105 29.5 198t87.5 163t143 110.5t197 40.5q79 0 153.5 -26.5t134.5 -78.5q38 26 82.5 39.5t89.5 13.5q51 0 92 -17t69.5 -47.5t44 -72.5t15.5 -91l1 -744h-109l-1 743q0 25 -6.5 48t-20 40t-33.5 27.5t-48 10.5q-27 0 -53.5 -8.5t-49.5 -22.5q8 -13 20.5 -34 t24 -44t20 -45t8.5 -37q0 -11 -0.5 -20t-1.5 -20q-29 -27 -64 -47.5t-73.5 -34t-79 -20t-79.5 -6.5q-65 0 -127.5 15.5t-116.5 47t-96 78.5t-66 110q-42 -58 -59.5 -127.5t-17.5 -141.5t17.5 -143t61.5 -130q25 61 66.5 106.5t93.5 76t113 46t125 15.5q40 0 81 -6.5 t80.5 -20t75.5 -33.5t65 -48q1 -11 1.5 -20.5t0.5 -20.5q0 -9 -4 -22t-10 -27t-12.5 -27l-10.5 -21q-63 -115 -164.5 -176t-232.5 -61q-115 0 -201 39.5t-143 108.5t-85 162.5t-28 201.5zM378 866q14 -58 43 -102t70 -74t92.5 -45.5t109.5 -15.5q50 0 99 13t91 41 q-19 53 -49.5 96t-71.5 74t-91 47.5t-107 16.5q-49 0 -96.5 -12t-89.5 -39zM382 153q40 -26 87 -37.5t95 -11.5q113 0 196.5 59t121.5 166q-42 27 -90 40t-98 13q-57 0 -107.5 -14.5t-91 -43.5t-70 -72t-43.5 -99zM806 1436q0 80 25.5 146.5t72 114.5t112.5 75t147 27 t146.5 -26.5t112 -74.5t71.5 -115t25 -147h-110q0 56 -17 103.5t-48.5 82t-77 54t-102.5 19.5q-60 0 -106 -19t-77.5 -53t-47.5 -81.5t-16 -105.5q0 -68 14.5 -114.5t44 -78t75 -51t108.5 -34.5q80 -17 144 -49t108 -80.5t67.5 -114.5t23.5 -151l1 -764h-109v764 q0 86 -25 138.5t-66.5 84.5t-94 50t-108 35t-108 38.5t-94 61t-66.5 102.5t-25 163z" />
<glyph unicode="&#x1050;" horiz-adv-x="1138" d="M107 503q0 107 29.5 202.5t87.5 167.5t145 114.5t201 42.5t200.5 -42.5t145 -114.5t88 -167.5t29.5 -202.5q0 -90 -17.5 -165t-54.5 -137.5t-95 -112.5t-139 -89l-48 96q66 32 112.5 72.5t75 91t41.5 111.5t13 133q0 82 -21 158t-64 134.5t-109.5 93.5t-156.5 35 t-156.5 -35t-110 -93.5t-64.5 -134.5t-21 -158q0 -72 13 -132.5t41.5 -111t74 -91t111.5 -72.5l-48 -97q-161 77 -232 201t-71 303zM455 510q0 45 28 72.5t72 27.5t72 -27.5t28 -72.5q0 -46 -27.5 -73.5t-72.5 -27.5t-72.5 27.5t-27.5 73.5z" />
<glyph unicode="&#x1051;" horiz-adv-x="1138" d="M107 526q0 179 71 303t232 201l48 -97q-66 -32 -111.5 -72.5t-74 -91t-41.5 -111t-13 -132.5q0 -82 21 -158t64.5 -134.5t110 -93.5t156.5 -35t156.5 35t109.5 93.5t64 134.5t21 158q0 72 -13 133t-41.5 111.5t-75 91t-112.5 72.5l48 96q81 -39 139 -89t95 -112.5 t54.5 -137.5t17.5 -165q0 -106 -29.5 -201.5t-88 -168t-145 -115t-200.5 -42.5t-201 42.5t-145 115t-87.5 168t-29.5 201.5zM455 519q0 46 27.5 73.5t72.5 27.5t72.5 -27.5t27.5 -73.5q0 -45 -28 -72.5t-72 -27.5t-72 27.5t-28 72.5z" />
<glyph unicode="&#x1052;" horiz-adv-x="1139" d="M107 517q0 81 16 157t51 142t89.5 119t131.5 87l46 -96q-61 -31 -104 -74t-69 -95t-38 -112.5t-12 -127.5q0 -82 21.5 -157t65 -131t109.5 -89.5t156 -33.5q84 0 149.5 31.5t110.5 85.5t68.5 125t23.5 150q0 29 -21.5 52.5t-53 46t-69 46t-69 52t-53 64t-21.5 82.5 q0 37 15 69.5t40 57t58.5 38.5t69.5 14q35 0 65 -11t55.5 -30t45.5 -44.5t34 -54.5l-95 -47q-10 32 -37.5 56.5t-62.5 24.5q-15 0 -29 -5.5t-25 -15.5t-17.5 -23.5t-6.5 -28.5q0 -26 21.5 -49t53.5 -46t69 -47.5t69 -53.5t53.5 -64t21.5 -79q0 -103 -32 -194t-92 -159.5 t-145.5 -108.5t-193.5 -40q-113 0 -199.5 41t-145 111.5t-88.5 164.5t-30 200z" />
<glyph unicode="&#x1053;" horiz-adv-x="1144" d="M107 445q0 35 3 62.5t11.5 51.5t24.5 46t43 46q18 17 52.5 39t69 47t60 52t25.5 53q0 15 -6.5 28t-17 23.5t-24.5 16.5t-28 6q-38 0 -63 -24.5t-39 -56.5l-95 46q29 58 78 98t116 42q8 0 17 -0.5t18 -2.5q31 -5 58.5 -21t47.5 -39.5t32 -53.5t12 -63q0 -47 -20 -76 t-53 -56q-44 -36 -86 -71l-84 -70q-30 -24 -35.5 -55t-5.5 -66q0 -81 25.5 -144.5t72 -107t112 -66.5t144.5 -23q80 0 145 23t111.5 66.5t72 107.5t25.5 145q0 50 -21 85t-53 63t-68.5 52t-68.5 51.5t-53 61.5t-21 81q0 33 12 62.5t32 53t48 39.5t59 21q9 2 17.5 2.5 t17.5 0.5q33 -1 62 -12t53 -29.5t43.5 -43.5t34.5 -54l-95 -47q-14 31 -39.5 55t-62.5 24q-32 0 -55.5 -18.5t-19.5 -53.5q0 -28 16.5 -45t36.5 -34q38 -29 80 -55.5t74 -56.5q26 -24 42 -46t25 -46t12.5 -51.5t3.5 -61.5q0 -104 -35 -187t-97 -140.5t-147.5 -88 t-186.5 -30.5t-186 30.5t-147 88t-97 140t-35 186.5z" />
<glyph unicode="&#x1058;" d="M-904 -405q0 79 25.5 144.5t72 112.5t111.5 72.5t145 25.5q49 0 95.5 -11t87.5 -33.5t74 -56t56 -78.5q5 -11 9 -22t4 -23q0 -39 -31 -68.5t-74.5 -48.5t-90 -28.5t-77.5 -9.5q-80 0 -154 31t-126 92q-9 -25 -13 -51t-4 -52q0 -56 17 -101t49 -77t77 -49.5t101 -17.5 q84 0 145.5 39.5t86.5 121.5l102 -37q-16 -57 -49 -99.5t-77.5 -71.5t-97.5 -43.5t-110 -14.5q-80 0 -145 25.5t-111.5 72t-72 111.5t-25.5 145zM-718 -214q35 -58 95.5 -86.5t126.5 -28.5q43 0 86 12.5t73 44.5q-14 30 -37 52t-51.5 36.5t-61 21.5t-63.5 7q-46 0 -90 -13.5 t-78 -45.5z" />
<glyph unicode="&#x1059;" d="M-897 -405q0 79 25 144.5t71.5 112t111 72.5t144.5 26q47 0 94 -11.5t88.5 -34t75 -55.5t54.5 -77q5 -11 8.5 -22.5t3.5 -23.5q0 -41 -30 -70.5t-73 -49t-89 -28.5t-78 -9q-81 0 -156 31t-129 94q-16 -47 -16 -99q0 -33 6.5 -66t21 -62.5t36.5 -53.5t53 -39q12 13 33 38 t44.5 49.5t45.5 42.5t34 18q11 0 33 -21t46 -49t45 -55.5t32 -40.5q29 5 42.5 25.5t13.5 48.5q0 23 -10 40l98 35q16 -37 16 -74q0 -42 -13.5 -75.5t-37.5 -57t-58 -35.5t-76 -12l-132 144l-115 -144q-20 2 -39 9t-36 16q-94 47 -141 131t-47 188zM-717 -212q18 -30 43 -52 t54.5 -36.5t62.5 -22t67 -7.5q44 0 88 13t75 45q-15 31 -38.5 53.5t-52.5 37.5t-61.5 22.5t-65.5 7.5q-47 0 -92 -14t-80 -47z" />
<glyph unicode="&#x105b;" horiz-adv-x="1780" />
<glyph unicode="&#x105e;" horiz-adv-x="682" />
<glyph unicode="&#x105f;" horiz-adv-x="682" />
<glyph unicode="&#x1060;" horiz-adv-x="682" />
<glyph unicode="&#x1061;" horiz-adv-x="1411" />
<glyph unicode="&#x1062;" horiz-adv-x="351" d="M-21 892v110h208q32 0 45 -15.5t13 -39.5v-943h-113v888h-153z" />
<glyph unicode="&#x1065;" horiz-adv-x="1366" />
<glyph unicode="&#x1071;" horiz-adv-x="682" />
<glyph unicode="&#x1072;" horiz-adv-x="682" />
<glyph unicode="&#x1073;" horiz-adv-x="682" />
<glyph unicode="&#x1075;" horiz-adv-x="1134" d="M107 534q0 101 32 190.5t91 156.5t143.5 105.5t190.5 38.5q111 0 196.5 -40.5t143.5 -110t88 -162.5t30 -198q0 -73 -14.5 -145t-46 -136.5t-80 -117.5t-117.5 -87q-14 -7 -27.5 -13t-27.5 -13l-48 103q67 31 113 72t75 92t42 112.5t13 132.5q0 80 -20.5 152.5t-62.5 127 t-106 87t-151 32.5q-82 0 -145 -30.5t-106.5 -82t-66 -120.5t-22.5 -146q0 -26 21 -49t52.5 -46t68 -47.5t68 -55t52.5 -68t21 -86.5q0 -39 -15.5 -72.5t-41.5 -58.5t-60.5 -39t-72.5 -14q-61 0 -112 30.5t-79 84.5l99 53q14 -24 38 -40t52 -16q15 0 29 5.5t25 15.5t18 23.5 t7 28.5q0 20 -6.5 34.5t-17.5 26.5t-24.5 21.5t-28.5 19.5q-31 21 -68 46t-68.5 56t-52.5 67.5t-21 79.5z" />
<glyph unicode="&#x1076;" horiz-adv-x="1115" d="M108 844q0 31 10 58t27 49.5t40 41t48 31.5l52 -94q-26 -12 -46 -34.5t-20 -53.5q0 -33 24.5 -55t56.5 -22q29 4 54.5 25t48.5 50t43 62t38.5 60.5t35 45.5t30.5 18q113 0 198.5 -40.5t144 -110t88 -163t29.5 -199.5q0 -105 -30 -198.5t-88 -163.5t-144 -111t-198 -41 q-80 0 -150 24t-127 68t-98 106t-62 138q27 47 69 81t92.5 56t105 32.5t105.5 10.5q56 0 110.5 -11t104 -34t92 -57.5t75.5 -82.5q17 45 24.5 91t7.5 91q0 72 -18.5 142t-56 126t-95.5 93.5t-137 44.5q-26 -36 -56 -81t-66 -84.5t-78.5 -66.5t-93.5 -27q-39 0 -73.5 14.5 t-60.5 39t-41 58.5t-15 73zM236 317q40 -102 122.5 -157t191.5 -55q76 0 144.5 29t116.5 90q-22 48 -56.5 83t-77.5 58t-92 34t-100 11q-68 0 -134.5 -21t-114.5 -72z" />
<glyph unicode="&#x1077;" horiz-adv-x="1128" d="M106 514q0 105 29.5 198t87.5 162.5t143.5 110t197.5 40.5t197.5 -40.5t143.5 -110t87.5 -162.5t29.5 -198q0 -73 -15.5 -151.5t-49 -149t-86 -127t-125.5 -85.5q-9 -4 -23 -4q-38 0 -61 23.5t-35.5 57.5t-16.5 72t-4 67q0 5 1 7q0 69 22 121.5t61 89.5t93.5 59t120.5 29 q-1 79 -22 149.5t-63 124t-105.5 85t-149.5 31.5t-150 -31.5t-106 -85.5t-63 -125t-22 -150v-11.5t1 -11.5l216 -165q33 -25 49.5 -66t16.5 -82q0 -40 -15.5 -74.5t-42.5 -59.5t-62.5 -39t-74.5 -14q-57 2 -108 32.5t-77 81.5l101 53q14 -24 38 -39.5t52 -15.5q15 0 29 5.5 t25 15.5t17.5 23.5t6.5 28.5q0 14 -7 34t-18 29l-260 194q-2 19 -3 37t-1 37zM706 230q0 -12 0.5 -23.5t2.5 -23.5q2 -17 6.5 -33t10.5 -32q41 23 70.5 57t50 74.5t33 84.5t19.5 88q-40 -6 -75 -20.5t-60.5 -38t-41 -56.5t-16.5 -77z" />
<glyph unicode="&#x1078;" horiz-adv-x="1930" d="M107 511q0 105 29.5 198t87.5 162t143.5 109.5t196.5 40.5q66 0 126 -16.5t111.5 -48.5t93 -78.5t69.5 -106.5q57 121 162.5 186t239.5 65q111 0 196.5 -40.5t143.5 -110.5t87.5 -162.5t29.5 -197.5t-29.5 -198t-87 -162.5t-143 -110.5t-197.5 -41t-197.5 41t-143.5 111 t-87.5 163t-29.5 197q0 81 -20 154.5t-62 129t-107 88t-155 32.5q-88 0 -153.5 -32.5t-108.5 -88t-64 -129t-21 -154.5t21 -154.5t63.5 -129.5t108 -89t154.5 -33q32 0 64 5t63 13l22 -103q-37 -8 -74 -14t-75 -6q-111 0 -196.5 41t-143.5 110.5t-87.5 162.5t-29.5 197z M1019 548q0 -86 17 -166.5t57 -142t107 -98.5t166 -37q89 0 154.5 33.5t108 89.5t63.5 129.5t21 154.5t-21 154.5t-64 129t-108 88.5t-154 33q-78 0 -142 -29.5t-109.5 -79.5t-70.5 -117t-25 -142z" />
<glyph unicode="&#x1079;" horiz-adv-x="2526" />
<glyph unicode="&#x107a;" horiz-adv-x="1923" d="M107 512q0 105 30 198.5t88 163t143.5 110.5t197.5 41q142 0 248.5 -68t163.5 -197q15 -34 25.5 -69t10.5 -73q0 -27 -1.5 -54t-1.5 -54q0 -80 21.5 -152.5t64.5 -127t108.5 -87t152.5 -32.5q88 0 152.5 32.5t107 88t63.5 128.5t21 153q0 81 -21 154t-63.5 128.5 t-107 88.5t-152.5 33q-32 0 -63.5 -5t-62.5 -12l-22 108q36 8 73 13.5t75 5.5q111 0 197 -41t144 -111t88 -163.5t30 -198.5t-30 -198t-88 -163t-143.5 -110.5t-197.5 -40.5q-103 0 -192 38.5t-152 120.5v-755q0 -46 45 -46h321v-106h-376q-20 0 -38.5 7.5t-32 21 t-21.5 31.5t-8 39v1279q0 10 -3 23t-7.5 26t-10 25t-9.5 21q-46 94 -124 143.5t-184 49.5q-89 0 -154.5 -33t-109 -89t-64.5 -129.5t-21 -155.5q0 -81 20.5 -154t63.5 -128.5t108 -88t153 -33.5q13 0 29 3.5t30 8.5l33 -105q-21 -8 -43 -12.5t-45 -4.5q-112 0 -197.5 41 t-143.5 111t-88 163.5t-30 198.5z" />
<glyph unicode="&#x107b;" horiz-adv-x="1935" d="M107 512q0 105 30 198.5t88 163t143.5 110t197.5 40.5q67 0 127.5 -16.5t112.5 -48.5t93.5 -78.5t69.5 -107.5q29 60 70 106.5t93 78.5t112.5 48.5t126.5 16.5q111 0 196.5 -40.5t143.5 -110t88 -162.5t30 -198q0 -104 -30 -197t-88 -163t-143.5 -111t-196.5 -41 q-51 0 -101 9t-95 35q-5 20 -7.5 40t-2.5 40q0 78 35 139.5t91.5 103.5t127 64t141.5 22q38 0 77 -6.5t75 -17.5q4 20 5 41t1 42q0 81 -21 154.5t-64 129.5t-108.5 89t-153.5 33q-90 0 -155 -33t-107.5 -88.5t-63 -129t-20.5 -155.5q0 -104 -30 -197.5t-88 -163.5 t-143.5 -111t-197.5 -41t-197.5 41t-143.5 111t-88 163t-30 198zM217 512q0 -81 21 -155t64 -130.5t109 -89.5t155 -33q97 0 163 36.5t107 97t59 139t18 161.5q0 78 -23.5 147t-68 121t-109 82.5t-146.5 30.5q-89 0 -154.5 -33t-109 -89t-64.5 -130t-21 -155zM1275 117 q47 -12 96 -12q112 0 194 58.5t121 161.5q-30 11 -62 16.5t-64 5.5q-52 0 -102.5 -14.5t-91 -43t-65.5 -71.5t-26 -101z" />
<glyph unicode="&#x107c;" horiz-adv-x="2037" d="M108 692q25 78 65 139.5t94 105t123 66.5t153 23q101 0 181 -33.5t138.5 -92.5t93.5 -140.5t44 -177.5h36q9 96 44 177.5t93 140.5t138.5 92.5t180.5 33.5q83 0 152.5 -23t125 -66.5t96 -105t63.5 -139.5l-107 -28q-36 119 -119.5 188t-210.5 69q-77 0 -137.5 -26 t-104 -71.5t-69 -108t-33.5 -135.5q46 0 110 -1.5t135.5 -7.5t145 -16.5t139.5 -29.5t118.5 -47.5t80.5 -68.5q15 -21 25 -43t10 -48q0 -20 -5 -38t-13 -35q-27 -59 -69 -104.5t-95 -77t-113.5 -48t-124.5 -16.5q-105 0 -187.5 36.5t-141 100t-91.5 150t-40 186.5h-31 q-6 -100 -38.5 -186.5t-90.5 -150t-141 -100t-188 -36.5q-63 0 -124 16t-114 47.5t-95 77.5t-69 105q-8 17 -12.5 35t-4.5 38q0 45 24.5 76.5t58.5 57.5q39 30 91 51t112 35t124.5 22.5t127 12.5t121 5.5t106.5 1.5q-8 74 -34.5 136t-70 108t-104 71.5t-137.5 25.5 q-62 0 -114.5 -18.5t-94.5 -52.5t-72.5 -82t-48.5 -106zM235 316q0 -15 7 -26q48 -91 123 -138t178 -47q83 0 146 29t106.5 79t67.5 117.5t29 144.5q-40 0 -95.5 -1t-117.5 -5t-126.5 -12.5t-123 -23t-106 -36t-75.5 -52.5q-12 -13 -13 -29zM1145 475q5 -77 28.5 -144.5 t67 -117.5t106.5 -79t145 -29q100 0 176.5 46t122.5 134q5 7 8 17q2 10 2 15q0 13 -10 25q-29 32 -76.5 54.5t-105.5 37t-122 23t-126 12.5t-118.5 5t-97.5 1z" />
<glyph unicode="&#x107d;" horiz-adv-x="1895" d="M106 512q0 38 3.5 80.5t13 84.5t26 81t42.5 70q10 13 25 13q19 0 42.5 -17.5t51 -38.5t58.5 -38.5t65 -17.5q22 0 42 7.5t35 20.5t23.5 31.5t8.5 40.5q0 26 -10 44t-26 29.5t-37 17t-44 5.5q-17 0 -33 -2.5t-32 -10.5l-12 105q21 3 42.5 6.5t44.5 3.5q44 0 83.5 -13.5 t69 -39.5t47 -62.5t17.5 -83.5q0 -45 -18 -82.5t-48 -64.5t-69.5 -42t-82.5 -15q-52 0 -99.5 21.5t-87.5 52.5q-17 -45 -23.5 -91.5t-6.5 -94.5q0 -81 21 -155t64 -130.5t108.5 -89.5t154.5 -33q118 0 204 54.5t149 153.5q-17 49 -24 99.5t-7 101.5q0 105 30 198.5t88 163.5 t143.5 110.5t197.5 40.5q87 0 157.5 -24t125 -68.5t94 -109t64.5 -145.5l-107 -29q-19 63 -48 113t-69.5 85t-94 54t-122.5 19q-87 0 -152.5 -33t-109 -89t-65.5 -129t-22 -154q0 -27 3 -53.5t8 -53.5q81 66 181.5 97.5t203.5 31.5q50 0 100.5 -9t98 -27.5t88 -48.5 t70.5 -72q10 -14 16 -29t6 -33q0 -20 -8 -42q-24 -64 -67 -115.5t-98.5 -87.5t-120 -55.5t-132.5 -19.5q-118 0 -215.5 50.5t-160.5 150.5q-159 -201 -412 -201q-110 1 -194.5 42.5t-141.5 111.5t-86.5 162.5t-29.5 196.5zM1043 295q44 -94 122.5 -142t180.5 -48 q111 0 190.5 58.5t122.5 157.5q-51 58 -120.5 85.5t-145.5 27.5q-97 0 -189 -36.5t-161 -102.5z" />
<glyph unicode="&#x107e;" horiz-adv-x="1893" d="M106 512q0 36 4 79t14 86t26 82.5t41 68.5q11 13 25 13q11 0 21 -6q19 -9 40.5 -25.5t45.5 -34t50 -30.5t54 -15q10 -1 19 0t18 3q33 8 55.5 33.5t22.5 62.5q0 47 -31 70.5t-75 23.5q-19 0 -38 -3t-38 -8l-12 105q21 3 42.5 6.5t44.5 3.5q10 0 20 -0.5t20 -2.5 q37 -5 69.5 -21t56.5 -41.5t37.5 -59t13.5 -74.5q0 -45 -18 -82.5t-48 -64.5t-69.5 -42t-82.5 -15q-52 0 -99.5 21.5t-87.5 52.5q-17 -45 -23.5 -91.5t-6.5 -94.5q0 -81 21 -155t64 -130.5t108.5 -89.5t154.5 -33q118 0 204 54.5t149 153.5q-17 49 -24 99.5t-7 101.5 q0 105 30 198.5t88 163.5t143.5 110.5t197.5 40.5q5 0 8 -1q85 -1 154 -25t123 -69t92.5 -108.5t63.5 -143.5l-107 -29q-19 62 -48 112.5t-69.5 85.5t-94 54t-122.5 19q-89 0 -154.5 -33t-108.5 -89t-64 -130t-21 -156q0 -55 10 -104q78 63 174 96.5t197 33.5 q45 0 98.5 -9.5t104.5 -28.5t94.5 -48t70.5 -68q2 -2 3 -4q9 -14 15.5 -29t6.5 -33q0 -20 -8 -42q-25 -68 -68 -119.5t-98.5 -86.5t-120.5 -53t-134 -18q-31 0 -61.5 3t-61.5 11l-136 -596q-7 -29 -16.5 -58t-25 -51.5t-40 -36.5t-60.5 -14q-35 10 -74.5 21.5t-80 22.5 t-80.5 22.5t-75 21.5l34 106l272 -81q16 2 21 17.5t8 27.5l148 641q-90 52 -145 143q-157 -201 -413 -201q-110 2 -194 43t-141 111t-86.5 162.5t-29.5 196.5zM1043 295q43 -94 122 -142t181 -48q109 0 190 58t123 158q-26 30 -59.5 51.5t-70.5 35t-76.5 19.5t-78.5 6 q-96 -1 -179.5 -36.5t-151.5 -101.5z" />
<glyph unicode="&#x107f;" horiz-adv-x="1148" d="M107 532q0 76 15 149.5t47.5 138t83.5 117t122 86.5q47 -22 80.5 -56.5t54.5 -77t31 -90.5t10 -98q0 -73 -24.5 -134t-66 -107t-96.5 -74.5t-116 -37.5q38 -115 121.5 -178t204.5 -63q92 0 159 35t110.5 94t64.5 136t21 160q0 62 -10.5 120.5t-34.5 109.5t-63.5 93 t-97.5 72l51 97q72 -36 123 -88.5t83.5 -116t47 -136.5t14.5 -151q0 -107 -30 -203.5t-88.5 -169.5t-146 -116t-203.5 -43q-115 0 -202.5 43t-146.5 116t-88.5 169.5t-29.5 203.5zM218 531q0 -44 6 -88q63 9 107.5 38.5t72 71t39 90.5t7 96.5t-23 89t-50.5 68.5 q-43 -30 -73.5 -72t-49 -90.5t-27 -101t-8.5 -102.5z" />
<glyph unicode="&#x1080;" horiz-adv-x="1913" d="M107 685q21 76 61 138t95 106.5t124 69t149 25.5q13 0 25.5 -0.5t24.5 -0.5q105 -8 183 -53t130 -114.5t78 -158.5t26 -185q0 -81 21 -154.5t63.5 -130t108 -89.5t153.5 -33q89 0 154.5 33t108 88.5t63.5 129.5t21 155q0 76 -18 145.5t-55.5 124t-94.5 90.5t-134 45 q-12 1 -25 1.5t-27 0.5q-34 -1 -67 -7t-66 -14l-22 103q32 8 64.5 14t65.5 8q11 0 20.5 0.5t20.5 0.5q109 -1 193 -42.5t141 -111.5t86.5 -162t29.5 -196q0 -105 -30 -197.5t-88 -162.5t-144 -110.5t-197 -40.5q-67 0 -127.5 16.5t-112 48.5t-92.5 79t-70 108 q-28 -60 -70 -107.5t-93.5 -79.5t-112.5 -49t-127 -17q-84 0 -151 21.5t-120 62.5t-92.5 101t-67.5 136q-5 12 -5 23q0 1 2 5q2 6 2 9q8 7 16.5 14t16.5 13q37 29 82.5 50t95 35t99.5 21t95 7q100 0 192 -36t158 -113q14 39 19.5 80.5t5.5 83.5q0 82 -21 155.5t-64 129.5 t-108.5 89t-154.5 33q-64 0 -117.5 -18.5t-95.5 -53t-72 -83.5t-47 -109zM231 312q19 -50 50.5 -89t72 -65.5t89 -40t101.5 -13.5q85 0 156 34t120 105q-52 78 -131 113.5t-170 35.5q-76 0 -149.5 -20t-138.5 -60z" />
<glyph unicode="&#x1081;" horiz-adv-x="1130" d="M-17 -682l41 106q42 -18 83 -36t86 -25q10 19 15 42l145 622q-66 33 -113 85t-77 115t-44 133.5t-14 140.5q0 106 29 201t87 166.5t143.5 113.5t199.5 42t200 -42t143.5 -113.5t87 -166.5t29.5 -201q0 -79 -16 -152.5t-50 -136.5t-87 -114t-127 -86l-49 104 q58 27 98.5 67.5t65.5 91t36 108.5t11 118q0 81 -20 155t-62 130.5t-106.5 90.5t-153.5 34q-117 0 -198 -63.5t-117 -172.5q72 -2 127 -30t92 -74t55.5 -107t18.5 -129t-19 -129q-4 -13 -9.5 -24.5t-8.5 -23.5l-174 -744q-3 -13 -6.5 -26t-6.5 -25q-6 -23 -15.5 -44 t-24 -36.5t-34.5 -25t-47 -9.5q-24 0 -52 7.5t-56.5 18t-55.5 23t-50 21.5zM223 510q0 -6 1 -12q0 -47 7.5 -95.5t25 -94t44.5 -85t66 -68.5q11 10 21 22t15 27h1q13 26 20 53t10 56v29q0 47 -14.5 87.5t-41 70.5t-64.5 47t-87 18q-2 -11 -2.5 -21.5t-1.5 -21.5v-12z" />
<glyph unicode="&#x1082;" d="M-857 -408q0 81 25.5 149t72.5 116.5t113.5 75.5t148.5 27h51v-102h-51q-61 0 -108 -19.5t-79.5 -54.5t-49 -84t-16.5 -108t16.5 -107.5t49 -83.5t79.5 -54.5t108 -19.5q69 0 117 22.5t78 61.5t43.5 91.5t13.5 112.5l108 -23q0 -81 -25.5 -148.5t-72.5 -116t-113.5 -75.5 t-148.5 -27t-148.5 27t-113.5 76t-72.5 116t-25.5 148z" />
<glyph unicode="&#x1083;" horiz-adv-x="348" d="M-45 892v110h204q42 0 60 -21t18 -54v-1524q0 -47 46 -47h193v-110h-194q-38 0 -68 12.5t-50.5 33.5t-31.5 49.5t-11 61.5v1489h-166z" />
<glyph unicode="&#x1084;" horiz-adv-x="1099" d="M107 339l326 168v6l-326 172q20 78 60.5 141t97.5 107t127.5 67.5t151.5 23.5q93 0 166 -27t128 -76t93 -118.5t61 -154.5l-106 -29q-18 67 -45.5 122t-68.5 94.5t-97 61.5t-131 22q-99 0 -179 -46t-124 -137l309 -164v-125l-308 -158q44 -91 123 -138t179 -47 q75 0 131 22t96.5 62t68 95.5t45.5 122.5l106 -30q-23 -84 -61 -153.5t-93 -119t-128 -77t-165 -27.5q-81 0 -152 23.5t-127.5 68t-97 107.5t-60.5 141z" />
<glyph unicode="&#x1085;" d="M-844 1269q0 36 12 60t32 41t45.5 30.5t51.5 27.5q-26 14 -50.5 29.5t-44 35t-31.5 44t-12 57.5q0 59 30 97.5t75.5 61t99 31.5t100.5 9q55 0 109.5 -11t98 -37t70 -69.5t26.5 -108.5h-107q0 41 -19 65.5t-48 37t-63.5 16.5t-66.5 4q-22 0 -55.5 -2.5t-64.5 -12.5 t-53.5 -28.5t-22.5 -51.5q0 -17 13 -33t33 -30.5t45.5 -26.5t51 -21.5t48 -15.5t36.5 -9v-60q-20 -4 -58.5 -16t-77 -29.5t-67 -39.5t-28.5 -47q0 -34 22 -54t52.5 -30.5t64.5 -13t58 -2.5q36 0 71.5 3t64 15t46.5 36.5t18 67.5l107 -1q0 -69 -26 -112t-68.5 -68t-97 -34 t-112.5 -9q-45 0 -88.5 4.5t-82.5 19t-71 41.5t-52 73q-6 15 -10 32t-4 34z" />
<glyph unicode="&#x1086;" d="M-718 1580q0 49 15.5 89t43.5 68.5t67.5 44.5t88.5 16t88.5 -16t67.5 -44.5t43 -69t15 -88.5q0 -106 -22.5 -184.5t-67 -140.5t-111 -113t-153.5 -102l-39 67q85 47 149.5 111t98.5 157q-19 -7 -38 -10t-37 -3q-43 0 -81 16t-66.5 44.5t-45 68.5t-16.5 89zM-619 1580 q0 -56 29 -88.5t86 -32.5t85 33.5t28 88.5q0 54 -28.5 86.5t-84.5 32.5q-57 0 -86 -32t-29 -88z" />
<glyph unicode="&#x1087;" horiz-adv-x="546" d="M106 211q0 38 12 70t33.5 54.5t52.5 35t69 12.5t69 -12.5t52.5 -35.5t33.5 -54.5t12 -69.5q0 -153 -64.5 -267.5t-198.5 -189.5l-25 44q72 41 117.5 107.5t61.5 144.5q-31 -12 -62 -12q-33 0 -62.5 12.5t-52 35.5t-35.5 54.5t-13 70.5zM197 211q0 -36 19 -57.5t56 -21.5 q32 0 52.5 18.5t22.5 50.5q0 38 -16 63.5t-59 25.5q-36 0 -55.5 -22t-19.5 -57z" />
<glyph unicode="&#x1088;" horiz-adv-x="546" d="M106 211q0 38 12 70t33.5 54.5t52.5 35t69 12.5t69 -12.5t52.5 -35.5t33.5 -54.5t12 -69.5q0 -153 -64.5 -267.5t-198.5 -189.5l-25 44q72 41 117.5 107.5t61.5 144.5q-31 -12 -62 -12q-33 0 -62.5 12.5t-52 35.5t-35.5 54.5t-13 70.5zM106 828q0 38 12 70t33.5 54.5 t52.5 35t69 12.5t69 -12.5t52.5 -35.5t33.5 -54.5t12 -69.5q0 -77 -45 -124.5t-122 -47.5q-38 0 -69 12.5t-52.5 35t-33.5 54.5t-12 70zM197 211q0 -36 19 -57.5t56 -21.5q32 0 52.5 18.5t22.5 50.5q0 38 -16 63.5t-59 25.5q-36 0 -55.5 -22t-19.5 -57zM197 828 q0 -36 19 -57.5t56 -21.5t56 22t19 57q0 36 -19 58t-56 22t-56 -22t-19 -58z" />
<glyph unicode="&#x1089;" horiz-adv-x="513" d="M89 189q0 38 12 69t34 54t53 35.5t69 12.5t69 -13t52.5 -35.5t33.5 -54t12 -68.5t-11.5 -69t-33.5 -54.5t-53 -35.5t-69 -13t-69 13t-53 35.5t-34 54.5t-12 69zM183 189q0 -35 18.5 -56.5t55.5 -21.5t55.5 21.5t18.5 56.5t-19 56.5t-55 21.5q-37 0 -55.5 -21.5 t-18.5 -56.5z" />
<glyph unicode="&#x108a;" horiz-adv-x="682" d="M106 207q0 35 10 66t30.5 54.5t51.5 37t73 13.5q35 0 64 -12t49 -33.5t31.5 -50.5t12.5 -63q1 -13 0.5 -21.5t-3.5 -20.5q22 11 42.5 30t37 44.5t27 56.5t11.5 66l65 2q-3 -72 -28 -134t-69 -107.5t-105 -72t-135 -26.5q-40 0 -71 13.5t-52 37t-31.5 54.5t-10.5 66z M106 837q0 35 10 66t30.5 54.5t51.5 37t73 13.5q35 0 64 -12t49 -33.5t31.5 -50.5t12.5 -63q1 -13 0.5 -21.5t-3.5 -20.5q22 11 42.5 30.5t37 45.5t27 57t11.5 66l65 2q-3 -72 -28 -134.5t-69 -108.5t-105 -72.5t-135 -26.5q-40 0 -71 13.5t-52 37t-31.5 54.5t-10.5 66z M188 209q0 -42 20 -62.5t55 -22.5q4 -1 8 -1h9q36 1 52 26.5t16 59.5q0 38 -20 61.5t-59 23.5q-40 0 -60.5 -23t-20.5 -62zM188 839q0 -42 20 -62.5t55 -22.5q4 -1 8 -1h9q36 1 52 26.5t16 59.5q0 38 -20 61.5t-59 23.5q-40 0 -60.5 -23t-20.5 -62z" />
<glyph unicode="&#x108b;" horiz-adv-x="709" />
<glyph unicode="&#x108c;" horiz-adv-x="1339" />
<glyph unicode="&#x108d;" horiz-adv-x="682" />
<glyph unicode="&#x1090;" horiz-adv-x="1169" d="M109 711q0 81 7 165.5t26 165t52 152t86 125t127.5 85t175.5 31.5t175.5 -31.5t127.5 -85t86.5 -125t52.5 -152t26 -165.5t7 -165t-7 -165t-26 -165.5t-53 -152t-86.5 -125.5t-127 -85.5t-175.5 -31.5t-175.5 31.5t-127.5 85t-86 125t-52 152t-26 166t-7 165.5zM225 711 q0 -61 4 -130.5t17 -137.5t36.5 -130.5t63.5 -110t98 -76t139 -28.5t139 28.5t97.5 76t63.5 110.5t37 131t17 137t4 130t-4 130.5t-17 137.5t-36.5 130t-63.5 109.5t-98 76t-139 28.5t-139 -28t-98 -75.5t-63.5 -110t-36.5 -130.5t-17 -137.5t-4 -130.5z" />
<glyph unicode="&#x1091;" horiz-adv-x="759" d="M62 1194v121l307 132l70 -53l1 -1264l268 128v-123l-269 -131l-114 -4l-1 1306z" />
<glyph unicode="&#x1092;" horiz-adv-x="1226" d="M27 1078l95 64l94 -139q-9 99 23 182.5t92.5 144t145 95t180.5 34.5q98 0 183.5 -35.5t148.5 -97.5t99 -146.5t36 -183.5q0 -90 -23 -162.5t-60 -131t-84.5 -106.5t-97.5 -89t-97.5 -77.5t-84.5 -73.5t-60 -75.5t-23 -83.5q0 -42 16.5 -81.5t39.5 -73.5l-95 -61 q-33 49 -56.5 104t-23.5 115q0 56 23 103.5t60.5 90t85.5 82t98 81t98 86.5t85.5 98t60.5 115.5t23 139.5q0 75 -26.5 139.5t-73.5 112.5t-111.5 75t-140.5 27q-73 0 -134.5 -23.5t-106.5 -66.5t-70.5 -103.5t-25.5 -134.5q0 -46 10.5 -91t28.5 -87l-129 -56z" />
<glyph unicode="&#x1093;" horiz-adv-x="1153" d="M101 0q0 158 21 296t62 262t100.5 236t136.5 219t170.5 212t201.5 213h164q-69 -67 -137 -136t-132 -141t-123 -148t-111 -158q29 11 60 15.5t63 4.5q109 0 186 -42.5t130 -113t84.5 -161.5t48.5 -188.5t22 -193.5t5 -176h-117q0 61 -3 141t-14.5 164.5t-34.5 166.5 t-63 147t-99.5 104.5t-144.5 39.5q-44 0 -82.5 -12t-70.5 -33.5t-57 -51t-43 -65.5q-17 -36 -32 -84t-26.5 -101.5t-20 -110t-14.5 -111.5t-9 -105t-3 -89h-118z" />
<glyph unicode="&#x1094;" horiz-adv-x="1388" d="M60 0l734 1436l145 -1l76 -1300l322 89v-116l-431 -118l-72 1269l-645 -1259h-129z" />
<glyph unicode="&#x1095;" horiz-adv-x="1172" d="M100 434q0 98 35 178t95.5 136.5t143 87.5t178.5 31h321v570h119v-570h119v-114h-119v-316q0 -220 -110.5 -328.5t-330.5 -108.5q-96 0 -178 31t-143 88t-95.5 137t-34.5 178zM220 434q0 -72 25.5 -131t69.5 -101t105 -65t131 -23q86 0 147 18.5t100 57.5t57 100.5 t18 146.5v316h-321q-70 0 -131 -22.5t-105.5 -64.5t-70 -101t-25.5 -131z" />
</font>
</defs>
</svg>
