<?xml version="1.0" standalone="no"?>
<!DOCTYPE svg PUBLIC "-//W3C//DTD SVG 1.1//EN" "http://www.w3.org/Graphics/SVG/1.1/DTD/svg11.dtd" >
<svg xmlns="http://www.w3.org/2000/svg" xmlns:xlink="http://www.w3.org/1999/xlink" version="1.1">
<metadata></metadata>
<defs>
<font id="a_j_kunheing_9regular" horiz-adv-x="0" >
<font-face units-per-em="2048" ascent="1638" descent="-410" />
<missing-glyph horiz-adv-x="508" />
<glyph unicode=" "  horiz-adv-x="508" />
<glyph unicode="&#x09;" horiz-adv-x="508" />
<glyph unicode="&#xa0;" horiz-adv-x="508" />
<glyph unicode="!" horiz-adv-x="719" d="M100 68q0 36 44 71t102 35q84 0 84 -51q0 -6 -4 -23q-23 -4 -67 -47t-58 -69q-101 32 -101 84zM274 459q35 78 146.5 399.5t152.5 431.5q19 49 107 49l119 -8q16 0 22 2q-112 -162 -276 -476t-187 -382z" />
<glyph unicode="&#x22;" horiz-adv-x="764" d="M109 1014q10 16 159 397q11 25 97 25t86 -21q0 -4 -42 -59.5t-126 -180t-101 -159.5q-2 -8 -37.5 -8t-35.5 6zM389 1014q10 14 160 397q10 25 97 25t87 -23q0 -2 -42 -56t-125 -179t-101 -162q-6 -8 -41 -8t-35 6z" />
<glyph unicode="#" horiz-adv-x="1599" d="M125 401.5q0 10.5 38 66.5t56 56h242l117 301h-306q-2 0 -2 10.5t38 66.5t59 56h262l108 281q0 2 2 2q13 0 50.5 -54t37.5 -79v-4l-55 -146h322l108 281q0 2 2 2q10 0 49 -54t39 -79v-4l-57 -146h297q2 0 2 -10t-38 -66.5t-58 -56.5h-254l-117 -301h317q2 0 2 -10 t-37.5 -66.5t-58.5 -56.5h-274l-144 -373l-2 -2q-12 0 -51 54.5t-38 68t1 15.5l92 237h-323l-143 -373l-2 -2q-13 0 -52 54.5t-38 68t1 15.5l93 237h-283q-2 0 -2 10.5zM604 524h322l114 301h-321z" />
<glyph unicode="$" horiz-adv-x="932" d="M92 371.5q0 72.5 38 129t101 56.5q15 0 23 -2q-45 -33 -45 -82t30.5 -93t92.5 -65l151 396q-151 135 -151 240.5t93 189.5t259 90l78 201q4 6 47 6t43 -15v-2l-76 -196q98 -19 135 -80q15 -23 15 -58.5t-21.5 -62.5t-62.5 -27h-13q0 76 -92 127l-114 -301l39 -26 q174 -121 174 -258.5t-132.5 -252t-324.5 -114.5h-8l-113 -291q-2 -6 -46 -6t-44 16l113 291q-84 19 -136.5 68t-52.5 121.5zM422 307q108 6 176 62.5t68 129t-76 128.5l-35 24zM487 1008.5q0 -66.5 64 -125.5l102 268h-16q-62 0 -106 -38t-44 -104.5z" />
<glyph unicode="%" horiz-adv-x="1372" d="M176 987q0 150 92 278t236 128q92 0 148.5 -70t125 -70t138 44t106.5 106q20 35 94 35t74 -41q0 -4 -8 -21q-64 -94 -174 -178l-680 -1198q-4 -10 -59.5 -10t-55.5 8v2l672 1178q-29 -9 -58 -9q-84 0 -135 52q2 -17 2 -54q0 -145 -91 -277t-238 -132q-95 0 -142 64.5 t-47 164.5zM326 995q0 -59 22.5 -94t66.5 -35t90 51.5t70.5 124t24.5 134.5q0 127 -86 127q-70 0 -129 -98.5t-59 -209.5zM692 221q0 150 92.5 278t235.5 128q98 0 145 -64.5t47 -163.5q0 -51 -12 -100q-31 -125 -116 -217t-191.5 -92t-153.5 64.5t-47 166.5zM842 219 q0 -119 84 -119q49 0 96 51.5t70.5 123t23.5 133.5q0 127 -86 127q-69 0 -128.5 -98.5t-59.5 -217.5z" />
<glyph unicode="&#x26;" horiz-adv-x="1616" d="M27 240q0 209 172 356t393 158q-74 37 -116 98t-42 131q0 125 90 220t212 137t241 42t197.5 -58t78.5 -139t-53 -133.5t-117 -52.5q-26 0 -39 11q93 51 93 147q0 121 -162 121t-274.5 -104.5t-112.5 -221.5q0 -86 53 -131t119 -49h41q55 0 55 -22q0 -17 -21.5 -36.5 t-41.5 -19.5l-91 15q-186 0 -317 -142.5t-131 -285.5q0 -113 73.5 -189t207.5 -76q219 0 350 117t131 244t-113 127q-35 0 -61.5 -43t-28.5 -76q-33 39 -33 89t56.5 101.5t146.5 79.5l309 95q207 61 234 124q6 -12 6 -38q0 -91 -61.5 -140t-143.5 -63q-293 -51 -389 -101 q45 13 70 13q71 0 111 -45t40 -109q0 -139 -117.5 -248.5t-266 -159t-253 -49.5t-181.5 14.5t-150.5 47.5t-118.5 95.5t-45 148.5z" />
<glyph unicode="'" horiz-adv-x="293" d="M193 934q124 186 157 401q2 27 88 27t86 -27v-4q-57 -133 -154.5 -269t-148.5 -136q-14 0 -28 8z" />
<glyph unicode="(" horiz-adv-x="1077" d="M102 199q0 198 101.5 411t263.5 384t372 294t414 158l-16 -55q-240 -60 -458 -238t-354 -425t-136 -496.5t194 -249.5q35 0 68 4l-14 -62q-86 -33 -203 -33t-174.5 88.5t-57.5 219.5z" />
<glyph unicode=")" horiz-adv-x="1176" d="M2 -106l16 55q369 94 658 439t289 716q0 254 -193 254q-39 0 -67 -4l14 61q86 33 202.5 33t174 -89t57.5 -218q0 -346 -270 -686q-176 -222 -411.5 -372.5t-469.5 -188.5z" />
<glyph unicode="*" horiz-adv-x="1335" d="M16 641l551 197l2 8l-430 201l142 151l340 -295l12 4l90 498h184l-209 -498l9 -4l518 297l49 -151l-551 -203l-2 -6l430 -197l-141 -154l-338 293l-15 -6l-88 -491h-186l209 491l-8 6l-518 -293z" />
<glyph unicode="+" horiz-adv-x="1479" d="M92 639q0 18 51.5 74.5t77.5 56.5l488 -16q112 280 157 422q6 24 84 52.5t98.5 28.5t20.5 -2v-2q-199 -438 -225 -499q463 4 590 10q2 0 2 -4q0 -19 -51.5 -74t-77.5 -55l-508 18q-58 -117 -116 -272.5t-75 -224.5q-6 -25 -85 -53.5t-99.5 -28.5t-20.5 2v2 q105 192 265 577q-385 0 -480.5 -7t-95.5 -5z" />
<glyph unicode="," horiz-adv-x="555" d="M172 -266q125 186 158 401q2 27 88 27t86 -27v-4q-58 -133 -155 -269t-148 -136q-15 0 -29 8z" />
<glyph unicode="-" horiz-adv-x="1004" d="M313 467q0 10 39 66.5t58 56.5h571q2 0 2 -10.5t-38 -66.5t-58 -56h-572q-2 0 -2 10z" />
<glyph unicode="." horiz-adv-x="555" d="M229 68q0 36 44 71t102 35q84 0 84 -51q0 -6 -4 -23q-23 -4 -67 -47t-58 -69q-101 32 -101 84z" />
<glyph unicode="/" horiz-adv-x="932" d="M143 -109l1139 1541q6 6 56.5 6t50.5 -15v-2l-1139 -1540q-4 -6 -55.5 -6t-51.5 14v2z" />
<glyph unicode="0" horiz-adv-x="1249" d="M51 438q0 267 146 529q157 282 397 395q133 61 278 61q195 0 292.5 -126t97.5 -326q0 -133 -41 -275q-86 -293 -299 -507t-490 -214q-190 0 -285.5 129t-95.5 334zM266 463q0 -184 65.5 -286.5t205 -102.5t267.5 148.5t195.5 356t67.5 377.5t-67.5 274.5t-205 104.5 t-263 -141t-195.5 -344t-70 -387z" />
<glyph unicode="1" horiz-adv-x="715" d="M49 0q66 147 389 1008l107 286l-291 -270h-72l359 426h258q-111 -256 -292 -777t-210 -673h-248z" />
<glyph unicode="2" horiz-adv-x="1163" d="M61 53q0 201 222 391q102 88 213 170q305 226 434 392q76 98 76 192t-52.5 147.5t-160 53.5t-210 -105.5t-102.5 -220.5q0 -33 8 -57q-47 -33 -89 -33t-67.5 30.5t-25.5 86.5q0 98 57.5 173t143.5 116q172 77 336 77q104 0 186 -23.5t142.5 -91t60.5 -173.5q0 -17 -4 -58 q-43 -270 -438 -473q-138 -69 -215.5 -110t-195.5 -123t-149 -140h19q78 0 185.5 -35.5t247.5 -58t198 -22.5q202 0 204 149h56q-4 -143 -92 -242.5t-240 -99.5t-252 76q-22 22 -84.5 63t-85.5 52q-59 30 -99 30t-60.5 -32.5t-22.5 -72.5t-21.5 -73t-52.5 -33q-70 0 -70 78z " />
<glyph unicode="3" horiz-adv-x="1229" d="M41 262q0 94 53 165t135 71q39 0 80 -21q-78 -112 -78 -216.5t78 -163t201 -58.5q158 0 269.5 110.5t111.5 254t-87 234.5t-218 91q-78 0 -160 -37q-12 -6 -29.5 -6t-31 17.5t-13.5 46t29 52t97.5 23.5t144.5 -34q153 38 254.5 152t101.5 255q0 94 -57.5 154.5t-178 60.5 t-210 -95t-89.5 -218q0 -39 13 -80q-27 -10 -58.5 -10t-61.5 36.5t-30 100.5q0 104 82 180q152 141 410 141q415 0 415 -284q0 -125 -111.5 -239t-305.5 -167q164 -26 250 -119.5t86 -222.5t-100.5 -240.5t-247 -167t-283.5 -55.5t-232.5 28t-162 97.5t-66.5 163.5z" />
<glyph unicode="4" horiz-adv-x="1407" d="M8 489q0 93 88 138l961 823h254q-150 -354 -316 -856q281 20 281 170q0 35 -19 59q23 17 56 17t60.5 -42t27.5 -85q0 -84 -74 -162q-102 -107 -305 -107q-35 0 -76 7q-94 -293 -133 -451h-244q49 111 185 477q-62 15 -162 43q-225 68 -309 68t-121 -29t-39 -63 q-2 -93 -60 -93q-22 0 -38.5 23t-16.5 63zM256 655q152 -8 273.5 -29.5t269.5 -27.5l280 752z" />
<glyph unicode="5" horiz-adv-x="1194" d="M29 313q0 97 56 174.5t144 77.5q52 0 93 -28q-93 -101 -93 -235t76 -195.5t195 -61.5q155 0 269 131t114 308.5t-110.5 280.5t-272.5 103q-43 0 -123 -20.5t-103.5 -20.5t-23.5 23q0 43 262 600h389q55 0 135 4l82 6q56 0 77.5 -12t21.5 -62.5t-46 -152.5l-57 -148h-41 l10 35q25 64 -2 117q-14 35 -90 61q-47 19 -254 19h-10h-164q-131 -281 -182 -404q129 41 240 41q229 0 370.5 -118.5t141.5 -294.5q0 -142 -62.5 -253.5t-165.5 -174.5q-209 -129 -452 -129q-179 0 -301.5 83t-122.5 246z" />
<glyph unicode="6" horiz-adv-x="1194" d="M63 388q0 185 61.5 370.5t166 342t262.5 258t310.5 101.5t247.5 -63.5t95 -192.5q0 -86 -43 -112.5t-76 -26.5q-59 0 -88 68q54 34 54 106t-45 106.5t-121 34.5q-160 0 -307.5 -160.5t-237.5 -416.5q160 131 395 131q178 0 279.5 -99.5t101.5 -261.5 q0 -276 -190.5 -430.5t-434 -154.5t-337 107.5t-93.5 292.5zM270 358q0 -131 59.5 -216t174.5 -85q170 0 283.5 149.5t113.5 328.5q0 137 -69.5 224t-196.5 87q-180 -8 -272.5 -147.5t-92.5 -340.5z" />
<glyph unicode="7" horiz-adv-x="1104" d="M104 1026q0 4 6.5 18.5t15.5 51.5t19 86q41 198 76 238t117 40l227 -10h518q31 0 31 -45t-38 -94t-153.5 -194.5t-185.5 -235.5q-207 -269 -286.5 -414t-79.5 -238q0 -41 20.5 -70.5t52 -29.5t52.5 6q-19 -82 -79.5 -120t-132 -38t-125 48.5t-53.5 138.5t60.5 203.5 t150 215t194.5 208t194 192.5q210 199 210 287q0 8 -4 28h-434q-104 0 -165.5 -29.5t-81 -71.5t-28.5 -84t-24.5 -71.5t-44.5 -28.5t-29 13z" />
<glyph unicode="8" horiz-adv-x="1202" d="M8 330.5q0 154.5 123 284.5t324 196q-150 100 -150 252q0 178 141.5 295t384.5 117q183 0 291.5 -81t108.5 -214q0 -250 -330 -373q205 -117 205 -320.5t-197.5 -356.5t-451.5 -153q-193 0 -321 99.5t-128 254zM211 313q0 -104 81 -172.5t226.5 -68.5t272.5 92t127 262 q0 123 -107 188q-78 48 -229 88q-371 -147 -371 -389zM483 1165q0 -92 93.5 -177t214.5 -114q290 111 299 297q0 95 -85 162.5t-203 67.5t-218.5 -72t-100.5 -164z" />
<glyph unicode="9" horiz-adv-x="1257" d="M41 219q0 68 41 123t111 55q38 0 75 -18q-41 -60 -41 -158t50.5 -140t131 -42t160.5 45q144 80 224.5 205t164.5 346q-161 -117 -356.5 -117t-316.5 116t-121 298q0 250 165 390t408 140q484 0 484 -444q0 -189 -75 -402t-190 -358q-227 -285 -587 -285q-328 0 -328 246z M377 961.5q0 -154.5 80 -256t207 -101.5t205.5 63.5t109.5 159t31 232.5t-72 233.5t-215 95t-244.5 -136.5t-101.5 -289.5z" />
<glyph unicode=":" horiz-adv-x="582" d="M229 68q0 36 44 71t102 35q84 0 84 -51q0 -6 -4 -23q-23 -4 -67 -47t-58 -69q-101 32 -101 84zM442 692q0 37 44 72t102 35q84 0 84 -51q0 -7 -4 -23q-23 -4 -67 -47t-58 -70q-101 33 -101 84z" />
<glyph unicode=";" horiz-adv-x="700" d="M172 -266q125 186 158 401q2 27 88 27t86 -27v-4q-58 -133 -155 -269t-148 -136q-15 0 -29 8zM498 657q0 37 44 72t101 35q84 0 84 -51q0 -6 -4 -23q-23 -4 -67 -47t-58 -70q-100 33 -100 84z" />
<glyph unicode="&#x3c;" horiz-adv-x="981" d="M53 583.5q0 22.5 62 57.5q424 240 821 541q2 2 6 2t4 -21.5t-31 -64.5q-57 -68 -288.5 -232t-372.5 -250q385 -274 487 -452q2 -4 2 -12q0 -29 -47 -69t-71 -40q-4 0 -7 2q-270 305 -514 481q-51 35 -51 57.5z" />
<glyph unicode="=" horiz-adv-x="1087" d="M197 379q0 10 34.5 59t55.5 49h653q2 0 2 -10t-36 -59t-54 -49h-653q-2 0 -2 10zM307 762q0 10 35 59t55 49h654q2 0 2 -10t-36 -59t-54 -49h-654q-2 0 -2 10z" />
<glyph unicode="&#x3e;" horiz-adv-x="981" d="M164 51q0 43 33 76q55 68 281.5 227.5t379.5 255.5q-141 99 -285.5 227t-201.5 226q-4 8 -4 12q0 29 48 69t72 40q5 0 7 -2q270 -305 514 -482q51 -34 51 -58t-62 -58q-434 -246 -821 -539q-4 -4 -8 -4t-4 10z" />
<glyph unicode="?" horiz-adv-x="1128" d="M174 68q0 36 44 71t101 35q84 0 84 -51q0 -6 -4 -23q-22 -4 -66 -47t-59 -69q-100 32 -100 84zM299 1114q0 92 82 156q143 112 369 112q385 0 385 -243q0 -142 -89.5 -213.5t-238.5 -132.5q-154 -68 -232 -115q-143 -92 -143 -197l2 -28q0 -25 -25.5 -42.5t-52.5 -17.5 q-47 0 -47 56q0 110 133 210l50 33q266 170 364 309q45 66 45 137.5t-48 123t-128 51.5q-57 0 -152 -51q-47 -27 -81.5 -80.5t-34.5 -105.5t14 -81q-29 -16 -66.5 -16t-71.5 37t-34 98z" />
<glyph unicode="@" horiz-adv-x="1878" d="M180 502q0 166 63.5 324.5t177.5 286.5t288 206t376 78q322 0 514.5 -172t192.5 -428q0 -207 -129 -408q-61 -94 -179 -157.5t-222.5 -63.5t-164 55.5t-59.5 169.5q0 70 25 162q-193 -305 -342 -305q-59 0 -101 51t-42 137q0 224 139 421.5t340 197.5q67 0 105 -32 t67 -116q35 70 64.5 94.5t97.5 24.5h114q-108 -86 -206.5 -325.5t-98.5 -350.5q0 -133 98 -133q146 0 248.5 181.5t102.5 375.5q0 242 -145.5 411t-411.5 169q-213 0 -388.5 -121t-269.5 -308.5t-94 -367.5t51 -301t137 -188q172 -136 403.5 -136t458 116t312.5 257 q6 12 14 12t8 -34q0 -90 -60 -165t-150.5 -120t-204.5 -78q-203 -55 -402 -55q-323 0 -525 156.5t-202 478.5zM760 522q0 -61 20.5 -96t50.5 -35q66 0 171.5 141.5t173.5 272.5l45 88q-7 41 -42.5 63.5t-82.5 22.5q-148 0 -242 -152.5t-94 -304.5z" />
<glyph unicode="A" horiz-adv-x="1536" d="M25 0q192 176 598 578q522 520 686 720q41 50 61.5 69t62.5 41t89 22h147q-94 -91 -191.5 -493t-97.5 -622q0 -155 58 -215q24 -26 61 -26t78 26l12 -18q-28 -41 -102 -70.5t-146 -29.5q-106 0 -145 75.5t-45 202.5q0 105 27 270h-469q-306 -323 -480 -530h-204z M461 1163q0 267 497 267h459q-51 -52 -178 -78.5t-286.5 -42t-209.5 -25.5q-219 -51 -219 -262q-63 65 -63 141zM799 633h393q37 203 119 508q-234 -219 -512 -508z" />
<glyph unicode="B" horiz-adv-x="1188" d="M-61 1133.5q0 11.5 2 15.5q77 213 284 260q94 21 252 21h404q186 0 281 -80t95 -201v-27q-22 -219 -274 -327q-59 -25 -121 -37q320 -60 320 -303q0 -207 -220.5 -348.5t-545.5 -141.5q-160 0 -266.5 50.5t-106.5 166.5q0 144 151.5 500t280.5 608q21 41 31 58l-74 -11 q-160 -22 -294 -75.5t-181 -133.5q-2 -6 -10 -6t-8 11.5zM262 171q0 -79 45 -102.5t150 -23.5q194 0 339.5 105.5t145.5 314.5q0 102 -50 176t-147 86q-127 -35 -245 -35q-35 0 -35 15q0 47 63.5 64t121 17t112.5 -8q133 41 207.5 147.5t74.5 221.5v27q-18 180 -284 192 q-96 -125 -254 -469t-201 -496.5t-43 -231.5z" />
<glyph unicode="C" horiz-adv-x="1393" d="M109 387q0 170 75.5 355.5t204.5 344t322.5 261t382 102.5t289 -64.5t100.5 -164.5q0 -37 -17 -82q-32 -84 -121.5 -141.5t-185.5 -57.5q-45 0 -73.5 19.5t-28.5 50t24 65.5q23 -8 52 -8q79 0 147 55.5t68 132.5q0 119 -158 119q-209 0 -407.5 -143.5t-320.5 -371.5 t-122 -464q0 -364 332 -364q207 0 438 159.5t307 346.5q39 -27 39 -72q0 -92 -131 -228.5t-329.5 -217t-405.5 -80.5q-481 0 -481 448z" />
<glyph unicode="D" horiz-adv-x="1454" d="M-41 1133.5q0 11.5 2 15.5q78 213 285 260q94 21 252 21h420q290 0 431.5 -158t141.5 -402q0 -59 -10 -137q-39 -241 -182.5 -419.5t-348.5 -266.5t-444 -88q-445 0 -445 227q0 246 435 1104q20 41 30 58q-161 -13 -329 -72t-220 -148q-2 -6 -10 -6t-8 11.5zM283 175 q0 -79 41 -103.5t145 -24.5q285 0 508 191.5t289 478.5q22 94 22 180q0 199 -117 330q-65 71 -178.5 105t-212.5 34q-98 -129 -234 -425t-220 -558q-43 -129 -43 -208z" />
<glyph unicode="E" horiz-adv-x="1167" d="M-41 1133.5q0 11.5 2 15.5q78 213 285 260q94 21 252 21h405l223 10q64 0 71 -25.5t7 -38.5q0 -71 -50 -181t-71.5 -110t-21.5 17l16 123q0 63 -51 100t-123 37t-106.5 -10.5t-55.5 -42.5q-149 -224 -272 -508h535l2 -2q0 -15 -29 -57t-47 -42h-506q-55 -135 -108.5 -303 t-53.5 -222t33 -79.5t111 -25.5q598 0 708 233q4 6 15.5 6t11.5 -12t-4 -33q-58 -178 -170 -225q-60 -25 -112 -32t-134 -7h-619q-63 0 -63 96q0 166 182 604h-112q-17 0 -17 11q0 20 39 55t64 35h69q189 452 273 551q-193 -25 -351.5 -82.5t-208.5 -141.5q-2 -6 -10 -6 t-8 11.5z" />
<glyph unicode="F" horiz-adv-x="778" d="M20 1133.5q0 11.5 3 15.5q77 213 284 260q94 21 252 21h406l223 10q63 0 70.5 -25.5t7.5 -38.5q0 -71 -50.5 -181t-72 -110t-21.5 17l17 123q0 61 -58.5 99t-130 38t-105.5 -10.5t-57 -42.5q-96 -138 -253 -508h454l2 -2q0 -15 -28.5 -57t-47.5 -42h-423 q-199 -483 -199 -655q0 -31 8 -45h-264q55 233 246 700h-113q-16 0 -16 11q0 20 38.5 55t63.5 35h70q174 411 268 551q-463 -66 -555 -224q-2 -6 -10.5 -6t-8.5 11.5z" />
<glyph unicode="G" horiz-adv-x="1516" d="M104 401q0 172 80 357.5t212 339t324.5 253t377 99.5t285 -64.5t100.5 -170t-100.5 -190.5t-223.5 -85q-45 0 -73.5 19.5t-28.5 50t24 65.5q23 -8 52 -8q79 0 147 55.5t68 132.5q0 119 -155 119t-308.5 -93t-268 -237.5t-187.5 -329t-73 -360.5t90.5 -260t239.5 -84 q215 0 405.5 132t223.5 339q-367 0 -441 -10q11 18 26 47t55 76t67 47h600q-14 -74 -49 -108.5t-94 -45.5q-209 -565 -817 -565q-269 0 -413.5 126t-144.5 353z" />
<glyph unicode="H" horiz-adv-x="1393" d="M90 1145q0 4 4 20q39 113 113 174.5t144.5 76t174.5 14.5h463q-139 -107 -371 -629h580q193 450 272 567q15 23 54 42.5t100 19.5h131q-102 -80 -256 -410q-276 -588 -276 -825q0 -121 75 -121q33 0 80 26h2q6 0 6 -12q0 -39 -103 -72.5t-167 -33.5q-125 0 -125 133 q0 174 166 585h-579q-68 -157 -135.5 -357t-67.5 -298q0 -31 8 -45h-264q57 248 241 688q246 586 318 666q-174 -4 -353.5 -70.5t-207.5 -159.5q-2 -6 -8 -6q-19 0 -19 27z" />
<glyph unicode="I" horiz-adv-x="573" d="M49 1145q0 4 4 20q39 113 113 174.5t144.5 76t174.5 14.5h463q-141 -109 -389 -672q-63 -144 -144 -376t-81 -339q0 -29 8 -43h-264q57 248 241 688q246 586 318 666q-174 -4 -353.5 -70.5t-207.5 -159.5q-2 -6 -8 -6q-19 0 -19 27z" />
<glyph unicode="J" horiz-adv-x="799" d="M-174 -150q0 44 22.5 91t71.5 53l-2 -12q0 -58 29.5 -85.5t72.5 -27.5q248 0 603 876q6 17 27.5 70t76.5 164t136 222.5t143 133.5q-60 17 -211.5 17t-339 -65.5t-217.5 -162.5q-5 -6 -9 -6q-18 0 -18 27q0 4 4 20q39 113 112.5 174.5t144.5 76t175 14.5h96l461 -3 q-121 -92 -168 -141t-98 -150.5t-96 -226.5t-76 -221t-56.5 -172t-69.5 -188.5t-86 -198.5t-101.5 -180t-120.5 -156q-137 -141 -293 -141q-96 0 -154.5 54t-58.5 144z" />
<glyph unicode="K" horiz-adv-x="1311" d="M80 1145q0 4 16.5 55t62.5 106.5t107 82.5q101 41 250 41h463q-102 -78 -241.5 -344.5t-227.5 -487.5q84 119 224 263.5t301 276.5t332 220t299 88t128 -29q0 -10 -10 -10q-131 0 -431 -188.5t-538 -403.5q68 -225 244 -475t307 -336q-31 -6 -98 -6l-174 6 q-58 0 -154 132t-171 294t-91 256q-117 -117 -197 -231q-32 -47 -76.5 -187.5t-44.5 -197t9 -70.5h-265q66 252 231 685t296 620q0 2 35 49q-174 -4 -353.5 -70.5t-208.5 -159.5q-2 -6 -8 -6q-16 0 -16 27z" />
<glyph unicode="L" horiz-adv-x="1167" d="M-20 1145q0 4 17 55t64.5 106.5t106.5 82.5q100 41 248 41h465q-84 -64 -216.5 -301.5t-258 -521t-125.5 -404.5q0 -133 145 -133q594 0 709 233q4 6 10 6q14 0 14 -20q0 -4 -4 -25q-57 -178 -168 -225q-59 -25 -111.5 -32t-134.5 -7h-620q-82 0 -82 115q0 293 489 1175 q37 60 39 64q-174 -4 -353 -70.5t-208 -159.5q-2 -6 -8 -6q-18 0 -18 27z" />
<glyph unicode="M" horiz-adv-x="1720" d="M78 0q117 299 334 788.5t264 581.5q-187 0 -364 -73.5t-208 -172.5q-2 -6 -8 -6q-16 0 -16 27q0 4 16.5 55t62.5 106.5t107 82.5q101 41 248 41h260q62 0 97.5 -20.5t50 -97.5t28 -354.5t13.5 -390t-5 -153.5q293 366 758 919q82 97 262 97h127q-92 -72 -278 -443 q-277 -557 -277 -801q0 -112 72 -112q33 0 80 26h2q6 0 6 -10q0 -39 -103.5 -73.5t-168.5 -34.5q-138 0 -138 149q0 260 418 1051q-82 -78 -110 -111q-197 -219 -586 -725q-82 -104 -112.5 -131t-81 -27t-115.5 31q51 66 51 398.5t-41 605.5q-74 -138 -266.5 -611 t-192.5 -594q0 -14 2 -18h-188z" />
<glyph unicode="N" horiz-adv-x="1311" d="M78 0q117 299 334 788.5t264 581.5q-187 0 -364 -73.5t-208 -172.5q-2 -6 -8 -6q-16 0 -16 27q0 4 16.5 55t62.5 106.5t107 82.5q101 41 248 41h346q-29 -48 -29 -115q0 -152 117 -426q107 -256 126.5 -326.5t24.5 -93.5t7 -53.5t4 -38.5q27 65 457 1053q4 10 37.5 10 t89 -6.5t63.5 -6.5q-82 -53 -230.5 -343.5t-264 -607t-115.5 -439.5q0 -27 4 -37h-129q-6 119 -42 208t-54.5 133t-63.5 146.5t-80 184.5q-106 248 -120 422q-136 -301 -267 -637t-131 -439q0 -14 2 -18h-188z" />
<glyph unicode="O" horiz-adv-x="1563" d="M129 383q0 203 85 398.5t224.5 342t329.5 236.5t389 90q260 0 390 -128t130 -319.5t-84 -381.5q-135 -308 -386 -497.5t-570 -189.5q-508 0 -508 449zM369 381q0 -162 71.5 -262.5t228 -100.5t314.5 94.5t270.5 241t183 325.5t70.5 343q0 334 -299 334 q-217 0 -414.5 -149.5t-311 -375t-113.5 -450.5z" />
<glyph unicode="P" horiz-adv-x="1004" d="M29 1145q0 4 4 20q39 113 112.5 174.5t144 76t175.5 14.5h518q186 0 281.5 -80t95.5 -201v-27q-12 -135 -86 -236.5t-189 -156.5q-219 -111 -507 -111q-52 0 -95 7q-170 -430 -170 -580q0 -31 9 -45h-265q58 248 242 688q246 586 317 666q-174 -4 -353 -70.5t-208 -159.5 q-2 -6 -8 -6q-18 0 -18 27zM496 657h24q148 0 294.5 51.5t240.5 157t94 250.5q0 234 -283 252q-135 -168 -327 -610z" />
<glyph unicode="Q" horiz-adv-x="1563" d="M170 383q0 203 85 398.5t224 342t329.5 236.5t389.5 90q262 0 391 -128t129 -319.5t-84 -381.5q-164 -371 -471 -553q17 -37 36.5 -124t35.5 -155t54 -122t86 -54t81 33q17 -33 17 -62q0 -67 -58.5 -112t-136.5 -45t-130 37.5t-75.5 108.5t-34 134.5t-17.5 155.5t-13 131 q-156 -60 -330 -60q-508 0 -508 449zM416 370.5q0 -159.5 70.5 -255t214 -95.5t284.5 70q-20 55 -57 84t-76 29l-55 -8q-19 0 -19 12q0 26 40 39.5t83 13.5q115 0 201 -96q198 149 322 392t124 466q0 334 -286 334q-160 0 -318 -92.5t-272.5 -235.5t-185 -320.5t-70.5 -337z " />
<glyph unicode="R" horiz-adv-x="1249" d="M8 1145q0 4 4 20q39 113 113 174.5t144.5 76t174.5 14.5h498q188 0 283.5 -79t95.5 -200t-72 -213q-127 -168 -391 -217l-65 -12q102 -357 430 -705q-31 -6 -95 -6l-157 6q-82 0 -173 161t-144.5 327.5t-53.5 222.5q0 30 29 33q481 59 495 376q0 113 -66.5 174.5 t-217.5 69.5q-160 -215 -355 -688q-192 -481 -192 -635q0 -31 8 -45h-264q57 248 242 688q245 586 317 666q-174 -4 -353.5 -70.5t-207.5 -159.5q-2 -6 -8 -6q-19 0 -19 27z" />
<glyph unicode="S" horiz-adv-x="1071" d="M106 213q0 72 47.5 131t134.5 59t118 -61q-72 -57 -72 -138t54 -125t142 -44q123 0 216.5 88t93.5 222t-176 321q-2 4 -72 76.5t-116 148.5t-46 180q0 178 139.5 286.5t328.5 108.5t271 -61.5t82 -148.5t-58 -161.5t-162.5 -74.5t-104.5 88q0 8 4 33q55 0 96 43t41 94 t-49 84t-119 33q-119 0 -196.5 -72t-77.5 -168q0 -51 36.5 -112.5t70.5 -97.5t111 -106.5t91 -84.5q156 -156 156 -339.5t-166 -319.5t-398 -136q-188 0 -304 61.5t-116 192.5z" />
<glyph unicode="T" horiz-adv-x="819" d="M0 1114q0 96 45 164t123 102q147 66 325.5 66t403.5 -21.5t409.5 -21.5t239.5 57q6 -14 6 -28q0 -68 -86 -108t-227 -40l-289 12q-20 0 -135 -244.5t-199 -474t-84 -331t65 -101.5t163 134q10 12 20.5 12t10.5 -18.5t-28 -67.5t-73 -105.5t-116.5 -100.5t-147.5 -44 q-113 0 -113 156q0 192 195 655q139 326 256 541h-27l-211 4q-176 0 -307 -45q-72 -25 -114 -73t-42 -116l17 -86q0 -20 -21 -20q-26 0 -42.5 52t-16.5 91z" />
<glyph unicode="U" horiz-adv-x="1454" d="M82 1145q0 4 17.5 55t64.5 106.5t106 82.5q101 41 248 41h465q-94 -72 -232.5 -332t-218.5 -459q-112 -260 -112 -392t104 -132q88 0 227.5 126t274.5 308q266 362 374.5 564t168 259.5t131.5 57.5h127q-96 -74 -281 -443q-276 -557 -276 -801q0 -112 71 -112q35 0 82 26 h2q7 0 7 -12q0 -39 -102.5 -71.5t-166.5 -32.5q-131 0 -131 151q0 76 53.5 243t135.5 345q-306 -455 -455 -588q-166 -149 -307 -149q-236 0 -236 227q0 168 124 478t284 599q37 60 39 64q-174 -4 -353.5 -70.5t-207.5 -159.5q-3 -6 -9 -6q-18 0 -18 27z" />
<glyph unicode="V" horiz-adv-x="922" d="M82 1208v2q24 76 113.5 161t152.5 85q101 0 133.5 -163t32.5 -473t-25 -593q162 228 392.5 629t306.5 574h184q-67 -111 -391 -606.5t-369 -566.5t-65.5 -102.5t-29.5 -47t-28.5 -40t-33.5 -36.5q-39 -31 -82 -31h-131q32 63 38.5 144t9.5 171.5t8 195.5t5 216 q0 543 -123 543q-43 0 -88 -72l-2 -2q-8 0 -8 12z" />
<glyph unicode="W" horiz-adv-x="2048" d="M20 1159q0 271 521 271h420q4 0 4 -7.5t-26 -36t-48 -43.5q-88 -53 -203 -221t-209 -398t-94 -412.5t129 -182.5q145 0 455 459q63 96 145 287.5t115 254t118 127t155.5 64.5t70.5 -21q-109 -147 -205 -399t-96 -481q0 -281 166 -291q106 0 209.5 102.5t174 236.5 t132.5 302q104 281 104 446.5t-108 165.5q-33 0 -74 -14q4 37 50 60.5t121 23.5t140.5 -52t71.5 -157v-33q0 -206 -125 -470.5t-307 -465.5q-98 -106 -230.5 -184t-267.5 -78q-254 0 -254 381q0 139 37 324q-166 -328 -317 -504q-193 -221 -404 -221q-96 0 -158.5 71.5 t-62.5 229.5q0 207 146.5 511t349.5 484q36 35 92 55q-78 -16 -240 -33.5t-215 -29.5q-219 -49 -219 -262q-64 65 -64 141z" />
<glyph unicode="X" horiz-adv-x="1147" d="M0 0q414 379 702 670l-137 534q-22 88 -98 88t-156 -80q-2 -2 -6 -2q-14 0 -14 17.5t6 23.5q70 68 169 122t169 54t100.5 -30.5t41.5 -64.5t36 -145.5t76 -328.5q262 268 493 533q33 34 129 34q21 0 57 -1t50 -1q-350 -301 -705 -659q121 -455 209 -670q33 -78 47 -94 h-288l-154 573q-270 -284 -506 -573h-221z" />
<glyph unicode="Y" horiz-adv-x="1401" d="M8 1122.5q0 16.5 2 18.5q72 145 152 213.5t202.5 68.5t178 -63.5t112 -255t111.5 -414.5q43 60 229.5 326t268.5 373q32 43 168 43q22 0 62 -1t54 -1q-192 -134 -381 -347q-233 -264 -372 -569q-78 -174 -115 -350q-16 -76 -16 -113t8 -51h-264q8 35 80.5 254t72.5 316.5 t-47 261t-126 300t-152 136.5q-93 0 -213 -160q-3 -2 -5 -2q-10 0 -10 16.5z" />
<glyph unicode="Z" horiz-adv-x="1399" d="M0 59q0 62 63 101q259 159 672.5 553.5t591.5 572.5q-74 -33 -182.5 -57.5t-175 -24.5t-201.5 13.5t-185.5 13.5t-110.5 -52.5t-66 -121.5q0 -13 -21 -13q-14 0 -14 41q0 84 64.5 181.5t125 133.5t157.5 36t261 -37t271.5 -37t187.5 38t131 38t69 -8 q-493 -431 -1243 -1168q58 -29 168 -51q279 -64 438 -64q256 0 256 148q0 39 -28 59q0 4 7 12.5t11 8.5q58 -2 102 -43t44 -99q0 -98 -101.5 -179t-248 -81t-287 51.5t-247 103.5t-152.5 52t-138 -101.5t-145 -101.5q-33 0 -53.5 24t-20.5 58z" />
<glyph unicode="[" horiz-adv-x="932" d="M27 -158q522 1544 546 1616h498l-33 -98h-313l-481 -1419h313l-33 -99h-497z" />
<glyph unicode="\" horiz-adv-x="932" d="M178 1421q-2 6 39 11.5t85 5.5t48 -6l520 -1541q2 -6 -39 -11t-86 -5t-47 6z" />
<glyph unicode="]" horiz-adv-x="932" d="M27 -158l32 99h314l481 1419h-313l32 98h498l-547 -1616h-497z" />
<glyph unicode="^" horiz-adv-x="1087" d="M332 943q0 3 2 5q241 197 442 414q27 31 40 31t34 -37q72 -154 229 -350v-2q0 -13 -29.5 -36.5t-50.5 -23.5q-41 0 -109.5 116t-115.5 220q-102 -102 -247.5 -221t-182.5 -119q-12 0 -12 3z" />
<glyph unicode="_" horiz-adv-x="1552" d="M-96 -327.5q0 10.5 38 66.5t58 56h1552q2 0 2 -10t-38.5 -66.5t-57.5 -56.5h-1552q-2 0 -2 10.5z" />
<glyph unicode="`" horiz-adv-x="1087" d="M670 1266q0 12 41 34.5t57 22.5t25 -4q36 -27 108 -78l117 -88q47 -35 61 -41q0 -6 -20.5 -15.5t-25.5 -9.5t-62 29l-146 72q-88 45 -121.5 59.5t-33.5 18.5z" />
<glyph unicode="a" horiz-adv-x="969" d="M57 182q0 144 62.5 291.5t179.5 250.5t256 103q66 0 123 -29.5t76 -95.5q22 48 69 82.5t88 34.5l103 -2h20q-67 -55 -165.5 -279.5t-98.5 -326.5q0 -53 37 -53q119 0 303 350q8 14 14 14q13 0 13 -38t-21 -72q-252 -424 -422 -424q-110 0 -110 170q0 127 43 250 q-234 -414 -432 -414q-138 0 -138 188zM256 227q0 -63 49 -63q53 0 125 66.5t129 156.5q127 201 182 297q-20 66 -96 66q-135 0 -262 -187.5t-127 -335.5z" />
<glyph unicode="b" horiz-adv-x="907" d="M49 126q0 79 25 179q63 270 212.5 636t235.5 388q27 6 97.5 7t85.5 3q-80 -59 -216.5 -348t-205.5 -555q221 391 417 391q140 0 140 -199.5t-168 -406.5q2 -35 20.5 -55.5t47 -20.5t62.5 26t51 45.5t46 56t68 99t66.5 107.5t31.5 45q12 0 12 -37.5t-12 -58.5l-45 -76 q-100 -166 -164 -221q-70 -63 -135 -63q-86 0 -115 79q-84 -84 -170 -125.5t-192.5 -41.5t-150.5 33.5t-44 112.5zM223 150.5q0 -97.5 60 -97.5q108 0 233 210t125 331q0 51 -31 59q-6 2 -31.5 2t-96 -53t-165 -203.5t-94.5 -248z" />
<glyph unicode="c" horiz-adv-x="733" d="M70 242q0 215 152.5 394t359.5 179q92 0 147 -48t55 -114.5t-36.5 -116t-83.5 -49.5q-93 0 -93 76q0 25 52 47q20 8 36.5 31t16.5 59q0 54 -58 54q-122 0 -243 -178.5t-121 -345.5t145 -167q203 0 396 314q39 61 64.5 104t29.5 43q12 0 12 -39t-33.5 -96t-53 -87 t-67 -95.5t-82 -94t-87.5 -67.5q-91 -65 -235 -65t-208.5 72.5t-64.5 189.5z" />
<glyph unicode="d" horiz-adv-x="975" d="M57 182q0 144 62.5 291.5t179.5 250.5t253 103t187 -90q58 113 118.5 260.5t79.5 191.5t28.5 64.5t23.5 38.5q23 29 54.5 36t102.5 8t85 3q-68 -49 -177.5 -275t-193.5 -477t-84 -364q0 -65 35 -65t87 45t74.5 75.5t60.5 93t65.5 108.5t31.5 46q15 0 15 -39 q-2 -71 -170 -299q-55 -73 -133 -136.5t-142 -63.5q-108 0 -108 162q0 118 59 305q-94 -187 -215 -324t-241 -137q-138 0 -138 188zM256 227q0 -63 49 -63q166 0 424 549q-24 37 -82 37q-92 0 -185 -93.5t-149.5 -215.5t-56.5 -214z" />
<glyph unicode="e" horiz-adv-x="733" d="M70 250q0 209 153.5 387t358.5 178q92 0 147 -48t55 -116q0 -114 -108.5 -184t-255.5 -70q-86 0 -127 23q-39 -105 -39 -184q0 -173 145 -173q86 0 177.5 67t156 149.5t146.5 238.5q8 14 14 14q12 0 12 -39.5t-32.5 -95t-64.5 -104.5t-85 -114.5t-105 -104.5 q-129 -94 -259 -94t-209.5 66.5t-79.5 203.5zM342 496q0 -41 78 -41t163 75.5t93 163.5q0 60 -58 60q-79 0 -177.5 -98.5t-98.5 -159.5z" />
<glyph unicode="f" horiz-adv-x="694" d="M-354 -355.5q0 58.5 26.5 97.5t59 39t49 -15.5t16.5 -33t-21.5 -55t-21.5 -64.5t14.5 -45.5t51.5 -18.5t87 36t97 104q176 260 465 1018h-57q-105 0 -140 -66q-153 -293 -170 -293q-10 0 -10 34t12 58q101 172 152 328q8 27 18.5 36t34.5 9h17l180 -14q12 30 42 112 t46 125t49 117t59.5 117t69.5 97t86 83q105 70 225 70q213 0 213 -158q0 -59 -33.5 -106.5t-88.5 -47.5q-27 0 -46.5 14.5t-19.5 34t30.5 63.5t30.5 75.5t-25.5 52t-60.5 20.5q-61 0 -122.5 -65.5t-112.5 -171.5q-90 -187 -162 -397q-2 -11 -4 -15q-6 -16 -10 -28 q323 0 368 28q-26 -65 -114 -85.5t-283 -24.5l-59 -172q-127 -365 -197 -501t-132 -234.5t-124 -161.5q-139 -148 -289 -148q-100 0 -148 47t-48 105.5z" />
<glyph unicode="g" horiz-adv-x="893" d="M-78 -354q0 51 32 96t85 45t72 -43q-21 -12 -32 -43t-11 -58.5t21.5 -46t55.5 -18.5q99 0 178.5 99.5t135.5 230.5q14 35 196 541q-241 -455 -454 -455q-140 0 -140 188q0 144 62.5 291.5t179.5 250.5t256 103q64 0 122 -28.5t75 -93.5q30 65 72 89.5t139 24.5h82 q-43 -28 -94.5 -124.5t-87.5 -189.5t-93 -255q-127 -365 -221 -484.5t-212 -184t-214 -64.5q-205 0 -205 129zM260 225q0 -61 49 -61q53 0 125 66.5t129 156.5q185 285 185 299q-21 66 -97 66q-135 0 -263 -189.5t-128 -337.5z" />
<glyph unicode="h" horiz-adv-x="897" d="M-41 0q55 141 158.5 451.5t177.5 487.5t144.5 299t161.5 204t192.5 82t101.5 -97q0 -67 -55 -178q-119 -233 -398 -540q111 79 175.5 104t123.5 25q117 0 117 -103q0 -41 -14.5 -75.5t-31.5 -79.5t-28.5 -74t-30 -78t-28.5 -84q-27 -86 -27 -137t35 -51q123 0 307 356 q7 14 16 14t9 -37.5t-21 -76.5q-251 -424 -426 -424q-120 0 -120 139q0 162 129 461q28 76 28 104q0 41 -37 41q-24 0 -82.5 -28.5t-111.5 -84t-89 -128t-57.5 -126t-44 -130t-40 -125t-35.5 -111.5h-199zM383 723q281 330 383 541q57 129 57 169t-26 40 q-72 0 -187.5 -227.5t-226.5 -522.5z" />
<glyph unicode="i" horiz-adv-x="444" d="M51 147q0 248 170 549q72 123 160 123l102 -2h21q-33 -24 -87.5 -133t-81 -164t-60 -149.5t-33.5 -153.5t39 -59q26 0 74 35.5t79 75.5t69 101.5t65.5 106.5t31.5 45q12 0 12 -38t-20 -72q-76 -127 -138.5 -212t-142.5 -148.5t-145 -63.5q-115 0 -115 159zM465 1057 q0 53 49 107.5t94 54.5t67.5 -20.5t22.5 -52.5t-39 -56h-8q-41 0 -78.5 -35t-54.5 -72q-53 21 -53 74z" />
<glyph unicode="j" horiz-adv-x="440" d="M-610 -356q0 51 31.5 97t86 46t72.5 -43q-20 -12 -31.5 -43t-11.5 -58.5t21.5 -47t58.5 -19.5q172 2 309 330q49 117 127 352q148 436 199 492q49 49 170 49h82q-45 -27 -71.5 -79t-41 -80t-37.5 -87l-35 -90q-38 -103 -69 -193t-42 -120.5t-41 -102.5t-50.5 -110.5 t-57 -104t-69.5 -102.5t-81 -83t-97 -71q-115 -59 -215 -59q-207 0 -207 127zM465 1057q0 53 49 107.5t94 54.5t67.5 -20.5t22.5 -52.5t-39 -56h-8q-41 0 -78.5 -35t-54.5 -72q-53 21 -53 74z" />
<glyph unicode="k" horiz-adv-x="842" d="M-59 0q63 119 187 480.5t183 484.5q2 4 25.5 53t33 67.5t36 69.5t43 75.5t45 71t51 71t53.5 58t57 50.5q70 41 127 41q113 0 113 -103q0 -143 -173 -379.5t-390 -447.5l-37 -103q98 127 223 222.5t230 95.5q59 0 92.5 -28.5t33.5 -78.5q0 -112 -99 -180.5t-228 -89.5 q18 -213 59 -260q21 -23 51.5 -23t84 37t87 81t71.5 105.5t65.5 106.5t31.5 45q13 0 13 -40t-23 -74q-72 -121 -145 -220q-158 -204 -312 -204q-84 0 -126 84t-42 186q0 205 62 205q96 0 178 44t82 115q0 58 -66 58q-141 0 -313 -307q-16 -31 -68.5 -142.5t-92.5 -169 t-78 -57.5h-125zM385 731q262 307 369 518q61 111 61 183q0 36 -29 36q-114 0 -401 -737z" />
<glyph unicode="l" horiz-adv-x="504" d="M63 143q0 154 138 537q10 33 47 137.5t63.5 162.5t71.5 154.5t87 154t93 116.5q101 119 217.5 119t116.5 -107q0 -82 -47 -168q-74 -149 -225.5 -338.5t-272.5 -304.5l-33 -94q-25 -72 -47 -174q-21 -94 -20 -138v-7q0 -62 45 -62t107.5 51t91 89t66.5 99.5t65.5 106.5 t31.5 45q13 0 13 -38t-21 -72q-112 -191 -182 -269q-141 -155 -291 -155q-115 0 -115 155zM393 723q281 330 383 541q58 129 58 169t-27 40h-14q-125 0 -400 -750z" />
<glyph unicode="m" horiz-adv-x="1362" d="M-45 0q22 86 49 154l133 340q82 204 82 299q0 20 -4 26h86q70 0 90.5 -13t20.5 -35.5t-25 -104.5q180 163 361 163q108 0 108 -90q0 -39 -22 -96q186 186 383 186q106 0 106 -90q0 -41 -14.5 -77.5t-37 -95t-36.5 -96.5t-33 -93q-39 -113 -39 -167t34 -54t85 45 t76.5 77.5t63.5 93t64.5 105.5t31.5 45q12 0 12 -38t-21 -72q-75 -127 -137.5 -212t-142.5 -148.5t-146 -63.5q-120 0 -120 139q0 162 129 461q28 76 28 104q0 41 -37 41q-22 0 -77.5 -26.5t-105.5 -80t-81 -98.5t-67.5 -135t-49.5 -127q-59 -184 -79 -266h-201 q106 295 146 397.5t48 126.5l19 58q22 65 22 108t-39 43q-32 0 -88.5 -28.5t-109.5 -84t-89 -128t-57.5 -126t-44 -130t-40 -125t-35.5 -111.5h-199z" />
<glyph unicode="n" horiz-adv-x="893" d="M-43 0q0 43 180 494q74 211 74 294q0 21 -6 31h86q71 0 91.5 -14t20.5 -39t-22 -100q172 163 346 163q117 0 117 -106q0 -35 -10.5 -70t-51.5 -139q-90 -229 -90 -307q0 -49 37 -49q27 0 75 36.5t79.5 76.5t69.5 100.5t64.5 105.5t31.5 45q12 0 12 -38t-21 -72 q-75 -127 -137.5 -212t-142.5 -148.5t-146 -63.5q-120 0 -120 133t153 534q8 19 8 39q0 43 -54 43t-106.5 -33.5t-95.5 -96t-77.5 -127t-64.5 -148.5t-47 -140.5t-34.5 -121t-19.5 -70.5h-199z" />
<glyph unicode="o" horiz-adv-x="920" d="M72 237q0 128 58 264t176 234.5t263 98.5q244 0 244 -259q0 -98 -43 -206q31 -43 88 -43q107 0 201 178q6 12 12 12q12 0 12 -31q0 -98 -78.5 -162.5t-147.5 -64.5t-118 39q-73 -145 -174.5 -229t-261.5 -84q-102 0 -166.5 62.5t-64.5 190.5zM268 190.5 q0 -122.5 107 -129.5q88 0 162.5 93.5t126.5 205.5q-70 60 -70 150q0 55 29.5 88t81.5 33h12q-8 108 -99 108q-141 0 -276 -274q-74 -152 -74 -274.5z" />
<glyph unicode="p" horiz-adv-x="807" d="M-250 -508q53 78 215 537.5t214 586.5t77 154q49 49 170 49h61q-59 -41 -161 -246q190 254 336 254q137 0 137 -188q0 -156 -98.5 -319.5t-231.5 -253.5h16q84 0 171 67.5t151 149.5q35 45 98.5 152.5t67.5 107.5q16 0 16 -35t-20 -70q-123 -225 -266.5 -350t-340 -125 t-221.5 100l-114 -358q-41 -121 -62.5 -156.5t-48.5 -46t-68 -10.5h-98zM184 149.5q0 -96.5 60 -96.5q106 0 231 211t125 330q0 51 -31 59q-6 2 -18 2q-43 0 -94 -41q-84 -65 -178.5 -216.5t-94.5 -248z" />
<glyph unicode="q" horiz-adv-x="948" d="M57 182q0 144 62.5 291.5t179.5 250.5t256 103q61 0 117.5 -26.5t77.5 -87.5q28 59 71 82.5t135 23.5h62q-119 -74 -291 -581v-11q0 -82 56.5 -82t164.5 138q29 36 92.5 140.5t67.5 104.5q10 0 10 -37.5t-11 -59t-41 -71t-41 -68t-42 -62.5t-51.5 -64.5t-50.5 -46.5 q-54 -51 -114 -51t-79 47q-18 -62 -62 -213.5t-70 -236.5t-88 -126t-196 -41q74 101 172 373q35 96 98.5 281.5t94.5 271.5q-238 -430 -442 -430q-138 0 -138 188zM256 227q0 -63 49 -63q72 0 175.5 121t166 227t78.5 145l14 33q-22 62 -94 62q-135 0 -262 -188.5 t-127 -336.5z" />
<glyph unicode="r" horiz-adv-x="688" d="M111 406.5q0 33.5 25.5 94t55 116t31.5 61.5q-73 37 -73 119q0 41 25.5 73.5t70.5 32.5t73 -29q-4 -12 -4 -36q0 -56 40 -87.5t98 -31.5q16 0 24 2q72 102 146 102l104 -2h21q-31 -22 -87.5 -132.5t-84 -167t-61.5 -152t-34 -154.5t41 -59q27 2 75 37.5t80 75.5 t69.5 102.5t65.5 108.5t32 46q14 0 14 -37.5t-20 -72.5q-88 -146 -145.5 -223.5t-138.5 -142t-146 -64.5q-117 0 -117 172q0 116 45 263.5t133 285.5q-72 -58 -143 -58q-23 0 -47 10q-146 -286 -157 -286t-11 33.5z" />
<glyph unicode="s" horiz-adv-x="774" d="M51 133q0 49 29 90t79 41t64 -37q-39 -39 -39 -90q0 -102 115 -102q68 0 118 47t50 103.5t-24.5 99.5t-59.5 75.5t-70 65.5q-84 80 -84 183.5t79 174t216 70.5q86 0 145.5 -30.5t59.5 -95t-39 -112t-105.5 -47.5t-66.5 62q0 14 47 42.5t47 59.5t-25.5 46.5t-72.5 15.5 t-91 -33t-44 -86t45 -100.5t98 -80t98.5 -91t45.5 -123t-30 -115.5t-71 -82q115 49 244 246q12 16 43 67q72 129 80 129q12 0 12 -37.5t-20 -72.5q-154 -256 -279 -356.5t-323 -100.5q-115 0 -193 44t-78 130z" />
<glyph unicode="t" horiz-adv-x="510" d="M78 353.5q0 25.5 27.5 83t75.5 149.5t79 168h-137q-6 0 -6 9t15 31.5t24 22.5h155q148 354 299 354q88 0 99 3q-101 -70 -226 -357h207l2 -2q0 -10 -22.5 -35.5t-38.5 -25.5h-176q-162 -402 -162 -516q0 -78 49 -78q72 0 168 123q22 26 59 90q95 151 99 151q12 0 12 -32 q-2 -78 -170 -304q-55 -73 -133 -136.5t-141 -63.5q-117 0 -117 164q0 137 65 315v2q-39 -72 -66.5 -106.5t-31.5 -34.5q-8 0 -8 25.5z" />
<glyph unicode="u" horiz-adv-x="920" d="M55 158q0 84 59.5 277.5t145.5 318.5q21 30 44.5 37.5t88.5 7.5h99q-52 -70 -111 -189q-135 -280 -135 -411q0 -78 56 -78t134 108.5t167 281.5t104 196q75 118 145 118l98 -2q31 0 39 2q-57 -39 -164.5 -271t-107.5 -335q0 -61 41 -61q26 0 72.5 34.5t79 76.5 t70.5 103.5t65.5 106.5t31.5 45q13 0 13 -39t-23 -73q-254 -424 -424 -424q-115 0 -115 170q0 53 9 102q-193 -272 -367 -272q-51 0 -83 43t-32 127z" />
<glyph unicode="v" horiz-adv-x="827" d="M51 165q0 83 51 249q101 325 232 381q63 26 172 26q8 0 8 -8t-12 -20q-78 -66 -169 -280t-91 -303t67 -89q58 0 133.5 113.5t126.5 250.5q-10 47 -10 120t36 145.5t99.5 72.5t63.5 -94q0 -111 -68 -225q-18 -33 -24 -45q2 -64 31.5 -98.5t76.5 -34.5q74 0 137 92 q25 37 44.5 66.5t21.5 29.5q8 0 8 -43t-14 -65q-84 -150 -211 -150q-107 0 -150 115q-178 -269 -250 -318q-100 -67 -196 -67q-49 0 -81 48t-32 131z" />
<glyph unicode="w" horiz-adv-x="1386" d="M45 159q0 81 57 251q109 327 238 383q61 26 172 26q6 0 6 -8q0 6 -14 -14q-78 -111 -160 -293q-16 -41 -51 -143.5t-35 -171t51 -68.5q103 0 297 373q82 157 84 159q76 121 146 121l110 -2q35 0 41 2q-76 -45 -180 -344q-59 -158 -59 -241t61 -83q72 0 146.5 83 t112.5 159t60 137q-10 52 -10 125.5t38 143t95 69.5q66 0 66 -92q0 -82 -20.5 -129t-41 -87t-28.5 -56q0 -60 31.5 -96.5t72.5 -36.5q96 0 195 178q6 10 11 10t5 -29q0 -110 -75.5 -169.5t-151.5 -59.5q-111 0 -146 115l-6 20q-127 -221 -224 -313t-230 -92q-172 0 -172 194 q0 35 8 80q-195 -272 -381 -272q-51 0 -85 45t-34 126z" />
<glyph unicode="x" horiz-adv-x="918" d="M-27 0q148 133 369 350q-49 135 -82 275q-110 -219 -129 -238q-10 0 -10 41t8 57q33 60 64.5 153t56 136t61.5 43h107q24 -137 82 -317q51 51 142 156.5t124 142.5q18 20 61 20t64.5 -1t26.5 -1q-164 -145 -402 -393q70 -225 127 -281q29 -26 59 -26q82 0 216 166 q20 24 57 86q98 159 102 159q10 0 10 -38.5t-22 -77.5q-86 -148 -149.5 -223.5t-148.5 -141t-165 -65.5t-135 69.5t-96 212.5q-172 -172 -246 -264h-152z" />
<glyph unicode="y" horiz-adv-x="870" d="M-102 -246q0 45 27.5 81t63.5 36t60.5 -16.5t34.5 -36.5q-37 -13 -37 -86q0 -39 27.5 -62.5t70.5 -23.5q166 0 279 297l117 311q-97 -121 -167.5 -181.5t-110.5 -72.5t-94 -12t-87 44q-32 43 -32 124q0 87 49 248q48 157 106.5 249t121 119t171.5 27q8 0 8 -8.5 t-12 -20.5q-84 -74 -171 -264.5t-87 -321.5q0 -69 38 -69q74 0 189 147.5t176 294.5q8 21 23.5 59.5t21.5 53t19.5 40t23.5 35t27.5 23.5t36.5 18q59 13 110 13h84q-63 -39 -129 -193q-53 -129 -90 -234.5t-45 -128t-38 -109.5t-48 -134q-51 -143 -118.5 -227t-168 -134.5 t-203 -50.5t-175 40t-72.5 126z" />
<glyph unicode="z" horiz-adv-x="872" d="M53 18q0 41 25.5 67t39 38t41 32.5t77.5 61.5q149 121 352 315l71 68l-41 6q-145 23 -192 23q-109 0 -166 -54q-6 -6 -71.5 -105t-67.5 -99q-8 0 -8 43t16 71.5t50 98t47.5 93t42 58.5t61 46.5t69.5 11.5t115 -13l25 -4q170 -31 213 -31q69 0 131 70q12 14 33.5 14 t64.5 -14q-160 -147 -666 -639q95 -76 211 -76h9q92 0 182 49.5t155 133.5q27 34 92.5 141.5t69.5 107.5q10 0 10 -38.5t-24 -81.5q-137 -230 -242.5 -340.5t-206.5 -110.5q-53 0 -171.5 61.5t-144.5 61.5t-34 -6q-84 -101 -126 -101t-42 41z" />
<glyph unicode="{" horiz-adv-x="936" d="M18 674l21 63q166 13 193.5 31t56.5 41q73 57 117 252q16 76 30.5 122t62.5 102t112.5 89t97.5 47q90 37 262 37h53l-18 -63q-179 0 -269 -68q-37 -29 -65.5 -78t-39.5 -89t-28.5 -103.5t-32.5 -100.5q-41 -104 -159.5 -180t-243.5 -80q94 -2 174 -60t80 -140t-47 -229.5 t-47 -223.5q0 -147 217 -147q14 0 41.5 1t38.5 1l-25 -60l-106 -4q-205 0 -249 17.5t-75 35.5q-57 35 -57 119t58 253t58 241.5t-41 112.5t-83 50.5t-87 10.5z" />
<glyph unicode="|" horiz-adv-x="936" d="M352 -109l219 1536h142l-217 -1536h-144z" />
<glyph unicode="}" horiz-adv-x="1171" d="M18 -166l21 64q176 0 264 67q39 29 67.5 78t40 89t29 103.5t31.5 100.5q39 104 158 180t245 80q-96 2 -174.5 60.5t-78.5 139.5t47 230.5t47 222.5q0 148 -217 148q-17 0 -43.5 -1t-36.5 -1l24 59l107 4q205 0 249 -17.5t74 -35.5q58 -35 58 -119t-58.5 -253 t-58.5 -241.5t41 -112.5t83 -50.5t87 -10.5l-20 -63q-166 -12 -194 -30.5t-56 -41.5q-74 -59 -117 -254q-16 -75 -30.5 -120.5t-62.5 -101.5t-116 -90t-96.5 -46t-99 -25.5t-120 -13.5t-66.5 1t-28 1z" />
<glyph unicode="~" horiz-adv-x="1053" d="M463 1290.5q0 22.5 74.5 84t143.5 61.5t187.5 -44t175 -44t97.5 22.5t64.5 44t27.5 21.5q16 0 16 -19q0 -6 -2 -8q-114 -162 -227 -162q-68 0 -186.5 44t-184.5 44q-114 0 -153 -59q-7 -8 -15 -8q-18 0 -18 22.5z" />
<glyph unicode="&#xa1;" horiz-adv-x="672" />
<glyph unicode="&#xa2;" horiz-adv-x="1139" />
<glyph unicode="&#xa3;" horiz-adv-x="1317" d="M41 47.5q0 65.5 58.5 118.5t142.5 63q67 111 182 433h-188q-3 0 -3 10t24 48t40 38h162q168 465 350 594q84 59 168 59t123 -41t39 -95t-15.5 -93t-29.5 -39q-4 0 -4 4q-17 106 -78 106q-131 0 -363 -495h242q2 0 2 -11.5t-22.5 -48t-39.5 -36.5h-227l-31 -70 q-114 -260 -198 -363q47 -6 245.5 -48t315.5 -42q238 0 238 133q0 39 -27 58v2q0 4 6 10t10 6q43 -2 88 -33.5t45 -95.5q0 -88 -91 -162.5t-223 -74.5t-258 46t-222 93t-138 47t-81 -28.5t-66 -65.5q-65 -92 -127 -92q-49 0 -49 65.5z" />
<glyph unicode="&#xa4;" horiz-adv-x="1706" d="M240 218q0 38 10 92.5t24 64.5l199 139q-37 66 -37 145q0 132 86 244l-121 117q-6 6 -6 34.5t19.5 94t29.5 65.5h2l205 -196q117 72 259.5 72t246.5 -89l299 213h2q6 0 6 -37.5t-10 -91t-27 -65.5l-184 -131q29 -64 29 -137q0 -131 -92 -244l139 -133q6 -6 6 -28.5 t-9 -63.5t-20.5 -72t-15.5 -31h-2l-227 217q-117 -67 -250 -67t-236 76l-317 -226h-2q-6 0 -6 38zM584 687q0 -116 67.5 -185.5t175 -69.5t203.5 89t96 208t-68.5 189.5t-180 70.5t-202.5 -93t-91 -209z" />
<glyph unicode="&#xa5;" horiz-adv-x="1341" d="M45 1225.5q0 15.5 4 19.5q68 72 169 126t174 54t100 -39q57 -83 215 -696q43 60 229 326t268 373q33 43 168 43q23 0 63 -1t54 -1q-383 -267 -651 -730h180q2 0 2 -10t-36 -59t-54 -49h-156q-51 -99 -92 -207h246q2 0 2 -10.5t-36 -59.5t-54 -49h-197 q-39 -143 -39 -192.5t8 -63.5h-264q23 100 76 256h-238q-2 0 -2 10t35 59.5t55 49.5h191q37 110 37 186v21h-226q-2 0 -2 10t35 59t56 49h116q-43 189 -168 494q-39 94 -100 94t-152 -76l-4 -2q-12 0 -12 15.5z" />
<glyph unicode="&#xa6;" horiz-adv-x="936" d="M514 -109l94 650q0 6 48 6t44 -17l-94 -649q0 -6 -48 -6t-44 16zM639 776l94 649q0 7 48 7t44 -17l-94 -649q0 -6 -48 -6t-44 16z" />
<glyph unicode="&#xa7;" horiz-adv-x="1755" d="M66 -217q0 72 47 131t134 59t118 -61q-72 -57 -72 -136t50 -123t132 -48q129 0 226.5 85t97.5 222t-176 324q-2 4 -72 76.5t-116 148.5t-46 180q0 178 139.5 286.5t341.5 108.5h43q-2 11 -2 35q0 178 139.5 286.5t329 108.5t271.5 -61.5t82 -148.5t-58.5 -161.5 t-163 -74.5t-104.5 88q0 8 4 33q53 0 94 42t41 94t-48 85t-118 33q-118 0 -196 -72t-78 -168q0 -51 36 -111.5t72.5 -98.5t108.5 -104.5t92 -86.5q156 -158 156 -336t-152.5 -311.5t-369.5 -145.5q-17 -178 -180.5 -305t-368.5 -127t-319.5 62.5t-114.5 191.5zM584 725 q0 -51 36.5 -112.5t70.5 -97.5t111 -106.5t91 -84.5q133 -134 154 -289q112 14 193 99t81 204q0 131 -127 272q-57 66 -64 72q-129 135 -159.5 188.5t-44.5 96.5q-19 -2 -68 -2q-119 0 -196.5 -72t-77.5 -168z" />
<glyph unicode="&#xa8;" horiz-adv-x="1024" d="M209 1263q0 13 14 26l71 72q13 12 25 12q11 0 27 -14l69 -73q10 -14 10 -25q0 -13 -12 -27l-69 -75q-17 -17 -25 -17q-14 0 -25 12l-76 86q-9 12 -9 23zM574 1263q0 13 14 26l71 72q13 12 25 12q11 0 27 -13l69 -74q10 -14 10 -25q0 -13 -12 -26l-69 -76q-17 -17 -25 -17 q-14 0 -25 12l-76 87q-9 11 -9 22z" />
<glyph unicode="&#xa9;" horiz-adv-x="1674" d="M100 719q0 305 216 521t521 216t521 -216t216 -521t-216 -521t-521 -216t-521 216t-216 521zM160 719q0 -280 198.5 -478.5t478.5 -198.5t478.5 198.5t198.5 478.5t-198.5 478.5t-478.5 198.5t-478.5 -198.5t-198.5 -478.5zM351 719q0 126 65.5 244t187.5 184.5t254 66.5 q38 0 75 -6.5t76 -20.5q5 -1 9 -1q19 0 26 30h42l72 -198h-44q-52 94 -131 124q-72 26 -147 26h-15q-86 -8 -166.5 -71t-121.5 -177q-33 -90 -33 -184q0 -25 2 -50q11 -121 69.5 -224t149.5 -152q72 -40 166 -42q124 0 194 56t70 126h53v-100q0 -46 -96.5 -86.5 t-242.5 -40.5q-142 0 -264 68t-186 185t-64 243z" />
<glyph unicode="&#xaa;" horiz-adv-x="648" />
<glyph unicode="&#xab;" horiz-adv-x="944" d="M174 479l342 303h14v-37l-205 -266l205 -266v-37h-14zM487 479l342 303h14v-37l-205 -266l205 -266v-37h-14z" />
<glyph unicode="&#xac;" horiz-adv-x="1014" d="M87 667v100h840v-491l-1 -1h-98v392h-741z" />
<glyph unicode="&#xad;" horiz-adv-x="1004" d="M313 467q0 10 39 66.5t58 56.5h571q2 0 2 -10.5t-38 -66.5t-58 -56h-572q-2 0 -2 10z" />
<glyph unicode="&#xae;" horiz-adv-x="1674" d="M100 719q0 305 216 521t521 216t521 -216t216 -521t-216 -521t-521 -216t-521 216t-216 521zM160 719q0 -280 198.5 -478.5t478.5 -198.5t478.5 198.5t198.5 478.5t-198.5 478.5t-478.5 198.5t-478.5 -198.5t-198.5 -478.5zM524 269v50h43q37 0 37 121v538q0 121 -37 121 h-43v70h356q104 -1 177 -90t73 -218q0 -158 -146 -285l82 -116q100 -141 150 -141h34v-50h-346v50h45q30 0 30 22q0 29 -69 114l-75 102q-42 0 -84 42v-159q0 -121 36 -121h53v-50h-316zM751 725q1 -54 39.5 -82.5t81.5 -28.5q41 4 81 80t40 159q-5 104 -46.5 175t-102.5 71 h-93v-374z" />
<glyph unicode="&#xaf;" horiz-adv-x="1024" d="M254 1195v125h516v-125h-516z" />
<glyph unicode="&#xb0;" horiz-adv-x="674" d="M60 1164q0 116 81.5 197t197.5 81q115 0 196 -81.5t81 -196.5q0 -114 -82 -196t-197 -82q-117 0 -197 81t-80 197zM130 1163q0 -87 61 -147t148 -60t147 60t60 147t-60.5 148t-146.5 61t-147.5 -61t-61.5 -148z" />
<glyph unicode="&#xb1;" horiz-adv-x="1479" d="M87 0v140h839l1 -1v-139h-840zM92 639q0 18 51.5 74.5t77.5 56.5l488 -16q112 280 157 422q6 24 84 52.5t98.5 28.5t20.5 -2v-2q-199 -438 -225 -499q463 4 590 10q2 0 2 -4q0 -19 -51.5 -74t-77.5 -55l-508 18q-58 -117 -116 -272.5t-75 -224.5q-6 -25 -85 -53.5 t-99.5 -28.5t-20.5 2v2q105 192 265 577q-385 0 -480.5 -7t-95.5 -5z" />
<glyph unicode="&#xb2;" horiz-adv-x="1014" />
<glyph unicode="&#xb3;" horiz-adv-x="1014" />
<glyph unicode="&#xb4;" horiz-adv-x="1024" d="M316 1078l291 297q35 35 55.5 47t40.5 12q33 0 53.5 -20t20.5 -51q0 -22 -15.5 -42t-46.5 -40l-330 -203h-69z" />
<glyph unicode="&#xb5;" horiz-adv-x="1180" />
<glyph unicode="&#xb6;" horiz-adv-x="1024" d="M93 1086q0 157 107.5 253t285.5 96h443v-70h-127v-1365h-82v1365h-166v-1365h-84v738q-174 8 -275.5 102.5t-101.5 245.5z" />
<glyph unicode="&#xb7;" horiz-adv-x="508" d="M144 747q0 45 32 77.5t78 32.5q45 0 77.5 -32.5t32.5 -77.5q0 -46 -32.5 -78t-77.5 -32q-46 0 -78 32t-32 78z" />
<glyph unicode="&#xb8;" horiz-adv-x="1024" d="M360 -290q85 -52 152 -52q66 0 94.5 21.5t28.5 66.5t-49 64q-40 16 -102 16q-16 0 -34 -2l48 176h63l-37 -104q32 4 62 5q86 0 134 -40.5t48 -113.5q0 -76 -58.5 -120.5t-160.5 -44.5q-109 0 -189 32v96z" />
<glyph unicode="&#xb9;" horiz-adv-x="1014" />
<glyph unicode="&#xba;" horiz-adv-x="1522" />
<glyph unicode="&#xbb;" horiz-adv-x="944" d="M101 176v37l205 266l-205 266v37h14l342 -303l-342 -303h-14zM414 176v37l205 266l-205 266v37h14l342 -303l-342 -303h-14z" />
<glyph unicode="&#xbc;" horiz-adv-x="1708" />
<glyph unicode="&#xbd;" horiz-adv-x="2370" />
<glyph unicode="&#xbe;" horiz-adv-x="1708" />
<glyph unicode="&#xbf;" horiz-adv-x="748" />
<glyph unicode="&#xc0;" horiz-adv-x="1540" />
<glyph unicode="&#xc1;" horiz-adv-x="1540" />
<glyph unicode="&#xc2;" horiz-adv-x="1540" />
<glyph unicode="&#xc3;" horiz-adv-x="1540" />
<glyph unicode="&#xc4;" horiz-adv-x="1540" />
<glyph unicode="&#xc5;" horiz-adv-x="1540" />
<glyph unicode="&#xc6;" horiz-adv-x="2090" />
<glyph unicode="&#xc7;" horiz-adv-x="1399" />
<glyph unicode="&#xc8;" horiz-adv-x="1151" />
<glyph unicode="&#xc9;" horiz-adv-x="1151" />
<glyph unicode="&#xca;" horiz-adv-x="1151" />
<glyph unicode="&#xcb;" horiz-adv-x="1151" />
<glyph unicode="&#xcc;" horiz-adv-x="657" />
<glyph unicode="&#xcd;" horiz-adv-x="657" />
<glyph unicode="&#xce;" horiz-adv-x="657" />
<glyph unicode="&#xcf;" horiz-adv-x="657" />
<glyph unicode="&#xd0;" horiz-adv-x="1518" />
<glyph unicode="&#xd1;" horiz-adv-x="1311" d="M78 0q117 299 334 788.5t264 581.5q-187 0 -364 -73.5t-208 -172.5q-2 -6 -8 -6q-16 0 -16 27q0 4 16.5 55t62.5 106.5t107 82.5q101 41 248 41h346q-29 -48 -29 -115q0 -152 117 -426q107 -256 126.5 -326.5t24.5 -93.5t7 -53.5t4 -38.5q27 65 457 1053q4 10 37.5 10 t89 -6.5t63.5 -6.5q-82 -53 -230.5 -343.5t-264 -607t-115.5 -439.5q0 -27 4 -37h-129q-6 119 -42 208t-54.5 133t-63.5 146.5t-80 184.5q-106 248 -120 422q-136 -301 -267 -637t-131 -439q0 -14 2 -18h-188zM926 1599q0 16 20 35.5t44 38.5t52 32q59 29 131 29 q78 0 133 -38l34 -24q8 -5 14 -9.5t16 -4.5t36 14l60 33q20 12 44.5 12t40.5 -12t16 -28.5t-20 -35.5t-43.5 -38t-49.5 -32q-60 -31 -124.5 -31t-104.5 19.5t-58 34.5l-28 19q-6 5 -14 5q-10 0 -37 -14l-60 -35q-20 -10 -44 -10t-41 12t-17 28z" />
<glyph unicode="&#xd2;" horiz-adv-x="1614" />
<glyph unicode="&#xd3;" horiz-adv-x="1614" />
<glyph unicode="&#xd4;" horiz-adv-x="1614" />
<glyph unicode="&#xd5;" horiz-adv-x="1614" />
<glyph unicode="&#xd6;" horiz-adv-x="1614" />
<glyph unicode="&#xd7;" horiz-adv-x="1014" d="M104 390l280 281l-280 280l112 112l280 -280l281 280h1l111 -112l-280 -280l280 -281v-1l-112 -111l-281 280l-280 -280z" />
<glyph unicode="&#xd8;" horiz-adv-x="1614" />
<glyph unicode="&#xd9;" horiz-adv-x="1501" />
<glyph unicode="&#xda;" horiz-adv-x="1501" />
<glyph unicode="&#xdb;" horiz-adv-x="1501" />
<glyph unicode="&#xdc;" horiz-adv-x="1501" />
<glyph unicode="&#xdd;" horiz-adv-x="1233" />
<glyph unicode="&#xde;" horiz-adv-x="1120" />
<glyph unicode="&#xdf;" horiz-adv-x="1251" />
<glyph unicode="&#xe0;" horiz-adv-x="922" />
<glyph unicode="&#xe1;" horiz-adv-x="922" />
<glyph unicode="&#xe2;" horiz-adv-x="922" />
<glyph unicode="&#xe3;" horiz-adv-x="870" d="M0 276v138q0 123 86 209t211 86h176v59q0 49 -25 74q-43 45 -92 45h-178q-37 0 -55 18q-35 33 -35 70q0 59 55 84q16 8 35 8h237q121 0 208 -87t87 -210v-674q0 -76 -71 -106q-23 -10 -48.5 -10t-44 9t-32.5 19q-11 10 -22 28.5t-17 28t-19 9.5q-12 0 -20 -11l-17 -16 q-67 -67 -157 -67q-107 0 -185 88q-77 88 -77 208zM49 1307.5q0 25.5 19.5 56.5t44 59.5t53.5 51.5q61 45 135 45q80 0 139 -62l33 -37l15 -15t15 -7q11 0 39 22l62 54q20 16 45.5 16t42 -18.5t16.5 -44t-20.5 -55.5t-45 -59.5t-53.5 -49.5q-61 -45 -126.5 -45t-106.5 28.5 t-61 52.5l-27 29q-6 8 -16 8q-11 0 -37 -22l-62 -51q-20 -19 -45.5 -19t-42 18.5t-16.5 44zM237 279q0 -52 25 -76q43 -41 81 -41t59.5 6t35.5 20q35 27 35 74v268h-117q-51 0 -76 -24q-43 -43 -43 -94v-133z" />
<glyph unicode="&#xe4;" horiz-adv-x="922" />
<glyph unicode="&#xe5;" horiz-adv-x="922" />
<glyph unicode="&#xe6;" horiz-adv-x="1451" />
<glyph unicode="&#xe7;" horiz-adv-x="905" />
<glyph unicode="&#xe8;" horiz-adv-x="909" />
<glyph unicode="&#xe9;" horiz-adv-x="909" />
<glyph unicode="&#xea;" horiz-adv-x="909" />
<glyph unicode="&#xeb;" horiz-adv-x="909" />
<glyph unicode="&#xec;" horiz-adv-x="514" />
<glyph unicode="&#xed;" horiz-adv-x="514" />
<glyph unicode="&#xee;" horiz-adv-x="514" />
<glyph unicode="&#xef;" horiz-adv-x="514" />
<glyph unicode="&#xf0;" horiz-adv-x="1139" />
<glyph unicode="&#xf1;" horiz-adv-x="893" d="M-43 0q0 43 180 494q74 211 74 294q0 21 -6 31h86q71 0 91.5 -14t20.5 -39t-22 -100q172 163 346 163q117 0 117 -106q0 -35 -10.5 -70t-51.5 -139q-90 -229 -90 -307q0 -49 37 -49q27 0 75 36.5t79.5 76.5t69.5 100.5t64.5 105.5t31.5 45q12 0 12 -38t-21 -72 q-75 -127 -137.5 -212t-142.5 -148.5t-146 -63.5q-120 0 -120 133t153 534q8 19 8 39q0 43 -54 43t-106.5 -33.5t-95.5 -96t-77.5 -127t-64.5 -148.5t-47 -140.5t-34.5 -121t-19.5 -70.5h-199zM298 1001q0 16 18.5 35.5t40.5 38.5t48 32q55 29 120 29q72 0 123 -38l31 -24 q8 -5 13.5 -9.5t14.5 -4.5t33 14l55 33q18 12 41 12t37.5 -12t14.5 -28.5t-18 -35.5t-40 -38t-46 -32q-55 -31 -114.5 -31t-96.5 19.5t-53 34.5l-26 19q-5 5 -13 5q-9 0 -34 -14l-55 -35q-19 -10 -41 -10t-37.5 12t-15.5 28z" />
<glyph unicode="&#xf2;" horiz-adv-x="1010" />
<glyph unicode="&#xf3;" horiz-adv-x="1010" />
<glyph unicode="&#xf4;" horiz-adv-x="1010" />
<glyph unicode="&#xf5;" horiz-adv-x="1010" />
<glyph unicode="&#xf6;" horiz-adv-x="1010" />
<glyph unicode="&#xf7;" horiz-adv-x="1014" d="M87 647v140h839l1 -1v-139h-840zM482 309q0 36 44 71t102 35q84 0 84 -51q0 -6 -4 -23q-23 -4 -67 -47t-58 -69q-101 32 -101 84zM695 933q0 37 44 72t102 35q84 0 84 -51q0 -7 -4 -23q-23 -4 -67 -47t-58 -70q-101 33 -101 84z" />
<glyph unicode="&#xf8;" horiz-adv-x="1010" />
<glyph unicode="&#xf9;" horiz-adv-x="1059" />
<glyph unicode="&#xfa;" horiz-adv-x="1059" />
<glyph unicode="&#xfb;" horiz-adv-x="1059" />
<glyph unicode="&#xfc;" horiz-adv-x="1059" />
<glyph unicode="&#xfd;" horiz-adv-x="868" />
<glyph unicode="&#xfe;" horiz-adv-x="1010" />
<glyph unicode="&#xff;" horiz-adv-x="868" />
<glyph unicode="&#x100;" horiz-adv-x="1536" d="M25 0q192 176 598 578q522 520 686 720q41 50 61.5 69t62.5 41t89 22h147q-94 -91 -191.5 -493t-97.5 -622q0 -155 58 -215q24 -26 61 -26t78 26l12 -18q-28 -41 -102 -70.5t-146 -29.5q-106 0 -145 75.5t-45 202.5q0 105 27 270h-469q-306 -323 -480 -530h-204z M461 1163q0 267 497 267h459q-51 -52 -178 -78.5t-286.5 -42t-209.5 -25.5q-219 -51 -219 -262q-63 65 -63 141zM799 633h393q37 203 119 508q-234 -219 -512 -508zM1171 1620q0 10 39 66.5t58 56.5h571q2 0 2 -10.5t-38 -66.5t-58 -56h-572q-2 0 -2 10z" />
<glyph unicode="&#x101;" horiz-adv-x="969" d="M57 182q0 144 62.5 291.5t179.5 250.5t256 103q66 0 123 -29.5t76 -95.5q22 48 69 82.5t88 34.5l103 -2h20q-67 -55 -165.5 -279.5t-98.5 -326.5q0 -53 37 -53q119 0 303 350q8 14 14 14q13 0 13 -38t-21 -72q-252 -424 -422 -424q-110 0 -110 170q0 127 43 250 q-234 -414 -432 -414q-138 0 -138 188zM256 227q0 -63 49 -63q53 0 125 66.5t129 156.5q127 201 182 297q-20 66 -96 66q-135 0 -262 -187.5t-127 -335.5zM530 975q0 10 39 66.5t58 56.5h571q2 0 2 -10.5t-38 -66.5t-58 -56h-572q-2 0 -2 10z" />
<glyph unicode="&#x12a;" horiz-adv-x="573" d="M49 1145q0 4 4 20q39 113 113 174.5t144.5 76t174.5 14.5h463q-141 -109 -389 -672q-63 -144 -144 -376t-81 -339q0 -29 8 -43h-264q57 248 241 688q246 586 318 666q-174 -4 -353.5 -70.5t-207.5 -159.5q-2 -6 -8 -6q-19 0 -19 27zM415 1620q0 10 39 66.5t58 56.5h571 q2 0 2 -10.5t-38 -66.5t-58 -56h-572q-2 0 -2 10z" />
<glyph unicode="&#x12b;" horiz-adv-x="444" d="M51 147q0 248 170 549q72 123 160 123l102 -2h21q-33 -24 -87.5 -133t-81 -164t-60 -149.5t-33.5 -153.5t39 -59q26 0 74 35.5t79 75.5t69 101.5t65.5 106.5t31.5 45q12 0 12 -38t-20 -72q-76 -127 -138.5 -212t-142.5 -148.5t-145 -63.5q-115 0 -115 159zM249 962 q0 10 28.5 66.5t41.5 56.5h414q2 0 2 -10.5t-27.5 -66.5t-42.5 -56h-414q-2 0 -2 10z" />
<glyph unicode="&#x131;" horiz-adv-x="514" d="M19 732v44q222 69 261 182h48v-735q0 -173 100 -173h46v-50h-442v50h46q100 0 100 173v432q0 77 -111 77h-48z" />
<glyph unicode="&#x16a;" horiz-adv-x="1454" d="M82 1145q0 4 17.5 55t64.5 106.5t106 82.5q101 41 248 41h465q-94 -72 -232.5 -332t-218.5 -459q-112 -260 -112 -392t104 -132q88 0 227.5 126t274.5 308q266 362 374.5 564t168 259.5t131.5 57.5h127q-96 -74 -281 -443q-276 -557 -276 -801q0 -112 71 -112q35 0 82 26 h2q7 0 7 -12q0 -39 -102.5 -71.5t-166.5 -32.5q-131 0 -131 151q0 76 53.5 243t135.5 345q-306 -455 -455 -588q-166 -149 -307 -149q-236 0 -236 227q0 168 124 478t284 599q37 60 39 64q-174 -4 -353.5 -70.5t-207.5 -159.5q-3 -6 -9 -6q-18 0 -18 27zM1103 1620 q0 10 39 66.5t58 56.5h571q2 0 2 -10.5t-38 -66.5t-58 -56h-572q-2 0 -2 10z" />
<glyph unicode="&#x16b;" horiz-adv-x="920" d="M55 158q0 84 59.5 277.5t145.5 318.5q21 30 44.5 37.5t88.5 7.5h99q-52 -70 -111 -189q-135 -280 -135 -411q0 -78 56 -78t134 108.5t167 281.5t104 196q75 118 145 118l98 -2q31 0 39 2q-57 -39 -164.5 -271t-107.5 -335q0 -61 41 -61q26 0 72.5 34.5t79 76.5 t70.5 103.5t65.5 106.5t31.5 45q13 0 13 -39t-23 -73q-254 -424 -424 -424q-115 0 -115 170q0 53 9 102q-193 -272 -367 -272q-51 0 -83 43t-32 127zM394 979q0 10 39 66.5t58 56.5h571q2 0 2 -10.5t-38 -66.5t-58 -56h-572q-2 0 -2 10z" />
<glyph unicode="&#x300;" d="M-486 1365q0 31 20.5 51t53.5 20q20 0 40.5 -12t55.5 -47l291 -297h-69l-330 203q-31 20 -46.5 40t-15.5 42z" />
<glyph unicode="&#x301;" d="M-486 1080l291 297q35 35 55.5 47t40.5 12q33 0 53.5 -20t20.5 -51q0 -22 -15.5 -42t-46.5 -40l-330 -203h-69z" />
<glyph unicode="&#x302;" d="M-624 1081l232 355h118l232 -355h-58l-233 216l-233 -216h-58z" />
<glyph unicode="&#x303;" d="M-612 1163q19 76 68 133t119 57q56 0 121.5 -28t123.5 -28q60 0 88 56h54q-20 -73 -68.5 -131.5t-130.5 -58.5q-50 0 -114.5 31t-122.5 31q-59 0 -84 -62h-54z" />
<glyph unicode="&#x304;" d="M-526 1195v125h516v-125h-516z" />
<glyph unicode="&#x307;" d="M-388 1263q0 6 3 12.5t11 13.5l69 72q6 6 13 9t14 3q6 0 12.5 -3t12.5 -9l71 -76q5 -4 7 -10t2 -14q-1 -9 -3 -15t-8 -12l-71 -76q-12 -11 -16 -13.5t-7 -2.5q-10 0 -16.5 2.5t-10.5 8.5l-75 87q-4 4 -6 9.5t-2 13.5z" />
<glyph unicode="&#x308;" d="M-603 1263q0 13 14 26l71 72q13 12 25 12q11 0 27 -14l69 -73q10 -14 10 -25q0 -13 -12 -27l-69 -75q-17 -17 -25 -17q-14 0 -25 12l-76 86q-9 12 -9 23zM-238 1263q0 13 14 26l71 72q13 12 25 12q11 0 27 -13l69 -74q10 -14 10 -25q0 -13 -12 -26l-69 -76 q-17 -17 -25 -17q-14 0 -25 12l-76 87q-9 11 -9 22z" />
<glyph unicode="&#x30a;" d="M-426 1258q0 75 51 126t125 51q76 0 127.5 -51.5t51.5 -125.5q0 -75 -51.5 -126.5t-127.5 -51.5q-74 0 -125 51.5t-51 126.5zM-350 1258q0 -42 29 -71t71 -29t71 29t29 71q0 40 -29.5 69.5t-70.5 29.5t-70.5 -29.5t-29.5 -69.5z" />
<glyph unicode="&#x30c;" d="M-624 1436h58l233 -214l233 214h58l-232 -356h-118z" />
<glyph unicode="&#x327;" d="M-471 -290q85 -52 152 -52q66 0 94.5 21.5t28.5 66.5t-49 64q-40 16 -102 16q-16 0 -34 -2l48 176h63l-37 -104q32 4 62 5q86 0 134 -40.5t48 -113.5q0 -76 -58.5 -120.5t-160.5 -44.5q-109 0 -189 32v96z" />
<glyph unicode="&#x1004;" horiz-adv-x="885" d="M0 294q0 113 41 228q67 186 197 307q147 137 300 137q118 0 179 -81q37 -51 37 -115v-12q-3 -32 -18.5 -66t-41.5 -60t-59 -26q-40 0 -51 29q-5 10 -5 22q0 25 24 42q51 31 53 52q0 8 -10.5 16.5t-16.5 13.5q-39 24 -85 24q-65 0 -128 -34q-166 -88 -240 -257 q-33 -78 -45 -161q-3 -36 -3 -44q0 -41 13 -80q30 -73 119 -73q42 0 83 15q120 42 164 145q15 31 15 66q0 24 -13 50q-7 8 -7 32q0 23 8 41t22 18q6 0 13 -3q94 -52 94 -174q0 -112 -69 -209q-16 -16 -26 -33q-41 -46 -97 -81q-90 -58 -188 -58q-119 0 -187 87 q-72 93 -72 242z" />
<glyph unicode="&#x1010;" horiz-adv-x="1517" d="M0 347q0 118 52 229q106 229 329 351q137 74 229 74q99 0 163 -77q76 -92 84 -221l44 60q94 118 196 159q46 18 91 18q74 0 122 -59q37 -53 47 -121t10 -137q0 -48 -5 -88l1 1v-2h-1q-19 -222 -144 -417l-22 -33q-61 -90 -113 -90q-20 0 -39.5 15.5t-29 43.5t-9.5 57 q0 33 11.5 58t35.5 25q7 0 15 -2q16 10 35 39q31 38 63 97q83 150 83 337l-1 27l1 18q0 30 -8 51l-12 12q-15 11 -43 13q-41 0 -81 -21q-100 -51 -195 -198q-46 -71 -86 -145q-146 -275 -364 -448q-16 -11 -32 -11q-38 0 -60 56q-44 -16 -92 -16q-28 0 -58 7q-78 23 -131 87 q-86 104 -86 251zM126 318q0 -33 14 -64q56 -92 157 -92q46 0 89 11l37 6q80 93 153 192.5t122 210.5q27 64 27 115q0 22 -6 41q-27 62 -96 62q-27 0 -55 -9q-194 -56 -325 -207q-55 -66 -88 -145q-29 -71 -29 -121z" />
<glyph unicode="&#x1011;" horiz-adv-x="1609" d="M0 396q0 34 3 67q11 145 88 269.5t209 189.5q83 36 176 36q96 0 181.5 -41.5t125.5 -130.5q69 88 170 136q84 37 178 37q100 0 188 -46t124 -145q16 -50 16 -101q0 -85 -35.5 -167.5t-88 -156.5t-107.5 -133l-27 -27q-75 -75 -169 -127q-56 -30 -117 -50q-1 -1 -2 -1 q-21 -7 -42.5 -12.5t-42.5 -5.5q-24 0 -48 10q-23 11 -34.5 35.5t-11.5 52.5l2 21q-16 22 -26 40q-42 78 -51 164q-42 -55 -85 -100q-85 -93 -194 -154q-57 -30 -118 -50q-2 -1 -3 -1q-22 -7 -42.5 -12.5t-41.5 -5.5q-23 0 -48 10q-23 11 -34.5 35t-11.5 51q0 12 3 23 q-18 22 -28 40q-31 58 -43.5 121.5t-12.5 128.5zM96 347q0 -62 25 -121q10 -22 24 -41q31 14 67 24l12 4q52 17 100 41q90 48 162 119q73 74 129 161q31 45 52 95q8 23 10 46v4.5t-0.5 6.5t-0.5 4q-21 35 -67.5 56t-87.5 27q-26 5 -53 5q-76 0 -147 -34q-94 -48 -148 -139 t-71 -193q-6 -32 -6 -65zM749 349q0 -63 25 -123q9 -22 23 -41q33 14 68 24l12 4q52 17 101 41q89 48 161 119q73 74 129 161q32 45 51 95q9 23 12 46l-0.5 2t-0.5 5t-0.5 5t-0.5 3q-22 35 -68 56t-86 27q-27 5 -53 5q-77 0 -148 -34q-94 -48 -148 -139t-71 -193 q-6 -31 -6 -63z" />
<glyph unicode="&#x1015;" horiz-adv-x="985" d="M7 426q0 124 52 243t147 207q95 92 169 92q51 0 84.5 -49t33.5 -105q0 -41 -14 -81q-34 -94 -71 -94q-18 0 -31 18t-13 40q0 36 28 80l1 5q-7 7 -16 7q-23 0 -68 -42q-76 -61 -122 -151q-42 -83 -42 -173q0 -130 94 -205q39 -32 74 -32q31 0 69 19q127 56 192 159t83 215 q16 104 16 190q0 54 6.5 105.5t34.5 97.5q17 22 41 22q20 0 36 -20q44 -72 44 -185q0 -70 -16 -201q-2 -13 -3 -27l-1 -1q-35 -239 -174 -397v-1q-105 -109 -221 -152q-59 -23 -99 -23q-86 8 -146 61q-83 68 -125.5 169.5t-42.5 208.5zM816 561q0 1 2 3v-1z" />
<glyph unicode="&#x1019;" horiz-adv-x="973" d="M0 292q0 91 47 168q12 55 30 107q6 20 12 39q32 108 70 213q7 20 14 41q25 86 73 155v-1q10 11 24 11q10 0 21 -5q18 -12 26.5 -33t8.5 -40l-1 -12q-15 -72 -45 -141q-14 -33 -25 -66q-19 -55 -36 -110q43 26 87 50q45 26 97.5 44.5t107.5 18.5q46 0 92 -17 q53 -21 92 -59q0 29 -3 60q0 1 -1 7t-2.5 14t-2.5 15q-5 22 -11 43q-2 5 -3 10q-12 33 -12 65q0 18 8 37q4 11 13 18t21 7q5 0 10 -1q41 -15 61 -61t28 -86l2 -6q16 -70 19 -142l1 -23q0 -129 -47 -250q-35 -89 -95 -167l-19 -23v1q-87 -102 -214 -157q-76 -36 -160 -36 q-67 0 -133 33q-65 36 -103 97.5t-48 128.5q-4 27 -4 53zM142 217q2 -3 3 -5.5t3.5 -5t7.5 -6.5q45 -35 100 -35q45 0 90.5 17t85.5 41t68 46q100 79 152 196q-9 24 -9 43l-3 4q-6 3 -11 8q-10 7 -21 13q-32 13 -64 13q-27 0 -52 -6q-63 -15 -121.5 -49t-109.5 -70 q-57 -37 -98 -89q23 -31 23 -64q0 -16 -6 -29q-12 -23 -33 -23zM646 505l3 -1l-3 2v-1z" />
<glyph unicode="&#x101a;" horiz-adv-x="1636" d="M0 308q0 98 31 185.5t82.5 166t115.5 150t132 136.5q12 12 25 12q14 0 26.5 -10t20.5 -25q15 -27 15 -55q0 -29 -13 -55l-6 -13v-2l-109 -116q-86 -91 -148 -198q-36 -68 -47 -146q-3 -21 -3 -49q0 -24 4 -47.5t14 -39.5q9 -14 24.5 -19.5t33.5 -5.5q23 0 47 6.5t39 13.5 q80 39 142 105q112 112 203.5 237.5t155.5 270.5l1 2q11 31 25 60v1q1 5 4 9q4 10 10 21q17 30 44 30q25 0 48 -22q17 -18 25.5 -43.5t8.5 -51.5q0 -25 -8 -45q-15 -41 -32 -80q-1 -1 -1 -2q-1 0 -1 -1v-2q-53 -134 -61 -266q0 -50 8 -82q3 -10 9 -24.5t16 -27.5 q35 -42 75 -42q39 0 77 29q151 111 226.5 281.5t109.5 352.5q4 22 16 43.5t36 21.5l10 -1q26 -8 40.5 -36.5t14.5 -52.5q-1 -116 -32 -226.5t-79 -212.5q-25 -55 -71.5 -128t-107.5 -141l-17 -18q-49 -51 -103 -83t-110 -32q-40 0 -79 19t-76 62q-44 51 -66.5 112t-29.5 126 q-5 -8 -11 -16q-68 -88 -147.5 -171t-174.5 -142q-36 -21 -76.5 -34.5t-83.5 -13.5q-26 0 -53 6q-66 17 -102 67t-50 113q-17 72 -17 139z" />
<glyph unicode="&#x101b;" horiz-adv-x="921" d="M0 278q0 104 37 207q31 94 82 184q-12 7 -28 10q-2 1 -3 4t-1 6q0 4 1.5 7t5.5 4q18 0 39 -4q53 92 124 159q46 43 104 69t118 26q73 0 141 -47q61 -46 90 -117q15 -31 21 -63q4 -14 6 -35t3 -40t1 -27v-2q4 -7 6.5 -14t2.5 -13q6 -20 6 -42v-6q0 -43 -11 -88 q-2 -11 -4 -23q-13 -82 -29 -167q0 -3 -1 -5q-3 -11 -3 -25l-21 -104q0 -13 -4 -25q-5 -27 -7 -40q-1 -5 -1 -8l-44 -224q-39 -211 -99 -544h4q4 -1 10 -1q13 -2 34 -2q36 0 86 12.5t92 51.5v2l4 2q36 39 52 107v2q8 18 21.5 32.5t32.5 14.5q7 0 15 -3q26 -13 37 -40.5 t14 -53.5l1 -39q0 -51 -16 -83.5t-50 -79.5q-3 -4 -6 -9q-36 -50 -88 -75t-111 -34q-31 -4 -62 -4q-92 0 -180 31q-34 14 -50 52t-16 76q0 15 3 29q34 164 64 311q44 219 72 341q6 28 12 57q41 183 84 363q15 69 33 138l-10 9q-31 39 -31 88q0 27 10 50l6 14v6q0 -3 1 -3 l1 8l-2 4v2q-1 5 -3.5 11t-4.5 8q-8 17 -26.5 33.5t-40.5 24.5q-27 10 -54 10q-52 0 -99.5 -27.5t-82.5 -65.5q-6 -10 -14 -19q-4 -4 -7 -9q104 -99 111 -240v-17q0 -123 -79 -224.5t-210 -113.5h-2q-10 0 -19 7t-14 16q-54 105 -54 217zM109 259q0 -30 8 -60 q73 14 123 69.5t56 130.5l1 15q0 93 -66 171q-53 -83 -87 -173q-15 -37 -25 -75.5t-10 -77.5z" />
<glyph unicode="&#x101c;" horiz-adv-x="1465" d="M0 231q0 56 10.5 112t27.5 110q33 96 91 177.5t124 158.5q30 34 67 65.5t78.5 52.5t86.5 21q38 0 78 -19q62 -27 86.5 -81t24.5 -116q0 -46 -10 -91.5t-24 -81.5q-24 -55 -53 -103q-17 -30 -33 -61q-3 -6 -7 -12q-4 -7 -7 -14t-3 -17l-9 -17v-69q4 -8 7 -12t7 -6.5 t12 -6.5q29 -20 65 -20q25 0 50.5 6t48.5 14q153 36 267 137q103 93 155 224q4 12 7 20q5 10 8 19q1 3 1 8q3 9 5 19q2 4 3 8q1 6 1 12q6 35 6 77q0 71 -17 124q18 29 29 57q21 23 46 23q23 0 42 -13.5t24 -34.5q20 -80 20 -161q0 -138 -54 -269q-53 -126 -147 -224 q-32 -25 -52 -53v1q-79 -82 -198 -138q-51 -24 -113.5 -42.5t-124.5 -18.5q-51 0 -98 18q-76 35 -108.5 105.5t-37.5 144.5q0 80 25.5 145t60.5 130q9 17 17 34q13 18 32 51.5t19 62.5l-8 24q-3 7 -13 9t-22 2l-42 -2q-80 -32 -121 -103q-68 -63 -111 -138q-39 -54 -66 -117 t-27 -128l6 -57q13 -36 40 -74t65 -64.5t81 -26.5l28 2q20 0 28.5 -14t8.5 -33q0 -18 -7 -36.5t-20 -28.5q-44 -21 -87 -21q-69 0 -128 42.5t-95 107.5q-24 47 -35 97.5t-11 102.5z" />
<glyph unicode="&#x101d;" horiz-adv-x="986" d="M0 453q14 146 94 275.5t216 198.5q88 38 186 38q103 0 193.5 -46.5t128.5 -146.5q18 -55 18 -110q0 -81 -32 -160t-81 -150q-39 -56 -81 -106q-29 -38 -51 -63q-85 -88 -195 -152q-60 -38 -121 -51q-4 -2 -9 -3q-21 -8 -41.5 -13.5t-41.5 -5.5l-54 13q-21 12 -33 36.5 t-12 52.5l2 23l-26 43q-29 48 -42 102t-15.5 111.5t-2.5 113.5zM100 350q0 -77 29 -147q0 -12 26 -43q11 11 28.5 18t35.5 13q7 2 13 4q52 15 104 43q92 47 172 120q17 20 34 41q54 57 95 123q9 17 19 34q22 35 33 69l17 43q-3 0 -4.5 2t-2.5 4.5t-1.5 5t-0.5 4.5v2 q-22 38 -68 58.5t-87 27.5l-50 3q-40 0 -80.5 -9t-75.5 -29q-97 -47 -155 -138.5t-78 -197.5z" />
<glyph unicode="&#x101e;" horiz-adv-x="1510" d="M-24 186v12q0 35 10.5 79t35 76.5t64.5 32.5l14 -1q23 -5 35 -26t12 -46q0 -20 -8 -36.5t-24 -24.5q-5 -2 -7.5 -6t-4.5 -9q-2 -2 -3 -5v-1l2.5 -5t4.5 -6q1 -1 1 -2l7 -7t11 -8q22 -13 47 -13q24 0 49 7.5t48 15.5q7 3 14 5q173 61 298 195l22 26q14 32 39 57l4 2 q23 37 37.5 77t14.5 80q0 24 -6 48q-18 57 -64 91t-101 34q-32 0 -64 -14q-24 -11 -41 -29.5t-17 -45.5v-6q2 -34 24 -65.5t51 -46.5q3 -2 5 -6t2 -8t-2 -7.5t-7 -4.5q-15 -3 -31 -3q-19 0 -37 5t-30 17q-43 43 -57 100q-7 29 -7 57q0 55 25.5 103.5t73.5 80.5q61 38 131 38 q49 0 95 -21q62 -31 102 -86t59 -121q18 -62 18 -123q0 -91 -33.5 -177t-88.5 -161q14 -35 45 -61q56 -42 119 -42q70 0 137.5 38.5t111.5 92.5q75 98 94.5 226t19.5 250q1 9 1 18q0 31 14 65t50 38h1q33 0 50.5 -33.5t17.5 -62.5v-4q-3 -108 -13.5 -215.5t-40.5 -211.5 q-28 -97 -88 -186q0 -1 -2.5 -3.5t-5.5 -6.5t-5.5 -7t-2.5 -4q-58 -77 -138 -126t-178 -49l-23 1q-165 16 -241 164l-9 20q-95 -92 -215 -150q-63 -32 -133 -52q-5 -1 -10 -3l-42 -10t-43 -5l-22 2q-74 13 -120 69t-52 130zM90 245q0 -1 4 -5v3q0 3 -2 3zM94 221l1 1v2z" />
<glyph unicode="&#x1022;" horiz-adv-x="1445" d="M0 248l3 50q17 164 114.5 312t230.5 248q58 40 128 67t147 27q78 0 129.5 -46.5t77.5 -125.5q0 7 5 13.5t12 12.5q45 40 92.5 72t105.5 40l40 4q69 0 115.5 -45.5t70.5 -112.5t24 -130q0 -97 -19.5 -200.5t-58.5 -195.5q-31 -63 -69 -116l-28 -41q-69 -73 -171 -97 q-22 0 -32 21.5t-10 43.5q0 71 33 137t79 112l13 7q9 0 14.5 -12t5.5 -25l-7 -21l-8 -12q-28 -37 -44 -83q112 91 149.5 211t44.5 252q0 32 -10 63t-37 51q-33 26 -65 26q-28 0 -55.5 -15.5t-51.5 -36.5q-78 -54 -130 -121q-37 -278 -189 -482q-20 -25 -42 -25q-24 0 -43 23 t-19 52q8 133 43.5 252t120.5 241l9 17q0 32 -10 56.5t-42 37.5l-53 10q-39 0 -77.5 -13.5t-72.5 -28.5q-1 -1 -3 -2q-129 -69 -207 -189q-40 -53 -73.5 -114.5t-46.5 -126.5v-43q17 8 37 20q30 18 63.5 33.5t65.5 15.5l14 -1q30 0 49 -21.5t28 -51.5t9 -56 q0 -58 -23 -113.5t-63 -101.5l-24 -14q-23 0 -38.5 33t-15.5 57l9 45l-34 -26q-26 -11 -52.5 -19.5t-52.5 -8.5l-24 2q-16 6 -28 21.5t-23 32.5q-5 8 -9 15q-21 69 -21 139z" />
<glyph unicode="&#x102d;" d="M-756 1364q0 82 38 152q44 79 109 132.5t140.5 82.5t173.5 45q45 9 96 9q52 0 110 -13q59 -10 121 -61q29 -26 46.5 -66t18.5 -92q0 -65 -33 -150q-44 -113 -140 -222q-100 -104 -198 -150q-76 -32 -104 -32q-8 0 -10 2t-2 3q0 9 33 31q-28 -9 -64 -9q-72 0 -134 26.5 t-106 72.5q-84 95 -93 201q-2 19 -2 38zM-623 1335q0 -53 34 -108t110 -73q34 -7 92 -9q35 0 56 -12q9 -6 9 -16q0 -5 -2 -11q48 39 95 96q62 77 93 157q34 85 34 135q0 57 -41 75q-46 22 -112 22q-29 0 -63 -6q-49 -8 -76 -16q-48 -13 -103 -43q-46 -28 -81 -71t-43 -98 q-2 -10 -2 -22z" />
<glyph unicode="&#x102e;" d="M-651 1219q0 78 29 136q-1 17 -1 35q0 101 40 190q45 91 127 146t177 74q44 9 88 9q59 0 115 -18.5t100 -61.5q80 -85 80 -211v-16q1 -2 3 -2q10 -4 18 -21q11 -26 11 -53q0 -32 -16 -35h-6q-13 3 -27 5q-9 -35 -24 -67q-80 -179 -242 -278q-78 -48 -166 -70 q-59 -14 -107 -14q-107 0 -156 84q-43 73 -43 168zM-579 1176q6 -11 21 -21.5t31 -16.5q-28 27 -48 61q-4 -11 -4 -23zM-540 1260q14 -23 35 -41q64 -54 138 -54l25 2q41 6 75 32l3 1.5t3 0.5q4 0 9 -6q142 76 227 215q-26 3 -53 3q-58 0 -152 -18l-36 -7 q-187 -31 -274 -128zM-538 1452q49 36 106.5 58t112.5 34q37 7 62 9.5t64 2.5q118 0 220 -28l2 10q2 15 4 20q-29 43 -78 64q-67 29 -142 29q-125 0 -231 -67q-78 -51 -120 -132z" />
<glyph unicode="&#x102f;" d="M-805 -694q0 37 5 73l3 22q34 275 125 543l8 25q9 38 26.5 75.5t51.5 51.5q7 2 14 2q17 0 28 -13.5t14.5 -31t3.5 -33.5q0 -35 -21.5 -98t-44.5 -162q-48 -202 -64 -404q17 5 32.5 13.5t31.5 20.5q25 19 55 35q45 24 134 103q11 9 23 9q11 0 21.5 -7t16.5 -17 q11 -19 11 -39q0 -23 -12 -45q-45 -71 -101 -134q-42 -50 -79 -82q-75 -64 -140 -64q-67 0 -113 55q-29 41 -29 102z" />
<glyph unicode="&#x1030;" d="M-965 -807q1 8 155 715q24 58 76 58q28 0 70 -22q-138 -622 -155 -689q-6 -27 -19 -52.5t-44 -30.5h-5q-11 0 -30 3.5t-29 3.5q-16 0 -19 14zM-730 -774q0 37 5 73l3 22q34 275 125 543l8 25q9 38 26.5 75.5t51.5 51.5q7 2 14 2q17 0 28 -13.5t14.5 -31t3.5 -33.5 q0 -35 -21.5 -98t-44.5 -162q-48 -202 -64 -404q17 5 32.5 13.5t31.5 20.5q25 19 55 35q45 24 134 103q11 9 23 9q11 0 21.5 -7t16.5 -17q11 -19 11 -39q0 -23 -12 -45q-45 -71 -101 -134q-42 -50 -79 -82q-75 -64 -140 -64q-67 0 -113 55q-29 41 -29 102z" />
<glyph unicode="&#x1031;" horiz-adv-x="923" d="M0 368q0 174 104 336.5t300 236.5q82 29 171 29q82 0 157 -32q66 -32 108.5 -94.5t42.5 -130.5q0 -47 -26 -90t-57 -43q-26 0 -44 26.5t-18 54.5q2 16 4 24q2 6 2.5 11t0.5 12q0 22 -23 42q-52 36 -117 37l-31 1q-111 0 -205 -52t-155.5 -135.5t-77.5 -179.5 q-5 -24 -5 -54q0 -44 13 -91t45.5 -79t89.5 -32q149 15 241 123q19 22 34 51t15 59q0 34 -25.5 57.5t-57.5 23.5q-37 0 -71.5 -23t-54.5 -51q-13 -19 -27 -51t-14 -60q0 -27 20 -42q7 -5 11 -15t4 -21q0 -36 -34 -37q-38 0 -60 18.5t-31 48t-9 63.5q0 43 10 84t22 66 q21 43 56 82.5t80.5 65.5t97.5 26q47 0 98 -28q57 -35 82 -92.5t25 -120.5q-2 -43 -6.5 -70.5t-21.5 -64.5q-19 -45 -53 -87q-1 -1 -10.5 -11.5t-20.5 -22.5q-60 -61 -139 -101t-155 -40q-128 0 -211 111q-40 59 -57 126t-17 136z" />
<glyph unicode="&#x1035;" d="M-558 1313q0 147 84 271t224 169q40 12 83 12q73 0 131 -35t97 -93.5t56 -132.5q5 -21 5 -44q0 -24 -8.5 -44.5t-21.5 -20.5q-12 0 -22 19q-35 73 -101 114t-142 41q-84 0 -160.5 -53t-120.5 -135q-23 -44 -25 -76v4l1 -10l1 -5l-1 5q3 -12 7 -21l2 -5q24 -50 76.5 -79 t107.5 -30q47 0 95 22.5t73 68.5q3 6 4 9.5t1.5 6.5t1.5 6l-1 -3v8q1 -12 2 -12q-5 34 -26 53.5t-57 19.5q-37 0 -74 -22.5t-61 -53.5q-10 -14 -13.5 -26t-5.5 -27l-2 -12q-1 -16 -16 -18q-8 0 -12 12q-12 31 -12 61q0 59 33.5 112t80.5 87q44 35 93 35q47 0 78 -35.5 t46.5 -88t15.5 -101.5q0 -102 -57 -185q-63 -92 -190 -100q-93 0 -170 70q-100 97 -100 262z" />
<glyph unicode="&#x1036;" horiz-adv-x="3442" d="M-759 1400q0 16 3 33q11 59 53 103q66 61 148 61q48 0 94 -22q52 -27 86 -75.5t34 -105.5q0 -16 -3 -33q-12 -61 -54 -101q-53 -50 -120 -58q-24 0 -45 14q-42 25 -42 60q0 9 3 18q14 21 38 26l3 1q3 0 5.5 0.5t3.5 1.5l-7 -2l32 16l-5 -5v1l4 4q8 6 13 14q9 6 15 16 q3 6 3 8q6 10 9 20l2 4l-2 -5q2 16 3 33l-7 29l3 -6l-12 19l7 -8q-1 0 -3 2t-2 4l-1 1l-7 5l6 -4q-3 1 -7 4t-7 5q8 -7 10 -7v1q0 2 -4 4t-6 2.5t-3 0.5h3q1 -2 4 -2l3 -1l-15 4h8l2 -1l-4 -1l-8 2h4l-22 -4l7 2q-3 0 -7 -2t-7.5 -4t-9.5 -5t-7 -3l4 2l-1 -2 q-18 -14 -31 -31l1 2l-1 -1q-1 -1 -1.5 -2t-0.5 -2t-1 -1l-10 -21q-5 -12 -5 -16l1 5q-3 -19 -3 -31q4 -22 4.5 -24t2 -4t5.5 -8l3 -6q-1 0 -1.5 1l-1 2t-3.5 4l11 -12l-7 6l2 -1q1 -1 3.5 -3t5 -3.5t3.5 -1.5l-11 6l12 -6l-12 4l9 -1q10 0 16 1l-5 -3q6 4 12 6q14 7 30 7 q40 0 72 -33q17 -18 17 -40q0 -23 -24 -39q-38 -19 -79 -19q-58 0 -110.5 31.5t-78.5 85.5q-19 40 -19 84z" />
<glyph unicode="&#x1037;" d="M-851 -305q0 74 51 139q53 71 141 71q60 0 117 -37q61 -43 67 -142q0 -77 -53 -140q-69 -75 -159 -75l-32 2l11 3q34 9 55 26q36 24 59 71q11 28 11 54q0 50 -32 81.5t-56 31.5q-18 0 -35 -15.5t-22 -44.5q0 -19 6.5 -37t26.5 -35l16 -15q17 -15 26.5 -26t9.5 -26v-11 q0 -16 -23 -31q-41 -23 -69 -25q-38 0 -64 30.5t-39 72.5t-13 78z" />
<glyph unicode="&#x1038;" horiz-adv-x="541" d="M-43 204q0 75 49 141q54 71 139 71q58 0 114 -37q59 -44 65 -144q0 -77 -51 -141q-68 -76 -156 -76l-31 2l11 3q33 9 53 27q35 24 58 71q11 28 11 55q0 50 -31 82t-55 32q-18 0 -34.5 -15.5t-20.5 -44.5q0 -20 6 -37.5t26 -36.5l15 -14q17 -15 26 -26.5t9 -26.5l1 -11 q0 -16 -24 -31q-39 -24 -67 -26q-36 0 -61.5 31t-38.5 73.5t-13 78.5zM75 714q0 75 49 141q54 71 139 71q58 0 114 -37q59 -44 65 -144q0 -77 -51 -141q-68 -76 -156 -76q-13 0 -22 1l-9 1l11 3q33 9 53 26q35 25 58 72q11 28 11 55q0 50 -31 81.5t-55 31.5q-18 0 -34.5 -15 t-20.5 -45q0 -19 6 -37t26 -36l15 -15q17 -14 26 -26t9 -27l1 -10q0 -17 -24 -32q-39 -23 -67 -25q-36 0 -61.5 30.5t-38.5 73.5t-13 79z" />
<glyph unicode="&#x103a;" d="M-674 1116q0 56 13 112q56 222 233 367q96 78 213 117t240 45l46 1q102 0 201 -19q122 -19 231 -73q106 -56 197 -131.5t152 -180.5q17 -28 17 -59q0 -26 -14 -50q-15 -22 -34 -22q-20 0 -38 21q-67 76 -152 133q-93 60 -199 93q-202 75 -377 75l-41 -1 q-205 -9 -382 -115q-150 -95 -205 -260q-12 -43 -12 -87q0 -106 70 -205q10 -16 10 -35q0 -27 -17 -41q-7 -5 -15 -5q-7 0 -14 6q-61 66 -92 147t-31 167z" />
<glyph unicode="&#x103b;" horiz-adv-x="300" d="M-671 -497q0 135 71 259q100 162 304 292q7 4 13 4q18 0 32 -33q13 -29 13 -63q0 -42 -21 -62q-224 -205 -261 -317q-11 -42 -14 -74q2 -64 67 -114q45 -35 104 -35q35 0 55 16q12 9 16 23q71 244 194 834q102 492 149 607q23 56 81 86q25 13 51 13q41 0 57 -39 q7 -15 13 -44q4 -14 4 -29q0 -10 -3.5 -20.5t-8.5 -10.5q-6 0 -11 11q-10 -13 -21 -13q-35 -7 -47 -47q0 -14 -16 -68q-55 -198 -138 -619q-68 -362 -164 -730q-15 -58 -35 -108q-50 -128 -177 -128q-131 0 -220 127q-87 124 -87 282z" />
<glyph unicode="&#x103c;" horiz-adv-x="336" d="M5 182q0 382 136 744q59 156 150 307.5t214.5 273t280.5 189.5q115 49 235 49q108 0 212 -44q112 -52 194 -151t123 -214q7 -19 7 -40q0 -27 -16 -50q-14 -14 -29 -14q-18 0 -31 18q-29 46 -66 92q-62 74 -143 106q-15 6 -29 13q-93 44 -199 44q-151 0 -296 -89 q-186 -118 -310.5 -308.5t-189.5 -399.5q-84 -268 -84 -546q0 -213 51 -419q52 -225 190 -292q37 -16 77 -16q15 1 31 3t33 6l-6 -2q25 6 48 15q112 40 179 124q34 43 52.5 91t32.5 99q36 144 68 144q13 0 24 -20q26 -66 26 -137q0 -91 -33.5 -180t-85.5 -159 q-102 -137 -265 -186q-54 -15 -107 -15q-99 0 -188 64q-100 81 -154.5 202t-80.5 244q-51 224 -51 454z" />
<glyph unicode="&#x103d;" d="M-1074 -623q0 189 145 346q66 70 139 135q90 77 166 166q9 9 18 9q10 0 19 -7q23 -18 23 -54q0 -22 -10 -41l-1 -2q82 -21 148.5 -76.5t99 -130.5t32.5 -156q0 -134 -83 -256q-127 -167 -332 -248q-50 -20 -101 -20q-41 0 -81 17q-94 44 -138 132t-44 186zM-914 -593 q0 -78 70 -123q32 -19 65 -19q47 0 109 32q90 45 167 112q44 40 73.5 90t29.5 104q0 55 -39 108q-30 39 -71 67q-18 12 -41 25t-45 13q-21 0 -47 -17l-15 -7l-54 -59q-202 -199 -202 -326z" />
<glyph unicode="&#x104a;" horiz-adv-x="696" d="M93 22l235 859q8 30 42.5 45.5t69.5 15.5q36 0 61.5 -15.5t17.5 -45.5l-234 -859q-102 -44 -192 0z" />
<glyph unicode="&#x104b;" horiz-adv-x="1067" d="M94 26l276 855q10 31 45 46t70 15q36 0 61 -15t15 -46l-275 -855q-104 -44 -192 0zM428 26l276 855q10 31 45 46t70 15q36 0 61 -15t15 -46l-275 -855q-104 -44 -192 0z" />
<glyph unicode="&#x1062;" horiz-adv-x="451" d="M-37 89q0 14 2 25q40 175 106 343q39 106 62 178q23 81 57 156q-30 -5 -58 -23q-35 -26 -47 -67q-3 -14 -3 -28l1 -34q-1 -10 -2.5 -21.5t-7 -19.5t-15.5 -8q-6 0 -12 4q-21 14 -30 42.5t-10 72.5q0 135 99 202q61 36 127 36q23 0 45 -3.5t46.5 -11t42.5 -23.5 q34 -35 35 -83q0 -16 -3 -34q-9 -53 -63 -89q-21 -13 -34 -30q-13 -23 -21.5 -58.5t-34.5 -115.5q-57 -178 -94 -298q-27 -94 -68 -183q-18 -30 -47 -30q-40 0 -62 52q-10 24 -11 49z" />
<glyph unicode="&#x1075;" horiz-adv-x="1042" d="M-129 195q0 62 44.5 109.5t118.5 52.5q7 0 9 -15q0 -11 -6 -13q-19 -7 -42 -24q-59 -44 -59 -88q1 -18 15 -34q34 -36 98 -36q90 0 157 68q39 40 39 84q-1 28 -12 57l-4 13q-3 14 -8 27q-32 92 -32 170q0 95 42.5 180.5t129.5 144.5q95 65 201 65q115 0 198 -81 q114 -121 114 -322q0 -151 -59 -290q-41 -100 -108 -183q-19 -18 -31 -38l-1 1q-55 -61 -110 -61q-46 0 -72 55q-15 31 -15 76q0 39 19 70l14 19q14 21 41 44q40 30 92 96q26 35 62 108l1 -1q1 7 7 18q12 28 22 58l-1 61q-2 60 -24 93q-48 73 -147 73q-19 0 -37 -3 q-107 -22 -173 -109q-31 -43 -31 -85q0 -31 13 -68q6 -12 26 -96q11 -51 11 -106q0 -27 -5 -54q-23 -115 -116 -181q-72 -45 -155 -45q-60 0 -115 25.5t-88 81.5q-23 43 -23 83z" />
<glyph unicode="&#x1076;" horiz-adv-x="943" d="M0 125q0 56 24.5 113t55.5 95q54 64 126 110t149 77q51 22 112 41t121 19q34 0 66 -8q13 -4 25 -9q0 2 1 6v16l-1 21q-14 90 -92 143q-54 30 -115 30q-52 0 -101 -20q-27 -11 -52 -33q-2 -32 -7 -63q-8 -49 -18 -87q-3 -18 -12.5 -35.5t-28.5 -22.5l-8 -1 q-16 0 -27.5 11.5t-17.5 26.5q-23 55 -23 111q0 72 35 137q2 2 3 5q-6 11 -17 18q-32 18 -67 18l-15 -1q-20 -1 -35 -12q-4 -2 -7 -6t-7 -6q-2 -1 -3 -3q-1 -7 -4 -16q-5 -12 -14 -12q-3 0 -6 1q-16 8 -23 22t-7 31q0 25 12 50.5t28 39.5q21 18 48 26t55 8q23 0 45 -5 q47 -12 74 -41q11 -13 19 -27q10 7 21 14q73 41 155 41q54 0 105 -17.5t92 -51.5q62 -54 94.5 -130t34.5 -157v-14q0 -60 -18 -118q11 -29 11 -62l-1 -18q-4 -35 -22 -63t-52 -39q-5 -1 -10 -1q-11 0 -18 7q-3 -5 -7 -10q-57 -83 -133 -145q-14 -10 -25 -20 q-49 -37 -105 -65q-79 -39 -167 -53q-37 -7 -79 -7q-52 0 -97 19q-38 20 -54 52t-16 70zM133 168q4 -1 7 -2l15 -3l23 -1q46 0 92 10q118 29 211 107q64 53 112 120q-30 0 -59 -7q-140 -26 -263 -101q-43 -24 -83 -58q-33 -29 -55 -65z" />
<glyph unicode="&#x1077;" horiz-adv-x="1042" d="M0 213q0 62 44.5 109.5t118.5 52.5q6 0 9 -15q0 -10 -6 -13q-19 -7 -42 -24q-59 -44 -59 -88q2 -18 15 -34q35 -36 98 -36q90 0 157 68q39 41 39 84q-1 29 -12 57l-12 40q-32 92 -32 170q0 95 42.5 180.5t129.5 144.5q95 65 201 65q116 0 198 -81q114 -121 114 -322 q0 -151 -59 -290q-42 -99 -108 -183q-19 -18 -31 -38l-1 1q-54 -61 -110 -61q-31 0 -53 25q-5 3 -8 7q-68 90 -68 203q0 42 11 84q18 68 62 123q90 106 227 131q-1 44 -5.5 72.5t-19.5 51.5q-48 73 -147 73q-19 0 -37 -3q-107 -22 -173 -109q-31 -43 -31 -85q0 -30 13 -68 q6 -12 26 -96q12 -52 12 -106q0 -27 -6 -54q-23 -115 -116 -181q-72 -45 -155 -45q-60 0 -115 26t-88 81q-23 43 -23 83zM649 232q14 17 36 36q36 29 88 92q26 35 62 108l1 -1q3 10 11 29l12 29q-85 -24 -140 -90t-68 -155q-2 -18 -2 -36v-12z" />
<glyph unicode="&#x1078;" horiz-adv-x="1391" d="M10 63l1 19q24 241 102 470l32 91q0 23 14 36q46 121 133 209q67 61 142 61q38 0 74.5 -17t66.5 -52q53 -65 72 -151q36 53 77 98q46 51 104.5 87t126.5 45l23 1q64 0 118 -33.5t88 -88.5q30 -48 43.5 -102.5t13.5 -111.5q0 -106 -38.5 -211t-97.5 -187q-21 -30 -47 -57 v-2q-9 -3 -15 -11q-4 -5 -6 -10v3q-62 -60 -139 -97t-160 -37q-66 0 -132 28q-88 41 -142.5 128t-54.5 182q0 47 15.5 91t48.5 82q11 11 24 11q22 0 38 -21q1 -1 1 -3q0 -1 1 -2q7 34 7 70l-1 20q-1 35 -12 74.5t-33.5 68t-59.5 28.5q-20 0 -45 -11q-36 -17 -61 -49t-43 -66 q-41 -81 -70 -168q-1 -78 -18 -155q-6 -28 -15 -56q-17 -46 -20 -92q0 -42 -17 -82.5t-38 -77.5l-6 -12q-16 -25 -39 -25q-15 0 -28 10q-16 13 -22 33.5t-6 41.5zM602 268q29 -22 64.5 -32t72.5 -10l26 1q104 11 179.5 78t119.5 158q18 35 32 81t14 91t-22 80.5t-78 47.5 q-16 3 -32 3q-58 0 -108.5 -35t-90.5 -84.5t-66 -95.5q-51 -94 -82 -195q-10 -32 -21 -66z" />
<glyph unicode="&#x107a;" horiz-adv-x="1426" d="M0 263q0 172 120 400l-26 9q-6 2 -6 10q0 10 13 10q21 0 35 -2q52 91 124 160q104 95 226 95q74 0 143 -47q61 -47 91 -119q31 -66 31 -167q15 -29 15 -71l1 -4l-1 -4q0 -41 -12 -97q-15 -97 -32 -182q3 -14 9 -26q30 -66 106 -66q68 0 127 48q61 55 94 136 q65 163 65 336q0 24 -2 50.5t-2 53.5q0 105 30 150q13 19 34 21q14 0 30 -10q48 -32 55 -118q8 -61 8 -122q-2 -95 -17 -182q6 6 10 12l1 -1l-11 -13q-4 -28 -12 -57q-45 -204 -146 -337l-18 -23q-38 -45 -92.5 -76t-113.5 -31q-38 0 -76 16q-71 36 -104 104 q-79 -394 -168 -884q24 -3 47 -3q112 0 182 66l3 1.5t1 2.5q37 38 52 109q21 47 55 47q8 0 16 -3q27 -12 38 -39q14 -38 14 -97q0 -50 -16 -82.5t-49 -77.5l-8 -11q-37 -51 -89 -77q-79 -39 -178 -39q-92 0 -180 32q-34 14 -50 52t-16 75q0 17 3 31l23 111q87 413 157 724 q63 290 98 423q-5 3 -10 9q-32 40 -32 91q0 27 10 49q8 16 8 20q0 6 -1.5 9.5t-2.5 8.5q-3 10 -4 11q-21 39 -69 59q-28 10 -56 10q-52 0 -99 -27q-64 -37 -106 -95q105 -99 114 -244q0 -137 -79 -241.5t-214 -117.5q-24 0 -37 23q-54 106 -54 218zM111 249q0 -31 8 -62 q74 14 125.5 70.5t56.5 147.5q0 93 -66 171q-54 -83 -89 -173t-35 -154zM1101 128q1 -9 3 -17v21z" />
<glyph unicode="&#x107b;" horiz-adv-x="1517" d="M0 385q0 119 52 229q107 229 329 351q138 74 229 74q99 0 163 -77q77 -92 84 -221l44 60q94 119 196 159q46 18 91 18q74 0 122 -59q37 -53 47 -121t10 -137q0 -48 -5 -88l1 1v-2h-1q-18 -222 -144 -417q-40 -61 -70.5 -92t-64.5 -31q-19 0 -39 15.5t-29.5 43t-9.5 55.5 q-26 54 -28 113v14q0 104 61 179q34 41 82 65q53 28 112 28q16 75 16 157l-1 27l1 18q0 30 -8 51l-3 3q-10 11 -19.5 16t-32.5 6q-40 0 -81 -21q-100 -51 -195 -198q-46 -71 -86 -145q-147 -275 -364 -448q-15 -11 -32 -11q-39 0 -60 56q-44 -16 -92 -16q-28 0 -58 7 q-78 23 -131 87q-86 104 -86 251zM126 356q0 -70 51 -113t120 -43q28 0 46.5 2.5t36.5 6.5t43 8q80 91 152 191t123 212q27 64 27 115q0 98 -102 103q-27 0 -55 -9q-139 -40 -247.5 -129.5t-165.5 -222.5q-29 -71 -29 -121zM1060 282q0 -27 5 -52q0 -1 2 -1q17 11 35 39 q32 37 64 98t53 127q-14 0 -26 -4l-20 -7q-27 -12 -50 -36q-53 -55 -62 -140z" />
<glyph unicode="&#x107c;" horiz-adv-x="1468" d="M0 255q0 84 46 147t135 89q114 30 232 46q7 25 12.5 51t5.5 52q0 35 -14 67q-18 37 -52.5 58t-74.5 21t-68.5 -19.5t-55.5 -44.5q-29 -30 -67 -53l-6 -1q-8 0 -12.5 9.5t-4.5 17.5l1 5q16 81 75 143q74 85 169 85q55 0 100.5 -30t76 -76t42.5 -96t12 -102q0 -33 -4 -66 q34 5 69 8q30 115 95.5 214.5t162.5 163.5t224 71q91 0 155 -60.5t64 -151.5q0 -63 -40.5 -115.5t-100.5 -52.5q-34 0 -71 21q-16 11 -24 32.5t-8 46.5q0 28 11.5 53t33.5 32q-5 1 -10.5 1h-9.5q-113 -6 -197.5 -76t-128.5 -166h25q76 0 149.5 -11t133 -43.5t94.5 -95.5 q32 -59 32 -132q0 -42 -13 -88.5t-40 -80.5l-18 -23q-50 -56 -120.5 -86t-143.5 -30q-75 0 -140 34.5t-103 108.5q-23 49 -32 103t-9 108l1 32q-43 -3 -85 -10q-24 -76 -61 -143.5t-100 -126.5q-36 -34 -84 -64t-99 -30q-29 0 -58 13q-40 22 -60 63.5t-29 82.5 q-13 47 -13 95zM129 254q1 1 1 1.5v0.5q1 0 1 0.5v0.5v1zM132 246q4 -15 5 -22q2 -7 3 -10t1.5 -5t1.5 -4t3 -8h4q1 0 3 -0.5t6 -0.5h6q23 4 44 17q78 46 127 124l-3 -1q-5 -1 -9 -2q-75 -11 -145 -39q-17 -7 -26 -13.5t-19 -20.5v1h-1l-1 -3h1l-1 1v-14zM723 357l2 -63 q2 -5 3.5 -12.5t2.5 -13.5q0 -7 1 -9q5 -27 38 -53q43 -26 93 -26q52 0 106.5 23.5t88.5 62.5q7 8 9.5 12t4.5 11q1 2 2 5v10v-1.5t1 -1.5q-1 1 -1 2v2v2q-3 7 -4 9t-1 3t-1 2t-3 4q-25 30 -68.5 44t-93.5 18t-92 4t-83 -3l-4 -1z" />
<glyph unicode="&#x107d;" horiz-adv-x="1339" d="M5 252q0 52 19 102t64 84q38 28 82 42q25 10 50 22q61 32 101.5 89t43.5 128q0 17 -3 34q-1 2 -1 5q-5 7 -7 10t-4 4.5t-6 2.5q-3 2 -11 6l-5 2q-11 5 -19.5 7.5t-22.5 3.5q-30 0 -53 -4t-47 -19q-29 -17 -53 -43q-25 -27 -61 -50q-1 -1 -2 -1h-2q-8 0 -11 10t-3 19 q26 110 121 177q26 19 55.5 31t61.5 12q96 -9 135.5 -68t39.5 -154q0 -88 -35.5 -171t-103.5 -143q-50 -38 -107 -61q-64 -26 -98 -63v-2q-1 -1 -1 -2t-0.5 -2.5t-2.5 -3.5q1 0 1 -1v-3l-1 -5l2 -15l-3 9l4 -20q2 -4 2 -9q35 -18 57 -23t59 -7q50 0 90.5 22.5t75.5 58 t70 76.5l22 26q5 155 71.5 294t194.5 225q47 30 104.5 50.5t115.5 20.5q42 0 81 -14t71 -46q53 -62 53 -137q0 -58 -36 -106t-95 -48q-25 0 -51 14q-21 13 -30.5 34t-9.5 44l1 18q3 21 16 40t34 19l13 -2l12 1q-26 10 -55 10q-76 0 -147 -41t-123.5 -104t-74.5 -132 q32 23 57 30t62 9q38 0 77.5 -8t74.5 -18q70 -21 112 -75l4 4l-4 -5q55 -72 55 -159q0 -111 -89 -196q-2 -1 -4 -3l-4 -4q-3 -2 -4 -3l-2 -2q-102 -78 -215 -78q-93 0 -155.5 48.5t-90.5 133.5q-36 -44 -77.5 -82t-90.5 -62t-107 -24l-27 2q-49 3 -105 24.5t-80 68.5 q-2 8 -4 15q-1 10 -7 30q-14 52 -14 101zM614 288l2 -15q1 -12 3 -20t9 -22q17 -31 55 -45.5t74 -14.5q75 0 142 43q47 24 67 63q1 1 1 2v2q0 2 1 3v4l1 -3v6v1.5t-1 2.5q-1 1 -2 3q-16 32 -59.5 49.5t-90.5 22.5q-31 6 -58 6q-42 0 -73.5 -23.5t-63.5 -57.5z" />
<glyph unicode="&#x107e;" horiz-adv-x="1360" d="M-64 -418q0 87 31 169q6 12 15 12q14 0 24.5 -15.5t16 -36.5t5.5 -37l-2 -55q-3 -31 -3 -67q0 -34 3 -69q0 -59 52 -116q76 -76 170 -76q50 0 97 28q62 43 93 113.5t47 141.5q34 138 59 255q23 104 54 234q-52 47 -75 120q-38 -44 -79.5 -82t-90 -61.5t-107.5 -23.5 l-25 1q-49 3 -105 24.5t-80 68.5q-4 9 -5 18.5t-6 26.5q-14 51 -14 99q0 53 20 104q34 89 143 125q27 9 52 22q138 75 144 224q0 24 -6 36q-7 6 -10 9t-6 4.5t-8 4.5h-1q-23 14 -55 14h-4q-79 0 -146 -71q-24 -26 -55 -45l-5 -2q-7 0 -10.5 9.5t-3.5 19.5q26 111 121 179 q55 42 116 42q176 -11 176 -221q0 -89 -35 -172q-63 -148 -216 -206q-66 -24 -92 -60q-3 -3 -5 -10l1 -4l-1 -5q1 -8 1 -17q0 -5 5 -17v-1q55 -30 112 -30q52 0 93.5 23.5t78 60t71.5 79.5l17 20q6 154 72.5 293t194.5 225q46 30 103.5 50.5t115.5 20.5q93 0 151 -60 q53 -62 53 -137q0 -59 -36.5 -106.5t-94.5 -47.5q-26 0 -51 14q-20 13 -30 33.5t-10 43.5l2 19q3 22 16 40.5t34 18.5q6 0 12 -2l12 1q-27 10 -55 10q-52 0 -118 -27q-162 -73 -226 -249q50 38 121 38q61 0 149 -26q69 -21 113 -75q55 -72 55 -158t-47 -150t-121 -99.5 t-158 -37.5q-37 0 -69 10l-26 -122q-17 -74 -32 -149q-33 -160 -74 -317q-22 -88 -64.5 -169.5t-126.5 -123.5q-43 -19 -86 -19q-69 0 -131.5 37t-106.5 91q-53 68 -80.5 160t-27.5 183zM619 286q0 -2 0.5 -2t1.5 -4.5t2 -12.5q3 -18 10 -32q1 -3 4 -5q14 -22 39 -35 q39 -21 84 -21q38 0 75 12q100 34 136 94q1 4 1.5 5t0.5 7l1 -3l-1 5l1 2l-4 6q-65 105 -152 105q-38 0 -70 -16q-52 -24 -86 -57l-2 -2q-14 -14 -18.5 -18t-22.5 -23v-5z" />
<glyph unicode="&#x107f;" horiz-adv-x="985" d="M0 439q0 125 52.5 243.5t147.5 208.5t168 90q51 0 84.5 -49t33.5 -105q0 -40 -14 -81q-27 -72 -54 -89q-16 -17 -34 -32q-93 -70 -201 -70l-25 1q-20 -58 -20 -120q0 -130 94 -205q40 -32 74 -32q32 0 69 19q128 56 192.5 159t82.5 215q16 105 16 190q0 54 6.5 105.5 t34.5 97.5q17 22 41 22q20 0 36 -20q44 -72 44 -185q0 -70 -16 -201l-3 -27l-1 -1q-34 -239 -174 -397v-1q-104 -109 -221 -152q-58 -23 -99 -23q-86 8 -146 61q-83 68 -125.5 170t-42.5 208zM196 639q2 -1 5 -1t4 -1h30q7 2 14 2q1 1 3 1l23 8l22 10v1q36 22 61 61 q3 33 27 70l1 5q-7 7 -16 7q-22 0 -68 -42q-63 -51 -106 -121zM809 574l2 3q0 -2 -0.5 -2t-1.5 -1z" />
<glyph unicode="&#x1081;" horiz-adv-x="969" d="M-369 -407q0 90 33 174q6 12 15 12q12 0 24 -14q23 -36 23 -74v-7q-5 -60 -5 -120q0 -36 3 -72q2 -28 19 -65q10 -25 36 -53q80 -78 177 -78q51 0 100 29q64 44 97 116t49 145q32 130 61 259l36 156l-13 -2l1 5l-18 -1q-52 0 -98 23.5t-78 68.5q-74 115 -74 274 q0 47 7 95q28 180 147 325q120 140 293 172q33 6 69 6q68 0 134.5 -28t110.5 -97q57 -94 57 -218q0 -146 -78 -327l-4 -12q-12 -28 -22 -59q-13 -39 -17 -46l-2 -3q-17 -37 -45 -37h-4q-36 7 -46 49q-4 22 -4 43q0 51 15 97q6 28 14 54q5 27 30 117q22 80 24 122v29 q-1 22 -15 54q-40 70 -149 70q-139 0 -253 -99q85 -8 142 -68q70 -72 96 -164q16 -59 16 -117q0 -153 -101 -261l-13 -11q-13 -62 -28 -124q-18 -81 -35 -163q-35 -170 -79 -337q-22 -91 -67 -174.5t-132 -126.5q-44 -19 -89 -19q-71 0 -136 38q-128 74 -182 219 q-42 113 -42 225zM137 362q0 -52 14 -101q29 -101 110 -101q27 0 54 12q0 2 1.5 4t2.5 2.5t2.5 1t3 1.5t3.5 2q40 25 58.5 68.5t18.5 89.5q0 62 -29 114q-53 94 -137 99q-30 0 -61 -15q-1 0 -1 -1q-40 -88 -40 -176z" />
<glyph unicode="&#x1082;" d="M-774 -457q0 68 28 142t77 137l13 16q32 44 77 75q55 43 102 46l19 1q18 0 26 -19q2 -7 2 -14q0 -20 -16 -32q-20 -12 -39 -30q-73 -63 -122 -167q-43 -85 -43 -143q0 -13 1 -21q1 0 1 -1q1 -2 2 -5t2 -4.5t16 -14.5q16 -8 28 -10.5t39 -2.5q70 0 152 32l99 40 q19 7 38 18l21 10q40 20 57 20q23 0 39 -20q17 -27 17 -60q0 -29 -13 -50q-91 -123 -273 -165q-58 -13 -108 -13q-61 0 -110 19q-124 54 -132 209v7z" />
<glyph unicode="&#x1083;" horiz-adv-x="459" d="M-149 -572q0 87 28 207q50 203 110 404l151 525q15 58 34.5 115.5t49.5 109.5q-11 20 -35.5 33.5t-54.5 21t-60 9.5q6 -44 46 -83l1 -2q0 -2 -2 -4.5t-4.5 -4t-4.5 -1.5q-41 7 -74 37.5t-33 69.5q0 24 19 42q36 36 124 36q32 0 63 -6t62 -17q24 -8 50 -12q17 -3 35 -8 t18 -22v-4q-9 -46 -27 -92q-22 -63 -55 -190q-62 -238 -129 -476q-49 -176 -95 -352q-32 -120 -32 -205q0 -99 44 -171q40 -62 107.5 -91.5t141.5 -29.5q57 0 112 17q48 16 77 37q81 61 178 277q11 24 32.5 45t46.5 32q12 5 24 5q23 0 23 -23q-7 -83 -42.5 -161.5 t-86.5 -144.5q-127 -166 -291 -234q-99 -40 -205 -40q-76 0 -146 25.5t-120 82.5q-80 97 -80 243z" />
<glyph unicode="&#x1084;" horiz-adv-x="901" d="M10 213q0 58 33.5 113.5t76 103t94.5 88.5q-84 83 -84 179l1 22q10 68 59.5 126t124.5 94q119 54 246 54q132 0 256 -48t212 -127q33 -25 33 -46q0 -5 -6 -10.5t-15 -5.5q-19 0 -46 19q-149 87 -316 87q-80 0 -155.5 -22.5t-137.5 -70t-87 -108.5q-11 -28 -11 -57 q0 -6 4 -32q68 42 146 73q11 4 22 4q41 0 79 -36t43 -63l1 -13q0 -51 -51 -80t-114 -29q-18 0 -36 2q-40 -27 -75 -58q-126 -110 -152 -216q-4 -13 -4 -27q0 -12 5 -22h1q24 -16 78 -16q23 0 40 2q106 16 182 76q-5 6 -7 11l-2 17q0 44 52 74q5 3 12 3q20 0 44 -17 q36 -24 68 -52q36 -28 36 -53q0 -8 -6 -15q-149 -159 -320 -159q-106 4 -192 52t-120 123q-12 30 -12 60z" />
<glyph unicode="&#x1085;" d="M-576 1156q0 45 26 87.5t58.5 79t72.5 68.5q-65 65 -65 139l1 16q21 109 142 170q92 42 190 42q102 0 197.5 -37.5t163.5 -98.5q24 -19 24 -35q0 -4 -4 -8t-12 -4q-14 0 -35 14q-115 67 -243 67q-62 0 -120 -17.5t-106 -53.5t-67 -84q-9 -21 -9 -43q0 -5 4 -25 q52 32 112 56q8 3 17 3q31 0 60.5 -27.5t33.5 -48.5l1 -10q0 -40 -39.5 -62t-88.5 -22q-14 0 -27 2q-31 -22 -58 -45q-97 -85 -118 -167q-2 -10 -2 -21q0 -9 3 -17h1q19 -12 60 -12q18 0 32 2q81 12 139 59q-3 4 -4 9t-2 12q0 34 39 57q5 3 10 3q24 0 86 -54q28 -21 28 -40 q0 -7 -5 -13q-115 -122 -246 -122q-82 3 -148 40t-93 95q-9 23 -9 46z" />
<glyph unicode="&#x1086;" horiz-adv-x="3" d="M-558 1190q0 11 2 26t5 26.5t7 11.5q3 0 5 -5t3.5 -11t1.5 -8l-2 -18q0 -44 34.5 -71t81.5 -27q37 0 80 10t70 36q65 67 96 126t40 108t9 84q0 41 -9 63l-9 22q-27 31 -60 31q-30 0 -60 -17.5t-42 -55.5q16 -16 32 -21.5t39 -5.5q17 0 37 6l7 3q14 0 21 -14.5t11 -27.5 l1 -3q4 -17 4 -37q0 -42 -29.5 -74t-75.5 -32q-48 0 -89 38q-64 57 -64 165q0 102 59.5 176.5t150.5 74.5q67 0 114 -43.5t71 -110t24 -135.5q0 -113 -40.5 -207.5t-114.5 -163.5q-39 -36 -94.5 -67t-113.5 -35h-17q-23 0 -45.5 2.5t-41.5 12.5q-39 23 -65 58 q-34 53 -34 110z" />
<glyph unicode="&#x1087;" horiz-adv-x="555" d="M-150 -136q0 10 2 23.5t4.5 23.5t5.5 10t5 -4.5t3 -9.5t1 -8l-2 -16q0 -39 31.5 -63t72.5 -24q74 0 120 45q58 60 90 111q54 90 54 169q0 36 -8 56l-8 20q-25 28 -54 28q-27 0 -54 -15.5t-37 -50.5q14 -14 28.5 -19t34.5 -5q16 0 33 6l7 2q18 0 29 -37l1 -3q3 -15 3 -33 q0 -37 -26.5 -66t-67.5 -29q-42 0 -80 34q-56 51 -56 148q0 90 52.5 157t134.5 67q60 0 101.5 -39t63.5 -98.5t22 -120.5q0 -101 -42 -183.5t-109 -144.5q-34 -32 -78 -61.5t-95 -33.5h-16q-21 0 -40.5 2.5t-37.5 11.5q-34 20 -57 51q-31 48 -31 99z" />
<glyph unicode="&#x1088;" horiz-adv-x="631" d="M-150 -136q0 10 2 23.5t4.5 23.5t5.5 10t5 -4.5t3 -9.5t1 -8l-2 -16q0 -39 31.5 -63t72.5 -24q74 0 120 45q58 60 90 111q54 90 54 169q0 36 -8 56l-8 20q-25 28 -54 28q-27 0 -54 -15.5t-37 -50.5q14 -14 28.5 -19t34.5 -5q16 0 33 6l7 2q18 0 29 -37l1 -3q3 -15 3 -33 q0 -37 -26.5 -66t-67.5 -29q-42 0 -80 34q-56 51 -56 148q0 90 52.5 157t134.5 67q60 0 101.5 -39t63.5 -98.5t22 -120.5q0 -101 -42 -183.5t-109 -144.5q-34 -32 -78 -61.5t-95 -33.5h-16q-21 0 -40.5 2.5t-37.5 11.5q-34 20 -57 51q-31 48 -31 99zM82 713q0 79 54 148 q57 75 150 75q63 0 124 -39q65 -46 71 -151q0 -81 -56 -148q-73 -80 -169 -80l-34 2l12 3q36 10 58 28q38 26 63 75q12 30 12 58q0 53 -34 86t-60 33q-19 0 -37 -16t-23 -47q0 -20 7 -39t28 -38l17 -15q18 -16 28 -28t10 -28v-11q0 -17 -25 -33q-43 -25 -73 -27 q-40 0 -67.5 32.5t-41.5 77t-14 82.5z" />
<glyph unicode="&#x1089;" horiz-adv-x="506" d="M-83 213q0 79 54 148q57 75 150 75q63 0 124 -39q65 -46 71 -151q0 -81 -56 -148q-73 -80 -169 -80l-34 2l12 3q36 10 58 28q38 26 63 75q12 30 12 58q0 53 -34 86t-60 33q-19 0 -37 -16t-23 -47q0 -20 7 -39t28 -38l17 -15q18 -16 28 -28t10 -28v-11q0 -17 -25 -33 q-43 -25 -73 -27q-40 0 -67.5 32.5t-41.5 77t-14 82.5z" />
<glyph unicode="&#x108a;" horiz-adv-x="717" d="M-80 186q0 64 46 113.5t112 49.5t113.5 -49.5t47.5 -118.5q0 -12 -2 -25l1 -7q-1 -2 -1 -3.5v-2.5v-1.5t-0.5 -1.5t-0.5 -4q72 37 113 103t41 144l-1 22q0 2 2 2q5 0 18 -14.5t24.5 -42.5t11.5 -70q-1 -39 -10.5 -71.5t-36.5 -67.5q-43 -49 -70 -66q-25 -18 -44 -27.5 t-47 -18.5q-29 -12 -95 -20h-10q-16 0 -31 3l-17 -1q-47 0 -84 26t-58.5 66t-21.5 83zM19 155q1 -4 2 -6t1.5 -2.5t1.5 -0.5l5 -5q5 -2 7 -3q2 -2 3.5 -2.5t3 -0.5t5.5 -1q2 0 6 -1h13q19 0 32.5 7t26.5 27l-1 -3q4 7 5.5 11.5l2.5 7.5q0 4 1.5 8t4.5 10l1 11q-2 4 -3 5.5 t-2 2t-2 0.5q-4 1 -7 3q-4 2 -8.5 3.5t-14.5 1.5q-43 0 -73 -40l-1 -1l-5 -10q-2 -3 -2.5 -4.5l-1 -3t-0.5 -5.5q0 -3 -1 -9zM39 753q0 65 46.5 114.5t111.5 49.5q66 0 113.5 -49.5t47.5 -118.5l-1 -39l-2 -6q72 36 113 102t41 144l-1 22q0 2 0.5 2.5t1.5 0.5 q5 0 18.5 -14.5t25 -43t11.5 -70.5q-1 -38 -10.5 -70.5t-37.5 -67.5q-42 -50 -70 -67q-24 -18 -43.5 -27t-46.5 -19q-30 -12 -96 -20h-10q-15 0 -31 4q-8 -1 -17 -1q-46 0 -83.5 26t-59 66t-21.5 82zM138 722q2 -4 2.5 -5.5t1 -2l1.5 -1.5q1 0 2 -1l3 -3q5 -3 7 -4t3.5 -1.5 l3 -1t4.5 -0.5q2 -1 7 -1h13q19 0 32.5 7t26.5 26l-1 -2q1 2 2 3q2 5 4 9t2 8q1 3 2 7t4 9l1 11l-3 6t-1.5 2.5t-1.5 0.5h-2.5t-3.5 1q0 4 -7.5 5t-16.5 1q-44 0 -73 -40h-1v-1q-5 -7 -8 -16q0 -1 -0.5 -2.5t-1.5 -1.5z" />
<glyph unicode="&#x1090;" horiz-adv-x="1119" d="M0 456q0 81 11 147q17 160 49 302.5t104 262.5q78 125 200 194q112 65 231 65q27 0 55 -4q169 -27 269.5 -170.5t106.5 -327.5l2 -50q0 -152 -38 -329l-3 -9q-6 -28 -25 -88q-60 -177 -193 -303q-85 -80 -202 -122q-57 -19 -117 -23l-28 -1q-46 0 -89 10q-111 27 -178 90 l-18 17q-46 32 -74 82q-32 54 -46 111.5t-16 108.5zM189 458q0 -50 11 -97q18 -80 74 -162q22 -32 33 -65q33 -6 67 -6q42 0 84 12q80 23 142 76q121 102 174 270l6 15q27 83 40 165q16 100 19 205q0 117 -34 201q-43 101 -119 143q-44 23 -93 23q-31 0 -63 -9 q-86 -25 -155 -97q-66 -68 -104.5 -182.5t-58.5 -270.5l-7 -49q-16 -111 -16 -172z" />
<glyph unicode="&#x1091;" horiz-adv-x="597" d="M0 0l41 263q23 145 40 231t51 223q34 141 77 281l16 50l-3 -1v11q0 24 -39 55l-21 18q-14 13 -14 30q0 28 48 70q41 35 110 73.5t145.5 70t145.5 60.5l-97 -253q-40 -104 -68 -183q-56 -160 -91.5 -279t-64.5 -242q-16 -67 -42 -201q-1 -5 -5 -13l-4 -10q0 -2 1.5 -2.5 t6.5 -4.5q10 -8 19 -14q23 -14 50 -41q10 -11 10 -24q0 -29 -59 -65q-44 -27 -112.5 -54.5t-140.5 -48.5z" />
<glyph unicode="&#x1092;" horiz-adv-x="1024" d="M0 102q0 41 16 81q26 70 75 133q109 143 339 266l22 13q84 43 156.5 94t123.5 115q75 100 75 211q0 40 -10 79q-21 76 -70 120q-25 20 -51 29q-20 5 -40 5q-79 -4 -149 -61l-8 -7q-23 -18 -52 -57l-27 -51q-3 -6 -6.5 -12t-7.5 -15l-109 -339l-54 235q-32 139 -47 278 l-1 30q0 9 2 16q1 16 7 29q9 28 30 42q11 7 23 7q28 0 54 -29q10 -10 18 -22q3 -3 5 -7t5 -4q6 0 8 2l2 1l35 34q85 76 205 103q31 6 64 6q103 0 180 -53q105 -79 143 -191q31 -84 31 -171q0 -26 -3 -51q-14 -116 -73.5 -210.5t-140 -161.5t-166.5 -115q-36 -22 -152 -78 q-117 -52 -230 -136q-52 -43 -91 -93.5t-48 -84.5l-2 -17q0 -9 5.5 -17t18.5 -11q4 -1 8 -2.5t4 -7.5q0 -8 -15 -20q-9 -7 -24 -7q-16 0 -34.5 10t-30.5 32q-13 29 -13 60z" />
<glyph unicode="&#x1093;" horiz-adv-x="1250" d="M0 51q0 69 66 175q164 255 321.5 510t321.5 510q53 82 116 135.5t115 53.5h7q41 -5 41 -64q0 -68 -55 -162q-105 -162 -208 -316q16 -8 29 -18q39 -30 58 -67q27 -54 39 -133l4 -23q20 -130 49 -230q21 -82 78 -174q18 -33 54 -65q42 -37 94 -37q27 0 59 12q15 6 27 6 q18 -1 18 -25q0 -15 -10 -37q-14 -27 -46 -50q-46 -33 -109 -33q-73 0 -132 35q-64 41 -75 59q-116 148 -160 395q-11 54 -21 110l-9 53q-9 56 -27 66h-1q-3 4 -13 5q-4 0 -9 -2q-168 -250 -340 -513q-35 -54 -77.5 -106t-85.5 -86.5t-78 -34.5h-6q-35 4 -35 51z" />
<glyph unicode="&#x1094;" horiz-adv-x="1485" d="M4 69q0 68 38 147l570 1148q21 35 51 51l2 2q19 8 35 10h23q16 -2 29 -6l14 -8q13 -4 32 -28q9 -12 15 -34q6 -38 9 -80l60 -687l11 -150l9 -139l-1 -1l-2 -14l12 1l89 38q101 44 190 78q155 62 202 62q15 0 15 -6v-2q-15 -46 -351 -245q-109 -63 -142 -81l-151 -82 q-31 254 -32.5 263t-5.5 47q-13 87 -15 116l-51 588l-414 -831q-38 -78 -92 -149t-107 -77q-42 0 -42 69z" />
<glyph unicode="&#x1095;" horiz-adv-x="1064" d="M-33 390q0 147 108 277q40 47 112 96q68 45 161.5 74t195.5 29h24q33 0 67 -6l62 343q13 77 47 152q35 78 96 88q32 0 52 -35q26 -48 26 -114q0 -27 -5 -53l-80 -431q142 -55 213 -140q30 -36 31 -52v-4.5t-1.5 -4t-6.5 -1.5q-14 0 -49 20q-101 52 -206 78l-58 -317 q-10 -50 -25.5 -103t-44 -106.5t-82.5 -100.5q-93 -79 -224 -79q-42 0 -85 10q-86 18 -165 71q-83 57 -127 147q-29 61 -34 124l-1 10q-1 12 -1 28zM169 374q0 -30 11 -65q6 -22 22 -45q25 -34 64 -54q52 -27 98 -27q96 0 145 99q33 69 49 167l51 276q-203 -16 -321 -128 q-75 -70 -100 -131q-19 -48 -19 -92z" />
<glyph unicode="&#x1096;" horiz-adv-x="1004" d="M11 982q4 110 50 194q86 151 237 214q99 45 210 45q161 0 264 -98q65 -71 69 -147l1 -27q0 -47 -10 -86t-22 -73q-8 -22 -14 -43l-100 -303q126 25 225 110q29 27 45 27q5 0 7.5 -2.5t3.5 -13.5q0 -17 -10 -44.5t-36 -60.5q-37 -49 -109 -92.5t-171 -62.5l-96 -292 q-24 -76 -68.5 -147.5t-105.5 -79.5q-68 0 -71 118q0 42 13 86l105 321q-127 30 -212 97q-76 56 -115 109q-82 114 -89 228zM224 972q1 -41 18 -91q13 -38 52 -88q69 -82 182 -125q51 152 69 208.5t52 159.5q17 49 27 89q6 26 6 47q0 24 -5 36q-11 24 -51 36q-25 7 -57 7 q-22 0 -47 -5q-97 -18 -176 -101q-32 -34 -51 -79t-19 -94z" />
<glyph unicode="&#x1097;" horiz-adv-x="1099" d="M0 10l50 88l693 1142l-290 -1q-66 0 -137 16t-92 62q-3 8 -3 16q0 37 50.5 62.5t112.5 27.5l688 4l-753 -1242l-5 -4l3 -4q8 0 11 -1q20 -5 68 -12l32 -6q186 -38 282 -38q68 0 129 13q30 7 47 7t17 -8q0 -7 -8 -18.5t-21.5 -23t-31.5 -23.5q-104 -67 -303 -67 q-94 0 -181 8l-31 2q-63 4 -99 4l-46 1q-42 0 -73 -2z" />
<glyph unicode="&#x1098;" horiz-adv-x="1029" d="M0 345q0 98 49 190.5t142 166.5q31 28 135 81l-18 19q-67 64 -118 160q-41 83 -41 166q0 31 7 64q24 121 131 198q60 40 118 40q36 0 54 -17q11 -12 11 -26q0 -17 -20 -51l-64 -110q-28 -48 -28 -96l1 -25q17 -115 167 -239q68 24 130.5 54.5t107 72.5t64.5 93.5 t20 102.5q0 42 -12 81q-17 61 -35 103q-17 35 -17 51q0 11 8 11q12 0 43 -25t68 -75q47 -59 66 -156q3 -23 3 -48q0 -76 -39 -157q-53 -102 -153 -168q-58 -40 -114 -66q82 -76 130 -176q38 -81 38 -168q0 -60 -20 -119q-59 -147 -210 -222q-72 -38 -163 -51q-29 -4 -60 -4 q-67 0 -134 22q-98 33 -168 112.5t-78 187.5zM207 347q0 -75 55.5 -118.5t120.5 -43.5q22 0 44 4q96 21 154 87q45 52 45 121q0 48 -23 99q-32 70 -127 154l-73 -38q-80 -43 -126 -96q-70 -83 -70 -169z" />
<glyph unicode="&#x1099;" horiz-adv-x="1134" d="M0 209q9 125 91 229q70 85 146 139q51 35 100 62q-51 42 -84 84q-44 60 -53 90q-28 73 -28 146q0 54 13 101q30 111 93 190q128 160 310 193q41 8 82 8q139 0 244 -82q120 -106 120 -273v-20q-9 -156 -106 -278q-98 -114 -230 -187q-3 0 -5 -2l38 -27q98 -66 161 -171 q45 -84 45 -179l-1 -25q-19 -129 -78 -170q-14 -10 -20 -10q-7 1 -7 9q0 10 6 30q14 51 14 107q0 64 -35 133t-109 118q-70 47 -152 86l-28 15q-50 -25 -100 -53q-163 -88 -220 -205q-15 -31 -20 -59q-5 -24 -5 -58q3 -40 13.5 -65t12.5 -45q0 -17 -17 -29q-12 -8 -34 -8 q-17 0 -39 7q-52 20 -87 77q-31 57 -31 122zM361 948q0 -68 65 -145q33 -38 85 -75l5 2q329 155 329 363q0 147 -147 167q-14 2 -28 2q-45 0 -93 -16.5t-91 -52.5q-51 -40 -88 -104t-37 -141z" />
<glyph unicode="&#x109e;" horiz-adv-x="819" d="M16 1497q0 82 60 139q57 56 137 56q41 0 77 -14.5t62.5 -41t42 -61.5t15.5 -78t-15.5 -78t-42 -60.5t-62.5 -40.5t-77 -15q-82 -3 -139 57q-58 55 -58 137zM78 1035l344 5v-1607h276v-160h-432l-2 1612l-145 -21q-134 41 -41 171zM143 1497q0 -14 6.5 -27.5t15.5 -22.5 t22.5 -15.5t25.5 -6.5q31 0 54.5 21.5t23.5 50.5q0 35 -23.5 54.5t-54.5 19.5t-50.5 -18.5t-19.5 -55.5z" />
<glyph unicode="&#x109f;" horiz-adv-x="1401" d="M-6 555q0 111 69 208t185 152q97 43 197 43q135 0 253.5 -69t175.5 -191q53 -124 53 -293q0 -111 -24 -421l-24 -343q-4 -44 -4 -88q0 -27 3 -54q11 -97 69 -104q32 0 53 47t21 139l-1 77l3 202l6 594q2 105 2 284q0 84 -18 171t-80 158q-29 31 -63.5 46t-73 19t-78.5 4 l-47 -1l-58 2q-99 7 -182.5 48t-135.5 121q-45 76 -45 152q0 124 97 223.5t239 124.5q38 6 76 6q164 0 295 -98t157 -257l1 -11q0 -29 -21.5 -42.5t-49.5 -13.5q-37 0 -72 19.5t-41 53.5q-10 76 -57.5 134.5t-132.5 71.5q-17 2 -33 2q-77 0 -144 -40.5t-101 -105.5 q-24 -48 -24 -100q0 -48 24 -87.5t78 -53.5q43 -8 88 -8l83 2l29 -1q100 -4 190 -42q112 -53 174 -140.5t87.5 -193.5t25.5 -214l1 -119q0 -189 -4 -378q-3 -135 -4 -271q-3 -190 -4 -381v-8q0 -65 -17 -131t-79 -111q-56 -34 -120 -34q-93 0 -175 56q-126 89 -128 268v30 q0 100 14 238q7 71 34 484q4 47 4 104q0 156 -45 255q-58 128 -203 128q-84 0 -159 -47q-68 -43 -110.5 -108.5t-42.5 -137.5q0 -28 7 -55q22 -77 79 -120t129 -43q60 0 121 33q18 9 38 9q41 0 79 -28.5t38 -61.5q0 -25 -32 -46q-97 -51 -200 -51q-119 0 -227 60t-170 162 q-48 86 -48 172z" />
<glyph unicode="&#x1e0c;" horiz-adv-x="1454" d="M-41 1133.5q0 11.5 2 15.5q78 213 285 260q94 21 252 21h420q290 0 431.5 -158t141.5 -402q0 -59 -10 -137q-39 -241 -182.5 -419.5t-348.5 -266.5t-444 -88q-445 0 -445 227q0 246 435 1104q20 41 30 58q-161 -13 -329 -72t-220 -148q-2 -6 -10 -6t-8 11.5zM218 -270 q0 49 59 96t136 47q113 0 113 -69q0 -8 -5 -30q-31 -6 -90 -64t-78 -93q-135 44 -135 113zM283 175q0 -79 41 -103.5t145 -24.5q285 0 508 191.5t289 478.5q22 94 22 180q0 199 -117 330q-65 71 -178.5 105t-212.5 34q-98 -129 -234 -425t-220 -558q-43 -129 -43 -208z" />
<glyph unicode="&#x1e0d;" horiz-adv-x="975" d="M57 182q0 144 62.5 291.5t179.5 250.5t253 103t187 -90q58 113 118.5 260.5t79.5 191.5t28.5 64.5t23.5 38.5q23 29 54.5 36t102.5 8t85 3q-68 -49 -177.5 -275t-193.5 -477t-84 -364q0 -65 35 -65t87 45t74.5 75.5t60.5 93t65.5 108.5t31.5 46q15 0 15 -39 q-2 -71 -170 -299q-55 -73 -133 -136.5t-142 -63.5q-108 0 -108 162q0 118 59 305q-94 -187 -215 -324t-241 -137q-138 0 -138 188zM244 -270q0 49 59 96t136 47q113 0 113 -69q0 -8 -5 -30q-31 -6 -90 -64t-78 -93q-135 44 -135 113zM256 227q0 -63 49 -63q166 0 424 549 q-24 37 -82 37q-92 0 -185 -93.5t-149.5 -215.5t-56.5 -214z" />
<glyph unicode="&#x1e36;" horiz-adv-x="1167" d="M-20 1145q0 4 17 55t64.5 106.5t106.5 82.5q100 41 248 41h465q-84 -64 -216.5 -301.5t-258 -521t-125.5 -404.5q0 -133 145 -133q594 0 709 233q4 6 10 6q14 0 14 -20q0 -4 -4 -25q-57 -178 -168 -225q-59 -25 -111.5 -32t-134.5 -7h-620q-82 0 -82 115q0 293 489 1175 q37 60 39 64q-174 -4 -353 -70.5t-208 -159.5q-2 -6 -8 -6q-18 0 -18 27zM218 -270q0 49 59 96t136 47q113 0 113 -69q0 -8 -5 -30q-31 -6 -90 -64t-78 -93q-135 44 -135 113z" />
<glyph unicode="&#x1e37;" horiz-adv-x="504" d="M34 -270q0 49 59 96t136 47q113 0 113 -69q0 -8 -5 -30q-31 -6 -90 -64t-78 -93q-135 44 -135 113zM63 143q0 154 138 537q10 33 47 137.5t63.5 162.5t71.5 154.5t87 154t93 116.5q101 119 217.5 119t116.5 -107q0 -82 -47 -168q-74 -149 -225.5 -338.5t-272.5 -304.5 l-33 -94q-24 -72 -46.5 -174t-20.5 -145q0 -62 45 -62t107.5 51t91 89t66.5 99.5t65.5 106.5t31.5 45q13 0 13 -38t-21 -72q-112 -191 -182 -269q-141 -155 -291 -155q-115 0 -115 155zM393 723q281 330 383 541q58 129 58 169t-27 40h-14q-125 0 -400 -750z" />
<glyph unicode="&#x1e40;" horiz-adv-x="1720" d="M78 0q117 299 334 788.5t264 581.5q-187 0 -364 -73.5t-208 -172.5q-2 -6 -8 -6q-16 0 -16 27q0 4 16.5 55t62.5 106.5t107 82.5q101 41 248 41h260q62 0 97.5 -20.5t50 -97.5t28 -354.5t13.5 -390t-5 -153.5q293 366 758 919q82 97 262 97h127q-92 -72 -278 -443 q-277 -557 -277 -801q0 -112 72 -112q33 0 80 26h2q6 0 6 -10q0 -39 -103.5 -73.5t-168.5 -34.5q-138 0 -138 149q0 260 418 1051q-82 -78 -110 -111q-197 -219 -586 -725q-82 -104 -112.5 -131t-81 -27t-115.5 31q51 66 51 398.5t-41 605.5q-74 -138 -266.5 -611 t-192.5 -594q0 -14 2 -18h-188zM1254 1645q0 57 68 111t156 54q130 0 130 -79q0 -10 -6 -35q-35 -6 -103 -72.5t-90 -107.5q-155 50 -155 129z" />
<glyph unicode="&#x1e41;" horiz-adv-x="1362" d="M-45 0q22 86 49 154l133 340q82 204 82 299q0 20 -4 26h86q70 0 90.5 -13t20.5 -35.5t-25 -104.5q180 163 361 163q108 0 108 -90q0 -39 -22 -96q186 186 383 186q106 0 106 -90q0 -41 -14.5 -77.5t-37 -95t-36.5 -96.5t-33 -93q-39 -113 -39 -167t34 -54t85 45 t76.5 77.5t63.5 93t64.5 105.5t31.5 45q12 0 12 -38t-21 -72q-75 -127 -137.5 -212t-142.5 -148.5t-146 -63.5q-120 0 -120 139q0 162 129 461q28 76 28 104q0 41 -37 41q-22 0 -77.5 -26.5t-105.5 -80t-81 -98.5t-67.5 -135t-49.5 -127q-59 -184 -79 -266h-201 q106 295 146 397.5t48 126.5l19 58q22 65 22 108t-39 43q-32 0 -88.5 -28.5t-109.5 -84t-89 -128t-57.5 -126t-44 -130t-40 -125t-35.5 -111.5h-199zM896 1049q0 49 59 96t136 47q113 0 113 -69q0 -8 -5 -30q-31 -6 -90 -64t-78 -93q-135 44 -135 113z" />
<glyph unicode="&#x1e42;" horiz-adv-x="1720" d="M78 0q117 299 334 788.5t264 581.5q-187 0 -364 -73.5t-208 -172.5q-2 -6 -8 -6q-16 0 -16 27q0 4 16.5 55t62.5 106.5t107 82.5q101 41 248 41h260q62 0 97.5 -20.5t50 -97.5t28 -354.5t13.5 -390t-5 -153.5q293 366 758 919q82 97 262 97h127q-92 -72 -278 -443 q-277 -557 -277 -801q0 -112 72 -112q33 0 80 26h2q6 0 6 -10q0 -39 -103.5 -73.5t-168.5 -34.5q-138 0 -138 149q0 260 418 1051q-82 -78 -110 -111q-197 -219 -586 -725q-82 -104 -112.5 -131t-81 -27t-115.5 31q51 66 51 398.5t-41 605.5q-74 -138 -266.5 -611 t-192.5 -594q0 -14 2 -18h-188zM742 -260q0 57 68 111t156 54q130 0 130 -79q0 -10 -6 -35q-35 -6 -103 -72.5t-90 -107.5q-155 50 -155 129z" />
<glyph unicode="&#x1e43;" horiz-adv-x="1362" d="M-45 0q22 86 49 154l133 340q82 204 82 299q0 20 -4 26h86q70 0 90.5 -13t20.5 -35.5t-25 -104.5q180 163 361 163q108 0 108 -90q0 -39 -22 -96q186 186 383 186q106 0 106 -90q0 -41 -14.5 -77.5t-37 -95t-36.5 -96.5t-33 -93q-39 -113 -39 -167t34 -54t85 45 t76.5 77.5t63.5 93t64.5 105.5t31.5 45q12 0 12 -38t-21 -72q-75 -127 -137.5 -212t-142.5 -148.5t-146 -63.5q-120 0 -120 139q0 162 129 461q28 76 28 104q0 41 -37 41q-22 0 -77.5 -26.5t-105.5 -80t-81 -98.5t-67.5 -135t-49.5 -127q-59 -184 -79 -266h-201 q106 295 146 397.5t48 126.5l19 58q22 65 22 108t-39 43q-32 0 -88.5 -28.5t-109.5 -84t-89 -128t-57.5 -126t-44 -130t-40 -125t-35.5 -111.5h-199zM610 -236q0 49 59 96t136 47q113 0 113 -69q0 -8 -5 -30q-31 -6 -90 -64t-78 -93q-135 44 -135 113z" />
<glyph unicode="&#x1e44;" horiz-adv-x="1311" d="M78 0q117 299 334 788.5t264 581.5q-187 0 -364 -73.5t-208 -172.5q-2 -6 -8 -6q-16 0 -16 27q0 4 16.5 55t62.5 106.5t107 82.5q101 41 248 41h346q-29 -48 -29 -115q0 -152 117 -426q107 -256 126.5 -326.5t24.5 -93.5t7 -53.5t4 -38.5q27 65 457 1053q4 10 37.5 10 t89 -6.5t63.5 -6.5q-82 -53 -230.5 -343.5t-264 -607t-115.5 -439.5q0 -27 4 -37h-129q-6 119 -42 208t-54.5 133t-63.5 146.5t-80 184.5q-106 248 -120 422q-136 -301 -267 -637t-131 -439q0 -14 2 -18h-188zM1177 1645q0 57 68 111t156 54q130 0 130 -79q0 -10 -6 -35 q-35 -6 -103 -72.5t-90 -107.5q-155 50 -155 129z" />
<glyph unicode="&#x1e45;" horiz-adv-x="893" d="M-43 0q0 43 180 494q74 211 74 294q0 21 -6 31h86q71 0 91.5 -14t20.5 -39t-22 -100q172 163 346 163q117 0 117 -106q0 -35 -10.5 -70t-51.5 -139q-90 -229 -90 -307q0 -49 37 -49q27 0 75 36.5t79.5 76.5t69.5 100.5t64.5 105.5t31.5 45q12 0 12 -38t-21 -72 q-75 -127 -137.5 -212t-142.5 -148.5t-146 -63.5q-120 0 -120 133t153 534q8 19 8 39q0 43 -54 43t-106.5 -33.5t-95.5 -96t-77.5 -127t-64.5 -148.5t-47 -140.5t-34.5 -121t-19.5 -70.5h-199zM568 1062q0 49 59 96t136 47q113 0 113 -69q0 -8 -5 -30q-31 -6 -90 -64 t-78 -93q-135 44 -135 113z" />
<glyph unicode="&#x1e46;" horiz-adv-x="1311" d="M78 0q117 299 334 788.5t264 581.5q-187 0 -364 -73.5t-208 -172.5q-2 -6 -8 -6q-16 0 -16 27q0 4 16.5 55t62.5 106.5t107 82.5q101 41 248 41h346q-29 -48 -29 -115q0 -152 117 -426q107 -256 126.5 -326.5t24.5 -93.5t7 -53.5t4 -38.5q27 65 457 1053q4 10 37.5 10 t89 -6.5t63.5 -6.5q-82 -53 -230.5 -343.5t-264 -607t-115.5 -439.5q0 -27 4 -37h-129q-6 119 -42 208t-54.5 133t-63.5 146.5t-80 184.5q-106 248 -120 422q-136 -301 -267 -637t-131 -439q0 -14 2 -18h-188zM515 -307q0 57 68 111t156 54q130 0 130 -79q0 -10 -6 -35 q-35 -6 -103 -72.5t-90 -107.5q-155 50 -155 129z" />
<glyph unicode="&#x1e47;" horiz-adv-x="893" d="M-43 0q0 43 180 494q74 211 74 294q0 21 -6 31h86q71 0 91.5 -14t20.5 -39t-22 -100q172 163 346 163q117 0 117 -106q0 -35 -10.5 -70t-51.5 -139q-90 -229 -90 -307q0 -49 37 -49q27 0 75 36.5t79.5 76.5t69.5 100.5t64.5 105.5t31.5 45q12 0 12 -38t-21 -72 q-75 -127 -137.5 -212t-142.5 -148.5t-146 -63.5q-120 0 -120 133t153 534q8 19 8 39q0 43 -54 43t-106.5 -33.5t-95.5 -96t-77.5 -127t-64.5 -148.5t-47 -140.5t-34.5 -121t-19.5 -70.5h-199zM218 -270q0 49 59 96t136 47q113 0 113 -69q0 -8 -5 -30q-31 -6 -90 -64 t-78 -93q-135 44 -135 113z" />
<glyph unicode="&#x1e6c;" horiz-adv-x="819" d="M0 1114q0 96 45 164t123 102q147 66 325.5 66t403.5 -21.5t409.5 -21.5t239.5 57q6 -14 6 -28q0 -68 -86 -108t-227 -40l-289 12q-20 0 -135 -244.5t-199 -474t-84 -331t65 -101.5t163 134q10 12 20.5 12t10.5 -18.5t-28 -67.5t-73 -105.5t-116.5 -100.5t-147.5 -44 q-113 0 -113 156q0 192 195 655q139 326 256 541h-27l-211 4q-176 0 -307 -45q-72 -25 -114 -73t-42 -116l17 -86q0 -20 -21 -20q-26 0 -42.5 52t-16.5 91zM218 -270q0 49 59 96t136 47q113 0 113 -69q0 -8 -5 -30q-31 -6 -90 -64t-78 -93q-135 44 -135 113z" />
<glyph unicode="&#x1e6d;" horiz-adv-x="510" d="M56 -274q0 49 59 96t136 47q113 0 113 -69q0 -8 -5 -30q-31 -6 -90 -64t-78 -93q-135 44 -135 113zM78 353.5q0 25.5 27.5 83t75.5 149.5t79 168h-137q-6 0 -6 9t15 31.5t24 22.5h155q148 354 299 354q88 0 99 3q-101 -70 -226 -357h207l2 -2q0 -10 -22.5 -35.5 t-38.5 -25.5h-176q-162 -402 -162 -516q0 -78 49 -78q72 0 168 123q22 26 59 90q95 151 99 151q12 0 12 -32q-2 -78 -170 -304q-55 -73 -133 -136.5t-141 -63.5q-117 0 -117 164q0 137 65 315v2q-39 -72 -66.5 -106.5t-31.5 -34.5q-8 0 -8 25.5z" />
<glyph unicode="&#x2000;" horiz-adv-x="924" />
<glyph unicode="&#x2001;" horiz-adv-x="1848" />
<glyph unicode="&#x2002;" horiz-adv-x="924" />
<glyph unicode="&#x2003;" horiz-adv-x="1848" />
<glyph unicode="&#x2004;" horiz-adv-x="616" />
<glyph unicode="&#x2005;" horiz-adv-x="462" />
<glyph unicode="&#x2006;" horiz-adv-x="308" />
<glyph unicode="&#x2007;" horiz-adv-x="308" />
<glyph unicode="&#x2008;" horiz-adv-x="231" />
<glyph unicode="&#x2009;" horiz-adv-x="369" />
<glyph unicode="&#x200a;" horiz-adv-x="102" />
<glyph unicode="&#x2010;" horiz-adv-x="1004" d="M313 467q0 10 39 66.5t58 56.5h571q2 0 2 -10.5t-38 -66.5t-58 -56h-572q-2 0 -2 10z" />
<glyph unicode="&#x2011;" horiz-adv-x="1004" d="M313 467q0 10 39 66.5t58 56.5h571q2 0 2 -10.5t-38 -66.5t-58 -56h-572q-2 0 -2 10z" />
<glyph unicode="&#x2012;" horiz-adv-x="1004" d="M313 467q0 10 39 66.5t58 56.5h571q2 0 2 -10.5t-38 -66.5t-58 -56h-572q-2 0 -2 10z" />
<glyph unicode="&#x2013;" horiz-adv-x="1108" d="M56 419v120h996v-120h-996z" />
<glyph unicode="&#x2014;" horiz-adv-x="2048" d="M0 419v120h2048v-120h-2048z" />
<glyph unicode="&#x2018;" horiz-adv-x="557" d="M186 1233q0 109 71 226.5t139 117.5v-43q-73 -43 -87 -190q0 -119 129 -161v-42l-119 -125q-44 0 -88.5 65.5t-44.5 151.5z" />
<glyph unicode="&#x2019;" horiz-adv-x="557" d="M119 1410v42l119 125q44 0 88.5 -65.5t44.5 -151.5q0 -109 -71 -226.5t-139 -117.5v43q73 43 87 190q0 119 -129 161z" />
<glyph unicode="&#x201a;" horiz-adv-x="557" d="M119 114v42l119 125q44 0 88.5 -65.5t44.5 -151.5q0 -109 -71 -226.5t-139 -117.5v43q73 43 87 190q0 119 -129 161z" />
<glyph unicode="&#x201c;" horiz-adv-x="910" d="M186 1233q0 109 71 226.5t139 117.5v-43q-73 -43 -87 -190q0 -119 129 -161v-42l-119 -125q-44 0 -88.5 65.5t-44.5 151.5zM539 1233q0 109 71 226.5t139 117.5v-43q-73 -43 -87 -190q0 -119 129 -161v-42l-119 -125q-44 0 -88.5 65.5t-44.5 151.5z" />
<glyph unicode="&#x201d;" horiz-adv-x="910" d="M119 1410v42l119 125q44 0 88.5 -65.5t44.5 -151.5q0 -109 -71 -226.5t-139 -117.5v43q73 43 87 190q0 119 -129 161zM472 1410v42l119 125q44 0 88.5 -65.5t44.5 -151.5q0 -109 -71 -226.5t-139 -117.5v43q73 43 87 190q0 119 -129 161z" />
<glyph unicode="&#x201e;" horiz-adv-x="910" d="M119 114v42l119 125q44 0 88.5 -65.5t44.5 -151.5q0 -109 -71 -226.5t-139 -117.5v43q73 43 87 190q0 119 -129 161zM472 114v42l119 125q44 0 88.5 -65.5t44.5 -151.5q0 -109 -71 -226.5t-139 -117.5v43q73 43 87 190q0 119 -129 161z" />
<glyph unicode="&#x2020;" horiz-adv-x="1014" d="M71 1001q0 57 27.5 94.5t71.5 37.5q32 0 137 -56q85 -46 179 -55q-8 97 -54 178q-57 101 -57 129q0 49 36 78.5t96 29.5q57 0 94.5 -27.5t37.5 -71.5q0 -32 -55 -137q-46 -85 -55 -179q96 8 177 54q101 57 129 57q49 0 79 -36t30 -96q0 -57 -27.5 -94.5t-72.5 -37.5 q-32 0 -136 55q-85 46 -179 57q8 -176 110 -277q-106 -460 -112 -974h-38q-6 514 -114 974q102 101 111 277q-96 -10 -178 -55q-101 -57 -129 -57q-49 0 -78.5 36t-29.5 96z" />
<glyph unicode="&#x2021;" horiz-adv-x="1014" d="M70 166q0 60 29.5 96t78.5 36q28 0 129 -57q82 -45 178 -55q-9 226 -111 398q102 171 111 397q-96 -10 -178 -55q-101 -57 -129 -57q-49 0 -78.5 36t-29.5 96q0 57 27.5 94.5t71.5 37.5q32 0 137 -56q85 -46 179 -55q-8 97 -54 178q-57 101 -57 129q0 49 36 78.5t96 29.5 q57 0 94.5 -27.5t37.5 -71.5q0 -32 -55 -137q-46 -85 -55 -179q96 8 177 54q101 57 129 57q49 0 79 -36t30 -96q0 -57 -27.5 -94.5t-72.5 -37.5q-32 0 -136 55q-85 46 -179 57q8 -226 110 -397q-102 -172 -110 -398q94 11 179 57q104 55 136 55q45 0 72.5 -37.5t27.5 -94.5 q0 -60 -30 -96t-79 -36q-28 0 -129 57q-81 46 -177 54q9 -94 55 -179q55 -105 55 -137q0 -44 -37.5 -71.5t-94.5 -27.5q-60 0 -96 29.5t-36 78.5q0 28 57 129q46 81 54 178q-94 -9 -179 -55q-105 -56 -137 -56q-44 0 -71.5 37.5t-27.5 94.5z" />
<glyph unicode="&#x2022;" horiz-adv-x="1024" d="M216 718q0 123 87 209t210 86q122 0 208.5 -86.5t86.5 -208.5t-87.5 -209.5t-209.5 -87.5q-123 0 -209 87t-86 210z" />
<glyph unicode="&#x2026;" horiz-adv-x="2048" d="M229 68q0 36 44 71t102 35q84 0 84 -51q0 -6 -4 -23q-23 -4 -67 -47t-58 -69q-101 32 -101 84zM912 68q0 36 44 71t102 35q84 0 84 -51q0 -6 -4 -23q-23 -4 -67 -47t-58 -69q-101 32 -101 84zM1595 68q0 36 44 71t102 35q84 0 84 -51q0 -6 -4 -23q-23 -4 -67 -47t-58 -69 q-101 32 -101 84z" />
<glyph unicode="&#x202f;" horiz-adv-x="369" />
<glyph unicode="&#x2039;" horiz-adv-x="631" d="M174 479l342 303h14v-37l-205 -266l205 -266v-37h-14z" />
<glyph unicode="&#x203a;" horiz-adv-x="631" d="M101 176v37l205 266l-205 266v37h14l342 -303l-342 -303h-14z" />
<glyph unicode="&#x2044;" horiz-adv-x="342" d="M-342 -29l940 1461h84l-938 -1461h-86z" />
<glyph unicode="&#x205f;" horiz-adv-x="462" />
<glyph unicode="&#x20a3;" horiz-adv-x="1014" d="M48 0v50h96q103 0 103 235v72h-194v60h194v732q0 235 -103 235h-96v50h915l103 -231h-49q-59 182 -190 182l-316 -1q-102 0 -102 -235v-352h361q100 0 100 63v58h50v-342h-50v60q0 62 -100 62h-361v-281h194v-60h-194v-72q0 -235 102 -235h97v-50h-560z" />
<glyph unicode="&#x20a4;" horiz-adv-x="1014" d="M76 733v60h113q-36 107 -36 193q0 226 123.5 347t310.5 121q75 0 185.5 -14t110.5 -34v-161h-38q-5 61 -72 97t-185 36h-2q-100 0 -187 -97t-87 -245q1 -136 34 -243h380v-60h-360q12 -30 26 -60h352v-60h-321q35 -63 35 -138q0 -161 -162 -375h402q130 0 189 132l49 -1 l-103 -231h-719l1 50q187 238 187 418q0 77 -34 143l-2 2h-172v60h143q-14 31 -26 60h-135z" />
<glyph unicode="&#x20a7;" horiz-adv-x="2028" d="M48 0v50h96q103 0 103 235v864q0 235 -103 235h-96v50h618q92 -2 181 -62q91 -62 143 -177q50 -113 51 -237h10q216 0 216 355h50v-355h259q42 19 110 20h2q54 0 133.5 -13.5t79.5 -33.5v-159h-42q-4 66 -65.5 108t-133.5 42q-64 0 -102.5 -36.5t-38.5 -96.5 q0 -108 235 -220q122 -55 167.5 -117.5t45.5 -153.5q0 -140 -83 -231q-102 -84 -228 -86q-58 0 -105 11q-28 6 -56 6q-18 0 -36 -3q-28 -5 -59 -5q-124 0 -173.5 57t-57.5 176h-1v687h-129q-7 -101 -48 -194q-50 -114 -141 -177.5t-190 -63.5q-100 0 -191 64q-33 22 -60 51 v-305q0 -235 102 -235h97v-50h-560zM409 722q3 -9 7 -17q41 -102 108 -153q57 -44 116 -44q10 0 19 1q68 8 127 75t87 177q22 87 22 179q0 24 -1 47q-7 116 -49.5 218.5t-108.5 144.5q-56 35 -112 35q-10 0 -21 -1h-194v-662zM1317 223q0 -81 34 -119q28 -31 81 -37l-71 192 l49 1q55 -130 114 -174q57 -44 127 -44h7q92 0 151 52q59 53 59 136q0 102 -259 226q-101 52 -144 112t-43 145q0 121 73 194l1 1h-179v-685z" />
<glyph unicode="&#x20ac;" horiz-adv-x="1014" d="M-44 653l17 60h87v29q0 16 1 31h-71l17 60h58q14 225 170.5 438t429.5 213q63 0 120 -21.5t71 -21.5t28 45h41l84 -281l-40 -1q-49 124 -149 176.5t-171 52.5q-177 0 -313 -176.5t-143 -423.5h706l-17 -60h-692q0 -30 2 -60h674l-17 -60h-652q17 -228 157.5 -415 t334.5 -188q156 3 228 92.5t72 183.5h48v-143q0 -70 -108 -125.5t-240 -57.5q-271 0 -441 203.5t-184 449.5h-108z" />
<glyph unicode="&#x2116;" horiz-adv-x="2271" />
<glyph unicode="&#x2122;" horiz-adv-x="1497" />
<glyph unicode="&#x2202;" horiz-adv-x="1014" d="M77 477q0 131 58 251t161 185t211 65q109 0 212 -65q29 -18 54 -41q-84 235 -233.5 377t-326.5 155v55q306 0 515 -285t209 -697q0 -132 -56.5 -251t-159 -185t-214.5 -66t-214.5 66t-159 185t-56.5 251zM232 537q0 -41 5 -79q14 -122 61.5 -230t118.5 -165 q64 -53 128 -53q6 0 13 1q70 5 127.5 70.5t80.5 179.5q16 73 16 149q0 42 -5 85q-14 122 -62.5 231.5t-119.5 165.5q-65 50 -128 50h-11q-68 -5 -126 -69.5t-82 -178.5q-16 -84 -16 -157z" />
<glyph unicode="&#x2206;" horiz-adv-x="1081" d="M6 0l541 1434l526 -1434h-1067zM108 123h801l-395 1072z" />
<glyph unicode="&#x220f;" horiz-adv-x="1515" d="M48 -367h96q103 0 103 235v1281q0 235 -103 235h-96v50h1419v-50h-97q-102 0 -102 -235v-1281q0 -235 102 -235h97v-50h-560v50h96q103 0 103 235v1281q0 235 -103 235h-492q-102 0 -102 -235v-1281q0 -235 102 -235h97v-51h-560v51z" />
<glyph unicode="&#x2211;" horiz-adv-x="1206" d="M120 -366q62 0 106 53l663 781l-663 859q-44 57 -106 57v50h921l103 -232h-49q-59 182 -189 182h-485l638 -836l-788 -914h635q130 0 189 182h49l-103 -232h-921v50z" />
<glyph unicode="&#x2212;" horiz-adv-x="1014" d="M87 647v140h839l1 -1v-139h-840z" />
<glyph unicode="&#x221a;" horiz-adv-x="1014" d="M17 359l74 35l85 -185l728 1470h150v-60h-72l-801 -1619z" />
<glyph unicode="&#x221e;" horiz-adv-x="1014" d="M66 717q0 126 58.5 215t140.5 89q132 0 185 -194q19 108 88 181.5t156 73.5q107 0 182 -105t75 -260t-80 -260t-177 -105q-67 0 -137 59t-107 196q-63 -194 -185 -194q-82 0 -140.5 83.5t-58.5 220.5zM80 689q2 -66 45 -116t115 -50q66 0 116.5 45t82.5 187 q-15 83 -57.5 119t-100.5 36q-82 0 -141.5 -68.5t-59.5 -152.5zM466 687q12 -96 87.5 -148.5t129.5 -52.5q81 0 165 79.5t84 183.5q-2 91 -58 146t-145 55q-82 0 -156.5 -54.5t-106.5 -208.5z" />
<glyph unicode="&#x222b;" horiz-adv-x="665" d="M-72 -93h36q1 -43 34.5 -64.5t63.5 -21.5h1q82 0 115 162q32 162 40 316l70 734l8 62q27 238 135 429.5t234 191.5q60 0 60 -29v-159h-36q-1 43 -35 64.5t-63 21.5q-71 0 -116 -155.5t-49 -363.5l-73 -767q-20 -231 -130.5 -420t-234.5 -189q-60 0 -60 29v159z" />
<glyph unicode="&#x2248;" horiz-adv-x="1014" d="M94 383v156q64 73 123 99t114 26q64 0 181.5 -49.5t172.5 -49.5q52 0 108.5 28t129.5 112v-156q-63 -72 -122 -97.5t-116 -25.5q-60 0 -177.5 48.5t-176.5 48.5q-51 0 -107.5 -28t-129.5 -112zM94 731v156q64 73 123 99t114 26q64 0 181.5 -49.5t172.5 -49.5 q52 0 108.5 28t129.5 112v-156q-63 -72 -122 -97.5t-116 -25.5q-60 0 -177.5 48.5t-176.5 48.5q-51 0 -107.5 -28t-129.5 -112z" />
<glyph unicode="&#x2264;" horiz-adv-x="981" d="M53 600.5q0 22.5 62 57.5q424 240 821 541q2 2 6 2t4 -21.5t-31 -64.5q-57 -68 -288.5 -232t-372.5 -250q385 -274 487 -452q2 -4 2 -12q0 -29 -47 -69t-71 -40q-4 0 -7 2q-270 305 -514 481q-51 35 -51 57.5zM87 0v140h839l1 -1v-139h-840z" />
<glyph unicode="&#x2265;" horiz-adv-x="981" d="M87 0v140h839l1 -1v-139h-840zM164 68q0 43 33 76q55 68 281.5 227.5t379.5 255.5q-141 99 -285.5 227t-201.5 226q-4 8 -4 12q0 29 48 69t72 40q5 0 7 -2q270 -305 514 -482q51 -34 51 -58t-62 -58q-434 -246 -821 -539q-4 -4 -8 -4t-4 10z" />
<glyph unicode="&#x25cc;" horiz-adv-x="1147" d="M-2 368q0 -30 30 -30q20 0 33 13q8 8 8 20q-4 23 -30 23q-37 -3 -41 -26zM2 470q0 -11 8 -18.5t23 -7.5q16 1 28 10t12 22q0 9 -8 16.5t-26 7.5q-12 0 -24.5 -8.5t-12.5 -21.5zM21 261l1 -8q8 -18 28 -18q8 0 16 4q26 9 26 29q0 23 -31 23q-6 0 -13 -1q-27 -7 -27 -29z M31 576q0 -8 6.5 -16.5t22.5 -8.5q13 0 25 6q17 9 17 26q0 24 -33 24q-9 0 -20 -5q-18 -11 -18 -26zM70 169q0 -8 5 -15q10 -12 28 -12q10 0 21 6q18 12 18 26q0 7 -4 13q-11 12 -27 12q-10 0 -21 -5q-20 -10 -20 -25zM85 678q0 -25 31 -25q8 0 18 4q23 6 23 27q0 15 -18 23 q-6 2 -14 2q-23 0 -35 -17q-5 -7 -5 -14zM148 85q0 -7 9.5 -14t21.5 -7q18 0 28 9.5t12 19.5q0 14 -8.5 20.5t-20.5 6.5q-16 0 -28 -8.5t-14 -18.5v-8zM164 771q0 -13 10.5 -18.5t21.5 -5.5q18 0 28 9t11 18q0 14 -9.5 21.5t-20.5 7.5q-17 0 -32 -12q-9 -9 -9 -20zM252 31 q0 -14 19 -21q7 -2 13 -2q7 0 18 3q21 8 21 28q0 26 -29 26q-6 0 -16 -3q-26 -9 -26 -31zM266 850q0 -24 34 -24q11 0 21 5q16 11 16 25q0 25 -31 25q-12 0 -26 -8.5t-14 -22.5zM377 7q0 -23 28 -25q17 0 30 8t13 22q0 25 -28 27q-14 0 -28.5 -8t-14.5 -24zM388 908 q0 -5 2 -10q9 -16 31 -16q6 0 13 2q25 10 25 31l-1 5q-6 19 -29 19q-7 0 -16 -3q-25 -9 -25 -28zM511 14q2 -22 32 -22h9q31 9 31 31l-1 5q-7 20 -30 20q-20 0 -31 -13q-7 -6 -10 -21zM521 937q0 -29 34 -29q30 2 37 30v4q0 10 -9 16.5t-26 6.5q-31 -2 -36 -28zM641 58 q0 -5 2 -10q7 -14 28 -14q9 0 19 4q21 10 21 28q0 6 -4 12q-10 13 -28 13q-9 0 -19 -5q-19 -8 -19 -28zM652 927q0 -27 30 -27q9 0 20 5q21 9 21 27q0 24 -30 24q-12 0 -26.5 -6.5t-14.5 -22.5zM754 128q0 -10 7.5 -17.5t21.5 -7.5q36 0 41 35q0 6 -10 13.5t-22 7.5 q-16 0 -27 -9t-11 -22zM768 882q0 -24 30 -24q18 0 32 13q9 9 9 19q0 13 -14 20q-9 5 -19 5q-20 0 -32 -14q-6 -9 -6 -19zM843 215q0 -12 14 -21q8 -4 17 -4q20 0 34 14q6 9 6 18q0 14 -16 21q-8 3 -16 3q-20 0 -33 -14q-6 -8 -6 -17zM859 812q0 -21 32 -21q11 0 25 7.5 t14 23.5q0 9 -8 17t-23 8q-14 0 -27 -9.5t-13 -25.5zM910 315q0 -6 3 -12q8 -15 28 -15q8 0 19 4q21 8 21 28q0 6 -4 13q-7 12 -27 12q-9 0 -20 -5q-20 -8 -20 -25zM922 729q0 -6 3 -11q7 -14 27 -14q9 0 18 3q24 9 24 28q0 5 -2 11q-10 14 -29 14q-10 0 -19 -4 q-22 -12 -22 -27zM951 420q0 -8 6 -15q10 -12 25 -12q13 0 27 8.5t14 24.5q0 8 -7.5 15.5t-21.5 8.5q-16 0 -29.5 -8.5t-13.5 -21.5zM959 633q0 -28 32 -28l8 1q28 6 31 27v8q-5 21 -31 21q-5 0 -11 -2q-26 -8 -29 -27zM969 530q0 -30 32 -30q16 1 27 10t11 24q0 11 -10 17 t-23 6q-35 -6 -37 -27z" />
<glyph unicode="&#x25fc;" horiz-adv-x="820" d="M0 0v820h820v-820h-820z" />
<glyph unicode="&#xa9e0;" horiz-adv-x="943" d="M0 141q0 56 24.5 113t55.5 95q97 115 275 187q138 60 233 60q35 0 66 -8l25 -9l1 6q0 63 -21.5 105t-71.5 75q-53 30 -117 30q0 -60 -28 -117q-31 -63 -91 -103q-38 -26 -84 -36h-2q-10 -5 -20 -6q-6 0 -12 2h-9q-41 0 -65 18q-26 26 -26 63v8q0 34 9 68q18 79 71 141 q4 5 10 7q23 39 56 61l12 8q83 55 176 55q115 0 197 -69q62 -54 94.5 -130t34.5 -157q0 -37 -3.5 -66.5t-14.5 -65.5q11 -29 11 -62q-4 -98 -75 -120q-3 -1 -10 -1q-10 0 -18 7q-1 -1 -2.5 -4t-4.5 -6q-57 -82 -133 -145l-25 -20q-128 -95 -272 -118q-37 -7 -79 -7 q-52 0 -97 19q-70 37 -70 122zM133 184l22 -5l23 -1q164 0 303 117q64 53 112 120q-30 0 -59 -7q-140 -26 -263 -101q-83 -42 -138 -123zM281 660q0 -29 12 -65l1 -4l19 18q47 48 65 112q9 30 9 60l-16 -6q-27 -10 -52 -33q-38 -31 -38 -82z" />
<glyph unicode="&#xa9e1;" horiz-adv-x="1510" d="M0 201q0 107 46 168q24 32 64 32q18 -1 29 -6t20 -21q12 -20 12 -46q0 -19 -7.5 -36t-24.5 -25q-2 -1 -3.5 -2t-11.5 -18q0 -2 1 -3t2 -3.5t3 -4.5t2 -3q28 -28 65 -28q24 0 49 8l62 20q190 68 320 221q14 32 39 57l4 2q23 37 37.5 77t14.5 80q0 24 -6 48q-18 57 -64 91 q-28 21 -60 29q15 -36 15 -74q0 -64 -42 -112q-30 -32 -72 -47q-9 -3 -20 -3q-14 0 -27 7l-12 3q-18 5 -30 17q-64 64 -64 157q0 56 25.5 104t73.5 80q61 38 131 38q50 0 95 -21q62 -31 102 -86t59 -121q18 -61 18 -123q0 -171 -122 -338q14 -35 45 -61q56 -42 119 -42 q71 0 138.5 38.5t110.5 92.5q75 98 95 226q20 135 20 268q0 32 14 65.5t51 37.5q33 0 50.5 -33.5t17.5 -62.5q0 -112 -13 -219q-11 -108 -41 -212q-28 -97 -88 -186q0 -1 -2 -3l-11 -14q-3 -2 -3 -4q-134 -175 -316 -175q-184 5 -264 165l-9 20q-95 -91 -215 -150 q-63 -32 -133 -52l-52 -13q-20 -5 -43 -5q-89 5 -142 71q-46 56 -52 130zM430 754q0 -38 24 -71q11 -16 23 -28l10 8q36 37 38 92q0 31 -11 61l-8 20l-18 -7q-58 -26 -58 -75z" />
<glyph unicode="&#xa9e2;" horiz-adv-x="1510" d="M0 201q0 70 21 126q27 74 89 74q18 -1 29 -6t20 -21q12 -20 12 -46q0 -40 -32 -61q-8 -2 -12 -15q-3 -2 -3 -5q0 -4 4.5 -9.5t10.5 -11.5t22.5 -13.5t35.5 -7.5q24 0 48.5 8t48.5 15q6 3 14 5q186 62 320 221q14 32 39 57l4 2q52 86 52 157q0 74 -52 123.5t-119 49.5 q-43 0 -82.5 -23t-39.5 -66q0 -37 22 -69.5t53 -48.5q7 -4 7 -14q0 -6 -3 -8q-7 -7 -37 -7q-40 0 -67 22q-64 65 -64 157q0 94 66.5 158t163.5 64q85 0 146.5 -53t94.5 -133.5t33 -164.5q0 -170 -122 -338q20 -48 66 -75.5t98 -27.5q72 0 138 39q161 93 201 293q-4 0 -5 1 q-61 22 -98.5 75t-37.5 117q0 59 32.5 105.5t85 74t111.5 27.5q32 0 51 -35.5t19 -64.5q0 -83 -14 -219q-9 -104 -38 -204.5t-90 -193.5q0 -1 -3 -3q-6 -8 -9.5 -11.5t-3.5 -6.5q-131 -175 -316 -175q-195 4 -273 185q-148 -141 -348 -202l-52 -13q-22 -5 -43 -5 q-91 5 -142 71q-46 56 -52 130zM1168 748q0 -37 17 -74.5t51 -62.5q14 109 14 212l1 18q0 26 8 49q-22 -11 -36 -23q-55 -48 -55 -119zM1244 883h1h-1zM1248 885l2 1z" />
<glyph unicode="&#xa9e3;" horiz-adv-x="1468" d="M0 266q0 80 44.5 144t136.5 92q114 30 232 46q18 50 18 103q0 78 -65 124q-8 -75 -56 -131q-50 -46 -122 -48q-61 0 -94 41q-18 27 -18 56v13q16 85 76 148q75 85 169 85q56 0 101 -29.5t75 -75.5t42.5 -96t12.5 -103q0 -33 -4 -66q35 5 69 8q47 182 169.5 307.5 t312.5 141.5q89 0 154 -58.5t65 -153.5q0 -41 -18 -79.5t-49.5 -63.5t-73.5 -25q-74 0 -95 54q-8 21 -8 46q0 27 11 52t34 33q-3 1 -10 1q-80 0 -146 -35.5t-114 -90t-76 -116.5q79 0 157 -8.5t142 -40.5t103 -101q32 -58 32 -132q0 -90 -46.5 -159.5t-123 -109 t-165.5 -39.5q-78 0 -142 36t-101 107q-41 92 -41 211l1 32q-43 -3 -85 -10q-26 -91 -82.5 -178t-162.5 -156q-48 -30 -99 -30q-37 0 -68.5 19.5t-49.5 57.5q-42 93 -42 177zM130 267q1 0 1 2zM132 271q0 -34 8 -48l6 -15q2 0 4 -0.5t15 -0.5q23 4 44 17q78 46 127 124 l-12 -3q-45 -7 -95.5 -21.5t-75.5 -30.5q-9 -7 -19 -21v1q-2 0 -1.5 -0.5t-0.5 -1.5zM159 702q0 -1 1.5 -4.5t7 -13.5t16 -18t29.5 -8q13 0 31 6q22 30 30.5 63t12.5 70q-68 -5 -125 -68l1 -4q-1 -6 -2 -9.5t-2 -13.5zM723 368l2 -63q2 -5 3 -11.5t2 -13.5t2 -10 q5 -27 38 -53q43 -26 93 -26q51 0 105 22.5t90 63.5l4 4q7 7 9.5 12.5t2.5 20.5l1 -2l-1 2q0 6 -0.5 9.5t-3 6t-5.5 6.5q-26 30 -70 44q-67 22 -184 22q-71 0 -87 -4z" />
<glyph unicode="&#xa9e4;" horiz-adv-x="1339" d="M0 380q0 107 30 192q58 168 202 277q84 63 175 86l14 3q34 8 78 8q84 0 147 -47q14 -13 14 -31q-2 -17 -14 -28q-21 -20 -47 -25q-12 -3 -23 -3h-8q-15 0 -28 6q-12 3 -21 12q-7 4 -14 7t-13.5 3.5t-14.5 1.5l-22 -3l-39 -13q-31 -13 -60 -33q-99 -70 -156 -186 q-45 -99 -45 -211q1 -82 26 -161l3 -7q4 -14 10 -27q16 -6 27 -9q23 -5 59 -7q88 0 166 81q33 32 92 102q5 155 71.5 294.5t194.5 224.5q112 71 220 71q92 0 152 -60q53 -62 53 -137q0 -58 -35.5 -106t-95.5 -48q-24 0 -51 14q-21 13 -30.5 34.5t-9.5 43.5q1 18 3.5 29.5 t14.5 29.5t33 18l13 -2l12 1q-25 10 -55 10q-75 0 -146 -41t-123.5 -104t-75.5 -132q33 23 58 30.5t61 8.5q66 0 152 -26q70 -21 112 -75l4 4l-4 -5q55 -72 55 -159q0 -111 -89 -196q-3 -1 -4.5 -3.5t-4 -4t-5.5 -4.5q-101 -78 -215 -78q-93 0 -155.5 48.5t-90.5 133.5 q-36 -44 -77.5 -82t-90 -62t-107.5 -24q-44 3 -66 7q-27 5 -66 20q-13 5 -25 11q-29 9 -43 39q-3 3 -6 9q-32 57 -51 118q-25 83 -25 162zM654 291q1 -9 1.5 -16.5t2.5 -16t10 -24.5q19 -32 56.5 -46t72.5 -14q75 0 142 43q48 25 68 65l1 9l1 -3v8l-3 5q-18 33 -60 50 t-90 22q-31 6 -58 6q-42 0 -73 -23q-18 -14 -32 -27z" />
<glyph unicode="&#xa9e6;" horiz-adv-x="874" d="M16 1113l318 413l209 -40l-340 -406zM344 1113l316 413l211 -40l-341 -406z" />
<glyph unicode="&#xaa61;" horiz-adv-x="1391" d="M0 83q3 36 34 52.5t66 16.5q6 -1 9 -1t5.5 -1t8.5 -2q14 -2 16 -14q0 -12 -38 -22q-5 -7 -5 -17q0 -18 5 -18q1 -1 4 -1q15 -9 37 -9q43 0 58 64q4 17 4 31q0 42 -35 66q-23 15 -28 16q-10 3 -15 10q31 168 107 374q0 23 14 36q26 71 68 132q93 138 207 138q78 0 134 -62 t79 -158q56 87 135 154.5t196 76.5q86 0 144.5 -50.5t88.5 -127.5t30 -158q0 -118 -50.5 -242.5t-132.5 -212.5q-3 -4 -7.5 -6.5t-8 -6t-5.5 -10.5v3q-141 -134 -299 -134q-79 0 -151 38.5t-124 117.5q-54 88 -54 182q0 98 64 173q11 11 24 11q30 0 40 -26q7 34 7 70 q-10 191 -106 191q-53 0 -95 -47.5t-73 -115t-51 -131.5q0 -103 -36 -220q40 -37 40 -93q0 -50 -26.5 -81.5t-69 -47.5t-90.5 -18l-10 1q-62 4 -97 40q-18 17 -18 39zM204 190l2 -4zM690 253q62 -42 137 -42q122 2 205 79q40 35 77.5 87t63 114.5t25.5 128.5q0 55 -33 93 t-99 38q-58 0 -109 -35q-93 -64 -156 -180q-45 -81 -82 -198z" />
<glyph unicode="&#xaa66;" horiz-adv-x="1517" d="M0 385q0 119 51 229.5t136.5 201t193.5 149.5q137 74 229 74q74 0 127.5 -42.5t84 -110t35.5 -145.5l44 60q143 177 287 177q72 0 114.5 -50.5t54.5 -129.5q10 -68 10 -137q0 -48 -5 -88l1 1v-2h-1q-18 -237 -166 -450q-61 -90 -113 -90q-19 0 -38.5 15t-29.5 43.5 t-10 57.5q0 32 11 57.5t36 25.5q7 0 15 -2q16 10 35 39q59 70 102.5 183t43.5 251l-1 27l1 18q0 30 -8 51q-14 14 -23 19t-32 6q-67 0 -130.5 -51.5t-122 -134t-109.5 -178.5q-146 -275 -364 -448q-16 -11 -32 -11q-38 0 -60 56q-44 -16 -92 -16q-114 0 -194.5 100 t-80.5 245zM126 356q0 -70 51 -113t120 -43q28 0 46.5 2.5t36.5 6.5t43 8q80 91 152 191t123 212q27 64 27 115q0 98 -102 103q-27 0 -55 -9q-139 -40 -247.5 -129.5t-165.5 -222.5q-29 -71 -29 -121zM271 441q0 10 2 20q12 60 69.5 100.5t124.5 40.5q19 -1 22 -2h7 q10 0 21 -3.5t13 -13.5q8 -24 8 -48q0 -52 -34 -97q-56 -64 -143 -68q-21 0 -42 7q-48 16 -48 64z" />
<glyph unicode="&#xaa67;" horiz-adv-x="1609" d="M0 409q0 155 60.5 282.5t167.5 203.5t248 76q92 0 177.5 -40t129.5 -132q64 82 152 127.5t196 45.5q100 0 188 -46q70 -38 105 -103t35 -143q0 -151 -124 -325q-115 -163 -252 -256q-71 -48 -169 -80q-52 -19 -86 -19q-24 0 -47 10t-35 35t-12 53l2 21q-41 57 -57 106.5 t-20 97.5q-177 -237 -397 -304q-56 -19 -87 -19q-23 0 -46 10t-35.5 34.5t-12.5 51.5q0 12 3 23q-36 45 -50.5 84t-20.5 78q-13 63 -13 128zM96 360q0 -94 49 -162q30 13 56 21q150 46 251 136q95 83 163 192q55 78 62 141l-1 15q-28 43 -90 65.5t-118 22.5 q-101 0 -177.5 -51t-124.5 -134t-64 -181q-6 -32 -6 -65zM187 443q0 38 26 74q18 26 44 44q59 41 125 41l30 -2q10 0 21 -4t13 -13q8 -23 8 -48q0 -52 -35 -97q-56 -64 -142 -68q-21 0 -42 7q-48 16 -48 66zM749 362q0 -40 11.5 -84t36.5 -80q17 7 30 11.5t25 8.5t25 8 q127 42 222 123.5t169 197.5q32 45 51 95q9 23 12 46l-2 15q-31 44 -93.5 66t-113.5 22q-103 0 -179.5 -51.5t-124 -134.5t-63.5 -180q-6 -31 -6 -63z" />
<glyph unicode="&#xaa68;" horiz-adv-x="1517" d="M0 385q0 119 52 229q107 229 329 351q138 74 229 74q99 0 163 -77q77 -92 84 -221l44 60q94 119 196 159q46 18 91 18q75 0 122 -59q38 -53 47.5 -121t9.5 -137q0 -48 -5 -88l1 1v-2h-1q-18 -222 -144 -417q-40 -62 -70 -92.5t-65 -30.5q-19 0 -39 15.5t-29.5 43 t-9.5 55.5q-27 57 -28 126q0 48 15 95q33 102 128 150q54 28 112 28q16 75 16 157l-1 27l1 18q0 30 -8 51l-3 3q-10 11 -19.5 16t-32.5 6q-40 0 -81 -21q-99 -51 -195 -198q-45 -71 -86 -145q-146 -275 -364 -448q-15 -11 -32 -11q-37 0 -60 56q-44 -16 -92 -16q-27 0 -58 7 q-77 23 -131 87q-86 104 -86 251zM126 356q0 -70 51 -113t120 -43q28 0 46.5 2.5t37 6.5t42.5 8q80 91 152 191t123 212q27 64 27 115q0 98 -102 103q-27 0 -55 -9q-139 -40 -247.5 -129.5t-165.5 -222.5q-29 -71 -29 -121zM256 449l2 20q6 31 24.5 56.5t44.5 43.5 q59 41 125 41l22 -1q19 0 28.5 -4t13.5 -14q8 -23 8 -47q0 -53 -35 -98q-57 -64 -142 -67h-5q-20 0 -39 7q-47 16 -47 63zM1060 282q0 -27 5 -52l2 -1q17 11 35 39q32 37 65 98t52 127q-15 0 -25 -3t-12 -5q-9 -3 -26.5 -13.5t-32.5 -25.5q-53 -58 -62 -140z" />
<glyph unicode="&#xaa69;" horiz-adv-x="1609" d="M0 409q0 155 60.5 282.5t167.5 203.5t248 76q92 0 177.5 -40t129.5 -132q64 82 152 127.5t196 45.5q100 0 188 -46q70 -38 105 -103t35 -143q0 -151 -124 -325q-115 -163 -252 -256q-71 -48 -168 -80l-2 -1q-52 -18 -85 -18q-24 0 -47 10t-35 35t-12 53l2 21 q-41 57 -57 106.5t-20 97.5q-177 -237 -397 -304q-56 -19 -87 -19q-23 0 -46 10t-35.5 34.5t-12.5 51.5q0 12 3 23q-36 45 -50.5 84t-20.5 78q-13 63 -13 128zM96 360q0 -94 49 -162q30 13 56 21q150 46 251 136q95 83 163 192q55 78 62 141l-1 15q-28 43 -90 65.5 t-118 22.5q-101 0 -177.5 -51t-124.5 -134t-64 -181q-6 -32 -6 -65zM173 441q0 10 3 20q11 60 68.5 100.5t124.5 40.5q20 -1 23 -2h6q11 0 21.5 -3.5t13.5 -13.5q7 -24 7 -48q0 -52 -33 -97q-57 -64 -143 -68q-21 0 -42 7q-49 16 -49 64zM749 362q0 -63 25 -123 q8 -19 20 -36q15 14 27 31q40 60 40 125q0 84 -57 139l-26 17q-29 -88 -29 -153zM797 562q15 -2 27 -8q77 -32 105 -104q15 -39 15 -80q0 -73 -40 -135q37 14 74 32q170 92 290 280q33 45 51 95q9 23 12 46l-2 15q-22 35 -68 56q-69 32 -139 32q-77 0 -148 -34 q-94 -48 -148 -139q-16 -27 -29 -56z" />
<glyph unicode="&#xaa6a;" horiz-adv-x="1609" d="M0 409q0 155 60.5 282.5t167.5 203.5t248 76q92 0 177.5 -40t129.5 -132q64 82 152 127.5t196 45.5q64 0 126 -19t111 -61t75 -111q16 -50 16 -101q0 -151 -124 -325q-115 -163 -252 -256q-71 -48 -169 -80q-52 -19 -86 -19q-24 0 -47 10t-35 35t-12 53l2 21 q-41 57 -57 106.5t-20 97.5q-177 -237 -397 -304q-56 -19 -87 -19q-23 0 -46 10t-35.5 34.5t-12.5 51.5q0 12 3 23q-36 45 -50.5 84t-20.5 78q-13 63 -13 128zM96 360q0 -94 49 -162q30 13 56 21q150 46 251 136q95 83 163 192q55 78 62 141l-1 15q-28 43 -90 65.5 t-118 22.5q-101 0 -177.5 -51t-124.5 -134t-64 -181q-6 -32 -6 -65zM749 362q0 -63 25 -123q8 -19 20 -36q14 14 26 31q41 58 41 125q0 86 -58 139l-18 13q-4 1 -7 4q-29 -84 -29 -153zM797 562q13 -2 27 -8q78 -33 105 -104q15 -39 15 -81q0 -72 -40 -134q38 14 74 32 q170 92 290 280q33 45 51 95q9 23 12 47q-1 2 -1 11q-1 1 -1 3q-21 35 -68 56q-69 32 -139 32q-77 0 -148 -34q-94 -48 -148 -139q-16 -27 -29 -56z" />
<glyph unicode="&#xaa6e;" horiz-adv-x="1465" d="M0 235q0 97 38 222q33 96 91 178q114 159 191 224q87 73 165 73q38 0 78 -19q111 -49 111 -197q0 -83 -34 -173q-24 -55 -69 -133q-20 -37 -23.5 -43.5l-7 -13t-3.5 -17.5l-9 -17v-69q4 -6 7 -11t8 -7.5t11 -6.5q29 -20 65 -20q41 0 99 20q153 36 267 137q103 93 155 224 q7 20 15 39l1 8q3 9 5 19l3 8q7 42 7 89q0 71 -17 124q18 29 29 57q21 23 46 23q23 0 42.5 -13.5t23.5 -34.5q20 -80 20 -161q0 -138 -54 -269q-52 -126 -147 -224q-32 -26 -52 -53v1q-79 -82 -198 -138q-130 -61 -238 -61q-51 0 -98 18q-76 35 -108.5 106t-37.5 144 q0 80 26 145t60 130l17 34q51 70 51 114q-4 12 -8 23.5t-35 11.5l-42 -2q-80 -32 -121 -103q-67 -63 -111 -138q-39 -54 -66 -117q53 -5 99 -34q79 -56 106 -149q18 -62 18 -153v-29q7 -13 7 -30q0 -18 -7 -36.5t-20 -28.5q-43 -21 -87 -21q-69 0 -128 42.5t-95 107.5 q-46 89 -46 200zM126 238l2 -19q2 -31 9 -52t35 -60q39 -56 97 -82v11q0 147 -70 229q-27 31 -64 45q-9 -36 -9 -72z" />
<glyph unicode="&#xfb01;" horiz-adv-x="1073" />
<glyph unicode="&#xfb02;" horiz-adv-x="1081" />
<glyph horiz-adv-x="329" d="M-331 -757q0 37 7 73l3 23q26 184 82 364q10 33 102 383q169 646 191 708l9 26q11 38 32 76.5t61 51.5q9 3 16 3q30 0 42.5 -26.5t12.5 -53.5q0 -25 -8 -50t-18 -49l-8 -22q-15 -47 -206 -793l-65 -253q-56 -201 -76 -410q20 4 37 12q20 10 39 22q30 19 65 35 q54 25 159 105q14 9 27 9q27 0 43 -21t16 -42q0 -24 -14 -46q-53 -73 -120 -137q-47 -48 -86 -78q-92 -70 -174 -70q-40 0 -75.5 14.5t-58.5 41.5q-35 42 -35 104z" />
<glyph horiz-adv-x="531" d="M-384 -791q1 8 406 1696q29 59 90 59q34 0 84 -22l-398 -1644l-8 -25q-7 -29 -22.5 -54.5t-52.5 -30.5l-6 -1q-13 0 -35.5 4t-35.5 4q-19 0 -22 14zM-85 -757q0 37 7 73l3 23q26 184 82 364q10 33 102 383q169 646 191 708l9 26q11 38 32 76.5t61 51.5q9 3 16 3 q30 0 42.5 -26.5t12.5 -53.5q0 -25 -8 -50t-18 -49l-8 -22q-15 -47 -206 -793l-65 -253q-56 -201 -76 -410q20 4 37 12q20 10 39 22q30 19 65 35q54 25 159 105q14 9 27 9q27 0 43 -21t16 -42q0 -24 -14 -46q-53 -73 -120 -137q-47 -48 -86 -78q-92 -70 -174 -70 q-40 0 -75.5 14.5t-58.5 41.5q-35 42 -35 104z" />
<glyph horiz-adv-x="1360" d="M-64 -418q0 87 31 169q6 12 15 12q14 0 24.5 -15.5t16 -36.5t5.5 -37l-2 -55q-3 -31 -3 -67q0 -34 3 -69q0 -59 52 -116q76 -76 170 -76q50 0 97 28q62 43 93 113.5t47 141.5q34 138 59 255q23 104 54 234q-52 47 -75 120q-38 -44 -79.5 -82t-90 -61.5t-107.5 -23.5 l-25 1q-49 3 -105 24.5t-80 68.5q-4 9 -5 18.5t-6 26.5q-14 51 -14 99q0 53 20 104q34 89 143 125q27 9 52 22q138 75 144 224q0 24 -6 36q-7 6 -10 9t-6 4.5t-8 4.5h-1q-23 14 -55 14h-4q-79 0 -146 -71q-24 -26 -55 -45l-5 -2q-7 0 -10.5 9.5t-3.5 19.5q26 111 121 179 q55 42 116 42q176 -11 176 -221q0 -89 -35 -172q-63 -148 -216 -206q-66 -24 -92 -60q-3 -3 -5 -10l1 -4l-1 -5q1 -8 1 -17q0 -5 5 -17v-1q55 -30 112 -30q52 0 93.5 23.5t78 60t71.5 79.5l17 20q6 154 72.5 293t194.5 225q46 30 103.5 50.5t115.5 20.5q93 0 151 -60 q53 -62 53 -137q0 -59 -36.5 -106.5t-94.5 -47.5q-26 0 -51 14q-20 13 -30 33.5t-10 43.5l2 19q3 22 16 40.5t34 18.5q6 0 12 -2l12 1q-27 10 -55 10q-52 0 -118 -27q-162 -73 -226 -249q50 38 121 38q61 0 149 -26q69 -21 113 -75q55 -72 55 -158t-47 -150t-121 -99.5 t-158 -37.5q-37 0 -69 10l-26 -122q-17 -74 -32 -149q-33 -160 -74 -317q-22 -88 -64.5 -169.5t-126.5 -123.5q-43 -19 -86 -19q-69 0 -131.5 37t-106.5 91q-53 68 -80.5 160t-27.5 183zM619 286q0 -2 0.5 -2t1.5 -4.5t2 -12.5q3 -18 10 -32q1 -3 4 -5q14 -22 39 -35 q39 -21 84 -21q38 0 75 12q100 34 136 94q1 4 1.5 5t0.5 7l1 -3l-1 5l1 2l-4 6q-65 105 -152 105q-38 0 -70 -16q-52 -24 -86 -57l-2 -2q-14 -14 -18.5 -18t-22.5 -23v-5zM667 -774q0 37 5 73l3 22q34 275 125 543l8 25q9 38 26.5 75.5t51.5 51.5q7 2 14 2q17 0 28 -13.5 t14.5 -31t3.5 -33.5q0 -35 -21.5 -98t-44.5 -162q-48 -202 -64 -404q17 5 32.5 13.5t31.5 20.5q25 19 55 35q45 24 134 103q11 9 23 9q11 0 21.5 -7t16.5 -17q11 -19 11 -39q0 -23 -12 -45q-45 -71 -101 -134q-42 -50 -79 -82q-75 -64 -140 -64q-67 0 -113 55 q-29 41 -29 102z" />
<glyph horiz-adv-x="1360" d="M-64 -418q0 87 31 169q6 12 15 12q14 0 24.5 -15.5t16 -36.5t5.5 -37l-2 -55q-3 -31 -3 -67q0 -34 3 -69q0 -59 52 -116q76 -76 170 -76q50 0 97 28q62 43 93 113.5t47 141.5q34 138 59 255q23 104 54 234q-52 47 -75 120q-38 -44 -79.5 -82t-90 -61.5t-107.5 -23.5 l-25 1q-49 3 -105 24.5t-80 68.5q-4 9 -5 18.5t-6 26.5q-14 51 -14 99q0 53 20 104q34 89 143 125q27 9 52 22q138 75 144 224q0 24 -6 36q-7 6 -10 9t-6 4.5t-8 4.5h-1q-23 14 -55 14h-4q-79 0 -146 -71q-24 -26 -55 -45l-5 -2q-7 0 -10.5 9.5t-3.5 19.5q26 111 121 179 q55 42 116 42q176 -11 176 -221q0 -89 -35 -172q-63 -148 -216 -206q-66 -24 -92 -60q-3 -3 -5 -10l1 -4l-1 -5q1 -8 1 -17q0 -5 5 -17v-1q55 -30 112 -30q52 0 93.5 23.5t78 60t71.5 79.5l17 20q6 154 72.5 293t194.5 225q46 30 103.5 50.5t115.5 20.5q93 0 151 -60 q53 -62 53 -137q0 -59 -36.5 -106.5t-94.5 -47.5q-26 0 -51 14q-20 13 -30 33.5t-10 43.5l2 19q3 22 16 40.5t34 18.5q6 0 12 -2l12 1q-27 10 -55 10q-52 0 -118 -27q-162 -73 -226 -249q50 38 121 38q61 0 149 -26q69 -21 113 -75q55 -72 55 -158t-47 -150t-121 -99.5 t-158 -37.5q-37 0 -69 10l-26 -122q-17 -74 -32 -149q-33 -160 -74 -317q-22 -88 -64.5 -169.5t-126.5 -123.5q-43 -19 -86 -19q-69 0 -131.5 37t-106.5 91q-53 68 -80.5 160t-27.5 183zM563 -807q1 8 186 715q27 58 79 58q28 0 69 -22q-166 -622 -185 -689 q-7 -27 -21.5 -52.5t-45.5 -30.5h-5q-11 0 -29.5 3.5t-29.5 3.5q-16 0 -18 14zM619 286q0 -2 0.5 -2t1.5 -4.5t2 -12.5q3 -18 10 -32q1 -3 4 -5q14 -22 39 -35q39 -21 84 -21q38 0 75 12q100 34 136 94q1 4 1.5 5t0.5 7l1 -3l-1 5l1 2l-4 6q-65 105 -152 105q-38 0 -70 -16 q-52 -24 -86 -57l-2 -2q-14 -14 -18.5 -18t-22.5 -23v-5zM817 -774q0 37 5 73l3 22q34 275 125 543l8 25q9 38 26.5 75.5t51.5 51.5q7 2 14 2q17 0 28 -13.5t14.5 -31t3.5 -33.5q0 -35 -21.5 -98t-44.5 -162q-48 -202 -64 -404q17 5 32.5 13.5t31.5 20.5q25 19 55 35 q45 24 134 103q11 9 23 9q11 0 21.5 -7t16.5 -17q11 -19 11 -39q0 -23 -12 -45q-45 -71 -101 -134q-42 -50 -79 -82q-75 -64 -140 -64q-67 0 -113 55q-29 41 -29 102z" />
<glyph horiz-adv-x="1360" d="M-64 -418q0 87 31 169q6 12 15 12q14 0 24.5 -15.5t16 -36.5t5.5 -37l-2 -55q-3 -31 -3 -67q0 -34 3 -69q0 -59 52 -116q76 -76 170 -76q50 0 97 28q62 43 93 113.5t47 141.5q34 138 59 255q23 104 54 234q-52 47 -75 120q-38 -44 -79.5 -82t-90 -61.5t-107.5 -23.5 l-25 1q-49 3 -105 24.5t-80 68.5q-4 9 -5 18.5t-6 26.5q-14 51 -14 99q0 53 20 104q34 89 143 125q27 9 52 22q138 75 144 224q0 24 -6 36q-7 6 -10 9t-6 4.5t-8 4.5h-1q-23 14 -55 14h-4q-79 0 -146 -71q-24 -26 -55 -45l-5 -2q-7 0 -10.5 9.5t-3.5 19.5q26 111 121 179 q55 42 116 42q176 -11 176 -221q0 -89 -35 -172q-63 -148 -216 -206q-66 -24 -92 -60q-3 -3 -5 -10l1 -4l-1 -5q1 -8 1 -17q0 -5 5 -17v-1q55 -30 112 -30q52 0 93.5 23.5t78 60t71.5 79.5l17 20q6 154 72.5 293t194.5 225q46 30 103.5 50.5t115.5 20.5q93 0 151 -60 q53 -62 53 -137q0 -59 -36.5 -106.5t-94.5 -47.5q-26 0 -51 14q-20 13 -30 33.5t-10 43.5l2 19q3 22 16 40.5t34 18.5q6 0 12 -2l12 1q-27 10 -55 10q-52 0 -118 -27q-162 -73 -226 -249q50 38 121 38q61 0 149 -26q69 -21 113 -75q55 -72 55 -158t-47 -150t-121 -99.5 t-158 -37.5q-37 0 -69 10l-26 -122q-17 -74 -32 -149q-33 -160 -74 -317q-22 -88 -64.5 -169.5t-126.5 -123.5q-43 -19 -86 -19q-69 0 -131.5 37t-106.5 91q-53 68 -80.5 160t-27.5 183zM551 1364q0 82 38 152q44 79 109 132.5t140.5 82.5t173.5 45q45 9 96 9q52 0 110 -13 q59 -10 121 -61q29 -26 46.5 -66t18.5 -92q0 -65 -33 -150q-44 -113 -140 -222q-100 -104 -198 -150q-76 -32 -104 -32q-8 0 -10 2t-2 3q0 9 33 31q-28 -9 -64 -9q-72 0 -134 26.5t-106 72.5q-84 95 -93 201q-2 19 -2 38zM619 286q0 -2 0.5 -2t1.5 -4.5t2 -12.5 q3 -18 10 -32q1 -3 4 -5q14 -22 39 -35q39 -21 84 -21q38 0 75 12q100 34 136 94q1 4 1.5 5t0.5 7l1 -3l-1 5l1 2l-4 6q-65 105 -152 105q-38 0 -70 -16q-52 -24 -86 -57l-2 -2q-14 -14 -18.5 -18t-22.5 -23v-5zM667 -774q0 37 5 73l3 22q34 275 125 543l8 25 q9 38 26.5 75.5t51.5 51.5q7 2 14 2q17 0 28 -13.5t14.5 -31t3.5 -33.5q0 -35 -21.5 -98t-44.5 -162q-48 -202 -64 -404q17 5 32.5 13.5t31.5 20.5q25 19 55 35q45 24 134 103q11 9 23 9q11 0 21.5 -7t16.5 -17q11 -19 11 -39q0 -23 -12 -45q-45 -71 -101 -134 q-42 -50 -79 -82q-75 -64 -140 -64q-67 0 -113 55q-29 41 -29 102zM684 1335q0 -53 34 -108t110 -73q34 -7 92 -9q35 0 56 -12q9 -6 9 -16q0 -5 -2 -11q48 39 95 96q62 77 93 157q34 85 34 135q0 57 -41 75q-46 22 -112 22q-29 0 -63 -6q-49 -8 -76 -16q-48 -13 -103 -43 q-46 -28 -81 -71t-43 -98q-2 -10 -2 -22z" />
<glyph horiz-adv-x="1360" d="M-64 -418q0 87 31 169q6 12 15 12q14 0 24.5 -15.5t16 -36.5t5.5 -37l-2 -55q-3 -31 -3 -67q0 -34 3 -69q0 -59 52 -116q76 -76 170 -76q50 0 97 28q62 43 93 113.5t47 141.5q34 138 59 255q23 104 54 234q-52 47 -75 120q-38 -44 -79.5 -82t-90 -61.5t-107.5 -23.5 l-25 1q-49 3 -105 24.5t-80 68.5q-4 9 -5 18.5t-6 26.5q-14 51 -14 99q0 53 20 104q34 89 143 125q27 9 52 22q138 75 144 224q0 24 -6 36q-7 6 -10 9t-6 4.5t-8 4.5h-1q-23 14 -55 14h-4q-79 0 -146 -71q-24 -26 -55 -45l-5 -2q-7 0 -10.5 9.5t-3.5 19.5q26 111 121 179 q55 42 116 42q176 -11 176 -221q0 -89 -35 -172q-63 -148 -216 -206q-66 -24 -92 -60q-3 -3 -5 -10l1 -4l-1 -5q1 -8 1 -17q0 -5 5 -17v-1q55 -30 112 -30q52 0 93.5 23.5t78 60t71.5 79.5l17 20q6 154 72.5 293t194.5 225q46 30 103.5 50.5t115.5 20.5q93 0 151 -60 q53 -62 53 -137q0 -59 -36.5 -106.5t-94.5 -47.5q-26 0 -51 14q-20 13 -30 33.5t-10 43.5l2 19q3 22 16 40.5t34 18.5q6 0 12 -2l12 1q-27 10 -55 10q-52 0 -118 -27q-162 -73 -226 -249q50 38 121 38q61 0 149 -26q69 -21 113 -75q55 -72 55 -158t-47 -150t-121 -99.5 t-158 -37.5q-37 0 -69 10l-26 -122q-17 -74 -32 -149q-33 -160 -74 -317q-22 -88 -64.5 -169.5t-126.5 -123.5q-43 -19 -86 -19q-69 0 -131.5 37t-106.5 91q-53 68 -80.5 160t-27.5 183zM563 -807q1 8 186 715q27 58 79 58q28 0 69 -22q-166 -622 -185 -689 q-7 -27 -21.5 -52.5t-45.5 -30.5h-5q-11 0 -29.5 3.5t-29.5 3.5q-16 0 -18 14zM586 1364q0 82 38 152q44 79 109 132.5t140.5 82.5t173.5 45q45 9 96 9q52 0 110 -13q59 -10 121 -61q29 -26 46.5 -66t18.5 -92q0 -65 -33 -150q-44 -113 -140 -222q-100 -104 -198 -150 q-76 -32 -104 -32q-8 0 -10 2t-2 3q0 9 33 31q-28 -9 -64 -9q-72 0 -134 26.5t-106 72.5q-84 95 -93 201q-2 19 -2 38zM619 286q0 -2 0.5 -2t1.5 -4.5t2 -12.5q3 -18 10 -32q1 -3 4 -5q14 -22 39 -35q39 -21 84 -21q38 0 75 12q100 34 136 94q1 4 1.5 5t0.5 7l1 -3l-1 5l1 2 l-4 6q-65 105 -152 105q-38 0 -70 -16q-52 -24 -86 -57l-2 -2q-14 -14 -18.5 -18t-22.5 -23v-5zM719 1335q0 -53 34 -108t110 -73q34 -7 92 -9q35 0 56 -12q9 -6 9 -16q0 -5 -2 -11q48 39 95 96q62 77 93 157q34 85 34 135q0 57 -41 75q-46 22 -112 22q-29 0 -63 -6 q-49 -8 -76 -16q-48 -13 -103 -43q-46 -28 -81 -71t-43 -98q-2 -10 -2 -22zM817 -774q0 37 5 73l3 22q34 275 125 543l8 25q9 38 26.5 75.5t51.5 51.5q7 2 14 2q17 0 28 -13.5t14.5 -31t3.5 -33.5q0 -35 -21.5 -98t-44.5 -162q-48 -202 -64 -404q17 5 32.5 13.5t31.5 20.5 q25 19 55 35q45 24 134 103q11 9 23 9q11 0 21.5 -7t16.5 -17q11 -19 11 -39q0 -23 -12 -45q-45 -71 -101 -134q-42 -50 -79 -82q-75 -64 -140 -64q-67 0 -113 55q-29 41 -29 102z" />
<glyph horiz-adv-x="1360" d="M-64 -418q0 87 31 169q6 12 15 12q14 0 24.5 -15.5t16 -36.5t5.5 -37l-2 -55q-3 -31 -3 -67q0 -34 3 -69q0 -59 52 -116q76 -76 170 -76q50 0 97 28q62 43 93 113.5t47 141.5q34 138 59 255q23 104 54 234q-52 47 -75 120q-38 -44 -79.5 -82t-90 -61.5t-107.5 -23.5 l-25 1q-49 3 -105 24.5t-80 68.5q-4 9 -5 18.5t-6 26.5q-14 51 -14 99q0 53 20 104q34 89 143 125q27 9 52 22q138 75 144 224q0 24 -6 36q-7 6 -10 9t-6 4.5t-8 4.5h-1q-23 14 -55 14h-4q-79 0 -146 -71q-24 -26 -55 -45l-5 -2q-7 0 -10.5 9.5t-3.5 19.5q26 111 121 179 q55 42 116 42q176 -11 176 -221q0 -89 -35 -172q-63 -148 -216 -206q-66 -24 -92 -60q-3 -3 -5 -10l1 -4l-1 -5q1 -8 1 -17q0 -5 5 -17v-1q55 -30 112 -30q52 0 93.5 23.5t78 60t71.5 79.5l17 20q6 154 72.5 293t194.5 225q46 30 103.5 50.5t115.5 20.5q93 0 151 -60 q53 -62 53 -137q0 -59 -36.5 -106.5t-94.5 -47.5q-26 0 -51 14q-20 13 -30 33.5t-10 43.5l2 19q3 22 16 40.5t34 18.5q6 0 12 -2l12 1q-27 10 -55 10q-52 0 -118 -27q-162 -73 -226 -249q50 38 121 38q61 0 149 -26q69 -21 113 -75q55 -72 55 -158t-47 -150t-121 -99.5 t-158 -37.5q-37 0 -69 10l-26 -122q-17 -74 -32 -149q-33 -160 -74 -317q-22 -88 -64.5 -169.5t-126.5 -123.5q-43 -19 -86 -19q-69 0 -131.5 37t-106.5 91q-53 68 -80.5 160t-27.5 183zM593 -597q0 181 133 332q60 68 127 130q82 73 152 159q8 9 17 9t17 -7q22 -17 22 -52 q0 -20 -10 -39l-1 -2q75 -20 136 -73.5t91 -125.5t30 -150q0 -129 -76 -245q-116 -161 -305 -239q-45 -19 -92 -19q-37 0 -74 16q-87 42 -127 126.5t-40 179.5zM619 286q0 -2 0.5 -2t1.5 -4.5t2 -12.5q3 -18 10 -32q1 -3 4 -5q14 -22 39 -35q39 -21 84 -21q38 0 75 12 q100 34 136 94q1 4 1.5 5t0.5 7l1 -3l-1 5l1 2l-4 6q-65 105 -152 105q-38 0 -70 -16q-52 -24 -86 -57l-2 -2q-14 -14 -18.5 -18t-22.5 -23v-5zM740 -569q0 -75 64 -118q29 -18 60 -18q43 0 99 31q83 43 153 107q41 38 67.5 86.5t26.5 100.5t-35 104q-27 37 -65 64 q-17 12 -38 24.5t-41 12.5q-19 -1 -43 -17l-14 -7q-24 -28 -50 -56q-184 -192 -184 -314z" />
<glyph horiz-adv-x="1426" d="M0 263q0 172 120 400l-26 9q-6 2 -6 10q0 10 13 10q21 0 35 -2q52 91 124 160q104 95 226 95q74 0 143 -47q61 -47 91 -119q31 -66 31 -167q15 -29 15 -71l1 -4l-1 -4q0 -41 -12 -97q-15 -97 -32 -182q3 -14 9 -26q30 -66 106 -66q68 0 127 48q61 55 94 136 q65 163 65 336q0 24 -2 50.5t-2 53.5q0 105 30 150q13 19 34 21q14 0 30 -10q48 -32 55 -118q8 -61 8 -122q-2 -95 -17 -182q6 6 10 12l1 -1l-11 -13q-4 -28 -12 -57q-45 -204 -146 -337l-18 -23q-38 -45 -92.5 -76t-113.5 -31q-38 0 -76 16q-71 36 -104 104 q-79 -394 -168 -884q24 -3 47 -3q38 0 71 8l-43 -108q-116 -94 -187 -68q-34 14 -50 52t-16 75q0 17 3 31l23 111q87 413 157 724q63 290 98 423q-5 3 -10 9q-32 40 -32 91q0 27 10 49q8 16 8 20q0 6 -1.5 9.5t-2.5 8.5q-3 10 -4 11q-21 39 -69 59q-28 10 -56 10 q-52 0 -99 -27q-64 -37 -106 -95q105 -99 114 -244q0 -137 -79 -241.5t-214 -117.5q-24 0 -37 23q-54 106 -54 218zM111 249q0 -31 8 -62q74 14 125.5 70.5t56.5 147.5q0 93 -66 171q-54 -83 -89 -173t-35 -154zM742 -804q0 37 5 73q2 11 3 22q23 181 69 358q25 93 56 185 q4 11 8 25q9 38 26.5 75.5t51.5 51.5q7 2 14 2q17 0 28 -13.5t14 -33.5q4 -15 4 -31q0 -25 -7 -49.5t-15 -48.5q-4 -11 -7 -22q-21 -70 -37 -140q-33 -140 -51 -280q-8 -62 -13 -124q17 5 31 12q17 10 33 22q15 12 32 22q11 7 23 13q15 8 30 18q54 40 104 85q11 9 23 9 q11 0 21.5 -7t16.5 -17q11 -19 11 -39q0 -23 -12 -45q-45 -71 -101 -134q-6 -8 -13 -16q-28 -34 -66.5 -66.5t-80.5 -51.5q-29 -12 -59 -12q-67 0 -113 55q-17 24 -23 49.5t-6 52.5zM1101 128q1 -9 3 -17v21z" />
<glyph horiz-adv-x="969" d="M-369 -407q0 90 33 174q6 12 15 12q12 0 24 -14q23 -36 23 -74v-7q-5 -60 -5 -120q0 -36 3 -72q2 -28 19 -65q10 -25 36 -53q80 -78 177 -78q51 0 100 29q64 44 97 116t49 145q32 130 61 259l36 156l-13 -2l1 5l-18 -1q-52 0 -98 23.5t-78 68.5q-74 115 -74 274 q0 47 7 95q28 180 147 325q120 140 293 172q33 6 69 6q68 0 134.5 -28t110.5 -97q57 -94 57 -218q0 -146 -78 -327l-4 -12q-12 -28 -22 -59q-13 -39 -17 -46l-2 -3q-17 -37 -45 -37h-4q-36 7 -46 49q-4 22 -4 43q0 51 15 97q6 28 14 54q5 27 30 117q22 80 24 122v29 q-1 22 -15 54q-40 70 -149 70q-139 0 -253 -99q85 -8 142 -68q70 -72 96 -164q16 -59 16 -117q0 -153 -101 -261l-13 -11q-13 -62 -28 -124q-18 -81 -35 -163q-35 -170 -79 -337q-22 -91 -67 -174.5t-132 -126.5q-44 -19 -89 -19q-71 0 -136 38q-128 74 -182 219 q-42 113 -42 225zM137 362q0 -52 14 -101q29 -101 110 -101q27 0 54 12q0 2 1.5 4t2.5 2.5t2.5 1t3 1.5t3.5 2q40 25 58.5 68.5t18.5 89.5q0 62 -29 114q-53 94 -137 99q-30 0 -61 -15q-1 0 -1 -1q-40 -88 -40 -176zM407 -714q0 37 5 73l3 22q34 275 125 543l8 25 q9 38 26.5 75.5t51.5 51.5q7 2 14 2q17 0 28 -13.5t14.5 -31t3.5 -33.5q0 -35 -21.5 -98t-44.5 -162q-48 -202 -64 -404q17 5 32.5 13.5t31.5 20.5q25 19 55 35q45 24 134 103q11 9 23 9q11 0 21.5 -7t16.5 -17q11 -19 11 -39q0 -23 -12 -45q-45 -71 -101 -134 q-42 -50 -79 -82q-75 -64 -140 -64q-67 0 -113 55q-29 41 -29 102z" />
<glyph horiz-adv-x="969" d="M-369 -407q0 90 33 174q6 12 15 12q12 0 24 -14q23 -36 23 -74v-7q-5 -60 -5 -120q0 -36 3 -72q2 -28 19 -65q10 -25 36 -53q80 -78 177 -78q51 0 100 29q64 44 97 116t49 145q32 130 61 259l36 156l-13 -2l1 5l-18 -1q-52 0 -98 23.5t-78 68.5q-74 115 -74 274 q0 47 7 95q28 180 147 325q120 140 293 172q33 6 69 6q68 0 134.5 -28t110.5 -97q57 -94 57 -218q0 -146 -78 -327l-4 -12q-12 -28 -22 -59q-13 -39 -17 -46l-2 -3q-17 -37 -45 -37h-4q-36 7 -46 49q-4 22 -4 43q0 51 15 97q6 28 14 54q5 27 30 117q22 80 24 122v29 q-1 22 -15 54q-40 70 -149 70q-139 0 -253 -99q85 -8 142 -68q70 -72 96 -164q16 -59 16 -117q0 -153 -101 -261l-13 -11q-13 -62 -28 -124q-18 -81 -35 -163q-35 -170 -79 -337q-22 -91 -67 -174.5t-132 -126.5q-44 -19 -89 -19q-71 0 -136 38q-128 74 -182 219 q-42 113 -42 225zM137 362q0 -52 14 -101q29 -101 110 -101q27 0 54 12q0 2 1.5 4t2.5 2.5t2.5 1t3 1.5t3.5 2q40 25 58.5 68.5t18.5 89.5q0 62 -29 114q-53 94 -137 99q-30 0 -61 -15q-1 0 -1 -1q-40 -88 -40 -176zM308 -807q1 8 186 715q27 58 79 58q28 0 69 -22 q-166 -622 -185 -689q-7 -27 -21.5 -52.5t-45.5 -30.5h-5q-11 0 -29.5 3.5t-29.5 3.5q-16 0 -18 14zM562 -774q0 37 5 73l3 22q34 275 125 543l8 25q9 38 26.5 75.5t51.5 51.5q7 2 14 2q17 0 28 -13.5t14.5 -31t3.5 -33.5q0 -35 -21.5 -98t-44.5 -162q-48 -202 -64 -404 q17 5 32.5 13.5t31.5 20.5q25 19 55 35q45 24 134 103q11 9 23 9q11 0 21.5 -7t16.5 -17q11 -19 11 -39q0 -23 -12 -45q-45 -71 -101 -134q-42 -50 -79 -82q-75 -64 -140 -64q-67 0 -113 55q-29 41 -29 102z" />
<glyph horiz-adv-x="969" d="M-369 -407q0 90 33 174q6 12 15 12q12 0 24 -14q23 -36 23 -74v-7q-5 -60 -5 -120q0 -36 3 -72q2 -28 19 -65q10 -25 36 -53q80 -78 177 -78q51 0 100 29q64 44 97 116t49 145q32 130 61 259l36 156l-13 -2l1 5l-18 -1q-52 0 -98 23.5t-78 68.5q-74 115 -74 274 q0 47 7 95q28 180 147 325q120 140 293 172q33 6 69 6q68 0 134.5 -28t110.5 -97q57 -94 57 -218q0 -146 -78 -327l-4 -12q-12 -28 -22 -59q-13 -39 -17 -46l-2 -3q-17 -37 -45 -37h-4q-36 7 -46 49q-4 22 -4 43q0 51 15 97q6 28 14 54q5 27 30 117q22 80 24 122v29 q-1 22 -15 54q-40 70 -149 70q-139 0 -253 -99q85 -8 142 -68q70 -72 96 -164q16 -59 16 -117q0 -153 -101 -261l-13 -11q-13 -62 -28 -124q-18 -81 -35 -163q-35 -170 -79 -337q-22 -91 -67 -174.5t-132 -126.5q-44 -19 -89 -19q-71 0 -136 38q-128 74 -182 219 q-42 113 -42 225zM100 1364q0 82 38 152q44 79 109 132.5t140.5 82.5t173.5 45q45 9 96 9q52 0 110 -13q59 -10 121 -61q29 -26 46.5 -66t18.5 -92q0 -65 -33 -150q-44 -113 -140 -222q-100 -104 -198 -150q-76 -32 -104 -32q-8 0 -10 2t-2 3q0 9 33 31q-28 -9 -64 -9 q-72 0 -134 26.5t-106 72.5q-84 95 -93 201q-2 19 -2 38zM137 362q0 -52 14 -101q29 -101 110 -101q27 0 54 12q0 2 1.5 4t2.5 2.5t2.5 1t3 1.5t3.5 2q40 25 58.5 68.5t18.5 89.5q0 62 -29 114q-53 94 -137 99q-30 0 -61 -15q-1 0 -1 -1q-40 -88 -40 -176zM233 1335 q0 -53 34 -108t110 -73q34 -7 92 -9q35 0 56 -12q9 -6 9 -16q0 -5 -2 -11q48 39 95 96q62 77 93 157q34 85 34 135q0 57 -41 75q-46 22 -112 22q-29 0 -63 -6q-49 -8 -76 -16q-48 -13 -103 -43q-46 -28 -81 -71t-43 -98q-2 -10 -2 -22zM407 -714q0 37 5 73l3 22 q34 275 125 543l8 25q9 38 26.5 75.5t51.5 51.5q7 2 14 2q17 0 28 -13.5t14.5 -31t3.5 -33.5q0 -35 -21.5 -98t-44.5 -162q-48 -202 -64 -404q17 5 32.5 13.5t31.5 20.5q25 19 55 35q45 24 134 103q11 9 23 9q11 0 21.5 -7t16.5 -17q11 -19 11 -39q0 -23 -12 -45 q-45 -71 -101 -134q-42 -50 -79 -82q-75 -64 -140 -64q-67 0 -113 55q-29 41 -29 102z" />
<glyph horiz-adv-x="969" d="M-369 -407q0 90 33 174q6 12 15 12q12 0 24 -14q23 -36 23 -74v-7q-5 -60 -5 -120q0 -36 3 -72q2 -28 19 -65q10 -25 36 -53q80 -78 177 -78q51 0 100 29q64 44 97 116t49 145q32 130 61 259l36 156l-13 -2l1 5l-18 -1q-52 0 -98 23.5t-78 68.5q-74 115 -74 274 q0 47 7 95q28 180 147 325q120 140 293 172q33 6 69 6q68 0 134.5 -28t110.5 -97q57 -94 57 -218q0 -146 -78 -327l-4 -12q-12 -28 -22 -59q-13 -39 -17 -46l-2 -3q-17 -37 -45 -37h-4q-36 7 -46 49q-4 22 -4 43q0 51 15 97q6 28 14 54q5 27 30 117q22 80 24 122v29 q-1 22 -15 54q-40 70 -149 70q-139 0 -253 -99q85 -8 142 -68q70 -72 96 -164q16 -59 16 -117q0 -153 -101 -261l-13 -11q-13 -62 -28 -124q-18 -81 -35 -163q-35 -170 -79 -337q-22 -91 -67 -174.5t-132 -126.5q-44 -19 -89 -19q-71 0 -136 38q-128 74 -182 219 q-42 113 -42 225zM137 362q0 -52 14 -101q29 -101 110 -101q27 0 54 12q0 2 1.5 4t2.5 2.5t2.5 1t3 1.5t3.5 2q40 25 58.5 68.5t18.5 89.5q0 62 -29 114q-53 94 -137 99q-30 0 -61 -15q-1 0 -1 -1q-40 -88 -40 -176zM160 1364q0 82 38 152q44 79 109 132.5t140.5 82.5 t173.5 45q45 9 96 9q52 0 110 -13q59 -10 121 -61q29 -26 46.5 -66t18.5 -92q0 -65 -33 -150q-44 -113 -140 -222q-100 -104 -198 -150q-76 -32 -104 -32q-8 0 -10 2t-2 3q0 9 33 31q-28 -9 -64 -9q-72 0 -134 26.5t-106 72.5q-84 95 -93 201q-2 19 -2 38zM293 1335 q0 -53 34 -108t110 -73q34 -7 92 -9q35 0 56 -12q9 -6 9 -16q0 -5 -2 -11q48 39 95 96q62 77 93 157q34 85 34 135q0 57 -41 75q-46 22 -112 22q-29 0 -63 -6q-49 -8 -76 -16q-48 -13 -103 -43q-46 -28 -81 -71t-43 -98q-2 -10 -2 -22zM308 -807q1 8 186 715q27 58 79 58 q28 0 69 -22q-166 -622 -185 -689q-7 -27 -21.5 -52.5t-45.5 -30.5h-5q-11 0 -29.5 3.5t-29.5 3.5q-16 0 -18 14zM562 -774q0 37 5 73l3 22q34 275 125 543l8 25q9 38 26.5 75.5t51.5 51.5q7 2 14 2q17 0 28 -13.5t14.5 -31t3.5 -33.5q0 -35 -21.5 -98t-44.5 -162 q-48 -202 -64 -404q17 5 32.5 13.5t31.5 20.5q25 19 55 35q45 24 134 103q11 9 23 9q11 0 21.5 -7t16.5 -17q11 -19 11 -39q0 -23 -12 -45q-45 -71 -101 -134q-42 -50 -79 -82q-75 -64 -140 -64q-67 0 -113 55q-29 41 -29 102z" />
<glyph horiz-adv-x="1426" d="M0 263q0 172 120 400l-26 9q-6 2 -6 10q0 10 13 10q21 0 35 -2q52 91 124 160q104 95 226 95q74 0 143 -47q61 -47 91 -119q31 -66 31 -167q15 -29 15 -71l1 -4l-1 -4q0 -41 -12 -97q-15 -97 -32 -182q3 -14 9 -26q30 -66 106 -66q68 0 127 48q61 55 94 136 q65 163 65 336q0 24 -2 50.5t-2 53.5q0 105 30 150q13 19 34 21q14 0 30 -10q48 -32 55 -118q8 -61 8 -122q-2 -95 -17 -182q6 6 10 12l1 -1l-11 -13q-4 -28 -12 -57q-45 -204 -146 -337l-18 -23q-38 -45 -92.5 -76t-113.5 -31q-38 0 -76 16q-71 36 -104 104 q-79 -394 -168 -884q24 -3 47 -3q38 0 71 8l-43 -108q-116 -94 -187 -68q-34 14 -50 52t-16 75q0 17 3 31l23 111q87 413 157 724q63 290 98 423q-5 3 -10 9q-32 40 -32 91q0 27 10 49q8 16 8 20q0 6 -1.5 9.5t-2.5 8.5q-3 10 -4 11q-21 39 -69 59q-28 10 -56 10 q-52 0 -99 -27q-64 -37 -106 -95q105 -99 114 -244q0 -137 -79 -241.5t-214 -117.5q-24 0 -37 23q-54 106 -54 218zM111 249q0 -31 8 -62q74 14 125.5 70.5t56.5 147.5q0 93 -66 171q-54 -83 -89 -173t-35 -154zM657 -837l1 8l154 707v1q3 8 11.5 21t24 24.5t40.5 11.5 q28 0 70 -22l-148 -664q-3 -11 -7 -25q-6 -27 -19 -52.5t-44 -30.5h-5q-11 0 -30 3q-19 4 -29 4q-16 0 -19 14zM892 -804q0 37 5 73q2 11 3 22q23 181 69 358q25 93 56 185q4 11 8 25q9 38 26.5 75.5t51.5 51.5q7 2 14 2q17 0 28 -13.5t14 -33.5q4 -15 4 -31q0 -25 -7 -49.5 t-15 -48.5q-4 -11 -7 -22q-21 -70 -37 -140q-33 -140 -51 -280q-8 -62 -13 -124q17 5 31 12q17 10 33 22q15 12 32 22q11 7 23 13q15 8 30 18q54 40 104 85q11 9 23 9q11 0 21.5 -7t16.5 -17q11 -19 11 -39q0 -23 -12 -45q-45 -71 -101 -134q-6 -8 -13 -16 q-28 -34 -66.5 -66.5t-80.5 -51.5q-29 -12 -59 -12q-67 0 -113 55q-17 24 -23 49.5t-6 52.5zM1101 128q1 -9 3 -17v21z" />
<glyph horiz-adv-x="1426" d="M0 263q0 172 120 400l-26 9q-6 2 -6 10q0 10 13 10q21 0 35 -2q52 91 124 160q104 95 226 95q74 0 143 -47q61 -47 91 -119q31 -66 31 -167q15 -29 15 -71l1 -4l-1 -4q0 -41 -12 -97q-15 -97 -32 -182q3 -14 9 -26q30 -66 106 -66q68 0 127 48q61 55 94 136 q65 163 65 336q0 24 -2 50.5t-2 53.5q0 105 30 150q13 19 34 21q14 0 30 -10q48 -32 55 -118q8 -61 8 -122q-2 -95 -17 -182q6 6 10 12l1 -1l-11 -13q-4 -28 -12 -57q-45 -204 -146 -337l-18 -23q-38 -45 -92.5 -76t-113.5 -31q-38 0 -76 16q-71 36 -104 104 q-79 -394 -168 -884q24 -3 47 -3q38 0 71 8l-43 -108q-116 -94 -187 -68q-34 14 -50 52t-16 75q0 17 3 31l23 111q87 413 157 724q63 290 98 423q-5 3 -10 9q-32 40 -32 91q0 27 10 49q8 16 8 20q0 6 -1.5 9.5t-2.5 8.5q-3 10 -4 11q-21 39 -69 59q-28 10 -56 10 q-52 0 -99 -27q-64 -37 -106 -95q105 -99 114 -244q0 -137 -79 -241.5t-214 -117.5q-24 0 -37 23q-54 106 -54 218zM111 249q0 -31 8 -62q74 14 125.5 70.5t56.5 147.5q0 93 -66 171q-54 -83 -89 -173t-35 -154zM586 1364q0 82 38 152q44 79 109 132.5t140.5 82.5t173.5 45 q45 9 96 9q52 0 110 -13q59 -10 121 -61q29 -26 46.5 -66t18.5 -92q0 -65 -33 -150q-44 -113 -140 -222q-100 -104 -198 -150q-76 -32 -104 -32q-8 0 -10 2t-2 3q0 9 33 31q-28 -9 -64 -9q-72 0 -134 26.5t-106 72.5q-84 95 -93 201q-2 19 -2 38zM719 1335q0 -53 34 -108 t110 -73q34 -7 92 -9q35 0 56 -12q9 -6 9 -16q0 -5 -2 -11q48 39 95 96q62 77 93 157q34 85 34 135q0 57 -41 75q-46 22 -112 22q-29 0 -63 -6q-49 -8 -76 -16q-48 -13 -103 -43q-46 -28 -81 -71t-43 -98q-2 -10 -2 -22zM742 -804q0 37 5 73q2 11 3 22q23 181 69 358 q25 93 56 185q4 11 8 25q9 38 26.5 75.5t51.5 51.5q7 2 14 2q17 0 28 -13.5t14 -33.5q4 -15 4 -31q0 -25 -7 -49.5t-15 -48.5q-4 -11 -7 -22q-21 -70 -37 -140q-33 -140 -51 -280q-8 -62 -13 -124q17 5 31 12q17 10 33 22q15 12 32 22q11 7 23 13q15 8 30 18q54 40 104 85 q11 9 23 9q11 0 21.5 -7t16.5 -17q11 -19 11 -39q0 -23 -12 -45q-45 -71 -101 -134q-6 -8 -13 -16q-28 -34 -66.5 -66.5t-80.5 -51.5q-29 -12 -59 -12q-67 0 -113 55q-17 24 -23 49.5t-6 52.5zM1101 128q1 -9 3 -17v21z" />
<glyph horiz-adv-x="1426" d="M0 263q0 172 120 400l-26 9q-6 2 -6 10q0 10 13 10q21 0 35 -2q52 91 124 160q104 95 226 95q74 0 143 -47q61 -47 91 -119q31 -66 31 -167q15 -29 15 -71l1 -4l-1 -4q0 -41 -12 -97q-15 -97 -32 -182q3 -14 9 -26q30 -66 106 -66q68 0 127 48q61 55 94 136 q65 163 65 336q0 24 -2 50.5t-2 53.5q0 105 30 150q13 19 34 21q14 0 30 -10q48 -32 55 -118q8 -61 8 -122q-2 -95 -17 -182q6 6 10 12l1 -1l-11 -13q-4 -28 -12 -57q-45 -204 -146 -337l-18 -23q-38 -45 -92.5 -76t-113.5 -31q-38 0 -76 16q-71 36 -104 104 q-79 -394 -168 -884q24 -3 47 -3q38 0 71 8l-43 -108q-116 -94 -187 -68q-34 14 -50 52t-16 75q0 17 3 31l23 111q87 413 157 724q63 290 98 423q-5 3 -10 9q-32 40 -32 91q0 27 10 49q8 16 8 20q0 6 -1.5 9.5t-2.5 8.5q-3 10 -4 11q-21 39 -69 59q-28 10 -56 10 q-52 0 -99 -27q-64 -37 -106 -95q105 -99 114 -244q0 -137 -79 -241.5t-214 -117.5q-24 0 -37 23q-54 106 -54 218zM111 249q0 -31 8 -62q74 14 125.5 70.5t56.5 147.5q0 93 -66 171q-54 -83 -89 -173t-35 -154zM616 1364q0 82 38 152q44 79 109 132.5t140.5 82.5t173.5 45 q45 9 96 9q52 0 110 -13q59 -10 121 -61q29 -26 46.5 -66t18.5 -92q0 -65 -33 -150q-44 -113 -140 -222q-100 -104 -198 -150q-76 -32 -104 -32q-8 0 -10 2t-2 3q0 9 33 31q-28 -9 -64 -9q-72 0 -134 26.5t-106 72.5q-84 95 -93 201q-2 19 -2 38zM657 -837l1 8l154 707v1 q3 8 11.5 21t24 24.5t40.5 11.5q28 0 70 -22l-148 -664q-3 -11 -7 -25q-6 -27 -19 -52.5t-44 -30.5h-5q-11 0 -30 3q-19 4 -29 4q-16 0 -19 14zM749 1335q0 -53 34 -108t110 -73q34 -7 92 -9q35 0 56 -12q9 -6 9 -16q0 -5 -2 -11q48 39 95 96q62 77 93 157q34 85 34 135 q0 57 -41 75q-46 22 -112 22q-29 0 -63 -6q-49 -8 -76 -16q-48 -13 -103 -43q-46 -28 -81 -71t-43 -98q-2 -10 -2 -22zM892 -804q0 37 5 73q2 11 3 22q23 181 69 358q25 93 56 185q4 11 8 25q9 38 26.5 75.5t51.5 51.5q7 2 14 2q17 0 28 -13.5t14 -33.5q4 -15 4 -31 q0 -25 -7 -49.5t-15 -48.5q-4 -11 -7 -22q-21 -70 -37 -140q-33 -140 -51 -280q-8 -62 -13 -124q17 5 31 12q17 10 33 22q15 12 32 22q11 7 23 13q15 8 30 18q54 40 104 85q11 9 23 9q11 0 21.5 -7t16.5 -17q11 -19 11 -39q0 -23 -12 -45q-45 -71 -101 -134q-6 -8 -13 -16 q-28 -34 -66.5 -66.5t-80.5 -51.5q-29 -12 -59 -12q-67 0 -113 55q-17 24 -23 49.5t-6 52.5zM1101 128q1 -9 3 -17v21z" />
<glyph horiz-adv-x="351" d="M11 399q0 179 41.5 354t127.5 335q144 264 389.5 440t545.5 216q65 8 131 8q265 0 506.5 -121.5t389.5 -351.5q15 -25 15 -53q0 -38 -25 -59q-11 -9 -23 -9q-10 0 -20 9q-97 104 -218 178q-38 20 -78 35q-24 9 -48 20q-64 30 -132 51q-173 54 -351 54q-111 0 -222 -23 q-248 -56 -448.5 -216t-311.5 -386q-108 -226 -108 -491q0 -317 149 -610q56 -110 143 -198.5t203 -134.5q90 -32 184 -32q134 0 256 46q73 27 128 73q60 50 82 114t37 143l8 40q3 15 11.5 23.5t17.5 8.5q14 0 25 -20q35 -75 35 -154q0 -93 -41 -182q-85 -183 -282 -258 q-140 -54 -287 -54q-163 0 -299 76q-250 145 -387 459q-144 325 -144 670z" />
<glyph horiz-adv-x="1426" d="M0 263q0 172 120 400l-26 9q-6 2 -6 10q0 10 13 10q21 0 35 -2q52 91 124 160q104 95 226 95q74 0 143 -47q61 -47 91 -119q31 -66 31 -167q15 -29 15 -71l1 -4l-1 -4q0 -41 -12 -97q-15 -97 -32 -182q3 -14 9 -26q30 -66 106 -66q68 0 127 48q61 55 94 136 q65 163 65 336q0 24 -2 50.5t-2 53.5q0 105 30 150q13 19 34 21q14 0 30 -10q48 -32 55 -118q8 -61 8 -122q-2 -95 -17 -182q6 6 10 12l1 -1l-11 -13q-4 -28 -12 -57q-45 -204 -146 -337l-18 -23q-38 -45 -92.5 -76t-113.5 -31q-38 0 -76 16q-71 36 -104 104 q-79 -394 -168 -884q24 -3 47 -3q38 0 71 8l-43 -108q-116 -94 -187 -68q-34 14 -50 52t-16 75q0 17 3 31l23 111q87 413 157 724q63 290 98 423q-5 3 -10 9q-32 40 -32 91q0 27 10 49q8 16 8 20q0 6 -1.5 9.5t-2.5 8.5q-3 10 -4 11q-21 39 -69 59q-28 10 -56 10 q-52 0 -99 -27q-64 -37 -106 -95q105 -99 114 -244q0 -137 -79 -241.5t-214 -117.5q-24 0 -37 23q-54 106 -54 218zM111 249q0 -31 8 -62q74 14 125.5 70.5t56.5 147.5q0 93 -66 171q-54 -83 -89 -173t-35 -154zM593 -597q0 181 133 332q60 68 127 130q82 73 152 159 q8 9 17 9t17 -7q22 -17 22 -52q0 -20 -10 -39l-1 -2q75 -20 136 -73.5t91 -125.5t30 -150q0 -129 -76 -245q-116 -161 -305 -239q-45 -19 -92 -19q-37 0 -74 16q-87 42 -127 126.5t-40 179.5zM740 -569q0 -75 64 -118q29 -18 60 -18q43 0 99 31q83 43 153 107 q41 38 67.5 86.5t26.5 100.5t-35 104q-27 37 -65 64q-17 12 -38 24.5t-41 12.5q-19 -1 -43 -17l-14 -7q-24 -28 -50 -56q-184 -192 -184 -314zM1101 128q1 -9 3 -17v21z" />
<glyph horiz-adv-x="921" d="M0 278q0 104 37 207q31 94 82 184q-12 7 -28 10q-2 1 -3 4t-1 6q0 4 1.5 7t5.5 4q18 0 39 -4q53 92 124 159q46 43 104 69t118 26q73 0 141 -47q61 -46 90 -117q15 -31 21 -63q4 -14 6 -35t3 -40t1 -27v-2q4 -7 6.5 -14t2.5 -13q6 -20 6 -42v-6q0 -43 -11 -88 q-2 -11 -4 -23q-13 -82 -29 -167q0 -3 -1 -5q-3 -11 -3 -25l-21 -104q0 -13 -4 -25q-5 -27 -7 -40q-1 -5 -1 -8l-44 -224q-22 -117 -50 -273l-189 -123q16 78 31 151q44 219 72 341q6 28 12 57q41 183 84 363q15 69 33 138l-10 9q-31 39 -31 88q0 27 10 50l6 14v6q0 -3 1 -3 l1 8l-2 4v2q-1 5 -3.5 11t-4.5 8q-8 17 -26.5 33.5t-40.5 24.5q-27 10 -54 10q-52 0 -99.5 -27.5t-82.5 -65.5q-6 -10 -14 -19q-4 -4 -7 -9q104 -99 111 -240v-17q0 -123 -79 -224.5t-210 -113.5h-2q-10 0 -19 7t-14 16q-54 105 -54 217zM109 259q0 -30 8 -60 q73 14 123 69.5t56 130.5l1 15q0 93 -66 171q-53 -83 -87 -173q-15 -37 -25 -75.5t-10 -77.5zM201 -694q0 37 5 73q2 11 3 22q23 181 69 358q25 93 56 185q4 11 8 25q9 38 26.5 75.5t51.5 51.5q7 2 14 2q17 0 28 -13.5t14 -33.5q4 -15 4 -31q0 -25 -7 -49.5t-15 -48.5 q-4 -11 -7 -22q-21 -70 -37 -140q-33 -140 -51 -280q-8 -62 -13 -124q17 5 31 12q17 10 33 22q15 12 32 22q11 7 23 13q15 8 30 18q54 40 104 85q11 9 23 9q11 0 21.5 -7t16.5 -17q11 -19 11 -39q0 -23 -12 -45q-45 -71 -101 -134q-6 -8 -13 -16q-28 -34 -66.5 -66.5 t-80.5 -51.5q-29 -12 -59 -12q-67 0 -113 55q-17 24 -23 49.5t-6 52.5z" />
<glyph horiz-adv-x="921" d="M-89 -807q1 8 186 715q27 58 79 58q28 0 69 -22q-166 -622 -185 -689q-7 -27 -21.5 -52.5t-45.5 -30.5h-5q-11 0 -29.5 3.5t-29.5 3.5q-16 0 -18 14zM0 278q0 104 37 207q31 94 82 184q-12 7 -28 10q-2 1 -3 4t-1 6q0 4 1.5 7t5.5 4q18 0 39 -4q53 92 124 159 q46 43 104 69t118 26q73 0 141 -47q61 -46 90 -117q15 -31 21 -63q4 -14 6 -35t3 -40t1 -27v-2q4 -7 6.5 -14t2.5 -13q6 -20 6 -42v-6q0 -43 -11 -88q-2 -11 -4 -23q-13 -82 -29 -167q0 -3 -1 -5q-3 -11 -3 -25l-21 -104q0 -13 -4 -25q-5 -27 -7 -40q-1 -5 -1 -8l-44 -224 q-22 -117 -50 -273l-189 -123q16 78 31 151q44 219 72 341q6 28 12 57q41 183 84 363q15 69 33 138l-10 9q-31 39 -31 88q0 27 10 50l6 14v6q0 -3 1 -3l1 8l-2 4v2q-1 5 -3.5 11t-4.5 8q-8 17 -26.5 33.5t-40.5 24.5q-27 10 -54 10q-52 0 -99.5 -27.5t-82.5 -65.5 q-6 -10 -14 -19q-4 -4 -7 -9q104 -99 111 -240v-17q0 -123 -79 -224.5t-210 -113.5h-2q-10 0 -19 7t-14 16q-54 105 -54 217zM109 259q0 -30 8 -60q73 14 123 69.5t56 130.5l1 15q0 93 -66 171q-53 -83 -87 -173q-15 -37 -25 -75.5t-10 -77.5zM165 -774q0 37 5 73l3 22 q34 275 125 543l8 25q9 38 26.5 75.5t51.5 51.5q7 2 14 2q17 0 28 -13.5t14.5 -31t3.5 -33.5q0 -35 -21.5 -98t-44.5 -162q-48 -202 -64 -404q17 5 32.5 13.5t31.5 20.5q25 19 55 35q45 24 134 103q11 9 23 9q11 0 21.5 -7t16.5 -17q11 -19 11 -39q0 -23 -12 -45 q-45 -71 -101 -134q-42 -50 -79 -82q-75 -64 -140 -64q-67 0 -113 55q-29 41 -29 102z" />
<glyph horiz-adv-x="301" d="M-996 -431q0 100 38.5 194t110.5 169.5t170 98.5q23 5 43 5q114 0 190 -118q49 -77 67 -163q2 -8 3 -17q9 -49 9 -100q0 -143 -67 -275q29 -106 66 -106q29 0 59 60q56 111 220 905q101 497 147 613q23 57 80 86q25 13 51 13q41 0 57 -39q6 -15 12 -45q4 -14 4 -29 q0 -9 -3.5 -20t-8.5 -11t-11 11q-10 -13 -20 -13q-35 -7 -47 -48q0 -15 -15 -68q-56 -199 -137 -624q-68 -365 -163 -736q-15 -59 -34 -108q-51 -130 -176 -130q-129 0 -218 128l-17 26q-53 -18 -91 -18q-29 0 -57 6q-110 22 -182 109q-80 102 -80 244zM-877 -499 q2 -38 7 -58l9 -24q11 -24 25 -36q69 -64 184 -64h15q13 0 59 43q35 42 51 111q22 90 22 156l-2 86q-4 38 -11 72l-4 16q-7 22 -10 27l-4 4q-7 11 -7 13l3 -2l-12 12q-21 10 -47 10q-28 0 -58 -13q-70 -32 -119.5 -91.5t-75.5 -131.5q-25 -65 -25 -130z" />
<glyph horiz-adv-x="921" d="M0 278q0 104 37 207q31 94 82 184q-12 7 -28 10q-2 1 -3 4t-1 6q0 4 1.5 7t5.5 4q18 0 39 -4q53 92 124 159q46 43 104 69t118 26q73 0 141 -47q61 -46 90 -117q15 -31 21 -63q4 -14 6 -35t3 -40t1 -27v-2q4 -7 6.5 -14t2.5 -13q6 -20 6 -42v-6q0 -43 -11 -88 q-2 -11 -4 -23q-13 -82 -29 -167q0 -3 -1 -5q-3 -11 -3 -25l-21 -104q0 -13 -4 -25q-5 -27 -7 -40q-1 -5 -1 -8l-44 -224q-22 -117 -50 -273l-189 -123q16 78 31 151q44 219 72 341q6 28 12 57q41 183 84 363q15 69 33 138l-10 9q-31 39 -31 88q0 27 10 50l6 14v6q0 -3 1 -3 l1 8l-2 4v2q-1 5 -3.5 11t-4.5 8q-8 17 -26.5 33.5t-40.5 24.5q-27 10 -54 10q-52 0 -99.5 -27.5t-82.5 -65.5q-6 -10 -14 -19q-4 -4 -7 -9q104 -99 111 -240v-17q0 -123 -79 -224.5t-210 -113.5h-2q-10 0 -19 7t-14 16q-54 105 -54 217zM109 259q0 -30 8 -60 q73 14 123 69.5t56 130.5l1 15q0 93 -66 171q-53 -83 -87 -173q-15 -37 -25 -75.5t-10 -77.5zM160 1364q0 82 38 152q44 79 109 132.5t140.5 82.5t173.5 45q45 9 96 9q52 0 110 -13q59 -10 121 -61q29 -26 46.5 -66t18.5 -92q0 -65 -33 -150q-44 -113 -140 -222 q-100 -104 -198 -150q-76 -32 -104 -32q-8 0 -10 2t-2 3q0 9 33 31q-28 -9 -64 -9q-72 0 -134 26.5t-106 72.5q-84 95 -93 201q-2 19 -2 38zM201 -694q0 37 5 73q2 11 3 22q23 181 69 358q25 93 56 185q4 11 8 25q9 38 26.5 75.5t51.5 51.5q7 2 14 2q17 0 28 -13.5t14 -33.5 q4 -15 4 -31q0 -25 -7 -49.5t-15 -48.5q-4 -11 -7 -22q-21 -70 -37 -140q-33 -140 -51 -280q-8 -62 -13 -124q17 5 31 12q17 10 33 22q15 12 32 22q11 7 23 13q15 8 30 18q54 40 104 85q11 9 23 9q11 0 21.5 -7t16.5 -17q11 -19 11 -39q0 -23 -12 -45q-45 -71 -101 -134 q-6 -8 -13 -16q-28 -34 -66.5 -66.5t-80.5 -51.5q-29 -12 -59 -12q-67 0 -113 55q-17 24 -23 49.5t-6 52.5zM293 1335q0 -53 34 -108t110 -73q34 -7 92 -9q35 0 56 -12q9 -6 9 -16q0 -5 -2 -11q48 39 95 96q62 77 93 157q34 85 34 135q0 57 -41 75q-46 22 -112 22 q-29 0 -63 -6q-49 -8 -76 -16q-48 -13 -103 -43q-46 -28 -81 -71t-43 -98q-2 -10 -2 -22z" />
<glyph horiz-adv-x="921" d="M-11 -806l152 716q12 29 36 47q18 12 45 13q27 0 65 -19q-135 -622 -153 -695q-5 -29 -18 -55t-44 -33h-9q-11 0 -26 2t-26 2t-16.5 3t-5.5 11v8zM0 278q0 181 119 391q-12 7 -28 10q-4 2 -4 10q0 9 7 11q18 0 39 -4q98 170 228 228q58 26 118 26q73 0 141 -47 q61 -46 90 -117q31 -64 31 -166q15 -30 15 -73q0 -46 -11 -91l-4 -23q-26 -164 -29.5 -173.5t-3.5 -23.5l-21 -104q0 -13 -4 -25q-8 -43 -8 -48q-56 -283 -94 -497l-189 -123q83 407 103 492l12 57q83 372 117 501q-41 37 -41 97q0 27 16 64v6q0 -3 1 -3l1 8l-2 4q0 6 -3 13 q-10 22 -31 42q-39 34 -95 34q-96 0 -182 -93q-6 -10 -14 -19q-4 -4 -7 -9q111 -106 111 -257q0 -123 -79 -224.5t-211 -113.5q-21 0 -34 23q-54 105 -54 217zM109 259q0 -30 8 -60q73 14 123.5 70t56.5 145q0 93 -66 171q-53 -83 -87 -173q-35 -86 -35 -153zM160 1364 q0 94 44 166.5t110 123.5q122 93 304 122q44 9 99 9q116 0 202 -51q48 -29 75 -89q19 -41 19 -87q0 -70 -33 -155q-44 -113 -140 -222q-60 -64 -121 -104.5t-110 -59t-71 -18.5q-5 0 -8.5 0.5t-3.5 4.5q0 9 33 31q-28 -9 -58 -9q-78 0 -140 26.5t-106 72.5q-49 53 -72 115.5 t-23 123.5zM195 -774q0 37 5 73l3 22q35 278 125 543l8 25q9 38 26.5 75.5t51.5 51.5q7 2 14 2q24 0 35 -26t11 -52q0 -35 -22 -98l-7 -22q-79 -270 -101 -544q17 5 32.5 13.5t31.5 20.5q25 19 55 35q45 24 134 103q11 9 23 9q22 0 35.5 -21t13.5 -42q0 -23 -12 -45 q-45 -71 -101 -134q-40 -48 -72 -77q-78 -69 -147 -69q-67 0 -113 55q-29 41 -29 102zM293 1335q0 -53 34 -108t110 -73q39 -8 81 -9q36 -2 53 -5q23 -5 23 -23q0 -5 -2 -11q129 112 188 253q30 78 31 100q3 19 3 35q0 97 -153 97q-15 0 -23.5 -0.5t-15 -1.5t-15.5 -2.5 t-26 -4.5q-52 -8 -86.5 -21t-75.5 -35q-49 -29 -87.5 -78t-38.5 -113z" />
<glyph d="M-914 -302q0 56 12 111q41 179 194 315q8 6 15 6q8 0 14 -6t7.5 -13t2.5 -13l-2 -15q-4 -19 -18 -34q-124 -130 -124 -279v-13q19 -165 147 -260q153 -106 357 -115l41 -1q177 0 393 75q113 33 220 93q97 58 182 133q23 20 42 20q20 0 29 -21q5 -15 5 -30q0 -10 -2 -20 q-8 -32 -30 -59q-84 -105 -192 -180.5t-227 -131.5q-121 -54 -247 -73q-103 -19 -205 -19q-142 2 -259.5 39.5t-203.5 123.5q-144 145 -151 367zM-674 1116q0 56 13 112q56 222 233 367q96 78 213 117t240 45l46 1q102 0 201 -19q122 -19 231 -73q106 -56 197 -131.5 t152 -180.5q17 -28 17 -59q0 -26 -14 -50q-15 -22 -34 -22q-20 0 -38 21q-67 76 -152 133q-93 60 -199 93q-202 75 -377 75l-41 -1q-205 -9 -382 -115q-150 -95 -205 -260q-12 -43 -12 -87q0 -106 70 -205q10 -16 10 -35q0 -27 -17 -41q-7 -5 -15 -5q-7 0 -14 6 q-61 66 -92 147t-31 167z" />
<glyph horiz-adv-x="969" d="M-369 -407q0 90 33 174q6 12 15 12q12 0 24 -14q23 -36 23 -74v-7q-5 -60 -5 -120q0 -36 3 -72q2 -28 19 -65q10 -25 36 -53q80 -78 177 -78q51 0 100 29q64 44 97 116t49 145q32 130 61 259l36 156l-13 -2l1 5l-18 -1q-52 0 -98 23.5t-78 68.5q-74 115 -74 274 q0 47 7 95q28 180 147 325q120 140 293 172q33 6 69 6q68 0 134.5 -28t110.5 -97q57 -94 57 -218q0 -146 -78 -327l-4 -12q-12 -28 -22 -59q-13 -39 -17 -46l-2 -3q-17 -37 -45 -37h-4q-36 7 -46 49q-4 22 -4 43q0 51 15 97q6 28 14 54q5 27 30 117q22 80 24 122v29 q-1 22 -15 54q-40 70 -149 70q-139 0 -253 -99q85 -8 142 -68q70 -72 96 -164q16 -59 16 -117q0 -153 -101 -261l-13 -11q-13 -62 -28 -124q-18 -81 -35 -163q-35 -170 -79 -337q-22 -91 -67 -174.5t-132 -126.5q-44 -19 -89 -19q-71 0 -136 38q-128 74 -182 219 q-42 113 -42 225zM137 362q0 -52 14 -101q29 -101 110 -101q27 0 54 12q0 2 1.5 4t2.5 2.5t2.5 1t3 1.5t3.5 2q40 25 58.5 68.5t18.5 89.5q0 62 -29 114q-53 94 -137 99q-30 0 -61 -15q-1 0 -1 -1q-40 -88 -40 -176zM293 -597q0 181 133 332q60 68 127 130q82 73 152 159 q8 9 17 9t17 -7q22 -17 22 -52q0 -20 -10 -39l-1 -2q75 -20 136 -73.5t91 -125.5t30 -150q0 -129 -76 -245q-116 -161 -305 -239q-45 -19 -92 -19q-37 0 -74 16q-87 42 -127 126.5t-40 179.5zM440 -569q0 -75 64 -118q29 -18 60 -18q43 0 99 31q83 43 153 107 q41 38 67.5 86.5t26.5 100.5t-35 104q-27 37 -65 64q-17 12 -38 24.5t-41 12.5q-19 -1 -43 -17l-14 -7q-24 -28 -50 -56q-184 -192 -184 -314z" />
<glyph horiz-adv-x="969" d="M-369 -407q0 90 33 174q6 12 15 12q6 0 12.5 -4t11.5 -10q23 -36 23 -74v-7q-5 -60 -5 -120q0 -36 3 -72q2 -28 19 -65q10 -25 36 -53q80 -78 177 -78q51 0 100 29q64 44 97 116t49 145q32 130 61 259l36 156l-13 -2l1 5l-18 -1q-52 0 -98 23.5t-78 68.5q-74 115 -74 274 q0 47 7 95q28 180 147 325q120 140 293 172q-4 9 -7 18q-31 81 -31 167q0 56 13 112q56 222 233 367q96 78 213 117t240 45l46 1q102 0 201 -19q122 -19 231 -73q106 -56 197 -131.5t152 -180.5q17 -28 17 -59q0 -26 -14 -50q-15 -22 -34 -22q-20 0 -38 21q-67 76 -152 133 q-93 60 -199 93q-93 34 -185.5 54.5t-191.5 20.5l-41 -1q-205 -9 -382 -115q-150 -95 -205 -260q-12 -43 -12 -87q0 -74 35 -145q59 -3 118 -28q66 -28 110 -97q57 -94 57 -218q0 -77 -22 -166q-23 -86 -56 -161l-4 -12q-12 -28 -22 -59l-9 -29q-5 -12 -8 -17q-1 -2 -2 -3 q-17 -37 -45 -37h-4q-36 7 -46 49q-4 22 -4 43q0 51 15 97q6 28 14 54q5 24 11 45l11 44q4 15 8 28q7 26 12.5 49.5t10.5 58.5q1 3 1 14v22v14q-2 18 -15 47q-25 43 -68 56.5t-81 13.5q-24 0 -41 -3q-117 -13 -212 -96q85 -8 142.5 -67.5t84.5 -130.5q6 -17 11 -34 q9 -32 13 -66q3 -26 3 -51q0 -153 -101 -261q-3 -2 -6 -5q-3 -2 -7 -6q-13 -62 -28 -124q-2 -12 -5 -23q-16 -70 -30 -140q-35 -170 -79 -337q-22 -91 -67 -174.5t-132 -126.5q-44 -19 -89 -19q-71 0 -136.5 38t-110.5 93q-45 57 -70.5 125.5t-36.5 139.5q-6 43 -6 86z M137 362q0 -52 14 -101q21 -74 68 -93q20 -8 42 -8q27 0 54 12l1 4q2 2 3 2.5t2 0.5q2 1 3.5 2t3.5 2q40 25 58.5 68.5t18.5 89.5q0 26 -6 51q-6 33 -23 63q-49 86 -124 99h-13q-30 0 -61 -15l-1 -1q-40 -88 -40 -176zM373 -302q0 56 12 111q41 179 194 315q8 6 15 6 q8 0 14 -6t8 -13l2 -13l-2 -15q-4 -19 -18 -34q-92 -97 -116 -206q-8 -37 -8 -73v-13q19 -165 147 -260q153 -106 357 -115l41 -1q98 0 195.5 20t197.5 55q113 33 220 93q97 58 182 133q23 20 42 20q20 0 29 -21q5 -15 5 -30q0 -10 -2 -20q-8 -32 -30 -59 q-84 -105 -192 -180.5t-227 -131.5q-121 -54 -247 -73q-103 -19 -205 -19q-142 2 -259.5 39.5t-203.5 123.5q-144 145 -151 367z" />
<glyph horiz-adv-x="969" d="M-369 -407q0 90 33 174q6 12 15 12q12 0 24 -14q23 -36 23 -74v-7q-5 -60 -5 -120q0 -36 3 -72q2 -28 19 -65q10 -25 36 -53q80 -78 177 -78q51 0 100 29q64 44 97 116t49 145q32 130 61 259l36 156l-13 -2l1 5l-18 -1q-52 0 -98 23.5t-78 68.5q-74 115 -74 274 q0 47 7 95q28 180 147 325q120 140 293 172q33 6 69 6q68 0 134.5 -28t110.5 -97q57 -94 57 -218q0 -146 -78 -327l-4 -12q-12 -28 -22 -59q-13 -39 -17 -46l-2 -3q-17 -37 -45 -37h-4q-36 7 -46 49q-4 22 -4 43q0 51 15 97q6 28 14 54q5 27 30 117q22 80 24 122v29 q-1 22 -15 54q-40 70 -149 70q-139 0 -253 -99q85 -8 142 -68q70 -72 96 -164q16 -59 16 -117q0 -153 -101 -261l-13 -11q-13 -62 -28 -124q-18 -81 -35 -163q-35 -170 -79 -337q-22 -91 -67 -174.5t-132 -126.5q-44 -19 -89 -19q-71 0 -136 38q-128 74 -182 219 q-42 113 -42 225zM137 362q0 -52 14 -101q29 -101 110 -101q27 0 54 12q0 2 1.5 4t2.5 2.5t2.5 1t3 1.5t3.5 2q40 25 58.5 68.5t18.5 89.5q0 62 -29 114q-53 94 -137 99q-30 0 -61 -15q-1 0 -1 -1q-40 -88 -40 -176zM358 -457q0 68 28 142t77 137l13 16q32 44 77 75 q55 43 102 46l19 1q18 0 26 -19q2 -7 2 -14q0 -20 -16 -32q-20 -12 -39 -30q-73 -63 -122 -167q-43 -85 -43 -143q0 -13 1 -21q1 0 1 -1q1 -2 2 -5t2 -4.5t16 -14.5q16 -8 28 -10.5t39 -2.5q70 0 152 32l99 40q19 7 38 18l21 10q40 20 57 20q23 0 39 -20q17 -27 17 -60 q0 -29 -13 -50q-91 -123 -273 -165q-58 -13 -108 -13q-61 0 -110 19q-124 54 -132 209v7z" />
<glyph d="M-784 1364q0 82 38 152q44 79 109 132.5t140.5 82.5t173.5 45q45 9 96 9q52 0 110 -13q59 -10 121 -61q29 -26 46.5 -66t18.5 -92q0 -65 -33 -150q-44 -113 -140 -222q-100 -104 -198 -150q-76 -32 -104 -32q-8 0 -10 2t-2 3q0 9 33 31q-28 -9 -64 -9q-72 0 -134 26.5 t-106 72.5q-84 95 -93 201q-2 19 -2 38zM-651 1335q0 -53 34 -108t110 -73q34 -7 92 -9q35 0 56 -12q9 -6 9 -16q0 -5 -2 -11q48 39 95 96q62 77 93 157q34 85 34 135q0 57 -41 75q-46 22 -112 22q-29 0 -63 -6q-49 -8 -76 -16q-48 -13 -103 -43q-46 -28 -81 -71t-43 -98 q-2 -10 -2 -22zM-90 1094q0 59 41 97q36 26 77 26q49 0 89 -35q20 -20 26 -42t6 -52v-20q-4 -54 -43 -82t-74 -28q-50 0 -90 35q-21 21 -26.5 45t-5.5 56zM-11 1087q0 -19 7.5 -36.5t23.5 -21.5l13 -1q14 3 20 9t10.5 18.5t4.5 22.5v22q0 22 -12.5 37t-25.5 15q-7 0 -19 -5 q-5 -2 -12 -13q-10 -15 -10 -33v-14z" />
<glyph horiz-adv-x="1450" d="M-2 368q0 -30 30 -30q20 0 33 13q8 8 8 20q-4 23 -30 23q-37 -3 -41 -26zM2 470q0 -11 8 -18.5t23 -7.5q16 1 28 10t12 22q0 9 -8 16.5t-26 7.5q-12 0 -24.5 -8.5t-12.5 -21.5zM21 261l1 -8q8 -18 28 -18q8 0 16 4q26 9 26 29q0 23 -31 23q-6 0 -13 -1q-27 -7 -27 -29z M31 576q0 -8 6.5 -16.5t22.5 -8.5q13 0 25 6q17 9 17 26q0 24 -33 24q-9 0 -20 -5q-18 -11 -18 -26zM70 169q0 -8 5 -15q10 -12 28 -12q10 0 21 6q18 12 18 26q0 7 -4 13q-11 12 -27 12q-10 0 -21 -5q-20 -10 -20 -25zM85 678q0 -25 31 -25q8 0 18 4q23 6 23 27q0 15 -18 23 q-6 2 -14 2q-23 0 -35 -17q-5 -7 -5 -14zM148 85q0 -7 9.5 -14t21.5 -7q18 0 28 9.5t12 19.5q0 14 -8.5 20.5t-20.5 6.5q-16 0 -28 -8.5t-14 -18.5v-8zM164 771q0 -13 10.5 -18.5t21.5 -5.5q18 0 28 9t11 18q0 14 -9.5 21.5t-20.5 7.5q-17 0 -32 -12q-9 -9 -9 -20zM252 31 q0 -14 19 -21q7 -2 13 -2q7 0 18 3q21 8 21 28q0 26 -29 26q-6 0 -16 -3q-26 -9 -26 -31zM266 850q0 -24 34 -24q11 0 21 5q16 11 16 25q0 25 -31 25q-12 0 -26 -8.5t-14 -22.5zM377 7q0 -23 28 -25q17 0 30 8t13 22q0 25 -28 27q-14 0 -28.5 -8t-14.5 -24zM388 908 q0 -5 2 -10q9 -16 31 -16q6 0 13 2q25 10 25 31l-1 5q-6 19 -29 19q-7 0 -16 -3q-25 -9 -25 -28zM511 14q2 -22 32 -22h9q31 9 31 31l-1 5q-7 20 -30 20q-20 0 -31 -13q-7 -6 -10 -21zM521 937q0 -29 34 -29q30 2 37 30v4q0 10 -9 16.5t-26 6.5q-31 -2 -36 -28zM641 58 q0 -5 2 -10q7 -14 28 -14q9 0 19 4q21 10 21 28q0 6 -4 12q-10 13 -28 13q-9 0 -19 -5q-19 -8 -19 -28zM652 927q0 -27 30 -27q9 0 20 5q21 9 21 27q0 24 -30 24q-12 0 -26.5 -6.5t-14.5 -22.5zM754 128q0 -10 7.5 -17.5t21.5 -7.5q36 0 41 35q0 6 -10 13.5t-22 7.5 q-16 0 -27 -9t-11 -22zM768 882q0 -24 30 -24q18 0 32 13q9 9 9 19q0 13 -14 20q-9 5 -19 5q-20 0 -32 -14q-6 -9 -6 -19zM843 215q0 -12 14 -21q8 -4 17 -4q20 0 34 14q6 9 6 18q0 14 -16 21q-8 3 -16 3q-20 0 -33 -14q-6 -8 -6 -17zM859 812q0 -21 32 -21q11 0 25 7.5 t14 23.5q0 9 -8 17t-23 8q-14 0 -27 -9.5t-13 -25.5zM910 315q0 -6 3 -12q8 -15 28 -15q8 0 19 4q21 8 21 28q0 6 -4 13q-7 12 -27 12q-9 0 -20 -5q-20 -8 -20 -25zM922 729q0 -6 3 -11q7 -14 27 -14q9 0 18 3q24 9 24 28q0 5 -2 11q-10 14 -29 14q-10 0 -19 -4 q-22 -12 -22 -27zM951 420q0 -8 6 -15q10 -12 25 -12q13 0 27 8.5t14 24.5q0 8 -7.5 15.5t-21.5 8.5q-16 0 -29.5 -8.5t-13.5 -21.5zM959 633q0 -28 32 -28l8 1q28 6 31 27v8q-5 21 -31 21q-5 0 -11 -2q-26 -8 -29 -27zM969 530q0 -30 32 -30q16 1 27 10t11 24q0 11 -10 17 t-23 6q-35 -6 -37 -27zM997 89q0 14 2 25q40 175 106 343q39 106 62 178q23 81 57 156q-30 -5 -58 -23q-35 -26 -47 -67q-3 -14 -3 -28l1 -34q-1 -10 -2.5 -21.5t-7 -19.5t-15.5 -8q-6 0 -12 4q-21 14 -30 42.5t-10 72.5q0 135 99 202q61 36 127 36q23 0 45 -3.5t46.5 -11 t42.5 -23.5q34 -35 35 -83q0 -16 -3 -34q-9 -53 -63 -89q-21 -13 -34 -30q-13 -23 -21.5 -58.5t-34.5 -115.5q-57 -178 -94 -298q-27 -94 -68 -183q-18 -30 -47 -30q-40 0 -62 52q-10 24 -11 49z" />
<glyph horiz-adv-x="1667" d="M88 368q0 -30 30 -30q20 0 33 13q8 8 8 20q-4 23 -30 23q-37 -3 -41 -26zM92 470q0 -11 8 -18.5t23 -7.5q16 1 28 10t12 22q0 9 -8 16.5t-26 7.5q-12 0 -24.5 -8.5t-12.5 -21.5zM111 261l1 -8q8 -18 28 -18q8 0 16 4q26 9 26 29q0 23 -31 23q-6 0 -13 -1q-27 -7 -27 -29z M121 576q0 -8 6.5 -16.5t22.5 -8.5q13 0 25 6q17 9 17 26q0 24 -33 24q-9 0 -20 -5q-18 -11 -18 -26zM160 169q0 -8 5 -15q10 -12 28 -12q10 0 21 6q18 12 18 26q0 7 -4 13q-11 12 -27 12q-10 0 -21 -5q-20 -10 -20 -25zM175 678q0 -25 31 -25q8 0 18 4q23 6 23 27 q0 15 -18 23q-6 2 -14 2q-23 0 -35 -17q-5 -7 -5 -14zM238 85q0 -7 9.5 -14t21.5 -7q18 0 28 9.5t12 19.5q0 14 -8.5 20.5t-20.5 6.5q-16 0 -28 -8.5t-14 -18.5v-8zM254 771q0 -13 10.5 -18.5t21.5 -5.5q18 0 28 9t11 18q0 14 -9.5 21.5t-20.5 7.5q-17 0 -32 -12 q-9 -9 -9 -20zM342 31q0 -14 19 -21q7 -2 13 -2q7 0 18 3q21 8 21 28q0 26 -29 26q-6 0 -16 -3q-26 -9 -26 -31zM356 850q0 -24 34 -24q11 0 21 5q16 11 16 25q0 25 -31 25q-12 0 -26 -8.5t-14 -22.5zM467 7q0 -23 28 -25q17 0 30 8t13 22q0 25 -28 27q-14 0 -28.5 -8 t-14.5 -24zM478 908q0 -5 2 -10q9 -16 31 -16q6 0 13 2q25 10 25 31l-1 5q-6 19 -29 19q-7 0 -16 -3q-25 -9 -25 -28zM601 14q2 -22 32 -22h9q31 9 31 31l-1 5q-7 20 -30 20q-20 0 -31 -13q-7 -6 -10 -21zM611 937q0 -29 34 -29q30 2 37 30v4q0 10 -9 16.5t-26 6.5 q-31 -2 -36 -28zM731 58q0 -5 2 -10q7 -14 28 -14q9 0 19 4q21 10 21 28q0 6 -4 12q-10 13 -28 13q-9 0 -19 -5q-19 -8 -19 -28zM742 927q0 -27 30 -27q9 0 20 5q21 9 21 27q0 24 -30 24q-12 0 -26.5 -6.5t-14.5 -22.5zM844 128q0 -10 7.5 -17.5t21.5 -7.5q36 0 41 35 q0 6 -10 13.5t-22 7.5q-16 0 -27 -9t-11 -22zM858 882q0 -24 30 -24q18 0 32 13q9 9 9 19q0 13 -14 20q-9 5 -19 5q-20 0 -32 -14q-6 -9 -6 -19zM933 215q0 -12 14 -21q8 -4 17 -4q20 0 34 14q6 9 6 18q0 14 -16 21q-8 3 -16 3q-20 0 -33 -14q-6 -8 -6 -17zM949 812 q0 -21 32 -21q11 0 25 7.5t14 23.5q0 9 -8 17t-23 8q-14 0 -27 -9.5t-13 -25.5zM1000 315q0 -6 3 -12q8 -15 28 -15q8 0 19 4q21 8 21 28q0 6 -4 13q-7 12 -27 12q-9 0 -20 -5q-20 -8 -20 -25zM1012 729q0 -6 3 -11q7 -14 27 -14q9 0 18 3q24 9 24 28q0 5 -2 11 q-10 14 -29 14q-10 0 -19 -4q-22 -12 -22 -27zM1041 420q0 -8 6 -15q10 -12 25 -12q13 0 27 8.5t14 24.5q0 8 -7.5 15.5t-21.5 8.5q-16 0 -29.5 -8.5t-13.5 -21.5zM1049 633q0 -28 32 -28l8 1q28 6 31 27v8q-5 21 -31 21q-5 0 -11 -2q-26 -8 -29 -27zM1059 530q0 -30 32 -30 q16 1 27 10t11 24q0 11 -10 17t-23 6q-35 -6 -37 -27zM1069 -572q0 87 28 207q50 203 110 404l151 525q15 58 34.5 115.5t49.5 109.5q-11 20 -35.5 33.5t-54.5 21t-60 9.5q6 -44 46 -83l1 -2q0 -2 -2 -4.5t-4.5 -4t-4.5 -1.5q-41 7 -74 37.5t-33 69.5q0 24 19 42 q36 36 124 36q32 0 63 -6t62 -17q24 -8 50 -12q17 -3 35 -8t18 -22v-4q-9 -46 -27 -92q-22 -63 -55 -190q-62 -238 -129 -476q-49 -176 -95 -352q-32 -120 -32 -205q0 -99 44 -171q40 -62 107.5 -91.5t141.5 -29.5q57 0 112 17q48 16 77 37q81 61 178 277q11 24 32.5 45 t46.5 32q12 5 24 5q23 0 23 -23q-7 -83 -42.5 -161.5t-86.5 -144.5q-127 -166 -291 -234q-99 -40 -205 -40q-76 0 -146 25.5t-120 82.5q-80 97 -80 243z" />
<glyph horiz-adv-x="1287" d="M88 368q0 -30 30 -30q20 0 33 13q8 8 8 20q-4 23 -30 23q-37 -3 -41 -26zM92 470q0 -11 8 -18.5t23 -7.5q16 1 28 10t12 22q0 9 -8 16.5t-26 7.5q-12 0 -24.5 -8.5t-12.5 -21.5zM111 261l1 -8q8 -18 28 -18q8 0 16 4q26 9 26 29q0 23 -31 23q-6 0 -13 -1q-27 -7 -27 -29z M121 576q0 -8 6.5 -16.5t22.5 -8.5q13 0 25 6q17 9 17 26q0 24 -33 24q-9 0 -20 -5q-18 -11 -18 -26zM160 169q0 -8 5 -15q10 -12 28 -12q10 0 21 6q18 12 18 26q0 7 -4 13q-11 12 -27 12q-10 0 -21 -5q-20 -10 -20 -25zM175 678q0 -25 31 -25q8 0 18 4q23 6 23 27 q0 15 -18 23q-6 2 -14 2q-23 0 -35 -17q-5 -7 -5 -14zM235 1364q0 82 38 152q44 79 109 132.5t140.5 82.5t173.5 45q45 9 96 9q52 0 110 -13q59 -10 121 -61q29 -26 46.5 -66t18.5 -92q0 -65 -33 -150q-44 -113 -140 -222q-100 -104 -198 -150q-76 -32 -104 -32q-8 0 -10 2 t-2 3q0 9 33 31q-28 -9 -64 -9q-72 0 -134 26.5t-106 72.5q-84 95 -93 201q-2 19 -2 38zM238 85q0 -7 9.5 -14t21.5 -7q18 0 28 9.5t12 19.5q0 14 -8.5 20.5t-20.5 6.5q-16 0 -28 -8.5t-14 -18.5v-8zM254 771q0 -13 10.5 -18.5t21.5 -5.5q18 0 28 9t11 18q0 14 -9.5 21.5 t-20.5 7.5q-17 0 -32 -12q-9 -9 -9 -20zM342 31q0 -14 19 -21q7 -2 13 -2q7 0 18 3q21 8 21 28q0 26 -29 26q-6 0 -16 -3q-26 -9 -26 -31zM356 850q0 -24 34 -24q11 0 21 5q16 11 16 25q0 25 -31 25q-12 0 -26 -8.5t-14 -22.5zM368 1335q0 -53 34 -108t110 -73q34 -7 92 -9 q35 0 56 -12q9 -6 9 -16q0 -5 -2 -11q48 39 95 96q62 77 93 157q34 85 34 135q0 57 -41 75q-46 22 -112 22q-29 0 -63 -6q-49 -8 -76 -16q-48 -13 -103 -43q-46 -28 -81 -71t-43 -98q-2 -10 -2 -22zM467 7q0 -23 28 -25q17 0 30 8t13 22q0 25 -28 27q-14 0 -28.5 -8 t-14.5 -24zM478 908q0 -5 2 -10q9 -16 31 -16q6 0 13 2q25 10 25 31l-1 5q-6 19 -29 19q-7 0 -16 -3q-25 -9 -25 -28zM601 14q2 -22 32 -22h9q31 9 31 31l-1 5q-7 20 -30 20q-20 0 -31 -13q-7 -6 -10 -21zM611 937q0 -29 34 -29q30 2 37 30v4q0 10 -9 16.5t-26 6.5 q-31 -2 -36 -28zM731 58q0 -5 2 -10q7 -14 28 -14q9 0 19 4q21 10 21 28q0 6 -4 12q-10 13 -28 13q-9 0 -19 -5q-19 -8 -19 -28zM742 927q0 -27 30 -27q9 0 20 5q21 9 21 27q0 24 -30 24q-12 0 -26.5 -6.5t-14.5 -22.5zM844 128q0 -10 7.5 -17.5t21.5 -7.5q36 0 41 35 q0 6 -10 13.5t-22 7.5q-16 0 -27 -9t-11 -22zM858 882q0 -24 30 -24q18 0 32 13q9 9 9 19q0 13 -14 20q-9 5 -19 5q-20 0 -32 -14q-6 -9 -6 -19zM933 215q0 -12 14 -21q8 -4 17 -4q20 0 34 14q6 9 6 18q0 14 -16 21q-8 3 -16 3q-20 0 -33 -14q-6 -8 -6 -17zM949 812 q0 -21 32 -21q11 0 25 7.5t14 23.5q0 9 -8 17t-23 8q-14 0 -27 -9.5t-13 -25.5zM1000 315q0 -6 3 -12q8 -15 28 -15q8 0 19 4q21 8 21 28q0 6 -4 13q-7 12 -27 12q-9 0 -20 -5q-20 -8 -20 -25zM1012 729q0 -6 3 -11q7 -14 27 -14q9 0 18 3q24 9 24 28q0 5 -2 11 q-10 14 -29 14q-10 0 -19 -4q-22 -12 -22 -27zM1041 420q0 -8 6 -15q10 -12 25 -12q13 0 27 8.5t14 24.5q0 8 -7.5 15.5t-21.5 8.5q-16 0 -29.5 -8.5t-13.5 -21.5zM1049 633q0 -28 32 -28l8 1q28 6 31 27v8q-5 21 -31 21q-5 0 -11 -2q-26 -8 -29 -27zM1059 530q0 -30 32 -30 q16 1 27 10t11 24q0 11 -10 17t-23 6q-35 -6 -37 -27z" />
<glyph horiz-adv-x="1192" d="M-2 368q0 -30 30 -30q20 0 33 13q8 8 8 20q-4 23 -30 23q-37 -3 -41 -26zM2 470q0 -11 8 -18.5t23 -7.5q16 1 28 10t12 22q0 9 -8 16.5t-26 7.5q-12 0 -24.5 -8.5t-12.5 -21.5zM21 261l1 -8q8 -18 28 -18q8 0 16 4q26 9 26 29q0 23 -31 23q-6 0 -13 -1q-27 -7 -27 -29z M31 576q0 -8 6.5 -16.5t22.5 -8.5q13 0 25 6q17 9 17 26q0 24 -33 24q-9 0 -20 -5q-18 -11 -18 -26zM70 169q0 -8 5 -15q10 -12 28 -12q10 0 21 6q18 12 18 26q0 7 -4 13q-11 12 -27 12q-10 0 -21 -5q-20 -10 -20 -25zM85 678q0 -25 31 -25q8 0 18 4q23 6 23 27q0 15 -18 23 q-6 2 -14 2q-23 0 -35 -17q-5 -7 -5 -14zM148 85q0 -7 9.5 -14t21.5 -7q18 0 28 9.5t12 19.5q0 14 -8.5 20.5t-20.5 6.5q-16 0 -28 -8.5t-14 -18.5v-8zM164 771q0 -13 10.5 -18.5t21.5 -5.5q18 0 28 9t11 18q0 14 -9.5 21.5t-20.5 7.5q-17 0 -32 -12q-9 -9 -9 -20zM252 31 q0 -14 19 -21q7 -2 13 -2q7 0 18 3q21 8 21 28q0 26 -29 26q-6 0 -16 -3q-26 -9 -26 -31zM266 850q0 -24 34 -24q11 0 21 5q16 11 16 25q0 25 -31 25q-12 0 -26 -8.5t-14 -22.5zM294 1219q0 78 29 136q-1 17 -1 35q0 101 40 190q45 91 127 146t177 74q44 9 88 9 q59 0 115 -18.5t100 -61.5q80 -85 80 -211v-16q1 -2 3 -2q10 -4 18 -21q11 -26 11 -53q0 -32 -16 -35h-6q-13 3 -27 5q-9 -35 -24 -67q-80 -179 -242 -278q-78 -48 -166 -70q-59 -14 -107 -14q-107 0 -156 84q-43 73 -43 168zM366 1176q6 -11 21 -21.5t31 -16.5 q-28 27 -48 61q-4 -11 -4 -23zM377 7q0 -23 28 -25q17 0 30 8t13 22q0 25 -28 27q-14 0 -28.5 -8t-14.5 -24zM388 908q0 -5 2 -10q9 -16 31 -16q6 0 13 2q25 10 25 31l-1 5q-6 19 -29 19q-7 0 -16 -3q-25 -9 -25 -28zM405 1260q14 -23 35 -41q64 -54 138 -54l25 2 q41 6 75 32l3 1.5t3 0.5q4 0 9 -6q142 76 227 215q-26 3 -53 3q-58 0 -152 -18l-36 -7q-187 -31 -274 -128zM407 1452q49 36 106.5 58t112.5 34q37 7 62 9.5t64 2.5q118 0 220 -28l2 10q2 15 4 20q-29 43 -78 64q-67 29 -142 29q-125 0 -231 -67q-78 -51 -120 -132zM511 14 q2 -22 32 -22h9q31 9 31 31l-1 5q-7 20 -30 20q-20 0 -31 -13q-7 -6 -10 -21zM521 937q0 -29 34 -29q30 2 37 30v4q0 10 -9 16.5t-26 6.5q-31 -2 -36 -28zM641 58q0 -5 2 -10q7 -14 28 -14q9 0 19 4q21 10 21 28q0 6 -4 12q-10 13 -28 13q-9 0 -19 -5q-19 -8 -19 -28z M652 927q0 -27 30 -27q9 0 20 5q21 9 21 27q0 24 -30 24q-12 0 -26.5 -6.5t-14.5 -22.5zM754 128q0 -10 7.5 -17.5t21.5 -7.5q36 0 41 35q0 6 -10 13.5t-22 7.5q-16 0 -27 -9t-11 -22zM768 882q0 -24 30 -24q18 0 32 13q9 9 9 19q0 13 -14 20q-9 5 -19 5q-20 0 -32 -14 q-6 -9 -6 -19zM843 215q0 -12 14 -21q8 -4 17 -4q20 0 34 14q6 9 6 18q0 14 -16 21q-8 3 -16 3q-20 0 -33 -14q-6 -8 -6 -17zM859 812q0 -21 32 -21q11 0 25 7.5t14 23.5q0 9 -8 17t-23 8q-14 0 -27 -9.5t-13 -25.5zM910 315q0 -6 3 -12q8 -15 28 -15q8 0 19 4q21 8 21 28 q0 6 -4 13q-7 12 -27 12q-9 0 -20 -5q-20 -8 -20 -25zM922 729q0 -6 3 -11q7 -14 27 -14q9 0 18 3q24 9 24 28q0 5 -2 11q-10 14 -29 14q-10 0 -19 -4q-22 -12 -22 -27zM951 420q0 -8 6 -15q10 -12 25 -12q13 0 27 8.5t14 24.5q0 8 -7.5 15.5t-21.5 8.5q-16 0 -29.5 -8.5 t-13.5 -21.5zM959 633q0 -28 32 -28l8 1q28 6 31 27v8q-5 21 -31 21q-5 0 -11 -2q-26 -8 -29 -27zM969 530q0 -30 32 -30q16 1 27 10t11 24q0 11 -10 17t-23 6q-35 -6 -37 -27z" />
<glyph horiz-adv-x="1253" d="M42 368q0 -30 30 -30q20 0 33 13q8 8 8 20q-4 23 -30 23q-37 -3 -41 -26zM46 470q0 -11 8 -18.5t23 -7.5q16 1 28 10t12 22q0 9 -8 16.5t-26 7.5q-12 0 -24.5 -8.5t-12.5 -21.5zM65 261l1 -8q8 -18 28 -18q8 0 16 4q26 9 26 29q0 23 -31 23q-6 0 -13 -1q-27 -7 -27 -29z M75 576q0 -8 6.5 -16.5t22.5 -8.5q13 0 25 6q17 9 17 26q0 24 -33 24q-9 0 -20 -5q-18 -11 -18 -26zM114 169q0 -8 5 -15q10 -12 28 -12q10 0 21 6q18 12 18 26q0 7 -4 13q-11 12 -27 12q-10 0 -21 -5q-20 -10 -20 -25zM129 678q0 -25 31 -25q8 0 18 4q23 6 23 27 q0 15 -18 23q-6 2 -14 2q-23 0 -35 -17q-5 -7 -5 -14zM192 85q0 -7 9.5 -14t21.5 -7q18 0 28 9.5t12 19.5q0 14 -8.5 20.5t-20.5 6.5q-16 0 -28 -8.5t-14 -18.5v-8zM201 -694q0 37 5 73l3 22q34 275 125 543l8 25q9 38 26.5 75.5t51.5 51.5q7 2 14 2q17 0 28 -13.5t14.5 -31 t3.5 -33.5q0 -35 -21.5 -98t-44.5 -162q-48 -202 -64 -404q17 5 32.5 13.5t31.5 20.5q25 19 55 35q45 24 134 103q11 9 23 9q11 0 21.5 -7t16.5 -17q11 -19 11 -39q0 -23 -12 -45q-45 -71 -101 -134q-42 -50 -79 -82q-75 -64 -140 -64q-67 0 -113 55q-29 41 -29 102z M208 771q0 -13 10.5 -18.5t21.5 -5.5q18 0 28 9t11 18q0 14 -9.5 21.5t-20.5 7.5q-17 0 -32 -12q-9 -9 -9 -20zM296 31q0 -14 19 -21q7 -2 13 -2q7 0 18 3q21 8 21 28q0 26 -29 26q-6 0 -16 -3q-26 -9 -26 -31zM310 850q0 -24 34 -24q11 0 21 5q16 11 16 25q0 25 -31 25 q-12 0 -26 -8.5t-14 -22.5zM421 7q0 -23 28 -25q17 0 30 8t13 22q0 25 -28 27q-14 0 -28.5 -8t-14.5 -24zM432 908q0 -5 2 -10q9 -16 31 -16q6 0 13 2q25 10 25 31l-1 5q-6 19 -29 19q-7 0 -16 -3q-25 -9 -25 -28zM555 14q2 -22 32 -22h9q31 9 31 31l-1 5q-7 20 -30 20 q-20 0 -31 -13q-7 -6 -10 -21zM565 937q0 -29 34 -29q30 2 37 30v4q0 10 -9 16.5t-26 6.5q-31 -2 -36 -28zM685 58q0 -5 2 -10q7 -14 28 -14q9 0 19 4q21 10 21 28q0 6 -4 12q-10 13 -28 13q-9 0 -19 -5q-19 -8 -19 -28zM696 927q0 -27 30 -27q9 0 20 5q21 9 21 27 q0 24 -30 24q-12 0 -26.5 -6.5t-14.5 -22.5zM798 128q0 -10 7.5 -17.5t21.5 -7.5q36 0 41 35q0 6 -10 13.5t-22 7.5q-16 0 -27 -9t-11 -22zM812 882q0 -24 30 -24q18 0 32 13q9 9 9 19q0 13 -14 20q-9 5 -19 5q-20 0 -32 -14q-6 -9 -6 -19zM887 215q0 -12 14 -21q8 -4 17 -4 q20 0 34 14q6 9 6 18q0 14 -16 21q-8 3 -16 3q-20 0 -33 -14q-6 -8 -6 -17zM903 812q0 -21 32 -21q11 0 25 7.5t14 23.5q0 9 -8 17t-23 8q-14 0 -27 -9.5t-13 -25.5zM954 315q0 -6 3 -12q8 -15 28 -15q8 0 19 4q21 8 21 28q0 6 -4 13q-7 12 -27 12q-9 0 -20 -5 q-20 -8 -20 -25zM966 729q0 -6 3 -11q7 -14 27 -14q9 0 18 3q24 9 24 28q0 5 -2 11q-10 14 -29 14q-10 0 -19 -4q-22 -12 -22 -27zM995 420q0 -8 6 -15q10 -12 25 -12q13 0 27 8.5t14 24.5q0 8 -7.5 15.5t-21.5 8.5q-16 0 -29.5 -8.5t-13.5 -21.5zM1003 633q0 -28 32 -28 l8 1q28 6 31 27v8q-5 21 -31 21q-5 0 -11 -2q-26 -8 -29 -27zM1013 530q0 -30 32 -30q16 1 27 10t11 24q0 11 -10 17t-23 6q-35 -6 -37 -27z" />
<glyph horiz-adv-x="1155" d="M-2 368q0 -30 30 -30q20 0 33 13q8 8 8 20q-4 23 -30 23q-37 -3 -41 -26zM2 470q0 -11 8 -18.5t23 -7.5q16 1 28 10t12 22q0 9 -8 16.5t-26 7.5q-12 0 -24.5 -8.5t-12.5 -21.5zM21 261l1 -8q8 -18 28 -18q8 0 16 4q26 9 26 29q0 23 -31 23q-6 0 -13 -1q-27 -7 -27 -29z M21 -807q1 8 155 715q24 58 76 58q28 0 70 -22q-138 -622 -155 -689q-6 -27 -19 -52.5t-44 -30.5h-5q-11 0 -30 3.5t-29 3.5q-16 0 -19 14zM31 576q0 -8 6.5 -16.5t22.5 -8.5q13 0 25 6q17 9 17 26q0 24 -33 24q-9 0 -20 -5q-18 -11 -18 -26zM70 169q0 -8 5 -15 q10 -12 28 -12q10 0 21 6q18 12 18 26q0 7 -4 13q-11 12 -27 12q-10 0 -21 -5q-20 -10 -20 -25zM85 678q0 -25 31 -25q8 0 18 4q23 6 23 27q0 15 -18 23q-6 2 -14 2q-23 0 -35 -17q-5 -7 -5 -14zM148 85q0 -7 9.5 -14t21.5 -7q18 0 28 9.5t12 19.5q0 14 -8.5 20.5t-20.5 6.5 q-16 0 -28 -8.5t-14 -18.5v-8zM164 771q0 -13 10.5 -18.5t21.5 -5.5q18 0 28 9t11 18q0 14 -9.5 21.5t-20.5 7.5q-17 0 -32 -12q-9 -9 -9 -20zM252 31q0 -14 19 -21q7 -2 13 -2q7 0 18 3q21 8 21 28q0 26 -29 26q-6 0 -16 -3q-26 -9 -26 -31zM256 -774q0 37 5 73l3 22 q34 275 125 543l8 25q9 38 26.5 75.5t51.5 51.5q7 2 14 2q17 0 28 -13.5t14.5 -31t3.5 -33.5q0 -35 -21.5 -98t-44.5 -162q-48 -202 -64 -404q17 5 32.5 13.5t31.5 20.5q25 19 55 35q45 24 134 103q11 9 23 9q11 0 21.5 -7t16.5 -17q11 -19 11 -39q0 -23 -12 -45 q-45 -71 -101 -134q-42 -50 -79 -82q-75 -64 -140 -64q-67 0 -113 55q-29 41 -29 102zM266 850q0 -24 34 -24q11 0 21 5q16 11 16 25q0 25 -31 25q-12 0 -26 -8.5t-14 -22.5zM377 7q0 -23 28 -25q17 0 30 8t13 22q0 25 -28 27q-14 0 -28.5 -8t-14.5 -24zM388 908q0 -5 2 -10 q9 -16 31 -16q6 0 13 2q25 10 25 31l-1 5q-6 19 -29 19q-7 0 -16 -3q-25 -9 -25 -28zM511 14q2 -22 32 -22h9q31 9 31 31l-1 5q-7 20 -30 20q-20 0 -31 -13q-7 -6 -10 -21zM521 937q0 -29 34 -29q30 2 37 30v4q0 10 -9 16.5t-26 6.5q-31 -2 -36 -28zM641 58q0 -5 2 -10 q7 -14 28 -14q9 0 19 4q21 10 21 28q0 6 -4 12q-10 13 -28 13q-9 0 -19 -5q-19 -8 -19 -28zM652 927q0 -27 30 -27q9 0 20 5q21 9 21 27q0 24 -30 24q-12 0 -26.5 -6.5t-14.5 -22.5zM754 128q0 -10 7.5 -17.5t21.5 -7.5q36 0 41 35q0 6 -10 13.5t-22 7.5q-16 0 -27 -9 t-11 -22zM768 882q0 -24 30 -24q18 0 32 13q9 9 9 19q0 13 -14 20q-9 5 -19 5q-20 0 -32 -14q-6 -9 -6 -19zM843 215q0 -12 14 -21q8 -4 17 -4q20 0 34 14q6 9 6 18q0 14 -16 21q-8 3 -16 3q-20 0 -33 -14q-6 -8 -6 -17zM859 812q0 -21 32 -21q11 0 25 7.5t14 23.5 q0 9 -8 17t-23 8q-14 0 -27 -9.5t-13 -25.5zM910 315q0 -6 3 -12q8 -15 28 -15q8 0 19 4q21 8 21 28q0 6 -4 13q-7 12 -27 12q-9 0 -20 -5q-20 -8 -20 -25zM922 729q0 -6 3 -11q7 -14 27 -14q9 0 18 3q24 9 24 28q0 5 -2 11q-10 14 -29 14q-10 0 -19 -4q-22 -12 -22 -27z M951 420q0 -8 6 -15q10 -12 25 -12q13 0 27 8.5t14 24.5q0 8 -7.5 15.5t-21.5 8.5q-16 0 -29.5 -8.5t-13.5 -21.5zM959 633q0 -28 32 -28l8 1q28 6 31 27v8q-5 21 -31 21q-5 0 -11 -2q-26 -8 -29 -27zM969 530q0 -30 32 -30q16 1 27 10t11 24q0 11 -10 17t-23 6 q-35 -6 -37 -27z" />
<glyph horiz-adv-x="2371" d="M0 368q0 174 104 336.5t300 236.5q82 29 171 29q82 0 157 -32q66 -32 108.5 -94.5t42.5 -130.5q0 -47 -26 -90t-57 -43q-26 0 -44 26.5t-18 54.5q2 16 4 24q2 6 2.5 11t0.5 12q0 22 -23 42q-52 36 -117 37l-31 1q-111 0 -205 -52t-155.5 -135.5t-77.5 -179.5 q-5 -24 -5 -54q0 -44 13 -91t45.5 -79t89.5 -32q149 15 241 123q19 22 34 51t15 59q0 34 -25.5 57.5t-57.5 23.5q-37 0 -71.5 -23t-54.5 -51q-13 -19 -27 -51t-14 -60q0 -27 20 -42q7 -5 11 -15t4 -21q0 -36 -34 -37q-38 0 -60 18.5t-31 48t-9 63.5q0 43 10 84t22 66 q21 43 56 82.5t80.5 65.5t97.5 26q47 0 98 -28q57 -35 82 -92.5t25 -120.5q-2 -43 -6.5 -70.5t-21.5 -64.5q-19 -45 -53 -87q-1 -1 -10.5 -11.5t-20.5 -22.5q-60 -61 -139 -101t-155 -40q-128 0 -211 111q-40 59 -57 126t-17 136zM1226 368q0 -30 30 -30q20 0 33 13 q8 8 8 20q-4 23 -30 23q-37 -3 -41 -26zM1230 470q0 -11 8 -18.5t23 -7.5q16 1 28 10t12 22q0 9 -8 16.5t-26 7.5q-12 0 -24.5 -8.5t-12.5 -21.5zM1249 261l1 -8q8 -18 28 -18q8 0 16 4q26 9 26 29q0 23 -31 23q-6 0 -13 -1q-27 -7 -27 -29zM1259 576q0 -8 6.5 -16.5 t22.5 -8.5q13 0 25 6q17 9 17 26q0 24 -33 24q-9 0 -20 -5q-18 -11 -18 -26zM1298 169q0 -8 5 -15q10 -12 28 -12q10 0 21 6q18 12 18 26q0 7 -4 13q-11 12 -27 12q-10 0 -21 -5q-20 -10 -20 -25zM1313 678q0 -25 31 -25q8 0 18 4q23 6 23 27q0 15 -18 23q-6 2 -14 2 q-23 0 -35 -17q-5 -7 -5 -14zM1376 85q0 -7 9.5 -14t21.5 -7q18 0 28 9.5t12 19.5q0 14 -8.5 20.5t-20.5 6.5q-16 0 -28 -8.5t-14 -18.5v-8zM1392 771q0 -13 10.5 -18.5t21.5 -5.5q18 0 28 9t11 18q0 14 -9.5 21.5t-20.5 7.5q-17 0 -32 -12q-9 -9 -9 -20zM1480 31 q0 -14 19 -21q7 -2 13 -2q7 0 18 3q21 8 21 28q0 26 -29 26q-6 0 -16 -3q-26 -9 -26 -31zM1494 850q0 -24 34 -24q11 0 21 5q16 11 16 25q0 25 -31 25q-12 0 -26 -8.5t-14 -22.5zM1605 7q0 -23 28 -25q17 0 30 8t13 22q0 25 -28 27q-14 0 -28.5 -8t-14.5 -24zM1616 908 q0 -5 2 -10q9 -16 31 -16q6 0 13 2q25 10 25 31l-1 5q-6 19 -29 19q-7 0 -16 -3q-25 -9 -25 -28zM1739 14q2 -22 32 -22h9q31 9 31 31l-1 5q-7 20 -30 20q-20 0 -31 -13q-7 -6 -10 -21zM1749 937q0 -29 34 -29q30 2 37 30v4q0 10 -9 16.5t-26 6.5q-31 -2 -36 -28zM1869 58 q0 -5 2 -10q7 -14 28 -14q9 0 19 4q21 10 21 28q0 6 -4 12q-10 13 -28 13q-9 0 -19 -5q-19 -8 -19 -28zM1880 927q0 -27 30 -27q9 0 20 5q21 9 21 27q0 24 -30 24q-12 0 -26.5 -6.5t-14.5 -22.5zM1982 128q0 -10 7.5 -17.5t21.5 -7.5q36 0 41 35q0 6 -10 13.5t-22 7.5 q-16 0 -27 -9t-11 -22zM1996 882q0 -24 30 -24q18 0 32 13q9 9 9 19q0 13 -14 20q-9 5 -19 5q-20 0 -32 -14q-6 -9 -6 -19zM2071 215q0 -12 14 -21q8 -4 17 -4q20 0 34 14q6 9 6 18q0 14 -16 21q-8 3 -16 3q-20 0 -33 -14q-6 -8 -6 -17zM2087 812q0 -21 32 -21q11 0 25 7.5 t14 23.5q0 9 -8 17t-23 8q-14 0 -27 -9.5t-13 -25.5zM2138 315q0 -6 3 -12q8 -15 28 -15q8 0 19 4q21 8 21 28q0 6 -4 13q-7 12 -27 12q-9 0 -20 -5q-20 -8 -20 -25zM2150 729q0 -6 3 -11q7 -14 27 -14q9 0 18 3q24 9 24 28q0 5 -2 11q-10 14 -29 14q-10 0 -19 -4 q-22 -12 -22 -27zM2179 420q0 -8 6 -15q10 -12 25 -12q13 0 27 8.5t14 24.5q0 8 -7.5 15.5t-21.5 8.5q-16 0 -29.5 -8.5t-13.5 -21.5zM2187 633q0 -28 32 -28l8 1q28 6 31 27v8q-5 21 -31 21q-5 0 -11 -2q-26 -8 -29 -27zM2197 530q0 -30 32 -30q16 1 27 10t11 24 q0 11 -10 17t-23 6q-35 -6 -37 -27z" />
<glyph horiz-adv-x="1183" d="M-2 368q0 -30 30 -30q20 0 33 13q8 8 8 20q-4 23 -30 23q-37 -3 -41 -26zM2 470q0 -11 8 -18.5t23 -7.5q16 1 28 10t12 22q0 9 -8 16.5t-26 7.5q-12 0 -24.5 -8.5t-12.5 -21.5zM21 261l1 -8q8 -18 28 -18q8 0 16 4q26 9 26 29q0 23 -31 23q-6 0 -13 -1q-27 -7 -27 -29z M31 576q0 -8 6.5 -16.5t22.5 -8.5q13 0 25 6q17 9 17 26q0 24 -33 24q-9 0 -20 -5q-18 -11 -18 -26zM70 169q0 -8 5 -15q10 -12 28 -12q10 0 21 6q18 12 18 26q0 7 -4 13q-11 12 -27 12q-10 0 -21 -5q-20 -10 -20 -25zM85 678q0 -25 31 -25q8 0 18 4q23 6 23 27q0 15 -18 23 q-6 2 -14 2q-23 0 -35 -17q-5 -7 -5 -14zM148 85q0 -7 9.5 -14t21.5 -7q18 0 28 9.5t12 19.5q0 14 -8.5 20.5t-20.5 6.5q-16 0 -28 -8.5t-14 -18.5v-8zM164 771q0 -13 10.5 -18.5t21.5 -5.5q18 0 28 9t11 18q0 14 -9.5 21.5t-20.5 7.5q-17 0 -32 -12q-9 -9 -9 -20zM252 31 q0 -14 19 -21q7 -2 13 -2q7 0 18 3q21 8 21 28q0 26 -29 26q-6 0 -16 -3q-26 -9 -26 -31zM266 850q0 -24 34 -24q11 0 21 5q16 11 16 25q0 25 -31 25q-12 0 -26 -8.5t-14 -22.5zM377 7q0 -23 28 -25q17 0 30 8t13 22q0 25 -28 27q-14 0 -28.5 -8t-14.5 -24zM388 908 q0 -5 2 -10q9 -16 31 -16q6 0 13 2q25 10 25 31l-1 5q-6 19 -29 19q-7 0 -16 -3q-25 -9 -25 -28zM402 1313q0 147 84 271t224 169q40 12 83 12q73 0 131 -35t97 -93.5t56 -132.5q5 -21 5 -44q0 -24 -8.5 -44.5t-21.5 -20.5q-12 0 -22 19q-35 73 -101 114t-142 41 q-84 0 -160.5 -53t-120.5 -135q-23 -44 -25 -76v4l1 -10l1 -5l-1 5q3 -12 7 -21l2 -5q24 -50 76.5 -79t107.5 -30q47 0 95 22.5t73 68.5q3 6 4 9.5t1.5 6.5t1.5 6l-1 -3v8q1 -12 2 -12q-5 34 -26 53.5t-57 19.5q-37 0 -74 -22.5t-61 -53.5q-10 -14 -13.5 -26t-5.5 -27 l-2 -12q-1 -16 -16 -18q-8 0 -12 12q-12 31 -12 61q0 59 33.5 112t80.5 87q44 35 93 35q47 0 78 -35.5t46.5 -88t15.5 -101.5q0 -102 -57 -185q-63 -92 -190 -100q-93 0 -170 70q-100 97 -100 262zM511 14q2 -22 32 -22h9q31 9 31 31l-1 5q-7 20 -30 20q-20 0 -31 -13 q-7 -6 -10 -21zM521 937q0 -29 34 -29q30 2 37 30v4q0 10 -9 16.5t-26 6.5q-31 -2 -36 -28zM641 58q0 -5 2 -10q7 -14 28 -14q9 0 19 4q21 10 21 28q0 6 -4 12q-10 13 -28 13q-9 0 -19 -5q-19 -8 -19 -28zM652 927q0 -27 30 -27q9 0 20 5q21 9 21 27q0 24 -30 24 q-12 0 -26.5 -6.5t-14.5 -22.5zM754 128q0 -10 7.5 -17.5t21.5 -7.5q36 0 41 35q0 6 -10 13.5t-22 7.5q-16 0 -27 -9t-11 -22zM768 882q0 -24 30 -24q18 0 32 13q9 9 9 19q0 13 -14 20q-9 5 -19 5q-20 0 -32 -14q-6 -9 -6 -19zM843 215q0 -12 14 -21q8 -4 17 -4q20 0 34 14 q6 9 6 18q0 14 -16 21q-8 3 -16 3q-20 0 -33 -14q-6 -8 -6 -17zM859 812q0 -21 32 -21q11 0 25 7.5t14 23.5q0 9 -8 17t-23 8q-14 0 -27 -9.5t-13 -25.5zM910 315q0 -6 3 -12q8 -15 28 -15q8 0 19 4q21 8 21 28q0 6 -4 13q-7 12 -27 12q-9 0 -20 -5q-20 -8 -20 -25zM922 729 q0 -6 3 -11q7 -14 27 -14q9 0 18 3q24 9 24 28q0 5 -2 11q-10 14 -29 14q-10 0 -19 -4q-22 -12 -22 -27zM951 420q0 -8 6 -15q10 -12 25 -12q13 0 27 8.5t14 24.5q0 8 -7.5 15.5t-21.5 8.5q-16 0 -29.5 -8.5t-13.5 -21.5zM959 633q0 -28 32 -28l8 1q28 6 31 27v8 q-5 21 -31 21q-5 0 -11 -2q-26 -8 -29 -27zM969 530q0 -30 32 -30q16 1 27 10t11 24q0 11 -10 17t-23 6q-35 -6 -37 -27z" />
<glyph horiz-adv-x="1999" d="M10 213q0 58 33.5 113.5t76 103t94.5 88.5q-84 83 -84 179l1 22q10 68 59.5 126t124.5 94q119 54 246 54q132 0 256 -48t212 -127q33 -25 33 -46q0 -5 -6 -10.5t-15 -5.5q-19 0 -46 19q-149 87 -316 87q-80 0 -155.5 -22.5t-137.5 -70t-87 -108.5q-11 -28 -11 -57 q0 -6 4 -32q68 42 146 73q11 4 22 4q41 0 79 -36t43 -63l1 -13q0 -51 -51 -80t-114 -29q-18 0 -36 2q-40 -27 -75 -58q-126 -110 -152 -216q-4 -13 -4 -27q0 -12 5 -22h1q24 -16 78 -16q23 0 40 2q106 16 182 76q-5 6 -7 11l-2 17q0 44 52 74q5 3 12 3q20 0 44 -17 q36 -24 68 -52q36 -28 36 -53q0 -8 -6 -15q-149 -159 -320 -159q-106 4 -192 52t-120 123q-12 30 -12 60zM854 368q0 -30 30 -30q20 0 33 13q8 8 8 20q-4 23 -30 23q-37 -3 -41 -26zM858 470q0 -11 8 -18.5t23 -7.5q16 1 28 10t12 22q0 9 -8 16.5t-26 7.5q-12 0 -24.5 -8.5 t-12.5 -21.5zM877 261l1 -8q8 -18 28 -18q8 0 16 4q26 9 26 29q0 23 -31 23q-6 0 -13 -1q-27 -7 -27 -29zM887 576q0 -8 6.5 -16.5t22.5 -8.5q13 0 25 6q17 9 17 26q0 24 -33 24q-9 0 -20 -5q-18 -11 -18 -26zM926 169q0 -8 5 -15q10 -12 28 -12q10 0 21 6q18 12 18 26 q0 7 -4 13q-11 12 -27 12q-10 0 -21 -5q-20 -10 -20 -25zM941 678q0 -25 31 -25q8 0 18 4q23 6 23 27q0 15 -18 23q-6 2 -14 2q-23 0 -35 -17q-5 -7 -5 -14zM1004 85q0 -7 9.5 -14t21.5 -7q18 0 28 9.5t12 19.5q0 14 -8.5 20.5t-20.5 6.5q-16 0 -28 -8.5t-14 -18.5v-8z M1020 771q0 -13 10.5 -18.5t21.5 -5.5q18 0 28 9t11 18q0 14 -9.5 21.5t-20.5 7.5q-17 0 -32 -12q-9 -9 -9 -20zM1108 31q0 -14 19 -21q7 -2 13 -2q7 0 18 3q21 8 21 28q0 26 -29 26q-6 0 -16 -3q-26 -9 -26 -31zM1122 850q0 -24 34 -24q11 0 21 5q16 11 16 25q0 25 -31 25 q-12 0 -26 -8.5t-14 -22.5zM1233 7q0 -23 28 -25q17 0 30 8t13 22q0 25 -28 27q-14 0 -28.5 -8t-14.5 -24zM1244 908q0 -5 2 -10q9 -16 31 -16q6 0 13 2q25 10 25 31l-1 5q-6 19 -29 19q-7 0 -16 -3q-25 -9 -25 -28zM1367 14q2 -22 32 -22h9q31 9 31 31l-1 5q-7 20 -30 20 q-20 0 -31 -13q-7 -6 -10 -21zM1377 937q0 -29 34 -29q30 2 37 30v4q0 10 -9 16.5t-26 6.5q-31 -2 -36 -28zM1497 58q0 -5 2 -10q7 -14 28 -14q9 0 19 4q21 10 21 28q0 6 -4 12q-10 13 -28 13q-9 0 -19 -5q-19 -8 -19 -28zM1508 927q0 -27 30 -27q9 0 20 5q21 9 21 27 q0 24 -30 24q-12 0 -26.5 -6.5t-14.5 -22.5zM1610 128q0 -10 7.5 -17.5t21.5 -7.5q36 0 41 35q0 6 -10 13.5t-22 7.5q-16 0 -27 -9t-11 -22zM1624 882q0 -24 30 -24q18 0 32 13q9 9 9 19q0 13 -14 20q-9 5 -19 5q-20 0 -32 -14q-6 -9 -6 -19zM1699 215q0 -12 14 -21 q8 -4 17 -4q20 0 34 14q6 9 6 18q0 14 -16 21q-8 3 -16 3q-20 0 -33 -14q-6 -8 -6 -17zM1715 812q0 -21 32 -21q11 0 25 7.5t14 23.5q0 9 -8 17t-23 8q-14 0 -27 -9.5t-13 -25.5zM1766 315q0 -6 3 -12q8 -15 28 -15q8 0 19 4q21 8 21 28q0 6 -4 13q-7 12 -27 12q-9 0 -20 -5 q-20 -8 -20 -25zM1778 729q0 -6 3 -11q7 -14 27 -14q9 0 18 3q24 9 24 28q0 5 -2 11q-10 14 -29 14q-10 0 -19 -4q-22 -12 -22 -27zM1807 420q0 -8 6 -15q10 -12 25 -12q13 0 27 8.5t14 24.5q0 8 -7.5 15.5t-21.5 8.5q-16 0 -29.5 -8.5t-13.5 -21.5zM1815 633q0 -28 32 -28 l8 1q28 6 31 27v8q-5 21 -31 21q-5 0 -11 -2q-26 -8 -29 -27zM1825 530q0 -30 32 -30q16 1 27 10t11 24q0 11 -10 17t-23 6q-35 -6 -37 -27z" />
<glyph horiz-adv-x="957" d="M-2 368q0 -30 30 -30q20 0 33 13q8 8 8 20q-4 23 -30 23q-37 -3 -41 -26zM2 470q0 -11 8 -18.5t23 -7.5q16 1 28 10t12 22q0 9 -8 16.5t-26 7.5q-12 0 -24.5 -8.5t-12.5 -21.5zM21 261l1 -8q8 -18 28 -18q8 0 16 4q26 9 26 29q0 23 -31 23q-6 0 -13 -1q-27 -7 -27 -29z M31 576q0 -8 6.5 -16.5t22.5 -8.5q13 0 25 6q17 9 17 26q0 24 -33 24q-9 0 -20 -5q-18 -11 -18 -26zM70 169q0 -8 5 -15q10 -12 28 -12q10 0 21 6q18 12 18 26q0 7 -4 13q-11 12 -27 12q-10 0 -21 -5q-20 -10 -20 -25zM85 678q0 -25 31 -25q8 0 18 4q23 6 23 27q0 15 -18 23 q-6 2 -14 2q-23 0 -35 -17q-5 -7 -5 -14zM148 85q0 -7 9.5 -14t21.5 -7q18 0 28 9.5t12 19.5q0 14 -8.5 20.5t-20.5 6.5q-16 0 -28 -8.5t-14 -18.5v-8zM164 771q0 -13 10.5 -18.5t21.5 -5.5q18 0 28 9t11 18q0 14 -9.5 21.5t-20.5 7.5q-17 0 -32 -12q-9 -9 -9 -20zM252 31 q0 -14 19 -21q7 -2 13 -2q7 0 18 3q21 8 21 28q0 26 -29 26q-6 0 -16 -3q-26 -9 -26 -31zM266 850q0 -24 34 -24q11 0 21 5q16 11 16 25q0 25 -31 25q-12 0 -26 -8.5t-14 -22.5zM377 7q0 -23 28 -25q17 0 30 8t13 22q0 25 -28 27q-14 0 -28.5 -8t-14.5 -24zM388 908 q0 -5 2 -10q9 -16 31 -16q6 0 13 2q25 10 25 31l-1 5q-6 19 -29 19q-7 0 -16 -3q-25 -9 -25 -28zM437 1156q0 45 26 87.5t58.5 79t72.5 68.5q-65 65 -65 139l1 16q21 109 142 170q92 42 190 42q102 0 197.5 -37.5t163.5 -98.5q24 -19 24 -35q0 -4 -4 -8t-12 -4q-14 0 -35 14 q-115 67 -243 67q-62 0 -120 -17.5t-106 -53.5t-67 -84q-9 -21 -9 -43q0 -5 4 -25q52 32 112 56q8 3 17 3q31 0 60.5 -27.5t33.5 -48.5l1 -10q0 -40 -39.5 -62t-88.5 -22q-14 0 -27 2q-31 -22 -58 -45q-97 -85 -118 -167q-2 -10 -2 -21q0 -9 3 -17h1q19 -12 60 -12 q18 0 32 2q81 12 139 59q-3 4 -4 9t-2 12q0 34 39 57q5 3 10 3q24 0 86 -54q28 -21 28 -40q0 -7 -5 -13q-115 -122 -246 -122q-82 3 -148 40t-93 95q-9 23 -9 46zM511 14q2 -22 32 -22h9q31 9 31 31l-1 5q-7 20 -30 20q-20 0 -31 -13q-7 -6 -10 -21zM521 937q0 -29 34 -29 q30 2 37 30v4q0 10 -9 16.5t-26 6.5q-31 -2 -36 -28zM641 58q0 -5 2 -10q7 -14 28 -14q9 0 19 4q21 10 21 28q0 6 -4 12q-10 13 -28 13q-9 0 -19 -5q-19 -8 -19 -28zM652 927q0 -27 30 -27q9 0 20 5q21 9 21 27q0 24 -30 24q-12 0 -26.5 -6.5t-14.5 -22.5zM754 128 q0 -10 7.5 -17.5t21.5 -7.5q36 0 41 35q0 6 -10 13.5t-22 7.5q-16 0 -27 -9t-11 -22zM768 882q0 -24 30 -24q18 0 32 13q9 9 9 19q0 13 -14 20q-9 5 -19 5q-20 0 -32 -14q-6 -9 -6 -19zM843 215q0 -12 14 -21q8 -4 17 -4q20 0 34 14q6 9 6 18q0 14 -16 21q-8 3 -16 3 q-20 0 -33 -14q-6 -8 -6 -17zM859 812q0 -21 32 -21q11 0 25 7.5t14 23.5q0 9 -8 17t-23 8q-14 0 -27 -9.5t-13 -25.5zM910 315q0 -6 3 -12q8 -15 28 -15q8 0 19 4q21 8 21 28q0 6 -4 13q-7 12 -27 12q-9 0 -20 -5q-20 -8 -20 -25zM922 729q0 -6 3 -11q7 -14 27 -14 q9 0 18 3q24 9 24 28q0 5 -2 11q-10 14 -29 14q-10 0 -19 -4q-22 -12 -22 -27zM951 420q0 -8 6 -15q10 -12 25 -12q13 0 27 8.5t14 24.5q0 8 -7.5 15.5t-21.5 8.5q-16 0 -29.5 -8.5t-13.5 -21.5zM959 633q0 -28 32 -28l8 1q28 6 31 27v8q-5 21 -31 21q-5 0 -11 -2 q-26 -8 -29 -27zM969 530q0 -30 32 -30q16 1 27 10t11 24q0 11 -10 17t-23 6q-35 -6 -37 -27z" />
</font>
</defs>
</svg>
