<?xml version="1.0" standalone="no"?>
<!DOCTYPE svg PUBLIC "-//W3C//DTD SVG 1.1//EN" "http://www.w3.org/Graphics/SVG/1.1/DTD/svg11.dtd" >
<svg xmlns="http://www.w3.org/2000/svg" xmlns:xlink="http://www.w3.org/1999/xlink" version="1.1">
<metadata></metadata>
<defs>
<font id="a_j_kunheing_e-t-m_04regular" horiz-adv-x="0" >
<font-face units-per-em="2048" ascent="1638" descent="-410" />
<missing-glyph horiz-adv-x="753" />
<glyph unicode=" "  horiz-adv-x="753" />
<glyph unicode="&#x09;" horiz-adv-x="753" />
<glyph unicode="&#xa0;" horiz-adv-x="753" />
<glyph unicode="!" horiz-adv-x="717" d="M198 169q0 21 22 42l101 104q20 19 39 19t43 -21l99 -107q16 -21 16 -39q0 -21 -19 -42l-99 -109q-26 -26 -40 -26q-22 0 -39 19l-109 125q-14 17 -14 35zM269 1681q0 59 27.5 89.5t79.5 30.5q55 0 81.5 -30.5t26.5 -89.5l-99 -1281h-56z" />
<glyph unicode="&#x22;" horiz-adv-x="848" d="M143 1479h176l-22 -566h-134zM530 1479h176l-20 -566h-133z" />
<glyph unicode="#" horiz-adv-x="1336" d="M117 472l30 98h271l86 290h-295l29 97h295l140 477h93l-141 -477h242l142 477h92l-141 -477h259l-29 -97h-259l-83 -290h279l-30 -98h-280l-140 -472h-92l139 472h-240l-142 -472h-92l140 472h-273zM511 569h242l86 290h-243z" />
<glyph unicode="$" horiz-adv-x="1414" d="M90 421q0 34 20 100t125 107q17 5 32 5q34 0 63.5 -30t30 -79.5t-48.5 -76.5q-14 -9 -14 -19q0 -5 6.5 -16.5t28 -27.5t36.5 -24l4 -3q120 -81 253 -110q-3 78 -9 154q-19 231 -32 464q-84 11 -166 31q-100 23 -173 81.5t-95 175.5q-5 34 -5 68q0 87 44 180.5t142 164.5 t219 86l8 1l-1 52q0 30 2.5 70.5t19.5 86.5q14 28 45 36q6 2 12 2q23 0 37 -25q18 -46 24 -94t7 -96l2 -42q117 -24 218 -101q49 -40 81 -93.5t32 -109.5q0 -2 -0.5 -32.5t-49.5 -82.5q-22 -19 -44 -19q-7 0 -25 4.5t-33 32.5q-7 13 -7 29q0 15 7 31q4 9 4 18q0 20 -22.5 45 t-60 48.5t-58.5 32.5q-16 8 -33 13l2 -31q0 -52 21 -389l71 -11q88 -15 174 -51q131 -60 214.5 -169t97.5 -242q2 -20 2 -39q0 -114 -67 -225q-148 -221 -406 -263q0 -54 -5 -106q-13 -69 -75 -69q-41 0 -64 51q-20 57 -31 117q-81 7 -162 33q-97 31 -199.5 87.5 t-161.5 142.5q-37 63 -37 126zM333 1222l1 -19q13 -82 85 -110.5t146 -34.5l9 -1q-9 209 -13 416q-103 -16 -174 -103q-54 -66 -54 -148zM752 842q25 -365 49 -548l7 -48q97 19 179 85q67 57 96 135q14 37 14 75q0 43 -18 88q-43 97 -133 145.5t-188 66.5z" />
<glyph unicode="%" horiz-adv-x="1706" d="M101 1047q0 184 83.5 296t230.5 112q146 0 229.5 -112t83.5 -296q0 -187 -83.5 -299t-229.5 -112q-147 0 -230.5 112t-83.5 299zM245 1047q0 -137 47.5 -215.5t122.5 -78.5t121 78.5t46 215.5q0 134 -46 212.5t-121 78.5t-122.5 -78.5t-47.5 -212.5zM336 5l901 1434h148 l-901 -1434h-148zM980 397q0 185 82.5 297t229.5 112q146 0 229 -112t83 -297q0 -186 -83 -298t-229 -112q-147 0 -229.5 112t-82.5 298zM1123 397q0 -136 46.5 -214.5t122.5 -78.5t122.5 78.5t46.5 214.5q0 135 -46.5 213.5t-122.5 78.5t-122.5 -78.5t-46.5 -213.5z" />
<glyph unicode="&#x26;" horiz-adv-x="1701" d="M117 556q0 111 42.5 212.5t118.5 185.5q54 60 120 109q-53 60 -105 122q-46 56 -77.5 119.5t-31.5 136.5q0 101 52.5 180t138 124.5t183.5 45.5q142 0 258.5 -92.5t143.5 -238.5q5 -32 5 -62q0 -90 -39.5 -160t-105.5 -122.5t-148 -88.5q-20 -9 -40 -19l315 -357 q39 -45 77 -91q53 -65 109 -126q38 72 38 151q0 67 -30.5 116.5t-78 77t-97.5 27.5q-22 0 -35 -4q-10 -2 -22 -2q-37 0 -59 26t-22 58q0 23 14 44.5t44 31.5q48 16 95 16q123 0 224.5 -86t133.5 -210q12 -50 12 -100q0 -138 -74 -260q-3 -4 -5 -8q10 -6 20 -11 q51 -26 99 -26q35 0 61 21t34 72q3 15 13 22t22 7q41 0 46 -44q0 -61 -31.5 -106.5t-81 -71t-103.5 -25.5q-64 0 -123 30q-21 11 -40 23q-46 -48 -100 -86q-85 -59 -181 -88t-193 -29q-178 0 -333 95.5t-230 279.5q-33 90 -33 181zM287 566q0 -110 59.5 -198.5t153.5 -139.5 t199 -51q121 0 229 58q68 37 121 88q-69 70 -131 148q-40 47 -80 93l-297 338q-15 17 -30 35q-16 -12 -31 -23q-87 -67 -140 -153.5t-53 -194.5zM324 1444q0 -43 18 -81.5t45 -73.5t57 -67q5 -7 11 -13l66 -74q27 13 56 24q69 26 131 63q54 35 79 81.5t25 96.5 q0 62 -34 119.5t-92.5 94.5t-133.5 37q-98 0 -163 -63t-65 -144z" />
<glyph unicode="'" horiz-adv-x="461" d="M146 1474h166l-20 -556h-124z" />
<glyph unicode="(" horiz-adv-x="808" d="M205 799q-31 547 244 1020h154q-246 -472 -218 -1020q35 -548 336 -1019h-155q-329 472 -361 1019z" />
<glyph unicode=")" horiz-adv-x="699" d="M5 1837h154q385 -544 385 -1172q0 -470 -231 -885h-154q207 413 207 884q0 71 -5 144q-46 553 -356 1029z" />
<glyph unicode="*" horiz-adv-x="987" d="M111 887l280 147l-280 148l62 109l270 -170l-12 318h127l-13 -316l268 168l62 -109l-280 -148l280 -147l-62 -110l-268 168l13 -315h-127l12 317l-270 -170z" />
<glyph unicode="+" horiz-adv-x="1056" d="M37 477v140h350v369l1 1h139v-370h349l1 -1v-139h-350v-370h-140v370h-350z" />
<glyph unicode="," horiz-adv-x="557" d="M124 95v36l116 122q39 0 82.5 -64t43.5 -148q0 -108 -70 -223.5t-130 -115.5v35q73 43 87 193q0 123 -129 165z" />
<glyph unicode="-" horiz-adv-x="1063" d="M116 443v101q0 35 68 35h594q68 0 68 -35v-101q0 -34 -67 -34h-596q-67 0 -67 34z" />
<glyph unicode="." horiz-adv-x="474" d="M75 173q0 19 20 40l104 106q19 17 36 17t40 -20l101 -109q15 -20 15 -36q0 -19 -18 -39l-101 -112q-25 -25 -37 -25q-20 0 -36 18l-112 127q-12 17 -12 33z" />
<glyph unicode="/" horiz-adv-x="648" d="M-7 -50l445 1484h151l-456 -1484h-140z" />
<glyph unicode="0" horiz-adv-x="1727" d="M134 916q0 169 50.5 319t140.5 265t212 182t265 67q90 0 177 -30t150 -94q115 -80 188.5 -206t111.5 -255q54 -176 54 -367t-62 -373t-199 -310q-79 -70 -164.5 -102.5t-171.5 -32.5q-116 0 -226.5 49t-204.5 132t-159 188q-79 126 -120.5 272.5t-41.5 295.5zM337 937 q0 -133 40 -261t117 -238q70 -98 171.5 -163t209.5 -65q61 0 118 26.5t107 85.5q80 100 116.5 225t36.5 255q0 144 -38 278q-15 56 -43 122t-66.5 126.5t-88.5 100t-112 39.5q-36 0 -66.5 -17.5t-49.5 -56.5q-12 -25 -32 -37.5t-42 -12.5q-37 0 -71 30t-34 72q0 26 11.5 54 t17.5 38l1 2q-83 -35 -153 -132t-106 -200q-44 -132 -44 -271z" />
<glyph unicode="1" horiz-adv-x="1013" d="M175 1484q0 24 16 45t49 26q67 9 118 37.5t83 87.5q14 25 37 37t48 12q41 0 73 -27t32 -73q-11 -270 -17 -473.5t-6 -443.5q0 -232 5 -343q4 -93 4 -203q8 2 11.5 3.5t3.5 2.5q0 2 -7 2l75 5q23 0 47 -5q27 -8 44 -31t17 -50q0 -20 -11 -41.5t-31 -31.5q-46 -16 -136 -23 q-181 -16 -216 -18q-39 0 -75 6t-59.5 23.5t-23.5 51.5q0 27 19 51q22 24 64.5 36.5t66.5 12.5q-8 100 -8 209v124q0 245 3.5 464t14.5 446q-49 -23 -119 -23q-18 0 -36 2q-38 6 -62 37.5t-24 64.5z" />
<glyph unicode="2" horiz-adv-x="1400" d="M92 1225q0 145 79 260t210 181.5t287 66.5q85 0 170 -20q103 -25 193 -85t147.5 -148.5t57.5 -197.5q0 -23 -3 -48q-22 -139 -111 -244t-196 -194q-68 -58 -126 -117q-211 -221 -342 -463q233 28 424 28q63 0 125.5 -5t122.5 -18q37 -9 55.5 -35.5t18.5 -55.5 q0 -38 -27 -72.5t-74 -37.5l-55 -1q-73 0 -145 4t-145 4q-115 0 -237.5 -14t-217.5 -32q-13 -2 -24 -2q-45 0 -74.5 31t-29.5 73q0 24 11 50q213 471 606 818l88 81q36 34 71 72.5t59 83t24 94.5q0 78 -56.5 135t-142 87.5t-173.5 30.5q-94 0 -179 -35q-94 -43 -145 -121 t-51 -164q0 -66 32.5 -126t101.5 -105q19 -12 28 -30t9 -36q0 -30 -21 -56t-54 -26q-11 0 -24 3q-133 43 -200 152t-67 234z" />
<glyph unicode="3" horiz-adv-x="1550" d="M197 482q0 44 10.5 97.5t29.5 102.5t46.5 81t62.5 32q39 0 74 -36t35 -80q0 -27 -17 -55q-41 -62 -41 -135q0 -70 32 -133t87 -100q44 -30 93.5 -43t102.5 -13q114 0 220 49t173 133t67 189q0 72 -46 144q-53 77 -130 113t-164 47.5t-171 14.5l-16 1q-47 5 -73 38.5 t-26 74.5q0 27 12 54t35 46q212 170 391 352q-100 83 -229 83q-131 0 -228.5 -90.5t-106.5 -249.5q-2 -31 -22.5 -50.5t-43.5 -19.5q-31 0 -48.5 30t-25 70t-7.5 69q0 96 50.5 180.5t126 145.5t154.5 87t158 26q119 0 232 -53.5t197 -150.5q27 -35 27 -75q0 -39 -27 -74 q-150 -164 -289 -294q96 -18 190.5 -72.5t169.5 -158.5q46 -66 68 -141t22 -150q0 -161 -95 -307q-91 -131 -246 -207t-316 -76q-125 0 -241 60.5t-188 183.5q-69 125 -69 260z" />
<glyph unicode="4" horiz-adv-x="1466" d="M154 101q0 14 7 31q220 540 497 1169l44 104q57 148 138 283q10 16 25.5 24t29.5 8q25 0 45 -16h-1q22 0 43 -14t29 -44q24 -101 35 -206.5t18 -210.5q4 -63 9 -123q22 -238 31 -363q11 -142 35 -388q103 -20 208 -69q21 -10 31.5 -27.5t10.5 -35.5q0 -30 -24.5 -58 t-59.5 -28q-9 0 -19 2q-75 18 -130 28q8 -101 15 -210t7 -220q0 -81 -5 -162q-4 -38 -32.5 -60.5t-59.5 -22.5q-25 0 -46.5 15t-29.5 47q-34 159 -51 321t-25 320l-55 1q-154 0 -298 -46.5t-275 -127.5q-22 -12 -45 -12q-36 0 -69 26.5t-33 64.5zM432 297q217 83 486 83 q-13 229 -25 387q-9 136 -20 320q-5 76 -11 145l-8 107q-87 -207 -422 -1042z" />
<glyph unicode="5" horiz-adv-x="1311" d="M102 1423q0 10 6 25.5t8 20.5v22q2 36 22.5 55t43.5 22q73 75 186.5 119t234.5 44q78 0 156 -19q77 -22 141 -67.5t103.5 -110t39.5 -143.5q0 -71 -35 -135t-102 -101q-18 -8 -33 -8q-27 0 -48 23t-21 47q0 15 9 30t27 24q29 15 45.5 42.5t16.5 58.5q0 58 -47.5 97 t-117.5 59.5t-138 20.5q-88 0 -167 -27t-150 -74q27 -248 39 -483q61 43 142.5 70t168.5 27q146 -4 260.5 -73t181 -183.5t66.5 -252.5q0 -111 -43 -213.5t-120.5 -184t-181 -129.5t-224.5 -48q-112 0 -220.5 47t-173.5 144q-14 21 -14 43q0 37 29 67.5t65 30.5q22 0 46 -16 q64 -49 131.5 -79t141.5 -30q63 0 128 26q102 46 167.5 141t65.5 204q0 85 -41.5 154.5t-111 110.5t-152.5 41q-92 0 -176.5 -47t-137.5 -125q-17 -23 -40 -35t-47 -12q-36 0 -66.5 26.5t-34.5 71.5q-15 274 -15 548l1 99q-14 13 -14 35z" />
<glyph unicode="6" horiz-adv-x="1447" d="M126 751q0 158 40.5 314.5t111.5 287.5q59 107 151 194t204 138.5t232 51.5q125 0 250 -67q18 -10 26 -26.5t8 -33.5q0 -28 -19 -52.5t-48 -24.5q-11 0 -25 5q-84 34 -166 34q-108 0 -203.5 -51t-168.5 -136t-117 -190q-22 -56 -38.5 -113t-25.5 -101q58 44 143 74.5 t190 30.5q177 0 337 -101q124 -85 189.5 -213.5t65.5 -266.5q0 -115 -49 -224.5t-149 -191.5q-72 -57 -151 -84t-158 -27q-156 0 -297.5 89.5t-226.5 237.5q-55 100 -80.5 214.5t-25.5 231.5zM325 615q17 -110 61 -195q55 -106 147.5 -170t197.5 -64q51 0 101 17.5t97 57.5 q58 48 85.5 110.5t27.5 130.5q0 93 -46.5 175t-128.5 132t-190 50q-74 0 -142 -30q-71 -35 -113 -86t-67 -94l-6 -10z" />
<glyph unicode="7" horiz-adv-x="1411" d="M83 1585q0 34 25.5 67t65.5 39q135 13 271 13h20q89 1 178 5q158 8 465 34q45 0 75.5 -32.5t30.5 -74.5q0 -27 -16 -51q-110 -151 -211.5 -308.5t-185.5 -321.5l110 -10q47 -11 80 -34t33 -68q0 -34 -22 -52t-49 -25q-8 -2 -15 -2t-10 -2l-88 23q-30 9 -113 15 q-75 -172 -120.5 -356.5t-48.5 -382.5q-2 -40 -28.5 -61t-58.5 -21q-30 0 -56.5 20.5t-26.5 60.5q0 132 25.5 269.5t62 258.5t73.5 210q-120 -10 -171 -23q-31 -6 -62 -9q-33 0 -54.5 22t-21.5 51q0 50 58 73q53 23 127.5 42.5t200.5 22.5q136 284 288 537 q-102 -10 -215.5 -18.5t-229.5 -8.5q-162 0 -319 23q-34 6 -50.5 27.5t-16.5 47.5z" />
<glyph unicode="8" horiz-adv-x="1465" d="M111 489q0 122 50.5 219t133.5 179t186 153q-73 29 -144.5 79t-122.5 131q-43 80 -43 156q0 83 45 155t123 120q61 34 130.5 50.5t139.5 16.5q164 0 306 -84t180 -233q9 -41 9 -82q0 -82 -35.5 -159.5t-104.5 -125.5q-14 -10 -28 -10q-10 0 -19 4l-6 1q56 -32 111 -74 q75 -57 136 -131.5t98.5 -165t37.5 -198.5q0 -137 -73.5 -253.5t-200 -187.5t-281.5 -71q-110 0 -221.5 35.5t-203 102.5t-147.5 161t-56 212zM317 497q0 -77 58 -149t153 -118t204 -46q94 0 176.5 40t133 111t50.5 166q0 59 -23 120q-51 122 -153 202t-218 129 q-68 -51 -135.5 -105t-123 -111t-89 -117t-33.5 -122zM356 1410q0 -49 29 -86.5t75.5 -66.5t100 -50.5t104.5 -38.5q89 60 165 129q33 27 63 27q37 0 68 -31v2q0 77 -47 144t-125 99q-78 30 -162 30q-41 0 -88.5 -8.5t-88.5 -27t-67.5 -49t-26.5 -73.5z" />
<glyph unicode="9" horiz-adv-x="1383" d="M111 1117q0 131 52.5 245.5t142.5 199.5t204 133.5t240 50.5q107 0 204.5 -45t159.5 -136q43 -65 59.5 -139.5t16.5 -149.5q0 -63 -8 -123q-25 -188 -66 -372q-32 -145 -143 -720q-9 -42 -37 -62t-60 -20q-43 0 -82.5 31.5t-39.5 82.5q0 16 104 525q-44 -32 -110.5 -53.5 t-140.5 -21.5q-140 0 -252.5 81t-178 211.5t-65.5 281.5zM314 1098q0 -101 40 -187.5t112 -140t168 -53.5q76 0 147 34t122 92l46 225q10 46 16.5 97t6.5 101q0 78 -21 138.5t-70.5 95t-136.5 34.5q-112 0 -211 -60t-159 -159.5t-60 -216.5z" />
<glyph unicode=":" horiz-adv-x="557" d="M124 148q0 18 19 37l89 91q17 17 35 17q16 0 37 -19l87 -93q14 -19 14 -35q0 -19 -16 -37l-87 -96q-23 -23 -35 -23q-20 0 -36 17l-95 109q-12 16 -12 32zM124 897q0 19 19 38l89 91q17 16 35 16q16 0 37 -19l87 -93q14 -19 14 -35q0 -18 -16 -37l-87 -95 q-23 -24 -35 -24q-20 0 -36 17l-95 110q-12 15 -12 31z" />
<glyph unicode=";" horiz-adv-x="557" d="M114 120v51l132 139q53 0 102 -73t49 -168q0 -119 -78 -248t-160 -129v55q80 47 95 203q0 124 -140 170zM125 921q0 18 19 37l88 91q18 16 36 16q16 0 37 -18l87 -94q14 -19 14 -35q0 -18 -17 -37l-86 -95q-23 -23 -35 -23q-20 0 -36 17l-95 109q-12 16 -12 32z" />
<glyph unicode="&#x3c;" horiz-adv-x="1311" d="M187 624v176l936 439v-159l-806 -367l806 -370v-159z" />
<glyph unicode="=" horiz-adv-x="1044" d="M62 376v130h830v-130h-830zM62 688v130h830v-130h-830z" />
<glyph unicode="&#x3e;" horiz-adv-x="1311" d="M187 184v159l806 370l-806 367v159l936 -439v-176z" />
<glyph unicode="?" horiz-adv-x="1184" d="M127 1344q0 112 61 207.5t162.5 154t224.5 58.5q155 0 293 -92t201 -244q28 -77 28 -151q0 -98 -46 -186t-128 -156q-42 -33 -95 -71t-103.5 -81.5t-84 -93t-33.5 -106.5q0 -56 43 -119q6 -10 6 -19q0 -32 -43 -40q-14 0 -25 11q-33 33 -47 70.5t-14 77.5q0 74 39.5 147 t93.5 124q43 41 92 80.5t93 82.5t72.5 95t28.5 118q0 105 -50.5 190t-133.5 135t-179 50q-115 0 -197.5 -71.5t-82.5 -177.5q0 -65 35 -122.5t98 -89.5q19 -10 27.5 -25t8.5 -33q0 -29 -20.5 -54.5t-51.5 -25.5q-10 0 -21 3q-119 41 -185.5 139.5t-66.5 214.5zM498 164 q0 72 51.5 120.5t120.5 48.5q15 0 30 -2q55 -11 93.5 -59t38.5 -108q0 -57 -38.5 -106.5t-118.5 -57.5h-9q-55 0 -83 29q-85 51 -85 135z" />
<glyph unicode="@" horiz-adv-x="2227" d="M99 641q0 144 33.5 284.5t104.5 270.5q130 228 346 340t457 112q142 0 282 -38t266 -114q246 -153 380 -402.5t134 -526.5q0 -182 -62 -362q-25 -70 -67.5 -127t-98.5 -91t-120 -34q-80 0 -168 64q-80 65 -116 156q-9 22 -17 45q-14 -23 -31 -45q-59 -77 -161 -128 q-86 -40 -166 -40q-113 0 -209 64.5t-163.5 164.5t-98.5 211q-22 83 -22 166q0 184 102.5 337.5t297.5 201.5q45 10 90 10q104 0 199 -47.5t155 -130.5t60 -190q0 -9 -1 -19l68 -309q4 -17 8 -40q7 -41 18.5 -91t31 -96.5t49.5 -76.5t75 -30q52 0 84 49t50 121.5t24.5 147 t6.5 125.5q0 197 -74 361.5t-199.5 285.5t-283.5 188t-327 67q-183 0 -340 -79t-266 -219.5t-152 -329.5q-25 -114 -25 -230q0 -245 102 -474t288 -393q123 -105 273 -158t306 -53q153 0 299.5 52t266.5 158q19 16 39 16q23 0 40 -17t17 -40q0 -19 -16 -38 q-133 -137 -296.5 -201t-336.5 -64q-232 0 -452 103t-377 288q-148 179 -227.5 398t-79.5 447zM766 624q0 -91 34 -181q25 -67 69.5 -127.5t103 -100t124.5 -39.5q36 0 74 15t75 48q66 59 91.5 134t25.5 157q0 51 -7 103q-23 111 -47 223q-2 11 -2 21q0 23 9 41 q-32 33 -75 55q-65 32 -136 32q-68 0 -134 -31q-105 -54 -155 -148.5t-50 -201.5z" />
<glyph unicode="A" horiz-adv-x="1483" d="M117 103q0 21 8 46q153 395 262 803q59 220 118 513q26 158 74 308q22 55 77 55q22 0 48 -15.5t31 -61.5v-23q54 -108 87 -227l30 -95q226 -642 516 -1257q10 -25 10 -47q0 -29 -25 -62t-74 -37h-8q-43 0 -70 49q-91 200 -177 403q-110 -27 -293 -27q-130 0 -238 22l-8 1 q-53 -170 -113 -338q-4 -30 -22 -59q-41 -53 -103 -54h-3q-61 0 -101 40q-26 26 -26 63zM527 597l74 -8q132 -18 282 -18l94 1q-157 378 -283 755q-69 -396 -167 -730z" />
<glyph unicode="B" horiz-adv-x="1486" d="M91 1619q0 72 12 140q13 62 74 62q20 0 48.5 -12.5t43.5 -49.5l1 -4q147 84 311 84q102 0 211 -40.5t192 -154.5q62 -91 62 -192q0 -1 -0.5 -54t-57.5 -147q-46 -74 -110 -121q180 -46 317 -175q109 -109 151 -258q19 -68 19 -136q0 -81 -27 -162q-52 -142 -169 -242.5 t-263 -136.5q-85 -20 -171 -20q-154 0 -319 65l-1 -2q-28 -50 -75 -50q-6 0 -36.5 3t-65.5 47q-25 37 -32.5 80t-8.5 88l-2 43l-51 636q-22 271 -32 413l-8 95q-13 115 -13 201zM309 1585q9 -78 14 -156q4 -55 37 -396l11 -123q41 -420 50 -535l6 -63l32 -16 q145 -81 290 -81q45 0 90 8q101 18 187.5 75.5t130.5 152.5q24 60 24 120q0 47 -23.5 123t-105.5 151q-94 83 -215 117t-244 41q-53 6 -71 45q-9 20 -9 39q0 20 13.5 48.5t66.5 34.5q71 4 143.5 45t121.5 103q45 57 45 121q0 4 -1.5 39.5t-82.5 94.5q-112 74 -241 74 q-5 0 -75.5 -1.5t-193.5 -60.5z" />
<glyph unicode="C" horiz-adv-x="1672" d="M150 941q0 187 64 363q80 219 247 366.5t404 169.5l40 1q130 0 254.5 -56.5t209 -173t91.5 -273.5q-2 -49 -41 -71q-25 -15 -52 -15q-13 0 -40.5 7t-40.5 56q-24 122 -103.5 198t-188.5 98q-43 9 -87 9q-68 0 -138 -21q-164 -57 -255.5 -186.5t-117.5 -296.5 q-11 -75 -11 -149q0 -92 24.5 -221t107.5 -256q89 -131 235 -197q88 -41 181 -41q59 0 121 17q133 46 203 169q37 64 51 137l6 35q1 15 5 30.5t11.5 33t9.5 36.5q5 40 36 65t66 25q2 0 22 -1.5t42 -44.5l18 -35q36 -54 36 -125q0 -44 -9 -86q-21 -123 -92 -227.5 t-174 -176.5t-229 -95q-59 -9 -116 -9q-176 0 -357 99t-299 309q-134 246 -134 533z" />
<glyph unicode="D" horiz-adv-x="1699" d="M111 560l1 37q8 75 43 149t96 122q54 42 128 42h16q38 -5 64.5 -29t35.5 -57l-3 46q-12 190 -32 591q0 51 38 68q19 9 38 9t47.5 -13t34.5 -64q44 -716 44 -901q0 -14 -1 -47.5t-16 -83.5q-15 -38 -56 -38q-25 0 -39 26q-22 50 -30 105t-11 110q-5 55 -11 154 q-4 -42 -50 -70q-82 -46 -95 -112q-4 -19 -4 -39q0 -48 29.5 -108t89 -117t123.5 -84q78 -31 157 -31q34 0 108 12.5t174.5 76t170.5 153.5q147 193 147 434q0 97 -27 194q-45 155 -156.5 271t-263.5 170q-125 45 -240 45q-81 0 -165.5 -28.5t-149.5 -114.5q-29 -38 -69 -38 q-5 0 -30.5 3t-46.5 54q-11 35 -11 67q0 54 41 113t127.5 103.5t166 58t156.5 13.5q187 0 364 -78q227 -102 363.5 -294t160.5 -438q4 -45 4 -88q0 -201 -92 -407.5t-291 -355.5q-139 -100 -304 -135q-76 -16 -151 -16q-88 0 -212 31t-248 156q-79 81 -125 189 q-38 89 -38 184z" />
<glyph unicode="E" horiz-adv-x="1420" d="M133 1725q0 47 32 75.5t76 31.5q196 15 394 15l88 -1q99 0 200 -12t190 -57q74 -39 121.5 -107.5t48.5 -153.5q-2 -79 -50.5 -143t-128.5 -64q-39 0 -58 38q-6 12 -6 23q0 20 18 39q49 40 62 94q3 11 3 21q0 41 -44 79q-41 30 -96 37q-47 5 -92 5h-15q-13 0 -24 1h-24 q-238 0 -474 -19l16 -277l17 -272q52 -6 60 -6q49 -6 120 -6q51 0 101 3h87q58 0 114 2q44 0 89 -5q34 -4 58.5 -23t30.5 -56v-8q0 -66 -65 -90q-71 -21 -146 -28l-11 -2l-29 -3q-97 -15 -204 -15q-95 0 -191 14l38 -627l73 -7q154 -19 282 -19q149 0 257 15q57 9 114 10 q45 -3 69 -34.5t24 -65.5q0 -5 -2 -27.5t-44 -44.5q-89 -41 -192 -49q-83 -6 -164 -6q-121 0 -228 4q-63 3 -125 3l-60 -1q-32 -2 -64 -2l-49 1q-103 12 -116 115l-64 1279z" />
<glyph unicode="F" horiz-adv-x="1370" d="M123 1721q0 47 32.5 76.5t76.5 32.5q235 17 420 17h65l24 -1q100 0 203.5 -13.5t190.5 -64.5q69 -45 110 -122q34 -65 34 -135q0 -93 -62 -163q-44 -49 -110 -49q-70 0 -70 57q0 23 16 43q42 41 62 90q6 13 6 25q0 36 -40 70q-47 36 -107 44t-119 8l-91 1 q-208 0 -416 -17l35 -558q52 -6 57 -6q49 -6 120 -6q52 0 103 3h86l118 2q43 0 86 -4q35 -4 59.5 -23.5t29.5 -56.5v-10q0 -65 -65 -89q-72 -21 -146 -28l-40 -5q-98 -16 -204 -16q-95 0 -191 15l3 -163q0 -97 4 -193q1 -27 3.5 -55.5t5.5 -58.5q12 -111 12 -181 q0 -62 -12 -121q-17 -66 -83 -66q-21 0 -50.5 13t-45.5 53q-20 74 -20 154l-2 66l-11 196q-6 96 -18 192q-12 107 -18 215l-30 616z" />
<glyph unicode="G" horiz-adv-x="1549" d="M104 914q0 185 62.5 366.5t187.5 318t312 192.5q71 20 143 20q133 0 252 -60.5t194 -167.5t81 -249v-1q0 -27 -19.5 -41.5t-42.5 -14.5q-18 0 -33 10t-20 32q-34 154 -147.5 247.5t-252.5 93.5q-130 0 -248 -77q-97 -64 -155.5 -155t-84 -197.5t-25.5 -217.5 q0 -83 12 -165q16 -113 53 -221.5t96 -196.5t142 -141t192 -53q102 0 192.5 53t146.5 141t56 193q0 63 -21 92.5t-71 29.5q-28 0 -58 -7t-60 -15q-79 -24 -157 -24h-13v-27q0 -53 6 -70t6 -35q0 -32 -24.5 -51t-52.5 -19q-22 0 -40.5 12.5t-26.5 39.5q-13 57 -15 116.5 t-15 116.5q-3 10 -3 19q0 33 24 56.5t56 23.5q19 0 31.5 -7.5t29 -14.5t50.5 -7q38 0 76.5 11l73.5 21q37 11 74 18t75 7q35 0 70 -8q73 -18 117.5 -64.5t64 -110t19.5 -131.5q0 -72 -18 -139q-61 -210 -227.5 -333t-367.5 -123q-126 0 -251 56q-154 74 -253 213t-146 310 t-47 335z" />
<glyph unicode="H" horiz-adv-x="1545" d="M145 1574l1 149q2 50 32 74.5t68 24.5t70 -25t36 -74q19 -358 27 -716q152 88 342 88q139 0 254.5 -52.5t203.5 -146.5q-2 21 -2 42q-3 106 -7 214t-4 216q0 106 6.5 211.5t23.5 208.5q5 26 26 39.5t46 13.5q24 0 45 -13t26 -40q32 -205 36 -415.5t10 -417.5 q9 -211 21 -423q6 -98 15 -196t9 -196v-30h-2q0 -47 -36.5 -75t-78.5 -28q-31 0 -56.5 18t-32.5 57q-18 115 -25 272.5t-12 325.5q-86 127 -208.5 195.5t-257.5 68.5q-123 0 -236 -58q-27 -15 -51 -31.5t-51 -27.5l14 -722q0 -52 -34 -78.5t-75 -26.5q-42 0 -76.5 27 t-37.5 81q-10 366 -19.5 733t-9.5 733z" />
<glyph unicode="I" horiz-adv-x="845" d="M66 1696q7 46 36.5 73.5t71 39.5t78.5 12q40 0 79 -11t74 -24q27 -10 50.5 -16.5t42.5 -6.5q17 0 33.5 4.5t23.5 12.5q27 34 63 34q25 0 48 -21t22 -53q0 -17 -12 -34q-34 -44 -80.5 -64t-95.5 -20q-24 0 -37 3l-1 4q18 -99 19 -197q1 -14 2 -26q22 -519 45 -1123 q3 -78 4 -122q23 -2 65 -8q4 -1 9 -2q24 -2 58 -11q34 -8 60 -28q26 -19 26 -55q0 -35 -30 -54q-28 -18 -59 -18q-26 0 -63 5q-50 6 -141 9q-11 -2 -23 -2t-23 2q-52 0 -105 -2q-17 -1 -34 -3q-40 -4 -80 -4l-28 1q-35 4 -54 26.5t-19 47.5q1 22 15.5 43.5t41.5 32.5 q41 15 92 21t83 6q-8 245 -14 382q-8 180 -30 854q-2 36 -3 68q-4 65 -4 129q0 26 1 51q1 22 2 31q-5 1 -16 3t-23 2q-43 0 -77 -33q-20 -17 -38 -17q-20 0 -37.5 17.5t-17.5 40.5z" />
<glyph unicode="J" horiz-adv-x="1222" d="M100 475q0 42 10 94.5t29.5 100.5t49 79t67.5 31q37 0 68 -25t31 -60q0 -23 -17 -48q-57 -82 -57 -174q0 -70 31 -134t92 -107q76 -50 165 -50q73 0 142.5 29.5t118.5 82.5q46 52 61 116.5t15 131.5q0 79 -9.5 205t-15.5 218q-20 304 -41 599q-47 -17 -102 -17 q-63 0 -122.5 27.5t-101.5 82.5q-12 17 -12 35q0 28 23.5 51.5t51.5 23.5q18 0 35 -12q51 -35 108 -35q37 0 68.5 16t51.5 51q12 24 31.5 35t40.5 11q34 0 64 -25.5t34 -66.5q32 -507 71 -1014q7 -81 7 -161q0 -102 -20 -197.5t-75 -175t-158 -134.5q-124 -64 -258 -64 q-96 0 -187 35t-160 109q-64 70 -97 157.5t-33 178.5z" />
<glyph unicode="K" horiz-adv-x="1394" d="M98 1698v36q2 51 39.5 79t80.5 28q33 0 60 -19t34 -59q25 -167 37.5 -337t22.5 -340q14 9 32 15q125 144 251 287q86 105 167.5 213.5t164.5 215.5q21 24 45 24q27 0 49.5 -24t22.5 -54q0 -15 -7 -30q-65 -123 -144 -236.5t-165 -221.5q-91 -116 -189 -224q38 -34 71 -74 t63 -77q280 -335 561 -670q35 -44 35 -93q0 -47 -35 -83t-93 -36q-24 0 -45.5 9t-37.5 27q-72 90 -569 707q-41 53 -83 105q-4 4 -17.5 16.5t-18.5 20.5q-20 -21 -44 -28l54 -759v-11q0 -52 -34.5 -78.5t-77.5 -26.5q-46 0 -85 29t-45 87q-26 405 -54 809q-14 192 -30 386 t-16 387z" />
<glyph unicode="L" horiz-adv-x="1221" d="M127 1646q0 37 2.5 64.5t16 50.5t43.5 46q16 10 34 10q21 0 39 -10q47 -29 58 -69.5t13 -91.5q26 -374 41 -653q22 -375 39 -752q85 8 169 8q71 0 141 -4q107 -4 223 -15t211 -60q21 -12 31.5 -32t10.5 -43q0 -28 -15.5 -52t-46.5 -31q-48 -9 -97 -9q-76 0 -152.5 12 t-150.5 18q-49 3 -97 3q-154 0 -304 -33q-14 -3 -27 -3q-46 0 -78.5 31t-36.5 81q-38 744 -40 800t-20 506q-5 114 -7 228z" />
<glyph unicode="M" horiz-adv-x="1966" d="M164 1660q0 52 13 102q12 37 38.5 55t56.5 18q32 0 60.5 -18.5t42.5 -54.5q28 -71 76.5 -134t96.5 -123q206 -276 388 -590q41 140 105.5 272t141.5 256q51 85 106.5 171t119.5 162q63 67 135 67q38 0 71 -21.5t52 -68.5q16 -44 20.5 -96t9.5 -100q8 -57 66 -613 q42 -416 86 -832l1 -15q0 -48 -32.5 -72.5t-74.5 -24.5q-44 0 -82 28t-45 84q-26 282 -132 1385q0 8 -1 14q-117 -174 -234.5 -374t-207.5 -445q-9 -25 -31.5 -40t-47.5 -15q-17 0 -33 9t-26 28q-93 180 -220 377t-253 368l-31 44q8 -284 24.5 -608.5t16.5 -482.5 q0 -134 -12 -267q-6 -44 -40.5 -70t-71.5 -26q-28 0 -50 16.5t-29 53.5q-32 208 -38.5 419.5t-11.5 421.5l-18 619q-1 30 -3 60.5t-2 60.5z" />
<glyph unicode="N" horiz-adv-x="1701" d="M182 1535q0 120 14 239q7 40 38 60t68 20t69.5 -20t41.5 -60q7 -51 28 -95q32 -53 68 -104q68 -105 138 -208q69 -104 134 -210t136 -208q102 -146 208 -293t222 -284q-41 266 -80 531q-24 161 -40 323.5t-16 325.5q0 96 7 192q6 59 46 88.5t87 29.5q44 0 79 -26.5 t35 -80.5v-11q-7 -99 -7 -198q0 -157 14 -313.5t34 -312.5q15 -119 32 -239t29 -240.5t12 -240.5q0 -52 -3 -105q-4 -42 -33.5 -67t-64.5 -25q-21 0 -40.5 11t-32.5 34q-122 212 -271 408.5t-293 393.5q-71 99 -146 194.5t-146 193.5q-63 89 -124 179q0 -234 16 -478.5 t36 -459t33 -368.5v-9q0 -49 -37 -75.5t-81 -26.5q-37 0 -67.5 19.5t-38.5 61.5q-52 310 -78 715t-26 739z" />
<glyph unicode="O" horiz-adv-x="1674" d="M99 1052q0 156 45 307.5t151 272.5q89 95 207 131q140 76 295 76q98 0 196 -31q198 -68 327 -212.5t191.5 -334t62.5 -386.5q0 -181 -59 -370t-185.5 -325.5t-327.5 -171.5q-53 -8 -104 -8q-144 0 -267 58.5t-220.5 157t-165 223.5t-101.5 261q-45 173 -45 352zM285 1075 q0 -102 18.5 -203t51.5 -195q29 -83 79 -162t117.5 -143.5t148.5 -103t171 -38.5q64 0 131 23q126 47 197.5 154t100.5 241t29 254q0 155 -47.5 309t-149 269t-262.5 162q-60 16 -115 16q-112 0 -199.5 -58.5t-137 -156t-49.5 -214.5l1 -27q0 -35 -25.5 -56t-58.5 -23z" />
<glyph unicode="P" horiz-adv-x="1440" d="M155 1740v4q0 43 27.5 65t61.5 22q28 0 52.5 -14t37.5 -42q78 48 156.5 68.5t157.5 20.5q80 0 158 -18q142 -33 260.5 -123.5t179.5 -223.5q54 -125 54 -256q0 -167 -72.5 -299t-196.5 -208t-280 -76q-207 0 -355 152q37 -561 37 -656q0 -61 -29 -108.5t-81 -47.5 q-37 0 -69 27q-43 40 -50 89.5t-7 105.5q-14 364 -17 646q-9 436 -25 872zM351 1575q16 -314 37 -626q8 -3 15 -10q58 -57 138.5 -85.5t164.5 -28.5q61 0 118 15q138 40 212.5 151t74.5 242q0 116 -64 224q-63 95 -171.5 152.5t-223.5 57.5q-90 0 -162.5 -27t-138.5 -65z " />
<glyph unicode="Q" horiz-adv-x="1747" d="M145 1036q0 160 42 302.5t130.5 246.5t226.5 152q139 76 292 76q98 0 195 -31q196 -67 324 -208.5t190 -328t62 -380.5q0 -167 -49 -337.5t-155 -305.5q58 -32 115 -32q37 0 69 12t68 20l12 1q25 0 44.5 -19t19.5 -42q0 -35 -46.5 -58.5t-96.5 -23.5q-62 0 -125 23 t-119 55q-83 -80 -185.5 -119t-219.5 -39q-143 0 -265 57t-219 154.5t-164 220.5t-101 258q-45 170 -45 346zM352 1058q0 -100 18 -199t50 -191q29 -81 78.5 -158.5t116 -140.5t146.5 -101t169 -38q109 0 207 62q-33 29 -65 68t-66.5 76.5t-76 63t-93.5 25.5 q-30 0 -46.5 -10.5t-27 -27.5t-21.5 -38q-14 -24 -35.5 -35.5t-44.5 -11.5q-37 0 -62 20.5t-38 51.5t-13 62q0 58 36.5 107t93 78.5t114.5 29.5q64 0 120 -30t104 -74t89 -89q113 -115 141 -163q74 105 104 239.5t30 254.5q0 154 -47 304t-147 262t-258 158q-59 16 -113 16 q-110 0 -196.5 -57t-135.5 -151.5t-49 -209.5l1 -28q0 -35 -25 -55.5t-57 -22.5z" />
<glyph unicode="R" horiz-adv-x="1403" d="M132 1600q0 23 7.5 50.5t25 47t47.5 19.5q12 0 18.5 -3t10.5 -6t6 -5q72 58 162 86.5t176 29.5q160 0 290 -72.5t207.5 -198t77.5 -285.5q0 -146 -72.5 -265.5t-185.5 -191.5q111 -80 156 -210q22 -72 38 -146.5t55 -140.5q33 -49 74.5 -67t77.5 -18l59 3q44 0 73 -34.5 t29 -74.5t-23 -65.5t-58.5 -37.5t-72.5 -12q-68 0 -133 30.5t-113 76.5q-61 60 -96 136t-50 159q-11 71 -29 141t-70 122q-41 39 -95 67q-52 -11 -105 -11q-140 0 -248 77q16 -225 27 -531q4 -56 4 -112q0 -49 -11 -96q-10 -31 -32.5 -46.5t-48.5 -15.5q-27 0 -51 15.5 t-35 46.5q-10 31 -13 64.5t-3 67.5v47q0 245 -56 1079q-1 14 -10.5 128.5t-9.5 151.5zM309 1535q35 -308 52 -575l9 1q8 0 17 -3v2q56 -20 117.5 -34.5t123.5 -14.5q101 0 181 48.5t126.5 129.5t46.5 180q0 66 -24.5 129t-75.5 115q-63 62 -144 91.5t-167 29.5 q-163 0 -262 -99z" />
<glyph unicode="S" horiz-adv-x="1415" d="M122 1425q0 99 43 171t114 119t159 69t177 22q152 0 274 -57.5t193 -155t71 -216.5q0 -66 -27 -125t-85 -100q-16 -10 -34 -10q-30 0 -55 22t-25 51q0 11 4 22q25 63 25 118q0 70 -42.5 130t-122.5 96t-191 36q-73 0 -136 -19.5t-102.5 -62.5t-39.5 -113 q0 -62 34.5 -105.5t87.5 -74t110.5 -50t105.5 -31.5q118 -29 231.5 -72t205.5 -126q87 -82 130.5 -189.5t43.5 -221.5q0 -99 -34 -193.5t-102 -172.5q-84 -93 -192.5 -139.5t-223.5 -46.5q-157 0 -283.5 77.5t-201 201.5t-74.5 264q0 73 28.5 140.5t82 110t127.5 42.5 q22 0 45 -4q33 -7 49 -29.5t16 -49.5q0 -30 -17 -58t-48 -39q-45 -15 -64 -44.5t-19 -67.5q0 -49 24.5 -104t59 -100.5t66.5 -70.5q99 -72 211 -72q99 0 193 56q85 54 125.5 131.5t40.5 160.5q0 112 -65.5 211.5t-186.5 145.5q-119 39 -241 67.5t-233 89.5 q-107 64 -169.5 159t-62.5 207z" />
<glyph unicode="T" horiz-adv-x="1383" d="M5 1691q0 26 14 47.5t43 27.5q71 13 143 17.5t145 4.5q84 0 168 -3t166 -5q159 -3 318 -7q75 -1 154 -8t150 -32q28 -11 42 -33t14 -46q0 -23 -13.5 -43.5t-42.5 -30.5q-52 -16 -109 -21.5t-113 -5.5q-137 0 -374 11q19 -171 26 -343.5t14 -343.5q6 -135 12 -271t6 -272 q0 -119 -7 -237q-5 -45 -39.5 -71t-72.5 -26q-29 0 -52 17t-29 54q-26 193 -36 387.5t-15 388.5q-5 137 -11.5 275t-6.5 275q0 86 4 172q-111 1 -222.5 8.5t-218.5 32.5q-28 8 -42.5 31t-14.5 50z" />
<glyph unicode="U" horiz-adv-x="1380" d="M118 1347q0 214 34 425q6 31 27 46t47 15q33 0 62 -22.5t31 -61.5q1 -236 8 -470t45 -468q16 -111 51.5 -232.5t108.5 -213.5t202 -114q20 -3 38 -3q67 0 110 34.5t68.5 90t37.5 122.5t15.5 133.5t3.5 120.5q0 271 -19.5 516.5t-38.5 448.5v8q0 46 38.5 79.5t82.5 33.5 q52 0 83.5 -35.5t36.5 -85.5q23 -226 43.5 -484.5t20.5 -509.5q0 -123 -17.5 -249t-74 -233.5t-169.5 -178.5q-104 -59 -214 -59q-114 0 -221 53t-182 142q-120 151 -165.5 338t-64.5 374q-28 219 -28 440z" />
<glyph unicode="V" horiz-adv-x="1407" d="M46 1773q0 32 23.5 55.5t50.5 23.5q15 0 28.5 -8.5t23.5 -27.5q96 -196 166 -405.5t143 -415.5q93 -247 212 -538q37 123 140 486q120 414 244 827q16 47 49.5 69t71.5 22q50 0 92 -33t42 -89q0 -18 -5 -38q-146 -523 -363 -1241q-28 -101 -57 -207t-80 -198 q-17 -28 -43 -41.5t-54 -13.5q-37 0 -68.5 21t-43.5 61q-31 106 -73.5 209t-83.5 206q-80 207 -155 417q-77 205 -151.5 418t-107.5 431z" />
<glyph unicode="W" horiz-adv-x="2418" d="M29 1791q0 36 26 59t57 23q19 0 36 -9.5t30 -29.5q58 -98 102 -204t86 -212q84 -208 163 -419q103 -264 209 -528q60 252 135 499q60 188 132 369t150 362v4q0 40 26 62.5t57 22.5t52 -19.5t30 -38.5q69 -191 122.5 -388t108.5 -393q54 -193 107 -385q7 -26 13 -53 q196 639 418 1249q17 44 51 64.5t71 20.5q48 0 86.5 -29t38.5 -80q0 -20 -7 -42q-140 -401 -272 -806q-65 -202 -127.5 -406.5t-134.5 -403.5q-16 -40 -48.5 -60t-68.5 -20q-41 0 -74.5 27t-33.5 81v10q0 64 -17.5 132.5t-40.5 135.5t-41 129q-207 732 -251 894 q-225 -684 -351 -1315q-9 -38 -33.5 -55.5t-54.5 -17.5q-34 0 -66 19.5t-46 53.5q-160 419 -327 837q-82 200 -160 402q-43 108 -84 216.5t-67 222.5q-2 10 -2 19z" />
<glyph unicode="X" horiz-adv-x="1527" d="M65 125q0 37 14 69t35.5 63t42.5 64q61 98 162 260.5t257 397.5v1h1q-263 346 -490 715q-18 32 -18 61q0 47 37 78t83 31q27 0 52.5 -12.5t45.5 -40.5q214 -311 435 -617q75 109 152 217q73 105 150.5 213.5t171.5 197.5q36 30 70 30q41 0 71 -31t30 -74q0 -24 -11 -49 q-56 -116 -134 -224t-152 -214q-94 -139 -187 -279l3 -5q159 -202 326 -397q84 -96 174 -191t165 -199q23 -36 23 -68q0 -51 -43.5 -86t-97.5 -35q-47 0 -86.5 31t-82 84t-97.5 120q-220 259 -427 530q-174 -262 -373 -586q-18 -32 -42 -73.5t-59.5 -74t-87.5 -32.5 q-36 0 -66 21t-41 58q-6 24 -6 46z" />
<glyph unicode="Y" horiz-adv-x="1499" d="M96 1739q0 32 24 57t63 25q33 0 57 -24q87 -108 161 -226t142 -239q75 -130 142 -261q166 402 506 703q36 28 72 28q46 0 81.5 -33.5t35.5 -76.5q0 -37 -35 -72q-193 -170 -333 -391t-198 -473q3 -50 8.5 -156.5t26.5 -308.5q5 -36 13 -77.5t8 -81.5q0 -44 -19 -81 q-16 -26 -39.5 -38.5t-49.5 -12.5q-39 0 -76 30q-27 25 -35.5 55.5t-12.5 65.5q-33 229 -33 456q0 84 2 84.5t2 28.5q-2 3 -5 6q-120 244 -247 484q-65 120 -130.5 239.5t-119.5 243.5q-11 23 -11 46z" />
<glyph unicode="Z" horiz-adv-x="1691" d="M89 1733q0 34 22.5 62t64.5 28q140 0 278.5 -8.5t278.5 -8.5q302 0 628 38q10 2 20 2q50 0 83.5 -32t33.5 -76q0 -37 -31 -76q-271 -317 -490 -673.5t-399 -733.5q178 18 431.5 34t463.5 16q56 0 110.5 -6.5t106.5 -28.5q29 -12 48.5 -41t19.5 -59q0 -21 -10.5 -38 t-34.5 -28q-82 -34 -163 -41.5t-168 -9.5q-534 -17 -999 -53h-9q-50 0 -78 38t-28 83q0 30 13 57q181 373 388.5 731.5t460.5 685.5q-201 -24 -403 -24q-146 0 -290.5 17.5t-284.5 57.5q-32 11 -47.5 35t-15.5 52z" />
<glyph unicode="[" horiz-adv-x="645" d="M42 1846h448l8 -146h-289l93 -1772h289l8 -148h-449z" />
<glyph unicode="\" horiz-adv-x="694" d="M27 1474h157l483 -1715h-158z" />
<glyph unicode="]" horiz-adv-x="753" d="M46 1846h449l81 -2066h-449l-5 148h288l-69 1772h-289z" />
<glyph unicode="^" horiz-adv-x="751" d="M29 993l242 492h164l230 -480l-140 -3l-172 354l-180 -360z" />
<glyph unicode="_" horiz-adv-x="1024" d="M5 -39h1014v-116h-1014v116z" />
<glyph unicode="`" horiz-adv-x="1024" d="M217 1363q0 29 19 47.5t50 18.5q19 0 38.5 -11.5t53.5 -46.5l283 -287h-56l-328 201q-31 20 -45.5 39t-14.5 39z" />
<glyph unicode="a" horiz-adv-x="1358" d="M140 605q0 122 51 239q73 152 225 240q120 69 255 69q35 0 72 -5q96 -15 183 -75.5t136 -147.5q35 -63 35 -131q0 -28 -5 -56q18 -83 25 -168l49 -238q11 -60 35.5 -116.5t76.5 -94.5q37 -23 85 -23q27 0 54.5 12t32.5 52q11 54 58 54t59 -54l1 -14q0 -73 -53.5 -125 t-134.5 -61l-23 -1q-69 0 -134.5 35.5t-111.5 99.5q-40 56 -63 122q-40 -69 -110 -126q-129 -102 -272 -102q-25 0 -124 11.5t-225 151.5q-126 145 -164 330q-13 62 -13 122zM326 603q0 -100 44 -205t143 -181q71 -49 142 -49q31 0 97.5 20t129.5 118q59 100 59 215 q0 16 -6 91t-38 201l-7 30q-2 10 -2 19q0 15 5 27q-49 56 -120 83q-44 16 -93 16q-30 0 -61 -6q-139 -30 -211 -123.5t-81 -214.5q-1 -20 -1 -41z" />
<glyph unicode="b" horiz-adv-x="1273" d="M141 1707v72q3 45 36 60q16 8 32 8q17 0 42 -12t31 -56q27 -316 47 -777l8 7q6 7 14 13q132 107 295 125q24 3 46 3q138 0 259 -88q197 -162 197 -459q0 -61 -10 -122q-28 -165 -129 -301.5t-269 -177.5q-47 -10 -95 -10q-76 0 -174 33.5t-167 138.5q-15 -4 -29 -4 q-19 0 -45 10t-40 50q-46 157 -46 313q0 106 27 206l-8 176q-22 418 -22 721v71zM343 697l15 -360q41 -7 63 -51q59 -130 211 -130q43 0 110.5 19.5t126.5 81.5q124 142 124 341q0 111 -45 212q-88 169 -258 169q-112 0 -216 -80q-98 -85 -131 -202z" />
<glyph unicode="c" horiz-adv-x="1181" d="M112 598q0 30 7.5 119.5t86.5 213.5q75 115 196 177q101 52 216 52q22 0 44 -2q229 -22 344 -238q30 -58 30 -114q0 -77 -59 -77q-14 0 -28 8q-48 32 -73 85q-38 68 -93 115q-71 52 -157 52h-19q-145 -10 -224 -105.5t-95 -227.5q-4 -35 -4 -68q0 -95 34 -183 q39 -97 118 -163t186 -71h4q89 0 158 59q40 40 64 92q18 34 41 66q21 22 44 22q11 0 34.5 -9.5t39.5 -44.5q10 -31 10 -61q0 -52 -41 -116t-108 -112q-102 -72 -232 -72q-39 0 -79 7q-153 29 -256.5 128.5t-150.5 240.5q-38 111 -38 227z" />
<glyph unicode="d" horiz-adv-x="1365" d="M123 634q2 117 51.5 235t176.5 205q114 75 258 75q79 0 166.5 -29.5t145.5 -113.5l-5 54q-12 97 -17 275l-16 187q-4 18 -4 151l1 82h4q7 44 41 66q24 16 51 16q10 0 32.5 -5.5t34.5 -54.5q31 -173 31 -266l-1 -29l8 -168l43 -576q8 -93 9 -192q18 -120 52 -234 q12 -44 33.5 -85t63.5 -61q30 -13 60 -13q9 0 34 3.5t53 36.5q23 25 49 25q9 0 31 -6.5t41 -40.5q9 -16 9 -33q0 -19 -11 -38q-67 -107 -206 -107q-25 0 -75.5 8.5t-108.5 52.5q-66 53 -100 131q-59 -103 -201 -157q-84 -30 -167 -30q-47 0 -136 17.5t-194.5 99 t-165.5 200.5q-71 145 -71 319zM300 611q8 -126 73 -234t173 -161q62 -31 134 -31q52 0 108 16q100 35 134 118q31 74 32 160q0 159 -17 326q-16 -8 -34 -8q-12 0 -34 6.5t-36 39.5q-55 138 -220 138q-61 0 -120 -25q-103 -48 -150 -141q-42 -81 -43 -174v-30z" />
<glyph unicode="e" horiz-adv-x="1262" d="M116 586q1 83 21 166q41 154 148 269.5t268 144.5q41 7 82 7q33 0 66 -5q66 -8 165 -47.5t182 -157.5q16 -25 16 -50v-10q0 -5 -6 -25.5t-43 -41.5q-172 -94 -350 -174l-50 -23q-76 -36 -155 -68t-162 -45h-5q17 -140 111 -245q106 -107 260 -107q155 0 237 115 q51 71 51 161v21l1 16q4 32 32 56q24 18 54 18h12q35 0 55 -48q20 -62 20 -119q0 -22 -3 -44q-4 -35 -30.5 -106t-120 -145.5t-212.5 -97.5q-44 -7 -87 -7q-36 0 -71 5q-63 9 -161 46t-192 148q-133 168 -133 393zM294 658q101 60 210 107q117 51 344 170q-97 70 -208 70 q-45 0 -91 -11q-106 -35 -171 -124.5t-83 -195.5z" />
<glyph unicode="f" horiz-adv-x="733" d="M53 1061v2q0 2 2 15.5t24 33.5q49 38 117 51v14q-10 192 -10 261l1 27q3 69 26 147t85 141.5t169 79.5l39 1q115 0 196.5 -76.5t102.5 -203.5q0 -36 -27 -47q-8 -3 -16 -3q-25 0 -39 30q-26 45 -59 85.5t-84 59.5q-30 10 -58 10q-27 0 -67 -13.5t-71 -68.5 q-21 -39 -23 -85v-45q0 -24 10 -121l11 -176q33 -3 64 -11q38 -9 73.5 -24.5t62.5 -40.5q16 -18 16 -39q0 -16 -9 -32q-22 -29 -55 -29q-21 0 -71 16q-35 14 -69 18l-4 1q32 -594 37 -721q9 -115 9 -143q0 -55 -15 -105q-23 -56 -87 -56q-40 0 -62 38q-23 56 -29 120t-6 130 l-35 731l-26 -7q-41 -13 -66 -13q-20 0 -36 10q-21 16 -21 38z" />
<glyph unicode="g" horiz-adv-x="1271" d="M121 568q0 124 68.5 282.5t275.5 255.5q98 42 210 42q34 0 126 -11t190 -106q58 -16 69 -80l1 -27l2 -24q9 -35 9 -75v-21l-1 -2q21 -283 45 -565l16 -186l13 -129q23 -170 23 -286q0 -97 -23 -199t-101 -187q-138 -139 -337 -139q-132 0 -245 74q-138 102 -175 266 q-12 53 -12 104q0 108 53 211q22 34 52 34q2 0 20 -2t40 -31q11 -17 11 -37q0 -16 -7 -33q-28 -70 -28 -144q0 -20 6 -77.5t62.5 -130t155.5 -96.5q37 -8 73 -8q34 0 87 10t108 54q60 54 74 129q9 55 9 111l-1 40q-16 303 -43 605q-47 -73 -122 -123q-105 -63 -209 -63 q-35 0 -122.5 17.5t-195 122t-152.5 246.5q-25 90 -25 178zM297 581q0 -110 55 -213q53 -93 142 -136q58 -28 116 -28q31 0 90 15t112 122q37 86 46 179t9 189v19q0 96 11 189q-77 73 -189 73q-7 0 -71.5 -3.5t-162.5 -74.5q-158 -126 -158 -331z" />
<glyph unicode="h" horiz-adv-x="1199" d="M117 1760q0 54 37 70q20 10 40 10q21 0 51 -13.5t37 -66.5l42 -743q140 142 306 142q29 0 57 -4q168 -34 255 -165.5t95 -294.5q0 -126 -16 -219q-17 -109 -17 -184q0 -46 22.5 -89t73.5 -59q19 -5 37 -5q54 0 92 50q23 32 51 32q2 0 18 -2.5t34 -28.5q10 -16 10 -34 q-1 -14 -7 -30q-59 -116 -190 -116q-44 0 -106 21t-110 86q-62 90 -68 189q-3 36 -3 73q0 66 7 124q5 52 7 103v65q0 42 -16 106q-33 115 -122 172q-65 42 -134 42q-27 0 -91 -14.5t-126 -136.5q-34 -73 -38 -154q12 -229 14 -240q23 -167 23 -270q0 -21 -3 -87 q-8 -61 -52 -81q-22 -10 -43 -10q-22 0 -55.5 15.5t-37.5 75.5q-23 409 -27 541q-32 621 -47 1130z" />
<glyph unicode="i" horiz-adv-x="629" d="M92 1460q0 50 39.5 85.5t94.5 35.5t94 -35.5t39 -85.5q0 -49 -39 -84.5t-94 -35.5t-94.5 35.5t-39.5 84.5zM104 1040q0 34 33 67q64 55 142 55q23 0 46 -5q33 -7 53.5 -35t20.5 -61l-1 -99q0 -149 5 -296.5t6 -225.5l-2 -69q0 -181 61 -205q21 -9 39 -9q10 0 19 2t21 3 q31 0 50 -25q14 -19 14 -39q0 -9 -3 -19q-39 -87 -141 -87q-60 0 -112 33q-69 51 -91 125.5t-26 156.5q-17 279 -29 558l-3 73q-63 8 -91 63q-11 20 -11 39z" />
<glyph unicode="j" horiz-adv-x="598" d="M-84 -749q0 25 23 38q11 7 21 7q19 0 32 -22q36 -71 93 -71q6 0 43 4.5t88 61.5q75 87 75 229v8q-7 363 -51 835q-38 371 -45 742q4 85 81 85q21 0 52.5 -15t41.5 -69q36 -301 48 -605q12 -228 21 -350q23 -289 23 -497q0 -130 -43.5 -268t-164.5 -217q-62 -35 -128 -35 q-29 0 -93.5 14.5t-113.5 105.5q-3 10 -3 19zM103 1460q0 52 40.5 89t98.5 37q57 0 97.5 -37t40.5 -89q0 -51 -40.5 -88t-97.5 -37q-58 0 -98.5 37t-40.5 88z" />
<glyph unicode="k" horiz-adv-x="1184" d="M139 1687q1 24 6 58.5t46 68.5q21 17 45 17q15 0 31 -7q45 -28 58 -69t14 -89l17 -142q14 -145 31 -492l14 -231q49 17 100 30q95 21 178 67q109 75 114 195l-1 33q2 48 51 48q30 0 50 -23q43 -61 43 -140q-1 -27 -19.5 -94.5t-100.5 -141.5q-75 -65 -176 -97 q171 -108 243 -304q26 -71 68 -134q32 -45 87 -61q12 -2 24 -2q18 0 37 4.5t40 4.5q58 0 79 -39q9 -17 9 -36q0 -23 -10 -45q-43 -74 -149 -74q-26 0 -71 9t-87 37q-64 45 -101 110.5t-62 137.5q-43 134 -134 243q-27 31 -65.5 68.5t-81.5 62.5q-29 2 -57 11q4 -89 18 -234 q17 -131 17 -219q0 -80 -14 -150q-18 -70 -90 -70q-24 0 -57.5 14.5t-49.5 55.5q-24 85 -24 179q0 123 -47 897q-17 290 -23 543z" />
<glyph unicode="l" horiz-adv-x="582" d="M130 1654l1 29q0 7 1 38.5t28 79.5q22 33 62 33q25 0 42 -19q31 -40 39.5 -86t8.5 -96l17 -272l45 -834l2 -78q1 -91 13 -179q3 -16 6.5 -29t8 -23t11 -17.5t14.5 -12.5t18.5 -8.5t23 -5t28.5 -1.5q41 -3 60 -36q9 -17 9 -35q-1 -18 -12 -37q-46 -68 -132 -68 q-32 0 -64 11q-58 21 -94 68t-53 104q-24 98 -24 202l-2 86q-2 8 -15 279q-16 342 -22 511q-6 84 -12 267q-1 28 -4 58q-4 36 -4 71z" />
<glyph unicode="m" horiz-adv-x="1887" d="M78 1063q1 17 16 33q38 33 78 33q19 0 57.5 -15.5t67.5 -75.5l5 -11l3 -10q47 51 111 86q102 55 215 55q8 0 72 -2t164 -73q69 -53 108 -121q139 184 359 184q74 0 164.5 -34.5t150.5 -150.5q36 -79 46.5 -166.5t13.5 -175.5l3 -73l27 -462q-1 -40 -33.5 -69t-69.5 -29 q-43 0 -69.5 29.5t-28.5 71.5q-19 503 -19 522v43q0 73 -11 149.5t-65 125.5q-57 46 -129 46q-5 0 -46 -2.5t-106 -42.5q-71 -48 -113 -122l-11 -18q13 -65 17 -132q6 -100 10 -199l9 -159q7 -62 7 -124l-3 -87q-7 -52 -47 -76q-29 -17 -58 -17q-12 0 -39.5 7t-39.5 60 q-17 105 -18 214q0 19 -12 341q-1 86 -21 170.5t-91 136.5q-61 40 -130 40q-8 0 -51.5 -3t-106.5 -58q-51 -44 -71.5 -102t-22.5 -121q38 -280 50 -563q-2 -55 -45 -79q-29 -15 -58 -15q-16 0 -46.5 7.5t-41.5 60.5q-21 158 -39 317q-20 133 -20 235q0 87 18 159l-7 90 q-1 37 -10.5 75t-42.5 44q-34 5 -45 33q-5 10 -5 20z" />
<glyph unicode="n" horiz-adv-x="1310" d="M1 1094q1 12 7 25q20 34 68 34q92 -19 142 -82t74 -145q63 104 173 168t234 64q109 0 199 -56q105 -74 134.5 -187.5t35.5 -232.5l30 -363q1 -42 12.5 -86t53.5 -45q68 0 88 -45q9 -21 9 -42v-4q0 -25 -18.5 -61.5t-84.5 -43.5h-12q-69 0 -128 37t-90 101 q-24 55 -31.5 114t-9.5 119l-25 351q-2 46 -9 92.5t-28 86.5q-45 75 -133 75q-78 0 -146 -43q-149 -106 -149 -375q0 -100 16 -220q15 -110 15 -222v-37q-7 -61 -56 -81q-23 -9 -46 -9q-25 0 -60.5 15t-37.5 75q-5 111 -18 220q-15 113 -15 226v37l2 70q-22 157 -57 299 q-16 96 -111 133q-28 16 -28 38z" />
<glyph unicode="o" horiz-adv-x="1276" d="M98 597q0 65 16.5 162.5t88.5 203.5t197 163q87 38 180 38q5 0 56 -1t137 -54q27 -18 51 -42q57 -16 104 -58t74 -92q109 -198 109 -399q0 -28 -3 -57q-12 -130 -77.5 -237t-170.5 -168q-97 -56 -218 -56l-25 1q-197 14 -333.5 144.5t-174.5 322.5q-11 64 -11 129z M291 613q0 -80 33 -178.5t124 -172.5q82 -68 197 -68l26 1q120 16 184.5 108t68.5 209v17q0 115 -39 226q-17 -8 -35 -8q-14 0 -38 8t-36 43q-35 114 -143 160q-31 11 -63 11q-29 0 -74 -13t-90 -56q-115 -110 -115 -287z" />
<glyph unicode="p" horiz-adv-x="1252" d="M92 1028q5 56 58 81q13 7 26 7q12 0 24 -5q46 -15 57 -61v-1q118 109 287 109q46 0 93 -9q155 -30 272.5 -137.5t172.5 -258.5q33 -92 33 -186l-1 -15q-1 -50 -22 -151.5t-124 -220.5q-107 -114 -256 -155q-69 -19 -136 -19q-132 0 -232 63l19 -210q40 -355 40 -638 q-1 -49 -39 -75q-32 -22 -67 -22q-12 0 -42.5 6t-42.5 65q-39 308 -50 623q-8 178 -30 486q-29 361 -40 724zM279 853q19 -187 34 -374q21 10 43 10q36 0 62 -30q17 -21 17 -43q-1 -20 -14 -41q-28 -35 -29 -68q0 -29 30 -56q63 -50 165 -50h22q196 19 291 201q36 78 36 155 q0 23 -5 76t-56 137q-53 86 -139.5 143.5t-186.5 64.5h-15q-156 0 -255 -125z" />
<glyph unicode="q" horiz-adv-x="1271" d="M107 591q0 122 50 239q74 161 226 252q125 74 267 74q31 0 61 -3q203 -31 327 -194q31 -14 39 -55l2 -18q28 -65 28 -140q0 -21 -9 -37q4 -48 4 -96q0 -90 -15 -178q6 -304 26 -606t68 -602l2 -18q0 -48 -34 -74.5t-71 -26.5q-10 0 -39 4.5t-43 63.5q-74 468 -84 939 l-8 -5l-18 -16q-123 -89 -258 -89q-29 0 -128 14t-225 144q-125 137 -157 317q-11 56 -11 111zM288 598q0 -68 21 -140q31 -92 102 -166t163 -96q25 -7 50 -7q67 0 135 46q117 87 144 221l-5 417q-66 79 -161 106q-40 12 -82 12q-58 0 -120 -22q-157 -65 -215 -208 q-32 -79 -32 -163z" />
<glyph unicode="r" horiz-adv-x="858" d="M108 1053l2 -1q5 62 50 85q24 12 49 12q21 0 54.5 -14.5t44.5 -81.5l2 -28q29 40 68 73q83 64 180 64q6 0 61.5 -2t132.5 -86q62 -75 62 -166q0 -15 -7.5 -77t-99.5 -127q-17 -9 -31 -9q-22 0 -35 21q-12 17 -12 34q0 18 13 38q46 57 46 122q0 7 -3 46t-79 80 q-37 16 -72 16q-37 0 -87.5 -27t-85.5 -97q-23 -46 -33 -96l17 -219l3 -32q6 -75 13 -150q16 -161 23 -323q-2 -68 -55 -90q-26 -11 -52 -11t-53 12q-51 22 -51 86v3q-16 149 -34 473q-16 186 -31 472z" />
<glyph unicode="s" horiz-adv-x="1093" d="M101 305q0 116 94 189q48 38 106 38q21 0 44 -5q64 -23 64 -91q0 -45 -43 -70l-13 -6q-16 -7 -32.5 -17.5t-21.5 -28.5l-1 -13q0 -19 13 -39.5t33 -35.5q79 -55 210 -55q44 0 83 7q59 11 110 44.5t66 93.5q3 17 3 33q0 44 -27.5 91t-75.5 85q-45 34 -97 57.5t-107 43.5 q-81 29 -154 68.5t-120 114.5q-34 61 -34 118q0 28 16.5 83t90.5 107q70 47 160 47q144 0 252 -105q48 -51 66 -120q6 -23 6 -46q0 -45 -25 -87q-17 -24 -44 -24q-3 0 -19 1.5t-26 33.5l-4 21q-5 37 -16 69.5t-40 60.5q-67 65 -151 65q-37 0 -74 -18.5t-50 -56.5 q-3 -9 -3 -19q0 -31 28 -64q35 -37 84.5 -58t102.5 -37q46 -12 84 -28q71 -29 133 -71t109 -102q80 -108 80 -228q0 -19 -9 -99t-137 -173q-64 -42 -139 -59.5t-151 -19.5h-24q-72 0 -148 17.5t-143 70.5q-62 50 -90 123q-19 46 -19 94z" />
<glyph unicode="t" horiz-adv-x="807" d="M12 1159q0 14 16 27q41 24 87 24l-2 136q0 115 13 231q14 52 68 52t69 -52q32 -186 32 -406q100 -41 152 -41q23 0 46 4q39 0 54 -36q6 -13 6 -27q0 -21 -16 -38q-47 -36 -100 -36q-9 0 -45.5 3t-94.5 37l15 -523q0 -24 -2 -59l-1 -71q1 -56 14 -130.5t103 -91.5h5 q54 0 114 38t80 92q4 12 4 24q-1 39 -56 69q-25 18 -25 43q0 7 5 28.5t42 23.5q135 -16 165 -152l3 -42q0 -121 -99.5 -203t-219.5 -82q-15 0 -91.5 6t-162.5 131q-37 63 -47.5 134.5t-11.5 144.5l-7 272l-7 449l-17 1q-20 0 -39 -9l-16 -3q-18 0 -27 16q-6 8 -6 16z" />
<glyph unicode="u" horiz-adv-x="1276" d="M128 643q0 126 21 252q12 129 84 234q17 18 36 18q10 0 31 -12.5t27 -44.5l2 -41q0 -68 -16 -138q-19 -117 -19 -230q0 -68 7 -137q12 -107 66.5 -214.5t165.5 -142.5q30 -7 59 -7q77 0 150.5 57t114.5 159q-90 261 -90 445q0 120 34 238q27 64 89 65h2q61 0 88 -65 q95 -288 95 -480q0 -92 -19 -184l-6 -23q24 -96 86 -166q37 -39 92 -39q41 10 66 41q24 50 70 50q4 0 31.5 -2.5t35.5 -65.5q-2 -99 -72 -154q-60 -48 -141 -48l-25 1q-84 10 -145.5 58t-102.5 118q-86 -109 -220 -158q-72 -22 -139 -22q-173 0 -304 147q-80 99 -115.5 221 t-37.5 247z" />
<glyph unicode="v" horiz-adv-x="1209" d="M59 1128q0 25 20 41q12 12 28 12q12 0 26 -7q60 -42 97 -102q25 -25 98 -141q158 -239 280 -539q71 279 211 576q8 13 15 32q69 179 157 179l24 -3q61 -24 61 -75q0 -13 -12 -56t-52 -104l-17 -32q-202 -406 -274 -869q-17 -64 -76 -64q-3 0 -37.5 2t-61.5 62 q-139 477 -435 965q-52 78 -52 123z" />
<glyph unicode="w" horiz-adv-x="1685" d="M45 1110q0 54 57 54q21 0 43 -15q92 -86 153 -201q175 -278 318 -616q103 259 184 538q10 54 74 54q50 0 74 -48q44 -43 73 -111q93 -220 271 -468q56 393 68 804q6 95 100 95q24 0 58.5 -15.5t36.5 -79.5q-4 -532 -110 -1052q-19 -63 -76 -65h-5q-52 0 -89 41l-20 28 q-227 290 -341 569l-8 23q-78 -299 -210 -597q-27 -46 -69 -46q-10 0 -43 7.5t-56 59.5q-127 371 -348 767l-37 62q-61 92 -96 195z" />
<glyph unicode="x" horiz-adv-x="1239" d="M96 1057v11q36 99 134 99q7 0 62 -4.5t121 -55.5q69 -60 112 -138.5t77 -159.5l5 -11l61 96l43 71q58 96 128 185q29 26 60 26q25 0 52 -18q33 -31 33 -68q0 -20 -10 -41q-52 -111 -124 -215l-156 -232q95 -221 194 -343q48 -59 116 -59l40 3q41 0 69 -33.5t28 -71.5 q0 -86 -103 -105q-109 2 -186.5 71t-128.5 151q-82 134 -127 244q-130 -194 -290 -416q-36 -41 -78 -41q-25 0 -50 15q-45 26 -45 70q0 24 15 53q186 244 356 497l9 12v1q-46 107 -117 215q-52 87 -101 124q-25 13 -47 13q-17 0 -39 -9t-40 -9q-73 0 -73 73z" />
<glyph unicode="y" horiz-adv-x="1209" d="M111 855q0 110 19 218q17 55 65 55q7 0 41 -6.5t44 -69.5l1 -55q0 -237 50 -469l6 -24q11 -57 35 -133.5t67 -127.5q32 -42 79 -42q14 0 29 4q107 39 157 161.5t64 226.5q13 122 13 244q0 112 -11 225v19q0 85 82 85q23 0 59 -16t46 -75q100 -827 120 -949 q37 -246 37 -400q0 -144 -34.5 -285.5t-126 -257.5t-232.5 -161q-60 -18 -120 -18t-149.5 26.5t-156.5 134.5q-5 13 -5 25q0 21 19 37q13 9 26 9q16 0 31 -15q94 -111 229 -111q120 0 216 93q106 114 126 264q11 78 11 157q0 150 -74 672q-49 -113 -135.5 -194.5 t-208.5 -89.5q-152 4 -232 119t-113 249q-74 248 -74 475z" />
<glyph unicode="z" horiz-adv-x="1296" d="M118 996q0 28 26 43q84 41 178 58t187 25l68 6q222 28 446 40q69 -4 93 -70l2 -23q0 -53 -48 -86q-369 -286 -646 -632l-14 -18q-91 -105 -101 -169q36 -23 81 -23l36 1q295 5 613 64q137 21 149 21q61 0 87 -63l2 -23q0 -59 -64 -84q-288 -59 -582 -59l-137 -4 q-61 0 -122 4q-99 2 -176 63q-66 63 -66 141q0 33 12 69q37 83 131 193q212 265 468 489q-84 0 -256 -19q-85 -14 -170 -14q-79 0 -157 12q-40 11 -40 58z" />
<glyph unicode="{" horiz-adv-x="816" d="M48 889h46q94 0 135 55q37 50 37 148v19l-15 437v20q0 135 65.5 206.5t199.5 71.5h109l6 -153h-87q-135 0 -135 -148l16 -479q0 -103 -33.5 -169t-148.5 -91q116 -23 158 -95t44 -203l14 -415q3 -83 40 -121.5t106 -38.5h87l6 -153h-110q-134 0 -207 73.5t-79 223.5 l-15 426q-3 112 -48 167t-139 55h-46z" />
<glyph unicode="|" horiz-adv-x="1014" d="M432 -413v1985h150v-1985h-150z" />
<glyph unicode="}" horiz-adv-x="743" d="M46 1837h110q133 0 206.5 -73.5t79.5 -222.5l15 -436q3 -112 48 -166.5t139 -54.5h46l6 -163h-47q-94 0 -135 -54.5t-36 -166.5l15 -424q4 -150 -64 -223t-201 -73h-110l-5 152h87q69 0 102 38.5t30 121.5l-14 412q-8 131 30 202.5t153 94.5q-117 25 -159.5 97t-44.5 203 l-15 424q-3 83 -38.5 121.5t-105.5 38.5h-87z" />
<glyph unicode="~" horiz-adv-x="1014" d="M99 569v141q62 71 120 96.5t112 25.5q63 0 180.5 -49.5t173.5 -49.5q53 0 110.5 28.5t122.5 103.5v-141q-61 -70 -119 -95t-114 -25q-59 0 -176.5 48.5t-177.5 48.5q-52 0 -109.5 -28.5t-122.5 -103.5z" />
<glyph unicode="&#xa1;" horiz-adv-x="672" />
<glyph unicode="&#xa2;" horiz-adv-x="1139" />
<glyph unicode="&#xa3;" horiz-adv-x="1014" d="M81 678v50h137q-60 149 -60 258q0 224 122 343.5t303 119.5q109 0 202 -13.5t93 -29.5v-156h-28q-5 59 -79 96t-183 37q-104 0 -192.5 -98.5t-88.5 -248.5q1 -166 56 -308h358v-50h-338q70 -119 70 -203q0 -159 -167 -380h412q133 0 192 132l38 -1l-98 -221h-711l1 43 q187 238 187 420q0 78 -67 210h-159z" />
<glyph unicode="&#xa4;" horiz-adv-x="1014" d="M129 413l118 116q-34 49 -50 105q-12 42 -12 83q0 43 13 86q16 54 49 101l-118 117l73 74l117 -117q47 31 101 47q44 14 88 14q40 0 82 -12q56 -17 104 -49l117 117l73 -74l-116 -116q32 -49 49 -104q12 -42 12 -84q0 -41 -12 -84q-17 -55 -49 -104l116 -116l-73 -74 l-117 118q-48 -34 -103 -50q-42 -12 -84 -12q-41 0 -84 12q-56 16 -104 50l-117 -118zM279 716q0 -29 9 -57q17 -61 58 -103q42 -40 102 -58q29 -8 59 -8t59 8q60 18 102 58q40 42 58 102q9 29 9 59t-9 59q-18 60 -58 102q-42 40 -103 58q-29 8 -59 8t-59 -9 q-60 -18 -101 -57q-39 -41 -57 -101q-10 -30 -10 -61z" />
<glyph unicode="&#xa5;" horiz-adv-x="1014" d="M-17 1389v40h425v-40h-79q-62 0 -62 -58q0 -43 36 -120l224 -462l231 462q37 83 37 126q0 52 -49 52h-80v40h366v-40h-28q-93 0 -175 -174l-233 -476h233v-50h-256v-70h256v-50h-256v-284q0 -240 93 -240h80v-40h-476v40h78q95 0 95 240v284h-254v50h254v64l-3 6h-251v50 h225l-244 475q-80 175 -159 175h-28z" />
<glyph unicode="&#xa6;" horiz-adv-x="1014" d="M432 366h150v-779h-150v779zM432 794v779h150v-779h-150z" />
<glyph unicode="&#xa7;" horiz-adv-x="1014" d="M175 1130q0 146 88 233q80 78 212 85q8 1 17 1h3q66 0 160.5 -16t94.5 -37v-189h-41q-5 79 -82 131q-71 48 -152 52h-15q-80 0 -128.5 -46t-48.5 -121q0 -135 290 -274q148 -66 202.5 -141.5t54.5 -184.5q0 -169 -99 -278q-47 -39 -107 -68q116 -60 161 -121 q54 -76 54 -184q0 -169 -99 -279q-123 -101 -269 -104v2q-11 -2 -18 -2h-3q-66 0 -160.5 16t-94.5 37v189h41q5 -79 82 -131q69 -46 148 -51q115 6 188 70q74 66 74 169q0 128 -319 280q-122 64 -173.5 136t-51.5 174q0 146 88 233q65 64 183 84l-55 25q-122 64 -173.5 136 t-51.5 174zM292 571q0 -126 252 -255q59 17 101 54q75 67 75 170q0 5 -2 15h-1q-1 10 -4 23q-23 63 -115 130q-61 30 -129 30q-80 0 -128.5 -46t-48.5 -121z" />
<glyph unicode="&#xa8;" horiz-adv-x="1024" d="M214 1263q0 11 12 22l71 72q12 11 22 11q9 0 24 -13l68 -72q9 -13 9 -22q0 -11 -11 -24l-69 -75q-15 -15 -21 -15q-12 0 -21 10l-76 86q-8 11 -8 20zM579 1263q0 11 12 22l71 72q12 11 22 11q9 0 24 -12l68 -73q9 -13 9 -22q0 -11 -11 -23l-69 -76q-15 -15 -21 -15 q-12 0 -21 10l-76 87q-8 10 -8 19z" />
<glyph unicode="&#xa9;" horiz-adv-x="1674" d="M105 719q0 303 214.5 517.5t517.5 214.5t517.5 -214.5t214.5 -517.5t-214.5 -517.5t-517.5 -214.5t-517.5 214.5t-214.5 517.5zM155 719q0 -282 200 -482t482 -200t482 200t200 482t-200 482t-482 200t-482 -200t-200 -482zM356 719q0 125 65 241.5t185.5 182.5t251.5 66 q38 0 74.5 -6.5t75.5 -20.5q6 -1 10 -1q23 0 30 30h34l69 -188h-34q-52 93 -132 124q-73 26 -149 26h-15q-88 -8 -169.5 -72t-123.5 -179q-33 -91 -33 -186q0 -25 2 -50q11 -123 70 -227t152 -153q73 -41 168 -43q126 0 197.5 57.5t71.5 124.5h43v-95q0 -43 -94.5 -82.5 t-239.5 -39.5q-141 0 -261.5 67.5t-184 183t-63.5 240.5z" />
<glyph unicode="&#xaa;" horiz-adv-x="648" />
<glyph unicode="&#xab;" horiz-adv-x="944" d="M182 479l336 298h7v-30l-206 -268l206 -268v-30h-7zM495 479l336 298h7v-30l-206 -268l206 -268v-30h-7z" />
<glyph unicode="&#xac;" horiz-adv-x="1014" d="M92 672v90h830v-484l2 2h-91v392h-741z" />
<glyph unicode="&#xad;" horiz-adv-x="1063" d="M116 443v101q0 35 68 35h594q68 0 68 -35v-101q0 -34 -67 -34h-596q-67 0 -67 34z" />
<glyph unicode="&#xae;" horiz-adv-x="1674" d="M105 719q0 303 214.5 517.5t517.5 214.5t517.5 -214.5t214.5 -517.5t-214.5 -517.5t-517.5 -214.5t-517.5 214.5t-214.5 517.5zM155 719q0 -282 200 -482t482 -200t482 200t200 482t-200 482t-482 200t-482 -200t-200 -482zM529 274v40h38q42 0 42 126v538q0 126 -42 126 h-38v60h351q102 -1 173.5 -88.5t71.5 -214.5q0 -156 -148 -284l85 -120q101 -143 154 -143h29v-40h-336v40h40q35 0 35 27q0 31 -70 117l-76 104q-43 0 -92 49v-171q0 -126 41 -126h48v-40h-306zM746 725q1 -57 41 -86.5t85 -29.5q44 4 85 82t41 162q-5 105 -47.5 178 t-106.5 73h-98v-379z" />
<glyph unicode="&#xaf;" horiz-adv-x="1024" d="M259 1200v115h506v-115h-506z" />
<glyph unicode="&#xb0;" horiz-adv-x="674" d="M65 1164q0 114 80 193.5t194 79.5q113 0 192.5 -80t79.5 -193q0 -112 -80.5 -192.5t-193.5 -80.5q-115 0 -193.5 79.5t-78.5 193.5zM125 1163q0 -89 62.5 -150.5t151.5 -61.5t150.5 61.5t61.5 150.5t-62 151.5t-150 62.5t-151 -62.5t-63 -151.5z" />
<glyph unicode="&#xb1;" horiz-adv-x="1014" d="M37 477v140h350v369l1 1h139v-370h349l1 -1v-139h-350v-370h-140v370h-350zM87 0v140h839l1 -1v-139h-840z" />
<glyph unicode="&#xb2;" horiz-adv-x="567" d="M26 810q4 36 37 86q54 71 171 157q109 78 141 109q31 36 31 73q0 43 -31 69t-88 26q-58 0 -85.5 -20.5t-43.5 -73.5l-115 13q22 85 80.5 127t165.5 42q119 0 176.5 -44.5t57.5 -118.5q0 -46 -16.5 -82.5t-61.5 -78t-135 -107.5q-71 -49 -106 -87h323v-90h-501z" />
<glyph unicode="&#xb3;" horiz-adv-x="569" d="M33 979l111 11q16 -47 46.5 -69.5t83.5 -22.5q58 0 96 33.5t38 80.5q0 97 -136 97q-14 0 -27 -2q-8 -2 -12 -2l17 80q59 0 94.5 24.5t35.5 66.5q0 33 -28 55t-76 22q-49 0 -76.5 -18.5t-44.5 -62.5l-107 16q30 79 80 113t148 34q111 0 166 -41.5t55 -109.5q0 -45 -29 -78 t-98 -53q88 -22 121.5 -61t33.5 -95q0 -77 -66 -131t-178 -54q-216 0 -248 167z" />
<glyph unicode="&#xb4;" horiz-adv-x="1024" d="M328 1083l283 288q34 35 53.5 46.5t38.5 11.5q31 0 50 -18.5t19 -47.5q0 -20 -14.5 -39t-45.5 -39l-328 -202h-56z" />
<glyph unicode="&#xb5;" horiz-adv-x="1180" />
<glyph unicode="&#xb6;" horiz-adv-x="1024" d="M98 1086q0 155 106 249.5t282 94.5h438v-60h-127v-1365h-72v1365h-176v-1365h-74v738q-177 8 -277 101t-100 242z" />
<glyph unicode="&#xb7;" horiz-adv-x="508" d="M149 747q0 43 30.5 74t74.5 31q43 0 74 -31t31 -74q0 -44 -31 -74.5t-74 -30.5q-44 0 -74.5 30.5t-30.5 74.5z" />
<glyph unicode="&#xb8;" horiz-adv-x="1024" d="M365 -299q79 -48 147 -48t98 23t30 70q0 48 -52 69q-41 16 -104 16q-16 0 -27 -1l45 165h52l-37 -105q39 5 69 6q84 0 130.5 -39t46.5 -110q0 -74 -57 -117t-157 -43q-108 0 -184 30v84z" />
<glyph unicode="&#xb9;" horiz-adv-x="1014" />
<glyph unicode="&#xba;" horiz-adv-x="1522" />
<glyph unicode="&#xbb;" horiz-adv-x="944" d="M106 181v30l206 268l-206 268v30h7l336 -298l-336 -298h-7zM419 181v30l206 268l-206 268v30h7l336 -298l-336 -298h-7z" />
<glyph unicode="&#xbc;" horiz-adv-x="1532" d="M75 1137v157l134 145h210v-785h-135v700zM159 5l903 1434h148l-903 -1434h-148zM743 234v184l286 372h250v-437h146v-119h-146v-229h-139v229h-397zM822 347h320v409z" />
<glyph unicode="&#xbd;" horiz-adv-x="1567" d="M107 1137v157l134 145h210v-785h-135v700zM158 5l903 1434h148l-903 -1434h-148zM857 580q14 105 91 166.5t207 61.5q126 0 198.5 -60t72.5 -164q0 -76 -39 -140.5t-121 -128.5l-239 -185h432v-125h-578v160l289 226q113 84 113 178q0 53 -36.5 86.5t-102.5 33.5 q-62 0 -103.5 -33t-53.5 -97z" />
<glyph unicode="&#xbe;" horiz-adv-x="1683" d="M108 838l130 40q17 -63 64 -94t117 -31q76 0 118.5 41t42.5 101q0 136 -177 142h-99v132l252 151h-398v119h504v-175l-217 -134q136 -3 203 -66.5t67 -172.5q0 -112 -77.5 -183.5t-220.5 -71.5q-118 0 -198.5 51.5t-110.5 150.5zM332 5l903 1434h148l-903 -1434h-148z M891 234v184l289 372h250v-437h146v-119h-146v-229h-139v229h-400zM972 347h321v409z" />
<glyph unicode="&#xbf;" horiz-adv-x="748" />
<glyph unicode="&#xc0;" horiz-adv-x="1317" d="M27 5l476 1434h310l476 -1434h-184l-184 569h-528l-182 -569h-184zM318 1801h164l144 -231h-155zM441 720h434l-218 670z" />
<glyph unicode="&#xc1;" horiz-adv-x="1317" d="M27 5l476 1434h310l476 -1434h-184l-184 569h-528l-182 -569h-184zM441 720h434l-218 670zM584 1570l143 231h164l-153 -231h-154z" />
<glyph unicode="&#xc2;" horiz-adv-x="1317" d="M27 5l476 1434h310l476 -1434h-184l-184 569h-528l-182 -569h-184zM377 1570l186 231h188l186 -231h-147l-133 169l-134 -169h-146zM441 720h434l-218 670z" />
<glyph unicode="&#xc3;" horiz-adv-x="1317" d="M27 5l476 1434h310l476 -1434h-184l-184 569h-528l-182 -569h-184zM363 1574q0 96 44 152.5t119 56.5q43 0 78 -17t65 -39t57 -39.5t54 -17.5q56 0 64 97h107q0 -97 -44 -154.5t-119 -57.5q-43 0 -78 17.5t-64.5 40t-56 40t-53.5 17.5q-30 0 -47 -27t-19 -69h-107z M441 720h434l-218 670z" />
<glyph unicode="&#xc4;" horiz-adv-x="1317" d="M27 5l476 1434h310l476 -1434h-184l-184 569h-528l-182 -569h-184zM371 1683q0 45 30.5 75.5t75.5 30.5q44 0 74.5 -30.5t30.5 -75.5q0 -44 -30.5 -74.5t-74.5 -30.5q-45 0 -75.5 30.5t-30.5 74.5zM441 720h434l-218 670zM736 1683q0 45 30.5 75.5t74.5 30.5 q45 0 74.5 -30.5t29.5 -75.5q0 -44 -29.5 -74.5t-74.5 -30.5q-44 0 -74.5 30.5t-30.5 74.5z" />
<glyph unicode="&#xc5;" horiz-adv-x="1317" d="M27 5l476 1434h310l476 -1434h-184l-184 569h-528l-182 -569h-184zM441 720h434l-218 670zM441 1782q0 92 61.5 152t156.5 60q94 0 156 -60t62 -152t-62 -152t-156 -60q-95 0 -156.5 60t-61.5 152zM543 1782q0 -49 33.5 -83.5t82.5 -34.5q48 0 81 34.5t33 83.5 q0 50 -33 83.5t-81 33.5q-49 0 -82.5 -33.5t-33.5 -83.5z" />
<glyph unicode="&#xc6;" horiz-adv-x="1769" d="M28 5l753 1434h930v-150h-602v-413h440v-150h-440v-571h602v-150h-773v569h-423l-295 -569h-192zM591 722h347v673z" />
<glyph unicode="&#xc7;" horiz-adv-x="1452" d="M91 721q0 229 85.5 397.5t238 261t355.5 92.5q477 0 606 -412l-167 -56q-102 312 -439 312q-231 0 -365 -160t-134 -435t135.5 -435t367.5 -160q334 0 435 312l167 -56q-122 -363 -508 -406l-7 -77h16q84 0 130.5 -39.5t46.5 -113.5q0 -83 -59.5 -129t-169.5 -46 q-100 0 -171 29v98q74 -29 155 -29q49 0 77 17.5t28 53.5q0 68 -103 70q-40 0 -76 -6l18 166q-201 7 -349.5 101t-230.5 260.5t-82 389.5z" />
<glyph unicode="&#xc8;" horiz-adv-x="1073" d="M150 5v1434h862v-150h-690v-413h531v-150h-531v-571h692v-150h-864zM371 1801h164l144 -231h-157z" />
<glyph unicode="&#xc9;" horiz-adv-x="1073" d="M150 5v1434h862v-150h-690v-413h531v-150h-531v-571h692v-150h-864zM529 1570l143 231h164l-153 -231h-154z" />
<glyph unicode="&#xca;" horiz-adv-x="1073" d="M150 5v1434h862v-150h-690v-413h531v-150h-531v-571h692v-150h-864zM323 1570l187 231h188l186 -231h-147l-133 169l-134 -169h-147z" />
<glyph unicode="&#xcb;" horiz-adv-x="1073" d="M150 5v1434h862v-150h-690v-413h531v-150h-531v-571h692v-150h-864zM316 1683q0 45 30.5 75.5t74.5 30.5q45 0 75.5 -30.5t30.5 -75.5q0 -44 -30.5 -74.5t-75.5 -30.5q-44 0 -74.5 30.5t-30.5 74.5zM680 1683q0 45 30.5 75.5t75.5 30.5t74.5 -30.5t29.5 -75.5 q0 -44 -29.5 -74.5t-74.5 -30.5t-75.5 30.5t-30.5 74.5z" />
<glyph unicode="&#xcc;" horiz-adv-x="473" d="M-3 1801h164l144 -231h-155zM145 5v1434h172v-1434h-172z" />
<glyph unicode="&#xcd;" horiz-adv-x="473" d="M150 5v1434h172v-1434h-172zM162 1570l143 231h165l-154 -231h-154z" />
<glyph unicode="&#xce;" horiz-adv-x="473" d="M-45 1570l187 231h188l186 -231h-147l-133 169l-134 -169h-147zM151 5v1434h172v-1434h-172z" />
<glyph unicode="&#xcf;" horiz-adv-x="473" d="M-50 1683q0 45 30.5 75.5t75.5 30.5q44 0 74.5 -30.5t30.5 -75.5q0 -44 -30.5 -74.5t-74.5 -30.5q-45 0 -75.5 30.5t-30.5 74.5zM151 5v1434h172v-1434h-172zM315 1683q0 45 30.5 75.5t74.5 30.5q45 0 74.5 -30.5t29.5 -75.5q0 -44 -29.5 -74.5t-74.5 -30.5 q-44 0 -74.5 30.5t-30.5 74.5z" />
<glyph unicode="&#xd0;" horiz-adv-x="1518" />
<glyph unicode="&#xd1;" horiz-adv-x="1819" d="M182 1535q0 120 14 239q7 40 38 60t68 20t69.5 -20t41.5 -60q7 -51 28 -95q32 -53 68 -104q68 -105 138 -208q69 -104 134 -210t136 -208q102 -146 208 -293t222 -284q-41 266 -80 531q-24 161 -40 323.5t-16 325.5q0 96 7 192q6 59 46 88.5t87 29.5q44 0 79 -26.5 t35 -80.5v-11q-7 -99 -7 -198q0 -157 14 -313.5t34 -312.5q15 -119 32 -239t29 -240.5t12 -240.5q0 -52 -3 -105q-4 -42 -33.5 -67t-64.5 -25q-21 0 -40.5 11t-32.5 34q-122 212 -271 408.5t-293 393.5q-71 99 -146 194.5t-146 193.5q-63 89 -124 179q0 -234 16 -478.5 t36 -459t33 -368.5v-9q0 -49 -37 -75.5t-81 -26.5q-37 0 -67.5 19.5t-38.5 61.5q-52 310 -78 715t-26 739zM254 2143q0 55 53.5 114t121.5 81q45 14 90 14q34 0 90 -15t127 -58q48 -30 95.5 -68.5t99 -71t109.5 -44.5l24 -2q95 0 144 119l13 27q19 33 49 33q4 0 23.5 -3.5 t34.5 -45.5q6 -27 6 -53q0 -61 -40 -123t-112 -100q-59 -27 -119 -27q-22 0 -74.5 9t-128.5 52q-54 30 -107 69q-97 79 -207 108l-28 3q-73 0 -120 -64q-35 -49 -79 -49q-32 0 -53 34q-12 31 -12 61z" />
<glyph unicode="&#xd2;" horiz-adv-x="1593" d="M91 721q0 226 87.5 395.5t246.5 263.5t372 94q214 0 372.5 -94t245.5 -263.5t87 -395.5t-87 -395t-245.5 -262.5t-372.5 -93.5q-213 0 -372 93.5t-246.5 262.5t-87.5 395zM271 721q0 -176 66 -310t184.5 -209.5t275.5 -75.5q156 0 274.5 75.5t184.5 209.5t66 310 q0 177 -66 311.5t-184.5 210t-274.5 75.5q-157 0 -275.5 -75.5t-184.5 -210t-66 -311.5zM564 1801h164l144 -231h-157z" />
<glyph unicode="&#xd3;" horiz-adv-x="1593" d="M91 721q0 226 87.5 395.5t246.5 263.5t372 94q214 0 372.5 -94t245.5 -263.5t87 -395.5t-87 -395t-245.5 -262.5t-372.5 -93.5q-213 0 -372 93.5t-246.5 262.5t-87.5 395zM271 721q0 -176 66 -310t184.5 -209.5t275.5 -75.5q156 0 274.5 75.5t184.5 209.5t66 310 q0 177 -66 311.5t-184.5 210t-274.5 75.5q-157 0 -275.5 -75.5t-184.5 -210t-66 -311.5zM724 1570l143 231h164l-153 -231h-154z" />
<glyph unicode="&#xd4;" horiz-adv-x="1593" d="M91 721q0 226 87.5 395.5t246.5 263.5t372 94q214 0 372.5 -94t245.5 -263.5t87 -395.5t-87 -395t-245.5 -262.5t-372.5 -93.5q-213 0 -372 93.5t-246.5 262.5t-87.5 395zM271 721q0 -176 66 -310t184.5 -209.5t275.5 -75.5q156 0 274.5 75.5t184.5 209.5t66 310 q0 177 -66 311.5t-184.5 210t-274.5 75.5q-157 0 -275.5 -75.5t-184.5 -210t-66 -311.5zM516 1570l187 231h188l186 -231h-147l-133 169l-134 -169h-147z" />
<glyph unicode="&#xd5;" horiz-adv-x="1593" d="M91 721q0 226 87.5 395.5t246.5 263.5t372 94q214 0 372.5 -94t245.5 -263.5t87 -395.5t-87 -395t-245.5 -262.5t-372.5 -93.5q-213 0 -372 93.5t-246.5 262.5t-87.5 395zM271 721q0 -176 66 -310t184.5 -209.5t275.5 -75.5q156 0 274.5 75.5t184.5 209.5t66 310 q0 177 -66 311.5t-184.5 210t-274.5 75.5q-157 0 -275.5 -75.5t-184.5 -210t-66 -311.5zM503 1574q0 96 44 152.5t119 56.5q43 0 78 -17t65 -39t56.5 -39.5t54.5 -17.5q56 0 64 97h107q0 -97 -44 -154.5t-119 -57.5q-44 0 -78.5 17.5t-64 40t-56 40t-53.5 17.5 q-30 0 -47.5 -27t-18.5 -69h-107z" />
<glyph unicode="&#xd6;" horiz-adv-x="1593" d="M91 721q0 226 87.5 395.5t246.5 263.5t372 94q214 0 372.5 -94t245.5 -263.5t87 -395.5t-87 -395t-245.5 -262.5t-372.5 -93.5q-213 0 -372 93.5t-246.5 262.5t-87.5 395zM271 721q0 -176 66 -310t184.5 -209.5t275.5 -75.5q156 0 274.5 75.5t184.5 209.5t66 310 q0 177 -66 311.5t-184.5 210t-274.5 75.5q-157 0 -275.5 -75.5t-184.5 -210t-66 -311.5zM511 1683q0 45 30.5 75.5t74.5 30.5q45 0 75.5 -30.5t30.5 -75.5q0 -44 -30.5 -74.5t-75.5 -30.5q-44 0 -74.5 30.5t-30.5 74.5zM875 1683q0 45 30.5 75.5t75.5 30.5q44 0 74 -30.5 t30 -75.5q0 -44 -30 -74.5t-74 -30.5q-45 0 -75.5 30.5t-30.5 74.5z" />
<glyph unicode="&#xd7;" horiz-adv-x="1311" d="M202 907l98 102l356 -359l350 351l97 -100l-348 -348l355 -356l-98 -100l-356 357l-350 -349l-98 98l350 350z" />
<glyph unicode="&#xd8;" horiz-adv-x="1614" />
<glyph unicode="&#xd9;" horiz-adv-x="1380" d="M142 502v937h183v-915q0 -113 43 -201t125.5 -138.5t200.5 -50.5q116 0 196.5 50.5t122.5 138.5t42 201v915h183v-937q0 -156 -65 -276t-186.5 -188t-292.5 -68q-174 0 -297.5 68t-189 188t-65.5 276zM458 1801h164l143 -231h-156z" />
<glyph unicode="&#xda;" horiz-adv-x="1380" d="M142 502v937h183v-915q0 -113 43 -201t125.5 -138.5t200.5 -50.5q116 0 196.5 50.5t122.5 138.5t42 201v915h183v-937q0 -156 -65 -276t-186.5 -188t-292.5 -68q-174 0 -297.5 68t-189 188t-65.5 276zM656 1570l144 231h164l-151 -231h-157z" />
<glyph unicode="&#xdb;" horiz-adv-x="1380" d="M142 502v937h183v-915q0 -113 43 -201t125.5 -138.5t200.5 -50.5q116 0 196.5 50.5t122.5 138.5t42 201v915h183v-937q0 -156 -65 -276t-186.5 -188t-292.5 -68q-174 0 -297.5 68t-189 188t-65.5 276zM410 1570l186 231h188l186 -231h-147l-133 169l-134 -169h-146z" />
<glyph unicode="&#xdc;" horiz-adv-x="1380" d="M142 502v937h183v-915q0 -113 43 -201t125.5 -138.5t200.5 -50.5q116 0 196.5 50.5t122.5 138.5t42 201v915h183v-937q0 -156 -65 -276t-186.5 -188t-292.5 -68q-174 0 -297.5 68t-189 188t-65.5 276zM404 1683q0 45 30.5 75.5t75.5 30.5q44 0 74.5 -30.5t30.5 -75.5 q0 -44 -30.5 -74.5t-74.5 -30.5q-45 0 -75.5 30.5t-30.5 74.5zM769 1683q0 45 30.5 75.5t74.5 30.5q45 0 74.5 -30.5t29.5 -75.5q0 -44 -29.5 -74.5t-74.5 -30.5q-44 0 -74.5 30.5t-30.5 74.5z" />
<glyph unicode="&#xdd;" horiz-adv-x="1233" />
<glyph unicode="&#xde;" horiz-adv-x="1120" />
<glyph unicode="&#xdf;" horiz-adv-x="1251" />
<glyph unicode="&#xe0;" horiz-adv-x="1036" d="M81 274q0 89 41 153t112 104.5t165 59.5l350 75v24q0 111 -59.5 174t-167.5 63q-107 0 -169.5 -51t-83.5 -137l-156 37q19 83 72.5 148.5t139.5 103.5t200 38q191 0 289.5 -100t98.5 -280v-472l79 -209h-175l-54 148q-106 -173 -341 -173q-151 0 -246 79t-95 215z M253 283q0 -82 57 -127.5t153 -45.5q126 0 206 77.5t80 195.5v160l-267 -59q-109 -22 -169 -69t-60 -132zM272 1449h168l160 -264h-159z" />
<glyph unicode="&#xe1;" horiz-adv-x="1036" d="M81 274q0 89 41 153t112 104.5t165 59.5l350 75v24q0 111 -59.5 174t-167.5 63q-107 0 -169.5 -51t-83.5 -137l-156 37q19 83 72.5 148.5t139.5 103.5t200 38q191 0 289.5 -100t98.5 -280v-472l79 -209h-175l-54 148q-106 -173 -341 -173q-151 0 -246 79t-95 215z M253 283q0 -82 57 -127.5t153 -45.5q126 0 206 77.5t80 195.5v160l-267 -59q-109 -22 -169 -69t-60 -132zM447 1185l160 264h169l-168 -264h-161z" />
<glyph unicode="&#xe2;" horiz-adv-x="1036" d="M81 274q0 89 41 153t112 104.5t165 59.5l350 75v24q0 111 -59.5 174t-167.5 63q-107 0 -169.5 -51t-83.5 -137l-156 37q19 83 72.5 148.5t139.5 103.5t200 38q191 0 289.5 -100t98.5 -280v-472l79 -209h-175l-54 148q-106 -173 -341 -173q-151 0 -246 79t-95 215z M247 1185l176 264h197l178 -264h-152l-124 194l-125 -194h-150zM253 283q0 -82 57 -127.5t153 -45.5q126 0 206 77.5t80 195.5v160l-267 -59q-109 -22 -169 -69t-60 -132z" />
<glyph unicode="&#xe3;" horiz-adv-x="1036" d="M81 274q0 89 41 153t112 104.5t165 59.5l350 75v24q0 111 -59.5 174t-167.5 63q-107 0 -169.5 -51t-83.5 -137l-156 37q19 83 72.5 148.5t139.5 103.5t200 38q191 0 289.5 -100t98.5 -280v-472l79 -209h-175l-54 148q-106 -173 -341 -173q-151 0 -246 79t-95 215z M224 1207q0 98 47.5 154.5t126.5 56.5q38 0 71.5 -15.5t62 -36t53 -36.5t46.5 -16q29 0 48.5 23t21.5 63h118q0 -95 -47 -151t-127 -56q-39 0 -72 15.5t-62 35.5t-54 35.5t-47 15.5q-28 0 -47 -22.5t-21 -65.5h-118zM253 283q0 -82 57 -127.5t153 -45.5q126 0 206 77.5 t80 195.5v160l-267 -59q-109 -22 -169 -69t-60 -132z" />
<glyph unicode="&#xe4;" horiz-adv-x="1036" d="M81 274q0 89 41 153t112 104.5t165 59.5l350 75v24q0 111 -59.5 174t-167.5 63q-107 0 -169.5 -51t-83.5 -137l-156 37q19 83 72.5 148.5t139.5 103.5t200 38q191 0 289.5 -100t98.5 -280v-472l79 -209h-175l-54 148q-106 -173 -341 -173q-151 0 -246 79t-95 215z M226 1321q0 46 31 78t77 32t78 -32t32 -78t-32 -77t-78 -31t-77 31t-31 77zM253 283q0 -82 57 -127.5t153 -45.5q126 0 206 77.5t80 195.5v160l-267 -59q-109 -22 -169 -69t-60 -132zM601 1321q0 46 31 78t77 32q47 0 78.5 -32t31.5 -78t-31.5 -77t-78.5 -31q-46 0 -77 31 t-31 77z" />
<glyph unicode="&#xe5;" horiz-adv-x="1036" d="M81 274q0 89 41 153t112 104.5t165 59.5l350 75v24q0 111 -59.5 174t-167.5 63q-107 0 -169.5 -51t-83.5 -137l-156 37q19 83 72.5 148.5t139.5 103.5t200 38q191 0 289.5 -100t98.5 -280v-472l79 -209h-175l-54 148q-106 -173 -341 -173q-151 0 -246 79t-95 215z M253 283q0 -82 57 -127.5t153 -45.5q126 0 206 77.5t80 195.5v160l-267 -59q-109 -22 -169 -69t-60 -132zM304 1384q0 93 61.5 153t156.5 60q94 0 156.5 -60t62.5 -153q0 -92 -62.5 -152t-156.5 -60q-95 0 -156.5 60t-61.5 152zM407 1384q0 -50 33 -83.5t82 -33.5 q48 0 81 33.5t33 83.5q0 51 -33 84.5t-81 33.5q-49 0 -82 -33.5t-33 -84.5z" />
<glyph unicode="&#xe6;" horiz-adv-x="1690" d="M81 274q0 89 41 153t112 104.5t165 59.5l350 73v28q0 109 -63 172t-174 63q-96 0 -157.5 -49t-85.5 -139l-156 37q31 132 135.5 211t259.5 79q124 0 212 -47t136 -142q63 96 153 142.5t208 46.5q184 0 296 -129t112 -347q0 -46 -3 -100h-705q17 -370 300 -370 q183 0 254 178l135 -59q-48 -128 -148 -193.5t-241 -65.5q-269 0 -385 234q-56 -118 -155 -176t-249 -58q-154 0 -250.5 79t-96.5 215zM253 283q0 -82 57 -127.5t153 -45.5q123 0 204.5 76.5t81.5 196.5v160l-267 -59q-109 -23 -169 -69.5t-60 -131.5zM918 618h546 q-8 149 -75 231t-183 82q-122 0 -198.5 -80.5t-89.5 -232.5z" />
<glyph unicode="&#xe7;" horiz-adv-x="905" />
<glyph unicode="&#xe8;" horiz-adv-x="1075" d="M73 528q0 161 62.5 282t171.5 188.5t248 67.5q206 0 331 -127.5t125 -348.5q0 -62 -1 -100h-767q8 -179 90 -274.5t239 -95.5q205 0 281 183l136 -58q-51 -133 -159 -199t-266 -66q-154 0 -264 68t-168.5 191t-58.5 289zM247 618h603q-11 152 -90.5 232.5t-208.5 80.5 q-77 0 -142 -33t-107.5 -102t-54.5 -178zM304 1449h169l159 -264h-160z" />
<glyph unicode="&#xe9;" horiz-adv-x="1075" d="M73 528q0 161 62.5 282t171.5 188.5t248 67.5q206 0 331 -127.5t125 -348.5q0 -62 -1 -100h-767q8 -179 90 -274.5t239 -95.5q205 0 281 183l136 -58q-51 -133 -159 -199t-266 -66q-154 0 -264 68t-168.5 191t-58.5 289zM247 618h603q-11 152 -90.5 232.5t-208.5 80.5 q-77 0 -142 -33t-107.5 -102t-54.5 -178zM468 1185l160 264h168l-168 -264h-160z" />
<glyph unicode="&#xea;" horiz-adv-x="1075" d="M73 528q0 161 62.5 282t171.5 188.5t248 67.5q206 0 331 -127.5t125 -348.5q0 -62 -1 -100h-767q8 -179 90 -274.5t239 -95.5q205 0 281 183l136 -58q-51 -133 -159 -199t-266 -66q-154 0 -264 68t-168.5 191t-58.5 289zM247 618h603q-11 152 -90.5 232.5t-208.5 80.5 q-77 0 -142 -33t-107.5 -102t-54.5 -178zM268 1185l175 264h198l177 -264h-151l-124 194l-125 -194h-150z" />
<glyph unicode="&#xeb;" horiz-adv-x="1075" d="M73 528q0 161 62.5 282t171.5 188.5t248 67.5q206 0 331 -127.5t125 -348.5q0 -62 -1 -100h-767q8 -179 90 -274.5t239 -95.5q205 0 281 183l136 -58q-51 -133 -159 -199t-266 -66q-154 0 -264 68t-168.5 191t-58.5 289zM247 618h603q-11 152 -90.5 232.5t-208.5 80.5 q-77 0 -142 -33t-107.5 -102t-54.5 -178zM247 1321q0 46 31 78t77 32t77.5 -32t31.5 -78t-31.5 -77t-77.5 -31t-77 31t-31 77zM622 1321q0 46 30.5 78t77.5 32t78 -32t31 -78t-31 -77t-78 -31t-77.5 31t-30.5 77z" />
<glyph unicode="&#xec;" horiz-adv-x="408" d="M-46 1449h168l160 -264h-158zM122 5v1037h164v-1037h-164z" />
<glyph unicode="&#xed;" horiz-adv-x="408" d="M105 1185l160 264h168l-170 -264h-158zM122 5v1037h164v-1037h-164z" />
<glyph unicode="&#xee;" horiz-adv-x="408" d="M-73 1185l176 264h197l178 -264h-152l-123 194l-126 -194h-150zM122 5v1037h164v-1037h-164z" />
<glyph unicode="&#xef;" horiz-adv-x="408" d="M-91 1321q0 46 31 78t77 32t77.5 -32t31.5 -78t-31.5 -77t-77.5 -31t-77 31t-31 77zM122 5v1037h164v-1037h-164zM284 1321q0 46 30.5 78t76.5 32q48 0 79 -32t31 -78t-31 -77t-79 -31q-46 0 -76.5 31t-30.5 77z" />
<glyph unicode="&#xf0;" horiz-adv-x="1139" />
<glyph unicode="&#xf1;" horiz-adv-x="1310" d="M1 1094q1 12 7 25q20 34 68 34q92 -19 142 -82t74 -145q63 104 173 168t234 64q109 0 199 -56q105 -74 134.5 -187.5t35.5 -232.5l30 -363q1 -42 12.5 -86t53.5 -45q68 0 88 -45q9 -21 9 -42v-4q0 -25 -18.5 -61.5t-84.5 -43.5h-12q-69 0 -128 37t-90 101 q-24 55 -31.5 114t-9.5 119l-25 351q-2 46 -9 92.5t-28 86.5q-45 75 -133 75q-78 0 -146 -43q-149 -106 -149 -375q0 -100 16 -220q15 -110 15 -222v-37q-7 -61 -56 -81q-23 -9 -46 -9q-25 0 -60.5 15t-37.5 75q-5 111 -18 220q-15 113 -15 226v37l2 70q-22 157 -57 299 q-16 96 -111 133q-28 16 -28 38zM110 1401q0 54 45 111t102 79q38 14 75 14q29 0 76 -15t107 -57q40 -29 80 -66t83.5 -68.5t92.5 -43.5l20 -2q80 0 121 115l11 27q16 31 41 31q4 0 20.5 -3t28.5 -43q6 -27 6 -53q0 -59 -34 -119t-94 -96q-50 -27 -100 -27q-19 0 -63 8.5 t-108 50.5q-46 29 -90 67q-82 77 -174 105l-24 3q-62 0 -101 -62q-29 -48 -66 -48q-28 0 -45 33q-10 31 -10 59z" />
<glyph unicode="&#xf2;" horiz-adv-x="1149" d="M73 522q0 169 67 291t181 187.5t255 65.5t254.5 -65.5t180 -187.5t66.5 -291q0 -170 -66.5 -291t-180 -186t-254.5 -65t-255 65t-181 186t-67 291zM245 522q0 -134 45.5 -222.5t120.5 -132t165 -43.5q89 0 163.5 43.5t119.5 132t45 222.5q0 135 -45 223t-119.5 131.5 t-163.5 43.5q-90 0 -165 -43.5t-120.5 -131.5t-45.5 -223zM325 1449h168l160 -264h-158z" />
<glyph unicode="&#xf3;" horiz-adv-x="1149" d="M73 522q0 169 67 291t181 187.5t255 65.5t254.5 -65.5t180 -187.5t66.5 -291q0 -170 -66.5 -291t-180 -186t-254.5 -65t-255 65t-181 186t-67 291zM245 522q0 -134 45.5 -222.5t120.5 -132t165 -43.5q89 0 163.5 43.5t119.5 132t45 222.5q0 135 -45 223t-119.5 131.5 t-163.5 43.5q-90 0 -165 -43.5t-120.5 -131.5t-45.5 -223zM603 1185l160 264h168l-170 -264h-158z" />
<glyph unicode="&#xf4;" horiz-adv-x="1149" d="M73 522q0 169 67 291t181 187.5t255 65.5t254.5 -65.5t180 -187.5t66.5 -291q0 -170 -66.5 -291t-180 -186t-254.5 -65t-255 65t-181 186t-67 291zM245 522q0 -134 45.5 -222.5t120.5 -132t165 -43.5q89 0 163.5 43.5t119.5 132t45 222.5q0 135 -45 223t-119.5 131.5 t-163.5 43.5q-90 0 -165 -43.5t-120.5 -131.5t-45.5 -223zM299 1185l175 264h198l177 -264h-152l-123 194l-126 -194h-149z" />
<glyph unicode="&#xf5;" horiz-adv-x="1149" d="M73 522q0 169 67 291t181 187.5t255 65.5t254.5 -65.5t180 -187.5t66.5 -291q0 -170 -66.5 -291t-180 -186t-254.5 -65t-255 65t-181 186t-67 291zM245 522q0 -134 45.5 -222.5t120.5 -132t165 -43.5q89 0 163.5 43.5t119.5 132t45 222.5q0 135 -45 223t-119.5 131.5 t-163.5 43.5q-90 0 -165 -43.5t-120.5 -131.5t-45.5 -223zM278 1207q0 98 47.5 154.5t125.5 56.5q39 0 72 -15.5t61.5 -36t53.5 -36.5t46 -16q30 0 49.5 23t21.5 63h117q0 -95 -47 -151t-126 -56q-39 0 -72.5 15.5t-62 35.5t-53.5 35.5t-48 15.5q-27 0 -46.5 -22.5 t-21.5 -65.5h-117z" />
<glyph unicode="&#xf6;" horiz-adv-x="1149" d="M73 522q0 169 67 291t181 187.5t255 65.5t254.5 -65.5t180 -187.5t66.5 -291q0 -170 -66.5 -291t-180 -186t-254.5 -65t-255 65t-181 186t-67 291zM245 522q0 -134 45.5 -222.5t120.5 -132t165 -43.5q89 0 163.5 43.5t119.5 132t45 222.5q0 135 -45 223t-119.5 131.5 t-163.5 43.5q-90 0 -165 -43.5t-120.5 -131.5t-45.5 -223zM280 1321q0 46 30.5 78t76.5 32q47 0 78.5 -32t31.5 -78t-31.5 -77t-78.5 -31q-46 0 -76.5 31t-30.5 77zM655 1321q0 46 30.5 78t76.5 32q48 0 79 -32t31 -78t-31 -77t-79 -31q-46 0 -76.5 31t-30.5 77z" />
<glyph unicode="&#xf7;" horiz-adv-x="1014" d="M87 647v140h839l1 -1v-139h-840zM377 389q0 18 19 37l89 91q17 17 35 17q16 0 37 -19l87 -93q14 -19 14 -35q0 -19 -16 -37l-87 -96q-23 -23 -35 -23q-20 0 -36 17l-95 109q-12 16 -12 32zM377 1138q0 19 19 38l89 91q17 16 35 16q16 0 37 -19l87 -93q14 -19 14 -35 q0 -18 -16 -37l-87 -95q-23 -24 -35 -24q-20 0 -36 17l-95 110q-12 15 -12 31z" />
<glyph unicode="&#xf8;" horiz-adv-x="1149" d="M70 5l122 149q-57 69 -88.5 162t-31.5 206q0 169 67 291t181 187.5t255 65.5q168 0 298 -94l59 70h147l-123 -149q57 -71 88.5 -164.5t31.5 -206.5q0 -170 -66.5 -291t-180 -186t-254.5 -65q-168 0 -302 96l-59 -71h-144zM244 522q0 -142 56 -240l475 571q-44 35 -95 51 t-105 16q-90 0 -165 -43.5t-120.5 -131.5t-45.5 -223zM371 194q92 -70 204 -70q89 0 164 43.5t120 132t45 222.5q0 146 -56 243z" />
<glyph unicode="&#xf9;" horiz-adv-x="1051" d="M111 406v636h164v-632q0 -97 32 -160t88.5 -94.5t130.5 -31.5t130.5 31.5t88.5 94.5t32 160v632h164v-636q0 -214 -110 -320t-305 -106q-197 0 -306 106t-109 320zM275 1449h168l160 -264h-158z" />
<glyph unicode="&#xfa;" horiz-adv-x="1051" d="M111 406v636h164v-632q0 -97 32 -160t88.5 -94.5t130.5 -31.5t130.5 31.5t88.5 94.5t32 160v632h164v-636q0 -214 -110 -320t-305 -106q-197 0 -306 106t-109 320zM510 1185l159 264h169l-170 -264h-158z" />
<glyph unicode="&#xfb;" horiz-adv-x="1051" d="M111 406v636h164v-632q0 -97 32 -160t88.5 -94.5t130.5 -31.5t130.5 31.5t88.5 94.5t32 160v632h164v-636q0 -214 -110 -320t-305 -106q-197 0 -306 106t-109 320zM248 1185l176 264h197l178 -264h-152l-123 194l-126 -194h-150z" />
<glyph unicode="&#xfc;" horiz-adv-x="1051" d="M111 406v636h164v-632q0 -97 32 -160t88.5 -94.5t130.5 -31.5t130.5 31.5t88.5 94.5t32 160v632h164v-636q0 -214 -110 -320t-305 -106q-197 0 -306 106t-109 320zM230 1321q0 46 30.5 78t76.5 32t78 -32t32 -78t-31.5 -77t-78.5 -31q-46 0 -76.5 31t-30.5 77zM605 1321 q0 46 30.5 78t76.5 32q48 0 79 -32t31 -78t-31 -77t-79 -31q-46 0 -76.5 31t-30.5 77z" />
<glyph unicode="&#xfd;" horiz-adv-x="868" />
<glyph unicode="&#xfe;" horiz-adv-x="1010" />
<glyph unicode="&#xff;" horiz-adv-x="868" />
<glyph unicode="&#x100;" horiz-adv-x="1462" d="M117 103q0 21 8 46q153 395 262 803q59 220 118 513q26 158 74 308q22 55 77 55q22 0 48 -15.5t31 -61.5v-23q54 -108 87 -227l30 -95q226 -642 516 -1257q10 -25 10 -47q0 -29 -25 -62t-74 -37h-8q-43 0 -70 49q-91 200 -177 403q-110 -27 -293 -27q-130 0 -238 22l-8 1 q-53 -170 -113 -338q-4 -30 -22 -59q-41 -53 -103 -54h-3q-61 0 -101 40q-26 26 -26 63zM396 1895v177h522v-177h-522zM527 597l74 -8q132 -18 282 -18l94 1q-157 378 -283 755q-69 -396 -167 -730z" />
<glyph unicode="&#x101;" horiz-adv-x="1325" d="M140 605q0 122 51 239q73 152 225 240q120 69 255 69q35 0 72 -5q96 -15 183 -75.5t136 -147.5q35 -63 35 -131q0 -28 -5 -56q18 -83 25 -168l49 -238q11 -60 35.5 -116.5t76.5 -94.5q37 -23 85 -23q27 0 54.5 12t32.5 52q11 54 58 54t59 -54l1 -14q0 -73 -53.5 -125 t-134.5 -61l-23 -1q-69 0 -134.5 35.5t-111.5 99.5q-40 56 -63 122q-40 -69 -110 -126q-129 -102 -272 -102q-25 0 -124 11.5t-225 151.5q-126 145 -164 330q-13 62 -13 122zM306 1310v174h630v-174h-630zM326 603q0 -100 44 -205t143 -181q71 -49 142 -49q31 0 97.5 20 t129.5 118q59 100 59 215q0 16 -6 91t-38 201l-7 30q-2 10 -2 19q0 15 5 27q-49 56 -120 83q-44 16 -93 16q-30 0 -61 -6q-139 -30 -211 -123.5t-81 -214.5q-1 -20 -1 -41z" />
<glyph unicode="&#x12a;" horiz-adv-x="845" d="M44 1926v174h630v-174h-630zM66 1696q7 46 36.5 73.5t71 39.5t78.5 12q40 0 78.5 -11t74.5 -24q27 -10 50.5 -16.5t42.5 -6.5q17 0 33.5 4.5t23.5 12.5q27 34 63 34q25 0 48 -21t22 -53q0 -17 -12 -34q-34 -44 -80.5 -64t-95.5 -20q-24 0 -38 3l-1 4q19 -99 20 -197 q1 -14 1 -26q23 -519 46 -1123q3 -78 4 -122q23 -2 65 -8q4 -1 9 -2q24 -2 57.5 -11t60.5 -28.5t26 -57.5q-1 -33 -29.5 -51t-59.5 -18q-26 0 -63 5q-51 6 -142 9q-11 -2 -23 -2t-23 2q-52 0 -105 -2q-17 -1 -34 -3q-39 -4 -79 -4l-28 1q-36 4 -55 26.5t-18 47.5 q0 22 14.5 43.5t42.5 32.5q41 15 92 21t83 6q-8 245 -14 382q-8 180 -31 854q-1 36 -2 68q-5 91 -3 180q1 22 2 31q-5 1 -16 3t-23 2q-43 0 -77 -33q-20 -17 -38 -17q-20 0 -37.5 17.5t-17.5 40.5z" />
<glyph unicode="&#x12b;" horiz-adv-x="629" d="M-11 1310v174h630v-174h-630zM104 1040q0 34 33 67q64 55 142 55q23 0 46 -5q33 -7 53.5 -35t20.5 -61l-1 -99q0 -149 5.5 -296.5t5.5 -225.5l-2 -69q0 -181 61 -205q21 -9 39 -9q10 0 19 2t21 3q31 0 50 -25q14 -19 14 -39q0 -9 -3 -19q-39 -87 -141 -87q-60 0 -112 33 q-69 51 -91 125.5t-26 156.5q-17 279 -29 558l-3 73q-63 8 -91 63q-11 20 -11 39z" />
<glyph unicode="&#x131;" horiz-adv-x="514" d="M24 737v35q221 69 260 181h39v-730q0 -178 105 -178h41v-40h-432v40h41q105 0 105 178v432q0 82 -116 82h-43z" />
<glyph unicode="&#x16a;" horiz-adv-x="1380" d="M118 1347q0 214 34 425q6 31 27 46t47 15q33 0 62 -22.5t31 -61.5q1 -236 8 -470t45 -468q16 -111 51.5 -232.5t108.5 -213.5t202 -114q20 -3 38 -3q67 0 110 34.5t68.5 90t38 122.5t15.5 133.5t3 120.5q0 271 -19.5 516.5t-38.5 448.5v8q0 46 38.5 79.5t82.5 33.5 q52 0 83.5 -35.5t36.5 -85.5q24 -226 44 -484.5t20 -509.5q0 -123 -17.5 -249t-74 -233.5t-169.5 -178.5q-104 -59 -214 -59q-114 0 -220.5 53t-182.5 142q-120 151 -165.5 338t-64.5 374q-28 219 -28 440zM306 1979v174h630v-174h-630z" />
<glyph unicode="&#x16b;" horiz-adv-x="1276" d="M128 620v23q0 126 21 252q12 129 84 234q17 18 35 18q11 0 32 -12.5t27 -44.5l2 -41q0 -68 -16 -138q-20 -117 -20 -230q0 -68 7 -137q13 -107 67.5 -214.5t164.5 -142.5q31 -7 60 -7q77 0 150 57t114 159q-89 261 -89 445q0 120 34 238q27 64 89.5 65t88.5 -65 q95 -288 95 -480q0 -92 -19 -184l-6 -23q25 -96 86 -166q37 -39 93 -39q41 10 65 41q25 50 71 50q4 0 31.5 -2.5t35.5 -65.5q-2 -99 -72 -154q-61 -48 -142 -48l-24 1q-84 10 -145.5 58t-102.5 118q-87 -109 -220 -158q-73 -22 -139 -22q-174 0 -304 147q-80 99 -116 221 t-38 247zM261 1301v174h630v-174h-630z" />
<glyph unicode="&#x300;" d="M-481 1365q0 29 19 47.5t50 18.5q19 0 38.5 -11.5t53.5 -46.5l283 -288h-56l-328 202q-31 20 -45.5 39t-14.5 39z" />
<glyph unicode="&#x301;" d="M-474 1085l283 288q34 35 53.5 46.5t38.5 11.5q31 0 50 -18.5t19 -47.5q0 -20 -14.5 -39t-45.5 -39l-328 -202h-56z" />
<glyph unicode="&#x302;" d="M-615 1086l226 345h112l226 -345h-47l-235 218l-235 -218h-47z" />
<glyph unicode="&#x303;" d="M-606 1168q18 69 65.5 124.5t115.5 55.5q55 0 120.5 -28t124.5 -28q63 0 91 56h44q-18 -66 -65 -123t-127 -57q-49 0 -113.5 31t-123.5 31q-62 0 -87 -62h-45z" />
<glyph unicode="&#x304;" d="M-521 1200v115h506v-115h-506z" />
<glyph unicode="&#x307;" d="M-383 1263q0 5 2.5 10.5t9.5 11.5l70 73q5 5 11 7.5t12 2.5q5 0 10.5 -2.5t10.5 -7.5l72 -77q4 -3 5.5 -8t1.5 -12q-1 -8 -2.5 -13t-7.5 -11l-71 -75q-11 -11 -14 -13t-5 -2q-9 0 -14.5 2t-8.5 7l-75 87q-4 4 -5.5 8.5t-1.5 11.5z" />
<glyph unicode="&#x308;" d="M-598 1263q0 11 12 22l71 72q12 11 22 11q9 0 24 -13l68 -72q9 -13 9 -22q0 -11 -11 -24l-69 -75q-15 -15 -21 -15q-12 0 -21 10l-76 86q-8 11 -8 20zM-233 1263q0 11 12 22l71 72q12 11 22 11q9 0 24 -12l68 -73q9 -13 9 -22q0 -11 -11 -23l-69 -76q-15 -15 -21 -15 q-12 0 -21 10l-76 87q-8 10 -8 19z" />
<glyph unicode="&#x30a;" d="M-421 1258q0 73 49.5 122.5t121.5 49.5q74 0 124 -50t50 -122q0 -73 -50 -123t-124 -50q-72 0 -121.5 50t-49.5 123zM-355 1258q0 -44 30.5 -74.5t74.5 -30.5t74.5 30.5t30.5 74.5q0 42 -31 73t-74 31t-74 -31t-31 -73z" />
<glyph unicode="&#x30c;" d="M-615 1431h47l235 -216l235 216h47l-226 -346h-112z" />
<glyph unicode="&#x327;" d="M-466 -299q79 -48 147 -48t98 23t30 70q0 48 -52 69q-41 16 -104 16q-16 0 -27 -1l45 165h52l-37 -105q39 5 69 6q84 0 130.5 -39t46.5 -110q0 -74 -57 -117t-157 -43q-108 0 -184 30v84z" />
<glyph unicode="&#x1000;" horiz-adv-x="2341" d="M123 612q0 12 2 106t126 240q125 134 289 134q159 0 298 -106q116 -95 187 -219q25 -43 40 -73q55 189 202 303q122 87 252 87q33 0 131.5 -17t226.5 -144q117 -117 192 -277q71 -151 71 -304l-1 -25q-4 -82 -39 -164.5t-108 -130.5q-44 -25 -88 -25q-19 0 -58.5 10.5 t-72.5 61.5q-20 30 -20 67q0 23 7 48q27 79 120 79h13q27 33 27 83q-3 109 -44 207q-36 89 -95 171.5t-150 127.5q-54 27 -104 27q-36 0 -95 -24.5t-112 -111.5q-46 -78 -60 -164.5t-17 -175.5q-2 -50 -7 -101q-7 -54 -49 -80q-31 -19 -65 -19q-14 0 -45 7.5t-49 66.5 q-32 125 -88.5 250t-133.5 228q-43 57 -103 102t-126 55q-13 2 -25 2q-53 0 -106 -36q-99 -76 -115 -193q-5 -37 -5 -73q0 -80 24 -158q12 -47 36.5 -104.5t60 -109t81.5 -78.5q34 -19 71 -19q16 0 33 3q11 2 21 2q34 0 59.5 -24.5t26 -60.5t-40.5 -59q-70 -34 -136 -34 q-42 0 -112 24t-144 110t-116 184q-67 158 -67 324z" />
<glyph unicode="&#x1001;" horiz-adv-x="1199" d="M81 802v15q0 104 80 182q121 113 318 113q52 0 104 -9q199 -39 329 -178q109 -118 131 -242l5 -23q52 -14 52 -56q0 -19 -13.5 -38.5t-35.5 -26.5q-13 -151 -110 -281q-118 -158 -310 -231q-85 -31 -174 -31q-25 0 -96 6t-158 84q-81 79 -81 176q0 96 76 178 q75 75 180.5 123.5t210.5 75.5q139 40 242 40q-24 83 -95 150q-87 81 -207 103q-30 6 -59 6q-82 0 -155 -44q-50 -34 -50 -89q0 -24 7 -46q7 -27 7 -55q-6 -48 -65 -48q-64 0 -96 47t-37 99zM322 266q0 -9 6 -35.5t63 -47.5q31 -10 63 -10q31 0 80.5 14.5t103.5 48.5 q102 65 159 172q29 55 39 106q-86 -13 -184 -37q-79 -20 -159 -54t-137 -87q-34 -34 -34 -70z" />
<glyph unicode="&#x1002;" horiz-adv-x="1500" d="M118 501q0 90 37.5 206.5t143.5 223.5q163 160 387 160q71 0 145 -19q152 -41 271.5 -144.5t185.5 -245.5q83 -182 83 -394q0 -50 -8.5 -119t-59.5 -137q-26 -27 -61 -27q-14 0 -46.5 9.5t-45.5 55.5q-6 34 -6 67q0 28 4 55q8 55 8 110q0 181 -76 325q-52 96 -135 162.5 t-188 90.5q-40 8 -78 8q-139 0 -246 -115q-66 -74 -93 -172q-13 -50 -13 -100q0 -49 13 -97q30 -97 98 -154.5t160 -83.5q37 -13 50 -44q7 -18 7 -35q0 -13 -8 -36t-50 -34q-35 -7 -68 -7q-77 0 -160.5 44t-150 136.5t-88.5 196.5q-12 58 -12 114z" />
<glyph unicode="&#x1003;" horiz-adv-x="2362" d="M108 866q0 13 2 27q15 88 79 134q61 43 137 43q5 0 48.5 -2t107.5 -62q64 -68 80 -155q14 -81 14 -167v-12q0 -91 14 -173q15 -72 48.5 -136t93.5 -107q62 -42 129 -42q45 0 86 30q62 50 80 121q10 40 10 83q0 33 -5 68q-52 135 -90 272q-7 25 -7 41q0 35 27 57t66 22 q10 0 40.5 -5.5t55.5 -56.5q58 -132 89 -274q55 -154 167 -273q60 -60 139.5 -97.5t161.5 -37.5h44.5t114.5 55q122 100 122 270q0 36 -11 103t-60 150q-31 58 -80.5 108.5t-112.5 63.5h-9q-33 0 -62 -25q-20 -18 -20 -40q0 -16 10 -34q17 -27 17 -49q0 -19 -20.5 -47.5 t-72.5 -34.5l-13 -1q-47 0 -81 42q-37 55 -37 116q0 17 8 65t65 109q81 85 199 85q66 0 131 -28q158 -73 247 -230.5t98 -324.5l1 -22q0 -156 -86.5 -295.5t-251.5 -197.5q-74 -22 -147 -22q-87 0 -208 43t-232 159q-36 38 -54 63q-11 -27 -42 -68q-108 -141 -282 -141 q-44 0 -117.5 16.5t-159.5 88.5q-124 111 -158 260.5t-34 293.5q-30 -15 -78 -15q-24 0 -72 11.5t-93 67.5q-36 44 -36 107zM260 870q0 -8 8.5 -27.5t46.5 -33.5q15 -6 30 -6q18 0 25 27l10 6q-2 33 -24 72q-12 21 -28 21q-15 0 -36 -12q-32 -23 -32 -47z" />
<glyph unicode="&#x1004;" horiz-adv-x="1279" d="M103 581q0 67 14 134q30 141 134.5 251t268.5 138q33 5 65 5q68 0 149 -26t146 -92t74 -162q0 -42 -36 -60q-21 -11 -45 -11q-15 0 -43.5 7.5t-44.5 45.5q-38 94 -128 125q-35 11 -70 11q-56 0 -115 -28q-184 -101 -184 -333q0 -59 24 -156t119 -184q65 -56 157 -78 q37 -10 73 -10q51 0 100 18q80 34 121 107q23 46 23 94v4q1 29 7 58q11 36 55 48q12 3 23 3q31 0 53 -22q44 -53 44 -118q0 -10 -4.5 -54.5t-43.5 -109.5q-85 -135 -249 -182q-65 -15 -129 -15q-87 0 -201.5 39.5t-210.5 149.5q-146 171 -146 403z" />
<glyph unicode="&#x1005;" horiz-adv-x="1288" d="M99 698q0 92 45 176q54 97 149 163.5t206 82.5q28 3 55 3q87 0 182 -35t182 -106q110 -90 174 -218.5t66 -268.5v-4q0 -139 -74 -265q-55 -88 -142 -145.5t-190 -80.5q-75 -17 -155 -17q-35 0 -113 6.5t-172 70.5q-116 87 -116 216q0 80 52 154q-15 7 -35 21 q-114 95 -114 247zM272 695q0 -41 18 -81q31 -59 93 -65l48 29q106 70 231 101l25 2q26 0 42 -16q69 0 69 -108q0 -54 -36 -124t-121 -113q-61 -25 -121 -25q-70 0 -127 28q-14 -22 -14 -48t27.5 -59t90.5 -49q52 -12 104 -12q78 0 181.5 35.5t164.5 161.5q29 74 29 148 q0 58 -29 152t-129 186q-112 104 -262 116q-57 0 -117 -28.5t-107 -82.5q-60 -69 -60 -148zM475 401q27 -11 52 -11q31 0 59 16q62 40 78 106q-24 -15 -72 -41q-106 -61 -117 -70z" />
<glyph unicode="&#x1006;" horiz-adv-x="2226" d="M136 820q0 126 116 212q85 55 138 55l55 1q159 0 290.5 -89t213.5 -247q64 185 208 287q103 67 167 69l76 3q99 0 205.5 -39.5t199.5 -128.5q136 -138 158 -256q21 -118 21 -170q0 -134 -58.5 -257t-167.5 -187q-53 -30 -95 -45t-74 -15h-67q-93 0 -195.5 30.5t-189 95 t-135.5 165.5l-26 63q-18 -52 -29 -79q-46 -113 -137 -193t-229 -88q-79 0 -139.5 35.5t-94 93t-33.5 123.5q0 91 52.5 165.5t144.5 118.5t210 44q47 0 107 -9q-13 88 -54 149t-89 99q-105 85 -240 90q-40 0 -77.5 -14.5t-62 -41.5t-24.5 -65l3 -38q0 -35 -22.5 -57 t-37.5 -23h-17q-26 0 -41.5 25.5t-22.5 59t-7 58.5zM451 265q0 -45 36 -70.5t83 -25.5q52 0 97.5 28.5t80 73t54.5 94.5q13 33 22 69q-50 9 -94 9q-55 0 -110.5 -13.5t-99.5 -44.5t-64 -83q-5 -20 -5 -37zM1076 658q39 -9 56.5 -32.5t17.5 -46.5q0 -21 -7 -41t-7 -63 q0 -89 58 -153t146.5 -98.5t180.5 -34.5q135 4 198 85q65 78 75 146q9 68 9 97q0 184 -144 308q-82 70 -153 87t-110 17q-112 0 -200 -69.5t-120 -201.5z" />
<glyph unicode="&#x1007;" horiz-adv-x="1322" d="M101 625q0 77 31.5 187t171.5 213q128 85 272 85q13 0 97.5 -5t221 -89.5t213.5 -221.5q40 -75 40 -149q0 -19 -3 -38q26 -47 60 -79q29 -28 60 -28l28 2q50 0 69 -42q5 -13 5 -24q0 -29 -33 -53q-52 -28 -102 -28q-40 0 -78 17q-66 28 -105 75q-64 -53 -152 -53 q-32 0 -85.5 13t-101.5 69q-43 48 -43 116l1 18q11 76 69.5 120.5t135.5 50.5l21 1l-5 23q-15 17 -60 50q-113 87 -244 87q-55 0 -124 -23t-130 -109q-51 -79 -51 -171q0 -12 4 -70t55 -154t127 -158q94 -73 207 -73l33 1q47 4 97.5 26.5t68.5 69.5q26 67 96 67 q40 0 70 -24.5t30 -60.5q0 -13 -4 -29q-40 -117 -143 -175t-224 -63l-24 -1q-117 0 -226.5 55t-189.5 156q-100 124 -138 277q-18 72 -18 142zM842 591q0 -3 6 -13q15 -18 41 -18q40 0 66 30q-8 8 -18 16q-20 15 -46 15q-22 -1 -38 -14q-1 -3 -11 -16z" />
<glyph unicode="&#x1008;" horiz-adv-x="1797" d="M112 446q0 74 32 144t98 107q-6 28 -6 56q0 38 11 74q24 81 88 143t148 94q79 27 160 27q40 0 121.5 -13.5t182.5 -81.5q87 -60 148.5 -145t85.5 -187q12 -61 12 -119q0 -140 -56 -241l-22 -21q19 0 37 -13.5t18 -33.5q0 -11 -6 -25q-51 -84 -92 -175q-89 -188 -89 -392 q0 -84 16 -169q34 -165 124.5 -306.5t228.5 -235.5q39 -28 90 -47q30 -11 57 -11q16 0 43 6.5t47 64.5q12 42 12 86q0 17 -4.5 56t-17.5 100q-8 37 -14 72q-78 515 -141 1034q-38 312 -81 624l-1 14q0 57 41 85q28 19 61 19q18 0 53.5 -13t47.5 -81q43 -353 89 -705 q83 -631 117 -936q20 -138 20 -222q0 -70 -13 -138q-17 -86 -74.5 -147t-150.5 -73l-30 -1q-88 0 -172.5 44.5t-157.5 110.5q-147 129 -235.5 301.5t-108.5 365.5q-4 44 -4 88q0 247 105 443q-49 -35 -147 -60q-73 -18 -145 -18q-134 0 -267 65q-95 49 -163.5 131.5 t-89.5 187.5q-6 34 -6 67zM302 446q0 -61 42 -120q18 -25 42 -47q-7 14 -7 28q0 26 24 54q41 36 64 85q8 17 8 33q0 30 -28 58q-27 21 -57 21q-11 0 -39.5 -7t-43.5 -59q-5 -24 -5 -46zM399 737q54 0 115 -28q96 -47 135 -150q13 -39 13 -82q0 -24 -8 -72t-50.5 -105 t-116.5 -72l-13 -1q-6 0 -12 1q1 -1 3 -2q79 -40 153 -44h16q123 0 219 72t133 203q12 48 12 94q0 81 -48 175t-166 154q-68 33 -142 33q-17 0 -71.5 -5.5t-117.5 -63.5q-47 -43 -54 -107z" />
<glyph unicode="&#x1009;" horiz-adv-x="1142" d="M97 844q0 15 6 60t59 104q86 92 221 92q45 0 91 -11q172 -46 304 -180t179 -304q15 -66 15 -131q0 -97 -45.5 -224.5t-195.5 -212.5q-95 -49 -193 -49q-71 0 -134 21l82 -357l13 -62q26 -130 65.5 -253.5t123.5 -227.5q84 -99 199 -145t244 -57q43 -4 86 -4 q102 0 223.5 30.5t226.5 134.5q73 77 108 179q25 72 25 144q0 30 -9.5 96.5t-87.5 145.5q-22 23 -22 46q0 10 8 31t42 34q11 4 22 4q23 0 47 -17q166 -139 166 -362q0 -86 -36 -201.5t-138 -223.5q-218 -214 -576 -214q-60 0 -120 7q-176 19 -323.5 89t-256.5 215 q-91 127 -135.5 274.5t-73.5 299.5q-29 148 -107 467q-11 40 -18 95q-3 26 -3 50q0 17 6 32q13 67 80 84q12 2 23 2q39 0 67 -26t28 -63q0 -10 -2 -18q60 -57 152 -57q58 0 111 27q78 45 114 131q29 69 29 140q0 18 -2 35q-13 105 -75 192t-147 147q-104 74 -189 74 q-53 0 -94 -42q-24 -25 -24 -53q0 -12 5 -25q7 -20 7 -37q0 -23 -18 -48.5t-56 -29.5h-6q-35 0 -60 38q-31 56 -31 114z" />
<glyph unicode="&#x100a;" horiz-adv-x="2034" d="M123 860q0 15 6 59.5t59 104.5q87 93 228 93q46 0 94 -11q173 -46 306 -181t178 -304q9 -40 9 -52q14 -5 26 -23q14 -31 14 -63q4 -70 47 -132q68 -84 167 -126q76 -32 159 -32q39 0 86.5 12.5t82.5 59.5q47 73 47 165q0 7 -2.5 60.5t-32.5 140.5q-49 148 -154 256 q-47 48 -81 106q-8 18 -8 35q0 23 16 43q23 31 66 31l17 -1q74 -18 124.5 -68t91.5 -106q73 -102 113 -221q46 -128 46 -256q0 -87 -25 -169q-38 -117 -124.5 -184t-210.5 -79q-27 -3 -55 -3q-91 0 -189 33.5t-190 110.5q-56 45 -82 87q-52 -118 -184 -192q-99 -49 -199 -49 q-71 0 -125 18l81 -351l13 -63q26 -129 65.5 -252t122.5 -227q84 -97 196.5 -142.5t238.5 -55.5q42 -4 84 -4q101 0 220.5 29.5t223.5 132.5q71 75 107 177q25 71 25 144q0 31 -10 97.5t-86 145.5q-21 24 -21 46q0 9 7.5 29t43.5 33q13 5 26 5q26 0 52 -18 q168 -137 168 -358q0 -86 -36 -201.5t-139 -222.5q-219 -217 -576 -217q-62 0 -125 8q-178 18 -326.5 89t-257.5 216q-91 127 -135 273.5t-73 298.5q-32 161 -108 466q-14 52 -18 122q-2 10 -2 19q0 15 5 29q6 32 25.5 57t59.5 35q13 2 25 2q41 0 71 -26t30 -66l-1 -17 q60 -55 148 -55q53 0 101 25q78 46 113 130q28 68 28 139q0 19 -2 37q-12 105 -73.5 191t-145.5 144q-102 73 -181 73q-49 0 -89 -40q-23 -23 -23 -51q0 -13 4 -25q8 -20 8 -37q0 -22 -19 -49t-61 -32h-7q-40 0 -67 40q-31 56 -31 114z" />
<glyph unicode="&#x100b;" horiz-adv-x="1213" d="M109 512q0 185 111 352t310 229q60 16 123 16q100 0 193.5 -38.5t156 -109.5t72.5 -171v-7q0 -42 -34.5 -69t-73.5 -27q-25 0 -46 13.5t-31 42.5q-24 75 -84.5 122.5t-146.5 47.5h-9q-103 0 -182.5 -63.5t-120.5 -152.5q-36 -76 -36 -173q0 -16 4 -83t75 -139t189 -72 q41 0 76 12.5t69 29.5q36 17 73.5 31t82.5 14q67 0 111 -45.5t44 -103.5q0 -40 -17.5 -78.5t-44.5 -71.5q-63 -74 -163 -111t-198 -37q-45 0 -89 6.5t-88 14.5q-40 9 -80 14q7 -22 21 -40q27 -33 69.5 -49.5t91.5 -16.5q71 0 140 25.5t131 55.5q17 8 35 8q33 0 59 -22 t32 -53q24 -148 38 -298q7 -76 16 -121q4 -40 7 -82q5 -73 16 -146.5t38 -140.5q22 -51 66 -81t95 -30q53 0 105 37q36 29 51.5 64.5t15.5 74.5q0 48 -17 96.5t-41 89.5q-6 12 -6 23q0 24 21.5 42t46.5 18q20 0 37 -13q56 -47 84 -109.5t28 -129.5q0 -90 -52 -173 q-51 -76 -135.5 -116t-177.5 -40q-107 0 -181 45.5t-116.5 126.5t-55.5 190q-36 249 -58 544q-127 -39 -225 -39q-89 0 -174 38q-76 38 -125.5 104t-49.5 143q0 41 18 83q10 22 29.5 33t41.5 11q35 0 63 -28q32 -37 85.5 -52.5t116.5 -15.5q91 0 181 24.5t144 59.5 q14 9 26 23.5t12 26.5q0 7 -8.5 14.5t-28.5 7.5q-11 0 -25 -7t-27 -15q-9 -6 -15 -9q-60 -30 -109.5 -44t-109.5 -14q-137 0 -243 68.5t-166.5 179t-60.5 236.5z" />
<glyph unicode="&#x100c;" horiz-adv-x="1263" d="M108 545q0 -109 50.5 -226.5t164.5 -209t260 -112.5q32 -3 62 -3q128 0 232 57l83 -495q18 -101 18 -180q0 -46 -7 -92q-10 -83 -57.5 -146.5t-149.5 -85.5q-42 -8 -83 -8q-26 0 -50 3q-168 26 -273 142q-92 100 -92 220q0 96 66 167q65 62 145 62q90 0 142 -68 q15 -21 34 -23q54 1 69 52v7q0 13 -7 26q-77 115 -215 115q-97 0 -196.5 -60.5t-139.5 -173.5q-14 -54 -14 -101q0 -111 69.5 -221t195 -190.5t256.5 -97.5q32 -3 62 -3q159 0 283.5 97.5t154.5 281.5q7 50 7 100q0 40 -8 105.5t-26 155.5q-8 40 -104 598q-19 72 -94 72 q-51 0 -88 -49q-64 -97 -191 -97q-18 0 -36 2q-108 15 -185.5 83t-114.5 164q-27 69 -27 141q0 29 4 57q25 141 138 232q99 79 222 79q18 0 37 -2q93 -13 156.5 -72t78.5 -145q13 -65 78 -65q28 0 57 17.5t37 57.5l1 11q-1 146 -110 246t-268 122q-32 3 -63 3 q-118 0 -237.5 -54.5t-209.5 -165.5t-111 -248q-6 -42 -6 -82z" />
<glyph unicode="&#x100d;" horiz-adv-x="1194" d="M77 818q0 24 16 51q96 141 255 194q87 29 176 29q73 0 147 -19q165 -47 266.5 -175.5t117.5 -297.5q2 -25 2 -48q0 -147 -75 -283t-235 -210q-110 -47 -229 -47q-112 0 -214 39q31 -61 70 -104q107 -118 252 -118q20 0 79.5 6.5t142.5 67.5q23 14 47 14q17 0 46 -12 t34 -59q18 -389 89 -865q56 -30 105 -30q33 0 64 12q90 35 131 129q18 44 18 91q0 52 -23 109q-5 13 -5 25q0 18 16.5 37.5t47.5 23.5h6q27 0 44 -27q53 -99 53 -204q0 -8 -2.5 -68t-76.5 -158q-110 -135 -303 -135q-48 0 -97 11q-71 14 -112.5 48t-52.5 105 q-58 403 -63 753q-99 -35 -195 -35q-125 0 -239 60q-131 75 -203 208q-29 58 -42.5 116.5t-20.5 119.5l-8 54l-1 15q0 33 24 59t64 31l13 1q33 0 61 -22q114 -87 243 -87q9 0 82 3t169 95q90 87 90 235v22q-18 165 -129 244q-97 68 -215 68q-18 0 -98.5 -7.5t-190.5 -118.5 q-30 -30 -59 -30q-9 0 -32.5 6.5t-41.5 45.5q-8 15 -8 32z" />
<glyph unicode="&#x100e;" horiz-adv-x="1279" d="M-62 838q1 76 44 135t114 91q63 27 124 27q81 0 160 -44q43 -27 43 -77q0 -39 -28 -110q-29 -76 -50 -187l2 -15q0 -11 -8 -21q-5 -41 -5 -79v-22q15 -222 171 -312q57 -34 123 -34q41 0 84 13q110 37 176 124t67 201l-1 13q-7 118 -68 216t-154 178q-32 32 -33 68 q0 26 16 54q20 26 56 39q12 4 26 4q20 0 39 -10q128 -86 210 -215t102 -280l2 -30l1 -33q0 -240 -191 -407q-148 -124 -334 -124q-77 0 -152 25q-128 50 -207.5 158.5t-106.5 238.5q-13 66 -13 136l1 42q-86 22 -143 80q-61 62 -66 151zM46 833q9 -91 110 -133l6 26 q26 132 74 233h-32q-42 -3 -69 -15q-35 -14 -62 -42.5t-27 -68.5z" />
<glyph unicode="&#x100f;" horiz-adv-x="2456" d="M111 537q0 93 25.5 190.5t74.5 179.5t119 133t159 51q83 0 146.5 -39.5t116 -105t101.5 -145.5q8 57 26 113q27 75 87 119t133 44q71 0 131 -41.5t102 -112.5q69 82 164.5 127t203.5 45q114 0 208.5 -39t168 -105.5t125.5 -150t81 -173.5q38 -110 38 -228 q0 -67 -16.5 -131.5t-55.5 -119.5q-44 -60 -119.5 -101t-153.5 -41q-50 0 -94 21.5t-75 69.5q-16 27 -16 53q0 43 35 74.5t81 31.5q10 0 19 -2t26.5 -9.5t21.5 -7.5q0 1 -3 3l11 -3h11q3 -2 8 -2t17.5 4t31.5 21t33 50t16 83v16q0 93 -33 187.5t-98 166.5 q-56 61 -132.5 99.5t-158.5 38.5q-87 0 -156.5 -43t-119.5 -119q17 -73 31 -168t14 -170q0 -68 -14.5 -132t-53 -113t-107.5 -73q-36 -11 -71 -11q-75 0 -140 41.5t-103 108.5q-21 35 -54 130q-82 196 -198 373q-23 36 -54.5 76t-69 70t-79.5 30q-39 0 -81 -37 q-59 -57 -86 -142t-27 -171q0 -156 75 -257t210 -158q14 -3 23.5 -7t15.5 -10t9 -14.5t3 -19.5q0 -36 -35 -72t-77 -36q-9 0 -17 2q-188 49 -296 206.5t-108 351.5zM1038 679q0 -99 22.5 -196.5t60.5 -188.5l-3 -1q3 -11 3 -22q32 -46 82 -46q33 0 51 23t25.5 55t9.5 60 l2 41q0 50 -8 99.5t-17 99.5l-3 14q-15 92 -47 169t-89 104l-5 3v-1l-13 2q-28 0 -39 -18t-17 -51q-15 -72 -15 -146z" />
<glyph unicode="&#x1010;" horiz-adv-x="2312" d="M161 670q0 109 50.5 215t168.5 168q95 45 197 45q29 0 110 -10t190 -87q148 -106 206 -281l10 28q38 93 99.5 166t155.5 113q88 34 180 34q28 0 102 -8.5t177 -73.5q100 -64 168.5 -156.5t110.5 -200.5q49 -123 73 -267q14 -90 14 -175q0 -52 -5 -102q-8 -50 -48 -75 q-32 -20 -64 -20q-13 0 -42 7t-44 63q-18 94 -21 189q-4 90 -20 180q-27 165 -120 302q-61 81 -153 125q-70 32 -140 32q-22 0 -79.5 -8t-124.5 -100q-46 -67 -72.5 -145.5t-46.5 -159.5q-22 -89 -51.5 -171t-84 -149.5t-149.5 -108.5q-91 -37 -176 -37q-51 0 -141.5 24.5 t-193 122.5t-164 227t-71.5 261zM352 661q0 -58 15 -114q32 -120 112.5 -221.5t200.5 -133.5q38 -8 70 -8q71 0 119 38q20 15 38 35l11 38q35 95 35 181q0 118 -49 225q-55 111 -158 175q-74 44 -159 44q-32 0 -66 -6q-82 -19 -122.5 -78.5t-45.5 -137.5z" />
<glyph unicode="&#x1011;" horiz-adv-x="2284" d="M88 604q9 145 92.5 260.5t215.5 177.5q123 57 251 57q21 0 105 -6t213 -101q86 -67 130 -140q30 44 84 95q155 146 377 146q100 0 225.5 -42t230.5 -164q135 -161 135 -361q0 -103 -42 -202q-63 -145 -195 -232t-293 -96h-23q-145 0 -278 72t-233 195l7 -12 q-55 -102 -210 -181q-122 -60 -251 -60q-12 0 -90 3t-202 91q-117 88 -186 223q-63 125 -63 277zM292 575q0 -56 19 -116q47 -138 161 -210q72 -46 156 -46q44 0 92 12q135 41 211 159q28 45 40 94.5t19 100.5q2 15 5 29q-43 176 -185 266q-73 44 -163 44q-20 0 -42 -2 q-110 -15 -188.5 -78.5t-110.5 -159.5q-14 -45 -14 -93zM1257 459q0 -36 18.5 -70.5t44.5 -65.5q107 -119 263 -127q102 0 187 50t132 137q38 69 38 152l-3 43q-25 146 -130 231t-246 89q-191 -4 -272 -127q-3 -4 -3 -7q0 -12 35 -14q109 -4 110 -79q0 -16 -12.5 -42.5 t-63.5 -35.5q-40 -7 -67 -43.5t-31 -79.5v-11z" />
<glyph unicode="&#x1012;" horiz-adv-x="1240" d="M174 338q0 75 40 132q56 71 145 71q45 0 84 -23q28 -23 28 -52v-2q-1 -9 -8.5 -37t-55.5 -28l-14 1q-43 0 -43 -66q0 -19 5 -36q16 -41 50 -70t72 -48q87 -47 188 -47q70 0 134 30q49 24 90 70.5t57 103.5q5 19 5 38q0 39 -20 78q-47 78 -131 93q-45 8 -90 9 q-41 0 -81 -7l-17 -1q-43 3 -63.5 30.5t-20.5 55.5v5q0 7 5.5 30.5t57.5 38.5q52 11 101.5 46.5t55.5 96.5q-1 57 -47 89.5t-93 39.5h-23q-103 0 -179 -78q-50 -53 -60 -125v-12q0 -30 13.5 -58.5t45.5 -33.5q39 -9 39 -42q0 -41 -63 -41h-10q-28 1 -60.5 17t-61.5 56 q-29 48 -29 112q0 43 15 87q37 109 126 175.5t200 80.5l36 1q94 0 176 -46q85 -48 121 -135q17 -41 17 -86q0 -78 -36 -132q122 -55 199 -171q48 -81 48 -167v-13q-2 -26 -18 -100t-104 -167q-85 -82 -197 -113q-73 -22 -148 -22q-41 0 -78 6q-114 17 -222 79t-158 172 q-23 56 -23 115z" />
<glyph unicode="&#x1013;" horiz-adv-x="1294" d="M135 624q0 76 23 170t89 173q127 146 329 146q72 0 171.5 -28.5t193.5 -119.5q145 -143 182 -339q10 -52 10 -102q0 -141 -74 -274q-104 -171 -293 -236q-58 -19 -117 -19q-44 0 -117.5 17t-128.5 113q-24 51 -26 99q-102 34 -162 120q-80 116 -80 280zM305 615 q0 -87 34 -166q26 -65 65 -95q31 71 109 123q94 58 207 58q9 0 75.5 -2.5t129.5 -43.5q19 52 19 91q0 66 -36 139q-60 124 -174 189q-74 37 -150 37q-37 0 -112.5 -17.5t-132.5 -132.5q-34 -80 -34 -180zM565 247q0 -10 7 -37.5t61 -35.5l16 -1q67 0 129 39t107 107l10 15 q-19 2 -51 9q-67 14 -132 14q-63 0 -114 -43q-33 -32 -33 -67z" />
<glyph unicode="&#x1014;" horiz-adv-x="1387" d="M156 307v5q0 96 67 169.5t174 105.5q62 18 124 18q52 0 134 -21t169 -92q115 -97 151 -237q42 25 44 74q-4 32 -44 67t-79 62l-25 19q-274 217 -608 291q-59 15 -59 67q0 17 9 33q63 115 183 178q115 60 248 60q5 0 76 -1.5t191 -83.5q78 -55 113 -137q15 -33 15 -64 q0 -50 -34 -99q-35 -44 -89 -67q49 -31 100 -67q71 -50 124.5 -110t66.5 -127q2 -18 2 -35q0 -66 -47 -125t-142 -101l-17 -8q7 -109 12 -217q6 -148 18 -296l3 -26q28 -255 36 -511q-2 -51 -49 -69q-22 -9 -46 -9t-59 13.5t-39 64.5q-8 236 -33 471q-23 226 -32 451l-1 54 h-51q3 0 -149 0q-5 0 -59 0.5t-125 21.5q-107 31 -185.5 105t-87.5 173zM349 307q0 -34 40.5 -68.5t124.5 -52.5q73 -17 124 -17l16 1q45 3 129 39l10 1q-16 80 -91 154q-44 40 -107 61q-42 14 -83 14q-22 0 -63 -7t-80 -63q-20 -33 -20 -62zM414 880q217 -52 405 -166 q17 1 32 12q42 28 42 85q0 33 -21 63q-32 42 -84.5 67t-107.5 32q-22 3 -43 3q-130 0 -223 -96z" />
<glyph unicode="&#x1015;" horiz-adv-x="1508" d="M118 636q0 83 22 165q19 73 58 142t73 105l17 20q23 6 35 6q39 0 63 -32q17 -22 17 -49q0 -30 -39 -103q-19 -36 -36 -75.5t-24 -87.5q-4 -33 -4 -65q0 -84 28 -165q54 -133 167.5 -206t244.5 -75h6q128 0 235 82q77 61 114 157q23 63 23 124q0 34 -7 68 q-26 102 -96.5 156.5t-157.5 64.5q-69 10 -91 55q-11 23 -11 44q0 23 17 58t86 46l31 1q70 0 143.5 -33t137.5 -92q153 -147 153 -370q0 -125 -60.5 -250.5t-187.5 -212.5q-149 -99 -328 -99q-135 0 -263 57q-131 60 -225 171t-127 258q-14 68 -14 135z" />
<glyph unicode="&#x1016;" horiz-adv-x="1484" d="M99 941q0 36 8 73q18 51 71 51q32 0 57 -21q35 -28 35 -158l-1 -60q0 -143 45 -288q27 -87 76.5 -166t123.5 -131q99 -64 216 -64q17 0 94 6t128 53l32 39l22 39h-4q-174 0 -309 93q-104 75 -155 184q-36 77 -36 160q0 38 7 77q23 109 101.5 184.5t191.5 90.5q21 2 41 2 q98 0 193 -51t164 -142q114 -158 114 -349q0 -17 -6.5 -132t-153.5 -270q-173 -166 -420 -166q-185 0 -338 108q-94 71 -155.5 168.5t-92.5 209.5q-49 196 -49 460zM688 752q1 -74 44 -130.5t105 -89.5q83 -41 177 -44l54 -1l45 1q7 33 7 77q0 119 -64 223q-38 61 -102 103 q-54 34 -113 34l-21 -1q-60 -9 -95 -58.5t-37 -113.5z" />
<glyph unicode="&#x1017;" horiz-adv-x="1382" d="M124 623q0 159 68 307q16 38 38.5 62.5t46.5 36.5l25 23q0 20 38 44q17 10 34 10q27 0 52 -25q15 -18 30 -38q33 -45 72.5 -83.5t87.5 -48.5l16 -1q15 0 32.5 3.5t31.5 20.5q16 20 16 42q0 12 -7 22q-21 31 -21 65q0 9 8.5 34t49.5 45q20 8 41 8q27 0 56 -15 q144 -80 250 -210.5t137 -293.5q9 -54 9 -107l-1 -41q-5 -71 -38 -178t-155 -203q-148 -108 -333 -108q-109 0 -211 42q-134 60 -225.5 171t-127.5 251q-20 83 -20 165zM301 637q0 -92 31 -180q38 -98 111 -170.5t173 -100.5q41 -11 82 -11q52 0 121.5 18.5t132.5 87.5 q82 100 82 241q0 185 -158 343q-65 -138 -234 -138q-122 0 -214 74q-55 43 -76 80q-51 -132 -51 -244z" />
<glyph unicode="&#x1018;" horiz-adv-x="2289" d="M109 772q0 16 8 62.5t51 108.5q122 173 342 173q104 0 221.5 -49t224.5 -154q56 -53 61.5 -61t12.5 -8q9 0 19 16q45 82 106 134q135 111 315 111q81 0 161 -25q124 -41 221.5 -124.5t161.5 -194.5q64 -113 90 -244q11 -59 11 -117q0 -234 -162 -357q-58 -43 -131 -56 q-16 -3 -32 -3q-60 0 -110 42q-27 26 -27 61q0 6 3 32t43 49q33 13 64 17q62 9 94 49q48 61 48 165v15q-6 175 -110.5 315.5t-273.5 179.5q-30 5 -58 5q-121 0 -212 -93q-78 -88 -91 -232l-4 -30q9 -46 9 -96q0 -28 -3 -57q-19 -147 -112.5 -257.5t-243.5 -144.5 q-49 -10 -97 -10q-100 0 -195 43q-69 28 -128 85q-50 48 -50 113q0 13 2 29q21 59 87 63q43 -4 72.5 -22.5t55.5 -40.5q72 -66 160 -66q40 0 80 14q83 31 127 105q40 67 40 163q-5 97 -55 179.5t-122 144.5q-69 62 -158 100q-60 24 -121 24q-115 0 -185 -88q-31 -47 -37 -97 q-4 -27 -13 -55q-12 -33 -48 -47q-12 -4 -24 -4q-29 0 -50 23q-38 52 -38 112z" />
<glyph unicode="&#x1019;" horiz-adv-x="1444" d="M65 715q0 84 35.5 183t108.5 146q25 13 51 13q40 0 68.5 -26.5t28.5 -67.5q0 -22 -12 -42q-73 -110 -73 -190l1 -46q0 -11 20 -69q20 -39 49.5 -69.5t69.5 -50.5q65 -30 122 -33q17 0 84 6q15 4 27 4q20 18 48 34q64 35 133.5 49.5t140.5 22.5q63 7 117 17q-6 50 -28 96 q-31 66 -83 115t-117 78q-49 20 -100 27q-62 9 -120 36q-33 24 -33 57q0 30 27.5 50t64.5 29.5t69 9.5q124 0 255 -82t205 -208q47 -85 47 -110q35 8 59 8q27 0 47.5 -17t20.5 -40q0 -13 -9 -29q-42 -64 -98 -99q-7 -141 -88 -273q-41 -67 -104 -123.5t-141 -91t-160 -34.5 q-69 0 -137 30q-71 35 -102 89t-31 115q0 19 -1 19l-1 16q-70 6 -107 14q-123 24 -214 111t-124 204q-16 61 -16 122zM694 244q0 -39 22 -56t60 -17q58 0 111.5 32.5t95 82t66.5 101.5q17 33 22 58l-58 -8q-80 -10 -152.5 -29t-119.5 -61t-47 -103z" />
<glyph unicode="&#x101a;" horiz-adv-x="2232" d="M94 550q0 96 42 204.5t161 186.5q23 14 45 14t51 -19t40 -63q4 -27 4 -49q0 -70 -47 -88q-9 -3 -20 -3q-17 0 -31 11q-61 -83 -61 -194l1 -32q8 -84 63.5 -176.5t194.5 -137.5q48 -11 92 -11q77 0 141 36q98 57 137 169q-53 106 -53 228q0 163 112 163q9 0 32.5 -3.5 t46.5 -42.5q64 -128 64 -248q0 -38 -7 -82l5 -7q78 -111 213 -167q109 -45 220 -45q25 0 107 7t172 105q84 98 84 232q0 114 -61 211q-75 110 -201 135q-22 4 -42 4q-26 0 -60 -7.5t-77 -24.5q-43 -18 -64 -18q-40 0 -68 34q-21 26 -21 53q0 14 6 29q75 129 251 129 q70 0 165.5 -28.5t180.5 -98.5q171 -148 191 -378q2 -24 2 -48q0 -58 -12 -115q-32 -149 -133.5 -252t-252.5 -140q-77 -18 -156 -18q-80 0 -200 26.5t-254 131.5q-37 28 -66 58l-15 -22q-81 -111 -214 -160q-68 -25 -147 -25q-74 0 -156 24q-152 46 -258.5 155.5 t-137.5 262.5q-9 46 -9 94z" />
<glyph unicode="&#x101b;" horiz-adv-x="1291" d="M102 421q0 124 42 241t118.5 210t179.5 148t226 55q101 0 188.5 -46.5t139.5 -145.5q36 -73 53.5 -153.5t28.5 -161.5l9 -59q116 -718 203 -1273q62 24 97 24q39 0 69.5 -27.5t30.5 -60.5q0 -30 -32.5 -57t-77.5 -50.5t-89 -42.5l-27 -12q-25 -10 -53 -10q-33 0 -62 16.5 t-35 52.5q-205 1362 -213 1449q-7 73 -20.5 145.5t-44.5 135.5q-26 48 -65 68.5t-83 20.5q-100 0 -183 -68t-132 -176q-21 -47 -33 -95q30 5 62 5q115 0 209 -72q105 -89 105 -226q0 -75 -26 -127q-10 -27 -38 -49q-43 -35 -103 -54t-109 -19q-76 0 -147.5 37.5t-112 98 t-58 133t-17.5 145.5zM321 415q1 -54 15.5 -100.5t42.5 -73.5t71 -27q41 0 86 32q15 9 29 14v1q0 50 -28 91q-59 69 -155 69q-31 0 -61 -6z" />
<glyph unicode="&#x101c;" horiz-adv-x="2197" d="M158 533q0 134 75 253t209 196.5t286 84.5q59 -1 90 -49q77 -142 127 -295q29 -83 62.5 -163t80.5 -155q76 -120 195 -184q66 -36 140 -36q54 0 111 19q139 55 195 177q31 70 31 146q0 60 -19 124q-14 45 -57.5 107.5t-99.5 109.5t-106 48h-1q-48 0 -84 -72 q-26 -49 -82 -49q-38 0 -70 24q-35 25 -35 68v2q9 96 76 152.5t163 68.5q21 2 41 2q73 0 148 -33t140 -97q119 -117 170 -277q27 -88 27 -175q0 -75 -20 -150q-47 -155 -173 -257t-289 -124q-33 -4 -65 -4q-132 0 -258 68.5t-221 200.5q-59 81 -98.5 171.5t-71.5 184.5 q-62 170 -103 246q-58 -11 -121 -47q-86 -49 -141 -132q-48 -74 -48 -168v-14q9 -106 73.5 -180.5t157.5 -117t187 -49.5q41 -5 62 -36q12 -21 12 -42q0 -9 -5 -29.5t-49 -31.5q-44 -6 -86 -6q-108 0 -229 49t-215.5 165t-110.5 268z" />
<glyph unicode="&#x101d;" horiz-adv-x="1357" d="M113 560q0 161 94 298q117 155 304 212q83 26 165 26q104 0 206 -40q185 -80 278 -252q70 -128 70 -268q0 -49 -9 -100q-24 -120 -103.5 -221.5t-192.5 -159.5q-104 -55 -220 -55l-25 1l-12 3h-12q-77 0 -154 21q-143 38 -245 148q-144 167 -144 387zM307 550 q0 -42 18.5 -126t115.5 -164q95 -69 212 -69q10 0 80.5 3.5t172.5 82.5q27 19 54 39l14 -1q61 80 61 213v3q-5 129 -83 231t-200 135q-41 9 -81 9q-79 0 -175 -44t-154 -156q-35 -75 -35 -156z" />
<glyph unicode="&#x101e;" horiz-adv-x="2082" d="M90 810q0 66 33 125q95 158 290 158q111 0 230 -58.5t209 -169.5t130 -251q21 -77 21 -154l-1 -40q99 -165 245 -230q62 -26 131 -26q22 0 79 6t122 69q77 81 77 205q0 168 -127 337q-44 60 -86 107q-37 37 -43 71q-2 14 -9.5 29t-7.5 31t10.5 40t42.5 41q14 6 28 6 q24 0 47 -16l20 -16q30 -12 53 -31q47 -46 129 -162q150 -214 150 -422q0 -11 -2.5 -71t-48.5 -158q-47 -94 -134.5 -153.5t-193.5 -76.5q-39 -5 -78 -5q-180 0 -329 112q-81 63 -124 126q-27 -60 -90 -121q-99 -95 -242 -105h-14q-75 0 -158 33.5t-137 100.5 q-43 51 -43 117q0 18 3 36q12 42 58 55q13 4 25 4q33 0 58 -26q16 -20 29 -39q26 -49 76 -81q43 -22 88 -22q21 0 43 6q74 22 117 90.5t48 145.5v20q0 189 -125 334q-60 66 -148 115q-71 38 -146 38q-88 0 -139 -72q-33 -47 -33 -103q0 -17 3 -36q0 -41 -50 -41 q-19 0 -35 12q-51 49 -51 116z" />
<glyph unicode="&#x101f;" horiz-adv-x="2439" d="M106 973q1 39 34 64q30 22 66 22q4 0 28 -2t44 -43q30 -73 55 -147q58 -167 160 -372q41 -87 102 -170t156 -103q11 -2 22 -2q45 0 91 28t86.5 79t67.5 100q57 100 57 205q0 76 -38 146q-63 109 -175 109q-43 0 -88 -17q-21 -7 -39 -7q-36 0 -65 29.5t-29 79.5v2 q0 48 47 77q83 43 171 43q18 0 79 -6.5t149 -65.5q77 -52 117 -115q52 70 145 126q132 80 285 80q121 0 235 -47q271 -120 363 -402q31 -100 31 -208q0 -30 -7 -116.5t-83 -199.5q-89 -128 -244 -144l-19 -1q-71 0 -137 37.5t-70 122.5q3 44 35 68q26 18 59 18q35 0 79 -21 q25 -14 45 -14q13 0 30 8q36 20 56.5 61.5t29.5 83.5q13 60 13 116q0 123 -75.5 254.5t-260.5 176.5q-41 8 -79 8q-122 0 -225 -80q-99 -84 -126 -194q0 -160 -78 -304q-42 -77 -106.5 -149.5t-146.5 -116.5q-81 -45 -174 -45h-9q-158 11 -262.5 114.5t-166.5 236.5 q-51 106 -140 318q-50 111 -84 227q-11 23 -11 52z" />
<glyph unicode="&#x1020;" horiz-adv-x="1333" d="M155 524q0 52 9 105q35 189 166.5 325.5t329.5 149.5h14q102 0 201 -43.5t165.5 -129t68.5 -202.5q-6 -60 -67 -60q-35 0 -56 35q-47 96 -136 153q-78 50 -172 50l-27 -1q-120 -15 -197.5 -107.5t-97.5 -207.5q-5 -31 -5 -62q0 -91 46.5 -192.5t158.5 -161.5 q65 -31 132 -31q37 0 108.5 18.5t132.5 113.5q22 34 66 44q13 3 24 3q29 0 53 -18q106 -95 106 -229q0 -61 -30.5 -135.5t-116.5 -136.5q-116 -78 -252 -78q-109 0 -231 47q-48 16 -97 26q35 -265 75 -530q18 -128 81 -218.5t190 -131.5q45 -13 86 -13q81 0 165.5 60 t114.5 190q7 35 7 68q0 94 -56 176q-31 40 -80 62q-31 13 -59 13q-18 0 -49 -9t-47 -73q-8 -32 -45 -32q-19 0 -34 10q-19 11 -19 35v7q16 77 71 123.5t135 47.5q83 -2 148 -52t103 -121q45 -93 45 -189q0 -63 -34 -176.5t-175 -205.5q-123 -73 -263 -73q-29 0 -132 11 t-219 144q-68 88 -93.5 192.5t-34.5 212.5q-16 149 -27 298q-9 128 -22 256v5q0 48 35 76q19 15 40 15t45 -15q24 -17 46 -34q32 -25 65.5 -45.5t77.5 -32.5q69 -20 139 -20q54 0 109 12q65 18 118 67t61 110l1 13q0 14 -5 29q-84 -75 -198 -103q-64 -16 -126 -16 q-114 0 -224 53q-172 92 -253 268q-59 127 -59 261z" />
<glyph unicode="&#x1021;" horiz-adv-x="2134" d="M135 375q0 52 21.5 105.5t85.5 87.5q21 8 40 8q32 0 56.5 -21.5t24.5 -46.5q0 -18 -11 -39q-41 -61 -41 -107q0 -74 58 -129q89 -78 254 -78q43 0 84 7q47 7 98.5 32t84.5 67q25 33 25 76q0 12 -2 25q-21 88 -97 122.5t-162 48.5l-57 14q-59 21 -59 74q0 1 0.5 28 t57.5 49q48 16 74 64q23 41 23 88q0 7 -3 37t-45 63q-37 26 -80 26h-24.5t-63.5 -22q-90 -54 -105 -159q-9 -35 -43 -35q-3 0 -23.5 2t-34.5 33q-10 34 -10 66q0 48 31 107.5t105 103.5q82 48 173 48q89 0 165 -49q116 -85 116 -220q0 -101 -58 -183q25 -8 27 -8l20 -13 q0 51 15 105q34 118 113 203q146 154 396 154q212 -12 359 -146.5t211 -327.5q39 -113 39 -228q0 -94 -33 -179q-81 -188 -284 -220q-23 -2 -44 -2q-102 0 -188.5 57.5t-133.5 161.5q-39 86 -39 178q0 22 2 44q8 82 40 155t97 128q95 77 195 90q-108 97 -245 97 q-146 0 -248 -112q-37 -41 -56 -90t-32 -101l-16 -57q45 -44 74 -107q21 -55 21 -107q0 -51 -31 -125.5t-123 -141.5q-96 -64 -212 -76q-45 -5 -89 -5q-70 0 -136 12q-104 17 -191.5 70t-134.5 149q-31 70 -31 149zM1409 404q0 -134 104 -214q33 -23 73 -23q8 0 37.5 3 t68.5 30q70 50 82 137q3 28 3 56q0 61 -20.5 139t-56.5 143l-7 13q-50 -4 -105 -19q-62 -16 -112 -66q-67 -76 -67 -199z" />
<glyph unicode="&#x1022;" horiz-adv-x="2441" d="M-10 427q0 49 37 86.5t87 37.5q30 0 52 -12t22 -32q0 -12 -11 -24.5t-32 -12.5h-4q-37 -27 -37 -56q0 -19 20 -39.5t43 -37.5q78 -60 172.5 -90.5t191.5 -37.5q-41 -67 -87 -146q-84 118 -140 263.5t-56 287.5q0 82 24.5 158t79.5 138t147 104q85 35 173 35t173 -30.5 t156 -81.5q116 -89 188.5 -210.5t126.5 -251.5q9 -22 9 -42q0 -47 -39 -81.5t-83 -34.5q-40 0 -65.5 29t-40.5 72.5t-20.5 90t-5.5 82.5q0 136 70.5 258.5t205.5 194.5q140 68 285 68q121 0 236.5 -44.5t205.5 -129.5q97 -92 153 -217t56 -256q0 -130 -65 -251 q-61 -104 -167.5 -161.5t-220.5 -57.5q-86 0 -167.5 36t-141.5 111q-21 29 -21 55q0 40 39 69t86 29q26 0 52 -11.5t46 -35.5q17 -22 46 -31.5t62 -9.5q64 0 107 25.5t68.5 65.5t37 85.5t11.5 85.5q0 110 -55 209.5t-150.5 162.5t-216.5 63q-95 0 -180 -45 q-74 -43 -117 -117.5t-43 -157.5q0 -55 23 -111l-206 -84q-40 101 -87 193.5t-118 165.5q-46 46 -107 76t-126 30q-40 0 -78 -15q-74 -33 -107 -106.5t-33 -149.5q0 -78 24.5 -148t58.5 -136.5t65 -133.5q8 -21 8 -40q0 -34 -23.5 -64t-64.5 -30q-15 0 -32 5 q-123 38 -247 108t-207 170q-20 25 -33 54t-13 59z" />
<glyph unicode="&#x1023;" horiz-adv-x="2070" d="M126 594q0 143 60 271q74 146 214 197q65 24 134 24q77 0 158 -30q143 -61 237 -194q60 99 142 157q119 76 256 76q23 0 116.5 -8.5t223.5 -107.5q126 -101 191 -252q53 -126 53 -258q0 -28 -2 -56q-11 -108 -68 -195t-147 -130q-59 -28 -129 -28q-35 0 -73 8 q-67 18 -67 81q0 37 25.5 68.5t69.5 31.5q11 0 26 -2.5t30 -2.5q56 0 94 44.5t51 116.5q8 44 8 82q0 24 -3 45q-13 95 -60 180t-126 141q-94 63 -206 63q-98 0 -177 -59q-98 -81 -98 -205q0 -48 17 -96q5 -17 5 -32q0 -33 -24 -53q-28 -24 -64 -24q-10 0 -39.5 4.5 t-53.5 57.5q-30 108 -86 209t-159 158q-61 30 -119 30q-31 0 -89.5 -18t-104.5 -115q-37 -84 -37 -179q0 -15 4 -79t54 -158q56 -102 148.5 -150t205.5 -55q40 -5 54 -44q3 -9 3 -18q0 -24 -28 -41q-71 -32 -143 -32q-29 0 -94.5 11.5t-151.5 74.5t-141 153q-90 155 -90 338 zM428 -447q0 31 11.5 109.5t108.5 168.5q120 100 276 100q100 0 191 -51q44 -26 86 -72q85 101 207 142q66 20 132 20q71 0 173 -34.5t172 -163.5q37 -73 37 -148q0 -48 -18 -94q-16 -40 -41.5 -73.5t-55.5 -64.5q-33 -35 -62 -74.5t-29 -80.5q0 -13 8 -46.5t71 -63.5 q31 -14 60 -14q41 0 79 28q25 20 37 45t21 52l8 22q13 28 42 35l11 1q20 0 33 -23q15 -38 15 -73q0 -44 -35.5 -99.5t-121.5 -91.5q-59 -24 -115 -24q-26 0 -52 5q-132 37 -181 153q-23 51 -23 103q0 65 35 131q24 40 59 76q28 31 51.5 64t33.5 73q3 16 3 31q0 38 -22 79.5 t-71 68.5q-61 33 -120 33q-18 0 -64.5 -8.5t-104 -61t-85.5 -129.5l1 -19q0 -53 -20 -105q-29 -62 -96 -62q-22 0 -49.5 15.5t-29.5 68.5q1 53 12 104q-14 73 -77 109q-54 30 -117 30q-11 0 -55 -4.5t-97 -58.5q-50 -57 -50 -129q0 -73 44 -132q40 -48 89.5 -75.5 t102.5 -47.5l58 -25q31 -18 31 -51q0 -5 -3.5 -29.5t-43.5 -37.5q-33 -6 -66 -6q-89 0 -190.5 56t-159.5 167q-44 88 -44 182z" />
<glyph unicode="&#x1024;" horiz-adv-x="2531" d="M127 583q0 153 75 266.5t195 173.5q109 54 234 54q227 0 396 -176l5 -6q77 125 196 180q96 44 204 44q123 0 238 -54q181 -89 261.5 -252.5t100.5 -354.5q44 -383 65 -768q13 -212 19 -266q8 -72 8 -144q0 -57 -10.5 -111t-39.5 -102q-50 -76 -131 -115.5t-168 -63.5 q-255 -75 -523 -75q-45 0 -91 2q-164 6 -336.5 46t-317.5 132.5t-227 256.5q-59 125 -59 255q0 98 37.5 188t116.5 154q173 134 440 134q105 0 209 -20q87 -17 169.5 -57.5t149 -102.5t106 -141t39.5 -173l-1 -33q-4 -37 -25.5 -54t-47.5 -17h-3q-28 1 -51 21t-28 57 q-18 130 -95.5 207t-187 112.5t-224.5 39.5q-27 2 -54 2q-72 0 -161 -14.5t-165.5 -71.5t-93.5 -171q-3 -22 -3 -44q0 -91 41 -171t108 -143t148 -104q101 -50 212.5 -73.5t224.5 -28.5q46 -2 90 -2q237 0 435 50l29 7q62 13 128 34t113 59q29 26 40 64.5t11 82.5 q0 57 -9 113q-7 50 -13 174q-16 231 -22 431q-3 248 -35 493q-19 146 -93 264.5t-222 165.5q-49 14 -96 14q-152 0 -254 -99q-39 -39 -63 -82q93 -172 93 -370q0 -93 -21 -182q-9 -36 -34.5 -52.5t-56.5 -16.5h-4q-68 7 -106 69.5t-53 144.5t-15 139q0 83 17 161 q-38 74 -95 128q-86 80 -203 80q-70 0 -140.5 -32.5t-121 -101t-50.5 -165.5q0 -109 73 -215t193 -130q41 -7 61 -32.5t20 -54.5t-20.5 -53t-60.5 -28l-30 -1h-14q-126 9 -221.5 89.5t-150 199.5t-54.5 236zM1192 1602q0 127 64 225t168 153.5t226 55.5q94 0 187.5 -37 t170 -101.5t123 -147.5t46.5 -174q0 -53 -19.5 -106.5t-62.5 -105.5q-22 -24 -47 -24q-28 0 -51.5 23.5t-23.5 54.5q0 16 9 33q32 58 32 113q0 82 -57 149.5t-144 107.5t-176 40q-75 0 -139.5 -34t-101.5 -110q-27 -58 -27 -118q0 -55 25.5 -103.5t79.5 -76.5 q78 -36 167.5 -41.5t174.5 -13.5q375 -49 495 -410q66 -211 82.5 -437.5t31.5 -444.5q46 -513 90 -1024v-10q0 -46 -29.5 -68.5t-66.5 -22.5q-39 0 -73.5 25.5t-40.5 75.5q-60 703 -118 1408q-8 139 -31 291t-96 270.5t-233 155.5q-101 17 -203 26.5t-198 47.5 q-117 52 -175.5 146t-58.5 209z" />
<glyph unicode="&#x1025;" horiz-adv-x="1213" d="M111 736q0 77 41 156.5t135.5 134.5t209.5 59q181 0 334 -102.5t227 -265.5q45 -110 45 -222q0 -58 -24 -173.5t-165 -230.5q-123 -89 -267 -89q-101 0 -189 39q0 -102 14 -492q3 -97 29 -194.5t87 -170t170 -92.5q32 -5 63 -5q63 0 139 25t139.5 94.5t76.5 171.5l1 29 q0 62 -32 124.5t-98 104.5q-58 36 -127 36q-6 0 -47 -1.5t-79 -71.5q-14 -26 -38 -26h-15t-33 19q-13 13 -13 30q0 8 3 17q50 117 153 138q30 6 60 6q73 0 162.5 -41t148.5 -130q57 -95 57 -194q0 -18 -7.5 -86t-78 -169.5t-176.5 -160.5q-128 -73 -247 -73q-49 0 -100 12 q-104 27 -183 96t-125 165q-45 100 -57 207.5t-12 216.5l-15 591q4 57 56 80q18 8 35 8q31 0 58 -26q90 -103 222 -103q82 0 154 52q123 98 123 265q0 70 -25 137q-44 107 -137.5 180.5t-207.5 92.5q-26 4 -51 4q-82 0 -147 -44q-84 -56 -84 -173v-8q0 -43 -33 -61 q-24 -13 -48 -13q-13 0 -38 6.5t-37 49.5q-7 37 -7 71z" />
<glyph unicode="&#x1026;" horiz-adv-x="1213" d="M-132 1785q0 96 39 213.5t147 227.5q190 188 451 188q94 0 223.5 -38.5t255.5 -174.5q159 -181 159 -416q0 -25 -2 -48q126 -53 240 -146q18 -19 18 -37q0 -15 -14 -32q-19 -23 -49 -23q-15 0 -31 7q-99 56 -192 86q-51 -169 -194 -292q-112 -95 -258 -129 q-47 -10 -94 -10q-99 0 -192 49q-77 47 -115 109l-14 -1q-62 0 -119 28q-98 47 -164.5 139t-85.5 194q-9 53 -9 106zM57 1783q0 -40 8 -81q34 -153 154 -203q5 79 72 161q102 109 257 138q101 19 196 19q109 0 217 -23q0 44 -13 97q-40 170 -198 274q-119 72 -241 72 q-39 0 -140.5 -19.5t-216.5 -165.5q-95 -125 -95 -269zM111 736q0 77 41 156.5t135.5 134.5t209.5 59q181 0 334 -102.5t227 -265.5q45 -110 45 -222q0 -58 -24 -173.5t-165 -230.5q-123 -89 -267 -89q-101 0 -189 39q0 -102 14 -492q3 -97 29 -194.5t87 -170t170 -92.5 q32 -5 63 -5q63 0 139 25t139.5 94.5t76.5 171.5l1 29q0 62 -32 124.5t-98 104.5q-58 36 -127 36q-6 0 -47 -1.5t-79 -71.5q-14 -26 -38 -26h-15t-33 19q-13 13 -13 30q0 8 3 17q50 117 153 138q30 6 60 6q73 0 162.5 -41t148.5 -130q57 -95 57 -194q0 -18 -7.5 -86 t-78 -169.5t-176.5 -160.5q-128 -73 -247 -73q-49 0 -100 12q-104 27 -183 96t-125 165q-45 100 -57 207.5t-12 216.5l-15 591q4 57 56 80q18 8 35 8q31 0 58 -26q90 -103 222 -103q82 0 154 52q123 98 123 265q0 70 -25 137q-44 107 -137.5 180.5t-207.5 92.5q-26 4 -51 4 q-82 0 -147 -44q-84 -56 -84 -173v-8q0 -43 -33 -61q-24 -13 -48 -13q-13 0 -38 6.5t-37 49.5q-7 37 -7 71zM390 1467q0 -11 6 -38.5t41 -58.5q48 -42 122 -42q30 0 61 6q89 21 160.5 79.5t116.5 139.5q23 43 38 83q-103 15 -195 15q-26 0 -83 -2.5t-132.5 -29.5t-116.5 -90 q-18 -31 -18 -62z" />
<glyph unicode="&#x1027;" horiz-adv-x="1229" d="M118 566q0 61 20.5 153t102.5 193q38 44 83 79q35 27 107 63q115 50 243 50q73 0 162.5 -22.5t157.5 -74t75 -136.5v-3q0 -93 -63.5 -148.5t-154.5 -73.5q-50 -10 -97 -10q-40 0 -77 7q-185 43 -286 207q-104 -105 -104 -267q0 -63 20 -122q28 39 69 69q133 97 315 97 q63 0 176.5 -23t208.5 -149q52 -81 52 -163q0 -37 -22.5 -116t-150.5 -143q-100 -44 -208 -44q-26 0 -107.5 8t-200.5 69q-24 12 -46 26q-19 -6 -39 -6q-42 0 -71 42q-26 43 -36 89l-3 5q-126 149 -126 344zM424 286q57 -51 140 -84t174 -33q69 0 132 29q69 37 69 100 q0 56 -52 102q-76 61 -190 61q-179 0 -252 -113q-19 -30 -21 -62zM479 918q23 -27 49 -52q78 -77 192 -96q18 -3 37 -3q30 0 70 8.5t72 44.5q18 23 18 41q0 13 -14.5 30.5t-53.5 36.5q-84 42 -173 42q-101 0 -197 -52z" />
<glyph unicode="&#x1029;" horiz-adv-x="2578" d="M62 753q0 237 56 471q97 378 334.5 652.5t561.5 425t669 150.5q188 0 373.5 -49t356.5 -151q21 -18 21 -38q0 -17 -13 -33t-30 -16q-10 0 -21 6q-164 92 -342 138t-360 46q-178 0 -352 -44.5t-336 -133.5q-296 -165 -491 -457q-121 -195 -190.5 -455.5t-69.5 -504.5 q0 -255 72.5 -499t217.5 -446q212 -286 520 -443t640 -157q132 0 263 27.5t251 88.5q92 49 129.5 118.5t37.5 152.5q0 68 -19.5 141t-48.5 144t-60 136q-13 29 -13 55q0 48 34.5 82t75.5 34q23 0 46 -13.5t39 -43.5q42 -78 78.5 -166t59 -180t22.5 -183q0 -107 -41 -206.5 t-137 -178.5q-93 -72 -207 -114t-237.5 -59.5t-239.5 -17.5q-275 0 -524 84t-455.5 237t-356.5 363q-158 225 -236 492t-78 545zM560 810q0 66 33 125q95 158 290 158q111 0 230 -58.5t209 -169.5t130 -251q21 -77 21 -154l-1 -40q99 -165 245 -230q62 -26 131 -26 q22 0 79 6t122 69q77 81 77 205q0 168 -127 337q-44 60 -86 107q-37 37 -43 71q-2 14 -9.5 29t-7.5 31t10.5 40t42.5 41q14 6 28 6q24 0 47 -16l20 -16q30 -12 53 -31q47 -46 129 -162q150 -214 150 -422q0 -11 -2.5 -71t-48.5 -158q-47 -94 -134.5 -153.5t-193.5 -76.5 q-39 -5 -78 -5q-180 0 -329 112q-81 63 -124 126q-27 -60 -90 -121q-99 -95 -242 -105h-14q-75 0 -158 33.5t-137 100.5q-43 51 -43 117q0 18 3 36q12 42 58 55q13 4 25 4q33 0 58 -26q16 -20 29 -39q26 -49 76 -81q43 -22 88 -22q21 0 43 6q74 22 117 90.5t48 145.5v20 q0 189 -125 334q-60 66 -148 115q-71 38 -146 38q-88 0 -139 -72q-33 -47 -33 -103q0 -17 3 -36q0 -41 -50 -41q-19 0 -35 12q-51 49 -51 116z" />
<glyph unicode="&#x102a;" horiz-adv-x="5238" d="M79 718q0 43 5 87q30 195 156.5 328t305.5 194q128 43 260 43q53 0 108 -7q211 -32 399.5 -140t349.5 -258q58 -55 112 -111q9 186 53 370q97 378 334.5 652.5t561.5 425t669 150.5q337 0 632 -146q213 179 526 179q44 0 88 -4q281 -27 501.5 -206t295.5 -454q2 -9 2 -16 q0 -23 -16.5 -37t-37.5 -14q-6 0 -23.5 2.5t-29.5 35.5q-85 267 -317 425q-195 132 -410 132h-19q-150 -4 -292 -70.5t-235 -187.5q-106 -143 -106 -315q0 -101 40 -200q60 -137 164 -243q64 -62 133 -117q130 -105 140 -140q26 -2 67 -7q74 -9 179 -74 q100 -64 169.5 -157.5t113.5 -203.5q87 -227 87 -450q0 -52 -5 -103q-8 -47 -45 -71q-31 -19 -61 -19q-12 0 -39.5 6.5t-40.5 58.5q-19 96 -22.5 190.5t-19.5 186.5q-28 171 -125 313q-64 85 -159 131q-73 33 -147 33q-23 0 -84 -8.5t-132 -105.5q-47 -69 -75 -151 q-14 -41 -47 -187q0 -12 -2.5 -71t-48.5 -157q-47 -94 -134.5 -153.5t-193.5 -76.5q-39 -5 -78 -5q-180 0 -329 112q-81 63 -124 126q-27 -60 -90 -121q-99 -95 -242 -105h-14q-75 0 -158 33.5t-137 100.5q-43 51 -43 117q0 18 3 36q12 42 58 55q13 4 25 4q33 0 58 -26 q16 -20 29 -39q26 -49 76 -81q43 -22 88 -22q21 0 43 6q74 22 117 90.5t48 145.5v20q0 189 -125 334q-60 66 -148 115q-71 38 -146 38q-88 0 -139 -72q-33 -47 -33 -103q0 -17 3 -36q0 -41 -50 -41q-19 0 -35 12q-51 49 -51 116q0 66 33 125q95 158 290 158q111 0 230 -58.5 t209 -169.5t130 -251q21 -77 21 -154l-1 -40q99 -165 245 -230q62 -26 131 -26q22 0 79 6t122 69q77 81 77 205q0 168 -127 337q-44 60 -86 107q-37 37 -43 71q-2 14 -9.5 29t-7.5 31t10.5 40t42.5 41q14 6 28 6q24 0 47 -16l20 -16q30 -12 53 -31q47 -46 129 -162 q38 -55 67 -109q83 195 244 268q-34 18 -66 40q-93 65 -165 148q-70 79 -122 171t-75 195q-16 76 -16 151q0 279 191 490q-273 120 -573 120q-178 0 -352 -44.5t-336 -133.5q-296 -165 -491 -457q-121 -195 -190.5 -455.5t-69.5 -504.5q0 -47 2 -94q22 -26 22 -44t-16 -33 q43 -441 282 -774q212 -286 520 -443t640 -157q132 0 263 27.5t251 88.5q92 49 129.5 118.5t37.5 152.5q0 68 -19.5 141t-48.5 144t-60 136q-13 29 -13 55q0 48 34.5 82t75.5 34q23 0 46 -13.5t39 -43.5q42 -78 78.5 -166t59 -180t22.5 -183q0 -107 -41 -206.5t-137 -178.5 q-93 -72 -207 -114t-237.5 -59.5t-239.5 -17.5q-275 0 -524 84t-455.5 237t-356.5 363q-158 225 -236 492q-68 233 -77 475l-48 46q-130 132 -278 243q-214 154 -472 199q-56 9 -112 9q-73 0 -176.5 -20.5t-211 -96t-157.5 -205.5q-25 -73 -25 -144q0 -62 20 -123 q41 -125 127 -207q36 65 105 131q112 106 259 161q111 41 221 41q38 0 131.5 -12.5t207.5 -126.5q83 -93 83 -201q0 -17 -8 -89.5t-112 -166.5q-116 -96 -272 -117q-71 -9 -139 -9q-82 0 -160 13q-198 31 -359.5 142t-249.5 282q-68 132 -68 286zM585 276q144 -78 336 -78 q94 0 181 30q59 22 96 66q31 38 31 81q0 7 -3.5 34.5t-67.5 65.5q-76 39 -153 39q-38 0 -116 -20t-181 -103q-69 -56 -123 -115z" />
<glyph unicode="&#x102b;" horiz-adv-x="424" d="M-512 1613q0 89 32 180q66 170 204 262t311 120l19 1q27 0 44 -13t25 -49q31 -176 113 -1065.5t82 -925.5q0 -62 -25 -97q-40 -31 -84 -31q-10 0 -43.5 5.5t-43.5 71.5q-39 405 -71 812q-30 350 -42 480q-41 405 -46 634q-62 -12 -128 -63q-103 -76 -148 -184 q-28 -74 -28 -145q0 -43 18.5 -120.5t94.5 -164.5q15 -18 15 -38q0 -9 -6.5 -29.5t-35.5 -36.5q-14 -8 -29 -8q-20 0 -40 14q-128 100 -170 256q-18 66 -18 134z" />
<glyph unicode="&#x102c;" horiz-adv-x="869" d="M-341 612q0 53 12 110l14 41q38 93 100 166.5t157 114.5q88 34 180 34q28 0 102.5 -9t179.5 -74q100 -64 169.5 -157.5t113.5 -203.5q87 -227 87 -450q0 -52 -5 -103q-8 -47 -45 -71q-31 -19 -61 -19q-12 0 -39.5 6.5t-40.5 58.5q-19 96 -22.5 190.5t-19.5 186.5 q-28 171 -125 313q-64 85 -159 131q-73 33 -147 33q-23 0 -84 -8.5t-132 -105.5q-47 -69 -75 -151q-18 -54 -70 -289q-90 113 -90 256z" />
<glyph unicode="&#x102d;" d="M-1466 1816q0 159 71 308q81 162 229 249.5t320 87.5q80 0 160 -19q135 -34 243 -116t172.5 -199.5t64.5 -254.5t-62 -273q-39 -85 -97 -153q-2 -24 -23 -48q-90 -96 -207.5 -143t-242.5 -47q-114 0 -224.5 38.5t-201.5 114.5q-104 88 -153 207.5t-49 247.5zM-1263 1819 q0 -109 49.5 -205t148.5 -154q114 -61 241 -61q86 0 166.5 27.5t142.5 83.5q15 13 28 18q33 44 59 99q44 93 44 198q0 46 -10 94q-39 158 -170.5 253t-283.5 95q-93 0 -169 -36t-131 -98.5t-85 -143.5t-30 -170z" />
<glyph unicode="&#x102e;" d="M-1452 1785q0 96 39 213.5t147 227.5q190 188 451 188q94 0 223.5 -38.5t255.5 -174.5q159 -181 159 -416q0 -25 -2 -48q126 -53 240 -146q18 -19 18 -37q0 -15 -14 -32q-19 -23 -49 -23q-15 0 -31 7q-99 56 -192 86q-51 -169 -194 -292q-112 -95 -258 -129 q-47 -10 -94 -10q-99 0 -192 49q-77 47 -115 109l-14 -1q-62 0 -119 28q-98 47 -164.5 139t-85.5 194q-9 53 -9 106zM-1263 1783q0 -40 8 -81q34 -153 154 -203q5 79 72 161q102 109 257 138q101 19 196 19q109 0 217 -23q0 44 -13 97q-40 170 -198 274q-119 72 -241 72 q-39 0 -140.5 -19.5t-216.5 -165.5q-95 -125 -95 -269zM-930 1467q0 -11 6 -38.5t41 -58.5q48 -42 122 -42q30 0 61 6q89 21 160.5 79.5t116.5 139.5q23 43 38 83q-103 15 -195 15q-26 0 -83 -2.5t-132.5 -29.5t-116.5 -90q-18 -31 -18 -62z" />
<glyph unicode="&#x102f;" d="M-537 83v13q2 41 27.5 72.5t60.5 31.5q12 0 23 -5q51 -20 74 -68t31.5 -103t12.5 -104q2 -42 15 -147q14 -139 36.5 -281.5t69 -267t133.5 -211.5q72 -70 169 -105t200 -35q39 0 80 6q147 19 276.5 97.5t214.5 265.5q62 136 62 316q0 73 -10 156q32 0 48 -10.5t25 -30.5 q39 -106 39 -217l-1 -35q-7 -148 -69.5 -279t-167 -230.5t-240.5 -156.5t-290 -57q-118 0 -229.5 37t-207.5 113q-131 109 -202.5 255.5t-99.5 311.5q-23 141 -35 296q-12 147 -34 291q-11 63 -11 81z" />
<glyph unicode="&#x1030;" d="M-604 -23q0 29 9 46l2 26q1 31 24.5 49.5t52.5 18.5q24 0 45 -13t29 -38l4 -13q22 -22 31 -83q80 -487 80 -570l-1 -28q-2 -31 -9.5 -61.5t-32 -46.5t-52.5 -16q-54 0 -78 38.5t-33.5 85.5t-15.5 96l-2 19q-7 55 -25.5 214.5t-25.5 244.5q-2 17 -2 31zM-285 3v13 q2 41 27.5 72.5t60.5 31.5q12 0 23 -5q51 -20 74 -68t31.5 -103t12.5 -104q2 -42 15 -147q14 -139 36.5 -281.5t69 -267t133.5 -211.5q72 -70 169 -105t200 -35q39 0 80 6q147 19 276.5 97.5t214.5 265.5q62 136 62 316q0 73 -10 156q32 0 48 -10.5t25 -30.5 q39 -106 39 -217l-1 -35q-7 -148 -69.5 -279t-167 -230.5t-240.5 -156.5t-290 -57q-118 0 -229.5 37t-207.5 113q-131 109 -202.5 255.5t-99.5 311.5q-23 141 -35 296q-12 147 -34 291q-11 63 -11 81z" />
<glyph unicode="&#x1031;" horiz-adv-x="1630" d="M79 718q0 43 5 87q30 195 156.5 328t305.5 194q128 43 260 43q53 0 108 -7q211 -32 399.5 -140t349 -258.5t289.5 -311.5q11 -17 11 -31q0 -17 -14.5 -31.5t-34.5 -14.5q-33 0 -189 153q-130 132 -278 243q-214 154 -472 199q-56 9 -112 9q-73 0 -176.5 -20.5t-211 -96 t-157.5 -205.5q-25 -73 -25 -144q0 -62 20 -123q41 -125 127 -207q36 65 105 131q112 106 259 161q111 41 221 41q38 0 131.5 -12.5t207.5 -126.5q83 -93 83 -201q0 -17 -8 -89.5t-112 -166.5q-116 -96 -272 -117q-71 -9 -139 -9q-82 0 -160 13q-198 31 -359.5 142 t-249.5 282q-68 132 -68 286zM585 276q144 -78 336 -78q94 0 181 30q59 22 96 66q31 38 31 81q0 7 -3.5 34.5t-67.5 65.5q-76 39 -153 39q-38 0 -116 -20t-181 -103q-69 -56 -123 -115z" />
<glyph unicode="&#x1032;" d="M-1216 1863q0 15 4 31q23 56 82 56l19 -1q38 -8 62 -35.5t44 -57.5q10 -17 19 -31q125 -170 300 -308q58 -45 121 -83t135 -52q18 -3 36 -3q40 0 84 19.5t93 60.5q21 14 44 14q15 0 32 -7q28 -13 28 -40q0 -9 -3 -19q-34 -81 -110.5 -121t-161.5 -47q-22 -2 -45 -2 q-70 0 -147 22t-156 70q-227 143 -404 387l-11 14q-65 83 -65 133z" />
<glyph unicode="&#x1035;" d="M-1378 1778q0 34 4 69q21 156 112.5 263t221.5 156q93 34 189 34q39 0 79 -5q152 -26 287 -112t249.5 -205t205.5 -245q10 -17 10 -31q0 -16 -13.5 -31.5t-34.5 -15.5q-29 0 -143 125q-92 103 -196 189q-148 119 -328 154q-37 6 -76 6q-50 0 -121 -15.5t-144 -73 t-108 -156.5q-17 -55 -17 -109q0 -48 14 -94q28 -95 74 -144q17 36 68 89q80 85 187 129q81 33 162 33q28 0 97 -10t153 -104q61 -75 61 -164q0 -13 -6 -72t-82 -136q-85 -78 -200 -95q-51 -7 -100 -7q-59 0 -116 11q-144 24 -260.5 113t-179.5 225q-49 106 -49 229z M-989 1434q88 -52 219 -52q64 0 123 22q38 16 62 48q20 27 20 57q0 5 -2 24t-42 45q-51 29 -101 29q-25 0 -77.5 -15t-123.5 -78q-48 -43 -78 -80z" />
<glyph unicode="&#x1036;" d="M-1000 1491q0 -85 59.5 -144.5t144.5 -59.5q84 0 144 59.5t60 144.5q0 84 -60 144t-144 60q-85 0 -144.5 -60t-59.5 -144zM-866 1491q0 29 20.5 49.5t49.5 20.5t49.5 -20.5t20.5 -49.5t-20.5 -49.5t-49.5 -20.5t-49.5 20.5t-20.5 49.5z" />
<glyph unicode="&#x1037;" d="M-755 -321q0 100 71 161q49 42 116 42h14q81 -9 138.5 -65t65.5 -138q0 -80 -49 -134q-60 -57 -138 -57q-18 0 -34 4q-12 -6 -31 -6q-22 0 -48 13q-7 0 -22 8q-34 25 -54 61q-29 53 -29 111zM-618 -316q0 -14 6 -33q1 -4 13 -22t35 -26l24 15q25 15 37 43q4 7 4 16 q0 21 -21 48q-18 18 -35 18q-1 0 -10 -0.5t-20 -7.5q-10 -7 -12 -7q-21 -21 -21 -44z" />
<glyph unicode="&#x1038;" horiz-adv-x="660" d="M56 856q0 100 71 161q49 42 116 42h14q81 -9 138.5 -65t65.5 -138q0 -80 -49 -134q-60 -57 -138 -57q-18 0 -34 4q-12 -6 -31 -6q-22 0 -48 13q-7 0 -22 8q-34 25 -54 61q-29 53 -29 111zM131 188q0 100 71 161q49 42 116 42h14q81 -9 138.5 -65t65.5 -138 q0 -80 -49 -134q-60 -57 -138 -57q-18 0 -34 4q-12 -6 -31 -6q-22 0 -48 13q-7 0 -22 8q-34 25 -54 61q-29 53 -29 111zM193 861q0 -14 6 -33q1 -4 13 -22t35 -26l24 15q25 15 37 43q4 7 4 16q0 21 -21 48q-18 18 -35 18q-1 0 -10 -0.5t-20 -7.5q-10 -7 -12 -7 q-21 -21 -21 -44zM268 193q0 -14 6 -33q1 -4 13 -22t35 -26l24 15q25 15 37 43q4 7 4 16q0 21 -21 48q-18 18 -35 18q-1 0 -10 -0.5t-20 -7.5q-10 -7 -12 -7q-21 -21 -21 -44z" />
<glyph unicode="&#x1039;" d="M-894 -338q6 38 36 38h180v179q6 37 37 37h4q37 -6 37 -36v-161q4 -19 20 -19h160q36 -6 36 -37v-4q-5 -37 -36 -37h-161q-19 -4 -19 -20v-159q-5 -37 -37 -37h-3q-38 5 -38 36v180h-179q-37 5 -37 37v3z" />
<glyph unicode="&#x103a;" d="M-1226 1745q0 101 39.5 236t165.5 269q228 235 586 235q44 0 88 -4q281 -27 501.5 -206t295.5 -454q2 -9 2 -16q0 -23 -16.5 -37t-37.5 -14q-6 0 -23.5 2.5t-29.5 35.5q-85 267 -317 425q-195 132 -410 132h-19q-150 -4 -292 -70.5t-235 -187.5q-106 -143 -106 -315 q0 -101 40 -200q60 -137 164 -243q64 -62 133 -117q63 -51 120 -106q22 -25 22 -50q0 -17 -11 -34q-23 -36 -65 -36l-15 1q-109 24 -202 89t-165 148q-70 79 -122 171t-75 195q-16 76 -16 151z" />
<glyph unicode="&#x103b;" horiz-adv-x="467" d="M-539 -421q0 95 38 224t155 261q28 29 60 29q13 0 40 -10.5t43 -50.5q6 -15 6 -27q0 -27 -23 -54q-80 -91 -118 -207q-26 -82 -26 -164q0 -36 10.5 -114t90.5 -177q43 -49 117.5 -93.5t151.5 -60.5q26 -6 48 -6q123 0 123 145l-1 22q-37 426 -102 847q-44 310 -91 565 q-32 152 -45 291q4 51 31 74.5t64 23.5q8 0 35 -4t47 -58q31 -98 50 -201t34 -207l19 -117q75 -452 130 -908q6 -49 14 -99q23 -153 23 -233q0 -26 -1 -50q-12 -122 -88 -189t-185 -81q-29 -4 -59 -4q-78 0 -156 27q-156 56 -268 176.5t-150 280.5q-17 75 -17 149z" />
<glyph unicode="&#x103c;" horiz-adv-x="445" d="M95 1387v46q4 199 72.5 395.5t211 354t369.5 235.5q136 43 268 43q95 0 251.5 -38.5t309.5 -188t184 -359.5q-2 -36 -44 -36q-29 0 -42 26q-52 154 -171 267t-299 161q-94 24 -186 24q-71 0 -187 -23t-243 -122q-159 -129 -230.5 -294.5t-82.5 -345.5q-4 -62 -4 -123 q0 -206 81 -691q35 -214 48 -310q29 -230 82 -454q31 -120 96 -247.5t166 -232.5t237 -155q78 -29 169 -29q65 0 137 15q136 35 219 130.5t109 213.5q10 54 10 106q0 55 -17.5 133t-55.5 180q-45 133 -45 152q0 27 20 44q24 22 61 22q2 0 22 -1t49 -31q121 -139 162 -320 q19 -87 19 -173q0 -92 -33.5 -226.5t-166 -262t-360.5 -161.5q-60 -7 -116 -7q-140 0 -283 53t-266.5 173t-204 271.5t-117.5 306.5q-61 273 -93 551q-24 183 -47 330q-59 378 -59 598z" />
<glyph unicode="&#x103d;" d="M-1019 -575q0 28 3 57q20 163 125.5 298.5t273.5 177.5l14 1q30 0 48 -15q23 -2 53 -7q313 -65 487 -301q57 -74 88 -162q29 -81 29 -163v-21q-17 -186 -159 -311q-166 -140 -384 -140q-153 0 -291 80q-145 88 -222 241q-65 129 -65 265zM-824 -578q3 -127 71 -228 t181 -142q65 -23 132 -23q49 0 133.5 21t161.5 119q53 74 52.5 155t-37 156t-95.5 134q-82 83 -186 130q-87 36 -166 44l-27 4q-217 -135 -220 -370z" />
<glyph unicode="&#x103e;" d="M-1379 -721q0 182 140 264q75 57 32 -5q-70 -100 -70 -216q0 -90 47.5 -180t132.5 -150t191 -60q48 0 93.5 14t83.5 44q37 33 46 79.5t11 99.5l1 41q0 48 -6.5 106.5t-17.5 126.5q-19 113 -71 566q38 43 90 43q50 0 114 -42q72 -573 80 -625q21 -122 21 -196 q0 -57 -15 -110q-22 -76 -86 -142.5t-142 -101.5q-97 -40 -194 -40q-114 0 -209.5 45.5t-179.5 144t-88 254.5q-4 19 -4 40z" />
<glyph unicode="&#x103f;" horiz-adv-x="2924" d="M90 810q0 66 33 125q95 158 290 158q111 0 230 -58.5t209 -169.5t130 -251q21 -77 21 -154l-1 -40q99 -165 245 -230q62 -26 131 -26q22 0 79 6t122 69q77 81 77 205q0 168 -127 337q-44 60 -86 107q-37 37 -43 71q-2 14 -9.5 29t-7.5 31t10.5 40t42.5 41q14 6 28 6 q24 0 47 -16l20 -16q30 -12 53 -31q47 -46 129 -162q150 -214 150 -422q0 -7 -1 -32q63 -81 141 -140q110 -88 171 -106.5t83 -18.5q70 0 124 34q69 47 91 133q8 42 8 86q0 108 -46 230q-27 93 -58.5 167t-105.5 226v5q0 44 37.5 49.5t49.5 5.5q28 0 66 -19q47 -25 76 -73 q151 -281 178 -563q3 -33 3 -64q0 -76 -19.5 -157t-84.5 -146q-70 -67 -136.5 -76t-93.5 -9q-87 0 -187 35q-109 41 -202 116q-69 55 -130 122q-7 -16 -15 -34q-47 -94 -134.5 -153.5t-193.5 -76.5q-39 -5 -78 -5q-180 0 -329 112q-81 63 -124 126q-27 -60 -90 -121 q-107 -102 -256 -105q-75 0 -158 33.5t-137 100.5q-43 51 -43 117q0 18 3 36q12 42 58 55q13 4 25 4q33 0 58 -26q16 -20 29 -39q26 -49 76 -81q43 -22 88 -22q21 0 43 6q74 22 117 90.5t48 145.5v20q0 189 -125 334q-60 66 -148 115q-71 38 -146 38q-88 0 -139 -72 q-33 -47 -33 -103q0 -17 3 -36q0 -41 -50 -41q-19 0 -35 12q-51 49 -51 116z" />
<glyph unicode="&#x1040;" horiz-adv-x="1334" d="M90 548q0 105 43.5 219.5t123.5 203t190 121.5q76 29 155 29q138 0 268.5 -72.5t207.5 -182.5q99 -155 99 -326q0 -86 -26.5 -170.5t-80.5 -156.5q-80 -103 -195.5 -163t-241.5 -60q-142 0 -266 78.5t-200.5 206t-76.5 273.5zM287 549q0 -98 50 -182t132 -134.5 t177 -50.5q96 0 179.5 52t131.5 138q40 79 40 166q0 156 -112 281q-77 76 -170.5 102.5t-194.5 24.5q-47 -39 -92.5 -82t-79.5 -99q-61 -102 -61 -216zM427 365q0 12 7 26q75 119 159.5 231.5t171.5 222.5q14 16 29 16q17 0 32 -15t15 -32q0 -10 -6 -21 q-75 -120 -153 -237.5t-165 -228.5q-17 -18 -35 -18q-20 0 -37.5 17t-17.5 39z" />
<glyph unicode="&#x1041;" horiz-adv-x="1179" d="M109 732q0 90 53 169t132.5 132t163.5 68q42 7 82 7q143 0 261.5 -75t189 -201t70.5 -281q0 -116 -45 -228q-37 -91 -108.5 -169t-169.5 -126t-213 -48q-61 0 -125.5 18.5t-118.5 55t-87.5 90t-33.5 123.5q0 46 28 73t68 27q29 0 57.5 -17.5t41.5 -52.5q22 -55 68 -79.5 t100 -24.5q51 0 102 19q110 42 167 137.5t57 205.5q0 107 -46 185.5t-119 121.5t-153 43q-37 0 -73 -11q-85 -27 -128 -91.5t-67 -147.5q-9 -25 -29.5 -38.5t-42.5 -13.5q-21 0 -41.5 13t-29.5 39q-11 39 -11 77z" />
<glyph unicode="&#x1042;" horiz-adv-x="1078" d="M-59 -527q0 49 16 96.5t51 91.5q23 24 48 24q28 0 51.5 -24.5t23.5 -55.5q0 -7 -1 -12.5t-3 -12.5q-4 -6 -4 -56q0 -75 32 -135t92.5 -95t146.5 -35q98 0 166.5 43t105 116.5t38.5 169.5l1 46q0 107 -10 215.5t-23 216.5q-45 394 -72 933v6q0 48 29 71.5t66 23.5 q38 0 72 -25t43 -74q32 -213 51 -573q18 -307 38 -498q7 -67 13 -137t6 -140q0 -101 -20.5 -198.5t-75.5 -182.5q-71 -103 -182 -155t-232 -52q-114 0 -222 47q-107 52 -176 151t-69 210z" />
<glyph unicode="&#x1043;" horiz-adv-x="1301" d="M130 753q0 80 42 145.5t109 113t147 73.5t156 26l26 -1q191 -14 340.5 -130.5t194.5 -306.5q12 -60 12 -121q0 -155 -76.5 -296.5t-218.5 -218.5q-129 -64 -265 -64q-73 0 -125 12q80 -168 178.5 -367.5t246.5 -461.5q13 -25 13 -48q0 -40 -33 -68.5t-70 -28.5 q-22 0 -43 11.5t-36 36.5q-124 222 -216.5 418.5t-177 372t-183.5 334.5q-16 27 -16 52q0 40 33.5 69.5t73.5 29.5q35 0 68 -28q127 -115 285 -115q77 0 148 32q93 46 144 135.5t51 190.5q0 127 -79.5 218t-209.5 119q-32 7 -67 7q-63 0 -124.5 -21.5t-101.5 -65t-40 -109.5 q0 -9 1 -16.5t1 -15.5q0 -36 -25.5 -54.5t-54.5 -18.5q-27 0 -53 15.5t-37 44.5q-18 52 -18 100z" />
<glyph unicode="&#x1044;" horiz-adv-x="1285" d="M107 533q0 161 81.5 290t217.5 204.5t300 75.5q59 0 118.5 -12.5t111.5 -40.5q63 -35 108 -92.5t45 -126.5q0 -35 -15 -73q-10 -23 -32 -35.5t-44 -12.5q-24 0 -44.5 15.5t-20.5 45.5l1 18q0 42 -35.5 68.5t-85.5 38t-94 11.5q-103 0 -195.5 -45t-150.5 -128t-58 -195 q0 -146 88.5 -243t225.5 -97q77 0 147 32.5t115 96.5q17 24 42 35t51 11q39 0 73.5 -25t34.5 -68q0 -17 -7 -37l-411 -1106q-13 -34 -40.5 -50.5t-55.5 -16.5q-36 0 -68 24t-32 64q0 15 6 33q189 500 294 815q-64 -21 -150 -21q-141 0 -259.5 71.5t-190 195.5t-71.5 280z " />
<glyph unicode="&#x1045;" horiz-adv-x="1416" d="M92 496q0 118 39.5 231t118.5 206q80 89 191 135t229 46q139 0 246 -58t174.5 -161.5t92.5 -240.5q26 -150 37 -301.5t18 -305.5q-2 -9 -2 -32q0 -33 4 -95q15 -163 15 -289q0 -107 -19.5 -211.5t-73.5 -199.5q-72 -114 -185 -172.5t-240 -58.5q-94 0 -180 31t-154 92.5 t-108.5 150t-40.5 202.5q0 109 40.5 216t118.5 181q25 22 51 22q32 0 52.5 -23.5t20.5 -53.5q0 -34 -33 -61q-65 -49 -99.5 -117.5t-34.5 -144.5q0 -78 41.5 -156t117 -116.5t160.5 -38.5q46 0 88 11q110 30 167 99.5t78 167.5t21 204q0 115 -11 224q-11 127 -16 291 l-18 289q-5 113 -33 223.5t-118 179.5q-39 28 -86 41t-96 13q-104 0 -183 -47t-126 -128t-55 -182v-12h-2q93 -15 179.5 -53t141.5 -121q46 -73 46 -154t-46 -152q-32 -45 -78.5 -67t-97.5 -22q-85 0 -151.5 48.5t-110.5 125t-67 167t-23 177.5zM313 395q5 -22 18 -60 q7 -25 24 -61.5t38.5 -62.5t44.5 -26q27 0 27 28q0 44 -26.5 75t-53.5 55.5t-72 51.5z" />
<glyph unicode="&#x1046;" horiz-adv-x="1419" d="M70 1567q0 98 23.5 187t80.5 161.5t156 120.5q139 62 286 62q144 0 280 -52q115 -45 212.5 -127t158 -191t60.5 -233q0 -63 -23.5 -127t-74 -110t-131.5 -56q-38 0 -61.5 29.5t-23.5 59.5q0 23 15.5 45.5t46.5 30.5q48 12 66.5 43.5t18.5 77.5q0 72 -32 137t-84 118 t-113 89q-137 79 -290 79q-67 0 -131.5 -17.5t-121.5 -54.5q-70 -47 -94 -120t-24 -161q0 -50 5 -101t11 -100q6 -52 10 -100q12 -160 24 -321l26 -348q3 -37 4 -75q2 -65 9.5 -128.5t32.5 -118.5q52 -116 251 -116q58 0 123.5 9.5t122.5 31t93.5 57.5t36.5 88 q0 47 -25.5 85t-73.5 75q-1 -1 -4 -3q-8 -5 -24.5 -14t-32.5 -9q-25 0 -47.5 21.5t-22.5 45.5t10.5 33.5t11.5 9.5q-44 34 -86.5 81.5t-70.5 107.5t-28 133q0 104 68.5 170t168.5 66q82 0 144 -43.5t97 -112.5t35 -144q0 -64 -24 -122q-24 -57 -62 -104q89 -55 130 -124 q43 -74 43 -161q0 -97 -49.5 -171t-131 -124.5t-181.5 -76t-200 -25.5q-117 0 -224.5 35.5t-175.5 107.5q-55 63 -80.5 139.5t-32.5 155.5q-12 130 -18 260q-3 59 -7 117q-9 122 -18 245q-20 256 -36 511q-2 33 -2 66zM787 909q0 -57 40.5 -104t109.5 -91q15 21 27 53t12 69 q0 56 -32.5 94.5t-89.5 38.5q-31 0 -49 -13.5t-18 -46.5z" />
<glyph unicode="&#x1047;" horiz-adv-x="1345" d="M68 526q0 120 52 227t139.5 190t198.5 130.5t229 47.5q129 0 244 -61.5t169 -190.5q31 -83 38 -174q5 -79 5 -156v-26q0 -50 1 -98q37 -1023 40 -1122l1 -26q0 -27 1.5 -63.5t4.5 -64.5q2 -26 4 -29q21 10 40 10q37 0 63 -29t26 -62q0 -31 -21 -51.5t-50.5 -31 t-57.5 -10.5q-64 0 -117 45.5t-74 112.5q-16 67 -16 137l-14 428q-6 197 -22 654l-3 151q0 128 -12 252q-12 109 -76.5 161t-169.5 52q-107 0 -205 -54t-160 -143.5t-62 -196.5q0 -117 71 -215t194 -118q40 -6 61.5 -34.5t21.5 -59.5q0 -29 -20.5 -54t-59.5 -25h-5 q-129 7 -232.5 77.5t-165 182t-61.5 237.5z" />
<glyph unicode="&#x1048;" horiz-adv-x="1454" d="M92 557q0 132 63 248.5t168.5 196t237.5 103.5q50 8 98 8q177 0 331.5 -98t236.5 -261q69 -148 69 -306q0 -166 -71 -320q-19 -49 -52 -92q-31 -32 -68 -50q-33 -20 -53 -20q-26 0 -48 20t-22 48q0 8 2 18q6 18 9 37q6 40 35 93q70 118 70 266q0 114 -52 219 q-58 109 -161 179.5t-224 70.5q-111 0 -206 -61t-137 -153h11q115 0 209 -59.5t149.5 -153t55.5 -195.5q0 -53 -18.5 -105.5t-57.5 -97.5q-39 -43 -88 -63.5t-101 -20.5q-111 0 -210 85q-87 85 -131.5 217.5t-44.5 246.5zM284 553q0 -83 26 -166t70.5 -138t99.5 -55 q34 0 60.5 30t26.5 79q0 47 -23.5 92.5t-55.5 77.5q-91 87 -202 111z" />
<glyph unicode="&#x1049;" horiz-adv-x="1415" d="M155 595q0 99 20.5 193.5t79.5 174.5q73 90 173.5 125.5t207.5 35.5q104 0 210 -24t193.5 -72t141.5 -124t54 -179q0 -70 -30.5 -127t-67.5 -85q25 -23 48 -71t23 -103q0 -70 -37 -131.5t-98 -100.5t-136 -39q-53 0 -105.5 24.5t-92.5 75.5q-55 77 -55 152q0 78 50 148 t126 109q6 9 20.5 19t33.5 10h7q28 13 55.5 30.5t44.5 38.5t17 51q0 46 -34.5 84t-92 65t-127.5 41.5t-138 14.5q-65 0 -120.5 -16t-94.5 -53q-32 -33 -48 -75t-20.5 -90t-4.5 -95q0 -118 12 -237q13 -182 14 -331q0 -159 21 -357q16 -150 83 -271.5t212 -172.5 q57 -18 115 -18q103 0 191.5 50.5t141.5 131t53 173.5q0 59 -30 109q-24 34 -57.5 51.5t-72.5 17.5q-14 0 -25 -2.5t-20 -5t-16 -6.5q-19 -12 -47 -12q-34 0 -61.5 26.5t-27.5 57.5q0 29 28 56q41 34 86.5 50t91.5 16q105 0 197 -69t128 -177q18 -64 18 -127 q0 -140 -78.5 -264.5t-200.5 -198.5q-142 -79 -295 -79q-151 0 -293 76q-148 88 -223 229.5t-96 305.5q-16 120 -21 221.5t-6 202.5q-2 168 -15 346q-10 99 -10 201zM884 323q0 -26 17.5 -45.5t42.5 -19.5q21 0 44 19q34 30 34 64q0 24 -12 46t-26 33q-47 -22 -73.5 -44.5 t-26.5 -52.5z" />
<glyph unicode="&#x104a;" horiz-adv-x="480" d="M64 976v13q2 41 25.5 72.5t55.5 31.5q11 0 21 -5q47 -20 68 -68t30 -103q6 -51 79 -926h-187q-29 319 -82 904q-10 63 -10 81z" />
<glyph unicode="&#x104b;" horiz-adv-x="839" d="M64 976v13q2 41 25.5 72.5t55.5 31.5q11 0 21 -5q47 -20 68 -68t30 -103q6 -51 79 -926h-187q-29 319 -82 904q-10 63 -10 81zM428 976v13q1 41 24.5 72.5t55.5 31.5q12 0 22 -5q47 -20 68 -68t29 -103q7 -51 80 -926h-187q-29 319 -82 904q-10 63 -10 81z" />
<glyph unicode="&#x104c;" horiz-adv-x="1245" d="M48 1601q0 63 15 128q30 123 106 222.5t182 168.5q139 89 305 89q79 0 157 -22q111 -33 205.5 -112.5t149.5 -181.5q5 -11 5 -19q0 -18 -18 -28q-9 -5 -17 -5q-15 0 -29 17q-61 103 -156.5 157t-212.5 72q-38 6 -74 6q-59 0 -135.5 -20t-150.5 -85q-70 -64 -109.5 -154.5 t-43.5 -184.5v-9q0 -196 130.5 -326t326.5 -150q79 -10 79 -78q0 -10 -4 -25q102 -33 184 -98q136 -109 177 -289q12 -59 12 -118q0 -114 -56 -250.5t-214 -227.5q-128 -66 -268 -66q-85 0 -168 26q-13 4 -44 10q36 -36 70 -52q86 -44 188 -44q55 0 130 19.5t158 82.5 q22 14 45 14t57.5 -21t34.5 -72q-2 -27 -2 -55q0 -77 15 -167l12 -83q44 -194 44 -327l-1 -48q-13 -204 -133 -351t-326 -183q-40 -5 -79 -5q-152 0 -295.5 94.5t-204.5 285.5q-20 68 -20 136q0 55 21 146t107 177t224 87q61 -5 80 -49q11 -23 11 -46q0 -22 -15 -56t-76 -36 q-79 -3 -121 -64t-47 -134q0 -143 92 -246q104 -111 247 -111q119 0 221 80q84 70 112 169q20 73 20 153q0 24 -5.5 89.5t-26.5 161.5l-21 98q0 16 -14 129q-132 -52 -264 -52q-84 0 -197.5 30.5t-203.5 156.5q-27 42 -44 96q-12 34 -12 66q0 19 6.5 51.5t56.5 64.5 q39 21 84 21q13 0 49.5 -5.5t91.5 -23.5q84 -24 147 -24q26 0 85.5 6.5t138.5 69.5q85 73 112 184q11 46 11 92q0 62 -20 123q-42 107 -144 165t-216 59h-4q-113 0 -195.5 -63t-86.5 -199q-2 -43 -35 -62q-22 -13 -46 -13q-11 0 -34.5 6t-34.5 48q-8 40 -8 78 q0 98 60.5 191.5t185.5 151.5l40 18q-137 69 -223 177t-119 235q-17 66 -17 133z" />
<glyph unicode="&#x104d;" horiz-adv-x="1706" d="M118 596l1 32q11 143 85 261t194 185q102 58 226 58q20 0 41 -2q220 -23 345 -206q56 -91 78.5 -196t29.5 -210q39 -487 61 -974l6 -118q0 -54 -38 -71q-19 -9 -39 -9t-51 13.5t-39 66.5q-47 491 -84 984q-5 85 -19 182t-49 182.5t-104 133.5q-54 36 -135 36 q-24 0 -50 -3q-143 -25 -207 -129q-25 -41 -39 -85q203 -92 313 -290q32 -59 48 -130q7 -32 7 -63q0 -37 -14 -87t-84 -89q-45 -24 -90 -24q-21 0 -63.5 10.5t-98 55t-94.5 95.5q-69 91 -105 200q-32 93 -32 191zM164 -545q0 3 0.5 68t53.5 176t165 181q94 54 198 54 q9 0 70.5 -3t152.5 -68t122 -186q7 -33 7 -64q0 -80 -53.5 -161t-159.5 -124q-59 -24 -119 -24q-49 0 -98 16q-46 19 -46 68q0 19 12.5 41t51.5 23h5q56 0 121.5 20.5t105.5 66.5q25 29 25 68q0 24 -9 52q-25 66 -80 95q-48 24 -101 24q-9 0 -46 -3.5t-91 -39.5 q-120 -89 -130 -225l-1 -36q0 -117 60 -240t161 -200q152 -108 342 -108q148 0 278 72q109 66 157.5 170.5t57.5 226.5q5 68 5 135q0 51 -3 102q-16 440 -62 879l-5 51q-9 108 -30 221.5t-74.5 207.5t-160.5 144q-64 27 -131 43t-136 28q-97 15 -191 42.5t-177 88.5 q-121 96 -160 243q-14 53 -14 106q0 92 44 183q82 148 224 207q100 41 204 41q44 0 141.5 -15.5t208 -116t130.5 -272.5v-3q0 -38 -29 -54q-20 -11 -42 -11q-11 0 -34.5 5.5t-32.5 43.5q-23 116 -113 189.5t-207 77.5h-3q-110 0 -204 -64t-111 -179l-1 -31 q0 -106 64.5 -170.5t175 -97t227.5 -51t201 -47.5q188 -74 278.5 -227t116.5 -346q37 -253 56.5 -508.5t32.5 -510.5q7 -91 7 -181q0 -45 -4 -134t-44.5 -212.5t-135.5 -231.5q-121 -129 -293 -178q-111 -32 -221 -32q-61 0 -122 10q-187 32 -330.5 152t-212.5 296 q-44 113 -44 237zM312 591q0 -135 74 -251q8 -13 31.5 -43.5t51.5 -53.5q20 -17 37 -17q24 0 24 31q0 13 -10 44.5t-20 51.5q-70 146 -188 252v-14z" />
<glyph unicode="&#x104e;" horiz-adv-x="1263" d="M101 536q0 -105 48 -220t160.5 -206.5t258.5 -112.5q32 -3 62 -3q128 0 233 57l120 -902q14 -83 16 -151q19 -125 56 -125q23 0 52 45q64 99 64 250q0 31 -3 65q-7 40 -140 1005q-18 72 -93 72q-51 0 -88 -49q-66 -97 -193 -97q-18 0 -36 2q-107 15 -183.5 83t-112.5 164 q-25 66 -25 136q0 34 4 62q27 141 142 232q100 79 223 79q18 0 37 -2q92 -13 155 -72t77 -145q12 -65 77 -65q28 0 57 17.5t38 57.5l1 14q0 144 -107 243.5t-266 121.5q-32 3 -63 3q-118 0 -238 -54.5t-211.5 -165.5t-114.5 -248q-7 -42 -7 -91z" />
<glyph unicode="&#x104f;" horiz-adv-x="1802" d="M120 562q0 92 29 179t86 160q35 43 75 75q-3 6 -6 24q0 20 15.5 32.5t33.5 12.5q21 0 34 -17q124 62 251 62q117 0 221 -47q33 34 80 52q52 21 107 21q54 0 105 -21q73 -35 102 -103.5t32 -145.5q33 -385 54 -772v-6q0 -36 -24.5 -54.5t-53.5 -18.5q-31 0 -57 19.5 t-29 59.5q-9 173 -14 346q-5 145 -11 290l-1 43q-1 54 -6 108q-2 24 -8 48.5t-22 42.5q-14 14 -31 19.5t-36 5.5q-37 0 -77 -12l6 -8q37 -47 37 -111q0 -75 -46 -125t-114 -74t-135 -24h-5q205 -22 306 -167q49 -79 49 -161q0 -79 -42 -148t-121 -110q-95 -42 -196 -42 q-177 0 -328 100q-15 -6 -35 -6q-38 0 -62.5 30t-35.5 72q-5 16 -7 29q-75 93 -106 218q-14 61 -14 124zM286 580q0 -62 16 -111q51 69 146 113t209 44h11q-56 7 -104 30q-115 56 -186 174q-43 -46 -67.5 -114t-24.5 -136zM413 290q52 -48 127 -79.5t156 -31.5q65 0 124 28 q30 16 46 41t16 53q0 49 -46 95q-35 30 -81 44t-94 14q-142 0 -213 -84q-32 -37 -35 -80zM468 902q109 -140 251 -140q60 0 100.5 27.5t40.5 57.5q0 19 -17.5 34.5t-41.5 27.5q-77 40 -157 40q-97 0 -176 -47zM820 1509q0 111 57.5 197.5t149 136.5t192.5 50 q104 0 189 -50.5t137.5 -135t63.5 -190.5v-3q0 -20 -13.5 -29.5t-30.5 -9.5q-13 0 -25 7.5t-14 23.5q-20 119 -104.5 190t-188.5 71q-108 0 -189 -77t-81 -178q0 -81 61 -153q64 -68 153.5 -97.5t179.5 -38.5q66 -4 121 -27.5t86 -89.5q22 -54 30 -118t12 -127l8 -83 q24 -187 38 -375l5 -63q8 -70 8 -140q0 -39 -4.5 -76t-17.5 -71q-11 -25 -35 -41t-50 -16q-18 0 -33.5 10t-25.5 29q-31 76 -39 166q-7 79 -7 158v20q-3 175 -37 563q-1 15 -1 33v8q0 43 -11 67q-4 15 -9.5 18.5t-26.5 7.5l-8 1q-39 8 -78 13q-68 6 -136 27 q-149 50 -237.5 154.5t-88.5 237.5z" />
<glyph unicode="&#x105b;" horiz-adv-x="120" />
<glyph unicode="&#x1062;" horiz-adv-x="671" d="M-276 380q1 14 122 165q75 93 147 188q126 169 258 333q22 22 48 22q9 0 21 -3q38 -12 51 -50q21 -105 59 -461q39 -358 43 -475l-20 -15q15 0 18 -10.5t2 -24.5q0 -8 -1 -15t-1 -12q-1 -5 -3 -11l-4 -8q-4 -5 -10 -9q-4 -3 -9 -5q-7 -3 -16 -4h-10q-72 0 -105 72 q-23 87 -27 180l-2 34q-2 17 -3 33l-14 133q-32 286 -34 343l-3 61q-78 -77 -169 -175q-59 -60 -126 -121q-95 -81 -210 -218z" />
<glyph unicode="&#x1075;" horiz-adv-x="1698" d="M77 326q0 51 30.5 146.5t168.5 156.5q11 3 28 12q11 6 13 6l2 55q18 128 95 223.5t201 140.5q86 29 175 29q28 0 102 -8t181 -56q169 -80 277 -227.5t162 -327t63 -354.5q0 -57 -39 -78q-26 -15 -55 -15q-18 0 -52 10t-54 59q-33 95 -59 193q-23 89 -52 175t-76 167 q-29 51 -64.5 101t-81.5 85q-117 85 -256 85q-73 0 -151 -36.5t-112 -144.5q-14 -53 -14 -105q0 -67 31 -158t91 -198l42 -85q10 -24 10 -45q0 -43 -43 -76q-99 -61 -209 -61q-37 0 -132 17.5t-179 150.5q-43 80 -43 163zM232 340q0 -49 27 -96q43 -64 122 -79q19 -4 36 -4 q23 0 38 4q-57 98 -97 217q-28 81 -33 118l-5 23q-48 -35 -76 -117q-12 -33 -12 -66z" />
<glyph unicode="&#x1076;" horiz-adv-x="1250" d="M143 891q0 25 13 45q63 78 159 129q88 45 184 45q119 0 208 -90q62 -67 62 -147q0 -69 -27 -105q39 -19 94 -48q80 -45 147 -106q90 -88 90 -195q0 -30 -5 -47q30 -22 30 -59q0 -3 -3.5 -22.5t-35.5 -38.5q-17 -9 -36 -9l-10 1q-11 -16 -34 -40q-121 -124 -307 -186 q-86 -28 -171 -28q-20 0 -40 2q-2 0 -59.5 5.5t-133.5 91.5q-46 60 -46 116l1 10q1 22 20.5 70.5t100.5 104.5t162 81q89 27 181 27q120 0 182 -27q10 -8 12 -8q0 2 -3 8q-24 37 -65 64.5t-85 50.5l-29 16q-234 136 -497 211q-43 16 -55 55q-4 12 -4 23zM388 929 q131 -50 251 -104q21 10 21 29v7q0 10 -26 35.5t-59 40.5q-45 20 -86 20q-56 0 -101 -28zM410 194q0 -4 0.5 -11t45.5 -20q25 -6 48 -6q28 0 68.5 7.5t85.5 27.5q118 47 182 120q-62 19 -146 19q-71 0 -135 -21q-22 -7 -59 -28t-66 -45q-21 -20 -24 -43z" />
<glyph unicode="&#x1077;" horiz-adv-x="1698" d="M79 311q0 52 30 148t167 155q8 3 16 3q16 0 28 -12v16q0 31 3 61q16 131 92 229.5t200 146.5q89 32 182 32q24 0 95.5 -7t177.5 -55q173 -79 277 -225t158.5 -324t78.5 -352v-17q0 -35 -21 -62t-56 -35q-39 -18 -62 -18h-8q-102 6 -198 66q-123 81 -174 220 q-23 66 -23 133q0 47 20 129t102 167q-56 74 -132.5 124t-178.5 66q-32 4 -62 4q-78 0 -160 -38.5t-119 -150.5q-13 -54 -13 -107q0 -69 31 -161.5t93 -202.5l43 -86q11 -25 11 -46q0 -43 -43 -75q-97 -60 -204 -60q-37 0 -130.5 17.5t-177.5 149.5q-43 82 -43 167zM216 324 q0 -50 27 -100q34 -52 98 -74q36 -12 73 -12q26 0 52 6q-108 181 -141 388l-1 -1q-67 -55 -96 -139q-12 -34 -12 -68zM1188 430q0 -103 69 -170q33 -37 74 -58q24 -15 44 -21q-25 102 -58 207.5t-80 202.5q-49 -77 -49 -161z" />
<glyph unicode="&#x1078;" horiz-adv-x="2432" d="M176 622v19q0 81 23 156t74 134t134 93q80 30 163 30q200 0 363 -142q102 -96 148 -175q51 94 146.5 198.5t245.5 154.5q98 31 195 31q163 0 298 -76.5t214 -206t79 -287.5q0 -154 -76 -279t-204 -198.5t-284 -73.5q-94 0 -188 30q-88 27 -173 80t-154 123q-22 23 -39 44 q-23 2 -46 16q-32 19 -47 53q-24 61 -56.5 131.5t-73 139t-91 125.5t-110.5 90t-132 33q-39 0 -85 -12.5t-73 -44.5t-39 -76.5t-12 -92.5q0 -88 24.5 -158.5t63.5 -133.5t85 -125l53 -76q10 -18 10 -37q0 -36 -12.5 -65t-45.5 -42q-19 -7 -47 -7q-21 0 -48 4l-16 -2 q-186 313 -228 423q-39 101 -39 202zM1258 481q50 -82 100 -132q71 -69 161 -109t177 -40q100 0 179 50.5t125 133t46 176.5q0 66 -26 130.5t-81 120.5q-54 55 -125 82t-145 27q-106 0 -204 -54q-81 -48 -127.5 -123t-65.5 -167q-9 -47 -14 -95z" />
<glyph unicode="&#x107a;" horiz-adv-x="2278" d="M112 464q0 60 20.5 162.5t106.5 223.5t218 185q122 56 250 56q42 0 149 -16t220 -152q93 -127 120 -285l1 -1q24 -97 68.5 -179.5t118.5 -148.5q60 -52 135.5 -84t156.5 -33q76 1 130 40.5t62 119.5v20q0 80 -30.5 160.5t-80.5 153.5q-78 121 -191 201q-36 27 -70 57 q-25 24 -25 56v18.5t22 44.5q31 37 78 37q27 0 55 -12q61 -28 115.5 -76.5t97.5 -98.5q184 -206 227 -451q6 -35 6 -69q0 -85 -36 -168q-56 -115 -167 -166q-91 -41 -191 -41q-24 0 -49 2q-237 31 -383 181q35 -319 101 -657l5 -24q21 -118 53 -233.5t93.5 -211 t170.5 -154.5q40 -19 82 -19q38 0 101 23.5t122 86.5q69 81 102 212q19 77 19 142q0 45 -9 84q-38 138 -117.5 215.5t-234.5 167.5q-6 4 -6 8l7 3q11 0 49 -16t109.5 -61.5t140.5 -113t104 -155.5q40 -107 40 -215q0 -54 -20 -164.5t-151 -234.5q-137 -120 -315 -120 q-121 0 -226 66q-98 66 -156 161t-90.5 203.5t-53.5 218.5q-67 323 -107 651q-21 177 -38 354l-2 18q-6 73 -17 145t-36 140q-61 148 -195 183q-40 11 -80 11q-94 0 -191 -56q-98 -63 -150 -167q101 -21 204 -69t170 -130t69 -206q-1 -80 -40.5 -150.5t-115.5 -110.5 q-62 -28 -125 -28q-29 0 -90 12.5t-133 69.5q-177 142 -177 384zM293 469q0 -155 106 -253q33 -28 75 -42q25 -8 47 -8q18 0 45 7t50 55q20 49 20 91q0 49 -37 105.5t-126 105t-160 73.5q-20 -63 -20 -134z" />
<glyph unicode="&#x107b;" horiz-adv-x="2312" d="M161 670q0 109 50.5 215t169.5 168q94 45 196 45q29 0 110.5 -10t189.5 -87q149 -106 207 -281l10 28q37 93 99 166t156 113q87 34 179 34q28 0 102 -8.5t178 -73.5q99 -64 167.5 -156.5t111.5 -200.5q49 -123 72 -267q15 -90 15 -175q0 -52 -6.5 -102t-47.5 -75 q-31 -20 -64 -20q-11 0 -32 5l-6 -1h-8l-20 1q-65 10 -126 44q-126 75 -165 205q-13 43 -13 87q0 87 53 176q48 74 128 118l2 1q-25 54 -60 105q-61 81 -152 125q-70 32 -141 32q-21 0 -79 -8t-125 -100q-45 -67 -72 -145.5t-46 -159.5q-23 -89 -52.5 -171t-83.5 -149.5 t-150 -108.5q-90 -37 -175 -37q-52 0 -142.5 24.5t-193 122.5t-164 227t-71.5 261zM352 661q0 -58 15 -114q32 -120 112.5 -221.5t201.5 -133.5q37 -8 69 -8q71 0 120 38q19 15 37 35l12 38q35 95 35 181q0 118 -50 225q-55 111 -158 175q-74 44 -159 44q-32 0 -65 -6 q-83 -19 -123 -78.5t-46 -137.5zM1812 337q0 -30 21 -85.5t98 -98.5l26 -12q-6 50 -8 101q-7 167 -42 278q-34 -27 -57 -62q-38 -64 -38 -121z" />
<glyph unicode="&#x107c;" horiz-adv-x="2119" d="M113 747q0 66 28.5 128t79.5 108q55 48 124 70.5t142 22.5q112 0 208.5 -46.5t168 -124t111.5 -172.5q23 -5 17 10q16 48 68 124q102 149 283 201q70 18 141 18q140 0 266 -65t207 -183q16 -24 16 -44q0 -34 -31.5 -59t-70.5 -25q-23 0 -44 10t-36 33 q-54 76 -136.5 116.5t-172.5 40.5q-54 0 -108 -16q-112 -38 -176 -140q-53 -84 -61 -188q62 8 123 15l118 14q18 2 36 5q44 6 88.5 10.5t87.5 4.5q52 0 102 -10t97 -35q67 -37 107.5 -99t40.5 -133q0 -30 -9 -61q-26 -87 -92.5 -144.5t-156 -84.5t-181.5 -27 q-155 0 -278 71.5t-192 187.5q-26 43 -42 85q-29 -83 -90 -162q-66 -86 -159.5 -142t-199.5 -56q-45 0 -91 12q-74 21 -121.5 76t-47.5 125q0 59 31.5 107t86 84t125.5 59q78 25 163 39q69 11 139 20v9q0 90 -43.5 172t-118 133.5t-168.5 51.5q-53 0 -100.5 -18.5t-79 -56 t-31.5 -96.5q0 -28 9 -62q3 -9 3 -19q0 -28 -23.5 -47.5t-54.5 -19.5q-38 0 -60 28t-32 68t-10 77zM462 226q0 -21 21 -29.5t48 -8.5q61 0 113.5 32.5t94.5 86.5q11 15 15 21q-5 20 -20 17q-17 -3 -35 -6q-55 -8 -110 -22.5t-99 -47.5q-28 -23 -28 -43zM1161 405 q14 -32 26 -51q53 -80 136.5 -124t182.5 -44q49 0 99 14q29 9 65.5 27t64.5 46t28 68q0 46 -26.5 70t-68 33.5t-90.5 9.5q-59 0 -118.5 -8.5t-105.5 -16.5q-34 -5 -54 -8q-54 -7 -107 -13q-15 -2 -32 -3z" />
<glyph unicode="&#x107d;" horiz-adv-x="2011" d="M50 865q0 61 38 121q89 114 233 114h10q32 -3 67.5 -13.5t58.5 -35.5q23 -30 33 -72t15 -83q55 -318 71 -421l37 -228l30 8l10 6q105 103 288 192q-15 63 -15 130q0 26 2 51q16 151 100.5 273t231.5 178q81 29 164 29q58 0 157.5 -24.5t196.5 -134.5q24 -32 24 -63 q0 -15 -13 -47.5t-60 -50.5q-15 -6 -30 -6q-37 0 -69 34q-85 97 -207 97q-65 0 -129 -33q-84 -49 -126 -139q-36 -79 -36 -162l1 -28l4 -26q174 55 324 55q51 0 128 -10.5t161 -65.5q120 -87 120 -226q0 -47 -23 -114.5t-103 -129.5q-92 -67 -198 -70h-19q-95 0 -191 38.5 t-175 104.5q-91 74 -145 165q-139 -72 -261 -194q-30 -32 -65.5 -58.5t-84.5 -31.5q-102 0 -153 79q-22 36 -31 78.5t-13 84.5q-26 180 -63 386l-55 -3q-72 0 -139.5 49.5t-92.5 139.5q-8 30 -8 57zM191 844q0 -43 39.5 -82t102.5 -44l-1 24q-17 114 -18 195q-15 15 -35 15 q-6 0 -14 -2q-46 -21 -66 -65q-8 -22 -8 -41zM1208 356q83 -119 221 -171q53 -20 104 -20q11 0 45 2.5t75 56.5q23 36 23 64q0 17 -14.5 41.5t-63 43.5t-94.5 22l-46 1q-117 0 -250 -40z" />
<glyph unicode="&#x107e;" horiz-adv-x="2040" d="M122 738q0 57 31 110.5t93 89.5q79 42 169 42q59 0 114 -16q31 -8 65.5 -21.5t59.5 -34.5q14 -15 18.5 -34.5t4.5 -39.5l-1 -37q-2 -17 -2 -32l1 -215q0 -175 -1 -336q106 63 229 134q-66 124 -66 242q0 134 68.5 248.5t190.5 185t280 70.5q139 0 258 -64t165 -193 q4 -13 4 -24q0 -36 -32 -58t-71 -22q-30 0 -55.5 15t-37.5 46q-25 70 -82.5 100t-127.5 30t-140.5 -25t-116.5 -67q-54 -50 -80.5 -111.5t-26.5 -126.5q0 -83 26 -133q8 -11 17 -11q5 0 15 6q64 38 131 73t139.5 58.5t150.5 23.5q92 0 174.5 -36t134.5 -102t52 -153 q0 -94 -64 -169t-167 -109q-83 -25 -165 -25q-54 0 -92 7q7 -25 39 -154q22 -90 41.5 -187.5t19.5 -185.5q0 -107 -37 -209t-127 -181q-83 -70 -185.5 -107t-213.5 -37q-162 0 -295 71t-222 190q-54 73 -86.5 163.5t-32.5 181.5q0 65 20 127q7 18 23 27t35 9 q23 0 40.5 -12.5t17.5 -34.5l-1 -64q0 -55 6 -108.5t26 -107.5q42 -106 117 -171.5t162.5 -95t161.5 -29.5q104 0 205 55q65 38 104 92t55 118.5t16 132.5q0 78 -17.5 166t-39.5 180q-47 199 -51 246q-74 40 -135 95q-31 0 -40 8q-89 -56 -365 -214q-24 -13 -48 -13 q-38 0 -67.5 23.5t-29.5 56.5v2q4 114 4 213q0 119 11 252l18 235h-1l2 68q-57 25 -120 25q-30 0 -59.5 -11t-48.5 -35t-19 -65q0 -48 33.5 -83t74.5 -35q28 0 52 17.5t27 51.5q1 22 19 35q11 8 26 20l1 -32q0 -177 -133 -208q-71 0 -127 34t-87.5 87t-31.5 112zM1173 307 q136 -123 315 -123q44 0 85.5 12t71.5 40q36 38 36 78q0 60 -53.5 96t-118.5 36q-57 0 -111.5 -21.5t-104.5 -49.5z" />
<glyph unicode="&#x107f;" horiz-adv-x="1508" d="M118 636q0 83 22 165q19 73 58 142q37 65 69 100q2 3 4 5l17 20q24 6 35 6q7 0 13 -1h1q24 0 49.5 -12t33.5 -17q77 -44 126 -124.5t49 -179.5q0 -104 -63 -191.5t-163 -124.5q-2 -1 -3 -1q50 -81 130 -132q113 -73 244 -75h7q127 0 234 82q77 61 114 157q23 63 23 124 q0 34 -7 68q-25 102 -96 156.5t-158 64.5q-69 10 -91 55q-11 23 -11 44q0 23 17 58t86 46l31 1q70 0 143.5 -33t137.5 -92q153 -147 153 -370q0 -125 -60 -250.5t-188 -212.5q-149 -99 -328 -99q-135 0 -263 57q-131 60 -225 171t-126 258q-15 68 -15 135zM300 662 q0 -76 24 -150l8 6q65 33 103.5 90.5t38.5 123.5q0 26 -6.5 46t-18.5 43q-27 50 -52 72q-11 8 -23 16q-5 -9 -10 -19q-19 -36 -35.5 -75.5t-24.5 -87.5q-4 -33 -4 -65z" />
<glyph unicode="&#x1080;" horiz-adv-x="120" />
<glyph unicode="&#x1081;" horiz-adv-x="1455" d="M-5 -820q0 122 55 240q68 137 195.5 226t279.5 89q29 0 58 -4q27 -5 40 -22t13 -35q0 -16 -12.5 -31.5t-40.5 -15.5h-13q-115 0 -215 -60t-162.5 -160.5t-62.5 -219.5q0 -104 52.5 -203.5t140 -164t192.5 -64.5q48 0 93 15t81 48q37 35 44.5 85t7.5 107q0 74 -10 148 t-23 147q-11 59 -19 116q-36 235 -90 617q-44 -25 -123 -25q-92 0 -171.5 52t-119.5 134q-41 93 -41 191q0 101 32 196q-12 2 -28 14q-27 20 -27 50q0 73 41.5 127.5t108.5 85.5q45 21 91 26q79 81 184 137q119 63 260 63q199 0 355.5 -124.5t184.5 -324.5v-9 q0 -34 -27 -53.5t-61 -19.5q-30 0 -55 15t-33 45q-35 127 -139 201t-227 74q-89 0 -169 -42l-21 -11l-13 -16q81 -66 127.5 -178.5t46.5 -252.5q0 -74 -17 -139q4 -5 7 -13q15 -43 19 -90q2 -16 5 -33q41 -262 99 -650q12 -85 20 -137q7 -43 15 -88q11 -56 19.5 -113.5 t8.5 -113.5q0 -53 -11 -102q-20 -82 -81.5 -153.5t-138.5 -108.5q-95 -43 -192 -43q-114 0 -211.5 48.5t-169.5 129.5t-112 183t-40 210zM343 390q0 -37 9 -72q12 -45 46 -83t78 -38q40 0 64 32t35 83.5t11 104.5q0 82 -22.5 154.5t-64.5 116.5q-18 19 -29 24 q-41 -50 -73 -115q-23 -47 -38.5 -100.5t-15.5 -106.5z" />
<glyph unicode="&#x1082;" d="M-693 -528q0 125 34 242q12 56 34.5 112.5t73.5 97.5q66 49 158 49q81 0 120 -62q8 -16 8 -30t-13.5 -36.5t-64.5 -24.5l-16 1q-26 0 -43 -15q-26 -32 -34 -76l-5 -19q-36 -120 -37 -243q0 -99 42 -193t138 -159q98 -62 228 -62q90 0 161 47q67 52 88 127q3 12 3 23 q0 32 -21 65t-61 60q-13 12 -13 23q0 10 13 24t35 14q12 0 27 -6q103 -61 124 -162q11 -48 11 -93q0 -5 -0.5 -31.5t-32.5 -77.5q-68 -100 -200 -139q-91 -27 -184 -27q-41 0 -84 5q-144 22 -252 98.5t-166 181.5q-71 131 -71 286z" />
<glyph unicode="&#x1083;" horiz-adv-x="632" d="M-144 802q-1 14 6 28q22 37 55 63t68 48l216 144q23 14 47 14q18 0 46 -13t40 -51q38 -160 53 -326l14 -112q47 -345 91 -691l93 -648q13 -106 39 -215t85.5 -193t169.5 -118q54 -15 104 -15q56 0 129.5 27t142.5 111t97 198q14 38 51 38q5 0 30 -4t29 -46 q-7 -165 -115.5 -294t-269.5 -177q-67 -18 -134 -18q-83 0 -197 38.5t-207 155.5q-89 119 -122 259t-47 286l-7 57q-142 1051 -163 1226l-17 139q-13 84 -19 155l-91 -53q-38 -23 -77 -41t-85 -21q-37 0 -50 29q-5 10 -5 20z" />
<glyph unicode="&#x1084;" horiz-adv-x="1426" d="M98 817q0 39 21 126t131 179q114 90 257.5 127.5t286.5 37.5q270 -1 520.5 -147t397.5 -381q13 -24 13 -36q0 -16 -23 -16q-1 0 -18.5 0.5t-63.5 40.5q-98 89 -203.5 166.5t-228.5 125.5q-185 71 -379 71q-60 0 -121 -7q-79 -9 -173 -40t-161.5 -91t-67.5 -158 q4 -63 35.5 -99t75.5 -50q95 53 211 53q6 0 70.5 -1.5t156.5 -81.5q25 -26 25 -58q0 -11 -8 -41t-58 -53q-97 -39 -194 -39q-79 0 -130 16l-25 3q-43 -54 -43 -107q0 -15 9 -55t87 -79q86 -38 196 -38q92 0 174 26q51 16 108 54.5t67 93.5q-2 2 -2 -24l33 -33 q-57 105 -57 154q0 53 53 79q18 8 36 8q33 0 62 -27q62 -70 62 -158q0 -50 -20 -101q-31 -71 -89 -119.5t-127 -79.5q-142 -62 -312 -62q-8 0 -102 1t-232 94q-142 109 -142 264q0 93 54 181q-58 36 -105 101q-57 87 -57 180zM553 563l24 12q2 -2 -5 0t8.5 0t32.5 -2t33.5 2 t28.5 5t6.5 -1t-5.5 15l-2 16q-5 3 -34 3q-6 0 -27.5 -3t-41.5 -14v-1z" />
<glyph unicode="&#x1085;" d="M-1383 1923q0 35 17 111.5t105 157.5q92 79 207.5 112t231.5 33q217 -1 418.5 -129.5t319.5 -335.5q11 -21 11 -31q0 -15 -21 -15q-1 0 -15.5 0.5t-52.5 36.5q-78 78 -162.5 146t-183.5 110q-147 62 -302 62q-48 0 -96 -6q-64 -7 -139 -34t-129 -80t-54 -139 q3 -56 28.5 -87.5t58.5 -42.5q75 46 169 46q5 0 57.5 -1.5t126.5 -72.5q21 -23 21 -51q0 -9 -6.5 -35.5t-47.5 -47.5q-78 -34 -157 -34q-64 0 -100 12l-22 5q-35 -47 -35 -94q0 -13 7 -48.5t70 -69.5q68 -33 155 -33q74 0 139 23q40 14 86 48t53 82q-1 2 -2 9q-18 33 -18 76 q0 47 43 69q14 8 30 8q28 0 52 -25q50 -61 50 -138q0 -44 -17 -89q-24 -63 -71 -105.5t-103 -69.5q-114 -55 -251 -55q-7 0 -83 1t-187 83q-114 96 -114 232q0 82 43 159q-46 32 -84 89q-46 76 -46 158zM-1007 1717q0 -6 39 -7q14 0 27 1.5t22 4t13 6.5l1 7q0 11 -18 14h-23 q-5 0 -21.5 -2t-31.5 -12q-8 -7 -8 -12z" />
<glyph unicode="&#x1086;" d="M-1211 1978q0 30 11.5 87.5t66.5 124.5q101 117 243 117q105 0 211.5 -55t181.5 -150q123 -161 123 -354q0 -166 -100 -310q-55 -78 -133.5 -132.5t-174.5 -73.5q-34 -6 -67 -6q-56 0 -124.5 23t-115.5 107q-4 9 -4 17q0 18 19 28q11 7 23 7q19 0 35 -19q46 -62 112 -62 q7 0 50.5 4t108.5 48q114 78 170 205q35 81 35 165q0 77 -17 121q-39 -120 -169 -178q-69 -30 -143 -30q-31 0 -63 5q-89 15 -157.5 69t-101.5 135q-20 53 -20 107zM-1014 1966q0 -45 27 -81q45 -60 126 -60h11q69 11 103 78q17 40 17 80q0 7 -2.5 34t-39.5 139v-50 q-43 22 -108 22q-72 -1 -115 -81q-19 -44 -19 -81z" />
<glyph unicode="&#x1087;" horiz-adv-x="615" d="M35 202q0 20 7.5 57t42.5 81q65 75 155 75q66 0 134 -35t117 -96q79 -105 79 -230q0 -109 -65 -202q-35 -50 -85.5 -85t-111.5 -46q-22 -4 -42 -4q-36 0 -79 14.5t-74 68.5q-2 7 -2 13q0 13 12 20q7 4 13 4q11 0 21 -11q31 -41 74 -41q5 0 33 2.5t71 31.5q109 81 109 208 q0 41 -7 68q-10 -42 -94 -79q-43 -19 -90 -19q-19 0 -40 3q-55 9 -99.5 44t-65.5 87q-13 35 -13 71zM182 206q0 -22 13 -39q23 -31 72 -31q36 6 52 39q9 20 9 39q0 4 -1.5 17.5t-9.5 39.5v-1q-32 16 -66 16q-38 0 -60 -40q-9 -22 -9 -40z" />
<glyph unicode="&#x1088;" horiz-adv-x="681" d="M-14 860q0 100 71 161q49 42 116 42h14q81 -9 138.5 -65t65.5 -138q0 -80 -49 -134q-60 -57 -138 -57q-18 0 -34 4q-12 -6 -31 -6q-22 0 -48 13q-7 0 -22 8q-34 25 -54 61q-29 53 -29 111zM35 202q0 20 7.5 57.5t43.5 81.5q64 74 154 74q67 0 134.5 -35t116.5 -96 q79 -105 79 -230q0 -108 -65 -201q-35 -51 -85.5 -85.5t-111.5 -46.5q-21 -4 -42 -4q-35 0 -78.5 14.5t-73.5 68.5q-3 7 -3 13q0 13 13 20q6 4 12 4q11 0 21 -11q30 -41 74 -41q5 0 33.5 2.5t70.5 31.5q111 83 111 203q0 35 -9 73q-10 -41 -94 -79q-43 -19 -90 -19 q-19 0 -40 3q-56 9 -100 44t-65 87q-13 35 -13 71zM123 865q0 -14 6 -33q1 -4 13 -22t35 -26l24 15q25 15 37 43q4 7 4 16q0 21 -21 48q-18 18 -35 18q-1 0 -10 -0.5t-20 -7.5q-10 -7 -12 -7q-21 -21 -21 -44zM182 206q0 -22 13 -39q23 -31 71 -31q37 5 54 39q8 20 8 39 q0 4 -1.5 17.5t-9.5 40.5v-2q-32 16 -66 16q-38 0 -60 -40q-9 -22 -9 -40z" />
<glyph unicode="&#x1089;" horiz-adv-x="698" d="M131 188q0 100 71 161q49 42 116 42h14q81 -9 138.5 -65t65.5 -138v-8q0 -72 -49 -126q-60 -57 -138 -57q-18 0 -34 4q-12 -6 -31 -6q-16 0 -31 6q-3 0 -17 7q-7 0 -22 8q-34 25 -54 61q-29 53 -29 111zM220 29l23 -28zM268 193q0 -14 6 -33q1 -4 13 -22t35 -26l24 15 q25 15 37 43q4 7 4 16q0 21 -21 48l-1 1q-18 17 -34 17q-1 0 -10 -0.5t-20 -7.5q-10 -7 -12 -7q-21 -21 -21 -44z" />
<glyph unicode="&#x108a;" horiz-adv-x="806" d="M110 199q0 74 53 127t127 53q73 0 126 -53t53 -127q0 -20 -2 -31q74 35 130 92.5t69 102.5h5q0 -62 -10.5 -123t-46 -110.5t-106.5 -80t-192 -30.5q-17 0 -34 2l-17 1q-66 10 -110.5 60t-44.5 117zM110 838q0 74 53 127t127 53q73 0 126 -53t53 -127q0 -20 -2 -31 q74 34 130 92t69 103h5q0 -62 -10.5 -123t-46 -110.5t-106.5 -80t-192 -30.5q-17 0 -34 1l-17 1q-66 11 -110.5 61t-44.5 117zM216 199q0 -31 21.5 -52t52.5 -21t52 21t21 52t-21 52.5t-52 21.5t-52.5 -21.5t-21.5 -52.5zM216 838q0 -31 21.5 -52t52.5 -21t52 21t21 52 t-21 52.5t-52 21.5t-52.5 -21.5t-21.5 -52.5z" />
<glyph unicode="&#x1090;" horiz-adv-x="1663" d="M166 895l1 38q6 171 59 323.5t143 270t208.5 185t255.5 67.5q85 0 167.5 -30.5t140.5 -94.5q106 -82 172.5 -210t98.5 -259q40 -155 40 -323l-1 -51q-6 -194 -71.5 -379t-200.5 -316q-77 -71 -160 -104t-166 -33q-110 0 -214 49.5t-191 134.5t-146 191q-71 129 -105 278 q-31 130 -31 263zM361 927q0 -122 34 -245.5t107 -235.5q66 -100 166 -166t207 -66q61 0 119.5 27t110.5 87q83 101 123.5 228.5t44.5 259.5l1 38q0 126 -30 245q-13 57 -38.5 124.5t-62 128.5t-85.5 101.5t-111 40.5q-36 0 -66.5 -18t-51.5 -58q-13 -25 -33.5 -38 t-42.5 -13q-37 0 -69.5 30t-32.5 71v3q1 27 13.5 55.5t19.5 38.5l1 2q-85 -35 -158 -133.5t-112 -204.5q-54 -149 -54 -302z" />
<glyph unicode="&#x1091;" horiz-adv-x="840" d="M54 1556q0 8 7 33t55 32q77 3 141.5 23.5t114.5 80.5q28 29 62 29q19 0 55 -17.5t42 -76.5q6 -522 6 -1044l1 -362q47 21 109 21q36 0 73 -9q60 -23 60 -77q0 -1 -1 -30.5t-58 -54.5q-35 -13 -68 -21q-39 -10 -75 -24.5t-69 -43.5q-32 -25 -66 -25q-19 0 -56 14t-41 80 l-2 967l1 432q-51 -22 -119 -22q-3 0 -40 0.5t-102 41.5q-30 22 -30 53z" />
<glyph unicode="&#x1092;" horiz-adv-x="1355" d="M47 1005q0 11 8 40t58 31q62 -4 105 -11q-35 86 -35 193q0 32 9.5 119t102.5 202q118 135 291 170q56 11 110 11q114 0 223 -48q163 -77 250 -235q67 -125 67 -262q0 -37 -5 -76q-28 -155 -124.5 -273.5t-212.5 -216.5l-26 -22q-240 -198 -269 -349q-5 -22 -5 -41 q0 -12 2 -24q3 -20 19 -20l19 1q53 0 82.5 -37.5t29.5 -78.5q0 -9 -5 -40t-71 -45q-21 -3 -40 -3q-78 0 -147.5 48.5t-91.5 150.5q-4 29 -4 57q0 62 26 136t79 146q53 74 117 135.5t133 120.5q74 63 145 133q98 97 136 218q14 43 14 87q0 78 -42 160q-80 138 -223 178 q-45 13 -89 13q-97 0 -192 -58q-129 -91 -129 -251q0 -46 19 -118t89 -145q24 -32 24 -63q0 -23 -12 -46q-26 -45 -77 -45q-12 0 -24 2q-154 41 -301 104q-33 20 -33 52z" />
<glyph unicode="&#x1093;" horiz-adv-x="1492" d="M74 77q0 38 424 1120q77 196 103 267q29 83 62.5 163.5t80.5 153.5q27 39 64 39q36 0 62 -28q22 -24 22 -60l-1 -12q-15 -87 -45 -171.5t-64 -165.5l-20 -52q86 -25 155.5 -104.5t111.5 -179.5t55.5 -191.5t20.5 -183.5q7 -119 29 -236q10 -47 31.5 -103t60.5 -91 q25 -22 59 -22q16 0 34 4.5t33 4.5q43 0 70 -33q28 -34 28 -77q0 -10 -5 -43t-70 -55q-39 -9 -75 -9q-66 0 -142 38t-132 130q-53 94 -74.5 200.5t-28.5 211.5l-5 60q-5 90 -18 178.5t-48 169.5q-27 60 -68.5 102t-84.5 66l-38 -102q-255 -675 -384 -1008q-30 -67 -101 -67 q-42 0 -74 26q-28 23 -28 60z" />
<glyph unicode="&#x1094;" horiz-adv-x="1478" d="M148 82q2 199 32.5 397.5t71.5 392.5q80 394 203 776q27 77 100 77q22 0 54.5 -14t52.5 -62q124 -314 253 -626q146 -353 281 -698q107 74 253 74h11q74 -11 74 -77q0 -49 -53 -75q-69 -25 -130.5 -65t-105.5 -96q-42 -53 -107 -53q-52 0 -80 55q-182 434 -353 874 l-128 323q-112 -414 -176 -835q-30 -197 -70 -392q-18 -68 -86 -68q-28 0 -61.5 19.5t-35.5 72.5z" />
<glyph unicode="&#x1095;" horiz-adv-x="1236" d="M76 550q0 132 74.5 285.5t258.5 263.5q176 98 391 98q31 0 51 -1q-10 146 -17 204q-12 109 -12 183q0 56 10 110q16 63 78 63q20 0 48.5 -11.5t42.5 -50.5q19 -53 24 -111t6 -116l3 -77l17 -234q111 -36 201 -118q22 -24 22 -50q0 -19 -10 -37q-23 -38 -64 -38 q-19 0 -136 41q24 -344 24 -421q0 -80 -16.5 -176t-90.5 -190q-126 -144 -316 -172q-35 -4 -70 -4q-164 0 -306.5 107t-195.5 306q-17 75 -17 146zM266 545q0 -103 58 -204q80 -127 217 -153q31 -6 61 -6q103 0 197 71q65 55 84 130q15 61 15 126q0 89 -19 296 q-15 178 -15 201q-30 4 -72 4q-204 0 -361 -127q-122 -106 -155 -253q-10 -43 -10 -85z" />
<glyph unicode="&#x1096;" horiz-adv-x="1339" d="M110 1225q0 69 14 141q53 226 233 342q132 84 289 84q57 0 118 -11q217 -48 323 -243q53 -108 64 -227q10 -100 10 -200l2 -169v-12q43 40 86 109q23 36 63 36q38 0 64 -26q18 -18 18 -42q0 -13 -5 -28q-75 -180 -218 -284v-6q10 -177 10 -353q0 -122 -5 -243 q-8 -69 -57 -92q-24 -11 -49 -11t-63 17.5t-46 85.5q-12 200 -12 401l1 94q-77 -23 -168 -23q-124 0 -252 50q-228 97 -340 301q-80 145 -80 309zM319 1224q0 -125 81 -251.5t249 -182.5q73 -21 144 -21q83 0 157 26v130q0 41 2 87q2 52 2 107t-4 138.5t-44 172.5t-138 131 q-65 23 -126 23q-81 0 -179.5 -58.5t-135.5 -214.5q-8 -44 -8 -87z" />
<glyph unicode="&#x1097;" horiz-adv-x="1373" d="M108 92q0 16 5 33q303 788 836 1409h-16q-193 -7 -387 -7q-166 0 -332 11q-57 7 -76 49q-9 19 -9 39q0 21 14.5 52t70.5 39q178 18 358 22t359 4l250 1q70 -3 93 -62q8 -21 8 -40q0 -38 -29 -72q-557 -591 -863 -1325q207 42 424 42q78 0 192 -9q56 -3 113.5 -13.5 t104.5 -42.5q41 -33 41 -80q0 -4 -2.5 -33.5t-61.5 -52.5q-38 -10 -79 -10q-7 0 -34 1t-73 7q-104 12 -217 12q-284 0 -555 -73q-13 -3 -26 -3q-42 0 -75.5 30.5t-33.5 71.5z" />
<glyph unicode="&#x1098;" horiz-adv-x="1341" d="M74 598q0 103 42.5 232t175.5 243l35 27l-74 37q-21 14 -88 112.5t-67 219.5q4 107 67.5 193.5t174.5 105.5l12 1q37 0 56.5 -22.5t19.5 -49.5q0 -7 -4 -28t-46 -40q-60 -26 -85 -81q-16 -36 -16 -73q0 -22 6 -45q18 -62 64.5 -108t102.5 -77q35 -21 66 -35 q55 28 112.5 61t108.5 77q98 82 98 167l-1 15q-14 88 -100 103q-75 15 -75 94q0 32 17 62q26 45 82 45h3q134 -13 213 -112q75 -94 75 -221v-10q-10 -131 -92.5 -228.5t-171.5 -150.5q55 -18 127 -50t137 -82q131 -104 180 -256q30 -89 30 -180q0 -63 -24.5 -173 t-148.5 -225q-179 -156 -411 -156q-91 0 -212 37t-235 162q-154 176 -154 409zM292 589q0 -13 4 -75t74 -156q67 -88 168 -129q69 -29 144 -29q33 0 66 6q109 21 191.5 93t106.5 182q9 46 9 86q0 90 -52 166.5t-165.5 134t-240.5 101.5l-41 14q-64 -35 -121.5 -84 t-95.5 -121q-47 -91 -47 -189z" />
<glyph unicode="&#x1099;" horiz-adv-x="1360" d="M99 1308q0 58 20.5 143.5t93.5 175.5q103 124 255 172q89 27 179 27q62 0 170.5 -23.5t220.5 -141.5q117 -133 117 -281q0 -3 -1.5 -79.5t-84 -214t-192.5 -225.5q86 -38 173 -108q79 -65 130.5 -155t58.5 -194l1 -20q0 -81 -38 -160.5t-123 -118.5q-14 -5 -26 -5 q-24 0 -40 20q-11 13 -11 29q0 18 14 37q61 80 61 159q0 31 -21 101t-129 147q-118 77 -246 124q-113 -77 -211 -180q-72 -79 -100 -183q-10 -34 -10 -67q0 -67 39 -132q17 -31 17 -59q0 -27 -25 -62.5t-84 -42.5l-13 -1q-52 0 -87 53q-63 106 -63 223q0 3 1 65t53 175 q46 99 117.5 175.5t143.5 130.5q-21 10 -55 30q-102 60 -181.5 148.5t-110.5 206.5q-13 55 -13 111zM313 1321q0 -38 11 -79q32 -105 121.5 -170.5t187.5 -105.5l25 -11q59 42 115.5 93.5t100.5 116.5q66 101 66 205q0 91 -77 165q-91 77 -208 77q-90 0 -177 -43.5 t-134 -128.5q-31 -54 -31 -119z" />
<glyph unicode="&#x109e;" horiz-adv-x="828" d="M44 802q1 14 10 28q24 37 59.5 63t73.5 48l230 144q24 14 48 14q18 0 45 -13t35 -51q22 -160 22 -326l3 -112q14 -345 25 -691l31 -648q2 -106 18 -215t67.5 -193t157.5 -118q52 -15 102 -15q56 0 132.5 27t153.5 111t116 198q17 38 54 38q6 0 30.5 -4t23.5 -46 q-22 -165 -143 -294t-287 -177q-69 -18 -135 -18q-83 0 -193.5 38.5t-192.5 155.5q-77 119 -96.5 259t-19.5 286l-2 57q-41 1051 -45 1226l-4 139q-5 84 -4 155l-97 -53q-40 -23 -80.5 -41t-86.5 -21q-37 0 -47 29q-4 10 -4 20zM167 1466q0 -79 55.5 -134.5t134.5 -55.5 q78 0 134 55.5t56 134.5q0 78 -56 133.5t-134 55.5q-79 0 -134.5 -55.5t-55.5 -133.5z" />
<glyph unicode="&#x109f;" horiz-adv-x="1673" d="M115 538q0 102 46 227t152 214q137 107 301 107q116 0 227 -59.5t169 -196.5q34 -91 45.5 -190t14.5 -199l5 -91q43 -622 48 -756q7 -191 28 -377q4 -45 17 -92t44 -77q22 -15 44 -15q17 0 45 15t46 58l2 3q-13 337 -31 675l-26 514l-3 128q-1 177 -25 347 q-12 97 -51.5 186.5t-126.5 136.5q-51 23 -109 32.5t-116 14.5q-78 6 -152 21q-94 22 -166 81t-100 156q-13 53 -13 104q0 89 52 189.5t177 167.5q98 54 210 54q28 0 57 -3q104 -16 198 -75t153.5 -146.5t59 -191t-85.5 -203.5q-23 -25 -47 -25q-8 0 -28.5 6.5t-34.5 37.5 q-9 15 -9 30q0 17 11 35q34 61 34 115q0 46 -38.5 112.5t-150.5 111.5q-67 27 -133 27q-44 0 -120 -20t-123 -152q-15 -47 -15 -83q0 -52 36.5 -94.5t125 -62.5t182.5 -26q68 -6 118 -15q182 -40 275.5 -173t119.5 -310q20 -137 28.5 -278.5t11.5 -282.5q3 -128 10 -254 q27 -462 45 -897v-17l-2 -8q-14 -97 -104.5 -160.5t-191.5 -67.5q-93 1 -155.5 57t-92.5 138q-24 72 -33 147.5t-11 151.5q-69 1063 -70 1110q-2 86 -12 169.5t-43 155.5q-40 79 -116 113q-52 23 -110 23q-27 0 -57 -6q-72 -14 -125.5 -58.5t-79.5 -97.5h-1q0 -1 7 -1 q15 0 29 -7q235 -120 235 -303q0 -24 -3 -49q-29 -124 -130 -172q-47 -22 -95 -22q-57 0 -115 32q-129 78 -151 224q-7 44 -7 87zM299 569q0 -41 10 -82q6 -23 21 -55t39 -51q14 -11 28 -11q12 0 25 6q27 17 27 49q0 8 -6 36.5t-25 55.5q-48 56 -114 110q-5 -24 -5 -58z" />
<glyph unicode="&#x1e0c;" horiz-adv-x="1699" d="M111 560l1 37q8 75 43 149t96 122q55 42 129 42h15q38 -5 64.5 -29t35.5 -57l-3 46q-12 190 -32 591q0 51 38 68q19 9 38 9t47.5 -13t34.5 -64q45 -716 45 -901q0 -14 -1.5 -47.5t-16.5 -83.5q-15 -38 -56 -38q-25 0 -39 26q-22 50 -30 105t-11 110q-5 55 -11 154 q-4 -42 -50 -70q-82 -46 -95 -112q-4 -19 -4 -39q0 -48 29.5 -108t89 -117t123.5 -84q78 -31 157 -31q34 0 108 12.5t174.5 76t170.5 153.5q147 193 147 434q0 97 -27 194q-45 155 -156.5 271t-263.5 170q-124 45 -240 45q-81 0 -165.5 -28.5t-149.5 -114.5q-29 -38 -69 -38 q-5 0 -30.5 3t-46.5 54q-10 35 -10 67q0 54 40.5 113t127 103.5t166 58t157.5 13.5q186 0 363 -78q227 -102 363.5 -294t160.5 -438q4 -45 4 -88q0 -201 -92 -407.5t-291 -355.5q-139 -100 -304 -135q-76 -16 -151 -16q-88 0 -212 31t-248 156q-79 81 -125 189 q-38 89 -38 184zM664 -224q0 73 43 117t101 44q61 0 104 -44t43 -86q0 -46 -11 -72.5t-32 -47.5q-43 -42 -104 -42q-58 0 -102 42q-42 45 -42 89z" />
<glyph unicode="&#x1e0d;" horiz-adv-x="1365" d="M123 634q2 117 51.5 235t176.5 205q114 75 258 75q79 0 166.5 -29.5t145.5 -113.5l-5 54q-12 97 -17 275l-16 187q-4 18 -4 151l1 82h4q7 44 41 66q24 16 51 16q10 0 32.5 -5.5t34.5 -54.5q31 -173 31 -266l-1 -29l8 -168l43 -576q8 -93 9 -192q18 -120 52 -234 q12 -44 33.5 -85t63.5 -61q30 -13 60 -13q9 0 34 3.5t53 36.5q23 25 49 25q9 0 31 -6.5t41 -40.5q9 -16 9 -33q0 -19 -11 -38q-67 -107 -206 -107q-25 0 -75.5 8.5t-108.5 52.5q-66 53 -100 131q-59 -103 -201 -157q-84 -30 -167 -30q-47 0 -136 17.5t-194.5 99 t-165.5 200.5q-71 145 -71 319zM300 611q8 -126 73 -234t173 -161q62 -31 134 -31q52 0 108 16q100 35 134 118q31 74 32 160q0 159 -17 326q-16 -8 -34 -8q-12 0 -34 6.5t-36 39.5q-55 138 -220 138q-61 0 -120 -25q-103 -48 -150 -141q-42 -81 -43 -174v-30zM637 -224 q0 73 43 117t101 44q61 0 104 -44t43 -86q0 -46 -11 -72.5t-32 -47.5q-43 -42 -104 -42q-58 0 -102 42q-42 45 -42 89z" />
<glyph unicode="&#x1e36;" horiz-adv-x="1221" d="M127 1646q0 37 2.5 64.5t16 50.5t43.5 46q16 10 34 10q21 0 39 -10q47 -29 58 -69.5t13 -91.5q26 -374 41 -653q22 -375 39 -752q85 8 169 8q71 0 141 -4q107 -4 223 -15t211 -60q21 -12 31.5 -32t10.5 -43q0 -28 -15.5 -52t-46.5 -31q-48 -9 -97 -9q-76 0 -152.5 12 t-150.5 18q-49 3 -97 3q-154 0 -304 -33q-14 -3 -27 -3q-46 0 -78.5 31t-36.5 81q-38 744 -40 800t-20 506q-5 114 -7 228zM601 -224q0 73 43 117t101 44q61 0 104 -44t43 -86q0 -46 -11 -72.5t-32 -47.5q-43 -42 -104 -42q-58 0 -102 42q-42 45 -42 89z" />
<glyph unicode="&#x1e37;" horiz-adv-x="619" d="M130 1654l1 29q0 7 1 38.5t28 79.5q22 33 62 33q25 0 42 -19q31 -40 39.5 -86t8.5 -96l17 -272l45 -834l2 -78q1 -91 13 -179q3 -16 6.5 -29t8 -23t11 -17.5t14.5 -12.5t18.5 -8.5t23 -5t28.5 -1.5q41 -3 60 -36q9 -17 9 -35q-1 -18 -12 -37q-46 -68 -132 -68 q-32 0 -64 11q-58 21 -94 68t-53 104q-25 98 -25 202l-1 86q-2 8 -15 279q-16 342 -22 511q-6 84 -12 267q-1 28 -4 58q-4 36 -4 71zM220 -224q0 73 43 117t101 44q61 0 104 -44t43 -86q0 -46 -11 -72.5t-32 -47.5q-43 -42 -104 -42q-58 0 -102 42q-42 45 -42 89z" />
<glyph unicode="&#x1e40;" horiz-adv-x="1966" d="M164 1660q0 52 13 102q12 37 38.5 55t56.5 18q32 0 60.5 -18.5t42.5 -54.5q28 -71 76.5 -134t96.5 -123q206 -276 388 -590q41 140 105.5 272t141.5 256q51 85 106.5 171t119.5 162q63 67 135 67q38 0 71 -21.5t52 -68.5q16 -44 20.5 -96t9.5 -100q8 -57 66 -613 q42 -416 86 -832l1 -15q0 -48 -32.5 -72.5t-73.5 -24.5q-44 0 -82.5 28t-45.5 84q-26 282 -132 1385q0 8 -1 14q-117 -174 -234.5 -374t-207.5 -445q-9 -25 -31.5 -40t-46.5 -15q-18 0 -34 9t-26 28q-93 180 -220 377t-253 368l-31 44q8 -284 24.5 -608.5t16.5 -482.5 q0 -134 -12 -267q-6 -44 -40 -70t-72 -26q-28 0 -50 16.5t-29 53.5q-32 208 -38.5 419.5t-11.5 421.5l-18 619q-1 30 -3 60.5t-2 60.5zM700 2047q0 73 43 117t101 44q61 0 104 -44t43 -86q0 -46 -11 -72.5t-32 -47.5q-43 -42 -104 -42q-58 0 -102 42q-42 45 -42 89z" />
<glyph unicode="&#x1e41;" horiz-adv-x="1887" d="M78 1063q1 17 16 33q38 33 78 33q19 0 57.5 -15.5t67.5 -75.5l5 -11l3 -10q47 51 111 86q102 55 215 55q8 0 72 -2t164 -73q69 -53 108 -121q139 184 359 184q74 0 164.5 -34.5t150.5 -150.5q36 -79 46.5 -166.5t13.5 -175.5l3 -73l27 -462q-1 -40 -33.5 -69t-69.5 -29 q-43 0 -69.5 29.5t-28.5 71.5q-19 503 -19 522v43q0 73 -11 149.5t-65 125.5q-57 46 -129 46q-5 0 -46 -2.5t-106 -42.5q-71 -48 -113 -122l-11 -18q13 -65 17 -132q6 -100 10 -199l9 -159q7 -62 7 -124l-3 -87q-7 -52 -47 -76q-29 -17 -58 -17q-12 0 -39.5 7t-39.5 60 q-17 105 -18 214q0 19 -12 341q-1 86 -21 170.5t-91 136.5q-61 40 -130 40q-8 0 -51.5 -3t-106.5 -58q-51 -44 -71.5 -102t-22.5 -121q38 -280 50 -563q-2 -55 -45 -79q-29 -15 -58 -15q-16 0 -46.5 7.5t-41.5 60.5q-21 158 -39 317q-20 133 -20 235q0 87 18 159l-7 90 q-1 37 -10.5 75t-42.5 44q-34 5 -45 33q-5 10 -5 20zM790 1405q0 73 43 117t101 44q61 0 104 -44t43 -86q0 -46 -11 -72.5t-32 -47.5q-43 -42 -104 -42q-58 0 -102 42q-42 45 -42 89z" />
<glyph unicode="&#x1e42;" horiz-adv-x="1966" d="M164 1660q0 52 13 102q12 37 38.5 55t56.5 18q32 0 60.5 -18.5t42.5 -54.5q28 -71 76.5 -134t96.5 -123q206 -276 388 -590q41 140 105.5 272t141.5 256q51 85 106.5 171t119.5 162q63 67 135 67q38 0 71 -21.5t52 -68.5q16 -44 20.5 -96t9.5 -100q8 -57 66 -613 q42 -416 86 -832l1 -15q0 -48 -32.5 -72.5t-73.5 -24.5q-44 0 -82.5 28t-45.5 84q-26 282 -132 1385q0 8 -1 14q-117 -174 -234.5 -374t-207.5 -445q-9 -25 -31.5 -40t-46.5 -15q-18 0 -34 9t-26 28q-93 180 -220 377t-253 368l-31 44q8 -284 24.5 -608.5t16.5 -482.5 q0 -134 -12 -267q-6 -44 -40 -70t-72 -26q-28 0 -50 16.5t-29 53.5q-32 208 -38.5 419.5t-11.5 421.5l-18 619q-1 30 -3 60.5t-2 60.5zM935 -224q0 73 43 117t101 44q61 0 104 -44t43 -86q0 -46 -11 -72.5t-32 -47.5q-43 -42 -104 -42q-58 0 -102 42q-42 45 -42 89z" />
<glyph unicode="&#x1e43;" horiz-adv-x="1887" d="M78 1063q1 17 16 33q38 33 78 33q19 0 57.5 -15.5t67.5 -75.5l5 -11l3 -10q47 51 111 86q102 55 215 55q8 0 72 -2t164 -73q69 -53 108 -121q139 184 359 184q74 0 164.5 -34.5t150.5 -150.5q36 -79 46.5 -166.5t13.5 -175.5l3 -73l27 -462q-1 -40 -33.5 -69t-69.5 -29 q-43 0 -69.5 29.5t-28.5 71.5q-19 503 -19 522v43q0 73 -11 149.5t-65 125.5q-57 46 -129 46q-5 0 -46 -2.5t-106 -42.5q-71 -48 -113 -122l-11 -18q13 -65 17 -132q6 -100 10 -199l9 -159q7 -62 7 -124l-3 -87q-7 -52 -47 -76q-29 -17 -58 -17q-12 0 -39.5 7t-39.5 60 q-17 105 -18 214q0 19 -12 341q-1 86 -21 170.5t-91 136.5q-61 40 -130 40q-8 0 -51.5 -3t-106.5 -58q-51 -44 -71.5 -102t-22.5 -121q38 -280 50 -563q-2 -55 -45 -79q-29 -15 -58 -15q-16 0 -46.5 7.5t-41.5 60.5q-21 158 -39 317q-20 133 -20 235q0 87 18 159l-7 90 q-1 37 -10.5 75t-42.5 44q-34 5 -45 33q-5 10 -5 20zM890 -242q0 73 43 117t101 44q61 0 104 -44t43 -86q0 -46 -11 -72.5t-32 -47.5q-43 -42 -104 -42q-58 0 -102 42q-42 45 -42 89z" />
<glyph unicode="&#x1e44;" horiz-adv-x="1701" d="M182 1535q0 120 14 239q8 40 38.5 60t67.5 20q38 0 70.5 -20t40.5 -60q7 -51 28 -95q32 -53 68 -104q69 -105 138 -208q69 -104 134 -210t136 -208q103 -146 208.5 -293t221.5 -284q-40 266 -80 531q-24 161 -39.5 323.5t-15.5 325.5q0 96 6 192q7 59 47 88.5t86 29.5 q44 0 79.5 -26.5t35.5 -80.5l-1 -11q-7 -99 -7 -198q0 -157 14 -313.5t34 -312.5q16 -119 32.5 -239t28.5 -240.5t12 -240.5q0 -52 -3 -105q-3 -42 -32.5 -67t-64.5 -25q-21 0 -40.5 11t-33.5 34q-121 212 -270 408.5t-294 393.5q-71 99 -145.5 194.5t-146.5 193.5 q-62 89 -124 179q0 -234 16.5 -478.5t36 -459t32.5 -368.5l1 -9q0 -49 -37.5 -75.5t-81.5 -26.5q-36 0 -66.5 19.5t-39.5 61.5q-52 310 -78 715t-26 739zM700 2047q0 73 43 117t101 44q61 0 104 -44t43 -86q0 -46 -11 -72.5t-32 -47.5q-43 -42 -104 -42q-58 0 -102 42 q-42 45 -42 89z" />
<glyph unicode="&#x1e45;" horiz-adv-x="1310" d="M1 1094q1 12 7 25q20 34 68 34q92 -19 142 -82t74 -145q63 104 173 168t234 64q109 0 199 -56q105 -74 134.5 -187.5t35.5 -232.5l30 -363q1 -42 12.5 -86t53.5 -45q68 0 88 -45q9 -21 9 -42v-4q0 -25 -18.5 -61.5t-84.5 -43.5h-12q-69 0 -128 37t-90 101 q-24 55 -31.5 114t-9.5 119l-25 351q-2 46 -9 92.5t-28 86.5q-45 75 -133 75q-78 0 -146 -43q-149 -106 -149 -375q0 -100 16 -220q15 -110 15 -222v-37q-7 -61 -56 -81q-23 -9 -46 -9q-25 0 -60.5 15t-37.5 75q-5 111 -18 220q-15 113 -15 226v37l2 70q-22 157 -57 299 q-16 96 -111 133q-28 16 -28 38zM465 1441q0 73 43 117t101 44q61 0 104 -44t43 -86q0 -46 -11 -72.5t-32 -47.5q-43 -42 -104 -42q-58 0 -102 42q-42 45 -42 89z" />
<glyph unicode="&#x1e46;" horiz-adv-x="1701" d="M182 1535q0 120 14 239q8 40 38.5 60t67.5 20q38 0 70.5 -20t40.5 -60q7 -51 28 -95q32 -53 68 -104q69 -105 138 -208q69 -104 134 -210t136 -208q103 -146 208.5 -293t221.5 -284q-40 266 -80 531q-24 161 -39.5 323.5t-15.5 325.5q0 96 6 192q7 59 47 88.5t86 29.5 q44 0 79.5 -26.5t35.5 -80.5l-1 -11q-7 -99 -7 -198q0 -157 14 -313.5t34 -312.5q16 -119 32.5 -239t28.5 -240.5t12 -240.5q0 -52 -3 -105q-3 -42 -32.5 -67t-64.5 -25q-21 0 -40.5 11t-33.5 34q-121 212 -270 408.5t-294 393.5q-71 99 -145.5 194.5t-146.5 193.5 q-62 89 -124 179q0 -234 16.5 -478.5t36 -459t32.5 -368.5l1 -9q0 -49 -37.5 -75.5t-81.5 -26.5q-36 0 -66.5 19.5t-39.5 61.5q-52 310 -78 715t-26 739zM844 -233q0 73 43 117t101 44q61 0 104 -44t43 -86q0 -46 -11 -72.5t-32 -47.5q-43 -42 -104 -42q-58 0 -102 42 q-42 45 -42 89z" />
<glyph unicode="&#x1e47;" horiz-adv-x="1310" d="M1 1094q1 12 7 25q20 34 68 34q92 -19 142 -82t74 -145q63 104 173 168t234 64q109 0 199 -56q105 -74 134.5 -187.5t35.5 -232.5l30 -363q1 -42 12.5 -86t53.5 -45q68 0 88 -45q9 -21 9 -42v-4q0 -25 -18.5 -61.5t-84.5 -43.5h-12q-69 0 -128 37t-90 101 q-24 55 -31.5 114t-9.5 119l-25 351q-2 46 -9 92.5t-28 86.5q-45 75 -133 75q-78 0 -146 -43q-149 -106 -149 -375q0 -100 16 -220q15 -110 15 -222v-37q-7 -61 -56 -81q-23 -9 -46 -9q-25 0 -60.5 15t-37.5 75q-5 111 -18 220q-15 113 -15 226v37l2 70q-22 157 -57 299 q-16 96 -111 133q-28 16 -28 38zM646 -224q0 73 43 117t101 44q61 0 104 -44t43 -86q0 -46 -11 -72.5t-32 -47.5q-43 -42 -104 -42q-58 0 -102 42q-42 45 -42 89z" />
<glyph unicode="&#x1e6c;" horiz-adv-x="1383" d="M5 1691q0 26 14 47.5t43 27.5q71 13 143.5 17.5t145.5 4.5q83 0 167 -3t166 -5q159 -3 318 -7q75 -1 154.5 -8t149.5 -32q28 -11 42.5 -33t14.5 -46q0 -23 -14 -43.5t-43 -30.5q-52 -16 -108.5 -21.5t-113.5 -5.5q-137 0 -374 11q20 -171 26.5 -343.5t13.5 -343.5 q7 -135 12.5 -271t5.5 -272q0 -119 -7 -237q-4 -45 -38.5 -71t-73.5 -26q-29 0 -52 17t-29 54q-26 193 -36 387.5t-15 388.5q-5 137 -11.5 275t-6.5 275q0 86 4 172q-111 1 -222.5 8.5t-218.5 32.5q-28 8 -42.5 31t-14.5 50zM574 -224q0 73 43 117t101 44q61 0 104 -44 t43 -86q0 -46 -11 -72.5t-32 -47.5q-43 -42 -104 -42q-58 0 -102 42q-42 45 -42 89z" />
<glyph unicode="&#x1e6d;" horiz-adv-x="807" d="M12 1159q0 14 16 27q41 24 87 24l-2 136q0 115 13 231q14 52 68 52t69 -52q32 -186 32 -406q100 -41 152 -41q23 0 46 4q39 0 54 -36q6 -13 6 -27q0 -21 -16 -38q-47 -36 -100 -36q-9 0 -45.5 3t-94.5 37l15 -523q0 -24 -2 -59l-1 -71q1 -56 14 -130.5t103 -91.5h5 q54 0 114 38t80 92q4 12 4 24q-1 39 -56 69q-25 18 -25 43q0 7 5 28.5t42 23.5q135 -16 165 -152l3 -42q0 -121 -99.5 -203t-219.5 -82q-15 0 -91.5 6t-162.5 131q-37 63 -47.5 134.5t-11.5 144.5l-7 272l-7 449l-17 1q-20 0 -39 -9l-16 -3q-18 0 -27 16q-6 8 -6 16z M265 -224q0 73 43 117t101 44q61 0 104 -44t43 -86q0 -46 -11 -72.5t-32 -47.5q-43 -42 -104 -42q-58 0 -102 42q-42 45 -42 89z" />
<glyph unicode="&#x2000;" horiz-adv-x="1247" />
<glyph unicode="&#x2001;" horiz-adv-x="2494" />
<glyph unicode="&#x2002;" horiz-adv-x="1247" />
<glyph unicode="&#x2003;" horiz-adv-x="2494" />
<glyph unicode="&#x2004;" horiz-adv-x="831" />
<glyph unicode="&#x2005;" horiz-adv-x="623" />
<glyph unicode="&#x2006;" horiz-adv-x="415" />
<glyph unicode="&#x2007;" horiz-adv-x="415" />
<glyph unicode="&#x2008;" horiz-adv-x="311" />
<glyph unicode="&#x2009;" horiz-adv-x="498" />
<glyph unicode="&#x200a;" horiz-adv-x="138" />
<glyph unicode="&#x200b;" horiz-adv-x="682" />
<glyph unicode="&#x200c;" horiz-adv-x="819" />
<glyph unicode="&#x200d;" horiz-adv-x="819" />
<glyph unicode="&#x2010;" horiz-adv-x="1063" d="M116 443v101q0 35 68 35h594q68 0 68 -35v-101q0 -34 -67 -34h-596q-67 0 -67 34z" />
<glyph unicode="&#x2011;" horiz-adv-x="1063" d="M116 443v101q0 35 68 35h594q68 0 68 -35v-101q0 -34 -67 -34h-596q-67 0 -67 34z" />
<glyph unicode="&#x2012;" horiz-adv-x="1063" d="M116 443v101q0 35 68 35h594q68 0 68 -35v-101q0 -34 -67 -34h-596q-67 0 -67 34z" />
<glyph unicode="&#x2013;" horiz-adv-x="1108" d="M61 424v110h986v-110h-986z" />
<glyph unicode="&#x2014;" horiz-adv-x="2048" d="M5 424v110h2038v-110h-2038z" />
<glyph unicode="&#x2018;" horiz-adv-x="557" d="M191 1233q0 108 70 223.5t130 115.5v-35q-73 -43 -87 -193q0 -123 129 -165v-36l-116 -122q-39 0 -82.5 64t-43.5 148z" />
<glyph unicode="&#x2019;" horiz-adv-x="557" d="M124 1414v36l116 122q39 0 82.5 -64t43.5 -148q0 -108 -70 -223.5t-130 -115.5v35q73 43 87 193q0 123 -129 165z" />
<glyph unicode="&#x201a;" horiz-adv-x="557" d="M124 118v36l116 122q39 0 82.5 -64t43.5 -148q0 -108 -70 -223.5t-130 -115.5v35q73 43 87 193q0 123 -129 165z" />
<glyph unicode="&#x201c;" horiz-adv-x="910" d="M191 1233q0 108 70 223.5t130 115.5v-35q-73 -43 -87 -193q0 -123 129 -165v-36l-116 -122q-39 0 -82.5 64t-43.5 148zM544 1233q0 108 70 223.5t130 115.5v-35q-73 -43 -87 -193q0 -123 129 -165v-36l-116 -122q-39 0 -82.5 64t-43.5 148z" />
<glyph unicode="&#x201d;" horiz-adv-x="910" d="M124 1414v36l116 122q39 0 82.5 -64t43.5 -148q0 -108 -70 -223.5t-130 -115.5v35q73 43 87 193q0 123 -129 165zM477 1414v36l116 122q39 0 82.5 -64t43.5 -148q0 -108 -70 -223.5t-130 -115.5v35q73 43 87 193q0 123 -129 165z" />
<glyph unicode="&#x201e;" horiz-adv-x="910" d="M124 118v36l116 122q39 0 82.5 -64t43.5 -148q0 -108 -70 -223.5t-130 -115.5v35q73 43 87 193q0 123 -129 165zM477 118v36l116 122q39 0 82.5 -64t43.5 -148q0 -108 -70 -223.5t-130 -115.5v35q73 43 87 193q0 123 -129 165z" />
<glyph unicode="&#x2020;" horiz-adv-x="1014" d="M76 1001q0 55 26.5 91t67.5 36q31 0 135 -55q86 -47 186 -57q-8 105 -55 186q-56 100 -56 127q0 47 34.5 75t92.5 28q55 0 91 -26.5t36 -67.5q0 -31 -54 -135q-47 -86 -57 -186q104 8 185 55q100 56 127 56q47 0 75.5 -34.5t28.5 -92.5q0 -55 -26.5 -91t-68.5 -36 q-31 0 -134 54q-85 47 -186 59q8 -184 110 -285q-106 -457 -112 -967h-28q-6 510 -113 967q101 101 110 285q-103 -11 -185 -57q-100 -56 -127 -56q-47 0 -75 34.5t-28 92.5z" />
<glyph unicode="&#x2021;" horiz-adv-x="1014" d="M75 166q0 58 28 92.5t75 34.5q27 0 127 -56q82 -46 185 -57q-9 233 -110 404q101 170 110 403q-103 -11 -185 -57q-100 -56 -127 -56q-47 0 -75 34.5t-28 92.5q0 55 26.5 91t67.5 36q31 0 135 -55q86 -47 186 -57q-8 105 -55 186q-56 100 -56 127q0 47 34.5 75t92.5 28 q55 0 91 -26.5t36 -67.5q0 -31 -54 -135q-47 -86 -57 -186q104 8 185 55q100 56 127 56q47 0 75.5 -34.5t28.5 -92.5q0 -55 -26.5 -91t-68.5 -36q-31 0 -134 54q-85 47 -186 59q8 -233 109 -403q-101 -171 -109 -404q101 12 186 59q103 54 134 54q42 0 68.5 -36t26.5 -91 q0 -58 -28.5 -92.5t-75.5 -34.5q-27 0 -127 56q-81 47 -185 55q10 -100 57 -186q54 -104 54 -135q0 -41 -36 -67.5t-91 -26.5q-58 0 -92.5 28t-34.5 75q0 27 56 127q47 81 55 186q-100 -10 -186 -57q-104 -55 -135 -55q-41 0 -67.5 36t-26.5 91z" />
<glyph unicode="&#x2022;" horiz-adv-x="1024" d="M221 718q0 121 85.5 205.5t206.5 84.5q120 0 205 -85t85 -205t-86 -206t-206 -86q-121 0 -205.5 85.5t-84.5 206.5z" />
<glyph unicode="&#x2026;" horiz-adv-x="2048" d="M75 173q0 19 20 40l104 106q19 17 36 17t40 -20l101 -109q15 -20 15 -36q0 -19 -18 -39l-101 -112q-25 -25 -37 -25q-20 0 -36 18l-112 127q-12 17 -12 33zM758 173q0 19 20 40l104 106q19 17 36 17t40 -20l101 -109q15 -20 15 -36q0 -19 -18 -39l-101 -112 q-25 -25 -37 -25q-20 0 -36 18l-112 127q-12 17 -12 33zM1441 173q0 19 20 40l104 106q19 17 36 17t40 -20l101 -109q15 -20 15 -36q0 -19 -18 -39l-101 -112q-25 -25 -37 -25q-20 0 -36 18l-112 127q-12 17 -12 33z" />
<glyph unicode="&#x202f;" horiz-adv-x="498" />
<glyph unicode="&#x2039;" horiz-adv-x="631" d="M182 479l336 298h7v-30l-206 -268l206 -268v-30h-7z" />
<glyph unicode="&#x203a;" horiz-adv-x="631" d="M106 181v30l206 268l-206 268v30h7l336 -298l-336 -298h-7z" />
<glyph unicode="&#x2044;" horiz-adv-x="342" d="M-342 -29l940 1461h84l-938 -1461h-86z" />
<glyph unicode="&#x205f;" horiz-adv-x="623" />
<glyph unicode="&#x20a3;" horiz-adv-x="1014" d="M53 5v40h91q108 0 108 240v77h-194v50h194v737q0 240 -108 240h-91v40h907l98 -221h-37q-59 182 -194 182l-316 -1q-107 0 -107 -240v-357h366q105 0 105 68v53h40v-332h-40v55q0 67 -105 67h-366v-291h194v-50h-194v-77q0 -240 107 -240h92v-40h-550z" />
<glyph unicode="&#x20a4;" horiz-adv-x="1014" d="M81 738v50h115q-38 113 -38 198q0 224 122 343.5t307 119.5q75 0 183 -13.5t108 -29.5v-156h-28q-5 59 -74 96t-188 37h-2q-102 0 -190.5 -98.5t-88.5 -248.5q1 -137 35 -248h379v-50h-362q14 -37 30 -70h350v-50h-324q38 -69 38 -143q0 -159 -167 -380h412 q133 0 192 132l38 -1l-98 -221h-711l1 43q187 238 187 420q0 78 -35 146l-4 4h-169v50h146q-17 38 -31 70h-133z" />
<glyph unicode="&#x20a7;" horiz-adv-x="2028" d="M53 5v40h91q108 0 108 240v864q0 240 -108 240h-91v40h613q90 -2 178 -61q90 -61 141 -175q50 -112 51 -240h15q221 0 221 355h40v-355h265q42 19 109 20h2q54 0 131 -13t77 -29v-154h-32q-4 64 -67 107t-137 43q-66 0 -106 -38t-40 -100q0 -111 238 -225 q121 -54 165.5 -115.5t44.5 -150.5q0 -138 -81 -227q-101 -83 -225 -85q-57 0 -104 11q-28 6 -57 6q-18 0 -37 -3q-27 -5 -58 -5q-122 0 -170 55.5t-56 177.5h-1v687h-139q-7 -105 -48 -197q-49 -113 -139 -175.5t-187 -62.5q-98 0 -188 63q-33 22 -68 60v-318 q0 -240 107 -240h92v-40h-550zM404 721q3 -10 7 -18q42 -103 110 -155q58 -45 119 -45q10 0 20 1q69 8 129.5 76.5t88.5 179.5q22 87 22 180q0 24 -1 47q-7 117 -50 220.5t-110 146.5q-58 36 -115 36q-10 0 -21 -1h-199v-668zM1312 223q0 -83 35 -122q30 -33 93 -40l-72 193 l39 1q54 -128 114 -173q58 -45 130 -45h7q94 0 154 53q61 55 61 140q0 105 -262 230q-100 52 -142 111t-42 142q0 119 72 190l9 10h-196v-690z" />
<glyph unicode="&#x20ac;" horiz-adv-x="1014" d="M-37 658l14 50h88v34q0 16 1 36h-69l14 50h59q14 228 169.5 439.5t425.5 211.5q62 0 119 -21.5t72 -21.5q18 0 32 45h33l81 -271l-30 -1q-48 123 -149.5 176t-173.5 53q-179 0 -316.5 -178t-144.5 -432h704l-14 -50h-693q0 -35 2 -70h672l-14 -50h-653 q17 -235 158.5 -423.5t338.5 -189.5q158 3 231.5 94t73.5 182h38v-138q0 -67 -106 -121.5t-237 -56.5q-269 0 -437.5 202t-182.5 451h-106z" />
<glyph unicode="&#x2116;" horiz-adv-x="2271" />
<glyph unicode="&#x2122;" horiz-adv-x="1692" d="M107 1334v105h594v-105h-239v-751h-115v751h-240zM775 583v856h218l186 -825l187 825h218v-856h-111v857l-201 -857h-183l-204 859v-859h-110z" />
<glyph unicode="&#x2202;" horiz-adv-x="1014" d="M77 477q0 131 58 251t161 185t211 65q109 0 212 -65q29 -18 54 -41q-84 235 -233.5 377t-326.5 155v55q306 0 515 -285t209 -697q0 -132 -56.5 -251t-159 -185t-214.5 -66t-214.5 66t-159 185t-56.5 251zM232 537q0 -41 5 -79q14 -122 61.5 -230t118.5 -165 q64 -53 128 -53q6 0 13 1q70 5 127.5 70.5t80.5 179.5q16 73 16 149q0 42 -5 85q-14 122 -62.5 231.5t-119.5 165.5q-65 50 -128 50h-11q-68 -5 -126 -69.5t-82 -178.5q-16 -84 -16 -157z" />
<glyph unicode="&#x2206;" horiz-adv-x="1081" d="M6 0l541 1434l526 -1434h-1067zM108 123h801l-395 1072z" />
<glyph unicode="&#x220f;" horiz-adv-x="1515" d="M48 -367h96q103 0 103 235v1281q0 235 -103 235h-96v50h1419v-50h-97q-102 0 -102 -235v-1281q0 -235 102 -235h97v-50h-560v50h96q103 0 103 235v1281q0 235 -103 235h-492q-102 0 -102 -235v-1281q0 -235 102 -235h97v-51h-560v51z" />
<glyph unicode="&#x2211;" horiz-adv-x="1206" d="M120 -366q62 0 106 53l663 781l-663 859q-44 57 -106 57v50h921l103 -232h-49q-59 182 -189 182h-485l638 -836l-788 -914h635q130 0 189 182h49l-103 -232h-921v50z" />
<glyph unicode="&#x2212;" horiz-adv-x="1014" d="M87 647v140h839l1 -1v-139h-840z" />
<glyph unicode="&#x221a;" horiz-adv-x="1014" d="M17 359l74 35l85 -185l728 1470h150v-60h-72l-801 -1619z" />
<glyph unicode="&#x221e;" horiz-adv-x="1014" d="M66 717q0 126 58.5 215t140.5 89q132 0 185 -194q19 108 88 181.5t156 73.5q107 0 182 -105t75 -260t-80 -260t-177 -105q-67 0 -137 59t-107 196q-63 -194 -185 -194q-82 0 -140.5 83.5t-58.5 220.5zM80 689q2 -66 45 -116t115 -50q66 0 116.5 45t82.5 187 q-15 83 -57.5 119t-100.5 36q-82 0 -141.5 -68.5t-59.5 -152.5zM466 687q12 -96 87.5 -148.5t129.5 -52.5q81 0 165 79.5t84 183.5q-2 91 -58 146t-145 55q-82 0 -156.5 -54.5t-106.5 -208.5z" />
<glyph unicode="&#x222b;" horiz-adv-x="665" d="M-72 -93h36q1 -43 34.5 -64.5t63.5 -21.5h1q82 0 115 162q32 162 40 316l70 734l8 62q27 238 135 429.5t234 191.5q60 0 60 -29v-159h-36q-1 43 -35 64.5t-63 21.5q-71 0 -116 -155.5t-49 -363.5l-73 -767q-20 -231 -130.5 -420t-234.5 -189q-60 0 -60 29v159z" />
<glyph unicode="&#x2248;" horiz-adv-x="1014" d="M94 383v156q64 73 123 99t114 26q64 0 181.5 -49.5t172.5 -49.5q52 0 108.5 28t129.5 112v-156q-63 -72 -122 -97.5t-116 -25.5q-60 0 -177.5 48.5t-176.5 48.5q-51 0 -107.5 -28t-129.5 -112zM94 731v156q64 73 123 99t114 26q64 0 181.5 -49.5t172.5 -49.5 q52 0 108.5 28t129.5 112v-156q-63 -72 -122 -97.5t-116 -25.5q-60 0 -177.5 48.5t-176.5 48.5q-51 0 -107.5 -28t-129.5 -112z" />
<glyph unicode="&#x2264;" horiz-adv-x="1014" d="M87 0v140h839l1 -1v-139h-840zM187 641v176l936 439v-159l-806 -367l806 -370v-159z" />
<glyph unicode="&#x2265;" horiz-adv-x="1014" d="M87 0v140h839l1 -1v-139h-840zM187 201v159l806 370l-806 367v159l936 -439v-176z" />
<glyph unicode="&#x25cc;" horiz-adv-x="1282" d="M100 465q0 -23 15 -38t35 -15q21 0 37 16.5t16 35.5q0 22 -15.5 37.5t-39.5 15.5h-1q-20 0 -33.5 -15t-13.5 -37zM123 671q0 -24 15.5 -37t34.5 -13q22 0 37.5 15t15.5 33q0 15 -7.5 30t-23.5 22q-10 5 -20 5q-20 0 -36 -16.5t-16 -38.5zM168 272q0 -22 15.5 -39.5 t39.5 -17.5q21 0 34.5 17.5t13.5 36.5t-14 34.5t-38 15.5q-12 0 -24 -5q-27 -16 -27 -42zM233 845q0 -15 13.5 -31t41.5 -16q27 3 37.5 19.5t10.5 34.5q0 17 -11 32q-15 18 -36 18q-18 0 -37 -14.5t-19 -42.5zM315 123q0 -21 16.5 -38t40.5 -17q22 0 34.5 15.5t12.5 35.5 q0 21 -14 36.5t-36 15.5q-24 0 -44 -20q-10 -13 -10 -28zM410 961q0 -24 16.5 -38t37.5 -14q19 0 34.5 16t15.5 39l-1 11q-10 37 -48 37q-24 0 -39.5 -15.5t-15.5 -35.5zM512 50q0 -18 14.5 -34t38.5 -16q22 0 37 13.5t15 33.5q0 24 -15 40t-38 16q-16 0 -31 -12.5 t-20 -30.5zM617 987q2 -26 18 -40t36 -14q34 0 51 42l1 10q0 19 -15 34.5t-39 15.5q-22 0 -37 -14t-15 -34zM721 73q0 -6 1 -13q13 -37 49 -37q22 0 38.5 16t16.5 36q0 22 -17 36.5t-40 14.5q-18 0 -33 -15t-15 -38zM816 916q0 -25 16 -38.5t36 -13.5q22 0 42 20 q10 13 10 28q0 24 -17 39.5t-39 15.5t-35 -16t-13 -35zM898 188q0 -19 12 -37q16 -18 35 -18q28 0 42.5 19t14.5 37q0 21 -15.5 34t-34.5 13q-49 0 -54 -48zM964 768q0 -25 16.5 -38.5t35.5 -13.5q12 0 24 5q27 16 27 43q0 21 -15.5 38.5t-39.5 17.5q-20 0 -34 -16.5 t-14 -35.5zM1009 364q0 -15 8 -28.5t23 -21.5q10 -4 21 -4q20 0 35.5 15.5t15.5 39.5t-15 36.5t-33 12.5q-22 0 -38.5 -15t-16.5 -35zM1033 571q0 -20 14 -36t40 -18q20 0 34 15t14 37t-14.5 38t-35.5 16t-36.5 -16t-15.5 -36z" />
<glyph unicode="&#x25fc;" horiz-adv-x="1175" d="M0 0v1175h1175v-1175h-1175z" />
<glyph unicode="&#xa9e0;" horiz-adv-x="1250" d="M142 903l1 8q19 71 75 114.5t130 63t140 19.5q32 0 70 -4q23 35 53 35q38 0 68.5 -22.5t45.5 -53.5q84 -31 152 -79q119 -86 187.5 -210.5t68.5 -262.5q0 -134 -67 -250t-183 -186t-263 -70q-106 0 -207 46t-166.5 127t-65.5 187q0 99 58 171t152.5 111t203.5 39 q103 0 191.5 -29.5t161.5 -80.5l15 -10q-40 219 -241 331q-29 -52 -73.5 -84.5t-95.5 -53.5q-43 -18 -91 -30t-96 -12q-53 0 -91 13t-65 36q-13 8 -29 23q-18 26 -20 30.5t-3.5 8t-1.5 5.5q-10 28 -11 55q-3 8 -3 15zM234 891q27 -13 34 -14.5t20 -4.5q9 -4 38 -6 q18 0 40.5 4.5t24.5 5.5l51 17q55 21 97 54q4 0 9 12q-63 13 -117 13q-57 0 -107.5 -17t-89.5 -64zM370 362q0 -28 12 -53t30 -45q41 -47 97.5 -68.5t116.5 -21.5h3q99 0 177.5 50t123.5 138q-72 55 -162.5 93.5t-188.5 38.5q-45 0 -87 -12t-79 -39q-17 -13 -30 -34t-13 -47 z" />
<glyph unicode="&#xa9e1;" horiz-adv-x="2082" d="M90 810q0 66 33 125q95 158 290 158q23 0 47 -3l1 11l-1 -3q3 22 17.5 33t32.5 11q14 0 28 -7q2 0 6 -2q8 -4 19 -14.5t20 -30.5q6 -15 11 -32q24 -9 49 -21q119 -59 209 -170t130 -251q21 -77 21 -154l-1 -40q99 -165 245 -230q62 -26 131 -26q22 0 79 6t122 69 q77 81 77 205q0 168 -127 337q-44 60 -86 107q-37 37 -43 71q-2 14 -9.5 29t-7.5 31t10.5 40t42.5 41q14 6 28 6q24 0 47 -16l20 -16q30 -12 53 -31q47 -46 129 -162q150 -214 150 -422q0 -11 -2.5 -71t-48.5 -158q-47 -94 -134.5 -153.5t-193.5 -76.5q-39 -5 -78 -5 q-180 0 -329 112q-81 63 -124 126q-27 -60 -90 -121q-99 -95 -242 -105h-14q-75 0 -158 33.5t-137 100.5q-43 51 -43 117q0 18 3 36q12 42 58 55q13 4 25 4q33 0 58 -26q16 -20 29 -39q26 -49 76 -81q43 -22 88 -22q21 0 43 6q74 22 117 90.5t48 145.5v20q0 189 -125 334 q-44 48 -103 87q-8 -25 -21 -49q-40 -72 -110.5 -116.5t-162.5 -44.5q-61 0 -119 24q-17 1 -32 12q-51 49 -51 116zM223 767q26 -6 52 -6q69 0 114.5 30.5t67.5 77.5q12 27 18 54q-39 11 -80 11q-88 0 -139 -72q-31 -44 -33 -95zM535 1137h1v-1z" />
<glyph unicode="&#xa9e2;" horiz-adv-x="2082" d="M90 810q0 66 33 125q95 158 290 158q111 0 230 -58.5t209 -169.5t130 -251q21 -77 21 -154l-1 -40q99 -165 245 -230q62 -26 131 -26q22 0 79 6t122 69q77 81 77 205q0 48 -10 95h-1l-31 -1q-85 0 -155.5 44t-112 115t-41.5 152q0 63 24 122.5t70 103.5q6 5 12 8 q10 9 25 17q14 6 28 6q24 0 47 -16l20 -16q30 -12 53 -31q47 -46 129 -162q150 -214 150 -422q0 -11 -2.5 -71t-48.5 -158q-47 -94 -134.5 -153.5t-193.5 -76.5q-39 -5 -78 -5q-180 0 -329 112q-81 63 -124 126q-27 -60 -90 -121q-107 -102 -256 -105q-75 0 -158 33.5 t-137 100.5q-43 51 -43 117q0 18 3 36q12 42 58 55q13 4 25 4q33 0 58 -26q16 -20 29 -39q26 -49 76 -81q43 -22 88 -22q21 0 43 6q74 22 117 90.5t48 145.5v20q0 189 -125 334q-60 66 -148 115q-71 38 -146 38q-88 0 -139 -72q-33 -47 -33 -103q0 -17 3 -36q0 -41 -50 -41 q-19 0 -35 12q-51 49 -51 116zM1411 864q0 -51 17.5 -86t55.5 -64q51 -41 117 -48q-29 58 -72 115q-44 60 -86 107q-15 15 -25 30q-7 -26 -7 -54z" />
<glyph unicode="&#xa9e3;" horiz-adv-x="2119" d="M113 747q0 66 28.5 128t79.5 108q55 48 124 70.5t142 22.5q112 0 208.5 -46.5t168 -124t111.5 -172.5l10 -1q8 0 8 6l-1 5q16 48 68 124q102 149 283 201q70 18 141 18q140 0 266 -65t207 -183q16 -24 16 -44q0 -34 -31.5 -59t-70.5 -25q-23 0 -44 10t-36 33 q-54 76 -136.5 116.5t-172.5 40.5q-54 0 -108 -16q-112 -38 -176 -140q-53 -84 -61 -188l241 29l36 5q44 6 88.5 10.5t87.5 4.5q52 0 102 -10t97 -35q67 -37 107.5 -99t40.5 -133q0 -30 -9 -61q-26 -87 -92.5 -144.5t-156 -84.5t-181.5 -27q-155 0 -278 71.5t-192 187.5 q-26 43 -42 85q-29 -83 -90 -162q-66 -86 -159.5 -142t-199.5 -56q-45 0 -91 12q-74 21 -121.5 76t-47.5 125q0 59 31.5 107t86 84t125.5 59q78 25 163 39q69 11 139 20v9q0 90 -43.5 172t-117.5 134q-12 8 -24 14q-13 -126 -93 -207q-89 -89 -220 -89q-49 0 -96 15 q-6 -1 -13 -1q-38 0 -60 28t-32 68t-10 77zM281 722q0 -27 8 -60l19 -1q96 0 157 67q21 25 31 56q17 40 17 84q0 12 -2 24l-19 1q-53 0 -100.5 -18.5t-79 -56t-31.5 -96.5zM462 226q0 -21 21 -29.5t48 -8.5q61 0 113.5 32.5t94.5 86.5l15 21q-4 17 -16 17h-4l-35 -6 q-55 -8 -110 -22.5t-99 -47.5q-28 -23 -28 -43zM1161 405q14 -32 26 -51q53 -80 136.5 -124t182.5 -44q49 0 99 14q29 9 65.5 27t64.5 46t28 68q0 46 -26.5 70t-68 33.5t-90.5 9.5q-59 0 -118.5 -8.5t-105.5 -16.5q-143 -21 -193 -24z" />
<glyph unicode="&#xa9e4;" horiz-adv-x="1867" d="M134 961q2 49 34.5 72.5t70.5 23.5t69.5 -23t31.5 -69l-1 -30v-39q0 -294 91 -576q10 -30 22 -57.5t28.5 -44t39.5 -16.5q17 0 40 11q104 52 204 117l84 52q-22 74 -22 169q0 110 35.5 213t107.5 184q69 78 168 124t206 46q141 0 251 -83.5t126 -221.5v-7 q0 -33 -25.5 -50.5t-54.5 -17.5q-24 0 -45 13.5t-26 41.5q-16 81 -80 121t-144 40q-99 0 -175 -53t-120.5 -142.5t-44.5 -196.5q0 -51 6 -82l49 27q74 41 153 67.5t165 26.5q95 0 173 -35t125 -99t47 -152q0 -97 -58.5 -178.5t-154.5 -120.5q-79 -31 -164 -31 q-151 0 -268 77q-98 63 -151 148l3 2q-124 -79 -252 -154q-83 -49 -166 -49q-53 0 -101 22t-89 68q-64 82 -95 185t-47 200l-1 4q-45 221 -45 473zM1078 304q17 -27 53 -61q96 -82 214 -82q58 0 112 26q36 20 58.5 56t22.5 74q0 50 -43.5 80.5t-106.5 30.5q-49 0 -100 -17 t-98.5 -42t-87.5 -50z" />
<glyph unicode="&#xa9e6;" horiz-adv-x="874" d="M-1 1228l276 501l140 -45l-293 -492zM307 1228l275 501l141 -45l-294 -492z" />
<glyph unicode="&#xaa61;" horiz-adv-x="2490" d="M101 308q0 76 36 149q29 58 79 101q-5 41 -5 83q0 81 23 156t74 134t134 93q80 30 163 30q200 0 363 -142q102 -96 148 -175q-9 -29 10 -32q41 126 136.5 230.5t245.5 154.5q98 31 195 31q163 0 298 -76.5t214 -206t79 -287.5q0 -154 -76 -279t-204 -198.5t-284 -73.5 q-94 0 -188 30q-88 27 -173 80t-154 123q-22 23 -39 44q-23 2 -46 16q-32 19 -47 53q-24 61 -56.5 131.5t-73 139t-91 125.5t-110.5 90t-132 33q-39 0 -85 -12.5t-73 -44.5t-39 -76.5t-12 -92.5q0 -88 24.5 -158.5t63.5 -133.5t85 -125l53 -76q10 -18 10 -37 q0 -36 -24 -58.5t-59 -35t-70.5 -16.5t-58.5 -4q-84 0 -159.5 37t-125.5 109q-49 82 -49 167zM254 317q0 -73 49 -120.5t83 -27.5h5q-11 13 -38 53q-61 88 -76 126q-23 0 -23 -31zM1293 481q50 -82 100 -132q71 -69 161 -109t177 -40q100 0 179 50.5t125 133t46 176.5 q0 66 -26 130.5t-81 120.5q-54 55 -125 82t-145 27q-106 0 -204 -54q-81 -48 -127.5 -123t-65.5 -167q-9 -47 -14 -95z" />
<glyph unicode="&#xaa66;" horiz-adv-x="2312" d="M161 670q0 109 50.5 215t169.5 168q94 45 196 45q29 0 110.5 -10t189.5 -87q149 -106 207 -281l10 28q37 93 99 166t156 113q87 34 179 34q28 0 102 -8.5t178 -73.5q99 -64 167.5 -156.5t111.5 -200.5q49 -123 72 -267q15 -90 15 -175q0 -52 -6 -102q-7 -50 -48 -75 q-31 -20 -64 -20q-13 0 -42 7t-43 63q-19 94 -22 189q-4 90 -19 180q-27 165 -121 302q-61 81 -152 125q-70 32 -141 32q-21 0 -79 -8t-125 -100q-45 -67 -72 -145.5t-46 -159.5q-23 -89 -52.5 -171t-83.5 -149.5t-150 -108.5q-90 -37 -175 -37q-52 0 -142.5 24.5 t-193 122.5t-164 227t-71.5 261zM352 661q0 -58 15 -114q32 -120 112.5 -221.5t201.5 -133.5q37 -8 69 -8q71 0 120 38q19 15 37 35l12 38q35 95 35 181q0 118 -50 225q-55 111 -158 175q-74 44 -159 44q-32 0 -65 -6q-83 -19 -123 -78.5t-46 -137.5zM468 536q0 -75 55 -130 t131 -55q75 0 130 55t55 130q0 76 -55 131t-130 55q-76 0 -131 -55t-55 -131zM584 536q0 30 20 49.5t50 19.5q29 0 49 -19.5t20 -49.5q0 -29 -20 -49t-49 -20q-30 0 -50 20t-20 49z" />
<glyph unicode="&#xaa67;" horiz-adv-x="2284" d="M88 604q9 145 92.5 260.5t215.5 177.5q123 57 251 57q21 0 105 -6t213 -101q86 -67 130 -140q30 44 84 95q155 146 377 146q100 0 225.5 -42t230.5 -164q135 -161 135 -361q0 -103 -42 -202q-63 -145 -195 -232t-293 -96h-23q-145 0 -278 72t-233 195l7 -12 q-55 -102 -210 -181q-122 -60 -251 -60q-12 0 -90 3t-202 91q-117 88 -186 223q-63 125 -63 277zM292 575q0 -56 19 -116q47 -138 161 -210q72 -46 156 -46q44 0 92 12q135 41 211 159q28 45 40 94.5t19 100.5q2 15 5 29q-43 176 -185 266q-73 44 -163 44q-20 0 -42 -2 q-110 -15 -188.5 -78.5t-110.5 -159.5q-14 -45 -14 -93zM451 533q0 -75 55 -130t131 -55q75 0 130 55t55 130q0 76 -55 131t-130 55q-76 0 -131 -55t-55 -131zM567 533q0 30 20 49.5t50 19.5q29 0 49 -19.5t20 -49.5q0 -29 -20 -49t-49 -20q-30 0 -50 20t-20 49zM1257 459 q0 -36 18.5 -70.5t44.5 -65.5q107 -119 263 -127q102 0 187 50t132 137q38 69 38 152l-3 43q-25 146 -130 231t-246 89q-191 -4 -272 -127q-3 -4 -3 -7q0 -12 35 -14q109 -4 110 -79q0 -16 -12.5 -42.5t-63.5 -35.5q-40 -7 -67 -43.5t-31 -79.5v-11z" />
<glyph unicode="&#xaa68;" horiz-adv-x="2312" d="M161 670q0 109 50.5 215t169.5 168q94 45 196 45q29 0 110.5 -10t189.5 -87q149 -106 207 -281l10 28q37 93 99 166t156 113q87 34 179 34q28 0 102 -8.5t178 -73.5q99 -64 167.5 -156.5t111.5 -200.5q49 -123 72 -267q15 -90 15 -175q0 -52 -6.5 -102t-47.5 -75 q-31 -20 -64 -20q-11 0 -32 5l-6 -1h-8l-20 1q-65 10 -126 44q-126 75 -165 205q-13 43 -13 87q0 87 53 176q48 74 128 118l2 1q-25 54 -60 105q-61 81 -152 125q-70 32 -141 32q-21 0 -79 -8t-125 -100q-45 -67 -72 -145.5t-46 -159.5q-23 -89 -52.5 -171t-83.5 -149.5 t-150 -108.5q-90 -37 -175 -37q-52 0 -142.5 24.5t-193 122.5t-164 227t-71.5 261zM352 661q0 -58 15 -114q32 -120 112.5 -221.5t201.5 -133.5q37 -8 69 -8q71 0 120 38q19 15 37 35l12 38q35 95 35 181q0 118 -50 225q-55 111 -158 175q-74 44 -159 44q-32 0 -65 -6 q-83 -19 -123 -78.5t-46 -137.5zM468 536q0 -75 55 -130t131 -55q75 0 130 55t55 130q0 76 -55 131t-130 55q-76 0 -131 -55t-55 -131zM584 536q0 30 20 49.5t50 19.5q29 0 49 -19.5t20 -49.5q0 -29 -20 -49t-49 -20q-30 0 -50 20t-20 49zM1812 337q0 -30 21 -85.5t98 -98.5 l26 -12q-6 50 -8 101q-7 167 -42 278q-34 -27 -57 -62q-38 -64 -38 -121z" />
<glyph unicode="&#xaa69;" horiz-adv-x="2284" d="M88 604q9 145 92.5 260.5t215.5 177.5q123 57 251 57q21 0 105 -6t213 -101q86 -67 130 -140q30 44 84 95q155 146 377 146q100 0 225.5 -42t230.5 -164q135 -161 135 -361q0 -103 -42 -202q-63 -145 -195 -232t-293 -96h-23q-145 0 -278 72t-233 195l7 -12 q-55 -102 -210 -181q-122 -60 -251 -60q-12 0 -90 3t-202 91q-117 88 -186 223q-63 125 -63 277zM292 575q0 -56 19 -116q47 -138 161 -210q72 -46 156 -46q44 0 92 12q135 41 211 159q28 45 40 94.5t19 100.5q2 15 5 29q-43 176 -185 266q-73 44 -163 44q-20 0 -42 -2 q-110 -15 -188.5 -78.5t-110.5 -159.5q-14 -45 -14 -93zM451 533q0 -75 55 -130t131 -55q75 0 130 55t55 130q0 76 -55 131t-130 55q-76 0 -131 -55t-55 -131zM567 533q0 30 20 49.5t50 19.5q29 0 49 -19.5t20 -49.5q0 -29 -20 -49t-49 -20q-30 0 -50 20t-20 49zM1257 459 q0 -36 18.5 -70.5t44.5 -65.5q39 -43 84 -72q85 69 85 169q0 41 -22 79q-31 65 -96 97l-16 -3q-40 -7 -67 -43.5t-31 -79.5v-11zM1286 764q0 -12 35 -14q70 -3 95 -34q60 -28 105 -78q79 -93 79 -208q0 -95 -53 -173q-18 -28 -41 -50q37 -9 77 -11q102 0 187 50t132 137 q38 69 38 152l-3 43q-25 146 -130 231t-246 89q-191 -4 -272 -127q-3 -4 -3 -7z" />
<glyph unicode="&#xaa6a;" horiz-adv-x="2284" d="M88 604q9 145 92.5 260.5t215.5 177.5q123 57 251 57q21 0 105 -6t213 -101q86 -67 130 -140q30 44 84 95q155 146 377 146q100 0 225.5 -42t230.5 -164q135 -161 135 -361q0 -103 -42 -202q-63 -145 -195 -232t-293 -96h-23q-145 0 -278 72t-233 195l7 -12 q-55 -102 -210 -181q-122 -60 -251 -60q-12 0 -90 3t-202 91q-117 88 -186 223q-63 125 -63 277zM292 575q0 -56 19 -116q47 -138 161 -210q72 -46 156 -46q44 0 92 12q135 41 211 159q28 45 40 94.5t19 100.5q2 15 5 29q-43 176 -185 266q-73 44 -163 44q-20 0 -42 -2 q-110 -15 -188.5 -78.5t-110.5 -159.5q-14 -45 -14 -93zM1257 459q0 -36 18.5 -70.5t44.5 -65.5q39 -43 84 -72q85 69 85 169q0 41 -22 79q-31 65 -96 97l-16 -3q-40 -7 -67 -43.5t-31 -79.5v-11zM1286 764q0 -12 35 -14q70 -3 95 -34q60 -28 105 -78q79 -93 79 -208 q0 -95 -53 -173q-18 -28 -41 -50q37 -9 77 -11q102 0 187 50t132 137q38 69 38 152l-3 43q-25 146 -130 231t-246 89q-191 -4 -272 -127q-3 -4 -3 -7z" />
</font>
</defs>
</svg>
