<?xml version="1.0" standalone="no"?>
<!DOCTYPE svg PUBLIC "-//W3C//DTD SVG 1.1//EN" "http://www.w3.org/Graphics/SVG/1.1/DTD/svg11.dtd" >
<svg xmlns="http://www.w3.org/2000/svg" xmlns:xlink="http://www.w3.org/1999/xlink" version="1.1">
<metadata></metadata>
<defs>
<font id="a_j_kunheing_3regular" horiz-adv-x="1118" >
<font-face units-per-em="2048" ascent="1638" descent="-410" />
<missing-glyph horiz-adv-x="508" />
<glyph unicode=" "  horiz-adv-x="508" />
<glyph unicode="&#x09;" horiz-adv-x="508" />
<glyph unicode="&#xa0;" horiz-adv-x="508" />
<glyph unicode="!" horiz-adv-x="561" d="M53 123q0 72 52.5 125t125 53t107.5 -36t35 -107.5t-51.5 -126t-125 -54.5t-108.5 37t-35 109zM182 483l66 881l31 35l276 45l31 -37l-240 -928l-135 -22z" />
<glyph unicode="&#x22;" horiz-adv-x="637" d="M143 844q31 190 43 467l207 28l13 -20q-58 -225 -130 -442l-104 -41zM434 844q29 209 41 467l209 28l12 -20q-57 -225 -129 -442l-104 -41z" />
<glyph unicode="#" horiz-adv-x="1044" d="M8 387l45 141l199 -2l59 193h-184l-8 22l45 144l194 -2l88 284l152 15l20 -13l-94 -286h90l91 -2l88 286l151 15l21 -13l-95 -286l191 4l8 -25l-45 -143h-205l-59 -191l188 2l8 -24l-43 -141h-200l-84 -275l-148 -22l-20 16l90 281l-109 2l-75 -2l-84 -275l-150 -22 l-18 16l88 281l-187 -3zM414 526h86l98 -2l61 197h-186z" />
<glyph unicode="$" horiz-adv-x="893" d="M29 68q45 143 63 268l156 12q-4 -37 -4 -84q0 -125 147 -125q76 0 122 32t46 81t-43 82t-118.5 70.5t-107.5 56t-77 55.5q-88 68 -88 189.5t105.5 216t277.5 116.5l67 291l146 19l10 -19l-67 -287q120 -8 239 -41l10 -24q-45 -129 -73 -275l-144 -10l-14 10q10 50 10 74 q0 101 -135 101q-68 0 -113 -32t-45 -81q0 -62 121 -125q17 -8 67 -32.5t75.5 -39t65.5 -42t60 -52.5q54 -63 54 -141q0 -144 -113 -237t-307 -109l-68 -295l-143 -17l-12 15l67 297q-119 12 -225 57z" />
<glyph unicode="%" horiz-adv-x="1417" d="M90 915q0 191 99.5 307.5t256.5 116.5q119 0 184.5 -76.5t65.5 -201.5q0 -189 -96 -308.5t-256 -119.5q-117 0 -185.5 74.5t-68.5 207.5zM145 -106q248 368 424 647l537 848l127 -52l14 -39q-360 -546 -545 -833l-413 -655l-133 55zM223 973q0 -70 44 -103.5t118 -33.5 q176 0 176 155q0 64 -42 100.5t-122 36.5q-174 0 -174 -155zM788 258q0 191 99.5 307.5t257.5 116.5q119 0 184.5 -77t65.5 -202q0 -188 -97.5 -308t-257.5 -120q-116 0 -184 76t-68 207zM920 317q0 -137 170 -137t170 154q0 65 -42 102t-124 37t-128 -41t-46 -115z" />
<glyph unicode="&#x26;" horiz-adv-x="1773" d="M152 520q0 153 78 261q69 97 239 158l-4 8q-42 61 -61.5 114t-19.5 104q0 98 82 196.5t215 98.5q85 0 173 -47q15 -9 23 -9q10 0 10 30q0 12 -3 26h75l100 -293h-76q-84 119 -168 169q-78 46 -131 46h-5q-39 0 -74 -39t-35 -118q0 -138 104 -276l494 -624q73 113 94 203 q17 76 17 127q0 101 -58 101h-94v56h491v-56h-94q-92 0 -141 -220q-29 -122 -142 -301q100 -125 210 -125h12q154 13 204 128h80l-108 -244h-193q-66 0 -159 29q-80 23 -145 94q-50 -45 -142 -86q-123 -57 -276 -57q-263 0 -417.5 159.5t-154.5 386.5zM360 589 q0 -97 36.5 -190t101.5 -165q67 -77 146 -114.5t160 -37.5q70 0 137 28q55 23 122 94l-534 660q-71 -13 -112 -69q-57 -80 -57 -206z" />
<glyph unicode="'" horiz-adv-x="406" d="M101 1500q0 29 24 58t86 29q60 0 86 -28.5t26 -57.5q0 -5 -2 -23l-54 -380h-110l-53 376q-3 19 -3 26z" />
<glyph unicode="(" horiz-adv-x="610" d="M111 209.5q0 64.5 6 124.5l43 354q16 141 67.5 259t110.5 186q119 135 213 178l39 18h22l56 -94l-4 -12q-27 -11 -76 -58t-83 -98t-69 -144.5t-47 -203.5l-43 -354q-8 -78 -8 -131.5t6 -120t31 -129.5q47 -115 102 -164l21 -17l-2 -16l-95 -86h-16q-45 18 -104.5 74.5 t-97.5 121t-55 156.5t-17 156.5z" />
<glyph unicode=")" horiz-adv-x="618" d="M-45 -205l2 12q33 17 78 61t80 95t68.5 144.5t47.5 203.5l43 355q9 77 9 130.5t-6.5 120t-30.5 132.5q-47 112 -103 159l-20 19l2 16l94 86h17q12 -6 34.5 -18.5t75.5 -62.5t90 -114.5t55.5 -157.5t18.5 -157.5t-6 -122.5l-45 -354q-17 -141 -68 -259t-110 -185 q-121 -138 -211 -181l-39 -16h-23z" />
<glyph unicode="*" horiz-adv-x="1092" d="M218 1333q0 20 7 40q12 43 47 67q25 19 55 19q17 0 32 -6q29 -9 89 -71q42 -44 48 -46q-2 25 -31 76q-41 74 -41 96q0 40 33 67.5t87 27.5q51 0 85.5 -25.5t34.5 -63.5q0 -25 -38 -96q-31 -59 -33 -82q7 2 48 46q58 62 85 71q18 5 34 5q30 0 56 -15q36 -23 50 -68 q7 -20 7 -40q0 -18 -5 -32q-14 -44 -58 -56q-12 -4 -32 -4q-31 0 -83 9q-38 7 -61 7q-13 0 -19 -2q20 -26 74 -50q76 -36 91 -57q18 -24 18 -48q0 -10 -3 -20q-10 -38 -49 -66q-39 -30 -83 -30q-35 0 -35 1q-17 0 -41 33q-18 25 -29 106q-9 63 -14 70q-4 -6 -11 -69 q-10 -79 -24 -98q-29 -37 -77 -41h-7q-42 0 -81 28q-37 26 -49 65q-4 11 -4 23q0 21 18 46q14 19 92 57q54 25 74 49q-6 2 -19 2q-22 0 -56 -7q-57 -11 -87 -11q-18 0 -27 4q-45 13 -61 54q-7 16 -7 35z" />
<glyph unicode="+" horiz-adv-x="1108" d="M80 637v160h352v370h244v-370h352v-160h-352v-370h-244v370h-352z" />
<glyph unicode="," horiz-adv-x="625" d="M119 93v34l130 137q93 0 141.5 -71.5t48.5 -151.5q0 -103 -74 -226.5t-204 -123.5v46q73 42 87 193q0 121 -129 163z" />
<glyph unicode="-" horiz-adv-x="831" d="M116 443v95q0 45 48 45h508q48 0 48 -45v-95q0 -44 -47 -44h-510q-47 0 -47 44z" />
<glyph unicode="." horiz-adv-x="625" d="M143 144q0 16 17 33l95 89q18 15 34 15q14 0 34 -17l93 -91q13 -17 13 -31q0 -15 -16 -32l-91 -94q-24 -21 -33 -21q-19 0 -34 15l-101 107q-11 14 -11 27z" />
<glyph unicode="/" horiz-adv-x="740" d="M13 -60l548 1504h185l-548 -1504h-185z" />
<glyph unicode="0" horiz-adv-x="1165" d="M45 465q0 324 176.5 531t449.5 207q195 0 304.5 -129t109.5 -355q0 -327 -174 -535.5t-447 -208.5q-198 0 -308.5 131t-110.5 359zM243 567q0 -138 77.5 -210.5t228 -72.5t243.5 88t93 227t-79 212t-229.5 73t-242 -89.5t-91.5 -227.5z" />
<glyph unicode="1" horiz-adv-x="828" d="M0 -23l33 149q118 11 167 56t61 160q66 530 66 563t-17.5 55t-83.5 22l-113 -12l-12 17l31 134q113 10 246 30t213 31.5t141 20.5l16 -70q-77 -59 -110 -184q-106 -508 -106 -684q0 -109 85 -109l110 7l5 -11l-45 -158q-212 9 -289.5 9t-129.5 -2t-97.5 -7t-85.5 -8.5 t-85 -8.5z" />
<glyph unicode="2" horiz-adv-x="1073" d="M-25 60l181 196q200 222 286 356q90 137 90 232q0 113 -123 113t-246 -182h-29l-20 175q99 121 218 189.5t244 68.5q126 0 208.5 -74.5t82.5 -196.5q0 -121 -86 -250t-385 -446l9 -18h191q97 0 143.5 44.5t81.5 170.5l172 16q-75 -253 -111 -444l-35 -28q-522 21 -724 21 l-139 -21z" />
<glyph unicode="3" horiz-adv-x="888" d="M5 123.5q0 50.5 2 74.5l31 29q67 -27 182 -27t204 61.5t89 153.5q0 144 -268 144l-17 20l2 127l131 29q76 34 123 90.5t47 110t-29.5 80t-76.5 26.5q-100 0 -227 -100l-25 -3l-25 146q74 49 188 101t220.5 52t179 -58t72.5 -152.5t-69.5 -177.5t-186.5 -130l-2 -16 q244 -70 244 -246q0 -108 -99.5 -219t-252 -180.5t-300.5 -69.5q-84 0 -110.5 42t-26.5 92.5z" />
<glyph unicode="4" horiz-adv-x="989" d="M0 354q4 23 11 69t12 69l614 753q2 0 12 4l172 -22l-86 -701h160l14 -22l-39 -170q-63 2 -155 6l-25 -297l-18 -18l-240 -25l-12 20q29 179 51 326q-307 8 -471 8zM233 526h261l47 365h-21z" />
<glyph unicode="5" horiz-adv-x="995" d="M2 164q0 20 2 45l31 29q71 -27 186 -27t206 60.5t91 142.5t-78 125t-268 71l-14 23l108 553l17 16l385 15q57 4 84.5 20t50.5 61l112 9l-88 -301l-28 -27q-176 16 -389 16l-37 -188q213 -39 320.5 -110.5t107.5 -194.5q0 -187 -215 -344.5t-447 -157.5q-80 0 -108.5 41 t-28.5 123z" />
<glyph unicode="6" horiz-adv-x="918" d="M0 361.5q0 152.5 44 274.5t113.5 207t153.5 157.5t170 117.5q187 96 267 119l45 12l18 -10l27 -113q-33 -8 -112 -53t-137.5 -90t-127 -121t-113.5 -162l6 -12q2 0 74 36t100 40q140 0 217.5 -87t77.5 -218q0 -197 -137 -328t-350 -131q-158 0 -247 104.5t-89 257z M246 379q0 -100 38 -156.5t116.5 -56.5t124.5 62.5t46 157.5t-37.5 146.5t-109.5 51.5t-158 -58q-20 -106 -20 -147z" />
<glyph unicode="7" horiz-adv-x="920" d="M0 803q55 233 88 420l14 10q117 -8 240 -8h430l68 -99q-199 -342 -492 -895l-92 -231h-35l-176 55l-16 51l546 906l-258 -17q-94 -8 -128.5 -40.5t-65.5 -139.5z" />
<glyph unicode="8" horiz-adv-x="916" d="M0 257q0 208 251 321q-153 110 -153 263.5t127.5 264.5t307.5 111q127 0 215 -69t88 -183q0 -191 -208 -297q164 -107 164 -269t-136.5 -280.5t-326.5 -118.5q-143 0 -236 71t-93 186zM223 313q0 -70 43 -117.5t113 -47.5t122 48.5t52 120.5q0 66 -66 114q-60 44 -136 86 q-128 -84 -128 -204zM337 914.5q0 -58.5 44 -97.5t134 -89q95 78 95 190q0 67 -33.5 104t-93.5 37t-103 -43t-43 -101.5z" />
<glyph unicode="9" horiz-adv-x="928" d="M0 122q33 8 112.5 52t138.5 87.5t128.5 117.5t114.5 158l-8 14q-6 -2 -41 -20q-96 -50 -133 -54q-140 0 -217.5 85t-77.5 213q0 193 137.5 321t352.5 128q159 0 250 -102t91 -251q0 -282 -159 -472q-152 -180 -327 -269q-170 -88 -314 -130l-19 12zM269 844 q0 -93 38 -142t110 -49q71 0 158 54q21 78 21 161q0 82 -37.5 138t-115.5 56q-79 0 -126.5 -62t-47.5 -156z" />
<glyph unicode=":" horiz-adv-x="557" d="M50 203q0 21 23 44l118 121q21 20 41 20q19 0 45 -23l115 -124q17 -22 17 -41q0 -22 -20 -45l-115 -126q-29 -29 -42 -29q-23 0 -41 20l-127 145q-14 19 -14 38zM50 773q0 21 23 44l118 121q21 20 41 20q19 0 45 -23l115 -124q17 -23 17 -41q0 -22 -20 -45l-115 -126 q-29 -29 -42 -29q-23 0 -41 20l-127 145q-14 19 -14 38z" />
<glyph unicode=";" horiz-adv-x="557" d="M52 788q0 20 21 41l107 110q20 18 38 18q17 0 41 -21l104 -113q16 -20 16 -37q0 -20 -18 -41l-105 -115q-26 -26 -38 -26q-21 0 -38 18l-115 132q-13 17 -13 34zM119 119v48l136 143q50 0 101 -74.5t51 -173.5q0 -124 -81 -258.5t-159 -134.5v49q83 49 99 217 q0 136 -147 184z" />
<glyph unicode="&#x3c;" horiz-adv-x="1108" d="M80 683v65l948 524v-207l-637 -350l637 -347v-206z" />
<glyph unicode="=" horiz-adv-x="1108" d="M80 301v160h948v-160h-948zM80 613v160h948v-160h-948z" />
<glyph unicode="&#x3e;" horiz-adv-x="1108" d="M80 162v206l637 347l-637 350v207l948 -524v-65z" />
<glyph unicode="?" horiz-adv-x="840" d="M132 1225v98q49 44 91 68q92 52 197 52q159 0 248.5 -76t89.5 -183q0 -64 -31.5 -133t-124.5 -184q-89 -113 -141.5 -188.5t-52.5 -150.5q0 -56 37 -198h-136q-55 152 -55 220q0 103 116.5 306t116.5 315q0 89 -39 128t-92 39q-79 0 -224 -113zM235 141q0 16 17 33l95 89 q18 15 34 15q14 0 34 -17l93 -91q13 -17 13 -31q0 -15 -16 -32l-91 -94q-24 -21 -33 -21q-19 0 -34 15l-101 107q-11 14 -11 27z" />
<glyph unicode="@" horiz-adv-x="2111" d="M100 508q0 236 124.5 459t358.5 349.5t489 126.5q391 0 646.5 -238t255.5 -567q0 -263 -183 -439q-144 -155 -362 -176q-86 0 -162 70q-21 -38 -74.5 -64t-152.5 -26q-144 0 -283.5 102t-140.5 238q0 79 50.5 159t151.5 128q94 45 193 50q45 4 82.5 29t37.5 82 q0 105 -39.5 139.5t-99.5 35.5q-72 0 -156 -44.5t-89 -126.5h-87l-1 115q0 20 105 61.5t237 41.5q113 0 238.5 -61t134.5 -180v-565q0 -117 61 -122q113 8 195 182q80 155 80 386q-20 342 -226 540q-186 179 -441 179q-264 0 -473 -241.5t-209 -603.5t231.5 -624t501.5 -262 q281 0 595 251v-120q-315 -199 -617 -199q-260 0 -493.5 130.5t-356 349.5t-122.5 455zM851 357q0 -132 71.5 -210t118.5 -78q48 0 69 34.5t21 125.5v401q-65 0 -172.5 -73t-107.5 -200z" />
<glyph unicode="A" d="M-158 0l684 1305h238l131 -1305h-217l-29 311h-432l-158 -311h-217zM311 494h322l-45 538z" />
<glyph unicode="B" d="M-49 0l276 1305h394q81 0 157 -13.5t130 -50.5t80 -103q13 -35 14 -81q0 -41 -11 -92q-22 -99 -89.5 -181t-176.5 -118q117 -39 163 -109q29 -44 29 -112q0 -40 -10 -87q-39 -178 -178 -268t-362 -90h-416zM197 186h209q122 0 201 47.5t100 145.5q5 25 5 47q0 63 -44 98 q-58 47 -181 47h-208zM317 758h187q43 0 86 6t81 25.5t67.5 55.5t41.5 93q6 27 6 49q0 25 -8 44q-14 36 -43.5 55.5t-69.5 25.5t-83 6h-187z" />
<glyph unicode="C" d="M-8 400.5q0 121.5 26 252.5q29 131 81.5 253t132 215t183 149.5t236.5 56.5q43 0 85 -11t75 -33.5t54.5 -55.5t25.5 -76l33 154h186l-104 -494h-187q10 49 10 97q0 12 -1 24q-3 60 -25.5 105.5t-66.5 74.5t-111 29q-88 0 -153.5 -43t-114 -113t-81 -157t-51.5 -175 q-18 -88 -23 -176q-1 -20 -1 -39q0 -64 13 -118q17 -70 66.5 -113t137.5 -43q127 0 212 81t156 218l152 -64q-45 -96 -101.5 -174t-126 -133t-152.5 -85t-181 -30q-137 0 -220 56.5t-124 151t-41 216z" />
<glyph unicode="D" d="M-49 0l276 1305h424q133 0 217 -53.5t125 -142.5t45 -207v-30q0 -105 -24 -219q-27 -131 -80 -249.5t-132 -208t-185.5 -142.5t-241.5 -53h-424zM197 186h217q141 0 243.5 122t149.5 345q24 111 24 196q0 89 -26 149q-51 120 -193 120h-217z" />
<glyph unicode="E" d="M-49 0l276 1305h834l-39 -187h-627l-78 -360h490l-39 -187h-489l-82 -385h626l-39 -186h-833z" />
<glyph unicode="F" d="M-49 0l276 1305h834l-39 -187h-627l-78 -360h490l-39 -187h-489l-121 -571h-207z" />
<glyph unicode="G" d="M-9 398v8q0 119 27 245q29 131 81.5 253t133 216t187 150.5t244.5 56.5q38 0 77 -11t71 -33.5t53.5 -55.5t25.5 -76l33 154h186l-98 -463h-187q8 39 8 75q0 21 -3 41q-7 54 -33.5 95t-70.5 64.5t-101 23.5q-88 0 -153.5 -44t-115 -114t-81 -157t-50.5 -175 q-18 -88 -23 -175q-1 -20 -1 -39q0 -64 13 -117q17 -70 66.5 -113t137.5 -43q127 0 221 81t160 251h-275l39 186h465l-6 -33q-29 -133 -81 -254t-132 -214t-187.5 -148.5t-244.5 -55.5t-220 56.5t-124 149.5t-42 215z" />
<glyph unicode="H" d="M-49 0l276 1305h207l-117 -547h420l117 547h207l-277 -1305h-206l120 571h-419l-121 -571h-207z" />
<glyph unicode="I" d="M57 0l39 186h207l199 932h-207l39 187h627l-39 -187h-213l-199 -932h213l-39 -186h-627z" />
<glyph unicode="J" d="M-29 342l201 70q4 -117 56.5 -182.5t162.5 -65.5q68 0 116 27.5t83 73.5t56.5 106.5t35.5 126.5l172 807h207l-172 -807q-53 -248 -187.5 -384.5t-351.5 -136.5q-174 0 -272 91.5t-107 273.5z" />
<glyph unicode="K" d="M-49 0l276 1305h207l-108 -512l514 512h266l-569 -541l290 -764h-241l-213 608l-109 -102l-106 -506h-207z" />
<glyph unicode="L" d="M-49 0l276 1305h207l-237 -1119h626l-39 -186h-833z" />
<glyph unicode="M" d="M-49 0l276 1305h246l45 -590l295 590h248l-277 -1305h-206l186 883l-232 -469h-159l-29 469l-186 -883h-207z" />
<glyph unicode="N" d="M-49 0l276 1305h260l177 -899l190 899h207l-277 -1305h-239l-187 946l-200 -946h-207z" />
<glyph unicode="O" d="M-20 400.5q0 121.5 26 252.5q29 131 82 253t133 215t186.5 149.5t241.5 56.5t219 -56.5t124 -149.5t41 -215v-8q0 -118 -27 -245q-27 -131 -80.5 -252.5t-132 -216t-186 -151t-245.5 -56.5q-137 0 -220 56.5t-122.5 151t-39.5 216zM190 477q-1 -21 -2 -41q0 -64 14 -116 q18 -70 65.5 -113t135.5 -43q89 0 153.5 43t112.5 112.5t79.5 157.5t50.5 176q18 88 24 175q1 22 1 42q0 62 -13 115q-18 70 -66.5 113t-134.5 43q-143 0 -245.5 -129t-151.5 -359q-17 -88 -23 -176z" />
<glyph unicode="P" d="M-49 0l276 1305h430q215 -1 313 -99q70 -70 69 -188q0 -47 -11 -103q-43 -196 -182 -291.5t-352 -95.5h-226l-110 -528h-207zM309 715h226q112 0 188 50t98 153q6 28 6 52q1 62 -39 98q-54 50 -167 50h-226z" />
<glyph unicode="Q" d="M-20 428q2 109 26 225q29 131 82 253t133 215t186.5 149.5t241.5 56.5t219 -56.5t124 -149.5t41 -215v-8q0 -119 -27 -245q-25 -121 -70 -232.5t-113.5 -201.5t-159 -152.5t-204.5 -80.5q-1 -14 -1 -26q0 -78 54 -110q63 -36 197 -36q18 0 39.5 1t44.5 1l-39 -185 q-29 -2 -55.5 -3t-51.5 -1q-203 0 -309 93q-94 81 -94 229q0 21 2 43q-99 24 -158 86.5t-85 151.5q-24 81 -24 179q0 9 1 19zM190 477q-2 -21 -2 -41q0 -64 14 -116q17 -70 65 -113t136 -43q89 0 153.5 43t112.5 112.5t79.5 157.5t50.5 176q18 88 24 175q1 22 1 42 q0 62 -13 115q-18 70 -66.5 113t-134.5 43q-143 0 -245.5 -129t-151.5 -359q-18 -88 -23 -176z" />
<glyph unicode="R" d="M-49 0l276 1305h430q215 -1 313 -99q70 -70 69 -188q0 -47 -11 -103q-18 -86 -59 -151.5t-99.5 -112.5t-129 -74.5t-148.5 -37.5l260 -539h-262l-228 528h-94l-110 -528h-207zM309 715h223q115 0 191 50t98 153q6 28 6 52q1 62 -39 98q-54 50 -170 50h-223z" />
<glyph unicode="S" d="M-72 0l90 426h187q-8 -35 -8 -65q-1 -25 5 -48q12 -49 42 -82.5t75.5 -51t100.5 -17.5q92 0 158.5 43t87.5 137q5 24 5 44q1 22 -5 40q-10 35 -37 62.5t-70 48t-96 43.5q-68 24 -132.5 54t-110.5 74t-68 108q-11 33 -10 74q0 40 10 89q18 86 63 150.5t107.5 108.5 t136 66.5t151.5 22.5q90 0 146.5 -38t79.5 -101l24 117h187l-86 -406h-187q9 40 9 74q0 63 -31 105q-47 64 -150 65q-90 0 -158.5 -42t-83.5 -118q-5 -19 -5 -35q-1 -18 5 -32q10 -28 35 -50t66 -41.5t96 -42.5q68 -26 133.5 -59t113.5 -81t70 -116q12 -36 13 -82 q0 -40 -10 -86q-21 -90 -66 -160.5t-108.5 -119.5t-141.5 -75t-160 -26q-92 0 -158.5 33t-103.5 109l-24 -119h-187z" />
<glyph unicode="T" d="M57 0l39 186h207l199 932h-178l-62 -289h-184l100 476h930l-100 -476h-185l62 289h-176l-199 -932h207l-39 -186h-621z" />
<glyph unicode="U" d="M31 265q-1 18 -1 37q0 76 19 165l178 838h207l-178 -840q-10 -49 -14 -101q-1 -14 -1 -28q0 -37 8 -70q11 -45 48 -73.5t104 -28.5q68 0 115 28.5t80 72.5t51.5 97.5t28.5 102.5l178 840h207l-178 -840q-25 -111 -68 -201t-108.5 -153.5t-151.5 -98.5t-195 -35 q-108 0 -178.5 35t-107.5 98.5t-43 154.5z" />
<glyph unicode="V" d="M119 1305h217l90 -1033l526 1033h217l-684 -1305h-235z" />
<glyph unicode="W" d="M41 0l74 1305h215l-66 -879l201 506h199l-15 -506l309 879h216l-480 -1305h-213l4 563l-231 -563h-213z" />
<glyph unicode="X" d="M-121 0l39 186h113l354 473l-152 459h-94l39 187h414l-39 -187h-84l72 -289l196 289h-82l39 187h416l-39 -187h-100l-348 -459l153 -473h117l-39 -186h-426l39 186h74l-76 295l-199 -295h74l-39 -186h-422z" />
<glyph unicode="Y" d="M55 0l39 186h209l74 346l-164 586h-94l39 187h411l-39 -187h-90l84 -383l246 383h-90l39 187h411l-38 -187h-95l-413 -586l-74 -346h209l-39 -186h-625z" />
<glyph unicode="Z" d="M-49 0l39 184l782 934h-397l-62 -284h-186l100 471h817l-38 -187l-766 -932h401l61 287h183l-101 -473h-833z" />
<glyph unicode="[" horiz-adv-x="629" d="M70 -248q92 565 116 770l74 776l438 23l7 -16l-29 -117l-207 -41l-154 -1243l205 -43l6 -19l-28 -112z" />
<glyph unicode="\" horiz-adv-x="649" d="M129 1352l29 30h166q133 -1085 155.5 -1237.5t55.5 -347.5l-21 -22h-176q-76 602 -209 1577z" />
<glyph unicode="]" horiz-adv-x="629" d="M-63 -254l30 115l207 43l152 1243l-203 41l-6 18l28 115l428 -23q-90 -565 -116 -770l-74 -776l-440 -22z" />
<glyph unicode="^" horiz-adv-x="963" d="M29 225q80 150 401 754l201 8l24 -16q72 -248 115 -393l107 -336l-142 -86l-33 10q-84 268 -184 614h-14l-127 -254q-78 -139 -184 -368l-152 41z" />
<glyph unicode="_" horiz-adv-x="895" d="M-119 -340l43 156l477 -2q91 0 418 8l12 -29l-43 -158l-892 -4z" />
<glyph unicode="`" horiz-adv-x="673" d="M192 1343q0 31 30.5 61t63.5 30q20 0 40.5 -12t55.5 -47l291 -296l-89 -20l-330 202q-31 20 -46.5 40t-15.5 42z" />
<glyph unicode="a" horiz-adv-x="1014" d="M-47 268q18 82 75.5 143.5t137.5 102.5t176 61.5t193 20.5q53 0 91 -2t76 -6l7 37q4 18 4 34q0 48 -37 75q-49 36 -141 36q-84 0 -175.5 -23.5t-179.5 -68.5l-49 162q102 53 215 83.5t229 30.5q76 0 146 -17t120 -56q49 -39 71 -101q11 -32 11 -71q0 -38 -10 -84 l-131 -625h-204l28 137q-65 -76 -169.5 -118t-215.5 -42q-67 0 -123.5 18.5t-92.5 55.5t-51 91q-8 28 -8 61q0 31 7 65zM160 279q-3 -14 -3 -27q0 -90 156 -90q62 0 118 15.5t103.5 43t79 66.5t41.5 86l9 35q-48 8 -91 9t-75 1q-152 0 -238 -40t-100 -99z" />
<glyph unicode="b" horiz-adv-x="1034" d="M-49 0l276 1305h207l-98 -457q72 53 138.5 79.5t143.5 26.5q91 0 159.5 -36.5t110.5 -101t54 -154.5q4 -32 4 -66q0 -62 -14 -131q-23 -107 -74 -197t-119.5 -154.5t-153.5 -100.5t-175 -36q-78 0 -132.5 28t-103.5 81l-16 -86h-207zM209 248q29 -41 82 -62.5t106 -21.5 q117 0 208 83t120 218q10 46 10 86q1 78 -37 133q-56 84 -174 84q-53 0 -114.5 -21.5t-108.5 -62.5z" />
<glyph unicode="c" horiz-adv-x="1061" d="M-28 264q-7 37 -7 78q0 58 15 123q22 106 77.5 196.5t129 155t163.5 101t182 36.5q97 0 158.5 -40t77.5 -117l29 135h184l-92 -434h-184q9 40 9 76q0 70 -35 120q-52 74 -161 74q-43 0 -93 -17.5t-98 -54.5t-86 -94t-55 -137q-9 -44 -9 -81q-1 -30 5 -54q12 -56 45 -92.5 t85.5 -55t111.5 -18.5q100 0 181 31.5t145 83.5l75 -146q-108 -90 -214.5 -123t-223.5 -33t-205 35t-140 98.5t-70 153.5z" />
<glyph unicode="d" horiz-adv-x="1141" d="M-12 268q-4 32 -5 65q0 62 15 132q22 106 73.5 196.5t120 155t153.5 101t175 36.5q78 0 133.5 -26.5t102.5 -79.5l59 270h-180l39 187h387l-277 -1305h-206l16 86q-70 -53 -137.5 -81t-145.5 -28q-90 0 -158.5 36t-110.5 100.5t-54 154.5zM205 465q-10 -46 -10 -86 q-1 -78 37 -132q56 -83 174 -83q53 0 115.5 21.5t107.5 62.5l92 436q-27 41 -81 62.5t-108 21.5q-116 0 -207.5 -84t-119.5 -219z" />
<glyph unicode="e" horiz-adv-x="1061" d="M-24 267q-9 40 -10 84q0 54 14 114q22 106 76.5 195.5t133 155t177 102t206.5 36.5q113 0 196 -38.5t133 -111.5q50 -72 64 -178q5 -37 6 -78q0 -75 -18 -161h-780q-1 -8 -1 -16q1 -85 59 -143q64 -64 192 -64q100 0 181 31.5t145 83.5l75 -146q-108 -90 -215.5 -123 t-226.5 -33q-109 0 -194 36t-139 100.5t-74 153.5zM221 569h539v5q0 86 -64 140q-66 54 -164 54t-187 -54.5t-124 -144.5z" />
<glyph unicode="f" horiz-adv-x="1121" d="M-3 0l39 186h207l119 559h-207l39 187h207q41 192 180 293.5t340 101.5q31 0 64.5 -3t66.5 -7l-39 -182q-57 6 -106 6q-80 0 -131.5 -11.5t-85 -37t-52 -65.5t-30.5 -95h362l-39 -187h-362l-119 -559h213l-39 -186h-627z" />
<glyph unicode="g" horiz-adv-x="1061" d="M-127 -248l129 160q119 -123 293 -123q106 0 182 52.5t101 164.5l22 100q-76 -55 -141.5 -81.5t-143.5 -26.5q-90 0 -158.5 38t-109.5 103.5t-54 152.5q-5 34 -5 70q0 56 12 115q20 98 70.5 185.5t120 152t154.5 102t175 37.5q78 0 133.5 -26.5t102.5 -79.5l18 84h207 l-195 -922q-20 -96 -69 -171t-120 -127t-158 -79.5t-185 -27.5q-244 0 -381 147zM201 360q8 -53 34.5 -92t70.5 -61.5t102 -22.5q55 0 117.5 22.5t109.5 63.5l86 414q-27 41 -81 62.5t-110 21.5q-116 0 -206.5 -82t-116.5 -209q-9 -40 -9 -76q0 -21 3 -41z" />
<glyph unicode="h" horiz-adv-x="1026" d="M-49 0l276 1305h207l-129 -607q57 121 155.5 188.5t221.5 67.5q144 0 204 -93q36 -55 36 -146q0 -62 -17 -140l-121 -575h-206l120 575q10 46 10 79q0 47 -19 72q-32 42 -109 42q-115 0 -207 -93t-127 -257l-88 -418h-207z" />
<glyph unicode="i" horiz-adv-x="811" d="M-23 0l39 186h207l119 559h-207l39 187h414l-158 -746h213l-39 -186h-627zM385 1053l53 252h252l-53 -252h-252z" />
<glyph unicode="j" horiz-adv-x="889" d="M-327 -236l149 138q37 -56 84 -83.5t115 -27.5q104 0 166.5 57.5t83.5 151.5l157 745h-211l39 187h418l-197 -932q-20 -90 -65 -163t-110.5 -125t-147.5 -79.5t-174 -27.5q-213 0 -307 159zM471 1053l54 252h251l-53 -252h-252z" />
<glyph unicode="k" horiz-adv-x="1017" d="M-49 0l276 1305h207l-164 -768l457 395h285l-520 -428l339 -504h-268l-231 377l-115 -96l-59 -281h-207z" />
<glyph unicode="l" horiz-adv-x="777" d="M-81 0l39 186h205l199 932h-205l39 187h412l-238 -1119h215l-39 -186h-627z" />
<glyph unicode="m" horiz-adv-x="1086" d="M-98 0l196 932h209l-28 -135q38 77 90.5 117t124.5 40q59 0 91.5 -36.5t32.5 -100.5q52 70 97 103.5t123 33.5q96 0 132 -70q19 -38 19 -97q0 -51 -14 -117l-141 -670h-207l135 639q9 44 9 73q0 14 -2 24q-7 32 -42 32q-61 0 -92 -69.5t-60 -202.5l-104 -496h-207 l135 639q10 42 10 70q1 15 -3 27q-8 32 -44 32q-61 0 -90.5 -69.5t-58.5 -202.5l-104 -496h-207z" />
<glyph unicode="n" horiz-adv-x="1026" d="M-49 0l196 932h207l-49 -234q57 121 155.5 188.5t221.5 67.5q144 0 204 -93q36 -55 36 -146q0 -62 -17 -140l-121 -575h-206l120 575q10 46 10 79q0 47 -19 72q-32 42 -109 42q-115 0 -207 -93t-127 -257l-88 -418h-207z" />
<glyph unicode="o" horiz-adv-x="1059" d="M-28 267q-7 35 -7 74q0 58 15 124q22 106 76.5 196.5t132 156t176 101t206.5 35.5q111 0 193 -35.5t133 -101t67 -155.5q6 -36 6 -76q0 -58 -14 -121q-24 -109 -77.5 -198t-131 -153.5t-176 -100.5t-209.5 -36q-108 0 -190 36t-133 100.5t-67 153.5zM180 345 q8 -54 35 -95t75 -63.5t113 -22.5q66 0 122.5 22.5t102.5 63.5t76.5 95t45.5 120q8 40 8 77q0 22 -3 42q-7 56 -36 96.5t-76 64t-113 23.5q-65 0 -122.5 -23.5t-101.5 -63.5t-75.5 -96.5t-44.5 -119.5q-9 -42 -9 -79q0 -21 3 -41z" />
<glyph unicode="p" horiz-adv-x="1034" d="M-127 -373l274 1305h207l-18 -84q72 53 138.5 79.5t143.5 26.5q91 0 159.5 -36.5t110.5 -101t54 -154.5q4 -32 4 -66q0 -62 -14 -131q-23 -107 -74 -197t-119.5 -154.5t-153.5 -100.5t-175 -36q-78 0 -132.5 28t-103.5 81l-96 -459h-205zM209 250q29 -41 82 -63.5 t106 -22.5q117 0 208 83t120 218q10 46 10 86q0 77 -37 133q-57 84 -174 84q-53 0 -114.5 -21.5t-108.5 -62.5z" />
<glyph unicode="q" horiz-adv-x="1061" d="M-12 268q-5 32 -5 65q0 63 15 132q22 106 73.5 196.5t120 155t153.5 101t175 36.5q78 0 133.5 -26.5t102.5 -79.5l18 84h207l-276 -1305h-207l96 459q-70 -53 -137.5 -81t-145.5 -28q-90 0 -158.5 36t-110.5 100.5t-54 154.5zM205 465q-10 -46 -10 -86q0 -77 37 -132 q57 -83 174 -83q53 0 115.5 21.5t107.5 62.5l92 436q-27 41 -81 62.5t-108 21.5q-116 0 -207.5 -84t-119.5 -219z" />
<glyph unicode="r" horiz-adv-x="1104" d="M-98 0l39 186h211l118 559h-211l39 187h418l-49 -234q80 140 192.5 198t249.5 58q43 0 88 -9t84 -32l-120 -202q-33 18 -70 27.5t-86 9.5q-70 0 -134.5 -20.5t-117.5 -61.5t-90 -102.5t-55 -145.5l-50 -232h209l-39 -186h-626z" />
<glyph unicode="s" horiz-adv-x="1016" d="M-86 111l123 170q96 -64 182 -90.5t178 -26.5q125 0 187.5 26.5t72.5 73.5q5 23 -8.5 38t-47.5 27.5t-91 25t-145 26.5q-70 12 -130.5 29.5t-102.5 49.5t-62 81q-11 28 -11 63q0 27 7 60q16 75 67 130.5t121 91.5t151.5 52t159.5 16q111 0 208 -28.5t163 -81.5l-117 -160 q-65 49 -136 66.5t-159 17.5q-37 0 -77.5 -4t-76.5 -15.5t-62.5 -31t-33.5 -47.5q-1 -4 -1 -8q-1 -30 53 -52q60 -24 215 -47q84 -12 150.5 -30.5t110.5 -50.5q44 -30 62 -80q10 -26 10 -58q0 -30 -8 -65q-18 -91 -71.5 -148t-125 -92t-154.5 -48.5t-159 -13.5 q-127 0 -244.5 37t-197.5 97z" />
<glyph unicode="t" horiz-adv-x="943" d="M29 745l39 187h211l80 373h207l-80 -373h391l-39 -187h-391l-86 -403q-6 -31 -6 -56q1 -49 23 -78q34 -44 106 -44q88 0 141.5 51t77.5 123l172 -41q-47 -147 -164.5 -233.5t-267.5 -86.5q-82 0 -143.5 27t-99.5 75q-38 47 -50 115q-5 30 -5 62q0 41 9 86l86 403h-211z " />
<glyph unicode="u" horiz-adv-x="1061" d="M25 356l122 576h207l-123 -576q-9 -44 -9 -76q0 -49 20 -74q32 -42 110 -42q115 0 207 93t127 257l88 418h207l-197 -932h-206l49 233q-58 -120 -156 -188t-221 -68q-144 -1 -204 93q-36 57 -36 150q0 60 15 136z" />
<glyph unicode="v" horiz-adv-x="1110" d="M98 932h221l97 -705l393 705h221l-541 -932h-243z" />
<glyph unicode="w" horiz-adv-x="1139" d="M12 0l58 932h202l-49 -623l232 623h219l-31 -623l213 623h203l-336 -932h-256l20 561l-219 -561h-256z" />
<glyph unicode="x" horiz-adv-x="1110" d="M-119 0l39 186h135l271 287l-142 272h-125l39 187h420l-39 -187h-65l73 -180l154 180h-74l39 187h424l-39 -187h-121l-256 -272l148 -287h133l-39 -186h-442l39 186h82l-86 195l-166 -195h75l-39 -186h-438z" />
<glyph unicode="y" horiz-adv-x="1102" d="M-174 -358l82 190q39 -16 73.5 -22.5t63.5 -6.5q92 0 145 82l56 90l-154 957h215l107 -705l387 705h221l-637 -1114q-72 -121 -167 -166t-214 -45q-41 0 -86 8t-92 27z" />
<glyph unicode="z" horiz-adv-x="1043" d="M-49 0l39 184l649 561h-348l-41 -188h-182l79 375h816l-39 -187l-652 -559h369l39 185h182l-78 -371h-833z" />
<glyph unicode="{" horiz-adv-x="637" d="M88 494l23 98q176 51 176 168q0 39 -27 150.5t-27 164.5q0 113 92.5 188.5t239.5 75.5q68 0 146 -18l10 -21l-41 -114q-47 10 -78 10q-61 0 -94 -42t-33 -110l19 -251q0 -93 -47.5 -149t-122.5 -77l-2 -12q122 -43 122 -172q0 -57 -49 -199.5t-49 -189.5t25.5 -77 t74.5 -30l82 13l13 -21l-35 -110q-66 -31 -171.5 -31t-172 60.5t-66.5 142.5t71 222t71 183q0 111 -150 148z" />
<glyph unicode="|" horiz-adv-x="653" d="M102 -528q48 397 269 2158l176 23l31 -23q-99 -694 -140 -1034l-135 -1124l-180 -23z" />
<glyph unicode="}" horiz-adv-x="637" d="M-66 -223l41 112q48 -10 78 -10q62 0 94.5 43t32.5 111l-18 260q0 174 170 225l2 12q-123 45 -123 175q0 55 49 192t49 184t-25.5 77t-74.5 30l-82 -10l-12 18l35 113q63 30 168.5 30t173 -61t67.5 -142t-69.5 -217.5t-69.5 -179.5q0 -116 147 -147l-20 -96 q-78 -23 -127 -66t-49 -93t25.5 -160.5t25.5 -164.5q0 -116 -92 -195t-240 -79q-67 0 -145 18z" />
<glyph unicode="~" horiz-adv-x="999" d="M47 440l2 23l209 207l39 8q51 0 218 -40t200 -40q57 0 145 86l29 31h20l62 -78l-2 -21l-207 -208l-39 -9q-51 0 -218 40t-200 40q-59 0 -145 -86l-29 -28h-22z" />
<glyph unicode="&#xa1;" horiz-adv-x="672" />
<glyph unicode="&#xa2;" horiz-adv-x="1139" />
<glyph unicode="&#xa3;" horiz-adv-x="1108" d="M79 663v80h133q-56 137 -56 243q0 220 132 349q128 129 350 129q98 0 204 -16q132 -17 132 -41v-193h-69q-3 51 -81 103q-78 51 -185 51h-6q-110 0 -173 -93q-57 -83 -57 -228q0 -21 1 -42q0 -138 48 -262h365v-80h-331q50 -92 50 -191q0 -170 -146 -362h393 q94 0 154 133h92l-111 -253h-801l1 54q177 226 177 422q0 103 -48 197h-168z" />
<glyph unicode="&#xa4;" horiz-adv-x="1108" d="M135 413l117 116q-36 52 -52 108q-11 40 -11 80q0 42 12 83q16 54 51 104l-117 117l114 115l125 -125q11 8 74 26q54 17 108 17q50 0 101 -14q65 -20 78 -28l124 124l114 -115l-116 -116q35 -52 52 -107q11 -40 11 -81q0 -40 -11 -81q-17 -55 -52 -107l116 -116 l-114 -115l-124 124q-13 -9 -78 -28q-51 -14 -102 -14t-103 14q-66 19 -79 28l-124 -124zM370 716q0 -25 9 -51q17 -54 56 -88q34 -29 77 -40q22 -5 43 -5t43 5q42 11 76 40q38 34 56 87q9 27 9 53q0 27 -9 53q-18 53 -56 87q-34 29 -77 40q-22 5 -43 5q-22 0 -43 -6 q-43 -11 -76 -39q-37 -33 -55 -86q-10 -27 -10 -55z" />
<glyph unicode="&#xa5;" horiz-adv-x="1108" d="M-41 1365v69h528v-69h-51q-52 0 -52 -36q0 -47 56 -138l176 -379l172 388q46 78 46 122q0 43 -52 43h-48v69h415v-69h-36q-78 0 -164 -152l-194 -403h173v-80h-211l-19 -39v-61h230v-80h-230v-259q0 -222 99 -222h80v-69h-648v69h80q99 0 99 222v259h-228v80h228v63 l-19 37h-209v80h169l-207 411q-85 144 -132 144h-51z" />
<glyph unicode="&#xa6;" horiz-adv-x="1108" d="M426 371h256v-789h-256v789zM426 645v789h256v-789h-256z" />
<glyph unicode="&#xa7;" horiz-adv-x="1108" d="M179 1130q0 141 91.5 235t268.5 95q135 0 218 -19t83 -45v-200h-77q-5 94 -65 137t-178 46q-67 0 -107 -38t-40 -118q0 -137 276 -269q158 -71 214.5 -148.5t56.5 -182.5q0 -164 -101 -275q-52 -44 -109 -71q117 -61 168 -131t51 -174q0 -164 -120 -278.5t-334 -115.5 q-111 0 -193.5 19.5t-82.5 44.5v200h87q5 -93 64 -135.5t163 -45.5q88 4 148 57q71 63 71 170q0 130 -306 276q-132 69 -185 142.5t-53 171.5q0 141 89 230q76 74 177 91q-155 68 -215 150.5t-60 180.5zM382 571q0 -128 217 -239q122 74 122 206v6q-1 91 -67 137t-138 46 q-54 0 -94 -38t-40 -118z" />
<glyph unicode="&#xa8;" horiz-adv-x="1024" d="M209 1263q0 13 14 26l71 72q13 12 25 12q11 0 27 -14l69 -73q10 -14 10 -25q0 -13 -12 -27l-69 -75q-17 -17 -25 -17q-14 0 -25 12l-76 86q-9 12 -9 23zM574 1263q0 13 14 26l71 72q13 12 25 12q11 0 27 -13l69 -74q10 -14 10 -25q0 -13 -12 -26l-69 -76q-17 -17 -25 -17 q-14 0 -25 12l-76 87q-9 11 -9 22z" />
<glyph unicode="&#xa9;" horiz-adv-x="1674" d="M94 718q0 143 52.5 276.5t153.5 237.5q102 109 242.5 169.5t297.5 60.5q152 0 291 -60.5t243 -169.5q99 -102 152.5 -237.5t53.5 -276.5q0 -142 -53.5 -275.5t-156.5 -239.5q-105 -110 -243 -168.5t-294 -58.5q-153 0 -289 59.5t-242 169.5q-103 105 -155.5 237 t-52.5 276zM166 718q0 -142 54.5 -265.5t154.5 -219.5q98 -91 214.5 -138t244.5 -47q130 0 248 46.5t215 136.5q100 97 155.5 222t55.5 265q0 139 -55.5 266t-151.5 220q-96 91 -215.5 138.5t-246.5 47.5q-130 0 -250.5 -47.5t-227.5 -149.5q-86 -84 -140.5 -209t-54.5 -266 zM356 719q0 114 62.5 227t190 182.5t269.5 69.5q66 0 110.5 -13.5t62.5 -13.5q17 0 17 28h63l75 -207h-64q-105 96 -154.5 119t-125.5 23q-75 -5 -178.5 -102.5t-103.5 -298.5q0 -166 92.5 -298.5t218.5 -132.5q118 1 187.5 41.5t71.5 121.5h68v-102q0 -37 -79.5 -79.5 t-247.5 -44.5q-159 0 -285.5 70.5t-188 182.5t-61.5 227z" />
<glyph unicode="&#xaa;" horiz-adv-x="648" />
<glyph unicode="&#xab;" horiz-adv-x="944" d="M174 479l342 303h14v-37l-205 -266l205 -266v-37h-14zM487 479l342 303h14v-37l-205 -266l205 -266v-37h-14z" />
<glyph unicode="&#xac;" horiz-adv-x="1014" d="M87 667v100h840v-491l-1 -1h-98v392h-741z" />
<glyph unicode="&#xad;" horiz-adv-x="831" d="M116 443v95q0 45 48 45h508q48 0 48 -45v-95q0 -44 -47 -44h-510q-47 0 -47 44z" />
<glyph unicode="&#xae;" horiz-adv-x="1674" d="M94 718q0 143 52.5 276.5t153.5 237.5q102 109 242.5 169.5t297.5 60.5q152 0 291 -60.5t243 -169.5q99 -102 152.5 -237.5t53.5 -276.5q0 -142 -53.5 -275.5t-156.5 -239.5q-105 -110 -243 -168.5t-294 -58.5q-153 0 -289 59.5t-242 169.5q-103 105 -155.5 237 t-52.5 276zM166 718q0 -142 54.5 -265.5t154.5 -219.5q98 -91 214.5 -138t244.5 -47q130 0 248 46.5t215 136.5q100 97 155.5 222t55.5 265q0 139 -55.5 266t-151.5 220q-96 91 -215.5 138.5t-246.5 47.5q-130 0 -250.5 -47.5t-227.5 -149.5q-86 -84 -140.5 -209t-54.5 -266 zM443 272v61h20q53 0 53 126v520q0 126 1 126h-55v61h369q87 -1 161 -53q65 -43 95.5 -112t30.5 -140q0 -69 -30 -137t-111 -150l63 -100q96 -141 169 -141h22v-61h-367v61h20q14 0 14 13q0 30 -67 125l-35 59q-31 1 -58 17v-88q0 -126 52 -126h21v-61h-368zM738 712 q0 -69 23 -86t49 -17h3q27 1 44 31t35 99q13 54 13 111q0 16 -1 33q-4 74 -29.5 135t-48 74t-43.5 13h-45v-393z" />
<glyph unicode="&#xaf;" horiz-adv-x="1024" d="M254 1195v125h516v-125h-516z" />
<glyph unicode="&#xb0;" horiz-adv-x="674" d="M60 1164q0 116 81.5 197t197.5 81q115 0 196 -81.5t81 -196.5q0 -114 -82 -196t-197 -82q-117 0 -197 81t-80 197zM130 1163q0 -87 61 -147t148 -60t147 60t60 147t-60.5 148t-146.5 61t-147.5 -61t-61.5 -148z" />
<glyph unicode="&#xb1;" horiz-adv-x="1108" d="M80 -10v160h948v-160h-948zM80 637v160h352v370h244v-370h352v-160h-352v-370h-244v370h-352z" />
<glyph unicode="&#xb2;" horiz-adv-x="1014" />
<glyph unicode="&#xb3;" horiz-adv-x="1014" />
<glyph unicode="&#xb4;" horiz-adv-x="1024" d="M316 1078l291 297q35 35 55.5 47t40.5 12q33 0 53.5 -20t20.5 -51q0 -22 -15.5 -42t-46.5 -40l-330 -203h-69z" />
<glyph unicode="&#xb5;" horiz-adv-x="1180" />
<glyph unicode="&#xb6;" horiz-adv-x="1024" d="M93 1086q0 157 107.5 253t285.5 96h443v-70h-127v-1365h-82v1365h-166v-1365h-84v738q-174 8 -275.5 102.5t-101.5 245.5z" />
<glyph unicode="&#xb7;" horiz-adv-x="508" d="M144 747q0 45 32 77.5t78 32.5q45 0 77.5 -32.5t32.5 -77.5q0 -46 -32.5 -78t-77.5 -32q-46 0 -78 32t-32 78z" />
<glyph unicode="&#xb8;" horiz-adv-x="1024" d="M360 -290q85 -52 152 -52q66 0 94.5 21.5t28.5 66.5t-49 64q-40 16 -102 16q-16 0 -34 -2l48 176h63l-37 -104q32 4 62 5q86 0 134 -40.5t48 -113.5q0 -76 -58.5 -120.5t-160.5 -44.5q-109 0 -189 32v96z" />
<glyph unicode="&#xb9;" horiz-adv-x="1014" />
<glyph unicode="&#xba;" horiz-adv-x="1522" />
<glyph unicode="&#xbb;" horiz-adv-x="944" d="M101 176v37l205 266l-205 266v37h14l342 -303l-342 -303h-14zM414 176v37l205 266l-205 266v37h14l342 -303l-342 -303h-14z" />
<glyph unicode="&#xbc;" horiz-adv-x="1708" />
<glyph unicode="&#xbd;" horiz-adv-x="2370" />
<glyph unicode="&#xbe;" horiz-adv-x="1708" />
<glyph unicode="&#xbf;" horiz-adv-x="748" />
<glyph unicode="&#xc0;" horiz-adv-x="1540" />
<glyph unicode="&#xc1;" horiz-adv-x="1540" />
<glyph unicode="&#xc2;" horiz-adv-x="1540" />
<glyph unicode="&#xc3;" horiz-adv-x="1540" />
<glyph unicode="&#xc4;" horiz-adv-x="1540" />
<glyph unicode="&#xc5;" horiz-adv-x="1540" />
<glyph unicode="&#xc6;" horiz-adv-x="2090" />
<glyph unicode="&#xc7;" horiz-adv-x="1399" />
<glyph unicode="&#xc8;" horiz-adv-x="1151" />
<glyph unicode="&#xc9;" horiz-adv-x="1151" />
<glyph unicode="&#xca;" horiz-adv-x="1151" />
<glyph unicode="&#xcb;" horiz-adv-x="1151" />
<glyph unicode="&#xcc;" horiz-adv-x="657" />
<glyph unicode="&#xcd;" horiz-adv-x="657" />
<glyph unicode="&#xce;" horiz-adv-x="657" />
<glyph unicode="&#xcf;" horiz-adv-x="657" />
<glyph unicode="&#xd0;" horiz-adv-x="1518" />
<glyph unicode="&#xd1;" d="M-49 0l276 1305h260l177 -899l190 899h207l-277 -1305h-239l-187 946l-200 -946h-207zM366 1601q0 40 64 117q78 94 188 94q80 0 137 -61l49 -52q6 -7 16 -7q11 0 37 22l64 53q18 17 44 17q25 0 41.5 -17.5t16.5 -44.5q0 -38 -65 -114q-83 -97 -179 -97q-65 0 -106 29 t-62 51l-26 33q-6 6 -17 6q-10 0 -36 -22l-64 -52q-18 -18 -44 -18q-25 0 -41.5 18.5t-16.5 44.5z" />
<glyph unicode="&#xd2;" horiz-adv-x="1614" />
<glyph unicode="&#xd3;" horiz-adv-x="1614" />
<glyph unicode="&#xd4;" horiz-adv-x="1614" />
<glyph unicode="&#xd5;" horiz-adv-x="1614" />
<glyph unicode="&#xd6;" horiz-adv-x="1614" />
<glyph unicode="&#xd7;" horiz-adv-x="1014" d="M104 390l280 281l-280 280l112 112l280 -280l281 280h1l111 -112l-280 -280l280 -281v-1l-112 -111l-281 280l-280 -280z" />
<glyph unicode="&#xd8;" horiz-adv-x="1614" />
<glyph unicode="&#xd9;" horiz-adv-x="1501" />
<glyph unicode="&#xda;" horiz-adv-x="1501" />
<glyph unicode="&#xdb;" horiz-adv-x="1501" />
<glyph unicode="&#xdc;" horiz-adv-x="1501" />
<glyph unicode="&#xdd;" horiz-adv-x="1233" />
<glyph unicode="&#xde;" horiz-adv-x="1120" />
<glyph unicode="&#xdf;" horiz-adv-x="1251" />
<glyph unicode="&#xe0;" horiz-adv-x="922" />
<glyph unicode="&#xe1;" horiz-adv-x="922" />
<glyph unicode="&#xe2;" horiz-adv-x="922" />
<glyph unicode="&#xe3;" horiz-adv-x="922" />
<glyph unicode="&#xe4;" horiz-adv-x="922" />
<glyph unicode="&#xe5;" horiz-adv-x="922" />
<glyph unicode="&#xe6;" horiz-adv-x="1451" />
<glyph unicode="&#xe7;" horiz-adv-x="905" />
<glyph unicode="&#xe8;" horiz-adv-x="909" />
<glyph unicode="&#xe9;" horiz-adv-x="909" />
<glyph unicode="&#xea;" horiz-adv-x="909" />
<glyph unicode="&#xeb;" horiz-adv-x="909" />
<glyph unicode="&#xec;" horiz-adv-x="514" />
<glyph unicode="&#xed;" horiz-adv-x="514" />
<glyph unicode="&#xee;" horiz-adv-x="514" />
<glyph unicode="&#xef;" horiz-adv-x="514" />
<glyph unicode="&#xf0;" horiz-adv-x="1139" />
<glyph unicode="&#xf1;" horiz-adv-x="1026" d="M-49 0l196 932h207l-49 -234q57 121 155.5 188.5t221.5 67.5q143 0 203.5 -93t19.5 -286l-121 -575h-206l120 575q23 109 -9 151t-109 42q-115 0 -207 -93t-127 -257l-88 -418h-207zM298 1200q0 23 18.5 50t41 54t48.5 45q55 41 122 41q72 0 124 -54l32 -33 q7 -8 12.5 -14.5t15.5 -6.5q9 0 33 21l56 46q18 17 41 17t38 -17t15 -40t-18.5 -50t-41 -53.5t-46.5 -45.5q-55 -43 -115.5 -43t-97.5 27t-53 49l-26 26q-6 8 -13 8q-10 0 -36 -21l-55 -48q-19 -15 -41 -15t-38 17t-16 40z" />
<glyph unicode="&#xf2;" horiz-adv-x="1010" />
<glyph unicode="&#xf3;" horiz-adv-x="1010" />
<glyph unicode="&#xf4;" horiz-adv-x="1010" />
<glyph unicode="&#xf5;" horiz-adv-x="1010" />
<glyph unicode="&#xf6;" horiz-adv-x="1010" />
<glyph unicode="&#xf7;" horiz-adv-x="1108" d="M80 637v160h948v-160h-948zM303 444q0 21 23 44l118 121q21 20 41 20q19 0 45 -23l115 -124q17 -22 17 -41q0 -22 -20 -45l-115 -126q-29 -29 -42 -29q-23 0 -41 20l-127 145q-14 19 -14 38zM303 1014q0 21 23 44l118 121q21 20 41 20q19 0 45 -23l115 -124 q17 -23 17 -41q0 -22 -20 -45l-115 -126q-29 -29 -42 -29q-23 0 -41 20l-127 145q-14 19 -14 38z" />
<glyph unicode="&#xf8;" horiz-adv-x="1010" />
<glyph unicode="&#xf9;" horiz-adv-x="1059" />
<glyph unicode="&#xfa;" horiz-adv-x="1059" />
<glyph unicode="&#xfb;" horiz-adv-x="1059" />
<glyph unicode="&#xfc;" horiz-adv-x="1059" />
<glyph unicode="&#xfd;" horiz-adv-x="868" />
<glyph unicode="&#xfe;" horiz-adv-x="1010" />
<glyph unicode="&#xff;" horiz-adv-x="868" />
<glyph unicode="&#x100;" horiz-adv-x="1084" d="M-158 0l684 1305h238l131 -1305h-217l-29 311h-432l-158 -311h-217zM311 494h322l-45 538zM354 1558.5q0 28.5 6.5 45t18.5 28.5q26 27 63 27h402q35 0 54 -19.5t26.5 -36t7.5 -36t-7.5 -36t-17.5 -28.5q-26 -27 -63 -27h-402q-37 0 -55 21q-33 33 -33 61.5z" />
<glyph unicode="&#x101;" horiz-adv-x="1014" d="M-47 268q18 82 75.5 143.5t137.5 102.5t176 61.5t193 20.5q53 0 91 -2t76 -6l7 37q16 73 -33 109t-141 36q-84 0 -175.5 -23.5t-179.5 -68.5l-49 162q102 53 215 83.5t229 30.5q76 0 146 -17t120 -56t71.5 -101.5t0.5 -154.5l-131 -625h-204l28 137q-65 -76 -169.5 -118 t-215.5 -42q-67 0 -123.5 18.5t-92.5 55.5t-51 91.5t-1 125.5zM160 279q-25 -117 153 -117q62 0 118 15.5t103.5 43t79 66.5t41.5 86l9 35q-48 8 -91 9t-75 1q-152 0 -238 -40t-100 -99zM376 1234.5q0 24.5 7 39.5t19 26q24 24 60 24h395q34 0 53 -17.5t26 -32.5t7 -31.5 t-7 -31t-19 -25.5q-24 -24 -60 -24h-395q-34 0 -54 18q-32 30 -32 54.5z" />
<glyph unicode="&#x12a;" d="M57 0l39 186h207l199 932h-207l39 187h627l-39 -187h-213l-199 -932h213l-39 -186h-627zM326 1475l113 175h540l-113 -175h-540z" />
<glyph unicode="&#x12b;" horiz-adv-x="811" d="M-23 0l39 186h207l119 559h-207l39 187h414l-158 -746h213l-39 -186h-627zM132 1144l113 175h540l-113 -175h-540z" />
<glyph unicode="&#x131;" horiz-adv-x="514" d="M19 732v44q222 69 261 182h48v-735q0 -173 100 -173h46v-50h-442v50h46q100 0 100 173v432q0 77 -111 77h-48z" />
<glyph unicode="&#x16a;" d="M31 265q-6 91 18 202l178 838h207l-178 -840q-10 -49 -14 -101.5t7 -97.5t48 -73.5t104 -28.5q68 0 115 28.5t80 72.5t51.5 97.5t28.5 102.5l178 840h207l-178 -840q-25 -111 -68 -201t-108.5 -153.5t-151.5 -98.5t-195 -35q-108 0 -178.5 35t-107.5 98.5t-43 154.5z" />
<glyph unicode="&#x16b;" horiz-adv-x="1061" d="M25 356l122 576h207l-123 -576q-22 -108 10.5 -150t110.5 -42q115 0 207 93t127 257l88 418h207l-197 -932h-206l49 233q-58 -120 -156 -188t-221 -68q-144 0 -204 93.5t-21 285.5zM376 1234.5q0 24.5 7 39.5t19 26q24 24 60 24h395q34 0 53 -17.5t26 -32.5t7 -31.5 t-7 -31t-19 -25.5q-24 -24 -60 -24h-395q-34 0 -54 18q-32 30 -32 54.5z" />
<glyph unicode="&#x300;" horiz-adv-x="0" d="M-486 1365q0 31 20.5 51t53.5 20q20 0 40.5 -12t55.5 -47l291 -297h-69l-330 203q-31 20 -46.5 40t-15.5 42z" />
<glyph unicode="&#x301;" horiz-adv-x="0" d="M-486 1080l291 297q35 35 55.5 47t40.5 12q33 0 53.5 -20t20.5 -51q0 -22 -15.5 -42t-46.5 -40l-330 -203h-69z" />
<glyph unicode="&#x302;" horiz-adv-x="0" d="M-624 1081l232 355h118l232 -355h-58l-233 216l-233 -216h-58z" />
<glyph unicode="&#x303;" horiz-adv-x="0" d="M-612 1163q19 76 68 133t119 57q56 0 121.5 -28t123.5 -28q60 0 88 56h54q-20 -73 -68.5 -131.5t-130.5 -58.5q-50 0 -114.5 31t-122.5 31q-59 0 -84 -62h-54z" />
<glyph unicode="&#x304;" horiz-adv-x="0" d="M-526 1195v125h516v-125h-516z" />
<glyph unicode="&#x307;" horiz-adv-x="0" d="M-388 1263q0 6 3 12.5t11 13.5l69 72q6 6 13 9t14 3q6 0 12.5 -3t12.5 -9l71 -76q5 -4 7 -10t2 -14q-1 -9 -3 -15t-8 -12l-71 -76q-12 -11 -16 -13.5t-7 -2.5q-10 0 -16.5 2.5t-10.5 8.5l-75 87q-4 4 -6 9.5t-2 13.5z" />
<glyph unicode="&#x308;" horiz-adv-x="0" d="M-603 1263q0 13 14 26l71 72q13 12 25 12q11 0 27 -14l69 -73q10 -14 10 -25q0 -13 -12 -27l-69 -75q-17 -17 -25 -17q-14 0 -25 12l-76 86q-9 12 -9 23zM-238 1263q0 13 14 26l71 72q13 12 25 12q11 0 27 -13l69 -74q10 -14 10 -25q0 -13 -12 -26l-69 -76 q-17 -17 -25 -17q-14 0 -25 12l-76 87q-9 11 -9 22z" />
<glyph unicode="&#x30a;" horiz-adv-x="0" d="M-426 1258q0 75 51 126t125 51q76 0 127.5 -51.5t51.5 -125.5q0 -75 -51.5 -126.5t-127.5 -51.5q-74 0 -125 51.5t-51 126.5zM-350 1258q0 -42 29 -71t71 -29t71 29t29 71q0 40 -29.5 69.5t-70.5 29.5t-70.5 -29.5t-29.5 -69.5z" />
<glyph unicode="&#x30c;" horiz-adv-x="0" d="M-624 1436h58l233 -214l233 214h58l-232 -356h-118z" />
<glyph unicode="&#x327;" horiz-adv-x="0" d="M-471 -290q85 -52 152 -52q66 0 94.5 21.5t28.5 66.5t-49 64q-40 16 -102 16q-16 0 -34 -2l48 176h63l-37 -104q32 4 62 5q86 0 134 -40.5t48 -113.5q0 -76 -58.5 -120.5t-160.5 -44.5q-109 0 -189 32v96z" />
<glyph unicode="&#x1004;" horiz-adv-x="922" d="M1 392v6q16 362 287 540q140 79 263 79q70 0 123 -20.5t88 -47.5t53 -48t19.5 -23.5t3.5 -6.5l-4 -6q-146 -215 -162 -230l-4 -7l-3 2q-1 -2 -4 -2t-17 8q2 3 5 7t5 9t2 14q0 16 -7 35l-6 23q-14 58 -67 76q-28 9 -54 9q-55 0 -101.5 -30t-81 -74t-52.5 -87 q-58 -129 -58 -231q0 -27 4 -52q9 -55 46 -91q41 -39 102 -41q47 0 83.5 23.5t61.5 53.5t38 53.5t13 24.5l8 16l164 -178q-11 -30 -38.5 -69t-86 -75t-163.5 -59l-47 -2q-195 0 -302 102q-45 43 -69 95t-33 105t-9 99z" />
<glyph unicode="&#x1010;" horiz-adv-x="1727" d="M0 299q0 161 112 339.5t284 280.5q177 94 310 94q65 0 108 -17.5t66.5 -38t30.5 -30.5l2 -1q1 -2 9 -24t8 -76q0 -27 -3 -63q313 250 508 250q57 0 94.5 -18.5t59 -41.5t30.5 -41l9 -18l-132 -660q-20 -99 -93.5 -161t-175.5 -68l-48 -2l27 119q26 119 62 283t67 314 q-31 93 -111 93q-82 0 -197 -84q-67 -49 -102 -84l-101 -480q-15 -70 -68.5 -113t-122.5 -43h-80q-80 -8 -146 -8q-190 0 -283.5 62t-118.5 177q-5 29 -5 60zM220 388q0 -66 29 -101.5t74.5 -49t93.5 -13.5q46 0 87.5 7.5t68.5 14.5l26 7l85 476l1 18q0 29 -16 49 q-24 29 -84 29q-68 0 -130.5 -38t-112 -95t-79.5 -117.5t-33 -108.5q-10 -43 -10 -78z" />
<glyph unicode="&#x1011;" horiz-adv-x="1665" d="M0 302q0 161 111.5 338.5t282.5 279.5q176 93 308 93q66 0 108.5 -17.5t66 -37.5t30.5 -30q0 -1 1.5 -2.5t8.5 -21t9 -65.5q113 95 226.5 134.5t192.5 39.5q66 0 108.5 -17.5t66 -37.5t30.5 -30q0 -1 2 -2t9 -22.5t7 -74.5v-19.5t-0.5 -19.5t-2.5 -26h1l-101 -596 q-17 -69 -70 -112t-122 -43h-79q-81 -9 -148 -9q-202 0 -300 78q-52 -50 -116 -69h-79q-81 -9 -147 -9q-188 0 -281 62.5t-118 175.5q-5 29 -5 60zM219 391q0 -66 29 -101.5t74 -48.5t94 -13q46 0 87 7t67 14l26 7q29 154 84 475l1 18q0 40 -29.5 58.5t-69.5 18.5 q-68 0 -130 -38t-111 -95t-79 -117t-34 -108q-9 -43 -9 -77zM862 392q0 -66 29 -101.5t74.5 -49t94.5 -13.5q45 0 86.5 7t66.5 14l26 7q29 154 84 475l2 18q0 40 -30 58.5t-70 18.5q-61 0 -117.5 -31t-103 -79.5t-79 -103t-46.5 -102.5l-16 -95z" />
<glyph unicode="&#x1015;" horiz-adv-x="1038" d="M0 523q0 82 15 150t37 106q15 36 67.5 99t150.5 117q50 25 100 25q75 0 135.5 -47t79.5 -127l9 -40q-27 16 -75 16q-22 0 -39 -3l-16 -2l-25 -7q-26 -8 -63 -27t-73.5 -53.5t-62 -88t-25.5 -130.5t34 -181l12 -18q11 -19 32 -44t48 -48t59 -34q48 -25 90 -25 q39 0 70.5 13t50.5 27l18 13l128 808q85 0 143 -60t58 -141q0 -18 -3 -35l-128 -724l-44 -18q-44 -19 -117.5 -37t-163.5 -18q-191 0 -338 110q-61 55 -97 126q-67 131 -67 298z" />
<glyph unicode="&#x1019;" horiz-adv-x="1042" d="M0 509q0 84 16 155.5t40 111.5q37 79 101 142q98 98 243 98q40 0 87 -9q36 -8 62.5 -36t43.5 -61t25 -57l7 -25l-38 1q-165 0 -266.5 -70t-101.5 -209q0 -80 40 -194q11 3 221 131l215 132l78 426q80 0 134.5 -56.5t54.5 -132.5q0 -18 -4 -37l-143 -732l-44 -19 q-44 -19 -118.5 -38t-164.5 -19q-189 0 -335 113q-85 70 -119 175t-34 210zM396 210q47 -25 90 -25q41 0 73.5 13.5t51.5 26.5l19 14l27 132q0 1 -1 1q-10 0 -75.5 -40.5t-184.5 -121.5z" />
<glyph unicode="&#x101a;" horiz-adv-x="1670" d="M0 518q0 -123 49 -236t142 -183q141 -96 275 -96q66 0 116.5 18t82.5 38.5t42 30.5l2 2q7 4 29.5 40.5t50.5 124.5q217 -253 414 -253q58 0 103 18.5t76 41.5t47 42l16 18l124 622q4 24 4 47q0 91 -63 158t-161 73l-21 -120q-60 -344 -108 -603q-69 -94 -150 -94 q-48 0 -90.5 26t-75 59t-50.5 59l-19 26l77 406q4 19 4 37q0 81 -58 140.5t-143 59.5l-6 -34l-17 -82l-95 -431l-41 -183q-20 -75 -99 -93q-20 -3 -38 -3q-75 0 -125.5 45.5t-75.5 112t-25 129.5q0 42 11 76q26 89 74.5 139.5t100.5 73t89 27.5l37 5q3 18 3 34 q0 67 -48 113.5t-112 46.5q-30 0 -61 -12q-128 -54 -220 -198q-67 -127 -67 -268z" />
<glyph unicode="&#x101b;" horiz-adv-x="1082" d="M0 326q0 75 30.5 182t102 216.5t193.5 195.5q188 111 378 111q90 0 157 -18.5t104 -37.5l37 -19q-130 -765 -191 -1116q-94 -530 -95 -564q0 -62 28 -94t69 -43t81 -11q42 0 86 8l9 1q-176 -117 -294 -117q-56 0 -93.5 22.5t-59.5 55t-33 65.5t-14 55l-3 23 q48 291 72.5 440.5t38 229.5t27.5 160.5t41 229.5l91 502q-17 17 -32 27q-40 27 -92 27q-43 0 -100 -26q-36 -11 -69.5 -34.5t-61 -49.5t-43.5 -44l-16 -19q-47 -86 -67.5 -150.5t-20.5 -111.5q0 -54 19.5 -88t48 -53.5t57 -28t48.5 -10.5l19 -2l-12 -67q-14 -72 -66.5 -114 t-117.5 -42q-47 0 -92 25q-87 55 -121 120.5t-38 103.5q-5 25 -5 60z" />
<glyph unicode="&#x101c;" horiz-adv-x="1736" d="M0 329q0 69 18 138q43 167 133 278t181 170q172 110 402 110q63 0 99 -7t58 -14q13 -4 25 -6.5t31 -15t34 -41t15 -81.5q0 -47 -29 -190q-15 -71 -26 -140t-11 -131q0 -90 31 -147q43 -73 114 -73q41 0 82.5 19t75.5 44t55 44l21 19l139 683q88 0 148 -61.5t60 -145.5 q0 -22 -5 -45l-131 -605q-77 -72 -196 -108.5t-227 -36.5q-64 0 -114 13q-164 57 -223 198q-37 88 -37 172v8l32 186q32 187 38 230q-47 69 -141 69q-81 0 -185 -60q-111 -69 -176.5 -185.5t-65.5 -213.5q0 -61 25 -96t65.5 -50t87.5 -15q37 0 69.5 5.5t52.5 10.5l20 5 l-41 -108q-42 -106 -47 -111q-109 -55 -190 -55q-71 0 -121.5 32t-83 83t-47.5 110.5t-15 114.5z" />
<glyph unicode="&#x101d;" horiz-adv-x="1008" d="M0 298q0 161 113 339.5t285 281.5q177 94 310 94q65 0 108 -17.5t66.5 -38t29.5 -30.5q2 -1 6.5 -9.5t8.5 -30t4 -58.5v-20t-0.5 -19t-2.5 -27h1l-102 -600q-16 -69 -69.5 -112.5t-123.5 -43.5h-79q-80 -8 -147 -8q-190 0 -283.5 62t-119.5 178q-5 28 -5 59zM221 388 q0 -66 29 -102t74.5 -49.5t94.5 -13.5q46 0 87.5 7.5t67.5 14.5l27 7q28 154 84 478l1 17q0 28 -16 48q-24 30 -83 30q-69 0 -131.5 -38.5t-112 -95.5t-79.5 -117.5t-34 -108.5q-9 -43 -9 -77z" />
<glyph unicode="&#x101e;" horiz-adv-x="1632" d="M0 404q0 6 5 6h211q31 -2 31 -4l-1 -23q0 -52 16.5 -96t52 -71t90.5 -27q18 0 39 3q78 17 98 92l102 456q2 7 2 13q0 22 -14.5 38.5t-38.5 18.5l-36 2q-83 0 -141.5 -35t-95 -91t-55.5 -121q-1 -3 -4 -3t-7 3q-9 4 -12 8q-47 71 -47 163q0 54 23 114q75 166 414 166 q38 0 73 -4q83 0 139 -57.5t56 -135.5q0 -18 -4 -36l-77 -410q0 -3 1 -4q23 -39 75 -90q79 -77 157 -77q80 0 149 93v2q43 234 108 603l19 108q0 4 5 4q95 -5 157 -70.5t62 -154.5q0 -22 -5 -45l-124 -624q-19 -27 -69 -63q-77 -54 -171 -54q-53 0 -115.5 21.5t-135 75 t-153.5 145.5l-4 2q-3 0 -5 -4q-28 -85 -50.5 -119t-26.5 -35l-1 -1q-11 -10 -42.5 -30t-81.5 -38t-116 -18q-133 0 -272 95q-145 114 -180 309z" />
<glyph unicode="&#x1022;" horiz-adv-x="1768" d="M-83 -13l373 -11q66 91 89 125t73 105l-21 2q-21 3 -52 13t-62.5 32t-52.5 61t-21 100q0 20 2 41q4 49 35 111t81.5 121t115 98t134.5 39q18 0 37 -3q65 -17 65 -76q0 -9 -2 -19q-29 -168 -50.5 -288.5t-36 -202t-23.5 -130.5t-14 -74.5t-6.5 -35t-2.5 -9.5v-1h99 q64 0 113 39.5t63 103.5l106 510l30 26q29 26 75.5 60t100 60.5t101.5 26.5q83 0 115 -96q-32 -154 -69 -322.5t-64 -290.5l-27 -122l39 2q109 6 187.5 73t101.5 173l132 667l-8 19q-9 18 -31.5 42t-60.5 42.5t-98 18.5q-54 0 -128.5 -23t-172 -79t-221.5 -154q4 36 4 64 q0 56 -8 78.5t-10 23.5l-1 2q-7 10 -31.5 31t-68.5 39t-112 18q-136 0 -317 -96q-152 -90 -259 -239.5t-139 -306.5l1 -19q2 -19 9.5 -47.5t24 -56.5t44.5 -47.5t72 -19.5l15 1z" />
<glyph unicode="&#x102d;" horiz-adv-x="2" d="M-735 1458q0 88 34.5 159.5t92 121.5t127.5 76q23 11 75 23t124 12q40 0 84 -7t90 -25q72 -31 111 -88t39 -123q0 -27 -7 -55l-80 -289q-26 -67 -46.5 -95.5t-25.5 -30.5q-10 -8 -38 -23.5t-72 -29t-103 -13.5q-56 0 -126 19.5t-133.5 65.5t-103.5 124q-42 85 -42 178z M-526 1429q0 -48 19 -97.5t58.5 -83.5t98.5 -34l29 1l2 1q55 12 75 59l73 300q3 12 3 24q0 26 -15 45q-19 23 -79 31l-14 1q-56 -6 -101 -25q-91 -38 -134 -140q-15 -45 -15 -82z" />
<glyph unicode="&#x102e;" horiz-adv-x="2" d="M-680 1443q0 123 65 221q81 108 191 149q21 10 73 22.5t121 12.5q39 0 82 -7q133 -22 192 -113q34 -54 34 -116q0 -34 -8 -62l-85 -289q-43 -103 -74 -126q-1 0 -1 -1q-93 -65 -207 -65t-233 72q-76 52 -114 137q-36 79 -36 165zM-494 1411q170 110 346 118l12 46 q4 12 4 27q0 24 -14 42q-18 23 -78 31l-14 1q-55 -6 -102 -25q-93 -39 -137 -140l-4 -11q-6 -17 -9.5 -32.5t-3.5 -47.5v-9zM-456 1272q49 -58 132 -58l29 1l2 1q55 9 76 47l27 81q-162 -13 -266 -72z" />
<glyph unicode="&#x102f;" horiz-adv-x="1" d="M-691 -741q19 -163 201 -217q29 -8 62 -8q72 0 168.5 34t231.5 90q120 50 279 111q-8 -3 -79 -19t-175 -31.5t-204 -15.5q-68 0 -125.5 11t-92.5 38.5t-38 74.5l108 626h-211z" />
<glyph unicode="&#x1030;" horiz-adv-x="2" d="M-939 -776h215l127 729h-210zM-638 -741q19 -163 201 -217q29 -8 62 -8q72 0 168.5 34t231.5 90q120 50 279 111q-8 -3 -79 -19t-175 -31.5t-204 -15.5q-68 0 -125.5 11t-92.5 38.5t-38 74.5l108 626h-211z" />
<glyph unicode="&#x1031;" horiz-adv-x="885" d="M0 407v7q18 369 296 549q146 81 273 81q73 0 127.5 -21t91 -48.5t55 -48.5t20 -23.5t3.5 -6.5q-11 -19 -102 -147q-59 -83 -70 -93l-4 -8l-3 1l-5 -1q-5 1 -17 9l4 5q4 6 6.5 10.5t2.5 14.5q0 16 -8 36l-6 22q-15 59 -70 79q-28 9 -56 9q-48 0 -90.5 -23.5t-76.5 -60 t-57 -75.5l180 -174q68 -65 122 -121l159 -170q-14 -49 -79 -111t-221 -97q-12 0 -23.5 -1t-25.5 -1q-202 0 -312 104q-46 44 -71 97t-34 107t-9 100zM236 402q0 -27 4 -52q9 -56 48 -93q42 -40 103 -42q50 0 89 25l-237 237q-7 -39 -7 -75z" />
<glyph unicode="&#x1035;" horiz-adv-x="2" d="M-590 1432q0 111 55.5 209.5t163.5 163.5l19 9q52 26 95.5 40t120.5 14l28 -1q306 -17 470 -300q-26 26 -92 57t-138 55.5t-115 32.5q-25 4 -48 4l-60 -2q-77 0 -125 -26.5t-74.5 -61t-39.5 -62.5q68 -67 102 -99.5t51 -47.5t32 -30.5t46 -47.5t93 -98q-9 -37 -58 -82 t-161 -70l-1 -1l-35 -1q-148 0 -229 76q-52 51 -74.5 109.5t-22.5 109.5q-3 25 -3 50zM-391 1363q0 -48 25.5 -84t77.5 -38q32 0 56 16l-155 154q-4 -25 -4 -48z" />
<glyph unicode="&#x1036;" horiz-adv-x="2" d="M-471 1362q0 57 23.5 103t55 77.5t59.5 44.5q42 20 107 30l19 1q58 0 100 -41.5t42 -99.5q0 -13 -3 -26l-41 -213l-30 -12q-29 -11 -75 -22.5t-94 -11.5q-102 0 -142 70q-21 53 -21 100zM-360 1377q0 -30 8 -61q7 -22 27 -30.5t39 -8.5q17 0 27 5q25 17 33 61 q24 108 25 119q0 23 -17.5 37t-39.5 14q-17 0 -33 -9q-69 -43 -69 -127z" />
<glyph unicode="&#x1037;" horiz-adv-x="0" d="M-718 -340q5 147 54 216q23 31 62.5 49t81.5 18q65 0 106 -41q50 -49 50 -125q0 -69 -39 -126q-27 -37 -78.5 -56.5t-106.5 -19.5q-40 0 -76 11h-2q-25 6 -38.5 27t-13.5 47zM-608 -292v-7q0 -17 4 -25.5t27 -8.5q19 0 44 9q22 12 36.5 38t14.5 57q0 21 -8 40.5t-22 26 t-27 6.5q-10 0 -19 -2t-13 -4l-6 -2q-15 -23 -23 -60.5t-8 -67.5z" />
<glyph unicode="&#x1038;" horiz-adv-x="512" d="M-40 92q5 163 59 239q26 34 69.5 54t90.5 20q71 0 117 -45q55 -55 55 -138q0 -77 -43 -140q-30 -41 -87 -62.5t-118 -21.5q-44 0 -84 12h-2q-28 7 -42.5 30t-14.5 52zM75 680q5 163 59 239q26 34 69.5 54t90.5 20q71 0 117 -45q55 -55 55 -138q0 -77 -43 -140 q-30 -41 -87 -62.5t-118 -21.5q-44 0 -84 12h-2q-28 7 -42.5 30t-14.5 52zM81 137q0 -18 4.5 -27.5t30.5 -9.5q21 0 48 10q25 13 41 42t16 63q0 23 -9 44.5t-24.5 29t-30.5 7.5q-11 0 -20.5 -2.5t-14.5 -4.5l-6 -2q-17 -26 -26 -67.5t-9 -74.5v-8zM196 725q0 -18 4.5 -27.5 t30.5 -9.5q21 0 48 10q25 13 41 42t16 63q0 23 -9 44.5t-24.5 29t-30.5 7.5q-11 0 -20.5 -2.5t-14.5 -4.5l-6 -2q-17 -26 -26 -67.5t-9 -74.5v-8z" />
<glyph unicode="&#x103a;" horiz-adv-x="0" d="M-557 1177q0 314 184 496q175 171 516 171q125 0 280 -25q118 -21 216 -61t170 -82.5t111 -73.5l39 -30l-97 26q-97 26 -245.5 51.5t-300.5 25.5q-182 0 -298 -49q-241 -105 -295 -244q-23 -61 -23 -113q0 -45 8 -81l1 -10q0 -36 -32.5 -59t-74 -37t-74.5 -19l-33 -6h-44 l-4 33q-4 33 -4 87z" />
<glyph unicode="&#x103b;" horiz-adv-x="427" d="M-735 -537q0 -160 114.5 -276t287.5 -121l184 -2q84 0 147.5 52.5t79.5 135.5l259 1741h-222l-243 -1617q-9 -59 -50 -89t-99 -30q-117 4 -194 82t-77 186q0 16 2.5 30t2.5 21q16 89 46.5 146.5t63 88.5t56.5 43l23 12q-41 6 -60 6q-110 0 -197.5 -72.5t-109.5 -183.5 l-10 -100q-4 -27 -4 -53z" />
<glyph unicode="&#x103c;" horiz-adv-x="292" d="M-263 -633q5 -43 60.5 -104t149.5 -116.5t214 -80.5l11 -8h4q12 -1 68 -1q232 0 431 39q127 26 229 77l110 502v14q0 135 -79 191q-37 24 -88 24q-61 0 -140 -34l8 -7q6 -6 22.5 -25.5t32 -50t15.5 -67.5q0 -19 -6 -39q-61 -275 -67 -317q-178 -64 -353 -64 q-68 0 -133.5 14.5t-121 49.5t-93.5 97q237 1820 258 1986q1 5 8 10q13 11 23 14.5t14 11.5q65 120 347 183q75 15 162 15q78 0 161 -9.5t166 -26.5q100 -6 177 -39q108 -28 188 -53l137 -42q-27 26 -144 101q-180 111 -395 168q-163 40 -296 55q-21 3 -42 4q-68 6 -128 6 q-321 0 -483 -156l-7 -7q-7 -6 -13 -13q-99 -105 -131 -243q-16 -63 -16 -117zM1170 1649q89 -17 170 -38q-75 32 -170 38z" />
<glyph unicode="&#x103d;" horiz-adv-x="2" d="M-1125 -608q0 133 101 277.5t259 227.5q167 78 295 78q63 0 104.5 -14.5t65 -31.5t30.5 -25l2 -2q2 -1 10.5 -22.5t8.5 -74.5l-1 -38l-47 -314q-16 -89 -91 -167.5t-187 -119.5q-104 -36 -205 -36q-120 0 -199 38q-101 45 -139 162q-7 30 -7 62zM-911 -503q0 -63 28 -99 q44 -55 119 -73q36 -8 57 -8q22 0 65 8q92 21 109 101l6 38q42 253 45 288q0 49 -62 64q-18 3 -36 3q-66 0 -125 -32t-104.5 -79.5t-72 -98t-28.5 -90.5z" />
<glyph unicode="&#x104a;" horiz-adv-x="541" d="M165 21h179l2 972h-181v-972z" />
<glyph unicode="&#x104b;" horiz-adv-x="844" d="M206 25h179l2 964h-181v-964zM444 25h179l2 964h-181v-964z" />
<glyph unicode="&#x1062;" horiz-adv-x="508" d="M-40 801l19 12q19 11 51.5 22.5t74.5 11.5q87 -2 87 -46l-151 -782q52 5 237 11l92 474q72 372 72 388q0 57 -41.5 99t-101.5 42h-95q-53 0 -97.5 -35.5t-77.5 -80.5t-51 -81z" />
<glyph unicode="&#x1075;" horiz-adv-x="1079" d="M-92 -13l382 -11q69 92 92.5 126.5t73.5 103.5l-22 2q-22 3 -53.5 13t-63 32t-53.5 61t-22 100q0 20 2 41q4 49 36 111t84 121t117.5 98t137.5 39q19 0 38 -3q67 -17 67 -76l-2 -19q-30 -168 -52 -288.5t-37 -201.5t-24 -130.5t-14 -75t-7 -35t-3 -9.5v-1h102 q65 0 115 39.5t65 103.5l116 544q16 67 16 116q0 64 -14.5 98t-20.5 41l-2 2q-7 11 -32 31.5t-70.5 38.5t-114.5 18q-139 0 -325 -96q-155 -90 -265 -239.5t-142 -306.5l1 -19q2 -20 10 -48t24.5 -56t45 -47.5t73.5 -19.5l16 1z" />
<glyph unicode="&#x1076;" horiz-adv-x="997" d="M0 342q0 44 28.5 77.5t75.5 43.5q222 40 299 53l252 43l30 187l1 18q0 47 -34 80t-80 33q-39 0 -73.5 -22t-53.5 -47q-26 -40 -26 -65q0 -12 3.5 -20.5t8.5 -14t9 -8.5l4 -3l-2 -11q-1 -12 -9 -29q-20 -42 -77.5 -65.5t-121.5 -23.5q-88 0 -134 48q-42 48 -55.5 101 t-15.5 94l-3 35q0 60 18 101.5t31 57.5v-10q0 -24 8 -57q20 -88 37 -122q38 -76 108 -76h10q16 0 30 4.5t35 22.5q-11 2 -13.5 26t-2.5 62q0 17 3 27q22 58 72.5 92.5t112.5 39.5q54 3 114 3q113 0 139 -4q73 -20 126.5 -98t53.5 -151q0 -13 -2 -26l-58 -317 q-12 -75 -45.5 -164.5t-100 -161.5t-177.5 -94q-36 -7 -77 -7q-77 0 -159.5 26.5t-161.5 86.5q-76 60 -121 196q-6 20 -6 39zM248 301q8 -13 35.5 -36t68.5 -43t90 -20q44 0 90 25q47 28 67.5 67.5t27.5 93.5z" />
<glyph unicode="&#x1077;" horiz-adv-x="1052" d="M-90 11l267 194l-15 -1q-43 0 -71 19t-44.5 46.5t-23.5 54.5t-9 46l-2 19q32 152 138.5 297.5t258.5 233.5q180 94 316 94q68 0 112 -17.5t68.5 -37.5t31.5 -31l1 -1q6 -6 20 -39.5t14 -96.5q0 -48 -15 -113l-113 -530q-14 -62 -63 -100.5t-113 -38.5h-98l-23 -1 q-20 0 -48 5.5t-49 24.5t-21 58q0 115 226 368l47 266q2 10 2 19q0 57 -65 74q-18 3 -36 3q-70 0 -134.5 -38t-115 -95.5t-81.5 -118t-35 -107.5q-2 -22 -2 -40q0 -59 21.5 -97t52.5 -60t61.5 -31.5t52.5 -12.5l21 -2q-49 -68 -72 -101t-90 -123zM537 207q0 -37 46 -37l18 1 l42 228l-16 -21q-16 -20 -37 -50.5t-37 -63.5t-16 -57z" />
<glyph unicode="&#x1078;" horiz-adv-x="1663" d="M0 207q0 21 4 43l129 648l16 18q16 18 47 41.5t76 41.5t103 18q54 0 118.5 -22.5t139 -78t157.5 -152.5q30 93 53 129.5t28 37.5q11 11 43 31t82.5 38t116.5 18q135 0 277 -96q92 -70 141 -183t49 -237q0 -140 -67 -268q-55 -98 -135 -151t-173 -72.5t-186 -19.5 q-81 0 -156 9q-2 1 -62 10.5t-93.5 51.5t-33.5 100q0 19 4 38l77 424l-20 28q-20 29 -55 65.5t-80.5 65t-95.5 28.5q-80 0 -146 -91q-48 -259 -108 -604l-21 -120l-26 1q-88 5 -145.5 66t-57.5 144zM916 249q15 -7 58.5 -20t101.5 -13q53 0 110 20t107 74t84 154 q10 34 10 75q0 63 -25 130t-75.5 112.5t-126.5 45.5q-19 0 -39 -3q-78 -17 -98 -93z" />
<glyph unicode="&#x107a;" horiz-adv-x="1710" d="M0 324q0 73 30 178t100.5 212.5t191.5 192.5q184 109 371 109q88 0 154 -18t102 -37l37 -18l-91 -539q24 -78 83 -149t166 -88q48 3 79.5 21.5t50.5 44.5t28.5 51t12 42.5t42.5 213t41 199t1 12.5q0 45 -88 47q-41 0 -73.5 -12t-51.5 -23l-19 -12l18 35q18 36 51 81.5 t77.5 81t97.5 35.5h99q58 0 98.5 -41.5t40.5 -97.5q0 -14 -3 -27l-127 -660q-20 -86 -103 -123q-106 -43 -215 -43q-56 0 -115 15t-118 51t-115 100q-54 -317 -93 -537q-55 -314 -55 -330q0 -62 27.5 -93t68 -42t79.5 -11q44 0 87 8l6 1q-173 -116 -290 -116q-55 0 -91.5 22 t-58.5 54.5t-32.5 64.5t-13.5 54l-3 22l121 731l146 805l-14 14q-14 13 -41.5 26.5t-67.5 13.5q-42 0 -99 -25q-35 -11 -68 -34.5t-59.5 -48.5t-42.5 -44l-16 -18q-47 -84 -67 -147.5t-20 -110.5q0 -53 19.5 -86.5t47.5 -52.5t56 -27.5t47 -9.5l19 -2l-12 -67 q-13 -70 -65 -111.5t-116 -41.5q-45 0 -90 25q-86 54 -119.5 119t-36.5 101q-6 25 -6 60z" />
<glyph unicode="&#x107b;" horiz-adv-x="1721" d="M0 297q0 160 112 337.5t283 280.5q175 93 307 93q66 0 108.5 -17.5t66 -37.5t29.5 -30q1 -1 5.5 -10t9 -30t4.5 -58q0 -28 -4 -66q313 248 515 248q59 0 98.5 -17.5t63 -40.5t33.5 -41l10 -18l-119 -619q-27 -119 -126 -190.5t-223 -76.5v1h-6q-24 0 -57 7t-57.5 30 t-24.5 71q0 141 267 446l34 156q-31 93 -112 93q-47 0 -98.5 -25.5t-96.5 -58.5t-74 -58l-28 -26l-83 -400q-24 -103 -103 -167.5t-183 -64.5q-79 -8 -145 -8q-190 0 -283 62t-118 176q-5 29 -5 59zM219 387q0 -66 29 -101.5t74 -48.5t93 -13q77 0 155 21l26 7 q84 474 86 492q0 57 -63 73q-19 3 -37 3q-68 0 -130 -37.5t-111 -94.5t-79 -117t-34 -107q-9 -43 -9 -77zM1158 248q0 -45 53 -45h6l60 270q-15 -18 -43 -58.5t-52 -86.5t-24 -80z" />
<glyph unicode="&#x107c;" horiz-adv-x="1747" d="M0 284q0 74 48 117q53 48 128 66l26 6h378l74 364q-44 6 -80 6q-82 0 -128.5 -24t-68 -57t-27 -62.5t-5.5 -43.5q0 -3 -1 -3l-14 2q-23 4 -73 15l-72 16q-32 8 -49.5 31.5t-17.5 51.5q0 27 18 52q64 81 174 132q135 62 275 66q89 0 148.5 -19.5t94 -44t49.5 -43.5l14 -19 l-45 -248q35 122 129 226q90 89 203.5 123.5t239.5 34.5q29 0 58 -2q82 -5 134 -62t52 -133q0 -19 -4 -38l-13 -68q-121 60 -263 60q-116 0 -216 -50q-74 -44 -110 -95q-57 -80 -57 -164v-4q135 0 196.5 2t214.5 2q16 4 32 4q48 0 88.5 -29.5t40.5 -74.5l-2 -16l-48 -261 q-14 -60 -73 -76q-110 -24 -218 -24q-78 0 -155 18.5t-135 68.5t-83 140q-20 41 -32 107h-33l-5 -27q-9 -13 -19 -34q-18 -36 -52 -84t-97.5 -95t-169.5 -78q-47 -5 -89 -5q-106 0 -176 26.5t-110.5 68t-57 89t-16.5 89.5zM217 246q0 -92 117 -92q52 0 91 25t65.5 65.5 t41.5 89.5h-295q-20 -48 -20 -88zM816 480l1 13l-1 -6v-7zM1004 334q17 -55 61 -103q62 -68 162 -68q40 0 90 13q18 101 19 110q0 20 -13.5 34t-33.5 14l-11 -1q-16 1 -274 1z" />
<glyph unicode="&#x107d;" horiz-adv-x="1634" d="M0 902l20 19q20 18 57 41.5t89 42t116 18.5q46 0 96 -13q71 -17 110.5 -49t55 -73t15.5 -84q0 -82 -38 -165l-13 -27l-93 -46q-123 -100 -123 -240q0 -41 11.5 -81t50 -57t81.5 -17q59 0 106.5 29t82 66t52.5 66l19 29l1 -1h3q-4 36 -4 76q0 69 15 144t50 148t96 138 q90 89 205 123.5t242 34.5h20q95 -4 156.5 -68.5t61.5 -152.5q0 -22 -1.5 -32t-4.5 -22t-6 -30q-123 61 -265 61q-116 0 -217 -51q-114 -67 -144 -173q-13 -43 -13 -73q0 -20 3 -30h2q58 54 131.5 75.5t143.5 21.5q87 0 148 -24q22 -8 51 -31q72 -56 79 -168l-55 -297 l-39 -10q-40 -10 -104.5 -20t-138.5 -10q-71 0 -141.5 15t-127.5 54.5t-89 110.5q-100 -80 -192.5 -126t-191.5 -46q-96 0 -174 45.5t-124 124.5t-46 179q3 198 136 320q8 4 36.5 11t64 18.5t62 25.5t28.5 31v7q0 68 -28 105t-71.5 50.5t-89.5 13.5q-42 0 -79.5 -6.5 t-60.5 -13.5zM913 275l8 -19q8 -18 29 -42t58 -43t94 -19q42 0 97 14q18 102 19 112q0 25 -15.5 53.5t-37.5 28.5h-5q-31 5 -53 5q-63 0 -107 -22.5t-87 -67.5z" />
<glyph unicode="&#x107e;" horiz-adv-x="1642" d="M-119 -705q13 -4 122 -26.5t207.5 -32t148.5 -9.5q90 0 171 16q125 23 171 113l130 713q-50 37 -79 100q-82 -62 -161.5 -106t-166.5 -59q-35 -5 -68 -5q-99 0 -179 45.5t-127 124t-47 177.5q1 29 2 33q10 111 79 196.5t178 123.5q75 25 78 50v8q0 67 -28.5 103.5 t-73.5 50.5t-92 14q-44 0 -82 -7t-63 -13l-24 -7l21 18q20 19 58 42t91.5 41.5t118.5 18.5q47 0 100 -13q73 -17 114 -49t57 -73t16 -83q0 -81 -39 -163l-13 -28l-96 -45q-127 -100 -127 -238q0 -104 48 -131q27 -16 66 -21q17 -3 34 -3q60 0 109 28.5t84 65.5t54 65l19 29 l5 -1q-5 37 -5 77q0 68 15.5 142.5t52 147t98.5 137.5q92 89 209.5 123t247.5 34h23q97 -4 160.5 -67.5t63.5 -151.5q0 -21 -4 -42.5t-8 -41.5l-37 15q-36 15 -97.5 30.5t-138.5 15.5q-119 0 -223 -50q-117 -67 -148 -172q-13 -43 -13 -73q0 -20 4 -31l2 1q59 53 134 74.5 t147 21.5q74 0 130 -15l15 -6q16 -5 38 -18.5t45 -37t39 -61t16 -79.5q0 -21 -4 -42l-49 -260l-40 -9q-41 -10 -107 -20t-142 -10q-32 0 -64 3l-129 -706q-70 -162 -308 -227q-34 -7 -73 -7q-115 0 -398 128q-114 52 -268 114zM917 274l8 -19q9 -18 30 -42t58.5 -42.5 t96.5 -18.5q44 0 100 14l19 102l1 10q0 25 -16 53t-38 28l-6 -1q-28 6 -54 6q-101 0 -180 -72z" />
<glyph unicode="&#x107f;" horiz-adv-x="1022" d="M0 526q0 81 14.5 147.5t35.5 104.5q15 35 66.5 97t148.5 115q49 24 98 24q73 0 133 -46t79 -125l9 -39l-8 -23q-9 -22 -29.5 -55t-55.5 -66t-88 -56t-127 -23q-27 0 -58 4q-7 -32 -7 -71q0 -76 33 -178l12 -18q11 -18 31.5 -43t47.5 -47.5t58 -33.5q47 -25 89 -25 q39 0 70 13t49 26l18 13l125 795q83 0 140.5 -59t57.5 -139q0 -17 -3 -34l-126 -712l-43 -18q-43 -18 -116 -36t-161 -18q-187 0 -332 108q-60 55 -96 124q-65 129 -65 294zM247 662l18 2q17 3 43 10t51.5 21t43 36t17.5 56l-1 17q-37 -12 -86 -45.5t-86 -96.5z" />
<glyph unicode="&#x1081;" horiz-adv-x="1101" d="M-676 -635q153 -57 267 -103q126 -52 218.5 -83t171.5 -31q36 0 71 7q146 36 214 97.5t89 104.5l127 638l-2 -2h-24v-1h-34q-102 0 -174 17l-117 -590q-35 -65 -126 -90t-202 -25t-219 14.5t-180 29t-80 17.5zM6 295q0 162 122 342.5t308 285.5q106 53 189.5 73.5 t144.5 20.5q72 0 118.5 -17.5t71.5 -38t32 -30.5q1 0 6 -9.5t10 -31.5t5 -61q0 -28 -4 -65l-7 -144l-72 -325h-266q2 12 5 24q29 150 76 412l2 19q0 40 -32.5 58.5t-75.5 18.5q-64 0 -123.5 -30t-110 -77t-86.5 -100q96 -63 149 -128.5t74.5 -129t21.5 -120.5 q0 -75 -21 -131t-42 -88l-3 -3v-2q-12 -17 -16 -23l1 4l-20 4l-7 -10l-28 -1q-191 3 -288 63q-102 63 -129 179q-5 29 -5 61zM231 380q0 -59 24.5 -94t61.5 -51q21 17 30 42.5t9 56.5q0 63 -25 134t-47 116q-38 -69 -43 -125q-10 -44 -10 -79z" />
<glyph unicode="&#x1082;" horiz-adv-x="0" d="M-827 -575q0 -285 388 -285q110 0 259 25q153 29 288 85.5t221 106.5l86 49l-98 -25q-99 -25 -242 -50.5t-277 -25.5q-72 0 -166.5 13.5t-140.5 39.5q-44 29 -58.5 58.5t-14.5 59.5q0 21 3 42t3 43q0 67 39 140q22 42 40 67l14 22q18 33 44 67q48 64 48 88q0 35 -77 35 q-22 0 -54 -3q-39 -16 -96 -63.5t-97 -120.5q-44 -80 -78 -178t-34 -190z" />
<glyph unicode="&#x1083;" horiz-adv-x="426" d="M-90 -694q3 -43 43.5 -104.5t151.5 -96.5q27 -8 57 -8q61 0 139 28t190.5 76t274.5 110q-170 -47 -327 -47q-208 0 -296 101q265 1518 265 1530q0 53 -38 92t-93 39l-90 -1q-52 0 -95.5 -35t-75 -79.5t-48.5 -79.5l-18 -35l18 11q19 12 50.5 23t72.5 11q87 -2 87 -45z " />
<glyph unicode="&#x1084;" horiz-adv-x="914" d="M0 277q0 104 67 186.5t185 125.5q-123 57 -123 172q0 80 64 155q36 44 133 79t218 35q161 0 280 -77q56 -40 58 -111q0 -48 -19.5 -80t-46 -50.5t-49.5 -26t-30 -7.5l-11 2q2 18 2 39q0 33 -6.5 58t-16.5 52h-6q-7 22 -55 46.5t-121 24.5q-43 0 -82.5 -8t-72.5 -34 q-54 -60 -54 -118q0 -66 64 -122q46 6 98 6q77 0 100 -8q31 -12 46 -51v-3q0 -3 -2 -6.5t-6 -4l-12 -1.5q-354 -31 -373 -204v-21q0 -12 4 -23q48 -130 166 -130q41 0 83 17q29 103 47.5 174.5t19.5 75.5t2 7h9q79 0 135.5 -56t56.5 -135q0 -28 -8 -56l-37 -118 q-2 -5 -7 -7.5t-57.5 -20t-134 -35.5t-169.5 -18q-207 0 -298 127l-1 1q-40 72 -40 149z" />
<glyph unicode="&#x1085;" horiz-adv-x="2" d="M-637 1289q0 96 87 169q-20 45 -20 100q0 110 78 189q95 93 286 93q70 0 158 -14q191 -32 350 -98.5t218 -100.5l27 -12l-52 10h-5v1l-6 1q-5 2 -7.5 2t-7 1.5t-9.5 1.5l-2 1h-5v1q-229 47 -408 69q-100 13 -162 13q-83 0 -149 -22q-89 -29 -120 -86q-19 -35 -19 -70 l1 -10l40 8q50 11 121 11q62 0 81 -5q26 -8 39 -38l-12 -2q-217 -13 -295 -96q-27 -30 -27 -74l1 -16q18 -47 57.5 -71.5t88.5 -24.5q37 0 76 14q33 85 58 174l1 5h2q68 0 113 -42.5t45 -97.5q0 -20 -7 -42l-31 -91l-38 -12q-139 -44 -265 -44q-168 0 -248 94 q-33 55 -33 111z" />
<glyph unicode="&#x1086;" horiz-adv-x="0" d="M-488 1067q78 30 173.5 111.5t154.5 225.5q-23 -3 -45 -3q-48 0 -92 13h-2q-31 7 -47 32.5t-16 57.5q5 179 65 263q29 37 77 59t99 22q78 0 129 -50q60 -59 60 -151q0 -20 -1.5 -38.5t-3.5 -30.5l-1 -12l-12 -48q-12 -47 -45 -117.5t-94.5 -142.5t-159 -125.5 t-239.5 -65.5zM-228 1547q0 -16 5 -25t33 -9q35 1 63 20q52 40 52 106q0 25 -10 48.5t-27 32t-34 8.5q-34 -2 -52 -29q-30 -46 -30 -137v-15z" />
<glyph unicode="&#x1087;" horiz-adv-x="418" d="M-177 -290q71 26 156.5 99.5t138.5 202.5q-20 -2 -41 -2q-43 0 -82 11h-2q-28 7 -42.5 29.5t-14.5 51.5q5 161 59 237q26 33 69 53t89 20q70 0 116 -45q54 -54 54 -136q0 -18 -1.5 -34.5l-2.5 -27.5l-1 -11l-11 -43q-11 -42 -40.5 -105.5t-85 -128.5t-143.5 -112.5 t-215 -58.5zM56 155l1 -8v-6q0 -13 4.5 -21.5t29.5 -8.5q31 0 56 17q47 37 47 96q0 22 -8 45q-17 35 -55 35q-31 -2 -47 -27t-22 -59.5t-6 -62.5z" />
<glyph unicode="&#x1088;" horiz-adv-x="512" d="M-140 -290q71 26 156.5 99.5t138.5 202.5q-20 -2 -41 -2q-43 0 -82 11h-2q-28 7 -42.5 29.5t-14.5 51.5q5 161 59 237q26 33 69 53t89 20q70 0 116 -45q54 -54 54 -136q0 -18 -1.5 -34.5l-2.5 -27.5l-1 -11l-11 -43q-11 -42 -40.5 -105.5t-85 -128.5t-143.5 -112.5 t-215 -58.5zM81 680q5 163 59 239q26 34 69.5 54t90.5 20q71 0 117 -45q55 -55 55 -138q0 -77 -43 -140q-30 -41 -87 -62.5t-118 -21.5q-44 0 -84 12h-2q-28 7 -42.5 30t-14.5 52zM93 155l1 -8v-6q0 -13 4.5 -21.5t29.5 -8.5q31 0 56 17q47 37 47 96q0 22 -8 45 q-17 35 -55 35q-31 -2 -47 -27t-22 -59.5t-6 -62.5zM202 725q0 -18 4.5 -27.5t30.5 -9.5q21 0 48 10q25 13 41 42t16 63q0 23 -9 44.5t-24.5 29t-30.5 7.5q-11 0 -20.5 -2.5t-14.5 -4.5l-6 -2q-17 -26 -26 -67.5t-9 -74.5v-8z" />
<glyph unicode="&#x1089;" horiz-adv-x="418" d="M-35 92q5 163 59 239q26 34 69.5 54t90.5 20q71 0 117 -45q55 -55 55 -138q0 -77 -43 -140q-30 -41 -87 -62.5t-118 -21.5q-44 0 -84 12h-2q-28 7 -42.5 30t-14.5 52zM86 137q0 -18 4.5 -27.5t30.5 -9.5q21 0 48 10q25 13 41 42t16 63q0 23 -9 44.5t-24.5 29t-30.5 7.5 q-11 0 -20.5 -2.5t-14.5 -4.5l-6 -2q-17 -26 -26 -67.5t-9 -74.5v-8z" />
<glyph unicode="&#x108a;" horiz-adv-x="742" d="M-70 93q2 70 15.5 133.5t43.5 105.5q26 34 69.5 54t90.5 20q32 0 62.5 -11t54.5 -34q29 -29 42 -64.5t13 -73.5q0 -78 -43 -140q-31 -41 -88 -62.5t-117 -21.5q-44 0 -84 12h-2q-28 7 -42.5 30t-14.5 52zM51 138q0 -18 5 -27.5t30 -9.5q32 1 57 18q48 37 48 97 q0 23 -9 45q-10 22 -25 29t-30 7q-32 -2 -48 -27t-22 -60.5t-6 -63.5v-8zM58 681q2 70 15.5 133.5t43.5 105.5q26 34 69.5 54t90.5 20q32 0 62.5 -11t54.5 -34q29 -29 42 -64.5t13 -73.5q0 -78 -43 -140q-31 -41 -88 -62.5t-117 -21.5q-44 0 -84 12h-2q-28 7 -42.5 30 t-14.5 52zM174 11q4 -1 67 16.5t148.5 68.5t155 150t84.5 259q-27 -71 -101.5 -157.5t-204.5 -140.5q-13 -109 -82 -164q-29 -21 -67 -32zM179 726q0 -18 5 -27.5t30 -9.5q32 1 57 18q48 37 48 97q0 23 -9 45q-10 22 -25 29t-30 7q-32 -2 -48 -27t-22 -60.5t-6 -63.5v-8z M302 599q4 -1 67 16.5t148.5 68.5t155 150t84.5 259q-27 -71 -101.5 -157.5t-204.5 -140.5q-13 -109 -82 -164q-29 -21 -67 -32z" />
<glyph unicode="&#x1090;" horiz-adv-x="1052" d="M0 293q0 14 95 806q21 137 155 230t311 93q167 0 279 -85.5t112 -208.5q-2 -29 -95 -805q-21 -137 -155.5 -230t-310.5 -93q-167 0 -279 85t-112 208zM256 311q0 -50 45.5 -84t112.5 -34q71 0 125 37.5t63 92.5l94 788q0 50 -45.5 84t-112.5 34q-71 0 -125 -37.5 t-63 -92.5z" />
<glyph unicode="&#x1091;" horiz-adv-x="544" d="M0 1260q0 27 18.5 53t54.5 38q93 30 186 58q36 13 70 13q31 0 60 -13q55 -27 55 -74q0 -8 -132 -1104q41 0 74 -21q43 -28 43 -67q0 -35 -30 -61t-76 -39l-133 -38q-19 -5 -37 -5q-48 0 -82 28.5t-34 62.5q0 6 131 1092q-28 -7 -55 -7q-71 0 -102 45q-11 18 -11 39z" />
<glyph unicode="&#x1092;" horiz-adv-x="944" d="M0 904q0 31 23 53q-8 41 -8 83q0 67 27 134q57 124 223 201q111 47 224 47q118 0 213.5 -45.5t128.5 -126.5q13 -36 13 -74q0 -42 -17 -120q-8 -41 -17 -102q-11 -89 -34 -176q-40 -138 -174 -224q-39 -24 -81 -45q-83 -42 -104 -58l-15 -11q-31 -26 -57 -56 q-5 -8 -9 -12q-19 -27 -31 -55q-3 -4 -10.5 -29.5t-7.5 -69.5l1 -2q3 -23 11 -46l13 -28q12 -19 12 -40q0 -26 -20 -50t-61 -40q-35 -12 -74 -12q-38 0 -70.5 11.5t-47.5 34.5q-50 84 -50 172q0 124 96 246q65 81 170 142q32 19 66 35q27 14 54.5 29.5t43 26.5t31.5 30 l-2 -3l5 10l7 9q6 9 9 19q13 21 28 117q33 191 39 224t6 60q0 20 -6.5 35.5t-43.5 30.5q-5 0 -18 4q-4 0 -5 1h-26q-12 -3 -25 -5q0 -1 -15 -7q-8 -3 -28 -14q-15 -7 -21 -13l-21 -21q-7 -7 -17 -20q-28 -40 -28 -96q0 -33 8 -65.5t19 -65.5q2 -7 2 -15q0 -39 -46.5 -73 t-105.5 -34q-21 0 -42 5.5t-42 10.5q-93 25 -93 83z" />
<glyph unicode="&#x1093;" horiz-adv-x="1175" d="M0 87q0 16 5 32l430 1234q14 34 58.5 51.5t89.5 17.5q16 0 30 -2q45 -8 66 -32t21 -53q0 -16 -6 -32q-70 -205 -143 -411q23 3 46 3q73 0 137 -40q57 -47 66 -110l92 -434q9 -48 21 -95q20 4 39 4q51 0 91 -27q32 -26 32 -59q0 -41 -49 -75q-80 -45 -165 -45 q-63 0 -117 23.5t-81 68.5q-25 50 -33 105l-100 475q-33 -21 -61 -29l-205 -588q-13 -34 -57.5 -51.5t-89.5 -17.5q-16 0 -31 2q-45 8 -65.5 32t-20.5 53z" />
<glyph unicode="&#x1094;" horiz-adv-x="1355" d="M0 88q0 16 6 31l532 1235q16 34 54.5 51t80.5 17q41 0 74.5 -17t40.5 -51q178 -1082 188 -1138q134 26 159 26q43 0 76 -18.5t42 -50.5q2 -8 2 -16q0 -33 -29.5 -61.5t-76.5 -38.5l-149 -28q-51 -13 -101 -13q-21 0 -42 4q-108 23 -132 120q-8 30 -11 61l-29 174 q-41 255 -84 510l-351 -816q-16 -33 -55 -51t-81 -18q-63 0 -93 35q-21 24 -21 53z" />
<glyph unicode="&#x1095;" horiz-adv-x="1149" d="M4 361q0 129 40 254q20 72 74 133.5t145 99.5q127 47 262 47q35 0 70 -3q18 218 38 434q4 41 44 67t96 29q54 0 89 -26.5t37 -61.5q0 -8 -42 -502q90 -35 157 -87q33 -26 33 -63q0 -40 -43 -72q-45 -27 -97 -27q-38 0 -71 15l-6 -84q-4 -127 -34 -252 q-20 -72 -78.5 -136.5t-152.5 -99.5q-79 -26 -157 -26q-127 0 -235 62q-154 91 -167 265q-2 17 -2 34zM271 356q0 -40 21 -89v1q10 -15 21 -29q20 -19 51 -35q19 -8 25 -9l10 -3q2 0 6.5 -0.5t9 -0.5t6.5 -1h9l15 2q11 5 23 8q1 1 2 2.5t3 2.5q16 12 20 17l8 7q38 46 48 122 q7 50 9 101q3 69 21 247q-4 1 -8.5 1t-5.5 1l-53 1q-24 0 -48 -2q-19 -1 -47 -8q-20 -2 -31 -7l-17 -8q0 -2 -8 -7l-16 -10q-15 -20 -28 -41q-10 -22 -18 -45l-3 -13q-8 -36 -10 -54q-15 -66 -15 -151z" />
<glyph unicode="&#x1096;" horiz-adv-x="1102" d="M0 863q1 94 14 172q27 168 165 276q75 58 179 89q76 22 150 22q139 0 231 -70q105 -82 105 -230q0 -29 -3 -57q-14 -120 -34 -240q37 14 74 14q51 0 90 -27q31 -27 31 -59q0 -42 -48 -77q-83 -52 -180 -87l-70 -493q-7 -41 -48.5 -67.5t-97.5 -28.5h-4q-50 0 -85 26.5 t-35 60.5q2 31 62 444q-32 -2 -66 -2q-96 0 -186.5 21.5t-150.5 72.5q-56 50 -74.5 112t-18.5 128zM269 851l1 -12q4 -32 17 -62q6 -10 10 -13q7 -8 9.5 -10.5t6 -5t3.5 -3.5q46 -26 143 -26q34 0 65 4q19 132 36 264l2 12q13 58 13 116q0 22 -8 46q-6 20 -13 32 q-11 18 -34 30q-9 5 -10.5 5.5t-5 1.5t-5.5 1l9 -2l-23 3l-26 -2q-33 -9 -49 -17q-9 -3 -35 -20q-32 -24 -49 -50q-41 -61 -49 -154q-8 -75 -8 -138z" />
<glyph unicode="&#x1097;" horiz-adv-x="1160" d="M1 85q0 29 20 60l709 1073q-169 0 -340 2q-53 0 -86.5 26t-36.5 65q0 44 42.5 72.5t93.5 28.5l537 -3q56 0 87.5 -26t31.5 -66q0 -26 -17 -52l-706 -1070q263 5 527 8q53 0 86 -27t35 -64q0 -45 -41.5 -72t-94.5 -29l-728 -11q-66 0 -106 48q-12 18 -13 37z" />
<glyph unicode="&#x1098;" horiz-adv-x="1054" d="M0 250q2 28 38 328q11 79 65 145t139 110q-52 40 -81.5 93.5t-29.5 117.5q0 15 38 331h255q-36 -300 -37 -315q0 -46 35.5 -79.5t87.5 -33.5q56 0 100.5 37.5t52.5 90.5l36 300h255l-36 -300q-9 -73 -53.5 -135t-113.5 -107q67 -40 105.5 -98.5t38.5 -127.5 q-2 -29 -37 -329q-22 -135 -156 -226.5t-310 -91.5q-167 0 -279.5 84t-112.5 206zM256 267q0 -49 45.5 -83t113.5 -34q71 0 125 37t62 91l37 312q0 49 -45.5 82.5t-112.5 33.5q-71 0 -125 -36.5t-63 -91.5z" />
<glyph unicode="&#x1099;" horiz-adv-x="1088" d="M0 20l31 253q13 102 73.5 185.5t152.5 137.5q-73 40 -115.5 102t-42.5 136q2 29 32 278q21 137 155.5 230t310.5 93q167 0 279 -85t112 -208q0 -14 -31 -279q-12 -84 -70.5 -153.5t-150.5 -113.5q71 -48 112 -120.5t41 -160.5q0 -21 -3 -42l-31 -253h-255q32 264 32 277 q0 71 -43 122t-107 51q-69 0 -126.5 -58t-69.5 -139l-31 -253h-255zM355 852q0 -50 45 -84.5t113 -34.5q71 0 125.5 37.5t62.5 92.5l31 261q0 49 -45.5 83.5t-112.5 34.5q-71 0 -125 -37.5t-63 -92.5z" />
<glyph unicode="&#x109e;" horiz-adv-x="819" d="M113 -727l285 1612l-170 -21q-147 41 -17 171l442 5l-287 -1607h317l-75 -160h-495zM297 1497q0 82 60 139q57 56 137 56q41 0 77 -14.5t62.5 -41t42 -61.5t15.5 -78t-15.5 -78t-42 -60.5t-62.5 -40.5t-77 -15q-82 -3 -139 57q-58 55 -58 137zM424 1497q0 -14 6.5 -27.5 t15.5 -22.5t22.5 -15.5t25.5 -6.5q31 0 54.5 21.5t23.5 50.5q0 35 -23.5 54.5t-54.5 19.5t-50.5 -18.5t-19.5 -55.5z" />
<glyph unicode="&#x109f;" horiz-adv-x="1401" d="M106 526l1 29q11 113 87.5 209t197.5 151q100 43 200 43q136 0 248 -69t159 -191q32 -100 32 -205q0 -87 -14 -173q-23 -167 -50 -335l-31 -198q-32 -203 -36 -234l-1 -38q0 -40 11.5 -77.5t48.5 -42.5q34 0 57 47q29 57 33 139q5 75 11 126l73 750q11 101 20 201l4 46 q5 45 5 112t-14.5 132.5t-57.5 118.5q-40 46 -94.5 57.5t-114.5 11.5l-47 -1l-58 2q-98 7 -178 48t-126 121q-33 65 -33 130q6 141 120 248q103 97 248 122q39 6 76 6q164 0 287 -98t135 -257l-1 -11q-3 -29 -24.5 -42.5t-50.5 -13.5q-37 0 -70.5 19.5t-36.5 53.5 q-3 76 -45.5 134.5t-126.5 71.5q-16 2 -33 2q-77 0 -147.5 -40t-110.5 -106q-30 -50 -34 -116q0 -43 21.5 -77.5t70.5 -47.5q42 -8 87 -8q44 2 88 2q116 0 210 -43q243 -119 243 -468q0 -40 -3 -80q-22 -257 -43 -455q-14 -138 -30 -313q-19 -190 -37 -381 q-5 -69 -28.5 -137t-89.5 -113q-60 -34 -123 -34q-93 0 -170 56q-106 79 -106 238l1 30q11 134 35 254q25 156 78 498q17 114 17 187q0 75 -17.5 143.5t-64.5 112.5t-136 44q-83 0 -158 -42.5t-124 -109t-57 -141.5q0 -34 3 -55q16 -77 69.5 -120t124.5 -43q60 0 124 33 q18 9 39 9q40 0 74.5 -27t34.5 -59q0 -29 -36 -50q-102 -51 -204 -51q-120 0 -222.5 60t-155.5 162q-34 71 -34 143z" />
<glyph unicode="&#x1e0c;" d="M-49 0l276 1305h424q133 0 217 -53.5t125 -142.5t45 -207t-24 -249q-27 -131 -80 -249.5t-132 -208t-185.5 -142.5t-241.5 -53h-424zM197 186h217q141 0 243.5 122t149.5 345q49 226 -2 345.5t-193 119.5h-217zM253 -251q0 68 40 107.5t93 39.5q55 0 96 -41 q39 -38 39 -79t-10 -66t-29 -43q-41 -39 -96 -39q-53 0 -94 39q-39 41 -39 82z" />
<glyph unicode="&#x1e0d;" horiz-adv-x="1141" d="M-12.5 268q-12.5 90 10.5 197q22 106 73.5 196.5t120 155t153.5 101t175 36.5q78 0 133.5 -26.5t102.5 -79.5l59 270h-180l39 187h387l-277 -1305h-206l16 86q-70 -53 -137.5 -81t-145.5 -28q-90 0 -158.5 36t-110.5 100.5t-54.5 154.5zM205 465q-29 -135 27.5 -218 t173.5 -83q53 0 115.5 21.5t107.5 62.5l92 436q-27 41 -81 62.5t-108 21.5q-116 0 -207.5 -84t-119.5 -219zM340 -251q0 68 40 107.5t93 39.5q55 0 96 -41q39 -38 39 -79t-10 -66t-29 -43q-41 -39 -96 -39q-53 0 -94 39q-39 41 -39 82z" />
<glyph unicode="&#x1e36;" d="M-49 0l276 1305h207l-237 -1119h626l-39 -186h-833zM253 -251q0 68 40 107.5t93 39.5q55 0 96 -41q39 -38 39 -79t-10 -66t-29 -43q-41 -39 -96 -39q-53 0 -94 39q-39 41 -39 82z" />
<glyph unicode="&#x1e37;" horiz-adv-x="777" d="M-81 0l39 186h205l199 932h-205l39 187h412l-238 -1119h215l-39 -186h-627zM158 -251q0 68 40 107.5t93 39.5q55 0 96 -41q39 -38 39 -79t-10 -66t-29 -43q-41 -39 -96 -39q-53 0 -94 39q-39 41 -39 82z" />
<glyph unicode="&#x1e40;" horiz-adv-x="1129" d="M-49 0l276 1305h246l45 -590l295 590h248l-277 -1305h-206l186 883l-232 -469h-159l-29 469l-186 -883h-207zM707 1630q0 68 40 108t95 40t94 -39q41 -41 41 -82t-11.5 -64.5t-29.5 -42.5q-39 -41 -94 -41t-94 41q-41 39 -41 80z" />
<glyph unicode="&#x1e41;" horiz-adv-x="1125" d="M-98 0l196 932h209l-28 -135q38 77 90.5 117t124.5 40q59 0 91.5 -36.5t32.5 -100.5q52 70 97 103.5t123 33.5q96 0 132 -70.5t5 -213.5l-141 -670h-207l135 639q14 66 7 97.5t-42 31.5q-61 0 -92 -69.5t-60 -202.5l-104 -496h-207l135 639q15 66 6.5 97.5t-43.5 31.5 q-61 0 -90.5 -69.5t-58.5 -202.5l-104 -496h-207zM525 1219q0 60 35.5 96t83.5 36q50 0 86 -37q35 -35 35 -71.5t-9 -58.5t-26 -39q-36 -35 -86 -35q-48 0 -84 35q-35 37 -35 74z" />
<glyph unicode="&#x1e42;" d="M-49 0l276 1305h246l45 -590l295 590h248l-277 -1305h-206l186 883l-232 -469h-159l-29 469l-186 -883h-207zM427 -251q0 68 40 107.5t93 39.5q55 0 96 -41q39 -38 39 -79t-10 -66t-29 -43q-41 -39 -96 -39q-53 0 -94 39q-39 41 -39 82z" />
<glyph unicode="&#x1e43;" horiz-adv-x="1086" d="M-98 0l196 932h209l-28 -135q38 77 90.5 117t124.5 40q59 0 91.5 -36.5t32.5 -100.5q52 70 97 103.5t123 33.5q96 0 132 -70.5t5 -213.5l-141 -670h-207l135 639q14 66 7 97.5t-42 31.5q-61 0 -92 -69.5t-60 -202.5l-104 -496h-207l135 639q15 66 6.5 97.5t-43.5 31.5 q-61 0 -90.5 -69.5t-58.5 -202.5l-104 -496h-207zM427 -251q0 68 40 107.5t93 39.5q55 0 96 -41q39 -38 39 -79t-10 -66t-29 -43q-41 -39 -96 -39q-53 0 -94 39q-39 41 -39 82z" />
<glyph unicode="&#x1e44;" d="M-49 0l276 1305h260l177 -899l190 899h207l-277 -1305h-239l-187 946l-200 -946h-207zM707 1630q0 68 40 108t95 40t94 -39q41 -41 41 -82t-11.5 -64.5t-29.5 -42.5q-39 -41 -94 -41t-94 41q-41 39 -41 80z" />
<glyph unicode="&#x1e45;" horiz-adv-x="1026" d="M-49 0l196 932h207l-49 -234q57 121 155.5 188.5t221.5 67.5q143 0 203.5 -93t19.5 -286l-121 -575h-206l120 575q23 109 -9 151t-109 42q-115 0 -207 -93t-127 -257l-88 -418h-207zM525 1219q0 60 35.5 96t83.5 36q50 0 86 -37q35 -35 35 -71.5t-9 -58.5t-26 -39 q-36 -35 -86 -35q-48 0 -84 35q-35 37 -35 74z" />
<glyph unicode="&#x1e46;" d="M-49 0l276 1305h260l177 -899l190 899h207l-277 -1305h-239l-187 946l-200 -946h-207zM427 -251q0 68 40 107.5t93 39.5q55 0 96 -41q39 -38 39 -79t-10 -66t-29 -43q-41 -39 -96 -39q-53 0 -94 39q-39 41 -39 82z" />
<glyph unicode="&#x1e47;" horiz-adv-x="1026" d="M-49 0l196 932h207l-49 -234q57 121 155.5 188.5t221.5 67.5q143 0 203.5 -93t19.5 -286l-121 -575h-206l120 575q23 109 -9 151t-109 42q-115 0 -207 -93t-127 -257l-88 -418h-207zM427 -251q0 68 40 107.5t93 39.5q55 0 96 -41q39 -38 39 -79t-10 -66t-29 -43 q-41 -39 -96 -39q-53 0 -94 39q-39 41 -39 82z" />
<glyph unicode="&#x1e6c;" d="M57 0l39 186h207l199 932h-178l-62 -289h-184l100 476h930l-100 -476h-185l62 289h-176l-199 -932h207l-39 -186h-621zM262 -251q0 68 40 107.5t93 39.5q55 0 96 -41q39 -38 39 -79t-10 -66t-29 -43q-41 -39 -96 -39q-53 0 -94 39q-39 41 -39 82z" />
<glyph unicode="&#x1e6d;" horiz-adv-x="987" d="M59 745l39 187h211l80 373h207l-80 -373h391l-39 -187h-391l-86 -403q-18 -90 16.5 -134t106.5 -44q88 0 141.5 51t77.5 123l172 -41q-47 -147 -164.5 -233.5t-267.5 -86.5q-82 0 -143.5 27t-99 75t-50 115.5t3.5 147.5l86 403h-211zM361 -251q0 68 40 107.5t93 39.5 q55 0 96 -41q39 -38 39 -79t-10 -66t-29 -43q-41 -39 -96 -39q-53 0 -94 39q-39 41 -39 82z" />
<glyph unicode="&#x2000;" horiz-adv-x="934" />
<glyph unicode="&#x2001;" horiz-adv-x="1868" />
<glyph unicode="&#x2002;" horiz-adv-x="934" />
<glyph unicode="&#x2003;" horiz-adv-x="1868" />
<glyph unicode="&#x2004;" horiz-adv-x="622" />
<glyph unicode="&#x2005;" horiz-adv-x="467" />
<glyph unicode="&#x2006;" horiz-adv-x="311" />
<glyph unicode="&#x2007;" horiz-adv-x="311" />
<glyph unicode="&#x2008;" horiz-adv-x="233" />
<glyph unicode="&#x2009;" horiz-adv-x="373" />
<glyph unicode="&#x200a;" horiz-adv-x="103" />
<glyph unicode="&#x2010;" horiz-adv-x="831" d="M116 443v95q0 45 48 45h508q48 0 48 -45v-95q0 -44 -47 -44h-510q-47 0 -47 44z" />
<glyph unicode="&#x2011;" horiz-adv-x="831" d="M116 443v95q0 45 48 45h508q48 0 48 -45v-95q0 -44 -47 -44h-510q-47 0 -47 44z" />
<glyph unicode="&#x2012;" horiz-adv-x="831" d="M116 443v95q0 45 48 45h508q48 0 48 -45v-95q0 -44 -47 -44h-510q-47 0 -47 44z" />
<glyph unicode="&#x2013;" horiz-adv-x="1108" d="M56 419v120h996v-120h-996z" />
<glyph unicode="&#x2014;" horiz-adv-x="2048" d="M0 419v120h2048v-120h-2048z" />
<glyph unicode="&#x2018;" horiz-adv-x="557" d="M186 1233q0 109 71 226.5t139 117.5v-43q-73 -43 -87 -190q0 -119 129 -161v-42l-119 -125q-44 0 -88.5 65.5t-44.5 151.5z" />
<glyph unicode="&#x2019;" horiz-adv-x="557" d="M119 1410v42l119 125q44 0 88.5 -65.5t44.5 -151.5q0 -109 -71 -226.5t-139 -117.5v43q73 43 87 190q0 119 -129 161z" />
<glyph unicode="&#x201a;" horiz-adv-x="557" d="M119 114v42l119 125q44 0 88.5 -65.5t44.5 -151.5q0 -109 -71 -226.5t-139 -117.5v43q73 43 87 190q0 119 -129 161z" />
<glyph unicode="&#x201c;" horiz-adv-x="910" d="M186 1233q0 109 71 226.5t139 117.5v-43q-73 -43 -87 -190q0 -119 129 -161v-42l-119 -125q-44 0 -88.5 65.5t-44.5 151.5zM539 1233q0 109 71 226.5t139 117.5v-43q-73 -43 -87 -190q0 -119 129 -161v-42l-119 -125q-44 0 -88.5 65.5t-44.5 151.5z" />
<glyph unicode="&#x201d;" horiz-adv-x="910" d="M119 1410v42l119 125q44 0 88.5 -65.5t44.5 -151.5q0 -109 -71 -226.5t-139 -117.5v43q73 43 87 190q0 119 -129 161zM472 1410v42l119 125q44 0 88.5 -65.5t44.5 -151.5q0 -109 -71 -226.5t-139 -117.5v43q73 43 87 190q0 119 -129 161z" />
<glyph unicode="&#x201e;" horiz-adv-x="910" d="M119 114v42l119 125q44 0 88.5 -65.5t44.5 -151.5q0 -109 -71 -226.5t-139 -117.5v43q73 43 87 190q0 119 -129 161zM472 114v42l119 125q44 0 88.5 -65.5t44.5 -151.5q0 -109 -71 -226.5t-139 -117.5v43q73 43 87 190q0 119 -129 161z" />
<glyph unicode="&#x2020;" horiz-adv-x="1014" d="M71 1001q0 57 27.5 94.5t71.5 37.5q32 0 137 -56q85 -46 179 -55q-8 97 -54 178q-57 101 -57 129q0 49 36 78.5t96 29.5q57 0 94.5 -27.5t37.5 -71.5q0 -32 -55 -137q-46 -85 -55 -179q96 8 177 54q101 57 129 57q49 0 79 -36t30 -96q0 -57 -27.5 -94.5t-72.5 -37.5 q-32 0 -136 55q-85 46 -179 57q8 -176 110 -277q-106 -460 -112 -974h-38q-6 514 -114 974q102 101 111 277q-96 -10 -178 -55q-101 -57 -129 -57q-49 0 -78.5 36t-29.5 96z" />
<glyph unicode="&#x2021;" horiz-adv-x="1014" d="M70 166q0 60 29.5 96t78.5 36q28 0 129 -57q82 -45 178 -55q-9 226 -111 398q102 171 111 397q-96 -10 -178 -55q-101 -57 -129 -57q-49 0 -78.5 36t-29.5 96q0 57 27.5 94.5t71.5 37.5q32 0 137 -56q85 -46 179 -55q-8 97 -54 178q-57 101 -57 129q0 49 36 78.5t96 29.5 q57 0 94.5 -27.5t37.5 -71.5q0 -32 -55 -137q-46 -85 -55 -179q96 8 177 54q101 57 129 57q49 0 79 -36t30 -96q0 -57 -27.5 -94.5t-72.5 -37.5q-32 0 -136 55q-85 46 -179 57q8 -226 110 -397q-102 -172 -110 -398q94 11 179 57q104 55 136 55q45 0 72.5 -37.5t27.5 -94.5 q0 -60 -30 -96t-79 -36q-28 0 -129 57q-81 46 -177 54q9 -94 55 -179q55 -105 55 -137q0 -44 -37.5 -71.5t-94.5 -27.5q-60 0 -96 29.5t-36 78.5q0 28 57 129q46 81 54 178q-94 -9 -179 -55q-105 -56 -137 -56q-44 0 -71.5 37.5t-27.5 94.5z" />
<glyph unicode="&#x2022;" horiz-adv-x="1024" d="M216 718q0 123 87 209t210 86q122 0 208.5 -86.5t86.5 -208.5t-87.5 -209.5t-209.5 -87.5q-123 0 -209 87t-86 210z" />
<glyph unicode="&#x2026;" horiz-adv-x="2048" d="M143 144q0 16 17 33l95 89q18 15 34 15q14 0 34 -17l93 -91q13 -17 13 -31q0 -15 -16 -32l-91 -94q-24 -21 -33 -21q-19 0 -34 15l-101 107q-11 14 -11 27zM826 144q0 16 17 33l95 89q18 15 34 15q14 0 34 -17l93 -91q13 -17 13 -31q0 -15 -16 -32l-91 -94 q-24 -21 -33 -21q-19 0 -34 15l-101 107q-11 14 -11 27zM1509 144q0 16 17 33l95 89q18 15 34 15q14 0 34 -17l93 -91q13 -17 13 -31q0 -15 -16 -32l-91 -94q-24 -21 -33 -21q-19 0 -34 15l-101 107q-11 14 -11 27z" />
<glyph unicode="&#x202f;" horiz-adv-x="373" />
<glyph unicode="&#x2039;" horiz-adv-x="631" d="M174 479l342 303h14v-37l-205 -266l205 -266v-37h-14z" />
<glyph unicode="&#x203a;" horiz-adv-x="631" d="M101 176v37l205 266l-205 266v37h14l342 -303l-342 -303h-14z" />
<glyph unicode="&#x2044;" horiz-adv-x="342" d="M-412 -29l7 11l933 1450h154l-938 -1461h-156z" />
<glyph unicode="&#x205f;" horiz-adv-x="467" />
<glyph unicode="&#x20a3;" horiz-adv-x="1108" d="M30 0v69h48q109 0 109 222v43h-157v120h157v689q0 222 -109 222h-48v69h943l111 -248h-112q-59 179 -133 179h-254q-108 0 -108 -222v-367h357q56 0 56 52v68h98v-358h-98v71q0 50 -56 50h-357v-205h186v-120h-186v-43q0 -222 108 -222h91v-69h-646z" />
<glyph unicode="&#x20a4;" horiz-adv-x="1108" d="M72 752v80h120q-29 95 -29 154q0 220 131.5 349t342.5 129h7q99 0 205 -16q132 -17 132 -41v-193h-69q-3 51 -81 103q-78 51 -187 51h-4q-110 0 -173 -93q-57 -83 -57 -228q0 -21 1 -42q0 -75 26 -173h373v-80h-348q14 -43 33 -90h349v-80h-317q16 -54 16 -110 q0 -170 -146 -362h393q94 0 154 133h92l-111 -253h-801l1 54q177 226 177 422q0 59 -16 116h-180v80h149l-1 1h1q-20 47 -35 89h-148z" />
<glyph unicode="&#x20a7;" horiz-adv-x="2216" d="M88 0v69h90q71 0 71 222v852q0 222 -71 222h-90v69h597q112 0 207 -72t141 -183q44 -108 46 -220h31q168 0 208 349h107v-349h276q55 17 125 18h2q82 0 171.5 -16.5t89.5 -35.5v-162h-67q-25 80 -70.5 113.5t-131.5 33.5q-42 0 -77.5 -28t-35.5 -97q0 -114 222 -218 q133 -59 179.5 -121.5t46.5 -143.5q0 -128 -101.5 -221t-256.5 -93q-52 0 -119 15q-37 -3 -52 -54l-52 1l-17 45q-44 -9 -98 -9q-157 0 -218.5 64t-61.5 172v678h-102q-8 -89 -42 -175q-45 -110 -141 -183.5t-215 -73.5q-124 0 -169 68v-245q0 -222 89 -222h108v-69h-619z M510 718q0 -104 62 -155q50 -42 90 -42h5q27 4 73 60.5t72 169.5q21 91 21 187q0 23 -1 47q-7 122 -45.5 223.5t-82.5 129t-77 27.5h-117v-647zM1425 222q0 -90 32 -120q23 -23 71 -28l-74 198h89q82 -216 248 -216q69 0 119 44t50 135q0 108 -247 225q-111 57 -155 116.5 t-44 133.5q0 110 80 188h-169v-676z" />
<glyph unicode="&#x20ac;" horiz-adv-x="1108" d="M-44 633l17 80h105q0 30 2 60h-90l17 80h83q19 109 68 217q80 176 238 280t333 104q94 0 142.5 -21t57.5 -21q21 0 21 44h84l89 -298h-89q-56 133 -152 178.5t-197 45.5q-150 -9 -257 -202q-79 -142 -100 -327h571l-17 -80h-561q-1 -30 -1 -60h546l-17 -80h-526 q18 -208 131 -383q133 -209 290 -209h2q130 2 221.5 72t93.5 185h81v-146q0 -56 -94.5 -117t-301.5 -64q-196 0 -353.5 105.5t-235.5 279.5q-62 136 -75 277h-126z" />
<glyph unicode="&#x2116;" horiz-adv-x="2271" />
<glyph unicode="&#x2122;" horiz-adv-x="1497" />
<glyph unicode="&#x2202;" horiz-adv-x="1108" d="M72 480q0 124 57.5 241.5t174.5 190t250 72.5q157 0 200 -58q-72 185 -212 316.5t-334 146.5v70q397 0 612.5 -290t215.5 -689q0 -124 -56 -241t-172.5 -190t-253.5 -73t-253.5 73t-172.5 190t-56 241zM331 539q0 -43 5 -81q14 -124 62.5 -231.5t107.5 -154.5 q51 -41 86 -41h6q39 3 89 59t74 171q16 75 16 154q0 43 -5 86q-14 124 -63 233t-108 155q-53 40 -90 40h-4q-34 -2 -84 -57.5t-76 -171.5q-16 -86 -16 -161z" />
<glyph unicode="&#x2206;" horiz-adv-x="1235" d="M6 0l593 1470l577 -1470h-1170zM153 102h728l-359 915z" />
<glyph unicode="&#x220f;" horiz-adv-x="1673" d="M97 -349h100q99 0 99 223v1268q0 223 -99 223h-100v69h1507v-69h-101q-98 0 -98 -223v-1268q0 -223 99 -223h100v-70h-648v70h100q99 0 99 223v1268q0 223 -99 223h-412q-98 0 -98 -223v-1268q0 -223 99 -223h100v-71h-648v71z" />
<glyph unicode="&#x2211;" horiz-adv-x="1285" d="M112 -351q75 0 116 53l613 790l-613 818q-41 54 -116 54v70h1003l111 -201h-93q-59 131 -153 131h-466l547 -725l-767 -990h686q94 0 153 131h93l-111 -200h-1003v69z" />
<glyph unicode="&#x2212;" horiz-adv-x="1108" d="M80 637v160h948v-160h-948z" />
<glyph unicode="&#x221a;" horiz-adv-x="1108" d="M162 405l142 48l77 -171l648 1377h166v-80h-93l-755 -1605z" />
<glyph unicode="&#x221e;" horiz-adv-x="1108" d="M58 717q0 91 32 174t86.5 124.5t107.5 41.5q55 0 108 -41t85 -120q11 -25 12 -34q7 23 22 62q40 95 109 144.5t139 49.5q71 0 139 -48.5t110 -145t42 -207.5q0 -110 -42 -207t-110 -145.5t-139 -48.5q-70 0 -139 49t-109 145q-15 39 -22 63q-2 -11 -12 -33 q-32 -81 -85 -122t-108 -41q-53 0 -107.5 41.5t-86.5 124t-32 174.5zM87 685q1 -30 24.5 -64t75.5 -51q34 -12 70 -12q19 0 38 3q55 12 100 43.5t74 153.5q-11 66 -75 95q-49 22 -93 22q-13 0 -26 -2q-56 -11 -103.5 -45t-66.5 -74q-18 -36 -18 -63v-6zM515 683 q8 -60 96 -116q72 -46 135 -46q13 0 26 2q71 13 131.5 53t87.5 91q25 47 25 84v5q-2 40 -34.5 82.5t-97.5 63.5q-43 13 -88 13q-24 0 -48 -4q-77 -10 -141 -61t-92 -167z" />
<glyph unicode="&#x222b;" horiz-adv-x="678" d="M-52 -86h71q1 -55 25 -70.5t75 -15.5q67 0 88.5 157t29.5 312l70 733l8 62q26 234 138 432t269 198q98 0 98 -35v-165h-72q-1 55 -25.5 70.5t-74.5 15.5q-56 0 -89.5 -150.5t-37.5 -361.5l-73 -766q-20 -226 -134 -421t-269 -195q-97 0 -97 35v165z" />
<glyph unicode="&#x2248;" horiz-adv-x="1108" d="M110 333v233q64 73 126 100.5t121 27.5q67 0 204 -49.5t189 -49.5q48 0 101.5 26.5t146.5 133.5v-233q-63 -73 -125 -99.5t-123 -26.5q-63 0 -200 48.5t-193 48.5q-47 0 -100.5 -26.5t-146.5 -133.5zM110 681v233q64 73 126 100.5t121 27.5q67 0 204 -49.5t189 -49.5 q48 0 101.5 26.5t146.5 133.5v-233q-63 -73 -125 -99.5t-123 -26.5q-63 0 -200 48.5t-193 48.5q-47 0 -100.5 -26.5t-146.5 -133.5z" />
<glyph unicode="&#x2264;" horiz-adv-x="1108" d="M80 1v160h948v-160h-948zM80 684v65l948 524v-207l-637 -350l637 -347v-206z" />
<glyph unicode="&#x2265;" horiz-adv-x="1108" d="M80 1v160h948v-160h-948zM80 162v206l637 347l-637 350v207l948 -524v-65z" />
<glyph unicode="&#x25cc;" horiz-adv-x="893" d="M0 561q0 -17 10.5 -30t28.5 -14q18 0 30 11q14 14 14 31q0 15 -9 28q-13 16 -33 16q-14 0 -27.5 -11t-13.5 -31zM15 357q0 -26 22 -39q8 -5 18 -5q25 0 37 23q5 9 5 20l-1 10q-8 32 -43 32q-21 0 -32 -18q-6 -10 -6 -23zM56 755q0 -27 24 -37q8 -3 16 -3q27 0 39 23 q4 9 4 19q0 23 -20 37q-10 6 -20 6q-24 0 -38 -25q-5 -10 -5 -20zM101 173q0 -13 10 -27q15 -17 35 -17q14 0 25 10q14 13 14 32q0 14 -9 26q-13 16 -32 16q-13 0 -25 -6q-18 -12 -18 -34zM186 911q0 -14 12 -27t33 -13q12 0 22 8q18 12 18 33q0 11 -6 23q-10 20 -33 20 q-14 0 -27 -9q-19 -16 -19 -35zM261 49q0 -28 28 -40q9 -3 18 -3t18 4q21 10 21 35q0 11 -5 21q-11 23 -36 23q-26 0 -40 -24q-4 -8 -4 -16zM379 976q0 -19 15 -33q11 -11 29 -11q14 0 25 10q17 12 17 34q0 13 -10.5 25t-31.5 13q-21 0 -32.5 -11.5t-11.5 -26.5zM464 39 q0 -22 19 -33q7 -5 16 -6q10 0 19 3q31 9 31 38q0 8 -4 17q-13 25 -40 25q-15 0 -25 -9q-16 -14 -16 -35zM569 904q0 -20 16 -35q12 -8 26 -8h3q16 1 27.5 12t11.5 26q0 22 -17 35q-13 11 -27 11q-22 0 -34 -19q-6 -11 -6 -22zM631 159q0 -19 11.5 -31.5t27.5 -12.5h3 q17 2 31 17q10 14 10 28q0 3 -1 12.5t-14.5 18.5t-26.5 9q-2 0 -11.5 -1.5t-19.5 -13.5t-10 -26zM695 740q0 -8 3 -17q14 -24 39 -24q7 0 15 3q26 10 26 37q0 10 -5 20q-13 25 -38 25q-10 0 -19 -5q-21 -13 -21 -39zM725 340q0 -10 5 -22q11 -22 36 -22q9 0 21 7 q20 10 20 39q0 11 -7 23q-10 17 -33 17q-13 0 -24 -8q-18 -11 -18 -34zM745 543q0 -19 12.5 -30.5t30.5 -12.5q18 0 29 13t11 33q-3 20 -15 30t-26 10h-5q-37 -8 -37 -43z" />
<glyph unicode="&#x25fc;" horiz-adv-x="930" d="M0 0v930h930v-930h-930z" />
<glyph unicode="&#xa9e0;" horiz-adv-x="957" d="M0 276q0 112 115 162q48 21 86 27l1 1h383q45 223 45 234q0 74 -65 111q-5 -66 -67 -119q-46 -40 -96 -47q-27 -6 -61 -6q-147 0 -192 58q-31 39 -31 68q0 27 18 52q65 81 176 133q135 62 279 66q63 0 110 -10q79 -18 127.5 -78.5t48.5 -137.5q0 -22 -84 -492 q-9 -13 -19 -34q-18 -36 -52 -84q-83 -119 -270 -175q-48 -5 -89 -5q-195 0 -289 96q-74 76 -74 180zM219 237q0 -93 117 -93q53 0 92 25.5t66 66.5t42 90h-297q-20 -46 -20 -89zM338 776q0 -9 8 -21q10 -16 40 -16t50 16q32 25 42 75q-76 -12 -108 -27t-32 -27zM822 480 l1 -7l1 13z" />
<glyph unicode="&#xa9e1;" horiz-adv-x="1627" d="M0 404q0 2 1.5 3.5t92.5 1.5q98 0 121 -1q31 -1 31 -3l-1 -22q0 -52 17 -96t52 -71t90 -27q18 0 39 3q78 16 97 91q102 455 104 469q0 22 -14.5 37.5t-37.5 18.5l-32 1q-16 -108 -52.5 -165t-81 -76t-83.5 -19q-34 0 -57 7l-23 7q-1 -2 -3 -2q-3 0 -7 2q-8 5 -11 9 q-48 71 -48 163q0 53 23 112q77 166 416 166q57 0 74 -4q83 -4 136.5 -59.5t53.5 -132.5q0 -18 -3 -36q-77 -409 -77 -413q24 -39 75 -90q79 -77 156 -77q80 0 148 92q1 1 1 3q64 344 126 703q2 10 6 10q95 -5 156.5 -70.5t61.5 -154.5q0 -22 -4 -44q-124 -622 -125 -622 q-17 -27 -68 -63q-76 -54 -171 -54q-52 0 -114.5 21.5t-134.5 74.5t-153 146l-4 2q-3 0 -5 -4q-28 -86 -50.5 -119.5t-27.5 -35.5q-11 -10 -42.5 -30.5t-81.5 -38t-115 -17.5q-133 0 -272 94q-143 113 -179 310zM319 684q11 -6 23 -6q27 0 56 22.5t54 51.5t40 51 q-115 -28 -173 -119z" />
<glyph unicode="&#xa9e2;" horiz-adv-x="1624" d="M-3 403q0 2 1.5 4t181.5 2l33 -1q30 -1 30 -3l-1 -22q0 -52 17 -96t52 -71t90 -27q18 0 39 3q78 16 98 91q101 455 103 469q0 22 -14.5 37.5t-37.5 18.5l-36 2q-84 0 -141.5 -35t-94.5 -90.5t-56 -121.5q-1 -2 -3 -2q-3 0 -7 2q-7 4 -12 9q-47 70 -47 162q0 53 23 113 q75 166 415 166q54 0 75 -4q82 -4 135.5 -59.5t53.5 -132.5q0 -18 -3 -36l-77 -409q0 -3 1 -4q24 -40 75 -90q79 -77 156 -77q80 0 148 92l44 239q-114 195 -114 312q0 99 74 137q49 24 109 24h14q2 4 6 4q95 -5 156 -70.5t61 -154.5q0 -22 -4 -44l-124 -622 q-19 -28 -69 -63q-76 -54 -170 -54q-53 0 -115.5 21.5t-134.5 74.5t-153 146l-4 2q-3 0 -5 -4q-19 -60 -36 -93.5t-28.5 -47.5t-13.5 -14q-11 -10 -42 -30.5t-81 -38t-116 -17.5q-133 0 -272 94q-143 113 -179 309zM1245 776q0 -53 16 -114l32 181l-10 1q-38 0 -38 -68z" />
<glyph unicode="&#xa9e3;" horiz-adv-x="1715" d="M0 279q0 74 47 117q52 46 126 64l26 6h373q51 255 53 273q0 37 -26.5 63.5t-64.5 26.5h-10q-7 -82 -36 -122.5t-64 -52.5t-59 -12l-28 2l-38 7q-41 7 -117 24q-31 8 -49 32t-18 52q0 26 18 50q64 79 172.5 129t235.5 65l34 1q119 0 201 -40q42 -21 65.5 -59t23.5 -83 q0 -14 -3 -29l-29 -157q35 119 128 222q88 88 199.5 122t236.5 34l40 -1q86 -5 142 -64.5t56 -140.5q0 -19 -4 -39l-11 -54l-34 15q-35 15 -93.5 30t-131.5 15q-114 0 -213 -50q-73 -43 -108 -93q-56 -79 -56 -162v-4q134 0 194 2t211 2q16 4 32 4q47 0 86.5 -29t39.5 -74 q0 -7 -48 -273q-14 -59 -72 -74q-110 -24 -215 -24q-77 0 -153 18.5t-133.5 67.5t-81.5 138q-20 40 -31 105h-33l-5 -27q-9 -13 -20 -34q-24 -56 -91.5 -130t-221.5 -123q-47 -5 -87 -5q-105 0 -174 26.5t-108.5 67t-56 87.5t-16.5 88zM214 242q0 -25 11 -47q23 -44 104 -44 q51 0 89.5 25t64.5 65t41 88h-290q-20 -45 -20 -87zM363 738q8 -3 17 -3q22 0 41 15t33 34.5t22 35.5q-87 -28 -113 -82zM804 473l1 12l-1 -5v-7zM989 329q18 -55 60 -102q61 -67 160 -67q39 0 88 13q18 100 19 109q0 20 -14 33.5t-34 13.5l-9 -1q-16 1 -270 1z" />
<glyph unicode="&#xa9e4;" horiz-adv-x="1567" d="M0 351l1 29q3 49 28 142t84 202t162 206q94 84 170 84q50 0 85 -29t56.5 -66.5t31.5 -66.5l10 -29l-142 -84q-106 -63 -166 -166.5t-60 -223.5q0 -55 12 -98q10 -34 36 -49t62 -21q17 -3 33 -3q57 0 104 28.5t80.5 64.5t51.5 65l18 28l5 -1q-4 37 -4 77q0 100 35 211.5 t122 207.5q89 88 201 122t238 34h20q92 -4 152.5 -67.5t60.5 -150.5q0 -21 -4 -41.5t-8 -40.5l-35 15q-34 15 -93 30t-132 15q-113 0 -212 -49q-112 -66 -141 -169q-13 -43 -13 -72q0 -20 4 -31l2 1q56 53 127.5 74t139.5 21q86 0 147 -23q21 -9 50 -31q70 -55 77 -165 l-18 -98q-19 -98 -90.5 -161t-170.5 -70l-51 -2q-70 0 -139 15t-125 53.5t-87 108.5q-78 -62 -154.5 -105t-159.5 -58q-32 -5 -63 -5q-94 0 -171 44.5t-122 122t-45 175.5zM872 280l6 -15q7 -15 22.5 -36t43 -39.5t69.5 -26.5q12 -2 23 -2q49 0 86.5 31t47.5 81l1 10 q0 24 -15.5 52.5t-37.5 28.5l-5 -1q-27 6 -50 6q-97 0 -173 -71z" />
<glyph unicode="&#xa9e6;" horiz-adv-x="874" d="M-7 1226l398 580l149 -57l-413 -569zM301 1226l397 580l150 -57l-414 -569z" />
<glyph unicode="&#xaa61;" horiz-adv-x="1657" d="M-93 11l267 194l-15 -2q-44 0 -72 19t-44 46.5t-23.5 55t-9.5 46.5l-2 19q32 152 139 298t259 234q181 93 316 93q114 0 180 -55q24 -20 31 -31l1 -2q19 -23 29 -76q45 40 95 70q168 94 296 94q64 0 106 -17.5t65.5 -38t30.5 -30.5l2 -1q2 -2 10.5 -27.5t8.5 -90.5 l-1 -45l-48 -376q-15 -107 -90.5 -201.5t-188.5 -143.5q-105 -43 -206 -43q-76 0 -128 17t-73 28.5t-39 26.5q-70 56 -100 168q-7 35 -7 71q0 11 34 190v27q0 147 -11 203q-7 29 -29.5 56.5t-53.5 35.5q-19 3 -37 3q-70 0 -134 -38t-114.5 -95.5t-81.5 -118t-35 -108.5 q-2 -21 -2 -39q0 -59 21 -97t52 -60t62 -31.5t52 -12.5l21 -2q-46 -65 -69.5 -98.5t-91.5 -125.5zM911 440q0 -131 96 -183q46 -26 93 -31l16 -2l19 2q19 2 47 7q93 26 110 122q50 375 51 389q0 30 -16 51q-24 30 -83 30q-66 0 -125.5 -38t-105 -95t-72.5 -117.5t-29 -107.5 z" />
<glyph unicode="&#xaa66;" horiz-adv-x="1752" d="M0 309q0 166 115.5 349.5t291.5 288.5q181 96 318 96q67 0 111.5 -18t68.5 -39t31 -31l2 -2q1 -1 9 -23.5t8 -78.5q0 -28 -3 -64q322 256 522 256q59 0 97.5 -18.5t60.5 -42.5t31 -42l9 -19l-135 -678q-21 -102 -96.5 -165.5t-179.5 -69.5l-50 -2l28 122 q27 122 63.5 290.5t69.5 322.5q-32 96 -115 96q-49 0 -102.5 -26.5t-99.5 -60.5t-76 -60l-29 -26l-103 -493q-16 -71 -71 -115.5t-126 -44.5h-81q-83 -8 -151 -8q-195 0 -291 63.5t-122 181.5q-5 30 -5 61zM226 402q0 -68 30 -104.5t76.5 -50.5t96.5 -14q79 0 159 22l27 8 q87 489 89 507q0 30 -17 50q-25 30 -86 30q-70 0 -134 -39t-115 -98t-81.5 -121t-34.5 -111q-10 -44 -10 -79zM343 463q0 -45 21.5 -73.5t58.5 -28.5q46 0 89.5 44t61.5 109q6 26 6 49q0 45 -21.5 74.5t-58.5 29.5q-46 0 -89.5 -44t-60.5 -109q-7 -27 -7 -51z" />
<glyph unicode="&#xaa67;" horiz-adv-x="1675" d="M0 307q0 163 113.5 343.5t287.5 284.5q178 95 313 95q67 0 110.5 -18t67 -38.5t30.5 -30.5l2 -2q1 -1 8 -21.5t9 -66.5q76 65 154 104t148.5 56t124.5 17q66 0 109.5 -18t67.5 -38.5t31 -30.5l2 -2q1 -1 9 -23t8 -75q-1 -10 -1 -20t-0.5 -20.5t-2.5 -25.5h1l-103 -606 q-16 -70 -70 -114t-125 -44h-80q-82 -9 -150 -9q-206 0 -306 79q-52 -51 -118 -70h-80q-82 -9 -150 -9q-191 0 -285 63.5t-120 178.5q-5 30 -5 61zM222 397q0 -67 29.5 -102.5t75.5 -49.5t96 -14q46 0 88 7.5t69 14.5l26 7q29 157 85 483l2 18q0 41 -30.5 59.5t-70.5 18.5 q-69 0 -132.5 -38.5t-113 -96t-80 -119t-34.5 -109.5q-10 -44 -10 -79zM343 463q0 -45 21.5 -73.5t58.5 -28.5q46 0 89.5 44t61.5 109q6 26 6 49q0 45 -21.5 74.5t-58.5 29.5q-46 0 -89.5 -44t-60.5 -109q-7 -27 -7 -51zM876 398q0 -67 29.5 -103t76 -49.5t95.5 -13.5 q47 0 88.5 7t68.5 14l26 7q29 157 85 483l2 18q0 41 -30.5 59.5t-71.5 18.5q-62 0 -119 -31.5t-104.5 -80.5t-80.5 -104.5t-47 -104.5l-17 -96z" />
<glyph unicode="&#xaa68;" horiz-adv-x="1721" d="M0 297q0 160 112 337.5t283 280.5q175 93 307 93q66 0 108.5 -17.5t66 -37.5t29.5 -30q1 -1 5.5 -10t9 -30t4.5 -58q0 -28 -4 -66q313 248 515 248q59 0 98.5 -17.5t63 -40.5t33.5 -41l10 -18l-119 -619q-27 -119 -126 -190.5t-223 -76.5v1h-6q-24 0 -57 7t-57.5 30 t-24.5 71q0 141 267 446l34 156q-31 93 -112 93q-47 0 -98.5 -25.5t-96.5 -58.5t-74 -58l-28 -26l-83 -400q-24 -103 -103 -167.5t-183 -64.5q-79 -8 -145 -8q-190 0 -283 62t-118 176q-5 29 -5 59zM219 387q0 -66 29 -101.5t74 -48.5t93 -13q77 0 155 21l26 7 q84 474 86 492q0 57 -63 73q-19 3 -37 3q-68 0 -130 -37.5t-111 -94.5t-79 -117t-34 -107q-9 -43 -9 -77zM353 486q0 20 5 43q15 65 56.5 109t87.5 44q38 0 61.5 -31t23.5 -79q0 -21 -5 -43q-15 -65 -56.5 -109t-88.5 -44q-38 0 -61 31.5t-23 78.5zM1158 248q0 -45 53 -45h6 l60 270q-15 -18 -43 -58.5t-52 -86.5t-24 -80z" />
<glyph unicode="&#xaa69;" horiz-adv-x="1648" d="M0 297q0 160 112 337.5t283 280.5q175 93 307 93q66 0 108.5 -17.5t66 -37.5t29.5 -30q1 -1 5.5 -9t8.5 -27.5t5 -52.5q74 64 152 102.5t149 55t119 16.5q65 0 108 -17.5t66 -37.5t30 -30q1 -1 5.5 -10t9 -29.5t4.5 -57.5q-1 -11 -1 -20.5t-0.5 -19t-2.5 -27.5q1 0 1 1 l-101 -596q-16 -69 -69 -112.5t-123 -43.5t-125 -4q-49 -4 -97 -4q-206 0 -305 77h-1q-42 -41 -88.5 -55t-104.5 -14q-79 -8 -145 -8q-190 0 -283 62t-118 176q-5 29 -5 59zM219 387q0 -66 29 -101.5t74 -48.5t93 -13q77 0 155 21l26 7q84 474 86 492q0 40 -30 58t-70 18 q-68 0 -130 -37.5t-111 -94.5t-79 -117t-34 -107q-9 -43 -9 -77zM353 486q0 20 5 43q15 65 56.5 109t87.5 44q38 0 61.5 -31t23.5 -79q0 -21 -5 -43q-15 -65 -56.5 -109t-88.5 -44q-38 0 -61 31.5t-23 78.5zM862 384q0 -40 12 -68q33 -9 54 -9q46 0 46 39q0 60 -89 177 q-4 -9 -6 -18l-16 -95zM900 561q185 -223 185 -331v-6q63 4 109 16l45 12q84 474 86 492q0 40 -30 58t-70 18q-70 0 -133.5 -39.5t-113 -98.5t-78.5 -121z" />
<glyph unicode="&#xaa6a;" horiz-adv-x="1648" d="M0 297q0 160 112 337.5t283 280.5q175 93 307 93q66 0 108.5 -17.5t66 -37.5t29.5 -30q1 -1 5.5 -9t8.5 -27.5t5 -52.5q53 47 113 81q175 93 307 93q65 0 108 -17.5t66 -37.5t30 -30q1 -1 5.5 -10t9 -29.5t4.5 -57.5q-2 -51 -4 -67q1 0 1 1l-101 -596q-16 -69 -69 -112.5 t-124.5 -43.5t-117.5 -4q-55 -4 -103 -4q-206 0 -305 77h-1q-76 -69 -172 -69h-21q-79 -8 -145 -8q-190 0 -283 62t-118 176q-5 29 -5 59zM219 387q0 -66 29 -101.5t74 -48.5t93 -13q77 0 155 21l26 7q84 474 86 492q0 57 -63 73q-19 3 -37 3q-68 0 -130 -37.5t-111 -94.5 t-79 -117t-34 -107q-9 -43 -9 -77zM862 384q0 -40 12 -68q33 -9 54 -9q46 0 46 39q0 60 -89 177q-4 -9 -6 -18l-16 -95zM900 561q185 -223 185 -331v-6q63 4 109 16l45 12q84 474 86 492q0 57 -63 73q-19 3 -37 3q-70 0 -133.5 -39.5t-113 -98.5t-78.5 -121z" />
<glyph unicode="&#xaa6e;" horiz-adv-x="1693" d="M0 328q0 68 17 137q43 163 130.5 270.5t176.5 164.5q167 107 391 107q96 0 151 -20q12 -3 24.5 -5.5t31.5 -14.5q48 -31 48 -120q0 -45 -28 -184q-14 -69 -25.5 -137t-11.5 -128q0 -82 31 -144q41 -70 110 -70q40 0 80.5 18.5t73.5 42.5t54 43l20 19l135 665 q86 0 145 -60.5t59 -141.5q0 -21 -5 -43l-128 -590q-75 -70 -190.5 -105.5t-220.5 -35.5q-63 0 -112 13q-160 56 -218 193q-36 86 -36 167v6t9.5 56t22 127.5t23.5 136.5t14 87q-46 67 -138 67q-78 0 -179 -58q-108 -67 -172 -180.5t-64 -207.5l1 -22q86 20 161 20 q77 0 118 -26q38 -24 38 -70q0 -18 -6 -39l-41 -106q-40 -103 -45 -108q-106 -53 -185 -53q-75 0 -126 36t-82 90q-52 93 -52 203zM226 347q27 -102 169 -102h6q0 12 -10 33t-42 41l-87 25z" />
<glyph unicode="&#xfb01;" horiz-adv-x="1073" />
<glyph unicode="&#xfb02;" horiz-adv-x="1081" />
<glyph horiz-adv-x="331" d="M-257 -741q19 -163 201 -217q29 -8 62 -8q72 0 168.5 34t231.5 90q120 50 279 111q-8 -3 -79 -19t-175 -31.5t-204 -15.5q-68 0 -125.5 11t-92.5 38.5t-38 74.5l271 1679h-211z" />
<glyph horiz-adv-x="631" d="M-264 -776h215l290 1782h-210zM57 -741q19 -163 201 -217q29 -8 62 -8q72 0 168.5 34t231.5 90q120 50 279 111q-8 -3 -79 -19t-175 -31.5t-204 -15.5q-68 0 -125.5 11t-92.5 38.5t-38 74.5l271 1679h-211z" />
<glyph horiz-adv-x="1639" d="M-119 -705q13 -4 122 -26.5t207.5 -32t148.5 -9.5q90 0 171 16q125 23 171 113l130 713q-50 37 -79 100q-82 -62 -161.5 -106t-166.5 -59q-35 -5 -68 -5q-99 0 -179 45.5t-127 124t-47 177.5q1 29 2 33q10 111 79 196.5t178 123.5q75 25 78 50v8q0 67 -28.5 103.5 t-73.5 50.5t-92 14q-44 0 -82 -7t-63 -13l-24 -7l21 18q20 19 58 42t91.5 41.5t118.5 18.5q47 0 100 -13q73 -17 114 -49t57 -73t16 -83q0 -81 -39 -163l-13 -28l-96 -45q-127 -100 -127 -238q0 -104 48 -131q27 -16 66 -21q17 -3 34 -3q60 0 109 28.5t84 65.5t54 65l19 29 l5 -1q-5 37 -5 77q0 68 15.5 142.5t52 147t98.5 137.5q92 89 209.5 123t247.5 34h23q97 -4 160.5 -67.5t63.5 -151.5q0 -21 -4 -42.5t-8 -41.5l-37 15q-36 15 -97.5 30.5t-138.5 15.5q-119 0 -223 -50q-117 -67 -148 -172q-13 -43 -13 -73q0 -20 4 -31l2 1q59 53 134 74.5 t147 21.5q74 0 130 -15l15 -6q16 -5 38 -18.5t45 -37t39 -61t16 -79.5q0 -21 -4 -42l-49 -260l-40 -9q-41 -10 -107 -20t-142 -10q-32 0 -64 3l-129 -706q-70 -162 -308 -227q-34 -7 -73 -7q-115 0 -398 128q-114 52 -268 114zM917 274l8 -19q9 -18 30 -42t58.5 -42.5 t96.5 -18.5q44 0 100 14l19 102l1 10q0 25 -16 53t-38 28l-6 -1q-28 6 -54 6q-101 0 -180 -72zM1018 -741q19 -163 201 -217q29 -8 62 -8q72 0 168.5 34t231.5 90q120 50 279 111q-8 -3 -79 -19t-175 -31.5t-204 -15.5q-68 0 -125.5 11t-92.5 38.5t-38 74.5l108 626h-211z " />
<glyph horiz-adv-x="1647" d="M-119 -705q13 -4 122 -26.5t207.5 -32t148.5 -9.5q90 0 171 16q125 23 171 113l130 713q-50 37 -79 100q-82 -62 -161.5 -106t-166.5 -59q-35 -5 -68 -5q-99 0 -179 45.5t-127 124t-47 177.5q1 29 2 33q10 111 79 196.5t178 123.5q75 25 78 50v8q0 67 -28.5 103.5 t-73.5 50.5t-92 14q-44 0 -82 -7t-63 -13l-24 -7l21 18q20 19 58 42t91.5 41.5t118.5 18.5q47 0 100 -13q73 -17 114 -49t57 -73t16 -83q0 -81 -39 -163l-13 -28l-96 -45q-127 -100 -127 -238q0 -104 48 -131q27 -16 66 -21q17 -3 34 -3q60 0 109 28.5t84 65.5t54 65l19 29 l5 -1q-5 37 -5 77q0 68 15.5 142.5t52 147t98.5 137.5q92 89 209.5 123t247.5 34h23q97 -4 160.5 -67.5t63.5 -151.5q0 -21 -4 -42.5t-8 -41.5l-37 15q-36 15 -97.5 30.5t-138.5 15.5q-119 0 -223 -50q-117 -67 -148 -172q-13 -43 -13 -73q0 -20 4 -31l2 1q59 53 134 74.5 t147 21.5q74 0 130 -15l15 -6q16 -5 38 -18.5t45 -37t39 -61t16 -79.5q0 -21 -4 -42l-49 -260l-40 -9q-41 -10 -107 -20t-142 -10q-32 0 -64 3l-129 -706q-70 -162 -308 -227q-34 -7 -73 -7q-115 0 -398 128q-114 52 -268 114zM917 274l8 -19q9 -18 30 -42t58.5 -42.5 t96.5 -18.5q44 0 100 14l19 102l1 10q0 25 -16 53t-38 28l-6 -1q-28 6 -54 6q-101 0 -180 -72zM999 -776h215l127 729h-210zM1280 -741q19 -163 201 -217q29 -8 62 -8q72 0 168.5 34t231.5 90q120 50 279 111q-8 -3 -79 -19t-175 -31.5t-204 -15.5q-68 0 -125.5 11 t-92.5 38.5t-38 74.5l108 626h-211z" />
<glyph horiz-adv-x="1643" d="M-119 -705q13 -4 122 -26.5t207.5 -32t148.5 -9.5q90 0 171 16q125 23 171 113l130 713q-50 37 -79 100q-82 -62 -161.5 -106t-166.5 -59q-35 -5 -68 -5q-99 0 -179 45.5t-127 124t-47 177.5q1 29 2 33q10 111 79 196.5t178 123.5q75 25 78 50v8q0 67 -28.5 103.5 t-73.5 50.5t-92 14q-44 0 -82 -7t-63 -13l-24 -7l21 18q20 19 58 42t91.5 41.5t118.5 18.5q47 0 100 -13q73 -17 114 -49t57 -73t16 -83q0 -81 -39 -163l-13 -28l-96 -45q-127 -100 -127 -238q0 -104 48 -131q27 -16 66 -21q17 -3 34 -3q60 0 109 28.5t84 65.5t54 65l19 29 l5 -1q-5 37 -5 77q0 68 15.5 142.5t52 147t98.5 137.5q92 89 209.5 123t247.5 34h23q97 -4 160.5 -67.5t63.5 -151.5q0 -21 -4 -42.5t-8 -41.5l-37 15q-36 15 -97.5 30.5t-138.5 15.5q-119 0 -223 -50q-117 -67 -148 -172q-13 -43 -13 -73q0 -20 4 -31l2 1q59 53 134 74.5 t147 21.5q74 0 130 -15l15 -6q16 -5 38 -18.5t45 -37t39 -61t16 -79.5q0 -21 -4 -42l-49 -260l-40 -9q-41 -10 -107 -20t-142 -10q-32 0 -64 3l-129 -706q-70 -162 -308 -227q-34 -7 -73 -7q-115 0 -398 128q-114 52 -268 114zM900 1456q0 115 62 208q80 108 192 149 q22 10 75 22.5t124 12.5q40 0 84 -7t90 -26q72 -30 111 -87t39 -123q0 -27 -7 -55l-80 -289q-28 -74 -51 -103q-17 -20 -21 -23l-1 -1q-10 -7 -38 -23q-77 -42 -174 -42q-117 0 -242 72q-79 52 -121 137t-42 178zM917 274l8 -19q9 -18 30 -42t58.5 -42.5t96.5 -18.5 q44 0 100 14l19 102l1 10q0 25 -16 53t-38 28l-6 -1q-28 6 -54 6q-101 0 -180 -72zM1018 -741q19 -163 201 -217q29 -8 62 -8q72 0 168.5 34t231.5 90q120 50 279 111q-8 -3 -79 -19t-175 -31.5t-204 -15.5q-68 0 -125.5 11t-92.5 38.5t-38 74.5l108 626h-211zM1109 1429 q0 -48 19 -97.5t58.5 -83.5t98.5 -34q15 0 31 2q55 12 75 59q19 69 72 296q3 14 4 28q0 26 -15 44.5t-43 24.5q-33 8 -51 8q-41 0 -100 -25q-92 -40 -134 -140l-3 -11q-6 -17 -9 -31.5t-3 -39.5z" />
<glyph horiz-adv-x="1651" d="M-119 -705q13 -4 122 -26.5t207.5 -32t148.5 -9.5q90 0 171 16q125 23 171 113l130 713q-50 37 -79 100q-82 -62 -161.5 -106t-166.5 -59q-35 -5 -68 -5q-99 0 -179 45.5t-127 124t-47 177.5q1 29 2 33q10 111 79 196.5t178 123.5q75 25 78 50v8q0 67 -28.5 103.5 t-73.5 50.5t-92 14q-44 0 -82 -7t-63 -13l-24 -7l21 18q20 19 58 42t91.5 41.5t118.5 18.5q47 0 100 -13q73 -17 114 -49t57 -73t16 -83q0 -81 -39 -163l-13 -28l-96 -45q-127 -100 -127 -238q0 -104 48 -131q27 -16 66 -21q17 -3 34 -3q60 0 109 28.5t84 65.5t54 65l19 29 l5 -1q-5 37 -5 77q0 68 15.5 142.5t52 147t98.5 137.5q92 89 209.5 123t247.5 34h23q97 -4 160.5 -67.5t63.5 -151.5q0 -21 -4 -42.5t-8 -41.5l-37 15q-36 15 -97.5 30.5t-138.5 15.5q-119 0 -223 -50q-117 -67 -148 -172q-13 -43 -13 -73q0 -20 4 -31l2 1q59 53 134 74.5 t147 21.5q74 0 130 -15l15 -6q16 -5 38 -18.5t45 -37t39 -61t16 -79.5q0 -21 -4 -42l-49 -260l-40 -9q-41 -10 -107 -20t-142 -10q-32 0 -64 3l-129 -706q-70 -162 -308 -227q-34 -7 -73 -7q-115 0 -398 128q-114 52 -268 114zM900 1456q0 115 62 208q80 108 192 149 q22 10 75 22.5t124 12.5q40 0 84 -7t90 -26q72 -30 111 -87t39 -123q0 -27 -7 -55l-80 -289q-28 -74 -51 -103q-17 -20 -21 -23l-1 -1q-10 -7 -38 -23q-77 -42 -174 -42q-117 0 -242 72q-79 52 -121 137t-42 178zM917 274l8 -19q9 -18 30 -42t58.5 -42.5t96.5 -18.5 q44 0 100 14l19 102l1 10q0 25 -16 53t-38 28l-6 -1q-28 6 -54 6q-101 0 -180 -72zM999 -776h215l127 729h-210zM1109 1429q0 -48 19 -97.5t58.5 -83.5t98.5 -34q15 0 31 2q55 12 75 59q19 69 72 296q3 14 4 28q0 26 -15 44.5t-43 24.5q-33 8 -51 8q-41 0 -100 -25 q-92 -40 -134 -140l-3 -11q-6 -17 -9 -31.5t-3 -39.5zM1280 -741q19 -163 201 -217q29 -8 62 -8q72 0 168.5 34t231.5 90q120 50 279 111q-8 -3 -79 -19t-175 -31.5t-204 -15.5q-68 0 -125.5 11t-92.5 38.5t-38 74.5l108 626h-211z" />
<glyph horiz-adv-x="1639" d="M-119 -705q13 -4 122 -26.5t207.5 -32t148.5 -9.5q90 0 171 16q125 23 171 113l130 713q-50 37 -79 100q-82 -62 -161.5 -106t-166.5 -59q-35 -5 -68 -5q-99 0 -179 45.5t-127 124t-47 177.5q1 29 2 33q10 111 79 196.5t178 123.5q75 25 78 50v8q0 67 -28.5 103.5 t-73.5 50.5t-92 14q-44 0 -82 -7t-63 -13l-24 -7l21 18q20 19 58 42t91.5 41.5t118.5 18.5q47 0 100 -13q73 -17 114 -49t57 -73t16 -83q0 -81 -39 -163l-13 -28l-96 -45q-127 -100 -127 -238q0 -104 48 -131q27 -16 66 -21q17 -3 34 -3q60 0 109 28.5t84 65.5t54 65l19 29 l5 -1q-5 37 -5 77q0 68 15.5 142.5t52 147t98.5 137.5q92 89 209.5 123t247.5 34h23q97 -4 160.5 -67.5t63.5 -151.5q0 -21 -4 -42.5t-8 -41.5l-37 15q-36 15 -97.5 30.5t-138.5 15.5q-119 0 -223 -50q-117 -67 -148 -172q-13 -43 -13 -73q0 -20 4 -31l2 1q59 53 134 74.5 t147 21.5q74 0 130 -15l15 -6q16 -5 38 -18.5t45 -37t39 -61t16 -79.5q0 -21 -4 -42l-49 -260l-40 -9q-41 -10 -107 -20t-142 -10q-32 0 -64 3l-129 -706q-70 -162 -308 -227q-34 -7 -73 -7q-115 0 -398 128q-114 52 -268 114zM917 274l8 -19q9 -18 30 -42t58.5 -42.5 t96.5 -18.5q44 0 100 14l19 102l1 10q0 25 -16 53t-38 28l-6 -1q-28 6 -54 6q-101 0 -180 -72zM968 -686q0 16 3 32l96 573l39 12q38 12 98 24t126 12q147 0 218 -81q49 -60 71 -134t22 -151q0 -160 -74 -290q-52 -85 -149 -129.5t-202 -44.5q-75 0 -144 24h-3 q-45 13 -73 56t-28 97zM1164 -604q3 -53 68 -53q44 0 99 23q51 30 82.5 97t31.5 145q0 55 -18 109q-32 82 -110 82q-23 0 -41.5 -5t-30.5 -10l-11 -5z" />
<glyph horiz-adv-x="1097" d="M-679 -634q154 -57 268 -103q127 -53 220 -84t172 -31q36 0 71 7q147 36 215.5 98t89.5 105l128 645l-20 4l-7 -11h-34q-102 0 -175 17l-117 -593q-61 -115 -330 -115q-111 0 -219.5 14.5t-181 29t-80.5 17.5zM6 300q0 163 122.5 344.5t309.5 286.5q192 95 336 95 q72 0 118.5 -18t72 -38.5t32.5 -30.5q1 0 6 -9.5t10 -31.5t5 -61q0 -28 -4 -66l-7 -144l-73 -327h-267l5 24q75 388 79 433q0 41 -33 59.5t-76 18.5q-64 0 -124 -30.5t-110.5 -77.5t-86.5 -100q96 -64 149.5 -129.5t75 -129.5t21.5 -121q0 -75 -21 -131.5t-43 -87.5l-21 -32 h-35q-205 0 -307 63t-129 180q-5 29 -5 61zM232 386q0 -109 87 -146q39 31 39 99q0 104 -73 252q-38 -70 -43 -126q-10 -44 -10 -79zM503 -741q3 -29 19.5 -71t58.5 -82t123 -64q29 -8 63 -8q57 0 145.5 27.5t253.5 96.5q120 50 279 111q-8 -3 -80 -19t-175 -31 q-111 -16 -214 -16q-233 0 -245 124l108 626h-211z" />
<glyph horiz-adv-x="1106" d="M-679 -634q154 -57 268 -103q127 -53 220 -84t172 -31q36 0 71 7q234 57 305 203l127 641l-2 -3h-58q-102 0 -175 17l-117 -593q-62 -115 -330 -115q-111 0 -219.5 14.5t-181 29t-80.5 17.5zM6 300q0 163 122.5 344.5t309.5 286.5q192 95 336 95q72 0 118.5 -18t72 -38.5 t32.5 -30.5q1 0 6 -9.5t10 -31.5t5 -61q0 -28 -4 -66l-7 -144l-73 -327h-267l5 24q74 385 79 433q0 41 -33 59.5t-76 18.5q-64 0 -124 -30.5t-110.5 -77.5t-86.5 -100q246 -164 246 -380q0 -126 -65 -222l-18 -26l1 4l-20 4l-7 -11q-216 0 -318 63t-129 180q-5 29 -5 61z M232 386q0 -109 87 -146q39 32 39 99q0 106 -73 252q-38 -70 -43 -126q-10 -44 -10 -79zM400 -776h215l127 729h-210zM681 -741q19 -163 201 -217q29 -8 62 -8q72 0 168.5 34t231.5 90q120 50 279 111q-8 -3 -79 -19t-175 -31.5t-204 -15.5q-68 0 -125.5 11t-92.5 38.5 t-38 74.5l108 626h-211z" />
<glyph horiz-adv-x="1094" d="M-682 -634q154 -57 268 -103q127 -53 220 -84t172 -31q36 0 71 7q147 36 215.5 98t89.5 105l128 645l-20 4l-7 -11h-34q-102 0 -175 17l-117 -593q-61 -115 -330 -115q-111 0 -219.5 14.5t-181 29t-80.5 17.5zM3 300q0 163 122.5 344.5t309.5 286.5q192 95 336 95 q72 0 118.5 -18t72 -38.5t32.5 -30.5q1 0 6 -9.5t10 -31.5t5 -61q0 -28 -4 -66l-7 -144l-73 -327h-267l5 24q75 388 79 433q0 41 -33 59.5t-76 18.5q-64 0 -124 -30.5t-110.5 -77.5t-86.5 -100q96 -64 149.5 -129.5t75 -129.5t21.5 -121q0 -75 -21 -131.5t-43 -87.5l-21 -32 h-35q-205 0 -307 63t-129 180q-5 29 -5 61zM229 386q0 -109 87 -146q39 31 39 99q0 104 -73 252q-38 -70 -43 -126q-10 -44 -10 -79zM381 1426q0 147 82 266q58 78 167 119t226 41q83 0 159 -22l2 -1q51 -12 82 -51.5t31 -89.5q0 -14 -3 -29l-107 -528l-42 -11 q-43 -11 -109.5 -22t-139.5 -11q-165 0 -244 75q-55 55 -79.5 123.5t-24.5 140.5zM500 -741q19 -163 201 -217q29 -8 62 -8q72 0 168.5 34t231.5 90q120 50 279 111q-8 -3 -79 -19t-175 -31.5t-204 -15.5q-68 0 -125.5 11t-92.5 38.5t-38 74.5l108 626h-211zM563 1417 q0 -62 25 -124q43 -95 147 -95q49 0 95 17l15 6q90 426 91 440q-4 61 -90 61q-58 0 -131 -27q-67 -34 -109.5 -111t-42.5 -167z" />
<glyph horiz-adv-x="1108" d="M-681 -634q154 -57 268 -103q127 -53 220 -84t172 -31q36 0 71 7q147 36 215.5 98t89.5 105l128 645l-20 4l-7 -11h-34q-102 0 -175 17l-117 -593q-61 -115 -330 -115q-111 0 -219.5 14.5t-181 29t-80.5 17.5zM4 300q0 163 122.5 344.5t309.5 286.5q192 95 336 95 q72 0 118.5 -18t72 -38.5t32.5 -30.5q1 0 6 -9.5t10 -31.5t5 -61q0 -28 -4 -66l-7 -144l-73 -327h-267l5 24q75 388 79 433q0 41 -33 59.5t-76 18.5q-64 0 -124 -30.5t-110.5 -77.5t-86.5 -100q96 -64 149.5 -129.5t75 -129.5t21.5 -121q0 -75 -21 -131.5t-43 -87.5l-21 -32 h-35q-205 0 -307 63t-129 180q-5 29 -5 61zM230 386q0 -109 87 -146q39 31 39 99q0 104 -73 252q-38 -70 -43 -126q-10 -44 -10 -79zM382 1426q0 147 82 266q58 78 167 119t226 41q83 0 159 -22l2 -1q51 -12 82 -51.5t31 -89.5q0 -14 -3 -29l-107 -528l-42 -11 q-43 -11 -109.5 -22t-139.5 -11q-165 0 -244 75q-55 55 -79.5 123.5t-24.5 140.5zM398 -776h215l127 729h-210zM564 1417q0 -62 25 -124q43 -95 147 -95q49 0 95 17l15 6q90 426 91 440q-4 61 -90 61q-58 0 -131 -27q-67 -34 -109.5 -111t-42.5 -167zM699 -741 q19 -163 201 -217q29 -8 62 -8q72 0 168.5 34t231.5 90q120 50 279 111q-8 -3 -79 -19t-175 -31.5t-204 -15.5q-68 0 -125.5 11t-92.5 38.5t-38 74.5l108 626h-211z" />
<glyph horiz-adv-x="390" d="M-29 -600q0 -21 8 -42q149 -327 881 -327l58 2q26 -2 75 -2q389 0 619 115q104 500 104 513q0 65 -22 122q-36 92 -134 92q-64 0 -132 -34q73 -71 73 -146q0 -20 -6 -42q-43 -200 -56 -275q-9 -41 -49 -50q-84 -16 -244 -27q-107 -8 -224 -8q-59 0 -181.5 4t-276.5 40 t-223 114q-13 17 -13 38q0 5 231 1882l4 -1q6 59 67 124q122 108 461 171q95 15 202 15q171 0 383 -36q119 -20 212 -39q124 -27 389 -95q-32 26 -172 101q-278 154 -600 231q-268 38 -471 25q-164 -11 -302 -55t-236 -124q-136 -113 -178 -255l9 -2z" />
<glyph horiz-adv-x="1082" d="M4 312q0 -36 7 -63q3 -39 35.5 -107.5t118.5 -125.5q47 -26 92 -26q38 0 97.5 30t80.5 132q9 56 11 68l-2 3q-50 7 -77 18q-82 31 -102 120q-5 21 -5 47q0 37 13 99.5t72 175.5q1 2 16 20q85 105 169 134q53 26 98 26q47 0 86 -24q15 -10 36 -32l-144 -852 q-47 -296 -81 -521l188 -151q38 240 111 672l160 1012q-1 0 -1 1l-32 17q-34 18 -94 36q-79 24 -165 24q-183 0 -368 -117q-138 -104 -212 -238q-108 -199 -108 -378zM232 -747q19 -163 201 -216q29 -8 61 -8q72 0 168.5 33.5t231.5 90.5q119 49 276 109q-27 -7 -83 -19 q-212 -46 -374 -46q-68 0 -124.5 11t-91.5 38t-38 74l107 623h-210z" />
<glyph horiz-adv-x="1080" d="M-41 -776h215l127 729h-210zM4 312q0 -36 7 -63q3 -39 35.5 -107.5t118.5 -125.5q47 -26 92 -26q38 0 97.5 30t80.5 132l11 68l-2 3q-50 7 -77 18q-82 31 -102 120q-5 21 -5 47q0 37 13 99.5t72 175.5l16 20q85 105 169 134q53 26 98 26q69 0 122 -56l-144 -852 q-47 -296 -81 -521l188 -151q38 240 111 672l160 1012q-1 0 -1 1l-32 17q-34 18 -94 36q-79 24 -165 24q-183 0 -368 -117q-138 -104 -212 -238q-108 -199 -108 -378zM260 -741q3 -29 19.5 -71t58.5 -82t123 -64q29 -7 62 -7q57 0 146 27t254 96q120 50 279 111 q-8 -3 -80 -19t-175 -31q-111 -16 -214 -16q-233 0 -245 124l108 626h-211z" />
<glyph horiz-adv-x="353" d="M-947 -527q0 107 73.5 223.5t201.5 183.5q136 63 247 63q55 0 93.5 -12.5t60 -26t26.5 -20.5q1 0 4.5 -6t7 -20.5t3.5 -40.5l-3 -43l-56 -285q-11 -61 -50 -111t-80.5 -73t-71.5 -29q-60 -11 -141 -11q-165 0 -240 56t-75 152zM-778 -475q0 -41 20.5 -65t51.5 -34t63 -10 q65 0 116.5 37t65.5 98q41 201 42 213q0 30 -20 40.5t-57 11.5q-70 0 -131.5 -43t-100 -98.5t-43.5 -98.5q-7 -28 -7 -51zM-700 -732q53 -82 138 -131t191 -51l182 -1q82 0 143.5 52t76.5 133q86 486 302 1729h-217l-286 -1605q-7 -51 -45 -84.5t-89 -33.5q-69 0 -122 25 q-39 -20 -67 -25q-58 -11 -139 -11q-37 0 -68 3z" />
<glyph horiz-adv-x="1082" d="M4 312q0 -36 7 -63q3 -39 35.5 -107.5t118.5 -125.5q47 -26 92 -26q38 0 97.5 30t80.5 132q9 56 11 68l-2 3q-50 7 -77 18q-82 31 -102 120q-5 21 -5 47q0 37 13 99.5t72 175.5q1 2 16 20q85 105 169 134q53 26 98 26q47 0 86 -24q15 -10 36 -32l-144 -852 q-47 -296 -81 -521l188 -151q38 240 111 672l160 1012q-1 0 -1 1l-32 17q-34 18 -94 36q-79 24 -165 24q-183 0 -368 -117q-138 -104 -212 -238q-108 -199 -108 -378zM232 -747q19 -163 201 -216q29 -8 61 -8q72 0 168.5 33.5t231.5 90.5q119 49 276 109q-27 -7 -83 -19 q-212 -46 -374 -46q-68 0 -124.5 11t-91.5 38t-38 74l107 623h-210zM451 1456q0 115 62 208q80 108 192 149q22 10 75 22.5t124 12.5q40 0 84 -7t90 -26q72 -30 111 -87t39 -123q0 -27 -7 -55l-80 -289q-28 -74 -51 -103q-17 -20 -21 -23l-1 -1q-10 -7 -38 -23 q-77 -42 -174 -42q-117 0 -242 72q-79 52 -121 137t-42 178zM660 1429q0 -48 19 -97.5t58.5 -83.5t98.5 -34q15 0 31 2q55 12 75 59q19 69 72 296q3 14 4 28q0 26 -15 44.5t-43 24.5q-33 8 -51 8q-41 0 -100 -25q-92 -40 -134 -140l-3 -11q-6 -17 -9 -31.5t-3 -39.5z" />
<glyph horiz-adv-x="1080" d="M-21 -776h215l127 729h-210zM4 312q0 -36 7 -63q3 -39 35.5 -107.5t118.5 -125.5q47 -26 92 -26q38 0 97.5 30t80.5 132q9 56 11 68l-2 3q-50 7 -77 18q-82 31 -102 120q-5 21 -5 47q0 37 13 99.5t72 175.5q1 2 16 20q85 105 169 134q53 26 98 26q47 0 86 -24 q15 -10 36 -32l-144 -852q-47 -296 -81 -521l188 -151q38 240 111 672l160 1012q-1 0 -1 1l-32 17q-34 18 -94 36q-79 24 -165 24q-183 0 -368 -117q-138 -104 -212 -238q-108 -199 -108 -378zM250 -741q19 -163 201 -217q29 -8 62 -8q72 0 168.5 34t231.5 90 q120 50 279 111q-8 -3 -79 -19t-175 -31.5t-204 -15.5q-68 0 -125.5 11t-92.5 38.5t-38 74.5l108 626h-211zM451 1456q0 89 35 160t92 121t127 76q22 10 75 22.5t124 12.5q40 0 84 -7t90 -26q72 -30 111 -87t39 -123q0 -27 -7 -55l-80 -289q-45 -111 -72 -126l-1 -1 q-10 -7 -38 -23q-77 -42 -174 -42q-117 0 -242 72q-79 52 -121 137t-42 178zM660 1429q0 -48 19 -97.5t58.5 -83.5t98.5 -34q15 0 31 2q63 12 78 71l69 284q3 14 4 28q0 26 -15 44.5t-43 24.5q-33 8 -51 8q-37 0 -94 -22q-96 -38 -140 -143l-3 -11q-6 -17 -9 -31.5t-3 -39.5 z" />
<glyph horiz-adv-x="0" d="M-764 -281q0 -67 14.5 -141.5t52.5 -144t107.5 -125.5t178 -89.5t265.5 -33.5q125 0 282 25q161 29 288.5 85.5t202.5 106.5l75 49l-100 -25q-100 -25 -251 -50.5t-303 -25.5q-180 0 -290 48.5t-169 101.5q-104 93 -104 206q0 54 22 119q1 3 1.5 7t0.5 11q0 32 -30 53 t-68.5 33.5t-68.5 18.5l-30 5h-44l-8 -32q-8 -32 -16 -85t-8 -117zM-557 1174q0 306 184 484q173 167 513 167q125 0 279 -25q118 -21 215.5 -59.5t169 -80.5t110.5 -71l39 -30l-97 25q-97 25 -244.5 50.5t-299.5 25.5q-180 0 -297 -48q-240 -103 -293 -238 q-23 -59 -23 -110q0 -44 8 -79l1 -10q0 -35 -32.5 -57.5t-74 -36t-73.5 -18.5l-33 -6h-44l-4 32q-4 32 -4 85z" />
<glyph horiz-adv-x="1132" d="M-679 -634q154 -57 268 -103q127 -53 220 -84t172 -31q36 0 71 7q147 36 215.5 98t89.5 105l128 645l-20 4l-7 -11h-34q-102 0 -175 17l-117 -593q-61 -115 -330 -115q-111 0 -219.5 14.5t-181 29t-80.5 17.5zM6 300q0 163 122.5 344.5t309.5 286.5q192 95 336 95 q72 0 118.5 -18t72 -38.5t32.5 -30.5q1 0 6 -9.5t10 -31.5t5 -61q0 -28 -4 -66l-7 -144l-73 -327h-267l5 24q75 388 79 433q0 41 -33 59.5t-76 18.5q-64 0 -124 -30.5t-110.5 -77.5t-86.5 -100q96 -64 149.5 -129.5t75 -129.5t21.5 -121q0 -75 -21 -131.5t-43 -87.5l-21 -32 h-35q-205 0 -307 63t-129 180q-5 29 -5 61zM232 386q0 -109 87 -146q39 31 39 99q0 104 -73 252q-38 -70 -43 -126q-10 -44 -10 -79zM397 -580q0 14 3 28l103 505l41 11q40 10 104 20.5t134 10.5q158 0 233 -71q52 -53 75.5 -118t23.5 -133q0 -141 -79 -256 q-55 -75 -158.5 -114t-215.5 -39q-80 0 -153 21h-3q-49 12 -78.5 49.5t-29.5 85.5zM583 -541q2 -52 79 -52q51 0 115 23q59 29 96 93.5t37 140.5q0 52 -22 104q-37 79 -128 79q-43 0 -84 -14l-13 -5q-79 -357 -80 -369z" />
<glyph horiz-adv-x="1185" d="M-679 -634q152 -56 265 -103q156 -64 264 -95q68 -20 130 -20q37 0 72 7q147 36 215.5 97.5t89.5 105.5l128 645l-20 4l-7 -11h-31q-103 0 -178 17l-117 -593q-45 -80 -169 -101q-80 -14 -169 -14q-49 0 -147 8t-206 28.5t-120 24.5zM7 300q0 149 112 332t319 299 q144 70 246 87q53 8 96 8q41 0 90 -11.5t84 -37t43 -38.5q8 -8 14.5 -35.5t6.5 -61.5q0 -30 -4 -71l-7 -144l-73 -327h-267q30 154 82 438l1 18q0 78 -107 78q-87 0 -174 -58t-148 -149q143 -97 196 -197q50 -92 50 -174q0 -6 -1.5 -53t-29 -109.5t-45.5 -86.5l-9 -11h-33 q-251 0 -356 99q-61 57 -82 144q-4 30 -4 61zM232 384q0 -108 87 -144q39 34 39 93q0 5 -1 40t-25.5 103.5t-46.5 114.5q-38 -71 -43 -126q-10 -45 -10 -81zM477 -229v-17q0 -59 12.5 -138.5t52.5 -166.5t117.5 -161.5t203 -121t311.5 -46.5q125 0 279 25q118 21 215.5 59.5 t168.5 80t111 71.5l39 30l-97 -25q-97 -26 -244.5 -51t-299.5 -25q-181 0 -297 48q-242 104 -293 238q-23 59 -23 110q0 39 5 60l4 29q0 32 10 64.5t10 59.5q0 5 -0.5 22.5t-38.5 33.5q-25 10 -75 10q-26 0 -60 -3q-35 -15 -72 -63.5t-39 -122.5zM574 1202q0 -53 4 -85 l4 -32h44l32 6q33 5 74.5 18.5t74 36t32.5 57.5l-1 10q-8 35 -8 79q0 51 23 110q53 135 293 238q116 48 297 48q152 0 299.5 -25.5t244.5 -50.5l97 -25l-39 30q-40 29 -111 71q-283 165 -663 165q-186 0 -311 -46.5t-202.5 -121t-117 -162t-53 -172.5t-13.5 -149z" />
<glyph horiz-adv-x="1185" d="M-679 -634q154 -57 268 -103q127 -53 220 -84t172 -31q36 0 71 7q147 36 215.5 98t89.5 105l128 645l-20 4l-7 -11h-34q-102 0 -175 17l-117 -593q-61 -115 -330 -115q-111 0 -219.5 14.5t-181 29t-80.5 17.5zM6 300q0 163 122.5 344.5t309.5 286.5q192 95 336 95 q72 0 118.5 -18t72 -38.5t32.5 -30.5q1 0 6 -9.5t10 -31.5t5 -61q0 -28 -4 -66l-7 -144l-73 -327h-267l5 24q75 388 79 433q0 29 -18 49q-25 29 -91 29q-64 0 -124 -30.5t-110.5 -77.5t-86.5 -100q96 -64 149.5 -129.5t75 -129.5t21.5 -121q0 -58 -14 -107q-25 -81 -62 -133 l-9 -11h-35q-249 0 -355 99q-60 58 -81 144q-5 29 -5 61zM232 386q0 -109 87 -146q39 31 39 99q0 104 -73 252q-38 -70 -43 -126q-10 -44 -10 -79zM477 -227v-13q0 -302 188 -478q174 -162 509 -162q125 0 279 25q118 21 215.5 59.5t168.5 80.5t111 71l39 30l-97 -25 q-97 -25 -244.5 -50.5t-299.5 -25.5q-181 0 -297 48q-240 103 -293 238q-23 59 -23 110q0 41 5 61l4 28q0 32 10.5 64.5t10.5 59.5q0 29 -23 47.5t-92 18.5q-26 0 -60 -3q-22 -10 -47.5 -35t-44.5 -62.5t-19 -86.5z" />
<glyph horiz-adv-x="2" d="M-663 1456q0 115 54 208q71 108 168 149q19 10 65.5 22.5t108.5 12.5q35 0 73.5 -7t79.5 -26q63 -30 97 -87t34 -123q0 -27 -6 -55l-71 -289q-24 -74 -44 -103q-15 -20 -17 -21.5t-2 -2.5q-9 -7 -33 -23q-68 -42 -153 -42q-102 0 -211 72q-70 52 -106.5 137t-36.5 178z M-480 1429q0 -48 17 -97.5t51 -83.5t86 -34q70 1 92 61q17 69 63 296q3 14 4 28q0 26 -13 44.5t-38 24.5q-18 5 -31 6l-14 2l-25 -4q-26 -4 -60.5 -20.5t-66 -50t-52.5 -90.5l-3 -11q-5 -17 -7.5 -31.5t-2.5 -39.5zM-53 1190q0 38 15.5 68.5t36.5 51.5t40 30q28 13 71 20 q6 1 12 1q39 0 67 -28t28 -66q0 -9 -2 -18l-27 -141l-1 -1h-1q-3 -1 -18 -7q-20 -8 -50.5 -15.5t-62.5 -7.5q-28 0 -53.5 10t-40.5 37q-14 35 -14 66zM21 1200q0 -20 5 -40q5 -15 18 -20.5t26 -5.5q11 0 18 3q9 6 14.5 17.5t7.5 23.5l16 71v8q0 15 -11.5 24.5t-25.5 9.5 q-12 0 -22 -6q-25 -16 -35.5 -38t-10.5 -47z" />
<glyph horiz-adv-x="1245" d="M0 561q0 -17 10.5 -30t28.5 -14q18 0 30 11q14 14 14 31q0 15 -9 28q-13 16 -33 16q-14 0 -27.5 -11t-13.5 -31zM15 357q0 -26 22 -39q8 -5 18 -5q25 0 37 23q5 9 5 20l-1 10q-8 32 -43 32q-21 0 -32 -18q-6 -10 -6 -23zM56 755q0 -27 24 -37q8 -3 16 -3q27 0 39 23 q4 9 4 19q0 23 -20 37q-10 6 -20 6q-24 0 -38 -25q-5 -10 -5 -20zM101 173q0 -13 10 -27q15 -17 35 -17q14 0 25 10q14 13 14 32q0 14 -9 26q-13 16 -32 16q-13 0 -25 -6q-18 -12 -18 -34zM186 911q0 -14 12 -27t33 -13q12 0 22 8q18 12 18 33q0 11 -6 23q-10 20 -33 20 q-14 0 -27 -9q-19 -16 -19 -35zM261 49q0 -28 28 -40q9 -3 18 -3t18 4q21 10 21 35q0 11 -5 21q-11 23 -36 23q-26 0 -40 -24q-4 -8 -4 -16zM379 976q0 -19 15 -33q11 -11 29 -11q14 0 25 10q17 12 17 34q0 13 -10.5 25t-31.5 13q-21 0 -32.5 -11.5t-11.5 -26.5zM464 39 q0 -22 19 -33q7 -5 16 -6q10 0 19 3q31 9 31 38q0 8 -4 17q-13 25 -40 25q-15 0 -25 -9q-16 -14 -16 -35zM569 904q0 -20 16 -35q12 -8 26 -8h3q16 1 27.5 12t11.5 26q0 22 -17 35q-13 11 -27 11q-22 0 -34 -19q-6 -11 -6 -22zM631 159q0 -19 11.5 -31.5t27.5 -12.5h3 q17 2 31 17q10 14 10 28q0 3 -1 12.5t-14.5 18.5t-26.5 9q-2 0 -11.5 -1.5t-19.5 -13.5t-10 -26zM695 740q0 -8 3 -17q14 -24 39 -24q7 0 15 3q26 10 26 37q0 10 -5 20q-13 25 -38 25q-10 0 -19 -5q-21 -13 -21 -39zM725 340q0 -10 5 -22q11 -22 36 -22q9 0 21 7 q20 10 20 39q0 11 -7 23q-10 17 -33 17q-13 0 -24 -8q-18 -11 -18 -34zM745 543q0 -19 12.5 -30.5t30.5 -12.5q18 0 29 13t11 33q-3 20 -15 30t-26 10h-5q-37 -8 -37 -43zM796 801l19 12q19 11 51.5 22.5t74.5 11.5q87 -2 87 -46l-151 -782q52 5 237 11l92 474 q72 372 72 388q0 57 -41.5 99t-101.5 42h-95q-53 0 -97.5 -35.5t-77.5 -80.5t-51 -81z" />
<glyph horiz-adv-x="1237" d="M0 561q0 -17 10.5 -30t28.5 -14q18 0 30 11q14 14 14 31q0 15 -9 28q-13 16 -33 16q-14 0 -27.5 -11t-13.5 -31zM15 357q0 -26 22 -39q8 -5 18 -5q25 0 37 23q5 9 5 20l-1 10q-8 32 -43 32q-21 0 -32 -18q-6 -10 -6 -23zM56 755q0 -27 24 -37q8 -3 16 -3q27 0 39 23 q4 9 4 19q0 23 -20 37q-10 6 -20 6q-24 0 -38 -25q-5 -10 -5 -20zM101 173q0 -13 10 -27q15 -17 35 -17q14 0 25 10q14 13 14 32q0 14 -9 26q-13 16 -32 16q-13 0 -25 -6q-18 -12 -18 -34zM186 911q0 -14 12 -27t33 -13q12 0 22 8q18 12 18 33q0 11 -6 23q-10 20 -33 20 q-14 0 -27 -9q-19 -16 -19 -35zM261 49q0 -28 28 -40q9 -3 18 -3t18 4q21 10 21 35q0 11 -5 21q-11 23 -36 23q-26 0 -40 -24q-4 -8 -4 -16zM379 976q0 -19 15 -33q11 -11 29 -11q14 0 25 10q17 12 17 34q0 13 -10.5 25t-31.5 13q-21 0 -32.5 -11.5t-11.5 -26.5zM464 39 q0 -22 19 -33q7 -5 16 -6q10 0 19 3q31 9 31 38q0 8 -4 17q-13 25 -40 25q-15 0 -25 -9q-16 -14 -16 -35zM569 904q0 -20 16 -35q12 -8 26 -8h3q16 1 27.5 12t11.5 26q0 22 -17 35q-13 11 -27 11q-22 0 -34 -19q-6 -11 -6 -22zM631 159q0 -19 11.5 -31.5t27.5 -12.5h3 q17 2 31 17q10 14 10 28q0 3 -1 12.5t-14.5 18.5t-26.5 9q-2 0 -11.5 -1.5t-19.5 -13.5t-10 -26zM695 740q0 -8 3 -17q14 -24 39 -24q7 0 15 3q26 10 26 37q0 10 -5 20q-13 25 -38 25q-10 0 -19 -5q-21 -13 -21 -39zM725 340q0 -10 5 -22q11 -22 36 -22q9 0 21 7 q20 10 20 39q0 11 -7 23q-10 17 -33 17q-13 0 -24 -8q-18 -11 -18 -34zM745 543q0 -19 12.5 -30.5t30.5 -12.5q18 0 29 13t11 33q-3 20 -15 30t-26 10h-5q-37 -8 -37 -43zM787 -694q3 -43 43.5 -104.5t151.5 -96.5q27 -8 57 -8q61 0 139 28t190.5 76t274.5 110 q-170 -47 -327 -47q-208 0 -296 101q265 1518 265 1530q0 53 -38 92t-93 39l-90 -1q-52 0 -95.5 -35t-75 -79.5t-48.5 -79.5l-18 -35l18 11q19 12 50.5 23t72.5 11q87 -2 87 -45z" />
<glyph horiz-adv-x="975" d="M0 561q0 -17 10.5 -30t28.5 -14q18 0 30 11q14 14 14 31q0 15 -9 28q-13 16 -33 16q-14 0 -27.5 -11t-13.5 -31zM15 357q0 -26 22 -39q8 -5 18 -5q25 0 37 23q5 9 5 20l-1 10q-8 32 -43 32q-21 0 -32 -18q-6 -10 -6 -23zM56 755q0 -27 24 -37q8 -3 16 -3q27 0 39 23 q4 9 4 19q0 23 -20 37q-10 6 -20 6q-24 0 -38 -25q-5 -10 -5 -20zM101 173q0 -13 10 -27q15 -17 35 -17q14 0 25 10q14 13 14 32q0 14 -9 26q-13 16 -32 16q-13 0 -25 -6q-18 -12 -18 -34zM180 1458q0 88 34.5 159.5t92 121.5t127.5 76q23 11 75 23t124 12q40 0 84 -7 t90 -25q72 -31 111 -88t39 -123q0 -27 -7 -55l-80 -289q-26 -67 -46.5 -95.5t-25.5 -30.5q-10 -8 -38 -23.5t-72 -29t-103 -13.5q-56 0 -126 19.5t-133.5 65.5t-103.5 124q-42 85 -42 178zM186 911q0 -14 12 -27t33 -13q12 0 22 8q18 12 18 33q0 11 -6 23q-10 20 -33 20 q-14 0 -27 -9q-19 -16 -19 -35zM261 49q0 -28 28 -40q9 -3 18 -3t18 4q21 10 21 35q0 11 -5 21q-11 23 -36 23q-26 0 -40 -24q-4 -8 -4 -16zM379 976q0 -19 15 -33q11 -11 29 -11q14 0 25 10q17 12 17 34q0 13 -10.5 25t-31.5 13q-21 0 -32.5 -11.5t-11.5 -26.5zM389 1429 q0 -48 19 -97.5t58.5 -83.5t98.5 -34l29 1l2 1q55 12 75 59l73 300q3 12 3 24q0 26 -15 45q-19 23 -79 31l-14 1q-56 -6 -101 -25q-91 -38 -134 -140q-15 -45 -15 -82zM464 39q0 -22 19 -33q7 -5 16 -6q10 0 19 3q31 9 31 38q0 8 -4 17q-13 25 -40 25q-15 0 -25 -9 q-16 -14 -16 -35zM569 904q0 -20 16 -35q12 -8 26 -8h3q16 1 27.5 12t11.5 26q0 22 -17 35q-13 11 -27 11q-22 0 -34 -19q-6 -11 -6 -22zM631 159q0 -19 11.5 -31.5t27.5 -12.5h3q17 2 31 17q10 14 10 28q0 3 -1 12.5t-14.5 18.5t-26.5 9q-2 0 -11.5 -1.5t-19.5 -13.5 t-10 -26zM695 740q0 -8 3 -17q14 -24 39 -24q7 0 15 3q26 10 26 37q0 10 -5 20q-13 25 -38 25q-10 0 -19 -5q-21 -13 -21 -39zM725 340q0 -10 5 -22q11 -22 36 -22q9 0 21 7q20 10 20 39q0 11 -7 23q-10 17 -33 17q-13 0 -24 -8q-18 -11 -18 -34zM745 543q0 -19 12.5 -30.5 t30.5 -12.5q18 0 29 13t11 33q-3 20 -15 30t-26 10h-5q-37 -8 -37 -43z" />
<glyph horiz-adv-x="930" d="M0 561q0 -17 10.5 -30t28.5 -14q18 0 30 11q14 14 14 31q0 15 -9 28q-13 16 -33 16q-14 0 -27.5 -11t-13.5 -31zM15 357q0 -26 22 -39q8 -5 18 -5q25 0 37 23q5 9 5 20l-1 10q-8 32 -43 32q-21 0 -32 -18q-6 -10 -6 -23zM56 755q0 -27 24 -37q8 -3 16 -3q27 0 39 23 q4 9 4 19q0 23 -20 37q-10 6 -20 6q-24 0 -38 -25q-5 -10 -5 -20zM101 173q0 -13 10 -27q15 -17 35 -17q14 0 25 10q14 13 14 32q0 14 -9 26q-13 16 -32 16q-13 0 -25 -6q-18 -12 -18 -34zM186 911q0 -14 12 -27t33 -13q12 0 22 8q18 12 18 33q0 11 -6 23q-10 20 -33 20 q-14 0 -27 -9q-19 -16 -19 -35zM243 1443q0 123 65 221q81 108 191 149q21 10 73 22.5t121 12.5q39 0 82 -7q133 -22 192 -113q34 -54 34 -116q0 -34 -8 -62l-85 -289q-43 -103 -74 -126q-1 0 -1 -1q-93 -65 -207 -65t-233 72q-76 52 -114 137q-36 79 -36 165zM261 49 q0 -28 28 -40q9 -3 18 -3t18 4q21 10 21 35q0 11 -5 21q-11 23 -36 23q-26 0 -40 -24q-4 -8 -4 -16zM379 976q0 -19 15 -33q11 -11 29 -11q14 0 25 10q17 12 17 34q0 13 -10.5 25t-31.5 13q-21 0 -32.5 -11.5t-11.5 -26.5zM429 1411q170 110 346 118l12 46q4 12 4 27 q0 24 -14 42q-18 23 -78 31l-14 1q-55 -6 -102 -25q-93 -39 -137 -140l-4 -11q-6 -17 -9.5 -32.5t-3.5 -47.5v-9zM464 39q0 -22 19 -33q7 -5 16 -6q10 0 19 3q31 9 31 38q0 8 -4 17q-13 25 -40 25q-15 0 -25 -9q-16 -14 -16 -35zM467 1272q49 -58 132 -58l29 1l2 1 q55 9 76 47l27 81q-162 -13 -266 -72zM569 904q0 -20 16 -35q12 -8 26 -8h3q16 1 27.5 12t11.5 26q0 22 -17 35q-13 11 -27 11q-22 0 -34 -19q-6 -11 -6 -22zM631 159q0 -19 11.5 -31.5t27.5 -12.5h3q17 2 31 17q10 14 10 28q0 3 -1 12.5t-14.5 18.5t-26.5 9 q-2 0 -11.5 -1.5t-19.5 -13.5t-10 -26zM695 740q0 -8 3 -17q14 -24 39 -24q7 0 15 3q26 10 26 37q0 10 -5 20q-13 25 -38 25q-10 0 -19 -5q-21 -13 -21 -39zM725 340q0 -10 5 -22q11 -22 36 -22q9 0 21 7q20 10 20 39q0 11 -7 23q-10 17 -33 17q-13 0 -24 -8 q-18 -11 -18 -34zM745 543q0 -19 12.5 -30.5t30.5 -12.5q18 0 29 13t11 33q-3 20 -15 30t-26 10h-5q-37 -8 -37 -43z" />
<glyph horiz-adv-x="921" d="M0 561q0 -17 10.5 -30t28.5 -14q18 0 30 11q14 14 14 31q0 15 -9 28q-13 16 -33 16q-14 0 -27.5 -11t-13.5 -31zM15 357q0 -26 22 -39q8 -5 18 -5q25 0 37 23q5 9 5 20l-1 10q-8 32 -43 32q-21 0 -32 -18q-6 -10 -6 -23zM56 755q0 -27 24 -37q8 -3 16 -3q27 0 39 23 q4 9 4 19q0 23 -20 37q-10 6 -20 6q-24 0 -38 -25q-5 -10 -5 -20zM101 173q0 -13 10 -27q15 -17 35 -17q14 0 25 10q14 13 14 32q0 14 -9 26q-13 16 -32 16q-13 0 -25 -6q-18 -12 -18 -34zM186 911q0 -14 12 -27t33 -13q12 0 22 8q18 12 18 33q0 11 -6 23q-10 20 -33 20 q-14 0 -27 -9q-19 -16 -19 -35zM195 -741q19 -163 201 -217q29 -8 62 -8q72 0 168.5 34t231.5 90q120 50 279 111q-8 -3 -79 -19t-175 -31.5t-204 -15.5q-68 0 -125.5 11t-92.5 38.5t-38 74.5l108 626h-211zM261 49q0 -28 28 -40q9 -3 18 -3t18 4q21 10 21 35q0 11 -5 21 q-11 23 -36 23q-26 0 -40 -24q-4 -8 -4 -16zM379 976q0 -19 15 -33q11 -11 29 -11q14 0 25 10q17 12 17 34q0 13 -10.5 25t-31.5 13q-21 0 -32.5 -11.5t-11.5 -26.5zM464 39q0 -22 19 -33q7 -5 16 -6q10 0 19 3q31 9 31 38q0 8 -4 17q-13 25 -40 25q-15 0 -25 -9 q-16 -14 -16 -35zM569 904q0 -20 16 -35q12 -8 26 -8h3q16 1 27.5 12t11.5 26q0 22 -17 35q-13 11 -27 11q-22 0 -34 -19q-6 -11 -6 -22zM631 159q0 -19 11.5 -31.5t27.5 -12.5h3q17 2 31 17q10 14 10 28q0 3 -1 12.5t-14.5 18.5t-26.5 9q-2 0 -11.5 -1.5t-19.5 -13.5 t-10 -26zM695 740q0 -8 3 -17q14 -24 39 -24q7 0 15 3q26 10 26 37q0 10 -5 20q-13 25 -38 25q-10 0 -19 -5q-21 -13 -21 -39zM725 340q0 -10 5 -22q11 -22 36 -22q9 0 21 7q20 10 20 39q0 11 -7 23q-10 17 -33 17q-13 0 -24 -8q-18 -11 -18 -34zM745 543q0 -19 12.5 -30.5 t30.5 -12.5q18 0 29 13t11 33q-3 20 -15 30t-26 10h-5q-37 -8 -37 -43z" />
<glyph horiz-adv-x="957" d="M-53 -776h215l127 729h-210zM0 561q0 -17 10.5 -30t28.5 -14q18 0 30 11q14 14 14 31q0 15 -9 28q-13 16 -33 16q-14 0 -27.5 -11t-13.5 -31zM15 357q0 -26 22 -39q8 -5 18 -5q25 0 37 23q5 9 5 20l-1 10q-8 32 -43 32q-21 0 -32 -18q-6 -10 -6 -23zM56 755q0 -27 24 -37 q8 -3 16 -3q27 0 39 23q4 9 4 19q0 23 -20 37q-10 6 -20 6q-24 0 -38 -25q-5 -10 -5 -20zM101 173q0 -13 10 -27q15 -17 35 -17q14 0 25 10q14 13 14 32q0 14 -9 26q-13 16 -32 16q-13 0 -25 -6q-18 -12 -18 -34zM186 911q0 -14 12 -27t33 -13q12 0 22 8q18 12 18 33 q0 11 -6 23q-10 20 -33 20q-14 0 -27 -9q-19 -16 -19 -35zM248 -741q19 -163 201 -217q29 -8 62 -8q72 0 168.5 34t231.5 90q120 50 279 111q-8 -3 -79 -19t-175 -31.5t-204 -15.5q-68 0 -125.5 11t-92.5 38.5t-38 74.5l108 626h-211zM261 49q0 -28 28 -40q9 -3 18 -3t18 4 q21 10 21 35q0 11 -5 21q-11 23 -36 23q-26 0 -40 -24q-4 -8 -4 -16zM379 976q0 -19 15 -33q11 -11 29 -11q14 0 25 10q17 12 17 34q0 13 -10.5 25t-31.5 13q-21 0 -32.5 -11.5t-11.5 -26.5zM464 39q0 -22 19 -33q7 -5 16 -6q10 0 19 3q31 9 31 38q0 8 -4 17q-13 25 -40 25 q-15 0 -25 -9q-16 -14 -16 -35zM569 904q0 -20 16 -35q12 -8 26 -8h3q16 1 27.5 12t11.5 26q0 22 -17 35q-13 11 -27 11q-22 0 -34 -19q-6 -11 -6 -22zM631 159q0 -19 11.5 -31.5t27.5 -12.5h3q17 2 31 17q10 14 10 28q0 3 -1 12.5t-14.5 18.5t-26.5 9q-2 0 -11.5 -1.5 t-19.5 -13.5t-10 -26zM695 740q0 -8 3 -17q14 -24 39 -24q7 0 15 3q26 10 26 37q0 10 -5 20q-13 25 -38 25q-10 0 -19 -5q-21 -13 -21 -39zM725 340q0 -10 5 -22q11 -22 36 -22q9 0 21 7q20 10 20 39q0 11 -7 23q-10 17 -33 17q-13 0 -24 -8q-18 -11 -18 -34zM745 543 q0 -19 12.5 -30.5t30.5 -12.5q18 0 29 13t11 33q-3 20 -15 30t-26 10h-5q-37 -8 -37 -43z" />
<glyph horiz-adv-x="1817" d="M0 407v7q18 369 296 549q146 81 273 81q73 0 127.5 -21t91 -48.5t55 -48.5t20 -23.5t3.5 -6.5q-11 -19 -102 -147q-59 -83 -70 -93l-4 -8l-3 1l-5 -1q-5 1 -17 9l4 5q4 6 6.5 10.5t2.5 14.5q0 16 -8 36l-6 22q-15 59 -70 79q-28 9 -56 9q-48 0 -90.5 -23.5t-76.5 -60 t-57 -75.5l180 -174q68 -65 122 -121l159 -170q-14 -49 -79 -111t-221 -97q-12 0 -23.5 -1t-25.5 -1q-202 0 -312 104q-46 44 -71 97t-34 107t-9 100zM236 402q0 -27 4 -52q9 -56 48 -93q42 -40 103 -42q50 0 89 25l-237 237q-7 -39 -7 -75zM878 561q0 -17 10.5 -30 t28.5 -14q18 0 30 11q14 14 14 31q0 15 -9 28q-13 16 -33 16q-14 0 -27.5 -11t-13.5 -31zM893 357q0 -26 22 -39q8 -5 18 -5q25 0 37 23q5 9 5 20l-1 10q-8 32 -43 32q-21 0 -32 -18q-6 -10 -6 -23zM934 755q0 -27 24 -37q8 -3 16 -3q27 0 39 23q4 9 4 19q0 23 -20 37 q-10 6 -20 6q-24 0 -38 -25q-5 -10 -5 -20zM979 173q0 -13 10 -27q15 -17 35 -17q14 0 25 10q14 13 14 32q0 14 -9 26q-13 16 -32 16q-13 0 -25 -6q-18 -12 -18 -34zM1064 911q0 -14 12 -27t33 -13q12 0 22 8q18 12 18 33q0 11 -6 23q-10 20 -33 20q-14 0 -27 -9 q-19 -16 -19 -35zM1139 49q0 -28 28 -40q9 -3 18 -3t18 4q21 10 21 35q0 11 -5 21q-11 23 -36 23q-26 0 -40 -24q-4 -8 -4 -16zM1257 976q0 -19 15 -33q11 -11 29 -11q14 0 25 10q17 12 17 34q0 13 -10.5 25t-31.5 13q-21 0 -32.5 -11.5t-11.5 -26.5zM1342 39q0 -22 19 -33 q7 -5 16 -6q10 0 19 3q31 9 31 38q0 8 -4 17q-13 25 -40 25q-15 0 -25 -9q-16 -14 -16 -35zM1447 904q0 -20 16 -35q12 -8 26 -8h3q16 1 27.5 12t11.5 26q0 22 -17 35q-13 11 -27 11q-22 0 -34 -19q-6 -11 -6 -22zM1509 159q0 -19 11.5 -31.5t27.5 -12.5h3q17 2 31 17 q10 14 10 28q0 3 -1 12.5t-14.5 18.5t-26.5 9q-2 0 -11.5 -1.5t-19.5 -13.5t-10 -26zM1573 740q0 -8 3 -17q14 -24 39 -24q7 0 15 3q26 10 26 37q0 10 -5 20q-13 25 -38 25q-10 0 -19 -5q-21 -13 -21 -39zM1603 340q0 -10 5 -22q11 -22 36 -22q9 0 21 7q20 10 20 39 q0 11 -7 23q-10 17 -33 17q-13 0 -24 -8q-18 -11 -18 -34zM1623 543q0 -19 12.5 -30.5t30.5 -12.5q18 0 29 13t11 33q-3 20 -15 30t-26 10h-5q-37 -8 -37 -43z" />
<glyph horiz-adv-x="957" d="M0 561q0 -17 10.5 -30t28.5 -14q18 0 30 11q14 14 14 31q0 15 -9 28q-13 16 -33 16q-14 0 -27.5 -11t-13.5 -31zM15 357q0 -26 22 -39q8 -5 18 -5q25 0 37 23q5 9 5 20l-1 10q-8 32 -43 32q-21 0 -32 -18q-6 -10 -6 -23zM56 755q0 -27 24 -37q8 -3 16 -3q27 0 39 23 q4 9 4 19q0 23 -20 37q-10 6 -20 6q-24 0 -38 -25q-5 -10 -5 -20zM101 173q0 -13 10 -27q15 -17 35 -17q14 0 25 10q14 13 14 32q0 14 -9 26q-13 16 -32 16q-13 0 -25 -6q-18 -12 -18 -34zM186 911q0 -14 12 -27t33 -13q12 0 22 8q18 12 18 33q0 11 -6 23q-10 20 -33 20 q-14 0 -27 -9q-19 -16 -19 -35zM261 49q0 -28 28 -40q9 -3 18 -3t18 4q21 10 21 35q0 11 -5 21q-11 23 -36 23q-26 0 -40 -24q-4 -8 -4 -16zM320 1432q0 111 55.5 209.5t163.5 163.5l19 9q52 26 95.5 40t120.5 14l28 -1q306 -17 470 -300q-26 26 -92 57t-138 55.5t-115 32.5 q-25 4 -48 4l-60 -2q-77 0 -125 -26.5t-74.5 -61t-39.5 -62.5q68 -67 102 -99.5t51 -47.5t32 -30.5t46 -47.5t93 -98q-9 -37 -58 -82t-161 -70l-1 -1l-35 -1q-148 0 -229 76q-52 51 -74.5 109.5t-22.5 109.5q-3 25 -3 50zM379 976q0 -19 15 -33q11 -11 29 -11q14 0 25 10 q17 12 17 34q0 13 -10.5 25t-31.5 13q-21 0 -32.5 -11.5t-11.5 -26.5zM464 39q0 -22 19 -33q7 -5 16 -6q10 0 19 3q31 9 31 38q0 8 -4 17q-13 25 -40 25q-15 0 -25 -9q-16 -14 -16 -35zM519 1363q0 -48 25.5 -84t77.5 -38q32 0 56 16l-155 154q-4 -25 -4 -48zM569 904 q0 -20 16 -35q12 -8 26 -8h3q16 1 27.5 12t11.5 26q0 22 -17 35q-13 11 -27 11q-22 0 -34 -19q-6 -11 -6 -22zM631 159q0 -19 11.5 -31.5t27.5 -12.5h3q17 2 31 17q10 14 10 28q0 3 -1 12.5t-14.5 18.5t-26.5 9q-2 0 -11.5 -1.5t-19.5 -13.5t-10 -26zM695 740q0 -8 3 -17 q14 -24 39 -24q7 0 15 3q26 10 26 37q0 10 -5 20q-13 25 -38 25q-10 0 -19 -5q-21 -13 -21 -39zM725 340q0 -10 5 -22q11 -22 36 -22q9 0 21 7q20 10 20 39q0 11 -7 23q-10 17 -33 17q-13 0 -24 -8q-18 -11 -18 -34zM745 543q0 -19 12.5 -30.5t30.5 -12.5q18 0 29 13t11 33 q-3 20 -15 30t-26 10h-5q-37 -8 -37 -43z" />
<glyph horiz-adv-x="1840" d="M0 277q0 104 67 186.5t185 125.5q-123 57 -123 172q0 80 64 155q36 44 133 79t218 35q161 0 280 -77q56 -40 58 -111q0 -48 -19.5 -80t-46 -50.5t-49.5 -26t-30 -7.5l-11 2q2 18 2 39q0 33 -6.5 58t-16.5 52h-6q-7 22 -55 46.5t-121 24.5q-43 0 -82.5 -8t-72.5 -34 q-54 -60 -54 -118q0 -66 64 -122q46 6 98 6q77 0 100 -8q31 -12 46 -51v-3q0 -3 -2 -6.5t-6 -4l-12 -1.5q-354 -31 -373 -204v-21q0 -12 4 -23q48 -130 166 -130q41 0 83 17q29 103 47.5 174.5t19.5 75.5t2 7h9q79 0 135.5 -56t56.5 -135q0 -28 -8 -56l-37 -118 q-2 -5 -7 -7.5t-57.5 -20t-134 -35.5t-169.5 -18q-207 0 -298 127l-1 1q-40 72 -40 149zM910 561q0 -17 10.5 -30t28.5 -14q18 0 30 11q14 14 14 31q0 15 -9 28q-13 16 -33 16q-14 0 -27.5 -11t-13.5 -31zM925 357q0 -26 22 -39q8 -5 18 -5q25 0 37 23q5 9 5 20l-1 10 q-8 32 -43 32q-21 0 -32 -18q-6 -10 -6 -23zM966 755q0 -27 24 -37q8 -3 16 -3q27 0 39 23q4 9 4 19q0 23 -20 37q-10 6 -20 6q-24 0 -38 -25q-5 -10 -5 -20zM1011 173q0 -13 10 -27q15 -17 35 -17q14 0 25 10q14 13 14 32q0 14 -9 26q-13 16 -32 16q-13 0 -25 -6 q-18 -12 -18 -34zM1096 911q0 -14 12 -27t33 -13q12 0 22 8q18 12 18 33q0 11 -6 23q-10 20 -33 20q-14 0 -27 -9q-19 -16 -19 -35zM1171 49q0 -28 28 -40q9 -3 18 -3t18 4q21 10 21 35q0 11 -5 21q-11 23 -36 23q-26 0 -40 -24q-4 -8 -4 -16zM1289 976q0 -19 15 -33 q11 -11 29 -11q14 0 25 10q17 12 17 34q0 13 -10.5 25t-31.5 13q-21 0 -32.5 -11.5t-11.5 -26.5zM1374 39q0 -22 19 -33q7 -5 16 -6q10 0 19 3q31 9 31 38q0 8 -4 17q-13 25 -40 25q-15 0 -25 -9q-16 -14 -16 -35zM1479 904q0 -20 16 -35q12 -8 26 -8h3q16 1 27.5 12 t11.5 26q0 22 -17 35q-13 11 -27 11q-22 0 -34 -19q-6 -11 -6 -22zM1541 159q0 -19 11.5 -31.5t27.5 -12.5h3q17 2 31 17q10 14 10 28q0 3 -1 12.5t-14.5 18.5t-26.5 9q-2 0 -11.5 -1.5t-19.5 -13.5t-10 -26zM1605 740q0 -8 3 -17q14 -24 39 -24q7 0 15 3q26 10 26 37 q0 10 -5 20q-13 25 -38 25q-10 0 -19 -5q-21 -13 -21 -39zM1635 340q0 -10 5 -22q11 -22 36 -22q9 0 21 7q20 10 20 39q0 11 -7 23q-10 17 -33 17q-13 0 -24 -8q-18 -11 -18 -34zM1655 543q0 -19 12.5 -30.5t30.5 -12.5q18 0 29 13t11 33q-3 20 -15 30t-26 10h-5 q-37 -8 -37 -43z" />
<glyph horiz-adv-x="934" d="M0 561q0 -17 10.5 -30t28.5 -14q18 0 30 11q14 14 14 31q0 15 -9 28q-13 16 -33 16q-14 0 -27.5 -11t-13.5 -31zM15 357q0 -26 22 -39q8 -5 18 -5q25 0 37 23q5 9 5 20l-1 10q-8 32 -43 32q-21 0 -32 -18q-6 -10 -6 -23zM56 755q0 -27 24 -37q8 -3 16 -3q27 0 39 23 q4 9 4 19q0 23 -20 37q-10 6 -20 6q-24 0 -38 -25q-5 -10 -5 -20zM101 173q0 -13 10 -27q15 -17 35 -17q14 0 25 10q14 13 14 32q0 14 -9 26q-13 16 -32 16q-13 0 -25 -6q-18 -12 -18 -34zM186 911q0 -14 12 -27t33 -13q12 0 22 8q18 12 18 33q0 11 -6 23q-10 20 -33 20 q-14 0 -27 -9q-19 -16 -19 -35zM261 49q0 -28 28 -40q9 -3 18 -3t18 4q21 10 21 35q0 11 -5 21q-11 23 -36 23q-26 0 -40 -24q-4 -8 -4 -16zM273 1289q0 96 87 169q-20 45 -20 100q0 110 78 189q95 93 286 93q70 0 158 -14q191 -32 350 -98.5t218 -100.5l27 -12l-52 10h-5v1 l-6 1q-5 2 -7.5 2t-7 1.5t-9.5 1.5l-2 1h-5v1q-229 47 -408 69q-100 13 -162 13q-83 0 -149 -22q-89 -29 -120 -86q-19 -35 -19 -70l1 -10l40 8q50 11 121 11q62 0 81 -5q26 -8 39 -38l-12 -2q-217 -13 -295 -96q-27 -30 -27 -74l1 -16q18 -47 57.5 -71.5t88.5 -24.5 q37 0 76 14q33 85 58 174l1 5h2q68 0 113 -42.5t45 -97.5q0 -20 -7 -42l-31 -91l-38 -12q-139 -44 -265 -44q-168 0 -248 94q-33 55 -33 111zM379 976q0 -19 15 -33q11 -11 29 -11q14 0 25 10q17 12 17 34q0 13 -10.5 25t-31.5 13q-21 0 -32.5 -11.5t-11.5 -26.5zM464 39 q0 -22 19 -33q7 -5 16 -6q10 0 19 3q31 9 31 38q0 8 -4 17q-13 25 -40 25q-15 0 -25 -9q-16 -14 -16 -35zM569 904q0 -20 16 -35q12 -8 26 -8h3q16 1 27.5 12t11.5 26q0 22 -17 35q-13 11 -27 11q-22 0 -34 -19q-6 -11 -6 -22zM631 159q0 -19 11.5 -31.5t27.5 -12.5h3 q17 2 31 17q10 14 10 28q0 3 -1 12.5t-14.5 18.5t-26.5 9q-2 0 -11.5 -1.5t-19.5 -13.5t-10 -26zM695 740q0 -8 3 -17q14 -24 39 -24q7 0 15 3q26 10 26 37q0 10 -5 20q-13 25 -38 25q-10 0 -19 -5q-21 -13 -21 -39zM725 340q0 -10 5 -22q11 -22 36 -22q9 0 21 7 q20 10 20 39q0 11 -7 23q-10 17 -33 17q-13 0 -24 -8q-18 -11 -18 -34zM745 543q0 -19 12.5 -30.5t30.5 -12.5q18 0 29 13t11 33q-3 20 -15 30t-26 10h-5q-37 -8 -37 -43z" />
<glyph horiz-adv-x="961" d="M0 561q0 -17 10.5 -30t28.5 -14q18 0 30 11q14 14 14 31q0 15 -9 28q-13 16 -33 16q-14 0 -27.5 -11t-13.5 -31zM15 357q0 -26 22 -39q8 -5 18 -5q25 0 37 23q5 9 5 20l-1 10q-8 32 -43 32q-21 0 -32 -18q-6 -10 -6 -23zM56 755q0 -27 24 -37q8 -3 16 -3q27 0 39 23 q4 9 4 19q0 23 -20 37q-10 6 -20 6q-24 0 -38 -25q-5 -10 -5 -20zM101 173q0 -13 10 -27q15 -17 35 -17q14 0 25 10q14 13 14 32q0 14 -9 26q-13 16 -32 16q-13 0 -25 -6q-18 -12 -18 -34zM186 911q0 -14 12 -27t33 -13q12 0 22 8q18 12 18 33q0 11 -6 23q-10 20 -33 20 q-14 0 -27 -9q-19 -16 -19 -35zM261 49q0 -28 28 -40q9 -3 18 -3t18 4q21 10 21 35q0 11 -5 21q-11 23 -36 23q-26 0 -40 -24q-4 -8 -4 -16zM379 976q0 -19 15 -33q11 -11 29 -11q14 0 25 10q17 12 17 34q0 13 -10.5 25t-31.5 13q-21 0 -32.5 -11.5t-11.5 -26.5zM390 1067 q78 30 173.5 111.5t154.5 225.5q-23 -3 -45 -3q-48 0 -92 13h-2q-31 7 -47 32.5t-16 57.5q5 179 65 263q29 37 77 59t99 22q78 0 129 -50q60 -59 60 -151q0 -20 -1.5 -38.5t-3.5 -30.5l-1 -12l-12 -48q-12 -47 -45 -117.5t-94.5 -142.5t-159 -125.5t-239.5 -65.5zM464 39 q0 -22 19 -33q7 -5 16 -6q10 0 19 3q31 9 31 38q0 8 -4 17q-13 25 -40 25q-15 0 -25 -9q-16 -14 -16 -35zM569 904q0 -20 16 -35q12 -8 26 -8h3q16 1 27.5 12t11.5 26q0 22 -17 35q-13 11 -27 11q-22 0 -34 -19q-6 -11 -6 -22zM631 159q0 -19 11.5 -31.5t27.5 -12.5h3 q17 2 31 17q10 14 10 28q0 3 -1 12.5t-14.5 18.5t-26.5 9q-2 0 -11.5 -1.5t-19.5 -13.5t-10 -26zM650 1547q0 -16 5 -25t33 -9q35 1 63 20q52 40 52 106q0 25 -10 48.5t-27 32t-34 8.5q-34 -2 -52 -29q-30 -46 -30 -137v-15zM695 740q0 -8 3 -17q14 -24 39 -24q7 0 15 3 q26 10 26 37q0 10 -5 20q-13 25 -38 25q-10 0 -19 -5q-21 -13 -21 -39zM725 340q0 -10 5 -22q11 -22 36 -22q9 0 21 7q20 10 20 39q0 11 -7 23q-10 17 -33 17q-13 0 -24 -8q-18 -11 -18 -34zM745 543q0 -19 12.5 -30.5t30.5 -12.5q18 0 29 13t11 33q-3 20 -15 30t-26 10h-5 q-37 -8 -37 -43z" />
<glyph horiz-adv-x="925" d="M0 561q0 -17 10.5 -30t28.5 -14q18 0 30 11q14 14 14 31q0 15 -9 28q-13 16 -33 16q-14 0 -27.5 -11t-13.5 -31zM15 357q0 -26 22 -39q8 -5 18 -5q25 0 37 23q5 9 5 20l-1 10q-8 32 -43 32q-21 0 -32 -18q-6 -10 -6 -23zM56 755q0 -27 24 -37q8 -3 16 -3q27 0 39 23 q4 9 4 19q0 23 -20 37q-10 6 -20 6q-24 0 -38 -25q-5 -10 -5 -20zM101 173q0 -13 10 -27q15 -17 35 -17q14 0 25 10q14 13 14 32q0 14 -9 26q-13 16 -32 16q-13 0 -25 -6q-18 -12 -18 -34zM186 911q0 -14 12 -27t33 -13q12 0 22 8q18 12 18 33q0 11 -6 23q-10 20 -33 20 q-14 0 -27 -9q-19 -16 -19 -35zM261 49q0 -28 28 -40q9 -3 18 -3t18 4q21 10 21 35q0 11 -5 21q-11 23 -36 23q-26 0 -40 -24q-4 -8 -4 -16zM379 976q0 -19 15 -33q11 -11 29 -11q14 0 25 10q17 12 17 34q0 13 -10.5 25t-31.5 13q-21 0 -32.5 -11.5t-11.5 -26.5zM452 1362 q0 57 23.5 103t55 77.5t59.5 44.5q42 20 107 30l19 1q58 0 100 -41.5t42 -99.5q0 -13 -3 -26l-41 -213l-30 -12q-29 -11 -75 -22.5t-94 -11.5q-102 0 -142 70q-21 53 -21 100zM464 39q0 -22 19 -33q7 -5 16 -6q10 0 19 3q31 9 31 38q0 8 -4 17q-13 25 -40 25q-15 0 -25 -9 q-16 -14 -16 -35zM563 1377q0 -30 8 -61q7 -22 27 -30.5t39 -8.5q17 0 27 5q25 17 33 61q24 108 25 119q0 23 -17.5 37t-39.5 14q-17 0 -33 -9q-69 -43 -69 -127zM569 904q0 -20 16 -35q12 -8 26 -8h3q16 1 27.5 12t11.5 26q0 22 -17 35q-13 11 -27 11q-22 0 -34 -19 q-6 -11 -6 -22zM631 159q0 -19 11.5 -31.5t27.5 -12.5h3q17 2 31 17q10 14 10 28q0 3 -1 12.5t-14.5 18.5t-26.5 9q-2 0 -11.5 -1.5t-19.5 -13.5t-10 -26zM695 740q0 -8 3 -17q14 -24 39 -24q7 0 15 3q26 10 26 37q0 10 -5 20q-13 25 -38 25q-10 0 -19 -5q-21 -13 -21 -39z M725 340q0 -10 5 -22q11 -22 36 -22q9 0 21 7q20 10 20 39q0 11 -7 23q-10 17 -33 17q-13 0 -24 -8q-18 -11 -18 -34zM745 543q0 -19 12.5 -30.5t30.5 -12.5q18 0 29 13t11 33q-3 20 -15 30t-26 10h-5q-37 -8 -37 -43z" />
<glyph horiz-adv-x="1369" d="M0 561q0 -17 10.5 -30t28.5 -14q18 0 30 11q14 14 14 31q0 15 -9 28q-13 16 -33 16q-14 0 -27.5 -11t-13.5 -31zM15 357q0 -26 22 -39q8 -5 18 -5q25 0 37 23q5 9 5 20l-1 10q-8 32 -43 32q-21 0 -32 -18q-6 -10 -6 -23zM56 755q0 -27 24 -37q8 -3 16 -3q27 0 39 23 q4 9 4 19q0 23 -20 37q-10 6 -20 6q-24 0 -38 -25q-5 -10 -5 -20zM101 173q0 -13 10 -27q15 -17 35 -17q14 0 25 10q14 13 14 32q0 14 -9 26q-13 16 -32 16q-13 0 -25 -6q-18 -12 -18 -34zM186 911q0 -14 12 -27t33 -13q12 0 22 8q18 12 18 33q0 11 -6 23q-10 20 -33 20 q-14 0 -27 -9q-19 -16 -19 -35zM261 49q0 -28 28 -40q9 -3 18 -3t18 4q21 10 21 35q0 11 -5 21q-11 23 -36 23q-26 0 -40 -24q-4 -8 -4 -16zM379 976q0 -19 15 -33q11 -11 29 -11q14 0 25 10q17 12 17 34q0 13 -10.5 25t-31.5 13q-21 0 -32.5 -11.5t-11.5 -26.5zM464 39 q0 -22 19 -33q7 -5 16 -6q10 0 19 3q31 9 31 38q0 8 -4 17q-13 25 -40 25q-15 0 -25 -9q-16 -14 -16 -35zM569 904q0 -20 16 -35q12 -8 26 -8h3q16 1 27.5 12t11.5 26q0 22 -17 35q-13 11 -27 11q-22 0 -34 -19q-6 -11 -6 -22zM631 159q0 -19 11.5 -31.5t27.5 -12.5h3 q17 2 31 17q10 14 10 28q0 3 -1 12.5t-14.5 18.5t-26.5 9q-2 0 -11.5 -1.5t-19.5 -13.5t-10 -26zM683 -313q71 26 156.5 99.5t138.5 202.5q-20 -2 -41 -2q-43 0 -82 11h-2q-28 7 -42.5 29.5t-14.5 51.5q5 161 59 237q26 33 69 53t89 20q70 0 116 -45q54 -54 54 -136 q0 -18 -1.5 -34.5l-2.5 -27.5l-1 -11l-11 -43q-11 -42 -40.5 -105.5t-85 -128.5t-143.5 -112.5t-215 -58.5zM695 740q0 -8 3 -17q14 -24 39 -24q7 0 15 3q26 10 26 37q0 10 -5 20q-13 25 -38 25q-10 0 -19 -5q-21 -13 -21 -39zM725 340q0 -10 5 -22q11 -22 36 -22q9 0 21 7 q20 10 20 39q0 11 -7 23q-10 17 -33 17q-13 0 -24 -8q-18 -11 -18 -34zM745 543q0 -19 12.5 -30.5t30.5 -12.5q18 0 29 13t11 33q-3 20 -15 30t-26 10h-5q-37 -8 -37 -43zM916 132l1 -8v-6q0 -13 4.5 -21.5t29.5 -8.5q31 0 56 17q47 37 47 96q0 22 -8 45q-17 35 -55 35 q-31 -2 -47 -27t-22 -59.5t-6 -62.5z" />
<glyph horiz-adv-x="1356" d="M0 561q0 -17 10.5 -30t28.5 -14q18 0 30 11q14 14 14 31q0 15 -9 28q-13 16 -33 16q-14 0 -27.5 -11t-13.5 -31zM15 357q0 -26 22 -39q8 -5 18 -5q25 0 37 23q5 9 5 20l-1 10q-8 32 -43 32q-21 0 -32 -18q-6 -10 -6 -23zM56 755q0 -27 24 -37q8 -3 16 -3q27 0 39 23 q4 9 4 19q0 23 -20 37q-10 6 -20 6q-24 0 -38 -25q-5 -10 -5 -20zM101 173q0 -13 10 -27q15 -17 35 -17q14 0 25 10q14 13 14 32q0 14 -9 26q-13 16 -32 16q-13 0 -25 -6q-18 -12 -18 -34zM186 911q0 -14 12 -27t33 -13q12 0 22 8q18 12 18 33q0 11 -6 23q-10 20 -33 20 q-14 0 -27 -9q-19 -16 -19 -35zM261 49q0 -28 28 -40q9 -3 18 -3t18 4q21 10 21 35q0 11 -5 21q-11 23 -36 23q-26 0 -40 -24q-4 -8 -4 -16zM379 976q0 -19 15 -33q11 -11 29 -11q14 0 25 10q17 12 17 34q0 13 -10.5 25t-31.5 13q-21 0 -32.5 -11.5t-11.5 -26.5zM464 39 q0 -22 19 -33q7 -5 16 -6q10 0 19 3q31 9 31 38q0 8 -4 17q-13 25 -40 25q-15 0 -25 -9q-16 -14 -16 -35zM569 904q0 -20 16 -35q12 -8 26 -8h3q16 1 27.5 12t11.5 26q0 22 -17 35q-13 11 -27 11q-22 0 -34 -19q-6 -11 -6 -22zM631 159q0 -19 11.5 -31.5t27.5 -12.5h3 q17 2 31 17q10 14 10 28q0 3 -1 12.5t-14.5 18.5t-26.5 9q-2 0 -11.5 -1.5t-19.5 -13.5t-10 -26zM695 740q0 -8 3 -17q14 -24 39 -24q7 0 15 3q26 10 26 37q0 10 -5 20q-13 25 -38 25q-10 0 -19 -5q-21 -13 -21 -39zM725 340q0 -10 5 -22q11 -22 36 -22q9 0 21 7 q20 10 20 39q0 11 -7 23q-10 17 -33 17q-13 0 -24 -8q-18 -11 -18 -34zM734 -290q71 26 156.5 99.5t138.5 202.5q-20 -2 -41 -2q-43 0 -82 11h-2q-28 7 -42.5 29.5t-14.5 51.5q5 161 59 237q26 33 69 53t89 20q70 0 116 -45q54 -54 54 -136q0 -18 -1.5 -34.5l-2.5 -27.5 l-1 -11l-11 -43q-11 -42 -40.5 -105.5t-85 -128.5t-143.5 -112.5t-215 -58.5zM745 543q0 -19 12.5 -30.5t30.5 -12.5q18 0 29 13t11 33q-3 20 -15 30t-26 10h-5q-37 -8 -37 -43zM955 680q5 163 59 239q26 34 69.5 54t90.5 20q71 0 117 -45q55 -55 55 -138q0 -77 -43 -140 q-30 -41 -87 -62.5t-118 -21.5q-44 0 -84 12h-2q-28 7 -42.5 30t-14.5 52zM967 155l1 -8v-6q0 -13 4.5 -21.5t29.5 -8.5q31 0 56 17q47 37 47 96q0 22 -8 45q-17 35 -55 35q-31 -2 -47 -27t-22 -59.5t-6 -62.5zM1076 725q0 -18 4.5 -27.5t30.5 -9.5q21 0 48 10q25 13 41 42 t16 63q0 23 -9 44.5t-24.5 29t-30.5 7.5q-11 0 -20.5 -2.5t-14.5 -4.5l-6 -2q-17 -26 -26 -67.5t-9 -74.5v-8z" />
<glyph horiz-adv-x="1382" d="M0 561q0 -17 10.5 -30t28.5 -14q18 0 30 11q14 14 14 31q0 15 -9 28q-13 16 -33 16q-14 0 -27.5 -11t-13.5 -31zM15 357q0 -26 22 -39q8 -5 18 -5q25 0 37 23q5 9 5 20l-1 10q-8 32 -43 32q-21 0 -32 -18q-6 -10 -6 -23zM56 755q0 -27 24 -37q8 -3 16 -3q27 0 39 23 q4 9 4 19q0 23 -20 37q-10 6 -20 6q-24 0 -38 -25q-5 -10 -5 -20zM101 173q0 -13 10 -27q15 -17 35 -17q14 0 25 10q14 13 14 32q0 14 -9 26q-13 16 -32 16q-13 0 -25 -6q-18 -12 -18 -34zM186 911q0 -14 12 -27t33 -13q12 0 22 8q18 12 18 33q0 11 -6 23q-10 20 -33 20 q-14 0 -27 -9q-19 -16 -19 -35zM261 49q0 -28 28 -40q9 -3 18 -3t18 4q21 10 21 35q0 11 -5 21q-11 23 -36 23q-26 0 -40 -24q-4 -8 -4 -16zM379 976q0 -19 15 -33q11 -11 29 -11q14 0 25 10q17 12 17 34q0 13 -10.5 25t-31.5 13q-21 0 -32.5 -11.5t-11.5 -26.5zM464 39 q0 -22 19 -33q7 -5 16 -6q10 0 19 3q31 9 31 38q0 8 -4 17q-13 25 -40 25q-15 0 -25 -9q-16 -14 -16 -35zM569 904q0 -20 16 -35q12 -8 26 -8h3q16 1 27.5 12t11.5 26q0 22 -17 35q-13 11 -27 11q-22 0 -34 -19q-6 -11 -6 -22zM631 159q0 -19 11.5 -31.5t27.5 -12.5h3 q17 2 31 17q10 14 10 28q0 3 -1 12.5t-14.5 18.5t-26.5 9q-2 0 -11.5 -1.5t-19.5 -13.5t-10 -26zM695 740q0 -8 3 -17q14 -24 39 -24q7 0 15 3q26 10 26 37q0 10 -5 20q-13 25 -38 25q-10 0 -19 -5q-21 -13 -21 -39zM725 340q0 -10 5 -22q11 -22 36 -22q9 0 21 7 q20 10 20 39q0 11 -7 23q-10 17 -33 17q-13 0 -24 -8q-18 -11 -18 -34zM745 543q0 -19 12.5 -30.5t30.5 -12.5q18 0 29 13t11 33q-3 20 -15 30t-26 10h-5q-37 -8 -37 -43zM847 92q5 163 59 239q26 34 69.5 54t90.5 20q71 0 117 -45q55 -55 55 -138q0 -77 -43 -140 q-30 -41 -87 -62.5t-118 -21.5q-44 0 -84 12h-2q-28 7 -42.5 30t-14.5 52zM962 680q5 163 59 239q26 34 69.5 54t90.5 20q71 0 117 -45q55 -55 55 -138q0 -77 -43 -140q-30 -41 -87 -62.5t-118 -21.5q-44 0 -84 12h-2q-28 7 -42.5 30t-14.5 52zM968 137q0 -18 4.5 -27.5 t30.5 -9.5q21 0 48 10q25 13 41 42t16 63q0 23 -9 44.5t-24.5 29t-30.5 7.5q-11 0 -20.5 -2.5t-14.5 -4.5l-6 -2q-17 -26 -26 -67.5t-9 -74.5v-8zM1083 725q0 -18 4.5 -27.5t30.5 -9.5q21 0 48 10q25 13 41 42t16 63q0 23 -9 44.5t-24.5 29t-30.5 7.5q-11 0 -20.5 -2.5 t-14.5 -4.5l-6 -2q-17 -26 -26 -67.5t-9 -74.5v-8z" />
<glyph horiz-adv-x="1342" d="M0 561q0 -17 10.5 -30t28.5 -14q18 0 30 11q14 14 14 31q0 15 -9 28q-13 16 -33 16q-14 0 -27.5 -11t-13.5 -31zM15 357q0 -26 22 -39q8 -5 18 -5q25 0 37 23q5 9 5 20l-1 10q-8 32 -43 32q-21 0 -32 -18q-6 -10 -6 -23zM56 755q0 -27 24 -37q8 -3 16 -3q27 0 39 23 q4 9 4 19q0 23 -20 37q-10 6 -20 6q-24 0 -38 -25q-5 -10 -5 -20zM101 173q0 -13 10 -27q15 -17 35 -17q14 0 25 10q14 13 14 32q0 14 -9 26q-13 16 -32 16q-13 0 -25 -6q-18 -12 -18 -34zM186 911q0 -14 12 -27t33 -13q12 0 22 8q18 12 18 33q0 11 -6 23q-10 20 -33 20 q-14 0 -27 -9q-19 -16 -19 -35zM261 49q0 -28 28 -40q9 -3 18 -3t18 4q21 10 21 35q0 11 -5 21q-11 23 -36 23q-26 0 -40 -24q-4 -8 -4 -16zM379 976q0 -19 15 -33q11 -11 29 -11q14 0 25 10q17 12 17 34q0 13 -10.5 25t-31.5 13q-21 0 -32.5 -11.5t-11.5 -26.5zM464 39 q0 -22 19 -33q7 -5 16 -6q10 0 19 3q31 9 31 38q0 8 -4 17q-13 25 -40 25q-15 0 -25 -9q-16 -14 -16 -35zM569 904q0 -20 16 -35q12 -8 26 -8h3q16 1 27.5 12t11.5 26q0 22 -17 35q-13 11 -27 11q-22 0 -34 -19q-6 -11 -6 -22zM631 159q0 -19 11.5 -31.5t27.5 -12.5h3 q17 2 31 17q10 14 10 28q0 3 -1 12.5t-14.5 18.5t-26.5 9q-2 0 -11.5 -1.5t-19.5 -13.5t-10 -26zM695 740q0 -8 3 -17q14 -24 39 -24q7 0 15 3q26 10 26 37q0 10 -5 20q-13 25 -38 25q-10 0 -19 -5q-21 -13 -21 -39zM725 340q0 -10 5 -22q11 -22 36 -22q9 0 21 7 q20 10 20 39q0 11 -7 23q-10 17 -33 17q-13 0 -24 -8q-18 -11 -18 -34zM745 543q0 -19 12.5 -30.5t30.5 -12.5q18 0 29 13t11 33q-3 20 -15 30t-26 10h-5q-37 -8 -37 -43zM843 92q5 163 59 239q26 34 69.5 54t90.5 20q71 0 117 -45q55 -55 55 -138q0 -77 -43 -140 q-30 -41 -87 -62.5t-118 -21.5q-44 0 -84 12h-2q-28 7 -42.5 30t-14.5 52zM964 137q0 -18 4.5 -27.5t30.5 -9.5q21 0 48 10q25 13 41 42t16 63q0 23 -9 44.5t-24.5 29t-30.5 7.5q-11 0 -20.5 -2.5t-14.5 -4.5l-6 -2q-17 -26 -26 -67.5t-9 -74.5v-8z" />
<glyph horiz-adv-x="1674" d="M0 561q0 -17 10.5 -30t28.5 -14q18 0 30 11q14 14 14 31q0 15 -9 28q-13 16 -33 16q-14 0 -27.5 -11t-13.5 -31zM15 357q0 -26 22 -39q8 -5 18 -5q25 0 37 23q5 9 5 20l-1 10q-8 32 -43 32q-21 0 -32 -18q-6 -10 -6 -23zM56 755q0 -27 24 -37q8 -3 16 -3q27 0 39 23 q4 9 4 19q0 23 -20 37q-10 6 -20 6q-24 0 -38 -25q-5 -10 -5 -20zM101 173q0 -13 10 -27q15 -17 35 -17q14 0 25 10q14 13 14 32q0 14 -9 26q-13 16 -32 16q-13 0 -25 -6q-18 -12 -18 -34zM186 911q0 -14 12 -27t33 -13q12 0 22 8q18 12 18 33q0 11 -6 23q-10 20 -33 20 q-14 0 -27 -9q-19 -16 -19 -35zM261 49q0 -28 28 -40q9 -3 18 -3t18 4q21 10 21 35q0 11 -5 21q-11 23 -36 23q-26 0 -40 -24q-4 -8 -4 -16zM379 976q0 -19 15 -33q11 -11 29 -11q14 0 25 10q17 12 17 34q0 13 -10.5 25t-31.5 13q-21 0 -32.5 -11.5t-11.5 -26.5zM464 39 q0 -22 19 -33q7 -5 16 -6q10 0 19 3q31 9 31 38q0 8 -4 17q-13 25 -40 25q-15 0 -25 -9q-16 -14 -16 -35zM569 904q0 -20 16 -35q12 -8 26 -8h3q16 1 27.5 12t11.5 26q0 22 -17 35q-13 11 -27 11q-22 0 -34 -19q-6 -11 -6 -22zM631 159q0 -19 11.5 -31.5t27.5 -12.5h3 q17 2 31 17q10 14 10 28q0 3 -1 12.5t-14.5 18.5t-26.5 9q-2 0 -11.5 -1.5t-19.5 -13.5t-10 -26zM695 740q0 -8 3 -17q14 -24 39 -24q7 0 15 3q26 10 26 37q0 10 -5 20q-13 25 -38 25q-10 0 -19 -5q-21 -13 -21 -39zM725 340q0 -10 5 -22q11 -22 36 -22q9 0 21 7 q20 10 20 39q0 11 -7 23q-10 17 -33 17q-13 0 -24 -8q-18 -11 -18 -34zM745 543q0 -19 12.5 -30.5t30.5 -12.5q18 0 29 13t11 33q-3 20 -15 30t-26 10h-5q-37 -8 -37 -43zM799 93q2 70 15.5 133.5t43.5 105.5q26 34 69.5 54t90.5 20q32 0 62.5 -11t54.5 -34q29 -29 42 -64.5 t13 -73.5q0 -78 -43 -140q-31 -41 -88 -62.5t-117 -21.5q-44 0 -84 12h-2q-28 7 -42.5 30t-14.5 52zM920 138q0 -18 5 -27.5t30 -9.5q32 1 57 18q48 37 48 97q0 23 -9 45q-10 22 -25 29t-30 7q-32 -2 -48 -27t-22 -60.5t-6 -63.5v-8zM927 681q2 70 15.5 133.5t43.5 105.5 q26 34 69.5 54t90.5 20q32 0 62.5 -11t54.5 -34q29 -29 42 -64.5t13 -73.5q0 -78 -43 -140q-31 -41 -88 -62.5t-117 -21.5q-44 0 -84 12h-2q-28 7 -42.5 30t-14.5 52zM1043 11q4 -1 67 16.5t148.5 68.5t155 150t84.5 259q-27 -71 -101.5 -157.5t-204.5 -140.5 q-13 -109 -82 -164q-29 -21 -67 -32zM1048 726q0 -18 5 -27.5t30 -9.5q32 1 57 18q48 37 48 97q0 23 -9 45q-10 22 -25 29t-30 7q-32 -2 -48 -27t-22 -60.5t-6 -63.5v-8zM1171 599q4 -1 67 16.5t148.5 68.5t155 150t84.5 259q-27 -71 -101.5 -157.5t-204.5 -140.5 q-13 -109 -82 -164q-29 -21 -67 -32z" />
<glyph horiz-adv-x="912" d="M0 561q0 -17 10.5 -30t28.5 -14q18 0 30 11q14 14 14 31q0 15 -9 28q-13 16 -33 16q-14 0 -27.5 -11t-13.5 -31zM15 357q0 -26 22 -39q8 -5 18 -5q25 0 37 23q5 9 5 20l-1 10q-8 32 -43 32q-21 0 -32 -18q-6 -10 -6 -23zM56 755q0 -27 24 -37q8 -3 16 -3q27 0 39 23 q4 9 4 19q0 23 -20 37q-10 6 -20 6q-24 0 -38 -25q-5 -10 -5 -20zM101 173q0 -13 10 -27q15 -17 35 -17q14 0 25 10q14 13 14 32q0 14 -9 26q-13 16 -32 16q-13 0 -25 -6q-18 -12 -18 -34zM186 911q0 -14 12 -27t33 -13q12 0 22 8q18 12 18 33q0 11 -6 23q-10 20 -33 20 q-14 0 -27 -9q-19 -16 -19 -35zM261 49q0 -28 28 -40q9 -3 18 -3t18 4q21 10 21 35q0 11 -5 21q-11 23 -36 23q-26 0 -40 -24q-4 -8 -4 -16zM375 1177q0 314 184 496q175 171 516 171q125 0 280 -25q118 -21 216 -61t170 -82.5t111 -73.5l39 -30l-97 26q-97 26 -245.5 51.5 t-300.5 25.5q-182 0 -298 -49q-241 -105 -295 -244q-23 -61 -23 -113q0 -45 8 -81l1 -10q0 -36 -32.5 -59t-74 -37t-74.5 -19l-33 -6h-44l-4 33q-4 33 -4 87zM379 976q0 -19 15 -33q11 -11 29 -11q14 0 25 10q17 12 17 34q0 13 -10.5 25t-31.5 13q-21 0 -32.5 -11.5 t-11.5 -26.5zM464 39q0 -22 19 -33q7 -5 16 -6q10 0 19 3q31 9 31 38q0 8 -4 17q-13 25 -40 25q-15 0 -25 -9q-16 -14 -16 -35zM569 904q0 -20 16 -35q12 -8 26 -8h3q16 1 27.5 12t11.5 26q0 22 -17 35q-13 11 -27 11q-22 0 -34 -19q-6 -11 -6 -22zM631 159 q0 -19 11.5 -31.5t27.5 -12.5h3q17 2 31 17q10 14 10 28q0 3 -1 12.5t-14.5 18.5t-26.5 9q-2 0 -11.5 -1.5t-19.5 -13.5t-10 -26zM695 740q0 -8 3 -17q14 -24 39 -24q7 0 15 3q26 10 26 37q0 10 -5 20q-13 25 -38 25q-10 0 -19 -5q-21 -13 -21 -39zM725 340q0 -10 5 -22 q11 -22 36 -22q9 0 21 7q20 10 20 39q0 11 -7 23q-10 17 -33 17q-13 0 -24 -8q-18 -11 -18 -34zM745 543q0 -19 12.5 -30.5t30.5 -12.5q18 0 29 13t11 33q-3 20 -15 30t-26 10h-5q-37 -8 -37 -43z" />
<glyph horiz-adv-x="1208" d="M0 561q0 -17 10.5 -30t28.5 -14q18 0 30 11q14 14 14 31q0 15 -9 28q-13 16 -33 16q-14 0 -27.5 -11t-13.5 -31zM15 357q0 -26 22 -39q8 -5 18 -5q25 0 37 23q5 9 5 20l-1 10q-8 32 -43 32q-21 0 -32 -18q-6 -10 -6 -23zM56 755q0 -27 24 -37q8 -3 16 -3q27 0 39 23 q4 9 4 19q0 23 -20 37q-10 6 -20 6q-24 0 -38 -25q-5 -10 -5 -20zM78 -537q0 -160 114.5 -276t287.5 -121l184 -2q84 0 147.5 52.5t79.5 135.5l61 342q164 922 248 1399h-222l-293 -1617q-8 -52 -46.5 -85.5t-90.5 -33.5q-124 0 -206 82q-77 78 -77 186q0 22 4 44l1 7 q16 89 46.5 146.5t63 88.5t56.5 43l23 12q-41 6 -60 6q-110 0 -197.5 -72.5t-109.5 -183.5l-10 -100q-4 -27 -4 -53zM101 173q0 -13 10 -27q15 -17 35 -17q14 0 25 10q14 13 14 32q0 14 -9 26q-13 16 -32 16q-13 0 -25 -6q-18 -12 -18 -34zM186 911q0 -14 12 -27t33 -13 q12 0 22 8q18 12 18 33q0 11 -6 23q-10 20 -33 20q-14 0 -27 -9q-19 -16 -19 -35zM261 49q0 -28 28 -40q9 -3 18 -3t18 4q21 10 21 35q0 11 -5 21q-11 23 -36 23q-26 0 -40 -24q-4 -8 -4 -16zM379 976q0 -19 15 -33q11 -11 29 -11q14 0 25 10q17 12 17 34q0 13 -10.5 25 t-31.5 13q-21 0 -32.5 -11.5t-11.5 -26.5zM464 39q0 -22 19 -33q7 -5 16 -6q10 0 19 3q31 9 31 38q0 8 -4 17q-13 25 -40 25q-15 0 -25 -9q-16 -14 -16 -35zM569 904q0 -20 16 -35q12 -8 26 -8h3q16 1 27.5 12t11.5 26q0 22 -17 35q-13 11 -27 11q-22 0 -34 -19 q-6 -11 -6 -22zM631 159q0 -19 11.5 -31.5t27.5 -12.5h3q17 2 31 17q10 14 10 28q0 3 -1 12.5t-14.5 18.5t-26.5 9q-2 0 -11.5 -1.5t-19.5 -13.5t-10 -26zM695 740q0 -8 3 -17q14 -24 39 -24q7 0 15 3q26 10 26 37q0 10 -5 20q-13 25 -38 25q-10 0 -19 -5q-21 -13 -21 -39z M725 340q0 -10 5 -22q11 -22 36 -22q9 0 21 7q20 10 20 39q0 11 -7 23q-10 17 -33 17q-13 0 -24 -8q-18 -11 -18 -34zM745 543q0 -19 12.5 -30.5t30.5 -12.5q18 0 29 13t11 33q-3 20 -15 30t-26 10h-5q-37 -8 -37 -43z" />
<glyph horiz-adv-x="1217" d="M-263 -633q5 -43 60.5 -104t149.5 -116.5t214 -80.5l11 -8h4q12 -1 68 -1q232 0 431 39q127 26 229 77l110 502v14q0 135 -79 191q-37 24 -88 24q-61 0 -140 -34l8 -7q6 -6 22.5 -25.5t32 -50t15.5 -67.5q0 -19 -6 -39q-61 -275 -67 -317q-178 -64 -353 -64 q-68 0 -133.5 14.5t-121 49.5t-93.5 97q237 1820 258 1986q1 5 8 10q13 11 23 14.5t14 11.5q65 120 347 183q75 15 162 15q78 0 161 -9.5t166 -26.5q100 -6 177 -39q108 -28 188 -53l137 -42q-27 26 -144 101q-180 111 -395 168q-163 40 -296 55q-21 3 -42 4q-68 6 -128 6 q-321 0 -483 -156l-7 -7q-7 -6 -13 -13q-99 -105 -131 -243q-16 -63 -16 -117zM251 561q0 -17 10.5 -30t28.5 -14q18 0 30 11q14 14 14 31q0 15 -9 28q-13 16 -33 16q-14 0 -27.5 -11t-13.5 -31zM266 357q0 -26 22 -39q8 -5 18 -5q25 0 37 23q5 9 5 20l-1 10q-8 32 -43 32 q-21 0 -32 -18q-6 -10 -6 -23zM307 755q0 -27 24 -37q8 -3 16 -3q27 0 39 23q4 9 4 19q0 23 -20 37q-10 6 -20 6q-24 0 -38 -25q-5 -10 -5 -20zM352 173q0 -13 10 -27q15 -17 35 -17q14 0 25 10q14 13 14 32q0 14 -9 26q-13 16 -32 16q-13 0 -25 -6q-18 -12 -18 -34z M437 911q0 -14 12 -27t33 -13q12 0 22 8q18 12 18 33q0 11 -6 23q-10 20 -33 20q-14 0 -27 -9q-19 -16 -19 -35zM512 49q0 -28 28 -40q9 -3 18 -3t18 4q21 10 21 35q0 11 -5 21q-11 23 -36 23q-26 0 -40 -24q-4 -8 -4 -16zM630 976q0 -19 15 -33q11 -11 29 -11q14 0 25 10 q17 12 17 34q0 13 -10.5 25t-31.5 13q-21 0 -32.5 -11.5t-11.5 -26.5zM715 39q0 -22 19 -33q7 -5 16 -6q10 0 19 3q31 9 31 38q0 8 -4 17q-13 25 -40 25q-15 0 -25 -9q-16 -14 -16 -35zM820 904q0 -20 16 -35q12 -8 26 -8h3q16 1 27.5 12t11.5 26q0 22 -17 35q-13 11 -27 11 q-22 0 -34 -19q-6 -11 -6 -22zM882 159q0 -19 11.5 -31.5t27.5 -12.5h3q17 2 31 17q10 14 10 28q0 3 -1 12.5t-14.5 18.5t-26.5 9q-2 0 -11.5 -1.5t-19.5 -13.5t-10 -26zM946 740q0 -8 3 -17q14 -24 39 -24q7 0 15 3q26 10 26 37q0 10 -5 20q-13 25 -38 25q-10 0 -19 -5 q-21 -13 -21 -39zM976 340q0 -10 5 -22q11 -22 36 -22q9 0 21 7q20 10 20 39q0 11 -7 23q-10 17 -33 17q-13 0 -24 -8q-18 -11 -18 -34zM996 543q0 -19 12.5 -30.5t30.5 -12.5q18 0 29 13t11 33q-3 20 -15 30t-26 10h-5q-37 -8 -37 -43zM1170 1649q89 -17 170 -38 q-75 32 -170 38z" />
<glyph horiz-adv-x="930" d="M-153 -608q0 133 101 277.5t259 227.5q167 78 295 78q63 0 104.5 -14.5t65 -31.5t30.5 -25l2 -2q2 -1 10.5 -22.5t8.5 -74.5l-1 -38l-47 -314q-16 -89 -91 -167.5t-187 -119.5q-104 -36 -205 -36q-120 0 -199 38q-101 45 -139 162q-7 30 -7 62zM0 561q0 -17 10.5 -30 t28.5 -14q18 0 30 11q14 14 14 31q0 15 -9 28q-13 16 -33 16q-14 0 -27.5 -11t-13.5 -31zM15 357q0 -26 22 -39q8 -5 18 -5q25 0 37 23q5 9 5 20l-1 10q-8 32 -43 32q-21 0 -32 -18q-6 -10 -6 -23zM56 755q0 -27 24 -37q8 -3 16 -3q27 0 39 23q4 9 4 19q0 23 -20 37 q-10 6 -20 6q-24 0 -38 -25q-5 -10 -5 -20zM61 -503q0 -63 28 -99q44 -55 119 -73q36 -8 57 -8q22 0 65 8q92 21 109 101l6 38q42 253 45 288q0 49 -62 64q-18 3 -36 3q-66 0 -125 -32t-104.5 -79.5t-72 -98t-28.5 -90.5zM101 173q0 -13 10 -27q15 -17 35 -17q14 0 25 10 q14 13 14 32q0 14 -9 26q-13 16 -32 16q-13 0 -25 -6q-18 -12 -18 -34zM186 911q0 -14 12 -27t33 -13q12 0 22 8q18 12 18 33q0 11 -6 23q-10 20 -33 20q-14 0 -27 -9q-19 -16 -19 -35zM261 49q0 -28 28 -40q9 -3 18 -3t18 4q21 10 21 35q0 11 -5 21q-11 23 -36 23 q-26 0 -40 -24q-4 -8 -4 -16zM379 976q0 -19 15 -33q11 -11 29 -11q14 0 25 10q17 12 17 34q0 13 -10.5 25t-31.5 13q-21 0 -32.5 -11.5t-11.5 -26.5zM464 39q0 -22 19 -33q7 -5 16 -6q10 0 19 3q31 9 31 38q0 8 -4 17q-13 25 -40 25q-15 0 -25 -9q-16 -14 -16 -35zM569 904 q0 -20 16 -35q12 -8 26 -8h3q16 1 27.5 12t11.5 26q0 22 -17 35q-13 11 -27 11q-22 0 -34 -19q-6 -11 -6 -22zM631 159q0 -19 11.5 -31.5t27.5 -12.5h3q17 2 31 17q10 14 10 28q0 3 -1 12.5t-14.5 18.5t-26.5 9q-2 0 -11.5 -1.5t-19.5 -13.5t-10 -26zM695 740q0 -8 3 -17 q14 -24 39 -24q7 0 15 3q26 10 26 37q0 10 -5 20q-13 25 -38 25q-10 0 -19 -5q-21 -13 -21 -39zM725 340q0 -10 5 -22q11 -22 36 -22q9 0 21 7q20 10 20 39q0 11 -7 23q-10 17 -33 17q-13 0 -24 -8q-18 -11 -18 -34zM745 543q0 -19 12.5 -30.5t30.5 -12.5q18 0 29 13t11 33 q-3 20 -15 30t-26 10h-5q-37 -8 -37 -43z" />
<glyph horiz-adv-x="893" d="M0 561q0 -17 10.5 -30t28.5 -14q18 0 30 11q14 14 14 31q0 15 -9 28q-13 16 -33 16q-14 0 -27.5 -11t-13.5 -31zM15 357q0 -26 22 -39q8 -5 18 -5q25 0 37 23q5 9 5 20l-1 10q-8 32 -43 32q-21 0 -32 -18q-6 -10 -6 -23zM56 755q0 -27 24 -37q8 -3 16 -3q27 0 39 23 q4 9 4 19q0 23 -20 37q-10 6 -20 6q-24 0 -38 -25q-5 -10 -5 -20zM64 -229q-2 -66 11.5 -150.5t53.5 -171.5t117.5 -161.5t203 -121t311.5 -46.5q125 0 279 25q118 21 215.5 59.5t168.5 80t111 71.5v1h1l1 1q1 0 1 1h1v1h1l2 2h1q0 1 1 1q0 1 1 1t2 1q3 3 6 5q1 0 1 1 q14 11 18 14q1 0 1 1h1h-1q-7 -2 -96 -25q-97 -26 -244.5 -51t-299.5 -25q-82 0 -158 11t-139 37q-132 57 -201 117.5t-92 120t-23 110.5q0 39 5 60q2 13 4 29q0 32 11 66q11 37 9.5 67.5t-39.5 46t-135 7.5q-35 -15 -72 -63.5t-39 -122.5zM101 173q0 -13 10 -27 q15 -17 35 -17q14 0 25 10q14 13 14 32q0 14 -9 26q-13 16 -32 16q-13 0 -25 -6q-18 -12 -18 -34zM186 911q0 -14 12 -27t33 -13q12 0 22 8q18 12 18 33q0 11 -6 23q-10 20 -33 20q-14 0 -27 -9q-19 -16 -19 -35zM261 49q0 -28 28 -40q9 -3 18 -3t18 4q21 10 21 35 q0 11 -5 21q-11 23 -36 23q-26 0 -40 -24q-4 -8 -4 -16zM379 976q0 -19 15 -33q11 -11 29 -11q14 0 25 10q17 12 17 34q0 13 -10.5 25t-31.5 13q-21 0 -32.5 -11.5t-11.5 -26.5zM464 39q0 -22 19 -33q7 -5 16 -6q10 0 19 3q31 9 31 38q0 8 -4 17q-13 25 -40 25q-15 0 -25 -9 q-16 -14 -16 -35zM569 904q0 -20 16 -35q12 -8 26 -8h3q16 1 27.5 12t11.5 26q0 22 -17 35q-13 11 -27 11q-22 0 -34 -19q-6 -11 -6 -22zM631 159q0 -19 11.5 -31.5t27.5 -12.5h3q17 2 31 17q10 14 10 28q0 3 -1 12.5t-14.5 18.5t-26.5 9q-2 0 -11.5 -1.5t-19.5 -13.5 t-10 -26zM695 740q0 -8 3 -17q14 -24 39 -24q7 0 15 3q26 10 26 37q0 10 -5 20q-13 25 -38 25q-10 0 -19 -5q-21 -13 -21 -39zM725 340q0 -10 5 -22q11 -22 36 -22q9 0 21 7q20 10 20 39q0 11 -7 23q-10 17 -33 17q-13 0 -24 -8q-18 -11 -18 -34zM745 543q0 -19 12.5 -30.5 t30.5 -12.5q18 0 29 13t11 33q-3 20 -15 30t-26 10h-5q-37 -8 -37 -43z" />
<glyph horiz-adv-x="1079" d="M-92 -13l382 -11q69 92 92.5 126.5t73.5 103.5l-22 2q-22 3 -53.5 13t-63 32t-53.5 61t-22 100q0 20 2 41q4 49 36 111t84 121t117.5 98t137.5 39q19 0 38 -3q67 -17 67 -76l-2 -19q-30 -168 -52 -288.5t-37 -201.5t-24 -130.5t-14 -75t-7 -35t-3 -9.5v-1h102 q65 0 115 39.5t65 103.5l116 544q16 67 16 116q0 64 -14.5 98t-20.5 41l-2 2q-7 11 -32 31.5t-70.5 38.5t-114.5 18q-139 0 -325 -96q-155 -90 -265 -239.5t-142 -306.5l1 -19q2 -20 10 -48t24.5 -56t45 -47.5t73.5 -19.5l16 1z" />
<glyph horiz-adv-x="997" d="M0 342q0 44 28.5 77.5t75.5 43.5q222 40 299 53l252 43l30 187l1 18q0 47 -34 80t-80 33q-39 0 -73.5 -22t-53.5 -47q-26 -40 -26 -65q0 -12 3.5 -20.5t8.5 -14t9 -8.5l4 -3l-2 -11q-1 -12 -9 -29q-20 -42 -77.5 -65.5t-121.5 -23.5q-88 0 -134 48q-42 48 -55.5 101 t-15.5 94l-3 35q0 60 18 101.5t31 57.5v-10q0 -24 8 -57q20 -88 37 -122q38 -76 108 -76h10q16 0 30 4.5t35 22.5q-11 2 -13.5 26t-2.5 62q0 17 3 27q22 58 72.5 92.5t112.5 39.5q54 3 114 3q113 0 139 -4q73 -20 126.5 -98t53.5 -151q0 -13 -2 -26l-58 -317 q-12 -75 -45.5 -164.5t-100 -161.5t-177.5 -94q-36 -7 -77 -7q-77 0 -159.5 26.5t-161.5 86.5q-76 60 -121 196q-6 20 -6 39zM248 301q8 -13 35.5 -36t68.5 -43t90 -20q44 0 90 25q47 28 67.5 67.5t27.5 93.5z" />
<glyph horiz-adv-x="922" d="M1 392v6q16 362 287 540q140 79 263 79q70 0 123 -20.5t88 -47.5t53 -48t19.5 -23.5t3.5 -6.5l-4 -6q-146 -215 -162 -230l-4 -7l-3 2q-1 -2 -4 -2t-17 8q2 3 5 7t5 9t2 14q0 16 -7 35l-6 23q-14 58 -67 76q-28 9 -54 9q-55 0 -101.5 -30t-81 -74t-52.5 -87 q-58 -129 -58 -231q0 -27 4 -52q9 -55 46 -91q41 -39 102 -41q47 0 83.5 23.5t61.5 53.5t38 53.5t13 24.5l8 16l164 -178q-11 -30 -38.5 -69t-86 -75t-163.5 -59l-47 -2q-195 0 -302 102q-45 43 -69 95t-33 105t-9 99z" />
<glyph horiz-adv-x="1663" d="M0 207q0 21 4 43l129 648l16 18q16 18 47 41.5t76 41.5t103 18q54 0 118.5 -22.5t139 -78t157.5 -152.5q30 93 53 129.5t28 37.5q11 11 43 31t82.5 38t116.5 18q135 0 277 -96q92 -70 141 -183t49 -237q0 -140 -67 -268q-55 -98 -135 -151t-173 -72.5t-186 -19.5 q-81 0 -156 9q-2 1 -62 10.5t-93.5 51.5t-33.5 100q0 19 4 38l77 424l-20 28q-20 29 -55 65.5t-80.5 65t-95.5 28.5q-80 0 -146 -91q-48 -259 -108 -604l-21 -120l-26 1q-88 5 -145.5 66t-57.5 144zM916 249q15 -7 58.5 -20t101.5 -13q53 0 110 20t107 74t84 154 q10 34 10 75q0 63 -25 130t-75.5 112.5t-126.5 45.5q-19 0 -39 -3q-78 -17 -98 -93z" />
<glyph horiz-adv-x="1632" d="M0 404q0 6 5 6h211q31 -2 31 -4l-1 -23q0 -52 16.5 -96t52 -71t90.5 -27q18 0 39 3q78 17 98 92l102 456q2 7 2 13q0 22 -14.5 38.5t-38.5 18.5l-36 2q-83 0 -141.5 -35t-95 -91t-55.5 -121q-1 -3 -4 -3t-7 3q-9 4 -12 8q-47 71 -47 163q0 54 23 114q75 166 414 166 q38 0 73 -4q83 0 139 -57.5t56 -135.5q0 -18 -4 -36l-77 -410q0 -3 1 -4q23 -39 75 -90q79 -77 157 -77q80 0 149 93v2q43 234 108 603l19 108q0 4 5 4q95 -5 157 -70.5t62 -154.5q0 -22 -5 -45l-124 -624q-19 -27 -69 -63q-77 -54 -171 -54q-53 0 -115.5 21.5t-135 75 t-153.5 145.5l-4 2q-3 0 -5 -4q-28 -85 -50.5 -119t-26.5 -35l-1 -1q-11 -10 -42.5 -30t-81.5 -38t-116 -18q-133 0 -272 95q-145 114 -180 309z" />
<glyph horiz-adv-x="1727" d="M0 299q0 161 112 339.5t284 280.5q177 94 310 94q65 0 108 -17.5t66.5 -38t30.5 -30.5l2 -1q1 -2 9 -24t8 -76q0 -27 -3 -63q313 250 508 250q57 0 94.5 -18.5t59 -41.5t30.5 -41l9 -18l-132 -660q-20 -99 -93.5 -161t-175.5 -68l-48 -2l27 119q26 119 62 283t67 314 q-31 93 -111 93q-82 0 -197 -84q-67 -49 -102 -84l-101 -480q-15 -70 -68.5 -113t-122.5 -43h-80q-80 -8 -146 -8q-190 0 -283.5 62t-118.5 177q-5 29 -5 60zM220 388q0 -66 29 -101.5t74.5 -49t93.5 -13.5q46 0 87.5 7.5t68.5 14.5l26 7l85 476l1 18q0 29 -16 49 q-24 29 -84 29q-68 0 -130.5 -38t-112 -95t-79.5 -117.5t-33 -108.5q-10 -43 -10 -78z" />
<glyph horiz-adv-x="1665" d="M0 302q0 161 111.5 338.5t282.5 279.5q176 93 308 93q66 0 108.5 -17.5t66 -37.5t30.5 -30q0 -1 1.5 -2.5t8.5 -21t9 -65.5q113 95 226.5 134.5t192.5 39.5q66 0 108.5 -17.5t66 -37.5t30.5 -30q0 -1 2 -2t9 -22.5t7 -74.5v-19.5t-0.5 -19.5t-2.5 -26h1l-101 -596 q-17 -69 -70 -112t-122 -43h-79q-81 -9 -148 -9q-202 0 -300 78q-52 -50 -116 -69h-79q-81 -9 -147 -9q-188 0 -281 62.5t-118 175.5q-5 29 -5 60zM219 391q0 -66 29 -101.5t74 -48.5t94 -13q46 0 87 7t67 14l26 7q29 154 84 475l1 18q0 40 -29.5 58.5t-69.5 18.5 q-68 0 -130 -38t-111 -95t-79 -117t-34 -108q-9 -43 -9 -77zM862 392q0 -66 29 -101.5t74.5 -49t94.5 -13.5q45 0 86.5 7t66.5 14l26 7q29 154 84 475l2 18q0 40 -30 58.5t-70 18.5q-61 0 -117.5 -31t-103 -79.5t-79 -103t-46.5 -102.5l-16 -95z" />
<glyph horiz-adv-x="1747" d="M0 284q0 74 48 117q53 48 128 66l26 6h378l74 364q-44 6 -80 6q-82 0 -128.5 -24t-68 -57t-27 -62.5t-5.5 -43.5q0 -3 -1 -3l-14 2q-23 4 -73 15l-72 16q-32 8 -49.5 31.5t-17.5 51.5q0 27 18 52q64 81 174 132q135 62 275 66q89 0 148.5 -19.5t94 -44t49.5 -43.5l14 -19 l-45 -248q35 122 129 226q90 89 203.5 123.5t239.5 34.5q29 0 58 -2q82 -5 134 -62t52 -133q0 -19 -4 -38l-13 -68q-121 60 -263 60q-116 0 -216 -50q-74 -44 -110 -95q-57 -80 -57 -164v-4q135 0 196.5 2t214.5 2q16 4 32 4q48 0 88.5 -29.5t40.5 -74.5l-2 -16l-48 -261 q-14 -60 -73 -76q-110 -24 -218 -24q-78 0 -155 18.5t-135 68.5t-83 140q-20 41 -32 107h-33l-5 -27q-9 -13 -19 -34q-18 -36 -52 -84t-97.5 -95t-169.5 -78q-47 -5 -89 -5q-106 0 -176 26.5t-110.5 68t-57 89t-16.5 89.5zM217 246q0 -92 117 -92q52 0 91 25t65.5 65.5 t41.5 89.5h-295q-20 -48 -20 -88zM816 480l1 13l-1 -6v-7zM1004 334q17 -55 61 -103q62 -68 162 -68q40 0 90 13q18 101 19 110q0 20 -13.5 34t-33.5 14l-11 -1q-16 1 -274 1z" />
<glyph horiz-adv-x="1038" d="M0 523q0 82 15 150t37 106q15 36 67.5 99t150.5 117q50 25 100 25q75 0 135.5 -47t79.5 -127l9 -40q-27 16 -75 16q-22 0 -39 -3l-16 -2l-25 -7q-26 -8 -63 -27t-73.5 -53.5t-62 -88t-25.5 -130.5t34 -181l12 -18q11 -19 32 -44t48 -48t59 -34q48 -25 90 -25 q39 0 70.5 13t50.5 27l18 13l128 808q85 0 143 -60t58 -141q0 -18 -3 -35l-128 -724l-44 -18q-44 -19 -117.5 -37t-163.5 -18q-191 0 -338 110q-61 55 -97 126q-67 131 -67 298z" />
<glyph horiz-adv-x="1634" d="M0 902l20 19q20 18 57 41.5t89 42t116 18.5q46 0 96 -13q71 -17 110.5 -49t55 -73t15.5 -84q0 -82 -38 -165l-13 -27l-93 -46q-123 -100 -123 -240q0 -41 11.5 -81t50 -57t81.5 -17q59 0 106.5 29t82 66t52.5 66l19 29l1 -1h3q-4 36 -4 76q0 69 15 144t50 148t96 138 q90 89 205 123.5t242 34.5h20q95 -4 156.5 -68.5t61.5 -152.5q0 -22 -1.5 -32t-4.5 -22t-6 -30q-123 61 -265 61q-116 0 -217 -51q-114 -67 -144 -173q-13 -43 -13 -73q0 -20 3 -30h2q58 54 131.5 75.5t143.5 21.5q87 0 148 -24q22 -8 51 -31q72 -56 79 -168l-55 -297 l-39 -10q-40 -10 -104.5 -20t-138.5 -10q-71 0 -141.5 15t-127.5 54.5t-89 110.5q-100 -80 -192.5 -126t-191.5 -46q-96 0 -174 45.5t-124 124.5t-46 179q3 198 136 320q8 4 36.5 11t64 18.5t62 25.5t28.5 31v7q0 68 -28 105t-71.5 50.5t-89.5 13.5q-42 0 -79.5 -6.5 t-60.5 -13.5zM913 275l8 -19q8 -18 29 -42t58 -43t94 -19q42 0 97 14q18 102 19 112q0 25 -15.5 53.5t-37.5 28.5h-5q-31 5 -53 5q-63 0 -107 -22.5t-87 -67.5z" />
<glyph horiz-adv-x="1042" d="M0 509q0 84 16 155.5t40 111.5q37 79 101 142q98 98 243 98q40 0 87 -9q36 -8 62.5 -36t43.5 -61t25 -57l7 -25l-38 1q-165 0 -266.5 -70t-101.5 -209q0 -80 40 -194q11 3 221 131l215 132l78 426q80 0 134.5 -56.5t54.5 -132.5q0 -18 -4 -37l-143 -732l-44 -19 q-44 -19 -118.5 -38t-164.5 -19q-189 0 -335 113q-85 70 -119 175t-34 210zM396 210q47 -25 90 -25q41 0 73.5 13.5t51.5 26.5l19 14l27 132q0 1 -1 1q-10 0 -75.5 -40.5t-184.5 -121.5z" />
<glyph horiz-adv-x="1670" d="M0 518q0 -123 49 -236t142 -183q141 -96 275 -96q66 0 116.5 18t82.5 38.5t42 30.5l2 2q7 4 29.5 40.5t50.5 124.5q217 -253 414 -253q58 0 103 18.5t76 41.5t47 42l16 18l124 622q4 24 4 47q0 91 -63 158t-161 73l-21 -120q-60 -344 -108 -603q-69 -94 -150 -94 q-48 0 -90.5 26t-75 59t-50.5 59l-19 26l77 406q4 19 4 37q0 81 -58 140.5t-143 59.5l-6 -34l-17 -82l-95 -431l-41 -183q-20 -75 -99 -93q-20 -3 -38 -3q-75 0 -125.5 45.5t-75.5 112t-25 129.5q0 42 11 76q26 89 74.5 139.5t100.5 73t89 27.5l37 5q3 18 3 34 q0 67 -48 113.5t-112 46.5q-30 0 -61 -12q-128 -54 -220 -198q-67 -127 -67 -268z" />
<glyph horiz-adv-x="1736" d="M0 329q0 69 18 138q43 167 133 278t181 170q172 110 402 110q63 0 99 -7t58 -14q13 -4 25 -6.5t31 -15t34 -41t15 -81.5q0 -47 -29 -190q-15 -71 -26 -140t-11 -131q0 -90 31 -147q43 -73 114 -73q41 0 82.5 19t75.5 44t55 44l21 19l139 683q88 0 148 -61.5t60 -145.5 q0 -22 -5 -45l-131 -605q-77 -72 -196 -108.5t-227 -36.5q-64 0 -114 13q-164 57 -223 198q-37 88 -37 172v8l32 186q32 187 38 230q-47 69 -141 69q-81 0 -185 -60q-111 -69 -176.5 -185.5t-65.5 -213.5q0 -61 25 -96t65.5 -50t87.5 -15q37 0 69.5 5.5t52.5 10.5l20 5 l-41 -108q-42 -106 -47 -111q-109 -55 -190 -55q-71 0 -121.5 32t-83 83t-47.5 110.5t-15 114.5z" />
<glyph horiz-adv-x="1008" d="M0 298q0 161 113 339.5t285 281.5q177 94 310 94q65 0 108 -17.5t66.5 -38t29.5 -30.5q2 -1 6.5 -9.5t8.5 -30t4 -58.5v-20t-0.5 -19t-2.5 -27h1l-102 -600q-16 -69 -69.5 -112.5t-123.5 -43.5h-79q-80 -8 -147 -8q-190 0 -283.5 62t-119.5 178q-5 28 -5 59zM221 388 q0 -66 29 -102t74.5 -49.5t94.5 -13.5q46 0 87.5 7.5t67.5 14.5l27 7q28 154 84 478l1 17q0 28 -16 48q-24 30 -83 30q-69 0 -131.5 -38.5t-112 -95.5t-79.5 -117.5t-34 -108.5q-9 -43 -9 -77z" />
<glyph horiz-adv-x="1768" d="M-83 -13l373 -11q66 91 89 125t73 105l-21 2q-21 3 -52 13t-62.5 32t-52.5 61t-21 100q0 20 2 41q4 49 35 111t81.5 121t115 98t134.5 39q18 0 37 -3q65 -17 65 -76q0 -9 -2 -19q-29 -168 -50.5 -288.5t-36 -202t-23.5 -130.5t-14 -74.5t-6.5 -35t-2.5 -9.5v-1h99 q64 0 113 39.5t63 103.5l106 510l30 26q29 26 75.5 60t100 60.5t101.5 26.5q83 0 115 -96q-32 -154 -69 -322.5t-64 -290.5l-27 -122l39 2q109 6 187.5 73t101.5 173l132 667l-8 19q-9 18 -31.5 42t-60.5 42.5t-98 18.5q-54 0 -128.5 -23t-172 -79t-221.5 -154q4 36 4 64 q0 56 -8 78.5t-10 23.5l-1 2q-7 10 -31.5 31t-68.5 39t-112 18q-136 0 -317 -96q-152 -90 -259 -239.5t-139 -306.5l1 -19q2 -19 9.5 -47.5t24 -56.5t44.5 -47.5t72 -19.5l15 1z" />
<glyph horiz-adv-x="1114" d="M125 356v150h340v359l11 1h149v-360h339l1 -11v-139h-340v-370h-160v370h-340z" />
<glyph horiz-adv-x="508" d="M-378 1067q78 30 173.5 111.5t154.5 225.5q-23 -3 -45 -3q-48 0 -92 13h-2q-31 7 -47 32.5t-16 57.5q5 179 65 263q29 37 77 59t99 22q78 0 129 -50q60 -59 60 -151q0 -20 -1.5 -38.5t-3.5 -30.5l-1 -12l-12 -48q-12 -47 -45 -117.5t-94.5 -142.5t-159 -125.5 t-239.5 -65.5zM-118 1547q0 -16 5 -25t33 -9q35 1 63 20q52 40 52 106q0 25 -10 48.5t-27 32t-34 8.5q-34 -2 -52 -29q-30 -46 -30 -137v-15zM-40 801l19 12q19 11 51.5 22.5t74.5 11.5q87 -2 87 -46l-151 -782q52 5 237 11l92 474q72 372 72 388q0 57 -41.5 99t-101.5 42 h-95q-53 0 -97.5 -35.5t-77.5 -80.5t-51 -81z" />
</font>
</defs>
</svg>
