<?xml version="1.0" standalone="no"?>
<!DOCTYPE svg PUBLIC "-//W3C//DTD SVG 1.1//EN" "http://www.w3.org/Graphics/SVG/1.1/DTD/svg11.dtd" >
<svg xmlns="http://www.w3.org/2000/svg" xmlns:xlink="http://www.w3.org/1999/xlink" version="1.1">
<metadata></metadata>
<defs>
<font id="a_j_kunheing_8regular" horiz-adv-x="922" >
<font-face units-per-em="2048" ascent="1638" descent="-410" />
<missing-glyph horiz-adv-x="508" />
<glyph unicode=" "  horiz-adv-x="508" />
<glyph unicode="&#x09;" horiz-adv-x="508" />
<glyph unicode="&#xa0;" horiz-adv-x="508" />
<glyph unicode="!" horiz-adv-x="719" d="M100 68q0 36 44 71t101 35q84 0 84 -51q0 -6 -4 -23q-22 -4 -66 -47t-59 -69q-100 32 -100 84zM274 459q35 78 146.5 399.5t152.5 431.5q19 49 107 49l118 -8q17 0 23 2q-113 -162 -276.5 -476t-186.5 -382z" />
<glyph unicode="&#x22;" horiz-adv-x="764" d="M109 1014q10 16 160 397q10 25 96 25t86 -21q0 -4 -42 -59.5t-126 -180t-100 -159.5q-2 -8 -38 -8t-36 6zM390 1014q10 14 159 397q11 25 98 25t87 -23q0 -2 -42 -56t-125 -179t-102 -162q-6 -8 -40.5 -8t-34.5 6z" />
<glyph unicode="#" horiz-adv-x="1059" d="M279 649l28 144h189l49 161h-203l31 144h213l63 207h135l-61 -207h156l61 207h137l-63 -207h176l-31 -144h-188l-47 -161h200l-28 -144h-213l-60 -205h-137l62 205h-156l-62 -205h-137l62 205h-176zM633 793h155l48 161h-156z" />
<glyph unicode="$" d="M211 336q5 27 18.5 50t33 40.5t42.5 27t47 9.5t43.5 -9.5t32 -27t16.5 -40.5t-2 -50q-5 -24 -17.5 -45t-30 -37.5t-37.5 -27.5t-40 -15q22 -87 99 -119l121 565l-125 195q-69 110 -35 252q12 66 43 123.5t82 111.5q46 48 96.5 80.5t110.5 46.5l30 150h70l-29 -139h15 q2 0 5.5 -1t6.5 -1l31 141h69l-33 -150q51 -14 89.5 -46.5t64.5 -80.5q59 -99 27 -233q-6 -26 -19.5 -49t-33 -40t-43 -26.5t-48.5 -9.5q-24 0 -42.5 9.5t-30.5 26.5t-16 40t1 49q6 23 18 44t29 37.5t37 28t43 15.5q-12 42 -37.5 71t-62.5 46l-121 -566l125 -192 q67 -103 37 -254q-29 -131 -127 -234v2q-93 -100 -207 -129l-33 -151h-69l30 139h-12h-14l-31 -139h-70l33 151q-106 28 -153 125q-56 103 -27 236zM481 78h11h8h8l100 469l-20 28zM524 1182q-12 -62 19 -105l61 -98l78 369q-55 -20 -88 -52q-54 -51 -70 -114zM582 92 q27 11 51 24t41 31h-2q57 51 69 115q8 29 2.5 55t-20.5 48l-61 98zM655 895l21 -31l106 502h-6h-10h-10z" />
<glyph unicode="%" horiz-adv-x="1608" d="M119 0l1495 1436h217l-1495 -1436h-217zM355.5 890.5q-10.5 63.5 6.5 141.5l17 68q15 78 54 140.5t102 119.5q66 57 131.5 83.5t140.5 26.5q142 0 219 -110q42 -57 54.5 -119.5t-3.5 -140.5l-16 -68q-17 -78 -55.5 -141.5t-104.5 -120.5q-63 -57 -129.5 -82.5 t-138.5 -25.5t-127 25.5t-98 82.5q-42 57 -52.5 120.5zM543.5 867.5q5.5 -27.5 21.5 -48.5t39.5 -33t52.5 -12q30 0 59 12t53.5 33t42 48.5t24.5 58.5l59 280q6 31 0 58.5t-21.5 48.5t-39.5 33t-54 12q-29 0 -57.5 -12t-52.5 -33t-41.5 -48.5t-24.5 -58.5l-59 -280 q-7 -31 -1.5 -58.5zM868.5 193.5q-11.5 64.5 5.5 142.5l15 70q15 75 55 139.5t103 118.5q127 110 272 110q140 0 223 -110q80 -111 49 -258l-14 -70q-17 -78 -57 -142.5t-103 -119.5q-127 -109 -270 -109q-72 0 -128.5 26t-96.5 83q-42 55 -53.5 119.5zM1055.5 170.5 q5.5 -27.5 21 -48t39 -32.5t53.5 -12q31 0 60 12t53 32.5t41.5 48t24.5 58.5l59 279q7 32 1.5 60t-21 49t-39.5 33t-54 12q-31 0 -60 -12t-53 -33t-41 -49t-24 -60l-59 -279q-7 -31 -1.5 -58.5z" />
<glyph unicode="&#x26;" horiz-adv-x="954" d="M209 197q-11 64 4 139l31 141q20 97 80.5 180t146.5 136q-32 24 -54.5 57.5t-34.5 74.5t-13.5 87.5t8.5 95.5q15 75 55 139t103 121q63 54 129 82.5t135 28.5q144 0 219 -107l14 70h105l-76 -357h-105q13 63 5.5 114.5t-35.5 88.5q-54 78 -150 78q-30 0 -58.5 -12.5 t-52.5 -33.5t-41 -49.5t-24 -60.5l-45 -209q-7 -32 -1.5 -59.5t21 -48.5t39 -33t52.5 -12h409l-24 -111h-66l-180 -856q-7 -32 0 -59.5t25 -48.5t45 -33t61 -12l-21 -93l-26 -20q-72 0 -124.5 27t-92.5 84q-38 55 -50.5 118.5t3.5 141.5l6 20q-79 -43 -152 -43 q-141 0 -219 113q-40 57 -51 121zM389.5 171.5q5.5 -27.5 20.5 -48.5t38.5 -33t53.5 -12q38 0 78 11t75 36l129 612h-143q-30 0 -58.5 -12.5t-52 -33.5t-41 -49.5t-24.5 -59.5l-74 -351q-7 -32 -1.5 -59.5z" />
<glyph unicode="'" horiz-adv-x="381" d="M379 1010l45 430h176l-149 -430h-72z" />
<glyph unicode="(" horiz-adv-x="514" d="M223 211q-5 91 5.5 195t35.5 227q26 121 61 225t78 195q45 90 108 188.5t151 204.5l59 -55q-75 -106 -127.5 -199t-87.5 -174q-34 -85 -64 -179t-53 -206q-25 -114 -36 -208.5t-13 -178.5q3 -82 16 -174.5t41 -198.5l-84 -55q-42 109 -63 205.5t-27 187.5z" />
<glyph unicode=")" horiz-adv-x="514" d="M96 -127q72 106 125.5 197t85.5 176q37 84 65.5 178.5t53.5 208.5q25 112 37 208t10 177q2 81 -13 174t-40 199l84 55q42 -106 63.5 -204.5t26.5 -188.5q12 -177 -41 -420q-25 -123 -59.5 -227t-77.5 -195q-45 -91 -108.5 -187.5t-151.5 -205.5z" />
<glyph unicode="*" horiz-adv-x="821" d="M313 860l187 101l-144 100l95 121l141 -101l43 201h131l-43 -201l188 101l41 -121l-186 -100l143 -101l-90 -123l-147 101l-41 -201h-133l41 201l-183 -101z" />
<glyph unicode="+" horiz-adv-x="748" d="M233 449l31 139h187l43 198h131l-41 -198h190l-31 -139h-190l-41 -199h-133l43 199h-189z" />
<glyph unicode="," horiz-adv-x="381" d="M123 -195l45 431h176l-151 -431h-70z" />
<glyph unicode="-" horiz-adv-x="748" d="M211 346l25 107h509l-22 -107h-512z" />
<glyph unicode="." horiz-adv-x="422" d="M147.5 65.5q-3.5 19.5 2.5 40.5q4 22 16 42t29 35t37.5 23.5t41.5 8.5t38 -8.5t27.5 -23.5t14 -35t-1.5 -42q-5 -21 -17 -40.5t-28.5 -34t-37 -23t-42.5 -8.5q-21 0 -38 8.5t-27.5 23t-14 34z" />
<glyph unicode="/" horiz-adv-x="827" d="M74 -90l872 1493l111 -51l-871 -1493z" />
<glyph unicode="0" d="M205.5 193.5q-10.5 64.5 5.5 142.5l164 764q15 78 53 140.5t98 119.5q125 110 269 110q136 0 213 -110q40 -57 52 -119.5t-5 -140.5l-162 -764q-17 -78 -56 -142.5t-102 -119.5q-124 -109 -262 -109q-141 0 -219 109q-38 55 -48.5 119.5zM385.5 170.5q5.5 -27.5 20.5 -48 t38 -32.5t52 -12q28 0 56.5 12t52 32.5t41 48t24.5 58.5l209 977q6 31 0.5 58.5t-20.5 48.5t-38.5 33t-52.5 12t-57 -12t-51.5 -33t-41 -48.5t-24.5 -58.5l-207 -977q-7 -31 -1.5 -58.5z" />
<glyph unicode="1" horiz-adv-x="866" d="M356 0l23 111h61l258 1212h-61l25 111h245l-282 -1323h61l-22 -111h-308z" />
<glyph unicode="2" d="M139 0q32 157 98 294.5t166 262.5q39 51 122.5 136t215.5 214q174 168 195 269q18 76 -39 133q-50 49 -129 49q-48 0 -94 -19.5t-88 -56.5q-45 -37 -72 -88.5t-43 -114.5h-102l75 357h103l-15 -70q57 54 121.5 78t139.5 24q69 0 122.5 -25.5t92.5 -82.5q80 -110 45 -262 q-29 -144 -199 -326q-37 -38 -74.5 -77t-74.5 -77q-38 -38 -74.5 -76.5t-73.5 -76.5q-152 -177 -195 -354h377l15 69h104l-37 -180h-682z" />
<glyph unicode="3" d="M139 0l76 354h102q-12 -63 -5 -112.5t36 -89.5h-2q25 -38 63.5 -56t86.5 -18q28 0 56.5 12t52 32.5t41 48t24.5 58.5l75 351q6 31 0.5 58.5t-20 48t-37.5 32.5t-51 12h-100l22 113h100q29 0 57.5 11.5t52.5 32t41 48t24 59.5l45 211q6 31 0.5 58.5t-20.5 48.5t-38.5 33 t-52.5 12q-48 0 -94 -19t-88 -57q-45 -37 -72 -87.5t-43 -113.5h-102l75 355h103l-15 -70q113 104 263 104q136 0 213 -110q40 -57 52 -119.5t-5 -140.5q-23 -97 -84 -180t-146 -134q31 -24 54 -58.5t35.5 -75t15 -86.5t-7.5 -93l-29 -137q-17 -78 -56 -140.5t-102 -119.5 q-126 -111 -262 -111q-144 0 -217 103l-14 -68h-103z" />
<glyph unicode="4" horiz-adv-x="926" d="M180 348l23 96l637 990h192l-209 -975h129l-22 -111h-129l-49 -237h63l-22 -111h-330l22 111h66l49 237h-420zM330 459h293l145 678z" />
<glyph unicode="5" d="M139 0l76 354h102q-12 -63 -5 -112.5t36 -89.5h-2q25 -38 63.5 -56t86.5 -18q28 0 56.5 12t52 32.5t41 48t24.5 58.5l114 541q7 31 2 59t-19.5 49t-37.5 33.5t-51 12.5q-30 0 -58.5 -12.5t-52 -33.5t-41 -49t-24.5 -59l-25 -125h-198l165 793h514l17 69h102l-39 -182 h-417l-72 -338q34 25 72.5 37t78.5 12q72 0 124.5 -28t90.5 -82q78 -111 48 -260l-70 -330q-17 -78 -56 -140.5t-102 -119.5q-126 -111 -262 -111q-144 0 -217 103l-14 -68h-103z" />
<glyph unicode="6" d="M205.5 193.5q-10.5 64.5 5.5 142.5l164 764q15 78 53 140.5t98 119.5q125 110 269 110q69 0 123.5 -25t89.5 -79l14 70h102l-73 -355h-105q25 123 -28 201q-28 38 -63.5 57t-86.5 19q-29 0 -57 -12t-51.5 -33t-41 -48.5t-24.5 -58.5l-45 -221q34 26 72.5 37.5t78.5 11.5 q72 0 124.5 -27.5t90.5 -82.5q78 -108 48 -258l-70 -330q-17 -78 -56 -140.5t-102 -119.5q-126 -111 -262 -111q-141 0 -219 109q-38 55 -48.5 119.5zM385.5 170.5q5.5 -27.5 20.5 -48t38 -32.5t52 -12q28 0 56.5 12t52 32.5t41 48t24.5 58.5l114 541q7 31 2 59t-20 49 t-38 33.5t-52 12.5t-57.5 -12.5t-52 -33.5t-40.5 -49t-24 -59l-115 -541q-7 -31 -1.5 -58.5z" />
<glyph unicode="7" d="M342 0l567 1323h-370l-15 -70h-102l37 181h680l-19 -95l-575 -1339h-203z" />
<glyph unicode="8" d="M205.5 193.5q-10.5 64.5 5.5 142.5l29 137q10 48 30.5 94t50 86.5t66 74.5t78.5 58q-31 25 -53 59t-34 74.5t-13 86.5t10 94q15 78 53 140.5t98 119.5q125 110 269 110q136 0 213 -110q40 -57 52 -119.5t-5 -140.5q-23 -97 -84 -180t-146 -134q31 -24 54 -58t36 -74.5 t15 -86.5t-8 -94l-29 -137q-17 -78 -56 -142.5t-102 -119.5q-124 -109 -262 -109q-141 0 -219 109q-38 55 -48.5 119.5zM385.5 170.5q5.5 -27.5 20.5 -48t38 -32.5t52 -12q28 0 56.5 12t52 32.5t41 48t24.5 58.5l75 351q6 31 0.5 58.5t-20 48t-37.5 32.5t-51 12 q-29 0 -57.5 -12t-52.5 -32.5t-41 -48t-23 -58.5l-76 -351q-7 -31 -1.5 -58.5zM549.5 935.5q5.5 -27.5 20 -48t37.5 -32t52 -11.5t57.5 11.5t52.5 32t41 48t24 59.5l45 211q6 31 0.5 58.5t-20.5 48.5t-38.5 33t-52.5 12t-57 -12t-51.5 -33t-41 -48.5t-24.5 -58.5l-43 -211 q-7 -32 -1.5 -59.5z" />
<glyph unicode="9" d="M139 0l76 354h102q-12 -63 -5 -112.5t36 -89.5h-2q25 -38 63.5 -56t86.5 -18q28 0 56.5 12t52 32.5t41 48t24.5 58.5l47 220q-37 -25 -74.5 -36.5t-77.5 -11.5q-140 0 -215 109q-40 57 -52 119.5t5 140.5l72 330q15 78 54 140.5t99 119.5q125 110 267 110q136 0 213 -110 q40 -57 52 -119.5t-5 -140.5l-162 -764q-17 -78 -56 -142.5t-102 -119.5q-124 -109 -262 -109q-144 0 -217 103l-14 -68h-103zM478.5 606q5.5 -28 20.5 -49t38.5 -33t52.5 -12q28 0 56.5 12t52 33t41 49t24.5 60l115 540q6 31 0.5 58.5t-20.5 48.5t-38.5 33t-52.5 12 t-57 -12t-51.5 -33t-41 -48.5t-24.5 -58.5l-115 -540q-6 -32 -0.5 -60z" />
<glyph unicode=":" horiz-adv-x="422" d="M149 75q-3 22 3 48q5 26 17 48.5t29.5 39t38 26t42.5 9.5q21 0 38 -9.5t27.5 -26t14 -39t-2.5 -48.5q-5 -26 -17.5 -48t-30 -39t-38.5 -26.5t-43 -9.5q-21 0 -37.5 9.5t-27 26.5t-13.5 39zM287.5 725q-2.5 22 3.5 47q5 25 17.5 47.5t29.5 39.5t37.5 26.5t42.5 9.5 q21 0 37.5 -9.5t27 -26.5t13.5 -39.5t-2 -47.5q-6 -25 -19 -47t-30 -38.5t-37.5 -26t-42.5 -9.5t-38.5 9.5t-26.5 26t-12.5 38.5z" />
<glyph unicode=";" horiz-adv-x="422" d="M139 -209l51 459h183l-164 -459h-70zM288 731.5q-3 22.5 3 48.5t18.5 48.5t30 39t38 26t42.5 9.5q43 0 64.5 -34.5t9.5 -88.5q-6 -26 -18.5 -48.5t-29.5 -39.5t-37.5 -27t-41.5 -10q-22 0 -38.5 10t-27 27t-13.5 39.5z" />
<glyph unicode="&#x3c;" horiz-adv-x="719" d="M236 465l26 125l479 291l47 -119l-387 -236l289 -233l-98 -121z" />
<glyph unicode="=" horiz-adv-x="748" d="M207 322l29 133h509l-28 -133h-510zM254 545l29 135h512l-29 -135h-512z" />
<glyph unicode="&#x3e;" horiz-adv-x="719" d="M193 293l382 233l-282 236l94 119l358 -291l-26 -125l-483 -293z" />
<glyph unicode="?" horiz-adv-x="938" d="M165 76q-4 23 1 49t19 49t33 40t42 26.5t47 9.5q51 0 76.5 -36t13.5 -89q-5 -26 -18.5 -49t-32.5 -40t-43 -26.5t-49 -9.5q-24 0 -42.5 9.5t-30.5 26.5t-16 40zM262 348l74 512h201q-7 -35 -2.5 -66.5t19 -55.5t36.5 -38t51 -14t57.5 12t52.5 33t41 48.5t23 58.5l80 366 q6 31 0.5 59t-20.5 49t-38.5 33.5t-52.5 12.5q-48 0 -93.5 -19.5t-90.5 -56.5q-81 -75 -113 -203h-104l76 357h104l-14 -70q60 54 122.5 78t137.5 24q69 0 123 -25.5t92 -82.5q79 -109 47 -260l-33 -156q-17 -78 -55.5 -140.5t-101.5 -119.5q-124 -109 -263 -109 q-83 0 -135 52l-88 -279h-133z" />
<glyph unicode="@" horiz-adv-x="1540" d="M125 -84l268 1260q11 54 39 100t76 86q89 80 190 80h793q54 0 93.5 -21t68.5 -59q26 -38 35.5 -85t-2.5 -101l-193 -912q-11 -54 -40 -99t-77 -87q-46 -38 -93 -58t-99 -20h-275l17 61q-48 -43 -106 -70.5t-113 -27.5q-67 0 -118.5 25.5t-88.5 74.5q-35 51 -47 111.5 t4 132.5q2 6 4 14.5t4 16.5v-2l123 422q47 151 180 260q135 108 276 108q60 0 102.5 -27t63.5 -75l21 68h221l-33 -111h-65l-258 -870h112q30 0 59.5 12.5t53.5 33.5t41.5 48.5t23.5 58.5l195 912q6 31 0.5 59t-21 49t-39 33t-53.5 12h-792q-29 0 -58 -12t-53 -33t-42 -49 t-25 -59l-267 -1260q-7 -32 -1.5 -60t21 -49t39 -33t52.5 -12h748l-23 -112h-748q-102 0 -159 82q-58 75 -35 184zM632.5 161q4.5 -25 19 -43.5t36.5 -29t49 -10.5q30 0 60 12t55.5 33t45.5 49.5t30 60.5l186 629l4 15q6 28 1 53t-19 43.5t-35.5 29.5t-48.5 11 q-60 0 -115 -47q-29 -22 -48 -49.5t-30 -59.5l-186 -629l-2 -14q-7 -29 -2.5 -54z" />
<glyph unicode="A" horiz-adv-x="1083" d="M59 0l23 111h104l613 1323h151l47 -1323h90l-22 -111h-373l23 111h73l-10 237h-370l-111 -237h74l-23 -111h-289zM457 459h317l-22 631z" />
<glyph unicode="B" horiz-adv-x="950" d="M98 0l23 111h65l258 1212h-65l24 111h392q141 0 217 -109q57 -79 57 -177q0 -40 -10 -83l-6 -35q-22 -103 -86 -183.5t-158 -123.5q39 -21 68 -53.5t45 -73.5q16 -42 20 -90q1 -11 1 -23q0 -39 -9 -80l-8 -34q-32 -152 -156 -260q-124 -109 -264 -109h-408zM387 111h141 q30 0 58.5 12t52.5 33t41.5 48.5t24.5 59.5l51 244q7 31 1.5 59t-21 49t-39 33.5t-52.5 12.5h-141zM528 772h127q28 0 56 12t51.5 33t40.5 49t24 60l54 241q6 32 0.5 60.5t-20.5 49.5t-38 33.5t-51 12.5h-127z" />
<glyph unicode="C" d="M206 194q-4 26 -5 53q0 42 10 89l164 764q15 78 53 140.5t98 119.5q125 110 269 110q69 0 123.5 -25t89.5 -79l14 70h102l-73 -355h-105q9 42 9 79q0 18 -2 36q-7 52 -31 88q-56 74 -154 74q-29 0 -57 -12t-51.5 -33t-41 -48.5t-24.5 -58.5l-207 -977q-7 -31 -1.5 -58.5 t20.5 -48t38 -32.5t52 -12q99 0 184 74q43 37 71 88t42 114h102l-74 -354h-104l14 68q-57 -51 -123 -77t-135 -26q-141 0 -219 109q-38 56 -48 120z" />
<glyph unicode="D" horiz-adv-x="950" d="M98 0l23 111h65l258 1212h-65l24 111h406q143 0 219 -109q56 -77 56 -173q0 -42 -11 -87l-147 -696q-32 -151 -156 -263q-124 -106 -264 -106h-408zM387 111h141q30 0 58.5 12t52.5 33t41.5 48.5t24.5 59.5l192 903q7 32 1.5 60.5t-20.5 49.5t-38.5 33.5t-53.5 12.5h-141 z" />
<glyph unicode="E" horiz-adv-x="950" d="M98 0l23 111h65l258 1212h-65l24 111h750l-39 -181h-102l14 70h-381l-117 -551h222l14 70h102l-53 -250h-104l14 70h-219l-117 -551h381l14 69h103l-37 -180h-750z" />
<glyph unicode="F" horiz-adv-x="909" d="M98 0l23 111h65l258 1212h-65l24 111h750l-39 -181h-102l14 70h-381l-117 -551h222l14 70h102l-53 -250h-104l14 70h-219l-117 -551h64l-23 -111h-330z" />
<glyph unicode="G" horiz-adv-x="950" d="M208 197q-6 28 -6 58q0 39 9 81l164 772q15 75 54.5 139t102.5 121q63 54 128 82.5t135 28.5q72 0 128 -26.5t91 -80.5l14 70h102l-75 -357h-103q9 41 9 77q0 20 -3 39q-8 52 -32.5 89t-64 56.5t-89.5 19.5q-29 0 -57.5 -12.5t-52 -33.5t-40.5 -49.5t-24 -60.5l-209 -979 q-7 -32 -1.5 -59.5t20.5 -48.5t38 -33t52 -12q40 0 79 11t74 36l115 541h-64l23 112h328l-23 -112h-63l-146 -680q-31 -151 -157 -260q-63 -57 -133.5 -84t-151.5 -27l27 113q33 0 65 12t58.5 33t45 48.5t25.5 59.5l27 125q-82 -43 -152 -43q-139 0 -217 113q-38 57 -50 121 z" />
<glyph unicode="H" horiz-adv-x="952" d="M100 0l23 111h65l258 1212h-65l25 111h329l-24 -111h-64l-117 -551h285l117 551h-66l25 111h332l-25 -111h-63l-258 -1212h63l-22 -111h-332l22 111h66l117 551h-285l-117 -551h64l-23 -111h-330z" />
<glyph unicode="I" horiz-adv-x="459" d="M92 0l25 111h61l258 1212h-61l22 111h308l-25 -111h-57l-258 -1212h57l-23 -111h-307z" />
<glyph unicode="J" horiz-adv-x="807" d="M98 0l54 250h102q-5 -23 -5 -44q0 -12 1 -24q5 -31 19 -54t37 -36.5t52 -13.5t57.5 12t52 32.5t40.5 48t24 58.5l234 1094h-66l23 113h328l-25 -113h-63l-211 -987q-16 -78 -54.5 -140.5t-101.5 -119.5q-123 -111 -260 -111q-83 0 -131 49l-4 -14h-103z" />
<glyph unicode="K" horiz-adv-x="977" d="M100 0l23 111h65l258 1212h-65l25 111h329l-24 -111h-64l-129 -610l488 610h-50l25 111h242l-25 -111h-74l-358 -451l102 -761h72l-22 -111h-338l22 111h55l-73 540l-109 -137l-86 -403h64l-23 -111h-330z" />
<glyph unicode="L" horiz-adv-x="840" d="M98 0l23 111h65l258 1212h-65l24 111h328l-22 -111h-66l-258 -1212h315l15 69h102l-37 -180h-682z" />
<glyph unicode="M" horiz-adv-x="1352" d="M100 0l23 111h67l259 1212h-68l25 111h423l-22 -111h-76l39 -979l455 979h-74l23 111h419l-24 -111h-64l-258 -1212h64l-23 -111h-336l25 111h65l228 1071l-547 -1182h-154l-47 1182l-227 -1071h67l-24 -111h-238z" />
<glyph unicode="N" horiz-adv-x="977" d="M100 0l23 111h65l258 1212h-65l25 111h288l111 -1170l225 1059h-63l22 111h234l-25 -111h-63l-258 -1212h63l-22 -111h-289l-113 1167l-223 -1056h63l-22 -111h-234z" />
<glyph unicode="O" d="M206 194q-4 26 -5 53q0 42 10 89l164 764q15 78 53 140.5t98 119.5q125 110 269 110q136 0 213 -110q40 -58 52 -120q5 -26 5 -54q0 -40 -10 -86l-162 -764q-17 -78 -56 -142.5t-102 -119.5q-124 -109 -262 -109q-141 0 -219 109q-38 56 -48 120zM385.5 170.5 q5.5 -27.5 20.5 -48t38 -32.5t52 -12q28 0 56.5 12t52 32.5t41 48t24.5 58.5l209 977q6 31 0.5 58.5t-20.5 48.5t-38.5 33t-52.5 12t-57 -12t-51.5 -33t-41 -48.5t-24.5 -58.5l-207 -977q-7 -31 -1.5 -58.5z" />
<glyph unicode="P" horiz-adv-x="909" d="M98 0l23 111h65l258 1212h-65l24 111h406q143 0 219 -109q56 -77 56 -173q0 -42 -11 -87l-6 -35q-17 -78 -54.5 -140.5t-103.5 -119.5q-63 -57 -129 -82.5t-135 -25.5h-141l-117 -551h64l-23 -111h-330zM528 772h142q30 0 58.5 12t52.5 33t41 49t24 60l51 241 q7 32 1.5 60.5t-20.5 49.5t-38.5 33.5t-53.5 12.5h-141z" />
<glyph unicode="Q" horiz-adv-x="926" d="M63 -137q108 130 232 164q-60 52 -82 133q-12 43 -12 89q0 42 10 87l164 768q30 153 155 260q123 111 267 111q72 0 124.5 -27t92.5 -84q40 -54 51 -118q5 -27 5 -57q0 -40 -9 -85l-164 -768q-28 -136 -139 -244q-42 -43 -88 -70t-97 -42q33 -27 74 -27q35 0 74 21t74 63 l61 -49l-2 -29q-69 -85 -148.5 -124.5t-170.5 -39.5q-48 0 -91.5 16.5t-85.5 47.5q-38 26 -75 26q-76 0 -148 -86zM388 171.5q6 -27.5 21 -48.5t38.5 -33t52.5 -12t57.5 12t52 33t40.5 48.5t24 59.5l207 979q7 31 2 59t-19.5 49t-37.5 33.5t-52 12.5q-30 0 -59 -12.5 t-53 -33.5t-41.5 -49t-24.5 -59l-207 -979q-7 -32 -1 -59.5z" />
<glyph unicode="R" horiz-adv-x="999" d="M100 0l23 111h65l258 1212h-65l25 111h393q143 0 219 -109q38 -57 51 -121q6 -30 6 -62q0 -37 -8 -77l-8 -35q-11 -50 -33 -96.5t-53.5 -86t-71.5 -71.5t-86 -53q39 -21 68 -54t45.5 -75t20.5 -90q1 -13 1 -27q0 -36 -8 -74l-31 -139q-6 -32 1 -59.5t24.5 -48.5t44.5 -33 t61 -12l-18 -91l-25 -20q-140 0 -219 109q-38 55 -51 119q-6 28 -6 59q0 39 10 82l29 139q7 31 1.5 59t-21 49t-39 33.5t-52.5 12.5h-143l-117 -551h64l-23 -111h-332zM532 772h127q29 0 58 12t53 33t41.5 49t24.5 60l51 241q7 32 1.5 60.5t-21 49.5t-39 33.5t-52.5 12.5 h-127z" />
<glyph unicode="S" d="M139 0l76 354h102q-8 -40 -8 -74q0 -20 3 -38q7 -50 36 -90h-2q25 -38 63.5 -56t86.5 -18q38 0 76.5 11.5t78.5 39.5q34 26 58 58.5t32 72.5q7 29 2 56t-20 49l-311 483q-47 74 -47 164q0 41 10 86q15 78 54 141.5t99 120.5q125 110 267 110q69 0 123.5 -25t89.5 -79 l14 70h102l-73 -355h-105q8 39 8 74q0 74 -36 127q-28 38 -63.5 57t-86.5 19q-38 0 -76 -11.5t-76 -37.5q-38 -28 -60.5 -60.5t-33.5 -72.5q-3 -16 -3 -31q0 -41 22 -74l313 -483q45 -72 45 -168q0 -40 -8 -84q-17 -75 -55 -139t-101 -121q-126 -111 -262 -111 q-144 0 -217 103l-14 -68h-103z" />
<glyph unicode="T" horiz-adv-x="840" d="M276 0l23 111h66l258 1212h-140l-14 -70h-104l38 181h680l-36 -181h-103l14 70h-137l-258 -1212h62l-23 -111h-326z" />
<glyph unicode="U" horiz-adv-x="977" d="M230 194q-4 24 -4 49q0 44 10 93l210 987h-65l25 113h329l-24 -113h-64l-233 -1094q-7 -31 -1.5 -58.5t20.5 -48t38.5 -32.5t52.5 -12t57.5 12t52 32.5t40.5 48t24 58.5l234 1094h-66l25 113h332l-25 -113h-63l-211 -987q-32 -154 -158 -262q-124 -109 -264 -109 q-143 0 -221 109q-41 56 -51 120z" />
<glyph unicode="V" horiz-adv-x="1083" d="M340 1323l25 111h372l-24 -111h-74l39 -979l452 979h-73l24 111h287l-22 -111h-105l-612 -1323h-150l-51 1323h-88z" />
<glyph unicode="W" horiz-adv-x="1620" d="M340 1323l25 111h376l-22 -111h-74l41 -979l281 604l-15 375h-88l23 111h379l-25 -111h-74l43 -979l455 979h-74l23 111h291l-23 -111h-106l-617 -1323h-151l-29 729l-342 -729h-152l-55 1323h-90z" />
<glyph unicode="X" horiz-adv-x="977" d="M100 0l23 111h72l356 596l-98 616h-72l25 111h346l-25 -111h-55l73 -451l265 451h-56l25 111h244l-25 -111h-72l-358 -592l100 -620h72l-22 -111h-349l25 111h55l-71 454l-269 -454h58l-23 -111h-244z" />
<glyph unicode="Y" horiz-adv-x="897" d="M303 0l23 111h65l123 583l-102 629h-72l25 111h346l-23 -111h-57l74 -451l264 451h-56l25 111h244l-25 -111h-72l-364 -602l-129 -610h63l-22 -111h-330z" />
<glyph unicode="Z" d="M139 0l25 111h67l592 1212h-301l-14 -70h-100l36 181h680l-22 -111h-72l-592 -1212h301l15 69h104l-37 -180h-682z" />
<glyph unicode="[" horiz-adv-x="496" d="M92 -174l344 1614h273l-27 -115h-145l-295 -1388h147l-24 -111h-273z" />
<glyph unicode="\" horiz-adv-x="827" d="M379 1352l135 51l238 -1493l-134 -51z" />
<glyph unicode="]" horiz-adv-x="496" d="M92 -174l25 111h147l295 1388h-149l26 115h273l-344 -1614h-273z" />
<glyph unicode="^" horiz-adv-x="801" d="M279 690l352 592h121l100 -592l-135 -51l-72 426l-252 -426z" />
<glyph unicode="_" horiz-adv-x="807" d="M0 0v106h807v-106h-807z" />
<glyph unicode="`" horiz-adv-x="455" d="M371 1231h131l73 -215h-94z" />
<glyph unicode="a" horiz-adv-x="950" d="M206 192q-5 28 -6 59q0 39 9 81l16 69q34 151 156 256q63 57 127.5 83t136.5 26q78 0 133 -49l29 133q6 31 0.5 58.5t-21 48t-39 32.5t-53.5 12q-49 0 -95.5 -18t-88.5 -55q-43 -35 -71 -87.5t-42 -115.5h-104l76 352h104l-14 -67q118 102 260 102q139 0 217 -108 q55 -76 55 -172q0 -42 -10 -87l-133 -634h63l-22 -111h-217l14 63q-45 -45 -99.5 -71.5t-111.5 -26.5q-141 0 -217 109q-40 54 -52 118zM387.5 168.5q5.5 -27.5 20.5 -48t38 -32.5t52 -12q30 0 58.5 12t52.5 32.5t41 48t24 58.5l59 277q7 31 1.5 59t-20.5 48t-38.5 32 t-52.5 12t-57.5 -12t-52.5 -32t-41 -48t-23 -59l-60 -277q-7 -31 -1.5 -58.5z" />
<glyph unicode="b" horiz-adv-x="950" d="M98 0l23 111h65l273 1284h-66l27 112h264l-92 -434q35 26 74 38.5t77 12.5q72 0 125 -28.5t95 -83.5q38 -58 49 -120q5 -26 5 -55q0 -40 -9 -85l-88 -416q-17 -78 -55 -140.5t-101 -119.5q-126 -111 -266 -111q-57 0 -101 26.5t-67 71.5l-13 -63h-219zM410.5 170.5 q5.5 -27.5 20.5 -48t38.5 -32.5t52.5 -12t57.5 12t52.5 32.5t41 48t23 58.5l135 629q7 31 1.5 58.5t-20.5 48.5t-38.5 33t-52.5 12t-57.5 -12t-52 -33t-40.5 -48.5t-24 -58.5l-135 -629q-7 -31 -1.5 -58.5z" />
<glyph unicode="c" d="M209 332l88 413q33 150 154 259q66 54 130 81t136 27q69 0 124.5 -25.5t90.5 -76.5l14 67h105l-76 -352h-105q10 44 10 83q0 16 -2 32q-6 52 -32 88q-55 73 -152 73q-29 0 -57.5 -12t-52.5 -32.5t-41 -48t-23 -58.5l-133 -623q-7 -31 -1.5 -58.5t20.5 -48t38 -32.5 t52 -12q49 0 95 19t89 55q85 74 113 202h102l-74 -352h-104l14 68q-57 -51 -123 -77t-135 -26q-139 0 -219 107q-54 77 -54 176q0 40 9 84z" />
<glyph unicode="d" horiz-adv-x="950" d="M206 194q-4 26 -5 53q0 42 10 89l88 416q17 78 55 140.5t101 119.5q63 55 128.5 83.5t137.5 28.5q38 0 72 -13t59 -38l70 322h-66l25 112h264l-297 -1396h63l-22 -111h-217l12 63q-43 -45 -97.5 -71.5t-111.5 -26.5q-72 0 -126.5 26t-92.5 83q-40 56 -50 120z M387.5 170.5q5.5 -27.5 20.5 -48t38 -32.5t52 -12q30 0 58.5 12t52.5 32.5t41 48t24 58.5l135 629q6 31 0.5 58.5t-21 48.5t-39 33t-53.5 12q-28 0 -56 -12t-52 -33t-41.5 -48.5t-24.5 -58.5l-133 -629q-7 -31 -1.5 -58.5z" />
<glyph unicode="e" d="M206 192q-5 28 -6 59q0 39 9 81l88 413q33 150 154 259q66 54 130 81t136 27q137 0 215 -108q40 -54 51 -118q5 -27 5 -57q0 -40 -9 -84l-41 -194h-483l-68 -324q-7 -31 -1.5 -58.5t20.5 -48t38 -32.5t52 -12q49 0 95 19t89 55q85 74 113 202h102l-74 -352h-104l14 68 q-57 -51 -123 -77t-135 -26q-141 0 -217 109q-38 54 -50 118zM479 664h285l39 186q7 31 1.5 58.5t-20.5 48t-38.5 32.5t-51.5 12q-29 0 -57.5 -12t-52.5 -32.5t-41 -48t-23 -58.5z" />
<glyph unicode="f" horiz-adv-x="563" d="M96 0l25 111h59l119 553h-61l24 110h60l86 397q28 147 151 261q121 108 275 108l-25 -110q-32 0 -62.5 -12.5t-56 -33.5t-43.5 -49t-24 -59l-107 -502h154l-23 -110h-153l-119 -553h61l-24 -111h-316z" />
<glyph unicode="g" horiz-adv-x="950" d="M208 196q-6 27 -6 57q0 39 9 83l88 416q17 75 56 139t102 121q63 55 127.5 82.5t136.5 27.5q57 0 101 -26.5t67 -71.5l14 63h217l-24 -112h-64l-211 -989q-33 -153 -157 -260q-124 -109 -283 -109l25 111q33 0 65 12t58.5 33t45 48.5t25.5 59.5l29 133q-74 -49 -154 -49 q-141 0 -217 111q-38 57 -50 120zM387.5 170.5q5.5 -27.5 20.5 -48t38 -32.5t52 -12q30 0 58.5 12t52.5 32.5t41 48t24 58.5l135 627q6 31 0.5 59t-21 49t-39 33.5t-53.5 12.5q-28 0 -56 -12.5t-52 -33.5t-41.5 -49t-24.5 -59l-133 -627q-7 -31 -1.5 -58.5z" />
<glyph unicode="h" horiz-adv-x="977" d="M100 0l23 111h65l273 1284h-66l27 110h330l-27 -110h-63l-68 -322q70 49 154 49q138 0 219 -110q54 -80 54 -177q0 -40 -9 -83l-135 -641h63l-22 -111h-332l22 111h66l160 745q7 31 1.5 59t-21 49t-39 33.5t-52.5 12.5t-57.5 -12.5t-52.5 -33.5t-41 -49t-23 -59 l-160 -745h64l-23 -111h-330z" />
<glyph unicode="i" horiz-adv-x="459" d="M92 0l25 111h61l184 864h-61l23 110h247l-206 -974h57l-23 -111h-307zM404 1270q-4 26 2 55q6 31 21 57t36 45t46 30t50 11q26 0 46.5 -11t32.5 -30t16 -45t-3 -57q-5 -29 -20 -55t-36 -45t-46.5 -30t-50.5 -11q-26 0 -45.5 11t-32 30t-16.5 45z" />
<glyph unicode="j" horiz-adv-x="471" d="M-80 -385l27 113q31 0 61.5 12t56 33t43.5 48.5t25 59.5l232 1100h-60l25 113h315l-24 -113h-62l-211 -995q-17 -78 -54.5 -141.5t-100.5 -118.5q-60 -57 -127.5 -84t-145.5 -27zM408.5 1278q-4.5 26 1.5 57q7 30 22.5 56t36.5 45.5t46 31t52 11.5q26 0 47 -11.5 t34.5 -31t18.5 -45.5t-1 -56q-6 -31 -22 -57t-37.5 -45t-47.5 -30t-51 -11q-27 0 -48 11t-34 30t-17.5 45z" />
<glyph unicode="k" horiz-adv-x="977" d="M100 0l23 111h65l258 1212h-65l25 111h329l-24 -111h-64l-174 -821l449 473h-39l24 110h242l-25 -110h-75l-289 -303l108 -561h72l-22 -111h-338l22 111h51l-69 376l-148 -155l-47 -221h64l-23 -111h-330z" />
<glyph unicode="l" horiz-adv-x="459" d="M92 0l25 111h61l273 1284h-62l25 110h248l-297 -1394h57l-23 -111h-307z" />
<glyph unicode="m" horiz-adv-x="1491" d="M102 0l23 111h65l183 856h-66l25 110h219l-14 -65q45 46 101 72t116 26q160 0 221 -129q114 129 274 129q72 0 127 -26t97 -83q57 -77 57 -177q0 -38 -8 -79l-136 -634h68l-24 -111h-336l22 111h66l157 739q6 31 0.5 58t-20.5 47t-39 32t-55 12q-29 0 -57.5 -12 t-52.5 -32t-41 -47t-23 -58l-158 -739h63l-22 -111h-338l25 111h65l158 739q7 31 1 58t-21.5 47t-39.5 32t-53 12q-30 0 -59 -12t-53 -32t-41.5 -47t-24.5 -58l-158 -739h66l-25 -111h-334z" />
<glyph unicode="n" horiz-adv-x="977" d="M100 0l23 111h65l183 856h-64l23 110h217l-15 -65q45 46 100 72t113 26q141 0 220 -109q38 -54 50 -117q5 -26 5 -54q0 -40 -10 -85l-133 -634h63l-22 -111h-332l22 111h66l157 739q7 31 1.5 58t-20 47t-37.5 32t-52 12q-30 0 -58.5 -12t-52.5 -32t-41 -47t-24 -58 l-158 -739h64l-23 -111h-330z" />
<glyph unicode="o" d="M209 332l88 413q33 150 154 259q66 54 130 81t136 27q137 0 215 -108q40 -54 51 -118q5 -27 5 -57q0 -40 -9 -84l-88 -413q-35 -152 -156 -260q-125 -107 -262 -107q-139 0 -219 107q-54 77 -54 176q0 40 9 84zM385.5 168.5q5.5 -27.5 20.5 -48t38 -32.5t52 -12 q28 0 56.5 12t52 32.5t41 48t24.5 58.5l133 623q7 31 1.5 58.5t-20.5 48t-38.5 32.5t-51.5 12q-29 0 -57.5 -12t-52.5 -32.5t-41 -48t-23 -58.5l-133 -623q-7 -31 -1.5 -58.5z" />
<glyph unicode="p" horiz-adv-x="950" d="M25 -348l24 110h64l258 1213h-64l23 110h219l-14 -63q42 45 96.5 72.5t111.5 27.5q72 0 125 -28.5t95 -83.5q54 -76 54 -175q0 -40 -9 -83l-88 -416q-34 -154 -156 -262q-124 -109 -266 -109q-79 0 -131 49l-54 -252h66l-25 -110h-329zM410.5 170.5q5.5 -27.5 20.5 -48 t38.5 -32.5t52.5 -12t57.5 12t52.5 32.5t41 48t23 58.5l135 627q7 31 1.5 59t-20.5 49t-38.5 33.5t-52.5 12.5t-57.5 -12.5t-52 -33.5t-40.5 -49t-24 -59l-135 -627q-7 -31 -1.5 -58.5z" />
<glyph unicode="q" horiz-adv-x="950" d="M208 196q-6 27 -6 57q0 39 9 83l88 416q17 75 56 139.5t102 118.5q63 55 127.5 83.5t136.5 28.5q57 0 100 -27.5t68 -72.5l14 63h217l-24 -110h-64l-258 -1213h64l-23 -110h-264l78 362q-74 -49 -154 -49q-141 0 -217 111q-38 57 -50 120zM387.5 170.5 q5.5 -27.5 20.5 -48t38 -32.5t52 -12q30 0 58.5 12t52.5 32.5t41 48t24 58.5l135 627q6 31 0.5 59t-21 49t-39 33.5t-53.5 12.5q-28 0 -56 -12.5t-52 -33.5t-41.5 -49t-24.5 -59l-133 -627q-7 -31 -1.5 -58.5z" />
<glyph unicode="r" horiz-adv-x="807" d="M98 0l23 111h65l183 856h-64l23 110h198l-14 -67q91 100 225 100q42 0 73.5 -11t57.5 -36l4 14h103l-53 -250h-103q4 22 4 42q1 13 -1 25q-4 32 -18.5 55.5t-37 36.5t-51.5 13t-57 -12t-52 -32t-41 -47t-24 -58l-158 -739h68l-25 -111h-328z" />
<glyph unicode="s" d="M139 0l76 352h102q-8 -40 -8 -74q0 -20 3 -38q7 -50 36 -90h-2q25 -36 63.5 -55t86.5 -19q81 0 151 43h-2q74 42 92 121q3 16 3 30q0 78 -99 123q-60 28 -124 55.5t-124 53.5q-66 42 -87 107q-11 35 -11 77q0 36 8 76q32 154 152 252q63 49 126.5 73.5t135.5 24.5 q69 0 124.5 -25.5t90.5 -76.5l14 67h105l-76 -352h-105q9 42 9 78q-1 17 -3 35q-6 50 -34 88q-51 75 -148 75q-83 0 -151 -40h2q-38 -22 -61.5 -53.5t-32.5 -69.5q-3 -14 -2 -27q0 -81 100 -127q60 -28 123 -56t123 -53q66 -41 87 -105q11 -34 11 -77q0 -36 -8 -78 q-14 -75 -53 -138t-99 -114q-125 -98 -260 -98q-144 0 -217 103l-14 -68h-103z" />
<glyph unicode="t" horiz-adv-x="563" d="M222 196q-4 24 -4 49q0 42 11 91l136 639h-60l23 110h61l49 238h-59l22 113h316l-23 -113h-61l-51 -238h154l-23 -110h-154l-160 -746q-7 -31 -0.5 -58.5t23 -48t42.5 -32.5t58 -12l-20 -92l-23 -21q-69 0 -119.5 27t-89.5 84q-38 58 -48 120z" />
<glyph unicode="u" horiz-adv-x="977" d="M236 332l135 635h-64l23 110h264l-180 -850q-7 -31 -1.5 -58.5t20.5 -48t38.5 -32.5t52.5 -12t57.5 12t52 32.5t40.5 48t24 58.5l158 740h-63l22 110h266l-204 -966h63l-22 -111h-220l13 63q-45 -45 -99.5 -71.5t-109.5 -26.5q-140 0 -219 109q-57 77 -57 174q0 40 10 84 z" />
<glyph unicode="v" horiz-adv-x="1026" d="M264 965l25 110h373l-25 -110h-74l70 -701l362 701h-71l24 110h287l-25 -110h-104l-504 -965h-156l-94 965h-88z" />
<glyph unicode="w" horiz-adv-x="1536" d="M264 965l25 110h377l-25 -110h-74l74 -703l233 449l-24 254h-90l24 110h379l-24 -110h-74l72 -701l366 701h-76l27 110h291l-25 -110h-108l-506 -965h-158l-53 537l-285 -537h-157l-99 965h-90z" />
<glyph unicode="x" horiz-adv-x="977" d="M100 0l23 111h74l311 417l-131 437h-72l25 110h352l-25 -110h-49l92 -308l230 308h-51l24 110h244l-25 -110h-75l-310 -418l129 -436h74l-22 -111h-369l22 111h66l-92 307l-232 -307h54l-23 -111h-244z" />
<glyph unicode="y" horiz-adv-x="950" d="M230 196q-4 25 -4 52q0 41 10 88l135 639h-64l23 110h264l-182 -856q-7 -31 -1.5 -58.5t20.5 -48t38.5 -32.5t52.5 -12t57.5 12t52.5 32.5t41 48t23 58.5l160 746h-63l22 110h264l-235 -1099q-32 -152 -156 -260q-63 -54 -131 -81.5t-149 -27.5l22 111q33 0 65 12 t58.5 33t45 48.5t24.5 59.5l28 133q-71 -49 -153 -49q-138 0 -217 111q-39 57 -51 120z" />
<glyph unicode="z" d="M139 0l25 111h69l504 854h-291l-14 -70h-102l39 180h682l-27 -110h-72l-501 -854h288l15 67h104l-37 -178h-682z" />
<glyph unicode="{" horiz-adv-x="748" d="M260 578l25 110q31 0 62 12t56.5 33t44 49t25.5 60l55 262q34 151 154 262q63 57 131.5 83t149.5 26l-25 -111q-32 0 -63 -12.5t-57 -33.5t-44.5 -49t-25.5 -59l-56 -262q-20 -100 -80.5 -183t-146.5 -132q63 -52 88.5 -135t5.5 -181l-55 -262q-7 -32 -1 -59.5 t22.5 -48.5t42.5 -33t59 -12l-19 -90l-24 -21q-69 0 -122 26t-91 83q-74 111 -43 262l55 260q7 32 0.5 60.5t-23.5 49.5t-43 33.5t-57 12.5z" />
<glyph unicode="|" horiz-adv-x="293" d="M74 -174l344 1614h102l-344 -1614h-102z" />
<glyph unicode="}" horiz-adv-x="748" d="M92 -209l25 111q31 0 62.5 12t57.5 33t44.5 48.5t25.5 59.5l55 262q10 49 30.5 94.5t50 86t66.5 75t79 60.5q-32 24 -54.5 57.5t-34.5 74.5t-13.5 87.5t8.5 95.5l57 262q6 31 -0.5 59t-23.5 49t-42.5 33.5t-56.5 12.5l23 111q156 0 231 -109q37 -57 48.5 -120.5 t-5.5 -141.5l-55 -262q-7 -32 -0.5 -60t23.5 -49t43.5 -33t58.5 -12l-19 -92l-24 -18q-29 0 -56.5 -12.5t-51 -33.5t-40.5 -49.5t-24 -60.5l-56 -260q-15 -78 -54 -142.5t-99 -119.5q-124 -109 -279 -109z" />
<glyph unicode="~" horiz-adv-x="1053" d="M463 1290.5q0 22.5 75 84t143.5 61.5t187 -44t175 -44t97.5 22.5t64.5 44t27.5 21.5q16 0 16 -19q0 -6 -2 -8q-114 -162 -227 -162q-68 0 -186.5 44t-184.5 44q-114 0 -153 -59q-6 -8 -15 -8q-18 0 -18 22.5z" />
<glyph unicode="&#xa1;" horiz-adv-x="672" />
<glyph unicode="&#xa2;" horiz-adv-x="1139" />
<glyph unicode="&#xa3;" horiz-adv-x="1139" d="M27 145q96 54 162.5 152t66.5 240q0 61 -16 125h-197v147h156q-33 113 -42.5 164t-9.5 100q0 207 154 326q125 92 299 92q182 0 300 -99.5t144 -279.5l-180 -27q-14 119 -89 188.5t-177 69.5q-113 0 -185.5 -71.5t-72.5 -171.5q0 -113 55 -291h316v-147h-285 q20 -46 20 -89q0 -88 -42 -184t-136 -199q78 23 144 23q84 0 186 -25q172 -41 233 -41q74 0 193 56l57 -164q-92 -39 -142 -51.5t-99 -12.5q-43 0 -86 9q-27 4 -129.5 35.5t-132.5 37.5q-48 9 -95 9q-71 0 -152 -26t-149 -69z" />
<glyph unicode="&#xa4;" horiz-adv-x="1014" d="M122 413l118 117q-32 46 -48 103q-12 42 -12 84q0 44 13 87q16 55 47 99l-118 118l80 81l118 -118q44 30 99 46q44 14 89 14q41 0 83 -12q57 -17 102 -48l118 118l80 -81l-117 -117q31 -46 48 -102q12 -42 12 -85q0 -42 -12 -85q-17 -56 -48 -102l117 -117l-80 -81 l-118 118q-45 -32 -101 -48q-42 -12 -85 -12q-42 0 -85 12q-57 16 -102 48l-118 -118zM284 716q0 -28 9 -56q16 -59 57 -100q41 -40 99 -57q29 -8 58 -8t58 8q58 17 99 57q40 41 57 99q9 29 9 58t-9 58q-17 58 -57 99q-41 40 -100 57q-29 8 -58 8t-58 -9q-58 -17 -98 -56 q-39 -40 -56 -98q-10 -30 -10 -60z" />
<glyph unicode="&#xa5;" horiz-adv-x="1014" d="M-22 1384v50h435v-50h-84q-57 0 -57 -53q0 -42 36 -118l219 -453l226 453q37 82 37 124q0 47 -44 47h-85v50h376v-50h-33q-90 0 -170 -171l-230 -469h230v-60h-256v-60h256v-60h-256v-279q0 -235 88 -235h85v-50h-486v50h83q90 0 90 235v279h-254v60h254v58l-1 2h-253v60 h222l-240 468q-79 172 -155 172h-33z" />
<glyph unicode="&#xa6;" horiz-adv-x="1014" d="M427 371h160v-789h-160v789zM427 789v789h160v-789h-160z" />
<glyph unicode="&#xa7;" horiz-adv-x="1014" d="M170 1130q0 148 89 237q82 79 216 86q8 1 17 1h3q66 0 163 -16.5t97 -41.5v-194h-51q-5 81 -80 132q-70 47 -149 51h-15q-78 0 -125 -44.5t-47 -117.5q0 -132 287 -269q149 -67 204.5 -143.5t55.5 -187.5q0 -171 -101 -282q-47 -39 -99 -64q108 -56 154 -118 q55 -77 55 -187q0 -171 -101 -283q-124 -102 -277 -105v1q-6 -1 -13 -1h-3q-66 0 -163 16.5t-97 41.5v194h51q5 -81 80 -132q68 -45 145 -50q113 6 185 69q72 64 72 165q0 125 -316 276q-123 64 -175.5 137t-52.5 177q0 148 89 237q67 65 170 82l-40 19q-123 64 -175.5 137 t-52.5 177zM297 571q0 -123 248 -250q56 16 97 53q73 65 73 166q0 5 -1 10h-2q-1 14 -4 27q-22 61 -113 127q-59 29 -126 29q-78 0 -125 -44.5t-47 -117.5z" />
<glyph unicode="&#xa8;" horiz-adv-x="1024" d="M209 1263q0 13 14 26l71 72q13 12 25 12q11 0 27 -14l69 -73q10 -14 10 -25q0 -13 -12 -27l-69 -75q-17 -17 -25 -17q-14 0 -25 12l-76 86q-9 12 -9 23zM574 1263q0 13 14 26l71 72q13 12 25 12q11 0 27 -13l69 -74q10 -14 10 -25q0 -13 -12 -26l-69 -76q-17 -17 -25 -17 q-14 0 -25 12l-76 87q-9 11 -9 22z" />
<glyph unicode="&#xa9;" horiz-adv-x="1674" d="M100 719q0 305 216 521t521 216t521 -216t216 -521t-216 -521t-521 -216t-521 216t-216 521zM160 719q0 -280 198.5 -478.5t478.5 -198.5t478.5 198.5t198.5 478.5t-198.5 478.5t-478.5 198.5t-478.5 -198.5t-198.5 -478.5zM351 719q0 126 65.5 244t187.5 184.5t254 66.5 q38 0 75 -6.5t76 -20.5q5 -1 9 -1q19 0 26 30h42l72 -198h-44q-52 94 -131 124q-72 26 -147 26h-15q-86 -8 -166.5 -71t-121.5 -177q-33 -90 -33 -184q0 -25 2 -50q11 -121 69.5 -224t149.5 -152q72 -40 166 -42q124 0 194 56t70 126h53v-100q0 -46 -96.5 -86.5 t-242.5 -40.5q-142 0 -264 68t-186 185t-64 243z" />
<glyph unicode="&#xaa;" horiz-adv-x="648" />
<glyph unicode="&#xab;" horiz-adv-x="944" d="M174 479l342 303h14v-37l-205 -266l205 -266v-37h-14zM487 479l342 303h14v-37l-205 -266l205 -266v-37h-14z" />
<glyph unicode="&#xac;" horiz-adv-x="1014" d="M87 667v100h840v-491l-1 -1h-98v392h-741z" />
<glyph unicode="&#xad;" horiz-adv-x="748" d="M211 346l25 107h509l-22 -107h-512z" />
<glyph unicode="&#xae;" horiz-adv-x="1674" d="M100 719q0 305 216 521t521 216t521 -216t216 -521t-216 -521t-521 -216t-521 216t-216 521zM160 719q0 -280 198.5 -478.5t478.5 -198.5t478.5 198.5t198.5 478.5t-198.5 478.5t-478.5 198.5t-478.5 -198.5t-198.5 -478.5zM524 269v50h43q37 0 37 121v538q0 121 -37 121 h-43v70h356q104 -1 177 -90t73 -218q0 -158 -146 -285l82 -116q100 -141 150 -141h34v-50h-346v50h45q30 0 30 22q0 29 -69 114l-75 102q-42 0 -84 42v-159q0 -121 36 -121h53v-50h-316zM751 725q1 -54 39.5 -82.5t81.5 -28.5q41 4 81 80t40 159q-5 104 -46.5 175t-102.5 71 h-93v-374z" />
<glyph unicode="&#xaf;" horiz-adv-x="1024" d="M254 1195v125h516v-125h-516z" />
<glyph unicode="&#xb0;" horiz-adv-x="674" d="M60 1164q0 116 81.5 197t197.5 81q115 0 196 -81.5t81 -196.5q0 -114 -82 -196t-197 -82q-117 0 -197 81t-80 197zM130 1163q0 -87 61 -147t148 -60t147 60t60 147t-60.5 148t-146.5 61t-147.5 -61t-61.5 -148z" />
<glyph unicode="&#xb1;" horiz-adv-x="1479" d="M87 0v140h839l1 -1v-139h-840zM233 449l31 139h187l43 198h131l-41 -198h190l-31 -139h-190l-41 -199h-133l43 199h-189z" />
<glyph unicode="&#xb2;" horiz-adv-x="1014" />
<glyph unicode="&#xb3;" horiz-adv-x="1014" />
<glyph unicode="&#xb4;" horiz-adv-x="1024" d="M316 1078l291 297q35 35 55.5 47t40.5 12q33 0 53.5 -20t20.5 -51q0 -22 -15.5 -42t-46.5 -40l-330 -203h-69z" />
<glyph unicode="&#xb5;" horiz-adv-x="1180" />
<glyph unicode="&#xb6;" horiz-adv-x="1024" d="M93 1086q0 157 107.5 253t285.5 96h443v-70h-127v-1365h-82v1365h-166v-1365h-84v738q-174 8 -275.5 102.5t-101.5 245.5z" />
<glyph unicode="&#xb7;" horiz-adv-x="508" d="M144 747q0 45 32 77.5t78 32.5q45 0 77.5 -32.5t32.5 -77.5q0 -46 -32.5 -78t-77.5 -32q-46 0 -78 32t-32 78z" />
<glyph unicode="&#xb8;" horiz-adv-x="1024" d="M360 -290q85 -52 152 -52q66 0 94.5 21.5t28.5 66.5t-49 64q-40 16 -102 16q-16 0 -34 -2l48 176h63l-37 -104q32 4 62 5q86 0 134 -40.5t48 -113.5q0 -76 -58.5 -120.5t-160.5 -44.5q-109 0 -189 32v96z" />
<glyph unicode="&#xb9;" horiz-adv-x="1014" />
<glyph unicode="&#xba;" horiz-adv-x="1522" />
<glyph unicode="&#xbb;" horiz-adv-x="944" d="M101 176v37l205 266l-205 266v37h14l342 -303l-342 -303h-14zM414 176v37l205 266l-205 266v37h14l342 -303l-342 -303h-14z" />
<glyph unicode="&#xbc;" horiz-adv-x="1708" />
<glyph unicode="&#xbd;" horiz-adv-x="2370" />
<glyph unicode="&#xbe;" horiz-adv-x="1708" />
<glyph unicode="&#xbf;" horiz-adv-x="748" />
<glyph unicode="&#xc0;" horiz-adv-x="1540" />
<glyph unicode="&#xc1;" horiz-adv-x="1540" />
<glyph unicode="&#xc2;" horiz-adv-x="1540" />
<glyph unicode="&#xc3;" horiz-adv-x="1540" />
<glyph unicode="&#xc4;" horiz-adv-x="1540" />
<glyph unicode="&#xc5;" horiz-adv-x="1540" />
<glyph unicode="&#xc6;" horiz-adv-x="2090" />
<glyph unicode="&#xc7;" horiz-adv-x="1399" />
<glyph unicode="&#xc8;" horiz-adv-x="1151" />
<glyph unicode="&#xc9;" horiz-adv-x="1151" />
<glyph unicode="&#xca;" horiz-adv-x="1151" />
<glyph unicode="&#xcb;" horiz-adv-x="1151" />
<glyph unicode="&#xcc;" horiz-adv-x="657" />
<glyph unicode="&#xcd;" horiz-adv-x="657" />
<glyph unicode="&#xce;" horiz-adv-x="657" />
<glyph unicode="&#xcf;" horiz-adv-x="657" />
<glyph unicode="&#xd0;" horiz-adv-x="1518" />
<glyph unicode="&#xd1;" horiz-adv-x="977" d="M100 0l23 111h65l261 1216h-66l25 113h286l111 -1176l227 1063h-65l24 113h234l-25 -113h-63l-260 -1216h63l-22 -111h-289l-111 1171l-225 -1060h63l-22 -111h-234zM539 1556q63 73 127 107.5t133 34.5q32 0 61 -8t55 -27q55 -31 72 -31q54 0 111 66l49 -41l-2 -31 q-105 -123 -246 -123q-32 0 -61 8t-58 27q-47 33 -69 33q-54 0 -111 -66z" />
<glyph unicode="&#xd2;" horiz-adv-x="1614" />
<glyph unicode="&#xd3;" horiz-adv-x="1614" />
<glyph unicode="&#xd4;" horiz-adv-x="1614" />
<glyph unicode="&#xd5;" horiz-adv-x="1614" />
<glyph unicode="&#xd6;" horiz-adv-x="1614" />
<glyph unicode="&#xd7;" horiz-adv-x="1014" d="M104 390l280 281l-280 280l112 112l280 -280l281 280h1l111 -112l-280 -280l280 -281v-1l-112 -111l-281 280l-280 -280z" />
<glyph unicode="&#xd8;" horiz-adv-x="1614" />
<glyph unicode="&#xd9;" horiz-adv-x="1501" />
<glyph unicode="&#xda;" horiz-adv-x="1501" />
<glyph unicode="&#xdb;" horiz-adv-x="1501" />
<glyph unicode="&#xdc;" horiz-adv-x="1501" />
<glyph unicode="&#xdd;" horiz-adv-x="1233" />
<glyph unicode="&#xde;" horiz-adv-x="1120" />
<glyph unicode="&#xdf;" horiz-adv-x="1251" />
<glyph unicode="&#xe0;" />
<glyph unicode="&#xe1;" />
<glyph unicode="&#xe2;" />
<glyph unicode="&#xe3;" horiz-adv-x="870" d="M0 276v138q0 123 86 209t211 86h176v59q0 49 -24 74q-43 45 -93 45h-178q-37 0 -55 18q-35 33 -35 70q0 59 55 84q17 8 35 8h238q121 0 208 -87t87 -210v-674q0 -76 -72 -106q-23 -10 -48.5 -10t-44 9t-32.5 19q-10 10 -21.5 28.5t-17.5 28t-18 9.5q-13 0 -21 -11 l-16 -16q-68 -67 -158 -67q-106 0 -184 88t-78 208zM49 1307.5q0 25.5 19.5 56.5t44 59.5t53.5 51.5q61 45 135 45q80 0 139 -62l33 -37q8 -8 15.5 -15t15.5 -7q10 0 39 22l61 54q21 16 46.5 16t42 -18.5t16.5 -44t-20.5 -55.5t-45.5 -59.5t-53 -49.5q-62 -45 -127.5 -45 t-106.5 28.5t-61 52.5l-27 29q-6 8 -16 8t-37 -22l-61 -51q-21 -19 -46.5 -19t-42 18.5t-16.5 44zM238 279q0 -52 24 -76q43 -41 81 -41t59.5 6t35.5 20q35 27 35 74v268h-117q-51 0 -75 -24q-43 -43 -43 -94v-133z" />
<glyph unicode="&#xe4;" />
<glyph unicode="&#xe5;" />
<glyph unicode="&#xe6;" horiz-adv-x="1451" />
<glyph unicode="&#xe7;" horiz-adv-x="905" />
<glyph unicode="&#xe8;" horiz-adv-x="909" />
<glyph unicode="&#xe9;" horiz-adv-x="909" />
<glyph unicode="&#xea;" horiz-adv-x="909" />
<glyph unicode="&#xeb;" horiz-adv-x="909" />
<glyph unicode="&#xec;" horiz-adv-x="514" />
<glyph unicode="&#xed;" horiz-adv-x="514" />
<glyph unicode="&#xee;" horiz-adv-x="514" />
<glyph unicode="&#xef;" horiz-adv-x="514" />
<glyph unicode="&#xf0;" horiz-adv-x="1139" />
<glyph unicode="&#xf1;" horiz-adv-x="977" d="M100 0l23 111h65l183 862h-64l25 110h217l-14 -63q43 46 98 72t115 26q69 0 123 -27t96 -81q38 -57 50 -120t-5 -138l-135 -641h63l-22 -111h-332l22 111h66l157 743q7 31 2 59t-20 49t-38 33.5t-52 12.5q-30 0 -58.5 -12.5t-52.5 -33.5t-41 -49t-24 -59l-158 -743h64 l-23 -111h-330zM463 1200q60 72 124 105.5t136 33.5q65 0 117 -32q49 -33 69 -33q57 0 113 65l47 -41l-2 -30q-51 -60 -111.5 -91.5t-132.5 -31.5q-32 0 -61 8.5t-55 28.5q-26 14 -42.5 22t-27.5 8q-29 0 -57.5 -15.5t-57.5 -49.5z" />
<glyph unicode="&#xf2;" horiz-adv-x="1010" />
<glyph unicode="&#xf3;" horiz-adv-x="1010" />
<glyph unicode="&#xf4;" horiz-adv-x="1010" />
<glyph unicode="&#xf5;" horiz-adv-x="1010" />
<glyph unicode="&#xf6;" horiz-adv-x="1010" />
<glyph unicode="&#xf7;" horiz-adv-x="1014" d="M87 647v140h839l1 -1v-139h-840zM402 316q-3 22 3 48q5 26 17 48.5t29.5 39t38 26t42.5 9.5q21 0 38 -9.5t27.5 -26t14 -39t-2.5 -48.5q-5 -26 -17.5 -48t-30 -39t-38.5 -26.5t-43 -9.5q-21 0 -37.5 9.5t-27 26.5t-13.5 39zM540.5 966q-2.5 22 3.5 47q5 25 17.5 47.5 t29.5 39.5t37.5 26.5t42.5 9.5q21 0 37.5 -9.5t27 -26.5t13.5 -39.5t-2 -47.5q-6 -25 -19 -47t-30 -38.5t-37.5 -26t-42.5 -9.5t-38.5 9.5t-26.5 26t-12.5 38.5z" />
<glyph unicode="&#xf8;" horiz-adv-x="1010" />
<glyph unicode="&#xf9;" horiz-adv-x="1059" />
<glyph unicode="&#xfa;" horiz-adv-x="1059" />
<glyph unicode="&#xfb;" horiz-adv-x="1059" />
<glyph unicode="&#xfc;" horiz-adv-x="1059" />
<glyph unicode="&#xfd;" horiz-adv-x="868" />
<glyph unicode="&#xfe;" horiz-adv-x="1010" />
<glyph unicode="&#xff;" horiz-adv-x="868" />
<glyph unicode="&#x100;" horiz-adv-x="1083" d="M59 0l23 111h104l613 1323h151l47 -1323h90l-22 -111h-373l23 111h73l-10 237h-370l-111 -237h74l-23 -111h-289zM457 459h317l-22 631zM616 1569v120h502v-120h-502z" />
<glyph unicode="&#x101;" horiz-adv-x="950" d="M205.5 192.5q-12.5 63.5 3.5 139.5l16 69q34 151 156 256q63 57 127.5 83t136.5 26q78 0 133 -49l29 133q6 31 0.5 58.5t-21 48t-39 32.5t-53.5 12q-49 0 -95.5 -18t-88.5 -55q-43 -35 -71 -87.5t-42 -115.5h-104l76 352h104l-14 -67q118 102 260 102q139 0 217 -108 q79 -108 45 -259l-133 -634h63l-22 -111h-217l14 63q-45 -45 -99.5 -71.5t-111.5 -26.5q-141 0 -217 109q-40 55 -52.5 118.5zM387.5 168.5q5.5 -27.5 20.5 -48t38 -32.5t52 -12q30 0 58.5 12t52.5 32.5t41 48t24 58.5l59 277q7 31 1.5 59t-20.5 48t-38.5 32t-52.5 12 t-57.5 -12t-52.5 -32t-41 -48t-23 -59l-60 -277q-7 -31 -1.5 -58.5zM555 1241v120h502v-120h-502z" />
<glyph unicode="&#x12a;" horiz-adv-x="459" d="M92 0l25 111h61l258 1212h-61l22 111h308l-25 -111h-57l-258 -1212h57l-23 -111h-307zM342 1569v120h502v-120h-502z" />
<glyph unicode="&#x12b;" horiz-adv-x="459" d="M92 0l25 111h61l184 864h-61l23 110h247l-206 -974h57l-23 -111h-307zM280 1227v120h502v-120h-502z" />
<glyph unicode="&#x131;" horiz-adv-x="514" d="M19 732v44q222 69 261 182h48v-735q0 -173 100 -173h46v-50h-442v50h46q100 0 100 173v432q0 77 -111 77h-48z" />
<glyph unicode="&#x16a;" horiz-adv-x="977" d="M229.5 193.5q-9.5 64.5 6.5 142.5l210 987h-65l25 113h329l-24 -113h-64l-233 -1094q-7 -31 -1.5 -58.5t20.5 -48t38.5 -32.5t52.5 -12t57.5 12t52 32.5t40.5 48t24 58.5l234 1094h-66l25 113h332l-25 -113h-63l-211 -987q-32 -154 -158 -262q-124 -109 -264 -109 q-143 0 -221 109q-42 55 -51.5 119.5zM616 1569v120h502v-120h-502z" />
<glyph unicode="&#x16b;" horiz-adv-x="977" d="M236 332l135 635h-64l23 110h264l-180 -850q-7 -31 -1.5 -58.5t20.5 -48t38.5 -32.5t52.5 -12t57.5 12t52 32.5t40.5 48t24 58.5l158 740h-63l22 110h266l-204 -966h63l-22 -111h-220l13 63q-45 -45 -99.5 -71.5t-109.5 -26.5q-140 0 -219 109q-81 110 -47 258zM534 1206 v120h502v-120h-502z" />
<glyph unicode="&#x300;" horiz-adv-x="0" d="M-486 1365q0 31 20.5 51t53.5 20q20 0 40.5 -12t55.5 -47l291 -297h-69l-330 203q-31 20 -46.5 40t-15.5 42z" />
<glyph unicode="&#x301;" horiz-adv-x="0" d="M-486 1080l291 297q35 35 55.5 47t40.5 12q33 0 53.5 -20t20.5 -51q0 -22 -15.5 -42t-46.5 -40l-330 -203h-69z" />
<glyph unicode="&#x302;" horiz-adv-x="0" d="M-624 1081l232 355h118l232 -355h-58l-233 216l-233 -216h-58z" />
<glyph unicode="&#x303;" horiz-adv-x="0" d="M-612 1163q19 76 68 133t119 57q56 0 121.5 -28t123.5 -28q60 0 88 56h54q-20 -73 -68.5 -131.5t-130.5 -58.5q-50 0 -114.5 31t-122.5 31q-59 0 -84 -62h-54z" />
<glyph unicode="&#x304;" horiz-adv-x="0" d="M-526 1195v125h516v-125h-516z" />
<glyph unicode="&#x307;" horiz-adv-x="0" d="M-388 1263q0 6 3 12.5t11 13.5l69 72q6 6 13 9t14 3q6 0 12.5 -3t12.5 -9l71 -76q5 -4 7 -10t2 -14q-1 -9 -3 -15t-8 -12l-71 -76q-12 -11 -16 -13.5t-7 -2.5q-10 0 -16.5 2.5t-10.5 8.5l-75 87q-4 4 -6 9.5t-2 13.5z" />
<glyph unicode="&#x308;" horiz-adv-x="0" d="M-603 1263q0 13 14 26l71 72q13 12 25 12q11 0 27 -14l69 -73q10 -14 10 -25q0 -13 -12 -27l-69 -75q-17 -17 -25 -17q-14 0 -25 12l-76 86q-9 12 -9 23zM-238 1263q0 13 14 26l71 72q13 12 25 12q11 0 27 -13l69 -74q10 -14 10 -25q0 -13 -12 -26l-69 -76 q-17 -17 -25 -17q-14 0 -25 12l-76 87q-9 11 -9 22z" />
<glyph unicode="&#x30a;" horiz-adv-x="0" d="M-426 1258q0 75 51 126t125 51q76 0 127.5 -51.5t51.5 -125.5q0 -75 -51.5 -126.5t-127.5 -51.5q-74 0 -125 51.5t-51 126.5zM-350 1258q0 -42 29 -71t71 -29t71 29t29 71q0 40 -29.5 69.5t-70.5 29.5t-70.5 -29.5t-29.5 -69.5z" />
<glyph unicode="&#x30c;" horiz-adv-x="0" d="M-624 1436h58l233 -214l233 214h58l-232 -356h-118z" />
<glyph unicode="&#x327;" horiz-adv-x="0" d="M-471 -290q85 -52 152 -52q66 0 94.5 21.5t28.5 66.5t-49 64q-40 16 -102 16q-16 0 -34 -2l48 176h63l-37 -104q32 4 62 5q86 0 134 -40.5t48 -113.5q0 -76 -58.5 -120.5t-160.5 -44.5q-109 0 -189 32v96z" />
<glyph unicode="&#x1004;" horiz-adv-x="1001" d="M6 225q0 24 5 49q14 60 35 114t39 89v2l17 33l268 563q1 1 16.5 20t50 43t88 43t130.5 19q22 0 50 -4q96 -11 161 -84q44 -52 44 -127q0 -25 -5 -49q-8 -34 -29 -83t-41 -93l-19 -41l-164 1l100 210l1 5q2 0 2 1q15 40 20 95q0 30 -14 55.5t-55 34.5q-28 6 -54 6 q-62 0 -92 -40q-39 -48 -79 -136l-148 -315q-31 -64 -60.5 -124.5t-44.5 -94.5l-65 -138q-8 -22 -14 -40.5t-7 -42.5l-1 -19q0 -30 14.5 -55.5t54.5 -34.5q31 -6 61 -6q59 4 93 52t71 124l30 65q26 55 42 92l173 1l-136 -280q-4 -6 -16 -19q-16 -20 -50.5 -44.5t-88 -43.5 t-129.5 -19q-128 0 -210 87q-44 51 -44 129zM176 212q0 30 16 59l16 33q325 671 339 698q6 14 13.5 27t20.5 30q14 15 31.5 26.5t37.5 11.5h2q-20 -2 -35 -16t-25 -30q-12 -19 -20 -40l-347 -715q-9 -16 -13.5 -23.5t-7.5 -14t-7 -16.5q-11 -26 -11 -65q0 -22 5 -46 q-15 35 -15 81zM366 -15l17 -1q79 0 158 81q39 48 54 80l85 170q17 40 53 110h20l-57 -118q-15 -28 -23 -45t-13 -26q-5 -10 -9.5 -18t-12 -24.5t-25.5 -49.5l-2 -7q-3 -3 -5 -8q-13 -25 -28 -48q-43 -59 -102 -84q-36 -17 -75 -17q-18 0 -35 5zM825 1192q53 -18 95 -61 q33 -34 47 -81q5 -24 5.5 -31.5t1.5 -13.5t1 -19q0 -48 -18 -102q-5 -15 -17.5 -44t-24.5 -59q-19 -41 -27 -60l-25 -7l19 43q25 58 49.5 126t24.5 117v10l-5 26l-1 9q-33 100 -125 147z" />
<glyph unicode="&#x1010;" horiz-adv-x="1446" d="M14 222q0 27 5 53q23 92 57 166l34 74l271 565l16.5 19.5t51.5 44.5t89.5 44.5t131.5 19.5h9q19 -2 39 -5q46 -8 89 -27.5t74 -56.5q17 -21 29 -47q4 -10 6 -21q45 42 103.5 84.5t115.5 58.5q52 13 94 13q64 0 106 -30.5t66 -88.5q11 -32 11 -69q0 -41 -11 -76 q-33 -88 -66 -165l-33 -77l-268 -562l-16 -19.5t-51 -44t-89.5 -44t-131.5 -19.5q-26 0 -54 3q37 12 75.5 37t77.5 75t78 135l165 354q75 149 144 301q25 48 30 99l1 11q0 33 -19.5 60.5t-64.5 37.5h-10q-52 0 -126.5 -70t-116.5 -148l-34 -63q-23 -62 -43.5 -103l-20.5 -41 l-271 -565l-16.5 -19.5t-51 -45t-89 -45t-131.5 -19.5q-23 2 -48 7q-97 11 -163 83q-17 20 -29 48q-15 37 -15 78zM151 177q0 -31 13.5 -56t53.5 -34q33 -6 63 -6q59 4 93 51q18 25 36 56t36 70l86 185q36 78 59 126q2 0 77.5 160.5t96.5 206.5l2 5q16 37 20 75l1 20 q0 31 -13.5 57t-55.5 35q-30 6 -58 6l-21 -1q-42 -7 -68 -40q-39 -50 -80 -136q-44 -97 -85 -185q-78 -160 -169 -354l-1 -2q-39 -84 -64 -136q-17 -39 -21 -85zM203 204v9q0 17 5 35l27 57l328 675q13 26 20.5 44t27.5 40q13 16 30 27.5t37 11.5h5q-41 -8 -62 -46 q-15 -28 -30 -61l-340 -699q-15 -31 -26 -55q-7 -15 -9 -32q-4 -17 -4 -35q0 -22 6 -45q-15 35 -15 74zM428 -17q48 16 93.5 51.5t71.5 82.5l352 734q21 50 59 101t89 85q45 28 95 41q-77 -32 -135 -95t-91 -139l-50 -105q-157 -332 -303 -631q-27 -50 -76 -82t-105 -43z M876 -10q55 4 99 33q37 23 67 54l22 26l18 24q6 12 13 27q125 275 153 333t174 388q25 56 39 114q4 17 4 34v14q0 36 -9 71q-13 51 -52 91q44 -34 65 -87q14 -36 14 -75v-16q0 -17 -4 -36q-15 -62 -41 -116q-128 -302 -302 -667l-25 -56q-6 -14 -14 -28l-17 -26l-24 -28 q-33 -33 -75 -53q-44 -22 -92 -22z" />
<glyph unicode="&#x1011;" horiz-adv-x="1460" d="M1 218q0 26 6 52q21 93 55.5 166.5l34.5 73.5l270 564l16.5 19.5t50.5 44t88 44t130 19.5q58 0 113.5 -19t95.5 -64q13 11 30 22.5t39 22.5t49 19.5t58.5 13.5t68.5 5q63 1 134 -29t106 -107q15 -38 15 -78q0 -26 -5 -52q-22 -93 -56 -166.5l-34 -73.5l-270 -564 l-16.5 -19.5t-51.5 -44.5t-89.5 -44t-130.5 -19q-51 0 -109.5 21t-96.5 62q-13 -11 -30.5 -22.5t-39.5 -22.5t-49 -19.5t-58.5 -13.5t-68.5 -5q-69 0 -138 32.5t-102 102.5q-15 39 -15 79zM137 177q0 -31 13.5 -58t54.5 -36q33 -6 63 -6q53 3 91.5 50.5t73.5 126.5l117 256 l204 430q19 46 19 90q0 31 -13.5 57t-54.5 35q-28 7 -55 7q-41 0 -70 -21t-53 -61t-49 -96q-115 -250 -254 -536q0 -2 -1 -4l-64 -136q-23 -50 -22 -98zM179 201q2 43 20 74l341 699q10 25 18.5 43.5t28.5 40.5q13 16 30.5 28t38.5 12h3q-36 -5 -56 -38.5t-36 -68.5 l-339 -698q-16 -31 -22 -40.5t-14 -45.5q-3 -16 -3 -32q0 -24 6 -48q-16 35 -16 74zM589 177q0 -31 13.5 -58t55.5 -36q32 -6 62 -6q56 4 94.5 54t69.5 123l144 310q2 0 79 162t98 210q21 46 20 94q0 31 -13.5 57t-53.5 35q-30 7 -56 7q-27 0 -51 -9.5t-42 -31.5 q-39 -51 -79 -137l-117 -256l-204 -429q-21 -42 -20 -89zM639 201q2 43 20 74l340 699q11 25 19.5 43.5t28.5 40.5q13 16 30.5 28t38.5 12h3q-36 -5 -56 -38.5t-36 -68.5l-11 -25l-356 -729q-12 -31 -12 -62q0 -24 7 -48q-16 35 -16 74zM815 -20q10 -2 21 -2q43 0 83 24.5 t72 56.5q34 38 54 82q99 194 196 399q55 114 105 230q23 53 43 107.5t20 110.5q0 29 -8 57q-32 101 -125 147q50 -18 88.5 -54t54.5 -89q4 -18 6 -30.5t2 -36.5q0 -51 -18 -99q-68 -184 -152 -352q-97 -206 -196 -398q-31 -69 -89 -113.5t-122 -44.5q-18 0 -35 5z" />
<glyph unicode="&#x1015;" horiz-adv-x="1055" d="M9 209q0 26 5 51q22 94 57 168l35 74l270 567l16.5 19.5t51.5 44t90 44t132 19.5q26 0 54 -3q-56 -16 -114.5 -69t-117.5 -180l-166 -355q-75 -151 -146 -304q-30 -60 -31 -120q0 -31 14 -57t55 -35q30 -6 57 -6q34 0 63.5 14t52.5 50q39 69 88 168.5l49 99.5l1 4 l259 569l9 22.5t31 55.5t62 66t101.5 55.5t149.5 22.5l40 -1l-12.5 -2t-34.5 -13t-50.5 -35.5t-60 -69t-63.5 -113.5l-379 -799l-13 -24.5t-42 -56.5t-75 -57.5t-112 -28.5q-19 -2 -41 -2q-47 0 -100.5 11t-99 41t-70.5 85q-15 39 -15 80zM200 201q2 31 11 52t23 50 q139 290 266 561l45 93q15 32 29.5 63.5t33.5 55.5q60 72 146 81q-93 -26 -147 -116q-24 -45 -45 -92q-145 -302 -312 -654q-16 -35 -27.5 -61t-11.5 -62q-2 -35 23 -54q-20 10 -27 34t-7 49zM409 -30q56 3 107 35.5t70 83.5q24 56 50 108q200 419 375 779q4 8 10 17 q45 88 134 142q37 22 79 22h13h-4q-41 0 -78.5 -23.5t-68 -58.5t-51.5 -73l-17 -34q-161 -337 -376 -778q-24 -51 -53 -107q-23 -53 -78 -83t-108 -30h-4z" />
<glyph unicode="&#x1019;" horiz-adv-x="1004" d="M6 226q0 25 5 49q22 93 57 167l35 73l270 566l16 19t50.5 44t89 44.5t130.5 19.5q27 0 56 -3q-55 -16 -113.5 -68.5t-117.5 -178.5l-166 -355l8.5 2t24 4t35 4t42.5 2q41 0 84 -10.5t75 -39.5q65 150 128.5 284.5l63.5 134.5l8.5 22.5t31 55.5t62.5 66t101.5 55.5 t148.5 22.5l39 -1l-4 -0.5t-11.5 -2.5t-18 -6t-23.5 -11.5t-28 -19.5t-31 -29.5t-33.5 -41t-35 -54t-35.5 -69.5q-95 -203 -236 -499l-141 -296l-13.5 -24.5t-42 -56.5t-75 -57.5t-112.5 -28.5q-19 -2 -41 -2q-46 0 -99.5 11t-98.5 41t-69 86q-16 39 -16 81zM142 179 q0 -30 14 -55.5t55 -35.5q29 -6 57 -6q34 0 63 14t52 50q39 70 87.5 169l48.5 99l1 3q3 13 3 25q0 42 -29.5 73.5t-74.5 35.5h-14q-102 0 -160 -100l-72 -151q-25 -49 -30 -101zM190 214q0 13 3 26q1 9 5 18q44 89 87 178q4 8 9 15q12 21 32 36q21 17 46 17h6 q-27 -7 -44 -27q-13 -17 -24 -35l-9 -15l-86 -175q-4 -8 -5 -16q-5 -21 -7 -42v-13q0 -20 4 -40q-12 25 -16 52q-1 10 -1 21zM400 665l2 7l137 292q21 49 47 98q24 41 62 67q46 34 101 40q-53 -13 -93 -49q-33 -29 -55 -68q-24 -45 -47 -95q-67 -150 -135 -293q-3 -4 -6 -6 t-5 -2q-7 0 -8 9zM404 -15q102 6 159 86q12 16 19 33q26 56 49 108q190 394 357 739q10 26 27 55q24 42 58 81q33 36 75 60q39 23 83 23l10 -1q-49 0 -89 -28q-40 -25 -69 -63q-24 -29 -43 -64q-9 -14 -18 -34q-208 -436 -374 -775l-35 -72q-18 -41 -39 -69q-31 -39 -75 -59 t-90 -20h-5z" />
<glyph unicode="&#x101a;" horiz-adv-x="1524" d="M24 220q0 25 5 50q22 92 57 166l34 73l269 561l16 19.5t50.5 44t88.5 44t130 19.5q27 0 56 -3q-56 -16 -114.5 -68.5t-116.5 -178.5l-165 -353l-144 -300q-29 -59 -30 -116q0 -32 13 -58.5t55 -35.5q30 -6 57 -6q33 0 62 13.5t52 49.5q38 70 87 168l49 98v4l258 563 l9 22.5t31 55.5t61.5 65.5t100.5 55t149 22.5l39 -1l-13 -2.5t-34.5 -13t-50 -35t-59.5 -68.5t-63 -114q-181 -385 -345 -726q12 -35 32 -68.5t49 -56.5t69 -23q77 7 126 65t81 135l332 726l15.5 27.5t46 62.5t76.5 62.5t107 27.5q50 0 111 -25l-12 1q-10 0 -25 -5 t-34.5 -20.5t-43.5 -44t-52 -75t-60 -115.5l-347 -730l-15.5 -26.5t-50.5 -60t-91.5 -60t-137.5 -26.5q-73 3 -133.5 39t-99.5 79q-25 -38 -77.5 -75.5t-136.5 -43.5q-19 -2 -41 -2q-46 0 -99.5 11.5t-98 41t-68.5 84.5q-16 39 -16 80zM215 210q0 39 20 74q162 338 321 676 q23 53 47 95.5t74 73.5q40 24 85 30q-91 -25 -145 -116q-24 -44 -45 -91l-321 -676q-26 -47 -26 -94q-2 -34 22 -54q-20 12 -26 35t-6 47zM676 240l1 4q15 31 28 65q153 320 326 676q32 64 78 110q66 65 137 65l15 -1q-43 -3 -76 -24.5t-63 -51.5q-46 -46 -74 -106 q-150 -301 -326 -676q-16 -34 -34 -64q2 -45 30 -81q-20 17 -28.5 38t-13.5 46zM952 -18q107 33 158 139q175 362 359 734q27 57 54.5 107t67.5 97q16 16 36.5 32.5t41.5 16.5l11 -1h-6q-24 0 -42 -18.5t-30 -38.5q-38 -50 -63 -98t-54 -105q-189 -401 -375 -765 q-63 -84 -158 -100zM1662 1168l8 -4z" />
<glyph unicode="&#x101b;" horiz-adv-x="1172" d="M-84 10l5 0.5t14.5 3t22.5 8.5t28.5 17t33 28t37 41.5t39 58t39.5 76.5q151 323 263.5 557l112.5 234l12.5 24.5t41 56t74.5 56.5t112 28l41 2q49 0 107 -13t104.5 -49t65.5 -103q5 -25 5 -50q0 -27 -5 -53q-22 -92 -57 -165l-34 -72l-637 -1335q-9 -22 -9 -44 q0 -55 49.5 -84t151.5 -39l-22.5 -4t-58.5 -8.5t-77 -4.5q-49 0 -96 10.5t-77.5 38.5t-30.5 81q0 45 29 111q94 207 401 850l307 643q31 58 30 119q0 31 -13.5 56.5t-53.5 33.5q-30 7 -58 7q-33 0 -62 -14t-52 -50q-42 -78 -122.5 -247.5l-80.5 -169.5q-27 -64 -58 -131h11 q14 0 39 -4.5t45.5 -20t20.5 -50.5q0 -32 -26 -84q-24 -47 -54.5 -105t-83 -112.5t-139 -90t-223.5 -35.5h-9q-30 -4 -63 -4zM154 -8q192 19 311 187q34 55 63 115l61 117q13 29 13 58q-3 31 -25.5 50.5t-54.5 24.5l-31 1q0 2 1 4q15 25 25 51q86 183 189 389q23 44 55.5 77 t80.5 33q16 0 32 -4l-14 1q-40 0 -69 -19.5t-49 -52.5q-104 -222 -115.5 -242t-108.5 -220q41 0 70 -26.5t32 -64.5q0 -37 -16 -69l-60 -116q-28 -59 -63 -117q-53 -74 -123 -121q-43 -28 -94 -42t-98 -14h-12zM247 123h3q14 0 46.5 21t65.5 51.5t51 60.5q39 62 60 107 t21 74q0 50 -71 55q-101 -199 -176 -369zM301 170l20 52q7 20 19 41l102 192q2 3 5 3q8 0 11 -8l-1 -3l-101 -192q-10 -22 -24 -39zM392 -668q0 16 6.5 30t11.5 30l30 63q262 570 589 1251q25 55 51 112.5t40 114.5l5 15v26q-1 48 -13 90q-28 80 -100 126q68 -36 99.5 -98.5 t31.5 -127.5q-4 -46 -21 -90q-34 -90 -77 -174q-267 -572 -566 -1202q-31 -72 -69 -144q-5 -15 -5 -31q0 -18 11.5 -35t30.5 -25q39 -14 82 -14h-18q-34 0 -65 8q-51 19 -54 75z" />
<glyph unicode="&#x101c;" horiz-adv-x="1673" d="M-100 -4l19.5 4.5t51.5 25.5t71 69.5t80 135.5q154 332 267 566.5l113 234.5l13 24.5t41.5 56.5t75.5 57.5t113 28.5q20 2 43 2q45 0 95 -11t92.5 -36t69.5 -66t27 -101q0 -28 -6 -56q-22 -94 -56 -167l-35 -74l-213 -445q-3 -13 -3 -26q0 -58 49 -96t104 -38 q82 7 131.5 63.5t84.5 139.5l336 736l15.5 28t46.5 64t77.5 63.5t108.5 27.5q51 0 112 -25q-5 1 -12 1q-17 0 -47.5 -18t-73.5 -75t-97 -170l-350 -741l-16 -26.5t-51.5 -61t-92.5 -61t-139 -26.5q-56 0 -114.5 15t-100.5 47q-32 23 -49 43v1h1h-1l-13.5 21t-27 57t-13.5 83 q0 42 17 90l260 545q30 62 30 123q0 30 -13.5 56t-54.5 34q-30 7 -58 7q-33 0 -63 -14t-53 -51q-43 -79 -124 -250l-81 -171l-58 -133l-194 -397l-10.5 -14t-30.5 -33.5t-48.5 -37t-64.5 -24.5q-35 -2 -77 -2q-31 -4 -65 -4zM129 -5q39 0 73.5 21t63 53.5t47.5 67.5 q8 13 17 32q173 376 364 779l16 32q19 42 53 68.5t78 26.5q21 0 43 -6q-15 3 -31 3q-42 0 -77.5 -26.5t-51.5 -71.5q-150 -322 -378 -813q-29 -51 -56.5 -85t-75.5 -61q-36 -20 -75 -20h-10zM817 221q0 27 6.5 40.5t18.5 39.5l257 555q25 54 24 107q0 53 -16 93t-48 80 q-27 35 -64 61q41 -20 78.5 -58t52.5 -84q16 -44 16 -89q0 -61 -26 -117q-121 -267 -258 -556q-6 -14 -10.5 -24t-8 -18.5t-5.5 -18t-2 -23.5q2 -53 52 -77q-67 27 -67 89zM1135 6q48 4 83 34.5t55 69.5l15 31l345 731q24 53 52 103q31 56 70 98q14 16 34 32t42 16 q6 0 11 -2l-6 1q-11 0 -21 -5.5t-17 -12.5q-36 -33 -55.5 -64.5t-41.5 -71.5q-15 -25 -26 -49q-183 -382 -370 -785q-16 -32 -30 -54t-43 -42q-42 -30 -89 -30h-8z" />
<glyph unicode="&#x101d;" horiz-adv-x="938" d="M19 223q0 25 5 49q22 93 57 166.5l35 73.5l267 561l16.5 19.5t51 44t89 44t130.5 19.5q49 0 108 -19t102 -69q43 -54 43 -125q0 -26 -5 -52q-21 -93 -55.5 -166l-34.5 -73l-269 -562l-16.5 -19.5t-51 -44t-89 -44t-130.5 -19.5q-51 0 -110.5 22.5t-98.5 65.5 q-44 57 -44 128zM155 174q0 -29 13.5 -54t53.5 -33q32 -7 63 -7q55 4 93 53t70 123l144 310q77 157 173 364q24 47 23 97q0 32 -13 58.5t-55 35.5q-28 6 -54 6q-28 0 -52 -9.5t-41 -31.5q-39 -49 -79 -136q-123 -263 -317 -673q-22 -48 -22 -103zM190 202q0 40 19 77 l338 695q17 45 49 83q12 16 30 28t37 12h3q-36 -6 -55 -38.5t-35 -68.5l-338 -696q-19 -32 -29.5 -57.5t-10.5 -60.5q0 -23 6 -46q-14 34 -14 72zM379 -16q11 -2 21 -2q55 0 113.5 43.5t95.5 118.5q93 188 195 397q54 114 105 229q22 54 42 108.5t20 111.5q0 26 -8 54 q-31 100 -125 147q48 -16 88 -53t54 -90l6 -18q3 -11 3 -43q0 -57 -21 -114.5t-42 -108.5q-79 -181 -144 -312.5t-158 -316.5q-19 -39 -50 -74.5t-71 -58.5t-87 -23q-19 0 -37 5z" />
<glyph unicode="&#x101e;" horiz-adv-x="1548" d="M-74 39l38.5 -9t101 -18t134.5 -9q65 0 130 11.5t116 41t78 83.5q16 -17 50 -48t84 -58t115 -27q81 0 137.5 26.5t91.5 60t51 60l16 26.5l346 734q32 68 60.5 114t52.5 75t43.5 44.5t34.5 21t25 5.5l12 -2q-60 25 -111 25q-62 0 -108 -27.5t-77 -62.5t-46 -62l-15 -28 l-362 -796q-31 -64 -81 -98.5t-97 -34.5q-46 0 -77.5 28.5t-51.5 69.5t-31 80l234 482l119 246q25 53 52 89t52 58t45.5 33.5t33.5 15.5l12 4h-453q-6 0 -12 -1q-70 -3 -110.5 -10.5t-104.5 -43.5q-60 -38 -83 -81.5t-23 -82.5q0 -38 12.5 -66t24.5 -37q-6 22 -6 41 q0 43 24 72t54.5 46t54.5 24l23 7h261l-175 -366q-134 -280 -277 -575v-1q-48 -58 -114 -58q-34 0 -65.5 14.5t-51.5 43t-20 70.5q0 21 5.5 46t17.5 55l1 3q0 6 -9 12t-21.5 9.5t-23.5 3.5q-13 0 -18 -7zM346 -19l19 -1q52 0 92 18.5t77 51.5l26 25l-18 8q-31 -34 -79.5 -66 t-116.5 -36zM429 906q0 53 53 89l3 1q36 18 81 25.5t87 7.5q32 0 63 -3q6 -2 6 -8q0 -7 -6 -10q-14 0 -15 1.5t-43 1.5q-39 0 -84.5 -6.5t-80.5 -24.5q-49 -23 -64 -74zM634 217l12 -17q29 60 44 93q166 353 320 683q22 49 66 108q32 44 80 74q-51 -24 -90 -66 q-47 -51 -72 -108l-347 -740q-6 -14 -13 -27zM961 9q44 4 78 34t55 70q-67 -139 356 753q31 72 69 132q35 60 92 100q18 14 38 14l11 -2h-4q-20 0 -39.5 -20t-30.5 -37q-82 -122 -112 -199q81 172 -341 -723q-14 -30 -29.5 -53.5t-44.5 -42.5q-40 -27 -85 -27zM1643 1171 l8 -3z" />
<glyph unicode="&#x1022;" horiz-adv-x="1495" d="M-85 39q81 39 119 93.5t74 129.5q28 52 64 79.5t73 36.5t66 9h9q-41 11 -63.5 43t-22.5 74q0 16 3 23.5t19 38.5l43 90q0 3 2 4l175 366l12.5 23.5t40.5 54.5t73 55.5t109 27.5q20 2 43 2q48 0 102.5 -12.5t98.5 -46.5t64 -96q43 40 99 80.5t110 55.5q50 13 90 13 q63 0 103 -30t63 -86q12 -31 12 -68q0 -38 -12 -72q-31 -85 -62 -159l-32 -75l-17 -37l-243 -508l-16 -18.5t-49.5 -42.5t-86 -43t-126.5 -19q-25 0 -53 3q27 9 54.5 24.5t55.5 42t56.5 68.5t57.5 104l159 343q14 23 140 291q11 24 20 50.5t9 54.5q0 34 -23.5 62.5 t-71.5 28.5q-67 0 -143.5 -82t-128.5 -207q-20 -50 -35.5 -81.5l-15.5 -31.5q-135 -276 -263 -549l-16 -18.5t-49.5 -42.5t-86.5 -43t-127 -19q-26 0 -54 3q27 9 55 24t56.5 42t57 69t57.5 105l301 639q10 22 16.5 41t10 37.5t3.5 40.5q0 29 -13.5 53.5t-52.5 33.5 q-29 6 -56 6q-33 0 -61.5 -13.5t-50.5 -48.5q-58 -107 -146 -288t-97 -201l-5 -12l-6 -15.5t-6 -36.5q0 -15 5.5 -31t20 -30t41 -24t68.5 -14l-3 -4q-23 -1 -50 -6q-61 -12 -132.5 -61t-105.5 -139q-18 -52 -39.5 -86.5t-46 -54t-51.5 -27t-56 -7.5q-33 0 -67.5 7t-68.5 14z M147 21q59 27 87.5 69.5t55.5 114.5q23 54 64 96t94 58q37 10 68 10v-6q-32 -6 -74 -27t-77 -57q-17 -17 -30 -36.5t-28 -56.5q-30 -78 -51 -104q-24 -34 -50.5 -47t-56.5 -20zM147 21q59 27 87.5 69.5t55.5 114.5q23 54 64 96t94 58q37 10 68 10v-6q-32 -6 -74 -27t-77 -57 q-17 -17 -30 -36.5t-28 -56.5q-30 -78 -51 -104q-24 -34 -50.5 -47t-56.5 -20zM457 526q0 19 7 41l2 5q9 24 38 81l160 330q46 110 134 110q16 0 33 -4l-1 -6l-15 1q-51 0 -81.5 -32t-47.5 -78l-193 -398l-8 -16.5t-8 -39.5q0 -30 23.5 -51.5t57.5 -32.5l-2 -6q-22 4 -45 15 t-38.5 30.5t-15.5 50.5zM516 4l1 6h6q40 0 81 17t65 39q28 27 49 67t48 99q88 192 180 389.5t141 286.5q27 52 54.5 79.5t47.5 40.5q42 27 78 27h4v-6q-36 -3 -71 -29t-60 -62q-49 -82 -152 -303l-225 -485q-21 -46 -42.5 -76t-49.5 -49t-69 -32q-33 -10 -66 -10zM976 0v6 q63 7 119.5 49t86.5 100q1 5 4 9q65 132 316 698q20 43 29 78t11 42q3 19 3 39q0 43 -14.5 82.5t-43.5 68.5l4 5q40 -32 62 -85q15 -37 15 -76q0 -45 -16 -92t-28 -71q-112 -260 -317 -700q-1 -4 -15.5 -28.5t-38.5 -50.5q-38 -39 -81 -56.5t-85 -17.5h-11z" />
<glyph unicode="&#x102d;" horiz-adv-x="0" d="M-411 1496q0 45 4.5 67l4.5 22l88 198q34 64 104 91q52 24 90.5 32l38.5 8q42 6 76 6q64 0 105.5 -17t80.5 -44q24 -16 41 -39q16 -23 22 -46.5t6 -43.5q0 -24 -4.5 -39.5l-4.5 -15.5l-63 -130.5t-104 -186.5q-37 -29 -86.5 -42t-166.5 -19q-92 9 -140.5 40.5t-67.5 74 t-24 84.5zM-281 1480q0 -32 15.5 -65t60.5 -52q34 -9 63 -9q32 0 61.5 19.5t59.5 74.5l58 108l53 115l7 18.5t7 44.5q0 21 -8 43t-29 42q-16 13 -40 21.5t-52 8.5q-29 0 -60 -13t-60 -44l-122 -237l-7 -22t-7 -53zM-228 1501q0 13 2 26q3 10 6 18q45 92 89 180q16 33 41 52 q23 18 49 18h5q-27 -6 -44 -28q-13 -16 -24 -35l-9 -15l-88 -178q-3 -8 -5 -17q-5 -20 -6 -42l-1 -13q0 -20 4 -41q-12 25 -18 53q-1 11 -1 22zM-81 1275q20 -3 41 -3q25 0 50 5q36 9 67 28q13 6 24 16q30 27 50 64q68 109 120 221q7 14 12 28q12 35 16 72l1 16q0 37 -15 73 q25 -41 28 -89l1 -14q0 -33 -12 -65l-12 -30q-37 -76 -79 -150l-43 -73q-20 -37 -53 -68q-14 -10 -27 -19q-36 -21 -76 -23l-19 -1q-39 0 -74 12z" />
<glyph unicode="&#x102e;" horiz-adv-x="0" d="M-450 1499q0 45 8 85l89 200q47 92 194 122q12 0 36 8h2q43 5 77 5q6 0 27 -0.5t50.5 -8.5t54.5 -21t50 -30q24 -15 41 -38q28 -41 28 -91q0 -18 -3 -32h-1q0 -3 -4 -19q-1 -1 -1 -4l-31 -65q-94 -196 -135 -249l-18 -12q-32 -22 -80.5 -32.5t-152.5 -15.5q-25 2 -47 6 t-40.5 10t-33.5 14q-45 22 -68 54t-33 67q-6 24 -9 47zM-309 1550q81 30 174 30q81 0 127 -27l57 122q1 5 7 22t6 40q0 9 -2.5 30t-34.5 52q-38 31 -97 31q-57 0 -114 -57l-121 -236zM-307 1421q32 -64 119 -64q20 0 51 8t74 85l17 32l20 37q-42 24 -98 24q-52 0 -104 -35 q-15 -10 -39.5 -35.5t-39.5 -51.5zM-240 1602q0 2 76 155q32 63 101 63q23 0 45 -5q-29 0 -55 -9q-53 -18 -73 -58q-77 -155 -82 -155q-12 0 -12 9zM-122 1279q20 -4 40 -4q60 0 118 33q46 30 73 80l42 72q73 127 89 175q16 43 16 91q0 35 -14 69q28 -47 28 -99 q0 -34 -11 -67l-3 -7q-14 -43 -130 -244q-58 -111 -176 -111q-37 0 -72 12z" />
<glyph unicode="&#x102f;" horiz-adv-x="2" d="M-1012 -603q0 21 6.5 66t54.5 137q118 229 125.5 249t7.5 34q0 13 -6 22l-2 8q50 -7 87 -7q63 0 88 19q3 2 5 2q6 0 6 -7l-1 -3q-39 -115 -113 -255q-35 -69 -78 -159q-31 -72 -31 -133q0 -44 26 -110t123 -98q25 -8 110 -17.5t209 -9.5q123 0 263 23t274 81 q71 30 143 30q28 0 91.5 -10t139.5 -84q13 -14 22.5 -27.5t12.5 -24.5q-147 9 -280 9q-49 0 -159 -3.5t-262 -13.5q-164 -13 -304 -13q-52 0 -166.5 4.5t-254.5 76.5q-89 47 -124 140q-13 33 -13 74zM-805 -616q0 -58 32 -108q38 -52 114 -52h12q-35 1 -67 15 q-72 36 -72 144q0 70 31 135l173 373q3 8 2.5 13t-3.5 7l-3 1q-2 0 -6 -2.5t-7 -9.5l-174 -374q-32 -68 -32 -142z" />
<glyph unicode="&#x1030;" horiz-adv-x="0" d="M-1186 -514q0 54 27 107q83 158 114 223q19 41 19 58q0 13 -5 25l-2 8q49 -7 88 -7q62 0 87 19l4 1q6 0 6 -9q-39 -113 -111 -251q-36 -70 -80 -163q-28 -62 -28 -124q0 -43 39 -108q-158 87 -158 221zM-979 -603q0 21 6.5 66t54.5 137q118 229 125.5 249t7.5 34 q0 13 -6 22l-2 8q50 -7 87 -7q63 0 88 19q3 2 5 2q6 0 6 -7l-1 -3q-39 -115 -113 -255q-35 -69 -78 -159q-31 -72 -31 -133q0 -44 26 -110t123 -98q25 -8 110 -17.5t209 -9.5q123 0 263 23t274 81q71 30 143 30q28 0 91.5 -10t139.5 -84q13 -14 22.5 -27.5t12.5 -24.5 q-147 9 -280 9q-49 0 -159 -3.5t-262 -13.5q-164 -13 -304 -13q-52 0 -166.5 4.5t-254.5 76.5q-89 47 -124 140q-13 33 -13 74zM-772 -616q0 -58 32 -108q38 -52 114 -52h12q-35 1 -67 15q-72 36 -72 144q0 70 31 135l173 373q3 8 2.5 13t-3.5 7l-3 1q-2 0 -6 -2.5t-7 -9.5 l-174 -374q-32 -68 -32 -142z" />
<glyph unicode="&#x1031;" horiz-adv-x="847" d="M12 204v14q0 45 11.5 84t23 63l11.5 24q155 327 339 706q58 59 142 81t169 22q73 0 136.5 -9.5t103 -18.5l39.5 -9l-157 -289q18 77 18 130q0 61 -18.5 94t-48 46t-61.5 13q-51 0 -94.5 -17.5l-43.5 -17.5q-115 -237 -247 -511q127 1 175.5 -4.5t94.5 -37.5 q24 -16 40 -38q17 -24 23 -47.5t6 -44.5q0 -12 -1 -22t-3 -17.5t-3.5 -11.5l-1.5 -4l-63 -130t-104 -187q-37 -29 -86.5 -41.5t-167.5 -18.5q-55 5 -94 18.5t-64.5 34t-40.5 45t-22.5 50.5t-10.5 51zM143 188q0 -33 15.5 -66t60.5 -52q33 -8 63 -8q29 0 50.5 12t40 36.5 t39 63t48.5 91.5l54 114l7 18t7 45q0 20 -8 42.5t-30 42.5q-34 27 -93 27q-38 0 -93 -6l-148 -285l-6.5 -22.5t-6.5 -52.5zM196 209q0 16 2 23l6 21q46 91 89 180q17 29 37 49.5t51 20.5h7q-30 -5 -46.5 -27.5t-31.5 -50.5l-88 -178q-5 -17 -8 -33t-4 -40q0 -19 4 -39 q-18 34 -18 74zM343 -16q21 -4 43 -4q79 0 139 49q31 25 50 64q43 72 71.5 119.5t61.5 128.5q15 42 16 88q0 38 -16 74q28 -47 29 -105q0 -29 -6 -46.5t-18 -45.5q-54 -116 -122 -223q-13 -23 -33 -47.5t-48 -39.5q-35 -20 -74 -24l-20 -1q-38 0 -73 13zM404 668q0 -8 8 -9 q6 0 10 8l171 341q15 29 31.5 55t44.5 37q22 8 47 9l-24 1q-35 0 -68 -26q-31 -29 -47 -68l-171 -342zM879 851l2 7l149 288l-29 19l47 -22l-151 -294q-5 -7 -10 -7q-6 0 -8 9z" />
<glyph unicode="&#x1035;" horiz-adv-x="0" d="M-365 1381q0 22 6 48q19 46 189 391q3 6 10 11q4 2 5 5l10 7q43 28 89.5 42t140.5 14q21 0 74 -16.5t79 -56.5q14 -27 14 -58q0 -12 -5 -41t-56 -63l-3 -2l3 4q29 34 29 75q0 7 -3 34.5t-48 55.5q-25 14 -53 14h-16q-12 0 -46.5 -8.5t-69.5 -51.5l-132 -238 q31 21 65 31.5t75 14.5l26 1q28 0 60.5 -7.5t58.5 -34.5q15 -18 15 -38q0 -14 -8 -29l-86 -142q-24 -55 -84 -71q-44 -9 -97 -9q-17 0 -63.5 2.5t-111.5 12.5q-23 10 -40.5 28t-23.5 48q-3 12 -3 27zM-242 1349q0 -15 11 -27q17 -20 47 -20h3q72 6 101 32.5t43 61.5l4 7 q26 54 48 94q3 8 3 15q0 29 -50 29q-48 0 -92.5 -14t-82.5 -77q-35 -95 -35 -101zM-218 1348q0 11 5 22.5t36 79.5q22 42 65 53q20 9 46 9q25 0 51 -4q-20 -3 -68 -15l-17 -5q-43 -14 -58 -43l-37 -83q-7 -15 -7 -27q0 -8 18 -8l14 1q-16 -9 -27 -9q-21 0 -21 29zM-60 1629 l59 108q30 63 102 80l12 1q36 0 57 -27q-18 10 -37 11q-81 0 -117 -73l-58 -109l-5 -1q-9 0 -13 10zM6 1244q25 9 44.5 27.5t38.5 40.5q19 26 48 78l54 97q10 18 10 44l-1 16l-1 2q-1 12 -11 18q13 -3 17 -16l1 -2q10 -20 10 -40q0 -15 -8 -31l-54 -97q-31 -56 -49 -80 l-12 -13q-37 -40 -87 -44zM226 1889q53 -11 71.5 -47t18.5 -71q0 -36 -18 -72l-2 -2q-13 -30 -56 -61q11 16 20 33l20 38q16 33 16 65q0 37 -20 70q-24 31 -50 47z" />
<glyph unicode="&#x1036;" horiz-adv-x="3442" d="M-241 1512q0 26 5 51q3 11 3.5 13t57.5 137q33 70 131 90l2 1q22 3 41 3q34 0 56 -11.5t42 -30.5q31 -26 31 -77q-1 -29 -6 -43l-2 -6q-67 -157 -106 -216q-21 -20 -48 -29t-91 -14q-73 11 -94.5 51t-21.5 81zM-163 1493q0 -18 5.5 -35t22.5 -27l4 -1q13 -5 26 -5 q15 0 30.5 13t34.5 50q39 75 71 149h1q0 3 1 4l3 8q8 21 8 40q0 22 -11 44t-43 22q-14 0 -30 -8.5t-32 -30.5l-78 -157q0 -3 -5 -17q-8 -27 -8 -49zM-128 1510q0 21 6 38q28 64 58 124q10 20 22.5 34t28.5 14h3q-27 -9 -41 -44l-61 -132q-10 -26 -10 -76q-6 20 -6 42z M-73 1365q12 -2 22 -2q33 0 61 19t48 59q54 102 75 152q4 5 6 11l3 7q13 30 13 72q0 21 -5 39q11 -26 11 -55q-1 -27 -7.5 -51t-17 -47t-24.5 -47q-10 -23 -46 -88q-31 -66 -89 -76q-32 0 -50 7z" />
<glyph unicode="&#x1038;" horiz-adv-x="565" d="M-78 152q3 36 6 52l4 17l64 152q23 49 68 70q33 18 57 24.5l24 6.5q25 3 46 3q39 0 63.5 -12.5t46.5 -33.5q13 -12 23 -30q12 -30 12 -57q-1 -25 -5 -39.5l-4 -14.5l-45.5 -100t-73.5 -142q-24 -23 -54.5 -33t-101.5 -15q-82 12 -106 57.5t-24 94.5zM9 126q0 -20 7 -39 t25 -30q18 -7 34 -7q17 0 34 14.5t38 55.5q45 82 80 167l5.5 14.5t8.5 38.5v5q0 25 -12.5 49.5t-47.5 24.5q-15 0 -33 -9.5t-36 -33.5l-87 -176l-6 -19t-10 -48v-7zM48 138q-1 28 8 51q32 70 64 138q12 22 25.5 37.5t32.5 15.5h3q-19 -4 -30 -21.5t-21 -38.5l-63 -136 q-10 -27 -11 -56v-31q-6 19 -8 41zM110 -17q13 -2 25 -2q37 0 68 21t54 66q47 83 84 170q6 10 10 20q15 34 15 82q0 21 -6 42q13 -29 13 -61q-3 -56 -24.5 -101.5t-52.5 -104.5l-30 -55q-18 -36 -42 -59t-58 -26q-36 0 -56 8zM201 859q2 36 5 53l4 16l64 151q24 50 68 70 q33 19 57 25l24 6q25 4 47 4q38 0 62.5 -13t46.5 -33q13 -13 23 -30q12 -31 12 -57q-1 -26 -5 -40l-4 -14l-45.5 -100t-73.5 -143q-24 -22 -54 -32.5t-102 -14.5q-82 11 -106 57t-23 95zM287 833q0 -21 7 -39.5t26 -29.5q17 -7 33 -7q17 0 34 14.5t39 55.5q44 81 79 167 l5.5 14.5t9.5 38.5v4q0 26 -13 50.5t-48 24.5q-15 0 -33 -9.5t-36 -33.5l-87 -176l-6 -19.5t-10 -47.5v-7zM326 845q-1 28 8 50q32 71 64 138q12 23 25.5 38.5t32.5 15.5h3q-19 -4 -30 -21.5t-21 -39.5l-63 -136q-10 -26 -11 -55v-31q-6 19 -8 41zM389 690q12 -2 25 -2 q36 0 67 20.5t54 66.5q48 83 85 170q5 10 9 20q15 34 15 81q0 22 -5 43q12 -29 12 -61q-3 -56 -24.5 -101.5t-52.5 -104.5l-29 -56q-19 -35 -43 -58t-57 -26q-36 0 -56 8z" />
<glyph unicode="&#x103a;" horiz-adv-x="0" d="M-379 1381q0 38 16.5 83.5t39.5 104.5q79 203 225.5 299t339.5 96q133 0 274 -33.5t278.5 -77t263.5 -77t231 -33.5q75 0 135.5 23.5t104.5 79.5q8 11 18 37t10 56q0 25 -11 47t-39 36t-79 14q-29 0 -33 -1q-30 0 -50 21t-20 48q0 17 9 33q14 27 44.5 35.5t61.5 8.5 q61 0 113.5 -28.5t85 -79t32.5 -114.5q0 -57 -27 -100q-28 -50 -75 -78.5t-86.5 -40.5t-40.5 -12q-83 -16 -192 -16q-81 0 -161 11q-89 14 -174.5 46t-171.5 68t-175 62t-184 26q-89 0 -186 -31q-128 -41 -204.5 -95t-124.5 -167q-29 -66 -54.5 -122.5t-25.5 -104.5 q0 -35 19.5 -65t66 -56t127.5 -48h-1q-13 0 -152 11t-180 29q-25 20 -36.5 47t-11.5 58zM-156 1396q0 20 6 45t14 47.5t16 37.5l42 82q28 67 101 126q136 112 318 144q50 7 99 7l18 -1q-117 -11 -242 -61q-72 -28 -139.5 -73t-111.5 -106q-14 -19 -46 -81t-57 -134 q-9 -21 -9 -43q0 -33 30 -59q-39 24 -39 69z" />
<glyph unicode="&#x103b;" horiz-adv-x="288" d="M-1042 -556q0 59 45 136q63 90 128 121q66 31 112 31q14 0 26 -3q56 -11 64 -58q-6 -42 -34 -68q-29 -25 -56 -35l-26 -9l-1 -1l-1 2q4 15 4 22q0 31 -36 31q-11 0 -27 -3q-36 -8 -71 -43q-35 -34 -53 -85q-7 -21 -7 -41q0 -41 27 -72q57 -68 149 -68q70 0 146 38 q106 55 161 164q51 106 218 481q173 385 345 761q171 376 215 451q2 2 3.5 3t2.5 2h3q3 0 3 -3q2 -8 15 -14t30 -7t30 -1q45 0 89 9q-36 -38 -202 -385q-165 -347 -341 -733q-176 -385 -243 -536q-53 -121 -125 -178t-166 -87q-62 -19 -132 -19l-35 1q-91 6 -162 45 q-72 39 -85 85q-13 45 -13 66zM-937 -560q0 15 6 29q24 57 113 86q-75 -40 -97 -92l-1 -3q-2 -7 -2 -14q0 -33 28 -61l9 -8q15 -12 31 -21q21 -15 70 -15q38 0 77 16l24 10q74 36 120 71q-55 -59 -113 -87l-25 -11q-40 -17 -82 -17q-31 0 -62 9q-21 5 -52 32q-38 30 -44 76z M-667 -766q50 0 98 11q49 11 90 39q94 63 139 136q8 13 70 148q21 44 207 441t537 1147q20 39 30 39q3 0 4.5 -2t1.5 -6q0 -3 -1 -7.5t-2.5 -9.5t-4 -11t-5.5 -13l-706 -1505q-39 -78 -76 -158q-27 -53 -39 -73q-53 -74 -150 -134q-44 -27 -89 -35q-44 -7 -84 -7h-20z" />
<glyph unicode="&#x103c;" horiz-adv-x="497" d="M-240 -453q0 -65 27 -125q20 -45 58 -57t82 -12l60 1h500q55 0 105.5 9t91.5 40t70 91l194 435l-77 -2q-77 -5 -119 -87l-123 -278q-21 -48 -59.5 -75.5t-81.5 -27.5h-499q-39 0 -63 31.5t-24 71.5l1 3q0 27 12 54l901 1972q15 33 41 51t54 18h856q41 0 75.5 28t54.5 79 h-999q-72 0 -135 -45t-100 -123l-871 -1910q-32 -61 -32 -142zM-26 -440q0 -7 2.5 -20t40.5 -25l242 -2q77 0 222 15q-49 2 -97.5 5t-91 4t-60.5 1q-224 0 -224 35q0 23 371 855q403 927 490 1131q10 23 55 34l405 -3l199 10q-90 10 -107.5 13t-36.5 5t-458 6 q-28 -7 -48.5 -20t-33.5 -35q-8 -22 -13.5 -34t-7.5 -17q-7 -23 -12 -27l-21 -46v-3l-810 -1853q-6 -15 -6 -29zM650 -672q95 27 136 77q15 24 29 50l197 463q0 12 -13 14q-4 0 -7 -2.5t-5 -5.5q-59 -144 -197 -457q-32 -78 -140 -139z" />
<glyph unicode="&#x103d;" horiz-adv-x="0" d="M-1364 -606q0 54 22 103l19 42q149 319 151.5 321t9.5 10q12 11 40.5 25t77.5 24.5t121 10.5q122 -7 201 -50q65 -39 67 -93q0 -52 -22 -102l-1 -1q0 -3 -2 -5l-5 -12q0 -2 -1 -2l-10 -22q-150 -319 -157 -326.5t-23.5 -18t-44.5 -21.5t-69 -18t-97 -7q-120 0 -210 50 q-20 11 -35 26q-30 32 -32 66zM-1231 -627l1 -15q3 -13 10.5 -26t24.5 -22.5t47.5 -13t58.5 -3.5q52 2 76.5 29t43.5 71q40 92 78 176q26 53 86 187l10 20q7 11 7 35l-2 11q-2 21 -18.5 39t-62.5 24q-28 4 -54 4q-53 0 -76 -24q-27 -28 -49 -77q-53 -120 -139 -304v-2 l-36 -80q-6 -14 -6 -29zM-1205 -623q0 7 3 17l12 23q188 393 194 407q8 19 28 33.5t41 14.5l10 -1q-26 -4 -41 -22q-6 -9 -221 -453q-7 -20 -7 -27q0 -25 14 -48q-31 25 -33 56zM-984 -762q41 0 74 11q49 17 73 38q20 16 44 63q179 357 179 426q0 51 -45 87q-59 43 -115 62 q83 -13 129 -48q53 -42 53 -96q0 -34 -12 -64q-36 -98 -64 -158q-21 -45 -106 -217q-25 -57 -71 -84q-42 -25 -96 -25q-22 0 -43 5z" />
<glyph unicode="&#x104a;" horiz-adv-x="897" d="M83 0q513 1096 520 1113q7 20 7 34q0 13 -6 22l-2 8q50 -7 87 -7q63 0 88 19q3 2 5 2q6 0 6 -7q-4 -37 -538 -1184h-167zM292 0h22l532 1155q3 8 2.5 13t-3.5 7l-3 1q-2 0 -6 -2.5t-7 -9.5z" />
<glyph unicode="&#x104b;" horiz-adv-x="992" d="M-67 0l505 1080q19 41 19 58q0 5 -7 33q49 -7 88 -7q62 0 87 19l4 1q6 0 6 -9q-34 -98 -534 -1175h-168zM213 0q513 1096 520 1113q7 20 7 34q0 13 -6 22l-2 8q50 -7 87 -7q63 0 88 19q3 2 5 2q6 0 6 -7q-4 -37 -538 -1184h-167zM422 0h22l532 1155q3 8 2.5 13t-3.5 7 l-3 1q-2 0 -6 -2.5t-7 -9.5z" />
<glyph unicode="&#x1062;" horiz-adv-x="581" d="M-127 24q46 -11 84 -11q70 0 117.5 27t75.5 62.5t40.5 62.5l12.5 27l152.5 314t228.5 479q42 87 84 129.5t71 55.5l29 13h-302q-72 -4 -107.5 -11t-97.5 -44q-58 -38 -80 -82.5t-22 -84.5q0 -24 5.5 -44t12.5 -34t14 -19q-5 20 -5 37q0 45 23 74.5t52 45.5q54 31 111 31 h83l-155 -330t-238 -517q-36 -78 -70 -116t-62 -49.5t-43 -11.5q-13 0 -14 2v-6zM12 -20q91 10 153 70.5t104 136.5q15 27 27 55q63 130 130 282l208 452q9 16 17 32q51 93 137 141q-33 -22 -57 -48.5t-43 -59.5t-38 -74q-194 -413 -339 -733q-47 -108 -124 -185 q-36 -32 -75 -50.5t-85 -18.5h-15zM209 897q17 53 73.5 78.5t110.5 30.5l10 18q-58 -3 -105 -20t-71 -51q-17 -27 -18 -56z" />
<glyph unicode="&#x1075;" horiz-adv-x="989" d="M-176 23l22 -3q59 -17 116 -17q39 0 75.5 14.5t68 54.5t56.5 111q33 92 107.5 142.5t136.5 61.5q15 3 26 3q19 0 29 7q-58 6 -88.5 22.5t-41 38t-10.5 41.5q0 23 11 53q189 385 254 509q23 36 52 50t63 14q28 0 57 -6q40 -9 54 -34.5t14 -56.5q0 -22 -4 -41t-10.5 -38.5 t-16.5 -40.5l-309 -655q-59 -126 -117.5 -178.5t-113.5 -68.5q27 -3 54 -3q77 0 131 19.5t89 44.5t51 44q11 13 15.5 18t304.5 637q35 73 57 167q5 25 5 51q0 40 -15 78q-25 55 -69 84.5t-96 40.5t-98 11l-45 -1q-67 -4 -113.5 -29t-74.5 -56.5t-40 -54t-14 -26.5l-240 -501 q-5 -1 -5 -27q0 -44 23 -77t64 -45h-6q-14 0 -31.5 -2t-36 -7t-38 -13.5t-38 -23t-35.5 -35t-32 -47.5l-14 -28q-32 -66 -70 -115t-114 -87zM83 3q81 31 129 145q17 45 46.5 94.5t80.5 82.5q61 35 120 35q-145 -31 -211 -173q-26 -68 -47.5 -104t-47.5 -53t-70 -27zM392 523 q0 -41 30.5 -64t69.5 -31q-31 10 -57.5 33t-26.5 57q0 27 15 57q182 376 187 388q14 33 37.5 70.5t66.5 55.5q21 5 57 5q-18 2 -34 2q-37 0 -65 -18.5t-47 -47.5q-32 -58 -38 -78l-173 -356q0 -2 -13 -29q-9 -18 -9 -44zM433 -13l21 -1q39 0 82 15t72 41q56 55 108 186 q98 207 282 609q17 45 32 107v29q-7 148 -131 215q66 -41 90 -101.5t24 -132.5q-12 -61 -33 -110q-82 -184 -166 -363q-139 -295 -143 -311q-27 -68 -72 -118q-22 -24 -65 -44.5t-92 -20.5h-9z" />
<glyph unicode="&#x1076;" horiz-adv-x="994" d="M0 221q0 28 6 55q12 53 35 101l30 65q7 9 9 18l9 16q31 57 74.5 84.5t84 35t62.5 7.5h283q78 176 137 300l5 13l9 17q14 37 19 76l1 17q0 31 -13.5 58t-54.5 36q-31 7 -60 7l-20 -2q-47 -6 -76 -39q-4 -5 -9 -15l-9 -18l-4 -8q-4 -8 -5.5 -19.5t-1.5 -20.5v-12 q7 -47 40 -64.5t69 -31.5q-66 -3 -121 -13.5t-94 -77.5q-16 -44 -40.5 -62.5t-53.5 -18.5q-33 0 -68.5 17.5t-69.5 42.5l11 -1q27 0 47.5 17.5t34.5 40t21 40.5l7 18l16 42l6.5 11.5t22 23.5t41.5 12q10 0 22 -2.5t26 -8t29 -14.5q-13 9 -29 23.5t-27.5 34t-11.5 43.5t16 52 l14 14l6 5q35 25 90 44.5t133 19.5h7q20 -2 40 -6q95 -11 161 -83q17 -20 28 -47q15 -39 15 -80q0 -25 -5 -51v-3q-22 -92 -54 -161l-284 -593l-13 -24.5t-41.5 -56.5t-74.5 -57t-111 -28q-10 -1 -20.5 -1.5t-22.5 -0.5q-45 0 -97 11t-95.5 41t-66.5 85q-14 37 -14 76z M133 178q0 -30 13.5 -55.5t52.5 -34.5q29 -6 56 -6q33 0 62.5 14t52.5 51q39 69 88 169l49 100l61 133l-94 -2l-80 2q-49 0 -90.5 -25.5t-66.5 -70.5l-72 -152q-25 -49 -31 -100zM184 194q0 22 7 43q2 11 7 22q26 55 55 110l28 54q13 30 35 54q8 9 19 15q23 19 52 26 q22 4 44 4l25 -1q-35 -3 -66 -16q-24 -11 -45 -26l-16 -15q-19 -20 -32 -49l-83 -163l-6 -21q-10 -26 -10 -52l-1 -9q0 -27 21 -50q-30 21 -33 59zM393 710q44 33 60 71q18 40 56 64q40 19 81 25l15 2q19 3 38 2l46 -2q-58 -11 -113.5 -21t-86.5 -45q-16 -22 -26 -47 q-28 -38 -70 -49zM418 -18q94 20 147 96l64 136q165 337 307 661l11 28q4 14 7 29q5 25 5 51q0 48 -18 93q-41 83 -127 124q89 -35 138 -118q24 -50 24 -104q0 -25 -5 -49q-2 -16 -7 -31l-10 -30q-136 -307 -283 -606q-43 -99 -96 -191q-28 -39 -69.5 -61t-87.5 -28z M562 1006v6q0 30 18.5 54.5t48.5 32.5q6 2 10 2h9l19 -2q15 -5 29 -13l-15 1l-16 -1l-32 -4q-54 -22 -54 -69v-6l2 -8q2 -11 7 -22q4 -14 16 -25q-16 6 -28 19q-8 9 -13 25z" />
<glyph unicode="&#x1077;" horiz-adv-x="1005" d="M-103 34q88 40 126 82.5t88 148.5q38 69 88 97t94 32q-56 40 -56 111q0 10 1 20q10 20 22 46q188 395 219 456l13 25t42 57t75.5 57t112.5 28q22 2 44 2q73 0 137.5 -23.5t104.5 -73t40 -125.5q0 -24 -5 -50q-21 -91 -53.5 -161.5t-36.5 -75.5l-263 -550 q-1 -4 -18.5 -23.5t-52 -44t-88.5 -43t-129 -18.5q-19 0 -40 1q-7 -2 -22 -2q-24 0 -42 5l1 7q16 121 80 195t133 109.5t100 42.5l256 539q29 56 29 112q0 74 -59 82q-27 6 -54 6q-30 0 -57 -12.5t-48 -45.5q-105 -199 -247 -497l-5.5 -14.5t-5.5 -33.5q0 -25 13.5 -44.5 t45.5 -31.5t86 -15l-17 -21q-17 0 -53 -6q-25 -6 -58 -19.5t-67 -37t-62 -57.5t-44 -80q-25 -73 -57 -112.5t-69.5 -54.5t-77.5 -15q-37 0 -80 8.5t-84 17.5zM160 17q29 12 55 33.5t47 59.5q20 41 51 109t97 113q62 35 118 34q-84 -18 -153 -86q-34 -37 -56 -90t-54 -108 q-22 -31 -47 -44.5t-58 -20.5zM397 51q40 22 82.5 71.5t85.5 142.5l19 41q-83 -53 -129.5 -135t-57.5 -120zM472 527q0 3 4.5 26.5t16.5 43.5l168 348q41 84 39 77q44 65 110 65q17 0 32 -4l-17 1q-40 0 -66 -19.5t-45 -51.5l-19.5 -39.5t-62 -127t-110.5 -230.5l-21 -42 q-14 -27 -14 -54q0 -31 23.5 -53.5t58.5 -33.5q-40 8 -68.5 31.5t-28.5 62.5zM523 1h6q83 0 155 63q46 54 74 125q131 281 299 650q4 7 18 44t14 83q0 61 -27 118t-84 92q128 -70 128 -229q-10 -59 -32 -114q-147 -321 -300 -651q-27 -72 -82 -127q-29 -26 -72 -40.5 t-80 -14.5z" />
<glyph unicode="&#x1078;" horiz-adv-x="1477" d="M-182 32l8 -3zM-174 29q5 -2 13 -2q17 0 47 18t72.5 74.5t96.5 168.5l348 737l15.5 26.5t50.5 60.5t92 60.5t139 26.5h14q60 -4 116.5 -36.5t93.5 -69.5q9 10 24.5 24.5t38.5 29.5t54 28t70 21.5t88 8.5h11q19 -2 39 -5q46 -7 88.5 -27t73.5 -56q17 -21 29 -48 q16 -38 16 -79q0 -26 -6 -52q-22 -94 -57 -168l-35 -73l-270 -565l-16.5 -19.5t-51 -44.5t-89 -44.5t-131.5 -19.5q-24 2 -49 6q-46 7 -88.5 27t-73.5 56q-17 20 -29 48q-15 39 -15 81q0 25 5 50q22 93 57 166l35 74l228 479q-13 32 -33 60.5t-47 47t-63 18.5h-12 q-71 -11 -119 -71t-78 -129l-333 -732l-15.5 -27.5t-46 -63t-77 -63t-109.5 -27.5q-50 0 -111 25zM26 -9q26 0 49.5 10t43.5 25q32 27 59 60q10 11 21 26q17 22 31 48q15 24 25 51q76 163 145 319l193 427q15 33 28 55.5t42 42.5q42 33 90 33h8q-52 -7 -90 -42 q-29 -28 -47 -66l-15 -32q-136 -299 -288 -638l-49 -106q-11 -27 -26 -54q-15 -25 -32 -49q-10 -15 -22 -28q-29 -33 -65 -57q-40 -26 -85 -26zM682 177q0 -31 13 -57t55 -36q32 -6 62 -6q58 4 94 52q35 47 71 126l145 311q1 0 77 161t98 205l2 5q15 37 19 76l1 20 q0 31 -14 57t-55 35q-30 6 -59 6l-20 -1q-43 -7 -68 -41q-40 -50 -80 -136l-85 -185q-77 -160 -169 -354l-1 -2q-39 -84 -65 -136q-17 -38 -21 -84v-16zM716 203v7q0 17 6 35q6 17 14 32l341 700q16 46 47 84q14 17 32 29t39 12h2q-42 -10 -62 -48q-17 -28 -30 -61l-12 -24 l-328 -674q-14 -31 -28 -56q-5 -15 -8 -30q-3 -17 -3 -34q0 -23 5 -47q-15 35 -15 75zM907 -19q11 -2 22 -2q45 0 84 26q39 23 71 55l22 28q19 26 32 54q100 193 196 399q56 115 106 232q23 53 43 107.5t20 111.5l-1 22q-2 17 -6 34q-14 43 -41 79q-34 44 -85 69 q53 -19 95 -60q34 -35 48 -83l6 -38l2 -25q0 -21 -3 -41q-5 -32 -15 -63q-21 -61 -47 -119q-50 -119 -105 -233l-111 -229l-86 -172q-13 -28 -32 -55q-12 -15 -26 -30q-33 -36 -76 -54q-37 -18 -76 -18q-18 0 -37 5z" />
<glyph unicode="&#x107a;" horiz-adv-x="1641" d="M-134 2l12.5 2t34.5 13t50 35.5t59.5 69t63.5 113.5q96 208 237 501.5l141 293.5l13 24.5t41.5 56.5t74.5 57t112 28q20 2 43 2q66 0 130.5 -21.5t107.5 -68.5t43 -124q0 -28 -6 -55q-22 -93 -56 -166l-34 -73l-211 -442q11 -34 30 -69.5t49 -61.5t73 -26q48 0 87 28.5 t69.5 73.5t54.5 98l333 732l15.5 27.5t46 63t77 63t108.5 27.5q50 0 111 -25l-12 2q-13 0 -33 -9t-47 -36t-61 -79t-75 -137l-348 -737l-16 -26.5t-51.5 -60.5t-92.5 -60.5t-140 -26.5q-68 0 -131.5 38t-103.5 83l-372 -780q-10 -22 -10 -44q0 -28 14.5 -52t41.5 -37 l15.5 -5t31.5 -5l16 1q153 21 301 83q67 29 137 29q61 0 118 -22.5t102 -67.5q29 -27 34 -50q-65 4 -128 6t-123 2q-112 0 -215 -4.5t-197 -10.5q-50 -8 -112 -8q-44 0 -90 10.5t-76.5 38.5t-30.5 81q0 46 29 113q95 207 403 852.5l308 645.5q15 32 23 59.5t8 59.5 q0 31 -13.5 57t-54.5 35q-30 6 -58 6q-34 0 -63 -13.5t-52 -49.5q-43 -79 -123 -249l-80 -170q-28 -65 -59 -132h11q15 0 40 -4.5t45 -20.5t20 -50q0 -32 -26 -85q-23 -47 -54 -105t-83.5 -112.5t-139 -90.5t-222.5 -36h-12q-31 -4 -66 -4zM105 -13q77 8 131 35t93 57 q46 38 73 75t43.5 71t32.5 63l60 117q4 9 8.5 23.5t4.5 30.5q0 27 -12.5 42.5t-30 23t-34.5 9.5q-13 2 -34 2q0 10 1 7l215 443q5 10 19.5 36.5t43.5 51t77 24.5q15 0 32 -4l-1 -6l-18 1q-47 0 -74 -24.5t-48 -69.5q-3 -10 -8 -19l-203 -417q21 0 42 -11.5t26 -16.5 q31 -30 31 -73q0 -31 -15 -64q-58 -109 -79 -153q-14 -30 -45 -78t-83 -95t-131 -73q-53 -15 -107 -15h-10v7zM197 115l4 -1q19 0 76 45t89 90q39 62 60 107t21 74q0 51 -72 55l-129 -264zM240 139q12 36 49 118l102 193q3 5 8 5q9 0 14 -12l-1 -4l-102 -193 q-32 -57 -70 -107zM354 -689q0 18 15 51t34 73l283 604l4 -3q5 -6 16 -13l-281 -598q-15 -31 -31 -63q-4 -10 -8.5 -17.5t-8 -17t-3.5 -25.5q2 -27 19.5 -44.5t41.5 -17.5q23 0 37 5.5t27 5.5l1 -6q-1 -1 -20 -5q-26 -10 -53 -10q-35 0 -54 27t-19 54zM665 131l1 -1z M773 221v2l221 470q27 58 50.5 107t45.5 135q0 48 1 31q0 51 -26 110.5t-87 98.5l3 5q71 -37 102.5 -101t31.5 -129l-1 -19q-20 -82 -52 -151t-45 -97l-230 -488q-8 13 -14 26zM1092 15q49 5 87 41t57 80l372 788q18 39 54 95t82 88q21 15 39 15q6 0 12 -2l-2 -6l-5 1 q-21 0 -40 -20t-29 -35q-51 -72 -89 -146l-367 -778q-18 -38 -32.5 -59t-40.5 -38q-45 -31 -90 -31q-4 0 -5.5 0.5t-2 2t-0.5 4.5z" />
<glyph unicode="&#x107b;" horiz-adv-x="1446" d="M0 218q0 26 5 51q22 93 56.5 166.5l34.5 73.5l270 566l16.5 19.5t51.5 44t89.5 44t131.5 19.5h9q84 -6 149 -44t88 -113q45 42 103.5 84.5t115.5 58.5q52 13 94 13q64 0 105.5 -30.5t65.5 -88.5q12 -32 12 -70q0 -40 -12 -75q-31 -87 -64 -164l-33 -77l-269 -563l-16 -19 t-50.5 -44t-89 -44t-131.5 -19q-25 0 -54 3l9 60.5t43 146.5t106 169.5t195 134.5l42 89l145 301q12 27 21 54.5t9 56.5q0 32 -19.5 59.5t-63.5 36.5l-11 1q-53 0 -127 -70t-116 -148l-34 -63q-23 -61 -43.5 -102.5l-20.5 -41.5l-270 -565l-16 -19.5t-51 -44t-89.5 -44 t-131.5 -19.5q-62 0 -133 31.5t-107 104.5q-15 39 -15 80zM137 174q0 -31 13.5 -57t53.5 -35q33 -7 63 -7q55 3 93.5 52.5t71.5 125.5l144 310q3 0 78.5 162t98.5 210q16 37 19 76l1 21q0 30 -13.5 55.5t-54.5 34.5q-29 6 -56 6q-58 0 -92 -41q-40 -54 -78.5 -135 t-85.5 -186q-78 -161 -169 -353l-2 -3q-46 -100 -52.5 -113.5t-13.5 -29.5q-19 -45 -19 -93zM188 201q0 25 7.5 43.5t25.5 54.5q169 342 340 700q14 31 36 59q13 16 30.5 28t37.5 12h3q-38 -7 -59 -44t-32 -64l-340 -699q-36 -68 -36 -85q-3 -17 -3 -34q0 -23 6 -47 q-16 36 -16 76zM414 -22q45 15 91.5 50t73.5 84q167 347 352 734q11 27 31.5 61t49.5 67t66 57q45 28 95 41q-76 -32 -134.5 -96t-91.5 -138l-50 -105q-210 -441 -302 -630q-30 -53 -79.5 -84t-101.5 -41zM774 63q67 49 135 193l99 215l-30 -20t-71 -66.5t-78.5 -125.5 t-54.5 -196zM861 -15q55 4 104 35t85 78q29 40 30 51q72 153 278 609l48 112q18 38 31.5 75.5t13.5 84.5q0 48 -15.5 90.5t-46.5 72.5q35 -27 57.5 -71t22.5 -93q0 -51 -14.5 -89t-31.5 -77q-32 -80 -301 -667l-26 -55q-31 -70 -91 -113t-132 -43h-12z" />
<glyph unicode="&#x107c;" horiz-adv-x="1575" d="M0 213q0 48 14 88.5t33 79.5q20 41 23 48.5t19 39.5q32 58 75.5 85.5t84.5 35.5t63 8q17 -1 285 -1q100 225 159 347l18 37q5 20 5 44q0 32 -13.5 58t-52.5 37q-29 7 -62 7q-53 0 -84 -42l-33 -45q-32 -60 -53.5 -113.5t-21.5 -86.5q0 -36 33 -39h-11q-48 0 -77 11.5 t-44.5 30.5t-21.5 42t-7 47q0 42 20 81l50 85q4 6 14.5 17.5t30 26t49 27.5t71.5 22t97 9h4q61 0 128.5 -28.5t103.5 -108.5q7 -14 23 -14q23 0 50 17l27 17l-440 -917l-12 -22q-13 -25 -41.5 -57t-75 -57.5t-111.5 -29.5l-45 -2q-46 0 -98 11.5t-95.5 42t-66.5 85.5 q-14 37 -14 76zM135 171q0 -31 13 -57t53 -35q29 -6 56 -6q33 0 62.5 14t52.5 51q40 72 91 172l49 98l60 135l-95 -2l-80 2q-100 0 -157 -96l-73 -153q-32 -62 -32 -123zM175 186q0 33 15 68t35 72l20 37l28 55q21 50 61.5 74.5t91.5 24.5l22 -1q-49 -3 -92 -30.5t-68 -76.5 l-82 -165q-17 -42 -18 -78q0 -30 21 -55q-34 25 -34 75zM371 -28q13 -3 26 -3q53 0 97 31t78 78t57 98l-5 32q-29 -65 -71.5 -123t-101.5 -92q-33 -22 -71 -22zM514 862q0 22 7 44t15 40l39 87q14 19 24.5 30.5t24 16.5t35.5 6q34 0 63 -20q-23 10 -47 10q-28 0 -48.5 -14 t-34.5 -39l1 3q-1 0 -40 -84q-12 -27 -19.5 -49.5t-7.5 -49.5q0 -26 21 -49q-32 22 -33 68zM683 203v14q0 45 11.5 84t22.5 63l11 24q141 296 166.5 346.5t171.5 355.5q57 58 140.5 80t168.5 22q73 0 136 -9.5t102 -18.5l39 -9l-155 -287q17 77 17 129q0 61 -18.5 93.5 t-47.5 45.5t-61 13q-51 0 -98 -18l-39 -16l-246 -509h50q94 0 135.5 -6t82.5 -36q24 -16 41 -37q16 -24 22.5 -47.5t6.5 -43.5q0 -13 -1.5 -23t-3.5 -17.5t-3 -11.5t-64 -133.5t-104 -184.5q-37 -30 -86 -42.5t-166 -18.5q-55 5 -94 19t-64 34.5t-40 44.5t-22.5 50t-10.5 50 zM813 187q0 -32 15.5 -65t60.5 -51q33 -9 62 -9q53 0 83.5 39t71.5 121q15 28 76 156q14 35 14 62q0 20 -8 42t-30 42q-33 28 -92 28q-38 0 -93 -6l-148 -286q-12 -42 -12 -73zM866 208q0 13 1 19t4 14q2 12 41 89q26 50 51 102q16 28 36 48.5t51 20.5h7q-27 -5 -42.5 -23.5 t-28.5 -43.5l-7 -11l-88 -177l-1 -6q-8 -26 -10 -66q0 -20 4 -39q-18 34 -18 73zM1012 -16q21 -4 43 -4q78 0 138 49q31 26 49 64l35 57q28 44 50 84.5t48 105.5q15 42 16 87q0 38 -16 74q28 -47 29 -105q0 -25 -4.5 -40.5t-13.5 -35.5l-6 -15q-47 -101 -92 -172l-29 -50 q-13 -23 -33 -47.5t-48 -38.5q-37 -22 -93 -25q-38 0 -73 12zM1073 665q0 -8 8 -9q5 0 10 8l175 349q13 27 29 49.5t41 32.5q23 8 47 8l-24 1q-35 0 -68 -26q-30 -29 -46 -67l-171 -340zM1545 847l2 7l148 286l-29 19l48 -22l-151 -292q-4 -7 -10 -7t-8 9z" />
<glyph unicode="&#x107d;" horiz-adv-x="1618" d="M-118 39q49 17 87 59t60 81l21 37l253 534q47 55 106 74.5t120 19.5l21 -1q-2 0 -24.5 3.5t-52.5 13t-53.5 27.5t-23.5 46q0 15 8 34q24 48 40 86.5t16 70.5q0 41 -35 72q47 8 89 8q55 0 91.5 -16.5t36.5 -55.5q0 -12 -4 -26t-12.5 -31t-21.5 -36q-39 -59 -39 -101 q0 -30 15 -52t36 -35.5t43 -19.5l45 -6v-4q-80 -7 -133 -31t-84 -52.5t-44 -50t-178 -361.5l-34 -74q-34 -73 -72 -134q64 17 197.5 108.5t251.5 182.5l84 64l2 3l32 24l289 599q54 59 133.5 81.5t162.5 22.5q79 0 148.5 -12t113.5 -23l43 -12l-121 -257v7q0 62 -11.5 103 t-30.5 67t-44 39.5t-52.5 18.5t-54.5 5q-91 0 -141 -88l-214 -445q56 7 98 7q54 0 92.5 -12t73.5 -37q24 -15 42 -37q17 -25 23 -50t6 -46q0 -22 -6 -47l-65 -130t-105 -183q-36 -29 -84.5 -41.5t-163.5 -17.5q-130 14 -180 75t-50 134q0 44 11.5 82.5t23.5 62.5l11 24 l-131 -95q-131 -95 -265 -177q-91 -57 -162.5 -78t-123.5 -21q-39 0 -67 6.5t-43 13.5zM31 -9l22 -2q43 0 85.5 14.5t80.5 30.5q189 88 360 233q5 5 10 5q7 0 8 -8q0 -5 -6 -10q-80 -67 -173 -130t-191 -106q-34 -14 -72 -23.5t-74 -9.5q-26 0 -50 6zM272 224q4 18 106 223 q17 33 88 179q34 71 97 109t140 49q-159 -40 -221 -166l-192 -393q-6 -10 -11 -10q-6 0 -7 9zM626 931q1 35 11.5 60.5t24.5 46.5q26 36 32 87q0 19 -7.5 40.5t-23.5 35.5q50 -28 50 -83q0 -11 -3 -20q-11 -40 -34 -73q-13 -19 -22.5 -39t-9.5 -41q0 -17 5 -35 q24 -39 71 -51q-29 0 -60.5 16.5t-31.5 45.5q-2 5 -2 10zM757 191q0 -32 15.5 -64t60.5 -51q32 -9 60 -9q53 0 83.5 39t72.5 122q18 32 73 152q14 35 14 62q0 24 -12 50t-40 44.5t-74 18.5q-29 0 -59.5 -12.5t-59.5 -43.5l-122 -236q-12 -42 -12 -72zM810 212q0 21 8 44 l50 102l38 75l8 14q10 21 32.5 38t51.5 17q-26 -5 -41.5 -23t-27.5 -42l-7 -12l-86 -175q-8 -16 -10 -30t-2 -29v-10q0 -22 4 -43q-18 35 -18 74zM955 -11q20 -3 40 -3q33 0 73 12t66 36q30 27 49 63q18 31 33 55q50 74 98 191q14 37 15 81q0 39 -15 78q28 -45 28 -102 q0 -17 -2 -29.5t-6 -24t-9 -25.5l-6 -13q-51 -108 -108 -199l-12 -21q-20 -37 -53 -67q-47 -39 -100 -42l-22 -1q-36 0 -69 11zM1031 665l1 6l144 307q28 63 83 101q19 17 44 22q-37 -14 -65.5 -53.5t-44.5 -77.5l-144 -307q-5 -7 -10 -7q-6 0 -8 9zM1539 900l2 6 q125 258 129 262h-1q-53 22 -114 33q60 -2 119 -18q14 -5 17 -7q-41 -88 -135 -277q-4 -8 -9 -8q-6 0 -8 9z" />
<glyph unicode="&#x107e;" horiz-adv-x="1705" d="M-703 -698q24 23 74 52q158 91 275 91q68 0 106 -34q130 -121 272 -121q14 0 51.5 4t74.5 16l9 2q111 30 223 124.5t169 221.5l57 141q68 177 137 308q-30 57 -30 110q0 39 10 77t22 65l12 26l-130 -95q-131 -95 -265 -177q-29 -19 -56 -33.5t-52 -25.5t-48 -18.5 t-44.5 -12.5t-40.5 -7t-36 -2h-16q-8 0 -20 0.5t-25 3t-23.5 5t-19.5 5.5t-15 6q36 12 67 40t54 59.5t36 55.5l12 23l252 532q47 55 106.5 74.5t119.5 19.5l20 -1l-47 9q-47 9 -83 36q-23 17 -23 44q0 16 8 35q56 108 56 156q0 41 -36 73q47 7 89 7q9 0 38 -1t59.5 -18 t32.5 -52v-2q0 -35 -38.5 -92t-38.5 -97q0 -4 1.5 -27.5t30.5 -48.5t61 -33q25 -4 45 -6v-4q-80 -8 -133 -32t-84 -52.5t-44 -49.5v-1q-13 -19 -13 -21l-165 -341l-34 -72q-35 -73 -73 -134q64 16 197.5 107.5t252.5 183.5l1 1q4 2 6 5h1q6 6 8 6l7 6q2 0 2 2h1l10 7v1 q3 1 17 13q9 7 11 8.5t3 1.5l4 4h1q0 2 2 2l5 4l2 1l1 1q2 2 3 2l33 26l288 598q67 71 167 91q68 14 137 14q31 0 96 -6.5t134 -23.5v-1h3v-1l8 -1l1 -1l11 -2v-1h4v-1h4l1 -1q3 0 4 -1l32 -8l-122 -257q0 103 -28.5 155t-72.5 69q-42 16 -86 16q-99 0 -146 -88l-214 -445 q55 7 98 7q33 0 75.5 -7t90.5 -41q71 -47 71 -136q0 -14 -2 -25v-1q-3 -14 -3 -19l-65 -130q-65 -128 -106 -183q-36 -29 -84.5 -41.5t-163.5 -17.5q-16 1 -31 4l-134 -338q-28 -77 -68 -128q-61 -80 -118 -125q-141 -111 -284 -126q123 25 271 143q49 38 114 121 q38 50 65 123l132 334q-25 5 -46 13q-14 -24 -108 -272q-118 -307 -421 -427q-173 -67 -277 -71l-40 -1q-86 0 -176 17q-181 32 -375 32q-69 0 -151 -3zM116 -18l1 6q10 -1 21 -1q62 0 166 45q43 19 89 44.5t98 59.5q89 59 172 128q6 5 12 5h4q6 -4 6 -11q0 -6 -6 -12 q-198 -165 -365 -236q-76 -34 -148 -34q-26 0 -50 6zM355 218q0 4 194 404q39 83 118 121q57 29 122 38l1 -6q-62 -16 -113 -48q-73 -45 -106 -116l-191 -393q-6 -11 -14 -12q-11 0 -11 12zM714 918q0 55 30 94l21 36q6 11 9.5 20.5t5.5 18.5l2 14v5q0 47 -31 75l-20 15 l23 -10q25 -10 41 -38q12 -23 12 -47q0 -9 -3 -20q-12 -41 -35 -75q-31 -43 -31 -88q0 -11 5 -23q17 -36 69 -50l26 -6h-27q-68 0 -90 46q-7 16 -7 33zM843 188q0 -23 9 -58t66 -60q29 -8 55 -8q21 0 52 7.5t73 84.5l58 107l54 116q1 5 6.5 21.5t5.5 38.5q0 9 -2.5 30.5 t-34.5 51.5q-38 31 -96 31q-56 0 -112 -57l-121 -234v-2q-13 -39 -13 -69zM896 202q0 15 3 30q5 23 62 133q30 62 33 65q13 29 37 47.5t50 18.5h3q-27 -6 -44 -27.5t-32 -49.5q-89 -179 -92 -191q-6 -34 -6 -55q0 -20 4 -40q-18 36 -18 69zM1039 -19l1 6q21 -4 41 -4 q58 0 114 32q42 23 71 78l42 72q50 85 86 165q0 4 3 8q15 43 15 87q0 37 -15 69l6 3q28 -45 28 -99q0 -50 -24 -97q-34 -72 -120 -220q-30 -60 -80 -87q-43 -25 -94 -25q-36 0 -74 12zM1113 659q0 4 147 314q18 41 45 70q40 45 83 55l2 -6q-44 -19 -70 -61q-20 -29 -38 -68 l-145 -307q-4 -8 -12 -9q-12 0 -12 12zM1616 900l2 6q125 258 129 262h-1q-53 22 -114 33q60 -2 119 -18q14 -5 17 -7q-41 -88 -135 -277q-4 -8 -9 -8q-6 0 -8 9z" />
<glyph unicode="&#x107f;" horiz-adv-x="1121" d="M45 226q0 26 5 51q22 93 56 167l35 74l271 566l16.5 19.5t51 44t89 44t130.5 19.5q27 0 56 -3q-11 -139 -72 -234.5t-135.5 -152.5t-126.5 -81l-64 -136q-73 -151 -145 -302q-16 -35 -23.5 -61t-7.5 -59q0 -31 13.5 -57t55.5 -35q30 -7 58 -7q33 0 62.5 14t51.5 50 q39 70 88 169l49 100l68 151q65 150 128.5 285l63.5 135l9 22.5t31 55.5t62 66t101.5 55.5t149.5 22.5q19 0 39 -1l-6.5 -1t-18.5 -4.5t-28.5 -12.5t-36 -25.5t-41 -42t-44 -62t-45.5 -86.5l-379 -797l-13 -24.5t-41.5 -56.5t-75 -57t-113.5 -28q-20 -2 -43 -2q-46 0 -99 11 t-98 41t-69 85q-15 39 -15 80zM224 196q0 52 23 105t62 133q66 141 140 289q0 3 2.5 4t4.5 2q61 29 72 39q80 54 126.5 114.5t97.5 168.5q34 74 51 153q-11 -109 -65.5 -226t-166.5 -207q-4 -4 -37 -25.5t-68 -35.5l-190 -394l-15 -30q-14 -24 -21 -55.5t-7 -51.5 q0 -45 41 -59q-26 5 -38 25.5t-12 50.5zM444 -14q54 4 105 36t72 83q45 102 78 166l302 627q24 52 45 93q17 35 49.5 77t77 73.5t97.5 31.5l11 -1h-4q-59 0 -110.5 -46t-86.5 -109q-29 -55 -35 -70l-28 -57q-198 -411 -243.5 -505.5t-85.5 -178.5q-30 -62 -53 -106 q-28 -57 -80 -85.5t-108 -28.5h-3zM466 710zM484 875q67 45 108.5 94t64 93t31 76t10.5 44q-43 -23 -87 -74.5t-88 -147.5z" />
<glyph unicode="&#x1081;" horiz-adv-x="1096" d="M-598 -738l52 5q52 4 125.5 25.5t144 69.5t110.5 133l104 222l131 274h167q-137 -303 -170 -365l-122 -249l-10 -14q-10 -14 -29.5 -33t-47 -35.5t-61.5 -22.5l-26 -1q-13 -2 -50 -2h2q0 -2 -281 -8zM-156 -734l10 -1q53 0 102.5 40t77.5 90l5 7q4 6 6.5 10.5t6.5 14.5 q130 272 146 308q20 46 118 256h-19q-87 -185 -106 -229q-16 -35 -140 -296q-26 -72 -69 -119q-26 -33 -60.5 -57t-77.5 -24zM-137 31l9 2q9 1 24 7t36 20t45 39t50 64t52 96l369 778l13 24q12 24 40 55t73.5 55.5t110.5 28.5l42 2q49 0 105 -13.5t101 -49t63 -100.5 q6 -24 6 -48q0 -26 -6 -52q-21 -92 -54 -163l-34 -72l-272 -566q-30 -63 -87.5 -99t-126.5 -36h-85q19 9 58.5 42t64.5 80l378 791q30 58 30 114v4q0 30 -13.5 54.5t-53.5 33.5q-29 7 -56 7q-33 0 -61.5 -13.5t-50.5 -48.5q-42 -78 -120 -244l-79 -167l-57 -128h10 q14 0 38.5 -4.5t44.5 -20t20 -49.5q0 -16 -6 -36.5t-20 -46.5l-18 -36q-22 -47 -54 -99t-84 -98t-133 -75t-202 -29h-10q-29 -4 -62 -4zM98 13q93 8 171.5 57t133.5 127q24 37 42 76l79 151q12 28 12 60q0 29 -23 48t-54 24l-30 1q39 79 45.5 94t36.5 76l128 266 q19 38 43.5 67t64.5 38l24 3q17 0 33 -4l-18 1q-38 0 -65.5 -20.5t-44.5 -50.5q-7 -11 -13 -24q-3 -9 -8 -18q-64 -128 -199 -411l8 -2q31 -2 60.5 -26.5t29.5 -63.5q0 -37 -14 -66q-71 -136 -80 -155q-19 -38 -42 -74q-68 -94 -146.5 -134t-162.5 -40h-11zM188 143l4 -1 q20 0 74 43t87 88q18 30 33 56t25 48t15 40.5t5 32.5q0 50 -70 54l-75 -152q-15 -27 -98 -209zM242 188l11 31q5 20 27 61q101 192 105 192q11 0 11 -11l-101 -190q-25 -43 -53 -83zM527 -9l15 8q35 18 69 45.5t65 81.5l43 84l264 560q28 57 49 115q8 26 12.5 38t6 22 t1.5 41q-8 143 -113 205q119 -60 130 -212v-5q0 -47 -17 -84l-4 -10q-23 -66 -53 -126l-22 -45l-278 -593q-25 -48 -77.5 -86.5t-90.5 -38.5z" />
<glyph unicode="&#x1082;" horiz-adv-x="0" d="M-1071 -541q0 -35 12 -79.5t70 -73.5q38 -18 92 -18q74 0 157 36t151 106q43 44 72 99q3 10 6 15t8 22q7 32 7 45q0 18 -9.5 35t-27.5 25l-1 1q-8 3 -15 4.5t-17 1.5q-42 0 -91 -30t-85 -60h-1q0 -2 -1.5 -3.5t-3.5 -1.5l-28 -26q21 6 53 6q58 0 58 -39q0 -35 -35 -74 q-36 -36 -88.5 -64.5t-97.5 -28.5q-19 0 -36 7q-40 21 -40 71q0 73 85 225q31 57 62.5 101.5t61.5 75.5q67 71 127 71l22 -3l2 -1l4 1q0 1 -3 3t-10 6q-17 10 -58 10t-101 -24.5t-131 -96.5q-35 -36 -72 -88q-74 -104 -94 -209q-4 -24 -4 -47zM-912 -537q0 87 129 286 q7 10 10 16q7 15 34 42q16 17 36 30q22 18 44 25l21 3l14 -1q-95 0 -217 -249q-50 -88 -50 -144q0 -54 46 -77q-67 10 -67 69zM-819 -737q147 50 259 157q101 111 101 202q0 31 -12 58l2 -2q31 -36 31 -65q0 -18 -7 -38q-21 -64 -85 -141.5t-149 -120.5q-74 -41 -140 -50z " />
<glyph unicode="&#x1083;" horiz-adv-x="565" d="M-395 -603q0 21 6 66t55 137q69 134 119.5 238.5t198.5 404.5q209 424 288 596.5t79 234.5q0 26 -9.5 43.5t-24.5 37.5l-2 3q-4 5 -20.5 16t-53.5 27q96 -19 159.5 -22.5t82.5 -3.5q61 0 85 18l4 1q6 0 6 -5q0 -32 -205 -454q-327 -683 -438.5 -917t-149.5 -315 q-32 -72 -32 -133q0 -44 26.5 -110t123.5 -98q25 -8 110 -17.5t208 -9.5q124 0 264 23t274 81q71 30 143 30q28 0 91.5 -10t139.5 -84q13 -14 22.5 -27.5t11.5 -24.5q-146 9 -279 9q-49 0 -159 -3.5t-262 -13.5q-164 -13 -304 -13q-52 0 -166.5 4.5t-254.5 76.5 q-89 47 -125 140q-12 33 -12 74zM-153 -615q0 -49 20.5 -92t65.5 -61q28 -8 57 -8h10q-74 2 -112 57q-13 23 -18 50t-5 54q0 66 29 127q780 1655 780 1659q0 8 -7 9q-6 0 -12 -11l-350 -746l-428 -904q-30 -64 -30 -134z" />
<glyph unicode="&#x1084;" horiz-adv-x="937" d="M67 204v14q0 44 11.5 83t23 63l11.5 24q63 137 138 286q14 30 38.5 45.5t71.5 19.5l160 -10l-92 27q-33 11 -49.5 43t-16.5 69q0 25 7.5 47.5t13.5 32.5l72 154q25 30 89 65l1 2q94 39 201 39q50 0 105 -24t90 -63q19 -24 31 -53t12 -70q0 -40 -11 -73.5t-22 -53.5 l-11 -20q-13 -28 -26.5 -41t-30 -16.5t-40.5 -3.5q-67 0 -129 8q31 0 53 30t37 63.5t24 48.5q22 50 20 96q0 31 -14 57t-55 35q-30 8 -61 8q-56 0 -87 -40q-11 -14 -21 -29l-87 -187q-11 -21 -11 -42q4 -52 36 -82t81 -30h34l-22 -45l-161 -10q-63 -12 -93 -68l-177 -341 l-6.5 -22t-6.5 -53q0 -32 15.5 -64.5t60.5 -51.5q27 -7 50 -7q34 0 63 21.5t61 80.5q47 90 97.5 198.5l50.5 108.5q7 14 17 35q37 75 119 87l117 -8q-36 -32 -72.5 -95t-62 -118l-25.5 -55l-49 -101t-89 -152q-37 -30 -86 -42.5t-166 -18.5q-92 9 -140 40.5t-67.5 74 t-24.5 84.5zM252 197q0 20 6 40q12 19 20 37q88 163 186 324q18 24 46.5 32.5t55.5 8.5h12q-64 -5 -100 -50q-14 -28 -31 -54q-79 -134 -153 -270q-12 -20 -20 -38q-3 -13 -5 -20.5t-2 -20.5q1 -24 9.5 -43.5t34.5 -29.5q-31 8 -44 29.5t-15 54.5zM526 0q43 15 68 51 q90 167 170 340q15 32 33 61q19 33 41 61q12 18 27.5 36t34.5 27q-18 -12 -30 -31.5t-21 -38.5q-80 -142 -111 -210.5t-95 -190.5q-17 -32 -39 -63q-33 -34 -78 -42zM560 842q0 38 16 71t33 67q26 48 48 93q5 5 8 7q19 20 50 21q24 0 44 -11l-19 3q-38 0 -62 -25l-6 -5 l-46 -91q-24 -48 -38 -82t-16 -75q0 -17 6 -35q-20 27 -18 62zM945 1194q40 -30 63 -82t23 -104q0 -41 -11.5 -76t-31.5 -71l-39 -68l-1 -4q0 -8 9 -9q5 0 8 4l38 68q22 36 34.5 74.5t12.5 80.5q0 36 -11 73t-32 63q-28 32 -62 51z" />
<glyph unicode="&#x1085;" horiz-adv-x="0" d="M-435 1401q0 11 1.5 23.5t4.5 26.5l19 47l22 54l10 12t30 27t50 27t71 12q42 0 94 -18q-19 11 -50.5 24.5t-58 37.5t-26.5 69q0 42 33 105q3 7 10.5 13l7.5 6q47 30 95 45t159 15h14q23 0 68.5 -15.5t69.5 -57.5q16 -29 16 -62q0 -30 -15 -58.5t-49 -49.5l-35 -20 q27 27 42 47t15 55q0 39 -28.5 70t-70.5 31l-18 -1q-9 0 -29.5 -3.5t-43.5 -16t-42 -39.5l-43 -80q-7 -12 -9 -28t-2 -27v-14q0 -17 10 -28t28 -19t42 -14.5t52 -14.5q10 -5 10 -14q0 -10 -7.5 -12.5t-22.5 -2.5q-55 0 -97 2q-49 0 -86 -16t-70 -71l-30 -79q-6 -10 -6 -20 q0 -18 15.5 -31t37.5 -13q40 2 61.5 11t32 22.5t17 30.5t14.5 34q12 42 39.5 57t68.5 15q12 0 24.5 -0.5t26 -2t28.5 -3.5t30.5 -4t32.5 -4q-39 -14 -59 -25.5t-32 -32.5t-30 -63q-27 -58 -89 -74q-46 -10 -102 -10q-91 0 -179 15q-31 13 -51.5 39t-20.5 71zM-278 1364 q0 13 5 24q19 38 38 82q15 33 48 47.5t69 14.5q23 0 45 -2q-48 -7 -92 -20q-40 -13 -55 -43q-21 -40 -38 -84q-8 -14 -8 -26q1 -6 4.5 -9t13.5 -3q9 0 18 3q-11 -6 -22 -8l-3 -1q-19 0 -23 25zM-93 1674q2 16 6 27q10 29 16.5 37.5t22.5 36.5q17 29 46.5 47.5t62.5 18.5 q36 0 56 -24q-22 12 -43 12q-71 0 -108 -61q-23 -38 -39 -70q-3 -10 -4 -14.5t-1 -14.5q0 -14 9 -26t27 -14l-4 -1q-11 0 -21.5 4.5t-17.5 14.5q-8 13 -8 27zM-31 1268q34 28 60 62q18 28 33 63q36 63 104 66l42 1q-40 -10 -67 -18.5t-45.5 -27.5t-35.5 -60q-27 -60 -91 -86 zM174 1915q2 3 6 3q21 -3 26 -7.5t21 -17.5q33 -30 41 -96q0 -48 -21.5 -80t-58.5 -58q25 30 41 60q12 20 18 37.5t6 40.5q-2 34 -20 64q-12 19 -27 35q-11 15 -28 21z" />
<glyph unicode="&#x1086;" horiz-adv-x="3" d="M-449 1388q0 25 17 57q49 67 119 67q17 0 32 -5q44 -18 44 -64v-10q-11 -42 -66 -42l-30 1l-1 1q0 2 -4 6q-10 17 -24 17q-3 0 -10 -2t-18 -20q-7 -13 -7 -24q0 -20 23 -34q29 -18 72 -18h14q96 10 189 64t125 124l22 52q-17 0 -34 3q-70 15 -104 73q-21 36 -21 75 q0 25 9 52l12 35q24 65 83 100q44 25 94 25q95 0 140 -76q19 -35 19 -73q0 -26 -9 -53l-11 -35v-1h-1q-2 -9 -7 -21q-9 -15 -40 -104q-32 -79 -87 -137t-78 -70q-50 -33 -136 -48q-60 -10 -118 -10q-28 0 -84 4.5t-100 41.5q-24 19 -24 49zM-113 1292q84 0 173 62 q97 60 136 167l72 177q15 36 15 80q0 75 -48 123q42 -32 57 -87q7 -24 7 -49q0 -39 -15 -74l-81 -198q-12 -32 -37 -63q-41 -52 -96 -90q-72 -50 -154 -50q-15 0 -29 2zM-29 1670q0 -11 1 -22q8 -54 44 -54q13 0 31 12t36 45q5 5 15 36l19 61q20 63 20 87l-1 10 q-8 35 -36 38l-16 1q-17 0 -33.5 -8t-29.5 -31t-23 -57l-18 -57q-9 -32 -9 -61zM-16 1671q0 8 23 91q7 27 11 34l1 2q13 32 26 47q19 25 53 25q10 0 19 -2q-34 -2 -59 -33q-13 -16 -23 -43q-7 -17 -11 -35q-23 -78 -23 -83q0 -14 2 -28q1 -21 14 -41q-16 13 -25 34 q-8 14 -8 32z" />
<glyph unicode="&#x1087;" horiz-adv-x="400" d="M-252 -61q0 25 17 40.5t35 15.5q32 0 50 -36l1 -1l1 -5q0 -2 -2 -3q-8 3 -19 3q-19 0 -34.5 -11t-15.5 -23q4 -24 18.5 -34t39.5 -10q33 0 63 18q60 40 110 107q-11 -3 -20 -6.5t-22 -3.5q-14 0 -27 5q-42 19 -55.5 52.5t-12.5 66.5q2 30 5 44l3 14l54 127q20 42 57 59 q28 15 48 20.5l20 5.5q21 3 39 3q32 0 52.5 -10.5t39.5 -28.5q11 -10 19 -25q10 -25 10 -48q-1 -21 -4 -33l-3 -12l-38.5 -84t-61.5 -120l-17.5 -28t-49 -64.5t-75 -64.5t-96.5 -28q-27 0 -56 10t-51 34q-22 29 -22 54zM-197 -83q7 23 29 20l8 -1q-28 -3 -28 -25 q2 -7 10 -11t23 -4q12 2 25 3l8 2q-9 -7 -20 -12l-7 -1h-14q-8 0 -18.5 4.5t-14.5 15.5q0 5 -1 9zM-57 -175q16 7 33 16q47 27 73.5 50.5t55.5 67.5q31 46 55 95l50 99q16 33 27 66t11 72q1 45 -17 64q19 -18 24 -43q4 -17 4 -35v-7q-6 -61 -39 -122l-50 -99 q-35 -71 -81 -130t-99 -79l-12 -4.5t-11 -3.5zM-52 92q0 -17 5.5 -32.5t21.5 -25.5q14 -6 28 -6t28.5 12.5t32.5 46.5q37 69 67 140l5.5 13.5t6.5 35.5q0 21 -11 41.5t-40 20.5q-13 0 -28 -8t-30 -28l-73 -148l-6 -17.5t-7 -44.5zM-20 102q-1 24 7 43l54 116q9 19 20.5 32 t27.5 13l3 -1q-16 -3 -25 -17.5t-18 -32.5l-53 -115q-8 -22 -9 -46v-26q-5 16 -7 34z" />
<glyph unicode="&#x1088;" horiz-adv-x="631" d="M-182 -59q0 29 17 46.5t39 18.5q38 -1 57 -38l1 -1l2 -6q0 -3 -3 -3l-20 2q-50 -7 -55 -39q10 -48 59 -48q92 0 195 147q-35 -12 -46 -13q-16 0 -31 5q-48 18 -64 55t-17 74q1 42 6 61l56 148q31 73 134 99l2 1q26 5 49 5q31 0 53.5 -10.5t44.5 -29.5q35 -30 35 -80 q0 -24 -2.5 -36t-3.5 -12v-3l-39 -94q-39 -96 -64 -137l-31 -52q-32 -53 -89.5 -105t-136.5 -59h-6q-28 0 -59 9.5t-56 35.5q-27 31 -27 59zM-120 -81q6 23 26 23h15q-30 -6 -30 -25v-4q1 -6 5.5 -9.5t12.5 -5t19 -1.5q12 3 16 3t20 4q-9 -8 -20 -13l-1 -1q-17 -2 -27 -2 q-20 0 -34 21zM34 118q0 -41 33 -61l3 -1q15 -5 28 -5q16 0 31.5 14.5t34.5 53.5q7 16 13 27q17 36 56 132l1 1v3q10 20 10 51q0 25 -13.5 46t-45.5 21q-15 0 -31.5 -10t-32.5 -33l-76 -170l-5 -17q-6 -20 -6 -52zM40 -178l36 19q52 33 80 59.5t59 77.5q30 48 53 99l56 122 q36 71 36 154q0 51 -21 71q21 -18 24 -36q9 -19 11 -49q0 -67 -39 -146l-51 -112q-37 -80 -85.5 -148t-106.5 -92q-17 -7 -52 -19zM70 143q0 20 6 37l55 131q19 47 52 53l3 -1q-28 -9 -41 -47l-4 -11l-55 -129q-8 -25 -8 -52l1 -29q-9 27 -9 48zM271 864q2 33 5 49l4 16 l60 141q22 47 64 66q31 17 53.5 23l22.5 6q23 3 43 3q36 0 59 -12t44 -31q12 -12 21 -28q11 -29 11 -54q-1 -23 -4.5 -36.5l-3.5 -13.5l-42.5 -93.5t-68.5 -133.5q-23 -21 -51.5 -30.5t-94.5 -14.5q-77 11 -100 54t-22 89zM352 840q0 -20 6.5 -37.5t24.5 -27.5q16 -7 31 -7 q16 0 32 13.5t36 52.5q41 76 74 156l5.5 13.5t8.5 36.5v4q0 24 -12 47t-45 23q-14 0 -31 -9t-34 -31l-81 -165l-5.5 -18t-9.5 -45v-6zM389 850q-1 27 7 48q30 66 60 129q11 21 24 35.5t30 14.5h3q-17 -3 -27.5 -19.5t-19.5 -36.5l-60 -128q-9 -25 -10 -51v-30q-5 18 -7 38z M447 706q12 -2 24 -2q34 0 63 19.5t50 61.5q45 78 79 159q6 10 9 19q14 32 14 76q0 21 -5 40q12 -27 12 -57q-3 -52 -23 -95t-49 -97l-28 -53q-17 -33 -39.5 -54.5t-53.5 -24.5q-34 0 -53 8z" />
<glyph unicode="&#x1089;" horiz-adv-x="432" d="M-70 124q2 30 5 44l3 14l54 127q20 42 57 59q28 15 48 20.5l20 5.5q21 3 39 3q32 0 52.5 -10.5t39.5 -28.5q11 -10 19 -25q10 -26 10 -48q-1 -21 -4 -33l-3 -12l-38.5 -84t-61.5 -120q-20 -19 -45.5 -27.5t-85.5 -12.5q-69 10 -89.5 48.5t-19.5 79.5zM3 102 q0 -17 5.5 -33t21.5 -25q15 -6 28 -6q14 0 28.5 12t32.5 47q37 69 67 140l4.5 12t7.5 33v4q0 21 -10.5 41.5t-40.5 20.5q-13 0 -28 -8t-30 -28l-73 -148l-5 -16t-8 -40v-6zM36 112q-1 24 6 42q27 59 54 116q10 19 21.5 32t26.5 13h3q-15 -3 -24.5 -17.5t-18.5 -32.5 l-53 -115q-8 -22 -9 -46v-26q-5 16 -6 34zM88 -18q11 -2 21 -2q31 0 57 17.5t45 55.5q40 70 71 143q5 9 8 17q12 28 12 68q0 19 -4 36q10 -24 10 -51q-2 -47 -20 -85.5t-44 -87.5l-25 -47q-29 -62 -84 -71q-30 0 -47 7z" />
<glyph unicode="&#x108a;" horiz-adv-x="749" d="M10 220q0 78 59 141q42 40 99 52q16 3 32 3q41 0 81 -19q51 -25 81 -75.5t30 -106.5q0 -15 -2 -30v-8l-1 -13l-1 -3q72 35 118 97q66 94 66 198l-1 26q0 3 2 3q3 0 9 -4t13 -12.5t15 -21.5t15 -31q14 -35 14 -84l-2 -29q-6 -69 -55 -136q-51 -59 -84 -79q-30 -22 -52 -32 q-21 -11 -56 -23q-36 -15 -114 -24h-12q-19 0 -37 4q-11 -2 -21 -2q-56 0 -102 33t-72 84q-22 45 -22 92zM10 755q0 78 59 141q42 40 99 52q16 3 32 3q41 0 81 -19q51 -25 81 -75.5t30 -106.5q0 -15 -2 -30v-8l-1 -13l-1 -3q72 35 118 97q66 94 66 198l-1 26q0 3 2 3 q3 0 9 -4t13 -12.5t15 -21.5t15 -31q14 -35 14 -84l-2 -29q-6 -69 -55 -136q-51 -59 -84 -79q-30 -22 -52 -32q-21 -11 -56 -23q-36 -15 -114 -24h-12q-19 0 -37 4q-11 -2 -21 -2q-56 0 -102 33t-72 84q-22 45 -22 92zM129 183l1 -2q1 -2 1 -3l10 -11l9 -5l8 -3l12 -1h17 q7 0 15 1q16 6 32 15l12 10l9 11q2 1 2 3q0 -2 -1 -3l7 12q0 13 6 25l3 6l2 8v6l-2 3q-2 0 -1 1q-2 1 -2 2l-10 5q0 1 -1 2q-5 0 -12 3l-9 3h-7q-12 0 -24 -4q-18 -6 -34 -15q-14 -11 -26 -23l-4 -6l-0.5 -0.5l-0.5 -0.5q-5 -9 -9 -19q0 -3 -2 -6l-1 -9v-5zM129 718l1 -2 q1 -2 1 -3l10 -11l9 -5l8 -3l12 -1h17q7 0 15 1q16 6 32 15l12 10l9 11q2 1 2 3q0 -2 -1 -3l7 12q0 13 6 25l3 6l2 8v6l-2 3q-2 0 -1 1q-2 1 -2 2l-10 5q0 1 -1 2q-5 0 -12 3l-9 3h-7q-12 0 -24 -4q-18 -6 -34 -15q-14 -11 -26 -23l-4 -6l-0.5 -0.5l-0.5 -0.5q-5 -9 -9 -19 q0 -3 -2 -6l-1 -9v-5zM232 271zM232 806zM257 198l1 3zM257 733l1 3z" />
<glyph unicode="&#x1090;" horiz-adv-x="1270" d="M69 304q0 30 6 60q27 112 68.5 200.5l41.5 88.5l324 680l19.5 23t61.5 53t107.5 53t157.5 23h12q10 0 28 -3t20 -3q68 -10 132.5 -47t96.5 -110q18 -47 18 -97q0 -30 -6 -60q-27 -113 -68.5 -201.5l-41.5 -88.5l-325 -679l-19.5 -23.5t-61 -53t-107.5 -53t-158 -23.5 q-77 2 -162 39t-126 125q-18 47 -18 97zM233 248q0 -36 16.5 -67t65.5 -42q34 -7 66 -7h9q64 3 110 60.5t88 152.5q120 263 174 373q14 24 100 208t112 239q24 55 24 117q0 37 -16.5 67t-65.5 41q-36 8 -70 8q-65 0 -108 -50q-50 -67 -90 -153.5t-107 -232.5 q-93 -193 -203 -425q0 -1 -2 -3q-30 -67 -80 -172q-23 -56 -23 -114zM276 277q0 41 11 66.5t28 56.5l394 811q8 18 27.5 53t47 65.5t61.5 30.5h6q-24 0 -43 -19q-23 -19 -40 -51.5t-28 -57.5q-200 -414 -408 -840q-21 -40 -33.5 -70.5t-12.5 -71.5q0 -29 7 -59 q-17 42 -17 86zM505 15q13 -2 26 -2q57 0 114.5 37t99.5 93q41 66 178 346t223 477q27 64 51 129.5t24 133.5q0 75 -42 141t-119 105q55 -20 108.5 -71t66.5 -125q5 -18 5 -54q0 -35 -7 -66.5t-15 -56.5q-33 -94 -93.5 -229t-88.5 -193q-80 -166 -237 -481q-24 -51 -62 -94 t-86.5 -69t-104.5 -26q-21 0 -41 5z" />
<glyph unicode="&#x1091;" horiz-adv-x="1083" d="M-84 30l23 8.5t58.5 33.5t76.5 73.5t78 127.5l144 298l123 252l239 501l-122 7q-14 1 -28 1q-123 0 -235 -60l29.5 31t76 71.5t98 72.5t97.5 37l494 1l-10.5 -3t-28.5 -12t-42 -25.5t-50.5 -43t-53.5 -65.5t-52 -93l-143 -298l-363 -754q62 -2 92 -5l57 -3q124 0 237 61 l-31 -32.5t-79 -74.5t-103 -74.5t-104 -32.5h-478zM257 1146q0 36 19 64.5t46 42.5l3 2q45 23 96.5 31.5t104.5 8.5q40 0 80 -4q7 -3 7 -10q0 -9 -8 -12q-18 0 -18.5 2t-55.5 2q-53 0 -103.5 -8.5t-92.5 -28.5q-18 -9 -43 -31t-35 -59zM413 219q46 68 97 184l388 828 q30 68 88 131q47 51 108 80q-62 -38 -104 -98.5t-73 -121.5l-419 -897q-24 -53 -58 -106h-27z" />
<glyph unicode="&#x1092;" horiz-adv-x="1120" d="M0 227q0 46 16 86l16 40q35 65 85.5 101t100 51.5t82.5 18.5l34 3l112 11q111 13 161 114l235 492l7 14q0 2 1 3t2 4q8 21 13 39t8 36t3 39q0 37 -16.5 68.5t-66.5 42.5q-35 8 -68 8t-66 -11.5t-53 -36.5q-8 -12 -17 -30.5l-9 -18.5q-6 -11 -8 -26.5t-2 -26.5v-11 q8 -57 48.5 -78t84.5 -38q-81 -3 -147.5 -15.5t-114.5 -94.5q-18 -53 -47.5 -75t-64.5 -22q-39 0 -82.5 20.5t-83.5 50.5l13 -1q32 0 56.5 21.5t41.5 48.5t26 48l8 22l19 51l8 14t26.5 28t50.5 14q19 0 42 -7t51 -23q-16 11 -35 28.5t-33 41.5t-14 54q0 28 19 62l17 17 q54 38 116.5 60t154.5 22h14q80 -5 147 -35t108 -86t41 -140q0 -21 -1 -32t-2.5 -16t-2.5 -8t-1 -8q-26 -111 -66 -195q-74 -156 -170 -349q-61 -120 -190 -160q-41 -12 -68.5 -16.5l-27.5 -4.5q-46 0 -49 2.5t-64 2.5q-84 0 -146 -62q-12 -12 -32.5 -38t-38 -58.5 t-17.5 -63.5q0 -18 9 -34q33 -54 67 -82t67 -40t62 -17.5t52 -15.5l-28.5 -3t-71.5 -3q-56 0 -123.5 12t-121 48.5t-72.5 107.5q-4 17 -4 35zM244 215q0 23 14.5 53.5t40 57t57.5 41.5q36 16 81 22t85 6h52q24 0 76 14q72 24 134 86.5t88 146.5q-41 -91 184 406 q19 42 20 44.5t9 30.5q17 56 17 112q0 82 -43.5 151.5t-124.5 110.5q85 -36 138 -107t53 -170q0 -23 -7 -67t-21 -78q0 -1 -46 -102.5t-135 -295.5l-17 -39l-3 -5q-33 -98 -111 -172.5t-185 -88.5q-14 -3 -29 -3l-29 1q-69 0 -117.5 -6.5t-84.5 -30t-66 -72.5 q-6 -10 -12 -24t-6 -28q0 -36 23.5 -70.5t52.5 -58.5q-31 22 -59.5 57t-28.5 78zM414 896q35 25 50.5 47t24.5 42t24 40q26 30 65 43.5t75 19.5l18 3q23 3 45 3l55 -3q-127 -30 -114 -25q-35 -5 -70.5 -17.5t-56.5 -37.5q-6 -4 -27 -48q-16 -31 -38 -43q-25 -16 -51 -24z M618 1261q0 43 33 75t69 32q18 0 33 -5.5t27 -12.5l-15 1q-14 0 -61 -7q-27 -8 -45.5 -31t-18.5 -51q0 -16 6.5 -37.5t22.5 -36.5q-27 10 -39 30t-12 43z" />
<glyph unicode="&#x1093;" horiz-adv-x="1258" d="M-164 35q76 10 131.5 49.5t91 87t52.5 83.5l17 36l409 821l38 81.5t92 171.5l13.5 16.5t44 38t81 38t125.5 16.5q22 0 41 -4t29 -9q-58 -20 -104.5 -71t-73.5 -98.5l-27 -47.5l-44 -92q-9 -41 -9 -76q0 -41 6.5 -70.5l6.5 -29.5l230 -739q26 -77 62.5 -121.5t126.5 -91.5 h-16q-94 0 -160.5 23t-110 56.5t-68.5 67t-35 56.5l-10 23l-42 147t-103 339q-15 44 -29 97q-97 -201 -192 -388t-128 -255q-57 -69 -117.5 -103t-119.5 -44t-111 -10q-54 0 -97 2zM90 19q80 17 146 72t107 132q16 32 31 66l83 144l124 266q7 11 15 11q10 0 12 -13 q0 -5 -2 -10q-103 -223 -119.5 -256.5t-87.5 -153.5q-28 -66 -63.5 -119.5t-103.5 -94.5q-66 -38 -142 -44zM784 1065q0 108 57 204t152 158q-78 -63 -129.5 -162t-51.5 -202q0 -71 24 -140l175 -547q22 -81 58 -159.5t106 -127.5q-78 43 -123 120.5t-68 158.5 q-38 121 -174 546q-26 74 -26 151z" />
<glyph unicode="&#x1094;" horiz-adv-x="1451" d="M-157 33q79 10 141 49.5t105.5 88t66.5 85.5l23 36l630 995q55 84 148 132t238 54q18 -3 27 -8q-10 -2 -21 -7h6q-36 -12 -63.5 -52.5t-46.5 -92.5q-46 -124 -46 -248l10 -899l111 10q73 13 131.5 43.5t91.5 61.5l-12.5 -32t-43.5 -76t-84.5 -83.5t-134.5 -56.5 q-20 -3 -27 -3h-484l35.5 4t83.5 23.5t88 64.5t53 126q7 494 13 850q-370 -593 -564 -909q-51 -69 -106.5 -104.5t-111 -47.5t-107.5 -12q-43 0 -81.5 4t-68.5 4zM166 0q80 29 144.5 102.5t111.5 153.5l415 696q3 6 6.5 9.5t7 5.5t6.5 2q8 0 9 -11q0 -3 -1.5 -7.5t-4.5 -9.5 l-414 -697q-49 -80 -122 -151t-158 -93zM1103 1081q0 29 2 58q5 72 37 151.5t103 134.5q53 38 111 48q-123 -35 -176 -150q-26 -56 -37.5 -116t-11.5 -121l18 -842q0 -14 -5 -22t-10 -8q-4 0 -6.5 3t-4.5 8.5t-2 13.5q-10 418 -16 786z" />
<glyph unicode="&#x1095;" horiz-adv-x="1352" d="M5 300q0 34 7 67q14 53 61 160.5t65 148.5l31 65q4 6 20 41q39 70 92 103.5t103 43t76 9.5l20 -1h325q83 186 150 329q26 53 77.5 103.5t105.5 73.5q79 30 132.5 36l53.5 6q-21 -9 -75.5 -68t-109.5 -164q-45 -94 -250 -551l-205 -457l-16 -30t-51 -69t-91 -69.5 t-136 -35.5q-23 -2 -51 -2q-55 0 -118.5 13.5t-117 50t-81.5 104.5q-17 45 -17 93zM168 246q0 -36 16 -67t64 -41q36 -8 69 -8q40 0 75.5 17t63.5 61q53 96 149 298.5l96 202.5l74 162q-28 0 -115 -2q-63 0 -98 2q-60 0 -110.5 -31t-79.5 -86l-165 -357q-20 -42 -29.5 -76 t-9.5 -75zM217 266q0 24 5 42t12 37q36 82 178 374q42 90 129 114q26 6 52 6q16 0 32 -2q-53 -2 -108.5 -34t-84.5 -94q2 13 -177 -372q-5 -13 -10 -29t-8 -33.5t-3 -34.5q0 -35 25 -64q-22 15 -32 39.5t-10 50.5zM488 0q95 20 162.5 81.5t102.5 148.5l386 886 q22 46 79 141.5t144 171.5q45 40 101 56q-50 -17 -92.5 -61.5t-74.5 -89.5q-70 -104 -132 -230l-366 -841q-21 -49 -42 -87t-61 -77q-88 -85 -207 -99z" />
<glyph unicode="&#x1096;" horiz-adv-x="1004" d="M0 891q0 30 5.5 49l5.5 19l87.5 182t139.5 253q45 36 105 51t202 22l24 -1q50 0 113 3q44 0 82.5 -6t61.5 -24q29 -24 46 -48.5t17 -56.5q0 -12 -2 -25q-14 -62 -37 -121l-23 -60l-143 -314l-262 -543l-11 -26t-22.5 -64.5t-11.5 -76.5q0 -24 7.5 -44.5t24.5 -33.5 q-75 9 -123 59q-10 9 -23 26.5t-23 44t-10 64.5q0 22 3.5 50t9.5 53.5t14 41.5l155 319q-155 -1 -213.5 5t-113.5 46q-46 30 -65.5 71.5t-19.5 84.5zM178 886q0 -25 9.5 -52t35.5 -51q42 -33 116 -33q45 0 111 7l233 483l10 21.5t10 47.5q0 15 -5.5 28.5t-18.5 25t-36 18 t-59 6.5h-8q-18 4 -37 4q-57 0 -113.5 -39.5t-102.5 -124.5l-41 -76l-88 -189l-8 -22t-8 -54zM230 886q0 20 6.5 34.5t14.5 29.5q84 184 145 283.5t153 110.5q11 1 23 1q40 0 76 -16q-21 5 -42 5q-35 0 -76.5 -17t-69.5 -44q-63 -59 -94 -144q-33 -68 -93 -192 q-8 -16 -15.5 -30t-7.5 -39q0 -8 3 -19.5t9 -23t14.5 -20.5t19.5 -14q-28 7 -47 36t-19 59zM450 110q0 37 9 86t29 92q33 74 64 134l313 646q9 18 31 66t42 112t20 128q0 49 -19 95q17 -29 23 -63t6 -65q0 -58 -13 -113t-38 -112q-15 -29 -29 -59l-313 -647 q-70 -142 -78 -159.5t-17 -45.5q-8 -25 -15 -54t-7 -57q0 -20 6.5 -39.5t25.5 -29.5q-24 10 -32 35.5t-8 49.5z" />
<glyph unicode="&#x1097;" horiz-adv-x="1099" d="M-167 21l5 1.5t14 4.5t21.5 9t27.5 15.5t32.5 22.5t36.5 31t38.5 41.5t39.5 52.5t39 65l165 298q68 119 416 757l-333 8q-124 0 -241 -60l54 51t127 102t136 59l678 1l-15 -5t-41 -19t-59 -40.5t-68.5 -70t-70.5 -107.5l-165 -299q-42 -72 -416 -757l493 -7l26 -1 q123 0 241 60l-33 -32.5t-84 -74t-108.5 -74t-106.5 -32.5h-849zM340 234q94 191 515 934q62 104 152.5 189t199.5 123q-103 -44 -186 -133t-143 -191q-154 -273 -239 -423.5t-256 -474.5q24 -3 47 -4q179 -6 270 -6q156 0 285 36q-78 -31 -177 -46t-206 -15 q-118 0 -161.5 2.5t-100.5 8.5z" />
<glyph unicode="&#x1098;" horiz-adv-x="1194" d="M0 298q0 30 6 60q26 113 68 202l42 88l92 190l13 16.5t41 40t71.5 46.5t104.5 37q-6 7 -14 16t-17 22.5t-17 33.5q-19 46 -19 95q0 50 17 107t32 97q25 62 78.5 99t118.5 37h210q-44 -6 -75.5 -18t-53.5 -28t-36.5 -33t-23.5 -33.5t-15 -30.5q-83 -172 -64 -137 q-24 -54 -24 -111q0 -35 14 -65.5t56 -43.5q9 0 37 -6q24 -4 47 -4q66 0 111.5 56t90.5 157q53 117 102 222v1q42 74 117 74h187q-24 -8 -51 -36.5t-54 -70.5t-53 -90t-48.5 -95t-39.5 -86t-26.5 -62.5l-9.5 -23.5q-24 -47 -69 -75q-16 -10 -35 -22t-44 -22.5t-61 -15.5 l1 -2q53 -64 53 -154q0 -30 -6 -60q-27 -113 -68 -201l-41 -88l-93 -190l-19.5 -23.5t-61.5 -53t-107.5 -53t-157.5 -23.5q-50 0 -108 17t-106.5 53t-73.5 93q-18 47 -18 97zM163 246q0 -38 16.5 -69.5t66.5 -42.5q35 -8 67 -8h8q63 3 109 59.5t89 153.5l152 329q1 0 1 0.5 v1.5q24 53 24 115q0 34 -14 64t-55 43q-7 0 -39 7q-23 3 -46 3q-31 0 -58 -11.5t-47 -37.5q-50 -65 -86.5 -144t-99.5 -216l-64 -137q-24 -54 -24 -110zM203 270q0 19 2.5 28t3.5 15q9 29 28 62q162 324 189.5 380t30.5 57q16 23 38 38.5t47 15.5l8 -1q-24 -3 -48.5 -26.5 t-39.5 -53.5l-223 -447q-20 -38 -20 -105q0 -23 5 -47q-21 40 -21 84zM503 30q58 17 103.5 45.5t77.5 77.5q27 41 50 94.5t64 141.5q39 81 73 182t34 188q0 37 -9 70q0 2 -1.5 5t-3.5 7.5t-4 10t-3 11.5l1 1q25 3 58 16.5t64 45.5q31 34 54 83.5t42 94.5q32 72 72 156 q78 162 226 225q-104 -55 -162 -154q-44 -82 -110 -238q-20 -46 -44 -96.5t-58 -89.5q-39 -41 -92 -59q-8 -4 -15 -4l2 -4l5 -20.5t5 -56.5q0 -98 -34 -198.5t-75 -187.5q-43 -96 -86 -180t-126 -130q-52 -26 -108 -37zM574 1098q0 28 11 65.5t28 76t34 72t29 54.5 q11 15 25 30.5t46 36.5q78 47 173 47q-66 -19 -136 -57q-34 -19 -52 -34t-30 -34.5t-28 -51.5q-1 -2 -13 -26.5t-27.5 -62t-27.5 -77t-12 -68.5q0 -23 10 -34.5t22 -18.5q-20 5 -35 22q-10 12 -13.5 28.5t-3.5 31.5z" />
<glyph unicode="&#x1099;" horiz-adv-x="1319" d="M-159 30q24 8 50.5 36.5t54 70.5t53.5 90t48.5 95t39.5 86t26.5 62.5l9.5 23.5q24 47 69 74q24 16 55.5 34t84.5 27l-1 2q-54 61 -54 152q0 31 7 62q26 112 67.5 200.5l41.5 88.5l93 190l19.5 23.5t61 53t107.5 53t158 23.5q91 -4 170 -41.5t118 -121.5q18 -47 18 -97 q0 -31 -6 -61q-27 -112 -68.5 -200.5l-41.5 -88.5l-92 -190l-13.5 -16.5t-41 -40t-71.5 -46.5t-105 -37q36 -36 51.5 -78.5t15.5 -89.5q0 -52 -18 -111.5t-31 -91.5q-25 -62 -78 -99t-118 -37h-210q43 6 75 18t54 28t36 33t23.5 33.5t15.5 30.5q48 98 67.5 145.5t19.5 102.5 q0 35 -13.5 65t-55.5 43q-4 1 -8 1q-20 4 -36.5 7t-39.5 3q-67 -3 -112.5 -59t-89.5 -154l-103 -223q-41 -74 -116 -74h-187zM83 3q50 23 75 54t51 75q53 104 77.5 175t74.5 141q21 27 53.5 47.5t71.5 20.5q10 0 21 -2q-38 0 -70 -26.5t-54 -56.5q-54 -70 -83 -165 q-1 -3 -19.5 -48.5t-48.5 -99t-66 -81.5q-39 -27 -83 -34zM442 730q0 -35 14 -64.5t55 -42.5q7 0 30 -5.5t52 -5.5q32 0 59 11t49 39q47 60 83 137.5t103 222.5q75 160 64 136q23 57 23 115q0 36 -16.5 66.5t-65.5 41.5q-39 8 -75 8q-63 -3 -109 -59.5t-89 -153.5l-153 -331 q-26 -60 -24 -115zM496 784q0 24 7.5 41t27.5 62l77 175q7 18 39 88t65 115q29 39 67.5 66t80.5 27l17 -2q-45 0 -84.5 -37.5t-71.5 -90.5t-54.5 -102t-33.5 -75q-68 -156 -109 -245q-8 -30 -8 -58q0 -20 6.5 -39.5t22.5 -33.5q-26 15 -37.5 46t-11.5 63zM597 3 q104 49 156 147q41 95 41 201q0 45 -6 84.5t-15 81.5q-1 3 -2 3.5t-1 4.5l1 1q5 0 9 0.5t7 1.5q42 5 45.5 7t28.5 14q70 46 119.5 141t88.5 190q18 44 73 163q14 34 22 65.5t11.5 59.5t3.5 52q0 76 -33.5 146t-103.5 119q76 -43 119.5 -116.5t43.5 -162.5 q0 -66 -15.5 -112.5t-22.5 -62.5q-48 -102 -83 -184t-76 -163q-23 -47 -56 -90t-78 -69q-19 -10 -26.5 -13.5t-43.5 -9.5l1 -2q17 -69 17 -147q0 -58 -12 -111.5t-40 -100.5q-64 -99 -173 -138z" />
<glyph unicode="&#x109e;" horiz-adv-x="819" d="M-342 -422q0 40 15 87.5t45 108.5q346 705 471 964.5t125 335.5q0 27 -10 45t-26 39q-4 5 -20.5 16t-53.5 27q96 -19 159.5 -22.5t82.5 -3.5q61 0 85 18l4 1q8 0 6 -8q-12 -51 -139.5 -315t-566.5 -1191q-30 -68 -30 -129q0 -52 21 -98t63 -75t103 -29q56 0 123 26.5 t107 87.5q33 60 33 107q0 42 -20.5 60t-39.5 18q-17 0 -30.5 -10t-21 -20.5l-7.5 -10.5l-14 20t-14 53q0 36 33 78q38 30 81 30q50 0 90.5 -40t40.5 -117q0 -41 -15 -91q-33 -87 -87 -140t-120.5 -76.5t-134.5 -23.5q-99 0 -175 38t-119.5 101.5t-43.5 138.5zM-138 -432 q0 -49 20.5 -92t65.5 -61q28 -8 57 -8h10q-74 2 -112 57q-13 23 -18 50t-5 54q0 66 29 127l689 1466q3 6 3 10q0 8 -7 9q-6 0 -12 -11q-347 -739 -690 -1467q-30 -64 -30 -134zM98 -713q91 11 173 66q31 22 55 55q12 14 23 31q10 17 20 35q31 59 31 123l-2 26q-2 15 -5 28 q-16 79 -67 141q48 -42 68.5 -88.5t23.5 -107.5q0 -68 -33 -131q-14 -27 -32 -53q-26 -31 -45.5 -51.5t-51.5 -38.5q-75 -35 -146 -35h-12zM300 1497q0 82 60 139q57 56 137 56q41 0 77 -14.5t62.5 -41t42 -61.5t15.5 -78t-15.5 -78t-42 -60.5t-62.5 -40.5t-77 -15 q-82 -3 -139 57q-58 55 -58 137zM427 1497q0 -14 6.5 -27.5t15.5 -22.5t22.5 -15.5t25.5 -6.5q31 0 54.5 21.5t23.5 50.5q0 35 -23.5 54.5t-54.5 19.5t-50.5 -18.5t-19.5 -55.5z" />
<glyph unicode="&#x109f;" horiz-adv-x="1401" d="M-30 425q0 64 28 130q50 113 158.5 209t248.5 151q115 43 215 43q136 0 225 -69t94 -191q-2 -142 -71 -293q-18 -43 -39 -85q-120 -251 -207 -422l-109 -223q-61 -115 -79 -176q-9 -31 -9 -64q0 -36 34 -40q28 0 55.5 28.5t41.5 50.5q34 52 56 107q31 77 120 279 q235 541 259 594q60 138 118 275q38 89 58 178q7 34 7 65q0 51 -19 95q-16 31 -44.5 46t-65 19t-77.5 4l-46 -1l-58 2q-96 7 -162 48t-84 121q-4 22 -4 45q0 53 23 107q58 128 194.5 225.5t289.5 122.5q41 6 79 6q163 0 253 -98q61 -67 61 -162q0 -58 -17 -106 q-13 -29 -39.5 -42.5t-54.5 -13.5q-37 0 -63 20q-21 15 -21 38q0 7 2 15q11 37 11 70q0 35 -17.5 79t-96.5 57q-16 2 -32 2q-77 0 -161 -40.5t-146 -105.5q-43 -46 -67 -100q-15 -35 -15 -66q0 -11 4.5 -36t53.5 -39q39 -8 84 -8l84 2l29 -1q98 -4 172 -42q89 -53 115 -140 q14 -49 14 -103q0 -44 -14.5 -120.5t-60.5 -184.5q-104 -249 -214 -497q-75 -169 -285 -652q-28 -69 -74.5 -137t-127.5 -113q-71 -34 -134 -34q-93 0 -151 56q-47 48 -47 117v37.5t32 113.5q63 144 128 268q28 53 54 106q208 423 233 482q65 149 65 249q0 3 -1 33t-35 65.5 t-113 35.5h-15q-124 -10 -247.5 -95.5t-174.5 -197.5q-18 -43 -18 -87q0 -54 34.5 -92.5t106.5 -38.5q59 0 135 33q21 9 42 9q41 0 66 -28q16 -18 16 -39q0 -42 -55 -69q-120 -51 -222 -51q-120 0 -202 60t-101 162q-3 21 -3 42z" />
<glyph unicode="&#x1e0c;" horiz-adv-x="950" d="M98 0l23 111h65l258 1212h-65l24 111h406q143 0 219 -109q80 -111 45 -260l-147 -696q-32 -151 -156 -263q-124 -106 -264 -106h-408zM246 -201q0 68 40 108t95 40t94 -39q41 -41 41 -82t-11 -64.5t-30 -42.5q-39 -41 -94 -41t-94 41q-41 39 -41 80zM387 111h141 q30 0 58.5 12t52.5 33t41.5 48.5t24.5 59.5l192 903q7 32 1.5 60.5t-20.5 49.5t-38.5 33.5t-53.5 12.5h-141z" />
<glyph unicode="&#x1e0d;" horiz-adv-x="950" d="M205.5 193.5q-10.5 64.5 5.5 142.5l88 416q17 78 55 140.5t101 119.5q63 55 128.5 83.5t137.5 28.5q38 0 72 -13t59 -38l70 322h-66l25 112h264l-297 -1396h63l-22 -111h-217l12 63q-43 -45 -97.5 -71.5t-111.5 -26.5q-72 0 -126.5 26t-92.5 83q-40 55 -50.5 119.5z M383 -201q0 68 40 108t95 40t94 -39q41 -41 41 -82t-11 -64.5t-30 -42.5q-39 -41 -94 -41t-94 41q-41 39 -41 80zM387.5 170.5q5.5 -27.5 20.5 -48t38 -32.5t52 -12q30 0 58.5 12t52.5 32.5t41 48t24 58.5l135 629q6 31 0.5 58.5t-21 48.5t-39 33t-53.5 12q-28 0 -56 -12 t-52 -33t-41.5 -48.5t-24.5 -58.5l-133 -629q-7 -31 -1.5 -58.5z" />
<glyph unicode="&#x1e36;" horiz-adv-x="840" d="M98 0l23 111h65l258 1212h-65l24 111h328l-22 -111h-66l-258 -1212h315l15 69h102l-37 -180h-682zM219 -201q0 68 40 108t95 40t94 -39q41 -41 41 -82t-11 -64.5t-30 -42.5q-39 -41 -94 -41t-94 41q-41 39 -41 80z" />
<glyph unicode="&#x1e37;" horiz-adv-x="459" d="M82 -201q0 68 40 108t95 40t94 -39q41 -41 41 -82t-11 -64.5t-30 -42.5q-39 -41 -94 -41t-94 41q-41 39 -41 80zM92 0l25 111h61l273 1284h-62l25 110h248l-297 -1394h57l-23 -111h-307z" />
<glyph unicode="&#x1e40;" horiz-adv-x="1352" d="M100 0l23 111h67l259 1212h-68l25 111h423l-22 -111h-76l39 -979l455 979h-74l23 111h419l-24 -111h-64l-258 -1212h64l-23 -111h-336l25 111h65l228 1071l-547 -1182h-154l-47 1182l-227 -1071h67l-24 -111h-238zM896 1680q0 68 40 108t95 40t94 -39q41 -41 41 -82 t-11 -64.5t-30 -42.5q-39 -41 -94 -41t-94 41q-41 39 -41 80z" />
<glyph unicode="&#x1e41;" horiz-adv-x="1491" d="M102 0l23 111h65l183 856h-66l25 110h219l-14 -65q45 46 101 72t116 26q160 0 221 -129q114 129 274 129q72 0 127 -26t97 -83q79 -106 49 -256l-136 -634h68l-24 -111h-336l22 111h66l157 739q6 31 0.5 58t-20.5 47t-39 32t-55 12q-29 0 -57.5 -12t-52.5 -32t-41 -47 t-23 -58l-158 -739h63l-22 -111h-338l25 111h65l158 739q7 31 1 58t-21.5 47t-39.5 32t-53 12q-30 0 -59 -12t-53 -32t-41.5 -47t-24.5 -58l-158 -739h66l-25 -111h-334zM1012 1365q0 68 40 108t95 40t94 -39q41 -41 41 -82t-11 -64.5t-30 -42.5q-39 -41 -94 -41t-94 41 q-41 39 -41 80z" />
<glyph unicode="&#x1e42;" horiz-adv-x="1743" d="M0 1004v59q0 123 88 209q88 88 209 88h217q64 0 100 -57q13 -17 25 -17t20 8l19 17q53 49 95 58t88 9t97.5 -28.5t88.5 -75.5q10 -12 20 -12q20 0 41.5 32.5t71 58t114 25.5t116.5 -23.5t89 -62.5q84 -86 84 -209v-985q0 -75 -72 -108q-22 -8 -46.5 -8t-46 9t-36.5 25 q-34 33 -34 82v981q0 49 -25 74q-45 45 -83 45t-59.5 -9t-35.5 -26q-37 -35 -37 -82v-983q0 -75 -72 -108q-20 -8 -44.5 -8t-47 9t-39.5 25q-35 33 -35 82v981q0 49 -24 74q-45 45 -92 45q-49 0 -76 -22q-45 -41 -45 -97v-782q0 -125 -86 -211q-88 -86 -209 -86h-86 q-39 0 -64.5 25.5t-25.5 63.5t25.5 64.5t64.5 26.5h27q49 0 73 27q43 41 43 92v881h-45q-47 -2 -71 -27q-41 -45 -41 -92v-57q0 -78 -74 -109q-23 -8 -47.5 -8t-46 8t-35.5 25q-35 34 -35 84zM848 -264q0 68 40 108t95 40t94 -39q41 -41 41 -82t-11 -64.5t-30 -42.5 q-39 -41 -94 -41t-94 41q-41 39 -41 80z" />
<glyph unicode="&#x1e43;" horiz-adv-x="1252" d="M0 59v802q0 45 23 69q39 40 75 40t53 -7.5t30 -17.5q15 -15 22.5 -30t13.5 -22.5t17 -7.5t19 8l17 15q66 62 134 62q118 0 196 -96q7 -12 18 -12q19 0 39 30.5t64.5 54t102.5 23.5t107.5 -21.5t84.5 -59.5q76 -79 76 -191v-639q0 -70 -68 -98q-19 -9 -41.5 -9t-42.5 8.5 t-35 23.5q-32 32 -32 75v636q0 47 -23 69q-39 40 -73 40t-54 -8.5t-35 -23.5q-32 -32 -32 -76v-637q0 -70 -66 -98q-21 -9 -43.5 -9t-42 8.5t-34.5 23.5q-33 32 -33 75v636q0 47 -22 69q-42 40 -85 40q-74 0 -102 -57q-9 -18 -9 -41v-647q0 -45 -23.5 -66.5t-43.5 -31 t-42.5 -9.5t-42.5 8.5t-35 23.5q-32 32 -32 75zM453 -261q0 63 36.5 99.5t85.5 36.5q51 0 89 -38q36 -35 36 -73t-9.5 -60.5t-26.5 -39.5q-38 -36 -89 -36q-49 0 -86 36q-36 38 -36 75z" />
<glyph unicode="&#x1e44;" horiz-adv-x="977" d="M100 0l23 111h65l258 1212h-65l25 111h288l111 -1170l225 1059h-63l22 111h234l-25 -111h-63l-258 -1212h63l-22 -111h-289l-113 1167l-223 -1056h63l-22 -111h-234zM759 1680q0 68 40 108t95 40t94 -39q41 -41 41 -82t-11 -64.5t-30 -42.5q-39 -41 -94 -41t-94 41 q-41 39 -41 80z" />
<glyph unicode="&#x1e45;" horiz-adv-x="977" d="M100 0l23 111h65l183 856h-64l23 110h217l-15 -65q45 46 100 72t113 26q141 0 220 -109q38 -54 50 -117t-5 -139l-133 -634h63l-22 -111h-332l22 111h66l157 739q7 31 1.5 58t-20 47t-37.5 32t-52 12q-30 0 -58.5 -12t-52.5 -32t-41 -47t-24 -58l-158 -739h64l-23 -111 h-330zM677 1345q0 68 40 108t95 40t94 -39q41 -41 41 -82t-11 -64.5t-30 -42.5q-39 -41 -94 -41t-94 41q-41 39 -41 80z" />
<glyph unicode="&#x1e46;" horiz-adv-x="977" d="M100 0l23 111h65l258 1212h-65l25 111h288l111 -1170l225 1059h-63l22 111h234l-25 -111h-63l-258 -1212h63l-22 -111h-289l-113 1167l-223 -1056h63l-22 -111h-234zM403 -264q0 68 40 108t95 40t94 -39q41 -41 41 -82t-11 -64.5t-30 -42.5q-39 -41 -94 -41t-94 41 q-41 39 -41 80z" />
<glyph unicode="&#x1e47;" horiz-adv-x="977" d="M100 0l23 111h65l183 856h-64l23 110h217l-15 -65q45 46 100 72t113 26q141 0 220 -109q38 -54 50 -117t-5 -139l-133 -634h63l-22 -111h-332l22 111h66l157 739q7 31 1.5 58t-20 47t-37.5 32t-52 12q-30 0 -58.5 -12t-52.5 -32t-41 -47t-24 -58l-158 -739h64l-23 -111 h-330zM383 -201q0 68 40 108t95 40t94 -39q41 -41 41 -82t-11 -64.5t-30 -42.5q-39 -41 -94 -41t-94 41q-41 39 -41 80z" />
<glyph unicode="&#x1e6c;" horiz-adv-x="840" d="M273 -201q0 68 40 108t95 40t94 -39q41 -41 41 -82t-11 -64.5t-30 -42.5q-39 -41 -94 -41t-94 41q-41 39 -41 80zM276 0l23 111h66l258 1212h-140l-14 -70h-104l38 181h680l-36 -181h-103l14 70h-137l-258 -1212h62l-23 -111h-326z" />
<glyph unicode="&#x1e6d;" horiz-adv-x="563" d="M192 -201q0 68 40 108t95 40t94 -39q41 -41 41 -82t-11 -64.5t-30 -42.5q-39 -41 -94 -41t-94 41q-41 39 -41 80zM222.5 195.5q-10.5 62.5 6.5 140.5l136 639h-60l23 110h61l49 238h-59l22 113h316l-23 -113h-61l-51 -238h155l-24 -110h-154l-160 -746q-7 -31 -0.5 -58.5 t23 -48t42.5 -32.5t58 -12l-20 -92l-23 -21q-69 0 -119.5 27t-89.5 84q-37 57 -47.5 119.5z" />
<glyph unicode="&#x2000;" horiz-adv-x="1090" />
<glyph unicode="&#x2001;" horiz-adv-x="2181" />
<glyph unicode="&#x2002;" horiz-adv-x="1090" />
<glyph unicode="&#x2003;" horiz-adv-x="2181" />
<glyph unicode="&#x2004;" horiz-adv-x="727" />
<glyph unicode="&#x2005;" horiz-adv-x="545" />
<glyph unicode="&#x2006;" horiz-adv-x="363" />
<glyph unicode="&#x2007;" horiz-adv-x="363" />
<glyph unicode="&#x2008;" horiz-adv-x="272" />
<glyph unicode="&#x2009;" horiz-adv-x="436" />
<glyph unicode="&#x200a;" horiz-adv-x="121" />
<glyph unicode="&#x2010;" horiz-adv-x="748" d="M211 346l25 107h509l-22 -107h-512z" />
<glyph unicode="&#x2011;" horiz-adv-x="748" d="M211 346l25 107h509l-22 -107h-512z" />
<glyph unicode="&#x2012;" horiz-adv-x="748" d="M211 346l25 107h509l-22 -107h-512z" />
<glyph unicode="&#x2013;" horiz-adv-x="1108" d="M56 419v120h996v-120h-996z" />
<glyph unicode="&#x2014;" horiz-adv-x="2048" d="M0 419v120h2048v-120h-2048z" />
<glyph unicode="&#x2018;" horiz-adv-x="557" d="M186 1233q0 109 71 226.5t139 117.5v-43q-73 -43 -87 -190q0 -119 129 -161v-42l-119 -125q-44 0 -88.5 65.5t-44.5 151.5z" />
<glyph unicode="&#x2019;" horiz-adv-x="557" d="M119 1410v42l119 125q44 0 88.5 -65.5t44.5 -151.5q0 -109 -71 -226.5t-139 -117.5v43q73 43 87 190q0 119 -129 161z" />
<glyph unicode="&#x201a;" horiz-adv-x="557" d="M119 114v42l119 125q44 0 88.5 -65.5t44.5 -151.5q0 -109 -71 -226.5t-139 -117.5v43q73 43 87 190q0 119 -129 161z" />
<glyph unicode="&#x201c;" horiz-adv-x="910" d="M186 1233q0 109 71 226.5t139 117.5v-43q-73 -43 -87 -190q0 -119 129 -161v-42l-119 -125q-44 0 -88.5 65.5t-44.5 151.5zM539 1233q0 109 71 226.5t139 117.5v-43q-73 -43 -87 -190q0 -119 129 -161v-42l-119 -125q-44 0 -88.5 65.5t-44.5 151.5z" />
<glyph unicode="&#x201d;" horiz-adv-x="910" d="M119 1410v42l119 125q44 0 88.5 -65.5t44.5 -151.5q0 -109 -71 -226.5t-139 -117.5v43q73 43 87 190q0 119 -129 161zM472 1410v42l119 125q44 0 88.5 -65.5t44.5 -151.5q0 -109 -71 -226.5t-139 -117.5v43q73 43 87 190q0 119 -129 161z" />
<glyph unicode="&#x201e;" horiz-adv-x="910" d="M119 114v42l119 125q44 0 88.5 -65.5t44.5 -151.5q0 -109 -71 -226.5t-139 -117.5v43q73 43 87 190q0 119 -129 161zM472 114v42l119 125q44 0 88.5 -65.5t44.5 -151.5q0 -109 -71 -226.5t-139 -117.5v43q73 43 87 190q0 119 -129 161z" />
<glyph unicode="&#x2020;" horiz-adv-x="1014" d="M71 1001q0 57 27.5 94.5t71.5 37.5q32 0 137 -56q85 -46 179 -55q-8 97 -54 178q-57 101 -57 129q0 49 36 78.5t96 29.5q57 0 94.5 -27.5t37.5 -71.5q0 -32 -55 -137q-46 -85 -55 -179q96 8 177 54q101 57 129 57q49 0 79 -36t30 -96q0 -57 -27.5 -94.5t-72.5 -37.5 q-32 0 -136 55q-85 46 -179 57q8 -176 110 -277q-106 -460 -112 -974h-38q-6 514 -114 974q102 101 111 277q-96 -10 -178 -55q-101 -57 -129 -57q-49 0 -78.5 36t-29.5 96z" />
<glyph unicode="&#x2021;" horiz-adv-x="1014" d="M70 166q0 60 29.5 96t78.5 36q28 0 129 -57q82 -45 178 -55q-9 226 -111 398q102 171 111 397q-96 -10 -178 -55q-101 -57 -129 -57q-49 0 -78.5 36t-29.5 96q0 57 27.5 94.5t71.5 37.5q32 0 137 -56q85 -46 179 -55q-8 97 -54 178q-57 101 -57 129q0 49 36 78.5t96 29.5 q57 0 94.5 -27.5t37.5 -71.5q0 -32 -55 -137q-46 -85 -55 -179q96 8 177 54q101 57 129 57q49 0 79 -36t30 -96q0 -57 -27.5 -94.5t-72.5 -37.5q-32 0 -136 55q-85 46 -179 57q8 -226 110 -397q-102 -172 -110 -398q94 11 179 57q104 55 136 55q45 0 72.5 -37.5t27.5 -94.5 q0 -60 -30 -96t-79 -36q-28 0 -129 57q-81 46 -177 54q9 -94 55 -179q55 -105 55 -137q0 -44 -37.5 -71.5t-94.5 -27.5q-60 0 -96 29.5t-36 78.5q0 28 57 129q46 81 54 178q-94 -9 -179 -55q-105 -56 -137 -56q-44 0 -71.5 37.5t-27.5 94.5z" />
<glyph unicode="&#x2022;" horiz-adv-x="1024" d="M216 718q0 123 87 209t210 86q122 0 208.5 -86.5t86.5 -208.5t-87.5 -209.5t-209.5 -87.5q-123 0 -209 87t-86 210z" />
<glyph unicode="&#x2026;" horiz-adv-x="2048" d="M147.5 65.5q-3.5 19.5 2.5 40.5q4 22 16 42t29 35t37.5 23.5t41.5 8.5t38 -8.5t27.5 -23.5t14 -35t-1.5 -42q-5 -21 -17 -40.5t-28.5 -34t-37 -23t-42.5 -8.5q-21 0 -38 8.5t-27.5 23t-14 34zM830.5 65.5q-3.5 19.5 2.5 40.5q4 22 16 42t29 35t37.5 23.5t41.5 8.5 t38 -8.5t27.5 -23.5t14 -35t-1.5 -42q-5 -21 -17 -40.5t-28.5 -34t-37 -23t-42.5 -8.5q-21 0 -38 8.5t-27.5 23t-14 34zM1513.5 65.5q-3.5 19.5 2.5 40.5q4 22 16 42t29 35t37.5 23.5t41.5 8.5t38 -8.5t27.5 -23.5t14 -35t-1.5 -42q-5 -21 -17 -40.5t-28.5 -34t-37 -23 t-42.5 -8.5q-21 0 -38 8.5t-27.5 23t-14 34z" />
<glyph unicode="&#x202f;" horiz-adv-x="436" />
<glyph unicode="&#x2039;" horiz-adv-x="631" d="M174 479l342 303h14v-37l-205 -266l205 -266v-37h-14z" />
<glyph unicode="&#x203a;" horiz-adv-x="631" d="M101 176v37l205 266l-205 266v37h14l342 -303l-342 -303h-14z" />
<glyph unicode="&#x2044;" horiz-adv-x="342" d="M-342 -29l940 1461h84l-938 -1461h-86z" />
<glyph unicode="&#x205f;" horiz-adv-x="545" />
<glyph unicode="&#x20a3;" horiz-adv-x="1014" d="M48 0v50h96q103 0 103 235v72h-194v60h194v732q0 235 -103 235h-96v50h915l103 -231h-49q-59 182 -190 182l-316 -1q-102 0 -102 -235v-352h361q100 0 100 63v58h50v-342h-50v60q0 62 -100 62h-361v-281h194v-60h-194v-72q0 -235 102 -235h97v-50h-560z" />
<glyph unicode="&#x20a4;" horiz-adv-x="1014" d="M76 733v60h113q-36 107 -36 193q0 226 123.5 347t310.5 121q75 0 185.5 -14t110.5 -34v-161h-38q-5 61 -72 97t-185 36h-2q-100 0 -187 -97t-87 -245q1 -136 34 -243h380v-60h-360q12 -30 26 -60h352v-60h-321q35 -63 35 -138q0 -161 -162 -375h402q130 0 189 132l49 -1 l-103 -231h-719l1 50q187 238 187 418q0 77 -34 143l-2 2h-172v60h143q-14 31 -26 60h-135z" />
<glyph unicode="&#x20a7;" horiz-adv-x="2028" d="M48 0v50h96q103 0 103 235v864q0 235 -103 235h-96v50h618q92 -2 181 -62q91 -62 143 -177q50 -113 51 -237h10q216 0 216 355h50v-355h259q42 19 110 20h2q54 0 133.5 -13.5t79.5 -33.5v-159h-42q-4 66 -65.5 108t-133.5 42q-64 0 -102.5 -36.5t-38.5 -96.5 q0 -108 235 -220q122 -55 167.5 -117.5t45.5 -153.5q0 -140 -83 -231q-102 -84 -228 -86q-58 0 -105 11q-28 6 -56 6q-18 0 -36 -3q-28 -5 -59 -5q-124 0 -173.5 57t-57.5 176h-1v687h-129q-7 -101 -48 -194q-50 -114 -141 -177.5t-190 -63.5q-100 0 -191 64q-33 22 -60 51 v-305q0 -235 102 -235h97v-50h-560zM409 722q3 -9 7 -17q41 -102 108 -153q57 -44 116 -44q10 0 19 1q68 8 127 75t87 177q22 87 22 179q0 24 -1 47q-7 116 -49.5 218.5t-108.5 144.5q-56 35 -112 35q-10 0 -21 -1h-194v-662zM1317 223q0 -81 34 -119q28 -31 81 -37l-71 192 l49 1q55 -130 114 -174q57 -44 127 -44h7q92 0 151 52q59 53 59 136q0 102 -259 226q-101 52 -144 112t-43 145q0 121 73 194l1 1h-179v-685z" />
<glyph unicode="&#x20ac;" horiz-adv-x="1014" d="M-44 653l17 60h87v29q0 16 1 31h-71l17 60h58q14 225 170.5 438t429.5 213q63 0 120 -21.5t71 -21.5t28 45h41l84 -281l-40 -1q-49 124 -149 176.5t-171 52.5q-177 0 -313 -176.5t-143 -423.5h706l-17 -60h-692q0 -30 2 -60h674l-17 -60h-652q17 -228 157.5 -415 t334.5 -188q156 3 228 92.5t72 183.5h48v-143q0 -70 -108 -125.5t-240 -57.5q-271 0 -441 203.5t-184 449.5h-108z" />
<glyph unicode="&#x2116;" horiz-adv-x="2271" />
<glyph unicode="&#x2122;" horiz-adv-x="1497" />
<glyph unicode="&#x2202;" horiz-adv-x="1014" d="M77 477q0 131 58 251t161 185t211 65q109 0 212 -65q29 -18 54 -41q-84 235 -233.5 377t-326.5 155v55q306 0 515 -285t209 -697q0 -132 -56.5 -251t-159 -185t-214.5 -66t-214.5 66t-159 185t-56.5 251zM232 537q0 -41 5 -79q14 -122 61.5 -230t118.5 -165 q64 -53 128 -53q6 0 13 1q70 5 127.5 70.5t80.5 179.5q16 73 16 149q0 42 -5 85q-14 122 -62.5 231.5t-119.5 165.5q-65 50 -128 50h-11q-68 -5 -126 -69.5t-82 -178.5q-16 -84 -16 -157z" />
<glyph unicode="&#x2206;" horiz-adv-x="1081" d="M6 0l541 1434l526 -1434h-1067zM108 123h801l-395 1072z" />
<glyph unicode="&#x220f;" horiz-adv-x="1515" d="M48 -367h96q103 0 103 235v1281q0 235 -103 235h-96v50h1419v-50h-97q-102 0 -102 -235v-1281q0 -235 102 -235h97v-50h-560v50h96q103 0 103 235v1281q0 235 -103 235h-492q-102 0 -102 -235v-1281q0 -235 102 -235h97v-51h-560v51z" />
<glyph unicode="&#x2211;" horiz-adv-x="1206" d="M120 -366q62 0 106 53l663 781l-663 859q-44 57 -106 57v50h921l103 -232h-49q-59 182 -189 182h-485l638 -836l-788 -914h635q130 0 189 182h49l-103 -232h-921v50z" />
<glyph unicode="&#x2212;" horiz-adv-x="1014" d="M87 647v140h839l1 -1v-139h-840z" />
<glyph unicode="&#x221a;" horiz-adv-x="1014" d="M17 359l74 35l85 -185l728 1470h150v-60h-72l-801 -1619z" />
<glyph unicode="&#x221e;" horiz-adv-x="1014" d="M66 717q0 126 58.5 215t140.5 89q132 0 185 -194q19 108 88 181.5t156 73.5q107 0 182 -105t75 -260t-80 -260t-177 -105q-67 0 -137 59t-107 196q-63 -194 -185 -194q-82 0 -140.5 83.5t-58.5 220.5zM80 689q2 -66 45 -116t115 -50q66 0 116.5 45t82.5 187 q-15 83 -57.5 119t-100.5 36q-82 0 -141.5 -68.5t-59.5 -152.5zM466 687q12 -96 87.5 -148.5t129.5 -52.5q81 0 165 79.5t84 183.5q-2 91 -58 146t-145 55q-82 0 -156.5 -54.5t-106.5 -208.5z" />
<glyph unicode="&#x222b;" horiz-adv-x="665" d="M-72 -93h36q1 -43 34.5 -64.5t63.5 -21.5h1q82 0 115 162q32 162 40 316l70 734l8 62q27 238 135 429.5t234 191.5q60 0 60 -29v-159h-36q-1 43 -35 64.5t-63 21.5q-71 0 -116 -155.5t-49 -363.5l-73 -767q-20 -231 -130.5 -420t-234.5 -189q-60 0 -60 29v159z" />
<glyph unicode="&#x2248;" horiz-adv-x="1014" d="M94 383v156q64 73 123 99t114 26q64 0 181.5 -49.5t172.5 -49.5q52 0 108.5 28t129.5 112v-156q-63 -72 -122 -97.5t-116 -25.5q-60 0 -177.5 48.5t-176.5 48.5q-51 0 -107.5 -28t-129.5 -112zM94 731v156q64 73 123 99t114 26q64 0 181.5 -49.5t172.5 -49.5 q52 0 108.5 28t129.5 112v-156q-63 -72 -122 -97.5t-116 -25.5q-60 0 -177.5 48.5t-176.5 48.5q-51 0 -107.5 -28t-129.5 -112z" />
<glyph unicode="&#x2264;" horiz-adv-x="981" d="M87 0v140h839l1 -1v-139h-840zM236 482l26 125l479 291l47 -119l-387 -236l289 -233l-98 -121z" />
<glyph unicode="&#x2265;" horiz-adv-x="981" d="M87 0v140h839l1 -1v-139h-840zM193 310l382 233l-282 236l94 119l358 -291l-26 -125l-483 -293z" />
<glyph unicode="&#x25cc;" horiz-adv-x="1168" d="M93 458q0 -29 24 -29q18 0 31 17q8 10 10 25q-2 29 -25 29q-40 -4 -40 -42zM102 332q0 -32 23 -32q7 0 15 5q26 13 26 43q0 23 -24 23q-6 0 -12 -2q-26 -9 -28 -37zM108 591q0 -10 6 -19t19 -9q14 1 26 12.5t14 27.5v3q0 10 -6.5 18.5t-21.5 8.5q-11 0 -23.5 -11 t-13.5 -27v-4zM136 213q0 -29 26 -29q10 0 20 7q19 16 19 37q0 6 -2 11q-9 16 -23 16q-9 0 -19 -6q-21 -15 -21 -36zM145 728q0 -9 5 -20t19 -11q12 0 23 8q18 13 18 37q0 25 -27 25q-7 0 -18 -6q-18 -13 -20 -33zM196 111q0 -8 7.5 -17t18.5 -9q16 0 26 12t13 24v4 q0 15 -6.5 23t-16.5 8q-15 0 -26.5 -11t-14.5 -24zM205 853q0 -28 25 -28q7 0 17 5q23 10 23 38q0 16 -13 25q-6 4 -13 4q-20 0 -32 -22q-7 -11 -7 -22zM284 40q0 -14 14 -23q6 -2 12 -2t16 3q22 11 22 42q0 26 -23 26q-5 0 -15 -4q-26 -12 -26 -42zM286 971 q0 -14 8.5 -20.5t17.5 -6.5q16 0 26.5 11.5t11.5 22.5v7q0 13 -7 21t-17 8q-15 0 -30 -15q-10 -12 -10 -28zM386 1069q0 -26 28 -26q10 0 19 7q17 15 17 37q0 26 -25 26q-10 0 -23.5 -11t-15.5 -28v-5zM393 8q0 -24 22 -26q15 0 27.5 10t13.5 27v7q0 25 -22 27 q-12 0 -25.5 -10t-15.5 -29v-6zM502 1134q6 -20 26 -20q5 0 12 3q23 12 26 38q0 31 -25 31q-6 0 -14 -4q-25 -13 -25 -42v-6zM513 22q0 -28 26 -28h8q31 13 32 46q-5 25 -26 25q-30 0 -40 -43zM624 1175q0 -28 27 -28q27 2 36 37l1 8q0 11 -7 18.5t-22 7.5q-28 -2 -35 -35 v-8zM634 74q0 -27 24 -27q9 0 18 5q22 14 22 39q0 7 -2 12q-8 16 -24 16q-8 0 -18 -6q-20 -12 -20 -39zM740 1164q0 -28 24 -28q8 0 18 6q22 12 22 39q0 26 -25 26q-10 0 -23.5 -8.5t-15.5 -27.5v-7zM743 162q0 -10 5 -19t18 -9q32 0 41 44v2q0 7 -8 15.5t-19 8.5 q-14 0 -25 -11t-12 -28v-3zM832 273q0 -15 11 -24q6 -6 14 -6q18 0 32 18q8 12 8 25q0 28 -26 28q-18 0 -31 -18q-8 -10 -8 -23zM839 1107q0 -23 23 -23q17 0 31 16q10 14 10 26q0 15 -9 22t-18 7q-18 0 -30 -18q-7 -13 -7 -30zM903 395l1 -9q6 -20 24 -20q7 0 17 6 q22 11 22 39t-24 28q-9 0 -19 -6q-21 -12 -21 -38zM913 1021q0 -22 25 -22q11 0 24 9.5t15 29.5v3q0 9 -6 19t-19 10t-25.5 -12.5t-13.5 -31.5v-5zM951 532q0 -10 4 -18q7 -15 21 -15q11 0 24.5 10.5t15.5 30.5v3q0 9 -5.5 17.5t-17.5 9.5q-14 0 -27 -10t-15 -28zM960 916 q0 -26 24 -26q7 0 15 3q26 14 26 43l-1 7q-7 18 -25 18q-8 0 -17 -6q-22 -15 -22 -39zM979 664q0 -31 26 -31q14 2 25 13.5t13 29.5v3q0 12 -7.5 19t-20.5 7q-36 -9 -36 -41zM982 794q0 -28 25 -28h8q27 10 31 45q-2 26 -25 26q-5 0 -10 -2q-29 -13 -29 -41z" />
<glyph unicode="&#x25fc;" horiz-adv-x="1075" d="M0 0v1075h1075v-1075h-1075z" />
<glyph unicode="&#xa9e0;" horiz-adv-x="946" d="M1 218q0 51 21 105t51 116q1 3 17 34q32 57 75.5 84.5t84.5 35t63 7.5h16h268q49 111 143 315q9 14 9 17q20 44 20 93q0 32 -13.5 58.5t-55.5 36.5q-28 6 -55 6q-26 0 -55 -9.5t-46 -30.5q-2 -2 -5 -6q28 -94 28 -159q0 -66 -22.5 -106t-56.5 -60.5t-70 -27.5t-64 -7 q-21 0 -33.5 2l-12.5 2q-66 7 -133 58l12 -1q26 0 46.5 18t34.5 40.5t21 40.5l7 18l20 41l32 73.5t60 104.5l14 14l6 6q36 24 90.5 43.5t130.5 19.5q68 0 140 -34.5t101 -102.5q16 -39 16 -80q0 -25 -6 -51q0 -1 -1 -3q-21 -92 -53 -163l-286 -595l-13.5 -24.5t-42 -56.5 t-74.5 -57.5t-112 -28.5q-20 -2 -43 -2q-45 0 -97 11t-96 41t-67 85q-14 39 -14 79zM135 176q0 -31 13 -57.5t53 -35.5q30 -6 58 -6q33 0 62 14t52 50q39 71 88.5 171l49.5 100l60 134q-23 0 -94 -2q-49 0 -79 2q-101 0 -158 -97l-73 -152q-16 -34 -24 -61t-8 -60zM175 189 q0 33 20 75.5t79 155.5q34 76 106 94q22 6 44 6l24 -2q-47 -2 -89.5 -28.5t-69.5 -77.5l-83 -165q-4 -12 -10.5 -32t-6.5 -45q0 -31 22 -56q-18 12 -27 32.5t-9 42.5zM406 800q48 10 74 37t35 63t9 70q0 19 -2 36t-4 29l-102 -216q-1 -1 -5.5 -8t-4.5 -11zM421 -24 q45 10 84.5 33.5t63.5 62.5q112 238 200.5 421.5t173.5 379.5q22 58 22 112q0 71 -39.5 127t-105.5 88q89 -35 138 -119q25 -49 25 -104q0 -28 -3 -42.5t-11 -37.5q-3 -16 -9 -30q-140 -318 -311 -666q-32 -68 -70 -136q-28 -39 -70 -60.5t-88 -28.5zM428 696q67 7 119 50 q30 29 42.5 61.5t12.5 91.5q0 28 -7.5 72t-20.5 80q0 4 -4 10l1 2q13 14 25 21.5t25.5 10t33.5 2.5q14 0 28 -2q-42 -3 -67.5 -17t-25.5 -19q2 -2 16.5 -51t14.5 -115q0 -73 -24.5 -116.5t-65.5 -62.5t-90 -19z" />
<glyph unicode="&#xa9e1;" horiz-adv-x="1548" d="M-58 41l120 272q5 7 18 7q11 0 23.5 -3.5t21 -9t8.5 -11.5v-3q-24 -60 -24 -103t21.5 -71.5t53 -41.5t63.5 -13q67 0 113 58h1l452 942h-42q-42 -52 -85 -87t-84 -56t-77 -31t-63.5 -13.5t-42.5 -3.5l-17 1q-12 9 -24.5 37t-12.5 66q0 39 23 82.5t83 81.5 q64 36 104.5 43.5t110.5 10.5q6 1 12 1h453l-18.5 -6.5t-48 -27t-63.5 -60.5t-65 -106l-353 -728q11 -40 31.5 -81t52.5 -69.5t76 -28.5q47 0 97 34.5t81 98.5l363 797l15 27.5t46 62.5t77 62.5t108 27.5q50 0 111 -25l-12 2q-17 0 -47 -18t-72.5 -74.5t-96.5 -168.5 l-347 -734l-16 -26.5t-51 -60t-91.5 -60t-137.5 -26.5q-64 0 -117 28t-109 81q-10 10 -23 25q-26 -54 -76.5 -84t-115.5 -41.5t-133 -11.5q-72 0 -134.5 9t-101.5 18zM363 -17q55 2 96 25t80 57l20 21l17 -8q-85 -96 -195 -96zM408 967q28 -15 61 -15q46 0 96.5 20.5t94 46 t70.5 45.5h-178l-28.5 -9t-62.5 -30.5t-53 -57.5zM651 219l360 768l17 33q53 95 145 141q-51 -32 -85.5 -81.5t-60.5 -100.5l-346 -740l-18 -36zM978 11q53 6 90 45t57 90q157 330 211 444.5t57.5 122.5t9 19.5t64.5 136.5q22 55 69 132q41 65 93 100q17 13 37 13q6 0 12 -2 l-6 1q-11 0 -20.5 -6t-17.5 -14q-36 -37 -72.5 -100.5t-70.5 -135.5l-341 -724q-13 -28 -29 -52.5t-44 -42.5q-41 -28 -86 -28z" />
<glyph unicode="&#xa9e2;" horiz-adv-x="1548" d="M-72 34l119 272q5 7 18 7q11 0 23.5 -3.5t21.5 -9t9 -11.5l-1 -3q-23 -60 -23 -102q0 -44 21 -72.5t52.5 -42t63.5 -13.5q67 0 114 58v1q498 1033 420 874l33 67h-261l-24 -6.5t-54.5 -23t-54 -45t-23.5 -72.5q0 -20 6 -42q-12 9 -25 37t-13 66q0 39 23 82.5t83 81.5 q45 24 75 34.5t61 13.5t79 6l466 1l-6.5 -2t-18 -7t-26.5 -14t-33 -24t-36.5 -36t-37.5 -50t-37 -67l-119 -246l-235 -483q12 -48 42 -98q20 -34 49 -57t69 -23q47 0 97 34t81 99l201 440q-4 5 -8 11t-8.5 13.5t-8.5 16t-8 18.5t-7.5 21.5t-6 25t-4.5 28t-3.5 31t-1.5 35.5 l1 28q24 108 81 170t125 91t125.5 36t77.5 7h8q22 5 46 5q51 0 111 -25l-12 2q-13 0 -33 -9t-47 -36t-61 -79t-75 -137l-347 -734l-15.5 -26.5t-50.5 -60t-91.5 -60t-138.5 -26.5q-67 0 -114.5 24.5t-80 55.5t-53.5 53q-42 -77 -130 -106.5t-195 -29.5q-72 0 -134.5 9 t-101.5 18zM348 -24q54 2 97.5 25.5t78.5 56.5l21 21l17 -8q-40 -43 -84.5 -69.5t-110.5 -26.5zM431 902q0 26 14.5 50.5t39.5 37.5q0 2 2 2q36 18 81.5 25.5t87.5 7.5q32 0 63 -3q6 -2 6 -8q0 -7 -7 -10h-1q-28 2 -57 2q-44 0 -87 -6t-77 -24q-16 -8 -35.5 -25t-29.5 -49z M637 212l39 84q155 330 320 684q9 16 18 33q53 95 144 141q-51 -32 -85 -81.5t-60 -100.5l-347 -740q-8 -19 -18 -37zM964 4q43 4 77 33.5t56 70.5q6 15 14 30q396 836 341 724q50 105 70 132q35 60 92 100q18 13 37 13q6 0 12 -2h-4q-21 0 -39.5 -19t-30.5 -38 q-52 -74 -95 -161.5t-164 -346.5l-195 -414q-9 -20 -18 -36.5t-21.5 -31t-33.5 -27.5q-40 -28 -85 -28zM1157 902q0 -23 5 -43.5t12 -38t14 -30.5l101 221l16 28t47 64q-58 -19 -96 -43t-59.5 -50.5t-30.5 -54t-9 -53.5z" />
<glyph unicode="&#xa9e3;" horiz-adv-x="1575" d="M0 220q0 41 14 84t34.5 86t39.5 83q32 57 75.5 84.5t84.5 35.5t62 8l16 -1h265q133 294 175 380q6 24 6 45q0 31 -13.5 56.5t-51.5 36.5q-27 7 -52 7q-24 0 -49 -8q3 -25 3 -48q0 -72 -21 -129t-51 -98.5t-58 -68t-43 -36.5l-4 -3q-55 0 -85 21.5t-41.5 51.5t-11.5 57 q0 42 20 80l63 129q4 7 23 26.5t53.5 42t86 39.5t120.5 17h8q42 -2 101 -22.5t94 -66.5q15 -19 21 -32.5t11 -21t18 -7.5q23 0 50 17l27 17l-435 -908l-13 -24.5t-41.5 -56.5t-74.5 -57t-111 -28q-19 -2 -41 -2q-46 0 -98 11t-95.5 41t-66.5 85q-14 37 -14 77zM133 176 q0 -30 13 -55.5t53 -33.5q29 -6 57 -6q32 0 61 14t52 50q39 69 88 168.5l49 99.5l60 133q-22 0 -93 -2q-59 0 -81 2q-98 0 -155 -96l-72 -151q-16 -35 -24 -62.5t-8 -60.5zM173 192q0 41 27 93.5t43 81.5l27 55q5 12 18.5 31.5t35 37t52.5 24.5q22 5 43 5q13 0 25 -2 q-108 -8 -158 -105q-42 -85 -82 -164q-17 -51 -17 -80q0 -28 21 -51q-17 11 -26 32t-9 42zM368 -20h8q36 0 67 18.5t59 43.5q38 32 67 79.5t49 92.5l5 -32q-20 -47 -54 -94t-78.5 -79t-95.5 -32q-14 0 -27 3zM424 814q71 57 105 114.5t43 103.5t9 66v5q-17 -15 -33 -39 t-32 -54t-33 -62q-43 -78 -59 -134zM644 202v13q0 45 11 83.5t22.5 62.5l11.5 24q-42 -87 339 705l2 5q27 27 58 44l30 17l3 1q34 17 79 28t101 11h7q3 0 7 -1q35 0 98 -21q62 -24 101.5 -75t39.5 -120q0 -32 -13 -68t-26.5 -61.5l-13.5 -25.5q-24 -50 -59.5 -76t-90.5 -26 l-97 8q23 0 45 24t40 57t31 62t20 40l6 18q21 44 21 93q0 31 -13.5 57.5t-55.5 35.5q-28 6 -52 6q-30 0 -49 -6.5t-34 -21.5t-32 -40l-219 -454q126 1 173.5 -4t91.5 -37q37 -25 53 -57t16 -70q0 -24 -4.5 -40l-4.5 -16l-62 -128t-103 -183q-36 -29 -84.5 -41.5 t-164.5 -18.5q-46 4 -80 14t-58.5 25.5t-40.5 34t-26 39.5t-15.5 42t-8.5 41zM773 186q0 -32 15.5 -64t59.5 -51q33 -9 62 -9q31 0 60 19t58 73l58 108l53 113l6.5 17.5t6.5 43.5q0 20 -8 42t-29 42q-33 27 -93 27q-37 0 -91 -6l-145 -281l-6.5 -22t-6.5 -52zM826 206 q0 21 8 44q43 91 88 178l9 16q13 22 33.5 37.5t42.5 15.5l7 -1q-26 -4 -45 -27.5t-31 -48.5l-87 -176q-11 -36 -11 -70q0 -20 4 -41q-18 34 -18 73zM970 -16q21 -4 41 -4q79 0 139 49q30 26 49 63q93 154 131 245q15 42 15 85q0 38 -15 74q29 -46 29 -101q0 -19 -3 -33 t-8 -27.5t-13 -32.5q-57 -116 -121 -219q-32 -58 -75.5 -84.5t-95.5 -26.5q-38 0 -73 12zM1031 660q0 3 1 6l169 336q22 47 49.5 69.5t66.5 22.5h21q-24 -2 -46 -9q-29 -11 -46 -37.5t-29 -53.5l-168 -336q-5 -7 -10 -7q-7 0 -8 9zM1385 685q51 3 88.5 35t56.5 75 q18 34 31 67q14 33 27 65.5t13 66.5q0 54 -33.5 101t-77.5 74q40 -17 80 -56.5t47 -92.5q2 -11 2 -22q0 -40 -12 -72.5t-29 -70.5q-14 -35 -32 -67q-19 -46 -59 -75t-88 -29z" />
<glyph unicode="&#xa9e4;" horiz-adv-x="1662" d="M-35 37q37 11 68 39t53.5 60.5t35.5 55.5q8 16 11 21l411 860q86 97 175 117q64 13 118 13q21 0 40.5 -1.5t36.5 -1.5q-84 -12 -137.5 -62t-79.5 -99v-1q-2 -2 -2 -4l-2 -5q-3 -2 -3 -5l-17 -32l-323 -668q-69 -147 -107 -208q64 16 198 108t252 184h1l7 5l1 2q3 0 3 2 l18 13l2 1v1l5 4h1l9 7l29 23l9 6l1 2l3 1l29 23l290 601q66 66 163 87q73 14 146 14q23 0 82.5 -3.5t125.5 -18.5h2v-1h4l1 -1l8 -1l1 -1h5l1 -1q36 -7 42 -9h1l-20 -20q-114 35 -198 35q-60 0 -101 -12.5t-60 -26.5v-1q-15 -11 -18 -14l-2 -1l-251 -519q53 6 96 6 q35 0 78.5 -7.5t91.5 -40.5q23 -16 41 -40t24 -49.5t5.5 -47t-3 -34t-3.5 -12.5v-2l-64 -128q-65 -127 -106 -182q-36 -29 -84.5 -41.5t-164.5 -18.5q-135 15 -180 74t-50 123v15q0 39 10.5 77.5t22.5 65.5l12 25l-130 -95q-132 -95 -266 -177q-64 -41 -118.5 -63.5 t-99.5 -29.5q-36 -7 -66 -7q-7 0 -28.5 1t-46.5 7.5t-39 12.5zM114 -13q26 -5 52 -5q67 0 145 34q170 74 365 235q6 6 6 10l-1 4q0 3 -5 5h-2q-4 0 -10 -4q-184 -155 -360 -234q-104 -46 -169 -46zM370 248q0 -9 8 -9q7 0 136 281q115 247 229 490q65 109 171 155 q-125 -41 -186 -146q-117 -246 -230 -491l-126 -270q-2 -6 -2 -10zM843 191q0 -23 9 -58t67 -60q28 -8 55 -8q20 0 51.5 7.5t73.5 84.5l58 108l54 115q1 5 6.5 22t5.5 38q0 10 -2.5 31t-34.5 53q-36 30 -96 30q-56 0 -113 -57l-121 -234q-13 -54 -13 -72zM896 208q0 14 3 29 t62 132l33 65q12 28 39 48q21 18 47 18l5 -1q-27 -5 -44.5 -27t-31.5 -49q-88 -176 -92 -192q-7 -27 -7 -57q0 -19 4 -38q-18 39 -18 72zM1040 -13q22 -4 43 -4q60 0 114 31q44 26 73 80q122 211 131 246q16 43 16 88q0 36 -15 71q27 -45 27 -98q0 -48 -23 -96 q-40 -84 -121 -220q-28 -55 -78 -86q-43 -24 -95 -24q-37 0 -72 12zM1117 661q0 -8 9 -8q5 0 9 7l167 352q45 102 110 132q-25 -5 -45 -22q-53 -38 -82 -102q-168 -355 -168 -359z" />
<glyph unicode="&#xa9e6;" horiz-adv-x="874" d="M16 1113l317 413l210 -40l-340 -406zM344 1113l316 413l211 -40l-342 -406z" />
<glyph unicode="&#xaa61;" horiz-adv-x="1482" d="M-193 21l15 3l-9 3l11 -1q30 0 97 61q63 65 142 242q27 31 71.5 51t99.5 20q35 0 78 -10q-46 -19 -84 -79q-26 -40 -33 -55l-7 -15l-49 -106q2 -1 3 -1h1q19 0 76.5 45t88.5 90q39 61 60 106t21 74q0 56 -86 56q-61 0 -169 -23l254 539l16 26.5t51 60t91.5 60t137.5 26.5 q63 0 119.5 -30t103.5 -76q9 10 24.5 24.5t39 29.5t54.5 28t70.5 21.5t87.5 8.5h9q70 -5 125 -31t87.5 -72.5t32.5 -111.5q0 -26 -5 -51q-22 -93 -56 -166l-35 -74l-270 -564l-16.5 -19.5t-51 -44t-89 -44t-130.5 -19.5q-59 2 -131.5 30t-107.5 106q-16 38 -16 78q0 26 6 52 q21 93 56 167l35 74l227 476q-13 32 -32.5 60.5t-46.5 47.5t-62 19q-49 0 -87.5 -29.5t-69 -74.5t-52.5 -96l-83 -183h3l-32 -69q-28 -65 -59 -132l31 2q16 0 35.5 -4t33 -17.5t13.5 -39.5q0 -31 -27 -84q-17 -34 -39 -80t-56.5 -95t-86.5 -91.5t-128 -69t-184 -26.5h-14 q-27 -3 -59 -3h-44zM90 3q123 18 198.5 108t136.5 217q26 48 42.5 81.5t16.5 67.5q0 33 -22.5 59.5t-71.5 37.5l125 285q14 33 31.5 70t40.5 64q66 74 152 74h11q-68 -5 -112.5 -46.5t-68.5 -102.5l-29 -70q-50 -116 -113 -257q10 -3 24.5 -11t28 -21.5t22.5 -33.5 q10 -23 10 -47q0 -37 -15 -68.5t-24 -47.5q-19 -42 -75 -142t-136 -162q-38 -28 -82.5 -41.5t-89.5 -13.5zM665 175q0 -31 14 -57t55 -35q28 -6 54 -6h8q58 4 93 51q38 54 81 145.5t75 164.5q94 195 233 490q12 26 17.5 54t5.5 47q0 30 -13.5 56.5t-54.5 35.5q-31 6 -59 6 q-26 0 -48 -9t-41 -32q-28 -38 -54 -86.5t-52.5 -107.5t-57.5 -126l-169 -353q0 -1 -1 -2q-80 -175 -66 -143q-20 -45 -20 -93zM700 202q0 29 8.5 49t23.5 49q180 366 339 698q11 22 25.5 44.5t33.5 38t45 15.5h4q-35 -4 -55 -36.5t-36 -70.5l-12 -24q-187 -380 -339 -698 q-7 -12 -17.5 -36t-10.5 -57q0 -24 7 -48q-16 36 -16 76zM891 -20l21 -2q61 0 118.5 47.5t89.5 114.5q136 262 302 630q23 53 42.5 107t19.5 111q0 70 -38.5 123t-93.5 80q45 -15 85 -51t57 -92q2 -9 5 -19l2 -19l1 -23q0 -59 -21 -118t-43 -106q-108 -251 -302 -631 q-19 -41 -50 -76.5t-71 -58t-88 -22.5q-18 0 -36 5z" />
<glyph unicode="&#xaa66;" horiz-adv-x="1446" d="M14 222q0 27 5 53q23 92 57 166l34 74l271 565l16.5 19.5t51.5 44.5t89.5 44.5t131.5 19.5h9q19 -2 39 -5q46 -8 89 -27.5t74 -56.5q17 -21 29 -47q4 -10 6 -21q45 42 103.5 84.5t115.5 58.5q52 13 94 13q64 0 106 -30.5t66 -88.5q11 -32 11 -69q0 -41 -11 -76 q-33 -88 -66 -165l-33 -77l-268 -562l-16 -19.5t-51 -44t-89.5 -44t-131.5 -19.5q-26 0 -54 3q37 12 75.5 37t77.5 75t78 135l165 354q75 149 144 301q25 48 30 99l1 11q0 33 -19.5 60.5t-64.5 37.5h-10q-52 0 -126.5 -70t-116.5 -148l-34 -63q-23 -62 -43.5 -103l-20.5 -41 l-271 -565l-16.5 -19.5t-51 -45t-89 -45t-131.5 -19.5q-23 2 -48 7q-97 11 -163 83q-17 20 -29 48q-15 37 -15 78zM151 177q0 -31 13.5 -56t53.5 -34q33 -6 63 -6q59 4 93 51q18 25 36 56t36 70l86 185q36 78 59 126q2 0 77.5 160.5t96.5 206.5l2 5q16 37 20 75l1 20 q0 31 -13.5 57t-55.5 35q-30 6 -58 6l-21 -1q-42 -7 -68 -40q-39 -50 -80 -136q-44 -97 -85 -185q-78 -160 -169 -354l-1 -2q-39 -84 -64 -136q-17 -39 -21 -85zM203 204v9q0 17 5 35l27 57l328 675q13 26 20.5 44t27.5 40q13 16 30 27.5t37 11.5h5q-41 -8 -62 -46 q-15 -28 -30 -61l-340 -699q-15 -31 -26 -55q-7 -15 -9 -32q-4 -17 -4 -35q0 -22 6 -45q-15 35 -15 74zM334 392q0 9 4 17l165 357q13 23 36 23q8 0 16 -3l15 -7q23 -14 23 -37q0 -8 -3 -16l-165 -357q-14 -23 -36 -23q-6 0 -15 2.5t-18 8t-15.5 14.5t-6.5 21zM428 -17 q48 16 93.5 51.5t71.5 82.5l352 734q21 50 59 101t89 85q45 28 95 41q-77 -32 -135 -95t-91 -139l-50 -105q-157 -332 -303 -631q-27 -50 -76 -82t-105 -43zM876 -10q55 4 99 33q37 23 67 54l22 26l18 24q6 12 13 27q125 275 153 333t174 388q25 56 39 114q4 17 4 34v14 q0 36 -9 71q-13 51 -52 91q44 -34 65 -87q14 -36 14 -75v-16q0 -17 -4 -36q-15 -62 -41 -116q-128 -302 -302 -667l-25 -56q-6 -14 -14 -28l-17 -26l-24 -28q-33 -33 -75 -53q-44 -22 -92 -22z" />
<glyph unicode="&#xaa67;" horiz-adv-x="1460" d="M1 218q0 26 6 52q21 93 55.5 166.5l34.5 73.5l270 564l16.5 19.5t50.5 44t88 44t130 19.5q58 0 113.5 -19t95.5 -64q13 11 30 22.5t39 22.5t49 19.5t58.5 13.5t68.5 5q63 1 134 -29t106 -107q15 -38 15 -78q0 -26 -5 -52q-22 -93 -56 -166.5l-34 -73.5l-270 -564 l-16.5 -19.5t-51.5 -44.5t-89.5 -44t-130.5 -19q-51 0 -109.5 21t-96.5 62q-13 -11 -30.5 -22.5t-39.5 -22.5t-49 -19.5t-58.5 -13.5t-68.5 -5q-69 0 -138 32.5t-102 102.5q-15 39 -15 79zM137 177q0 -31 13.5 -58t54.5 -36q33 -6 63 -6q53 3 91.5 50.5t73.5 126.5l117 256 l204 430q19 46 19 90q0 31 -13.5 57t-54.5 35q-28 7 -55 7q-41 0 -70 -21t-53 -61t-49 -96q-115 -250 -254 -536q0 -2 -1 -4l-64 -136q-23 -50 -22 -98zM179 201q2 43 20 74l341 699q10 25 18.5 43.5t28.5 40.5q13 16 30.5 28t38.5 12h3q-36 -5 -56 -38.5t-36 -68.5 l-339 -698q-16 -31 -22 -40.5t-14 -45.5q-3 -16 -3 -32q0 -24 6 -48q-16 35 -16 74zM334 392q0 9 4 17l165 357q13 23 36 23q8 0 16 -3l15 -7q23 -14 23 -37q0 -8 -3 -16l-165 -357q-14 -23 -36 -23q-6 0 -15 2.5t-18 8t-15.5 14.5t-6.5 21zM589 177q0 -31 13.5 -58 t55.5 -36q32 -6 62 -6q56 4 94.5 54t69.5 123l144 310q2 0 79 162t98 210q21 46 20 94q0 31 -13.5 57t-53.5 35q-30 7 -56 7q-27 0 -51 -9.5t-42 -31.5q-39 -51 -79 -137l-117 -256l-204 -429q-21 -42 -20 -89zM639 201q2 43 20 74l340 699q11 25 19.5 43.5t28.5 40.5 q13 16 30.5 28t38.5 12h3q-36 -5 -56 -38.5t-36 -68.5l-11 -25l-356 -729q-12 -31 -12 -62q0 -24 7 -48q-16 35 -16 74zM815 -20q10 -2 21 -2q43 0 83 24.5t72 56.5q34 38 54 82q99 194 196 399q55 114 105 230q23 53 43 107.5t20 110.5q0 29 -8 57q-32 101 -125 147 q50 -18 88.5 -54t54.5 -89q4 -18 6 -30.5t2 -36.5q0 -51 -18 -99q-68 -184 -152 -352q-97 -206 -196 -398q-31 -69 -89 -113.5t-122 -44.5q-18 0 -35 5z" />
<glyph unicode="&#xaa68;" horiz-adv-x="1446" d="M0 218q0 26 5 51q22 93 56.5 166.5l34.5 73.5l270 566l16.5 19.5t51.5 44t89.5 44t131.5 19.5h9q83 -6 148.5 -44t88.5 -113q45 42 103.5 84.5t115.5 58.5q52 13 93 13q65 0 106.5 -30.5t65.5 -88.5q12 -32 12 -70q0 -40 -12 -75q-32 -87 -64.5 -164l-32.5 -77l-269 -563 l-16.5 -19t-51 -44t-89 -44t-130.5 -19q-26 0 -54 3l9 60.5t42.5 146.5t105.5 169.5t196 134.5l42 89l145 301q12 27 20.5 54.5t8.5 56.5q0 32 -19 59.5t-63 36.5l-11 1q-53 0 -127 -70t-116 -148l-34 -63q-23 -61 -43.5 -102.5l-20.5 -41.5l-270 -565l-16.5 -19.5t-51 -44 t-89 -44t-131.5 -19.5q-62 0 -133 31.5t-107 104.5q-15 39 -15 80zM136 174q0 -31 13.5 -57t54.5 -35q33 -7 63 -7q55 3 93.5 52.5t71.5 125.5l144 310q3 0 78.5 162t98.5 210q16 37 19 76l1 21q0 30 -13.5 55.5t-54.5 34.5q-29 6 -56 6q-58 0 -92 -41q-41 -54 -79 -135 t-85 -186q-78 -161 -169 -353l-2 -3q-46 -100 -53 -113.5t-13 -29.5q-20 -45 -20 -93zM188 201q0 25 7.5 43.5t25.5 54.5q168 342 340 700q14 31 36 59q12 16 29.5 28t37.5 12h4q-38 -7 -59 -44t-32 -64l-340 -699q-37 -68 -36 -85q-3 -17 -3 -34q0 -23 6 -47q-16 36 -16 76 zM334 392q0 9 4 17l165 357q13 23 36 23q8 0 16 -3l15 -7q23 -14 23 -37q0 -8 -3 -16l-165 -357q-14 -23 -36 -23q-6 0 -15 2.5t-18 8t-15.5 14.5t-6.5 21zM414 -22q45 15 91.5 50t72.5 84q168 347 352 734q12 27 32.5 61t49.5 67t66 57q45 28 95 41q-77 -32 -135.5 -96 t-90.5 -138l-50 -105q-211 -441 -303 -630q-29 -53 -78.5 -84t-101.5 -41zM773 63q67 49 136 193l99 215l-30 -20t-71 -66.5t-78.5 -125.5t-55.5 -196zM861 -15q54 4 103 35t86 78q29 40 30 51q72 153 278 609l48 112q17 38 30.5 75.5t13.5 84.5q0 48 -15 90.5t-46 72.5 q35 -27 57 -71t22 -93q0 -51 -14 -89t-31 -77q-32 -80 -301 -667l-26 -55q-32 -70 -91.5 -113t-131.5 -43h-12z" />
<glyph unicode="&#xaa69;" horiz-adv-x="1460" d="M-4 217q0 26 5 51q22 94 56.5 167.5l34.5 73.5l271 565l16.5 19.5t51 44t89 44t131.5 19.5h9q52 -3 105.5 -22t91.5 -61q22 19 55.5 38t80.5 32t109 13q67 0 138.5 -32.5t102.5 -103.5q15 -39 15 -80q0 -25 -5 -50q-21 -94 -56 -167.5l-35 -73.5l-270 -565l-16.5 -19.5 t-51 -44.5t-89 -44.5t-131.5 -19.5q-53 2 -109.5 21t-96.5 63q-22 -19 -56 -38t-81.5 -32.5t-109.5 -13.5q-65 2 -133.5 31t-106.5 105q-15 39 -15 80zM132 173q0 -31 14 -57t55 -35q32 -6 62 -6q51 3 89.5 49t71 116.5t66.5 146.5q21 54 38 88l17 34l206 430q19 43 19 89 q0 32 -13.5 58.5t-55.5 35.5q-31 6 -59 6q-26 0 -48 -9t-41 -32q-37 -47 -66 -109.5t-99 -211.5l-169 -356q-50 -103 -68.5 -146t-18.5 -91zM175 196q0 33 8.5 53t23.5 50l328 675q28 61 48 84q13 16 30.5 27.5t37.5 11.5h4q-37 -6 -56.5 -39t-35.5 -68l-367 -754 q-5 -17 -8.5 -30t-3.5 -34q0 -24 6 -47q-15 33 -15 71zM366 455q0 8 3 16l165 357q14 23 36 23q8 0 16 -3l16 -7q23 -13 23 -36q0 -9 -4 -17l-165 -357q-13 -23 -36 -23q-16 0 -35 13t-19 34zM585 173q0 -31 14 -57t55 -35l11 -1q37 81 52 151.5t15 126.5q0 47 -5.5 78.5 t-12.5 56.5l-110 -228q-19 -43 -19 -92zM737 543q36 -69 48 -129t12 -111q0 -67 -13 -123t-29 -97q38 17 68.5 63t57.5 106l144 311q3 0 79 163t98 209q21 43 21 93q0 32 -13.5 58.5t-55.5 35.5q-31 6 -59 6q-55 0 -89 -41q-38 -51 -72 -121t-70 -152q-21 -53 -38 -86.5 l-17 -33.5zM782 534l214 440q28 61 47 84q13 16 30.5 27.5t37.5 11.5h4q-36 -6 -56 -38.5t-35 -68.5q-98 -204 -228 -469zM811 -22l21 -2q46 0 86.5 24t72 61t50.5 78q183 356 302 631q23 52 43 106.5t20 109.5q0 29 -2.5 37.5t-4.5 20.5q-34 104 -126 148q48 -16 92.5 -59 t55.5 -103q3 -16 3 -46q0 -55 -22 -116.5t-42 -104.5q-63 -149 -143.5 -312t-158.5 -320q-38 -78 -95 -118t-116 -40q-18 0 -36 5z" />
<glyph unicode="&#xaa6a;" horiz-adv-x="1460" d="M-4 217q0 26 5 51q22 94 56.5 167.5l34.5 73.5l271 565l16 19.5t51 44t89.5 44t130.5 19.5h10q52 -3 105.5 -22t91.5 -61q22 19 55.5 38t80.5 32t108 13q68 0 139.5 -32.5t102.5 -103.5q15 -39 15 -80q0 -25 -5 -50q-22 -94 -56.5 -167.5l-34.5 -73.5l-270 -565 l-16.5 -19.5t-51 -44.5t-89.5 -44.5t-131 -19.5q-53 2 -109.5 21t-96.5 63q-22 -19 -56 -38t-81.5 -32.5t-109.5 -13.5q-65 2 -134 31t-106 105q-15 39 -15 80zM132 173q0 -31 13.5 -57t55.5 -35q32 -6 62 -6q51 3 89.5 49t71 116.5t66.5 146.5q21 54 38 88l17 34l206 430 q18 43 18 89q0 32 -13.5 58.5t-54.5 35.5q-31 6 -59 6q-26 0 -48.5 -9t-40.5 -32q-37 -47 -66.5 -109.5t-98.5 -211.5l-169 -356q-50 -103 -68.5 -146t-18.5 -91zM174 196q0 33 9 53t24 50l328 675q28 61 48 84q13 16 30 27.5t38 11.5h4q-37 -6 -56.5 -39t-35.5 -68 l-367 -754q-6 -17 -9 -30t-3 -34q0 -24 6 -47q-16 33 -16 71zM585 173q0 -31 13.5 -57t55.5 -35l11 -1q37 81 52 151.5t15 126.5q0 47 -5.5 78.5t-12.5 56.5l-110 -228q-19 -43 -19 -92zM737 543q35 -69 47.5 -129t12.5 -111q0 -67 -13 -123t-29 -97q38 17 68.5 63t57.5 106 l144 311q3 0 79 163t98 209q20 43 20 93q0 32 -13.5 58.5t-54.5 35.5q-31 6 -59 6q-55 0 -89 -41q-38 -51 -72 -121t-70 -152q-21 -53 -38 -86.5l-17 -33.5zM782 534l214 440q28 61 47 84q13 16 30.5 27.5t37.5 11.5h4q-36 -6 -56 -38.5t-35 -68.5q-98 -204 -228 -469z M811 -22l21 -2q46 0 86.5 24t71.5 61t51 78q182 356 302 631q23 52 43 106.5t20 109.5q0 29 -2.5 37.5t-4.5 20.5q-34 104 -126 148q48 -16 92.5 -59t55.5 -103q3 -16 3 -46q0 -55 -22 -116.5t-42 -104.5q-63 -149 -143.5 -312t-158.5 -320q-38 -78 -95.5 -118t-115.5 -40 q-18 0 -36 5z" />
<glyph unicode="&#xaa6e;" horiz-adv-x="1625" d="M-137 19l4 0.5t11.5 2t17.5 6t23 12t27.5 19t31 28.5t33.5 40t34.5 53.5t34.5 68.5q46 98 105 223l268 561l12.5 24t40.5 55t74 56t111 28q19 2 42 2q47 0 96 -11t90 -36t66.5 -65.5t25.5 -100.5q0 -26 -6 -52q-22 -92 -56 -164l-34 -72l-208 -436q-3 -12 -3 -24 q0 -19 5.5 -33t14.5 -28q20 -33 55 -51.5t76 -18.5q50 0 88.5 27.5t68.5 72.5t54 98l329 722l15 27t45 62t76 62t107 27q50 0 110 -25l-12 2q-13 0 -33 -9t-47 -35.5t-60.5 -78t-73.5 -135.5l-343 -726l-15.5 -26t-50.5 -60t-91.5 -60t-137.5 -26q-58 0 -123 20t-100 53 q-19 17 -33 31v1l-13.5 20.5t-26.5 56t-13 82.5q0 40 16 87l255 534q15 31 22.5 59t7.5 61q0 29 -13.5 54t-53.5 34q-30 6 -57 6q-33 0 -62 -13.5t-51 -48.5q-43 -78 -122 -245.5l-79 -167.5q-27 -65 -58 -130h11q15 0 39.5 -4.5t44.5 -20t20 -49.5q0 -11 -2.5 -23.5 t-8.5 -27.5t-15 -33q-23 -47 -54 -104.5t-82.5 -111t-137 -89t-220.5 -35.5h-10q-30 -3 -64 -3q-18 0 -38 1zM99 0q88 8 171 57t137 129q34 54 62 113l60 116q13 27 13 54q0 34 -22 53.5t-56 24.5l-31 1v1l5 10q55 118 208 429q13 27 29.5 52t41 41t62.5 16q17 0 33 -4 l-17 1q-43 0 -69.5 -21t-43.5 -50q24 50 -207 -428l-14 -30l5 -1q45 -6 69.5 -31.5t24.5 -63.5q0 -33 -15 -62l-60 -116q-25 -52 -58 -107t-94 -106q-102 -78 -224 -78h-10zM190 130l4 -1q10 0 31 13t46 33t48 43t37 44q19 30 34 56.5t25 48.5t15.5 40.5t5.5 33.5 q0 50 -70 54l-128 -261zM245 177l19 51l19 41l101 190q2 3 6 3q7 0 10 -8l-101 -194q-26 -45 -54 -83zM761 239q0 20 6.5 36.5t18.5 40.5q129 281 251 544q24 56 24 112q0 48 -17.5 86.5t-45.5 75.5q-27 35 -63 60q60 -29 102 -87t42 -138q0 -60 -25 -116 q-125 -270 -264 -571q-14 -25 -14 -53q0 -23 12.5 -44t38.5 -33q-27 8 -46.5 31.5t-19.5 55.5zM1072 28q45 4 79.5 32t56.5 70q7 14 14 30l362 767q17 35 52.5 91t80.5 88q18 14 38 14q5 0 10 -1h-4q-22 0 -41.5 -19t-30.5 -36q-24 -32 -45 -68l-17 -28q-19 -30 -85.5 -171 t-303.5 -645q-14 -30 -27 -52t-43 -43q-41 -29 -89 -29h-7z" />
<glyph unicode="&#xfb01;" horiz-adv-x="1073" />
<glyph unicode="&#xfb02;" horiz-adv-x="1081" />
<glyph horiz-adv-x="393" d="M-421 -603q0 21 6.5 66t54.5 137q699 1493 706.5 1513t7.5 34q0 13 -6 22l-2 8q50 -7 87 -7q63 0 88 19q3 2 5 2q6 0 6 -7q-5 -42 -695 -1522q-35 -69 -78 -159q-31 -72 -31 -133q0 -44 26 -110t123 -98q25 -8 110 -17.5t209 -9.5q123 0 263 23t274 81q71 30 143 30 q28 0 91.5 -10t139.5 -84q13 -14 22.5 -27.5t12.5 -24.5q-147 9 -280 9q-49 0 -159 -3.5t-262 -13.5q-164 -13 -304 -13q-52 0 -166.5 4.5t-254.5 76.5q-89 47 -124 140q-13 33 -13 74zM-214 -616q0 -58 32 -108q38 -52 114 -52h12q-35 1 -67 15q-72 36 -72 144q0 70 31 135 l754 1637q3 8 2.5 13t-3.5 7l-3 1q-2 0 -6 -2.5t-7 -9.5l-755 -1638q-32 -68 -32 -142z" />
<glyph horiz-adv-x="745" d="M-386 -514q0 54 27 107l695 1487q19 41 19 58q0 5 -7 33q49 -7 88 -7q62 0 87 19l4 1q6 0 6 -9q-39 -113 -692 -1515q-36 -70 -80 -163q-28 -62 -28 -124q0 -43 39 -108q-158 87 -158 221zM-137 -603q0 21 6.5 66t54.5 137q699 1493 706.5 1513t7.5 34q0 13 -6 22l-2 8 q50 -7 87 -7q63 0 88 19q3 2 5 2q6 0 6 -7q-5 -42 -695 -1522q-35 -69 -78 -159q-31 -72 -31 -133q0 -44 26 -110t123 -98q25 -8 110 -17.5t209 -9.5q123 0 263 23t274 81q71 30 143 30q28 0 91.5 -10t139.5 -84q13 -14 22.5 -27.5t12.5 -24.5q-147 9 -280 9 q-49 0 -159 -3.5t-262 -13.5q-164 -13 -304 -13q-52 0 -166.5 4.5t-254.5 76.5q-89 47 -124 140q-13 33 -13 74zM70 -616q0 -58 32 -108q38 -52 114 -52h12q-35 1 -67 15q-72 36 -72 144q0 70 31 135l754 1637q3 8 2.5 13t-3.5 7l-3 1q-2 0 -6 -2.5t-7 -9.5l-755 -1638 q-32 -68 -32 -142z" />
<glyph horiz-adv-x="1623" d="M-785 -698q24 23 74 52q158 91 275 91q68 0 106 -34q130 -121 272 -121q14 0 51.5 4t74.5 16l9 2q111 30 223 124.5t169 221.5l57 141q68 177 137 308q-30 57 -30 110q0 39 10 77t22 65l12 26l-130 -95q-131 -95 -265 -177q-29 -19 -56 -33.5t-52 -25.5t-48 -18.5 t-44.5 -12.5t-40.5 -7t-36 -2h-16q-8 0 -20 0.5t-25 3t-23.5 5t-19.5 5.5t-15 6q36 12 67 40t54 59.5t36 55.5l12 23l252 532q47 55 106.5 74.5t119.5 19.5l20 -1l-47 9q-47 9 -83 36q-23 17 -23 44q0 16 8 35q56 108 56 156q0 41 -36 73q47 7 89 7q9 0 38 -1t59.5 -18 t32.5 -52v-2q0 -35 -38.5 -92t-38.5 -97q0 -4 1.5 -27.5t30.5 -48.5t61 -33q25 -4 45 -6v-4q-80 -8 -133 -32t-84 -52.5t-44 -49.5v-1q-13 -19 -13 -21l-165 -341l-34 -72q-35 -73 -73 -134q64 16 197.5 107.5t252.5 183.5l1 1q4 2 6 5h1q6 6 8 6l7 6q2 0 2 2h1l10 7v1 q3 1 17 13q9 7 11 8.5t3 1.5l4 4h1q0 2 2 2l5 4l2 1l1 1q2 2 3 2l33 26l288 598q67 71 167 91q68 14 137 14q31 0 96 -6.5t134 -23.5v-1h3v-1l8 -1l1 -1l11 -2v-1h4v-1h4l1 -1q3 0 4 -1l32 -8l-122 -257q0 103 -28.5 155t-72.5 69q-42 16 -86 16q-99 0 -146 -88l-214 -445 q55 7 98 7q33 0 75.5 -7t90.5 -41q71 -47 71 -136q0 -14 -2 -25v-1q-3 -14 -3 -19l-65 -130q-65 -128 -106 -183q-36 -29 -84.5 -41.5t-163.5 -17.5q-16 1 -31 4l-134 -338q-28 -77 -68 -128q-61 -80 -118 -125q-141 -111 -284 -126q123 25 271 143q49 38 114 121 q38 50 65 123l132 334q-25 5 -46 13q-14 -24 -108 -272q-118 -307 -421 -427q-173 -67 -277 -71l-40 -1q-86 0 -176 17q-181 32 -375 32q-69 0 -151 -3zM34 -18l1 6q10 -1 21 -1q62 0 166 45q43 19 89 44.5t98 59.5q89 59 172 128q6 5 12 5h4q6 -4 6 -11q0 -6 -6 -12 q-198 -165 -365 -236q-76 -34 -148 -34q-26 0 -50 6zM273 218q0 4 194 404q39 83 118 121q57 29 122 38l1 -6q-62 -16 -113 -48q-73 -45 -106 -116l-191 -393q-6 -11 -14 -12q-11 0 -11 12zM632 918q0 55 30 94l21 36q6 11 9.5 20.5t5.5 18.5l2 14v5q0 47 -31 75l-20 15 l23 -10q25 -10 41 -38q12 -23 12 -47q0 -9 -3 -20q-12 -41 -35 -75q-31 -43 -31 -88q0 -11 5 -23q17 -36 69 -50l26 -6h-27q-68 0 -90 46q-7 16 -7 33zM719 -603q0 21 6.5 66t54.5 137q118 229 125.5 249t7.5 34q0 13 -6 22l-2 8q50 -7 87 -7q63 0 88 19q3 2 5 2q6 0 6 -7 l-1 -3q-39 -115 -113 -255q-35 -69 -78 -159q-31 -72 -31 -133q0 -44 26 -110t123 -98q25 -8 110 -17.5t209 -9.5q123 0 263 23t274 81q71 30 143 30q28 0 91.5 -10t139.5 -84q13 -14 22.5 -27.5t12.5 -24.5q-147 9 -280 9q-49 0 -159 -3.5t-262 -13.5q-164 -13 -304 -13 q-52 0 -166.5 4.5t-254.5 76.5q-89 47 -124 140q-13 33 -13 74zM761 188q0 -23 9 -58t66 -60q29 -8 55 -8q21 0 52 7.5t73 84.5l58 107l54 116q1 5 6.5 21.5t5.5 38.5q0 9 -2.5 30.5t-34.5 51.5q-38 31 -96 31q-56 0 -112 -57l-121 -234v-2q-13 -39 -13 -69zM814 202 q0 15 3 30q5 23 62 133q30 62 33 65q13 29 37 47.5t50 18.5h3q-27 -6 -44 -27.5t-32 -49.5q-89 -179 -92 -191q-6 -34 -6 -55q0 -20 4 -40q-18 36 -18 69zM926 -616q0 -58 32 -108q38 -52 114 -52h12q-35 1 -67 15q-72 36 -72 144q0 70 31 135l173 373q3 8 2.5 13t-3.5 7 l-3 1q-2 0 -6 -2.5t-7 -9.5l-174 -374q-32 -68 -32 -142zM957 -19l1 6q21 -4 41 -4q58 0 114 32q42 23 71 78l42 72q50 85 86 165q0 4 3 8q15 43 15 87q0 37 -15 69l6 3q28 -45 28 -99q0 -50 -24 -97q-34 -72 -120 -220q-30 -60 -80 -87q-43 -25 -94 -25q-36 0 -74 12z M1031 659q0 4 147 314q18 41 45 70q40 45 83 55l2 -6q-44 -19 -70 -61q-20 -29 -38 -68l-145 -307q-4 -8 -12 -9q-12 0 -12 12zM1534 900l2 6q125 258 129 262h-1q-53 22 -114 33q60 -2 119 -18q14 -5 17 -7q-41 -88 -135 -277q-4 -8 -9 -8q-6 0 -8 9z" />
<glyph horiz-adv-x="1609" d="M-799 -698q24 23 74 52q158 91 275 91q68 0 106 -34q130 -121 272 -121q14 0 51.5 4t74.5 16l9 2q111 30 223 124.5t169 221.5l57 141q68 177 137 308q-30 57 -30 110q0 39 10 77t22 65l12 26l-130 -95q-131 -95 -265 -177q-29 -19 -56 -33.5t-52 -25.5t-48 -18.5 t-44.5 -12.5t-40.5 -7t-36 -2h-16q-8 0 -20 0.5t-25 3t-23.5 5t-19.5 5.5t-15 6q36 12 67 40t54 59.5t36 55.5l12 23l252 532q47 55 106.5 74.5t119.5 19.5l20 -1l-47 9q-47 9 -83 36q-23 17 -23 44q0 16 8 35q56 108 56 156q0 41 -36 73q47 7 89 7q9 0 38 -1t59.5 -18 t32.5 -52v-2q0 -35 -38.5 -92t-38.5 -97q0 -4 1.5 -27.5t30.5 -48.5t61 -33q25 -4 45 -6v-4q-80 -8 -133 -32t-84 -52.5t-44 -49.5v-1q-13 -19 -13 -21l-165 -341l-34 -72q-35 -73 -73 -134q64 16 197.5 107.5t252.5 183.5l1 1q4 2 6 5h1q6 6 8 6l7 6q2 0 2 2h1l10 7v1 q3 1 17 13q9 7 11 8.5t3 1.5l4 4h1q0 2 2 2l5 4l2 1l1 1q2 2 3 2l33 26l288 598q67 71 167 91q68 14 137 14q31 0 96 -6.5t134 -23.5v-1h3v-1l8 -1l1 -1l11 -2v-1h4v-1h4l1 -1q3 0 4 -1l32 -8l-122 -257q0 103 -28.5 155t-72.5 69q-42 16 -86 16q-99 0 -146 -88l-214 -445 q55 7 98 7q33 0 75.5 -7t90.5 -41q71 -47 71 -136q0 -14 -2 -25v-1q-3 -14 -3 -19l-65 -130q-65 -128 -106 -183q-36 -29 -84.5 -41.5t-163.5 -17.5q-16 1 -31 4l-134 -338q-28 -77 -68 -128q-61 -80 -118 -125q-141 -111 -284 -126q123 25 271 143q49 38 114 121 q38 50 65 123l132 334q-25 5 -46 13q-14 -24 -108 -272q-118 -307 -421 -427q-173 -67 -277 -71l-40 -1q-86 0 -176 17q-181 32 -375 32q-69 0 -151 -3zM20 -18l1 6q10 -1 21 -1q62 0 166 45q43 19 89 44.5t98 59.5q89 59 172 128q6 5 12 5h4q6 -4 6 -11q0 -6 -6 -12 q-198 -165 -365 -236q-76 -34 -148 -34q-26 0 -50 6zM259 218q0 4 194 404q39 83 118 121q57 29 122 38l1 -6q-62 -16 -113 -48q-73 -45 -106 -116l-191 -393q-6 -11 -14 -12q-11 0 -11 12zM618 918q0 55 30 94l21 36q6 11 9.5 20.5t5.5 18.5l2 14v5q0 47 -31 75l-20 15 l23 -10q25 -10 41 -38q12 -23 12 -47q0 -9 -3 -20q-12 -41 -35 -75q-31 -43 -31 -88q0 -11 5 -23q17 -36 69 -50l26 -6h-27q-68 0 -90 46q-7 16 -7 33zM689 -514q0 54 27 107q83 158 114 223q19 41 19 58q0 13 -5 25l-2 8q49 -7 88 -7q62 0 87 19l4 1q6 0 6 -9 q-39 -113 -111 -251q-36 -70 -80 -163q-28 -62 -28 -124q0 -43 39 -108q-158 87 -158 221zM747 188q0 -23 9 -58t66 -60q29 -8 55 -8q21 0 52 7.5t73 84.5l58 107l54 116q1 5 6.5 21.5t5.5 38.5q0 9 -2.5 30.5t-34.5 51.5q-38 31 -96 31q-56 0 -112 -57l-121 -234v-2 q-13 -39 -13 -69zM800 202q0 15 3 30q5 23 62 133q30 62 33 65q13 29 37 47.5t50 18.5h3q-27 -6 -44 -27.5t-32 -49.5q-89 -179 -92 -191q-6 -34 -6 -55q0 -20 4 -40q-18 36 -18 69zM896 -603q0 21 6.5 66t54.5 137q118 229 125.5 249t7.5 34q0 13 -6 22l-2 8q50 -7 87 -7 q63 0 88 19q3 2 5 2q6 0 6 -7l-1 -3q-39 -115 -113 -255q-35 -69 -78 -159q-31 -72 -31 -133q0 -44 26 -110t123 -98q25 -8 110 -17.5t209 -9.5q123 0 263 23t274 81q71 30 143 30q28 0 91.5 -10t139.5 -84q13 -14 22.5 -27.5t12.5 -24.5q-147 9 -280 9q-49 0 -159 -3.5 t-262 -13.5q-164 -13 -304 -13q-52 0 -166.5 4.5t-254.5 76.5q-89 47 -124 140q-13 33 -13 74zM943 -19l1 6q21 -4 41 -4q58 0 114 32q42 23 71 78l42 72q50 85 86 165q0 4 3 8q15 43 15 87q0 37 -15 69l6 3q28 -45 28 -99q0 -50 -24 -97q-34 -72 -120 -220q-30 -60 -80 -87 q-43 -25 -94 -25q-36 0 -74 12zM1017 659q0 4 147 314q18 41 45 70q40 45 83 55l2 -6q-44 -19 -70 -61q-20 -29 -38 -68l-145 -307q-4 -8 -12 -9q-12 0 -12 12zM1103 -616q0 -58 32 -108q38 -52 114 -52h12q-35 1 -67 15q-72 36 -72 144q0 70 31 135l173 373q3 8 2.5 13 t-3.5 7l-3 1q-2 0 -6 -2.5t-7 -9.5l-174 -374q-32 -68 -32 -142zM1520 900l2 6q125 258 129 262h-1q-53 22 -114 33q60 -2 119 -18q14 -5 17 -7q-41 -88 -135 -277q-4 -8 -9 -8q-6 0 -8 9z" />
<glyph horiz-adv-x="1616" d="M-792 -698q24 23 74 52q158 91 275 91q68 0 106 -34q130 -121 272 -121q14 0 51.5 4t74.5 16l9 2q111 30 223 124.5t169 221.5l57 141q68 177 137 308q-30 57 -30 110q0 39 10 77t22 65l12 26l-130 -95q-131 -95 -265 -177q-29 -19 -56 -33.5t-52 -25.5t-48 -18.5 t-44.5 -12.5t-40.5 -7t-36 -2h-16q-8 0 -20 0.5t-25 3t-23.5 5t-19.5 5.5t-15 6q36 12 67 40t54 59.5t36 55.5l12 23l252 532q47 55 106.5 74.5t119.5 19.5l20 -1l-47 9q-47 9 -83 36q-23 17 -23 44q0 16 8 35q56 108 56 156q0 41 -36 73q47 7 89 7q9 0 38 -1t59.5 -18 t32.5 -52v-2q0 -35 -38.5 -92t-38.5 -97q0 -4 1.5 -27.5t30.5 -48.5t61 -33q25 -4 45 -6v-4q-80 -8 -133 -32t-84 -52.5t-44 -49.5v-1q-13 -19 -13 -21l-165 -341l-34 -72q-35 -73 -73 -134q64 16 197.5 107.5t252.5 183.5l1 1q4 2 6 5h1q6 6 8 6l7 6q2 0 2 2h1l10 7v1 q3 1 17 13q9 7 11 8.5t3 1.5l4 4h1q0 2 2 2l5 4l2 1l1 1q2 2 3 2l33 26l288 598q67 71 167 91q68 14 137 14q31 0 96 -6.5t134 -23.5v-1h3v-1l8 -1l1 -1l11 -2v-1h4v-1h4l1 -1q3 0 4 -1l32 -8l-122 -257q0 103 -28.5 155t-72.5 69q-42 16 -86 16q-99 0 -146 -88l-214 -445 q55 7 98 7q33 0 75.5 -7t90.5 -41q71 -47 71 -136q0 -14 -2 -25v-1q-3 -14 -3 -19l-65 -130q-65 -128 -106 -183q-36 -29 -84.5 -41.5t-163.5 -17.5q-16 1 -31 4l-134 -338q-28 -77 -68 -128q-61 -80 -118 -125q-141 -111 -284 -126q123 25 271 143q49 38 114 121 q38 50 65 123l132 334q-25 5 -46 13q-14 -24 -108 -272q-118 -307 -421 -427q-173 -67 -277 -71l-40 -1q-86 0 -176 17q-181 32 -375 32q-69 0 -151 -3zM27 -18l1 6q10 -1 21 -1q62 0 166 45q43 19 89 44.5t98 59.5q89 59 172 128q6 5 12 5h4q6 -4 6 -11q0 -6 -6 -12 q-198 -165 -365 -236q-76 -34 -148 -34q-26 0 -50 6zM266 218q0 4 194 404q39 83 118 121q57 29 122 38l1 -6q-62 -16 -113 -48q-73 -45 -106 -116l-191 -393q-6 -11 -14 -12q-11 0 -11 12zM625 918q0 55 30 94l21 36q6 11 9.5 20.5t5.5 18.5l2 14v5q0 47 -31 75l-20 15 l23 -10q25 -10 41 -38q12 -23 12 -47q0 -9 -3 -20q-12 -41 -35 -75q-31 -43 -31 -88q0 -11 5 -23q17 -36 69 -50l26 -6h-27q-68 0 -90 46q-7 16 -7 33zM712 -603q0 21 6.5 66t54.5 137q118 229 125.5 249t7.5 34q0 13 -6 22l-2 8q50 -7 87 -7q63 0 88 19q3 2 5 2q6 0 6 -7 l-1 -3q-39 -115 -113 -255q-35 -69 -78 -159q-31 -72 -31 -133q0 -44 26 -110t123 -98q25 -8 110 -17.5t209 -9.5q123 0 263 23t274 81q71 30 143 30q28 0 91.5 -10t139.5 -84q13 -14 22.5 -27.5t12.5 -24.5q-147 9 -280 9q-49 0 -159 -3.5t-262 -13.5q-164 -13 -304 -13 q-52 0 -166.5 4.5t-254.5 76.5q-89 47 -124 140q-13 33 -13 74zM754 188q0 -23 9 -58t66 -60q29 -8 55 -8q21 0 52 7.5t73 84.5l58 107l54 116q1 5 6.5 21.5t5.5 38.5q0 9 -2.5 30.5t-34.5 51.5q-38 31 -96 31q-56 0 -112 -57l-121 -234v-2q-13 -39 -13 -69zM807 202 q0 15 3 30q5 23 62 133q30 62 33 65q13 29 37 47.5t50 18.5h3q-27 -6 -44 -27.5t-32 -49.5q-89 -179 -92 -191q-6 -34 -6 -55q0 -20 4 -40q-18 36 -18 69zM919 -616q0 -58 32 -108q38 -52 114 -52h12q-35 1 -67 15q-72 36 -72 144q0 70 31 135l173 373q3 8 2.5 13t-3.5 7 l-3 1q-2 0 -6 -2.5t-7 -9.5l-174 -374q-32 -68 -32 -142zM950 -19l1 6q21 -4 41 -4q58 0 114 32q42 23 71 78l42 72q50 85 86 165q0 4 3 8q15 43 15 87q0 37 -15 69l6 3q28 -45 28 -99q0 -50 -24 -97q-34 -72 -120 -220q-30 -60 -80 -87q-43 -25 -94 -25q-36 0 -74 12z M1024 659q0 4 147 314q18 41 45 70q40 45 83 55l2 -6q-44 -19 -70 -61q-20 -29 -38 -68l-145 -307q-4 -8 -12 -9q-12 0 -12 12zM1171 1496q0 45 5 67l4 22l88 198q34 64 104 91q52 24 90.5 32l38.5 8q42 6 76 6q64 0 105.5 -17t80.5 -44q24 -16 41 -39q16 -23 22 -46.5 t6 -43.5q0 -24 -4.5 -39.5l-4.5 -15.5l-63 -130.5t-104 -186.5q-37 -29 -86.5 -42t-166.5 -19q-92 9 -140.5 40.5t-67.5 74t-24 84.5zM1301 1480q0 -32 15.5 -65t60.5 -52q34 -9 63 -9q32 0 61.5 19.5t59.5 74.5l58 108l53 115l7 18.5t7 44.5q0 21 -8 43t-29 42 q-16 13 -40 21.5t-52 8.5q-29 0 -60 -13t-60 -44l-122 -237l-7 -22t-7 -53zM1354 1501q0 13 2 26q3 10 6 18q45 92 89 180q16 33 41 52q23 18 49 18h5q-27 -6 -44 -28q-13 -16 -24 -35l-9 -15l-88 -178q-3 -8 -5 -17q-5 -20 -6 -42l-1 -13q0 -20 4 -41q-12 25 -18 53 q-1 11 -1 22zM1501 1275q20 -3 41 -3q25 0 50 5q36 9 67 28q13 6 24 16q30 27 50 64q68 109 120 221q7 14 12 28q12 35 16 72l1 16q0 37 -15 73q25 -41 28 -89l1 -14q0 -33 -12 -65l-12 -30q-37 -76 -79 -150l-43 -73q-20 -37 -53 -68q-14 -10 -27 -19q-36 -21 -76 -23 l-19 -1q-39 0 -74 12zM1527 900l2 6q125 258 129 262h-1q-53 22 -114 33q60 -2 119 -18q14 -5 17 -7q-41 -88 -135 -277q-4 -8 -9 -8q-6 0 -8 9z" />
<glyph horiz-adv-x="1616" d="M-792 -698q24 23 74 52q158 91 275 91q68 0 106 -34q130 -121 272 -121q14 0 51.5 4t74.5 16l9 2q111 30 223 124.5t169 221.5l57 141q68 177 137 308q-30 57 -30 110q0 39 10 77t22 65l12 26l-130 -95q-131 -95 -265 -177q-29 -19 -56 -33.5t-52 -25.5t-48 -18.5 t-44.5 -12.5t-40.5 -7t-36 -2h-16q-8 0 -20 0.5t-25 3t-23.5 5t-19.5 5.5t-15 6q36 12 67 40t54 59.5t36 55.5l12 23l252 532q47 55 106.5 74.5t119.5 19.5l20 -1l-47 9q-47 9 -83 36q-23 17 -23 44q0 16 8 35q56 108 56 156q0 41 -36 73q47 7 89 7q9 0 38 -1t59.5 -18 t32.5 -52v-2q0 -35 -38.5 -92t-38.5 -97q0 -4 1.5 -27.5t30.5 -48.5t61 -33q25 -4 45 -6v-4q-80 -8 -133 -32t-84 -52.5t-44 -49.5v-1q-13 -19 -13 -21l-165 -341l-34 -72q-35 -73 -73 -134q64 16 197.5 107.5t252.5 183.5l1 1q4 2 6 5h1q6 6 8 6l7 6q2 0 2 2h1l10 7v1 q3 1 17 13q9 7 11 8.5t3 1.5l4 4h1q0 2 2 2l5 4l2 1l1 1q2 2 3 2l33 26l288 598q67 71 167 91q68 14 137 14q31 0 96 -6.5t134 -23.5v-1h3v-1l8 -1l1 -1l11 -2v-1h4v-1h4l1 -1q3 0 4 -1l32 -8l-122 -257q0 103 -28.5 155t-72.5 69q-42 16 -86 16q-99 0 -146 -88l-214 -445 q55 7 98 7q33 0 75.5 -7t90.5 -41q71 -47 71 -136q0 -14 -2 -25v-1q-3 -14 -3 -19l-65 -130q-65 -128 -106 -183q-36 -29 -84.5 -41.5t-163.5 -17.5q-16 1 -31 4l-134 -338q-28 -77 -68 -128q-61 -80 -118 -125q-141 -111 -284 -126q123 25 271 143q49 38 114 121 q38 50 65 123l132 334q-25 5 -46 13q-14 -24 -108 -272q-118 -307 -421 -427q-173 -67 -277 -71l-40 -1q-86 0 -176 17q-181 32 -375 32q-69 0 -151 -3zM27 -18l1 6q10 -1 21 -1q62 0 166 45q43 19 89 44.5t98 59.5q89 59 172 128q6 5 12 5h4q6 -4 6 -11q0 -6 -6 -12 q-198 -165 -365 -236q-76 -34 -148 -34q-26 0 -50 6zM266 218q0 4 194 404q39 83 118 121q57 29 122 38l1 -6q-62 -16 -113 -48q-73 -45 -106 -116l-191 -393q-6 -11 -14 -12q-11 0 -11 12zM625 918q0 55 30 94l21 36q6 11 9.5 20.5t5.5 18.5l2 14v5q0 47 -31 75l-20 15 l23 -10q25 -10 41 -38q12 -23 12 -47q0 -9 -3 -20q-12 -41 -35 -75q-31 -43 -31 -88q0 -11 5 -23q17 -36 69 -50l26 -6h-27q-68 0 -90 46q-7 16 -7 33zM696 -514q0 54 27 107q83 158 114 223q19 41 19 58q0 13 -5 25l-2 8q49 -7 88 -7q62 0 87 19l4 1q6 0 6 -9 q-39 -113 -111 -251q-36 -70 -80 -163q-28 -62 -28 -124q0 -43 39 -108q-158 87 -158 221zM754 188q0 -23 9 -58t66 -60q29 -8 55 -8q21 0 52 7.5t73 84.5l58 107l54 116q1 5 6.5 21.5t5.5 38.5q0 9 -2.5 30.5t-34.5 51.5q-38 31 -96 31q-56 0 -112 -57l-121 -234v-2 q-13 -39 -13 -69zM807 202q0 15 3 30q5 23 62 133q30 62 33 65q13 29 37 47.5t50 18.5h3q-27 -6 -44 -27.5t-32 -49.5q-89 -179 -92 -191q-6 -34 -6 -55q0 -20 4 -40q-18 36 -18 69zM903 -603q0 21 6.5 66t54.5 137q118 229 125.5 249t7.5 34q0 13 -6 22l-2 8q50 -7 87 -7 q63 0 88 19q3 2 5 2q6 0 6 -7l-1 -3q-39 -115 -113 -255q-35 -69 -78 -159q-31 -72 -31 -133q0 -44 26 -110t123 -98q25 -8 110 -17.5t209 -9.5q123 0 263 23t274 81q71 30 143 30q28 0 91.5 -10t139.5 -84q13 -14 22.5 -27.5t12.5 -24.5q-147 9 -280 9q-49 0 -159 -3.5 t-262 -13.5q-164 -13 -304 -13q-52 0 -166.5 4.5t-254.5 76.5q-89 47 -124 140q-13 33 -13 74zM950 -19l1 6q21 -4 41 -4q58 0 114 32q42 23 71 78l42 72q50 85 86 165q0 4 3 8q15 43 15 87q0 37 -15 69l6 3q28 -45 28 -99q0 -50 -24 -97q-34 -72 -120 -220q-30 -60 -80 -87 q-43 -25 -94 -25q-36 0 -74 12zM1024 659q0 4 147 314q18 41 45 70q40 45 83 55l2 -6q-44 -19 -70 -61q-20 -29 -38 -68l-145 -307q-4 -8 -12 -9q-12 0 -12 12zM1110 -616q0 -58 32 -108q38 -52 114 -52h12q-35 1 -67 15q-72 36 -72 144q0 70 31 135l173 373q3 8 2.5 13 t-3.5 7l-3 1q-2 0 -6 -2.5t-7 -9.5l-174 -374q-32 -68 -32 -142zM1171 1496q0 45 5 67l4 22l88 198q34 64 104 91q52 24 90.5 32l38.5 8q42 6 76 6q64 0 105.5 -17t80.5 -44q24 -16 41 -39q16 -23 22 -46.5t6 -43.5q0 -24 -4.5 -39.5l-4.5 -15.5l-63 -130.5t-104 -186.5 q-37 -29 -86.5 -42t-166.5 -19q-92 9 -140.5 40.5t-67.5 74t-24 84.5zM1301 1480q0 -32 15.5 -65t60.5 -52q34 -9 63 -9q32 0 61.5 19.5t59.5 74.5l58 108l53 115l7 18.5t7 44.5q0 21 -8 43t-29 42q-16 13 -40 21.5t-52 8.5q-29 0 -60 -13t-60 -44l-122 -237l-7 -22t-7 -53z M1354 1501q0 13 2 26q3 10 6 18q45 92 89 180q16 33 41 52q23 18 49 18h5q-27 -6 -44 -28q-13 -16 -24 -35l-9 -15l-88 -178q-3 -8 -5 -17q-5 -20 -6 -42l-1 -13q0 -20 4 -41q-12 25 -18 53q-1 11 -1 22zM1501 1275q20 -3 41 -3q25 0 50 5q36 9 67 28q13 6 24 16 q30 27 50 64q68 109 120 221q7 14 12 28q12 35 16 72l1 16q0 37 -15 73q25 -41 28 -89l1 -14q0 -33 -12 -65l-12 -30q-37 -76 -79 -150l-43 -73q-20 -37 -53 -68q-14 -10 -27 -19q-36 -21 -76 -23l-19 -1q-39 0 -74 12zM1527 900l2 6q125 258 129 262h-1q-53 22 -114 33 q60 -2 119 -18q14 -5 17 -7q-41 -88 -135 -277q-4 -8 -9 -8q-6 0 -8 9z" />
<glyph horiz-adv-x="1610" d="M-798 -698q24 23 74 52q158 91 275 91q68 0 106 -34q130 -121 272 -121q14 0 51.5 4t74.5 16l9 2q111 30 223 124.5t169 221.5l57 141q68 177 137 308q-30 57 -30 110q0 39 10 77t22 65l12 26l-130 -95q-131 -95 -265 -177q-29 -19 -56 -33.5t-52 -25.5t-48 -18.5 t-44.5 -12.5t-40.5 -7t-36 -2h-16q-8 0 -20 0.5t-25 3t-23.5 5t-19.5 5.5t-15 6q36 12 67 40t54 59.5t36 55.5l12 23l252 532q47 55 106.5 74.5t119.5 19.5l20 -1l-47 9q-47 9 -83 36q-23 17 -23 44q0 16 8 35q56 108 56 156q0 41 -36 73q47 7 89 7q9 0 38 -1t59.5 -18 t32.5 -52v-2q0 -35 -38.5 -92t-38.5 -97q0 -4 1.5 -27.5t30.5 -48.5t61 -33q25 -4 45 -6v-4q-80 -8 -133 -32t-84 -52.5t-44 -49.5v-1q-13 -19 -13 -21l-165 -341l-34 -72q-35 -73 -73 -134q64 16 197.5 107.5t252.5 183.5l1 1q4 2 6 5h1q6 6 8 6l7 6q2 0 2 2h1l10 7v1 q3 1 17 13q9 7 11 8.5t3 1.5l4 4h1q0 2 2 2l5 4l2 1l1 1q2 2 3 2l33 26l288 598q67 71 167 91q68 14 137 14q31 0 96 -6.5t134 -23.5v-1h3v-1l8 -1l1 -1l11 -2v-1h4v-1h4l1 -1q3 0 4 -1l32 -8l-122 -257q0 103 -28.5 155t-72.5 69q-42 16 -86 16q-99 0 -146 -88l-214 -445 q55 7 98 7q33 0 75.5 -7t90.5 -41q71 -47 71 -136q0 -14 -2 -25v-1q-3 -14 -3 -19l-65 -130q-65 -128 -106 -183q-36 -29 -84.5 -41.5t-163.5 -17.5q-16 1 -31 4l-134 -338q-28 -77 -68 -128q-61 -80 -118 -125q-141 -111 -284 -126q123 25 271 143q49 38 114 121 q38 50 65 123l132 334q-25 5 -46 13q-14 -24 -108 -272q-118 -307 -421 -427q-173 -67 -277 -71l-40 -1q-86 0 -176 17q-181 32 -375 32q-69 0 -151 -3zM21 -18l1 6q10 -1 21 -1q62 0 166 45q43 19 89 44.5t98 59.5q89 59 172 128q6 5 12 5h4q6 -4 6 -11q0 -6 -6 -12 q-198 -165 -365 -236q-76 -34 -148 -34q-26 0 -50 6zM260 218q0 4 194 404q39 83 118 121q57 29 122 38l1 -6q-62 -16 -113 -48q-73 -45 -106 -116l-191 -393q-6 -11 -14 -12q-11 0 -11 12zM619 918q0 55 30 94l21 36q6 11 9.5 20.5t5.5 18.5l2 14v5q0 47 -31 75l-20 15 l23 -10q25 -10 41 -38q12 -23 12 -47q0 -9 -3 -20q-12 -41 -35 -75q-31 -43 -31 -88q0 -11 5 -23q17 -36 69 -50l26 -6h-27q-68 0 -90 46q-7 16 -7 33zM642 -537q1 50 5 74l4 24l88 219q27 57 79.5 88.5t98 43.5l45.5 12q40 7 71 7q60 0 99.5 -18.5t75.5 -48.5 q34 -29 48.5 -63t14.5 -73q0 -34 -4.5 -50.5l-4.5 -16.5l-62.5 -144.5t-101.5 -205.5q-36 -33 -83 -47t-157 -21q-87 10 -132.5 44.5t-63 82t-20.5 93.5zM748 188q0 -23 9 -58t66 -60q29 -8 55 -8q21 0 52 7.5t73 84.5l58 107l54 116q1 5 6.5 21.5t5.5 38.5q0 9 -2.5 30.5 t-34.5 51.5q-38 31 -96 31q-56 0 -112 -57l-121 -234v-2q-13 -39 -13 -69zM761 -550q0 -37 15 -74.5t58 -58.5q32 -11 60 -11q29 0 49 14t38 42.5t38 72t46 102.5l51 131l6.5 20.5t6.5 50.5q0 28 -12 58.5t-39 51.5t-72 21q-28 0 -57.5 -14.5t-57.5 -50.5l-117 -269 l-6.5 -25.5t-6.5 -60.5zM801 202q0 15 3 30q5 23 62 133q30 62 33 65q13 29 37 47.5t50 18.5h3q-27 -6 -44 -27.5t-32 -49.5q-89 -179 -92 -191q-6 -34 -6 -55q0 -20 4 -40q-18 36 -18 69zM801 -527q0 27 8 52q48 107 95 210q17 38 44 61q24 21 51 21l6 -1q-27 -5 -46.5 -32 t-35.5 -59l-94 -208q-11 -43 -12 -84q0 -23 4 -47q-9 21 -14.5 42t-5.5 45zM931 -781q21 -3 41 -3q32 0 71.5 13t70.5 41q30 29 50 71q68 120 121 244q14 27 20.5 65t7.5 63q0 40 -15 80q29 -50 29 -114q0 -32 -6.5 -54.5t-16.5 -49.5q-57 -127 -123 -246 q-60 -116 -157 -122l-19 -1q-38 0 -74 13zM944 -19l1 6q21 -4 41 -4q58 0 114 32q42 23 71 78l42 72q50 85 86 165q0 4 3 8q15 43 15 87q0 37 -15 69l6 3q28 -45 28 -99q0 -50 -24 -97q-34 -72 -120 -220q-30 -60 -80 -87q-43 -25 -94 -25q-36 0 -74 12zM1018 659 q0 4 147 314q18 41 45 70q40 45 83 55l2 -6q-44 -19 -70 -61q-20 -29 -38 -68l-145 -307q-4 -8 -12 -9q-12 0 -12 12zM1521 900l2 6q125 258 129 262h-1q-53 22 -114 33q60 -2 119 -18q14 -5 17 -7q-41 -88 -135 -277q-4 -8 -9 -8q-6 0 -8 9z" />
<glyph horiz-adv-x="1625" d="M-166 1l5 1q5 0 14.5 3t22 9t28.5 16.5t33.5 27.5t36.5 41.5t39 57.5t40 77l106 226q271 566 284 590.5t41.5 56t74.5 56.5t112 28l43 2q50 0 107 -13t102.5 -49.5t64.5 -103.5q6 -23 6 -48q0 -26 -6 -53q-23 -95 -58 -169l-16 -36l-226 -475q10 -41 31.5 -74.5 t50.5 -57.5t69 -24l15 1q71 10 118.5 70t76.5 129q334 730 335 732t14 26q15 27 45.5 62t76.5 62.5t108 27.5q50 0 111 -25q-5 2 -12 2q-17 0 -47 -18t-72.5 -74.5t-96.5 -168.5q-347 -735 -348.5 -737t-14.5 -24q-15 -26 -50 -60t-91.5 -60t-137.5 -26h-14q-48 2 -93.5 24 t-82.5 51q-35 30 -49 45l-370 -778q-10 -22 -10 -44q0 -27 14.5 -51.5t41.5 -36.5q48 -25 147 -35l-49 -8q-48 -9 -110 -9q-49 0 -96 10.5t-78 38.5t-31 81q0 45 29 112q95 207 404 854l306 639q30 61 30 117q0 32 -13 58.5t-55 36.5q-29 6 -57 6q-34 0 -63.5 -14t-51.5 -50 q-43 -79 -124 -249l-37 -79l-25 -52l-16 -35l-10 -23q-21 -50 -50 -111l11 1q14 0 39.5 -4.5t46 -20.5t20.5 -51t-45 -121q-18 -38 -42 -80t-59 -82.5t-86.5 -73t-123.5 -52t-171 -19.5h-10q-30 -4 -64 -4zM73 -17q99 9 193 71q17 9 32 22q50 41 86 94q27 43 50 90 q8 18 74 142q12 26 12 54q0 35 -23.5 55t-55.5 24q-14 1 -31 1l1 4q85 168 104.5 211t92.5 196l16 35q22 51 57 80q30 25 78 29q17 0 34 -4l-18 2q-50 0 -85 -37q-26 -24 -41 -63l-211 -435q40 0 69 -26.5t32 -65.5q0 -37 -16 -68l-60 -118l-23 -43q-18 -37 -41 -73 q-50 -72 -123 -121q-41 -28 -88 -41q-51 -16 -104 -16zM164 114l3 -1q17 0 56 28t68 58q11 7 42 48q25 41 43 74.5t27.5 60t9.5 45.5q0 51 -72 55l-128 -262zM220 161l20 51q8 22 19 42q103 196 107 196q7 0 11 -9q-91 -182 -157 -280zM311 -678q0 21 10 41q5 9 8 18l30 64 q140 294 158 334q22 49 123 264l14 -12l-309 -657l-16 -30q-5 -15 -5 -30q0 -40 42 -61q25 -8 49 -12l-20 2q-84 8 -84 79zM417 -759l29 -3zM568 -603q0 21 6.5 66t54.5 137q118 229 125.5 249t7.5 34q0 13 -6 22l-2 8q50 -7 87 -7q63 0 88 19q3 2 5 2q6 0 6 -7l-1 -3 q-39 -115 -113 -255q-35 -69 -78 -159q-31 -72 -31 -133q0 -44 26 -110t123 -98q25 -8 110 -17.5t209 -9.5q123 0 263 23t274 81q71 30 143 30q28 0 91.5 -10t139.5 -84q13 -14 22.5 -27.5t12.5 -24.5q-147 9 -280 9q-49 0 -159 -3.5t-262 -13.5q-164 -13 -304 -13 q-52 0 -166.5 4.5t-254.5 76.5q-89 47 -124 140q-13 33 -13 74zM728 230l242 516q46 93 74 195l1 16q-2 64 -14 99q-26 81 -100 127q113 -62 130 -191l1 -23v-31q-30 -108 -76 -200q-53 -115 -119 -252q-16 -32 -128 -275zM775 -616q0 -58 32 -108q38 -52 114 -52h12 q-35 1 -67 15q-72 36 -72 144q0 70 31 135l173 373q3 8 2.5 13t-3.5 7l-3 1q-2 0 -6 -2.5t-7 -9.5l-174 -374q-32 -68 -32 -142zM1056 11q88 8 138 103q322 685 336 711q6 10 44 95q13 26 27 50l7 11q22 44 62 86q45 48 76 48l10 -1h-5q-11 0 -21 -5.5t-17 -12.5 q-32 -28 -79 -106l-16 -27q-11 -19 -28 -52q-87 -188 -101 -216q-17 -33 -70 -145l-201 -426q-25 -55 -66 -84t-87 -29h-9z" />
<glyph horiz-adv-x="1096" d="M-598 -738l52 5q52 4 125.5 25.5t144 69.5t110.5 133l104 222l131 274h167q-137 -303 -170 -365l-122 -249l-10 -14q-10 -14 -29.5 -33t-47 -35.5t-61.5 -22.5l-26 -1q-13 -2 -50 -2h2q0 -2 -281 -8zM-137 31l9 2q9 1 24 7t36 20t45 39t50 64t52 96l369 778l13 24 q12 24 40 55t73.5 55.5t110.5 28.5l42 2q49 0 105 -13.5t101 -49t63 -100.5q6 -24 6 -48q0 -26 -6 -52q-21 -92 -54 -163l-34 -72l-272 -566q-30 -63 -87.5 -99t-126.5 -36h-85q19 9 58.5 42t64.5 80l378 791q30 58 30 114v4q0 30 -13.5 54.5t-53.5 33.5q-29 7 -56 7 q-33 0 -61.5 -13.5t-50.5 -48.5q-42 -78 -120 -244l-79 -167l-57 -128h10q14 0 38.5 -4.5t44.5 -20t20 -49.5q0 -16 -6 -36.5t-20 -46.5l-18 -36q-22 -47 -54 -99t-84 -98t-133 -75t-202 -29h-10q-29 -4 -62 -4zM98 13q93 8 171.5 57t133.5 127q24 37 42 76l79 151 q12 28 12 60q0 29 -23 48t-54 24l-30 1q39 79 45.5 94t36.5 76l128 266q19 38 43.5 67t64.5 38l24 3q17 0 33 -4l-18 1q-38 0 -65.5 -20.5t-44.5 -50.5q-7 -11 -13 -24q-3 -9 -8 -18q-64 -128 -199 -411l8 -2q31 -2 60.5 -26.5t29.5 -63.5q0 -37 -14 -66q-71 -136 -80 -155 q-19 -38 -42 -74q-68 -94 -146.5 -134t-162.5 -40h-11zM153 -603q0 21 6.5 66t54.5 137q118 229 125.5 249t7.5 34q0 13 -6 22l-2 8q50 -7 87 -7q63 0 88 19q3 2 5 2q6 0 6 -7l-1 -3q-39 -115 -113 -255q-35 -69 -78 -159q-31 -72 -31 -133q0 -44 26 -110t123 -98 q25 -8 110 -17.5t209 -9.5q123 0 263 23t274 81q71 30 143 30q28 0 91.5 -10t139.5 -84q13 -14 22.5 -27.5t12.5 -24.5q-147 9 -280 9q-49 0 -159 -3.5t-262 -13.5q-164 -13 -304 -13q-52 0 -166.5 4.5t-254.5 76.5q-89 47 -124 140q-13 33 -13 74zM188 143l4 -1q20 0 74 43 t87 88q18 30 33 56t25 48t15 40.5t5 32.5q0 50 -70 54l-75 -152q-15 -27 -98 -209zM242 188l11 31q5 20 27 61q101 192 105 192q11 0 11 -11l-101 -190q-25 -43 -53 -83zM360 -616q0 -58 32 -108q38 -52 114 -52h12q-35 1 -67 15q-72 36 -72 144q0 70 31 135l173 373 q3 8 2.5 13t-3.5 7l-3 1q-2 0 -6 -2.5t-7 -9.5l-174 -374q-32 -68 -32 -142zM527 -9l15 8q35 18 69 45.5t65 81.5l43 84l264 560q28 57 49 115q8 26 12.5 38t6 22t1.5 41q-8 143 -113 205q119 -60 130 -212v-5q0 -47 -17 -84l-4 -10q-23 -66 -53 -126l-22 -45l-278 -593 q-25 -48 -77.5 -86.5t-90.5 -38.5z" />
<glyph horiz-adv-x="1096" d="M-598 -738l52 5q52 4 125.5 25.5t144 69.5t110.5 133l104 222l131 274h167q-137 -303 -170 -365l-122 -249l-10 -14q-10 -14 -29.5 -33t-47 -35.5t-61.5 -22.5l-26 -1q-13 -2 -50 -2h2q0 -2 -281 -8zM-137 31l9 2q9 1 24 7t36 20t45 39t50 64t52 96l369 778l13 24 q12 24 40 55t73.5 55.5t110.5 28.5l42 2q49 0 105 -13.5t101 -49t63 -100.5q6 -24 6 -48q0 -26 -6 -52q-21 -92 -54 -163l-34 -72l-272 -566q-30 -63 -87.5 -99t-126.5 -36h-85q19 9 58.5 42t64.5 80l378 791q30 58 30 114v4q0 30 -13.5 54.5t-53.5 33.5q-29 7 -56 7 q-33 0 -61.5 -13.5t-50.5 -48.5q-42 -78 -120 -244l-79 -167l-57 -128h10q14 0 38.5 -4.5t44.5 -20t20 -49.5q0 -16 -6 -36.5t-20 -46.5l-18 -36q-22 -47 -54 -99t-84 -98t-133 -75t-202 -29h-10q-29 -4 -62 -4zM95 -514q0 54 27 107q83 158 114 223q19 41 19 58q0 13 -5 25 l-2 8q49 -7 88 -7q62 0 87 19l4 1q6 0 6 -9q-39 -113 -111 -251q-36 -70 -80 -163q-28 -62 -28 -124q0 -43 39 -108q-158 87 -158 221zM98 13q93 8 171.5 57t133.5 127q24 37 42 76l79 151q12 28 12 60q0 29 -23 48t-54 24l-30 1q39 79 45.5 94t36.5 76l128 266 q19 38 43.5 67t64.5 38l24 3q17 0 33 -4l-18 1q-38 0 -65.5 -20.5t-44.5 -50.5q-7 -11 -13 -24q-3 -9 -8 -18q-64 -128 -199 -411l8 -2q31 -2 60.5 -26.5t29.5 -63.5q0 -37 -14 -66q-71 -136 -80 -155q-19 -38 -42 -74q-68 -94 -146.5 -134t-162.5 -40h-11zM188 143l4 -1 q20 0 74 43t87 88q18 30 33 56t25 48t15 40.5t5 32.5q0 50 -70 54l-75 -152q-15 -27 -98 -209zM242 188l11 31q5 20 27 61q101 192 105 192q11 0 11 -11l-101 -190q-25 -43 -53 -83zM302 -603q0 21 6.5 66t54.5 137q118 229 125.5 249t7.5 34q0 13 -6 22l-2 8q50 -7 87 -7 q63 0 88 19q3 2 5 2q6 0 6 -7l-1 -3q-39 -115 -113 -255q-35 -69 -78 -159q-31 -72 -31 -133q0 -44 26 -110t123 -98q25 -8 110 -17.5t209 -9.5q123 0 263 23t274 81q71 30 143 30q28 0 91.5 -10t139.5 -84q13 -14 22.5 -27.5t12.5 -24.5q-147 9 -280 9q-49 0 -159 -3.5 t-262 -13.5q-164 -13 -304 -13q-52 0 -166.5 4.5t-254.5 76.5q-89 47 -124 140q-13 33 -13 74zM509 -616q0 -58 32 -108q38 -52 114 -52h12q-35 1 -67 15q-72 36 -72 144q0 70 31 135l173 373q3 8 2.5 13t-3.5 7l-3 1q-2 0 -6 -2.5t-7 -9.5l-174 -374q-32 -68 -32 -142z M527 -9l15 8q35 18 69 45.5t65 81.5l43 84l264 560q28 57 49 115q8 26 12.5 38t6 22t1.5 41q-8 143 -113 205q119 -60 130 -212v-5q0 -47 -17 -84l-4 -10q-23 -66 -53 -126l-22 -45l-278 -593q-25 -48 -77.5 -86.5t-90.5 -38.5z" />
<glyph horiz-adv-x="1096" d="M-598 -738l52 5q52 4 125.5 25.5t144 69.5t110.5 133l104 222l131 274h167q-137 -303 -170 -365l-122 -249l-10 -14q-10 -14 -29.5 -33t-47 -35.5t-61.5 -22.5l-26 -1q-13 -2 -50 -2h2q0 -2 -281 -8zM-137 31l9 2q9 1 24 7t36 20t45 39t50 64t52 96l369 778l13 24 q12 24 40 55t73.5 55.5t110.5 28.5l42 2q49 0 105 -13.5t101 -49t63 -100.5q6 -24 6 -48q0 -26 -6 -52q-21 -92 -54 -163l-34 -72l-272 -566q-30 -63 -87.5 -99t-126.5 -36h-85q19 9 58.5 42t64.5 80l378 791q30 58 30 114v4q0 30 -13.5 54.5t-53.5 33.5q-29 7 -56 7 q-33 0 -61.5 -13.5t-50.5 -48.5q-42 -78 -120 -244l-79 -167l-57 -128h10q14 0 38.5 -4.5t44.5 -20t20 -49.5q0 -16 -6 -36.5t-20 -46.5l-18 -36q-22 -47 -54 -99t-84 -98t-133 -75t-202 -29h-10q-29 -4 -62 -4zM98 13q93 8 171.5 57t133.5 127q24 37 42 76l79 151 q12 28 12 60q0 29 -23 48t-54 24l-30 1q39 79 45.5 94t36.5 76l128 266q19 38 43.5 67t64.5 38l24 3q17 0 33 -4l-18 1q-38 0 -65.5 -20.5t-44.5 -50.5q-7 -11 -13 -24q-3 -9 -8 -18q-64 -128 -199 -411l8 -2q31 -2 60.5 -26.5t29.5 -63.5q0 -37 -14 -66q-71 -136 -80 -155 q-19 -38 -42 -74q-68 -94 -146.5 -134t-162.5 -40h-11zM153 -603q0 21 6.5 66t54.5 137q118 229 125.5 249t7.5 34q0 13 -6 22l-2 8q50 -7 87 -7q63 0 88 19q3 2 5 2q6 0 6 -7l-1 -3q-39 -115 -113 -255q-35 -69 -78 -159q-31 -72 -31 -133q0 -44 26 -110t123 -98 q25 -8 110 -17.5t209 -9.5q123 0 263 23t274 81q71 30 143 30q28 0 91.5 -10t139.5 -84q13 -14 22.5 -27.5t12.5 -24.5q-147 9 -280 9q-49 0 -159 -3.5t-262 -13.5q-164 -13 -304 -13q-52 0 -166.5 4.5t-254.5 76.5q-89 47 -124 140q-13 33 -13 74zM188 143l4 -1q20 0 74 43 t87 88q18 30 33 56t25 48t15 40.5t5 32.5q0 50 -70 54l-75 -152q-15 -27 -98 -209zM242 188l11 31q5 20 27 61q101 192 105 192q11 0 11 -11l-101 -190q-25 -43 -53 -83zM360 -616q0 -58 32 -108q38 -52 114 -52h12q-35 1 -67 15q-72 36 -72 144q0 70 31 135l173 373 q3 8 2.5 13t-3.5 7l-3 1q-2 0 -6 -2.5t-7 -9.5l-174 -374q-32 -68 -32 -142zM527 -9l15 8q35 18 69 45.5t65 81.5l43 84l264 560q28 57 49 115q8 26 12.5 38t6 22t1.5 41q-8 143 -113 205q119 -60 130 -212v-5q0 -47 -17 -84l-4 -10q-23 -66 -53 -126l-22 -45l-278 -593 q-25 -48 -77.5 -86.5t-90.5 -38.5zM630 1496q0 45 4 67l5 22l88 198q34 64 104 91q52 24 90.5 32l38.5 8q42 6 76 6q64 0 105.5 -17t80.5 -44q24 -16 41 -39q16 -23 22 -46.5t6 -43.5q0 -24 -4.5 -39.5l-4.5 -15.5l-63 -130.5t-104 -186.5q-37 -29 -86.5 -42t-166.5 -19 q-92 9 -140.5 40.5t-67.5 74t-24 84.5zM760 1480q0 -32 15.5 -65t60.5 -52q34 -9 63 -9q32 0 61.5 19.5t59.5 74.5l58 108l53 115l7 18.5t7 44.5q0 21 -8 43t-29 42q-16 13 -40 21.5t-52 8.5q-29 0 -60 -13t-60 -44l-122 -237l-7 -22t-7 -53zM813 1501q0 13 2 26q3 10 6 18 q45 92 89 180q16 33 41 52q23 18 49 18h5q-27 -6 -44 -28q-13 -16 -24 -35l-9 -15l-88 -178q-3 -8 -5 -17q-5 -20 -6 -42l-1 -13q0 -20 4 -41q-12 25 -18 53q-1 11 -1 22zM960 1275q20 -3 41 -3q25 0 50 5q36 9 67 28q13 6 24 16q30 27 50 64q68 109 120 221q7 14 12 28 q12 35 16 72l1 16q0 37 -15 73q25 -41 28 -89l1 -14q0 -33 -12 -65l-12 -30q-37 -76 -79 -150l-43 -73q-20 -37 -53 -68q-14 -10 -27 -19q-36 -21 -76 -23l-19 -1q-39 0 -74 12z" />
<glyph horiz-adv-x="1096" d="M-598 -738l52 5q52 4 125.5 25.5t144 69.5t110.5 133l104 222l131 274h167q-137 -303 -170 -365l-122 -249l-10 -14q-10 -14 -29.5 -33t-47 -35.5t-61.5 -22.5l-26 -1q-13 -2 -50 -2h2q0 -2 -281 -8zM-137 31l9 2q9 1 24 7t36 20t45 39t50 64t52 96l369 778l13 24 q12 24 40 55t73.5 55.5t110.5 28.5l42 2q49 0 105 -13.5t101 -49t63 -100.5q6 -24 6 -48q0 -26 -6 -52q-21 -92 -54 -163l-34 -72l-272 -566q-30 -63 -87.5 -99t-126.5 -36h-85q19 9 58.5 42t64.5 80l378 791q30 58 30 114v4q0 30 -13.5 54.5t-53.5 33.5q-29 7 -56 7 q-33 0 -61.5 -13.5t-50.5 -48.5q-42 -78 -120 -244l-79 -167l-57 -128h10q14 0 38.5 -4.5t44.5 -20t20 -49.5q0 -16 -6 -36.5t-20 -46.5l-18 -36q-22 -47 -54 -99t-84 -98t-133 -75t-202 -29h-10q-29 -4 -62 -4zM95 -514q0 54 27 107q83 158 114 223q19 41 19 58q0 13 -5 25 l-2 8q49 -7 88 -7q62 0 87 19l4 1q6 0 6 -9q-39 -113 -111 -251q-36 -70 -80 -163q-28 -62 -28 -124q0 -43 39 -108q-158 87 -158 221zM98 13q93 8 171.5 57t133.5 127q24 37 42 76l79 151q12 28 12 60q0 29 -23 48t-54 24l-30 1q39 79 45.5 94t36.5 76l128 266 q19 38 43.5 67t64.5 38l24 3q17 0 33 -4l-18 1q-38 0 -65.5 -20.5t-44.5 -50.5q-7 -11 -13 -24q-3 -9 -8 -18q-64 -128 -199 -411l8 -2q31 -2 60.5 -26.5t29.5 -63.5q0 -37 -14 -66q-71 -136 -80 -155q-19 -38 -42 -74q-68 -94 -146.5 -134t-162.5 -40h-11zM188 143l4 -1 q20 0 74 43t87 88q18 30 33 56t25 48t15 40.5t5 32.5q0 50 -70 54l-75 -152q-15 -27 -98 -209zM242 188l11 31q5 20 27 61q101 192 105 192q11 0 11 -11l-101 -190q-25 -43 -53 -83zM302 -603q0 21 6.5 66t54.5 137q118 229 125.5 249t7.5 34q0 13 -6 22l-2 8q50 -7 87 -7 q63 0 88 19q3 2 5 2q6 0 6 -7l-1 -3q-39 -115 -113 -255q-35 -69 -78 -159q-31 -72 -31 -133q0 -44 26 -110t123 -98q25 -8 110 -17.5t209 -9.5q123 0 263 23t274 81q71 30 143 30q28 0 91.5 -10t139.5 -84q13 -14 22.5 -27.5t12.5 -24.5q-147 9 -280 9q-49 0 -159 -3.5 t-262 -13.5q-164 -13 -304 -13q-52 0 -166.5 4.5t-254.5 76.5q-89 47 -124 140q-13 33 -13 74zM509 -616q0 -58 32 -108q38 -52 114 -52h12q-35 1 -67 15q-72 36 -72 144q0 70 31 135l173 373q3 8 2.5 13t-3.5 7l-3 1q-2 0 -6 -2.5t-7 -9.5l-174 -374q-32 -68 -32 -142z M527 -9l15 8q35 18 69 45.5t65 81.5l43 84l264 560q28 57 49 115q8 26 12.5 38t6 22t1.5 41q-8 143 -113 205q119 -60 130 -212v-5q0 -47 -17 -84l-4 -10q-23 -66 -53 -126l-22 -45l-278 -593q-25 -48 -77.5 -86.5t-90.5 -38.5zM630 1496q0 45 4 67l5 22l88 198 q34 64 104 91q52 24 90.5 32l38.5 8q42 6 76 6q64 0 105.5 -17t80.5 -44q24 -16 41 -39q16 -23 22 -46.5t6 -43.5q0 -24 -4.5 -39.5l-4.5 -15.5l-63 -130.5t-104 -186.5q-37 -29 -86.5 -42t-166.5 -19q-92 9 -140.5 40.5t-67.5 74t-24 84.5zM760 1480q0 -32 15.5 -65 t60.5 -52q34 -9 63 -9q32 0 61.5 19.5t59.5 74.5l58 108l53 115l7 18.5t7 44.5q0 21 -8 43t-29 42q-16 13 -40 21.5t-52 8.5q-29 0 -60 -13t-60 -44l-122 -237l-7 -22t-7 -53zM813 1501q0 13 2 26q3 10 6 18q45 92 89 180q16 33 41 52q23 18 49 18h5q-27 -6 -44 -28 q-13 -16 -24 -35l-9 -15l-88 -178q-3 -8 -5 -17q-5 -20 -6 -42l-1 -13q0 -20 4 -41q-12 25 -18 53q-1 11 -1 22zM960 1275q20 -3 41 -3q25 0 50 5q36 9 67 28q13 6 24 16q30 27 50 64q68 109 120 221q7 14 12 28q12 35 16 72l1 16q0 37 -15 73q25 -41 28 -89l1 -14 q0 -33 -12 -65l-12 -30q-37 -76 -79 -150l-43 -73q-20 -37 -53 -68q-14 -10 -27 -19q-36 -21 -76 -23l-19 -1q-39 0 -74 12z" />
<glyph horiz-adv-x="1625" d="M-166 1l5 1q5 0 14.5 3t22 9t28.5 16.5t33.5 27.5t36.5 41.5t39 57.5t40 77l106 226q271 566 284 590.5t41.5 56t74.5 56.5t112 28l43 2q50 0 107 -13t102.5 -49.5t64.5 -103.5q6 -23 6 -48q0 -26 -6 -53q-23 -95 -58 -169l-16 -36l-226 -475q10 -41 31.5 -74.5 t50.5 -57.5t69 -24l15 1q71 10 118.5 70t76.5 129q334 730 335 732t14 26q15 27 45.5 62t76.5 62.5t108 27.5q50 0 111 -25q-5 2 -12 2q-17 0 -47 -18t-72.5 -74.5t-96.5 -168.5q-347 -735 -348.5 -737t-14.5 -24q-15 -26 -50 -60t-91.5 -60t-137.5 -26h-14q-48 2 -93.5 24 t-82.5 51q-35 30 -49 45l-370 -778q-10 -22 -10 -44q0 -27 14.5 -51.5t41.5 -36.5q48 -25 147 -35l-49 -8q-48 -9 -110 -9q-49 0 -96 10.5t-78 38.5t-31 81q0 45 29 112q95 207 404 854l306 639q30 61 30 117q0 32 -13 58.5t-55 36.5q-29 6 -57 6q-34 0 -63.5 -14t-51.5 -50 q-43 -79 -124 -249l-37 -79l-25 -52l-16 -35l-10 -23q-21 -50 -50 -111l11 1q14 0 39.5 -4.5t46 -20.5t20.5 -51t-45 -121q-18 -38 -42 -80t-59 -82.5t-86.5 -73t-123.5 -52t-171 -19.5h-10q-30 -4 -64 -4zM73 -17q99 9 193 71q17 9 32 22q50 41 86 94q27 43 50 90 q8 18 74 142q12 26 12 54q0 35 -23.5 55t-55.5 24q-14 1 -31 1l1 4q85 168 104.5 211t92.5 196l16 35q22 51 57 80q30 25 78 29q17 0 34 -4l-18 2q-50 0 -85 -37q-26 -24 -41 -63l-211 -435q40 0 69 -26.5t32 -65.5q0 -37 -16 -68l-60 -118l-23 -43q-18 -37 -41 -73 q-50 -72 -123 -121q-41 -28 -88 -41q-51 -16 -104 -16zM164 114l3 -1q17 0 56 28t68 58q11 7 42 48q25 41 43 74.5t27.5 60t9.5 45.5q0 51 -72 55l-128 -262zM220 161l20 51q8 22 19 42q103 196 107 196q7 0 11 -9q-91 -182 -157 -280zM311 -678q0 21 10 41q5 9 8 18l30 64 q140 294 158 334q22 49 123 264l14 -12l-309 -657l-16 -30q-5 -15 -5 -30q0 -40 42 -61q25 -8 49 -12l-20 2q-84 8 -84 79zM417 -759l29 -3zM505 -514q0 54 27 107q83 158 114 223q19 41 19 58q0 13 -5 25l-2 8q49 -7 88 -7q62 0 87 19l4 1q6 0 6 -9q-39 -113 -111 -251 q-36 -70 -80 -163q-28 -62 -28 -124q0 -43 39 -108q-158 87 -158 221zM712 -603q0 21 6.5 66t54.5 137q118 229 125.5 249t7.5 34q0 13 -6 22l-2 8q50 -7 87 -7q63 0 88 19q3 2 5 2q6 0 6 -7l-1 -3q-39 -115 -113 -255q-35 -69 -78 -159q-31 -72 -31 -133q0 -44 26 -110 t123 -98q25 -8 110 -17.5t209 -9.5q123 0 263 23t274 81q71 30 143 30q28 0 91.5 -10t139.5 -84q13 -14 22.5 -27.5t12.5 -24.5q-147 9 -280 9q-49 0 -159 -3.5t-262 -13.5q-164 -13 -304 -13q-52 0 -166.5 4.5t-254.5 76.5q-89 47 -124 140q-13 33 -13 74zM728 230l242 516 q46 93 74 195l1 16q-2 64 -14 99q-26 81 -100 127q113 -62 130 -191l1 -23v-31q-30 -108 -76 -200q-53 -115 -119 -252q-16 -32 -128 -275zM919 -616q0 -58 32 -108q38 -52 114 -52h12q-35 1 -67 15q-72 36 -72 144q0 70 31 135l173 373q3 8 2.5 13t-3.5 7l-3 1 q-2 0 -6 -2.5t-7 -9.5l-174 -374q-32 -68 -32 -142zM1056 11q88 8 138 103q322 685 336 711q6 10 44 95q13 26 27 50l7 11q22 44 62 86q45 48 76 48l10 -1h-5q-11 0 -21 -5.5t-17 -12.5q-32 -28 -79 -106l-16 -27q-11 -19 -28 -52q-87 -188 -101 -216q-17 -33 -70 -145 l-201 -426q-25 -55 -66 -84t-87 -29h-9z" />
<glyph horiz-adv-x="1625" d="M-166 1l5 1q5 0 14.5 3t22 9t28.5 16.5t33.5 27.5t36.5 41.5t39 57.5t40 77l106 226q271 566 284 590.5t41.5 56t74.5 56.5t112 28l43 2q50 0 107 -13t102.5 -49.5t64.5 -103.5q6 -23 6 -48q0 -26 -6 -53q-23 -95 -58 -169l-16 -36l-226 -475q10 -41 31.5 -74.5 t50.5 -57.5t69 -24l15 1q71 10 118.5 70t76.5 129q334 730 335 732t14 26q15 27 45.5 62t76.5 62.5t108 27.5q50 0 111 -25q-5 2 -12 2q-17 0 -47 -18t-72.5 -74.5t-96.5 -168.5q-347 -735 -348.5 -737t-14.5 -24q-15 -26 -50 -60t-91.5 -60t-137.5 -26h-14q-48 2 -93.5 24 t-82.5 51q-35 30 -49 45l-370 -778q-10 -22 -10 -44q0 -27 14.5 -51.5t41.5 -36.5q48 -25 147 -35l-49 -8q-48 -9 -110 -9q-49 0 -96 10.5t-78 38.5t-31 81q0 45 29 112q95 207 404 854l306 639q30 61 30 117q0 32 -13 58.5t-55 36.5q-29 6 -57 6q-34 0 -63.5 -14t-51.5 -50 q-43 -79 -124 -249l-37 -79l-25 -52l-16 -35l-10 -23q-21 -50 -50 -111l11 1q14 0 39.5 -4.5t46 -20.5t20.5 -51t-45 -121q-18 -38 -42 -80t-59 -82.5t-86.5 -73t-123.5 -52t-171 -19.5h-10q-30 -4 -64 -4zM73 -17q99 9 193 71q17 9 32 22q50 41 86 94q27 43 50 90 q8 18 74 142q12 26 12 54q0 35 -23.5 55t-55.5 24q-14 1 -31 1l1 4q85 168 104.5 211t92.5 196l16 35q22 51 57 80q30 25 78 29q17 0 34 -4l-18 2q-50 0 -85 -37q-26 -24 -41 -63l-211 -435q40 0 69 -26.5t32 -65.5q0 -37 -16 -68l-60 -118l-23 -43q-18 -37 -41 -73 q-50 -72 -123 -121q-41 -28 -88 -41q-51 -16 -104 -16zM164 114l3 -1q17 0 56 28t68 58q11 7 42 48q25 41 43 74.5t27.5 60t9.5 45.5q0 51 -72 55l-128 -262zM220 161l20 51q8 22 19 42q103 196 107 196q7 0 11 -9q-91 -182 -157 -280zM311 -678q0 21 10 41q5 9 8 18l30 64 q140 294 158 334q22 49 123 264l14 -12l-309 -657l-16 -30q-5 -15 -5 -30q0 -40 42 -61q25 -8 49 -12l-20 2q-84 8 -84 79zM417 -759l29 -3zM568 -603q0 21 6.5 66t54.5 137q118 229 125.5 249t7.5 34q0 13 -6 22l-2 8q50 -7 87 -7q63 0 88 19q3 2 5 2q6 0 6 -7l-1 -3 q-39 -115 -113 -255q-35 -69 -78 -159q-31 -72 -31 -133q0 -44 26 -110t123 -98q25 -8 110 -17.5t209 -9.5q123 0 263 23t274 81q71 30 143 30q28 0 91.5 -10t139.5 -84q13 -14 22.5 -27.5t12.5 -24.5q-147 9 -280 9q-49 0 -159 -3.5t-262 -13.5q-164 -13 -304 -13 q-52 0 -166.5 4.5t-254.5 76.5q-89 47 -124 140q-13 33 -13 74zM728 230l242 516q46 93 74 195l1 16q-2 64 -14 99q-26 81 -100 127q113 -62 130 -191l1 -23v-31q-30 -108 -76 -200q-53 -115 -119 -252q-16 -32 -128 -275zM775 -616q0 -58 32 -108q38 -52 114 -52h12 q-35 1 -67 15q-72 36 -72 144q0 70 31 135l173 373q3 8 2.5 13t-3.5 7l-3 1q-2 0 -6 -2.5t-7 -9.5l-174 -374q-32 -68 -32 -142zM1056 11q88 8 138 103q322 685 336 711q6 10 44 95q13 26 27 50l7 11q22 44 62 86q45 48 76 48l10 -1h-5q-11 0 -21 -5.5t-17 -12.5 q-32 -28 -79 -106l-16 -27q-11 -19 -28 -52q-87 -188 -101 -216q-17 -33 -70 -145l-201 -426q-25 -55 -66 -84t-87 -29h-9zM1150 1496q0 45 4 67l5 22l88 198q34 64 104 91q52 24 90.5 32l38.5 8q42 6 76 6q64 0 105.5 -17t80.5 -44q24 -16 41 -39q16 -23 22 -46.5t6 -43.5 q0 -24 -4.5 -39.5l-4.5 -15.5l-63 -130.5t-104 -186.5q-37 -29 -86.5 -42t-166.5 -19q-92 9 -140.5 40.5t-67.5 74t-24 84.5zM1280 1480q0 -32 15.5 -65t60.5 -52q34 -9 63 -9q32 0 61.5 19.5t59.5 74.5l58 108l53 115l7 18.5t7 44.5q0 21 -8 43t-29 42q-16 13 -40 21.5 t-52 8.5q-29 0 -60 -13t-60 -44l-122 -237l-7 -22t-7 -53zM1333 1501q0 13 2 26q3 10 6 18q45 92 89 180q16 33 41 52q23 18 49 18h5q-27 -6 -44 -28q-13 -16 -24 -35l-9 -15l-88 -178q-3 -8 -5 -17q-5 -20 -6 -42l-1 -13q0 -20 4 -41q-12 25 -18 53q-1 11 -1 22zM1480 1275 q20 -3 41 -3q25 0 50 5q36 9 67 28q13 6 24 16q30 27 50 64q68 109 120 221q7 14 12 28q12 35 16 72l1 16q0 37 -15 73q25 -41 28 -89l1 -14q0 -33 -12 -65l-12 -30q-37 -76 -79 -150l-43 -73q-20 -37 -53 -68q-14 -10 -27 -19q-36 -21 -76 -23l-19 -1q-39 0 -74 12z" />
<glyph horiz-adv-x="1625" d="M-166 1l5 1q5 0 14.5 3t22 9t28.5 16.5t33.5 27.5t36.5 41.5t39 57.5t40 77l106 226q271 566 284 590.5t41.5 56t74.5 56.5t112 28l43 2q50 0 107 -13t102.5 -49.5t64.5 -103.5q6 -23 6 -48q0 -26 -6 -53q-23 -95 -58 -169l-16 -36l-226 -475q10 -41 31.5 -74.5 t50.5 -57.5t69 -24l15 1q71 10 118.5 70t76.5 129q334 730 335 732t14 26q15 27 45.5 62t76.5 62.5t108 27.5q50 0 111 -25q-5 2 -12 2q-17 0 -47 -18t-72.5 -74.5t-96.5 -168.5q-347 -735 -348.5 -737t-14.5 -24q-15 -26 -50 -60t-91.5 -60t-137.5 -26h-14q-48 2 -93.5 24 t-82.5 51q-35 30 -49 45l-370 -778q-10 -22 -10 -44q0 -27 14.5 -51.5t41.5 -36.5q48 -25 147 -35l-49 -8q-48 -9 -110 -9q-49 0 -96 10.5t-78 38.5t-31 81q0 45 29 112q95 207 404 854l306 639q30 61 30 117q0 32 -13 58.5t-55 36.5q-29 6 -57 6q-34 0 -63.5 -14t-51.5 -50 q-43 -79 -124 -249l-37 -79l-25 -52l-16 -35l-10 -23q-21 -50 -50 -111l11 1q14 0 39.5 -4.5t46 -20.5t20.5 -51t-45 -121q-18 -38 -42 -80t-59 -82.5t-86.5 -73t-123.5 -52t-171 -19.5h-10q-30 -4 -64 -4zM73 -17q99 9 193 71q17 9 32 22q50 41 86 94q27 43 50 90 q8 18 74 142q12 26 12 54q0 35 -23.5 55t-55.5 24q-14 1 -31 1l1 4q85 168 104.5 211t92.5 196l16 35q22 51 57 80q30 25 78 29q17 0 34 -4l-18 2q-50 0 -85 -37q-26 -24 -41 -63l-211 -435q40 0 69 -26.5t32 -65.5q0 -37 -16 -68l-60 -118l-23 -43q-18 -37 -41 -73 q-50 -72 -123 -121q-41 -28 -88 -41q-51 -16 -104 -16zM164 114l3 -1q17 0 56 28t68 58q11 7 42 48q25 41 43 74.5t27.5 60t9.5 45.5q0 51 -72 55l-128 -262zM220 161l20 51q8 22 19 42q103 196 107 196q7 0 11 -9q-91 -182 -157 -280zM311 -678q0 21 10 41q5 9 8 18l30 64 q140 294 158 334q22 49 123 264l14 -12l-309 -657l-16 -30q-5 -15 -5 -30q0 -40 42 -61q25 -8 49 -12l-20 2q-84 8 -84 79zM417 -759l29 -3zM505 -514q0 54 27 107q83 158 114 223q19 41 19 58q0 13 -5 25l-2 8q49 -7 88 -7q62 0 87 19l4 1q6 0 6 -9q-39 -113 -111 -251 q-36 -70 -80 -163q-28 -62 -28 -124q0 -43 39 -108q-158 87 -158 221zM712 -603q0 21 6.5 66t54.5 137q118 229 125.5 249t7.5 34q0 13 -6 22l-2 8q50 -7 87 -7q63 0 88 19q3 2 5 2q6 0 6 -7l-1 -3q-39 -115 -113 -255q-35 -69 -78 -159q-31 -72 -31 -133q0 -44 26 -110 t123 -98q25 -8 110 -17.5t209 -9.5q123 0 263 23t274 81q71 30 143 30q28 0 91.5 -10t139.5 -84q13 -14 22.5 -27.5t12.5 -24.5q-147 9 -280 9q-49 0 -159 -3.5t-262 -13.5q-164 -13 -304 -13q-52 0 -166.5 4.5t-254.5 76.5q-89 47 -124 140q-13 33 -13 74zM728 230l242 516 q46 93 74 195l1 16q-2 64 -14 99q-26 81 -100 127q113 -62 130 -191l1 -23v-31q-30 -108 -76 -200q-53 -115 -119 -252q-16 -32 -128 -275zM919 -616q0 -58 32 -108q38 -52 114 -52h12q-35 1 -67 15q-72 36 -72 144q0 70 31 135l173 373q3 8 2.5 13t-3.5 7l-3 1 q-2 0 -6 -2.5t-7 -9.5l-174 -374q-32 -68 -32 -142zM1056 11q88 8 138 103q322 685 336 711q6 10 44 95q13 26 27 50l7 11q22 44 62 86q45 48 76 48l10 -1h-5q-11 0 -21 -5.5t-17 -12.5q-32 -28 -79 -106l-16 -27q-11 -19 -28 -52q-87 -188 -101 -216q-17 -33 -70 -145 l-201 -426q-25 -55 -66 -84t-87 -29h-9zM1150 1496q0 45 4 67l5 22l88 198q34 64 104 91q52 24 90.5 32l38.5 8q42 6 76 6q64 0 105.5 -17t80.5 -44q24 -16 41 -39q16 -23 22 -46.5t6 -43.5q0 -24 -4.5 -39.5l-4.5 -15.5l-63 -130.5t-104 -186.5q-37 -29 -86.5 -42 t-166.5 -19q-92 9 -140.5 40.5t-67.5 74t-24 84.5zM1280 1480q0 -32 15.5 -65t60.5 -52q34 -9 63 -9q32 0 61.5 19.5t59.5 74.5l58 108l53 115l7 18.5t7 44.5q0 21 -8 43t-29 42q-16 13 -40 21.5t-52 8.5q-29 0 -60 -13t-60 -44l-122 -237l-7 -22t-7 -53zM1333 1501 q0 13 2 26q3 10 6 18q45 92 89 180q16 33 41 52q23 18 49 18h5q-27 -6 -44 -28q-13 -16 -24 -35l-9 -15l-88 -178q-3 -8 -5 -17q-5 -20 -6 -42l-1 -13q0 -20 4 -41q-12 25 -18 53q-1 11 -1 22zM1480 1275q20 -3 41 -3q25 0 50 5q36 9 67 28q13 6 24 16q30 27 50 64 q68 109 120 221q7 14 12 28q12 35 16 72l1 16q0 37 -15 73q25 -41 28 -89l1 -14q0 -33 -12 -65l-12 -30q-37 -76 -79 -150l-43 -73q-20 -37 -53 -68q-14 -10 -27 -19q-36 -21 -76 -23l-19 -1q-39 0 -74 12z" />
</font>
</defs>
</svg>
