<?xml version="1.0" standalone="no"?>
<!DOCTYPE svg PUBLIC "-//W3C//DTD SVG 1.1//EN" "http://www.w3.org/Graphics/SVG/1.1/DTD/svg11.dtd" >
<svg xmlns="http://www.w3.org/2000/svg" xmlns:xlink="http://www.w3.org/1999/xlink" version="1.1">
<metadata>
Created by FontForge 20201107 at Sat Aug 10 12:08:41 2024
 By 
Copyright (c) 2014AKL,All Rights Reserved
</metadata>
<defs>
<font id="AKLFREE001" horiz-adv-x="0" >
  <font-face 
    font-family="AKL FREE 001"
    font-weight="400"
    font-stretch="normal"
    units-per-em="2020"
    panose-1="2 11 8 2 4 2 4 2 2 3"
    ascent="1616"
    descent="-404"
    x-height="993"
    cap-height="1317"
    bbox="-1873 -1075.07 5042 1899"
    underline-thickness="100"
    underline-position="-273"
    unicode-range="U+0021-EA7E"
  />
<missing-glyph horiz-adv-x="1146" 
 />
    <glyph glyph-name=".notdef" horiz-adv-x="1146" 
 />
    <glyph glyph-name=".null" 
 />
    <glyph glyph-name="nonmarkingreturn" horiz-adv-x="673" 
 />
    <glyph glyph-name="exclam" unicode="!" horiz-adv-x="594" 
d="M395 1302l-24 -944h-145l-27 944h196zM387 0h-179v185h179v-185z" />
    <glyph glyph-name="quotedbl" unicode="&#x22;" horiz-adv-x="719" 
d="M619 1361l-38 -507h-115l-37 507h190zM290 1361l-37 -507h-115l-38 507h190z" />
    <glyph glyph-name="numbersign" unicode="#" horiz-adv-x="1371" 
d="M219 959h197l67 303h224l-68 -303h230l68 303h224l-68 -303h210l-47 -214h-210l-50 -224h204l-48 -214h-203l-67 -307h-224l68 307h-229l-68 -307h-224l68 307h-209l51 214h205l48 224h-201zM544 521h229l49 224h-230z" />
    <glyph glyph-name="dollar" unicode="$" horiz-adv-x="998" 
d="M929 658q0 -84 -16 -149.5t-42 -113t-61 -80.5t-71 -52t-70.5 -27t-63.5 -8v-228h-214v228h-217v214h429q9 0 20.5 3.5t26 15t28.5 33t23 57.5h-527q-22 0 -41.5 8t-34 22.5t-22.5 34t-8 42.5q0 79 13.5 139.5t36 104.5t48.5 75t53 50q29 22 57.5 34t52 19t40.5 8t22 1
v228h214v-228h217v-215h-429q-6 0 -18 -3.5t-27.5 -14.5t-29 -33t-22.5 -57h526q23 0 42.5 -9t33.5 -23t22.5 -34t8.5 -42z" />
    <glyph glyph-name="percent" unicode="%" horiz-adv-x="1628" 
d="M1555 335q0 -64 -24.5 -120.5t-67 -99t-99 -66.5t-119.5 -24q-66 0 -122.5 24t-98.5 66.5t-66.5 99t-24.5 120.5q0 63 24.5 119.5t66.5 100t98.5 68t122.5 24.5q63 0 119.5 -24.5t99 -68t67 -100t24.5 -119.5zM1254 1196l-676 -1185h-221l677 1185h220zM694 874
q0 -65 -24.5 -121.5t-67 -98.5t-100 -67t-120.5 -25q-64 0 -120.5 25t-99 67t-66.5 98.5t-24 121.5q0 64 24 120.5t66.5 99t99 66.5t120.5 24q63 0 120.5 -24t100 -66.5t67 -99t24.5 -120.5zM1364 335q0 24 -10 45.5t-25.5 38.5t-37.5 26.5t-46 9.5q-25 0 -47.5 -9.5
t-38.5 -26.5t-25 -38.5t-9 -45.5q0 -25 9 -46.5t25 -37.5t38.5 -25t47.5 -9q24 0 46 9t37.5 25t25.5 37.5t10 46.5zM502 874q0 25 -9.5 46.5t-25 37.5t-37.5 25.5t-48 9.5q-25 0 -46.5 -9.5t-37.5 -25.5t-25 -37.5t-9 -46.5q0 -24 9 -46.5t25 -38.5t37.5 -25.5t46.5 -9.5
q26 0 48 9.5t37.5 25.5t25 38.5t9.5 46.5z" />
    <glyph glyph-name="ampersand" unicode="&#x26;" horiz-adv-x="1262" 
d="M1190 335h-107l-1 -3q0 -57 -15.5 -104t-39.5 -83t-57 -61.5t-69 -41t-73 -23.5t-69 -8h-323q-86 0 -145.5 32t-99 80t-58 103.5t-20.5 104.5v111q0 71 20.5 125t54.5 91q-39 49 -57 107.5t-18 108.5q0 89 32 151t81 99.5t105 54.5t105 17h538v-214h-538
q-24 0 -43.5 -7.5t-34 -22.5t-22 -35t-7.5 -43q0 -52 29 -80t78 -28h323v-215h-323q-50 0 -78.5 -31.5t-28.5 -77.5v-103q0 -50 30 -80.5t77 -30.5h322q51 0 80 29.5t29 77.5q0 40 14 78.5t41 69t66.5 49.5t93.5 19h108v-216z" />
    <glyph glyph-name="quotesingle" unicode="'" horiz-adv-x="378" 
d="M286 1361l-38 -507h-119l-37 507h194z" />
    <glyph glyph-name="parenleft" unicode="(" horiz-adv-x="882" 
d="M817 1520l-84 -85q-2 0 -31.5 -32t-73.5 -87.5t-94.5 -130t-95 -160t-73.5 -179.5t-29 -188t29 -188t73.5 -179.5t95 -160t94.5 -129.5t73.5 -86.5t31.5 -32.5l84 -85h-330q-34 40 -75.5 93.5t-84.5 119t-85 142t-73.5 159t-51.5 169.5t-20 178q0 90 20 178t51.5 171.5
t73.5 158.5t85 141t84.5 120.5t75.5 92.5h330z" />
    <glyph glyph-name="parenright" unicode=")" horiz-adv-x="876" 
d="M778 658q0 -91 -20 -178t-52 -169.5t-73.5 -159t-85.5 -142t-85 -119t-74 -93.5h-331l84 85q0 1 30.5 32.5t74.5 86.5t95 129.5t94 160t72.5 179.5t29.5 188t-29.5 188t-72.5 179.5t-94 160t-95 130t-74.5 87.5l-30.5 32l-84 85h331q33 -38 74 -92.5t85 -120.5t85.5 -141
t73.5 -158.5t52 -171.5t20 -178z" />
    <glyph glyph-name="asterisk" unicode="*" horiz-adv-x="1019" 
d="M414 1080v237h191v-235l181 129l113 -156l-226 -162l226 -161l-113 -156l-181 129v-235h-191v235l-183 -129l-111 156l224 161l-224 162l111 156z" />
    <glyph glyph-name="plus" unicode="+" horiz-adv-x="1014" 
d="M937 551h-324v-323h-215v323h-323v215h323v323h215v-323h324v-215z" />
    <glyph glyph-name="comma" unicode="," horiz-adv-x="542" 
d="M437 249l-245 -572h-128l155 572h218z" />
    <glyph glyph-name="hyphen" unicode="-" horiz-adv-x="650" 
d="M572 490h-493v158h493v-158z" />
    <glyph glyph-name="hyphen" unicode="&#xad;" horiz-adv-x="650" 
d="M572 490h-493v158h493v-158z" />
    <glyph glyph-name="period" unicode="." horiz-adv-x="542" 
d="M375 0h-209v249h209v-249z" />
    <glyph glyph-name="slash" unicode="/" horiz-adv-x="685" 
d="M636 1361l-509 -1644h-148l507 1644h150z" />
    <glyph glyph-name="zero" unicode="0" horiz-adv-x="1739" 
d="M1636 551q0 -81 -20.5 -153.5t-58 -133.5t-89.5 -109.5t-113 -82.5t-129.5 -53t-140.5 -19h-430q-74 0 -143 19t-130 53t-111.5 82.5t-88 109.5t-58 133.5t-20.5 153.5v215q0 122 45 222.5t121 174t175.5 114t209.5 40.5h430q72 0 140.5 -18t129.5 -53t113 -84t89.5 -110
t58 -133t20.5 -153v-215zM1396 766q0 70 -26 127.5t-69 99t-98.5 64.5t-117.5 21h-430q-61 2 -117.5 -20t-99.5 -63.5t-69.5 -100t-26.5 -128.5v-215q0 -72 25.5 -130t68.5 -98.5t99.5 -63t119.5 -20.5h430q72 0 129 23.5t97.5 64.5t62.5 98.5t22 125.5v215zM1202 894
q10 -16 14 -35t0 -37t-14 -33.5t-27 -26.5l-515 -343q-12 -9 -25 -13t-27 -4q-24 0 -45 11.5t-35 30.5q-10 17 -13.5 36t-1 36.5t13 33.5t27.5 27l516 343q16 10 35 14t37 0t34 -13.5t26 -26.5z" />
    <glyph glyph-name="one" unicode="1" horiz-adv-x="666" 
d="M519 0h-239v1078h-216v239h455v-1317z" />
    <glyph glyph-name="two" unicode="2" horiz-adv-x="1414" 
d="M1305 0h-1210v442q0 34 8 71.5t25 75t43 72.5t63 60t85.5 41.5t111.5 16.5h538q48 0 71.5 24t23.5 71v106q0 48 -24 73t-69 25h-768v239h768q59 0 108 -15.5t86 -42t64 -60t44 -71t24.5 -75t7.5 -71.5v-108q0 -92 -33.5 -155.5t-83.5 -104t-108.5 -58.5t-108.5 -18h-540
q-31 0 -48 -8.5t-27 -21.5t-14.5 -31t-6.5 -35v-203h970v-239z" />
    <glyph glyph-name="three" unicode="3" horiz-adv-x="1352" 
d="M1222 335q0 -93 -32.5 -156.5t-82.5 -103t-109.5 -57.5t-109.5 -18h-766v239h766q49 0 72 24t23 72v203h-861v241h861v201q0 98 -95 98h-766v239h766q61 0 110.5 -15.5t86 -42t63.5 -60t43 -71t23.5 -75t7.5 -71.5v-647z" />
    <glyph glyph-name="four" unicode="4" horiz-adv-x="1454" 
d="M1307 0h-241v538h-847q-27 0 -48.5 9t-37.5 25.5t-26 39t-10 46.5v659h240v-538h729v538h241v-1317z" />
    <glyph glyph-name="five" unicode="5" horiz-adv-x="1410" 
d="M1326 335q0 -34 -8 -71.5t-24.5 -74.5t-43 -71.5t-64 -60t-85.5 -41.5t-110 -16h-874v239h874q45 0 69.5 27t24.5 69v107q0 46 -23.5 71t-72.5 25h-537q-93 0 -157 33.5t-103.5 83.5t-57 109.5t-17.5 109.5v443h1100v-239h-862v-204q0 -49 24.5 -72t72.5 -23h539
q51 0 109.5 -18t108 -57.5t83.5 -104.5t34 -157v-107z" />
    <glyph glyph-name="six" unicode="6" horiz-adv-x="1399" 
d="M350 779h635q51 0 109 -18t108 -57.5t84 -104.5t34 -157v-107q0 -34 -7.5 -71.5t-24.5 -74.5t-43.5 -71.5t-64 -60t-85 -41.5t-110.5 -16h-432q-45 0 -95 10.5t-99 33t-94 56t-79 83.5t-54.5 114t-20.5 145v432q0 81 20.5 145t54.5 113t79 84.5t94 57.5t99 32.5t95 10.5
h597v-239h-597q-47 -5 -84 -19.5t-63 -41t-41 -62.5t-15 -81v-95zM350 538v-96q0 -47 16 -84.5t43 -64t64.5 -40.5t81.5 -14h430q45 0 70 27t25 69v107q0 46 -24 71t-73 25h-633z" />
    <glyph glyph-name="seven" unicode="7" horiz-adv-x="1206" 
d="M1145 1256q16 -28 16 -60t-16 -60l-662 -1136h-276l626 1078h-772v239h981q31 0 59.5 -16t43.5 -45z" />
    <glyph glyph-name="eight" unicode="8" horiz-adv-x="1403" 
d="M1305 335q0 -34 -7.5 -71.5t-24.5 -74.5t-44 -71.5t-64 -60t-86 -41.5t-108 -16h-540q-51 0 -109 18t-108.5 57.5t-84.5 103t-34 156.5v107q0 34 8 72.5t25 76t44 72.5t65 59q-17 37 -25.5 76.5t-8.5 75.5v108q0 91 34 155.5t83.5 104t108 57.5t109.5 18h323
q61 0 110.5 -15.5t86 -42t63 -60t43.5 -71t24.5 -75t7.5 -71.5v-108q0 -90 -32 -156q28 -18 54.5 -44.5t45.5 -60.5t30 -77t11 -94v-107zM957 980q0 48 -24.5 73t-71.5 25h-321q-49 0 -73 -25t-24 -71v-108q0 -49 25 -72t70 -23h323q49 0 72.5 24t23.5 71v106zM1064 442
q0 45 -25 70.5t-68 25.5h-540q-45 0 -70.5 -27.5t-25.5 -68.5v-107q0 -44 27 -70t69 -26h540q45 0 69 27t24 69v107z" />
    <glyph glyph-name="nine" unicode="9" horiz-adv-x="1399" 
d="M77 874v108q0 34 7.5 71.5t24.5 75t43.5 71t63.5 60t86.5 42t109.5 15.5h431q45 0 94.5 -10.5t99.5 -32.5t94 -57.5t79 -84.5t55.5 -113t20.5 -145v-432q0 -81 -20.5 -145t-55.5 -114t-79 -83.5t-94 -56t-99.5 -33t-94.5 -10.5h-597v239h597q45 3 82.5 18.5t64.5 39.5
t41.5 61t14.5 84v96h-634q-34 0 -71.5 7.5t-74 25.5t-71.5 43t-60.5 62.5t-41.5 87t-16 110.5zM1046 874q0 48 -15 85t-42.5 63.5t-65 41t-80.5 14.5h-431q-44 0 -70 -27.5t-26 -68.5v-108q0 -47 24.5 -71t73.5 -24h632v95z" />
    <glyph glyph-name="colon" unicode=":" horiz-adv-x="632" 
d="M421 727h-209v250h209v-250zM421 0h-209v249h209v-249z" />
    <glyph glyph-name="semicolon" unicode=";" horiz-adv-x="632" 
d="M421 727h-209v250h209v-250zM479 249l-245 -572h-127l154 572h218z" />
    <glyph glyph-name="semicolon" unicode="&#x37e;" horiz-adv-x="632" 
d="M421 727h-209v250h209v-250zM479 249l-245 -572h-127l154 572h218z" />
    <glyph glyph-name="less" unicode="&#x3c;" horiz-adv-x="987" 
d="M893 1150l-547 -490l547 -479h-344l-443 389q-42 33 -42 90q0 27 10 49.5t30 38.5l449 402h340z" />
    <glyph glyph-name="equal" unicode="=" horiz-adv-x="1111" 
d="M985 766h-861v216h861v-216zM985 335h-861v216h861v-216z" />
    <glyph glyph-name="greater" unicode="&#x3e;" horiz-adv-x="987" 
d="M432 1150l450 -402q19 -16 29.5 -38.5t10.5 -49.5q0 -26 -11.5 -49.5t-30.5 -40.5l-444 -389h-344l547 479l-547 490h340z" />
    <glyph glyph-name="question" unicode="?" horiz-adv-x="1251" 
d="M1172 874q0 -50 -18 -109.5t-57.5 -109.5t-103.5 -83.5t-157 -33.5h-202v-215h-239v335q0 24 9.5 46t25 38.5t37 26.5t46.5 10h323q48 0 72.5 23t24.5 72v108q0 46 -23.5 71t-73.5 25h-764v239h764q52 0 111 -18t108.5 -57.5t83 -104t33.5 -155.5v-108zM632 120
q0 -25 -9.5 -46.5t-25.5 -37t-37.5 -25t-46.5 -9.5t-46.5 9.5t-37 25t-25 37t-9.5 46.5t9.5 46.5t25 37.5t37 25.5t46.5 9.5t46.5 -9.5t37.5 -25.5t25.5 -37.5t9.5 -46.5z" />
    <glyph glyph-name="at" unicode="@" horiz-adv-x="1343" 
d="M1229 438q0 -30 -10 -66t-35 -67t-65 -52t-97 -21h-467q-31 0 -66.5 11.5t-67 36t-52 63t-20.5 95.5q0 31 11.5 68t36 67t63 51.5t95.5 21.5h208v-181h-208h-6.5t-8.5 -3t-6.5 -8t-2.5 -16q0 -14 8 -19t18 -5h241q7 0 12.5 5t5.5 22v232q0 8 -3 17.5t-26 9.5h-334v181
h337q30 0 66.5 -11t68.5 -36t52 -64.5t20 -96.5v-235q0 -6 -1 -12t-1 -12h27q12 0 19.5 3t7.5 24v348q0 33 -11.5 59.5t-30 44.5t-44.5 28.5t-58 10.5h-466q-33 0 -59 -11.5t-44.5 -31t-29 -44.5t-10.5 -56v-467q0 -30 11.5 -56.5t30.5 -46t45.5 -29.5t55.5 -10h116v-182
h-116q-49 0 -105 17.5t-105 56t-81.5 99.5t-32.5 151v467q0 49 17.5 106t56 105t99.5 80.5t151 32.5h466q50 0 107 -17.5t105.5 -55t80 -99.5t31.5 -152v-351z" />
    <glyph glyph-name="A" unicode="A" horiz-adv-x="1569" 
d="M1429 0h-239v323h-838v-323h-239v658q0 144 49.5 266t137 208t208 135.5t263.5 49.5h537q25 0 47.5 -10t38.5 -26t25.5 -38.5t9.5 -46.5v-1196zM352 562h838v516h-419q-12 0 -46.5 -3t-81.5 -16t-97.5 -39.5t-94 -73.5t-71.5 -117.5t-28 -170.5v-96z" />
    <glyph glyph-name="B" unicode="B" horiz-adv-x="1522" 
d="M1452 289q0 -45 -15.5 -94.5t-50 -93t-90 -72.5t-134.5 -29h-906q-26 0 -48 9t-38 25.5t-25.5 38t-9.5 47.5v1076q0 24 9.5 46.5t25.5 38.5t38 26t48 10h799q43 0 94 -15.5t94 -50t72 -90.5t29 -134v-45q0 -65 -20.5 -137t-67.5 -138q40 -25 75.5 -59.5t62 -80.5
t42.5 -104.5t16 -127.5v-46zM1213 335q0 47 -15 84.5t-41.5 64t-64 40.5t-84.5 14h-538v241h431q47 0 84.5 14t63.5 41t40.5 64t14.5 84v45q0 51 -49 51h-680v-839h787q6 0 15 1t17 5.5t13.5 16t5.5 29.5v44z" />
    <glyph glyph-name="C" unicode="C" horiz-adv-x="1405" 
d="M1317 0h-862q-32 0 -70.5 7.5t-75 24.5t-71.5 43.5t-60.5 62.5t-41.5 86.5t-16 110.5v647q0 34 7.5 71.5t24.5 75t43.5 71t64 60t86.5 42t109 15.5h862v-239h-862q-47 0 -71.5 -25t-24.5 -73v-645q0 -46 25.5 -71t70.5 -25h862v-239z" />
    <glyph glyph-name="D" unicode="D" horiz-adv-x="1548" 
d="M1452 551q0 -120 -42.5 -220.5t-116 -174t-174 -115t-218.5 -41.5h-645q-26 0 -48 9t-38 25.5t-25.5 38t-9.5 47.5v1076q0 24 9.5 46.5t25.5 38.5t38 26t48 10h645q118 0 218.5 -42t174 -114t116 -173.5t42.5 -221.5v-215zM1213 766q0 69 -22.5 127t-64 98.5t-98.5 63.5
t-127 23h-526v-839h526q70 0 127 22.5t98.5 63t64 97.5t22.5 129v215z" />
    <glyph glyph-name="E" unicode="E" horiz-adv-x="1420" 
d="M1220 538h-754v241h754v-241zM1328 0h-862q-50 0 -108.5 18t-108.5 57.5t-84 103t-34 156.5v861q0 24 10 46.5t26 38.5t37.5 26t47.5 10h1076v-239h-958v-743q0 -48 25 -72t73 -24h860v-239z" />
    <glyph glyph-name="F" unicode="F" horiz-adv-x="1387" 
d="M1226 538h-754v241h754v-241zM1333 1078h-957v-1078h-238v1196q0 24 9 46.5t25 38.5t37.5 26t48.5 10h1075v-239z" />
    <glyph glyph-name="G" unicode="G" horiz-adv-x="1548" 
d="M1437 120q0 -26 -9.5 -47.5t-25.5 -38t-38 -25.5t-47 -9h-862q-32 0 -70.5 7.5t-75 24.5t-71.5 43.5t-60.5 62.5t-41.5 86.5t-16 110.5v647q0 34 7.5 71.5t24.5 75t43.5 71t64 60t86.5 42t109 15.5h970v-239h-970q-47 0 -71.5 -25t-24.5 -73v-645q0 -46 25.5 -71
t70.5 -25h743v299h-636v241h755q25 0 47 -10t38 -26.5t25.5 -38.5t9.5 -46v-538z" />
    <glyph glyph-name="H" unicode="H" horiz-adv-x="1596" 
d="M378 779h839v538h238v-1317h-238v538h-839v-538h-238v1317h238v-538z" />
    <glyph glyph-name="I" unicode="I" horiz-adv-x="518" 
d="M378 0h-238v1317h238v-1317z" />
    <glyph glyph-name="J" unicode="J" horiz-adv-x="1380" 
d="M1245 335q0 -71 -24.5 -132.5t-70 -106.5t-106.5 -70.5t-134 -25.5h-874v239h874q45 0 69.5 25t24.5 71v982h241v-982z" />
    <glyph glyph-name="K" unicode="K" horiz-adv-x="1529" 
d="M1518 0h-339l-538 538h-167v241h167l538 538h339l-678 -659zM378 0h-238v1317h238v-1317z" />
    <glyph glyph-name="L" unicode="L" horiz-adv-x="1384" 
d="M1346 0h-1088q-27 0 -48.5 9t-37.5 25.5t-25 38t-9 47.5v1197h238v-1078h970v-239z" />
    <glyph glyph-name="M" unicode="M" horiz-adv-x="1809" 
d="M1670 0h-241v784l-423 -745q-15 -28 -43 -42.5t-60 -14.5q-33 0 -60 14.5t-42 42.5l-425 745v-784h-238v1215q0 41 24 73t64 43q18 4 38 3t38 -7.5t32 -19.5t25 -30l544 -945l543 945q20 36 58 50t77 4q40 -11 64.5 -43t24.5 -73v-1215z" />
    <glyph glyph-name="N" unicode="N" horiz-adv-x="1593" 
d="M1453 102q0 -25 -10 -47.5t-26 -38.5t-37.5 -25t-46.5 -9q-23 0 -45.5 8t-38.5 27l-873 910v-927h-238v1215q0 37 20.5 66t51.5 45q34 13 70 6.5t62 -33.5l873 -910v928h238v-1215z" />
    <glyph glyph-name="O" unicode="O" horiz-adv-x="1617" 
d="M1520 533q0 -121 -41.5 -222t-115 -174t-174 -114t-218.5 -41h-324q-119 0 -219.5 41t-174.5 114t-116 174t-42 222v251q0 119 42 220t116 174.5t174.5 115t219.5 41.5h324q118 0 218.5 -41.5t174 -115t115 -174.5t41.5 -220v-251zM1281 784q0 72 -22.5 129.5t-63.5 97.5
t-99 62.5t-125 22.5h-324q-69 0 -126.5 -22.5t-99 -62.5t-64 -97.5t-22.5 -129.5v-251q0 -70 22.5 -127.5t64 -99t99 -64t126.5 -22.5h322q69 0 126 22.5t99 64t64.5 99t22.5 127.5v251z" />
    <glyph glyph-name="P" unicode="P" horiz-adv-x="1516" 
d="M1450 766q0 -82 -21 -146.5t-54.5 -113.5t-78.5 -84t-94.5 -56.5t-100 -32t-93.5 -10.5h-540v239h540q45 4 82.5 19t64 40.5t41.5 62t15 82.5v108q-5 45 -19.5 82.5t-39.5 64.5t-61 42t-83 15h-538q-49 0 -73 -25t-24 -71v-982h-240v982q0 91 34 155.5t84 104t108.5 57.5
t108.5 18h540q81 0 145 -21t113 -55t83.5 -79t57 -94t33 -100t10.5 -94v-108z" />
    <glyph glyph-name="Q" unicode="Q" horiz-adv-x="1617" 
d="M1520 533q0 -93 -24.5 -174t-69 -146.5t-107.5 -115.5t-140 -79l278 -221h-346l-229 185h-235q-119 0 -219.5 41t-174.5 114t-116 174t-42 222v251q0 119 42 220t116 174.5t174.5 115t219.5 41.5h324q118 0 218.5 -41.5t174 -115t115 -174.5t41.5 -220v-251zM1281 784
q0 72 -22.5 129.5t-63.5 97.5t-99 62.5t-125 22.5h-324q-69 0 -126.5 -22.5t-99 -62.5t-64 -97.5t-22.5 -129.5v-251q0 -70 22.5 -127.5t64 -99t99 -64t126.5 -22.5h322q69 0 126 22.5t99 64t64.5 99t22.5 127.5v251z" />
    <glyph glyph-name="R" unicode="R" horiz-adv-x="1555" 
d="M1453 874q0 -83 -20.5 -146.5t-54.5 -112.5t-79 -83.5t-93.5 -57t-99.5 -33t-94 -10.5l498 -431h-369l-498 431h-171v238h540q45 4 81.5 19t63.5 40.5t42.5 62t15.5 83.5v151q0 21 -5.5 31t-13.5 14.5t-16 6t-16 1.5h-788v-1078h-238v1196q0 24 9 46.5t25 38.5t37.5 26
t48.5 10h906q79 0 134.5 -29.5t90 -72.5t49.5 -94t15 -94v-153z" />
    <glyph glyph-name="S" unicode="S" horiz-adv-x="1463" 
d="M1403 387q0 -71 -18 -127.5t-48 -99t-69.5 -73.5t-81 -50t-85.5 -28t-82 -9h-922v239h922q68 0 106.5 40.5t38.5 107.5q0 34 -10.5 61.5t-29.5 47t-46 31t-59 11.5h-549q-58 0 -125 20.5t-124.5 66.5t-96 120.5t-38.5 181.5t38.5 181.5t96 120.5t124.5 67t125 21h813
v-239h-813q-70 0 -107.5 -42t-37.5 -109q0 -68 37.5 -108t107.5 -40h549h2q38 0 81 -10.5t85 -30.5t81 -50.5t69 -74t48 -99t18 -127.5z" />
    <glyph glyph-name="T" unicode="T" horiz-adv-x="1366" 
d="M1328 1078h-527v-1078h-239v1078h-526v239h1292v-239z" />
    <glyph glyph-name="U" unicode="U" horiz-adv-x="1567" 
d="M1427 120q0 -26 -9.5 -47.5t-25.5 -38t-38.5 -25.5t-46.5 -9h-538q-75 0 -153 17t-151.5 51t-137 87t-113 126t-76.5 168t-27 209v659h239v-659q0 -102 28 -171t71.5 -116.5t94 -73.5t98 -39.5t82 -16t45.5 -2.5h419v1078h239v-1197z" />
    <glyph glyph-name="V" unicode="V" horiz-adv-x="1451" 
d="M1457 1317l-624 -1270q-13 -30 -42.5 -47.5t-64.5 -17.5q-34 0 -63 17.5t-44 47.5l-623 1270h268l462 -949l464 949h267z" />
    <glyph glyph-name="W" unicode="W" horiz-adv-x="1884" 
d="M1818 1317l-219 -1234q-8 -38 -33.5 -64t-63.5 -34q-37 -6 -71 8t-53 46l-436 719l-438 -719q-16 -26 -43 -41t-59 -15q-43 0 -76 28t-40 72l-222 1234h243l158 -870l375 601q16 25 43 40.5t59 15.5q30 0 57.5 -15.5t44.5 -40.5l374 -601l158 870h242z" />
    <glyph glyph-name="X" unicode="X" horiz-adv-x="1480" 
d="M739 847l402 470h325l-565 -660l562 -657h-324l-400 466l-398 -466h-326l563 657l-565 660h324z" />
    <glyph glyph-name="Y" unicode="Y" horiz-adv-x="1468" 
d="M1392 876q0 -83 -21 -146.5t-54.5 -113t-79 -83.5t-94.5 -56.5t-99 -33.5t-95 -11h-95v-432h-241v432h-96q-43 0 -92.5 11t-99.5 33.5t-94.5 56.5t-79 83.5t-55.5 114t-21 145.5v441h239v-441q0 -47 15 -84.5t41.5 -64t64 -40.5t84.5 -14h430q34 6 70 14.5t66 30t48.5 59
t18.5 99.5v441h240v-441z" />
    <glyph glyph-name="Z" unicode="Z" horiz-adv-x="1341" 
d="M1265 1245q14 -32 8 -68t-30 -60l-788 -878h808v-239h-1077q-34 0 -64 19.5t-45 52.5q-15 32 -9.5 66.5t29.5 60.5l789 879h-809v239h1080q33 0 63.5 -20t44.5 -52z" />
    <glyph glyph-name="bracketleft" unicode="[" horiz-adv-x="687" 
d="M621 1290h-256l-4 -1265h256v-242h-375q-22 0 -45 10t-39 26q-17 18 -26.5 40.5t-9.5 45.5v1505q0 25 10.5 46.5t26 37.5t38.5 25.5t47 9.5h377v-239z" />
    <glyph glyph-name="backslash" unicode="\" horiz-adv-x="1240" 
d="M1161 0h-257l-831 1317h256z" />
    <glyph glyph-name="bracketright" unicode="]" horiz-adv-x="687" 
d="M562 -95q0 -23 -9 -45.5t-27 -40.5q-16 -16 -38 -26t-46 -10h-374v242h253l-1 1265h-256v239h374q25 0 47.5 -9.5t39.5 -25.5t27 -37.5t10 -46.5v-1505z" />
    <glyph glyph-name="asciicircum" unicode="^" horiz-adv-x="1303" 
d="M1186 598h-172l-364 546l-362 -548h-171l479 706h110z" />
    <glyph glyph-name="underscore" unicode="_" horiz-adv-x="978" 
d="M992 -263h-1006v114h1006v-114z" />
    <glyph glyph-name="grave" unicode="`" horiz-adv-x="978" 
d="M586 1139h-131l-238 326h213z" />
    <glyph glyph-name="a" unicode="a" horiz-adv-x="1228" 
d="M1136 329q0 -51 -18 -108.5t-56.5 -106t-101.5 -81.5t-153 -33h-431q-51 0 -108.5 18t-106 56.5t-81.5 101.5t-33 153q0 49 18 107.5t56.5 107t101.5 81.5t153 33h431v-227h-431q-49 0 -75 -30.5t-26 -73.5q0 -47 30 -73t73 -26h429q49 0 75 29t26 74v333q0 47 -29 74.5
t-72 27.5h-525v227h525q49 0 106.5 -18t106 -56.5t82.5 -101.5t34 -153v-335z" />
    <glyph glyph-name="b" unicode="b" horiz-adv-x="1298" 
d="M1206 335q0 -34 -8 -71.5t-24.5 -74.5t-43 -71.5t-63.5 -60t-85.5 -41.5t-111.5 -16h-430q-34 0 -71.5 7.5t-74 24.5t-71.5 43.5t-60 62.5t-41 86.5t-16 110.5v1077h238v-1077q0 -44 27 -70t69 -26h430q45 0 71 26t26 70v323q0 45 -26.5 70.5t-70.5 25.5h-430v239h430
q34 0 72 -7.5t75.5 -24.5t71.5 -43t59 -63t41.5 -86t16.5 -111v-323z" />
    <glyph glyph-name="c" unicode="c" horiz-adv-x="1159" 
d="M1072 0h-647q-50 0 -108.5 18t-108.5 57.5t-84 103t-34 156.5v323q0 34 8 72t25 75.5t43 71t62.5 59t85.5 41.5t111 16h647v-239h-647q-47 0 -71.5 -24.5t-24.5 -72.5v-322q0 -48 24.5 -72t73.5 -24h645v-239z" />
    <glyph glyph-name="d" unicode="d" horiz-adv-x="1317" 
d="M1200 335q0 -60 -16 -110.5t-41.5 -86.5t-59.5 -62.5t-71.5 -43.5t-75 -24.5t-71.5 -7.5h-431q-61 0 -110 16t-86 41.5t-63 60t-43 71.5t-24.5 75.5t-7.5 70.5v323q0 92 33.5 156t83.5 103.5t108.5 57.5t108.5 18h431v-239h-429q-49 0 -73 -24.5t-24 -71.5v-321
q0 -50 24 -74t71 -24h431q49 0 72.5 24t23.5 72v1077h239v-1077z" />
    <glyph glyph-name="e" unicode="e" horiz-adv-x="1228" 
d="M1179 664q0 -49 -18 -106.5t-56.5 -107.5t-101.5 -82.5t-153 -32.5h-430v227h430q49 0 75 30.5t26 73.5q0 47 -29.5 73.5t-71.5 26.5h-430q-50 0 -76 -30.5t-26 -73.5v-333q0 -49 29 -75t74 -26h429v-228h-430q-52 0 -109.5 18t-106 56.5t-81.5 101.5t-33 153v335
q0 49 18 106t56.5 107t101.5 83t154 33h430q49 0 106.5 -18t106 -56.5t82.5 -101.5t34 -153z" />
    <glyph glyph-name="f" unicode="f" horiz-adv-x="1034" 
d="M989 754h-540v239h540v-239zM989 1184h-537q-50 0 -74 -24t-24 -71v-1089h-239v1089q0 61 16 110.5t41 86t60 63t72 43t74.5 24t70.5 7.5h540v-239z" />
    <glyph glyph-name="g" unicode="g" horiz-adv-x="1297" 
d="M1190 -95q0 -61 -15.5 -111t-41.5 -86.5t-59.5 -63t-71 -43.5t-75 -24.5t-71.5 -7.5h-431v239h431q48 0 71.5 24.5t23.5 72.5v753q0 47 -23.5 71.5t-71.5 24.5h-431q-45 0 -70.5 -27t-25.5 -69v-323q0 -48 24.5 -72t73.5 -24h429v-239h-431q-34 0 -71.5 7.5t-75 24.5
t-71.5 43.5t-59.5 62.5t-41.5 86.5t-16 110.5v323q0 34 8 72t25 75.5t43 71t62.5 59t85.5 41.5t111 16h431q34 0 71.5 -7.5t75 -24.5t71 -43t59.5 -63t41.5 -86t15.5 -111v-753z" />
    <glyph glyph-name="h" unicode="h" horiz-adv-x="1322" 
d="M1215 0h-239v658q0 47 -23.5 71.5t-72.5 24.5h-431v239h431q34 0 71.5 -7.5t75 -24.5t71.5 -43t59.5 -63t41.5 -86t16 -111v-658zM354 0h-239v1412h239v-1412z" />
    <glyph glyph-name="i" unicode="i" horiz-adv-x="470" 
d="M354 1196h-239v216h239v-216zM354 0h-239v993h239v-993z" />
    <glyph glyph-name="j" unicode="j" horiz-adv-x="470" 
d="M355 1196h-238v216h238v-216zM355 -95q0 -61 -16 -111t-41 -86.5t-59 -63t-72 -43.5t-75.5 -24.5t-70.5 -7.5h-431v239h431q47 0 71.5 24.5t24.5 72.5v1088h238v-1088z" />
    <glyph glyph-name="k" unicode="k" horiz-adv-x="1299" 
d="M1277 0h-344l-481 465q-40 37 -38 91q2 27 13 48.5t32 38.5l436 351h382l-563 -452zM354 0h-239v1412h239v-1412z" />
    <glyph glyph-name="l" unicode="l" horiz-adv-x="588" 
d="M547 0h-107q-51 0 -109 18t-109 57.5t-83.5 103t-32.5 156.5v1077h238v-1077q0 -44 27 -70t69 -26h107v-239z" />
    <glyph glyph-name="m" unicode="m" horiz-adv-x="1641" 
d="M996 0h-238v658q0 47 -24.5 71.5t-73.5 24.5h-310v-754h-239v874q0 25 9 46.5t25.5 37.5t39 25.5t46.5 9.5h431q49 0 106 -18t108 -56v74h324q33 0 70.5 -7.5t75.5 -24.5t72 -43t59 -63t41 -86t16 -111v-658h-238v658q0 47 -23.5 71.5t-72.5 24.5h-215q11 -45 11 -96
v-658z" />
    <glyph glyph-name="n" unicode="n" horiz-adv-x="1308" 
d="M1211 0h-239v551q0 47 -16 83.5t-43 64t-64.5 41.5t-80.5 14h-418v-754h-239v874q0 25 9 46.5t25.5 37.5t39 25.5t46.5 9.5h538q45 0 95 -10.5t99 -33t94 -56.5t79 -84t54.5 -113.5t20.5 -144.5v-551z" />
    <glyph glyph-name="o" unicode="o" horiz-adv-x="1283" 
d="M1190 335q0 -60 -15.5 -110.5t-41.5 -86.5t-59.5 -62.5t-71 -43.5t-75 -24.5t-71.5 -7.5h-431q-50 0 -108.5 18t-108.5 57.5t-84 103t-34 156.5v323q0 92 34 156t84 103.5t108.5 57.5t108.5 18h431q92 0 155.5 -33t103 -84t57.5 -109t18 -109v-323zM951 657
q0 48 -24 72.5t-71 24.5h-429q-49 0 -73.5 -24.5t-24.5 -71.5v-323q0 -48 24.5 -72t73.5 -24h429q48 0 71.5 24t23.5 72v322z" />
    <glyph glyph-name="p" unicode="p" horiz-adv-x="1298" 
d="M1206 335q0 -60 -16.5 -110.5t-41.5 -86.5t-59 -62.5t-71.5 -43.5t-75.5 -24.5t-72 -7.5h-430v239h430q49 0 73 24t24 72v322q0 48 -25 72.5t-72 24.5h-428q-49 0 -73.5 -24.5t-24.5 -71.5v-968h-238v968q0 62 16 111t41 86t60 63t71.5 43t75 24.5t70.5 7.5h430
q63 0 111.5 -16t85.5 -41.5t63.5 -59t43 -71t24.5 -75.5t8 -72v-323z" />
    <glyph glyph-name="q" unicode="q" horiz-adv-x="1297" 
d="M1190 -310h-239v968q0 47 -23.5 71.5t-71.5 24.5h-431q-45 0 -70.5 -27t-25.5 -69v-323q0 -48 24.5 -72t73.5 -24h429v-239h-431q-50 0 -108.5 18t-108.5 57.5t-84 103t-34 156.5v323q0 34 8 72t25 75.5t43 71t62.5 59t85.5 41.5t111 16h431q34 0 71.5 -7.5t75 -24.5
t71 -43t59.5 -63t41.5 -86t15.5 -111v-968z" />
    <glyph glyph-name="r" unicode="r" horiz-adv-x="1025" 
d="M980 754h-538q-49 0 -73.5 -24.5t-24.5 -71.5v-658h-238v658q0 62 16 111t41 86t60 63t71.5 43t75 24.5t70.5 7.5h540v-239z" />
    <glyph glyph-name="s" unicode="s" horiz-adv-x="1127" 
d="M1070 335q0 -60 -15 -110.5t-41.5 -86.5t-60.5 -62.5t-70 -43.5t-75 -24.5t-73 -7.5h-647v239h646q48 0 72.5 24t24.5 72q-4 96 -96 96h-370q-79 0 -133.5 27t-89.5 68t-50 89.5t-15 89.5q0 79 28 134.5t71.5 89.5t94 49t94.5 15h586v-239h-585q-16 0 -27.5 -4.5t-16 -11
t-5.5 -14.5t-1 -15q0 -15 4.5 -23.5t12.5 -12.5t16 -4h16h370q92 0 156 -33t103.5 -82.5t57.5 -108.5t18 -110z" />
    <glyph glyph-name="t" unicode="t" horiz-adv-x="1059" 
d="M1014 754h-418v-754h-241v754h-310v239h310v324h241v-324h418v-239z" />
    <glyph glyph-name="u" unicode="u" horiz-adv-x="1308" 
d="M1196 120q0 -26 -9.5 -47.5t-25.5 -38t-37.5 -25.5t-45.5 -9h-540q-45 0 -95 10.5t-98.5 33t-94 56t-79 83.5t-55 114t-21.5 145v551h240v-551q0 -47 15.5 -84.5t43 -64t65.5 -40.5t81 -14h417v754h239v-873z" />
    <glyph glyph-name="v" unicode="v" horiz-adv-x="1269" 
d="M1296 993q-42 -126 -95.5 -248t-124 -233.5t-157 -205.5t-191.5 -161.5t-228.5 -107t-268.5 -39.5q-24 0 -46.5 9.5t-39 25.5t-25.5 37.5t-9 46.5v876h239v-747q86 0 167 37.5t152.5 99.5t132.5 141t109 162t81 163t50 144h254z" />
    <glyph glyph-name="w" unicode="w" horiz-adv-x="1717" 
d="M1745 993q-56 -128 -122 -251t-138.5 -234t-147.5 -204.5t-149.5 -160t-145 -105t-132.5 -38.5q-24 0 -47 9t-38.5 25.5t-25 38t-9.5 47.5v446l-474 -530q-19 -19 -41 -27.5t-44 -8.5q-24 0 -46 9t-39 25.5t-26 38t-9 47.5v873h239v-566l475 532q27 24 62 31.5t68 -7.5
q34 -12 53.5 -42.5t19.5 -66.5v-567q77 75 140 157.5t117 170t101 178t92 180.5h267z" />
    <glyph glyph-name="x" unicode="x" horiz-adv-x="1306" 
d="M1245 993l-429 -469l483 -524h-328l-318 346l-318 -346h-329l481 526l-426 467h326l264 -288l264 288h330z" />
    <glyph glyph-name="y" unicode="y" horiz-adv-x="1323" 
d="M1206 -95q0 -61 -16.5 -111t-41.5 -86.5t-59 -63t-71.5 -43.5t-75.5 -24.5t-72 -7.5h-430v239h430q49 0 73 24.5t24 72.5v1088h239v-1088zM870 0h-430q-51 0 -109 18t-109 57.5t-83.5 103t-32.5 156.5v658h238v-658q0 -48 24.5 -72t73.5 -24h428v-239z" />
    <glyph glyph-name="z" unicode="z" horiz-adv-x="1130" 
d="M1051 919q15 -33 8.5 -68t-31.5 -61l-552 -551h573v-239h-861q-36 0 -66 20.5t-45 52.5q-13 34 -6.5 70t33.5 62l549 549h-574v239h863q36 0 66 -20t43 -54z" />
    <glyph glyph-name="braceleft" unicode="{" horiz-adv-x="797" 
d="M732 1290h-119q-23 0 -47 -4.5t-45 -16t-33 -29.5t-12 -42v-2v-322q0 -72 -21 -125t-53 -92q40 -49 56 -106.5t16 -107.5v-325q0 -32 16 -50.5t39.5 -28t46 -12t36.5 -2.5h118v-242h-120q-38 0 -80.5 8t-85 25t-80 43t-66.5 64t-46 86.5t-17 110.5v322q0 49 -25 72.5
t-70 23.5q-27 0 -48.5 9t-37.5 25.5t-26 39t-10 46.5t10 46t26 38t37.5 26.5t46.5 10.5q48 0 73.5 24t25.5 71v324q0 79 32 141t85.5 104.5t120.5 64t138 21.5h119v-239z" />
    <glyph glyph-name="bar" unicode="|" horiz-adv-x="489" 
d="M363 -217h-239v1749h239v-1749z" />
    <glyph glyph-name="braceright" unicode="}" horiz-adv-x="797" 
d="M777 658q0 -24 -9.5 -46.5t-25.5 -39t-38 -25.5t-46 -9q-46 0 -72 -23.5t-26 -72.5l2 -322q0 -62 -17 -110.5t-47 -86.5t-67.5 -64t-79.5 -43t-84.5 -25t-80.5 -8h-118l-2 242h120q11 0 34.5 2.5t46 12t38.5 28t16 50.5v325q0 50 17 107.5t55 106.5q-32 39 -52.5 92
t-20.5 125v322v2q-6 26 -18.5 43t-30.5 28.5t-40.5 16t-45.5 4.5h-121v239h121q75 0 142.5 -23.5t119.5 -66.5t81.5 -104.5t29.5 -136.5q0 -6 1 -87t1 -237q0 -47 25 -71t73 -24q24 0 46 -10.5t38 -26.5t25.5 -38t9.5 -46z" />
    <glyph glyph-name="asciitilde" unicode="~" horiz-adv-x="1190" 
d="M1091 556q-19 -18 -46.5 -35t-59.5 -29.5t-66.5 -19.5t-71.5 -7q-57 0 -122 16t-132 34t-133.5 33.5t-124.5 15.5q-32 0 -66 -9.5t-66 -24.5t-59 -33t-44 -36v240q18 19 47.5 37t62 30t66.5 19.5t66 7.5q56 0 122.5 -16t133 -34.5t133 -34.5t125.5 -16q30 0 64.5 9.5
t65.5 24.5t58.5 33.5t46.5 37.5v-243z" />
    <glyph glyph-name="exclamdown" unicode="&#xa1;" horiz-adv-x="468" 
d="M151 619h163l56 -994h-276zM113 822q0 25 9 46.5t25 37.5t38 25t46 9q25 0 46.5 -9t37.5 -25t25.5 -37.5t9.5 -46.5t-9.5 -46.5t-25.5 -37.5t-37.5 -25.5t-46.5 -9.5q-24 0 -46 9.5t-38 25.5t-25 37.5t-9 46.5z" />
    <glyph glyph-name="cent" unicode="&#xa2;" horiz-adv-x="959" 
d="M854 228h-226v-228h-214v228q-49 0 -105.5 17t-105.5 55.5t-81 100.5t-32 150v215q0 48 17 104.5t55.5 105.5t100.5 81t151 32v228h214v-228h226v-215h-440q-51 0 -79 -30t-28 -78v-215q0 -49 29 -79t78 -30h440v-214z" />
    <glyph glyph-name="sterling" unicode="&#xa3;" horiz-adv-x="1652" 
d="M926 547h-311v-308h630q49 0 72.5 24t23.5 69v122h238v-122q0 -91 -32.5 -154t-82.5 -102.5t-108.5 -57.5t-108.5 -18h-750q-25 0 -46.5 9t-37.5 25.5t-25.5 38t-9.5 45.5v429h-310v214h310v222q0 51 18 109t57.5 108.5t102.5 83.5t155 33h439v-239h-439
q-45 0 -70.5 -26.5t-25.5 -68.5v-222h311v-214z" />
    <glyph glyph-name="currency" unicode="&#xa4;" horiz-adv-x="823" 
d="M309 662q0 -43 28 -71.5t71 -28.5q21 0 39.5 8t33 20.5t22 31.5t7.5 40q0 20 -7.5 39t-22 32t-33 21.5t-39.5 8.5t-39.5 -8.5t-32 -21.5t-20.5 -32t-7 -39zM758 865l-103 -102q9 -24 14.5 -49t5.5 -52q0 -30 -6.5 -56.5t-17.5 -52.5l107 -106l-139 -131l-104 104
q-49 -23 -107 -23q-28 0 -53.5 4.5t-49.5 14.5l-100 -100l-137 138l99 97q-13 27 -18.5 54t-5.5 57q0 28 5.5 55.5t16.5 53.5l-101 103l141 127l94 -97q26 11 52.5 18t56.5 7t58.5 -7t54.5 -19l98 98z" />
    <glyph glyph-name="yen" unicode="&#xa5;" horiz-adv-x="1514" 
d="M1184 118h-308v-118h-239v118h-310v214h310v97h-95q-45 0 -94.5 10t-99 32t-94 56.5t-79 83.5t-54 113t-19.5 145v448h239v-448q0 -47 16 -85t42 -63t63.5 -39t81.5 -14h427q45 1 81.5 16.5t63.5 40.5t42 62t15 82v448h237v-448q0 -81 -20.5 -145t-54.5 -113t-79 -83.5
t-93 -56.5t-98.5 -32t-93.5 -10h-95v-97h308v-214z" />
    <glyph glyph-name="brokenbar" unicode="&#xa6;" horiz-adv-x="494" 
d="M365 754h-239v778h239v-778zM365 -217h-239v779h239v-779z" />
    <glyph glyph-name="section" unicode="&#xa7;" horiz-adv-x="1514" 
d="M1423 171q0 -71 -18 -127.5t-46.5 -100t-68 -73.5t-82 -48.5t-85.5 -28.5t-83 -10h-922v242h922q33 0 60 11t46.5 30.5t28.5 46.5t9 58q0 32 -10 60.5t-29.5 49t-46 31.5t-58.5 11h-549q-37 0 -81.5 9.5t-87 28.5t-82 50t-68.5 74t-47 99.5t-18 128.5q0 71 17 124t39 90
q-23 44 -39.5 97.5t-16.5 118.5q0 72 18 128.5t47 98.5t68.5 73.5t82 51t87 28.5t81.5 9h812v-240h-812q-34 0 -60.5 -11.5t-45.5 -31.5t-29 -47t-10 -59q0 -34 10 -61t30 -46.5t46.5 -31t58.5 -11.5h551q40 -2 82 -10.5t85 -28t82 -51t68.5 -74.5t46.5 -100.5t17 -127.5
t-17 -123t-41 -92q27 -44 42.5 -96.5t15.5 -118.5zM491 754q-30 0 -65 6t-71 19q-5 -13 -7 -29t-2 -37q0 -34 10 -61.5t30 -47t46.5 -31t58.5 -11.5h551q31 -2 64 -7.5t69 -18.5q4 13 6.5 29t2.5 36q0 33 -10 61t-29.5 49t-46 32t-58.5 11h-549z" />
    <glyph glyph-name="dieresis" unicode="&#xa8;" horiz-adv-x="1121" 
d="M472 1229q0 -29 -11 -54.5t-30 -44.5t-44.5 -30t-55.5 -11q-28 0 -53.5 11t-44.5 30t-30 44.5t-11 54.5t11 54t30 44.5t44.5 30.5t53.5 11q30 0 55.5 -11t44.5 -30.5t30 -44.5t11 -54zM956 1229q0 -29 -11 -54.5t-30 -44.5t-44.5 -30t-54.5 -11t-55 11t-44.5 30
t-29.5 44.5t-11 54.5t11 54t29.5 44.5t44.5 30.5t55 11t54.5 -11t44.5 -30.5t30 -44.5t11 -54z" />
    <glyph glyph-name="copyright" unicode="&#xa9;" horiz-adv-x="1319" 
d="M1204 572q0 -84 -21 -146.5t-55.5 -107.5t-78 -77.5t-89.5 -51t-91 -26t-81 -7.5h-260q-35 0 -79.5 7.5t-91.5 26t-90 51t-78 77.5t-55.5 107.5t-20.5 146.5v173q0 80 20.5 143t55.5 110.5t78 78t90 49.5t91.5 27t79.5 8h260q36 0 81 -8t91 -27t90 -49.5t78 -78
t55 -110.5t21 -143v-173zM1061 572v173q0 169 -134 237q-26 12 -50.5 19t-45.5 11q-22 4 -43 5h-260q-6 0 -29 -1.5t-53 -10.5t-64 -25.5t-61.5 -46.5t-46 -76t-18.5 -112v-173q0 -66 18.5 -112t46 -76t61.5 -47t64.5 -25.5t53 -10.5t31.5 -2h257q7 0 29.5 2t53 10.5
t64.5 25.5t61 48t46 77t19 110zM884 376h-344q-23 0 -50 8.5t-51.5 27.5t-40.5 49t-16 73v257q0 23 8 51t27 51.5t49.5 39.5t73.5 16h344v-142h-344h-4h-3q-2 -2 -5 -2q-2 -3 -3 -7.5t-1 -6.5v-257q0 -6 2 -8v-2q2 -3 7 -4t7 -1h344v-143z" />
    <glyph glyph-name="ordfeminine" unicode="&#xaa;" horiz-adv-x="1132" 
d="M1023 759q0 -27 -6.5 -59t-20.5 -63.5t-36.5 -59.5t-54 -49.5t-72 -35t-92.5 -13.5h-368q-44 0 -93 15.5t-90 48.5t-69.5 86t-28.5 130q0 42 15 92t48 91t87 69.5t131 28.5h368v-192h-368q-27 0 -45 -8.5t-27.5 -21.5t-13 -29t-3.5 -31q0 -42 24 -65.5t65 -23.5h368
q27 0 43.5 9t28 21t15 29t3.5 31v277q0 44 -26 66.5t-64 22.5h-463v192h463q41 0 91 -15.5t92.5 -48.5t70.5 -86.5t28 -130.5v-277z" />
    <glyph glyph-name="guillemotleft" unicode="&#xab;" horiz-adv-x="1309" 
d="M737 874l-427 -383l425 -371h-308l-332 290q-37 32 -37 81q0 22 9.5 43.5t26.5 37.5l338 302h305zM1226 874l-427 -383l425 -371h-309l-330 290q-38 32 -38 81q0 22 9.5 43.5t26.5 37.5l339 302h304z" />
    <glyph glyph-name="logicalnot" unicode="&#xac;" horiz-adv-x="1087" 
d="M957 228h-214v323h-648v215h862v-538z" />
    <glyph glyph-name="registered" unicode="&#xae;" horiz-adv-x="1319" 
d="M1204 572q0 -84 -21 -146.5t-55.5 -107.5t-78 -77.5t-89.5 -51t-91 -26t-81 -7.5h-260q-35 0 -79.5 7.5t-91.5 26t-90 51t-78 77.5t-55.5 107.5t-20.5 146.5v173q0 80 20.5 143t55.5 110.5t78 78t90 49.5t91.5 27t79.5 8h260q36 0 81 -8t91 -27t90 -49.5t78 -78
t55 -110.5t21 -143v-173zM949 748q0 -43 -11.5 -77t-32.5 -57.5t-47.5 -37.5t-52.5 -21l193 -166q27 31 45 75t18 108v173q0 169 -134 237q-26 12 -50.5 19t-45.5 11q-22 4 -43 5h-260q-6 0 -29 -1.5t-53 -10.5t-64 -25.5t-61.5 -46.5t-46 -76t-18.5 -112v-173
q0 -66 18.5 -112t46 -76t61.5 -47t64.5 -25.5t53 -10.5t31.5 -2h257q7 0 28.5 2t52.5 9l-273 237h-24v145h178q57 0 57 56v59h-288v-403h-143v474q0 28 22 49.5t49 21.5h364q34 0 60 -11.5t44 -31.5t26 -45.5t8 -49.5v-63z" />
    <glyph glyph-name="macron" unicode="&#xaf;" horiz-adv-x="1048" 
d="M214 1102v217h617v-217h-617z" />
    <glyph glyph-name="degree" unicode="&#xb0;" horiz-adv-x="670" 
d="M68 994q0 55 20.5 104t57.5 84.5t84.5 57.5t101.5 22q55 0 104 -22t85.5 -57.5t57.5 -84.5t21 -104q0 -54 -21 -102.5t-57.5 -84.5t-85.5 -56.5t-104 -20.5q-54 0 -101.5 20.5t-84.5 56.5t-57.5 84.5t-20.5 102.5zM233 994q0 -43 28 -71t71 -28q22 0 40.5 7.5t33 21.5
t21.5 32t7 38q0 22 -7 40.5t-21.5 33t-33 21.5t-40.5 7q-43 0 -71 -29t-28 -73z" />
    <glyph glyph-name="plusminus" unicode="&#xb1;" horiz-adv-x="1093" 
d="M976 551h-323v-210h-215v210h-323v215h323v210h215v-210h323v-215zM976 0h-861v214h861v-214z" />
    <glyph glyph-name="uni00B2" unicode="&#xb2;" horiz-adv-x="761" 
d="M658 570h-561v214q0 32 11.5 62t33 55t54 39.5t73.5 14.5h222v51h-350v167h346q41 0 73 -15t53.5 -39.5t33 -54.5t11.5 -61v-44q0 -42 -15 -73.5t-39.5 -53t-54.5 -33t-62 -11.5h-222v-51h393v-167z" />
    <glyph glyph-name="uni00B3" unicode="&#xb3;" horiz-adv-x="726" 
d="M574 788h-461v167h461v-167zM630 741q0 -41 -15 -73.5t-39.5 -54t-54.5 -32.5t-62 -11h-346v167h350v269h-350v167h346q41 0 73 -15t54 -39.5t33 -54.5t11 -61v-262z" />
    <glyph glyph-name="acute" unicode="&#xb4;" horiz-adv-x="1048" 
d="M858 1273l-480 -172l-64 138l443 257z" />
    <glyph glyph-name="mu" unicode="&#xb5;" horiz-adv-x="1338" 
d="M1231 120q0 -26 -9 -47.5t-25 -38t-37.5 -25.5t-46.5 -9h-539q-48 0 -100.5 10.5t-103.5 36.5v-478h-239v1424h239v-551q0 -62 19 -99.5t49 -58t66 -31.5t72 -14h417v754h238v-873z" />
    <glyph glyph-name="paragraph" unicode="&#xb6;" horiz-adv-x="1773" 
d="M1194 1078q12 -46 12 -96v-982h-239v982q0 46 -25 71t-73 25h-350q-47 0 -83 -15t-61 -42t-40 -64.5t-19 -82.5v-108q0 -46 15 -82.5t41 -62t64 -40.5t83 -19h351v-239h-351q-43 0 -93 10.5t-100 32t-94 56.5t-79 84t-55.5 113.5t-20.5 146.5v108q0 43 10 94t33 100
t57.5 94t83.5 79t113 55t145 21h351q49 0 106.5 -17t106.5 -55v72h214q51 0 109.5 -18t109 -57.5t84 -104t33.5 -155.5v-982h-239v982q0 46 -25 71t-73 25h-102z" />
    <glyph glyph-name="periodcentered" unicode="&#xb7;" horiz-adv-x="459" 
d="M377 873q0 -30 -11.5 -57t-31.5 -47.5t-47 -32t-57 -11.5q-32 0 -59 11.5t-46.5 32t-31.5 47.5t-12 57q0 31 12 58.5t31.5 47t46.5 31.5t59 12q30 0 57 -12t47 -31.5t31.5 -47t11.5 -58.5z" />
    <glyph glyph-name="periodcentered" unicode="&#x2219;" horiz-adv-x="459" 
d="M377 873q0 -30 -11.5 -57t-31.5 -47.5t-47 -32t-57 -11.5q-32 0 -59 11.5t-46.5 32t-31.5 47.5t-12 57q0 31 12 58.5t31.5 47t46.5 31.5t59 12q30 0 57 -12t47 -31.5t31.5 -47t11.5 -58.5z" />
    <glyph glyph-name="cedilla" unicode="&#xb8;" horiz-adv-x="948" 
d="M504 -64q27 0 60.5 -6.5t63.5 -24.5t50 -50t20 -85q0 -52 -26.5 -87.5t-68 -57.5t-93 -31.5t-104.5 -9.5q-47 0 -78 2t-53.5 6t-39 7.5t-34.5 5.5v162q38 -17 86 -29.5t99 -12.5q52 0 87 11t35 36q0 16 -11.5 24t-27 13.5t-34.5 7.5t-35 2q-20 0 -44 -2.5t-42 -8.5
l79 209h143z" />
    <glyph glyph-name="uni00B9" unicode="&#xb9;" horiz-adv-x="449" 
d="M332 570h-167v436h-86v167h253v-603z" />
    <glyph glyph-name="ordmasculine" unicode="&#xba;" horiz-adv-x="1147" 
d="M1038 759q0 -77 -28 -130t-70.5 -86t-91.5 -48.5t-92 -15.5h-369q-43 0 -92 15.5t-90.5 48.5t-69.5 86t-28 130v277q0 77 28 130.5t69.5 86.5t90.5 48.5t92 15.5h369q77 0 130.5 -28.5t87.5 -71t49 -91t15 -90.5v-277zM847 1036q0 15 -4.5 30.5t-14.5 28t-28 21.5t-44 9
h-369q-14 0 -29.5 -4t-28.5 -14.5t-21.5 -27.5t-8.5 -43v-277q0 -41 24.5 -65.5t63.5 -24.5h369q17 0 33 4t28 14.5t21 28.5t9 43v277z" />
    <glyph glyph-name="guillemotright" unicode="&#xbb;" horiz-adv-x="1309" 
d="M874 874l339 -302q16 -16 26 -37.5t10 -43.5q0 -49 -38 -81l-331 -290h-308l424 371l-426 383h304zM386 874l338 -302q17 -16 26 -37.5t9 -43.5q0 -49 -37 -81l-331 -290h-308l425 371l-427 383h305z" />
    <glyph glyph-name="onequarter" unicode="&#xbc;" horiz-adv-x="1423" 
d="M1025 1196l-677 -1185h-220l677 1185h220zM341 570h-168v436h-87v167h255v-603zM1337 34h-560v214q0 30 10 61.5t33 55.5t54.5 39.5t73.5 15.5h222v50h-350v167h346q41 0 73 -14.5t54 -39.5t33 -54.5t11 -62.5v-43q0 -41 -16 -73t-39.5 -53.5t-54.5 -33t-61 -11.5h-222
v-51h393v-167z" />
    <glyph glyph-name="onehalf" unicode="&#xbd;" horiz-adv-x="1484" 
d="M1025 1196l-677 -1185h-220l677 1185h220zM341 570h-168v436h-87v167h255v-603zM1384 34h-167v603h167v-603zM1384 252h-476q-18 0 -33.5 6.5t-27.5 17.5t-17.5 26.5t-5.5 32.5v302h167v-217h393v-168z" />
    <glyph glyph-name="threequarters" unicode="&#xbe;" horiz-adv-x="1726" 
d="M1267 1196l-677 -1185h-220l678 1185h219zM1627 34h-168v603h168v-603zM1627 252h-477q-16 0 -32 6.5t-27 17.5t-18 26.5t-7 32.5v302h167v-217h394v-168zM564 788h-460v167h460v-167zM621 741q0 -41 -15.5 -73.5t-39.5 -54t-54.5 -32.5t-62.5 -11h-345v167h350v269h-350
v167h345q42 0 74 -15t53.5 -39.5t33 -54.5t11.5 -61v-262z" />
    <glyph glyph-name="questiondown" unicode="&#xbf;" horiz-adv-x="1243" 
d="M73 68q0 50 18 108.5t57.5 109.5t103.5 84.5t156 33.5h204v215h238v-335q0 -24 -9.5 -45.5t-25.5 -38.5t-37.5 -27t-45.5 -10h-324q-47 0 -71.5 -23t-24.5 -72v-107q0 -96 96 -96h765v-240h-765q-33 0 -71 8t-75.5 25t-71.5 43t-59 64t-41.5 85.5t-16.5 110.5v107z
M613 822q0 25 9.5 46.5t25.5 37.5t37.5 25t46.5 9q24 0 45.5 -9t37.5 -25t25.5 -37.5t9.5 -46.5t-9.5 -46.5t-25.5 -37.5t-37.5 -25.5t-45.5 -9.5q-25 0 -46.5 9.5t-37.5 25.5t-25.5 37.5t-9.5 46.5z" />
    <glyph glyph-name="Agrave" unicode="&#xc0;" horiz-adv-x="1569" 
d="M1429 0h-239v323h-838v-323h-239v658q0 144 49.5 266t137 208t208 135.5t263.5 49.5h537q25 0 47.5 -10t38.5 -26t25.5 -38.5t9.5 -46.5v-1196zM352 562h838v516h-419q-12 0 -46.5 -3t-81.5 -16t-97.5 -39.5t-94 -73.5t-71.5 -117.5t-28 -170.5v-96zM438 1835l442 -258
l-64 -136l-479 170z" />
    <glyph glyph-name="Aacute" unicode="&#xc1;" horiz-adv-x="1569" 
d="M1429 0h-239v323h-838v-323h-239v658q0 144 49.5 266t137 208t208 135.5t263.5 49.5h537q25 0 47.5 -10t38.5 -26t25.5 -38.5t9.5 -46.5v-1196zM352 562h838v516h-419q-12 0 -46.5 -3t-81.5 -16t-97.5 -39.5t-94 -73.5t-71.5 -117.5t-28 -170.5v-96zM1296 1611l-480 -170
l-64 136l442 258z" />
    <glyph glyph-name="Acircumflex" unicode="&#xc2;" horiz-adv-x="1569" 
d="M1429 0h-239v323h-838v-323h-239v658q0 144 49.5 266t137 208t208 135.5t263.5 49.5h537q25 0 47.5 -10t38.5 -26t25.5 -38.5t9.5 -46.5v-1196zM352 562h838v516h-419q-12 0 -46.5 -3t-81.5 -16t-97.5 -39.5t-94 -73.5t-71.5 -117.5t-28 -170.5v-96zM1091 1441l-320 165
l-319 -165l-111 154l430 244l431 -244z" />
    <glyph glyph-name="Atilde" unicode="&#xc3;" horiz-adv-x="1569" 
d="M1429 0h-239v323h-838v-323h-239v658q0 144 49.5 266t137 208t208 135.5t263.5 49.5h537q25 0 47.5 -10t38.5 -26t25.5 -38.5t9.5 -46.5v-1196zM352 562h838v516h-419q-12 0 -46.5 -3t-81.5 -16t-97.5 -39.5t-94 -73.5t-71.5 -117.5t-28 -170.5v-96zM1132 1764
q0 -88 -19 -148.5t-50 -98t-72.5 -53.5t-87.5 -16q-49 0 -84 18t-61 38.5t-50 37.5t-53 17t-45 -14t-23.5 -33t-10 -37t-4.5 -27h-162q0 79 18.5 138t50 98.5t73.5 59.5t89 20q43 0 74 -18t59 -38.5t55 -37.5t59 -17q27 0 43.5 14t25 32t11.5 37t3 28h161z" />
    <glyph glyph-name="Adieresis" unicode="&#xc4;" horiz-adv-x="1569" 
d="M1429 0h-239v323h-838v-323h-239v658q0 144 49.5 266t137 208t208 135.5t263.5 49.5h537q25 0 47.5 -10t38.5 -26t25.5 -38.5t9.5 -46.5v-1196zM352 562h838v516h-419q-12 0 -46.5 -3t-81.5 -16t-97.5 -39.5t-94 -73.5t-71.5 -117.5t-28 -170.5v-96zM677 1583
q0 -24 -9.5 -45.5t-26.5 -37.5t-37.5 -25.5t-45.5 -9.5q-24 0 -45.5 9.5t-37.5 25.5t-25.5 37.5t-9.5 45.5q0 25 9.5 46.5t25.5 37.5t37.5 25t45.5 9q25 0 45.5 -9t37.5 -25t26.5 -37.5t9.5 -46.5zM1102 1583q0 -24 -9.5 -45.5t-25.5 -37.5t-37.5 -25.5t-46.5 -9.5
q-24 0 -46 9.5t-37.5 25.5t-25 37.5t-9.5 45.5q0 25 9.5 46.5t25 37.5t37.5 25t46 9q25 0 46.5 -9t37.5 -25t25.5 -37.5t9.5 -46.5z" />
    <glyph glyph-name="Aring" unicode="&#xc5;" horiz-adv-x="1569" 
d="M1429 0h-239v323h-838v-323h-239v658q0 144 49.5 266t137 208t208 135.5t263.5 49.5h537q25 0 47.5 -10t38.5 -26t25.5 -38.5t9.5 -46.5v-1196zM352 562h838v516h-419q-12 0 -46.5 -3t-81.5 -16t-97.5 -39.5t-94 -73.5t-71.5 -117.5t-28 -170.5v-96zM504 1619
q0 45 20 85.5t54.5 69.5t83.5 47t109 18q65 0 115.5 -18t84 -47t50.5 -69.5t17 -85.5t-18.5 -84.5t-52.5 -69.5t-84 -48t-112 -18q-64 0 -112.5 18t-83.5 48t-53 69.5t-18 84.5zM680 1619q0 -38 24 -63t67 -25q45 0 66.5 25t21.5 63q0 37 -21.5 63t-66.5 26q-43 0 -67 -26
t-24 -63z" />
    <glyph glyph-name="AE" unicode="&#xc6;" horiz-adv-x="2478" 
d="M2386 0h-861q-34 0 -70.5 7.5t-73.5 23.5t-70.5 41t-60 61t-42.5 83.5t-18 106.5h-838v-323h-239v658q0 144 49.5 266t137 208t208 135.5t263.5 49.5h537h11h1067v-239h-957v-743q0 -48 25.5 -72t72.5 -24h859v-239zM352 562h838v516h-419q-12 0 -46.5 -3t-81.5 -16
t-97.5 -39.5t-94 -73.5t-71.5 -117.5t-28 -170.5v-96zM2279 538h-754v241h754v-241z" />
    <glyph glyph-name="Ccedilla" unicode="&#xc7;" horiz-adv-x="1405" 
d="M1317 0h-472l-25 -64q27 0 60.5 -6.5t63.5 -24.5t50 -50t20 -85q0 -52 -26.5 -87.5t-68 -57.5t-93 -31.5t-104.5 -9.5q-47 0 -78 2t-52.5 6t-38.5 7.5t-36 5.5v162q38 -17 86 -29.5t98 -12.5q53 0 88 11t35 36q0 16 -11.5 24t-27.5 13.5t-34.5 7.5t-34.5 2
q-20 0 -43.5 -2.5t-42.5 -8.5l71 192h-246q-32 0 -70.5 7.5t-75 24.5t-71.5 43.5t-60.5 62.5t-41.5 86.5t-16 110.5v647q0 34 7.5 71.5t24.5 75t43.5 71t64 60t86.5 42t109 15.5h862v-239h-862q-47 0 -71.5 -25t-24.5 -73v-645q0 -46 25.5 -71t70.5 -25h862v-239z" />
    <glyph glyph-name="Egrave" unicode="&#xc8;" horiz-adv-x="1420" 
d="M1220 538h-754v241h754v-241zM1328 0h-862q-50 0 -108.5 18t-108.5 57.5t-84 103t-34 156.5v861q0 24 10 46.5t26 38.5t37.5 26t47.5 10h1076v-239h-958v-743q0 -48 25 -72t73 -24h860v-239zM667 1835l441 -258l-64 -136l-479 170z" />
    <glyph glyph-name="Eacute" unicode="&#xc9;" horiz-adv-x="1420" 
d="M1220 538h-754v241h754v-241zM1328 0h-862q-50 0 -108.5 18t-108.5 57.5t-84 103t-34 156.5v861q0 24 10 46.5t26 38.5t37.5 26t47.5 10h1076v-239h-958v-743q0 -48 25 -72t73 -24h860v-239zM1052 1611l-479 -170l-64 136l441 258z" />
    <glyph glyph-name="Ecircumflex" unicode="&#xca;" horiz-adv-x="1420" 
d="M1220 538h-754v241h754v-241zM1328 0h-862q-50 0 -108.5 18t-108.5 57.5t-84 103t-34 156.5v861q0 24 10 46.5t26 38.5t37.5 26t47.5 10h1076v-239h-958v-743q0 -48 25 -72t73 -24h860v-239zM1049 1441l-319 165l-320 -165l-111 154l431 244l431 -244z" />
    <glyph glyph-name="Edieresis" unicode="&#xcb;" horiz-adv-x="1420" 
d="M1220 538h-754v241h754v-241zM1328 0h-862q-50 0 -108.5 18t-108.5 57.5t-84 103t-34 156.5v861q0 24 10 46.5t26 38.5t37.5 26t47.5 10h1076v-239h-958v-743q0 -48 25 -72t73 -24h860v-239zM692 1583q0 -24 -9.5 -45.5t-25.5 -37.5t-37.5 -25.5t-45.5 -9.5
q-25 0 -46.5 9.5t-37.5 25.5t-25.5 37.5t-9.5 45.5q0 25 9.5 46.5t25.5 37.5t37.5 25t46.5 9q24 0 45.5 -9t37.5 -25t25.5 -37.5t9.5 -46.5zM1117 1583q0 -24 -9.5 -45.5t-25.5 -37.5t-37.5 -25.5t-46.5 -9.5q-24 0 -45.5 9.5t-37.5 25.5t-25.5 37.5t-9.5 45.5
q0 25 9.5 46.5t25.5 37.5t37.5 25t45.5 9q25 0 46.5 -9t37.5 -25t25.5 -37.5t9.5 -46.5z" />
    <glyph glyph-name="Igrave" unicode="&#xcc;" horiz-adv-x="519" 
d="M378 0h-238v1317h238v-1317zM29 1835l442 -258l-62 -136l-480 170z" />
    <glyph glyph-name="Iacute" unicode="&#xcd;" horiz-adv-x="518" 
d="M380 0h-239v1317h239v-1317zM501 1611l-479 -170l-64 136l442 258z" />
    <glyph glyph-name="Icircumflex" unicode="&#xce;" horiz-adv-x="519" 
d="M382 0h-239v1317h239v-1317zM583 1441l-319 165l-320 -165l-111 154l431 244l430 -244z" />
    <glyph glyph-name="Idieresis" unicode="&#xcf;" horiz-adv-x="519" 
d="M380 0h-239v1317h239v-1317zM167 1583q0 -24 -9 -45.5t-25 -37.5t-38 -25.5t-46 -9.5t-45.5 9.5t-37.5 25.5t-26 37.5t-10 45.5q0 25 10 46.5t26 37.5t37.5 25t45.5 9t46 -9t38 -25t25 -37.5t9 -46.5zM592 1583q0 -24 -9 -45.5t-25 -37.5t-37.5 -25.5t-46.5 -9.5
t-46.5 9.5t-37 25.5t-25.5 37.5t-10 45.5q0 25 10 46.5t25.5 37.5t37 25t46.5 9t46.5 -9t37.5 -25t25 -37.5t9 -46.5z" />
    <glyph glyph-name="Eth" unicode="&#xd0;" horiz-adv-x="1761" 
d="M1667 551q0 -120 -44 -220.5t-119 -174t-175 -115t-212 -41.5h-647q-25 0 -46.5 9t-38.5 25.5t-26 38t-9 47.5v431h-311v215h311v430q0 24 9 46.5t26 38.5t38.5 26t46.5 10h647q107 0 206.5 -40.5t176 -113t122 -174t45.5 -223.5v-215zM590 551v-312h525q71 0 128.5 23.5
t99 64.5t63 98.5t21.5 125.5v215q0 70 -25.5 127.5t-67.5 99t-98.5 64.5t-118.5 21h-527v-312h311v-215h-311z" />
    <glyph glyph-name="Ntilde" unicode="&#xd1;" horiz-adv-x="1593" 
d="M1453 102q0 -25 -10 -47.5t-26 -38.5t-37.5 -25t-46.5 -9q-23 0 -45.5 8t-38.5 27l-873 910v-927h-238v1215q0 37 20.5 66t51.5 45q34 13 70 6.5t62 -33.5l873 -910v928h238v-1215zM1157 1690q0 -88 -19 -148t-50 -97.5t-72.5 -53.5t-88.5 -16q-49 0 -83.5 17.5t-61 37.5
t-50 38t-53.5 18q-28 0 -44 -14.5t-24 -33t-10.5 -36.5t-4.5 -27h-162q0 77 19 136t50 99.5t73.5 60t89.5 19.5q43 0 74 -17.5t59 -38.5t54.5 -38t58.5 -17q28 0 44 14.5t24.5 32.5t11 36.5t2.5 27.5h163z" />
    <glyph glyph-name="Ograve" unicode="&#xd2;" horiz-adv-x="1617" 
d="M1520 533q0 -121 -41.5 -222t-115 -174t-174 -114t-218.5 -41h-324q-119 0 -219.5 41t-174.5 114t-116 174t-42 222v251q0 119 42 220t116 174.5t174.5 115t219.5 41.5h324q118 0 218.5 -41.5t174 -115t115 -174.5t41.5 -220v-251zM1281 784q0 72 -22.5 129.5t-63.5 97.5
t-99 62.5t-125 22.5h-324q-69 0 -126.5 -22.5t-99 -62.5t-64 -97.5t-22.5 -129.5v-251q0 -70 22.5 -127.5t64 -99t99 -64t126.5 -22.5h322q69 0 126 22.5t99 64t64.5 99t22.5 127.5v251zM631 1835l442 -258l-64 -136l-477 170z" />
    <glyph glyph-name="Oacute" unicode="&#xd3;" horiz-adv-x="1617" 
d="M1520 533q0 -121 -41.5 -222t-115 -174t-174 -114t-218.5 -41h-324q-119 0 -219.5 41t-174.5 114t-116 174t-42 222v251q0 119 42 220t116 174.5t174.5 115t219.5 41.5h324q118 0 218.5 -41.5t174 -115t115 -174.5t41.5 -220v-251zM1281 784q0 72 -22.5 129.5t-63.5 97.5
t-99 62.5t-125 22.5h-324q-69 0 -126.5 -22.5t-99 -62.5t-64 -97.5t-22.5 -129.5v-251q0 -70 22.5 -127.5t64 -99t99 -64t126.5 -22.5h322q69 0 126 22.5t99 64t64.5 99t22.5 127.5v251zM1047 1611l-480 -170l-64 136l442 258z" />
    <glyph glyph-name="Ocircumflex" unicode="&#xd4;" horiz-adv-x="1617" 
d="M1520 533q0 -121 -41.5 -222t-115 -174t-174 -114t-218.5 -41h-324q-119 0 -219.5 41t-174.5 114t-116 174t-42 222v251q0 119 42 220t116 174.5t174.5 115t219.5 41.5h324q118 0 218.5 -41.5t174 -115t115 -174.5t41.5 -220v-251zM1281 784q0 72 -22.5 129.5t-63.5 97.5
t-99 62.5t-125 22.5h-324q-69 0 -126.5 -22.5t-99 -62.5t-64 -97.5t-22.5 -129.5v-251q0 -70 22.5 -127.5t64 -99t99 -64t126.5 -22.5h322q69 0 126 22.5t99 64t64.5 99t22.5 127.5v251zM1127 1441l-320 165l-320 -165l-111 154l431 244l431 -244z" />
    <glyph glyph-name="Otilde" unicode="&#xd5;" horiz-adv-x="1617" 
d="M1520 533q0 -121 -41.5 -222t-115 -174t-174 -114t-218.5 -41h-324q-119 0 -219.5 41t-174.5 114t-116 174t-42 222v251q0 119 42 220t116 174.5t174.5 115t219.5 41.5h324q118 0 218.5 -41.5t174 -115t115 -174.5t41.5 -220v-251zM1281 784q0 72 -22.5 129.5t-63.5 97.5
t-99 62.5t-125 22.5h-324q-69 0 -126.5 -22.5t-99 -62.5t-64 -97.5t-22.5 -129.5v-251q0 -70 22.5 -127.5t64 -99t99 -64t126.5 -22.5h322q69 0 126 22.5t99 64t64.5 99t22.5 127.5v251zM1168 1783q0 -89 -19 -150t-50 -98t-72.5 -53t-88.5 -16q-50 0 -84 17t-60 38
t-50 38.5t-54 17.5q-28 0 -44 -13.5t-24.5 -32.5t-11 -37t-2.5 -28h-163q0 77 19 136.5t50 100t73.5 60.5t89.5 20q43 0 74 -18t59 -38.5t54 -37.5t60 -17q27 0 43 14t23.5 31.5t10.5 35.5l5 30h162z" />
    <glyph glyph-name="Odieresis" unicode="&#xd6;" horiz-adv-x="1617" 
d="M1520 533q0 -121 -41.5 -222t-115 -174t-174 -114t-218.5 -41h-324q-119 0 -219.5 41t-174.5 114t-116 174t-42 222v251q0 119 42 220t116 174.5t174.5 115t219.5 41.5h324q118 0 218.5 -41.5t174 -115t115 -174.5t41.5 -220v-251zM1281 784q0 72 -22.5 129.5t-63.5 97.5
t-99 62.5t-125 22.5h-324q-69 0 -126.5 -22.5t-99 -62.5t-64 -97.5t-22.5 -129.5v-251q0 -70 22.5 -127.5t64 -99t99 -64t126.5 -22.5h322q69 0 126 22.5t99 64t64.5 99t22.5 127.5v251zM713 1583q0 -24 -10.5 -45.5t-26.5 -37.5t-37.5 -25.5t-44.5 -9.5q-27 0 -47.5 9.5
t-37 25.5t-25 37.5t-8.5 45.5q0 25 8.5 46.5t25 37.5t37 25t47.5 9q23 0 44.5 -9t37.5 -25t26.5 -37.5t10.5 -46.5zM1138 1583q0 -24 -10.5 -45.5t-26.5 -37.5t-37.5 -25.5t-44.5 -9.5q-25 0 -46.5 9.5t-37.5 25.5t-25 37.5t-9 45.5q0 25 9 46.5t25 37.5t37.5 25t46.5 9
q23 0 44.5 -9t37.5 -25t26.5 -37.5t10.5 -46.5z" />
    <glyph glyph-name="multiply" unicode="&#xd7;" horiz-adv-x="1089" 
d="M1003 982l-324 -324l324 -323h-271l-188 187l-189 -187h-271l324 323l-324 324h271l189 -189l188 189h271z" />
    <glyph glyph-name="Oslash" unicode="&#xd8;" horiz-adv-x="1619" 
d="M1360 1184q75 -73 118 -175.5t43 -224.5v-251q0 -121 -41 -222t-114.5 -174t-174 -114t-219.5 -41h-323q-55 0 -106.5 9t-100.5 26l-88 -112h-273l179 226q-77 74 -120 176.5t-43 225.5v251q0 120 43 221.5t116 175t174 114t219 40.5h323q55 0 106.5 -9t98.5 -27l88 113
h273zM1283 784q0 64 -19 117.5t-53 92.5l-608 -772q12 -2 22 -2h24h322q69 0 126 22.5t99 64t64.5 99t22.5 127.5v251zM337 533q0 -67 19 -119.5t52 -92.5l608 773q-12 2 -22.5 2h-21.5h-323q-70 0 -127 -22.5t-98.5 -62.5t-64 -97.5t-22.5 -129.5v-251z" />
    <glyph glyph-name="Ugrave" unicode="&#xd9;" horiz-adv-x="1567" 
d="M1427 120q0 -26 -9.5 -47.5t-25.5 -38t-38.5 -25.5t-46.5 -9h-538q-75 0 -153 17t-151.5 51t-137 87t-113 126t-76.5 168t-27 209v659h239v-659q0 -102 28 -171t71.5 -116.5t94 -73.5t98 -39.5t82 -16t45.5 -2.5h419v1078h239v-1197zM520 1788l442 -258l-64 -137
l-479 171z" />
    <glyph glyph-name="Uacute" unicode="&#xda;" horiz-adv-x="1567" 
d="M1427 120q0 -26 -9.5 -47.5t-25.5 -38t-38.5 -25.5t-46.5 -9h-538q-75 0 -153 17t-151.5 51t-137 87t-113 126t-76.5 168t-27 209v659h239v-659q0 -102 28 -171t71.5 -116.5t94 -73.5t98 -39.5t82 -16t45.5 -2.5h419v1078h239v-1197zM1063 1554l-479 -170l-64 137
l441 258z" />
    <glyph glyph-name="Ucircumflex" unicode="&#xdb;" horiz-adv-x="1567" 
d="M1427 120q0 -26 -9.5 -47.5t-25.5 -38t-38.5 -25.5t-46.5 -9h-538q-75 0 -153 17t-151.5 51t-137 87t-113 126t-76.5 168t-27 209v659h239v-659q0 -102 28 -171t71.5 -116.5t94 -73.5t98 -39.5t82 -16t45.5 -2.5h419v1078h239v-1197zM1089 1441l-320 165l-320 -165
l-110 154l430 244l431 -244z" />
    <glyph glyph-name="Udieresis" unicode="&#xdc;" horiz-adv-x="1567" 
d="M1427 120q0 -26 -9.5 -47.5t-25.5 -38t-38.5 -25.5t-46.5 -9h-538q-75 0 -153 17t-151.5 51t-137 87t-113 126t-76.5 168t-27 209v659h239v-659q0 -102 28 -171t71.5 -116.5t94 -73.5t98 -39.5t82 -16t45.5 -2.5h419v1078h239v-1197zM675 1521q0 -24 -9 -46t-26 -38
t-38 -25t-46 -9q-23 0 -45.5 9t-38 25t-25 38t-9.5 46t9.5 46t25 38t38 25.5t45.5 9.5q25 0 46 -9.5t38 -25.5t26 -38t9 -46zM1100 1521q0 -24 -9 -46t-25.5 -38t-38 -25t-45.5 -9q-25 0 -46.5 9t-37.5 25t-25.5 38t-9.5 46t9.5 46t25.5 38t37.5 25.5t46.5 9.5
q24 0 45.5 -9.5t38 -25.5t25.5 -38t9 -46z" />
    <glyph glyph-name="Yacute" unicode="&#xdd;" horiz-adv-x="1468" 
d="M1392 876q0 -83 -21 -146.5t-54.5 -113t-79 -83.5t-94.5 -56.5t-99 -33.5t-95 -11h-95v-432h-241v432h-96q-43 0 -92.5 11t-99.5 33.5t-94.5 56.5t-79 83.5t-55.5 114t-21 145.5v441h239v-441q0 -47 15 -84.5t41.5 -64t64 -40.5t84.5 -14h430q34 6 70 14.5t66 30t48.5 59
t18.5 99.5v441h240v-441zM1057 1508l-480 -172l-64 138l442 257z" />
    <glyph glyph-name="Thorn" unicode="&#xde;" horiz-adv-x="1307" 
d="M1215 335q0 -60 -16 -110.5t-41.5 -86.5t-59.5 -62.5t-71.5 -43.5t-75 -24.5t-71.5 -7.5h-431v239h431q49 0 72.5 24t23.5 72v322q0 48 -24.5 72.5t-71.5 24.5h-428q-97 0 -98 -86v-978h-239v1722h239v-434q24 7 48.5 11t46.5 4h431q62 0 111 -16t85.5 -41.5t63 -59
t43.5 -71t24.5 -75.5t7.5 -72v-323z" />
    <glyph glyph-name="germandbls" unicode="&#xdf;" horiz-adv-x="1473" 
d="M1423 332q0 -91 -32.5 -154t-82.5 -102.5t-108.5 -57.5t-108.5 -18h-644v239h644q47 0 71 24t24 69q-2 97 -95 97h-369q-79 0 -133.5 27t-88.5 68.5t-49 89.5t-15 89q0 79 28.5 134t71.5 88.5t93 48.5t93 15h47q96 0 96 94q-4 96 -96 96h-320q-49 0 -72 -24.5t-23 -71.5
v-1083h-239v1083q0 92 33 155t82.5 102.5t108 57.5t108.5 18h322q60 0 109 -15t87 -41.5t64 -60.5t43 -70.5t24.5 -74t7.5 -71.5q0 -92 -33 -156t-83 -103.5t-109 -56.5t-110 -17h-45q-19 0 -28 -4.5t-14 -11t-6 -15t-1 -14.5q0 -13 4.5 -21.5t11.5 -12t15 -3.5h16h369
q59 0 108.5 -16.5t87 -41.5t63 -59t42 -71.5t24 -75.5t7.5 -72z" />
    <glyph glyph-name="agrave" unicode="&#xe0;" horiz-adv-x="1228" 
d="M1136 329q0 -51 -18 -108.5t-56.5 -106t-101.5 -81.5t-153 -33h-431q-51 0 -108.5 18t-106 56.5t-81.5 101.5t-33 153q0 49 18 107.5t56.5 107t101.5 81.5t153 33h431v-227h-431q-49 0 -75 -30.5t-26 -73.5q0 -47 30 -73t73 -26h429q49 0 75 29t26 74v333q0 47 -29 74.5
t-72 27.5h-525v227h525q49 0 106.5 -18t106 -56.5t82.5 -101.5t34 -153v-335zM388 1516l442 -258l-63 -137l-479 171z" />
    <glyph glyph-name="aacute" unicode="&#xe1;" horiz-adv-x="1228" 
d="M1136 329q0 -51 -18 -108.5t-56.5 -106t-101.5 -81.5t-153 -33h-431q-51 0 -108.5 18t-106 56.5t-81.5 101.5t-33 153q0 49 18 107.5t56.5 107t101.5 81.5t153 33h431v-227h-431q-49 0 -75 -30.5t-26 -73.5q0 -47 30 -73t73 -26h429q49 0 75 29t26 74v333q0 47 -29 74.5
t-72 27.5h-525v227h525q49 0 106.5 -18t106 -56.5t82.5 -101.5t34 -153v-335zM918 1301l-479 -171l-63 137l441 258z" />
    <glyph glyph-name="acircumflex" unicode="&#xe2;" horiz-adv-x="1228" 
d="M1136 329q0 -51 -18 -108.5t-56.5 -106t-101.5 -81.5t-153 -33h-431q-51 0 -108.5 18t-106 56.5t-81.5 101.5t-33 153q0 49 18 107.5t56.5 107t101.5 81.5t153 33h431v-227h-431q-49 0 -75 -30.5t-26 -73.5q0 -47 30 -73t73 -26h429q49 0 75 29t26 74v333q0 47 -29 74.5
t-72 27.5h-525v227h525q49 0 106.5 -18t106 -56.5t82.5 -101.5t34 -153v-335zM910 1121l-320 165l-319 -165l-111 154l430 245l431 -245z" />
    <glyph glyph-name="atilde" unicode="&#xe3;" horiz-adv-x="1228" 
d="M1136 329q0 -51 -18 -108.5t-56.5 -106t-101.5 -81.5t-153 -33h-431q-51 0 -108.5 18t-106 56.5t-81.5 101.5t-33 153q0 49 18 107.5t56.5 107t101.5 81.5t153 33h431v-227h-431q-49 0 -75 -30.5t-26 -73.5q0 -47 30 -73t73 -26h429q49 0 75 29t26 74v333q0 47 -29 74.5
t-72 27.5h-525v227h525q49 0 106.5 -18t106 -56.5t82.5 -101.5t34 -153v-335zM951 1444q0 -88 -18.5 -149.5t-49.5 -97.5t-72.5 -52.5t-88.5 -16.5q-49 0 -84 17t-61 38t-49.5 39t-53.5 18q-29 0 -44.5 -14.5t-23.5 -33.5t-10.5 -37.5t-4.5 -26.5h-161q0 78 18.5 137
t49.5 99.5t73.5 60t89.5 19.5q43 0 74 -18t59.5 -38.5t53.5 -37.5t59 -17q28 0 44.5 14.5t24.5 32t11 35.5t3 29h161z" />
    <glyph glyph-name="adieresis" unicode="&#xe4;" horiz-adv-x="1228" 
d="M1136 329q0 -51 -18 -108.5t-56.5 -106t-101.5 -81.5t-153 -33h-431q-51 0 -108.5 18t-106 56.5t-81.5 101.5t-33 153q0 49 18 107.5t56.5 107t101.5 81.5t153 33h431v-227h-431q-49 0 -75 -30.5t-26 -73.5q0 -47 30 -73t73 -26h429q49 0 75 29t26 74v333q0 47 -29 74.5
t-72 27.5h-525v227h525q49 0 106.5 -18t106 -56.5t82.5 -101.5t34 -153v-335zM497 1263q0 -23 -10 -45t-27 -38t-38.5 -25.5t-43.5 -9.5q-24 0 -46 9.5t-38 25.5t-25 38t-9 45q0 25 9 46.5t25 38t38 25.5t46 9q22 0 43.5 -9t38.5 -25.5t27 -38t10 -46.5zM922 1263
q0 -23 -9.5 -45t-26 -38t-38 -25.5t-46.5 -9.5q-23 0 -45 9.5t-38 25.5t-25.5 38t-9.5 45q0 25 9.5 46.5t25.5 38t38 25.5t45 9q25 0 46.5 -9t38 -25.5t26 -38t9.5 -46.5z" />
    <glyph glyph-name="aring" unicode="&#xe5;" horiz-adv-x="1228" 
d="M1136 329q0 -51 -18 -108.5t-56.5 -106t-101.5 -81.5t-153 -33h-431q-51 0 -108.5 18t-106 56.5t-81.5 101.5t-33 153q0 49 18 107.5t56.5 107t101.5 81.5t153 33h431v-227h-431q-49 0 -75 -30.5t-26 -73.5q0 -47 30 -73t73 -26h429q49 0 75 29t26 74v333q0 47 -29 74.5
t-72 27.5h-525v227h525q49 0 106.5 -18t106 -56.5t82.5 -101.5t34 -153v-335zM323 1299q0 45 20 84.5t54.5 70t84 48.5t108.5 18q67 0 116.5 -18t83.5 -48.5t51 -70t17 -84.5t-19 -84.5t-53 -70.5t-83.5 -47.5t-112.5 -16.5q-64 0 -112.5 16.5t-83.5 47.5t-53 70.5t-18 84.5
zM500 1299q0 -37 23.5 -62.5t66.5 -25.5q45 0 67 25.5t22 62.5q0 36 -22 62t-67 26q-43 0 -66.5 -26t-23.5 -62z" />
    <glyph glyph-name="ae" unicode="&#xe6;" horiz-adv-x="2048" 
d="M1997 664q0 -49 -18 -106.5t-56.5 -107.5t-101.5 -82.5t-153 -32.5h-430v227h430q49 0 75 30.5t26 73.5q0 47 -29.5 73.5t-71.5 26.5h-430q-50 0 -76 -30.5t-26 -71.5v-335v-9q2 -45 31 -68.5t73 -23.5h428v-228h-430q-52 0 -109 18t-106 57q-40 -34 -93.5 -54.5
t-122.5 -20.5h-431q-51 0 -108.5 18t-106 56.5t-81.5 101.5t-33 153q0 49 18 107.5t56.5 107t101.5 81.5t153 33h431v-227h-431q-49 0 -75 -30.5t-26 -73.5q0 -47 30 -73t73 -26h429q49 0 75 29t26 74v333q0 47 -29 74.5t-72 27.5h-525v227h525q49 0 106.5 -18t107.5 -58
q38 34 91.5 55t125.5 21h430q49 0 106.5 -18t106 -56.5t82.5 -101.5t34 -153z" />
    <glyph glyph-name="ccedilla" unicode="&#xe7;" horiz-adv-x="1159" 
d="M1072 0h-365l-25 -64q27 0 61 -6.5t63 -24.5t49.5 -50t20.5 -85q0 -52 -26 -87.5t-67.5 -57.5t-94.5 -31.5t-103 -9.5q-47 0 -78 2t-53.5 6t-39.5 7.5t-34 5.5v162q36 -17 84.5 -29.5t99.5 -12.5q53 0 88 11t35 36q0 16 -11.5 24t-27.5 13.5t-35 7.5t-34 2
q-21 0 -44.5 -2.5t-41.5 -8.5l71 192h-139q-50 0 -108.5 18t-108.5 57.5t-84 103t-34 156.5v323q0 34 8 72t25 75.5t43 71t62.5 59t85.5 41.5t111 16h647v-239h-647q-47 0 -71.5 -24.5t-24.5 -72.5v-322q0 -48 24.5 -72t73.5 -24h645v-239z" />
    <glyph glyph-name="egrave" unicode="&#xe8;" horiz-adv-x="1228" 
d="M1179 664q0 -49 -18 -106.5t-56.5 -107.5t-101.5 -82.5t-153 -32.5h-430v227h430q49 0 75 30.5t26 73.5q0 47 -29.5 73.5t-71.5 26.5h-430q-50 0 -76 -30.5t-26 -73.5v-333q0 -49 29 -75t74 -26h429v-228h-430q-52 0 -109.5 18t-106 56.5t-81.5 101.5t-33 153v335
q0 49 18 106t56.5 107t101.5 83t154 33h430q49 0 106.5 -18t106 -56.5t82.5 -101.5t34 -153zM394 1516l442 -258l-64 -137l-477 171z" />
    <glyph glyph-name="eacute" unicode="&#xe9;" horiz-adv-x="1228" 
d="M1179 664q0 -49 -18 -106.5t-56.5 -107.5t-101.5 -82.5t-153 -32.5h-430v227h430q49 0 75 30.5t26 73.5q0 47 -29.5 73.5t-71.5 26.5h-430q-50 0 -76 -30.5t-26 -73.5v-333q0 -49 29 -75t74 -26h429v-228h-430q-52 0 -109.5 18t-106 56.5t-81.5 101.5t-33 153v335
q0 49 18 106t56.5 107t101.5 83t154 33h430q49 0 106.5 -18t106 -56.5t82.5 -101.5t34 -153zM948 1301l-477 -171l-66 137l444 258z" />
    <glyph glyph-name="ecircumflex" unicode="&#xea;" horiz-adv-x="1228" 
d="M1179 664q0 -49 -18 -106.5t-56.5 -107.5t-101.5 -82.5t-153 -32.5h-430v227h430q49 0 75 30.5t26 73.5q0 47 -29.5 73.5t-71.5 26.5h-430q-50 0 -76 -30.5t-26 -73.5v-333q0 -49 29 -75t74 -26h429v-228h-430q-52 0 -109.5 18t-106 56.5t-81.5 101.5t-33 153v335
q0 49 18 106t56.5 107t101.5 83t154 33h430q49 0 106.5 -18t106 -56.5t82.5 -101.5t34 -153zM953 1121l-319 165l-320 -165l-111 154l431 245l430 -245z" />
    <glyph glyph-name="edieresis" unicode="&#xeb;" horiz-adv-x="1228" 
d="M1179 664q0 -49 -18 -106.5t-56.5 -107.5t-101.5 -82.5t-153 -32.5h-430v227h430q49 0 75 30.5t26 73.5q0 47 -29.5 73.5t-71.5 26.5h-430q-50 0 -76 -30.5t-26 -73.5v-333q0 -49 29 -75t74 -26h429v-228h-430q-52 0 -109.5 18t-106 56.5t-81.5 101.5t-33 153v335
q0 49 18 106t56.5 107t101.5 83t154 33h430q49 0 106.5 -18t106 -56.5t82.5 -101.5t34 -153zM540 1263q0 -23 -9.5 -45t-26.5 -38t-39 -25.5t-44 -9.5q-24 0 -45.5 9.5t-38 25.5t-25.5 38t-9 45q0 25 9 46.5t25.5 38t38 25.5t45.5 9q22 0 44 -9t39 -25.5t26.5 -38t9.5 -46.5
zM965 1263q0 -23 -9.5 -45t-25.5 -38t-38 -25.5t-45 -9.5q-25 0 -46.5 9.5t-38 25.5t-25.5 38t-9 45q0 25 9 46.5t25.5 38t38 25.5t46.5 9q23 0 45 -9t38 -25.5t25.5 -38t9.5 -46.5z" />
    <glyph glyph-name="igrave" unicode="&#xec;" horiz-adv-x="471" 
d="M354 0h-239v993h239v-993zM69 1534l442 -258l-62 -137l-479 171z" />
    <glyph glyph-name="iacute" unicode="&#xed;" horiz-adv-x="470" 
d="M355 0h-238v993h238v-993zM487 1292l-481 -171l-63 137l442 258z" />
    <glyph glyph-name="icircumflex" unicode="&#xee;" horiz-adv-x="470" 
d="M355 0h-238v993h238v-993zM558 1064l-319 165l-320 -165l-111 154l431 245l430 -245z" />
    <glyph glyph-name="idieresis" unicode="&#xef;" horiz-adv-x="470" 
d="M355 0h-238v993h238v-993zM145 1263q0 -23 -9.5 -45t-25.5 -38t-37.5 -25.5t-45.5 -9.5q-25 0 -46.5 9.5t-37.5 25.5t-25.5 38t-9.5 45q0 25 9.5 46.5t25.5 38t37.5 25.5t46.5 9q24 0 45.5 -9t37.5 -25.5t25.5 -38t9.5 -46.5zM570 1263q0 -23 -9.5 -45t-25.5 -38
t-37.5 -25.5t-45.5 -9.5q-25 0 -46.5 9.5t-37.5 25.5t-26 38t-10 45q0 25 10 46.5t26 38t37.5 25.5t46.5 9q24 0 45.5 -9t37.5 -25.5t25.5 -38t9.5 -46.5z" />
    <glyph glyph-name="eth" unicode="&#xf0;" horiz-adv-x="1297" 
d="M1190 335q0 -60 -15.5 -110.5t-41.5 -86.5t-59.5 -62.5t-71 -43.5t-75 -24.5t-71.5 -7.5h-431q-62 0 -111 16t-85.5 41.5t-62.5 60t-43 71.5t-25 75.5t-8 70.5v323q0 92 34 156t84 103.5t108.5 57.5t108.5 18h431v-239h-429q-49 0 -73.5 -24.5t-24.5 -71.5v-321
q0 -50 24.5 -74t71.5 -24h431q48 0 71.5 24t23.5 72v754q0 47 -13.5 83.5t-39.5 63t-64.5 41.5t-85.5 15h-120v240h120q68 0 125.5 -15t103.5 -41t81 -62t59 -75l218 109l96 -192l-245 -122q2 -11 3 -22.5t1 -22.5v-754z" />
    <glyph glyph-name="ntilde" unicode="&#xf1;" horiz-adv-x="1308" 
d="M1211 0h-239v551q0 47 -16 83.5t-43 64t-64.5 41.5t-80.5 14h-418v-754h-239v874q0 25 9 46.5t25.5 37.5t39 25.5t46.5 9.5h538q45 0 95 -10.5t99 -33t94 -56.5t79 -84t54.5 -113.5t20.5 -144.5v-551zM1021 1444q0 -88 -18 -149.5t-48.5 -97.5t-73.5 -52.5t-90 -16.5
q-48 0 -82 17t-61 38t-50.5 39t-53.5 18q-27 0 -43 -14.5t-24.5 -33.5t-11 -37.5t-2.5 -26.5h-164q0 78 19 137t50.5 99.5t73 60t89.5 19.5q43 0 74.5 -18t59 -38.5t54 -37.5t58.5 -17q28 0 43.5 14.5t24.5 32t11.5 35.5t2.5 29h162z" />
    <glyph glyph-name="ograve" unicode="&#xf2;" horiz-adv-x="1283" 
d="M1190 335q0 -60 -15.5 -110.5t-41.5 -86.5t-59.5 -62.5t-71 -43.5t-75 -24.5t-71.5 -7.5h-431q-50 0 -108.5 18t-108.5 57.5t-84 103t-34 156.5v323q0 92 34 156t84 103.5t108.5 57.5t108.5 18h431q92 0 155.5 -33t103 -84t57.5 -109t18 -109v-323zM951 657
q0 48 -24 72.5t-71 24.5h-429q-49 0 -73.5 -24.5t-24.5 -71.5v-323q0 -48 24.5 -72t73.5 -24h429q48 0 71.5 24t23.5 72v322zM411 1525l442 -258l-64 -137l-480 171z" />
    <glyph glyph-name="oacute" unicode="&#xf3;" horiz-adv-x="1283" 
d="M1190 335q0 -60 -15.5 -110.5t-41.5 -86.5t-59.5 -62.5t-71 -43.5t-75 -24.5t-71.5 -7.5h-431q-50 0 -108.5 18t-108.5 57.5t-84 103t-34 156.5v323q0 92 34 156t84 103.5t108.5 57.5t108.5 18h431q92 0 155.5 -33t103 -84t57.5 -109t18 -109v-323zM951 657
q0 48 -24 72.5t-71 24.5h-429q-49 0 -73.5 -24.5t-24.5 -71.5v-323q0 -48 24.5 -72t73.5 -24h429q48 0 71.5 24t23.5 72v322zM913 1301l-481 -171l-63 137l442 258z" />
    <glyph glyph-name="ocircumflex" unicode="&#xf4;" horiz-adv-x="1283" 
d="M1190 335q0 -60 -15.5 -110.5t-41.5 -86.5t-59.5 -62.5t-71 -43.5t-75 -24.5t-71.5 -7.5h-431q-50 0 -108.5 18t-108.5 57.5t-84 103t-34 156.5v323q0 92 34 156t84 103.5t108.5 57.5t108.5 18h431q92 0 155.5 -33t103 -84t57.5 -109t18 -109v-323zM951 657
q0 48 -24 72.5t-71 24.5h-429q-49 0 -73.5 -24.5t-24.5 -71.5v-323q0 -48 24.5 -72t73.5 -24h429q48 0 71.5 24t23.5 72v322zM959 1121l-320 165l-319 -165l-112 154l431 245l431 -245z" />
    <glyph glyph-name="otilde" unicode="&#xf5;" horiz-adv-x="1283" 
d="M1190 335q0 -60 -15.5 -110.5t-41.5 -86.5t-59.5 -62.5t-71 -43.5t-75 -24.5t-71.5 -7.5h-431q-50 0 -108.5 18t-108.5 57.5t-84 103t-34 156.5v323q0 92 34 156t84 103.5t108.5 57.5t108.5 18h431q92 0 155.5 -33t103 -84t57.5 -109t18 -109v-323zM951 657
q0 48 -24 72.5t-71 24.5h-429q-49 0 -73.5 -24.5t-24.5 -71.5v-323q0 -48 24.5 -72t73.5 -24h429q48 0 71.5 24t23.5 72v322zM1001 1444q0 -88 -19 -149.5t-50 -97.5t-72.5 -52.5t-88.5 -16.5q-51 0 -84.5 17t-60 38t-50 39t-54.5 18q-27 0 -43 -14.5t-25 -33.5t-10.5 -37.5
t-3.5 -26.5h-162q0 78 19 137t50 99.5t73.5 60t89.5 19.5q43 0 74 -18t59 -38.5t53.5 -37.5t59.5 -17q28 0 44 14.5t24.5 32t10 35.5t3.5 29h163z" />
    <glyph glyph-name="odieresis" unicode="&#xf6;" horiz-adv-x="1283" 
d="M1190 335q0 -60 -15.5 -110.5t-41.5 -86.5t-59.5 -62.5t-71 -43.5t-75 -24.5t-71.5 -7.5h-431q-50 0 -108.5 18t-108.5 57.5t-84 103t-34 156.5v323q0 92 34 156t84 103.5t108.5 57.5t108.5 18h431q92 0 155.5 -33t103 -84t57.5 -109t18 -109v-323zM951 657
q0 48 -24 72.5t-71 24.5h-429q-49 0 -73.5 -24.5t-24.5 -71.5v-323q0 -48 24.5 -72t73.5 -24h429q48 0 71.5 24t23.5 72v322zM545 1263q0 -23 -10.5 -45t-26 -38t-37.5 -25.5t-44 -9.5q-25 0 -46.5 9.5t-38.5 25.5t-25 38t-8 45q0 25 8 46.5t25 38t38.5 25.5t46.5 9
q22 0 44 -9t37.5 -25.5t26 -38t10.5 -46.5zM971 1263q0 -23 -10 -45t-27 -38t-38.5 -25.5t-43.5 -9.5q-25 0 -46.5 9.5t-37.5 25.5t-25 38t-9 45q0 25 9 46.5t25 38t37.5 25.5t46.5 9q22 0 43.5 -9t38.5 -25.5t27 -38t10 -46.5z" />
    <glyph glyph-name="divide" unicode="&#xf7;" horiz-adv-x="1044" 
d="M639 982q0 -25 -9 -46.5t-25 -37.5t-38 -25.5t-46 -9.5t-45.5 9.5t-38 25.5t-26 37.5t-9.5 46.5q0 24 9.5 45.5t26 38t38 25.5t45.5 9t46 -9t38 -25.5t25 -38t9 -45.5zM951 551h-861v215h861v-215zM639 335q0 -25 -9 -46.5t-25 -37.5t-38 -25t-46 -9t-45.5 9t-38 25
t-26 37.5t-9.5 46.5q0 24 9.5 45.5t26 37.5t38 26t45.5 10t46 -10t38 -26t25 -37.5t9 -45.5z" />
    <glyph glyph-name="oslash" unicode="&#xf8;" horiz-adv-x="1283" 
d="M1078 914q29 -26 50.5 -58t35 -66t20 -67.5t6.5 -64.5v-323q0 -60 -14.5 -110.5t-41.5 -86.5t-60.5 -62.5t-70 -43.5t-75 -24.5t-72.5 -7.5h-431h-13l-70 -95h-265l126 172q-47 40 -80 102.5t-33 155.5v323q0 92 34 156t84 103.5t109 57.5t108 18h431h13l69 96h268z
M329 335q0 -38 17 -62l348 481h-267q-47 0 -72.5 -24.5t-25.5 -71.5v-323zM951 657q0 39 -16 61l-350 -479h271q48 0 71.5 24t23.5 72v322z" />
    <glyph glyph-name="ugrave" unicode="&#xf9;" horiz-adv-x="1308" 
d="M1196 120q0 -26 -9.5 -47.5t-25.5 -38t-37.5 -25.5t-45.5 -9h-540q-45 0 -95 10.5t-98.5 33t-94 56t-79 83.5t-55 114t-21.5 145v551h240v-551q0 -47 15.5 -84.5t43 -64t65.5 -40.5t81 -14h417v754h239v-873zM490 1477l442 -257l-64 -137l-480 171z" />
    <glyph glyph-name="uacute" unicode="&#xfa;" horiz-adv-x="1308" 
d="M1196 120q0 -26 -9.5 -47.5t-25.5 -38t-37.5 -25.5t-45.5 -9h-540q-45 0 -95 10.5t-98.5 33t-94 56t-79 83.5t-55 114t-21.5 145v551h240v-551q0 -47 15.5 -84.5t43 -64t65.5 -40.5t81 -14h417v754h239v-873zM968 1263l-480 -171l-64 137l442 258z" />
    <glyph glyph-name="ucircumflex" unicode="&#xfb;" horiz-adv-x="1308" 
d="M1196 120q0 -26 -9.5 -47.5t-25.5 -38t-37.5 -25.5t-45.5 -9h-540q-45 0 -95 10.5t-98.5 33t-94 56t-79 83.5t-55 114t-21.5 145v551h240v-551q0 -47 15.5 -84.5t43 -64t65.5 -40.5t81 -14h417v754h239v-873zM965 1121l-320 165l-320 -165l-111 154l431 245l430 -245z
" />
    <glyph glyph-name="udieresis" unicode="&#xfc;" horiz-adv-x="1308" 
d="M1196 120q0 -26 -9.5 -47.5t-25.5 -38t-37.5 -25.5t-45.5 -9h-540q-45 0 -95 10.5t-98.5 33t-94 56t-79 83.5t-55 114t-21.5 145v551h240v-551q0 -47 15.5 -84.5t43 -64t65.5 -40.5t81 -14h417v754h239v-873zM551 1263q0 -23 -10 -45t-26 -38t-38 -25.5t-45 -9.5
q-24 0 -45.5 9.5t-38.5 25.5t-25.5 38t-8.5 45q0 25 8.5 46.5t25.5 38t38.5 25.5t45.5 9q23 0 45 -9t38 -25.5t26 -38t10 -46.5zM976 1263q0 -23 -9.5 -45t-26 -38t-38.5 -25.5t-44 -9.5q-25 0 -46.5 9.5t-37.5 25.5t-25.5 38t-9.5 45q0 25 9.5 46.5t25.5 38t37.5 25.5
t46.5 9q22 0 44 -9t38.5 -25.5t26 -38t9.5 -46.5z" />
    <glyph glyph-name="yacute" unicode="&#xfd;" horiz-adv-x="1323" 
d="M1206 -95q0 -61 -16.5 -111t-41.5 -86.5t-59 -63t-71.5 -43.5t-75.5 -24.5t-72 -7.5h-430v239h430q49 0 73 24.5t24 72.5v1088h239v-1088zM870 0h-430q-51 0 -109 18t-109 57.5t-83.5 103t-32.5 156.5v658h238v-658q0 -48 24.5 -72t73.5 -24h428v-239zM1053 1208
l-479 -173l-64 139l442 256z" />
    <glyph glyph-name="thorn" unicode="&#xfe;" horiz-adv-x="1525" 
d="M378 1134q24 7 49 11t47 4h540q80 0 144 -21t113 -54.5t83.5 -79t57.5 -95t33 -99.5t10 -95v-107q0 -83 -20.5 -147t-54.5 -113t-79 -83.5t-93.5 -56t-99.5 -32t-94 -10.5h-540v239h540q45 3 82.5 18.5t63.5 40.5t41.5 61t15.5 83v107q0 45 -14.5 82.5t-40.5 65
t-63.5 42.5t-84.5 15h-538q-47 0 -71.5 -23.5t-26.5 -64.5v-917h-238v1518h238v-289z" />
    <glyph glyph-name="ydieresis" unicode="&#xff;" horiz-adv-x="1323" 
d="M1206 -95q0 -61 -16.5 -111t-41.5 -86.5t-59 -63t-71.5 -43.5t-75.5 -24.5t-72 -7.5h-430v239h430q49 0 73 24.5t24 72.5v1088h239v-1088zM870 0h-430q-51 0 -109 18t-109 57.5t-83.5 103t-32.5 156.5v658h238v-658q0 -48 24.5 -72t73.5 -24h428v-239zM560 1263
q0 -23 -10 -45t-26 -38t-37.5 -25.5t-44.5 -9.5q-24 0 -45.5 9.5t-38.5 25.5t-26 38t-9 45q0 25 9 46.5t26 38t38.5 25.5t45.5 9q23 0 44.5 -9t37.5 -25.5t26 -38t10 -46.5zM985 1263q0 -23 -9 -45t-26 -38t-38.5 -25.5t-44.5 -9.5q-24 0 -46 9.5t-37.5 25.5t-25.5 38
t-10 45q0 25 10 46.5t25.5 38t37.5 25.5t46 9q23 0 44.5 -9t38.5 -25.5t26 -38t9 -46.5z" />
    <glyph glyph-name="circumflex" unicode="&#x2c6;" horiz-adv-x="1024" 
d="M441 1511h141l277 -424h-69l-279 254l-277 -254h-69z" />
    <glyph glyph-name="caron" unicode="&#x2c7;" horiz-adv-x="1024" 
d="M165 1511h69l277 -255l279 255h69l-277 -424h-141z" />
    <glyph glyph-name="uni02C9" unicode="&#x2c9;" horiz-adv-x="1024" 
d="M254 1167v153h516v-153h-516z" />
    <glyph glyph-name="breve" unicode="&#x2d8;" horiz-adv-x="1024" 
d="M219 1418h60q19 -92 86 -135t193 -43q125 0 191.5 42.5t86.5 135.5h58q-23 -167 -108.5 -253t-227.5 -86q-141 0 -228.5 86.5t-110.5 252.5z" />
    <glyph glyph-name="dotaccent" unicode="&#x2d9;" horiz-adv-x="1024" 
d="M376 1305l84 90q7 6 16 10t17 4t16 -4t16 -10l87 -94q6 -6 9 -13.5t3 -16.5q-1 -11 -4 -18.5t-10 -15.5l-88 -94q-15 -14 -19.5 -16.5t-9.5 -2.5q-12 0 -20 2.5t-13 11.5l-93 107q-4 5 -7 11.5t-3 17.5q0 6 4 14.5t15 16.5z" />
    <glyph glyph-name="ring" unicode="&#x2da;" horiz-adv-x="940" 
d="M335 1206q0 -51 35 -86t86 -35t86 35t35 86q0 48 -36 83.5t-85 35.5t-85 -35.5t-36 -83.5zM243 1206q0 90 61.5 152t151.5 62q92 0 154 -62t62 -152q0 -91 -62 -153t-154 -62q-90 0 -151.5 62t-61.5 153z" />
    <glyph glyph-name="ogonek" unicode="&#x2db;" horiz-adv-x="941" 
d="M548 0q-79 -69 -123 -132.5t-44 -125.5q0 -52 30.5 -83.5t81.5 -31.5q44 0 76.5 17.5t55.5 54.5l31 -18q-40 -70 -100.5 -108t-133.5 -38q-77 0 -126 39.5t-49 101.5q0 84 67 173t180 151h54z" />
    <glyph glyph-name="tilde" unicode="&#x2dc;" horiz-adv-x="1024" 
d="M838 1437q-22 -143 -77 -214t-144 -71h-5q-56 0 -128 32q-75 34 -130 34q-44 0 -68 -28t-38 -101h-62q22 148 77.5 221.5t146.5 73.5q53 -2 129 -34q72 -31 128 -31h3q41 0 66 27t42 91h60z" />
    <glyph glyph-name="hungarumlaut" unicode="&#x2dd;" horiz-adv-x="1024" 
d="M143 1061l190 360q32 59 60.5 84t61.5 25q37 0 63.5 -26.5t26.5 -61.5q0 -22 -13.5 -47t-40.5 -54l-270 -280h-78zM502 1061l190 360q32 59 60 84t62 25q36 0 62.5 -26.5t26.5 -61.5q0 -22 -14 -47t-41 -54l-270 -280h-76z" />
    <glyph glyph-name="uni1000" unicode="&#x1000;" horiz-adv-x="1916" 
d="M3 412q0 164 112 275t276 111h238q202 0 308 -149q35 66 113.5 107.5t158.5 41.5h238q169 0 279 -110t110 -279v-358l-51 -51h-270v187h119v222q0 83 -53 141.5t-137 58.5h-227q-76 0 -137.5 -63.5t-61.5 -138.5v-356l-51 -51h-270v187h119v222q0 83 -53 141.5t-137 58.5
h-227q-83 0 -141.5 -58.5t-58.5 -141.5v-222h124v-187h-270l-50 51v361z" />
    <glyph glyph-name="uni1001" unicode="&#x1001;" horiz-adv-x="1129" 
d="M1015 51l-43 -51h-914l-58 51v237q0 76 81 98q7 0 20 3h308q28 0 73 -25q20 -23 28 -76v-101h303v222q0 86 -57 143t-142 57h-228q-83 0 -141 -58.5t-58 -141.5l-174 147q32 113 144 181q103 61 227 61h237q164 0 279 -111t115 -273v-363zM313 187v66h-111v-66h111z" />
    <glyph glyph-name="uni1002" unicode="&#x1002;" horiz-adv-x="1129" 
d="M1018 40l-48 -45h-273v187h119v222q0 83 -53 141t-137 58h-227q-83 0 -141.5 -58t-58.5 -141v-222h124v-187h-270l-50 48v364q0 164 112 275t276 111h238q169 0 279 -110t110 -279v-364z" />
    <glyph glyph-name="uni1003" unicode="&#x1003;" horiz-adv-x="1916" 
d="M227 783q-156 0 -224 -139l116 -136q12 30 52.5 70.5t68.5 40.5t28 -33q0 -41 -95 -104t-143 -164q-15 -30 -27 -88v-179l45 -51h823l46 45l50 -45h816l53 56v343q0 255 -263 376l-106 -151q18 -8 43 -23q96 -53 116 -121q8 -36 8 -76v-217h-616v212q0 255 -263 376
l-106 -151q18 -8 43 -23q96 -53 116 -121q8 -36 8 -76v-217h-617v40q13 41 41 77.5t106 89.5q96 83 96 222q0 76 -67 121.5t-148 45.5z" />
    <glyph glyph-name="uni1004" unicode="&#x1004;" horiz-adv-x="1129" 
d="M1000 53l-51 -53h-901l-48 61v348q0 172 108.5 280.5t280.5 108.5h237q126 0 225 -61q109 -65 141 -181l-174 -147q0 86 -57 143t-142 57h-228q-83 0 -136 -58.5t-53 -141.5v-222h601v45h197v-179z" />
    <glyph glyph-name="uni1005" unicode="&#x1005;" horiz-adv-x="1129" 
d="M182 298h113v136h-113v-136zM3 407q0 164 112 275t276 111h238q169 0 279 -110t110 -279v-359l-51 -50h-914l-50 50v362zM462 528v-270l-86 -76h440v222q0 83 -53 141t-137 58l-237 3z" />
    <glyph glyph-name="uni1006" unicode="&#x1006;" horiz-adv-x="1954" 
d="M1629 187v217q0 83 -53 141t-137 58h-227q-83 0 -141 -58t-58 -141v-217h616zM313 187v66h-111v-66h111zM917 669q118 124 287 124h238q169 0 279 -110t110 -279v-328l-51 -76h-813l-50 51l-51 -51h-808l-58 51v237q0 76 81 98q7 0 20 3h308q28 0 73 -25q20 -23 28 -76
v-101h303v222q0 86 -57 143t-142 57h-228q-83 0 -141 -58.5t-58 -141.5l-174 147q32 113 144 181q103 61 227 61h237q182 0 296 -129z" />
    <glyph glyph-name="uni1007" unicode="&#x1007;" horiz-adv-x="1129" 
d="M1018 167l-134 -106l-116 202h-235l-51 50v131q0 36 28 63.5t63 27.5h142q73 0 73 -75q7 15 7 27q0 56 -60 86q-48 25 -109 25h-227q-83 0 -141.5 -58t-58.5 -141v-212h521v-187h-667l-50 51v350q0 165 112 276t276 111h238q108 0 217 -61q121 -68 139 -169q5 -28 5 -53
q0 -71 -15 -98l-53 -96zM710 376l-28 41h-99v-41h127z" />
    <glyph glyph-name="uni1008" unicode="&#x1008;" horiz-adv-x="1344" 
d="M182 298h113v136h-113v-136zM3 407q0 164 112 275t276 111h238q169 0 279 -110t110 -279v-359l-51 -50h-914l-50 50v362zM462 528v-270l-86 -76h440v222q0 83 -53 141t-137 58l-237 3zM1274 -731l-50 -50h-434l-51 50v510h197v-373h136v1382h202v-1519z" />
    <glyph glyph-name="uni1009" unicode="&#x1009;" horiz-adv-x="1108" 
d="M3 -583v820h196v-45h601v222q0 200 -184 200h-227q-86 0 -143 -57t-57 -143l-174 147q33 116 142 181q98 61 224 61h238q171 0 277 -110t106 -279l-2 -369l-48 -45h-753v-444h606v96h197v-238l-55 -45h-902z" />
    <glyph glyph-name="uni100A" unicode="&#x100a;" horiz-adv-x="1967" 
d="M798 182v222q0 88 -48 143.5t-136 55.5h-228q-83 0 -141 -58t-58 -141l-174 146q32 114 141 180q101 63 225 63h237q172 0 278 -108.5t106 -280.5v-222h616v222q0 83 -53 141t-136 58h-134v190h136q169 0 279 -110t110 -279v-364l-48 -45h-816l-50 45l-48 -45h-659v-449
h1414v95h197v-237l-56 -45h-1709l-43 48v820h197v-45h601z" />
    <glyph glyph-name="uni100B" unicode="&#x100b;" horiz-adv-x="1129" 
d="M1000 78l-51 -53h-901l-48 61v323q0 172 108.5 280.5t280.5 108.5h237q126 0 225 -61q109 -65 141 -181l-174 -147q0 86 -57 143t-142 57h-228q-83 0 -136 -58.5t-53 -141.5v-197h601v46h197v-180zM1129 -636h-270l-43 50v379h-813v187h835q28 0 56 -5q106 -20 119 -119
q5 -35 5 -68v-237h111v-187z" />
    <glyph glyph-name="uni100C" unicode="&#x100c;" horiz-adv-x="1108" 
d="M1002 -583l-42 -48h-902l-55 45v238h196v-96h606v444h-752l-48 45l-2 369q0 169 106 279t277 110h238q126 0 224 -61q109 -65 142 -181l-174 -147q0 86 -57 143t-143 57h-227q-184 0 -184 -200v-222h600v45h197v-820z" />
    <glyph glyph-name="uni100D" unicode="&#x100d;" horiz-adv-x="1129" 
d="M0 78v180h197v-46h601v197q0 83 -53 141.5t-136 58.5h-228q-86 0 -142.5 -57t-56.5 -143l-174 147q32 116 141 181q98 61 225 61h237q172 0 280.5 -108.5t108.5 -280.5v-323l-48 -61h-901zM1129 -636h-270l-43 50v379h-813v187h835q28 0 56 -5q106 -20 119 -119
q5 -35 5 -68v-237h111v-187z" />
    <glyph glyph-name="uni100E" unicode="&#x100e;" horiz-adv-x="1111" 
d="M755 775l-106 -151q18 -8 43 -23q96 -53 116 -121q8 -36 8 -76v-217h-617v40q13 41 41 77.5t106 89.5q96 83 96 222q0 78 -67 122.5t-148 44.5q-156 0 -224 -139l116 -136q12 30 52.5 70.5t68.5 40.5t28 -33q0 -41 -95 -104t-143 -164q-15 -30 -27 -88v-179l45 -51h906
l61 56v343q0 260 -260 376z" />
    <glyph glyph-name="uni100F" unicode="&#x100f;" horiz-adv-x="2192" 
d="M2121 45l-50 -50h-273v187h121v222q0 83 -53 141t-136 58h-177q-83 0 -141.5 -58t-58.5 -141v-364l-50 -45h-487l-51 48v361q0 83 -53 141t-136 58h-177q-83 0 -141.5 -58t-58.5 -141v-222h124v-187h-270l-50 48v364q0 164 112 275t276 111h187q114 0 192 -56
q25 -17 58 -58q23 56 101 89q66 27 134 27q141 0 217 -101q96 99 265 99h187q169 0 279 -110t110 -279v-359zM1156 182v323q0 40 -26.5 70.5t-66.5 30.5t-68 -30.5t-28 -70.5v-323h189z" />
    <glyph glyph-name="uni1010" unicode="&#x1010;" horiz-adv-x="1932" 
d="M816 404q0 83 -53 141t-137 58h-227q-83 0 -141.5 -58t-58.5 -141v-222h617v222zM937 644q35 66 113.5 107.5t158.5 41.5h238q169 0 279 -110t110 -279v-359l-51 -50h-288v187h137v222q0 83 -53 141t-137 58h-227q-76 0 -137.5 -63t-61.5 -139v-356l-51 -50h-914l-50 50
v362q0 164 112 275t276 111h238q202 0 308 -149z" />
    <glyph glyph-name="uni1011" unicode="&#x1011;" horiz-adv-x="1944" 
d="M199 187h617v222q0 83 -53 141.5t-137 58.5h-227q-83 0 -141.5 -58.5t-58.5 -141.5v-222zM3 412q0 164 112 275t276 111h238q202 0 308 -149q35 66 113.5 107.5t158.5 41.5h238q169 0 279 -110t110 -279v-358l-51 -51h-813l-50 45l-48 -45h-821l-50 51v361zM1634 409
q0 83 -53 141.5t-137 58.5h-227q-76 0 -137.5 -63.5t-61.5 -138.5v-220h616v222z" />
    <glyph glyph-name="uni1012" unicode="&#x1012;" horiz-adv-x="1129" 
d="M1018 119v-79l-48 -45h-914l-51 48v184h197v-45h508q-51 43 -71 65q-73 84 -73 157q0 66 70 139q21 20 74 60h-329q-83 0 -141 -58t-58 -141l-174 146q32 114 141 180q101 63 225 63h338q164 0 258 -78q65 -56 65 -79q0 -5 -2 -7q0 -33 -3 -38q-15 -25 -121 -91
q-93 -58 -93 -99q0 -50 101 -151t101 -131z" />
    <glyph glyph-name="uni1013" unicode="&#x1013;" horiz-adv-x="1129" 
d="M434 182h139v113h-139v-113zM816 404q0 83 -53 141t-137 58h-227q-83 0 -141.5 -58t-58.5 -141v-222h76v154q10 88 71 101q23 5 48 7h222q96 -10 114 -90q0 -6 5 -21v-151h81v222zM53 -5l-50 48v364q0 164 112 275t276 111h238q169 0 279 -110t110 -279v-364l-48 -45
h-917z" />
    <glyph glyph-name="uni1014" unicode="&#x1014;" horiz-adv-x="1129" 
d="M391 187v66h-186v-66h186zM573 0v-639h-172v639h-340l-58 51v171q0 66 49 115t115 49h260q65 0 117 -49t47 -115l-3 -35h177q0 45 -15 71q-38 60 -250 136q-116 40 -333 98q-46 13 -69 61q-5 15 -12 45q0 200 300 200h212q101 0 163 -26.5t135 -99.5l-156 -127
q-63 64 -149 64h-260q15 0 139 -33q497 -132 497 -359v-166l-43 -51h-351z" />
    <glyph glyph-name="uni1015" unicode="&#x1015;" horiz-adv-x="1129" 
d="M816 404v-217h-617v217q0 124 129 202q20 13 46 23l-106 151q-122 -45 -193.5 -145t-71.5 -228v-356l50 -51h914l51 76v323q0 255 -263 376l-106 -151q18 -8 43 -23q126 -71 126 -172q0 -17 -2 -25z" />
    <glyph glyph-name="uni1016" unicode="&#x1016;" horiz-adv-x="1129" 
d="M821 465v141h-137v-141h137zM1018 56l-53 -51h-917l-45 56v346q0 272 265 373l106 -151q-18 -8 -43 -23q-99 -53 -114 -124q-10 -33 -10 -78l-2 -212h616v86h-293l-46 55v273q0 76 54.5 131.5t130.5 55.5h161q76 0 133 -55.5t57 -131.5v-550z" />
    <glyph glyph-name="uni1017" unicode="&#x1017;" horiz-adv-x="1129" 
d="M1018 76l-51 -76h-914l-50 51v356q0 154 99.5 270t253.5 116q8 2 10 0q25 -53 41 -73q50 -74 103 -74q48 0 101 74q13 17 43 73q3 2 10 0q159 0 256.5 -113.5t97.5 -275.5v-328zM500 467q-58 0 -129 53q-17 13 -63 56q-109 -56 -109 -175v-214h617v214q0 132 -104 177
q-58 -111 -212 -111z" />
    <glyph glyph-name="uni1018" unicode="&#x1018;" horiz-adv-x="1916" 
d="M371 614q-83 0 -141 -58.5t-58 -141.5l-175 147q33 113 142 179q101 63 225 63h265q202 0 308 -149q35 66 113.5 107.5t158.5 41.5h238q169 0 279 -110t110 -279v-363l-51 -51h-313v187h162v227q0 83 -53 141.5t-137 58.5h-227q-76 0 -137.5 -63.5t-61.5 -138.5v-361
l-51 -51h-914l-50 51v207h196v-71h617v227q0 83 -53 141.5t-137 58.5h-255z" />
    <glyph glyph-name="uni1019" unicode="&#x1019;" horiz-adv-x="1129" 
d="M434 187h139v113h-139v-113zM735 187h81v222q0 88 -43 139q-28 28 -79 58q-20 13 -45 23l106 151q263 -121 263 -376v-353l-51 -51h-914l-50 51v361q0 272 265 373l106 -151q-18 -8 -43 -23q-91 -50 -116 -126q-16 -41 -16 -76v-222h76v103q0 66 47 112.5t112 46.5h142
q68 0 113.5 -45t45.5 -114v-103z" />
    <glyph glyph-name="uni101A" unicode="&#x101a;" horiz-adv-x="1916" 
d="M1634 187h-616v212q0 255 -263 376l-106 -151q18 -8 43 -23q96 -53 116 -121q8 -36 8 -76v-217h-617v217q0 124 129 202q20 13 46 23l-106 151q-122 -45 -193.5 -145t-71.5 -228v-356l45 -51h823l46 45l50 -45h816l53 56v343q0 255 -263 376l-106 -151q18 -8 43 -23
q96 -53 116 -121q8 -36 8 -76v-217z" />
    <glyph glyph-name="uni101B" unicode="&#x101b;" horiz-adv-x="1129" 
d="M336 273h-137v-91h137v91zM1018 -224h-1l-1 -89h-1l-1 -55q0 -45 28.5 -105.5t57.5 -83.5q112 -90 289 -90q139 0 267 57q145 63 241 184q-99 -187 -296 -289q-172 -89 -351 -89q-224 0 -336 117q-62 76 -82 145t-22 168q-2 25 1 48h1l4 710q0 83 -53 141t-137 58h-227
q-83 0 -141.5 -58t-58.5 -141h205q78 0 114 -48q10 -13 20 -50v-266l-48 -45h-437l-50 48v364q0 164 112 275t276 111h238q169 0 279 -110t110 -279v-628z" />
    <glyph glyph-name="uni101C" unicode="&#x101c;" horiz-adv-x="1934" 
d="M1836 424q0 255 -263 376l-106 -151q18 -8 43 -23q61 -35 83 -63q26 -35 36 -101q0 -13 5 -33v-242h-616v217q0 172 -109 280.5t-280 108.5h-238q-161 0 -274.5 -112.5t-113.5 -273.5v-356l50 -51h270v187h-124v217q0 86 57 142.5t143 56.5h227q84 0 137 -58t53 -141
v-348l50 -56h917l53 56v368z" />
    <glyph glyph-name="uni101D" unicode="&#x101d;" horiz-adv-x="1129" 
d="M1018 76l-51 -76h-914l-50 51v356q0 164 112 275t276 111h238q169 0 279 -110t110 -279v-328zM816 187v217q0 83 -53 141t-137 58h-227q-83 0 -141.5 -58t-58.5 -141v-217h617z" />
    <glyph glyph-name="uni101E" unicode="&#x101e;" horiz-adv-x="1967" 
d="M53 0l-50 51v181h196v-43h599v223q0 88 -48 143.5t-136 55.5h-228q-83 0 -141 -58t-58 -141l-174 146q32 114 141 179q101 63 225 63h237q172 0 278 -108.5t106 -279.5v-223h616v223q0 83 -53 141t-136 58h-134v189h136q169 0 279 -109.5t110 -278.5v-364l-48 -45h-816
l-50 45l-48 -45z" />
    <glyph glyph-name="uni101F" unicode="&#x101f;" horiz-adv-x="1916" 
d="M755 775l-106 -151q18 -8 43 -23q96 -53 116 -121q8 -36 8 -76v-217h-617v217q0 124 129 202q20 13 46 23l-106 151q-122 -45 -193.5 -145t-71.5 -228v-356l45 -51h917l53 56v318q0 101 53 165t151 64h227q84 0 137 -58t53 -141v-217h-137v-187h288l51 51v353
q0 172 -108.5 280.5t-280.5 108.5h-237q-170 0 -281 -144q-58 73 -179 126z" />
    <glyph glyph-name="uni1020" unicode="&#x1020;" horiz-adv-x="1129" 
d="M1000 78l-51 -53h-901l-48 61v323q0 172 108.5 280.5t280.5 108.5h237q126 0 225 -61q109 -65 141 -181l-174 -147q0 86 -57 143t-142 57h-228q-83 0 -136 -58.5t-53 -141.5v-197h601v46h197v-180zM0 -187q0 164 121 187q28 5 58 5h836v-187h-813v-272h616v70h197v-207
l-58 -50h-914l-43 50v404z" />
    <glyph glyph-name="uni1021" unicode="&#x1021;" horiz-adv-x="1916" 
d="M1818 51l-58 -51h-434l-43 51v171q0 78 48 126t126 48h162q-8 74 -23 106q-48 107 -169 107h-392l-5 -13q-15 -25 -121 -91q-93 -58 -93 -98q0 -51 101 -152t101 -131v-79l-48 -45h-914l-51 48v184h197v-45h508q-51 43 -71 66q-73 83 -73 156q0 66 70 139q21 20 74 61
h-329q-83 0 -141 -58.5t-58 -141.5l-174 147q32 113 141 179q101 63 225 63h338q106 0 179 -33q61 33 124 33h414q169 0 279 -110t110 -279v-358zM1550 157v58h-96v-58h96z" />
    <glyph glyph-name="uni1022" unicode="&#x1022;" horiz-adv-x="1909" 
d="M3 272v135q0 164 112 275t276 111h238q169 0 279 -110q7 -7 14 -15q6 7 13 14q112 111 276 111h238q169 0 279 -110t110 -279v-364l-48 -45h-273v187h119v222q0 83 -53 141t-137 58h-227q-83 0 -141.5 -58t-58.5 -141v-113h-1v-251l-48 -45h-273v187h119v222
q0 83 -53 141t-137 58h-227q-83 0 -141.5 -58t-58.5 -141v-32h138q53 0 93.5 -39t40.5 -92v-194l-51 -51h-368l-51 51v93l308 5v78l-254 -2l-50 50v1h-2z" />
    <glyph glyph-name="uni1023" unicode="&#x1023;" horiz-adv-x="1916" 
d="M3 412q0 164 112 275t276 111h238q202 0 308 -149q35 66 113.5 107.5t158.5 41.5h238q169 0 279 -110t110 -279v-358l-51 -51h-270v187h119v222q0 83 -53 141.5t-137 58.5h-227q-76 0 -137.5 -63.5t-61.5 -138.5v-356l-51 -51h-270v187h119v222q0 83 -53 141.5t-137 58.5
h-227q-83 0 -141.5 -58.5t-58.5 -141.5v-222h124v-187h-270l-50 51v361zM1477 -313q-12 43 -25 66q-38 65 -101 65h-182q-58 0 -108.5 -46.5t-50.5 -104.5v-268l-40 -38h-218v142h96v166q0 66 -42.5 107.5t-108.5 41.5h-182q-66 0 -112.5 -41.5t-46.5 -107.5v-166h99v-142
h-218l-40 38v270q0 124 93.5 207.5t219.5 83.5h189q167 0 245 -111q31 50 95 80.5t125 30.5h189q162 0 255 -157q23 -38 46 -98q2 -11 10 -23q0 -41 -18 -56l-159 -136l104 -86l-111 -111l-175 131v104z" />
    <glyph glyph-name="uni1024" unicode="&#x1024;" horiz-adv-x="2199" 
d="M1836 -581l-53 -50h-1730l-48 45l-2 238h196v-96h1435v853q0 83 -53 141.5t-137 58.5h-227q-76 0 -137.5 -63.5t-61.5 -138.5v-356l-51 -51h-270v187h119v222q0 83 -53 141.5t-137 58.5h-227q-83 0 -141.5 -58.5t-58.5 -141.5v-222h124v-187h-270l-50 51v361
q0 164 112 275t276 111h238q202 0 308 -149q35 66 113.5 107.5t158.5 41.5h238q169 0 279 -110t110 -279v-990zM1894 -636v1161q-13 31 -33 78q-88 182 -255 228q-18 5 -91 17h-391l-51 51v245q0 169 110 281.5t279 112.5h212q240 0 349 -220l-157 -169q-5 20 -13 50
q-35 99 -111 134q-38 15 -70 15h-202q-89 0 -143 -58t-54 -146v-111l247 2q61 0 129 -17q141 -38 260 -144t162 -243q12 -38 20 -111v-1156h-197z" />
    <glyph glyph-name="uni1025" unicode="&#x1025;" horiz-adv-x="1108" 
d="M997 35l-48 -45h-752v-444h606v95h197v-237l-56 -45h-901l-43 48v820h197v-45h601v222q0 88 -48 143.5t-136 55.5h-228q-83 0 -141 -58t-58 -141l-174 146q32 114 141 180q101 63 225 63h237q169 0 276.5 -110t107.5 -279z" />
    <glyph glyph-name="uni1026" unicode="&#x1026;" horiz-adv-x="1108" 
d="M997 35l-48 -45h-752v-444h606v95h197v-237l-56 -45h-901l-43 48v820h197v-45h601v222q0 88 -48 143.5t-136 55.5h-228q-83 0 -141 -58t-58 -141l-174 146q32 114 141 180q101 63 225 63h237q169 0 276.5 -110t107.5 -279zM928 866l-50 -50h-763l-50 50v268
q0 169 109.5 281.5t278.5 112.5h86q170 0 279.5 -110t109.5 -279v-273zM464 1000h48v78h-48v-78zM731 1139q-7 86 -59 142.5t-135 56.5h-76q-86 0 -145 -58t-59 -144v-136h63v86q0 50 37.5 88t88.5 38h88q53 0 88.5 -36.5t35.5 -89.5v-86h73v139z" />
    <glyph glyph-name="uni1027" unicode="&#x1027;" horiz-adv-x="1129" 
d="M1023 51l-58 -51h-914l-43 51v363q0 164 114.5 274t278.5 110h238q129 0 227 -61q111 -65 144 -181v-81l-50 -43h-399l-48 45v132h-104q-83 0 -141 -58.5t-58 -141.5v-222h303v96q0 81 73 98q10 0 28 3h308q83 -13 98 -84q0 -5 3 -17v-232zM821 545v64h-111v-64h111z
M821 187v63h-111v-63h111z" />
    <glyph glyph-name="uni1028" unicode="&#x1028;" horiz-adv-x="1042" 
d="M644 129l8 8q20 -11 43 -11q40 0 69 28q28 25 28 65q0 15 -8.5 31.5t-22.5 31t-30.5 23t-31.5 8.5l-16 -1l-53 -30q-13 -11 -18 -25h-7q-2 -19 -18 -34q-17 -18 -42 -18q-24 0 -41 18t-17 42h-3q17 80 90 141l21 13l75 21q49 15 78 25.5t45.5 22t24 21t9.5 21.5l-2 20
q0 64 -91 146q-87 81 -212 81q-126 0 -226 -93q-98 -91 -98 -221l1 -759q0 -132 90 -229q93 -96 226 -96q131 0 225 95q96 92 96 222q0 67 68 67q61 0 61 -67q0 -184 -132 -315q-132 -130 -318 -130q-180 0 -314 136q-132 141 -132 319v757q0 177 135 308q136 134 318 134
q171 0 310 -116q126 -106 126 -233q0 -66 -34 -119q-32 -35 -72 -56l7 -6q61 -69 61 -156q0 -89 -64 -161q-66 -58 -161 -58q-49 0 -96 22q-14 4 -26 15l-2 2q-9 5 -17 11l5 5q-6 10 -6 22q0 23 19.5 39.5t45.5 16.5q14 0 26 -4z" />
    <glyph glyph-name="uni1029" unicode="&#x1029;" horiz-adv-x="278" 
d="M2098 1146v-136h-197v136q0 86 -53 144t-136 58h-1313q-83 0 -141.5 -58t-58.5 -141v-1598h1702v414h197v-551l-58 -50h-2000l-43 50l-2 1737q0 165 116 276t280 111h1323q170 0 277 -111t107 -281zM323 0l-50 51v181h196v-43h599v223q0 88 -48 143.5t-136 55.5h-228
q-83 0 -141 -58t-58 -141l-174 146q32 114 141 179q101 63 225 63h237q172 0 278 -108.5t106 -279.5v-223h616v223q0 83 -53 141t-136 58h-134v189h136q169 0 279 -109.5t110 -278.5v-364l-48 -45h-816l-50 45l-48 -45z" />
    <glyph glyph-name="uni102A" unicode="&#x102a;" horiz-adv-x="4203" 
d="M821 187h-111v66h111v-66zM965 0l58 51v237q0 76 -81 98l-20 3h-308q-28 0 -74 -25q-20 -23 -27 -76v-101h-303v222q0 86 56.5 143t142.5 57h227q84 0 142 -58.5t58 -141.5l174 147q-33 113 -144 181q-103 61 -227 61h-238q-164 0 -278.5 -111t-114.5 -273v-363
q21 -26 43 -51h914zM3188 1146v-136h-197v136q0 86 -53 144t-136 58h-1313q-83 0 -141.5 -58t-58.5 -141v-1598h1702v414h197v-551l-58 -50h-2000l-43 50l-2 1737q0 165 116 276t280 111h1323q170 0 277 -111t107 -281zM1413 0l-50 51v181h196v-43h599v223q0 88 -48 143.5
t-136 55.5h-228q-83 0 -141 -58t-58 -141l-174 146q32 114 141 179q101 63 225 63h237q172 0 278 -108.5t106 -279.5v-223h616v223q0 83 -53 141t-136 58h-134v189h136q169 0 279 -109.5t110 -278.5v-364l-48 -45h-816l-50 45l-48 -45zM3037 551q33 111 124 176.5t207 65.5
h247q170 0 279.5 -110t109.5 -279v-358l-50 -51h-263v187h111v222q0 83 -53 141.5t-136 58.5h-232q-84 0 -142 -58.5t-58 -141.5zM3413 692q-155 137 -177 335q-20 506 725 556q178 15 395 -2l214 -24l472 -70l-714 -17l-157 -8q-688 -62 -747 -360q-47 -167 272 -394v-13z
" />
    <glyph glyph-name="uni102B" unicode="&#x102b;" horiz-adv-x="283" 
d="M215 3h-202v1348h-238v-283h-197v205q0 123 74.5 194t198.5 71h126q109 0 173.5 -83.5t64.5 -194.5v-1257z" />
    <glyph glyph-name="uni102C" unicode="&#x102c;" horiz-adv-x="957" 
d="M-86 556q33 111 124 176.5t207 65.5h247q170 0 279.5 -110t109.5 -279v-358l-50 -51h-263v187h111v222q0 83 -53 141.5t-136 58.5h-232q-84 0 -142 -58.5t-58 -141.5z" />
    <glyph glyph-name="uni102D" unicode="&#x102d;" 
d="M-151 896l-51 -50h-763l-50 50v268q0 169 110 281.5t279 112.5h86q169 0 279 -110t110 -279v-273zM-348 1169q0 83 -56 141t-139 58h-76q-85 0 -144.5 -58t-59.5 -144v-136h475v139z" />
    <glyph glyph-name="uni102E" unicode="&#x102e;" 
d="M-134 886l-50 -50h-763l-50 50v268q0 169 109.5 281.5t278.5 112.5h86q170 0 279.5 -110t109.5 -279v-273zM-598 1020h48v78h-48v-78zM-331 1159q-7 86 -59 142.5t-135 56.5h-76q-86 0 -145 -58t-59 -144v-136h63v86q0 50 37.5 88t88.5 38h88q53 0 88.5 -36.5t35.5 -89.5
v-86h73v139z" />
    <glyph glyph-name="uni102F" unicode="&#x102f;" 
d="M-588 -17h206l-2 -296h-1l-1 -55q0 -45 28.5 -105.5t57.5 -83.5q112 -90 289 -90q139 0 267 57q145 63 241 184q-99 -187 -296 -289q-172 -89 -351 -89q-224 0 -336 117q-62 76 -82 145t-22 168q-2 25 1 48h1v289z" />
    <glyph glyph-name="uni1030" unicode="&#x1030;" 
d="M-600 -717h-190v700h190v-700zM-528 -17h206l-2 -296h-1l-1 -55q0 -45 28.5 -105.5t57.5 -83.5q112 -90 289 -90q139 0 267 57q145 63 241 184q-99 -187 -296 -289q-172 -89 -351 -89q-224 0 -336 117q-62 76 -82 145t-22 168q-2 25 1 48h1v289z" />
    <glyph glyph-name="uni1031" unicode="&#x1031;" horiz-adv-x="1129" 
d="M821 187h-111v66h111v-66zM639 798h-238q-164 0 -278.5 -111t-114.5 -273v-363l43 -51h914l58 51v237q0 76 -81 98q-5 0 -20 3h-308q-28 0 -74 -25q-20 -23 -27 -76v-101h-303v222q0 86 56.5 143t142.5 57h227q84 0 142 -58.5t58 -141.5l174 147q-33 113 -144 181
q-103 61 -227 61z" />
    <glyph glyph-name="uni1032" unicode="&#x1032;" horiz-adv-x="31" 
d="M-685 1513q242 -106 363 -196q215 -159 398 -538q-254 294 -377 383q-165 121 -446 206q44 89 44 110q0 1 18 35z" />
    <glyph glyph-name="uni1033" unicode="&#x1033;" horiz-adv-x="7" 
d="M-677 1391q0 27 9.5 51t28 42t42 28.5t51.5 10.5q27 0 50.5 -10.5t41 -28.5t28.5 -42t11 -51t-11 -50.5t-28.5 -42t-41.5 -28.5t-50 -10q-28 0 -51.5 10t-42 28.5t-28 42t-9.5 50.5zM-632 1391q0 -18 6.5 -33t18 -27.5t27.5 -19.5t34 -7t33 7t27.5 19.5t19 27.5t6.5 33
t-6.5 33.5t-19 27.5t-27.5 19t-33 7t-34 -7t-27.5 -19t-18 -27.5t-6.5 -33.5zM-552 900h-5q-199 0 -341 143.5t-142 350.5t142 353t346 146q205 0 347.5 -148t142.5 -351q0 -202 -143.5 -348t-346.5 -146zM-551 1043q147 0 249 105t102 251q0 145 -103.5 251.5t-247.5 106.5
q-152 0 -250.5 -102.5t-98.5 -255.5q0 -146 102 -251t247 -105z" />
    <glyph glyph-name="uni1034" unicode="&#x1034;" 
d="M-346 1478q0 -21 45 -110q-282 -85 -447 -206q-122 -89 -377 -383q183 379 398 538q121 90 363 196q18 -34 18 -35z" />
    <glyph glyph-name="uni1035" unicode="&#x1035;" 
d="M-408 1034h94v58h-94v-58zM-603 1410h-61q-71 0 -120.5 -50.5t-49.5 -128.5v-197h259v90q5 17 5 26q10 37 24 46t57 17h261q12 -3 30 -6q56 -8 56 -83v-212l-48 -46h-781l-35 46v324q0 151 100 248t234 97h165v-4h23q168 0 328 -102q185 -116 278 -329q-90 138 -326 232
q-86 39 -253 31l-146 -2v3z" />
    <glyph glyph-name="uni1036" unicode="&#x1036;" 
d="M-412 1237h-151v-78h151v78zM-250 1061l-50 -51h-369l-51 51v191q0 56 39.5 95t94.5 39h202q53 0 93.5 -39t40.5 -92v-194z" />
    <glyph glyph-name="uni1037" unicode="&#x1037;" 
d="M-30 -202h-152v-78h152v78zM131 -379l-50 -50h-369l-50 50v192q0 56 39 95t94 39h202q54 0 94 -39t40 -92v-195z" />
    <glyph glyph-name="uni1038" unicode="&#x1038;" horiz-adv-x="563" 
d="M313 636h-151v-78h151v78zM475 460l-51 -51h-368l-51 51v191q0 56 39 95t95 39h202q53 0 93.5 -39t40.5 -92v-194zM313 227h-151v-78h151v78zM475 51l-51 -51h-368l-51 51v191q0 56 39 95t95 39h202q53 0 93.5 -39t40.5 -92v-194z" />
    <glyph glyph-name="uni1039" unicode="&#x1039;" horiz-adv-x="8" 
d="M-427 -610h-125q-12 6 -12 19l2 7v161h-210l2 136h208v225l136 -4v-221h201l-1 -136h-200v-163z" />
    <glyph glyph-name="uni103A" unicode="&#x103a;" 
d="M-418 836h-583l-39 52v326q0 155 102.5 254.5t239.5 99.5h174v-4h13q170 0 332 -103q187 -118 328 -442q-153 235 -385 327q-84 38 -248 31l-155 -3v3h-51q-67 0 -113 -47t-46 -121v-186h303z" />
    <glyph glyph-name="uni103B" unicode="&#x103b;" horiz-adv-x="255" 
d="M194 -731l-50 -50h-434l-51 50v510h197v-373h136v1382h202v-1519z" />
    <glyph glyph-name="uni103C" unicode="&#x103c;" horiz-adv-x="278" 
d="M1290 1146v-136h-197v136q0 86 -53 144t-136 58h-503q-83 0 -141 -58t-58 -141v-1598h891v414h197v-551l-58 -50h-1189l-43 50l-3 1737q0 165 116.5 276t280.5 111h512q170 0 277 -111t107 -281z" />
    <glyph glyph-name="uni103D" unicode="&#x103d;" 
d="M-159 -608l-51 -51h-762l-51 51v192q0 169 110 281t279 112h86q169 0 279 -109.5t110 -278.5v-197zM-356 -411q0 83 -55.5 141t-138.5 58h-76q-86 0 -145.5 -58t-59.5 -144v-60h475v63z" />
    <glyph glyph-name="uni103E" unicode="&#x103e;" 
d="M-426 -17v-289h1q3 -23 1 -48q-2 -99 -22 -168t-82 -145q-112 -117 -336 -117q-179 0 -351 89q-197 102 -296 289q96 -121 241 -184q128 -57 267 -57q177 0 289 90q29 23 57.5 83.5t28.5 105.5l-1 55h-1l-2 296h206z" />
    <glyph glyph-name="uni103F" unicode="&#x103f;" horiz-adv-x="2838" 
d="M2454 189v223q0 83 -53 141t-136 58h-134v189h136q170 0 279.5 -109.5t109.5 -278.5v-364l-48 -45h-790l-50 45l-48 -45h-791l-50 45l-48 -45l-778 -3l-50 51v181h196v-43h574v223q0 88 -48 143.5t-137 55.5h-202q-83 0 -141 -58t-58 -141l-174 146q32 114 141 179
q101 63 225 63h212q172 0 278 -108.5t106 -279.5v-223h591v223q0 83 -53.5 141t-136.5 58h-134v189h137q169 0 279 -109.5t110 -278.5v-223h686z" />
    <glyph glyph-name="uni1040" unicode="&#x1040;" horiz-adv-x="1129" 
d="M1018 76l-51 -76h-914l-50 51v356q0 164 112 275t276 111h238q169 0 279 -110t110 -279v-328zM816 187v217q0 83 -53 141t-137 58h-227q-83 0 -141.5 -58t-58.5 -141v-217h617z" />
    <glyph glyph-name="uni1041" unicode="&#x1041;" horiz-adv-x="1129" 
d="M8 556q32 113 141 179q101 63 225 63h237q169 0 279 -110t110 -279v-348l-48 -61h-901l-51 53v179h197v-45h601v222q0 83 -53 141.5t-136 58.5h-228q-83 0 -141 -58.5t-58 -141.5z" />
    <glyph glyph-name="uni1042" unicode="&#x1042;" horiz-adv-x="1013" 
d="M917 874v-1465l-51 -50h-813l-50 50v232h196v-95h516v1328h202z" />
    <glyph glyph-name="uni1043" unicode="&#x1043;" horiz-adv-x="1129" 
d="M10 550q33 114 142 180q101 63 224 63h238q169 0 278.5 -110t109.5 -279v-348l-48 -61h-628l598 -520l-124 -121l-797 694v179h196v-45h601v222q0 83 -53 141t-136 58h-227q-84 0 -142 -58t-58 -141z" />
    <glyph glyph-name="uni1044" unicode="&#x1044;" horiz-adv-x="1129" 
d="M1000 48l-51 -53l-747 -641l-124 121l599 520h-629l-48 61v348q0 172 108.5 280.5t280.5 108.5h237q126 0 225 -61q109 -65 141 -182l-174 -146q0 86 -57 142.5t-142 56.5h-228q-83 0 -136 -58t-53 -141v-222h601v45h197v-179z" />
    <glyph glyph-name="uni1045" unicode="&#x1045;" horiz-adv-x="1129" 
d="M336 273h-137v-91h137v91zM540 275v-230l-53 -50h-434l-50 50v362q0 164 112 275t276 111h238q169 0 279 -110t110 -279v-990l-51 -50h-914l-50 50v233h196v-96h617v853q0 83 -53 141t-137 58h-227q-83 0 -141.5 -58t-58.5 -141h195q86 0 124 -63q12 -20 22 -66z" />
    <glyph glyph-name="uni1046" unicode="&#x1046;" horiz-adv-x="1129" 
d="M654 722l-93 53l-51 -86l88 -55zM816 1252q-18 66 -36 99q-55 101 -154 101h-227q-83 0 -141.5 -58t-58.5 -142v-1063h619v144l-482 298l136 235q8 8 18 15q33 31 73 31t53 -8l152 -88q48 -41 53 -66t-13 -66q-3 -5 -10 -17l-35 -56l250 -172v-386l-51 -50h-919l-46 53
l-2 1201q0 162 117.5 273t278.5 111h238q136 0 232 -55q109 -66 134 -192z" />
    <glyph glyph-name="uni1047" unicode="&#x1047;" horiz-adv-x="1129" 
d="M1018 -444h116v-187h-258l-60 55v985q0 83 -53 141.5t-137 58.5h-227q-83 0 -141.5 -58.5t-58.5 -141.5v-227h119v-182h-265l-50 51v361q0 164 112 275t276 111h238q169 0 279 -110t110 -279v-853z" />
    <glyph glyph-name="uni1048" unicode="&#x1048;" horiz-adv-x="1129" 
d="M336 265h-137v-116h137v116zM455 409q53 0 73 -58q5 -13 10 -58v-242l-51 -51h-434l-50 51v361q0 164 112 275t276 111h238q169 0 279 -110t110 -279v-358l-51 -51h-245v187h94v222q0 83 -53 141.5t-137 58.5h-227q-83 0 -141.5 -58.5t-58.5 -141.5h256z" />
    <glyph glyph-name="uni1049" unicode="&#x1049;" horiz-adv-x="1129" 
d="M1020 404q0 -18 -20 -30l-124 -101q-12 -13 -12 -26q0 -15 16 -39t16 -39q0 -33 -32 -65l-157 -119q-30 -23 -66 -23q-50 0 -85 58l-94 154q-18 31 -18 61q0 38 23 71q3 5 13 15l288 222q-43 60 -139 60h-228q-83 0 -141 -58t-58 -141v-853h616v96h197v-233l-58 -50h-914
l-43 50v998q0 164 115 272.5t279 108.5h237q169 0 279 -110t110 -279zM722 197q8 5 8 13q0 15 -33 53q-18 20 -58 -16q-30 -27 -30 -50q0 -18 20 -38q2 -2 10 -5q15 -23 60 20z" />
    <glyph glyph-name="uni104A" unicode="&#x104a;" horiz-adv-x="350" 
d="M64 783h206v-50l1 -1v-727l-203 -1z" />
    <glyph glyph-name="uni104B" unicode="&#x104b;" horiz-adv-x="614" 
d="M44 783h206v-50l1 -1v-727l-203 -1zM334 783h206v-50l1 -1v-727l-203 -1z" />
    <glyph glyph-name="uni104C" unicode="&#x104c;" horiz-adv-x="1129" 
d="M1000 78l-51 -53h-901l-48 61v323q0 172 108.5 280.5t280.5 108.5h237q126 0 225 -61q109 -65 141 -181l-174 -147q0 86 -57 143t-142 57h-228q-83 0 -136 -58.5t-53 -141.5v-197h601v46h197v-180zM0 -187q0 164 121 187q28 5 58 5h836v-187h-813v-272h616v70h197v-207
l-58 -50h-914l-43 50v404zM24 1185q1 44 9 85h6q0 2 1 4q18 71 77 150q104 122 315 122q168 0 328 -93q185 -106 278 -300q-90 126 -226 191q-121 59 -250 59q-166 0 -271 -94q-26 -23 -53 -86q-9 -20 -15 -39v-140h117v-184h-266l-50 50v236h-3q1 20 3 39z" />
    <glyph glyph-name="uni104D" unicode="&#x104d;" horiz-adv-x="1353" 
d="M336 273h-137v-91h137v91zM816 -348v752q0 83 -53 141t-137 58h-227q-83 0 -141.5 -58t-58.5 -141h205q78 0 114 -48q10 -13 20 -50v-266l-48 -45h-437l-50 48v364q0 164 112 275t276 111h238q169 0 279 -110t110 -279v-752h-202zM306 848l-51 51v245q0 169 110 281.5
t279 112.5h212q240 0 348 -220l-156 -169q-5 20 -13 50q-35 99 -111 134q-38 15 -71 15h-202q-88 0 -142 -58t-54 -146v-111l247 2q61 0 129 -17q141 -38 259.5 -144t161.5 -243q13 -38 21 -111l-3 -1106l-58 -50h-1159l-50 50v233h196v-96h874l3 974q-13 31 -33 78
q-89 182 -255 228q-18 5 -91 17h-391z" />
    <glyph glyph-name="uni104E" unicode="&#x104e;" horiz-adv-x="1108" 
d="M801 -444h4v444h-752l-48 45l-2 369q0 169 106 279t277 110h238q126 0 224 -61q109 -65 142 -181l-174 -147q0 86 -57 143t-143 57h-227q-184 0 -184 -200v-222h600v45h197v-820l-42 -48h-157z" />
    <glyph glyph-name="uni104F" unicode="&#x104f;" horiz-adv-x="1624" 
d="M788 187v63h-111v-63h111zM788 545v64h-111v-64h111zM823 742q71 43 149 43q106 0 189.5 -84.5t83.5 -190.5v-510h-197v505q0 35 -33 40q-28 5 -38 -25v-45l-50 -43h-399l-48 45v132h-79q-83 0 -141 -58.5t-58 -141.5v-222h278v96q0 81 73 98q10 0 28 3h308
q83 -13 98 -84q0 -5 3 -17v-232l-58 -51h-889l-43 51v363q0 164 115 274t279 110h212q126 0 217 -56zM1510 0v520q0 205 -158 359t-362 154h-298v111q0 86 55.5 145t141.5 59h202q136 0 182 -149q2 -12 12 -50l157 169q-106 220 -349 220h-212q-166 0 -277.5 -114
t-111.5 -280v-245l51 -51h432q139 0 237 -98.5t98 -236.5v-513h200z" />
    <glyph glyph-name="uni1050" unicode="&#x1050;" horiz-adv-x="1039" 
d="M652.5 492q38.5 -39 38.5 -93q0 -55 -38.5 -93t-91.5 -38q-54 0 -92.5 38t-38.5 93q0 54 38.5 93t92.5 39q53 0 91.5 -39zM561 468q-30 0 -50.5 -20t-20.5 -50q0 -28 20.5 -47.5t50.5 -19.5q27 0 47.5 19.5t20.5 47.5q0 30 -20.5 50t-47.5 20zM875.5 725.5
q124.5 -139.5 124.5 -298.5q0 -108 -36.5 -199t-110.5 -182l-64 -43h-47q-45 19 -45 56q0 20 15 42l69 66l40 58q48 88 48 202q0 124 -96.5 216t-218.5 92q-102 0 -176 -48q-148 -94 -148 -265q0 -79 22 -144t57 -100l65 -68l22 -44l-15 -43q-32 -23 -54 -23l-38 10l-85 88
q-105 121 -105 324q0 139 76 245q140 198 379 198q197 0 321.5 -139.5z" />
    <glyph glyph-name="uni1051" unicode="&#x1051;" horiz-adv-x="1039" 
d="M561 334q-54 0 -92.5 39t-38.5 93q0 55 38.5 93t92.5 38q53 0 91.5 -38t38.5 -93q0 -54 -38.5 -93t-91.5 -39zM629 467q0 28 -20.5 47.5t-47.5 19.5q-30 0 -50.5 -19.5t-20.5 -47.5q0 -30 20.5 -50t50.5 -20q27 0 47.5 20t20.5 50zM554 0q-239 0 -379 198
q-76 107 -76 245q0 203 105 324l85 88l38 10q22 0 54 -23l15 -43l-22 -44l-65 -68q-35 -35 -57 -100t-22 -144q0 -171 148 -265q74 -48 176 -48q122 0 218.5 92t96.5 216q0 114 -48 202l-40 58l-69 66q-15 22 -15 42q0 37 45 56h47l64 -43q74 -91 110.5 -182t36.5 -199
q0 -159 -124.5 -298.5t-321.5 -139.5z" />
    <glyph glyph-name="uni1052" unicode="&#x1052;" horiz-adv-x="1144" 
d="M584 -6q-201 0 -342.5 143.5t-141.5 340.5q0 139 64 254q55 99 141 164q44 34 69 34q30 0 50.5 -22.5t20.5 -50.5q0 -35 -33 -61q-166 -103 -166 -318q0 -138 97.5 -238t240.5 -100q98 0 195 64q91 68 114 154l-1 12q0 8 1.5 14.5t1.5 9.5q0 9 -11 35q-14 31 -30 40
q-20 11 -85.5 39.5t-106 82.5t-44.5 124v4q0 80 62.5 143t146.5 63q48 0 88 -17q119 -49 119 -156q0 -73 -71 -73q-72 0 -72 73q0 13 -15.5 24t-40.5 11q-23 0 -49 -22t-26 -44q7 -59 125 -110q80 -31 112 -78q37 -56 37 -123q0 -24 -5 -51l-1 -31q-35 -132 -165.5 -233
t-278.5 -101z" />
    <glyph glyph-name="uni1053" unicode="&#x1053;" horiz-adv-x="1143" 
d="M594 -6l-26 1l-27 -1q-146 0 -278 98.5t-167 235.5q0 20 -2 31q-3 25 -3 48q0 43 17 87.5t40 59.5q28 33 92 57q118 51 125 110q0 19 -24.5 42.5t-51.5 23.5q-21 0 -38 -10.5t-17 -24.5q0 -73 -72 -73q-71 0 -71 73q0 80 65 126.5t141 46.5q81 0 145.5 -61.5t64.5 -144.5
v-4q-4 -66 -43.5 -121t-105.5 -85q-81 -35 -92.5 -44t-23.5 -33t-12 -38q0 -3 1.5 -9.5t1.5 -14.5l-1 -12q23 -86 114 -154q97 -64 195 -64h5v3l22 -2l20 2v-3h6q98 0 196 64q89 68 114 154l-1 12q0 8 1 14.5t1 9.5q0 8 -11 34q-14 32 -28 40q-22 12 -87 40.5t-106.5 83.5
t-44.5 123v4q0 80 62.5 143t146.5 63q82 0 147 -50q61 -47 61 -123q0 -73 -71 -73q-72 0 -72 73q0 13 -16 24t-40 11q-23 0 -49.5 -22t-26.5 -44q7 -59 126 -110q47 -18 75 -42q74 -61 74 -161q0 -23 -5 -49q-2 -11 -2 -31q-33 -130 -162.5 -232t-281.5 -102z" />
    <glyph glyph-name="uni1054" unicode="&#x1054;" horiz-adv-x="1006" 
d="M898 526q-108 -89 -244 -89q-115 0 -231 72q-114 69 -152 143q-29 -30 -50 -78.5t-21 -116.5q0 -139 95 -232q96 -97 218 -97q94 0 167 45q76 44 117 129l21 20q31 20 65 9q35 -23 35 -55l-9 -34q-60 -117 -165 -177q-102 -65 -231 -65q-185 0 -314 137
q-127 134 -127 320q0 187 135 314q137 125 320 125q134 0 241 -72.5t163 -195.5q-6 -19 -6 -50q-12 -37 -27 -52zM355 724q35 -75 117.5 -127.5t173.5 -52.5l46 5l44 13q45 19 66 40q-29 65 -106.5 116.5t-168.5 51.5q-106 0 -172 -46z" />
    <glyph glyph-name="uni1055" unicode="&#x1055;" horiz-adv-x="1498" 
d="M355 724q35 -75 117.5 -127.5t173.5 -52.5l46 5l44 13q45 19 66 40q-29 65 -106.5 116.5t-168.5 51.5q-106 0 -172 -46zM918 277q19 -28 43 -52q96 -97 218 -97q95 0 167 45q77 44 117 129l22 20q30 20 64 9q36 -23 36 -55l-9 -34q-61 -117 -166 -177q-101 -65 -231 -65
q-185 0 -313 137q-8 8 -15 17q-46 -55 -107 -89q-102 -65 -231 -65q-185 0 -314 137q-127 134 -127 320q0 187 135 314q137 125 320 125q134 0 241 -72.5t163 -195.5q-6 -19 -6 -50q-12 -37 -27 -52q-108 -89 -244 -89q-115 0 -231 72q-114 69 -152 143q-29 -30 -50 -78.5
t-21 -116.5q0 -139 95 -232q96 -97 218 -97q94 0 167 45q76 44 117 129l21 20q31 20 65 9q34 -23 35 -54z" />
    <glyph glyph-name="uni1056" unicode="&#x1056;" horiz-adv-x="790" 
d="M-17 256l6 6q10 -11 22 -22q97 -100 239 -100q99 0 196 64q90 68 114 154q-2 16 0.5 27.5t-0.5 19.5q-15 38 -26 52.5t-37 23.5q-38 18 -62.5 28.5t-40.5 20.5q-104 75 -110 185q-2 81 62 146q65 64 148 64q40 0 76.5 -13t67 -35.5t47 -55t16.5 -69.5q0 -73 -71 -73
q-72 0 -72 73q0 20 -32 31q-29 8 -52 -2q-47 -31 -47 -60q6 -59 125 -110q62 -24 91 -57q25 -16 46 -78q19 -49 7 -117q-2 -11 -2 -18.5v-12.5q-34 -132 -165 -235q-131 -99 -279 -99q-201 0 -343 143q-7 9 -15 17l2 2l-10 -6q-6 9 -12 17q-10 25 -10 37q0 31 22.5 51.5
t49.5 20.5t49 -20z" />
    <glyph glyph-name="uni1057" unicode="&#x1057;" horiz-adv-x="1843" 
d="M249 377h2q24 -76 84 -137q97 -100 240 -100q98 0 195 64q51 38 81 81q-1 2 -2 3h3q4 6 7 10h16q5 11 14 19q21 23 53 23q31 0 52 -23q9 -8 15 -19h2q0 -1 -1 -2h1v0q18 -27 43 -52q97 -98 239 -98q98 0 195 63q90 69 114 154q-1 16 1.5 27.5t-1.5 19.5q-14 38 -25 53
t-37 24q-38 16 -63 27t-40 21q-104 75 -110 185q-2 80 62 146q65 65 148 65q40 0 76.5 -13t67 -35.5t46.5 -55.5t16 -70q0 -73 -70 -73q-72 0 -72 73q0 20 -32 32q-29 8 -52 -3q-48 -31 -48 -60q7 -59 125 -111q63 -23 92 -55q25 -17 46 -79q19 -49 7 -116q-2 -13 -2 -19.5
v-12.5q-34 -132 -165 -234q-131 -100 -279 -100q-201 0 -343 143q-10 12 -20 23q-33 -37 -77 -72q-130 -99 -278 -99q-201 0 -342 143q-104 105 -132 238h4q1 23 22 40q20 17 50 17t51 -17q19 -16 21 -38z" />
    <glyph glyph-name="uni1058" unicode="&#x1058;" horiz-adv-x="2" 
d="M-290 -215q-39 47 -86 69q-48 27 -117 27q-96 0 -156 -53q30 -35 97 -64q17 -8 33.5 -13.5t32.5 -10.5l68 -6l48 4l37 12q35 22 43 35zM-172 -231q-33 -80 -101 -111t-146 -31q-92 0 -178.5 38.5t-121.5 80.5q-10 -16 -22.5 -53t-12.5 -77q0 -108 76 -184q73 -72 188 -72
q69 0 124 28q65 44 92 92l22 21q38 16 62 3q36 -20 36 -59l-9 -32q-56 -86 -139 -135t-188 -49q-168 0 -281 116q-113 117 -113 271q0 168 113 281q116 115 278 115q204 0 323 -174l3 -36z" />
    <glyph glyph-name="uni1059" unicode="&#x1059;" horiz-adv-x="103" 
d="M-378 -215q-39 47 -85 69q-48 27 -117 27q-97 0 -156 -53q29 -35 96 -64q18 -8 34 -13.5t32 -10.5l69 -6l47 4l37 12q35 22 43 35zM-310 -660q-37 -36 -80 -62q-82 -49 -188 -49q-168 0 -281 116q-113 117 -113 271q0 168 113 281q116 115 279 115q203 0 322 -174l4 -36
l-6 -33q-33 -80 -100.5 -111t-146.5 -31q-92 0 -178.5 38.5t-121.5 80.5q-10 -16 -22 -53t-12 -77q0 -108 76 -184q72 -72 187 -72q70 0 124 28q65 44 93 92l21 21q38 16 62 3q33 -18 36 -49q9 -12 20 -23q73 -72 188 -72q69 0 125 28q64 44 91 92l22 21q38 16 63 3
q36 -20 36 -59l-9 -32q-57 -86 -140 -135t-188 -49q-165 0 -276 111z" />
    <glyph glyph-name="uni105A" unicode="&#x105a;" horiz-adv-x="1081" 
d="M528 0q-186 0 -320.5 126.5t-134.5 313.5q0 183 126 320.5t315 137.5q126 0 231 -63t165 -179l9 -34q0 -24 -18.5 -41.5t-41.5 -17.5q-21 0 -40 12l-21 21q-39 80 -113.5 127t-170.5 47q-122 0 -217.5 -96t-95.5 -234q0 -122 95.5 -217t231.5 -95q191 0 284 190l10 10
q23 23 47 23q57 0 62 -63v-22q-55 -120 -162 -193t-241 -73zM683 -612l-2 1q1 -1 2 -1zM684 -613v1v-1zM714 -756q-9 0 -17 5q-98 22 -130.5 62t-32.5 112q0 69 41 146l12 21l-4 -1l62 99q13 25 13 34q0 35 -31 57.5t-79 22.5q-46 0 -73.5 -23.5t-27.5 -56.5l5 -14l5 -25
q4 -8 4 -17q0 -7 -2 -14v-13l-9 -1l-10 -9q-20 -15 -49 -15q-26 0 -45 11h-12q-27 60 -27 97q0 79 70 142t169 63q101 0 180 -59q71 -57 71 -146q0 -40 -36 -112l-56 -91q-38 -57 -38 -97q0 -18 8 -27t14 -9t34 -26q11 -3 19 -15l3 -3l-1 -1q9 -16 9 -38q0 -25 -11.5 -42
t-27.5 -17z" />
    <glyph glyph-name="uni105B" unicode="&#x105b;" horiz-adv-x="1496" 
d="M650 749q6 3 11 5l-12 -4q1 0 1 -1zM1387 859v-1282q0 -234 -166 -403t-401 -169h-7q-231 9 -391 170.5t-160 401.5t160 400t353 160l4 -120q-144 0 -264.5 -125.5t-120.5 -314.5q0 -180 125.5 -309t304.5 -138q179 9 304.5 138t125.5 309q0 12 -1 1299h2q2 13 20 23
q19 11 48 11t49 -22.5t15 -28.5zM749 446l34 6q68 22 68 94l-7 34q-22 68 -95 68l-33 -7q-67 -22 -67 -95l7 -34q21 -66 93 -66zM660 746q-13 4 -31 9q-26 8 -50 12.5t-41 4.5q-129 0 -223 -97.5t-94 -228.5q0 -132 91.5 -224t232.5 -92q75 0 125.5 25.5t102.5 77.5
q31 27 69 27q44 0 56 -47q0 -65 -113.5 -137.5t-239.5 -72.5q-185 0 -318.5 124.5t-133.5 318.5q0 185 126.5 319.5t318.5 134.5q122 0 232.5 -67t163.5 -164l33 6q79 0 139.5 -57.5t60.5 -154.5l-8 -34q-10 -29 -50 -34q-28 0 -55 24l-16 44q0 32 -20 55q-19 20 -40 26
l1 -10q0 -44 -38.5 -106t-120.5 -88l-41 -13h-32q-61 0 -119 38t-82 97l-16 55v32q0 62 39 119q35 50 91 78z" />
    <glyph glyph-name="uni105C" unicode="&#x105c;" horiz-adv-x="1108" 
d="M867 134q-126 -131 -313 -131q-186 0 -320 126q-132 127 -132 317q0 185 126.5 319.5t318.5 134.5q189 0 317 -129q133 -127 133 -316q0 -191 -130 -321zM775 678q-95 94 -228 94q-129 0 -223 -98q-94 -97 -94 -228q0 -132 91.5 -224t232.5 -92q131 0 223 92t92 233
q0 131 -94 223zM549 313q-55 0 -94.5 40.5t-39.5 95.5q0 57 39.5 96.5t94.5 39.5q56 0 95.5 -39.5t39.5 -96.5q0 -55 -39.5 -95.5t-95.5 -40.5zM620 450q0 30 -21 50t-50 20q-31 0 -51.5 -20t-20.5 -50t20.5 -50.5t51.5 -20.5q29 0 50 20.5t21 50.5z" />
    <glyph glyph-name="uni105D" unicode="&#x105d;" horiz-adv-x="1129" 
d="M434 187h139v113h-139v-113zM735 187h81v222q0 88 -43 139q-28 28 -79 58q-20 13 -45 23l106 151q263 -121 263 -376v-353l-51 -51h-914l-50 51v361q0 272 265 373l106 -151q-18 -8 -43 -23q-91 -50 -116 -126q-16 -41 -16 -76v-222h76v103q0 66 47 112.5t112 46.5h142
q68 0 113.5 -45t45.5 -114v-103zM614 -17v-289h1q3 -23 1 -48q-2 -99 -22 -168t-82 -145q-112 -117 -336 -117q-179 0 -351 89q-197 102 -296 289q96 -121 241 -184q128 -57 267 -57q177 0 289 90q29 23 57.5 83.5t28.5 105.5l-1 55h-1l-2 296h206z" />
    <glyph glyph-name="uni105E" unicode="&#x105e;" 
d="M-322 -11v-82q42 6 106 17l114 -108l-214 -42q0 -101 -3 -173.5t-9 -118t-13.5 -72.5t-17.5 -40q-48 -72 -113 -96.5t-138 -22.5q-68 -2 -124 13.5t-98 50t-69.5 91t-38.5 137.5q-8 94 70 192q52 53 160 88.5t240 60.5v105h148zM-468 -262h-2q-57 -16 -92.5 -23
t-57 -12.5t-33 -9t-20.5 -6.5q-58 -21 -94.5 -51t-32.5 -79q16 -97 64 -137t123 -42q126 0 145 176v184z" />
    <glyph glyph-name="uni105F" unicode="&#x105f;" 
d="M-382 -312q-36 17 -79.5 25.5t-86.5 8.5q-116 0 -188 -44t-72 -109q0 -34 18.5 -62.5t53 -51t79 -31.5t100.5 -9q68 0 125.5 19.5t95.5 51.5l115 -90q-9 -9 -20.5 -18.5t-25.5 -18.5q-60 -43 -130.5 -64.5t-150.5 -21.5q-84 0 -156.5 21.5t-129.5 62.5q-58 41 -89.5 94
t-31.5 116q0 58 31.5 111t89.5 96q57 36 134.5 59t155.5 23q30 0 53 -3.5t42 -5.5l2 131h144v-245z" />
    <glyph glyph-name="uni1060" unicode="&#x1060;" 
d="M-219 -737h-848l523 697h160l-412 -575h577v-122z" />
    <glyph glyph-name="uni1061" unicode="&#x1061;" horiz-adv-x="1129" 
d="M336 273h-137v-91h137v91zM1018 -224h-1l-1 -89h-1l-1 -55q0 -45 28.5 -105.5t57.5 -83.5q112 -90 289 -90q139 0 267 57q145 63 241 184q-99 -187 -296 -289q-172 -89 -351 -89q-224 0 -336 117q-62 76 -82 145t-22 168q-2 25 1 48h1l4 710q0 83 -53 141t-137 58h-227
q-83 0 -141.5 -58t-58.5 -141h205q78 0 114 -48q10 -13 20 -50v-266l-48 -45h-437l-50 48v364q0 164 112 275t276 111h238q169 0 279 -110t110 -279v-628zM517 -27v-289h1q3 -23 1 -48q-2 -99 -22 -168t-82 -145q-112 -117 -336 -117q-179 0 -351 89q-197 102 -296 289
q96 -121 241 -184q128 -57 267 -57q177 0 289 90q29 23 57.5 83.5t28.5 105.5l-1 55h-1l-2 296h206z" />
    <glyph glyph-name="uni1062" unicode="&#x1062;" horiz-adv-x="422" 
d="M118 4v592h-110v187h312v-50l1 -1v-727z" />
    <glyph glyph-name="uni1063" unicode="&#x1063;" horiz-adv-x="1108" 
d="M801 -444h4v444h-752l-48 45l-2 369q0 169 106 279t277 110h238q126 0 224 -61q109 -65 142 -181l-174 -147q0 86 -57 143t-143 57h-227q-184 0 -184 -200v-222h600v45h197v-820l-42 -48h-157z" />
    <glyph glyph-name="uni1064" unicode="&#x1064;" horiz-adv-x="463" 
d="M160 5v783h-184v133h320v-784h151v-132h-287z" />
    <glyph glyph-name="uni1065" unicode="&#x1065;" horiz-adv-x="1006" 
d="M796 134q-138 -131 -321 -131q-134 0 -240 67t-163 199v30q0 29 49 53l48 -9l23 -23q32 -80 113 -140q76 -50 170 -50q140 0 233 92t93 221q0 132 -91 231q-90 98 -220 98q-86 0 -159.5 -44t-126.5 -131l-17 -18q-33 -21 -68 -9.5t-35 55.5l4 31l7 9q56 107 161.5 171
t233.5 64q179 0 309 -137q131 -139 131 -320q0 -180 -134 -309z" />
    <glyph glyph-name="uni1066" unicode="&#x1066;" horiz-adv-x="1114" 
d="M872 137q-124 -137 -318 -137q-239 0 -379 198q-76 107 -76 245q0 203 105 324l85 88l38 10q22 0 54 -23l15 -43l-22 -44l-65 -68q-35 -35 -57 -100t-22 -144q0 -171 148 -265q74 -48 176 -48q122 0 218.5 92t96.5 216q0 114 -48 202l-40 58l-69 66q-15 22 -15 42
q0 37 45 56h47l64 -43q74 -91 111 -182q29 -75 35 -162h2v-1076q0 -175 -85 -282.5t-240 -107.5h-169v6h-86q-123 0 -216.5 86t-104.5 214l-3 27q37 327 331 332q-205 -112 -205 -296q0 -18 2 -35v-27q0 -39 21 -62q75 -103 175 -103l16 -5h239q99 0 147.5 68t48.5 185v738z
" />
    <glyph glyph-name="uni1067" unicode="&#x1067;" horiz-adv-x="602" 
d="M501 199q0 -80 -57.5 -138.5t-140.5 -58.5q-82 0 -142.5 58t-60.5 139q0 89 60.5 147.5t142.5 58.5q33 0 63 -12v516h135v-710zM386 194q0 84 -85 84t-85 -84t85 -84t85 84z" />
    <glyph glyph-name="uni1068" unicode="&#x1068;" horiz-adv-x="604" 
d="M500 1161q0 -71 -50.5 -124t-125.5 -53q-73 0 -126 51t-53 126q0 74 53 126t126 52q75 0 125.5 -53.5t50.5 -124.5zM391 1167q0 61 -64 61q-65 0 -65 -61q0 -65 65 -65q64 0 64 65zM25 51q5 39 32 52l39 8h67q45 0 71 29q17 14 18 27l2 49v525l13 24q19 33 47 33
q34 0 65 -34l21 -26v-520l-10 -90q-16 -51 -46 -80q-40 -44 -76 -52q-50 -15 -99 -15h-74l-45 15q-25 28 -25 55z" />
    <glyph glyph-name="uni1069" unicode="&#x1069;" horiz-adv-x="615" 
d="M404 24q-15 4 -27 11q-25 14 -47 41q-19 29 -28 59t-16 71q-5 48 3.5 100t28.5 102l9 32l55 160q0 4 1 5t1 4q0 4 0.5 4t-0.5 1q9 19 9 34q-9 59 -54.5 90.5t-108.5 22.5q-29 -6 -50 -13l-3 4q-6 -1 -11 -1q-24 0 -40.5 19.5t-16.5 46.5q0 17 6 32l-8 13q17 9 35 15
q7 4 16 5q1 1 2 1q28 8 52 12q60 10 114.5 -4t95.5 -44t69.5 -74.5t33.5 -103.5q4 -28 -4 -68t-21 -85v1l-51 -136q-36 -101 -30 -159q-4 -39 24 -57.5t65 -27.5l-7 -10q20 -22 20 -50q0 -29 -20.5 -50.5t-49.5 -21.5q-26 0 -47 19z" />
    <glyph glyph-name="uni106A" unicode="&#x106a;" horiz-adv-x="625" 
d="M499 843h3v-615q0 -98 -68 -163t-161 -65q-92 0 -159 65q-61 58 -67 142q-2 7 -2 13q0 23 20 40t48 17q29 0 50 -17q16 -14 18 -32h8v-6q0 -35 29 -62t60 -27q37 0 67 27t30 62v604q-5 8 -5 18q0 21 19 35.5t45 14.5q27 0 46 -14.5t19 -35.5v-1z" />
    <glyph glyph-name="uni106B" unicode="&#x106b;" horiz-adv-x="636" 
d="M525 49q0 -20 -19 -34.5t-45 -14.5q-27 0 -46 14.5t-19 34.5q0 9 5 18v605q0 35 -30 62t-66 27q-31 0 -60.5 -27t-29.5 -62v-6h-8q-2 -18 -18 -33q-21 -16 -50 -16q-28 0 -48 16t-20 41q0 6 2 12q6 85 67 143q67 65 159 65q93 0 161.5 -65t68.5 -163v-615h-4v-2z" />
    <glyph glyph-name="uni106C" unicode="&#x106c;" horiz-adv-x="624" 
d="M93 844q0 21 18.5 35.5t45.5 14.5q26 0 45 -14.5t19 -35.5q0 -10 -5 -18v-604q0 -35 30.5 -62t66.5 -27q31 0 60 27t29 62v6h8q2 18 18 32q21 17 50 17q28 0 48 -17t20 -40q0 -6 -2 -13q-6 -84 -67 -142q-67 -65 -159 -65q-93 0 -161 65t-68 163v615h4v1z" />
    <glyph glyph-name="uni106D" unicode="&#x106d;" horiz-adv-x="615" 
d="M133 141q27 -7 63 -7q76 0 123.5 41t47.5 100q0 13 -8 28q0 2 -1 3t-1 4q0 2 -1 3.5t-1 3.5l-85 151l-20 34q-27 46 -42 96.5t-15 99.5q0 42 6 74t24 61q20 36 49 53t77 23l91 -109q-43 -16 -73 -37t-21 -61q0 -59 56 -156l76 -127v3q23 -40 37 -80.5t14 -69.5
q0 -56 -26.5 -106t-71.5 -88t-105.5 -60t-131.5 -22q-69 0 -130 17z" />
    <glyph glyph-name="uni106E" unicode="&#x106e;" horiz-adv-x="2192" 
d="M2121 45l-50 -50h-273v187h121v222q0 83 -53 141t-136 58h-177q-83 0 -141.5 -58t-58.5 -141v-364l-50 -45h-487l-51 48v361q0 83 -53 141t-136 58h-177q-83 0 -141.5 -58t-58.5 -141v-222h124v-187h-270l-50 48v364q0 164 112 275t276 111h187q114 0 192 -56
q25 -17 58 -58q23 56 101 89q66 27 134 27q141 0 217 -101q96 99 265 99h187q169 0 279 -110t110 -279v-359zM1156 182v323q0 40 -26.5 70.5t-66.5 30.5t-68 -30.5t-28 -70.5v-323h189z" />
    <glyph glyph-name="uni106F" unicode="&#x106f;" horiz-adv-x="1916" 
d="M755 775l-106 -151q18 -8 43 -23q96 -53 116 -121q8 -36 8 -76v-217h-617v217q0 124 129 202q20 13 46 23l-106 151q-122 -45 -193.5 -145t-71.5 -228v-356l45 -51h917l53 56v318q0 101 53 165t151 64h227q84 0 137 -58t53 -141v-217h-137v-187h288l51 51v353
q0 172 -108.5 280.5t-280.5 108.5h-237q-170 0 -281 -144q-58 73 -179 126zM1824 -27v-289h1q3 -23 1 -48q-2 -99 -22 -168t-82 -145q-112 -117 -336 -117q-179 0 -351 89q-197 102 -296 289q96 -121 241 -184q128 -57 267 -57q177 0 289 90q29 23 57.5 83.5t28.5 105.5
l-1 55h-1l-2 296h206z" />
    <glyph glyph-name="uni1070" unicode="&#x1070;" horiz-adv-x="1916" 
d="M227 783q-156 0 -224 -139l116 -136q12 30 52.5 70.5t68.5 40.5t28 -33q0 -41 -95 -104t-143 -164q-15 -30 -27 -88v-179l45 -51h823l46 45l50 -45h816l53 56v343q0 255 -263 376l-106 -151q18 -8 43 -23q96 -53 116 -121q8 -36 8 -76v-217h-616v212q0 255 -263 376
l-106 -151q18 -8 43 -23q96 -53 116 -121q8 -36 8 -76v-217h-617v40q13 41 41 77.5t106 89.5q96 83 96 222q0 76 -67 121.5t-148 45.5zM1824 -27v-289h1q3 -23 1 -48q-2 -99 -22 -168t-82 -145q-112 -117 -336 -117q-179 0 -351 89q-197 102 -296 289q96 -121 241 -184
q128 -57 267 -57q177 0 289 90q29 23 57.5 83.5t28.5 105.5l-1 55h-1l-2 296h206z" />
    <glyph glyph-name="uni1071" unicode="&#x1071;" 
d="M-244 1159q-55 -48 -125 -48q-65 0 -115 54t-50 123q0 34 16 64.5t40 53t56 35t66 12.5q64 0 116 -55q48 -55 48 -122q0 -65 -52 -117zM-322 1316q-14 13 -40 18q-43 0 -53 -52q0 -19 14 -33t38 -18q15 0 40 13q8 10 12 38q0 17 -11 34zM-693 1159q-55 -48 -125 -48
q-65 0 -115 54t-50 123q0 34 15.5 64.5t40 53t56.5 35t66 12.5q64 0 117 -55q47 -55 47 -122q0 -65 -52 -117zM-772 1316q-13 13 -39 18q-43 0 -53 -52q0 -19 14.5 -33t37.5 -18q15 0 40 13q8 10 12 38q0 17 -12 34z" />
    <glyph glyph-name="uni1072" unicode="&#x1072;" 
d="M-488 897q-198 0 -342 135.5t-144 334.5q0 196 135 342.5t336 146.5q134 0 246 -67t176 -192l10 -36q0 -25 -19.5 -44t-44.5 -19q-22 0 -42 13l-23 22q-42 86 -121.5 135.5t-181.5 49.5q-130 0 -231.5 -102t-101.5 -249q0 -130 101.5 -231t246.5 -101q204 0 303 202
l11 10q25 25 49 25q62 0 67 -67v-24q-59 -127 -173 -205.5t-257 -78.5z" />
    <glyph glyph-name="uni1073" unicode="&#x1073;" 
d="M-693 1469l4 4l554 -452l10 -21q17 -45 -4 -83l-34 -8l-29 3l-20 7l-481 393l-482 -393l-20 -7l-29 -3l-34 8q-21 38 -4 83l10 21l554 452z" />
    <glyph glyph-name="uni1074" unicode="&#x1074;" horiz-adv-x="2" 
d="M-689 909l-554 452l-10 22q-17 45 4 83l34 7l29 -3l20 -6l482 -393l481 393l20 6l29 3l34 -7q21 -38 4 -83l-10 -22l-554 -452l-4 5z" />
    <glyph glyph-name="uni1075" unicode="&#x1075;" horiz-adv-x="1129" 
d="M5 271v1h-1l-1 1v134q0 164 112 275t276 111h238q169 0 279 -110t110 -279v-364l-48 -45h-273v187h119v222q0 83 -53 141t-137 58h-227q-83 0 -141.5 -58t-58.5 -141v-32h138q53 0 93.5 -39t40.5 -92v-194l-51 -51h-368l-51 51v93l308 5v78l-254 -2zM4 272h-1v1z" />
    <glyph glyph-name="uni1076" unicode="&#x1076;" horiz-adv-x="1129" 
d="M313 187v66h-111v-66h111zM384 791v7h237q164 0 279 -111t115 -273v-363l-43 -51h-914l-58 51v237q0 76 81 98q7 0 20 3h308q28 0 73 -25q20 -23 28 -76v-101h303v222q0 86 -57 143t-142 57h-159q-29 -30 -66 -84q-83 -96 -222 -96q-78 0 -122.5 67t-44.5 148
q0 156 139 224l136 -116q-30 -12 -70.5 -52.5t-40.5 -68.5t33 -28q41 0 104 95q35 54 83 93z" />
    <glyph glyph-name="uni1077" unicode="&#x1077;" horiz-adv-x="1129" 
d="M3 272v135q0 164 112 275t276 111h238q169 0 279 -110t110 -279v-131q4 -15 4 -32v-195l-4 -4v-2l-32 -30l-14 -14h-1l-1 -1h-273v1h-94l-50 50v192q0 56 39 95t94 39h130v32q0 83 -53 141t-137 58h-227q-83 0 -141.5 -58t-58.5 -141v-32h138q53 0 93.5 -39t40.5 -92
v-194l-51 -51h-368l-51 51v93l308 5v78l-254 -2l-50 50v1h-2zM861 223h-152v-78h152v78z" />
    <glyph glyph-name="uni1078" unicode="&#x1078;" horiz-adv-x="1932" 
d="M1023 404v-222h616v222q0 83 -58 141t-142 58h-227q-83 0 -136 -58t-53 -141zM901 644q106 149 308 149h238q164 0 276.5 -111t112.5 -275v-362l-51 -50h-914l-50 50v356q0 76 -62 139t-138 63h-227q-83 0 -136 -58t-53 -141v-222h136v-187h-288l-50 50v359
q0 169 109.5 279t278.5 110h238q81 0 159 -41.5t113 -107.5z" />
    <glyph glyph-name="uni1079" unicode="&#x1079;" horiz-adv-x="1932" 
d="M1023 404v-222h616v222q0 83 -58 141t-142 58h-227q-83 0 -136 -58t-53 -141zM165 218v-78h152v78h-152zM8 328h-5v76q0 169 109.5 279t278.5 110h238q81 0 159 -41.5t113 -107.5q106 149 308 149h238q164 0 276.5 -111t112.5 -275v-362l-51 -50h-914l-50 50v356
q0 76 -62 139t-138 63h-227q-83 0 -136 -58q-47 -51 -52 -121h5q-1 -12 -1 -25v-32h130q55 0 94 -39t39 -95v-192l-50 -50h-94v-1h-273l-1 1h-1l-14 14l-32 30v2l-4 4v195q0 17 4 32v60z" />
    <glyph glyph-name="uni107A" unicode="&#x107a;" horiz-adv-x="1934" 
d="M814 -306h-1q-3 -23 -1 -48q2 -99 22 -168t82 -145q112 -117 336 -117q179 0 351 89q197 102 296 289q-96 -121 -241 -184q-128 -57 -267 -57q-177 0 -289 90q-29 23 -57.5 83.5t-28.5 105.5l1 55h1l2 296h-2v17h765l53 56v368q0 255 -263 376l-106 -151q18 -8 43 -23
q61 -35 83 -63q26 -35 36 -101q0 -13 5 -33v-242h-616v217q0 172 -109 280.5t-280 108.5h-238q-161 0 -274.5 -112.5t-113.5 -273.5v-356l50 -51h270v187h-124v217q0 86 57 142.5t143 56.5h227q84 0 137 -58t53 -141z" />
    <glyph glyph-name="uni107B" unicode="&#x107b;" horiz-adv-x="1932" 
d="M816 404q0 83 -53 141t-136 58h-227q-84 0 -142 -58t-58 -141v-222h616v222zM1674 218h-152v-78h152v78zM1831 328v-60q4 -15 4 -32v-195l-4 -4v-2l-32 -30l-14 -14h-1l-1 -1h-273v1h-94l-50 50v192q0 56 39 95t94 39h130v32q0 13 -1 25h5q-5 70 -52 121q-53 58 -136 58
h-227q-76 0 -138 -63t-62 -139v-356l-50 -50h-914l-51 50v362q0 164 112.5 275t276.5 111h238q202 0 308 -149q35 66 113 107.5t159 41.5h238q169 0 278.5 -110t109.5 -279v-76h-5z" />
    <glyph glyph-name="uni107C" unicode="&#x107c;" horiz-adv-x="1976" 
d="M1015 51l-43 -51h-914l-58 51v237q0 76 81 98q7 0 20 3h308q28 0 73 -25q20 -23 28 -76v-101h303v222q0 86 -57 143t-142 57h-228q-83 0 -141 -58.5t-58 -141.5l-174 147q32 113 144 181q103 61 227 61h237q164 0 279 -111t115 -273v-363zM313 187v66h-111v-66h111z
M1671 187v66h-111v-66h111zM1815 0h-914q-22 25 -43 51v363q0 162 114.5 273t278.5 111h238q124 0 227 -61q111 -68 144 -181l-174 -147q0 83 -58 141.5t-142 58.5h-227q-86 0 -142.5 -57t-56.5 -143v-222h303v101q7 53 27 76q46 25 74 25h308l20 -3q81 -22 81 -98v-237z
" />
    <glyph glyph-name="uni107D" unicode="&#x107d;" horiz-adv-x="1945" 
d="M1631 187v66h-111v-66h111zM819 443q10 143 114 244q114 111 278 111h238q124 0 227 -61q111 -68 144 -181l-174 -147q0 83 -58 141.5t-142 58.5h-227q-86 0 -142.5 -57t-56.5 -143v-222h303v101q7 53 27 76q46 25 74 25h308l20 -3q81 -22 81 -98v-237l-58 -51h-914
q-19 21 -36 43q-86 -47 -196 -47h-238q-164 0 -276 111t-112 275v134l1 1h1v1l50 50l254 -2v78l-308 5v93l51 51h368l51 -51v-194q0 -53 -40.5 -92t-93.5 -39h-138v-32q0 -83 58.5 -141t141.5 -58h227q84 0 137 58t53 141v58h3z" />
    <glyph glyph-name="uni107E" unicode="&#x107e;" horiz-adv-x="1945" 
d="M1631 187v66h-111v-66h111zM819 443q10 143 114 244q114 111 278 111h238q124 0 227 -61q111 -68 144 -181l-174 -147q0 83 -58 141.5t-142 58.5h-227q-86 0 -142.5 -57t-56.5 -143v-222h303v101q7 53 27 76q46 25 74 25h308l20 -3q81 -22 81 -98v-237l-58 -51h-914
q-19 21 -36 43q-86 -47 -196 -47h-238q-164 0 -276 111t-112 275v134l1 1h1v1l50 50l254 -2v78l-308 5v93l51 51h368l51 -51v-194q0 -53 -40.5 -92t-93.5 -39h-138v-32q0 -83 58.5 -141t141.5 -58h227q84 0 137 58t53 141v58h3zM1214 -17v-289h1q3 -23 1 -48
q-2 -99 -22 -168t-82 -145q-112 -117 -336 -117q-179 0 -351 89q-197 102 -296 289q96 -121 241 -184q128 -57 267 -57q177 0 289 90q29 23 57.5 83.5t28.5 105.5l-1 55h-1l-2 296h206z" />
    <glyph glyph-name="uni107F" unicode="&#x107f;" horiz-adv-x="1129" 
d="M199 465h137v141h-137v-141zM3 56v550q0 76 56.5 131.5t132.5 55.5h162q75 0 129.5 -55.5t54.5 -131.5v-273l-46 -55h-293v-86h617l-3 212q0 45 -10 78q-15 71 -114 124q-25 15 -43 23l106 151q266 -101 266 -373v-346l-46 -56h-916z" />
    <glyph glyph-name="uni1080" unicode="&#x1080;" horiz-adv-x="1903" 
d="M313 187v66h-111v-66h111zM813 409q0 86 -57 143t-142 57h-228q-83 0 -141 -58.5t-58 -141.5l-174 147q32 113 144 181q103 61 227 61h237q164 0 279 -111t115 -273v-227h611v217q2 8 2 25q0 101 -126 172q-25 15 -43 23l106 151q263 -121 263 -376v-323l-51 -76h-1719
l-58 51v237q0 76 81 98q7 0 20 3h308q28 0 73 -25q20 -23 28 -76v-101h303v222z" />
    <glyph glyph-name="uni1081" unicode="&#x1081;" horiz-adv-x="1129" 
d="M336 265h-137v-116h137v116zM455 409q53 0 73 -58q5 -13 10 -58v-242l-51 -51h-434l-50 51v361q0 164 112 275t276 111h238q169 0 279 -110t110 -279v-358l-51 -51h-245v187h94v222q0 83 -53 141.5t-137 58.5h-227q-83 0 -141.5 -58.5t-58.5 -141.5h256zM514 -17v-289h1
q3 -23 1 -48q-2 -99 -22 -168t-82 -145q-112 -117 -336 -117q-179 0 -351 89q-197 102 -296 289q96 -121 241 -184q128 -57 267 -57q177 0 289 90q29 23 57.5 83.5t28.5 105.5l-1 55h-1l-2 296h206z" />
    <glyph glyph-name="uni1082" unicode="&#x1082;" 
d="M-474 -754h-174q-137 0 -239.5 99.5t-102.5 253.5v326l39 53h583l-128 -188h-303v-186q0 -73 46 -120.5t113 -47.5h51v3l210 -3q124 0 193 31q232 93 385 327q-141 -324 -328 -441q-162 -103 -345 -103v-4z" />
    <glyph glyph-name="uni1083" unicode="&#x1083;" horiz-adv-x="379" 
d="M118 596h-110v187h312v-50l1 -1l-5 -1045h-1l-1 -55q0 -45 28.5 -105.5t57.5 -83.5q112 -90 289 -90q139 0 267 57q145 63 241 184q-99 -187 -296 -289q-172 -89 -351 -89q-224 0 -336 117q-62 76 -82 145t-22 168q-2 25 1 48h1z" />
    <glyph glyph-name="uni1084" unicode="&#x1084;" horiz-adv-x="1129" 
d="M23 119q0 30 101 131t101 151q0 41 -94 99q-106 66 -121 91q-2 5 -2 38q-3 2 -3 7q0 23 66 79q93 78 257 78h339q123 0 224 -63q109 -66 142 -180l-174 -146q0 83 -58.5 141t-141.5 58h-328q53 -40 73 -60q71 -73 71 -139q0 -73 -74 -157q-20 -22 -70 -65h507v45h197
v-184l-50 -48h-914l-48 45v79z" />
    <glyph glyph-name="uni1085" unicode="&#x1085;" 
d="M-762 1405q43 -35 60 -52q61 -64 61 -124q0 -67 -61 -139q-17 -21 -60 -61h432v40h167v-165l-43 -43h-779l-41 43v70q0 23 86.5 114t86.5 138q0 34 -79 87q-91 60 -104 84q-5 5 -2 31q25 41 53 78q78 70 220 70h246q17 1 35 1q168 0 328 -102q185 -116 278 -329
q-90 138 -326 232q-86 39 -253 31z" />
    <glyph glyph-name="uni1086" unicode="&#x1086;" 
d="M-495 1318h-151v-60h151v60zM-333 1187v-4q-7 -71 -76 -149q-82 -94 -230 -148q-169 -64 -357 -43q137 3 252 55q103 45 166 118q57 64 66 129h-240l-51 39v145q0 43 39 73t95 30h202q53 0 93.5 -30t40.5 -70v-119q1 -13 0 -26z" />
    <glyph glyph-name="uni1087" unicode="&#x1087;" horiz-adv-x="563" 
d="M313 227h-151v-78h151v78zM475 55v-4q-7 -94 -76 -196q-82 -123 -230 -194q-169 -84 -357 -56q137 3 252 71q103 60 166 155q57 84 66 169h-240l-51 51v191q0 56 39 95t95 39h202q53 0 93.5 -39t40.5 -92v-155q1 -17 0 -35z" />
    <glyph glyph-name="uni1088" unicode="&#x1088;" horiz-adv-x="563" 
d="M313 636h-151v-78h151v78zM475 460l-51 -51h-368l-51 51v191q0 56 39 95t95 39h202q53 0 93.5 -39t40.5 -92v-194zM313 227h-151v-78h151v78zM475 55v-4q-7 -94 -76 -196q-82 -123 -230 -194q-169 -84 -357 -56q137 3 252 71q103 60 166 155q57 84 66 169h-240l-51 51
v191q0 56 39 95t95 39h202q53 0 93.5 -39t40.5 -92v-155q1 -17 0 -35z" />
    <glyph glyph-name="uni1089" unicode="&#x1089;" horiz-adv-x="563" 
d="M313 227h-151v-78h151v78zM475 51l-51 -51h-368l-51 51v191q0 56 39 95t95 39h202q53 0 93.5 -39t40.5 -92v-194z" />
    <glyph glyph-name="uni108A" unicode="&#x108a;" horiz-adv-x="873" 
d="M166 553h78v133h-78v-133zM338 410h-35h-155q-53 0 -92 36t-39 83v177q0 50 39 84t95 34h191l51 -44v-212q85 8 169 58q95 56 155 147q68 101 71 221q28 -165 -56 -314q-71 -130 -194 -203q-102 -60 -196 -66zM161 115h78v133h-78v-133zM333 -27q-18 -1 -35 0h-155
q-53 0 -92 35.5t-39 82.5v178q0 49 39 83.5t95 34.5h191l51 -45v-212q85 8 169 59q95 55 155 146q68 101 71 222q28 -166 -56 -315q-71 -130 -194 -202q-102 -61 -196 -67h-4z" />
    <glyph glyph-name="uni108B" unicode="&#x108b;" horiz-adv-x="502" 
d="M357 367q-55 -48 -123 -48q-65 0 -120 54q-48 55 -48 126q0 64 54.5 115t125.5 51q33 0 64.5 -15.5t54.5 -40.5t35.5 -58t12.5 -66q0 -64 -56 -118zM246 548q-22 0 -37.5 -16t-21.5 -42q0 -20 17 -44q9 -9 42 -16q19 0 39 15q14 14 20 45q0 48 -59 58z" />
    <glyph glyph-name="uni108C" unicode="&#x108c;" horiz-adv-x="978" 
d="M357 367q-55 -48 -123 -48q-65 0 -120 54q-48 55 -48 126q0 64 54.5 115t125.5 51q33 0 64.5 -15.5t54.5 -40.5t35.5 -58t12.5 -66q0 -64 -56 -118zM239 561q-23 0 -39 -16t-22 -45q0 -20 18 -44q9 -10 43 -17q21 0 40 15q16 16 21 46q0 51 -61 61zM822 367
q-56 -48 -124 -48q-64 0 -120 54q-46 55 -46 126q0 64 54 115t125 51q34 0 65 -15.5t53.5 -40.5t35.5 -58t13 -66q0 -64 -56 -118zM711 557q-23 0 -39.5 -16t-22.5 -45q0 -21 17 -44q10 -11 45 -17q20 0 39 14q16 16 22 47q0 50 -61 61z" />
    <glyph glyph-name="uni108D" unicode="&#x108d;" 
d="M-116 -247h-806v133h806v-133z" />
    <glyph glyph-name="uni108E" unicode="&#x108e;" horiz-adv-x="1039" 
d="M719 495q-77 -37 -120 -47t-84 -10q-155 0 -284 126q-27 -60 -27 -131q0 -131 93 -227q96 -98 223 -98q133 0 230 93q93 91 93 223q0 83 -32 149q-47 -57 -92 -78zM970 424q0 -189 -132 -316q-129 -130 -318 -130q-192 0 -318.5 134t-126.5 321q0 189 133 317
q134 126 319 126q187 0 313 -131q130 -130 130 -321zM735 658q-53 44 -103 66q-54 17 -110 17q-62 0 -115.5 -19.5t-106.5 -63.5q96 -91 220 -91q23 0 51 4q25 4 71.5 19.5t92.5 67.5z" />
    <glyph glyph-name="uni108F" unicode="&#x108f;" horiz-adv-x="563" 
d="M175 636v-78h151v78h-151zM13 460v194q0 53 40.5 92t93.5 39h202q56 0 95 -39t39 -95v-191l-51 -51h-368zM175 227v-78h151v78h-151zM13 55q-1 18 0 35v155q0 53 40.5 92t93.5 39h202q56 0 95 -39t39 -95v-191l-51 -51h-240q9 -85 66 -169q63 -95 166 -155
q115 -68 252 -71q-188 -28 -357 56q-148 71 -230 194q-69 102 -76 196v4z" />
    <glyph glyph-name="uni1090" unicode="&#x1090;" horiz-adv-x="1207" 
d="M750 1311q146 0 249 -106t103 -253v-690q0 -149 -103.5 -252.5t-248.5 -103.5h-321q-146 0 -247.5 103.5t-101.5 252.5v690q0 147 101.5 253t247.5 106h321zM746 1108h-319q-67 0 -113 -47.5t-46 -114.5v-681q0 -66 46 -111.5t113 -45.5h319q66 0 112.5 46t46.5 111v681
q0 67 -47 114.5t-112 47.5z" />
    <glyph glyph-name="uni1091" unicode="&#x1091;" horiz-adv-x="868" 
d="M347 1148h-189v55q83 2 159.5 48t117.5 138h108v-1148h180v-59q-71 -2 -147 -47t-122 -135h-107v1148z" />
    <glyph glyph-name="uni1092" unicode="&#x1092;" horiz-adv-x="1174" 
d="M103 1315q46 -6 77 16.5t59 14.5q89 60 192.5 80.5t190.5 22.5q102 0 180 -30.5t133 -88.5q50 -53 77 -124.5t27 -154.5t-41 -184.5t-93 -169.5q-81 -106 -275 -230t-226 -222q19 -39 32 -58q28 -57 20 -125q-8 -44 -43 -79q-37 -39 -98 -35q-80 10 -116 83
q-41 97 -19 198q-26 182 288 338q178 89 248 196q58 60 72 99t34 107q0 82 -9 122.5t-43 87.5q-38 46 -93 73.5t-125 27.5q-53 0 -105 -21t-98 -56q-43 -35 -72.5 -83t-37.5 -101h-52q-3 36 -7 78t-13 80t-24.5 66t-39.5 39v33z" />
    <glyph glyph-name="uni1093" unicode="&#x1093;" horiz-adv-x="1261" 
d="M822 815l87 -27v27q0 266 -18 305q-34 61 -135 61h-586v213h642q140 0 221 -91t81 -233v-1054h-205v531q0 64 -52 64h-367q-159 0 -159 -164v-434h-203l-1 491q0 143 93 232q82 79 225 79h377z" />
    <glyph glyph-name="uni1094" unicode="&#x1094;" horiz-adv-x="1249" 
d="M520 1111q-185 -194 -185 -355v-498h55v-37q-39 -43 -57 -87t-31 -124h-187v775q0 133 31 187.5t91 134.5q57 78 141 134t184.5 98.5t218 65t265.5 22.5v-1169h74v-37q-57 -43 -76 -87t-32 -124h-150v1305q-57 -9 -146.5 -51.5t-195.5 -152.5z" />
    <glyph glyph-name="uni1095" unicode="&#x1095;" horiz-adv-x="1330" 
d="M1169 1533v-1152q0 -155 -106.5 -262t-256.5 -107h-345q-150 0 -255 107t-105 262v303q0 152 105 262.5t255 110.5h842v-179h-844q-78 0 -132 -56.5t-54 -135.5v-289q0 -78 54 -132t132 -54h342q77 0 131.5 54t54.5 132v1136h182z" />
    <glyph glyph-name="uni1096" unicode="&#x1096;" horiz-adv-x="1340" 
d="M987 -8v1117q0 78 -54.5 131.5t-131.5 53.5h-342q-78 0 -132 -53.5t-54 -131.5v-290q0 -79 54 -135.5t132 -56.5h844v-180h-842q-150 0 -255 111t-105 264v302q0 155 105 262t255 107h345q150 0 256.5 -107t106.5 -262v-1132h-182z" />
    <glyph glyph-name="uni1097" unicode="&#x1097;" horiz-adv-x="1193" 
d="M1134 1355q0 -50 -27 -86l-759 -1050h657v-219h-724q-68 0 -114.5 11t-78 50.5t-31.5 83.5q0 47 41 105l741 1031h-656v218h785q166 0 166 -144z" />
    <glyph glyph-name="uni1098" unicode="&#x1098;" horiz-adv-x="1302" 
d="M806 1047q150 0 256.5 -110t106.5 -263v-303q0 -155 -106.5 -262t-256.5 -107h-345q-150 0 -255 107t-105 262v303q0 153 105 263t255 110h345zM801 868h-342q-78 0 -132 -57.5t-54 -138.5v-299q0 -80 54 -135.5t132 -55.5h342q77 0 131.5 55.5t54.5 135.5v299
q0 81 -54.5 138.5t-131.5 57.5zM273 1198q0 -70 54 -119.5t132 -49.5h342q77 0 131.5 49.5t54.5 119.5v218l182 -1v-218q0 -138 -106.5 -233t-256.5 -95h-345q-150 0 -255 95t-105 233v224l172 -1v-222z" />
    <glyph glyph-name="uni1099" unicode="&#x1099;" horiz-adv-x="808" 
d="M309 1055h-176v79q87 2 155 42.5t108 130.5h124v-1069h167v-82q-76 -2 -143.5 -42t-112.5 -128h-122v1069z" />
    <glyph glyph-name="uni109A" unicode="&#x109a;" horiz-adv-x="536" 
d="M366 596q-55 -49 -124 -49q-64 0 -119 54q-48 55 -48 125q0 65 54.5 116t125.5 51q33 0 64.5 -15.5t54 -40.5t35.5 -58t13 -66q0 -64 -56 -117zM254 776q-21 0 -36.5 -15.5t-21.5 -42.5q0 -20 16 -43q10 -10 42 -17q20 0 38 15q16 14 21 45q0 47 -59 58z" />
    <glyph glyph-name="uni109B" unicode="&#x109b;" horiz-adv-x="525" 
d="M225 790.5q18 -17.5 45 -17.5q26 0 44 17.5t18 44.5q0 26 -18 44.5t-44 18.5q-27 0 -45 -18.5t-18 -44.5q0 -27 18 -44.5zM425.5 742.5q-14.5 -63.5 -63.5 -134t-93 -114.5t-138 -94q54 77 81.5 125t37.5 78l17 63h3q-14 0 -24 5q-53 0 -100 43q-33 39 -45 85
q-4 18 -4 39q0 68 50.5 118.5t122.5 50.5q70 0 120 -50.5t50 -118.5q0 -32 -14.5 -95.5z" />
    <glyph glyph-name="uni109C" unicode="&#x109c;" horiz-adv-x="873" 
d="M166 274v-133h78v133h-78zM338 417l4 -1q94 -6 196 -66q123 -73 194 -203q84 -149 56 -314q-3 120 -71 221q-60 91 -155 147q-84 50 -169 58v-212l-51 -44h-191q-56 0 -95 34t-39 84v177q0 47 39 83t92 36h155h35zM161 712v-133h78v133h-78zM333 854h4q94 -6 196 -67
q123 -72 194 -202q84 -149 56 -315q-3 121 -71 222q-60 91 -155 146q-84 51 -169 59v-212l-51 -45h-191q-56 0 -95 34.5t-39 83.5v178q0 47 39 82.5t92 35.5h155q17 1 35 0z" />
    <glyph glyph-name="uni109D" unicode="&#x109d;" 
d="M-514 1665q53 0 100.5 -19.5t82 -55.5t56 -82t21.5 -100v-483h-129q0 103 1 236.5t1 237.5q-6 55 -43 90t-85 35q-46 0 -79 -28t-40 -88l-142 -1q0 68 21.5 111.5t56 76.5t80.5 51.5t98 18.5z" />
    <glyph glyph-name="uni109E" unicode="&#x109e;" horiz-adv-x="379" 
d="M118 596h-110v187h312v-50l1 -1l-5 -1045h-1l-1 -55q0 -45 28.5 -105.5t57.5 -83.5q112 -90 289 -90q139 0 267 57q145 63 241 184q-99 -187 -296 -289q-172 -89 -351 -89q-224 0 -336 117q-62 76 -82 145t-22 168q-2 25 1 48h1zM246 1211h-151v-78h151v78zM408 1035
l-50 -51h-369l-51 51v191q0 56 39.5 95t94.5 39h202q53 0 93.5 -39t40.5 -92v-194z" />
    <glyph glyph-name="uni109F" unicode="&#x109f;" horiz-adv-x="1353" 
d="M336 273h-137v-91h137v91zM816 -348v752q0 83 -53 141t-137 58h-227q-83 0 -141.5 -58t-58.5 -141h205q78 0 114 -48q10 -13 20 -50v-266l-48 -45h-437l-50 48v364q0 164 112 275t276 111h238q169 0 279 -110t110 -279v-752h-202zM808 -449h265l3 974q-13 31 -33 78
q-89 182 -255 228q-18 5 -91 17h-391l-51 51v245q0 169 110 281.5t279 112.5h212q240 0 348 -220l-156 -169q-5 20 -13 50q-35 99 -111 134q-38 15 -71 15h-202q-88 0 -142 -58t-54 -146v-111l247 2q61 0 129 -17q141 -38 259.5 -144t161.5 -243q13 -38 21 -111l-3 -1106
l-58 -50h-398z" />
    <glyph glyph-name="endash" unicode="&#x2013;" horiz-adv-x="1017" 
d="M51 385v147h915v-147h-915z" />
    <glyph glyph-name="emdash" unicode="&#x2014;" horiz-adv-x="1998" 
d="M55 385v142h1881v-142h-1881z" />
    <glyph glyph-name="quoteleft" unicode="&#x2018;" horiz-adv-x="557" 
d="M312 983q-52 0 -107 80t-55 186q0 133 86 276.5t170 143.5v-52q-90 -52 -106 -233q0 -145 157 -196v-52z" />
    <glyph glyph-name="quoteright" unicode="&#x2019;" horiz-adv-x="557" 
d="M295 1669q53 0 107.5 -80t54.5 -185q0 -133 -86 -277t-169 -144v53q88 53 105 233q0 145 -157 196v52z" />
    <glyph glyph-name="quotesinglbase" unicode="&#x201a;" horiz-adv-x="557" 
d="M241 267q52 0 106.5 -80t54.5 -185q0 -133 -86 -277t-170 -144v53q89 53 106 233q0 145 -157 195v53z" />
    <glyph glyph-name="quotedblleft" unicode="&#x201c;" horiz-adv-x="909" 
d="M263 1025q-54 0 -108.5 79.5t-54.5 185.5q0 133 86.5 277t169.5 144v-53q-89 -53 -105 -233q0 -145 157 -196v-52zM657 1025q-52 0 -107 79.5t-55 185.5q0 133 86.5 277t169.5 144v-53q-90 -53 -106 -233q0 -145 157 -196v-52z" />
    <glyph glyph-name="quotedblright" unicode="&#x201d;" horiz-adv-x="950" 
d="M658 1711q54 0 108.5 -80t54.5 -186q0 -133 -86.5 -276.5t-169.5 -143.5v52q89 53 105 233q0 145 -157 197v51zM264 1711q52 0 107 -80t55 -186q0 -133 -86.5 -276.5t-169.5 -143.5v52q90 53 105 233q0 145 -157 197v51z" />
    <glyph glyph-name="quotedblbase" unicode="&#x201e;" horiz-adv-x="945" 
d="M663 328q53 0 107.5 -80t54.5 -186q0 -133 -86 -276.5t-170 -143.5v52q89 54 106 233q0 146 -157 196v52zM260 328q52 0 106.5 -80t54.5 -186q0 -133 -86 -276.5t-170 -143.5v52q89 54 106 233q0 146 -157 196v52z" />
    <glyph glyph-name="dagger" unicode="&#x2020;" horiz-adv-x="1002" 
d="M460 1008q-5 64 -47 137q-55 101 -55 132q0 54 39.5 87.5t103.5 33.5q59 0 101.5 -31t42.5 -82q0 -35 -56 -138q-41 -78 -46 -141q64 6 136 47q101 58 133 58q54 0 87 -40.5t33 -103.5q0 -62 -30 -102.5t-83 -40.5q-35 0 -139 53q-75 41 -138 49q6 -136 105 -236
q-103 -443 -108 -945h-73q-6 502 -110 945q99 100 105 237q-66 -7 -140 -48q-99 -55 -130 -55q-57 0 -89 39.5t-32 103.5q0 59 29.5 101.5t82.5 42.5q35 0 139 -56q76 -41 139 -47z" />
    <glyph glyph-name="daggerdbl" unicode="&#x2021;" horiz-adv-x="1002" 
d="M540 216q63 9 140 50q104 54 139 54q51 0 82 -41t31 -103q0 -63 -33 -103.5t-89 -40.5q-31 0 -131 57q-74 42 -138 48q5 -64 48 -142q55 -102 55 -137q0 -51 -42 -82t-103 -31q-64 0 -103.5 33.5t-39.5 86.5q0 31 57 133q42 73 47 138q-63 -7 -140 -49q-103 -55 -138 -55
q-52 0 -83 42.5t-31 101.5q0 65 33 104.5t88 39.5q32 0 132 -56q74 -41 140 -48q-8 187 -108 355q100 169 108 356q-66 -7 -140 -48q-100 -55 -132 -55q-55 0 -88 39.5t-33 103.5q0 59 31 101.5t83 42.5q35 0 138 -56q77 -41 140 -47q-5 64 -47 137q-57 101 -57 132
q0 54 39.5 87.5t103.5 33.5q61 0 103 -31.5t42 -81.5q0 -34 -55 -138q-43 -78 -48 -141q64 6 138 47q100 58 131 58q56 0 89 -40.5t33 -103.5q0 -62 -31 -102.5t-82 -40.5q-35 0 -139 53q-77 41 -140 49q6 -186 106 -355q-100 -168 -106 -355z" />
    <glyph glyph-name="bullet" unicode="&#x2022;" horiz-adv-x="1017" 
d="M209 699q0 125 88.5 211.5t213.5 86.5q123 0 210 -87.5t87 -210.5q0 -124 -87.5 -212.5t-210.5 -88.5q-126 0 -213.5 88.5t-87.5 212.5z" />
    <glyph glyph-name="ellipsis" unicode="&#x2026;" horiz-adv-x="2113" 
d="M187 244l105 107q24 23 50 23q23 0 53 -26l102 -107q18 -29 18 -52q0 -26 -21 -50l-103 -111q-28 -32 -49 -32q-29 0 -51 23l-113 129q-15 23 -15 45q0 24 24 51zM836 244l105 107q24 23 50 23q25 0 53 -26l103 -107q20 -29 20 -52q0 -27 -25 -50l-100 -112
q-30 -31 -51 -31q-30 0 -50 23l-113 128q-15 24 -15 46q0 25 23 51zM1515 244l104 107q25 23 49 23t53 -26l104 -109q17 -28 17 -50q0 -26 -21 -50l-101 -112q-31 -31 -52 -31q-26 0 -50 22l-113 130q-15 23 -15 45q0 25 25 51z" />
    <glyph glyph-name="guilsinglleft" unicode="&#x2039;" horiz-adv-x="691" 
d="M124 496l429 380h36l28 -65l-241 -315l241 -315l-28 -65h-36z" />
    <glyph glyph-name="guilsinglright" unicode="&#x203a;" horiz-adv-x="692" 
d="M160 116h-37l-28 65l240 315l-240 316l28 64h37l427 -380z" />
    <glyph glyph-name="fraction" unicode="&#x2044;" horiz-adv-x="116" 
d="M-214 0h-125l671 1342h123z" />
    <glyph glyph-name="franc" unicode="&#x20a3;" horiz-adv-x="1008" 
d="M236 339h-184v93h184v674q0 204 -80 204h-109v85h897l114 -256h-88q-57 173 -168 173l-297 -2q-79 0 -79 -204v-314h322q77 0 77 41v73h85v-361h-85v76q0 39 -77 39h-322v-228h185v-93h-185v-50q0 -204 79 -204h109v-85h-567v85h109q80 0 80 204v50z" />
    <glyph glyph-name="Euro" unicode="&#x20ac;" horiz-adv-x="1051" 
d="M713 92q47 0 84.5 9t66 24.5t50 36.5t37.5 43q12 -8 23 -21.5t11 -42.5q0 -24 -17 -52t-52 -52t-88 -39.5t-127 -15.5q-88 0 -168.5 28t-146 90t-110.5 161t-62 241h-137v88h130q-2 22 -3 46.5t-1 43.5v42h-126v89h133q13 157 55 262t104.5 168.5t142 90t167.5 26.5
q71 0 129.5 -14t100 -39.5t64.5 -60.5t23 -76q0 -65 -41.5 -92t-121.5 -27q0 45 -9.5 84.5t-29.5 68.5t-52.5 46t-79.5 17q-49 0 -94 -21t-81 -73.5t-61.5 -140t-34.5 -219.5h395v-89h-399v-45v-44.5t2 -42.5h322v-88h-314q12 -100 39 -176.5t67.5 -128.5t93 -78.5
t116.5 -26.5z" />
    <glyph glyph-name="uni2116" unicode="&#x2116;" horiz-adv-x="1929" 
d="M965 0l-630 1083v-869q0 -44 12 -70.5t33 -41t49 -19t59 -4.5h25v-79h-461v79h25q32 0 60 4.5t49 19t33 41t12 70.5v922q0 41 -12 66.5t-33.5 39t-49.5 17.5t-59 4h-25v79h334l597 -1039v833q0 41 -12 66.5t-33.5 39t-49.5 17.5t-59 4h-24v79h460v-79h-24
q-31 0 -59.5 -4.5t-49 -18.5t-33 -40.5t-12.5 -71.5v-1128h-122zM1394 570q0 -122 32 -183.5t112 -61.5q79 0 112 61.5t33 183.5q0 120 -33.5 179.5t-113.5 59.5q-79 0 -110.5 -59.5t-31.5 -179.5zM1845 570q0 -162 -78.5 -241t-230.5 -79q-145 0 -226 80t-81 240
q0 162 78.5 240t232.5 78q70 0 126.5 -20t96 -59.5t61 -99t21.5 -139.5zM1294 0v141h489v-141h-489z" />
    <glyph glyph-name="trademark" unicode="&#x2122;" horiz-adv-x="1570" 
d="M1212 692v51q32 0 51.5 9t21.5 41v420l-213 -521h-65l-213 523v-414q0 -38 19.5 -48t55.5 -10v-51h-227v51h19q28 0 50 9t23 43v443q0 17 -6 27.5t-16.5 16t-23.5 7t-27 1.5h-19v52h216l207 -520l213 520h212v-52h-20q-16 0 -29 -2t-23 -7.5t-15 -17t-5 -30.5v-432
q0 -20 5 -31t15 -17.5t23 -8t29 -1.5h20v-51h-278zM386 801q0 -20 6 -31t16 -17.5t23 -8t27 -1.5h29v-51h-319v51h32q14 0 27 1.5t22.5 7.5t15 16.5t5.5 26.5v488h-83q-20 -1 -34 -6t-22 -14.5t-12.5 -21t-6.5 -24.5l-7 -45h-55l5 170h549l7 -170h-56l-7 45
q-4 26 -19.5 45.5t-55.5 20.5h-87v-482z" />
    <glyph glyph-name="onethird" unicode="&#x2153;" horiz-adv-x="1580" 
d="M493 0h-125l671 1342h123zM230 1217q-22 -22 -39.5 -38.5t-34 -26t-33 -14t-36.5 -4.5q-31 0 -49.5 21.5t-18.5 55.5q22 4 43 6.5t52 15t78 40t121 79.5h94v-677q0 -24 6.5 -38t17 -21.5t24.5 -10t31 -2.5h86v-63h-515v63h104q16 0 30 2.5t24.5 10t16.5 21.5t6 38v542h-8
zM1184 -15q-123 0 -187 43t-64 112q0 41 23.5 66.5t62.5 25.5q0 -29 9.5 -58t29.5 -52t50 -37t71 -14q78 0 122.5 38t44.5 125q0 66 -47.5 105t-151.5 39h-62v77h62q36 0 66 11.5t53 33t36 51t13 67.5q0 62 -25 95t-83 33q-35 0 -59 -13.5t-38.5 -36t-20.5 -52.5t-6 -62
q-32 0 -58 3.5t-44 12.5t-27.5 24.5t-9.5 40.5q0 34 17 63t50.5 50t82.5 33t113 12q63 0 114.5 -13t88 -37t56.5 -58t20 -79q0 -41 -16 -73.5t-42 -57.5t-61 -42.5t-73 -28.5v-10q37 -6 76.5 -17.5t72.5 -32.5t54 -54.5t21 -85.5q0 -69 -31 -116t-79.5 -76t-107.5 -42
t-116 -13z" />
    <glyph glyph-name="twothirds" unicode="&#x2154;" horiz-adv-x="1580" 
d="M522 0h-125l671 1342h123zM588 1159q0 -44 -10.5 -82.5t-34 -77.5t-62.5 -80t-98 -92l-199 -170h272q43 0 60 22.5t23 54.5l7 39h65l-6 -235h-572v85l239 213q41 38 69.5 76.5t45.5 77.5t24.5 77.5t7.5 75.5q0 31 -6 57.5t-19.5 45.5t-34.5 29.5t-51 10.5q-34 0 -58 -13
t-39 -35.5t-21 -52.5t-6 -62q-64 0 -100 15.5t-36 65.5q0 34 16.5 63t49 50t81 33t113.5 12q131 0 205.5 -52t74.5 -151zM1184 -15q-123 0 -187 43t-64 112q0 41 23.5 66.5t62.5 25.5q0 -29 9.5 -58t29.5 -52t50 -37t71 -14q78 0 122.5 38t44.5 125q0 66 -47.5 105
t-151.5 39h-62v77h62q36 0 66 11.5t53 33t36 51t13 67.5q0 62 -25 95t-83 33q-35 0 -59 -13.5t-38.5 -36t-20.5 -52.5t-6 -62q-32 0 -58 3.5t-44 12.5t-27.5 24.5t-9.5 40.5q0 34 17 63t50.5 50t82.5 33t113 12q63 0 114.5 -13t88 -37t56.5 -58t20 -79q0 -41 -16 -73.5
t-42 -57.5t-61 -42.5t-73 -28.5v-10q37 -6 76.5 -17.5t72.5 -32.5t54 -54.5t21 -85.5q0 -69 -31 -116t-79.5 -76t-107.5 -42t-116 -13z" />
    <glyph glyph-name="oneeighth" unicode="&#x215b;" horiz-adv-x="1580" 
d="M243 1217q-22 -22 -39.5 -38.5t-33.5 -26t-32.5 -14t-36.5 -4.5q-31 0 -49.5 21.5t-18.5 55.5q22 4 42.5 6.5t52 15t78.5 40t121 79.5h94v-677q0 -24 6 -38t17 -21.5t25 -10t30 -2.5h87v-63h-515v63h103q17 0 31 2.5t24.5 10t16.5 21.5t6 38v542h-9zM495 0h-125l671 1342
h123zM867 206q0 38 14 67t39.5 52t60 40.5t74.5 32.5q-32 16 -62 37t-52.5 48.5t-35.5 61t-13 73.5q0 37 15 73t49 65t88.5 47t132.5 18q61 0 109.5 -13t83 -37.5t53 -60t18.5 -79.5q0 -34 -13 -62.5t-35 -52t-52 -42t-63 -31.5q46 -22 82.5 -43.5t61.5 -48.5t38.5 -60.5
t13.5 -77.5q0 -48 -19.5 -89.5t-58 -72.5t-97 -48.5t-135.5 -17.5q-74 0 -129.5 17.5t-93 47.5t-56 70t-18.5 86zM1177 59q63 0 101 33.5t38 92.5q0 60 -47 101t-139 76q-43 -24 -71.5 -66.5t-28.5 -97.5q0 -28 9.5 -53.5t28 -44.5t46 -30t63.5 -11zM1288 627q0 22 -7 43.5
t-22 38.5t-37.5 27.5t-51.5 10.5q-57 0 -86 -32t-29 -79q0 -31 12.5 -55.5t33 -43t46.5 -32.5t54 -25q40 21 63.5 56.5t23.5 90.5z" />
    <glyph glyph-name="threeeighths" unicode="&#x215c;" horiz-adv-x="1580" 
d="M338 526q-123 0 -187.5 43t-64.5 111q0 42 23.5 67.5t63.5 25.5q0 -29 9.5 -58t29 -52t49.5 -37t71 -14q78 0 122.5 38t44.5 125q0 66 -47.5 105t-151.5 39h-61v77h61q36 0 66.5 11.5t53.5 32.5t35.5 51t12.5 68q0 62 -24.5 94.5t-82.5 32.5q-36 0 -60 -13t-38 -35.5
t-20 -52.5t-6 -62q-32 0 -58.5 3t-44 12.5t-27.5 25t-10 40.5q0 34 17 63t50.5 50t83 33t113.5 12q62 0 113.5 -13t88.5 -37t56.5 -58.5t19.5 -78.5q0 -41 -15.5 -73.5t-41.5 -57.5t-61 -43t-74 -29v-9q38 -6 77.5 -17.5t72 -32.5t53.5 -54.5t21 -85.5q0 -69 -30.5 -116
t-79.5 -76t-107.5 -42t-115.5 -13zM500 0h-124l671 1342h123zM869 206q0 38 14 67t39.5 52t59.5 40.5t75 32.5q-32 16 -62 37t-52.5 48.5t-36 61t-13.5 73.5q0 37 15.5 73t49.5 65t88.5 47t132.5 18q61 0 109.5 -13t83 -37.5t52.5 -60t18 -79.5q0 -34 -12.5 -62.5t-34.5 -52
t-52 -42t-63 -31.5q46 -22 82 -43.5t61.5 -48.5t39 -60.5t13.5 -77.5q0 -48 -19.5 -89.5t-58 -72.5t-97 -48.5t-135.5 -17.5q-74 0 -129.5 17.5t-93 47.5t-56 70t-18.5 86zM1179 59q63 0 101 33.5t38 92.5q0 60 -47 101t-139 76q-43 -24 -71.5 -66.5t-28.5 -97.5
q0 -28 9 -53.5t28 -44.5t46.5 -30t63.5 -11zM1290 627q0 22 -7.5 43.5t-22 38.5t-37 27.5t-51.5 10.5q-57 0 -86 -32t-29 -79q0 -31 12.5 -55.5t33 -43t46.5 -32.5t54 -25q40 21 63.5 56.5t23.5 90.5z" />
    <glyph glyph-name="fiveeighths" unicode="&#x215d;" horiz-adv-x="1580" 
d="M355 610q35 0 63.5 9.5t48.5 31t30.5 56.5t10.5 84q0 78 -44.5 117.5t-127.5 39.5q-60 0 -98.5 -11t-64.5 -23l-55 13l34 415h467l5 -199h-64l-7 34q-3 12 -6.5 20.5t-11 14.5t-20.5 9t-34 3h-257l-21 -226q24 9 65.5 18t101.5 9q148 0 228.5 -59.5t80.5 -179.5
q0 -59 -21.5 -106.5t-62.5 -81.5t-102 -53t-141 -19q-77 0 -128 12.5t-81.5 33t-43.5 47t-13 52.5q0 18 6 35t19.5 30t34.5 21.5t51 8.5q0 -32 11 -60.5t32 -50t50.5 -33.5t64.5 -12zM506 0h-125l671 1342h123zM869 206q0 38 14 67t39.5 52t59.5 40.5t75 32.5q-32 16 -62 37
t-52.5 48.5t-36 61t-13.5 73.5q0 37 15.5 73t49.5 65t88.5 47t132.5 18q61 0 109.5 -13t83 -37.5t52.5 -60t18 -79.5q0 -34 -12.5 -62.5t-34.5 -52t-52 -42t-63 -31.5q46 -22 82 -43.5t61.5 -48.5t39 -60.5t13.5 -77.5q0 -48 -19.5 -89.5t-58 -72.5t-97 -48.5t-135.5 -17.5
q-74 0 -129.5 17.5t-93 47.5t-56 70t-18.5 86zM1179 59q63 0 101 33.5t38 92.5q0 60 -47 101t-139 76q-43 -24 -71.5 -66.5t-28.5 -97.5q0 -28 9 -53.5t28 -44.5t46.5 -30t63.5 -11zM1290 627q0 22 -7.5 43.5t-22 38.5t-37 27.5t-51.5 10.5q-57 0 -86 -32t-29 -79
q0 -31 12.5 -55.5t33 -43t46.5 -32.5t54 -25q40 21 63.5 56.5t23.5 90.5z" />
    <glyph glyph-name="seveneighths" unicode="&#x215e;" horiz-adv-x="1580" 
d="M257 540l310 684h-321q-31 0 -45.5 -13t-16.5 -41l-8 -61h-68l7 233h562v-90l-298 -712h-122zM425 0h-125l671 1342h123zM869 206q0 38 14 67t39.5 52t59.5 40.5t75 32.5q-32 16 -62 37t-52.5 48.5t-36 61t-13.5 73.5q0 37 15.5 73t49.5 65t88.5 47t132.5 18
q61 0 109.5 -13t83 -37.5t52.5 -60t18 -79.5q0 -34 -12.5 -62.5t-34.5 -52t-52 -42t-63 -31.5q46 -22 82 -43.5t61.5 -48.5t39 -60.5t13.5 -77.5q0 -48 -19.5 -89.5t-58 -72.5t-97 -48.5t-135.5 -17.5q-74 0 -129.5 17.5t-93 47.5t-56 70t-18.5 86zM1179 59q63 0 101 33.5
t38 92.5q0 60 -47 101t-139 76q-43 -24 -71.5 -66.5t-28.5 -97.5q0 -28 9 -53.5t28 -44.5t46.5 -30t63.5 -11zM1290 627q0 22 -7.5 43.5t-22 38.5t-37 27.5t-51.5 10.5q-57 0 -86 -32t-29 -79q0 -31 12.5 -55.5t33 -43t46.5 -32.5t54 -25q40 21 63.5 56.5t23.5 90.5z" />
    <glyph glyph-name="minus" unicode="&#x2212;" horiz-adv-x="931" 
d="M80 594v129h770l1 -1v-128h-771z" />
    <glyph glyph-name="radical" unicode="&#x221a;" horiz-adv-x="984" 
d="M594 -13h-113l-267 750h-153v92h260l230 -652l416 1363h101z" />
    <glyph glyph-name="approxequal" unicode="&#x2248;" horiz-adv-x="1051" 
d="M495 408l-59.5 24.5t-46.5 16.5t-39.5 8t-39.5 2q-26 0 -53 -8.5t-54.5 -24t-53 -35.5t-47.5 -43v149q91 99 227 99q26 0 49 -2.5t48.5 -8.5t56 -17.5t73.5 -29.5q34 -15 60 -25t47 -16t40 -8t38 -2q26 0 53.5 8.5t54.5 23.5t52.5 35.5t47.5 43.5v-149q-90 -99 -227 -99
q-27 0 -49.5 2t-47.5 8t-56 17.5t-74 30.5zM495 784q-34 15 -59.5 24.5t-46.5 15.5t-39.5 8.5t-39.5 2.5q-26 0 -53 -9t-54.5 -23.5t-53 -35.5t-47.5 -43v148q90 100 227 100q26 0 49 -2t48.5 -8.5t56 -18t73.5 -29.5q34 -15 60 -24.5t47 -15.5t40 -8.5t38 -2.5q26 0 53.5 9
t54.5 23.5t52.5 34.5t47.5 44v-149q-90 -99 -227 -99q-27 0 -49.5 2.5t-47.5 8.5t-56 17.5t-74 29.5z" />
    <glyph glyph-name="lessequal" unicode="&#x2264;" horiz-adv-x="931" 
d="M851 986l-574 -329l574 -326v-154l-771 442v76l771 444v-153zM80 1v128h770h1v-128h-771z" />
    <glyph glyph-name="greaterequal" unicode="&#x2265;" horiz-adv-x="931" 
d="M80 1139l771 -444v-76l-771 -442v154l574 326l-574 329v153zM80 2v128h770l1 -1v-127h-771z" />
    <glyph glyph-name="uni25CC" unicode="&#x25cc;" horiz-adv-x="1152" 
d="M240 741q-19 0 -32.5 14t-13.5 36q0 21 13.5 35.5t32.5 14.5q18 0 31.5 -14.5t13.5 -35.5q0 -22 -13.5 -36t-31.5 -14zM398 843q-19 0 -32 14t-13 36q0 20 13 35t32 15t32.5 -15t13.5 -35q0 -22 -13.5 -36t-32.5 -14zM157 554q-20 0 -33 14.5t-13 36.5q0 20 13 35t33 15
q18 0 31 -15t13 -35q0 -22 -13 -36.5t-31 -14.5zM165 359q-18 0 -31 14.5t-13 35.5t13 35.5t31 14.5q19 0 32.5 -14.5t13.5 -35.5t-13.5 -35.5t-32.5 -14.5zM594 861q-18 0 -32 14.5t-14 35.5q0 20 14 35t32 15t31.5 -15t13.5 -35q0 -21 -13.5 -35.5t-31.5 -14.5zM239 172
q-18 0 -31.5 15t-13.5 35q0 22 13.5 36t31.5 14q19 0 32.5 -14t13.5 -36q0 -20 -13.5 -35t-32.5 -15zM780 824q-19 0 -32.5 14t-13.5 36q0 20 13.5 35t32.5 15q18 0 31.5 -15t13.5 -35q0 -22 -13.5 -36t-31.5 -14zM929 712q-20 0 -33 15t-13 35q0 21 13 35.5t33 14.5
q18 0 31 -14.5t13 -35.5q0 -20 -13 -35t-31 -15zM1002 545q-18 0 -31.5 14.5t-13.5 35.5t13.5 35.5t31.5 14.5q19 0 32.5 -14.5t13.5 -35.5t-13.5 -35.5t-32.5 -14.5zM388 61q-19 0 -32 14.5t-13 35.5t13 36t32 15t32.5 -15t13.5 -36t-13.5 -35.5t-32.5 -14.5zM584 33
q-19 0 -32.5 14.5t-13.5 35.5q0 20 13.5 35t32.5 15q18 0 31.5 -15t13.5 -35q0 -21 -13.5 -35.5t-31.5 -14.5zM779 61q-18 0 -31.5 14.5t-13.5 35.5q0 20 13.5 35t31.5 15q19 0 32.5 -15t13.5 -35q0 -21 -13.5 -35.5t-32.5 -14.5zM919 182q-19 0 -32 15t-13 35q0 21 13 35.5
t32 14.5q18 0 32 -14.5t14 -35.5q0 -20 -14 -35t-32 -15zM1002 359q-19 0 -32.5 14.5t-13.5 35.5t13.5 35.5t32.5 14.5q18 0 31.5 -14.5t13.5 -35.5t-13.5 -35.5t-31.5 -14.5z" />
    <glyph glyph-name="uniA9E0" unicode="&#xa9e0;" horiz-adv-x="1129" 
d="M313 187v66h-111v-66h111zM313 657h-151v-78h151v78zM621 798q164 0 279 -111t115 -273v-363l-43 -51h-914l-58 51v237q0 76 81 98q7 0 20 3h308q28 0 73 -25q20 -23 28 -76v-101h303v222q0 86 -57 143t-142 57h-139v-128l-51 -51h-368l-51 51v191q0 56 39 95t95 39h202
q24 0 45 -8h235z" />
    <glyph glyph-name="uniA9E1" unicode="&#xa9e1;" horiz-adv-x="1967" 
d="M33 610q38 78 121 127q101 63 225 63h237q172 0 278 -108.5t106 -279.5v-223h616v223q0 83 -53 141t-136 58h-134v189h136q169 0 279 -109.5t110 -278.5v-364l-48 -45h-816l-50 45l-48 -45l-803 -3l-50 51v181h196v-43h599v223q0 88 -48 143.5t-136 55.5h-148
q19 -30 19 -66v-194l-51 -51h-368l-51 51v191q0 7 1 14l-3 2q3 11 7 22q4 16 13 30zM323 527h-151v-78h151v78z" />
    <glyph glyph-name="uniA9E2" unicode="&#xa9e2;" horiz-adv-x="1967" 
d="M1524 790q107 -23 184 -99q110 -110 110 -279v-364l-48 -45h-816l-50 45l-48 -45l-803 -3l-50 51v181h196v-43h599v223q0 88 -48 143.5t-136 55.5h-228q-83 0 -141 -58t-58 -141l-174 146q32 114 141 179q101 63 225 63h237q172 0 278 -108.5t106 -279.5v-223h616v223
q0 51 -20 93v-24l-51 -51h-368l-51 51v191q0 56 39 95t95 39h202q34 0 62 -16zM1434 657h-151v-78h151v78z" />
    <glyph glyph-name="uniA9E3" unicode="&#xa9e3;" horiz-adv-x="1976" 
d="M313 187v66h-111v-66h111zM313 657h-151v-78h151v78zM1671 187v66h-111v-66h111zM936 647q17 21 37 40q114 111 278 111h238q124 0 227 -61q111 -68 144 -181l-174 -147q0 83 -58 141.5t-142 58.5h-227q-86 0 -142.5 -57t-56.5 -143v-222h303v101q7 53 27 76q46 25 74 25
h308l20 -3q81 -22 81 -98v-237l-58 -51h-1757l-58 51v237q0 76 81 98q7 0 20 3h308q28 0 73 -25q20 -23 28 -76v-101h303v222q0 86 -57 143t-142 57h-139v-128l-51 -51h-368l-51 51v191q0 56 39 95t95 39h202q24 0 45 -8h235q164 0 279 -111q20 -19 36 -40z" />
    <glyph glyph-name="uniA9E4" unicode="&#xa9e4;" horiz-adv-x="1903" 
d="M1515 187h111v66h-111v-66zM1015 409v-222h303v101q8 53 28 76q45 25 73 25h308q13 -3 20 -3q81 -22 81 -98v-237l-58 -51h-1719l-51 76v323q0 255 263 376l106 -151q-18 -8 -43 -23q-126 -71 -126 -172q0 -17 2 -25v-217h611v227q0 162 115 273t279 111h237
q124 0 227 -61q112 -68 144 -181l-174 -147q0 83 -58 141.5t-141 58.5h-228q-85 0 -142 -57t-57 -143z" />
    <glyph glyph-name="uniA9E5" unicode="&#xa9e5;" horiz-adv-x="2" 
d="M-955 1083q69 70 155 104q-81 96 -81 227q0 147 103 251.5t253 104.5q145 0 250 -104.5t105 -251.5h-157q0 82 -58 142t-142 60q-87 0 -145.5 -60t-58.5 -142q0 -84 59 -144q41 -43 96 -56q15 -1 32 -4q8 -1 17 -1v-3q121 -28 214 -123q67 -64 101 -143h-178
q-14 19 -32 37q-67 69 -152 84q-11 2 -23 4q-17 2 -35 2q-129 0 -215 -90q-19 -17 -32 -35l-174 1q33 77 98 140z" />
    <glyph glyph-name="uniA9E6" unicode="&#xa9e6;" horiz-adv-x="2" 
d="M-914 1110q5 32 37 46l561 288q23 9 40 5q23 -7 35.5 -35.5t6.5 -52.5q-5 -39 -33 -49l-557 -289q-29 -5 -45 -3q-24 7 -37 36.5t-8 53.5zM-1003 1330q5 31 39 46l560 288q23 9 42 4q17 -6 32 -34t10 -52q-6 -39 -32 -48l-561 -289q-29 -10 -45 -4q-21 6 -34.5 34
t-10.5 55z" />
    <glyph glyph-name="uniA9E7" unicode="&#xa9e7;" horiz-adv-x="1850" 
d="M857 -529h-2q1 940 1 955q0 127 -92 220q-91 91 -226 91q-92 0 -183 -59q-85 -62 -108 -142q2 -14 -0.5 -25t0.5 -18q13 -35 24 -49t36 -21q35 -16 58.5 -26t36.5 -19q99 -69 105 -171q1 -75 -58 -134q-62 -60 -139 -60q-38 0 -72 12t-63 32.5t-44.5 50.5t-15.5 64
q0 69 66 69q68 0 68 -69q0 -18 29 -28q29 -8 50 2q45 28 45 56q-7 54 -118 102q-59 21 -86 51q-23 15 -43 72q-18 45 -7 108q2 11 2 18v11q32 122 156 217q122 91 261 91q190 0 323 -131q24 -26 44 -55q44 63 113 114q131 100 293 100q188 0 317 -129q134 -127 134 -316
q0 -191 -129 -321q-128 -131 -314 -131q-88 0 -154 23q-56 11 -56 62q0 22 19.5 45t60.5 23q71 -26 130 -26q132 0 224 92t92 233q0 131 -95 223q-94 94 -228 94q-119 -9 -208 -76q-81 -62 -132 -157q12 -54 12 -113v-901h8v-97q0 -18 23 -40.5t58 -22.5h61l29 -14
q18 -21 29 -45q0 -42 -33 -62l-27 -9h-59q-82 0 -142 53q-58 47 -74 131v52z" />
    <glyph glyph-name="uniA9E8" unicode="&#xa9e8;" horiz-adv-x="1808" 
d="M1061 223q95 -95 228 -95q129 0 223 99q95 96 95 228t-92 223.5t-233 91.5q-131 0 -223 -91.5t-92 -232.5q0 -131 94 -223zM834 490v709q0 189 128 320q128 134 318 134q189 0 319 -129q131 -127 131 -317q0 -65 -61 -65q-67 0 -67 65q0 132 -94 224q-94 94 -228 94
q-131 0 -225.5 -94t-94.5 -230l2 -440q14 14 29 28q132 109 291 109q186 0 320 -126q133 -127 133 -317q0 -186 -127.5 -320.5t-318.5 -134.5q-134 0 -243 69q-46 28 -79 59v-429q0 -189 -129 -318q-127 -135 -318 -135t-321 130q-132 126 -132 313q0 84 64 84q65 0 65 -84
q0 -131 91.5 -222.5t232.5 -91.5q130 0 223 93q91 93 91 231v428q-29 -27 -70 -54q-108 -73 -242 -73q-189 0 -318 130q-132 127 -132 316q0 191 129 320q127 132 315 132l48 -5l47 -5q59 0 59 -65q0 -73 -74 -62l-83 9q-129 0 -221 -91.5t-92 -232.5q0 -131 94 -223
q94 -95 228 -95q128 0 223 99q74 76 89 173v63v27v0z" />
    <glyph glyph-name="uniA9E9" unicode="&#xa9e9;" horiz-adv-x="1808" 
d="M597 59q0 51 47 66q81 29 140 123q55 98 55 205q0 130 -93 222q-96 95 -229 95q-128 0 -222 -99q-95 -96 -95 -228q0 -106 52 -193t144 -126q35 -12 40 -59q0 -66 -83 -62q-121 38 -204 166q-77 128 -77 274q0 186 127 320.5t318 134.5q134 0 244 -68.5t143 -143.5
q30 68 138.5 140t241.5 72q189 0 319 -130q132 -127 132 -315q0 -192 -129 -322q-127 -131 -314 -131q-70 0 -114 15.5t-44 65.5q0 19 21 47q20 16 57 9l37 -9h43q132 0 223.5 92t91.5 233q0 130 -94 222q-94 95 -229 95q-128 0 -222 -99q-95 -96 -95 -228q0 -170 -98 -299
q-80 -111 -197 -143q-75 -16 -75 58zM1386 455q0 35 -24.5 59t-59.5 24q-36 0 -61 -24t-25 -59q0 -36 25 -61t61 -25q35 0 59.5 25t24.5 61zM1302 291q-66 0 -113 48t-47 115t47 114t113 47t113 -47t47 -114t-47 -115t-113 -48z" />
    <glyph glyph-name="uniA9EA" unicode="&#xa9ea;" horiz-adv-x="1808" 
d="M839 443q0 221 160 351q133 104 290 104q191 0 318.5 -134.5t127.5 -320.5q0 -190 -133 -316q-134 -127 -322 -127l-86 10q-65 13 -65 69q10 41 33 53t51 5q28 -9 69 -9q141 0 233 92t92 223q0 132 -95 228q-94 99 -223 99q-133 0 -230 -99q-97 -96 -97 -238
q0 -197 -157 -324q-131 -109 -290 -109q-187 0 -314 131q-129 130 -129 322q0 188 132 315q129 130 319 130l49 -2l62 -14q41 -22 41 -62q0 -34 -25 -51t-63 -8q-10 3 -26 3l-41 6q-132 0 -226 -95q-94 -92 -94 -222q0 -141 92 -233t223 -92q129 0 225 95q99 93 99 220z
M1386 455q0 35 -24.5 59t-59.5 24q-36 0 -61 -24t-25 -59q0 -36 25 -61t61 -25q35 0 59.5 25t24.5 61zM1302 291q-66 0 -113 48t-47 115t47 114t113 47t113 -47t47 -114t-47 -115t-113 -48z" />
    <glyph glyph-name="uniA9EB" unicode="&#xa9eb;" horiz-adv-x="1808" 
d="M967 453q0 -141 92.5 -233t222.5 -92q142 0 233.5 92t91.5 223q0 132 -94 228q-95 99 -224 99q-133 0 -227 -95q-95 -92 -95 -222zM1282 0q-158 0 -290 110q-153 133 -153 333q0 132 -93 228q-96 99 -224 99q-133 0 -228 -95q-94 -92 -94 -222q0 -141 92 -233t222 -92
l82 9q75 11 75 -62q0 -65 -60 -65l-46 -5l-49 -5q-188 0 -314 131q-130 130 -130 322q0 188 132 315q129 130 318 130q135 0 243 -72t139 -140q33 75 142.5 143.5t242.5 68.5q192 0 319 -134.5t127 -320.5q0 -190 -132 -316q-134 -127 -321 -127zM1386 455q0 35 -24.5 59
t-59.5 24q-36 0 -61 -24t-25 -59q0 -36 25 -61t61 -25q35 0 59.5 25t24.5 61zM1302 291q-66 0 -113 48t-47 115t47 114t113 47t113 -47t47 -114t-47 -115t-113 -48z" />
    <glyph glyph-name="uniA9EC" unicode="&#xa9ec;" horiz-adv-x="1922" 
d="M1019 269q-29 78 -31 166q-7 108 35 186v39q0 29 -18.5 54.5t-46.5 25.5q-27 0 -46 -25.5t-19 -54.5v-45q37 -75 37 -178q0 -78 -37 -159q-41 -101 -108 -164q-9 -12 -35 -30q-112 -78 -248 -78q-219 0 -342 185q-73 109 -73 241q0 232 177 355q118 83 252 83
q62 -2 63 -73q-1 -62 -63 -59q-87 0 -175 -64q-120 -87 -120 -239q0 -95 49 -168q82 -124 230 -124q92 0 169 56q55 36 59 48q27 31 36 57q35 86 35 133q0 74 -35 138q-1 9 -1 28v57q0 85 57.5 148.5t137.5 63.5q79 0 137 -63.5t58 -148.5v-55q0 -16 -9 -30
q-28 -64 -28 -138q0 -54 23 -119q36 -67 62 -90l44 -33q79 -58 171 -58q146 0 230 130q48 73 48 170q0 164 -122 252q-72 51 -158 51q-77 2 -72 81q13 54 74 51q124 0 233 -73q178 -127 178 -364q0 -135 -71 -244q-125 -186 -340 -186q-135 0 -251 81l-31 28
q-77 61 -115 155zM1492 455q0 35 -24.5 59t-59.5 24q-36 0 -61 -24t-25 -59q0 -36 25 -61t61 -25q35 0 59.5 25t24.5 61zM1408 291q-66 0 -113 48t-47 115t47 114t113 47t113 -47t47 -114t-47 -115t-113 -48z" />
    <glyph glyph-name="uniA9ED" unicode="&#xa9ed;" horiz-adv-x="1808" 
d="M746 675q-96 95 -229 95q-128 0 -222 -99q-95 -96 -95 -228q0 -131 92 -223t233 -92q131 0 222.5 92t91.5 233q0 130 -93 222zM204 127q-132 126 -132 316q0 186 127 320.5t318 134.5q134 0 244 -68.5t143 -143.5q30 68 138.5 140t241.5 72q189 0 319 -130
q132 -127 132 -315q0 -192 -129 -322q-127 -131 -315 -131l-48 5l-47 5q-60 0 -60 65q0 73 74 62l83 -9q131 0 222.5 92t91.5 233q0 130 -94 222q-94 95 -229 95q-128 0 -222 -99q-95 -96 -95 -228q0 -200 -151 -333q-132 -110 -291 -110q-186 0 -321 127zM521 291
q-66 0 -113 48t-47 115t47 114t113 47t113.5 -47t47.5 -114t-47.5 -115t-113.5 -48zM605 455q0 35 -24.5 59t-59.5 24q-36 0 -60.5 -24t-24.5 -59q0 -36 24.5 -61t60.5 -25q35 0 59.5 25t24.5 61zM1386 455q0 35 -24.5 59t-59.5 24q-36 0 -61 -24t-25 -59q0 -36 25 -61
t61 -25q35 0 59.5 25t24.5 61zM1302 291q-66 0 -113 48t-47 115t47 114t113 47t113 -47t47 -114t-47 -115t-113 -48z" />
    <glyph glyph-name="uniA9EE" unicode="&#xa9ee;" horiz-adv-x="1808" 
d="M746 675q-96 95 -229 95q-128 0 -222 -99q-95 -96 -95 -228q0 -131 92 -223t233 -92q131 0 222.5 92t91.5 233q0 130 -93 222zM1513 675q-94 95 -229 95q-128 0 -222 -99q-95 -96 -95 -228q0 -131 92.5 -223t232.5 -92q132 0 223.5 92t91.5 233q0 130 -94 222z
M1042.5 826q108.5 72 241.5 72q189 0 319 -130q132 -127 132 -315q0 -192 -129 -322q-127 -131 -314 -131q-133 0 -244 67t-144 141q-32 -66 -142.5 -137t-236.5 -71q-186 0 -321 127q-132 126 -132 316q0 186 127 320.5t318 134.5q134 0 244 -68.5t143 -143.5
q30 68 138.5 140zM521 291q-66 0 -113 48t-47 115t47 114t113 47t113.5 -47t47.5 -114t-47.5 -115t-113.5 -48zM605 455q0 35 -24.5 59t-59.5 24q-36 0 -60.5 -24t-24.5 -59q0 -36 24.5 -61t60.5 -25q35 0 59.5 25t24.5 61zM1386 455q0 35 -24.5 59t-59.5 24q-36 0 -61 -24
t-25 -59q0 -36 25 -61t61 -25q35 0 59.5 25t24.5 61zM1302 291q-66 0 -113 48t-47 115t47 114t113 47t113 -47t47 -114t-47 -115t-113 -48z" />
    <glyph glyph-name="uniA9EF" unicode="&#xa9ef;" horiz-adv-x="1228" 
d="M913 20q-17 -7 -35 -7q-28 0 -48.5 20.5t-20.5 47.5q0 33 30 54q168 102 168 297q0 123 -89 216.5t-215 93.5q-125 0 -216 -91q-50 -52 -70 -115q49 -9 105 -22q141 -61 174 -183q17 -45 13 -100q-16 -113 -133 -203q-11 -9 -23 -12q-12 -7 -31 -7q-18 0 -37 11
q-100 69 -164 182q-53 112 -55 221q-88 19 -166 122.5t-61 259.5q-1 23 9 38q10 26 37.5 33t58.5 -7q19 -17 8 -40q3 -206 129 -259q33 94 110 172q129 129 312 129q186 0 312 -128.5t126 -310.5q0 -123 -60.5 -236t-167.5 -176zM540 155q37 38 47 82q10 65 -30 107
q-41 46 -166 58h-10q12 -151 159 -247zM924 501q0 -49 -32.5 -82.5t-79.5 -33.5q-49 0 -81.5 33.5t-32.5 82.5t32.5 83t81.5 34q47 0 79.5 -34t32.5 -83zM812 551q-22 0 -35.5 -15t-13.5 -35q0 -23 13.5 -37t35.5 -14q20 0 33.5 14t13.5 37q0 20 -13.5 35t-33.5 15z" />
    <glyph glyph-name="uniA9F0" unicode="&#xa9f0;" horiz-adv-x="901" 
d="M366 -84q-83 16 -134 54q-27 17 -47 39q-46 47 -72 101q-20 61 -20 118v552q0 53 20 114q15 27 29 55q20 27 43 51q115 102 258 102q43 0 80 -7q42 -8 73 -22t62 -31q28 -21 50 -42q46 -49 67 -106q24 -52 24 -114v-552q0 -61 -24 -117q-25 -56 -69 -102
q-48 -45 -110 -71q-66 -31 -153 -31q-43 0 -77 9zM243 162q37 -76 115 -102q39 -16 85 -16q44 0 90 16q61 22 96 71q37 64 37 115v518q0 89 -67 145q-65 58 -156 58q-38 0 -77 -15q-40 -12 -75 -43q-64 -56 -65 -145v-518q0 -43 17 -84z" />
    <glyph glyph-name="uniA9F1" unicode="&#xa9f1;" horiz-adv-x="1141" 
d="M977 -428h-315q0 10 -1 23.5t-1 43.5q0 98 12.5 171t31.5 129.5t40.5 99t40.5 79t32 71.5t13 75q0 49 -19.5 88t-54.5 67.5t-85.5 44t-114.5 15.5q-58 0 -108.5 -12.5t-88 -36t-59.5 -54.5t-23 -67l1 -1q29 23 59.5 33.5t62.5 10.5q38 0 74.5 -15t65.5 -41.5t46 -64.5
t17 -82q0 -40 -13.5 -76t-39 -64.5t-63.5 -46t-85 -17.5q-57 0 -104 25t-79.5 66.5t-50.5 96.5t-18 113q0 68 24 131t73 111.5t125 78t179 29.5q97 0 172 -26t127.5 -69t80 -101t27.5 -122q0 -44 -13.5 -84t-32 -80t-41.5 -82.5t-42 -91.5t-31.5 -109.5t-12.5 -136.5h192
v-122zM294 1058q40 0 77 -14t65 -39.5t45.5 -62t17.5 -81.5q0 -39 -14 -75.5t-40 -64.5t-63.5 -44.5t-85.5 -16.5q-53 0 -92.5 19.5t-66.5 51t-41 72t-14 84.5q0 35 10.5 76.5t34 82.5t61 77.5t89.5 63.5t121.5 44t158.5 17q116 0 206.5 -29t154 -79.5t96.5 -120.5t33 -149
q0 -73 -26.5 -148.5t-73.5 -135.5l-100 73q32 43 51.5 99.5t19.5 109.5q0 55 -24 103.5t-69.5 84t-110.5 55.5t-148 20q-86 0 -156 -20.5t-117 -49.5zM310 150q0 -40 24 -64t61 -24q36 0 60 23t24 62q0 38 -24 64t-62 26q-20 0 -35.5 -7t-26 -19t-16 -28t-5.5 -33zM215 861
q0 -38 22.5 -62t58.5 -24q33 0 56 23t23 61q0 36 -22.5 61.5t-58.5 25.5q-38 0 -58.5 -25.5t-20.5 -59.5z" />
    <glyph glyph-name="uniA9F2" unicode="&#xa9f2;" horiz-adv-x="1057" 
d="M153 1493h11q37 0 62 -50q-3 -65 -3 -81q0 -242 213 -311q50 -10 83 -10q218 0 284 227q9 47 9 102q0 12 -3 73q27 50 63 50h11q64 0 64 -102v-53q0 -98 -64 -230q53 -106 53 -210q0 -153 -98 -286q-25 -10 -29 -10q-28 0 -79 69q-93 75 -192 75h-29q-181 0 -266 -199
q-17 -55 -17 -101v-31q0 -196 197 -286q47 -14 93 -14h22q167 0 268 185q23 18 43 18h6q56 -9 56 -56v-8q-6 -52 -108 -156q-122 -102 -262 -102h-35q-219 0 -353 203q-63 107 -63 238q0 242 227 385q98 45 195 45h19q142 0 256 -88h3q22 73 22 119q-3 56 -19 113h-3
q-119 -89 -274 -89q-273 0 -395 252q-31 93 -31 174v31q0 86 29 102q17 12 34 12z" />
    <glyph glyph-name="uniA9F3" unicode="&#xa9f3;" horiz-adv-x="1066" 
d="M863 717l29 -32q83 -118 83 -255q0 -220 -190 -346q-110 -73 -248 -73q-241 0 -371 181q-74 111 -74 238q-3 61 52 75q81 3 82 -73q0 -87 52 -161q89 -125 257 -125q98 0 173 50q131 84 131 234q0 93 -58 174l-34 45q-23 26 -91 62q-66 24 -121 24q-75 0 -142 -29
q-14 -9 -29 -9h-57q-86 0 -150.5 59.5t-64.5 139.5q0 81 64.5 140t150.5 59h59q19 0 27 -2q67 -36 142 -36q47 0 136 36q25 9 57 36q12 5 50 61q56 79 56 172q0 150 -126 235q-75 49 -171 49q-155 0 -243 -123q-66 -89 -66 -177q3 -63 -59 -65q-73 2 -75 65q0 136 85 256
q125 181 360 181q136 0 246 -75q189 -126 189 -348q0 -138 -80 -252q-19 -27 -31 -36q-64 -69 -165 -110q-85 -38 -163 -38q-106 0 -183 38h-45q-29 0 -55 -20t-26 -46q0 -29 26 -47.5t55 -18.5h41q79 43 189 35q89 -2 168 -31q96 -38 158 -117z" />
    <glyph glyph-name="uniA9F4" unicode="&#xa9f4;" horiz-adv-x="1072" 
d="M359 834q79 29 170 31q111 8 189 -35h40q29 0 55 18.5t26 47.5q0 26 -26 46t-55 20h-45q-77 -38 -182 -38q-79 0 -164 38q-101 41 -165 110q-12 9 -31 36q-78 114 -78 252q0 222 187 348q110 75 245 75q236 0 362 -181q84 -120 84 -256q-3 -63 -75 -65q-62 2 -59 65
q0 88 -65 177q-88 123 -243 123q-97 0 -171 -49q-127 -85 -127 -235q0 -93 56 -172q38 -56 51 -61q31 -27 56 -36q89 -36 137 -36q75 0 140 36q10 2 28 2h59q86 0 151.5 -59t65.5 -140q0 -80 -65.5 -139.5t-151.5 -59.5h-57q-15 0 -30 9q-65 29 -140 29q-56 0 -121 -24
q-69 -36 -93 -62l-33 -45q-58 -81 -58 -174q0 -150 132 -234q74 -50 173 -50q167 0 256 125q52 74 52 161q2 76 82 73q56 -14 54 -75q0 -127 -75 -238q-130 -181 -371 -181q-139 0 -249 73q-188 126 -188 346q0 137 80 255l30 32q62 79 157 117z" />
    <glyph glyph-name="uniA9F5" unicode="&#xa9f5;" horiz-adv-x="1039" 
d="M202 715q2 3 4 5q120 132 312 132q95 0 170.5 -29.5t145.5 -94.5q67 -64 103.5 -139t36.5 -179q0 -142 -55 -249q-17 -32 -25 -44t-25 -32l-86 -88l-37 -10q-23 0 -55 24l-15 43l23 44l64 67q23 23 37 54q43 88 43 191q0 109 -57 181t-139 110q-60 21 -129 21
q-122 0 -218 -92t-96 -216q0 -114 48 -202l40 -58l50 -48l18 -18q24 -33 11 -63q-12 -22 -40 -35h-48l-74 70q-29 31 -64 83q-72 124 -72 271q0 22 2 43h-3v689q0 191 129 321q131 135 315 135q192 0 321 -131q132 -126 132 -313q0 -67 -60 -78q-68 0 -68 78
q0 131 -91.5 223t-233.5 92q-130 0 -222 -94q-92 -92 -92 -230v-434z" />
    <glyph glyph-name="uniA9F6" unicode="&#xa9f6;" horiz-adv-x="1039" 
d="M843 137q-1 -2 -4 -5q-120 -132 -312 -132q-94 0 -170.5 29.5t-145.5 95.5q-66 64 -102.5 139t-36.5 179q0 142 55 249q17 32 25 43.5t25 31.5l85 88l38 10q22 0 54 -23l15 -43l-22 -44l-65 -68q-22 -22 -38 -54q-41 -88 -41 -190q0 -110 56 -181.5t140 -109.5
q59 -22 128 -22q122 0 218.5 92t96.5 216q0 114 -48 202l-40 58l-51 48l-18 18q-23 34 -10 63q11 23 40 35h47l73 -70q31 -30 66 -82q72 -124 72 -272q0 -21 -2 -43h3v-689q0 -191 -130 -320q-131 -135 -315 -135q-191 0 -322 130q-131 127 -131 314q0 66 60 78q68 0 68 -78
q0 -132 92 -224t233 -92q130 0 223 95q91 91 91 230v433z" />
    <glyph glyph-name="uniA9F7" unicode="&#xa9f7;" horiz-adv-x="1037" 
d="M528 3q-192 0 -322 126q-131 132 -131 317t126.5 319.5t318.5 134.5q173 0 313 -127q137 -122 137 -307l3 -1018q0 -19 22.5 -41t56.5 -22h57l28 -16q18 -19 29 -44q0 -42 -33 -62l-25 -9h-56q-80 0 -138 53q-56 47 -72 131v1017q0 131 -94 223q-95 94 -228 94
q-129 0 -223 -98q-94 -97 -94 -228l1 -56l6 -22l5 -10l45 24l77 10q118 0 211 -95q97 -96 97 -213l-10 -76zM356 179q83 -51 168 -51l10 1q-4 37 -63.5 96.5t-132.5 59.5l-51 -7l-26 -14q26 -44 95 -85z" />
    <glyph glyph-name="uniA9F8" unicode="&#xa9f8;" horiz-adv-x="1122" 
d="M318 658q-94 -93 -94 -227q0 -128 98 -224q97 -93 229 -93t223.5 91.5t91.5 232.5q0 131 -91.5 223.5t-233.5 92.5q-131 0 -223 -96zM868 118q-128 -132 -317 -132q-186 0 -321 127t-135 318q0 134 69.5 243.5t142.5 142.5q-66 30 -139 138.5t-73 243.5q0 189 130 317
q127 133 316 133q191 0 321 -130q131 -127 131 -314l-5 -49l-4 -46q0 -60 -66 -60q-73 0 -61 75l9 81q0 131 -91.5 223t-233.5 92q-131 0 -223 -94q-94 -95 -94 -228q0 -129 98 -224q97 -94 229 -94q199 0 333 -153q109 -131 109 -290q0 -186 -125 -320z" />
    <glyph glyph-name="uniA9F9" unicode="&#xa9f9;" horiz-adv-x="1808" 
d="M1062 223q94 -95 227 -95q129 0 224 99q94 96 94 228t-91.5 223.5t-233.5 91.5q-130 0 -222.5 -91.5t-92.5 -232.5q0 -131 95 -223zM1603 772q132 -127 132 -317q0 -186 -127 -320.5t-319 -134.5q-133 0 -242.5 68.5t-142.5 142.5q-31 -66 -139 -138.5t-243 -72.5
q-189 0 -318 130q-132 127 -132 316q0 191 130 320q126 132 314 132l49 -5l46 -5q60 0 60 -65q0 -73 -75 -62l-82 9q-130 0 -222 -91.5t-92 -232.5q0 -131 94 -223q95 -95 228 -95q128 0 224 99q93 96 93 228q0 199 153 334q132 109 290 109q187 0 321 -126z" />
    <glyph glyph-name="uniA9FA" unicode="&#xa9fa;" horiz-adv-x="1808" 
d="M1066 223q97 -95 226 -95q132 0 223.5 92t91.5 233q0 130 -94 222q-94 95 -227 95l-40 -6q-16 0 -27 -3q-38 -9 -62.5 8t-24.5 51q0 40 40 62l63 14l49 2q189 0 319 -130q132 -127 132 -315q0 -192 -129 -322q-127 -131 -314 -131q-159 0 -290 109q-158 127 -158 324
q0 142 -97 238q-97 99 -230 99q-128 0 -222 -99q-95 -96 -95 -228q0 -131 92 -223t233 -92q41 0 69 9q28 7 50.5 -5t33.5 -53q0 -56 -65 -69l-87 -10q-187 0 -322 127q-132 126 -132 316q0 186 127 320.5t318 134.5q158 0 291 -104q159 -130 159 -351q0 -127 99 -220z
M521 291q-66 0 -113 48t-47 115t47 114t113 47t113.5 -47t47.5 -114t-47.5 -115t-113.5 -48zM605 455q0 35 -24.5 59t-59.5 24q-36 0 -60.5 -24t-24.5 -59q0 -36 24.5 -61t60.5 -25q35 0 59.5 25t24.5 61z" />
    <glyph glyph-name="uniA9FB" unicode="&#xa9fb;" horiz-adv-x="1808" 
d="M746 675q-96 95 -229 95q-128 0 -222 -99q-95 -96 -95 -228q0 -131 92 -223t233 -92q131 0 222.5 92t91.5 233q0 130 -93 222zM204 127q-132 126 -132 316q0 186 127 320.5t318 134.5q134 0 244 -68.5t143 -143.5q30 68 138.5 140t241.5 72q189 0 319 -130
q132 -127 132 -315q0 -192 -129 -322q-127 -131 -315 -131l-48 5l-47 5q-60 0 -60 65q0 73 74 62l83 -9q131 0 222.5 92t91.5 233q0 130 -94 222q-94 95 -229 95q-128 0 -222 -99q-95 -96 -95 -228q0 -200 -151 -333q-132 -110 -291 -110q-186 0 -321 127zM1386 455
q0 35 -24.5 59t-59.5 24q-36 0 -61 -24t-25 -59q0 -36 25 -61t61 -25q35 0 59.5 25t24.5 61zM1302 291q-66 0 -113 48t-47 115t47 114t113 47t113 -47t47 -114t-47 -115t-113 -48z" />
    <glyph glyph-name="uniA9FC" unicode="&#xa9fc;" horiz-adv-x="1808" 
d="M746 675q-96 95 -229 95q-128 0 -222 -99q-95 -96 -95 -228q0 -131 92 -223t233 -92q131 0 222.5 92t91.5 233q0 130 -93 222zM1513 675q-94 95 -229 95q-128 0 -222 -99q-95 -96 -95 -228q0 -131 92.5 -223t232.5 -92q132 0 223.5 92t91.5 233q0 130 -94 222z
M1042.5 826q108.5 72 241.5 72q189 0 319 -130q132 -127 132 -315q0 -192 -129 -322q-127 -131 -314 -131q-133 0 -244 67t-144 141q-32 -66 -142.5 -137t-236.5 -71q-186 0 -321 127q-132 126 -132 316q0 186 127 320.5t318 134.5q134 0 244 -68.5t143 -143.5
q30 68 138.5 140zM1386 455q0 35 -24.5 59t-59.5 24q-36 0 -61 -24t-25 -59q0 -36 25 -61t61 -25q35 0 59.5 25t24.5 61zM1302 291q-66 0 -113 48t-47 115t47 114t113 47t113 -47t47 -114t-47 -115t-113 -48z" />
    <glyph glyph-name="uniA9FD" unicode="&#xa9fd;" horiz-adv-x="1093" 
d="M982 437q0 -180 -132 -309q-126 -129 -315 -129q-187 0 -316 129q-128 129 -128 309q0 114 58 225q61 113 164 182q19 14 39 14q29 0 49.5 -22t20.5 -51q0 -31 -29 -54q-167 -102 -167 -294q0 -125 90 -216q87 -93 219 -93q127 0 218 93q90 92 90 216q0 194 -168 294
q-31 23 -31 54q0 27 19.5 46.5t47.5 19.5q14 0 36 -7q56 -32 98.5 -77t73 -97.5t47 -111t16.5 -121.5zM542 277q-63 0 -107.5 45t-44.5 108q0 65 44.5 110t107.5 45t107 -45t44 -110q0 -63 -44 -108t-107 -45zM622 431q0 33 -23.5 56.5t-56.5 23.5q-34 0 -57 -23.5
t-23 -56.5q0 -34 23 -57t57 -23q33 0 56.5 23t23.5 57z" />
    <glyph glyph-name="uniA9FE" unicode="&#xa9fe;" horiz-adv-x="1808" 
d="M1061 223q95 -95 228 -95q129 0 223 99q95 96 95 228t-92 223.5t-233 91.5q-131 0 -223 -91.5t-92 -232.5q0 -131 94 -223zM962 761q14 14 29 28q132 109 291 109q186 0 320 -126q133 -127 133 -317q0 -186 -127.5 -320.5t-318.5 -134.5q-134 0 -243.5 68.5t-141.5 142.5
q-32 -66 -140 -138.5t-242 -72.5q-189 0 -318 130q-132 127 -132 316q0 191 129 320q127 132 315 132l48 -5l47 -5q59 0 59 -65q0 -73 -74 -62l-83 9q-129 0 -221 -91.5t-92 -232.5q0 -131 94 -223q94 -95 228 -95q128 0 223 99q94 96 94 228v19h-5v725q0 189 128 320
q128 134 318 134q189 0 319 -129q131 -127 131 -317q0 -65 -61 -65q-67 0 -67 65q0 132 -94 224q-94 94 -228 94q-131 0 -225.5 -94t-94.5 -230zM530 291q-67 0 -113.5 48t-46.5 115t46.5 114t113.5 47q66 0 113 -47t47 -114t-47 -115t-113 -48zM614 455q0 35 -24.5 59
t-59.5 24q-36 0 -60.5 -24t-24.5 -59q0 -36 24.5 -61t60.5 -25q35 0 59.5 25t24.5 61z" />
    <glyph glyph-name="uniAA60" unicode="&#xaa60;" horiz-adv-x="1808" 
d="M1347.5 278q-27.5 -12 -51 -32.5t-42.5 -48.5t-25 -44q39 -34 102 -34q52 0 101 37q47 46 63 90q-16 23 -38.5 33.5t-54.5 10.5q-27 0 -54.5 -12zM1593 349q14 47 14 104q0 130 -94 222q-94 95 -229 95q-128 0 -222 -99q-95 -96 -95 -228q0 -170 -98 -299
q-80 -111 -197 -143q-75 -16 -75 58q0 51 47 66q81 29 140 123q55 98 55 205q0 130 -93 222q-96 95 -229 95q-128 0 -222 -99q-95 -96 -95 -228q0 -106 52 -193t144 -126q35 -12 40 -59q0 -66 -83 -62q-121 38 -204 166q-77 128 -77 274q0 186 127 320.5t318 134.5
q134 0 244 -68.5t143 -143.5q30 68 138.5 140t241.5 72q189 0 319 -130q132 -127 132 -315q0 -192 -129 -322q-127 -131 -314 -131q-52 0 -90 9q-94 15 -158 72q13 37 56 99.5t98 109.5t117 74.5t122 27.5q74 0 124 -24q16 -9 32 -19z" />
    <glyph glyph-name="uniAA61" unicode="&#xaa61;" horiz-adv-x="1914" 
d="M1636 187v217q0 83 -53 141t-137 58h-227q-83 0 -141.5 -58t-58.5 -141v-217h617zM3 272v135q0 164 112 275t276 111h238q169 0 279 -110q7 -7 14 -15q6 7 13 14q112 111 276 111h238q169 0 279 -110t110 -279v-328l-51 -76h-914l-50 51v255h-7v98q0 83 -53 141t-137 58
h-227q-83 0 -141.5 -58t-58.5 -141v-32h138q53 0 93.5 -39t40.5 -92v-194l-51 -51h-368l-51 51v93l308 5v78l-254 -2l-50 50v1h-2z" />
    <glyph glyph-name="uniAA62" unicode="&#xaa62;" horiz-adv-x="1304" 
d="M78 808q0 70 66 70q62 0 62 -70v-548l196 256q30 47 61.5 44.5t42 -37t10.5 -74.5q6 -127 89.5 -222t198.5 -95q117 0 199.5 95.5t82.5 221.5q0 202 -149 304q-32 20 -32 55q0 26 16.5 48t45.5 22q14 0 35 -9q98 -65 155 -179t57 -241q0 -185 -118.5 -317t-291.5 -132
q-168 0 -288 132q-76 83 -101 186l-220 -287q-23 -35 -51 -29q-63 2 -66 64v742z" />
    <glyph glyph-name="uniAA63" unicode="&#xaa63;" horiz-adv-x="1783" 
d="M588 302q0 -55 13.5 -91.5t43.5 -64.5q59 26 119 106q50 82 50 170q0 105 -46 172q-21 -11 -57 -43t-64 -72t-43.5 -85.5t-15.5 -91.5zM1485 678q-95 94 -228 94q-129 0 -223 -98q-94 -97 -94 -228q0 -132 91.5 -224t232.5 -92q131 0 222.5 92t91.5 233q0 131 -93 223z
M884 199q-6 -9 -11 -18q-66 -106 -198 -162l-48 2q-22 0 -55 28q-42 44 -68 113q-23 63 -23 135q0 122 68.5 232.5t145.5 148.5q-12 14 -73 42.5t-121 28.5q-132 0 -231 -93q-80 -74 -95 -175h-3v-1q12 -36 22.5 -50t35.5 -23q33 -16 56 -26.5t36 -19.5q96 -71 102 -176
q2 -76 -57 -138t-134 -62q-38 0 -71.5 12.5t-61.5 34t-43 52.5t-15 66q0 69 65 69t65 -69q0 -20 31 -30q27 -8 46 3q45 29 45 56q-7 56 -115 105q-58 23 -84 54q-23 15 -42 74q-18 47 -6 111q2 12 2 18.5v11.5h11q32 107 121 193q138 131 320 131q180 0 309 -135
q33 -33 59 -71q27 50 70 94q125 135 318 135q188 0 318 -129q132 -127 132 -316q0 -191 -130 -321q-126 -131 -313 -131q-186 0 -320 126q-35 34 -60 70z" />
    <glyph glyph-name="uniAA64" unicode="&#xaa64;" horiz-adv-x="1819" 
d="M1520 678q-94 94 -228 94q-129 0 -223 -98q-94 -97 -94 -228q0 -132 91.5 -224t232.5 -92q131 0 223 92t92 233q0 131 -94 223zM906 219q-28 -44 -67 -87q-120 -132 -312 -132q-94 0 -170.5 29.5t-145.5 95.5q-66 64 -102.5 139t-36.5 179q0 142 55 249q17 32 25 43.5
t25 31.5l85 88l38 10q22 0 54 -23l15 -43l-22 -44l-65 -68q-22 -22 -38 -54q-41 -88 -41 -190q0 -110 56 -181.5t140 -109.5q59 -22 128 -22q122 0 218.5 92t96.5 216q0 114 -48 202l-40 58l-51 48l-18 18q-23 34 -10 63q11 23 40 35h47l73 -70q31 -30 66 -82q6 -11 12 -23
q26 41 61 78q125 135 318 135q188 0 318 -129q132 -127 132 -316q0 -191 -130 -321q-126 -131 -313 -131q-186 0 -320 126q-44 42 -73 90z" />
    <glyph glyph-name="uniAA65" unicode="&#xaa65;" horiz-adv-x="1874" 
d="M1020 -601q0 -175 -85 -282.5t-240 -107.5h-170v6h-85q-123 0 -216.5 86t-104.5 214l-3 27q37 327 331 332q-205 -112 -205 -296q0 -18 1 -35v-27q0 -39 22 -62q75 -103 175 -103l16 -5h239q99 0 147.5 68t48.5 185v638h2q-1 64 -1 117q-25 -29 -55 -52
q-132 -99 -293 -99q-188 0 -318 128q-133 128 -133 316q0 192 128 321q128 132 314 132q88 0 155 -24q55 -10 55 -61q0 -23 -19.5 -46t-60.5 -23q-71 26 -130 26q-132 0 -224 -92t-92 -233q0 -131 95 -222q94 -95 229 -95q118 9 207 76.5t142 174.5v74q0 189 133 316
q128 129 317 129q192 0 319 -134.5t127 -319.5q0 -190 -133 -317q-134 -126 -320 -126q-119 0 -212 53l3 2q-18 20 -18 45q0 27 19.5 46.5t48.5 19.5t48 -19q1 0 1 -1q51 -19 110 -19q141 0 232.5 92t91.5 224q0 131 -94 228q-94 98 -223 98q-133 0 -228 -94
q-94 -92 -94 -223v-462v0v-594z" />
    <glyph glyph-name="uniAA66" unicode="&#xaa66;" horiz-adv-x="1932" 
d="M816 404q0 83 -53 141t-137 58h-227q-83 0 -141.5 -58t-58.5 -141v-222h617v222zM937 644q35 66 113.5 107.5t158.5 41.5h238q169 0 279 -110t110 -279v-359l-51 -50h-288v187h137v222q0 83 -53 141t-137 58h-227q-76 0 -137.5 -63t-61.5 -139v-356l-51 -50h-914l-50 50
v362q0 164 112 275t276 111h238q202 0 308 -149zM631 453h-259v-134h259v134z" />
    <glyph glyph-name="uniAA67" unicode="&#xaa67;" horiz-adv-x="1944" 
d="M199 187h617v222q0 83 -53 141.5t-137 58.5h-227q-83 0 -141.5 -58.5t-58.5 -141.5v-222zM3 412q0 164 112 275t276 111h238q202 0 308 -149q35 66 113.5 107.5t158.5 41.5h238q169 0 279 -110t110 -279v-358l-51 -51h-813l-50 45l-48 -45h-821l-50 51v361zM1634 409
q0 83 -53 141.5t-137 58.5h-227q-76 0 -137.5 -63.5t-61.5 -138.5v-220h616v222zM631 453h-259v-134h259v134z" />
    <glyph glyph-name="uniAA68" unicode="&#xaa68;" horiz-adv-x="1932" 
d="M816 404q0 83 -53 141t-136 58h-227q-84 0 -142 -58t-58 -141v-222h616v222zM1674 218h-152v-78h152v78zM1831 328v-60q4 -15 4 -32v-195l-4 -4v-2l-32 -30l-14 -14h-1l-1 -1h-273v1h-94l-50 50v192q0 56 39 95t94 39h130v32q0 13 -1 25h5q-5 70 -52 121q-53 58 -136 58
h-227q-76 0 -138 -63t-62 -139v-356l-50 -50h-914l-51 50v362q0 164 112.5 275t276.5 111h238q202 0 308 -149q35 66 113 107.5t159 41.5h238q169 0 278.5 -110t109.5 -279v-76h-5zM631 453h-259v-134h259v134z" />
    <glyph glyph-name="uniAA69" unicode="&#xaa69;" horiz-adv-x="1944" 
d="M631 453h-259v-134h259v134zM199 187h617v222q0 83 -53 141.5t-137 58.5h-227q-83 0 -141.5 -58.5t-58.5 -141.5v-222zM919 43l-45 -43h-821l-50 51v361q0 164 112 275t276 111h238q202 0 308 -149q35 66 113.5 107.5t158.5 41.5h238q169 0 279 -110t110 -279v-358
l-51 -51h-823zM1068 187h151v40h-151v-40zM1018 374q13 2 27 2h202q53 0 93.5 -39t40.5 -92v-58h253v222q0 83 -53 141.5t-137 58.5h-227q-76 0 -137.5 -63.5t-61.5 -138.5v-33z" />
    <glyph glyph-name="uniAA6A" unicode="&#xaa6a;" horiz-adv-x="1944" 
d="M199 187h617v222q0 83 -53 141.5t-137 58.5h-227q-83 0 -141.5 -58.5t-58.5 -141.5v-222zM919 43l-45 -43h-821l-50 51v361q0 164 112 275t276 111h238q202 0 308 -149q35 66 113.5 107.5t158.5 41.5h238q169 0 279 -110t110 -279v-358l-51 -51h-823zM1068 187h151v40
h-151v-40zM1018 374q13 2 27 2h202q53 0 93.5 -39t40.5 -92v-58h253v222q0 83 -53 141.5t-137 58.5h-227q-76 0 -137.5 -63.5t-61.5 -138.5v-33z" />
    <glyph glyph-name="uniAA6B" unicode="&#xaa6b;" horiz-adv-x="1264" 
d="M949 12q-19 -8 -39 -8q-29 0 -50.5 21t-21.5 49q0 35 32 56q177 104 177 306q0 126 -93 222t-227 96q-132 0 -227 -94q-52 -53 -75 -118q54 -8 112 -23q148 -62 184 -188q16 -46 12 -102q-15 -117 -140 -209q-14 -9 -24 -13q-13 -7 -32 -7t-39 12q-106 71 -175 187
q-57 116 -58 226q-93 21 -173.5 127t-63.5 267q-2 24 7 41q14 23 42.5 31t59.5 -8q30 -16 35 -40q-12 -211 111 -266q35 97 117 177q135 132 327 132q195 0 328.5 -132t133.5 -318q0 -127 -64.5 -244t-175.5 -180zM543 151q35 39 43 83q9 67 -26 111q-35 47 -143 59h-9
q11 -155 135 -253z" />
    <glyph glyph-name="uniAA6C" unicode="&#xaa6c;" horiz-adv-x="1957" 
d="M1036 259q-29 78 -31 168q-9 111 35 188v42q0 29 -18.5 54.5t-46.5 25.5t-47.5 -25.5t-19.5 -54.5v-45q38 -78 38 -184q0 -78 -38 -162q-41 -102 -110 -166q-9 -11 -36 -30q-113 -80 -253 -80q-222 0 -347 189q-75 110 -75 245q0 235 181 361q120 85 256 85q63 -3 64 -75
q-1 -62 -64 -59q-88 0 -178 -66q-122 -88 -122 -243q0 -96 49 -171q85 -127 234 -127q94 0 173 57q56 38 61 50q26 32 36 57q36 89 36 135q0 76 -36 142q-2 8 -2 28v59q0 86 59 150.5t141 64.5q80 0 138.5 -64.5t58.5 -150.5v-57q0 -15 -8 -30q-30 -66 -30 -142
q0 -54 25 -120q37 -68 62 -92l46 -34q79 -57 172 -57q150 0 235 131q51 75 51 172q0 168 -126 258q-74 51 -162 51q-77 2 -73 83q15 55 75 52q128 0 239 -74q181 -130 181 -371q0 -138 -72 -248q-128 -190 -348 -190q-137 0 -255 82l-31 29q-79 63 -117 159z" />
    <glyph glyph-name="uniAA6D" unicode="&#xaa6d;" horiz-adv-x="1648" 
d="M646 689q0 33 -20.5 53t-53.5 25q-29 0 -48 -22.5t-19 -55.5q-6 -26 16 -49.5t51 -23.5q33 0 53.5 23.5t20.5 49.5zM640 499q-35 -7 -64 -7q-83 -2 -140 56.5t-60 140.5q-1 83 58 142t142 64q82 1 140 -61q35 -36 48 -79h2q143 140 323 140q184 0 317 -135.5t133 -327.5
q0 -189 -131 -322q-135 -133 -313 -133q-70 0 -119 18.5t-49 65.5q0 70 67 70q15 0 34.5 -9t72.5 -9q113 0 210 99q90 87 90 220q0 141 -93.5 232t-218.5 91q-126 0 -225 -97q-72 -79 -89 -117v-1165q-6 -155 -108 -258t-254 -106q-144 0 -252 104q-90 95 -100 222
q1 35 33.5 50.5t65.5 2.5t39 -53q11 -73 64 -122q62 -68 150 -68q95 0 156.5 65.5t70.5 155.5v1130z" />
    <glyph glyph-name="uniAA6E" unicode="&#xaa6e;" horiz-adv-x="1934" 
d="M424 0l51 51v194q0 53 -40.5 92t-93.5 39h-142v28q0 86 57 142.5t143 56.5h227q84 0 137 -58t53 -141v-348l50 -56h917l53 56v368q0 255 -263 376l-106 -151q18 -8 43 -23q61 -35 83 -63q26 -35 36 -101q0 -13 5 -33v-242h-616v217q0 172 -109 280.5t-280 108.5h-238
q-161 0 -274.5 -112.5t-113.5 -273.5v-356l50 -51h371zM313 227v-78h-151v78h151z" />
    <glyph glyph-name="uniAA6F" unicode="&#xaa6f;" horiz-adv-x="1458" 
d="M1245 444q0 121 -89 210t-213 89q-126 0 -211 -87t-85 -212q0 -126 87 -214.5t209 -88.5q124 0 213 88.5t89 214.5zM537 596q31 85 99 158q123 124 307 124q178 0 304.5 -127t126.5 -307q2 -177 -125.5 -306.5t-305.5 -129.5q-173 0 -303 129q-130 130 -130 307l-294 228
v-592q0 -67 -66 -67q-69 0 -69 67v710q-3 11 0 16q0 63 62 72q26 2 51 -17z" />
    <glyph glyph-name="uniAA70" unicode="&#xaa70;" horiz-adv-x="997" 
d="M809 1028q-97 35 -169 46.5t-138 11.5q-71 0 -141 -13.5t-169 -44.5q-16 14 -23 26t-15 19q-16 11 -46 57q108 44 197.5 63.5t183.5 19.5q180 0 402 -83zM810 1250q-99 23 -171.5 35.5t-138.5 12.5q-69 0 -139 -11t-169 -37q-12 14 -23.5 26t-20.5 20l-41 53
q110 42 199 59.5t183 17.5q95 0 188.5 -17.5t213.5 -59.5z" />
    <glyph glyph-name="uniAA71" unicode="&#xaa71;" horiz-adv-x="1808" 
d="M95 288q-23 75 -23 155q0 186 127 320.5t318 134.5q134 0 244 -68.5t143 -143.5q30 68 138.5 140t241.5 72q189 0 319 -130q132 -127 132 -315q0 -192 -129 -322q-127 -131 -314 -131q-70 0 -114 15.5t-44 65.5q0 19 21 47q20 16 57 9l37 -9h43q132 0 223.5 92t91.5 233
q0 130 -94 222q-94 95 -229 95q-128 0 -222 -99q-95 -96 -95 -228q0 -170 -98 -299q-80 -111 -197 -143q-75 -16 -75 58q0 51 47 66q81 29 140 123q55 98 55 205q0 130 -93 222q-96 95 -229 95q-128 0 -222 -99q-82 -83 -93 -191q11 -1 22 -3q54 -9 112 -49
q48 -31 81.5 -83.5t49 -115t12.5 -130t-14 -101.5q-42 -2 -84 6q-13 -2 -28 -1q-51 16 -96 49q-12 5 -23 14q-95 63 -132 182q-5 21 -7 40zM317 323q-26 15 -48 16t-45 -9q-8 -43 10 -101q22 -52 64 -75q51 -27 97 -18q2 16 -0.5 46.5t-12.5 58t-26.5 49.5t-38.5 33z" />
    <glyph glyph-name="uniAA72" unicode="&#xaa72;" horiz-adv-x="2116" 
d="M340 323q34 -10 70 -24q-18 60 -18 125q0 183 129.5 315.5t317.5 132.5t320 -133q29 -30 55 -72q26 43 63 76q130 129 309 129q182 0 313.5 -129.5t131.5 -310.5q-2 -184 -132.5 -312t-312.5 -128q-186 0 -312 127q-32 30 -55 61q-59 -114 -168 -177q-19 -11 -38 -11
q-29 0 -46.5 21t-17.5 51q0 32 29 55q166 101 166 305q0 125 -88.5 220t-216.5 95q-129 0 -218 -93.5t-89 -221.5q0 -199 161 -305q29 -23 29 -55v-2l-8 -28q-1 -14 -9 -24q-21 -21 -47 -21q-18 -3 -62.5 -6t-115.5 4q-69 7 -131 26q-143 57 -210 141q-71 92 -74 165
q141 39 275 4zM178 246q7 -26 38 -53q55 -51 157 -91q64 -14 124 -14q-8 12 -16 25q0 6 -3 9q-11 15 -24 27q-64 62 -166 90q-61 11 -110 7zM1586 739q-122 0 -213.5 -91t-91.5 -216q0 -128 88 -215t217 -87q128 0 218 89.5t90 212.5q0 125 -90 216t-218 91z" />
    <glyph glyph-name="uniAA73" unicode="&#xaa73;" horiz-adv-x="1396" 
d="M490 197l-279 416v-543q0 -66 -58 -66q-70 0 -70 66v731v3q0 68 70 68v0q34 3 58 -32l397 -570l4 -5h-2q16 -17 36 -39q88 -95 214 -95t217 94.5t91 220.5q0 201 -169 303q-29 21 -29 55q0 29 20 48.5t47 19.5q17 0 36 -6q107 -65 170 -178t63 -242q0 -181 -129 -314
t-317 -133q-183 0 -310 132q-34 33 -60 66v0z" />
    <glyph glyph-name="uniAA74" unicode="&#xaa74;" horiz-adv-x="1408" 
d="M763 243q86 97 86 219q0 137 -86 238v-457zM639 -867q0 24 -18.5 41t-38.5 18q-28 0 -43 -17t-15 -42q-2 -19 14 -37.5t44 -18.5q20 0 38.5 18.5t18.5 37.5zM639 26q-54 -13 -109 -13q-185 0 -318.5 132t-133.5 317q0 114 64 229.5t164 181.5q19 14 40 14q30 0 49 -20.5
t19 -49.5q0 -36 -31 -56q-166 -108 -166 -299q0 -130 91 -223.5t222 -93.5q55 0 109 19v653q0 26 19.5 47t46.5 21q19 0 39 -12q109 -59 171 -175.5t62 -235.5q0 -185 -128 -317q-36 -30 -84 -59v-823l361 -148v304l67 1l-67 1v1222q-14 103 -51.5 161t-105.5 67h-18v13
l-15 -1q-101 0 -195 48q-127 64 -215.5 195t-88.5 279q0 209 141.5 345t326.5 144q35 0 64 5q101 -7 217 -47q189 -73 292 -162q174 -122 322 -430q-179 204 -269 279q-111 82 -286 150.5t-299 68.5q-132 0 -257 -94q-106 -91 -106 -256q0 -144 107 -266t258 -138q11 0 23 1
v-4q31 -1 59 -11q184 -53 231 -337v-1235h-8v-405q0 -68 -59 -68q-21 0 -34 5q-9 3 -10 4l-376 161q-5 -67 -54 -117q-58 -53 -138 -55q-81 -2 -138.5 53.5t-59.5 134.5q-1 84 57 139.5t141 57.5q30 0 57 -9v707z" />
    <glyph glyph-name="uniAA75" unicode="&#xaa75;" horiz-adv-x="2193" 
d="M1306 -878q0 19 -16 35.5t-42 17.5q-21 0 -36.5 -15.5t-15.5 -37.5q-3 -27 14 -43.5t38 -16.5q26 0 42 16.5t16 43.5zM1306 -4q-65 0 -112.5 18t-47.5 62q0 72 64 72q19 0 40 -7t32 -8t27 -1q117 0 207 91.5t90 218.5t-89.5 218t-210.5 91q-125 0 -217 -93
q-76 -75 -89 -199v-26q0 -286 -205 -417q-24 -9 -38 -9q-32 0 -50 22t-18 47q0 32 32 56q135 84 144 278q-1 17 0 41q-5 120 -93 210t-212 90q-97 0 -186.5 -63t-111.5 -139q-2 -15 -2 -37t24 -56q16 -19 38 -29q83 -30 104 -44q94 -70 97 -172q7 -112 -114 -179
q-33 -19 -87 -19q-78 0 -140 44t-62 110t67 66q71 0 71 -66q0 -23 33 -27q27 -3 55 12q44 24 44 48q-3 61 -112 105q-64 24 -83 56q-45 23 -59 112q-8 61 1 96q33 121 156.5 219t266.5 98q241 0 375 -213q25 44 59 80q133 133 312 133q173 0 304 -129.5t131 -313.5
t-129 -311q-77 -79 -179 -113v-769l448 -162v1537q-14 103 -52 161t-105 67h-18v13l-16 -1q-100 0 -194 49q-127 63 -216 194t-89 279q0 209 142 345t326 144q36 0 65 5q100 -7 216 -47q190 -73 292 -161q174 -123 323 -431q-179 204 -270 279q-110 82 -285.5 150.5
t-299.5 68.5q-132 0 -257 -94q-106 -91 -106 -256q0 -144 107 -266t258 -138q12 0 24 1v-4q31 -1 59 -11q183 -53 231 -337v-1589l5 -2v-49q0 -67 -57 -68h-10q-13 0 -29 7l-483 175q-5 -75 -55 -125q-57 -57 -141 -59q-76 -2 -131 54.5t-57 140.5q-2 81 54.5 135.5
t133.5 56.5q30 1 60 -5v689z" />
    <glyph glyph-name="uniAA76" unicode="&#xaa76;" horiz-adv-x="2172" 
d="M1270 -873q0 21 -15 38.5t-41 18.5q-19 0 -36.5 -17.5t-17.5 -39.5q0 -24 17.5 -41.5t36.5 -17.5q26 0 41 17.5t15 41.5zM960 -778q0 -130 -43 -196q-65 -93 -182 -93h-445q-79 0 -135 67.5t-56 164.5q0 82 43 154q69 129 236 129q123 0 222 -82q26 -18 26 -49
q0 -28 -21.5 -49t-52.5 -21q-21 0 -41 18q-58 48 -135 48t-110 -55.5t-33 -108.5q0 -76 57 -76h445q54 0 76.5 32.5t22.5 116.5v1230q0 123 -89 210t-216 87q-65 0 -152 -41.5t-110 -94.5q-21 -43 -59 -43q-27 0 -51.5 21.5t-24.5 51.5q0 18 9 31q5 10 7 13l34 44
q133 155 347 155q190 0 309 -117q43 -38 68 -82q25 32 55 64q133 135 309 135q178 0 308.5 -129t130.5 -316q0 -184 -125 -309q-83 -80 -184 -114v-752l461 -169v307h2v1221q-14 103 -52 161t-105 67h-18v13l-15 -1q-101 0 -195 49q-127 63 -216 194t-89 279q0 209 142 345
t326 144q36 0 65 5q100 -7 216 -47q190 -73 292 -161q174 -123 323 -431q-179 204 -270 279q-110 82 -285.5 150.5t-299.5 68.5q-132 0 -256 -94q-106 -91 -106 -256q0 -144 106.5 -266t257.5 -138q12 0 24 1v-4q31 -1 59 -11q183 -53 231 -337v-1594h-1v-38q0 -70 -67 -70
h-9q-15 0 -32 9l-480 177q-4 -77 -56 -129q-58 -57 -139 -59q-78 -2 -132.5 54.5t-56.5 139.5q0 80 55.5 136t133.5 58q31 3 56 -6v682q-65 0 -110.5 18t-45.5 59q0 74 64 74q20 0 39.5 -6t32 -7t28.5 -1q113 0 204 91t91 218t-91 217.5t-212 90.5t-215 -95
q-79 -74 -95 -197v-1235z" />
    <glyph glyph-name="uniAA77" unicode="&#xaa77;" horiz-adv-x="1085" 
d="M684 -119q-80 -156 -96 -449q-1 -15 -1 -32l-1 -23h133q69 0 69 -74q1 -64 -69 -64h-203q-65 0 -65 68v70q1 20 2 41h1q1 12 1 24h1q20 342 120 506q145 236 217 389q27 67 32 135q-8 121 -95 209q-90 91 -221 91q-94 0 -183 -58.5t-109 -138.5q2 -18 0.5 -28.5
t-0.5 -20.5q17 -34 26 -48.5t34 -21.5q70 -29 96 -44q99 -71 103 -172q4 -75 -58 -135.5t-137 -60.5q-74 0 -134 47.5t-60 112.5q0 74 69 74q63 0 63 -74q0 -20 32 -24q26 -13 47 2q47 22 47 52q-7 54 -117 103q-59 21 -85 52q-28 17 -49 73q-15 45 -1 107v31
q35 123 157 216q84 63 177 84q-80 27 -148 93q-116 117 -116 276q0 153 112 271q108 115 273 115q121 0 220 -67.5t151 -188.5l9 -31q0 -66 -68 -66q-47 0 -60 40q-10 39 -33.5 72t-57 58t-74.5 39t-87 14q-105 0 -181 -76q-75 -70 -75 -180t74 -184q70 -74 181 -74l66 7
q30 0 52 -16q25 -13 25 -52q0 -41 -49 -60q104 -31 186 -115q123 -127 132 -296v-11q-3 -92 -39 -186q-60 -130 -153 -271l197 -412l22 -42q7 -12 29 -16q33 -15 73 5l86 45l37 11q30 0 51 -33q11 -24 2 -60l-33 -34l-94 -48q-42 -22 -91 -31q-34 -9 -87 13q-30 16 -66 54
l-48 77z" />
    <glyph glyph-name="uniAA78" unicode="&#xaa78;" horiz-adv-x="1529" 
d="M338 56q6 93 102 191q98 88 241 86q146 0 249 -85v-1q30 209 79 404q64 259 177 475q106 178 227.5 193t206.5 -44q87 -69 60 -114t-93 -13q-47 39 -122 52t-152 -113q-110 -211 -176 -473t-100 -553q-1 -9 -11 -20q-2 -4 -4 -10q-24 -22 -53 -17h-3q-66 -3 -72 42
q-13 60 -67 103q-59 48 -146 48q-91 -3 -146 -54q-60 -60 -67 -97q-5 -49 -66 -45.5t-64 45.5zM451 833q6 -43 61 -100q61 -49 150 -51q88 -2 146 45q56 44 64 106q9 43 74 38.5t66 -38.5q-10 -115 -101 -197q-103 -86 -249 -88q-145 0 -240 92q-96 94 -104 193q4 37 64 41
t69 -41zM148 769q97 -9 198 -103q92 -91 89 -231q-1 -146 -87 -242q-81 -91 -200 -100q-38 3 -40.5 65t40.5 69q64 13 109 60q49 61 47 148q-4 83 -57 144q-58 53 -99 61q-48 9 -44 66.5t44 62.5z" />
    <glyph glyph-name="uniAA79" unicode="&#xaa79;" horiz-adv-x="1055" 
d="M456 -561q20 336 120 499q145 232 217 382q27 67 32 134q-8 118 -95 204q-90 91 -221 91q-94 0 -183 -58t-109 -137q2 -17 0.5 -27.5t-0.5 -19.5q17 -35 26 -48.5t34 -21.5q70 -28 96 -43q99 -70 103 -169q4 -74 -58 -134t-137 -60q-74 0 -134 47.5t-60 111.5q0 72 69 72
q63 0 63 -72q0 -20 32 -24q26 -12 47 2q47 22 47 50q-7 55 -117 102q-59 21 -85 51q-28 18 -49 72q-15 45 -1 105v30q35 122 157 213.5t259 91.5q187 0 318 -131q123 -126 132 -292v-10q-3 -92 -39 -183q-79 -169 -213 -356q-102 -152 -119 -481q-1 -16 -1 -33l-1 -22h133
q69 0 69 -73q1 -63 -69 -63h-203q-65 0 -65 67v69l2 40h1q1 12 1 24h1z" />
    <glyph glyph-name="uniAA7A" unicode="&#xaa7a;" horiz-adv-x="2105" 
d="M1159 1778q0 22 21 49q23 14 53 17q54 0 65 -65v-33q-8 -88 -45 -160q-73 -72 -204 -75v-2h-724q-57 0 -86 -33.5t-29 -74.5v-1898q0 -40 32 -78q26 -25 44.5 -32t53.5 -7h641q21 0 42 12t38 30.5t25.5 39t8.5 35.5v8l-1 17v602q-13 -11 -26 -21q-131 -109 -290 -109
q-187 0 -315 131q-128 130 -128 322q0 188 131 315q130 130 320 130l48 -2l63 -14q42 -22 42 -62q0 -34 -25.5 -51t-62.5 -8q-11 3 -27 3l-41 6q-133 0 -226 -95q-94 -92 -94 -222q0 -141 92 -233t223 -92q129 0 225 95q99 93 99 220q0 221 160 351q133 104 290 104
q191 0 318.5 -134.5t127.5 -320.5q0 -190 -132 -316q-135 -127 -323 -127l-86 10q-66 13 -66 69q11 41 34 53t51 5q28 -9 69 -9q141 0 233 92t92 223q0 132 -95 228q-93 99 -223 99q-133 0 -230 -99q-97 -96 -97 -238q0 -61 -15 -116q4 -3 7 -7q14 -29 7 -56v-731
q0 -59 -10 -112t-47 -87q-68 -76 -166 -84l-320 1v1h-347q-109 0 -188 80q-47 52 -58 99.5t-11 101.5l-5 1893q0 90 64 171q64 56 155 64l28 -2h699v2h5l29 -2q26 0 42 7q21 6 32 18l22 37l11 50v17z" />
    <glyph glyph-name="uniAA7B" unicode="&#xaa7b;" horiz-adv-x="563" 
d="M175 227v-78h151v78h-151zM13 55q-1 18 0 35v155q0 53 40.5 92t93.5 39h202q56 0 95 -39t39 -95v-191l-51 -51h-240q9 -85 66 -169q63 -95 166 -155q115 -68 252 -71q-188 -28 -357 56q-148 71 -230 194q-69 102 -76 196v4z" />
    <glyph glyph-name="uniAA7C" unicode="&#xaa7c;" horiz-adv-x="2" 
d="M-961 1149h798v-131h-798v131z" />
    <glyph glyph-name="uniAA7D" unicode="&#xaa7d;" horiz-adv-x="939" 
d="M30 545h833v-133h-833v133z" />
    <glyph glyph-name="uniAA7E" unicode="&#xaa7e;" horiz-adv-x="1252" 
d="M793 129q-132 -129 -321 -129q-133 0 -239 66t-164 199l3 48q0 21 28 54q45 43 112 68q64 23 137 23q121 0 231.5 -68.5t147.5 -146.5q15 14 43 74.5t28 120.5q0 132 -92 231q-90 98 -220 98q-85 0 -159 -43.5t-125 -130.5l-19 -18q-32 -22 -67 -10.5t-35 56.5l3 30l8 8
q55 109 161 173t233 64q179 0 310 -137q131 -139 131 -321q0 -179 -135 -309zM530 292.5q-40 27.5 -86 43t-92 15.5q-54 0 -90.5 -14t-63.5 -42q26 -60 105 -120q82 -49 169 -49q106 0 173 45q-11 21 -43 57.5t-72 64zM639 -235l-2 66h-2v38q22 56 71 56q56 0 66 -59v-1h5
v-312l267 -159v1446q13 57 62 57q56 0 67 -60v-1486q-23 -65 -35 -77l-16 -7q-35 -22 -73 -22l-35 2l-153 94l-97 58l-1 -4q-17 -50 -46 -80q-41 -43 -77 -51q-40 -15 -89 -15h-109l-46 15q-24 28 -24 54q4 39 32 53l39 8h101q46 0 70 29q18 14 19 27l3 49v281h3z" />
    <glyph glyph-name="uniAA7F" unicode="&#xaa7f;" horiz-adv-x="2038" 
d="M1475 675q-93 95 -228 95q-129 0 -223 -99q-94 -96 -94 -228q0 -131 92 -223t232 -92q132 0 223.5 92t91.5 233q0 130 -94 222zM602 228.5q-32 36.5 -72 64t-86 43t-92 15.5q-54 0 -90.5 -14t-63.5 -42q26 -60 105 -120q82 -49 169 -49q106 0 173 45q-11 21 -43 57.5z
M721 69.5q-114 -69.5 -249 -69.5q-133 0 -239 66t-164 199l3 48q0 21 28 54q45 43 112 68q64 23 137 23q121 0 231.5 -68.5t147.5 -146.5q15 14 43 74.5t28 120.5q0 132 -92 231q-90 98 -220 98q-85 0 -159 -43.5t-125 -130.5l-19 -18q-32 -22 -67 -10.5t-35 56.5l3 30l8 8
q55 109 161 173t233 64q129 0 237 -72q100 -65 138 -142q32 69 141.5 142.5t243.5 73.5q188 0 319 -130q131 -127 131 -315q0 -192 -129 -322q-127 -131 -314 -131q-133 0 -244 66t-144 142q-31 -69 -145 -138.5zM1384 -235l-2 66h-1v38q21 56 71 56q55 0 66 -59v-1h5v-312
l266 -159v1446q13 57 62 57q57 0 68 -60v-1486q-24 -65 -35 -77l-17 -7q-35 -22 -72 -22l-35 2l-154 94l-97 58l-1 -4q-16 -50 -46 -80q-40 -43 -76 -51q-40 -15 -90 -15h-109l-45 15q-25 28 -25 54q5 39 33 53l38 8h102q46 0 70 29q18 14 19 27l3 49v281h2z" />
    <glyph glyph-name="ka.sub" unicode="&#xe000;" 
d="M-1014 -537l31 77l10 79q0 105 -73 178.5t-178 73.5q-87 0 -177 -72q-75 -78 -75 -180q0 -57 42 -151q30 -52 109 -105q33 -16 33 -55q0 -29 -20 -50.5t-66 -14.5q-102 46 -167 156q-58 110 -58 220q0 151 107 266q106 112 272 112q105 0 201 -50q77 -49 113 -110
q14 32 119 107l96 42l69 11h34q158 0 270 -105q111 -105 111 -273q0 -157 -111 -268q-109 -115 -270 -115l-62 3l-51 16q-48 10 -48 60q0 27 22 60l43 8l98 -15q106 0 178.5 73t72.5 178t-73 177q-80 75 -180 75q-84 0 -177 -72q-72 -78 -72 -180q0 -136 -72 -244
q-53 -82 -146 -130l-31 -6l-34 9q-34 24 -34 60q0 39 39 52q46 18 105 103z" />
    <glyph glyph-name="kha.sub" unicode="&#xe001;" horiz-adv-x="9" 
d="M-755 -536q39 -46 87 -69q47 -26 116 -26q97 0 156 53q-30 35 -96 63q-17 9 -33.5 14t-33.5 10l-69 7l-47 -5l-36 -12q-35 -22 -44 -35zM-872 -520q33 80 101 111.5t146 31.5q91 0 178 -39t122 -81q10 16 22 53t12 78q0 107 -75 183q-73 73 -188 73q-69 0 -125 -29
q-65 -44 -92 -91l-22 -22q-39 -16 -63 -3q-36 21 -36 59l10 33q57 85 140 134t188 49q167 0 280 -115q112 -118 112 -271q0 -168 -112 -281q-116 -115 -278 -115q-203 0 -322 174l-4 35z" />
    <glyph glyph-name="ga.sub" unicode="&#xe002;" 
d="M-205 -587q-36 -85 -115 -139q-27 -22 -65 2t-38 58q0 23 27 48q16 16 35.5 39t40.5 54q16 35 22.5 60.5t6.5 51.5q0 108 -75.5 183.5t-183.5 75.5q-105 0 -180.5 -75.5t-75.5 -183.5q0 -62 29 -115q23 -54 76 -93l15 -33q0 -77 -63 -77q-31 0 -55 24q-57 53 -95.5 128.5
t-38.5 165.5q0 161 110 276q108 115 278 115q156 0 272 -115q115 -115 115 -276q0 -98 -42 -174z" />
    <glyph glyph-name="gha.sub" unicode="&#xe003;" 
d="M-606 -758q-149 0 -262 110q-11 17 -23 32.5t-10 12.5q-95 -155 -296 -155q-119 0 -220 80q-100 83 -124 188q-13 27 -6 77q13 77 51 99q23 27 69 43q78 32 79 69q0 12 -23 26q-19 9 -37 8q-14 -3 -14 -4q0 -69 -68 -69q-70 0 -70 69q0 57 55 97q56 38 121 38
q45 0 75 -18q104 -55 99 -152q-2 -89 -86 -151q-8 -5 -28.5 -15t-53.5 -21q-8 -3 -13.5 -7t-7.5 -8q-18 -27 -14.5 -42t-1.5 -27q13 -49 81 -97q67 -45 137 -45q92 0 156 65q63 65 72 157q-4 17 0 32q-7 142 -109 207q-32 24 -32 57q0 27 19 48.5t50 21.5q13 0 34 -10
q173 -107 173 -342v-20q10 -94 65 -146q70 -70 163 -70q87 0 155 68q66 66 66 161q0 93 -68 161q-67 67 -153 67q-11 4 -29.5 -2t-45.5 -7q-67 0 -67 70q0 45 42.5 62t99.5 17q142 0 253 -113q106 -105 106 -255q0 -152 -108 -259q-108 -108 -251 -108z" />
    <glyph glyph-name="nga.sub" unicode="&#xe004;" 
d="M-324 -72q79 -34 129 -108q21 -24 -1.5 -60.5t-54.5 -36.5q-22 0 -45 25q-16 16 -37 34t-51 38q-33 16 -56 21.5t-49 5.5q-100 0 -170.5 -70.5t-70.5 -170.5t70.5 -170.5t170.5 -70.5q60 0 108 27q51 22 87 71l32 13q72 0 72 -57q0 -30 -23 -52q-49 -53 -119.5 -89
t-156.5 -36q-150 0 -257 103q-108 101 -108 261q0 144 108 255q107 108 257 108q93 0 165 -41z" />
    <glyph glyph-name="ca.sub" unicode="&#xe005;" 
d="M-263 -649q-118 -120 -275 -120q-156 0 -271 115q-118 115 -118 275q0 153 113 270q108 115 276 115q160 0 275 -109q112 -111 112 -276q0 -156 -112 -270zM-538 -638q108 0 183.5 75.5t75.5 183.5q0 105 -75.5 180.5t-183.5 75.5q-73 0 -104 -19q105 -69 105 -227
q0 -161 -114 -245q34 -24 113 -24zM-796 -379q0 -52 19.5 -99t41.5 -68q86 54 86 177q0 107 -84 161q-63 -59 -63 -171z" />
    <glyph glyph-name="cha.sub" unicode="&#xe006;" 
d="M-418.5 -206.5q-75.5 75.5 -180.5 75.5q-108 0 -180 -75q-76 -73 -76 -182q0 -111 74 -185q70 -74 182 -74q105 0 180.5 75.5t75.5 183.5q0 106 -75.5 181.5zM-1448 -423q61 35 128 35q89 0 173 -52q72 -51 98 -123q12 10 38.5 65t26.5 110q0 106 -75.5 181.5
t-183.5 75.5q-58 0 -114 -26.5t-92 -77.5q-12 -18 -51 -28l-16 10q-20 11 -31.5 25.5t-11.5 40.5q0 20 19 49q53 56 132 99q84 36 165 36q106 0 204 -53q83 -52 117 -111q26 52 120 110q95 54 203 54q158 0 273 -109q113 -111 113 -276q0 -155 -115 -270
q-113 -120 -271 -120q-115 0 -200 57q-88 50 -118 110q-29 -50 -120 -108q-36 -23 -91 -41t-115 -18q-108 0 -191.5 50t-137.5 141l-8 26q0 46 38 56q33 47 94 82zM-1197.5 -535.5q-52.5 39.5 -122.5 39.5q-73 0 -119 -55q62 -96 196 -96q70 0 108 22q-10 50 -62.5 89.5z
" />
    <glyph glyph-name="ja.sub" unicode="&#xe007;" horiz-adv-x="5" 
d="M-236 -256q-24 16 -67 16q-24 0 -40.5 -22.5t-21.5 -49.5l2 -16q8 -29 30 -47t52 -22l31 4q11 0 31 29q12 19 12 62q-5 26 -29 46zM-96 -217q157 0 157 -176l-3 -34l-2 -36l-21 -21q-19 -21 -53 -26q-29 9 -43 36l-9 28l2 36q0 60 -17 60q0 -40 -43 -91.5t-120 -70.5
l-33 -3q-129 0 -194 154l-10 47q0 79 48 124q36 46 55 52q-14 7 -77 7q-108 0 -180 -75q-76 -73 -76 -182q0 -111 75 -185q71 -74 181 -74q113 0 178 70l31 16q72 0 72 -69q0 -33 -34 -62q-107 -86 -247 -86q-154 0 -268 115q-116 115 -116 275q0 153 112 270
q108 115 272 115q115 0 216 -62q89 -57 134 -155z" />
    <glyph glyph-name="jha.sub" unicode="&#xe008;" horiz-adv-x="333" 
d="M-538 -638q108 0 183.5 75.5t75.5 183.5q0 105 -75.5 180.5t-183.5 75.5q-73 0 -104 -19q105 -69 105 -227q0 -161 -114 -245q34 -24 113 -24zM-796 -379q0 -52 19.5 -99t41.5 -68q86 54 86 177q0 107 -84 161q-63 -59 -63 -171zM-561 -768q91 -94 235 -102
q162 9 282.5 138t120.5 309q0 12 -1 1299h2q2 13 20 23q20 11 48 11q29 0 49.5 -22.5t14.5 -28.5v-1282q0 -234 -157 -403t-356 -169h-34q-204 9 -346 170q-52 60 -77 128q-25 19 -49 43q-118 115 -118 275q0 153 113 270q108 115 276 115q160 0 275 -109q112 -111 112 -276
q0 -156 -112 -270q-118 -120 -275 -120q-12 0 -23 1z" />
    <glyph glyph-name="nya.short" unicode="&#xe009;" horiz-adv-x="1105" 
d="M876 14l-20 -19h-659v-449h1414v95h197v-237l-56 -45h-1709l-43 48v820h197v-45h601v222q0 88 -48 143.5t-136 55.5h-228q-83 0 -141 -58t-58 -141l-174 146q32 114 141 180q101 63 225 63h237q172 0 278 -108.5t106 -280.5v-213z" />
    <glyph glyph-name="nnya.sub" unicode="&#xe00a;" 
d="M-1185 -416q0 24 27.5 40.5t57.5 16.5q18 0 35 -11q39 -53 125 -53q62 0 112 44q49 48 56 107q-4 12 0 23q-7 57 -54 96q-48 41 -114 41q-80 0 -131 -57l-7 -8q1 -11 -16.5 -22.5t-35.5 -11.5q-22 0 -40 15.5t-18 37.5v15q4 -3 4 21h32v-31q-32 0 -32 24l8 3q-1 -1 19 27
q84 92 217 92q116 0 197 -76q80 -72 80 -181v-13q7 -62 46 -97q51 -49 118 -49t115 47q49 45 49 112q0 64 -49 110q-48 47 -112 47q-11 2 -24.5 -2t-33.5 -6q-53 0 -53 55q0 33 32.5 44.5t77.5 11.5q109 0 194 -78q78 -76 78 -182q0 -109 -82 -186q-80 -78 -192 -78t-195 79
q-11 11 -20.5 22t-5.5 5q-70 -106 -220 -106q-88 0 -133 27v-83q0 -47 14.5 -61t64.5 -14h669q2 -52 -1 23q-9 58 57 58q48 0 55 -44q1 -62 1 -68.5t0 39.5q0 -114 -112 -114h-669q-99 0 -145 45t-46 136v168z" />
    <glyph glyph-name="tta.sub" unicode="&#xe00b;" 
d="M-335 -396q-31 -30 -72 -52q-20 -8 -42.5 -10t-50.5 -2q-92 0 -165 59q-6 7 -13 14.5t-14 16.5q-15 25 -25.5 54t-11.5 63q0 44 18.5 81.5t51.5 68.5q32 26 73 42t86 16q47 0 86 -15.5t74 -42.5q14 -10 26 -26v-1l-80 -79q-1 0 -1 1q-10 11 -23 20q-31 35 -82 35
q-49 0 -83 -30.5t-34 -69.5t34 -68.5t83 -29.5q25 0 48 10t34 22q10 5 18 18q7 9 12 20l83 -68q-8 -27 -30 -47zM-488 -516q81 0 145 44l82 -48v-96h74v-109h-184l-1 117q-24 -6 -54.5 -11t-61.5 -5q-50 0 -94.5 9.5t-77.5 27.5h1l-34 12v131q92 -72 205 -72z" />
    <glyph glyph-name="ttha.sub" unicode="&#xe00c;" 
d="M-1221 -639q-113 -10 -171.5 45.5t-58.5 175.5v252q0 72 67 112q57 37 136 37q43 0 79.5 -16t63.5 -43.5t41.5 -65.5t14.5 -83q0 -88 -62 -157q-20 -20 -50 -20q-21 0 -41.5 19t-20.5 44q0 26 18 45q31 30 31 69q0 53 -41 77q-23 11 -55 11q-53 0 -53 -29v-252
q0 -63 20.5 -83t81.5 -20h276q-43 62 -43 169q0 134 100 234q98 97 239 97q137 0 231 -93q98 -93 98 -238q0 -156 -118 -259q-8 -5 -16.5 -12.5t-24.5 -19.5q-21 0 -21 -15q7 7 -16 7q-62 0 -62 66q0 32 34 55q14 4 25 -7q0 -14 -8 -22q-12 -2 -15 -1q-31 0 -5 26l6 3l17 18
q77 62 77 161q0 89 -58 148q-60 59 -144 59q-86 0 -149 -62q-63 -60 -63 -145q0 -100 63 -153q19 -7 19 -41q0 -19 -5 -35t-14 -31.5t-21 -26t-29 -10.5l-373 10v0z" />
    <glyph glyph-name="dda.sub" unicode="&#xe00d;" 
d="M-697 -145q13 17 24 28q36 32 77.5 46.5t94.5 14.5q45 0 87.5 -16t77.5 -45q34 -30 54 -71t20 -83q-4 -34 -13 -63.5t-27 -57.5q-8 -9 -14 -17.5t-14 -14.5q-75 -62 -171 -62q-31 0 -55 2.5t-43 11.5v-23q43 -18 98 -18q83 0 154 46l87 -53v-97h77v-113h-193l-2 119
q-24 -6 -56.5 -10t-66.5 -4q-51 0 -98 10t-83 29h1l-35 13v226l85 69q11 -27 22 -40.5t20 -21.5q13 -15 37 -24.5t51 -9.5q48 0 83 31.5t35 71.5q0 39 -35 71.5t-83 32.5q-55 0 -88 -36q-15 -9 -24 -21q-1 -2 -4 -6l-83 82q2 1 3 3z" />
    <glyph glyph-name="ddha.sub" unicode="&#xe00e;" 
d="M-186 -390q0 -152 -114 -263q-112 -111 -273 -111q-118 0 -223 78t-133 182v9t-1 14q-10 53 6 91q17 50 39 63q22 25 74 44q88 37 92 76q0 17 -34 37q-13 7 -33 2q-19 -6 -19 -16q0 -63 -65 -63q-63 0 -63 63q0 30 13.5 56t38.5 44t54.5 28t63.5 10q68 0 122 -50
q52 -52 50 -116q-5 -88 -91 -146q-11 -8 -30.5 -17t-49.5 -20q-19 -7 -27 -16.5t-18 -36.5q-1 -5 1 -12.5t0 -20.5q17 -60 85 -109q73 -47 148 -55q108 8 181 80q75 73 75 175q0 157 -127 232q-28 23 -28 53q0 24 17.5 43.5t45.5 19.5q11 0 33 -9q43 -26 78 -63.5
t60.5 -81.5t38.5 -93.5t13 -100.5z" />
    </font>
</defs>
</svg>
