<?xml version="1.0" standalone="no"?>
<!DOCTYPE svg PUBLIC "-//W3C//DTD SVG 1.1//EN" "http://www.w3.org/Graphics/SVG/1.1/DTD/svg11.dtd" >
<svg xmlns="http://www.w3.org/2000/svg" xmlns:xlink="http://www.w3.org/1999/xlink" version="1.1">
<metadata></metadata>
<defs>
<font id="bshanbbregular" horiz-adv-x="602" >
<font-face units-per-em="2048" ascent="1638" descent="-410" />
<missing-glyph horiz-adv-x="500" />
<glyph unicode="&#xd;" />
<glyph unicode=" " />
<glyph unicode="!" horiz-adv-x="399" d="M80 104l8 17l29 47q33 55 84 55q49 0 82.5 -35t33.5 -84q0 -80 -69 -110l-47 -8q-51 0 -86 33.5t-35 84.5zM96 774q0 -51 4 -57l58 -447l73 -2l66 504q2 16 2 41q0 125 -106 125q-96 0 -97 -164zM156 104l10 -18l29 -29l12 9l35 30l-9 13l-30 34l-19 -12z" />
<glyph unicode="&#x22;" horiz-adv-x="403" d="M55 1057q0 141 148 141q141 0 141 -141q0 -147 -141 -148q-147 0 -148 148zM129 1057q0 -74 74 -74q61 0 73 74q0 31 -22 51l-12 6l-39 16q-61 0 -74 -73zM145 -653h230v96h-133v1243h-97v-1339z" />
<glyph unicode="#" horiz-adv-x="1228" d="M170 580q0 72 125 94q193 35 280 86l-26 14q-57 31 -252 70q-127 25 -127 92l6 27q25 43 74 43q53 0 96 -39q141 -129 246 -176v26q0 49 -31 141.5t-31 141.5t39 69q18 6 54 11q72 0 82 -80l-43 -146q-23 -76 -23 -114v-54l16 9q78 39 146 100q127 115 170 115 q88 0 88 -74q0 -68 -105 -88q-201 -39 -295 -90l19 -10q74 -41 266 -74q117 -20 117 -88q0 -74 -88 -74q-55 0 -142 84q-100 98 -176 127l-16 6v-14q0 -104 20 -164l19 -53q2 -6 31 -74q0 -37 -30 -61.5t-67 -24.5q-35 0 -60.5 22.5t-25.5 57.5l43 143q27 86 25 113l-2 41 l-2 14l-98 -55q-27 -14 -89 -72q-96 -88 -149 -88q-39 0 -66 21q-14 18 -18 45z" />
<glyph unicode="$" horiz-adv-x="1140" d="M152 104l16 52l12 43q12 43 13 82h20l59 -80q90 -121 265 -121v573q-162 57 -242 127q-106 96 -107 240q0 158 97 258q92 92 252 119v155h84v-151q115 0 172 -23q76 -18 135 -69l-51 -164h-25q-78 176 -231 176v-516q180 -59 253 -119q109 -90 109 -246q0 -88 -20 -139 l-27 -65q-8 -23 -39 -64q-90 -123 -276 -160v-227h-84v211q-262 0 -385 108zM348 1087q1 -165 189 -247v473q-84 -16 -136.5 -77.5t-52.5 -148.5zM621 92q96 23 149 96.5t53 176.5q0 100 -55 159q-41 43 -147 92v-524z" />
<glyph unicode="%" horiz-adv-x="911" d="M68 610q0 63 59.5 123t122.5 60q82 0 133 -50.5t51 -132.5q0 -80 -52 -131t-132 -51t-131 51t-51 131zM168 610q0 -39 22.5 -69.5t59.5 -30.5l16 6l41 25q25 31 25 69q0 39 -22.5 70t-59.5 31q-25 0 -60 -33q-23 -33 -22 -68zM213 4l416 795l69 -35l-413 -797zM479 162 q0 80 52.5 132t132.5 52q78 0 130 -53t52 -131t-52.5 -130t-129.5 -52q-82 0 -133.5 50t-51.5 132zM582 162q0 -39 22.5 -69t59.5 -30l16 7l41 24q25 31 24 68q0 39 -22 69.5t-59 30.5q-25 0 -60 -33q-23 -33 -22 -67z" />
<glyph unicode="&#x26;" horiz-adv-x="935" d="M100 289q-10 14 6 92q66 313 410 313q145 0 244 -123q94 -115 94 -262q0 -117 -61 -211q-68 -108 -179 -108q-68 0 -116.5 46t-48.5 114q0 72 49 112.5t123 40.5q43 0 63 -20l39 -56q25 31 25 80q0 106 -66 189q-70 90 -174 90q-221 0 -289 -209q166 -47 166 -189 q0 -12 -2 -30q-18 -166 -180 -166q-63 6 -92 24l30 115l29 -14q8 -4 47 -4q51 0 57 59q0 72 -65 88zM551 141q0 -55 63 -55q56 1 56 64q0 55 -64 55q-55 0 -55 -64z" />
<glyph unicode="'" horiz-adv-x="808" d="M45 367q0 127 104.5 223t233.5 96q227 0 322 -192q29 -57 28 -187v-860h150v-96h-258v1005q0 92 -71 153.5t-163 61.5q-100 0 -166.5 -71.5t-66.5 -171.5q0 -104 67.5 -168t171.5 -64q35 0 97 23l49 -92q-57 -41 -152 -41q-117 0 -215 80q-131 106 -131 301z" />
<glyph unicode="(" horiz-adv-x="614" d="M80 442q0 524 311 818l76 -78q-279 -256 -279 -740q0 -522 273 -731l-66 -86q-315 248 -315 817z" />
<glyph unicode=")" horiz-adv-x="614" d="M131 -285q270 207 270 727q0 463 -270 740l62 78q160 -131 227 -340l35 -107l28 -117l19 -123l6 -131q25 -545 -311 -813z" />
<glyph unicode="*" horiz-adv-x="1228" d="M170 580q0 72 125 94q193 35 280 86l-26 14q-57 31 -252 70q-127 25 -127 92l6 27q25 43 74 43q53 0 96 -39q141 -129 246 -176v26q0 49 -31 141.5t-31 141.5t39 69q18 6 54 11q72 0 82 -80l-43 -146q-23 -76 -23 -114v-54l16 9q78 39 146 100q127 115 170 115 q88 0 88 -74q0 -68 -105 -88q-201 -39 -295 -90l19 -10q74 -41 266 -74q117 -20 117 -88q0 -74 -88 -74q-55 0 -142 84q-100 98 -176 127l-16 6v-14q0 -104 20 -164l19 -53q2 -6 31 -74q0 -37 -30 -61.5t-67 -24.5q-35 0 -60.5 22.5t-25.5 57.5l43 143q27 86 25 113l-2 41 l-2 14l-98 -55q-27 -14 -89 -72q-96 -88 -149 -88q-39 0 -66 21q-14 18 -18 45z" />
<glyph unicode="+" horiz-adv-x="884" d="M-78 -455l66 95l172 -127l241 483l-49 4q-115 10 -192 119q-74 102 -74 221q0 158 95 257t253 99t257.5 -95t99.5 -253q0 -84 -33 -151l-86 61l10 45l4 51q8 90 -78 168q-70 63 -174 64q-100 0 -165.5 -75t-65.5 -177q0 -80 51 -144q12 51 58 87t100 36q70 0 118 -46 t48 -115q0 -43 -21 -82l-367 -715zM338 -338q0 61 18 111q23 102 148 161l51 17l57 6h50l32 -2l37 -14l39 -23l47 -35q90 -83 90 -198q0 -119 -77.5 -209t-194.5 -86l-49 2q-92 4 -154 73q-41 35 -67 89l-19 53zM348 147q0 -66 66 -65q65 -1 65 65t-65 66q-66 0 -66 -66z M444 -334q0 -31 56 -127q57 -51 129 -51q76 0 128 54t52 130q0 78 -53.5 128t-130.5 50q-70 0 -125.5 -57t-55.5 -127z" />
<glyph unicode="," horiz-adv-x="1419" d="M90 330q0 123 57 219q66 111 179 131l41 -105q-164 -80 -164 -239q0 -104 69.5 -168t173.5 -64q51 0 70 11l33 14l37 25q88 59 88 192q0 127 -160 223l39 109q250 -86 242 -324l-2 -61q-2 -31 -15 -64l76 -77q72 -47 135 -48q92 0 168 76q31 31 49 76l13 43l4 47 q8 100 -82 178q-72 61 -154 56l-26 -2q-29 -2 -80 -31l-52 98l54 37q18 12 55 18l53 5q143 10 247.5 -89.5t104.5 -242.5v-31l-4 -49l-18 -66q-12 -43 -27 -61l-51 -64q-96 -119 -260 -118q-80 0 -268 135q-133 -135 -273 -135q-152 0 -252 97t-100 249z" />
<glyph unicode="-" horiz-adv-x="974" d="M96 311v97h713v-97h-713z" />
<glyph unicode="." horiz-adv-x="0" d="M-741 -369q0 123 88 211t211 88q121 0 211 -89t90 -210q0 -123 -89 -212t-212 -89t-211 89t-88 212zM-637 -373q0 -84 55.5 -142t139.5 -58t143 56t59 140t-56 142.5t-140 58.5q-76 0 -138.5 -60.5t-62.5 -136.5z" />
<glyph unicode="/" horiz-adv-x="487" d="M82 0h113v692h-113v-692zM299 0h113v692h-113v-692z" />
<glyph unicode="0" horiz-adv-x="675" d="M49 442q0 166 62 299q80 172 229 172q174 0 254 -229q33 -94 33 -227q0 -174 -60 -303q-78 -170 -233 -170q-141 0 -221 168q-63 133 -64 290zM178 426q0 -131 25 -236q39 -166 133 -165q162 -1 162 460q0 385 -158 385q-162 0 -162 -444z" />
<glyph unicode="1" horiz-adv-x="675" d="M158 807l219 106h20v-755q0 -100 29 -119q18 -14 86 -14v-25h-338v25q43 0 57 4q35 6 50 28q8 12 8 101v581q-10 68 -53 68q-23 0 -68 -21z" />
<glyph unicode="2" horiz-adv-x="675" d="M29 0v25q178 162 264 264q160 190 160 329q0 82 -49.5 138.5t-129.5 56.5q-143 0 -194 -151h-25q33 252 254 251q104 0 180 -66.5t76 -168.5q0 -160 -229 -406q-139 -150 -166 -172h233q76 0 109 9q55 14 84 63h25l-64 -172h-528z" />
<glyph unicode="3" horiz-adv-x="675" d="M55 55q0 47 51 47q27 0 94.5 -30.5t98.5 -30.5q72 0 120 52t48 124q0 133 -113 195q-61 33 -127 32h-22v21q90 10 147.5 64.5t57.5 142.5q0 68 -40 109.5t-108 41.5q-102 0 -172 -108l-22 10q82 188 243 188q86 0 147.5 -49t61.5 -133q0 -96 -123 -201q166 -66 166 -233 q0 -147 -104 -234q-96 -80 -248 -79q-156 0 -156 71z" />
<glyph unicode="4" horiz-adv-x="675" d="M20 236v86l416 591h74v-583h119v-94h-119v-236h-111v236h-379zM86 330h313v444z" />
<glyph unicode="5" horiz-adv-x="675" d="M63 72q0 47 56 47q8 0 76.5 -34t97.5 -34q82 0 138 60.5t56 142.5q0 147 -129 225q-104 63 -264 68l172 348h322l-53 -113h-269l-59 -120q152 -20 250 -103q115 -94 114 -237q0 -152 -99 -245t-253 -93q-156 0 -156 88z" />
<glyph unicode="6" horiz-adv-x="675" d="M57 350q0 221 144 387q150 176 366 176h39v-24q-305 -31 -399 -389q94 66 190 65q104 0 168 -82q57 -74 58 -182q0 -127 -78 -219q-82 -98 -205 -98q-162 0 -244 180q-39 86 -39 186zM184 307q0 -164 82 -246q41 -41 92 -41q74 0 115 72q33 57 33 137q0 104 -35 181 q-45 98 -137 98q-49 0 -139 -57q-10 -88 -11 -144z" />
<glyph unicode="7" horiz-adv-x="675" d="M49 682l86 213h481v-25l-299 -888h-73l268 806h-248q-137 0 -194 -112z" />
<glyph unicode="8" horiz-adv-x="675" d="M82 205q0 117 178 246q-168 137 -168 249q0 98 76 158q70 55 170 55q92 0 162 -49q78 -55 78 -143q0 -111 -185 -225q98 -76 137 -121q68 -78 68 -162q0 -106 -76 -167.5t-184 -61.5q-104 0 -176 57q-80 63 -80 164zM182 207q0 -80 44 -133.5t122 -53.5q66 0 112 37 t46 101q0 72 -80 153q-8 9 -135 115q-109 -90 -109 -219zM188 745q0 -80 68 -135l106 -88q123 106 123 205q0 147 -145 147q-61 0 -106.5 -34.5t-45.5 -94.5z" />
<glyph unicode="9" horiz-adv-x="675" d="M53 592q0 129 74 221q80 100 205 100q156 0 241 -168q45 -88 45 -200q0 -221 -143 -387q-150 -176 -366 -176h-37v24q152 2 262 123q98 106 135 264q-102 -68 -186 -67q-106 0 -170 82q-59 76 -60 184zM170 662q0 -98 35 -177q45 -100 131 -100q78 0 145 57q11 87 11 138 q0 168 -80 249q-39 41 -95 41q-76 0 -114 -69q-33 -57 -33 -139z" />
<glyph unicode=":" horiz-adv-x="249" d="M66 -319v1323q0 145 77.5 230t221.5 85h346q152 0 239 -127q41 -59 41 -115v-28l-104 4l-2 24q-2 33 -23 53q-57 82 -151 82h-346q-86 0 -146 -57l-31 -63l-10 -43l-4 -45v-1323q0 -84 55.5 -145.5t139.5 -61.5h311q78 0 140.5 61.5t64.5 138.5l2 123h100l4 -123l-2 -61 q0 -31 -14 -51q-12 -47 -62 -99q-90 -96 -233 -96h-311q-137 0 -220 88t-83 226z" />
<glyph unicode=";" horiz-adv-x="456" d="M78 137q0 66 45 110t110 44q63 0 108.5 -45.5t45.5 -108.5t-45 -109t-109 -46q-66 0 -110.5 45t-44.5 110zM78 543q0 66 45 109.5t110 43.5q63 0 108.5 -45t45.5 -108t-45 -109.5t-109 -46.5q-66 0 -110.5 45t-44.5 111zM166 131q0 -66 65 -65q66 -1 66 65t-66 66 t-65 -66zM166 537q0 -66 65 -66q66 0 66 66t-66 65q-66 0 -65 -65z" />
<glyph unicode="&#x3c;" horiz-adv-x="825" d="M72 973q0 127 83 203.5t212 76.5q53 0 135 -30q201 -76 200 -291q0 -63 -36 -115q-14 -20 -109 -129q-153 -179 -184 -369h-33q0 147 57 277l56 125q47 106 53 123q18 49 18 104q0 98 -47 168q-53 80 -147 80q-53 0 -103 -33q-57 -37 -57 -86l37 -61q37 -61 37 -84 q0 -80 -76 -80q-96 0 -96 121zM256 84q0 43 29.5 73.5t72.5 30.5q45 0 76 -29.5t31 -74.5t-31 -72.5t-76 -27.5q-43 0 -72.5 28.5t-29.5 71.5z" />
<glyph unicode="=" horiz-adv-x="884" d="M-78 -455l66 95l172 -127l241 483l-49 4q-115 10 -192 119q-74 102 -74 221q0 158 95 257t253 99t257.5 -95t99.5 -253q0 -84 -33 -151l-86 61l10 45l4 51q8 90 -78 168q-70 63 -174 64q-100 0 -165.5 -75t-65.5 -177q0 -80 51 -144q12 51 58 87t100 36q70 0 118 -46 t48 -115q0 -43 -21 -82l-367 -715zM348 147q0 -66 66 -65q65 -1 65 65t-65 66q-66 0 -66 -66zM412 -41h127v-594l-127 2v592zM616 -41h127v-473h172v-119h-299v592z" />
<glyph unicode="&#x3e;" horiz-adv-x="0" d="M-741 -369q0 123 88 211t211 88l6 -106q-70 0 -135.5 -63.5t-65.5 -133.5q0 -84 55.5 -142t139.5 -58t143 56t59 140l101 4q0 -127 -88 -212t-215 -85q-123 0 -211 89t-88 212z" />
<glyph unicode="?" horiz-adv-x="264" d="M92 0h103v692h-103v-692z" />
<glyph unicode="@" horiz-adv-x="706" d="M98 162q0 104 99 135l51 8q55 0 98 -42t43 -97q0 -18 -8 -35h63l31 4q20 2 25 10l28 15q12 6 70 49q-61 -98 -125 -143q-27 -19 -201 -60q-74 -6 -124 38t-50 118zM98 543q0 104 99 135l51 8q55 0 98 -42t43 -97q0 -18 -8 -35h63l31 4q20 2 25 10l28 15q12 6 70 49 q-61 -98 -125 -144q-27 -18 -201 -59q-74 -6 -124 38t-50 118zM172 145q0 -18 27 -45q18 -12 51 -12q18 0 41 21q12 18 18 57q-6 57 -82 57q-18 0 -43 -26q-12 -16 -12 -52zM172 526q0 -18 27 -45q18 -12 51 -12q18 0 41 20q12 18 18 58q-6 57 -82 57q-18 0 -43 -26 q-12 -16 -12 -52z" />
<glyph unicode="A" horiz-adv-x="0" d="M-668 1024q0 123 77 208t198 85q111 0 200 -70l-65 -86q-63 51 -127 51q-59 0 -119.5 -62.5t-60.5 -121.5q0 -66 41 -113q4 -8 104 -63q-22 37 -22 77q0 105 92 140l59 14q61 0 107 -45l30 -43l15 -63l-2 -47q-2 -61 -88 -101q-70 -34 -138 -34h-4q-31 0 -98 12 q-199 61 -199 262zM-354 928q0 -61 67 -62q60 0 60 66q0 61 -66 61q-61 0 -61 -65z" />
<glyph unicode="B" horiz-adv-x="0" d="M-455 1184q0 25 9 51q31 98 135 98q68 0 118 -51l29 -53l8 -70q-16 -135 -63 -205l-139 -120l45 63l24 57l6 35l2 62l-34 -9q-47 0 -93.5 47.5t-46.5 94.5zM-373 1200q-1 -2 -1 -5q0 -27 59 -73q57 0 77 58q0 68 -59 80q-61 0 -76 -60z" />
<glyph unicode="C" horiz-adv-x="1372" d="M80 76q0 39 26.5 64.5t65.5 25.5q37 0 63.5 -26.5t26.5 -63.5q0 -39 -25.5 -66.5t-64.5 -27.5q-37 0 -64.5 28.5t-27.5 65.5zM422 72q0 37 26.5 63.5t63.5 26.5q39 0 65.5 -25.5t26.5 -64.5t-26.5 -65.5t-65.5 -26.5q-37 0 -63 28zM762 72q0 39 26.5 64.5t65.5 25.5 q37 0 63.5 -26.5t26.5 -63.5t-26.5 -64.5t-63.5 -27.5t-66 26l-18 31zM1110 72q0 39 26.5 64.5t65.5 25.5q37 0 63.5 -26.5t26.5 -63.5t-26.5 -64.5t-63.5 -27.5t-65 26l-19 31z" />
<glyph unicode="D" horiz-adv-x="0" d="M-698 1044q0 115 85 198t199 83q119 0 204 -82t85 -201q0 -117 -82 -200l-90 -66l-49 -14l-57 -6q-131 0 -213 78.5t-82 209.5zM-594 1042q0 -55 27 -96q6 53 55 90q43 33 98 41q131 0 160 -131q29 45 29 96q0 70 -59.5 125.5t-129.5 55.5q-78 0 -129 -51.5t-51 -129.5z M-473 913q0 -59 63 -59q60 1 60 64q0 59 -64 59q-59 0 -59 -64z" />
<glyph unicode="E" horiz-adv-x="534" d="M209 -213h172v1337h-172v103h223q53 0 53 -49v-1440q0 -53 -53 -53h-223v102z" />
<glyph unicode="F" horiz-adv-x="0" d="M-694 1124l2 19q27 84 104.5 134t167.5 50q184 0 268 -188l-94 -31q-16 51 -67.5 83t-108.5 32l-96 -25q53 -6 92 -53t39 -103q0 -131 -131 -159q45 -29 96 -29q76 0 182 131l90 -24q-61 -207 -272 -207h-45l-49 10q-25 4 -62 31q-49 27 -108 131l-6 30q0 55 63 56 q20 0 31 -8l51 -25q25 0 37 12l23 51q0 59 -64 60q-16 0 -40.5 -15.5t-37.5 -17.5q-66 0 -65 55z" />
<glyph unicode="G" horiz-adv-x="614" d="M88 -326l12 21l25 26q117 37 117 189v20l-13 256v13q0 78 43 204l74 27l92 19l13 4l-15 6l-45 16q-66 25 -125 172l-10 287q-18 127 -129 235q-27 12 -27 49q0 51 52 52q16 0 30 -8q121 -72 121 -301v-78l-2 -74v-19q0 -185 117 -215l74 -18q49 -18 49 -49l-19 -21 l-63 -57q-84 -55 -92 -78l-45 -127l-11 -73l-4 -89v-131l-4 -47q-2 -25 -8 -98q-12 -127 -133 -166l-21 -4q-53 0 -53 57z" />
<glyph unicode="H" horiz-adv-x="0" d="M-578 1063q0 72 53.5 125t125.5 53q74 0 126 -52t52 -126q0 -76 -51.5 -127t-126.5 -51q-74 0 -126.5 52t-52.5 126zM-467 1057q0 -31 23 -53l51 -21q74 0 74 74q0 61 -74 73q-31 0 -51 -22l-7 -12z" />
<glyph unicode="I" horiz-adv-x="0" d="M-324 -63h123v-474h166v-114h-289v588z" />
<glyph unicode="J" horiz-adv-x="194" d="M-795 -395l84 71l105 -129q31 -37 47 -36q18 0 37 32l237 418l13 8l39 27q51 0 51 -59v-394l250 -63l2 1210h100l4 -1282q0 -53 -47 -53q-20 0 -25 4l-354 96q-39 10 -39 49v234l-139 -246q-39 -70 -119 -86q-35 0 -78 22.5t-65 49.5z" />
<glyph unicode="K" horiz-adv-x="262" d="M61 -649v1331h127v-1212h172v-119h-299z" />
<glyph unicode="L" horiz-adv-x="448" d="M63 -649v1333h127v-1335zM270 -649v1331h127v-1212h172v-119h-299z" />
<glyph unicode="M" horiz-adv-x="329" d="M-25 584h142v-1233h239v96h-133v1239h-248v-102z" />
<glyph unicode="N" horiz-adv-x="0" d="M-698 1063q0 121 75.5 206t194.5 85q123 0 207 -74t84 -195v-24h-90v12q0 66 -61.5 124t-127.5 58q-76 0 -130 -56t-54 -132t55.5 -129t130.5 -53l-2 -90q-123 0 -202.5 73.5t-79.5 194.5zM-553 1069q0 -57 40 -97t97 -40v65q-51 0 -67 68q0 53 67 68q53 0 68 -68h69 q0 59 -38.5 100t-98.5 41q-55 0 -96 -41t-41 -96z" />
<glyph unicode="O" horiz-adv-x="886" d="M92 330q0 156 76 235l49 43l72 49q72 37 139 37q100 0 135 -22q76 -20 143.5 -95t77.5 -151l9 -68v-24l-5 -43l-18 -74q-12 -51 -72 -111l-110 -83q-63 -29 -131 -29q-147 0 -248 88q-45 39 -88 115q-29 63 -29 133zM215 336q0 -96 69.5 -163t166.5 -67q92 0 160.5 72 t68.5 164q0 94 -71 161.5t-165 67.5q-96 0 -162.5 -69.5t-66.5 -165.5z" />
<glyph unicode="P" horiz-adv-x="614" d="M43 387q0 14 78 74q88 68 98 82q33 59 43 125l12 73l5 90l2 179q0 86 10 98q12 125 133 166l18 4q53 0 54 -57l-13 -21l-24 -26q-115 -37 -115 -189v-20l12 -252q1 -13 1 -26q0 -111 -46 -195q-8 -23 -94 -33l-65 -8l-19 -7l14 -6l46 -16q121 -27 129 -189l14 -301 q8 -161 123 -202q37 -12 37 -49q0 -55 -54 -56l-18 4q-61 25 -121 203l-12 301q-6 150 -133 184q-115 31 -115 70z" />
<glyph unicode="Q" horiz-adv-x="1378" d="M53 211q0 39 10 65q14 53 66.5 91.5t108.5 38.5q70 0 123 -52.5t53 -122.5q0 -53 -17 -79q-12 -16 -61 -62l37 -4q98 0 167.5 69.5t69.5 168.5q0 98 -69.5 167.5t-167.5 69.5q-156 0 -221 -149l-97 84q20 41 131 133l103 37l86 14q147 0 247.5 -100.5t100.5 -247.5 l-12 -94l26 -35l35 -37q82 -72 172 -72q104 0 170 76t66 182q0 82 -37 113l-31 37q-61 59 -151 67q-119 0 -179 -53l-45 68l-16 26q70 82 240 82q53 0 198 -86q127 -104 127 -264q0 -158 -93 -259t-249 -101q-176 0 -289 133q-119 -137 -274 -138q-141 0 -268 93 q-59 66 -60 141zM143 229q0 -37 26 -64.5t62 -27.5q35 0 64 26.5t29 61.5q0 37 -26 64.5t-62 27.5q-37 0 -65 -25.5t-28 -62.5z" />
<glyph unicode="R" horiz-adv-x="178" d="M-639 -369q0 113 80 196t192 83q111 0 193 -84l63 -88q18 -47 19 -107q0 -57 -27 -110l170 -43l2 1210l107 -10l-4 -1268q0 -53 -45 -53l-23 4l-270 70q-82 -72 -185 -72q-109 0 -190.5 82t-81.5 190zM-532 -369q0 -55 55 -112.5t110 -57.5q68 0 119 51t51 119 q0 72 -49 123t-121 51t-118.5 -51t-46.5 -123z" />
<glyph unicode="S" horiz-adv-x="0" d="M-799 -500l49 82l125 -82l187 439h108l-243 -590z" />
<glyph unicode="T" horiz-adv-x="761" d="M25 422v55h327v328h54v-328h329v-55h-329v-330h-54v330h-327z" />
<glyph unicode="U" horiz-adv-x="456" d="M78 137q0 66 45 110t110 44q63 0 108.5 -45.5t45.5 -108.5t-45 -109t-109 -46q-66 0 -110.5 45t-44.5 110zM229 66h2h2q64 0 64 65q0 66 -66 66q-65 0 -65 -64q0 -67 63 -67z" />
<glyph unicode="V" horiz-adv-x="835" d="M78 330q0 162 115 276l4 4q39 51 112 52q94 0 135 -78q16 -31 17 -70q0 -86 -80 -133q-31 -18 -70 -19q-63 0 -110 50l-15 -76q0 -102 72 -167t176 -65q70 0 139 50q88 63 89 192q0 150 -138 219l43 101q96 -45 156.5 -135.5t60.5 -194.5q0 -156 -99 -254t-255 -98 q-152 0 -252 97t-100 249zM254 508q0 -18 17.5 -37.5t35.5 -19.5t38 17t20 36q0 20 -17 38.5t-37 18.5q-18 0 -37.5 -17.5t-19.5 -35.5z" />
<glyph unicode="W" horiz-adv-x="1429" d="M100 334q0 162 93.5 260t255.5 98q172 0 270 -123q92 139 278 140q160 0 258 -117q95 -108 95 -270q0 -152 -86 -243t-236 -91q-51 0 -99 33.5t-61 82.5l-8 56q0 117 133 149l37 4q61 0 105.5 -46t44.5 -107q69 87 69 162q0 35 -12 81q-23 86 -88.5 141.5t-151.5 55.5 q-68 0 -139 -39q-80 -43 -80 -108q16 -43 17 -170q0 -86 -95 -181q-112 -112 -277 -112h-3q-94 0 -197 86q-123 104 -123 258zM205 344q0 -102 70.5 -170t173.5 -68q102 0 169.5 72t67.5 174q0 98 -72.5 168t-171.5 70q-100 0 -168.5 -73t-68.5 -173zM944 154q0 -66 76 -76 q76 0 76 80q0 70 -76 71h-3q-65 0 -73 -75z" />
<glyph unicode="X" horiz-adv-x="839" d="M66 276v97h712v-97h-712zM295 117q0 49 45 96q33 29 76 29q51 0 86 -36t35 -87q0 -16 -43 -94q-33 -27 -76 -27q-49 0 -96 45q-27 33 -27 74zM295 571q0 49 45 97q32 26 71 26h3q49 0 96 -45q29 -35 29 -80q0 -51 -35 -84.5t-86 -33.5q-18 0 -96 43q-27 33 -27 77z M389 121l6 -19l19 -10l18 8q12 6 12 19l-6 16q-12 12 -22 12l-17 -6zM389 571l8 -16l19 -10l16 6l10 18l-4 17q-12 12 -22 12l-17 -6z" />
<glyph unicode="Y" horiz-adv-x="249" d="M63 -324v1334q0 133 83 216t216 83h947q66 0 134 -35t103 -88q45 -70 45 -168h-106q0 80 -48 132t-128 52h-947q-88 0 -139 -52t-51 -140v-1334q0 -86 53.5 -144t139.5 -58h960q78 0 136.5 57t60.5 135l2 88h102l4 -88v-17q0 -121 -82 -199q-88 -83 -223 -83h-960 q-133 0 -217.5 88t-84.5 221z" />
<glyph unicode="Z" horiz-adv-x="1400" d="M92 330q0 203 166 313l45 16l12 -6l33 -18q18 -25 19 -37l-7 -20q-6 -6 -12 -43l4 -33q16 -59 82 -60q35 0 57.5 26t22.5 60q0 31 -33 62l35 88q100 -47 100 -158q0 -70 -54 -122t-124 -52q-23 0 -112 37q-6 4 -60 100q-51 -57 -51 -147q0 -96 70.5 -163t167.5 -67 q90 0 159.5 68t69.5 158q0 145 96 254.5t240 109.5q141 0 246 -86l-74 -94q-70 59 -160 59q-98 0 -164.5 -69.5t-66.5 -167.5q0 -182 198 -227q-34 46 -34 103q0 58 55 126q23 29 59 45q31 18 72 18q76 0 130 -55t54 -131q0 -74 -94 -170l-31 -16l-55 -25q-47 -12 -104 -12 h-19l-446 -627l-226 154l50 82l143 -95l362 506q-104 31 -174 138q-100 -158 -280 -158q-152 0 -256 92q-111 94 -111 244zM1065 213q0 -31 28.5 -56.5t59.5 -25.5q35 0 57.5 25.5t22.5 60.5q0 31 -27.5 56.5t-58.5 25.5t-56.5 -27.5t-25.5 -58.5z" />
<glyph unicode="[" horiz-adv-x="884" d="M-78 -455l66 95l172 -127l241 483l-49 4q-115 10 -192 119q-74 102 -74 221q0 158 95 257t253 99t257.5 -95t99.5 -253q0 -84 -33 -151l-86 61l10 45l4 51q8 90 -78 168q-70 63 -174 64q-100 0 -165.5 -75t-65.5 -177q0 -80 51 -144q12 51 58 87t100 36q70 0 118 -46 t48 -115q0 -43 -21 -82l-367 -715zM348 147q0 -66 66 -65q65 -1 65 65t-65 66q-66 0 -66 -66z" />
<glyph unicode="\" horiz-adv-x="808" d="M45 367q0 127 104.5 223t233.5 96q227 0 322 -192q29 -57 28 -187v-860h150v-96h-258v1005q0 92 -71 153.5t-163 61.5q-100 0 -166.5 -71.5t-66.5 -171.5q0 -104 67.5 -168t171.5 -64q35 0 97 23l49 -92q-57 -41 -152 -41q-117 0 -215 80q-131 106 -131 301z" />
<glyph unicode="]" horiz-adv-x="772" d="M57 1012q16 129 62 196q6 15 135 119l-35 -57l-37 -68l-4 -86l33 8q55 0 96 -41t41 -96q0 -23 -8 -49q-31 -96 -133 -96q-25 0 -115 49l-14 20l-15 31q-6 25 -6 70zM137 991l13 -51l45 -27l47 13q18 18 26 45q6 61 -55 76q-55 0 -76 -56zM406 1012q16 143 59 196 q6 15 135 119l-70 -125l-4 -86l33 8q51 0 88 -34q47 -37 47 -101q0 -25 -8 -51q-29 -96 -131 -96q-25 0 -115 49l-14 20l-14 31q-6 25 -6 70zM483 991l13 -51l45 -27l47 13q18 18 26 45q6 61 -55 76q-55 0 -76 -56z" />
<glyph unicode="^" horiz-adv-x="249" d="M70 -324v1323q0 135 81.5 217t217.5 82l1099 -2v-104h-1099q-190 0 -191 -193v-1323q0 -88 52.5 -145t140.5 -57h960q80 0 137.5 56t59.5 136l2 135h102l4 -135l-18 -88l-25 -51l-34 -53q-70 -106 -228 -107h-960q-133 0 -217 88t-84 221z" />
<glyph unicode="_" horiz-adv-x="374" d="M2 -18l324 956h53l-324 -956h-53z" />
<glyph unicode="`" horiz-adv-x="403" d="M55 1057q0 141 148 141q141 0 141 -141q0 -147 -141 -148q-147 0 -148 148zM129 1057q0 -74 74 -74q61 0 73 74q0 31 -22 51l-12 6l-39 16q-61 0 -74 -73zM145 -653h230v96h-133v1243h-97v-1339z" />
<glyph unicode="a" horiz-adv-x="774" d="M57 332q0 147 95.5 254.5t240.5 107.5q98 0 244 -86l-74 -94q-70 59 -160 59q-96 0 -162.5 -69.5t-66.5 -165.5q0 -182 199 -227q-35 47 -35 106q0 74 55.5 129t128.5 55q76 0 130.5 -54t54.5 -130q0 -74 -95 -170l-30 -16l-56 -25q-47 -12 -104 -12l-68 6l-53 10 q-244 78 -244 322zM438 213q0 -31 29 -56.5t59 -25.5q35 0 57.5 25.5t22.5 60.5q0 31 -27.5 56.5t-58.5 25.5t-56.5 -27.5t-25.5 -58.5z" />
<glyph unicode="b" horiz-adv-x="407" d="M66 129q0 25 8 51q31 98 135 99q49 0 92 -29t55 -76l9 -70q-16 -135 -64 -204l-139 -121q59 74 74 129l4 88l-35 -8q-55 0 -97 43t-42 98zM147 145q-1 -2 -1 -5q0 -26 59 -72q53 0 78 57q4 29 -15 51l-10 8l-35 21q-31 0 -47 -17q-8 -6 -29 -43z" />
<glyph unicode="c" horiz-adv-x="862" d="M98 549l13 90l116 -10l-10 -33q-6 -20 -6 -49l12 -35l43 -20q74 0 74 98v43q0 31 8 45q8 8 70 8h20q146 0 252 -98q97 -90 97 -218q0 -12 -1 -24l-6 -84q-4 -45 -22 -69q-18 -59 -90 -119q-117 -98 -285 -99q-240 0 -260 205q0 92 72 146q23 23 65 26l80 8 q104 -12 143 -155v-23q0 -14 -4 -22q0 -23 -20 -62q53 0 149 68q61 68 62 170q0 180 -219 237q-23 -182 -185 -182q-80 0 -123 45l-34 49zM217 184l25 -59q27 -27 61 -27q31 0 58.5 27.5t27.5 58.5q0 33 -26.5 59.5t-59.5 26.5q-35 0 -60.5 -25.5t-25.5 -60.5z" />
<glyph unicode="d" horiz-adv-x="0" d="M-725 1055q0 199 172 278l33 10l28 11l50 6q57 0 116 -19q14 -4 95 -55q16 -10 71 -96q23 -52 23 -111v-49l-2 -31l-15 -38q-14 -39 -57 -89l-53 -47l-43 -26q-53 -25 -113 -25q-195 0 -278 170q-27 53 -27 111zM-616 1061q0 -78 56 -131t134 -53q37 0 133 55 q53 57 53 135t-56 131t-134 53q-76 0 -131 -57t-55 -133z" />
<glyph unicode="e" horiz-adv-x="1320" d="M86 217q0 76 54.5 130t129.5 54q78 0 131.5 -53t53.5 -131q0 -59 -35 -106q78 0 133 65q47 55 63 137v19l2 30v13q0 79 -66 137q-72 62 -163 61q-94 0 -160 -59l-73 94q98 86 243 86q172 0 277 -159q101 159 274 159h2q117 0 187 -47q23 -10 57 -39l-74 -94 q-70 59 -159 59q-47 0 -156 -61q-66 -61 -74 -150l2 -30v-19q0 -74 60.5 -132t136.5 -70q-35 47 -35 106q0 74 55.5 129t128.5 55q76 0 130.5 -54t54.5 -130q0 -74 -95 -170l-30 -16l-56 -25q-47 -12 -104 -12l-68 6l-53 10q-117 37 -184 125q-29 -45 -184 -125l-121 -16 q-115 0 -193 53q-92 61 -92 170zM186 217q0 -33 23.5 -59.5t56.5 -26.5q74 0 88 82q0 70 -82 86l-59 -25zM997 213q0 -31 29 -56.5t59 -25.5q35 0 57.5 25.5t22.5 60.5q0 31 -27.5 56.5t-58.5 25.5t-56.5 -27.5t-25.5 -58.5z" />
<glyph unicode="f" horiz-adv-x="0" d="M-713 1038q0 119 85 206t204 87t206 -85t87 -204l-96 5q0 80 -58.5 135t-138.5 55q-78 0 -133 -58.5t-55 -136.5q0 -82 56 -136t138 -54l-6 -102q-117 0 -203 86t-86 202z" />
<glyph unicode="g" horiz-adv-x="0" d="M-741 -369q0 123 88 211t211 88l6 -106q-74 0 -137.5 -61.5t-63.5 -135.5q0 -84 55.5 -142t139.5 -58t143 56t59 140l101 4q0 -127 -88 -212t-215 -85q-123 0 -211 89t-88 212z" />
<glyph unicode="h" horiz-adv-x="0" d="M-520 -379q0 66 45 110t110 44q43 0 109 -43q45 -45 45 -111q0 -59 -47 -107.5t-107 -48.5q-66 0 -110.5 45.5t-44.5 110.5zM-367 -451q66 0 66 66t-66 66q-65 0 -65 -64q0 -68 65 -68z" />
<glyph unicode="i" horiz-adv-x="837" d="M90 342q0 152 95.5 253t244.5 101q133 0 215 -59q63 -45 148 -176l-109 -39q-63 88 -96 115q-55 45 -133 45q-109 0 -181.5 -66.5t-72.5 -173.5q0 -100 75.5 -174t176.5 -74q94 0 223 154l96 -62q-102 -204 -324 -204h-2q-154 0 -255 103t-101 257z" />
<glyph unicode="j" horiz-adv-x="446" d="M66 129q0 25 8 51q31 98 135 99q49 0 92 -29t55 -76l9 -70q-16 -135 -64 -204l-139 -121q59 74 74 129l4 88l-35 -8q-55 0 -97 43t-42 98zM72 543q0 45 51 95t96 50q55 0 100.5 -45t45.5 -100q0 -61 -42 -104.5t-104 -43.5q-16 0 -102 43q-45 45 -45 105zM147 145 q-1 -2 -1 -5q0 -26 59 -72q53 0 78 57q4 29 -15 51l-10 8l-35 21q-31 0 -47 -17q-8 -6 -29 -43zM156 537q0 -61 61 -62q62 1 62 62t-62 61q-61 0 -61 -61z" />
<glyph unicode="k" horiz-adv-x="0" d="M-395 -61h127v-471h172v-119h-299v590z" />
<glyph unicode="l" horiz-adv-x="0" d="M-539 -57h127v-594l-127 2v592zM-334 -57h127v-473h172v-119h-299v592z" />
<glyph unicode="m" horiz-adv-x="329" d="M37 573h141v-573h107v676h-248v-103z" />
<glyph unicode="n" horiz-adv-x="1488" d="M106 326q-1 17 -1 34q0 141 92 228q96 94 262 94q78 0 213 -68q45 -31 61 -57q133 139 277 139q160 0 268 -108.5t108 -268.5t-97 -252t-259 -92q-94 0 -147 41l61 90l25 -12l61 -4h14q92 0 156 72q63 72 64 176q0 94 -74 169t-168 75q-63 0 -123 -35q-80 -47 -92 -109 l10 -24l8 -41l2 -54v-11q1 -107 -75 -196q-80 -94 -193 -122l6 4q0 23 -35 90q94 53 127 96q43 55 43 150q0 100 -71 166q-39 35 -80 49l-47 16l-49 6q-57 0 -74 -10q-25 -6 -72 -39q-90 -61 -90 -186q94 0 129 -23q94 -40 94 -157q0 -31 -43 -127q-43 -49 -106 -50 q-102 0 -174 52l39 90l49 -25l76 -14q50 10 50 66q0 9 -1 20q-10 69 -74 69h-2q-27 0 -49 -8l-23 -2h-14l-29 6l-28 41z" />
<glyph unicode="o" horiz-adv-x="1390" d="M80 496q20 41 131 133l102 37l86 14q147 0 248 -100.5t101 -247.5l-13 -94l27 -35l35 -37q82 -72 172 -72q104 0 169.5 76t65.5 182q0 82 -37 113l-30 37q-61 59 -152 67h-47q-20 0 -27 -4l-51 -30l-45 67l-16 27q37 43 96 57l90 6h5q53 0 194 -86q127 -104 127 -264 q0 -158 -93.5 -259t-248.5 -101q-176 0 -289 133q-119 -137 -274 -138q-225 0 -322 183l100 59q68 -133 213 -133q98 0 168 69.5t70 168.5q0 98 -69.5 167.5t-168.5 69.5q-156 0 -221 -149z" />
<glyph unicode="p" horiz-adv-x="1417" d="M45 367q0 143 96.5 231t241.5 88q215 0 322 -192l14 -48l20 -102q12 -66 21 -90q12 -41 26 -57q12 -31 191 -97l24 -2h8q54 0 121 52q86 68 87 178q0 109 -66 176t-174 67q-94 0 -160 -65l-61 98q125 84 231 84q139 0 236 -106q8 -8 69 -113l17 -55l8 -41l2 -45v-17 q0 -139 -93 -229q-98 -96 -249 -96h-27l-35 4l-59 18q-72 23 -123 72v-633h160v-96h-268v1005q0 47 -74 152q-76 63 -160 63q-100 0 -166.5 -71.5t-66.5 -171.5q0 -59 67 -168q70 -64 157 -64h15l35 2q27 4 62 21l49 -92q-57 -41 -152 -41q-117 0 -215 80q-131 106 -131 301 z" />
<glyph unicode="q" horiz-adv-x="1433" d="M86 328q0 158 93 259t249 101q176 0 289 -133q119 137 274 137q160 0 261.5 -98t101.5 -258t-98.5 -253t-258.5 -93q-143 0 -245.5 102.5t-102.5 245.5l13 94l-27 35l-35 37q-81 71 -170 71h-2q-106 0 -173 -75q-62 -71 -62 -168v-15l2 -47q0 -14 14 -32l51 -70 q11 -9 154 -66v-125q-127 0 -244 93q-84 94 -84 258zM762 346q0 -98 69.5 -167.5t167.5 -69.5t168 69.5t70 167.5t-69.5 168t-168.5 70q-98 0 -167.5 -70t-69.5 -168z" />
<glyph unicode="r" horiz-adv-x="854" d="M80 346q0 227 231 332l35 -111q-68 -25 -108.5 -87t-40.5 -136q0 -33 43 -137q6 68 64 121t126 53q74 0 127 -49t70 -125q45 63 45 137q0 147 -164 229l29 109q117 -37 182 -126t65 -212q0 -160 -92 -257t-250 -97q-162 0 -262 97t-100 259zM350 182l25 -57 q27 -23 59 -23q33 0 56.5 25.5t23.5 58.5t-25.5 56.5t-58.5 23.5l-57 -24q-23 -27 -23 -60z" />
<glyph unicode="s" horiz-adv-x="153" d="M-289 -59h109l2 -398l231 -59l-6 1206h115l-2 -1278q0 -53 -47 -53q-20 0 -25 4l-336 90q-37 10 -37 49z" />
<glyph unicode="t" horiz-adv-x="854" d="M100 438l4 21q31 98 121 164q117 63 215 63q106 0 200.5 -65.5t131.5 -165.5l-110 -35q-25 68 -87.5 108.5t-136.5 40.5q-47 0 -137 -43q66 -6 120 -65.5t54 -124.5q0 -47 -49 -133q-49 -55 -125 -64q63 -45 137 -45q147 0 230 164l108 -29q-37 -117 -126 -182t-212 -65 q-225 0 -325 211l-7 32q0 66 72 66q14 0 50.5 -19.5t52.5 -19.5q33 0 56 25.5t23 58.5q-4 8 -6 14q-10 23 -18 39q-18 18 -60 27q-23 0 -45 -17l-55 -24q-76 0 -76 63z" />
<glyph unicode="u" horiz-adv-x="935" d="M92 289q-3 7 -3 20q0 24 9 72q63 313 410 313q145 0 244 -123q94 -115 94 -262q0 -193 -215 -313l-53 110q68 27 139 173l4 45q0 100 -67.5 181t-166.5 81q-115 0 -176 -51q-49 -43 -100 -158q167 -46 167 -174q0 -7 -1 -15l-2 -30q-2 -45 -17 -68q-23 -59 -102 -90 l-61 -8q-61 6 -93 24l31 115l29 -14l47 -4h6q44 0 51 59q0 72 -65 88z" />
<glyph unicode="v" horiz-adv-x="1427" d="M88 344q0 160 98.5 253t257.5 93q145 0 247 -101.5t102 -246.5q0 -238 221 -238q104 0 169.5 76t65.5 182q0 68 -37 113l-30 37q-72 68 -137 68h-11l-78 -7q-31 -6 -71 -26l-54 104l82 33l64 14l53 4h5q62 0 194 -86q127 -104 127 -264q0 -158 -93.5 -259t-248.5 -101 q-111 0 -142 22l-47 35l-59 49q-86 72 -86 236q0 98 -69.5 167.5t-168.5 69.5q-98 0 -167.5 -69.5t-69.5 -167.5t69.5 -168t167.5 -70q68 0 136 43l49 -98q-84 -53 -176 -53q-158 0 -260.5 99t-102.5 257z" />
<glyph unicode="w" horiz-adv-x="1452" d="M80 336q0 158 102.5 257t259.5 99q135 0 275 -137q111 133 289 133q156 0 249 -101.5t93 -258.5q0 -156 -125 -265q-100 -86 -201 -86l-2 50q-2 24 -12 55q86 16 155 82q78 72 78 153q0 109 -64.5 183.5t-170.5 74.5q-135 0 -234 -143q12 -59 12 -94q0 -147 -100 -247.5 t-248 -100.5q-160 0 -258 93t-98 253zM197 346q0 -98 69.5 -167.5t167.5 -69.5t168 69.5t70 167.5t-70 168t-168 70t-167.5 -70t-69.5 -168z" />
<glyph unicode="x" horiz-adv-x="1454" d="M80 346q0 164 110 260q104 92 271 92q68 0 145 -39q86 -41 113 -96q133 133 285 133q160 0 256 -112q92 -104 92 -269q0 -150 -94.5 -239.5t-245.5 -89.5q-119 0 -201 53l-96 78q-66 -63 -137 -99l-76 -24l-76 -8l-55 2q-25 0 -47 14q-47 14 -111 64q-133 102 -133 280z M199 352q0 -104 63.5 -173.5t165.5 -69.5q98 0 174 64.5t76 160.5q0 104 -64 174t-168 70q-100 0 -173.5 -63.5t-73.5 -162.5zM778 233q66 -129 232 -129q96 0 160.5 70t64.5 168q0 104 -63.5 174t-167.5 70q-27 0 -125 -37l-101 -86q12 -55 13 -111z" />
<glyph unicode="y" horiz-adv-x="884" d="M90 330q0 121 66 223q72 113 184 129l41 -104q-178 -86 -178 -242q0 -104 69.5 -168t173.5 -64q51 0 70 11l33 14l37 25q88 59 88 192q0 166 -174 227l39 109q106 -39 182 -137.5t76 -208.5q0 -156 -99.5 -254t-255.5 -98q-152 0 -252 97t-100 249z" />
<glyph unicode="z" horiz-adv-x="1396" d="M92 330q0 160 166 311l45 16l6 -2q57 -18 58 -57q0 -4 -21 -66l4 -32q16 -59 82 -60q35 0 57.5 26t22.5 60q0 31 -33 62l35 88q100 -47 100 -158q0 -72 -52 -123t-124 -51q-63 0 -111 38t-61 99q-51 -57 -51 -145q0 -96 69.5 -163t166.5 -67q90 0 159.5 68t69.5 158 q0 147 95 254.5t241 107.5q98 0 244 -86l-74 -94q-70 59 -160 59q-96 0 -162.5 -69.5t-66.5 -165.5q0 -182 198 -227q-34 46 -34 103q0 77 55 132t129 55q76 0 130 -54t54 -130q0 -74 -94 -170l-31 -16l-55 -25q-47 -12 -105 -12h-18l-102 16q-92 47 -187 142 q-100 -158 -280 -158q-147 0 -248 88q-45 39 -88 115q-29 63 -29 133zM1061 213q0 -31 28.5 -56.5t59.5 -25.5q35 0 57.5 25.5t22.5 60.5q0 31 -27.5 56.5t-58.5 25.5t-56.5 -27.5t-25.5 -58.5z" />
<glyph unicode="{" horiz-adv-x="884" d="M-78 -455l66 95l172 -127l241 483l-49 4q-115 10 -192 119q-74 102 -74 221q0 158 95 257t253 99t257.5 -95t99.5 -253q0 -84 -33 -151l-86 61l10 45l4 51q8 90 -78 168q-70 63 -174 64q-100 0 -165.5 -75t-65.5 -177q0 -80 51 -144q12 51 58 87t100 36q70 0 118 -46 t48 -115q0 -43 -21 -82l-367 -715zM205 981q0 119 85 206t204 87t205.5 -85t86.5 -204l-96 4q0 80 -58.5 135.5t-137.5 55.5q-78 0 -133.5 -58.5t-55.5 -136.5q0 -82 56.5 -136t138.5 -54l-6 -103q-117 0 -203 86t-86 203zM348 147q0 -66 66 -65q65 -1 65 65t-65 66 q-66 0 -66 -66zM377 -348q0 121 84 205t205 84l6 -103q-41 0 -131 -55q-63 -57 -64 -135q0 -70 59.5 -132.5t129.5 -62.5q37 0 139 55q57 58 57 136l96 4q0 -119 -87 -204t-205 -85q-119 0 -204 87t-85 206z" />
<glyph unicode="|" horiz-adv-x="552" d="M66 -270v1487q0 51 53 51h231v-107h-176v-1380h176v-107h-231q-53 0 -53 56z" />
<glyph unicode="}" horiz-adv-x="772" d="M113 999q2 -23 14 -49q41 -92 141 -80q23 2 109 64l10 22l10 31q4 27 -2 72q-33 139 -82 186q-8 15 -149 103l84 -117l14 -84l-33 4q-55 -6 -89 -51t-27 -101zM190 1014q0 43 50 59q53 8 82 -45l-7 -53l-41 -31l-49 6q-20 16 -32 41q-2 12 -3 23zM455 999q2 -25 14 -47 q43 -90 145 -80q27 2 107 64l12 20l10 33q4 25 -2 70q-33 127 -86 188q-6 15 -147 101l41 -52l45 -63l14 -84l-33 4q-57 -8 -93 -52t-27 -102zM535 1014q0 43 47 61q55 6 82 -45l-5 -53l-43 -33l-47 8q-20 14 -32 41q-2 10 -2 21z" />
<glyph unicode="~" horiz-adv-x="780" d="M43 377q92 152 205 151h37l39 -10l79 -31l136 -38q42 0 110 92l88 -56q-98 -145 -198 -145l-58 6l-22 4l-43 19l-58 22q-78 31 -108 31q-37 0 -72 -33l-49 -70z" />
<glyph unicode="&#xa1;" horiz-adv-x="935" d="M100 289q-10 14 6 92q66 313 410 313q145 0 244 -123q94 -115 94 -262q0 -117 -61 -211q-68 -108 -179 -108q-68 0 -116.5 46t-48.5 114q0 72 49 112.5t123 40.5q43 0 63 -20l39 -56q25 31 25 80q0 106 -66 189q-70 90 -174 90q-221 0 -289 -209q166 -47 166 -189 q0 -12 -2 -30q-18 -166 -180 -166q-63 6 -92 24l30 115l29 -14q8 -4 47 -4q51 0 57 59q0 72 -65 88zM551 141q0 -55 63 -55q56 1 56 64q0 55 -64 55q-55 0 -55 -64z" />
<glyph unicode="&#xa2;" horiz-adv-x="1429" d="M100 334q0 162 93.5 260t255.5 98q172 0 270 -123q92 139 278 140q160 0 258 -117q95 -108 95 -270q0 -152 -86 -243t-236 -91q-51 0 -99 33.5t-61 82.5l-8 56q0 117 133 149l37 4q61 0 105.5 -46t44.5 -107q70 88 69 164q0 33 -12 79q-23 86 -88.5 141.5t-151.5 55.5 q-102 0 -178 -65q-41 -35 -41 -82q16 -43 17 -170q0 -86 -95 -181q-113 -113 -280 -112q-94 0 -197 86q-123 104 -123 258zM205 344q0 -102 70.5 -170t173.5 -68q102 0 169.5 72t67.5 174q0 98 -72.5 168t-171.5 70q-100 0 -168.5 -73t-68.5 -173zM944 154q0 -66 76 -76 q74 0 76 76q2 74 -76 75q-68 2 -76 -75z" />
<glyph unicode="&#xa3;" horiz-adv-x="835" d="M78 330q0 162 115 276l4 4q39 51 112 52q94 0 135 -78q16 -31 17 -70q0 -86 -80 -133q-31 -18 -70 -19q-63 0 -110 50l-15 -76q0 -102 72 -167t176 -65q70 0 139 50q88 63 89 192q0 150 -138 219l43 101q96 -45 156.5 -135.5t60.5 -194.5q0 -156 -99 -254t-255 -98 q-152 0 -252 97t-100 249zM254 508q0 -18 17.5 -37.5t35.5 -19.5t38 17t20 36q0 20 -17 38.5t-37 18.5q-18 0 -37.5 -17.5t-19.5 -35.5z" />
<glyph unicode="&#xa4;" horiz-adv-x="1472" d="M43 561l147 -6l222 14q-11 -70 -66 -86l-88 -8l-139 -2l-19 6q-16 8 -57 82zM63 567l9 82q4 31 24 88q16 27 123 80q100 35 248 49l139 15l131 6l78 2q-31 0 172 -19l68 -6q33 -2 51 -10l53 -8l60 -21q113 -25 149 -84q27 -31 43 -176l-70 -6l-55 -2l-82 -2l-37 6l-63 8 l-53 15q0 23 -19 41l-31 10l-26 10l-2 -24q-2 -23 0 -37l35 -37q16 -16 69 -98l123 -324l-4 -66l2 -22q0 -18 -8 -33l-14 -10l-23 -12l-866 8l-11 67l-4 68l117 307q10 29 29 57l41 50q18 18 35 39q10 18 8 45l-2 26q-70 -12 -78 -65l-117 -23q-57 -2 -104 -2q-92 0 -138 8z M557 342q0 -76 51 -132t127 -56q80 0 132.5 52t52.5 132q0 76 -52.5 130t-128.5 54t-129 -52t-53 -128zM569 664l23 -52h4l141 4l142 -4l22 50l-72 12l-94 4h-55q-35 0 -41 -4q-37 0 -70 -10zM1061 569l221 -14l145 6q-46 -94 -120 -90l-93 4l-86 6q-55 14 -67 88z" />
<glyph unicode="&#xa5;" horiz-adv-x="761" d="M25 422v55h327v328h54v-328h329v-55h-329v-330h-54v330h-327z" />
<glyph unicode="&#xa6;" horiz-adv-x="974" d="M96 311v97h713v-97h-713z" />
<glyph unicode="&#xa7;" horiz-adv-x="849" d="M104 96l252 252l-252 252l66 72l256 -254l250 254l74 -72l-256 -252l256 -252l-74 -73l-252 258l-254 -258z" />
<glyph unicode="&#xa8;" horiz-adv-x="837" d="M66 276v97h712v-97h-712zM295 117q0 51 36 88t87 37t85 -36t34 -87q0 -53 -32 -87t-85 -34t-89 32.5t-36 86.5zM295 571q0 51 32.5 87t84.5 36q55 0 92 -35t37 -90q0 -53 -34 -85.5t-87 -32.5q-55 0 -90 32.5t-35 87.5zM389 121q0 -27 23 -27q33 0 32 25q0 6 -6 16 q-12 12 -20 12q-10 0 -19 -6q-10 -12 -10 -20zM389 571q0 -27 29 -26q25 0 24 26q0 7 -4 15q-12 12 -20 12q-29 0 -29 -27z" />
<glyph unicode="&#xa9;" horiz-adv-x="1024" d="M23 412v114h188l63 312h-251v110h276l92 455h113l-90 -455h305l98 455h113l-94 -455h168v-110h-189l-65 -312h254v-114h-277l-92 -457h-113l92 457h-309l-94 -457h-115l94 457h-167zM326 526h309l65 312h-309z" />
<glyph unicode="&#xaa;" horiz-adv-x="1423" d="M68 946q0 14 69 33q57 14 221 70l21 8q14 0 14 -43v-449q0 -53 13.5 -71.5t63.5 -24.5t50 -23q0 -20 -37 -20l-100 2l-98 4h-41l-37 -2h-74q-31 0 -35 19q0 8 58.5 21t67.5 20.5t9 54.5v395q0 12 -22 12h-10l-15 -2l-45 -12l-47 -10q-27 0 -26 18zM391 29l15 34l550 988 q4 6 37 6h35q18 0 21 -17l-15 -30l-547 -977q-4 -12 -34 -13h-45q-14 0 -17 9zM856 39q0 12 33 49l166 184q115 127 114 195q0 51 -35.5 85t-86.5 34q-66 0 -119 -54l-51 -51q-20 0 -21 19q0 57 100 104q84 39 152 39q84 0 149 -35q80 -41 80 -116q0 -100 -98 -166l-131 -86 q-98 -63 -102 -88q12 -8 26 -9h203q35 0 43 13l16 32q4 20 23 21q23 0 20 -45l-6 -107q-2 -29 -6 -34l-33 -3h-395q-41 0 -41 19z" />
<glyph unicode="&#xab;" horiz-adv-x="1423" d="M74 932q0 10 127 53q20 6 82 27l100 30q18 0 18 -41v-450q0 -61 7 -78q18 -20 63 -20q55 0 55 -19q0 -29 -39 -22l-45 6h-41l-57 2h-98l-35 -2h-74q-33 0 -35 20q0 8 54.5 16.5t68 18.5t13.5 59v396q0 12 -21 12h-12l-15 -2l-45 -10q-18 -8 -47 -13q-25 0 -24 17zM438 16 q0 18 13 33l550 987q6 6 35 6h37q20 0 23 -12l-15 -35l-528 -946q-23 -41 -53 -41h-47q-12 0 -15 8zM795 229q0 20 20 45l342 418q18 23 25 25l49 2l8 -6l-47 -58l-160 -176l-168 -219q16 -4 31 -4h160q14 0 18 4l2 31v115l2 40l41 17l107 29q12 -12 12 -27v-201 q14 -8 20 -8h78q6 -14 6 -23q0 -29 -6 -32l-43 -4l-53 -7l-2 -30v-51q0 -63 68 -64q25 0 24 -22q0 -18 -35 -19l-139 4l-143 -4q-37 -2 -37 19q0 23 78 28q23 8 22 58v49q0 39 -14 39h-238q-14 0 -18 4q-10 16 -10 28z" />
<glyph unicode="&#xac;" horiz-adv-x="1423" d="M76 399q0 53 67 54q20 0 68 -43l49 -45q68 0 115 54t47 124t-48 118t-118 48t-127 -25l-14 -2q-12 0 -15 14l50 37q57 27 131 66q72 49 71 110q0 82 -86 82q-66 0 -116 -57q-8 -18 -27 -23q-12 0 -17 19q0 49 93 84q72 27 133 26q68 0 110 -24q70 -20 70 -80 q0 -53 -78 -100l-131 -60h64q88 0 147 -37q70 -43 70 -127q0 -123 -135 -211q-121 -80 -250 -79q-123 0 -123 77zM420 12q0 20 14 35l524 954q20 39 60 39h37q20 0 20 -12l-14 -35l-549 -977q-4 -6 -31 -10h-43q-14 0 -18 6zM797 227q0 14 22 43l340 418q18 23 33 27h41 l8 -4l-22 -31l-25 -29l-160 -176l-168 -217q16 -6 31 -6h137l41 4l2 33v114l4 41l39 17q41 16 109 28q10 -14 10 -26v-201q14 -10 23 -10h75q6 -12 6 -23q0 -29 -4 -30l-45 -9l-53 -2l-2 -30v-52q0 -63 68 -63q25 0 24 -20q0 -23 -33 -23l-69 2l-72 4l-67 -4l-74 -2 q-37 -2 -37 23q0 16 31 20q41 0 54 12.5t13 50.5v50q0 35 -12 34l-258 7q-10 18 -10 30z" />
<glyph unicode="&#xad;" horiz-adv-x="974" d="M96 311v97h713v-97h-713z" />
<glyph unicode="&#xae;" horiz-adv-x="1107" d="M0 379q4 131 61 217q68 102 193 102q45 0 96 -14q14 -4 266 -104q174 -70 240 -70q150 0 168 186h84q-4 -137 -66 -221q-69 -98 -200 -98q-86 0 -381 123q-154 63 -211 63q-131 0 -170 -184h-80z" />
<glyph unicode="&#xaf;" horiz-adv-x="1026" d="M39 -86l250 487l-250 488h90l408 -488l-408 -487h-90zM492 -86l251 487l-251 488h92l397 -488l-397 -487h-92z" />
<glyph unicode="&#xb0;" horiz-adv-x="1026" d="M43 403l399 486h90l-251 -486l251 -489h-90zM487 403l408 486h92l-254 -486l254 -489h-94z" />
<glyph unicode="&#xb1;" horiz-adv-x="1499" d="M8 -387l678 676l-678 678v-1354zM698 -387l678 676l-678 678v-1354z" />
<glyph unicode="&#xb2;" horiz-adv-x="1499" d="M123 289l676 678v-1354zM813 289l678 678v-1354z" />
<glyph unicode="&#xb3;" horiz-adv-x="1155" d="M23 340v68l1105 479v-119l-903 -393l903 -395v-123z" />
<glyph unicode="&#xb4;" horiz-adv-x="1155" d="M23 -23l905 392l-905 395v123l1105 -481v-70l-1105 -479v120z" />
<glyph unicode="&#xb5;" horiz-adv-x="1499" d="M573 -387l680 676l-680 678v-1354z" />
<glyph unicode="&#xb6;" horiz-adv-x="1499" d="M344 289l676 678v-1354z" />
<glyph unicode="&#xb7;" horiz-adv-x="1304" d="M74 913l135 72l381 -647l-389 -670l-109 99l1004 567zM160 911l33 17l348 -592l-353 -602l-26 24l1020 576zM281 784l28 29l805 -455l-10 -39h-549zM356 737l224 -377h444z" />
<glyph unicode="&#xb8;" horiz-adv-x="1304" d="M-88 334l1022 577l-33 17l-348 -592l352 -602l27 24zM-20 358l10 -39h549l274 465l-29 29zM-2 334l1022 579l-135 72l-381 -647l389 -670l108 99zM70 360l667 377l-223 -377h-444z" />
<glyph unicode="&#xb9;" horiz-adv-x="1415" d="M90 639l268 256l258 -256l-258 -270zM446 285l256 270l256 -270l-256 -285zM446 967l256 284l256 -284l-256 -254zM784 639l258 256l285 -268l-285 -258z" />
<glyph unicode="&#xba;" horiz-adv-x="1249" d="M98 313l170 301l-170 304h351l186 307l176 -307h348l-172 -304l172 -301h-348l-176 -313l-186 313h-351zM205 369h213l-103 180zM205 856l110 -180l97 180h-207zM350 614l142 -245h284l142 245l-142 242h-284zM520 918h221l-106 186zM532 313l103 -182l106 182h-209z M846 369h209l-101 180zM846 856l108 -180l101 180h-209z" />
<glyph unicode="&#xbb;" horiz-adv-x="1376" d="M90 0v1208h1194v-1208h-1194z" />
<glyph unicode="&#xbc;" horiz-adv-x="1294" d="M90 0v1128h1112v-1128h-1112zM176 72l946 2v960h-946v-962z" />
<glyph unicode="&#xbd;" horiz-adv-x="1345" d="M90 197v970h957l204 -196v-971h-964zM139 211h901v899h-901v-899z" />
<glyph unicode="&#xbe;" horiz-adv-x="1335" d="M90 584q0 -162 74 -295t213 -211t295 -78q162 0 289 78q121 74 206 209q76 147 76 297q0 147 -76 288q-55 102 -206 213q-133 78 -289 78q-205 0 -355.5 -119.5t-205.5 -316.5q-20 -74 -21 -143zM139 584q0 139 74 256q78 127 195 190q127 70 264 70q135 0 259 -72 t189 -190q70 -125 70 -254q0 -291 -256 -447q-123 -74 -262 -74q-135 0 -258 70t-199 186.5t-76 264.5z" />
<glyph unicode="&#xbf;" horiz-adv-x="1949" d="M68 657l757 291v-200h830v421h178v-600h-1008v-200z" />
<glyph unicode="&#xc0;" horiz-adv-x="1720" d="M96 229v164h852v283l447 -365l-447 -366v284h-852zM96 719v698h166v-698h-166zM309 1067l449 367v-283h850v-164h-850v-287zM1444 -39v698h164v-698h-164z" />
<glyph unicode="&#xc1;" horiz-adv-x="1505" d="M78 711l670 669l669 -669h-356v-725h-625v725h-358zM389 840h178v-723h363v723h176l-358 356z" />
<glyph unicode="&#xc2;" horiz-adv-x="1712" d="M57 295v625h736v321h274l596 -635l-596 -635h-274v324h-736zM297 377h750v-307l503 536l-503 537v-305h-750v-461z" />
<glyph unicode="&#xc3;" horiz-adv-x="1712" d="M-16 606l596 -635h274v324h735v625h-735v321h-274zM96 606l504 537v-305h750v-461h-750v-307z" />
<glyph unicode="&#xc4;" horiz-adv-x="1046" d="M43 399q78 82 268 336q141 188 209 322q213 -350 481 -658q-79 -88 -249 -313q-141 -186 -230 -348q-121 233 -479 661z" />
<glyph unicode="&#xc5;" horiz-adv-x="1216" d="M49 784q0 119 77 198t196 79q197 0 288 -219q80 219 283 219q121 0 198.5 -73t77.5 -193q1 -119 -71 -246q-41 -72 -148 -207q-264 -332 -340 -610q-51 190 -143 336q-57 90 -180 256q-113 152 -150 206q-88 131 -88 254z" />
<glyph unicode="&#xc6;" horiz-adv-x="1343" d="M41 369q0 123 65 202q72 88 191 88q49 0 127 -32q-45 86 -45 147q0 129 81 208t210 79q131 0 213 -77t82 -206q0 -72 -45 -149q70 33 120 33q121 0 193 -83t72 -206q0 -129 -81 -213t-210 -84q-203 0 -312 192q20 -231 172 -334q57 -39 228 -71l14 -64h-887l17 64 q168 35 221 69q176 115 178 338q-117 -197 -311 -196q-127 0 -210 84t-83 211z" />
<glyph unicode="&#xc7;" horiz-adv-x="1089" d="M43 289q0 129 127 264q98 86 227 207q98 92 146 336q43 -170 92 -252q39 -66 180 -193q102 -92 154 -159q78 -102 78 -201q0 -102 -67 -169t-169 -67q-139 0 -238 146q33 -334 373 -357l10 -65h-827l14 69q354 0 379 353q-92 -145 -243 -146q-98 0 -167 67.5t-69 166.5z " />
<glyph unicode="&#xc8;" horiz-adv-x="1019" d="M129 524q0 207 78 353q98 182 289 182q190 0 288 -180q80 -145 80 -355q0 -207 -80 -352q-98 -180 -288 -180q-193 0 -289 180q-78 143 -78 352zM254 524q0 -166 43 -276q61 -160 199 -160q135 0 198 160q45 115 45 276q0 168 -43 279q-61 160 -200 160q-133 0 -197 -164 q-45 -117 -45 -275z" />
<glyph unicode="&#xc9;" horiz-adv-x="870" d="M178 940q0 18 17 35q14 10 45 14l202 62q61 0 62 -50v-847l61 45l10 -2q49 -10 50 -64l-7 -31l-129 -92q-16 -18 -43 -18q-57 0 -57 67v852l-149 -41q-61 0 -62 70z" />
<glyph unicode="&#xca;" horiz-adv-x="870" d="M72 985q0 33 24 51q10 6 27 11l29 -5l47 -92q80 109 235 109q135 0 217 -66q90 -72 90 -202q0 -100 -110 -242l-322 -410l76 21q25 0 43 -23.5t18 -48.5q0 -35 -61 -47l-213 -41q-61 0 -61 41l6 31l24 34l375 472q98 123 98 204q0 180 -184 181q-63 0 -110.5 -50.5 t-47.5 -113.5q0 -41 21 -80q10 -18 0 -31l-35 -20l-18 -6q-31 0 -64 75l-102 238q-2 4 -2 10z" />
<glyph unicode="&#xcb;" horiz-adv-x="870" d="M78 45l12 43l399 864l-92 -41q-63 0 -63 50q0 49 63 49l178 41q55 0 58 -33l-6 -31l-15 -35l-163 -356q12 31 36 31q47 0 95 -107l79 -180l48 -127l30 -90l15 -39l8 -35q0 -29 -31 -45l-29 -8q-27 0 -49 37l-26 63l-72 183q-94 242 -127 241q-10 0 -23 -20l-221 -471 q-16 -37 -51 -37t-47 18z" />
<glyph unicode="&#xcc;" horiz-adv-x="870" d="M-16 250l4 41l2 8q6 23 30 29q49 12 86 -90l21 -58l59 219q10 41 52 203q14 59 57 203l61 207l19 49q12 25 35 26q18 0 41 -34l65 -103l49 -256l133 -633q1 -39 -30 -57l-27 -6q-25 0 -45 41l-25 76l-14 57l-25 111l-53 254l-69 278l-207 -786q-10 -37 -72 -37 q-35 0 -49 28l-45 95z" />
<glyph unicode="&#xcd;" horiz-adv-x="870" d="M49 471l4 88l39 43l103 109l36 32q35 23 64 27h262v223q0 68 57 68q59 0 60 -68v-223h84q51 0 59 -51q0 -49 -59 -49h-84v-588q0 -88 -96 -88q-57 0 -107 47q-23 23 -86 88l-213 215q-121 123 -123 127zM160 508l391 -383l6 549h-235z" />
<glyph unicode="&#xce;" horiz-adv-x="870" d="M49 582q80 115 216 252t247 210q37 14 66 15q96 0 96 -88v-588h84q59 0 59 -49q0 -20 -18.5 -35.5t-40.5 -15.5h-84v-224q0 -68 -60 -67q-57 -1 -57 67v224h-262q-47 0 -100 57q-23 35 -99 111l-43 43zM160 545l162 -166h235v549z" />
<glyph unicode="&#xcf;" horiz-adv-x="780" d="M47 1001q0 49 64 50h567q55 0 57 -33l-6 -33l-14 -33l-486 -854h447l41 -24l8 -54l-41 -32l-563 4q-51 0 -51 41q0 20 20 55l502 864h-481q-63 0 -64 49z" />
<glyph unicode="&#xd0;" horiz-adv-x="870" d="M98 309q0 72 105 219q41 57 153 195l-186 256l-68 82h156l176 -242l176 238l66 -6l90 -2q-55 -43 -256 -324l186 -229q74 -90 74 -187q0 -143 -95 -230t-241 -87q-150 0 -243 85t-93 232zM221 328q0 -104 55.5 -172t157.5 -68q94 0 152.5 67.5t58.5 163.5q0 59 -104 179 l-107 120l-106 -120q-106 -121 -107 -170z" />
<glyph unicode="&#xd1;" horiz-adv-x="870" d="M98 743q0 145 94.5 231.5t241.5 86.5q145 0 240.5 -87.5t95.5 -230.5q0 -100 -113 -235l-147 -178l190 -256q35 -47 66 -70h-82l-74 -8l-176 237l-176 -241h-156l66 78l188 258q-178 219 -215 282q-43 74 -43 133zM221 725q0 -45 107 -168l106 -123l105 119 q106 121 106 180q0 100 -56.5 166t-154.5 66q-104 0 -158.5 -67t-54.5 -173z" />
<glyph unicode="&#xd2;" horiz-adv-x="1992" d="M127 -219v1145l156 6l57 110q193 53 346 54q227 0 313 -129q59 90 181 114q66 14 217 11q125 -2 262 -50l53 -102l166 -8v-1151l-719 53l-72 -33l-36 -4l-39 -6q-61 0 -140 33l-24 10zM199 -143l669 47l37 -19l37 -12l33 -8l35 -2q31 -2 59 10l74 31l661 -47v1011l-55 4 l27 -45v-938l-654 39q-51 -37 -121 -37q-74 0 -122 37l-652 -39v938l17 39l-45 -6v-1003zM297 45l47 92v760l-47 -86v-766zM338 -39l561 45q23 -25 62 -41q-34 154 -267 154h-49q-29 0 -43 -4l-53 -6q-23 0 -152 -27zM418 158l155 22l113 6q180 10 281 -77v708 q0 217 -262 211l-76 -2q-43 -2 -211 -37v-831zM1038 -37q37 8 68 45l563 -45l-59 117l-72 16l-86 13l-72 6l-77 4q-252 12 -265 -156zM1038 106q66 57 164 74q33 6 180 4q61 0 76 -8l49 -2l82 -16v833l-151 25l-84 10l-49 2q-266 10 -267 -211v-711zM1659 137l47 -90v758 l-47 88v-756z" />
<glyph unicode="&#xd3;" horiz-adv-x="1751" d="M51 -205l8 27l15 31l96 198l-20 23l67 176l29 115l61 170q238 236 408 303l119 -66l149 166l25 100q20 82 45 88q39 0 67 -82q2 -8 31 -116l4 -72q2 -23 -4 -29l-31 -32l-123 -140l156 -102l53 -29l84 -18l25 43l327 -23l41 -157l15 -213l-58 -299l-327 -9l-29 107 l-176 -37l-225 21l-242 -15l-70 2q-35 2 -182 41l-106 -114l-156 -60l-49 -16zM145 -133q0 -6 5 -8l20 6l35 16l33 10l8 11l-2 8q-14 23 -43 55l-13 -4l-26 -55l-15 -23zM221 100q25 -2 45 27l13 39q3 58 -3 70zM295 289l35 -17l16 -71l-41 -99h4l60 66l22 33l21 43l49 104 l317 361l-28 24q-27 23 -37 23q-25 0 -146 -88l-35 -33l-153 -139q-18 -16 -84 -207zM408 57q0 -12 2 -18l57 -16l47 -7l16 37l-16 127l43 -33l14 -24l21 -55q0 -33 -21 -62l4 -4l48 -6h90l147 27l55 6l37 -9l97 -14l59 -2q53 -2 215 43l20 115v55q0 63 -8 100l-12 56 l-18 59l-125 12l-240 144l-102 -117q4 -78 -15 -129l-73 -84l45 2l141 53q-10 -57 -33 -80l-49 -34l-233 -13q-72 -4 -134 -32q-80 -37 -79 -97zM649 258l21 -2q10 0 53 49l12 14q18 39 23 62zM1372 -68l180 17q33 172 31 241l-2 78q-2 41 -8 66q-8 66 -35 119h-147v-15 l22 -211q0 -66 -14 -153l-13 -76z" />
<glyph unicode="&#xd4;" horiz-adv-x="1923" d="M57 -215v737l441 23v-74l10 -4q45 0 233 106l93 39l75 17q61 0 119 -37l195 6l352 -12q90 -4 180 -37q113 -43 113 -125q0 -80 -123 -113q-53 -14 -367 -28l11 -15l12 -45l-10 -41q68 -41 67 -119q0 -29 -16 -53l31 -39l14 -53q0 -68 -113 -145q-90 -47 -182 -47 q-80 0 -145 57h-58l-59 -2q-102 -4 -309 100l-46 23l-43 10l-34 2v-102l-172 -11l-25 -47zM303 449l19 -517h81v510zM496 6q49 -4 127 -29q25 -18 131 -77l65 -23l62 -10l71 -2h74v6q-72 16 -76 109q-41 8 -76 34l-36 82h-105l-147 54v30l22 27l25 -6l65 -15l66 -2 q53 -2 82 17l35 22l32 33l-88 106l43 48l146 -121l47 -25q23 -12 53 -12l49 10q29 6 29 29q-1 16 -21 39l-36 39q-20 18 -174 157l-66 15q-57 0 -246 -111q-86 -51 -153 -55v-369zM922 117q0 -55 65 -51l31 2l29 10l30 16l117 43l70 37q41 23 41 53q-1 13 -17 31 q-66 -84 -168 -84q-39 0 -121 27q-43 0 -77 -84zM1042 -12q0 -41 25 -45q12 -2 53 0q106 20 146 34q92 35 94 91q0 38 -33 38l-47 -16q-84 -45 -233 -98q-2 0 -5 -4zM1108 -158q4 -41 86 -41q49 0 117 29q80 35 80 74q0 12 -23 41l-14 -4l-29 -15l-53 -22l-51 -17l-101 -28z M1120 514l121 -141h121l375 14q31 6 30 47q1 19 -112 64l-88 12l-307 12z" />
<glyph unicode="&#xd5;" horiz-adv-x="1878" d="M2 467v98h336q20 184 137 332l-285 287l70 82l295 -285q168 115 332 133v340h108v-340q180 -16 332 -135l291 287l74 -74l-289 -293q131 -168 137 -338h338v-98h-336q-25 -182 -139 -334l289 -291l-82 -67l-283 280q-156 -111 -332 -135v-340h-108v340q-188 29 -328 131 l-297 -280l-72 73l289 287q-115 154 -141 340h-336zM442 512q0 -221 137.5 -357.5t358.5 -136.5q225 0 361.5 134.5t136.5 359.5q0 293 -252 434q-117 66 -246 66q-227 0 -361.5 -136.5t-134.5 -363.5z" />
<glyph unicode="&#xd6;" horiz-adv-x="1026" d="M23 63q0 125 83 197q78 68 205 68q72 0 160 -39v968h53q162 0 232 -18q246 -66 245 -387v-117h-127v58q0 205 -262 204h-10v-821q0 -231 -153 -309q-86 -43 -177 -43q-115 0 -182 63.5t-67 175.5z" />
<glyph unicode="&#xd7;" horiz-adv-x="1536" d="M72 -49q0 125 82 194.5t208 69.5q70 0 158 -37v963l823 256v-1129q1 -346 -323 -346q-113 0 -182.5 62.5t-69.5 175.5q0 121 84 192.5t207 71.5q61 0 155 -39v680l-565 -176v-823q0 -231 -147 -310q-86 -45 -180 -45q-113 0 -181.5 63.5t-68.5 176.5z" />
<glyph unicode="&#xd8;" horiz-adv-x="1384" d="M90 745h477l142 449l141 -449h477l-393 -282l153 -463l-378 281l-379 -281l139 463zM246 688l293 -215l-113 -328l283 211l280 -219l-125 346l301 211h-362l-88 336l-115 -342h-354z" />
<glyph unicode="&#xd9;" horiz-adv-x="1384" d="M90 745h477l142 449l141 -449h477l-393 -282l153 -463l-378 281l-379 -281l139 463z" />
<glyph unicode="&#xda;" horiz-adv-x="1140" d="M152 84l16 51l12 43q12 43 13 82h20l59 -80q90 -121 265 -121v574q-162 57 -242 127q-106 96 -107 239q0 158 97 258q92 92 252 119v156h84v-152q115 0 172 -22q76 -18 135 -70l-51 -164h-25q-78 176 -231 176v-516q180 -59 253 -118q109 -90 109 -246q0 -88 -20 -139 l-27 -66q-8 -23 -39 -63q-90 -123 -276 -160v-228h-84v211q-262 0 -385 109zM348 1067q1 -166 189 -248v473q-84 -16 -136.5 -77.5t-52.5 -147.5zM621 72q96 23 149 96.5t53 175.5q0 100 -55 160q-41 43 -147 92v-524z" />
<glyph unicode="&#xdb;" horiz-adv-x="1251" d="M197 0v1397h372v190h52v-190q432 0 432 -285q0 -266 -322 -360q80 0 152 -25q45 -18 114 -68q106 -76 107 -231q0 -254 -240 -371q-117 -57 -243 -57v-174h-52v174h-372zM377 76h192v626l-69 3h-123v-629zM377 780h123l69 4v535l-32 2h-160v-541zM621 78q168 16 249 149 q45 76 45 164q1 256 -294 305v-618zM621 791q256 53 256 276q0 147 -89 197q-44 24 -167 51v-524z" />
<glyph unicode="&#xdc;" horiz-adv-x="714" d="M12 272v381q0 119 84 195t205 76q125 0 209 -74t84 -197v-381q0 -125 -83 -198.5t-210 -73.5q-123 0 -206 76t-83 196zM184 270q0 -45 36 -75.5t81 -30.5t82 30.5t37 75.5v383q0 45 -36 76t-83 31t-82 -30t-35 -77v-383z" />
<glyph unicode="&#xdd;" horiz-adv-x="751" d="M2 272q0 23 57 47l119 52v-101q0 -45 36 -75.5t83 -30.5q45 0 74.5 30.5t29.5 75.5l2 170l5 60l-7 137q-6 123 -104 123q-47 0 -84 -31t-35 -76l4 -84q-14 2 -61 19l-41 14q-39 14 -45 19q-27 14 -33 32q0 119 90 197q84 74 205 74t205 -81t84 -202v-369 q0 -121 -83 -196.5t-206 -75.5q-121 0 -208 77t-87 195z" />
<glyph unicode="&#xde;" horiz-adv-x="751" d="M14 -279q0 256 109 250l41 -2l26 -2v-246q0 -45 37 -76.5t82 -31.5q43 0 76 32.5t33 75.5v1162q0 25 28.5 39t55.5 14q96 0 96 -49v-1166q0 -119 -84 -194.5t-205 -75.5t-201.5 75t-93.5 195z" />
<glyph unicode="&#xdf;" horiz-adv-x="751" d="M2 272q0 35 72 68q63 31 104 31v-101q0 -45 36 -75.5t83 -30.5q45 0 81 30.5t36 75.5v383q-6 45 -39 76t-78 31q-111 0 -119 -107l-4 -53l4 -31q-49 0 -102 21q-66 25 -74 63q0 119 90 197q84 74 205 74t205 -76t84 -195v-381q0 -133 -115 -219q-53 -39 -119 -47l-55 -6 l252 -424l-98 -139l-408 694q-41 70 -41 141z" />
<glyph unicode="&#xe0;" horiz-adv-x="751" d="M8 272v381q0 119 86 195t207 76q125 0 209 -74t84 -197q0 -31 -76 -59q-63 -25 -102 -25l4 35l-4 49q-8 106 -115 107q-115 0 -119 -107l-6 -153l2 -178l4 -52q8 -106 119 -106q43 0 79 31.5t36 74.5v101q47 0 104 -27q68 -31 74 -72q0 -70 -43 -141l-416 -688l-94 139 l260 418l-57 6q-106 12 -171 86t-65 180z" />
<glyph unicode="&#xe1;" horiz-adv-x="751" d="M-6 -129q0 25 57 51l53 17l50 6q18 0 20 -8v-220q0 -43 36 -75.5t79 -32.5t84 31q33 32 33 77v938q0 109 -107 109q-49 0 -84 -31t-35 -78v-264q0 -10 45 -22q37 0 76 -31q31 -25 31 -129q0 -66 -25 -123q-31 -76 -86 -76q-96 0 -160 88q-57 78 -57 178v381q0 115 92 193 q86 76 203 76q119 0 204 -76t85 -193v-942q0 -115 -94 -192q-86 -74 -205 -74q-117 0 -205 76t-88 190v88l-2 47v21zM174 182l31 -6l26 6q37 12 37 64q0 68 -67 67l-27 -6v-125z" />
<glyph unicode="&#xe2;" horiz-adv-x="751" d="M-10 184v940q0 117 92 195q86 74 205 74q127 0 204.5 -72t88.5 -197l4 -55v-100q0 -27 -70 -51q-57 -20 -92 -21q-18 0 -21 8v219q0 45 -33.5 76t-80.5 31q-49 0 -82 -30t-35 -77l-2 -94l2 -846q0 -47 29.5 -76.5t76.5 -29.5q45 0 82 30.5t37 75.5v267q0 8 -49 21t-57 22 q-45 33 -45 143q0 70 22 123q31 72 90 71q37 0 84 -24q27 -14 72 -62q4 -6 4 -14q0 -14 -12 -35l-21 -32l-26 -31l-62 18q-39 12 -51 8q-37 -12 -37 -63q0 -43 37 -61l49 -13q23 0 70 -27.5t67 -48.5q33 -33 39 -88l4 -41v-32l-2 -41v-60q0 -117 -88 -193.5t-207 -76.5 q-123 0 -204.5 74.5t-81.5 195.5z" />
<glyph unicode="&#xe3;" horiz-adv-x="751" d="M4 276v381q0 115 92 193q86 76 203 76q119 0 204 -76t85 -193v-1048h129v-146h-236l-30 23q-27 20 -35 39l-8 55l-2 113v962q0 109 -107 109q-49 0 -84 -31t-35 -78v-389q0 -49 33 -69l74 -35l-2 -37l-17 -41l-47 -74l-37 -6q-84 0 -135 98q-45 84 -45 174z" />
<glyph unicode="&#xe4;" horiz-adv-x="751" d="M4 276v381q0 115 92 193q86 76 203 76q119 0 204 -76t85 -193v-381q0 -139 -168 -270q-23 27 -35 88l-10 96l26 39q12 16 13 45l2 123l4 109l-6 137q-6 121 -115 121q-49 0 -84 -31t-35 -78v-237q18 -12 123 -68q29 -27 29 -137q0 -66 -25 -125q-31 -78 -86 -78 q-96 0 -160 88q-57 78 -57 178zM174 182l31 -6l26 6q37 12 37 64q0 68 -67 67l-27 -6v-125z" />
<glyph unicode="&#xe5;" horiz-adv-x="751" d="M2 -283v942q0 117 85 193t204 76q123 0 209 -74t86 -195v-59l2 -53l-4 -62q-4 -47 -43 -86l-35 -28l-39 -25q-16 -8 -68 -24l-57 -19q-23 -8 -23 -57q0 -63 54 -64q8 0 20 2l76 27l47 -66q16 -23 10 -47q-72 -86 -157 -86q-57 0 -88 74q-23 55 -23 123q0 82 14 108 q20 39 90 54q39 0 46 22v264q0 70 -70 101l-47 8q-43 0 -76 -33t-33 -76l-2 -92l2 -846q0 -45 36 -76.5t83 -31.5t81 30.5t34 77.5v220l20 6q47 0 111 -27q43 -18 49 -45l-2 -59v-97q0 -113 -89 -189.5t-204 -76.5q-121 0 -207 72q-92 76 -92 194z" />
<glyph unicode="&#xe6;" horiz-adv-x="1433" d="M274 170l265 309l-107 205q-45 88 -70 172q0 27 9 37l22 20l17 9l14 4l35 -17l14 29q14 31 59 31l185 -277l311 318q8 14 35 14q14 0 51 -25l12 -12v-31l43 -22q25 -10 25 -51l-332 -398l207 -243l8 -25q0 -27 -23.5 -59.5t-47.5 -42.5q-6 10 -7 22h11q0 -25 -20.5 -55.5 t-43.5 -30.5q-12 0 -18 12l-15 21l-30 -33l-31 -22l-16 4q-20 10 -43 39l-127 170l-217 -275q-14 -18 -27 -20q-12 0 -21 14l-16 39l-45 2l-23 39l-24 51l8 10l14 21z" />
<glyph unicode="&#xe7;" horiz-adv-x="1433" d="M209 492q-4 57 35 112l69 76q35 29 80 29q92 0 94 -76l2 -78l13 -94q8 -68 47 -68l10 4l633 604q20 16 61 17q59 0 60 -43v-109q0 -43 -19 -67q-6 -12 -32 -27l-695 -706q-68 -70 -141 -70q-68 0 -124 54t-71 122z" />
<glyph unicode="&#xe8;" horiz-adv-x="2091" d="M393 518q0 178 89 333t244 237.5t321 82.5q178 0 329.5 -87t237.5 -241.5t86 -324.5q0 -176 -88 -328q-59 -104 -115 -153q-41 -39 -125 -86q-150 -86 -325 -86q-281 0 -467.5 186.5t-186.5 466.5zM518 518q0 -229 149.5 -379.5t379.5 -150.5q229 0 379.5 150.5 t150.5 379.5q0 145 -72 268q-49 84 -94 125q-29 27 -100 68q-121 70 -264 70q-229 0 -379 -150.5t-150 -380.5zM707 649q0 98 94 99q98 0 98 -99q0 -94 -98 -94q-39 0 -66.5 27.5t-27.5 66.5zM731 319l88 50q82 -147 228 -148q143 0 225 148l88 -50q-112 -215 -313 -215 q-203 0 -316 215zM1194 649q0 98 96 99q96 0 96 -99q0 -39 -28.5 -66.5t-67.5 -27.5t-67.5 27.5t-28.5 66.5z" />
<glyph unicode="&#xe9;" horiz-adv-x="2154" d="M426 518q0 180 88 334t243.5 236.5t319.5 82.5q174 0 329 -88t239 -237q88 -156 88 -328q0 -178 -88 -328q-59 -102 -117 -153q-43 -39 -125 -86q-150 -86 -326 -86q-283 0 -467 185.5t-184 467.5zM768 649q0 -63 66 -63t65 63q1 68 -65 68t-66 -68zM805 307 q98 -172 272 -172q176 0 275 172l-37 21q-82 -137 -238 -138q-154 0 -237 138zM1257 649q0 -63 66 -63t66 63q0 68 -66 68t-66 -68z" />
<glyph unicode="&#xea;" horiz-adv-x="1081" d="M84 590q0 94 111 141q84 37 190 37h4q-8 35 -59 156q-45 106 -45 139q0 141 149 178l41 10l47 -204l160 -173l135 -172q14 -6 45 -6h111q35 -74 49 -164q6 -172 -43 -282h-135q-76 -88 -199 -152q-27 -2 -51 -2q-51 0 -102 10l-31 -12h-41q-146 0 -146 109 q-100 8 -92 116q-53 18 -69 97q0 33 14 59q-43 51 -43 115zM160 596q0 -45 28 -76l33 -20q23 -8 98 -11l140 62q-29 33 -72 33l-37 -4l-63 -23h-47l-70 72l104 2l52 18l51 8q121 0 188 -139l-20 -8q41 -29 73 -98l-20 -13q10 -8 64 -90l-50 -24q25 -24 64 -90q82 59 133 131 h117q25 80 24 137q0 86 -24 155h-15q-70 0 -86 3q-37 8 -73 43l-52 63l-67 86l-180 193l-31 149q-59 -25 -60 -92q0 -43 37 -105q74 -123 74 -225v-41h-49q-264 0 -264 -96zM190 418q0 -8 19 -29q23 -8 74 -8h88l141 61q-16 17 -47 31l-129 -57h-51q-57 0 -95 14v-12z M254 307q2 -33 86 -33h63l164 74l-6 -22l-6 8l-39 31l-127 -58h-135zM350 199q10 -33 70 -33h22l125 55l-28 33l-119 -55h-70z" />
<glyph unicode="&#xeb;" horiz-adv-x="1085" d="M72 410q0 55 31.5 97t84.5 48l-4 16l-10 58l8 37l21 36l47 43q23 20 57 27l39 -8l14 -4l-90 268q-35 104 -34 164q0 51 36.5 90t87.5 39q55 0 103 -80q23 -31 96 -231l49 -136l64 170l61 146q59 104 125 104q113 0 113 -131q0 -88 -115 -405l25 -8q29 0 47 -17 q43 -23 67 -188q6 -139 -26.5 -245t-85.5 -163q-154 -168 -363 -168q-223 0 -315 111q-133 158 -133 330zM158 408l16 -72l45 -107l27 -41l30 -41l23 -20q23 -16 90 -39l57 -10q334 -23 435 266q31 88 30 166q1 120 -67 149q-106 45 -295 54l-53 2l-9 -33q0 -47 62 -74 l69 -20l89 -4l104 2l20 -45l-10 -31q-45 -6 -104 -33q-8 -8 -35 -31l-74 -86q-39 -55 -39 -96l11 -59l18 -68l-33 -37q-55 53 -76 93l-12 40l-4 41h-10q4 -57 -25 -79q-12 -10 -78 -33q-39 0 -67 18l-57 37q-29 23 -74 109v63l39 -6q16 -37 58 -78t75 -41q27 0 39 21l-8 12 l-35 57l-60 80l-24 27q-12 10 -27 10q-45 0 -61 -63zM266 623q0 -18 51 -109l35 -45l56 -63q29 -33 57 -33l16 4q10 8 11 18q0 31 -39 97l-62 104q-20 35 -33 49q-23 25 -49 31l-28 -25q-10 -8 -15 -28zM330 1188q0 -74 57 -227l57 -154q10 6 19 6l67 -8l-139 387 q-18 33 -39 33q-8 0 -12 -6zM543 516l22 -53l45 41zM680 793l80 -13l57 158l35 113l25 110q0 31 -25 31q-18 0 -55 -72z" />
<glyph unicode="&#xec;" horiz-adv-x="1495" d="M170 936q14 18 29 20l110 -47l94 -8h46l161 29l60 -8q90 -12 170 -150q23 -39 61 -80q-10 37 -24 90q-12 84 -13 162q0 98 19 193l43 137q45 143 100 162q35 12 41 -27q-47 -133 -47 -176q0 -66 53 -178q57 -121 64 -176l6 -7l2 2l4 -16l-25 23l-8 12l8 117l15 2 q2 16 12 32l-16 29l-11 49q0 29 4 39l13 29l26 -12q29 -39 37 -68l8 -47q35 -12 43 -19q20 -14 29 -34l4 -17l4 -12l8 -27v-22l5 -66h-15l-8 -37l-37 7l-2 -11v-18h2l8 4v2q0 18 13 31l12 12l25 18q23 -35 32 -63l6 -37l-8 -29l-2 -22l6 -37q0 -43 -24 -88l-10 -18l16 -33 l-14 -113q-18 -8 -31 -8q-104 -190 -103 -254l3 -55l12 -41q78 -16 78 -53q0 -25 -68 -37q-92 -8 -113 18l-20 -6q-125 0 -129 238l-29 -13l-74 -6l-22 8l-12 17l10 18l27 27q-104 -61 -185 -62q-53 0 -98 37l12 33q18 0 21 2q-72 0 -107 29l-26 45l10 2q-53 8 -74.5 28.5 t-30.5 71.5l17 14q-45 16 -86 54l-54 65v27l15 4q-29 25 -47 63l-17 78l33 10l21 -10q-53 57 -68 158zM225 893q8 -31 19 -51q31 -45 112 -86l11 -23l-15 -18l-33 -6l-49 8l-30 12q23 -68 122 -92l19 -19l-14 -22l-50 -8h-14q53 -66 156 -66l67 8l25 -12l-6 -24 q-57 -45 -139 -50q16 -33 149 -32l23 -13l-7 -24q-18 -18 -55 -25q-10 0 -20 -2q53 -16 137 -6l49 6l23 -8l-7 -27q-16 -20 -49 -37l-12 -6h12q111 0 256 127h27l6 -24q-10 -47 -64 -107q39 2 74 27l31 -10q0 -240 86 -240h12l8 6h17l18 -12q25 -8 47 -8h13l-23 4l-10 10 l-14 68l-5 57q-6 76 37 151l76 138q3 18 23 22l10 64l-23 39q25 43 29 49q10 27 10 55l-6 35l8 33l2 22l-2 25l-8 18l19 -8l-5 -2v-4l2 -19l-12 -10l-2 -33l-26 -10l-29 21l-31 41l-4 28l6 33l8 27l29 4l10 -8l4 16l7 4l-5 37l2 16l-6 17l-6 26q-8 14 -65 39l-4 15 q-8 43 -9 49q-6 18 -24 41l26 8l-2 -25q-2 -23 29 -73l-10 -25l-6 -37q-8 -10 -15 -14l-2 -68l21 -16l8 -15l-16 -53l-23 -14l-25 16q-20 18 -36 47q6 18 -54 168q-63 160 -63 201q0 43 8 78q-8 -25 -57 -189q0 -20 -4 -32l-11 -86q-6 -51 -6 -115q0 -143 72 -274l-6 -31 l-27 6q-43 27 -133 149q-78 106 -143 125l-37 11l-29 2q-25 2 -70 -6q-102 -18 -137 -19q-94 0 -170 35zM1079 938l160 43l172 -29zM1202 965l47 6l45 -15l-37 -28h-26z" />
<glyph unicode="&#xed;" horiz-adv-x="1824" d="M158 739q0 90 90 90q31 0 53 -20q14 168 131 313q-78 4 -78 88q0 90 88 90q84 0 88 -79q145 119 314 131q-18 25 -19 55q0 90 88 90t88 -90q0 -31 -20 -55q178 -12 315 -129q4 78 88 77q90 0 91 -90q0 -84 -80 -88q117 -147 129 -313q25 20 55 20q90 0 90 -90 q0 -88 -90 -88q-31 0 -55 21q-12 -178 -129 -316q80 -4 80 -88q0 -88 -91 -88q-86 0 -88 82q-150 -119 -315 -133q20 -25 20 -55q0 -90 -88 -90t-88 90q0 31 19 55q-164 14 -314 133q-2 -82 -88 -82q-88 0 -88 88q0 86 80 88q-45 59 -94 152q-29 98 -37 164q-25 -20 -55 -21 q-90 0 -90 88zM489 653q18 -78 64 -153q18 12 51 30q12 47 74 76q10 47 53 72l-6 -21l-4 9l16 -9l-32 -6q-18 0 -52 21l-47 -21q-29 0 -57 19l-21 -13l-26 -8zM492 827l10 2q25 0 51 -18l47 18q27 0 53 -18q23 18 49 18l7 -2q-10 16 -25 43q-59 10 -76 74q-33 8 -55 33 l-37 -74zM672 1100q16 -18 33 -53q66 -10 77 -76l43 -19q0 18 17 43q-16 23 -17 56q0 25 17 51q-16 20 -19 49l2 12q-82 -20 -153 -63zM676 379q55 -29 147 -60v9q0 23 19 51l-17 47q0 29 17 55q-16 20 -19 49l2 5q-16 -10 -43 -25q-10 -63 -75 -76q-4 -33 -31 -55zM829 739 q0 -33 26 -57.5t58 -24.5q33 0 58.5 25t25.5 57q0 35 -24.5 60.5t-59.5 25.5q-27 0 -55.5 -29.5t-28.5 -56.5zM983 375l21 -43l-5 -15q82 16 154 64q-12 18 -31 51q-59 10 -75 76q-26 4 -46 20q0 -25 -18 -47l21 -47q0 -31 -21 -59zM983 995l21 -43q16 14 40 19q12 61 74 76 q8 33 31 55q-51 29 -148 59l3 -8q0 -27 -21 -51l21 -47q0 -31 -21 -60zM1120 651q10 -16 23 -41q63 -10 78 -78q31 -6 53 -30q43 70 61 151l-10 -2q-18 0 -51 21l-45 -21q-31 0 -60 19l-20 -13l-27 -8zM1124 827q25 0 50 -16l47 18q27 0 53 -18q20 16 49 18l12 -2 q-20 82 -63 154q-18 -16 -51 -33q-10 -59 -76 -76q-5 -25 -21 -45z" />
<glyph unicode="&#xee;" horiz-adv-x="1634" d="M123 741l139 234l256 43l713 -428q33 -20 65 -78l230 -406l8 -28q0 -39 -43 -55l-53 -9l-443 9q-43 0 -102 36l-698 420zM201 733l49 -192l178 39l115 190l-49 172l-185 -33zM268 709q0 55 40 112.5t93 57.5q45 0 62 -70q0 -62 -39 -115l-35 -35q-29 -20 -55 -20 q-57 0 -66 70zM322 485l636 -381q27 14 76 64l-575 344zM500 567l583 -352q61 61 86 145l-581 351zM580 901l34 -129l574 -342l4 14l2 45v46zM1063 98l258 -6l29 4l16 17l23 34l8 31q-1 10 -11 33l-124 211q-20 -186 -199 -324z" />
<glyph unicode="&#xef;" horiz-adv-x="2293" d="M184 543q0 43 37 100t78 66q346 -88 721 -170l22 8l-30 22l-56 39q-207 145 -331 146q-49 0 -121 -39l-35 39q145 72 176 104l-211 96v66l873 149l829 -274v-59l-102 -27l-2 -21l20 -12q0 -283 16 -370l15 -78l16 -41q6 -4 27 -13l51 -20l-125 -51q-53 0 -80 100l-12 113 v108l-4 31l-14 221l20 10v9l-123 -35q18 -20 82 -66l-33 -30h-73q-326 0 -500 -142h198l187 4q45 0 85 -36.5t40 -81.5q0 -68 -19 -95q-25 -35 -88 -34q-35 0 -94 18q-4 -90 -35 -90l-10 8q-80 125 -422 188q6 -20 6 -45t-45 -32q-51 0 -84 34q-6 -10 -28 -47q0 -4 18 -30 l-53 -25l-15 37l-4 31l6 14l3 2q-12 -8 -31 -12q-61 0 -62 53q0 20 35 43l-106 4l-244 12h-109l-28 -8l-66 -14l-71 -21l-50 -16l-16 23l-16 40zM246 537q0 -45 12 -84q86 35 213 39q33 2 215 -5l139 -4l156 -6l-2 8l6 15q-561 113 -682 149l-6 -6q-51 -72 -51 -106z M477 973l23 14v-2l692 -313l772 180v2l18 -14l-790 -174zM612 985l596 -248l602 125l-458 76l-41 18q-20 -12 -56 -12q-57 0 -57 37q0 16 23 41q25 16 55 16q35 0 51 -34l45 -11l508 -75l-586 186zM938 389q16 6 66 51l-3 -18l-4 6l13 -6q-31 0 -68 -37zM1051 479h4 q47 0 67 -24q115 0 299 -64q102 -35 146 -72q2 113 39 156l-82 -2l-203 -6l-199 25l-22 -3h-19l-14 5l-10 -2zM1061 424q14 -37 43 -41h2q-2 29 -45 41zM1626 350q0 -6 8 -8q-6 18 -6 45q-2 -18 -2 -37zM1628 387v12q0 35 23.5 60.5t56.5 25.5q53 0 82 -69q0 -88 -64 -88 q-45 0 -57 53q0 43 43 61q37 0 37 -51l-14 -35l-25 25l-6 10l14 -8l-2 -2q0 -6 10 -8q16 0 17 28q0 27 -41 37q-8 0 -17.5 -17.5t-9.5 -27.5q0 -55 60 -65q39 0 39 67q0 70 -66 82q-35 0 -61 -31q-15 -26 -19 -59z" />
<glyph unicode="&#xf0;" horiz-adv-x="1548" d="M154 319q31 10 67 46l62 57q-72 66 -72 178q0 143 102 262l25 -16l70 65l32 -41l82 72l33 -37l55 53l58 -63q41 45 84 72q31 -18 79 -68q14 25 58 66q49 -20 80 -47l12 20q53 -23 100 -59l17 28l76 -65l8 26q147 -102 147 -268q0 -102 -67 -170q29 -29 86 -84 q29 -23 67 -39q-78 -25 -119 -24l-18 2q4 -8 47 -86l-108 -11q-39 0 -70 9l27 -105q-209 0 -279 58q-27 -61 -131 -166l-94 104q-27 39 -37 64q-68 -45 -217 -66l16 115q-51 -16 -141 -17q10 47 31 92q-74 -4 -168 43zM258 324q16 -2 35 -2q25 0 55 10l29 22l-55 33 q-8 -2 -64 -63zM266 600q0 -166 154 -221q-98 67 -98 186q0 80 45 160l-45 63q-55 -76 -56 -188zM365 240q41 6 86 28q6 20 38 56l-63 12q-41 -37 -61 -96zM369 809l28 -39l27 33l-23 39zM373 565q0 -99 96 -162q-37 47 -37 103q0 109 74 194l-55 60q-78 -86 -78 -195z M471 827l14 -26l52 33l-21 34zM479 145q72 6 146 68q0 59 20 92l-96 10q-66 -45 -70 -170zM479 506q0 -102 127 -146q-47 41 -47 111q0 84 96 199l-53 59q-123 -96 -123 -223zM520 762l17 -21l36 31l-12 19zM578 862l18 -26l33 30l-21 25zM610 471q0 -59 54 -94 q45 -31 106 -31t107 31q53 35 53 94q-1 129 -148 240q-172 -121 -172 -240zM618 793l15 -19l45 35l-19 18zM662 735l26 -30l29 20l-31 31zM676 223q0 -82 88 -168q96 84 96 168q1 55 -26 80h-129q-29 -25 -29 -80zM698 856l35 -35l35 35l47 -37l6 17l-35 45l-34 26l-31 -20z M741 766l13 -14l28 20l21 -14l6 8l-37 29zM838 729l41 -43l32 39l-45 31zM868 815l70 -49l10 16l-26 25l-37 22zM883 889l51 -31l10 21l-22 14l-23 12zM891 305q20 -35 16 -102q76 -53 199 -58q-27 121 -127 172zM915 653q68 -94 68 -182q0 -55 -35 -96q115 53 115 143 q0 111 -100 193zM971 825l2 -2l16 23l68 -47l10 30l-35 31l-33 14zM987 752l25 -19l12 -14l14 31l-39 28zM1049 395q121 66 120 183q1 106 -75 184l-35 -76q51 -74 51 -168q0 -68 -61 -123zM1055 330q31 -25 51 -62q53 -37 137 -30q-37 93 -96 118zM1114 807l21 -19l10 -12 l6 19l-33 28zM1120 395q156 59 156 205q0 110 -74 184l-20 -59q35 -49 35 -147q0 -106 -97 -183zM1198 385q31 -20 51 -49l27 -6l16 -2q-23 29 -73 69z" />
<glyph unicode="&#x112;" horiz-adv-x="2048" />
<glyph unicode="&#x2000;" horiz-adv-x="819" />
<glyph unicode="&#x2001;" horiz-adv-x="1638" />
<glyph unicode="&#x2002;" horiz-adv-x="819" />
<glyph unicode="&#x2003;" horiz-adv-x="1638" />
<glyph unicode="&#x2004;" horiz-adv-x="546" />
<glyph unicode="&#x2005;" horiz-adv-x="409" />
<glyph unicode="&#x2006;" horiz-adv-x="273" />
<glyph unicode="&#x2007;" horiz-adv-x="273" />
<glyph unicode="&#x2008;" horiz-adv-x="204" />
<glyph unicode="&#x2009;" horiz-adv-x="327" />
<glyph unicode="&#x200a;" horiz-adv-x="91" />
<glyph unicode="&#x2010;" horiz-adv-x="974" d="M96 311v97h713v-97h-713z" />
<glyph unicode="&#x2011;" horiz-adv-x="974" d="M96 311v97h713v-97h-713z" />
<glyph unicode="&#x2012;" horiz-adv-x="974" d="M96 311v97h713v-97h-713z" />
<glyph unicode="&#x2013;" horiz-adv-x="1285" d="M96 311v97h1024v-97h-1024z" />
<glyph unicode="&#x2014;" horiz-adv-x="2309" d="M96 311v97h2048v-97h-2048z" />
<glyph unicode="&#x202f;" horiz-adv-x="327" />
<glyph unicode="&#x205f;" horiz-adv-x="409" />
<glyph unicode="&#x25fc;" horiz-adv-x="696" d="M0 0v696h696v-696h-696z" />
<glyph horiz-adv-x="1423" d="M102 934q0 18 131 57q39 10 158 47l19 9q18 -1 18 -46v-448q0 -55 10.5 -70.5t61.5 -24.5t53 -20q0 -20 -41 -20l-236 4l-36 -2h-74q-33 0 -37 18q0 10 54.5 19.5t62.5 15.5q20 14 20 62v395q0 12 -22 12h-15l-10 -2l-49 -12q-12 -6 -43 -10q-25 0 -25 16zM424 18l14 33 l553 987q6 8 37 9h33q16 0 20 -15l-14 -35l-526 -946q-20 -37 -56 -41h-43q-14 0 -18 8zM866 -2q0 53 64 53q23 0 69 -43l50 -45q43 0 94 45q68 47 67 135q0 74 -48 119t-122 45q-61 0 -122 -24l-15 -2q-12 0 -14 14q0 10 49 37l129 67q74 53 74 111q0 35 -25.5 57.5 t-62.5 22.5q-63 0 -115 -55q-20 -23 -29 -23q-14 0 -16 16q0 51 92 86q72 27 133 27q76 0 111 -25q70 -18 69 -79q0 -53 -75 -103l-131 -55h61q82 0 145 -43q74 -47 74 -125q0 -117 -141 -209q-123 -80 -248 -80q-117 0 -117 76z" />
<glyph />
<glyph />
<glyph />
<glyph />
<glyph />
<glyph />
<glyph />
<glyph />
<glyph />
<glyph />
<glyph />
<glyph />
<glyph />
<glyph />
<glyph />
<glyph />
<glyph />
<glyph />
<glyph horiz-adv-x="2048" />
<glyph />
<glyph />
<glyph />
<glyph />
<glyph />
<glyph />
<glyph />
<glyph />
<glyph />
<glyph />
<glyph />
<glyph />
<glyph />
<glyph />
<glyph />
<glyph />
<glyph />
<glyph />
<glyph />
<glyph />
<glyph />
<glyph />
<glyph />
<glyph />
</font>
</defs>
</svg>
