<?xml version="1.0" standalone="no"?>
<!DOCTYPE svg PUBLIC "-//W3C//DTD SVG 1.1//EN" "http://www.w3.org/Graphics/SVG/1.1/DTD/svg11.dtd" >
<svg xmlns="http://www.w3.org/2000/svg" xmlns:xlink="http://www.w3.org/1999/xlink" version="1.1">
<metadata>
Created by FontForge 20190801 at Fri Aug 24 23:25:38 2018
 By www-data
Great Hor Kham Design (c) Some Rights Reserved
</metadata>
<defs>
<font id="GHKTachileik" horiz-adv-x="0" >
  <font-face 
    font-family="GHKTachileik"
    font-weight="400"
    font-stretch="normal"
    units-per-em="2048"
    panose-1="2 11 5 2 4 2 4 2 2 3"
    ascent="1638"
    descent="-410"
    x-height="1184"
    cap-height="1658"
    bbox="-1514 -908 3617 2198"
    underline-thickness="150"
    underline-position="-875"
    unicode-range="U+001D-AA7D"
  />
<missing-glyph horiz-adv-x="651" 
 />
    <glyph glyph-name=".notdef" horiz-adv-x="651" 
 />
    <glyph glyph-name=".null" 
 />
    <glyph glyph-name="nonmarkingreturn" horiz-adv-x="682" 
 />
    <glyph glyph-name="uni001D" 
 />
    <glyph glyph-name="uni001D" 
 />
    <glyph glyph-name="space" unicode=" " horiz-adv-x="418" 
 />
    <glyph glyph-name="space" unicode="&#xa0;" horiz-adv-x="418" 
 />
    <glyph glyph-name="exclam" unicode="!" horiz-adv-x="412" 
d="M125 0v179h160v-179h-160zM179 356l-52 1302h160l-55 -1302h-53z" />
    <glyph glyph-name="quotedbl" unicode="&#x22;" horiz-adv-x="729" 
d="M167 1174v484h144l-62 -484h-82zM450 1174v484h144l-62 -484h-82z" />
    <glyph glyph-name="numbersign" unicode="#" horiz-adv-x="953" 
d="M108 0l91 597h-115v111h132l46 290h-152v111h169l85 549h146l-85 -549h203l85 549h146l-85 -549h104v-111h-120l-47 -290h142v-111h-158l-92 -597h-147l92 597h-202l-92 -597h-146zM362 708h203l46 290h-202z" />
    <glyph glyph-name="dollar" unicode="$" horiz-adv-x="954" 
d="M487 -179v159q-192 4 -290.5 122t-113.5 328l139 40q7 -66 17.5 -116.5t31 -99t50 -79.5t75 -50t104.5 -19q234 0 234 240q0 53 -13.5 99.5t-43 91t-62 80.5t-84.5 87l-294 282q-150 144 -150 334q0 163 94 255.5t257 99.5v173h65v-173q165 -9 252.5 -109t102.5 -311
l-132 -34q-14 168 -72 252q-56 80 -180 80h-12q-109 -3 -171.5 -57t-62.5 -163q0 -68 26.5 -123.5t90.5 -117.5l292 -277q113 -108 178 -218.5t65 -239.5q0 -167 -89.5 -263.5t-240.5 -111.5v-161h-63z" />
    <glyph glyph-name="percent" unicode="%" horiz-adv-x="1499" 
d="M333 942q64 0 89.5 51.5t25.5 145.5v244q0 91 -25 140.5t-90 49.5t-89.5 -50t-24.5 -142v-243q0 -93 25.5 -144.5t88.5 -51.5zM333 827q-251 0 -251 318v230q0 152 59 233t192 81t192 -79t59 -229v-239q0 -315 -251 -315zM1166 103q64 0 89 52t25 146v243q0 92 -25 141.5
t-89 49.5q-65 0 -89.5 -50t-24.5 -142v-243q0 -94 25 -145.5t89 -51.5zM1166 -12q-251 0 -251 319v230q0 152 59 233t192 81q132 0 191.5 -79t59.5 -229v-240q0 -315 -251 -315zM422 0l525 1673h133l-524 -1673h-134z" />
    <glyph glyph-name="ampersand" unicode="&#x26;" horiz-adv-x="1236" 
d="M499 -21q-182 0 -282 107t-100 271q0 127 63.5 243.5t201.5 250.5q-7 11 -20 33q-94 159 -134 250.5t-40 191.5q0 164 94.5 257t256.5 93q155 0 247.5 -79.5t92.5 -216.5q0 -129 -91.5 -261t-254.5 -280l319 -504q52 74 88 190.5t42 210.5h144q0 -113 -52.5 -255.5
t-132.5 -240.5q83 -106 189 -106v-148q-20 0 -39 3q-119 8 -239 153q-62 -72 -152.5 -117.5t-200.5 -45.5zM500 105q142 0 266 135l-323 503q-93 -102 -134 -195.5t-41 -190.5q0 -48 12 -91t38 -80t72.5 -59t109.5 -22zM478 926q253 251 253 457q0 80 -52 124.5t-142 44.5
q-99 0 -149.5 -63.5t-50.5 -160.5q0 -89 33.5 -178.5t107.5 -223.5z" />
    <glyph glyph-name="quotesingle" unicode="'" horiz-adv-x="586" 
d="M167 1174v484h144l-62 -484h-82z" />
    <glyph glyph-name="parenleft" unicode="(" horiz-adv-x="569" 
d="M507 -338q-63 4 -112.5 25.5t-85 67t-61.5 92t-41.5 127.5t-25.5 144.5t-14 171t-5 180t-1 196.5q0 125 1 198t5 181.5t14 172.5t25.5 145t41.5 128t61.5 92t85 65.5t112.5 22.5v-105q-49 -5 -84.5 -36.5t-56.5 -102t-34 -133t-18 -184t-6 -197t-1 -227.5v-20v-27
q0 -152 1 -227t6 -196t18 -182.5t34 -131t56.5 -100.5t84.5 -36v-104z" />
    <glyph glyph-name="parenright" unicode=")" horiz-adv-x="526" 
d="M62 -338v104q49 5 84.5 36.5t57 102t34.5 133.5t18 185t6 197.5t1 227.5v20v7v6.5v6.5q0 153 -1 228.5t-6 197t-18 183.5t-34.5 132.5t-57 101.5t-84.5 36v104q63 -2 113 -22.5t85.5 -65.5t61.5 -91.5t41.5 -127.5t25.5 -145t14 -172.5t5 -181t1 -197.5q0 -143 -1 -224.5
t-8 -201.5t-20 -189t-38.5 -151.5t-61.5 -126.5t-91.5 -76.5t-126.5 -36.5z" />
    <glyph glyph-name="asterisk" unicode="*" horiz-adv-x="762" 
d="M241 990l-91 57l178 239l-256 102l38 96l247 -123l-17 296h116l-19 -296l245 123l37 -96l-255 -102l179 -241l-92 -55l-155 260z" />
    <glyph glyph-name="plus" unicode="+" horiz-adv-x="785" 
d="M332 471v324h-284v113h284v321h115v-321h290v-113h-290v-324h-115z" />
    <glyph glyph-name="comma" unicode="," horiz-adv-x="370" 
d="M132 -239l-31 66q53 30 75.5 70t22.5 103h-90v223h168v-207q0 -100 -33 -157.5t-112 -97.5z" />
    <glyph glyph-name="hyphen" unicode="-" horiz-adv-x="610" 
d="M87 609v118h436v-118h-436z" />
    <glyph glyph-name="hyphen" unicode="&#xad;" horiz-adv-x="610" 
d="M87 609v118h436v-118h-436z" />
    <glyph glyph-name="period" unicode="." horiz-adv-x="372" 
d="M122 0v225h159v-225h-159z" />
    <glyph glyph-name="slash" unicode="/" horiz-adv-x="705" 
d="M50 0l472 1658h132l-472 -1658h-132z" />
    <glyph glyph-name="zero" unicode="0" horiz-adv-x="1008" 
d="M504 100q243 0 243 356v745q0 80 -11.5 141t-38 111.5t-75.5 77t-118 26.5t-117.5 -26.5t-75.5 -76.5t-38.5 -111.5t-11.5 -141.5v-745q0 -356 243 -356zM504 -21q-395 0 -395 490v720q0 487 395 487q396 0 396 -487v-720q0 -490 -396 -490z" />
    <glyph glyph-name="one" unicode="1" horiz-adv-x="875" 
d="M438 0v1459q-32 -47 -258 -109v121q72 19 154.5 68.5t132.5 118.5h121v-1658h-150z" />
    <glyph glyph-name="two" unicode="2" horiz-adv-x="993" 
d="M101 0v110l446 685q7 12 32 49t33 49.5t28 46t28 50t22.5 47t20.5 53t14 53t10.5 60.5t2.5 62q0 135 -56 210.5t-165 75.5q-75 0 -126.5 -26t-78.5 -75.5t-38.5 -108t-11.5 -136.5v-38h-149v42q0 233 95.5 350t301.5 117q185 0 281.5 -110t96.5 -311q0 -59 -12 -117
t-27 -101t-46.5 -100.5t-51.5 -89t-61 -92.5l-414 -628h576v-127h-751z" />
    <glyph glyph-name="three" unicode="3" horiz-adv-x="980" 
d="M488 -21q-187 0 -278.5 106.5t-91.5 297.5v40h146v-33q2 -141 53.5 -214t170.5 -73q120 0 180.5 82t60.5 266q0 344 -247 352q-2 0 -21 0.5t-21 0.5v141h40q134 2 191.5 76t57.5 241q0 139 -51.5 215.5t-174.5 76.5q-125 0 -181 -69.5t-58 -218.5v-28h-146v38
q0 191 93 295.5t292 104.5q188 0 283.5 -112t95.5 -303q0 -168 -64.5 -265.5t-172.5 -122.5q102 -28 169.5 -132t67.5 -288q0 -222 -95.5 -348t-298.5 -126z" />
    <glyph glyph-name="four" unicode="4" horiz-adv-x="1008" 
d="M602 0v482h-499v157l468 1020h182v-1036h188v-141h-188v-482h-151zM257 623h345v833z" />
    <glyph glyph-name="five" unicode="5" horiz-adv-x="991" 
d="M509 -19q-195 0 -282.5 112t-87.5 335h150q0 -161 51 -244t174 -83q134 0 182.5 101t48.5 322q0 228 -51 321t-177 93q-133 0 -215 -139h-126v859h646l-3 -140h-510l-8 -575q88 110 254 110q178 0 258 -130.5t80 -380.5q0 -279 -90 -420t-294 -141z" />
    <glyph glyph-name="six" unicode="6" horiz-adv-x="1006" 
d="M518 -21q-383 0 -383 520v662q0 515 383 515q186 0 278 -96t94 -289q0 -1 0.5 -16t0.5 -16h-148q0 158 -50.5 225.5t-170.5 67.5q-237 0 -237 -357v-313q43 40 114.5 69t153.5 29q199 0 278.5 -115t79.5 -380q0 -506 -393 -506zM518 105q124 0 182 83t58 268
q0 75 -3 125.5t-11.5 100.5t-24.5 80.5t-42.5 55t-65.5 35t-93 10.5q-66 0 -131.5 -30t-101.5 -65v-287q0 -198 56 -287t177 -89z" />
    <glyph glyph-name="seven" unicode="7" horiz-adv-x="887" 
d="M297 0l323 1538h-502v120h654v-73l-329 -1585h-146z" />
    <glyph glyph-name="eight" unicode="8" horiz-adv-x="993" 
d="M497 -21q-390 0 -390 466q0 83 15 150t36 108.5t56 76.5t62.5 53t68.5 38q-221 91 -221 389q0 193 89.5 304.5t283.5 111.5q193 0 283 -113t90 -307q0 -294 -222 -385q41 -21 68.5 -38.5t63 -53t56.5 -77t36 -108t15 -149.5q0 -466 -390 -466zM497 100q123 0 183 84.5
t60 260.5q0 335 -243 355q-244 -20 -244 -355q0 -177 60.5 -261t183.5 -84zM497 938q225 10 225 323q0 294 -225 294t-225 -294q0 -313 225 -323z" />
    <glyph glyph-name="nine" unicode="9" horiz-adv-x="1006" 
d="M511 -21q-374 0 -379 388v30h148q0 -160 51.5 -226.5t181.5 -66.5q111 0 167.5 82t56.5 276v312q-35 -40 -103.5 -68.5t-163.5 -28.5q-200 0 -279 115t-79 379q0 505 395 505q381 0 381 -519v-662q0 -516 -377 -516zM505 793q145 0 232 96v286q0 199 -54.5 287.5
t-175.5 88.5q-123 0 -182.5 -86t-59.5 -265q0 -75 3 -125.5t11.5 -100.5t24.5 -80.5t42.5 -55t65.5 -35t93 -10.5z" />
    <glyph glyph-name="colon" unicode=":" horiz-adv-x="396" 
d="M142 171v219h159v-219h-159zM142 867v219h159v-219h-159z" />
    <glyph glyph-name="semicolon" unicode=";" horiz-adv-x="426" 
d="M162 -57l-31 66q57 24 77.5 57t20.5 96h-88v211h166v-195q0 -104 -32 -158t-113 -77zM141 903v224h158v-224h-158z" />
    <glyph glyph-name="semicolon" unicode="&#x37e;" horiz-adv-x="426" 
d="M162 -57l-31 66q57 24 77.5 57t20.5 96h-88v211h166v-195q0 -104 -32 -158t-113 -77zM141 903v224h158v-224h-158z" />
    <glyph glyph-name="less" unicode="&#x3c;" horiz-adv-x="744" 
d="M627 126l-568 418v148l568 430v-156l-452 -348l452 -338v-154z" />
    <glyph glyph-name="equal" unicode="=" horiz-adv-x="820" 
d="M104 584v119h612v-119h-612zM104 927v120h612v-120h-612z" />
    <glyph glyph-name="greater" unicode="&#x3e;" horiz-adv-x="744" 
d="M118 126v155l452 349l-452 337v155l568 -419v-148z" />
    <glyph glyph-name="question" unicode="?" horiz-adv-x="971" 
d="M355 412v253q190 137 282 277t92 308q0 142 -71 220t-177 78q-117 0 -177 -66q-43 -47 -43 -118q0 -29 7 -61l14 -73l-137 -29l-16 73q-12 54 -12 102q0 118 74 195q104 108 291 108q176 0 284 -111.5t108 -320.5q0 -99 -26 -184t-80 -161t-119 -139t-161 -139v-212h-133
zM349 1v177h149v-177h-149z" />
    <glyph glyph-name="at" unicode="@" horiz-adv-x="1726" 
d="M928 -230q-137 0 -254 27.5t-220.5 91.5t-176.5 163t-115 249t-42 341q0 204 42 371.5t116.5 285.5t179 199t227.5 119.5t264 39.5h6q177 -1 311 -57q136 -58 220 -166q83 -108 122 -260q34 -131 34 -294q0 -25 -1 -50q-4 -122 -32 -222.5t-70.5 -167t-97.5 -112
t-112.5 -65.5t-115.5 -20q-75 0 -129 51q-50 47 -50 127v12q-29 -83 -85.5 -138t-139.5 -58h-17q-120 0 -192 91q-78 98 -78 268q0 172 65.5 321t174.5 235.5t233 86.5q77 0 143 -52l19 39h111l-103 -711q-6 -63 -6 -96q0 -37 17 -58q18 -23 58 -23q38 0 75.5 16.5t75 53.5
t67 91.5t49.5 137t23 182.5q1 33 1 65q-1 318 -137 480q-149 176 -439 176h-7q-148 -2 -273 -62.5t-216.5 -173t-142.5 -281.5t-51 -377q0 -177 39 -313t102 -219t154 -135.5t184 -72t202 -19.5q182 0 376 53l32 -110q-240 -60 -420 -60zM832 353q66 4 120.5 63t85.5 165
l74 517q-44 27 -96 27q-65 0 -128 -39t-112.5 -106.5t-80 -168.5t-30.5 -217q0 -128 47 -189q41 -53 102 -53q9 0 18 1z" />
    <glyph glyph-name="A" unicode="A" horiz-adv-x="977" 
d="M56 0l350 1658h164l352 -1658h-153l-82 443h-396l-84 -443h-151zM313 557h353l-177 894z" />
    <glyph glyph-name="B" unicode="B" horiz-adv-x="1027" 
d="M144 0v1658h356q217 0 312 -107t95 -306q0 -86 -18 -155.5t-67 -124.5t-126 -71q70 -19 120.5 -61t78 -99.5t39.5 -119.5t12 -134q0 -84 -10.5 -152t-37.5 -130.5t-70.5 -105t-112.5 -67.5t-160 -25h-411zM301 117h225q155 0 212 84t57 278q0 344 -267 344h-227v-706z
M301 944h226q133 0 186 77t53 224q0 157 -67.5 225t-248.5 68h-149v-594z" />
    <glyph glyph-name="C" unicode="C" horiz-adv-x="1021" 
d="M531 -21q-98 0 -172.5 27t-121 72t-75.5 113t-40 142t-11 166v659q0 96 11.5 171.5t41 142t76.5 110.5t120.5 69t170.5 25q109 0 186 -32.5t122 -95.5t65 -147t20 -196v-102h-148v97q0 88 -9 147t-34.5 108.5t-75 73t-125.5 23.5q-82 0 -135.5 -26t-80.5 -79t-37 -115.5
t-10 -153.5v-704q0 -193 57.5 -281t205.5 -88q61 0 105 17.5t70.5 46.5t42 76.5t21 98t5.5 120.5v108h148v-97q0 -91 -11 -163.5t-38.5 -136.5t-71.5 -106t-112.5 -66t-159.5 -24z" />
    <glyph glyph-name="D" unicode="D" horiz-adv-x="1067" 
d="M301 117h209q77 0 130.5 21.5t84 55t47.5 91.5t21.5 113.5t4.5 137.5v619q0 80 -6.5 136t-25 105.5t-51 79t-85 46t-125.5 16.5h-204v-1421zM144 0v1658h363q101 0 178.5 -23t128.5 -64t83 -103t45.5 -134t13.5 -163v-659q0 -121 -22 -212t-72 -160t-135.5 -104.5
t-207.5 -35.5h-375z" />
    <glyph glyph-name="E" unicode="E" horiz-adv-x="816" 
d="M144 0v1658h599v-120h-442v-621h362v-116h-362v-684h447v-117h-604z" />
    <glyph glyph-name="F" unicode="F" horiz-adv-x="790" 
d="M144 0v1658h598v-117h-441v-623h367v-116h-367v-802h-157z" />
    <glyph glyph-name="G" unicode="G" horiz-adv-x="1064" 
d="M520 -22q-115 0 -196 37t-127 108.5t-66 164.5t-20 217v648q0 126 19.5 217.5t65.5 162.5t129.5 107t204.5 36q215 0 308 -119.5t93 -357.5v-59h-147v59q0 186 -53 269.5t-199 83.5q-67 0 -115 -19.5t-76.5 -51t-45 -83t-22 -104.5t-5.5 -126v-681q0 -96 11.5 -162.5
t40.5 -118t82.5 -76.5t132.5 -25q146 0 202.5 95t56.5 291v196h-244v115h388v-802h-100l-19 188q-69 -210 -299 -210z" />
    <glyph glyph-name="H" unicode="H" horiz-adv-x="1124" 
d="M144 0v1658h157v-735h522v735h157v-1658h-157v808h-522v-808h-157z" />
    <glyph glyph-name="I" unicode="I" horiz-adv-x="454" 
d="M151 0v1658h154v-1658h-154z" />
    <glyph glyph-name="J" unicode="J" horiz-adv-x="571" 
d="M16 -73v118q59 0 97.5 4t68.5 17.5t46 31.5t26 53.5t12.5 76t2.5 106.5v1324h157v-1334q0 -87 -8 -146t-28.5 -110t-57.5 -80t-96 -45t-143 -16h-77z" />
    <glyph glyph-name="K" unicode="K" horiz-adv-x="969" 
d="M144 0v1658h157v-874l443 874h150l-343 -712l416 -946h-155l-377 864l-134 -248v-616h-157z" />
    <glyph glyph-name="L" unicode="L" horiz-adv-x="783" 
d="M144 0v1658h157v-1541h472v-117h-629z" />
    <glyph glyph-name="M" unicode="M" horiz-adv-x="1316" 
d="M130 0l43 1658h153l330 -1439l332 1439h157l41 -1658h-130l-32 1322l-317 -1322h-100l-313 1319l-32 -1319h-132z" />
    <glyph glyph-name="N" unicode="N" horiz-adv-x="1065" 
d="M144 0v1658h115l528 -1287v1287h134v-1658h-110l-532 1302v-1302h-135z" />
    <glyph glyph-name="O" unicode="O" horiz-adv-x="1074" 
d="M537 105q80 0 134 24.5t82.5 73.5t40 109t11.5 144v750q0 84 -11.5 143.5t-40 107.5t-82.5 71.5t-134 23.5t-134 -23.5t-82.5 -71.5t-40 -107.5t-11.5 -143.5v-750q0 -84 11.5 -144t40 -109t82.5 -73.5t134 -24.5zM537 -21q-120 0 -204.5 36.5t-132 107t-68.5 160
t-21 207.5v688q0 117 21.5 205t70 155.5t132.5 102.5t202 35t202 -35t132.5 -103t70 -156t21.5 -204v-690q0 -93 -12.5 -168t-43 -140t-78.5 -108.5t-122 -68t-170 -24.5z" />
    <glyph glyph-name="P" unicode="P" horiz-adv-x="990" 
d="M144 0v1658h398q109 0 187 -31t123 -90.5t65 -137.5t20 -180q0 -92 -21.5 -168.5t-67 -137t-123 -94.5t-181.5 -34h-243v-785h-157zM301 901h199q153 0 218.5 70.5t65.5 246.5q0 191 -58 257.5t-224 66.5h-201v-641z" />
    <glyph glyph-name="Q" unicode="Q" horiz-adv-x="1085" 
d="M884 -325q-114 55 -290 307q-26 -3 -52 -3q-120 0 -205.5 36.5t-134 107t-70 160t-21.5 207.5v688q0 116 22.5 205t72 156t134 102t202.5 35t202.5 -35t134 -102.5t72 -156t22.5 -204.5v-690q0 -93 -13.5 -168t-43 -138.5t-81 -108t-122.5 -67.5q44 -57 99 -117t92 -84z
M542 105q80 0 134.5 24.5t84.5 73t42 109t12 144.5v750q0 84 -12 143.5t-42 107.5t-84.5 71.5t-134.5 23.5t-134.5 -23.5t-84.5 -71.5t-42 -107.5t-12 -143.5v-750q0 -84 12 -144.5t42 -109t84.5 -73t134.5 -24.5z" />
    <glyph glyph-name="R" unicode="R" horiz-adv-x="1049" 
d="M144 0v1658h377q221 0 316 -106.5t95 -312.5q0 -343 -231 -391l257 -848h-154l-243 815h-260v-815h-157zM301 930h211q150 0 209 73.5t59 235.5q0 160 -56 231t-207 71h-216v-611z" />
    <glyph glyph-name="S" unicode="S" horiz-adv-x="942" 
d="M499 -20q-197 0 -298.5 118.5t-117.5 331.5l139 40q7 -66 17.5 -116.5t31 -99t50 -79.5t75 -50t104.5 -19q234 0 234 240q0 53 -13.5 99.5t-43 91t-62 80.5t-84.5 87l-294 282q-150 144 -150 334q0 169 100.5 262t272.5 94h7q181 0 277 -98q98 -100 114 -323l-132 -34
q-14 168 -72 252q-56 80 -180 80h-12q-109 -3 -171.5 -57t-62.5 -163q0 -68 26.5 -123.5t90.5 -117.5l292 -277q113 -108 178 -218.5t65 -239.5q0 -181 -104.5 -279t-276.5 -98z" />
    <glyph glyph-name="T" unicode="T" horiz-adv-x="795" 
d="M323 0v1538h-333v120h815v-120h-325v-1538h-157z" />
    <glyph glyph-name="U" unicode="U" horiz-adv-x="1100" 
d="M551 -21q-99 0 -174 23t-122 63.5t-76 101.5t-40.5 129.5t-11.5 156.5v1205h151v-1210q0 -62 7 -111t25 -93.5t48 -74t79 -47t114 -17.5q78 0 132.5 25.5t84 74t42.5 107.5t13 136v1210h150v-1205q0 -87 -12 -156t-42 -130t-77.5 -101.5t-121 -63.5t-169.5 -23z" />
    <glyph glyph-name="V" unicode="V" horiz-adv-x="1003" 
d="M438 0l-388 1658h149l313 -1372l295 1372h147l-374 -1658h-142z" />
    <glyph glyph-name="W" unicode="W" horiz-adv-x="1464" 
d="M353 0l-282 1657l134 1l218 -1346l251 1321h129l255 -1323l203 1348h132l-268 -1658h-122l-263 1369l-261 -1369h-126z" />
    <glyph glyph-name="X" unicode="X" horiz-adv-x="949" 
d="M29 0l358 864l-354 795h144l298 -662l285 662h150l-368 -814l378 -845h-148l-314 700l-279 -700h-150z" />
    <glyph glyph-name="Y" unicode="Y" horiz-adv-x="961" 
d="M409 0v551l-374 1107h153l298 -921l287 921h153l-365 -1107v-551h-152z" />
    <glyph glyph-name="Z" unicode="Z" horiz-adv-x="834" 
d="M69 0v118l556 1423h-511v117h678v-81l-569 -1460h571v-117h-725z" />
    <glyph glyph-name="bracketleft" unicode="[" horiz-adv-x="619" 
d="M144 -327v1985h357v-83h-206v-1818h206v-84h-357z" />
    <glyph glyph-name="backslash" unicode="\" horiz-adv-x="705" 
d="M522 0l-472 1658h132l472 -1658h-132z" />
    <glyph glyph-name="bracketright" unicode="]" horiz-adv-x="584" 
d="M83 -326v83h206v1817h-206v84h357v-1984h-357z" />
    <glyph glyph-name="asciicircum" unicode="^" horiz-adv-x="808" 
d="M59 1047l267 611h157l266 -611h-135l-210 507l-209 -507h-136z" />
    <glyph glyph-name="underscore" unicode="_" horiz-adv-x="681" 
d="M0 -218v118h681v-118h-681z" />
    <glyph glyph-name="grave" unicode="`" horiz-adv-x="482" 
d="M296 1258l-188 400h151l114 -400h-77z" />
    <glyph glyph-name="a" unicode="a" horiz-adv-x="813" 
d="M319 -19q-104 0 -171 76.5t-67 189.5q0 59 10 105.5t37.5 87.5t60 72.5t92.5 67t120 65.5t157 73v85q0 163 -31 224.5t-116 61.5q-164 0 -164 -203v-43l-148 5q0 29 1 36q7 167 87 242.5t232 75.5q157 0 223 -93t66 -298v-576q0 -143 11 -235h-133l-22 164
q-27 -78 -91.5 -130.5t-153.5 -52.5zM368 110q60 0 110.5 41.5t79.5 98.5v369q-6 -3 -19 -10q-49 -26 -75 -40t-62.5 -35t-54.5 -35t-41.5 -34t-34 -37.5t-21.5 -40.5t-15 -48.5t-4 -56.5q0 -87 39 -129.5t98 -42.5z" />
    <glyph glyph-name="b" unicode="b" horiz-adv-x="852" 
d="M477 -19q-117 0 -211 113v-94h-150v1658h150v-572q94 116 226 116q66 0 115.5 -27t78 -70t46 -107t23 -126.5t5.5 -141.5v-250q0 -94 -8 -168t-28 -137.5t-52 -105t-81 -65t-114 -23.5zM452 100q95 0 126.5 88.5t31.5 289.5v252q0 190 -31.5 272t-128.5 82
q-91 0 -184 -91v-807q82 -86 186 -86z" />
    <glyph glyph-name="c" unicode="c" horiz-adv-x="796" 
d="M409 -19q-81 0 -139 24t-92 62.5t-53.5 101.5t-26 127.5t-6.5 152.5v276q0 129 14 214.5t49.5 146.5t97 88.5t155.5 27.5q74 0 128 -18t87.5 -49.5t53 -80.5t27 -103.5t7.5 -127.5v-56h-139v56q0 152 -36 209.5t-126 57.5q-102 0 -135 -72.5t-33 -267.5v-332
q0 -182 35.5 -253t133.5 -71q42 0 71 12t46.5 33t27.5 58t13 78.5t3 104.5v65h139v-58q0 -78 -6.5 -135t-26 -110.5t-52 -87t-87.5 -53.5t-130 -20z" />
    <glyph glyph-name="d" unicode="d" horiz-adv-x="845" 
d="M378 -19q-153 0 -219.5 115t-66.5 382v219q0 98 7 172t26 139t50 106t80 64.5t116 23.5q117 -1 209 -103v559h150v-1658h-150v84q-90 -102 -202 -103zM408 100q87 0 172 78v822q-90 84 -176 84q-95 0 -128.5 -79.5t-33.5 -259.5v-279q0 -194 34 -280t132 -86z" />
    <glyph glyph-name="e" unicode="e" horiz-adv-x="809" 
d="M412 -19q-170 0 -245 105t-75 359v299q0 173 35.5 274.5t104 142.5t181.5 41q75 0 128 -19.5t88 -55.5t55.5 -97.5t28.5 -136t8 -179.5l-1 -107h-478v-177q0 -184 35.5 -260t133.5 -76q78 0 120 49.5t42 179.5v82h147v-66q0 -172 -72 -265t-236 -93zM242 693h331v98
q0 62 -3 103t-12.5 81.5t-26.5 63.5t-47 37t-72 14q-95 0 -132.5 -66t-37.5 -251v-80z" />
    <glyph glyph-name="f" unicode="f" horiz-adv-x="549" 
d="M190 0v1075h-154v109h154v123q0 49 2.5 84t10 72t22 61t38 44.5t59.5 30t84 9.5q54 0 121 -13v-113q-71 11 -84 11q-64 0 -84 -38.5t-20 -131.5v-139h192v-109h-192v-1075h-149z" />
    <glyph glyph-name="g" unicode="g" horiz-adv-x="883" 
d="M439 -389q-94 0 -165.5 10t-126.5 33t-84 62.5t-29 94.5q0 86 57 157.5t139 114.5q-54 15 -93 43.5t-39 61.5q0 94 141 239q-148 108 -148 362q0 86 20 159.5t59.5 131t103.5 90t147 32.5q179 0 255 -147q19 33 64 71.5t96 60.5l31 13l40 -105q-49 -12 -109.5 -43
t-85.5 -60q15 -36 26.5 -100t11.5 -107q0 -191 -78.5 -302.5t-248.5 -111.5q-27 0 -66 6.5t-54 12.5q-3 -5 -22.5 -34t-29 -44.5t-19.5 -38t-10 -37.5q0 -29 99 -45q21 -6 100 -17.5t90 -14.5q146 -26 221 -91t75 -182q0 -141 -99 -208t-269 -67zM437 -269q116 0 183.5 37.5
t67.5 113.5q0 65 -46 101t-177 60l-152 20q-150 -93 -150 -203q0 -68 64 -98.5t210 -30.5zM423 479q50 0 87 19t57 48t32 72.5t15.5 82t3.5 88.5q0 306 -194 306q-47 0 -83.5 -19.5t-58 -49.5t-35 -72t-18 -81.5t-4.5 -83.5q0 -310 198 -310z" />
    <glyph glyph-name="h" unicode="h" horiz-adv-x="844" 
d="M117 0v1658h150v-599q133 143 287 143q89 0 136 -65.5t47 -186.5v-950h-151v918q0 90 -27 128t-85 38q-97 0 -207 -110v-974h-150z" />
    <glyph glyph-name="i" unicode="i" horiz-adv-x="418" 
d="M131 0v1184h150v-1184h-150zM131 1347v204h151v-204h-151z" />
    <glyph glyph-name="j" unicode="j" horiz-adv-x="436" 
d="M-34 -303v114q10 -3 51 -3q36 0 62.5 9t41 23.5t23 37t11 44t2.5 50.5v1212h150v-1225q0 -137 -68 -203t-193 -66q-63 0 -80 7zM157 1347v204h151v-204h-151z" />
    <glyph glyph-name="k" unicode="k" horiz-adv-x="820" 
d="M116 2v1658h150v-1054l395 578h160l-299 -457l284 -727h-150l-249 644l-141 -196v-446h-150z" />
    <glyph glyph-name="l" unicode="l" horiz-adv-x="414" 
d="M135 0v1658h151v-1658h-151z" />
    <glyph glyph-name="m" unicode="m" horiz-adv-x="1319" 
d="M114 0v1184h141v-120q119 141 279 141q148 0 186 -156q124 156 292 156q88 0 144.5 -63.5t56.5 -207.5v-934h-142v930q0 97 -30 135t-86 38q-113 -2 -223 -123q2 -30 2 -46v-934h-140v930q0 97 -31 135t-87 38q-113 -2 -221 -123v-980h-141z" />
    <glyph glyph-name="n" unicode="n" horiz-adv-x="838" 
d="M114 0v1184h150v-123q131 141 285 141q88 0 135 -65.5t47 -186.5v-950h-150v918q0 90 -27.5 128t-85.5 38q-97 0 -204 -109v-975h-150z" />
    <glyph glyph-name="o" unicode="o" horiz-adv-x="816" 
d="M408 94q45 0 76 16.5t48.5 41.5t26.5 71t11.5 88t2.5 109v344q0 67 -2.5 109t-11.5 88t-26.5 71t-48.5 41.5t-76 16.5q-38 0 -66 -10t-46 -32.5t-29 -48t-16.5 -66.5t-7 -77.5t-1.5 -91.5v-344q0 -55 1.5 -91.5t7 -77.5t16.5 -66.5t29 -48t46 -32.5t66 -10zM408 -19
q-91 0 -153 29t-97.5 88t-50.5 138.5t-15 191.5v328q0 226 70 336t246 110q177 0 246.5 -109.5t69.5 -336.5v-328q0 -112 -15 -191.5t-50.5 -138.5t-97.5 -88t-153 -29z" />
    <glyph glyph-name="p" unicode="p" horiz-adv-x="855" 
d="M115 -390v1574h150v-99q95 117 227 117q66 0 115.5 -27t78 -70t46 -107t23 -126.5t5.5 -141.5v-250q0 -94 -8 -168t-28 -137.5t-52.5 -105t-81.5 -65t-114 -23.5q-115 0 -211 113v-484h-150zM452 100q40 0 68 16.5t45.5 45t27.5 77.5t13.5 104.5t3.5 134.5v252
q0 190 -32 272t-129 82q-91 0 -184 -91v-807q82 -86 187 -86z" />
    <glyph glyph-name="q" unicode="q" horiz-adv-x="848" 
d="M584 -390v475q-89 -103 -202 -104q-153 0 -219.5 115t-66.5 382v219q0 98 7 172t26 139t50 106t80 64.5t116 23.5q120 -1 209 -104v86h150v-1574h-150zM412 100q89 0 172 79v821q-91 84 -176 84q-95 0 -128.5 -79.5t-33.5 -259.5v-279q0 -194 34 -280t132 -86z" />
    <glyph glyph-name="r" unicode="r" horiz-adv-x="610" 
d="M126 0v1184h150v-163q54 90 126.5 133t146.5 43q18 0 26 -1v-162q-32 13 -72 13q-144 0 -227 -138v-909h-150z" />
    <glyph glyph-name="s" unicode="s" horiz-adv-x="743" 
d="M385 -19q-141 0 -225.5 91t-96.5 246l126 38q12 -135 62 -198.5t140 -63.5q78 0 123 46q43 44 43 118v7q-3 118 -144 236l-161 137q-85 71 -124 139q-38 66 -38 154q0 130 78 201q76 70 205 70q131 0 201.5 -84t78.5 -227l-106 -35q-7 119 -48.5 176.5t-119.5 57.5
q-70 0 -112 -39q-41 -38 -41 -102q0 -58 21 -99.5t77 -89.5l167 -150q45 -39 73.5 -68.5t60.5 -73t47.5 -94t16.5 -108.5q0 -136 -82 -210.5t-222 -74.5z" />
    <glyph glyph-name="t" unicode="t" horiz-adv-x="573" 
d="M395 -15q-121 0 -167 66.5t-47 194.5v838h-143v100h143v366h150v-366h197v-100h-197v-824q0 -90 21 -123.5t85 -33.5q41 0 84 8v-113q-67 -13 -126 -13z" />
    <glyph glyph-name="u" unicode="u" horiz-adv-x="843" 
d="M288 -18q-89 0 -136 66t-47 187v949h151v-918q0 -90 27 -128t85 -38q101 0 210 116v968h150v-1184h-150v131q-132 -149 -290 -149z" />
    <glyph glyph-name="v" unicode="v" horiz-adv-x="753" 
d="M294 0l-258 1184h152l193 -1011l190 1011h146l-246 -1184h-177z" />
    <glyph glyph-name="w" unicode="w" horiz-adv-x="1177" 
d="M257 0l-193 1184h128l148 -989l186 989h129l188 -985l143 985h127l-191 -1184h-141l-188 963l-185 -963h-151z" />
    <glyph glyph-name="x" unicode="x" horiz-adv-x="778" 
d="M33 0l280 619l-267 565h149l203 -434l194 434h151l-277 -582l282 -602h-143l-221 466l-206 -466h-145z" />
    <glyph glyph-name="y" unicode="y" horiz-adv-x="780" 
d="M82 -295v117q108 0 162 17t68 48q9 20 10 52q0 17 -3 38q-5 37 -35 164q-24 99 -131 559t-113 484h150l206 -1007l198 1007h151l-287 -1269q-26 -113 -105.5 -161.5t-231.5 -48.5h-39z" />
    <glyph glyph-name="z" unicode="z" horiz-adv-x="683" 
d="M66 0v105l403 965h-361v114h519v-89l-401 -981h393v-114h-553z" />
    <glyph glyph-name="braceleft" unicode="{" horiz-adv-x="528" 
d="M488 -338q-55 0 -92.5 2t-70 12t-52 20t-35 36.5t-23 51t-12 74t-5.5 95t-1 123.5v264q0 88 -4.5 138t-18 82.5t-35.5 43.5t-61 11v116q39 0 61 11t35.5 43.5t18 82.5t4.5 138v255q0 78 1 123t5.5 94.5t12 74t23 51t35 36.5t52 20t70 12t92.5 2v-112q-101 0 -119 -43
t-18 -258v-287q0 -102 -13.5 -164.5t-39 -93.5t-68.5 -43q43 -12 68.5 -43t39 -93.5t13.5 -164.5v-296q0 -216 18 -258.5t119 -42.5v-113z" />
    <glyph glyph-name="bar" unicode="|" horiz-adv-x="445" 
d="M152 -295l1 1954l140 -1l-1 -1953h-140z" />
    <glyph glyph-name="braceright" unicode="}" horiz-adv-x="552" 
d="M64 -338v113q101 0 119 42.5t18 258.5v296q0 102 13.5 164.5t39 93.5t68.5 43q-43 12 -68.5 43t-39 93.5t-13.5 164.5v287q0 215 -18 258t-119 43v112q44 0 75.5 -1.5t61 -7t48.5 -11.5t36.5 -21t27.5 -28.5t18.5 -41t12.5 -52t6.5 -68t3 -82t0.5 -100.5v-255
q0 -88 4.5 -138t18 -82.5t35.5 -43.5t61 -11v-116q-39 0 -61 -11t-35.5 -43.5t-18 -82.5t-4.5 -138v-264q0 -62 -0.5 -101t-3 -82.5t-6.5 -68t-12.5 -52t-18.5 -41t-27.5 -28.5t-36.5 -21t-48.5 -11.5t-61 -7t-75.5 -1.5z" />
    <glyph glyph-name="asciitilde" unicode="~" horiz-adv-x="833" 
d="M557 767q-46 0 -147 57t-136 57q-50 0 -141 -82l-54 70q50 55 106 92t99 37q44 0 144.5 -56t134.5 -56q19 0 41.5 10.5t40.5 23.5t55 42l54 -69q-120 -126 -197 -126z" />
    <glyph glyph-name="exclamdown" unicode="&#xa1;" horiz-adv-x="412" 
d="M125 -396l55 1302h53l53 -1302h-161zM127 1083v179h160v-179h-160z" />
    <glyph glyph-name="cent" unicode="&#xa2;" horiz-adv-x="783" 
d="M355 -204v188q-67 7 -115 34.5t-76.5 67t-44.5 100t-21.5 121t-5.5 142.5v276q0 242 58 352t213 123v185h62v-184q69 -2 120 -21.5t82.5 -50.5t50.5 -79.5t26 -102t7 -124.5v-56h-139v56q0 152 -36 209.5t-126 57.5q-102 0 -135 -72.5t-33 -267.5v-332q0 -182 35.5 -253
t133.5 -71q42 0 71 12t46.5 33t27.5 58t13 78.5t3 104.5v65h139v-58q0 -76 -6.5 -133t-25.5 -110t-51 -86.5t-85 -54t-126 -21.5v-186h-62z" />
    <glyph glyph-name="sterling" unicode="&#xa3;" horiz-adv-x="769" 
d="M22 0v76l124 35v663h-124v112h124v234q0 76 2.5 132.5t10.5 117.5t22 104t38 83.5t57 65t80.5 39t107.5 14.5q77 0 129.5 -25t81 -73t40.5 -105.5t13 -135.5v-51h-113q0 141 -30 206t-122 65q-38 0 -66.5 -11.5t-46 -36.5t-29 -52.5t-16.5 -73t-7 -83.5t-2 -97v-317h272
v-112h-272v-663h429v-111h-703z" />
    <glyph glyph-name="currency" unicode="&#xa4;" horiz-adv-x="1078" 
d="M86 381l-30 30l163 162q-111 124 -111 293t111 293l-163 162l30 30l162 -162q122 115 290 115h2.5h3.5q168 0 290 -115l162 162l30 -30l-162 -162q110 -125 110 -293q0 -169 -111 -293l163 -162l-30 -30l-162 162q-122 -115 -290 -115h-2.5h-3.5q-168 0 -290 115z
M541 498q151 0 254 107.5t103 260.5t-103 261t-254 108t-254 -108t-103 -261t103.5 -260.5t253.5 -107.5z" />
    <glyph glyph-name="yen" unicode="&#xa5;" horiz-adv-x="889" 
d="M384 0v225h-204v100h204v185h-204v98h184l-354 1050h153l298 -921l287 921h153l-346 -1050h182v-98h-201v-185h201v-100h-201v-225h-152z" />
    <glyph glyph-name="brokenbar" unicode="&#xa6;" horiz-adv-x="414" 
d="M144 -348v850h126v-850h-126zM144 808v850h126v-850h-126z" />
    <glyph glyph-name="section" unicode="&#xa7;" horiz-adv-x="820" 
d="M415 -18q-132 0 -212.5 89t-113.5 227l114 38q26 -98 80 -165.5t134 -67.5q75 0 121.5 41t48.5 112v10q-1 48 -25 94q-28 52 -120 141l-229 188q-134 105 -134 236q0 91 50.5 153.5t130.5 91.5q-150 124 -150 246q0 116 82 187.5t220 71.5q225 0 310 -296l-117 -38
q-14 41 -27.5 71t-37 66t-57 55.5t-74.5 19.5q-67 0 -109 -39.5t-42 -110.5q0 -80 114 -179l230 -175q152 -121 152 -283v-18q-7 -153 -160 -234q41 -42 63.5 -69.5t45 -76t22.5 -102.5q0 -132 -84 -208q-85 -76 -226 -76zM498 597q47 20 83.5 59.5t40.5 91.5q1 10 1 19
q0 99 -111 191l-159 132q-56 -20 -91.5 -62.5t-35.5 -101.5q0 -71 68 -134z" />
    <glyph glyph-name="dieresis" unicode="&#xa8;" horiz-adv-x="784" 
d="M140 1477v181h154v-181h-154zM476 1477v181h154v-181h-154z" />
    <glyph glyph-name="copyright" unicode="&#xa9;" horiz-adv-x="1765" 
d="M867 249q-89 0 -153 24.5t-102 64.5t-59.5 106t-28.5 134t-7 163v233q0 139 15.5 229.5t55 154.5t107 91.5t172.5 27.5q82 0 141.5 -18t96 -49t57.5 -82t28.5 -107.5t7.5 -134.5v-56h-146v55q0 112 -19.5 171.5t-57 81t-106.5 21.5q-115 0 -153.5 -75.5t-38.5 -283.5
v-291q0 -194 41 -268t152 -74q59 0 94.5 15t55 52.5t26 88t6.5 135.5v59h146v-52q0 -84 -7 -142.5t-27.5 -113.5t-56.5 -88t-96 -52.5t-144 -19.5zM886 50q150 0 274 44.5t209 120t144 178t86 216t27 236.5t-27 236t-86 215t-144 177t-209 119t-274 44t-274 -44t-209.5 -119
t-144 -177t-85.5 -215t-27 -236t27 -236.5t85.5 -216t144 -178t209.5 -120t274 -44.5zM883 -22q-122 0 -229.5 26t-190 72.5t-150 111t-114 140.5t-78.5 162t-46.5 174t-14.5 179q0 129 29 250.5t93 234t158 196.5t233.5 134t309.5 50q142 0 263.5 -35t210 -97t156.5 -144
t109.5 -179.5t62 -200t20.5 -209.5q0 -91 -14.5 -179.5t-46 -174.5t-78 -161.5t-114 -140t-150 -111t-189.5 -72.5t-230 -26z" />
    <glyph glyph-name="ordfeminine" unicode="&#xaa;" horiz-adv-x="842" 
d="M358 696q-93 0 -150.5 58.5t-57.5 152.5q0 31 5 57.5t13 48.5t25.5 43t33.5 37t46.5 34.5t55.5 32t68.5 32.5t78 33t91.5 36v89q0 122 -26.5 174t-93.5 52q-66 0 -104.5 -44.5t-38.5 -138.5l-124 2q3 138 72 212t196 74q143 0 197 -85t54 -274v-612h-117l-6 123
q-28 -61 -87 -99t-131 -38zM398 806q55 0 98.5 33t70.5 86v269q-56 -26 -80 -38t-63 -32.5t-54.5 -32.5t-37.5 -31.5t-29.5 -37t-14 -40.5t-6.5 -51q0 -63 33.5 -94t82.5 -31z" />
    <glyph glyph-name="guillemotleft" unicode="&#xab;" horiz-adv-x="873" 
d="M417 176l-341 442v67l341 441v-191l-216 -281l216 -287v-191zM752 176l-342 442v67l342 441v-191l-217 -283l217 -285v-191z" />
    <glyph glyph-name="logicalnot" unicode="&#xac;" horiz-adv-x="745" 
d="M595 561v229h-511v119h602v-348h-91z" />
    <glyph glyph-name="registered" unicode="&#xae;" horiz-adv-x="1795" 
d="M612 252v1185h336q305 0 305 -315q0 -111 -47 -186.5t-145 -99.5l206 -584h-138l-191 560h-193v-560h-133zM745 893h168q120 0 162 55t42 177q0 110 -40.5 164t-140.5 54h-191v-450zM898 55q146 0 268 43.5t205 118t141 175t84.5 212.5t26.5 232q0 121 -26.5 233
t-84.5 212t-141 174t-205 117t-268 43q-148 0 -270 -43t-205.5 -117t-141 -174t-84 -212t-26.5 -233t26.5 -232.5t84 -212t141 -175t205.5 -118t270 -43.5zM898 -25q-169 0 -308 50t-232.5 133.5t-157.5 195.5t-92.5 233t-28.5 249t28.5 249t92.5 233t157.5 195t232.5 133
t308 50t307.5 -50t232 -133t157.5 -195t92.5 -233t28.5 -249t-28.5 -249t-92.5 -233t-157 -195.5t-232 -133.5t-308 -50z" />
    <glyph glyph-name="macron" unicode="&#xaf;" horiz-adv-x="704" 
d="M178 1562v96h367v-96h-367z" />
    <glyph glyph-name="degree" unicode="&#xb0;" horiz-adv-x="846" 
d="M423 1176q80 0 132 51.5t52 147.5q0 97 -52 148.5t-133 51.5q-80 0 -131 -51.5t-51 -148.5q0 -96 51.5 -147.5t131.5 -51.5zM423 1074q-131 0 -216 78t-85 224t85 223t216 77q130 0 215.5 -77.5t85.5 -222.5q0 -146 -85.5 -224t-215.5 -78z" />
    <glyph glyph-name="plusminus" unicode="&#xb1;" horiz-adv-x="695" 
d="M291 369v184h-185v124h185v184h126v-184h185v-124h-185v-184h-126zM106 0v124h496v-124h-496z" />
    <glyph glyph-name="uni00B2" unicode="&#xb2;" horiz-adv-x="848" 
d="M169 687v90l288 444q9 14 31 47t30.5 46.5t23.5 41.5t21 48.5t11 49.5t5 61q0 184 -133 184q-41 0 -73 -26.5t-48.5 -66.5t-24.5 -78t-8 -69h-115v29q0 154 63.5 232.5t200.5 78.5q126 0 193 -72.5t67 -207.5q0 -64 -18.5 -124.5t-41 -99.5t-67.5 -107l-265 -398h360
v-103h-500z" />
    <glyph glyph-name="uni00B3" unicode="&#xb3;" horiz-adv-x="850" 
d="M439 675q-140 0 -203.5 75t-63.5 217v45h133v-50q0 -174 134 -174q70 0 109.5 48t39.5 143q0 97 -38 157t-105 60h-83v105h80q70 0 106 57.5t36 163.5q0 83 -35 126t-101 43q-140 0 -140 -160v-60h-133v56q0 126 68 199t202 73q131 0 197.5 -74.5t66.5 -209.5
q0 -106 -42.5 -175t-99.5 -83q146 -56 146 -265q0 -146 -69.5 -231.5t-204.5 -85.5z" />
    <glyph glyph-name="acute" unicode="&#xb4;" horiz-adv-x="477" 
d="M97 1258l128 400h151l-201 -400h-78z" />
    <glyph glyph-name="mu" unicode="&#xb5;" horiz-adv-x="861" 
d="M106 -355l-1 1539h151v-918q0 -90 27 -128t85 -38q101 0 210 116v968h150v-1184h-150v131q-107 -127 -244 -143h-8q-43 0 -69 20l1 -363h-152z" />
    <glyph glyph-name="paragraph" unicode="&#xb6;" horiz-adv-x="993" 
d="M410 -194v1279h-4q-158 0 -252 73q-94 74 -95 211q0 138 91 213.5t271 75.5h427v-1852h-110v1768h-218v-1768h-110z" />
    <glyph glyph-name="periodcentered" unicode="&#xb7;" horiz-adv-x="385" 
d="M132 683v180h152v-180h-152z" />
    <glyph glyph-name="periodcentered" unicode="&#x2219;" horiz-adv-x="385" 
d="M132 683v180h152v-180h-152z" />
    <glyph glyph-name="cedilla" unicode="&#xb8;" horiz-adv-x="462" 
d="M56 -409v77q41 -5 73 -5q123 0 128 72v9q-1 44 -37 70q-40 28 -115 42v144h79v-104q83 -12 135.5 -57.5t51.5 -107.5q0 -91 -86 -127q-52 -22 -125 -23q-47 0 -104 10z" />
    <glyph glyph-name="uni00B9" unicode="&#xb9;" horiz-adv-x="825" 
d="M404 686l-1 942q-24 -34 -192 -75v91q148 45 214 137h96l1 -1095h-118z" />
    <glyph glyph-name="ordmasculine" unicode="&#xba;" horiz-adv-x="842" 
d="M421 694q-82 0 -139.5 23t-89.5 68.5t-45.5 103.5t-13.5 136v327q0 160 65.5 244.5t222.5 84.5q288 0 288 -329v-327q0 -76 -14.5 -134t-46.5 -103.5t-89 -69.5t-138 -24zM419 798q50 0 83.5 17.5t50.5 52t23 73.5t6 94v307q0 55 -6 94t-23 73t-50.5 51.5t-83.5 17.5
q-49 0 -82.5 -17.5t-50.5 -51.5t-24 -73.5t-7 -93.5v-307q0 -55 6.5 -94t23.5 -73.5t50.5 -52t83.5 -17.5z" />
    <glyph glyph-name="guillemotright" unicode="&#xbb;" horiz-adv-x="901" 
d="M111 176v191l227 284l-227 284v191l352 -442v-67zM446 176v191l226 282l-226 286v191l351 -442v-67z" />
    <glyph glyph-name="onequarter" unicode="&#xbc;" horiz-adv-x="1583" 
d="M1247 -9v279h-311v86l317 649l115 1v-648h126v-88h-126v-279h-121zM255 668v808l-141 -52v92q55 27 114.5 68.5t86.5 73.5h58v-990h-118zM397 0l572 1658h130l-571 -1658h-131zM1038 358h209v469z" />
    <glyph glyph-name="onehalf" unicode="&#xbd;" horiz-adv-x="1583" 
d="M1012 0v88l226 324q6 9 32.5 45t34.5 50t23.5 44.5t21 58.5t5.5 60q0 76 -24 116t-84 40q-67 0 -92 -42.5t-25 -127.5h-117v15q5 244 234 244q109 0 170 -63t61 -179q0 -82 -38.5 -156t-113.5 -171q-12 -14 -98.5 -134.5t-88.5 -122.5h322v-89h-449zM264 668v808
l-142 -52v92q56 27 115 68.5t86 73.5h59v-990h-118zM402 0l572 1658h130l-572 -1658h-130z" />
    <glyph glyph-name="threequarters" unicode="&#xbe;" horiz-adv-x="1583" 
d="M301 748q-109 0 -165.5 61t-56.5 169l123 -2q0 -66 22 -103t80 -37q112 0 112 167q0 169 -131 169v90q67 0 97 38.5t30 130.5q0 149 -99 149q-61 0 -85 -35.5t-24 -103.5l-123 -2q0 108 58 169t173 61q109 0 165.5 -65t56.5 -173q0 -99 -43 -152.5t-112 -60.5
q159 -26 159 -214q0 -118 -61.5 -187t-175.5 -69zM1279 -9v279h-312v86l317 649h114v-647h126v-88h-126v-279h-119zM437 0l572 1658h130l-571 -1658h-131zM1070 358h209v469z" />
    <glyph glyph-name="questiondown" unicode="&#xbf;" horiz-adv-x="944" 
d="M453 -426q-175 0 -283.5 112t-108.5 321q0 99 26 184t80.5 161t119.5 139t161 139v212h132v-253q-189 -137 -281 -277t-92 -308q0 -143 70.5 -221t176.5 -78q117 -1 177 65q43 47 43 121q0 28 -6 59l-14 74l136 29l17 -73q11 -52 11 -98q0 -40 -8 -76
q-18 -76 -68.5 -127.5t-124.5 -78t-164 -26.5zM437 1076v177h149v-177h-149z" />
    <glyph glyph-name="Agrave" unicode="&#xc0;" horiz-adv-x="977" 
d="M450 1798l-189 400h152l114 -400h-77zM56 0l350 1658h164l352 -1658h-153l-82 443h-396l-84 -443h-151zM313 557h353l-177 894z" />
    <glyph glyph-name="Aacute" unicode="&#xc1;" horiz-adv-x="977" 
d="M451 1798l128 400h150l-201 -400h-77zM56 0l350 1658h164l352 -1658h-153l-82 443h-396l-84 -443h-151zM313 557h353l-177 894z" />
    <glyph glyph-name="Acircumflex" unicode="&#xc2;" horiz-adv-x="977" 
d="M229 1798l177 363h168l174 -363h-109l-150 289l-149 -289h-111zM56 0l350 1658h164l352 -1658h-153l-82 443h-396l-84 -443h-151zM313 557h353l-177 894z" />
    <glyph glyph-name="Atilde" unicode="&#xc3;" horiz-adv-x="977" 
d="M595 1799q-44 2 -117 48t-95 48q-31 5 -49 -15.5t-18 -65.5h-94q0 30 7 60t23 60q18 32 52 48q26 13 60 12q10 0 22 -1q33 -3 76 -25.5t80 -45t56 -24.5q34 -4 50 17t17 71h91q0 -34 -6 -63.5t-22 -61t-50 -49.5q-28 -14 -65 -14q-9 0 -18 1zM56 0l350 1658h164
l352 -1658h-153l-82 443h-396l-84 -443h-151zM313 557h353l-177 894z" />
    <glyph glyph-name="Adieresis" unicode="&#xc4;" horiz-adv-x="977" 
d="M244 1798v181h154v-181h-154zM580 1798v181h154v-181h-154zM56 0l350 1658h164l352 -1658h-153l-82 443h-396l-84 -443h-151zM313 557h353l-177 894z" />
    <glyph glyph-name="Aring" unicode="&#xc5;" horiz-adv-x="977" 
d="M489 1663q-83 0 -139 51t-56 144t56 143.5t139 50.5t139.5 -51t56.5 -143q0 -93 -56.5 -144t-139.5 -51zM490 1744q49 0 80 29t31 85q0 57 -31.5 85.5t-80.5 28.5t-80 -29t-31 -85t31.5 -85t80.5 -29zM56 0l350 1658h164l352 -1658h-153l-82 443h-396l-84 -443h-151z
M313 557h353l-177 894z" />
    <glyph glyph-name="AE" unicode="&#xc6;" horiz-adv-x="1338" 
d="M-17 0l665 1658h622v-123h-444v-612h317v-118h-317v-682h444v-123h-600v444h-349l-173 -444h-165zM365 562h304v834z" />
    <glyph glyph-name="Ccedilla" unicode="&#xc7;" horiz-adv-x="1021" 
d="M416 -409v77q41 -5 73 -5q123 0 128 72v9q-1 44 -37 70q-40 28 -115 42v144h79v-104q83 -12 135.5 -57.5t51.5 -107.5q0 -91 -86 -127q-52 -22 -125 -23q-47 0 -104 10zM531 -21q-98 0 -172.5 27t-121 72t-75.5 113t-40 142t-11 166v659q0 96 11.5 171.5t41 142
t76.5 110.5t120.5 69t170.5 25q109 0 186 -32.5t122 -95.5t65 -147t20 -196v-102h-148v97q0 88 -9 147t-34.5 108.5t-75 73t-125.5 23.5q-82 0 -135.5 -26t-80.5 -79t-37 -115.5t-10 -153.5v-704q0 -193 57.5 -281t205.5 -88q61 0 105 17.5t70.5 46.5t42 76.5t21 98
t5.5 120.5v108h148v-97q0 -91 -11 -163.5t-38.5 -136.5t-71.5 -106t-112.5 -66t-159.5 -24z" />
    <glyph glyph-name="Egrave" unicode="&#xc8;" horiz-adv-x="816" 
d="M408 1798l-189 400h152l114 -400h-77zM144 0v1658h599v-120h-442v-621h362v-116h-362v-684h447v-117h-604z" />
    <glyph glyph-name="Eacute" unicode="&#xc9;" horiz-adv-x="816" 
d="M407 1798l128 400h150l-201 -400h-77zM144 0v1658h599v-120h-442v-621h362v-116h-362v-684h447v-117h-604z" />
    <glyph glyph-name="Ecircumflex" unicode="&#xca;" horiz-adv-x="816" 
d="M187 1798l177 363h168l174 -363h-109l-150 289l-149 -289h-111zM144 0v1658h599v-120h-442v-621h362v-116h-362v-684h447v-117h-604z" />
    <glyph glyph-name="Edieresis" unicode="&#xcb;" horiz-adv-x="816" 
d="M201 1798v181h154v-181h-154zM537 1798v181h154v-181h-154zM144 0v1658h599v-120h-442v-621h362v-116h-362v-684h447v-117h-604z" />
    <glyph glyph-name="Igrave" unicode="&#xcc;" horiz-adv-x="454" 
d="M190 1798l-189 400h152l114 -400h-77zM151 0v1658h154v-1658h-154z" />
    <glyph glyph-name="Iacute" unicode="&#xcd;" horiz-adv-x="454" 
d="M189 1798l128 400h150l-201 -400h-77zM151 0v1658h154v-1658h-154z" />
    <glyph glyph-name="Icircumflex" unicode="&#xce;" horiz-adv-x="454" 
d="M-31 1798l177 363h168l174 -363h-109l-150 289l-149 -289h-111zM151 0v1658h154v-1658h-154z" />
    <glyph glyph-name="Idieresis" unicode="&#xcf;" horiz-adv-x="454" 
d="M-17 1798v181h154v-181h-154zM319 1798v181h154v-181h-154zM151 0v1658h154v-1658h-154z" />
    <glyph glyph-name="Eth" unicode="&#xd0;" horiz-adv-x="1078" 
d="M312 117h209q77 0 130.5 21.5t84 55t47.5 91.5t21.5 113.5t4.5 137.5v619q0 80 -6.5 136t-25 105.5t-51 79t-85 46t-125.5 16.5h-204v-621h166v-96h-166v-704zM155 0v821h-121v96h121v741h363q101 0 178.5 -23t128.5 -64t83 -103t45.5 -134t13.5 -163v-659
q0 -121 -22 -212t-72 -160t-135.5 -104.5t-207.5 -35.5h-375z" />
    <glyph glyph-name="Ntilde" unicode="&#xd1;" horiz-adv-x="1065" 
d="M639 1799q-44 2 -117 48t-95 48q-31 5 -49 -15.5t-18 -65.5h-94q0 30 7 60t23 60q18 32 52 48q26 13 60 12q10 0 22 -1q33 -3 76 -25.5t80 -45t56 -24.5q34 -4 50 17t17 71h91q0 -34 -6 -63.5t-22 -61t-50 -49.5q-28 -14 -65 -14q-9 0 -18 1zM144 0v1658h115l528 -1287
v1287h134v-1658h-110l-532 1302v-1302h-135z" />
    <glyph glyph-name="Ograve" unicode="&#xd2;" horiz-adv-x="1074" 
d="M498 1798l-189 400h152l114 -400h-77zM537 105q80 0 134 24.5t82.5 73.5t40 109t11.5 144v750q0 84 -11.5 143.5t-40 107.5t-82.5 71.5t-134 23.5t-134 -23.5t-82.5 -71.5t-40 -107.5t-11.5 -143.5v-750q0 -84 11.5 -144t40 -109t82.5 -73.5t134 -24.5zM537 -21
q-120 0 -204.5 36.5t-132 107t-68.5 160t-21 207.5v688q0 117 21.5 205t70 155.5t132.5 102.5t202 35t202 -35t132.5 -103t70 -156t21.5 -204v-690q0 -93 -12.5 -168t-43 -140t-78.5 -108.5t-122 -68t-170 -24.5z" />
    <glyph glyph-name="Oacute" unicode="&#xd3;" horiz-adv-x="1074" 
d="M499 1798l128 400h150l-201 -400h-77zM537 105q80 0 134 24.5t82.5 73.5t40 109t11.5 144v750q0 84 -11.5 143.5t-40 107.5t-82.5 71.5t-134 23.5t-134 -23.5t-82.5 -71.5t-40 -107.5t-11.5 -143.5v-750q0 -84 11.5 -144t40 -109t82.5 -73.5t134 -24.5zM537 -21
q-120 0 -204.5 36.5t-132 107t-68.5 160t-21 207.5v688q0 117 21.5 205t70 155.5t132.5 102.5t202 35t202 -35t132.5 -103t70 -156t21.5 -204v-690q0 -93 -12.5 -168t-43 -140t-78.5 -108.5t-122 -68t-170 -24.5z" />
    <glyph glyph-name="Ocircumflex" unicode="&#xd4;" horiz-adv-x="1074" 
d="M277 1798l177 363h168l174 -363h-109l-150 289l-149 -289h-111zM537 105q80 0 134 24.5t82.5 73.5t40 109t11.5 144v750q0 84 -11.5 143.5t-40 107.5t-82.5 71.5t-134 23.5t-134 -23.5t-82.5 -71.5t-40 -107.5t-11.5 -143.5v-750q0 -84 11.5 -144t40 -109t82.5 -73.5
t134 -24.5zM537 -21q-120 0 -204.5 36.5t-132 107t-68.5 160t-21 207.5v688q0 117 21.5 205t70 155.5t132.5 102.5t202 35t202 -35t132.5 -103t70 -156t21.5 -204v-690q0 -93 -12.5 -168t-43 -140t-78.5 -108.5t-122 -68t-170 -24.5z" />
    <glyph glyph-name="Otilde" unicode="&#xd5;" horiz-adv-x="1074" 
d="M643 1799q-44 2 -117 48t-95 48q-31 5 -49 -15.5t-18 -65.5h-94q0 30 7 60t23 60q18 32 52 48q26 13 60 12q10 0 22 -1q33 -3 76 -25.5t80 -45t56 -24.5q34 -4 50 17t17 71h91q0 -34 -6 -63.5t-22 -61t-50 -49.5q-28 -14 -65 -14q-9 0 -18 1zM537 105q80 0 134 24.5
t82.5 73.5t40 109t11.5 144v750q0 84 -11.5 143.5t-40 107.5t-82.5 71.5t-134 23.5t-134 -23.5t-82.5 -71.5t-40 -107.5t-11.5 -143.5v-750q0 -84 11.5 -144t40 -109t82.5 -73.5t134 -24.5zM537 -21q-120 0 -204.5 36.5t-132 107t-68.5 160t-21 207.5v688q0 117 21.5 205
t70 155.5t132.5 102.5t202 35t202 -35t132.5 -103t70 -156t21.5 -204v-690q0 -93 -12.5 -168t-43 -140t-78.5 -108.5t-122 -68t-170 -24.5z" />
    <glyph glyph-name="Odieresis" unicode="&#xd6;" horiz-adv-x="1074" 
d="M292 1798v181h154v-181h-154zM628 1798v181h154v-181h-154zM537 105q80 0 134 24.5t82.5 73.5t40 109t11.5 144v750q0 84 -11.5 143.5t-40 107.5t-82.5 71.5t-134 23.5t-134 -23.5t-82.5 -71.5t-40 -107.5t-11.5 -143.5v-750q0 -84 11.5 -144t40 -109t82.5 -73.5
t134 -24.5zM537 -21q-120 0 -204.5 36.5t-132 107t-68.5 160t-21 207.5v688q0 117 21.5 205t70 155.5t132.5 102.5t202 35t202 -35t132.5 -103t70 -156t21.5 -204v-690q0 -93 -12.5 -168t-43 -140t-78.5 -108.5t-122 -68t-170 -24.5z" />
    <glyph glyph-name="multiply" unicode="&#xd7;" horiz-adv-x="724" 
d="M161 524l-78 77l201 202l-201 201l78 77l201 -201l201 201l78 -77l-202 -201l202 -202l-78 -77l-201 201z" />
    <glyph glyph-name="Oslash" unicode="&#xd8;" horiz-adv-x="1084" 
d="M537 105q80 0 134 24.5t82.5 73.5t40 109t11.5 144v750q0 84 -11.5 143.5t-39.5 107.5q-2 3 -5 7l-371 -1321q12 -7 25 -13q54 -24 134 -25zM288 -178l-62 19l57 201q-51 32 -83 80q-48 70 -68.5 160t-20.5 208v688q0 117 21.5 205t70 155.5t132.5 102.5t202 35
q114 0 196 -32l50 179l63 -16l-54 -193q48 -31 80 -76q48 -68 69.5 -156t21.5 -204v-690q0 -93 -12.5 -168t-43 -140t-78.5 -108.5t-122 -68t-170 -24.5q-114 0 -196 33zM696 1515q-12 7 -25 13q-54 24 -134 24t-134 -23.5t-82.5 -71.5t-40 -107.5t-11.5 -143.5v-750
q0 -84 11.5 -144t39.5 -109q2 -4 5 -8z" />
    <glyph glyph-name="Ugrave" unicode="&#xd9;" horiz-adv-x="1100" 
d="M512 1798l-189 400h152l114 -400h-77zM551 -21q-99 0 -174 23t-122 63.5t-76 101.5t-40.5 129.5t-11.5 156.5v1205h151v-1210q0 -62 7 -111t25 -93.5t48 -74t79 -47t114 -17.5q78 0 132.5 25.5t84 74t42.5 107.5t13 136v1210h150v-1205q0 -87 -12 -156t-42 -130
t-77.5 -101.5t-121 -63.5t-169.5 -23z" />
    <glyph glyph-name="Uacute" unicode="&#xda;" horiz-adv-x="1100" 
d="M511 1798l128 400h150l-201 -400h-77zM551 -21q-99 0 -174 23t-122 63.5t-76 101.5t-40.5 129.5t-11.5 156.5v1205h151v-1210q0 -62 7 -111t25 -93.5t48 -74t79 -47t114 -17.5q78 0 132.5 25.5t84 74t42.5 107.5t13 136v1210h150v-1205q0 -87 -12 -156t-42 -130
t-77.5 -101.5t-121 -63.5t-169.5 -23z" />
    <glyph glyph-name="Ucircumflex" unicode="&#xdb;" horiz-adv-x="1100" 
d="M291 1798l177 363h168l174 -363h-109l-150 289l-149 -289h-111zM551 -21q-99 0 -174 23t-122 63.5t-76 101.5t-40.5 129.5t-11.5 156.5v1205h151v-1210q0 -62 7 -111t25 -93.5t48 -74t79 -47t114 -17.5q78 0 132.5 25.5t84 74t42.5 107.5t13 136v1210h150v-1205
q0 -87 -12 -156t-42 -130t-77.5 -101.5t-121 -63.5t-169.5 -23z" />
    <glyph glyph-name="Udieresis" unicode="&#xdc;" horiz-adv-x="1100" 
d="M305 1798v181h154v-181h-154zM641 1798v181h154v-181h-154zM551 -21q-99 0 -174 23t-122 63.5t-76 101.5t-40.5 129.5t-11.5 156.5v1205h151v-1210q0 -62 7 -111t25 -93.5t48 -74t79 -47t114 -17.5q78 0 132.5 25.5t84 74t42.5 107.5t13 136v1210h150v-1205
q0 -87 -12 -156t-42 -130t-77.5 -101.5t-121 -63.5t-169.5 -23z" />
    <glyph glyph-name="Yacute" unicode="&#xdd;" horiz-adv-x="961" 
d="M442 1798l128 400h150l-201 -400h-77zM409 0v551l-374 1107h153l298 -921l287 921h153l-365 -1107v-551h-152z" />
    <glyph glyph-name="Thorn" unicode="&#xde;" horiz-adv-x="1033" 
d="M144 0v1658h157v-214h284q105 0 182 -35.5t122 -99.5t66.5 -145.5t21.5 -182.5q0 -79 -12.5 -147.5t-42.5 -131t-76 -106.5t-118 -70t-164 -26h-263v-500h-157zM301 630h231q150 0 219.5 81t69.5 268q0 177 -68 255t-205 78h-247v-682z" />
    <glyph glyph-name="germandbls" unicode="&#xdf;" horiz-adv-x="978" 
d="M379 -21v126q92 0 160.5 21t109 55t64.5 85t32.5 101.5t8.5 114.5q0 74 -15.5 136t-49 113t-92.5 79.5t-140 28.5l3 125q61 0 105 25.5t68 71.5t35 100t11 120q0 142 -48.5 215.5t-159.5 73.5q-72 0 -115.5 -27.5t-66.5 -97.5t-23 -191v-1254h-150v1251q0 233 85 336.5
t258 103.5q176 0 271 -104.5t95 -305.5q0 -290 -200 -369q141 -33 209 -148.5t68 -277.5q0 -507 -523 -507z" />
    <glyph glyph-name="agrave" unicode="&#xe0;" horiz-adv-x="813" 
d="M362 1324l-189 400h152l114 -400h-77zM319 -19q-104 0 -171 76.5t-67 189.5q0 59 10 105.5t37.5 87.5t60 72.5t92.5 67t120 65.5t157 73v85q0 163 -31 224.5t-116 61.5q-164 0 -164 -203v-43l-148 5q0 29 1 36q7 167 87 242.5t232 75.5q157 0 223 -93t66 -298v-576
q0 -143 11 -235h-133l-22 164q-27 -78 -91.5 -130.5t-153.5 -52.5zM368 110q60 0 110.5 41.5t79.5 98.5v369q-6 -3 -19 -10q-49 -26 -75 -40t-62.5 -35t-54.5 -35t-41.5 -34t-34 -37.5t-21.5 -40.5t-15 -48.5t-4 -56.5q0 -87 39 -129.5t98 -42.5z" />
    <glyph glyph-name="aacute" unicode="&#xe1;" horiz-adv-x="813" 
d="M361 1324l128 400h150l-201 -400h-77zM319 -19q-104 0 -171 76.5t-67 189.5q0 59 10 105.5t37.5 87.5t60 72.5t92.5 67t120 65.5t157 73v85q0 163 -31 224.5t-116 61.5q-164 0 -164 -203v-43l-148 5q0 29 1 36q7 167 87 242.5t232 75.5q157 0 223 -93t66 -298v-576
q0 -143 11 -235h-133l-22 164q-27 -78 -91.5 -130.5t-153.5 -52.5zM368 110q60 0 110.5 41.5t79.5 98.5v369q-6 -3 -19 -10q-49 -26 -75 -40t-62.5 -35t-54.5 -35t-41.5 -34t-34 -37.5t-21.5 -40.5t-15 -48.5t-4 -56.5q0 -87 39 -129.5t98 -42.5z" />
    <glyph glyph-name="acircumflex" unicode="&#xe2;" horiz-adv-x="813" 
d="M141 1324l177 363h168l174 -363h-109l-150 289l-149 -289h-111zM319 -19q-104 0 -171 76.5t-67 189.5q0 59 10 105.5t37.5 87.5t60 72.5t92.5 67t120 65.5t157 73v85q0 163 -31 224.5t-116 61.5q-164 0 -164 -203v-43l-148 5q0 29 1 36q7 167 87 242.5t232 75.5
q157 0 223 -93t66 -298v-576q0 -143 11 -235h-133l-22 164q-27 -78 -91.5 -130.5t-153.5 -52.5zM368 110q60 0 110.5 41.5t79.5 98.5v369q-6 -3 -19 -10q-49 -26 -75 -40t-62.5 -35t-54.5 -35t-41.5 -34t-34 -37.5t-21.5 -40.5t-15 -48.5t-4 -56.5q0 -87 39 -129.5t98 -42.5
z" />
    <glyph glyph-name="atilde" unicode="&#xe3;" horiz-adv-x="813" 
d="M506 1325q-44 2 -117 48t-95 48q-31 5 -49 -15.5t-18 -65.5h-94q0 30 7 60t23 60q18 32 52 48q26 13 60 12q10 0 22 -1q33 -3 76 -25.5t80 -45t56 -24.5q34 -4 50 17t17 71h91q0 -34 -6 -63.5t-22 -61t-50 -49.5q-28 -14 -65 -14q-9 0 -18 1zM319 -19q-104 0 -171 76.5
t-67 189.5q0 59 10 105.5t37.5 87.5t60 72.5t92.5 67t120 65.5t157 73v85q0 163 -31 224.5t-116 61.5q-164 0 -164 -203v-43l-148 5q0 29 1 36q7 167 87 242.5t232 75.5q157 0 223 -93t66 -298v-576q0 -143 11 -235h-133l-22 164q-27 -78 -91.5 -130.5t-153.5 -52.5z
M368 110q60 0 110.5 41.5t79.5 98.5v369q-6 -3 -19 -10q-49 -26 -75 -40t-62.5 -35t-54.5 -35t-41.5 -34t-34 -37.5t-21.5 -40.5t-15 -48.5t-4 -56.5q0 -87 39 -129.5t98 -42.5z" />
    <glyph glyph-name="adieresis" unicode="&#xe4;" horiz-adv-x="813" 
d="M155 1324v181h154v-181h-154zM491 1324v181h154v-181h-154zM319 -19q-104 0 -171 76.5t-67 189.5q0 59 10 105.5t37.5 87.5t60 72.5t92.5 67t120 65.5t157 73v85q0 163 -31 224.5t-116 61.5q-164 0 -164 -203v-43l-148 5q0 29 1 36q7 167 87 242.5t232 75.5
q157 0 223 -93t66 -298v-576q0 -143 11 -235h-133l-22 164q-27 -78 -91.5 -130.5t-153.5 -52.5zM368 110q60 0 110.5 41.5t79.5 98.5v369q-6 -3 -19 -10q-49 -26 -75 -40t-62.5 -35t-54.5 -35t-41.5 -34t-34 -37.5t-21.5 -40.5t-15 -48.5t-4 -56.5q0 -87 39 -129.5t98 -42.5
z" />
    <glyph glyph-name="aring" unicode="&#xe5;" horiz-adv-x="813" 
d="M399 1324q-83 0 -139 51t-56 144t56 143.5t139 50.5t139.5 -51t56.5 -143q0 -93 -56.5 -144t-139.5 -51zM400 1405q49 0 80 29t31 85q0 57 -31.5 85.5t-80.5 28.5t-80 -29t-31 -85t31.5 -85t80.5 -29zM319 -19q-104 0 -171 76.5t-67 189.5q0 59 10 105.5t37.5 87.5
t60 72.5t92.5 67t120 65.5t157 73v85q0 163 -31 224.5t-116 61.5q-164 0 -164 -203v-43l-148 5q0 29 1 36q7 167 87 242.5t232 75.5q157 0 223 -93t66 -298v-576q0 -143 11 -235h-133l-22 164q-27 -78 -91.5 -130.5t-153.5 -52.5zM368 110q60 0 110.5 41.5t79.5 98.5v369
q-6 -3 -19 -10q-49 -26 -75 -40t-62.5 -35t-54.5 -35t-41.5 -34t-34 -37.5t-21.5 -40.5t-15 -48.5t-4 -56.5q0 -87 39 -129.5t98 -42.5z" />
    <glyph glyph-name="ae" unicode="&#xe6;" horiz-adv-x="1274" 
d="M318 -19q-105 4 -171 79t-66 187q0 134 67.5 219.5t242.5 143.5l171 55v138q0 156 -34 219.5t-117 63.5q-78 0 -123.5 -52t-45.5 -165l-146 2q1 160 83.5 245.5t232.5 85.5q89 0 149.5 -45.5t75.5 -130.5q26 89 92 132.5t154 43.5q142 0 218 -83t76 -221q0 -96 -69 -149
t-198 -88l-197 -60v-119q0 -193 36 -287t132 -94q73 0 114.5 52t41.5 182v70h149v-69q0 -170 -71.5 -262.5t-234.5 -92.5q-103 0 -174 60t-87 181q-37 -122 -119 -184q-76 -57 -167 -57h-15zM368 99q81 0 137.5 82.5t56.5 258.5v132q-8 -2 -67 -25t-62 -24
q-122 -49 -163 -105q-40 -54 -40 -143t42 -133q40 -43 96 -43zM713 691l173 55q86 25 119.5 60t33.5 104q0 74 -37.5 122.5t-118.5 48.5q-90 0 -130 -65t-40 -219v-106z" />
    <glyph glyph-name="ccedilla" unicode="&#xe7;" horiz-adv-x="796" 
d="M316 -409v77q41 -5 73 -5q123 0 128 72v9q-1 44 -37 70q-40 28 -115 42v144h79v-104q83 -12 135.5 -57.5t51.5 -107.5q0 -91 -86 -127q-52 -22 -125 -23q-47 0 -104 10zM409 -19q-81 0 -139 24t-92 62.5t-53.5 101.5t-26 127.5t-6.5 152.5v276q0 129 14 214.5t49.5 146.5
t97 88.5t155.5 27.5q74 0 128 -18t87.5 -49.5t53 -80.5t27 -103.5t7.5 -127.5v-56h-139v56q0 152 -36 209.5t-126 57.5q-102 0 -135 -72.5t-33 -267.5v-332q0 -182 35.5 -253t133.5 -71q42 0 71 12t46.5 33t27.5 58t13 78.5t3 104.5v65h139v-58q0 -78 -6.5 -135t-26 -110.5
t-52 -87t-87.5 -53.5t-130 -20z" />
    <glyph glyph-name="egrave" unicode="&#xe8;" horiz-adv-x="809" 
d="M368 1324l-189 400h152l114 -400h-77zM412 -19q-170 0 -245 105t-75 359v299q0 173 35.5 274.5t104 142.5t181.5 41q75 0 128 -19.5t88 -55.5t55.5 -97.5t28.5 -136t8 -179.5l-1 -107h-478v-177q0 -184 35.5 -260t133.5 -76q78 0 120 49.5t42 179.5v82h147v-66
q0 -172 -72 -265t-236 -93zM242 693h331v98q0 62 -3 103t-12.5 81.5t-26.5 63.5t-47 37t-72 14q-95 0 -132.5 -66t-37.5 -251v-80z" />
    <glyph glyph-name="eacute" unicode="&#xe9;" horiz-adv-x="809" 
d="M368 1324l128 400h150l-201 -400h-77zM412 -19q-170 0 -245 105t-75 359v299q0 173 35.5 274.5t104 142.5t181.5 41q75 0 128 -19.5t88 -55.5t55.5 -97.5t28.5 -136t8 -179.5l-1 -107h-478v-177q0 -184 35.5 -260t133.5 -76q78 0 120 49.5t42 179.5v82h147v-66
q0 -172 -72 -265t-236 -93zM242 693h331v98q0 62 -3 103t-12.5 81.5t-26.5 63.5t-47 37t-72 14q-95 0 -132.5 -66t-37.5 -251v-80z" />
    <glyph glyph-name="ecircumflex" unicode="&#xea;" horiz-adv-x="809" 
d="M147 1324l177 363h168l174 -363h-109l-150 289l-149 -289h-111zM412 -19q-170 0 -245 105t-75 359v299q0 173 35.5 274.5t104 142.5t181.5 41q75 0 128 -19.5t88 -55.5t55.5 -97.5t28.5 -136t8 -179.5l-1 -107h-478v-177q0 -184 35.5 -260t133.5 -76q78 0 120 49.5
t42 179.5v82h147v-66q0 -172 -72 -265t-236 -93zM242 693h331v98q0 62 -3 103t-12.5 81.5t-26.5 63.5t-47 37t-72 14q-95 0 -132.5 -66t-37.5 -251v-80z" />
    <glyph glyph-name="edieresis" unicode="&#xeb;" horiz-adv-x="809" 
d="M162 1324v181h154v-181h-154zM498 1324v181h154v-181h-154zM412 -19q-170 0 -245 105t-75 359v299q0 173 35.5 274.5t104 142.5t181.5 41q75 0 128 -19.5t88 -55.5t55.5 -97.5t28.5 -136t8 -179.5l-1 -107h-478v-177q0 -184 35.5 -260t133.5 -76q78 0 120 49.5t42 179.5
v82h147v-66q0 -172 -72 -265t-236 -93zM242 693h331v98q0 62 -3 103t-12.5 81.5t-26.5 63.5t-47 37t-72 14q-95 0 -132.5 -66t-37.5 -251v-80z" />
    <glyph glyph-name="igrave" unicode="&#xec;" horiz-adv-x="405" 
d="M166 1324l-189 400h152l114 -400h-77zM130 0v1184h150v-1184h-150z" />
    <glyph glyph-name="iacute" unicode="&#xed;" horiz-adv-x="405" 
d="M167 1324l128 400h150l-201 -400h-77zM130 0v1184h150v-1184h-150z" />
    <glyph glyph-name="icircumflex" unicode="&#xee;" horiz-adv-x="405" 
d="M-55 1324l177 363h168l174 -363h-109l-150 289l-149 -289h-111zM130 0v1184h150v-1184h-150z" />
    <glyph glyph-name="idieresis" unicode="&#xef;" horiz-adv-x="405" 
d="M-40 1324v181h154v-181h-154zM296 1324v181h154v-181h-154zM130 0v1184h150v-1184h-150z" />
    <glyph glyph-name="eth" unicode="&#xf0;" horiz-adv-x="912" 
d="M793 500q0 -262 -77 -391.5t-266 -129.5q-97 0 -164.5 32.5t-105 97.5t-53.5 149t-16 200v153q0 261 75 395t240 134q103 0 201 -63q-23 193 -72 278l-222 -64v85l181 49q-43 76 -127 115t-224 48l8 100q175 -5 287 -57t175 -167l193 54v-85l-154 -41q43 -95 82 -283.5
t39 -393.5v-215zM259 548q0 -89 4.5 -153.5t17 -123t34 -94.5t56.5 -56.5t83 -20.5q50 0 84.5 17t55.5 47.5t32 86.5t15 119t4 161q0 51 -6 235t-8 194q-3 2 -25.5 14t-32.5 16.5t-30.5 12.5t-40 11.5t-40.5 3.5q-106 0 -154.5 -108.5t-48.5 -361.5z" />
    <glyph glyph-name="ntilde" unicode="&#xf1;" horiz-adv-x="838" 
d="M529 1325q-44 2 -117 48t-95 48q-31 5 -49 -15.5t-18 -65.5h-94q0 30 7 60t23 60q18 32 52 48q26 13 60 12q10 0 22 -1q33 -3 76 -25.5t80 -45t56 -24.5q34 -4 50 17t17 71h91q0 -34 -6 -63.5t-22 -61t-50 -49.5q-28 -14 -65 -14q-9 0 -18 1zM114 0v1184h150v-123
q131 141 285 141q88 0 135 -65.5t47 -186.5v-950h-150v918q0 90 -27.5 128t-85.5 38q-97 0 -204 -109v-975h-150z" />
    <glyph glyph-name="ograve" unicode="&#xf2;" horiz-adv-x="816" 
d="M370 1324l-189 400h152l114 -400h-77zM408 94q45 0 76 16.5t48.5 41.5t26.5 71t11.5 88t2.5 109v344q0 67 -2.5 109t-11.5 88t-26.5 71t-48.5 41.5t-76 16.5q-38 0 -66 -10t-46 -32.5t-29 -48t-16.5 -66.5t-7 -77.5t-1.5 -91.5v-344q0 -55 1.5 -91.5t7 -77.5t16.5 -66.5
t29 -48t46 -32.5t66 -10zM408 -19q-91 0 -153 29t-97.5 88t-50.5 138.5t-15 191.5v328q0 226 70 336t246 110q177 0 246.5 -109.5t69.5 -336.5v-328q0 -112 -15 -191.5t-50.5 -138.5t-97.5 -88t-153 -29z" />
    <glyph glyph-name="oacute" unicode="&#xf3;" horiz-adv-x="816" 
d="M369 1324l128 400h150l-201 -400h-77zM408 94q45 0 76 16.5t48.5 41.5t26.5 71t11.5 88t2.5 109v344q0 67 -2.5 109t-11.5 88t-26.5 71t-48.5 41.5t-76 16.5q-38 0 -66 -10t-46 -32.5t-29 -48t-16.5 -66.5t-7 -77.5t-1.5 -91.5v-344q0 -55 1.5 -91.5t7 -77.5t16.5 -66.5
t29 -48t46 -32.5t66 -10zM408 -19q-91 0 -153 29t-97.5 88t-50.5 138.5t-15 191.5v328q0 226 70 336t246 110q177 0 246.5 -109.5t69.5 -336.5v-328q0 -112 -15 -191.5t-50.5 -138.5t-97.5 -88t-153 -29z" />
    <glyph glyph-name="ocircumflex" unicode="&#xf4;" horiz-adv-x="816" 
d="M149 1324l177 363h168l174 -363h-109l-150 289l-149 -289h-111zM408 94q45 0 76 16.5t48.5 41.5t26.5 71t11.5 88t2.5 109v344q0 67 -2.5 109t-11.5 88t-26.5 71t-48.5 41.5t-76 16.5q-38 0 -66 -10t-46 -32.5t-29 -48t-16.5 -66.5t-7 -77.5t-1.5 -91.5v-344
q0 -55 1.5 -91.5t7 -77.5t16.5 -66.5t29 -48t46 -32.5t66 -10zM408 -19q-91 0 -153 29t-97.5 88t-50.5 138.5t-15 191.5v328q0 226 70 336t246 110q177 0 246.5 -109.5t69.5 -336.5v-328q0 -112 -15 -191.5t-50.5 -138.5t-97.5 -88t-153 -29z" />
    <glyph glyph-name="otilde" unicode="&#xf5;" horiz-adv-x="816" 
d="M514 1325q-44 2 -117 48t-95 48q-31 5 -49 -15.5t-18 -65.5h-94q0 30 7 60t23 60q18 32 52 48q26 13 60 12q10 0 22 -1q33 -3 76 -25.5t80 -45t56 -24.5q34 -4 50 17t17 71h91q0 -34 -6 -63.5t-22 -61t-50 -49.5q-28 -14 -65 -14q-9 0 -18 1zM408 94q45 0 76 16.5
t48.5 41.5t26.5 71t11.5 88t2.5 109v344q0 67 -2.5 109t-11.5 88t-26.5 71t-48.5 41.5t-76 16.5q-38 0 -66 -10t-46 -32.5t-29 -48t-16.5 -66.5t-7 -77.5t-1.5 -91.5v-344q0 -55 1.5 -91.5t7 -77.5t16.5 -66.5t29 -48t46 -32.5t66 -10zM408 -19q-91 0 -153 29t-97.5 88
t-50.5 138.5t-15 191.5v328q0 226 70 336t246 110q177 0 246.5 -109.5t69.5 -336.5v-328q0 -112 -15 -191.5t-50.5 -138.5t-97.5 -88t-153 -29z" />
    <glyph glyph-name="odieresis" unicode="&#xf6;" horiz-adv-x="816" 
d="M163 1324v181h154v-181h-154zM499 1324v181h154v-181h-154zM408 94q45 0 76 16.5t48.5 41.5t26.5 71t11.5 88t2.5 109v344q0 67 -2.5 109t-11.5 88t-26.5 71t-48.5 41.5t-76 16.5q-38 0 -66 -10t-46 -32.5t-29 -48t-16.5 -66.5t-7 -77.5t-1.5 -91.5v-344q0 -55 1.5 -91.5
t7 -77.5t16.5 -66.5t29 -48t46 -32.5t66 -10zM408 -19q-91 0 -153 29t-97.5 88t-50.5 138.5t-15 191.5v328q0 226 70 336t246 110q177 0 246.5 -109.5t69.5 -336.5v-328q0 -112 -15 -191.5t-50.5 -138.5t-97.5 -88t-153 -29z" />
    <glyph glyph-name="divide" unicode="&#xf7;" horiz-adv-x="690" 
d="M280 402v185h129v-185h-129zM53 794v114h584v-114h-584zM280 1091v185h129v-185h-129z" />
    <glyph glyph-name="oslash" unicode="&#xf8;" horiz-adv-x="816" 
d="M408 94q45 0 76 16.5t48.5 41.5t26.5 71t11.5 88t2.5 109v344q-1 67 -3 109q-1 19 -3 38l-280 -762q4 -7 9 -13q18 -22 46 -32t66 -10zM408 -19q-91 0 -153 29l-16 8l-65 -175l-50 18l70 191q-20 20 -36 46q-36 59 -51 138.5t-15 191.5v328q0 226 70 336t246 110
q116 0 186 -47l62 169l56 -19l-71 -193q7 -10 13 -20q70 -110 70 -336v-328q0 -112 -15 -191.5t-50.5 -138.5t-97.5 -88t-153 -29zM543 1013q-5 10 -11 19q-18 25 -48.5 41.5t-75.5 16.5q-38 0 -66 -10t-46 -32.5t-29 -48t-16.5 -66.5t-7 -77.5t-1.5 -91.5v-344q0 -55 2 -92
q0 -36 6 -77q2 -15 5 -29z" />
    <glyph glyph-name="ugrave" unicode="&#xf9;" horiz-adv-x="843" 
d="M378 1324l-189 400h152l114 -400h-77zM288 -18q-89 0 -136 66t-47 187v949h151v-918q0 -90 27 -128t85 -38q101 0 210 116v968h150v-1184h-150v131q-132 -149 -290 -149z" />
    <glyph glyph-name="uacute" unicode="&#xfa;" horiz-adv-x="843" 
d="M378 1324l128 400h150l-201 -400h-77zM288 -18q-89 0 -136 66t-47 187v949h151v-918q0 -90 27 -128t85 -38q101 0 210 116v968h150v-1184h-150v131q-132 -149 -290 -149z" />
    <glyph glyph-name="ucircumflex" unicode="&#xfb;" horiz-adv-x="843" 
d="M157 1324l177 363h168l174 -363h-109l-150 289l-149 -289h-111zM288 -18q-89 0 -136 66t-47 187v949h151v-918q0 -90 27 -128t85 -38q101 0 210 116v968h150v-1184h-150v131q-132 -149 -290 -149z" />
    <glyph glyph-name="udieresis" unicode="&#xfc;" horiz-adv-x="843" 
d="M172 1324v181h154v-181h-154zM508 1324v181h154v-181h-154zM288 -18q-89 0 -136 66t-47 187v949h151v-918q0 -90 27 -128t85 -38q101 0 210 116v968h150v-1184h-150v131q-132 -149 -290 -149z" />
    <glyph glyph-name="yacute" unicode="&#xfd;" horiz-adv-x="780" 
d="M354 1324l128 400h150l-201 -400h-77zM82 -295v117q108 0 162 17t68 48q9 20 10 52q0 17 -3 38q-5 37 -35 164q-24 99 -131 559t-113 484h150l206 -1007l198 1007h151l-287 -1269q-26 -113 -105.5 -161.5t-231.5 -48.5h-39z" />
    <glyph glyph-name="thorn" unicode="&#xfe;" horiz-adv-x="853" 
d="M116 -390v2048h150v-573q95 117 227 117q66 0 115.5 -27t78 -70t46 -107t23 -126.5t5.5 -141.5v-250q0 -94 -8 -168t-28 -137.5t-52.5 -105t-81.5 -65t-114 -23.5q-115 0 -211 113v-484h-150zM453 100q40 0 68 16.5t45.5 45t27.5 77.5t13.5 104.5t3.5 134.5v252
q0 190 -32 272t-129 82q-91 0 -184 -91v-807q82 -86 187 -86z" />
    <glyph glyph-name="ydieresis" unicode="&#xff;" horiz-adv-x="780" 
d="M148 1324v181h154v-181h-154zM484 1324v181h154v-181h-154zM82 -295v117q108 0 162 17t68 48q9 20 10 52q0 17 -3 38q-5 37 -35 164q-24 99 -131 559t-113 484h150l206 -1007l198 1007h151l-287 -1269q-26 -113 -105.5 -161.5t-231.5 -48.5h-39z" />
    <glyph glyph-name="Amacron" unicode="&#x100;" horiz-adv-x="977" 
d="M306 1798v96h367v-96h-367zM56 0l350 1658h164l352 -1658h-153l-82 443h-396l-84 -443h-151zM313 557h353l-177 894z" />
    <glyph glyph-name="amacron" unicode="&#x101;" horiz-adv-x="813" 
d="M216 1324v96h367v-96h-367zM319 -19q-104 0 -171 76.5t-67 189.5q0 59 10 105.5t37.5 87.5t60 72.5t92.5 67t120 65.5t157 73v85q0 163 -31 224.5t-116 61.5q-164 0 -164 -203v-43l-148 5q0 29 1 36q7 167 87 242.5t232 75.5q157 0 223 -93t66 -298v-576q0 -143 11 -235
h-133l-22 164q-27 -78 -91.5 -130.5t-153.5 -52.5zM368 110q60 0 110.5 41.5t79.5 98.5v369q-6 -3 -19 -10q-49 -26 -75 -40t-62.5 -35t-54.5 -35t-41.5 -34t-34 -37.5t-21.5 -40.5t-15 -48.5t-4 -56.5q0 -87 39 -129.5t98 -42.5z" />
    <glyph glyph-name="Imacron" unicode="&#x12a;" horiz-adv-x="454" 
d="M44 1798v96h367v-96h-367zM151 0v1658h154v-1658h-154z" />
    <glyph glyph-name="imacron" unicode="&#x12b;" horiz-adv-x="405" 
d="M22 1324v96h367v-96h-367zM130 0v1184h150v-1184h-150z" />
    <glyph glyph-name="Umacron" unicode="&#x16a;" horiz-adv-x="1100" 
d="M366 1798v96h367v-96h-367zM551 -21q-99 0 -174 23t-122 63.5t-76 101.5t-40.5 129.5t-11.5 156.5v1205h151v-1210q0 -62 7 -111t25 -93.5t48 -74t79 -47t114 -17.5q78 0 132.5 25.5t84 74t42.5 107.5t13 136v1210h150v-1205q0 -87 -12 -156t-42 -130t-77.5 -101.5
t-121 -63.5t-169.5 -23z" />
    <glyph glyph-name="umacron" unicode="&#x16b;" horiz-adv-x="843" 
d="M233 1324v96h367v-96h-367zM288 -18q-89 0 -136 66t-47 187v949h151v-918q0 -90 27 -128t85 -38q101 0 210 116v968h150v-1184h-150v131q-132 -149 -290 -149z" />
    <glyph glyph-name="uni02BC" unicode="&#x2bc;" horiz-adv-x="586" 
d="M167 1174v484h144l-62 -484h-82z" />
    <glyph glyph-name="circumflex" unicode="&#x2c6;" horiz-adv-x="673" 
d="M75 1280l177 378h168l174 -378h-109l-150 304l-149 -304h-111z" />
    <glyph glyph-name="caron" unicode="&#x2c7;" horiz-adv-x="613" 
d="M242 1319l-174 339h120l121 -245l121 245h120l-176 -339h-132z" />
    <glyph glyph-name="uni02C9" unicode="&#x2c9;" horiz-adv-x="1024" 
d="M254 1195v125h516v-125h-516z" />
    <glyph glyph-name="breve" unicode="&#x2d8;" horiz-adv-x="727" 
d="M364 1402q-239 0 -245 256h95q2 -88 40 -127t110 -39t110.5 39t42.5 127h96q-6 -256 -249 -256z" />
    <glyph glyph-name="dotaccent" unicode="&#x2d9;" horiz-adv-x="418" 
d="M-79 122v224h159v-224h-159z" />
    <glyph glyph-name="ring" unicode="&#x2da;" horiz-adv-x="590" 
d="M295 1289q-83 0 -139 51t-56 144t56 143.5t139 50.5t139.5 -51t56.5 -143q0 -93 -56.5 -144t-139.5 -51zM296 1370q49 0 80 29t31 85q0 57 -31.5 85.5t-80.5 28.5t-80 -29t-31 -85t31.5 -85t80.5 -29z" />
    <glyph glyph-name="ogonek" unicode="&#x2db;" horiz-adv-x="465" 
d="M330 -429q-146 0 -218.5 37.5t-72.5 130.5q0 80 56 156.5t130 109.5h81q-152 -163 -152 -259q0 -30 17.5 -50.5t50 -29.5t63 -12t71.5 -3z" />
    <glyph glyph-name="tilde" unicode="&#x2dc;" horiz-adv-x="790" 
d="M499 1471q-44 2 -117 48t-95 48q-31 5 -49 -15.5t-18 -65.5h-94q0 30 7 60t23 60q18 32 52 48q26 13 60 12q10 0 22 -1q33 -3 76 -25.5t80 -45t56 -24.5q34 -4 50 17t17 71h91q0 -34 -6 -63.5t-22 -61t-50 -49.5q-28 -14 -65 -14q-9 0 -18 1z" />
    <glyph glyph-name="hungarumlaut" unicode="&#x2dd;" horiz-adv-x="554" 
d="M164 1345l79 328h135l-135 -328h-79zM374 1345l114 328h162l-195 -328h-81z" />
    <glyph glyph-name="uni1000" unicode="&#x1000;" horiz-adv-x="1300" 
d="M886 -4l-148 189q90 -45 130 -46q86 0 130.5 45t44.5 180v511q0 136 -44 180.5t-131 44.5q-79 0 -123 -44t-44 -180l-1 -524q0 -180 -92 -276q-68 -63 -152 -78l-47 143q59 8 94 43q40 41 43 171l1 524q-1 133 -44.5 177t-130.5 44q-79 0 -123 -44t-44 -180l-1 -513
q0 -135 45 -179q31 -34 86 -42l-45 -144q-84 16 -147 77q-86 80 -93 280l1 530q7 200 93 280.5t230 80.5q166 -1 250 -97q86 97 246 97q150 -1 235 -81.5t92 -280.5l-1 -528q-7 -200 -92 -280q-74 -71 -218 -80z" />
    <glyph glyph-name="uni1001" unicode="&#x1001;" horiz-adv-x="805" 
d="M549 665v211q0 136 -44 180.5t-131 44.5q-79 0 -123 -44t-44 -180v-144l-154 174l5 64q18 132 88 196q86 80 230 80q150 -1 235 -81.5t92 -280.5l-1 -528q-7 -200 -92 -280.5t-235 -81.5q-144 0 -230 80.5t-92 217.5q-1 225 496 372zM372 140q86 0 130.5 45t44.5 180v148
q-104 -27 -187 -67t-124.5 -82t-39 -82t51.5 -97q45 -45 124 -45z" />
    <glyph glyph-name="uni1002" unicode="&#x1002;" horiz-adv-x="800" 
d="M701 876l-1 -524q0 -180 -92 -276q-68 -63 -142 -80l-57 145q59 8 94 43q40 41 43 171l1 524q-1 133 -44.5 177t-130.5 44q-79 0 -123 -44t-44 -180l-1 -513q0 -135 45 -179q36 -36 91 -44l-55 -144q-79 18 -142 79q-86 80 -93 280l1 530q7 200 93 280.5t230 80.5
q166 -1 247.5 -78.5t79.5 -291.5z" />
    <glyph glyph-name="uni1003" unicode="&#x1003;" horiz-adv-x="1299" 
d="M15 1171q72 66 146 66q70 0 106.5 -26t52 -60t15.5 -97q0 -38 -13 -78q-45 -82 -113 -162l1 -443q0 -136 44 -180t123 -44q87 0 130.5 44t44.5 177l-1 524q-3 130 -43 171q-35 35 -94 43l47 143q84 -15 152 -78q92 -96 92 -276l1 -524q0 -136 44 -180t123 -44
q87 0 131 44.5t44 180.5v511q0 135 -44.5 180t-130.5 45q-40 -1 -130 -46l148 189q144 -9 218 -80q85 -80 92 -280l1 -528q-7 -200 -92 -280.5t-235 -81.5q-160 0 -246 97q-84 -96 -250 -97q-144 0 -230 80.5t-93 280.5l-1 460l119 150q30 50 30 81q0 41 -50 51
q-73 -5 -139 -86v153z" />
    <glyph glyph-name="uni1004" unicode="&#x1004;" horiz-adv-x="798" 
d="M700 338v-1q-7 -180 -92 -260.5t-235 -81.5q-144 0 -230 80.5t-93 280.5l1 530q7 200 93 280.5t230 80.5q150 -1 235 -81.5t92 -260.5v-7l-154 -168v166q0 116 -44 160.5t-131 44.5q-79 0 -123 -44t-44 -180l-1 -513q0 -135 44.5 -179.5t123.5 -44.5q86 0 130.5 45
t44.5 160v161z" />
    <glyph glyph-name="uni1005" unicode="&#x1005;" horiz-adv-x="798" 
d="M371 -5q-144 0 -230 80q-94 88 -94 317q0 116 42.5 186.5t142.5 134.5q-184 86 -184 249v4q8 120 94 200.5t230 80.5q150 -1 235 -81.5t92 -280.5l-1 -528q-7 -200 -92 -280.5t-235 -81.5zM370 140q86 0 130.5 45t44.5 180v511q0 136 -44 180.5t-131 44.5
q-79 0 -122.5 -42t-43.5 -101q0 -136 228 -149v-178q-230 -43 -230 -263q0 -139 44.5 -183.5t123.5 -44.5z" />
    <glyph glyph-name="uni1006" unicode="&#x1006;" horiz-adv-x="1301" 
d="M372 140q86 0 130.5 45t44.5 180v148q-104 -27 -187 -67t-123 -80.5t-40 -78.5q0 -2 1 -23.5t50 -78.5q45 -45 124 -45zM872 140q86 0 130.5 45t44.5 180v511q0 136 -44 180.5t-131 44.5q-79 0 -123 -44t-44 -180l-1 -513q0 -135 44.5 -179.5t123.5 -44.5zM873 -5
q-144 0 -230 81q-9 8 -17 18q-8 -10 -16 -17q-85 -81 -235 -82q-144 0 -230 80.5t-92 217.5v1q0 224 496 371v211q0 136 -44 180.5t-131 44.5q-79 0 -123 -44t-44 -180v-144l-154 174l5 64q18 132 88 196q86 80 230 80q150 -1 235 -81q8 -8 16 -18q8 10 17 19q86 80 230 80
q150 -1 235 -81.5t92 -280.5l-1 -528q-7 -200 -92 -280.5t-235 -81.5z" />
    <glyph glyph-name="uni1007" unicode="&#x1007;" horiz-adv-x="798" 
d="M373 -5q-144 0 -230 80.5t-93 280.5l1 530q7 200 93 280.5t230 80.5q150 -1 235 -81.5t96 -170.5q3 -31 3 -58q0 -49 -15.5 -88t-45.5 -57v-4q0 -35 119 -75q-51 -76 -146 -80q-60 42 -91 104q-48 -10 -86 -10q-47 0 -88 21.5t-65 65t-24 105.5q0 94 106 182
q-79 0 -123 -44t-44 -180l-1 -513q0 -135 44.5 -179.5t123.5 -44.5q86 0 130.5 45t44.5 160v161l153 -168v-1q-7 -180 -92 -260.5t-235 -81.5zM465 857q35 0 85 19l1 34q-4 89 -28.5 123t-34.5 42q-100 -52 -108 -119q-5 -54 40 -88q18 -11 45 -11z" />
    <glyph glyph-name="uni1008" unicode="&#x1008;" horiz-adv-x="1056" 
d="M375 140q86 0 130.5 45t44.5 180v511q0 136 -44 180.5t-131 44.5q-79 0 -122.5 -42t-43.5 -101q0 -136 228 -149v-178q-230 -42 -230 -263q0 -139 44.5 -183.5t123.5 -44.5zM486 9q-50 -14 -110 -14q-144 0 -230 80q-94 88 -94 317q0 116 42.5 186.5t142.5 134.5
q-184 86 -184 249v4q8 120 94 200.5t230 80.5q150 -1 235 -81.5t92 -280.5l-1 -528q-5 -155 -58 -239v-492l153 -91v1708h153v-1794l-170 -112q-172 125 -295 201v471z" />
    <glyph glyph-name="uni1009" unicode="&#x1009;" horiz-adv-x="795" 
d="M207 32v-544h700v228h154v-164q0 -109 -27.5 -156.5t-95.5 -47.5h-775q-52 0 -79.5 25.5t-30.5 53.5v860q-1 24 -2 51l153 168v-161q0 -115 44.5 -160t130.5 -45q79 0 123.5 44.5t44.5 179.5l-1 513q0 136 -44 180t-123 44q-87 0 -131 -44.5t-44 -160.5v-166l-154 168v7
q7 180 92 260.5t235 81.5q144 0 230 -80.5t93 -280.5l1 -530q-7 -200 -93 -280.5t-230 -80.5q-100 1 -171 37z" />
    <glyph glyph-name="uni100A" unicode="&#x100a;" horiz-adv-x="1275" 
d="M1079 -652h-915q-52 0 -79.5 25.5t-30.5 53.5v800q2 29 2 63l-1 48l153 168v-161q0 -115 44.5 -160t130.5 -45q79 0 123.5 44.5t44.5 179.5l-1 513q0 136 -44 180t-123 44q-87 0 -131 -44.5t-44 -160.5v-166l-154 168v7q7 180 92 260.5t235 81.5q144 0 230 -80.5
t93 -280.5l1 -515h2q0 -136 44 -180t123 -44q87 0 131 44.5t44 180.5v511q0 135 -44.5 180t-130.5 45q-40 -1 -130 -46l148 189q144 -9 218 -80q85 -80 92 -280l1 -528q-7 -200 -92 -280.5t-235 -81.5q-159 0 -245 96q-9 -12 -19 -21q-86 -81 -230 -81q-102 1 -174 38v-545
h840v228h154v-164q0 -109 -27.5 -156.5t-95.5 -47.5z" />
    <glyph glyph-name="uni100B" unicode="&#x100b;" horiz-adv-x="846" 
d="M639 -660q-66 0 -98 75v173h-336l-19 -1q-106 0 -139 95v274q15 31 44 69q33 -73 139 -87h311v94q-71 -36 -171 -37q-144 0 -230 80.5t-93 280.5l1 530q7 200 93 280.5t230 80.5q150 -1 235 -81.5t92 -260.5v-7l-154 -168v166q0 116 -44 160.5t-131 44.5q-79 0 -123 -44
t-44 -180l-1 -513q0 -135 44.5 -179.5t123.5 -44.5q86 0 130.5 45t44.5 160v161l153 -168q-2 -54 -2 -461q-3 -28 -30.5 -53.5t-79.5 -25.5h-385v-71h448q35 -2 46 -33v-177q5 -25 20 -25q7 0 15 5q16 20 25 58l51 -139q-100 -76 -166 -76z" />
    <glyph glyph-name="uni100C" unicode="&#x100c;" horiz-adv-x="795" 
d="M541 32q-71 -36 -171 -37q-144 0 -230 80.5t-93 280.5l1 530q7 200 93 280.5t230 80.5q150 -1 235 -81.5t92 -260.5v-7l-154 -168v166q0 116 -44 160.5t-131 44.5q-79 0 -123 -44t-44 -180l-1 -513q0 -135 44.5 -179.5t123.5 -44.5q86 0 130.5 45t44.5 160v161l153 -168
q-1 -27 -2 -51v-860q-3 -28 -30.5 -53.5t-79.5 -25.5h-412q-68 0 -95.5 47.5t-27.5 156.5v164h154v-228h337v544z" />
    <glyph glyph-name="uni100D" unicode="&#x100d;" horiz-adv-x="804" 
d="M643 -661q-66 0 -99 75v346q-336 0 -355 -1q-105 0 -139 95q0 434 -2 488l153 168v-161q0 -115 44.5 -160t130.5 -45q79 0 123.5 44.5t44.5 179.5l-1 513q0 136 -44 180t-123 44q-87 0 -131 -44.5t-44 -160.5v-166l-154 168v7q7 180 92 260.5t235 81.5q144 0 230 -80.5
t93 -280.5l1 -530q-7 -200 -93 -280.5t-230 -80.5q-100 0 -171 36v-136h315q117 0 178 114v-497q5 -24 21 -24q6 0 14 4q16 20 25 58l51 -139q-99 -76 -165 -76z" />
    <glyph glyph-name="uni100E" unicode="&#x100e;" horiz-adv-x="800" 
d="M379 1q-144 0 -230 80.5t-93 280.5l-1 460l119 150q30 50 30 81q0 41 -50 51q-73 -5 -139 -86v153q72 66 146 66q70 0 106.5 -26t52 -60t15.5 -97q0 -38 -13 -78q-45 -82 -113 -162l1 -443q0 -136 44 -180t123 -44q87 0 130.5 44t44.5 177l-1 524q-3 130 -43 171
q-35 35 -94 43l47 143q84 -15 152 -78q92 -96 92 -276l1 -550q0 -90 -19 -147t-58 -100q-84 -96 -250 -97z" />
    <glyph glyph-name="uni100F" unicode="&#x100f;" horiz-adv-x="1647" 
d="M806 143q43 0 70.5 30t27.5 74v755q0 31 -29.5 63t-72.5 32q-44 0 -71.5 -27t-27.5 -65v-754q0 -44 29.5 -76t73.5 -32zM1321 -5l-57 145q59 8 94 43q40 41 43 171l1 524q-1 133 -44.5 177t-130.5 44q-79 0 -123 -44t-44 -180l-1 -526q0 -351 -257 -351q-256 0 -259 357
l1 524q-1 133 -44.5 177t-130.5 44q-79 0 -123 -44t-44 -180l-1 -513q0 -135 45 -179q36 -36 91 -44l-55 -144q-79 18 -142 79q-86 80 -93 280l1 530q7 200 93 280.5t230 80.5q166 -1 248 -79q4 -3 7 -7q64 91 173 91q85 0 146 -58q22 -22 36 -47q89 99 248 99
q166 -1 246.5 -77.5t80.5 -281.5l-1 -534q0 -181 -92 -277q-68 -63 -142 -80z" />
    <glyph glyph-name="uni1010" unicode="&#x1010;" horiz-adv-x="1297" 
d="M608 77q-85 -81 -235 -82q-144 0 -230 80.5t-93 280.5l1 530q7 200 93 280.5t230 80.5q150 -1 235 -81q8 -8 15 -16q8 9 16 17q86 80 230 80q150 -1 235 -81.5t92 -280.5l-1 -528q-7 -200 -92 -280q-99 -77 -203 -80l-129 187q59 -42 96 -44q86 0 130.5 45t44.5 180v511
q0 136 -44 180.5t-131 44.5q-79 0 -123 -44t-44 -180l-1 -516q-3 -123 -28.5 -185.5t-63.5 -98.5zM546 356l1 524q-1 133 -44 177q-44 44 -131 44q-79 0 -123 -44t-44 -180l-1 -513q0 -135 44.5 -179.5t123.5 -44.5q86 0 131 45q40 41 43 171z" />
    <glyph glyph-name="uni1011" unicode="&#x1011;" horiz-adv-x="1297" 
d="M700 361q1 -133 45 -176q44 -45 123 -45q86 0 130.5 45t44.5 180v511q0 136 -44 180.5t-131 44.5q-79 0 -123 -44t-44 -180zM546 356l1 524q-1 133 -44 177q-44 44 -131 44q-79 0 -123 -44t-44 -180l-1 -513q0 -135 44.5 -179.5t123.5 -44.5q86 0 131 45q40 41 43 171z
M623 92q-7 -8 -15 -15q-85 -81 -235 -82q-144 0 -230 80.5t-93 280.5l1 530q7 200 93 280.5t230 80.5q150 -1 235 -81q8 -8 15 -16q8 9 16 17q86 80 230 80q150 -1 235 -81.5t92 -280.5l-1 -528q-7 -200 -92 -280.5t-235 -81.5q-144 0 -230 81q-8 7 -16 16z" />
    <glyph glyph-name="uni1012" unicode="&#x1012;" horiz-adv-x="798" 
d="M51 338l153 168v-161q0 -115 44.5 -160t130.5 -45q79 0 123.5 44.5t44.5 179.5q-70 136 -240 193l-1 114q146 61 240 206q0 136 -44 180t-123 44q-87 0 -131 -44.5t-44 -160.5v-166l-154 168v7q7 180 92 260.5t235 81.5q144 0 230 -80.5t93 -280.5q-15 -179 -199 -266
q179 -77 200 -264q-7 -200 -93 -280.5t-230 -80.5q-150 1 -235 81.5t-92 260.5v1z" />
    <glyph glyph-name="uni1013" unicode="&#x1013;" horiz-adv-x="798" 
d="M372 140q86 0 130.5 45t44.5 180v30q-84 67 -170 67q-85 0 -173 -67v-31q0 -135 44.5 -179.5t123.5 -44.5zM547 532v344q0 136 -44 180.5t-131 44.5q-79 0 -123 -44t-44 -180l-1 -345q89 65 175 65t168 -65zM373 -5q-144 0 -230 80.5t-93 280.5l1 530q7 200 93 280.5
t230 80.5q150 -1 235 -81.5t92 -280.5l-1 -528q-7 -200 -92 -280.5t-235 -81.5z" />
    <glyph glyph-name="uni1014" unicode="&#x1014;" horiz-adv-x="906" 
d="M432 143q-15 22 -124 59q-66 28 -121 28q-42 0 -55 -40q0 -21 24.5 -34t61.5 -13h214zM544 -651h-154v651h-192q-140 7 -189 159q-3 23 -3 43q0 44 13 76q64 93 160 93q79 0 180 -63q115 -68 157 -166h110l-578 940q41 108 146 143h460q117 -66 117 -197v-11
q-14 -136 -143 -136q-82 0 -164 66h23q144 0 144 73q0 25 -16 57h-372l589 -966l-71 -111h-217v-651z" />
    <glyph glyph-name="uni1015" unicode="&#x1015;" horiz-adv-x="800" 
d="M374 -4q-144 0 -230 80.5t-93 280.5l-1 530q7 200 93 280q63 61 142 79l55 -144q-55 -8 -91 -44q-45 -44 -45 -179l1 -513q0 -136 44 -180t123 -44q87 0 130.5 44t44.5 177l-1 524q-3 130 -43 171q-35 35 -94 43l57 145q74 -17 142 -80q92 -96 92 -276l1 -534
q0 -206 -80.5 -282.5t-246.5 -77.5z" />
    <glyph glyph-name="uni1016" unicode="&#x1016;" horiz-adv-x="800" 
d="M374 -4q-144 0 -230 80.5t-93 280.5l-1 530q7 200 93 280q63 61 142 79l55 -144q-55 -8 -91 -44q-45 -44 -45 -179l1 -513q0 -136 44 -180t123 -44q87 0 130.5 44t44.5 177v247h-2q-157 0 -173 123v372l85 137q90 -14 151 -76q92 -96 92 -276l1 -534q0 -206 -80.5 -282.5
t-246.5 -77.5zM547 701v325q0 66 -71 77v-318q3 -84 68 -84h3z" />
    <glyph glyph-name="uni1017" unicode="&#x1017;" horiz-adv-x="800" 
d="M374 -4q-144 0 -230 80.5t-93 280.5l-1 530q7 200 93 280q63 61 142 81l40 -149v-360q0 -60 46 -68q54 7 54 68l1 360l43 149q71 -19 139 -82q92 -96 92 -276l1 -534q0 -206 -80.5 -282.5t-246.5 -77.5zM372 142q87 0 130.5 44t44.5 177l-1 524q-3 156 -56 189
q-1 0 -4 -2.5t-4 -351.5q-22 -113 -110 -113q-89 0 -111 115l-1 324q0 24 -3 24q-53 -33 -53 -193l1 -513q0 -136 44 -180t123 -44z" />
    <glyph glyph-name="uni1018" unicode="&#x1018;" horiz-adv-x="1304" 
d="M631 1149q86 96 245 96q150 -1 235 -81.5t92 -280.5l-1 -528q-7 -200 -92 -280q-74 -71 -218 -80l-148 189q90 -45 130 -46q86 0 130.5 45t44.5 180v511q0 136 -44 180.5t-131 44.5q-79 0 -123 -44t-44 -180h-2l-1 -515q-7 -200 -93 -280.5t-230 -80.5q-150 1 -235 81.5
t-92 260.5v7l154 168v-166q0 -116 44 -160.5t131 -44.5q79 0 123 44t44 180l1 513q0 135 -44.5 179.5t-123.5 44.5q-86 0 -130.5 -45t-44.5 -160v-161l-153 168v1q7 180 92 260.5t235 81.5q144 0 230 -81q10 -9 19 -21z" />
    <glyph glyph-name="uni1019" unicode="&#x1019;" horiz-adv-x="798" 
d="M372 140q86 0 130.5 45t44.5 180v30q-84 67 -170 67q-85 0 -173 -67v-31q0 -135 44.5 -179.5t123.5 -44.5zM51 727v160q7 200 93 280q63 61 142 79l55 -144q-55 -8 -91 -44q-45 -44 -45 -179l1 -346q88 64 173 64q86 0 168 -65v355q-3 130 -43 171q-35 35 -94 43l57 145
q74 -17 142 -80q92 -96 92 -276l1 -380h-2v-153q-7 -200 -92 -280.5t-235 -81.5q-144 0 -230 80.5t-93 280.5z" />
    <glyph glyph-name="uni101A" unicode="&#x101a;" horiz-adv-x="1300" 
d="M886 1246q144 -9 218 -80q85 -80 92 -280l1 -528q-7 -200 -92 -280.5t-235 -81.5q-160 0 -246 97q-84 -96 -250 -97q-144 0 -230 80.5t-93 280.5l-1 530q7 200 93 280q63 61 147 77l45 -144q-55 -8 -86 -42q-45 -44 -45 -179l1 -513q0 -136 44 -180t123 -44
q87 0 130.5 44t44.5 177l-1 524q-3 130 -43 171q-35 35 -94 43l47 143q84 -15 152 -78q92 -96 92 -276l1 -524q0 -136 44 -180t123 -44q87 0 131 44.5t44 180.5v511q0 135 -44.5 180t-130.5 45q-40 -1 -130 -46z" />
    <glyph glyph-name="uni101B" unicode="&#x101b;" horiz-adv-x="840" 
d="M614 -652q-70 35 -70 137l1 1394q-1 133 -44.5 177t-130.5 44q-79 0 -123 -44t-44 -180v-262q138 -99 179 -171q58 -105 58 -233q0 -39 -9.5 -89.5t-49.5 -94.5q-30 -33 -67 -33q-12 0 -25 3q-85 18 -148 79q-86 80 -93 280l1 530q7 200 93 280.5t230 80.5
q166 -2 248 -80q79 -74 79 -275l-3 -1401l132 -1v-140zM276 143q21 0 41.5 30.5t20.5 88.5q0 8 -1.5 47t-20 92t-114.5 138l1 -258q7 -75 29.5 -106.5t43.5 -31.5z" />
    <glyph glyph-name="uni101C" unicode="&#x101c;" horiz-adv-x="1297" 
d="M869 -5q-144 0 -230 81q-93 73 -93 252l1 552q-1 133 -44.5 177t-130.5 44q-79 0 -123 -44t-44 -180l-1 -513q0 -135 44.5 -179.5t131.5 -44.5q41 0 85 20l-185 -155q-81 18 -137 71q-86 80 -93 280l1 530q7 200 93 280.5t230 80.5q150 -1 235 -81q93 -75 93 -253
q-1 -36 -2 -552q1 -133 45 -177t123 -44q86 0 130.5 45t44.5 180v511q0 136 -44 180.5t-131 44.5q-38 -3 -104 -25l136 175q118 -10 205 -85q85 -81 92 -281l-1 -528q-7 -200 -92 -280.5t-235 -81.5z" />
    <glyph glyph-name="uni101D" unicode="&#x101d;" horiz-adv-x="798" 
d="M373 -5q-144 0 -230 80.5t-93 280.5l1 530q7 200 93 280.5t230 80.5q150 -1 235 -81.5t92 -280.5l-1 -528q-7 -200 -92 -280.5t-235 -81.5zM372 140q86 0 130.5 45t44.5 180v511q0 136 -44 180.5t-131 44.5q-79 0 -123 -44t-44 -180l-1 -513q0 -135 44.5 -179.5
t123.5 -44.5z" />
    <glyph glyph-name="uni101E" unicode="&#x101e;" horiz-adv-x="1304" 
d="M631 97q-9 -12 -19 -21q-86 -81 -230 -81q-150 1 -235 81.5t-92 260.5v1l153 168v-161q0 -115 44.5 -160t130.5 -45q79 0 123.5 44.5t44.5 179.5l-1 513q0 136 -44 180t-123 44q-87 0 -131 -44.5t-44 -160.5v-166l-154 168v7q7 180 92 260.5t235 81.5q144 0 230 -80.5
t93 -280.5l1 -515h2q0 -136 44 -180t123 -44q87 0 131 44.5t44 180.5v511q0 135 -44.5 180t-130.5 45q-40 -1 -130 -46l148 189q144 -9 218 -80q85 -80 92 -280l1 -528q-7 -200 -92 -280.5t-235 -81.5q-159 0 -245 96z" />
    <glyph glyph-name="uni101F" unicode="&#x101f;" horiz-adv-x="1297" 
d="M332 1099q-48 -7 -83 -42q-44 -44 -44 -180l-1 -513q0 -135 44.5 -179.5t123.5 -44.5q86 0 131 45q40 41 43 171l1 524q-1 133 -44 177q-36 36 -90 42l59 144q79 -22 137 -77q8 -8 15 -16q8 9 16 17q86 80 230 80q150 -1 235 -81.5t92 -280.5l-1 -528q-7 -200 -92 -280
q-99 -77 -203 -80l-129 187q59 -42 96 -44q86 0 130.5 45t44.5 180v511q0 136 -44 180.5t-131 44.5q-79 0 -123 -44t-44 -180l-1 -516q-3 -123 -28.5 -185.5t-63.5 -98.5q-85 -81 -235 -82q-144 0 -230 80.5t-93 280.5l1 530q7 200 93 281q60 55 138 77z" />
    <glyph glyph-name="uni1020" unicode="&#x1020;" horiz-adv-x="819" 
d="M188 -653q-106 0 -139 95v514q15 31 44 69q33 -73 139 -87h311v94q-71 -36 -171 -37q-144 0 -230 80.5t-93 280.5l1 530q7 200 93 280.5t230 80.5q150 -1 235 -81.5t92 -260.5v-7l-154 -168v166q0 116 -44 160.5t-131 44.5q-79 0 -123 -44t-44 -180l-1 -513
q0 -135 44.5 -179.5t123.5 -44.5q86 0 130.5 45t44.5 160v161l153 -168q-2 -54 -2 -461q-3 -28 -30.5 -53.5t-79.5 -25.5h-385v-311h240q91 0 91 117l-2 33l167 -172q-34 -100 -136 -117h-355z" />
    <glyph glyph-name="uni1021" unicode="&#x1021;" horiz-adv-x="1299" 
d="M971 142q21 0 43.5 31.5t29.5 106.5l1 148q-130 -65 -137 -167q0 -58 21 -88.5t42 -30.5zM699 878q-18 -173 -198 -258q179 -77 200 -264q-7 -200 -93 -280.5t-230 -80.5q-150 1 -235 81.5t-92 260.5v1l153 168v-161q0 -115 44.5 -160t130.5 -45q79 0 123.5 44.5
t44.5 179.5q-70 136 -240 193l-1 114q146 61 240 206q0 136 -44 180t-123 44q-87 0 -131 -44.5t-44 -160.5v-166l-154 168v7q7 180 92 260.5t235 81.5q144 0 230 -80l11 -11q4 5 9 9q82 78 248 80q144 0 230 -80.5t93 -280.5l1 -530q-7 -200 -93 -280q-63 -61 -148 -79
q-13 -3 -25 -3q-38 0 -67 33q-40 44 -49.5 94.5t-9.5 89.5q0 128 59 186.5t178 107.5v372q0 136 -44 180t-123 44q-87 0 -130.5 -44t-44.5 -177h-3z" />
    <glyph glyph-name="uni1022" unicode="&#x1022;" horiz-adv-x="1300" 
d="M886 -4l-148 189q90 -45 130 -46q86 0 130.5 45t44.5 180v511q0 136 -44 180.5t-131 44.5q-79 0 -123 -44t-44 -180l-1 -524q0 -180 -92 -276q-68 -63 -152 -78l-47 143q59 8 94 43q40 41 43 171l1 524q-1 133 -44.5 177t-130.5 44q-79 0 -123 -44t-44 -180l-1 -288
q25 -222 200 -229v-103q-188 -21 -200 -173v-83h-156v83q16 220 142 237q-140 28 -140 306l1 259q7 200 93 280.5t230 80.5q166 -1 250 -97q86 97 246 97q150 -1 235 -81.5t92 -280.5l-1 -528q-7 -200 -92 -280q-74 -71 -218 -80z" />
    <glyph glyph-name="uni1023" unicode="&#x1023;" horiz-adv-x="1302" 
d="M884 -24l-148 189q90 -46 130 -46q86 0 130.5 45t44.5 180v511q0 136 -44 180.5t-131 44.5q-79 0 -123 -44t-44 -180l-1 -524q0 -180 -92 -276q-68 -63 -152 -78l-47 143q59 8 94 43q40 41 43 171l1 524q-1 133 -44.5 177t-130.5 44q-79 0 -123 -44t-44 -180l-1 -513
q0 -135 45 -179q31 -34 86 -42l-45 -144q-84 16 -147 77q-86 80 -93 280l1 530q7 200 93 280.5t230 80.5q166 -1 250 -97q86 97 246 97q150 -1 235 -81.5t92 -280.5l-1 -528q-7 -200 -92 -280q-74 -71 -218 -80zM1268 -652h-169q-96 39 -99 124q8 111 8 197q0 170 -167 170
q-74 0 -116 -44t-42 -132v-33q0 -144 -88 -210q-41 -36 -97 -54l-64 117q38 11 64 37q43 44 43 148q0 171 -167 171q-74 0 -116 -44t-42 -132q0 -145 95 -178l-60 -117q-170 59 -177 292q12 308 302 308q153 -1 235 -90q76 90 232 90q140 -1 223 -77.5t83 -232.5
q-2 -34 -2 -68l2 -73q5 -28 35 -28l15 1h69v-142z" />
    <glyph glyph-name="uni1024" unicode="&#x1024;" horiz-adv-x="1587" 
d="M1086 -652h-915q-68 0 -95.5 47.5t-27.5 156.5v164h154v-228h840v1367q0 136 -44 180.5t-131 44.5q-79 0 -123 -44t-44 -180l-1 -524q0 -180 -92 -276q-68 -63 -152 -78l-47 143q59 8 94 43q40 41 43 171l1 524q-1 133 -44.5 177t-130.5 44q-79 0 -123 -44t-44 -180
l-1 -513q0 -135 45 -179q31 -34 86 -42l-45 -144q-84 16 -147 77q-86 80 -93 280l1 530q7 200 93 280.5t230 80.5q166 -1 250 -97q86 97 246 97q150 -1 235 -81.5t92 -280.5v-1437q-3 -28 -30.5 -53.5t-79.5 -25.5zM1470 -652h-154v1792q-11 88 -67 113q-25 0 -60 -2
q-135 0 -215.5 75t-85.5 237q12 308 302 308q140 -1 224 -78q15 -14 27 -31l-106 -204q4 31 4 55q0 129 -151 129q-74 0 -116 -44t-42 -132q0 -187 158 -187q22 3 46 3q44 0 92 -11q135 -53 144 -231v-1792z" />
    <glyph glyph-name="uni1025" unicode="&#x1025;" horiz-adv-x="795" 
d="M207 32v-544h340v228h154v-164q0 -109 -27.5 -156.5t-95.5 -47.5h-415q-52 0 -79.5 25.5t-30.5 53.5v860q-1 24 -2 51l153 168v-161q0 -115 44.5 -160t130.5 -45q79 0 123.5 44.5t44.5 179.5l-1 513q0 136 -44 180t-123 44q-87 0 -131 -44.5t-44 -160.5v-166l-154 168v7
q7 180 92 260.5t235 81.5q144 0 230 -80.5t93 -280.5l1 -530q-7 -200 -93 -280.5t-230 -80.5q-100 1 -171 37z" />
    <glyph glyph-name="uni1026" unicode="&#x1026;" horiz-adv-x="795" 
d="M207 32v-544h340v228h154v-164q0 -109 -27.5 -156.5t-95.5 -47.5h-415q-52 0 -79.5 25.5t-30.5 53.5v860q-1 24 -2 51l153 168v-161q0 -115 44.5 -160t130.5 -45q79 0 123.5 44.5t44.5 179.5l-1 513q0 136 -44 180t-123 44q-87 0 -131 -44.5t-44 -160.5v-166l-154 168v7
q7 180 92 260.5t235 81.5q144 0 230 -80.5t93 -280.5l1 -530q-7 -200 -93 -280.5t-230 -80.5q-100 1 -171 37zM534 1570v31l-1 24q-13 143 -166 143q-74 0 -117 -45q-33 -35 -40 -98q-1 -12 -1 -55q85 60 166 60t159 -60zM367 1405q108 0 145 74q-67 65 -138 65
q-70 0 -144 -65q37 -74 137 -74zM368 1277q-135 0 -215.5 75t-85.5 237q12 308 302 308q140 -1 223 -77.5t83 -230.5v-4q-8 -165 -87.5 -236t-219.5 -72z" />
    <glyph glyph-name="uni1027" unicode="&#x1027;" horiz-adv-x="798" 
d="M481 846q22 13 45.5 36.5t23.5 78.5q0 54 -31.5 96t-131.5 42l4 -96q3 -71 24.5 -107.5t65.5 -49.5zM481 398q-44 -13 -65.5 -49.5t-24.5 -107.5l-4 -96q100 0 131.5 42t31.5 96q0 55 -23.5 78.5t-45.5 36.5zM51 798v88q7 200 93 280.5t230 80.5q150 -1 235 -81.5
t92 -260.5q-54 -153 -203 -216q-96 44 -139.5 110.5t-47.5 130.5q-2 23 -2 51q0 51 6 118q-110 -42 -110 -219l-1 -258l1 -258q0 -177 110 -219q-5 68 -5 118q0 28 1 51q4 64 47.5 130.5t139.5 110.5q149 -63 203 -216q-7 -180 -92 -260.5t-235 -81.5q-144 0 -230 80.5
t-93 280.5v88h-1v352h1z" />
    <glyph glyph-name="uni1028" unicode="&#x1028;" horiz-adv-x="798" 
d="M547 936q0 76 -44 120.5t-131 44.5q-79 0 -123 -44t-44 -180l-1 -1163q0 -135 44.5 -179.5t123.5 -44.5q86 0 130.5 45t44.5 160v161l153 -168v-1q-7 -180 -92 -260.5t-235 -81.5q-144 0 -230 80.5t-93 280.5l1 1180q7 200 93 280.5t230 80.5q150 -1 235 -81.5t92 -220.5
v-310q4 -77 -10 -151t-123 -128q-105 -36 -214 10t-116 159l-1 41l119 150q30 50 30 81q0 41 -50 51q-73 -5 -109 -56v153q42 36 116 36q70 0 106.5 -26t52 -60t15.5 -97q0 -38 -13 -78q-45 -82 -113 -162l1 -32q43 -41 99 -22.5t57 67t-1 82.5v283z" />
    <glyph glyph-name="uni1029" unicode="&#x1029;" horiz-adv-x="1567" 
d="M1313 -653l-1108 1l-15 -1q-123 0 -142 140v2265q0 147 136 147l577 -1l574 1q126 0 128 -150v-246h-146v248h-1113v-2261h1109l4 552q-73 -40 -179 -41q-159 0 -245 96q-83 -102 -249 -102q-150 1 -235 81.5t-92 260.5v1l153 168v-161q0 -115 44.5 -160t130.5 -45
q79 0 123.5 44.5t44.5 179.5l-1 513q0 136 -44 180t-123 44q-87 0 -131 -44.5t-44 -160.5v-166l-154 168v7q7 180 92 260.5t235 81.5q144 0 230 -80.5t93 -280.5l1 -515h2q0 -136 44 -180t123 -44q87 0 131 44.5t44 180.5v511q0 135 -44.5 180t-130.5 45q-40 -1 -130 -46
l148 189q144 -9 218 -80q85 -80 92 -280l1 -528q-2 -38 -2 -874v-9q0 -132 -150 -133z" />
    <glyph glyph-name="uni102A" unicode="&#x102a;" horiz-adv-x="2666" 
d="M209 553v-188q0 -135 59.5 -196.5t131.5 31.5t3.5 204.5t-194.5 148.5zM530 915q-6 108 -32 147q-37 39 -116 39q-87 0 -131 -44.5t-44 -180.5v-201q347 -157 346 -382q6 -141 -56 -219.5t-166 -73.5q-100 -4 -185 76.5t-92 280.5l-1 528q7 200 92 280.5t235 81.5
q85 0 167 -36zM2049 1503h-145v248h-1113v-2261h1109l4 552q-73 -40 -179 -41q-159 0 -245 96q-83 -102 -249 -102q-150 1 -235 81.5t-92 260.5v1l153 168v-161q0 -115 44.5 -160t130.5 -45q79 0 123.5 44.5t44.5 179.5l-1 513q0 136 -44 180t-123 44q-87 0 -131 -44.5
t-44 -160.5v-166l-154 168v7q7 180 92 260.5t235 81.5q144 0 230 -80.5t93 -280.5l1 -515h2q0 -136 44 -180t123 -44q87 0 131 44.5t44 180.5v511q0 135 -44.5 180t-130.5 45q-40 -1 -130 -46l148 189q141 -9 215 -77q130 76 259 76q150 -1 235 -81.5t92 -280.5l-1 -528
q-7 -200 -92 -280q-99 -77 -203 -80l-129 187q59 -42 96 -44q86 0 130.5 45t44.5 180v511q0 136 -44 180.5t-131 44.5q-79 0 -123 -44q-18 -17 -47 -76q6 -43 8 -93l1 -528q-2 -38 -2 -874v-8q0 -133 -150 -134l-1108 1h-15q-123 0 -142 139v2265q0 147 136 147l577 -1
l574 1q126 0 128 -150v-73q46 222 292 222q140 -1 224 -78q9 -8 17 -18l-81 -149q-9 45 -36 72q-44 44 -126 44q-74 0 -117 -45t-41 -139q1 -93 42.5 -136t115.5 -43q57 0 95 21l-97 -149q-133 1 -212 75q-57 53 -77 150z" />
    <glyph glyph-name="uni102B" unicode="&#x102b;" horiz-adv-x="293" 
d="M39 1625q1 54 -38.5 90t-115.5 35q-72 -7 -107 -48.5t-35 -116.5q-1 -77 39.5 -118.5t132.5 -49.5l-26 -11l-139 -102q-43 18 -76 49q-81 75 -86 237q12 308 302 308q140 -1 223 -78q66 -61 81 -170v-37v-1611h-154l-1 1576v47z" />
    <glyph glyph-name="uni102C" unicode="&#x102c;" horiz-adv-x="555" 
d="M-164 1122q121 119 283 118q150 -1 235 -81.5t92 -280.5l-1 -528q-7 -200 -92 -280q-99 -77 -203 -80l-157 213q73 -60 124 -70q86 0 130.5 45t44.5 180v511q0 136 -44 180.5t-131 44.5q-79 0 -131.5 -40t-82.5 -164z" />
    <glyph glyph-name="uni102D" unicode="&#x102d;" 
d="M-441 1277q-135 0 -215.5 75t-85.5 237q12 308 302 308q140 -1 223.5 -78t82.5 -234q-8 -165 -87.5 -236t-219.5 -72zM-442 1405q81 0 123.5 43.5t43.5 137.5q3 94 -41 138t-126 44q-74 0 -117 -45t-41 -139q1 -93 42.5 -136t115.5 -43z" />
    <glyph glyph-name="uni102E" unicode="&#x102e;" 
d="M-277 1570v31l-1 24q-13 143 -166 143q-74 0 -117 -45q-33 -35 -40 -98q-1 -12 -1 -55q84 59 166 59q81 0 159 -59zM-444 1405q108 0 145 74q-68 64 -138 64q-71 0 -144 -64q37 -74 137 -74zM-443 1277q-135 0 -215.5 75t-85.5 237q12 308 302 308q140 -1 223 -77.5
t83 -230.5v-4q-8 -165 -87.5 -236t-219.5 -72z" />
    <glyph glyph-name="uni102F" unicode="&#x102f;" horiz-adv-x="1" 
d="M-135 -652h-186l-15 -1q-123 0 -142 140v475h156v-472h187v-142z" />
    <glyph glyph-name="uni1030" unicode="&#x1030;" horiz-adv-x="1" 
d="M-33 -651l-186 1l-15 -1q-123 0 -142 140v475h156v-472h187v-143zM-456 -634h-157v596h157v-596z" />
    <glyph glyph-name="uni1031" unicode="&#x1031;" horiz-adv-x="624" 
d="M530 915q-6 108 -32 147q-37 39 -116 39q-87 0 -131 -44.5t-44 -180.5v-201q347 -157 346 -382q6 -141 -56 -219.5t-166 -73.5q-100 -4 -185 76.5t-92 280.5l-1 528q7 200 92 280.5t235 81.5q85 0 167 -36zM403.5 404.5q-68.5 111.5 -194.5 148.5v-188
q0 -135 59.5 -196.5t131.5 31.5t3.5 204.5z" />
    <glyph glyph-name="uni1032" unicode="&#x1032;" horiz-adv-x="1" 
d="M-81 1486l-90 -134l-516 338l87 131z" />
    <glyph glyph-name="uni1035" unicode="&#x1035;" horiz-adv-x="1" 
d="M-173 1350q-80 -71 -220 -72q-135 0 -215.5 75t-85.5 237q12 308 302 308q140 -1 224 -78q19 -18 33 -39l-125 -194q21 109 -8 138q-44 44 -126 44q-74 0 -117 -45t-41 -139q433 19 379 -235zM-394 1394q43 0 73.5 18t30.5 44q5 16 -13 26t-79 23q-63 7 -90 7t-57 -1
q17 -66 54.5 -91.5t80.5 -25.5z" />
    <glyph glyph-name="uni1036" unicode="&#x1036;" horiz-adv-x="1" 
d="M-412 1303q-55 0 -94.5 42t-39.5 94v134q0 46 39.5 87t94.5 41q54 0 91 -39.5t37 -88.5v-145q0 -46 -37 -85.5t-91 -39.5zM-412 1406q43 0 43 49v96q0 16 -12 30t-31 14q-44 0 -44 -44v-101q0 -44 44 -44z" />
    <glyph glyph-name="uni1037" unicode="&#x1037;" 
d="M-431 -454q-55 0 -94.5 42t-39.5 94v134q0 46 39.5 87t94.5 41q54 0 91 -39.5t37 -88.5v-145q0 -46 -37 -85.5t-91 -39.5zM-431 -351q43 0 43 49v96q0 16 -12 30t-31 14q-44 0 -44 -44v-101q0 -44 44 -44z" />
    <glyph glyph-name="uni1038" unicode="&#x1038;" horiz-adv-x="360" 
d="M162 661q-57 0 -97 39.5t-40 94.5v295q0 54 40 95t97 41t96.5 -41t39.5 -95v-295q0 -52 -39.5 -93t-96.5 -41zM162 781q41 0 41 44v237q0 41 -41 41t-41 -41v-240q0 -41 41 -41zM162 30q-57 0 -97 39.5t-40 94.5v295q0 54 40 95t97 41t96.5 -41t39.5 -95v-295
q0 -52 -39.5 -93t-96.5 -41zM162 150q41 0 41 44v237q0 41 -41 41t-41 -41v-240q0 -41 41 -41z" />
    <glyph glyph-name="uni1039" unicode="&#x1039;" 
d="M-444 -117h5q53 -8 53 -52v-181q2 -11 11 -11h181q52 -8 52 -53v-5q-8 -53 -52 -53h-181q-11 -2 -11 -11v-181q-8 -52 -53 -52h-5q-53 8 -53 52v192h-192q-52 8 -52 53v5q8 53 52 53h192v192q8 52 53 52z" />
    <glyph glyph-name="uni103A" unicode="&#x103a;" horiz-adv-x="1" 
d="M-383 1278q-133 1 -212 75q-81 75 -86 237q12 308 302 308q140 -1 224 -78q9 -8 17 -18l-81 -149q-9 45 -36 72q-44 44 -126 44q-74 0 -117 -45t-41 -139q1 -93 42.5 -136t115.5 -43q57 0 95 22z" />
    <glyph glyph-name="uni103B" unicode="&#x103b;" horiz-adv-x="310" 
d="M-294 -10h154v-377l153 -101v1729h153v-1794l-170 -112q-159 115 -290 206v449z" />
    <glyph glyph-name="uni103C" unicode="&#x103c;" horiz-adv-x="290" 
d="M867 -653q31 0 54 7t35.5 25t20 33t10.5 47.5t5 50.5v25q0 15 -1 47.5t-1 524.5q-95 -115 -152 -139l2 -479l-640 1v2260h634v-251h155v216q0 68 -16 107q-25 63 -126 73q-30 3 -692 3q-37 0 -64.5 -37t-36.5 -75l-6 -36v-2296q0 -34 39 -77q28 -30 74 -30h706z" />
    <glyph glyph-name="uni103D" unicode="&#x103d;" 
d="M-442 -657q-135 0 -215.5 75t-85.5 237q12 308 302 308q140 -1 223.5 -78t82.5 -234q-8 -165 -87.5 -236t-219.5 -72zM-443 -529q81 0 123.5 43.5t43.5 137.5q3 94 -41 138t-126 44q-74 0 -117 -45t-41 -139q1 -93 42.5 -136t115.5 -43z" />
    <glyph glyph-name="uni103E" unicode="&#x103e;" horiz-adv-x="1" 
d="M-688 -652v142h187v472h156v-475q-19 -140 -142 -140l-15 1h-186z" />
    <glyph glyph-name="uni103F" unicode="&#x103f;" horiz-adv-x="1777" 
d="M1111 83q-85 -81 -235 -82q-159 0 -245 96q-9 -12 -19 -21q-86 -81 -230 -81q-150 1 -235 81.5t-92 260.5v1l153 168v-161q0 -115 44.5 -160t130.5 -45q79 0 123.5 44.5t44.5 179.5l-1 513q0 136 -44 180t-123 44q-87 0 -131 -44.5t-44 -160.5v-166l-154 168v7
q7 180 92 260.5t235 81.5q144 0 230 -80.5t93 -280.5l1 -515h2q0 -136 44 -180t123 -44q87 0 131 44.5t44 180.5v511q0 135 -44.5 180t-130.5 45q-40 -1 -130 -46l148 189q144 -9 218 -80q85 -80 92 -280l1 -528q-2 -55 -10 -101q-1 -43 38 -82q44 -44 123 -44
q87 0 131 44.5t44 180.5v511q0 135 -44.5 180t-130.5 45q-51 -10 -124 -70l157 213q104 -3 203 -80q85 -80 92 -280l1 -528q-7 -200 -92 -280.5t-235 -81.5q-142 0 -228 78z" />
    <glyph glyph-name="uni1040" unicode="&#x1040;" horiz-adv-x="798" 
d="M373 -5q-144 0 -230 80.5t-93 280.5l1 530q7 200 93 280.5t230 80.5q150 -1 235 -81.5t92 -280.5l-1 -528q-7 -200 -92 -280.5t-235 -81.5zM372 140q86 0 130.5 45t44.5 180v511q0 136 -44 180.5t-131 44.5q-79 0 -123 -44t-44 -180l-1 -513q0 -135 44.5 -179.5
t123.5 -44.5z" />
    <glyph glyph-name="uni1041" unicode="&#x1041;" horiz-adv-x="798" 
d="M51 338l153 168v-161q0 -115 44.5 -160t130.5 -45q79 0 123.5 44.5t44.5 179.5l-1 513q0 136 -44 180t-123 44q-87 0 -131 -44.5t-44 -160.5v-166l-154 168v7q7 180 92 260.5t235 81.5q144 0 230 -80.5t93 -280.5l1 -530q-7 -200 -93 -280.5t-230 -80.5q-150 1 -235 81.5
t-92 260.5v1z" />
    <glyph glyph-name="uni1042" unicode="&#x1042;" horiz-adv-x="798" 
d="M700 1244l1 -1526q-7 -200 -93 -280.5t-230 -80.5q-150 1 -235 81.5t-92 260.5v1q-9 114 34 196l256 42q-146 -78 -137 -231q0 -115 44.5 -160t130.5 -45q79 0 123.5 44.5t44.5 179.5l-1 1518h154z" />
    <glyph glyph-name="uni1043" unicode="&#x1043;" horiz-adv-x="798" 
d="M74 191q-20 62 -23 146v1l153 168v-161q0 -70 16 -114l18 -33q5 -7 11 -13q44 -45 130 -45q79 0 123.5 44.5t44.5 179.5l-1 513q0 136 -44 180t-123 44q-87 0 -131 -44.5t-44 -160.5v-166l-154 168v7q7 180 92 260.5t235 81.5q144 0 230 -80.5t93 -280.5l1 -530
q-7 -200 -93 -280.5t-230 -80.5q-18 0 -36 1l337 -648h-171l-403 776q-10 16 -19 36z" />
    <glyph glyph-name="uni1044" unicode="&#x1044;" horiz-adv-x="798" 
d="M677 191l-12 -31q-9 -20 -19 -36l-403 -776h-171l337 648q-18 -1 -36 -1q-144 0 -230 80.5t-93 280.5l1 530q7 200 93 280.5t230 80.5q150 -1 235 -81.5t92 -260.5v-7l-154 -168v166q0 116 -44 160.5t-131 44.5q-79 0 -123 -44t-44 -180l-1 -513q0 -135 44.5 -179.5
t123.5 -44.5q86 0 131 45q5 6 10 13l18 33q16 44 16 114v161l153 -168v-1q-3 -84 -23 -146z" />
    <glyph glyph-name="uni1045" unicode="&#x1045;" horiz-adv-x="798" 
d="M275 360q21 0 41.5 30.5t20.5 88.5q0 7 -1.5 46.5t-20 92.5t-114.5 48l1 -168q7 -75 29.5 -106.5t43.5 -31.5zM546 884q-3 135 -46.5 179t-130.5 44q-79 0 -123 -44t-44 -180v-142q138 -9 178 -82q58 -104 58 -232q0 -39 -9 -89.5t-49 -94.5q-30 -34 -68 -34q-12 0 -24 4
q-85 18 -148 79q-86 80 -93 280l1 320q7 200 93 280.5t230 80.5q166 -2 248 -80q79 -74 80 -280l1 -1175q-7 -200 -93 -280.5t-230 -80.5q-150 1 -235 81.5t-92 260.5v1l153 168v-161q0 -115 44.5 -160t130.5 -45q79 0 123.5 44.5t44.5 179.5v1158z" />
    <glyph glyph-name="uni1046" unicode="&#x1046;" horiz-adv-x="798" 
d="M701 474l-1 -112q-7 -200 -93 -280.5t-230 -80.5q-166 2 -248 80q-79 74 -80 280l-1 1175q7 200 93 280.5t230 80.5q150 -1 235 -81.5t92 -260.5v-1l-153 -168v161q0 115 -44.5 160t-130.5 45q-79 0 -123.5 -44.5t-44.5 -179.5v-1158q3 -135 46.5 -179t130.5 -44
q79 0 123 44t44 180v110q-138 41 -200 136.5t-51 206.5t67 153q45 39 117.5 32t114.5 -45.5t63 -89.5l-125 -119q15 67 2 92q-23 45 -65.5 38.5t-50.5 -69.5t23.5 -118t105.5 -82l65 -20q91 -28 89 -122z" />
    <glyph glyph-name="uni1047" unicode="&#x1047;" horiz-adv-x="840" 
d="M273 0q-75 20 -132 75q-86 80 -93 280l1 530q7 200 93 280.5t230 80.5q166 -2 248 -80q79 -74 79 -275l-3 -1401l132 -1v-140l-214 -1q-70 35 -70 137l1 1394q-1 133 -44.5 177t-130.5 44q-79 0 -123 -44t-44 -180v-595q7 -75 32 -105t83 -33q61 -5 121 31z" />
    <glyph glyph-name="uni1048" unicode="&#x1048;" horiz-adv-x="800" 
d="M377 1246q144 0 230 -80.5t93 -280.5l1 -530q-7 -200 -93 -280q-63 -61 -142 -79l-55 144q55 8 91 44q45 44 45 179l-1 513q0 136 -44 180t-123 44q-87 0 -130.5 -44t-44.5 -177v-372h2q127 0 143 -123v-247l-55 -137q-90 14 -151 76q-92 96 -92 276l-1 534
q0 206 80.5 282.5t246.5 77.5zM204 416v-200q0 -66 61 -77v193q-3 84 -58 84h-3z" />
    <glyph glyph-name="uni1049" unicode="&#x1049;" horiz-adv-x="804" 
d="M701 770q2 -94 -89 -122l-65 -20q-74 -27 -105.5 -82t-23.5 -118t50.5 -69.5t65.5 38.5q13 25 -2 92l125 -119q-21 -51 -63 -89.5t-114.5 -45.5t-117.5 32q-56 42 -67 153t51 206.5t200 136.5v110q0 136 -44 180t-123 44q-87 0 -130.5 -44t-46.5 -179v-1158
q0 -135 44.5 -179.5t123.5 -44.5q86 0 130.5 45t44.5 160v161l153 -168v-1q-7 -180 -92 -260.5t-235 -81.5q-144 0 -230 80.5t-93 280.5l1 1175q1 206 80 280q82 78 248 80q144 0 230 -80.5t93 -280.5z" />
    <glyph glyph-name="uni104A" unicode="&#x104a;" horiz-adv-x="328" 
d="M48 36l1 1162h155l2 -1163z" />
    <glyph glyph-name="uni104B" unicode="&#x104b;" horiz-adv-x="603" 
d="M48 36l1 1162h155l2 -1163zM328 36l1 1162h155l2 -1163z" />
    <glyph glyph-name="uni104C" unicode="&#x104c;" horiz-adv-x="804" 
d="M561 -653l-19 1h-355q-102 17 -136 117l167 172l-2 -33q0 -117 91 -117h240v311h-385q-52 0 -79.5 25.5t-30.5 53.5q0 407 -2 461l153 168v-161q0 -115 44.5 -160t130.5 -45q79 0 123.5 44.5t44.5 179.5l-1 513q0 136 -44 180t-123 44q-87 0 -131 -44.5t-44 -160.5v-166
l-154 168v7q7 180 92 260.5t235 81.5q144 0 230 -80.5t93 -280.5l1 -530q-7 -200 -93 -280.5t-230 -80.5q-100 1 -171 37v-94h311q106 14 139 87q29 -38 44 -69v-514q-33 -95 -139 -95zM397 1279q-133 0 -213 75t-85 237q12 308 302 308q140 -1 224 -78q9 -8 17 -18
l-81 -149q-9 45 -36 72q-44 44 -126 44q-74 0 -117 -45t-41 -139q1 -93 42.5 -136t115.5 -43q57 0 94 21z" />
    <glyph glyph-name="uni104D" unicode="&#x104d;" horiz-adv-x="1069" 
d="M544 -383l1 1262q-1 133 -44.5 177t-130.5 44q-79 0 -123 -44t-44 -180v-262q138 -99 179 -171q58 -105 58 -233q0 -39 -9.5 -89.5t-49.5 -94.5q-30 -33 -67 -33q-12 0 -25 3q-85 18 -148 79q-86 80 -93 280l1 530q7 200 93 280.5t230 80.5q166 -2 248 -80
q79 -74 79 -275l-2 -1274h-153zM276 143q21 0 41.5 30.5t20.5 88.5q0 8 -1.5 47t-20 92t-114.5 138l1 -258q7 -75 29.5 -106.5t43.5 -31.5zM961 -652h-736q-154 -11 -157 139v314l156 -54v-257h583v1650q-11 88 -67 113q-25 0 -60 -2q-135 0 -215.5 75t-85.5 237
q12 308 302 308q140 -1 224 -78q15 -14 27 -31l-106 -204q4 31 4 55q0 129 -151 129q-74 0 -116 -44t-42 -132q0 -187 158 -187q22 3 46 3q44 0 92 -11q135 -53 144 -231v-1792z" />
    <glyph glyph-name="uni104E" unicode="&#x104e;" horiz-adv-x="798" 
d="M547 33q-72 -37 -174 -38q-144 0 -230 80.5t-93 280.5l1 530q7 200 93 280.5t230 80.5q150 -1 235 -81.5t92 -260.5v-7l-154 -168v166q0 116 -44 160.5t-131 44.5q-79 0 -123 -44t-44 -180l-1 -513q0 -135 44.5 -179.5t123.5 -44.5q86 0 130.5 45t44.5 160v161l153 -168
v-1q0 -10 -1 -20h2v-969h-153z" />
    <glyph glyph-name="uni104F" unicode="&#x104f;" horiz-adv-x="1279" 
d="M481 846q22 13 45.5 36.5t23.5 78.5q0 54 -31.5 96t-131.5 42l4 -96q3 -71 24.5 -107.5t65.5 -49.5zM481 398q-44 -13 -65.5 -49.5t-24.5 -107.5l-4 -96q100 0 131.5 42t31.5 96q0 55 -23.5 78.5t-45.5 36.5zM1187 0h-154v1140q-11 88 -67 113q-25 0 -60 -2
q-135 0 -215.5 75t-85.5 237q12 308 302 308q140 -1 224 -78q15 -14 27 -31l-106 -204q4 31 4 55q0 129 -151 129q-74 0 -116 -44t-42 -132q0 -187 158 -187q22 3 45 3q44 0 93 -11q135 -53 144 -231v-1140zM644 1123q52 -79 57 -218q-54 -153 -203 -216
q-96 44 -139.5 110.5t-47.5 130.5q-2 23 -2 51q0 51 6 118q-110 -42 -110 -219l-1 -258l1 -258q0 -177 110 -219q-5 68 -5 118q0 28 1 51q4 64 47.5 130.5t139.5 110.5q149 -63 203 -216q-7 -180 -92 -260.5t-235 -81.5q-144 0 -230 80.5t-93 280.5v88h-1v352h1v88
q7 200 93 280.5t230 80.5q119 -1 198 -52q89 56 214 36q135 -33 144 -211v-1020h-154v1020q-11 88 -67 113q-19 0 -65 -10z" />
    <glyph glyph-name="uni1050" unicode="&#x1050;" horiz-adv-x="798" 
d="M389 751q37 0 65.5 -29t28.5 -65v-101q0 -37 -28.5 -65.5t-65.5 -28.5q-38 0 -69 29.5t-31 64.5v94q0 40 31 70.5t69 30.5zM374 1246q166 -1 246.5 -77.5t80.5 -282.5l-1 -534q0 -180 -92 -276q-68 -63 -142 -80l-57 145q59 8 94 43q40 41 43 171l1 524q-1 133 -44.5 177
t-130.5 44q-79 0 -123 -44t-44 -180l-1 -513q0 -135 45 -179q36 -36 91 -44l-55 -144q-79 18 -142 79q-86 80 -93 280l1 530q7 200 93 280.5t230 80.5z" />
    <glyph glyph-name="uni1051" unicode="&#x1051;" horiz-adv-x="800" 
d="M389 491q-38 0 -69 30.5t-31 70.5v94q0 35 31 64.5t69 29.5q37 0 65.5 -28.5t28.5 -65.5v-101q0 -36 -28.5 -65t-65.5 -29zM374 -4q-144 0 -230 80.5t-93 280.5l-1 530q7 200 93 280q63 61 142 79l55 -144q-55 -8 -91 -44q-45 -44 -45 -179l1 -513q0 -136 44 -180
t123 -44q87 0 130.5 44t44.5 177l-1 524q-3 130 -43 171q-35 35 -94 43l57 145q74 -17 142 -80q92 -96 92 -276l1 -534q0 -206 -80.5 -282.5t-246.5 -77.5z" />
    <glyph glyph-name="uni1062" unicode="&#x1062;" horiz-adv-x="300" 
d="M204 1v1088l-6 36q-9 38 -36.5 75t-64.5 37h-178v-148h133v-1088h152z" />
    <glyph glyph-name="uni1075" unicode="&#x1075;" horiz-adv-x="800" 
d="M701 580l-1 -228q0 -180 -92 -276q-68 -63 -152 -78l-47 143q59 8 94 43q40 41 43 171l1 429v95q-1 133 -44.5 177t-130.5 44q-79 0 -123 -44t-44 -180q24 -210 199 -217v-103q-188 -21 -200 -173v-383h-156v383q16 220 142 237q-140 28 -139 265q7 200 93 280.5
t230 80.5q166 -1 250 -97q77 -81 77 -273v-296z" />
    <glyph glyph-name="uni1076" unicode="&#x1076;" horiz-adv-x="800" 
d="M251 628q-65 0 -65 -85q0 -87 65 -87t65 87q0 85 -65 85zM205 315q1 -25 1 -30q4 -67 26 -98q39 -44 125 -44q79 0 123.5 44.5t66.5 173.5l1 306l-346 198q-88 29 -154 -19q1 242 90 321.5t233 79.5q150 -1 235 -81q35 -34 57 -87l-122 -139q-8 83 -41 117
q-44 44 -131 44q-79 0 -123 -44q-12 -12 -20 -30l484 -274l-7 -29v-364q-13 -203 -98 -283.5t-235 -81.5q-144 0 -230 81q-73 68 -91 217v222q0 141 60 203.5t142 62.5q89 0 138.5 -69t49.5 -166q0 -90 -44 -159q-45 -68 -190 -72z" />
    <glyph glyph-name="uni1077" unicode="&#x1077;" horiz-adv-x="800" 
d="M499 153q65 0 65 85q0 87 -65 87t-65 -87q0 -85 65 -85zM547 879q-1 133 -44.5 177t-130.5 44q-79 0 -123 -44t-44 -180q24 -210 199 -217v-103q-188 -21 -200 -173v-383h-156v383q16 220 142 237q-140 28 -139 265q7 200 93 280.5t230 80.5q166 -1 250 -97
q77 -81 77 -273v-610q0 -141 -60 -203.5t-142 -62.5q-89 0 -138.5 69t-49.5 166q0 90 44.5 159t191.5 72v413z" />
    <glyph glyph-name="uni1078" unicode="&#x1078;" horiz-adv-x="1297" 
d="M575.5 175.5q-25.5 62.5 -28.5 185.5l-1 516q0 136 -44 180t-123 44q-87 0 -131 -44.5t-44 -180.5v-511q0 -135 44.5 -180t130.5 -45q37 2 96 44l-129 -187q-104 3 -203 80q-85 80 -92 280l-1 528q7 200 92 280.5t235 81.5q144 0 230 -80q8 -8 16 -17q7 8 15 16
q85 80 235 81q144 0 230 -80.5t93 -280.5l1 -530q-7 -200 -93 -280.5t-230 -80.5q-150 1 -235 82q-38 36 -63.5 98.5zM701 356q3 -130 43 -171q45 -45 131 -45q79 0 123.5 44.5t44.5 179.5l-1 513q0 136 -44 180t-123 44q-87 0 -131 -44q-43 -44 -44 -177z" />
    <glyph glyph-name="uni1079" unicode="&#x1079;" horiz-adv-x="1297" 
d="M701 356q3 -130 43 -171q45 -45 131 -45q79 0 123.5 44.5t44.5 179.5l-1 513q0 136 -44 180t-123 44q-87 0 -131 -44q-43 -44 -44 -177zM252 153q65 0 65 85q0 87 -65 87t-65 -87q0 -85 65 -85zM50 885q7 200 92 280.5t235 81.5q144 0 230 -80q8 -8 16 -17q7 8 15 16
q85 80 235 81q144 0 230 -80.5t93 -280.5l1 -530q-7 -200 -93 -280.5t-230 -80.5q-150 1 -235 82q-38 36 -63.5 98.5t-28.5 185.5l-1 516q0 136 -44 180t-123 44q-87 0 -131 -44.5t-44 -180.5v-410q147 -3 191.5 -72t44.5 -159q0 -97 -49.5 -166t-138.5 -69q-82 0 -142 62.5
t-60 203.5v619z" />
    <glyph glyph-name="uni107A" unicode="&#x107a;" horiz-adv-x="1297" 
d="M700 361q1 -133 45 -177t123 -44q86 0 130.5 45t44.5 180v511q0 136 -44 180.5t-131 44.5q-38 -3 -118 -18l150 168q100 0 205 -85q85 -81 92 -281l-1 -528q-7 -200 -92 -280.5t-235 -81.5q-98 0 -169 37v-543h333v228h154v-164q0 -109 -27.5 -156.5t-95.5 -47.5h-408
q-52 0 -79.5 25.5t-30.5 53.5l1 1452q-1 133 -44.5 177t-130.5 44q-79 0 -123 -44t-44 -180l-1 -513q0 -135 44.5 -179.5t131.5 -44.5q41 0 85 20l-185 -155q-81 18 -137 71q-86 80 -93 280l1 530q7 200 93 280.5t230 80.5q150 -1 235 -81q93 -75 93 -253q-1 -36 -2 -551v-1
z" />
    <glyph glyph-name="uni107B" unicode="&#x107b;" horiz-adv-x="1297" 
d="M546 356l1 524q-1 133 -44 177q-44 44 -131 44q-79 0 -123 -44t-44 -180l-1 -513q0 -135 44.5 -179.5t123.5 -44.5q86 0 131 45q40 41 43 171zM995 153q65 0 65 85q0 87 -65 87t-65 -87q0 -85 65 -85zM1197 885v-619q0 -141 -60 -203.5t-142 -62.5q-89 0 -138.5 69
t-49.5 166q0 90 44.5 159t191.5 72v410q0 136 -44 180.5t-131 44.5q-79 0 -123 -44t-44 -180l-1 -516q-3 -123 -28.5 -185.5t-63.5 -98.5q-85 -81 -235 -82q-144 0 -230 80.5t-93 280.5l1 530q7 200 93 280.5t230 80.5q150 -1 235 -81q8 -8 15 -16q8 9 16 17q86 80 230 80
q150 -1 235 -81.5t92 -280.5z" />
    <glyph glyph-name="uni107C" unicode="&#x107c;" horiz-adv-x="1520" 
d="M372 140q86 0 130.5 45t44.5 180v148q-104 -27 -187 -67t-124.5 -82t-39 -82t51.5 -97q45 -45 124 -45zM1114 140q79 0 124 45q49 57 51.5 97t-39 82t-124.5 82t-187 67v-148q0 -135 44.5 -180t130.5 -45zM702 519v-162q-7 -200 -92 -280.5t-235 -81.5q-144 0 -230 80.5
t-92 217.5q-1 225 496 372v211q0 136 -44 180.5t-131 44.5q-79 0 -123 -44t-44 -180v-144l-154 174l5 64q18 132 88 196q86 80 230 80q150 -1 235 -81.5t92 -280.5v-223h80v223q7 200 92 280.5t235 81.5q144 0 230 -80q70 -64 88 -196l5 -64l-154 -174v144q0 136 -44 180
t-123 44q-87 0 -131 -44.5t-44 -180.5v-211q497 -147 496 -372q-6 -137 -92 -217.5t-230 -80.5q-150 1 -235 81.5t-92 280.5v162h-82z" />
    <glyph glyph-name="uni107D" unicode="&#x107d;" horiz-adv-x="1300" 
d="M879 141q80 0 124 44q47 41 51 93t-38.5 103.5t-125 78t-185.5 15.5v-110q0 -135 44.5 -179.5t129.5 -44.5zM547 583l1 302q7 200 92 280.5t235 81.5q144 0 230 -80q70 -64 88 -196l6 -64l-155 -174v144q0 136 -44 180t-123 44q-87 0 -131 -44.5t-44 -180.5v-272
q205 17 366 -74q130 -90 130 -237q-6 -137 -92 -217.5t-230 -80.5q-150 1 -235 82q-72 75 -94 197q0 -2 -100 -273q-195 -27 -291 64.5t-103 291.5l-1 259q0 278 140 306q-126 17 -142 237v63h156v-63q12 -152 200 -173v-103q-175 -7 -200 -229l1 -288q0 -136 44 -180
t123 -44l86.5 220.5z" />
    <glyph glyph-name="uni107E" unicode="&#x107e;" horiz-adv-x="1300" 
d="M704 350h1v-23q6 -104 44 -141q44 -45 129 -45q80 0 124 44q47 41 51 93t-38.5 103.5t-125 78t-185.5 15.5v-125zM705 31v-544q-19 -140 -142 -140l-15 1h-186v142h187v769q-2 7 -3 15q0 -2 -100 -273q-195 -27 -291 64.5t-103 291.5l-1 259q0 278 140 306
q-126 17 -142 237v63h156v-63q12 -152 200 -173v-103q-175 -7 -200 -229l1 -288q0 -136 44 -180t123 -44l173 441l1 302q7 200 92 280.5t235 81.5q144 0 230 -80q70 -64 88 -196l6 -64l-155 -174v144q0 136 -44 180t-123 44q-87 0 -131 -44.5t-44 -180.5v-272
q205 17 366 -74q130 -90 130 -237q-6 -137 -92 -217.5t-230 -80.5q-99 1 -170 36z" />
    <glyph glyph-name="uni107F" unicode="&#x107f;" horiz-adv-x="800" 
d="M377 -4q-166 1 -246.5 77.5t-80.5 282.5l1 534q0 180 92 276q61 62 151 76l85 -137v-372q-16 -123 -173 -123h-2v-247q1 -133 44.5 -177t130.5 -44q79 0 123 44t44 180l1 513q0 135 -45 179q-36 36 -91 44l55 144q79 -18 142 -79q86 -80 93 -280l-1 -530
q-7 -200 -93 -280.5t-230 -80.5zM204 701h3q65 0 68 84v318q-71 -11 -71 -77v-325z" />
    <glyph glyph-name="uni1080" unicode="&#x1080;" horiz-adv-x="1304" 
d="M261 438q-92 0 -92 -92q0 -95 92 -95q93 0 93 95q0 92 -93 92zM338 144q21 -4 45 -4q79 0 123.5 44.5t44.5 179.5l-1 513q0 136 -44 180t-123 44q-87 0 -131 -44.5t-44 -160.5v-166l-154 168v7q7 180 92 260.5t235 81.5q144 0 230 -80.5t93 -280.5l1 -515h2
q0 -136 44 -180t123 -44q87 0 131 44.5t44 180.5v511q0 135 -44.5 180t-130.5 45q-40 -1 -130 -46l148 189q144 -9 218 -80q85 -80 92 -280l1 -528q-7 -200 -92 -280.5t-235 -81.5q-159 0 -245 96q-9 -12 -19 -21q-86 -81 -230 -81q-150 1 -235 82q-65 61 -84 180h1
q-16 40 -16 89q0 64 27.5 111t75 74.5t110.5 27.5q94 0 152 -59.5t58 -153.5q0 -82 -52 -147q-31 -40 -81 -55z" />
    <glyph glyph-name="uni1081" unicode="&#x1081;" horiz-adv-x="800" 
d="M546 0l1 879q-1 133 -44.5 177t-130.5 44q-79 0 -123 -44t-44 -180l-1 -538q25 -222 200 -229v-103q-188 -21 -200 -173v-343q0 -142 -157 -142h-96v142h97v343q16 220 142 237q-140 28 -140 306l1 509q7 200 93 280.5t230 80.5q173 5 255.5 -97.5t71.5 -272.5l-1 -876
h-154z" />
    <glyph glyph-name="uni1082" unicode="&#x1082;" horiz-adv-x="1" 
d="M-383 -38l96 -149q-37 21 -94 21q-74 0 -115.5 -43t-42.5 -136q-2 -94 41 -139t117 -45q82 0 126 44q27 27 36 72l81 -149q-8 -10 -17 -18q-84 -77 -224 -78q-290 0 -302 308q5 162 85 237q80 74 213 75z" />
    <glyph glyph-name="uni1083" unicode="&#x1083;" horiz-adv-x="279" 
d="M405 -652v142l-201 -1v1600l-6 36q-9 38 -36.5 75t-64.5 37h-178v-148h133v-1593q0 -148 150 -148h203z" />
    <glyph glyph-name="uni1084" unicode="&#x1084;" horiz-adv-x="640" 
d="M549 34q-73 -38 -176 -39q-144 0 -230 80.5t-93 280.5q21 187 200 264q-184 87 -199 266q7 200 93 280.5t230 80.5q103 -1 175 -39v-336l-2 -2v26q0 116 -44 160.5t-131 44.5q-79 0 -123 -44t-44 -180q94 -145 240 -206l-1 -114q-170 -57 -240 -193q0 -135 44.5 -179.5
t123.5 -44.5q86 0 130.5 45t44.5 160v21l2 -2v-330z" />
    <glyph glyph-name="uni1085" unicode="&#x1085;" 
d="M-187 1400q-7 -8 -15 -15q-80 -71 -220 -72q-135 0 -215 75q-48 39 -46 120q5 87 121 111q-133 35 -128 132q14 174 269 182q140 -1 224 -78q12 -11 22 -24l-132 -126q20 45 10 55q-44 44 -126 44q-74 0 -117 -45q-35 -37 160 -106v-63q-193 -70 -158 -106
q41 -43 115 -43q81 0 124 44q11 11 3 54z" />
    <glyph glyph-name="uni1086" unicode="&#x1086;" 
d="M-382 1597q57 0 57 64v53q0 21 -16 39t-41 18q-57 0 -57 -57v-60q0 -57 57 -57zM-568 1266q153 173 156 214h-6q-45 0 -91.5 46t-46.5 113v103q0 60 51.5 113t122.5 53t119 -51t48 -115v-117q-9 -91 -40 -136q-62 -109 -313 -223z" />
    <glyph glyph-name="uni1087" unicode="&#x1087;" horiz-adv-x="360" 
d="M162 150q41 0 41 44v237q0 41 -41 41t-41 -41v-240q0 -41 41 -41zM4 -263q103 194 103 298v6q-23 10 -42 29q-40 39 -40 94v295q0 54 40 95t97 41t96.5 -41t39.5 -95v-295q0 -52 -34 -147q-98 -183 -260 -280z" />
    <glyph glyph-name="uni1088" unicode="&#x1088;" horiz-adv-x="360" 
d="M162 661q-57 0 -97 39.5t-40 94.5v295q0 54 40 95t97 41t96.5 -41t39.5 -95v-295q0 -52 -39.5 -93t-96.5 -41zM162 781q41 0 41 44v237q0 41 -41 41t-41 -41v-240q0 -41 41 -41zM162 150q41 0 41 44v237q0 41 -41 41t-41 -41v-240q0 -41 41 -41zM4 -263q103 194 103 298
v6q-23 10 -42 29q-40 39 -40 94v295q0 54 40 95t97 41t96.5 -41t39.5 -95v-295q0 -52 -34 -147q-98 -183 -260 -280z" />
    <glyph glyph-name="uni1089" unicode="&#x1089;" horiz-adv-x="360" 
d="M162 30q-57 0 -97 39.5t-40 94.5v295q0 54 40 95t97 41t96.5 -41t39.5 -95v-295q0 -52 -39.5 -93t-96.5 -41zM162 150q41 0 41 44v237q0 41 -41 41t-41 -41v-240q0 -41 41 -41z" />
    <glyph glyph-name="uni108A" unicode="&#x108a;" horiz-adv-x="446" 
d="M162 150q41 0 41 44v237q0 41 -41 41t-41 -41v-240q0 -41 41 -41zM162 781q41 0 41 44v237q0 41 -41 41t-41 -41v-240q0 -41 41 -41zM174 661q-69 0 -109 39.5t-40 94.5v295q0 54 40 95t97 41t96.5 -41t39.5 -95v-186q14 -18 33 -18q42 0 112 83q-68 -173 -138 -244
q-64 -64 -131 -64zM174 31q-69 0 -109 39.5t-40 94.5v295q0 54 40 95t97 41t96.5 -41t39.5 -95v-186q14 -18 33 -18q42 0 112 83q-68 -173 -138 -244q-64 -64 -131 -64z" />
    <glyph glyph-name="uni108D" unicode="&#x108d;" 
d="M-240 -270h-807v141h807v-141z" />
    <glyph glyph-name="uni1090" unicode="&#x1090;" horiz-adv-x="900" 
d="M425 0q-168 0 -268.5 94t-108.5 327l1 619q8 234 108.5 328t268.5 94q175 -1 274.5 -95t107.5 -328l-1 -617q-9 -233 -108 -327t-274 -95zM423 138q114 0 173 54.5t59 218.5v623q0 166 -58.5 220t-172.5 54q-106 0 -164.5 -53.5t-58.5 -219.5l-2 -625q0 -165 59.5 -218.5
t164.5 -53.5z" />
    <glyph glyph-name="uni1091" unicode="&#x1091;" horiz-adv-x="479" 
d="M487 4l-53 139h-119v1171q0 148 -107 148h-178v-148h133v-1173q0 -137 155 -137h169z" />
    <glyph glyph-name="uni1092" unicode="&#x1092;" horiz-adv-x="913" 
d="M155 534q88 64 224 46q12 -1 26 -2l20 -1q113 0 172.5 54t59.5 199v203q0 166 -58.5 220t-173.5 54q-106 0 -164 -53q-55 -51 -59 -199h-151q11 221 108 312q100 94 269 94q175 -2 274 -96t107 -327l-1 -197q-8 -213 -107 -307q-87 -82 -230 -94q-27 -1 -58.5 -1.5
t-71.5 6.5q-17 1 -19 1q-116 0 -116 -121q58 10 119 10q190 0 294 -72.5t114 -184.5q0 -56 45 -78h-174q-21 21 -27 69q-7 31 -34.5 59t-100 48.5t-176.5 20.5q-120 0 -217 -26q-9 212 65 320q18 25 41 43z" />
    <glyph glyph-name="uni1093" unicode="&#x1093;" horiz-adv-x="834" 
d="M735 1467v-200q-78 72 -148 55.5t-97 -65.5q-10 -20 -11 -52q0 -17 3 -37q6 -37 38 -133q25 -98 139 -553t121 -479h-160l-220 906l-210 -906h-161l305 1256q28 112 112.5 160t246.5 48h42z" />
    <glyph glyph-name="uni1094" unicode="&#x1094;" horiz-adv-x="942" 
d="M354 1460h219l303 -1460h-180l-234 1247l-239 -1247h-187z" />
    <glyph glyph-name="uni1095" unicode="&#x1095;" horiz-adv-x="825" 
d="M547 797q0 75 -44 114.5t-131 39.5q-79 0 -123 -44t-44 -180l-1 -363q0 -135 44.5 -179.5t123.5 -44.5q86 0 130.5 45t44.5 180v432zM701 762v-46l-1 -359q-7 -200 -92 -280.5t-235 -81.5q-144 0 -230 80.5t-93 280.5l1 380q7 200 93 280.5t230 80.5q99 -1 173 -41v406
h154v-536q30 -96 82 -100v-92z" />
    <glyph glyph-name="uni1096" unicode="&#x1096;" horiz-adv-x="825" 
d="M547 660v432q0 135 -44.5 180t-130.5 45q-79 0 -123.5 -44.5t-44.5 -179.5l1 -363q0 -136 44 -180t123 -44q87 0 131 39.5t44 114.5zM701 695q13 -86 82 -102v-96l-82 24v-526h-154v406q-74 -40 -173 -41q-144 0 -230 80.5t-93 280.5l-1 380q7 200 93 280.5t230 80.5
q150 -1 235 -81.5t92 -280.5l1 -359v-46z" />
    <glyph glyph-name="uni1097" unicode="&#x1097;" horiz-adv-x="747" 
d="M48 130l460 1187h-412v145h597v-84l-455 -1174q116 34 196 -13.5t142 -47.5t125 64v-158q-159 -87 -257.5 -21.5t-182.5 57.5t-213 -85v130z" />
    <glyph glyph-name="uni1098" unicode="&#x1098;" horiz-adv-x="899" 
d="M421 1465q185 5 274 -93q103 -102 102 -311q-10 -219 -107 -313q-6 -5 -12 -11q9 -7 17 -15q103 -103 102 -312q-10 -220 -107.5 -314t-270.5 -95q-165 0 -264.5 99.5t-104.5 315.5q8 223 117 324q-6 5 -12 12q-100 99 -105 268q45 277 321 181v-181q-12 42 -41 48
q-110 46 -124 -55q4 -91 65 -145.5t168 -54.5q75 0 135 59.5t69 190.5q0 136 -87 212.5t-256 20.5zM451 680q-15 -2 -30 -2q-17 0 -32 2q-77 -10 -125 -66q-57 -68 -55 -207q3 -138 57.5 -202t152.5 -64q108 0 164.5 64.5t57.5 203.5q5 140 -54 207q-50 54 -136 64z" />
    <glyph glyph-name="uni1099" unicode="&#x1099;" horiz-adv-x="899" 
d="M421 1l-121 169q169 -56 256 20.5t87 212.5q-9 131 -69 191t-135 60q-107 0 -168 -55t-65 -146q14 -101 124 -55q29 6 41 48v-181q-276 -96 -321 181q5 169 105 268q6 7 12 12q-109 102 -117 325q5 216 104.5 315t264.5 99q173 -1 270.5 -95t107.5 -314q1 -209 -102 -311
q-8 -8 -17 -15l12 -12q97 -94 107 -313q1 -209 -102 -311q-89 -98 -274 -93zM451 787q86 9 136 64q59 66 54 206q-1 139 -57.5 204t-164.5 65q-98 0 -152.5 -64t-57.5 -203q-2 -139 55 -207q48 -56 125 -65q15 1 32 1q15 0 30 -1z" />
    <glyph glyph-name="uni109E" unicode="&#x109e;" horiz-adv-x="547" 
d="M534 -653v143l-201 -1v1599l-6 36q-9 38 -36.5 75t-64.5 37h-178v-148h133v-1592q0 -149 150 -149h203zM215 1333q-57 0 -97 39.5t-40 94.5v147q0 54 40 95t97 41t96.5 -41t39.5 -95v-147q0 -52 -39.5 -93t-96.5 -41zM215 1453q41 0 41 44v89q0 41 -41 41t-41 -41v-92
q0 -41 41 -41z" />
    <glyph glyph-name="uni109F" unicode="&#x109f;" horiz-adv-x="1069" 
d="M544 -510l1 1389q-1 133 -44.5 177t-130.5 44q-79 0 -123 -44t-44 -180v-595q1 -67 44 -113t168 -15l-120 -154q-91 8 -154 76q-86 80 -93 280l1 530q7 200 93 280.5t230 80.5q166 -2 248 -80q79 -74 79 -275l-2 -1401h110v1650q-11 88 -67 113q-25 0 -60 -2
q-135 0 -215.5 75t-85.5 237q12 308 302 308q140 -1 224 -78q15 -14 27 -31l-106 -204q4 31 4 55q0 129 -151 129q-74 0 -116 -44t-42 -132q0 -187 158 -187q22 3 46 3q44 0 92 -11q135 -53 144 -231v-1792h-469v142h52z" />
    <glyph glyph-name="uni1700" unicode="&#x1700;" horiz-adv-x="3712" 
d="M1208 -6l1 879q-1 133 -44.5 177t-130.5 44q-79 0 -123 -44t-44 -180l-1 -538q25 -222 200 -229v-103q-188 -21 -200 -173v-343q0 -142 -157 -142h-96v142h97v343q16 220 142 237q-140 28 -140 306l1 509q7 200 93 280.5t230 80.5q173 5 255.5 -97.5t71.5 -272.5l-1 -876
h-154zM574 915q-6 108 -32 147q-37 39 -116 39q-87 0 -131 -44.5t-44 -180.5v-201q347 -157 346 -382q6 -141 -56 -219.5t-166 -73.5q-100 -4 -185 76.5t-92 280.5l-1 528q7 200 92 280.5t235 81.5q85 0 167 -36zM447.5 404.5q-68.5 111.5 -194.5 148.5v-188
q0 -135 59.5 -196.5t131.5 31.5t3.5 204.5zM1892 -652v142l-201 -1v1600l-6 36q-9 38 -36.5 75t-64.5 37h-178v-148h133v-1593q0 -148 150 -148h203zM2012 628q-65 0 -65 -85q0 -87 65 -87t65 87q0 85 -65 85zM1966 315q1 -25 1 -30q4 -67 26 -98q39 -44 125 -44
q79 0 123.5 44.5t66.5 173.5l1 306l-346 198q-88 29 -154 -19q1 242 90 321.5t233 79.5q150 -1 235 -81q35 -34 57 -87l-122 -139q-8 83 -41 117q-44 44 -131 44q-79 0 -123 -44q-12 -12 -20 -30l484 -274l-7 -29v-364q-13 -203 -98 -283.5t-235 -81.5q-144 0 -230 81
q-73 68 -91 217v222q0 141 60 203.5t142 62.5q89 0 138.5 -69t49.5 -166q0 -90 -44 -159q-45 -68 -190 -72zM2896 140q86 0 130.5 45t44.5 180v30q-84 67 -170 67q-85 0 -173 -67v-31q0 -135 44.5 -179.5t123.5 -44.5zM2575 727v160q7 200 93 280q63 61 142 79l55 -144
q-55 -8 -91 -44q-45 -44 -45 -179l1 -346q88 64 173 64q86 0 168 -65v355q-3 130 -43 171q-35 35 -94 43l57 145q74 -17 142 -80q92 -96 92 -276l1 -380h-2v-153q-7 -200 -92 -280.5t-235 -81.5q-144 0 -230 80.5t-93 280.5zM2972 1279q-133 1 -212 75q-81 75 -86 237
q12 308 302 308q140 -1 224 -78q9 -8 17 -18l-81 -149q-9 45 -36 72q-44 44 -126 44q-74 0 -117 -45t-41 -139q1 -93 42.5 -136t115.5 -43q57 0 95 22zM3481 661q-57 0 -97 39.5t-40 94.5v295q0 54 40 95t97 41t96.5 -41t39.5 -95v-295q0 -52 -39.5 -93t-96.5 -41zM3481 781
q41 0 41 44v237q0 41 -41 41t-41 -41v-240q0 -41 41 -41zM3481 30q-57 0 -97 39.5t-40 94.5v295q0 54 40 95t97 41t96.5 -41t39.5 -95v-295q0 -52 -39.5 -93t-96.5 -41zM3481 150q41 0 41 44v237q0 41 -41 41t-41 -41v-240q0 -41 41 -41z" />
    <glyph glyph-name="uni1950" unicode="&#x1950;" horiz-adv-x="1061" 
d="M766 823q0 74 -15.5 124t-42 81t-64.5 44t-85 13q-63 0 -114.5 -16t-94.5 -46t-77.5 -66.5t-63.5 -79.5h-139l-41 380h155l19 -210h4q31 45 64.5 83.5t75.5 67.5t98.5 44t134.5 15q79 0 141.5 -19t107.5 -67.5t69 -130.5t24 -204v-838h-156v825z" />
    <glyph glyph-name="uni1951" unicode="&#x1951;" horiz-adv-x="1128" 
d="M831 582l-296 -37q-138 -15 -207.5 -67t-69.5 -156q0 -97 54.5 -141t148.5 -44q92 0 159.5 23.5t116.5 68.5q94 90 94 234v119zM135 877l-39 380h154l18 -215h6q33 54 66 95t72 67.5t89 39.5t117 13q181 0 276 -130t95 -375v-545l-133 -207h-25v193h-4
q-61 -111 -154 -166.5t-231 -55.5q-77 0 -141.5 26t-110 71t-70 109.5t-24.5 139.5q0 91 27 158.5t78 114.5t122.5 73.5t163.5 36.5l344 39q0 183 -62 264.5t-200 81.5q-51 0 -93 -9t-76.5 -33.5t-63.5 -65.5t-60 -100h-141z" />
    <glyph glyph-name="uni1952" unicode="&#x1952;" horiz-adv-x="1180" 
d="M1042 0h-157v700q0 392 -258 392q-135 0 -223.5 -111t-88.5 -281v-700h-155v1022l131 207h24v-205h7q122 233 354 233q180 0 273 -130t93 -375v-752z" />
    <glyph glyph-name="uni1953" unicode="&#x1953;" horiz-adv-x="1423" 
d="M588 528q0 -391 246 -391q129 0 210 111q76 100 84 256v196q0 392 -245 392q-66 0 -116 -28t-97 -83q-37 -51 -56.5 -115.5t-25.5 -140.5v-197zM582 1030q28 51 63 94t78 73t94 45t117 15q170 0 261 -130t91 -375v-545l-133 -207h-25v205h-4q-59 -117 -149 -175.5
t-199 -58.5q-168 0 -256 130t-88 376v393q0 113 -16.5 164t-67.5 51q-24 0 -44.5 -16t-37 -46t-30 -66.5t-27.5 -79.5h-139l-41 380h155l19 -188h4q18 41 34.5 76t40 59.5t54.5 38.5t78 14q41 0 70.5 -19t51 -50t32 -73t14.5 -85z" />
    <glyph glyph-name="uni1954" unicode="&#x1954;" horiz-adv-x="1446" 
d="M588 526q0 -389 258 -389q61 0 113.5 29t90 79t58 119.5t20.5 155.5v709h158v-1022l-133 -207h-25v195h-4q-104 -224 -319 -224q-373 0 -373 523v376q0 113 -16.5 164t-67.5 51q-24 0 -44.5 -16t-37 -46t-30 -66.5t-27.5 -79.5h-139l-41 380h155l19 -188h4q18 41 34.5 76
t40 59.5t54.5 38.5t78 14t80.5 -21.5t54 -59t30 -90t9.5 -113.5v-447z" />
    <glyph glyph-name="uni1955" unicode="&#x1955;" horiz-adv-x="1427" 
d="M1268 102q0 -55 -24.5 -91t-74.5 -36q-28 0 -51.5 8.5t-51.5 32t-65.5 61.5t-97.5 103q-39 41 -67.5 71t-49 48t-38 26.5t-33.5 8.5q-19 0 -36 -8.5t-39 -26.5t-49.5 -48t-66.5 -71q-59 -65 -97 -103t-65.5 -61.5t-51 -32t-52.5 -8.5q-49 0 -73.5 36t-24.5 91v1127h155
v-1016l154 154q35 36 67.5 67t61.5 52.5t57.5 32.5t61.5 11q26 0 53 -11t54.5 -31.5t59 -51t70.5 -69.5l156 -154v1016h158v-1127z" />
    <glyph glyph-name="uni1956" unicode="&#x1956;" horiz-adv-x="1692" 
d="M922 492q0 -127 -25 -224.5t-77 -164t-125.5 -99.5t-166.5 -33q-196 0 -294.5 132.5t-98.5 390.5v528l131 207h27v-195h4q92 223 289 223q114 0 192 -59t117 -178h10q19 51 49.5 94t68.5 77t87 50t107 16q335 0 335 -522v-735h-155v702q0 390 -226 390q-53 0 -99 -29
t-78.5 -79t-52 -119.5t-19.5 -155.5v-217zM528 137q115 0 176.5 92.5t61.5 296.5v176q0 390 -223 390q-56 0 -102 -29t-77.5 -79t-51 -119.5t-19.5 -155.5v-183q0 -106 15.5 -180t45 -119t73.5 -67.5t101 -22.5z" />
    <glyph glyph-name="uni1957" unicode="&#x1957;" horiz-adv-x="1692" 
d="M266 1229h27v-195h4q92 223 289 223q114 0 192 -59t117 -178h10q19 51 49.5 94t68.5 77t87 50t107 16q335 0 335 -522v-534l-127 -201h-22v195h-6q-92 -224 -289 -224q-115 0 -193.5 58.5t-119.5 179.5h-9q-49 -121 -132 -179.5t-181 -58.5q-338 0 -338 523v528zM922 506
q6 -369 227 -369q108 0 176 107q64 98 72 250v208q0 390 -226 390q-53 0 -99 -29t-78.5 -79t-52 -119.5t-19.5 -155.5v-203zM293 526q0 -389 225 -389q53 0 98.5 29t78 79t52 119.5t19.5 155.5v182q0 390 -223 390q-56 0 -102 -29t-77.5 -79t-51 -119.5t-19.5 -155.5v-183z
" />
    <glyph glyph-name="uni1958" unicode="&#x1958;" horiz-adv-x="1149" 
d="M834 0v266q-19 -16 -37.5 -30.5t-39 -26.5t-44 -19.5t-51.5 -7.5q-31 0 -63 14.5t-64.5 37t-66.5 48t-64.5 48t-59.5 37t-49 14.5q-37 0 -58.5 -26.5t-21.5 -75.5q0 -48 21.5 -78.5t58.5 -30.5q27 0 41 5t35 11v-147q-9 -4 -36.5 -11.5t-60.5 -7.5q-49 0 -90 16.5
t-68.5 50.5t-43 82t-15.5 110q0 51 14.5 97t41 82t69.5 55t103 19q43 0 84 -13t75.5 -34.5t68.5 -48t61.5 -49t56 -37t53.5 -14.5t47.5 8t42 16.5t34.5 20.5t26 20v828h157v-1229h-157z" />
    <glyph glyph-name="uni1959" unicode="&#x1959;" horiz-adv-x="1190" 
d="M897 0h-25v195h-4q-110 -224 -340 -224q-391 0 -391 523v735h158v-703q0 -389 274 -389q131 0 217 105.5t86 277.5v709h158v-1022z" />
    <glyph glyph-name="uni195A" unicode="&#x195a;" horiz-adv-x="1692" 
d="M1552 199l-125 -199h-24v195h-6q-90 -224 -289 -224q-115 0 -193.5 59.5t-117.5 178.5h-11q-20 -51 -49.5 -94t-69.5 -77t-87.5 -50.5t-106.5 -16.5q-338 0 -338 523v735h158v-703q0 -389 225 -389q53 0 98.5 29t78 79t52 119.5t19.5 155.5v709h149v-195h7
q92 223 290 223q340 0 340 -522v-536zM1397 702q0 390 -226 390q-53 0 -98 -28t-77.5 -75t-52 -114.5t-21.5 -149.5v-199q0 -389 227 -389q51 0 98 29t80 79t51.5 119.5t18.5 155.5v182z" />
    <glyph glyph-name="uni195B" unicode="&#x195b;" horiz-adv-x="1190" 
d="M897 0h-25v195h-4q-110 -224 -340 -224q-391 0 -391 523v735h158v-467h577v467h158v-1022zM569 137q131 0 217 105.5t86 277.5v86h-577v-80q0 -389 274 -389z" />
    <glyph glyph-name="uni195C" unicode="&#x195c;" horiz-adv-x="1692" 
d="M1405 195h-8q-90 -224 -289 -224q-113 0 -192.5 59.5t-118.5 178.5h-9q-22 -51 -50.5 -94t-68.5 -77t-88.5 -50.5t-107.5 -16.5q-338 0 -338 523v735h158v-703q0 -389 225 -389q53 0 98.5 29t78 79t52 119.5t19.5 155.5v709h149v-195h7q92 223 290 223q340 0 340 -522
v-735q0 -111 -24.5 -185.5t-65.5 -121.5t-97 -66.5t-118 -19.5q-76 0 -114 22v176q24 -16 49.5 -23t54.5 -7q41 0 71.5 12t52 40t33 74t11.5 109v185zM1397 702q0 390 -226 390q-53 0 -99 -29t-78.5 -79t-52 -119.5t-19.5 -155.5v-183q0 -389 227 -389q51 0 98 29t80 79
t51.5 119.5t18.5 155.5v182z" />
    <glyph glyph-name="uni195D" unicode="&#x195d;" horiz-adv-x="1167" 
d="M1028 205l-131 -205h-25v195h-4q-108 -224 -338 -224q-395 0 -395 523v528l131 207h27v-205h4q127 233 362 233q179 0 274 -130t95 -375v-547zM381 981q-80 -104 -88 -256v-199q0 -389 276 -389q66 0 122.5 29t96 79t62 119.5t22.5 155.5v180q0 392 -262 392
q-139 0 -229 -111z" />
    <glyph glyph-name="uni195E" unicode="&#x195e;" horiz-adv-x="1692" 
d="M543 1092q-56 0 -101 -28t-77.5 -75t-51 -114.5t-20.5 -149.5v-199q0 -389 225 -389q53 0 98.5 29t78 79t52 119.5t19.5 155.5v203q-8 369 -223 369zM922 0q0 -111 -24 -185.5t-65.5 -121.5t-98 -66.5t-118.5 -19.5q-73 0 -112 22v176q20 -16 47 -23t55 -7q41 0 72 12
t51.5 40t32.5 74t12 109v185h-8q-90 -224 -291 -224q-340 0 -340 523v528l131 207h27v-195h4q92 223 289 223q114 0 192 -59t117 -178h10q21 51 50.5 94t67.5 77t87 50t107 16q335 0 335 -522v-735h-155v702q0 390 -226 390q-53 0 -98 -28t-77.5 -75t-52 -114.5
t-21.5 -149.5v-725z" />
    <glyph glyph-name="uni195F" unicode="&#x195f;" horiz-adv-x="1423" 
d="M432 823q0 74 -5 124t-16.5 81t-27.5 44t-33 13q-26 0 -46.5 -16t-37 -46t-30 -66.5t-27.5 -79.5h-139l-41 380h155l19 -188h4q18 45 34.5 79t40 58.5t53.5 37.5t71 13q65 0 110 -53t62 -180h4q61 117 147 175t197 58q86 0 151.5 -32.5t112.5 -96t71.5 -159t24.5 -217.5
v-752h-158v700q0 392 -245 392q-125 0 -213 -111q-82 -109 -82 -281v-530q0 -111 -24.5 -185.5t-66.5 -120.5t-99.5 -66.5t-123.5 -20.5q-71 0 -110 22v176q20 -16 46 -22t56 -6q84 0 125 50t41 173v653z" />
    <glyph glyph-name="uni1960" unicode="&#x1960;" horiz-adv-x="1128" 
d="M831 193h-6q-59 -111 -152 -166.5t-233 -55.5q-75 0 -139.5 26t-110 71t-70 109.5t-24.5 139.5q0 91 27 158.5t78 114.5t122.5 73.5t163.5 36.5l344 39q0 183 -62 268t-200 85q-51 0 -93 -11.5t-76.5 -36t-63.5 -65.5t-60 -96h-141l-39 379h154l18 -215h6q33 55 66 94
t72 65.5t89 41t117 14.5q181 0 276 -132.5t95 -377.5v-752q0 -111 -24.5 -185.5t-67.5 -121.5t-100.5 -66.5t-120.5 -19.5q-74 0 -115 22v176q23 -16 48.5 -23t58.5 -7q41 0 70.5 12t50 40t31.5 74t11 109v183zM831 582l-296 -37q-138 -15 -207.5 -67t-69.5 -156
q0 -97 54.5 -141t148.5 -44q92 0 159.5 23.5t116.5 68.5q94 90 94 234v119z" />
    <glyph glyph-name="uni1961" unicode="&#x1961;" horiz-adv-x="1458" 
d="M588 526q0 -389 258 -389q61 0 113.5 29t90 79t58 119.5t20.5 155.5v709h158v-1229q0 -111 -24.5 -185.5t-67.5 -121.5t-100.5 -66.5t-122.5 -19.5q-74 0 -113 22v176q23 -16 48.5 -23t56.5 -7q41 0 71.5 12t52 39t31.5 70t10 104v195h-4q-104 -224 -319 -224
q-373 0 -373 523v376q0 113 -16.5 164t-67.5 51q-24 0 -44.5 -16t-37 -46t-30 -66.5t-27.5 -79.5h-139l-41 380h155l19 -188h4q18 41 34.5 76t40 59.5t54.5 38.5t78 14t80.5 -21.5t54 -59t30 -90t9.5 -113.5v-447z" />
    <glyph glyph-name="uni1962" unicode="&#x1962;" horiz-adv-x="1286" 
d="M1126 0h-155v1004q-10 -29 -23.5 -55.5t-42.5 -67.5l-569 -881h-176v1229h155v-993q9 18 19 37.5t33 56.5l579 899h180v-1229z" />
    <glyph glyph-name="uni1963" unicode="&#x1963;" horiz-adv-x="475" 
d="M-88 1843q199 0 303 -130t104 -376v-1337h-157v1311q0 98 -17.5 166.5t-50.5 113.5t-80 64.5t-102 19.5v168z" />
    <glyph glyph-name="uni1964" unicode="&#x1964;" horiz-adv-x="1135" 
d="M567 1843q199 0 303.5 -130t104.5 -376v-1337h-127q-78 0 -160 30.5t-155.5 86t-131 131.5t-86.5 166v-414h-155v1337q0 246 102.5 376t304.5 130zM422 616q0 -71 19.5 -130.5t49 -107.5t70.5 -85t85 -62.5t88 -40t83 -16.5v895q-35 0 -79 -13.5t-87 -41t-85 -65.5
t-73.5 -88t-51 -111.5t-19.5 -133.5zM817 1243v68q0 98 -17.5 166.5t-50 113.5t-79.5 64.5t-103 19.5q-57 0 -104 -19.5t-79 -64.5t-50.5 -113.5t-18.5 -166.5v-502q31 100 85.5 180t124 135.5t145 86t147.5 32.5z" />
    <glyph glyph-name="uni1965" unicode="&#x1965;" horiz-adv-x="1135" 
d="M567 1843q199 0 303.5 -130t104.5 -376v-1337h-158v1311q0 98 -17.5 166.5t-50 113.5t-79.5 64.5t-103 19.5q-57 0 -104 -19.5t-79 -64.5t-50.5 -113.5t-18.5 -166.5v-1311h-155v1337q0 246 102.5 376t304.5 130z" />
    <glyph glyph-name="uni1966" unicode="&#x1966;" horiz-adv-x="1135" 
d="M817 1311q0 98 -17.5 166.5t-50 113.5t-79.5 64.5t-103 19.5q-57 0 -104 -19.5t-79 -64.5t-50.5 -113.5t-18.5 -166.5v-1311h-155v1337q0 246 102.5 376t304.5 130q199 0 303.5 -130t104.5 -376v-1439q0 -119 -20.5 -205t-64.5 -143.5t-112.5 -86t-167.5 -28.5
q-71 0 -119.5 8t-76.5 20v170q35 -16 80 -23t98 -7q67 0 111.5 20.5t70 61.5t34.5 98t9 129v1399z" />
    <glyph glyph-name="uni1967" unicode="&#x1967;" horiz-adv-x="475" 
d="M449 -846h-115q-80 0 -142.5 24.5t-103.5 72t-62.5 115t-21.5 147.5h121q0 -54 16.5 -92.5t46 -66.5t67.5 -42t81 -14h113v-144zM471 -565q-65 0 -121.5 19.5t-98.5 66.5t-66.5 121.5t-24.5 185.5v1401h155v-1391q0 -67 10.5 -111t31 -72t52 -40t72.5 -12h441v-168h-451z
" />
    <glyph glyph-name="uni1968" unicode="&#x1968;" horiz-adv-x="475" 
d="M471 -565q-65 0 -120.5 20.5t-98.5 66.5t-67.5 120.5t-24.5 185.5v1401h155v-1391q0 -63 10.5 -109t31 -74t52 -40t72.5 -12h441v-168h-451z" />
    <glyph glyph-name="uni1969" unicode="&#x1969;" horiz-adv-x="1135" 
d="M567 -565q-202 0 -304.5 130t-102.5 376v1288h155v-1237q0 -94 18.5 -168t50.5 -123t79 -73.5t104 -24.5q56 0 103 24.5t79.5 73.5t50 123t17.5 168v1237h158v-1288q0 -246 -104.5 -376t-303.5 -130z" />
    <glyph glyph-name="uni196A" unicode="&#x196a;" horiz-adv-x="1135" 
d="M422 616q0 -71 19.5 -130.5t49 -108.5t70.5 -86t85 -61.5t88 -39t83 -16.5v895q-35 0 -79 -13.5t-87 -39t-85 -64.5t-73.5 -88t-51 -111.5t-19.5 -136.5zM817 1243v68q0 98 -17.5 166.5t-50 113.5t-79.5 64.5t-103 19.5q-57 0 -104 -19.5t-79 -64.5t-50.5 -113.5
t-18.5 -166.5v-502q29 100 84.5 180t126 135.5t147.5 86t144 32.5zM160 1337q0 246 102.5 376t304.5 130q199 0 303.5 -130t104.5 -376v-1337h-127q-70 0 -151 28.5t-156.5 82t-136 130t-89.5 173.5v-502q0 -72 10.5 -129t36 -98t68.5 -61.5t113 -20.5q53 0 98 7t78 23v-170
q-27 -12 -75 -20t-122 -8q-96 0 -164.5 28.5t-112.5 86t-64.5 143.5t-20.5 205v1439z" />
    <glyph glyph-name="uni196B" unicode="&#x196b;" horiz-adv-x="1135" 
d="M160 1337q0 246 102.5 376t304.5 130q199 0 303.5 -130t104.5 -376v-1337h-158v1311q0 98 -17.5 166.5t-50 113.5t-79.5 64.5t-103 19.5q-57 0 -104 -19.5t-79 -64.5t-50.5 -113.5t-18.5 -166.5v-1399q0 -72 10.5 -129t36 -98t68.5 -61.5t113 -20.5q53 0 98 7t78 23v-170
q-27 -12 -75 -20t-122 -8q-96 0 -164.5 28.5t-112.5 86t-64.5 143.5t-20.5 205v1439z" />
    <glyph glyph-name="uni196C" unicode="&#x196c;" horiz-adv-x="475" 
d="M922 1819v-170h-441q-41 0 -72.5 -11.5t-52 -39t-31 -73.5t-10.5 -110v-1415h-155v1425q0 111 24.5 186t67.5 121t98.5 66.5t120.5 20.5h451z" />
    <glyph glyph-name="uni196D" unicode="&#x196d;" horiz-adv-x="1366" 
d="M866 137q138 0 200 97.5t62 291.5v703h158v-735q0 -129 -29.5 -227.5t-84 -164t-130 -98.5t-170.5 -33q-49 0 -93 7.5t-80.5 21.5t-64.5 32.5t-46 43.5v-10q0 -70 -24.5 -124.5t-66.5 -91t-99.5 -56t-123.5 -19.5q-71 0 -110 20v178q41 -30 102 -30q41 0 74 11t52.5 40
t29.5 74t10 108v694q0 113 -16.5 164t-67.5 51q-24 0 -44.5 -16t-37 -46t-30 -66.5t-27.5 -79.5h-139l-41 380h155l19 -188h4q18 41 34.5 76t40 59.5t54.5 38.5t78 14t80.5 -21.5t54 -59t30 -90t9.5 -113.5v-447q0 -194 66.5 -291.5t211.5 -97.5z" />
    <glyph glyph-name="uni1970" unicode="&#x1970;" horiz-adv-x="1057" 
d="M279 1081q-80 0 -137.5 58.5t-57.5 138.5q0 76 57 133q60 55 138 55q36 2 72 -13t63 -42q26 -27 40.5 -61.5t14.5 -71.5q0 -84 -55 -139q-27 -27 -63 -42.5t-72 -15.5zM772 1081q-82 0 -137 57.5t-55 139.5q0 78 55 133q59 55 137 55q80 2 137 -55q25 -27 39.5 -61.5
t14.5 -71.5q0 -82 -55.5 -139.5t-135.5 -57.5zM279 1350q-29 0 -49.5 -20.5t-20.5 -51.5q0 -29 20.5 -50.5t49.5 -21.5q30 0 51.5 20.5t21.5 51.5t-21.5 51.5t-51.5 20.5zM772 1350q-29 0 -49.5 -20.5t-20.5 -51.5q0 -29 20.5 -50.5t49.5 -21.5q31 0 53.5 20.5t22.5 51.5
t-22.5 51.5t-53.5 20.5z" />
    <glyph glyph-name="uni1971" unicode="&#x1971;" horiz-adv-x="846" 
d="M424 1278l194 192h220l-416 -436l-414 436h242z" />
    <glyph glyph-name="uni1972" unicode="&#x1972;" horiz-adv-x="840" 
d="M66 1475l241 -5l291 -206l182 -125h-252z" />
    <glyph glyph-name="uni1973" unicode="&#x1973;" horiz-adv-x="512" 
d="M248 1085q-84 2 -139.5 58.5t-55.5 136.5q0 82 55.5 138.5t139.5 56.5q80 0 135 -56.5t55 -138.5q0 -39 -14 -75t-41 -62q-27 -27 -62.5 -42.5t-72.5 -15.5zM248 1358q-29 0 -51.5 -24.5t-22.5 -53.5q0 -31 21.5 -49.5t52.5 -18.5q28 0 51 21.5t23 46.5q0 29 -23 53.5
t-51 24.5z" />
    <glyph glyph-name="uni1974" unicode="&#x1974;" horiz-adv-x="838" 
d="M66 1139l182 127l291 207l243 -3l-456 -331h-260z" />
    <glyph glyph-name="uni1E0C" unicode="&#x1e0c;" horiz-adv-x="1067" 
d="M301 117h209q77 0 130.5 21.5t84 55t47.5 91.5t21.5 113.5t4.5 137.5v619q0 80 -6.5 136t-25 105.5t-51 79t-85 46t-125.5 16.5h-204v-1421zM144 0v1658h363q101 0 178.5 -23t128.5 -64t83 -103t45.5 -134t13.5 -163v-659q0 -121 -22 -212t-72 -160t-135.5 -104.5
t-207.5 -35.5h-375zM448 -401v224h159v-224h-159z" />
    <glyph glyph-name="uni1E0D" unicode="&#x1e0d;" horiz-adv-x="845" 
d="M378 -19q-153 0 -219.5 115t-66.5 382v219q0 98 7 172t26 139t50 106t80 64.5t116 23.5q117 -1 209 -103v559h150v-1658h-150v84q-90 -102 -202 -103zM408 100q87 0 172 78v822q-90 84 -176 84q-95 0 -128.5 -79.5t-33.5 -259.5v-279q0 -194 34 -280t132 -86zM348 -401
v224h159v-224h-159z" />
    <glyph glyph-name="uni1E36" unicode="&#x1e36;" horiz-adv-x="783" 
d="M144 0v1658h157v-1541h472v-117h-629zM148 -401v224h159v-224h-159z" />
    <glyph glyph-name="uni1E37" unicode="&#x1e37;" horiz-adv-x="414" 
d="M135 0v1658h151v-1658h-151zM138 -401v224h159v-224h-159z" />
    <glyph glyph-name="uni1E38" unicode="&#x1e38;" horiz-adv-x="783" 
d="M144 0v1658h157v-1541h472v-117h-629zM148 -401v224h159v-224h-159zM44 1798v96h367v-96h-367z" />
    <glyph glyph-name="uni1E39" unicode="&#x1e39;" horiz-adv-x="414" 
d="M135 0v1658h151v-1658h-151zM138 -401v224h159v-224h-159zM24 1798v96h367v-96h-367z" />
    <glyph glyph-name="uni1E40" unicode="&#x1e40;" horiz-adv-x="1316" 
d="M579 1798v224h159v-224h-159zM130 0l43 1658h153l330 -1439l332 1439h157l41 -1658h-130l-32 1322l-317 -1322h-100l-313 1319l-32 -1319h-132z" />
    <glyph glyph-name="uni1E41" unicode="&#x1e41;" horiz-adv-x="1319" 
d="M584 1327v224h159v-224h-159zM114 0v1184h141v-120q119 141 279 141q148 0 186 -156q124 156 292 156q88 0 144.5 -63.5t56.5 -207.5v-934h-142v930q0 97 -30 135t-86 38q-113 -2 -223 -123q2 -30 2 -46v-934h-140v930q0 97 -31 135t-87 38q-113 -2 -221 -123v-980h-141z
" />
    <glyph glyph-name="uni1E42" unicode="&#x1e42;" horiz-adv-x="1316" 
d="M130 0l43 1658h153l330 -1439l332 1439h157l41 -1658h-130l-32 1322l-317 -1322h-100l-313 1319l-32 -1319h-132zM578 -401v224h159v-224h-159z" />
    <glyph glyph-name="uni1E43" unicode="&#x1e43;" horiz-adv-x="1319" 
d="M114 0v1184h141v-120q119 141 279 141q148 0 186 -156q124 156 292 156q88 0 144.5 -63.5t56.5 -207.5v-934h-142v930q0 97 -30 135t-86 38q-113 -2 -223 -123q2 -30 2 -46v-934h-140v930q0 97 -31 135t-87 38q-113 -2 -221 -123v-980h-141zM588 -401v224h159v-224h-159z
" />
    <glyph glyph-name="uni1E44" unicode="&#x1e44;" horiz-adv-x="1065" 
d="M144 0v1658h115l528 -1287v1287h134v-1658h-110l-532 1302v-1302h-135zM469 1798v224h159v-224h-159z" />
    <glyph glyph-name="uni1E45" unicode="&#x1e45;" horiz-adv-x="838" 
d="M114 0v1184h150v-123q131 141 285 141q88 0 135 -65.5t47 -186.5v-950h-150v918q0 90 -27.5 128t-85.5 38q-97 0 -204 -109v-975h-150zM374 1395v224h159v-224h-159z" />
    <glyph glyph-name="uni1E46" unicode="&#x1e46;" horiz-adv-x="1065" 
d="M144 0v1658h115l528 -1287v1287h134v-1658h-110l-532 1302v-1302h-135zM458 -401v224h159v-224h-159z" />
    <glyph glyph-name="uni1E47" unicode="&#x1e47;" horiz-adv-x="838" 
d="M114 0v1184h150v-123q131 141 285 141q88 0 135 -65.5t47 -186.5v-950h-150v918q0 90 -27.5 128t-85.5 38q-97 0 -204 -109v-975h-150zM318 -401v224h159v-224h-159z" />
    <glyph glyph-name="uni1E5A" unicode="&#x1e5a;" horiz-adv-x="1049" 
d="M144 0v1658h377q221 0 316 -106.5t95 -312.5q0 -343 -231 -391l257 -848h-154l-243 815h-260v-815h-157zM301 930h211q150 0 209 73.5t59 235.5q0 160 -56 231t-207 71h-216v-611zM428 -401v224h159v-224h-159z" />
    <glyph glyph-name="uni1E5B" unicode="&#x1e5b;" horiz-adv-x="610" 
d="M126 0v1184h150v-163q54 90 126.5 133t146.5 43q18 0 26 -1v-162q-32 13 -72 13q-144 0 -227 -138v-909h-150zM128 -401v224h159v-224h-159z" />
    <glyph glyph-name="uni1E5C" unicode="&#x1e5c;" horiz-adv-x="1049" 
d="M144 0v1658h377q221 0 316 -106.5t95 -312.5q0 -343 -231 -391l257 -848h-154l-243 815h-260v-815h-157zM301 930h211q150 0 209 73.5t59 235.5q0 160 -56 231t-207 71h-216v-611zM428 -401v224h159v-224h-159zM314 1798v96h367v-96h-367z" />
    <glyph glyph-name="uni1E5D" unicode="&#x1e5d;" horiz-adv-x="610" 
d="M126 0v1184h150v-163q54 90 126.5 133t146.5 43q18 0 26 -1v-162q-32 13 -72 13q-144 0 -227 -138v-909h-150zM128 -401v224h159v-224h-159zM156 1324v96h367v-96h-367z" />
    <glyph glyph-name="uni1E6C" unicode="&#x1e6c;" horiz-adv-x="795" 
d="M318 -401v224h159v-224h-159zM323 0v1538h-333v120h815v-120h-325v-1538h-157z" />
    <glyph glyph-name="uni1E6D" unicode="&#x1e6d;" horiz-adv-x="573" 
d="M395 -15q-121 0 -167 66.5t-47 194.5v838h-143v100h143v366h150v-366h197v-100h-197v-824q0 -90 21 -123.5t85 -33.5q41 0 84 8v-113q-67 -13 -126 -13zM248 -401v224h159v-224h-159z" />
    <glyph glyph-name="endash" unicode="&#x2013;" horiz-adv-x="964" 
d="M83 430v124h810v-124h-810z" />
    <glyph glyph-name="emdash" unicode="&#x2014;" horiz-adv-x="1697" 
d="M83 504v120h1543v-120h-1543z" />
    <glyph glyph-name="quoteleft" unicode="&#x2018;" horiz-adv-x="582" 
d="M105 1250v170q0 134 33 204.5t117 92.5l34 -53q-55 -23 -74 -69t-19 -144h82v-201h-173z" />
    <glyph glyph-name="quoteright" unicode="&#x2019;" horiz-adv-x="356" 
d="M140 1191l-35 53q56 22 74.5 68t18.5 145h-82v201h173v-170q0 -134 -32.5 -204.5t-116.5 -92.5z" />
    <glyph glyph-name="quotesinglbase" unicode="&#x201a;" horiz-adv-x="572" 
d="M250 -242l-34 52q55 23 74 69t19 145h-82v201h173v-170q0 -134 -33 -204.5t-117 -92.5z" />
    <glyph glyph-name="quotedblleft" unicode="&#x201c;" horiz-adv-x="775" 
d="M123 1250v170q0 134 33 204.5t117 92.5l34 -53q-55 -23 -74 -69t-19 -144h82v-201h-173zM449 1250v170q0 134 33 204.5t117 92.5l34 -53q-55 -23 -74 -69t-19 -144h82v-201h-173z" />
    <glyph glyph-name="quotedblright" unicode="&#x201d;" horiz-adv-x="970" 
d="M300 1191l-35 52q56 23 74.5 69t18.5 144h-82v202h173v-171q0 -134 -32.5 -204t-116.5 -92zM587 1191l-35 52q56 23 74.5 69t18.5 144h-82v202h173v-171q0 -134 -32.5 -204t-116.5 -92z" />
    <glyph glyph-name="quotedblbase" unicode="&#x201e;" horiz-adv-x="809" 
d="M212 -242l-34 52q55 23 74 69t19 145h-82v201h173v-170q0 -134 -33 -204.5t-117 -92.5zM540 -242l-35 52q56 23 74.5 69t18.5 145h-82v201h173v-170q0 -134 -32.5 -204.5t-116.5 -92.5z" />
    <glyph glyph-name="dagger" unicode="&#x2020;" horiz-adv-x="716" 
d="M287 0v1126h-233v118h233v379h145v-379h232v-118h-232v-1126h-145z" />
    <glyph glyph-name="daggerdbl" unicode="&#x2021;" horiz-adv-x="758" 
d="M309 0v528h-244v105h244v446h-244v105h244v440h143v-440h243v-105h-243v-446h243v-105h-243v-528h-143z" />
    <glyph glyph-name="bullet" unicode="&#x2022;" horiz-adv-x="619" 
d="M309 608q-87 0 -135.5 53t-48.5 137t48.5 136.5t135.5 52.5t136 -52.5t49 -136.5t-49 -137t-136 -53z" />
    <glyph glyph-name="ellipsis" unicode="&#x2026;" horiz-adv-x="1088" 
d="M110 0v225h159v-225h-159zM474 0v225h159v-225h-159zM838 0v225h159v-225h-159z" />
    <glyph glyph-name="guilsinglleft" unicode="&#x2039;" horiz-adv-x="668" 
d="M584 176l-381 442v67l381 441v-191l-256 -283l256 -285v-191z" />
    <glyph glyph-name="guilsinglright" unicode="&#x203a;" horiz-adv-x="648" 
d="M152 236v190l256 284l-256 285v191l381 -442v-67z" />
    <glyph glyph-name="fraction" unicode="&#x2044;" horiz-adv-x="447" 
d="M0 0l319 1658h128l-317 -1658h-130z" />
    <glyph glyph-name="fraction" unicode="&#x2215;" horiz-adv-x="447" 
d="M0 0l319 1658h128l-317 -1658h-130z" />
    <glyph glyph-name="franc" unicode="&#x20a3;" horiz-adv-x="790" 
d="M301 445v-445h-157v445h-122v124h122v1089h598v-117h-441v-623h367v-116h-367v-233h195v-124h-195z" />
    <glyph glyph-name="Euro" unicode="&#x20ac;" horiz-adv-x="997" 
d="M531 -21q-98 0 -172.5 27t-121 72t-75.5 113t-40 142t-11 166v129h-131v86h131v267h-131v87h131v90q0 96 11.5 171.5t41 142t76.5 110.5t120.5 69t170.5 25q109 0 186 -32.5t122 -95.5t65 -147t20 -196v-77h-148v72q0 88 -9 147t-34.5 108.5t-75 73t-125.5 23.5
q-82 0 -135.5 -26t-80.5 -79t-37 -115.5t-10 -153.5v-110h260v-87h-260v-267h260v-86h-260v-154q0 -193 57.5 -281t205.5 -88q61 0 105 17.5t70.5 46.5t42 76.5t21 98t5.5 120.5v83h148v-72q0 -91 -11 -163.5t-38.5 -136.5t-71.5 -106t-112.5 -66t-159.5 -24z" />
    <glyph glyph-name="uni2116" unicode="&#x2116;" horiz-adv-x="1881" 
d="M1473 94q45 0 76 16.5t48.5 41.5t26.5 71t11.5 88t2.5 109v344q0 67 -2.5 109t-11.5 88t-26.5 71t-48.5 41.5t-76 16.5q-38 0 -66 -10t-46 -32.5t-29 -48t-16.5 -66.5t-7 -77.5t-1.5 -91.5v-344q0 -55 1.5 -91.5t7 -77.5t16.5 -66.5t29 -48t46 -32.5t66 -10zM1473 -19
q-91 0 -153 29t-97.5 88t-50.5 138.5t-15 191.5v328q0 226 70 336t246 110q177 0 246.5 -109.5t69.5 -336.5v-328q0 -112 -15 -191.5t-50.5 -138.5t-97.5 -88t-153 -29zM144 0v1658h115l528 -1287v1287h134v-1658h-110l-532 1302v-1302h-135z" />
    <glyph glyph-name="trademark" unicode="&#x2122;" horiz-adv-x="1445" 
d="M649 761v897h118l225 -694l233 694h112v-897h-98v657l-219 -657h-51l-221 648v-648h-99zM257 761v797h-182v100h471v-100h-170v-797h-119z" />
    <glyph glyph-name="partialdiff" unicode="&#x2202;" horiz-adv-x="907" 
d="M420 -23q-152 2 -237.5 97.5t-85.5 290.5q0 54 2 84l22 264q14 211 90.5 310.5t229.5 99.5q149 0 254 -118q2 14 6 78.5t4 84.5q0 111 -29.5 189.5t-87.5 125t-131.5 69.5t-172.5 31l32 100q73 0 138.5 -12.5t135.5 -49t120 -95t82.5 -159t32.5 -232.5q0 -26 -46 -724
q-8 -104 -32 -181.5t-56.5 -125t-78 -77t-91 -40t-101.5 -10.5zM426 90q94 0 146.5 61t66.5 214l42 542q-128 102 -225 102q-103 0 -145.5 -70t-53.5 -244l-21 -264q-3 -45 -3 -82q0 -132 46.5 -195.5t146.5 -63.5z" />
    <glyph glyph-name="Delta" unicode="&#x2206;" horiz-adv-x="1081" 
d="M514 1195l-406 -1072h801zM547 1434l526 -1434h-1067z" />
    <glyph glyph-name="product" unicode="&#x220f;" horiz-adv-x="1146" 
d="M144 -390v2048h859v-2048h-151v1933h-558v-1933h-150z" />
    <glyph glyph-name="summation" unicode="&#x2211;" horiz-adv-x="801" 
d="M66 -390l348 1045l-348 1003h620v-120h-435l307 -883l-312 -928h450v-117h-630z" />
    <glyph glyph-name="minus" unicode="&#x2212;" horiz-adv-x="740" 
d="M78 744v97h584v-97h-584z" />
    <glyph glyph-name="radical" unicode="&#x221a;" horiz-adv-x="705" 
d="M50 0l472 1658h132l-472 -1658h-132z" />
    <glyph glyph-name="infinity" unicode="&#x221e;" horiz-adv-x="1257" 
d="M312 383q-131 0 -199.5 78.5t-68.5 210.5t69 210.5t199 78.5q91 0 164 -45.5t162 -142.5q90 97 157 139q65 42 150 41h4q127 -2 195.5 -77t68.5 -204q-1 -129 -69.5 -204t-194.5 -77h-4q-85 -1 -150 41q-67 42 -157 139q-89 -97 -162 -142.5t-164 -45.5zM307 510
q56 1 109 37.5t134 124.5q-81 88 -134 124.5t-109 37.5h-3q-70 0 -108 -42q-40 -44 -39 -120q-1 -77 39 -120q39 -42 108 -42h3zM956 520h3q65 0 103 40q39 42 39 112t-39 112q-38 41 -103 40h-3q-52 0 -100 -33t-127 -119q79 -86 127 -119t100 -33z" />
    <glyph glyph-name="integral" unicode="&#x222b;" horiz-adv-x="591" 
d="M137 -389q-53 0 -121 13v113q55 -11 85 -11q64 0 83.5 38.5t19.5 131.5v1490q0 48 2.5 82.5t10 70.5t23 59.5t38.5 43t59 29t84 9.5q53 0 120 -13v-113q-71 11 -84 11q-64 0 -84 -38.5t-20 -131.5v-1490q0 -59 -3.5 -98.5t-16.5 -79.5t-36 -63.5t-63 -38t-97 -14.5z" />
    <glyph glyph-name="approxequal" unicode="&#x2248;" horiz-adv-x="846" 
d="M563 551q-37 0 -92 28.5t-108 57t-83 28.5q-51 0 -140 -83l-55 71q50 54 106 91.5t99 37.5q45 0 145.5 -56t134.5 -56q19 0 41 10.5t40 23.5t55 42l55 -69q-120 -126 -198 -126zM563 860q-37 0 -92 28.5t-108 57t-83 28.5q-50 0 -140 -82l-55 70q50 55 106 92t99 37
q45 0 145.5 -56t134.5 -56q19 0 41 10.5t40 23.5t55 42l55 -69q-122 -126 -198 -126z" />
    <glyph glyph-name="lessequal" unicode="&#x2264;" horiz-adv-x="762" 
d="M639 206l-567 418v149l567 429v-155l-452 -348l452 -339v-154zM64 0v97h584v-97h-584z" />
    <glyph glyph-name="greaterequal" unicode="&#x2265;" horiz-adv-x="739" 
d="M90 214v155l453 349l-453 337v155l569 -419v-148zM90 0v97h584v-97h-584z" />
    <glyph glyph-name="uni25CC" unicode="&#x25cc;" horiz-adv-x="855" 
d="M244 1099q24 0 41.5 17.5t17.5 42.5t-17.5 42.5t-41.5 17.5q-25 0 -42.5 -17.5t-17.5 -42.5t17.5 -42.5t42.5 -17.5zM391 1132q25 0 42.5 17.5t17.5 42.5q0 24 -17.5 41.5t-42.5 17.5q-24 0 -41.5 -17.5t-17.5 -41.5q0 -25 17.5 -42.5t41.5 -17.5zM675 648
q25 0 42.5 17.5t17.5 41.5q0 25 -17.5 42.5t-42.5 17.5q-24 0 -41.5 -17.5t-17.5 -42.5q0 -24 17.5 -41.5t41.5 -17.5zM105 647q25 0 42.5 17.5t17.5 41.5q0 25 -17.5 42.5t-42.5 17.5t-42.5 -17.5t-17.5 -42.5q0 -24 17.5 -41.5t42.5 -17.5zM107 820q25 0 42.5 17.5
t17.5 41.5q0 25 -17.5 42.5t-42.5 17.5t-42.5 -17.5t-17.5 -42.5q0 -24 17.5 -41.5t42.5 -17.5zM675 825q25 0 42.5 17.5t17.5 42.5t-17.5 42.5t-42.5 17.5t-42.5 -17.5t-17.5 -42.5t17.5 -42.5t42.5 -17.5zM129 985q24 0 41.5 17.5t17.5 42.5t-17.5 42.5t-41.5 17.5
q-25 0 -42.5 -17.5t-17.5 -42.5t17.5 -42.5t42.5 -17.5zM537 1099q25 0 42.5 17.5t17.5 42.5t-17.5 42.5t-42.5 17.5t-42.5 -17.5t-17.5 -42.5t17.5 -42.5t42.5 -17.5zM652 985q25 0 42.5 17.5t17.5 42.5t-17.5 42.5t-42.5 17.5t-42.5 -17.5t-17.5 -42.5t17.5 -42.5
t42.5 -17.5zM242 149q-25 0 -42.5 -17.5t-17.5 -42.5t17.5 -42.5t42.5 -17.5q24 0 41.5 17.5t17.5 42.5t-17.5 42.5t-41.5 17.5zM389 116q-24 0 -41.5 -17.5t-17.5 -42.5q0 -24 17.5 -41.5t41.5 -17.5q25 0 42.5 17.5t17.5 41.5q0 25 -17.5 42.5t-42.5 17.5zM673 600
q-24 0 -41.5 -17.5t-17.5 -41.5q0 -25 17.5 -42.5t41.5 -17.5q25 0 42.5 17.5t17.5 42.5q0 24 -17.5 41.5t-42.5 17.5zM107 601q-25 0 -42.5 -17.5t-17.5 -42.5t17.5 -42.5t42.5 -17.5t42.5 17.5t17.5 42.5t-17.5 42.5t-42.5 17.5zM105 428q-25 0 -42.5 -17.5t-17.5 -41.5
q0 -25 17.5 -42.5t42.5 -17.5t42.5 17.5t17.5 42.5q0 24 -17.5 41.5t-42.5 17.5zM673 423q-25 0 -42.5 -17.5t-17.5 -42.5t17.5 -42.5t42.5 -17.5t42.5 17.5t17.5 42.5t-17.5 42.5t-42.5 17.5zM127 263q-25 0 -42.5 -17.5t-17.5 -42.5t17.5 -42.5t42.5 -17.5q24 0 41.5 17.5
t17.5 42.5t-17.5 42.5t-41.5 17.5zM535 149q-25 0 -42.5 -17.5t-17.5 -42.5t17.5 -42.5t42.5 -17.5t42.5 17.5t17.5 42.5t-17.5 42.5t-42.5 17.5zM650 263q-25 0 -42.5 -17.5t-17.5 -42.5t17.5 -42.5t42.5 -17.5t42.5 17.5t17.5 42.5t-17.5 42.5t-42.5 17.5z" />
    <glyph glyph-name="uniA9E0" unicode="&#xa9e0;" horiz-adv-x="904" 
d="M347 633q-65 0 -65 -85q0 -87 65 -87t65 87q0 85 -65 85zM301 320q1 -25 1 -30q4 -67 26 -98q39 -44 125 -44q79 0 123.5 44.5t66.5 173.5l1 491q4 167 -89 225q-26 -166 -185 -221q-168 -47 -297 21q-76 34 -77 127q-2 90 110 175.5t361 67.5q150 -1 235 -81
q100 -84 97 -442v-364q-13 -203 -98 -283.5t-235 -81.5q-144 0 -230 81q-73 68 -91 217v222q0 141 60 203.5t142 62.5q89 0 138.5 -69t49.5 -166q0 -90 -44 -159q-45 -68 -190 -72zM406 1028q27 51 29 71q-131 10 -211 -16t-65 -84q35 -51 123.5 -37.5t123.5 66.5z" />
    <glyph glyph-name="uniA9E1" unicode="&#xa9e1;" horiz-adv-x="1304" 
d="M260 808q93 0 93 92q0 95 -93 95q-92 0 -92 -95q0 -92 92 -92zM705 371h2q0 -136 44 -180t123 -44q87 0 131 44.5t44 180.5v511q0 135 -44.5 180t-130.5 45q-40 -1 -130 -46l148 189q144 -9 218 -80q85 -80 92 -280l1 -528q-7 -200 -92 -280.5t-235 -81.5q-159 0 -245 96
q-9 -12 -19 -21q-42 -40 -100 -58.5t-132 -18.5q-150 1 -235 81.5t-92 260.5v7l154 168v-166q0 -116 44 -160.5t131 -44.5q79 0 123 44t44 180l1 513q0 135 -44.5 179.5t-123.5 44.5q-24 0 -45 -4q50 -15 81 -54q52 -66 52 -148q0 -94 -58 -153.5t-152 -59.5
q-63 0 -110.5 27.5t-75 74.5t-27.5 111q0 49 16 89h-1q19 119 84 180q85 81 235 82q157 -6 239.5 -103t85.5 -273h-2z" />
    <glyph glyph-name="uniA9E2" unicode="&#xa9e2;" horiz-adv-x="1297" 
d="M205 511v-146q0 -136 44 -180t123 -44q87 0 131 44q43 44 44 177l-1 524q-3 130 -43 171q-45 45 -131 45q-79 0 -123.5 -44.5t-44.5 -179.5v-154l-154 168q8 195 93 275q86 80 230 80q150 -1 235 -82q38 -36 63.5 -98.5t28.5 -185.5l1 -516q0 -136 44 -180t123 -44
q87 0 131 44.5t44 180.5v410q-147 3 -191.5 72t-44.5 159q0 97 49.5 166t138.5 69q82 0 142 -62.5t60 -203.5v-619q-7 -200 -92 -280.5t-235 -81.5q-144 0 -230 80q-8 8 -16 17q-7 -8 -15 -16q-85 -80 -235 -81q-144 0 -230 81q-84 78 -93 272zM995 1089q-65 0 -65 -85
q0 -87 65 -87t65 87q0 85 -65 85z" />
    <glyph glyph-name="uniA9E3" unicode="&#xa9e3;" horiz-adv-x="1520" 
d="M372 140q86 0 130.5 45t44.5 180v148q-104 -27 -187 -67t-124.5 -82t-39 -82t51.5 -97q45 -45 124 -45zM259 808q93 0 93 92q0 95 -93 95q-92 0 -92 -95q0 -92 92 -92zM1114 140q79 0 124 45q49 57 51.5 97t-39 82t-124.5 82t-187 67v-148q0 -135 44.5 -180t130.5 -45z
M703 896v-234h80v223q7 200 92 280.5t235 81.5q144 0 230 -80q70 -64 88 -196l5 -64l-154 -174v144q0 136 -44 180t-123 44q-87 0 -131 -44.5t-44 -180.5v-211q497 -147 496 -372q-6 -137 -92 -217.5t-230 -80.5q-150 1 -235 81.5t-92 280.5v162h-82v-162
q-7 -200 -92 -280.5t-235 -81.5q-144 0 -230 80.5t-92 217.5q-1 225 496 372v211q0 136 -44 181q-48 44 -124 49q-24 0 -45 -4q50 -15 81 -54q52 -66 52 -148q0 -94 -58 -153.5t-152 -59.5q-63 0 -110.5 27.5t-75 74.5t-27.5 111q0 49 16 89h-1q19 119 84 180q85 81 235 82
q62 -2 113 -19q70 -20 118 -66q63 -60 83 -186q8 -39 10 -84h-1z" />
    <glyph glyph-name="uniA9E4" unicode="&#xa9e4;" horiz-adv-x="1300" 
d="M877 141q80 0 124 44q50 57 52.5 97t-39 82t-125 82t-186.5 67v-148q0 -135 44.5 -179.5t129.5 -44.5zM205 366q0 -136 44 -180t123 -44q87 0 131 44q43 44 44 176l-1 523q7 200 92 280.5t235 81.5q144 0 230 -80q70 -64 88 -196l6 -64l-155 -174v144q0 136 -44 180
t-123 44q-87 0 -131 -44.5t-44 -180.5v-211q498 -147 496 -372q-6 -137 -92 -217.5t-230 -80.5q-150 1 -235 82q-8 7 -15 16q-84 -96 -250 -97q-144 0 -230 80.5t-93 280.5l1 528q7 200 92 280q99 77 203 80l129 -187q-59 42 -96 44q-86 0 -130.5 -45t-44.5 -180v-511z" />
    <glyph glyph-name="uniA9E6" unicode="&#xa9e6;" horiz-adv-x="1030" 
d="M461 1099l-105 112l533 496l105 -112zM151 1164l-105 112l534 496l104 -112z" />
    <glyph glyph-name="uniA9EB" unicode="&#xa9eb;" horiz-adv-x="1297" 
d="M575.5 175.5q-25.5 62.5 -28.5 185.5l-1 516q0 136 -44 180t-123 44q-87 0 -131 -44.5t-44 -180.5v-511q0 -135 44.5 -180t130.5 -45q37 2 96 44l-129 -187q-104 3 -203 80q-85 80 -92 280l-1 528q7 200 92 280.5t235 81.5q144 0 230 -80q8 -8 16 -17q7 8 15 16
q85 80 235 81q144 0 230 -80.5t93 -280.5l1 -530q-7 -200 -93 -280.5t-230 -80.5q-150 1 -235 82q-38 36 -63.5 98.5zM701 356q3 -130 43 -171q45 -45 131 -45q79 0 123.5 44.5t44.5 179.5l-1 513q0 136 -44 180t-123 44q-87 0 -131 -44q-43 -44 -44 -177zM878 426
q-37 0 -62 29.5t-25 67.5v213q0 39 25 68.5t62 29.5t62.5 -29.5t25.5 -68.5v-213q0 -40 -25.5 -68.5t-62.5 -28.5z" />
    <glyph glyph-name="uniA9FB" unicode="&#xa9fb;" horiz-adv-x="1297" 
d="M608 77q-85 -81 -235 -82q-144 0 -230 80.5t-93 280.5l1 530q7 200 93 280.5t230 80.5q150 -1 235 -81q8 -8 15 -16q8 9 16 17q86 80 230 80q150 -1 235 -81.5t92 -280.5l-1 -528q-7 -200 -92 -280q-99 -77 -203 -80l-129 187q59 -42 96 -44q86 0 130.5 45t44.5 180v511
q0 136 -44 180.5t-131 44.5q-79 0 -123 -44t-44 -180l-1 -516q-3 -123 -28.5 -185.5t-63.5 -98.5zM546 356l1 524q-1 133 -44 177q-44 44 -131 44q-79 0 -123 -44t-44 -180l-1 -513q0 -135 44.5 -179.5t123.5 -44.5q86 0 131 45q40 41 43 171zM878 426q-37 0 -62 29.5
t-25 67.5v213q0 39 25 68.5t62 29.5t62.5 -29.5t25.5 -68.5v-213q0 -40 -25.5 -68.5t-62.5 -28.5z" />
    <glyph glyph-name="uniA9FC" unicode="&#xa9fc;" horiz-adv-x="1297" 
d="M878 426q-37 0 -62 29.5t-25 67.5v213q0 39 25 68.5t62 29.5t62.5 -29.5t25.5 -68.5v-213q0 -40 -25.5 -68.5t-62.5 -28.5zM700 361q1 -133 45 -176q44 -45 123 -45q86 0 130.5 45t44.5 180v511q0 136 -44 180.5t-131 44.5q-79 0 -123 -44t-44 -180zM546 356l1 524
q-1 133 -44 177q-44 44 -131 44q-79 0 -123 -44t-44 -180l-1 -513q0 -135 44.5 -179.5t123.5 -44.5q86 0 131 45q40 41 43 171zM623 92q-7 -8 -15 -15q-85 -81 -235 -82q-144 0 -230 80.5t-93 280.5l1 530q7 200 93 280.5t230 80.5q150 -1 235 -81q8 -8 15 -16q8 9 16 17
q86 80 230 80q150 -1 235 -81.5t92 -280.5l-1 -528q-7 -200 -92 -280.5t-235 -81.5q-144 0 -230 81q-8 7 -16 16z" />
    <glyph glyph-name="uniA9FD" unicode="&#xa9fd;" horiz-adv-x="834" 
d="M389 491q-38 0 -69 30.5t-31 70.5v94q0 35 31 64.5t69 29.5q37 0 65.5 -28.5t28.5 -65.5v-101q0 -36 -28.5 -65t-65.5 -29zM374 -4q-144 0 -230 80.5t-93 280.5l-1 530q7 200 93 280q63 61 142 79l55 -144q-55 -8 -91 -44q-45 -44 -45 -179l1 -513q0 -136 44 -180
t123 -44q87 0 130.5 44t44.5 177l-1 524q-3 130 -43 171q-35 35 -94 43l57 145q74 -17 142 -80q92 -96 92 -276l1 -534q0 -206 -80.5 -282.5t-246.5 -77.5z" />
    <glyph glyph-name="uniAA61" unicode="&#xaa61;" horiz-adv-x="1297" 
d="M701 356q3 -130 43 -171q45 -45 131 -45q79 0 123.5 44.5t44.5 179.5l-1 513q0 136 -44 180t-123 44q-87 0 -131 -44q-43 -44 -44 -177zM204 596h-1v-8q25 -222 200 -229v-103q-188 -21 -200 -173v-83h-156v83q16 220 142 237q-140 28 -140 306l1 149v110q7 200 92 280.5
t235 81.5q144 0 230 -80q8 -8 16 -17q7 8 15 16q85 80 235 81q144 0 230 -80.5t93 -280.5l1 -530q-7 -200 -93 -280.5t-230 -80.5q-150 1 -235 82q-38 36 -63.5 98.5t-28.5 185.5l-1 516q0 136 -44 180t-123 44q-87 0 -131 -44.5t-44 -180.5v-280z" />
    <glyph glyph-name="uniAA66" unicode="&#xaa66;" horiz-adv-x="1297" 
d="M608 77q-85 -81 -235 -82q-144 0 -230 80.5t-93 280.5l1 530q7 200 93 280.5t230 80.5q150 -1 235 -81q8 -8 15 -16q8 9 16 17q86 80 230 80q150 -1 235 -81.5t92 -280.5l-1 -528q-7 -200 -92 -280q-99 -77 -203 -80l-129 187q59 -42 96 -44q86 0 130.5 45t44.5 180v511
q0 136 -44 180.5t-131 44.5q-79 0 -123 -44t-44 -180l-1 -516q-3 -123 -28.5 -185.5t-63.5 -98.5zM546 356l1 524q-1 133 -44 177q-44 44 -131 44q-79 0 -123 -44t-44 -180l-1 -513q0 -135 44.5 -179.5t123.5 -44.5q86 0 131 45q40 41 43 171zM369 426q-37 0 -62.5 28.5
t-25.5 68.5v213q0 39 25.5 68.5t62.5 29.5t62 -29.5t25 -68.5v-213q0 -38 -25 -67.5t-62 -29.5z" />
    <glyph glyph-name="uniAA67" unicode="&#xaa67;" horiz-adv-x="1297" 
d="M369 426q-37 0 -62.5 28.5t-25.5 68.5v213q0 39 25.5 68.5t62.5 29.5t62 -29.5t25 -68.5v-213q0 -38 -25 -67.5t-62 -29.5zM547 361l-1 516q0 136 -44 180t-123 44q-87 0 -131 -44.5t-44 -180.5v-511q0 -135 44.5 -180t130.5 -45q79 0 124 45q43 43 44 176zM701 356
q3 -130 44 -171q44 -45 130 -45q79 0 123.5 44.5t44.5 179.5l-1 513q0 136 -44 180t-123 44q-87 0 -131 -44q-43 -44 -44 -177zM624 92q-8 -9 -16 -16q-86 -81 -230 -81q-150 1 -235 81.5t-92 280.5l-1 528q7 200 92 280.5t235 81.5q144 0 230 -80q8 -8 16 -17q7 8 15 16
q85 80 235 81q144 0 230 -80.5t93 -280.5l1 -530q-7 -200 -93 -280.5t-230 -80.5q-150 1 -235 82q-8 7 -15 15z" />
    <glyph glyph-name="uniAA68" unicode="&#xaa68;" horiz-adv-x="1297" 
d="M369 426q-37 0 -62.5 28.5t-25.5 68.5v213q0 39 25.5 68.5t62.5 29.5t62 -29.5t25 -68.5v-213q0 -38 -25 -67.5t-62 -29.5zM546 356l1 524q-1 133 -44 177q-44 44 -131 44q-79 0 -123 -44t-44 -180l-1 -513q0 -135 44.5 -179.5t123.5 -44.5q86 0 131 45q40 41 43 171z
M995 153q65 0 65 85q0 87 -65 87t-65 -87q0 -85 65 -85zM1197 885v-619q0 -141 -60 -203.5t-142 -62.5q-89 0 -138.5 69t-49.5 166q0 90 44.5 159t191.5 72v410q0 136 -44 180.5t-131 44.5q-79 0 -123 -44t-44 -180l-1 -516q-3 -123 -28.5 -185.5t-63.5 -98.5
q-85 -81 -235 -82q-144 0 -230 80.5t-93 280.5l1 530q7 200 93 280.5t230 80.5q150 -1 235 -81q8 -8 15 -16q8 9 16 17q86 80 230 80q150 -1 235 -81.5t92 -280.5z" />
    <glyph glyph-name="uniAA69" unicode="&#xaa69;" horiz-adv-x="1297" 
d="M369 426q-37 0 -62.5 28.5t-25.5 68.5v213q0 39 25.5 68.5t62.5 29.5t62 -29.5t25 -68.5v-213q0 -38 -25 -67.5t-62 -29.5zM547 361l-1 516q0 136 -44 180t-123 44q-87 0 -131 -44.5t-44 -180.5v-511q0 -135 44.5 -180t130.5 -45q79 0 124 45q43 43 44 176zM920 144
q48 10 79 41q44 44 44 179l-1 513q0 136 -44 180t-123 44q-87 0 -131 -44q-43 -44 -44 -177l1 -334q39 17 88 17q94 0 152 -59.5t58 -153.5q0 -82 -52 -148q-31 -39 -81 -54q21 -4 45 -4h9zM704 305q18 -50 85 -50q93 0 93 95q0 92 -93 92q-73 0 -88 -58v-28q1 -28 3 -51z
M624 92q-8 -9 -16 -16q-86 -81 -230 -81q-150 1 -235 81.5t-92 280.5l-1 528q7 200 92 280.5t235 81.5q144 0 230 -80q8 -8 16 -17q7 8 15 16q85 80 235 81q144 0 230 -80.5t93 -280.5l1 -530q-7 -200 -93 -280.5t-230 -80.5q-150 1 -235 82q-8 7 -15 15z" />
    <glyph glyph-name="uniAA6A" unicode="&#xaa6a;" horiz-adv-x="1297" 
d="M547 361l-1 516q0 136 -44 180t-123 44q-87 0 -131 -44.5t-44 -180.5v-511q0 -135 44.5 -180t130.5 -45q79 0 124 45q43 43 44 176zM920 144q48 10 79 41q44 44 44 179l-1 513q0 136 -44 180t-123 44q-87 0 -131 -44q-43 -44 -44 -177l1 -334q39 17 88 17q94 0 152 -59.5
t58 -153.5q0 -82 -52 -148q-31 -39 -81 -54q21 -4 45 -4h9zM704 305q18 -50 85 -50q93 0 93 95q0 92 -93 92q-73 0 -88 -58v-28q1 -28 3 -51zM624 92q-8 -9 -16 -16q-86 -81 -230 -81q-150 1 -235 81.5t-92 280.5l-1 528q7 200 92 280.5t235 81.5q144 0 230 -80q8 -8 16 -17
q7 8 15 16q85 80 235 81q144 0 230 -80.5t93 -280.5l1 -530q-7 -200 -93 -280.5t-230 -80.5q-150 1 -235 82q-8 7 -15 15z" />
    <glyph glyph-name="uniAA6E" unicode="&#xaa6e;" horiz-adv-x="1297" 
d="M252 153q65 0 65 85q0 87 -65 87t-65 -87q0 -85 65 -85zM51 886q7 200 93 280.5t230 80.5q150 -1 235 -81q93 -75 93 -253q-1 -36 -2 -552q1 -133 45 -177t123 -44q86 0 130.5 45t44.5 180v511q0 136 -44 180.5t-131 44.5q-38 -3 -104 -25l136 175q118 -10 205 -85
q85 -81 92 -281l-1 -528q-7 -200 -92 -280.5t-235 -81.5q-144 0 -230 81q-93 73 -93 252l1 552q-1 133 -44.5 177t-130.5 44q-79 0 -123 -44t-44 -180l-1 -388v-23q147 -3 191.5 -72t44.5 -159q0 -97 -49.5 -166t-138.5 -69q-82 0 -142 62.5t-60 203.5z" />
    <glyph glyph-name="uniAA7D" unicode="&#xaa7d;" horiz-adv-x="874" 
d="M330 195q106 -2 214.5 -2h184.5q31 -7 46.5 -29.5t15.5 -48t-15.5 -47t-46.5 -27.5h-594q-35 6 -51 28.5t-15 48t18 48t48 29.5h195z" />
    <glyph glyph-name="glyph3" horiz-adv-x="508" 
 />
    <glyph glyph-name="uni102B.ccmp" horiz-adv-x="1099" 
d="M244 1099q24 0 41.5 17.5t17.5 42.5t-17.5 42.5t-41.5 17.5q-25 0 -42.5 -17.5t-17.5 -42.5t17.5 -42.5t42.5 -17.5zM391 1132q25 0 42.5 17.5t17.5 42.5q0 24 -17.5 41.5t-42.5 17.5q-24 0 -41.5 -17.5t-17.5 -41.5q0 -25 17.5 -42.5t41.5 -17.5zM675 648
q25 0 42.5 17.5t17.5 41.5q0 25 -17.5 42.5t-42.5 17.5q-24 0 -41.5 -17.5t-17.5 -42.5q0 -24 17.5 -41.5t41.5 -17.5zM105 647q25 0 42.5 17.5t17.5 41.5q0 25 -17.5 42.5t-42.5 17.5t-42.5 -17.5t-17.5 -42.5q0 -24 17.5 -41.5t42.5 -17.5zM107 820q25 0 42.5 17.5
t17.5 41.5q0 25 -17.5 42.5t-42.5 17.5t-42.5 -17.5t-17.5 -42.5q0 -24 17.5 -41.5t42.5 -17.5zM675 825q25 0 42.5 17.5t17.5 42.5t-17.5 42.5t-42.5 17.5t-42.5 -17.5t-17.5 -42.5t17.5 -42.5t42.5 -17.5zM129 985q24 0 41.5 17.5t17.5 42.5t-17.5 42.5t-41.5 17.5
q-25 0 -42.5 -17.5t-17.5 -42.5t17.5 -42.5t42.5 -17.5zM537 1099q25 0 42.5 17.5t17.5 42.5t-17.5 42.5t-42.5 17.5t-42.5 -17.5t-17.5 -42.5t17.5 -42.5t42.5 -17.5zM652 985q25 0 42.5 17.5t17.5 42.5t-17.5 42.5t-42.5 17.5t-42.5 -17.5t-17.5 -42.5t17.5 -42.5
t42.5 -17.5zM242 149q-25 0 -42.5 -17.5t-17.5 -42.5t17.5 -42.5t42.5 -17.5q24 0 41.5 17.5t17.5 42.5t-17.5 42.5t-41.5 17.5zM389 116q-24 0 -41.5 -17.5t-17.5 -42.5q0 -24 17.5 -41.5t41.5 -17.5q25 0 42.5 17.5t17.5 41.5q0 25 -17.5 42.5t-42.5 17.5zM673 600
q-24 0 -41.5 -17.5t-17.5 -41.5q0 -25 17.5 -42.5t41.5 -17.5q25 0 42.5 17.5t17.5 42.5q0 24 -17.5 41.5t-42.5 17.5zM107 601q-25 0 -42.5 -17.5t-17.5 -42.5t17.5 -42.5t42.5 -17.5t42.5 17.5t17.5 42.5t-17.5 42.5t-42.5 17.5zM105 428q-25 0 -42.5 -17.5t-17.5 -41.5
q0 -25 17.5 -42.5t42.5 -17.5t42.5 17.5t17.5 42.5q0 24 -17.5 41.5t-42.5 17.5zM673 423q-25 0 -42.5 -17.5t-17.5 -42.5t17.5 -42.5t42.5 -17.5t42.5 17.5t17.5 42.5t-17.5 42.5t-42.5 17.5zM127 263q-25 0 -42.5 -17.5t-17.5 -42.5t17.5 -42.5t42.5 -17.5q24 0 41.5 17.5
t17.5 42.5t-17.5 42.5t-41.5 17.5zM535 149q-25 0 -42.5 -17.5t-17.5 -42.5t17.5 -42.5t42.5 -17.5t42.5 17.5t17.5 42.5t-17.5 42.5t-42.5 17.5zM650 263q-25 0 -42.5 -17.5t-17.5 -42.5t17.5 -42.5t42.5 -17.5t42.5 17.5t17.5 42.5t-17.5 42.5t-42.5 17.5zM844 1625
q1 54 -38.5 90t-115.5 35q-72 -7 -107 -48.5t-35 -116.5q-1 -77 39.5 -118.5t132.5 -49.5l-26 -11l-139 -102q-43 18 -76 49q-81 75 -86 237q12 308 302 308q140 -1 223 -78q66 -61 81 -170v-37v-1611h-154l-1 1576v47z" />
    <glyph glyph-name="uni102B.ccmp_uni103A.ccmp.ccmp" horiz-adv-x="1192" 
d="M244 1099q24 0 41.5 17.5t17.5 42.5t-17.5 42.5t-41.5 17.5q-25 0 -42.5 -17.5t-17.5 -42.5t17.5 -42.5t42.5 -17.5zM391 1132q25 0 42.5 17.5t17.5 42.5q0 24 -17.5 41.5t-42.5 17.5q-24 0 -41.5 -17.5t-17.5 -41.5q0 -25 17.5 -42.5t41.5 -17.5zM675 648
q25 0 42.5 17.5t17.5 41.5q0 25 -17.5 42.5t-42.5 17.5q-24 0 -41.5 -17.5t-17.5 -42.5q0 -24 17.5 -41.5t41.5 -17.5zM105 647q25 0 42.5 17.5t17.5 41.5q0 25 -17.5 42.5t-42.5 17.5t-42.5 -17.5t-17.5 -42.5q0 -24 17.5 -41.5t42.5 -17.5zM107 820q25 0 42.5 17.5
t17.5 41.5q0 25 -17.5 42.5t-42.5 17.5t-42.5 -17.5t-17.5 -42.5q0 -24 17.5 -41.5t42.5 -17.5zM675 825q25 0 42.5 17.5t17.5 42.5t-17.5 42.5t-42.5 17.5t-42.5 -17.5t-17.5 -42.5t17.5 -42.5t42.5 -17.5zM129 985q24 0 41.5 17.5t17.5 42.5t-17.5 42.5t-41.5 17.5
q-25 0 -42.5 -17.5t-17.5 -42.5t17.5 -42.5t42.5 -17.5zM537 1099q25 0 42.5 17.5t17.5 42.5t-17.5 42.5t-42.5 17.5t-42.5 -17.5t-17.5 -42.5t17.5 -42.5t42.5 -17.5zM652 985q25 0 42.5 17.5t17.5 42.5t-17.5 42.5t-42.5 17.5t-42.5 -17.5t-17.5 -42.5t17.5 -42.5
t42.5 -17.5zM242 149q-25 0 -42.5 -17.5t-17.5 -42.5t17.5 -42.5t42.5 -17.5q24 0 41.5 17.5t17.5 42.5t-17.5 42.5t-41.5 17.5zM389 116q-24 0 -41.5 -17.5t-17.5 -42.5q0 -24 17.5 -41.5t41.5 -17.5q25 0 42.5 17.5t17.5 41.5q0 25 -17.5 42.5t-42.5 17.5zM673 600
q-24 0 -41.5 -17.5t-17.5 -41.5q0 -25 17.5 -42.5t41.5 -17.5q25 0 42.5 17.5t17.5 42.5q0 24 -17.5 41.5t-42.5 17.5zM107 601q-25 0 -42.5 -17.5t-17.5 -42.5t17.5 -42.5t42.5 -17.5t42.5 17.5t17.5 42.5t-17.5 42.5t-42.5 17.5zM105 428q-25 0 -42.5 -17.5t-17.5 -41.5
q0 -25 17.5 -42.5t42.5 -17.5t42.5 17.5t17.5 42.5q0 24 -17.5 41.5t-42.5 17.5zM673 423q-25 0 -42.5 -17.5t-17.5 -42.5t17.5 -42.5t42.5 -17.5t42.5 17.5t17.5 42.5t-17.5 42.5t-42.5 17.5zM127 263q-25 0 -42.5 -17.5t-17.5 -42.5t17.5 -42.5t42.5 -17.5q24 0 41.5 17.5
t17.5 42.5t-17.5 42.5t-41.5 17.5zM535 149q-25 0 -42.5 -17.5t-17.5 -42.5t17.5 -42.5t42.5 -17.5t42.5 17.5t17.5 42.5t-17.5 42.5t-42.5 17.5zM650 263q-25 0 -42.5 -17.5t-17.5 -42.5t17.5 -42.5t42.5 -17.5t42.5 17.5t17.5 42.5t-17.5 42.5t-42.5 17.5zM1014 1624
v-1622h-154l-1 1576v47q1 54 -38.5 90t-115.5 35q-72 -7 -107 -48.5t-35 -116.5q-1 -77 39.5 -118.5t132.5 -49.5l-26 -11l-139 -102q-43 18 -76 49q-81 75 -86 237q12 308 302 308q140 -1 223 -78q5 -4 9 -9q76 88 231 88q140 -1 224 -78q9 -8 17 -18l-81 -149
q-9 45 -36 72q-44 44 -126 44q-74 0 -117 -45q-35 -35 -40 -101z" />
    <glyph glyph-name="glyph431" horiz-adv-x="293" 
d="M194 1624v-1622h-154l-1 1576v47q1 54 -38.5 90t-115.5 35q-72 -7 -107 -48.5t-35 -116.5q-1 -77 39.5 -118.5t132.5 -49.5l-26 -11l-139 -102q-43 18 -76 49q-81 75 -86 237q12 308 302 308q140 -1 223 -78q5 -4 9 -9q76 88 231 88q140 -1 224 -78q9 -8 17 -18l-81 -149
q-9 45 -36 72q-44 44 -126 44q-74 0 -117 -45q-35 -35 -40 -101z" />
    <glyph glyph-name="uni102C.ccmp" horiz-adv-x="1445" 
d="M244 1099q24 0 41.5 17.5t17.5 42.5t-17.5 42.5t-41.5 17.5q-25 0 -42.5 -17.5t-17.5 -42.5t17.5 -42.5t42.5 -17.5zM391 1132q25 0 42.5 17.5t17.5 42.5q0 24 -17.5 41.5t-42.5 17.5q-24 0 -41.5 -17.5t-17.5 -41.5q0 -25 17.5 -42.5t41.5 -17.5zM675 648
q25 0 42.5 17.5t17.5 41.5q0 25 -17.5 42.5t-42.5 17.5q-24 0 -41.5 -17.5t-17.5 -42.5q0 -24 17.5 -41.5t41.5 -17.5zM105 647q25 0 42.5 17.5t17.5 41.5q0 25 -17.5 42.5t-42.5 17.5t-42.5 -17.5t-17.5 -42.5q0 -24 17.5 -41.5t42.5 -17.5zM107 820q25 0 42.5 17.5
t17.5 41.5q0 25 -17.5 42.5t-42.5 17.5t-42.5 -17.5t-17.5 -42.5q0 -24 17.5 -41.5t42.5 -17.5zM675 825q25 0 42.5 17.5t17.5 42.5t-17.5 42.5t-42.5 17.5t-42.5 -17.5t-17.5 -42.5t17.5 -42.5t42.5 -17.5zM129 985q24 0 41.5 17.5t17.5 42.5t-17.5 42.5t-41.5 17.5
q-25 0 -42.5 -17.5t-17.5 -42.5t17.5 -42.5t42.5 -17.5zM537 1099q25 0 42.5 17.5t17.5 42.5t-17.5 42.5t-42.5 17.5t-42.5 -17.5t-17.5 -42.5t17.5 -42.5t42.5 -17.5zM652 985q25 0 42.5 17.5t17.5 42.5t-17.5 42.5t-42.5 17.5t-42.5 -17.5t-17.5 -42.5t17.5 -42.5
t42.5 -17.5zM242 149q-25 0 -42.5 -17.5t-17.5 -42.5t17.5 -42.5t42.5 -17.5q24 0 41.5 17.5t17.5 42.5t-17.5 42.5t-41.5 17.5zM389 116q-24 0 -41.5 -17.5t-17.5 -42.5q0 -24 17.5 -41.5t41.5 -17.5q25 0 42.5 17.5t17.5 41.5q0 25 -17.5 42.5t-42.5 17.5zM673 600
q-24 0 -41.5 -17.5t-17.5 -41.5q0 -25 17.5 -42.5t41.5 -17.5q25 0 42.5 17.5t17.5 42.5q0 24 -17.5 41.5t-42.5 17.5zM107 601q-25 0 -42.5 -17.5t-17.5 -42.5t17.5 -42.5t42.5 -17.5t42.5 17.5t17.5 42.5t-17.5 42.5t-42.5 17.5zM105 428q-25 0 -42.5 -17.5t-17.5 -41.5
q0 -25 17.5 -42.5t42.5 -17.5t42.5 17.5t17.5 42.5q0 24 -17.5 41.5t-42.5 17.5zM673 423q-25 0 -42.5 -17.5t-17.5 -42.5t17.5 -42.5t42.5 -17.5t42.5 17.5t17.5 42.5t-17.5 42.5t-42.5 17.5zM127 263q-25 0 -42.5 -17.5t-17.5 -42.5t17.5 -42.5t42.5 -17.5q24 0 41.5 17.5
t17.5 42.5t-17.5 42.5t-41.5 17.5zM535 149q-25 0 -42.5 -17.5t-17.5 -42.5t17.5 -42.5t42.5 -17.5t42.5 17.5t17.5 42.5t-17.5 42.5t-42.5 17.5zM650 263q-25 0 -42.5 -17.5t-17.5 -42.5t17.5 -42.5t42.5 -17.5t42.5 17.5t17.5 42.5t-17.5 42.5t-42.5 17.5zM736 1122
q121 119 283 118q150 -1 235 -81.5t92 -280.5l-1 -528q-7 -200 -92 -280q-99 -77 -203 -80l-157 213q73 -60 124 -70q86 0 130.5 45t44.5 180v511q0 136 -44 180.5t-131 44.5q-79 0 -131.5 -40t-82.5 -164z" />
    <glyph glyph-name="uni102D.ccmp" horiz-adv-x="873" 
d="M245 1099q24 0 41.5 17.5t17.5 42.5t-17.5 42.5t-41.5 17.5q-25 0 -42.5 -17.5t-17.5 -42.5t17.5 -42.5t42.5 -17.5zM392 1132q25 0 42.5 17.5t17.5 42.5q0 24 -17.5 41.5t-42.5 17.5q-24 0 -41.5 -17.5t-17.5 -41.5q0 -25 17.5 -42.5t41.5 -17.5zM676 648
q25 0 42.5 17.5t17.5 41.5q0 25 -17.5 42.5t-42.5 17.5q-24 0 -41.5 -17.5t-17.5 -42.5q0 -24 17.5 -41.5t41.5 -17.5zM106 647q25 0 42.5 17.5t17.5 41.5q0 25 -17.5 42.5t-42.5 17.5t-42.5 -17.5t-17.5 -42.5q0 -24 17.5 -41.5t42.5 -17.5zM108 820q25 0 42.5 17.5
t17.5 41.5q0 25 -17.5 42.5t-42.5 17.5t-42.5 -17.5t-17.5 -42.5q0 -24 17.5 -41.5t42.5 -17.5zM676 825q25 0 42.5 17.5t17.5 42.5t-17.5 42.5t-42.5 17.5t-42.5 -17.5t-17.5 -42.5t17.5 -42.5t42.5 -17.5zM130 985q24 0 41.5 17.5t17.5 42.5t-17.5 42.5t-41.5 17.5
q-25 0 -42.5 -17.5t-17.5 -42.5t17.5 -42.5t42.5 -17.5zM538 1099q25 0 42.5 17.5t17.5 42.5t-17.5 42.5t-42.5 17.5t-42.5 -17.5t-17.5 -42.5t17.5 -42.5t42.5 -17.5zM653 985q25 0 42.5 17.5t17.5 42.5t-17.5 42.5t-42.5 17.5t-42.5 -17.5t-17.5 -42.5t17.5 -42.5
t42.5 -17.5zM243 29q24 0 41.5 17.5t17.5 42.5t-17.5 42.5t-41.5 17.5q-25 0 -42.5 -17.5t-17.5 -42.5t17.5 -42.5t42.5 -17.5zM390 -3q25 0 42.5 17.5t17.5 41.5q0 25 -17.5 42.5t-42.5 17.5q-24 0 -41.5 -17.5t-17.5 -42.5q0 -24 17.5 -41.5t41.5 -17.5zM674 481
q25 0 42.5 17.5t17.5 42.5q0 24 -17.5 41.5t-42.5 17.5q-24 0 -41.5 -17.5t-17.5 -41.5q0 -25 17.5 -42.5t41.5 -17.5zM108 481q25 0 42.5 17.5t17.5 42.5t-17.5 42.5t-42.5 17.5t-42.5 -17.5t-17.5 -42.5t17.5 -42.5t42.5 -17.5zM106 309q25 0 42.5 17.5t17.5 42.5
q0 24 -17.5 41.5t-42.5 17.5t-42.5 -17.5t-17.5 -41.5q0 -25 17.5 -42.5t42.5 -17.5zM674 303q25 0 42.5 17.5t17.5 42.5t-17.5 42.5t-42.5 17.5t-42.5 -17.5t-17.5 -42.5t17.5 -42.5t42.5 -17.5zM128 143q24 0 41.5 17.5t17.5 42.5t-17.5 42.5t-41.5 17.5
q-25 0 -42.5 -17.5t-17.5 -42.5t17.5 -42.5t42.5 -17.5zM536 29q25 0 42.5 17.5t17.5 42.5t-17.5 42.5t-42.5 17.5t-42.5 -17.5t-17.5 -42.5t17.5 -42.5t42.5 -17.5zM651 143q25 0 42.5 17.5t17.5 42.5t-17.5 42.5t-42.5 17.5t-42.5 -17.5t-17.5 -42.5t17.5 -42.5
t42.5 -17.5zM390 1277q-135 0 -215.5 75t-85.5 237q12 308 302 308q140 -1 223.5 -78t82.5 -234q-8 -165 -87.5 -236t-219.5 -72zM389 1405q81 0 123.5 43.5t43.5 137.5q3 94 -41 138t-126 44q-74 0 -117 -45t-41 -139q1 -93 42.5 -136t115.5 -43z" />
    <glyph glyph-name="uni102E.ccmp" horiz-adv-x="873" 
d="M245 1099q24 0 41.5 17.5t17.5 42.5t-17.5 42.5t-41.5 17.5q-25 0 -42.5 -17.5t-17.5 -42.5t17.5 -42.5t42.5 -17.5zM392 1132q25 0 42.5 17.5t17.5 42.5q0 24 -17.5 41.5t-42.5 17.5q-24 0 -41.5 -17.5t-17.5 -41.5q0 -25 17.5 -42.5t41.5 -17.5zM676 648
q25 0 42.5 17.5t17.5 41.5q0 25 -17.5 42.5t-42.5 17.5q-24 0 -41.5 -17.5t-17.5 -42.5q0 -24 17.5 -41.5t41.5 -17.5zM106 647q25 0 42.5 17.5t17.5 41.5q0 25 -17.5 42.5t-42.5 17.5t-42.5 -17.5t-17.5 -42.5q0 -24 17.5 -41.5t42.5 -17.5zM108 820q25 0 42.5 17.5
t17.5 41.5q0 25 -17.5 42.5t-42.5 17.5t-42.5 -17.5t-17.5 -42.5q0 -24 17.5 -41.5t42.5 -17.5zM676 825q25 0 42.5 17.5t17.5 42.5t-17.5 42.5t-42.5 17.5t-42.5 -17.5t-17.5 -42.5t17.5 -42.5t42.5 -17.5zM130 985q24 0 41.5 17.5t17.5 42.5t-17.5 42.5t-41.5 17.5
q-25 0 -42.5 -17.5t-17.5 -42.5t17.5 -42.5t42.5 -17.5zM538 1099q25 0 42.5 17.5t17.5 42.5t-17.5 42.5t-42.5 17.5t-42.5 -17.5t-17.5 -42.5t17.5 -42.5t42.5 -17.5zM653 985q25 0 42.5 17.5t17.5 42.5t-17.5 42.5t-42.5 17.5t-42.5 -17.5t-17.5 -42.5t17.5 -42.5
t42.5 -17.5zM243 29q24 0 41.5 17.5t17.5 42.5t-17.5 42.5t-41.5 17.5q-25 0 -42.5 -17.5t-17.5 -42.5t17.5 -42.5t42.5 -17.5zM390 -3q25 0 42.5 17.5t17.5 41.5q0 25 -17.5 42.5t-42.5 17.5q-24 0 -41.5 -17.5t-17.5 -42.5q0 -24 17.5 -41.5t41.5 -17.5zM674 481
q25 0 42.5 17.5t17.5 42.5q0 24 -17.5 41.5t-42.5 17.5q-24 0 -41.5 -17.5t-17.5 -41.5q0 -25 17.5 -42.5t41.5 -17.5zM108 481q25 0 42.5 17.5t17.5 42.5t-17.5 42.5t-42.5 17.5t-42.5 -17.5t-17.5 -42.5t17.5 -42.5t42.5 -17.5zM106 309q25 0 42.5 17.5t17.5 42.5
q0 24 -17.5 41.5t-42.5 17.5t-42.5 -17.5t-17.5 -41.5q0 -25 17.5 -42.5t42.5 -17.5zM674 303q25 0 42.5 17.5t17.5 42.5t-17.5 42.5t-42.5 17.5t-42.5 -17.5t-17.5 -42.5t17.5 -42.5t42.5 -17.5zM128 143q24 0 41.5 17.5t17.5 42.5t-17.5 42.5t-41.5 17.5
q-25 0 -42.5 -17.5t-17.5 -42.5t17.5 -42.5t42.5 -17.5zM536 29q25 0 42.5 17.5t17.5 42.5t-17.5 42.5t-42.5 17.5t-42.5 -17.5t-17.5 -42.5t17.5 -42.5t42.5 -17.5zM651 143q25 0 42.5 17.5t17.5 42.5t-17.5 42.5t-42.5 17.5t-42.5 -17.5t-17.5 -42.5t17.5 -42.5
t42.5 -17.5zM554 1570v31l-1 24q-13 143 -166 143q-74 0 -117 -45q-33 -35 -40 -98q-1 -12 -1 -55q84 59 166 59q81 0 159 -59zM387 1405q108 0 145 74q-68 64 -138 64q-71 0 -144 -64q37 -74 137 -74zM388 1277q-135 0 -215.5 75t-85.5 237q12 308 302 308
q140 -1 223 -77.5t83 -230.5v-4q-8 -165 -87.5 -236t-219.5 -72z" />
    <glyph glyph-name="uni102F.ccmp" horiz-adv-x="873" 
d="M245 1099q24 0 41.5 17.5t17.5 42.5t-17.5 42.5t-41.5 17.5q-25 0 -42.5 -17.5t-17.5 -42.5t17.5 -42.5t42.5 -17.5zM392 1132q25 0 42.5 17.5t17.5 42.5q0 24 -17.5 41.5t-42.5 17.5q-24 0 -41.5 -17.5t-17.5 -41.5q0 -25 17.5 -42.5t41.5 -17.5zM676 648
q25 0 42.5 17.5t17.5 41.5q0 25 -17.5 42.5t-42.5 17.5q-24 0 -41.5 -17.5t-17.5 -42.5q0 -24 17.5 -41.5t41.5 -17.5zM106 647q25 0 42.5 17.5t17.5 41.5q0 25 -17.5 42.5t-42.5 17.5t-42.5 -17.5t-17.5 -42.5q0 -24 17.5 -41.5t42.5 -17.5zM108 820q25 0 42.5 17.5
t17.5 41.5q0 25 -17.5 42.5t-42.5 17.5t-42.5 -17.5t-17.5 -42.5q0 -24 17.5 -41.5t42.5 -17.5zM676 825q25 0 42.5 17.5t17.5 42.5t-17.5 42.5t-42.5 17.5t-42.5 -17.5t-17.5 -42.5t17.5 -42.5t42.5 -17.5zM130 985q24 0 41.5 17.5t17.5 42.5t-17.5 42.5t-41.5 17.5
q-25 0 -42.5 -17.5t-17.5 -42.5t17.5 -42.5t42.5 -17.5zM538 1099q25 0 42.5 17.5t17.5 42.5t-17.5 42.5t-42.5 17.5t-42.5 -17.5t-17.5 -42.5t17.5 -42.5t42.5 -17.5zM653 985q25 0 42.5 17.5t17.5 42.5t-17.5 42.5t-42.5 17.5t-42.5 -17.5t-17.5 -42.5t17.5 -42.5
t42.5 -17.5zM243 149q-25 0 -42.5 -17.5t-17.5 -42.5t17.5 -42.5t42.5 -17.5q24 0 41.5 17.5t17.5 42.5t-17.5 42.5t-41.5 17.5zM390 116q-24 0 -41.5 -17.5t-17.5 -42.5q0 -24 17.5 -41.5t41.5 -17.5q25 0 42.5 17.5t17.5 41.5q0 25 -17.5 42.5t-42.5 17.5zM674 600
q-24 0 -41.5 -17.5t-17.5 -41.5q0 -25 17.5 -42.5t41.5 -17.5q25 0 42.5 17.5t17.5 42.5q0 24 -17.5 41.5t-42.5 17.5zM108 601q-25 0 -42.5 -17.5t-17.5 -42.5t17.5 -42.5t42.5 -17.5t42.5 17.5t17.5 42.5t-17.5 42.5t-42.5 17.5zM106 428q-25 0 -42.5 -17.5t-17.5 -41.5
q0 -25 17.5 -42.5t42.5 -17.5t42.5 17.5t17.5 42.5q0 24 -17.5 41.5t-42.5 17.5zM674 423q-25 0 -42.5 -17.5t-17.5 -42.5t17.5 -42.5t42.5 -17.5t42.5 17.5t17.5 42.5t-17.5 42.5t-42.5 17.5zM128 263q-25 0 -42.5 -17.5t-17.5 -42.5t17.5 -42.5t42.5 -17.5q24 0 41.5 17.5
t17.5 42.5t-17.5 42.5t-41.5 17.5zM536 149q-25 0 -42.5 -17.5t-17.5 -42.5t17.5 -42.5t42.5 -17.5t42.5 17.5t17.5 42.5t-17.5 42.5t-42.5 17.5zM651 263q-25 0 -42.5 -17.5t-17.5 -42.5t17.5 -42.5t42.5 -17.5t42.5 17.5t17.5 42.5t-17.5 42.5t-42.5 17.5zM656 -652h-186
l-15 -1q-123 0 -142 140v475h156v-472h187v-142z" />
    <glyph glyph-name="glyph436" horiz-adv-x="328" 
d="M365 -652h-186l-15 -1q-123 0 -142 140v1764h156v-1761h187v-142z" />
    <glyph glyph-name="uni1030.ccmp" horiz-adv-x="873" 
d="M245 1099q24 0 41.5 17.5t17.5 42.5t-17.5 42.5t-41.5 17.5q-25 0 -42.5 -17.5t-17.5 -42.5t17.5 -42.5t42.5 -17.5zM392 1132q25 0 42.5 17.5t17.5 42.5q0 24 -17.5 41.5t-42.5 17.5q-24 0 -41.5 -17.5t-17.5 -41.5q0 -25 17.5 -42.5t41.5 -17.5zM676 648
q25 0 42.5 17.5t17.5 41.5q0 25 -17.5 42.5t-42.5 17.5q-24 0 -41.5 -17.5t-17.5 -42.5q0 -24 17.5 -41.5t41.5 -17.5zM106 647q25 0 42.5 17.5t17.5 41.5q0 25 -17.5 42.5t-42.5 17.5t-42.5 -17.5t-17.5 -42.5q0 -24 17.5 -41.5t42.5 -17.5zM108 820q25 0 42.5 17.5
t17.5 41.5q0 25 -17.5 42.5t-42.5 17.5t-42.5 -17.5t-17.5 -42.5q0 -24 17.5 -41.5t42.5 -17.5zM676 825q25 0 42.5 17.5t17.5 42.5t-17.5 42.5t-42.5 17.5t-42.5 -17.5t-17.5 -42.5t17.5 -42.5t42.5 -17.5zM130 985q24 0 41.5 17.5t17.5 42.5t-17.5 42.5t-41.5 17.5
q-25 0 -42.5 -17.5t-17.5 -42.5t17.5 -42.5t42.5 -17.5zM538 1099q25 0 42.5 17.5t17.5 42.5t-17.5 42.5t-42.5 17.5t-42.5 -17.5t-17.5 -42.5t17.5 -42.5t42.5 -17.5zM653 985q25 0 42.5 17.5t17.5 42.5t-17.5 42.5t-42.5 17.5t-42.5 -17.5t-17.5 -42.5t17.5 -42.5
t42.5 -17.5zM243 149q-25 0 -42.5 -17.5t-17.5 -42.5t17.5 -42.5t42.5 -17.5q24 0 41.5 17.5t17.5 42.5t-17.5 42.5t-41.5 17.5zM390 116q-24 0 -41.5 -17.5t-17.5 -42.5q0 -24 17.5 -41.5t41.5 -17.5q25 0 42.5 17.5t17.5 41.5q0 25 -17.5 42.5t-42.5 17.5zM674 600
q-24 0 -41.5 -17.5t-17.5 -41.5q0 -25 17.5 -42.5t41.5 -17.5q25 0 42.5 17.5t17.5 42.5q0 24 -17.5 41.5t-42.5 17.5zM108 601q-25 0 -42.5 -17.5t-17.5 -42.5t17.5 -42.5t42.5 -17.5t42.5 17.5t17.5 42.5t-17.5 42.5t-42.5 17.5zM106 428q-25 0 -42.5 -17.5t-17.5 -41.5
q0 -25 17.5 -42.5t42.5 -17.5t42.5 17.5t17.5 42.5q0 24 -17.5 41.5t-42.5 17.5zM674 423q-25 0 -42.5 -17.5t-17.5 -42.5t17.5 -42.5t42.5 -17.5t42.5 17.5t17.5 42.5t-17.5 42.5t-42.5 17.5zM128 263q-25 0 -42.5 -17.5t-17.5 -42.5t17.5 -42.5t42.5 -17.5q24 0 41.5 17.5
t17.5 42.5t-17.5 42.5t-41.5 17.5zM536 149q-25 0 -42.5 -17.5t-17.5 -42.5t17.5 -42.5t42.5 -17.5t42.5 17.5t17.5 42.5t-17.5 42.5t-42.5 17.5zM651 263q-25 0 -42.5 -17.5t-17.5 -42.5t17.5 -42.5t42.5 -17.5t42.5 17.5t17.5 42.5t-17.5 42.5t-42.5 17.5zM767 -651
l-186 1l-15 -1q-123 0 -142 140v475h156v-472h187v-143zM344 -634h-157v596h157v-596z" />
    <glyph glyph-name="glyph438" horiz-adv-x="596" 
d="M43 -652v1902h156v-1902h-156zM644 -652h-186l-15 -1q-123 0 -142 140v1764h156v-1761h187v-142z" />
    <glyph glyph-name="uni1031.ccmp" horiz-adv-x="1496" 
d="M894 1099q24 0 41.5 17.5t17.5 42.5t-17.5 42.5t-41.5 17.5q-25 0 -42.5 -17.5t-17.5 -42.5t17.5 -42.5t42.5 -17.5zM1041 1132q25 0 42.5 17.5t17.5 42.5q0 24 -17.5 41.5t-42.5 17.5q-24 0 -41.5 -17.5t-17.5 -41.5q0 -25 17.5 -42.5t41.5 -17.5zM1325 648
q25 0 42.5 17.5t17.5 41.5q0 25 -17.5 42.5t-42.5 17.5q-24 0 -41.5 -17.5t-17.5 -42.5q0 -24 17.5 -41.5t41.5 -17.5zM755 647q25 0 42.5 17.5t17.5 41.5q0 25 -17.5 42.5t-42.5 17.5t-42.5 -17.5t-17.5 -42.5q0 -24 17.5 -41.5t42.5 -17.5zM757 820q25 0 42.5 17.5
t17.5 41.5q0 25 -17.5 42.5t-42.5 17.5t-42.5 -17.5t-17.5 -42.5q0 -24 17.5 -41.5t42.5 -17.5zM1325 825q25 0 42.5 17.5t17.5 42.5t-17.5 42.5t-42.5 17.5t-42.5 -17.5t-17.5 -42.5t17.5 -42.5t42.5 -17.5zM779 985q24 0 41.5 17.5t17.5 42.5t-17.5 42.5t-41.5 17.5
q-25 0 -42.5 -17.5t-17.5 -42.5t17.5 -42.5t42.5 -17.5zM1187 1099q25 0 42.5 17.5t17.5 42.5t-17.5 42.5t-42.5 17.5t-42.5 -17.5t-17.5 -42.5t17.5 -42.5t42.5 -17.5zM1302 985q25 0 42.5 17.5t17.5 42.5t-17.5 42.5t-42.5 17.5t-42.5 -17.5t-17.5 -42.5t17.5 -42.5
t42.5 -17.5zM892 29q24 0 41.5 17.5t17.5 42.5t-17.5 42.5t-41.5 17.5q-25 0 -42.5 -17.5t-17.5 -42.5t17.5 -42.5t42.5 -17.5zM1039 -3q25 0 42.5 17.5t17.5 41.5q0 25 -17.5 42.5t-42.5 17.5q-24 0 -41.5 -17.5t-17.5 -42.5q0 -24 17.5 -41.5t41.5 -17.5zM1323 481
q25 0 42.5 17.5t17.5 42.5q0 24 -17.5 41.5t-42.5 17.5q-24 0 -41.5 -17.5t-17.5 -41.5q0 -25 17.5 -42.5t41.5 -17.5zM757 481q25 0 42.5 17.5t17.5 42.5t-17.5 42.5t-42.5 17.5t-42.5 -17.5t-17.5 -42.5t17.5 -42.5t42.5 -17.5zM755 309q25 0 42.5 17.5t17.5 42.5
q0 24 -17.5 41.5t-42.5 17.5t-42.5 -17.5t-17.5 -41.5q0 -25 17.5 -42.5t42.5 -17.5zM1323 303q25 0 42.5 17.5t17.5 42.5t-17.5 42.5t-42.5 17.5t-42.5 -17.5t-17.5 -42.5t17.5 -42.5t42.5 -17.5zM777 143q24 0 41.5 17.5t17.5 42.5t-17.5 42.5t-41.5 17.5
q-25 0 -42.5 -17.5t-17.5 -42.5t17.5 -42.5t42.5 -17.5zM1185 29q25 0 42.5 17.5t17.5 42.5t-17.5 42.5t-42.5 17.5t-42.5 -17.5t-17.5 -42.5t17.5 -42.5t42.5 -17.5zM1300 143q25 0 42.5 17.5t17.5 42.5t-17.5 42.5t-42.5 17.5t-42.5 -17.5t-17.5 -42.5t17.5 -42.5
t42.5 -17.5zM530 915q-6 108 -32 147q-37 39 -116 39q-87 0 -131 -44.5t-44 -180.5v-201q347 -157 346 -382q6 -141 -56 -219.5t-166 -73.5q-100 -4 -185 76.5t-92 280.5l-1 528q7 200 92 280.5t235 81.5q85 0 167 -36zM403.5 404.5q-68.5 111.5 -194.5 148.5v-188
q0 -135 59.5 -196.5t131.5 31.5t3.5 204.5z" />
    <glyph glyph-name="uni1032.ccmp" horiz-adv-x="834" 
d="M245 1099q24 0 41.5 17.5t17.5 42.5t-17.5 42.5t-41.5 17.5q-25 0 -42.5 -17.5t-17.5 -42.5t17.5 -42.5t42.5 -17.5zM392 1132q25 0 42.5 17.5t17.5 42.5q0 24 -17.5 41.5t-42.5 17.5q-24 0 -41.5 -17.5t-17.5 -41.5q0 -25 17.5 -42.5t41.5 -17.5zM676 648
q25 0 42.5 17.5t17.5 41.5q0 25 -17.5 42.5t-42.5 17.5q-24 0 -41.5 -17.5t-17.5 -42.5q0 -24 17.5 -41.5t41.5 -17.5zM106 647q25 0 42.5 17.5t17.5 41.5q0 25 -17.5 42.5t-42.5 17.5t-42.5 -17.5t-17.5 -42.5q0 -24 17.5 -41.5t42.5 -17.5zM108 820q25 0 42.5 17.5
t17.5 41.5q0 25 -17.5 42.5t-42.5 17.5t-42.5 -17.5t-17.5 -42.5q0 -24 17.5 -41.5t42.5 -17.5zM676 825q25 0 42.5 17.5t17.5 42.5t-17.5 42.5t-42.5 17.5t-42.5 -17.5t-17.5 -42.5t17.5 -42.5t42.5 -17.5zM130 985q24 0 41.5 17.5t17.5 42.5t-17.5 42.5t-41.5 17.5
q-25 0 -42.5 -17.5t-17.5 -42.5t17.5 -42.5t42.5 -17.5zM538 1099q25 0 42.5 17.5t17.5 42.5t-17.5 42.5t-42.5 17.5t-42.5 -17.5t-17.5 -42.5t17.5 -42.5t42.5 -17.5zM653 985q25 0 42.5 17.5t17.5 42.5t-17.5 42.5t-42.5 17.5t-42.5 -17.5t-17.5 -42.5t17.5 -42.5
t42.5 -17.5zM243 149q-25 0 -42.5 -17.5t-17.5 -42.5t17.5 -42.5t42.5 -17.5q24 0 41.5 17.5t17.5 42.5t-17.5 42.5t-41.5 17.5zM390 116q-24 0 -41.5 -17.5t-17.5 -42.5q0 -24 17.5 -41.5t41.5 -17.5q25 0 42.5 17.5t17.5 41.5q0 25 -17.5 42.5t-42.5 17.5zM674 600
q-24 0 -41.5 -17.5t-17.5 -41.5q0 -25 17.5 -42.5t41.5 -17.5q25 0 42.5 17.5t17.5 42.5q0 24 -17.5 41.5t-42.5 17.5zM108 601q-25 0 -42.5 -17.5t-17.5 -42.5t17.5 -42.5t42.5 -17.5t42.5 17.5t17.5 42.5t-17.5 42.5t-42.5 17.5zM106 428q-25 0 -42.5 -17.5t-17.5 -41.5
q0 -25 17.5 -42.5t42.5 -17.5t42.5 17.5t17.5 42.5q0 24 -17.5 41.5t-42.5 17.5zM674 423q-25 0 -42.5 -17.5t-17.5 -42.5t17.5 -42.5t42.5 -17.5t42.5 17.5t17.5 42.5t-17.5 42.5t-42.5 17.5zM128 263q-25 0 -42.5 -17.5t-17.5 -42.5t17.5 -42.5t42.5 -17.5q24 0 41.5 17.5
t17.5 42.5t-17.5 42.5t-41.5 17.5zM536 149q-25 0 -42.5 -17.5t-17.5 -42.5t17.5 -42.5t42.5 -17.5t42.5 17.5t17.5 42.5t-17.5 42.5t-42.5 17.5zM651 263q-25 0 -42.5 -17.5t-17.5 -42.5t17.5 -42.5t42.5 -17.5t42.5 17.5t17.5 42.5t-17.5 42.5t-42.5 17.5zM710 1486
l-90 -134l-516 338l87 131z" />
    <glyph glyph-name="uni1035.ccmp" horiz-adv-x="834" 
d="M245 1099q24 0 41.5 17.5t17.5 42.5t-17.5 42.5t-41.5 17.5q-25 0 -42.5 -17.5t-17.5 -42.5t17.5 -42.5t42.5 -17.5zM392 1132q25 0 42.5 17.5t17.5 42.5q0 24 -17.5 41.5t-42.5 17.5q-24 0 -41.5 -17.5t-17.5 -41.5q0 -25 17.5 -42.5t41.5 -17.5zM676 648
q25 0 42.5 17.5t17.5 41.5q0 25 -17.5 42.5t-42.5 17.5q-24 0 -41.5 -17.5t-17.5 -42.5q0 -24 17.5 -41.5t41.5 -17.5zM106 647q25 0 42.5 17.5t17.5 41.5q0 25 -17.5 42.5t-42.5 17.5t-42.5 -17.5t-17.5 -42.5q0 -24 17.5 -41.5t42.5 -17.5zM108 820q25 0 42.5 17.5
t17.5 41.5q0 25 -17.5 42.5t-42.5 17.5t-42.5 -17.5t-17.5 -42.5q0 -24 17.5 -41.5t42.5 -17.5zM676 825q25 0 42.5 17.5t17.5 42.5t-17.5 42.5t-42.5 17.5t-42.5 -17.5t-17.5 -42.5t17.5 -42.5t42.5 -17.5zM130 985q24 0 41.5 17.5t17.5 42.5t-17.5 42.5t-41.5 17.5
q-25 0 -42.5 -17.5t-17.5 -42.5t17.5 -42.5t42.5 -17.5zM538 1099q25 0 42.5 17.5t17.5 42.5t-17.5 42.5t-42.5 17.5t-42.5 -17.5t-17.5 -42.5t17.5 -42.5t42.5 -17.5zM653 985q25 0 42.5 17.5t17.5 42.5t-17.5 42.5t-42.5 17.5t-42.5 -17.5t-17.5 -42.5t17.5 -42.5
t42.5 -17.5zM243 29q24 0 41.5 17.5t17.5 42.5t-17.5 42.5t-41.5 17.5q-25 0 -42.5 -17.5t-17.5 -42.5t17.5 -42.5t42.5 -17.5zM390 -3q25 0 42.5 17.5t17.5 41.5q0 25 -17.5 42.5t-42.5 17.5q-24 0 -41.5 -17.5t-17.5 -42.5q0 -24 17.5 -41.5t41.5 -17.5zM674 481
q25 0 42.5 17.5t17.5 42.5q0 24 -17.5 41.5t-42.5 17.5q-24 0 -41.5 -17.5t-17.5 -41.5q0 -25 17.5 -42.5t41.5 -17.5zM108 481q25 0 42.5 17.5t17.5 42.5t-17.5 42.5t-42.5 17.5t-42.5 -17.5t-17.5 -42.5t17.5 -42.5t42.5 -17.5zM106 309q25 0 42.5 17.5t17.5 42.5
q0 24 -17.5 41.5t-42.5 17.5t-42.5 -17.5t-17.5 -41.5q0 -25 17.5 -42.5t42.5 -17.5zM674 303q25 0 42.5 17.5t17.5 42.5t-17.5 42.5t-42.5 17.5t-42.5 -17.5t-17.5 -42.5t17.5 -42.5t42.5 -17.5zM128 143q24 0 41.5 17.5t17.5 42.5t-17.5 42.5t-41.5 17.5
q-25 0 -42.5 -17.5t-17.5 -42.5t17.5 -42.5t42.5 -17.5zM536 29q25 0 42.5 17.5t17.5 42.5t-17.5 42.5t-42.5 17.5t-42.5 -17.5t-17.5 -42.5t17.5 -42.5t42.5 -17.5zM651 143q25 0 42.5 17.5t17.5 42.5t-17.5 42.5t-42.5 17.5t-42.5 -17.5t-17.5 -42.5t17.5 -42.5
t42.5 -17.5zM627 1350q-80 -71 -220 -72q-135 0 -215.5 75t-85.5 237q12 308 302 308q140 -1 224 -78q19 -18 33 -39l-125 -194q21 109 -8 138q-44 44 -126 44q-74 0 -117 -45t-41 -139q433 19 379 -235zM406 1394q43 0 73.5 18t30.5 44q5 16 -13 26t-79 23q-63 7 -90 7
t-57 -1q17 -66 54.5 -91.5t80.5 -25.5z" />
    <glyph glyph-name="uni1036.ccmp" horiz-adv-x="834" 
d="M245 1099q24 0 41.5 17.5t17.5 42.5t-17.5 42.5t-41.5 17.5q-25 0 -42.5 -17.5t-17.5 -42.5t17.5 -42.5t42.5 -17.5zM392 1132q25 0 42.5 17.5t17.5 42.5q0 24 -17.5 41.5t-42.5 17.5q-24 0 -41.5 -17.5t-17.5 -41.5q0 -25 17.5 -42.5t41.5 -17.5zM676 648
q25 0 42.5 17.5t17.5 41.5q0 25 -17.5 42.5t-42.5 17.5q-24 0 -41.5 -17.5t-17.5 -42.5q0 -24 17.5 -41.5t41.5 -17.5zM106 647q25 0 42.5 17.5t17.5 41.5q0 25 -17.5 42.5t-42.5 17.5t-42.5 -17.5t-17.5 -42.5q0 -24 17.5 -41.5t42.5 -17.5zM108 820q25 0 42.5 17.5
t17.5 41.5q0 25 -17.5 42.5t-42.5 17.5t-42.5 -17.5t-17.5 -42.5q0 -24 17.5 -41.5t42.5 -17.5zM676 825q25 0 42.5 17.5t17.5 42.5t-17.5 42.5t-42.5 17.5t-42.5 -17.5t-17.5 -42.5t17.5 -42.5t42.5 -17.5zM130 985q24 0 41.5 17.5t17.5 42.5t-17.5 42.5t-41.5 17.5
q-25 0 -42.5 -17.5t-17.5 -42.5t17.5 -42.5t42.5 -17.5zM538 1099q25 0 42.5 17.5t17.5 42.5t-17.5 42.5t-42.5 17.5t-42.5 -17.5t-17.5 -42.5t17.5 -42.5t42.5 -17.5zM653 985q25 0 42.5 17.5t17.5 42.5t-17.5 42.5t-42.5 17.5t-42.5 -17.5t-17.5 -42.5t17.5 -42.5
t42.5 -17.5zM243 29q24 0 41.5 17.5t17.5 42.5t-17.5 42.5t-41.5 17.5q-25 0 -42.5 -17.5t-17.5 -42.5t17.5 -42.5t42.5 -17.5zM390 -3q25 0 42.5 17.5t17.5 41.5q0 25 -17.5 42.5t-42.5 17.5q-24 0 -41.5 -17.5t-17.5 -42.5q0 -24 17.5 -41.5t41.5 -17.5zM674 481
q25 0 42.5 17.5t17.5 42.5q0 24 -17.5 41.5t-42.5 17.5q-24 0 -41.5 -17.5t-17.5 -41.5q0 -25 17.5 -42.5t41.5 -17.5zM108 481q25 0 42.5 17.5t17.5 42.5t-17.5 42.5t-42.5 17.5t-42.5 -17.5t-17.5 -42.5t17.5 -42.5t42.5 -17.5zM106 309q25 0 42.5 17.5t17.5 42.5
q0 24 -17.5 41.5t-42.5 17.5t-42.5 -17.5t-17.5 -41.5q0 -25 17.5 -42.5t42.5 -17.5zM674 303q25 0 42.5 17.5t17.5 42.5t-17.5 42.5t-42.5 17.5t-42.5 -17.5t-17.5 -42.5t17.5 -42.5t42.5 -17.5zM128 143q24 0 41.5 17.5t17.5 42.5t-17.5 42.5t-41.5 17.5
q-25 0 -42.5 -17.5t-17.5 -42.5t17.5 -42.5t42.5 -17.5zM536 29q25 0 42.5 17.5t17.5 42.5t-17.5 42.5t-42.5 17.5t-42.5 -17.5t-17.5 -42.5t17.5 -42.5t42.5 -17.5zM651 143q25 0 42.5 17.5t17.5 42.5t-17.5 42.5t-42.5 17.5t-42.5 -17.5t-17.5 -42.5t17.5 -42.5
t42.5 -17.5zM389 1303q-55 0 -94.5 42t-39.5 94v134q0 46 39.5 87t94.5 41q54 0 91 -39.5t37 -88.5v-145q0 -46 -37 -85.5t-91 -39.5zM389 1406q43 0 43 49v96q0 16 -12 30t-31 14q-44 0 -44 -44v-101q0 -44 44 -44z" />
    <glyph glyph-name="uni1037.ccmp" horiz-adv-x="834" 
d="M245 1099q24 0 41.5 17.5t17.5 42.5t-17.5 42.5t-41.5 17.5q-25 0 -42.5 -17.5t-17.5 -42.5t17.5 -42.5t42.5 -17.5zM392 1132q25 0 42.5 17.5t17.5 42.5q0 24 -17.5 41.5t-42.5 17.5q-24 0 -41.5 -17.5t-17.5 -41.5q0 -25 17.5 -42.5t41.5 -17.5zM676 648
q25 0 42.5 17.5t17.5 41.5q0 25 -17.5 42.5t-42.5 17.5q-24 0 -41.5 -17.5t-17.5 -42.5q0 -24 17.5 -41.5t41.5 -17.5zM106 647q25 0 42.5 17.5t17.5 41.5q0 25 -17.5 42.5t-42.5 17.5t-42.5 -17.5t-17.5 -42.5q0 -24 17.5 -41.5t42.5 -17.5zM108 820q25 0 42.5 17.5
t17.5 41.5q0 25 -17.5 42.5t-42.5 17.5t-42.5 -17.5t-17.5 -42.5q0 -24 17.5 -41.5t42.5 -17.5zM676 825q25 0 42.5 17.5t17.5 42.5t-17.5 42.5t-42.5 17.5t-42.5 -17.5t-17.5 -42.5t17.5 -42.5t42.5 -17.5zM130 985q24 0 41.5 17.5t17.5 42.5t-17.5 42.5t-41.5 17.5
q-25 0 -42.5 -17.5t-17.5 -42.5t17.5 -42.5t42.5 -17.5zM538 1099q25 0 42.5 17.5t17.5 42.5t-17.5 42.5t-42.5 17.5t-42.5 -17.5t-17.5 -42.5t17.5 -42.5t42.5 -17.5zM653 985q25 0 42.5 17.5t17.5 42.5t-17.5 42.5t-42.5 17.5t-42.5 -17.5t-17.5 -42.5t17.5 -42.5
t42.5 -17.5zM243 29q24 0 41.5 17.5t17.5 42.5t-17.5 42.5t-41.5 17.5q-25 0 -42.5 -17.5t-17.5 -42.5t17.5 -42.5t42.5 -17.5zM390 -3q25 0 42.5 17.5t17.5 41.5q0 25 -17.5 42.5t-42.5 17.5q-24 0 -41.5 -17.5t-17.5 -42.5q0 -24 17.5 -41.5t41.5 -17.5zM674 481
q25 0 42.5 17.5t17.5 42.5q0 24 -17.5 41.5t-42.5 17.5q-24 0 -41.5 -17.5t-17.5 -41.5q0 -25 17.5 -42.5t41.5 -17.5zM108 481q25 0 42.5 17.5t17.5 42.5t-17.5 42.5t-42.5 17.5t-42.5 -17.5t-17.5 -42.5t17.5 -42.5t42.5 -17.5zM106 309q25 0 42.5 17.5t17.5 42.5
q0 24 -17.5 41.5t-42.5 17.5t-42.5 -17.5t-17.5 -41.5q0 -25 17.5 -42.5t42.5 -17.5zM674 303q25 0 42.5 17.5t17.5 42.5t-17.5 42.5t-42.5 17.5t-42.5 -17.5t-17.5 -42.5t17.5 -42.5t42.5 -17.5zM128 143q24 0 41.5 17.5t17.5 42.5t-17.5 42.5t-41.5 17.5
q-25 0 -42.5 -17.5t-17.5 -42.5t17.5 -42.5t42.5 -17.5zM536 29q25 0 42.5 17.5t17.5 42.5t-17.5 42.5t-42.5 17.5t-42.5 -17.5t-17.5 -42.5t17.5 -42.5t42.5 -17.5zM651 143q25 0 42.5 17.5t17.5 42.5t-17.5 42.5t-42.5 17.5t-42.5 -17.5t-17.5 -42.5t17.5 -42.5
t42.5 -17.5zM389 -498q-55 0 -94.5 42.5t-39.5 94.5v133q0 47 39.5 88t94.5 41t91.5 -39.5t36.5 -89.5v-144q0 -47 -36.5 -86.5t-91.5 -39.5zM389 -394q44 0 44 49v96q0 16 -12.5 29.5t-31.5 13.5q-44 0 -44 -43v-101q0 -44 44 -44z" />
    <glyph glyph-name="uni1038.ccmp" horiz-adv-x="1190" 
d="M244 1099q25 0 42.5 17.5t17.5 42.5t-17.5 42.5t-42.5 17.5t-42.5 -17.5t-17.5 -42.5t17.5 -42.5t42.5 -17.5zM392 1132q24 0 41.5 17.5t17.5 42.5q0 24 -17.5 41.5t-41.5 17.5q-25 0 -42.5 -17.5t-17.5 -41.5q0 -25 17.5 -42.5t42.5 -17.5zM676 648q24 0 41.5 17.5
t17.5 41.5q0 25 -17.5 42.5t-41.5 17.5q-25 0 -42.5 -17.5t-17.5 -42.5q0 -24 17.5 -41.5t42.5 -17.5zM105 647q25 0 42.5 17.5t17.5 41.5q0 25 -17.5 42.5t-42.5 17.5q-24 0 -41.5 -17.5t-17.5 -42.5q0 -24 17.5 -41.5t41.5 -17.5zM107 820q25 0 42.5 17.5t17.5 41.5
q0 25 -17.5 42.5t-42.5 17.5q-24 0 -41.5 -17.5t-17.5 -42.5q0 -24 17.5 -41.5t41.5 -17.5zM675 825q25 0 42.5 17.5t17.5 42.5t-17.5 42.5t-42.5 17.5q-24 0 -41.5 -17.5t-17.5 -42.5t17.5 -42.5t41.5 -17.5zM129 985q25 0 42.5 17.5t17.5 42.5t-17.5 42.5t-42.5 17.5
t-42.5 -17.5t-17.5 -42.5t17.5 -42.5t42.5 -17.5zM537 1099q25 0 42.5 17.5t17.5 42.5t-17.5 42.5t-42.5 17.5q-24 0 -41.5 -17.5t-17.5 -42.5t17.5 -42.5t41.5 -17.5zM652 985q25 0 42.5 17.5t17.5 42.5t-17.5 42.5t-42.5 17.5q-24 0 -41.5 -17.5t-17.5 -42.5t17.5 -42.5
t41.5 -17.5zM242 29q25 0 42.5 17.5t17.5 42.5t-17.5 42.5t-42.5 17.5t-42.5 -17.5t-17.5 -42.5t17.5 -42.5t42.5 -17.5zM390 -3q24 0 41.5 17.5t17.5 41.5q0 25 -17.5 42.5t-41.5 17.5q-25 0 -42.5 -17.5t-17.5 -42.5q0 -24 17.5 -41.5t42.5 -17.5zM674 481q24 0 41.5 17.5
t17.5 42.5q0 24 -17.5 41.5t-41.5 17.5q-25 0 -42.5 -17.5t-17.5 -41.5q0 -25 17.5 -42.5t42.5 -17.5zM107 481q25 0 42.5 17.5t17.5 42.5t-17.5 42.5t-42.5 17.5q-24 0 -41.5 -17.5t-17.5 -42.5t17.5 -42.5t41.5 -17.5zM105 309q25 0 42.5 17.5t17.5 42.5q0 24 -17.5 41.5
t-42.5 17.5q-24 0 -41.5 -17.5t-17.5 -41.5q0 -25 17.5 -42.5t41.5 -17.5zM673 303q25 0 42.5 17.5t17.5 42.5t-17.5 42.5t-42.5 17.5q-24 0 -41.5 -17.5t-17.5 -42.5t17.5 -42.5t41.5 -17.5zM127 143q25 0 42.5 17.5t17.5 42.5t-17.5 42.5t-42.5 17.5t-42.5 -17.5
t-17.5 -42.5t17.5 -42.5t42.5 -17.5zM535 29q25 0 42.5 17.5t17.5 42.5t-17.5 42.5t-42.5 17.5q-24 0 -41.5 -17.5t-17.5 -42.5t17.5 -42.5t41.5 -17.5zM650 143q25 0 42.5 17.5t17.5 42.5t-17.5 42.5t-42.5 17.5q-24 0 -41.5 -17.5t-17.5 -42.5t17.5 -42.5t41.5 -17.5z
M962 661q-57 0 -97 39.5t-40 94.5v295q0 54 40 95t97 41t96.5 -41t39.5 -95v-295q0 -52 -39.5 -93t-96.5 -41zM962 781q41 0 41 44v237q0 41 -41 41t-41 -41v-240q0 -41 41 -41zM962 30q-57 0 -97 39.5t-40 94.5v295q0 54 40 95t97 41t96.5 -41t39.5 -95v-295
q0 -52 -39.5 -93t-96.5 -41zM962 150q41 0 41 44v237q0 41 -41 41t-41 -41v-240q0 -41 41 -41z" />
    <glyph glyph-name="uni1039.ccmp" horiz-adv-x="867" 
d="M136 -361h236v-226h43v226h237v41h-237v227h-43v-227h-236v-41zM244 1099q24 0 41.5 17.5t17.5 42.5t-17.5 42.5t-41.5 17.5q-25 0 -42.5 -17.5t-17.5 -42.5t17.5 -42.5t42.5 -17.5zM391 1132q25 0 42.5 17.5t17.5 42.5q0 24 -17.5 41.5t-42.5 17.5q-24 0 -41.5 -17.5
t-17.5 -41.5q0 -25 17.5 -42.5t41.5 -17.5zM675 648q25 0 42.5 17.5t17.5 41.5q0 25 -17.5 42.5t-42.5 17.5q-24 0 -41.5 -17.5t-17.5 -42.5q0 -24 17.5 -41.5t41.5 -17.5zM105 647q25 0 42.5 17.5t17.5 41.5q0 25 -17.5 42.5t-42.5 17.5t-42.5 -17.5t-17.5 -42.5
q0 -24 17.5 -41.5t42.5 -17.5zM107 820q25 0 42.5 17.5t17.5 41.5q0 25 -17.5 42.5t-42.5 17.5t-42.5 -17.5t-17.5 -42.5q0 -24 17.5 -41.5t42.5 -17.5zM675 825q25 0 42.5 17.5t17.5 42.5t-17.5 42.5t-42.5 17.5t-42.5 -17.5t-17.5 -42.5t17.5 -42.5t42.5 -17.5zM129 985
q24 0 41.5 17.5t17.5 42.5t-17.5 42.5t-41.5 17.5q-25 0 -42.5 -17.5t-17.5 -42.5t17.5 -42.5t42.5 -17.5zM537 1099q25 0 42.5 17.5t17.5 42.5t-17.5 42.5t-42.5 17.5t-42.5 -17.5t-17.5 -42.5t17.5 -42.5t42.5 -17.5zM652 985q25 0 42.5 17.5t17.5 42.5t-17.5 42.5
t-42.5 17.5t-42.5 -17.5t-17.5 -42.5t17.5 -42.5t42.5 -17.5zM242 149q-25 0 -42.5 -17.5t-17.5 -42.5t17.5 -42.5t42.5 -17.5q24 0 41.5 17.5t17.5 42.5t-17.5 42.5t-41.5 17.5zM389 116q-24 0 -41.5 -17.5t-17.5 -42.5q0 -24 17.5 -41.5t41.5 -17.5q25 0 42.5 17.5
t17.5 41.5q0 25 -17.5 42.5t-42.5 17.5zM673 600q-24 0 -41.5 -17.5t-17.5 -41.5q0 -25 17.5 -42.5t41.5 -17.5q25 0 42.5 17.5t17.5 42.5q0 24 -17.5 41.5t-42.5 17.5zM107 601q-25 0 -42.5 -17.5t-17.5 -42.5t17.5 -42.5t42.5 -17.5t42.5 17.5t17.5 42.5t-17.5 42.5
t-42.5 17.5zM105 428q-25 0 -42.5 -17.5t-17.5 -41.5q0 -25 17.5 -42.5t42.5 -17.5t42.5 17.5t17.5 42.5q0 24 -17.5 41.5t-42.5 17.5zM673 423q-25 0 -42.5 -17.5t-17.5 -42.5t17.5 -42.5t42.5 -17.5t42.5 17.5t17.5 42.5t-17.5 42.5t-42.5 17.5zM127 263
q-25 0 -42.5 -17.5t-17.5 -42.5t17.5 -42.5t42.5 -17.5q24 0 41.5 17.5t17.5 42.5t-17.5 42.5t-41.5 17.5zM535 149q-25 0 -42.5 -17.5t-17.5 -42.5t17.5 -42.5t42.5 -17.5t42.5 17.5t17.5 42.5t-17.5 42.5t-42.5 17.5zM650 263q-25 0 -42.5 -17.5t-17.5 -42.5t17.5 -42.5
t42.5 -17.5t42.5 17.5t17.5 42.5t-17.5 42.5t-42.5 17.5z" />
    <glyph glyph-name="uni103A.ccmp" horiz-adv-x="867" 
d="M244 1099q24 0 41.5 17.5t17.5 42.5t-17.5 42.5t-41.5 17.5q-25 0 -42.5 -17.5t-17.5 -42.5t17.5 -42.5t42.5 -17.5zM391 1132q25 0 42.5 17.5t17.5 42.5q0 24 -17.5 41.5t-42.5 17.5q-24 0 -41.5 -17.5t-17.5 -41.5q0 -25 17.5 -42.5t41.5 -17.5zM675 648
q25 0 42.5 17.5t17.5 41.5q0 25 -17.5 42.5t-42.5 17.5q-24 0 -41.5 -17.5t-17.5 -42.5q0 -24 17.5 -41.5t41.5 -17.5zM105 647q25 0 42.5 17.5t17.5 41.5q0 25 -17.5 42.5t-42.5 17.5t-42.5 -17.5t-17.5 -42.5q0 -24 17.5 -41.5t42.5 -17.5zM107 820q25 0 42.5 17.5
t17.5 41.5q0 25 -17.5 42.5t-42.5 17.5t-42.5 -17.5t-17.5 -42.5q0 -24 17.5 -41.5t42.5 -17.5zM675 825q25 0 42.5 17.5t17.5 42.5t-17.5 42.5t-42.5 17.5t-42.5 -17.5t-17.5 -42.5t17.5 -42.5t42.5 -17.5zM129 985q24 0 41.5 17.5t17.5 42.5t-17.5 42.5t-41.5 17.5
q-25 0 -42.5 -17.5t-17.5 -42.5t17.5 -42.5t42.5 -17.5zM537 1099q25 0 42.5 17.5t17.5 42.5t-17.5 42.5t-42.5 17.5t-42.5 -17.5t-17.5 -42.5t17.5 -42.5t42.5 -17.5zM652 985q25 0 42.5 17.5t17.5 42.5t-17.5 42.5t-42.5 17.5t-42.5 -17.5t-17.5 -42.5t17.5 -42.5
t42.5 -17.5zM242 149q-25 0 -42.5 -17.5t-17.5 -42.5t17.5 -42.5t42.5 -17.5q24 0 41.5 17.5t17.5 42.5t-17.5 42.5t-41.5 17.5zM389 116q-24 0 -41.5 -17.5t-17.5 -42.5q0 -24 17.5 -41.5t41.5 -17.5q25 0 42.5 17.5t17.5 41.5q0 25 -17.5 42.5t-42.5 17.5zM673 600
q-24 0 -41.5 -17.5t-17.5 -41.5q0 -25 17.5 -42.5t41.5 -17.5q25 0 42.5 17.5t17.5 42.5q0 24 -17.5 41.5t-42.5 17.5zM107 601q-25 0 -42.5 -17.5t-17.5 -42.5t17.5 -42.5t42.5 -17.5t42.5 17.5t17.5 42.5t-17.5 42.5t-42.5 17.5zM105 428q-25 0 -42.5 -17.5t-17.5 -41.5
q0 -25 17.5 -42.5t42.5 -17.5t42.5 17.5t17.5 42.5q0 24 -17.5 41.5t-42.5 17.5zM673 423q-25 0 -42.5 -17.5t-17.5 -42.5t17.5 -42.5t42.5 -17.5t42.5 17.5t17.5 42.5t-17.5 42.5t-42.5 17.5zM127 263q-25 0 -42.5 -17.5t-17.5 -42.5t17.5 -42.5t42.5 -17.5q24 0 41.5 17.5
t17.5 42.5t-17.5 42.5t-41.5 17.5zM535 149q-25 0 -42.5 -17.5t-17.5 -42.5t17.5 -42.5t42.5 -17.5t42.5 17.5t17.5 42.5t-17.5 42.5t-42.5 17.5zM650 263q-25 0 -42.5 -17.5t-17.5 -42.5t17.5 -42.5t42.5 -17.5t42.5 17.5t17.5 42.5t-17.5 42.5t-42.5 17.5zM417 1278
q-133 1 -212 75q-81 75 -86 237q12 308 302 308q140 -1 224 -78q9 -8 17 -18l-81 -149q-9 45 -36 72q-44 44 -126 44q-74 0 -117 -45t-41 -139q1 -93 42.5 -136t115.5 -43q57 0 95 22z" />
    <glyph glyph-name="uni103B.ccmp" horiz-adv-x="1117" 
d="M244 1099q24 0 41.5 17.5t17.5 42.5t-17.5 42.5t-41.5 17.5q-25 0 -42.5 -17.5t-17.5 -42.5t17.5 -42.5t42.5 -17.5zM391 1132q25 0 42.5 17.5t17.5 42.5q0 24 -17.5 41.5t-42.5 17.5q-24 0 -41.5 -17.5t-17.5 -41.5q0 -25 17.5 -42.5t41.5 -17.5zM675 648
q25 0 42.5 17.5t17.5 41.5q0 25 -17.5 42.5t-42.5 17.5q-24 0 -41.5 -17.5t-17.5 -42.5q0 -24 17.5 -41.5t41.5 -17.5zM105 647q25 0 42.5 17.5t17.5 41.5q0 25 -17.5 42.5t-42.5 17.5t-42.5 -17.5t-17.5 -42.5q0 -24 17.5 -41.5t42.5 -17.5zM107 820q25 0 42.5 17.5
t17.5 41.5q0 25 -17.5 42.5t-42.5 17.5t-42.5 -17.5t-17.5 -42.5q0 -24 17.5 -41.5t42.5 -17.5zM675 825q25 0 42.5 17.5t17.5 42.5t-17.5 42.5t-42.5 17.5t-42.5 -17.5t-17.5 -42.5t17.5 -42.5t42.5 -17.5zM129 985q24 0 41.5 17.5t17.5 42.5t-17.5 42.5t-41.5 17.5
q-25 0 -42.5 -17.5t-17.5 -42.5t17.5 -42.5t42.5 -17.5zM537 1099q25 0 42.5 17.5t17.5 42.5t-17.5 42.5t-42.5 17.5t-42.5 -17.5t-17.5 -42.5t17.5 -42.5t42.5 -17.5zM652 985q25 0 42.5 17.5t17.5 42.5t-17.5 42.5t-42.5 17.5t-42.5 -17.5t-17.5 -42.5t17.5 -42.5
t42.5 -17.5zM242 149q-25 0 -42.5 -17.5t-17.5 -42.5t17.5 -42.5t42.5 -17.5q24 0 41.5 17.5t17.5 42.5t-17.5 42.5t-41.5 17.5zM389 116q-24 0 -41.5 -17.5t-17.5 -42.5q0 -24 17.5 -41.5t41.5 -17.5q25 0 42.5 17.5t17.5 41.5q0 25 -17.5 42.5t-42.5 17.5zM673 600
q-24 0 -41.5 -17.5t-17.5 -41.5q0 -25 17.5 -42.5t41.5 -17.5q25 0 42.5 17.5t17.5 42.5q0 24 -17.5 41.5t-42.5 17.5zM107 601q-25 0 -42.5 -17.5t-17.5 -42.5t17.5 -42.5t42.5 -17.5t42.5 17.5t17.5 42.5t-17.5 42.5t-42.5 17.5zM105 428q-25 0 -42.5 -17.5t-17.5 -41.5
q0 -25 17.5 -42.5t42.5 -17.5t42.5 17.5t17.5 42.5q0 24 -17.5 41.5t-42.5 17.5zM673 423q-25 0 -42.5 -17.5t-17.5 -42.5t17.5 -42.5t42.5 -17.5t42.5 17.5t17.5 42.5t-17.5 42.5t-42.5 17.5zM127 263q-25 0 -42.5 -17.5t-17.5 -42.5t17.5 -42.5t42.5 -17.5q24 0 41.5 17.5
t17.5 42.5t-17.5 42.5t-41.5 17.5zM535 149q-25 0 -42.5 -17.5t-17.5 -42.5t17.5 -42.5t42.5 -17.5t42.5 17.5t17.5 42.5t-17.5 42.5t-42.5 17.5zM650 263q-25 0 -42.5 -17.5t-17.5 -42.5t17.5 -42.5t42.5 -17.5t42.5 17.5t17.5 42.5t-17.5 42.5t-42.5 17.5zM425 -187
l107 -83v260h158v-377l153 -101v1729h153v-1794l-170 -112q-229 166 -401 281v197z" />
    <glyph glyph-name="glyph448" horiz-adv-x="310" 
d="M-294 -10h154v-377l153 -101v1729h153v-1794l-170 -112q-159 115 -290 206v449z" />
    <glyph glyph-name="glyph449" horiz-adv-x="310" 
d="M-294 -10h154v-377l153 -101v1729h153v-1794l-170 -112q-159 115 -290 206v449z" />
    <glyph glyph-name="glyph450" horiz-adv-x="290" 
d="M1362 -653q31 0 54 7t35.5 25t20 33t10.5 47.5t5 50.5v25v532q-54 -72 -154 -97l2 -481l-1135 1v2260h1134v-251h153v216q2 68 -14 107q-25 63 -126 73q-30 3 -1192 3q-37 0 -64.5 -37t-36.5 -75l-6 -36v-2296q0 -34 39 -77q28 -30 74 -30h1201z" />
    <glyph glyph-name="uni103C.ccmp" horiz-adv-x="1177" 
d="M459 1099q24 0 41.5 17.5t17.5 42.5t-17.5 42.5t-41.5 17.5q-25 0 -42.5 -17.5t-17.5 -42.5t17.5 -42.5t42.5 -17.5zM606 1132q25 0 42.5 17.5t17.5 42.5q0 24 -17.5 41.5t-42.5 17.5q-24 0 -41.5 -17.5t-17.5 -41.5q0 -25 17.5 -42.5t41.5 -17.5zM890 648
q25 0 42.5 17.5t17.5 41.5q0 25 -17.5 42.5t-42.5 17.5q-24 0 -41.5 -17.5t-17.5 -42.5q0 -24 17.5 -41.5t41.5 -17.5zM320 647q25 0 42.5 17.5t17.5 41.5q0 25 -17.5 42.5t-42.5 17.5t-42.5 -17.5t-17.5 -42.5q0 -24 17.5 -41.5t42.5 -17.5zM322 820q25 0 42.5 17.5
t17.5 41.5q0 25 -17.5 42.5t-42.5 17.5t-42.5 -17.5t-17.5 -42.5q0 -24 17.5 -41.5t42.5 -17.5zM890 825q25 0 42.5 17.5t17.5 42.5t-17.5 42.5t-42.5 17.5t-42.5 -17.5t-17.5 -42.5t17.5 -42.5t42.5 -17.5zM344 985q24 0 41.5 17.5t17.5 42.5t-17.5 42.5t-41.5 17.5
q-25 0 -42.5 -17.5t-17.5 -42.5t17.5 -42.5t42.5 -17.5zM752 1099q25 0 42.5 17.5t17.5 42.5t-17.5 42.5t-42.5 17.5t-42.5 -17.5t-17.5 -42.5t17.5 -42.5t42.5 -17.5zM867 985q25 0 42.5 17.5t17.5 42.5t-17.5 42.5t-42.5 17.5t-42.5 -17.5t-17.5 -42.5t17.5 -42.5
t42.5 -17.5zM457 29q24 0 41.5 17.5t17.5 42.5t-17.5 42.5t-41.5 17.5q-25 0 -42.5 -17.5t-17.5 -42.5t17.5 -42.5t42.5 -17.5zM604 -3q25 0 42.5 17.5t17.5 41.5q0 25 -17.5 42.5t-42.5 17.5q-24 0 -41.5 -17.5t-17.5 -42.5q0 -24 17.5 -41.5t41.5 -17.5zM888 481
q25 0 42.5 17.5t17.5 42.5q0 24 -17.5 41.5t-42.5 17.5q-24 0 -41.5 -17.5t-17.5 -41.5q0 -25 17.5 -42.5t41.5 -17.5zM322 481q25 0 42.5 17.5t17.5 42.5t-17.5 42.5t-42.5 17.5t-42.5 -17.5t-17.5 -42.5t17.5 -42.5t42.5 -17.5zM320 309q25 0 42.5 17.5t17.5 42.5
q0 24 -17.5 41.5t-42.5 17.5t-42.5 -17.5t-17.5 -41.5q0 -25 17.5 -42.5t42.5 -17.5zM888 303q25 0 42.5 17.5t17.5 42.5t-17.5 42.5t-42.5 17.5t-42.5 -17.5t-17.5 -42.5t17.5 -42.5t42.5 -17.5zM342 143q24 0 41.5 17.5t17.5 42.5t-17.5 42.5t-41.5 17.5
q-25 0 -42.5 -17.5t-17.5 -42.5t17.5 -42.5t42.5 -17.5zM750 29q25 0 42.5 17.5t17.5 42.5t-17.5 42.5t-42.5 17.5t-42.5 -17.5t-17.5 -42.5t17.5 -42.5t42.5 -17.5zM865 143q25 0 42.5 17.5t17.5 42.5t-17.5 42.5t-42.5 17.5t-42.5 -17.5t-17.5 -42.5t17.5 -42.5
t42.5 -17.5zM850 -653q31 0 54 7t35.5 25t20 33t10.5 47.5t5 50.5v25q0 15 -1 47.5t-1 524.5q-95 -115 -152 -139l2 -479l-623 1v2260h622v-251h155v216q0 68 -16 107q-25 63 -126 73q-30 3 -680 3q-37 0 -64.5 -37t-36.5 -75l-6 -36v-2296q0 -34 39 -77q28 -30 74 -30h689z
" />
    <glyph glyph-name="glyph452" horiz-adv-x="290" 
d="M910 -511l-710 1v2260h1132v-251h155v216q0 68 -16 107q-25 63 -126 73q-30 3 -1190 3q-37 0 -64.5 -37t-36.5 -75l-6 -36v-2296q0 -34 39 -77q28 -30 74 -30h855z" />
    <glyph glyph-name="glyph453" horiz-adv-x="290" 
d="M461 -510h-261v2260h634v-251h155v216q0 68 -16 107q-25 63 -126 73q-30 3 -692 3q-37 0 -64.5 -37t-36.5 -75l-6 -36v-2296q0 -34 39 -77q28 -30 74 -30h393z" />
    <glyph glyph-name="glyph454" horiz-adv-x="290" 
d="M1364 -653q31 0 54 7t35.5 25t20 33t10.5 47.5t5 50.5v25q0 15 -1 47.5t-1 482.5q-52 -70 -152 -95l2 -481l-1137 1v2260h1132v-251h155v216q0 68 -16 107q-25 63 -126 73q-30 3 -1190 3q-37 0 -64.5 -37t-36.5 -75l-6 -36v-2296q0 -34 39 -77q28 -30 74 -30h1203z" />
    <glyph glyph-name="glyph455" horiz-adv-x="290" 
d="M910 -511l-710 1v2260h1132v-251h155v216q0 68 -16 107q-25 63 -126 73q-30 3 -1190 3q-37 0 -64.5 -37t-36.5 -75l-6 -36v-2296q0 -34 39 -77q28 -30 74 -30h855z" />
    <glyph glyph-name="glyph456" horiz-adv-x="290" 
d="M461 -510h-261v2260h634v-251h155v216q0 68 -16 107q-25 63 -126 73q-30 3 -692 3q-37 0 -64.5 -37t-36.5 -75l-6 -36v-2296q0 -34 39 -77q28 -30 74 -30h393z" />
    <glyph glyph-name="glyph457" horiz-adv-x="290" 
d="M910 -511l-710 1v2260h1132v-251h155v216q0 68 -16 107q-25 63 -126 73q-30 3 -1190 3q-37 0 -64.5 -37t-36.5 -75l-6 -36v-2296q0 -34 39 -77q28 -30 74 -30h855z" />
    <glyph glyph-name="glyph458" horiz-adv-x="290" 
d="M1364 -653q31 0 54 7t35.5 25t20 33t10.5 47.5t5 50.5v25q0 15 -1 47.5t-1 482.5q-52 -70 -152 -95l2 -481l-1137 1v2260h1132v-251h155v216q0 68 -16 107q-25 63 -126 73q-30 3 -1190 3q-37 0 -64.5 -37t-36.5 -75l-6 -36v-2296q0 -34 39 -77q28 -30 74 -30h1203z" />
    <glyph glyph-name="glyph459" horiz-adv-x="290" 
d="M839 1898h-684q-37 0 -64.5 -37t-36.5 -75l-6 -36v-2296q0 -34 39 -77q28 -30 74 -30h1203q31 0 54 7t35.5 25t20 33t10.5 47.5t5 50.5v25q0 15 -1 47.5t-1 482.5q-52 -70 -152 -95l2 -481l-1137 1v2260h576z" />
    <glyph glyph-name="glyph460" horiz-adv-x="290" 
d="M464 1898h-309q-37 0 -64.5 -37t-36.5 -75l-6 -36v-2296q0 -34 39 -77q28 -30 74 -30h705q31 0 54 7t35.5 25t20 33t10.5 47.5t5 50.5v25q0 15 -1 47.5t-1 482.5q-52 -70 -152 -95l2 -481l-639 1v2260h201z" />
    <glyph glyph-name="glyph461" horiz-adv-x="290" 
d="M464 1898h-309q-37 0 -64.5 -37t-36.5 -75l-6 -36v-2296q0 -34 39 -77q28 -30 74 -30h705q31 0 54 7t35.5 25t20 33t10.5 47.5t5 50.5v25q0 15 -1 47.5t-1 482.5q-52 -70 -152 -95l2 -481l-639 1v2260h201z" />
    <glyph glyph-name="glyph462" horiz-adv-x="290" 
d="M839 1898h-684q-37 0 -64.5 -37t-36.5 -75l-6 -36v-2296q0 -34 39 -77q28 -30 74 -30h1203q31 0 54 7t35.5 25t20 33t10.5 47.5t5 50.5v25q0 15 -1 47.5t-1 482.5q-52 -70 -152 -95l2 -481l-1137 1v2260h576z" />
    <glyph glyph-name="glyph463" horiz-adv-x="290" 
d="M200 1757l330 1l106 142h-475q-46 0 -74 -30q-39 -43 -39 -77v-2339q0 -34 39 -77q28 -30 74 -30h475l-106 142l-330 1v2267z" />
    <glyph glyph-name="glyph464" horiz-adv-x="290" 
d="M200 1757l530 1l106 142h-675q-46 0 -74 -30q-39 -43 -39 -77v-2339q0 -34 39 -77q28 -30 74 -30h675l-106 142l-530 1v2267z" />
    <glyph glyph-name="glyph465" horiz-adv-x="290" 
d="M200 1757l640 1l106 142h-785q-46 0 -74 -30q-39 -43 -39 -77v-2339q0 -34 39 -77q28 -30 74 -30h785l-106 142l-640 1v2267z" />
    <glyph glyph-name="glyph466" horiz-adv-x="290" 
d="M910 -511l-710 1v2260h1132v-251h155v216q0 68 -16 107q-25 63 -126 73q-30 3 -1190 3q-37 0 -64.5 -37t-36.5 -75l-6 -36v-2296q0 -34 39 -77q28 -30 74 -30h855z" />
    <glyph glyph-name="glyph467" horiz-adv-x="290" 
d="M461 -510h-261v2260h634v-251h155v216q0 68 -16 107q-25 63 -126 73q-30 3 -692 3q-37 0 -64.5 -37t-36.5 -75l-6 -36v-2296q0 -34 39 -77q28 -30 74 -30h393z" />
    <glyph glyph-name="glyph468" horiz-adv-x="290" 
d="M839 1898h-684q-37 0 -64.5 -37t-36.5 -75l-6 -36v-2296q0 -34 39 -77q28 -30 74 -30h1203q31 0 54 7t35.5 25t20 33t10.5 47.5t5 50.5v25q0 15 -1 47.5t-1 482.5q-52 -70 -152 -95l2 -481l-1137 1v2260h576z" />
    <glyph glyph-name="uni103D.ccmp" horiz-adv-x="834" 
d="M255 1099q24 0 41.5 17.5t17.5 42.5t-17.5 42.5t-41.5 17.5q-25 0 -42.5 -17.5t-17.5 -42.5t17.5 -42.5t42.5 -17.5zM402 1132q25 0 42.5 17.5t17.5 42.5q0 24 -17.5 41.5t-42.5 17.5q-24 0 -41.5 -17.5t-17.5 -41.5q0 -25 17.5 -42.5t41.5 -17.5zM686 648
q25 0 42.5 17.5t17.5 41.5q0 25 -17.5 42.5t-42.5 17.5q-24 0 -41.5 -17.5t-17.5 -42.5q0 -24 17.5 -41.5t41.5 -17.5zM116 647q25 0 42.5 17.5t17.5 41.5q0 25 -17.5 42.5t-42.5 17.5t-42.5 -17.5t-17.5 -42.5q0 -24 17.5 -41.5t42.5 -17.5zM118 820q25 0 42.5 17.5
t17.5 41.5q0 25 -17.5 42.5t-42.5 17.5t-42.5 -17.5t-17.5 -42.5q0 -24 17.5 -41.5t42.5 -17.5zM686 825q25 0 42.5 17.5t17.5 42.5t-17.5 42.5t-42.5 17.5t-42.5 -17.5t-17.5 -42.5t17.5 -42.5t42.5 -17.5zM140 985q24 0 41.5 17.5t17.5 42.5t-17.5 42.5t-41.5 17.5
q-25 0 -42.5 -17.5t-17.5 -42.5t17.5 -42.5t42.5 -17.5zM548 1099q25 0 42.5 17.5t17.5 42.5t-17.5 42.5t-42.5 17.5t-42.5 -17.5t-17.5 -42.5t17.5 -42.5t42.5 -17.5zM663 985q25 0 42.5 17.5t17.5 42.5t-17.5 42.5t-42.5 17.5t-42.5 -17.5t-17.5 -42.5t17.5 -42.5
t42.5 -17.5zM253 29q24 0 41.5 17.5t17.5 42.5t-17.5 42.5t-41.5 17.5q-25 0 -42.5 -17.5t-17.5 -42.5t17.5 -42.5t42.5 -17.5zM400 -3q25 0 42.5 17.5t17.5 41.5q0 25 -17.5 42.5t-42.5 17.5q-24 0 -41.5 -17.5t-17.5 -42.5q0 -24 17.5 -41.5t41.5 -17.5zM684 481
q25 0 42.5 17.5t17.5 42.5q0 24 -17.5 41.5t-42.5 17.5q-24 0 -41.5 -17.5t-17.5 -41.5q0 -25 17.5 -42.5t41.5 -17.5zM118 481q25 0 42.5 17.5t17.5 42.5t-17.5 42.5t-42.5 17.5t-42.5 -17.5t-17.5 -42.5t17.5 -42.5t42.5 -17.5zM116 309q25 0 42.5 17.5t17.5 42.5
q0 24 -17.5 41.5t-42.5 17.5t-42.5 -17.5t-17.5 -41.5q0 -25 17.5 -42.5t42.5 -17.5zM684 303q25 0 42.5 17.5t17.5 42.5t-17.5 42.5t-42.5 17.5t-42.5 -17.5t-17.5 -42.5t17.5 -42.5t42.5 -17.5zM138 143q24 0 41.5 17.5t17.5 42.5t-17.5 42.5t-41.5 17.5
q-25 0 -42.5 -17.5t-17.5 -42.5t17.5 -42.5t42.5 -17.5zM546 29q25 0 42.5 17.5t17.5 42.5t-17.5 42.5t-42.5 17.5t-42.5 -17.5t-17.5 -42.5t17.5 -42.5t42.5 -17.5zM661 143q25 0 42.5 17.5t17.5 42.5t-17.5 42.5t-42.5 17.5t-42.5 -17.5t-17.5 -42.5t17.5 -42.5
t42.5 -17.5zM389 -657q-135 0 -215.5 75t-85.5 237q12 308 302 308q140 -1 223.5 -78t82.5 -234q-8 -165 -87.5 -236t-219.5 -72zM388 -529q81 0 123.5 43.5t43.5 137.5q3 94 -41 138t-126 44q-74 0 -117 -45t-41 -139q1 -93 42.5 -136t115.5 -43z" />
    <glyph glyph-name="glyph470" 
d="M-432 -657q-135 0 -215.5 75t-85.5 237q12 308 302 308q140 -1 223.5 -78t82.5 -234q-8 -165 -87.5 -236t-219.5 -72zM-433 -529q81 0 123.5 43.5t43.5 137.5q3 94 -41 138t-126 44q-74 0 -117 -45t-41 -139q1 -93 42.5 -136t115.5 -43z" />
    </font>
</defs>
</svg>
