<?xml version="1.0" standalone="no"?>
<!DOCTYPE svg PUBLIC "-//W3C//DTD SVG 1.1//EN" "http://www.w3.org/Graphics/SVG/1.1/DTD/svg11.dtd" >
<svg xmlns="http://www.w3.org/2000/svg" xmlns:xlink="http://www.w3.org/1999/xlink" version="1.1">
<metadata></metadata>
<defs>
<font id="jasmine_unicoderegular" horiz-adv-x="0" >
<font-face units-per-em="2048" ascent="1638" descent="-410" />
<missing-glyph horiz-adv-x="651" />
<glyph unicode="&#xd;" horiz-adv-x="681" />
<glyph unicode=" "  horiz-adv-x="651" />
<glyph unicode="&#x09;" horiz-adv-x="651" />
<glyph unicode="&#xa0;" horiz-adv-x="651" />
<glyph unicode="!" horiz-adv-x="782" d="M260 96q0 53 38 89t91 36t90 -35.5t37 -89.5q0 -53 -37 -91t-90 -38t-91 38t-38 91zM260 1434q0 72 39 115.5t94 43.5q53 0 90 -44t37 -128q0 -27 -4 -78l-104 -931h-43l-101 931q-8 61 -8 91z" />
<glyph unicode="&#x22;" horiz-adv-x="958" d="M150 1456q0 72 30.5 104.5t81.5 32.5q49 0 84 -33.5t35 -86.5q0 -49 -31 -211l-61 -338h-49l-64 340q-27 139 -26 192zM569 1456q0 72 33 104.5t84 32.5t84 -32.5t33 -87.5q0 -100 -23 -213l-65 -336h-56l-61 336l-27 139q-2 29 -2 57z" />
<glyph unicode="#" horiz-adv-x="1175" d="M41 489v97h215l80 393h-295v92h315l107 522h94l-104 -522h387l112 522h95l-109 -522h195v-92h-211l-82 -393h293v-97h-312l-106 -522h-94l106 522h-391l-109 -522h-96l105 522h-195zM352 586h391l82 393h-391z" />
<glyph unicode="$" horiz-adv-x="1097" d="M86 1135q0 188 120 323t308 135q115 0 205 -45q76 -37 106 -51q39 -4 52.5 10.5t42.5 212.5h38v-624h-38q-25 127 -73 201.5t-139.5 135t-191.5 60.5q-113 0 -185.5 -83t-72.5 -185q0 -80 47 -146q66 -94 318 -256q203 -131 276.5 -200.5t114.5 -165t41 -197.5 q0 -199 -129 -343t-332 -144q-61 0 -117 12q-33 8 -138.5 48t-131.5 40q-29 0 -44.5 -19.5t-25.5 -187.5h-37v672h37q31 -182 78 -261t143.5 -140.5t214.5 -61.5q133 0 212 85t79 200q0 63 -29.5 128.5t-91.5 123.5q-43 37 -230 161.5t-266 199.5t-120 165t-41 197z M496 -682v2740h104v-2740h-104z" />
<glyph unicode="%" horiz-adv-x="1658" d="M106 1151q0 158 48.5 274.5t128.5 173.5q61 43 127 43q109 0 194 -110q106 -133 107 -367q0 -164 -47.5 -277.5t-120 -165.5t-137.5 -52q-137 0 -224 161q-76 132 -76 320zM221 -51l1073 1650h105l-1077 -1650h-101zM233.5 1355.5q0.5 -124.5 18.5 -239.5 q29 -193 92 -307q53 -96 129 -84q41 4 75 43t44 123q12 119 -17 334q-25 160 -73 258q-33 76 -78 100q-31 23 -74 16q-47 -6 -74 -53q-43 -66 -42.5 -190.5zM930 469q0 158 48 273.5t128 172.5q61 45 129 46q106 0 195 -111q104 -135 104 -369q0 -162 -47 -275.5 t-120 -165.5t-138 -52q-133 0 -223 157q-76 136 -76 324zM1059 672.5q0 -123.5 16 -240.5q29 -193 92 -305q55 -96 133 -84q37 4 71 43t44 121q14 121 -16 336q-25 160 -72 258q-35 74 -80 100q-31 23 -73 14q-45 -4 -74 -51q-41 -68 -41 -191.5z" />
<glyph unicode="&#x26;" horiz-adv-x="1828" d="M84 305q0 139 100.5 278.5t374.5 286.5q-53 121 -72.5 198t-19.5 146q0 197 143 299q115 80 258 80q135 0 221.5 -80.5t86.5 -199.5q0 -123 -82 -214t-295 -200q147 -262 305 -475q203 240 203 407q0 51 -37 95q-23 31 -70 35v40h483v-40q-102 -8 -149 -44t-148.5 -218.5 t-228.5 -344.5q104 -117 184 -165t162 -48q78 0 133.5 43t79.5 127l41 -30q-41 -164 -135 -240t-219 -76q-94 0 -191.5 50.5t-214.5 172.5q-141 -127 -255.5 -175t-245.5 -48q-188 0 -300 100.5t-112 239.5zM322 412q0 -123 78.5 -215.5t215.5 -92.5q70 0 137.5 28 t184.5 122q-152 207 -210 303t-128 236q-139 -78 -208.5 -173.5t-69.5 -207.5zM664 1305q0 -57 20.5 -127t75.5 -203q143 66 213.5 152.5t70.5 193.5q0 82 -51 136t-129 54q-98 0 -149 -69.5t-51 -136.5z" />
<glyph unicode="'" horiz-adv-x="421" d="M90 1456q0 72 30 104.5t81 32.5t86 -33.5t35 -86.5q0 -43 -31 -211l-62 -338h-49l-63 340q-27 141 -27 192z" />
<glyph unicode="(" horiz-adv-x="782" d="M96 565q0 354 175 649t460 420v-47q-143 -78 -234 -215t-135.5 -344t-44.5 -436q0 -244 37 -442q31 -162 74 -257.5t114.5 -184.5t188.5 -169v-43q-174 88 -293 205q-164 166 -253 392t-89 472z" />
<glyph unicode=")" horiz-adv-x="782" d="M51 -461q141 80 233.5 215t135.5 343t43 435q0 244 -37 447q-29 158 -72 253t-114.5 184t-188.5 171v47q174 -86 293 -202q162 -168 252 -393.5t90 -471.5q0 -358 -175 -651t-460 -420v43z" />
<glyph unicode="*" horiz-adv-x="1175" d="M164 965q0 29 23.5 60.5t70.5 53.5q31 10 141 35q70 14 140 43q-61 33 -150 49q-141 29 -174 54q-51 37 -51 92q0 31 25.5 56.5t60.5 25.5q39 0 81 -24t105.5 -96.5t126.5 -113.5q-4 78 -31 158q-39 115 -38 155q0 59 27.5 90t70.5 31q35 0 60.5 -30.5t25.5 -87.5 q0 -51 -31 -144.5t-37 -171.5q63 41 117 96q78 92 115 114t78 22q37 0 63.5 -27t26.5 -62q0 -43 -39 -75.5t-191 -65.5q-86 -20 -145 -45q59 -29 145 -45q139 -27 181.5 -64.5t42.5 -82.5q0 -35 -26 -59.5t-58 -24.5q-37 0 -78 23.5t-115 107.5q-45 57 -117 106 q2 -66 29 -143q39 -137 39 -187q0 -45 -26.5 -76.5t-57.5 -31.5q-43 0 -78 33q-23 25 -22 78q0 55 25.5 132.5t32.5 106.5t11 88q-66 -45 -117 -100q-84 -94 -129 -121q-27 -16 -59 -16q-41 0 -67.5 25.5t-26.5 58.5z" />
<glyph unicode="+" horiz-adv-x="1325" d="M41 737v94h571v570h93v-570h575v-94h-575v-575h-93v575h-571z" />
<glyph unicode="," horiz-adv-x="587" d="M123 94q0 55 44 96t105 41q74 0 134.5 -66.5t60.5 -176.5q0 -117 -83 -219.5t-261 -161.5v51q119 41 183.5 122t64.5 173q0 25 -9 37q-8 10 -18 10t-53 -23q-23 -10 -45 -10q-55 0 -89 34t-34 93z" />
<glyph unicode="-" horiz-adv-x="782" d="M94 442v172h592v-172h-592z" />
<glyph unicode="." horiz-adv-x="587" d="M164 96q0 53 38 90t89 37q53 0 90 -36.5t37 -90.5q0 -53 -37 -91t-90 -38q-51 0 -89 38t-38 91z" />
<glyph unicode="/" horiz-adv-x="651" d="M2 -33l565 1667h92l-565 -1667h-92z" />
<glyph unicode="0" horiz-adv-x="1175" d="M84 770q0 266 80 458.5t215 287.5q102 76 213 75q180 0 323 -184q176 -225 177 -614q0 -270 -78 -460t-199 -276t-233 -86q-225 0 -373 265q-125 221 -125 534zM299 1114.5q0 -206.5 29 -403.5q45 -319 151 -508q92 -160 219 -142q63 10 121 74t72 199q27 203 -27 561 q-39 262 -119 430q-59 125 -131 170q-53 33 -120 23q-78 -12 -127 -88q-68 -109 -68 -315.5z" />
<glyph unicode="1" horiz-adv-x="712" d="M53 1384l379 187h37l4 -1489q0 -131 11.5 -163t45 -50.5t140.5 -18.5v-43h-586v43q111 0 142.5 17.5t45 45.5t13.5 169l-4 1014q0 168 -13 217q-8 39 -29.5 55t-48.5 16q-43 0 -120 -34z" />
<glyph unicode="2" horiz-adv-x="1175" d="M49 0v43q406 369 571.5 604.5t165.5 427.5q0 150 -91 245t-218 95q-115 0 -205 -67.5t-135 -196.5h-43q29 211 147.5 325.5t297.5 114.5q190 0 316 -122.5t126 -286.5q0 -119 -53 -238q-86 -186 -275 -393q-289 -313 -358 -377h407q123 0 173.5 9.5t90.5 37t70 78.5h43 l-110 -299h-920z" />
<glyph unicode="3" horiz-adv-x="993" d="M45 82q0 33 26.5 58.5t65.5 25.5q29 0 58 -10q20 -6 89.5 -42t94.5 -42q43 -12 92 -13q115 0 202 90.5t87 215.5q0 90 -39 178q-31 61 -68 94q-49 49 -135 86t-174 37h-39v33q92 12 184.5 66t133.5 129t41 169q0 117 -74 189.5t-184 72.5q-178 0 -300 -190l-38 18 q70 158 170 244t251 86q188 0 291 -121q74 -94 74 -194q0 -172 -213 -353q143 -57 216 -161.5t73 -245.5q0 -203 -127 -352q-170 -193 -488 -193q-158 0 -214 39t-56 86z" />
<glyph unicode="4" horiz-adv-x="1175" d="M20 410v127q0 23 230 350l461 676l24 24h115l10 -10v-1010l191 -2q29 10 36 39l9 23q12 33 18 71l31 4v-409h-29q-6 57 -18 78q-16 25 -33 28h-205v-383v-133q2 -88 64 -106q33 -16 129 -21v-37h-580v31q102 10 127 19q68 27 68 104v143v383h-639zM147 575h547v775z" />
<glyph unicode="5" horiz-adv-x="997" d="M41 115q0 35 25.5 59.5t68.5 24.5q29 0 50.5 -10.5t76.5 -47.5q88 -59 174 -59q137 0 238.5 101.5t101.5 248.5q0 139 -91 262t-251 189q-125 51 -342 61l299 604h559l-90 -194h-469l-102 -209q305 -45 483 -227q152 -154 152 -367q0 -123 -49.5 -227.5t-125 -178 t-169.5 -118.5q-131 -66 -271 -66q-141 0 -204.5 49t-63.5 105z" />
<glyph unicode="6" horiz-adv-x="1175" d="M98 612q0 209 84 397.5t238.5 387t338 301t304.5 102.5h67v-41q-152 -16 -314.5 -143t-248.5 -250t-128 -230.5t-81 -265.5q164 115 332 115q160 0 276.5 -129t116.5 -332q0 -195 -118 -358q-141 -195 -377 -195q-160 0 -271 107q-219 207 -219 534zM317 537 q0 -111 40 -241t124 -204q57 -53 140 -53q102 0 181 94t79 266q0 197 -79 340.5t-222 143.5q-43 0 -93.5 -18t-148.5 -79q-20 -156 -21 -249z" />
<glyph unicode="7" horiz-adv-x="1046" d="M23 1180l149 368h836v-43l-637 -1904h-129l583 1761h-428q-129 0 -186 -33q-96 -51 -156 -162z" />
<glyph unicode="8" horiz-adv-x="1060" d="M78 354q0 104 69.5 205.5t239.5 224.5q-184 152 -238.5 244t-54.5 191q0 154 118 263t310 109q190 0 305 -102.5t115 -233.5q0 -88 -62.5 -179t-258.5 -212q203 -158 270 -248q86 -117 86 -245q0 -166 -126 -283t-329 -117q-221 0 -346 140q-98 113 -98 243zM254 360 q0 -150 81 -237.5t208 -87.5q123 0 197.5 69.5t74.5 171.5q0 82 -45 148q-80 118 -330 317q-94 -80 -140 -175t-46 -206zM260 1296q0 -57 31 -117.5t88 -115.5l188 -154q139 121 176 195t37 164q0 119 -68.5 187.5t-187.5 68.5q-115 0 -189.5 -67.5t-74.5 -160.5z" />
<glyph unicode="9" horiz-adv-x="1175" d="M16 -227q150 0 279 68.5t307 315t215 529.5q-180 -119 -328 -119q-162 0 -279.5 127t-117.5 336q0 205 117 365q141 197 371 196q190 0 327 -159q166 -197 166 -486q-27 -342 -193.5 -658.5t-394.5 -463.5q-184 -94 -403 -94h-66v43zM297 1151q0 -242 100 -379 q76 -98 185 -98q55 0 127 24.5t127 71.5q23 147 22 238q0 113 -39 241.5t-108.5 197.5t-157.5 69q-104 0 -180 -91.5t-76 -273.5z" />
<glyph unicode=":" horiz-adv-x="651" d="M201 96q0 53 38 90t89 37q53 0 91 -36.5t38 -90.5q0 -53 -38 -91t-91 -38q-51 0 -89 38t-38 91zM203 958q0 51 37 89t90 38t90 -37.5t37 -89.5q0 -55 -37 -91t-90 -36t-90 36t-37 91z" />
<glyph unicode=";" horiz-adv-x="651" d="M162 94q0 55 44 96t105 41q74 0 134.5 -66.5t60.5 -176.5q0 -117 -83 -219.5t-261 -161.5v51q117 41 182.5 122t65.5 173q0 25 -11 37q-6 10 -16 10q-12 0 -55 -23q-20 -10 -43 -10q-57 0 -90 34t-33 93zM195 961q0 51 38 87.5t89 36.5q55 0 92 -36.5t37 -87.5 q0 -53 -37 -90t-92 -37q-51 0 -89 36.5t-38 90.5z" />
<glyph unicode="&#x3c;" horiz-adv-x="1325" d="M41 756v57l1235 533v-99l-1063 -463l1063 -467v-102z" />
<glyph unicode="=" horiz-adv-x="1325" d="M41 547v94h1241v-94h-1241zM41 920v94h1241v-94h-1241z" />
<glyph unicode="&#x3e;" horiz-adv-x="1325" d="M41 215v98l1067 463l-1067 467v103l1235 -539v-55z" />
<glyph unicode="?" horiz-adv-x="1042" d="M102 1264q0 131 112 230t302 99q236 0 348 -137q84 -100 84 -225q0 -82 -38 -170t-142 -209q-168 -188 -205 -267t-45 -218h-45q6 147 34 241t118 262q70 131 90 200t20 142q0 145 -77.5 231.5t-190.5 86.5q-100 0 -158.5 -47t-58.5 -105q0 -41 36 -102.5t36 -93.5 q0 -43 -27 -71t-66 -28q-47 0 -87 48.5t-40 132.5zM375 96q0 53 37 92t90 39q55 0 93 -38.5t38 -92.5q0 -51 -39 -89t-92 -38t-90 38t-37 89z" />
<glyph unicode="@" horiz-adv-x="2164" d="M111 510q0 305 142 567t399 409.5t546 147.5q238 0 430.5 -98t291.5 -287.5t99 -400.5t-94 -418t-238.5 -301t-302.5 -94q-88 0 -133 41t-45 117q0 63 23 169q-170 -207 -272.5 -267t-180.5 -60q-82 0 -145.5 73.5t-63.5 192.5q0 168 109.5 375t288.5 336q131 96 235 96 q78 0 130 -40t69 -120l37 127l180 27l-133 -459q-76 -256 -90.5 -325.5t-14.5 -112.5q0 -35 24.5 -61.5t59.5 -26.5q84 0 202 85t202 273.5t84 392.5q0 195 -94.5 363t-267.5 256t-382 88q-266 0 -493.5 -140.5t-360.5 -405.5t-133 -548q0 -264 117 -481t327.5 -327.5 t454.5 -110.5q303 0 547 162.5t379 474.5h65q-104 -315 -375.5 -511t-619.5 -196q-272 0 -507.5 129t-365.5 367.5t-130 521.5zM821 387q0 -66 35 -104.5t78 -38.5q55 0 116.5 44t128 135t97.5 181q53 160 53 258q0 68 -35 107t-84 39q-74 0 -147 -80q-106 -113 -184 -312 q-57 -143 -58 -229z" />
<glyph unicode="A" horiz-adv-x="1435" d="M-6 674l133 33l227 -76l353 962h34l465 -1296q55 -156 101.5 -202t130.5 -52v-43h-529v43q80 4 109 29.5t29 66.5q0 49 -41 158l-11 14l-587 211l-93 -246q-32 -87 -32 -132q0 -40 28.5 -67.5t126.5 -33.5v-43h-422v43q82 16 109 45q51 55 113 223l94 228zM438 608 l537 -217l-305 844z" />
<glyph unicode="B" horiz-adv-x="1435" d="M12 0v43h60q98 0 141 61q29 41 29 172v1008q0 143 -35 182q-43 49 -135 50h-60v43h451v-103q227 90 403 89q73 0 138 -15q174 -41 266 -146.5t92 -242.5q0 -115 -74 -207t-213 -137q164 -37 244 -111q117 -106 117 -260q0 -115 -76 -221.5t-205 -155.5t-395 -49h-748z M465 113q135 -31 266 -31q211 0 320.5 93t109.5 233q0 90 -32.5 201.5t-156.5 159.5q-103 40 -191 40q-18 0 -36 -2q-117 -6 -182 -27.5t-98 -27.5v-639zM465 858q15 -3 34 -3q37 1 83 11q72 16 153 25q129 4 226.5 41t126 84t28.5 135q0 137 -112 233q-72 62 -180 62 q-60 0 -130 -19q-135 -49 -229 -71v-498z" />
<glyph unicode="C" horiz-adv-x="1478" d="M39 616q0 414 242.5 674t582.5 260q258 0 403.5 -118.5t174.5 -249.5q0 -74 -40 -123t-122 -49q-94 4 -150 77q-29 47 -29 95q0 14 3 28q1 7 1 14q0 71 -58 126q-125 71 -239 71h-3q-190 0 -305 -141q-188 -223 -213 -578q-2 -41 -2 -81q0 -367 209 -605 q236 -217 510 -217h10h15q253 0 411 129l33 -37q-104 -143 -267 -190q-125 -34 -260 -34q-85 0 -174 14q-262 59 -473 235q-219 213 -260 700z" />
<glyph unicode="D" horiz-adv-x="1468" d="M37 0v43h51q86 0 123 61q25 41 25 172v1008q0 143 -29 182q-39 49 -119 50h-51v43h393v-103q198 90 352 90q64 0 121 -16l139 -41q197 -98 291.5 -278.5t102.5 -424.5q-8 -328 -179 -546q-197 -236 -569 -240h-651zM432 113q129 -33 217 -33q238 0 393.5 187.5 t155.5 508.5q0 324 -155.5 510.5t-401.5 186.5q-92 0 -209 -95v-1265z" />
<glyph unicode="E" horiz-adv-x="1435" d="M45 0v43h55q57 0 107 25q35 20 48 56t13 152v498h-164v80h164v508q0 74 -28 111q-43 43 -140 43h-55v43h1202l19 -342h-45q-27 123 -55.5 169t-86.5 70q-47 16 -164 17h-426v-615h342q135 0 179 39q59 55 67 186h43v-540h-43q-16 111 -33 143q-18 41 -67 64.5t-146 23.5 h-342v-514q0 -104 8.5 -126.5t33 -36t85.5 -13.5h267q133 0 191.5 19.5t115.5 72.5v6q0 102 -66 226l115 -2l152 -406h-1346z" />
<glyph unicode="F" horiz-adv-x="1273" d="M37 -354h53q96 0 141 57q27 35 27 158v18v889l-154 -4v106h154v471v13q0 50 -14 84q-12 31 -47 51q-49 27 -107 27h-53v43h1161l12 -342h-39q-31 109 -69.5 159.5t-98 73.5t-182.5 23h-342v-611h285q98 0 143 42t62 171h41v-528h-41q-2 90 -24.5 133t-62.5 63.5 t-118 20.5h-285v-885q0 -119 17 -155q10 -29 47 -52q49 -26 102 -26h4h56v-41h-668v41z" />
<glyph unicode="G" horiz-adv-x="1439" d="M166 1174q102 221 276 344q145 98 349 98q74 0 132 -12.5t169 -59.5q53 -26 72 -26h1q18 0 31.5 20.5t17.5 77.5h37l33 -492h-33q-53 184 -135 279q-121 135 -307 135q-256 0 -389 -238q-111 -199 -111 -471q0 -225 74 -408t193.5 -269t224.5 -86q74 0 142.5 22.5 t135.5 65.5v520q-6 47 -21.5 83t-40 52t-87.5 20h-51v45h538v-43h-22q-78 0 -123 -88v-1003q-20 -111 -66 -150q-33 -43 -110 -61q-50 -10 -95 -10h-7q-130 0 -263 143l25 16q57 -53 131 -65q10 -1 19 -1q77 0 124 44q41 29 49 133v254q-123 -55 -282 -55q-365 0 -564 288 q-151 216 -151 500q0 209 84 398z" />
<glyph unicode="H" horiz-adv-x="1478" d="M39 0v43h47q86 0 123 55q24 38 24 167v11v472h-188v88h188v444q0 121 -16 158q-8 31 -39 51q-43 27 -92 27h-47v43h582v-43h-50q-49 0 -92 -27q-31 -16 -44 -55t-13 -154v-444h631v444q0 121 -11 158q-12 31 -45 51q-43 27 -88 27h-51v43h582v-43h-49q-47 0 -91 -27 q-33 -16 -44 -55q-9 -33 -9 -120v-34v-444h164v-88h-164v-472l-2 -59q0 -59 12 -96q10 -29 41 -49q45 -29 93 -29h49v-43h-582v43h51q82 0 119 55q25 39 25 178v472h-631v-472q0 -119 16 -155q10 -29 41 -49q43 -29 92 -29h50v-43h-582z" />
<glyph unicode="I" horiz-adv-x="782" d="M55 0v43h56q96 0 139 55q29 39 29 178v1008q0 117 -17 154q-12 31 -45 51q-51 27 -106 27h-56v43h666v-43h-55q-96 0 -140 -56q-30 -38 -30 -168v-8v-1008q0 -119 16 -155q12 -29 47 -49q51 -29 107 -29h55v-43h-666z" />
<glyph unicode="J" horiz-adv-x="868" d="M45 -217q0 57 27 84q35 37 82 37q33 0 61.5 -24.5t69.5 -129.5q25 -61 61 -61q29 0 55.5 37.5t26.5 134.5v1423q0 117 -16 154q-10 31 -45 51q-45 27 -95 27h-55v43h623v-43h-52q-90 0 -131 -56q-24 -38 -24 -166v-10v-1122q0 -174 -37 -283.5t-124 -190.5t-210 -81 q-100 0 -158.5 53t-58.5 123z" />
<glyph unicode="K" horiz-adv-x="1634" d="M37 0v43h51q92 0 135 55q25 39 25 178v1008q0 117 -17 156q-8 29 -41 49q-49 27 -102 27h-51v43h631v-43h-52q-49 0 -100 -27q-33 -16 -47 -53t-14 -152v-479q25 25 151 147q326 311 393 418q27 45 27 80q0 27 -22.5 46.5t-75.5 19.5h-35v43h481v-43q-49 0 -88 -13.5 t-174 -165.5q-20 -25 -221 -235l-223 -238l862 -919q88 -81 167 -93q11 -2 24 -2q80 0 235 60q-92 -118 -202 -148q-46 -12 -100 -13q-75 0 -167 24q-141 68 -201 127l-831 880v-504q0 -119 18 -155q10 -29 43 -49q47 -29 100 -29h52v-43h-631z" />
<glyph unicode="L" horiz-adv-x="1355" d="M45 0v43h57q96 0 138 63q22 35 22 159v11v1008q0 145 -31 182q-41 49 -129 50h-57v43h686v-43h-18q-109 0 -152 -23q-47 -25 -65.5 -61.5t-18.5 -174.5v-981q0 -94 19 -131q14 -23 40.5 -35t174.5 -12h110q172 0 242 26t70 97q0 72 -56 252h84l148 -471z" />
<glyph unicode="M" horiz-adv-x="1634" d="M84 0v43h45q96 2 115 86v1212q0 96 -35 138q-37 35 -86 37h-39v43h338l432 -697l481 697h359v-35h-43q-84 0 -117 -60q-20 -37 -21 -170v-1392q0 -145 27 -178q33 -51 78 -66l76 14q-42 -52 -107 -52q-70 0 -166 61q-86 88 -86 221v1417l-444 -641h-76l-393 622v-1024 q6 -152 29 -186q37 -51 88 -51h43v-39h-498z" />
<glyph unicode="N" horiz-adv-x="1572" d="M-6 1516v43h424l850 -1098v1071q8 152 131 221q74 37 177 37q54 0 116 -10v-43h-56q-98 0 -141 -60q-28 -31 -28 -110q0 -26 3 -56v-1538h-40l-1006 1256v-959q0 -143 33 -178q43 -49 135 -49h53v-43h-631v47h56q98 0 139 41q33 39 33 199v1083q-25 61 -49 86 q-43 41 -99 49q-33 10 -100 11z" />
<glyph unicode="O" horiz-adv-x="1468" d="M0 807v24q0 358 260 588q101 70 189 70h10q124 110 278 110q215 0 457 -213q221 -270 221 -536q0 -297 -147 -541q-111 -184 -394 -280q-102 -29 -178 -29q-440 0 -649 502q-47 152 -47 305zM240 793q0 -401 217 -627q111 -84 225 -84q221 0 358 190q129 236 129 488v20 q0 272 -122 510q-135 190 -345 191q-168 0 -167 -64l-5 -26v-23q0 -74 91 -113q57 29 88 29q55 0 65 -74q-4 -47 -51 -61l-59 -8q-137 8 -183 153l-10 68v20q-74 -25 -133 -118q-98 -213 -98 -471z" />
<glyph unicode="P" horiz-adv-x="1267" d="M37 -315h59q98 0 140 65q24 34 24 158v10v1366q0 145 -31 182q-45 49 -133 50h-59v43h571q209 0 330 -43t203 -145.5t82 -242.5q0 -193 -126 -312.5t-354 -119.5q-57 0 -122.5 8.5t-141.5 24.5v-811q0 -145 33 -182q45 -51 131 -51h62v-43h-668v43zM479 797 q61 -12 108.5 -18.5t82.5 -6.5q119 0 205 93t86 239q0 102 -41 188t-117 130t-174 44q-55 0 -150 -22v-647z" />
<glyph unicode="Q" horiz-adv-x="1458" d="M39 784q0 348 205 578.5t497 230.5q279 0 480.5 -231.5t201.5 -581.5q0 -289 -143 -505t-260 -259q49 -131 107.5 -195.5t183.5 -76.5v-39q-113 8 -211.5 33.5t-158.5 56.5t-153 172q-360 6 -483 158q-125 111 -195.5 272.5t-70.5 386.5zM276 784q0 -379 150 -583 l100 -72l133 -47h10q123 0 123 85q0 16 -4 34l-12 67l-22 92l-54 62l-28 16l-54 17l-4 10q20 2 39 2q225 0 344 -317q188 238 189 598q0 281 -78 471q-59 150 -157.5 218t-221.5 68q-190 0 -307 -149q-145 -186 -146 -572z" />
<glyph unicode="R" horiz-adv-x="1435" d="M39 0v43h55q90 0 129 63q20 37 21 170v1008q0 145 -27 182q-41 49 -123 50h-55v43h407v-95q195 74 323 74q41 0 75 -8q140 -32 227.5 -135t87.5 -238q0 -143 -87 -248.5t-265 -150.5l496 -756q137 -197 249 -240l90 -26q-53 -10 -103 -10q-210 0 -372 178l-82 96 l-487 729q-55 -2 -88 -2h-30.5t-33.5 2v-453q0 -147 31 -182q39 -51 121 -51h55v-43h-614zM446 801h35h27q205 0 309.5 88t104.5 223q0 131 -68 221t-207 90q-94 -12 -201 -57v-565z" />
<glyph unicode="S" horiz-adv-x="1142" d="M145 1135q0 188 120 323t308 135q115 0 205 -45q76 -37 107 -51q41 -4 53 10.5t41 212.5h41v-624h-41q-25 127 -73 201.5t-139 135t-192 60.5q-113 0 -185.5 -83t-72.5 -185q0 -80 48 -146q66 -94 317 -256q203 -131 276.5 -200.5t114.5 -165t41 -197.5q0 -199 -129 -343 t-332 -144q-61 0 -116 12q-33 8 -137.5 48t-133.5 40t-44 -19.5t-25 -187.5h-37v672h37q31 -182 78 -261t144 -140.5t214 -61.5q133 0 213 85t80 200q0 63 -31 128.5t-92 123.5q-43 37 -230.5 161.5t-266.5 199.5t-120 165t-41 197z" />
<glyph unicode="T" horiz-adv-x="1359" d="M23 1206v389h45v-36h1218v36h43l2 -389h-45q-12 94 -35 133q-35 63 -94 94t-156 31h-219v-1665q0 -115 33 -141q41 -45 111 -45h53v-51h-614v51h57q70 0 115 49q24 34 24 129v8v1665h-188q-106 0 -156 -16q-57 -20 -100 -79.5t-49 -162.5h-45z" />
<glyph unicode="U" horiz-adv-x="1361" d="M-84 1516v43h584v-43h-54q-88 0 -127 -37q-25 -41 -26 -101v-741q2 -90 17.5 -206t54 -180.5t101 -108.5t171.5 -44q197 27 330 142q88 139 88 304q0 34 -4 70v940q0 201 137 271q60 28 127 28q62 0 129 -24v-41h-55q-82 0 -127 -78q-23 -52 -23 -124q0 -20 2 -42v-870 q0 -233 -67 -373q-68 -139 -203 -220t-346 -81q-205 4 -301 76q-123 70 -174 207q-47 117 -52 260v835q-6 78 -43 105q-45 31 -84 33h-55z" />
<glyph unicode="V" horiz-adv-x="1484" d="M8 1534v43h563v-43q-98 -8 -125.5 -34.5t-27.5 -67.5q0 -59 47 -181l348 -913l324 903q147 426 147 477q0 33 -29.5 63.5t-97.5 45.5q-8 0 -20 2v43q92 18 158 18q130 0 163 -69q2 -18 2 -37q0 -111 -69 -279l-557 -1521h-95l-512 1343q-41 104 -57 125 q-25 37 -62.5 57.5t-99.5 24.5z" />
<glyph unicode="W" horiz-adv-x="1912" d="M25 1550v43h510v-43h-23q-55 0 -83 -26.5t-28 -67.5q0 -39 45 -184l271 -875l237 725q47 47 97.5 47t105.5 -47l225 -725l344 1190q45 111 46 164q0 27 -14.5 50.5t-39.5 31.5q-37 16 -100 16v43q80 13 138 13q154 0 161 -88q5 -16 5 -46q0 -99 -58 -354l-434 -1419h-97 l-284 987l-328 -987l-78 2l-410 1294q-47 143 -59 170q-16 45 -52 65.5t-97 20.5z" />
<glyph unicode="X" horiz-adv-x="1552" d="M45 -2v41q49 8 88 24q59 31 114.5 81.5t127.5 154.5l315 465l-264 450q-106 180 -181 238.5t-173 60.5v43h618v-43q-78 -2 -107.5 -29.5t-29.5 -60.5q0 -41 47 -123l205 -356l242 350q41 61 49 85t8 48q0 23 -12 41q-12 25 -37 35t-94 10v43h555v-43q-55 -2 -89 -20 q-57 -27 -108 -56.5t-135 -148.5l-310 -457l472 -821q121 -209 179 -262t146 -61v-41q-36 -2 -69 -2q-219 0 -302 92q-88 115 -135 192l-407 721l-277 -401q-33 -49 -43 -71.5t-10 -47.5q0 -37 26.5 -60.5t104.5 -29.5v-41h-514z" />
<glyph unicode="Y" horiz-adv-x="1441" d="M20 1516v43h568v-43h-29q-47 0 -86 -25t-39 -76q0 -43 62 -147l276 -434l254 442q61 102 61 158q0 31 -12 43t-38.5 25.5t-82.5 13.5v43l523 -3v-43h-23q-27 0 -76 -25.5t-89 -75.5t-111 -173l-744 -1298q-55 -84 -129 -123q-33 -11 -69 -11q-83 0 -177 60l-28 37l26 -13 q33 -8 63 -8q60 0 107 33q37 39 64 82l391 672l-422 622q-66 115 -89.5 143.5t-94.5 69.5q-18 10 -56 11z" />
<glyph unicode="Z" horiz-adv-x="1435" d="M12 16v27l566 795q-55 53 -132 53q-57 0 -122 -127h-7l-36 12q82 238 262 238h20q45 0 125 -29v8l338 475h-516q-238 0 -277 -155q-31 -143 -43 -144h-20l-12 15v407l12 15q29 0 63 -39h1108l13 -17l-500 -704q100 -82 150 -82q68 0 145 127h33v-6q0 -133 -178 -232 l-82 -12h-23q-72 0 -156 53l-419 -598h645q268 0 346 252l33 55h14l14 -16v-432l-14 -14h-21l-75 61h-1239z" />
<glyph unicode="[" horiz-adv-x="782" d="M193 -465v2058h505v-88h-333v-1882h333v-88h-505z" />
<glyph unicode="\" horiz-adv-x="651" d="M2 1634h92l561 -1667h-90z" />
<glyph unicode="]" horiz-adv-x="782" d="M84 -377h334v1882h-334v88h506v-2062h-506v92z" />
<glyph unicode="^" horiz-adv-x="1103" d="M37 805l498 786h36l484 -786h-105l-399 635l-406 -635h-108z" />
<glyph unicode="_" horiz-adv-x="1175" d="M-18 -412h1218v-96h-1218v96z" />
<glyph unicode="`" horiz-adv-x="782" d="M133 1599h256l123 -399h-39z" />
<glyph unicode="a" horiz-adv-x="999" d="M23 260q-1 16 -1 31q0 103 58 190q61 88 171.5 151.5t356.5 143.5v41q0 90 -49 148.5t-147 58.5q-72 0 -115 -39q-41 -39 -41 -90l2 -66q0 -53 -27.5 -81.5t-72.5 -28.5q-41 0 -68 30.5t-27 81.5q0 98 100.5 181.5t285.5 83.5q139 0 229 -49q68 -35 100 -113 q20 -49 21 -199v-358q0 -150 5 -184.5t19.5 -47t30.5 -12.5q18 0 33 10q23 14 90 84v-65q-127 -172 -244 -172q-55 0 -89 39t-36 133q-162 -123 -202 -146q-61 -28 -129 -28h-5q-109 0 -179 75.5t-70 196.5zM197 311q18 -80 67 -134t115 -54q86 0 229 115v469 q-174 -70 -223 -99q-121 -86 -155 -158q-33 -68 -33 -132v-7z" />
<glyph unicode="b" horiz-adv-x="1058" d="M-94 1968l315 129h51v-1214q150 176 326 176q162 0 286 -121t124 -363q0 -279 -187 -450q-160 -147 -356 -148q-94 0 -188.5 34t-192.5 100v1544q0 178 -9 219t-26.5 57.5t-46.5 16.5q-33 0 -80 -21zM272 178q61 -57 125 -87t133 -30q106 0 198.5 116t92.5 333 q0 203 -92 312.5t-209 109.5q-63 0 -127 -33q-45 -20 -121 -92v-629z" />
<glyph unicode="c" horiz-adv-x="1036" d="M49 440q0 285 161 462t386 177q168 0 276.5 -94t108.5 -194q0 -51 -30.5 -82t-84.5 -31q-76 0 -110 51q-25 27 -30 104.5t-50 118.5q-45 39 -123 39q-121 0 -199 -96q-102 -131 -133 -320q-6 -58 -6 -110q0 -199 86 -331q109 -167 315 -195q160 29 226 157q72 61 135 219 l37 -18q-45 -238 -181.5 -365t-297.5 -127q-197 0 -341.5 172.5t-144.5 462.5z" />
<glyph unicode="d" horiz-adv-x="1146" d="M74 481q0 227 138 401.5t361 174.5q137 0 240 -62v645q0 180 -8 222.5t-26.5 57.5t-47.5 15t-78 -20l-16 41l315 131h52v-1819v-14q0 -121 34 -182q45 -39 136 -60v-45h-310h-51v150q-78 -78 -150.5 -114t-156.5 -36q-176 0 -304 144.5t-128 369.5zM285 569 q0 -231 100 -353t225 -122q105 1 203 105v536q-8 78 -42 141.5t-91 96.5t-113 33q-100 0 -178 -93q-104 -117 -104 -344z" />
<glyph unicode="e" horiz-adv-x="970" d="M37 522q0 270 139 422t348 152q176 0 286 -94.5t110 -290.5l-742 -230q16 -86 60 -205q131 -223 325 -223q18 0 37 2q104 0 179 55.5t126 194.5l37 -22q-25 -158 -140.5 -287t-291.5 -129q-238 20 -393 260q-83 154 -83 330q0 32 3 65zM182 588l506 147q-6 98 -24 139 q-29 66 -85.5 103t-117.5 37q-96 0 -172 -73.5t-107 -352.5z" />
<glyph unicode="f" horiz-adv-x="698" d="M4 969v94h229v530q0 150 50.5 255.5t155 169t231.5 63.5q123 0 225 -76q66 -49 66 -111q0 -33 -30 -61.5t-65 -28.5q-25 0 -55.5 18.5t-72.5 77t-76 82.5q-37 20 -80 21q-55 0 -91 -26.5t-52.5 -85t-16.5 -292.5v-536h248v-94h-248v-1213q-25 -123 -51 -166 q-57 -59 -183 -59l-139 16v41h47q45 0 71 6.5t41 45t25 116.5v1213h-229z" />
<glyph unicode="g" horiz-adv-x="1089" d="M37 567q0 258 231 459q127 82 267 82h6q170 0 280 -100v39q49 147 211 155h88v-57q-86 0 -88 -74v-1032q0 -559 -581 -559h-27q-197 0 -227 125v24q2 86 88 90h32q53 0 179 -106q35 -27 63 -27q152 0 238 154q24 75 24 214v11v125q4 39 -20 25q-113 -88 -273 -88 q-348 0 -473 389q-18 74 -18 151zM252 643q43 -528 321 -528h7q154 0 235 172v344q0 166 -160 350q-94 53 -145 53q-131 0 -199 -121q-59 -92 -59 -270z" />
<glyph unicode="h" horiz-adv-x="983" d="M-55 1505l315 131h51v-770q127 139 203 179t150 40q90 0 153.5 -50t95.5 -154q20 -74 21 -269v-723q0 -98 18 -137q10 -29 38 -43t100 -14v-43q-29 -2 -56 -2q-128 0 -211 47q-68 37 -78 192v723q0 172 -18 225.5t-57 81t-95 27.5q-57 0 -117.5 -30.5t-146.5 -118.5v-557 q0 -106 13.5 -134t45 -45.5t113.5 -17.5v-43h-522v43q70 0 111 20q20 12 34.5 45t14.5 132v950q0 182 -8.5 224t-25.5 56.5t-48 14.5q-25 0 -78 -19z" />
<glyph unicode="i" horiz-adv-x="587" d="M66 0v43q78 0 103.5 14.5t41.5 49t16 133.5v546l-10 80q-10 37 -26.5 51.5t-47.5 14.5q-33 0 -77 -17v48l301 122h53v-845q-1 -22 -1 -40q0 -65 11 -91q14 -33 43 -49.5t102 -16.5v-43h-509zM166 1343q0 51 34 85t83 34q47 0 80.5 -33.5t33.5 -85.5q0 -47 -33.5 -81.5 t-80.5 -34.5q-49 0 -83 34.5t-34 81.5z" />
<glyph unicode="j" horiz-adv-x="462" d="M-176 -371q0 41 27.5 70t66.5 29q31 0 59 -15q20 -8 77 -58t96 -50q25 0 51 20.5t39.5 71.5t13.5 215v729q0 174 -10 223q-8 37 -25.5 52.5t-48.5 15.5t-78 -19l-16 43l317 127h49v-1036q0 -270 -113.5 -402t-299.5 -132q-104 0 -154.5 38.5t-50.5 77.5zM145 1288 q0 49 35 83t84 34t83 -34t34 -83t-34 -84t-83 -35t-84 35t-35 84z" />
<glyph unicode="k" horiz-adv-x="1095" d="M-49 0v43q80 0 121 18q25 10 37 37q16 41 16 133v959q0 182 -8 224t-26.5 56.5t-47.5 14.5q-25 0 -74 -19l-18 39l313 129h51v-1048l269 245q86 78 98 99q10 14 10 28q0 23 -19.5 39.5t-62.5 20.5v35h459v-35q-94 -4 -157.5 -30.5t-137.5 -96.5l-270 -248l526 -711 q115 -141 154 -180q55 -53 96 -69q29 -12 98 -13v-41l-204 -8q-160 76 -277 184l-582 781v-348q0 -104 14.5 -135t41 -45.5t116.5 -14.5v-43h-536z" />
<glyph unicode="l" horiz-adv-x="395" d="M-72 1964l314 129h51v-2341q0 -98 13 -131t32.5 -54.5t91.5 -51.5l29 -15q-24 -1 -46 -1q-299 0 -311 253v1901q0 176 -8 217t-26.5 56.5t-42.5 15.5q-31 0 -78 -19z" />
<glyph unicode="m" horiz-adv-x="1691" d="M-6 958l317 127h49v-223q115 115 136 131q51 45 111.5 68.5t117.5 23.5q98 0 171 -56t124 -167q90 139 171 181t169 42q84 0 148.5 -42t101.5 -142q26 -64 26 -199v-10v-731q-2 -160 195 -215l-10 -22q-17 -1 -33 -1q-140 0 -248 62q-90 92 -94 192v715q0 129 -31 182 q-47 74 -145 74q-59 0 -116.5 -32.5t-125.5 -135.5v-540q0 -106 12.5 -133t45 -44.5t114.5 -17.5v-43h-532v43q86 0 118.5 19.5t44.5 62.5q8 18 9 113v452q0 129 -39 187q-79 73 -168 73h-2q-61 0 -123 -34q-94 -49 -148 -113v-565q0 -102 14.5 -133t43 -46.5t114.5 -15.5 v-43h-522v43q72 0 101.5 15.5t44 49t14.5 130.5v403q0 174 -10 223q-8 37 -24.5 51.5t-47.5 14.5q-33 0 -78 -17z" />
<glyph unicode="n" horiz-adv-x="1124" d="M-6 958l317 127h49v-223q115 115 136 131q51 45 111.5 68.5t117.5 23.5q98 0 188 -57q106 -66 125 -235v-899q-1 -13 -1 -25q0 -149 180 -203l-9 -20q-20 -1 -40 -1q-135 0 -240 60q-88 92 -97 195v792q-16 129 -53 187q-56 73 -145 73h-2q-61 0 -123 -34 q-94 -49 -148 -113v-565q0 -102 14.5 -133t43 -46.5t114.5 -15.5v-43h-522v43q72 0 101.5 15.5t44 49t14.5 130.5v403q0 174 -10 223q-8 37 -24.5 51.5t-47.5 14.5q-33 0 -78 -17z" />
<glyph unicode="o" horiz-adv-x="1075" d="M20 539v16q0 238 187 393q72 45 154 45h14q69 76 182 76q203 0 320 -117q170 -205 170 -385q0 -197 -107 -360q-80 -123 -285 -189q-76 -18 -133 -18q-315 0 -469 338q-33 98 -33 201zM352 113q80 -57 162 -58q160 0 262 127q94 162 94 334v14q-8 207 -110 361 q-100 102 -232 117q-121 0 -120 -43l-5 -19v-16q0 -49 70 -78q39 18 62 18q39 0 49 -47q-4 -33 -39 -43l-43 -4q-100 4 -133 105l-7 47v12q-53 -16 -98 -82q-69 -141 -69 -314q0 -279 157 -431z" />
<glyph unicode="p" horiz-adv-x="1134" d="M-45 -481h29q63 0 108 24q20 12 33.5 41t30.5 144v1013q0 104 -9.5 131t-30 41.5t-53.5 14.5q-29 0 -69 -17l-17 37l326 131h43v-245q82 139 164 194t172 55q160 0 266 -122q131 -154 131 -396q0 -272 -159 -452q-127 -145 -322 -146q-84 0 -149 27q-43 16 -103 67 l8 -342q0 -106 12.5 -137t45 -47t118.5 -16v-43h-575v43zM346 371q0 -127 12 -166q12 -66 77 -116t157 -50q117 0 188 88q94 117 94 330q0 240 -106 372q-74 88 -176 89q-55 0 -111 -27q-39 -23 -135 -127v-393z" />
<glyph unicode="q" horiz-adv-x="1040" d="M20 494q0 270 159 438t382 168q66 0 121 -18.5t98 -55.5q68 33 127 74h41v-1370q0 -100 12.5 -129t42 -45.5t113.5 -16.5v-43h-528v43h20q63 0 99 19q20 10 34.5 43.5t14.5 128.5v469q-102 -123 -180 -169t-164 -46q-152 0 -272 138t-120 372zM213 580q0 -213 94 -324 t225 -111q68 0 121.5 29.5t102.5 95.5v494q0 88 -22.5 138t-78 84t-129.5 34q-131 0 -222 -109.5t-91 -330.5z" />
<glyph unicode="r" horiz-adv-x="798" d="M-6 956l317 127h49v-235q130 235 270 235h1q66 0 106.5 -37.5t40.5 -89.5q0 -45 -29.5 -75.5t-72.5 -30.5q-39 0 -90 40t-74 40q-20 0 -45 -23q-74 -57 -107 -155v-746q0 -86 21 -131q16 -31 55 -50.5t109 -19.5v-43h-541v43q82 0 121 23q29 18 43 55v856v37q0 60 -5 88 q-7 35 -27.5 51.5t-49.5 16.5q-37 0 -82 -19z" />
<glyph unicode="s" horiz-adv-x="759" d="M8 788q0 129 89 216.5t231 87.5q61 0 151 -25q59 -16 78 -16q18 0 28.5 8t22.5 86h37v-352h-37q-41 111 -109.5 172t-174.5 61q-80 0 -129.5 -43t-49.5 -96q0 -63 35 -107q35 -49 215 -221l215 -184q137 -109 138 -295q0 -143 -109 -231.5t-244 -88.5q-94 0 -221 35 q-37 12 -61 12q-27 0 -39 -71h-37v364h37q31 -135 121 -203.5t204 -68.5q78 0 128.5 47t50.5 113q0 78 -56.5 132t-174.5 168.5t-288 336.5q-51 61 -51 163z" />
<glyph unicode="t" horiz-adv-x="649" d="M-4 969v94h164v614q68 59 100 127q41 61 100 215v-956h244v-94h-244v-1155q0 -100 30 -136t75 -36q37 0 73.5 23.5t53.5 68.5h45q-39 -113 -113.5 -169.5t-152.5 -56.5q-51 0 -101.5 30t-75 83t-34.5 170v1178h-164z" />
<glyph unicode="u" horiz-adv-x="1118" d="M4 1010v43h223l95 -68v-637q-1 -16 -1 -31q0 -106 50 -157q38 -39 109 -39h14q49 0 112.5 25.5t149.5 113.5v819q28 164 270 195v-39q-80 -8 -80 -139v-6v-676q0 -180 9.5 -222t27.5 -58.5t45 -16.5q35 0 80 22l16 -41l-315 -108h-53v200q-135 -145 -205 -172.5 t-152 -27.5q-117 23 -176 92q-82 117 -84 297v469q-2 76 -18.5 104.5t-54.5 55.5z" />
<glyph unicode="v" horiz-adv-x="1175" d="M16 1010v43h494v-43h-29q-45 0 -69.5 -20.5t-24.5 -59.5t25 -96l245 -582l394 801q24 61 24 93q0 19 -8 32q-12 16 -32.5 22t-78.5 6v41q33 3 62 3q153 0 153 -92q0 -38 -26 -91l-520 -1100h-50l-374 891q-27 59 -49.5 87t-57.5 46q-23 10 -78 19z" />
<glyph unicode="w" horiz-adv-x="1634" d="M12 1010v43h443v-43q-61 -4 -81 -20.5t-20 -49.5q0 -37 21 -88l194 -533l199 435q53 61 106 61q51 0 101 -59l188 -437l297 744q23 66 23 100q0 20 -22.5 38t-88.5 22v41q23 1 44 1q200 0 200 -109q0 -32 -17 -73l-421 -1093h-48l-264 651l-307 -651h-43l-338 862 q-33 84 -65.5 113.5t-100.5 44.5z" />
<glyph unicode="x" horiz-adv-x="1175" d="M29 1010v43h471v-43q-25 0 -43.5 -15.5t-18.5 -42.5t39 -86q14 -18 41 -57l74 -119l86 119q82 115 82 143q0 25 -19.5 41.5t-62.5 16.5v43h356v-43q-57 -2 -98 -31q-55 -39 -156 -170l-143 -193l418 -606q96 -139 137 -167.5t108 -32.5v-41q-369 23 -469 241l-309 455 l-168 -225q-78 -102 -78 -125q0 -25 26 -47.5t77 -24.5v-43h-344v43q43 4 74 29q45 33 147 168l219 295l-199 288q-86 123 -132 155t-115 32z" />
<glyph unicode="y" horiz-adv-x="1058" d="M-70 -432q0 39 26 61.5t75 22.5q29 0 84 -19q39 -16 49 -16q29 0 62.5 28.5t70.5 106.5l111 283l-232 844q-14 29 -45 69q-27 31 -39 43q-25 10 -74 23v41h410v-41h-20q-41 0 -63.5 -17.5t-22.5 -44.5v-15q0 -38 8 -79l172 -627l305 666q16 35 16 72q0 16 -6 22 q-8 10 -24.5 16.5t-57.5 6.5v41h320v-43q-37 -4 -56.5 -13.5t-44.5 -42.5q-6 -10 -30 -69l-539 -1186q-49 -121 -149.5 -178.5t-176.5 -57.5q-55 0 -92 32t-37 71z" />
<glyph unicode="z" horiz-adv-x="1040" d="M20 0v43l699 930h-273q-111 0 -181 -14.5t-95 -55.5q-31 -57 -35 -143h-45v291h895l-4 -41l-707 -932h318q119 0 195.5 19.5t103.5 68.5q18 39 31 156h39v-322h-941z" />
<glyph unicode="{" horiz-adv-x="782" d="M4 758q186 96 260 375v421q0 266 107 369q86 80 336 113q-170 -102 -211 -196.5t-41 -268.5v-391q0 -188 -33 -271q-41 -102 -100 -141q57 -45 95 -140.5t38 -279.5v-391q0 -178 40 -269t253 -169q-291 6 -377 86q-106 98 -107 368v422q-72 324 -260 363z" />
<glyph unicode="|" horiz-adv-x="520" d="M152 -293v2196h210v-2196h-210z" />
<glyph unicode="}" horiz-adv-x="782" d="M57 -481q203 78 241 166t38 266v387q0 180 36 274.5t91 139.5q-57 39 -94 139q-33 82 -33 266v387q0 172 -39 263t-201 196q240 -33 320 -111q102 -104 102 -366v-414q72 -274 248 -371q-178 -37 -248 -358v-414q0 -268 -102 -366q-80 -80 -359 -84z" />
<glyph unicode="~" horiz-adv-x="1411" d="M143 494q-53 39 0 38q33 0 84 105q160 149 324 149q94 0 340 -127q88 -33 156 -32q119 0 260 159h14v-14q-190 -240 -375 -240q-88 0 -241 89q-109 43 -207 43h-6q-205 0 -271 -140q-33 -31 -65 -30h-13zM260 543v10q82 90 211 90h27q119 0 303 -121l78 -4h20 q152 0 291 90h8v-4q-98 -123 -352 -176l-66 -8q-197 45 -229 96q-94 43 -176 47z" />
<glyph unicode="&#xa2;" horiz-adv-x="1138" d="M133 696q0 279 121 422q102 119 283 135v156h122v-156q223 -23 312 -200q27 -55 39 -119l-185 -14q-14 90 -61 134t-105 56v-825q152 33 175 204l182 -12q-27 -211 -209 -301q-63 -31 -148 -39v-168h-122v168q-211 18 -314 176q-90 143 -90 383zM322 707.5 q0 -99.5 12 -177.5q39 -218 203 -247v829q-166 -25 -203 -227q-12 -78 -12 -177.5z" />
<glyph unicode="&#xa3;" horiz-adv-x="1138" d="M27 145q96 53 162.5 151.5t66.5 240.5q0 61 -16 125h-197v147h154q-33 113 -41.5 164t-8.5 100q0 207 154 326q123 92 299 92q182 0 299 -99.5t145 -279.5l-180 -27q-14 119 -89 188.5t-179 69.5q-111 0 -184.5 -71.5t-73.5 -171.5q0 -113 57 -291h316v-147h-285 q20 -45 20 -89q0 -88 -42 -184t-136 -199q78 23 144 23q84 0 186 -25q172 -41 233 -41q74 0 193 56l57 -164q-92 -39 -142 -51.5t-101 -12.5q-41 0 -84 9q-27 4 -129.5 35.5t-132.5 37.5q-47 8 -95 9q-72 0 -153.5 -26t-147.5 -69z" />
<glyph unicode="&#xa5;" horiz-adv-x="1138" d="M-2 1466h201l288 -516q49 -88 76 -153q25 53 82 161l275 508h215l-406 -710h340v-150h-412v-141h412v-139h-412v-326h-180v326h-414v139h414v141h-414v150h340z" />
<glyph unicode="&#xa6;" horiz-adv-x="530" d="M182 344h166v-778h-166v778zM182 707v778h166v-778h-166z" />
<glyph unicode="&#xa9;" horiz-adv-x="1507" d="M2 735q0 199 101.5 380t283 278.5t371.5 97.5q188 0 369.5 -97.5t282.5 -278.5t101 -380q0 -195 -99 -375t-279.5 -279t-374.5 -99q-197 0 -376 99t-279.5 279.5t-100.5 374.5zM127 735q0 -162 84 -311.5t233.5 -233.5t313.5 -84q162 0 312.5 84t233 233.5t82.5 311.5 q0 164 -84.5 315.5t-235 233.5t-308.5 82q-160 0 -310.5 -82t-235.5 -233.5t-85 -315.5zM362 733q0 133 50.5 230.5t142.5 146.5t211 49q133 0 221 -63.5t121 -171.5l-121 -29q-29 74 -87 114t-138 40q-115 0 -189.5 -82t-74.5 -236t70.5 -231.5t183.5 -77.5q90 0 157 51 t90 141l123 -36q-31 -125 -128 -200t-236 -75q-176 0 -286 114.5t-110 315.5z" />
<glyph unicode="&#xab;" horiz-adv-x="1138" d="M82 506v63l336 371h168v-31l-336 -372l338 -367v-29h-170zM547 506v63l338 371h168v-31l-338 -372l340 -367v-29h-170z" />
<glyph unicode="&#xad;" horiz-adv-x="782" d="M94 442v172h592v-172h-592z" />
<glyph unicode="&#xae;" horiz-adv-x="1507" d="M2 735q0 199 101.5 380t283 278.5t371.5 97.5q188 0 369.5 -97.5t282.5 -278.5t101 -380q0 -195 -99 -375t-279.5 -279t-374.5 -99q-197 0 -376 99t-279.5 279.5t-100.5 374.5zM127 735q0 -162 84 -311.5t233.5 -233.5t313.5 -84q162 0 312.5 84t233 233.5t82.5 311.5 q0 164 -84.5 315.5t-235 233.5t-308.5 82q-160 0 -310.5 -82t-235.5 -233.5t-85 -315.5zM426 319v811h279q143 0 207.5 -22.5t102.5 -77.5t38 -119q0 -90 -63.5 -155.5t-170.5 -73.5q43 -18 70 -43q49 -47 121 -162l98 -158h-160l-71 127q-86 152 -138 191q-37 27 -104 27 h-78v-345h-131zM557 776h160q113 0 154.5 34t41.5 89q0 37 -20.5 65.5t-55 43t-130.5 14.5h-150v-246z" />
<glyph unicode="&#xb0;" horiz-adv-x="817" d="M121 1145q0 59 22.5 111.5t62.5 91t91 60.5t111 22q59 0 111 -22t91 -60.5t61.5 -91t22.5 -111.5t-22.5 -111.5t-61.5 -90.5t-91 -60.5t-111 -22.5t-110.5 22.5t-91.5 60.5t-62.5 90t-22.5 112zM229 1145q0 -37 14.5 -70t38 -57.5t56.5 -38.5t70 -14q39 0 70.5 14 t56 38.5t38 57.5t13.5 70t-13.5 69.5t-38 57t-56.5 39t-70 14.5q-37 0 -70 -14.5t-56.5 -39t-38 -57t-14.5 -69.5z" />
<glyph unicode="&#xb6;" horiz-adv-x="1099" d="M0 1044q0 193 121 307.5t352 114.5h633v-174h-143v-1700h-170v1700h-224v-1700h-166v1047q-186 8 -294.5 119.5t-108.5 285.5z" />
<glyph unicode="&#xbb;" horiz-adv-x="1138" d="M82 141v29l338 367l-336 372v31h168l336 -371v-63l-336 -365h-170zM549 141v29l338 367l-336 372v31h166l338 -371v-63l-338 -365h-168z" />
<glyph unicode="&#xd6;" horiz-adv-x="1591" d="M98 715q0 365 195.5 571.5t507.5 206.5q203 0 365.5 -97.5t248.5 -271.5t86 -393q0 -223 -90 -399t-255 -266.5t-357 -90.5q-207 0 -370 99.5t-247 272.5t-84 368zM299 711q0 -264 142.5 -417t357.5 -153q219 0 360 154t141 436q0 180 -60 313.5t-177 207t-262 73.5 q-205 0 -353.5 -141t-148.5 -473zM516 1556v205h186v-205h-186zM889 1556v205h188v-205h-188z" />
<glyph unicode="&#xd7;" horiz-adv-x="1193" d="M141 330l355 354l-353 352l105 103l350 -353l350 351l105 -105l-351 -348l353 -352l-103 -105l-352 353l-356 -355z" />
<glyph unicode="&#xdc;" horiz-adv-x="1478" d="M160 618v848h194v-845q0 -193 35 -283t122 -139t212 -49q213 0 304 97t91 374v845h195v-848q0 -221 -50.5 -351t-180.5 -211t-343 -81q-205 0 -336 71t-187 205t-56 367zM453 1556v205h188v-205h-188zM825 1556v205h189v-205h-189z" />
<glyph unicode="&#xf6;" horiz-adv-x="1138" d="M68 530q0 295 163 439q137 117 334 116q219 0 358.5 -143t139.5 -395q0 -205 -61.5 -323t-179 -183.5t-257.5 -65.5q-223 0 -360 143.5t-137 411.5zM252 530q0 -203 89 -304t224 -101t224.5 101.5t89.5 310.5q0 197 -90.5 299t-223.5 102q-135 0 -224 -101.5t-89 -306.5z M285 1270v205h188v-205h-188zM657 1270v205h189v-205h-189z" />
<glyph unicode="&#xf7;" horiz-adv-x="1122" d="M63 608v146h996v-146h-996zM477 223v183h168v-183h-168zM477 958v183h168v-183h-168z" />
<glyph unicode="&#xfc;" horiz-adv-x="1138" d="M129 403v660h180v-590q0 -141 10 -190q18 -70 72.5 -111t136.5 -41q80 0 152 41t101.5 112.5t29.5 209.5v569h178v-1063h-160v156q-125 -180 -337 -181q-94 0 -175 36t-121 91.5t-57 133.5q-10 53 -10 167zM279 1270v205h188v-205h-188zM651 1270v205h189v-205h-189z" />
<glyph unicode="&#x100;" horiz-adv-x="1363" d="M2 0l576 1409h217l565 -1409h-195l-161 412h-642l-161 -412h-199zM410 1571v127h548v-127h-548zM420 561h526l-180 465q-16 41 -30.5 82t-26 73.5t-18.5 55.5t-7 29q-2 -6 -9 -29t-19.5 -56.5t-27 -74.5t-28.5 -82z" />
<glyph unicode="&#x101;" horiz-adv-x="1138" d="M86 301q0 109 41 177.5t106.5 107.5t149.5 53t170 16l244 4v60q0 68 -14.5 115t-43 75.5t-72.5 42t-104 13.5q-51 0 -93 -7.5t-72.5 -27t-50 -53t-25.5 -84.5l-189 18q10 63 39 116.5t80 92.5t129 60.5t186 21.5q205 0 308.5 -93.5t103.5 -271.5v-465q0 -80 20.5 -120.5 t79.5 -40.5q14 0 29.5 2t30.5 6v-113q-35 -8 -69 -12t-71 -4q-51 0 -88 13t-59.5 41t-34.5 69t-14 94h-6q-29 -51 -64 -93t-81 -72t-104 -46t-134 -16q-164 0 -246 86t-82 235zM270 299q0 -88 48.5 -136t136.5 -48q86 0 150.5 31.5t106.5 80.5t63.5 106.5t21.5 110.5v91 l-199 -5q-66 -2 -125 -10t-104 -32.5t-72 -69.5t-27 -119zM283 1237v127h548v-127h-548z" />
<glyph unicode="&#x112;" horiz-adv-x="1363" d="M168 0v1409h1069v-156h-879v-452h820v-154h-820v-491h920v-156h-1110zM428 1571v127h551v-127h-551z" />
<glyph unicode="&#x113;" horiz-adv-x="1138" d="M86 549q0 152 38 257t104.5 170.5t154.5 95.5t186 30q137 0 228.5 -44t146.5 -122t79 -182.5t24 -227.5v-22h-773q0 -86 17.5 -158t54.5 -123t94.5 -79.5t137.5 -28.5q117 0 187.5 47t94.5 119l158 -45q-16 -45 -47 -90.5t-82 -82t-128 -60t-183 -23.5q-240 0 -366 143 t-126 426zM276 641h584q-14 170 -86 249t-207 79q-45 0 -94 -14.5t-91 -51.5t-71.5 -100.5t-34.5 -161.5zM295 1237v127h549v-127h-549z" />
<glyph unicode="&#x192;" horiz-adv-x="1138" d="M190 -434l254 1325h-151l26 131h152l29 152q12 59 31.5 110t55.5 89t90 59.5t136 21.5q31 0 72 -5t76 -15l-31 -121q-16 4 -47 9t-62 5q-33 0 -55.5 -9t-38.5 -29.5t-28.5 -52.5t-20.5 -77l-27 -137h211l-24 -131h-213l-254 -1325h-181z" />
<glyph unicode="&#x2dc;" horiz-adv-x="681" d="M-23 1200q4 45 14.5 93t33 87t59.5 63.5t96 24.5q45 0 87 -18t81 -41t73 -41t64 -18q53 0 81 31.5t36 86.5h92q-4 -43 -14 -91t-31.5 -87t-58.5 -64.5t-98 -25.5q-41 0 -83 18.5t-81 41t-75 42t-67 19.5q-55 0 -81.5 -32t-36.5 -89h-91z" />
<glyph unicode="&#x1000;" horiz-adv-x="1806" d="M41 432q0 188 127 311t317 123q229 0 363 -184q131 184 362 184q188 0 316.5 -124t128.5 -310q0 -178 -128 -305t-308 -127q-94 0 -164 47q-80 53 -80 141q0 80 84 80q25 0 73 -54t93 -54q106 0 187 83t81 189q0 117 -84 195t-199 78q-109 0 -194.5 -72t-85.5 -176v-49 q-4 -8 -4 -33q-37 -248 -273 -344q-12 -4 -30 -4q-82 0 -82 84q0 51 53 71q172 68 172 228v47q0 104 -86 176t-195 72q-115 0 -199.5 -78t-84.5 -195q0 -199 194 -258q55 -16 56 -74q0 -84 -78 -84q-12 0 -29 7q-137 45 -220 155.5t-83 253.5z" />
<glyph unicode="&#x1001;" horiz-adv-x="1169" d="M0 483q0 4 63.5 53.5t71.5 59.5q84 121 139 166q131 104 275 104q186 0 314 -124t128 -310q0 -188 -126 -310t-316 -122q-90 0 -172 33q-174 49 -174 223q0 94 68.5 162.5t164.5 68.5q98 0 167 -66.5t69 -164.5q0 -31 -15 -74q174 74 174 250q0 117 -83.5 195t-198.5 78 q-74 0 -131 -37q-51 -14 -78 -50l-10 -14q-111 -137 -224 -137q-47 0 -106 16zM362 256q0 -37 64 -68h10q72 0 72 68q0 70 -72 70q-74 0 -74 -70z" />
<glyph unicode="&#x1002;" horiz-adv-x="1097" d="M41 432q0 186 128 310t316 124q190 0 317.5 -123t127.5 -311q0 -326 -262 -389q-20 -6 -35 -6q-63 0 -64 88q0 61 62 76q139 27 139 231q0 117 -85 195t-200 78t-199.5 -78t-84.5 -195q0 -184 176 -252q55 -20 55 -74q0 -84 -78 -83q-14 0 -30 6q-131 45 -207 155.5 t-76 247.5z" />
<glyph unicode="&#x1003;" horiz-adv-x="1966" d="M-102 885q12 25 28 37q100 76 219 75q119 0 220 -69q109 -76 108 -193q0 -82 -72 -139q-96 -61 -96 -164q0 -115 84 -193.5t201 -78.5q109 0 193.5 71.5t84.5 178.5v39q0 127 -114 204q-35 27 -35 66q0 86 78 86q23 0 49 -19q147 -104 180 -278q0 -348 287 -348 q117 0 200.5 78.5t83.5 193.5q0 106 -80.5 189.5t-189.5 83.5q-45 0 -93 -52.5t-71 -52.5q-86 0 -86 78q0 86 82 139q70 49 164 49q178 0 306 -127t128 -307q0 -184 -128 -308t-316 -124q-227 0 -363 182q-133 -182 -360 -182q-193 0 -319 122t-126 310q0 154 78 232 q55 23 76 59q8 8 12 22q0 2 2 9v10q0 72 -112 110q-82 29 -168 29q-74 0 -135 -18z" />
<glyph unicode="&#x1004;" horiz-adv-x="1026" d="M41 432q0 186 128 310t316 124q229 0 349 -164q39 -53 38 -122q0 -133 -98 -134q-80 0 -80 84q0 27 19 50q-8 61 -90 98q-63 27 -138 27q-115 0 -199.5 -78t-84.5 -195q0 -115 85 -193.5t199 -78.5q172 0 250 145q23 43 68 43q84 0 84 -78q0 -23 -10 -43 q-125 -227 -392 -227q-190 0 -317 122t-127 310z" />
<glyph unicode="&#x1005;" horiz-adv-x="1093" d="M41 432q0 186 128 310t316 124q190 0 317.5 -123t127.5 -311q0 -184 -128 -308t-317 -124q-190 0 -317 122t-127 310zM201 432q0 -68 73 -67q72 -1 72 67q0 72 -72 72q-74 0 -73 -72zM326 207q78 -47 159 -47q115 0 200 78.5t85 193.5q0 117 -85 195t-200 78 q-88 0 -159 -48q80 -16 132 -79.5t52 -145.5q0 -78 -53.5 -142.5t-130.5 -82.5z" />
<glyph unicode="&#x1006;" horiz-adv-x="1921" d="M18 483q-8 16 136 113q82 119 141 166q129 104 272 104q227 0 363 -180q131 182 362 182q188 0 316.5 -124t128.5 -312q0 -184 -128 -308t-317 -124q-229 0 -362 182q-135 -182 -363 -182q-90 0 -172 33q-76 20 -125 81.5t-49 141.5q0 98 67.5 164.5t166.5 66.5 q98 0 166.5 -66.5t68.5 -164.5q0 -31 -14 -74q156 61 172 224v57q-10 104 -92 173t-189 69q-76 0 -129 -37q-37 -10 -157 -140q-59 -61 -156 -61q-47 0 -107 16zM381 256q0 -37 65 -68q82 0 82 68q0 70 -73 70q-74 0 -74 -70zM1012 406q10 -104 92 -174t188 -70 q115 0 198 77.5t83 192.5q0 119 -82 196t-199 77q-109 0 -187.5 -67t-92.5 -175v-57z" />
<glyph unicode="&#x1007;" horiz-adv-x="1107" d="M41 432q0 186 128 310t316 124q190 0 317.5 -122.5t127.5 -311.5q4 -41 4 -49q0 -35 -2 -43q115 -99 119 -240q2 -84 -80 -84q-76 0 -82 80q-2 55 -39 101q-16 -6 -19 -7q-57 -39 -129 -38q-100 0 -168.5 66.5t-68.5 164.5q0 94 67.5 158.5t165.5 70.5q-84 92 -213 93 q-115 0 -199.5 -78t-84.5 -195q0 -96 61.5 -170t153.5 -92q61 -14 61 -78q0 -41 -28.5 -66.5t-71.5 -13.5q-150 39 -243 153t-93 267zM629 383q0 -70 73 -70q27 0 50 19q0 8 6 16q8 31 8 62q-23 39 -64 39q-74 0 -73 -66z" />
<glyph unicode="&#x1008;" horiz-adv-x="1310" d="M29 436q0 182 123.5 301t304.5 119q184 0 307 -118t123 -300t-124 -301t-306 -119q-184 0 -306 118t-122 300zM182 438q0 -68 72 -67q70 -1 70 67q0 66 -70 66q-72 0 -72 -66zM303 221q70 -45 154 -45q113 0 193.5 75.5t80.5 186.5t-81 185.5t-193 74.5q-84 0 -154 -45 q78 -14 128 -74.5t50 -140.5q0 -76 -51 -138t-127 -79zM360 -530q0 166 89 323q96 168 241 227q35 14 64 3q-221 -209 -222 -472q0 -147 68 -239q78 -104 217 -105h105q76 0 75 78v1510q0 78 78 77q80 0 80 -77v-1510q0 -96 -68.5 -165.5t-164.5 -69.5h-105q-211 0 -330 102 q-127 109 -127 318z" />
<glyph unicode="&#x1009;" horiz-adv-x="1050" d="M41 270q0 78 84 78q45 0 68 -43q80 -145 249 -145q117 0 201 78.5t84 193.5q0 117 -84 195t-201 78q-72 0 -137 -27q-82 -37 -90 -98q16 -20 16 -50q0 -84 -77 -84q-45 0 -74 46q-25 37 -25 83q0 72 39 127q117 164 348 164q178 0 306.5 -116.5t138.5 -292.5l2 -49 q6 -90 -82 -228q-143 -180 -365 -180q-123 0 -239 68v-838q0 -84 80 -84h665q539 0 985 514q-80 -211 -319 -416q-301 -258 -613 -258h-718q-100 0 -170 72t-70 172v1020q-2 8 -2 20z" />
<glyph unicode="&#x100a;" horiz-adv-x="1796" d="M61 250q-2 20 0 39q23 59 86 59q43 0 66 -43q80 -145 252 -145q115 0 196.5 78.5t81.5 193.5q0 119 -80.5 196t-197.5 77q-72 0 -139 -31q-80 -37 -90 -94q16 -20 16 -50q0 -84 -80 -84q-45 0 -71.5 38t-26.5 87q0 72 43 131q117 164 348 164q186 0 314 -121.5 t128 -308.5v-14q0 -113 84 -187.5t201 -74.5q115 0 198 78.5t83 193.5q0 119 -81 196t-200 77q-76 0 -88 -41q-16 -59 -74 -60q-84 0 -84 78q0 88 82 139q72 45 164 45q186 0 313 -122.5t127 -311.5q0 -188 -127 -310t-313 -122q-233 0 -367 182q-131 -182 -360 -182 q-139 0 -240 68v-840q0 -82 78 -82h666q543 0 987 512q-82 -211 -322 -418q-299 -258 -610 -258h-721q-104 0 -173 70.5t-69 175.5v1022z" />
<glyph unicode="&#x100b;" horiz-adv-x="1234" d="M41 432q0 186 128 310t316 124q147 0 295 -112q72 -86 199 -183q74 -41 166 -47q-72 -72 -160 -71q-133 0 -264 133q-14 20 -39 37q-111 82 -197 82q-115 0 -199.5 -78t-84.5 -195q0 -115 85 -193.5t199 -78.5q39 0 123 32.5t115 32.5q102 0 94 -233q-6 -154 -209 -185 q-80 -25 -157 -24q-90 0 -183 31q-2 -31 17 -50q72 -37 172 -36q37 0 108.5 8t108.5 8q96 0 96 -84v-422q14 -113 270 -98q6 -23 209 35q248 65 385 174q0 -109 -278 -238q-254 -117 -387 -117q-362 0 -363 273v315q-78 -14 -155 -14q-197 0 -267 70l-28 28q-47 61 -47 137 q0 68 30 123q37 72 99 72q16 0 34 -10q82 -41 183 -41q61 0 110 16l19 4q63 10 73 41v25q-78 -33 -172 -33q-190 0 -317 122t-127 310z" />
<glyph unicode="&#x100c;" horiz-adv-x="1064" d="M-164 -653q317 -209 629 -209q59 0 94 8q154 10 154 104l-4 746q-223 0 -285 10q-170 31 -276.5 144.5t-106.5 281.5q0 186 128 310t316 124q233 0 349 -164q39 -55 38 -127q0 -129 -96 -129q-82 0 -82 84q0 29 19 50q-8 57 -90 94q-68 31 -138 31q-115 0 -199.5 -78 t-84.5 -195q0 -115 85 -193.5t199 -78.5q29 0 107 -2q66 -6 102 -2q152 4 178 -142v-755q0 -143 -116 -213q-96 -59 -248 -60q-379 0 -649 305q-23 27 -23 56z" />
<glyph unicode="&#x100d;" horiz-adv-x="1062" d="M55 573q0 74 39 129q117 164 348 164q193 0 319 -122.5t126 -311.5q0 -184 -128 -308t-317 -124q-27 0 -86 -2t-88 -2q-8 -14 -8 -33q0 -23 21 -41q90 -27 305 -8q150 10 180 -141l2 -15v-510q18 -102 248 -102q111 0 235 25q209 42 375 151q-6 -4 -12 -12 q-262 -299 -559 -299q-61 -6 -92 -6q-354 0 -355 270v469q-342 0 -411 39q-84 49 -84 184q0 176 112 189q55 4 217 4q117 0 201 78.5t84 193.5q0 117 -84 195t-201 78q-70 0 -137 -31q-80 -37 -90 -94q16 -20 16 -50q0 -84 -79 -84q-96 0 -97 127z" />
<glyph unicode="&#x100e;" horiz-adv-x="1124" d="M-184 885q18 49 108 82q80 31 142 30q117 0 217 -69q109 -76 108 -193q0 -47 -84 -144t-84 -159q0 -115 84 -193.5t201 -78.5q115 0 199 78.5t84 193.5q0 117 -154 287q0 86 80 86q18 0 47 -19q186 -114 186 -354q0 -184 -129 -308t-313 -124q-186 0 -315.5 124 t-129.5 308q0 154 78 232q90 66 90 100q0 74 -110 110q-82 29 -170 29q-68 0 -135 -18z" />
<glyph unicode="&#x100f;" horiz-adv-x="2181" d="M41 432q0 186 128 310t316 124q213 0 349 -166q82 131 196 131q125 0 197 -135q133 170 352 170q190 0 317 -123t127 -311q0 -176 -128 -304t-306 -128q-190 0 -241 162q-6 18 -7 28q0 78 84 78q25 0 72 -54t96 -54q109 0 189 82t80 190q0 117 -84 195t-199 78 q-117 0 -200 -78t-83 -195v-24q0 -20 -4 -39q-55 -369 -262 -369q-123 0 -199 131q-66 117 -65 248v74q0 109 -84 180.5t-197 71.5q-115 0 -199.5 -78t-84.5 -195q0 -106 82 -189t188 -83q45 0 93 54t73 54q84 0 84 -80q0 -84 -78 -136t-166 -52q-180 0 -308 127t-128 305z M926 410q0 -63 24 -142q35 -109 80 -108q51 0 78 110q25 86 25 146q0 59 -25 145q-27 111 -78 111q-49 0 -82 -113q-14 -41 -18 -102v-25q0 -16 -4 -22z" />
<glyph unicode="&#x1010;" horiz-adv-x="1816" d="M41 432q0 186 128 310t316 124q229 0 363 -184q131 184 362 184q190 0 317.5 -123t127.5 -311q0 -176 -130 -304t-306 -128q-94 0 -164 47q-80 53 -80 143q0 78 80 78q27 0 74 -54t96 -54q109 0 188.5 82t79.5 190q0 117 -84 195t-199 78q-109 0 -194.5 -72t-85.5 -176 v-66q-4 -8 -4 -16q-18 -164 -146.5 -269.5t-294.5 -105.5q-190 0 -317 122t-127 310zM201 432q0 -115 85 -193.5t199 -78.5q109 0 195 72t86 178v47q0 104 -86 176t-195 72q-115 0 -199.5 -78t-84.5 -195z" />
<glyph unicode="&#x1011;" horiz-adv-x="1806" d="M41 432q0 186 128 310t316 124q236 0 363 -184q131 184 362 184q190 0 317.5 -123t127.5 -311q0 -184 -128 -308t-317 -124q-229 0 -362 182q-133 -182 -363 -182q-190 0 -317 122t-127 310zM201 432q0 -115 85 -193.5t199 -78.5q115 0 200 78.5t85 193.5q0 117 -85 195 t-200 78t-199.5 -78t-84.5 -195zM930 432q0 -117 81 -194.5t199 -77.5q115 0 199 78.5t84 193.5q0 117 -84 195t-199 78q-117 0 -198.5 -78t-81.5 -195z" />
<glyph unicode="&#x1012;" horiz-adv-x="1026" d="M41 272q0 76 84 76q45 0 68 -43q80 -145 249 -145q205 0 226 98q0 102 -164 96q-86 -4 -86 78q0 80 82 82q92 4 114 10q53 20 50 82q-47 98 -222 99q-68 0 -137 -31q-84 -37 -90 -92l-2 4q29 -33 29 -62q0 -68 -90 -67q-111 0 -97 139q4 57 39 106q117 164 348 164 q127 0 226 -51q115 -59 151 -166l2 -16q4 -16 4 -47q0 -94 -61 -156q67 -65 63 -180q-33 -250 -385 -250q-264 0 -389 231q-12 18 -12 41z" />
<glyph unicode="&#x1013;" horiz-adv-x="1110" d="M41 436q0 184 128 308t316 124q190 0 317.5 -123t127.5 -309q0 -188 -128 -312t-317 -124q-186 0 -315 125t-129 311zM201 436q0 -66 30 -121q20 84 93 140.5t161 56.5q90 0 162 -55.5t90 -141.5q33 55 33 121q0 115 -85 194t-200 79t-199.5 -79t-84.5 -194zM387 256 q0 -96 98 -96q39 0 69 28.5t30 67.5q0 92 -99 92q-98 0 -98 -92zM414 166h16q6 -4 14 -4q12 0 17 4h14q-29 -6 -31 -6q-6 0 -30 6z" />
<glyph unicode="&#x1014;" horiz-adv-x="1026" d="M47 250q0 98 67.5 163.5t166.5 65.5q96 0 164.5 -66.5t68.5 -162.5q0 -47 -16 -90q180 -8 180 80q0 96 -399 335q-6 4 -23 21q-63 61 -63 143q0 84 59 133.5t145 49.5q190 -2 207 -179q8 -90 -82 -90q-37 0 -72.5 53.5t-52.5 55.5q-29 -2 -41 -14q-6 -25 35 -66 q246 -158 268 -174q173 -130 185 -234q25 -248 -320 -274v-913q0 -82 -78 -82q-82 0 -81 82v911q-233 4 -302 158l-2 14q-14 47 -14 80zM207 250q0 -70 74 -70q73 0 73 70q0 68 -73 67q-74 0 -74 -67z" />
<glyph unicode="&#x1015;" horiz-adv-x="1105" d="M41 432q0 254 176 375q27 16 49 16q80 0 80 -84q0 -39 -35 -65q-111 -74 -110 -242q0 -115 85 -193.5t199 -78.5q115 0 200 78.5t85 193.5q0 199 -106 234q-35 14 -79 -14.5t-57 -30.5q-35 0 -60.5 25.5t-25.5 58.5q0 29 23 55q68 72 172 71q168 0 250 -184 q43 -96 43 -215q0 -184 -128 -308t-317 -124q-190 0 -317 122t-127 310z" />
<glyph unicode="&#x1016;" horiz-adv-x="1089" d="M41 432q0 254 176 375q27 16 49 16q80 0 80 -84q0 -39 -35 -65q-111 -74 -110 -242q0 -115 85 -193.5t199 -78.5q106 0 189.5 71.5t91.5 178.5q-61 -41 -133 -41q-94 0 -163 67.5t-69 163.5q0 94 72 162.5t168 68.5q156 0 238 -167q51 -107 51 -232q0 -184 -128 -308 t-317 -124q-190 0 -317 122t-127 310zM561 600q0 -70 72 -70q74 0 74 70q0 68 -74 68q-18 0 -41 -15l-17 -16q-14 -20 -14 -37z" />
<glyph unicode="&#x1017;" horiz-adv-x="1095" d="M41 432q0 246 205 365q23 27 63 26q35 0 60.5 -30.5t17.5 -67.5q23 -74 98 -74q86 0 99 80q-4 8 2 33q12 59 78 59q41 0 59 -26q207 -125 207 -365q0 -184 -128 -308t-317 -124q-190 0 -317 122t-127 310zM201 432q0 -115 85 -193.5t199 -78.5q115 0 200 78.5t85 193.5 q0 92 -65 174q-82 -115 -220 -114q-139 0 -219 114q-66 -72 -65 -174z" />
<glyph unicode="&#x1018;" horiz-adv-x="1777" d="M41 272q0 76 84 76q45 0 68 -43q80 -145 249 -145q117 0 201 78.5t84 193.5q0 117 -84 195t-201 78q-72 0 -137 -27q-82 -37 -90 -98q16 -20 16 -50q0 -84 -77 -84q-45 0 -74 46q-25 37 -25 83q0 72 39 127q117 164 348 164q236 0 363 -184q133 184 364 184 q193 0 319 -123t126 -311q0 -176 -129 -304t-305 -128q-92 0 -164 47q-82 53 -82 143q0 78 82 78q25 0 73 -54t95 -54q111 0 190.5 82t79.5 190q0 117 -84 195t-201 78q-115 0 -198.5 -78t-83.5 -195q0 -184 -128 -308t-317 -124q-264 0 -389 231q-12 18 -12 41z" />
<glyph unicode="&#x1019;" horiz-adv-x="1095" d="M39 432q0 254 176 375q27 16 47 16q82 0 82 -84q0 -39 -35 -65q-109 -72 -108 -242q0 -57 26 -115q23 90 92.5 147.5t163.5 57.5q92 0 163 -56t91 -149q29 53 29 115q0 199 -104 234q-35 14 -79 -14.5t-57 -30.5q-33 0 -57.5 25.5t-24.5 55.5q0 31 21 58q68 72 172 71 q168 0 248 -184q41 -98 41 -215q0 -188 -126 -310t-315 -122q-188 0 -317 122t-129 310zM383 262q0 -43 28.5 -72.5t71.5 -29.5t72 29.5t29 72.5q0 41 -29 70.5t-72 29.5t-71.5 -29.5t-28.5 -70.5z" />
<glyph unicode="&#x101a;" horiz-adv-x="1806" d="M41 432q0 254 176 375q27 16 49 16q80 0 80 -84q0 -39 -35 -65q-111 -74 -110 -242q0 -115 85 -193.5t199 -78.5q115 0 200 78.5t85 193.5q0 199 -106 234q-35 14 -79 -14.5t-57 -30.5q-35 0 -60.5 25.5t-25.5 58.5q0 29 23 55q68 72 172 71q256 0 293 -370q2 -4 2 -29 q0 -115 85 -193.5t200 -78.5t197.5 78.5t82.5 193.5q0 113 -79 193t-191 80q-45 0 -91 -52.5t-73 -52.5q-84 0 -84 78q0 86 82 139q72 49 164 49q180 0 307 -127t127 -307q0 -184 -127 -308t-315 -124q-231 0 -367 186q-135 -186 -365 -186q-190 0 -317 122t-127 310z" />
<glyph unicode="&#x101b;" horiz-adv-x="1110" d="M41 432q0 186 128 310t316 124t316.5 -124t128.5 -312v-1190q10 -78 172 -84q481 -18 686 170l-16 -22q-145 -162 -289 -230q-156 -78 -361 -78q-356 0 -356 273l4 1163q0 119 -84 196t-201 77q-115 0 -199.5 -78t-84.5 -195q0 -47 20 -96q68 125 207 125q96 0 165 -67.5 t69 -162.5q0 -100 -67 -165.5t-167 -65.5q-72 0 -129 39q-117 51 -187.5 157.5t-70.5 235.5zM356 231q0 -59 86 -69q60 14 60 69q0 68 -74 68q-72 0 -72 -68z" />
<glyph unicode="&#x101c;" horiz-adv-x="1810" d="M41 432q0 186 128 310t316 124t316.5 -124t128.5 -312v-20q0 -109 84 -183.5t196 -74.5q115 0 199 78.5t84 193.5q0 106 -81 189t-187 83q-45 0 -93.5 -53t-72.5 -53q-88 0 -88 78q0 10 6 26q49 164 244 164q178 0 306 -128t128 -306q0 -184 -128 -308t-317 -124 q-190 0 -317 122t-127 310q0 14 4 18q-4 115 -87 189t-198 74t-199.5 -78t-84.5 -195q0 -47 22 -106q61 137 215 137q96 0 166 -65.5t70 -164.5q0 -90 -59.5 -154.5t-149.5 -72.5q-25 -6 -33 -4h-14q-166 20 -271.5 141t-105.5 289zM365 233q0 -72 69 -71q76 -1 76 71 q0 68 -72 68q-74 0 -73 -68z" />
<glyph unicode="&#x101d;" horiz-adv-x="1075" d="M41 432q0 186 128 310t316 124q190 0 317.5 -123t127.5 -311q0 -184 -128 -308t-317 -124q-190 0 -317 122t-127 310zM201 432q0 -115 85 -193.5t199 -78.5q115 0 200 78.5t85 193.5q0 117 -85 195t-200 78t-199.5 -78t-84.5 -195z" />
<glyph unicode="&#x101e;" horiz-adv-x="1798" d="M41 270q0 78 84 78q45 0 68 -43q80 -145 249 -145q117 0 201 78.5t84 193.5q0 117 -84 195t-201 78q-70 0 -137 -31q-82 -37 -90 -94q18 -20 18 -50q0 -33 -24.5 -58.5t-56.5 -25.5q-29 0 -52 23q-47 39 -47 104q0 70 41 129q119 164 348 164q190 0 317.5 -122.5 t127.5 -311.5q0 -115 84 -193.5t198 -78.5q117 0 201 78.5t84 193.5q0 111 -81 194t-191 83q-45 0 -91.5 -54.5t-70.5 -54.5q-86 0 -86 78q0 88 82 143q72 47 166 47q176 0 304 -129t128 -307q0 -184 -128 -308t-317 -124q-229 0 -364 186q-129 -186 -363 -186 q-266 0 -389 231q-12 18 -12 39z" />
<glyph unicode="&#x101f;" horiz-adv-x="1820" d="M41 432q0 254 176 375q27 16 49 16q80 0 80 -84q0 -39 -35 -65q-111 -74 -110 -242q0 -115 85 -193.5t199 -78.5q113 0 196 72.5t85 183.5q6 215 -102 250q-33 12 -82.5 -16.5t-53.5 -28.5q-35 0 -60.5 25.5t-25.5 58.5q0 29 23 55q68 72 168 71q152 0 229 -137 q131 168 348 168q188 0 316.5 -123t128.5 -311q0 -178 -130 -305t-306 -127q-193 0 -242 162q-6 16 -6 28q0 78 84 78q29 0 77 -54t89 -54q111 0 191.5 80.5t80.5 191.5q0 115 -84 193.5t-199 78.5q-109 0 -190 -67q-90 -74 -90 -180v-21q0 -184 -128 -308t-317 -124 q-190 0 -317 122t-127 310z" />
<glyph unicode="&#x1020;" horiz-adv-x="1026" d="M41 432q0 186 128 310t316 124q229 0 349 -164q39 -53 38 -122q0 -133 -98 -134q-31 0 -55.5 26t-24.5 56q0 31 19 52q-8 61 -90 98q-63 27 -138 27q-115 0 -199.5 -78t-84.5 -195q0 -115 85 -193.5t199 -78.5h109q80 0 111 -2q121 -12 120 -176q0 -127 -82 -193 q-80 -45 -258 -45q-74 0 -157 8l-9 -500q0 -4 5 -16q10 -76 149 -90q47 -14 125 -14q281 0 596 188q-6 -14 -18 -29q-266 -297 -560 -297q-45 -8 -98 -8q-147 0 -244 60q-115 70 -114 209l2 520q31 150 180 139q213 -18 305 10q20 20 21 43q0 14 -9 29q-172 0 -258 16 q-160 31 -260 145.5t-100 274.5z" />
<glyph unicode="&#x1021;" horiz-adv-x="1705" d="M41 272q0 76 84 76q45 0 68 -43q80 -145 249 -145q203 0 226 98q0 102 -164 96q-86 -4 -86 78q0 80 82 82q47 4 75 6q96 14 89 86q-47 98 -222 99q-68 0 -137 -31q-84 -37 -90 -92q27 -29 27 -58q0 -68 -88 -67q-111 0 -99 139q4 55 39 106q113 164 348 164 q217 0 326 -127q133 127 315 127q193 0 319 -123t126 -311q0 -270 -252 -389q-57 -41 -133 -41h-15q-39 0 -53 10q-166 49 -166 219q0 98 67.5 164t166.5 66q145 0 207 -121q18 43 18 92q0 117 -85 195t-200 78q-195 0 -264 -177l-4 -14q-12 -45 -51 -84q74 -70 63 -180 q-27 -250 -385 -250q-264 0 -389 231q-12 18 -12 41zM1069 231q0 -55 59 -69q86 20 86 69q0 70 -71 70q-74 0 -74 -70z" />
<glyph unicode="&#x1022;" horiz-adv-x="1861" d="M41 69.5q-2 18.5 4 34t18.5 25.5t30 12t37.5 -10q33 -16 57.5 -21.5t42 -3t27.5 10.5t16.5 19t8.5 19.5t2 12.5q0 18 -9.5 28.5t-23.5 16.5q-39 14 -75 28.5t-64.5 35t-47 51t-20.5 84.5v10v2v2q0 92 36 173t96.5 141.5t141 94t173.5 33.5q59 0 114.5 -14t103.5 -41 t87.5 -64.5t70.5 -82.5q29 45 69 82.5t88 64.5t103.5 41t114.5 14q61 0 118.5 -15t108 -45t91.5 -71t69.5 -90t45 -106.5t16.5 -118.5q0 -94 -35 -175t-96.5 -142.5t-143.5 -96.5t-174 -35q-33 0 -55.5 11.5t-34.5 27t-14 33.5t9 34.5t34.5 28t60.5 11.5q63 0 118.5 23.5 t96.5 64.5t64.5 96t23.5 119q0 61 -23.5 116.5t-64.5 96.5t-96 64.5t-119 23.5q-61 0 -115.5 -22.5t-95.5 -62.5t-65.5 -93t-26.5 -115v-5v-7q0 -74 -15.5 -137.5t-45 -116.5t-70.5 -96t-92 -76q-20 -12 -40 -12t-35 9t-25.5 24.5t-12.5 34t6 35.5t29 30q35 25 63.5 54.5 t49 67t32 84t11.5 103.5q0 61 -23.5 116.5t-64.5 96.5t-96.5 64.5t-118.5 23.5q-61 0 -117 -23.5t-96.5 -63.5t-65.5 -95.5t-25 -116.5q0 -20 9.5 -28.5t25.5 -16.5q37 -16 74 -30.5t65.5 -36t47 -55.5t18.5 -89q0 -66 -30.5 -110t-79 -64.5t-110 -16t-120.5 32.5 q-20 10 -32.5 25.5t-14.5 34z" />
<glyph unicode="&#x1023;" horiz-adv-x="1824" d="M37 -442q-12 188 120 307t322 119q229 0 367 -187q133 186 364 187q190 0 317.5 -122.5t127.5 -310.5q0 -57 -66.5 -180t-66.5 -149q0 -59 51 -121q20 -25 20 -55q0 -82 -77 -82q-33 0 -60 30q-104 123 -104 236q0 61 69.5 188t69.5 133q0 117 -82 195t-199 78 q-119 0 -201.5 -77t-82.5 -193q0 -23 -2 -29q-8 -152 -99 -152q-82 0 -82 68q0 20 8.5 55t8.5 55q0 117 -81 195t-200 78q-111 0 -192 -72q-90 -74 -76 -184l14 -113q0 -68 -78 -67q-55 0 -79 45q-27 29 -31 125zM41 432q0 186 128 310t316 124q231 0 363 -184 q131 184 362 184q190 0 317.5 -123t127.5 -311q0 -176 -130 -304t-306 -128q-92 0 -164 47q-80 53 -80 141q0 80 84 80q23 0 71 -54t95 -54q109 0 189.5 82t80.5 190q0 117 -85 195t-200 78q-113 0 -195.5 -70t-84.5 -178l-4 -82q-35 -248 -271 -344q-14 -4 -32 -4 q-80 0 -80 84q0 51 51 71q180 72 172 275q-6 104 -89 176t-192 72q-115 0 -199.5 -78t-84.5 -195q0 -199 194 -258q55 -16 56 -74q0 -84 -78 -84q-12 0 -29 7q-137 45 -220 155.5t-83 253.5z" />
<glyph unicode="&#x1024;" horiz-adv-x="2207" d="M41 432q0 186 128 310t316 124q227 0 363 -184q133 184 362 184q190 0 317.5 -122.5t127.5 -311.5v-1104q0 -25 -13 -63q-80 -287 -385 -287h-872q-117 0 -207 89t-90 204q0 154 160 299q14 14 82 45q143 68 284 68q231 0 394 -177q23 -27 22 -53q0 -86 -82 -86 q-33 0 -59 29q-113 127 -283 127q-129 0 -252 -76q-102 -98 -102 -180q0 -53 39 -91t94 -38h879q197 0 229 196v1098q0 117 -84 195t-199 78q-106 0 -193 -73t-87 -175v-58q-4 -14 -4 -24q-37 -248 -273 -344q-12 -4 -32 -4q-76 0 -76 79q0 53 49 74q172 68 172 230v47 q0 104 -86 176t-195 72q-115 0 -199.5 -78t-84.5 -195q0 -199 194 -258q55 -16 56 -74q0 -86 -78 -86q-12 0 -29 4q-137 45 -220 158t-83 256zM1038 1360q0 258 242 377q182 90 473 90q475 0 764 -156q506 -270 696 -604q9 -15 9 -27q-213 238 -603 447q-145 78 -401 129 q-221 45 -424 51q-596 16 -596 -307q0 -246 207 -297q14 0 18 -2q219 -33 371 -148q182 -135 182 -338l4 -1222q0 -25 11 -160q14 -168 24 -201q-199 0 -198 369v1206q0 143 -129 244q-109 88 -265 117q-174 12 -279.5 134t-105.5 298z" />
<glyph unicode="&#x1025;" horiz-adv-x="1050" d="M55 16q33 141 176 142h109q14 2 63 2h39q117 0 201 78.5t84 193.5q0 117 -84 195t-201 78q-72 0 -137 -27q-80 -37 -90 -98q16 -20 16 -50q0 -82 -77 -81q-98 0 -99 131q0 68 39 122q117 164 348 164q188 0 316.5 -124t128.5 -310q0 -188 -126 -307t-319 -125l-225 -4 l-2 -744q0 -100 156 -104q25 -8 157 12q476 74 836 367q0 -4 -109 -105l-133 -122q-117 -125 -276 -209q-178 -96 -332 -97q-63 -6 -96 -6q-362 0 -363 271v757z" />
<glyph unicode="&#x1026;" horiz-adv-x="1220" d="M-4 1378q0 221 151.5 365.5t372.5 144.5q223 0 375 -144.5t152 -365.5q0 -47 -11 -106q252 -137 344 -303q4 -3 4 -15q-113 123 -301 226q-25 14 -67 26q-53 -156 -190.5 -248t-305.5 -92q-221 0 -372.5 144.5t-151.5 367.5zM158 1378q0 -133 90 -231q20 205 379 205 q131 0 254 -29q4 14 4 55q0 147 -107.5 249t-257.5 102q-147 0 -254.5 -101.5t-107.5 -249.5zM178 16q33 141 176 142h109q14 2 63 2h39q117 0 201 78.5t84 193.5q0 117 -84 195t-201 78q-72 0 -137 -27q-82 -37 -90 -98q16 -20 16 -50q0 -82 -78 -81q-98 0 -98 131 q0 68 39 122q117 164 348 164q188 0 316.5 -124t128.5 -310q0 -188 -127 -307t-318 -125l-225 -4l-2 -744q0 -100 156 -104q25 -8 157 12q474 74 836 367q0 -4 -109 -105l-133 -122q-117 -125 -276 -209q-178 -96 -332 -97q-63 -6 -96 -6q-362 0 -363 271v757zM401 1061 q55 -23 123 -23q213 1 301 191q-23 4 -161 6q-260 8 -261 -156q0 -4 -2 -8v-10z" />
<glyph unicode="&#x1027;" horiz-adv-x="1062" d="M41 432q0 186 128 310t316 124q131 0 273 -104q63 -47 149 -172q-55 -111 -174 -146q98 -74 98 -188q0 -174 -174 -223q-80 -33 -172 -33q-190 0 -317 122t-127 310zM201 432q0 -176 174 -250q-14 43 -15 74q0 160 158 217q-127 76 -131 215q-186 -68 -186 -256zM524 256 q0 -68 74 -68h8q66 31 66 68q0 70 -74 70t-74 -70zM547 696q6 -100 112 -100q26 0 46 8l-13 14q-20 25 -78 50q-31 20 -67 28z" />
<glyph unicode="&#x1028;" horiz-adv-x="1177" d="M16 -336q0 -213 135.5 -348t348.5 -135q119 0 170 18q80 29 170 121q137 139 137 352h-143q-2 -154 -92.5 -249t-241.5 -95q-145 0 -242.5 95.5t-97.5 240.5v711q0 145 97 241.5t243 96.5q127 0 216 -78t115 -201q4 -217 -26 -301q-25 -72 -105 -115l-65 -20l-76 10 l57 105l39 77q45 96 45 166q0 90 -73 150q-53 43 -127 43q-117 0 -178 -78q-37 -49 -46 -102q-23 -51 11 -144l125 58q-4 23 -4 41q0 35 12 49q2 0 24 18q18 12 37 12q18 0 54 -24q14 -12 22 -40t4 -40q-27 -61 -67.5 -128t-60 -109t-19.5 -74q0 -121 305 -111 q111 39 178 129q16 19 61 107l19 262q12 199 -133 348q-131 133 -344 133t-348.5 -133t-135.5 -348v-711z" />
<glyph unicode="&#x1029;" horiz-adv-x="2095" d="M29 -698v2355q0 102 65.5 174t159.5 72h1292q291 0 572 -258q223 -205 299 -418q-416 516 -920 516h-1243q-76 0 -76 -86v-2355q0 -84 76 -84h1311q76 0 75 84v698q0 80 76 80q74 0 74 -80v-698q0 -100 -65.5 -172t-159.5 -72h-1311q-96 0 -160.5 70.5t-64.5 173.5z M250 266q0 78 84 78q45 0 65 -41q80 -147 252 -147q115 0 200 78.5t85 193.5q0 117 -85 195.5t-200 78.5q-72 0 -139 -30q-80 -39 -88 -97q18 -20 18 -47q0 -35 -24.5 -60.5t-59.5 -25.5q-27 0 -51 25q-47 37 -47 102q0 72 43 129q117 164 348 164q190 0 317.5 -123 t127.5 -311q0 -115 84 -193.5t198 -78.5q115 0 200 78.5t85 193.5q0 111 -82 194t-192 83q-43 0 -89.5 -54.5t-72.5 -54.5q-84 0 -84 78q0 90 82 143q70 47 164 47q178 0 306 -129t128 -307q0 -184 -128 -308t-317 -124q-231 0 -364 186q-129 -186 -363 -186 q-268 0 -391 231q-10 18 -10 39z" />
<glyph unicode="&#x102a;" horiz-adv-x="4968" d="M0 432q0 186 128 310t316 124q143 0 273 -104q57 -45 141 -166q8 -10 70.5 -59.5t62.5 -53.5q-57 -16 -106 -16q-111 0 -221 137l-13 14q-29 35 -78 50q-55 37 -129 37q-115 0 -199.5 -78t-84.5 -195q0 -176 174 -250q-14 43 -15 74q0 98 70 164.5t168 66.5 q94 0 164 -68.5t70 -162.5q0 -174 -175 -223q-80 -33 -172 -33q-190 0 -317 122t-127 310zM483 256q0 -68 74 -68h8q66 31 66 68q0 70 -74 70t-74 -70zM1032 -698v2355q0 102 71 174t171 72h1384q313 0 615 -258q237 -205 319 -418q-446 516 -987 516h-1331q-82 0 -82 -86 v-2355q0 -84 82 -84h1405q82 0 82 84v698q0 80 82 80q78 0 77 -80v-698q0 -100 -70.5 -172t-170.5 -72h-1405q-104 0 -173 70.5t-69 173.5zM1231 266q0 78 86 78q43 0 65 -41q80 -147 252 -147q115 0 199 78.5t84 193.5q0 117 -84 195.5t-199 78.5q-72 0 -139 -30 q-80 -39 -90 -97q20 -20 20 -47q0 -35 -25.5 -60.5t-58.5 -25.5q-29 0 -51 25q-47 37 -47 102q0 72 43 129q117 164 348 164q190 0 316.5 -123t126.5 -311q0 -115 84 -193.5t200 -78.5q115 0 199 78.5t84 193.5q0 111 -81 194t-191 83q-45 0 -91.5 -54.5t-70.5 -54.5 q-84 0 -84 78q0 90 82 143q70 47 164 47q176 0 304 -129t128 -307q0 -184 -128 -308t-315 -124q-231 0 -366 186q-129 -186 -361 -186q-268 0 -391 231q-12 18 -12 39zM2630 573q0 14 8 31q86 262 395 262q190 0 317.5 -123t127.5 -311q0 -164 -105 -291 q-111 -135 -272 -135q-176 0 -228 168q-6 18 -6 29q0 76 84 76q35 0 78 -54.5t76 -54.5q96 0 155 86q53 76 54 176q0 119 -82 196t-199 77q-178 0 -260 -160q-27 -53 -70 -53q-74 0 -73 81zM2679 1292q0 262 246 379q178 88 471 88q475 0 759 -153q508 -272 699 -605 q8 -14 8 -28q-219 242 -600 442q-150 80 -404 129q-225 47 -424 51q-596 14 -595 -303q0 -276 262 -311q90 -12 149.5 45t52.5 150q6 2 17 2q37 0 68.5 -38t31.5 -77q0 -10 -4 -27q-61 -178 -326 -178q-184 0 -297.5 123t-113.5 311z" />
<glyph unicode="&#x102b;" horiz-adv-x="389" d="M-791 1399q0 254 232 375q176 92 453 96q139 0 233 -43q129 -57 129 -176q0 -88 -76 -199v-1368q0 -82 -78 -82q-82 0 -82 82v1397q0 16 21.5 55t21.5 53q0 37 -61 76q-109 27 -166 41q-465 -20 -465 -307q0 -274 260 -307q70 -10 129.5 23.5t59.5 105.5q0 47 -29 94 q4 4 23 4q53 0 96 -39t43 -90q0 -20 -8 -43q-70 -180 -324 -180q-184 0 -298 121.5t-114 310.5z" />
<glyph unicode="&#x102c;" horiz-adv-x="790" d="M-268 573q0 14 6 31q92 262 412 262q199 0 330.5 -123t131.5 -311q0 -164 -108 -291q-115 -135 -283 -135q-184 0 -237 168q-6 18 -7 29q0 76 89 76q35 0 81 -54.5t78 -54.5q100 0 162 86q55 76 55 176q0 119 -85 196t-207 77q-182 0 -269 -160q-29 -53 -74 -53 q-76 0 -75 81z" />
<glyph unicode="&#x102d;" horiz-adv-x="4" d="M-1108 1378q0 223 150.5 366.5t373.5 143.5t375 -144.5t152 -365.5t-152.5 -366.5t-374.5 -145.5q-221 0 -372.5 144.5t-151.5 367.5zM-948 1378q0 -156 105.5 -254t258.5 -98q150 0 257.5 100t107.5 252q0 147 -107.5 249t-257.5 102q-154 0 -259 -98.5t-105 -252.5z " />
<glyph unicode="&#x102e;" horiz-adv-x="4" d="M-1108 1378q0 221 151.5 365.5t372.5 144.5q223 0 375 -144.5t152 -365.5q0 -47 -11 -106q252 -137 344 -303q5 -3 5 -15q-113 123 -301 226q-25 14 -68 26q-53 -156 -190.5 -248t-305.5 -92q-221 0 -372.5 144.5t-151.5 367.5zM-946 1378q0 -133 90 -231q20 205 379 205 q131 0 254 -29q4 14 4 55q0 147 -107.5 249t-257.5 102q-147 0 -254.5 -101.5t-107.5 -249.5zM-702 1061q55 -23 122 -23q213 1 301 191q-23 4 -161 6q-260 8 -260 -156q0 -4 -2 -8v-10z" />
<glyph unicode="&#x102f;" horiz-adv-x="4" d="M-684 -682l4 694q168 -49 166 -198l-6 -529q0 -18 2 -28q14 -84 203 -95q442 -16 657 187l-16 -25q-279 -330 -672 -330q-338 0 -338 324z" />
<glyph unicode="&#x1030;" horiz-adv-x="4" d="M-831 2q162 -49 161 -221l-2 -496q-2 -250 72 -293q-231 33 -231 295v715zM-588 -682l4 694q166 -51 166 -200l-4 -555q12 -82 172 -91q483 -18 688 183q-2 -8 -14 -25q-264 -313 -559 -321q-63 -8 -115 -9q-338 0 -338 324z" />
<glyph unicode="&#x1031;" horiz-adv-x="1136" d="M41 432q0 186 128 310t316 124q143 0 273 -104q57 -45 141 -166q8 -10 70.5 -59.5t62.5 -53.5q-57 -16 -106 -16q-111 0 -221 137l-13 14q-29 35 -78 50q-55 37 -129 37q-115 0 -199.5 -78t-84.5 -195q0 -176 174 -250q-14 43 -15 74q0 98 70 164.5t168 66.5 q94 0 163.5 -68.5t69.5 -162.5q0 -174 -174 -223q-80 -33 -172 -33q-190 0 -317 122t-127 310zM524 256q0 -68 74 -68h8q66 31 66 68q0 70 -74 70t-74 -70z" />
<glyph unicode="&#x1032;" horiz-adv-x="4" d="M-1004 1473q0 31 27 55t57 24q45 0 68 -41q41 -68 119 -151q106 -115 211 -166q149 -71 395 -102q-152 -45 -283 -45q-354 0 -581 383q-12 20 -13 43z" />
<glyph unicode="&#x1033;" horiz-adv-x="6" d="M-1151 1378q0 223 150.5 366.5t373.5 143.5t375 -144.5t152 -365.5t-153 -366.5t-374 -145.5t-372.5 144.5t-151.5 367.5zM-991 1378q0 -156 105.5 -254t258.5 -98q150 0 257.5 100t107.5 252q0 147 -107.5 249t-257.5 102q-154 0 -259 -98.5t-105 -252.5zM-885 1368 q0 -104 68.5 -173t173.5 -69q109 0 177.5 66.5t68.5 175.5t-65.5 179.5t-174.5 70.5q-111 0 -179.5 -69.5t-68.5 -180.5zM-795 1378q0 66 42 108t110 42t107.5 -43.5t39.5 -106.5q0 -68 -42 -108.5t-109 -40.5q-63 0 -105.5 42t-42.5 107zM-713 1376q0 -63 66 -63 q63 0 63 63q0 66 -63 66q-66 0 -66 -66z" />
<glyph unicode="&#x1034;" horiz-adv-x="6" d="M-1147 1092q248 30 395 102q104 51 211 166q78 84 119 151q23 41 68 41q31 0 57.5 -24.5t26.5 -54.5q0 -23 -11 -43q-229 -383 -583 -383q-131 0 -283 45z" />
<glyph unicode="&#x1035;" horiz-adv-x="12" d="M-1235 1511q0 186 128 310.5t316 124.5q143 0 273 -105q57 -45 141 -166q8 -10 70.5 -59t62.5 -53q-57 -16 -106 -17q-111 0 -221 137l-13 15q-29 35 -78 49q-55 37 -129 37q-115 0 -199.5 -78t-84.5 -195q0 -176 174 -249q-14 43 -14 73q0 98 69.5 165t167.5 67 q94 0 164 -68.5t70 -163.5q0 -174 -174 -223q-80 -33 -173 -33q-190 0 -317 122t-127 310zM-752 1335q0 -68 74 -67h8q66 30 66 67q0 70 -74 70t-74 -70z" />
<glyph unicode="&#x1036;" horiz-adv-x="4" d="M-748 1217q0 80 56.5 134t134.5 54q80 0 134 -54t54 -134q0 -82 -53 -136.5t-135 -54.5q-80 0 -135.5 54.5t-55.5 136.5zM-602 1217q0 -45 45 -46q43 1 43 46q0 41 -43 40q-45 0 -45 -40z" />
<glyph unicode="&#x1037;" horiz-adv-x="4" d="M-780 -422q0 82 54 137.5t136 55.5q78 0 133.5 -56.5t55.5 -136.5q0 -78 -55.5 -132t-133.5 -54q-82 0 -136 52t-54 134zM-635 -422q0 -41 45 -41q43 0 43 41q0 45 -43 45q-45 0 -45 -45z" />
<glyph unicode="&#x1038;" horiz-adv-x="704" d="M61 190q0 80 56.5 134.5t134.5 54.5q80 0 134 -54.5t54 -134.5t-53 -135t-135 -55q-78 0 -134.5 56.5t-56.5 133.5zM61 666q0 82 55.5 137t135.5 55t134 -56t54 -136t-53 -135.5t-135 -55.5q-78 0 -134.5 56.5t-56.5 134.5zM207 190q0 -45 45 -45q43 0 43 45q0 43 -43 43 q-45 0 -45 -43zM207 666q0 -43 45 -43q43 0 43 43q0 45 -43 45q-45 0 -45 -45z" />
<glyph unicode="&#x1039;" horiz-adv-x="2541" d="M2 20v312h123v-312h-123zM2 -49h123v-309h-123v309zM2 399v310h123v-310h-123zM2 -446h123v-187h184v-123h-141h-82q-55 -2 -84 -2v312zM2 780v310h123v-310h-123zM2 1159v309h307v-120h-184v-189h-123zM399 -633h308v-123h-308v123zM399 1348v122h308v-122h-308z M799 -633h305v-123h-305v123zM799 1348v122h305v-122h-305zM891 -281h184v164h107v-164h155v-104h-155v-166h-107v166h-184v104zM1196 -633h305v-123h-305v123zM1196 1348v122h305v-122h-305zM1593 -633h308v-123h-308v123zM1593 1348v122h308v-122h-308zM1663 -764l84 8 h244v123h180v187h123v-144q0 -27 2 -82t2 -84zM1991 1348v122h307v-163q0 -25 -2 -74t-2 -74h-123v189h-180zM2171 20v312h123v-312h-123zM2171 -49h123v-309h-123v309zM2171 399v310h123v-310h-123zM2171 780v310h123v-310h-123z" />
<glyph unicode="&#x103a;" horiz-adv-x="4" d="M-1038 1352q0 262 243 379q180 88 473 88q475 0 760 -154q508 -274 699 -604q8 -15 8 -29q-219 240 -600 443q-152 80 -404 129q-225 47 -424 51q-596 14 -596 -303q0 -279 263 -312q88 -12 148 45.5t52 149.5q8 2 19 2q37 0 68.5 -38t31.5 -77q0 -10 -6 -26 q-61 -178 -324 -178q-184 0 -297.5 122.5t-113.5 311.5z" />
<glyph unicode="&#x103b;" horiz-adv-x="299" d="M-674 -573q0 176 91 329.5t249 218.5q47 20 78 13q-227 -217 -227 -488q0 -150 73 -248q82 -113 226 -112h106q78 0 78 84v1562q0 82 82 82q80 0 80 -82v-1562q0 -100 -68.5 -172t-171.5 -72h-106q-219 0 -354.5 114.5t-135.5 332.5z" />
<glyph unicode="&#x103c;" horiz-adv-x="262" d="M41 -717v2355q0 100 70.5 172t171.5 72h1384q313 0 614 -258q238 -205 320 -416q-446 514 -987 514h-1331q-82 0 -82 -84v-2355q0 -84 82 -84h1405q82 0 81 84v699q0 80 82 79q78 0 78 -79v-699q0 -100 -70.5 -172t-170.5 -72h-1405q-102 0 -172 70t-70 174z" />
<glyph unicode="&#x103d;" horiz-adv-x="4" d="M-1112 -539q0 219 152.5 364.5t371.5 145.5q223 0 375 -144.5t152 -365.5q0 -223 -152 -367.5t-375 -144.5q-221 0 -372.5 144.5t-151.5 367.5zM-950 -539q0 -150 107.5 -251t254.5 -101q150 0 256.5 101t106.5 251q0 147 -106.5 249t-256.5 102q-147 0 -254.5 -101.5 t-107.5 -249.5z" />
<glyph unicode="&#x103e;" horiz-adv-x="4" d="M-1511 -674q217 -190 657 -174q188 8 203 88q2 8 2 27l-4 493q-4 141 164 187l4 -649q0 -303 -338 -304q-393 0 -672 310z" />
<glyph unicode="&#x103f;" horiz-adv-x="2508" d="M41 272q0 78 84 78q47 0 72 -41q78 -147 249 -147q115 0 199 78.5t84 195.5q0 115 -84 194t-199 79q-72 0 -139 -31q-80 -37 -90 -96q16 -20 16 -47q0 -86 -79 -86q-45 0 -72 39.5t-27 86.5q0 72 43 130q117 164 348 163q190 0 316.5 -122.5t126.5 -309.5 q0 -117 85 -195.5t200 -78.5t197.5 78.5t82.5 195.5q0 106 -81 190.5t-189 84.5q-45 0 -94.5 -54.5t-69.5 -54.5q-86 0 -86 78q0 6 6 25q51 166 242 165q182 0 307 -126t125 -308q0 -117 85 -195.5t199 -78.5q115 0 200 78.5t85 195.5q0 106 -82 190.5t-188 84.5 q-45 0 -94.5 -54.5t-71.5 -54.5q-84 0 -84 78q0 6 4 25q51 166 244 165q176 0 304 -129t128 -305q0 -188 -127 -311t-318 -123q-231 0 -362 186q-129 -186 -362 -186t-367 186q-129 -186 -361 -186q-268 0 -393 231q-12 20 -12 39z" />
<glyph unicode="&#x1040;" horiz-adv-x="1095" d="M0 461q0 199 136 331t337 132q205 0 340 -131t135 -332q0 -197 -137 -329t-338 -132q-203 0 -338 130t-135 331zM170 461q0 -123 90 -207t213 -84t213 84t90 207t-90 207t-213 84t-213 -84t-90 -207z" />
<glyph unicode="&#x1041;" horiz-adv-x="1095" d="M45 289q0 82 90 82q47 0 72 -45q84 -156 266 -156q123 0 213 84t90 207t-90 207t-213 84q-74 0 -147 -33q-86 -39 -95 -103q16 -20 17 -49q0 -90 -86 -90q-102 0 -103 135q0 78 43 138q123 174 371 174q205 0 340 -131t135 -332q0 -197 -137 -329t-338 -132 q-285 0 -416 244q-12 20 -12 45z" />
<glyph unicode="&#x1042;" horiz-adv-x="1095" d="M-45 -621q0 33 12 33q8 0 19 -41q111 -174 260 -229q102 -35 354 -49l90 4q86 8 86 88v1657q0 86 86 86t86 -86v-1657q0 -109 -75.5 -184.5t-182.5 -75.5v-4q-397 -16 -598 174q-137 133 -137 284z" />
<glyph unicode="&#x1043;" horiz-adv-x="1095" d="M45 289q0 82 90 82q47 0 72 -45q84 -156 266 -156q123 0 213 84t90 207t-90 207t-213 84q-74 0 -147 -33q-86 -39 -95 -103q16 -20 17 -49q0 -90 -86 -90q-102 0 -103 135q0 78 43 138q123 174 371 174q205 0 340 -131t135 -332q0 -197 -137 -329t-338 -132 q-115 0 -194 39l245 -1028q12 -49 -13.5 -78t-74.5 -29q-66 0 -80 66l-301 1278q-10 25 -10 41z" />
<glyph unicode="&#x1044;" horiz-adv-x="1095" d="M0 461q0 201 135 332t338 131q250 0 373 -174q41 -59 41 -138q0 -135 -103 -135q-86 0 -86 90q0 29 19 49q-10 63 -96 103q-72 33 -148 33q-123 0 -213 -84t-90 -207t90 -207t213 -84q184 0 266 156q25 45 74 45q90 0 90 -82q0 -16 -10 -41l-303 -1278q-14 -66 -80 -66 q-49 0 -73.5 29t-12.5 78l246 1028q-82 -39 -197 -39q-201 0 -337 132t-136 329z" />
<glyph unicode="&#x1045;" horiz-adv-x="1095" d="M-215 -662q0 33 10 33t21 -43q117 -178 258 -235q106 -45 352 -43l264 2q88 0 88 90v1304q0 129 -88 217.5t-215 88.5q-100 0 -181 -56.5t-108 -148.5q51 25 109 24q102 0 177 -71.5t75 -173.5q0 -100 -75 -173t-177 -73q-33 0 -84 16q-31 0 -55 25l-17 14 q-139 137 -139 326q0 199 137 331t338 132t337 -133.5t136 -333.5v-1315q0 -106 -74.5 -182t-183.5 -78l-170 -6q-399 -14 -598 180q-137 135 -137 282zM217 326q0 -16 35 -62q23 -12 43 -12q78 0 78 74t-78 73q-78 0 -78 -73z" />
<glyph unicode="&#x1046;" horiz-adv-x="1095" d="M0 467v1313q0 109 75 183.5t183 78.5l170 4q653 25 891 -338q33 -68 47 -117q-131 180 -383 242q-170 43 -461 41l-264 -4q-88 0 -88 -90v-1303q0 -129 87 -218t216 -89q98 0 180 57.5t109 151.5q-68 33 -172 88q-72 25 -189 88q-59 57 -59 158q0 104 71.5 174.5 t176.5 70.5q166 0 231 -153q8 -20 8 -37q0 -86 -90 -86q-27 0 -76 53t-73 53q-78 0 -78 -75q0 -53 305 -162l31 -4q70 8 92 -70q4 -6 8 -16q0 -197 -137 -329t-338 -132t-337 133t-136 334z" />
<glyph unicode="&#x1047;" horiz-adv-x="1095" d="M0 461q0 199 136 331t337 132t338 -132.5t137 -332.5v-1352q0 -102 312 -102q282 0 544 121q-272 -274 -551 -275q-68 -4 -100 -4q-381 0 -381 287l4 1327q0 127 -88 209t-215 82q-123 0 -213 -84t-90 -207q0 -113 77 -193t189 -94q76 -8 76 -84q0 -100 -96 -88 q-180 25 -298 152t-118 307z" />
<glyph unicode="&#x1048;" horiz-adv-x="1095" d="M0 461q0 199 136 331t337 132q205 0 340 -131t135 -332q0 -270 -190 -398q-27 -18 -51 -18q-86 0 -86 90q0 43 38 68q117 82 117 258q0 123 -90 207t-213 84q-115 0 -203 -76t-96 -191q70 45 139 45q102 0 176 -71.5t74 -173.5t-75.5 -176t-178.5 -74q-168 0 -254 180 q-55 115 -55 246zM236 285q0 -74 77 -74q23 0 45 14l21 19q14 23 14 41q0 72 -80 71q-78 0 -77 -71z" />
<glyph unicode="&#x1049;" horiz-adv-x="1095" d="M0 457q0 201 136 334t337 133t338 -132.5t137 -330.5l-8 -25q-2 -12 -40 -38.5t-52 -18.5l-31 -8q-305 -106 -305 -160q0 -76 78 -76q25 0 74 52.5t75 52.5q90 0 90 -84q0 -18 -8 -39q-66 -152 -231 -152q-104 0 -176 69.5t-72 176.5q0 100 59 158q117 63 189 88 q104 59 172 90q-27 92 -109 148.5t-180 56.5q-129 0 -216 -88.5t-87 -217.5v-1304q0 -90 88 -90l264 -2q274 -2 455 47q225 67 389 233q-82 -262 -383 -377q-233 -90 -555 -77l-170 6q-109 2 -183.5 77.5t-74.5 182.5v1315z" />
<glyph unicode="&#x104a;" horiz-adv-x="364" d="M51 96v643q0 82 80 82t80 -82v-643q0 -80 -80 -80t-80 80z" />
<glyph unicode="&#x104b;" horiz-adv-x="673" d="M51 96v643q0 82 80 82t80 -82v-643q0 -80 -80 -80t-80 80zM334 96v643q0 82 82 82q78 0 78 -82v-643q0 -80 -78 -80q-82 0 -82 80z" />
<glyph unicode="&#x104c;" horiz-adv-x="1093" d="M-348 -666q27 -23 186 -84q229 -90 502 -108q84 -4 158 18q98 29 108 95l-4 497q-84 -8 -158 -8q-180 0 -258 45q-82 66 -82 193q0 164 121 176q31 2 109 2h110q115 0 200 78.5t85 193.5q0 117 -85 195t-200 78q-74 0 -139 -27q-80 -37 -88 -98q16 -20 16 -52 q0 -82 -77 -82q-98 0 -99 134q0 70 39 122q117 164 348 164q188 0 316.5 -124t128.5 -310q0 -162 -98.5 -275.5t-262.5 -144.5q-86 -16 -258 -16q-8 -14 -8 -29q0 -23 21 -43q92 -29 305 -10q147 10 178 -139l4 -500q4 -266 -362 -266q-33 0 -95 6q-154 0 -354.5 99.5 t-306.5 219.5zM23 1321q0 262 241 379q182 90 475 90q471 0 762 -154q498 -266 697 -608q8 -15 8 -29q-227 252 -604 447q-152 80 -402 129q-221 47 -424 51q-594 14 -594 -305q0 -274 262 -309q90 -12 147.5 44t51.5 148q6 2 21 2q39 0 68.5 -36.5t29.5 -75.5 q0 -104 -119 -160q-92 -45 -211 -45q-182 0 -295.5 123t-113.5 309z" />
<glyph unicode="&#x104d;" horiz-adv-x="1531" d="M45 -700q0 133 166 266l14 10q6 6 54 25q113 49 213 49q160 0 262 -125q18 -23 18 -49q0 -33 -26.5 -56.5t-57.5 -23.5q-37 0 -61 31q-47 61 -138 61q-80 0 -174 -47q-84 -80 -84 -152q0 -61 50.5 -98t113.5 -37h475q197 0 232 197v1208q0 145 -129 246q-104 80 -264 115 q-174 14 -279.5 135t-105.5 297q0 467 712 467q479 0 766 -154q500 -270 697 -604q8 -15 8 -29q-211 238 -604 447q-152 78 -402 129q-223 45 -422 47q-596 10 -596 -303q0 -248 205 -299q14 0 19 -2q221 -37 368 -146q186 -135 187 -338v-1220q0 -25 -11 -66 q-78 -289 -383 -289h-473q-92 0 -209 84q-141 100 -141 224zM61 432q0 186 128 310t317 124q188 0 316 -124t128 -312v-1046q-143 59 -164 215l5 833q0 119 -83 196t-202 77q-115 0 -200 -78t-85 -195q0 -47 21 -96q68 125 209 125q94 0 162.5 -67.5t68.5 -162.5 q0 -100 -66.5 -165.5t-164.5 -65.5q-74 0 -132 39q-117 51 -187.5 157.5t-70.5 235.5zM377 231q0 -59 86 -69q59 14 59 69q0 68 -71 68q-74 0 -74 -68z" />
<glyph unicode="&#x104e;" horiz-adv-x="1157" d="M35 416q0 199 137 331t338 132q246 0 373 -174q41 -57 41 -132q0 -141 -105 -141q-33 0 -59.5 26.5t-26.5 61.5q0 33 21 53q-10 66 -99 105q-68 31 -145 31q-123 0 -213 -84t-90 -209q0 -123 90 -207t213 -84q158 0 248 131q20 70 92 70q90 0 90 -82q0 -16 -10 -41v-568 q0 -195 51 -362q98 -323 348 -315l-141 -31q-430 -20 -430 708v388q-113 -68 -248 -68q-205 0 -340 130t-135 331z" />
<glyph unicode="&#x104f;" horiz-adv-x="1748" d="M41 432q0 186 128 310t316 124q135 0 273 -104q12 -8 30 -29q90 90 189 90q70 0 131 -39q47 -49 47 -174v-624q-141 66 -160 217v430q0 78 -108 78q-31 0 -70 -9q39 -39 90 -112q-55 -111 -174 -146q98 -74 98 -188q0 -174 -174 -223q-80 -33 -172 -33q-190 0 -317 122 t-127 310zM201 432q0 -176 174 -250q-14 43 -15 74q0 160 158 217q-123 72 -131 215q-186 -68 -186 -256zM494 1419q0 262 241 379q182 90 475 90q471 0 762 -155q498 -262 697 -607q8 -14 8 -28q-217 240 -604 446q-145 80 -402 131q-229 47 -422 51q-596 12 -596 -307 q0 -244 205 -297h19q215 -35 370 -149q184 -137 185 -338v-649q-55 33 -84 47q-53 45 -76 141v457q0 139 -133 239q-109 84 -260 115q-174 14 -279.5 135t-105.5 299zM524 256q0 -68 74 -68h8q66 31 66 68q0 70 -74 70t-74 -70zM547 696q14 -100 112 -100q26 0 46 8 q-31 39 -91 64q-20 14 -67 28z" />
<glyph unicode="&#x1050;" horiz-adv-x="1087" d="M41 399q0 188 127 310t317 122q188 0 316.5 -122.5t128.5 -309.5q0 -117 -43 -213q-82 -186 -250 -186q-104 0 -172 74q-23 25 -23 53q0 33 26 58.5t60 25.5q12 -2 56.5 -30.5t79.5 -14.5q106 37 106 233q0 115 -85 194t-200 79t-199.5 -79t-84.5 -194q0 -166 110 -241 q35 -27 35 -64q0 -86 -80 -86q-23 0 -49 19q-176 119 -176 372zM385 397q0 -41 28.5 -69.5t69.5 -28.5q43 0 74 28.5t31 69.5q0 45 -31 75t-74 30t-70.5 -30t-27.5 -75z" />
<glyph unicode="&#x1051;" horiz-adv-x="1087" d="M41 432q0 254 176 375q27 16 49 16q80 0 80 -84q0 -39 -35 -65q-111 -74 -110 -242q0 -115 85 -193.5t199 -78.5q115 0 200 78.5t85 193.5q0 199 -106 234q-35 14 -79 -14.5t-57 -30.5q-35 0 -60.5 25.5t-25.5 58.5q0 29 23 55q68 72 172 71q168 0 250 -184 q43 -96 43 -215q0 -184 -128 -308t-317 -124q-190 0 -317 122t-127 310zM385 434q0 -43 27.5 -73.5t70.5 -30.5t74 30.5t31 73.5t-31 70.5t-74 27.5q-41 0 -69.5 -28.5t-28.5 -69.5z" />
<glyph unicode="&#x1052;" horiz-adv-x="1202" d="M20 432q1 239 189 354q29 18 45 19q82 0 82 -86q-156 -170 -156 -287q0 -115 85 -193.5t200 -78.5t200 78.5t85 193.5q0 61 -85 158.5t-85 144.5q0 117 110 193q98 70 217 69q61 0 140 -30q90 -33 108 -82q-68 18 -133 18q-90 0 -172 -29q-111 -37 -111 -110 q0 -35 92 -100q78 -78 78 -232q0 -184 -129 -308t-315 -124t-315.5 124t-129.5 308z" />
<glyph unicode="&#x1053;" horiz-adv-x="1058" d="M39 422q0 -184 120 -303t306 -119q207 0 326.5 119t119.5 303q0 100 -61 174q-27 33 -143 121q-8 6 -15 10h6l-6 10l25 13q29 0 74 -35l38 104q-57 43 -143 43q-51 0 -94 -40t-43 -89q0 -55 74 -112q10 -12 112 -89q51 -51 51 -110q0 -129 -85 -212t-246 -83 q-119 0 -203 83t-84 212q0 59 49 110q102 76 113 89q74 57 73 112q0 49 -44 89t-93 40q-86 0 -143 -43l39 -104q43 35 74 35l24 -13l-6 -10h-2h8q-6 -4 -14 -10q-117 -88 -144 -121q-63 -74 -63 -174z" />
<glyph unicode="&#x1054;" horiz-adv-x="1323" d="M-8 436q0 190 123.5 314t316.5 124q225 0 346 -165q59 -82 60 -138q0 -76 -62 -120q-55 -41 -135 -41q-176 0 -270 153q-47 74 -56 158q-188 -88 -188 -285q0 -133 87 -219t218 -86q176 0 297 213l119 -61q-162 -283 -416 -283q-193 0 -316.5 122t-123.5 314zM416 739 q2 -90 62.5 -146t150.5 -56q76 0 76 32q0 8 -7 21q-20 29 -34 53q-88 96 -232 96h-16z" />
<glyph unicode="&#x1055;" horiz-adv-x="1437" d="M-8 432q0 190 123 312t315 122q223 0 342 -164q61 -82 62 -135q0 -78 -64 -121q-55 -41 -133 -40q-176 0 -268 151q-47 74 -56 158q-188 -88 -188 -283q0 -133 86 -218t219 -85q156 0 268 170q27 72 70 72q33 0 72 -58q20 -49 28 -59q12 -20 35 -43q86 -86 217 -86 q174 0 297 211l279 199q-322 -541 -576 -541q-242 0 -354 172q-141 -168 -336 -168q-193 0 -315.5 121t-122.5 313zM414 733q2 -90 61.5 -145.5t149.5 -55.5q74 0 73 33q0 6 -4 19q-23 29 -37 53q-86 96 -227 96h-16z" />
<glyph unicode="&#x1056;" horiz-adv-x="847" d="M-53 123q119 -117 301 -117q203 0 321.5 117t118.5 299q0 100 -59 172q-35 41 -88 63h-45q-43 0 -54.5 13.5t-11.5 29.5q0 49 66 45q29 0 73 -34l37 102q-55 43 -141 43q-61 0 -104.5 -40t-43.5 -89q0 -6 -1 -19.5t-1 -23.5q0 -61 78 -121q12 -16 58.5 -19t62.5 -14 q49 -49 49 -108q0 -127 -83 -209t-240 -82q-119 0 -201 82z" />
<glyph unicode="&#x1057;" horiz-adv-x="1581" d="M29 86l84 100q92 -76 213 -65q139 12 237 106q10 12 25 35q10 62 51 62q4 4 12 4q35 0 76 -86q45 -45 112.5 -76t123.5 -31q162 0 247.5 84t85.5 215q0 57 -51 111q-16 10 -63 12t-62 18q-80 63 -80 125q0 10 2 23.5t2 19.5q0 53 43 93.5t107 40.5q88 0 145 -43l-39 -107 q-41 33 -73 37q-68 4 -68 -45q0 -18 11.5 -31.5t56.5 -13.5h45q53 -23 90 -66q61 -74 61 -174q0 -186 -120.5 -306t-329.5 -120q-88 0 -176 29q-92 33 -148 88q-131 -133 -350 -133q-156 0 -270 94z" />
<glyph unicode="&#x1058;" horiz-adv-x="12" d="M-1182 -440q0 -188 124 -311t310 -123q102 0 195 34q119 47 205 156l-111 104l-55 -59q-23 -25 -80 -59l-76 -25l-78 -8q-115 0 -199.5 86t-84.5 201q0 53 6 59q37 -51 113.5 -89t169.5 -38q217 0 327 104q59 55 60 125q0 63 -99 160q-119 119 -293 119q-176 0 -305 -130 t-129 -306zM-971 -274q69 120 223 120q88 0 175 -55q47 -43 67 -78q0 -20 -100 -71q-94 -20 -142 -19l-49 2q-41 2 -84 23q-27 20 -90 78z" />
<glyph unicode="&#x1059;" horiz-adv-x="6" d="M-1270 -451q0 -188 124 -311t310 -123q102 0 192.5 35t156.5 100l26 -28q33 -37 82 -60q72 -33 170 -32q133 0 219 55q2 2 111 100l-154 97q-96 -106 -207 -107q-106 0 -161 137q-74 29 -144 27l-57 -88q-12 -20 -80 -60l-76 -24l-78 -8q-115 0 -199.5 86t-84.5 200 q0 53 6 60q37 -51 113.5 -89t169.5 -38q217 0 327 104q59 55 60 125q0 63 -99 160q-119 119 -293 119q-176 0 -305 -130t-129 -307zM-1059 -285q69 121 223 121q88 0 174 -55q47 -43 68 -78q0 -20 -100 -72q-94 -20 -142 -18l-49 2q-41 2 -84 23q-27 20 -90 77z" />
<glyph unicode="&#x105a;" horiz-adv-x="1341" d="M4 561q0 248 157.5 403.5t405.5 155.5q328 0 529 -362l-146 -80q-156 274 -383 274q-170 0 -280.5 -110.5t-110.5 -280.5t110.5 -279.5t280.5 -109.5q227 0 383 272l146 -79l-37 -80q-61 -129 -201.5 -207t-290.5 -78q-248 0 -405.5 157.5t-157.5 403.5zM328 -258 q0 102 67.5 166.5t169.5 64.5q100 0 166 -65.5t66 -165.5q-2 -100 -103 -219q-38 -41 -108 -127q-6 -10 -6 -17q0 -12 36 17q51 41 95 31q-18 -188 -144 -189q-57 0 -99 40t-42 97q0 55 33 105q10 14 69 86l47 55v-4q41 43 50 55q20 31 18 72q-10 78 -78 78q-84 0 -84 -80 q0 -37 80 -102l-94 -121q-27 16 -72 53q-68 68 -67 170z" />
<glyph unicode="&#x105b;" horiz-adv-x="1548" d="M98 451q0 94 36 177t97.5 144.5t144.5 97t177 35.5q90 0 169 -32.5t138 -88.5q8 10 21 17q20 10 48.5 12t60.5 -5t62.5 -22.5t55.5 -41t40 -61.5t15 -81v-67q0 -31 -18.5 -45.5t-41 -14.5t-42 14.5t-19.5 45.5v67q0 29 -12 47.5t-28.5 28.5t-32 12t-23.5 -2l-2 -1l-2 -1 q6 -10 11 -21.5t12 -23.5q8 -18 7 -35.5t-9 -32.5q-25 -51 -67 -87.5t-93 -55t-106.5 -16.5t-108.5 26q-41 20 -73 52t-51.5 71t-27.5 83t-4 87q-41 -18 -75.5 -46t-59.5 -64.5t-38 -80.5t-13 -91q0 -63 23.5 -120t65.5 -97.5t98 -65.5t120 -25q74 0 137.5 33t104.5 86 q16 20 34.5 26.5t36 3.5t32.5 -15.5t23.5 -29t6 -36t-16.5 -37.5q-31 -41 -70.5 -73.5t-84.5 -55t-97.5 -36t-105.5 -13.5q-94 0 -177 36t-144.5 97t-97.5 144t-36 178zM551 698.5q0 -30.5 11 -59.5t30.5 -52.5t46.5 -37.5q25 -12 51.5 -14.5t51 3t47 18t38.5 30.5 q-18 37 -45.5 67.5t-61.5 54t-74 36t-85 14.5q-10 -29 -10 -59.5zM553 -573q0 176 92 329.5t248 218.5q49 20 80 13q-229 -217 -230 -488q0 -150 76 -248q80 -113 223 -112h107q80 0 80 84v1562q0 82 82 82q78 0 78 -82v-1562q0 -100 -69 -172t-171 -72h-107 q-219 0 -354 114.5t-135 332.5z" />
<glyph unicode="&#x105c;" horiz-adv-x="1116" d="M57 424q0 90 34 170t93.5 139.5t139.5 94t172 34.5q59 0 115.5 -15.5t104.5 -44t89 -68.5t68.5 -89t44 -105.5t16.5 -115.5q0 -61 -16.5 -116.5t-44 -104.5t-68.5 -89t-89 -68t-104.5 -44t-115.5 -16q-92 0 -172 34.5t-139.5 94t-93.5 138.5t-34 171zM199 424 q0 -61 23.5 -115.5t63.5 -94.5t94 -62.5t116 -22.5q61 0 114.5 22.5t93 62.5t63.5 94t24 116q0 61 -24 115.5t-63.5 94.5t-93 63.5t-114.5 23.5t-115.5 -23.5t-94.5 -63.5t-63.5 -94.5t-23.5 -115.5zM319 420q0 37 13.5 69.5t38 57t56.5 38t69 13.5t69.5 -13.5t56 -38 t38 -57t14.5 -69.5q0 -35 -14.5 -68t-38 -56.5t-56.5 -37.5t-69 -14q-37 0 -69 14t-56.5 37.5t-38 56.5t-13.5 68zM403 420q0 -18 7.5 -34.5t19.5 -29t29.5 -20.5t36.5 -8q20 0 36.5 8t28.5 20.5t20.5 28.5t8.5 35q0 20 -8.5 37.5t-20.5 30t-28.5 19.5t-36.5 7q-18 0 -36 -7 t-30 -19.5t-19.5 -30t-7.5 -37.5z" />
<glyph unicode="&#x105d;" horiz-adv-x="1132" d="M31 438q0 76 16 142.5t46 123t74 99.5t97 74q23 12 42.5 10t34.5 -11.5t24.5 -25.5t10.5 -34.5t-8.5 -35t-29.5 -28.5q-35 -20 -63.5 -49t-50 -69t-34 -88t-12.5 -108q0 -74 35 -135q31 45 75 77t94 47t104.5 16t105.5 -13t97 -45t81 -76q12 29 20.5 61.5t8.5 67.5 q0 113 -43 191t-117 125q-20 12 -28.5 29.5t-6.5 36t12.5 33.5t26.5 24.5t35.5 9.5t40.5 -13q53 -33 95 -77.5t71.5 -99t46 -120t16.5 -139.5q0 -96 -39 -179t-104 -144v-2v-523q0 -78 -32 -133t-83 -89t-115.5 -48t-130 -11t-126 24.5t-104.5 59.5t-64.5 91t-8.5 121 q12 49 38 86t61.5 60.5t78.5 34.5t86.5 10t83 -14t72.5 -36q20 -16 27.5 -33.5t3.5 -36t-16.5 -34t-29 -23.5t-37 -7t-38.5 17q-25 18 -54.5 21.5t-56 -4.5t-46 -26.5t-25.5 -45.5q-4 -27 8 -48.5t36.5 -36.5t57.5 -24.5t69 -11.5t70.5 5t62.5 23.5t44 43t16 65.5v430 q-39 -14 -80 -21t-84 -7q-96 0 -179 34.5t-145.5 95t-98 142.5t-35.5 174zM293 205q41 -33 90 -51.5t106 -18.5t108.5 20.5t92.5 53.5q-20 41 -53 66.5t-71 39t-77.5 12.5t-77.5 -15.5t-69 -41t-49 -65.5z" />
<glyph unicode="&#x105e;" horiz-adv-x="16" d="M-1149 -584q0 123 88 211q41 68 158 103q109 33 244 6v266l155 4l-4 -293q139 -35 371 -194l198 -312q-485 297 -569 334v-305q0 -98 -74 -98l-405 -4q-162 106 -162 282zM-1001 -598q0 -84 94 -131h248v311q-31 2 -58 2q-133 0 -207 -59q-78 -41 -77 -123z" />
<glyph unicode="&#x105f;" horiz-adv-x="6" d="M-1350 -543q0 154 142 246q125 82 286 82q35 0 86 -10v211h168v-351l-88 -53q-78 35 -172 35q-92 0 -162 -33q-92 -43 -92 -125q0 -109 146 -168q45 -10 102 -10q141 0 223 82l572 150q-530 -328 -627 -361q-74 -25 -160 -24q-160 0 -282 84q-141 94 -142 245z" />
<glyph unicode="&#x1060;" horiz-adv-x="6" d="M-1247 -791q0 16 8 33l430 781h184l-368 -711h536v-168h-702q-35 0 -61.5 18.5t-26.5 46.5z" />
<glyph unicode="&#x1061;" horiz-adv-x="1026" d="M-487 -655q217 -201 657 -185q188 10 203 97q2 6 2 26l-4 524q-4 150 164 197l4 -688q0 -322 -338 -322q-393 0 -672 328zM0 432q0 186 128 310t316 124t316.5 -124t128.5 -312v-1046q-143 59 -164 215l4 833q0 119 -84 196t-201 77q-115 0 -199.5 -78t-84.5 -195 q0 -47 20 -96q68 125 207 125q96 0 165 -67.5t69 -162.5q0 -100 -67 -165.5t-167 -65.5q-72 0 -129 39q-117 51 -187.5 157.5t-70.5 235.5zM315 231q0 -59 86 -69q60 14 60 69q0 68 -74 68q-72 0 -72 -68z" />
<glyph unicode="&#x1062;" horiz-adv-x="450" d="M-25 895v137h314v-1028h-178v891h-136z" />
<glyph unicode="&#x1063;" horiz-adv-x="1177" d="M29 563l133 -69q135 242 334 241q147 0 246.5 -99t99.5 -247q0 -150 -99.5 -247t-246.5 -97q-199 0 -334 238l-86 -45h-6l-37 -25v-1047h147v836q141 -109 316 -108q217 0 355 139t138 356t-138 355.5t-355 138.5q-289 0 -467 -320z" />
<glyph unicode="&#x1064;" horiz-adv-x="690" d="M23 745v117h299v-727l192 -2l-2 -133h-334v745h-155z" />
<glyph unicode="&#x1065;" horiz-adv-x="1026" d="M41 270q0 78 84 78q45 0 68 -43q80 -145 249 -145q117 0 201 78.5t84 193.5q0 117 -84 195t-201 78q-70 0 -137 -31q-82 -37 -90 -94q16 -20 16 -50q0 -84 -79 -84q-96 0 -97 127q0 74 39 129q117 164 348 164q190 0 317.5 -123t127.5 -311q0 -184 -128 -308t-317 -124 q-266 0 -389 227q-12 20 -12 43z" />
<glyph unicode="&#x1066;" horiz-adv-x="1093" d="M-201 -614q217 -225 658 -205q188 10 202 104q2 8 3 31l-5 584q-4 166 164 219l4 -766q0 -358 -338 -359q-393 0 -671 365zM41 432q0 254 176 375q27 16 49 16q80 0 80 -84q0 -39 -35 -65q-111 -74 -110 -242q0 -115 85 -193.5t199 -78.5q115 0 200 78.5t85 193.5 q0 199 -106 234q-35 14 -79 -14.5t-57 -30.5q-35 0 -60.5 25.5t-25.5 58.5q0 29 23 55q68 72 172 71q168 0 250 -184q43 -96 43 -215q0 -184 -128 -308t-317 -124q-190 0 -317 122t-127 310z" />
<glyph unicode="&#x1067;" horiz-adv-x="571" d="M12 182q0 78 49.5 128t126.5 50q28 0 48 -6v488h133v-635h-2q2 -12 2 -25q0 -74 -53.5 -125t-127.5 -51t-125 51.5t-51 124.5zM135 182q0 -55 53 -55q57 0 58 55q-1 58 -58 58q-53 0 -53 -58z" />
<glyph unicode="&#x1068;" horiz-adv-x="659" d="M0 0v129h287v434h114v-563h-401zM178 760q0 68 43 111.5t113 43.5q68 0 113 -44t45 -111q0 -66 -47.5 -111t-110.5 -45q-66 0 -111 45t-45 111zM287 760q0 -49 47 -49q51 0 51 49t-51 49q-47 0 -47 -49z" />
<glyph unicode="&#x1069;" horiz-adv-x="641" d="M12 831q80 49 164 50q86 0 153.5 -44t98.5 -122q20 -55 21 -111q-2 -86 -64 -180q-45 -68 -125 -154q-23 -27 -70 -77q-10 -16 -14 -27q-4 -20 21 -33q14 -6 47 -8q27 4 34 12t17 37h121q-10 -111 -80 -149q-43 -27 -113 -27q-84 0 -139 39q-63 45 -64 125q0 61 39 125 q18 27 84 102l15 14q74 84 80 93q35 47 45 110q-4 47 -33 80t-74 33q-37 0 -78 -29z" />
<glyph unicode="&#x106a;" horiz-adv-x="641" d="M8 229l142 -2q14 -80 81 -80q37 0 60.5 26t27.5 63l-2 626h136v-637q0 -66 -38 -121t-100 -84q-41 -16 -102 -16q-78 0 -137 59q-66 66 -68 166z" />
<glyph unicode="&#x106b;" horiz-adv-x="649" d="M8 631l142 2q14 80 81 80q35 0 58.5 -25.5t29.5 -62.5l-2 -625h134v635q0 68 -37 123t-101 82q-39 16 -102 16q-76 0 -135 -59q-66 -63 -68 -166z" />
<glyph unicode="&#x106c;" horiz-adv-x="669" d="M35 227q0 -68 38 -123t99 -84q41 -16 104 -16q76 0 139.5 62.5t65.5 162.5h-143q-14 -82 -82 -82q-37 0 -60.5 26t-27.5 65l2 628h-135v-639z" />
<glyph unicode="&#x106d;" horiz-adv-x="616" d="M12 49l84 137q41 -29 78 -28q43 0 70.5 32.5t31.5 77.5q-14 86 -83 158q-12 14 -37 41l-15 14q-66 74 -82 101q-39 61 -39 123q0 78 62 120q55 39 137 39q111 0 160 -73q23 -33 27 -101h-117q-10 29 -17.5 37t-31.5 12q-74 -4 -66 -41q2 -8 12 -24q25 -29 76 -86 q117 -121 156 -223q20 -51 20 -95q4 -115 -73.5 -192.5t-190.5 -77.5q-84 0 -162 49z" />
<glyph unicode="&#x106e;" horiz-adv-x="2068" d="M45 410q0 207 133 339t342 132q188 0 316 -115q90 88 163 88q68 0 138 -53q94 80 276 80q205 0 336 -133.5t131 -337.5q0 -283 -235 -410q-57 -12 -125 -31l-80 107q53 16 116 39q184 129 185 295q0 137 -94.5 231t-233.5 94q-98 0 -172 -43q63 -90 72 -282 q4 -104 -31 -209q-49 -139 -154 -217l-92 108q145 115 138 318q-8 147 -78 231q-41 49 -86 49q-37 0 -84 -39q59 -104 59 -241q0 -303 -270 -426l-90 108q221 133 221 318q0 137 -94.5 231t-231.5 94q-143 0 -238.5 -91t-95.5 -234q0 -184 222 -316l-99 -108l-41 20 q-223 113 -223 404z" />
<glyph unicode="&#x106f;" horiz-adv-x="1820" d="M41 432q0 254 176 375q27 16 49 16q80 0 80 -84q0 -39 -35 -65q-111 -74 -110 -242q0 -115 85 -193.5t199 -78.5q113 0 196 72.5t85 183.5q6 215 -102 250q-33 12 -82.5 -16.5t-53.5 -28.5q-35 0 -60.5 25.5t-25.5 58.5q0 29 23 55q68 72 168 71q152 0 229 -137 q131 168 348 168q188 0 316.5 -123t128.5 -311q0 -178 -130 -315.5t-306 -116.5q-193 0 -242 162q-6 16 -6 28q0 78 84 78q29 0 77 -54t89 -54q111 0 191.5 80.5t80.5 191.5q0 115 -84 193.5t-199 78.5q-109 0 -190 -67q-90 -74 -90 -180v-21q0 -184 -128 -308t-317 -124 q-190 0 -317 122t-127 310zM391 -608q217 -205 658 -187q188 10 202 97q2 6 2 26l-4 508q-4 150 164 199l4 -674q0 -324 -338 -324q-393 0 -671 332z" />
<glyph unicode="&#x1070;" horiz-adv-x="1966" d="M-102 885q12 25 28 37q100 76 219 75q119 0 220 -69q109 -76 108 -193q0 -82 -72 -139q-96 -61 -96 -164q0 -115 84 -193.5t201 -78.5q109 0 193.5 71.5t84.5 178.5v39q0 127 -114 204q-35 27 -35 66q0 86 78 86q23 0 49 -19q147 -104 180 -278q0 -348 287 -348 q117 0 200.5 78.5t83.5 193.5q0 106 -80.5 189.5t-189.5 83.5q-45 0 -93 -52.5t-71 -52.5q-86 0 -86 78q0 86 82 139q70 49 164 49q178 0 306 -127t128 -307q0 -184 -128 -308t-316 -124q-227 0 -363 182q-133 -182 -360 -182q-193 0 -319 122t-126 310q0 154 78 232 q55 23 76 59q8 8 12 22q0 2 2 9v10q0 72 -112 110q-82 29 -168 29q-74 0 -135 -18zM555 -602q217 -215 657 -197q188 10 203 103q2 6 2 28l-4 535q-4 158 164 209l4 -709q0 -342 -338 -342q-393 0 -672 348z" />
<glyph unicode="&#x1071;" horiz-adv-x="6" d="M-1239 1298q0 80 56.5 134.5t133.5 54.5q80 0 134.5 -54.5t54.5 -134.5q0 -82 -53.5 -136t-135.5 -54q-80 0 -135 54.5t-55 135.5zM-1094 1298q0 -45 45 -45q43 0 43 45q0 41 -43 41q-45 0 -45 -41zM-666 1298q0 80 56.5 134.5t134.5 54.5q80 0 134 -54.5t54 -134.5 q0 -82 -53 -136t-135 -54q-80 0 -135.5 54.5t-55.5 135.5zM-520 1298q0 -45 45 -45q43 0 43 45q0 41 -43 41q-45 0 -45 -41z" />
<glyph unicode="&#x1072;" horiz-adv-x="1349" d="M-1108 1495q0 162 111.5 269.5t275.5 107.5q201 0 303 -141q33 -47 33 -109q0 -115 -84 -115q-70 0 -70 74q0 23 15 41q-6 53 -78 86q-55 25 -119 25q-100 0 -174 -69t-74 -169t74 -169t174 -69q150 0 217 127q18 37 60 37q71 1 71 -67q0 -20 -8 -37q-109 -199 -340 -199 q-166 0 -276.5 106.5t-110.5 270.5z" />
<glyph unicode="&#x1073;" horiz-adv-x="6" d="M-1333 1231l510 448q59 -51 444 -356q25 -20 109 -88l-23 -117l-526 400l-492 -404z" />
<glyph unicode="&#x1074;" horiz-adv-x="6" d="M-1116 1495q0 154 104 254q41 39 86 63l82 -126q-127 -49 -127 -193q0 -96 59.5 -156.5t157.5 -60.5q90 0 150.5 60.5t60.5 150.5q0 147 -123 199l76 126q31 -20 92 -65q109 -109 109 -254q0 -154 -105.5 -258.5t-259.5 -104.5t-258 105.5t-104 259.5z" />
<glyph unicode="&#x1075;" horiz-adv-x="1118" d="M37 444q0 -57 22 -108q35 -74 103 -74q20 2 45 8q20 2 47 2q68 0 68 -69q0 -68 -68 -68q-23 0 -59 31l-109 -64q72 -102 168 -102q84 0 144.5 59.5t60.5 145.5q0 84 -60.5 143.5t-144.5 59.5q-31 0 -59 -9q-29 27 -11 131q33 131 158 187q59 27 145 26q133 0 222 -88 q78 -78 77 -211q0 -139 -77 -215q-31 -31 -47 -43q-25 -18 -60 -34l68 -119q84 39 137 94q119 127 113 313q-6 201 -123 316q-127 125 -316 125q-195 0 -313 -123q-131 -135 -131 -314z" />
<glyph unicode="&#x1076;" horiz-adv-x="1058" d="M14 319q0 80 55.5 121t133.5 41q139 0 257 -92t132 -219q80 57 113 111q39 63 40 155q6 131 -83 217t-220 90q-14 -88 -56 -126.5t-134 -36.5q-90 2 -127 20q-49 27 -72 107l10 88l158 61q-37 -45 -37 -100q2 -23 24.5 -40.5t49.5 -17.5q18 0 55 23q2 16 21 98 q18 53 72 60q16 2 34 2q92 0 168 -33q66 -27 99.5 -52.5t74.5 -78.5q92 -121 92 -266q1 -209 -120 -328q-125 -123 -328 -123q-229 0 -358 180q-53 74 -54 139zM152 326q0 -14 36 -76q100 -111 234 -117l35 -2q-2 84 -90 166q-62 59 -150 57q-66 -2 -65 -28z" />
<glyph unicode="&#x1077;" horiz-adv-x="1083" d="M37 440q0 176 129 312q119 121 311 120q186 0 311 -122q117 -115 123 -314q6 -186 -112 -309q-51 -57 -135 -94l-64 80q-57 74 -57 178q0 90 45 164q49 82 139 118q2 2 2 5q0 14 -10 39.5t-17 31.5q-88 88 -219 88q-137 0 -215 -73q-68 -63 -86 -138q-18 -104 11 -131 q31 8 59 8q84 0 143.5 -58t59.5 -142t-59.5 -143.5t-143.5 -59.5q-94 0 -168 102l109 62q37 -29 59 -29q68 0 67 66q0 70 -67 69q-25 0 -47.5 -4t-42.5 -6q-70 -2 -103 72q-23 51 -22 108zM672 317q0 -45 14 -71q8 -12 21 -27q57 68 57 127q-1 37 -19 86q-74 -66 -73 -115z " />
<glyph unicode="&#x1078;" horiz-adv-x="1826" d="M39 428q0 -186 121 -307t311 -121q86 0 184 43l-49 117q-88 -29 -135 -29q-133 0 -218 83t-85 214q0 129 87 214t216 85q131 0 214 -83t83 -216v-12l4 -6q8 -186 127 -298t305 -112q190 0 311 121t121 307q0 195 -118.5 311.5t-313.5 116.5q-233 0 -366 -199 q-131 199 -367 199q-190 0 -311 -117.5t-121 -310.5zM907 428q0 131 84 215t213 84q131 0 218 -84t87 -215q0 -129 -87 -213t-218 -84q-129 0 -213 84t-84 213z" />
<glyph unicode="&#x1079;" horiz-adv-x="1789" d="M37 422q0 90 33.5 169t93 138t138.5 93t169 34q57 0 109.5 -14.5t99.5 -40t86 -61.5t68 -81q29 45 67.5 81t85.5 61.5t99.5 40t109.5 14.5q90 0 169 -34t138.5 -93t93 -138t33.5 -169q0 -88 -33.5 -168t-93 -138.5t-138.5 -92t-169 -33.5t-169 33.5t-137.5 92t-93 138.5 t-34.5 168v20q-2 57 -26.5 107.5t-64.5 87.5t-91.5 57.5t-108.5 20.5q-61 0 -114.5 -22.5t-93.5 -62.5t-62 -93q-16 -37 -21 -76q59 16 115.5 9t107 -31.5t90 -64.5t63.5 -90.5t29 -108.5t-14 -118q-2 -16 -12 -32q-14 -14 -35.5 -24.5t-52.5 -10.5q-90 0 -169 33.5 t-138.5 92t-93 138.5t-33.5 168zM188 344q4 -18 13 -35q23 -55 62.5 -94t93 -62.5t114.5 -23.5q2 37 -7 70.5t-27.5 62.5t-46.5 50.5t-60.5 32.5t-68.5 11t-73 -12zM903 422q0 -59 23.5 -113.5t62.5 -93.5t93.5 -62.5t113.5 -23.5q61 0 114.5 23.5t93.5 62.5t62.5 93 t22.5 114q0 61 -22.5 114.5t-62.5 93.5t-93.5 62.5t-114.5 22.5q-59 0 -113.5 -22.5t-93.5 -62.5t-62.5 -93.5t-23.5 -114.5z" />
<glyph unicode="&#x107a;" horiz-adv-x="1796" d="M37 430q0 86 32.5 163t90 134t134.5 91t165 34q86 0 161.5 -33t132 -88t91.5 -129t37 -160v-22q2 -57 24.5 -107.5t61.5 -88.5t90 -59.5t108 -21.5q59 0 111.5 22.5t90.5 61.5t60.5 91.5t22.5 111.5q0 57 -22.5 109.5t-60.5 91.5t-90 61.5t-112 22.5q-25 0 -44 5 t-30.5 14t-17.5 20.5t-6 23.5q0 14 6 26.5t19.5 24t31 17.5t41.5 6q88 0 165 -34t134.5 -91t90 -134t32.5 -163q0 -59 -15.5 -112.5t-42 -100.5t-65.5 -86t-86 -66.5t-101 -42t-112 -14.5q-86 0 -164 31q-68 31 -120 78v-553q0 -16 6 -29.5t15 -24t23.5 -15.5t28.5 -5h150 q262 0 156.5 -10t337 41t113.5 -45.5t-418 -109.5t-128 -13h-61h-150q-43 0 -81.5 16.5t-67.5 45t-44.5 66.5t-15.5 83v825q-2 16 -2 35q0 4 -2 14q0 57 -22.5 107.5t-61.5 88.5t-90 59.5t-108 21.5q-59 0 -111.5 -22.5t-90.5 -61.5t-60.5 -91.5t-22.5 -109.5 q0 -59 22.5 -111.5t60.5 -91.5t90 -61.5t112 -22.5q25 0 43 -5t30.5 -14t18.5 -20.5t6 -23.5t-6 -25.5t-19.5 -24t-31 -16.5t-41.5 -6q-57 0 -111.5 14.5t-101.5 42t-86 66.5t-65.5 86t-42 100.5t-15.5 112.5z" />
<glyph unicode="&#x107b;" horiz-adv-x="1804" d="M37 428q0 90 34.5 170t94 139.5t139.5 94t170 34.5q57 0 110.5 -14t100.5 -40t87 -62.5t69 -81.5q31 45 69.5 81.5t85.5 62.5t100.5 40t112.5 14q90 0 170 -34.5t139.5 -94t94.5 -139.5t35 -170t-35 -171t-94.5 -140.5t-139.5 -93t-170 -33.5q-33 0 -54 10t-36 27 q-10 14 -12 30q-20 61 -14 120t30.5 110t63.5 91t90 65.5t108.5 32.5t116.5 -9q-4 39 -20 76q-23 55 -63 95t-94 63.5t-116 23.5q-59 0 -111 -21.5t-92 -59.5t-64.5 -88t-29.5 -107v-21q0 -90 -33.5 -171t-93 -140.5t-140.5 -93t-171 -33.5t-170 33.5t-139.5 93t-94 140.5 t-34.5 171zM178 428q0 -61 23.5 -115.5t63.5 -94.5t94.5 -63.5t115.5 -23.5t115.5 23.5t94.5 63.5t63.5 94.5t23.5 115.5t-23.5 115.5t-63.5 94.5t-94.5 63.5t-115.5 23.5t-115.5 -23.5t-94.5 -63.5t-63.5 -94.5t-23.5 -115.5zM1210 131q61 0 115.5 23.5t94.5 63.5t63 93 q8 18 12 37q-37 12 -74 12t-69.5 -11t-60 -32.5t-47 -50t-29 -63.5t-5.5 -72z" />
<glyph unicode="&#x107c;" horiz-adv-x="1746" d="M34 561.5q-3 18.5 7 38.5q18 43 47 83t64.5 71.5t79.5 55.5t94 36q70 20 139.5 15t131.5 -29.5t115.5 -67.5t92.5 -100q37 57 89 100t115.5 67.5t132 29.5t140.5 -15q49 -12 93 -36t81 -55.5t64.5 -71.5t48.5 -83q8 -20 5 -38.5t-14.5 -33t-27.5 -20.5t-34.5 -6t-34 10 t-25.5 33q-27 59 -76 103t-117 63q-59 16 -116.5 7t-106.5 -37t-86 -74t-51 -105q-2 -4 -2 -8.5t-2 -8.5q94 4 173 -16t143.5 -59t113.5 -91.5t80 -109.5q8 -12 17 -30.5t16.5 -36t11.5 -34t0 -26.5l-2 -2q-39 -29 -83 -49.5t-93.5 -30.5t-99.5 -9t-101 15 q-82 20 -146.5 68.5t-105.5 113.5q-43 -66 -107.5 -113.5t-146.5 -68.5q-49 -14 -99.5 -15t-98.5 9t-93 29.5t-84 50.5l-12 2q0 2 1 3t1 3q-2 6 2 22.5t11 35t15.5 37t16.5 26.5q31 57 80 109.5t114.5 91.5t146.5 59t175 14l-4 19q-16 59 -52 105t-85 74t-106.5 37 t-117.5 -7q-68 -18 -117.5 -62.5t-74.5 -103.5q-10 -23 -25.5 -33t-34 -10t-35 6t-27.5 20.5t-14 33zM313 160q45 -23 97.5 -28t105.5 9q41 12 77 34t62.5 51.5t45 66.5t26.5 76q-78 6 -143.5 -9.5t-116.5 -45t-90 -70.5t-64 -84zM881 371q6 -41 24.5 -78t46 -66.5t63.5 -51 t77 -34.5q53 -14 102 -9t94 24q-25 45 -61.5 85t-89 70.5t-116.5 47t-140 12.5z" />
<glyph unicode="&#x107d;" horiz-adv-x="1773" d="M41 772q2 16 13.5 32.5t31.5 24.5q59 29 117.5 32t106.5 -16.5t78 -61.5t30 -107q0 -53 -18.5 -86t-47 -53.5t-64.5 -35t-71 -30.5q-14 -6 -23.5 -16.5t-9.5 -32.5q0 -59 23.5 -113.5t63.5 -94.5t93.5 -62.5t114.5 -22.5q45 0 87 13.5t77 37t62.5 57t44.5 72.5 q-14 55 -15 113q0 90 34 170t93.5 138t138 92t168.5 34q55 0 105.5 -12.5t96.5 -36t84 -57t69 -76.5q12 -18 13 -37t-7 -34t-23.5 -26.5t-32 -13.5t-35 4t-30.5 25q-41 57 -103.5 91t-136.5 34q-61 0 -114.5 -23.5t-93 -63.5t-62 -93.5t-22.5 -114.5q0 -74 32.5 -135.5 t87.5 -102.5q16 53 49 97.5t77 75t96.5 46t106.5 13.5t108.5 -23.5t99.5 -64.5q10 -6 18.5 -15.5t13.5 -21.5t4 -25.5t-7 -29.5q-27 -53 -67 -99.5t-91 -79t-110.5 -51t-125.5 -18.5q-53 0 -102 12t-93 34.5t-82 54.5t-69 71q-29 -39 -66.5 -71t-81.5 -54.5t-94.5 -34.5 t-101.5 -12q-90 0 -170 33.5t-138 93t-93 138.5t-35 169q0 8 1 22.5t4 29.5t9 31.5t17 31.5q14 18 33.5 31.5t41 24.5t46 20.5t49.5 19.5q14 6 23 16t9 27q0 4 -2 12t-8 18.5t-15 18.5t-26.5 11t-41 -2t-54.5 -23q-20 -10 -37.5 -9.5t-30 11t-17.5 27t-3 32.5zM1104 135 q33 -6 65 -6q39 0 77 10.5t70 28.5t58.5 45t46.5 57q-47 29 -98 31t-96 -17.5t-79 -57.5t-44 -91z" />
<glyph unicode="&#x107e;" horiz-adv-x="1724" d="M41 780.5q2 16.5 13.5 32.5t31.5 25q57 29 115.5 31.5t106.5 -16.5t77 -61t29 -106q0 -53 -17.5 -86t-46 -53.5t-63.5 -34.5t-70 -31q-16 -6 -24.5 -16t-8.5 -31q0 -61 23.5 -114.5t62.5 -92.5t92.5 -62.5t112.5 -23.5q45 0 87 13.5t77 38t62.5 57.5t43.5 72 q-16 55 -16 112q0 88 34 167t93 137.5t137 92t168 33.5q53 0 104.5 -12t96.5 -35.5t83 -57.5t68 -75q12 -18 13.5 -37.5t-7 -35t-23.5 -26t-31.5 -12.5t-35 4.5t-30.5 24.5q-41 57 -102.5 90t-135.5 33q-61 0 -113.5 -22.5t-92.5 -62.5t-62.5 -93t-22.5 -113q0 -74 33 -135 t88 -102q16 53 48 97t76 74.5t96.5 46t105.5 13.5t107.5 -23.5t99.5 -64.5q10 -6 18 -15.5t13.5 -21.5t4 -25.5t-7.5 -27.5q-27 -55 -66.5 -100.5t-91 -78t-109.5 -51t-124 -18.5q-57 0 -108 14l-107 -839q-6 -55 -24.5 -90t-47 -54.5t-66.5 -26.5t-83 -7h-82q-25 0 -159 10 t-313 52t-49 33t189.5 6t183 28.5t148.5 13.5h82q16 20 29.5 11t25 -2t20.5 22.5t15 44.5l105 858q-29 20 -54.5 43.5t-46.5 52.5q-31 -39 -68.5 -69.5t-80.5 -53t-92.5 -35t-102.5 -12.5q-88 0 -167 34t-138 92t-93 137t-34 169q0 6 1 20.5t4 31t9 33t17 28.5 q14 18 32.5 31.5t41 23.5t47 20.5t49.5 20.5q12 6 21 15.5t9 27.5q0 2 -2 11.5t-7 18.5t-15 18t-26.5 11.5t-40 -2t-56.5 -22.5q-18 -12 -35.5 -10t-29 12t-17.5 25.5t-4 32zM1098 150q31 -6 63 -7q39 0 76 9.5t68.5 28t58.5 45t47 57.5q-47 29 -97 30.5t-95 -18t-78 -57 t-43 -88.5z" />
<glyph unicode="&#x107f;" horiz-adv-x="1091" d="M37 428q0 74 15.5 138.5t44 118.5t68.5 98t91 77q16 8 30.5 10t27 -1t23.5 -11t17 -18q41 -47 61.5 -100.5t21.5 -107.5t-14 -105.5t-46 -95.5t-74 -77t-96 -49q18 -39 46 -70.5t62.5 -55t76.5 -37t87 -13.5q61 0 115.5 23.5t94.5 64.5t63.5 95.5t23.5 115.5 q0 57 -11 106.5t-31.5 88.5t-48.5 67.5t-60 46.5q-20 10 -29.5 27.5t-8.5 36t10 34t23.5 25.5t34 11t39.5 -9q51 -29 93 -73t72 -99t45.5 -120.5t15.5 -141.5q0 -90 -35 -171t-94.5 -141.5t-140.5 -94t-171 -33.5q-61 0 -117.5 15t-105.5 44t-90 69t-68.5 89t-44 105.5 t-16.5 117.5zM180 420q43 14 75 47t48 73t16 86t-20 87q-55 -45 -87 -116t-32 -169v-8z" />
<glyph unicode="&#x1080;" horiz-adv-x="1779" d="M30 205q1 22 13 39q33 59 80 101t104.5 67.5t120 35t122.5 0t117.5 -36t102.5 -73.5q6 23 10.5 45.5t4.5 44.5q0 63 -24 118.5t-65 96.5t-96 64.5t-117 23.5q-74 0 -134 -30.5t-103 -82.5q-14 -18 -32.5 -24t-37 -2t-33 15t-21.5 27.5t-6 36.5t17 38q31 39 69 69.5t83 52 t95 34t103 12.5q61 0 118 -16.5t107 -45.5t91 -69.5t69.5 -90t45 -106.5t16.5 -119v-10q2 -61 25.5 -114.5t64.5 -92.5t95.5 -62.5t115.5 -23.5q63 0 117.5 24.5t95.5 65.5t65.5 96.5t24.5 116.5q0 63 -24.5 117.5t-65.5 95.5t-95.5 64.5t-117.5 23.5q-37 0 -60.5 11.5 t-35 26.5t-9 34.5t14.5 35t34.5 27t55.5 11.5q92 0 174 -35t142.5 -96.5t95 -142.5t34.5 -173t-34.5 -174t-95 -142.5t-142.5 -95t-174 -34.5q-59 0 -113.5 14t-102.5 41t-88 63.5t-71 83.5q-29 -47 -69.5 -83.5t-88 -63.5t-102.5 -41t-113 -14q-55 0 -106 12t-96 34.5 t-84 55.5t-70 74q-18 23 -17 45zM178 227q41 -45 99.5 -72.5t125.5 -27.5q66 0 123.5 25.5t98.5 72.5q-49 59 -109.5 85t-122 23t-119 -31t-96.5 -75z" />
<glyph unicode="&#x1081;" horiz-adv-x="1308" d="M10 -883.5q0 21.5 9.5 40t29 30.5t45.5 12h21q18 0 34.5 2t30 10.5t23.5 27t16 52.5l90 553q-113 78 -176 204t-63 294q0 106 41 201.5t111.5 166t164.5 111.5t203 41t203 -41t164.5 -111.5t111.5 -166t41 -201.5q-14 -86 -91 -76t-77 76q0 72 -27.5 136.5t-75.5 111.5 t-111.5 74.5t-137.5 27.5q-53 0 -102.5 -14t-91.5 -42t-73.5 -66t-52.5 -83q55 -18 102.5 -52t82 -79t56 -98t28 -109.5t-5 -115t-44.5 -113.5l-112 -676q-8 -68 -29.5 -108.5t-55.5 -64t-79 -32t-98 -8.5h-21q-29 0 -46 12.5t-27.5 32t-10.5 41zM238 342q0 -115 36.5 -197 t98.5 -137q6 2 8 2q23 49 21.5 102.5t-21 100.5t-56 84t-87.5 53v-8z" />
<glyph unicode="&#x1082;" d="M-1182 -446q0 -176 121 -296t297 -120q160 0 267.5 94t404.5 733q-338 -452 -418 -436q-6 2 -12 2t-6 -6q-8 -98 -75 -159.5t-165 -61.5q-111 0 -179.5 68.5t-68.5 181.5q0 104 68.5 172.5t173.5 68.5q23 0 67 -6v178q-37 4 -61 4q-176 0 -295 -120.5t-119 -296.5z" />
<glyph unicode="&#x1083;" horiz-adv-x="624" d="M-14 692v160h276v-1673l617 -15l-334 -153h-441v1681h-118z" />
<glyph unicode="&#x1084;" horiz-adv-x="964" d="M43 614q2 102 125 193l37 20q94 53 227 54q133 0 232 -35q31 -12 79 -43q39 -27 70 -64l-59 -96q-16 20 -76 51l-55 29l-62 27l-65 10h-54l-67 -2l-37 -8l-31 -11l-41 -20q-51 -25 -67 -86q-4 -23 13 -51.5t44 -44.5q6 -4 55 28q55 37 113 37q119 0 181.5 -37t103.5 -127 l-31 -65q-80 -106 -221 -107q-111 0 -207 66q-41 -27 -53 -74q0 -18 49 -65q31 -23 86 -43l45 -13l55 -4l88 4q33 0 60 8l49 17l41 20q29 14 78 64l69 -117q-61 -55 -162 -98q-139 -35 -223 -29l-106 6l-60 19l-53 26l-59 33l-52 51q-55 68 -55 127q0 84 82 162q4 8 -18 31 q-31 33 -45 59q-23 45 -23 98zM360 432q0 -16 40 -31.5t73 -15.5q35 2 86 41q-12 35 -31 41l-49 8q-18 4 -33 4q-41 0 -81 -39q-4 -4 -5 -8z" />
<glyph unicode="&#x1085;" horiz-adv-x="6" d="M-915 1573q0 80 98 149l26 17q74 41 179 41q102 0 178 -27q25 -10 63 -35q31 -18 54 -47l-68 -106q-12 16 -53 39l-39 18l-43 16l-45 9h-37h-49l-25 -9l-20 -4l-31 -14q-35 -18 -47 -61q0 -27 41 -52q4 -2 37 19q41 27 80 26q84 0 128 -25.5t70 -86.5l-20 -47 q-57 -76 -154 -76q-78 0 -147 45q-8 -6 -20.5 -14.5t-14.5 -24.5q0 -12 33 -45q23 -14 59 -31l33 -8l39 -2l61 2q25 0 41 6l35 10l29 17q18 10 53 43l76 -119q-47 -43 -127 -78q-106 -27 -170 -22l-86 6l-45 14l-41 19l-45 28l-41 41q-43 51 -43 96q0 66 63 127 q2 2 -33 46.5t-32 99.5zM-662 1430q0 -8 28 -20.5t50 -10.5q27 1 62 28q-8 23 -23 29l-33 6q-47 6 -81 -24q-2 -2 -3 -8z" />
<glyph unicode="&#x1086;" d="M-688 1819q0 92 80 174q74 75 172 75q127 0 194 -69q88 -92 90 -178q4 -150 -88 -310l-32 -59q-127 -217 -263 -307l-49 2l49 78l74 123l41 84l31 92q8 49 10 45q-4 10 -57 -2q-100 0 -176 74.5t-76 177.5zM-549 1808q0 -37 35 -82q29 -27 65 -26q131 -6 136 112 q4 113 -125 113q-29 0 -70 -25.5t-41 -91.5z" />
<glyph unicode="&#x1087;" horiz-adv-x="622" d="M14 -397q0 39 52 86q76 70 135 153q68 92 67 140q1 30 -30 34q-94 10 -142 56q-55 57 -55 139q0 86 54.5 142.5t142.5 56.5q80 0 141 -58q76 -72 76 -141q0 -2 2 -27.5t2 -46.5q0 -319 -418 -547q-8 -4 -14 -4q-12 0 -13 17zM176 211q0 -61 62 -61q63 0 63 61 q0 63 -63 63q-61 0 -62 -63z" />
<glyph unicode="&#x1088;" horiz-adv-x="679" d="M16 -430q0 41 56 92q82 76 147 168q74 100 74 152q0 32 -35 36q-102 12 -152 62q-61 61 -61 151q0 92 59.5 153.5t153.5 61.5q88 0 154 -61q84 -78 84 -154q0 -4 2 -31.5t2 -49.5q0 -346 -455 -594q-8 -4 -14 -5q-14 0 -15 19zM66 846q0 92 59 153.5t154 61.5 q92 0 154.5 -61.5t62.5 -153.5q0 -90 -64.5 -151.5t-152.5 -61.5q-90 0 -151.5 61.5t-61.5 151.5zM193 231q0 -68 65 -67q70 0 70 67q0 68 -70 68q-66 0 -65 -68zM213 846q0 -68 66 -68q70 0 69 68q1 67 -69 67q-66 0 -66 -67z" />
<glyph unicode="&#x1089;" horiz-adv-x="665" d="M133 193q0 80 56.5 134t134.5 54q80 0 134 -54t54 -134q0 -82 -53 -136.5t-135 -54.5q-80 0 -135.5 54.5t-55.5 136.5zM279 193q0 -45 45 -46q43 1 43 46q0 41 -43 40q-45 0 -45 -40z" />
<glyph unicode="&#x108a;" horiz-adv-x="1030" d="M27 223q8 -90 75 -149q84 -78 160 -70q68 4 137 10q127 25 238 119q150 129 258 379q4 6 4 12q0 14 -16 15q-43 0 -90 -64q-72 -90 -158 -166q-96 -82 -146 -82q-30 0 -36 33q-20 98 -74 143q-68 57 -156 50q-92 -8 -148.5 -73t-47.5 -157zM27 838q8 -90 75 -150 q84 -78 160 -70q68 4 137 11q127 25 238 119q150 129 258 378q4 6 4 13q0 14 -16 14q-43 0 -90 -63q-72 -90 -158 -166q-96 -82 -146 -82q-30 -1 -36 32q-20 98 -74 144q-68 57 -156 49q-92 -8 -148.5 -72.5t-47.5 -156.5zM174 236q-6 63 62 69t73 -57q6 -72 -61 -78 q-68 -6 -74 66zM174 850q-6 63 62 70q68 6 73 -58q6 -72 -61 -78q-68 -6 -74 66z" />
<glyph unicode="&#x108b;" horiz-adv-x="614" d="M133 397q0 80 56.5 134.5t134.5 54.5q80 0 134 -54.5t54 -134.5q0 -82 -53 -136t-135 -54q-80 0 -135.5 54t-55.5 136zM279 397q0 -45 45 -45q43 0 43 45q0 41 -43 41q-45 0 -45 -41z" />
<glyph unicode="&#x108c;" horiz-adv-x="1261" d="M154 459q0 80 56 134t134 54q80 0 134 -54t54 -134q0 -82 -53 -136.5t-135 -54.5q-80 0 -135 54.5t-55 136.5zM299 459q0 -45 45 -45q43 0 43 45q0 41 -43 41q-45 0 -45 -41zM707 459q0 80 56 134t134 54q80 0 134 -54t54 -134q0 -82 -53 -136.5t-135 -54.5 q-80 0 -135 54.5t-55 136.5zM852 459q0 -45 45 -45q43 0 43 45q0 41 -43 41q-45 0 -45 -41z" />
<glyph unicode="&#x108d;" horiz-adv-x="6" d="M-1214 -125v-178h907v178h-907z" />
<glyph unicode="&#x108e;" horiz-adv-x="1110" d="M41 432q0 186 129 311t315 125q188 0 316.5 -123.5t128.5 -312.5q0 -188 -127 -310t-318 -122q-188 0 -316 124t-128 308zM201 432q0 -115 85 -193.5t199 -78.5q115 0 200 78.5t85 193.5q0 66 -33 121q-18 -86 -90 -141.5t-162 -55.5q-88 0 -160.5 56.5t-93.5 140.5 q-31 -55 -30 -121zM387 612q0 -92 98 -92t99 92q0 39 -30 68t-69 29q-98 0 -98 -97zM414 166h16q6 -4 14 -4q12 0 17 4h14q-29 -6 -31 -6q-6 0 -30 6z" />
<glyph unicode="&#x108f;" horiz-adv-x="806" d="M72 195q2 84 56 137t144 57q82 0 142.5 -58.5t60.5 -135.5q0 -82 -59 -146q-51 -55 -82 -59q-16 -129 6 -193q25 -78 81 -155.5t181 -163.5q-147 39 -259 110.5t-173 181t-86 226.5t-12 199zM74 721q0 82 56 133t144 51q84 0 143.5 -58t59.5 -138t-61.5 -143.5 t-141.5 -63.5q-82 0 -141 65.5t-59 153.5zM223 207q0 -74 49 -74q56 1 56 62q0 49 -56 49q-49 0 -49 -37zM225 725q0 -74 49 -74q56 1 56 58q0 53 -56 53q-49 0 -49 -37z" />
<glyph unicode="&#x1090;" horiz-adv-x="1132" d="M57 506q0 213 125 358q131 152 340 152q207 0 336 -154q121 -145 121 -356q0 -207 -123 -352q-129 -156 -334 -156q-213 0 -342 152q-123 143 -123 356zM195 506q0 -147 91 -249.5t236 -102.5q139 0 234 106q86 104 86 246q0 150 -94.5 252t-225.5 102q-143 0 -235 -106 q-92 -102 -92 -248z" />
<glyph unicode="&#x1091;" horiz-adv-x="782" d="M76 657l86 131q86 131 137 226h96v-856l273 24l-105 -170h-313v725z" />
<glyph unicode="&#x1092;" horiz-adv-x="1019" d="M39 838q29 0 47 -11l45 -16q49 109 124 164t230 55q156 0 283 -92q104 -74 104 -260q0 -35 -94 -143q-39 -47 -160 -146l-110 -90l-68 -63q-68 -61 -94 -99l21 -123l-58 -12l-59 -4q-35 -4 -57 6q-14 8 -27 27q20 197 201 340l186 147l78 72q82 72 82 135q0 78 -80 131 q-70 45 -152 45q-252 0 -252 -260l-161 18z" />
<glyph unicode="&#x1093;" horiz-adv-x="1228" d="M145 174h52l348 840l-41 114l188 -170l-160 -428q109 -14 166 -45q166 -90 166 -288v-66l-10 -49l35 -19l20 -8q-10 -29 -67 -51q-49 -20 -86 -20q-47 0 -47 34l4 23l12 68l6 61q8 100 -78 178q-78 70 -137 70l-31 -6l-192 -412z" />
<glyph unicode="&#x1094;" horiz-adv-x="1157" d="M35 215l86 -27l387 762l65 80l170 -143l131 -672l95 39l-244 -252l-107 741l-49 -10l-106 -221l-242 -514z" />
<glyph unicode="&#x1095;" horiz-adv-x="1107" d="M145 317l5 82q0 41 28 86q39 59 103 105l30 22l277 11l57 8l-2 413l143 -83v-336h121v-154h-121v-405l-47 -68h-297q-66 0 -104 20q-29 12 -84 68q-76 70 -109 231zM307 309l10 -57q10 -55 56 -86l90 -2l131 -2l49 55v254h-125l-61 -6q-31 0 -80 -6l-39 -25 q-10 -10 -19 -39z" />
<glyph unicode="&#x1096;" horiz-adv-x="1118" d="M137 719q43 213 193 295q47 25 108 24h297l49 -65v-408h121v-155h-121v-338l-145 -84l2 415l-125 9l-209 10l-51 37q-39 31 -82 86q-23 37 -31 88zM301 727l12 -86q0 -25 19 -41l37 -25l80 -6h53l65 -4h72v254l-51 58h-135q-74 0 -86 -7q-47 -31 -56 -71z" />
<glyph unicode="&#x1097;" horiz-adv-x="1112" d="M154 154l553 637l-50 83l-499 -20l57 160h520l76 -94l72 -115l-527 -617l23 -53l469 19l-27 -148h-571l-90 47z" />
<glyph unicode="&#x1098;" horiz-adv-x="1228" d="M104 360q0 139 160 226l-61 43q-41 37 -41 110q0 106 64.5 195.5t164.5 134.5l39 -78l19 -53l8 -33q-111 -72 -111 -141q0 -57 66.5 -95t144.5 -38q76 0 140.5 44t64.5 99q0 74 -113 125l13 53q25 115 77 103q98 -43 156.5 -128t58.5 -192q0 -63 -39 -98q-18 -18 -94 -59 q189 -29 189 -224q0 -72 -33 -133q-20 -37 -98 -106q-135 -119 -322 -119q-203 0 -326 115q-66 57 -96.5 108t-30.5 141zM276 354q0 -45 35 -97t72 -77q63 -43 164 -43q123 0 192 58q90 87 90 155q0 49 -124 123q-70 41 -158 41q-68 0 -150 -41q-121 -57 -121 -119z" />
<glyph unicode="&#x1099;" horiz-adv-x="1177" d="M104 682q0 -137 156 -219l-59 -41q-41 -37 -41 -109q0 -104 62.5 -189t158.5 -128l39 74l16 53l10 31q-106 68 -106 135q0 55 63.5 93t139.5 38q74 0 136 -43t62 -98q0 -70 -108 -119l10 -51q23 -113 76 -99q94 39 150.5 123t56.5 186q0 61 -37 95q-18 16 -90 57 q182 27 182 217q0 68 -33 127q-18 37 -96 105q-129 115 -309 114q-197 0 -316 -110q-63 -57 -93 -105.5t-30 -136.5zM272 688q0 41 35 94q33 47 68 74q59 41 157 41q119 0 187 -55q86 -84 86 -152q0 -47 -119 -119q-68 -39 -154 -39q-66 0 -145 37q-115 57 -115 119z" />
<glyph unicode="&#x109a;" horiz-adv-x="679" d="M154 684q0 80 56 134t134 54q80 0 134 -54t54 -134q0 -82 -53 -136t-135 -54q-80 0 -135 54t-55 136zM299 684q0 -45 45 -45q43 0 43 45q0 41 -43 41q-45 0 -45 -41z" />
<glyph unicode="&#x109b;" horiz-adv-x="645" d="M23 932q0 41 55 92q82 76 149 168q72 100 72 151q0 33 -35 37q-100 12 -149 62q-61 61 -62 151q0 92 59.5 153.5t151.5 61.5q90 0 156 -61q84 -78 84 -154q0 -4 2 -31.5t2 -50.5q0 -346 -455 -593q-10 -4 -16 -5q-14 0 -14 19zM201 1593q0 -68 63 -67q72 0 72 67 q0 68 -72 68q-63 0 -63 -68z" />
<glyph unicode="&#x109c;" horiz-adv-x="1034" d="M10 287q8 88 76 147q84 78 160 72q68 -6 137 -12q127 -25 238 -119q150 -129 258 -377q4 -8 4 -14q0 -14 -17 -15q-43 0 -90 64q-72 90 -158 166q-96 82 -145 82q-31 0 -37 -33q-20 -98 -74 -144q-68 -55 -155 -49q-92 8 -148.5 74t-48.5 158zM10 901q8 88 76 148 q84 78 160 71q68 -6 137 -12q127 -25 238 -119q150 -129 258 -377q4 -8 4 -14q0 -14 -17 -14q-43 0 -90 63q-72 90 -158 166q-96 82 -145 82q-31 0 -37 -33q-20 -98 -74 -143q-68 -55 -155 -49q-92 8 -148.5 73.5t-48.5 157.5zM158 272q-6 -63 61 -69q68 -6 74 59 q6 70 -62 76q-67 6 -73 -66zM158 887q-6 -63 61 -70q68 -6 74 60q6 70 -62 75q-67 7 -73 -65z" />
<glyph unicode="&#x109d;" horiz-adv-x="6" d="M-778 1602q2 53 33 116q80 168 262 168q115 0 202 -86q37 -37 58 -80l22 -112v-523h-172v512l-2 19q-4 31 -35.5 62.5t-74.5 31.5q-90 0 -109 -104z" />
<glyph unicode="&#x109e;" horiz-adv-x="972" d="M201 1198q0 92 63.5 154.5t155.5 62.5q88 0 151.5 -64.5t63.5 -152.5t-63.5 -151.5t-151.5 -63.5q-92 0 -155.5 62.5t-63.5 152.5zM227 694l2 164l320 2v-1542h246l2 -178h-430l6 1552zM340 1198q0 -33 22.5 -55.5t57.5 -22.5q33 0 58.5 22.5t25.5 55.5q0 35 -24.5 58.5 t-59.5 23.5q-80 0 -80 -82z" />
<glyph unicode="&#x109f;" horiz-adv-x="1648" d="M14 535q0 233 169 402t403 169q236 0 403.5 -169t167.5 -402v-1287h80v1729l-59 90l-144 121l-90 -10l-72 2l-69 20q-123 33 -252 238l-25 75l-14 93q0 248 258 403l86 31l90 10l51 -2q31 -2 52 -14l106 -41q119 -47 182 -213l-34 -31l-82 -55q-25 76 -109 147 q-72 59 -168 60q-117 0 -199.5 -85t-82.5 -202q0 -61 6 -66q0 -18 26 -71q8 -41 94 -101l37 -24l39 -15l86 -16q47 0 74 14q147 -27 242 -112q47 -45 137 -181v-1904h-436v1397q0 152 -114 266t-267 114q-158 0 -269.5 -111.5t-111.5 -268.5q0 -156 108 -271 q100 -111 273 -110h22l-22 -193q-231 0 -401.5 171t-170.5 403z" />
<glyph unicode="&#x1700;" horiz-adv-x="2324" d="M0 -389v1515q0 111 86 111h463q84 10 84 -111v-243h-94v239h-441v-1503h445v453q-68 -78 -166 -78q-184 0 -246 221q-18 66 -18 143q0 182 71 301q49 49 97 78l34 -119q-43 -23 -59 -49v2q-49 -78 -49 -213q0 -35 8 -75q68 68 162 67q92 0 155 -67q8 41 9 75 q0 135 -49 211v-2q-31 37 -62 54l45 118q111 -78 146 -219q16 -74 16 -162v-749q0 -111 -82 -111h-469q-86 0 -86 113zM264 170q49 -55 113 -55q55 0 106 55q-49 57 -106 57q-63 0 -113 -57zM672 262q0 88 67 121q39 18 99 18q61 0 100 -63q35 -55 35 -121v-84 q47 27 67.5 57.5t34.5 67.5l-2 -2q8 51 -45 94q-37 31 -122 71t-120 68q-57 45 -47 95q20 104 113 135q-119 59 -119 254q0 119 54.5 193.5t140.5 74.5q104 0 159 -115q8 -20 19 -51l-86 -53q-6 20 -27 59l-2 4q-27 39 -65 39q-98 0 -99 -151q0 -53 21 -94q25 -53 74 -54h8 l18 19l39 -125q53 -16 98 -57l-49 -107q-63 55 -112 55q-43 0 -58 -20q4 -25 84 -62q4 -4 11 -4q152 -59 198 -131q23 -37 21 -80q-4 -119 -70 -209v2q-53 -78 -137 -100v-508h-99v506q-55 12 -96 45q-25 14 -41 45l-10 12q-10 16 -49 101q-6 25 -6 55zM782 246 q23 -98 92 -117v88q1 59 -34 59q-57 0 -58 -30zM1184 358q0 182 82 308q20 31 86 73l37 -121q-33 -16 -60 -49l2 2q-51 -86 -51 -213q0 -35 8 -75q76 68 160 67q92 0 158 -69q8 41 8 77q0 133 -49 211v-2q-31 37 -62 54l39 118q61 -37 96 -86q8 -12 21 -39l2 2l2 2 q68 102 190 103q117 0 186.5 -104.5t69.5 -258.5q0 -158 -68.5 -258t-187.5 -100q-41 0 -77 14l22 121q33 -16 55 -16q61 0 113 65q49 76 49 174q0 86 -37 158q-45 86 -125 86q-70 0 -116 -65q-14 -20 -33 -70q6 -37 6 -109q0 -137 -61 -241q-72 -123 -201 -123 q-90 0 -158 67q-59 59 -86 154q-20 66 -20 143zM1337 170q55 -55 111 -55q57 0 108 55q-49 57 -108 57t-111 -57z" />
<glyph unicode="&#x1950;" horiz-adv-x="931" d="M29 666l8 34l8 37l12 43l15 39l16 37l18 31l19 26l18 17l17 14l20 14l21 13l28 4l27 -2l20 -10l29 -17l17 -22l12 -27l10 -29l8 -34l6 -15l7 -8l8 -2l8 4l43 51l37 43l63 86l37 49l47 37l45 2l45 -14l31 -31l29 -43l18 -37l29 -77l31 -160l26 -164l33 -197l12 -163v-11 l2 -10v-8l-2 -14l-4 -17l-4 -12l-8 -17l-4 -14l-6 -18l-9 -15l-10 -16l-6 -12l-6 -6l-6 -7l-6 -6l-17 -8l-12 -2l-12 -2l-15 2h-16l-12 8l-11 6l-12 9l-10 12l-4 14v15l-6 26l-9 58l-12 75l-10 78l-10 80l-15 70l-12 75l-14 72l-27 139l-12 62l-6 33l-2 16l-2 12l-5 8l-2 4 l-2 5l-4 4h-10l-10 -2l-15 -7l-16 -10l-29 -37l-32 -49l-23 -37l-26 -32l-27 -35l-29 -37l-12 -19l-12 -22l-15 -18l-16 -17l-8 -6l-11 -4l-8 -4l-8 -4l-10 2l-10 4l-9 4l-8 6l-20 21l-13 20l-12 14l-10 15l-12 14l-15 23l-14 24l-10 15l-6 14l-11 6l-12 -2l-10 -4l-8 -6 l-11 -8l-8 -9l-10 -14z" />
<glyph unicode="&#x1951;" horiz-adv-x="976" d="M-55 797l12 14l10 14l13 15l8 14l12 12l8 15l23 24l20 29l23 27l20 28l12 12l11 15l14 10l21 12l20 11l16 2l25 6l16 2h21l16 -4l15 -8l12 -11l10 -16l14 -23l9 -14l6 -16l4 -11l4 -4h4h6l10 2l11 7l12 10l14 8l17 12l24 17l23 16l39 18l37 21l36 16l31 13l25 2l26 2 l23 2l24 -2l17 -4l22 -13l19 -22l33 -70l22 -84l27 -117l24 -124l13 -177l14 -206v-72l-8 -57l-13 -27l-20 -27l-29 -16l-30 -4l-17 12l-14 12l-10 11l-11 12l-6 10l-8 12h-2l-8 -8l-4 -8l-13 -18l-12 -15l-14 -16l-15 -8l-20 -13l-16 -8l-13 -8l-16 -6l-21 -10l-28 -9 l-21 -6l-14 -4l-10 -2l-13 2l-18 4l-25 6l-26 5l-15 4l-14 4l-14 12l-15 10l-12 13l-14 16l-6 16l-6 21l2 12l2 12l2 11v8l-6 28l-5 27l-8 31l-8 26l-4 11l-6 8l-4 6l-6 6l-25 14l-12 9l-4 4l-2 6l-2 6l2 10l2 8l4 11l4 12l8 12l8 13l10 12l13 8l14 10l18 17l21 12l20 14 l35 11l31 12h16l15 4l14 2h6l6 -4l4 -4l7 -4l2 -2l6 -2l12 2l10 4l11 4l8 8l18 16l33 25l35 29l18 14l15 8l4 6l2 9l2 30l-2 41l-4 23l-2 16l-13 51l-12 49l-10 50l-13 49l-8 14l-6 12l-4 9l-4 10l-8 6l-6 6h-11h-10h-8l-17 -6l-16 -8l-14 -8l-13 -15l-12 -16l-22 -29 l-23 -28l-20 -29l-50 -47l-32 -33l-45 -37l-45 -12l-37 -10l-33 6l-29 30l-30 27l-29 25l-14 6l-17 4l-18 2l-21 2l-16 -2l-16 -4l-17 -4zM600 401l2 -22l4 -27l6 -37l4 -47l5 -32l-3 -23q4 -18 11 -27h10l10 7l19 8l10 12l8 4l6 6l4 2l-2 29v12l-2 8v7l6 8l7 8l2 6l6 6v4 l-8 162q-5 37 -13 45h-2l-4 -4l-4 -2l-6 -6l-19 -14l-36 -27l-5 -6l-4 -4l-4 -8l-4 -13l-2 -10v-12z" />
<glyph unicode="&#x1952;" horiz-adv-x="970" d="M-39 817v4l4 8l6 13l6 10l13 14l12 19l27 41l26 39l29 43q20 23 51 32l29 7h12h14l7 -5l12 -4l10 -6l17 -8l14 -12l10 -13l10 -12l11 -14l10 -23l10 -28l4 -21l6 -18l6 -13l5 -12l4 -10l2 -6h4l2 4l4 4l10 18l12 21l23 33l18 28l25 31l27 31l32 30l29 25q22 27 53 37 l29 2l37 -21l20 -18l29 -35l39 -51l39 -70l28 -80l56 -215l33 -161l22 -160l2 -41l-4 -47l-8 -37l-10 -33l-13 -41l-10 -16l-12 -19l-10 -10l-11 -8l-16 -10l-14 -6l-15 -7l-14 -2l-14 7l-15 8l-14 10l-8 6l-8 12l-13 25l-10 41l-12 37l-13 80l-36 225l-43 248l-33 145 l-17 35l-14 35l-8 12l-4 4h-6l-11 -2l-8 -6l-20 -14l-19 -17l-22 -26l-21 -29l-18 -35l-19 -33l-8 -18l-4 -8l-4 -8v-11l2 -12l2 -22l4 -23l6 -47l6 -68l7 -90l4 -98l2 -94l-8 -94l-9 -35l-8 -35l-8 -23l-8 -14l-10 -18l-13 -13l-10 -12l-10 -12l-12 -8l-19 -9l-27 -12h-14 l-14 4l-10 8l-13 6l-6 9l-2 10l-2 10l-4 31l-10 49l-56 307l-28 152l-31 137l-16 45l-4 6l-5 6l-6 4l-12 9l-14 8l-13 6l-8 4z" />
<glyph unicode="&#x1953;" horiz-adv-x="1411" d="M-76 522l13 39l24 80l14 43l17 47l14 45l17 49l16 47l16 43l23 39l16 27l23 23l22 16l21 12l14 4h10l9 -4l10 -8l20 -18l19 -19l14 -24l14 -23l19 -35l20 -37l8 -18l9 -10l4 -2l2 2l12 12l8 12l17 25l16 29l16 28l19 41l22 41l21 39l16 25l23 18l22 14l23 15l24 8l21 6 h16l19 -2l16 -6l25 -12l14 -11l12 -12l13 -23l8 -14l20 -41l35 -80l18 -47l19 -41l8 -24l10 -23l6 -10l7 -2l6 6l8 16l16 45l23 58l24 65l15 29l12 33l21 39l20 34q19 33 39 41l10 7h8l15 -2l16 -9l12 -12l17 -14l22 -35l19 -37l20 -45l17 -41l16 -47l12 -51l8 -39l9 -41 l16 -80l27 -111l10 -45v-18l2 -27l-2 -18l-10 -27l-6 -24l-13 -27l-14 -35l-8 -18l-4 -8l-7 -11l-10 -4l-8 -6l-10 -4l-4 -2l-6 -2l-5 -8v-27v-16l-2 -6l-2 -7l-2 -2h-6l-4 2l-8 5l-6 4l-8 4l-9 12l-4 4l-2 6l-4 -16l-2 -14l-8 -23l-2 -18l-12 -37l-11 -35l-4 -29 q-10 -31 -16 -51l-8 -10l-7 -10l-6 -13l-8 -14l-10 -12l-8 -7l-13 -6l-12 -2l-22 -10l-23 -4l-20 2l-21 14l-10 6l-6 7l-13 16l-18 27l-18 22l-11 10l-6 11l-4 8l-37 104l-35 103l-69 209l-35 106l-35 102l-37 105l-37 102l-4 21l-8 10l-10 16l-6 7l-6 4l-9 -2l-6 -4l-8 -7 l-14 -24l-23 -47l-35 -80l-30 -84l-19 -41l-6 -25l-4 -8l-8 -10l-10 -21l-9 -12l-12 -20l-18 -17l-15 -10l-20 -10l-21 -10l-10 -5l-22 -2h-23l-14 2l-19 7l-20 22l-27 19l-20 20l-13 10l-8 2l-4 4h-6l-8 -4l-12 -6l-21 -26l-18 -31l-25 -29l-22 -26zM858 692l2 -12l14 -45 l19 -39l98 -342l2 -16l6 -17l2 -16v-6l5 -6l2 2l6 10l8 10l10 16l10 23l15 29l16 123l8 18l4 12l2 10l3 11l-3 8l-2 6l-2 18l-6 21v16l-102 305l-6 9l-8 10q-8 12 -17 22l-8 9l-6 2l-4 -2q-37 -80 -56 -125l-4 -23l-4 -22l-2 -11z" />
<glyph unicode="&#x1954;" horiz-adv-x="1400" d="M-61 539l18 82l27 73l43 94l34 68l33 55l31 39l14 8l15 11l18 10l18 6l21 2l14 -2l15 -4l8 -6l8 -10l8 -9l12 -16l9 -14l16 -33l23 -47l6 -19l6 -16l4 -4h4l4 4l10 8l9 12l10 17l26 39l13 22l16 25l19 22l20 29l25 29l26 22l23 27l26 18l37 13h21l24 -9h17l14 -10l16 -16 l15 -17l14 -22l14 -39l23 -84l22 -115l21 -127l10 -71l17 -103l16 -65l14 -62l11 -57l6 -35l4 -6l6 -4h6l29 29l30 32l17 19l12 18l14 12l13 19l8 16l4 17l6 16l2 14l2 99l-8 129l-18 139l-29 129l-20 55l-21 35l-10 33l6 35l10 35l29 49l26 39l37 24l37 4l27 -8l31 -31 l24 -45l17 -59l12 -57l18 -127l19 -134l18 -157l6 -129l6 -62l7 -28l2 -27l-5 -35l-6 -33l-24 -59l-27 -35l-33 -18l-20 -8l-25 4l-16 12l-16 16l-21 43l-8 15l-6 4l-8 -4l-7 -6l-10 -17l-14 -22l-76 -127l-27 -37l-30 -29l-29 -22l-27 -17l-32 -12l-27 -2l-18 6l-17 8 l-22 23l-25 51l-27 82l-20 102l-68 447l-26 80l-13 39l-14 40l-8 17l-8 4l-8 2h-9l-14 -12l-14 -17l-19 -28l-24 -33l-21 -35l-16 -35l-12 -28l-13 -25l-10 -29l-14 -22l-13 -25l-16 -20l-18 -13l-17 -10l-18 -12l-17 -2h-14l-14 4l-15 4l-18 8l-18 13l-29 34l-12 19l-9 10 l-8 8l-10 4l-8 4h-8l-11 5h-8l-8 -5l-8 -4l-13 -12l-18 -16l-18 -23l-17 -24z" />
<glyph unicode="&#x1955;" horiz-adv-x="1374" d="M6 831v11l4 12l4 14l9 23l20 41l33 61l18 31l12 14l9 13l14 16l16 10l21 6l16 7h25l18 -9l23 -12l22 -16l11 -21l8 -18l20 -41l17 -51l22 -72l27 -84l37 -178l28 -154l15 -82l6 -41l4 -20l4 -21l6 -2v6l4 7l6 10l4 12l29 86l27 66l22 45l23 37l26 34l33 31l27 12l16 7 l19 2l16 -2l16 -7l15 -16l14 -16l12 -23l11 -22l8 -25l8 -25l4 -22l2 -12l2 -9l6 -4l6 2l7 9l6 6l6 10l10 16l23 29l20 41l25 49l14 31l4 10l4 10l2 6v15v18l-4 13l-98 325l-8 25l-2 35l2 30l4 33l8 25l16 22l50 35l22 10l12 2h15l14 -6l25 -14l16 -19l12 -18l11 -21l10 -24 l14 -31l55 -205l68 -270l29 -152l16 -116l4 -33l2 -27v-26v-15v-20l-4 -21l-8 -18l-10 -18l-4 -11l-13 -12l-8 -4l-12 -2l-15 -2l-12 -6l-14 -6l-45 10l-17 16l-12 14l-8 13l-6 10l-6 33l-7 30l-12 66l-51 240l-6 16l-4 8l-2 2l-4 -6l-4 -10l-7 -21l-12 -43l-27 -69l-22 -49 l-21 -39l-26 -56l-15 -16l-12 -14l-8 -11l-12 -8l-13 -6h-12h-16l-15 10l-16 6l-18 15l-19 20l-16 31l-35 57l-12 19l-9 8l-6 2l-8 2l-4 -2l-10 -4l-17 -23l-20 -39l-18 -43l-15 -38l-14 -43l-21 -64l-24 -61l-17 -52l-12 -20l-4 -14l-33 -19l-14 -10l-27 2l-10 2l-18 25 l-9 12l-10 14l-12 23l-6 28l-117 486l-49 170l-12 16l-11 21l-14 18l-8 6l-10 8l-11 2l-8 3h-6l-10 -3l-8 -2l-11 -4h-4z" />
<glyph unicode="&#x1956;" horiz-adv-x="1429" d="M-72 584v10l4 20l2 23l11 35l20 63l33 51l37 52l41 32l45 33l35 17l28 10h17l14 -2l10 -8l17 -11l16 -18l8 -12l13 -19l16 -18l10 -17l4 -8h4h4v21l5 20l2 16l4 19l8 27l6 49l12 43l6 30l11 35l12 45l8 21l4 18l11 19l10 16l18 25l23 18l26 16l29 13l18 4h19 q35 -4 61 -53l43 -101l29 -82l35 -100l18 -51l8 -29l5 -12l4 -13h2h4l10 17l4 14l12 29l11 22l14 25l18 47l19 49l6 23l12 22l10 25l17 22l16 27l25 33l12 16l19 15l14 4l16 2l23 2q41 -6 74 -45l40 -86l37 -88l39 -103l56 -227l28 -119l13 -57l6 -29l4 -14l2 -19l-2 -12 l-4 -12l-6 -29l-11 -57q-23 -47 -57 -70l-35 -14l-16 -8l-17 -9l-16 -4h-18l-17 2l-10 2l-8 13l-6 14l-11 25l-6 24l-8 29l-16 53l-15 61l-28 117l-29 119l-51 166l-15 41l-6 16l-4 13l-2 10l-4 8l-8 2h-2l-6 -2l-9 -6l-10 -25l-20 -45l-17 -47l-16 -53l-16 -60l-2 -24 l-7 -25l-4 -22l-4 -19l-6 -18l-6 -17l-16 -32q-31 -63 -62 -90l-10 -9l-14 -6h-11l-10 6l-12 7l-11 6l-12 6h-10q-12 -10 -21 -51l-26 -105l-8 -49l-11 -27l-4 -28l-12 -29l-10 -27l-21 -51l-20 -33l-10 -16l-19 -14l-16 -13l-25 -12l-24 -8l-15 -8h-18l-17 10l-20 18 l-23 17l-18 18l-16 17l-15 20l-24 37l-82 176l-70 191l-14 28l-12 19l-11 12l-8 8l-6 8h-8l-12 4h-21h-14l-8 5zM346 725l6 -10l2 -15l8 -20l17 -43l16 -43l17 -49l14 -62l12 -63l13 -66l8 -32l4 -17l4 -16l4 -2l4 2l4 8l8 12l2 13l15 30l12 43l14 39l9 19l4 16l4 14v25 l-4 22l-4 15l-11 18l-53 137l-26 68l-15 37l-4 14l-10 19q-23 41 -39 30l-4 -6l-4 -6l-4 -12l-4 -17l-5 -18l-2 -16l-4 -15v-10l-2 -16l-6 -17v-10z" />
<glyph unicode="&#x1957;" horiz-adv-x="1513" d="M-33 709v16l6 18l7 9l34 73l52 72l38 39l48 41l34 12l39 -10l64 -51l10 -13l16 3l15 18l10 18l70 164l39 60l49 47l32 12l43 -16l58 -35l53 -53l37 -72l63 -176l21 -45l12 -13l12 -2q25 16 37 66l60 166l43 61l26 23l27 14h31l32 -14l60 -41l61 -99l62 -147l30 -72 l37 -110l15 -90q-4 -39 -19 -93l-41 -65l-55 -41l-25 -29l-10 -12l-16 -14l-23 -95l-16 -98l-29 -80l-41 -61l-45 -25l-24 -14l-31 -10l-27 2l-53 47l-51 55l-82 129l-70 172l-18 23l-19 -4l-16 -23l-49 -170l-33 -76l-49 -61l-66 -25l-63 19l-53 51l-43 72l-177 401l-40 70 l-56 47q-39 0 -43 35zM346 807l4 -37l105 -391l32 -72l13 -14l16 2l8 6l11 23l45 161l4 72l-9 37l-131 299q-18 75 -55 20l-37 -63zM881 662l14 -105l82 -235l35 -64l16 -25l27 17l30 65l15 86v70l-31 111l-94 206q-24 47 -49 29l-33 -63z" />
<glyph unicode="&#x1958;" horiz-adv-x="1306" d="M-2 43v20l2 29l2 35l6 31l4 32l13 48l14 49l35 88l88 133l55 39l70 12l63 -10l86 -51l47 -33l41 -14l37 -5l123 50l27 22l28 29l23 28l12 19l8 20l6 11l5 16l-5 18l-36 123l-41 121l-39 123l-21 64v84l15 63l34 86l48 70q22 23 53 39l33 4l32 -15l29 -32l31 -46l28 -75 l172 -918l11 -112v-99l2 -51v-47l-4 -25l-11 -16l-14 -14l-10 -15l-27 -24l-31 -21l-12 -8l-14 -2l-12 4l-17 10l-12 13l-19 12l-8 18l-10 19l-16 39l-25 92l-51 305q-8 49 -31 100l-4 15l-6 12l-2 4h-4l-4 -10l-9 -10l-211 -267l-55 -49l-24 -22l-27 -21l-31 -14l-30 -12 l-31 -13l-31 -8l-41 -4l-37 4l-28 8l-31 9h-43l-21 -3l-24 -6l-27 -18l-22 -29l-15 -14q-8 -16 -16 -39l-16 -31l-9 -4h-12l-4 25z" />
<glyph unicode="&#x1959;" horiz-adv-x="1042" d="M-23 1012l5 12l4 12l47 35l55 27l57 12h60l69 -23l62 -49l35 -65l30 -74l19 -88l16 -96l27 -377q4 -61 31 -68l36 15l103 116l18 29l4 21v24l-8 117l-67 450l-13 60l6 41l21 28l20 29l48 41l28 14l29 -4l31 -12l24 -37l39 -65l23 -80l75 -549l-2 -55l-8 -50l-14 -45 l-19 -39l-22 -24l-21 -19l-30 -8l-29 -2l-61 -6l-48 -24q-25 -18 -43 -62l-36 -65l-43 -50l-52 -30l-51 -33l-65 -8l-62 18l-51 53l-41 66l-31 74l-37 166l-39 272l-38 164l-31 73l-43 62l-8 18l-6 25z" />
<glyph unicode="&#x195a;" horiz-adv-x="1583" d="M12 621l31 86l31 69l61 88l72 64l49 14l47 -14l41 -41l45 -66l37 -82l98 -415l11 -52l8 -16l18 -6l31 18l39 64l43 71l14 33l12 31l-12 82l-33 176l-47 193l-43 116l-14 23l-21 18l-12 31l-4 39l6 37l10 41l27 57l21 43l38 49l37 33l29 6l25 2l24 -8l19 -23l30 -41 l27 -55l20 -55l31 -84l74 -268l57 -248l64 266l16 49l23 37l30 33l37 18l37 8l37 -6l39 -2l31 -28l30 -50l39 -106l37 -125l31 -127l10 -90l-10 -47l-13 -29l-12 -37l-16 -22l-13 -23l-26 -22l-39 -4l-53 20l-39 35l-10 -62l-13 -49l-18 -53l-31 -76l-61 -88l-41 -26 l-54 -15l-34 -8l-45 6l-39 29l-39 37l-33 55l-41 117l-41 127l-16 71l-37 -125l-19 -65l-20 -55l-27 -64l-28 -53l-31 -45l-37 -27l-53 -8l-55 10l-46 21l-38 22l-58 72l-33 53l-20 51l-21 56l-69 196l-19 41l-34 33l-43 23zM1004 569l6 -71l32 -166l25 -82l23 -37l28 -6 l23 22l22 25l17 27l18 41l12 47l7 22l-29 33l-19 33l-51 219l-16 59l-10 17h-13l-20 -17l-23 -45l-18 -74z" />
<glyph unicode="&#x195b;" horiz-adv-x="1112" d="M-106 915l4 9l10 10l14 14l23 31l24 27l49 47l48 49l51 45l28 24l23 19l33 22l30 17l54 18l24 -4l23 -12l22 -25l37 -69l55 -158q16 -39 21 -92l-4 -105l-2 -108q2 -41 20 -76l140 172l41 68l-3 94l-10 45l-2 22l-6 21l-10 16l-8 21l-15 37l-6 14l2 16l4 17l8 12l23 33 l20 31l25 22l27 25l24 16l29 12l24 8l31 -4l19 -14l24 -27l29 -63l27 -98l30 -154l21 -117l4 -106l-8 -221q-12 -49 -45 -80l-29 -39l-17 -23l-12 -18l-14 -19l-14 -16l-17 -6l-20 -10l-17 14l-10 16l-6 23l-31 117l-35 -103l-108 -246l-98 -96l-27 -10l-31 -2l-61 12 l-54 43l-40 39l-33 41l-13 47l-124 631l-13 39l-14 41q-16 37 -53 43l-125 -27h-4l-4 4zM485 244q8 -37 35 -58l47 31l37 57l101 199l12 39v45l-12 84q-7 37 -19 72l-41 -56l-156 -272v-86z" />
<glyph unicode="&#x195c;" horiz-adv-x="1693" d="M-49 516l4 8l20 35l15 23l18 24l45 51l25 25l18 16l17 15l30 20l33 19l17 6h22l16 -6l19 -9l35 -18l26 -20l29 -31l29 -37l18 -43l12 -35l11 -22q10 -43 12 -78l16 -64l19 -61l6 -31l16 -41l10 -18l11 -8l24 6l21 14l20 20l23 17l14 18l10 23l23 37l14 45l21 49l8 49 l10 55v-114l-10 -88l-4 -48l-8 -38l-17 -37l-12 -33l-31 -57l-37 -52l-43 -43l-53 -39l-29 -10l-24 6l-23 13l-20 10l-125 94l-47 74l-121 239l-6 15l-10 14l-15 10l-8 11l-14 10h-23l-20 2h-25l-8 4zM424 1251l2 13l12 20l23 43l10 25l23 22l24 27l39 8h45l27 -4l20 -8 l35 -25l21 -14l14 -23l14 -24l15 -23l18 -39l41 -100l72 -205l43 -113l22 -55l12 -33l7 -14l6 -10l6 2v12l2 10l14 99l4 45l13 47l6 27l10 22l27 49l24 41l17 17l14 18l20 10l19 8l18 9h19l20 -5l21 -6l20 -6l23 -12l10 -10l10 -6l14 -17l15 -18l16 -21l10 -39l15 -41 l20 -86l47 -172l54 -221l24 -121l4 -100v-117l-20 -166l-49 -221l-25 -90q-23 -94 -364 -602l94 258l94 250l55 229l21 189v104l-13 90l-32 111l-17 57l-10 29l-16 55l-4 16l-9 -38l-6 -37l-8 -62l-8 -28l-6 -31l-8 -25l-11 -22l-12 -25l-21 -33l-24 -24l-31 -29l-24 -22 l-19 -11l-18 -10h-23l-24 10l-23 15l-22 14l-35 41l-25 39l-92 186l-65 221l-41 97l-35 112l-72 179l-31 92l-18 49l-19 37l-14 28l-14 25l-19 23l-4 14l-10 10zM1010 569l4 -22l10 -64l14 -67l17 -47l6 -27l2 -10l8 -6l12 8l4 8l7 8l36 99l15 51l8 24l10 23l6 28l2 17v20 l-12 31l-10 39l-12 37l-7 39l-26 61q-20 58 -43 35l-6 -18l-8 -17l-13 -31l-14 -77l-6 -39v-43l-4 -41v-19z" />
<glyph unicode="&#x195d;" horiz-adv-x="1046" d="M-98 889l53 74l45 51l63 63l72 58l70 43h33l22 -21l45 -53l88 -182l84 110l29 72l-2 -2l37 69q41 60 88 70l43 -4l41 -18l41 -45l22 -29l17 -29l14 -35l10 -37l21 -75l32 -172l33 -301l-10 -121l-25 -68l-53 -61l-98 -31l-8 -8l-11 -6l-12 2l-10 6l-55 209l-70 -146 l-16 -53l-15 -67l-18 -60l-31 -53l-27 -25l-36 -14l-43 6l-17 6l-51 29l-45 57l-35 66l-35 67l-20 74l-15 76l-12 90l-51 332l-39 55l-51 33zM408 772l6 -41l6 -22l2 -25l4 -39v-33v-73l4 -101l6 -63l8 -58l13 -26l10 -8l18 4q31 27 58 63l43 78l30 100l-8 103l-35 198 l-24 91q-12 42 -43 67l-49 -72l-41 -86l-6 -24z" />
<glyph unicode="&#x195e;" horiz-adv-x="1673" d="M-35 776q2 43 23 84l41 49l59 35l137 19l51 -48l37 56l64 147l88 111q20 21 55 41l68 -13l55 -34q57 -84 80 -123l53 -156l86 -254l15 -31l22 25l31 68l35 86l28 55l37 51l31 35l24 22l23 15l37 14l26 8l33 -4l21 -6l20 -12l23 -15l35 -22l34 -23l21 -24l16 -31l15 -49 l12 -41l18 -37l15 -37l18 -43l6 -41l8 -43l2 -22v-25l-2 -18l-4 -25l-4 -33l-18 -34l-10 -19l-15 -12l-22 -12l-27 -15l-63 -12l-13 -12l-14 -2l-10 10l-11 16l-6 25l-4 26v27l-2 12l-4 19l-14 35l-15 39l-120 188q-20 29 -50 35l-24 -25l-27 -31l-31 -63l-30 -82l-15 -55 l43 -221l19 -154l14 -213l-28 -152q-35 -190 -111 -301l10 144l10 166l-30 174l-56 200l-88 248l-59 180l-74 189l-24 63l-15 33l-12 33l-16 22l-13 11l-8 10l-18 14l-21 15l-18 4h-15l-12 -4l-39 -64l-18 -35l-8 -18l-9 -21v-20q0 -16 17 -68l43 -102l16 -62l21 -61l10 -51 l6 -51l14 -84l5 -17l12 -16h6h8l19 10l8 6l10 8l16 19l13 14l6 19l14 34l17 56l36 108l-26 -190l-15 -66l-6 -32l-6 -29l-18 -35l-15 -27l-16 -28l-14 -21l-17 -14l-12 -10l-25 -8l-36 -13l-35 2l-21 13l-18 14l-37 31l-37 32l-35 35l-18 35l-17 43l-14 41l-12 39l-60 158 l-75 137l-56 35z" />
<glyph unicode="&#x195f;" horiz-adv-x="1712" d="M0 713l12 49l8 20l5 25l8 22l10 25l18 39l21 39l20 43l27 47l16 20l19 23l18 12l17 13l14 4l18 2l21 -11l22 -16l25 -27l63 -69l27 12l37 43l117 184l14 23l21 20l30 25l23 18l18 13h27l49 -25l59 -59l97 -123l120 -211l201 297l41 16l53 -6l43 -31l70 -79l100 -224 l7 -84l2 -41v-34l-15 -29l-14 -27l-33 -45l-35 -24l-26 -19l-17 -8h-16l-16 10l-17 17l-16 24l-45 119l-45 74l-23 37l-10 18l-10 20l-15 19l-12 18h-16l-13 -6l-14 -8l-16 -14l-19 -15l-16 -18l-8 -27l-4 -14l-3 -14l11 -31l12 -29l16 -51l11 -51l26 -103l25 -120l8 -95 l-16 -168l-70 -221l-94 -174l-191 -332l136 422l36 187l17 168l-10 108l-7 43l-10 41l-8 39l-14 78l-29 82l-49 94l-56 106l-63 99l-63 94l-60 66l-6 12l-10 10l-13 6l-10 2l-14 -4l-12 -6l-11 -6l-12 -10l-14 -27l-15 -25l-12 -24l-12 -29l-10 -24l-5 -27l-8 -27l-8 -22 l-14 -25l-17 -22l-12 -21l-14 -16l-21 -14l-20 -13l-27 -6l-20 -4l-27 -2h-25l-16 6l-16 10l-33 23l-37 18l-16 8l-13 5h-16l-10 -7l-10 -6l-11 -10l-8 -8l-6 -12l-8 -15l-8 -6l-13 -6z" />
<glyph unicode="&#x1960;" horiz-adv-x="1460" d="M-16 774l16 37l14 31l39 61l31 41l18 21l15 20l20 21l23 22l14 16l27 23l26 12l17 8l24 9l25 2l22 -2l23 -6l22 -11l46 -12l34 -20l27 -17l14 -6l11 -2l6 2l8 4l20 16l27 25l27 31l32 33l31 34l14 17l23 18l22 19l23 14l29 6l30 2l31 -2h31l31 -6l26 -8l35 -15l18 -10 l21 -18l16 -23l19 -28l16 -27l14 -27l11 -32l10 -33l20 -72l35 -139l72 -277l27 -75l16 -76l6 -47l2 -41l-8 -51l-10 -48l-9 -24l-10 -29l-12 -24l-31 -52l-31 -43l-43 -51l-38 -49l-84 -98l-95 -97l-88 -67l-102 -82l-102 -66l-121 -38l-131 -37l-99 -19l148 105l141 88 l96 84l76 92l57 74l82 127l70 108l18 33l13 33l6 24l4 39l4 33l-2 20l-2 23l-16 47l-4 12l-3 8l-4 9l-4 4l-6 -6l-4 -7l-10 -10l-10 -14l-11 -16l-8 -17l-12 -20l-12 -17l-15 -16l-14 -21l-19 -28l-14 -29l-8 -10l-12 -17l-17 -12l-20 -18l-13 -23l-14 -28l-12 -27l-8 -10 l-6 -6l-15 -7l-14 2l-33 5l-29 8l-26 12l-29 14l-18 21l-9 16l-4 17l-12 26l-20 62l-23 57l-8 33l-10 35l-2 18v18v19l2 14l4 21l8 16l10 16l12 21l13 18l24 13l21 6l41 8l39 12l20 4l21 9l12 10l8 8l21 23l20 26l19 17l16 12l20 10l35 25l39 22l16 12l19 13l10 14l6 12 l11 21l4 12v21l-2 14l-5 31l-8 20l-8 27l-12 45l-29 90l-12 25l-17 24l-16 25l-12 14l-10 8l-13 12l-12 9l-2 2l-6 -2l-12 -11l-21 -16l-22 -18l-23 -19l-18 -14l-7 -6l-10 -8l-6 -13l-10 -12l-8 -14l-7 -17l-4 -20l-2 -39l-4 -29l-4 -31l-6 -20l-6 -18l-6 -17l-9 -14 l-12 -15l-16 -20l-21 -12l-20 -13l-23 -10l-24 -10l-17 -6l-24 -4l-21 2l-24 2l-31 8l-31 12l-26 21l-25 16l-33 19l-30 14l-19 4l-18 4l-21 2l-16 -2l-10 -2l-15 -4l-24 -12zM664 434l2 -8l10 -8l8 -10l6 -11l6 -14l9 -21l4 -14l6 -12v-4l4 -2h4l6 4l21 18l36 31l33 27 l37 28l14 17l7 14l4 14l-2 21l-5 20q-45 66 -59 62l-18 -13l-19 -16l-16 -12l-21 -15l-18 -22l-21 -23l-22 -24l-10 -12l-4 -5z" />
<glyph unicode="&#x1961;" horiz-adv-x="1593" d="M-35 643l10 25l5 18l10 21l20 45l17 30l20 33l39 55l39 56l39 53l20 29l23 24l20 23l27 18l27 19l26 14l33 2l16 2l25 -4l22 -6l15 -6l16 -7l10 -14l13 -14l10 -17l8 -12l14 -35l7 -16l6 -27l4 -30l2 -21l2 -6l4 -10l4 -4l8 -2l11 6l12 10l18 12l17 19l22 26l23 23l22 26 l27 23l31 33l20 14l23 8l16 8l18 7l19 6l16 2l21 -2l22 -10l21 -17l22 -33l17 -41l39 -92l69 -202l31 -95l31 -98l12 -43l6 -14l2 -15l10 4l6 5l15 12l10 8l8 10l21 33l10 12l4 21l4 14l-2 21v34l-92 277l-47 141l-10 33l-11 33l-8 20l-12 15l-10 12l-6 8v12l4 11l8 12 l16 22l19 23l16 18l33 27q36 29 59 37h15l20 -2l27 -17l20 -24l12 -33l21 -65l90 -248l74 -236l14 -59l10 -58l6 -49l5 -43l-11 -73l-4 -37l-8 -33l-8 -45l-12 -43l-31 -76l-17 -41l-14 -33l-20 -43l-17 -41l-20 -41l-11 -20l-10 -14l-10 -23l-12 -16l-21 -35l-24 -35 l-13 -16l-24 -29l-21 -27l-32 -34l-35 -35l-19 -21l-20 -22l-27 -23l-31 -33l-30 -26l-21 -17l-26 -16l-35 -14l-53 -17l-82 -16l73 57l35 27l17 16l10 6l12 13l10 14l13 16l22 29l19 29l20 31l19 34l24 37l19 33l24 45l14 25l21 39l18 38l17 35l14 31l12 33l15 35l12 32 l20 66l13 37l14 39l6 39l8 34v17q-8 90 -34 108l-15 -37l-12 -26l-18 -33l-11 -14l-24 -29l-35 -35l-21 -16l-20 -17l-29 -12l-18 -8h-23l-20 8l-29 19l-18 16l-25 27l-14 26l-17 29l-30 61l-17 49l-14 54l-35 100l-53 176l-12 31l-15 31l-8 16l-4 2l-8 6h-8l-15 -6l-10 -6 l-20 -21l-13 -10l-14 -12l-31 -39l-65 -78l-33 -45l-14 -10l-15 -19l-22 -16l-13 -4l-24 -8l-25 4l-35 4l-26 8l-27 12l-22 19l-27 18l-53 41l-27 13l-10 8h-8l-15 -4l-12 -9l-26 -20l-31 -25l-31 -24z" />
<glyph unicode="&#x1962;" horiz-adv-x="1374" d="M-6 692l4 25l2 18l16 53l37 142l31 117l31 96l32 80l25 49l45 51l35 43l35 -8l30 -68l15 -61l18 -72l35 -72l64 -151l57 -156l29 -100l10 -33l18 -27l6 -12l6 -8h5l2 4l10 16l4 13l4 10l6 16l2 15l8 33l7 30l8 33l14 66l8 30l9 29l8 29l8 20l14 47l25 68l41 94l41 49 l45 35l28 10h33l39 -8l37 -10l43 -45l43 -84l39 -90l43 -152l49 -207l78 -387l4 -72l-4 -61l-19 -57l-30 -37l-27 -27l-29 -16l-34 -19l-31 -14l-39 14l-23 76l-24 105l-86 370l-39 156l-41 123l-20 49l-21 57l-14 17l-11 14l-14 8l-8 4l-8 2l-4 -2l-9 -4l-6 -10l-10 -14 l-10 -19l-8 -20l-6 -17l-7 -18l-6 -25l-4 -24l-4 -33l-4 -31l-2 -24l-27 -185l-12 -84l-6 -45l-6 -41l-6 -45l-13 -53l-10 -47l-6 -27l-8 -24l-9 -29l-12 -29l-24 -34l-11 -13l-18 -16l-23 -16l-28 -17l-23 -8h-20l-27 2l-27 18l-24 25l-19 18l-16 21l-12 20l-10 27l-11 29 l-12 24l-8 31l-8 33l-17 63l-30 127l-33 127l-17 62l-8 30l-8 25l-6 16l-6 9l-6 10l-7 6l-6 2l-8 -6l-8 -12l-8 -7l-6 -8l-17 -16l-10 -10l-12 -11l-13 -4h-8l-6 4l-2 11l-2 10z" />
<glyph unicode="&#x1963;" horiz-adv-x="591" d="M-186 1874l36 55l23 56l12 40l2 39l4 29l-2 23q18 114 168 149h25l29 -4l22 -8l25 -12l22 -15l15 -12l12 -16l24 -33l35 -72l49 -147l52 -234l39 -211l18 -305l4 -174l-2 -172l-12 -291l-17 -174l-41 -219l-45 -139l-22 -19l-25 -8l-24 -2l-19 4l-18 10l-15 11l-8 16 l2 18l4 23l4 20l3 23l14 113l-2 104v324l-8 229l-9 182l-12 211l-20 215l-35 197l-53 137l-41 84l-11 14l-8 13l-6 2l-6 2l-10 -4l-21 -17l-18 -10l-17 -10l-24 -11l-31 -10z" />
<glyph unicode="&#x1964;" horiz-adv-x="1366" d="M8 1896l12 66l58 84l53 59l45 56l47 41l33 34l14 21l21 16l39 17l30 12l33 4l25 -2l28 -2l58 -4l47 -23l61 -45l25 -43l31 -63l37 -70l34 -63l144 -453l141 -471l6 -4q35 4 70 22l65 25l-116 -111l18 -86l55 -247l41 -228l4 -102l-2 -23l-4 -22l-4 -23l-6 -26l-10 -21 l-13 -18l-24 -37l-23 -23l-14 -16l-35 -29l-35 -20l-28 -21l-41 -26l-21 -11l-33 -12l-36 -6l-50 -2l-102 10l-108 35l-84 57l-29 21l-25 20l-18 21l-23 35l-22 34q-8 -45 -19 -69l-6 -25l-6 -12l-10 -12l-21 -9l-47 -16l-35 -14l-14 -6l-16 -2l-13 8l-12 14l-4 10l-2 11 l6 10l17 24l14 27l12 33l8 37l4 37l15 73l26 127l29 221l12 127v152l-26 162l-35 121l-72 237l-112 270l-23 41l-22 41zM125 1911l2 -19l4 -14l12 -31l52 -143l79 -191l84 -221l43 -133l41 -131l23 -98l8 -109l4 -92v-117l2 -71l-2 -60l19 27l22 33l31 43l33 49l32 43l35 49 l17 27l8 14l6 6l2 6l41 78l-158 563l-71 185l-125 280l-29 39l-16 21l-25 28q-35 33 -70 37l-10 -2l-10 -6l-6 -4l-23 -15l-35 -43l-10 -12l-8 -10zM526 313l4 -10l5 -16l4 -11l8 -14l10 -14l8 -12l27 -27l22 -21l33 -18l33 -14l25 -6l20 4l14 8l21 4l24 6l27 18l27 19 l30 29l19 41l18 73l-8 33l-14 33l-29 96l-57 129q-33 136 -105 23l-10 -17l-8 -14l-21 -37l-18 -33l-21 -35l-43 -67l-12 -23l-16 -26l-6 -21l-2 -22l-3 -23l-2 -22z" />
<glyph unicode="&#x1965;" horiz-adv-x="1325" d="M2 2021v9l14 10l17 6l14 4l19 2l20 -2l18 -8l21 -6l8 -2l10 -6l11 12l10 12l10 12l14 13l29 20l29 19l30 22l25 19l29 28l24 23q113 68 138 80l22 6l25 2l24 -2l21 -6l61 -43l33 -23l37 -29l22 -43l33 -51l14 -108l70 -224l55 -229l207 -874l66 -459l-11 -115l-45 -80 l-55 -24l-57 -31l-45 -16l-39 6l-58 37q-39 14 -61 49l-2 71l-115 748l-110 512l-105 387l-59 133l-31 25l-12 12l-8 2l-7 4l-8 -2l-10 -2l-14 -8l-17 -8l-24 -17l-21 -20l-12 -17l-2 -4l-8 -10v-12l4 -15l6 -26l10 -53l154 -521l41 -139l35 -164l32 -139l29 -182l23 -166 v-117l-37 -110l-45 -101l-39 -45l-21 -20l-14 -17l-41 -16l-39 -12l-25 -11l-22 -10h-12h-17l-8 10l-6 13l-8 16l-6 6v10l4 13l2 14l12 33l43 90l35 119l8 145l-20 217l-37 268l-62 312l-137 520l-47 141l-21 72l-10 33l-6 18z" />
<glyph unicode="&#x1966;" horiz-adv-x="907" d="M0 1690l39 102l65 74l76 53l72 51l90 33l66 -6l98 -33l65 -72l31 -98l100 -551l74 -461l41 -315l4 -205l6 -59l2 -31l-6 -41l-10 -41l-90 -184l-70 -103l-82 -114l-129 -92l-223 -99l193 207l75 127l29 117l14 114l15 64l4 66l-2 61l-12 96l-33 289l-37 211l-51 283 l-82 407l-31 100l-16 50l-9 24l-10 23l-14 10l-16 10l-31 8h-12l-11 -6l-22 -14l-17 -8l-14 -13l-8 -22l-6 -19v-26l18 -203l31 -164l55 -334l35 -208l10 -170l23 -220l26 -147l-6 -70q-53 -72 -96 -86l-96 -18l-37 10l33 47l22 103l4 235l-24 340l-56 410l-49 387z" />
<glyph unicode="&#x1967;" horiz-adv-x="907" d="M8 -434l2 8l8 8l11 8l28 21l31 20l27 17l35 14l20 6h23l24 -4l27 -10l35 -25l36 -32l21 -29l16 -31l37 -55l10 -14l17 -13l10 -4l8 2l23 17l32 24l35 27l31 24l53 47l47 56l-37 43l-47 73l-47 125l-245 1008l-35 111l-21 55l-4 16l-16 33l-23 31l-26 22l-17 13l-8 8 l-2 10l2 8l6 10l8 15l11 8l20 12l25 13l96 47l33 14l24 4l21 2l30 -2l21 -4l14 -8l15 -15l4 -12l16 -28l43 -138l39 -190l23 -119l174 -784l28 -144l13 -28l8 -11l18 17l96 143l52 51l-29 -57l31 8l-140 -209l21 -63l45 -47l43 -47l137 -68l86 -23l119 -12l213 27l129 55 l180 113l152 153l127 174l53 125l-63 -180l-78 -135l-92 -111l-211 -178l-103 -59l-49 -27l-25 -12l-22 -10l-29 -9l-24 -4l-54 -8l-53 -8l-51 -8h-82l-74 6l-45 4l-47 4l-67 10l-45 21l-29 18l-62 37l-30 19l-31 20l-61 37l-21 -33l-37 -47l-84 -84l-51 -49l-43 -41 l-43 -37l-18 -6l-19 -8l-33 -4h-34l-37 10l-37 10l-62 39l-38 37l-39 37l-39 39l-21 18l-20 23l-15 24l-8 15v10z" />
<glyph unicode="&#x1968;" horiz-adv-x="696" d="M0 1147v8l4 8l8 6l8 5l23 10l45 22q88 48 139 66l35 -4l31 -6l16 -15l17 -18l32 -101l23 -106l27 -236l106 -731l18 -123l27 -163l57 -150l58 -76l76 -63l100 -43l117 -12l157 8l136 55l161 113l150 151l121 172l49 113l-23 -72l-63 -155l-64 -99l-207 -229l-165 -113 l-95 -35l-110 -20l-121 -2l-84 6l-76 20l-155 89l-76 65l-66 80l-49 76l-43 114l-27 129l-22 136l-51 266l-99 532l-28 113l-17 53l-8 29l-16 37l-25 24l-18 21l-19 16l-8 17z" />
<glyph unicode="&#x1969;" horiz-adv-x="1144" d="M18 1167l7 17l12 12l22 14l78 25l82 22l53 3h37l35 -7l35 -16l35 -23l45 -77l76 -172l36 -193l4 -96l15 -133l-4 -84l10 -156l12 -158l-8 -223l6 -250l88 -184l15 -14l20 -15l12 -4l21 -2l10 6l16 11l33 24l47 60l27 30l25 45l10 31l8 47l-197 928l-153 913l151 -352 l117 -362l57 -271l111 -612l20 -88l15 -62l6 -26v-47l-8 -50l-8 -32l-11 -29l-22 -49l-19 -39l-55 -80l-49 -53l-25 -29l-24 -22l-33 -19l-31 -12l-67 -16l-39 -7l-45 7l-41 12l-31 12l-31 21l-30 16l-19 10l-16 19l-10 18l-13 35l-30 65l-175 1059l-14 154l-92 350l-14 12 l-13 15l-14 14l-12 10l-31 23l-16 10z" />
<glyph unicode="&#x196a;" horiz-adv-x="1044" d="M-12 1829l2 8l2 8l6 13l8 8l8 6l15 8l10 2l24 8l117 64l64 26l147 31l82 8l14 2h15l16 -2l12 -10l31 -18l29 -17l22 -14l13 -18l4 -15l6 -26l14 -56l23 -159l12 -134l172 -1402l23 -191l18 -86l6 -43l23 -70l22 -67l31 -41l31 -43l24 -21l23 -16l69 -29l68 -26l156 2 l192 45l109 67l141 140l104 186l70 197l-27 -156l-59 -150l-113 -172l-96 -116l-90 -68l-98 -67l-146 -74l-188 -37l-92 12l-66 17l-67 14l-109 35l-74 53l-69 88l-76 152l-37 170l-35 208l-41 322l-28 186l-156 -14l-55 -37l-123 -90l-25 -20l-16 -7l-12 -6l-17 4l-20 9 l-15 12l-4 6v8l2 8l6 7l9 4l6 2l8 2h6l19 24l8 13l10 14l2 8l6 14l8 43l4 74l-34 463l-15 164zM141 1817l15 -105l41 -332l18 -149l4 -391l23 -135l10 -19l129 10l37 45l-31 406l-33 246l-41 438l-10 6l-10 4l-14 6l-17 4l-14 4l-74 -14l-16 -10l-11 -4z" />
<glyph unicode="&#x196b;" horiz-adv-x="1034" d="M35 1665l2 27l-2 16l2 12l12 15l12 14l134 78l108 59l84 17l47 6l33 6l35 4l18 -2l23 -2l14 -8l18 -9l33 -18l51 -53l99 -543l61 -313l70 -375l63 -358l31 -134l12 -86l25 -108l33 -111l45 -63l51 -39l51 -41l74 -31l43 -14l43 -8l43 2l43 4l166 31l100 57l162 125l45 74 l96 221l8 -21l-30 -88l-70 -196l-104 -150l-140 -121l-161 -86l-123 -28l-64 -15l-57 -8h-72l-143 14l-84 33l-66 53l-84 60l-67 80l-66 118l-39 117l-43 191l-47 227l-65 340l-74 483l-94 457l-23 43l-12 20l-14 13l-13 2h-6h-12l-14 -8l-13 -7l-6 -10v-10v-68l156 -1167 l-8 -10l-11 -8l-8 -11l-12 -6h-8l-72 -18l-25 10l-22 6l-19 8l-14 15l-6 12l4 10l4 15l14 22v96l-18 170z" />
<glyph unicode="&#x196c;" horiz-adv-x="393" d="M-4 1325l16 119l31 106l80 127l100 107l76 61l121 76l143 57l92 29l99 10l129 -26l108 -47l111 -99l84 -125l16 -59l-4 -53l-27 -54l-24 -53l-107 -180l-106 -170l-37 -49l8 31l8 41l13 61l22 123l8 49l9 47l8 37l6 33l4 26l2 27v22l-2 19l-4 14l-6 15l-12 22l-21 27 l-31 37l-88 75l-110 37l-105 -2l-117 -45l-127 -74l-65 -77l-43 -70l-37 -104l-6 -101l4 -119l-20 -202l24 -633l17 -146l-13 -82l2 -55l-14 -53l-23 -35l-18 -43l-31 -6l-26 12l-31 37l-33 154l-10 172l-39 876z" />
<glyph unicode="&#x196d;" horiz-adv-x="1701" d="M-31 799l43 73l64 115l45 70l49 41l68 16l69 4l66 -14l24 -17l27 -18l37 -45l20 -25l19 -22l22 -4l17 2l18 6l57 68l33 32l15 17l18 22l14 21l15 22l32 51l23 35l45 19l43 2l43 -15l53 -36l49 -84l52 -101l47 -121l20 -63l8 -51l11 -49l34 -203l39 -55h95l65 36l23 70 l4 74l-31 159l-31 162l-47 107l-33 43l-43 26l-4 39v45l23 33l39 23l45 -6l55 -25l25 -49l43 -103l69 -274l39 -270l4 -109l-12 -67l-31 -41l-45 -35l-76 -45l-102 10l-78 18l-28 -14l-9 -82l-20 -84l-35 -113l-78 -161l-82 -121l-143 -156l-272 -194l65 86l150 176l94 153 l51 150l35 176l16 102l8 125l-6 103l-22 131l-37 141l-45 133l-47 107l-35 63l-16 8l-5 5l-10 2l-12 -5l-12 -2l-43 -36l-45 -56l-21 -26l-22 -31l-11 -27l-10 -30l-10 -29l-10 -29l-17 -30l-18 -33l-19 -19l-20 -18l-31 -10l-33 -2l-39 -4l-34 4l-25 8l-43 26l-80 45 l-41 23l-20 10l-19 13l-16 8l-16 -2l-13 2l-33 -19l-18 -6l-6 -6l-10 2l-9 6l-6 8z" />
<glyph unicode="&#x1970;" horiz-adv-x="1888" d="M0 43l6 10l8 6l25 11l96 110l84 94l72 103l74 141l20 78l10 78l-8 71l-2 37l-6 23l-14 29l-21 14l-45 -21l-47 -20l-57 -8l-54 20l-39 35l-30 74l-9 90l5 72l26 63l27 45l43 29l37 6l49 -10l49 -29l39 -33l31 -37l26 -47l23 -43l24 2l33 13l109 98l45 33l33 24l38 29 l43 10l29 -4l27 -6l16 -16l10 -29l47 -178l52 -324l26 -119l23 -108l24 -72l29 -39l49 12l86 50l107 100l43 41l84 113l20 51l19 12l2 -29l-39 -127l-119 -239l-66 -82l-71 -57l-80 -62l-84 -25l-86 -6l-55 13l-88 51l-68 69l-29 46l-37 98l-24 127l-19 112l-6 242l-10 64 l-10 24h-21l-35 -35l-24 -41l16 -133l2 -59l-10 -92l-20 -94l-78 -170l-82 -119l-98 -105l-123 -80l-19 -6l-14 2l-16 4l-17 11zM227 1034l25 -14l18 -2l17 24q8 35 -35 43l-21 -22z" />
<glyph unicode="&#x1971;" horiz-adv-x="1705" d="M6 635v94l8 84l23 76l55 86l60 69l79 58l70 41l57 18l62 10l74 3l94 -9l78 -28l53 -43l37 -56l22 -69l10 -84l-2 -82l-10 -82l-39 -100l-63 -101l-103 -92l-116 -63l32 -60l62 -37l217 -63l94 -8l148 16l71 27l92 59l156 131l-188 -227l-142 -109l-155 -63l-97 -21 l-114 -18l-90 4l-97 14l-100 27l-84 49l-63 53l-72 66h-21l-57 -31l-39 19l15 24l69 64l-57 190zM344 639l10 -72l19 -57l69 82l50 92l26 78l14 63l-2 45l-4 43l-37 19l-61 -19l-37 -36q-33 -47 -39 -109l-6 -72z" />
<glyph unicode="&#x1972;" horiz-adv-x="1789" d="M8 586v88l12 104l19 92l31 72l41 62l77 71l76 41l58 23l67 8l94 -6l29 2l33 10l28 25l72 73l64 33l45 -10l30 -31l7 -63l-9 -41l-6 -39l-4 -64l4 -71l4 -68l17 -86l24 -98l45 -156l39 -106l51 -91l56 -36l67 -5l117 66l227 168l-211 -291l-104 -123l-64 -51l-112 -35 l-86 6l-60 17l-59 39l-47 75l-27 -20l-26 -20l-144 -97l-104 -37l-62 2l-73 21l-56 47l-51 61l-53 101l-43 102l-25 119zM213 621l12 -93l31 -116l20 -50l23 -49l35 -26l47 -19h61l43 4l74 29l41 45l-37 219l-35 215l-8 131q-8 60 -61 60l-103 -33l-67 -59l-56 -78l-20 -109 v-71z" />
<glyph unicode="&#x1973;" horiz-adv-x="1705" d="M-39 885v8l4 12l4 8l43 33l78 47l55 37l74 43l43 17l55 4l58 -15l69 -45l52 -67l41 -80l143 -547l47 -72l45 -22l55 12l58 39l53 61l-45 72l-59 62l-70 98l-62 119l-22 98l-6 117l2 80l14 86l25 81l45 74l31 21l49 18h49l49 -8l63 -43q51 -33 74 -74l35 -53 q37 -49 59 -154l21 -123v-96l-14 -145l-25 -117l-31 -106l-39 -70l-41 -72l-61 -55l-72 -47l-73 -43l-64 -37l-80 -31l-76 -6l-86 19l-98 51l-55 55l-43 68l-43 84l-64 170l-69 274l-23 82l-27 47l-24 20h-102l-9 3zM858 858l16 -96l19 -70l61 -108l27 -21l31 4l28 51l19 68 v70l-12 63l-13 66l-33 63l-34 51q-18 23 -47 35l-25 -10l-21 -35l-10 -65z" />
<glyph unicode="&#x1974;" horiz-adv-x="1595" d="M6 512v68l10 75l35 107l41 96l53 90l52 68l79 82l66 47l82 20l65 6l58 -16l80 -41l47 -43l41 -53l-10 -33l-58 -22h-65l-66 -19l-55 -24l-45 -33l-41 -56l-33 -55l-45 -78l-16 -88l-31 -123l35 -131l80 -96l172 -27l151 -2h113l112 23l113 68q342 315 -12 -84l-88 -84 l-72 -39l-80 -35l-96 -35l-94 -18l-189 -25l-106 8l-66 27l-65 49l-66 78l-33 51l-22 66l-19 77l-8 72z" />
<glyph unicode="&#x2000;" horiz-adv-x="1153" />
<glyph unicode="&#x2001;" horiz-adv-x="2306" />
<glyph unicode="&#x2002;" horiz-adv-x="1153" />
<glyph unicode="&#x2003;" horiz-adv-x="2306" />
<glyph unicode="&#x2004;" horiz-adv-x="768" />
<glyph unicode="&#x2005;" horiz-adv-x="576" />
<glyph unicode="&#x2006;" horiz-adv-x="384" />
<glyph unicode="&#x2007;" horiz-adv-x="384" />
<glyph unicode="&#x2008;" horiz-adv-x="288" />
<glyph unicode="&#x2009;" horiz-adv-x="461" />
<glyph unicode="&#x200a;" horiz-adv-x="256" />
<glyph unicode="&#x200b;" />
<glyph unicode="&#x200c;" d="M-37 -408v2157h74v-2157h-74z" />
<glyph unicode="&#x200d;" d="M-219 1364l172 170l-172 168l49 47l170 -170l170 170l49 -47l-172 -168l172 -170l-49 -49l-133 135v-1858h-74v1858l-133 -135z" />
<glyph unicode="&#x200e;" d="M-37 -408v1979h338l-135 131l47 47l217 -213l-217 -215l-47 49l135 129h-264v-1907h-74z" />
<glyph unicode="&#x200f;" d="M-430 1536l217 213l47 -47l-135 -131h338v-1979h-74v1907h-264l135 -129l-47 -49z" />
<glyph unicode="&#x2010;" horiz-adv-x="782" d="M94 442v172h592v-172h-592z" />
<glyph unicode="&#x2011;" horiz-adv-x="782" d="M94 442v172h592v-172h-592z" />
<glyph unicode="&#x2012;" horiz-adv-x="1103" d="M90 506v129h924v-129h-924z" />
<glyph unicode="&#x2013;" horiz-adv-x="1138" d="M-4 459v143h1139v-143h-1139z" />
<glyph unicode="&#x2014;" horiz-adv-x="2048" d="M0 459v143h2048v-143h-2048z" />
<glyph unicode="&#x2015;" horiz-adv-x="2048" d="M0 506v129h2048v-129h-2048z" />
<glyph unicode="&#x2018;" horiz-adv-x="454" d="M127 952v146q0 53 5 96t15.5 80t24.5 69.5t35 65.5h121q-45 -66 -70 -131.5t-25 -130.5h89v-195h-195z" />
<glyph unicode="&#x2019;" horiz-adv-x="454" d="M127 952q45 66 69.5 131.5t24.5 128.5h-88v197h195v-145q0 -53 -4.5 -96.5t-14.5 -80t-24.5 -70.5t-34.5 -65h-123z" />
<glyph unicode="&#x201a;" horiz-adv-x="454" d="M127 -262q45 66 69.5 131t24.5 131h-88v195h195v-144q0 -53 -4.5 -96t-14.5 -81t-24.5 -70.5t-34.5 -65.5h-123z" />
<glyph unicode="&#x201c;" horiz-adv-x="681" d="M74 952v146q0 53 5 96t15 80t24.5 69.5t35.5 65.5h120q-45 -66 -69.5 -131.5t-24.5 -130.5h88v-195h-194zM406 952v146q0 53 5 96t14 80t23.5 69.5t34.5 65.5h123q-45 -66 -69.5 -131.5t-24.5 -130.5h88v-195h-194z" />
<glyph unicode="&#x201d;" horiz-adv-x="681" d="M74 952q45 66 69.5 131.5t24.5 130.5h-88v195h194v-145q0 -53 -4 -96.5t-14 -80t-24.5 -70.5t-34.5 -65h-123zM406 952q45 66 69.5 131.5t24.5 130.5h-88v195h194v-145q0 -53 -5 -96.5t-14 -80t-24.5 -70.5t-36.5 -65h-120z" />
<glyph unicode="&#x2022;" horiz-adv-x="716" d="M109 719q0 104 74.5 178t178.5 74t179 -74t75 -178q0 -106 -74.5 -180t-179.5 -74q-104 0 -178.5 74t-74.5 180z" />
<glyph unicode="&#x2026;" horiz-adv-x="2048" d="M236 0v254h213v-254h-213zM918 0v254h212v-254h-212zM1599 0v254h213v-254h-213z" />
<glyph unicode="&#x202f;" horiz-adv-x="461" />
<glyph unicode="&#x2039;" horiz-adv-x="819" d="M158 559v82l469 418v-191l-301 -268l301 -268v-191z" />
<glyph unicode="&#x203a;" horiz-adv-x="681" d="M92 72l264 458l-264 453h150l303 -446l-303 -465h-150z" />
<glyph unicode="&#x205f;" horiz-adv-x="576" />
<glyph unicode="&#x20ac;" horiz-adv-x="1138" d="M14 502l41 129h119q0 8 -1 30.5t-1 47.5q0 27 1 53t1 33h-160l41 127h129q14 123 50 217t98.5 159.5t148.5 98.5t201 33q98 0 171 -25t125 -69t83 -102t45 -126l-186 -14q-12 90 -74 140t-166 50q-68 0 -121 -19.5t-93 -63.5t-64.5 -111.5t-36.5 -167.5h446l-39 -127 h-414q-2 -16 -2 -40v-46v-41.5t2 -36.5h453l-39 -129h-405q10 -80 30.5 -149.5t59.5 -120t96 -78t137 -27.5q98 0 158.5 49t75.5 141l184 -14q-12 -68 -44 -127t-83 -102t-125 -68.5t-170 -25.5q-121 0 -209 38.5t-148.5 108.5t-95 165t-49.5 210h-170z" />
<glyph unicode="&#x2122;" horiz-adv-x="2048" d="M295 1399v94h518v-94h-203v-484h-114v484h-201zM926 915v578h172l174 -256l164 256h170v-578h-113v484l-195 -303h-55l-203 303v-484h-114z" />
<glyph unicode="&#x2212;" horiz-adv-x="681" d="M66 440v181h552v-181h-552z" />
<glyph unicode="&#x25cc;" horiz-adv-x="1349" d="M10 551q0 61 62 61q59 0 59 -61q0 -57 -59 -57q-61 0 -62 57zM49 354q0 25 18.5 43.5t43.5 18.5q63 0 63 -62q0 -25 -19.5 -43t-43.5 -18q-23 0 -42.5 19.5t-19.5 41.5zM49 760q0 23 19.5 42t42.5 19q25 0 44 -18.5t19 -42.5q0 -62 -63 -62q-61 0 -62 62zM166 203 q0 61 59 61q61 0 62 -61q0 -25 -18.5 -42.5t-43.5 -17.5q-59 0 -59 60zM166 911q0 59 59 60q25 0 43.5 -17.5t18.5 -42.5q-1 -61 -62 -61q-59 0 -59 61zM317 102q1 62 58 62q63 0 63 -62q0 -27 -19.5 -45t-43.5 -18q-23 0 -40.5 20.5t-17.5 42.5zM317 1012q0 23 17.5 43 t40.5 20q25 0 44 -18.5t19 -44.5q0 -62 -63 -62q-57 0 -58 62zM494 72q0 23 18 40t41 17q59 0 59 -57q0 -64 -59 -64t-59 64zM494 1047q0 63 59 63t59 -63q0 -58 -59 -58t-59 58zM686 102q1 62 64 62q57 0 57 -62q0 -23 -17.5 -43t-39.5 -20q-25 0 -44.5 18.5t-19.5 44.5z M686 1012q0 27 19.5 45t44.5 18q23 0 40 -20.5t17 -42.5q0 -62 -57 -62q-63 0 -64 62zM838 203q0 61 61 61q59 0 59 -61q0 -59 -59 -60q-25 0 -43 17.5t-18 42.5zM838 911q0 25 18 42.5t43 17.5q59 0 59 -60q0 -61 -59 -61q-61 0 -61 61zM950 354q1 62 64 62q25 0 43 -18.5 t18 -43.5q0 -23 -19.5 -42t-41.5 -19q-25 0 -44.5 18.5t-19.5 42.5zM950 760q0 25 19.5 43t44.5 18q23 0 42 -19.5t19 -41.5q0 -62 -61 -62q-63 0 -64 62zM993 551q0 61 60 61q61 0 61 -61q0 -57 -61 -57q-59 0 -60 57z" />
<glyph unicode="&#x25fc;" horiz-adv-x="1054" d="M0 0v1055h1055v-1055h-1055z" />
<glyph unicode="&#xa9e0;" horiz-adv-x="1159" d="M55 326q0 82 56.5 122.5t136.5 40.5q141 0 261 -94t134 -223q80 59 115 113q39 66 41 159q4 113 -97 222q-70 76 -157 96q-6 -111 -88 -181.5t-201 -70.5q-49 0 -98 12q-90 25 -90 84q0 10 30 72l33 45h4q139 174 346 174q197 0 322 -125q127 -133 127 -315 q0 -211 -123 -332q-127 -125 -334 -125q-231 0 -364 184q-53 74 -54 142zM195 332q0 -16 38 -78q100 -113 238 -119l33 -2q0 86 -90 170q-63 57 -154 57q-66 -2 -65 -28zM242 631q8 -23 80 -10q31 4 72.5 47.5t41.5 74.5v7h-14q-137 0 -180 -119z" />
<glyph unicode="&#xa9e1;" horiz-adv-x="1904" d="M2 639q6 -31 16 -51q23 -55 56 -64q47 -14 98 -14q131 0 228.5 80t103.5 198q109 -25 180 -102q76 -84 76 -190v-54q0 -139 -94.5 -221t-235.5 -82q-156 0 -301 180l-117 -86q188 -236 418 -235q258 0 401 215q143 -219 400 -219q209 0 341 132t132 341q0 213 -130 338 t-343 125q-94 0 -164 -25l-66 -22l48 -138q125 47 182 48q141 0 237.5 -92.5t96.5 -233.5q0 -145 -95.5 -238.5t-238.5 -93.5q-139 0 -232.5 84t-93.5 223v25q0 205 -132 336t-343 131q-217 0 -356 -172h-2l-35 -49q-14 -16 -35 -74zM174 625q58 157 205 157h14v-6 q0 -33 -51 -86t-82 -59q-90 -16 -72 -17q-10 0 -14 11z" />
<glyph unicode="&#xa9e2;" horiz-adv-x="1898" d="M-12 633l35 59q131 225 399 226q205 0 335 -128t130 -331v-25q0 -137 92 -219t227 -82q141 0 234.5 91t93.5 235q0 43 -33 94q-70 -33 -137 -33q-121 0 -205 76q-90 84 -86 207q-10 92 47 112l86 13q195 0 331 -138t136 -331q0 -207 -131 -336t-336 -129q-252 0 -391 215 q-141 -211 -393 -211q-227 0 -412 231l113 86q143 -178 299 -178q137 0 229 80t92 219v49q0 133 -98 215q-90 78 -223 78q-182 0 -313 -217zM1212 766q0 -20 43 -64q53 -51 105 -51q43 1 72 15q-104 106 -215 106q-4 0 -5 -6z" />
<glyph unicode="&#xa9e3;" horiz-adv-x="2074" d="M31 559q0 41 20 76q31 86 101 151q131 129 329 129q199 0 328 -129q102 -104 123 -254h14q20 150 127 254q131 129 332 129q197 0 326 -129q35 -33 86 -122l-105 -115q-20 78 -80 137q-92 92 -227 92q-139 0 -231 -90q-70 -68 -89 -158q242 -14 383 -45q199 -41 379 -141 q-33 -129 -116 -215q-129 -131 -326 -131q-190 0 -319.5 113.5t-141.5 300.5h-10q-14 -184 -141 -299t-312 -115q-205 0 -334 127q-84 84 -112 201q178 106 379 153q133 31 381 47q-18 88 -80 153.5t-148 88.5l2 -6q-37 -125 -133 -203q-104 -84 -250 -84q-68 0 -141 19 q-14 31 -14 65zM193 590q156 6 239 172q-8 6 -8 10q-100 -14 -174 -84q-43 -43 -57 -98zM211 270q92 -135 270 -135q119 0 208.5 74.5t107.5 191.5q-377 -37 -586 -131zM1083 410q14 -123 104.5 -199t217.5 -76q135 0 227 94q25 27 45 58q-238 109 -594 123z" />
<glyph unicode="&#xa9e4;" horiz-adv-x="1873" d="M2 455q0 205 129 331.5t336 126.5q84 0 162 -26l63 -23l-45 -131q-125 43 -180 43q-141 0 -234.5 -90t-93.5 -231q0 -139 94.5 -230.5t233.5 -91.5q102 -6 231 109q20 18 54 77l12 19q-6 35 -10 74l4 120q20 150 127 254q131 129 329 129q199 0 328 -129q35 -33 86 -122 l-106 -115q-20 78 -78 137q-92 92 -230 92q-139 0 -231 -90q-68 -68 -86 -158q-8 -55 0 -112q150 109 320 108q229 0 442 -182q-33 -129 -117 -215q-129 -131 -328 -131q-248 0 -380 180q-55 -80 -142 -127q-43 -23 -110 -35l-115 -20q-205 0 -335 127t-130 332zM936 281 q100 -145 278 -146q137 0 230 94q25 27 45 58q-43 29 -88 57q-88 49 -189 49q-90 0 -276 -112z" />
<glyph unicode="&#xa9e5;" horiz-adv-x="6" d="M-1196 977q33 47 70 86q57 61 67 70q37 33 78 49q-119 123 -119 297q0 176 120 295.5t298 119.5q174 0 291 -120q45 -45 520 -390l-563 226q-88 119 -252 119q-111 0 -179.5 -70t-68.5 -180q0 -55 46 -143.5t97 -114.5l82 8q31 4 64 4q137 0 264 -65.5t205 -178.5v-2 l-152 -96q-57 88 -186 133q-115 39 -234 27q-180 -18 -282 -152z" />
<glyph unicode="&#xa9e6;" horiz-adv-x="1071" d="M63 1040l398 811l149 -79l-413 -797zM393 1028l398 811l149 -80l-414 -796z" />
<glyph unicode="&#xaa60;" horiz-adv-x="1837" d="M41 422q0 61 15.5 117.5t44 104.5t68.5 88t89 68.5t104.5 45t116.5 16.5q59 0 112.5 -14t100.5 -41t87 -63.5t69 -81.5q29 45 68.5 81.5t87 63.5t100.5 41t113 14q90 0 169.5 -34.5t139 -94t94.5 -139.5t35 -172q0 -90 -35 -170t-94.5 -139.5t-139 -94t-169.5 -34.5 q-41 0 -66 16t-33 39q-23 63 -18.5 122.5t28 112t63.5 93.5t91 66.5t109.5 32.5t119.5 -7q-8 55 -33.5 102t-64.5 82t-89 55.5t-107 20.5q-61 0 -114.5 -22.5t-93.5 -61.5t-63.5 -91t-25.5 -112v-12q-2 -145 -60.5 -249.5t-159.5 -168.5q-20 -12 -38.5 -12t-34 9t-25.5 24.5 t-12 33t6 35t27 29.5q35 23 63.5 52.5t48 66t30.5 82t11 100.5q0 61 -23.5 115.5t-63.5 94.5t-94 63.5t-116 23.5q-61 0 -115.5 -23.5t-94.5 -63.5t-63.5 -94.5t-23.5 -115.5q0 -57 11.5 -104.5t32 -85t49 -65.5t59.5 -46q20 -10 29.5 -27.5t8.5 -35t-9.5 -34t-23.5 -25.5 t-34.5 -11t-38.5 10q-53 29 -94 71t-70.5 96t-45 118.5t-15.5 138.5zM1217 127q51 0 96 15.5t83 44t64.5 67.5t40.5 86q-37 14 -72.5 13t-68.5 -12t-60.5 -32.5t-47 -50.5t-29 -62.5t-6.5 -68.5z" />
<glyph unicode="&#xaa61;" horiz-adv-x="1812" d="M53 84q-2 16 4 31.5t17.5 26t29 12.5t37.5 -11q31 -18 54.5 -22t40 -2t26.5 10t15.5 18.5t7.5 18.5t2 12q0 18 -9.5 27.5t-21.5 15.5q-25 12 -49.5 20.5t-47 19.5t-41 24.5t-32.5 31.5q-10 12 -16 29q-12 31 -13 78v8v8q2 88 37 165t93.5 134.5t135 90t166.5 32.5 q55 0 108.5 -14t100.5 -40t85 -62.5t67 -81.5q31 43 69.5 78.5t85 61t98.5 39t107 13.5q90 0 168 -34t137.5 -92t93 -137t33.5 -167q0 -90 -33.5 -168t-93 -137.5t-137.5 -93t-168 -33.5q-53 0 -104 13t-96 37t-83 56.5t-67 73.5q-29 -51 -66.5 -92t-86.5 -74 q-20 -12 -39 -11t-34.5 9t-24.5 23.5t-11 33t5 35t28 29.5q66 41 105.5 110.5t43.5 170.5v18v20q-4 57 -27.5 107.5t-62.5 88.5t-91 59.5t-110 21.5q-61 0 -114 -23.5t-93 -62.5t-62.5 -92t-22.5 -115v-7v-7q2 -14 10 -20.5t20 -14.5q37 -16 72 -29.5t63.5 -34t46 -53.5 t17.5 -86q0 -63 -29.5 -105t-76 -61.5t-104.5 -16.5t-118 32q-20 8 -31.5 24.5t-13.5 32.5zM920 406q4 -57 28.5 -106.5t63.5 -86.5t90 -58.5t108 -21.5q61 0 114.5 23.5t92.5 62.5t62.5 92.5t23.5 114.5q0 59 -23.5 112.5t-62.5 93.5t-92 62.5t-115 22.5q-57 0 -108 -20.5 t-90 -57.5t-63.5 -85t-28.5 -105v-19v-24z" />
<glyph unicode="&#xaa62;" horiz-adv-x="1327" d="M35 799q0 23 10 39t26.5 25t35 9t35 -7t27.5 -23.5t11 -40.5l-2 -482q41 80 71 150t44 115q12 20 28.5 29.5t34 9.5t34 -8.5t27.5 -22.5t14 -32.5t-7 -39.5q-4 -20 -6 -41.5t-2 -46.5q0 -61 23.5 -115.5t64.5 -94.5t95 -63.5t116 -23.5q61 0 115.5 23.5t95.5 63.5 t64.5 94.5t23.5 115.5q0 113 -42 189.5t-112 121.5q-20 12 -28.5 31t-6.5 36t12.5 32.5t26 25t35 9.5t37.5 -13q51 -33 92 -77t69.5 -98t44 -118.5t15.5 -138.5q0 -90 -35 -171t-95 -140.5t-141 -94t-171 -34.5q-70 0 -132.5 20.5t-114.5 55t-93 84t-66 108.5 q-31 -53 -62.5 -109.5t-64.5 -107.5q-6 -27 -27.5 -40t-45 -12t-44 15t-24.5 43q-2 4 -3 12.5t1 14.5z" />
<glyph unicode="&#xaa63;" horiz-adv-x="1792" d="M45 76.5q-2 17.5 4 33t17.5 25.5t29 11t37.5 -9q33 -18 56.5 -23t40 -2t26.5 11t16.5 18.5t8.5 18.5t2 12q0 18 -9.5 28.5t-23.5 16.5q-25 10 -49.5 19.5t-48 19.5t-42 24.5t-32.5 32.5q-10 10 -17 31q-6 14 -10 34.5t-4 43.5q0 4 1 8t1 8q0 59 17.5 113.5t45 102.5 t67.5 87t88 67t103.5 43t114.5 15q57 0 110.5 -14t100.5 -40t87 -62.5t69 -81.5q31 45 70 81.5t86 62.5t100 40t111 14q90 0 169.5 -34.5t139 -94t93.5 -139.5t34 -170t-34 -170t-93.5 -139.5t-139 -94t-169.5 -34.5q-55 0 -106.5 13t-96.5 36.5t-84 57.5t-68 75 q-29 -53 -68.5 -96t-88.5 -74q-14 -10 -28.5 -12t-28 1t-24 11t-18.5 18q-37 45 -54 96.5t-18 103.5t15 101.5t45 91.5t71 74.5t95 49.5q-16 41 -44 75.5t-64 59t-79 39t-90 14.5q-61 0 -114.5 -23.5t-94 -63.5t-63.5 -94.5t-23 -115.5v-7v-7q0 -14 8.5 -21.5t22.5 -13.5 q37 -16 73 -30.5t64.5 -35t47 -54.5t18.5 -87q0 -63 -31 -106t-78 -62.5t-106 -16.5t-119 31q-20 8 -31.5 24.5t-13.5 34zM652 227q-1 -41 14 -80q51 43 81.5 105.5t34.5 150.5q-2 4 -2 8.5v8.5q-39 -16 -67.5 -46t-44 -68t-16.5 -79zM924 401q4 -57 29.5 -106t65.5 -85 t90 -56.5t110 -20.5q61 0 114 22.5t94 63.5t63.5 94.5t22.5 114.5t-22.5 114.5t-63.5 94.5t-94 63.5t-114 22.5q-59 0 -110.5 -20.5t-91.5 -57.5t-64.5 -86t-28.5 -106v-12.5v-12.5v-13v-14z" />
<glyph unicode="&#xaa64;" horiz-adv-x="1828" d="M37 430q0 76 15.5 142.5t45 123t71.5 100t95 72.5q20 12 40 10.5t34 -12t23.5 -27t10.5 -34t-7.5 -34.5t-30.5 -30q-33 -18 -60.5 -46.5t-48 -67.5t-33 -88.5t-12.5 -108.5q0 -61 23.5 -116.5t64.5 -96.5t96.5 -64.5t116.5 -23.5q63 0 117.5 23.5t95.5 64.5t64.5 96.5 t23.5 116.5q0 113 -42 190.5t-111 122.5q-20 14 -28.5 32t-6.5 35t12 33.5t25.5 26t35 9.5t40.5 -13q51 -33 91 -75.5t68 -96.5q31 41 70 76t85 59.5t98 38t110 13.5q92 0 173 -36t141.5 -96.5t95 -141.5t34.5 -173t-34.5 -173t-95 -141.5t-141.5 -95t-173 -34.5 q-59 0 -113.5 13t-101.5 40t-87 63.5t-71 83.5q-31 -47 -71 -84.5t-88 -64.5t-102 -41t-114 -14q-92 0 -173 34.5t-141.5 95t-95 141.5t-34.5 173zM928 424q2 -59 25.5 -112.5t64.5 -93.5t95 -62.5t116 -22.5q61 0 116.5 23.5t96.5 64.5t64.5 96.5t23.5 116.5t-23.5 116.5 t-64.5 96.5t-96.5 64.5t-116.5 23.5t-115.5 -22.5t-95.5 -62.5t-64.5 -93.5t-25.5 -114.5v-12v-6z" />
<glyph unicode="&#xaa65;" horiz-adv-x="2144" d="M104 377q0 104 40 196.5t109 161t161 107.5t196 39q29 0 50.5 -7.5t37 -19.5t22.5 -28.5t7 -30.5t-6 -28.5t-20.5 -25t-37 -17.5t-53.5 -7q-72 0 -134 -26.5t-108 -73t-73 -109t-27 -131.5q0 -72 27 -134.5t73 -108.5t108.5 -72.5t133.5 -26.5q70 0 131.5 25.5 t107.5 69.5t72.5 104.5t30.5 130.5v26q2 102 43 191.5t108.5 156t159 104.5t193.5 38q104 0 196.5 -39t161 -107.5t108.5 -161t40 -196.5q0 -70 -17.5 -135.5t-51 -120.5t-80 -102.5t-101.5 -80t-120.5 -51t-135.5 -18.5q-29 0 -50.5 8t-36.5 20.5t-22.5 28t-7.5 31.5 q0 14 6.5 28.5t21.5 24.5t36.5 17.5t52.5 7.5q72 0 134.5 26.5t108.5 72.5t72.5 108.5t26.5 134.5q0 70 -26.5 132t-72.5 108.5t-108.5 73t-134.5 26.5q-70 0 -131 -25.5t-107.5 -71t-73 -105.5t-30.5 -128q0 -2 1 -8t1 -10q0 -27 -2 -52v-12v-973q0 -16 7 -32.5t18.5 -28.5 t28 -18.5t34.5 -6.5h82q27 0 45.5 -12t27.5 -30.5t9 -40t-9 -39t-27.5 -30t-45.5 -12.5h-82q-53 0 -98 19.5t-80 53.5t-54.5 80t-19.5 97v668q-63 -55 -145 -90q-92 -41 -195 -41q-70 0 -135 18.5t-120.5 51t-101.5 80t-80 102.5t-51.5 120.5t-17.5 135.5z" />
<glyph unicode="&#xaa66;" horiz-adv-x="1814" d="M37 426q0 90 33.5 170t93 139.5t139.5 93t170 33.5q57 0 110.5 -14t100.5 -40t86 -62.5t68 -79.5q31 43 69.5 79.5t85.5 62.5t100.5 40t110.5 14q90 0 170 -33.5t139.5 -93t93 -139.5t33.5 -170t-33.5 -170t-93 -139.5t-139.5 -93t-170 -33.5q-31 0 -53.5 10t-34.5 25.5 t-14 34t9 34t33.5 26.5t59.5 11q61 0 115.5 22.5t94.5 62.5t62.5 94.5t22.5 115.5q0 59 -22.5 113.5t-62.5 94.5t-94 63.5t-116 23.5q-59 0 -110.5 -21.5t-91 -58.5t-64.5 -87t-29 -108v-20q0 -90 -33.5 -170t-93 -139.5t-139.5 -93t-170 -33.5t-170 33.5t-139.5 93 t-93 139.5t-33.5 170zM178 426q0 -61 23.5 -115.5t63.5 -94.5t93.5 -62.5t114.5 -22.5t115.5 22.5t94.5 62.5t62.5 94.5t22.5 115.5q0 59 -22.5 113.5t-62.5 94.5t-94.5 63.5t-115.5 23.5t-114.5 -23.5t-93.5 -63.5t-63.5 -94.5t-23.5 -113.5zM358 422q0 23 9.5 43t25 35.5 t36 25t42.5 9.5q25 0 45.5 -9.5t35.5 -25t23.5 -36t8.5 -42.5q0 -25 -8.5 -45.5t-23.5 -35.5t-35.5 -23.5t-45.5 -8.5q-23 0 -43 8.5t-35.5 23.5t-25 35.5t-9.5 45.5z" />
<glyph unicode="&#xaa67;" horiz-adv-x="1810" d="M37 428q0 90 34.5 170t94 139.5t139.5 94t170 34.5q57 0 111.5 -14t101.5 -40t86 -62.5t70 -81.5q29 45 68.5 81.5t85.5 62.5t100.5 40t111.5 14q90 0 170 -34.5t139.5 -94t94.5 -139.5t35 -170t-35 -171t-94.5 -140.5t-139.5 -93t-170 -33.5q-57 0 -111.5 13t-100.5 40 t-86 62.5t-68 80.5q-31 -45 -70 -80.5t-86 -62.5t-101.5 -40t-111.5 -13q-90 0 -170 33.5t-139.5 93t-94 140.5t-34.5 171zM180 428q0 -61 23.5 -115.5t63.5 -94.5t93.5 -63.5t114.5 -23.5q59 0 111.5 21.5t91.5 58.5t63.5 87.5t30.5 107.5v45q-6 57 -30.5 107t-63.5 87 t-91 58.5t-112 21.5q-61 0 -114.5 -23.5t-93.5 -63.5t-63.5 -94.5t-23.5 -115.5zM360 424q0 23 9.5 43t25 35.5t36 25t42.5 9.5q25 0 45.5 -9.5t35.5 -25t24.5 -36t9.5 -42.5q0 -25 -9.5 -45.5t-24.5 -35.5t-35.5 -23.5t-45.5 -8.5q-23 0 -43 8.5t-35.5 23.5t-25 35.5 t-9.5 45.5zM913 406q6 -57 30 -107.5t65 -87.5t92 -58.5t110 -21.5q61 0 115.5 23.5t94.5 63.5t63.5 94.5t23.5 115.5t-23.5 115.5t-63.5 94.5t-94.5 63.5t-115.5 23.5q-59 0 -110 -21.5t-92 -58.5t-64.5 -87t-30.5 -107q2 -23 0 -45z" />
<glyph unicode="&#xaa68;" horiz-adv-x="1835" d="M37 430q0 92 34.5 173t94 140.5t140.5 94t173 34.5q57 0 111.5 -14t101.5 -39.5t87 -62.5t69 -82q31 45 69.5 82t87 62.5t101.5 39.5t113 14q90 0 170.5 -34.5t141 -94t94.5 -140.5t34 -173q0 -90 -34 -171t-94.5 -141.5t-141 -94t-170.5 -33.5q-33 0 -55.5 10t-35 26.5 t-14.5 34.5q-16 61 -10 120t30.5 109t64.5 90t90 64.5t107.5 31.5t119.5 -9q-6 43 -23 80q-23 55 -63.5 95t-95 63.5t-115.5 23.5q-59 0 -111.5 -21.5t-92.5 -59.5t-65.5 -88t-29.5 -109v-21q0 -90 -34 -171t-94.5 -141.5t-141.5 -94t-171 -33.5q-92 0 -173 33.5t-140.5 94 t-94 141.5t-34.5 171zM180 430q0 -61 23.5 -115.5t63.5 -95.5t95.5 -64.5t116.5 -23.5t115.5 23.5t95.5 64.5t64.5 95.5t23.5 115.5t-23.5 116.5t-64.5 95.5t-95.5 63.5t-115.5 23.5t-116.5 -23.5t-95.5 -63.5t-63.5 -95t-23.5 -117zM362 426q0 25 9.5 45.5t25 35.5t36 24.5 t44.5 9.5q23 0 44.5 -9.5t36.5 -24.5t24.5 -35.5t9.5 -45.5q0 -23 -9.5 -44.5t-24.5 -36.5t-36.5 -23.5t-44.5 -8.5q-25 0 -45 8.5t-35.5 23.5t-25 36.5t-9.5 44.5zM1221 131q59 0 114 25q53 23 94 63.5t64 93.5q6 18 12 35q-37 12 -72.5 12t-69.5 -11t-61.5 -33.5t-47 -50 t-28.5 -62.5t-5 -72z" />
<glyph unicode="&#xaa69;" horiz-adv-x="1810" d="M37 428q0 90 34.5 170t94 139.5t139.5 94t170 34.5q57 0 111.5 -14t101.5 -40t86 -62.5t70 -81.5q29 45 68.5 81.5t85.5 62.5t100.5 40t111.5 14q90 0 170 -34.5t139.5 -94t94.5 -139.5t35 -170t-35 -171t-94.5 -140.5t-139.5 -93t-170 -33.5q-57 0 -111.5 13t-100.5 40 t-86 62.5t-68 80.5q-31 -45 -70 -80.5t-86 -62.5t-101.5 -40t-111.5 -13q-90 0 -170 33.5t-139.5 93t-94 140.5t-34.5 171zM180 428q0 -61 23.5 -115.5t63.5 -94.5t93.5 -63.5t114.5 -23.5q59 0 111.5 21.5t91.5 58.5t63.5 87.5t30.5 107.5v45q-6 57 -30.5 107t-63.5 87 t-91 58.5t-112 21.5q-61 0 -114.5 -23.5t-93.5 -63.5t-63.5 -94.5t-23.5 -115.5zM360 424q0 23 9.5 43t25 35.5t36 25t42.5 9.5q25 0 45.5 -9.5t35.5 -25t24.5 -36t9.5 -42.5q0 -25 -9.5 -45.5t-24.5 -35.5t-35.5 -23.5t-45.5 -8.5q-23 0 -43 8.5t-35.5 23.5t-25 35.5 t-9.5 45.5zM913 406q6 -57 30 -107.5t65 -87.5t92 -59q33 -12 67 -19q16 41 15.5 81t-15 76t-40 64.5t-59.5 47t-73 23.5t-82 -9v-10zM934 539q55 6 106.5 -5.5t95.5 -37t77.5 -63.5t55 -85t29 -99t-5.5 -108q16 6 33 13q55 25 95 64.5t63.5 94t23.5 115.5t-23.5 115.5 t-63.5 94.5t-94.5 63.5t-115.5 23.5q-59 0 -110 -21.5t-92 -58.5t-66 -88q-4 -8 -8 -18z" />
<glyph unicode="&#xaa6a;" horiz-adv-x="1814" d="M37 426q0 90 34.5 170t93 139.5t138.5 93t170 33.5q57 0 110.5 -14t100.5 -40t86 -62.5t70 -79.5q29 43 68.5 79.5t85.5 62.5t99.5 40t110.5 14q90 0 170 -33.5t139.5 -93t93 -139.5t33.5 -170t-33.5 -170t-93 -139.5t-139.5 -93t-170 -33.5q-57 0 -110.5 13t-99.5 40 t-86 62.5t-68 80.5q-31 -45 -70 -80.5t-86 -62.5t-100.5 -40t-110.5 -13q-90 0 -170 33.5t-138.5 93t-93 139.5t-34.5 170zM178 426q0 -61 23.5 -115.5t63.5 -94.5t93.5 -62.5t114.5 -22.5q59 0 110.5 20.5t91.5 57.5t64.5 87t28.5 107v46q-4 57 -28.5 106t-64.5 86 t-91.5 58.5t-110.5 21.5q-61 0 -114.5 -23.5t-93.5 -63.5t-63.5 -94.5t-23.5 -113.5zM909 403q4 -57 29 -107t64.5 -87t91.5 -57q33 -14 69 -19q14 41 14.5 81t-14 76t-41 63.5t-59.5 46t-73 23.5t-81 -9v-11zM930 537q55 6 105 -5.5t94.5 -37t78 -63.5t55 -84t28.5 -98 t-5 -108q16 4 33 13q55 23 95 62.5t62.5 94t22.5 115.5q0 59 -22.5 113.5t-62.5 94.5t-94.5 63.5t-115.5 23.5q-59 0 -110.5 -21.5t-91 -58.5t-64.5 -86q-4 -10 -8 -18z" />
<glyph unicode="&#xaa6b;" horiz-adv-x="1263" d="M33 817q8 25 28.5 33t40 2t34 -23.5t11.5 -40.5q0 -31 7.5 -59.5t21.5 -54t34.5 -46t47.5 -34.5q25 61 66 113.5t95 89.5t117.5 58.5t135.5 21.5q92 0 172 -35t140 -95.5t95 -140.5t35 -172q0 -74 -16.5 -140.5t-45 -122.5t-70.5 -99t-93 -72q-23 -12 -41.5 -11t-33.5 11 t-23.5 26.5t-9.5 35t7.5 35t30.5 28.5q31 18 58.5 47t49 68t33 87t11.5 107q0 61 -23.5 115.5t-63.5 95.5t-95.5 64.5t-116.5 23.5q-45 0 -86 -12t-76 -34.5t-62.5 -54.5t-46.5 -71q55 -16 100.5 -50t76 -79t46 -99t12.5 -109.5t-26.5 -110t-68.5 -101.5q-16 -16 -41 -22 t-51 12q-51 33 -91.5 77t-69 98t-44 118.5t-15.5 138.5q0 20 2 43q-49 20 -89 56t-66.5 81t-37.5 97.5t-5 105.5zM373 434q0 -100 32.5 -170.5t90.5 -118.5q23 43 23.5 90.5t-17 89.5t-51 74.5t-78.5 46.5v-12z" />
<glyph unicode="&#xaa6c;" horiz-adv-x="2150" d="M41 432q0 74 16.5 141.5t46 124t71.5 100.5t93 72q23 12 42.5 11.5t33.5 -12t23.5 -27t10.5 -33.5t-8.5 -35.5t-29.5 -30.5q-33 -18 -60.5 -46.5t-49 -68.5t-33 -89.5t-11.5 -106.5q0 -63 23.5 -118.5t64.5 -96.5t96.5 -64.5t116.5 -23.5q63 0 119 23.5t95.5 64.5 t64.5 96.5t25 118.5q0 6 -6.5 33t-14.5 59.5t-14 65.5t-6 57q0 57 21.5 100.5t56 71t78.5 41.5t91 14t91.5 -14t79 -41.5t55 -68.5t20.5 -95q0 -18 -4 -51t-8 -68.5t-8 -68.5t-4 -49q4 -61 28.5 -113.5t65.5 -91.5t94 -61.5t115 -22.5q61 0 116.5 23.5t96.5 64.5t64.5 96.5 t23.5 118.5q0 55 -11.5 103.5t-31 87.5t-48 69.5t-65.5 52.5q-20 14 -27.5 32t-5.5 36t12.5 33.5t26 25t34.5 9.5t38 -13q53 -33 94 -78t69.5 -99t44 -119.5t15.5 -139.5q0 -94 -35 -175t-96 -141.5t-142 -95t-173 -34.5q-94 0 -175 34.5t-141.5 95t-96.5 141.5t-36 175 q0 8 2 24.5t4 38t6.5 44t6.5 45t4 41t2 30.5q0 23 -15.5 39.5t-37 25.5t-48 10t-48 -8t-37 -27.5t-15.5 -47.5q0 -16 6 -47t13.5 -63.5t13.5 -62.5t6 -42q0 -94 -36 -175t-96.5 -141.5t-142 -95t-174.5 -34.5q-92 0 -173 34.5t-142 95t-96 141.5t-35 175z" />
<glyph unicode="&#xaa6d;" horiz-adv-x="1863" d="M94 -541q0 31 5 61.5t14 57.5q8 25 25.5 38t37 16t38.5 -3t33.5 -20.5t20.5 -34.5t-4 -45q-10 -33 -10 -70q0 -45 16.5 -83t46 -66.5t68.5 -46t82 -17.5t81 16.5t66.5 43t46 63.5t19.5 80v948q-31 -10 -64 -10q-45 0 -86 17.5t-70.5 48t-47 71.5t-17.5 86q0 47 17.5 88 t47 71t70.5 47.5t86 17.5q33 0 64 -9.5t56.5 -26t46 -38.5t34.5 -51q12 12 29.5 25.5t42.5 31.5q55 39 116.5 60.5t125 26.5t126 -6t121 -38t108.5 -68t89 -96q57 -84 77.5 -179t4 -188.5t-67.5 -176.5t-135 -142q-49 -35 -103.5 -55.5t-109.5 -28.5t-110.5 -3t-108.5 22 q-27 8 -40 25.5t-16 36.5t3 38.5t20.5 33t34.5 19.5t45 0q74 -25 149.5 -14.5t143.5 57.5q57 39 91 95.5t45 120t-2 128t-52 119.5q-39 57 -95.5 91t-120 45t-128 -2t-121.5 -52q-20 -16 -38.5 -30.5t-35 -29t-32 -26.5t-33.5 -25v-1077q0 -16 -2 -29q-2 -10 -3 -19t-4 -15 q-12 -63 -45.5 -117.5t-82 -94.5t-108.5 -62.5t-128 -22.5q-78 0 -145.5 29.5t-118.5 79.5t-80 119t-29 144zM555 610q0 -25 18.5 -43t42.5 -18q27 0 45.5 18.5t18.5 42.5q0 27 -18.5 45.5t-45.5 18.5q-25 0 -43 -18.5t-18 -45.5z" />
<glyph unicode="&#xaa6e;" horiz-adv-x="1828" d="M37 430q0 92 34.5 173t94 140.5t140.5 94t173 34.5q90 0 169 -33.5t139.5 -91t95.5 -136.5t39 -167v-24q2 -59 25.5 -112.5t63.5 -92.5t94 -61.5t114 -22.5q63 0 117.5 23.5t94 64.5t63.5 95.5t24 115.5t-24 116.5t-63.5 95.5t-94 63.5t-117.5 23.5q-27 0 -46.5 6 t-32 15.5t-18.5 21.5t-6 25q0 14 7 27.5t20.5 24.5t32 17t43.5 6q92 0 173 -34.5t140 -94t94 -140.5t35 -173q0 -59 -15.5 -116.5t-44 -106.5t-69.5 -89t-89 -69t-105.5 -45t-118.5 -16q-90 0 -170 34.5t-140.5 93t-96.5 138.5t-36 170q0 4 1 9t1 7q-2 59 -26.5 112.5 t-64.5 92.5t-94 61.5t-114 22.5q-61 0 -116.5 -23.5t-95.5 -63.5t-64 -95q-14 -35 -21 -72q59 16 117.5 10t110 -30.5t91.5 -66.5t64.5 -93t30.5 -110.5t-14 -123.5q0 -12 -7 -24q-6 -14 -19 -25.5t-32.5 -17.5t-44.5 -6q-61 0 -117.5 16t-105.5 45t-90 69t-69.5 89 t-44 106.5t-15.5 116.5zM188 354q6 -20 15 -41q25 -53 64.5 -94t95 -64.5t116.5 -23.5q4 39 -5 76t-29.5 66.5t-48 52t-61.5 34t-72 11t-75 -16.5z" />
<glyph unicode="&#xaa6f;" horiz-adv-x="1374" d="M102 61v727q2 25 14.5 41.5t31 22.5t40 3t41.5 -13q53 -20 112.5 -47t113.5 -52q57 53 132 83t161 30q90 0 169.5 -34t138 -93t93.5 -138t35 -169t-35 -169t-93.5 -137.5t-138 -93t-169.5 -34.5t-169 34.5t-138.5 93t-93.5 137.5t-34 169q0 55 13.5 106.5t35.5 96.5 l-120 51l4 -619q-2 -23 -12.5 -38t-27 -22t-34.5 -7t-33.5 8t-26 24.5t-10.5 38.5zM455 422q0 -59 22.5 -113.5t62.5 -94.5t94 -62.5t114 -22.5q61 0 114 22.5t93 62.5t63.5 94t23.5 114q0 61 -23.5 114.5t-63.5 93.5t-93 63.5t-114 23.5q-59 0 -113.5 -23.5t-94.5 -63.5 t-62.5 -93.5t-22.5 -114.5z" />
<glyph unicode="&#xaa70;" horiz-adv-x="970" d="M8 1210q201 109 375 109q180 0 389 -109l-74 -127q-174 78 -303 78t-307 -80q-6 8 -80 129zM8 1501q195 102 375 103q188 0 389 -103l-72 -125q-203 66 -307 66q-117 0 -305 -66q-14 25 -39 64z" />
<glyph unicode="&#xaa71;" horiz-adv-x="1845" d="M41 426q0 61 15.5 117.5t44 104.5t68.5 88t89 69t104.5 45t116.5 16q59 0 112.5 -14t101.5 -41t87 -63.5t70 -81.5q29 45 68.5 81.5t87 63.5t100.5 41t113 14q90 0 169.5 -34.5t139 -94t94.5 -139.5t35 -172q0 -90 -35 -170t-94.5 -139.5t-139 -94t-169.5 -34.5 q-25 0 -44.5 6t-33 17.5t-19.5 24.5t-6 25q0 14 5 26.5t18.5 22t33 14.5t46.5 5q61 0 115.5 23.5t94 63.5t63.5 94.5t24 115.5t-24 115.5t-63.5 95.5t-94 63.5t-115.5 22.5q-63 0 -117.5 -23.5t-94.5 -64.5t-63.5 -95.5t-23.5 -115.5q0 -74 -15.5 -136.5t-43 -114.5 t-68.5 -94t-93 -75q-18 -12 -38 -12q-14 0 -27.5 6t-23 16.5t-15.5 23.5t-6 28q0 16 8 31.5t27 27.5q35 23 62.5 51.5t48 65.5t31.5 83t11 101q0 61 -23.5 115.5t-64.5 95.5t-95 63.5t-116 22.5q-53 0 -101 -17.5t-86 -49t-65 -75t-37 -92.5q59 -8 111.5 -37.5t91.5 -73.5 t60.5 -100.5t21.5 -117.5q0 -39 -10 -80t-33 -80q-14 -4 -33 -6q-14 -2 -32.5 -3t-36.5 -1t-36 2t-28 8q-53 31 -94 73t-70.5 96t-45 118.5t-15.5 138.5zM186 371q4 -45 17.5 -84t33 -69t45 -53.5t54.5 -39.5q8 -6 16 -14q4 14 5 25t1 24q0 39 -13 73.5t-35.5 63.5 t-54.5 48.5t-69 25.5z" />
<glyph unicode="&#xaa72;" horiz-adv-x="2279" d="M48 349q1 50 17.5 92t45.5 69q27 25 56.5 32t58 3t55 -19.5t47.5 -40.5q27 -29 44 -66.5t27.5 -79.5t14.5 -86t2 -89q31 25 45 71t14 121q-2 10 -3 26.5t-1 35v33v16.5q8 86 46 159.5t97.5 129t137 86t163.5 30.5q59 0 114.5 -14t103 -40.5t87.5 -64.5t70 -83 q31 45 70 81.5t87 63.5t102.5 41t113.5 14q92 0 173 -34.5t141.5 -95t95 -142.5t34.5 -174q0 -61 -15 -117.5t-45 -105.5t-70 -90t-90 -70t-106.5 -45t-117.5 -16q-55 0 -107.5 13t-98.5 37.5t-86 58.5t-71 75q-29 -55 -70.5 -100.5t-96.5 -73.5q-20 -12 -40 -10t-34.5 12 t-23.5 26.5t-10 34t8 34.5t30 30q33 18 60.5 47t49 67.5t33 88t11.5 108.5q0 61 -24 116.5t-65 96.5t-95 64.5t-118 23.5q-61 0 -116.5 -23.5t-95 -64.5t-63.5 -96.5t-24 -116.5q0 -6 -1 -12t-1 -13q2 -66 -4 -130t-29.5 -119.5t-68.5 -95.5t-123 -56q0 -2 -1 -6t-1 -6 q-6 -20 -19.5 -32.5t-28.5 -16.5t-31.5 -1t-30 13t-21.5 23.5t-8 31.5q-49 18 -87 55t-63.5 84.5t-38 99.5t-11.5 102zM190.5 361.5q-2.5 -31.5 5 -69.5t25.5 -74.5t49 -59.5q2 41 1 83t-8 77.5t-21.5 59t-36.5 25.5q-12 -10 -14.5 -41.5zM1362 424q0 -61 23.5 -116.5 t64.5 -96.5t96.5 -63.5t116.5 -22.5q63 0 117.5 22.5t95.5 63.5t64.5 96t23.5 117q0 63 -23.5 117.5t-64.5 96.5t-95.5 65.5t-117.5 23.5q-61 0 -116.5 -23.5t-96.5 -65.5t-64.5 -96.5t-23.5 -117.5z" />
<glyph unicode="&#xaa73;" horiz-adv-x="1366" d="M35 63l2 728q-2 14 2 28q6 27 26.5 41t44 15.5t45 -12t27.5 -40.5q39 -61 78 -128.5t72 -132t56.5 -121t35.5 -95.5q4 -8 6 -16t2 -17q18 -39 47 -73.5t66 -59t80 -38t90 -13.5q61 0 115.5 23.5t95.5 64.5t64.5 95.5t23.5 117.5q0 113 -42 189.5t-112 123.5 q-20 12 -27.5 30t-6.5 36t11.5 33.5t26 25t35 9.5t39.5 -13q51 -33 92 -77t69.5 -99t44 -119.5t15.5 -138.5q0 -92 -36 -173t-95 -141.5t-140 -95t-173 -34.5q-80 0 -153 26.5t-131 72.5t-99.5 109.5t-57.5 139.5q-16 43 -40.5 97t-55.5 114l2 -486q0 -25 -11 -40t-27.5 -23 t-35 -7t-35 9t-26.5 24.5t-10 40.5z" />
<glyph unicode="&#xaa74;" horiz-adv-x="1613" d="M94 371q0 86 18.5 160.5t51.5 138t80 114t106 82.5q25 14 46.5 12.5t39 -13t27.5 -30t11 -39t-8 -40t-34 -33.5q-37 -20 -69.5 -53t-56 -77t-37 -99.5t-13.5 -122.5q0 -72 26.5 -133.5t73.5 -107.5t109.5 -72.5t132.5 -26.5q14 0 27.5 1t29.5 3v590v-2q2 63 26 119.5 t62 103.5q18 23 48 31t61 -13q57 -37 104.5 -87t80 -112.5t50 -135t17.5 -158.5q0 -76 -21.5 -144.5t-59.5 -128t-90 -105.5t-116 -75v-463l305 -176q18 -8 31.5 -6t23 11t13.5 23.5t4 33.5v569v4v600q0 68 -23.5 127t-63.5 107.5t-94.5 83t-113.5 55.5 q-115 37 -181.5 116.5t-82.5 192.5q-10 80 9.5 152.5t63.5 131t108.5 98.5t144.5 50q70 10 136 -5t121.5 -51t97.5 -90.5t62 -117.5q66 -45 277 -260t-50.5 -46t-281.5 182t-39.5 26.5t-37 28t-23.5 20.5q-12 37 -37 67.5t-56.5 51t-69.5 30t-79 4.5q-43 -8 -80 -30.5 t-62.5 -56t-36.5 -74.5t-5 -86q4 -29 12 -55.5t23.5 -48t38 -39t57.5 -27.5q94 -33 174 -89.5t136 -129t88 -154.5t32 -164v-1018v-2v-2v-151q0 -53 -20.5 -98.5t-54.5 -80t-79 -54t-98 -19.5q-55 18 -301 194q-10 -31 -29.5 -56.5t-45 -45t-56.5 -29.5t-66 -10 q-43 0 -81 16.5t-65.5 45t-44 66.5t-16.5 81q0 41 16.5 80t44 66.5t65.5 44t81 16.5q12 0 23.5 -1t23.5 -3v315q-29 -2 -57 -2q-104 0 -195.5 40t-160 107.5t-108.5 159.5t-40 197zM565 -649q0 -18 12.5 -30.5t30.5 -12.5t31.5 12t13.5 31q0 18 -13.5 31.5t-31.5 13.5 t-30.5 -13.5t-12.5 -31.5zM813 362q0 -116 4 -253q55 47 89 115.5t34 146.5q0 100 -28.5 173.5t-80.5 127.5q-4 -14 -8 -46t-6 -74t-3 -91t-1 -99z" />
<glyph unicode="&#xaa75;" horiz-adv-x="2263" d="M-4 367q0 207 140 343t347 136t346 -135q45 -47 72 -93q78 133 215 189q96 39 199 39q213 0 346 -135.5t133 -348.5q0 -248 -186 -389l-2 -426l327 -262v1440l-51 78l-121 102l-80 -8l-61 2l-61 19q-106 31 -216 204l-22 66l-10 80q0 213 219 348l76 26l80 9l40 -2 q25 -2 46 -13l92 -34q104 -41 157 -185l-28 -26l-74 -48q-23 76 -90.5 127.5t-147.5 51.5q-100 0 -170.5 -73t-70.5 -175q0 -53 2 -57q0 -14 24 -62q8 -33 82 -86l31 -20l33 -13l74 -14q41 0 65 12q129 -25 207 -98q39 -37 119 -156v-1556q-16 -98 -123 -98q-35 0 -76 12 l-283 186q-78 -164 -229 -164q-102 0 -175 74t-73 176t73 176t175 74q31 0 88 -18l4 254q-68 -16 -143 -17q-43 0 -82 4l-37 158q55 -16 119 -16q143 0 239.5 97t96.5 240q0 145 -95.5 241.5t-240.5 96.5q-141 0 -247.5 -98t-104.5 -240q6 -205 -123 -342q-59 -63 -152 -104 l-72 131q55 27 115 84q88 84 88 236q0 147 -91 238t-239 91q-150 0 -237 -82q-80 -74 -94 -151q-10 -43 -11 -74q0 -51 23 -70q31 8 66 9q90 0 155.5 -65.5t65.5 -158.5q0 -92 -64.5 -157.5t-156.5 -65.5q-106 0 -187 113l121 69q39 -35 63 -34q76 0 76 73q0 78 -76 78 q-18 0 -52 -6t-48 -6q-76 -2 -113 80q-25 57 -24 119zM1280 -586q0 -39 25.5 -65.5t64.5 -26.5t66.5 26.5t27.5 65.5t-27.5 65.5t-66.5 26.5t-64.5 -26.5t-25.5 -65.5z" />
<glyph unicode="&#xaa76;" horiz-adv-x="2334" d="M2 -508q0 90 41 152q86 121 236 106q100 0 217 -22l-21 -82q-8 -27 -22 -72q-74 10 -185 18q-94 -12 -112 -90v-98q0 -109 112 -109h570v1065q0 150 -104.5 251.5t-254.5 101.5q-66 0 -139 -21l-66 142q102 35 205 34q221 0 367 -145q10 -6 63 -86q31 43 76 102 q162 139 356 140q215 0 351.5 -137.5t136.5 -354.5q0 -254 -189 -399l-4 -432l336 -269v1467l-53 80l-125 106l-80 -8l-63 2l-62 16q-109 33 -219 209l-24 68l-11 82q0 217 226 354l75 27l82 8h43q25 -2 45 -15l95 -34q104 -41 159 -189l-28 -26l-74 -50q-25 78 -94.5 130.5 t-149.5 52.5q-102 0 -175 -74t-73 -178q0 -53 4 -58q0 -16 25 -63q8 -35 84 -88l31 -23l35 -12l75 -14q41 0 64 12q131 -23 213 -98q39 -37 121 -158v-1587q-18 -100 -127 -100q-35 0 -76 12l-287 190q-82 -166 -235 -166q-104 0 -178 75t-74 179t73.5 179t178.5 75 q31 0 90 -18l4 260q-68 -18 -146 -18q-43 0 -84 4l-36 161q55 -18 120 -18q145 0 243.5 99.5t98.5 246.5t-97 245.5t-245 98.5q-147 0 -249 -98q-109 -104 -109 -246l4 -1092q0 -63 -44 -107t-107 -44h-676q-154 18 -156 151zM1305 -582q0 -39 26.5 -65.5t65.5 -26.5 t67.5 26.5t28.5 65.5q0 41 -28.5 68t-67.5 27t-65.5 -27t-26.5 -68z" />
<glyph unicode="&#xaa77;" horiz-adv-x="1339" d="M-4 397q0 209 143.5 348.5t356.5 139.5q217 0 349 -137.5t138 -356.5q8 -209 -125 -350q-47 -49 -110 -139l10 2l250 -535l135 64l63 -135l-200 -95q-18 -6 -35 -6q-39 0 -66 53l-239 514q-133 -244 -152 -483l240 10l10 -151h-438q8 98 18 196q14 123 37 195 q74 215 217 428q94 143 150 197q88 84 88 241q0 147 -92.5 240.5t-243.5 93.5q-154 0 -242 -84q-82 -74 -98 -153q-8 -45 -8 -76q0 -51 20 -72q33 10 68 10q94 0 160.5 -66.5t66.5 -162.5t-65.5 -161.5t-161.5 -65.5q-106 0 -189 114l121 70q43 -33 66 -33q78 0 77 74 q0 78 -77 78q-16 0 -51 -5t-50 -5q-78 -4 -117 81q-25 57 -24 123zM27 1352q0 262 243 379q180 88 473 88q475 0 760 -154q508 -274 699 -604q8 -15 8 -29q-219 240 -600 443q-152 80 -404 129q-225 47 -424 51q-596 14 -596 -303q0 -279 263 -312q88 -12 148 45.5t52 149.5 q8 2 19 2q37 0 68.5 -38t31.5 -77q0 -10 -6 -26q-61 -178 -324 -178q-184 0 -297.5 122.5t-113.5 311.5z" />
<glyph unicode="&#xaa78;" horiz-adv-x="1560" d="M0 106v134q80 8 130 56t52 128q0 82 -51 135q-47 49 -129 59v123q137 -8 222 -94t85 -223q0 -131 -88 -220t-221 -98zM203 -4q8 131 99 219t220 88q135 0 226 -90v-2q-2 4 -19 20q43 354 164 631q86 197 201 279q57 41 123 41q111 0 231 -135l-100 -66q-63 66 -121 66 q-119 0 -226 -238q-68 -147 -112 -338q-53 -236 -53 -475h-121q-8 86 -58 129q-61 53 -135 53q-82 -4 -130 -53t-56 -129h-133zM203 850h133q12 -127 110 -168q35 -14 76 -14q82 -2 133.5 48t59.5 134h123q-8 -139 -93.5 -223t-222.5 -84q-131 0 -221 87t-98 220z" />
<glyph unicode="&#xaa79;" horiz-adv-x="1226" d="M-4 397q0 211 143.5 350.5t356.5 139.5q219 0 350 -137.5t139 -356.5q6 -211 -127 -350q-45 -49 -110 -141l12 4q-232 -420 -246 -625l240 10l10 -151h-438q29 238 82 401q74 217 202 426q90 143 138 189q90 86 90 241q0 150 -93.5 243t-244.5 93q-154 0 -242 -84 q-82 -76 -98 -155q-8 -43 -8 -76q0 -49 22 -70q31 8 66 8q94 0 160.5 -66.5t66.5 -160.5q0 -96 -65.5 -162.5t-161.5 -66.5q-109 0 -191 114l125 72q41 -35 64 -35q78 0 77 76q0 78 -77 78q-18 0 -52 -5t-49 -5q-78 -4 -117 81q-25 57 -24 121z" />
<glyph unicode="&#xaa7a;" horiz-adv-x="2058" d="M0 -860v2077h979l-2 172h145l-8 -347l-993 -8l10 -1749l782 2v942q0 119 -86 205t-204 86q-121 0 -206 -84t-85 -207q0 -125 83 -207.5t208 -82.5l10 -7l-10 -139q-178 0 -306.5 129t-128.5 307q0 182 127 309.5t308 127.5q180 0 308 -128t128 -309q0 -127 82 -208.5 t209 -81.5q121 0 205.5 86t84.5 204q0 119 -86 205t-204 86q-59 0 -103 -16l15 155l88 5q172 10 305 -127q131 -133 131 -308q0 -178 -129 -307t-307 -129q-162 0 -291 117v-623q0 -25 2 -74t2 -73h-1063z" />
<glyph unicode="&#xaa7b;" horiz-adv-x="673" d="M53 150q0 -346 455 -594q8 -4 14 -5q14 0 15 19q0 41 -56 92q-82 76 -147 168q-74 100 -74 152q0 32 37 36q100 12 149 62q61 61 62 151q0 92 -59.5 153.5t-151.5 61.5q-90 0 -156 -61q-84 -78 -84 -154q0 -4 -2 -31.5t-2 -49.5zM225 231q0 68 72 68q63 0 63 -68t-63 -67 q-72 0 -72 67z" />
<glyph horiz-adv-x="4" d="M-1640 -520q0 186 128 310t316 124q229 0 362 -184q131 184 363 184q190 0 317 -123t127 -311q0 -176 -130 -304t-306 -128q-94 0 -164 47q-80 53 -80 141q0 78 82 78q25 0 72 -53.5t96 -53.5q109 0 189 82t80 191q0 117 -84 194.5t-199 77.5q-111 0 -197 -71.5 t-86 -178.5v-47q0 -6 -2 -16v-17q-18 -164 -146 -269t-294 -105q-193 0 -318.5 121.5t-125.5 310.5zM-1481 -520q0 -115 85 -194t200 -79q109 0 195 72t86 178v45q0 106 -86 178t-195 72q-115 0 -200 -77.5t-85 -194.5z" />
<glyph horiz-adv-x="6" d="M-1589 -520q0 190 119.5 305t310.5 115q219 0 350 -174q135 174 356 174q193 0 314 -115t121 -305t-121 -306t-314 -116q-221 0 -356 176q-131 -176 -350 -176q-188 0 -309 116.5t-121 305.5zM-1423 -520q0 -115 74.5 -188.5t189.5 -73.5q119 0 194.5 72.5t75.5 189.5 t-75.5 190.5t-194.5 73.5q-115 0 -189.5 -75t-74.5 -189zM-725 -520q0 -117 78 -189.5t194 -72.5q115 0 192 73.5t77 188.5t-77 189.5t-192 74.5q-121 0 -196.5 -71.5t-75.5 -192.5z" />
<glyph horiz-adv-x="4" d="M-985 -688q0 76 84 76q45 0 67 -41q80 -147 250 -148q201 0 226 99q0 100 -164 96q-86 -2 -86 78t80 82q49 2 77 4q94 14 89 88q-51 98 -222 98q-68 0 -137 -31q-84 -35 -90 -92q25 -29 25 -55q0 -72 -91 -72q-106 0 -96 141q6 55 41 107q113 162 348 162q121 0 226 -51 q117 -59 151 -164l2 -19q4 -16 4 -47q0 -92 -61 -153q73 -72 63 -181q-29 -250 -385 -250q-264 0 -391 230q-10 20 -10 43z" />
<glyph horiz-adv-x="4" d="M-1108 -524q0 184 127 308t315 124q193 0 319 -122t126 -310q0 -190 -128 -313.5t-317 -123.5q-184 0 -313 125t-129 312zM-948 -524q0 -66 30 -123q20 86 93 142t159 56q92 0 164 -55t90 -143q31 57 31 123q0 115 -84 192.5t-201 77.5q-115 0 -198.5 -78t-83.5 -192z M-762 -705q0 -96 96 -96q41 0 70 27.5t29 68.5q0 92 -99 93q-96 0 -96 -93zM-614 -795q6 0 14 -2h31q10 2 18 2q-29 -6 -33 -6t-30 6z" />
<glyph horiz-adv-x="4" d="M-1931 -674q205 -188 688 -170q160 6 172 84l-2 520q0 141 164 189l4 -651q0 -303 -338 -304q-53 0 -115 9q-315 6 -565 307q-6 8 -8 16zM-823 -731l4 670q162 -45 162 -207l-2 -465q-1 -234 69 -275q-233 27 -233 277zM-551 -702l2 651q168 -45 166 -189l-6 -493 q0 -18 2 -27q10 -78 172 -84q483 -18 688 170q-2 -8 -16 -22q-264 -299 -557 -301q-63 -8 -115 -9q-336 0 -336 304z" />
<glyph horiz-adv-x="4" d="M-1108 -528q0 254 176 372q27 18 47 19q82 0 82 -84q0 -39 -37 -66q-109 -76 -108 -241q0 -115 84 -194t198 -79q117 0 201 79t84 194q0 197 -104 233q-37 14 -80 -13.5t-58 -31.5q-33 0 -58.5 25.5t-25.5 58.5q0 29 23 53q68 74 172 74q168 0 250 -186q41 -94 41 -213 q0 -186 -128 -309.5t-317 -123.5q-190 0 -316 122t-126 311z" />
<glyph horiz-adv-x="4" d="M-1087 -528q0 254 176 372q27 18 47 19q82 0 82 -84q0 -39 -37 -66q-109 -76 -109 -241q0 -115 84 -194t199 -79q109 0 190.5 72t92.5 178q-66 -41 -134 -41q-94 0 -162.5 66.5t-68.5 163.5q0 94 71.5 163.5t166.5 69.5q158 0 239 -170q49 -104 49 -229 q0 -186 -128 -309.5t-316 -123.5q-190 0 -316 122t-126 311zM-567 -362q0 -68 71 -68q74 0 74 68q0 72 -74 71q-20 0 -41 -14l-16 -17q-14 -25 -14 -40z" />
<glyph horiz-adv-x="4" d="M-1067 -500q0 244 205 365q18 25 61 24q37 0 62.5 -30.5t17.5 -65.5q20 -74 96 -74q88 0 99 78q-2 10 4 35q10 57 78 57q37 0 59 -24q205 -125 205 -365q0 -186 -128 -310t-317 -124q-190 0 -316 123t-126 311zM-907 -500q0 -117 84 -194.5t198 -77.5q117 0 201 77.5 t84 194.5q0 92 -63 174q-82 -117 -222 -116q-137 0 -219 116q-63 -74 -63 -174z" />
<glyph horiz-adv-x="4" d="M-1659 -690q0 78 84 78q45 0 68 -41q80 -147 254 -148q115 0 197.5 79t82.5 194q0 119 -82 195.5t-198 76.5q-72 0 -138 -31q-82 -35 -92 -96q18 -20 19 -47q0 -31 -26 -57.5t-56 -26.5q-45 0 -72 40t-27 87q0 72 39 129q113 162 353 162q229 0 360 -183q133 182 365 183 q190 0 316 -122t126 -310q0 -176 -127 -304.5t-305 -128.5q-190 0 -242 164q-6 16 -6 27q0 76 86 76q25 0 72 -53.5t94 -53.5q109 0 188.5 82t79.5 191q0 115 -84 193.5t-198 78.5q-115 0 -199 -79t-84 -193q0 -186 -128 -309.5t-314 -123.5q-266 0 -394 230q-12 20 -12 41z " />
<glyph horiz-adv-x="4" d="M-1092 -528q0 254 179 372q25 18 47 19q82 0 82 -84q0 -39 -37 -66q-106 -74 -107 -241q0 -61 25 -115q23 90 93.5 147.5t162.5 57.5q94 0 163.5 -56.5t92.5 -148.5q29 53 29 115q0 197 -105 233q-37 14 -81 -13.5t-56 -31.5q-31 0 -56.5 25.5t-25.5 56.5t22 55 q68 74 172 74q168 0 246 -186q43 -98 43 -213q0 -188 -127 -310.5t-315 -122.5t-317.5 122t-129.5 311zM-748 -700q0 -41 29 -71t72 -30t71.5 30t28.5 71q0 43 -28.5 72.5t-71.5 29.5t-72 -29.5t-29 -72.5z" />
<glyph d="M-1653 -520q0 254 176 375q27 16 50 16q80 0 79 -84q0 -39 -34 -66q-111 -74 -111 -241q0 -115 85 -194t200 -79t199.5 79t84.5 194q0 199 -106 233q-35 14 -79 -14.5t-56 -30.5q-35 0 -60.5 25.5t-25.5 58.5q0 29 22 55q68 72 172 72q256 0 293 -371q2 -4 2 -28 q0 -115 85 -194t200 -79t197.5 79t82.5 194q0 113 -78.5 192.5t-191.5 79.5q-45 0 -91 -52t-73 -52q-84 0 -84 78q0 86 82 139q72 49 164 49q180 0 307 -127t127 -307q0 -184 -127 -308t-315 -124q-231 0 -367 186q-135 -186 -364 -186q-190 0 -317.5 121.5t-127.5 310.5z " />
<glyph horiz-adv-x="4" d="M-979 -711q0 98 68.5 165t167.5 67q96 0 158.5 -66.5t74.5 -165.5q6 -37 39 -82q119 12 119 74q0 80 -158 182l-235 154q-8 4 -27 18q-57 59 -57 140q0 186 200 188q14 0 31 -2q162 -31 176 -178q8 -86 -82 -86q-31 0 -69.5 49t-57.5 57q-29 -6 -35 -14q-8 -29 2 -49 q147 -86 287 -193q174 -135 182 -213q6 -51 7 -63q0 -102 -117 -176q29 -20 92 -21q119 0 162 49q-66 -152 -240 -151q-150 0 -209 74q-20 0 -207 -7q-180 -6 -254 158q-18 20 -18 92zM-817 -711q0 -68 74 -67l104 -17q-8 16 -37 109q-8 47 -67 47q-74 0 -74 -72z" />
<glyph horiz-adv-x="4" d="M-807 1165q0 127 98 213q-98 88 -98 209q0 127 100.5 207t225.5 66q354 -39 635 -295q174 -156 211 -258q-172 205 -494 329q-254 94 -358 82q-61 0 -110.5 -35.5t-49.5 -95.5q0 -55 51 -92t109 -37q113 0 208 -69q33 -25 33 -62q0 -88 -82 -88q-20 0 -43 16 q-55 41 -116 41t-110.5 -35.5t-49.5 -95.5q0 -98 123 -131q43 -12 88 -12q98 0 135 88q59 0 59 -88q0 -55 -43 -84q-76 -49 -196 -49q-129 0 -227.5 75.5t-98.5 200.5z" />
<glyph horiz-adv-x="274" d="M0 -717v2355q0 100 70.5 172t171.5 72h1388q311 0 613 -258q237 -205 319 -416q-446 514 -987 514h-1333q-82 0 -82 -84v-2355q0 -84 82 -84h954q-53 -160 -186 -160h-768q-102 0 -172 70t-70 174z" />
<glyph horiz-adv-x="339" d="M57 1540q0 274 187 272l1085 -8l-6 -151l-1079 -2q-70 0 -70 -125v-2247q0 -113 70 -113h22l-2 -165h-20q-184 0 -185 272z" />
<glyph horiz-adv-x="878" d="M-811 1419q0 252 231 371q174 90 453 96q213 2 317 -141q162 141 347 141q178 0 366 -147q-90 27 -196 26q-352 0 -535 -276l-12 -16v-1399q0 -82 -78 -82q-82 0 -82 82v1423q0 20 21.5 56t21.5 57q0 37 -61 73q-33 16 -97 29l-73 10q-463 -20 -463 -303q0 -279 262 -311 q70 -10 129 23.5t59 103.5q0 43 -30 96q10 4 20 4q53 0 98 -39t45 -90q0 -20 -8 -43q-70 -180 -323 -180q-184 0 -298 124t-114 312z" />
<glyph horiz-adv-x="346" d="M-1112 -539q0 219 152.5 364.5t371.5 145.5q223 0 375 -144.5t152 -365.5q0 -223 -152 -367.5t-375 -144.5q-221 0 -372.5 144.5t-151.5 367.5zM-950 -539q0 -150 107.5 -251t254.5 -101q150 0 256.5 101t106.5 251q0 147 -106.5 249t-256.5 102q-147 0 -254.5 -101.5 t-107.5 -249.5zM-446 -911l73 100q55 -39 193 -39h104q78 0 78 80v1548q0 82 80 82t80 -82v-1548q0 -100 -68.5 -171t-169.5 -71h-104q-100 0 -158 25q-37 16 -108 76z" />
<glyph horiz-adv-x="299" d="M-1405 -494q68 -156 180 -213q135 -68 232 15q53 66 112 131l58 135q72 158 297 115l-144 -289q-211 -424 -508 -274q-195 98 -227 274q-4 47 0 106zM-674 -573q0 176 91 329.5t249 218.5q47 20 78 13q-227 -217 -227 -488q0 -150 73 -248q82 -113 226 -112h106 q78 0 78 84v1562q0 82 82 82q80 0 80 -82v-1562q0 -100 -68.5 -172t-171.5 -72h-106q-219 0 -354.5 114.5t-135.5 332.5z" />
<glyph horiz-adv-x="409" d="M-2370 -981q49 -4 136 -4q584 0 931 362l175 181q31 195 179 318.5t347 123.5q225 0 378.5 -146.5t153.5 -371.5t-153.5 -371.5t-378.5 -146.5q-176 0 -318.5 102.5t-191.5 271.5l-111 -112q-270 -270 -753 -270q-248 0 -394 63zM-971 -518q0 -152 108.5 -253t260.5 -101 q150 0 258 101t108 253t-108.5 254t-257.5 102q-152 0 -260.5 -102.5t-108.5 -253.5zM-446 -911l73 100q55 -39 191 -39h104q80 0 80 80v1548q0 82 78 82q82 0 82 -82v-1548q0 -100 -69.5 -171t-170.5 -71h-104q-98 0 -158 25q-35 16 -106 76z" />
<glyph horiz-adv-x="4" d="M-2327 -969q49 -4 134 -4q575 0 921 357l172 178q31 195 176.5 316.5t343.5 121.5q221 0 373 -144.5t152 -367.5q0 -221 -151.5 -365.5t-373.5 -144.5q-174 0 -315 100.5t-188 268.5l-111 -111q-266 -268 -745 -268q-244 0 -388 63zM-944 -512q0 -147 106.5 -248.5 t257.5 -101.5q147 0 254 101.5t107 248.5q0 150 -106.5 251t-254.5 101q-152 0 -258 -101t-106 -251z" />
<glyph horiz-adv-x="6" d="M-1831 -657q215 -201 657 -183q188 8 203 92q2 8 2 29l-6 516q-2 150 166 197l4 -682q0 -317 -338 -318q-393 0 -672 324zM-729 0q162 -47 162 -221l-2 -494q-3 -250 71 -293q-231 33 -231 295v713zM-500 -688l4 682q168 -47 166 -197l-6 -516q0 -20 2 -29 q14 -84 203 -92q442 -18 657 183l-16 -25q-279 -324 -672 -324q-338 0 -338 318z" />
<glyph d="M-946 -436q100 -92 196 -92q115 0 152 98q14 70 31 141l-6 123q-4 145 161 199l2 -273q2 -397 -252 -397q-164 0 -247 121q-18 33 -37 80z" />
<glyph horiz-adv-x="6" d="M-1688 -657q216 -201 658 -183q188 8 203 92q2 8 2 29l-6 516q-2 150 165 197l4 -682q0 -317 -337 -318q-393 0 -672 324zM-520 -688l4 682q168 -47 166 -197l-6 -516q0 -20 2 -29q14 -84 202 -92q443 -18 658 183l-17 -25q-279 -324 -671 -324q-338 0 -338 318z" />
<glyph horiz-adv-x="102" d="M-348 -387q0 92 60.5 153.5t152.5 61.5t155.5 -61.5t63.5 -153.5q0 -90 -64.5 -152.5t-154.5 -62.5t-151.5 62.5t-61.5 152.5zM-201 -387q0 -68 66 -68q70 0 69 68q1 68 -69 68q-66 0 -66 -68z" />
<glyph horiz-adv-x="4" d="M-1888 1165q0 127 98 213q-98 88 -98 209q0 115 81 197t197 82q121 0 256 -70q127 -66 213 -160q156 252 455 252q223 0 374.5 -144.5t151.5 -365.5t-153.5 -366.5t-372.5 -145.5q-221 0 -372.5 144.5t-151.5 367.5q0 111 47 215q-233 129 -365 129q-25 0 -41 -4 q-61 0 -110.5 -35.5t-49.5 -95.5q0 -55 51.5 -92t108.5 -37q113 0 209 -69q33 -25 33 -62q0 -88 -82 -88q-20 0 -43 16q-55 41 -117 41q-61 0 -110.5 -35.5t-49.5 -95.5q0 -98 125 -131q41 -12 86 -12q98 0 136 88q59 0 59 -88q0 -55 -43 -84q-76 -49 -197 -49 q-129 0 -227 75.5t-98 200.5zM-1051 1378q0 -156 105.5 -254t259.5 -98q150 0 256 100t106 252q0 147 -106.5 249t-255.5 102q-154 0 -259.5 -98.5t-105.5 -252.5z" />
<glyph horiz-adv-x="4" d="M-1909 1165q0 127 99 213q-98 88 -99 209q0 115 81 197t198 82q121 0 256 -70q127 -66 213 -160q156 252 454 252q223 0 375 -144.5t152 -365.5q0 -47 -13 -106q254 -137 347 -303q2 -3 2 -15q-111 123 -301 226q-25 14 -66 26q-53 -156 -191.5 -248t-304.5 -92 q-221 0 -372.5 144.5t-151.5 367.5q0 119 49 215q-268 145 -407 125q-61 0 -110.5 -35.5t-49.5 -95.5q0 -55 51 -92t109 -37q113 0 209 -69q33 -25 32 -62q0 -88 -82 -88q-20 0 -43 16q-55 41 -116 41t-110.5 -35.5t-49.5 -95.5q0 -98 125 -131q41 -12 86 -12q98 0 135 88 q59 0 60 -88q0 -55 -43 -84q-76 -49 -197 -49q-129 0 -227.5 75.5t-98.5 200.5zM-1069 1378q0 -133 90 -231q20 205 377 205q133 0 256 -29q2 14 2 55q0 147 -106.5 249t-256.5 102t-256 -101.5t-106 -249.5zM-842 1051q61 -25 135 -25q234 0 332 209q-25 4 -176 6 q-287 10 -287 -170q0 -4 -4 -8v-12z" />
<glyph horiz-adv-x="6" d="M-1647 -657q216 -201 658 -183q188 8 203 92q2 8 2 29l-7 516q-2 150 166 197l4 -682q0 -317 -337 -318q-393 0 -672 324zM-500 -688l4 682q168 -47 166 -197l-6 -516q0 -20 2 -29q14 -84 203 -92q442 -18 657 183l-16 -25q-279 -324 -672 -324q-338 0 -338 318z" />
<glyph horiz-adv-x="4" d="M-1108 1378q0 223 150.5 366.5t373.5 143.5t375 -144.5t152 -365.5t-152.5 -366.5t-374.5 -145.5q-221 0 -372.5 144.5t-151.5 367.5zM-948 1378q0 -156 105.5 -254t258.5 -98q150 0 257.5 100t107.5 252q0 147 -107.5 249t-257.5 102q-154 0 -259 -98.5t-105 -252.5z M-57 1692q0 78 56 134t134 56q80 0 135.5 -56t55.5 -134t-55.5 -133.5t-135.5 -55.5t-135 53.5t-55 135.5zM88 1692q0 -41 45 -41t45 41q0 45 -45 45t-45 -45z" />
<glyph d="M-1851 1165q0 127 98 213q-98 88 -98 209q0 127 100 207t225 66q354 -39 471 -181q23 -69 181 -221q-215 152 -300 178q-254 94 -358 82q-61 0 -110.5 -35.5t-49.5 -95.5q0 -55 51.5 -92t108.5 -37q113 0 209 -69q33 -25 33 -62q0 -88 -82 -88q-20 0 -43 16 q-55 41 -117 41q-61 0 -110.5 -35.5t-49.5 -95.5q0 -98 123 -131q43 -12 88 -12q98 0 135 88q59 0 60 -88q0 -55 -43 -84q-76 -49 -197 -49q-129 0 -227 75.5t-98 200.5zM-1110 1378q0 223 150.5 366.5t373.5 143.5t375 -144.5t152 -365.5t-153 -366.5t-374 -145.5 t-372.5 144.5t-151.5 367.5zM-950 1378q0 -156 105.5 -254t258.5 -98q152 0 258.5 100t106.5 252q0 147 -106.5 249t-258.5 102q-154 0 -259 -98.5t-105 -252.5zM-829 1364q0 -104 68.5 -173t172.5 -69q109 0 177.5 66.5t68.5 175.5t-65.5 179.5t-174.5 70.5 q-111 0 -179 -69.5t-68 -180.5zM-739 1364q0 72 46 118t118 46q70 0 113.5 -46t43.5 -118t-46 -116t-116 -44q-68 0 -113.5 46t-45.5 114zM-657 1376q0 -70 69 -69q70 -1 70 69q0 72 -68 72q-72 0 -71 -72z" />
<glyph d="M-1683 1094q299 492 548 682q195 113 453 112q213 0 354 -84v2q254 -162 277 -477l-172 -18q-2 406 -547 434q-174 8 -305 -76q-55 -35 -608 -575zM-1204 1300q0 111 110 244v12q-20 -33 -16 -32l27 22q123 106 307 107q168 0 301 -78q156 -90 186 -236l365 -393 l-475 287l-50 51q-49 74 -120 133q-80 66 -191 70q-45 2 -123 -21q-53 -14 -91 -54t-38 -93q0 -33 19.5 -72t46.5 -53q88 -47 201 -49l-5 -166q-158 2 -294 80q-160 94 -160 241z" />
<glyph horiz-adv-x="727" d="M-811 1419q0 252 231 371q174 90 453 96q213 2 317 -141q162 141 347 141q178 0 366 -147q-90 27 -196 26q-352 0 -535 -276l-12 -16v-1399q0 -82 -78 -82q-82 0 -82 82v1423q0 20 21.5 56t21.5 57q0 37 -61 73q-33 16 -97 29l-73 10q-463 -20 -463 -303q0 -279 262 -311 q70 -10 129 23.5t59 103.5q0 43 -30 96q10 4 20 4q53 0 98 -39t45 -90q0 -20 -8 -43q-70 -180 -323 -180q-184 0 -298 124t-114 312z" />
<glyph horiz-adv-x="274" d="M20 -717v2355q0 100 71 172t171 72h588q160 0 299 -84q113 -68 113 -100q-170 25 -394 24h-606q-82 0 -82 -84v-2355q0 -84 82 -84h1405q82 0 82 84v699q0 80 82 79q78 0 78 -79v-699q0 -100 -71 -172t-171 -72h-1405q-102 0 -172 70t-70 174z" />
<glyph horiz-adv-x="6" d="M-1217 -217q37 57 48 70q31 41 57 57q102 74 248 74q236 0 317 -162q27 -51 27 -111q0 -39 -12 -71l10 -11q63 -41 139 -41q63 0 113 29q57 35 57 94t-57 92q-49 29 -113 29h-45l-47 143q57 8 92 9q100 0 182 -37q94 -43 135 -125q25 -51 25 -111q0 -186 -207 -252 q-63 -18 -135 -18q-82 0 -172 33q-43 20 -72 39q-98 -72 -237 -72q-82 0 -158 27v-173q31 0 90 -2h92h564v127q106 0 170.5 -25.5t64.5 -94.5v-48q-12 -94 -125 -110h-893q-137 0 -137 113v43q0 18 2 53v51v43q0 16 2 47v45v107l76 24l94 35v-51l18 -23q63 -41 140 -41 q63 0 112 29q57 35 58 94q0 61 -58 94q-47 27 -112 27q-63 0 -135 -39q-18 -12 -50 -57q-35 8 -168 47z" />
<glyph horiz-adv-x="6" d="M-1186 -211q37 57 47 70q31 41 58 57q102 74 247 74q236 0 318 -162q27 -51 27 -111q0 -90 -59.5 -156.5t-149.5 -95.5q-63 -18 -136 -18q-82 0 -157 27v-172q31 0 90 -2h92h563v217q106 -90 119.5 -140.5t73.5 -64.5l-19 -72q-4 -111 -63 -92h-893q-137 0 -137 113v43 q0 16 2 51v51v45q2 66 2 92v107l76 24l94 35v-51l18 -23q63 -41 139 -41q63 0 113 29q57 35 57 94q0 61 -57 95q-47 27 -113 26q-63 0 -135 -39q-18 -12 -49 -57q-35 8 -168 47z" />
<glyph horiz-adv-x="358" d="M-1061 -506q0 209 142.5 351.5t353.5 142.5q209 0 351 -142.5t142 -351.5q0 -92 -24 -174l125 -78v1594h182v-1708q20 -106 -94 -107q-33 0 -60 6l-274 117q-139 -145 -348 -145q-207 0 -351.5 144t-144.5 351zM-868 -506q0 -152 82 -229q63 92 65 200q5 140 -65 246 q-82 -72 -82 -217zM-666 -223q63 -129 64 -275q0 -145 -64 -288q43 -27 101 -27q131 0 218 87t87 220q0 135 -85 220t-220 85q-18 0 -101 -22z" />
<glyph horiz-adv-x="4" d="M-1067 -520q0 186 127 310t315 124q193 0 319 -123t126 -311q6 -41 6 -51q0 -35 -4 -45q117 -88 121 -238q2 -82 -80 -82q-76 0 -82 78q-2 63 -39 98q-2 0 -12 -2h-9q-55 -39 -129 -39q-94 0 -164.5 67.5t-70.5 162.5q0 96 68.5 162.5t164.5 66.5q-78 94 -215 94 q-115 0 -198.5 -77.5t-83.5 -194.5q0 -96 60.5 -170t154.5 -92q61 -14 61 -78q0 -43 -28.5 -67.5t-71.5 -12.5q-152 37 -244 151.5t-92 268.5zM-481 -571q0 -68 73 -68q29 0 52 18q0 8 4 17q10 28 10 61q-23 39 -66 39q-74 0 -73 -67z" />
<glyph horiz-adv-x="4" d="M-1733 -477q0 4 63.5 51t72.5 57q78 121 139 170q133 102 274 103q229 0 361 -183q133 182 362 183q193 0 319 -122t126 -310q0 -186 -128 -309.5t-317 -123.5q-229 0 -362 183q-131 -182 -361 -183q-92 0 -172 35q-76 18 -125 81t-49 140q0 98 68.5 164t167.5 66 q96 0 164.5 -66.5t68.5 -163.5q0 -31 -10 -73q168 68 168 221v57q-14 106 -95 175t-186 69q-70 0 -131 -35q-47 -25 -153 -141q-57 -61 -158 -62q-47 0 -107 17zM-1368 -705q0 -41 63 -67q84 -1 84 67t-73 68q-74 0 -74 -68zM-741 -500v-57q14 -106 94 -175t186 -69 q117 0 201 79t84 194t-84 193.5t-201 78.5q-109 0 -187.5 -68.5t-92.5 -175.5z" />
<glyph horiz-adv-x="6" d="M-1083 -324q0 119 137 201q125 74 297 74q229 0 338 -113q20 -18 37 -51l-164 -72q-76 74 -215 74q-76 0 -135 -20q-90 -29 -91 -93q0 -57 91 -86q63 -23 129 -22q143 0 223 82l194 -86q-76 -49 -116 -74q-66 -39 -123 -57l-21 -6h191v-220h143v-172h-346v213 q-70 -18 -139 -18q-147 0 -293 76l94 133q-135 47 -195 127q-37 53 -36 110zM-817 -528q70 -131 158 -131q82 0 145 98v16q-53 -65 -139 -65q-102 0 -158 73z" />
<glyph d="M-1823 -524q0 186 118 305t302 119q197 0 307 -119l25 -27l18 21q111 123 301 123q182 0 306 -123t124 -305q0 -180 -122.5 -305.5t-303.5 -125.5q-174 0 -298.5 128t-124.5 303q0 57 12 110q-23 51 -53 82q-76 74 -191 74q-113 0 -186.5 -74t-73.5 -186 q0 -113 73.5 -187.5t186.5 -74.5q41 0 94 12l56 -154q-82 -23 -150 -22q-184 0 -302 120.5t-118 305.5zM-999 -530q2 -115 72.5 -182.5t185.5 -67.5q111 0 180 70.5t69 179.5q0 115 -70.5 186.5t-185.5 71.5t-184 -72t-67 -186z" />
<glyph horiz-adv-x="1181" d="M45 381q0 215 140.5 353t363.5 138q293 0 471 -317l-129 -70q-139 240 -342 240q-154 0 -252 -98.5t-98 -245.5t98 -245.5t252 -98.5h26q8 -4 19 -4l16 4q59 25 193 65q201 6 201 -161q0 -37 -15 -78q-90 -178 -457 -195q-168 -8 -333 62v-320q0 -100 98 -100h477 q35 0 78 8q14 6 14 27q-23 33 -135 32l27 146h49q209 0 209 -182v-5q0 -174 -199 -174h-596q-76 0 -129 62.5t-45 136.5v397q0 145 90 146q104 0 105 -31q143 -53 290 -53q248 0 310 98q2 12 2 19q0 14 -25 14q-16 0 -57 -21l-57 -26q-35 -16 -62 -19h-94 q-223 0 -363.5 139.5t-140.5 356.5zM279 -512h223v195h153v-277q-2 4 -2 39q-2 -86 -125 -117h-125q-82 2 -124 2v158z" />
<glyph d="M-1333 -758l319 27q98 -29 129 -29q53 0 54 51q0 53 -62 54q-6 2 -25 0q-61 -8 -106 45q-27 34 -27 104q-2 182 120 300t304 118t298 -118t116 -300q0 -319 -266 -432l-76 145q182 72 182 287q0 111 -71.5 183.5t-182.5 72.5q-113 0 -187.5 -71.5t-74.5 -184.5v12h2 q90 0 152.5 -63.5t62.5 -153.5t-62.5 -153.5t-152.5 -63.5q-82 0 -446 170z" />
</font>
</defs>
</svg>
