<?xml version="1.0" standalone="no"?>
<!DOCTYPE svg PUBLIC "-//W3C//DTD SVG 1.1//EN" "http://www.w3.org/Graphics/SVG/1.1/DTD/svg11.dtd" >
<svg xmlns="http://www.w3.org/2000/svg" xmlns:xlink="http://www.w3.org/1999/xlink" version="1.1">
<metadata></metadata>
<defs>
<font id="kawsai-24asa" horiz-adv-x="4" >
<font-face units-per-em="2048" ascent="1638" descent="-410" />
<missing-glyph horiz-adv-x="1024" />
<glyph unicode="&#xd;" horiz-adv-x="1024" />
<glyph unicode=" "  horiz-adv-x="1024" />
<glyph unicode="&#x09;" horiz-adv-x="1024" />
<glyph unicode="&#xa0;" horiz-adv-x="1024" />
<glyph unicode="!" horiz-adv-x="1456" d="M4 274q0 39 47 39q23 0 35 -6l23 -12q29 -41 104 -41h332q39 6 57 16q31 18 47 41q8 10 8 25l7 29q0 57 -33 102q-25 25 -37 30t-30.5 7t-37.5 4v-8h-18t-25 2q-20 0 -28 -4l-17 -90q-2 -12 -18.5 -17.5t-40.5 -5.5q-78 0 -145.5 -1t-124.5 -1q-68 0 -93 45 q-12 23 -12 57q0 80 102 170q115 102 261 103q96 0 176 -43t129 -111q45 -41 57 -105.5t12 -129.5q0 -51 -12 -88l39 -23q10 -4 51 -4h332q39 6 57 16q31 18 47 41q14 27 15 58q0 53 -15.5 76.5t-37.5 39.5q-31 23 -66 23h-217q-43 0 -78 46t-35 95q0 43 33 76 q29 25 50.5 29t62.5 4q150 0 268.5 -117.5t118.5 -271.5q0 -164 -117 -269q-104 -96 -248 -96q-86 0 -168 33q-78 41 -149 127q-59 -78 -136 -120t-169 -42q-143 0 -261 104q-102 94 -102 168zM143 508q35 -41 95 -41q67 0 114 41h-209z" />
<glyph unicode="&#x22;" horiz-adv-x="628" d="M-47 989l84 92q45 49 80 95.5t55 83.5q31 55 49.5 101t34.5 99l35 117l115 -68l-66 -96l-117 -182l-53 -101l-49 -98q-12 -16 -25 -45q-14 -18 -30 -65zM174 946l70 101l121 188l49 98l49 94l24 46q6 12 14.5 27.5t12.5 33.5l115 -68l-82 -88q-94 -104 -134 -174.5 t-85 -204.5l-37 -120z" />
<glyph unicode="#" horiz-adv-x="1476" d="M6 389q0 133 100 242q111 123 289 123q82 0 174 -49q76 -45 123 -109q86 86 115 104q84 53 207 54q133 0 241 -101q119 -109 119 -264q0 -156 -118.5 -272.5t-268.5 -116.5h-31q-25 0 -42 6t-40 27q-33 33 -32 78q0 53 34.5 100t77.5 47l217 -4q31 0 61 18.5t44 38.5 l10 27l4 51q0 33 -15 58.5t-40 39t-64 19.5h-333q-27 0 -50 -8l-38 -19l10 -43l2 -47q0 -176 -116 -282.5t-273 -106.5q-156 0 -269 125q-98 115 -98 264zM96 373q0 -43 29 -84l43 -31l61 -8h318q45 0 63.5 9t40.5 32q33 45 33 102l-6 29q0 14 -8 24q-16 27 -41 39.5 t-64 18.5h-334q-43 0 -61 -10q-18 -6 -43 -31l-21 -37zM244 377q0 -20 14 -41l23 -17l30 -4h158l31 4l22 17q13 18 17 51l-4 14q-2 10 -5 13q-8 14 -22 20l-29 8h-168q-23 0 -30 -4l-21 -16l-10 -19z" />
<glyph unicode="$" horiz-adv-x="1474" d="M4 389q0 127 98 242q111 123 287 123q82 0 174 -49q76 -45 123 -109q49 72 123 111q88 47 199 47q143 0 253.5 -108.5t110.5 -256.5q0 -158 -109.5 -273.5t-254.5 -115.5q-213 0 -324 160q-49 -74 -137 -119q-20 -10 -40 -17.5t-55.5 -15.5t-84.5 -8q-152 0 -257.5 118 t-105.5 271zM90 373q0 -43 29 -84l43 -31l61 -8h318q45 0 63.5 9t40.5 32q33 45 33 102l-6 29q0 14 -8 24q-16 27 -41 39.5t-64 18.5h-334q-43 0 -61 -10q-18 -6 -43 -31l-21 -37zM238 377q0 -20 14 -41l22 -17l31 -4h158l31 4l22 17q12 18 16 51l-4 14q-2 10 -4 13 q-8 14 -22 20l-29 8h-168q-23 0 -31 -4l-20 -16l-10 -19zM741 475q20 -72 21 -104q0 -35 -19 -97l31 -18q16 -6 55 -6h318q45 0 63.5 9t40.5 32q33 45 33 102l-6 29q0 14 -8 24q-16 27 -41 39.5t-64 18.5h-334q-33 0 -51 -8z" />
<glyph unicode="%" horiz-adv-x="1476" d="M6 389q0 133 100 242q111 123 289 123q82 0 174 -49q76 -45 123 -109q86 86 115 104q84 53 207 54q133 0 241 -101q119 -109 119 -264q0 -156 -118.5 -272.5t-268.5 -116.5h-31q-25 0 -42 6t-41.5 29.5t-30.5 74t-13 95.5q0 27 13 45q20 29 56 60.5t56 31.5h187 q43 0 64.5 -37t27.5 -33q29 18 43 39l10 27l4 51q0 33 -15 58.5t-40 39t-64 19.5h-333q-27 0 -50 -8l-38 -19l10 -43l2 -47q0 -176 -116 -282.5t-273 -106.5q-156 0 -269 125q-98 115 -98 264zM96 373q0 -43 29 -84l43 -31l61 -8h318q45 0 63.5 9t40.5 32q33 45 33 102 l-6 29q0 14 -8 24q-16 27 -41 39.5t-64 18.5h-334q-43 0 -61 -10q-18 -6 -43 -31l-21 -37zM244 377q0 -20 14 -41l23 -17l30 -4l158 21q14 -8 31 -17l22 17q13 18 17 51l-4 14q-2 10 -5 13q-8 14 -22 20l-29 8h-168q-23 0 -30 -4l-21 -16l-10 -19zM938 211q8 -8 37 -8 q16 0 39.5 2t52.5 6q16 0 27.5 -2t21.5 -4q14 0 25 8q-14 16 -44 31.5t-63 15.5q-37 0 -59 -14q-6 -4 -37 -35z" />
<glyph unicode="&#x26;" d="M-846 1120q0 123 85 210t212 87q119 0 208 -83t89 -214q0 -106 -72 -190q-88 -106 -225 -107q-125 0 -217 99q-80 90 -80 198zM-762 1120q0 -41 25.5 -69.5t70.5 -28.5h217q55 0 84 27q23 29 23 86q0 31 -22.5 58.5t-69.5 27.5h-219q-109 0 -109 -101zM-258 958 q0 61 45 106.5t109 45.5q51 0 99 -42t48 -110q0 -51 -35 -94q-23 -29 -41 -41t-51 -12q-41 0 -75 9t-56 32q-43 43 -43 106zM-164 958q0 -33 37 -32h43q37 -1 37 32l-8 21q-8 10 -27 10h-47q-35 0 -35 -31z" />
<glyph unicode="'" horiz-adv-x="1536" d="M66 326q0 94 96 108q90 0 96 31q0 27 -57 27q-55 0 -80 26l-21 29q-6 16 -6 45q12 29 70 84q70 57 115 57q43 0 67 -51l25 -70q12 -41 12 -80q0 -43 -13.5 -76.5t-52.5 -62.5l-32 -14l-43 -4q-70 0 -70 -68q0 -18 28.5 -37.5t71.5 -19.5l326 2q35 0 51 10l29 29l-19 39 q-18 49 -18 104q0 43 12.5 86t49 92.5t112.5 94.5q102 57 182 57l56 -6q119 0 217 -63.5t143 -176.5v14q-6 -31 -26.5 -52t-45.5 -15l-51 29l-53 10h-348q-39 -12 -51 -23l-19 -16l-16 -6l-29 -27q-35 -53 -35 -92q0 -23 9 -33l12 8q20 31 43 41q37 31 88 43l72 9l38 2h29 l47 4l64 4h30l64 -12q49 -6 98 -31l35 -19l45 -63q-31 -111 -111.5 -192t-195.5 -101h-160l-20 -168l-37 -215l-29 -205l-80 -16l-139 24h-16l-25 2q-76 12 -99.5 47t-23.5 76q0 16 2 35t45 33l43 4l56 -4q63 -12 107 -40t44 -65l-6 -18q35 186 49 279q49 279 43 282 q-63 43 -112 109q-47 -70 -136 -121q-88 -39 -180 -39q-129 0 -244 90q-123 98 -122 236zM803 281l45 -25l41 -6h330q45 0 63 9t41 32l-33 16q-47 18 -90 19l-37 8l-47 2l-96 -6l-74 -4q-43 0 -74 -13l-53 -20z" />
<glyph unicode="(" horiz-adv-x="512" d="M8 367v63q0 14 2 45t8 82q0 80 3.5 114t13.5 105q6 74 33 205q43 270 116 436h355q-92 -82 -195 -227q-111 -160 -174 -354q-76 -240 -76 -469q0 -346 154 -660q115 -227 291 -391h-355q-78 182 -123 414l-28 168q-6 49 -10.5 92t-4.5 80z" />
<glyph unicode=")" horiz-adv-x="512" d="M14 -684q92 82 195 227q111 160 174 355q76 240 76 469q0 346 -154 659q-113 229 -291 391h355q61 -141 114 -434l37 -254q12 -98 12 -170l13 -192q0 -143 -4 -241.5t-17 -197.5q-37 -342 -155 -612h-355z" />
<glyph unicode="*" horiz-adv-x="921" d="M55 379v162l129 -23l133 -14l60 -8q-47 47 -86 77q-45 37 -105 78l-65 45l115 113l75 -104l82 -107q16 -23 33 -43q0 66 -4 122t-19 124l-16 76h162l-23 -127l-14 -134l-8 -77l43 51q41 49 51 61q18 25 37 54l76 104l114 -113l-106 -75l-107 -82q-10 -10 -31.5 -21.5 t-31.5 -21.5h33q16 4 30 6q47 0 146 16l127 23v-162l-127 22l-133 17l-64 6q31 -29 67 -59.5t87 -65.5l108 -76l-116 -114l-74 108l-84 105l-45 49q4 -47 9 -94.5t13 -100.5l23 -129h-162l23 129l16 133v49q-55 -59 -113 -141l-73 -108l-117 114l108 76l105 82l41 37 q-57 0 -91 -2t-102 -15z" />
<glyph unicode="+" horiz-adv-x="1007" d="M61 406v190l123 -21l127 -16l111 -6q0 70 -6 138.5t-23 154.5l-16 74h190l-20 -125l-17 -129l-6 -113h39h33q20 4 31 4q53 0 139 18l125 21v-190l-125 22l-127 16l-115 7q0 -59 4 -107.5t19 -130.5l20 -123h-190l24 123l15 127l6 111q-59 0 -107.5 -4.5t-130.5 -18.5z " />
<glyph unicode="," horiz-adv-x="409" d="M2 147q0 57 43 104.5t111 47.5q51 0 99 -42t48 -110q0 -139 -72.5 -227t-228.5 -113l76 97l78 96q-68 0 -113 47q-41 47 -41 100zM96 147q0 14 8.5 32t28.5 20h43q12 0 29 -19q12 -18 12 -33q0 -12 -11 -30.5t-30 -18.5h-43q-18 0 -29 17z" />
<glyph unicode="-" horiz-adv-x="1007" d="M61 406v190l123 -21l127 -16q39 -4 86 -6t74 -2h31.5t21.5 2h39h33q20 4 31 4q53 0 139 18l125 21v-190l-125 22l-127 16l-115 7q-86 -2 -178 -6.5t-162 -16.5z" />
<glyph unicode="." horiz-adv-x="409" d="M8 176q0 57 43 104.5t111 47.5q51 0 99 -42t48 -110q0 -51 -35 -94q-43 -53 -112 -53q-39 0 -62.5 7t-50.5 34q-12 14 -18 22t-14.5 29.5t-8.5 54.5zM102 176q0 -33 37 -33h43q37 0 37 33q0 31 -35 31h-47q-18 0 -26 -10z" />
<glyph unicode="/" horiz-adv-x="532" d="M68 0l30 135q31 154 31 248q0 86 -31 240l-30 131h147l-10 -131l-10 -240l4 -125l6 -123l2 -57v-43q6 -25 8 -35h-147zM272 0l11 135l10 248l-6 121l-4 119l-2 57v43q-7 23 -9 31h148l-31 -131q-31 -147 -31 -240q0 -88 31 -248l31 -135h-148z" />
<glyph unicode="0" horiz-adv-x="901" d="M57 504q0 344 117 485q88 100 256 101q186 0 262 -82q104 -117 105 -490q0 -250 -68 -366q-86 -141 -309 -142q-190 0 -273 94q-90 109 -90 400zM197 518q0 -106 51 -190q70 -113 192 -113q123 0 181 115q34 75 34 192q0 139 -26 211q-47 127 -178 127q-156 0 -215 -115 q-39 -82 -39 -227z" />
<glyph unicode="1" horiz-adv-x="835" d="M63 799q0 31 9 47l6 37l94 65l125 92q74 57 115 58h77q23 0 29 -23v-817q0 -27 19.5 -44t66.5 -17h39l70 -99q25 -37 37 -86l-285 -6l-229 -4h-72l-55 4q12 45 61 127q29 45 35 82l57 -2h53q37 0 53.5 11.5t16.5 45.5v455v33q0 16 -5 27.5t-30 13.5h-287z" />
<glyph unicode="2" horiz-adv-x="835" d="M57 51q0 41 21 123l26 109q12 117 144 186l227 109q119 72 119 196q0 55 -51 76q-37 10 -111 10h-82q-45 0 -65 -4q-45 0 -84 -22l-72 -33l-43 -15l-2 13q12 43 12 67q0 84 88 158q102 80 275 80q117 0 205 -67.5t100 -162.5l2 -45l2 -36q0 -219 -160 -316l-252 -100 q-43 -25 -75 -82q-21 -45 -27 -76h242l65 -2q37 0 49 -4q27 0 41 27q6 25 29 26q25 0 25 -43l-41 -160q0 -47 -25 -53h-557q-25 0 -25 41z" />
<glyph unicode="3" horiz-adv-x="823" d="M51 244q0 35 27 47l49 8q43 0 43 -35q0 -29 18 -41q18 -6 82 -6h125q150 0 191 31t41 145q0 92 -107 119l-186 33q-23 -18 -78 -37l-53 -14l-6 41q-7 39 -25 57q33 33 221 102q123 43 123 129q0 37 -37 51.5t-78 14.5l-39 -2l-43 -2q-133 0 -165.5 -13.5t-102.5 -95.5v68 q0 49 6 55l121 137q63 57 230 58q147 0 201.5 -42t54.5 -147q0 -184 -89 -227l-137 -66q35 0 66 -2t53 -8q184 -37 184 -176q0 -240 -55 -317q-80 -104 -383 -105q-45 0 -64.5 2t-52 15.5t-80.5 66.5q-16 20 -38 70q-16 53 -17 86z" />
<glyph unicode="4" horiz-adv-x="872" d="M53 360l2 103q0 14 11 24l409 574l21 31l22 8l90 -2l8 -8l-41 -66l-126 -188q-145 -205 -181 -267l-12 -28q0 -25 12 -25h99l51 -4q12 0 26.5 12t14.5 45v148q0 25 35 39l65 26l12 11v-252q0 -18 21 -25h194q14 0 15 -41l-6 -100q0 -12 -7 -19l-6 -6h-190l-6 -16l-4 -17 l-4 -34q0 -68 12 -78l37 -23q39 -16 110 -32l21 -56l14 -37l16 -45l-270 -2l-147 -2l-142 -2l27 90l18 47l105 37l57 25l6 10l7 18l4 64v-16l-4 36q0 23 -5 27l-4 6h-370q-10 0 -17 10z" />
<glyph unicode="5" horiz-adv-x="854" d="M57 281l78 -33q31 -14 60 -23h139q221 0 275.5 18.5t54.5 116.5q0 104 -86 142q-70 29 -213 28l-99 -2h-98l-35 2q-6 6 -6 17l12 90l86 395q6 45 37 51l438 39q12 -8 15 -12l-39 -190l-21 -15q-27 -8 -73.5 -12t-132.5 -4q-141 0 -174 -22.5t-33 -106.5q0 -12 30 -19h66 l65 2q184 0 261 -45q109 -66 108 -254q0 -287 -70 -374q-35 -45 -188 -78l-84 -6h-72l-55 8l-151 18q-6 10 -9 17q-20 43 -45 110z" />
<glyph unicode="6" horiz-adv-x="835" d="M59 453q0 391 174 553q117 111 318 110h39q27 0 43 -4l61 -6l-10 -47l-18 -64q-55 -111 -86 -110q-279 0 -365 -78q-63 -57 -63 -215v-49l2 -51q0 -150 57 -209q63 -57 223 -58q102 0 145.5 31t43.5 104q0 55 -20.5 76t-61.5 21l-72 -4l-51 -2h-217l8 55l39 129 q0 18 78 33q80 8 119.5 9t64.5 1q139 0 197 -96q49 -84 49 -260q0 -178 -94 -259q-41 -33 -97 -49q-29 -8 -58.5 -12t-74.5 -4q-199 0 -272 61q-101 91 -101 394z" />
<glyph unicode="7" horiz-adv-x="849" d="M59 838q0 37 11 73l30 103q8 35 43 59.5t74 24.5l510 -6q31 0 31 -25q0 -55 -154 -356q-143 -287 -223 -394q-37 -61 -37 -108q0 -33 16 -72q41 -100 41 -143h-325q0 111 63 237q49 98 127 183l146 143q68 84 104 211l21 74q0 37 -50 37l-106 2l-109 2h-63l-64 -6z" />
<glyph unicode="8" horiz-adv-x="890" d="M53 328q0 119 39 172q18 25 180 106q-180 55 -180 230q0 100 86 180q98 86 264 86q121 0 226 -86q86 -74 86 -150q0 -117 -66 -174q-25 -18 -145 -76q141 -31 200 -90q61 -55 62 -164q0 -217 -77 -287.5t-308 -70.5q-199 0 -291 86q-76 76 -76 238zM213 852 q0 -78 36 -112.5t167 -53.5q131 12 172 51q31 25 30 88q0 49 -55 76t-162 27q-43 0 -61 -4l-78 -21q-49 -12 -49 -51zM223 336q0 -63 76 -96q49 -18 135 -19h35q20 0 50 3t71 20q86 29 86 90q0 92 -51.5 131t-184.5 39q-145 0 -190 -53l-14 -29q-12 -35 -13 -86z" />
<glyph unicode="9" horiz-adv-x="829" d="M63 788q0 147 111 232q37 27 98 47q59 16 121 16q154 0 232 -57q125 -94 125 -346q0 -233 -13 -326q-18 -164 -94 -250q-88 -100 -252 -100h-65h-39h-23h-63l-70 2h-47l31 144q23 82 71 81q248 0 344 70q119 88 119 340q0 127 -82 182q-59 35 -196 35q-109 0 -149 -16.5 t-48 -40.5l-4 -43q0 -74 72 -105q55 -25 159 -24h39h33l35 4q20 0 50 2t63 8q18 0 18 -22q0 -35 -23 -93l-32 -86l-19 -8l-26 -6l-103 -4h-63l-56 2q-129 0 -202 141q-51 113 -52 221z" />
<glyph unicode=":" horiz-adv-x="409" d="M0 606q0 57 43 104.5t111 47.5q51 0 99 -42t48 -110q0 -51 -35 -94q-43 -53 -112 -53q-39 0 -62.5 7t-50.5 34q-12 14 -18.5 22t-14.5 29.5t-8 54.5zM2 147q0 57 43 104.5t111 47.5q51 0 99 -42t48 -110q0 -51 -35 -94q-43 -53 -112 -53q-68 0 -113 47q-41 47 -41 100z M94 606q0 31 35 31h47q18 0 27 -10l8 -21q0 -33 -37 -33h-43q-37 0 -37 33zM96 147q0 31 35 31h47q18 0 27 -10l8 -21q0 -33 -37 -32h-43q-37 0 -37 32z" />
<glyph unicode=";" horiz-adv-x="409" d="M0 606q0 57 43 104.5t111 47.5q51 0 99 -42t48 -110q0 -51 -35 -94q-43 -53 -112 -53q-39 0 -62.5 7t-50.5 34q-12 14 -18.5 22t-14.5 29.5t-8 54.5zM2 147q0 57 43 104.5t111 47.5q51 0 99 -42t48 -110q0 -139 -72.5 -227t-228.5 -113l76 97l78 96q-68 0 -113 47 q-41 47 -41 100zM94 606q0 31 35 31h47q18 0 27 -10l8 -21q0 -33 -37 -33h-43q-37 0 -37 33zM96 147q0 31 35 31h47q18 0 27 -10l8 -21q0 -33 -37 -32h-43q-37 0 -37 32z" />
<glyph unicode="&#x3c;" horiz-adv-x="610" d="M0 606q0 57 43 104.5t111 47.5q51 0 99 -42t48 -110l107 15l59 8l45 8q-12 -31 -160.5 -104.5t-197.5 -73.5q-39 0 -62.5 7t-50.5 34q-12 14 -18.5 22t-14.5 29.5t-8 54.5zM2 147q0 57 43 104.5t111 47.5q51 0 99 -42t48 -110l105 15l59 8l45 8q-12 -31 -156.5 -104.5 t-199.5 -73.5q-68 0 -113 47q-41 47 -41 100zM94 606q0 31 35 31h47q18 0 27 -10l8 -21q0 -33 -37 -33h-43q-37 0 -37 33zM96 147q0 31 35 31h47q18 0 27 -10l8 -21q0 -33 -37 -32h-43q-37 0 -37 32z" />
<glyph unicode="=" horiz-adv-x="1007" d="M61 98v191l123 -21l127 -16q39 -4 86 -6t74 -2h31.5t21.5 2h39h33q20 4 31 4q53 0 139 18l125 21v-191l-125 23l-127 16l-115 6q-86 -2 -178 -6t-162 -16zM61 446v191l123 -21l127 -16q39 -4 86 -6t74 -2h31.5t21.5 2h39h33q20 4 31 4q53 0 139 18l125 21v-191l-125 23 l-127 16l-115 7q-86 -2 -178 -6.5t-162 -16.5z" />
<glyph unicode="&#x3e;" d="M-586 958q0 61 45 106.5t109 45.5q51 0 99 -42t48 -110q0 -51 -34 -94q-43 -53 -113 -53t-112 42t-42 105zM-492 958q0 -33 37 -32h43q37 -1 37 32l-8 21q-8 10 -27 10h-47q-35 0 -35 -31z" />
<glyph unicode="?" horiz-adv-x="266" d="M68 0l20 135l14 133l7 115q0 102 -21 240l-20 131h147l-20 -131q-10 -90 -13 -111q-8 -80 -8 -129q0 -104 21 -248l20 -135h-147z" />
<glyph unicode="@" horiz-adv-x="1456" d="M4 274q0 39 47 39q23 0 35 -6l23 -12q29 -41 104 -41h332q39 6 57 16q31 18 47 41q8 10 8 25l7 29q0 57 -33 102q-25 25 -43 31q-16 10 -62 10h-329q-43 0 -62 -12l-24 -27q-16 -23 -60 -23q-47 0 -47 39q0 80 102 170q115 102 261 103q96 0 176 -43t129 -111 q45 -41 57 -105.5t12 -129.5q0 -51 -12 -88l39 -23q10 -4 51 -4h332q39 6 57 16q31 18 47 41q14 27 15 58q0 53 -17 75q-8 16 -24 17q-12 0 -39 -17.5t-39 -17.5h-217q-43 0 -78 45q-10 14 -22.5 72.5t-12.5 105.5q0 43 33 76q29 25 50.5 29t62.5 4q150 0 268.5 -117.5 t118.5 -271.5q0 -164 -117 -269q-104 -96 -248 -96q-86 0 -168 33q-78 41 -149 127q-59 -78 -136 -120t-169 -42q-143 0 -261 104q-102 94 -102 168zM942 520h209q-47 41 -115 41q-59 0 -94 -41z" />
<glyph unicode="A" d="M-664 1120q0 147 35 209q47 88 166 88q209 0 209 -227l43 -16l-31 -3l-39 5l-24 20l-43 25h-68h-88q-104 0 -104 -101q0 -31 18 -61q18 -25 49 -37l9 20l2 23l26 37l41 18h47h54h47l34 -18l33 -37q0 -57 -14 -98q-47 -139 -201 -140q-117 0 -168 97q-33 76 -33 196z M-504 1022h88l35 -2l47 6q21 6 31 29l-27 16l-32 12h-54h-57l-23 -28z" />
<glyph unicode="B" horiz-adv-x="204" d="M-537 -432q0 -88 60.5 -159t161.5 -71q117 0 194 25q113 37 285 176l-19 76l-6 72l-4 182v45l-2 840h-92l-4 -592v-107q0 -233 -41 -342q-61 -178 -240 -178h-28l-31 4q-66 6 -101.5 38t-35.5 75q0 90 147 180q-119 -25 -181.5 -99.5t-62.5 -164.5z" />
<glyph unicode="C" horiz-adv-x="856" d="M20 264q0 66 43 114t115 48h184q66 0 115 -49q43 -49 43 -125q78 0 121 37q33 45 33 102l-6 29q0 14 -9 24q-16 27 -40.5 38.5t-58.5 24.5t-40 15q-4 -12 -10 -18q-45 -45 -193 -45q-23 0 -65.5 3t-50.5 3h-25q-49 0 -79 7t-77 34q31 127 134 203q55 41 170 57 q37 4 104 8q119 0 217 -98q109 -115 109 -309q0 -166 -127 -275q-113 -94 -265 -94q-135 0 -238.5 86t-103.5 180zM119 281q0 -29 35 -29h254q18 0 24 6l12 23q0 33 -36 32h-252q-37 0 -37 -32zM178 557h92h158l-66 51h-92q-41 -16 -49 -20q-27 -14 -43 -31z" />
<glyph unicode="D" horiz-adv-x="8" d="M-774 1122q0 141 96 224q85 73 202 73h3q102 0 188 -78q96 -86 97 -219q0 -141 -97 -223q-84 -72 -202 -72q-106 0 -191 76q-96 86 -96 219zM-690 1110l6 -20q0 -14 10 -25l23 -23l26 -14q0 37 27 64q10 12 29 18l51 12h94q23 0 47 -12l35 -33q10 -14 10 -49l35 29 q25 31 25 80l-4 20l-7 21l-28 28q-14 10 -54 17h-219q-31 0 -47 -9l-31 -24q-12 -12 -20 -28.5t-8 -51.5zM-561 1049q4 -12 8 -17l10 -4l17 -2h88q12 0 28 8l9 19l-5 8l-28 10h-90q-18 0 -29 -10z" />
<glyph unicode="E" horiz-adv-x="1454" d="M-6 481q0 74 90 170q102 106 213 107q125 0 211 -66q115 -86 115 -266l28 -6h45l25 6q12 135 98 233.5t219 98.5q125 0 210.5 -84t103.5 -213q-20 -14 -25 -19h-41l-53 33q-33 20 -70 27h-286l-19 2q-14 4 -43 -23q-18 -18 -18 -28l-2 -27h147l62 4l71 -2l88 -2 q80 0 131 -72l33 -73q0 -135 -82 -211t-207 -76q-119 0 -207 91t-110 228v33h-98v-33q-18 -147 -112.5 -233t-229.5 -86q-104 0 -192.5 92t-88.5 178q0 63 62.5 112.5t140.5 49.5h278h-139h205l-19 45q-12 31 -47 31h-278h-43q-27 -4 -45 -31l88 4q66 0 159 19q16 2 44 10 q-27 -16 -44 -25q-51 -29 -90 -39t-96 -10q-43 0 -76.5 4t-58.5 8q-47 0 -47 39zM98 313q0 -29 17 -47l18 -14h348h-94h94q31 0 54 41q12 28 12 53h-160h-90h-164l-18 -2q-10 0 -17 -31zM795 313q0 -10 18 -32q10 -10 27 -17h352l22 4q17 0 23 29q0 31 -23 43l-22 6h-377 h-20v-33z" />
<glyph unicode="F" horiz-adv-x="204" d="M-139 -160q104 0 155.5 42t51.5 122v963q0 80 -45 118q-51 45 -162 45q156 119 350 189q154 45 297 45q70 0 143 -12l125 -21q98 -18 170 -108t72 -185q0 -86 -60 -139q-68 -61 -204 -61q86 31 125 75q20 25 29.5 47.5t9.5 49.5q0 37 -25 73q-19 20 -68 47l-98 21l-117 8 l-86 -2h-53q-25 -6 -35 -8l-112 -19q-72 -12 -121 -55q-45 -45 -45 -117v-843q0 -184 186 -377q199 -205 420 -205q72 0 108 29q37 25 37 69q0 51 -41 101q-37 49 -114 94q119 -25 186 -105q57 -70 57 -159q0 -88 -60 -159t-161 -71q-193 0 -319 60q-100 43 -262 174z" />
<glyph unicode="G" d="M-711 -369q0 119 94.5 210t208.5 91l52 -2q12 -4 36.5 -26.5t24.5 -57.5q0 -37 -24.5 -72.5t-61.5 -35.5h-166q-23 0 -47 -12l-33 -31l-16 -45q0 -51 29 -80q27 -33 82 -33h245q55 0 82 33q18 18 45 18q29 1 29 -34q0 -55 -74 -134q-88 -82 -196 -82q-117 0 -205 70 q-104 80 -105 223z" />
<glyph unicode="H" horiz-adv-x="409" d="M90.5 1213.5q22.5 54.5 79.5 76.5h68q51 -12 76.5 -69.5t25.5 -149.5q0 -37 -12 -100q-23 -117 -37 -205q-49 -301 -49 -453l-72 4q0 129 -31 326q-23 143 -43 252q-28 145 -28 161q0 103 22.5 157.5zM119 94q0 37 24.5 61.5t61.5 24.5q31 0 61.5 -24.5t30.5 -61.5 q0 -35 -25.5 -63.5t-64.5 -28.5t-63.5 23.5t-24.5 68.5z" />
<glyph unicode="I" horiz-adv-x="882" d="M4 393q0 119 98 236q115 127 287 127q164 0 270 -125q96 -113 97 -264v-541q0 -35 24.5 -61.5t59.5 -32.5q29 0 60.5 16t60.5 45q43 -66 43 -147q0 -68 -35 -114t-107 -46q-90 0 -149 111q-43 90 -43 206v564l-2 47l-6 32q-16 27 -41 39.5t-64 18.5h-324q-45 0 -61 -10 q-18 -6 -43 -31q-33 -45 -33 -103l6 -28q0 -14 9 -25l32 -35q14 -12 47 -20q0 33 5.5 47t25 34.5t44 33t63.5 12.5h110q31 0 60.5 -18.5t44.5 -38.5l8 -35l2 -164q0 -37 -51 -82q-51 -41 -117 -41q-174 0 -287 131q-94 119 -94 262zM281 285q0 -14 12 -27q12 -6 33 -6h104 q43 0 45 33q0 28 -47 28h-100q-47 0 -47 -28z" />
<glyph unicode="J" horiz-adv-x="987" d="M39 94q0 49 33 74l26 14q29 12 64 13q61 0 94 -33q23 -27 23 -68q0 -33 -30 -65.5t-87 -32.5q-123 0 -123 98zM115 94q-1 -24 28 -26h35q23 0 29 26q0 25 -27 25h-39q-20 0 -26 -25zM346 94q0 49 33 74l27 14q29 12 63 13q61 0 94 -33q23 -27 23 -68q0 -33 -30 -65.5 t-87 -32.5q-123 0 -123 98zM422 94q0 -24 29 -26h34q23 0 29 26q0 25 -27 25h-38q-20 0 -27 -25zM645 94q0 49 33 74l27 14q29 12 63 13q61 0 94 -33q23 -27 23 -68q0 -33 -30 -65.5t-87 -32.5q-123 0 -123 98zM721 94q0 -24 29 -26h34q23 0 29 26q0 25 -27 25h-38 q-20 0 -27 -25z" />
<glyph unicode="K" horiz-adv-x="245" d="M-211 -629q0 12 39 13q43 0 92 30l33 35l-25 -2h-14q-37 0 -37 10l19 13q49 20 81 131q16 57 24.5 110t8.5 121l-6 508q0 43 -1 93t-3 108q0 65 -10 100q0 25 -27 39l-16 10l-6 8l6 11l14 12q35 20 74 20q49 0 85 -21.5t36 -57.5l-13 -3l-14 9q-12 -4 -18 -23l-5 -37 l-14 -151l-4 -113l-6 -313l6 -293v-47.5t4 -50.5l14 -76q100 94 177 94q70 0 96 -94l2 -23q0 -41 -46 -93t-124 -64l-55 -5q-66 0 -146 43l-55 -40q-49 -27 -105 -27q-61 0 -61 16zM150 -479q18 -41 77 -41q31 0 60 14q37 18 37 55q0 45 -58 45q-37 0 -62.5 -16t-53.5 -57z " />
<glyph unicode="L" horiz-adv-x="491" d="M-102 -604l6 6l24 12q25 12 58 72q41 82 41 190l2 146l2 104q0 80 16 140l2 170l2 135q0 102 -11 167.5t-46 118.5l-10 29l-2 35q0 12 18 18l37 9q49 0 69 -35q8 -12 21 -80l8 -164l-6 -211l-4 -176l-2 -78l-10 -201l-13 -252q0 -37 4 -45l13 -36v-6q0 -38 -73 -50 q-79 -12 -95 -22l-19 -2h-12l-14 2zM35 -629q0 12 39 13q43 0 92 30l33 35l-27 -2h-12q-37 0 -37 10l18 13q49 20 82 131q16 57 24.5 110t8.5 121l-6 508q0 43 -1 93t-3 108q0 65 -10 100q0 25 -27 39l-19 10l-4 8l7 11l14 12q35 20 74 20q49 0 84.5 -21.5t35.5 -57.5 l-12 -3l-14 9q-12 -4 -19 -23l-4 -37l-14 -151l-4 -113l-6 -313l6 -293v-47.5t4 -50.5l14 -76q100 94 176 94q70 0 97 -94l2 -23q0 -41 -46 -93t-124 -64l-56 -5q-66 0 -145 43l-55 -40q-49 -27 -105 -27q-61 0 -61 16zM395 -479q18 -41 78 -41q30 0 59 14q37 18 37 55 q0 45 -57 45q-37 0 -62.5 -16t-54.5 -57z" />
<glyph unicode="M" horiz-adv-x="946" d="M-74 -471q4 18 21 39l24 20l43 23q8 6 31 -17q53 -49 78 -59q14 -2 29 6q20 4 28 41l103 418q-131 0 -213 131q-66 113 -66 262q0 119 98 236q115 127 287 127q166 0 277 -125q102 -115 102 -264v-119v-105q0 -12 -27 -14q-29 0 -55 10l-16 4v105v119l-2 36 q0 16 -12.5 43t-38 39.5t-60.5 18.5h-324q-45 0 -61 -10q-18 -6 -43 -31q-33 -45 -33 -103l6 -28q0 -14 9 -25l32 -35q14 -12 47 -20q0 33 5.5 47t25 34.5t44 33t63.5 12.5h28q31 0 60.5 -18.5t44.5 -38.5l10 -134v-157l-78 -242q-29 -88 -65 -184q-76 -207 -85.5 -217.5 t-68.5 -22.5q-37 -6 -61 -6q-18 2 -27 2q-37 8 -53.5 19.5t-26.5 21.5t-22 29l-39 49q-18 25 -19 49zM281 264q0 -12 8 -20l16 -8l21 -5h22q14 0 19 5l18 8l10 24l-4 11l-37 14h-26q-25 0 -37 -12zM432 -346q0 117 66 188q68 68 170 68q88 0 155 -60q80 -67 80 -196 q0 -92 -55 -170q-68 -86 -180 -86q-98 0 -167 74.5t-69 181.5zM518 -358l4 -19l10 -26q6 -12 24.5 -23.5t55.5 -17.5h95q29 0 45 6l36 26l19 35q6 16 6 45q0 14 -4 23l-6 18q-16 23 -35 33l-47 12h-96q-49 0 -80 -33l-23 -32z" />
<glyph unicode="N" horiz-adv-x="931" d="M-74 -471q4 18 21 39l24 20l43 23q8 6 31 -17q53 -49 78 -59q14 -2 29 6q20 4 28 41l103 418q-131 0 -213 131q-66 113 -66 262q0 119 98 236q115 127 287 127q166 0 277 -125q102 -115 102 -264v-119v-105q0 -12 -27 -14q-29 0 -55 10l-16 4v105v119l-2 36 q0 16 -12.5 43t-38 39.5t-60.5 18.5h-324q-45 0 -61 -10q-18 -6 -43 -31q-33 -45 -33 -103l6 -28q0 -14 9 -25l32 -35q14 -12 47 -20q0 33 5.5 47t25 34.5t44 33t63.5 12.5h28q31 0 60.5 -18.5t44.5 -38.5l10 -134v-157l-78 -242q-29 -88 -65 -184q-76 -207 -85.5 -217.5 t-68.5 -22.5q-37 -6 -61 -6q-18 2 -27 2q-37 8 -53.5 19.5t-26.5 21.5t-22 29l-39 49q-18 25 -19 49zM281 264q0 -12 8 -20l16 -8l21 -5h22q14 0 19 5l18 8l10 24l-4 11l-37 14h-26q-25 0 -37 -12zM412 -559l8 12l16 15q18 18 31.5 89.5t13.5 145.5v51l-6 47q0 18 -16 33 l-31 21l21 18q35 20 69 21q43 0 78 -23q27 -25 27 -57h-13l-14 6q-12 -6 -18 -25q0 -25 -5 -35l-4 -32v-27l2 -55l2 -78l7 -39l20 -31q27 37 45 123l12 76l5 76v30l-7 35q-2 2 -2 4q-8 12 -22 25l-19 12l-4 6l6 13l19 14l51 12q51 0 92 -33q35 -27 35 -69h-12l-15 6 q-12 -6 -18 -25l-6 -53l-4 -94l6 -92q75 69 118 69h1q20 0 39 -18q12 -18 12 -51q0 -61 -32 -104.5t-69 -53.5l-59 -6l-39 -4q-20 0 -26 4l-41 22l-50 -40l-28 -17q-14 -6 -41 -10q-61 0 -62 16q0 12 39 13q51 0 94 43l11 22l-21 -2l-30 -14l-25 -6q-14 0 -41 10l-23 4h-28 l-41 -6zM784 -479q18 -35 33 -41q14 0 43 14q37 18 37 57q0 23 -29 29l-30 -8l-27 -14z" />
<glyph unicode="O" horiz-adv-x="1456" d="M4 274q0 -74 102 -168q117 -104 261 -104q92 0 168.5 42t136.5 120q72 -86 149 -127q82 -33 168 -33q143 0 248 96q117 104 117 269q0 154 -119 271.5t-268 117.5q-41 0 -62.5 -4t-50.5 -29q-33 -33 -33 -76q0 -49 35 -95t78 -46h217q35 0 66 -23q23 -16 38 -39.5 t15 -76.5q0 -31 -15 -58q-16 -23 -47 -41q-18 -10 -57 -16h-332h-24q-14 0 -27 4l-39 23q12 37 12 88q0 66 -12 130t-57 105q-49 68 -129 111t-176 43q-145 0 -261 -103q-102 -90 -102 -170q0 -39 47 -39q43 0 60 23l24 27q19 12 62 12h329q45 0 62 -10q18 -6 43 -31 q33 -45 33 -102l-7 -29q0 -14 -8 -25q-16 -23 -47 -41q-18 -10 -57 -16h-332q-76 0 -104 41l-23 12q-12 6 -35 6q-47 0 -47 -39z" />
<glyph unicode="P" horiz-adv-x="931" d="M-74 -471q4 18 21 39l24 20l43 23q8 6 31 -17q53 -49 78 -59q14 -2 29 6q20 4 28 41l103 418q-131 0 -213 131q-66 113 -66 262q0 119 98 236q115 127 287 127q166 0 277 -125q102 -115 102 -264v-119v-105q0 -12 -27 -14q-29 0 -55 10l-16 4v105v119l-2 36 q0 16 -12.5 43t-38 39.5t-60.5 18.5h-324q-45 0 -61 -10q-18 -6 -43 -31q-33 -45 -33 -103l6 -28q0 -14 9 -25l32 -35q14 -12 47 -20q0 33 5.5 47t25 34.5t44 33t63.5 12.5h28q31 0 60.5 -18.5t44.5 -38.5l10 -134v-157l-78 -242q-29 -88 -65 -184q-76 -207 -85.5 -217.5 t-68.5 -22.5q-37 -6 -61 -6q-18 2 -27 2q-37 8 -53.5 19.5t-26.5 21.5t-22 29l-39 49q-18 25 -19 49zM88 1126q0 139 102 222q89 71 204 71h3q100 0 178 -76l105 -98l35 -12l39 -4q33 0 75 14l80 27q-49 -61 -112 -94q-49 -25 -103 -25q-39 0 -72.5 12.5t-45 23.5t-39.5 25 l-66 9h-205q-51 0 -84 -33q-26 -32 -26 -77q0 -21 13 -42.5t30.5 -32t52.5 -16.5h166q27 0 56.5 -36t29.5 -73q0 -31 -27 -59l-35 -23l-51 -4q-115 0 -209 86t-94 215zM281 264q0 -12 8 -20l16 -8l21 -5h22q14 0 19 5l18 8l10 24l-4 11l-37 14h-26q-25 0 -37 -12zM457 -369 q0 121 75 215q68 86 146 86l51 -2q14 -4 38 -26.5t24 -57.5q0 -39 -26 -73.5t-60 -34.5h-84q-23 0 -48 -12l-32 -31l-17 -45q0 -47 27 -80l10 -21q4 -12 33 -12h164q55 0 82 33q18 18 45 18q28 1 28 -34q0 -53 -55 -134q-63 -82 -133 -82q-94 0 -172 70q-96 84 -96 223z" />
<glyph unicode="Q" horiz-adv-x="1478" d="M10 440q0 129 117 228q55 47 113.5 66.5t128.5 19.5q63 0 112 -12.5t91 -39t118 -106.5q45 63 125 110.5t172 47.5q176 0 289 -121q100 -113 100 -244q0 -150 -96 -264q-106 -125 -270 -125q-162 0 -271 100q-119 109 -118 289l2 47q0 27 10 43l-37 19l-51 8l-328 10 q-41 0 -67.5 -15.5t-32.5 -41.5q0 -35 26.5 -68t61.5 -33q37 0 45 -4q14 0 31 -14q35 -25 49 -64l12 -36l4 -39q0 -53 -10 -80l-8 -35l-21 -43q-18 -43 -65 -43q-43 0 -115 55q-51 41 -70 86l6 41q6 18 21 33q25 25 80 25q57 0 57 28q0 14 -96 29q-49 0 -82 42t-33 101z M698 393q0 -47 4 -59l27 -41q18 -16 45 -33q27 -10 62 -10h317q39 0 57.5 7t46.5 32q29 39 29 84q0 33 -10 53q-6 27 -23 37q-12 12 -38.5 24.5t-63.5 16.5h-334q-29 0 -63 -19l-41 -39l-13 -38z" />
<glyph unicode="R" horiz-adv-x="204" d="M-760 -367q0 119 85 208t212 89q106 0 191.5 -71.5t103.5 -192.5l191 -94l-3 1182h93v-1325l-68 -47l-238 110q-27 -70 -96 -113t-174 -43q-125 0 -217 99q-80 90 -80 198zM-674 -379l6 -18q0 -14 11 -27q6 -12 23.5 -23.5t53.5 -17.5h218q29 0 45 6l36 27l21 35l4 45 q0 14 -4 22l-6 19q-14 20 -33 32l-49 13h-219q-49 0 -80 -33l-21 -33q-6 -16 -6 -47z" />
<glyph unicode="S" d="M-696 999q0 -66 55 -120q55 -49 141 -50q74 0 117 36t61 98l5 28q0 27 -31 33q-31 0 -31 -23q0 -18 -22 -30l-60 -8h-65q-25 0 -41 8q-41 18 -41 67q0 31 12 55.5t39 24.5h37q25 0 41 -10l30 -8q35 0 52.5 6t19.5 33q0 25 -18 30l-54 9q-14 0 -26 -11l-43 -8h-37 q-23 0 -34 20.5t-17 59.5q0 43 41 66l41 10h65q33 0 57.5 -7.5t24.5 -31.5q0 -16 31 -23l39 -8q18 0 41 25l-6 2q-4 -1 -8 -1q-30 0 -36 41q-6 46 -57 91t-125 45q-86 0 -141 -49t-55 -121q0 -57 7 -77.5t44 -61.5q-37 -31 -45 -60z" />
<glyph unicode="T" horiz-adv-x="204" d="M-139 -221q104 0 155.5 42t51.5 122l4 1007q0 80 -45 127q-57 51 -164 51q178 135 440 205q221 55 481 56q190 0 340 -19.5t261.5 -51.5t185.5 -119t74 -179q0 -80 -62 -139q-72 -59 -211 -60q88 31 123 72q39 39 39 76t-43 84q-29 25 -92 57q-86 33 -238 57l-145 15 l-158 6q-184 0 -330.5 -19.5t-203.5 -54.5q-100 -49 -111 -63q-51 -41 -51 -109l-4 -889q0 -154 355 -353.5t656 -199.5q61 0 127 13q100 18 156 65q59 43 59 98q0 70 -102 129q98 -25 147 -73q18 -23 33 -52.5t15 -66.5q0 -98 -87 -191.5t-202 -107.5l-105 -10l-88 -4 q-227 0 -436 92l-360 198q-229 129 -465 189z" />
<glyph unicode="U" horiz-adv-x="868" d="M4 422q0 129 117 227.5t250 98.5q143 0 260 -86q135 -103 135 -289q0 -129 -88 -248q-63 -86 -125 -115l-43 -10q-29 0 -45 25.5t-27.5 45t-11.5 29.5l-10 138l10 38l14 41q8 16 31 29l39 21q29 2 41 2q16 0 32.5 -4.5t53.5 -57.5q14 -18 22 -8l13 39l2 14q0 35 -6 58 q0 14 -27 41q-14 16 -41 30.5t-63 14.5l-326 2q-41 0 -67.5 -15.5t-32.5 -42.5q0 -67 67 -67h2q37 0 45 -4q14 0 31 -15q35 -25 49 -63l12 -37l5 -39q0 -53 -11 -80l-8 -35l-20 -43q-18 -43 -66 -43q-43 0 -115 56q-51 41 -69 86l6 41q6 18 20 32q25 25 80 25q57 0 58 29 q0 14 -97 28q-96 0 -96 111zM502 197q0 -20 8 -21q12 0 28.5 9.5t30.5 19.5q-2 10 -3 29.5t-5 19.5q-29 0 -43 -4t-14 -21q-2 -20 -2 -32z" />
<glyph unicode="V" horiz-adv-x="1536" d="M6 383q0 143 100 252q113 119 289 119q154 0 256 -117q86 -109 86 -270q0 -117 86 -117h330q45 0 63.5 9t37 27.5t24.5 43.5l12 63l-6 29q0 14 -8 24q-16 27 -41 39.5t-64 18.5h-210q-39 0 -78 45q-35 47 -35 102q0 43 33 78q16 14 45 27q25 6 67 6q154 0 269.5 -105.5 t115.5 -267.5q0 -166 -102 -277.5t-287 -111.5q-152 0 -245 103.5t-93 263.5q0 37 -4 47q0 20 -10 32q-16 27 -41 39.5t-64 18.5h-301q-45 0 -61 -10q-18 -6 -43 -31l-27 -41q-6 -12 -6 -47l6 -39l11 -29q20 -27 34 -37q39 -23 50.5 -26.5t17.5 6.5q6 14 10 22 q12 23 31.5 37.5t54.5 19.5t56 5h32q20 -4 56 -7t61 -28q43 -43 43 -131q0 -27 -15.5 -72t-31.5 -59q-8 -8 -20.5 -15.5t-34 -13.5t-64.5 -6q-145 0 -265 111.5t-120 269.5zM305 217q0 -12 10 -22l27 -5h84q31 0 35 33q0 17 -37 17h-80q-39 0 -39 -23z" />
<glyph unicode="W" horiz-adv-x="1476" d="M6 389q0 133 100 242q111 123 289 123q82 0 174 -49q76 -45 123 -109q86 86 115 104q84 53 207 54q133 0 241 -101q119 -109 119 -264q0 -156 -118.5 -272.5t-268.5 -116.5h-31q-25 0 -42 6t-41.5 29.5t-30.5 74t-13 95.5q0 27 13 45q20 29 56 60.5t56 31.5h187 q43 0 64.5 -37t27.5 -33q29 18 43 39l10 27l4 51q0 33 -15 58.5t-40 39t-64 19.5h-333q-27 0 -50 -8l-38 -19l10 -43l2 -47q0 -176 -116 -282.5t-273 -106.5q-156 0 -269 125q-98 115 -98 264zM96 373q0 -43 29 -84l43 -31l61 -8h318q45 0 63.5 9t40.5 32q33 45 33 102 l-6 29q0 14 -8 24q-16 27 -41 39.5t-64 18.5h-334q-43 0 -61 -10q-18 -6 -43 -31l-21 -37zM938 211q8 -8 37 -8q16 0 39.5 2t52.5 6q16 0 27.5 -2t21.5 -4q14 0 25 8q-14 16 -44 31.5t-63 15.5q-37 0 -59 -14q-6 -4 -37 -35z" />
<glyph unicode="X" horiz-adv-x="1474" d="M4 389q0 127 98 242q111 123 287 123q82 0 174 -49q76 -45 123 -109q49 72 123 111q88 47 199 47q143 0 253.5 -108.5t110.5 -256.5q0 -158 -109.5 -273.5t-254.5 -115.5q-213 0 -324 160q-49 -74 -137 -119q-20 -10 -40 -17.5t-55.5 -15.5t-84.5 -8q-152 0 -257.5 118 t-105.5 271zM90 373q0 -43 29 -84l43 -31l61 -8h318q45 0 63.5 9t40.5 32q33 45 33 102l-6 29q0 14 -8 24q-16 27 -41 39.5t-64 18.5h-334q-43 0 -61 -10q-18 -6 -43 -31l-21 -37zM745 446q6 -18 39 -18q23 0 78.5 9t73.5 9q72 0 141.5 -20t69.5 -53q6 -10 8 -17 q10 -23 10 -30q0 -20 -12 -58l-6 -18q6 -6 12 -10q18 2 44 15t48 36q33 45 33 102l-6 29q0 14 -8 24q-16 27 -41 39.5t-64 18.5h-334q-20 2 -28 2q-12 0 -23 -10zM831 311q15 -41 21 -61h164l12 16q-12 16 -37 29q-8 4 -49 16h-111z" />
<glyph unicode="Y" horiz-adv-x="870" d="M6 387q0 121 88 236q68 86 125 112l43 10q23 0 41 -24q14 -25 14 -57v-38t2 -40q0 -23 -4 -38.5t-10 -42t-14 -48t-29 -29.5l-43 -6q-25 0 -45 3t-45 7q-20 0 -26.5 -12t-6.5 -33q0 -51 28 -93t93 -42h322q74 0 108 47q27 43 27 88q0 37 -23 72q-31 47 -96 47 q-35 0 -47 5t-25 26l-18 57l-8 70q0 45 12 64.5t43 19.5q23 0 43 -11q53 -23 123 -112q43 -57 66.5 -116t23.5 -122q0 -176 -129 -291q-113 -96 -266 -96q-133 0 -244 102q-123 115 -123 285zM172 528l33 -22q20 8 26 18q7 19 11 33q-18 10 -37 21z" />
<glyph unicode="Z" horiz-adv-x="1474" d="M2 365q0 156 119 272.5t268 116.5h31q25 0 43 -5.5t39 -27.5q33 -33 33 -78q0 -53 -35 -100t-78 -47l-217 4q-31 0 -60.5 -18.5t-44.5 -39.5l-10 -26l-4 -51q0 -33 15.5 -58.5t45.5 -42.5q18 -10 58 -16l334 10q23 -2 36 -2q23 0 33 6l29 29l-19 39q-18 49 -18 104 q0 43 12.5 86t49 92.5t112.5 94.5q102 57 182 57l56 -6q119 0 217 -63.5t143 -176.5v14q-6 -31 -26.5 -52t-45.5 -15l-51 29l-53 10h-348q-39 -12 -51 -23l-19 -16l-16 -6l-29 -27q-35 -53 -35 -92q0 -23 9 -33l12 8q20 31 43 41q37 31 88 43l72 9l39 2h28l47 4l64 4h30 l64 -12q49 -6 98 -31l35 -19l45 -63q-31 -123 -133 -208t-229 -85q-94 0 -168 41t-135 119q-54 -80 -138 -107q-84 -53 -207 -53q-133 0 -241 100q-119 109 -119 265zM762 281l45 -25l41 -6h330q45 0 63 9t41 32l-33 16q-47 18 -90 19l-37 8l-47 2l-96 -6l-74 -4 q-43 0 -74 -13l-53 -20z" />
<glyph unicode="[" horiz-adv-x="12" d="M-711 -369q0 119 94.5 210t208.5 91l52 -2q12 -4 36.5 -26.5t24.5 -57.5q0 -37 -24.5 -72.5t-61.5 -35.5h-166q-23 0 -47 -12l-33 -31l-16 -45q0 -51 29 -80q27 -33 82 -33h245q55 0 82 33q18 18 45 18q29 1 29 -34q0 -55 -74 -134q-88 -82 -196 -82q-117 0 -205 70 q-104 80 -105 223zM-711 1126q0 139 103 222q90 72 207 71q100 0 178 -76l104 -98l37 -12l37 -4q33 0 76 14l80 27q-49 -61 -113 -94q-49 -25 -102 -25q-39 0 -73 12.5t-45 23.5t-40 25l-66 9h-204q-55 0 -83 -33t-28 -80q0 -18 13.5 -39.5t29.5 -32t53 -16.5h166 q25 0 59 -37l21 -35l6 -37q0 -31 -27 -59l-34 -23l-52 -4q-117 0 -210 87t-93 214z" />
<glyph unicode="\" horiz-adv-x="970" d="M61 307v191l123 -21l127 -16q39 -4 86 -6t74 -2h31.5t21.5 2h39h33q20 4 31 4q53 0 139 18l125 21v-191l-125 23l-127 16l-115 6q-86 -2 -178 -6t-162 -16zM354 84q0 49 36 86t87 37q39 0 78 -35t39 -88q0 -39 -27 -74q-37 -43 -90 -43q-55 0 -89 36t-34 81zM365 686 q0 47 34.5 84t87.5 37q39 0 78 -33t39 -88q0 -41 -26 -76q-35 -43 -91 -43q-31 0 -50 6.5t-38.5 28t-24.5 33.5t-9 51zM428 84q0 25 29 25h37q16 0 22 -9l6 -16q0 -25 -28 -25h-35q-31 0 -31 25zM440 686q0 25 27 25h39q14 0 20 -9l6 -16q0 -23 -28 -27h-35q-29 0 -29 27z " />
<glyph unicode="]" horiz-adv-x="307" d="M0 1104q0 104 49 202.5t137 110.5l4 -8q-35 -25 -55 -79t-20 -97q0 -61 16 -62q53 0 96 -43q31 -37 31 -84q0 -51 -36 -91t-91 -40q-43 0 -86 37q-39 39 -39 97z" />
<glyph unicode="^" horiz-adv-x="1474" d="M4 389q0 127 98 242q111 123 287 123q82 0 174 -49q76 -45 123 -109q49 72 123 111q88 47 199 47q143 0 253.5 -108.5t110.5 -256.5q0 -158 -109.5 -273.5t-254.5 -115.5q-213 0 -324 160q-49 -74 -137 -119q-20 -10 -40 -17.5t-55.5 -15.5t-84.5 -8q-152 0 -257.5 118 t-105.5 271zM90 373q0 -43 29 -84l43 -31l61 -8h318q45 0 63.5 9t40.5 32q33 45 33 102l-6 29q0 14 -8 24q-16 27 -41 39.5t-64 18.5h-334q-43 0 -61 -10q-18 -6 -43 -31l-21 -37zM244 377q0 -20 14 -41l23 -17l30 -4l158 21q14 -8 31 -17l22 17q13 18 17 51l-4 14 q-2 10 -5 13q-8 14 -22 20l-29 8h-168q-23 0 -30 -4l-21 -16l-10 -19zM745 446q6 -18 39 -18q23 0 78.5 9t73.5 9q72 0 141.5 -20t69.5 -53q6 -10 8 -17q10 -23 10 -30q0 -20 -12 -58l-6 -18q6 -6 12 -10q18 2 44 15t48 36q33 45 33 102l-6 29q0 14 -8 24q-16 27 -41 39.5 t-64 18.5h-334q-20 2 -28 2q-12 0 -23 -10zM831 311q15 -41 21 -61h164l12 16q-12 16 -37 29q-8 4 -49 16h-111z" />
<glyph unicode="_" horiz-adv-x="884" d="M0 -248l637 1186l176 -2l-643 -1182z" />
<glyph unicode="`" horiz-adv-x="870" d="M94 877q0 127 78 213q92 102 264 102q141 0 244 -98q41 -43 61.5 -91.5t20.5 -101.5v-18q0 -72 -17 -99l-22 -41l-37 -45l-164 -184l-22 -47l-6 -49l6 -64l6 -75l-152 -9l-2 45v47q0 49 8 74q6 33 29 72l43 72l158 145l53 39q23 27 23 117q0 55 -54.5 73.5t-179.5 18.5 q-123 0 -177 -18.5t-54 -67.5l8 -41q12 -39 53 -53q39 -6 51 -17l-41 -149q-57 10 -79.5 26.5t-55.5 63.5q-43 66 -43 160zM326 90q0 37 30 68l35 30l43 11q35 0 62 -17q20 -8 45.5 -29.5t25.5 -62.5q0 -33 -22 -61q-6 -8 -37 -21l-49 -8l-58 6q-29 6 -47 19q-29 25 -28 65z " />
<glyph unicode="a" horiz-adv-x="845" d="M4 371q0 184 137 297q113 90 240 90q145 0 260 -103q102 -90 102 -170q0 -39 -47 -39q-37 0 -59 19q-10 16 -31 27l-31 12l-40 2h-332q-29 0 -64 -19l-41 -38l-12 -39l-2 -15q0 -41 6 -60.5t27 -41.5q37 -37 121 -37q0 70 44 122t113 52h185q68 0 112.5 -45t44.5 -117 q0 -86 -105.5 -176t-236.5 -90q-150 0 -264 94q-127 104 -127 275zM313 285q0 -29 37 -29h254q12 0 23 6l12 23q0 33 -37 32h-252q-37 0 -37 -32z" />
<glyph unicode="b" horiz-adv-x="1478" d="M4 395q0 117 88 232q61 78 125 108l43 10q23 0 41 -24q14 -25 14 -57q0 -41 -8 -68l-18 -53q-8 -25 -29 -33l-43 -6q-37 0 -56.5 -10.5t-49.5 -47.5l-13 -38l-2 -15l4 -45q5 -31 11 -41q16 -25 45 -41q18 -8 55 -16l326 2q45 0 63 9t41 32q33 45 33 102l-6 29q0 14 -9 25 l-30 36q-27 20 -76 21q-35 0 -47 5t-25 26l-18 57l-8 70q0 45 12 64.5t43 19.5q23 0 43 -11q57 -23 123 -108q90 -115 90 -234v-24q0 -20 -4 -33q0 -20 -17 -59l37 -23l45 -6h330q45 0 63.5 9t41.5 32q33 45 32 102l-6 29q0 14 -8 24q-16 27 -41 39.5t-63 18.5l-218 -4 q-39 0 -77 45q-35 47 -35 102q0 43 33 78q16 14 45 27q25 6 67 6q154 0 269.5 -105.5t115.5 -267.5q0 -156 -114.5 -270.5t-272.5 -114.5q-94 0 -167.5 41t-135.5 119q-47 -70 -135 -121q-88 -39 -180 -39q-127 0 -244 104q-123 117 -123 291z" />
<glyph unicode="c" horiz-adv-x="856" d="M20 264q0 66 43 114t115 48h184q66 0 115 -49q43 -49 43 -125q78 0 121 37q33 45 33 102l-6 29q0 14 -9 24q-16 27 -40.5 39.5t-63.5 18.5h-289l-71 -25l-23 -2l-35 2l-26 2l-29 19l-27 32q-18 31 -18 64q0 37 20 72l21 36q55 0 96 -55l37 -55l8 6l21 20q53 82 82 105 l106 51q119 0 217 -98q109 -115 109 -309q0 -166 -127 -275q-113 -94 -265 -94q-135 0 -238.5 86t-103.5 180zM119 281q0 -29 35 -29h254q18 0 24 6l12 23q1 32 -36 32h-252q-37 0 -37 -32z" />
<glyph unicode="d" d="M-699 1330q85 87 212 87q119 0 208 -83t89 -214q0 -106 -72 -190q-88 -106 -225 -107q-125 0 -218 99q-79 89 -79 195q0 126 85 213zM-674.5 1050.5q25.5 -28.5 70.5 -28.5h217q55 0 84 27q22 28 22 81v5q0 31 -22.5 58.5t-69.5 27.5h-219q-108 0 -108 -99 q0 -43 25.5 -71.5z" />
<glyph unicode="e" horiz-adv-x="1454" d="M-6 481q0 74 90 170q102 106 213 107q125 0 211 -66q115 -86 115 -266l28 -6h45l25 6q12 135 98 233.5t219 98.5q125 0 210.5 -84t103.5 -213l-13 -19l-18 -4l-35 4l-53 33q-33 20 -70 27h-286l-19 2q-14 4 -43 -23q-18 -18 -18 -28l-2 -27h147l62 4l71 -2l88 -2 q80 0 131 -72l33 -73q0 -135 -82 -211t-207 -76q-119 0 -207 91t-110 228v33h-98v-33q-18 -147 -112.5 -233t-229.5 -86q-104 0 -192.5 92t-88.5 178q0 63 62.5 112.5t140.5 49.5h278h-139h205l-19 45q-12 31 -47 31h-278q-76 0 -105 -41l-22 -12l-35 -7q-47 0 -47 39z M98 313q0 -29 17 -47l18 -14h348h-94h94q31 0 54 41q12 28 12 53h-160h-90h-164l-18 -2q-10 0 -17 -31zM795 313q0 -10 18 -32q10 -10 27 -17h352l22 4q17 0 23 29q0 31 -23 43l-22 6h-377h-20v-33z" />
<glyph unicode="f" horiz-adv-x="12" d="M-711 1126q0 139 103 222q89 71 204 71h3q100 0 178 -76l104 -98l37 -12l37 -4q33 0 76 14l80 27q-49 -61 -113 -94q-49 -25 -102 -25q-39 0 -73 12.5t-45 23.5t-40 25l-66 9h-204q-55 0 -83 -33t-28 -80q0 -18 13.5 -39.5t29.5 -32t53 -16.5h166q25 0 59 -37l21 -35 l6 -37q0 -31 -27 -59l-34 -23l-52 -4q-117 0 -210 87t-93 214z" />
<glyph unicode="g" d="M-776 -367q0 119 85 208t212 89q111 0 204 -83t93 -214q0 -106 -72 -190q-88 -106 -225 -107q-125 0 -217 99q-80 90 -80 198zM-690 -379l6 -18q0 -14 10 -27q6 -12 23.5 -23.5t54.5 -17.5h217q29 0 45 6l37 27l21 35l4 45q0 14 -4 22l-7 19q-14 20 -32 32l-50 13h-219 q-49 0 -80 -33l-20 -33q-6 -16 -6 -47z" />
<glyph unicode="h" d="M-606 1266q0 74 51 112.5t123 38.5q51 0 99 -41.5t48 -109.5v-58v-30q-6 -25 -8 -37q-37 -215 -205 -310l13 58q67 170 67 204q0 26 -14 25q-100 0 -137 24.5t-37 123.5zM-512 1266q0 -16 7 -35t28 -19h67q18 0 30.5 19t12.5 35q0 31 -43 30h-67q-18 0 -27 -10z" />
<glyph unicode="i" horiz-adv-x="843" d="M0 369q0 -158 137 -275q119 -94 242 -94q145 0 260 102q102 90 102 170q0 39 -47 39q-39 0 -59 -20q-10 -14 -31 -29l-55 -12h-330q-63 0 -104 41l-27 41q-6 16 -6 51l2 35q2 6 3 11t14.5 25.5t37 32t62.5 17.5h331q76 0 105 -41l20 -12l37 -7q47 0 47 39q0 74 -102 168 q-117 104 -260 105q-125 0 -240 -103q-139 -117 -139 -284z" />
<glyph unicode="j" horiz-adv-x="360" d="M-109 -629q0 12 39 13q43 0 93 30l32 35l-26 -2h-13q-37 0 -36 10l18 13q49 20 82 131q16 57 24.5 110t8.5 121l-4 160l-5 164l-12 321q0 18 -29 21l-53 4h-59q-47 0 -53 14l6 14l63 162q23 66 148 66l69 -19q27 -14 27 -67v-23l-2 -82l-14 -133l-5 -125l-6 -299l6 -278 v-45.5t5 -48.5l14 -74q100 94 176 94q70 0 96 -94l2 -23q0 -41 -46 -93t-124 -64l-55 -5q-66 0 -145 43l-56 -40q-49 -27 -104 -27q-61 0 -62 16zM252 -479q18 -41 78 -41q30 0 59 14q37 18 37 55q0 45 -57 45q-37 0 -62.5 -16t-54.5 -57z" />
<glyph unicode="k" d="M-682 -629q0 12 39 13q43 0 92 30l33 35l-25 -2h-14q-37 0 -37 10l19 13q37 14 63.5 114.5t26.5 188.5v30l-7 35q-2 2 -2 4q-8 12 -22 25l-16 12l-7 6l7 13l16 12q18 10 55 14q57 0 105 -33q41 -27 41 -69h-11l-16 6q-16 -6 -18 -25l-7 -53l-4 -94l6 -92q100 94 177 94 q69 0 96 -94l2 -23q0 -27 -8 -45l-33 -45q-53 -55 -129 -67l-55 -5q-66 0 -146 43l-55 -40q-49 -27 -105 -27q-61 0 -61 16zM-342 -479q18 -41 78 -41q30 0 59 14q37 18 37 55q0 45 -57 45q-37 0 -62.5 -16t-54.5 -57z" />
<glyph unicode="l" d="M-694 -559l10 12l14 15q16 14 35 90l10 98v47v51l-6 47q0 18 -16 33l-31 21l21 18q35 20 73 21q51 0 89 -24q33 -21 33 -47q0 -4 -1 -9h-10l-16 6q-16 -6 -19 -25l-2 -33l-4 -28l-2 -33l2 -55l2 -78l6 -39l21 -31q25 33 47 123l10 78l4 74v30l-6 35q-2 2 -2 4 q-8 12 -23 25l-16 12l-6 6l6 13l16 12q18 10 56 14q57 0 104 -33q41 -27 41 -69h-10l-17 6q-16 -6 -18 -25l-6 -53l-4 -94l6 -92q100 94 176 94q70 0 96 -94l2 -23q0 -27 -8 -45l-33 -45q-53 -55 -129 -67l-55 -5q-66 0 -145 43l-56 -40q-49 -27 -104 -27q-61 0 -62 16 q0 12 39 13q43 0 93 30l32 35l-20 -2l-31 -14l-24 -6l-43 8l-48 8l-32 -4l-31 -4zM-281 -479q18 -41 78 -41q31 0 60 14q37 18 37 55q0 45 -58 45q-37 0 -62.5 -16t-54.5 -57z" />
<glyph unicode="m" horiz-adv-x="262" d="M-20 510v244h86h88v-502h28v-258l-116 -2v518l-25 8l-37 -2z" />
<glyph unicode="n" horiz-adv-x="1456" d="M-4 325.5q0 -20.5 3 -45t5 -36t12 -37.5q25 -92 99 -176l51 -15q39 -8 64.5 -12t52.5 -4q72 0 111.5 31.5t39.5 85.5q0 55 -41 101t-123 46q-16 0 -34.5 -2t-38.5 -8l-31 -4q-66 0 -100 98l-15 98q4 2 6 5q10 8 15 14l6 12l6 8q27 0 54.5 11.5t58.5 11.5h329q45 0 62 -10 q18 -6 43 -31q33 -45 33 -102v-54v-147v-692l8 -21l20 -33q10 -12 31 -24l18 -10h105q119 0 153 20q51 33 52 139v62q0 37 -43 37q-45 0 -45 -37q0 -16 -45 -17l-41 2h-60h-18h-58v514q49 -49 97 -69q61 -31 151 -31q143 0 248 96q117 104 117 269q0 154 -119 271.5 t-268 117.5q-41 0 -62.5 -4t-50.5 -29q-33 -33 -33 -76q0 -49 35 -95t78 -46h217q35 0 66 -23q23 -16 38 -39.5t15 -76.5q0 -31 -15 -58q-16 -23 -47 -41q-18 -10 -57 -16h-332h-24q-14 0 -27 4l-39 23q12 37 12 88q0 66 -12 130t-57 105q-49 68 -129 111t-176 43 q-145 0 -261 -103q-102 -90 -102 -170l-6 -49l-2 -67v-43.5z" />
<glyph unicode="o" horiz-adv-x="851" d="M-4 369q0 178 125 290q113 96 262 97q133 0 244 -103q123 -115 123 -284q0 -158 -132 -275q-113 -94 -235 -94q-166 0 -276.5 104.5t-110.5 264.5zM80 360l6 -28q0 -14 8 -25q16 -25 37 -37q37 -20 70 -20h329q45 0 63.5 9t41.5 32q33 45 33 102l-6 29q0 14 -9 24 q-16 27 -40.5 39.5t-63.5 18.5h-332q-45 0 -61 -10q-18 -6 -43 -31q-33 -45 -33 -103z" />
<glyph unicode="p" horiz-adv-x="870" d="M-74 -471q4 18 21 39l24 20l43 23q8 6 31 -17q53 -49 78 -59q14 -2 29 6q20 4 28 41l103 418q-131 0 -213 131q-66 113 -66 262q0 119 98 236q115 127 287 127q166 0 277 -125q102 -115 102 -264v-119v-105q0 -12 -27 -14q-29 0 -55 10l-16 4v105v119l-2 36 q0 16 -12.5 43t-38 39.5t-60.5 18.5h-324q-45 0 -61 -10q-18 -6 -43 -31q-33 -45 -33 -103l6 -28q0 -14 9 -25l32 -35q14 -12 47 -20q0 33 5.5 47t25 34.5t44 33t63.5 12.5h28q31 0 60.5 -18.5t44.5 -38.5l10 -134v-157l-78 -242q-29 -88 -65 -184q-76 -207 -85.5 -217.5 t-68.5 -22.5q-37 -6 -61 -6q-18 2 -27 2q-37 8 -53.5 19.5t-26.5 21.5t-22 29l-39 49q-18 25 -19 49zM281 264q0 -12 8 -20l16 -8l21 -5h22q14 0 19 5l18 8l10 24l-4 11l-37 14h-26q-25 0 -37 -12z" />
<glyph unicode="q" horiz-adv-x="1478" d="M8 389q0 154 119 264q113 100 242 101q63 0 112 -12.5t91 -39t118 -106.5q45 63 125 110.5t172 47.5q176 0 289 -121q100 -113 100 -244q0 -150 -96 -264q-106 -125 -270 -125q-162 0 -271 100q-119 109 -118 289l2 47q0 27 10 43l-37 19l-51 8h-334q-29 0 -64 -19 l-41 -41q-10 -23 -14 -57q0 -49 14 -78q18 -25 50 -43l55 -14l217 4q43 0 78 -46t35 -101q0 -43 -33 -78q-16 -16 -43 -24.5t-70 -8.5q-152 0 -269.5 113.5t-117.5 275.5zM698 393q0 -47 4 -59l27 -41q18 -16 45 -33q27 -10 62 -10h317q39 0 57.5 7t46.5 32q29 39 29 84 q0 33 -10 53q-6 27 -23 37q-12 12 -38.5 24.5t-63.5 16.5h-334q-29 0 -63 -19l-41 -39l-13 -38z" />
<glyph unicode="r" horiz-adv-x="868" d="M4 379q0 121 88 239q68 92 125 117l43 10q23 0 41 -24q14 -25 14 -57q0 -41 -8 -68l-18 -53q-8 -25 -29 -33l-43 -6q-66 0 -98 -45q-25 -35 -25 -80q0 -35 14.5 -67.5t61.5 -55.5q0 37 10 63l25 41q14 14 40.5 24.5t61.5 14.5h172q31 0 62 -18l18 -14q14 -6 25 -29 q14 -23 14 -82q43 31 58.5 57.5t15.5 65.5q0 53 -30 90t-89 37q-35 0 -47 5t-25 26l-18 57l-8 70q0 45 12 64.5t43 19.5q23 0 43 -11q53 -18 123 -116q90 -125 90 -242q0 -172 -129 -287q-111 -92 -266 -92q-156 0 -269 125q-98 115 -98 254zM250 285q0 -12 10 -21l35 -10 h166q14 0 22 4l15 6l10 25l-4 10q-8 8 -37 14h-170q-25 0 -37 -12z" />
<glyph unicode="s" horiz-adv-x="921" d="M66 283q31 -131 151 -209q113 -72 240 -72q129 0 235.5 86t106.5 168q-14 20 -19 27l-20 14l-33 8q-27 0 -44 -9t-17 -28l-80 -12q-35 -6 -76 -9t-82 -3q-51 0 -80 6t-37 29l-8 59h23h-23h256q14 -6 47 18l12 15l-18 35q-18 29 -41 28l-260 4l-10 27l8 20q6 8 49 21 l107 8l79 -2l64 -6q76 0 104 -41l21 -12l37 -7q47 0 47 39q0 74 -103 168q-117 104 -260 105q-100 0 -211 -62q-129 -78 -165 -211q0 -10 51 -47q55 -31 55 -51q-6 -8 -12 -14q-14 -16 -43 -39q-51 -37 -51 -51z" />
<glyph unicode="t" horiz-adv-x="1478" d="M4 432q0 131 123 236q113 90 244 90q100 0 181 -38t134 -122q49 68 128 114t175 46q156 0 271.5 -114.5t115.5 -270.5q0 -158 -116.5 -265.5t-268.5 -107.5h-30q-25 0 -42.5 6t-39.5 27q-33 33 -33 78q0 53 34.5 100t77.5 47l218 -4q31 0 60.5 18.5t43.5 38.5l12 39l2 15 q0 35 -6 57q0 14 -26 41q-14 16 -41 30.5t-64 14.5h-330q-23 0 -45 -7t-41 -24l15 -53l6 -51q0 -111 -86 -234q-66 -94 -123 -119l-43 -10q-29 0 -42 23.5t-13 60.5v41l10 39l14 41q8 16 31 29l43 8q35 0 56.5 11t49.5 46l13 39l2 14q0 35 -6 58q0 14 -27 41 q-14 16 -41 30.5t-63 14.5l-326 2q-41 0 -67.5 -15.5t-32.5 -41.5q0 -68 69 -68q37 0 45 -4q14 0 31 -14q35 -25 49 -64l12 -37l5 -39q0 -53 -11 -80l-8 -34l-20 -43q-18 -43 -66 -43q-43 0 -115 55q-51 41 -69 86l6 41q6 18 20 33q24 24 76 24h4q57 0 58 29q0 14 -97 29 q-96 0 -96 110z" />
<glyph unicode="u" horiz-adv-x="868" d="M4 422q0 129 117 227.5t250 98.5q143 0 260 -86q135 -103 135 -289q0 -129 -88 -248q-63 -86 -125 -115l-43 -10q-29 0 -42 23.5t-13 60.5v41l10 39l14 41q8 16 31 28l43 9q35 0 56.5 11t49.5 46l13 39l2 14q0 35 -6 58q0 14 -27 41q-14 16 -41 30.5t-63 14.5l-326 2 q-41 0 -67.5 -15.5t-32.5 -42.5q0 -67 67 -67h2q37 0 45 -4q14 0 31 -15q35 -25 49 -63l12 -37l5 -39q0 -53 -11 -80l-8 -35l-20 -43q-18 -43 -66 -43q-43 0 -115 56q-51 41 -69 86l6 41q6 18 20 32q25 25 80 25q57 0 58 29q0 14 -97 28q-96 0 -96 111z" />
<glyph unicode="v" horiz-adv-x="1480" d="M6 383q0 143 100 252q113 119 289 119q154 0 256 -117q86 -109 86 -270q0 -117 86 -117h330q45 0 63.5 9t37 27.5t24.5 43.5l12 63l-6 29q0 14 -8 24q-16 27 -41 39.5t-64 18.5h-210q-39 0 -78 45q-35 47 -35 102q0 43 33 78q16 14 45 27q25 6 67 6q154 0 269.5 -105.5 t115.5 -267.5q0 -166 -102 -277.5t-287 -111.5q-152 0 -245 103.5t-93 263.5q0 37 -4 47q0 20 -10 32q-16 27 -41 39.5t-64 18.5h-301q-45 0 -61 -10q-18 -6 -43 -31l-27 -41q-6 -12 -6 -47l6 -39l11 -29q20 -27 34 -37q35 -20 68 -20h213q37 0 74 -44t37 -95q0 -49 -33 -76 q-16 -16 -43 -24.5t-70 -8.5q-145 0 -265 111.5t-120 269.5z" />
<glyph unicode="w" horiz-adv-x="1476" d="M6 389q0 133 100 242q111 123 289 123q82 0 174 -49q76 -45 123 -109q86 86 115 104q84 53 207 54q133 0 241 -101q119 -109 119 -264q0 -156 -118.5 -272.5t-268.5 -116.5h-31q-25 0 -42 6t-40 27q-32 32 -32 75q0 56 34.5 103t77.5 47l217 -4q31 0 61 18.5t44 38.5 l10 27l4 51q0 33 -15 58.5t-40 39t-64 19.5h-333q-27 0 -50 -8l-38 -19l10 -43l2 -47q0 -176 -116 -282.5t-273 -106.5q-156 0 -269 125q-98 115 -98 264zM96 373q0 -43 29 -84l43 -31l61 -8h318q45 0 63.5 9t40.5 32q33 45 33 102l-6 29q0 14 -8 24q-16 27 -41 39.5 t-64 18.5h-334q-43 0 -61 -10q-18 -6 -43 -31l-21 -37z" />
<glyph unicode="x" horiz-adv-x="1474" d="M4 389q0 127 98 242q111 123 287 123q82 0 174 -49q76 -45 123 -109q49 72 123 111q88 47 199 47q143 0 253.5 -108.5t110.5 -256.5q0 -158 -109.5 -273.5t-254.5 -115.5q-213 0 -324 160q-49 -74 -137 -119q-20 -10 -40 -17.5t-55.5 -15.5t-84.5 -8q-152 0 -257.5 118 t-105.5 271zM90 373q0 -43 29 -84l43 -31l61 -8h318q45 0 63.5 9t40.5 32q33 45 33 102l-6 29q0 14 -8 24q-16 27 -41 39.5t-64 18.5h-334q-43 0 -61 -10q-18 -6 -43 -31l-21 -37zM741 475q20 -72 21 -104q0 -35 -19 -97l31 -18q16 -6 55 -6h318q45 0 63.5 9t40.5 32 q33 45 33 102l-6 29q0 14 -8 24q-16 27 -41 39.5t-64 18.5h-334q-33 0 -51 -8z" />
<glyph unicode="y" horiz-adv-x="870" d="M6 387q0 121 88 236q68 85 125 112l43 10q23 0 41 -24q14 -25 14 -57q0 -41 -8 -68l-18 -53q-8 -25 -29 -33l-43 -6q-66 0 -98 -41q-25 -31 -25 -76q0 -51 28 -93t93 -42h322q74 0 108 47q27 43 27 88q0 37 -23 72q-31 47 -96 47q-35 0 -47 5t-25 26l-18 57l-8 70 q0 45 12 64.5t43 19.5q23 0 43 -11q53 -23 123 -112q43 -57 66.5 -115.5t23.5 -122.5q0 -176 -129 -291q-113 -96 -266 -96q-133 0 -244 102q-123 115 -123 285z" />
<glyph unicode="z" horiz-adv-x="1536" d="M162 434q90 0 96 31q0 27 -57 27q-55 0 -80 26l-21 29q-6 16 -6 45q12 29 70 84q70 57 115 57q43 0 67 -51l25 -70q12 -41 12 -80q0 -43 -13.5 -76.5t-52.5 -62.5l-32 -14l-43 -4q-70 0 -70 -68q0 -18 28.5 -37.5t71.5 -19.5l326 2q35 0 51 10l29 29l-19 39 q-18 49 -18 104q0 43 12.5 86t49 92.5t112.5 94.5q102 57 182 57l56 -6q119 0 217 -63.5t143 -176.5v14q-6 -31 -26.5 -52t-45.5 -15l-51 29l-53 10h-348q-39 -12 -51 -23l-19 -16l-16 -6l-29 -27q-35 -53 -35 -92q0 -23 9 -33l12 8q20 31 43 41q37 31 88 43l72 9l38 2h29 l47 4l64 4h30l64 -12q49 -6 98 -31l35 -19l45 -63q-31 -123 -133 -208t-229 -85q-94 0 -168 41t-135 119q-47 -70 -136 -121q-88 -39 -180 -39q-129 0 -244 90q-122 97 -122 234q0 96 96 110zM803 281l45 -25l41 -6h330q45 0 63 9t41 32l-33 16q-47 18 -90 19l-37 8l-47 2 l-96 -6l-74 -4q-43 0 -74 -13l-53 -20z" />
<glyph unicode="{" horiz-adv-x="921" d="M154 594l104 102l68 -96l75 -96l72 -80q25 23 36 34t32 38q10 12 35.5 43.5t44.5 60.5l67 96l105 -102l-97 -70l-96 -73l-80 -74q66 -66 172 -146l99 -67l-105 -105l-68 99l-75 94l-70 80q-31 -33 -67 -76q-47 -55 -78 -98l-68 -99l-104 105l98 67l94 76l78 70 q-86 88 -213 176z" />
<glyph unicode="|" horiz-adv-x="884" d="M0 -248l637 1186l176 -2l-643 -1182zM74 754q0 57 43 104t110 47q51 0 99.5 -41.5t48.5 -109.5q0 -51 -35 -95q-43 -53 -113 -53q-39 0 -62.5 7.5t-49.5 33.5q-12 14 -18.5 22.5t-14.5 30t-8 54.5zM168 754q0 31 35 30h47q18 0 26 -10l9 -20q0 -33 -37 -33h-43 q-37 0 -37 33zM420 -74q0 57 43 104.5t110 47.5q51 0 99.5 -42t48.5 -110q0 -51 -35 -94q-43 -53 -113 -53q-68 0 -112 47q-41 47 -41 100zM514 -74q0 31 35 31h47q18 0 27 -10l8 -21q0 -33 -37 -32h-43q-37 0 -37 32z" />
<glyph unicode="}" horiz-adv-x="307" d="M43 1290q0 45 37 86t90 41q41 0 82 -35.5t41 -93.5l6 -59q0 -106 -47 -199q-53 -104 -137 -117l-4 9q37 31 56 83t19 97q0 49 -16 57q-61 0 -94 41q-10 14 -19 31q-14 29 -14 59z" />
<glyph unicode="~" horiz-adv-x="1081" d="M20 375q35 70 93 121q68 55 163 55q49 0 111 -19q14 -4 25.5 -7t36.5 -15l55 -25l114 -49q59 -25 95 -24q53 0 102 47q21 20 78 100l74 -102q-20 -29 -40 -118t-34 -101q-68 -55 -154 -56l-65 6q-20 4 -35.5 9.5t-32.5 13.5l-76 39q-72 35 -143 72q-18 6 -29 6 q-8 0 -29.5 -3t-33.5 -3q-59 0 -107 -48q-20 -20 -33.5 -38.5t-31.5 -53.5z" />
<glyph horiz-adv-x="823" d="M-10 809q57 121 84 164q98 166 155 166l205 -2v-861h242q37 23 55 27q12 -10 14 -18q0 -49 -80.5 -167t-121.5 -118h-74l-68 -2q-98 0 -98 20v801l-63 17l-52 12l-38 4q-27 0 -58 -6t-67 -23z" />
<glyph horiz-adv-x="819" d="M61 737v338l2 19l5 6l10 -19l18 -34q18 -49 33 -50l104 86q57 45 177 45q154 0 241 -53q92 -49 92 -186q0 -260 -108 -375q-20 -20 -76 -53l-127 -55q-111 -37 -110 -109q0 -45 19 -103.5t79 -152.5q12 -18 -25 -33l-63 -6l-127 -2l-43 -2q-25 0 -35 -4q-27 0 -35 26 l-8 62l-2 113q0 193 135 272l254 84q139 53 139 197v24q0 14 -4 31q0 31 -50 49t-128 18q-154 0 -179.5 -59t-187.5 -74z" />
<glyph horiz-adv-x="911" d="M0 154l150 92l239 676l-82 204l246 -163l-143 -400l43 6l84 17q41 0 77 -23l52 -33q41 -27 64.5 -48t23.5 -54q0 -23 -15 -57q-45 -113 -63 -176l82 16l92 25l-92 -216q0 -27 -45 -26l-39 2q-29 0 -39 4q-47 0 -67.5 11.5t-26.5 45.5q0 37 20 99l43 141q6 31 -14.5 39 t-45 9t-38.5 1l-92 -2h-80l-129 -364z" />
<glyph horiz-adv-x="1116" d="M-20 133l184 143l317 840h154l164 -840h235l-358 -276l-82 819l-117 4l-231 -823z" />
<glyph horiz-adv-x="860" d="M4 340q0 141 117 251.5t282 110.5q166 0 285 -106.5t119 -251.5v-676v-49q-6 -37 27 -65q25 -18 55 -31l22 -4q31 0 33 28q0 25 -33 39l2 17q6 6 25 -2q51 -18 51 -99q0 -53 -33 -92q-18 -25 -57 -39l-68 -20q-27 0 -43 8q-70 31 -102 113q-6 25 -41 47l-6 14l39 29 q12 10 31 51l16 72v669q0 37 -103.5 62.5t-222.5 25.5l-116 -6l-64 -8l-43 -12q-94 -25 -94 -66l6 -16l12 -23l29 -26l43 -15l49 -6h154q27 0 67 15l62 16l31 -6q35 -12 43 -31l4 -18l4 -39l-4 -31q-6 -51 -35 -80l-41 -39l-37 -35q-16 -16 -57 -16h-21l-16 14 q-10 25 -35 25l-70 -14q-104 0 -190 112q-76 100 -76 203z" />
<glyph horiz-adv-x="860" d="M2 340q0 147 114.5 249.5t282.5 102.5q170 0 288 -101.5t118 -246.5q0 -123 -75 -216t-148 -93l-23 4q-18 -6 -24 -21l-3 -22q6 -12 -4 -21l-41 35l-20 27l-21 47l-14 47l-6 49q0 61 30.5 118.5t92.5 57.5q43 0 96 -39l47 -10q31 16 31 37q0 25 -108.5 56.5t-217.5 31.5 l-116 -6l-64 -8l-43 -12q-94 -25 -94 -66l6 -14l16 -19l68 37q78 39 111 39q55 0 84.5 -47t29.5 -123q0 -51 -24 -137q-6 -45 -41 -62q-31 -18 -54 -12q-117 37 -195.5 130t-78.5 208zM170 281l43 -13l49 -10q25 0 27 29q0 37 -35 37q-18 0 -47 -15l-29 -20z" />
<glyph unicode="&#xa0;" horiz-adv-x="1361" d="M150 678q0 88 59 149.5t151 61.5q51 0 105.5 -25.5t136.5 -107.5l-39 102l-14 60l-6 49q0 57 55 149q55 59 145 60q80 0 149 -56.5t69 -148.5l-3 -60q0 -16 -14 -47l-43 -100l113 88q68 37 139 37q80 0 141.5 -62.5t61.5 -148.5t-70 -158q-70 -57 -170 -57l-115 10 q119 -63 173 -133q43 -55 43 -123q0 -78 -64 -141l-66 -47l-40 -15l-37 -2q-117 0 -183 97q-49 55 -69 200l-29 -125l-12 -32l-21 -33q-27 -45 -78 -80l-45 -16l-24 -7l-31 -4q-61 0 -151 62q-63 63 -64 149q0 51 62 150q45 45 139 98l-92 -6q-109 0 -179 51q-84 59 -83 162 zM248 668q0 -55 69 -127l66 -33q37 -12 78 -12l33 2l71 18v66l-123 49l-16 6l-23 25q6 10 17 12l16 -2l13 -2l131 -25l36 47q-37 59 -98 92l-57 25l-58 8q-61 0 -110 -43l-31 -43zM389 250q0 -29 43 -103q43 -43 105 -43q53 0 131 74q61 74 61 154l-2 28l-57 19l-92 -100 l-13 -15l-16 -8l-10 12l12 33l67 121l-38 47q-59 -25 -131 -80q-59 -59 -60 -139zM596 889q0 -80 63 -164l60 20l12 134l2 28q6 12 17 13l14 -19l4 -22l20 -134l54 -20l30 49l17 33l14 86q0 53 -37 131q-43 55 -118 55q-45 0 -113 -55q-39 -88 -39 -135zM788 334 q0 -57 11 -84l20 -41l25 -33q55 -72 141 -72q33 0 100 43l27 37q12 25 18 70q0 72 -65 137q-26 23 -137 76l-31 -45l70 -113q16 -18 18 -39l-12 -12l-8 4l-13 8l-16 15l-94 94l-54 -19v-26zM885 694l41 -49l129 31l26 4q16 0 19 -14l-6 -15l-29 -14l-121 -53v-66l49 -10 l58 -4q82 0 145.5 41t63.5 125q0 61 -45.5 106t-112.5 45q-59 0 -117.5 -32t-99.5 -95z" />
<glyph unicode="&#xa1;" horiz-adv-x="1392" d="M182 596q0 59 62 59l18 -12l35 -25l6 82l8 37l15 39q25 51 94 139l-27 -6q-55 0 -55 60q0 57 59 57q57 0 58 -55l-2 -23q31 29 135 88l78 25l79 8q-35 18 -34 55q0 57 57 58q57 0 57 -58q0 -33 -34 -55q82 0 153 -33q76 -25 141 -88l-2 23q0 55 58 55q59 0 59 -57 q0 -59 -57 -60l-25 6q121 -133 121 -297q23 37 55 37q59 0 60 -59q0 -57 -60 -57q-31 0 -55 36q0 -51 -8 -81l-25 -76q-23 -47 -88 -139l25 4q57 0 57 -58q0 -59 -59 -59q-57 0 -58 57l2 25q-139 -123 -294 -123q35 -18 34 -55q0 -57 -57 -58q-57 0 -57 58q-1 35 34 55 q-53 0 -155 31q-43 18 -137 92l2 -25q0 -57 -58 -57q-59 0 -59 59q0 57 55 58l25 -4q-25 29 -90 139q-31 74 -31 157q-18 -37 -53 -36q-61 0 -62 57zM418 543q6 -45 20 -76l15 -35l30 -45q10 25 54 37q0 27 57 59q4 8 11 19.5t26 34.5l-2 6l-27 -4l-14 4l-23 12l-43 -16 q-20 0 -39 16l-39 -16zM418 651l26 4q14 0 39 -16l39 16q20 0 43 -16l37 16q20 0 27 -4l2 6l-35 54q-25 6 -59 59q-8 4 -15 8q-16 10 -39 29l-39 -76l-14 -33zM559 311l156 -63l-6 24q0 12 18 37l-16 41q0 27 16 43l-16 39l4 25l-8 2l-54 -35q0 -25 -59 -59q0 -31 -35 -54z M559 883q29 -12 37 -56q49 0 57 -57q16 0 29 -10q12 -6 25 -27l8 4l-4 27q0 14 16 37l-16 41q0 20 16 43l-16 37l4 26q-45 -10 -82 -26q-39 -12 -74 -39zM690 596q0 -25 17 -47q18 -19 61 -31q31 0 54.5 22.5t23.5 55.5l-25 57l-12 6l-41 17q-31 0 -50.5 -19.5t-27.5 -60.5z M809 309q12 -12 18 -37l-6 -24q80 12 156 63l-35 54q-25 6 -59 59q-31 0 -54 35l-8 -2l6 -25l-6 -16l-12 -23q12 -12 18 -41q0 -18 -18 -43zM809 801q12 -12 18 -37l-6 -27l8 -4q10 25 54 37q6 49 59 57q0 37 35 56q-16 16 -156 65l6 -26q0 -12 -18 -37l18 -43l-6 -17z M905 657l2 -6l27 4q16 0 39 -16l41 16q14 0 41 -16l37 16l26 -4q-18 88 -65 156q-10 -25 -54 -37q0 -23 -57 -59l-8 -15zM907 543l23 -29l12 -31q49 -6 57 -59q37 -6 56 -37l63 156l-26 -4l-17 4l-20 12l-41 -16q-18 0 -41 16l-39 -16z" />
<glyph unicode="&#xa2;" horiz-adv-x="1536" d="M152 735h458l144 422h18l180 -29l135 -393h345l100 -33l-348 -253l147 -429l-215 9l-237 178l-289 -213l-211 43l139 420zM250 702l309 -229l-131 -387l340 246l328 -246l-123 387l330 229h-400l-135 398l-131 -398h-387z" />
<glyph unicode="&#xa3;" horiz-adv-x="1372" d="M147 606q0 229 179.5 423t433.5 194q248 0 431 -179.5t183 -437.5q0 -250 -180 -432q-86 -86 -197 -135l-108 -31l-66 -10l-63 -4q-252 0 -432.5 180t-180.5 432zM225 606q0 -217 157 -375.5t378 -158.5q215 0 374.5 153.5t159.5 380.5q0 225 -154.5 382t-379.5 157 q-215 0 -375 -161t-160 -378zM401 573h48q55 -252 311 -251q225 0 311 251h51q-18 -168 -114.5 -259t-247.5 -91q-127 0 -242 86q-86 86 -117 264zM469 803q0 41 27.5 68.5t68.5 27.5t68 -29q31 -25 31 -67q0 -39 -29 -68q-25 -28 -70 -28q-37 0 -69 26q-27 33 -27 70z M856 803q0 37 31 67q25 29 69 29q39 0 68 -29q29 -25 29 -67q0 -39 -29 -68q-25 -28 -68 -28q-41 0 -70.5 28.5t-29.5 67.5z" />
<glyph unicode="&#xa4;" horiz-adv-x="1413" d="M150 371v471h581v254h201l459 -490l-459 -489h-201v254h-581zM315 412h592v-260l428 454l-428 455v-260h-592v-389z" />
<glyph unicode="&#xa5;" horiz-adv-x="1464" d="M170 12l2 13l12 24l68 144l14 18l-18 20l49 134l25 88l47 133l80 78l59 51l86 61q39 27 84 43l98 -55l127 141l17 72q12 68 28 70q25 0 49 -86l15 -62l4 -51q0 -14 -4 -19l-21 -24l-106 -121l135 -88l43 -23l35 -12l43 -4l18 33l244 -17l33 -114l6 -164l-43 -227l-240 -5 l-22 87l-148 -31l-147 14l-29 2l-98 -8l-94 -6q-63 0 -95 8l-106 29l-88 -95l-121 -45l-33 -12zM217 66q0 -12 12 -19l25 4l27 15l30 8l11 16l-5 14l-14 23q-12 25 -31 31l-14 -8l-27 -46l-12 -22zM272 238l19 -2l12 6l33 24l14 70q0 18 -22 41zM334 393l31 -16l10 -49 l-37 -90h27l22 24l29 33l18 24l19 39l36 80l259 293l-35 27q-18 18 -35 20q-18 0 -78 -39l-45 -32l-29 -25l-90 -82l-30 -29l-17 -24l-14 -33zM426 215q0 -18 8 -27l47 -12l37 -4l17 6l6 17l6 16l-6 39l-4 35l6 -6l14 -19q12 -23 12 -39q0 -18 -12 -37l-8 -12l18 -12l37 -4 l37 -2l39 2q39 0 55 10l62 10l41 4l28 -6l76 -10l47 -4l37 2l39 6l94 27l12 2l17 100l2 45q0 51 -8 82l-27 98l-104 10l-195 119l-92 -104l2 -33q0 -31 -12 -68l-72 -86l23 -2l43 7l90 32l-7 -14l-12 -18l-33 -29l-182 -8q-57 0 -74 -11l-43 -20l-45 -31q-16 -23 -16 -51z M604 362l39 -4q29 0 62 58l20 51l6 45zM1182 104l170 15l16 90l8 113l-2 59q0 37 -6 55q0 16 -31 103h-139l4 -25l17 -164v-61l-9 -45l-12 -74l-2 -27z" />
<glyph unicode="&#xa6;" horiz-adv-x="1925" d="M217 793v36q0 119 90 281q131 53 304 83t352 30q98 0 183 -6.5t177 -22.5q37 -6 78 -14.5t78 -20.5q71 -18 149 -49q90 -152 90 -274v-31q0 -76 -35 -105q-31 -31 -114 -30q-236 0 -236 170v49q0 57 -15 80.5t-71 48.5q-90 37 -280 37q-188 0 -276.5 -37t-88.5 -127v-47 q0 -174 -240 -174q-80 0 -112 26q-33 33 -33 97zM256 807q0 -43 26.5 -70.5t79.5 -27.5q92 0 154 34q47 25 47 97v32q-96 -55 -203 -55l-53 2l-51 12v-24zM262 872l43 -12l47 -4q94 0 211 57v13q0 168 398 168q412 0 411 -168v-13l117 -43q57 -14 100 -14q47 0 82 16 q-26 125 -65 205q-141 49 -301 80q-190 27 -344 27q-80 0 -161 -6.5t-171 -20.5q-166 -25 -301 -80l-37 -98zM385 8v160q0 92 18.5 152.5t73.5 150.5l195 307v187h178v-148h237v148h177v-187l194 -309q61 -98 76.5 -147.5t15.5 -153.5v-160h-1165zM426 47h1085v121v27 q0 90 -10 116q-8 33 -88 158l-188 303v154h-99v-148h-315v148h-98v-160l-189 -295q-63 -106 -84 -158q-14 -47 -14 -145v-121zM752 383v70h98v-70h-98zM752 502v67h98v-67h-98zM752 621v69h98v-69h-98zM918 383v70h98v-70h-98zM918 502v67h98v-67h-98zM918 621v69h98v-69 h-98zM1087 383v70h99v-70h-99zM1087 502v67h99v-67h-99zM1087 621v69h99v-69h-99zM1372 823q0 -41 55 -75q57 -29 146 -29q59 0 82.5 18.5t23.5 71.5v22q-43 -14 -90 -14q-115 0 -217 55v-49z" />
<glyph unicode="&#xa7;" horiz-adv-x="1824" d="M172 739q0 303 216 522.5t525 219.5q305 0 522.5 -220.5t217.5 -521.5q0 -305 -217 -522t-523 -217q-305 0 -523 219t-218 520zM221 739q0 -281 203 -485.5t489 -204.5q285 0 488 202t203 488q0 281 -202 487t-489 206q-285 0 -488.5 -204t-203.5 -489zM283 707v67h67 v-67h-67zM350 455l60 32l32 -59l-57 -33zM350 1026l35 57l59 -32l-34 -60zM567 211l35 59l60 -34l-35 -60zM569 1268l60 35l33 -60l-60 -33zM803 702v74h74v76h73v-76h234v49l172 -86l-172 -86v49h-234v-432h49l-86 -172l-86 172h50v432h-74zM879 1303v67h67v-67h-67z M1165 236l60 34l32 -59l-59 -35zM1165 1243l33 60l59 -35l-34 -60zM1382 1051l60 32l33 -59l-60 -33zM1384 428l33 59l60 -32l-35 -60zM1475 707v67h67v-67h-67z" />
<glyph unicode="&#xad;" horiz-adv-x="1007" d="M61 406v190l123 -21l127 -16q39 -4 86 -6t74 -2h31.5t21.5 2h39h33q20 4 31 4q53 0 139 18l125 21v-190l-125 22l-127 16l-115 7q-86 -2 -178 -6.5t-162 -16.5z" />
<glyph unicode="&#xd6;" horiz-adv-x="1476" d="M6 389q0 133 100 242q111 123 289 123q82 0 174 -49q76 -45 123 -109q86 86 115 104q84 53 207 54q133 0 241 -101q119 -109 119 -264q0 -156 -118.5 -272.5t-268.5 -116.5h-31q-25 0 -42 6t-41.5 29.5t-30.5 74t-13 95.5q0 27 13 45q20 29 56 60.5t56 31.5h187 q43 0 64.5 -37t27.5 -33q29 18 43 39l10 27l4 51q0 33 -15 58.5t-40 39t-64 19.5h-333q-27 0 -50 -8l-38 -19l10 -43l2 -47q0 -176 -116 -282.5t-273 -106.5q-156 0 -269 125q-98 115 -98 264zM96 373q0 -43 29 -84l43 -31l61 -8h318q45 0 63.5 9t40.5 32q33 45 33 102 l-6 29q0 14 -8 24q-16 27 -41 39.5t-64 18.5h-334q-43 0 -61 -10q-18 -6 -43 -31l-21 -37zM244 377q0 -20 14 -41l23 -17l30 -4h158l31 4l22 17q13 18 17 51l-4 14q-2 10 -5 13q-8 14 -22 20l-29 8h-168q-23 0 -30 -4l-21 -16l-10 -19zM938 211q8 -8 37 -8q16 0 39.5 2 t52.5 6q16 0 27.5 -2t21.5 -4q14 0 25 8q-14 16 -44 31.5t-63 15.5q-37 0 -59 -14q-6 -4 -37 -35z" />
<glyph unicode="&#xd7;" horiz-adv-x="1474" d="M4 389q0 127 98 242q111 123 287 123q82 0 174 -49q76 -45 123 -109q49 72 123 111q88 47 199 47q143 0 253.5 -108.5t110.5 -256.5q0 -158 -109.5 -273.5t-254.5 -115.5q-213 0 -324 160q-49 -74 -137 -119q-20 -10 -40 -17.5t-55.5 -15.5t-84.5 -8q-152 0 -257.5 118 t-105.5 271zM90 373q0 -43 29 -84l43 -31l61 -8h318q45 0 63.5 9t40.5 32q33 45 33 102l-6 29q0 14 -8 24q-16 27 -41 39.5t-64 18.5h-334q-43 0 -61 -10q-18 -6 -43 -31l-21 -37zM244 377q0 -20 14 -41l23 -17l30 -4h158l31 4l22 17q13 18 17 51l-4 14q-2 10 -5 13 q-8 14 -22 20l-29 8h-168q-23 0 -30 -4l-21 -16l-10 -19zM745 446q6 -18 39 -18q23 0 78.5 9t73.5 9q72 0 141.5 -20t69.5 -53q6 -10 8 -17q10 -23 10 -30q0 -20 -12 -58l-6 -18q6 -6 12 -10q18 2 44 15t48 36q33 45 33 102l-6 29q0 14 -8 24q-16 27 -41 39.5t-64 18.5h-334 q-20 2 -28 2q-12 0 -23 -10zM831 311q15 -41 21 -61h164l12 16q-12 16 -37 29q-8 4 -49 16h-111z" />
<glyph unicode="&#xd8;" horiz-adv-x="1056" d="M4 393q0 119 98 236q115 127 287 127q164 0 270 -125q96 -113 97 -264v-541q0 -35 24 -64q10 -10 47 -20q14 -4 54 -10q4 0 4 116q0 96 -6.5 409.5t-6.5 430.5q0 43 1 96.5t8 55.5q-55 20 -93 28q-120 31 -237 31q-10 0 -12 -24.5t-11 -34.5l-34 -23l-52 -4 q-117 0 -210 87t-93 214q0 139 103 221q90 72 207 72q100 0 178 -76l104 -98l37 -12l37 -4q33 0 76 14l80 26q-49 -61 -113 -94q-49 -25 -103 -24q-39 0 -72.5 12t-45 23.5t-39.5 25.5l-66 8h-205q-55 0 -82.5 -32.5t-27.5 -79.5q0 -18 13 -40t29.5 -32t53.5 -16h166 q25 0 59 -37q2 -4 43 -4q23 0 80.5 2t79.5 2h150q33 0 65 -47q4 -8 15 -25q4 -57 4 -293q0 -178 -1 -396t-3 -478q0 -29 20 -58q10 -14 23 -28q0 -68 -35 -114t-107 -46q-90 0 -149 111q-43 90 -43 206v564l-2 47l-6 32q-16 27 -41 39.5t-64 18.5h-324q-45 0 -61 -10 q-18 -6 -43 -31q-33 -45 -33 -103l6 -28q0 -14 9 -25l32 -35q14 -12 47 -20q0 33 5.5 47t25 34.5t44 33t63.5 12.5h110q31 0 60.5 -18.5t44.5 -38.5l8 -35l2 -164q0 -37 -51 -82q-51 -41 -117 -41q-174 0 -287 131q-94 119 -94 262zM281 285q0 -14 12 -27q12 -6 33 -6h104 q43 0 45 33q0 28 -47 28h-100q-47 0 -47 -28z" />
<glyph unicode="&#xd9;" horiz-adv-x="1456" d="M4 274q0 39 47 39q23 0 35 -6l23 -12q29 -41 104 -41h332q39 6 57 16q31 18 47 41q8 10 8 25l7 29q0 57 -33 102q-25 25 -43 31q-16 10 -62 10h-329q-43 0 -62 -12l-24 -27q-16 -23 -60 -23q-47 0 -47 39q0 80 102 170q115 102 261 103q96 0 176 -43t129 -111 q45 -41 57 -105.5t12 -129.5q0 -51 -12 -88l39 -23q10 -4 51 -4h332q39 6 57 16q31 18 47 41q14 27 15 58q0 53 -17 75q-8 16 -24 17q-12 0 -39 -17.5t-39 -17.5h-217q-43 0 -78 45q-10 14 -22.5 72.5t-12.5 105.5q0 43 33 76q29 25 50.5 29t62.5 4q150 0 268.5 -117.5 t118.5 -271.5q0 -164 -117 -269q-104 -96 -248 -96q-86 0 -168 33q-78 41 -149 127q-59 -78 -136 -120t-169 -42q-143 0 -261 104q-102 94 -102 168zM942 520h209q-47 41 -115 41q-59 0 -94 -41z" />
<glyph unicode="&#xf6;" horiz-adv-x="1476" d="M6 389q0 133 100 242q111 123 289 123q82 0 174 -49q76 -45 123 -109q86 86 115 104q84 53 207 54q133 0 241 -101q119 -109 119 -264q0 -156 -118.5 -272.5t-268.5 -116.5h-31q-25 0 -42 6t-40 27q-33 33 -32 78q0 53 34.5 100t77.5 47l217 -4q31 0 61 18.5t44 38.5 l10 27l4 51q0 33 -15 58.5t-40 39t-64 19.5h-333q-27 0 -50 -8l-38 -19l10 -43l2 -47q0 -176 -116 -282.5t-273 -106.5q-156 0 -269 125q-98 115 -98 264zM96 373q0 -43 29 -84l43 -31l61 -8h318q45 0 63.5 9t40.5 32q33 45 33 102l-6 29q0 14 -8 24q-16 27 -41 39.5 t-64 18.5h-334q-43 0 -61 -10q-18 -6 -43 -31l-21 -37zM244 377q0 -20 14 -41l23 -17l30 -4h158l31 4l22 17q13 18 17 51l-4 14q-2 10 -5 13q-8 14 -22 20l-29 8h-168q-23 0 -30 -4l-21 -16l-10 -19z" />
<glyph unicode="&#xf7;" horiz-adv-x="1474" d="M4 389q0 127 98 242q111 123 287 123q82 0 174 -49q76 -45 123 -109q49 72 123 111q88 47 199 47q143 0 253.5 -108.5t110.5 -256.5q0 -158 -109.5 -273.5t-254.5 -115.5q-213 0 -324 160q-49 -74 -137 -119q-20 -10 -40 -17.5t-55.5 -15.5t-84.5 -8q-152 0 -257.5 118 t-105.5 271zM90 373q0 -43 29 -84l43 -31l61 -8h318q45 0 63.5 9t40.5 32q33 45 33 102l-6 29q0 14 -8 24q-16 27 -41 39.5t-64 18.5h-334q-43 0 -61 -10q-18 -6 -43 -31l-21 -37zM238 377q0 -20 14 -41l22 -17l31 -4h158l31 4l22 17q12 18 16 51l-4 14q-2 10 -4 13 q-8 14 -22 20l-29 8h-168q-23 0 -31 -4l-20 -16l-10 -19zM741 475q20 -72 21 -104q0 -35 -19 -97l31 -18q16 -6 55 -6h318q45 0 63.5 9t40.5 32q33 45 33 102l-6 29q0 14 -8 24q-16 27 -41 39.5t-64 18.5h-334q-33 0 -51 -8z" />
<glyph unicode="&#xf9;" horiz-adv-x="1456" d="M4 274q0 39 47 39q23 0 35 -6l23 -12q29 -41 104 -41h332q39 6 57 16q31 18 47 41q8 10 8 25l7 29q0 57 -33 102q-25 25 -37 30t-30.5 7t-37.5 4v-8h-18t-25 2q-20 0 -28 -4l-17 -90q-2 -12 -18.5 -17.5t-40.5 -5.5q-78 0 -145.5 -1t-124.5 -1q-68 0 -93 45 q-12 23 -12 57q0 80 102 170q115 102 261 103q96 0 176 -43t129 -111q45 -41 57 -105.5t12 -129.5q0 -51 -12 -88l39 -23q10 -4 51 -4h332q39 6 57 16q31 18 47 41q14 27 15 58q0 53 -15.5 76.5t-37.5 39.5q-31 23 -66 23h-217q-43 0 -78 46t-35 95q0 43 33 76 q29 25 50.5 29t62.5 4q150 0 268.5 -117.5t118.5 -271.5q0 -164 -117 -269q-104 -96 -248 -96q-86 0 -168 33q-78 41 -149 127q-59 -78 -136 -120t-169 -42q-143 0 -261 104q-102 94 -102 168zM143 508q35 -41 95 -41q67 0 114 41h-209z" />
<glyph unicode="&#x153;" horiz-adv-x="872" d="M2 350v746q0 147 119 247.5t289 100.5q154 0 275.5 -103.5t121.5 -248.5l-6 -13l-13 -14l-34 -10q-14 0 -29 20l4 17q0 43 -91 67.5t-226 24.5t-232.5 -48.5t-97.5 -127.5l-2 -596q0 -66 94 -121l100 -25l123 -8l125 6q27 0 51 8l54 15q84 25 96 59q0 25 -23 31l-28 4 l-17 -4q-61 -31 -116 -31q-72 0 -146 76q-45 63 -45 106q0 74 80 140q41 18 78 28.5t80 10.5l57 -7l31 -14l31 -14q61 -37 81 -101q0 -12 13 -18l18 2l6 -4l6 -4q6 -18 -16 -41l-39 -21l-51 -6q-23 0 -72 19l-55 28l-10 -26q0 -31 78 -45q39 0 55 -9l43 -18l20 -20 q6 -6 23 -62q0 -141 -119 -244.5t-287 -103.5q-160 0 -278.5 106.5t-118.5 245.5z" />
<glyph unicode="&#x161;" horiz-adv-x="860" d="M2 350q0 160 108.5 256t280.5 96q117 0 217 -51q100 -61 140 -170q0 -12 16 -14l24 -2q13 0 19 -14q-6 -43 -62 -74q-61 -20 -81 -21q-20 0 -25 4l-174 41l-64 13l-65 4l-74 -4l-82 -8l-57 -15q-43 -12 -43 -41q0 -31 115 -61q137 -27 225 -27l139 6q61 6 98 23 q14 14 41 14q16 0 60 -24q23 -16 35 -54l-7 -24l-16 -47l-231 -674l2 -35q0 -29 -12.5 -64.5t-47.5 -35.5q-14 0 -41 10q-47 18 -47 51q0 23 39 64l41 45l182 551q-27 -18 -110 -52l-60 -12l-65 -4q-176 0 -297 102.5t-121 247.5z" />
<glyph unicode="&#x178;" horiz-adv-x="872" d="M2 348q0 141 118 246.5t279 105.5q170 0 288 -101t118 -247q0 -39 -29 -69l-14 -13q-4 -4 -98 -28q-78 0 -78 -43q0 -18 4 -23l6 -4l41 18q51 29 86 29l51 -6q12 0 36.5 -18t18.5 -43l-12 -9l-18 2q-12 0 -13 -18q-6 -61 -77 -109l-68 -32q-43 -18 -86 -19 q-80 0 -143.5 52.5t-63.5 150.5q0 49 45 109q55 74 144 73q41 0 118 -30q12 -6 45 0q4 4 7 6q10 10 16 24q0 25 -102 56l-107 24l-117 8q-135 0 -226 -35.5t-91 -117.5l2 -596q0 -72 100.5 -124t229.5 -52q166 0 241.5 22.5t75.5 69.5q-16 37 25 37q18 0 35.5 -11.5 t17.5 -25.5q0 -147 -114.5 -249.5t-282.5 -102.5q-170 0 -289 100t-119 248v745z" />
<glyph unicode="&#x2dc;" horiz-adv-x="780" d="M-119 -360q4 33 15 49l16 6l27 2l20 -19l29 -18q102 -51 284 -51h25l143 6q63 6 92 23q66 29 66 79v836l-16 43l-11 47q0 29 16.5 45.5t61.5 16.5q55 0 56 -50l-13 -59l-18 -51v-848q0 -127 -103 -232q-119 -119 -299 -118q-160 0 -275.5 87t-115.5 206z" />
<glyph unicode="&#x2000;" horiz-adv-x="819" />
<glyph unicode="&#x2001;" horiz-adv-x="1638" />
<glyph unicode="&#x2002;" horiz-adv-x="819" />
<glyph unicode="&#x2003;" horiz-adv-x="1638" />
<glyph unicode="&#x2004;" horiz-adv-x="546" />
<glyph unicode="&#x2005;" horiz-adv-x="409" />
<glyph unicode="&#x2006;" horiz-adv-x="273" />
<glyph unicode="&#x2007;" horiz-adv-x="273" />
<glyph unicode="&#x2008;" horiz-adv-x="204" />
<glyph unicode="&#x2009;" horiz-adv-x="327" />
<glyph unicode="&#x200a;" horiz-adv-x="91" />
<glyph unicode="&#x2010;" horiz-adv-x="1007" d="M61 406v190l123 -21l127 -16q39 -4 86 -6t74 -2h31.5t21.5 2h39h33q20 4 31 4q53 0 139 18l125 21v-190l-125 22l-127 16l-115 7q-86 -2 -178 -6.5t-162 -16.5z" />
<glyph unicode="&#x2011;" horiz-adv-x="1007" d="M61 406v190l123 -21l127 -16q39 -4 86 -6t74 -2h31.5t21.5 2h39h33q20 4 31 4q53 0 139 18l125 21v-190l-125 22l-127 16l-115 7q-86 -2 -178 -6.5t-162 -16.5z" />
<glyph unicode="&#x2012;" horiz-adv-x="1007" d="M61 406v190l123 -21l127 -16q39 -4 86 -6t74 -2h31.5t21.5 2h39h33q20 4 31 4q53 0 139 18l125 21v-190l-125 22l-127 16l-115 7q-86 -2 -178 -6.5t-162 -16.5z" />
<glyph unicode="&#x2013;" horiz-adv-x="1201" d="M61 406v190l152 -21l156 -16q49 -4 107 -6t91 -2h38.5t26.5 2h48h41q25 4 38 4q66 0 172 18l154 21v-190l-154 22l-157 16l-142 7q-106 -2 -219.5 -6.5t-199.5 -16.5z" />
<glyph unicode="&#x2014;" horiz-adv-x="862" d="M-23 479l5 17l2 12l16 6l8 -4l6 -4l-2 -17l6 -12l13 2q37 96 143 160q55 31 108.5 47t110.5 16q170 0 288 -101.5t118 -246.5q0 -147 -109.5 -250.5t-290.5 -103.5q-127 0 -229 63q-86 55 -129 136q-12 0 -23 -11l-6 -20l-18 -8q-14 0 -14 37v34q12 127 161 127l64 -2 l39 -6l61 -14q45 -6 162 -51l76 -9l55 3q70 16 94.5 34.5t24.5 40.5q0 18 -43 43l-53 21l-70 14l-29 4l-55 4l-51 -2q-16 0 -58 -14q-184 -43 -258 -43q-39 0 -56 6t-44 33q-6 8 -23 59z" />
<glyph unicode="&#x2018;" horiz-adv-x="952" d="M59 233q0 70 2 117t9.5 81t31.5 54q12 51 111.5 70.5t359.5 19.5v525l121 -39v-486l115 -2l72 -184l-187 -2v-326q-4 -10 -39 -41l-37 -32h-299q-166 0 -208 37q-51 45 -52 208zM186 260q0 -59 90 -59l152 8l145 6v172l2 12q-268 0 -328.5 -17t-60.5 -122z" />
<glyph unicode="&#x2019;" horiz-adv-x="940" d="M45 684q0 -115 56.5 -150.5t193.5 -35.5l162 2h53h41l43 4v-463l121 -43v506l153 2l-61 186h-92v359l-19 26l-37 41l-311 -2q-164 -16 -211 -39q-88 -45 -88 -170zM172 805q0 37 33 46t60.5 13t68.5 4l139 -2h55l60 -4v-170l-131 -2l-142 -2q-90 0 -116.5 20.5 t-26.5 96.5z" />
<glyph unicode="&#x201c;" horiz-adv-x="921" d="M41 0v143l471 738h-471l92 225h707l-92 -164l-461 -717h491l-92 -225h-645z" />
<glyph unicode="&#x201d;" horiz-adv-x="778" d="M55 395q0 131 51 197q12 18 52 39l-62 98q-35 133 -35 385l43 -8q133 -82 172 -82l-26 -63l-19 -58l-12 -53l-2 -39q0 -68 55 -102q47 -20 121 -21q137 0 137 121q0 82 -59 215q12 0 86 44t158 44q-18 -12 -31.5 -37.5t-13.5 -48.5q0 -258 -31 -342q-12 -31 -74 -53 l68 -39q72 -49 72 -197q0 -109 -12.5 -185.5t-41.5 -119.5q-68 -104 -272 -104q-172 0 -242 75q-82 94 -82 334zM205 395q0 -117 45 -155q37 -31 129 -31q94 0 135 33q51 41 51 153q0 55 -24 90q-41 43 -162 43q-96 0 -139 -41q-35 -31 -35 -92z" />
<glyph unicode="&#x2022;" horiz-adv-x="788" d="M55 711q0 238 101 329q70 59 223 60q178 0 239 -56q87 -77 87 -333q0 -117 -50 -195q-37 -49 -90 -61q47 -18 74 -88q37 -92 37 -267l20 -10l29 -8l70 -6q-49 -37 -97 -58l-41 -12l-47 -4q-35 0 -75 12q-37 14 -74 39l80 58q23 27 22 129q0 84 -37 125q-20 18 -61 29.5 t-103 11.5q-86 0 -124.5 -32t-38.5 -122q0 -104 18.5 -133t99.5 -78l-120 -18l-109 -25q-10 0 -16 14v154q0 119 18.5 178t87.5 111l-37 12q-86 55 -86 244zM184 711q0 -76 49 -107q57 -27 146 -26q117 0 162 27.5t45 105.5q0 92 -35 125q-27 23 -98 22l-37 -2h-37h-51 q-74 0 -103 -20q-41 -31 -41 -125z" />
<glyph unicode="&#x202f;" horiz-adv-x="327" />
<glyph unicode="&#x203a;" horiz-adv-x="905" d="M0 -336q0 55 42 81t95 26q35 0 41 -4l6 -17l-22 -43q0 -16 16 -26l51 -25q57 -23 133 -23q121 0 227.5 49.5t131.5 143.5l4 27v32v469q0 37 -103.5 62.5t-222.5 25.5l-116 -6l-64 -8l-43 -12q-94 -25 -94 -66l8 -14l19 -21l47 -14q20 0 51 16q20 6 49 27q20 10 50 23.5 t50 21.5l60 14l41 5q80 0 139 -58q51 -57 51 -129l-4 -31q-12 -72 -76 -139q-63 -51 -155 -51h-21l-16 14q-10 25 -35 25l-70 -14q-104 0 -190 112q-76 100 -76 203q0 141 117 251.5t282 110.5q166 0 285 -106.5t119 -251.5v-471v-72q6 -37 39 -82q24 -34 24 -120 q0 -74 -102 -152q-129 -98 -338 -98q-174 0 -297 84q-133 90 -133 231zM256 274l59 -10l88 -4q12 0 29 31q0 33 -37 33l-28 -7l-78 -30z" />
<glyph unicode="&#x205f;" horiz-adv-x="409" />
<glyph unicode="&#x2122;" horiz-adv-x="860" d="M-8 451q4 18 24 18q16 0 35 12q25 104 139 170q113 51 218 51q170 0 279.5 -93t109.5 -259q0 -147 -120 -248.5t-298 -101.5q-121 0 -236 68l203 -551l57 -64l23 -47q0 -31 -47 -49l-25 -6l-22 -4q-16 0 -41 26l-8 27l-2 37v45l-252 674l-17 47l-8 26q0 29 29.5 52.5 t66.5 23.5q25 0 41 -14q98 -29 238 -29q125 0 232.5 24.5t107.5 63.5q0 18 -24.5 30.5t-76.5 25.5l-92 8l-65 4l-62 -2q-20 0 -65 -15l-174 -41l-27 -4q-43 0 -80 19q-49 25 -61 76z" />
<glyph unicode="&#x25fc;" horiz-adv-x="757" d="M0 0v758h758v-758h-758z" />
</font>
</defs>
</svg>
