<?xml version="1.0" standalone="no"?>
<!DOCTYPE svg PUBLIC "-//W3C//DTD SVG 1.1//EN" "http://www.w3.org/Graphics/SVG/1.1/DTD/svg11.dtd" >
<svg xmlns="http://www.w3.org/2000/svg" xmlns:xlink="http://www.w3.org/1999/xlink" version="1.1">
<metadata></metadata>
<defs>
<font id="khunpaohregular" horiz-adv-x="0" >
<font-face units-per-em="2048" ascent="1638" descent="-410" />
<missing-glyph horiz-adv-x="508" />
<glyph unicode="&#x1039;&#x1000;" d="M-1683 -489q0 175 121 298t294 123q174 0 293 -126q32 -28 54 -61q51 88 139 133.5t201 53.5q166 0 285 -119t119 -289q0 -168 -119 -284.5t-285 -116.5q-124 0 -223 62l72 120q66 -49 151 -49q112 0 191.5 78.5t79.5 189.5q0 109 -79.5 190t-191.5 81q-113 0 -191 -82 q-78 -84 -78 -198v-7v-10l-4 -41q-13 -138 -87.5 -215.5t-196.5 -121.5l-47 136q65 11 113 63q81 82 81 192q0 118 -82.5 198t-194.5 80q-113 0 -193 -80t-80 -198q0 -110 78 -200q42 -39 91 -60l-46 -131q-77 27 -148 92q-117 130 -117 299z" />
<glyph unicode="&#x1039;&#x1001;" d="M-964 -614q0 44 17 83t47 69.5t69 48t85 17.5q49 0 91 -17.5t72.5 -48t48 -69.5t17.5 -83q0 -36 -11.5 -66.5t-31.5 -60.5q92 8 158 71q77 78 77 189q0 108 -76 185q-80 74 -188 74q-49 0 -91.5 -15.5t-77.5 -41.5l-117 109q65 51 135.5 78.5t150.5 27.5q179 0 301 -120 h-2q127 -125 127 -297q0 -173 -127 -298h2q-124 -124 -301 -124q-167 0 -311 129l-2 3q-31 37 -46.5 73t-15.5 84zM-817 -610q0 -31 23 -55t50 -24q38 0 61.5 24t23.5 55q0 34 -23.5 57.5t-61.5 23.5q-27 0 -50 -23.5t-23 -57.5z" />
<glyph unicode="&#x1039;&#x1002;" d="M-1018 -516q0 89 34 167.5t91 136.5t134.5 92t166.5 34q88 0 166.5 -34t137 -92t92 -136.5t33.5 -167.5q0 -142 -81.5 -251t-208.5 -152l-57 154q82 26 133.5 94t51.5 160q0 54 -19.5 104t-57 85.5t-86 57.5t-101.5 22q-58 0 -106.5 -22t-83.5 -57.5t-57 -85.5t-22 -104 q0 -92 54.5 -162.5t137.5 -93.5l-63 -155q-127 44 -208 154t-81 252z" />
<glyph unicode="&#x1039;&#x1003;" d="M-1686 -473l4 54l127 35q77 20 77 102q-11 76 -69 72l-54 -2l-34 -22l-36 138q36 20 109 28l70 -11q95 -36 122 -105q14 -24 20 -78l4 -37q9 -163 -196 -224h-5q13 -85 78 -150q80 -81 193 -81q115 0 194 80t79 196q0 108 -79 210q-54 54 -123 70l48 132q96 -30 171 -104 q110 -125 121 -277h2q2 -17 2 -35q0 -114 81 -191q78 -83 193 -83q112 0 192 81t80 193t-80 193t-192 81q-14 0 -26 -2l20 140h6q171 0 291 -119.5t120 -292.5q0 -170 -120 -290.5t-291 -120.5q-170 0 -294 120q-29 30 -49 64q-15 -24 -34 -43l-2 3q-9 -11 -18 -21 q-120 -121 -292 -121q-171 0 -290.5 120.5t-119.5 292.5v5z" />
<glyph unicode="&#x1039;&#x1005;" d="M-1008 -489q0 168 121 294q125 122 295 122q176 0 296 -120q122 -122 122 -296q0 -170 -122 -294q-120 -124 -296 -124q-174 0 -295 124v-2q-121 126 -121 296zM-853 -492q0 -30 23 -51.5t49 -21.5q30 0 55 21.5t25 51.5q0 38 -25 59t-55 21q-26 0 -49 -21t-23 -59z M-740 -705q32 -24 70 -34.5t78 -10.5q100 0 182 77q76 82 76 184q0 101 -76 183q-82 78 -182 78q-75 0 -143 -42q62 -13 107 -61h-2q68 -63 68 -156t-68 -159h2q-45 -46 -112 -59z" />
<glyph unicode="&#x1039;&#x1006;" d="M-1628 -643q0 46 18 87t48 73t72 49.5t90 17.5q98 0 162.5 -63.5t64.5 -163.5q0 -65 -32 -113q74 11 127 72q27 30 45 72.5t29 84.5q4 21 4 49.5t-3 46.5q-3 38 -23 68.5t-52 58.5q-40 33 -87.5 51t-96.5 18q-104 0 -188 -73l-99 129q122 109 298 109q104 0 182 -42 t141 -133q10 15 20 29t22 28q128 124 302 124q171 0 300 -124q123 -129 123 -298q0 -173 -123 -298v2q-127 -127 -300 -127q-174 0 -302 123q-6 7 -15 16t-20 25q-68 -91 -159.5 -130t-200.5 -41q-138 0 -235 66q-112 74 -112 207zM-1490 -643q0 -36 24.5 -63t61.5 -27 q72 0 89 86q-2 37 -25 58t-60 32q-41 -3 -66.5 -26.5t-23.5 -59.5zM-847 -456q-5 -32 0 -63q10 -91 75 -155q78 -78 186 -78q109 0 187 78q75 80 75 188q0 55 -20 100.5t-55 86.5v-3q-82 78 -187 78q-103 0 -186 -80q-68 -67 -75 -152z" />
<glyph unicode="&#x1039;&#x1007;" d="M-998 -501q0 86 32 160t88 136q130 123 301 123t297 -123q31 -37 51 -63.5t26 -51.5h6q16 -69 68 -121v2q45 -46 109 -64l-41 -159q-109 34 -180 108h4l-7 7q-8 -9 -10 -14q-73 -65 -160 -65q-94 0 -159.5 64.5t-65.5 159.5q0 93 67 158q5 4 2.5 2t1.5 2h-9 q-110 0 -183 -78v3q-80 -81 -80 -186q0 -111 80 -187q37 -39 84 -58.5t99 -19.5q100 0 176 71l116 -112q-130 -118 -292 -118q-172 0 -301 122q-56 63 -88 136.5t-32 165.5zM-482 -408q0 -29 23 -50.5t50 -21.5q14 0 28.5 6.5t25.5 15.5q19 15 22 34q-6 14 -10 31t-9 35 l-24 23q-25 6 -33 6q-27 0 -50 -20.5t-23 -58.5z" />
<glyph unicode="&#x1039;&#x1008;" horiz-adv-x="319" d="M-1056 -474q0 174 126 304q130 128 307 128q182 0 307 -126q127 -126 127 -306q0 -178 -127 -305q-125 -130 -307 -130q-181 0 -307 130v-2q-126 129 -126 307zM-895 -478q0 -32 24 -53t52 -21q30 0 56 21t26 53q0 40 -26 62.5t-56 22.5q-28 0 -52 -22.5t-24 -62.5z M-778 -699q34 -26 73 -36.5t82 -10.5q104 0 189 80q79 84 79 192q0 104 -79 190q-85 80 -189 80q-79 0 -150 -43q66 -13 113 -63h-3q70 -66 70 -162q0 -98 -70 -165h3q-47 -49 -118 -62zM-431 -768l172 98q14 -37 46.5 -50.5t90.5 -13.5q70 4 114 26t48 107v1619h177v-1660 q0 -265 -248 -267h-167q-184 12 -233 141z" />
<glyph unicode="&#x1039;&#x100a;" d="M-1615 -200q64 70 152.5 114t220.5 50q78 0 148 -20t130 -57q50 -35 81.5 -77t41.5 -90q0 -4 0.5 -9t0.5 -8v-13q0 -48 63 -84.5t155 -36.5q42 0 82.5 9t69.5 26.5t47 39.5t18 46q0 22 -18 44.5t-47 41t-69.5 28t-82.5 9.5q-36 0 -75.5 -8t-77.5 -32l-129 118 q74 35 143 54t139 19q78 0 145.5 -20t126.5 -57q66 -41 97 -91t31 -106q0 -51 -35.5 -105.5t-92.5 -91.5q-59 -39 -128.5 -58.5t-143.5 -19.5q-77 0 -162 25t-146 75l-29 -21q-59 -38 -132 -58.5t-151 -20.5q-50 0 -92 4.5t-82 17.5v-89q0 -40 51.5 -72.5t123.5 -32.5h644 q36 0 69.5 11.5t58.5 31.5t40.5 45t15.5 56h189v-47q2 -115 -98.5 -179t-259.5 -64h-665q-159 0 -253 67.5t-94 177.5v245l113 77q55 -44 113.5 -69.5t125.5 -25.5q82 0 141.5 31.5t70.5 75.5v3q0 2 2 3.5t2 3.5v4v2q-4 48 -67 84.5t-149 36.5q-79 -4 -130 -26t-89 -54z" />
<glyph unicode="&#x1039;&#x100b;" d="M-920 -327q0 58 27.5 111t76.5 95q53 38 113 59.5t129 21.5q74 0 132.5 -20.5t111.5 -60.5q18 -15 35.5 -37t41.5 -54l-132 -96q-16 26 -30.5 42.5t-32.5 30.5q-48 46 -126 46q-73 0 -124 -43t-51 -95q0 -53 51 -94t124 -41q38 0 72.5 13t53.5 32q13 6 28 25.5t32 53.5 l123 -89q-14 -58 -60 -98.5t-108 -69.5q-30 -11 -64.5 -14t-76.5 -3q-139 0 -250 82q-10 8 -20 18.5t-21 22.5q-22 37 -37.5 77t-17.5 85zM-867 -590q143 -99 312 -99q122 0 221 61l124 -68v-134h112v-146h-278l-2 159q-37 -11 -83.5 -17t-93.5 -6q-73 0 -141.5 15 t-121.5 37h2l-51 20v178z" />
<glyph unicode="&#x1039;&#x100c;" d="M-1877 -440q0 171 106 292q52 53 124.5 81.5t163.5 24.5h32v-173h-22q-93 -4 -165 -71q-73 -72 -73 -167v-39q0 -49 19.5 -92.5t53 -74t78.5 -48.5t99 -18h466q-31 50 -44.5 109t-13.5 124q0 193 134 323h-2q15 16 31.5 30t36.5 28q134 75 255 75q191 0 322 -131 q135 -132 135 -325q0 -189 -137 -321h2q-44 -44 -110 -82l-122 130q68 32 110 76q88 82 88 197q0 114 -88 201q-83 83 -200 83q-112 0 -198 -83t-86 -201q0 -117 86 -197h-4q46 -42 116 -76l-124 -128h-665q-171 0 -288 110q-116 110 -116 283v60z" />
<glyph unicode="&#x1039;&#x100d;" d="M-886 -234q24 31 41.5 53.5t34.5 37.5q51 42 108.5 61.5t130.5 19.5q66 0 125 -21t111 -60q46 -42 73.5 -95.5t27.5 -110.5q-2 -44 -16.5 -84.5t-38.5 -76.5q-9 -13 -18.5 -23t-19.5 -18q-108 -83 -244 -83q-41 0 -75 3t-62 15v-31q60 -23 139 -23q118 0 216 60l121 -69 v-133h111v-148h-273l-2 160q-35 -10 -81 -15t-92 -5q-71 0 -137.5 13.5t-118.5 37.5h2l-49 19v301l120 89q15 -33 30.5 -52t26.5 -28q20 -18 53.5 -31.5t70.5 -13.5q71 0 120.5 41.5t49.5 94.5q0 54 -49.5 96t-120.5 42q-77 0 -124 -46q-18 -13 -32 -30t-30 -42z" />
<glyph unicode="&#x1039;&#x100f;" d="M-1695 -455q0 173 121 300q124 123 303 123q118 0 206 -51q26 25 62.5 36t76.5 11q39 0 74.5 -11.5t63.5 -35.5q48 28 99 39.5t108 11.5q172 0 301 -121q127 -126 127 -302q0 -179 -125 -307q-124 -123 -314 -123v161q114 0 196 79q79 83 79 190q0 101 -79 184 q-82 79 -185 79q-69 0 -127 -35q10 -50 -8 -108q-2 -5 -3 -10.5t-9 -14.5q0 -2 -0.5 -2t-0.5 -3v-4q-16 -41 -16 -88q0 -30 4 -53.5t12 -47.5l11 -24q18 -68 10 -118q-18 -80 -60 -120q-36 -30 -75.5 -48.5t-82.5 -18.5q-42 0 -79.5 16t-68.5 43q-50 46 -63 134 q-8 64 17 142q11 24 15 45.5t4 49.5q0 43 -19 84h4l-7 17l-9 19q-23 49 -8 110q-28 16 -62.5 25.5t-68.5 9.5q-102 0 -184 -79q-80 -78 -80 -184q0 -113 80 -190q82 -79 195 -79v-161q-194 0 -314 125q-121 130 -121 305zM-981 -242v-59q37 -84 37 -156q0 -46 -11 -92.5 t-26 -82.5v-37q0 -23 17.5 -42t40.5 -19q28 0 45.5 19t17.5 42v35q-46 78 -46 168q0 77 46 160v64q0 24 -19 42.5t-44 18.5q-23 0 -40.5 -18.5t-17.5 -42.5z" />
<glyph unicode="&#x1039;&#x1010;" horiz-adv-x="59" d="M-1465 -491q0 182 123 307q127 125 306 125t307 -125q10 -11 21.5 -23t21.5 -30q10 17 20.5 28.5t25.5 24.5h-2q127 125 306 125t305 -125q125 -125 125 -307q0 -179 -125 -306q-126 -125 -320 -125l-23 169q19 -4 26.5 -5t11.5 -1q57 0 103.5 20.5t86.5 57.5 q78 83 78 190q0 108 -78 194v-2q-40 36 -86.5 57.5t-103.5 21.5q-104 0 -191 -82q-37 -39 -57 -85t-20 -104q0 -179 -125 -306q-128 -125 -307 -125t-306 125q-123 127 -123 306zM-1305 -491q0 -107 80 -190q83 -78 189 -78t189 78q79 83 79 190q0 108 -79 194v-2 q-83 79 -189 79t-189 -79v2q-80 -86 -80 -194z" />
<glyph unicode="&#x1039;&#x1011;" horiz-adv-x="82" d="M-1431 -493q0 172 121 299q126 126 305 126q87 0 165.5 -35t148.5 -101q5 -9 13 -18t18 -21q10 19 20 30t21 24q127 121 303 121q177 0 305 -124q124 -123 124 -301q0 -180 -124 -306q-128 -126 -305 -126q-84 0 -161 34t-140 92q-25 22 -43 50q-12 -16 -23 -28t-21 -22 h2q-129 -126 -303 -126q-181 0 -305 126q-121 128 -121 306zM-1271 -493q0 -114 79 -191q82 -79 187 -79q107 0 185 79q68 68 78 157v2q6 29 0 61q-10 92 -78 158v-2q-78 79 -185 79q-105 0 -187 -79v2q-79 -82 -79 -187zM-580 -464q-2 -35 0 -63q11 -91 75 -157h-2 q85 -79 191 -79q105 0 188 79q77 83 77 191q0 54 -20.5 100.5t-56.5 86.5v-2q-83 79 -188 79q-106 0 -191 -79q-62 -66 -73 -156z" />
<glyph unicode="&#x1039;&#x1012;" d="M-954 -331q21 78 118 171q99 90 272 90q178 0 298 -125v2q31 -29 52.5 -58.5t34.5 -63.5q40 -139 -71 -139q-16 0 -32.5 2t-39.5 8l-6 9h2q-21 21 -50 21q-34 0 -58.5 -21t-24.5 -61q0 -32 24.5 -53t58.5 -21q24 0 48 18q91 19 130.5 -8t15.5 -113q-13 -32 -34 -62 t-50 -58q-120 -121 -298 -121q-171 0 -272 89q-97 90 -116 166l135 95q29 -70 84 -132v2q64 -60 169 -60q79 0 142 40q-63 13 -112 58q-66 67 -66 164q0 102 68 164h-2q49 49 108 59q-28 12 -68 26.5t-70 14.5q-105 0 -169 -61v2q-29 -32 -50.5 -65.5t-33.5 -64.5z" />
<glyph unicode="&#x1039;&#x1013;" d="M-1060 -502q0 171 125 298q133 127 312 127q182 0 309 -125h-2q131 -120 131 -300q0 -179 -131 -305h2q-127 -123 -309 -123q-183 0 -312 123q-60 63 -92.5 138t-32.5 167zM-895 -502q0 -40 11 -74.5t30 -65.5q13 60 63 109h-2q66 66 165 66q93 0 161 -66 q29 -26 46.5 -55t20.5 -69q47 70 47 155q0 106 -78 189v-2q-41 36 -88 56.5t-104 20.5q-107 0 -192 -77v2q-37 -42 -58.5 -88t-21.5 -101zM-699 -701q0 -13 7.5 -25.5t17.5 -23.5l34 -19h34l40 19q9 11 16.5 23.5t7.5 25.5q0 41 -25.5 62.5t-55.5 21.5q-29 0 -52.5 -21.5 t-23.5 -62.5z" />
<glyph unicode="&#x1039;&#x1014;" d="M-999 -618q0 48 18 89t49.5 72.5t74.5 49.5t89 18q100 0 168 -66.5t64 -162.5v-141q67 15 126 74v-2q77 77 66 117l-229 139q-70 42 -131 66q-60 25 -60 108q0 41 16 78.5t43.5 66t64.5 44t74 0.5q86 15 147 -45q17 -16 28.5 -36t19.5 -42l-136 -56q-6 21 -15 30h1 q-18 14 -39 14q-24 0 -38 -12.5t-14 -22.5q0 -18 63 -56l6 -6h-4l386 -204q0 -169 -132 -300q-51 -48 -113.5 -79.5t-129.5 -42.5v-28h-151v30q-60 11 -121.5 44t-106.5 76q-11 4 -14 13l-2 9q-68 65 -68 164zM-837 -625q0 -30 25 -54l14 -12q42 -42 119 -61v127 q0 41 -25 61.5t-58 20.5q-28 0 -51.5 -20.5t-23.5 -61.5z" />
<glyph unicode="&#x1039;&#x1015;" d="M-1037 -513q0 166 122 305q42 36 89 64q3 1 7 4l105 -125q-49 -19 -86 -53v3q-76 -97 -76 -198q0 -102 78 -180q82 -76 187 -76q57 0 102 19.5t85 56.5q76 74 76 180q0 103 -76 198v-3q-28 23 -59 41q-9 4 -18 10l85 132q10 -3 18 -8q46 -27 86 -62l2 -3 q125 -135 125 -305q0 -171 -127 -292h2q-124 -119 -301 -119q-178 0 -304 119q-58 60 -90 132t-32 160z" />
<glyph unicode="&#x1039;&#x1016;" d="M-1008 -490q0 171 119 313q41 37 85 65q6 2 9 5l103 -127q-48 -22 -85 -56v4q-74 -99 -74 -204q0 -103 76 -183q81 -76 183 -76q55 0 99.5 19.5t82.5 56.5q76 76 76 183q0 18 -1.5 35t-5.5 32q-45 -31 -101 -31q-80 0 -135 55t-55 134q0 40 14.5 75t40 62t60.5 41t75 14 q74 0 134 -56q19 -17 42.5 -50.5t43 -78t34 -101.5t14.5 -131q0 -173 -125 -296h2q-121 -121 -295 -121t-297 121q-57 62 -88 135t-31 161zM-505 -265q0 -28 16.5 -46t46.5 -18q27 0 48 18t21 46q0 30 -21 48.5t-48 18.5q-30 0 -46.5 -18.5t-16.5 -48.5z" />
<glyph unicode="&#x1039;&#x1017;" d="M-1018 -481q0 177 123 305q91 92 225 117v-226q0 -40 22.5 -62t49.5 -22q31 0 55.5 22t24.5 62v226q125 -25 221 -117q123 -126 123 -305q0 -172 -125 -298q-129 -121 -299 -121q-174 0 -297 121q-123 124 -123 298zM-859 -481q0 -101 76 -185v2q82 -79 185 -79 q111 0 187 77q76 80 76 185q0 43 -11 81t-33 72q-4 -38 -21.5 -66.5t-46.5 -57.5q-71 -63 -155 -63q-89 0 -160 63q-42 49 -60 112q-19 -33 -28 -65.5t-9 -75.5z" />
<glyph unicode="&#x1039;&#x1018;" horiz-adv-x="55" d="M-1426 -295q22 56 73 106q63 59 137 90t163 31q169 0 298 -122l46 -55q8 16 19 28.5t24 26.5q129 122 300 122q179 0 299 -124v2q123 -122 123 -300q0 -175 -123 -301v2q-120 -123 -299 -123q-146 0 -258 86l87 133q79 -61 171 -61q102 0 184 78q76 77 76 186 q0 105 -76 187v-2q-82 78 -184 78q-108 0 -189 -78v2q-74 -82 -74 -187q0 -175 -124 -301q-127 -121 -300 -121q-175 0 -300 121q-36 39 -73 104l123 116q27 -67 66 -105q82 -78 184 -78q104 0 183 78q78 82 78 186q0 56 -20 101.5t-58 85.5v-2q-79 78 -183 78 q-102 0 -184 -78v2q-37 -38 -66 -110z" />
<glyph unicode="&#x1039;&#x1019;" d="M-1013 -490q0 168 129 327q44 43 111 73l80 -143q-49 -19 -88 -55v2q-74 -99 -74 -204q0 -42 10 -78.5t28 -64.5q12 67 66 110h-2q64 67 160 67q92 0 157 -67h-2q51 -45 65 -110q40 61 40 143q0 57 -20 105.5t-60 98.5q-23 23 -54 40q-15 8 -30 14l83 138q66 -31 117 -80 v-2q123 -138 123 -314q0 -174 -125 -299h2q-127 -122 -296 -122q-177 0 -299 122q-121 123 -121 299zM-663 -685q0 -26 23 -53v2q11 -11 30 -15q25 -7 50 0q9 2 22 15q25 25 25 51q0 36 -22.5 57t-53.5 21q-27 0 -50.5 -21t-23.5 -57z" />
<glyph unicode="&#x1039;&#x101c;" d="M-1700 -502q0 178 121 300q123 122 300 122q175 0 302 -122q122 -122 122 -300q0 -106 76 -187q82 -77 187 -77q103 0 185 77q77 81 77 187q0 104 -77 190v-3q-82 78 -185 78q-48 0 -88 -15.5t-83 -44.5l-69 145q110 72 240 72q173 0 298 -122q123 -122 123 -300 q0 -176 -123 -301q-125 -123 -298 -123q-175 0 -299 123q-118 123 -123 294l-2 7q0 104 -78 190v-3q-80 78 -185 78q-104 0 -185 -78v3q-78 -86 -78 -190q0 -106 78 -187q81 -77 185 -77q85 0 165 56l65 -147q-105 -69 -230 -69q-177 0 -300 123q-121 125 -121 301z" />
<glyph unicode="&#x1039;&#x101e;" d="M-1762 -311q39 67 75 107q131 127 311 127t312 -127q127 -131 127 -311q0 -110 77 -193v2q85 -82 195 -82q106 0 191 82v-2q80 80 80 193t-80 193q-85 80 -191 80q-95 0 -176 -62l-89 137q115 90 265 90q186 0 310 -129v2q128 -131 128 -311q0 -182 -128 -310v1 q-124 -128 -310 -128q-176 0 -310 127q-15 13 -25.5 26.5t-19.5 29.5l-47 -56q-134 -127 -309 -127q-92 0 -168.5 33t-142.5 92q-53 50 -75 108l128 123q30 -73 68 -112v2q85 -82 190 -82q106 0 191 82v-2q38 41 59 88.5t21 104.5q0 109 -80 193q-85 80 -191 80 q-105 0 -190 -80q-40 -40 -68 -109z" />
<glyph unicode="&#x1039;&#x1021;" d="M-1773 -625l148 40q94 -198 270 -198q31 0 68 10t66 26q-43 9 -72 26.5t-56 46.5q-62 114 -62 171q0 74 68 154q29 30 56.5 49t59.5 28q-78 34 -128 34q-86 0 -157 -48t-99 -131l-156 46q45 133 162 215q113 80 250 80q112 0 265 -83q27 -20 51 -42.5t41 -47.5 q11 17 19.5 27t18.5 20q127 126 306 126q178 0 303 -126q124 -124 124 -301t-127 -307q-115 -111 -264 -124q-11 -2 -24.5 -2h-24.5q-46 0 -87 17.5t-73 48t-49 71.5t-17 89q0 49 17 89.5t49 71t73 48t87 17.5q87 0 160 -65q30 -28 45.5 -55.5t21.5 -64.5q24 35 38 76.5 t14 89.5q0 56 -20.5 101.5t-57.5 87.5v-2q-40 36 -85.5 57t-102.5 21q-105 0 -190 -81q-63 -67 -76 -147h-124l-67 26q-31 19 -48 19q-20 -4 -37.5 -10.5t-28.5 -17.5v2q-2 0 -2 -4l-19 -41l-6 -11q2 -34 28 -62t61 -28q5 0 19 5.5t33 15.5q45 23 69 23q92 0 92 -92l-8 -45 q-122 -252 -397 -252q-152 0 -260.5 81.5t-157.5 231.5zM-735 -717q0 -28 22.5 -50t51.5 -22t54 22t25 50q0 39 -25 61t-54 22t-51.5 -22t-22.5 -61z" />
<glyph unicode="&#x102b;&#x103a;" horiz-adv-x="694" d="M-368 1481q0 163 116.5 281t283.5 118q162 0 278 -118q14 -13 26 -30q14 17 31 30q114 118 282 118q162 0 278 -118t116 -279l-172 -2q0 91 -66 159t-158 68q-96 0 -164 -69q-46 -49 -60 -111q3 -22 3 -45v-1483h-178v1481h-2q2 91 -64 159t-159 68q-96 0 -161.5 -68 t-65.5 -159h-164z" />
<glyph unicode="&#x103a;&#x103a;" d="M-1082 1566q51 129 161.5 207t265.5 96q18 1 37 2t36 1q202 0 360 -94q198 -125 222 -412h-159q-32 182 -161.5 279t-337.5 109q-83 -1 -160 -19t-132 -52q-58 -42 -114 -128zM-1060 1364q0 96 67 181q22 27 45 45q56 45 126 71t154 26q86 0 159 -21.5t137 -61.5 q123 -84 123 -212v-28l-152 2q0 62 -69 115q-67 62 -180 67q-28 0 -57.5 -3.5t-62.5 -14.5q-70 -23 -94 -62q-33 -47 -33 -84q0 -39 21.5 -77t45.5 -49q26 -11 74.5 -27.5t105.5 -19.5v-138q-84 2 -157 25.5t-128 61.5q-58 44 -91.5 95.5t-33.5 108.5z" />
<glyph unicode="&#x104e;&#x25cc;&#xe390;" horiz-adv-x="1175" d="M111 510q0 209 149 357t357 148q213 0 359 -146q54 -54 88 -117l-130 -119q-27 59 -78 113q-99 101 -239 101q-139 0 -237 -100.5t-98 -236.5q0 -140 98 -239t237 -99q140 0 239 99q51 55 78 116l130 -120q-4 -11 -2 -22v-1178l-178 -8v1048q-111 -105 -267 -105 q-208 0 -356 148q-37 35 -63 77q-87 143 -87 283zM317 1340q0 131 99 205q-18 27 -34 62t-16 69q0 42 17 79t44.5 65t64 44t76.5 16q83 0 132 -45q25 -32 45 -67.5t31 -78.5l-124 -17q-43 25 -59 36h3q-5 3 -12 5t-17 2q-16 0 -27.5 -13t-11.5 -26q0 -8 8 -21.5t19.5 -25.5 t24.5 -22t27 -10h95l1 -150h-94q-21 0 -44 -9.5t-41.5 -25t-32 -36.5t-13.5 -39q0 -37 26.5 -65t63.5 -28q42 0 63 25q12 13 21 31.5t14 44.5l157 -34q-16 -82 -56 -131q-36 -41 -87.5 -68t-111.5 -27q-50 0 -96.5 21t-81 55.5t-54 80t-19.5 98.5z" />
<glyph unicode="&#x1039;&#x1051;" d="M-1062 -502q0 144 82.5 252.5t212.5 151.5l65 -154q-84 -24 -141 -93.5t-57 -161.5q0 -53 23 -102.5t59.5 -86t86 -58t108.5 -21.5q55 0 105.5 21.5t88.5 58t58.5 86t20.5 102.5q0 92 -53.5 159.5t-138.5 93.5l59 156q130 -45 214 -152.5t84 -251.5q0 -89 -34.5 -167 t-94.5 -136t-140.5 -91.5t-170.5 -33.5q-92 0 -171 33.5t-138 91.5t-93.5 136t-34.5 167zM-729 -504q0 -47 33 -78t80 -31q45 0 79 31t34 78q0 43 -34 75.5t-79 32.5q-47 0 -80 -32.5t-33 -75.5z" />
<glyph unicode="&#x1039;&#x1050;" d="M-1062 -526q0 89 34.5 167t93.5 136.5t138 91.5t171 33q90 0 170.5 -33t140.5 -91.5t94.5 -136.5t34.5 -167q0 -143 -84 -251.5t-214 -150.5l-59 153q85 26 138.5 94.5t53.5 158.5q0 55 -20.5 104.5t-58.5 85.5t-88.5 57t-105.5 21q-59 0 -108.5 -21t-86 -57t-59.5 -85.5 t-23 -104.5q0 -90 57 -160.5t141 -95.5l-65 -152q-130 44 -212.5 152.5t-82.5 251.5zM-729 -524q0 -44 33 -76t80 -32q45 0 79 32t34 76q0 47 -34 78.5t-79 31.5q-47 0 -80 -31.5t-33 -78.5z" />
<glyph unicode="&#x1039;&#x105a;" d="M-847 -282q0 47 20 87.5t56 73t84.5 51t106.5 18.5t109.5 -17.5t89.5 -48t59 -72.5t21 -89q0 -29 -12 -60t-28 -66l-63 -101q-42 -64 -42 -110q0 -28 20 -36l-9 2q2 0 5.5 -2.5t5.5 -2.5q12 -2 62 -34l-89 -102q-84 10 -118 64q-29 49 -29 114q0 76 49 161l14 25l-2 -2 l66 113q5 8 9 18t4 18q0 37 -34 63t-85 26t-83.5 -27t-32.5 -64l6 -13q6 -19 7 -40t1 -39l-139 -13q-29 66 -29 105z" />
<glyph unicode="&#x1039;&#x105b;" horiz-adv-x="247" d="M-1053 -465q0 89 32.5 165t90.5 141q133 125 309 125q174 0 307 -125q32 -39 51.5 -67t27.5 -53h5q15 -71 71 -124v2q46 -47 112 -66l-45 -163q-111 35 -185 111h6l-8 7q-9 -10 -11 -13q-74 -68 -162 -68q-98 0 -165 66t-67 163t68 164q6 4 3 2t1 2h-9q-112 0 -186 -81v2 q-83 -81 -83 -190q0 -114 83 -192q37 -39 85 -59.5t101 -20.5q102 0 183 74l98 -3q14 -37 47 -50.5t90 -13.5q71 3 114.5 25.5t48.5 107.5v1612h176v-1652q0 -264 -247 -266h-168q-99 6 -159 47q-89 -44 -183 -44q-179 0 -309 125q-58 65 -90.5 140.5t-32.5 169.5z M-523 -370q0 -30 23 -52t52 -22q14 0 29.5 7.5t27.5 15.5q17 16 21 36q-6 13 -10.5 31t-8.5 35l-25 25q-24 6 -34 6q-29 0 -52 -20.5t-23 -61.5z" />
<glyph unicode="&#x1039;&#x105c;" d="M-1083 -516q0 91 34.5 171t93 139.5t138 94t170.5 34.5q90 0 170.5 -34.5t140.5 -94t95 -139.5t35 -171q0 -92 -35 -172t-95 -140t-140.5 -95t-170.5 -35q-91 0 -170.5 35t-138 95t-93 140t-34.5 172zM-921 -522q0 -57 22.5 -107t58.5 -86.5t86.5 -59t108.5 -22.5 q56 0 105.5 22.5t87.5 59t59 86.5t21 107t-21 107t-59 87.5t-87.5 59t-105.5 21.5q-58 0 -108.5 -21.5t-86.5 -59t-58.5 -87.5t-22.5 -107zM-824 -519q0 76 52.5 129.5t128.5 53.5q73 0 125.5 -53.5t52.5 -129.5q0 -73 -52.5 -125t-125.5 -52q-76 0 -128.5 52t-52.5 125z M-719 -519q0 -30 23 -52.5t53 -22.5q31 0 54 22.5t23 52.5q0 34 -23 56.5t-54 22.5q-30 0 -53 -22.5t-23 -56.5z" />
<glyph unicode="&#x1062;&#x103a;" horiz-adv-x="492" d="M-202 1483q0 161 116.5 279t283.5 118q162 0 278 -118t116 -279l-173 -2q0 91 -64.5 159t-158.5 68q-98 0 -163 -68t-65 -159q0 -94 65 -162t163 -68l2 -168q-167 0 -283.5 117.5t-116.5 282.5zM-24 847v168h378v-1015h-175v847h-203z" />
<glyph unicode="&#x1039;&#x1075;" d="M-1049 -518q0 91 32.5 165t91.5 137q128 123 313 123q177 0 309 -123h-2q131 -126 131 -302t-129 -318q-42 -36 -89 -64t-105 -46l-60 153q43 12 76 30t60 42v-2q39 50 59.5 100t20.5 105q0 105 -80 189q-85 76 -191 76q-115 0 -195 -76q-31 -28 -48.5 -63t-24.5 -74 q215 -66 206 -233l-6 -39q-4 -25 -8 -46.5t-14 -33.5q-12 -36 -45.5 -66t-82.5 -46l-82 -11q-78 11 -125 34l43 160q10 -4 21.5 -13.5t23.5 -14.5l57 -3q45 -1 56 63q-4 75 -68 91l-141 37l-4 61v8z" />
<glyph unicode="&#x1039;&#x1076;" d="M-1015 -647q0 47 17.5 89.5t49 73.5t72 49.5t90.5 18.5q102 0 170 -67.5t68 -163.5q0 -74 -45 -135q99 8 168 78q82 81 82 200q0 108 -82 191q-78 74 -172 80q-16 -84 -72 -123.5t-144 -42.5q-107 12 -151 65.5t-44 137.5q0 51 17 121l158 -11q-18 -72 -18 -100 q0 -57 43 -70q33 2 53.5 42.5t13.5 127.5q57 16 117 18h18q173 -7 298 -128q134 -129 134 -308q0 -94 -33.5 -172.5t-97.5 -143.5q-130 -130 -319 -130q-171 0 -306 123q-12 3 -21 13q-64 76 -64 167zM-864 -643q0 -34 25.5 -57t57.5 -23q35 0 60 23t25 57q0 36 -25 60.5 t-60 24.5q-32 0 -57.5 -24.5t-25.5 -60.5z" />
<glyph unicode="&#x1039;&#x1078;" d="M-1803 -521q0 186 126 312q126 127 310 127q179 0 311 -127h-2q15 -12 26.5 -24.5t20.5 -29.5q10 19 21.5 31.5t23.5 22.5q127 127 310 127q180 0 313 -127q126 -126 126 -312q0 -182 -126 -310q-133 -129 -313 -129q-183 0 -310 129q-128 128 -128 310q0 60 -21 106 t-59 87q-88 82 -193 82q-59 0 -105.5 -21.5t-86.5 -58.5v1q-81 -87 -81 -196q0 -108 81 -193q40 -37 86.5 -58.5t105.5 -21.5q4 0 11 1t29 5l-26 -172q-198 0 -324 129q-126 128 -126 310zM-926 -521q0 -108 79 -193q84 -80 191 -80q110 0 195 80q80 85 80 193 q0 109 -80 196v-1q-85 80 -195 80q-107 0 -191 -80v1q-79 -87 -79 -196z" />
<glyph unicode="&#x1039;&#x107c;" d="M-1713 -651q0 46 18.5 87.5t49 75t73 51.5t91.5 18q103 0 168 -69q71 -68 71 -163q0 -78 -47 -134q97 11 166 75q72 72 85 165q-3 8 -3 17.5v18.5v17.5t3 13.5q-9 44 -28.5 85.5t-53.5 75.5h2q-42 37 -91 59t-110 22q-97 0 -180 -64l-118 119q130 108 298 108 q183 0 316 -127q16 -16 28.5 -29.5t21.5 -24.5q11 15 22 29t19 25q67 63 146.5 95t172.5 32q172 0 298 -108l-118 -119q-81 64 -180 64q-113 0 -198 -81q-69 -68 -80 -163v-63q4 -44 24.5 -85.5t57.5 -78.5q31 -31 75.5 -52t89.5 -26q-43 57 -43 134q0 93 68 163 q66 69 168 69q50 0 92.5 -18t73.5 -51.5t49.5 -75t18.5 -87.5q0 -91 -67 -165l-1 -2q-148 -134 -328 -134q-182 0 -316 127h-3q-11 11 -20.5 23t-20.5 31q-11 -17 -22.5 -28t-27.5 -26q-133 -127 -316 -127q-180 0 -329 134q-65 76 -65 167zM-1559 -645q0 -34 24.5 -58.5 t56.5 -24.5q35 0 60.5 24.5t25.5 58.5t-25.5 58.5t-60.5 24.5q-32 0 -56.5 -24.5t-24.5 -58.5zM-516 -645q0 -34 24.5 -58.5t56.5 -24.5q34 0 59.5 24.5t25.5 58.5t-25.5 58.5t-59.5 24.5q-32 0 -56.5 -24.5t-24.5 -58.5z" />
<glyph unicode="&#x1039;&#x107d;" d="M-1789 -515q0 204 215 403l57 19l17 -2q77 -27 77 -84l-24 -84q0 -7 2 -16.5t2 -16.5q22 -71 91 -71q41 0 64.5 30.5t23.5 70.5q0 30 -39 74l45 129q144 -68 144 -215q0 -99 -68 -162q-36 -31 -75 -49t-85 -18q-79 0 -142.5 45.5t-82.5 114.5q-48 -65 -48 -160 q0 -112 83 -194q45 -37 95 -58t110 -21q102 0 195 79q59 60 74 132q-2 16 -3 32t-1 33q0 182 132 310q137 126 317 126q169 0 297 -109l-118 -118q-82 64 -179 64q-116 0 -202 -80h2q-82 -88 -82 -193q0 -45 9 -75v5q11 -33 29.5 -66t43.5 -61q38 -37 79.5 -56.5t87.5 -22.5 q-24 31 -33.5 63t-9.5 72q0 47 19.5 88.5t50.5 72.5t74.5 50t92.5 19t90 -19t72.5 -50t49.5 -72.5t18 -88.5q0 -95 -66 -167q-7 -8 -20 -13q-130 -121 -305 -121q-187 0 -320 128q-15 15 -24 25.5t-19 24.5q-63 -83 -149 -130.5t-194 -47.5q-188 0 -320 111q-58 53 -114 150 q-36 78 -36 170zM-538 -641q0 -32 23 -56t58 -24q34 0 58.5 24t24.5 56q0 36 -24.5 59.5t-58.5 23.5q-35 0 -58 -23.5t-23 -59.5z" />
<glyph unicode="&#x1081;&#x102f;" horiz-adv-x="1273" d="M-123 -646l97 139l250 -185l352 692q-49 0 -93 18q-127 31 -225 128q-147 149 -147 361q0 210 147 358t358 148q210 0 358 -148t148 -358q0 -118 -47 -215l-145 95q20 57 20 120q0 137 -96.5 237t-237.5 100q-138 0 -237 -100t-99 -237q0 -98 49 -178q18 64 71 118 q77 75 183 75q107 0 184 -76t77 -186q0 -80 -38 -139l-535 -1041zM485 254q0 -42 33.5 -73t72.5 -31q42 0 75 31t33 73q0 51 -33 81.5t-75 30.5q-39 0 -72.5 -30.5t-33.5 -81.5zM894 -85h168v-704h198v-148h-366v852z" />
<glyph unicode="&#x1081;&#x1030;" horiz-adv-x="1242" d="M-123 -646l97 139l250 -185l352 692q-49 0 -93 18q-127 31 -225 128q-147 149 -147 361q0 210 147 358t358 148q210 0 358 -148t148 -358q0 -118 -47 -215l-145 95q20 57 20 120q0 137 -96.5 237t-237.5 100q-138 0 -237 -100t-99 -237q0 -98 49 -178q18 64 71 118 q77 75 183 75q107 0 184 -76t77 -186q0 -80 -38 -139l-535 -1041zM485 254q0 -42 33.5 -73t72.5 -31q42 0 75 31t33 73q0 51 -33 81.5t-75 30.5q-39 0 -72.5 -30.5t-33.5 -81.5zM736 -85h167v-852h-167v852zM1022 -85h168v-704h198v-148h-366v852z" />
<glyph unicode="&#x1081;&#x103d;" horiz-adv-x="1273" d="M-123 -646l97 139l250 -185l352 692q-49 0 -93 18q-127 31 -225 128q-147 149 -147 361q0 210 147 358t358 148q210 0 358 -148t148 -358q0 -118 -47 -215l-145 95q20 57 20 120q0 137 -96.5 237t-237.5 100q-138 0 -237 -100t-99 -237q0 -98 49 -178q18 64 71 118 q77 75 183 75q107 0 184 -76t77 -186q0 -80 -38 -139l-535 -1041zM485 254q0 -42 33.5 -73t72.5 -31q42 0 75 31t33 73q0 51 -33 81.5t-75 30.5q-39 0 -72.5 -30.5t-33.5 -81.5zM569 -513q0 91 34.5 170.5t93.5 139.5t138.5 94t170.5 34q90 0 170.5 -34t140.5 -94t94 -139.5 t34 -170.5q0 -92 -34 -172.5t-94 -140.5t-140.5 -94t-170.5 -34q-91 0 -170.5 34t-138.5 94t-93.5 140.5t-34.5 172.5zM732 -518q0 -58 22.5 -108.5t58.5 -86.5t86 -58.5t108 -22.5q56 0 106 22.5t88.5 58.5t58.5 86.5t20 108.5q0 57 -20 106.5t-58.5 87t-88.5 58.5t-106 21 q-58 0 -108 -21t-86 -58.5t-58.5 -87t-22.5 -106.5z" />
<glyph unicode="&#x1081;&#x1082;" horiz-adv-x="1233" d="M-123 -646l97 139l250 -185l352 692q-49 0 -93 18q-127 31 -225 128q-147 149 -147 361q0 210 147 358t358 148q210 0 358 -148t148 -358q0 -118 -47 -215l-145 95q20 57 20 120q0 137 -96.5 237t-237.5 100q-138 0 -237 -100t-99 -237q0 -98 49 -178q18 64 71 118 q77 75 183 75q107 0 184 -76t77 -186q0 -80 -38 -139l-535 -1041zM485 254q0 -42 33.5 -73t72.5 -31q42 0 75 31t33 73q0 51 -33 81.5t-75 30.5q-39 0 -72.5 -30.5t-33.5 -81.5zM598 -470q0 92 35 171.5t93.5 139.5t138.5 93.5t171 33.5l1 -170q-59 0 -108.5 -20.5 t-86 -58.5t-58.5 -87t-22 -106q0 -59 22 -109t58.5 -86t86 -58.5t108.5 -22.5q56 0 106 22.5t88 58.5t59 86t21 109l165 4q0 -91 -34.5 -171.5t-95 -140t-140 -95t-170.5 -35.5t-171 35.5t-138.5 95t-93.5 140t-35 171.5z" />
<glyph unicode="&#x100b;&#x1039;&#x100b;" horiz-adv-x="1227" d="M114 507q0 212 149.5 360t359.5 148t357 -148q53 -54 87 -115l-130 -119q-25 61 -77 113q-98 101 -237 101q-140 0 -237.5 -99.5t-97.5 -240.5q0 -135 97.5 -235t237.5 -100q139 0 237 99q52 55 77 116l130 -122q-30 -61 -87 -117q-147 -146 -357 -146t-358 146 q-38 39 -65 79q-79 120 -86 280zM158 -148l111 135l58 -32q127 -64 279 -64q201 0 355 111l153 -96v-674h182v-169h-348l-3 733q-154 -76 -341 -76q-217 0 -389 95zM284 -512q4 -32 14 -58.5t28 -50.5q12 -19 29 -29q76 -55 177 -55q31 0 55.5 1t47.5 10q45 20 77 48t43 67 l-89 60q-11 -25 -22 -37t-21 -17q-15 -12 -38.5 -21.5t-52.5 -9.5q-52 0 -87.5 27t-35.5 65t35.5 67t87.5 29q61 0 91 -32q27 -19 45 -49l96 66q11 6 7 14t-17 18t-26 17.5t-21 11.5q-70 56 -175 56q-96 0 -171 -56q-35 -30 -56 -66t-21 -76zM324 -670q99 -67 222 -67 q89 0 159 41l90 -48v-92h80v-101h-201l-2 111q-24 -7 -58.5 -11t-67.5 -4q-52 0 -100 9t-88 26h3l-37 13v123z" />
<glyph unicode="&#x100b;&#x1039;&#x100c;" horiz-adv-x="1185" d="M111 -612q0 109 72.5 184t172.5 75q35 0 66 -8l-48 -153h-17q-30 0 -58.5 -27t-28.5 -71q0 -40 27 -68q19 -16 40 -23h39h512v499q-144 -76 -318 -76q-201 0 -364 95l-51 37l100 146l57 -43q119 -64 259 -64q189 0 332 111l143 -96v-779h-657q-16 -2 -33 -2 q-100 0 -172.5 75t-72.5 188zM114 507q0 212 149.5 360t359.5 148t357 -148q53 -54 87 -115l-130 -119q-25 61 -77 113q-98 101 -237 101q-140 0 -237.5 -99.5t-97.5 -240.5q0 -135 97.5 -235t237.5 -100q139 0 237 99q52 55 77 116l130 -122q-30 -61 -87 -117 q-147 -146 -357 -146t-358 146q-38 39 -65 79q-79 120 -86 280z" />
<glyph unicode="&#x100d;&#x1039;&#x100e;" horiz-adv-x="1237" d="M111 507v9l3 66l157 43q97 23 97 125q-13 94 -86 90l-65 -4l-43 -26l-44 170q44 23 135 33l88 -12q114 -44 146 -130q17 -30 26 -98l5 -44q12 -202 -242 -275h-6q15 -104 96 -185q100 -99 238 -99q141 0 239 99t98 238q0 137 -101 260q-63 66 -150 87l60 161 q118 -35 211 -127q151 -171 151 -381q0 -212 -149 -359.5t-359 -147.5q-211 0 -358 147.5t-147 359.5zM459 492q30 52 44 67q60 59 139 59q40 0 73 -15t64 -44q59 -62 59 -150q0 -37 -9.5 -66t-22.5 -55q-4 -11 -10.5 -17.5t-12.5 -14.5q-64 -60 -141 -60q-26 0 -44.5 2 t-36.5 12v-36q34 -16 83 -16q69 0 124 45l72 -53v-978h63v-109h-221l-2 1001q-12 -5 -14.5 -8t-2.5 -5t-3 -3t-16 -1q-43 0 -81 10.5t-69 27.5h3l-32 13v234l72 68q9 -26 17.5 -41t15.5 -21q27 -30 72 -30q42 0 70.5 30t28.5 71q0 38 -28.5 68t-70.5 30q-45 0 -72 -33 q-11 -12 -19.5 -24t-15.5 -29z" />
<glyph unicode="&#x100f;&#x1039;&#x100d;" horiz-adv-x="2460" d="M111 516q0 158 89 279q155 220 418 220q205 -7 383 -127q70 132 218 132q153 0 219 -135q33 16 54 35q142 95 314 95q274 0 434 -220q92 -123 92 -288q0 -269 -230 -422q-136 -87 -296 -87q-83 0 -155 24l53 150q16 -2 32 -6q44 -10 70 -10q113 0 206 59q162 99 162 292 q0 106 -70 200q-107 149 -282 149q-150 0 -300 -108q-5 -9 -54 -70v-4l-3 -26q-46 -77 -46 -151t46 -155l3 -21v-74q0 -104 -71.5 -174.5t-177.5 -70.5q-101 0 -174.5 70.5t-73.5 174.5v77l4 18q47 81 47 165q0 63 -47 145l-4 20q-9 17 -45 67q-10 13 -70 52q-99 73 -221 73 q-188 0 -301 -157q-59 -84 -59 -191q0 -187 152 -289q105 -69 230 -69q15 0 54 8t57 8q10 0 18 -2l24 -140q-48 -30 -153 -30q-166 0 -321 97q-225 148 -225 417zM438 -561q0 140 119 258h-2q53 51 131 83.5t161 32.5q60 -2 118.5 -21t107.5 -44q19 -8 27.5 -15.5 t17.5 -11.5h-2l16 -13v2q58 -65 87.5 -130t29.5 -141q0 -47 -8.5 -91t-34.5 -89h97q24 47 35.5 95.5t11.5 86.5q0 67 -22.5 132.5t-64.5 123.5l87 118h553v127h175v-271l-591 -7q19 -51 30 -111t11 -112q0 -83 -22.5 -163t-56.5 -142l-11 -22v4l-4 -8h-428l-105 104 q70 34 100 59q28 31 48 75t20 91t-18 87t-49 70t-71.5 47t-83.5 17q-45 0 -87.5 -17t-75 -47t-52 -70t-19.5 -87q0 -51 22.5 -93t60.5 -73q23 -23 82 -59l-112 -114q-33 20 -64.5 40t-49.5 35h3q-58 58 -87.5 120.5t-29.5 143.5zM1130 247q0 -35 27.5 -63t61.5 -28 q39 0 64.5 28t25.5 63v47q-56 95 -56 203q0 102 56 199v79q0 38 -28 63.5t-62 25.5q-31 0 -60 -25.5t-29 -63.5v-79q47 -101 47 -189q0 -114 -47 -212v-48z" />
<glyph unicode="&#x100a;&#x1039;&#x100a;" horiz-adv-x="2924" d="M170 264l127 123q29 -61 79 -116q98 -99 236 -99q140 0 238 100t98 235q0 141 -98 240.5t-238 99.5q-138 0 -236 -101q-50 -52 -79 -113l-127 119q33 61 86 115q147 148 356 148q213 0 360.5 -148t147.5 -360q0 -135 98 -235t241 -100q137 0 235 100t98 235 q0 141 -98 240.5t-235 99.5q-120 0 -210 -72l-91 142q129 98 301 98q209 0 356.5 -148t147.5 -360v-1q0 -140 99 -239q101 -97 237 -97q139 0 238.5 98t99.5 239q0 137 -99.5 235t-238.5 98h-31l25 173h6q210 0 358.5 -148t148.5 -358q0 -212 -148.5 -359.5t-358.5 -147.5 q-213 0 -359 146q-37 36 -64 76l-2 -3q-26 -37 -60 -71q-146 -146 -355 -146q-212 0 -360 146q-37 39 -63 79q-28 -40 -65 -79q-146 -146 -359 -146q-155 0 -276 81v-557q0 -127 79 -210.5t198 -83.5h1736q113 0 198 82t88 197v15h171v-27q7 -198 -119.5 -317t-321.5 -119 h-1761q-191 0 -312.5 127.5t-121.5 320.5v753z" />
<glyph unicode="&#x102d;&#x1032;" d="M-1632 1792l126 82l480 -710l-128 -80zM-1082 1522q0 93 35 173t93.5 139.5t138.5 93t170 33.5t171 -33.5t141.5 -93t94.5 -139.5t34 -173q0 -90 -34 -170.5t-94.5 -140t-141.5 -94.5t-171 -35t-170 35t-138.5 94.5t-93.5 140t-35 170.5zM-919 1519q0 -59 22.5 -109 t58.5 -86.5t86 -59t109 -22.5q56 0 105.5 22.5t87.5 59t59 86.5t21 109q0 55 -21 105t-59 88.5t-87.5 59t-105.5 20.5q-59 0 -109 -20.5t-86 -59t-58.5 -88.5t-22.5 -105z" />
<glyph unicode="&#x100d;&#x1039;&#x100d;" horiz-adv-x="1227" d="M158 -148v413l130 122q26 -61 78 -116q96 -99 235 -99q140 0 238 100t98 235q0 141 -98 240.5t-238 99.5q-139 0 -235 -101q-52 -52 -78 -113l-130 119q33 61 87 115q146 148 356 148q212 0 360 -148t148 -360q-4 -160 -85 -280q-26 -40 -63 -79q-148 -146 -360 -146 q-153 0 -274 79v-126q127 -64 279 -64q201 0 355 111l153 -96v-673h182v-168h-348l-3 731q-154 -76 -341 -76q-217 0 -389 95zM300 -431q19 20 31.5 36.5t24.5 26.5q75 56 179 56q95 0 175 -56q36 -32 57.5 -68t21.5 -76q-3 -32 -14 -59.5t-29 -51.5q-7 -12 -14 -18.5 t-15 -13.5q-77 -55 -182 -55q-32 0 -56.5 1.5t-47.5 9.5v-23q46 -15 106 -15q84 0 162 43l90 -47v-95h82v-101h-203l-2 111q-26 -7 -61 -11t-68 -4q-52 0 -103.5 9t-89.5 26h3l-37 13v210l91 61q12 -24 22.5 -36t20.5 -18q15 -12 39 -22t52 -10q53 0 90.5 29t37.5 67 t-37.5 67t-90.5 29q-61 0 -91 -32q-15 -11 -25 -21.5t-21 -29.5z" />
<glyph unicode="&#x1020;&#x103e;" horiz-adv-x="1227" d="M111 -94l154 96q152 -111 356 -111q152 0 279 64v126q-121 -79 -275 -79q-211 0 -358 146q-37 39 -64 79q-80 120 -84 280q0 212 147.5 360t358.5 148t357 -148q54 -54 87 -115l-130 -119q-25 61 -77 113q-98 101 -237 101q-140 0 -237.5 -99.5t-97.5 -240.5 q0 -135 97.5 -235t237.5 -100q139 0 237 99q52 55 77 116l130 -122v-5v4v-412l-56 -37q-173 -95 -390 -95q-187 0 -343 76v-499h550h43q22 7 43 23q29 28 29 68q0 44 -30 71t-65 27h-17l-52 153q34 8 71 8q109 0 186.5 -75t77.5 -184q0 -113 -77.5 -188t-186.5 -75 q-16 0 -35 2h-706v779zM368 -522h200v214h165v-362h-365v148z" />
<glyph unicode="&#x103b;&#x103e;" horiz-adv-x="345" d="M-1031 -543.5q-22 106.5 40 199.5l139 -92l-6 -8q-24 -34 -13.5 -79t42.5 -65q34 -24 79.5 -17.5t68.5 41.5l267 295l46 -192l-177 -193q-74 -80 -182 -98t-196 42q-86 60 -108 166.5zM-429 -87h172v-565l333 -87v1754h168v-1875q0 -75 -68 -75l-552 138q-53 14 -53 70 v640z" />
<glyph unicode="&#x103b;&#x103d;" horiz-adv-x="361" d="M-1048 -494q0 91 35 171t93.5 139t137.5 93.5t171 34.5q90 0 170.5 -34.5t141 -93.5t94.5 -139t34 -171t-34 -171.5t-94.5 -141t-141 -94.5t-170.5 -34q-92 0 -171 34t-137.5 94.5t-93.5 141t-35 171.5zM-886 -499q0 -58 23 -108t59 -86.5t86 -59t108 -22.5 q57 0 107 22.5t88 59t59 86.5t21 108q0 55 -21 106t-59 88.5t-88 59t-107 21.5q-58 0 -108 -21.5t-86 -59t-59 -88.5t-23 -106zM-332 -806l98 149l321 -82v1754h168v-1875q0 -75 -68 -75z" />
<glyph unicode="&#x103c;&#x103d;" horiz-adv-x="362" d="M142 -490v2020q0 192 119 311.5t312 119.5h524q94 0 193.5 -49.5t150.5 -124.5q65 -101 62 -204v-46h-170v31q0 74 -68 149t-184 75l-497 4q-127 0 -201 -75.5t-74 -202.5v-1994q0 -126 79 -209q73 -78 184 -83h8v-169h-4q-191 0 -312.5 127.5t-121.5 319.5zM548 -502 q0 90 34.5 170t93.5 139.5t138 94t171 34.5q90 0 170.5 -34.5t141 -94t94.5 -139.5t34 -170q0 -92 -34 -172.5t-94.5 -140t-141 -95t-170.5 -35.5q-92 0 -171 35.5t-138 95t-93.5 140t-34.5 172.5zM710 -507q0 -59 23 -109t59.5 -86t86 -58t108.5 -22q55 0 105.5 22t88.5 58 t58.5 86t20.5 109q0 56 -20.5 106t-58.5 87.5t-88.5 58.5t-105.5 21q-59 0 -108.5 -21t-86 -58.5t-59.5 -87.5t-23 -106z" />
<glyph unicode="&#x103d;&#x103e;" d="M-1507 -541.5q-30 106.5 29 201.5l140 -82l-3 -7q-21 -36 -8 -80.5t45 -61.5q38 -20 81 -11t68 45l164 278l30 -239l-58 -99l-6 -11q-58 -95 -163 -121t-198 28q-91 53 -121 159.5zM-1062 -513q0 91 34.5 170.5t93.5 139.5t138 94t171 34q90 0 170.5 -34t140.5 -94 t94.5 -139.5t34.5 -170.5q0 -92 -34.5 -172.5t-94.5 -140.5t-140.5 -94t-170.5 -34q-92 0 -171 34t-138 94t-93.5 140.5t-34.5 172.5zM-900 -518q0 -58 23 -108.5t59.5 -86.5t86 -58.5t108.5 -22.5q55 0 105.5 22.5t88.5 58.5t58.5 86.5t20.5 108.5q0 57 -20.5 106.5 t-58.5 87t-88.5 58.5t-105.5 21q-59 0 -108.5 -21t-86 -58.5t-59.5 -87t-23 -106.5z" />
<glyph unicode="&#x1020;&#x1039;&#x1020;" horiz-adv-x="1227" d="M111 -94l154 96q152 -111 356 -111q152 0 279 64v126q-121 -79 -275 -79q-211 0 -358 146q-37 39 -64 79q-80 120 -84 280q0 212 147.5 360t358.5 148t357 -148q54 -54 87 -115l-130 -119q-25 61 -77 113q-98 101 -237 101q-140 0 -237.5 -99.5t-97.5 -240.5 q0 -135 97.5 -235t237.5 -100q139 0 237 99q52 55 77 116l130 -122v-413l-56 -37q-173 -95 -390 -95q-187 0 -343 76v-499h593q22 7 43 23q29 28 29 68q0 44 -30 71t-65 27h-17l-52 153q34 8 71 8q109 0 186.5 -75t77.5 -184q0 -113 -77.5 -188t-186.5 -75q-16 0 -35 2h-706 v779zM334 -457q0 32 17 61.5t47 55.5q56 45 137 45q83 0 143 -45q4 -4 14.5 -11t20 -14t13.5 -13.5t-4 -12.5l-78 -53q-19 28 -36 39q-25 27 -73 27q-43 0 -72 -23.5t-29 -55.5t29 -52.5t72 -20.5q24 0 43 7t30 16q5 6 16 16.5t18 29.5l73 -49q-2 -2 -2 -6v-90h78v-84h-163 v91q-7 0 -12 -5q-17 -6 -37 -7t-44 -1q-81 0 -146 44q-11 7 -21 22q-32 40 -34 89z" />
<glyph unicode="&#x102d;&#x1036;" horiz-adv-x="85" d="M-1082 1522q0 93 35 173t93.5 139.5t138.5 93t170 33.5t171 -33.5t141.5 -93t94.5 -139.5t34 -173q0 -90 -34 -170.5t-94.5 -140t-141.5 -94.5t-171 -35t-170 35t-138.5 94.5t-93.5 140t-35 170.5zM-919 1519q0 -59 22.5 -109t58.5 -86.5t86 -59t109 -22.5 q56 0 105.5 22.5t87.5 59t59 86.5t21 109q0 55 -21 105t-59 88.5t-87.5 59t-105.5 20.5q-59 0 -109 -20.5t-86 -59t-58.5 -88.5t-22.5 -105zM-169 1478q0 94 65.5 161t159.5 67q90 0 155.5 -67t65.5 -161q0 -91 -65.5 -157t-155.5 -66q-94 0 -159.5 66t-65.5 157zM-38 1478 q0 -38 27 -65.5t67 -27.5q38 0 66 27.5t28 65.5q0 42 -28 69t-66 27q-40 0 -67 -27t-27 -69z" />
<glyph unicode="&#x1004;&#x103a;&#x1039;" d="M-874 1340q0 131 100 205q-20 27 -35.5 62t-15.5 69q0 42 16.5 79t45 65t64.5 44t76 16q84 0 131 -45q26 -32 46 -67.5t31 -78.5l-123 -17q-44 25 -60 36h2q-4 3 -10.5 5t-18.5 2q-16 0 -27 -13t-11 -26q0 -8 8 -21.5t19 -25.5t24.5 -22t27.5 -10h94l2 -150h-94 q-21 0 -44 -9.5t-42 -25t-32 -36.5t-13 -39q0 -37 26.5 -65t63.5 -28q42 0 63 25q11 13 20.5 31.5t14.5 44.5l156 -34q-16 -82 -55 -131q-36 -41 -88 -68t-111 -27q-50 0 -96.5 21t-81 55.5t-54 80t-19.5 98.5z" />
<glyph unicode="&#x1039;&#x1010;&#x103d;" horiz-adv-x="2" d="M-1491 -400q0 144 114 237q107 82 255 82q208 0 312 -144q16 30 48 56q124 90 259 90q141 0 258 -93.5t117 -228.5q0 -79 -30 -139q16 -35 21.5 -73t-0.5 -79q-2 -22 -9 -39.5t-20 -35.5q-11 -15 -31 -26t-36 -21q-23 -14 -60.5 -25t-78.5 -15.5t-80 -2.5t-65 14 q-20 10 -39.5 24t-38.5 28q-16 14 -24.5 35t-19.5 39q-14 28 -16.5 61.5t2.5 66.5t16.5 65t24.5 58q9 16 21.5 29.5t24.5 25.5q6 6 13.5 11.5t15.5 10.5t16 9.5t14 5.5q15 10 32 12.5t37 4.5q35 4 64 -4q34 -8 66.5 -24t60.5 -37q1 9 1 21q0 90 -86 151q-75 53 -173 53 q-92 0 -162 -52.5t-91 -140.5q0 -150 -107 -242.5t-257 -92.5t-259.5 88.5t-109.5 236.5zM-1371 -400q0 -93 80 -155q73 -55 169 -55q218 0 250 235q-12 73 -79.5 124.5t-170.5 51.5q-101 0 -171 -49q-78 -56 -78 -152zM-544 -586.5q-6 -34.5 0.5 -68.5t27.5 -57 q17 -17 42 -27t53.5 -13.5t56.5 -1t49 10.5q13 9 28.5 16.5t30.5 26.5q11 36 9 69t-14.5 61.5t-35 49.5t-49.5 33q-17 8 -27.5 13t-19 8t-18.5 4t-26 1q-11 -5 -20.5 -8.5t-21.5 -13.5q-26 -12 -42.5 -40.5t-22.5 -63z" />
<glyph unicode="&#x101b;&#x103a;&#x1039;" d="M-988 1481q0 80 29 150.5t81 128.5q119 116 285 116q79 0 152 -29.5t127 -83.5q60 -57 90.5 -130.5t25.5 -151.5v-115h-163v115q0 86 -70 158h2q-36 33 -75.5 51t-88.5 18q-89 0 -162 -69q-64 -72 -64 -158q0 -47 12 -82q14 27 34 50q66 66 157 66q45 0 84.5 -18.5 t70 -48t46 -69t15.5 -83.5q0 -47 -15.5 -87t-46 -67.5t-70 -44t-84.5 -16.5q-47 0 -80 13h2q-106 26 -181 102q-113 113 -113 285zM-666 1292q0 -21 18 -37t36 -16q21 0 40.5 16t19.5 37q0 27 -19.5 44.5t-40.5 17.5q-18 0 -36 -17.5t-18 -44.5z" />
<glyph unicode="&#x103e;&#x102d;&#xe2f1;" d="M-1077 -789h201v704h167v-852h-368v148zM-1064 1522q0 93 35 173t93.5 139.5t138 93t170.5 33.5q90 0 171.5 -33.5t141.5 -93t94 -139.5t34 -173q0 -90 -34 -170.5t-94 -140t-141.5 -94.5t-171.5 -35q-91 0 -170.5 35t-138 94.5t-93.5 140t-35 170.5zM-900 1519 q0 -59 22.5 -109t58.5 -86.5t85.5 -59t108.5 -22.5q56 0 106 22.5t88 59t59 86.5t21 109q0 55 -21 105t-59 88.5t-88 59t-106 20.5q-59 0 -108.5 -20.5t-85.5 -59t-58.5 -88.5t-22.5 -105zM-555 -85h168v-704h198v-148h-366v852z" />
<glyph unicode="&#x103e;&#x1072;&#xe2f1;" d="M-1040 -789h200v704h167v-852h-367v148zM-979 1549q26 163 163 259q132 94 295 65t256 -160l-139 -102q-52 74 -145.5 91t-169.5 -35q-77 -56 -91.5 -149.5t37.5 -167.5q54 -76 147.5 -93.5t171.5 37.5l98 -136q-136 -96 -298 -67.5t-258 163.5q-93 132 -67 295z M-546 -85h168v-704h198v-148h-366v852z" />
<glyph unicode="&#x103e;&#x102d;&#xe2f2;" d="M-1233 -789h201v704h167v-852h-368v148zM-1064 1522q0 93 35 173t93.5 139.5t138 93t170.5 33.5q90 0 171.5 -33.5t141.5 -93t94 -139.5t34 -173q0 -90 -34 -170.5t-94 -140t-141.5 -94.5t-171.5 -35q-91 0 -170.5 35t-138 94.5t-93.5 140t-35 170.5zM-900 1519 q0 -59 22.5 -109t58.5 -86.5t85.5 -59t108.5 -22.5q56 0 106 22.5t88 59t59 86.5t21 109q0 55 -21 105t-59 88.5t-88 59t-106 20.5q-59 0 -108.5 -20.5t-85.5 -59t-58.5 -88.5t-22.5 -105zM-702 -85h167v-852h-167v852zM-390 -85h168v-704h198v-148h-366v852z" />
<glyph unicode="&#x102b;&#x1036;" horiz-adv-x="448" d="M-952 1478q0 94 65.5 161t157.5 67t156.5 -67t64.5 -161q0 -91 -64.5 -157t-156.5 -66t-157.5 66t-65.5 157zM-821 1478q0 -38 26.5 -65.5t65.5 -27.5t67.5 27.5t28.5 65.5q0 42 -28.5 69t-67.5 27t-65.5 -27t-26.5 -69zM-458 1481q0 163 116.5 281t282.5 118 q162 0 278 -118t116 -279v-1483h-178v1481h-2q2 91 -64 159t-158 68q-97 0 -162.5 -68t-65.5 -159h-163z" />
<glyph unicode="&#x102b;&#x1032;" horiz-adv-x="448" d="M-937 1825l126 83l479 -711l-127 -79zM-458 1481q0 163 116.5 281t282.5 118q162 0 278 -118t116 -279v-1483h-178v1481h-2q2 91 -64 159t-158 68q-97 0 -162.5 -68t-65.5 -159h-163z" />
<glyph unicode="&#x1032;&#xaa70;" horiz-adv-x="2" d="M-1026 1543q-8 26 8 53.5t40 31.5q19 5 46 -2l623 -280q37 -16 44 -46q6 -24 -10 -52.5t-42 -34.5q-16 -3 -49 4l-624 279q-28 10 -36 47zM-928 1757q-7 26 9 52.5t38 31.5q21 5 46 -3l624 -279q37 -16 43 -44q6 -26 -9 -54t-42 -33q-15 -5 -48 3l-624 280q-30 8 -37 46z " />
<glyph unicode="&#x103a;&#xaa70;" d="M-954 1483q0 161 116 279t283 118q162 0 278 -118t116 -279l-173 -2q0 91 -65 159t-159 68q-96 0 -161.5 -68t-65.5 -159q0 -94 65.5 -162t161.5 -68l3 -168q-167 0 -283 117.5t-116 282.5zM-716 1457q0 71 47 117.5t120 46.5q67 0 114.5 -48t47.5 -116l-95 -5 q0 68 -71 68q-69 0 -69 -68z" />
<glyph unicode="&#x102c;&#x103e;&#x103a;" horiz-adv-x="916" d="M-984 1483q0 161 116 279t283 118q162 0 278 -118t116 -279l-173 -2q0 91 -65 159t-159 68q-96 0 -161.5 -68t-65.5 -159q0 -94 65.5 -162t161.5 -68l3 -168q-167 0 -283 117.5t-116 282.5zM-901 -789h199v704h165v-852h-364v148zM-136 791q27 39 63 76q147 146 360 146 q210 0 358 -148t148 -359t-148 -358.5t-358 -147.5h-7l-24 174h31q139 0 238 98t99 234q0 142 -99 240t-238 98q-138 0 -238 -98q-98 -98 -98 -239v-1q-112 324 -87 285z" />
<glyph unicode="&#x1051;&#x1039;&#x100d;" horiz-adv-x="1237" d="M111 507q0 210 145 381q97 92 214 127l62 -161q-88 -21 -156 -87q-96 -123 -96 -260q0 -139 99 -238t237 -99q141 0 239 99t98 238q0 137 -101 260q-63 66 -150 87l60 161q118 -35 211 -127q151 -171 151 -381q0 -212 -149 -359.5t-359 -147.5q-211 0 -358 147.5 t-147 359.5zM158 -148l111 135l58 -32q127 -64 279 -64q201 0 355 111l153 -96v-674h182v-169h-348l-3 733q-154 -76 -341 -76q-217 0 -389 95zM516 494q0 43 28.5 70t67.5 27q36 0 64.5 -27t28.5 -70q0 -37 -28.5 -64t-64.5 -27q-39 0 -67.5 27t-28.5 64z" />
<glyph unicode="&#x1051;&#x1039;&#x100c;" horiz-adv-x="1237" d="M111 507q0 210 145 381q97 92 214 127l62 -161q-88 -21 -156 -87q-96 -123 -96 -260q0 -139 99 -238t237 -99q141 0 239 99t98 238q0 137 -101 260q-63 66 -150 87l60 161q118 -35 211 -127q151 -171 151 -381q0 -212 -149 -359.5t-359 -147.5q-211 0 -358 147.5 t-147 359.5zM111 -612q0 109 78 184t185 75q39 0 73 -8l-54 -153h-17q-34 0 -64 -27t-30 -71q0 -40 30 -68q20 -16 43 -23h43h548v499q-155 -76 -342 -76q-217 0 -389 95l-57 37l107 146l62 -43q127 -64 279 -64q201 0 356 111l154 -96v-779h-705q-20 -2 -37 -2 q-107 0 -185 75t-78 188zM516 494q0 43 28.5 70t67.5 27q36 0 64.5 -27t28.5 -70q0 -37 -28.5 -64t-64.5 -27q-39 0 -67.5 27t-28.5 64z" />
<glyph unicode="&#x103a;&#x1036;" horiz-adv-x="2" d="M-954 1483q0 161 116 279t283 118q162 0 278 -118t116 -279l-173 -2q0 91 -65 159t-159 68q-96 0 -161.5 -68t-65.5 -159q0 -94 65.5 -162t161.5 -68l3 -168q-167 0 -283 117.5t-116 282.5zM-700 1472q0 63 44.5 107t111.5 44q63 0 110 -41.5t47 -106.5 q0 -73 -43.5 -117.5t-113.5 -44.5q-64 0 -110 48t-46 111zM-604 1474q0 -59 61 -70q51 0 66 67q0 59 -66 64q-61 0 -61 -61z" />
<glyph unicode="&#x107e;&#x102f;" horiz-adv-x="2051" d="M111 497q0 237 245 465l69 22l9 -2q82 -29 82 -85q0 -7 -27 -97l5 -50q22 -92 119 -92q53 0 86.5 39.5t33.5 95.5q0 43 -44 89l45 131q151 -72 151 -235q0 -108 -77.5 -182t-182.5 -74q-95 0 -167.5 56.5t-89.5 146.5q-76 -83 -76 -218q0 -141 104.5 -239t247.5 -98 q134 0 236 97q77 71 95 160q-4 40 -4 83q0 207 151.5 355t364.5 148q193 0 333 -118l-123 -120q-89 72 -210 72q-142 0 -243.5 -100.5t-101.5 -236.5q0 -49 12 -93q17 -37 36 -70l-5 -5q23 -39 59 -75q96 -95 237 -97q-70 73 -70 172q0 106 78 184t189 78t186.5 -78 t75.5 -184q0 -107 -76 -186q-7 -8 -18 -13q-146 -139 -346 -143l-650 -917l-327 223l74 121l209 -140l521 735q-113 36 -205 126q-37 34 -62 71q-148 -219 -410 -219q-216 0 -368 130q-65 57 -128 170q-43 93 -43 197zM1564 350q0 -45 32 -78.5t78 -33.5q44 0 78 33.5 t34 78.5q0 43 -34 77t-78 34q-46 0 -78 -34t-32 -77zM1591 -85h167v-704h198v-148h-365v852z" />
<glyph unicode="&#x107e;&#x1030;" horiz-adv-x="2051" d="M111 497q0 237 245 465l69 22l9 -2q82 -29 82 -85q0 -7 -27 -97l5 -50q22 -92 119 -92q53 0 86.5 39.5t33.5 95.5q0 43 -44 89l45 131q151 -72 151 -235q0 -108 -77.5 -182t-182.5 -74q-95 0 -167.5 56.5t-89.5 146.5q-76 -83 -76 -218q0 -141 104.5 -239t247.5 -98 q134 0 236 97q77 71 95 160q-4 40 -4 83q0 207 151.5 355t364.5 148q193 0 333 -118l-123 -120q-89 72 -210 72q-142 0 -243.5 -100.5t-101.5 -236.5q0 -49 12 -93q17 -37 36 -70l-5 -5q23 -39 59 -75q96 -95 237 -97q-70 73 -70 172q0 106 78 184t189 78t186.5 -78 t75.5 -184q0 -107 -76 -186q-7 -8 -18 -13q-146 -139 -346 -143l-650 -917l-327 223l74 121l209 -140l521 735q-113 36 -205 126q-37 34 -62 71q-148 -219 -410 -219q-216 0 -368 130q-65 57 -128 170q-43 93 -43 197zM1478 -85h167v-852h-167v852zM1564 350q0 -45 32 -78.5 t78 -33.5q44 0 78 33.5t34 78.5q0 43 -34 77t-78 34q-46 0 -78 -34t-32 -77zM1774 -85h168v-704h198v-148h-366v852z" />
<glyph unicode="&#x103b;&#x1082;" horiz-adv-x="350" d="M-1017 -480q0 91 35 170.5t94 139t138 94t170 34.5l3 -170q-59 0 -108.5 -21t-86 -58.5t-59 -87.5t-22.5 -106q0 -59 22.5 -109t59 -86.5t86 -59t108.5 -22.5q55 0 105 22.5t88.5 59t59.5 86.5t21 109l165 5q0 -91 -35 -172t-95 -140.5t-140.5 -95t-171.5 -35.5 t-170 35.5t-138 95t-94 140.5t-35 172zM-354 -806l98 149l321 -82v1754h168v-1875q0 -75 -67 -75z" />
<glyph unicode="&#x1083;&#x1037;" horiz-adv-x="829" d="M-59 847v168h375v-1783h175v-169h-347v1784h-203zM399 -388q0 93 65.5 160.5t158.5 67.5q92 0 155.5 -67.5t63.5 -160.5q0 -91 -63.5 -157t-155.5 -66q-93 0 -158.5 66t-65.5 157zM530 -388q0 -38 26 -66t67 -28q37 0 66.5 28t29.5 66q0 43 -29.5 69t-66.5 26 q-41 0 -67 -26t-26 -69z" />
<glyph unicode="&#x1062;&#x1086;" horiz-adv-x="509" d="M5 847v168h378v-1015h-173v847h-205zM11 1068q41 51 114 164l90 170l41 125h-22h-26q-78 4 -134 60q-50 48 -54 108q-9 23 -9 53q0 93 63.5 157.5t159.5 64.5q93 0 159 -64.5t66 -157.5q0 -49 -21.5 -153t-82.5 -198t-171 -190t-173 -139zM138 1748q0 -38 29 -67t67 -29 q41 0 67 29t26 67q0 40 -26 67.5t-67 27.5q-38 0 -67 -27.5t-29 -67.5z" />
<glyph unicode="&#x1083;&#x103a;" horiz-adv-x="488" d="M-202 1483q0 161 116.5 279t283.5 118q162 0 278 -118t116 -279l-173 -2q0 91 -64.5 159t-158.5 68q-98 0 -163 -68t-65 -159q0 -94 65 -162t163 -68l2 -168q-167 0 -283.5 117.5t-116.5 282.5zM-59 847v168h375v-1783h175v-169h-347v1784h-203z" />
<glyph unicode="&#x1039;&#x101f;" d="M-1677 -493q0 173 119 311q80 74 184 105l58 -145q-82 -25 -130 -73v1q-75 -96 -75 -199q0 -108 77 -182q76 -77 179 -77q55 0 99.5 20t83.5 57q76 74 76 182q0 103 -79 199v-1q-54 50 -127 73l57 145q105 -31 180 -103l3 -2q13 -19 25.5 -33t22.5 -32l2 2q10 11 18 23.5 t19 24.5q60 57 132 87t162 30q168 0 292 -117q121 -121 121 -295q0 -173 -123 -295q-128 -120 -304 -122l-24 163q18 -4 25 -5t13 -1q102 2 179 79q78 78 78 181q0 102 -78 180q-77 77 -179 77t-183 -77q-34 -36 -52.5 -74t-23.5 -81v-26q0 -88 -30 -160.5t-92 -135.5h2 q-122 -120 -295 -120q-174 0 -293 122v-2q-119 124 -119 296z" />
<glyph unicode="&#x1001;&#x103c;&#x102f;&#x1036;" horiz-adv-x="1962" d="M141 -490v2020q0 192 119 311.5t312 119.5h524q94 0 193.5 -49.5t150.5 -124.5q65 -101 62 -224v-2h-170q-4 85 -68 156q-68 75 -184 75l-497 4q-127 0 -201 -75.5t-74 -202.5v-1994q0 -126 78.5 -209t199.5 -83h389q115 0 200 82t87 196v488h170v-500 q12 -195 -116.5 -315t-322.5 -120h-418q-191 0 -312.5 127.5t-121.5 319.5zM476 344q0 108 77 186t187 78q112 0 190.5 -78t78.5 -186q0 -99 -69 -172q141 2 238 97q101 103 101 245q0 138 -101 238t-245 100q-124 0 -213 -71l-121 122q139 119 334 119q216 0 368.5 -148.5 t152.5 -359.5q0 -214 -152.5 -364t-368.5 -150q-211 0 -381 158q-76 80 -76 186zM655 353q0 -45 32.5 -78.5t77.5 -33.5q47 0 80.5 33.5t33.5 78.5q0 47 -33.5 79.5t-80.5 32.5q-45 0 -77.5 -32.5t-32.5 -79.5zM839 1378q0 94 65.5 161t159.5 67q91 0 155.5 -67t64.5 -161 q0 -91 -64.5 -157t-155.5 -66q-94 0 -159.5 66t-65.5 157zM970 1378q0 -38 27 -65.5t67 -27.5q37 0 66 27.5t29 65.5q0 42 -29 69t-66 27q-40 0 -67 -27t-27 -69zM1601 -937v1952h170v-1783h176v-169h-346z" />
<glyph unicode="&#x1016;&#x103c;&#x102f;&#x1036;" horiz-adv-x="1974" d="M141 -490v2020q0 192 119 311.5t312 119.5h524q94 0 193.5 -49.5t150.5 -124.5q65 -101 62 -224v-2h-170q-4 85 -68 156q-68 75 -184 75l-497 4q-127 0 -201 -75.5t-74 -202.5v-1994q0 -126 78.5 -209t199.5 -83h389q115 0 200 82t87 196v488h170v-500 q12 -195 -116.5 -315t-322.5 -120h-418q-191 0 -312.5 127.5t-121.5 319.5zM461 507q0 210 145 381q69 65 147 103q18 7 33 14l68 -158q-71 -23 -128 -80q-97 -123 -97 -260q0 -139 99 -238t238 -99q140 0 238 99t98 238q0 52 -15 101q-58 -45 -134 -45q-94 0 -159 65.5 t-65 157.5q0 94 65 160.5t159 66.5q92 0 157 -67q48 -51 106 -158.5t58 -280.5q0 -212 -149.5 -359.5t-358.5 -147.5q-212 0 -358.5 147.5t-146.5 359.5zM859 1368q0 94 65.5 161t159.5 67q91 0 155.5 -67t64.5 -161q0 -91 -64.5 -157t-155.5 -66q-94 0 -159.5 66t-65.5 157 zM990 1368q0 -38 27 -65.5t67 -27.5q37 0 66 27.5t29 65.5q0 42 -29 69t-66 27q-40 0 -67 -27t-27 -69zM1059 786q0 -38 27 -66t67 -28q37 0 67 28t30 66q0 42 -30 69t-67 27q-40 0 -67 -27t-27 -69zM1601 -937v1952h170v-1783h176v-169h-346z" />
<glyph unicode="&#x1001;&#x103c;&#x103d;&#x102d;&#x102f;" horiz-adv-x="2007" d="M142 -490v2020q0 192 119 312q39 39 86 65q69 39 226 50l-3 -171q-140 -17 -187 -65q-74 -76 -74 -203v-1994q0 -126 79 -209q73 -78 184 -83h8v-169h-4q-191 0 -312.5 127.5t-121.5 319.5zM468 -502q0 90 34.5 170t93.5 139.5t138 94t171 34.5q90 0 170.5 -34.5t141 -94 t94.5 -139.5t34 -170q0 -92 -34 -172.5t-94.5 -140t-141 -95t-170.5 -35.5q-92 0 -171 35.5t-138 95t-93.5 140t-34.5 172.5zM476 344q0 108 77 186t188 78q112 0 190.5 -78t78.5 -186q0 -99 -70 -172q142 2 238 97q102 103 102 245q0 138 -101 238t-245 100 q-124 0 -213 -71l-122 122q140 119 335 119q215 0 367.5 -148.5t152.5 -359.5q0 -214 -152.5 -364t-367.5 -150q-211 0 -382 158q-76 80 -76 186zM476 1522q0 93 35 173t93.5 139.5t138 93t170.5 33.5q90 0 171.5 -33.5t141.5 -93t94 -139.5t34 -173q0 -90 -34 -170.5 t-94 -140t-141.5 -94.5t-171.5 -35q-91 0 -170.5 35t-138 94.5t-93.5 140t-35 170.5zM630 -507q0 -59 23 -109t59.5 -86t86 -58t108.5 -22q55 0 105.5 22t88.5 58t58.5 86t20.5 109q0 56 -20.5 106t-58.5 87.5t-88.5 58.5t-105.5 21q-59 0 -108.5 -21t-86 -58.5t-59.5 -87.5 t-23 -106zM640 1519q0 -59 22.5 -109t58.5 -86.5t85.5 -59t108.5 -22.5q56 0 106 22.5t88 59t59 86.5t21 109q0 55 -21 105t-59 88.5t-88 59t-106 20.5q-59 0 -108.5 -20.5t-85.5 -59t-58.5 -88.5t-22.5 -105zM656 353q0 -45 32.5 -78.5t77.5 -33.5q47 0 80.5 33.5 t33.5 78.5q0 47 -33.5 79.5t-80.5 32.5q-45 0 -77.5 -32.5t-32.5 -79.5zM1601 -937v1952h171v-1783h175v-169h-346z" />
<glyph unicode="&#x1000;&#x103c;&#x102f;&#x1036;" horiz-adv-x="2770" d="M111 -489v2014q0 190 119 310.5t314 120.5h1321q94 0 194.5 -49.5t151.5 -124.5q65 -101 63 -243v-61l-173 2v43q0 113 -68 189t-183 76l-1296 3q-127 0 -201.5 -76t-74.5 -203v-1986q0 -127 78.5 -210.5t199.5 -83.5h1260q114 0 198.5 82t86.5 197v489h173v-501 q10 -195 -117.5 -315.5t-323.5 -120.5h-1288q-191 0 -312.5 127.5t-121.5 320.5zM431 510q0 209 146.5 357t358.5 148q209 0 357 -146q35 -36 62 -76q26 40 61 76q151 146 359 146q210 0 359 -148t149 -357q0 -213 -149 -360.5t-359 -147.5q-89 0 -166 27l62 158 q48 -15 104 -15q141 0 239 99t98 239q0 136 -98 236.5t-239 100.5q-140 0 -240 -101q-83 -86 -96 -198q-2 -42 0 -78q-13 -178 -84 -272q-27 -42 -62 -73q-85 -85 -191 -123l-52 161q69 24 145.5 115.5t76.5 231.5q0 136 -98 236.5t-238 100.5q-139 0 -238 -100.5 t-99 -236.5q0 -140 78 -231.5t149 -115.5l-52 -163q-110 36 -226.5 166.5t-116.5 343.5zM1579 1378q0 94 65.5 161t159.5 67q91 0 155.5 -67t64.5 -161q0 -91 -64.5 -157t-155.5 -66q-94 0 -159.5 66t-65.5 157zM1710 1378q0 -38 27 -65.5t67 -27.5q37 0 66 27.5t29 65.5 q0 42 -29 69t-66 27q-40 0 -67 -27t-27 -69zM2441 -937v1952h170v-1783h176v-169h-346z" />
<glyph unicode="&#x1000;&#x103c;&#x102f;&#x1036;&#x1037;" horiz-adv-x="3160" d="M111 -489v2014q0 190 119 310.5t314 120.5h1321q94 0 194.5 -49.5t151.5 -124.5q65 -101 63 -243v-62l-173 3v43q0 113 -68 189t-183 76l-1296 3q-127 0 -201.5 -76t-74.5 -203v-1986q0 -127 78.5 -210.5t199.5 -83.5h1260q114 0 198.5 82t86.5 197v489h173v-501 q10 -195 -117.5 -315.5t-323.5 -120.5h-1288q-191 0 -312.5 127.5t-121.5 320.5zM431 510q0 209 146.5 357t358.5 148q209 0 357 -146q35 -36 62 -76q26 40 61 76q151 146 359 146q210 0 359 -148t149 -357q0 -213 -149 -360.5t-359 -147.5q-89 0 -166 27l62 158 q48 -15 104 -15q141 0 239 99t98 239q0 136 -98 236.5t-239 100.5q-140 0 -240 -101q-83 -86 -96 -198q-2 -42 0 -78q-13 -178 -84 -272q-27 -42 -62 -73q-85 -85 -191 -123l-52 161q69 24 145.5 115.5t76.5 231.5q0 136 -98 236.5t-238 100.5q-139 0 -238 -100.5 t-99 -236.5q0 -140 78 -231.5t149 -115.5l-52 -163q-110 36 -226.5 166.5t-116.5 343.5zM1599 1378q0 94 65.5 161t159.5 67q91 0 155.5 -67t64.5 -161q0 -91 -64.5 -157t-155.5 -66q-94 0 -159.5 66t-65.5 157zM1730 1378q0 -38 27 -65.5t67 -27.5q37 0 66 27.5t29 65.5 q0 42 -29 69t-66 27q-40 0 -67 -27t-27 -69zM2441 -937v1952h170v-1783h176v-169h-346zM2760 -388q0 93 66 160.5t159 67.5q92 0 156.5 -67.5t64.5 -160.5q0 -91 -64.5 -157t-156.5 -66q-93 0 -159 66t-66 157zM2892 -388q0 -38 26.5 -66t66.5 -28q39 0 68 28t29 66 q0 43 -29 69t-68 26q-40 0 -66.5 -26t-26.5 -69z" />
<glyph unicode="&#x1001;&#x103c;&#x102f;&#x1036;&#x1037;" horiz-adv-x="2307" d="M141 -490v2020q0 192 119 311.5t312 119.5h524q94 0 193.5 -49.5t150.5 -124.5q65 -101 62 -224v-2h-170q-4 85 -68 156q-68 75 -184 75l-497 4q-127 0 -201 -75.5t-74 -202.5v-1994q0 -126 78.5 -209t199.5 -83h389q115 0 200 82t87 196v488h170v-500 q12 -195 -116.5 -315t-322.5 -120h-418q-191 0 -312.5 127.5t-121.5 319.5zM475 344q0 108 77.5 186t187.5 78q112 0 190.5 -78t78.5 -186q0 -99 -69 -172q141 2 238 97q101 103 101 245q0 138 -101 238t-245 100q-124 0 -213 -71l-122 122q140 119 335 119 q215 0 368 -148.5t153 -359.5q0 -214 -153 -364t-368 -150q-211 0 -381 158q-77 80 -77 186zM655 353q0 -45 32.5 -78.5t77.5 -33.5q47 0 80.5 33.5t33.5 78.5q0 47 -33.5 79.5t-80.5 32.5q-45 0 -77.5 -32.5t-32.5 -79.5zM859 1378q0 94 65 161t160 67q91 0 155 -67 t64 -161q0 -91 -64 -157t-155 -66q-95 0 -160 66t-65 157zM989 1378q0 -38 27.5 -65.5t67.5 -27.5q37 0 66 27.5t29 65.5q0 42 -29 69t-66 27q-40 0 -67.5 -27t-27.5 -69zM1600 -937v1952h171v-1783h176v-169h-347zM1900 -388q0 93 66 160.5t159 67.5q92 0 156.5 -67.5 t64.5 -160.5q0 -91 -64.5 -157t-156.5 -66q-93 0 -159 66t-66 157zM2032 -388q0 -38 26.5 -66t66.5 -28q39 0 68 28t29 66q0 43 -29 69t-68 26q-40 0 -66.5 -26t-26.5 -69z" />
<glyph unicode="&#x1016;&#x103c;&#x102f;&#x1036;&#x1037;" horiz-adv-x="2307" d="M141 -490v2020q0 192 119 311.5t312 119.5h524q94 0 193.5 -49.5t150.5 -124.5q65 -101 62 -224v-2h-170q-4 85 -68 156q-68 75 -184 75l-497 4q-127 0 -201 -75.5t-74 -202.5v-1994q0 -126 78.5 -209t199.5 -83h389q115 0 200 82t87 196v488h170v-500 q12 -195 -116.5 -315t-322.5 -120h-418q-191 0 -312.5 127.5t-121.5 319.5zM460 507q0 210 146 381q69 65 147 103q17 7 33 14l67 -158q-70 -23 -127 -80q-97 -123 -97 -260q0 -139 99 -238t238 -99q140 0 238 99t98 238q0 52 -16 101q-57 -45 -133 -45q-94 0 -159.5 65.5 t-65.5 157.5q0 94 65.5 160.5t159.5 66.5q91 0 157 -67q48 -51 106 -158.5t58 -280.5q0 -212 -149.5 -359.5t-358.5 -147.5q-212 0 -359 147.5t-147 359.5zM859 1388q0 94 65 161t160 67q91 0 155 -67t64 -161q0 -91 -64 -157t-155 -66q-95 0 -160 66t-65 157zM989 1388 q0 -38 27.5 -65.5t67.5 -27.5q37 0 66 27.5t29 65.5q0 42 -29 69t-66 27q-40 0 -67.5 -27t-27.5 -69zM1059 786q0 -38 27 -66t67 -28q37 0 66.5 28t29.5 66q0 42 -29.5 69t-66.5 27q-40 0 -67 -27t-27 -69zM1600 -937v1952h171v-1783h176v-169h-347zM1900 -388 q0 93 66 160.5t159 67.5q92 0 156.5 -67.5t64.5 -160.5q0 -91 -64.5 -157t-156.5 -66q-93 0 -159 66t-66 157zM2032 -388q0 -38 26.5 -66t66.5 -28q39 0 68 28t29 66q0 43 -29 69t-68 26q-40 0 -66.5 -26t-26.5 -69z" />
<glyph unicode="&#x1009;&#x1039;&#x1001;" horiz-adv-x="1240" d="M170 264l130 124q26 -62 77 -116q99 -100 236 -100q142 0 240 100.5t98 236.5q0 140 -98 239.5t-240 99.5q-137 0 -236 -101q-51 -51 -77 -113l-130 120q34 61 87 114q147 149 356 149q213 0 361 -148t148 -360q0 -136 -84 -281q-27 -41 -65 -79q-147 -147 -360 -147 q-155 0 -275 81v-558q0 -127 79 -211t200 -84v-169q-204 0 -325.5 128t-121.5 322v753zM423 -612q0 43 16.5 82.5t46 70t69 47.5t86.5 17t88.5 -17t72 -47.5t48.5 -70t18 -82.5q0 -36 -11.5 -66.5t-30.5 -61.5q90 9 156 72q78 79 78 189q0 108 -76 183q-80 74 -188 74 q-49 0 -91 -15t-78 -40l-116 107q64 51 134.5 78.5t150.5 27.5q180 0 300 -120h-2q126 -124 126 -295q0 -174 -126 -298h2q-122 -123 -300 -123q-166 0 -310 129l-2 2q-32 36 -46.5 72t-14.5 85zM569 -608q0 -30 22.5 -55t51.5 -25q35 0 58 25t23 55q0 34 -23 57t-58 23 q-29 0 -51.5 -23t-22.5 -57z" />
<glyph unicode="&#x1009;&#x1039;&#x1002;" horiz-adv-x="1239" d="M170 264l128 124q28 -62 79 -116q98 -100 236 -100q141 0 239 100.5t98 236.5q0 140 -98 239.5t-239 99.5q-138 0 -236 -101q-51 -51 -79 -113l-128 120q33 61 86 114q148 149 357 149q213 0 361 -148t148 -360q0 -136 -85 -281q-26 -41 -64 -79q-147 -147 -360 -147 q-155 0 -276 81v-558q0 -127 79.5 -211t198.5 -84v-169q-202 0 -323.5 128t-121.5 322v753zM402 -509q0 87 33 164t89.5 134.5t132 91t162.5 33.5q88 0 165 -33.5t134 -91t90.5 -134.5t33.5 -164q0 -140 -80 -247t-206 -149l-55 151q81 26 132 93t51 157q0 53 -20 102 t-56.5 84.5t-84.5 56.5t-102 21t-102.5 -21t-83.5 -56.5t-56 -84.5t-21 -102q0 -90 54.5 -159t134.5 -93l-62 -151q-125 42 -204 150t-79 248z" />
<glyph unicode="&#x1009;&#x1039;&#x1005;" horiz-adv-x="1240" d="M170 264l130 124q26 -62 77 -116q99 -100 236 -100q142 0 240 100.5t98 236.5q0 140 -98 239.5t-240 99.5q-137 0 -236 -101q-51 -51 -77 -113l-130 120q34 61 87 114q147 149 356 149q213 0 361 -148t148 -360q0 -136 -84 -281q-27 -41 -65 -79q-147 -147 -360 -147 q-155 0 -275 81v-558q0 -127 79 -211t200 -84v-169q-204 0 -325.5 128t-121.5 322v753zM403 -486q0 166 119 292q126 121 294 121q174 0 294 -119q121 -122 121 -294q0 -171 -121 -292q-120 -124 -294 -124q-172 0 -294 124v-2q-119 123 -119 294zM556 -490q0 -31 23 -51 t50 -20q29 0 53.5 20t24.5 51q0 38 -24.5 59t-53.5 21q-27 0 -50 -21t-23 -59zM669 -702q31 -22 69 -33t78 -11q100 0 181 77q77 81 77 183q0 100 -77 181q-81 76 -181 76q-74 0 -143 -40q62 -13 107 -60h-2q67 -63 67 -155q0 -93 -67 -158h2q-45 -46 -111 -60z" />
<glyph unicode="&#x1009;&#x1039;&#x1007;" horiz-adv-x="1240" d="M170 264l130 124q26 -62 77 -116q99 -100 236 -100q142 0 240 100.5t98 236.5q0 140 -98 239.5t-240 99.5q-137 0 -236 -101q-51 -51 -77 -113l-130 120q34 61 87 114q147 149 356 149q213 0 361 -148t148 -360q0 -136 -84 -281q-27 -41 -65 -79q-147 -147 -360 -147 q-155 0 -275 81v-558q0 -127 79 -211t200 -84v-169q-204 0 -325.5 128t-121.5 322v753zM406 -493q0 84 30.5 156t86.5 134q127 121 295 121q167 0 292 -121q31 -36 50 -62.5t25 -49.5h6q15 -68 66 -119v3q45 -45 108 -65l-43 -154q-105 33 -175 105h3l-5 7q-9 -9 -11 -13 q-70 -63 -155 -63q-93 0 -157 62.5t-64 156.5q0 90 64 154q6 5 3 2.5t1 2.5h-8q-107 0 -179 -77v3q-78 -80 -78 -183q0 -108 78 -182q36 -40 82 -59t97 -19q97 0 173 71l114 -111q-128 -114 -287 -114q-170 0 -295 118q-56 62 -86.5 134t-30.5 162zM911 -402q0 -28 22 -49 t51 -21q12 0 27 6t25 15q17 15 22 34q-7 13 -11 30t-9 34l-23 23q-24 6 -31 6q-29 0 -51 -20t-22 -58z" />
<glyph unicode="&#x1009;&#x1039;&#x100e;" horiz-adv-x="1239" d="M170 264l128 124q28 -62 79 -116q98 -100 236 -100q141 0 239 100.5t98 236.5q0 140 -98 239.5t-239 99.5q-138 0 -236 -101q-51 -51 -79 -113l-128 120q33 61 86 114q148 149 357 149q213 0 361 -148t148 -360q0 -136 -85 -281q-26 -41 -64 -79q-147 -147 -360 -147 q-155 0 -276 81v-558q0 -127 79.5 -211t198.5 -84v-169q-202 0 -323.5 128t-121.5 322v753zM436 -485l4 59l134 36q61 14 65 88q-10 63 -55 61l-52 -2q-11 -3 -22.5 -13t-20.5 -14l-40 157q44 23 119 33l76 -10q47 -18 79.5 -46t42.5 -64q9 -12 13 -33.5t9 -44.5l4 -38 q11 -164 -195 -229q7 -37 23.5 -70.5t46.5 -62.5q76 -75 184 -75q101 0 182 75q76 81 76 185q0 54 -20 102.5t-56 97.5v-2q-25 23 -57 41t-72 29l57 150q55 -18 99.5 -45t84.5 -63q123 -137 123 -310q0 -172 -125 -296h2q-124 -121 -294 -121q-176 0 -297 121 q-56 61 -87 134t-31 162v8z" />
<glyph unicode="&#x1009;&#x1039;&#x1012;" horiz-adv-x="1239" d="M170 264l129 124q28 -62 79 -116q98 -100 236 -100q141 0 239 100.5t98 236.5q0 140 -98 239.5t-239 99.5q-138 0 -236 -101q-51 -51 -79 -113l-129 120q34 61 87 114q147 149 357 149q212 0 360.5 -148t148.5 -360q0 -136 -85 -281q-27 -41 -64 -79q-148 -147 -360 -147 q-157 0 -276 81v-558q0 -127 79 -211t199 -84v-169q-203 0 -324.5 128t-121.5 322v753zM453 -331q21 77 118 170q99 90 273 90q179 0 299 -124v2q30 -30 51.5 -59t34.5 -64q41 -139 -71 -139q-15 0 -32 2t-39 9l-6 8h2q-22 21 -51 21q-33 0 -57.5 -21.5t-24.5 -62.5 q0 -29 24.5 -51t57.5 -22q25 0 49 20q90 17 129.5 -10t16.5 -113q-14 -32 -35 -62t-49 -58q-120 -121 -299 -121q-172 0 -273 88q-97 91 -117 166l136 97q29 -71 84 -133v2q64 -61 170 -61q80 0 142 41q-62 13 -112 58q-67 66 -67 166q0 101 69 163h-2q50 50 107 59 q-27 12 -67 26t-70 14q-106 0 -170 -60v2q-28 -32 -49.5 -65.5t-34.5 -65.5z" />
<glyph unicode="&#x1009;&#x1039;&#x1013;" horiz-adv-x="1239" d="M170 264l128 124q28 -62 79 -116q98 -100 236 -100q141 0 239 100.5t98 236.5q0 140 -98 239.5t-239 99.5q-138 0 -236 -101q-51 -51 -79 -113l-128 120q33 61 86 114q148 149 357 149q213 0 361 -148t148 -360q0 -136 -85 -281q-26 -41 -64 -79q-147 -147 -360 -147 q-155 0 -276 81v-558q0 -127 79.5 -211t198.5 -84v-169q-202 0 -323.5 128t-121.5 322v753zM406 -493q0 167 122 293q131 123 306 123q179 0 303 -121h-2q129 -119 129 -295q0 -175 -129 -299h2q-124 -121 -303 -121t-306 121q-58 62 -90 135.5t-32 163.5zM568 -493 q0 -40 10.5 -73.5t28.5 -63.5q13 57 63 106h-2q65 64 162 64q92 0 157 -64q28 -25 45.5 -54t22.5 -67q45 68 45 152q0 103 -78 184v-1q-39 35 -85 55.5t-103 20.5q-105 0 -188 -76v1q-37 -41 -57.5 -85.5t-20.5 -98.5zM759 -687q0 -13 8.5 -26t16.5 -23l35 -20h33l39 20 q9 10 16.5 23t7.5 26q0 38 -25 59t-56 21q-28 0 -51.5 -21t-23.5 -59z" />
<glyph unicode="&#x1009;&#x1039;&#x1014;" horiz-adv-x="1239" d="M170 264l130 124q26 -62 77 -116q99 -100 236 -100q142 0 240 100.5t98 236.5q0 140 -98 239.5t-240 99.5q-137 0 -236 -101q-51 -51 -77 -113l-130 120q34 61 87 114q147 149 356 149q213 0 361 -148t148 -360q0 -136 -84 -281q-27 -41 -65 -79q-147 -147 -360 -147 q-155 0 -275 81v-558q0 -127 79 -211t200 -84v-169q-204 0 -325.5 128t-121.5 322v753zM459 -584q0 46 16 84.5t46.5 68t70.5 46t83 16.5q94 0 158 -61.5t59 -153.5v-132q63 14 120 69v-2q71 73 60 111l-215 129q-65 40 -123 63q-54 22 -54 100q0 40 14.5 75.5t40.5 61.5 t60.5 41t69.5 0q79 15 136 -42q18 -14 28 -33t18 -40l-128 -52q-5 18 -14 27h2q-18 14 -38 14q-23 0 -36.5 -12.5t-13.5 -20.5q0 -17 61 -52l7 -6h-5l362 -192q0 -159 -124 -280q-48 -47 -106.5 -76t-121.5 -40v-27h-141v30q-57 10 -114 41.5t-100 71.5q-10 3 -14 12l-2 6 q-62 63 -62 155zM611 -590q0 -28 23 -51l12 -12q40 -40 113 -56v119q0 38 -24 57.5t-53 19.5q-27 0 -49 -19.5t-22 -57.5z" />
<glyph unicode="&#x1009;&#x1039;&#x1015;" horiz-adv-x="1240" d="M170 264l130 124q26 -62 77 -116q99 -100 236 -100q142 0 240 100.5t98 236.5q0 140 -98 239.5t-240 99.5q-137 0 -236 -101q-51 -51 -77 -113l-130 120q34 61 87 114q147 149 356 149q213 0 361 -148t148 -360q0 -136 -84 -281q-27 -41 -65 -79q-147 -147 -360 -147 q-155 0 -275 81v-558q0 -127 79 -211t200 -84v-169q-204 0 -325.5 128t-121.5 322v753zM424 -509q0 164 115 302q39 35 84 62l8 4l100 -123q-46 -18 -83 -52v2q-71 -95 -71 -195t73 -178q79 -74 179 -74q53 0 97 19t81 55q74 74 74 178q0 103 -74 195v-2q-25 23 -56 41 q-8 4 -17 8l81 132q10 -4 18 -9q43 -26 80 -61l3 -2q119 -134 119 -302q0 -167 -122 -287h3q-118 -117 -287 -117t-290 117q-55 60 -85 130t-30 157z" />
<glyph unicode="&#x1009;&#x1039;&#x1016;" horiz-adv-x="1240" d="M170 264l130 124q26 -62 77 -116q99 -100 236 -100q142 0 240 100.5t98 236.5q0 140 -98 239.5t-240 99.5q-137 0 -236 -101q-51 -51 -77 -113l-130 120q34 61 87 114q147 149 356 149q213 0 361 -148t148 -360q0 -136 -84 -281q-27 -41 -65 -79q-147 -147 -360 -147 q-155 0 -275 81v-558q0 -127 79 -211t200 -84v-169q-204 0 -325.5 128t-121.5 322v753zM434 -492q0 172 120 314q41 37 87 65q5 3 9 5l102 -128q-47 -20 -85 -55v2q-74 -99 -74 -203t76 -186q82 -77 185 -77q56 0 100.5 20t83.5 57q76 78 76 186q0 17 -2 34t-6 32 q-45 -32 -101 -32q-81 0 -136.5 56t-55.5 135q0 40 14.5 75.5t40 62.5t61 41.5t76.5 14.5q76 0 136 -56q18 -18 41.5 -51.5t43.5 -78.5t34.5 -102t14.5 -131q0 -176 -127 -300h2q-122 -121 -296 -121q-175 0 -300 121q-57 63 -88.5 136.5t-31.5 163.5zM941 -267 q0 -26 17 -45t47 -19q27 0 48 19t21 45q0 30 -21 49.5t-48 19.5q-30 0 -47 -19.5t-17 -49.5z" />
<glyph unicode="&#x1009;&#x1039;&#x1017;" horiz-adv-x="1252" d="M170 264l130 124q26 -62 77 -116q98 -100 236 -100q141 0 239.5 100.5t98.5 236.5q0 140 -98.5 239.5t-239.5 99.5q-138 0 -236 -101q-51 -51 -77 -113l-130 120q34 61 87 114q147 149 356 149q213 0 361 -148t148 -360q0 -136 -84 -281q-27 -41 -65 -79 q-147 -147 -360 -147q-155 0 -276 81v-558q0 -127 79.5 -211t198.5 -84v-169q-202 0 -323.5 128t-121.5 322v753zM447 -502q0 175 119 303q92 90 225 115v-223q0 -38 22.5 -60.5t49.5 -22.5q31 0 55.5 22.5t24.5 60.5v223q122 -25 217 -115q123 -126 123 -303 q0 -171 -125 -295q-126 -121 -295 -121q-173 0 -297 121q-119 122 -119 295zM602 -502q0 -102 77 -183v2q82 -78 184 -78q110 0 186 76q75 77 75 183q0 42 -11.5 80.5t-31.5 71.5q-5 -38 -23 -66t-45 -56q-70 -64 -155 -64q-88 0 -158 64q-42 46 -59 109q-19 -31 -29 -64 t-10 -75z" />
<glyph unicode="&#x1009;&#x1039;&#x1019;" horiz-adv-x="1240" d="M170 264l130 124q26 -62 77 -116q98 -100 236 -100q141 0 239.5 100.5t98.5 236.5q0 140 -98.5 239.5t-239.5 99.5q-138 0 -236 -101q-51 -51 -77 -113l-130 120q34 61 87 114q147 149 356 149q213 0 361 -148t148 -360q0 -136 -84 -281q-27 -41 -65 -79 q-147 -147 -360 -147q-155 0 -276 81v-558q0 -127 79.5 -211t198.5 -84v-169q-202 0 -323.5 128t-121.5 322v753zM438 -487q0 170 128 333q44 44 110 74l80 -145q-48 -20 -88 -57v2q-73 -101 -73 -207q0 -44 10 -81.5t28 -66.5q13 69 65 112h-2q65 69 159 69q92 0 157 -69 h-2q50 -46 64 -112q42 63 42 148q0 56 -21 106t-59 101q-24 24 -56 41q-14 8 -30 15l83 141q66 -32 116 -81v-3q123 -141 123 -320t-125 -308h2q-125 -123 -294 -123q-175 0 -296 123q-121 127 -121 308zM785 -687q0 -27 24 -56v2q10 -11 31 -15q24 -5 49 0q9 2 22 15 q25 27 25 54q0 36 -22.5 57.5t-53.5 21.5q-28 0 -51.5 -21.5t-23.5 -57.5z" />
<glyph unicode="&#x1009;&#x1039;&#x105c;" horiz-adv-x="1239" d="M170 264l128 124q28 -62 79 -116q98 -100 236 -100q141 0 239 100.5t98 236.5q0 140 -98 239.5t-239 99.5q-138 0 -236 -101q-51 -51 -79 -113l-128 120q33 61 87 114q147 149 356 149q213 0 361 -148t148 -360q0 -136 -85 -281q-26 -41 -64 -79q-147 -147 -360 -147 q-156 0 -276 81v-558q0 -127 79.5 -211t198.5 -84v-169q-202 0 -323.5 128t-121.5 322v753zM436 -486q0 85 32.5 159.5t87.5 129.5t128 87.5t159 32.5q84 0 158.5 -32.5t131 -87.5t88.5 -129.5t32 -159.5t-32 -160t-88.5 -130.5t-131 -87.5t-158.5 -32q-86 0 -159 32 t-128 87.5t-87.5 130.5t-32.5 160zM587 -490q0 -54 21 -100.5t55 -81t81 -55t100 -20.5q52 0 99 20.5t82.5 55t55 81t19.5 100.5q0 52 -19.5 98.5t-55 82t-82.5 55t-99 19.5q-53 0 -100 -19.5t-81 -55t-55 -82t-21 -98.5zM679 -488q0 71 48.5 120.5t118.5 49.5 q69 0 118 -49.5t49 -120.5q0 -68 -49 -117t-118 -49q-70 0 -118.5 49t-48.5 117zM776 -488q0 -29 20.5 -49.5t49.5 -20.5t51.5 20.5t22.5 49.5q0 31 -22.5 52t-51.5 21t-49.5 -21t-20.5 -52z" />
<glyph unicode="&#x1009;&#x1039;&#x1075;" horiz-adv-x="1239" d="M170 264l128 124q28 -62 79 -116q98 -100 236 -100q141 0 239 100.5t98 236.5q0 140 -98 239.5t-239 99.5q-138 0 -236 -101q-51 -51 -79 -113l-128 120q33 61 87 114q147 149 356 149q213 0 361 -148t148 -360q0 -136 -85 -281q-26 -41 -64 -79q-147 -147 -360 -147 q-156 0 -276 81v-558q0 -127 79.5 -211t198.5 -84v-169q-202 0 -323.5 128t-121.5 322v753zM479 -486q0 86 31 157t88 130q121 117 297 117q169 0 294 -117h-2q125 -121 125 -287q0 -169 -123 -302q-40 -36 -85 -62.5t-99 -42.5l-57 145q40 11 72 28.5t57 39.5v-2 q36 47 56 94.5t20 101.5q0 100 -76 179q-80 73 -182 73q-108 0 -184 -73q-30 -27 -47 -60t-24 -70q206 -62 196 -222l-4 -37q-5 -23 -9.5 -43.5t-12.5 -32.5q-11 -35 -43.5 -63t-79.5 -44l-76 -11q-75 11 -118 34l40 152q8 -5 19.5 -14t21.5 -13l54 -2q45 -2 55 60 q-5 72 -66 86l-133 35l-5 58v8z" />
<glyph unicode="&#x1009;&#x1039;&#x1051;" horiz-adv-x="1239" d="M170 264l128 124q28 -62 79 -116q98 -100 236 -100q141 0 239 100.5t98 236.5q0 140 -98 239.5t-239 99.5q-138 0 -236 -101q-51 -51 -79 -113l-128 120q33 61 87 114q147 149 356 149q213 0 361 -148t148 -360q0 -136 -85 -281q-26 -41 -64 -79q-147 -147 -360 -147 q-156 0 -276 81v-558q0 -127 79.5 -211t198.5 -84v-169q-202 0 -323.5 128t-121.5 322v753zM442 -474q0 136 79 241t204 146l62 -148q-81 -22 -135 -89t-54 -154q0 -52 21 -99.5t56.5 -82t83.5 -55.5t103 -21q53 0 100.5 21t84 55.5t56.5 82t20 99.5q0 87 -50.5 152 t-132.5 89l56 148q125 -42 205 -145.5t80 -239.5q0 -85 -33 -159.5t-90.5 -130.5t-134 -88.5t-164.5 -32.5q-87 0 -162.5 32.5t-132 88.5t-89.5 130.5t-33 159.5zM762 -476q0 -46 31 -76.5t75 -30.5q43 0 76 30.5t33 76.5q0 41 -33 72t-76 31q-44 0 -75 -31t-31 -72z" />
<glyph unicode="&#x1009;&#x1039;&#x1050;" horiz-adv-x="1239" d="M170 264l128 124q28 -62 79 -116q98 -100 236 -100q141 0 239 100.5t98 236.5q0 140 -98 239.5t-239 99.5q-138 0 -236 -101q-51 -51 -79 -113l-128 120q33 61 87 114q147 149 356 149q213 0 361 -148t148 -360q0 -136 -85 -281q-26 -41 -64 -79q-147 -147 -360 -147 q-156 0 -276 81v-558q0 -127 79.5 -211t198.5 -84v-169q-202 0 -323.5 128t-121.5 322v753zM452 -498q0 86 33 160t89.5 130t132 88.5t162.5 32.5q88 0 164.5 -32.5t134 -88.5t90.5 -130t33 -160q0 -136 -80 -239.5t-205 -144.5l-56 147q82 25 132.5 90t50.5 152 q0 51 -20 99t-56.5 82.5t-84 55t-100.5 20.5q-55 0 -103 -20.5t-83.5 -55t-56.5 -82.5t-21 -99q0 -87 54 -154.5t135 -89.5l-62 -148q-125 42 -204 146.5t-79 240.5zM772 -495q0 -42 31 -72.5t75 -30.5q43 0 76 30.5t33 72.5q0 46 -33 76t-76 30q-44 0 -75 -30t-31 -76z" />
<glyph unicode="&#x1009;&#x1039;&#x1076;" horiz-adv-x="1239" d="M170 264l128 124q28 -62 79 -116q98 -100 236 -100q141 0 239 100.5t98 236.5q0 140 -98 239.5t-239 99.5q-138 0 -236 -101q-51 -51 -79 -113l-128 120q33 61 87 114q147 149 356 149q213 0 361 -148t148 -360q0 -136 -85 -281q-26 -41 -64 -79q-147 -147 -360 -147 q-156 0 -276 81v-558q0 -127 79.5 -211t198.5 -84v-169q-202 0 -323.5 128t-121.5 322v753zM500 -619q0 44 17.5 84t46.5 70t68.5 46.5t86.5 16.5q98 0 162.5 -63.5t64.5 -153.5q0 -70 -42 -130q92 8 159 75q78 77 78 190q0 104 -78 182q-75 71 -164 76q-17 -80 -68.5 -117 t-137.5 -39q-101 10 -144 61t-43 132q0 46 17 115l152 -12q-18 -67 -18 -95q0 -53 40 -65q33 1 51.5 39.5t13.5 120.5q55 15 112 17h17q165 -5 284 -120q127 -124 127 -295q0 -90 -32 -163.5t-93 -137.5q-123 -123 -303 -123q-164 0 -293 117q-11 3 -19 12q-62 73 -62 160z M645 -616q0 -31 24 -53.5t54 -22.5q34 0 57.5 22.5t23.5 53.5q0 34 -23.5 57.5t-57.5 23.5q-30 0 -54 -23.5t-24 -57.5z" />
<glyph unicode="&#x1009;&#x1039;&#x100b;" horiz-adv-x="1239" d="M170 264l128 124q28 -62 79 -116q98 -100 236 -100q141 0 239 100.5t98 236.5q0 140 -98 239.5t-239 99.5q-138 0 -236 -101q-51 -51 -79 -113l-128 120q33 61 87 114q147 149 356 149q213 0 361 -148t148 -360q0 -136 -85 -281q-26 -41 -64 -79q-147 -147 -360 -147 q-156 0 -276 81v-558q0 -127 79.5 -211t198.5 -84v-169q-202 0 -323.5 128t-121.5 322v753zM486 -328q0 58 26 111.5t72 95.5q50 38 106.5 59.5t121.5 21.5q69 0 124.5 -20.5t105.5 -60.5q15 -15 32.5 -37.5t39.5 -53.5l-124 -96q-15 25 -28.5 42t-30.5 30q-46 46 -119 46 q-69 0 -117 -42.5t-48 -95.5t48 -94.5t117 -41.5q35 0 67 13.5t52 31.5q11 8 25.5 27t29.5 53l116 -89q-12 -58 -55.5 -98t-102.5 -70q-29 -11 -60.5 -14t-71.5 -3q-132 0 -236 82q-9 9 -18.5 19t-19.5 23q-21 36 -35.5 76t-16.5 85zM536 -584q134 -98 293 -98q115 0 209 60 l116 -69v-134h106v-147h-262l-2 160q-35 -10 -79 -15.5t-88 -5.5q-68 0 -132.5 14t-114.5 37h2l-48 19v179z" />
<glyph unicode="&#x1009;&#x1039;&#x100d;" horiz-adv-x="1239" d="M170 264l128 124q28 -62 79 -116q98 -100 236 -100q141 0 239 100.5t98 236.5q0 140 -98 239.5t-239 99.5q-138 0 -236 -101q-51 -51 -79 -113l-128 120q33 61 87 114q147 149 356 149q213 0 361 -148t148 -360q0 -136 -85 -281q-26 -41 -64 -79q-147 -147 -360 -147 q-156 0 -276 81v-558q0 -127 79.5 -211t198.5 -84v-169q-202 0 -323.5 128t-121.5 322v753zM512 -224q21 31 37 53.5t31 37.5q46 41 97.5 61t117.5 20q59 0 111.5 -21.5t99.5 -59.5q43 -42 67 -95.5t24 -111.5q-2 -44 -14.5 -84.5t-33.5 -76.5q-9 -13 -18 -23t-18 -18 q-97 -83 -218 -83q-37 0 -67.5 3t-56.5 14v-30q55 -23 126 -23q106 0 194 60l108 -69v-134h99v-147h-244l-2 160q-32 -11 -73 -16t-82 -5q-64 0 -124 14t-106 37h2l-45 19v302l108 89q13 -33 27 -52t24 -28q18 -18 48 -31.5t64 -13.5q63 0 108 41.5t45 94.5q0 54 -45 96.5 t-108 42.5q-69 0 -112 -47q-16 -13 -28.5 -30t-26.5 -42z" />
<glyph unicode="&#xd;" horiz-adv-x="508" />
<glyph unicode=" "  horiz-adv-x="508" />
<glyph unicode="&#x09;" horiz-adv-x="508" />
<glyph unicode="&#xa0;" horiz-adv-x="508" />
<glyph unicode="!" horiz-adv-x="752" d="M255 97q0 49 35 84.5t87 35.5q50 0 85 -35.5t35 -84.5q0 -53 -35 -88t-85 -35q-52 0 -87 35t-35 88zM257 1366h237l-61 -752v-231h-114v231z" />
<glyph unicode="&#x22;" horiz-adv-x="860" d="M184 857v509h147v-509h-147zM532 857v509h147v-509h-147z" />
<glyph unicode="#" horiz-adv-x="1568" d="M143 377v141h319l76 307h-289v140h324l94 381h158l-94 -381h258l94 381h158l-97 -381h281v-140h-316l-76 -307h286v-141h-321l-94 -377h-158l97 377h-258l-96 -377h-155l93 377h-284zM617 518h261l76 307h-261z" />
<glyph unicode="$" horiz-adv-x="1191" d="M158 843q0 146 101 235t279 101v243h94v-243q91 -9 177 -31t165 -60v-240h-96q-12 106 -75 167.5t-171 69.5v-412q222 -62 313 -141t91 -213q0 -149 -105.5 -241.5t-298.5 -106.5v-246h-94v246q-87 3 -181 26t-196 67v255h99q3 -126 73.5 -190.5t204.5 -67.5v445 q-207 59 -293.5 135t-86.5 202zM339 901q0 -70 48.5 -120t150.5 -79v383q-93 -5 -146 -53.5t-53 -130.5zM632 61q102 9 156.5 60.5t54.5 135.5q0 79 -53 135t-158 85v-416z" />
<glyph unicode="%" horiz-adv-x="1779" d="M102 1018q0 170 85 271t231 101q144 0 230 -101t86 -271q0 -172 -84.5 -271.5t-231.5 -99.5q-146 0 -231 99.5t-85 271.5zM249 1018q0 -137 45 -213t124 -76t124.5 76t45.5 213q0 135 -45.5 211t-124.5 76t-124 -76t-45 -211zM392 -26l854 1416h141l-855 -1416h-140z M1044 345q0 173 85 272.5t231 99.5q147 0 231.5 -101t84.5 -271q0 -169 -84.5 -270t-231.5 -101q-146 0 -231 101t-85 270zM1191 345q0 -134 45 -210t124 -76t124.5 76t45.5 210q0 135 -45.5 212.5t-124.5 77.5t-124 -77.5t-45 -212.5z" />
<glyph unicode="&#x26;" horiz-adv-x="1668" d="M135 421q0 123 68.5 228.5t211.5 196.5q-46 55 -68 110.5t-22 117.5q0 146 105 231t284 85q64 0 144.5 -15t185.5 -47v-237h-102q-15 97 -72 149.5t-159 52.5q-94 0 -152.5 -52.5t-58.5 -134.5q0 -56 31 -111.5t130 -157.5l471 -498q65 74 100 158.5t44 181.5h-164v96 h433v-96h-158q-15 -120 -60.5 -224t-121.5 -192l158 -166h217v-97h-369l-126 132q-93 -79 -203 -118.5t-235 -39.5q-237 0 -374.5 121.5t-137.5 325.5zM319 442q0 -152 105.5 -254.5t263.5 -102.5q93 0 175 32t149 94l-532 561q-82 -73 -121.5 -155t-39.5 -175z" />
<glyph unicode="'" horiz-adv-x="515" d="M184 857v509h147v-509h-147z" />
<glyph unicode="(" horiz-adv-x="731" d="M149 565q0 327 112.5 542t335.5 315v-88q-141 -99 -202 -274.5t-61 -494.5t61 -494.5t202 -272.5v-91q-223 100 -335.5 316.5t-112.5 541.5z" />
<glyph unicode=")" horiz-adv-x="731" d="M132 -202q140 97 203 272.5t63 494.5t-63 494.5t-203 274.5v88q225 -100 337.5 -315t112.5 -542q0 -325 -112.5 -541.5t-337.5 -316.5v91z" />
<glyph unicode="*" horiz-adv-x="936" d="M29 796l357 167l-357 169l70 109l319 -199l-11 348h123l-12 -348l319 199l70 -109l-357 -167l357 -169l-70 -108l-319 198l12 -348h-123l11 348l-319 -198z" />
<glyph unicode="+" horiz-adv-x="1568" d="M199 512v149h512v512h146v-512h512v-149h-512v-512h-146v512h-512z" />
<glyph unicode="," horiz-adv-x="597" d="M67 -181q85 64 126 149t41 208v32h179q-6 -158 -73.5 -269.5t-199.5 -193.5z" />
<glyph unicode="-" horiz-adv-x="632" d="M82 430v143h468v-143h-468z" />
<glyph unicode="." horiz-adv-x="597" d="M176 97q0 49 35 84.5t87 35.5q50 0 85 -35.5t35 -84.5q0 -53 -35 -88t-85 -35q-52 0 -87 35t-35 88z" />
<glyph unicode="/" horiz-adv-x="632" d="M0 -176l486 1542h146l-486 -1542h-146z" />
<glyph unicode="0" horiz-adv-x="1191" d="M123 682q0 336 124.5 522t349.5 186q222 0 346.5 -186t124.5 -522q0 -337 -124.5 -522.5t-346.5 -185.5q-225 0 -349.5 185.5t-124.5 522.5zM316 682q0 -310 70 -464t211 -154q140 0 209 154t69 464t-69 463.5t-209 153.5q-141 0 -211 -153.5t-70 -463.5z" />
<glyph unicode="1" horiz-adv-x="1191" d="M228 1053v120l334 217h126v-1293h237v-97h-659v97h237v1135z" />
<glyph unicode="2" horiz-adv-x="1191" d="M129 0v99l412 413q138 138 196.5 253.5t58.5 240.5q0 138 -72 215.5t-197 77.5q-132 0 -203.5 -64.5t-83.5 -195.5h-102v242q96 53 195.5 81t193.5 28q213 0 337.5 -104t124.5 -280q0 -201 -281 -479q-20 -21 -32 -33l-345 -345h570v170h105v-319h-877z" />
<glyph unicode="3" horiz-adv-x="1191" d="M143 64v267h103q9 -132 88 -199.5t225 -67.5q140 0 220.5 80.5t80.5 221.5q0 161 -83.5 244t-244.5 83h-87v94h47q160 0 239 66t79 200q0 120 -65.5 183t-188.5 63t-192 -58.5t-80 -172.5h-103v240q109 41 207 61.5t183 20.5q201 0 312.5 -86.5t111.5 -238.5 q0 -126 -77.5 -208t-218.5 -111q167 -26 260.5 -124t93.5 -253q0 -191 -128.5 -293t-371.5 -102q-105 0 -207.5 22t-202.5 68z" />
<glyph unicode="4" horiz-adv-x="1191" d="M59 366v99l596 925h182v-928h260v-96h-260v-269h219v-97h-623v97h219v269h-593zM187 462h465v726z" />
<glyph unicode="5" horiz-adv-x="1191" d="M158 64v267h105q9 -132 82 -199.5t208 -67.5q146 0 223.5 95.5t77.5 273.5t-77.5 272t-223.5 94q-82 0 -145 -29.5t-110 -90.5h-79v687h723v-152h-626v-389q47 32 111.5 48t143.5 16q219 0 347.5 -122.5t128.5 -333.5q0 -216 -130 -337.5t-364 -121.5q-94 0 -192 22 t-203 68z" />
<glyph unicode="6" horiz-adv-x="1191" d="M126 638q0 357 146 554.5t416 197.5q73 0 152 -13.5t161 -42.5v-222h-103q-12 90 -70.5 138.5t-160.5 48.5q-175 0 -263 -134.5t-88 -412.5q61 67 138.5 100.5t177.5 33.5q205 0 323.5 -121t118.5 -335q0 -208 -127.5 -332t-340.5 -124q-232 0 -356 172.5t-124 491.5z M345 442q0 -182 69 -280t197 -98q129 0 199.5 94t70.5 272q0 179 -70.5 274t-199.5 95q-131 0 -198.5 -92.5t-67.5 -264.5z" />
<glyph unicode="7" horiz-adv-x="1191" d="M158 1047v319h898v-93l-532 -1273h-138l509 1214h-632v-167h-105z" />
<glyph unicode="8" horiz-adv-x="1191" d="M126 372q0 146 86 239.5t244 114.5q-140 26 -213 106.5t-73 203.5q0 164 114 259t313 95q196 0 310 -95t114 -259q0 -123 -74.5 -203.5t-209.5 -106.5q155 -21 241.5 -114.5t86.5 -239.5q0 -191 -121.5 -294.5t-346.5 -103.5q-228 0 -349.5 103.5t-121.5 294.5zM319 372 q0 -147 73 -227.5t205 -80.5q129 0 202 80.5t73 227.5q0 146 -73 228t-202 82q-132 0 -205 -82t-73 -228zM357 1036q0 -126 63 -195t177 -69q111 0 174 69t63 195t-63 194.5t-174 68.5q-114 0 -177 -68.5t-63 -194.5z" />
<glyph unicode="9" horiz-adv-x="1191" d="M117 933q0 208 127.5 332.5t340.5 124.5q234 0 357 -173t123 -491q0 -360 -146.5 -556t-415.5 -196q-73 0 -152 13t-161 42v226h103q11 -91 71 -141t160 -50q175 0 261.5 133.5t92.5 413.5q-65 -67 -144 -100.5t-178 -33.5q-205 0 -322 121.5t-117 334.5zM310 933 q0 -178 70.5 -273t198.5 -95q129 0 198 92t69 265q0 181 -69 279t-198 98q-128 0 -198.5 -93.5t-70.5 -272.5z" />
<glyph unicode=":" horiz-adv-x="632" d="M196 97q0 49 35 84.5t85 35.5t86.5 -35.5t36.5 -84.5q0 -53 -35 -88t-88 -35t-86.5 35t-33.5 88zM196 690q0 50 35 86.5t85 36.5q53 0 88 -35t35 -88q0 -52 -35 -85.5t-88 -33.5q-50 0 -85 35t-35 84z" />
<glyph unicode=";" horiz-adv-x="632" d="M67 -181q85 64 126 149t41 208v32h179q-6 -158 -73.5 -269.5t-199.5 -193.5zM199 690q0 50 35 86.5t85 36.5q53 0 88 -36.5t35 -86.5q0 -49 -35 -84t-88 -35q-50 0 -85 35t-35 84z" />
<glyph unicode="&#x3c;" horiz-adv-x="1568" d="M199 512v152l1170 424v-155l-948 -348l948 -342v-158z" />
<glyph unicode="=" horiz-adv-x="1568" d="M199 328v146h1170v-146h-1170zM199 699v147h1170v-147h-1170z" />
<glyph unicode="&#x3e;" horiz-adv-x="1568" d="M199 85v158l948 342l-948 348v155l1170 -424v-152z" />
<glyph unicode="?" horiz-adv-x="1004" d="M129 1068v237q96 44 182.5 64.5t165.5 20.5q202 0 319 -98t117 -265q0 -170 -101 -276.5t-306 -153.5v-234h-111v301q161 38 243 130t82 236q0 126 -67.5 197.5t-181.5 71.5q-105 0 -171 -60t-83 -171h-88zM331 97q0 49 33.5 84.5t86.5 35.5q52 0 87 -35.5t35 -84.5 q0 -53 -35 -88t-87 -35q-53 0 -86.5 35t-33.5 88z" />
<glyph unicode="@" horiz-adv-x="1872" d="M123 497q0 167 61.5 316.5t178.5 266.5q117 114 273.5 176.5t334.5 62.5q196 0 357 -76t272 -219q68 -91 104.5 -194.5t36.5 -218.5q0 -245 -149.5 -387t-409.5 -145v146q-53 -73 -120 -109.5t-152 -36.5q-161 0 -260.5 114t-99.5 299q0 181 99.5 295t260.5 114 q85 0 152 -35t120 -111v129h143v-706q155 33 241.5 147t86.5 286q0 103 -30.5 193.5t-92.5 166.5q-96 123 -236.5 187.5t-301.5 64.5q-85 0 -165.5 -17.5t-159.5 -52.5q-184 -85 -286.5 -257.5t-102.5 -398.5q0 -152 47 -282t131 -224q100 -108 237.5 -165t295.5 -57 q117 0 219.5 35t189.5 105l50 -64q-99 -85 -225 -127.5t-275 -42.5q-167 0 -319 60t-266 174q-117 114 -178.5 265t-61.5 323zM714 492q0 -147 61.5 -227.5t172.5 -80.5q105 0 169.5 73.5t64.5 187.5v93q0 114 -64.5 186t-169.5 72q-111 0 -172.5 -80.5t-61.5 -223.5z" />
<glyph unicode="A" horiz-adv-x="1352" d="M-12 0v97h120l489 1269h152l486 -1269h134v-97h-494v97h152l-114 301h-577l-114 -301h150v-97h-384zM374 494h504l-252 650z" />
<glyph unicode="B" horiz-adv-x="1375" d="M102 0v97h176v1170h-176v99h676q205 0 310.5 -84.5t105.5 -254.5q0 -120 -73.5 -193t-213.5 -88q176 -23 265 -112.5t89 -238.5q0 -202 -127.5 -298.5t-399.5 -96.5h-632zM462 97h275q164 0 240 71.5t76 226.5t-76 225t-240 70h-275v-593zM462 787h231q153 0 221.5 57 t68.5 183t-68.5 183t-221.5 57h-231v-480z" />
<glyph unicode="C" horiz-adv-x="1434" d="M105 682q0 319 183 513.5t484 194.5q114 0 238.5 -29.5t270.5 -87.5v-316h-102q-32 172 -134.5 254t-286.5 82q-220 0 -331 -156.5t-111 -454.5q0 -299 111 -455.5t331 -156.5q152 0 251.5 73.5t143.5 219.5h166q-58 -193 -201.5 -291t-359.5 -98q-135 0 -249 45 t-202 133q-102 105 -152 235.5t-50 294.5z" />
<glyph unicode="D" horiz-adv-x="1501" d="M102 0v97h176v1170h-176v99h545q354 0 550 -180t196 -501q0 -322 -197.5 -503.5t-548.5 -181.5h-545zM462 97h170q266 0 408 152t142 436q0 283 -142 432.5t-408 149.5h-170v-1170z" />
<glyph unicode="E" horiz-adv-x="1366" d="M102 0v97h176v1170h-176v99h1100v-304h-114v190h-626v-456h448v169h111v-453h-111v173h-448v-574h644v193h111v-304h-1115z" />
<glyph unicode="F" horiz-adv-x="1299" d="M102 0v97h176v1170h-176v99h1118v-304h-111v190h-647v-456h465v169h115v-453h-115v173h-465v-588h220v-97h-580z" />
<glyph unicode="G" horiz-adv-x="1495" d="M105 682q0 324 186 516t502 192q117 0 243 -28t266 -81v-324h-102q-33 172 -134 254t-282 82q-237 0 -352.5 -152t-115.5 -459q0 -302 118.5 -457t352.5 -155q102 0 197.5 26.5t177.5 79.5v351h-255v96h442v-509q-123 -70 -263.5 -105t-298.5 -35q-310 0 -496 193 t-186 515z" />
<glyph unicode="H" horiz-adv-x="1633" d="M102 0v97h176v1170h-176v99h536v-99h-176v-471h708v471h-175v99h535v-99h-175v-1170h175v-97h-535v97h175v588h-708v-588h176v-97h-536z" />
<glyph unicode="I" horiz-adv-x="740" d="M102 0v97h176v1170h-176v99h536v-99h-176v-1170h176v-97h-536z" />
<glyph unicode="J" horiz-adv-x="752" d="M-158 -111h105q3 -91 42.5 -136.5t121.5 -45.5q108 0 150.5 69t42.5 268v1223h-210v99h570v-99h-172v-1229q0 -228 -91 -327.5t-293 -99.5q-64 0 -131.5 16t-134.5 45v217z" />
<glyph unicode="K" horiz-adv-x="1398" d="M102 0v97h176v1170h-176v99h536v-99h-176v-515l588 515h-149v99h454v-99h-153l-585 -515l656 -655h155v-97h-316l-650 647v-550h176v-97h-536z" />
<glyph unicode="L" horiz-adv-x="1243" d="M102 0v97h176v1170h-176v99h536v-99h-176v-1156h623v228h115v-339h-1098z" />
<glyph unicode="M" horiz-adv-x="1916" d="M94 1267v99h398l479 -974l477 974h375v-99h-182v-1170h173v-97h-533v97h173v1056l-468 -954h-129l-468 954v-1056h176v-97h-463v97h176v1170h-184z" />
<glyph unicode="N" horiz-adv-x="1638" d="M91 0v97h184v1170h-184v99h351l819 -1076v977h-184v99h479v-99h-184v-1293h-111l-875 1149v-1026h185v-97h-480z" />
<glyph unicode="O" horiz-adv-x="1536" d="M105 682q0 164 50 294t152 232q91 91 205 136.5t255 45.5q298 0 481 -194.5t183 -513.5q0 -164 -51.5 -295.5t-150.5 -234.5q-91 -88 -206.5 -133t-255.5 -45q-138 0 -255 45t-205 133q-102 105 -152 234t-50 296zM316 682q0 -302 114 -457t337 -155q225 0 339 155 t114 457q0 301 -114 456t-339 155q-223 0 -337 -155t-114 -456z" />
<glyph unicode="P" horiz-adv-x="1261" d="M102 0v97h176v1170h-176v99h647q205 0 325 -103.5t120 -282.5q0 -175 -120 -279t-325 -104h-287v-500h211v-97h-571zM462 693h243q135 0 206.5 75t71.5 212q0 141 -71.5 214t-206.5 73h-243v-574z" />
<glyph unicode="Q" horiz-adv-x="1536" d="M105 682q0 164 50 294t152 232q91 91 205 136.5t255 45.5q298 0 481 -194.5t183 -513.5q0 -272 -136 -456.5t-379 -237.5q49 -61 119.5 -90.5t169.5 -29.5h30v-166q-155 5 -265 74t-180 198q-313 0 -499 191.5t-186 516.5zM316 682q0 -302 114 -457t337 -155 q225 0 339 155t114 457q0 301 -114 456t-339 155q-223 0 -337 -155t-114 -456z" />
<glyph unicode="R" horiz-adv-x="1410" d="M102 0v97h176v1170h-176v99h694q199 0 307 -96.5t108 -268.5q0 -141 -79 -221.5t-234 -100.5q62 -18 108.5 -60.5t81.5 -115.5l199 -406h167v-97h-322l-213 433q-62 126 -111.5 164t-140.5 38h-205v-538h193v-97h-553zM462 731h269q141 0 205.5 66t64.5 204 q0 134 -64.5 200t-205.5 66h-269v-536z" />
<glyph unicode="S" horiz-adv-x="1281" d="M158 1024q0 176 123 271t345 95q97 0 209.5 -20.5t241.5 -61.5v-290h-103q-14 144 -96 209.5t-246 65.5q-146 0 -221 -60t-75 -171q0 -97 57.5 -154t238.5 -109l170 -53q184 -56 264.5 -142t80.5 -232q0 -196 -127.5 -297t-378.5 -101q-114 0 -231 22t-234 68v313h102 q6 -155 92 -231t259 -76q164 0 249 64.5t85 190.5q0 99 -51.5 150.5t-218.5 103.5l-181 53q-196 61 -275 149t-79 243z" />
<glyph unicode="T" horiz-adv-x="1249" d="M18 1042v324h1211v-324h-111v213h-401v-1158h175v-97h-535v97h175v1158h-400v-213h-114z" />
<glyph unicode="U" horiz-adv-x="1580" d="M88 1267v99h532v-99h-172v-705q0 -264 84.5 -366t295.5 -102t295.5 102t84.5 366v705h-175v99h462v-99h-176v-723q0 -313 -119.5 -441.5t-406.5 -128.5t-408.5 130t-121.5 440v723h-175z" />
<glyph unicode="V" horiz-adv-x="1352" d="M-18 1267v99h498v-99h-152l403 -1048l401 1048h-152v99h401v-99h-135l-485 -1267h-158l-486 1267h-135z" />
<glyph unicode="W" horiz-adv-x="1925" d="M9 1267v99h497v-99h-170l284 -1010l313 1109h147l316 -1120l286 1021h-155v99h392v-99h-134l-357 -1267h-152l-311 1112l-313 -1112h-149l-360 1267h-134z" />
<glyph unicode="X" horiz-adv-x="1334" d="M12 0v97h158l392 573l-398 597h-146v99h541v-99h-161l292 -439l302 439h-179v99h448v-99h-152l-363 -527l433 -643h143v-97h-538v97h161l-325 488l-333 -488h175v-97h-450z" />
<glyph unicode="Y" horiz-adv-x="1235" d="M-20 1267v99h506v-99h-158l339 -553l342 553h-155v99h398v-99h-129l-409 -661v-509h172v-97h-532v97h173v491l-422 679h-125z" />
<glyph unicode="Z" horiz-adv-x="1302" d="M85 0v64l848 1188h-705v-205h-111v319h1077v-67l-849 -1188h770v193h114v-304h-1144z" />
<glyph unicode="[" horiz-adv-x="731" d="M161 -246v1668h424v-97h-249v-1474h249v-97h-424z" />
<glyph unicode="\" horiz-adv-x="632" d="M0 1366h146l486 -1542h-146z" />
<glyph unicode="]" horiz-adv-x="731" d="M143 -149h252v1474h-252v97h428v-1668h-428v97z" />
<glyph unicode="^" horiz-adv-x="1568" d="M199 854l494 512h182l494 -512h-140l-445 351l-445 -351h-140z" />
<glyph unicode="_" horiz-adv-x="936" d="M0 -369h936v-73h-936v73z" />
<glyph unicode="`" horiz-adv-x="936" d="M155 1495h181l237 -342h-108z" />
<glyph unicode="a" horiz-adv-x="1115" d="M94 293q0 149 108 232.5t307 83.5h237v67q0 111 -67.5 171t-189.5 60q-100 0 -160 -45.5t-74 -135.5h-85v199q87 35 169 54t161 19q202 0 307.5 -99.5t105.5 -292.5v-509h152v-97h-319v105q-56 -67 -129 -99t-172 -32q-161 0 -256 86t-95 233zM281 293q0 -103 61.5 -163 t169.5 -60q105 0 169.5 64.5t64.5 169.5v208h-219q-123 0 -184.5 -54t-61.5 -165z" />
<glyph unicode="b" horiz-adv-x="1200" d="M56 0v97h161v1228h-161v97h327v-603q50 94 126 136.5t190 42.5q179 0 293 -142t114 -370q0 -229 -114 -370.5t-293 -141.5q-114 0 -190 42.5t-126 135.5v-152h-327zM383 439q0 -176 67.5 -268t196.5 -92q128 0 194 102.5t66 304.5q0 204 -66 305t-194 101 q-129 0 -196.5 -92t-67.5 -268v-93z" />
<glyph unicode="c" horiz-adv-x="1047" d="M94 486q0 234 128.5 373t342.5 139q90 0 182.5 -22t182.5 -63v-249h-96q-21 126 -85 184.5t-184 58.5q-135 0 -205 -105.5t-70 -315.5q0 -211 70 -316.5t205 -105.5q108 0 174 57t89 172h135q-36 -155 -136.5 -237t-261.5 -82q-214 0 -342.5 140.5t-128.5 371.5z" />
<glyph unicode="d" horiz-adv-x="1200" d="M94 486q0 228 112.5 370t293.5 142q111 0 189 -42.5t124 -136.5v506h-158v97h328v-1325h161v-97h-331v152q-46 -93 -124 -135.5t-189 -42.5q-181 0 -293.5 141.5t-112.5 370.5zM290 486q0 -202 67 -304.5t196 -102.5q126 0 193 92t67 268v93q0 176 -67 268t-193 92 q-129 0 -196 -101t-67 -305z" />
<glyph unicode="e" horiz-adv-x="1109" d="M94 486q0 231 127 371.5t332 140.5q222 0 340.5 -136t121.5 -394h-725v-9q0 -196 74.5 -295.5t217.5 -99.5q111 0 181.5 57t99.5 172h135q-38 -158 -148 -238.5t-285 -80.5q-214 0 -342.5 140.5t-128.5 371.5zM290 565h526q-6 172 -71.5 257t-191.5 85 q-114 0 -181.5 -86.5t-81.5 -255.5z" />
<glyph unicode="f" horiz-adv-x="693" d="M67 0v97h161v778h-161v96h161v123q0 161 85 244.5t249 83.5q61 0 122.5 -10.5t120.5 -33.5v-184h-88q-3 67 -39.5 103.5t-109.5 36.5q-94 0 -132 -52.5t-38 -184.5v-126h269v-96h-269v-778h213v-97h-544z" />
<glyph unicode="g" horiz-adv-x="1200" d="M94 486q0 228 112.5 370t293.5 142q111 0 189 -42.5t124 -136.5v152h331v-96h-161v-855q0 -210 -115.5 -322.5t-329.5 -112.5q-93 0 -181 16t-170 54v202h88q18 -94 78 -138t174 -44q149 0 217.5 83.5t68.5 261.5v132q-46 -93 -124 -135.5t-189 -42.5 q-181 0 -293.5 141.5t-112.5 370.5zM290 486q0 -202 67 -304.5t196 -102.5q126 0 193 92t67 268v93q0 176 -67 268t-193 92q-129 0 -196 -101t-67 -305z" />
<glyph unicode="h" horiz-adv-x="1205" d="M67 1325v97h331v-623q47 99 120 149t172 50q161 0 237.5 -92.5t76.5 -288.5v-520h149v-97h-463v97h144v468q0 178 -44 244t-152 66q-120 0 -180 -85t-60 -249v-444h146v-97h-468v97h152v1228h-161z" />
<glyph unicode="i" horiz-adv-x="600" d="M67 0v97h161v778h-161v96h331v-874h158v-97h-489zM181 1273q0 44 31 74.5t75 30.5q41 0 71.5 -30.5t30.5 -74.5t-29 -73.5t-73 -29.5t-75 29.5t-31 73.5z" />
<glyph unicode="j" horiz-adv-x="579" d="M-178 -155h84q9 -88 47 -129t111 -41q85 0 124.5 55.5t39.5 172.5v972h-158v96h328v-1068q0 -149 -89.5 -233.5t-247.5 -84.5q-64 0 -124 14.5t-115 43.5v202zM187 1273q0 44 31 74.5t75 30.5q41 0 71.5 -30.5t30.5 -74.5t-29.5 -73.5t-72.5 -29.5q-44 0 -75 29.5 t-31 73.5z" />
<glyph unicode="k" horiz-adv-x="1135" d="M56 1325v97h327v-925l410 378h-141v96h442v-96h-167l-289 -269l368 -509h141v-97h-480v97h140l-289 400l-135 -125v-275h152v-97h-471v97h153v1228h-161z" />
<glyph unicode="l" horiz-adv-x="600" d="M56 0v97h161v1228h-161v97h327v-1325h161v-97h-488z" />
<glyph unicode="m" horiz-adv-x="1776" d="M67 878v93h331v-172q47 99 118.5 149t162.5 50q114 0 190 -56t102 -158q47 105 123 159.5t176 54.5q152 0 228 -95.5t76 -285.5v-520h149v-97h-465v97h146v503q0 146 -43.5 210.5t-146.5 64.5q-111 0 -169.5 -85t-58.5 -249v-444h146v-97h-462v97h146v509 q0 146 -43.5 207.5t-146.5 61.5q-111 0 -169.5 -85t-58.5 -249v-444h146v-97h-468v97h152v781h-161z" />
<glyph unicode="n" horiz-adv-x="1205" d="M67 875v96h331v-172q47 99 120 149t172 50q161 0 237.5 -92.5t76.5 -288.5v-520h149v-97h-463v97h144v468q0 178 -44 245.5t-152 67.5q-120 0 -180 -86.5t-60 -250.5v-444h146v-97h-468v97h152v778h-161z" />
<glyph unicode="o" horiz-adv-x="1126" d="M94 486q0 234 128.5 373t342.5 139q213 0 340.5 -139t127.5 -373q0 -231 -127.5 -371.5t-340.5 -140.5q-214 0 -342.5 140.5t-128.5 371.5zM290 486q0 -208 70 -315t205 -107q134 0 203 107t69 315q0 207 -69 314t-203 107q-135 0 -205 -107t-70 -314z" />
<glyph unicode="p" horiz-adv-x="1200" d="M56 -293h161v1168h-161v96h327v-152q50 94 126 136.5t190 42.5q179 0 293 -142t114 -370q0 -229 -114 -370.5t-293 -141.5q-114 0 -190 42.5t-126 135.5v-445h161v-96h-488v96zM383 439q0 -176 67.5 -268t196.5 -92q128 0 194 102.5t66 304.5q0 204 -66 305t-194 101 q-129 0 -196.5 -92t-67.5 -268v-93z" />
<glyph unicode="q" horiz-adv-x="1200" d="M94 486q0 228 112.5 370t293.5 142q111 0 189 -42.5t124 -136.5v152h331v-96h-161v-1168h161v-96h-489v96h158v445q-46 -93 -124 -135.5t-189 -42.5q-181 0 -293.5 141.5t-112.5 370.5zM290 486q0 -202 67 -304.5t196 -102.5q126 0 193 92t67 268v93q0 176 -67 268 t-193 92q-129 0 -196 -101t-67 -305z" />
<glyph unicode="r" horiz-adv-x="895" d="M67 878v93h331v-172q47 102 124.5 150.5t191.5 48.5q41 0 86.5 -6t94.5 -18v-243h-96q-6 74 -41 109t-106 35q-122 0 -188 -86.5t-66 -247.5v-444h193v-97h-515v97h152v781h-161z" />
<glyph unicode="s" horiz-adv-x="960" d="M105 56v225h97q3 -108 68.5 -162.5t188.5 -54.5q114 0 174 42.5t60 124.5q0 62 -43.5 101.5t-184.5 85.5l-120 41q-126 41 -183 101t-57 154q0 132 99.5 208t272.5 76q76 0 161 -19t175 -60v-211h-99q-3 94 -64.5 146.5t-169.5 52.5q-106 0 -160 -36.5t-54 -112.5 q0 -62 41 -98.5t164 -74.5l135 -41q137 -44 198.5 -108t61.5 -167q0 -137 -107 -216t-291 -79q-94 0 -183 19t-180 63z" />
<glyph unicode="t" horiz-adv-x="752" d="M56 875v96h146v302h170v-302h316v-96h-316v-618q0 -125 23 -159t88 -34q67 0 96.5 39.5t31.5 124.5h126q-6 -131 -71.5 -192.5t-197.5 -61.5q-146 0 -206 64t-60 219v618h-146z" />
<glyph unicode="u" horiz-adv-x="1205" d="M50 875v96h322v-564q0 -179 43.5 -244.5t155.5 -65.5q117 0 176.5 86t59.5 250v442h-143v96h313v-874h158v-97h-328v173q-46 -97 -119.5 -148t-169.5 -51q-164 0 -240 92t-76 288v521h-152z" />
<glyph unicode="v" horiz-adv-x="1059" d="M-6 875v96h448v-96h-155l272 -670l275 670h-146v96h365v-96h-108l-360 -875h-123l-357 875h-111z" />
<glyph unicode="w" horiz-adv-x="1603" d="M29 875v96h442v-96h-158l217 -661l251 757h117l249 -757l219 661h-140v96h354v-96h-111l-287 -875h-140l-240 726l-240 -726h-135l-289 875h-109z" />
<glyph unicode="x" horiz-adv-x="1056" d="M23 875v96h433v-96h-117l205 -281l205 281h-132v96h375v-96h-129l-260 -360l304 -418h126v-97h-448v97h123l-211 289l-213 -289h126v-97h-369v97h129l269 368l-296 410h-120z" />
<glyph unicode="y" horiz-adv-x="1059" d="M-6 875v96h448v-96h-155l272 -670l275 670h-146v96h365v-96h-108l-448 -1094q-44 -115 -101 -155.5t-156 -40.5q-44 0 -89.5 7t-91.5 22v184h87q6 -61 32.5 -89t78.5 -28q53 0 84 28t63 113l64 160l-363 893h-111z" />
<glyph unicode="z" horiz-adv-x="986" d="M76 0v79l609 796h-483v-170h-97v266h796v-79l-608 -795h526v175h100v-272h-843z" />
<glyph unicode="{" horiz-adv-x="1191" d="M234 512v94h56q128 0 178 54t50 191v234q0 202 77.5 269.5t305.5 67.5h56v-94h-62q-128 0 -167.5 -41t-39.5 -169v-264q0 -143 -45.5 -206t-165.5 -89q120 -32 165.5 -92t45.5 -204v-263q0 -129 39.5 -170t167.5 -41h62v-93h-56q-228 0 -305.5 67t-77.5 269v237 q0 135 -50 189t-178 54h-56z" />
<glyph unicode="|" horiz-adv-x="632" d="M243 -442v1873h146v-1873h-146z" />
<glyph unicode="}" horiz-adv-x="1191" d="M234 -211h64q129 0 167 41t38 170v263q0 144 45.5 204t165.5 92q-120 26 -165.5 89t-45.5 206v264q0 131 -38 170.5t-167 39.5h-64v94h59q225 0 302.5 -67.5t77.5 -269.5v-234q0 -137 49.5 -191t178.5 -54h56v-94h-56q-129 0 -178.5 -54t-49.5 -189v-237 q0 -202 -77.5 -269t-302.5 -67h-59v93z" />
<glyph unicode="~" horiz-adv-x="1568" d="M199 436v137q91 82 172.5 119t166.5 37q88 0 249 -62l9 -3q9 -3 29 -12q132 -52 219 -52q85 0 165.5 33.5t159.5 103.5v-134q-90 -79 -172 -118.5t-167 -39.5q-88 0 -246 61l-12 3q-8 3 -29 12q-134 52 -219 52t-165.5 -33.5t-159.5 -103.5z" />
<glyph unicode="&#xa1;" horiz-adv-x="752" d="M255 1270q0 52 35 87.5t87 35.5q50 0 85 -37t35 -86q0 -50 -35 -86.5t-85 -36.5q-52 0 -87 36.5t-35 86.5zM257 0l62 752v228h114v-228l61 -752h-237z" />
<glyph unicode="&#xa2;" horiz-adv-x="1191" d="M140 486q0 222 117 358t316 151v246h94v-246q85 -6 161 -26.5t149 -55.5v-249h-96q-18 111 -70.5 171t-143.5 72v-843q82 12 134.5 70.5t73.5 158.5h134q-32 -141 -118 -221.5t-224 -94.5v-249h-94v249q-199 14 -316 153t-117 356zM339 486q0 -196 58.5 -301.5 t175.5 -120.5v843q-117 -15 -175.5 -120t-58.5 -301z" />
<glyph unicode="&#xa3;" horiz-adv-x="1191" d="M126 0v97h175v544h-175v96h175v269q0 188 105.5 286t307.5 98q76 0 150.5 -12t141.5 -32v-225h-93q-12 87 -63 132.5t-139 45.5q-114 0 -169.5 -70t-55.5 -223v-269h374v-96h-374v-530h436v208h105v-319h-901z" />
<glyph unicode="&#xa4;" horiz-adv-x="965" d="M26 240l135 134q-97 112 -97 267q0 149 97 269l-135 132l53 52l138 -131q49 41 122 67q79 26 147 26q67 0 134 -23q70 -24 129 -70l135 131l55 -52l-137 -132q99 -126 99 -266q0 -144 -99 -270l137 -134l-55 -53l-135 135q-64 -50 -127 -73.5t-128 -23.5q-79 0 -160 27 q-79 29 -117 70l-138 -135zM140 638q0 -138 103 -237q99 -100 240 -100q140 0 240 100q102 99 102 240q0 82 -47 166q-47 85 -126 129q-81 44 -169 44q-141 0 -240 -99q-103 -100 -103 -243z" />
<glyph unicode="&#xa5;" horiz-adv-x="1191" d="M-15 1267v99h507v-99h-161l313 -553l310 553h-152v99h395v-99h-129l-261 -454h249v-96h-304l-64 -111v-79h368v-94h-368v-336h172v-97h-529v97h172v336h-368v94h368v61l-73 129h-295v96h239l-263 454h-126z" />
<glyph unicode="&#xa6;" horiz-adv-x="632" d="M243 -319v691h146v-691h-146zM243 617v691h146v-691h-146z" />
<glyph unicode="&#xa7;" horiz-adv-x="936" d="M85 658q0 85 54 146.5t154 87.5q-76 47 -113 104t-37 130q0 120 92.5 192t244.5 72q70 0 140 -12t138 -38v-187h-85q0 67 -48.5 105t-127.5 38q-93 0 -146 -44t-53 -120q0 -90 226 -213q26 -18 35 -21q178 -99 235 -168t57 -159q0 -88 -46.5 -146.5t-152.5 -96.5 q71 -44 104.5 -101t33.5 -142q0 -120 -93.5 -191.5t-251.5 -71.5q-82 0 -155 13t-144 36v193h85q0 -73 50 -111t149 -38q94 0 149.5 45.5t55.5 121.5q0 102 -208 219q-20 12 -29 18q-199 111 -256 180t-57 159zM234 690q0 -119 331 -307l32 -17q50 35 77.5 79t27.5 96 q0 70 -64.5 130t-292.5 183q-61 -41 -86 -79t-25 -85z" />
<glyph unicode="&#xa8;" horiz-adv-x="936" d="M184 1328q0 41 31 73.5t75 32.5t76 -32.5t32 -73.5q0 -47 -31 -77.5t-77 -30.5q-47 0 -76.5 30.5t-29.5 77.5zM538 1328q0 41 32.5 73.5t76.5 32.5q43 0 74 -32.5t31 -73.5q0 -47 -29.5 -77.5t-75.5 -30.5q-47 0 -78 30.5t-31 77.5z" />
<glyph unicode="&#xa9;" horiz-adv-x="1872" d="M257 679q0 140 50 260t149 220q100 96 221.5 147.5t258.5 51.5q138 0 259.5 -51.5t220.5 -147.5q100 -100 149.5 -220t49.5 -260q0 -141 -49.5 -261t-149.5 -219q-99 -97 -220.5 -148t-259.5 -51q-137 0 -258.5 51t-221.5 148q-99 99 -149 219t-50 261zM351 679 q0 -120 44 -224t129 -189q87 -88 189.5 -130t222.5 -42t224 42t189 130q88 85 130 189t42 224t-43.5 223.5t-128.5 188.5q-85 88 -189 130.5t-224 42.5t-222.5 -42.5t-189.5 -130.5q-85 -85 -129 -188.5t-44 -223.5zM565 679q0 181 102 292.5t272 111.5q73 0 143.5 -18 t149.5 -53v-193h-76q-15 100 -67.5 146.5t-149.5 46.5q-108 0 -163.5 -83t-55.5 -250t55.5 -250.5t163.5 -83.5q88 0 140.5 44t70.5 135h108q-23 -120 -106.5 -184.5t-212.5 -64.5q-172 0 -273 109.5t-101 294.5z" />
<glyph unicode="&#xaa;" horiz-adv-x="889" d="M114 895q0 106 88 163t243 57h187v44q0 76 -54 118t-148 42q-79 0 -126 -32t-61 -93h-67v143q67 26 134 39.5t126 13.5q161 0 246 -70.5t85 -204.5v-348h73v-77h-208v74q-47 -47 -104 -69t-136 -22q-129 0 -203.5 60t-74.5 162zM152 489v96h638v-96h-638zM263 901 q0 -73 47 -111t135 -38q85 0 136 44t51 117v134h-173q-96 0 -146 -36.5t-50 -109.5z" />
<glyph unicode="&#xab;" horiz-adv-x="1147" d="M143 512v73l430 383v-105l-272 -313l272 -316v-105zM541 512v73l430 383v-105l-272 -313l272 -316v-105z" />
<glyph unicode="&#xac;" horiz-adv-x="1090" d="M92 672v136h914v-517l-31 -1h-104v382h-779z" />
<glyph unicode="&#xad;" horiz-adv-x="632" d="M82 430v143h468v-143h-468z" />
<glyph unicode="&#xae;" horiz-adv-x="1872" d="M257 679q0 140 50 260t149 220q100 96 221.5 147.5t258.5 51.5q138 0 259.5 -51.5t220.5 -147.5q100 -100 149.5 -220t49.5 -260q0 -141 -49.5 -261t-149.5 -219q-99 -97 -220.5 -148t-259.5 -51q-137 0 -258.5 51t-221.5 148q-99 99 -149 219t-50 261zM351 679 q0 -120 44 -224t129 -189q87 -88 189.5 -130t222.5 -42t224 42t189 130q88 85 130 189t42 224t-43.5 223.5t-128.5 188.5q-85 88 -189 130.5t-224 42.5t-222.5 -42.5t-189.5 -130.5q-85 -85 -129 -188.5t-44 -223.5zM606 322v61h76v615h-76v61h380q114 0 174 -51t60 -151 q0 -76 -44 -117t-134 -50q41 -14 67 -37.5t44 -58.5l108 -211h67v-61h-172l-120 231q-32 64 -60 86t-75 22h-82v-278h76v-61h-289zM819 723h114q76 0 114 35t38 102t-39.5 102.5t-112.5 35.5h-114v-275z" />
<glyph unicode="&#xaf;" horiz-adv-x="1105" d="M0 1483v146h1069v-146h-1069z" />
<glyph unicode="&#xb0;" horiz-adv-x="709" d="M63 1238q0 127 90 216.5t216 89.5q127 0 216 -90t89 -216q0 -125 -90.5 -215.5t-215.5 -90.5q-129 0 -217 89.5t-88 216.5zM169 1234q0 -85 60 -143.5t143 -58.5q85 0 144 58.5t59 143.5t-59.5 144.5t-143.5 59.5q-82 0 -142.5 -59.5t-60.5 -144.5z" />
<glyph unicode="&#xb1;" horiz-adv-x="1265" d="M100 43v146h1069v-146h-1069zM100 783v146h1069v-146h-1069zM561 322v1069h147v-1069h-147z" />
<glyph unicode="&#xb2;" horiz-adv-x="752" d="M82 611v68l260 234q79 67 113 124t34 116q0 79 -44 124t-120 45q-73 0 -115.5 -35t-54.5 -102h-64v143q61 32 124 47t127 15q126 0 205 -60t79 -157q0 -111 -178 -272l-18 -15l-216 -196h351v100h67v-179h-550z" />
<glyph unicode="&#xb3;" horiz-adv-x="752" d="M91 647v158h64q3 -68 48.5 -104.5t130.5 -36.5q84 0 131 41t47 114q0 85 -47 129t-137 44h-50v67h26q88 0 133.5 33.5t45.5 101.5q0 61 -36.5 94.5t-107.5 33.5q-76 0 -115.5 -29t-45.5 -88h-64v138q67 23 128.5 35t114.5 12q126 0 194.5 -50t68.5 -140q0 -65 -48 -111.5 t-136 -61.5q108 -15 163.5 -69t55.5 -145q0 -105 -79 -160.5t-231 -55.5q-64 0 -128.5 13t-125.5 37z" />
<glyph unicode="&#xb4;" horiz-adv-x="1078" d="M254 1119l385 393q46 46 73.5 62t53.5 16q44 0 70.5 -26.5t26.5 -66.5q0 -30 -20 -56.5t-60 -52.5l-437 -269h-92z" />
<glyph unicode="&#xb5;" horiz-adv-x="1217" d="M56 -293h161v1168h-153v96h319v-564q0 -179 44 -244.5t155 -65.5q117 0 178.5 86t61.5 250v442h-146v96h316v-874h158v-97h-328v173q-47 -97 -114 -148t-149 -51q-53 0 -97 16t-79 48v-331h161v-96h-488v96z" />
<glyph unicode="&#xb6;" horiz-adv-x="1191" d="M143 980q0 173 120 279.5t316 106.5h492v-99h-108v-1445h-97v1445h-214v-1445h-96v772q-196 15 -304.5 115.5t-108.5 270.5z" />
<glyph unicode="&#xb7;" horiz-adv-x="534" d="M136 772q0 18 20 38l101 105q19 16 36 16q15 0 38 -20l98 -105q15 -22 15 -37q0 -19 -17 -39l-100 -107q-23 -25 -34 -25q-21 0 -36 16l-109 126q-12 15 -12 32z" />
<glyph unicode="&#xb8;" horiz-adv-x="1078" d="M309 -365q108 -65 191 -65q84 0 119 26.5t35 83.5t-62 81q-49 19 -128 19q-19 0 -43 -1l63 221h77l-45 -130q39 4 76 6q109 0 170 -51t61 -144q0 -95 -74 -151t-202 -56q-138 0 -238 41v120z" />
<glyph unicode="&#xb9;" horiz-adv-x="752" d="M135 1170v85l219 120h94v-687h158v-77h-445v77h158v579z" />
<glyph unicode="&#xba;" horiz-adv-x="881" d="M85 1033q0 161 96.5 259t257.5 98t257.5 -98t96.5 -259q0 -164 -96.5 -262t-257.5 -98t-257.5 99.5t-96.5 260.5zM126 489v96h629v-96h-629zM246 1033q0 -144 49.5 -217t143.5 -73q99 0 147.5 73t48.5 217q0 140 -50 213t-146 73q-94 0 -143.5 -73t-49.5 -213z" />
<glyph unicode="&#xbb;" horiz-adv-x="1147" d="M176 129v105l272 316l-272 313v105l430 -383v-73zM573 129v105l273 316l-273 313v105l428 -383v-73z" />
<glyph unicode="&#xbc;" horiz-adv-x="1814" d="M135 1170v85l219 120h94v-687h158v-77h-445v77h158v579zM410 -26l860 1416h137l-863 -1416h-134zM1112 202v76l365 486h129v-486h149v-76h-149v-126h135v-76h-398v76h132v126h-363zM1194 278h281v372z" />
<glyph unicode="&#xbd;" horiz-adv-x="1814" d="M135 1170v85l219 120h94v-687h158v-77h-445v77h158v579zM410 -26l860 1416h137l-863 -1416h-134zM1147 0v70l260 231q79 71 113 126.5t34 116.5q0 76 -45.5 121.5t-121.5 45.5q-70 0 -114 -33.5t-53 -104.5h-64v147q58 26 122.5 42t128.5 16q126 0 203.5 -60t77.5 -153 q0 -114 -178 -272l-15 -15l-219 -196h354v96h67v-178h-550z" />
<glyph unicode="&#xbe;" horiz-adv-x="1814" d="M91 647v158h64q3 -68 48.5 -104.5t130.5 -36.5q84 0 131 41t47 114q0 85 -47 129t-137 44h-50v67h26q88 0 133.5 33.5t45.5 101.5q0 61 -36.5 94.5t-107.5 33.5q-76 0 -115.5 -29t-45.5 -88h-64v138q67 23 128.5 35t114.5 12q126 0 194.5 -50t68.5 -140q0 -65 -48 -111.5 t-136 -61.5q108 -15 163.5 -69t55.5 -145q0 -105 -79 -160.5t-231 -55.5q-64 0 -128.5 13t-125.5 37zM410 -26l860 1416h137l-863 -1416h-134zM1112 202v76l365 486h129v-486h149v-76h-149v-126h135v-76h-398v76h132v126h-363zM1194 278h281v372z" />
<glyph unicode="&#xbf;" horiz-adv-x="1004" d="M129 336q0 170 101 278.5t302 154.5v232h115v-299q-161 -38 -244.5 -131.5t-83.5 -234.5q0 -125 68.5 -198.5t183.5 -73.5q102 0 169 60t85 174h88v-239q-97 -41 -183 -61.5t-165 -20.5q-202 0 -319 96.5t-117 262.5zM468 1270q0 49 35 86t88 37t86.5 -35.5t33.5 -87.5 q0 -50 -35 -86.5t-85 -36.5q-53 0 -88 36.5t-35 86.5z" />
<glyph unicode="&#xc0;" horiz-adv-x="1352" d="M-12 0v97h120l489 1269h152l486 -1269h134v-97h-494v97h152l-114 301h-577l-114 -301h150v-97h-384zM374 494h504l-252 650zM433 1735h178l167 -240h-105z" />
<glyph unicode="&#xc1;" horiz-adv-x="1352" d="M-12 0v97h120l489 1269h152l486 -1269h134v-97h-494v97h152l-114 301h-577l-114 -301h150v-97h-384zM374 494h504l-252 650zM568 1495l166 240h179l-240 -240h-105z" />
<glyph unicode="&#xc2;" horiz-adv-x="1352" d="M-12 0v97h120l489 1269h152l486 -1269h134v-97h-494v97h152l-114 301h-577l-114 -301h150v-97h-384zM374 494h504l-252 650zM383 1495l214 240h161l210 -240h-108l-184 146l-184 -146h-109z" />
<glyph unicode="&#xc3;" horiz-adv-x="1352" d="M-12 0v97h120l489 1269h152l486 -1269h134v-97h-494v97h152l-114 301h-577l-114 -301h150v-97h-384zM374 494h504l-252 650zM374 1524q3 91 48.5 145t124.5 54q32 0 61.5 -7t79.5 -37l43 -23q21 -12 41.5 -19t34.5 -7q39 0 60.5 26t21.5 67h88q-3 -93 -49.5 -146 t-131.5 -53q-62 0 -129 41l-3 3l-44 27q-20 8 -37.5 15.5t-32.5 7.5q-38 0 -61.5 -26.5t-26.5 -67.5h-88z" />
<glyph unicode="&#xc4;" horiz-adv-x="1352" d="M-12 0v97h120l489 1269h152l486 -1269h134v-97h-494v97h152l-114 301h-577l-114 -301h150v-97h-384zM374 494h504l-252 650zM392 1615q0 44 32 76t73 32q44 0 76.5 -32t32.5 -76t-31 -74.5t-78 -30.5q-44 0 -74.5 30.5t-30.5 74.5zM746 1615q0 44 32 76t76 32t75 -32 t31 -76t-31 -74.5t-75 -30.5q-47 0 -77.5 30.5t-30.5 74.5z" />
<glyph unicode="&#xc5;" horiz-adv-x="1352" d="M-12 0v97h120l448 1170q-64 32 -99.5 87.5t-35.5 131.5q0 106 73.5 179t178.5 73t178.5 -73t73.5 -179q0 -73 -37 -130t-101 -89l448 -1170h134v-97h-494v97h152l-114 301h-577l-114 -301h150v-97h-384zM374 494h501l-249 650zM532 1486q0 -58 41 -97.5t100 -39.5 q58 0 97.5 39.5t39.5 97.5q0 59 -39.5 100t-97.5 41q-59 0 -100 -39.5t-41 -101.5z" />
<glyph unicode="&#xc6;" horiz-adv-x="1875" d="M-32 0v97h120l538 1170h-196v99h1331v-304h-111v190h-629v-456h448v169h114v-453h-114v173h-448v-574h644v193h111v-304h-1112v97h173v301h-492l-140 -301h152v-97h-389zM389 494h448v773h-91z" />
<glyph unicode="&#xc7;" horiz-adv-x="1434" d="M105 682q0 319 183 513.5t484 194.5q114 0 238.5 -29.5t270.5 -87.5v-316h-102q-32 172 -134.5 254t-286.5 82q-220 0 -331 -156.5t-111 -454.5q0 -299 111 -455.5t331 -156.5q152 0 251.5 73.5t143.5 219.5h166q-58 -193 -201.5 -291t-359.5 -98q-135 0 -249 45 t-202 133q-102 105 -152 235.5t-50 294.5zM571 -219q35 -15 71.5 -24t68.5 -9q53 0 83.5 25t30.5 66q0 26 -20.5 65.5t-61.5 95.5h88q61 -59 89 -110t28 -95q0 -73 -57 -115.5t-160 -42.5q-38 0 -79 6t-81 18v120z" />
<glyph unicode="&#xc8;" horiz-adv-x="1366" d="M102 0v97h176v1170h-176v99h1100v-304h-114v190h-626v-456h448v169h111v-453h-111v173h-448v-574h644v193h111v-304h-1115zM439 1735h181l167 -240h-108z" />
<glyph unicode="&#xc9;" horiz-adv-x="1366" d="M102 0v97h176v1170h-176v99h1100v-304h-114v190h-626v-456h448v169h111v-453h-111v173h-448v-574h644v193h111v-304h-1115zM573 1495l167 240h182l-240 -240h-109z" />
<glyph unicode="&#xca;" horiz-adv-x="1366" d="M102 0v97h176v1170h-176v99h1100v-304h-114v190h-626v-456h448v169h111v-453h-111v173h-448v-574h644v193h111v-304h-1115zM392 1495l211 240h161l210 -240h-105l-184 146l-188 -146h-105z" />
<glyph unicode="&#xcb;" horiz-adv-x="1366" d="M102 0v97h176v1170h-176v99h1100v-304h-114v190h-626v-456h448v169h111v-453h-111v173h-448v-574h644v193h111v-304h-1115zM398 1615q0 44 32 76t76 32t74.5 -32t30.5 -76t-30.5 -74.5t-74.5 -30.5q-47 0 -77.5 30.5t-30.5 74.5zM755 1615q0 44 32 76t73 32q44 0 76 -32 t32 -76t-30.5 -74.5t-77.5 -30.5q-44 0 -74.5 30.5t-30.5 74.5z" />
<glyph unicode="&#xcc;" horiz-adv-x="740" d="M102 0v97h176v1170h-176v99h536v-99h-176v-1170h176v-97h-536zM129 1735h178l167 -240h-108z" />
<glyph unicode="&#xcd;" horiz-adv-x="740" d="M102 0v97h176v1170h-176v99h536v-99h-176v-1170h176v-97h-536zM263 1495l167 240h179l-240 -240h-106z" />
<glyph unicode="&#xce;" horiz-adv-x="740" d="M79 1495l211 240h161l213 -240h-108l-184 146l-188 -146h-105zM102 0v97h176v1170h-176v99h536v-99h-176v-1170h176v-97h-536z" />
<glyph unicode="&#xcf;" horiz-adv-x="740" d="M85 1615q0 44 32 76t76 32t74.5 -32t30.5 -76t-30.5 -74.5t-74.5 -30.5t-76 30.5t-32 74.5zM102 0v97h176v1170h-176v99h536v-99h-176v-1170h176v-97h-536zM442 1615q0 44 32 76t76 32q41 0 73 -32t32 -76t-30.5 -74.5t-74.5 -30.5q-47 0 -77.5 30.5t-30.5 74.5z" />
<glyph unicode="&#xd0;" horiz-adv-x="1510" d="M102 658v114h185v495h-176v99h544q354 0 550 -180t196 -501q0 -322 -197.5 -503.5t-548.5 -181.5h-544v97h176v561h-185zM471 97h173q263 0 406.5 152t143.5 436q0 283 -143.5 432.5t-406.5 149.5h-173v-495h307v-114h-307v-561z" />
<glyph unicode="&#xd1;" horiz-adv-x="1638" d="M91 0v97h184v1170h-184v99h351l819 -1076v977h-184v99h479v-99h-184v-1293h-111l-875 1149v-1026h185v-97h-480zM518 1524q3 91 49.5 145t122.5 54q36 0 63.5 -7t77.5 -37l47 -23q20 -12 39 -19t37 -7q38 0 58.5 26t20.5 67h88q0 -93 -47 -146t-135 -53q-61 0 -126 41 l-6 3l-43 27q-18 8 -37 15.5t-34 7.5q-35 0 -58.5 -26.5t-28.5 -67.5h-88z" />
<glyph unicode="&#xd2;" horiz-adv-x="1536" d="M105 682q0 164 50 294t152 232q91 91 205 136.5t255 45.5q298 0 481 -194.5t183 -513.5q0 -164 -51.5 -295.5t-150.5 -234.5q-91 -88 -206.5 -133t-255.5 -45q-138 0 -255 45t-205 133q-102 105 -152 234t-50 296zM316 682q0 -302 114 -457t337 -155q225 0 339 155 t114 457q0 301 -114 456t-339 155q-223 0 -337 -155t-114 -456zM524 1735h181l167 -240h-108z" />
<glyph unicode="&#xd3;" horiz-adv-x="1536" d="M105 682q0 164 50 294t152 232q91 91 205 136.5t255 45.5q298 0 481 -194.5t183 -513.5q0 -164 -51.5 -295.5t-150.5 -234.5q-91 -88 -206.5 -133t-255.5 -45q-138 0 -255 45t-205 133q-102 105 -152 234t-50 296zM316 682q0 -302 114 -457t337 -155q225 0 339 155 t114 457q0 301 -114 456t-339 155q-223 0 -337 -155t-114 -456zM658 1495l167 240h181l-239 -240h-109z" />
<glyph unicode="&#xd4;" horiz-adv-x="1536" d="M105 682q0 164 50 294t152 232q91 91 205 136.5t255 45.5q298 0 481 -194.5t183 -513.5q0 -164 -51.5 -295.5t-150.5 -234.5q-91 -88 -206.5 -133t-255.5 -45q-138 0 -255 45t-205 133q-102 105 -152 234t-50 296zM316 682q0 -302 114 -457t337 -155q225 0 339 155 t114 457q0 301 -114 456t-339 155q-223 0 -337 -155t-114 -456zM477 1495l211 240h160l211 -240h-105l-187 146l-185 -146h-105z" />
<glyph unicode="&#xd5;" horiz-adv-x="1536" d="M105 682q0 164 50 294t152 232q91 91 205 136.5t255 45.5q298 0 481 -194.5t183 -513.5q0 -164 -51.5 -295.5t-150.5 -234.5q-91 -88 -206.5 -133t-255.5 -45q-138 0 -255 45t-205 133q-102 105 -152 234t-50 296zM316 682q0 -302 114 -457t337 -155q225 0 339 155 t114 457q0 301 -114 456t-339 155q-223 0 -337 -155t-114 -456zM465 1524q3 91 50 145t123 54q35 0 63 -7t77 -37l47 -23q21 -12 41 -19t35 -7q38 0 58.5 26t20.5 67h88q0 -93 -47 -146t-135 -53q-61 0 -125 41l-3 3l-47 27q-18 8 -35.5 15.5t-34.5 7.5q-35 0 -58.5 -26.5 t-29.5 -67.5h-88z" />
<glyph unicode="&#xd6;" horiz-adv-x="1536" d="M105 682q0 164 50 294t152 232q91 91 205 136.5t255 45.5q298 0 481 -194.5t183 -513.5q0 -164 -51.5 -295.5t-150.5 -234.5q-91 -88 -206.5 -133t-255.5 -45q-138 0 -255 45t-205 133q-102 105 -152 234t-50 296zM316 682q0 -302 114 -457t337 -155q225 0 339 155 t114 457q0 301 -114 456t-339 155q-223 0 -337 -155t-114 -456zM483 1615q0 44 32 76t76 32q41 0 73 -32t32 -76t-30.5 -74.5t-74.5 -30.5q-47 0 -77.5 30.5t-30.5 74.5zM840 1615q0 44 30.5 76t74.5 32t76 -32t32 -76t-30.5 -74.5t-77.5 -30.5q-44 0 -74.5 30.5t-30.5 74.5 z" />
<glyph unicode="&#xd7;" horiz-adv-x="1568" d="M257 164l422 421l-422 424l106 103l421 -422l421 422l106 -103l-425 -424l425 -421l-106 -103l-421 422l-421 -422z" />
<glyph unicode="&#xd8;" horiz-adv-x="1536" d="M91 12l172 187q-79 96 -118.5 216t-39.5 267q0 316 183 512t479 196q131 0 239.5 -38t198.5 -117l161 181l73 -64l-166 -185q79 -99 118.5 -219t39.5 -266q0 -316 -183 -512t-481 -196q-129 0 -237.5 39.5t-198.5 118.5l-167 -185zM316 682q0 -109 14.5 -198t43.5 -162 l738 810q-62 82 -146.5 121.5t-198.5 39.5q-223 0 -337 -155t-114 -456zM424 234q56 -82 142 -123t201 -41q225 0 339 155t114 457q0 105 -14.5 195.5t-46.5 164.5z" />
<glyph unicode="&#xd9;" horiz-adv-x="1580" d="M88 1267v99h532v-99h-172v-705q0 -264 84.5 -366t295.5 -102t295.5 102t84.5 366v705h-175v99h462v-99h-176v-723q0 -313 -119.5 -441.5t-406.5 -128.5t-408.5 130t-121.5 440v723h-175zM582 1735h179l166 -240h-105z" />
<glyph unicode="&#xda;" horiz-adv-x="1580" d="M88 1267v99h532v-99h-172v-705q0 -264 84.5 -366t295.5 -102t295.5 102t84.5 366v705h-175v99h462v-99h-176v-723q0 -313 -119.5 -441.5t-406.5 -128.5t-408.5 130t-121.5 440v723h-175zM717 1495l167 240h181l-240 -240h-108z" />
<glyph unicode="&#xdb;" horiz-adv-x="1580" d="M88 1267v99h532v-99h-172v-705q0 -264 84.5 -366t295.5 -102t295.5 102t84.5 366v705h-175v99h462v-99h-176v-723q0 -313 -119.5 -441.5t-406.5 -128.5t-408.5 130t-121.5 440v723h-175zM532 1495l214 240h161l211 -240h-106l-187 146l-184 -146h-109z" />
<glyph unicode="&#xdc;" horiz-adv-x="1580" d="M88 1267v99h532v-99h-172v-705q0 -264 84.5 -366t295.5 -102t295.5 102t84.5 366v705h-175v99h462v-99h-176v-723q0 -313 -119.5 -441.5t-406.5 -128.5t-408.5 130t-121.5 440v723h-175zM541 1615q0 44 32.5 76t73.5 32q43 0 75.5 -32t32.5 -76t-31 -74.5t-77 -30.5 q-44 0 -75 30.5t-31 74.5zM898 1615q0 44 31 76t75 32q43 0 75.5 -32t32.5 -76t-32.5 -74.5t-75.5 -30.5q-44 0 -75 30.5t-31 74.5z" />
<glyph unicode="&#xdd;" horiz-adv-x="1235" d="M-20 1267v99h506v-99h-158l339 -553l342 553h-155v99h398v-99h-129l-409 -661v-509h172v-97h-532v97h173v491l-422 679h-125zM509 1495l167 240h178l-237 -240h-108z" />
<glyph unicode="&#xde;" horiz-adv-x="1267" d="M102 0v97h176v1170h-176v99h571v-99h-211v-199h287q205 0 325 -104t120 -279q0 -179 -120 -283t-325 -104h-287v-201h211v-97h-571zM462 398h243q135 0 206.5 73t71.5 214q0 137 -71.5 211.5t-206.5 74.5h-243v-573z" />
<glyph unicode="&#xdf;" horiz-adv-x="1252" d="M56 0v97h161v988q0 161 103.5 249t296.5 88t295.5 -95t114.5 -288h-21q-134 0 -210 -50t-76 -135q0 -47 24.5 -82t92.5 -79l82 -49q140 -91 194 -168.5t54 -182.5q0 -141 -105 -230t-275 -89q-76 0 -153.5 17.5t-147.5 46.5v214h99q3 -94 54 -141t145 -47q100 0 158.5 56 t58.5 149q0 76 -37 130t-145 122l-79 50q-93 58 -134 116.5t-41 134.5q0 111 77.5 187t217.5 97q-9 108 -71.5 168t-171.5 60q-120 0 -177 -60t-57 -186v-1088h-327z" />
<glyph unicode="&#xe0;" horiz-adv-x="1115" d="M94 293q0 149 108 232.5t307 83.5h237v67q0 111 -67.5 171t-189.5 60q-100 0 -160 -45.5t-74 -135.5h-85v199q87 35 169 54t161 19q202 0 307.5 -99.5t105.5 -292.5v-509h152v-97h-319v105q-56 -67 -129 -99t-172 -32q-161 0 -256 86t-95 233zM208 1495h178l240 -342 h-108zM281 293q0 -103 61.5 -163t169.5 -60q105 0 169.5 64.5t64.5 169.5v208h-219q-123 0 -184.5 -54t-61.5 -165z" />
<glyph unicode="&#xe1;" horiz-adv-x="1115" d="M94 293q0 149 108 232.5t307 83.5h237v67q0 111 -67.5 171t-189.5 60q-100 0 -160 -45.5t-74 -135.5h-85v199q87 35 169 54t161 19q202 0 307.5 -99.5t105.5 -292.5v-509h152v-97h-319v105q-56 -67 -129 -99t-172 -32q-161 0 -256 86t-95 233zM281 293q0 -103 61.5 -163 t169.5 -60q105 0 169.5 64.5t64.5 169.5v208h-219q-123 0 -184.5 -54t-61.5 -165zM413 1153l234 345h184l-313 -345h-105z" />
<glyph unicode="&#xe2;" horiz-adv-x="1115" d="M94 293q0 149 108 232.5t307 83.5h237v67q0 111 -67.5 171t-189.5 60q-100 0 -160 -45.5t-74 -135.5h-85v199q87 35 169 54t161 19q202 0 307.5 -99.5t105.5 -292.5v-509h152v-97h-319v105q-56 -67 -129 -99t-172 -32q-161 0 -256 86t-95 233zM228 1153l217 345h152 l216 -345h-108l-184 240l-185 -240h-108zM281 293q0 -103 61.5 -163t169.5 -60q105 0 169.5 64.5t64.5 169.5v208h-219q-123 0 -184.5 -54t-61.5 -165z" />
<glyph unicode="&#xe3;" horiz-adv-x="1115" d="M94 293q0 149 108 232.5t307 83.5h237v67q0 111 -67.5 171t-189.5 60q-100 0 -160 -45.5t-74 -135.5h-85v199q87 35 169 54t161 19q202 0 307.5 -99.5t105.5 -292.5v-509h152v-97h-319v105q-56 -67 -129 -99t-172 -32q-161 0 -256 86t-95 233zM219 1197q3 122 48.5 189.5 t130.5 67.5q32 0 63 -13t63 -43l52 -49q21 -21 35.5 -28t35.5 -7q41 0 62.5 36.5t24.5 103.5h88q-3 -123 -49.5 -190t-128.5 -67q-35 0 -64.5 13t-61.5 42l-53 50q-26 23 -40.5 30.5t-32.5 7.5q-38 0 -60 -36.5t-25 -106.5h-88zM281 293q0 -103 61.5 -163t169.5 -60 q105 0 169.5 64.5t64.5 169.5v208h-219q-123 0 -184.5 -54t-61.5 -165z" />
<glyph unicode="&#xe4;" horiz-adv-x="1115" d="M94 293q0 149 108 232.5t307 83.5h237v67q0 111 -67.5 171t-189.5 60q-100 0 -160 -45.5t-74 -135.5h-85v199q87 35 169 54t161 19q202 0 307.5 -99.5t105.5 -292.5v-509h152v-97h-319v105q-56 -67 -129 -99t-172 -32q-161 0 -256 86t-95 233zM237 1328q0 41 30.5 73.5 t74.5 32.5t76.5 -32.5t32.5 -73.5q0 -47 -31 -77.5t-78 -30.5t-76 30.5t-29 77.5zM281 293q0 -103 61.5 -163t169.5 -60q105 0 169.5 64.5t64.5 169.5v208h-219q-123 0 -184.5 -54t-61.5 -165zM591 1328q0 41 32 73.5t76 32.5q41 0 73.5 -32.5t32.5 -73.5q0 -47 -31 -77.5 t-75 -30.5q-47 0 -77.5 30.5t-30.5 77.5z" />
<glyph unicode="&#xe5;" horiz-adv-x="1115" d="M94 293q0 149 108 232.5t307 83.5h237v67q0 111 -67.5 171t-189.5 60q-100 0 -160 -45.5t-74 -135.5h-85v199q87 35 169 54t161 19q202 0 307.5 -99.5t105.5 -292.5v-509h152v-97h-319v105q-56 -67 -129 -99t-172 -32q-161 0 -256 86t-95 233zM269 1393q0 105 73 178 t179 73q105 0 178 -73t73 -178q0 -106 -73 -179t-178 -73q-106 0 -179 73t-73 179zM281 293q0 -103 61.5 -163t169.5 -60q105 0 169.5 64.5t64.5 169.5v208h-219q-123 0 -184.5 -54t-61.5 -165zM383 1393q0 -59 38 -98.5t100 -39.5q58 0 97.5 39.5t39.5 98.5q0 58 -39.5 99 t-97.5 41q-62 0 -100 -41t-38 -99z" />
<glyph unicode="&#xe6;" horiz-adv-x="1761" d="M94 293q0 149 109.5 232.5t305.5 83.5h237v67q0 108 -66 169.5t-183 61.5q-108 0 -168 -44t-74 -137h-85v199q87 35 169 54t161 19q129 0 217 -39.5t137 -121.5q71 82 158.5 121.5t192.5 39.5q223 0 340 -136t123 -394h-726v-9q0 -196 73 -295.5t220 -99.5q111 0 181 57 t100 172h134q-41 -158 -149 -238.5t-284 -80.5q-111 0 -206 41t-165 123q-77 -82 -169 -123t-206 -41q-181 0 -279 83t-98 236zM281 293q0 -103 61.5 -163t169.5 -60q105 0 169.5 64.5t64.5 169.5v208h-219q-123 0 -184.5 -54t-61.5 -165zM942 565h527q-6 172 -73.5 257 t-190.5 85q-117 0 -184 -86.5t-79 -255.5z" />
<glyph unicode="&#xe7;" horiz-adv-x="1047" d="M94 486q0 234 128.5 373t342.5 139q90 0 182.5 -22t182.5 -63v-249h-96q-21 126 -85 184.5t-184 58.5q-135 0 -205 -105.5t-70 -315.5q0 -211 70 -316.5t205 -105.5q108 0 174 57t89 172h135q-36 -155 -136.5 -237t-261.5 -82q-214 0 -342.5 140.5t-128.5 371.5z M357 -219q38 -15 74.5 -24t68.5 -9q50 0 80.5 25t30.5 66q0 26 -20 65.5t-59 95.5h88q59 -59 88 -110t29 -95q0 -73 -58.5 -115.5t-160.5 -42.5q-38 0 -79 6t-82 18v120z" />
<glyph unicode="&#xe8;" horiz-adv-x="1109" d="M94 486q0 231 127 371.5t332 140.5q222 0 340.5 -136t121.5 -394h-725v-9q0 -196 74.5 -295.5t217.5 -99.5q111 0 181.5 57t99.5 172h135q-38 -158 -148 -238.5t-285 -80.5q-214 0 -342.5 140.5t-128.5 371.5zM243 1495h178l237 -342h-105zM290 565h526q-6 172 -71.5 257 t-191.5 85q-114 0 -181.5 -86.5t-81.5 -255.5z" />
<glyph unicode="&#xe9;" horiz-adv-x="1109" d="M94 486q0 231 127 371.5t332 140.5q222 0 340.5 -136t121.5 -394h-725v-9q0 -196 74.5 -295.5t217.5 -99.5q111 0 181.5 57t99.5 172h135q-38 -158 -148 -238.5t-285 -80.5q-214 0 -342.5 140.5t-128.5 371.5zM290 565h526q-6 172 -71.5 257t-191.5 85 q-114 0 -181.5 -86.5t-81.5 -255.5zM445 1153l237 345h181l-310 -345h-108z" />
<glyph unicode="&#xea;" horiz-adv-x="1109" d="M94 486q0 231 127 371.5t332 140.5q222 0 340.5 -136t121.5 -394h-725v-9q0 -196 74.5 -295.5t217.5 -99.5q111 0 181.5 57t99.5 172h135q-38 -158 -148 -238.5t-285 -80.5q-214 0 -342.5 140.5t-128.5 371.5zM263 1153l214 345h155l214 -345h-106l-187 240l-184 -240 h-106zM290 565h526q-6 172 -71.5 257t-191.5 85q-114 0 -181.5 -86.5t-81.5 -255.5z" />
<glyph unicode="&#xeb;" horiz-adv-x="1109" d="M94 486q0 231 127 371.5t332 140.5q222 0 340.5 -136t121.5 -394h-725v-9q0 -196 74.5 -295.5t217.5 -99.5q111 0 181.5 57t99.5 172h135q-38 -158 -148 -238.5t-285 -80.5q-214 0 -342.5 140.5t-128.5 371.5zM269 1328q0 41 32.5 73.5t75.5 32.5q41 0 73.5 -32.5 t32.5 -73.5q0 -47 -29.5 -77.5t-76.5 -30.5q-46 0 -77 30.5t-31 77.5zM290 565h526q-6 172 -71.5 257t-191.5 85q-114 0 -181.5 -86.5t-81.5 -255.5zM626 1328q0 41 32 73.5t73 32.5q44 0 76.5 -32.5t32.5 -73.5q0 -47 -31 -77.5t-78 -30.5q-46 0 -75.5 30.5t-29.5 77.5z " />
<glyph unicode="&#xec;" horiz-adv-x="600" d="M-12 1495h179l237 -342h-106zM67 0v97h161v778h-161v96h331v-874h158v-97h-489z" />
<glyph unicode="&#xed;" horiz-adv-x="600" d="M67 0v97h161v778h-161v96h331v-874h158v-97h-489zM190 1153l237 345h182l-311 -345h-108z" />
<glyph unicode="&#xee;" horiz-adv-x="600" d="M9 1153l213 345h155l214 -345h-105l-188 240l-184 -240h-105zM67 0v97h161v778h-161v96h331v-874h158v-97h-489z" />
<glyph unicode="&#xef;" horiz-adv-x="600" d="M15 1328q0 41 32 73.5t76 32.5q41 0 73 -32.5t32 -73.5q0 -47 -29 -77.5t-76 -30.5t-77.5 30.5t-30.5 77.5zM67 0v97h161v778h-161v96h331v-874h158v-97h-489zM372 1328q0 41 30.5 73.5t74.5 32.5t76 -32.5t32 -73.5q0 -47 -30.5 -77.5t-77.5 -30.5t-76 30.5t-29 77.5z " />
<glyph unicode="&#xf0;" horiz-adv-x="1126" d="M94 474q0 216 128.5 348t336.5 132q32 0 67 -3t82 -9q-20 50 -54 98t-81 98l-292 -137l-35 73l269 123q-56 52 -127.5 88.5t-159.5 60.5l18 76q108 -24 203 -66t180 -104l296 135l32 -70l-264 -123q167 -152 253.5 -330.5t86.5 -377.5q0 -231 -127.5 -371.5 t-340.5 -140.5q-211 0 -341 139t-130 361zM290 465q0 -193 71.5 -297t203.5 -104q128 0 200 104t72 300q0 103 -22 199.5t-63 180.5q-41 9 -79 13.5t-73 4.5q-161 0 -235.5 -99.5t-74.5 -301.5z" />
<glyph unicode="&#xf1;" horiz-adv-x="1205" d="M67 875v96h331v-172q47 99 120 149t172 50q161 0 237.5 -92.5t76.5 -288.5v-520h149v-97h-463v97h144v468q0 178 -44 245.5t-152 67.5q-120 0 -180 -86.5t-60 -250.5v-444h146v-97h-468v97h152v778h-161zM301 1197q3 122 48.5 189.5t130.5 67.5q32 0 62.5 -13t63.5 -43 l52 -49q21 -21 37 -28t36 -7q38 0 60 36.5t25 103.5h88q-3 -123 -50 -190t-128 -67q-36 0 -65 13t-61 42l-53 50q-23 23 -39 30.5t-31 7.5q-41 0 -63 -36.5t-25 -106.5h-88z" />
<glyph unicode="&#xf2;" horiz-adv-x="1126" d="M94 486q0 234 128.5 373t342.5 139q213 0 340.5 -139t127.5 -373q0 -231 -127.5 -371.5t-340.5 -140.5q-214 0 -342.5 140.5t-128.5 371.5zM252 1495h178l237 -342h-105zM290 486q0 -208 70 -315t205 -107q134 0 203 107t69 315q0 207 -69 314t-203 107q-135 0 -205 -107 t-70 -314z" />
<glyph unicode="&#xf3;" horiz-adv-x="1126" d="M94 486q0 234 128.5 373t342.5 139q213 0 340.5 -139t127.5 -373q0 -231 -127.5 -371.5t-340.5 -140.5q-214 0 -342.5 140.5t-128.5 371.5zM290 486q0 -208 70 -315t205 -107q134 0 203 107t69 315q0 207 -69 314t-203 107q-135 0 -205 -107t-70 -314zM456 1153l234 345 h182l-310 -345h-106z" />
<glyph unicode="&#xf4;" horiz-adv-x="1126" d="M94 486q0 234 128.5 373t342.5 139q213 0 340.5 -139t127.5 -373q0 -231 -127.5 -371.5t-340.5 -140.5q-214 0 -342.5 140.5t-128.5 371.5zM272 1153l214 345h155l213 -345h-105l-184 240l-188 -240h-105zM290 486q0 -208 70 -315t205 -107q134 0 203 107t69 315 q0 207 -69 314t-203 107q-135 0 -205 -107t-70 -314z" />
<glyph unicode="&#xf5;" horiz-adv-x="1126" d="M94 486q0 234 128.5 373t342.5 139q213 0 340.5 -139t127.5 -373q0 -231 -127.5 -371.5t-340.5 -140.5q-214 0 -342.5 140.5t-128.5 371.5zM263 1197q0 122 47 189.5t129 67.5q35 0 64 -13t65 -43l52 -49q21 -21 35.5 -28t34.5 -7q41 0 61.5 36.5t26.5 103.5h88 q-3 -123 -50 -190t-128 -67q-36 0 -65 13t-64 42l-53 50q-23 23 -38 30.5t-32 7.5q-38 0 -60 -36.5t-25 -106.5h-88zM290 486q0 -208 70 -315t205 -107q134 0 203 107t69 315q0 207 -69 314t-203 107q-135 0 -205 -107t-70 -314z" />
<glyph unicode="&#xf6;" horiz-adv-x="1126" d="M94 486q0 234 128.5 373t342.5 139q213 0 340.5 -139t127.5 -373q0 -231 -127.5 -371.5t-340.5 -140.5q-214 0 -342.5 140.5t-128.5 371.5zM278 1328q0 41 32 73.5t76 32.5t75 -32.5t31 -73.5q0 -47 -31 -77.5t-75 -30.5q-47 0 -77.5 30.5t-30.5 77.5zM290 486 q0 -208 70 -315t205 -107q134 0 203 107t69 315q0 207 -69 314t-203 107q-135 0 -205 -107t-70 -314zM635 1328q0 41 32 73.5t73 32.5q44 0 76 -32.5t32 -73.5q0 -47 -30.5 -77.5t-77.5 -30.5t-76 30.5t-29 77.5z" />
<glyph unicode="&#xf7;" horiz-adv-x="1568" d="M199 512v149h1170v-149h-1170zM664 249q0 49 35 86t85 37t86.5 -37t36.5 -86q0 -50 -36.5 -85t-86.5 -35q-53 0 -86.5 33.5t-33.5 86.5zM664 925q0 49 35 85.5t85 36.5t86.5 -36.5t36.5 -85.5q0 -50 -36.5 -85t-86.5 -35q-53 0 -86.5 33.5t-33.5 86.5z" />
<glyph unicode="&#xf8;" horiz-adv-x="1126" d="M70 -29l135 164q-56 70 -83.5 159t-27.5 192q0 234 128.5 373t342.5 139q85 0 158 -23.5t131 -67.5l126 152l70 -58l-131 -158q55 -68 84.5 -158.5t29.5 -198.5q0 -231 -127.5 -371.5t-340.5 -140.5q-88 0 -161 24.5t-135 71.5l-131 -155zM290 486q0 -65 7 -119t19 -98 l451 536q-33 49 -84 75.5t-118 26.5q-135 0 -205 -107t-70 -314zM357 176q35 -59 87.5 -85.5t120.5 -26.5q134 0 203 107t69 315q0 70 -7.5 125.5t-22.5 102.5z" />
<glyph unicode="&#xf9;" horiz-adv-x="1205" d="M50 875v96h322v-564q0 -179 43.5 -244.5t155.5 -65.5q117 0 176.5 86t59.5 250v442h-143v96h313v-874h158v-97h-328v173q-46 -97 -119.5 -148t-169.5 -51q-164 0 -240 92t-76 288v521h-152zM222 1495h179l237 -342h-106z" />
<glyph unicode="&#xfa;" horiz-adv-x="1205" d="M50 875v96h322v-564q0 -179 43.5 -244.5t155.5 -65.5q117 0 176.5 86t59.5 250v442h-143v96h313v-874h158v-97h-328v173q-46 -97 -119.5 -148t-169.5 -51q-164 0 -240 92t-76 288v521h-152zM424 1153l237 345h182l-311 -345h-108z" />
<glyph unicode="&#xfb;" horiz-adv-x="1205" d="M50 875v96h322v-564q0 -179 43.5 -244.5t155.5 -65.5q117 0 176.5 86t59.5 250v442h-143v96h313v-874h158v-97h-328v173q-46 -97 -119.5 -148t-169.5 -51q-164 0 -240 92t-76 288v521h-152zM243 1153l213 345h155l214 -345h-105l-188 240l-184 -240h-105z" />
<glyph unicode="&#xfc;" horiz-adv-x="1205" d="M50 875v96h322v-564q0 -179 43.5 -244.5t155.5 -65.5q117 0 176.5 86t59.5 250v442h-143v96h313v-874h158v-97h-328v173q-46 -97 -119.5 -148t-169.5 -51q-164 0 -240 92t-76 288v521h-152zM249 1328q0 41 32 73.5t76 32.5q41 0 73 -32.5t32 -73.5q0 -47 -29 -77.5 t-76 -30.5t-77.5 30.5t-30.5 77.5zM606 1328q0 41 30.5 73.5t74.5 32.5t76 -32.5t32 -73.5q0 -47 -30.5 -77.5t-77.5 -30.5t-76 30.5t-29 77.5z" />
<glyph unicode="&#xfd;" horiz-adv-x="1059" d="M-6 875v96h448v-96h-155l272 -670l275 670h-146v96h365v-96h-108l-448 -1094q-44 -115 -101 -155.5t-156 -40.5q-44 0 -89.5 7t-91.5 22v184h87q6 -61 32.5 -89t78.5 -28q53 0 84 28t63 113l64 160l-363 893h-111zM421 1153l237 345h182l-313 -345h-106z" />
<glyph unicode="&#xfe;" horiz-adv-x="1200" d="M56 -293h161v1618h-161v97h327v-603q50 94 126 136.5t190 42.5q179 0 293 -142t114 -370q0 -229 -114 -370.5t-293 -141.5q-114 0 -190 42.5t-126 135.5v-445h161v-96h-488v96zM383 439q0 -176 67.5 -268t196.5 -92q128 0 194 102.5t66 304.5q0 204 -66 305t-194 101 q-129 0 -196.5 -92t-67.5 -268v-93z" />
<glyph unicode="&#xff;" horiz-adv-x="1059" d="M-6 875v96h448v-96h-155l272 -670l275 670h-146v96h365v-96h-108l-448 -1094q-44 -115 -101 -155.5t-156 -40.5q-44 0 -89.5 7t-91.5 22v184h87q6 -61 32.5 -89t78.5 -28q53 0 84 28t63 113l64 160l-363 893h-111zM246 1328q0 41 32 73.5t73 32.5q44 0 76 -32.5t32 -73.5 q0 -47 -30.5 -77.5t-77.5 -30.5q-44 0 -74.5 30.5t-30.5 77.5zM600 1328q0 41 32 73.5t76 32.5t74.5 -32.5t30.5 -73.5q0 -47 -29 -77.5t-76 -30.5q-44 0 -76 30.5t-32 77.5z" />
<glyph unicode="&#x100;" horiz-adv-x="1556" d="M16 0v39q89 15 117 41q52 51 119 204l502 1175h37l496 -1188q60 -142 108.5 -184t136.5 -48v-39h-562v39q83 4 114 28t31 61q0 45 -42 143l-86 208h-553l-98 -227q-34 -82 -34 -123q0 -34 30 -59t133 -31v-39h-449zM420 1600v121h594v-121h-594zM465 555h491l-240 576z " />
<glyph unicode="&#x101;" horiz-adv-x="956" d="M78 228q0 71 29 124q44 70 150.5 132.5t356.5 153.5v38q0 145 -46 199t-132 54q-68 0 -107 -36q-41 -37 -41 -82l3 -60q0 -50 -25 -76.5t-63 -26.5q-39 0 -63.5 27.5t-24.5 75.5q0 89 92 164.5t258 75.5q129 0 211 -42q63 -33 91 -102q20 -45 20 -185v-329 q0 -137 5.5 -168.5t17 -40.5t29.5 -9q14 0 28 6q24 12 86 77v-60q-118 -157 -227 -157q-52 0 -82 35t-30 122q-149 -114 -187 -131q-57 -26 -121 -26q-98 0 -163 68t-65 179zM255 278q0 -75 45 -126t103 -51q80 0 211 107v368q-159 -66 -206 -91q-82 -45 -117.5 -95.5 t-35.5 -111.5zM258 1262v121h594v-121h-594z" />
<glyph unicode="&#x102;" horiz-adv-x="1556" d="M16 0v39q89 15 117 41q52 51 119 204l502 1175h37l496 -1188q60 -142 108.5 -184t136.5 -48v-39h-562v39q83 4 114 28t31 61q0 45 -42 143l-86 208h-553l-98 -227q-34 -82 -34 -123q0 -34 30 -59t133 -31v-39h-449zM430 1860h94q17 -75 67 -107.5t126 -32.5 q75 0 125 32.5t67 107.5h95q-2 -58 -19.5 -109t-53 -89t-88.5 -60.5t-126 -22.5t-126.5 22.5t-88.5 60.5t-52.5 89t-19.5 109zM465 555h491l-240 576z" />
<glyph unicode="&#x103;" horiz-adv-x="956" d="M78 228q0 71 29 124q44 70 150.5 132.5t356.5 153.5v38q0 145 -46 199t-132 54q-68 0 -107 -36q-41 -37 -41 -82l3 -60q0 -50 -25 -76.5t-63 -26.5q-39 0 -63.5 27.5t-24.5 75.5q0 89 92 164.5t258 75.5q129 0 211 -42q63 -33 91 -102q20 -45 20 -185v-329 q0 -137 5.5 -168.5t17 -40.5t29.5 -9q14 0 28 6q24 12 86 77v-60q-118 -157 -227 -157q-52 0 -82 35t-30 122q-149 -114 -187 -131q-57 -26 -121 -26q-98 0 -163 68t-65 179zM255 278q0 -75 45 -126t103 -51q80 0 211 107v368q-159 -66 -206 -91q-82 -45 -117.5 -95.5 t-35.5 -111.5zM277 1522h94q17 -75 67 -107.5t126 -32.5q75 0 125 32.5t67 107.5h95q-2 -58 -19.5 -109t-53 -89t-88.5 -60.5t-126 -22.5t-126.5 22.5t-88.5 60.5t-52.5 89t-19.5 109z" />
<glyph unicode="&#x104;" horiz-adv-x="1556" d="M16 0v39q89 15 117 41q52 51 119 204l502 1175h37l496 -1188q60 -142 108.5 -184t136.5 -48v-39h-562v39q83 4 114 28t31 61q0 45 -42 143l-86 208h-553l-98 -227q-34 -82 -34 -123q0 -34 30 -59t133 -31v-39h-449zM465 555h491l-240 576zM934 -266q0 48 20 91t54 78.5 t77.5 60.5t90.5 36h117q-32 -10 -66 -30t-61.5 -49.5t-45.5 -68.5t-18 -88q0 -34 10.5 -58.5t29.5 -40t45 -23t57 -7.5q27 0 59 4.5t70 12.5v-111q-16 -8 -36.5 -14t-42.5 -10t-42.5 -6.5t-36.5 -2.5q-65 0 -117 13.5t-88.5 41t-56 70t-19.5 101.5z" />
<glyph unicode="&#x105;" horiz-adv-x="956" d="M78 228q0 71 29 124q44 70 150.5 132.5t356.5 153.5v38q0 145 -46 199t-132 54q-68 0 -107 -36q-41 -37 -41 -82l3 -60q0 -50 -25 -76.5t-63 -26.5q-39 0 -63.5 27.5t-24.5 75.5q0 89 92 164.5t258 75.5q129 0 211 -42q63 -33 91 -102q20 -45 20 -185v-329 q0 -137 5.5 -168.5t17 -40.5t29.5 -9q14 0 28 6q24 12 86 77v-60q-118 -157 -227 -157q-52 0 -82 35t-30 122q-149 -114 -187 -131q-57 -26 -121 -26q-98 0 -163 68t-65 179zM255 278q0 -75 45 -126t103 -51q80 0 211 107v368q-159 -66 -206 -91q-82 -45 -117.5 -95.5 t-35.5 -111.5zM549 -266q0 48 20 91t54 78.5t77.5 60.5t90.5 36h117q-32 -10 -66 -30t-61.5 -49.5t-45.5 -68.5t-18 -88q0 -34 10.5 -58.5t29.5 -40t45 -23t57 -7.5q27 0 59 4.5t70 12.5v-111q-16 -8 -36.5 -14t-42.5 -10t-42.5 -6.5t-36.5 -2.5q-65 0 -117 13.5t-88.5 41 t-56 70t-19.5 101.5z" />
<glyph unicode="&#x106;" horiz-adv-x="1437" d="M78 692q0 213 96 392t263.5 277t366.5 98q154 0 306 -75q43 -25 63 -25q28 0 49 22q28 28 39 78h36l33 -484h-33q-64 217 -186 313t-290 96q-142 0 -257.5 -72.5t-181 -229.5t-65.5 -392q0 -194 62.5 -336t187.5 -218t284 -76q138 0 245 59.5t234 236.5l32 -23 q-105 -189 -248.5 -277.5t-341.5 -88.5q-355 0 -548 264q-146 196 -146 461zM657 1579v27q23 29 47.5 67t48 78.5t45 81t37.5 74.5h219v-21q-19 -27 -56 -67.5t-82 -84.5t-92.5 -85.5t-88.5 -69.5h-78z" />
<glyph unicode="&#x107;" horiz-adv-x="956" d="M73 481q0 228 136 369t325 141q140 0 232 -74t92 -156q0 -41 -24.5 -65t-72.5 -24q-63 0 -93 39q-20 21 -25 84t-42 96q-36 32 -103 32q-103 0 -169 -78q-86 -103 -86 -273q0 -173 85 -306t229 -133q105 0 187 72q58 50 112 176l30 -15q-39 -189 -152 -293t-251 -104 q-166 0 -288 138t-122 374zM465 1241v27q23 29 47.5 67t48 78.5t45 81t37.5 74.5h219v-21q-19 -27 -56 -67.5t-82 -84.5t-92.5 -85.5t-88.5 -69.5h-78z" />
<glyph unicode="&#x108;" horiz-adv-x="1437" d="M78 692q0 213 96 392t263.5 277t366.5 98q154 0 306 -75q43 -25 63 -25q28 0 49 22q28 28 39 78h36l33 -484h-33q-64 217 -186 313t-290 96q-142 0 -257.5 -72.5t-181 -229.5t-65.5 -392q0 -194 62.5 -336t187.5 -218t284 -76q138 0 245 59.5t234 236.5l32 -23 q-105 -189 -248.5 -277.5t-341.5 -88.5q-355 0 -548 264q-146 196 -146 461zM459 1579v27q24 29 53 67t57.5 78.5t53.5 81t41 74.5h194q16 -34 41 -74.5t53.5 -81t57.5 -78.5t53 -67v-27h-80q-59 34 -118 84.5t-105 99.5q-47 -49 -105 -99.5t-116 -84.5h-80z" />
<glyph unicode="&#x109;" horiz-adv-x="956" d="M73 481q0 228 136 369t325 141q140 0 232 -74t92 -156q0 -41 -24.5 -65t-72.5 -24q-63 0 -93 39q-20 21 -25 84t-42 96q-36 32 -103 32q-103 0 -169 -78q-86 -103 -86 -273q0 -173 85 -306t229 -133q105 0 187 72q58 50 112 176l30 -15q-39 -189 -152 -293t-251 -104 q-166 0 -288 138t-122 374zM278 1241v27q24 29 53 67t57.5 78.5t53.5 81t41 74.5h194q16 -34 41 -74.5t53.5 -81t57.5 -78.5t53 -67v-27h-80q-59 34 -118 84.5t-105 99.5q-47 -49 -105 -99.5t-116 -84.5h-80z" />
<glyph unicode="&#x10a;" horiz-adv-x="1437" d="M78 692q0 213 96 392t263.5 277t366.5 98q154 0 306 -75q43 -25 63 -25q28 0 49 22q28 28 39 78h36l33 -484h-33q-64 217 -186 313t-290 96q-142 0 -257.5 -72.5t-181 -229.5t-65.5 -392q0 -194 62.5 -336t187.5 -218t284 -76q138 0 245 59.5t234 236.5l32 -23 q-105 -189 -248.5 -277.5t-341.5 -88.5q-355 0 -548 264q-146 196 -146 461zM651 1737q0 36 9 60t25 39t37 21t46 6q24 0 45 -6t37 -21t25.5 -39t9.5 -60t-9.5 -60t-25.5 -39t-37 -21.5t-45 -6.5q-25 0 -46 6.5t-37 21.5t-25 39t-9 60z" />
<glyph unicode="&#x10b;" horiz-adv-x="956" d="M73 481q0 228 136 369t325 141q140 0 232 -74t92 -156q0 -41 -24.5 -65t-72.5 -24q-63 0 -93 39q-20 21 -25 84t-42 96q-36 32 -103 32q-103 0 -169 -78q-86 -103 -86 -273q0 -173 85 -306t229 -133q105 0 187 72q58 50 112 176l30 -15q-39 -189 -152 -293t-251 -104 q-166 0 -288 138t-122 374zM463 1399q0 36 9 60t25 39t37 21t46 6q24 0 45 -6t37 -21t25.5 -39t9.5 -60t-9.5 -60t-25.5 -39t-37 -21.5t-45 -6.5q-25 0 -46 6.5t-37 21.5t-25 39t-9 60z" />
<glyph unicode="&#x10c;" horiz-adv-x="1437" d="M78 692q0 213 96 392t263.5 277t366.5 98q154 0 306 -75q43 -25 63 -25q28 0 49 22q28 28 39 78h36l33 -484h-33q-64 217 -186 313t-290 96q-142 0 -257.5 -72.5t-181 -229.5t-65.5 -392q0 -194 62.5 -336t187.5 -218t284 -76q138 0 245 59.5t234 236.5l32 -23 q-105 -189 -248.5 -277.5t-341.5 -88.5q-355 0 -548 264q-146 196 -146 461zM436 1880v27h80q29 -18 58.5 -40t58 -46.5t55 -50t49.5 -50.5q23 25 49.5 50.5t55.5 50t59 46.5t59 40h80v-27q-24 -29 -53 -67t-57.5 -78.5t-53.5 -80.5t-41 -75h-194q-16 35 -41 75t-53.5 80.5 t-57.5 78.5t-53 67z" />
<glyph unicode="&#x10d;" horiz-adv-x="956" d="M73 481q0 228 136 369t325 141q140 0 232 -74t92 -156q0 -41 -24.5 -65t-72.5 -24q-63 0 -93 39q-20 21 -25 84t-42 96q-36 32 -103 32q-103 0 -169 -78q-86 -103 -86 -273q0 -173 85 -306t229 -133q105 0 187 72q58 50 112 176l30 -15q-39 -189 -152 -293t-251 -104 q-166 0 -288 138t-122 374zM274 1542v27h80q29 -18 58.5 -40t58 -46.5t55 -50t49.5 -50.5q23 25 49.5 50.5t55.5 50t59 46.5t59 40h80v-27q-24 -29 -53 -67t-57.5 -78.5t-53.5 -80.5t-41 -75h-194q-16 35 -41 75t-53.5 80.5t-57.5 78.5t-53 67z" />
<glyph unicode="&#x10e;" horiz-adv-x="1556" d="M37 0v39h54q90 0 129 58q21 34 21 155v923q0 133 -28 168q-40 45 -122 45h-54v39h582q319 0 485.5 -72t268 -242.5t101.5 -392.5q0 -298 -180 -496q-203 -224 -620 -224h-637zM377 1880v27h80q29 -18 58.5 -40t58 -46.5t55 -50t49.5 -50.5q23 25 49.5 50.5t55.5 50 t59 46.5t59 40h80v-27q-24 -29 -53 -67t-57.5 -78.5t-53.5 -80.5t-41 -75h-194q-16 35 -41 75t-53.5 80.5t-57.5 78.5t-53 67zM444 103q134 -30 224 -30q243 0 405.5 171t162.5 467q0 295 -162.5 465.5t-413.5 170.5q-95 0 -216 -30v-1214z" />
<glyph unicode="&#x10f;" horiz-adv-x="1078" d="M71 442q0 206 130 378.5t338 172.5q128 0 210 -82v180q0 166 -8.5 203.5t-25.5 50t-43 12.5t-71 -14l-15 37l288 115h49v-1114q0 -168 7.5 -205.5t25 -53t40.5 -15.5q28 0 75 21l11 -37l-284 -122h-49v138q-73 -72 -139.5 -105t-144.5 -33q-157 0 -275.5 133t-118.5 340z M266 526q0 -213 91 -326.5t206 -113.5q97 0 186 95v498q-7 72 -38.5 130.5t-83 89t-101.5 30.5q-92 0 -166 -84q-94 -111 -94 -319zM1149 1229v26q17 69 33 148t29 153h178v-20q-14 -32 -34 -72t-43.5 -81.5t-47.5 -81.5t-45 -72h-70z" />
<glyph unicode="&#x110;" horiz-adv-x="1489" d="M78 0v86h26q35 0 65.5 5t53.5 20.5t36 44.5t13 77v482h-194v100h194v422q0 45 -13.5 72.5t-36.5 42.5t-53.5 19.5t-64.5 4.5h-26v86h627q158 0 282 -48.5t209.5 -141.5t130.5 -229t45 -310q0 -168 -42 -303.5t-125 -231t-208.5 -147t-291.5 -51.5h-627zM479 104h178 q122 0 213.5 41.5t152.5 121.5t91.5 197t30.5 269t-30.5 269t-91 196.5t-152 120.5t-212.5 41h-180v-545h348v-100h-348v-611z" />
<glyph unicode="&#x111;" horiz-adv-x="1257" d="M113 526q0 143 27 247t80 171.5t131 100t179 32.5q59 0 107 -13t86.5 -37t68.5 -57t52 -73h12q-3 50 -6 95q-2 38 -4 77t-2 59v86h-350v97h350v20q0 45 -13.5 72t-36.5 42t-53.5 20t-64.5 5h-17v86h377v-245h187v-97h-187v-989q0 -45 13.5 -72.5t36.5 -42.5t53.5 -19.5 t64.5 -4.5h17v-86h-347l-22 184h-8q-23 -47 -52.5 -84.5t-67.5 -64t-86 -41t-108 -14.5q-101 0 -179 32t-131 99t-80 170t-27 245zM311 524q0 -207 59 -310t195 -103q80 0 133.5 25.5t86 77t46 129.5t13.5 183q0 102 -13.5 180.5t-46 132t-86.5 80.5t-135 27 q-135 0 -193.5 -108t-58.5 -314z" />
<glyph unicode="&#x112;" horiz-adv-x="1317" d="M45 0v39h50q49 0 94 23q35 18 47 51t12 139v927q0 136 -26 168q-38 41 -127 41h-50v39h1099l15 -312h-40q-23 111 -49.5 153t-80.5 66q-40 16 -146 16h-393v-566h313q123 0 164 37q55 49 60 170h41v-495h-41q-12 103 -29 133q-18 38 -61.5 59t-133.5 21h-313v-472 q0 -95 9 -115.5t29 -32t81 -11.5h242q120 0 174.5 16.5t105.5 67.5q66 64 133 195h43l-123 -357h-1099zM354 1600v121h594v-121h-594z" />
<glyph unicode="&#x113;" horiz-adv-x="956" d="M80 469q0 249 126.5 386.5t319.5 137.5q161 0 265.5 -106.5t104.5 -285.5h-668q0 -215 105 -335q107 -124 249 -124q92 0 162 51.5t118 179.5l34 -21q-24 -144 -129 -263.5t-268 -119.5q-172 0 -295.5 136t-123.5 364zM228 662h446q-4 92 -21 131q-26 58 -77 91.5 t-111 33.5q-86 0 -155 -68t-82 -188zM262 1262v121h594v-121h-594z" />
<glyph unicode="&#x114;" horiz-adv-x="1317" d="M45 0v39h50q49 0 94 23q35 18 47 51t12 139v927q0 136 -26 168q-38 41 -127 41h-50v39h1099l15 -312h-40q-23 111 -49.5 153t-80.5 66q-40 16 -146 16h-393v-566h313q123 0 164 37q55 49 60 170h41v-495h-41q-12 103 -29 133q-18 38 -61.5 59t-133.5 21h-313v-472 q0 -95 9 -115.5t29 -32t81 -11.5h242q120 0 174.5 16.5t105.5 67.5q66 64 133 195h43l-123 -357h-1099zM352 1860h94q17 -75 67 -107.5t126 -32.5q75 0 125 32.5t67 107.5h95q-2 -58 -19.5 -109t-53 -89t-88.5 -60.5t-126 -22.5t-126.5 22.5t-88.5 60.5t-52.5 89t-19.5 109z " />
<glyph unicode="&#x115;" horiz-adv-x="956" d="M80 469q0 249 126.5 386.5t319.5 137.5q161 0 265.5 -106.5t104.5 -285.5h-668q0 -215 105 -335q107 -124 249 -124q92 0 162 51.5t118 179.5l34 -21q-24 -144 -129 -263.5t-268 -119.5q-172 0 -295.5 136t-123.5 364zM228 662h446q-4 92 -21 131q-26 58 -77 91.5 t-111 33.5q-86 0 -155 -68t-82 -188zM281 1522h94q17 -75 67 -107.5t126 -32.5q75 0 125 32.5t67 107.5h95q-2 -58 -19.5 -109t-53 -89t-88.5 -60.5t-126 -22.5t-126.5 22.5t-88.5 60.5t-52.5 89t-19.5 109z" />
<glyph unicode="&#x116;" horiz-adv-x="1317" d="M45 0v39h50q49 0 94 23q35 18 47 51t12 139v927q0 136 -26 168q-38 41 -127 41h-50v39h1099l15 -312h-40q-23 111 -49.5 153t-80.5 66q-40 16 -146 16h-393v-566h313q123 0 164 37q55 49 60 170h41v-495h-41q-12 103 -29 133q-18 38 -61.5 59t-133.5 21h-313v-472 q0 -95 9 -115.5t29 -32t81 -11.5h242q120 0 174.5 16.5t105.5 67.5q66 64 133 195h43l-123 -357h-1099zM542 1708q0 36 9 60t25 39t37 21t46 6q24 0 45 -6t37 -21t25.5 -39t9.5 -60t-9.5 -60t-25.5 -39t-37 -21.5t-45 -6.5q-25 0 -46 6.5t-37 21.5t-25 39t-9 60z" />
<glyph unicode="&#x117;" horiz-adv-x="956" d="M80 469q0 249 126.5 386.5t319.5 137.5q161 0 265.5 -106.5t104.5 -285.5h-668q0 -215 105 -335q107 -124 249 -124q92 0 162 51.5t118 179.5l34 -21q-24 -144 -129 -263.5t-268 -119.5q-172 0 -295.5 136t-123.5 364zM228 662h446q-4 92 -21 131q-26 58 -77 91.5 t-111 33.5q-86 0 -155 -68t-82 -188zM446 1399q0 36 9 60t25 39t37 21t46 6q24 0 45 -6t37 -21t25.5 -39t9.5 -60t-9.5 -60t-25.5 -39t-37 -21.5t-45 -6.5q-25 0 -46 6.5t-37 21.5t-25 39t-9 60z" />
<glyph unicode="&#x118;" horiz-adv-x="1317" d="M45 0v39h50q49 0 94 23q35 18 47 51t12 139v927q0 136 -26 168q-38 41 -127 41h-50v39h1099l15 -312h-40q-23 111 -49.5 153t-80.5 66q-40 16 -146 16h-393v-566h313q123 0 164 37q55 49 60 170h41v-495h-41q-12 103 -29 133q-18 38 -61.5 59t-133.5 21h-313v-472 q0 -95 9 -115.5t29 -32t81 -11.5h242q120 0 174.5 16.5t105.5 67.5q66 64 133 195h43l-123 -357h-1099zM714 -266q0 48 20 91t54 78.5t77.5 60.5t90.5 36h117q-32 -10 -66 -30t-61.5 -49.5t-45.5 -68.5t-18 -88q0 -34 10.5 -58.5t29.5 -40t45 -23t57 -7.5q27 0 59 4.5 t70 12.5v-111q-16 -8 -36.5 -14t-42.5 -10t-42.5 -6.5t-36.5 -2.5q-65 0 -117 13.5t-88.5 41t-56 70t-19.5 101.5z" />
<glyph unicode="&#x119;" horiz-adv-x="956" d="M80 469q0 249 126.5 386.5t319.5 137.5q161 0 265.5 -106.5t104.5 -285.5h-668q0 -215 105 -335q107 -124 249 -124q92 0 162 51.5t118 179.5l34 -21q-24 -144 -129 -263.5t-268 -119.5q-172 0 -295.5 136t-123.5 364zM228 662h446q-4 92 -21 131q-26 58 -77 91.5 t-111 33.5q-86 0 -155 -68t-82 -188zM471 -235q0 48 20 91t54 78.5t77.5 60.5t90.5 36h117q-32 -10 -66 -30t-61.5 -49.5t-45.5 -68.5t-18 -88q0 -34 10.5 -58.5t29.5 -40t45 -23t57 -7.5q27 0 59 4.5t70 12.5v-111q-16 -8 -36.5 -14t-42.5 -10t-42.5 -6.5t-36.5 -2.5 q-65 0 -117 13.5t-88.5 41t-56 70t-19.5 101.5z" />
<glyph unicode="&#x11a;" horiz-adv-x="1317" d="M45 0v39h50q49 0 94 23q35 18 47 51t12 139v927q0 136 -26 168q-38 41 -127 41h-50v39h1099l15 -312h-40q-23 111 -49.5 153t-80.5 66q-40 16 -146 16h-393v-566h313q123 0 164 37q55 49 60 170h41v-495h-41q-12 103 -29 133q-18 38 -61.5 59t-133.5 21h-313v-472 q0 -95 9 -115.5t29 -32t81 -11.5h242q120 0 174.5 16.5t105.5 67.5q66 64 133 195h43l-123 -357h-1099zM332 1880v27h80q29 -18 58.5 -40t58 -46.5t55 -50t49.5 -50.5q23 25 49.5 50.5t55.5 50t59 46.5t59 40h80v-27q-24 -29 -53 -67t-57.5 -78.5t-53.5 -80.5t-41 -75h-194 q-16 35 -41 75t-53.5 80.5t-57.5 78.5t-53 67z" />
<glyph unicode="&#x11b;" horiz-adv-x="956" d="M80 469q0 249 126.5 386.5t319.5 137.5q161 0 265.5 -106.5t104.5 -285.5h-668q0 -215 105 -335q107 -124 249 -124q92 0 162 51.5t118 179.5l34 -21q-24 -144 -129 -263.5t-268 -119.5q-172 0 -295.5 136t-123.5 364zM228 662h446q-4 92 -21 131q-26 58 -77 91.5 t-111 33.5q-86 0 -155 -68t-82 -188zM261 1542v27h80q29 -18 58.5 -40t58 -46.5t55 -50t49.5 -50.5q23 25 49.5 50.5t55.5 50t59 46.5t59 40h80v-27q-24 -29 -53 -67t-57.5 -78.5t-53.5 -80.5t-41 -75h-194q-16 35 -41 75t-53.5 80.5t-57.5 78.5t-53 67z" />
<glyph unicode="&#x11c;" horiz-adv-x="1556" d="M75 692q0 188 91 359q107 206 295 317q158 91 372 91q76 0 140 -11.5t180 -55.5q58 -24 80 -24q19 0 33.5 18.5t18.5 72.5h38l36 -450h-36q-56 168 -144 254q-128 123 -328 123q-271 0 -413 -216q-121 -183 -121 -433q0 -205 79.5 -373t206.5 -246.5t264 -78.5 q77 0 151.5 20.5t143.5 59.5v411q0 108 -17.5 141.5t-50.5 50.5t-119 17v39h551v-39h-27q-81 0 -111 -56q-22 -39 -22 -153v-437q-120 -65 -238.5 -95.5t-263.5 -30.5q-414 0 -627 266q-162 199 -162 459zM504 1579v27q24 29 53 67t57.5 78.5t53.5 81t41 74.5h194 q16 -34 41 -74.5t53.5 -81t57.5 -78.5t53 -67v-27h-80q-59 34 -118 84.5t-105 99.5q-47 -49 -105 -99.5t-116 -84.5h-80z" />
<glyph unicode="&#x11d;" horiz-adv-x="1078" d="M64 -266q0 27 11 53q18 38 74 108q8 10 108 114q-54 32 -77 58t-23 59q0 36 30 85.5t139 140.5q-89 43 -136.5 120.5t-47.5 169.5q0 145 107.5 247t276.5 102q138 0 239 -66h205q45 0 52.5 -2.5t10.5 -8.5q5 -11 5 -34q0 -27 -5 -37q-3 -6 -10.5 -10t-52.5 -4h-125 q58 -75 58 -193q0 -134 -103 -230t-275 -96q-75 0 -148 21q-48 -40 -63.5 -70t-15.5 -49q0 -21 16.5 -36.5t69.5 -24.5q28 -5 146 -7q219 -6 281 -15q98 -12 156.5 -71.5t58.5 -146.5q0 -119 -112 -224q-163 -152 -427 -152q-205 0 -345 92q-78 52 -78 107zM215 -185 q0 -50 60 -88q106 -66 305 -66q189 0 279 67t90 143q0 54 -53 78q-56 23 -217 27q-237 8 -364 24q-49 -54 -74.5 -100t-25.5 -85zM231 1241v27q24 29 53 67t57.5 78.5t53.5 81t41 74.5h194q16 -34 41 -74.5t53.5 -81t57.5 -78.5t53 -67v-27h-80q-59 34 -118 84.5t-105 99.5 q-47 -49 -105 -99.5t-116 -84.5h-80zM326 690q0 -165 71 -258q53 -70 140 -70q79 0 130 60.5t51 188.5q0 167 -72 261q-54 70 -138 70q-76 0 -129 -63t-53 -189z" />
<glyph unicode="&#x11e;" horiz-adv-x="1556" d="M75 692q0 188 91 359q107 206 295 317q158 91 372 91q76 0 140 -11.5t180 -55.5q58 -24 80 -24q19 0 33.5 18.5t18.5 72.5h38l36 -450h-36q-56 168 -144 254q-128 123 -328 123q-271 0 -413 -216q-121 -183 -121 -433q0 -205 79.5 -373t206.5 -246.5t264 -78.5 q77 0 151.5 20.5t143.5 59.5v411q0 108 -17.5 141.5t-50.5 50.5t-119 17v39h551v-39h-27q-81 0 -111 -56q-22 -39 -22 -153v-437q-120 -65 -238.5 -95.5t-263.5 -30.5q-414 0 -627 266q-162 199 -162 459zM520 1860h94q17 -75 67 -107.5t126 -32.5q75 0 125 32.5t67 107.5 h95q-2 -58 -19.5 -109t-53 -89t-88.5 -60.5t-126 -22.5t-126.5 22.5t-88.5 60.5t-52.5 89t-19.5 109z" />
<glyph unicode="&#x11f;" horiz-adv-x="1078" d="M64 -266q0 27 11 53q18 38 74 108q8 10 108 114q-54 32 -77 58t-23 59q0 36 30 85.5t139 140.5q-89 43 -136.5 120.5t-47.5 169.5q0 145 107.5 247t276.5 102q138 0 239 -66h205q45 0 52.5 -2.5t10.5 -8.5q5 -11 5 -34q0 -27 -5 -37q-3 -6 -10.5 -10t-52.5 -4h-125 q58 -75 58 -193q0 -134 -103 -230t-275 -96q-75 0 -148 21q-48 -40 -63.5 -70t-15.5 -49q0 -21 16.5 -36.5t69.5 -24.5q28 -5 146 -7q219 -6 281 -15q98 -12 156.5 -71.5t58.5 -146.5q0 -119 -112 -224q-163 -152 -427 -152q-205 0 -345 92q-78 52 -78 107zM215 -185 q0 -50 60 -88q106 -66 305 -66q189 0 279 67t90 143q0 54 -53 78q-56 23 -217 27q-237 8 -364 24q-49 -54 -74.5 -100t-25.5 -85zM238 1522h94q17 -75 67 -107.5t126 -32.5q75 0 125 32.5t67 107.5h95q-2 -58 -19.5 -109t-53 -89t-88.5 -60.5t-126 -22.5t-126.5 22.5 t-88.5 60.5t-52.5 89t-19.5 109zM326 690q0 -165 71 -258q53 -70 140 -70q79 0 130 60.5t51 188.5q0 167 -72 261q-54 70 -138 70q-76 0 -129 -63t-53 -189z" />
<glyph unicode="&#x120;" horiz-adv-x="1556" d="M75 692q0 188 91 359q107 206 295 317q158 91 372 91q76 0 140 -11.5t180 -55.5q58 -24 80 -24q19 0 33.5 18.5t18.5 72.5h38l36 -450h-36q-56 168 -144 254q-128 123 -328 123q-271 0 -413 -216q-121 -183 -121 -433q0 -205 79.5 -373t206.5 -246.5t264 -78.5 q77 0 151.5 20.5t143.5 59.5v411q0 108 -17.5 141.5t-50.5 50.5t-119 17v39h551v-39h-27q-81 0 -111 -56q-22 -39 -22 -153v-437q-120 -65 -238.5 -95.5t-263.5 -30.5q-414 0 -627 266q-162 199 -162 459zM708 1737q0 36 9 60t25 39t37 21t46 6q24 0 45 -6t37 -21t25.5 -39 t9.5 -60t-9.5 -60t-25.5 -39t-37 -21.5t-45 -6.5q-25 0 -46 6.5t-37 21.5t-25 39t-9 60z" />
<glyph unicode="&#x121;" horiz-adv-x="1078" d="M64 -266q0 27 11 53q18 38 74 108q8 10 108 114q-54 32 -77 58t-23 59q0 36 30 85.5t139 140.5q-89 43 -136.5 120.5t-47.5 169.5q0 145 107.5 247t276.5 102q138 0 239 -66h205q45 0 52.5 -2.5t10.5 -8.5q5 -11 5 -34q0 -27 -5 -37q-3 -6 -10.5 -10t-52.5 -4h-125 q58 -75 58 -193q0 -134 -103 -230t-275 -96q-75 0 -148 21q-48 -40 -63.5 -70t-15.5 -49q0 -21 16.5 -36.5t69.5 -24.5q28 -5 146 -7q219 -6 281 -15q98 -12 156.5 -71.5t58.5 -146.5q0 -119 -112 -224q-163 -152 -427 -152q-205 0 -345 92q-78 52 -78 107zM215 -185 q0 -50 60 -88q106 -66 305 -66q189 0 279 67t90 143q0 54 -53 78q-56 23 -217 27q-237 8 -364 24q-49 -54 -74.5 -100t-25.5 -85zM326 690q0 -165 71 -258q53 -70 140 -70q79 0 130 60.5t51 188.5q0 167 -72 261q-54 70 -138 70q-76 0 -129 -63t-53 -189zM407 1399 q0 36 9 60t25 39t37 21t46 6q24 0 45 -6t37 -21t25.5 -39t9.5 -60t-9.5 -60t-25.5 -39t-37 -21.5t-45 -6.5q-25 0 -46 6.5t-37 21.5t-25 39t-9 60z" />
<glyph unicode="&#x122;" horiz-adv-x="1556" d="M75 692q0 188 91 359q107 206 295 317q158 91 372 91q76 0 140 -11.5t180 -55.5q58 -24 80 -24q19 0 33.5 18.5t18.5 72.5h38l36 -450h-36q-56 168 -144 254q-128 123 -328 123q-271 0 -413 -216q-121 -183 -121 -433q0 -205 79.5 -373t206.5 -246.5t264 -78.5 q77 0 151.5 20.5t143.5 59.5v411q0 108 -17.5 141.5t-50.5 50.5t-119 17v39h551v-39h-27q-81 0 -111 -56q-22 -39 -22 -153v-437q-120 -65 -238.5 -95.5t-263.5 -30.5q-414 0 -627 266q-162 199 -162 459zM658 -426q17 68 33 147.5t28 153.5h199v-20q-14 -32 -34 -72 t-43.5 -82t-47.5 -82t-45 -72h-90v27z" />
<glyph unicode="&#x123;" horiz-adv-x="1078" d="M64 -266q0 27 11 53q18 38 74 108q8 10 108 114q-54 32 -77 58t-23 59q0 36 30 85.5t139 140.5q-89 43 -136.5 120.5t-47.5 169.5q0 145 107.5 247t276.5 102q138 0 239 -66h205q45 0 52.5 -2.5t10.5 -8.5q5 -11 5 -34q0 -27 -5 -37q-3 -6 -10.5 -10t-52.5 -4h-125 q58 -75 58 -193q0 -134 -103 -230t-275 -96q-75 0 -148 21q-48 -40 -63.5 -70t-15.5 -49q0 -21 16.5 -36.5t69.5 -24.5q28 -5 146 -7q219 -6 281 -15q98 -12 156.5 -71.5t58.5 -146.5q0 -119 -112 -224q-163 -152 -427 -152q-205 0 -345 92q-78 52 -78 107zM215 -185 q0 -50 60 -88q106 -66 305 -66q189 0 279 67t90 143q0 54 -53 78q-56 23 -217 27q-237 8 -364 24q-49 -54 -74.5 -100t-25.5 -85zM326 690q0 -165 71 -258q53 -70 140 -70q79 0 130 60.5t51 188.5q0 167 -72 261q-54 70 -138 70q-76 0 -129 -63t-53 -189zM430 1241v21 q14 32 34 72t43 81.5t47 81.5t46 72h90v-27q-17 -68 -33 -147.5t-29 -153.5h-198z" />
<glyph unicode="&#x124;" horiz-adv-x="1556" d="M37 0v39h52q88 0 126 52q26 35 26 161v921q0 110 -15 144q-9 28 -42 45q-46 26 -95 26h-52v39h611v-39h-51q-52 0 -98 -24q-31 -17 -43 -52t-12 -139v-408h662v408q0 110 -13 144q-11 28 -46 45q-45 26 -94 26h-53v39h614v-39h-52q-51 0 -96 -24q-34 -17 -46 -52 t-12 -139v-921q0 -108 13 -143q11 -25 43 -45q47 -25 98 -25h52v-39h-614v39h53q85 0 127 52q26 35 26 161v435h-662v-435q0 -108 13 -143q11 -25 42 -45q46 -25 98 -25h51v-39h-611zM510 1579v27q24 29 53 67t57.5 78.5t53.5 81t41 74.5h194q16 -34 41 -74.5t53.5 -81 t57.5 -78.5t53 -67v-27h-80q-59 34 -118 84.5t-105 99.5q-47 -49 -105 -99.5t-116 -84.5h-80z" />
<glyph unicode="&#x125;" horiz-adv-x="1078" d="M13 1380l289 115h50v-704q116 129 183.5 164.5t136.5 35.5q82 0 141 -45.5t87 -139.5q20 -69 20 -249v-340q0 -89 15 -124q11 -26 36 -40t94 -14v-39h-475v39h22q67 0 93.5 20.5t38.5 59.5q2 17 2 98v340q0 161 -16 209t-52 73t-88 25q-51 0 -106 -26.5t-132 -111.5v-509 q0 -98 10.5 -122t41 -40t102.5 -16v-39h-478v39q65 0 101 19q22 12 35 41t13 118v874q0 166 -8.5 203.5t-24.5 50t-45 12.5q-21 0 -71 -14zM332 1634v27q24 29 53 67t57.5 78.5t53.5 81t41 74.5h194q16 -34 41 -74.5t53.5 -81t57.5 -78.5t53 -67v-27h-80q-59 34 -118 84.5 t-105 99.5q-47 -49 -105 -99.5t-116 -84.5h-80z" />
<glyph unicode="&#x126;" horiz-adv-x="1624" d="M78 0v86h26q35 0 65.5 5t53.5 20.5t36 44.5t13 77v789h-194v100h194v115q0 45 -13.5 72.5t-36.5 42.5t-53.5 19.5t-64.5 4.5h-26v86h596v-86h-27q-34 0 -65 -5t-53.5 -20.5t-36 -44.5t-13.5 -77v-107h666v107q0 48 -13.5 77t-36 44.5t-53 20.5t-65.5 5h-27v86h596v-86 h-26q-35 0 -65.5 -5t-53.5 -20.5t-36 -44.5t-13 -77v-107h194v-100h-194v-799q0 -45 13.5 -72.5t36.5 -41.5t53.5 -18.5t64.5 -4.5h26v-86h-596v86h27q35 0 65.5 5t53 20.5t36 44.5t13.5 77v480h-666v-480q0 -48 13.5 -77t36 -44.5t53.5 -20.5t65 -5h27v-86h-596zM479 815 h666v207h-666v-207z" />
<glyph unicode="&#x127;" horiz-adv-x="1300" d="M35 1214v97h186v20q0 45 -13.5 72.5t-36.5 42.5t-53.5 19.5t-64.5 4.5h-16v86h377v-245h350v-97h-350v-149q0 -28 -1 -58.5t-3 -56.5q-2 -30 -4 -59h10q92 186 301 186q87 0 154.5 -23.5t113.5 -72t70 -124.5t24 -181v-443q0 -48 12 -77t33 -44.5t50 -20.5t63 -5h6v-86 h-356v666q0 67 -12 119t-38.5 88t-69.5 54.5t-105 18.5q-64 0 -110.5 -23.5t-77 -67t-45.5 -105t-15 -136.5v-391q0 -45 13.5 -72.5t36.5 -41.5t53.5 -18.5t64.5 -4.5h6v-86h-551v86h16q35 0 65.5 5t53 20.5t36 44.5t13.5 77v981h-186z" />
<glyph unicode="&#x128;" horiz-adv-x="718" d="M11 1600q3 47 16.5 90t40 77t66 54t94.5 20t99.5 -20t83 -44.5t72 -44.5t65.5 -20q30 0 48.5 9t29 24.5t15 35t7.5 40.5h92q-3 -47 -16.5 -90.5t-39.5 -77.5t-65 -54t-94 -20t-99.5 20t-83 44.5t-72 44.5t-66.5 20q-31 0 -49 -9t-28.5 -24t-15.5 -34.5t-8 -40.5h-92z M54 0v39h49q88 0 130 52q26 35 26 161v923q0 108 -16 142q-10 28 -43 45q-45 26 -97 26h-49v39h613v-39h-53q-88 0 -127 -52q-28 -34 -28 -161v-923q0 -108 15 -143q11 -25 44 -45q45 -25 96 -25h53v-39h-613z" />
<glyph unicode="&#x129;" horiz-adv-x="655" d="M-48 1262q3 47 16.5 90t40 77t66 54t94.5 20t99.5 -20t83 -44.5t72 -44.5t65.5 -20q30 0 48.5 9t29 24.5t15 35t7.5 40.5h92q-3 -47 -16.5 -90.5t-39.5 -77.5t-65 -54t-94 -20t-99.5 20t-83 44.5t-72 44.5t-66.5 20q-31 0 -49 -9t-28.5 -24t-15.5 -34.5t-8 -40.5h-92z M47 0v86h27q34 0 64.5 4.5t53.5 18.5t36.5 41.5t13.5 72.5v649q0 45 -13.5 72.5t-36.5 42.5t-53.5 20t-64.5 5h-6v86h366v-865q0 -48 13.5 -77t36 -44.5t53.5 -20.5t65 -5h27v-86h-582z" />
<glyph unicode="&#x12a;" horiz-adv-x="718" d="M54 0v39h49q88 0 130 52q26 35 26 161v923q0 108 -16 142q-10 28 -43 45q-45 26 -97 26h-49v39h613v-39h-53q-88 0 -127 -52q-28 -34 -28 -161v-923q0 -108 15 -143q11 -25 44 -45q45 -25 96 -25h53v-39h-613zM79 1600v121h594v-121h-594z" />
<glyph unicode="&#x12b;" horiz-adv-x="655" d="M1 1262v121h594v-121h-594zM47 0v86h27q34 0 64.5 4.5t53.5 18.5t36.5 41.5t13.5 72.5v649q0 45 -13.5 72.5t-36.5 42.5t-53.5 20t-64.5 5h-6v86h366v-865q0 -48 13.5 -77t36 -44.5t53.5 -20.5t65 -5h27v-86h-582z" />
<glyph unicode="&#x12c;" horiz-adv-x="718" d="M54 0v39h49q88 0 130 52q26 35 26 161v923q0 108 -16 142q-10 28 -43 45q-45 26 -97 26h-49v39h613v-39h-53q-88 0 -127 -52q-28 -34 -28 -161v-923q0 -108 15 -143q11 -25 44 -45q45 -25 96 -25h53v-39h-613zM89 1860h94q17 -75 67 -107.5t126 -32.5q75 0 125 32.5 t67 107.5h95q-2 -58 -19.5 -109t-53 -89t-88.5 -60.5t-126 -22.5t-126.5 22.5t-88.5 60.5t-52.5 89t-19.5 109z" />
<glyph unicode="&#x12d;" horiz-adv-x="655" d="M25 1522h94q17 -75 67 -107.5t126 -32.5q75 0 125 32.5t67 107.5h95q-2 -58 -19.5 -109t-53 -89t-88.5 -60.5t-126 -22.5t-126.5 22.5t-88.5 60.5t-52.5 89t-19.5 109zM47 0v86h27q34 0 64.5 4.5t53.5 18.5t36.5 41.5t13.5 72.5v649q0 45 -13.5 72.5t-36.5 42.5t-53.5 20 t-64.5 5h-6v86h366v-865q0 -48 13.5 -77t36 -44.5t53.5 -20.5t65 -5h27v-86h-582z" />
<glyph unicode="&#x12e;" horiz-adv-x="718" d="M54 0v39h49q88 0 130 52q26 35 26 161v923q0 108 -16 142q-10 28 -43 45q-45 26 -97 26h-49v39h613v-39h-53q-88 0 -127 -52q-28 -34 -28 -161v-923q0 -108 15 -143q11 -25 44 -45q45 -25 96 -25h53v-39h-613zM181 -266q0 48 20 91t54 78.5t77.5 60.5t90.5 36h117 q-32 -10 -66 -30t-61.5 -49.5t-45.5 -68.5t-18 -88q0 -34 10.5 -58.5t29.5 -40t45 -23t57 -7.5q27 0 59 4.5t70 12.5v-111q-16 -8 -36.5 -14t-42.5 -10t-42.5 -6.5t-36.5 -2.5q-65 0 -117 13.5t-88.5 41t-56 70t-19.5 101.5z" />
<glyph unicode="&#x12f;" horiz-adv-x="599" d="M62 874l292 117h47v-774q0 -89 13 -119.5t39 -44.5t92 -14v-39h-467v39q71 0 94.5 12.5t37.5 45t14 120.5v371q0 158 -9 205q-5 32 -21.5 46t-44.5 14t-71 -16zM103 -266q0 48 20 91t54 78.5t77.5 60.5t90.5 36h117q-32 -10 -66 -30t-61.5 -49.5t-45.5 -68.5t-18 -88 q0 -34 10.5 -58.5t29.5 -40t45 -23t57 -7.5q27 0 59 4.5t70 12.5v-111q-16 -8 -36.5 -14t-42.5 -10t-42.5 -6.5t-36.5 -2.5q-65 0 -117 13.5t-88.5 41t-56 70t-19.5 101.5zM205 1390q0 46 31.5 75.5t76.5 29.5q44 0 74 -29.5t30 -75.5q0 -43 -30 -75t-74 -32q-43 0 -75.5 32 t-32.5 75z" />
<glyph unicode="&#x130;" horiz-adv-x="718" d="M54 0v39h49q88 0 130 52q26 35 26 161v923q0 108 -16 142q-10 28 -43 45q-45 26 -97 26h-49v39h613v-39h-53q-88 0 -127 -52q-28 -34 -28 -161v-923q0 -108 15 -143q11 -25 44 -45q45 -25 96 -25h53v-39h-613zM258 1737q0 36 9 60t25 39t37 21t46 6q24 0 45 -6t37 -21 t25.5 -39t9.5 -60t-9.5 -60t-25.5 -39t-37 -21.5t-45 -6.5q-25 0 -46 6.5t-37 21.5t-25 39t-9 60z" />
<glyph unicode="&#x131;" horiz-adv-x="655" d="M47 0v86h27q34 0 64.5 4.5t53.5 18.5t36.5 41.5t13.5 72.5v649q0 45 -13.5 72.5t-36.5 42.5t-53.5 20t-64.5 5h-6v86h366v-865q0 -48 13.5 -77t36 -44.5t53.5 -20.5t65 -5h27v-86h-582z" />
<glyph unicode="&#x132;" horiz-adv-x="1425" d="M54 0v39h49q88 0 130 52q26 35 26 161v923q0 108 -16 142q-10 28 -43 45q-45 26 -97 26h-49v39h613v-39h-53q-88 0 -127 -52q-28 -34 -28 -161v-923q0 -108 15 -143q11 -25 44 -45q45 -25 96 -25h53v-39h-613zM739 129q0 50 26 79q34 31 80 31q34 0 61 -23t68 -117 q24 -56 63 -56q27 0 52 34t25 123v975q0 108 -15 142q-8 28 -43 45q-45 26 -94 26h-53v39h610v-39h-51q-87 0 -128 -52q-23 -34 -23 -161v-699q0 -161 -35.5 -260t-122 -174t-208.5 -75q-100 0 -156 48.5t-56 113.5z" />
<glyph unicode="&#x133;" horiz-adv-x="1270" d="M62 874l292 117h47v-774q0 -89 13 -119.5t39 -44.5t92 -14v-39h-467v39q71 0 94.5 12.5t37.5 45t14 120.5v371q0 158 -9 205q-5 32 -21.5 46t-44.5 14t-71 -16zM205 1390q0 46 31.5 75.5t76.5 29.5q44 0 74 -29.5t30 -75.5q0 -43 -30 -75t-74 -32q-43 0 -75.5 32 t-32.5 75zM489 -360q0 39 25.5 64.5t60.5 25.5q29 0 56 -12q20 -9 70.5 -54t84.5 -45q26 0 50 19t35.5 64.5t11.5 198.5v685q0 160 -8 205q-8 34 -24.5 48t-42.5 14q-30 0 -71 -16l-15 37l290 117h46v-970q0 -245 -106 -365.5t-273 -120.5q-97 0 -143.5 34t-46.5 71z M860 1390q0 46 31.5 76.5t76.5 30.5q44 0 75.5 -30.5t31.5 -76.5q0 -45 -31.5 -76t-75.5 -31q-45 0 -76.5 31t-31.5 76z" />
<glyph unicode="&#x134;" horiz-adv-x="839" d="M45 129q0 50 26 79q34 31 80 31q34 0 61 -23t68 -117q24 -56 63 -56q27 0 52 34t25 123v975q0 108 -15 142q-8 28 -43 45q-45 26 -94 26h-53v39h610v-39h-51q-87 0 -128 -52q-23 -34 -23 -161v-699q0 -161 -35.5 -260t-122 -174t-208.5 -75q-100 0 -156 48.5t-56 113.5z M73 1579v27q24 29 53 67t57.5 78.5t53.5 81t41 74.5h194q16 -34 41 -74.5t53.5 -81t57.5 -78.5t53 -67v-27h-80q-59 34 -118 84.5t-105 99.5q-47 -49 -105 -99.5t-116 -84.5h-80z" />
<glyph unicode="&#x135;" horiz-adv-x="614" d="M-25 -395h15q55 0 98 18.5t72.5 62t45 116t15.5 180.5v890q0 45 -13.5 72.5t-36.5 42.5t-53.5 20t-64.5 5h-6v86h367v-1114q0 -138 -30 -229.5t-84 -146t-128.5 -77.5t-163.5 -23h-33v97zM-23 1241v27q24 29 53 67t57.5 78.5t53.5 81t41 74.5h194q16 -34 41 -74.5 t53.5 -81t57.5 -78.5t53 -67v-27h-80q-59 34 -118 84.5t-105 99.5q-47 -49 -105 -99.5t-116 -84.5h-80z" />
<glyph unicode="&#x136;" horiz-adv-x="1556" d="M37 0v39h49q89 0 129 52q24 35 24 161v923q0 108 -13 144q-11 26 -42 43q-48 26 -98 26h-49v39h607v-39h-50q-49 0 -95 -24q-31 -17 -44 -50t-13 -139v-438q21 21 144 133q312 287 377 385q28 40 28 73q0 23 -21 41.5t-74 18.5h-34v39h526v-39q-47 0 -85 -12t-93 -45.5 t-135 -106.5q-24 -21 -213 -215l-218 -218l526 -521q129 -132 221 -178.5t183 -52.5v-39h-678v39q60 0 87.5 20.5t27.5 45.5q0 26 -11 45.5t-65 73.5l-493 490v-462q0 -108 13 -143q10 -25 44 -45q46 -25 95 -25h50v-39h-607zM612 -426q17 68 33 147.5t28 153.5h199v-20 q-14 -32 -34 -72t-43.5 -82t-47.5 -82t-45 -72h-90v27z" />
<glyph unicode="&#x137;" horiz-adv-x="1078" d="M16 0v39q75 0 113 17q22 11 33 35q17 37 17 121v876q0 169 -7.5 206.5t-25 51t-45.5 13.5q-21 0 -64 -16l-21 37l288 115h50v-958l243 224q77 72 90 90q10 13 10 27q0 20 -17.5 35.5t-56.5 17.5v32h417v-32q-86 -2 -143 -26.5t-125 -88.5l-247 -228l247 -313 q102 -129 137 -164q52 -49 89 -64q28 -8 93 -8v-39h-468v39q39 0 53 10.5t14 32.5q0 23 -42 78l-294 377v-320q0 -94 12.5 -123.5t36.5 -42t105 -12.5v-39h-492zM494 -426q17 68 33 147.5t28 153.5h199v-20q-14 -32 -34 -72t-43.5 -82t-47.5 -82t-45 -72h-90v27z" />
<glyph unicode="&#x138;" horiz-adv-x="1198" d="M37 0v86h16q35 0 65.5 5t53 20.5t36 44.5t13.5 77v640q0 45 -13.5 72.5t-36.5 42.5t-53.5 19.5t-64.5 4.5h-16v86h377v-332q0 -28 -1 -71.5t-3 -85.5q-2 -48 -4 -101l256 280q33 37 54.5 65t34.5 49t18 37.5t5 31.5q0 26 -24.5 33.5t-75.5 7.5v86h452v-86 q-71 0 -139.5 -50t-148.5 -141l-144 -162l273 -405q53 -82 105.5 -125t121.5 -43h6v-86h-29q-89 0 -146.5 5.5t-99.5 26t-77 60t-78 107.5l-205 321l-151 -112v-185q0 -45 13.5 -72.5t36.5 -41.5t53.5 -18.5t64.5 -4.5h6v-86h-551z" />
<glyph unicode="&#x139;" horiz-adv-x="1317" d="M43 0v39h54q90 0 129 58q22 34 22 158v920q0 133 -28 168q-41 45 -123 45h-54v39h647v-39q-114 2 -159.5 -20.5t-63 -56.5t-17.5 -159v-897q0 -89 18 -122q13 -22 38.5 -32t163.5 -10h104q166 0 231.5 23.5t120 86t110.5 194.5l33 -7l-119 -388h-1107zM304 1579v27 q23 29 47.5 67t48 78.5t45 81t37.5 74.5h219v-21q-19 -27 -56 -67.5t-82 -84.5t-92.5 -85.5t-88.5 -69.5h-78z" />
<glyph unicode="&#x13a;" horiz-adv-x="599" d="M64 1380l288 115h47v-1278q0 -89 12.5 -118t41 -44.5t101.5 -15.5v-39h-472v39q67 0 90.5 12.5t37.5 45t14 120.5v876q0 164 -7 201.5t-23.5 50t-42.5 12.5q-25 0 -69 -14zM216 1636v27q23 29 47.5 67t48 78.5t45 81t37.5 74.5h219v-21q-19 -27 -56 -67.5t-82 -84.5 t-92.5 -85.5t-88.5 -69.5h-78z" />
<glyph unicode="&#x13b;" horiz-adv-x="1317" d="M43 0v39h54q90 0 129 58q22 34 22 158v920q0 133 -28 168q-41 45 -123 45h-54v39h647v-39q-114 2 -159.5 -20.5t-63 -56.5t-17.5 -159v-897q0 -89 18 -122q13 -22 38.5 -32t163.5 -10h104q166 0 231.5 23.5t120 86t110.5 194.5l33 -7l-119 -388h-1107zM522 -426 q17 68 33 147.5t28 153.5h199v-20q-14 -32 -34 -72t-43.5 -82t-47.5 -82t-45 -72h-90v27z" />
<glyph unicode="&#x13c;" horiz-adv-x="599" d="M64 1380l288 115h47v-1278q0 -89 12.5 -118t41 -44.5t101.5 -15.5v-39h-472v39q67 0 90.5 12.5t37.5 45t14 120.5v876q0 164 -7 201.5t-23.5 50t-42.5 12.5q-25 0 -69 -14zM163 -426q17 68 33 147.5t28 153.5h199v-20q-14 -32 -34 -72t-43.5 -82t-47.5 -82t-45 -72h-90 v27z" />
<glyph unicode="&#x13d;" horiz-adv-x="1317" d="M43 0v39h54q90 0 129 58q22 34 22 158v920q0 133 -28 168q-41 45 -123 45h-54v39h647v-39q-114 2 -159.5 -20.5t-63 -56.5t-17.5 -159v-897q0 -89 18 -122q13 -22 38.5 -32t163.5 -10h104q166 0 231.5 23.5t120 86t110.5 194.5l33 -7l-119 -388h-1107zM864 1136v26 q17 69 33 148t29 153h178v-20q-14 -32 -34 -72t-43.5 -81.5t-47.5 -81.5t-45 -72h-70z" />
<glyph unicode="&#x13e;" horiz-adv-x="599" d="M64 1380l288 115h47v-1278q0 -89 12.5 -118t41 -44.5t101.5 -15.5v-39h-472v39q67 0 90.5 12.5t37.5 45t14 120.5v876q0 164 -7 201.5t-23.5 50t-42.5 12.5q-25 0 -69 -14zM526 1229v26q17 69 33 148t29 153h178v-20q-14 -32 -34 -72t-43.5 -81.5t-47.5 -81.5t-45 -72 h-70z" />
<glyph unicode="&#x13f;" horiz-adv-x="1317" d="M43 0v39h54q90 0 129 58q22 34 22 158v920q0 133 -28 168q-41 45 -123 45h-54v39h647v-39q-114 2 -159.5 -20.5t-63 -56.5t-17.5 -159v-897q0 -89 18 -122q13 -22 38.5 -32t163.5 -10h104q166 0 231.5 23.5t120 86t110.5 194.5l33 -7l-119 -388h-1107zM880 755q0 36 9 60 t25 39t37 21t46 6q24 0 45 -6t37 -21t25.5 -39t9.5 -60t-9.5 -60t-25.5 -39t-37 -21.5t-45 -6.5q-25 0 -46 6.5t-37 21.5t-25 39t-9 60z" />
<glyph unicode="&#x140;" horiz-adv-x="758" d="M64 1380l288 115h47v-1278q0 -89 12.5 -118t41 -44.5t101.5 -15.5v-39h-472v39q67 0 90.5 12.5t37.5 45t14 120.5v876q0 164 -7 201.5t-23.5 50t-42.5 12.5q-25 0 -69 -14zM579 642q0 36 9 60t25 39t37 21t46 6q24 0 45 -6t37 -21t25.5 -39t9.5 -60t-9.5 -60t-25.5 -39 t-37 -21.5t-45 -6.5q-25 0 -46 6.5t-37 21.5t-25 39t-9 60z" />
<glyph unicode="&#x141;" horiz-adv-x="1276" d="M78 0v86h26q35 0 65.5 5t53.5 20.5t36 44.5t13 77v347l-194 -111v115l194 112v533q0 48 -13 77t-36 44.5t-53.5 20.5t-65.5 5h-26v86h596v-86h-27q-34 0 -64.5 -4.5t-53.5 -19.5t-36.5 -42.5t-13.5 -72.5v-422l320 186v-118l-320 -185v-596h404q46 0 78.5 16.5t53.5 43 t32.5 59.5t15.5 66l20 153h107l-14 -440h-1098z" />
<glyph unicode="&#x142;" horiz-adv-x="664" d="M57 0v86h27q35 0 65.5 5t53 20.5t36 44.5t13.5 77v334l-174 -98v115l174 100v647q0 45 -13.5 72.5t-36.5 42.5t-53.5 19.5t-64.5 4.5h-27v86h387v-761l193 110v-119l-193 -108v-445q0 -48 13.5 -77t36 -44.5t53.5 -20.5t65 -5h27v-86h-582z" />
<glyph unicode="&#x143;" horiz-adv-x="1556" d="M-28 1388v39h388l870 -1070v822q0 131 -27 166q-39 43 -125 43h-48v39h496v-39h-50q-90 0 -129 -54q-24 -35 -24 -155v-1203h-36l-942 1149v-877q0 -131 28 -164q40 -45 123 -45h51v-39h-498v39h50q92 0 129 54q24 35 24 155v991q-63 73 -93.5 95.5t-94.5 45.5 q-29 8 -92 8zM706 1579v27q23 29 47.5 67t48 78.5t45 81t37.5 74.5h219v-21q-19 -27 -56 -67.5t-82 -84.5t-92.5 -85.5t-88.5 -69.5h-78z" />
<glyph unicode="&#x144;" horiz-adv-x="1078" d="M13 874l291 117h46v-202q168 202 322 202q79 0 135.5 -38.5t90.5 -129.5q22 -62 22 -194v-412q0 -89 15 -124q11 -26 37 -40t97 -14v-39h-479v39h22q67 0 93.5 20.5t38.5 59.5q5 14 5 98v395q0 132 -35 191t-117 59q-125 0 -247 -136v-509q0 -96 10 -120q15 -30 41 -44 t103 -14v-39h-476v39h21q74 0 100 36t26 142v359q0 175 -7.5 212t-23.5 51t-45 14t-71 -16zM569 1241v27q23 29 47.5 67t48 78.5t45 81t37.5 74.5h219v-21q-19 -27 -56 -67.5t-82 -84.5t-92.5 -85.5t-88.5 -69.5h-78z" />
<glyph unicode="&#x145;" horiz-adv-x="1556" d="M-28 1388v39h388l870 -1070v822q0 131 -27 166q-39 43 -125 43h-48v39h496v-39h-50q-90 0 -129 -54q-24 -35 -24 -155v-1203h-36l-942 1149v-877q0 -131 28 -164q40 -45 123 -45h51v-39h-498v39h50q92 0 129 54q24 35 24 155v991q-63 73 -93.5 95.5t-94.5 45.5 q-29 8 -92 8zM672 -426q17 68 33 147.5t28 153.5h199v-20q-14 -32 -34 -72t-43.5 -82t-47.5 -82t-45 -72h-90v27z" />
<glyph unicode="&#x146;" horiz-adv-x="1078" d="M13 874l291 117h46v-202q168 202 322 202q79 0 135.5 -38.5t90.5 -129.5q22 -62 22 -194v-412q0 -89 15 -124q11 -26 37 -40t97 -14v-39h-479v39h22q67 0 93.5 20.5t38.5 59.5q5 14 5 98v395q0 132 -35 191t-117 59q-125 0 -247 -136v-509q0 -96 10 -120q15 -30 41 -44 t103 -14v-39h-476v39h21q74 0 100 36t26 142v359q0 175 -7.5 212t-23.5 51t-45 14t-71 -16zM533 -426q17 68 33 147.5t28 153.5h199v-20q-14 -32 -34 -72t-43.5 -82t-47.5 -82t-45 -72h-90v27z" />
<glyph unicode="&#x147;" horiz-adv-x="1556" d="M-28 1388v39h388l870 -1070v822q0 131 -27 166q-39 43 -125 43h-48v39h496v-39h-50q-90 0 -129 -54q-24 -35 -24 -155v-1203h-36l-942 1149v-877q0 -131 28 -164q40 -45 123 -45h51v-39h-498v39h50q92 0 129 54q24 35 24 155v991q-63 73 -93.5 95.5t-94.5 45.5 q-29 8 -92 8zM527 1880v27h80q29 -18 58.5 -40t58 -46.5t55 -50t49.5 -50.5q23 25 49.5 50.5t55.5 50t59 46.5t59 40h80v-27q-24 -29 -53 -67t-57.5 -78.5t-53.5 -80.5t-41 -75h-194q-16 35 -41 75t-53.5 80.5t-57.5 78.5t-53 67z" />
<glyph unicode="&#x148;" horiz-adv-x="1078" d="M13 874l291 117h46v-202q168 202 322 202q79 0 135.5 -38.5t90.5 -129.5q22 -62 22 -194v-412q0 -89 15 -124q11 -26 37 -40t97 -14v-39h-479v39h22q67 0 93.5 20.5t38.5 59.5q5 14 5 98v395q0 132 -35 191t-117 59q-125 0 -247 -136v-509q0 -96 10 -120q15 -30 41 -44 t103 -14v-39h-476v39h21q74 0 100 36t26 142v359q0 175 -7.5 212t-23.5 51t-45 14t-71 -16zM375 1542v27h80q29 -18 58.5 -40t58 -46.5t55 -50t49.5 -50.5q23 25 49.5 50.5t55.5 50t59 46.5t59 40h80v-27q-24 -29 -53 -67t-57.5 -78.5t-53.5 -80.5t-41 -75h-194 q-16 35 -41 75t-53.5 80.5t-57.5 78.5t-53 67z" />
<glyph unicode="&#x149;" horiz-adv-x="1597" d="M1 883v86q101 32 148 78t47 106q0 20 -11 33.5t-28 24t-36 20.5t-36 24t-28 34.5t-11 51.5q0 59 38.5 90t95.5 31q32 0 60 -11.5t50 -34t34.5 -56t12.5 -76.5q0 -65 -18 -126t-58.5 -113t-104 -93.5t-155.5 -68.5zM289 874l291 117h46v-202q168 202 322 202 q79 0 135.5 -38.5t90.5 -129.5q22 -62 22 -194v-412q0 -89 15 -124q11 -26 37 -40t97 -14v-39h-479v39h22q67 0 93.5 20.5t38.5 59.5q5 14 5 98v395q0 132 -35 191t-117 59q-125 0 -247 -136v-509q0 -96 10 -120q15 -30 41 -44t103 -14v-39h-476v39h21q74 0 100 36t26 142 v359q0 175 -7.5 212t-23.5 51t-45 14t-71 -16z" />
<glyph unicode="&#x14a;" horiz-adv-x="1563" d="M78 0v86h26q35 0 65.5 5t53.5 20.5t36 44.5t13 77v1004q0 45 -13.5 72.5t-36.5 42.5t-53.5 19.5t-64.5 4.5h-26v86h375l733 -1104v879q0 45 -13.5 72.5t-36.5 42.5t-53.5 19.5t-64.5 4.5h-27v86h514v-86h-26q-35 0 -65.5 -5t-53.5 -20.5t-36 -44.5t-13 -77v-1245 q0 -138 -19.5 -229.5t-58.5 -146t-97.5 -77.5t-136.5 -23h-47v97h29q49 0 87 18.5t64.5 62t40 116t13.5 180.5v18l-789 1180v-947q0 -48 13.5 -77t36 -44.5t53 -20.5t65.5 -5h27v-86h-514z" />
<glyph unicode="&#x14b;" horiz-adv-x="1300" d="M57 0v86h17q35 0 65.5 5t53 20.5t36 44.5t13.5 77v639q0 45 -13.5 72.5t-36.5 42.5t-53.5 20t-64.5 5h-6v86h331l27 -166h10q32 57 67.5 93.5t75 57t84 28t93.5 7.5q81 0 144.5 -23.5t108 -72t68 -124.5t23.5 -181v-733q0 -138 -28 -229.5t-78.5 -146t-120 -77.5 t-152.5 -23h-31v97h12q50 0 88 18.5t64 62t39.5 116t13.5 180.5v725q0 67 -12 119t-38.5 88t-69.5 54.5t-105 18.5q-70 0 -117.5 -27t-76.5 -73t-41.5 -106t-12.5 -126v-432q0 -45 13.5 -72.5t36.5 -41.5t53.5 -18.5t64.5 -4.5h6v-86h-551z" />
<glyph unicode="&#x14c;" horiz-adv-x="1556" d="M75 718q0 341 233 555q200 186 481 186q278 0 481.5 -211t203.5 -526q0 -325 -205.5 -540t-496.5 -215q-296 0 -496.5 209.5t-200.5 541.5zM317 722q0 -349 148 -537q117 -142 304 -142q201 0 332.5 156.5t131.5 494.5q0 367 -145 545q-115 145 -321 145 q-189 0 -306 -143q-144 -176 -144 -519zM459 1600v121h594v-121h-594z" />
<glyph unicode="&#x14d;" horiz-adv-x="1078" d="M73 472q0 133 66 264t172 193t228 62q219 0 352 -166q111 -142 111 -326q0 -129 -61 -261.5t-170 -200.5t-243 -68q-218 0 -347 175q-108 147 -108 328zM270 560q0 -208 83 -361.5t221 -153.5q100 0 167.5 84t67.5 288q0 257 -112 406q-74 102 -191 102 q-56 0 -111.5 -33.5t-90 -116.5t-34.5 -215zM289 1262v121h594v-121h-594z" />
<glyph unicode="&#x14e;" horiz-adv-x="1556" d="M75 718q0 341 233 555q200 186 481 186q278 0 481.5 -211t203.5 -526q0 -325 -205.5 -540t-496.5 -215q-296 0 -496.5 209.5t-200.5 541.5zM317 722q0 -349 148 -537q117 -142 304 -142q201 0 332.5 156.5t131.5 494.5q0 367 -145 545q-115 145 -321 145 q-189 0 -306 -143q-144 -176 -144 -519zM473 1860h94q17 -75 67 -107.5t126 -32.5q75 0 125 32.5t67 107.5h95q-2 -58 -19.5 -109t-53 -89t-88.5 -60.5t-126 -22.5t-126.5 22.5t-88.5 60.5t-52.5 89t-19.5 109z" />
<glyph unicode="&#x14f;" horiz-adv-x="1078" d="M73 472q0 133 66 264t172 193t228 62q219 0 352 -166q111 -142 111 -326q0 -129 -61 -261.5t-170 -200.5t-243 -68q-218 0 -347 175q-108 147 -108 328zM270 560q0 -208 83 -361.5t221 -153.5q100 0 167.5 84t67.5 288q0 257 -112 406q-74 102 -191 102 q-56 0 -111.5 -33.5t-90 -116.5t-34.5 -215zM303 1522h94q17 -75 67 -107.5t126 -32.5q75 0 125 32.5t67 107.5h95q-2 -58 -19.5 -109t-53 -89t-88.5 -60.5t-126 -22.5t-126.5 22.5t-88.5 60.5t-52.5 89t-19.5 109z" />
<glyph unicode="&#x150;" horiz-adv-x="1556" d="M75 718q0 341 233 555q200 186 481 186q278 0 481.5 -211t203.5 -526q0 -325 -205.5 -540t-496.5 -215q-296 0 -496.5 209.5t-200.5 541.5zM317 722q0 -349 148 -537q117 -142 304 -142q201 0 332.5 156.5t131.5 494.5q0 367 -145 545q-115 145 -321 145 q-189 0 -306 -143q-144 -176 -144 -519zM445 1579v27q21 33 45 71t47.5 78t44.5 79t37 73h219v-21q-11 -18 -30.5 -42.5t-44.5 -52.5t-53.5 -57.5t-57.5 -57.5t-56.5 -53t-50.5 -44h-100zM814 1579v27q21 33 45 71t47.5 78t44.5 79t37 73h219v-21q-11 -18 -30.5 -42.5 t-44.5 -52.5t-53.5 -57.5t-57.5 -57.5t-56.5 -53t-50.5 -44h-100z" />
<glyph unicode="&#x151;" horiz-adv-x="1078" d="M73 472q0 133 66 264t172 193t228 62q219 0 352 -166q111 -142 111 -326q0 -129 -61 -261.5t-170 -200.5t-243 -68q-218 0 -347 175q-108 147 -108 328zM270 560q0 -208 83 -361.5t221 -153.5q100 0 167.5 84t67.5 288q0 257 -112 406q-74 102 -191 102 q-56 0 -111.5 -33.5t-90 -116.5t-34.5 -215zM279 1241v27q21 33 45 71t47.5 78t44.5 79t37 73h219v-21q-11 -18 -30.5 -42.5t-44.5 -52.5t-53.5 -57.5t-57.5 -57.5t-56.5 -53t-50.5 -44h-100zM648 1241v27q21 33 45 71t47.5 78t44.5 79t37 73h219v-21q-11 -18 -30.5 -42.5 t-44.5 -52.5t-53.5 -57.5t-57.5 -57.5t-56.5 -53t-50.5 -44h-100z" />
<glyph unicode="&#x152;" horiz-adv-x="1964" d="M115 735q0 170 40 308.5t120 236.5t202 151.5t285 53.5q24 0 52.5 -1.5t57 -4.5t54.5 -7t47 -10h825l10 -358h-106l-10 88q-4 34 -15.5 64.5t-33 53.5t-54 36.5t-78.5 13.5h-344v-545h494v-100h-494v-613h396q48 0 82.5 13.5t57.5 36.5t36 53.5t18 64.5l15 88h106 l-14 -358h-893q-21 -5 -47.5 -8.5t-55 -6t-56.5 -4t-52 -1.5q-163 0 -284 54t-201 153t-120 238.5t-40 309.5zM342 733q0 -152 22.5 -271.5t72.5 -202t129.5 -126t193.5 -43.5q60 0 110 8.5t91 22.5v1218q-41 17 -90 26t-109 9q-114 0 -194 -43t-130.5 -125t-73 -201.5 t-22.5 -271.5z" />
<glyph unicode="&#x153;" horiz-adv-x="1853" d="M113 551q0 287 121.5 427t359.5 140q124 0 217.5 -49t155.5 -149q58 100 147.5 149t210.5 49q99 0 178 -31t134 -92.5t84.5 -153t29.5 -212.5v-94h-682q2 -99 19 -177.5t53 -134t93 -85t140 -29.5q53 0 98.5 12t82.5 32t65.5 45.5t46.5 53.5q14 -6 26.5 -25t12.5 -45 q0 -31 -22 -66.5t-67 -65.5t-112.5 -50t-158.5 -20q-130 0 -221.5 52t-151.5 152q-119 -204 -385 -204q-111 0 -199 35t-149.5 106t-94 178.5t-32.5 251.5zM311 551q0 -114 15 -201t48.5 -145.5t87 -88.5t130.5 -30q76 0 128.5 29t85.5 86.5t48 142.5t16 197v28 q-1 110 -17 192.5t-49 138t-86 83t-128 27.5q-77 0 -130 -29t-86 -86.5t-48 -143.5t-15 -200zM1073 645h471q0 81 -12 148t-38 115t-68.5 74t-104.5 26q-115 0 -176 -92.5t-72 -270.5z" />
<glyph unicode="&#x154;" horiz-adv-x="1437" d="M37 0v39h54q90 0 129 58q21 34 21 155v923q0 133 -28 168q-40 45 -122 45h-54v39h518q229 0 337 -34t184 -122.5t76 -209.5q0 -132 -86.5 -229.5t-265.5 -137.5l293 -410q101 -140 174.5 -186.5t189.5 -58.5v-39h-382l-483 668q-53 -1 -88 -1h-28.5t-31.5 1v-416 q0 -133 28 -166q41 -47 120 -47h56v-39h-611zM444 732h34.5h23.5q205 0 308.5 88.5t103.5 224.5q0 134 -84 218t-221 84q-62 0 -165 -19v-596zM524 1579v27q23 29 47.5 67t48 78.5t45 81t37.5 74.5h219v-21q-19 -27 -56 -67.5t-82 -84.5t-92.5 -85.5t-88.5 -69.5h-78z" />
<glyph unicode="&#x155;" horiz-adv-x="718" d="M13 874l293 117h44v-215q119 215 247 215q59 0 96 -34t37 -83q0 -39 -27 -67.5t-65 -28.5q-37 0 -82.5 36.5t-65.5 36.5q-21 0 -42 -22q-47 -42 -98 -142v-463q0 -80 18 -121q16 -28 50 -46t100 -18v-39h-494v39q73 0 109 21q27 18 37 55q7 18 7 102v373 q0 168 -7.5 200.5t-25.5 47.5t-47 15q-33 0 -73 -16zM374 1241v27q23 29 47.5 67t48 78.5t45 81t37.5 74.5h219v-21q-19 -27 -56 -67.5t-82 -84.5t-92.5 -85.5t-88.5 -69.5h-78z" />
<glyph unicode="&#x156;" horiz-adv-x="1437" d="M37 0v39h54q90 0 129 58q21 34 21 155v923q0 133 -28 168q-40 45 -122 45h-54v39h518q229 0 337 -34t184 -122.5t76 -209.5q0 -132 -86.5 -229.5t-265.5 -137.5l293 -410q101 -140 174.5 -186.5t189.5 -58.5v-39h-382l-483 668q-53 -1 -88 -1h-28.5t-31.5 1v-416 q0 -133 28 -166q41 -47 120 -47h56v-39h-611zM444 732h34.5h23.5q205 0 308.5 88.5t103.5 224.5q0 134 -84 218t-221 84q-62 0 -165 -19v-596zM533 -426q17 68 33 147.5t28 153.5h199v-20q-14 -32 -34 -72t-43.5 -82t-47.5 -82t-45 -72h-90v27z" />
<glyph unicode="&#x157;" horiz-adv-x="718" d="M13 874l293 117h44v-215q119 215 247 215q59 0 96 -34t37 -83q0 -39 -27 -67.5t-65 -28.5q-37 0 -82.5 36.5t-65.5 36.5q-21 0 -42 -22q-47 -42 -98 -142v-463q0 -80 18 -121q16 -28 50 -46t100 -18v-39h-494v39q73 0 109 21q27 18 37 55q7 18 7 102v373 q0 168 -7.5 200.5t-25.5 47.5t-47 15q-33 0 -73 -16zM179 -426q17 68 33 147.5t28 153.5h199v-20q-14 -32 -34 -72t-43.5 -82t-47.5 -82t-45 -72h-90v27z" />
<glyph unicode="&#x158;" horiz-adv-x="1437" d="M37 0v39h54q90 0 129 58q21 34 21 155v923q0 133 -28 168q-40 45 -122 45h-54v39h518q229 0 337 -34t184 -122.5t76 -209.5q0 -132 -86.5 -229.5t-265.5 -137.5l293 -410q101 -140 174.5 -186.5t189.5 -58.5v-39h-382l-483 668q-53 -1 -88 -1h-28.5t-31.5 1v-416 q0 -133 28 -166q41 -47 120 -47h56v-39h-611zM322 1880v27h80q29 -18 58.5 -40t58 -46.5t55 -50t49.5 -50.5q23 25 49.5 50.5t55.5 50t59 46.5t59 40h80v-27q-24 -29 -53 -67t-57.5 -78.5t-53.5 -80.5t-41 -75h-194q-16 35 -41 75t-53.5 80.5t-57.5 78.5t-53 67zM444 732 h34.5h23.5q205 0 308.5 88.5t103.5 224.5q0 134 -84 218t-221 84q-62 0 -165 -19v-596z" />
<glyph unicode="&#x159;" horiz-adv-x="718" d="M13 874l293 117h44v-215q119 215 247 215q59 0 96 -34t37 -83q0 -39 -27 -67.5t-65 -28.5q-37 0 -82.5 36.5t-65.5 36.5q-21 0 -42 -22q-47 -42 -98 -142v-463q0 -80 18 -121q16 -28 50 -46t100 -18v-39h-494v39q73 0 109 21q27 18 37 55q7 18 7 102v373 q0 168 -7.5 200.5t-25.5 47.5t-47 15q-33 0 -73 -16zM155 1542v27h80q29 -18 58.5 -40t58 -46.5t55 -50t49.5 -50.5q23 25 49.5 50.5t55.5 50t59 46.5t59 40h80v-27q-24 -29 -53 -67t-57.5 -78.5t-53.5 -80.5t-41 -75h-194q-16 35 -41 75t-53.5 80.5t-57.5 78.5t-53 67z" />
<glyph unicode="&#x15a;" horiz-adv-x="1199" d="M133 1084q0 153 118.5 264t300.5 111q115 0 241 -56q60 -25 85 -25t43.5 15.5t27.5 65.5h38v-493h-38q-18 142 -67 225.5t-140.5 134t-187.5 50.5q-108 0 -180 -67.5t-72 -151.5q0 -66 45 -120q65 -79 311 -210q200 -107 273 -164.5t112 -136t39 -162.5 q0 -161 -124.5 -279t-323.5 -118q-62 0 -116 9q-33 8 -136.5 39.5t-129.5 31.5q-28 0 -43.5 -15.5t-21.5 -64.5h-38v490h38q28 -153 74.5 -229.5t141.5 -127.5t209 -51q132 0 208 69t76 164q0 54 -28.5 108t-91.5 100q-42 32 -225 134t-259.5 163.5t-117.5 135t-41 161.5z M450 1579v27q23 29 47.5 67t48 78.5t45 81t37.5 74.5h219v-21q-19 -27 -56 -67.5t-82 -84.5t-92.5 -85.5t-88.5 -69.5h-78z" />
<glyph unicode="&#x15b;" horiz-adv-x="839" d="M105 714q0 119 82.5 198t211.5 79q56 0 138 -23q51 -15 72 -15q16 0 24.5 7.5t22.5 30.5h34v-327h-34q-40 155 -102 211t-159 56q-76 0 -121.5 -39t-45.5 -86q0 -60 35 -101q33 -43 134 -93l153 -73q213 -105 213 -276q0 -132 -99 -213t-222 -81q-88 0 -203 33 q-34 11 -58 11t-37 -27h-35v343h35q31 -148 114 -222t186 -74q71 0 118 43t47 103q0 71 -52.5 121t-204.5 124.5t-199 138.5q-48 60 -48 151zM365 1241v27q23 29 47.5 67t48 78.5t45 81t37.5 74.5h219v-21q-19 -27 -56 -67.5t-82 -84.5t-92.5 -85.5t-88.5 -69.5h-78z" />
<glyph unicode="&#x15c;" horiz-adv-x="1199" d="M133 1084q0 153 118.5 264t300.5 111q115 0 241 -56q60 -25 85 -25t43.5 15.5t27.5 65.5h38v-493h-38q-18 142 -67 225.5t-140.5 134t-187.5 50.5q-108 0 -180 -67.5t-72 -151.5q0 -66 45 -120q65 -79 311 -210q200 -107 273 -164.5t112 -136t39 -162.5 q0 -161 -124.5 -279t-323.5 -118q-62 0 -116 9q-33 8 -136.5 39.5t-129.5 31.5q-28 0 -43.5 -15.5t-21.5 -64.5h-38v490h38q28 -153 74.5 -229.5t141.5 -127.5t209 -51q132 0 208 69t76 164q0 54 -28.5 108t-91.5 100q-42 32 -225 134t-259.5 163.5t-117.5 135t-41 161.5z M270 1579v27q24 29 53 67t57.5 78.5t53.5 81t41 74.5h194q16 -34 41 -74.5t53.5 -81t57.5 -78.5t53 -67v-27h-80q-59 34 -118 84.5t-105 99.5q-47 -49 -105 -99.5t-116 -84.5h-80z" />
<glyph unicode="&#x15d;" horiz-adv-x="839" d="M105 714q0 119 82.5 198t211.5 79q56 0 138 -23q51 -15 72 -15q16 0 24.5 7.5t22.5 30.5h34v-327h-34q-40 155 -102 211t-159 56q-76 0 -121.5 -39t-45.5 -86q0 -60 35 -101q33 -43 134 -93l153 -73q213 -105 213 -276q0 -132 -99 -213t-222 -81q-88 0 -203 33 q-34 11 -58 11t-37 -27h-35v343h35q31 -148 114 -222t186 -74q71 0 118 43t47 103q0 71 -52.5 121t-204.5 124.5t-199 138.5q-48 60 -48 151zM188 1241v27q24 29 53 67t57.5 78.5t53.5 81t41 74.5h194q16 -34 41 -74.5t53.5 -81t57.5 -78.5t53 -67v-27h-80q-59 34 -118 84.5 t-105 99.5q-47 -49 -105 -99.5t-116 -84.5h-80z" />
<glyph unicode="&#x15e;" horiz-adv-x="1199" d="M133 1084q0 153 118.5 264t300.5 111q115 0 241 -56q60 -25 85 -25t43.5 15.5t27.5 65.5h38v-493h-38q-18 142 -67 225.5t-140.5 134t-187.5 50.5q-108 0 -180 -67.5t-72 -151.5q0 -66 45 -120q65 -79 311 -210q200 -107 273 -164.5t112 -136t39 -162.5 q0 -161 -124.5 -279t-323.5 -118q-62 0 -116 9q-33 8 -136.5 39.5t-129.5 31.5q-28 0 -43.5 -15.5t-21.5 -64.5h-38v490h38q28 -153 74.5 -229.5t141.5 -127.5t209 -51q132 0 208 69t76 164q0 54 -28.5 108t-91.5 100q-42 32 -225 134t-259.5 163.5t-117.5 135t-41 161.5z M318 -365q37 -8 74 -12t65 -4q59 0 92 31t33 84q0 60 -43.5 90t-110.5 35l43 159h97l-21 -88q100 -8 149.5 -57.5t49.5 -130.5q0 -109 -69.5 -171.5t-200.5 -62.5q-16 0 -36 1.5t-41 4.5t-42 7.5t-39 9.5v104z" />
<glyph unicode="&#x15f;" horiz-adv-x="839" d="M105 714q0 119 82.5 198t211.5 79q56 0 138 -23q51 -15 72 -15q16 0 24.5 7.5t22.5 30.5h34v-327h-34q-40 155 -102 211t-159 56q-76 0 -121.5 -39t-45.5 -86q0 -60 35 -101q33 -43 134 -93l153 -73q213 -105 213 -276q0 -132 -99 -213t-222 -81q-88 0 -203 33 q-34 11 -58 11t-37 -27h-35v343h35q31 -148 114 -222t186 -74q71 0 118 43t47 103q0 71 -52.5 121t-204.5 124.5t-199 138.5q-48 60 -48 151zM246 -365q37 -8 74 -12t65 -4q59 0 92 31t33 84q0 60 -43.5 90t-110.5 35l43 159h97l-21 -88q100 -8 149.5 -57.5t49.5 -130.5 q0 -109 -69.5 -171.5t-200.5 -62.5q-16 0 -36 1.5t-41 4.5t-42 7.5t-39 9.5v104z" />
<glyph unicode="&#x160;" horiz-adv-x="1199" d="M133 1084q0 153 118.5 264t300.5 111q115 0 241 -56q60 -25 85 -25t43.5 15.5t27.5 65.5h38v-493h-38q-18 142 -67 225.5t-140.5 134t-187.5 50.5q-108 0 -180 -67.5t-72 -151.5q0 -66 45 -120q65 -79 311 -210q200 -107 273 -164.5t112 -136t39 -162.5 q0 -161 -124.5 -279t-323.5 -118q-62 0 -116 9q-33 8 -136.5 39.5t-129.5 31.5q-28 0 -43.5 -15.5t-21.5 -64.5h-38v490h38q28 -153 74.5 -229.5t141.5 -127.5t209 -51q132 0 208 69t76 164q0 54 -28.5 108t-91.5 100q-42 32 -225 134t-259.5 163.5t-117.5 135t-41 161.5z M263 1880v27h80q29 -18 58.5 -40t58 -46.5t55 -50t49.5 -50.5q23 25 49.5 50.5t55.5 50t59 46.5t59 40h80v-27q-24 -29 -53 -67t-57.5 -78.5t-53.5 -80.5t-41 -75h-194q-16 35 -41 75t-53.5 80.5t-57.5 78.5t-53 67z" />
<glyph unicode="&#x161;" horiz-adv-x="839" d="M105 714q0 119 82.5 198t211.5 79q56 0 138 -23q51 -15 72 -15q16 0 24.5 7.5t22.5 30.5h34v-327h-34q-40 155 -102 211t-159 56q-76 0 -121.5 -39t-45.5 -86q0 -60 35 -101q33 -43 134 -93l153 -73q213 -105 213 -276q0 -132 -99 -213t-222 -81q-88 0 -203 33 q-34 11 -58 11t-37 -27h-35v343h35q31 -148 114 -222t186 -74q71 0 118 43t47 103q0 71 -52.5 121t-204.5 124.5t-199 138.5q-48 60 -48 151zM169 1542v27h80q29 -18 58.5 -40t58 -46.5t55 -50t49.5 -50.5q23 25 49.5 50.5t55.5 50t59 46.5t59 40h80v-27q-24 -29 -53 -67 t-57.5 -78.5t-53.5 -80.5t-41 -75h-194q-16 35 -41 75t-53.5 80.5t-57.5 78.5t-53 67z" />
<glyph unicode="&#x162;" horiz-adv-x="1317" d="M64 1093l18 334h1166l15 -334h-41q-11 87 -30 124q-33 64 -88 93t-143 29h-200v-1091q0 -131 28 -164q40 -45 122 -45h50v-39h-604v39h51q90 0 129 54q20 35 20 155v1091h-169q-102 0 -143 -16q-56 -21 -95 -77.5t-45 -152.5h-41zM423 -365q37 -8 74 -12t65 -4 q59 0 92 31t33 84q0 60 -43.5 90t-110.5 35l43 159h97l-21 -88q100 -8 149.5 -57.5t49.5 -130.5q0 -109 -69.5 -171.5t-200.5 -62.5q-16 0 -36 1.5t-41 4.5t-42 7.5t-39 9.5v104z" />
<glyph unicode="&#x163;" horiz-adv-x="599" d="M21 891v34q59 24 119 79t108 129q23 42 67 148h32v-318h227v-72h-227v-625q0 -93 27 -127t70 -34q35 0 67 22t49 64h41q-36 -102 -102.5 -153.5t-138.5 -51.5q-50 0 -96.5 26.5t-67.5 76t-21 152.5v650h-154zM193 -365q37 -8 74 -12t65 -4q59 0 92 31t33 84 q0 60 -43.5 90t-110.5 35l43 159h97l-21 -88q100 -8 149.5 -57.5t49.5 -130.5q0 -109 -69.5 -171.5t-200.5 -62.5q-16 0 -36 1.5t-41 4.5t-42 7.5t-39 9.5v104z" />
<glyph unicode="&#x164;" horiz-adv-x="1317" d="M64 1093l18 334h1166l15 -334h-41q-11 87 -30 124q-33 64 -88 93t-143 29h-200v-1091q0 -131 28 -164q40 -45 122 -45h50v-39h-604v39h51q90 0 129 54q20 35 20 155v1091h-169q-102 0 -143 -16q-56 -21 -95 -77.5t-45 -152.5h-41zM324 1880v27h80q29 -18 58.5 -40 t58 -46.5t55 -50t49.5 -50.5q23 25 49.5 50.5t55.5 50t59 46.5t59 40h80v-27q-24 -29 -53 -67t-57.5 -78.5t-53.5 -80.5t-41 -75h-194q-16 35 -41 75t-53.5 80.5t-57.5 78.5t-53 67z" />
<glyph unicode="&#x165;" horiz-adv-x="599" d="M21 891v34q59 24 119 79t108 129q23 42 67 148h32v-318h227v-72h-227v-625q0 -93 27 -127t70 -34q35 0 67 22t49 64h41q-36 -102 -102.5 -153.5t-138.5 -51.5q-50 0 -96.5 26.5t-67.5 76t-21 152.5v650h-154zM532 1229v26q17 69 33 148t29 153h178v-20q-14 -32 -34 -72 t-43.5 -81.5t-47.5 -81.5t-45 -72h-70z" />
<glyph unicode="&#x166;" horiz-adv-x="1255" d="M41 1104l10 358h1153l10 -358h-106l-10 88q-4 34 -14 64.5t-29 53.5t-50 36.5t-77 13.5h-199v-588h346v-100h-346v-439q0 -48 13.5 -77t36 -44.5t53.5 -20.5t65 -5h47v-86h-637v86h47q34 0 64.5 4.5t53.5 18.5t36.5 41.5t13.5 72.5v449h-342v100h342v588h-196 q-45 0 -75.5 -13.5t-50 -36.5t-29 -53.5t-13.5 -64.5l-11 -88h-106z" />
<glyph unicode="&#x167;" horiz-adv-x="721" d="M39 981v82q37 0 81.5 15t78.5 50q35 38 56.5 90.5t37.5 131.5h94v-252h268v-117h-268v-289h248v-96h-248v-305q0 -105 42.5 -154t113.5 -49q37 0 68 4t63 10v-90q-13 -6 -34 -12t-45.5 -10.5t-51.5 -7t-51 -2.5q-78 0 -134 16.5t-92 53.5t-53.5 98t-17.5 149v299h-140v96 h140v289h-156z" />
<glyph unicode="&#x168;" horiz-adv-x="1556" d="M11 1388v39h618v-39h-55q-89 0 -126 -56q-28 -37 -28 -157v-623q0 -83 15 -190t56 -168t115.5 -99.5t184.5 -38.5q140 0 251 61.5t151 156t40 323.5v578q0 133 -28 168q-41 45 -123 45h-54v39h504v-39h-51q-87 0 -131 -71q-22 -32 -22 -151v-580q0 -213 -42 -331.5 t-167.5 -204t-340.5 -85.5q-233 0 -353.5 82t-172.5 219q-32 94 -32 350v559q0 131 -37 172t-119 41h-53zM393 1600q3 47 16.5 90t40 77t66 54t94.5 20t99.5 -20t83 -44.5t72 -44.5t65.5 -20q30 0 48.5 9t29 24.5t15 35t7.5 40.5h92q-3 -47 -16.5 -90.5t-39.5 -77.5t-65 -54 t-94 -20t-99.5 20t-83 44.5t-72 44.5t-66.5 20q-31 0 -49 -9t-28.5 -24t-15.5 -34.5t-8 -40.5h-92z" />
<glyph unicode="&#x169;" horiz-adv-x="1078" d="M2 925v38h339v-644q0 -135 46.5 -177.5t111.5 -42.5q46 0 103.5 29t136.5 109v545q0 82 -30 111.5t-125 31.5v38h327v-584q0 -166 9 -203.5t26 -53t41 -15.5q33 0 74 21l14 -37l-288 -122h-48v206q-125 -134 -189.5 -170t-137.5 -36q-83 0 -141.5 47.5t-81.5 121.5 t-23 209v429q0 69 -15 95.5t-44 41t-105 12.5zM270 1262q3 47 16.5 90t40 77t66 54t94.5 20t99.5 -20t83 -44.5t72 -44.5t65.5 -20q30 0 48.5 9t29 24.5t15 35t7.5 40.5h92q-3 -47 -16.5 -90.5t-39.5 -77.5t-65 -54t-94 -20t-99.5 20t-83 44.5t-72 44.5t-66.5 20 q-31 0 -49 -9t-28.5 -24t-15.5 -34.5t-8 -40.5h-92z" />
<glyph unicode="&#x16a;" horiz-adv-x="1556" d="M11 1388v39h618v-39h-55q-89 0 -126 -56q-28 -37 -28 -157v-623q0 -83 15 -190t56 -168t115.5 -99.5t184.5 -38.5q140 0 251 61.5t151 156t40 323.5v578q0 133 -28 168q-41 45 -123 45h-54v39h504v-39h-51q-87 0 -131 -71q-22 -32 -22 -151v-580q0 -213 -42 -331.5 t-167.5 -204t-340.5 -85.5q-233 0 -353.5 82t-172.5 219q-32 94 -32 350v559q0 131 -37 172t-119 41h-53zM475 1600v121h594v-121h-594z" />
<glyph unicode="&#x16b;" horiz-adv-x="1078" d="M2 925v38h339v-644q0 -135 46.5 -177.5t111.5 -42.5q46 0 103.5 29t136.5 109v545q0 82 -30 111.5t-125 31.5v38h327v-584q0 -166 9 -203.5t26 -53t41 -15.5q33 0 74 21l14 -37l-288 -122h-48v206q-125 -134 -189.5 -170t-137.5 -36q-83 0 -141.5 47.5t-81.5 121.5 t-23 209v429q0 69 -15 95.5t-44 41t-105 12.5zM328 1262v121h594v-121h-594z" />
<glyph unicode="&#x16c;" horiz-adv-x="1556" d="M11 1388v39h618v-39h-55q-89 0 -126 -56q-28 -37 -28 -157v-623q0 -83 15 -190t56 -168t115.5 -99.5t184.5 -38.5q140 0 251 61.5t151 156t40 323.5v578q0 133 -28 168q-41 45 -123 45h-54v39h504v-39h-51q-87 0 -131 -71q-22 -32 -22 -151v-580q0 -213 -42 -331.5 t-167.5 -204t-340.5 -85.5q-233 0 -353.5 82t-172.5 219q-32 94 -32 350v559q0 131 -37 172t-119 41h-53zM473 1860h94q17 -75 67 -107.5t126 -32.5q75 0 125 32.5t67 107.5h95q-2 -58 -19.5 -109t-53 -89t-88.5 -60.5t-126 -22.5t-126.5 22.5t-88.5 60.5t-52.5 89 t-19.5 109z" />
<glyph unicode="&#x16d;" horiz-adv-x="1078" d="M2 925v38h339v-644q0 -135 46.5 -177.5t111.5 -42.5q46 0 103.5 29t136.5 109v545q0 82 -30 111.5t-125 31.5v38h327v-584q0 -166 9 -203.5t26 -53t41 -15.5q33 0 74 21l14 -37l-288 -122h-48v206q-125 -134 -189.5 -170t-137.5 -36q-83 0 -141.5 47.5t-81.5 121.5 t-23 209v429q0 69 -15 95.5t-44 41t-105 12.5zM348 1522h94q17 -75 67 -107.5t126 -32.5q75 0 125 32.5t67 107.5h95q-2 -58 -19.5 -109t-53 -89t-88.5 -60.5t-126 -22.5t-126.5 22.5t-88.5 60.5t-52.5 89t-19.5 109z" />
<glyph unicode="&#x16e;" horiz-adv-x="1556" d="M11 1388v39h618v-39h-55q-89 0 -126 -56q-28 -37 -28 -157v-623q0 -83 15 -190t56 -168t115.5 -99.5t184.5 -38.5q140 0 251 61.5t151 156t40 323.5v578q0 133 -28 168q-41 45 -123 45h-54v39h504v-39h-51q-87 0 -131 -71q-22 -32 -22 -151v-580q0 -213 -42 -331.5 t-167.5 -204t-340.5 -85.5q-233 0 -353.5 82t-172.5 219q-32 94 -32 350v559q0 131 -37 172t-119 41h-53zM514 1782q0 54 19 96t52.5 70t78.5 42.5t96 14.5t96 -14.5t78.5 -42.5t52.5 -70t19 -96q0 -55 -19 -96.5t-52.5 -69.5t-78.5 -42.5t-96 -14.5t-96 14.5t-78.5 42.5 t-52.5 69.5t-19 96.5zM625 1782q0 -33 10.5 -56.5t29 -38t43 -21.5t52.5 -7t52.5 7t43 21.5t29 38t10.5 56.5t-10.5 56.5t-29 38t-43 21.5t-52.5 7t-52.5 -7t-43 -21.5t-29 -38t-10.5 -56.5z" />
<glyph unicode="&#x16f;" horiz-adv-x="1078" d="M2 925v38h339v-644q0 -135 46.5 -177.5t111.5 -42.5q46 0 103.5 29t136.5 109v545q0 82 -30 111.5t-125 31.5v38h327v-584q0 -166 9 -203.5t26 -53t41 -15.5q33 0 74 21l14 -37l-288 -122h-48v206q-125 -134 -189.5 -170t-137.5 -36q-83 0 -141.5 47.5t-81.5 121.5 t-23 209v429q0 69 -15 95.5t-44 41t-105 12.5zM377 1444q0 54 19 96t52.5 70t78.5 42.5t96 14.5t96 -14.5t78.5 -42.5t52.5 -70t19 -96q0 -55 -19 -96.5t-52.5 -69.5t-78.5 -42.5t-96 -14.5t-96 14.5t-78.5 42.5t-52.5 69.5t-19 96.5zM488 1444q0 -33 10.5 -56.5t29 -38 t43 -21.5t52.5 -7t52.5 7t43 21.5t29 38t10.5 56.5t-10.5 56.5t-29 38t-43 21.5t-52.5 7t-52.5 -7t-43 -21.5t-29 -38t-10.5 -56.5z" />
<glyph unicode="&#x170;" horiz-adv-x="1556" d="M11 1388v39h618v-39h-55q-89 0 -126 -56q-28 -37 -28 -157v-623q0 -83 15 -190t56 -168t115.5 -99.5t184.5 -38.5q140 0 251 61.5t151 156t40 323.5v578q0 133 -28 168q-41 45 -123 45h-54v39h504v-39h-51q-87 0 -131 -71q-22 -32 -22 -151v-580q0 -213 -42 -331.5 t-167.5 -204t-340.5 -85.5q-233 0 -353.5 82t-172.5 219q-32 94 -32 350v559q0 131 -37 172t-119 41h-53zM459 1579v27q21 33 45 71t47.5 78t44.5 79t37 73h219v-21q-11 -18 -30.5 -42.5t-44.5 -52.5t-53.5 -57.5t-57.5 -57.5t-56.5 -53t-50.5 -44h-100zM828 1579v27 q21 33 45 71t47.5 78t44.5 79t37 73h219v-21q-11 -18 -30.5 -42.5t-44.5 -52.5t-53.5 -57.5t-57.5 -57.5t-56.5 -53t-50.5 -44h-100z" />
<glyph unicode="&#x171;" horiz-adv-x="1078" d="M2 925v38h339v-644q0 -135 46.5 -177.5t111.5 -42.5q46 0 103.5 29t136.5 109v545q0 82 -30 111.5t-125 31.5v38h327v-584q0 -166 9 -203.5t26 -53t41 -15.5q33 0 74 21l14 -37l-288 -122h-48v206q-125 -134 -189.5 -170t-137.5 -36q-83 0 -141.5 47.5t-81.5 121.5 t-23 209v429q0 69 -15 95.5t-44 41t-105 12.5zM338 1241v27q21 33 45 71t47.5 78t44.5 79t37 73h219v-21q-11 -18 -30.5 -42.5t-44.5 -52.5t-53.5 -57.5t-57.5 -57.5t-56.5 -53t-50.5 -44h-100zM707 1241v27q21 33 45 71t47.5 78t44.5 79t37 73h219v-21q-11 -18 -30.5 -42.5 t-44.5 -52.5t-53.5 -57.5t-57.5 -57.5t-56.5 -53t-50.5 -44h-100z" />
<glyph unicode="&#x172;" horiz-adv-x="1556" d="M11 1388v39h618v-39h-55q-89 0 -126 -56q-28 -37 -28 -157v-623q0 -83 15 -190t56 -168t115.5 -99.5t184.5 -38.5q140 0 251 61.5t151 156t40 323.5v578q0 133 -28 168q-41 45 -123 45h-54v39h504v-39h-51q-87 0 -131 -71q-22 -32 -22 -151v-580q0 -213 -42 -331.5 t-167.5 -204t-340.5 -85.5q-233 0 -353.5 82t-172.5 219q-32 94 -32 350v559q0 131 -37 172t-119 41h-53zM559 -266q0 48 20 91t54 78.5t77.5 60.5t90.5 36h117q-32 -10 -66 -30t-61.5 -49.5t-45.5 -68.5t-18 -88q0 -34 10.5 -58.5t29.5 -40t45 -23t57 -7.5q27 0 59 4.5 t70 12.5v-111q-16 -8 -36.5 -14t-42.5 -10t-42.5 -6.5t-36.5 -2.5q-65 0 -117 13.5t-88.5 41t-56 70t-19.5 101.5z" />
<glyph unicode="&#x173;" horiz-adv-x="1078" d="M2 925v38h339v-644q0 -135 46.5 -177.5t111.5 -42.5q46 0 103.5 29t136.5 109v545q0 82 -30 111.5t-125 31.5v38h327v-584q0 -166 9 -203.5t26 -53t41 -15.5q33 0 74 21l14 -37l-288 -122h-48v206q-125 -134 -189.5 -170t-137.5 -36q-83 0 -141.5 47.5t-81.5 121.5 t-23 209v429q0 69 -15 95.5t-44 41t-105 12.5zM692 -266q0 48 20 91t54 78.5t77.5 60.5t90.5 36h117q-32 -10 -66 -30t-61.5 -49.5t-45.5 -68.5t-18 -88q0 -34 10.5 -58.5t29.5 -40t45 -23t57 -7.5q27 0 59 4.5t70 12.5v-111q-16 -8 -36.5 -14t-42.5 -10t-42.5 -6.5 t-36.5 -2.5q-65 0 -117 13.5t-88.5 41t-56 70t-19.5 101.5z" />
<glyph unicode="&#x174;" horiz-adv-x="2034" d="M28 1388v39h527v-39h-23q-56 0 -86.5 -24.5t-30.5 -61.5t48 -171l281 -800l237 682l-41 118l-35 97q-21 53 -49 93q-13 20 -35 32q-25 21 -52 28q-18 7 -62 7v39h554v-39h-37q-58 0 -86 -24.5t-28 -68.5q0 -54 47 -187l275 -777l271 788q47 129 47 180q0 24 -16 44.5 t-38 30.5q-40 14 -106 14v39h427v-39q-55 0 -90 -20.5t-67 -73.5q-20 -37 -65 -175l-398 -1152h-44l-323 913l-323 -913h-39l-425 1186q-47 132 -59 155q-20 42 -56.5 61t-99.5 19zM807 1579v27q24 29 53 67t57.5 78.5t53.5 81t41 74.5h194q16 -34 41 -74.5t53.5 -81 t57.5 -78.5t53 -67v-27h-80q-59 34 -118 84.5t-105 99.5q-47 -49 -105 -99.5t-116 -84.5h-80z" />
<glyph unicode="&#x175;" horiz-adv-x="1556" d="M13 925v38h404v-38q-55 -5 -72.5 -19.5t-17.5 -45.5q0 -33 18 -80l207 -554l206 450l-53 143q-26 65 -67 88q-24 16 -86 18v38h459v-38q-76 -2 -108 -27q-21 -16 -21 -53q0 -22 9 -43l219 -554l202 532q22 59 22 90q0 23 -20 38t-81 17v38h303v-38q-92 -14 -135 -123 l-321 -833h-43l-241 617l-281 -617h-39l-310 811q-30 78 -59 104.5t-94 40.5zM608 1241v27q24 29 53 67t57.5 78.5t53.5 81t41 74.5h194q16 -34 41 -74.5t53.5 -81t57.5 -78.5t53 -67v-27h-80q-59 34 -118 84.5t-105 99.5q-47 -49 -105 -99.5t-116 -84.5h-80z" />
<glyph unicode="&#x176;" horiz-adv-x="1556" d="M19 1388v39h610v-39h-30q-49 0 -91.5 -22.5t-42.5 -70.5q0 -38 65 -136l297 -461l281 440q62 99 62 149q0 28 -15 51.5t-43 36.5t-84 13v39h498v-39h-29q-27 0 -80 -23.5t-96.5 -69t-105.5 -148.5l-345 -542v-357q0 -131 30 -164q42 -45 128 -45h45v-39h-605v39h50 q91 0 128 54q24 35 24 155v336l-392 598q-68 107 -93 133t-103 63q-22 10 -63 10zM342 1579v27q24 29 53 67t57.5 78.5t53.5 81t41 74.5h194q16 -34 41 -74.5t53.5 -81t57.5 -78.5t53 -67v-27h-80q-59 34 -118 84.5t-105 99.5q-47 -49 -105 -99.5t-116 -84.5h-80z" />
<glyph unicode="&#x177;" horiz-adv-x="1078" d="M13 925v38h448v-38h-21q-48 0 -71.5 -20.5t-23.5 -51.5q0 -41 34 -114l235 -484l215 532q20 42 20 83q0 21 -9 28q-7 13 -24.5 20t-62.5 7v38h312v-38q-39 -5 -59.5 -17t-47.5 -48q-9 -13 -35 -80l-393 -961q-56 -140 -149 -212t-176 -72q-63 0 -103 35t-40 83 q0 43 29.5 70t78.5 27q35 0 96 -21q42 -17 51 -17q33 0 70 32t74 127l69 168l-346 726q-16 33 -51 82q-26 37 -42 49q-24 15 -78 29zM303 1241v27q24 29 53 67t57.5 78.5t53.5 81t41 74.5h194q16 -34 41 -74.5t53.5 -81t57.5 -78.5t53 -67v-27h-80q-59 34 -118 84.5 t-105 99.5q-47 -49 -105 -99.5t-116 -84.5h-80z" />
<glyph unicode="&#x178;" horiz-adv-x="1556" d="M19 1388v39h610v-39h-30q-49 0 -91.5 -22.5t-42.5 -70.5q0 -38 65 -136l297 -461l281 440q62 99 62 149q0 28 -15 51.5t-43 36.5t-84 13v39h498v-39h-29q-27 0 -80 -23.5t-96.5 -69t-105.5 -148.5l-345 -542v-357q0 -131 30 -164q42 -45 128 -45h45v-39h-605v39h50 q91 0 128 54q24 35 24 155v336l-392 598q-68 107 -93 133t-103 63q-22 10 -63 10zM359 1747q0 32 8 54t22 35.5t33 19.5t41 6t41 -6t33.5 -19.5t22.5 -35.5t8 -54q0 -31 -8 -53t-22.5 -36t-33.5 -20t-41 -6q-45 0 -74.5 26t-29.5 89zM748 1747q0 32 8 54t22 35.5t33 19.5 t41 6t41 -6t33.5 -19.5t22.5 -35.5t8 -54q0 -31 -8 -53t-22.5 -36t-33.5 -20t-41 -6q-45 0 -74.5 26t-29.5 89z" />
<glyph unicode="&#x179;" horiz-adv-x="1317" d="M28 0v39l914 1304h-455q-114 0 -165.5 -24.5t-78 -72t-50.5 -175.5h-38l29 356h1055l-937 -1341h586q134 0 206 59.5t128 238.5l35 -7l-68 -377h-1161zM495 1579v27q23 29 47.5 67t48 78.5t45 81t37.5 74.5h219v-21q-19 -27 -56 -67.5t-82 -84.5t-92.5 -85.5t-88.5 -69.5 h-78z" />
<glyph unicode="&#x17a;" horiz-adv-x="956" d="M43 0v39l640 852h-317q-100 0 -131.5 -13.5t-53.5 -50.5q-28 -53 -32 -130h-42l8 266h808v-38l-648 -854h352q110 0 149.5 18t63.5 64q18 34 28 143h37l-10 -296h-852zM428 1241v27q23 29 47.5 67t48 78.5t45 81t37.5 74.5h219v-21q-19 -27 -56 -67.5t-82 -84.5 t-92.5 -85.5t-88.5 -69.5h-78z" />
<glyph unicode="&#x17b;" horiz-adv-x="1317" d="M28 0v39l914 1304h-455q-114 0 -165.5 -24.5t-78 -72t-50.5 -175.5h-38l29 356h1055l-937 -1341h586q134 0 206 59.5t128 238.5l35 -7l-68 -377h-1161zM520 1737q0 36 9 60t25 39t37 21t46 6q24 0 45 -6t37 -21t25.5 -39t9.5 -60t-9.5 -60t-25.5 -39t-37 -21.5t-45 -6.5 q-25 0 -46 6.5t-37 21.5t-25 39t-9 60z" />
<glyph unicode="&#x17c;" horiz-adv-x="956" d="M43 0v39l640 852h-317q-100 0 -131.5 -13.5t-53.5 -50.5q-28 -53 -32 -130h-42l8 266h808v-38l-648 -854h352q110 0 149.5 18t63.5 64q18 34 28 143h37l-10 -296h-852zM428 1399q0 36 9 60t25 39t37 21t46 6q24 0 45 -6t37 -21t25.5 -39t9.5 -60t-9.5 -60t-25.5 -39 t-37 -21.5t-45 -6.5q-25 0 -46 6.5t-37 21.5t-25 39t-9 60z" />
<glyph unicode="&#x17d;" horiz-adv-x="1317" d="M28 0v39l914 1304h-455q-114 0 -165.5 -24.5t-78 -72t-50.5 -175.5h-38l29 356h1055l-937 -1341h586q134 0 206 59.5t128 238.5l35 -7l-68 -377h-1161zM320 1880v27h80q29 -18 58.5 -40t58 -46.5t55 -50t49.5 -50.5q23 25 49.5 50.5t55.5 50t59 46.5t59 40h80v-27 q-24 -29 -53 -67t-57.5 -78.5t-53.5 -80.5t-41 -75h-194q-16 35 -41 75t-53.5 80.5t-57.5 78.5t-53 67z" />
<glyph unicode="&#x17e;" horiz-adv-x="956" d="M43 0v39l640 852h-317q-100 0 -131.5 -13.5t-53.5 -50.5q-28 -53 -32 -130h-42l8 266h808v-38l-648 -854h352q110 0 149.5 18t63.5 64q18 34 28 143h37l-10 -296h-852zM247 1542v27h80q29 -18 58.5 -40t58 -46.5t55 -50t49.5 -50.5q23 25 49.5 50.5t55.5 50t59 46.5 t59 40h80v-27q-24 -29 -53 -67t-57.5 -78.5t-53.5 -80.5t-41 -75h-194q-16 35 -41 75t-53.5 80.5t-57.5 78.5t-53 67z" />
<glyph unicode="&#x17f;" horiz-adv-x="727" d="M27 0v86h26q35 0 65.5 5t53 20.5t36 44.5t13.5 77v967q0 92 25 162t72.5 118t114.5 72.5t151 24.5q80 0 134.5 -10.5t88.5 -29.5t48.5 -45t14.5 -58q0 -56 -46.5 -85.5t-121.5 -29.5q0 31 -6.5 60.5t-22 52.5t-41.5 37t-65 14q-87 0 -120 -67.5t-33 -196.5v-986 q0 -48 13 -77t36 -44.5t53.5 -20.5t65.5 -5h77v-86h-632z" />
<glyph unicode="&#x2c6;" horiz-adv-x="1116" d="M180 1184l300 462h154l301 -462h-75l-303 277l-302 -277h-75z" />
<glyph unicode="&#x2c7;" horiz-adv-x="1116" d="M180 1646h75l302 -277l303 277h75l-301 -462h-154z" />
<glyph unicode="&#x2c9;" horiz-adv-x="1116" d="M277 1271v167h562v-167h-562z" />
<glyph unicode="&#x2d8;" horiz-adv-x="1116" d="M239 1544h64q22 -100 94.5 -146.5t210.5 -46.5q136 0 208 46t93 147h65q-25 -181 -118 -275t-248 -94q-154 0 -249 94.5t-120 274.5z" />
<glyph unicode="&#x2d9;" horiz-adv-x="1116" d="M389 1387q0 7 4.5 16.5t15.5 17.5l92 98q8 7 17.5 11.5t18.5 4.5t17.5 -4.5t17.5 -11.5l95 -102q6 -7 9 -15t3 -18q-1 -12 -4 -20t-11 -17l-96 -102q-16 -15 -21 -18t-10 -3q-13 0 -22 3t-14 12l-101 117q-5 5 -8 12.5t-3 18.5z" />
<glyph unicode="&#x2da;" horiz-adv-x="1116" d="M365 1393q0 92 62.5 154.5t153.5 62.5q92 0 155.5 -63t63.5 -154t-63.5 -154.5t-155.5 -63.5q-91 0 -153.5 63.5t-62.5 154.5zM478 1393q0 -46 32.5 -79t80.5 -33q46 0 79 33t33 79q0 45 -33.5 78t-78.5 33q-47 0 -80 -33t-33 -78z" />
<glyph unicode="&#x2db;" horiz-adv-x="1116" d="M312 -406q0 117 92.5 239.5t246.5 206.5h74q-107 -95 -167.5 -182.5t-60.5 -172.5q0 -71 41.5 -114t111.5 -43q60 0 105.5 24t75.5 75l43 -26q-55 -95 -138 -147t-183 -52q-106 0 -173.5 54t-67.5 138z" />
<glyph unicode="&#x2dc;" horiz-adv-x="1116" d="M203 1186q24 162 84 241.5t160 79.5q57 -2 140 -37q78 -34 139 -34h4q44 0 71.5 29.5t44.5 99.5h67q-25 -156 -84.5 -233t-156.5 -77h-6q-61 0 -139 34q-82 37 -141 37q-48 0 -74.5 -31t-41.5 -109h-67z" />
<glyph unicode="&#x2dd;" horiz-adv-x="1116" d="M156 1155l207 393q35 64 66 91t66 27q41 0 70 -28.5t29 -67.5q0 -23 -15 -50.5t-44 -59.5l-294 -305h-85zM547 1155l207 393q34 64 65 91t67 27q40 0 69 -28.5t29 -67.5q0 -23 -15.5 -50.5t-44.5 -59.5l-294 -305h-83z" />
<glyph unicode="&#x1000;" horiz-adv-x="2056" d="M111 510q0 209 147 357t358 148q210 0 357 -146q35 -36 63 -76q26 40 60 76q151 146 360 146q210 0 358.5 -148t148.5 -357q0 -213 -148.5 -360.5t-358.5 -147.5q-90 0 -167 27l63 158q47 -15 104 -15q140 0 238 99t98 239q0 136 -98 236.5t-238 100.5t-240 -101 q-84 -86 -96 -198q-2 -42 0 -78q-13 -178 -84 -272q-28 -42 -63 -73q-85 -85 -190 -123l-53 161q70 24 146.5 115.5t76.5 231.5q0 136 -98 236.5t-239 100.5q-138 0 -237 -100.5t-99 -236.5q0 -140 78 -231.5t148 -115.5l-52 -163q-110 36 -226.5 166.5t-116.5 343.5z" />
<glyph unicode="&#x1001;" horiz-adv-x="1210" d="M106 344q0 108 77 186t188 78q112 0 190.5 -78t78.5 -186q0 -99 -70 -172q142 2 238 97q102 103 102 245q0 138 -101 238t-245 100q-124 0 -213 -71l-122 122q140 119 335 119q215 0 367.5 -148.5t152.5 -359.5q0 -214 -152.5 -364t-367.5 -150q-211 0 -382 158 q-76 80 -76 186zM286 353q0 -45 32.5 -78.5t77.5 -33.5q47 0 80.5 33.5t33.5 78.5q0 47 -33.5 79.5t-80.5 32.5q-45 0 -77.5 -32.5t-32.5 -79.5z" />
<glyph unicode="&#x1002;" horiz-adv-x="1237" d="M111 507q0 212 147 360t358 148q210 0 359 -148t149 -360q0 -210 -151 -380q-93 -91 -211 -127l-60 159q87 23 150 90q101 123 101 258q0 141 -98 240.5t-239 99.5q-138 0 -237 -99.5t-99 -240.5q0 -135 96 -258q68 -67 156 -90l-62 -159q-117 36 -214 127 q-145 170 -145 380z" />
<glyph unicode="&#x1003;" horiz-adv-x="2076" d="M111 507v9l3 66l157 43q97 23 97 125q-13 94 -86 90l-65 -4l-43 -26l-44 170q44 23 135 33l88 -12q114 -44 146 -130q17 -30 26 -98l5 -44q12 -202 -242 -275h-6q15 -104 96 -185q100 -99 238 -99q141 0 239 99t98 238q0 137 -101 260q-63 66 -150 87l60 161 q118 -35 211 -127q151 -171 151 -381q0 -29 -2 -55q17 -105 94 -183q100 -99 240 -99t238 100t98 236q0 140 -98 239t-238 99q-57 0 -104 -16l-63 158q77 27 167 27q210 0 358.5 -148t148.5 -359t-148.5 -358.5t-358.5 -147.5q-209 0 -360 146q-34 34 -60 74 q-10 -16 -23 -29l-5 -9v3q-15 -17 -33 -39q-149 -146 -359 -146q-211 0 -358 147.5t-147 359.5z" />
<glyph unicode="&#x1004;" horiz-adv-x="1237" d="M114 507q0 212 149.5 360t359.5 148t357 -148q53 -54 87 -115l-130 -119q-25 61 -77 113q-98 101 -237 101q-140 0 -237.5 -99.5t-97.5 -240.5q0 -135 97.5 -235t237.5 -100q139 0 237 99q52 55 77 116l130 -122q-30 -61 -87 -117q-147 -146 -357 -146t-358 146 q-38 39 -65 79q-79 120 -86 280z" />
<glyph unicode="&#x1005;" horiz-adv-x="1237" d="M111 510q0 209 147 357t358 148q210 0 359 -148t149 -357q0 -213 -149 -360.5t-359 -147.5q-211 0 -358 147.5t-147 360.5zM279 506q0 -44 32.5 -73.5t70.5 -29.5q43 0 76.5 29.5t33.5 73.5q0 51 -33.5 80.5t-76.5 29.5q-38 0 -70.5 -29.5t-32.5 -80.5zM401 249 q91 -77 215 -77q141 0 239 99t98 239q0 136 -98 236.5t-239 100.5q-119 0 -211 -77q89 -8 156 -74q79 -75 79 -184q0 -111 -79 -186q-69 -68 -160 -77z" />
<glyph unicode="&#x1006;" horiz-adv-x="2045" d="M103 344q0 108 76 186t186 78q114 0 191.5 -78t77.5 -186q0 -99 -68 -172q142 2 238 97q102 103 102 245q0 138 -101 238t-246 100q-122 0 -212 -71l-122 122q138 119 334 119q216 0 367 -149q40 -37 70 -80q26 37 61 74q147 148 359 148q210 0 358.5 -148t148.5 -357 q0 -213 -148.5 -360.5t-358.5 -147.5q-212 0 -359 146q-37 39 -64 79q-28 -40 -67 -79q-151 -148 -367 -148q-210 0 -380 158q-76 80 -76 186zM281 353q0 -45 33 -78.5t77 -33.5q47 0 81 33.5t34 78.5q0 47 -34 79.5t-81 32.5q-44 0 -77 -32.5t-33 -79.5zM1080 510 q0 -140 99 -239t237 -99q140 0 238 99t98 239q0 136 -98 236.5t-238 100.5q-138 0 -238 -101q-91 -94 -98 -216v-16v-4z" />
<glyph unicode="&#x1007;" horiz-adv-x="1237" d="M111 507q0 210 147 358t358 148q210 0 357 -146q87 -89 94 -150l-139 -62q-21 37 -76 89q-95 100 -236 100q-138 0 -237 -100t-99 -237q0 -139 99 -238t237 -99q128 0 217 82l124 -120q-144 -132 -341 -132q-211 0 -358 147.5t-147 359.5zM555 630q0 109 77.5 184.5 t184.5 75.5q108 0 186 -75.5t78 -184.5q0 -111 -78 -186.5t-186 -75.5q-107 0 -184.5 75.5t-77.5 186.5zM719 623q0 -41 33.5 -71t72.5 -30q42 0 75 30t33 71q0 51 -33 81t-75 30q-39 0 -72.5 -30t-33.5 -81zM900 719h175q22 -79 85 -146q58 -57 132 -81l-48 -165 q-114 37 -205 127q-113 114 -139 265z" />
<glyph unicode="&#x1008;" horiz-adv-x="1492" d="M111 510q0 209 147 357t358 148q210 0 359 -148t149 -357q0 -213 -149 -362q-30 -27 -63 -51l2 -727q3 -80 37.5 -107t112.5 -27q71 5 114 27t49 107v1635h175v-1675q0 -265 -246 -267h-168q-251 12 -251 248l-3 702l7 2q-59 -13 -125 -13q-211 0 -358 147.5t-147 360.5z M279 506q0 -44 32.5 -73.5t70.5 -29.5q43 0 76.5 29.5t33.5 73.5q0 51 -33.5 80.5t-76.5 29.5q-38 0 -70.5 -29.5t-32.5 -80.5zM401 249q91 -77 215 -77q141 0 239 99t98 239q0 136 -98 236.5t-239 100.5q-119 0 -211 -77q89 -8 156 -74q79 -75 79 -184q0 -111 -79 -186 q-69 -68 -160 -77z" />
<glyph unicode="&#x1009;" horiz-adv-x="1237" d="M170 264l127 123q29 -61 79 -116q98 -99 236 -99q140 0 238 100t98 235q0 141 -98 240.5t-238 99.5q-138 0 -236 -101q-50 -52 -79 -113l-127 119q33 61 86 115q147 148 356 148q213 0 360.5 -148t147.5 -360q0 -135 -84 -280q-28 -40 -65 -79q-146 -146 -359 -146 q-155 0 -276 81v-557q0 -127 79 -210.5t198 -83.5h339q115 0 199.5 82t86.5 197v15h171v-27q6 -198 -119.5 -317t-320.5 -119h-365q-191 0 -312.5 127.5t-121.5 320.5v753z" />
<glyph unicode="&#x100a;" horiz-adv-x="2034" d="M120 264l127 123q29 -61 79 -116q98 -99 236 -99q140 0 238 100t98 235q0 141 -98 240.5t-238 99.5q-138 0 -236 -101q-50 -52 -79 -113l-127 119q33 61 86 115q147 148 356 148q213 0 360.5 -148t147.5 -360q0 -135 98 -235t241 -100q137 0 235 100t98 235 q0 141 -98 240.5t-235 99.5q-120 0 -210 -72l-91 142q129 98 301 98q209 0 356.5 -148t147.5 -360q0 -210 -147.5 -357.5t-356.5 -147.5q-212 0 -360 146q-37 39 -63 79q-28 -40 -65 -79q-146 -146 -359 -146q-155 0 -276 81v-557q0 -127 79 -210.5t198 -83.5h883 q114 0 198 82t86 197v15h172v-27q7 -198 -118.5 -317t-321.5 -119h-908q-191 0 -312.5 127.5t-121.5 320.5v753z" />
<glyph unicode="&#x100b;" horiz-adv-x="1237" d="M111 507q0 212 149 360t358 148q210 0 357 -148q54 -54 87 -115l-129 -119q-26 61 -79 113q-97 101 -236 101q-140 0 -238 -99.5t-98 -240.5q0 -135 98 -235t238 -100q139 0 236 99q53 55 79 116l129 -122v-397l-56 -36q-173 -96 -390 -96q-187 0 -341 77l-4 -101 q156 -73 354 -73q148 0 272 42l161 -112v-337h183v-169h-351v431q-123 -26 -267 -26q-214 0 -389 73v2l-102 54v327l126 96q155 -112 355 -112q154 0 279 58v115q-119 -79 -274 -79q-209 0 -358 146q-38 39 -64 79q-82 120 -85 280z" />
<glyph unicode="&#x100c;" horiz-adv-x="1172" d="M111 507q0 212 149 360t358 148q210 0 357 -148q54 -54 87 -115l-129 -119q-26 61 -79 113q-97 101 -236 101q-140 0 -238 -99.5t-98 -240.5q0 -135 98 -235t238 -100q139 0 236 99q53 55 79 116l129 -123v-753q0 -193 -121.5 -320.5t-312.5 -127.5h-69 q-195 0 -321.5 119t-118.5 317v27h171v-15q2 -115 86.5 -197t196.5 -82h43q121 0 200 83.5t79 210.5v557q-120 -81 -277 -81q-209 0 -358 146q-38 39 -64 79q-85 145 -85 280z" />
<glyph unicode="&#x100d;" horiz-adv-x="1182" d="M108 -148v413l130 122q26 -61 78 -116q96 -99 235 -99q140 0 238 100t98 235q0 141 -98 240.5t-238 99.5q-139 0 -235 -101q-52 -52 -78 -113l-130 119q33 61 87 115q146 148 356 148q212 0 360 -148t148 -360q-4 -160 -85 -280q-26 -40 -63 -79q-148 -146 -360 -146 q-153 0 -274 79v-126q127 -64 279 -64q201 0 355 111l153 -96v-673h182v-168h-348l-3 731q-154 -76 -341 -76q-217 0 -389 95z" />
</font>
</defs>
</svg>
