<?xml version="1.0" standalone="no"?>
<!DOCTYPE svg PUBLIC "-//W3C//DTD SVG 1.1//EN" "http://www.w3.org/Graphics/SVG/1.1/DTD/svg11.dtd" >
<svg xmlns="http://www.w3.org/2000/svg" xmlns:xlink="http://www.w3.org/1999/xlink" version="1.1">
<metadata></metadata>
<defs>
<font id="kt_unicode_font_2regular" horiz-adv-x="0" >
<font-face units-per-em="2048" ascent="1638" descent="-410" />
<missing-glyph horiz-adv-x="651" />
<glyph unicode="&#xd;" horiz-adv-x="681" />
<glyph unicode=" "  horiz-adv-x="651" />
<glyph unicode="&#x09;" horiz-adv-x="651" />
<glyph unicode="&#xa0;" horiz-adv-x="651" />
<glyph unicode="!" horiz-adv-x="567" d="M174 1141v325h223v-325l-53 -776h-115zM182 0v205h207v-205h-207z" />
<glyph unicode="&#x22;" horiz-adv-x="724" d="M92 1227v239h205v-239l-45 -281h-111zM424 1227v239h205v-239l-47 -281h-109z" />
<glyph unicode="#" horiz-adv-x="1064" d="M18 862l263 64l88 454l114 -53l-32 -379l225 -33l49 365l100 -12l-2 -344l158 47l20 -142l-178 -24l-2 -283l166 92l27 -168l-193 -67l-2 -344l-270 -60l55 414l-194 76l-41 -483l-256 88l71 370l-159 -69l6 176l182 35l47 239l-168 -92zM420 571l203 -51l39 297l-218 49 z" />
<glyph unicode="$" horiz-adv-x="837" d="M18 172l144 234q104 -96 209 -97q160 0 159 78q0 55 -110 143q-172 131 -209 172q-113 117 -113 250q0 127 75 221.5t198 122.5l-31 158l184 31l-16 -180q113 -12 215 -84l-43 -160q-102 86 -225 86q-61 0 -115.5 -49t-54.5 -111q0 -82 129 -166q225 -145 239 -159 q131 -115 131 -265q0 -248 -276 -327l39 -303l-230 59l31 221q-166 0 -330 125z" />
<glyph unicode="%" horiz-adv-x="1271" d="M18 1092q0 152 101 258q92 98 200 98q109 0 173.5 -109.5t64.5 -277.5t-74 -260q-61 -80 -149 -80q-117 0 -213 104q-102 111 -103 267zM209 23l668 1454l272 -164l-840 -1344zM240 1057q0 -201 100 -201q109 0 109 242q0 205 -103 205q-106 0 -106 -246zM698 358 q0 168 99 281q90 106 204 104q88 0 148 -79q70 -93 70 -263q0 -180 -69 -282.5t-171 -102.5t-184 84q-96 98 -97 258zM928 393q0 -221 104 -221q107 0 107 168q0 260 -119 256q-92 -2 -92 -203z" />
<glyph unicode="&#x26;" horiz-adv-x="1292" d="M18 344q0 143 105 246q74 70 233 147q-150 209 -149 340q0 156 127 240q111 74 270 74q147 0 243.5 -86t96.5 -232q0 -111 -102 -223q-59 -66 -195 -166l256 -408q96 92 96 297q0 180 -45 330l287 19q-4 -264 -43 -424q-59 -238 -211 -357l158 -252l-68 -41l-186 230 q-188 -109 -383 -109q-186 0 -328 92q-162 106 -162 283zM317 272q0 -164 193 -163q135 0 285 86l-303 372q-96 -76 -130 -125q-45 -68 -45 -170zM485 1055q0 -82 74 -221q236 121 236 266q0 70 -42 124t-112 54t-117 -80q-39 -70 -39 -143z" />
<glyph unicode="'" horiz-adv-x="290" d="M18 1415l220 -29l-60 -397l-135 8z" />
<glyph unicode="(" horiz-adv-x="647" d="M18 612q0 266 82 518q66 199 162 343l354 -13q-125 -176 -200 -422q-80 -258 -80 -516q0 -231 74 -477q63 -207 155 -360l-143 -45q-137 150 -262 428q-141 313 -142 544z" />
<glyph unicode=")" horiz-adv-x="647" d="M0 -348q125 176 201 422q80 258 80 516q0 231 -74 477q-63 207 -156 360l144 46q137 -150 262 -429q141 -313 141 -544q0 -266 -82 -518q-66 -199 -162 -342z" />
<glyph unicode="*" horiz-adv-x="839" d="M18 1153l265 -51l14 31l-227 219l227 102l88 -315h21l118 307l197 -109l-234 -204v-23l285 37l14 -234l-284 95v-23l205 -242l-242 -65l-74 287l-20 -9l-52 -270l-213 109l220 235l-7 21l-278 -80z" />
<glyph unicode="+" horiz-adv-x="1234" d="M18 780l443 -47l-47 414l424 37l-78 -484l399 -43l23 -110l-457 -60l-78 -489l-102 8l-51 453l-396 -51z" />
<glyph unicode="," horiz-adv-x="507" d="M18 -301l191 577l287 -79l-250 -441z" />
<glyph unicode="-" horiz-adv-x="630" d="M41 436l45 213l475 146l8 -299z" />
<glyph unicode="." horiz-adv-x="507" d="M158 86q0 55 34.5 104.5t81.5 49.5t83 -49.5t36 -104.5q0 -53 -35.5 -99t-83.5 -46q-47 0 -81.5 46t-34.5 99z" />
<glyph unicode="/" horiz-adv-x="946" d="M0 -12l760 1489l158 28l-512 -1663z" />
<glyph unicode="0" horiz-adv-x="944" d="M18 680q0 315 172 504q147 164 345 164q156 0 256 -179q102 -186 102 -501q0 -332 -113 -512q-106 -172 -288 -172q-166 0 -310 182q-164 209 -164 514zM403 791q0 -326 86 -469q53 -88 119 -89q135 0 135 332q0 197 -38 350q-51 211 -158 211q-143 0 -144 -335z" />
<glyph unicode="1" horiz-adv-x="622" d="M18 1184l273 186l278 -33l-92 -1339l-399 94l172 1012h-4l-174 -94z" />
<glyph unicode="2" horiz-adv-x="966" d="M18 1124q150 231 435 232q160 0 280 -84q133 -94 133 -242q0 -180 -51 -307q-41 -100 -143 -221q-106 -127 -213 -252l-64 -80l6 -14l512 141l-47 -342l-780 -14l-61 161l247 295q102 117 203 234q100 131 100 252q0 59 -45 106q-53 55 -135 55q-94 0 -243 -176z" />
<glyph unicode="3" horiz-adv-x="829" d="M18 35l72 205q76 -80 182 -80q72 0 119 60.5t47 154.5q0 113 -43 192q-49 90 -131 90q-41 0 -84 -18l-24 180q51 -10 96 -10q143 0 143 209q0 182 -139 182q-68 0 -129 -61l-96 102q106 137 239 137q141 0 242 -78q125 -96 125 -282q0 -168 -139 -250q280 -105 280 -410 q0 -217 -186 -327q-133 -76 -285 -76q-186 0 -289 80z" />
<glyph unicode="4" horiz-adv-x="1056" d="M18 477l535 854l319 -8l-41 -811l173 53l-13 -194l-168 10v-350l-331 -31l67 352l-520 -35zM190 463l3 -4l366 39l-14 546h-8z" />
<glyph unicode="5" horiz-adv-x="892" d="M18 8l33 195q66 -106 209 -107q111 0 197 104.5t86 225.5q0 141 -62 229q-76 106 -227 107q-72 0 -203 -47l-12 624l680 -22l-55 -254l-463 149l-2 -2l112 -352q225 -14 342 -86q187 -113 187 -387q0 -438 -572 -438q-100 0 -250 61z" />
<glyph unicode="6" horiz-adv-x="950" d="M18 580q0 297 179 497q164 186 452 262q37 6 96 19l72 -152q-188 0 -325 -133q-141 -139 -179 -375l17 -2q90 154 235 154q174 0 260 -141q74 -119 74 -303q0 -190 -90 -306t-244 -116q-227 0 -364 112q-182 150 -183 484zM432 442q0 -287 168 -286q74 0 121 84t47 215 q0 92 -31 159q-41 88 -121 88q-88 0 -141 -90q-43 -74 -43 -170z" />
<glyph unicode="7" horiz-adv-x="972" d="M18 0l795 1190l-547 -281l-63 441l661 -15l56 -47l-330 -1280z" />
<glyph unicode="8" horiz-adv-x="890" d="M18 309q0 139 127 256q35 31 189 133v4q-152 98 -166 111q-86 78 -86 193q0 166 139 262q117 80 268 80q143 0 248 -99q94 -92 94 -200q0 -209 -202 -336v-6q209 -136 209 -355q0 -154 -132.5 -261t-302.5 -107t-277.5 88t-107.5 237zM332 375q0 -98 47 -156.5t129 -58.5 q70 0 125 28q88 46 88 150q0 154 -260 274q-129 -86 -129 -237zM369 1051q0 -109 116 -195q211 92 211 182q0 78 -49 140q-53 70 -133 69q-70 0 -111 -63q-35 -55 -34 -133z" />
<glyph unicode="9" horiz-adv-x="894" d="M18 862q0 201 103.5 343.5t265.5 142.5q176 0 309 -140q146 -153 146 -389q0 -469 -279 -690q-211 -168 -538 -168l32 154q102 0 201 41q80 35 121 75q133 137 153 392h-4q-70 -123 -227 -123q-127 0 -205 99t-78 263zM139 924q0 -119 45 -195q49 -82 133 -82 q72 0 138 98q55 87 55 144q0 168 -72 260q-61 78 -147 78q-45 0 -94 -84q-57 -94 -58 -219z" />
<glyph unicode=":" horiz-adv-x="548" d="M197 86q0 55 34.5 104.5t81.5 49.5t83 -49.5t36 -104.5q0 -53 -36 -99t-83 -46t-81.5 46t-34.5 99zM197 879q0 55 34.5 104t81.5 49t83 -49t36 -104q0 -53 -36 -99.5t-83 -46.5t-81.5 46t-34.5 100z" />
<glyph unicode=";" horiz-adv-x="548" d="M18 -299l191 578l287 -80l-250 -441zM215 879q0 55 35 104t82 49t83 -49t36 -104q0 -53 -36 -99.5t-83 -46.5t-82 46t-35 100z" />
<glyph unicode="&#x3c;" horiz-adv-x="1073" d="M18 551l830 725l131 -295l-821 -436l2 -19l862 -374l-174 -240l-817 580z" />
<glyph unicode="=" horiz-adv-x="1159" d="M18 442l1059 136l-39 -320l-987 47zM20 698l41 252l1047 -119v-137z" />
<glyph unicode="&#x3e;" horiz-adv-x="1073" d="M18 152l863 374l2 19l-822 436l132 295l829 -725l-12 -59l-817 -580z" />
<glyph unicode="?" horiz-adv-x="843" d="M18 1253q53 66 156 105q92 35 186 35q176 0 299 -99q132 -106 132 -280q0 -176 -138 -295q-37 -33 -256 -158q-137 -80 -137 -162l37 -55l-197 -72l-34 156q0 150 116 252q109 76 215 149q117 82 117 185q0 158 -135 157q-84 0 -184 -163zM129 92q0 51 34 102.5t83 51.5 t84 -51.5t35 -102.5t-35 -98t-84 -47t-83 47t-34 98z" />
<glyph unicode="@" horiz-adv-x="1439" d="M18 565q0 340 251 582t595 242q252 0 387 -124t135 -347q0 -276 -124 -467q-123 -182 -289 -183q-76 0 -119 92q-12 25 -45 146q-109 -190 -250 -191q-82 0 -149 60q-74 68 -74 172q0 188 131 350q147 180 352 180q84 0 150 -28l-62 -426q-14 -100 -14 -119 q0 -49 35 -95.5t65 -46.5q84 0 176 156q102 170 103 361q0 205 -137 321q-121 106 -297 107q-233 0 -398 -191q-174 -205 -174 -526q0 -477 449 -477q137 0 268 112l51 -106q-209 -111 -385 -111q-276 0 -442 129q-188 145 -189 428zM539 688q0 -137 112 -137q86 0 144 149 q43 109 55 234q-115 12 -94 12q-68 0 -142.5 -87t-74.5 -171z" />
<glyph unicode="A" horiz-adv-x="1368" d="M18 35l592 1386l369 -88l389 -1278l-364 -71l-50 450l-323 17l-158 -435zM657 573l277 33l-143 625l-15 -8z" />
<glyph unicode="B" horiz-adv-x="1050" d="M18 1341q29 10 78 20.5t117 22.5q86 16 153.5 23.5t118.5 7.5q207 0 322 -88q133 -100 133 -297q0 -102 -63 -180t-160 -100l4 -7q127 -45 199 -149q77 -112 77 -266q0 -336 -415 -336q-150 0 -320 57zM455 131q47 -22 109 -22h5q109 0 187 79q75 82 75 209 q0 104 -79 185q-79 77 -185 77h-8l-78 -2zM477 856l86 -12q23 -4 39 -4q86 0 146 57q61 57 61 139q0 225 -211 226q-74 0 -111 -39z" />
<glyph unicode="C" horiz-adv-x="1030" d="M18 688q0 305 230 518q215 201 481 201q158 0 229 -49l-120 -277q-57 29 -127 29q-131 0 -238 -123q-113 -133 -113 -328q0 -197 106.5 -324.5t258.5 -127.5q86 0 145 78l109 -224q-57 -29 -155.5 -53t-159.5 -24q-279 0 -467 215q-178 207 -179 489z" />
<glyph unicode="D" horiz-adv-x="1046" d="M18 23l172 1359q80 31 224 31q295 0 452 -223q127 -180 127 -436q0 -334 -143 -535q-164 -231 -483 -231q-63 0 -349 35zM426 1219l27 -922q33 -10 65 -10q168 0 264 178q72 131 72 260q0 264 -125 399q-96 104 -217 105q-53 0 -86 -10z" />
<glyph unicode="E" horiz-adv-x="962" d="M18 1356l836 47l14 -285l-393 41l-12 -344l352 -16v-211l-348 82l-21 -475l445 28l18 -182l-633 -35z" />
<glyph unicode="F" horiz-adv-x="933" d="M18 1337l863 43l-45 -174l-387 -6l12 -448l391 26l14 -184l-385 -41l19 -510l-201 -45z" />
<glyph unicode="G" horiz-adv-x="1138" d="M18 676q0 350 250 553q205 164 455 164q154 0 307 -127l-135 -215q-72 139 -195 139q-141 0 -224 -144.5t-83 -361.5q0 -225 78 -375.5t182 -150.5q76 0 125 106l-24 254l-168 -65l-92 245l591 33l-139 -680q-145 -82 -287 -82q-258 0 -454 230q-186 219 -187 477z" />
<glyph unicode="H" horiz-adv-x="1316" d="M18 1430l486 -54l14 -606l344 14l-31 596l433 50l-142 -1438l-192 -35l-39 674l-383 -125l31 -520l-213 12z" />
<glyph unicode="I" horiz-adv-x="636" d="M18 1423l566 -59l-119 -1372l-174 6z" />
<glyph unicode="J" horiz-adv-x="841" d="M18 221q66 -14 97 -14q16 0 55 -2t59 -2q92 0 133 45q49 51 49 176q0 19 -1 41l-64 921l442 -122l-159 -899q-37 -209 -120 -292t-239 -83q-39 0 -245 20z" />
<glyph unicode="K" horiz-adv-x="1146" d="M18 1296l496 56l-22 -615h4l290 613l240 -70l-360 -618l428 -625l-267 -88l-243 592l-82 -164l2 -406l-193 19z" />
<glyph unicode="L" horiz-adv-x="1083" d="M18 1276l498 102l-2 -1233l395 170l123 -311l-659 -14z" />
<glyph unicode="M" horiz-adv-x="1808" d="M18 180l281 1196l276 21l291 -789h17l237 721l230 51l407 -1247l-495 -170l-19 1067h-8l-352 -721l-72 29l-332 754h-6l-2 -1125z" />
<glyph unicode="N" horiz-adv-x="1402" d="M18 1327l514 31l420 -879h4l7 930l387 -109l-217 -1298l-172 -2l-467 928h-5l21 -928l-227 -66z" />
<glyph unicode="O" horiz-adv-x="1064" d="M18 676q0 358 191 557q158 164 371 164q432 -1 432 -660q0 -412 -168 -608q-125 -145 -309 -145q-211 0 -353 161q-164 188 -164 531zM377 752q0 -229 59 -369q63 -154 180 -154q109 0 162 138q43 112 43 288q0 201 -51 338q-63 170 -186 170q-207 0 -207 -411z" />
<glyph unicode="P" horiz-adv-x="1114" d="M18 1321q53 12 310 39q264 29 331 29q172 0 285 -109q119 -116 119 -313q0 -190 -125 -308q-118 -108 -290 -108h-3q-35 0 -100 10l51 -565l-190 10zM508 1212l20 -495q84 -14 119 -15q150 0 223 115q45 74 45 152q0 92 -59 159q-68 78 -192 84q-20 1 -59 1t-97 -1z" />
<glyph unicode="Q" horiz-adv-x="1173" d="M18 676q0 332 228 538q197 180 444 181q190 0 299 -162q115 -174 115 -502q0 -285 -96 -473q-82 -162 -215 -219v-6l327 -148l-170 -194l-274 299q-27 6 -53 6q-213 0 -392 164q-213 197 -213 516zM410 618q0 -164 51 -309q59 -170 155 -170q156 0 238 256q59 186 59 391 q0 152 -57 289q-66 152 -160 152q-135 0 -219 -219q-67 -179 -67 -384v-6z" />
<glyph unicode="R" horiz-adv-x="1310" d="M18 1300q53 14 275 54q117 18 193.5 29.5t115.5 13.5t53 2q195 0 297 -109q98 -102 99 -278q0 -150 -109 -258q-86 -88 -147 -90v-5l462 -432l-231 -286l-446 639q0 -6 -58 -5l25 -555l-135 -65zM467 1243l35 -475l108 4q121 4 166 27q101 51 101 198q0 254 -295 254 q-84 0 -115 -8z" />
<glyph unicode="S" horiz-adv-x="942" d="M18 1004q0 172 146 284q135 106 319 107q160 0 332 -121l-90 -180q-147 90 -272 90q-168 0 -168 -154q0 -74 157 -158q233 -125 291 -174q158 -129 158 -317q0 -180 -148.5 -287.5t-365.5 -107.5q-117 0 -203 34q-39 18 -141 84l186 367q119 -117 201 -117q74 0 120 32 t46 85q0 86 -148 152q-254 113 -272 125q-147 96 -148 256z" />
<glyph unicode="T" horiz-adv-x="1267" d="M18 1339l1196 70l-26 -141l-359 -49l-106 -1248l-168 13l-227 1169l-273 -33z" />
<glyph unicode="U" horiz-adv-x="1302" d="M18 1346l527 24l76 -901q16 -193 71 -276q49 -78 146 -78q180 0 180 241q0 35 -4 109l-56 885l291 51l-41 -916q-10 -246 -121 -376q-102 -125 -270 -125q-334 0 -489 454z" />
<glyph unicode="V" horiz-adv-x="1517" d="M18 1268l592 86l256 -1149l21 8l291 1155l286 -45l-446 -1280l-289 -80z" />
<glyph unicode="W" horiz-adv-x="2029" d="M18 1235l508 145l148 -856h8l283 828l139 28l323 -776h5l120 776l424 -129l-506 -1251l-249 63l-220 781h-6l-217 -811l-192 -37z" />
<glyph unicode="X" horiz-adv-x="1280" d="M18 1290l344 168l285 -567h4l207 536l369 -24l-482 -684l433 -668l-252 -94l-283 510h-4l-135 -449l-453 -6l383 703z" />
<glyph unicode="Y" horiz-adv-x="1275" d="M18 1356l398 24l311 -639h4l176 609l316 26l-400 -819l-26 -551l-486 6l273 592z" />
<glyph unicode="Z" horiz-adv-x="1280" d="M18 39l672 1145l-567 -115l55 313l1034 -53l17 -82l-803 -1024l4 -20l660 159l-121 -364l-897 -33z" />
<glyph unicode="[" horiz-adv-x="833" d="M18 1401l762 94l-47 -219l-248 63l-94 -1562h303l-16 -178l-449 39z" />
<glyph unicode="\" horiz-adv-x="825" d="M18 1346l379 167l377 -1611l-98 -64z" />
<glyph unicode="]" horiz-adv-x="833" d="M18 -410l48 220l247 -64l95 1563h-304l17 178l448 -39l211 -1763z" />
<glyph unicode="^" horiz-adv-x="1247" d="M18 539l506 796l166 56l506 -920l-260 -172l-287 965h-6l-399 -938z" />
<glyph unicode="_" horiz-adv-x="1175" d="M0 -90l426 -88l750 88v-195l-441 -143l-735 143v195z" />
<glyph unicode="`" horiz-adv-x="817" d="M254 1350l178 106l133 -272l-49 -72z" />
<glyph unicode="a" horiz-adv-x="860" d="M18 272q0 170 125 272.5t336 102.5q12 80 13 111q0 133 -189 133q-51 0 -168 -68l-74 86q20 23 39 45q43 41 109 66q92 33 223 33q143 0 228 -101.5t85 -275.5v-428q1 -111 64 -213l-274 -53l-39 141h-11q-78 -139 -221 -139q-106 0 -176 79.5t-70 208.5zM168 266 q0 -137 113 -137q141 0 172 317q-98 10 -98 12l3 1q-70 0 -130 -56.5t-60 -136.5z" />
<glyph unicode="b" horiz-adv-x="1024" d="M18 1335l424 76l-22 -559l10 6q66 147 217 148q184 0 279 -191q75 -147 75 -342q0 -246 -106 -377q-89 -110 -227 -110h-2q-141 0 -226 141h-8l-4 -131l-160 -35zM461 406v-14q0 -73 39 -140q47 -84 112 -84q104 0 152 139q33 97 33 232q0 282 -161 282h-1 q-55 0 -100 -45q-57 -57 -64 -162z" />
<glyph unicode="c" horiz-adv-x="802" d="M18 479q0 303 181 445q140 112 366 112h4q72 0 181 -63l-60 -144q-25 23 -49 43q-39 31 -78 31q-121 0 -192 -131q-63 -117 -64 -280q0 -156 60 -263q69 -120 194 -120h2q33 0 84 28q31 18 64 39l34 -145q-63 -37 -249 -37q-172 0 -299 88q-178 127 -179 397z" />
<glyph unicode="d" horiz-adv-x="1026" d="M18 498q0 233 109 374.5t283 141.5q143 0 211 -129h4l-66 510l416 59l-197 -1423l-151 -60l8 144h-6q-84 -133 -230 -133q-143 0 -256 135q-125 150 -125 381zM236 481q0 -150 43 -250q47 -106 120 -106q70 0 120 82t56 186l13 228q1 19 1 37q0 90 -33 158 q-40 80 -116 81q-88 0 -149 -139q-55 -125 -55 -277z" />
<glyph unicode="e" horiz-adv-x="937" d="M18 483q0 246 138 406q145 172 385 172q160 0 256 -121q90 -113 90 -281q0 -25 -8 -108q-12 -100 -13 -115l-528 47q0 -374 291 -374h2q61 0 188 84l41 -142q-166 -84 -235 -84q-250 0 -422 135q-184 145 -185 381zM352 600l305 12q0 127 -14 183q-27 110 -113 110h-2 q-176 0 -176 -305z" />
<glyph unicode="f" horiz-adv-x="759" d="M18 985l125 -4v76q0 430 344 430q148 0 271 -82l-33 -148q-86 53 -102 54q-72 0 -107 -68q-29 -57 -39 -190l-4 -54l170 27l6 -102l-166 -33l-49 -864l-110 -33l-168 862l-129 -20z" />
<glyph unicode="g" horiz-adv-x="980" d="M18 483q0 248 146 398q123 125 264 125q135 0 207 -136h4l-25 211l314 -116l-56 -928q-12 -211 -145 -328q-124 -110 -318 -110h-3q-135 0 -256 71l104 162q41 -29 82 -59q63 -41 117 -41q172 0 172 291v110h-4q-59 -133 -213 -133q-147 0 -263 131q-127 141 -127 352z M252 580q0 -168 53 -285q59 -133 164 -133q134 0 134 198q0 14 -1 29l-10 248q-4 78 -51 143q-53 74 -131 74q-158 0 -158 -274z" />
<glyph unicode="h" horiz-adv-x="983" d="M18 1356l418 47l-26 -533h10q84 133 231 134q100 0 189 -93q94 -100 94 -239q0 -6 -1 -12.5t-1 -10.5l-29 -616l-221 -39l47 620q2 27 3 48.5t1 35.5q0 182 -123 183q-78 0 -129 -72q-49 -74 -55 -166l-29 -641l-186 -4z" />
<glyph unicode="i" horiz-adv-x="460" d="M18 1260q0 68 38 115.5t91 47.5q55 0 93.5 -47.5t38.5 -115.5q0 -66 -38 -114t-94 -48q-53 0 -91 48t-38 114zM33 -29l51 1026l117 -22l237 -936z" />
<glyph unicode="j" horiz-adv-x="616" d="M18 -244q119 25 170 64q63 53 64 155q0 55 -16 129l-218 934l547 -67l-92 -936q-12 -131 -72 -223q-20 -31 -112 -129q-41 -43 -135 -80q-82 -31 -136 -33v186zM143 1260q0 68 38 115.5t91 47.5q55 0 93 -47.5t38 -115.5q0 -66 -37.5 -114t-93.5 -48q-53 0 -91 48 t-38 114z" />
<glyph unicode="k" horiz-adv-x="954" d="M18 1448l426 -68l21 -786h4l215 530l150 -192l-183 -320l283 -628l-129 -23l-287 496l-55 -66l2 -375l-158 -22z" />
<glyph unicode="l" horiz-adv-x="501" d="M18 -92l115 1540l162 -135l154 -1299z" />
<glyph unicode="m" horiz-adv-x="1794" d="M0 1065l461 -78l14 -137h10q66 156 246 156q84 0 162 -39q92 -47 119 -125h4q49 94 162 159q92 55 149 56q188 0 309 -119q111 -111 111 -254v-11.5t-2 -17.5l-47 -661l-340 29l158 571q10 37 10 78q0 102 -49 182q-51 88 -129 88t-131 -94q-53 -96 -54 -215l-4 -672 l-262 41l-57 643q-10 115 -35 166q-37 76 -121 76q-82 0 -133 -82q-44 -71 -44 -154q0 -13 1 -26l49 -613l-190 -24z" />
<glyph unicode="n" horiz-adv-x="1138" d="M0 1044l475 -73l6 -109h4q127 143 289 144q313 0 313 -414q0 -50 -4 -105l-39 -493h-350l160 596q12 47 12 100q0 186 -125 187q-84 0 -165.5 -102.5t-81.5 -233.5q0 -20 2 -41l59 -502h-205z" />
<glyph unicode="o" horiz-adv-x="903" d="M18 496q0 213 132 378q141 176 350 177q184 0 291 -156q92 -137 92 -330q0 -221 -90 -385q-110 -200 -312 -200h-2q-205 0 -336 157q-125 150 -125 359zM338 467q0 -109 31 -188q45 -113 137 -113q94 0 158 139q51 115 51 221q0 125 -39 215q-55 121 -162 121 q-96 0 -143 -157q-33 -111 -33 -238z" />
<glyph unicode="p" horiz-adv-x="1048" d="M18 -451l152 1430l104 29l48 -170l6 -9q29 78 116 125q80 43 172 43q172 0 283 -123q127 -137 127 -389q0 -166 -70 -301q-105 -202 -331 -202h-2q-72 0 -144.5 40.5t-101.5 92.5l-10 -2l102 -475zM414 475q0 -158 20 -217q39 -111 168 -111q88 0 148 125q51 107 51 213 q0 145 -45 252q-51 121 -140 121q-117 0 -167 -145q-35 -98 -35 -238z" />
<glyph unicode="q" horiz-adv-x="1155" d="M18 500q0 221 152 372q131 131 272 132q166 0 240 -138h4l-2 185l164 -62l307 -1290l-424 -92l-20 508h-6q-25 -57 -91 -103q-72 -45 -151 -45q-186 0 -320 172q-125 162 -125 361zM301 520q0 -141 49 -256q61 -141 172 -141q55 0 105 67q50 70 50 171q0 11 -1 22 l-10 219q-6 106 -55.5 183t-121.5 77q-86 0 -139 -106q-49 -98 -49 -236z" />
<glyph unicode="r" horiz-adv-x="784" d="M18 930l418 94l19 -182l6 2q14 49 69 112q84 94 195 95l39 -336q-2 0 -53 -2q-86 -4 -144 -90q-63 -92 -63 -246l2 -365l-164 -28z" />
<glyph unicode="s" horiz-adv-x="755" d="M18 59l68 301q76 -70 176 -120q84 -43 123 -43q63 0 64 67q0 55 -105 115q-158 88 -192 121q-104 92 -105 231q0 141 87 232.5t218 91.5q227 0 350 -156l-118 -121q-82 109 -232 109q-18 0 -43 -21q-29 -27 -28 -53q0 -45 98 -115q143 -102 184 -143q98 -104 99 -229 q0 -154 -105 -254q-96 -90 -219 -90q-184 0 -320 77z" />
<glyph unicode="t" horiz-adv-x="806" d="M18 1001l220 11l2 147l112 82l51 -233l240 47l47 -168l-270 12l137 -522q43 -166 127 -166q25 0 80 20l16 -270l-295 19q-225 14 -227 305l-6 602l-176 -56z" />
<glyph unicode="u" horiz-adv-x="1191" d="M18 952l392 47l-35 -620q-1 -24 -1 -46q0 -233 156 -233q88 0 136 111q37 84 41 190l20 562l412 98l-236 -1065l-155 -14l-17 182l-8 -4q-12 -68 -59 -117q-51 -55 -119 -55q-139 0 -242 82q-123 96 -162 288z" />
<glyph unicode="v" horiz-adv-x="1273" d="M18 1004l488 -29l213 -809h6l246 786l250 47l-422 -1003l-195 12z" />
<glyph unicode="w" horiz-adv-x="1896" d="M18 1026l539 -55l102 -604l9 -2l223 581l131 -14l156 -574h6l188 635l473 -88l-608 -921l-135 10l-160 674l-14 8l-213 -668l-142 -24z" />
<glyph unicode="x" horiz-adv-x="1075" d="M18 -29l351 510l-306 486l406 63l162 -375l6 2l166 373l221 -51l-303 -500l213 -506l-336 -2l-156 351h-4l-205 -322z" />
<glyph unicode="y" horiz-adv-x="1335" d="M18 860l361 137l246 -809h4l147 809l508 -104l-551 -963l-397 -381l-164 291l346 185z" />
<glyph unicode="z" horiz-adv-x="946" d="M18 137l652 686l-578 -200l121 352l659 -10l19 -68l-481 -731l485 145l-72 -321l-737 33z" />
<glyph unicode="{" horiz-adv-x="620" d="M18 616q74 0 115 51.5t41 125.5q0 59 -18.5 179t-18.5 179q0 135 129 238q119 98 260 98l-4 -180q-180 2 -180 -142q0 -68 40 -192.5t40 -192.5q0 -164 -195 -213v-6q219 -59 219 -272q0 -39 -18 -120t-18 -120q0 -164 168 -184l-91 -283q-117 0 -233 172 q-106 158 -107 283q0 59 13.5 180t13.5 180q0 152 -125 152z" />
<glyph unicode="|" horiz-adv-x="622" d="M18 1399l551 143l-106 -1939l-133 -54z" />
<glyph unicode="}" horiz-adv-x="681" d="M45 -274h31q104 0 138 37.5t34 168.5q0 250 10 318q14 111 62.5 177.5t136.5 102.5q-115 55 -162 145.5t-47 305.5q0 195 -4 233q-8 66 -40 92.5t-128 26.5h-31v158h55q98 0 144 -16q63 -23 105 -74t54.5 -130t13.5 -259.5t17.5 -249t64.5 -108.5t126 -42v-163 q-78 -2 -126 -42t-64.5 -109t-17.5 -235.5t-5 -220.5q-10 -84 -35 -134t-60.5 -80.5t-91.5 -47.5q-39 -10 -125 -10h-55v156z" />
<glyph unicode="~" horiz-adv-x="1230" d="M18 512q29 360 246 360q143 0 273 -63q45 -25 184 -121q92 -63 149 -63q104 0 101 233l207 -67q-2 -119 -29 -203q-63 -203 -234 -203q-162 0 -278 53q-39 18 -162 103q-80 53 -147 53q-96 0 -97 -107q0 -41 13 -81z" />
<glyph unicode="&#xa2;" horiz-adv-x="802" d="M18 639q0 412 326 522l-94 213l250 41l-4 -223q35 4 73 4q72 0 181 -63l-60 -144q-25 23 -49 43q-39 31 -78 31q-121 0 -192 -131q-63 -117 -64 -281q0 -156 60 -262q70 -121 196 -121q33 0 84 29q31 18 64 39l34 -146q-49 -29 -213 -36l43 -252l-217 6l50 252 q-158 27 -258 121q-131 127 -132 358z" />
<glyph unicode="&#xa3;" horiz-adv-x="927" d="M18 655v209l189 -49q-23 98 -23 158q0 158 88 268q94 119 248 119q184 0 285 -80l-94 -158q-35 143 -129 144q-147 0 -148 -246q0 -39 35 -199l248 43l-12 -196l-213 49q29 -147 28 -266q0 -182 -176 -367l2 -16l528 139l-49 -244l-704 6l-96 123q115 49 170 187 q47 111 47 251q0 102 -6 146z" />
<glyph unicode="&#xa5;" horiz-adv-x="1275" d="M18 1364l398 25l311 -639h4l176 608l316 26l-355 -725l244 21l-6 -221l-270 28l12 -94l278 -22l-14 -154l-244 47l35 -241l-483 -41l78 299l-219 -23l47 174l206 -14l23 84l-244 4l8 153l236 -8z" />
<glyph unicode="&#xa6;" horiz-adv-x="622" d="M18 1448l551 143l-49 -884l-385 32zM174 489l346 56l-57 -942l-133 -54z" />
<glyph unicode="&#xa9;" horiz-adv-x="1265" d="M18 887q0 262 191 452q184 184 428 185q238 0 406.5 -188.5t168.5 -454.5q0 -264 -169 -452.5t-406 -188.5q-242 0 -430.5 192.5t-188.5 454.5zM203 881q0 -225 143 -394.5t322 -169.5q174 0 298 164t124 393t-124 392.5t-298 163.5q-180 0 -320 -160 q-145 -164 -145 -389zM301 846q0 182 137 311q129 119 289 119q94 0 137 -29l-71 -166q-35 16 -76 17q-80 0 -144 -74q-68 -80 -67 -197q0 -119 63.5 -194.5t155.5 -75.5q51 0 86 45l66 -133q-94 -47 -189 -47q-168 0 -277.5 127t-109.5 297z" />
<glyph unicode="&#xab;" horiz-adv-x="954" d="M18 492l308 593l131 -294l-305 -267l2 -18l338 -262l-175 -240zM332 539l352 518l145 -219l-340 -295l3 -19l411 -331l-201 -168z" />
<glyph unicode="&#xad;" horiz-adv-x="630" d="M41 436l45 213l475 146l8 -299z" />
<glyph unicode="&#xae;" horiz-adv-x="1265" d="M18 887q0 262 191 452q184 184 428 185q238 0 406.5 -188.5t168.5 -454.5q0 -264 -169 -452.5t-406 -188.5q-242 0 -430.5 192.5t-188.5 454.5zM203 881q0 -225 143 -394.5t322 -169.5q174 0 298 164t124 393t-124 392.5t-298 163.5q-180 0 -320 -160 q-145 -164 -145 -389zM332 1178q29 8 150.5 28.5t164.5 22.5q127 8 189 -58q53 -55 53 -151q0 -78 -58 -139q-47 -47 -79 -47v-3l249 -233l-124 -156l-242 344q0 -2 -31 -2l14 -299l-73 -34zM575 1145l19 -256l57 2q66 2 90 14q56 27 56 109q0 137 -160 137q-47 0 -62 -6z " />
<glyph unicode="&#xb0;" horiz-adv-x="817" d="M121 1145q0 59 22.5 111.5t62.5 91t91 60.5t111 22q59 0 111 -22t91 -60.5t61.5 -91t22.5 -111.5t-22.5 -111.5t-61.5 -90.5t-91 -60.5t-111 -22.5t-110.5 22.5t-91.5 60.5t-62.5 90t-22.5 112zM229 1145q0 -37 14.5 -70t38 -57.5t56.5 -38.5t70 -14q39 0 70.5 14 t56 38.5t38 57.5t13.5 70t-13.5 69.5t-38 57t-56.5 39t-70 14.5q-37 0 -70 -14.5t-56.5 -39t-38 -57t-14.5 -69.5z" />
<glyph unicode="&#xb6;" horiz-adv-x="1114" d="M18 944q0 197 119 313q113 109 285 109q68 0 332 -29q256 -27 309 -39l-387 -1314l-96 -7l211 1192l-74 56l-232 -1252l-108 29l59 526q-174 0 -293 109q-125 117 -125 307z" />
<glyph unicode="&#xbb;" horiz-adv-x="954" d="M18 897l201 168l371 -514l-352 -518l-146 219l340 295l-2 18zM430 846l174 239l299 -487l-307 -594l-131 295l305 266l-2 19z" />
<glyph unicode="&#xd6;" horiz-adv-x="1064" d="M18 578q0 309 191 479q158 141 371 141q432 0 432 -567q0 -352 -168 -522q-125 -125 -309 -125q-211 0 -353 139q-164 162 -164 455zM297 1409q0 47 32.5 79t78.5 32q45 0 76.5 -32t31.5 -79q0 -45 -31.5 -77t-76.5 -32t-78 32t-33 77zM377 641q0 -180 59 -291 q63 -121 180 -121q109 0 162 109q43 88 43 227q0 158 -51 266q-63 133 -186 134q-207 0 -207 -324zM616 1407q0 47 33 80t78 33t77 -33t32 -80t-32 -80t-77 -33t-78 33t-33 80z" />
<glyph unicode="&#xd7;" horiz-adv-x="1234" d="M80 256l336 291l-336 248l264 335l299 -387l305 263l96 -60l-268 -373l305 -391l-75 -69l-367 270l-233 -324z" />
<glyph unicode="&#xdc;" horiz-adv-x="1478" d="M41 1356l459 67l-41 -891q-18 -399 182 -399q104 0 160 160q43 119 49 272l22 807l484 139l-277 -1527l-182 -21l-20 262l-9 -6q-14 -98 -69 -168q-61 -80 -140 -80q-164 0 -284 119q-143 137 -191 414zM381 1767q0 68 38 114t91 46t90 -46t37 -114q0 -63 -37 -109 t-90 -46t-91 46t-38 109zM756 1765q0 68 37.5 115t91.5 47q53 0 90 -47t37 -115t-37 -114.5t-90 -46.5t-91 47t-38 114z" />
<glyph unicode="&#xf6;" horiz-adv-x="903" d="M18 496q0 213 132 378q141 176 350 177q184 0 291 -156q92 -137 92 -330q0 -221 -90 -385q-111 -201 -314 -200q-205 0 -336 157q-125 150 -125 359zM246 1239q0 47 33.5 79t78.5 32t76 -32t31 -79q0 -45 -31 -77t-76 -32t-78.5 32t-33.5 77zM338 467q0 -109 31 -188 q45 -113 137 -113q94 0 158 139q51 115 51 221q0 125 -39 215q-55 121 -162 121q-96 0 -143 -157q-33 -111 -33 -238zM567 1237q0 47 32 80t77 33t77.5 -33t32.5 -80t-32.5 -80t-77.5 -33t-77 33t-32 80z" />
<glyph unicode="&#xf7;" horiz-adv-x="1126" d="M18 418l7 287l1050 -134l-14 -73zM401 139q0 55 35 104.5t82 49.5t83 -49.5t36 -104.5q0 -53 -36 -99t-83 -46t-82 46t-35 99zM408 897q0 55 34.5 104.5t81.5 49.5t83 -49.5t36 -104.5q0 -53 -36 -99t-83 -46t-81.5 46t-34.5 99z" />
<glyph unicode="&#xfc;" horiz-adv-x="1191" d="M18 952l392 47l-35 -620q-16 -279 155 -279q88 0 136 111q37 84 41 190l20 562l412 98l-236 -1065l-155 -14l-17 182l-8 -4q-12 -68 -59 -117q-51 -55 -119 -55q-139 0 -242 82q-123 96 -162 288zM307 1239q0 47 33 79t78 32t76.5 -32t31.5 -79q0 -45 -31.5 -77 t-76.5 -32t-78 32t-33 77zM627 1237q0 47 32.5 80t77.5 33t77 -33t32 -80t-32 -80t-77 -33t-77.5 33t-32.5 80z" />
<glyph unicode="&#x100;" horiz-adv-x="1363" d="M-205 27l678 1366l422 -103l446 -1241l-417 -82l-58 436l-368 17l-183 -416zM416 1714l518 -31l-2 -167l-473 -17zM526 561l318 31l-164 579l-16 -6z" />
<glyph unicode="&#x101;" horiz-adv-x="860" d="M18 272q0 170 125 272.5t336 102.5q12 80 13 111q0 133 -189 133q-51 0 -168 -68l-74 86q20 23 39 45q43 41 109 66q92 33 223 33q143 0 228 -101.5t85 -275.5v-428q1 -111 64 -213l-274 -53l-39 141h-11q-78 -139 -221 -139q-106 0 -176 79.5t-70 208.5zM164 1350 l452 -27l-2 -145l-411 -15zM168 266q0 -137 113 -137q141 0 172 317q-115 12 -95 13q-70 0 -130 -56.5t-60 -136.5z" />
<glyph unicode="&#x112;" horiz-adv-x="962" d="M18 1167l836 41l14 -284l-393 41l-12 -252l352 -13v-211l-348 82l-21 -376l445 28l18 -182l-633 -35zM231 1501l453 -26l-2 -146l-412 -14z" />
<glyph unicode="&#x113;" horiz-adv-x="937" d="M18 483q0 246 138 406q145 172 385 172q160 0 256 -121q90 -113 90 -281q0 -25 -8 -108q-12 -100 -13 -115l-528 47q0 -375 293 -374q61 0 188 84l41 -142q-166 -84 -235 -84q-250 0 -422 135q-184 145 -185 381zM283 1350l452 -27l-2 -145l-411 -15zM352 600l305 12 q0 127 -14 183q-27 111 -115 110q-176 0 -176 -305z" />
<glyph unicode="&#x192;" horiz-adv-x="1067" d="M18 -39l60 115q86 -90 139 -90q113 0 127 178q6 6 53 647l-178 -80l-37 236l234 -52q25 219 63 299q70 154 242 154q174 0 295 -139l-60 -115q-53 72 -110 72q-174 0 -174 -271l221 74l-14 -192l-207 14l-72 -698q-12 -121 -88 -203q-80 -88 -201 -88q-172 0 -293 139z " />
<glyph unicode="&#x2dc;" horiz-adv-x="817" d="M137 1223q0 61 41 114q37 51 98 52q43 0 111 -46.5t111 -46.5q27 0 53 41q23 33 27 66l100 -60v-4q0 -63 -60 -125q-61 -59 -129 -59q-39 0 -96 33q-59 33 -84 33q-45 0 -47 -86z" />
<glyph unicode="&#x1000;" horiz-adv-x="2355" d="M-6 629q0 324 301 405q96 63 328 64q82 0 157 -35q6 4 43 0q98 -8 172 -78q55 -49 80 -74q0 -4 4 -19t4 -24q0 -10 -2 -12l25 -74l33 111q12 49 51 96q14 16 63.5 48t53.5 26q76 37 131 35q231 0 329 -64q301 -80 299 -405q0 -121 -24 -197l-86 -280q-66 -133 -256 -172 l-68 57l-35 164l58 65q49 20 151 125q61 156 47 238q6 45 -14 131q-61 106 -354 158l-158 -95q-20 -6 -106 -129q-33 -68 -41 -162q12 -51 10 -88v-41v-16q-2 -4 0 -8q-18 -164 -127 -273.5t-246 -105.5q-72 37 -72 102q0 49 52 109q66 -8 143.5 47t99.5 129q2 17 2 29 q0 25 -20 125q-10 35 -27 73q-2 14 -102 205q-96 55 -129 66l-189 33q-86 -16 -188 -52q-129 -45 -166 -106q-20 -88 -16 -131q-12 -82 49 -238q102 -102 154 -125l57 -65l-35 -164l-70 -57q-193 39 -254 172l-88 280q-25 78 -24 197z" />
<glyph unicode="&#x1001;" horiz-adv-x="1353" d="M0 281q0 -4 7 -9.5t7 -17.5q0 -98 101 -152q35 -18 161 -53q68 -18 101 -18q20 0 20 14q76 -35 193 -35q276 0 352 62q309 72 309 362q0 82 -26 182l-23 84q-125 336 -561 338q-129 2 -258 -37l-86 -26q-92 2 -121 -82q-18 -55 -10 -70q-8 -23 -10 -35q0 -100 100 -100 q41 0 41 12q53 10 53 56q0 55 -6 67l158 29h88q139 0 250 -51q14 6 75 -45q92 -78 97 -109l10 -22q10 -23 4 -27q43 -61 41 -164q0 -27 -24.5 -92.5t-41.5 -65.5q-4 0 -8 5q-111 -143 -350 -144q-53 0 -158.5 17.5t-87.5 17.5q-133 41 -133 131q0 55 70 150q76 39 196 53 q76 10 97 -12q90 -37 88 -113q0 -16 -6 -6q0 -10 -2 -21q-6 -10 2 -10q-25 -33 -25 -53q0 -45 84 -43q76 0 158 88q8 29 10 61q0 55 -37 109l-31 45q-68 98 -227 96q-76 0 -139 -8q-168 -23 -168 -45q-78 -23 -225 -133q-94 -72 -95 -90q-14 -33 -14 -60q0 -12 6 -12 q-6 -12 -6 -18z" />
<glyph unicode="&#x1002;" horiz-adv-x="1372" d="M-6 612q0 -117 26 -192l97 -275q72 -129 276 -165l78 57l39 158l-64 63q-53 20 -167 123q-68 150 -54 231q-6 43 19 127q68 104 385 154l207 -31q35 -8 141 -65q109 -188 113 -199q18 -47 18 -92q-8 -61 -31 -191q-27 -92 -153 -92q-35 0 -78 8q-59 -59 -60 -174 q0 -23 109 -59q166 -2 287 126t121 308q0 123 -119 402q4 4 2 12q0 8 -60 125q-41 41 -84 51q-14 4 -139 14q-45 2 -49 0q-82 35 -172 33q-254 0 -360 -61q-328 -78 -328 -396z" />
<glyph unicode="&#x1003;" horiz-adv-x="2342" d="M43 965q-2 90 51 110q117 25 195 25q121 0 178 -68q16 -10 20 -33q6 -20 0 -51l-2 -45q-2 -20 -8 -39q0 -4 4 -4l-6 -2q-12 -27 -37 -59q-14 4 -53 -43l-49 -60q-76 -49 -88 -125q-23 -76 -23 -86q0 -31 19 -73q16 -8 100 -138q94 -53 123 -63l184 -33q82 16 183 51 q127 45 161 105q20 84 15 125q12 78 -47 229q-100 98 -148 119l-55 63l33 158l67 55q184 -37 248 -163l86 -269q23 -76 20 -192q0 -51 -6 -99q41 -168 101 -149l182 -33q84 16 184 51q125 45 162 105q18 84 14 125q12 78 -47 229q-100 98 -147 119l-55 63l32 158l68 55 q184 -37 248 -163l84 -269q25 -76 24 -192q0 -313 -291 -389q-94 -63 -321 -64q-80 0 -152 35q8 8 -100 18q-68 6 -107 86q-63 -53 -161 -75q-94 -63 -322 -64q-80 0 -151 35q-10 -4 -45 0l-37 2q-76 6 -86 10q-41 10 -74 49q-14 12 -43 80l-27 51q-29 47 -22 56 q-68 174 -68 286q0 80 39 140q27 41 98 108l88 84q-27 6 -90 -4q-76 -14 -96 -14q-31 0 -41 14q-6 33 -6 62z" />
<glyph unicode="&#x1004;" horiz-adv-x="1341" d="M18 438q0 -307 312 -375q80 -63 360 -63q178 0 252 37q6 -4 21 -2q12 0 61 2l203 61q33 18 51 31q4 14 2 25q0 66 -205 116q-23 -70 -133 -100q57 0 -139 -29q-63 -8 -166 -8q-244 0 -354 146q-6 -2 -11 -5q-18 0 -42.5 67t-24.5 93q0 111 61 205l21 31q0 12 35 57 q94 80 114 92q119 55 254 53q117 0 148 -6l161 -30l-4 4q-4 -10 -6 -74q0 -45 55 -47q0 -20 43 -19q102 0 101 95q0 20 -8 41q8 12 -13 73q-31 86 -123 84l-90 29q-104 37 -315 37q-444 0 -569 -340l-25 -92q-29 -113 -27 -189z" />
<glyph unicode="&#x1005;" horiz-adv-x="1390" d="M20 281q0 10 7 18q-12 0 -2 33q12 53 38 80q60 61 218 149q-49 72 -64 144q-37 25 -39 83q0 12 10 35q-8 14 13 70q31 84 125 82l88 26q129 37 264 37q446 0 575 -338l23 -84q29 -102 27 -182q0 -293 -316 -362q-80 -61 -362 -62q-121 0 -197 35q0 -14 -22 -14 q-35 0 -103 18q-127 33 -166 53q-102 55 -102 152q0 12 -7.5 17t-7.5 10zM291 303q0 -88 137 -131q-59 0 86 -17.5t166 -17.5q246 0 358 144q6 -4 9 -5q18 0 43.5 66t25.5 92q0 102 -43 164q4 8 -6 27l-10 22q0 25 -99 109q-27 18 -77 45q-121 53 -256 51h-90l-160 -29 q4 -12 4 -67q12 -78 31 -140q123 31 268 31q164 0 231 -96l33 -45q37 -53 37 -109q0 -33 -10 -61q-84 -88 -162 -88q-70 0 -82 28q-203 37 -356 181l-7 -4q-72 -96 -71 -150zM473 492q86 -86 279 -89q-12 59 -88 91q-20 18 -101 12q-6 0 -90 -14z" />
<glyph unicode="&#x1006;" horiz-adv-x="2267" d="M20 281q0 8 5 18q-10 0 -2 31q14 53 30 76q8 8 68 53q141 109 215 131q0 20 158 45q61 8 131 8q154 0 215 -94l30 -45q33 -53 33 -109q0 -33 -8 -61q-78 -88 -150 -88q-78 0 -79 43q0 18 24 53q-8 0 -2 10q2 10 2 21q6 -10 4 6q0 74 -82 113q-18 18 -92 12 q-115 -14 -184 -53q-66 -96 -66 -150q0 -88 125 -129q-55 0 79 -18.5t153 -18.5q227 0 331 146l21 20q16 0 27 37q25 63 22 94q0 102 -39 162q4 8 -4 27l-10 22q0 25 -90 107q-25 20 -72 45q-111 53 -235 53h-84l-148 -31q4 -10 4 -67q0 -43 -49 -54q0 -10 -39 -10 q-96 0 -96 96q0 12 10 35q-8 16 10 72q29 82 115 80l82 26q117 37 242 37q377 0 508 -278l32 75q8 31 62.5 85.5t79.5 54.5l59 26q27 14 49 31q14 6 78 6q412 0 530 -336l21 -82q29 -104 27 -182q0 -291 -293 -360q-43 -37 -332 -62l-143 31q-146 35 -203 125 q-72 -63 -189 -94q-74 -61 -333 -62q-113 0 -183 35q0 -14 -20 -14q-31 0 -94 18q-119 33 -152 53q-96 55 -96 152q0 12 -6.5 16t-6.5 11zM1196 522q8 -49 6 -90v-49q16 -90 121 -180l172 -64q225 0 311 115l37 41q14 0 31 43q25 63 24 94q0 61 -71 203q-20 41 -146 160 q-121 61 -184 61q-25 0 -51 -8l-78 -25l-57 -47q-100 -82 -115 -254z" />
<glyph unicode="&#x1007;" horiz-adv-x="1366" d="M14 418q0 72 27 180l20 86q117 326 529 326q195 0 293 -35l80 -29q90 4 114 -78q18 -59 10 -71q8 -18 11 -39q0 -33 -11 -51q10 -55 11 -107q-2 -53 -15 -100q16 0 47 12t48 12q41 0 84 -53q-6 -147 -101 -149q-17 2 -33 6q-270 -10 -423 157q-76 86 -76 164q0 45 26 72 l97 108q-37 4 -115 5q-125 0 -236 -52q-18 -12 -104 -88q-35 -45 -35 -55l-18 -29q-55 -90 -56 -196q0 -25 24 -88.5t38 -63.5q4 4 8 4q106 -139 330 -139q133 0 274 29q29 6 6 6q102 29 125 96q190 -49 189 -113v-22q-18 -12 -49 -29l-187 -59q-45 -4 -57 -2q-16 0 -21 2 q-68 -35 -231 -35q-260 0 -334 61q-289 63 -289 357zM762 647q0 -14 10 -26q57 -60 131 -91q41 76 43 125q0 18 -6 35q-27 8 -27 41v2q-4 4 -20 32t-21 28l-30 -11q-4 -12 -42 -62t-38 -73z" />
<glyph unicode="&#x1008;" horiz-adv-x="1687" d="M14 213q0 8 6 18q-10 0 -2 35q10 57 33 86q47 66 178 158q-41 78 -51 156q-31 25 -33 88q0 14 9 39q-6 14 8 75q27 88 104 86l72 29q106 39 217 39q367 0 473 -360l19 -91q25 -111 22 -194q0 -315 -260 -389q-66 -66 -297 -66q-98 0 -162 37q0 -16 -18 -16q-29 0 -84 20 q-104 35 -137 57q-84 59 -84 164q0 12 -6.5 16.5t-6.5 12.5zM238 233q0 -94 112 -139q-49 0 71 -18.5t136 -18.5q201 0 295 156q4 -8 6 -8q14 0 35.5 70.5t21.5 99.5q0 111 -34 176q2 8 -7 29l-8 24q0 25 -80 115q-23 20 -63 49q-100 57 -211 55h-74l-133 -30q6 -15 6 -74 q8 -82 25 -148q100 33 219 33q135 0 190 -102l27 -49q31 -57 31 -117q0 -35 -8 -66q-70 -94 -133 -94q-57 0 -68 29q-166 41 -293 194l-4 -4q-59 -102 -59 -162zM387 438q70 -94 229 -96q-10 63 -73 98q-14 18 -80 13q-6 -1 -76 -15zM803 -657q70 330 69 378q0 49 -38 336 l204 19q18 -115 19 -262q0 -152 -129 -394v-18q0 -14 51 -21.5t53 -11.5q109 -63 162 -61q18 0 43 6q4 18 -16 94q-25 90 -27 105q-51 209 -51 614q0 174 35 815q-4 88 61 86q53 0 131 -49q4 -57 4 -111q0 -137 -31 -387q-33 -262 -34 -387q-6 -334 65 -633q4 -18 6 -47 q0 -92 -75 -155l-86 -72q-43 -37 -93 -35q-47 0 -137 57l-92 56q-6 0 -17.5 -5t-19.5 -5q-10 0 -24 8z" />
<glyph unicode="&#x1009;" horiz-adv-x="1353" d="M57 182q1 -32 19 -32l-8 -846q0 -111 102 -111q45 -33 88 -33q33 0 53 19q78 63 658 129q502 57 698 57q76 0 228.5 -23.5t230.5 -23.5t76 96q0 141 -195 187q-66 16 -301 16q-332 0 -864 -74q-469 -68 -578 -118l4 647h27q59 -8 86 -9q14 0 18 5q80 -35 256 -37 q287 0 359 63q324 70 323 365q0 25 -30 190l-17 90q-133 338 -588 336q-219 0 -321 -37l-86 -30q-96 4 -125 -80q-18 -57 -20 -72q12 -72 24 -96q23 -39 78 -39q43 0 43 18q59 4 59 47q0 70 -4 74l-4 -4l158 31q47 8 149 8q262 0 385 -158q53 -66 31 -65q80 -115 80 -213 q0 -33 -21 -97q-23 -72 -45 -69q-6 4 -14 14q-111 -143 -356 -145q-70 0 -196 17.5t-118 21.5q-111 31 -131 96q-33 -6 -67 -16q-18 8 -31 8q-37 0 -75 -35t-38 -72z" />
<glyph unicode="&#x100a;" horiz-adv-x="2287" d="M2 -684q70 410 70 504q0 49 -15.5 148.5t-15.5 150.5q0 68 199 121q20 -72 125 -105q-55 0 133 -26q61 -10 157 -9q233 0 340 148q6 -4 9 -4q16 0 39.5 67.5t23.5 96.5q0 111 -57 206l-19 33q0 12 -37 60q-90 80 -106 92q-115 55 -244 55q-111 0 -139 -6l-150 -33 q4 -14 4 -70q0 -47 -51 -49q2 -20 -41 -18q-96 0 -96 96q0 20 8 41q-8 12 11 76q29 86 118 84l84 31q100 37 301 36q424 0 545 -346l21 -94q29 -117 26 -192q0 -119 -45 -207q53 -53 103 -68q-29 0 59 -19.5t182 -19.5q98 0 238 82q174 100 174 230q0 23 -105 282 q-55 131 -295 129q-45 0 -86 -4q4 -14 5 -70q0 -47 -60 -55q0 -12 -31 -12q-98 0 -98 100q0 12 2 37q-6 12 15 76q29 86 112 84l84 26q90 29 113 33q80 20 137 8q147 -35 224 -111.5t112 -240.5l20 -88q31 -137 29 -192q0 -307 -303 -381q-66 -66 -340 -66q-33 0 -78 -8 q-31 -6 -61 8l-72 21q-27 0 -90 20q-111 31 -154 51q-41 -14 -90 -26q-76 -66 -342 -66q-168 0 -239 37q-6 -4 -21 -2q-12 0 -57 2l-78 27q18 -131 18 -320q0 -66 -2 -223q131 -53 432 -80q414 -35 637 -31q41 0 124 -10t126 -10q90 0 178 47q41 20 156 104q59 90 119 93 q18 0 39 -13q61 -76 61 -143q0 -92 -82 -125l-182 -80q-78 -35 -211 -35q-72 0 -217 13.5t-219 13.5q18 0 -404 37q-78 6 -127 4q-231 1 -501 -62z" />
<glyph unicode="&#x100b;" horiz-adv-x="1345" d="M10 410q0 72 23 182l16 90q100 330 453 330q168 0 250 -35l69 -29q76 2 99 -82q14 -59 10 -71q6 -18 6 -39q0 -92 -80 -92q-35 0 -35 18q-43 2 -43 47q0 55 6 66l-125 30q-25 6 -116 6q-106 0 -203 -51q-14 -12 -88 -90q-29 -45 -29 -55l-16 -31q-49 -90 -49 -198 q0 -27 20.5 -91.5t32.5 -64.5q2 4 8 6q88 -141 281 -141q80 0 131 6q156 29 110 29q86 29 107 98q164 -51 162 -115q16 -53 18 -98q0 -172 -260 -228q-123 -27 -246 -26q-147 0 -237 39q-31 0 -27 -43q111 -61 272 -62q233 0 406 121q16 12 41 12q43 4 51 -59q6 -29 0 -59 q-4 -150 19 -230q6 -45 40 -45q70 0 111 -110q4 -129 -41 -148q-10 2 -22 2q-16 0 -51 -12t-54 -12q-137 0 -141 358q0 39 -2 170q-172 -162 -449 -162q-246 0 -354 174q-27 78 -27 133q0 88 62 121q47 27 63 15l64 -23q139 -55 284 -53q260 0 326 76q16 31 16 39 q-2 6 -14 14l-51 -17q-25 -4 -264 -36q-147 20 -305 53q-227 109 -228 373z" />
<glyph unicode="&#x100c;" horiz-adv-x="1349" d="M25 430q0 47 26 184l19 93q117 334 516 331q195 0 286 -34l80 -31q86 2 113 -80q16 -57 16 -72q-6 -51 -16 -96q-18 -37 -78 -37q-35 0 -35 19q-53 2 -53 45q0 70 4 73l2 -4l-139 31q-29 6 -133 4q-231 0 -342 -156q-47 -63 -31 -63q-70 -113 -70 -209q0 -35 19 -96 q20 -72 41 -70q6 4 10 14q100 -143 320 -145q61 0 178 21q109 14 102 18q96 31 113 96q31 -6 63 -12q14 6 29 4q33 0 64.5 -35t31.5 -71q0 -33 -14 -33l8 -840q0 -106 -90 -104q-41 -35 -80 -37q-29 0 -47 18q-164 141 -403 142q-70 0 -204 -23t-204 -23t-68 97 q0 164 109 164q563 0 813 -115l-8 645h-23q-51 -8 -76 -8q-12 0 -14 4q-72 -35 -227 -37q-258 0 -322 64q-289 68 -286 364z" />
<glyph unicode="&#x100d;" horiz-adv-x="1329" d="M-31 -4q0 107 23 168q0 66 178 117q20 -70 115 -101q-49 0 121 -28q55 -8 143 -9q211 0 309 146q4 -2 6 -4q14 0 37 66.5t23 92.5q0 111 -54 205l-16 31q0 12 -35 57q-80 80 -96 92q-104 55 -219 54q-102 0 -129 -6l-135 -31q4 -14 4 -70q0 -45 -45 -47q0 -20 -39 -18 q-86 0 -86 94q0 20 6 41q-8 12 10 74q25 86 109 84l73 28q92 37 275 37q385 0 493 -340l21 -92q25 -115 22 -188q0 -307 -270 -375q-68 -63 -309 -64q-156 0 -219 37q-6 -4 -19 -4q-10 0 -53 4l-123 41q-6 -59 41 -125q63 -72 324 -72q223 0 399 82l43 37q14 8 29 8 q35 0 32 -73q-12 -86 -14 -158q0 -213 139 -389q10 -14 80 -31q55 -10 78 -86q-51 -195 -158 -176q-270 8 -270 549q0 94 10 192q-203 -115 -506 -114q-117 0 -176 26q-51 14 -131 66q-39 49 -41 172z" />
<glyph unicode="&#x100e;" horiz-adv-x="1363" d="M0 936q-2 90 51 108q113 25 189 25q117 0 172 -65q16 -10 20 -33q4 -18 0 -49l-2 -45q0 -18 -8 -37q0 -4 4 -4l-6 -2q-12 -27 -37 -60q-12 4 -51 -41l-47 -59q-74 -47 -86 -121q-23 -76 -23 -84q0 -31 19 -74q16 -6 98 -133q90 -51 119 -61l178 -31q84 14 178 49 q123 43 156 100q20 84 14 123q12 76 -45 224q-98 98 -143 118l-56 62l35 153l64 56q180 -37 241 -162l82 -264q23 -74 23 -187q0 -305 -283 -381q-90 -61 -311 -61q-78 0 -148 35q-10 -4 -43 0l-35 2q-76 6 -86 10q-39 8 -71 47q-12 12 -41 78l-27 51q-27 45 -20 53 q-66 170 -66 279q0 80 39 139q25 39 94 105l86 82q-27 6 -88 -4q-74 -12 -92 -15q-31 0 -41 15q-6 33 -6 59z" />
<glyph unicode="&#x100f;" horiz-adv-x="2574" d="M14 590q0 295 336 368q125 72 281 70q100 0 174 -29q27 -2 94 -20l117 -143q45 61 59 73q37 33 135 60q20 4 35 4q45 0 96.5 -27.5t63.5 -64.5q37 47 106 82q51 27 58 22q84 33 145 33q260 0 367 -60q336 -72 334 -368q0 -109 -25 -178l-100 -256q-72 -121 -283 -156 l-78 53l-39 148l66 59q51 20 168 115q70 141 55 215q6 41 -18 119q-70 98 -394 145l-184 -47q-86 -25 -145 -170v-305q0 -215 -78 -252l-129 -55q-27 -12 -53 -13q-66 0 -146 76q-27 27 -39 184l-8 -4v103q-8 49 -27 174h5q-6 8 16 50t22 52q0 14 -10 31q-51 31 -207 117 l-122 59q-324 -47 -394 -145q-23 -78 -18 -119q-14 -74 55 -215q115 -94 170 -115l64 -59l-39 -148l-78 -53q-213 35 -283 156l-98 256q-27 72 -27 178zM1151 545q23 -59 27 -269q4 -86 45 -75q27 12 39 14q8 37 8 66q0 31 -19.5 85t-19.5 83q0 45 22.5 129t22.5 129 q0 47 -25 73q-16 14 -34 8q-20 -12 -41 -20q-4 -20 -15 -55q6 -33 0 -82q-10 -74 -10 -86z" />
<glyph unicode="&#x1010;" horiz-adv-x="2336" d="M47 330v131q0 68 6 84l-6 12q0 41 103 260q8 41 67 90q61 43 102 43l91 31q45 16 111.5 26.5t150.5 10.5q363 0 508 -250l12 43q14 47 51 86l62 45l57 23q74 31 133 30q238 0 330 -57q303 -70 303 -365q0 -106 -23 -176l-88 -254q-66 -113 -258 -149l-69 49l-35 147 l59 60q25 10 80 51q37 27 74 64q61 137 47 208q2 35 -17 117q-57 94 -354 144l-162 -82q-20 -4 -108 -117l-31 -74q16 -59 17 -133q0 -287 -297 -358q-72 -59 -340 -60q-125 0 -205 33q-12 -8 -19 -8q-25 0 -52.5 6t-43.5 10q-115 27 -153 49q-86 53 -97 150zM252 475 q0 -178 12 -194q27 -37 47.5 -55.5t46.5 -35.5l156 -36l160 -17q227 0 338 139l6 -6q18 0 41 64q25 53 24 90q0 57 -71 201q-16 27 -48 61.5t-100 93.5q-100 53 -241 54h-103l-147 -56q-121 -100 -121 -303z" />
<glyph unicode="&#x1011;" horiz-adv-x="2340" d="M47 354v140q0 72 6 88l-6 14q0 43 105 278q8 43 67 97q63 45 105 45l90 33q47 18 114.5 28t151.5 10q367 0 514 -266l12 45q16 51 54 92l63 48l55 24q76 33 135 33q242 0 336 -62q307 -74 308 -387q0 -115 -23 -188l-90 -270q-66 -121 -260 -160l-10 2l-109 -6 q-348 0 -526 155q-59 -41 -164 -69q-72 -66 -344 -66q-127 0 -207 37q-12 -10 -21 -10q-25 0 -52 7t-44 9q-117 29 -155 54q-88 57 -99 159zM254 508q0 -188 12 -207q29 -39 49.5 -58.5t49.5 -37.5l155 -39l164 -19q227 0 342 150l6 -6q18 0 39 67q27 57 27 97q0 59 -72 213 q-16 29 -49 65.5t-103 102.5q-100 55 -243 55h-105l-149 -60q-123 -106 -123 -323zM1247 305q207 -164 301 -164t254 125l90 125q63 145 47 223q4 35 -14 125q-59 98 -360 152l-164 -88q-23 -4 -109 -125l-32 -78q16 -63 16 -141z" />
<glyph unicode="&#x1012;" horiz-adv-x="1316" d="M-10 303q0 94 63.5 171t139.5 77q82 0 79 -117q0 -70 -135 -147q29 -70 305 -103q18 -6 105 -12q49 -4 117 0q123 6 143 53l-180 133q-29 18 -131 70q-45 20 -47 78q-2 106 186 174l123 43q113 39 112 82q0 115 -260 100q-90 -4 -159 -18q-170 0 -154 -62q41 -35 41 -84 q0 -115 -86 -116q-16 0 -41 16q-106 63 -107 209q0 176 158 186q18 -4 57 8l62 19h215q475 0 475 -264q0 -168 -364 -293q217 -100 241 -117q49 -37 117 -82q37 -37 37 -94q-4 -180 -148 -190q-46 -3 -77 -7q-92 -8 -242 0q-158 10 -242 -10q-135 0 -186 17q-72 25 -158 120 q-59 63 -59 160z" />
<glyph unicode="&#x1013;" horiz-adv-x="1366" d="M27 475q-4 61 8 84q-6 4 -6 12q2 46 100 269q10 45 65.5 92t100.5 47l84 29q104 35 256 36q412 0 528 -339l21 -84q29 -104 26 -183q0 -295 -288 -366q-74 -61 -334 -62q-121 0 -199 35q0 -12 -18 -10q-29 0 -92 16q-113 31 -150 53q-88 53 -94 152l-6 84q2 33 -2 135z M227 489q0 -184 11 -198q53 -72 94 -96q10 -1 35 -11q10 39 32 66l140 160q76 86 166 86q104 0 301 -177q33 76 32 117q0 61 -69 207q-20 41 -146 162q-104 53 -235 53h-99l-147 -61q-115 -100 -115 -308zM463 164l20 -6l156 -17q117 2 205 39q-162 152 -269 152 q-37 0 -71 -15q-8 -39 -8 -114z" />
<glyph unicode="&#x1014;" horiz-adv-x="1370" d="M66 109q-6 82 10 106l57 82q84 127 285 125q176 0 270 -98q57 -59 84 -207q147 -6 238 4q12 53 -37 102q-145 119 -441 363q-12 18 -120.5 67t-132.5 78q-8 8 -11 23q0 59 109 202l65 41q86 6 179 9q297 0 372 -76q55 -57 54 -137q0 -72 -76 -72q-49 -27 -78 -27 q-14 0 -51 37q-158 156 -267 156q-20 0 -47 -6q0 -8 -18 -20.5t-18 -18.5q0 -8 153 -121q80 -86 225 -180q178 -119 230 -164q182 -154 184 -283q0 -51 -49 -65l-176 -58q-66 -18 -266 -6q8 -14 12 -397q0 -164 22 -303q-61 -92 -168 -92q-104 0 -104 110q0 18 4 45 q-6 49 -4 109q0 92 20 272q20 182 19 273q-51 2 -82 2q-43 0 -129 -6.5t-129 -6.5q-131 0 -170 39q-12 14 -18 99zM229 121q31 -27 113 -27q61 0 127 8q109 15 121 15q-29 174 -109 174q-47 0 -194 -86q-33 -41 -58 -84z" />
<glyph unicode="&#x1015;" horiz-adv-x="1366" d="M39 442q0 100 24 185l89 262q57 119 249 160l68 -56l37 -153l-57 -60q-49 -20 -152 -118q-57 -145 -47 -220q-4 -45 16 -125q59 -102 348 -147l189 29q29 10 46 19t77 44l102 191q55 135 47 217q-10 66 -98 114q-39 25 -75 37.5t-71 12.5q-47 55 -47 100q0 55 70 96 q147 0 258 -122t111 -296q0 -260 -68 -428l4 -10l-18 -29q-12 -20 -13.5 -23t-1.5 -7l-30 -15q-12 0 -19.5 -1t-13.5 -5q-29 -31 -76 -49l-125 -10h-45q-70 -35 -153 -35q-233 0 -328 59q-297 74 -297 383z" />
<glyph unicode="&#x1016;" horiz-adv-x="1361" d="M-6 436q0 111 26 185l95 260q68 123 270 157l74 -53l39 -154l-64 -59q-51 -20 -162 -117q-66 -143 -51 -219q-6 -41 17 -121q66 -100 376 -149l201 31q35 10 137 61l103 174q-186 27 -275 119q-45 45 -43 162q0 104 43 151l25 27q-8 18 -8 35q0 61 77 96q35 0 66 -6l14 6 l-4 -6q135 -25 228.5 -142.5t93.5 -265.5q0 -115 -115 -383q2 -4 2 -12q-8 -12 -59 -121q-39 -39 -82 -47q-14 -4 -137 -12q-43 -4 -47 0q-80 -33 -168 -33q-248 0 -351 61q-322 74 -321 375zM885 823q31 -209 223 -248q8 53 2 87q-10 63 -104 118q-68 37 -121 43z" />
<glyph unicode="&#x1017;" horiz-adv-x="1370" d="M35 449q0 115 26 190l95 268q70 127 272 162l68 -49l24 29q0 -123 49 -211q57 -102 166 -101q29 0 53 13q43 92 43 200l13 6q0 57 78 97q162 4 281.5 -123t119.5 -303q0 -264 -74 -439q4 -4 4 -10q0 -8 -17 -29.5t-17 -28.5t-33 -14q-33 -4 -35 -12q-41 -39 -84 -47 q-14 -4 -137 -12q-45 -4 -49 0q-80 -35 -168 -35q-250 0 -355 61q-324 78 -323 388zM262 449q-4 -43 19 -123q66 -104 381 -154l200 31q35 10 139 63q109 184 111 197q63 141 49 219q-12 66 -106 121q-39 23 -78 35q-41 -152 -103 -191l-108 -74q-37 -25 -74 -24 q-102 0 -229 141q-27 29 -45 68q-43 -31 -103 -82q-66 -147 -53 -227z" />
<glyph unicode="&#x1018;" horiz-adv-x="2291" d="M16 145q0 66 193 117q20 -70 125 -100q-53 0 129 -29q61 -8 153 -6q227 0 334 145q4 -4 8 -6q16 0 39 65.5t23 92.5q-31 31 -27 78q-4 37 0 67q-12 31 -30 62l-19 31q0 12 -33 59q-88 78 -104 90q-113 55 -238 53q-109 0 -139 -6l-147 -31q6 -14 4 -69q0 -45 -47 -47 q0 -20 -41 -19q-94 0 -95 94q0 20 9 41q-8 12 8 74q29 86 119 84l82 29q98 37 294 37q332 0 474 -220q8 18 16 39q41 27 88 68l51 53q12 6 101 13q39 4 45 0q16 8 18 16l-4 10q4 6 35 6q231 0 327 -61q299 -74 297 -383q0 -113 -24 -184l-86 -267q-63 -125 -254 -161l-68 55 l-35 153l58 62q49 20 149 119q61 145 49 223q4 43 -16 125q-59 100 -348 147l-84 -28q-66 -23 -125 -64q-53 -14 -88 -113l-16 -79q6 -18 8 -37q14 -25 14 -56q-4 -33 -4 -57q0 -307 -293 -375q-74 -63 -332 -63q-166 0 -235 37q-4 -4 -23 -2q-10 0 -53 2l-190 61 q-29 18 -48 31q-4 14 -4 24z" />
<glyph unicode="&#x1019;" horiz-adv-x="1361" d="M39 442q0 100 24 185l93 262q61 119 264 160l69 -56l39 -153l-59 -60q-51 -20 -160 -118q-61 -145 -47 -220q-6 -45 14 -125q27 -42 109 -79q-2 10 -7 32.5t-9 46.5q0 80 55 111l133 84q41 25 133 25q281 0 361 -140l28 56q47 90 47 182v35q-10 66 -102 114 q-41 25 -79 37.5t-73 12.5q-51 55 -51 100q0 55 74 96q156 0 271.5 -122t115.5 -296q0 -260 -70 -428l2 -10l-18 -29q-12 -20 -14 -23t-2 -7l-31 -15q-12 0 -20.5 -1t-14.5 -5q-29 -31 -80 -49l-131 -10h-47q-74 -35 -162 -35q-246 0 -344 59q-311 74 -311 383zM532.5 309 q-0.5 -10 20.5 -35l49 -16q37 -25 47 -88l191 29l84 39l-62 75q-74 84 -248 84q-41 0 -63 -6q-10 -53 -16 -72q-2 0 -2.5 -10z" />
<glyph unicode="&#x101a;" horiz-adv-x="2336" d="M39 440q0 -307 303 -387q100 -59 336 -59q57 0 83.5 5t74.5 28h45q94 10 166 67l86 78l6 16l6 23l-4 14l26 70l31 -107q14 -45 51 -92l64 -45l55 -24q74 -33 133 -33q238 0 332 59q303 76 303 387q0 115 -22 189l-89 270q-66 121 -258 160l-71 -53l-33 -156l57 -64 q25 -12 82 -53q37 -29 74 -67q61 -143 47 -226q2 -35 -16 -123q-59 -100 -357 -153l-161 90q-20 2 -107 123q-33 61 -41 153l8 88l-2 39l2 15q-18 164 -126.5 266t-250.5 102q-72 -35 -71 -94q0 -51 49 -106q66 10 146.5 -43.5t101.5 -124.5l4 -29l-23 -117l-26 -71 l-107 -199l-127 -59l-192 -33q-63 10 -93 17t-98 32q-131 43 -166 104q-20 70 -14 123q-12 76 47 226q104 98 154 120l59 64l-37 156l-67 53q-199 -33 -258 -160l-91 -270q-25 -78 -24 -189z" />
<glyph unicode="&#x101b;" horiz-adv-x="1382" d="M-33 426v41q0 63 47 61q29 88 60 179q10 29 20 47q82 158 201 192q119 82 303 82q98 0 147 -24l62 -5q57 0 99 -19t83 -65l25 -43l16 -34l37 -60q16 -18 27 -47q4 -6 8 -16q39 -106 47 -201v29q-6 -29 -6 -156v-778l28 -47l27 -41l37 16q68 -39 68 -112q0 -29 -13 -54 l-112 -133q-31 -39 -66 -39q-53 0 -151 113q-14 20 -17 49v59l2 64q-8 47 -11 87t-3 89q0 96 29 135l26 152l2 84l12 303q2 33 -2 78t-41 137l-98 196q-39 37 -108 78l-183 35l-184 -70q-125 -53 -158 -102q-14 -53 -14 -106l63 4q168 0 250 -99q106 -131 107 -321 q0 -100 -43 -129l-113 -64q-43 -29 -76 -28l-36 6q-188 33 -246 160l-84 268l-6 -10l-33 20zM221 442q6 -25 12.5 -44t22.5 -58q49 -74 119 -139l82 -43l61 -21q8 88 -96 217q-57 72 -201 88z" />
<glyph unicode="&#x101c;" horiz-adv-x="2338" d="M55 582q1 307 277 379q100 57 334 57q59 0 84.5 -5t72.5 -26h45q72 0 125 -35q18 -6 74 -67q14 -2 51 -37l6 -17l6 -20l-2 -14q20 -41 50 -242q12 -106 18 -145t12 -56q8 -6 31 -35q37 -47 59 -77q8 -4 47 -17.5t107 -34.5l109 -30l161 47q133 45 168 100q6 20 12.5 59.5 t2.5 59.5q16 72 -45 213q-102 92 -156 117l-57 61l32 150l72 51q190 -31 256 -154l88 -258q23 -68 23 -180q0 -297 -303 -371q-94 -59 -302 -59l-47 8l-249 12q-45 0 -74 31l-31 55l-31 43l-26 31q-23 31 -19 41q-12 45 -18 84t-6 90l8 88q-14 66 -32.5 132.5t-53.5 160.5 q-18 10 -67.5 29.5t-59.5 21.5l-191 31q-66 -10 -94 -16.5t-89.5 -26.5t-100.5 -51q-25 -20 -45 -55q-23 -78 -17 -123q-12 -72 47 -213q104 -96 154 -117l59 -57l-36 -150l-68 -55q-199 41 -256 155l-90 256q-25 82 -25 181z" />
<glyph unicode="&#x101d;" horiz-adv-x="1366" d="M47 326v131q0 68 6 84l-6 14q0 39 96 262q8 39 64 90q59 43 96 43l86 31q43 16 106.5 26.5t141.5 10.5q391 0 512 -332l20 -84q10 -53 16.5 -94t6.5 -84q0 -289 -281 -358q-68 -61 -321 -62q-117 0 -193 33q-12 -10 -16 -10q-25 0 -51.5 7t-40.5 11q-106 27 -146 49 q-82 53 -90 152zM240 471q0 -178 12 -195q27 -37 45 -55t45 -35l145 -39l152 -16q215 0 319 141l7 -6q16 0 36 64q25 53 25 90q0 57 -68 203q-14 27 -44.5 61.5t-96.5 95.5q-92 53 -227 54h-96l-140 -58q-115 -100 -114 -305z" />
<glyph unicode="&#x101e;" horiz-adv-x="2287" d="M47 123v24q0 61 193 113q18 -63 125 -94q0 -2 21.5 -9t95 -17.5t167.5 -10.5q227 0 338 141l6 -8q18 0 41 63.5t23 90.5q0 106 -58 192l-18 29l-35 53l-106 88q-106 51 -238 51q-117 0 -139 -6l-150 -26l6 -66q0 -47 -51 -47q0 -20 -41 -20q-94 0 -94 90l8 43v25.5 t11 41.5q25 80 116 80l82 27q45 16 119 25.5t178 9.5q416 0 539 -322l22 -86q23 -117 23 -180q0 -119 -41 -193q47 -49 96 -61h-14q14 -10 82 -21l174 -16q102 0 233 76q172 90 172 213q0 23 -104 262q-51 119 -291 119h-86l6 -66q0 -43 -57 -53q-18 -14 -31 -14 q-98 0 -98 96l2 37q0 10 2 25.5t10 41.5q29 80 115 80l82 27l110 26q49 12 99 13q25 0 67.5 -8.5t94 -33t94.5 -65.5q78 -66 114 -225l19 -80q27 -127 26 -180q0 -285 -299 -355q-61 -59 -333 -59l-78 -10q-37 0 -58 10l-71 21l-90 16q-111 27 -152 49l-88 -27 q-74 -59 -336 -59q-172 0 -237 33h-21h-55l-193 59z" />
<glyph unicode="&#x101f;" horiz-adv-x="2332" d="M35 436q0 115 24 189l88 264q63 127 252 162l70 -56l35 -155l-58 -62q-49 -18 -153 -116q-59 -145 -47 -226q-6 -41 16 -123q61 -100 352 -151l187 31q31 10 129 61q100 184 102 197q10 23 19 45v8q0 94 26 158v6q-12 63 -98 117.5t-145 45.5q-49 55 -50 105q0 61 72 98 q182 4 301 -178v10q0 -18 45 78q53 55 201 64q4 30 70 30q231 0 327 -59q301 -76 299 -385q0 -113 -24 -186l-86 -267q-66 -125 -254 -161l-68 55l-35 155l58 62q49 18 151 119q59 145 45 223q6 43 -14 125q-59 102 -352 149l-56 -30q-31 -8 -125 -62q-78 -76 -102 -194 q-6 -14 -10 -25q0 -70 -2 -49q0 -8 2 -33v-53q0 -8 -10 -14q-16 -121 -60 -230q4 -4 4 -8q0 -10 -15.5 -30.5t-15.5 -29t-30 -12.5q-31 -4 -33 -12q-37 -39 -78 -47q-12 -4 -127 -12q-41 -4 -45 0q-74 -35 -155 -35q-231 0 -328 61q-299 76 -299 383z" />
<glyph unicode="&#x1020;" horiz-adv-x="1335" d="M20 -688q0 434 23 553l104 133q197 -66 488 -66q109 0 268 13q21 26 68 61q-10 33 -13 60l-59 -23q-41 -2 -51 -2q-16 0 -21 2q-63 -37 -217 -37q-244 0 -311 66q-272 68 -272 379q0 76 24 190l21 92q111 346 493 346q184 0 275 -37l78 -30q82 4 106 -84q16 -61 10 -74 q6 -20 8 -43q0 -94 -88 -94q-37 0 -36 16q-47 4 -48 51q0 57 4 70l-137 31q-27 6 -127 6q-117 0 -221 -53q-16 -14 -98 -95q-31 -47 -31 -57l-16 -33q-53 -94 -54 -207q0 -27 21.5 -94t36.5 -67q4 4 8 6q98 -147 307 -148q57 0 171 17.5t93 17.5q96 33 117 103 q72 -20 115 -48l2 5l4 -5q59 -37 57 -71v-4q12 -12 13 -37q0 -20 -13 -49q2 -86 0 -178l-43 -62q-51 -76 -229 -96q-125 -12 -326 24q-4 4 -319 80v-483q41 -10 205 -10q51 6 141 -11q100 -20 141 -24q104 0 193 41q49 43 98 98h92q55 -115 55 -153q0 -14 -8 -29l-49 -84 q-45 -84 -176 -84q-76 0 -226.5 46t-226.5 46q-35 0 -45 -16q-94 -25 -174 -25q-205 0 -205 160z" />
<glyph unicode="&#x1021;" horiz-adv-x="2183" d="M33 291q0 109 61.5 175t151.5 66q51 0 63 -100q10 -72 -30 -100q-53 -20 -113 -49q0 -14 10 -27q86 -96 316 -96q39 0 117.5 -4t121.5 -4q133 4 156 63q-14 23 -203 137q-12 6 -131 58q-43 18 -43 86q0 111 186 170q119 37 131 39q84 33 119 67q2 10 2 16q0 39 -38 71 t-72 32q-82 37 -164 24q-43 6 -166 -24l-68 -31q-104 -23 -104 -49q39 -27 41 -80q0 -100 -78 -98q-23 0 -37 10q-111 61 -112 199q0 174 157 174q80 0 137 20q61 10 131 8q27 0 79.5 -4t78.5 -4q264 0 369 -129h4q31 29 203 82q133 41 198 41q61 0 103 -24 q287 -16 352 -283q6 -27 2 -279q0 -63 -18 -206q-18 -70 -84 -125q-16 -14 -121 -78q-35 -27 -82 -29q12 2 -45 2q-27 -6 -62 -4q-18 0 -58 2t-62 2q-25 -6 -46 -4q-39 0 -76.5 35t-37.5 84q-16 35 -19 63q0 37 25 70q12 31 209 186q29 25 72 25q47 0 120 -39 q53 -27 54 -102q0 -98 -62 -97q-20 0 -35 9q-29 23 -106 75q-6 2 -29 -30l-2 -7q-31 -51 -57 -83v-9q137 6 264 45q57 18 76 54q14 55 30 118l-4 5q12 20 11 57q0 20 -27 102l-37 115q-39 111 -168 145q-94 27 -162 27q-78 0 -262 -121q-23 -20 -67 -57q-72 -82 -363 -168 q205 -96 281 -133q131 -96 131 -176q0 -197 -352 -197q-418 0 -506 23q-96 27 -197 127q-57 55 -57 141z" />
<glyph unicode="&#x1022;" horiz-adv-x="2316" d="M-2 594q0 299 309 375q100 59 342 59q59 0 86 -5t74 -26h47q119 0 256 -141l6 -18l8 -21l-4 -12l25 -70l33 103q14 49 53 90l63 45l58 24q76 31 135 31q244 0 338 -59q309 -72 309 -375q0 -111 -22 -182l-93 -262q-66 -117 -262 -156l-71 51l-35 152l59 63q27 10 82 51 q39 27 76 66q63 141 49 217q2 35 -16 121q-59 96 -363 147l-166 -86q-20 -4 -110 -121q-31 -57 -41 -147l10 -86l-4 -39v-21q-14 -152 -125 -252t-256 -100q-74 35 -74 94q0 47 51 103q66 -10 149 42t103 120l4 28l-22 115l-29 68l-106 192l-129 59l-197 31 q-66 -10 -96.5 -17t-100.5 -30q-131 -43 -165 -100q-23 -70 -17 -121q18 -106 92 -148l70 -110q14 -25 27.5 -32t25.5 -11q35 -37 41 -57l2 -5l10 -41l5 -40v-50q-8 -20 -23 -30q-61 -66 -190 -66q-90 0 -205 25q-57 20 -58 106l7 55q14 16 45 17l100 -12l98 -9l-94 84 q-29 27 -74 92q-25 39 -47 76q-41 60 -53 156z" />
<glyph unicode="&#x1023;" horiz-adv-x="2344" d="M55 590q0 305 297 383q96 59 326 59q82 0 156 -33q6 4 43 0q98 -8 170 -73q55 -47 77 -70q0 -4 5.5 -18.5t5.5 -22.5t-2 -10l22 -70l35 103q12 47 49 92q14 14 63.5 45t53.5 24q74 35 129 33q229 0 325 -59q299 -76 297 -383q0 -113 -24 -187l-47 -151l-23 -23 q-111 -63 -211 -63q-94 0 -102 82q49 20 149 119q61 145 47 223q6 43 -14 123q-59 102 -350 149l-158 -88q-20 -6 -104 -123q-33 -63 -39 -151q10 -47 8 -84v-39v-15q-2 -4 0 -8q-10 -94 -42 -131t-112 -37q-94 0 -94 37q0 6 2 17q31 51 80 151v49l4 15q10 43 -30 123 q-2 16 -103 192q-94 51 -127 61l-186 31q-88 -14 -187 -49q-129 -43 -163 -100q-23 -88 -17 -123q-6 -68 39 -187q16 -14 68 -32q27 -8 53 -92q-109 -90 -180 -93q-63 0 -115 66l-49 151q-25 74 -25 187zM319 -193q2 47 3 62q0 242 231 303q74 47 246 45q66 0 119 -22h34 q39 0 116 -43t77 -80q0 33 10 -43l4 -4q31 109 111 153q20 12 39 12h-4q57 27 102 27q172 0 246 -45q231 -61 231 -303q2 -52 -74 -279q-6 -213 113 -235q84 -14 133 -35q-31 -158 -162 -156q-121 0 -229 156q-63 94 -63 180q0 29 40.5 162t55.5 145q8 37 2 62q6 31 -10 88 q-41 66 -246 102l-117 -63q-16 -8 -74 -88q-20 -43 -26 -103q8 -37 8 -65q-39 -63 -90 -64q-41 0 -82 39q16 20 20 90q-8 27 -92 191q-63 35 -90 41l-135 22q-207 -35 -252 -102q-14 -57 -8 -88q-12 -51 31 -156q-61 -39 -111 -39q-57 0 -86 52q-16 0 -21 24q-4 14 0 57z " />
<glyph unicode="&#x1024;" horiz-adv-x="2654" d="M55 618q0 319 291 400q92 63 318 63q78 0 149 -34q8 4 45 0q94 -8 164 -76q53 -49 78 -74q0 -4 4 -19.5t4 -21.5q0 -10 -2 -12l22 -74l33 109q12 49 49 94q12 16 60.5 48t52.5 26q72 35 127 34q223 0 317 -63q291 -78 289 -400q0 -59 17 -294q12 -195 6 -293l-23 -428 q-31 -94 -45 -121q-29 -49 -92 -60l-117 72l-24 170l37 180q10 2 10 17q0 8 -3 24.5t-3 26.5q0 45 32 80q20 49 23 225q0 281 -23 401q6 45 -14 130q-59 106 -342 155l-152 -92q-20 -6 -102 -127q-33 -66 -39 -160q10 -49 8 -86v-41v-16q-2 -2 0 -6q-18 -162 -122.5 -269.5 t-237.5 -103.5q-70 37 -70 100q0 49 49 107q63 -8 139 46t97 126q4 17 4 29q0 27 -20 122q-10 35 -27 74q-2 14 -98 201q-94 53 -125 65l-183 31q-86 -16 -182 -51q-125 -43 -158 -104q-20 -86 -16 -130q-12 -80 47 -231q98 -102 148 -123l55 -65l-33 -160l-67 -57 q-186 39 -246 168l-86 276q-23 78 -23 192zM111 -676q0 43 6 98l8 54q31 221 563 221q129 0 380 -47t380 -47q86 0 162 18q16 -63 16 -110q0 -115 -102 -115q-39 0 -78 12q-68 -12 -123 -12q-82 0 -235.5 48t-231.5 50q-205 6 -246 4q-141 -12 -233 -86q-6 -16 -64 -63 q78 -37 146 -39q35 0 105.5 12t107.5 12q739 0 946 9l276 12q180 41 271 47l10 612q12 709 -119 1020q-10 25 -24 43q-16 -6 -166 10q-47 -10 -74 -10q-8 0 -201 35q-201 139 -200 309q0 162 39 340q78 244 514 244q70 0 170 -51l165 -82q86 0 113 -88q16 -53 16 -109 q0 -111 -98 -110q-31 0 -47 16q-27 6 -49 74q-43 47 -148 119q-14 4 -62 41.5t-60 37.5q-119 0 -211 -47q-12 -10 -76 -69q-20 -25 -21 -37q-57 -106 -57 -281q0 -29 -16 -28q-2 0 -2 2q14 -86 30 -76q88 -82 121 -74q20 4 55 8l35 11q12 6 39 12t80 16q23 -6 78 -26 q16 0 33 -7l14 -6v-4q31 -8 92 -57q123 -154 189 -729q45 -416 45 -801q0 -217 -17 -424q0 -4 2 -12t2 -15q0 -68 -102 -67q-59 0 -76 41q-240 10 -729 -14q-164 -10 -459 -39q-252 -25 -461 -25q-35 0 -105.5 -8t-107.5 -8q-213 0 -208 235z" />
<glyph unicode="&#x1025;" horiz-adv-x="1376" d="M20 170q1 -31 13 -31l-6 -856q0 -111 92 -108q43 -35 84 -37q29 0 49 18q170 145 416 146q72 0 212 -23.5t210 -23.5q72 0 71 98q0 168 -112 168q-584 0 -842 -119l6 659h27q53 -10 75 -10q14 0 17 4q74 -35 237 -37q264 0 330 66q299 68 299 373q0 45 -29 186l-18 92 q-123 342 -535 340q-201 0 -299 -37l-81 -30q-88 4 -115 -82q-16 -57 -19 -72q6 -51 17 -98q20 -39 80 -39q37 0 37 18q55 4 55 49q0 70 -4 74l-2 -4l143 31q31 6 139 6q240 0 355 -162q49 -63 32 -63q72 -115 70 -213q0 -35 -18 -99q-20 -74 -41 -71q-6 4 -11 16 q-106 -145 -333 -147q-63 0 -181 17t-108 21q-102 31 -119 99q-33 -6 -63 -15q-16 6 -29 7q-33 0 -67 -36t-34 -75z" />
<glyph unicode="&#x1026;" horiz-adv-x="1370" d="M20 166q1 -35 15 -35l-8 -870q0 -113 98 -109q47 -37 90 -39q31 0 51 19q180 147 443 147q76 0 224 -23.5t224 -23.5t76 100q0 170 -121 170q-618 0 -893 -118l6 669h29q55 -8 80 -8q14 0 18 2q78 -35 250 -37q283 0 352 66q317 70 318 379q0 47 -31 192l-20 94 q-129 346 -568 344q-213 0 -317 -36l-86 -31q-94 2 -123 -84q-18 -57 -21 -74q8 -51 19 -98q23 -41 86 -41q39 0 39 20q59 2 59 47q0 72 -4 76l-4 -4l154 33q31 6 145 4q256 0 379 -162q51 -66 33 -65q76 -117 75 -219q0 -33 -20 -99q-23 -76 -45 -71q-4 2 -10 14 q-111 -147 -355 -150q-68 0 -191.5 17.5t-113.5 21.5q-109 31 -127 101q-35 -6 -67 -15q-16 6 -31 6q-35 0 -71 -35.5t-36 -74.5zM43 1520q0 449 412 448q70 0 194 -22q203 -35 348 -152q176 -139 177 -342q0 -41 -19 -119q43 4 41 -47q2 -77 -27 -100q-78 -45 -90 -45 q-31 0 -61 22q-133 -96 -338 -96q-94 0 -186 16q-223 37 -328 172q-123 125 -123 265zM274 1655q-10 -66 5 -139q14 -88 55 -117q31 -14 41 -43q24 -18 69 -47q-4 6 -4 14q0 25 33 80q45 68 88 67q6 0 21 -4q94 55 141 56q121 0 205 -76q6 76 -23 172q-31 109 -84 143 q-68 43 -239 70q-39 8 -54 6q-223 0 -254 -182zM543 1260q88 -45 155 -56q107 -19 168 49l-100 86q-59 47 -113 52q-43 0 -106 -17q0 -12 -4 -114z" />
<glyph unicode="&#x1027;" horiz-adv-x="1337" d="M31 438q0 78 28 176l23 82q131 322 580 324q135 2 266 -37l88 -25q94 2 127 -77q18 -53 10 -68q8 -23 8 -35q0 -94 -102 -94q-31 0 -43 12l-10 -8q-27 -31 -203 -31q-221 0 -342 136l-6 -2q-14 6 -78 -43q-96 -74 -96 -103l-13 -22q-12 -23 -6 -27q-43 -59 -43 -158 q0 -27 26.5 -89t43.5 -62q4 0 8 4q115 -139 362 -139q55 0 164 17t90 17q137 39 138 125q0 18 -31 51q-61 59 -70 72q-45 18 -194 37q-78 8 -97 -10q-49 -18 -53 -23q-20 -14 -22 -51q0 -16 8 -6q0 -8 2 -21q6 -8 -2 -8q53 -66 53 -73q0 -35 -24.5 -66t-59.5 -31 q-80 0 -188 107q-14 49 -15 114q0 51 37 105l31 43q31 45 88 53q33 4 131 4q18 0 146 -18q213 -29 215 -47l84 -17q49 -8 122 -61q96 -70 97 -88q14 -31 14 -55q0 -12 -6 -13l6 -18q0 -4 -4 -8q-12 -4 -10 -17q0 -94 -105 -147q-37 -18 -166 -51q-70 -16 -102 -17 q-23 0 -23 15q-78 -35 -200 -35q-285 0 -363 59q-317 70 -319 348zM567 850q150 -88 234 -88q18 0 59 14.5t58 14.5q8 2 43 -5l6 27l-162 29h-92q-14 0 -37 2t-35 2z" />
<glyph unicode="&#x1028;" horiz-adv-x="1386" d="M16 -254q0 -250 158 -407.5t408 -157.5q137 0 196 20q94 35 199 142q160 164 160 411h-166q-2 -178 -107.5 -289.5t-281.5 -111.5q-170 0 -284 111.5t-114 281.5v829q0 170 114 282t284 112q147 0 251.5 -90.5t135.5 -235.5q4 -252 -31 -350q-31 -84 -123 -135l-78 -23 l-88 12l68 121l45 92q53 111 53 193q0 106 -86 174q-63 51 -149 51q-135 0 -207 -92q-43 -55 -54 -119q-27 -59 13 -168l145 68q-4 27 -4 47q0 41 14 59q2 0 29 21q23 14 43 14q23 0 62 -28q18 -14 27 -46t3 -49q-31 -70 -78 -147.5t-69.5 -126.5t-22.5 -88q0 -141 355 -129 q129 45 208 149q19 23 72 125l21 307q16 231 -154 406q-154 156 -401 156q-250 0 -408 -156t-158 -406v-829z" />
<glyph unicode="&#x1029;" horiz-adv-x="2648" d="M-4 397q0 1360 12 1397q16 4 58.5 67.5t48.5 63.5q72 0 84 -12q100 47 669 45q928 0 1123 -60q92 -27 338 -110q-8 -197 -113 -197q-113 -4 -326 64q-98 33 -690 92q-184 18 -377 22q-88 4 -301 0l-219 -2q-16 0 -57 -28l-39 -29q-12 -326 -12 -960q0 -1186 45 -1371 q8 -4 897 13q946 14 1007 33l19 405q6 176 -4 401l133 166q63 -889 63 -1073q4 -18 0 -39q-29 -72 -618 -102q-352 -20 -690 -19q-993 0 -1008 80l-25 148q-16 115 -18 1005zM252 150q0 68 192 120q20 -72 123 -102q-53 0 131 -29q59 -10 156 -8q225 0 332 148q4 -4 6 -5 q16 0 39.5 68t23.5 96q0 111 -57 207l-16 33q0 12 -37 57q-88 82 -105 94q-113 55 -237 56q-109 0 -137 -8l-148 -31q6 -14 6 -70q0 -47 -49 -51q0 -18 -41 -16q-94 0 -94 94q0 20 6 43q-8 12 10 76q29 86 119 84l80 30q98 37 297 37q412 0 530 -348l23 -92q27 -117 25 -193 q0 -119 -46 -207q53 -53 103 -67q-29 0 57 -19.5t178 -19.5q96 0 232 82q172 100 172 229q0 23 -103 283q-53 131 -288 129q-43 0 -84 -4q4 -14 4 -70q0 -47 -58 -55q0 -12 -32 -12q-94 0 -95 100q0 12 3 37q-8 12 14 76q27 86 110 84l80 26q88 29 111 31q78 20 135 10 q145 -35 220 -111.5t110 -240.5l18 -88q29 -137 29 -193q0 -307 -297 -381q-66 -66 -332 -65q-33 0 -78 -8q-29 -6 -59 8l-70 20q-27 0 -90 21q-109 31 -149 51q-39 -14 -88 -27q-74 -66 -334 -65q-166 0 -236 39q-4 -4 -20 -4q-10 0 -55 4l-191 61q-29 18 -45 33 q-4 14 -4 23z" />
<glyph unicode="&#x102a;" horiz-adv-x="4915" d="M10 512q0 84 27 193l20 88q121 352 537 354q125 0 246 -41l82 -27q86 2 116 -86q16 -57 9 -73q8 -25 8 -37q0 -104 -94 -105q-41 0 -39 15q-51 8 -52 55q0 59 7 72l-150 30h-86q-133 0 -238 -55q-14 6 -73 -47q-88 -80 -88 -113l-13 -24q-10 -25 -4 -27q-41 -66 -41 -174 q0 -27 24.5 -96.5t39.5 -69.5q4 0 10 6q104 -152 334 -151q49 0 150.5 18.5t82.5 18.5q127 43 127 137q0 59 -65 157q-72 41 -189 58q-74 8 -92 -13q-84 -41 -84 -120q0 -16 6 -6q0 -10 2 -23q6 -8 -2 -10q25 -35 23 -56q0 -49 -78 -45q-72 0 -154 93q-8 31 -6 65 q0 57 33 115l31 47q66 102 217 100q72 0 133 -8q158 -25 160 -47q74 -25 215 -139q90 -76 90 -97q12 -35 12 -61q0 -12 -6 -12q6 -14 6 -21q0 -6 -2 -8q-12 -6 -10 -20q0 -102 -96 -160q-35 -20 -154 -56q-66 -18 -96 -18q-20 0 -21 14q-72 -37 -184 -36q-264 0 -336 65 q-293 76 -295 381zM1264 477q0 1364 12 1401q16 4 58 67.5t48 63.5q74 0 84 -12q102 47 676 45q934 0 1131 -60q92 -27 340 -112q-8 -195 -113 -197q-115 -4 -330 66q-98 33 -694 90q-186 20 -379 24q-90 4 -305 0l-219 -4q-16 0 -57 -26l-41 -29q-10 -328 -11 -965 q0 -1188 45 -1374q6 -4 904 13q952 16 1013 32l19 408q8 176 -4 401l133 168q66 -891 65 -1075q4 -20 0 -41q-31 -72 -622 -102q-354 -20 -695 -19q-1004 0 -1017 80l-23 148q-18 115 -18 1009zM1522 229q0 68 194 121q20 -72 123 -104q-53 0 131 -29q61 -8 156 -8 q229 0 336 149l6 -6q16 0 39.5 68.5t23.5 95.5q0 113 -57 209l-18 33q0 12 -35 59q-88 80 -107 92q-113 57 -237 56q-111 0 -140 -7l-147 -32q6 -14 4 -70q0 -47 -49 -49q2 -20 -41 -19q-94 0 -94 97q0 20 6 41q-8 14 10 75q29 88 119 84l82 31q98 37 297 37q418 0 536 -346 l21 -94q29 -117 26 -193q0 -119 -45 -209q53 -51 101 -67q-27 0 59 -18.5t180 -18.5q96 0 234 82q172 98 172 227q0 25 -103 285q-55 131 -290 129q-45 0 -86 -4q6 -14 4 -70q0 -47 -58 -55q0 -12 -32 -13q-96 0 -97 101q0 12 4 37q-8 14 13 75q29 88 112 84l82 27 q88 29 111 33q80 20 135 8q145 -33 221 -110.5t111 -241.5l20 -88q29 -137 29 -193q0 -307 -301 -383q-63 -63 -334 -63q-31 0 -78 -11q-29 -6 -59 11l-70 20q-29 0 -90 19q-109 33 -151 53q-39 -16 -88 -29q-74 -63 -336 -63q-168 0 -238 37q-6 -4 -20 -2q-12 0 -56 2 l-192 61q-29 20 -47 33q-2 14 -2 24zM3521 606q-4 51 28 164l35 121q2 8 14 20l17 19q68 96 137 180q0 2 72 8q41 4 45 0q74 35 155 33q233 0 330 -61q301 -76 301 -392q0 -115 -24 -188l-89 -272q-66 -127 -253 -164l-70 55l-35 158l59 63q49 20 152 121q61 147 47 227 q6 43 -16 127q-61 104 -353 152l-188 -31q-31 -8 -127 -63q-66 -115 -51 -197q-8 -62 -8 -72q0 -25 -13 -49q-29 -66 -51 -65q-123 0 -114 106zM3633 1542q0 43 66 240q82 238 530 237q72 0 178 -49l172 -80q90 0 117 -86q16 -53 16 -108q0 -109 -104 -109q-33 0 -47 17 q-29 6 -49 71q-45 45 -154 117q-14 4 -63 42t-66 38q-123 0 -217 -47q-14 -10 -78 -68q-20 -25 -20 -37q-61 -104 -62 -182q0 -57 -16 -57q-4 0 -2 2q16 -84 31 -74q33 -25 79 -92q35 -47 48 -45q20 6 81 18h11q4 -4 4 -10q4 10 18 37q14 8 78 26q47 -12 92 -26 q57 -23 58 -74v-63q-16 -8 -58 -37l-127 -23q-47 -10 -76 -10q16 -2 17 2q0 10 -100 39q-123 35 -197 45q-162 104 -160 346z" />
<glyph unicode="&#x102b;" horiz-adv-x="337" d="M-776 1542q0 84 43 100l14 3q6 14 12 24l113 133q102 119 391 121q180 0 266 -53q98 -63 111 -232q12 -14 8 -39q-20 -260 -22 -1202q0 -100 22 -258q18 -63 17 -106q0 -63 -39 -64q-168 0 -183 62l-26 141q-20 113 -21 350q0 850 31 1104q-41 129 -252 129 q-111 0 -213 -43q-43 -55 -96 -164q35 -74 102 -137q80 -74 152 -74q17 -2 33 4l47 -38q-12 -74 -37 -148l-82 -37q-20 -8 -41 -10q-137 0 -252 113q-41 39 -70 151q-29 102 -28 170z" />
<glyph unicode="&#x102c;" horiz-adv-x="1040" d="M-248 524q-4 49 29 166l33 123q4 10 12 21l16 20q49 72 135 184q2 0 70 6q39 4 43 0q72 37 152 35q225 0 319 -63q293 -78 293 -400q0 -117 -25 -192l-86 -277q-61 -131 -245 -167l-68 57l-33 160l58 65q47 20 145 123q59 152 47 231q6 45 -16 132q-59 104 -342 153 l-183 -31q-31 -8 -124 -65q-61 -117 -50 -201q-8 -62 -8 -74q0 -25 -10 -49q-29 -66 -51 -67q-119 0 -111 110z" />
<glyph unicode="&#x102d;" horiz-adv-x="12" d="M-1212 1714q0 299 274 299q47 0 131 -18q350 -80 350 -338q0 -106 -31.5 -197.5t-97.5 -142.5q-85 -60 -202 -60q-244 0 -342 158q-35 49 -58.5 134t-23.5 165zM-1051 1647q0 -76 33 -111q18 -16 29 -37q127 -131 244 -131q63 0 102 117q14 57 19.5 97t5.5 99 q0 162 -236 215l-35 7q-68 0 -115 -33q-27 -18 -40 -137z" />
<glyph unicode="&#x102e;" horiz-adv-x="6" d="M-1036 1647q0 416 291 415q45 0 130 -19.5t142 -51t113 -90.5q123 -129 122 -316q0 -20 -2 -47t-10 -61q29 0 29 -43q-1 -74 -19 -97l-63 -39q-18 0 -43 19q-100 -88 -240 -88q-33 0 -65.5 3t-67.5 13q-156 31 -231 158q-86 117 -86 244zM-874 1710q0 -20 6 -79.5 t37 -94.5q20 -16 30 -41q10 -16 47 -43l-2 14q0 18 23 72q31 57 61 64l15 -5q63 53 102 54q84 0 143 -72q0 45 -3 80t-11 80q-20 100 -62 133t-169 61l-37 6q-158 0 -178 -167q-2 -18 -2 -62zM-684 1407q57 -37 111 -53q12 -2 32 -2q53 0 86 49l-69 82q-14 12 -31 22 q-29 20 -49 21q-43 0 -76 -15z" />
<glyph unicode="&#x102f;" horiz-adv-x="6" d="M-791 -399q0 -88 2.5 -155t8.5 -110l6 -47q6 -49 45 -99t80 -50q49 0 126 23.5t93 76.5l4 62q0 61 -53 88l-29 6q-29 0 -65 -31l-41 -33q-20 -6 -32.5 48.5t-12.5 164.5q0 76 8 171.5t14 193.5q12 63 -70 63l-61 -10q-12 -37 -17.5 -109.5t-5.5 -252.5z" />
<glyph unicode="&#x1030;" horiz-adv-x="6" d="M-883 -352q0 -193 15 -295l18 -133q0 -59 121 -60q29 0 29 62q-1 26 -13 98l-16 240q0 115 6 193.5t10 160.5q10 61 -75 61l-68 -10q-14 -41 -20.5 -99.5t-6.5 -217.5zM-604 -389q0 -45 1 -87t11 -171l6 -47q6 -57 47 -101.5t86 -44.5q53 0 129 23q115 37 115 137 q0 90 -92 90q-29 0 -70 -33l-43 -28q-20 -10 -33.5 44t-13.5 163q0 80 8.5 170t14.5 188q10 61 -74 61l-68 -10q-12 -35 -18 -106.5t-6 -247.5z" />
<glyph unicode="&#x1031;" horiz-adv-x="1232" d="M45 449q0 33 1 69.5t20 118.5l18 90q104 352 465 352q49 0 123 -20q41 -12 127 -47l71 -29q74 0 101 -82q16 -49 10 -74l6 -36q0 -102 -82 -103q-16 0 -24.5 5t-10.5 9q-37 2 -43 54l4 71l-169 56h-74q-113 0 -205 -56q-10 2 -61 -47q-74 -76 -78 -110l-8 -25l-7 -29 q-35 -61 -34 -170q0 -23 20.5 -92t34.5 -71l6 6q92 -154 291 -154l129 19l69 18q111 43 111 139q0 55 -57 156q-63 39 -119.5 48t-67 9h-16.5q-20 0 -37 -14q-74 -39 -74 -119l7 -10l2 -21q18 -49 18 -63q0 -47 -70 -47q-57 0 -131 92q-6 18 -6 64q0 61 31 114l22 47 q53 102 191 103l113 -11q137 -23 137 -47q61 -20 184 -139q74 -68 80 -92l10 -64l-6 -10q8 -18 -4 -47q0 -100 -84 -160q-18 -18 -133 -57l-82 -18q-14 0 -19 14q-59 -35 -157 -35q-227 0 -289 64q-254 76 -254 381z" />
<glyph unicode="&#x1032;" horiz-adv-x="12" d="M-1212 1743q2 123 170 129q51 -137 149 -217q70 -55 225 -123q197 -82 346 -84q90 0 152 31q16 -242 -158 -254q-43 -23 -100 -21q-162 0 -373 103q-197 98 -321 227q-51 53 -86 156q-4 29 -4 53z" />
<glyph unicode="&#x1033;" horiz-adv-x="6" d="M-1174 1575v100q0 51 5 64l-5 12q0 29 68 199q4 31 43 69q41 33 68 33l59 23q31 12 75 20t99 8q272 0 354 -254l17 -63q6 -41 10 -73t4 -64q0 -219 -196 -273q-45 -47 -224 -47q-80 0 -133 25q-8 -6 -10 -6q-18 0 -36.5 5t-29.5 7q-74 20 -100 37q-57 43 -63 116z M-1038 1686q0 -135 8 -148q18 -29 30.5 -43t30.5 -27l103 -28l104 -15q150 0 221 109l4 -6q12 0 27 49q18 41 18 70q0 45 -49 153q-8 23 -29.5 49.5t-68.5 71.5q-61 41 -158 41h-65l-99 -43q-78 -76 -77 -233zM-961 1677q0 113 31 146q31 41 129 41q184 0 185 -166 q0 -76 -43 -131q-53 -59 -115 -72l-51 41l-39 -39q-47 0 -72 58.5t-25 121.5zM-870 1669q2 -29 45 -43l6 -6q6 8 14 11t10 3q80 0 80 58q0 51 -80 51l-51 -2q-12 -49 -15 -57.5t-9 -14.5z" />
<glyph unicode="&#x1034;" horiz-adv-x="6" d="M-1161 1460q57 -29 143 -28q143 2 330 77q150 61 215 113q94 76 143 203q160 -6 162 -121q0 -23 -4 -49q-33 -94 -82 -144q-119 -121 -307 -213q-201 -94 -354 -94q-55 -2 -97 19q-166 12 -149 237z" />
<glyph unicode="&#x1035;" horiz-adv-x="12" d="M-1135 1597q0 25 4.5 58t14.5 82l16 59q68 258 387 258q94 0 232 -47q70 0 90 -68l10 -55l12 -29q0 -84 -84 -83l-34 6q-43 10 -43 55v39l-91 14h-59q-96 0 -168 -41q-8 -2 -12 -4t-29 -22q-59 -49 -59 -70l-6 -18l4 -7q-37 -55 -37 -129l12 -53l23 -43l12 -4 q70 -98 225 -98l107 12l57 12l-6 -6l10 -10l-4 -8v24q78 27 78 80q-4 35 -41 96q-63 31 -125 41q-51 0 -57 -10q-53 -27 -54 -67l7 -11l2 -18l10 -39q0 -51 -66 -51q-49 0 -118 76l-9 55q0 86 66 143q35 25 70.5 40.5t74.5 15.5q78 0 133.5 -12.5t79.5 -30.5q61 -23 150 -97 q70 -55 71 -82q10 -37 7 -51l2 -16l-9 -15q0 -84 -94 -141q-78 -39 -162 -39l-22 6q-45 -23 -123 -22q-182 0 -240 49q-215 57 -215 276z" />
<glyph unicode="&#x1036;" horiz-adv-x="6" d="M-918 1645q0 115 37 149q37 41 152 41q213 0 213 -170q0 -78 -51 -135q-61 -59 -133 -72l-60 41l-45 -39q-55 0 -84 59.5t-29 125.5zM-811 1636q2 -31 51 -45l8 -6q8 8 17.5 11t11.5 3q92 0 92 60q0 53 -92 53l-59 -4q-14 -49 -18.5 -57.5t-10.5 -14.5z" />
<glyph unicode="&#x1037;" horiz-adv-x="6" d="M-1018 -381q0 188 248 186q207 0 213 -88l8 -118q6 -66 -29 -127q-37 -74 -100 -72q-6 6 -57 41q-62 -41 -70 -45q-86 16 -149.5 78.5t-63.5 144.5zM-883 -383q0 -68 103 -68q25 -4 35 -14l10 2q61 18 61 55q0 -33 -31 76q-41 6 -67 6q-111 0 -111 -57z" />
<glyph unicode="&#x1038;" horiz-adv-x="616" d="M27 272q0 205 237 205q129 0 172 -49q41 -41 41 -180q0 -82 -31.5 -152.5t-93.5 -70.5l-51 45l-68 -50q-82 14 -149 89q-57 70 -57 163zM27 840q0 209 237 209q195 0 207 -99l6 -110v-19q0 -82 -31.5 -152.5t-93.5 -70.5l-51 47l-68 -49q-78 10 -145 84q-61 76 -61 160z M156 264q0 -74 102 -74q27 -10 33 -16l10 6q53 18 57 58h-6q-10 31 -26 86l-68 4q-102 0 -102 -64zM156 836q0 -74 102 -74q27 -6 33 -12l10 2q53 23 57 63q-4 -4 -8 5t-24 79q-35 4 -47 4q-123 0 -123 -67z" />
<glyph unicode="&#x1039;" horiz-adv-x="2541" d="M2 20v312h123v-312h-123zM2 -49h123v-309h-123v309zM2 399v310h123v-310h-123zM2 -446h123v-187h184v-123h-141h-82q-55 -2 -84 -2v312zM2 780v310h123v-310h-123zM2 1159v309h307v-120h-184v-189h-123zM399 -633h308v-123h-308v123zM399 1348v122h308v-122h-308z M799 -633h305v-123h-305v123zM799 1348v122h305v-122h-305zM891 -281h184v164h107v-164h155v-104h-155v-166h-107v166h-184v104zM1196 -633h305v-123h-305v123zM1196 1348v122h305v-122h-305zM1593 -633h308v-123h-308v123zM1593 1348v122h308v-122h-308zM1663 -764l84 8 h244v123h180v187h123v-144q0 -27 2 -82t2 -84zM1991 1348v122h307v-163q0 -25 -2 -74t-2 -74h-123v189h-180zM2171 20v312h123v-312h-123zM2171 -49h123v-309h-123v309zM2171 399v310h123v-310h-123zM2171 780v310h123v-310h-123z" />
<glyph unicode="&#x103a;" horiz-adv-x="12" d="M-1176 1657q0 35 50 209q63 207 407 207q51 0 137 -43l131 -72q68 0 91 -74q12 -53 12 -90q0 -96 -80 -96q-27 0 -37 16q-16 0 -39 58q-23 29 -45.5 47t-73.5 55l-45 37q-37 33 -51 33q-96 0 -166 -41l-59 -60q-10 -12 -17 -31q-47 -90 -47 -157q0 -43 -12 -49 q6 -41 12.5 -53.5t10.5 -10.5q29 -20 61 -76q10 -18 25 -30q6 -4 12 -11l63 17l11 -10l12 34l59 21l70 -21q43 -23 47 -65v-55l-47 -31l-96 -23l-58 -6h15q-12 6 -19 10q-35 14 -59 25l-150 39q-125 90 -125 297z" />
<glyph unicode="&#x103b;" horiz-adv-x="272" d="M-645 -608q43 135 63.5 238.5t20.5 140.5q0 2 -20.5 52t-34.5 120l278 16q8 -31 15.5 -44t7.5 -62q0 -76 -40 -182.5t-120 -205.5v-20q6 -4 26.5 -8t42.5 -8l68 -11q76 -29 128 -44t89 -15l53 6q4 16 -20 86l-33 96q-33 96 -61.5 305t-28.5 392q6 205 12 433t6 361 q0 80 78 80q37 0 81 -11t97 -36l9 -98q0 -80 -13.5 -247t-28 -247t-19.5 -128t-5 -60q4 -43 4 -78q0 -166 31 -370.5t80 -340.5l4 -45q0 -82 -98 -141l-119 -64q-51 -33 -119 -32q-61 0 -188 53l-119 49l-23 -6l-24 -4l-37 8z" />
<glyph unicode="&#x103c;" horiz-adv-x="239" d="M27 358q0 1339 36 1409q29 0 80 70l60 72q127 0 153 -13q61 18 127 19h176q424 0 698.5 -14.5t432.5 -49.5q125 -16 516 -108q0 -193 -172 -193q-106 0 -256 66q-182 82 -252 96q-217 49 -934 49q-61 0 -350 -73q0 -123 -4 -467t-4 -510q0 -1194 65 -1366q96 0 716 22.5 t865 22.5l29 47v45v39q0 80 -3 146.5t-3 119.5v43l205 164q29 -270 63.5 -467t34.5 -236v-39q-14 -27 -200.5 -55t-473.5 -28l-764 -21q-762 0 -776 64l-37 143q-29 113 -28 1003z" />
<glyph unicode="&#x103d;" horiz-adv-x="6" d="M-1096 -457q0 385 389 385q399 0 400 -362q0 -135 -82 -250q-123 -166 -350 -166q-158 0 -244 113q-113 113 -113 280zM-958 -424q0 -88 77 -145q20 -8 31 -33q123 -98 236 -98q139 0 139 225q0 170 -74 235q-55 45 -196 45q-76 0 -144.5 -63.5t-68.5 -165.5z" />
<glyph unicode="&#x103e;" d="M-1139 -774q-16 98 117 143q111 -82 156 -82q31 84 30 238q-4 53 -30 389q-12 61 94 61q43 0 86 -8q31 -80 31 -352q0 -193 -19 -295l-22 -135q-10 -57 -150 -55q-76 -2 -160 18q-115 29 -133 78z" />
<glyph unicode="&#x103f;" horiz-adv-x="3254" d="M14 152q0 76 187 122q25 -70 125 -104q-55 0 80 -18.5t149 -18.5q219 0 326 152q0 -6 4 -6q16 0 41.5 67.5t25.5 95.5q0 100 -71 217q16 0 16 11q2 14 -49 65q-80 76 -115 90q-106 57 -229 58h-80l-148 -33q0 4 5 4q4 -10 4 -74q0 -47 -56 -55q0 -12 -36 -12 q-92 0 -93 100q0 12 6 37q-6 16 11 76q27 86 112 84l80 26q117 41 242 41q410 0 526 -352l17 -88q29 -135 28 -191q0 -106 -39 -186q27 -59 117 -90q-47 0 84 -18.5t150 -18.5q94 0 227 82q168 98 168 227q0 25 -100 283q-51 131 -285 129q-45 0 -86 -4l4 4q4 -10 6 -74 q0 -47 -59 -55q0 -12 -31 -12q-94 0 -92 100q0 12 2 37q-8 14 12 76q27 86 109 84l82 26q86 29 108 33q76 20 131 8q143 -35 217 -112q74 -76 109 -240l16 -88q29 -135 29 -191q0 -121 -45 -208q31 -43 102 -68q-53 0 81 -18.5t151 -18.5q92 0 225 82q168 98 170 227 q0 25 -102 283q-51 131 -285 129q-47 0 -84 -4l2 4q4 -10 6 -74q0 -47 -57 -55q0 -12 -33 -12q-94 0 -92 100q0 12 8 37q-12 14 8 76q27 86 109 84l84 26q168 57 239 41q168 -35 222 -104q31 -39 100 -248l16 -88q29 -135 29 -191q0 -307 -287 -380q-76 -66 -332 -66 q-111 0 -178 37q-2 -8 -18 -8q-41 0 -92 10q-96 25 -150 53q-39 -16 -90 -26q-61 -66 -328 -66q-109 0 -180 37q0 -14 -18 -17q-27 0 -90 19q-115 35 -154 57q-33 -10 -102 -30q-76 -66 -332 -66q-111 0 -178 37q0 -14 -19 -17q-63 0 -194 56q-61 25 -93 57q-6 10 -6 19z " />
<glyph unicode="&#x1040;" horiz-adv-x="1366" d="M27 467q-4 61 8 84q-6 4 -6 10q2 45 106 264q12 45 70.5 92.5t105.5 47.5l90 26q111 35 271 37q436 0 561 -334l22 -84q29 -100 27 -180q0 -289 -307 -358q-78 -61 -352 -62q-129 0 -211 35q0 -12 -19 -10q-31 0 -100 14q-117 31 -158 53q-94 53 -100 150l-6 84 q2 33 -2 131zM240 481q0 -180 12 -194q55 -72 98 -94q12 -4 162 -37l164 -17q240 0 350 140q4 -6 8 -7q16 0 41 65.5t25 92.5q0 61 -74 203q-23 41 -154 160q-111 53 -249 51h-105l-156 -60q-123 -98 -122 -303zM492 0zM492 172zM492 944zM492 1116zM635 2zM635 172z M635 944zM635 1114z" />
<glyph unicode="&#x1041;" horiz-adv-x="1337" d="M14 152q0 66 199 116q20 -70 125 -100q-53 0 133 -29q63 -8 160 -6q233 0 342 143q4 -4 6 -4q18 0 41.5 65.5t23.5 92.5q0 111 -59 203l-18 31q0 12 -35 57q-92 78 -109 90q-115 55 -243 53q-111 0 -142 -6l-153 -31l4 4q4 -10 4 -71q0 -47 -51 -49q2 -18 -41 -17 q-96 0 -97 92q0 20 7 41q-6 12 12 74q27 84 119 82l84 29q100 37 303 37q424 0 547 -338l20 -90q29 -115 27 -187q0 -303 -299 -371q-76 -63 -344 -63q-170 0 -242 37q-4 -4 -21 -4q-12 0 -57 4l-194 59q-31 18 -48 31q-4 16 -4 25z" />
<glyph unicode="&#x1042;" horiz-adv-x="1382" d="M0 -479q0 66 50 103.5t104 31.5q10 0 31.5 8t31.5 8q31 0 88 -139q39 -92 205 -115q154 0 192 7q92 16 138 79q92 76 100 240q4 14 6 109q-2 600 -35 895q-33 66 -32 135q0 43 12 78q0 94 67 94q31 0 70 -21q4 23 14 25q19 -3 48 -60q43 -10 43 -84q0 -39 -15 -92 l-4 -1163q-106 -371 -455 -418q-45 -37 -227 -30q-274 74 -354 170q-12 12 -39 38q-39 47 -39 101z" />
<glyph unicode="&#x1043;" horiz-adv-x="1316" d="M39 188q0 66 158 117q18 -70 100 -100q-45 0 65.5 -17.5t126.5 -17.5q227 0 314 143q14 8 16 15l-2 4q0 8 25 47q20 70 20 88q0 113 -43 197q-4 18 -49 96q-66 74 -86 90q-92 55 -238 53q-45 0 -69 -6l-123 -31l4 4q4 -10 4 -73q0 -45 -41 -47q0 -18 -33 -19 q-78 0 -77 94q0 18 6 41q-6 12 8 74q23 84 96 82l68 29q80 37 196 36q160 2 279 -71q150 -88 201 -266l18 -93q23 -115 21 -186q0 -305 -240 -371q-59 -63 -318 -63q-92 0 -149 35q-4 -4 -16 -2q-12 0 -45 2l110 -351q4 -31 121 -202q12 -55 12 -113q0 -33 -39 -194l-6 -29 q-18 -6 -67 -4q-29 0 -58.5 25.5t-29.5 62.5l-19 37q-14 33 -18 43l-35 182q-45 43 -127 604q-25 18 -39 31q-2 14 -2 24z" />
<glyph unicode="&#x1044;" horiz-adv-x="1341" d="M57 440q0 -311 267 -379q68 -66 354 -65q102 0 166 37q4 -4 18 -2q14 0 51 2l-122 -359q-6 -31 -136 -206q-14 -55 -14 -115q0 -33 43 -199l8 -28q14 -6 76 -5q31 0 63.5 26t32.5 62l23 41q12 20 18 43l39 187q51 43 141 614q25 20 45 33q2 14 0 25q2 67 -174 118 q-18 -72 -112 -102q49 0 -73 -18.5t-138 -18.5q-254 0 -350 148q-2 10 -25 43q-16 18 -18 24q-23 70 -23 90q0 86 45 203q12 33 55 94q74 76 97 94q98 55 264 54q51 0 76 -7l137 -30q-2 2 -4 2q-4 -8 -4 -72q0 -47 47 -51q0 -18 37 -16q86 0 86 94q0 20 -9 43q6 14 -10 74 q-25 86 -104 83l-76 31q-88 37 -219 37q-176 2 -311 -72q-166 -90 -222 -274l-20 -92q-25 -115 -25 -191z" />
<glyph unicode="&#x1045;" horiz-adv-x="1388" d="M20 436q33 98 58 94q4 20 12 64l21 84q119 328 528 330q125 0 229 -35l88 -29q41 0 97.5 -46t66.5 -91q100 -217 101 -262q0 -8 -7 -10q8 -37 9 -84v-854q-72 -213 -111 -250q-47 -45 -223 -78q-57 -59 -330 -60q-113 0 -180 35q-6 -4 -21 -6q-12 0 -55 6l-188 56 q-29 18 -47 30q-4 14 -5 21q0 147 150 184q4 -10 14 -10q12 0 36 6t34 6q68 0 113 -104q-27 0 -27 -27q0 -45 74 -55q39 -6 124 6t58 12q168 0 266 133q113 59 123 211q14 0 37 619l-18 133q0 72 -29 133q-6 12 -68 115l-190 112h-74q-131 0 -235 -51q-33 -20 -111 -88 q-20 -18 -21 -47q0 -4 -8 -13.5t-4 -9.5l-10 -14q162 8 291 -106q137 -115 137 -291q0 -201 -240 -203q-131 0 -198 51q-121 55 -219 305q-54 0 -48 78zM236 414q0 -27 23.5 -91.5t39.5 -64.5l51 -37q47 -61 72 -71q86 73 86 81q0 37 -37 106t-37 52q-6 8 -31 27 q-47 35 -110 35q-29 0 -53 -7q-4 -16 -4 -30z" />
<glyph unicode="&#x1046;" horiz-adv-x="1357" d="M10 543v899q104 354 447 399q43 39 219 29q266 -66 348 -162l39 -39q37 -43 37 -94q0 -63 -47 -99t-105 -30q-6 0 -28.5 -7t-30.5 -7q-29 0 -86 133q-37 88 -203 108q-201 0 -297 -135q-104 -59 -110 -217q-14 0 -37 -657l18 -138q0 -72 25 -133q6 -12 63 -117l178 -114 h117q117 0 166 22q37 6 137 68q35 33 37 39q0 61 -14 61l-144 45q-23 6 -180 35q-94 18 -160 80q-74 72 -73 180q0 207 219 207q27 0 53 -4h127q156 -72 156 -156q0 -59 -68 -98q-29 -18 -61 -18q-39 0 -76 20q12 12 10 27q0 27 -39 45q0 63 -59 51l-66 -27q-49 -33 -47 -73 q0 -35 43 -70q51 -25 144 -35q109 -12 143 -24q315 -53 295 -185l-6 -41q-109 -334 -494 -336q-174 0 -262 35l-80 33q-37 0 -90 46t-64 91q-92 221 -92 266q0 8 4 13q-6 35 -6 84z" />
<glyph unicode="&#x1047;" horiz-adv-x="1368" d="M18 498q0 -315 230 -379q66 -63 147 -64h160q51 -8 74 99q14 88 -129 135q-94 -59 -113 -58q-70 10 -92 31q-14 12 -55 78q-6 -6 -9 -6q-14 0 -34.5 67.5t-20.5 96.5q0 63 64 211q18 43 127 163q94 55 211 56h90l147 -58q109 -106 109 -311q0 -47 -19 -170 q-18 -129 -35 -151q-31 -41 -94 -398q-16 -6 -16 -225t37 -285q6 0 35.5 -67.5t44.5 -77.5q-23 0 28 -22.5t64 -22.5q37 0 57 45q20 0 39 33q16 31 16 59q0 76 -57 129q-51 27 -106 78q-4 39 -15 117q-18 123 -16 127q0 20 16 96q4 16 47 190q25 51 62 162q12 59 69 223 q0 90 2 138q2 45 -6 86q6 4 4 12q0 45 -88 272q-10 47 -61 96.5t-88 49.5l-78 28q-94 35 -229 37q-369 0 -476 -346l-18 -86q-25 -106 -25 -188z" />
<glyph unicode="&#x1048;" horiz-adv-x="1361" d="M14 444q0 119 109 394q-4 6 -4 12q0 10 59 125q37 39 76 49q12 4 127 12q41 4 47 0q74 35 156 33q233 0 329 -61q301 -76 299 -387q0 -115 -22 -189l-88 -268q-63 -127 -256 -164l-68 55l-35 158l58 61q49 20 151 119q61 147 47 228q6 43 -14 127q-61 102 -354 149 l-189 -31q-33 -10 -127 -61l-96 -178q176 -27 258 -123q41 -47 41 -168q0 -106 -41 -158l-24 -22q8 -20 10 -39q0 -61 -74 -99q-33 0 -63 7l-15 -7l8 7q-127 25 -216 146.5t-89 272.5zM166 389q10 -66 98 -121q66 -39 115 -47q-29 215 -211 256q-6 -55 -2 -88z" />
<glyph unicode="&#x1049;" horiz-adv-x="1357" d="M10 -406q106 -350 459 -395q45 -37 227 -28q277 69 359 159q10 12 41 39q39 45 34 94q0 61 -49 98.5t-104 28.5q-10 0 -31.5 8.5t-30.5 8.5q-31 0 -88 -133q-39 -88 -209 -107q-207 0 -305 133q-109 59 -114 215q-16 0 -39 652l18 135q0 72 27 135q6 12 65 115l185 112 h118q119 0 170 -22q39 -6 144 -68q35 -33 37 -39q0 -61 -15 -59l-147 -45q-23 -6 -184 -35q-98 -18 -166 -78q-78 -72 -78 -180q0 -205 227 -205q29 0 53 4h134q160 70 159 154q0 59 -69 98q-31 18 -64 19q-39 0 -78 -19q10 -12 9 -27q0 -27 -39 -49q0 -61 -60 -49l-67 27 q-51 33 -50 71q0 35 46 72q53 23 147 35q111 12 145 25q328 53 303 182l-6 41q-111 332 -506 332q-170 0 -270 -33l-82 -31q-39 0 -94 -47t-63 -92q-94 -219 -97 -260q0 -10 6 -15q-8 -37 -8 -84v-893z" />
<glyph unicode="&#x104a;" horiz-adv-x="419" d="M-14 629q0 -229 18 -357l25 -303q10 76 153 76q37 0 37 72q-2 47 -18 121q-18 172 -19 284q0 240 19 533q16 72 -97 69q-41 0 -86 -6q-31 -94 -32 -489z" />
<glyph unicode="&#x104b;" horiz-adv-x="776" d="M98 561q0 -223 21 -344l26 -154q12 -66 170 -65q39 0 39 70q0 44 -20 114q-18 168 -19 277q0 231 19 512q18 70 -105 67q-45 0 -94 -6q-35 -90 -37 -471zM434 561q0 -236 21 -344l28 -154q12 -66 166 -65q41 0 41 70q-2 44 -22 114q-18 168 -19 277q0 231 19 512 q18 70 -103 67q-45 0 -96 -6q-35 -90 -35 -471z" />
<glyph unicode="&#x104c;" horiz-adv-x="1320" d="M29 133q0 23 10 37v2q0 37 51 72l2 4l2 -4q35 23 101 45q16 -70 100 -101q-43 0 102 -26q49 -8 125 -8q182 0 269 143q4 -4 6 -4q12 0 31.5 65.5t19.5 92.5q0 109 -47 200l-15 31q0 14 -28 57q-72 78 -84 90q-90 55 -191 54q-88 0 -110 -6l-119 -31q4 -14 4 -68 q0 -45 -41 -49q0 -18 -33 -16q-76 0 -75 92q0 20 8 41q-6 12 6 74q23 84 94 81l66 29q53 23 149 33q-111 49 -190 67q-129 102 -129 334q0 47 53 232q66 231 426 231q57 0 141 -49l137 -78q72 0 95 -82q12 -51 12 -104q0 -104 -84 -105q-25 0 -37 17q-23 6 -41 69 q-35 43 -123 113q-10 2 -50 39t-50 37q-98 0 -176 -45q-10 -10 -60 -66q-16 -25 -18 -35q-49 -102 -49 -176q0 -57 -13 -57h-2q14 -78 25 -68q25 -25 66 -88q29 -47 36 -45q18 6 66 19h6q4 -4 6 -11q2 10 15 37q10 6 61 25q39 -12 74 -25q47 -25 47 -71v-62q-14 -10 -47 -35 l-68 -14q299 -20 387 -338l17 -90q23 -113 22 -184q0 -303 -235 -369q-59 -63 -269 -63q-135 0 -188 34q-6 -4 -19 -2q-8 0 -43 2l-51 21q-4 -27 -12 -55q41 -35 57 -62q139 -12 234 -12q252 0 422 65l92 -131q18 -117 18 -538q0 -154 -178 -154q-68 0 -147 23 q-12 14 -41 16q-66 0 -197 -45t-197 -45q-113 0 -151 82l-43 82q-6 12 -6 28q0 37 47 150h80q43 -55 84 -96q78 -39 168 -39q35 0 120 22q80 18 123 10q143 0 179 9v473l-279 -78q-141 -39 -281 -25q-156 18 -198 92l-37 60q-2 90 0 176q-10 27 -10 47z" />
<glyph unicode="&#x104d;" horiz-adv-x="1658" d="M37 551q-4 33 47 57q0 346 291 426q121 80 315 80q100 0 156 -24q23 0 59 -5q117 -8 193 -88q4 -4 22.5 -37.5t18.5 -36.5t40 -59.5t31 -66.5q41 -109 47 -174l5 -31q0 16 -5 31q-2 -6 -2 -158v-844q0 -20 3.5 -52t3.5 -50q0 -84 -74 -88q-18 4 -127 18q-41 76 -43 152 q0 84 35 120q20 -2 26 113l13 246q2 80 14 332q14 76 -43 219q-2 14 -100 196q-45 37 -113 82l-191 33q-143 -51 -190 -70q-137 -59 -164 -102q-16 -66 -16 -108q33 4 69 2q174 0 256 -99q111 -131 113 -325q0 -109 -47 -131l-117 -68q-49 -29 -76 -29q-20 0 -41 11l-6 -3 q-188 37 -250 164l-86 271q-4 -8 -6 20l-22 -18q-23 0 -39 94zM178 -633q0 8 4 23l17 80q33 166 129 219q74 39 231 30q45 -4 140.5 -42.5t146.5 -38.5q47 0 127 20q18 -66 20 -115q0 -129 -119 -127q-31 0 -51 4q-168 53 -280 54q-152 0 -152 -101q35 -16 119 -16 q20 0 58 6t59 6h370q268 0 316 51q0 106 5 315.5t5 315.5q0 707 -119 1000q-10 25 -26 41q-12 -6 -68 30l-92 -6h-78q-8 0 -205 8q-205 137 -203 306q0 158 37 331q82 238 523 238q70 0 174 -49l170 -82q88 0 114 -84q16 -53 17 -109q0 -106 -103 -106q-31 0 -47 16 q-27 6 -49 70q-43 49 -151 117q-12 4 -61.5 41.5t-63.5 37.5q-121 0 -213 -47q-12 -10 -76 -67q-20 -25 -21 -37q-61 -104 -61 -275q0 -29 -14 -26q-4 0 -5 2q16 -84 33 -76q90 -80 123 -72q35 6 82 17q29 20 107 55q39 -10 110 -35q43 -33 129 -90q115 -135 178 -713 q51 -479 52 -1085v-113q0 -90 -99 -90q-47 0 -71 25q-39 -6 -82 -8l-297 -29q-264 -25 -340 -25q-37 0 -107.5 -8t-107.5 -8q-88 -2 -158 55q-76 63 -76 166zM299 522q12 -49 37 -106q47 -66 123 -142l84 -41q12 -6 63 -20q10 90 -100 219q-63 76 -207 90z" />
<glyph unicode="&#x104e;" horiz-adv-x="1327" d="M35 430q0 72 26 182l23 88q121 330 543 330q203 0 303 -35l84 -28q90 2 116 -80q18 -59 13 -72q8 -20 8 -41q0 -90 -96 -90q-41 0 -41 16q-51 4 -53 48q0 55 8 67l-154 29q-29 6 -139 6q-129 0 -242 -51q-18 -12 -108 -88q-35 -45 -35 -58l-19 -28q-59 -92 -59 -199 q0 -27 24.5 -91.5t41.5 -64.5q2 4 8 6q109 -141 338 -141q133 0 260 23q61 12 30 12q104 29 129 98q74 -20 121 -43l6 6l-2 -8q70 -33 70 -69q0 -8 -2 -23q-16 -12 -47 -31l-23 -8q4 -174 43 -407q41 -270 111 -383q14 -25 12 -41q-2 -59 -133 -60q-49 0 -100 6 q-90 150 -90 578q0 137 6 262l-21 -6q-45 -4 -57 -2q-18 0 -23 2q-70 -35 -239 -35q-266 0 -342 62q-299 63 -299 362z" />
<glyph unicode="&#x104f;" horiz-adv-x="1943" d="M59 403q0 70 27 158l23 72q121 289 538 291q127 0 248 -33l82 -23q92 2 119 -69l2 -6q96 37 170 36q166 0 207 -286q16 -106 16 -406q12 -27 12 -47q0 -53 -69 -53q-100 0 -156 69q0 72 15.5 215.5t15.5 215.5q0 190 -117 190q-35 0 -78 -10v-10q0 -84 -96 -84 q-31 0 -41 10l-8 -8q-25 -25 -189 -25q-207 0 -319 119l-6 -2q-12 6 -72 -39q-90 -66 -90 -92l-12 -19q-10 -20 -5 -24q-41 -53 -40 -142q0 -23 24.5 -79t38.5 -56q4 0 10 4q106 -125 336 -125q51 0 152.5 15.5t85.5 15.5q127 37 127 113q0 16 -29 45q-55 53 -66 65 q-41 16 -178 33q-74 6 -92 -10q-45 -16 -49 -21q-18 -12 -21 -45q0 -14 7 -6q0 -6 2 -18q6 -6 -2 -8q51 -57 51 -66q0 -31 -23.5 -58.5t-54.5 -27.5q-76 0 -176 96q-14 43 -14 103q0 47 34 94l29 39q29 39 82 45q31 6 123 4q16 0 135 -14q197 -27 201 -43l78 -15 q45 -8 114 -55q90 -61 90 -78q12 -29 13 -51q0 -10 -7 -10q6 -10 7 -17q0 -4 -2 -6q-12 -6 -11 -16q0 -84 -96 -131q-35 -16 -156 -47q-66 -14 -96 -15q-20 0 -20 13q-74 -31 -187 -31q-266 0 -340 53q-295 61 -297 313zM559 770q139 -78 217 -78q18 0 56 12.5t55 12.5 q8 2 41 -2q2 16 4 22l-150 25h-86q-14 0 -34.5 2t-32.5 2zM723 1180q0 131 41 272q82 197 534 197q74 0 181 -41l172 -66q90 0 118 -72q18 -43 17 -88q-2 -88 -105 -88q-31 0 -47 15q-29 4 -53 57q-43 37 -154 96q-12 2 -62 34t-67 32q-123 0 -219 -39q-14 -8 -78 -55 q-20 -20 -20 -31q-61 -86 -61 -225q0 -25 -17 -23q-4 0 -4 2q16 -70 33 -61q98 -68 129 -62q20 6 82 17h8q2 -4 6 -9q4 8 19 31q12 4 77 21q51 -10 127 -39q29 -4 54 -13l2 -2q33 -8 96 -47q119 -115 176 -370q29 -121 70 -525q-2 -70 -86 -69q-57 0 -148 34q-4 72 6 199 q12 139 11 195q0 188 -115 411q-10 20 -27 33q-16 -4 -141 21l-59 -11q-41 -8 -78 -10q-8 0 -209 29q-209 113 -209 250z" />
<glyph unicode="&#x1050;" horiz-adv-x="1361" d="M-6 612q0 -117 26 -192l97 -275q72 -129 276 -165l78 57l39 158l-64 63q-53 20 -167 123q-68 150 -54 231q-6 43 19 127q68 104 385 154l207 -31q35 -8 141 -65q109 -188 113 -199q18 -47 18 -92q-8 -61 -31 -191q-27 -92 -153 -92q-35 0 -78 8q-59 -59 -60 -174 q0 -23 109 -59q166 -2 287 126t121 308q0 123 -119 402q4 4 2 12q0 8 -60 125q-41 41 -84 51q-14 4 -139 14q-45 2 -49 0q-82 35 -172 33q-254 0 -360 -61q-328 -78 -328 -396zM516 557q0 59 38 100t95 41q59 0 100.5 -41t41.5 -100q0 -57 -42 -95t-100 -38q-55 0 -94 39 t-39 94z" />
<glyph unicode="&#x1051;" horiz-adv-x="1361" d="M39 442q0 100 24 185l89 262q57 119 249 160l68 -56l37 -153l-57 -60q-49 -20 -152 -118q-57 -145 -47 -220q-4 -45 16 -125q59 -102 348 -147l189 29q29 10 46 19t77 44l102 191q55 135 47 217q-10 66 -98 114q-39 25 -75 37.5t-71 12.5q-47 55 -47 100q0 55 70 96 q147 0 258 -122t111 -296q0 -260 -68 -428l4 -10l-18 -29q-12 -20 -13.5 -23t-1.5 -7l-30 -15q-12 0 -19.5 -1t-13.5 -5q-29 -31 -76 -49l-125 -10h-45q-70 -35 -153 -35q-233 0 -328 59q-297 74 -297 383zM516 504q0 -59 38 -100.5t95 -41.5q59 0 100.5 41t41.5 101 q0 57 -42 95t-100 38q-55 0 -94 -39t-39 -94z" />
<glyph unicode="&#x1052;" horiz-adv-x="1366" d="M0 428q0 109 23 178l81 256q59 121 240 156l64 -53l32 -148l-53 -59q-45 -20 -143 -115q-57 -143 -45 -215q-6 -39 14 -119q33 -55 156 -98q92 -33 176 -47l176 31q29 8 119 59q82 121 98 127q18 43 18 72q0 8 -22 82q-12 70 -86 116l-47 58q-39 43 -51 39q-25 31 -37 57 l-6 2q4 0 4 4q-6 18 -6 35l-3 43q-4 31 0 49q4 20 19 31q55 63 172 63q76 0 186 -24q53 -17 51 -105q0 -25 -6 -57q-10 -14 -41 -15q-18 2 -92 15q-59 10 -86 4l84 -78q70 -63 94 -102q39 -57 39 -133q0 -106 -65 -271q6 -8 -21 -51l-26 -49q-27 -63 -39 -76 q-33 -37 -72 -45q-10 -4 -86 -10l-35 -2q-33 -4 -43 0q-68 -33 -145 -33q-219 0 -309 59q-281 74 -281 369z" />
<glyph unicode="&#x1053;" horiz-adv-x="1411" d="M-2 561q0 -246 159.5 -403.5t405.5 -157.5q274 0 434 157.5t160 403.5q0 133 -82 232q-37 41 -190 159q-12 8 -19 15h8l-2 -2l-6 14l31 16q39 0 98 -47l52 139q-76 57 -191 58q-66 0 -123 -53.5t-57 -118.5q0 -74 98 -150q12 -16 148 -116q68 -68 67 -146 q0 -172 -112.5 -282.5t-325.5 -110.5q-160 0 -271.5 110.5t-111.5 282.5q0 78 68 146q135 100 147 116q98 76 98 150q0 66 -58 119t-124 53q-113 0 -190 -58l53 -139q57 47 98 47l31 -16l-6 -14l-4 2h10q-6 -6 -19 -15q-156 -119 -190 -159q-84 -98 -84 -232z" />
<glyph unicode="&#x1054;" horiz-adv-x="1323" d="M-8 559q0 246 158.5 403.5t406.5 157.5q289 0 442 -211q78 -106 78 -176q0 -98 -80 -155q-72 -53 -172 -54q-227 0 -348 197q-59 96 -69 203q-244 -113 -244 -365q0 -170 111.5 -280.5t281.5 -110.5q225 0 381 274l152 -80q-207 -362 -533 -362q-248 0 -406.5 155.5 t-158.5 403.5zM537 948q2 -117 78.5 -188.5t193.5 -71.5q96 0 96 43q0 8 -6 25q-29 37 -47 67q-113 125 -295 125h-20z" />
<glyph unicode="&#x1055;" horiz-adv-x="2211" d="M-8 559q0 246 158.5 403.5t406.5 157.5q289 0 442 -211q78 -106 78 -176q0 -98 -80 -155q-72 -53 -172 -54q-227 0 -348 197q-59 96 -69 203q-244 -113 -244 -365q0 -170 111.5 -280.5t281.5 -110.5q203 0 348 221q33 92 88 92q43 0 92 -73q29 -63 37 -78q16 -27 45 -56 q113 -111 283 -110q223 0 381 272l149 -80q-205 -362 -530 -362q-313 0 -459 223q-182 -217 -434 -217q-248 0 -406.5 155.5t-158.5 403.5zM537 948q2 -117 78.5 -188.5t193.5 -71.5q96 0 96 43q0 8 -6 25q-29 37 -47 67q-113 125 -295 125h-20z" />
<glyph unicode="&#x1056;" horiz-adv-x="1021" d="M-115 164q160 -158 406 -158q274 0 434 158t160 403q0 133 -82 232q-47 55 -119 84h-59q-57 2 -72.5 19.5t-15.5 39.5q0 66 88 59q39 0 98 -47l51 140q-76 57 -190 57q-84 0 -141.5 -53.5t-57.5 -120.5q0 -8 -2 -26.5t-2 -30.5q0 -82 104 -164q18 -23 81 -26t83 -17 q68 -68 68 -146q0 -172 -112.5 -282.5t-325.5 -110.5q-160 0 -271 111z" />
<glyph unicode="&#x1057;" horiz-adv-x="1855" d="M-115 117l111 131q121 -100 280 -86q184 16 314 139q12 18 33 47q12 80 65 82q6 4 17 4q47 0 100 -112q59 -59 148 -100.5t163 -41.5q213 0 325.5 110.5t112.5 282.5q0 78 -67 146q-20 14 -83 17t-81 26q-104 82 -104 164q0 12 2 30.5t2 26.5q0 68 57 121t141 53 q115 0 191 -57l-51 -139q-55 43 -99 47q-88 6 -88 -60q0 -23 15.5 -40t72.5 -19h60q72 -29 118 -84q82 -98 82 -232q0 -246 -159.5 -403.5t-434.5 -157.5q-117 0 -231 39q-123 43 -195 117q-172 -176 -460 -176q-205 0 -357 125z" />
<glyph unicode="&#x1058;" horiz-adv-x="12" d="M-1182 -440q0 -188 124 -311t310 -123q102 0 195 34q119 47 205 156l-111 104l-55 -59q-23 -25 -80 -59l-76 -25l-78 -8q-115 0 -199.5 86t-84.5 201q0 53 6 59q37 -51 113.5 -89t169.5 -38q217 0 327 104q59 55 60 125q0 63 -99 160q-119 119 -293 119q-176 0 -305 -130 t-129 -306zM-971 -274q69 120 223 120q88 0 175 -55q47 -43 67 -78q0 -20 -100 -71q-94 -20 -142 -19l-49 2q-41 2 -84 23q-27 20 -90 78z" />
<glyph unicode="&#x1059;" horiz-adv-x="6" d="M-1270 -451q0 -188 124 -311t310 -123q102 0 192.5 35t156.5 100l26 -28q33 -37 82 -60q72 -33 170 -32q133 0 219 55q2 2 111 100l-154 97q-96 -106 -207 -107q-106 0 -161 137q-74 29 -144 27l-57 -88q-12 -20 -80 -60l-76 -24l-78 -8q-115 0 -199.5 86t-84.5 200 q0 53 6 60q37 -51 113.5 -89t169.5 -38q217 0 327 104q59 55 60 125q0 63 -99 160q-119 119 -293 119q-176 0 -305 -130t-129 -307zM-1059 -285q69 121 223 121q88 0 174 -55q47 -43 68 -78q0 -20 -100 -72q-94 -20 -142 -18l-49 2q-41 2 -84 23q-27 20 -90 77z" />
<glyph unicode="&#x105a;" horiz-adv-x="1341" d="M4 561q0 248 157.5 403.5t405.5 155.5q328 0 529 -362l-146 -80q-156 274 -383 274q-170 0 -280.5 -110.5t-110.5 -280.5t110.5 -279.5t280.5 -109.5q227 0 383 272l146 -79l-37 -80q-61 -129 -201.5 -207t-290.5 -78q-248 0 -405.5 157.5t-157.5 403.5zM328 -258 q0 102 67.5 166.5t169.5 64.5q100 0 166 -65.5t66 -165.5q-2 -100 -103 -219q-38 -41 -108 -127q-6 -10 -6 -17q0 -12 36 17q51 41 95 31q-18 -188 -144 -189q-57 0 -99 40t-42 97q0 55 33 105q10 14 69 86l47 55v-4q41 43 50 55q20 31 18 72q-10 78 -78 78q-84 0 -84 -80 q0 -37 80 -102l-94 -121q-27 16 -72 53q-68 68 -67 170z" />
<glyph unicode="&#x105b;" horiz-adv-x="1703" d="M14 418q0 72 27 180l20 86q117 326 529 326q195 0 293 -35l80 -29q90 4 114 -78q18 -59 10 -71q8 -18 11 -39q0 -33 -11 -51q10 -55 11 -107q-2 -53 -15 -100q16 0 47 12t48 12q41 0 84 -53q-6 -147 -101 -149q-17 2 -33 6q-270 -10 -423 157q-76 86 -76 164q0 45 26 72 l97 108q-37 4 -115 5q-125 0 -236 -52q-18 -12 -104 -88q-35 -45 -35 -55l-18 -29q-55 -90 -56 -196q0 -25 24 -88.5t38 -63.5q4 4 8 4q106 -139 330 -139q133 0 274 29q29 6 6 6q102 29 125 96q190 -49 189 -113v-22q-18 -12 -49 -29l-187 -59q-45 -4 -57 -2q-16 0 -21 2 q-68 -35 -231 -35q-260 0 -334 61q-289 63 -289 357zM762 647q0 -14 10 -26q57 -60 131 -91q41 76 43 125q0 18 -6 35q-27 8 -27 41v2q-4 4 -20 32t-21 28l-30 -11q-4 -12 -42 -62t-38 -73zM848 -18l237 47q78 -160 85.5 -174.5t7.5 -65.5q0 -80 -40 -190.5t-120 -212.5v-21 q6 -4 26.5 -9t42.5 -9l68 -11q76 -31 128 -46t89 -15l53 6q4 16 -20 90l-33 101q-33 100 -61.5 317t-28.5 408q6 213 12 451.5t6 375.5q0 84 78 84q37 0 81 -11.5t97 -37.5l9 -103q0 -84 -13.5 -257t-28 -257t-19.5 -134t-5 -62q4 -45 4 -82q0 -172 31 -385t80 -354l4 -48 q0 -86 -98 -147l-119 -66q-51 -35 -119 -34q-61 0 -188 55l-119 51l-23 -6l-24 -4l-37 8l-43 76q43 139 63.5 247.5t20.5 145.5q0 2 -20.5 54.5t-63.5 224.5z" />
<glyph unicode="&#x105c;" horiz-adv-x="1372" d="M0 342v137q0 72 6 88l-6 17q0 41 100 274q8 41 66 94q61 45 100 45l90 33q45 16 110.5 27.5t147.5 11.5q408 0 533 -348l22 -88q10 -57 16.5 -100.5t6.5 -88.5q0 -303 -293 -374q-70 -66 -334 -66q-121 0 -200 35q-12 -10 -17 -10q-27 0 -54.5 7t-41.5 11 q-111 29 -152 51q-86 57 -94 160zM201 496q0 -188 12 -205q29 -39 47.5 -58.5t46.5 -37.5l152 -39l157 -19q223 0 332 150l6 -8q18 0 39 67q27 55 27 94q0 61 -72 213q-14 29 -46 66t-101 100q-94 55 -236 55h-100l-146 -59q-119 -104 -118 -319zM317 483q0 154 48 201 q47 55 194 55q274 0 275 -227q0 -104 -66 -182q-80 -80 -172 -97l-76 56l-57 -53q-72 0 -109 79.5t-37 167.5zM455 473q2 -41 65 -61l10 -9q10 12 22.5 16.5t14.5 4.5q119 0 119 80q0 70 -119 69l-75 -4q-18 -66 -23.5 -77t-13.5 -19z" />
<glyph unicode="&#x105d;" horiz-adv-x="1372" d="M-18 -440q0 106 49 172.5t78 95.5q74 70 153 76q164 14 180 14q190 0 328 -197l-145 -104q-10 41 -47 81t-84 54q-37 10 -78 10q-88 0 -159 -42t-75 -93q0 -6 -9 -56t-7 -58q29 -90 129 -125q18 -6 164 -33l233 16q31 -4 78 33q59 47 57 657l185 2q-27 -694 -99 -759 q-55 -49 -63 -56q-43 -33 -74 -34l-317 -25q-168 8 -221 25q-76 23 -166 106.5t-90 239.5zM-2 436q0 98 22 180l89 258q57 117 249 158l66 -55l37 -150l-55 -59q-49 -20 -152 -117q-57 -143 -45 -215q-6 -45 14 -123q25 -43 103 -80q-2 10 -7.5 33t-7.5 47q0 78 51 109 l127 82q39 25 125 24q266 0 342 -137l27 55q45 88 45 179v34q-10 63 -96 113q-39 25 -75 37t-69 12q-49 53 -49 99q0 53 70 94q147 0 257 -120t110 -292q0 -256 -66 -420l2 -10l-18 -29q-10 -20 -12.5 -23t-2.5 -7l-30 -15q-10 0 -18.5 -1t-14.5 -5q-27 -29 -76 -47 l-123 -10h-45q-70 -35 -154 -35q-233 0 -325 59q-295 72 -295 377zM465 305q0 -10 20 -35l47 -16q35 -25 43 -86l181 27l80 38l-58 76q-70 82 -235 82q-39 0 -60 -6q-10 -53 -16 -70q-2 0 -2 -10z" />
<glyph unicode="&#x105e;" horiz-adv-x="16" d="M-1229 -580q0 123 96 211q45 68 172 103q119 33 267 26v222h166v-244q152 -35 233 -109l-67 -182q-74 61 -166 98v-303q0 -98 -80 -98l-445 -4q-176 106 -176 280zM-1026 -573q0 -74 92 -115h240v274q-29 2 -56 2q-129 0 -200 -53q-76 -35 -76 -108z" />
<glyph unicode="&#x105f;" horiz-adv-x="6" d="M-1350 -543q0 154 142 246q125 82 286 82q35 0 86 -10v211h168v-351l-88 -53q-78 35 -172 35q-92 0 -162 -33q-92 -43 -92 -125q0 -109 146 -147q45 -10 102 -10q141 0 223 82l133 -107q-92 -92 -188 -125q-74 -25 -160 -24q-160 0 -282 84q-141 94 -142 245z" />
<glyph unicode="&#x1060;" horiz-adv-x="6" d="M-1247 -791q0 16 8 33l430 781h184l-368 -711h536v-168h-702q-35 0 -61.5 18.5t-26.5 46.5z" />
<glyph unicode="&#x1061;" horiz-adv-x="1372" d="M-20 526q0 66 47 58q72 188 82 213q86 154 204 186q119 76 312 76q98 0 151 -23q23 0 60 -4q115 -8 188 -82q4 -4 21.5 -35.5t17.5 -34.5t40 -56.5t32 -61.5q43 -106 49 -193q-4 98 -6 -118v-873q6 -6 30.5 -45t26.5 -39q8 0 39 17q68 -37 67 -109q0 -29 -12 -51 l-115 -129q-31 -35 -69 -33q-59 0 -152 109q-16 16 -20 45q-2 27 0 57q4 35 4 57q-16 98 -16 170q0 92 32 127l25 277q0 23 2 82l12 286q12 72 -43 207q-2 12 -98 185q-43 35 -111 77l-186 31q-80 -27 -188 -68q-135 -55 -162 -96q-14 -59 -15 -100q31 4 68 2q172 0 252 -92 q111 -123 110 -305q0 -102 -47 -125l-114 -62q-47 -27 -74 -26q-20 0 -41 10l-6 -4q-184 35 -244 153l-86 254q0 -8 -4 -8q-10 0 -34.5 21.5t-26.5 31.5q-4 23 -2 41zM201 -735q-18 158 129 231q70 -78 121 -78q31 0 59 23q23 90 22 207q0 70 -8 47q6 6 2 41q-12 0 -24 223 q-14 96 102 96q47 0 96 -14q14 -8 31 -33q4 -14 4 -123q0 -346 -45 -514l-22 -94q-35 -133 -170 -145q-98 -8 -150 12q-127 47 -147 121zM246 483q14 -47 39 -102q47 -63 123 -137l86 -41q12 -7 65 -21q10 88 -102 213q-66 74 -211 88z" />
<glyph unicode="&#x1062;" horiz-adv-x="450" d="M8 926l8 59q14 37 59.5 50.5t114.5 13.5q51 0 100.5 -46.5t57.5 -91.5l6 -43q15 -73 15 -245q0 -504 -4 -576q-16 -18 -25 -43q-27 -6 -48.5 -10t-33.5 -4q-98 0 -86 57q14 78 17.5 159t3.5 320l10 148v53v37q-6 20 -6 31q-16 92 -50 75q-8 -12 -10 -14q-10 -18 -22 -18 l-37 8q-70 23 -70 80z" />
<glyph unicode="&#x1063;" horiz-adv-x="1257" d="M29 174q0 -35 12 -33l-8 -868q0 -113 84 -109q41 -37 76 -38q80 0 79 104q1 78 -75 164l6 667h22q49 -8 70 -8q12 0 14 4q66 -35 213 -39q240 0 299 68q268 70 269 377q0 47 -25 190l-18 95q-109 346 -482 344q-180 0 -268 -37l-74 -31q-80 2 -104 -84q-14 -57 -17 -74 q6 -51 15 -98q20 -39 73 -39q33 0 33 19q49 4 49 49q0 70 -4 73l-2 -4l131 33q25 6 123 4q217 0 322 -162q43 -66 28 -65q63 -117 64 -217q0 -33 -19 -99q-18 -76 -36 -71q-6 4 -9 14q-96 -147 -301 -149q-57 0 -162.5 17t-97.5 22q-92 33 -106 100q-29 -6 -58 -14 q-14 6 -26 6q-29 0 -59.5 -36t-30.5 -75z" />
<glyph unicode="&#x1064;" horiz-adv-x="745" d="M18 934l11 59q16 37 68.5 51.5t133.5 14.5q57 0 114.5 -46t68.5 -93l6 -43q16 -76 16 -248q-10 -528 -6 -580q260 72 154 -104q72 76 28.5 35t-303.5 -31q-115 41 -102 100q16 78 21 160t5 323l11 148v53v37q-6 23 -6 31q-20 94 -60 78q-6 -12 -10 -15q-12 -18 -25 -18 l-43 8q-82 23 -82 80z" />
<glyph unicode="&#x1065;" horiz-adv-x="1333" d="M18 152q-2 -10 2 -25q16 -12 50 -31l192 -59q47 -2 57 -2q14 -2 21 2q70 -37 240 -37q266 0 342 63q297 66 297 369q2 76 -25 186l-25 91q-119 336 -540 335q-201 0 -301 -36l-86 -29q-86 2 -117 -82q-18 -61 -10 -74q-8 -18 -9 -39q-2 -94 95 -94q41 -2 41 19 q53 2 53 47q-2 63 -6 71l-4 -4l153 31q31 6 142 6q129 2 241 -51q18 -12 109 -92q33 -45 33 -55l20 -31q57 -94 57 -203q0 -27 -22.5 -92.5t-40.5 -65.5q-4 2 -10 4q-104 -143 -336 -143q-98 0 -158 8q-188 29 -133 29q-104 31 -127 98q-195 -49 -195 -114z" />
<glyph unicode="&#x1066;" horiz-adv-x="1357" d="M39 442q0 100 24 185l89 262q57 119 249 160l68 -56l37 -153l-57 -60q-49 -20 -152 -118q-57 -145 -47 -220q-4 -45 16 -125q59 -102 348 -147l189 29q29 10 46 19t77 44l102 191q55 135 47 217q-10 66 -98 114q-39 25 -75 37.5t-71 12.5q-47 55 -47 100q0 55 70 96 q147 0 258 -122t111 -296q0 -260 -68 -428l4 -10l-18 -29q-12 -20 -13.5 -23t-1.5 -7l-30 -15q-12 0 -19.5 -1t-13.5 -5q-29 -31 -76 -49l-125 -10h-45q-70 -35 -153 -35q-233 0 -328 59q-297 74 -297 383zM551 -762q-18 184 131 266q72 -90 123 -90q31 0 59 27 q23 106 23 242q0 80 -8 55q6 6 2 47q-12 0 -25 258q-14 113 105 113q47 -1 96 -17q14 -10 30 -39q4 -16 5 -141q0 -401 -45 -598l-23 -111q-35 -154 -172 -165q-98 -10 -152 12q-129 55 -149 141z" />
<glyph unicode="&#x1067;" horiz-adv-x="610" d="M12 219q0 92 59.5 153.5t153.5 61.5q31 0 58 -8v588h159v-766h-2q2 -14 2 -29q0 -90 -64.5 -151.5t-152.5 -61.5q-90 0 -151.5 61.5t-61.5 151.5zM160 219q0 -68 65 -67q70 0 70 67q0 68 -70 68q-66 0 -65 -68z" />
<glyph unicode="&#x1068;" horiz-adv-x="823" d="M-63 131q-6 72 0 94q227 -68 376 -26q27 0 52 18q20 84 20 191q0 61 -8 43q8 6 2 36q-10 0 -21 201q-12 90 95 90q41 0 84 -12q12 -8 26 -31q4 -12 4 -110q0 -315 -39 -471l-20 -84q-31 -121 -154 -131q-88 -8 -174 30q-74 20 -243 162zM260 995q0 100 41 133 q37 31 158 31q72 0 133 -24.5t61 -71.5l-39 -39l43 -51q-12 -63 -77 -115q-59 -45 -142 -45q-178 0 -178 182zM389 991q0 -80 55 -80q63 0 64 80q10 21 14 25l-4 8q-16 41 -51 43v-4q-27 -8 -74 -21z" />
<glyph unicode="&#x1069;" horiz-adv-x="708" d="M12 993q96 59 197 60q102 0 183 -52.5t118 -146.5q25 -66 22 -131q-2 -104 -75 -217q-53 -80 -150 -182q-27 -33 -82 -95q-12 -18 -16 -30q-6 -25 22 -39q18 -8 58 -10q31 4 40 14t21 45h144q-10 -133 -95 -180q-51 -31 -135 -31q-100 0 -166 47q-76 53 -75 148 q0 76 47 149q20 33 100 123l16 16q88 100 97 111q41 57 53 133q-6 55 -40 95t-87 40q-45 0 -94 -35z" />
<glyph unicode="&#x106a;" horiz-adv-x="714" d="M-78 174q0 109 133 109q37 0 62 -101l106 -14q68 20 70 287q4 188 -35 540q-18 70 113 68q49 0 98 -10q35 -82 33 -531q0 -219 -15 -309l-10 -55q-14 -61 -74.5 -116.5t-121.5 -55.5q-70 0 -189 30q-92 20 -119 41q-49 35 -51 117z" />
<glyph unicode="&#x106b;" horiz-adv-x="772" d="M137 895l70 100q14 37 59 50.5t115 13.5q51 0 100 -46t58 -91l6 -43q14 -74 14 -246q0 -504 -4 -576q-16 -18 -25 -43q-27 -6 -48 -10t-33 -4q-98 0 -87 57q14 78 17.5 159t3.5 321l10 147v53v37q-6 20 -6 31q-16 92 -49 76l-10 -15q-10 -18 -23 -18l-67 -72 q-147 4 -101 119z" />
<glyph unicode="&#x106c;" horiz-adv-x="743" d="M-78 522q-2 449 33 531q47 10 98 10q131 2 113 -68q-41 -352 -37 -540q4 -266 72 -287l106 14q25 100 62 101q133 0 133 -109q-4 -82 -51 -117q-29 -20 -119 -41q-119 -31 -191 -30q-59 0 -120.5 55t-73.5 117l-13 55q-12 90 -12 309z" />
<glyph unicode="&#x106d;" horiz-adv-x="718" d="M12 59l103 168q49 -35 94 -34q53 0 87 39.5t40 95.5q-18 104 -103 192q-16 16 -47 51l-16 17q-80 90 -100 123q-47 74 -47 149q0 94 75 148q66 47 166 47q135 0 197 -90q27 -39 33 -121h-144q-12 35 -21.5 45t-39.5 14q-90 -4 -80 -49q4 -12 16 -31q31 -35 92 -104 q143 -150 191 -275q25 -61 24 -114q6 -139 -89 -234.5t-234 -95.5q-100 0 -197 59z" />
<glyph unicode="&#x106e;" horiz-adv-x="2445" d="M-10 584q0 293 315 364q119 72 266 70q94 0 164 -29q25 -2 88 -20l111 -142q41 61 55 74q35 31 127 57q20 4 33 5q43 0 91 -27t60 -64q35 45 101 80q47 27 53 23q80 33 137 33q244 0 344 -60q317 -70 316 -364q0 -106 -23 -176l-94 -254q-68 -119 -266 -154l-74 53 l-37 146l62 59q49 20 157 113q66 139 54 213q4 41 -19 118q-66 96 -371 144l-172 -47q-82 -25 -137 -168v-303q0 -213 -74 -248q-233 -68 -309 8q-25 25 -37 182l-8 -4v101q-6 49 -24 172h4q-6 8 15.5 50t21.5 52q0 14 -11 31q-47 31 -194 114l-115 60q-305 -47 -371 -144 q-23 -78 -18 -118q-12 -74 53 -213q109 -92 160 -113l59 -59l-37 -146l-73 -53q-201 35 -267 154l-92 254q-25 72 -24 176zM1014 49l172 -6l-12 150l-105 -7zM1061 539q20 -57 24 -265q4 -86 57.5 -94t22.5 33q6 37 6 66t-17 83t-17 82q0 45 20.5 128t20.5 128t-23 72 q-16 14 -33 8q-18 -12 -39 -20q-4 -20 -12 -53q4 -33 0 -82q-10 -74 -10 -86z" />
<glyph unicode="&#x106f;" horiz-adv-x="2336" d="M35 436q0 115 24 189l88 264q63 127 252 162l70 -56l35 -155l-58 -62q-49 -18 -153 -116q-59 -145 -47 -226q-6 -41 16 -123q61 -100 352 -151l187 31q31 10 129 61q100 184 102 197q10 23 19 45v8q0 94 26 158v6q-12 63 -98 117.5t-145 45.5q-49 55 -50 105q0 61 72 98 q182 4 301 -178v10q0 -18 45 78q53 55 201 64q4 30 70 30q231 0 327 -59q301 -76 299 -385q0 -113 -24 -186l-86 -267q-66 -125 -254 -161l-68 55l-35 155l58 62q49 18 151 119q59 145 45 223q6 43 -14 125q-59 102 -352 149l-56 -30q-31 -8 -125 -62q-78 -76 -102 -194 q-6 -14 -10 -25q0 -70 -2 -49q0 -8 2 -33v-53q0 -8 -10 -14q-16 -121 -60 -230q4 -4 4 -8q0 -10 -15.5 -30.5t-15.5 -29t-30 -12.5q-31 -4 -33 -12q-37 -39 -78 -47q-12 -4 -127 -12q-41 -4 -45 0q-74 -35 -155 -35q-231 0 -328 61q-299 76 -299 383zM1452 -680 q-18 172 125 252q68 -86 115 -86q31 0 57 25q20 100 20 227q0 76 -8 51q6 6 2 47q-10 0 -22 242q-14 106 98 106q45 0 92 -14q14 -10 29 -37q4 -16 4 -133q0 -381 -43 -565l-20 -103q-33 -147 -164 -159q-92 -8 -144 12q-123 53 -141 135z" />
<glyph unicode="&#x1070;" horiz-adv-x="2349" d="M43 965q-2 90 51 110q117 25 195 25q121 0 178 -68q16 -10 20 -33q6 -20 0 -51l-2 -45q-2 -20 -8 -39q0 -4 4 -4l-6 -2q-12 -27 -37 -59q-14 4 -53 -43l-49 -60q-76 -49 -88 -125q-23 -76 -23 -86q0 -31 19 -73q16 -8 100 -138q94 -53 123 -63l184 -33q82 16 183 51 q127 45 161 105q20 84 15 125q12 78 -47 229q-100 98 -148 119l-55 63l33 158l67 55q184 -37 248 -163l86 -269q23 -76 20 -192q0 -51 -6 -99q41 -168 101 -149l182 -33q84 16 184 51q125 45 162 105q18 84 14 125q12 78 -47 229q-100 98 -147 119l-55 63l32 158l68 55 q184 -37 248 -163l84 -269q25 -76 24 -192q0 -313 -291 -389q-94 -63 -321 -64q-80 0 -152 35q8 8 -100 18q-68 6 -107 86q-63 -53 -161 -75q-94 -63 -322 -64q-80 0 -151 35q-10 -4 -45 0l-37 2q-76 6 -86 10q-41 10 -74 49q-14 12 -43 80l-27 51q-29 47 -22 56 q-68 174 -68 286q0 80 39 140q27 41 98 108l88 84q-27 6 -90 -4q-76 -14 -96 -14q-31 0 -41 14q-6 33 -6 62zM1417 -686q-18 158 129 231q70 -78 121 -77q31 0 59 22q23 90 23 207q0 70 -8 47q6 6 2 41q-12 0 -25 223q-14 96 103 96q47 0 96 -14q14 -8 31 -33q4 -14 4 -123 q0 -346 -45 -514l-23 -94q-35 -133 -170 -145q-98 -8 -149 12q-127 47 -148 121z" />
<glyph unicode="&#x1071;" horiz-adv-x="6" d="M-1223 1632q0 158 95 168l104 4h16q78 0 145.5 -25.5t67.5 -74.5l-45 -43l47 -53q-10 -63 -79 -119q-72 -49 -152 -49q-199 0 -199 192zM-1085 1645q0 -100 65 -101q70 0 70 82q6 23 10 27l-2 8q-20 43 -59 47q4 -4 -5.5 -7t-74.5 -20q-4 -29 -4 -36zM-680 1632 q0 104 45 140q39 33 172 32q78 0 144.5 -25.5t66.5 -74.5l-43 -43l47 -53q-14 -68 -84 -121q-66 -47 -155 -47q-193 0 -193 192zM-539 1626q0 -82 60 -82q70 0 69 82q11 23 17 27l-6 8q-16 43 -56 47v-4q-29 -8 -80 -23z" />
<glyph unicode="&#x1072;" horiz-adv-x="1349" d="M-1153 1638q0 33 51 201q68 203 428 203q55 0 144 -43l137 -68q72 0 96 -73q12 -51 12 -89q0 -92 -84 -92q-27 0 -39 15q-16 0 -38 57q-25 27 -48.5 45t-78.5 55l-45 35q-41 31 -56 31q-100 0 -174 -39l-61 -57q-12 -12 -17 -31q-51 -86 -51 -154q0 -41 -14 -47 q8 -39 14 -51t10 -10q31 -20 66 -76q12 -16 27 -29q4 -4 12 -10l65 16l11 -10l14 33l61 23l74 -23q45 -20 49 -64v-53l-49 -30l-100 -21l-62 -6h15q-12 6 -19 8q-35 16 -61 25l-158 39q-131 88 -131 290z" />
<glyph unicode="&#x1073;" horiz-adv-x="6" d="M-1333 1430l575 505q66 -57 500 -401q29 -23 123 -98l-27 -133l-592 450l-555 -455z" />
<glyph unicode="&#x1074;" horiz-adv-x="6" d="M-1204 1571q0 80 16 117l62 161q47 82 186 105l57 -39l25 -107l-47 -43q-33 -12 -101 -69q-37 -82 -28 -123q-4 -27 10 -70q39 -55 227 -84l129 17q18 4 82 34l68 111q41 72 31 125q-8 37 -64.5 65.5t-97.5 22.5q-41 43 -41 76q0 45 59 72q109 0 191 -78t82 -189 q-3 -156 -50 -262v-4q0 -6 -18 -35q0 -18 -33 -20q-8 0 -16 -2q-41 -39 -148 -41q-23 -2 -28 0q-53 -18 -109 -21q-162 0 -233 39q-209 47 -211 242z" />
<glyph unicode="&#x1075;" horiz-adv-x="1372" d="M37 129l6 57q12 18 41 19l92 -15l90 -8l-86 86q-33 29 -57.5 55.5t-38.5 51.5q-39 59 -39 139q0 111 68 285q8 35 20 57l27 49q31 72 41 78q35 39 71 49l88 12h35h43q70 35 150 35q217 0 311 -61q285 -78 285 -391q0 -121 -23 -189l-82 -266q-61 -125 -241 -164l-68 58 l-31 155l56 62q23 14 57.5 42.5t83.5 77.5q29 78 41 133.5t6 90.5q2 39 -14 129q-41 63 -158 102q-63 23 -100 31t-80 16l-178 -28l-121 -64q-82 -129 -101 -135q-16 -43 -16 -76l23 -86q18 -78 88 -123l45 -57q16 -18 45 -37q2 0 6 -6q31 -39 37 -62l4 -2l8 -43l2 -43v-49 q-6 -23 -20 -33q-55 -68 -174 -67q-84 0 -189 24q-53 23 -53 111z" />
<glyph unicode="&#x1076;" horiz-adv-x="1357" d="M20 285l7 18l-7 10l11 64q6 25 84 92q133 115 196 137q0 25 146 45l121 11q145 0 200 -103l27 -45q31 -53 31 -113q0 -45 -7 -63q-78 -92 -139 -92q-74 0 -74 47q0 20 23 55v29l6 10q0 78 -78 117q-12 14 -45 14q-23 0 -83 -9t-128 -48q-61 -98 -61 -154q0 -96 117 -137 l75 -18l138 -17q211 0 309 150l4 -6q18 4 38.5 72.5t20.5 88.5q0 109 -37 168l-4 29l-8 25q-6 35 -84 108q-53 49 -65 47q-37 20 -83 42t-87 22q-14 0 -49 -9l-201 -59l-78 -20q-23 -8 -29 -9q-25 0 -49 21q-10 8 -45 53q-31 47 -31 68q-12 6 -13 13t-1 15q-8 27 -8 50 q0 59 49 79.5t51 8.5q41 10 56 -33l30 -98q8 10 15 14q39 35 88 51t105.5 24.5t103.5 16.5q383 0 493 -348l19 -88q12 -43 17 -95.5t5 -91.5q0 -303 -268 -376q-68 -63 -309 -64q-102 0 -168 35q-2 -14 -19 -14l-86 18q-121 39 -141 55q-90 61 -90 160l-4 12z" />
<glyph unicode="&#x1077;" horiz-adv-x="1372" d="M37 133l6 60q10 18 39 18l90 -14l88 -9l-84 91q-31 29 -55.5 56t-38.5 54q-37 61 -37 143q0 115 66 295q8 37 20 60l25 51q31 74 39 80q35 41 71 53l86 10h33h43q68 37 143 37q213 0 303 -63q279 -80 279 -406q0 -125 -23 -194l-79 -277q-59 -129 -236 -170l-211 49 q-59 76 -59 176q0 18 4 44t9 51.5t44 78t69.5 74t67.5 21.5q57 0 119 -39q20 -12 53 -45q29 82 40.5 138t6.5 93q2 41 -14 133q-41 68 -153 107q-61 23 -97.5 32t-79.5 17l-172 -31l-118 -65q-80 -133 -97 -140q-18 -45 -18 -77l22 -88q18 -82 86 -129l45 -60q14 -18 44 -37 q2 0 6 -8q31 -41 37 -61l2 -4l8 -45l2 -43v-54q-4 -20 -19 -33q-53 -70 -170 -69q-82 0 -184 26q-51 20 -51 113zM717 326l2 -97l88 50q-29 18 -55 36q-12 2 -35 11z" />
<glyph unicode="&#x1078;" horiz-adv-x="2336" d="M49 637q0 326 303 403q92 61 330 62q59 0 133 -33l55 -27l62 -47q41 -45 53 -96l12 -47q145 276 506 276q156 0 264 -41l88 -32q41 0 103 -49q59 -55 67 -99q102 -244 103 -289l-6 -14q6 -18 6 -92v-145l-6 -88q-10 -106 -97 -166q-39 -27 -153 -56q-59 -18 -96 -18 q-8 6 -11.5 6t-7.5 4q-80 -37 -205 -37q-268 0 -338 68q-297 76 -296 395q0 80 14 148l-31 79q-86 127 -108 132l-160 92q-297 -55 -354 -160q-18 -92 -17 -129q-12 -82 47 -234q100 -106 154 -124l59 -68l-35 -162l-71 -55q-190 41 -256 166l-88 280q-23 78 -23 197z M1094 471q0 -41 24 -100q20 -70 39 -70l6 6q113 -154 338 -153l160 18l156 39q27 18 51 45t39.5 50t15.5 220q0 225 -119 336l-149 64h-103q-141 0 -239 -60q-55 -55 -97 -105t-53 -69q-70 -160 -69 -221z" />
<glyph unicode="&#x1079;" horiz-adv-x="2338" d="M18 373q0 55 45 94q-12 66 -13 102.5t-1 59.5q0 317 293 397q96 61 324 61q57 0 82.5 -5t70.5 -27h45q68 0 119 -37q18 -6 72 -72q14 -4 51 -41l6 -18l6 -23l-4 -14q66 -209 49 -258q12 -113 18.5 -155t10.5 -60q10 -8 31 -37q37 -51 57 -84q8 -4 46 -18.5t104 -36.5 l104 -33l160 51q129 49 161 107q6 23 12.5 64.5t2.5 62.5q14 78 -45 229q-98 98 -150 125l-57 65l94 222l-53 -7l61 -22q186 -10 248 -141l88 -277q20 -74 21 -194q0 -317 -293 -398q-94 -61 -295 -61l-45 8l-242 14q-45 0 -72 33l-30 57l-31 48l-27 32q-20 33 -16 45 q-12 47 -18.5 89t-6.5 96l9 96q-14 70 -33 140.5t-51 172.5q-18 10 -65.5 31t-57.5 25l-185 32q-63 -12 -91.5 -19t-94.5 -32q-127 -45 -160 -106q-20 -74 -14 -127l-2 -15q68 35 127 35q113 0 211 -123q129 -158 129 -295q0 -74 -55 -102l-43 -27l-207 -100l-10 -8 q-190 33 -248 164l-33 98l-61 -10q-14 18 -27 43q-20 41 -21 84zM297 416l6 -17l45 -96q31 -76 47 -80l25 8l90 -22l63 8q8 66 -18 100q-123 143 -174 144q-39 0 -84 -45zM1124 813l54 -213l178 264l272 15l90 194l-424 -65l-110 -56l-54 -78z" />
<glyph unicode="&#x107a;" horiz-adv-x="2342" d="M55 643q0 307 285 379q100 57 340 57q59 0 87 -5t75 -25h47q72 0 125 -35q20 -6 76 -68q16 -4 55 -37l6 -18l6 -21l-4 -12q23 -41 51 -242q12 -106 18.5 -145t12.5 -57q10 -6 33 -33q37 -47 59 -78q10 -4 49 -17.5t109 -33.5l110 -31l168 47q135 45 170 99q6 20 12.5 59 t4.5 59q14 72 -47 215q-104 92 -160 117l-60 62l35 149l74 51q195 -31 262 -153l90 -258q23 -70 23 -183q0 -295 -309 -370q-98 -57 -310 -58l-47 6l-225 7q-20 0 -28.5 -165t-8.5 -339q0 -119 15.5 -172t48.5 -45l55 33q55 31 92 30l41 -6q76 -27 76 -88l-6 -66 q-23 -55 -131.5 -78.5t-178.5 -23.5q-57 0 -112.5 51t-63.5 103l-6 47q-16 72 -16 272q0 213 6 286t24 120q-8 10 -8 59q0 61 1 78t7 35q6 23 -6 37q-20 31 -18 41q-12 45 -18.5 83.5t-6.5 90.5l8 88q-14 66 -33.5 132t-54.5 161q-18 10 -68 28.5t-61 22.5l-196 30 q-66 -10 -95.5 -17t-93 -27.5t-100.5 -49.5q-27 -20 -47 -55q-23 -78 -17 -123q-12 -72 48 -215q106 -94 157 -115l60 -59l-37 -150l-70 -55q-203 41 -262 158l-92 256q-25 82 -25 180z" />
<glyph unicode="&#x107b;" horiz-adv-x="2338" d="M47 350v139q0 70 6 89l-6 14q0 41 100 274q10 43 68 97q61 45 100 45l88 32q47 18 113 28.5t148 10.5q356 0 499 -264l13 45q16 49 53 92l61 45l53 25q74 33 132 33q240 0 333 -58q299 -78 299 -389q0 -119 -24 -186l-86 -266q-63 -123 -252 -162l-229 45q-63 76 -64 170 q0 18 4 42.5t10.5 49.5t47 75t74.5 70.5t73 20.5q61 0 129 -39q20 -10 57 -41q31 78 43.5 132t5.5 89q4 39 -14 129q-43 63 -166 103q-68 20 -105.5 29.5t-86.5 15.5l-158 -88q-23 -4 -106 -125l-31 -78q14 -63 14 -141q0 -303 -293 -377q-70 -63 -336 -64q-121 0 -200 35 q-12 -10 -19 -10q-25 0 -52.5 7t-41.5 9q-113 29 -154 53q-86 57 -94 160zM248 504q0 -188 12 -207q29 -39 48.5 -58.5t47.5 -35.5l152 -39l160 -19q221 0 331 150l7 -8q18 0 38 67q25 57 25 97q0 59 -70 211q-14 29 -46.5 65.5t-100.5 99.5q-96 57 -238 58h-100l-147 -60 q-119 -106 -119 -321zM1636 297l4 -90l95 45q-31 18 -62 35q-12 4 -37 10z" />
<glyph unicode="&#x107c;" horiz-adv-x="2445" d="M41 283l6 18l-6 10l12 64q4 25 86 90q135 115 203 137q0 25 150 45l124 10q150 0 209 -102l25 -45q33 -51 33 -111q0 -45 -6 -63q-80 -90 -144 -90q-76 0 -76 45q0 20 23 55v29l6 10q0 76 -82 115q-10 14 -45 14q-25 0 -86 -9t-131 -46q-63 -98 -63 -154q0 -94 120 -137 l78 -16l141 -19q217 0 320 150l6 -7q16 4 38 72t22 88q0 109 -37 168l-6 29l-9 24q-6 35 -88 109q-53 49 -65 45q-96 55 -226 55h-81l-138 -30l2 -70q-6 -49 -47 -53q-4 -6 -12 -10.5t-25 -4.5q-90 0 -90 103l6 35q-6 25 13 73q29 80 108 80l78 29q119 41 229 41 q401 0 514 -346q113 346 510 346q111 0 230 -41l78 -29q80 0 108 -80q18 -49 12 -73l7 -35q0 -102 -90 -103q-16 0 -25.5 5.5t-11.5 9.5q-41 4 -47 53l2 70l-138 30h-82q-129 0 -225 -55q-12 4 -65 -45q-82 -74 -88 -109l-9 -24l-6 -29q-37 -59 -37 -168q0 -20 21.5 -87.5 t38.5 -72.5l6 7q102 -150 319 -150l142 19l78 16q121 43 120 137q0 55 -63 154q-70 37 -131.5 46t-73.5 9h-18q-23 0 -39 -14q-82 -39 -82 -115l6 -10l2 -21q20 -49 20 -63q0 -45 -75 -45q-63 0 -144 90q-6 18 -6 63q0 59 33 111l25 45q59 102 208 102l125 -10 q150 -20 150 -45q68 -23 203 -137q82 -66 86 -90l12 -64l-6 -10l6 -18l-6 -13l-6 -14q0 -98 -93 -158q-20 -16 -143 -55l-90 -18q-18 0 -20 14q-68 -35 -175 -35q-248 0 -317 64q-172 45 -240 174q-33 -70 -89 -109.5t-146 -64.5q-70 -63 -318 -64q-106 0 -174 35 q-2 -14 -20 -14l-90 18q-123 39 -144 55q-92 59 -92 158l-6 14z" />
<glyph unicode="&#x107d;" horiz-adv-x="2236" d="M39 451q0 72 22 192l19 94q53 172 140 254t200 82q31 0 77 4t58 4q80 0 96 -55l33 -111l51 -24q8 -4 15.5 28.5t17.5 53.5q23 39 43 39q25 0 42 -51.5t17 -73.5q0 -63 -18 -122.5t-59 -59.5q-35 0 -35 4h-33q-16 0 -32.5 12t-37.5 33q-2 4 -6 8l-47 61l-16 54 q-8 18 -47 18q-29 0 -65 -7t-38 -11q-25 -23 -49 -39l-94 -95q-20 -29 -24.5 -39t-6.5 -18l-16 -33q-51 -92 -51 -207q0 -39 20 -96q20 -70 37 -69l4 8q98 -152 299 -152q86 0 161 13.5t84 18.5t9 9q49 16 83 47t42 68q-10 35 -13 70.5t-3 89.5q0 33 1 70.5t21 119.5l18 90 q106 354 480 354q51 0 127 -20q41 -12 131 -47l73 -29q76 0 103 -82q16 -51 12 -75l4 -37q0 -102 -84 -103q-16 0 -24 5.5t-11 9.5q-39 2 -45 53l5 72l-175 57h-75q-117 0 -213 -57q-10 4 -64 -48q-76 -76 -80 -110l-8 -25l-6 -28q-35 -61 -35 -172q0 -23 20.5 -92.5 t36.5 -73.5l5 8q96 -156 299 -156l133 19l73 18q115 43 115 139q0 57 -59 158q-66 39 -124.5 48t-69.5 9h-15q-23 0 -39 -14q-76 -39 -76 -119l4 -10l4 -20q18 -51 19 -66q0 -47 -70 -47q-61 0 -137 94q-6 18 -6 64q0 61 31 114l24 47q55 104 197 105l116 -10 q141 -23 142 -48q61 -23 190 -139q76 -70 82 -94l10 -63l-6 -13q8 -16 -4 -45q0 -100 -88 -162q-18 -18 -135 -57l-84 -18q-16 0 -21 14q-61 -35 -161 -35q-236 0 -299 64q-63 18 -113 53q-8 -14 -18 -21l-172 -65h-50h-18q-57 -35 -209 -35q-238 0 -299 64 q-262 72 -262 385zM2036 -2z" />
<glyph unicode="&#x107e;" horiz-adv-x="2236" d="M39 436q0 66 22 176l21 86q57 156 150.5 232t209.5 76q33 0 82 3t64 3q84 0 100 -49l35 -101l55 -24q8 -2 15.5 26.5t19.5 48.5q23 37 45 37q27 0 45.5 -48t18.5 -66q0 -59 -19.5 -112.5t-64.5 -53.5q-37 0 -37 2h-35q-16 0 -33.5 11t-38.5 32q-2 2 -8 6l-49 55l-19 49 q-8 16 -49 17q-31 0 -68.5 -6.5t-39.5 -10.5q-27 -20 -53 -37l-101 -83q-20 -27 -24 -36.5t-7 -15.5l-18 -30q-55 -84 -55 -189q0 -37 24 -88q18 -61 37 -61l6 6q104 -137 318 -137q90 0 169 11t89 16t10 7q51 16 88 44t45 61q-12 33 -15 65.5t-3 81.5q0 29 2 64t22 108 l19 82q113 324 510 324q53 0 135 -21q43 -8 137 -41l78 -26q82 0 111 -76q16 -45 12 -68l4 -32q0 -94 -88 -95q-18 0 -26.5 5.5t-12.5 7.5q-39 4 -45 49l2 65l-184 52h-80q-125 0 -226 -52q-12 2 -67 -43q-80 -68 -86 -100l-8 -22l-6 -27q-37 -55 -37 -158q0 -18 21.5 -81.5 t37.5 -67.5l6 6q100 -139 318 -139l141 16l78 16q121 39 121 127q0 51 -64 144q-68 35 -130 43t-73.5 8h-17.5q-23 0 -41 -12q-80 -35 -80 -107l4 -10l4 -21q20 -45 21 -59q0 -41 -76 -41q-63 0 -143 84q-6 16 -7 59q0 55 31 105l27 43q57 94 209 94l123 -10 q150 -20 149 -43q68 -18 203 -127q82 -61 86 -84l12 -60l-6 -10q8 -16 -6 -41q0 -92 -92 -147q-20 -16 -144 -53l-90 -17q-16 0 -20 15q-66 -33 -172 -33q-250 0 -318 59q-68 14 -119 47q-8 -12 -20 -18l-182 -60h-51h-21q-61 -33 -223 -32q-250 0 -318 59q-276 66 -276 348 zM672 -610l14 61q16 53 88 53l39 -10q29 -10 70 -59l39 -51q25 -16 51 27.5t65 148.5q53 160 113 440q0 35 39 35q31 0 61 -12l76 -39q1 -85 -110 -439q-57 -176 -93 -239l-20 -41q-20 -45 -71.5 -64.5t-82.5 -19.5q-14 0 -43 6q-37 16 -60.5 29.5t-76.5 52.5 q-98 72 -98 121z" />
<glyph unicode="&#x107f;" horiz-adv-x="1372" d="M49 625q0 158 88 270q88 127 223 149l-6 7l15 -7q20 6 65 7q72 -41 72 -99q-2 -29 -6 -37l24 -24q43 -55 43 -160q0 -117 -43 -164q-88 -98 -266 -123l100 -178q41 -25 71 -39t58 -24l195 -29q301 47 365 150q20 82 14 127q16 76 -47 225q-106 98 -158 119l-59 61l37 156 l69 57q203 -43 262 -164l92 -266q25 -84 25 -188q0 -315 -309 -392q-98 -59 -340 -59q-88 0 -162 35h-47l-129 12q-51 16 -78 49l-61 125l4 10q-111 270 -111 394zM201 643q0 -14 6 -49q182 41 217 254q-47 -6 -119 -49q-102 -57 -102 -113q-2 -29 -2 -43z" />
<glyph unicode="&#x1080;" horiz-adv-x="2287" d="M39 287l6 16q-2 16 -2 29q8 51 31 74l71 53q137 102 220 129q0 20 161 43l136 10q156 0 225 -96l28 -43q14 -27 15 -58v-38q6 -37 12 -70q-86 -86 -156 -86q-82 0 -81 43q0 16 26 53v27q6 2 6 10q0 66 -88 109q-10 10 -57 10h-33q-57 0 -98 -11.5t-96 -37.5 q-63 -86 -70 -148q0 -82 131 -129h-12q16 -6 126 -19.5t128 -27.5q231 0 344 141l6 -8q18 0 41.5 63.5t23.5 90.5q0 106 -59 192l-18 29l-35 53l-109 88q-111 51 -244 51q-119 0 -141 -6l-153 -26l6 -66q0 -47 -54 -47q0 -20 -40 -20q-96 0 -97 90l8 43v25.5t11 41.5 q25 80 118 80l84 27q47 16 123 25.5t181 9.5q426 0 550 -322l23 -86q25 -117 25 -180q0 -119 -43 -193q49 -49 100 -61h-16q16 -10 83 -21l179 -16q104 0 237 76q176 90 176 213q0 23 -106 262q-53 119 -297 119h-88l6 -66q0 -43 -59 -53q-18 -14 -31 -14q-100 0 -100 96 l4 37q0 10 1 25.5t11 41.5q27 80 115 80l84 27l112 26q51 12 101 13q27 0 69.5 -8.5t96 -33t98.5 -65.5q78 -66 114 -225l19 -80q29 -127 29 -180q0 -285 -308 -355q-61 -59 -340 -59l-77 -10q-39 0 -60 10l-72 21l-94 16q-113 27 -153 49l-90 -27q-76 -59 -345 -59 q-74 0 -118 16q-47 23 -74 33q-12 -12 -20 -12l-99 16q-127 29 -155 54q-100 49 -101 149l-6 12z" />
<glyph unicode="&#x1081;" horiz-adv-x="1372" d="M31 -645l6 57q8 61 82 74l41 -2q29 -10 42 -16.5t40 -32.5l49 -39q27 -12 48 31t44 159q16 96 29.5 210t13.5 243q0 45 63 45q25 0 45.5 -3t41 -11.5t30.5 -12.5q4 -12 4 -55q0 -63 -9 -152t-34 -241q-27 -178 -57 -254l-12 -43q-20 -47 -78 -84q-20 -16 -51 -22.5 t-60 -6.5q-37 10 -67.5 19.5t-89.5 36.5q-102 41 -121 100zM43 449q0 115 109 358l-7 8l58 113q31 31 76 47l127 8h45q76 33 153 33q231 0 324 -55q295 -68 295 -355q0 -66 -3 -96.5t-22 -75.5l-84 -241q-63 -109 -250 -148l-69 51l-33 142l57 55q53 23 148 110 q59 137 47 203q4 33 -15 117q-61 92 -350 135l-184 -27q-27 -10 -51.5 -19t-75.5 -38l-92 -162q174 -27 252 -112q41 -39 41 -150q0 -98 -41 -143l-23 -23l8 -32q0 -51 -71 -91q-41 0 -62 7l-14 -7l6 7q-127 18 -213 129.5t-86 251.5zM195 397q0 -53 96 -110 q6 -4 45.5 -21.5t64.5 -21.5q-27 195 -206 233v-80z" />
<glyph unicode="&#x1082;" d="M-1032 -385q0 215 112 309l138 43q37 12 48 18.5t21 16.5h-12l53 -6l88 -23l43 -32v-58q-4 -47 -43 -69l-63 -23l-53 23l-15 36l-4 -10l-61 17l-13.5 -13.5t-21.5 -29.5q-29 -57 -55 -80q-4 4 -7 -4q-8 -18 -14 -64q12 0 12 -49q0 -72 43 -164q4 -20 15 -33l53 -61 q66 -43 152 -43q14 0 47 33l41 39q72 57 108 106q20 61 35 62q10 16 35 16q71 0 71 -100q0 -39 -10 -95q-23 -78 -84 -77l-119 -74q-78 -45 -124 -45q-313 0 -371 217q-45 180 -45 217z" />
<glyph unicode="&#x1083;" horiz-adv-x="446" d="M-39 899q0 -59 74 -82h39q14 0 22 6t19 17q14 8 28.5 -10.5t21.5 -55.5t7 -68.5v-66.5l-8 -150q0 -84 -3 -144t-5 -114q0 -47 8 -84l-8 -563q0 -176 14 -250l6 -45q8 -45 59.5 -92t104.5 -47q41 0 75 5t81 18q115 25 133 67l8 60q0 59 -74 82l-39 8q-31 0 -82 -31 l-55 -29q-35 -14 -53 78q-6 45 -6 88v35l16 594l2 461q0 152 -14 250l-6 45q-8 45 -60.5 92t-103.5 47q-94 0 -136 -9.5t-57 -52.5z" />
<glyph unicode="&#x1084;" horiz-adv-x="1228" d="M18 195q0 57 37 90l117 75q20 14 246 113q-371 119 -371 275q0 252 481 251h217l64 -20l59 -6q158 0 158 -176q0 -135 -106 -199l-43 -12q-88 0 -89 108q6 53 43 80q6 31 -30.5 44t-126.5 13l-160 19q-262 0 -262 -96q6 -45 115 -76l122 -43q188 -66 189 -162 q0 -55 -46 -75.5t-83 -37t-51 -28.5l-183 -127q25 -45 146 -45h117l108 8q276 31 309 100q-137 66 -137 135q0 109 80 109q74 0 139.5 -72.5t65.5 -158.5q0 -88 -60 -148q-92 -96 -157.5 -114.5t-190.5 -18.5q-27 6 -81 6t-91 4h-74h-245q-23 6 -78 6q-147 16 -148 179z" />
<glyph unicode="&#x1085;" horiz-adv-x="6" d="M-1092 1470q0 59 50 93l86 49q-90 63 -91 172q0 27 48 121q59 129 360 129q51 0 231 -60q109 0 109 -119q0 -82 -94 -81l-41 10q-23 10 -39 39l-92 49q-16 6 -53 26q-10 4 -21 11q-70 0 -129 -21l-43 -28q-8 -20 -14 -31q-35 -68 -41 -78q43 -31 75 -65l54 8l6 10l65 14 l64 -10q53 -20 57 -63v-52l-57 -24l-43 -6q-164 -39 -240 -86l-18 -23q98 -76 164 -76q31 0 62.5 5.5t82.5 33.5q27 27 59 101l99 -17q39 -47 39 -100q0 -51 -41 -82l-86 -49q-104 -59 -244 -60q-117 0 -209 64q-115 76 -115 196z" />
<glyph unicode="&#x1086;" d="M-645 1702q0 106 27 217q39 115 100 125q6 -18 55 -74q35 41 45.5 50.5t20.5 23.5q82 -18 145 -133q66 -94 66 -238v-41l6 -129q0 -119 -64 -239q-16 -29 -51 -66t-57 -63l-213 -146q119 139 146.5 225t56.5 193q-8 0 -23.5 -9t-26.5 -9q-121 0 -173 25.5t-52 98.5z M-524 1731q6 -10 6 -21l24 -111q6 -4 24.5 -8t45.5 -4q16 0 37.5 4t34.5 15l6 12l14 14q6 4 7 18.5t6 32.5q0 98 -101 99q-10 8 -17.5 15.5t-17.5 19.5l-8 -5q-49 -33 -61 -81z" />
<glyph unicode="&#x1087;" horiz-adv-x="622" d="M-59 -381q242 197 284.5 272.5t55.5 112.5h-41q-174 0 -183 98l-8 127q0 68 28.5 141.5t82.5 82.5l49 -50l59 50q72 -14 127 -88q55 -63 56 -156v-29l6 -84q0 -80 -56 -159q-27 -35 -47 -72q-51 -61 -209 -146zM158 248l24 -92l62 -2q47 0 61 10l6 8l15 8q2 2 8 33 q0 70 -84 70l-33 22l-8 -4q-41 -23 -51 -53z" />
<glyph unicode="&#x1088;" horiz-adv-x="645" d="M31 -342q174 180 211 252t47 106h-35q-147 0 -156 93l-6 118q0 63 24.5 133t69.5 76l41 -45l52 45q61 -14 106 -82q49 -59 49 -145v-29l4 -78q0 -76 -47 -149q-23 -33 -41 -68q-43 -57 -237 -180zM59 815q0 213 201 213q160 0 172 -100l4 -113v-18q0 -86 -26.5 -157 t-77.5 -71l-43 45l-58 -49q-63 10 -120 86q-51 78 -52 164zM168 811q0 -76 86 -76q21 -6 27 -14l8 4q45 23 49 63q-4 -2 -8 6.5t-21 79.5q-29 4 -39 5q-102 0 -102 -68zM184 244l21 -84l51 -4q41 0 53 10l6 8l11 6q4 4 8 33q0 63 -72 63l-26 21l-9 -2q-35 -23 -43 -51z" />
<glyph unicode="&#x1089;" horiz-adv-x="614" d="M27 268q0 205 217 205q119 0 155 -49q39 -41 39 -178q0 -80 -29.5 -150.5t-84.5 -70.5l-48 45l-61 -50q-74 14 -135 86q-53 70 -53 162zM143 262q0 -72 95 -72q24 -10 30 -18l8 8q49 16 54 56h-6q-8 31 -23 86l-63 2q-94 0 -95 -62z" />
<glyph unicode="&#x108a;" horiz-adv-x="1030" d="M59 231q0 37 29 78q6 6 32.5 34.5t65.5 53.5l105 43q10 8 35 9q74 0 151 -130q4 -16 9.5 -25t9.5 -11q31 39 77 131q33 63 95 258l53 -6q-55 -258 -55 -293q0 -57 -19 -111q-25 -55 -29 -65q-31 -84 -94 -125l-75 -27l-25 -14q-49 -27 -98 -27q-25 0 -58 10 q-84 16 -141 78l10 78l-71 25q-6 20 -7 36zM59 807q0 37 29 78q6 6 32.5 34.5t65.5 53.5l105 43q10 8 35 8q74 0 151 -129q4 -16 9.5 -25.5t9.5 -11.5q31 41 77 131q33 66 84 160l5 -6q4 -160 4 -195q0 -57 -19 -110q-25 -55 -29 -66q-31 -84 -94 -125l-75 -26l-25 -15 q-49 -27 -98 -26q-25 0 -58 10q-84 16 -141 78l10 77l-71 25q-6 20 -7 37zM215 215l43 -29q33 -59 72 -59q12 0 30 8l23 25v16q2 39 -29 76q-4 20 -37 53q-27 -10 -50.5 -13t-37.5 -7q-14 -16 -14 -70zM215 791l43 -29q33 -59 72 -60q12 0 30 11l23 22v17q2 39 -29 75 q-4 20 -37 54q-27 -10 -50.5 -13.5t-37.5 -7.5q-14 -16 -14 -69z" />
<glyph unicode="&#x108b;" horiz-adv-x="614" d="M94 586q0 137 43 178q43 47 174 47q244 0 244 -201q0 -92 -59 -159q-70 -72 -152 -86l-70 47l-51 -43q-63 0 -96 69.5t-33 147.5zM215 575q4 -37 59 -53l11 -8q10 10 20 14t12 4q106 0 107 70q0 61 -107 62l-67 -2q-16 -59 -21.5 -69t-13.5 -18z" />
<glyph unicode="&#x108c;" horiz-adv-x="1234" d="M117 553q0 186 205 186q176 0 176 -90l6 -112q0 -59 -25 -123q-33 -76 -82 -76q-8 6 -12 10q-18 12 -33 31l-59 -45q-72 20 -125 80q-51 68 -51 139zM229 551q0 -61 86 -62l27 -18l10 4q43 14 49 55q-4 0 -10 16.5t-14 55.5l-60 6q-88 0 -88 -57zM727 553q0 186 205 186 q168 0 176 -90l6 -112q0 -59 -27.5 -126t-78.5 -73l-50 41l-57 -45q-72 20 -125 80q-49 63 -49 139zM836 551q0 -61 86 -62l30 -18q51 18 58 59h-6q-8 23 -19 72l-57 6q-92 0 -92 -57z" />
<glyph unicode="&#x108d;" horiz-adv-x="6" d="M-1251 -176q0 33 25.5 54.5t74.5 27.5h725q43 0 70 -25q25 -18 28 -57v-19q0 -35 -30.5 -58t-67.5 -23h-725q-41 0 -72 22q-24 24 -28 59v19z" />
<glyph unicode="&#x108e;" horiz-adv-x="1366" d="M27 580q4 102 2 135l6 84q6 98 94 151q37 23 150 54q63 16 92 16q18 2 18 -10q78 35 199 34q260 0 334 -61q289 -72 288 -367q2 -78 -26 -182l-21 -84q-117 -340 -528 -340q-152 2 -256 37l-84 29q-45 0 -100.5 47t-65.5 92q-98 223 -100 268q0 8 6 13q-12 23 -8 84z M227 565q0 -207 115 -307l147 -61h99q131 0 235 53q125 121 146 162q70 145 69 206q0 41 -32 117q-197 -176 -301 -176q-90 0 -166 86l-140 160q-23 27 -32 65q-25 -10 -35 -10q-41 -25 -94 -96q-10 -14 -11 -199zM463 891l33 -39q0 -76 8 -115q35 -14 71 -14q106 0 269 151 q-88 37 -205 39l-156 -16z" />
<glyph unicode="&#x108f;" horiz-adv-x="634" d="M86 72l4 78v28q0 86 49 146q45 68 107 82l51 -46l41 46q45 -6 69.5 -76t24.5 -133l-6 -119q-8 -92 -156 -92h-34q10 -35 46.5 -107t211.5 -252l-82 47q-195 123 -238 181q-18 35 -41 67q-47 74 -47 150zM88 766v18l4 113q12 100 172 100q201 0 201 -213q0 -86 -51 -163 q-57 -76 -121 -86l-57 49l-43 -45q-51 0 -78 70.5t-27 156.5zM186 758q4 -41 50 -64l8 -4q6 9 26 15q86 0 86 75q0 68 -102 68q-10 0 -39 -4q-16 -72 -20.5 -80t-8.5 -6zM190 182q4 -29 9 -32l10 -7l6 -8q12 -10 53 -10l51 4l21 84q-8 29 -43 51l-8 2l-27 -20q-72 0 -72 -64 z" />
<glyph unicode="&#x1090;" horiz-adv-x="1228" d="M78 385v152q0 80 6 98l-6 16q0 48 92 310q8 49 60.5 103t91.5 54l79 37q100 43 238 43q371 0 485 -391l19 -98q14 -82 18 -124t4 -87q0 -336 -266 -422q-68 -72 -305 -72q-109 0 -182 39q-12 -10 -19 -10q-10 0 -25.5 2t-60.5 18q-102 31 -137 60q-78 63 -86 178z M260 553q0 -211 15.5 -236.5t41 -55.5t41.5 -44l140 -41l143 -20q203 0 303 163l4 -6q16 0 37 76q23 61 23 105q0 70 -64 237q-12 23 -43 70q-39 55 -90 117q-90 63 -217 63h-92l-133 -70q-109 -119 -109 -358z" />
<glyph unicode="&#x1091;" horiz-adv-x="1228" d="M395 809l168 156l19 141l-107 -37zM508 1077q61 29 55 -64t-6 -597q0 -168 14 -242l7 -41q10 -45 62 -90t108 -45q43 0 77.5 4t81.5 16q119 25 137 66l9 57q0 57 -76 78l-39 10q-33 0 -84 -30l-57 -27q-37 -14 -56 76q-6 41 -6 84v33l4 608v106.5t4 61.5q6 -45 11 -54 q6 6 14 15q12 57 -92 57z" />
<glyph unicode="&#x1092;" horiz-adv-x="1228" d="M51 1014q-10 33 51 84q20 16 66 47q6 -53 20 -98q14 -23 33 -41q14 12 31.5 57t28.5 45l73 45q31 18 76 26.5t107 8.5h32q158 0 256 -66q78 -51 129 -153v-285q0 -43 -31.5 -145.5t-64.5 -139.5q-55 -61 -113.5 -92t-103.5 -94q-47 -20 -98 -74.5t-107 -113.5 q-8 -6 -1 -44t-1 -41t-33.5 -3t-38.5 -5q-51 0 -71.5 2.5t-30.5 4.5q-6 92 31 169.5t84 104.5l129 121q8 0 48 24.5t60 40.5q35 25 72 78q4 8 14 25q23 20 43.5 45.5t36 53.5t30.5 110t15 139q0 23 -5 37t-31.5 33.5t-59.5 54.5q-39 25 -88 34t-111 9h-92q-16 -37 -26 -55 q-31 -59 -60 -86q-14 -14 -63 -35q-8 -4 -26.5 -10.5t-27.5 -6.5q-66 0 -124 78q-35 49 -58 111z" />
<glyph unicode="&#x1093;" horiz-adv-x="1228" d="M129 113l10 198l17 236q6 2 26.5 106.5t24.5 108.5q27 154 31 201t14 57l12 110l19 39l20 35q2 37 34 59.5t56 22.5l72 -4l8 -25q10 -49 10 -98q0 -39 -5 -66.5t-9 -48.5q0 -18 -9 -48.5t-26.5 -57.5t-21.5 -37l-60 -192h49q66 25 88.5 28.5t83.5 3.5q47 0 100.5 2 t112.5 7q39 0 61.5 -4.5t41.5 -16.5q135 -37 190 -94q68 -72 68 -209q6 -29 6 -43q0 -16 -6 -39l-17 -84q-57 -172 -208 -248q-29 -16 -58 -16q-43 0 -43 72q0 43 6 82q0 6 9 18l92 86q33 45 50 84t17 49q-6 10 -6 39q0 4 -10 15.5t-18 33.5l-19 23q-12 16 -16 24t-4 13 q-39 55 -92.5 69t-157.5 14h-58l-127 -16q-14 0 -62 -44t-73 -103q-33 -78 -36 -95.5t-1 -15.5q-10 -78 -12 -119t-2 -73v-58q-53 -39 -98 -39q-35 0 -54.5 17.5t-19.5 40.5z" />
<glyph unicode="&#x1094;" horiz-adv-x="1228" d="M20 59q-18 37 19 46.5t33 23.5q-2 12 -2 45q0 51 22 100l129 246q23 152 76 284t127 210l180 190q31 33 70 33q53 0 112 -51q37 -29 97.5 -101.5t88 -207t54.5 -271.5l55 -196q27 -94 35 -119q23 -59 49 -101q25 2 45 3q25 0 43.5 -19.5t18.5 -77.5q0 -39 -12.5 -49 t-56.5 -25.5t-95 -15.5q-49 0 -71.5 11t-12.5 40l-55 119q-4 14 -6 27q-18 41 -25 71l-20 115q-10 76 -39 156q-4 82 -8.5 188.5t-28.5 155.5q-27 8 -77 89t-79 81q-18 0 -35 -19l-137 -151q-2 -8 -76 -266q-33 -117 -65 -181q-66 -123 -89.5 -175t-21.5 -62q10 -37 10 -74 q0 -68 -18 -96q-23 -20 -37 -27q-51 -29 -88 -28q-33 0 -60.5 17t-48.5 62z" />
<glyph unicode="&#x1095;" horiz-adv-x="1228" d="M96 438q0 221 226 269q53 49 251 49q123 0 179 -27l12 4l24 -4h19l2 338q-2 4 -27 33q-14 16 -14 35q0 27 23 100q6 12 38 12q23 0 64 -26q92 0 92 -80l-8 -471q14 -4 29.5 -7.5t15.5 -19.5q-2 -6 1 -45t3 -45q0 -31 -4 -39q-27 0 -49 4l-2 -151q2 -16 2 -112.5t2 -109.5 l-12 -55q-27 -57 -91 -57l-61 -23q-41 -16 -113.5 -22t-158.5 -6q-317 0 -408 249l-14 66q-12 47 -16.5 84t-4.5 57zM246 418q0 -41 6 -70t31 -65v-9q12 -23 22 -43q90 -115 270 -114l103 2l139 43q2 29 3 54.5t3 64.5q-14 106 -26 215q-18 90 -49 96l-80 16q-68 10 -111 10 h-29q-98 0 -143 -15t-84 -68l-8 8q-18 0 -32.5 -51.5t-14.5 -73.5z" />
<glyph unicode="&#x1096;" horiz-adv-x="1228" d="M139 780q0 39 2 59.5t19 92.5l12 69q88 266 395 267q84 0 154 -7.5t110 -23.5l58 -25q63 0 88 -61l12 -57q-2 -10 -2 -50v-63v-94q-2 -23 -2 -31l2 -160q16 6 30.5 8.5t16.5 -6.5q4 -10 4 -41t-2 -61.5t-2 -34.5q0 -12 -28 -22q-4 0 -15 -4l6 -504q0 -41 -25.5 -63.5 t-62.5 -22.5q-41 -27 -59 -27q-35 0 -39 14q-23 78 -23 107q0 20 12.5 35.5t28.5 36.5l-2 358h-18l-25 -2l-10 2q-53 -27 -174 -27q-193 0 -244 52q-217 51 -217 286zM285 803q0 -25 13 -80t30 -55l10 10q33 -51 81 -69.5t138 -18.5h27q43 0 106 10l80 16q31 8 53 158 q9 86 19 174q0 25 -2 60.5t-6 70.5l-132 41l-100 4q-174 0 -260 -123q-16 -29 -23 -43v-12q-25 -39 -29.5 -67.5t-4.5 -75.5z" />
<glyph unicode="&#x1097;" horiz-adv-x="1228" d="M111 1100q0 74 22.5 95.5t69.5 21.5h49q41 0 59 8q121 43 264 43q53 0 119 -10.5t125 -20.5q12 -6 68.5 -8t66.5 -15q18 -14 19 -61v-109q16 -51 -51 -155q-84 -129 -95 -166q-20 -63 -57 -120.5t-119 -160.5q-59 -78 -96 -135q-66 -100 -72 -106q82 0 164 4 q215 12 264 12q72 0 72 -10l-2 -207q0 -10 -43 -10q-31 0 -132 10t-110 4q-31 -10 -92 -10q-31 0 -61.5 1t-59.5 1l-57 8q-31 -8 -61 -14q-23 0 -29 20q-23 -16 -78 -16q-53 0 -98 12q-20 14 -41 27q82 141 96 168q53 86 102 149l156 199l137 180q14 33 49 84q27 37 54 76 q41 68 41 82q0 10 -58 55q-31 25 -84 25q-16 0 -58 -3.5t-69 -3.5l-211 3l-153 -70q-10 68 -10 123z" />
<glyph unicode="&#x1098;" horiz-adv-x="1228" d="M80 276v119q0 61 5 84t5 29q0 20 15.5 49t50.5 78q4 16 39 37q49 31 57 39q8 6 -2 18q-33 31 -64 64q-23 31 -40 100.5t-13 103.5l35 90l217 13l-33 -88q-6 -37 -6 -51q0 -51 27 -101q10 -20 45 -55q6 -2 16 -14q6 -10 40 -1t79 9q20 0 42.5 2t51.5 4q23 0 66 -14 q16 8 24 14q27 25 35 57q10 35 -16 137q-6 33 -27 101q12 -6 106.5 -24.5t112.5 -33.5q2 -43 3 -94t1 -106v-45q0 -31 -7 -47.5t-23 -34.5q-4 -6 -15 -17q12 -12 56.5 -35.5t74.5 -60.5l19 -76q10 -49 15 -84.5t5 -76.5q0 -260 -243 -324q-59 -55 -281 -55q-102 0 -168 30 q-10 -10 -14 -10q-20 0 -44 6t-36 11q-94 25 -127 45q-72 49 -80 137zM248 408q0 -162 10 -177q23 -33 39 -50t39 -31l129 -33l131 -17q186 0 278 129l5 -6q16 0 32 58q20 47 21 81q0 72 -94 185q-23 29 -53.5 46t-57.5 28q-49 31 -109 30q-37 0 -63 -4l-96 -8l-105 -55 q-41 -33 -78 -64q-29 -31 -28 -112z" />
<glyph unicode="&#x1099;" horiz-adv-x="1228" d="M117 743v123l4 76q8 90 76 141q31 20 98 41t96 21q8 -2 12 -6q0 -2 3 -2q63 31 159 30q211 0 266 -57q232 -66 232 -336q0 -66 -19 -166l-18 -78q-18 -27 -49 -47q-68 -47 -76 -55q12 -14 17 -20q39 -53 51 -82q8 -18 -11 -152q-4 -43 -18 -129q-12 -12 -68 -25 q-135 -31 -139 -34q16 76 23 116q25 129 18 158q-10 37 -39 62l-18 12q-33 -14 -64 -15q-18 0 -46.5 3.5t-41.5 3.5q-43 0 -74.5 9t-37.5 -1q-14 -14 -23 -21q-29 -33 -35 -51q-18 -41 -18 -82l47 -207l-205 13l-49 211q-4 37 16 82q12 25 33 53q45 47 57.5 62.5t4.5 21.5 q-10 10 -49 36.5t-44 43.5q-31 47 -46 79.5t-15 51.5q0 4 -1 16t-5 24.5t-4 75.5zM276 731q0 -82 27 -117q43 -35 74 -65l100 -57l90 -9q27 -4 64 -4q53 0 98 31q37 12 62.5 31.5t44.5 44.5q90 116 90 192q0 35 -21 84q-16 59 -31 60l-4 -7q-88 133 -264 134l-125 -17 l-121 -35q-23 -16 -41 -37.5t-30.5 -42t-12.5 -186.5z" />
<glyph unicode="&#x109a;" horiz-adv-x="634" d="M96 1081q0 205 217 205q119 0 156 -49q39 -41 39 -178q0 -80 -29.5 -150.5t-85.5 -70.5l-47 45l-61 -49q-74 14 -135 86q-53 70 -54 161zM213 1075q0 -72 94 -71q25 -11 31 -19l8 8q49 16 53 56h-6q-8 31 -22 86l-64 2q-94 0 -94 -62z" />
<glyph unicode="&#x109b;" horiz-adv-x="645" d="M82 1681q0 106 27 217q39 115 100 125q6 -18 55 -73q35 41 45.5 50t20.5 23q82 -18 145 -133q66 -94 66 -237v-41l6 -129q0 -119 -64 -240q-16 -29 -51 -65.5t-57 -63.5l-213 -145q119 139 146.5 225t56.5 192q-8 0 -23.5 -9t-26.5 -9q-121 0 -173 25.5t-52 99.5z M203 1710q6 -10 6 -20l24 -111q6 -4 24.5 -8t45.5 -4q16 0 37.5 4t34.5 14l6 12l14 15q6 4 7 18.5t6 32.5q0 98 -101 98q-10 8 -17.5 15.5t-17.5 19.5l-8 -4q-49 -33 -61 -82z" />
<glyph unicode="&#x109c;" horiz-adv-x="1034" d="M162 346q0 16 6 37l72 25l-11 77q57 61 142 78q33 10 57 10q49 0 98 -26l25 -15l76 -26q63 -41 94 -125q4 -10 29 -66q18 -53 18 -110q0 -35 -4 -195l-4 -6q-51 94 -84 160q-47 90 -78 131q-4 -2 -9 -11.5t-9 -25.5q-78 -129 -152 -129q-25 0 -35 8l-104 43 q-39 25 -65.5 53.5t-33.5 34.5q-29 41 -28 78zM162 922q0 16 6 36l72 25l-11 78q57 61 142 78q33 10 57 10q49 0 98 -27l25 -14l76 -27q63 -41 94 -125q4 -10 29 -65q18 -53 18 -111q0 -35 55 -293l-53 -6q-61 195 -94 258q-47 92 -78 131q-4 -2 -9 -11t-9 -25 q-78 -129 -152 -129q-25 0 -35 8l-104 43q-39 24 -65.5 53t-33.5 35q-29 41 -28 78zM317 362q0 -53 15 -69q14 -4 37.5 -7t50.5 -14q33 33 37 54q31 37 28 75v17l-22 22q-18 10 -31 11q-39 0 -72 -60zM317 938q0 -53 15 -70q14 -4 37.5 -7t50.5 -13q33 33 37 53q31 37 28 76 v16l-22 25q-18 8 -31 8q-39 0 -72 -59z" />
<glyph unicode="&#x109d;" horiz-adv-x="6" d="M-752 1729q2 59 52 83q27 16 118 31q119 23 189 23q61 0 121.5 -40t74.5 -85l11 -39q14 -66 14 -223q2 -326 -33 -385q-49 -7 -98 -7q-131 0 -113 50q39 254 35 391q-2 190 -70 207l-106 -13q-25 -70 -61 -69q-133 0 -134 76z" />
<glyph unicode="&#x109e;" horiz-adv-x="972" d="M170 774q0 -55 82 -76h41q16 0 26.5 5.5t18.5 15.5q16 8 32.5 -9.5t24.5 -53t8 -65.5v-61l-10 -143q0 -78 -3 -135t-7 -109q0 -43 10 -80l-10 -532q0 -166 16 -236l9 -40q8 -45 65 -89.5t115 -44.5q45 0 83 4.5t89 16.5q127 25 145 65l10 56q0 55 -81 75l-41 11 q-37 0 -91 -31l-63 -27q-39 -14 -57 74q-6 43 -7 84v31l17 563l2 436q0 141 -16 236l-7 41q-10 45 -66 89t-114 44q-104 0 -149 -9.5t-62 -50.5zM174 1260q0 205 217 204q119 0 156 -49q39 -41 39 -178q0 -80 -30 -150.5t-85 -70.5l-47 45l-62 -49q-74 14 -135 86 q-53 70 -53 162zM291 1253q0 -72 94 -71q25 -11 31 -19l8 8q49 16 53 56h-6q-8 31 -22 86l-64 2q-94 0 -94 -62z" />
<glyph unicode="&#x109f;" horiz-adv-x="1648" d="M14 535q0 233 169 402t403 169q236 0 403.5 -169t167.5 -402v-1287h80v1729l-59 90l-144 121l-90 -10l-72 2l-69 20q-123 33 -252 238l-25 75l-14 93q0 248 258 403l86 31l90 10l51 -2q31 -2 52 -14l106 -41q119 -47 182 -213l-34 -31l-82 -55q-25 76 -109 147 q-72 59 -168 60q-117 0 -199.5 -85t-82.5 -202q0 -61 6 -66q0 -18 26 -71q8 -41 94 -101l37 -24l39 -15l86 -16q47 0 74 14q147 -27 242 -112q47 -45 137 -181v-1904h-436v1397q0 152 -114 266t-267 114q-158 0 -269.5 -111.5t-111.5 -268.5q0 -156 108 -271 q100 -111 273 -110h22l-22 -193q-231 0 -401.5 171t-170.5 403z" />
<glyph unicode="&#x1700;" horiz-adv-x="2324" />
<glyph unicode="&#x1950;" horiz-adv-x="931" d="M29 666l8 34l8 37l12 43l15 39l16 37l18 31l19 26l18 17l17 14l20 14l21 13l28 4l27 -2l20 -10l29 -17l17 -22l12 -27l10 -29l8 -34l6 -15l7 -8l8 -2l8 4l43 51l37 43l63 86l37 49l47 37l45 2l45 -14l31 -31l29 -43l18 -37l29 -77l31 -160l26 -164l33 -197l12 -163v-11 l2 -10v-8l-2 -14l-4 -17l-4 -12l-8 -17l-4 -14l-6 -18l-9 -15l-10 -16l-6 -12l-6 -6l-6 -7l-6 -6l-17 -8l-12 -2l-12 -2l-15 2h-16l-12 8l-11 6l-12 9l-10 12l-4 14v15l-6 26l-9 58l-12 75l-10 78l-10 80l-15 70l-12 75l-14 72l-27 139l-12 62l-6 33l-2 16l-2 12l-5 8l-2 4 l-2 5l-4 4h-10l-10 -2l-15 -7l-16 -10l-29 -37l-32 -49l-23 -37l-26 -32l-27 -35l-29 -37l-12 -19l-12 -22l-15 -18l-16 -17l-8 -6l-11 -4l-8 -4l-8 -4l-10 2l-10 4l-9 4l-8 6l-20 21l-13 20l-12 14l-10 15l-12 14l-15 23l-14 24l-10 15l-6 14l-11 6l-12 -2l-10 -4l-8 -6 l-11 -8l-8 -9l-10 -14z" />
<glyph unicode="&#x1951;" horiz-adv-x="976" d="M-55 797l12 14l10 14l13 15l8 14l12 12l8 15l23 24l20 29l23 27l20 28l12 12l11 15l14 10l21 12l20 11l16 2l25 6l16 2h21l16 -4l15 -8l12 -11l10 -16l14 -23l9 -14l6 -16l4 -11l4 -4h4h6l10 2l11 7l12 10l14 8l17 12l24 17l23 16l39 18l37 21l36 16l31 13l25 2l26 2 l23 2l24 -2l17 -4l22 -13l19 -22l33 -70l22 -84l27 -117l24 -124l13 -177l14 -206v-72l-8 -57l-13 -27l-20 -27l-29 -16l-30 -4l-17 12l-14 12l-10 11l-11 12l-6 10l-8 12h-2l-8 -8l-4 -8l-13 -18l-12 -15l-14 -16l-15 -8l-20 -13l-16 -8l-13 -8l-16 -6l-21 -10l-28 -9 l-21 -6l-14 -4l-10 -2l-13 2l-18 4l-25 6l-26 5l-15 4l-14 4l-14 12l-15 10l-12 13l-14 16l-6 16l-6 21l2 12l2 12l2 11v8l-6 28l-5 27l-8 31l-8 26l-4 11l-6 8l-4 6l-6 6l-25 14l-12 9l-4 4l-2 6l-2 6l2 10l2 8l4 11l4 12l8 12l8 13l10 12l13 8l14 10l18 17l21 12l20 14 l35 11l31 12h16l15 4l14 2h6l6 -4l4 -4l7 -4l2 -2l6 -2l12 2l10 4l11 4l8 8l18 16l33 25l35 29l18 14l15 8l4 6l2 9l2 30l-2 41l-4 23l-2 16l-13 51l-12 49l-10 50l-13 49l-8 14l-6 12l-4 9l-4 10l-8 6l-6 6h-11h-10h-8l-17 -6l-16 -8l-14 -8l-13 -15l-12 -16l-22 -29 l-23 -28l-20 -29l-50 -47l-32 -33l-45 -37l-45 -12l-37 -10l-33 6l-29 30l-30 27l-29 25l-14 6l-17 4l-18 2l-21 2l-16 -2l-16 -4l-17 -4zM600 401l2 -22l4 -27l6 -37l4 -47l5 -32l-3 -23q4 -18 11 -27h10l10 7l19 8l10 12l8 4l6 6l4 2l-2 29v12l-2 8v7l6 8l7 8l2 6l6 6v4 l-8 162q-5 37 -13 45h-2l-4 -4l-4 -2l-6 -6l-19 -14l-36 -27l-5 -6l-4 -4l-4 -8l-4 -13l-2 -10v-12z" />
<glyph unicode="&#x1952;" horiz-adv-x="970" d="M-39 817v4l4 8l6 13l6 10l13 14l12 19l27 41l26 39l29 43q20 23 51 32l29 7h12h14l7 -5l12 -4l10 -6l17 -8l14 -12l10 -13l10 -12l11 -14l10 -23l10 -28l4 -21l6 -18l6 -13l5 -12l4 -10l2 -6h4l2 4l4 4l10 18l12 21l23 33l18 28l25 31l27 31l32 30l29 25q22 27 53 37 l29 2l37 -21l20 -18l29 -35l39 -51l39 -70l28 -80l56 -215l33 -161l22 -160l2 -41l-4 -47l-8 -37l-10 -33l-13 -41l-10 -16l-12 -19l-10 -10l-11 -8l-16 -10l-14 -6l-15 -7l-14 -2l-14 7l-15 8l-14 10l-8 6l-8 12l-13 25l-10 41l-12 37l-13 80l-36 225l-43 248l-33 145 l-17 35l-14 35l-8 12l-4 4h-6l-11 -2l-8 -6l-20 -14l-19 -17l-22 -26l-21 -29l-18 -35l-19 -33l-8 -18l-4 -8l-4 -8v-11l2 -12l2 -22l4 -23l6 -47l6 -68l7 -90l4 -98l2 -94l-8 -94l-9 -35l-8 -35l-8 -23l-8 -14l-10 -18l-13 -13l-10 -12l-10 -12l-12 -8l-19 -9l-27 -12h-14 l-14 4l-10 8l-13 6l-6 9l-2 10l-2 10l-4 31l-10 49l-56 307l-28 152l-31 137l-16 45l-4 6l-5 6l-6 4l-12 9l-14 8l-13 6l-8 4z" />
<glyph unicode="&#x1953;" horiz-adv-x="1411" d="M-76 522l13 39l24 80l14 43l17 47l14 45l17 49l16 47l16 43l23 39l16 27l23 23l22 16l21 12l14 4h10l9 -4l10 -8l20 -18l19 -19l14 -24l14 -23l19 -35l20 -37l8 -18l9 -10l4 -2l2 2l12 12l8 12l17 25l16 29l16 28l19 41l22 41l21 39l16 25l23 18l22 14l23 15l24 8l21 6 h16l19 -2l16 -6l25 -12l14 -11l12 -12l13 -23l8 -14l20 -41l35 -80l18 -47l19 -41l8 -24l10 -23l6 -10l7 -2l6 6l8 16l16 45l23 58l24 65l15 29l12 33l21 39l20 34q19 33 39 41l10 7h8l15 -2l16 -9l12 -12l17 -14l22 -35l19 -37l20 -45l17 -41l16 -47l12 -51l8 -39l9 -41 l16 -80l27 -111l10 -45v-18l2 -27l-2 -18l-10 -27l-6 -24l-13 -27l-14 -35l-8 -18l-4 -8l-7 -11l-10 -4l-8 -6l-10 -4l-4 -2l-6 -2l-5 -8v-27v-16l-2 -6l-2 -7l-2 -2h-6l-4 2l-8 5l-6 4l-8 4l-9 12l-4 4l-2 6l-4 -16l-2 -14l-8 -23l-2 -18l-12 -37l-11 -35l-4 -29 q-10 -31 -16 -51l-8 -10l-7 -10l-6 -13l-8 -14l-10 -12l-8 -7l-13 -6l-12 -2l-22 -10l-23 -4l-20 2l-21 14l-10 6l-6 7l-13 16l-18 27l-18 22l-11 10l-6 11l-4 8l-37 104l-35 103l-69 209l-35 106l-35 102l-37 105l-37 102l-4 21l-8 10l-10 16l-6 7l-6 4l-9 -2l-6 -4l-8 -7 l-14 -24l-23 -47l-35 -80l-30 -84l-19 -41l-6 -25l-4 -8l-8 -10l-10 -21l-9 -12l-12 -20l-18 -17l-15 -10l-20 -10l-21 -10l-10 -5l-22 -2h-23l-14 2l-19 7l-20 22l-27 19l-20 20l-13 10l-8 2l-4 4h-6l-8 -4l-12 -6l-21 -26l-18 -31l-25 -29l-22 -26zM858 692l2 -12l14 -45 l19 -39l98 -342l2 -16l6 -17l2 -16v-6l5 -6l2 2l6 10l8 10l10 16l10 23l15 29l16 123l8 18l4 12l2 10l3 11l-3 8l-2 6l-2 18l-6 21v16l-102 305l-6 9l-8 10q-8 12 -17 22l-8 9l-6 2l-4 -2q-37 -80 -56 -125l-4 -23l-4 -22l-2 -11z" />
<glyph unicode="&#x1954;" horiz-adv-x="1400" d="M-61 539l18 82l27 73l43 94l34 68l33 55l31 39l14 8l15 11l18 10l18 6l21 2l14 -2l15 -4l8 -6l8 -10l8 -9l12 -16l9 -14l16 -33l23 -47l6 -19l6 -16l4 -4h4l4 4l10 8l9 12l10 17l26 39l13 22l16 25l19 22l20 29l25 29l26 22l23 27l26 18l37 13h21l24 -9h17l14 -10l16 -16 l15 -17l14 -22l14 -39l23 -84l22 -115l21 -127l10 -71l17 -103l16 -65l14 -62l11 -57l6 -35l4 -6l6 -4h6l29 29l30 32l17 19l12 18l14 12l13 19l8 16l4 17l6 16l2 14l2 99l-8 129l-18 139l-29 129l-20 55l-21 35l-10 33l6 35l10 35l29 49l26 39l37 24l37 4l27 -8l31 -31 l24 -45l17 -59l12 -57l18 -127l19 -134l18 -157l6 -129l6 -62l7 -28l2 -27l-5 -35l-6 -33l-24 -59l-27 -35l-33 -18l-20 -8l-25 4l-16 12l-16 16l-21 43l-8 15l-6 4l-8 -4l-7 -6l-10 -17l-14 -22l-76 -127l-27 -37l-30 -29l-29 -22l-27 -17l-32 -12l-27 -2l-18 6l-17 8 l-22 23l-25 51l-27 82l-20 102l-68 447l-26 80l-13 39l-14 40l-8 17l-8 4l-8 2h-9l-14 -12l-14 -17l-19 -28l-24 -33l-21 -35l-16 -35l-12 -28l-13 -25l-10 -29l-14 -22l-13 -25l-16 -20l-18 -13l-17 -10l-18 -12l-17 -2h-14l-14 4l-15 4l-18 8l-18 13l-29 34l-12 19l-9 10 l-8 8l-10 4l-8 4h-8l-11 5h-8l-8 -5l-8 -4l-13 -12l-18 -16l-18 -23l-17 -24z" />
<glyph unicode="&#x1955;" horiz-adv-x="1374" d="M6 831v11l4 12l4 14l9 23l20 41l33 61l18 31l12 14l9 13l14 16l16 10l21 6l16 7h25l18 -9l23 -12l22 -16l11 -21l8 -18l20 -41l17 -51l22 -72l27 -84l37 -178l28 -154l15 -82l6 -41l4 -20l4 -21l6 -2v6l4 7l6 10l4 12l29 86l27 66l22 45l23 37l26 34l33 31l27 12l16 7 l19 2l16 -2l16 -7l15 -16l14 -16l12 -23l11 -22l8 -25l8 -25l4 -22l2 -12l2 -9l6 -4l6 2l7 9l6 6l6 10l10 16l23 29l20 41l25 49l14 31l4 10l4 10l2 6v15v18l-4 13l-98 325l-8 25l-2 35l2 30l4 33l8 25l16 22l50 35l22 10l12 2h15l14 -6l25 -14l16 -19l12 -18l11 -21l10 -24 l14 -31l55 -205l68 -270l29 -152l16 -116l4 -33l2 -27v-26v-15v-20l-4 -21l-8 -18l-10 -18l-4 -11l-13 -12l-8 -4l-12 -2l-15 -2l-12 -6l-14 -6l-45 10l-17 16l-12 14l-8 13l-6 10l-6 33l-7 30l-12 66l-51 240l-6 16l-4 8l-2 2l-4 -6l-4 -10l-7 -21l-12 -43l-27 -69l-22 -49 l-21 -39l-26 -56l-15 -16l-12 -14l-8 -11l-12 -8l-13 -6h-12h-16l-15 10l-16 6l-18 15l-19 20l-16 31l-35 57l-12 19l-9 8l-6 2l-8 2l-4 -2l-10 -4l-17 -23l-20 -39l-18 -43l-15 -38l-14 -43l-21 -64l-24 -61l-17 -52l-12 -20l-4 -14l-33 -19l-14 -10l-27 2l-10 2l-18 25 l-9 12l-10 14l-12 23l-6 28l-117 486l-49 170l-12 16l-11 21l-14 18l-8 6l-10 8l-11 2l-8 3h-6l-10 -3l-8 -2l-11 -4h-4z" />
<glyph unicode="&#x1956;" horiz-adv-x="1429" d="M-72 584v10l4 20l2 23l11 35l20 63l33 51l37 52l41 32l45 33l35 17l28 10h17l14 -2l10 -8l17 -11l16 -18l8 -12l13 -19l16 -18l10 -17l4 -8h4h4v21l5 20l2 16l4 19l8 27l6 49l12 43l6 30l11 35l12 45l8 21l4 18l11 19l10 16l18 25l23 18l26 16l29 13l18 4h19 q35 -4 61 -53l43 -101l29 -82l35 -100l18 -51l8 -29l5 -12l4 -13h2h4l10 17l4 14l12 29l11 22l14 25l18 47l19 49l6 23l12 22l10 25l17 22l16 27l25 33l12 16l19 15l14 4l16 2l23 2q41 -6 74 -45l40 -86l37 -88l39 -103l56 -227l28 -119l13 -57l6 -29l4 -14l2 -19l-2 -12 l-4 -12l-6 -29l-11 -57q-23 -47 -57 -70l-35 -14l-16 -8l-17 -9l-16 -4h-18l-17 2l-10 2l-8 13l-6 14l-11 25l-6 24l-8 29l-16 53l-15 61l-28 117l-29 119l-51 166l-15 41l-6 16l-4 13l-2 10l-4 8l-8 2h-2l-6 -2l-9 -6l-10 -25l-20 -45l-17 -47l-16 -53l-16 -60l-2 -24 l-7 -25l-4 -22l-4 -19l-6 -18l-6 -17l-16 -32q-31 -63 -62 -90l-10 -9l-14 -6h-11l-10 6l-12 7l-11 6l-12 6h-10q-12 -10 -21 -51l-26 -105l-8 -49l-11 -27l-4 -28l-12 -29l-10 -27l-21 -51l-20 -33l-10 -16l-19 -14l-16 -13l-25 -12l-24 -8l-15 -8h-18l-17 10l-20 18 l-23 17l-18 18l-16 17l-15 20l-24 37l-82 176l-70 191l-14 28l-12 19l-11 12l-8 8l-6 8h-8l-12 4h-21h-14l-8 5zM346 725l6 -10l2 -15l8 -20l17 -43l16 -43l17 -49l14 -62l12 -63l13 -66l8 -32l4 -17l4 -16l4 -2l4 2l4 8l8 12l2 13l15 30l12 43l14 39l9 19l4 16l4 14v25 l-4 22l-4 15l-11 18l-53 137l-26 68l-15 37l-4 14l-10 19q-23 41 -39 30l-4 -6l-4 -6l-4 -12l-4 -17l-5 -18l-2 -16l-4 -15v-10l-2 -16l-6 -17v-10z" />
<glyph unicode="&#x1957;" horiz-adv-x="1513" d="M-33 709v16l6 18l7 9l34 73l52 72l38 39l48 41l34 12l39 -10l64 -51l10 -13l16 3l15 18l10 18l70 164l39 60l49 47l32 12l43 -16l58 -35l53 -53l37 -72l63 -176l21 -45l12 -13l12 -2q25 16 37 66l60 166l43 61l26 23l27 14h31l32 -14l60 -41l61 -99l62 -147l30 -72 l37 -110l15 -90q-4 -39 -19 -93l-41 -65l-55 -41l-25 -29l-10 -12l-16 -14l-23 -95l-16 -98l-29 -80l-41 -61l-45 -25l-24 -14l-31 -10l-27 2l-53 47l-51 55l-82 129l-70 172l-18 23l-19 -4l-16 -23l-49 -170l-33 -76l-49 -61l-66 -25l-63 19l-53 51l-43 72l-177 401l-40 70 l-56 47q-39 0 -43 35zM346 807l4 -37l105 -391l32 -72l13 -14l16 2l8 6l11 23l45 161l4 72l-9 37l-131 299q-18 75 -55 20l-37 -63zM881 662l14 -105l82 -235l35 -64l16 -25l27 17l30 65l15 86v70l-31 111l-94 206q-24 47 -49 29l-33 -63z" />
<glyph unicode="&#x1958;" horiz-adv-x="1306" d="M-2 43v20l2 29l2 35l6 31l4 32l13 48l14 49l35 88l88 133l55 39l70 12l63 -10l86 -51l47 -33l41 -14l37 -5l123 50l27 22l28 29l23 28l12 19l8 20l6 11l5 16l-5 18l-36 123l-41 121l-39 123l-21 64v84l15 63l34 86l48 70q22 23 53 39l33 4l32 -15l29 -32l31 -46l28 -75 l172 -918l11 -112v-99l2 -51v-47l-4 -25l-11 -16l-14 -14l-10 -15l-27 -24l-31 -21l-12 -8l-14 -2l-12 4l-17 10l-12 13l-19 12l-8 18l-10 19l-16 39l-25 92l-51 305q-8 49 -31 100l-4 15l-6 12l-2 4h-4l-4 -10l-9 -10l-211 -267l-55 -49l-24 -22l-27 -21l-31 -14l-30 -12 l-31 -13l-31 -8l-41 -4l-37 4l-28 8l-31 9h-43l-21 -3l-24 -6l-27 -18l-22 -29l-15 -14q-8 -16 -16 -39l-16 -31l-9 -4h-12l-4 25z" />
<glyph unicode="&#x1959;" horiz-adv-x="1042" d="M-23 1012l5 12l4 12l47 35l55 27l57 12h60l69 -23l62 -49l35 -65l30 -74l19 -88l16 -96l27 -377q4 -61 31 -68l36 15l103 116l18 29l4 21v24l-8 117l-67 450l-13 60l6 41l21 28l20 29l48 41l28 14l29 -4l31 -12l24 -37l39 -65l23 -80l75 -549l-2 -55l-8 -50l-14 -45 l-19 -39l-22 -24l-21 -19l-30 -8l-29 -2l-61 -6l-48 -24q-25 -18 -43 -62l-36 -65l-43 -50l-52 -30l-51 -33l-65 -8l-62 18l-51 53l-41 66l-31 74l-37 166l-39 272l-38 164l-31 73l-43 62l-8 18l-6 25z" />
<glyph unicode="&#x195a;" horiz-adv-x="1583" d="M12 621l31 86l31 69l61 88l72 64l49 14l47 -14l41 -41l45 -66l37 -82l98 -415l11 -52l8 -16l18 -6l31 18l39 64l43 71l14 33l12 31l-12 82l-33 176l-47 193l-43 116l-14 23l-21 18l-12 31l-4 39l6 37l10 41l27 57l21 43l38 49l37 33l29 6l25 2l24 -8l19 -23l30 -41 l27 -55l20 -55l31 -84l74 -268l57 -248l64 266l16 49l23 37l30 33l37 18l37 8l37 -6l39 -2l31 -28l30 -50l39 -106l37 -125l31 -127l10 -90l-10 -47l-13 -29l-12 -37l-16 -22l-13 -23l-26 -22l-39 -4l-53 20l-39 35l-10 -62l-13 -49l-18 -53l-31 -76l-61 -88l-41 -26 l-54 -15l-34 -8l-45 6l-39 29l-39 37l-33 55l-41 117l-41 127l-16 71l-37 -125l-19 -65l-20 -55l-27 -64l-28 -53l-31 -45l-37 -27l-53 -8l-55 10l-46 21l-38 22l-58 72l-33 53l-20 51l-21 56l-69 196l-19 41l-34 33l-43 23zM1004 569l6 -71l32 -166l25 -82l23 -37l28 -6 l23 22l22 25l17 27l18 41l12 47l7 22l-29 33l-19 33l-51 219l-16 59l-10 17h-13l-20 -17l-23 -45l-18 -74z" />
<glyph unicode="&#x195b;" horiz-adv-x="1112" d="M-106 915l4 9l10 10l14 14l23 31l24 27l49 47l48 49l51 45l28 24l23 19l33 22l30 17l54 18l24 -4l23 -12l22 -25l37 -69l55 -158q16 -39 21 -92l-4 -105l-2 -108q2 -41 20 -76l140 172l41 68l-3 94l-10 45l-2 22l-6 21l-10 16l-8 21l-15 37l-6 14l2 16l4 17l8 12l23 33 l20 31l25 22l27 25l24 16l29 12l24 8l31 -4l19 -14l24 -27l29 -63l27 -98l30 -154l21 -117l4 -106l-8 -221q-12 -49 -45 -80l-29 -39l-17 -23l-12 -18l-14 -19l-14 -16l-17 -6l-20 -10l-17 14l-10 16l-6 23l-31 117l-35 -103l-108 -246l-98 -96l-27 -10l-31 -2l-61 12 l-54 43l-40 39l-33 41l-13 47l-124 631l-13 39l-14 41q-16 37 -53 43l-125 -27h-4l-4 4zM485 244q8 -37 35 -58l47 31l37 57l101 199l12 39v45l-12 84q-7 37 -19 72l-41 -56l-156 -272v-86z" />
<glyph unicode="&#x195c;" horiz-adv-x="1693" d="M-49 516l4 8l20 35l15 23l18 24l45 51l25 25l18 16l17 15l30 20l33 19l17 6h22l16 -6l19 -9l35 -18l26 -20l29 -31l29 -37l18 -43l12 -35l11 -22q10 -43 12 -78l16 -64l19 -61l6 -31l16 -41l10 -18l11 -8l24 6l21 14l20 20l23 17l14 18l10 23l23 37l14 45l21 49l8 49 l10 55v-114l-10 -88l-4 -48l-8 -38l-17 -37l-12 -33l-31 -57l-37 -52l-43 -43l-53 -39l-29 -10l-24 6l-23 13l-20 10l-125 94l-47 74l-121 239l-6 15l-10 14l-15 10l-8 11l-14 10h-23l-20 2h-25l-8 4zM424 1251l2 13l12 20l23 43l10 25l23 22l24 27l39 8h45l27 -4l20 -8 l35 -25l21 -14l14 -23l14 -24l15 -23l18 -39l41 -100l72 -205l43 -113l22 -55l12 -33l7 -14l6 -10l6 2v12l2 10l14 99l4 45l13 47l6 27l10 22l27 49l24 41l17 17l14 18l20 10l19 8l18 9h19l20 -5l21 -6l20 -6l23 -12l10 -10l10 -6l14 -17l15 -18l16 -21l10 -39l15 -41 l20 -86l47 -172l54 -221l24 -121l4 -100v-117l-20 -166l-49 -221l-25 -90q-23 -94 -364 -602l94 258l94 250l55 229l21 189v104l-13 90l-32 111l-17 57l-10 29l-16 55l-4 16l-9 -38l-6 -37l-8 -62l-8 -28l-6 -31l-8 -25l-11 -22l-12 -25l-21 -33l-24 -24l-31 -29l-24 -22 l-19 -11l-18 -10h-23l-24 10l-23 15l-22 14l-35 41l-25 39l-92 186l-65 221l-41 97l-35 112l-72 179l-31 92l-18 49l-19 37l-14 28l-14 25l-19 23l-4 14l-10 10zM1010 569l4 -22l10 -64l14 -67l17 -47l6 -27l2 -10l8 -6l12 8l4 8l7 8l36 99l15 51l8 24l10 23l6 28l2 17v20 l-12 31l-10 39l-12 37l-7 39l-26 61q-20 58 -43 35l-6 -18l-8 -17l-13 -31l-14 -77l-6 -39v-43l-4 -41v-19z" />
<glyph unicode="&#x195d;" horiz-adv-x="1046" d="M-98 889l53 74l45 51l63 63l72 58l70 43h33l22 -21l45 -53l88 -182l84 110l29 72l-2 -2l37 69q41 60 88 70l43 -4l41 -18l41 -45l22 -29l17 -29l14 -35l10 -37l21 -75l32 -172l33 -301l-10 -121l-25 -68l-53 -61l-98 -31l-8 -8l-11 -6l-12 2l-10 6l-55 209l-70 -146 l-16 -53l-15 -67l-18 -60l-31 -53l-27 -25l-36 -14l-43 6l-17 6l-51 29l-45 57l-35 66l-35 67l-20 74l-15 76l-12 90l-51 332l-39 55l-51 33zM408 772l6 -41l6 -22l2 -25l4 -39v-33v-73l4 -101l6 -63l8 -58l13 -26l10 -8l18 4q31 27 58 63l43 78l30 100l-8 103l-35 198 l-24 91q-12 42 -43 67l-49 -72l-41 -86l-6 -24z" />
<glyph unicode="&#x195e;" horiz-adv-x="1673" d="M-35 776q2 43 23 84l41 49l59 35l137 19l51 -48l37 56l64 147l88 111q20 21 55 41l68 -13l55 -34q57 -84 80 -123l53 -156l86 -254l15 -31l22 25l31 68l35 86l28 55l37 51l31 35l24 22l23 15l37 14l26 8l33 -4l21 -6l20 -12l23 -15l35 -22l34 -23l21 -24l16 -31l15 -49 l12 -41l18 -37l15 -37l18 -43l6 -41l8 -43l2 -22v-25l-2 -18l-4 -25l-4 -33l-18 -34l-10 -19l-15 -12l-22 -12l-27 -15l-63 -12l-13 -12l-14 -2l-10 10l-11 16l-6 25l-4 26v27l-2 12l-4 19l-14 35l-15 39l-120 188q-20 29 -50 35l-24 -25l-27 -31l-31 -63l-30 -82l-15 -55 l43 -221l19 -154l14 -213l-28 -152q-35 -190 -111 -301l10 144l10 166l-30 174l-56 200l-88 248l-59 180l-74 189l-24 63l-15 33l-12 33l-16 22l-13 11l-8 10l-18 14l-21 15l-18 4h-15l-12 -4l-39 -64l-18 -35l-8 -18l-9 -21v-20q0 -16 17 -68l43 -102l16 -62l21 -61l10 -51 l6 -51l14 -84l5 -17l12 -16h6h8l19 10l8 6l10 8l16 19l13 14l6 19l14 34l17 56l36 108l-26 -190l-15 -66l-6 -32l-6 -29l-18 -35l-15 -27l-16 -28l-14 -21l-17 -14l-12 -10l-25 -8l-36 -13l-35 2l-21 13l-18 14l-37 31l-37 32l-35 35l-18 35l-17 43l-14 41l-12 39l-60 158 l-75 137l-56 35z" />
<glyph unicode="&#x195f;" horiz-adv-x="1712" d="M0 713l12 49l8 20l5 25l8 22l10 25l18 39l21 39l20 43l27 47l16 20l19 23l18 12l17 13l14 4l18 2l21 -11l22 -16l25 -27l63 -69l27 12l37 43l117 184l14 23l21 20l30 25l23 18l18 13h27l49 -25l59 -59l97 -123l120 -211l201 297l41 16l53 -6l43 -31l70 -79l100 -224 l7 -84l2 -41v-34l-15 -29l-14 -27l-33 -45l-35 -24l-26 -19l-17 -8h-16l-16 10l-17 17l-16 24l-45 119l-45 74l-23 37l-10 18l-10 20l-15 19l-12 18h-16l-13 -6l-14 -8l-16 -14l-19 -15l-16 -18l-8 -27l-4 -14l-3 -14l11 -31l12 -29l16 -51l11 -51l26 -103l25 -120l8 -95 l-16 -168l-70 -221l-94 -174l-191 -332l136 422l36 187l17 168l-10 108l-7 43l-10 41l-8 39l-14 78l-29 82l-49 94l-56 106l-63 99l-63 94l-60 66l-6 12l-10 10l-13 6l-10 2l-14 -4l-12 -6l-11 -6l-12 -10l-14 -27l-15 -25l-12 -24l-12 -29l-10 -24l-5 -27l-8 -27l-8 -22 l-14 -25l-17 -22l-12 -21l-14 -16l-21 -14l-20 -13l-27 -6l-20 -4l-27 -2h-25l-16 6l-16 10l-33 23l-37 18l-16 8l-13 5h-16l-10 -7l-10 -6l-11 -10l-8 -8l-6 -12l-8 -15l-8 -6l-13 -6z" />
<glyph unicode="&#x1960;" horiz-adv-x="1460" d="M-16 774l16 37l14 31l39 61l31 41l18 21l15 20l20 21l23 22l14 16l27 23l26 12l17 8l24 9l25 2l22 -2l23 -6l22 -11l46 -12l34 -20l27 -17l14 -6l11 -2l6 2l8 4l20 16l27 25l27 31l32 33l31 34l14 17l23 18l22 19l23 14l29 6l30 2l31 -2h31l31 -6l26 -8l35 -15l18 -10 l21 -18l16 -23l19 -28l16 -27l14 -27l11 -32l10 -33l20 -72l35 -139l72 -277l27 -75l16 -76l6 -47l2 -41l-8 -51l-10 -48l-9 -24l-10 -29l-12 -24l-31 -52l-31 -43l-43 -51l-38 -49l-84 -98l-95 -97l-88 -67l-102 -82l-102 -66l-121 -38l-131 -37l-99 -19l148 105l141 88 l96 84l76 92l57 74l82 127l70 108l18 33l13 33l6 24l4 39l4 33l-2 20l-2 23l-16 47l-4 12l-3 8l-4 9l-4 4l-6 -6l-4 -7l-10 -10l-10 -14l-11 -16l-8 -17l-12 -20l-12 -17l-15 -16l-14 -21l-19 -28l-14 -29l-8 -10l-12 -17l-17 -12l-20 -18l-13 -23l-14 -28l-12 -27l-8 -10 l-6 -6l-15 -7l-14 2l-33 5l-29 8l-26 12l-29 14l-18 21l-9 16l-4 17l-12 26l-20 62l-23 57l-8 33l-10 35l-2 18v18v19l2 14l4 21l8 16l10 16l12 21l13 18l24 13l21 6l41 8l39 12l20 4l21 9l12 10l8 8l21 23l20 26l19 17l16 12l20 10l35 25l39 22l16 12l19 13l10 14l6 12 l11 21l4 12v21l-2 14l-5 31l-8 20l-8 27l-12 45l-29 90l-12 25l-17 24l-16 25l-12 14l-10 8l-13 12l-12 9l-2 2l-6 -2l-12 -11l-21 -16l-22 -18l-23 -19l-18 -14l-7 -6l-10 -8l-6 -13l-10 -12l-8 -14l-7 -17l-4 -20l-2 -39l-4 -29l-4 -31l-6 -20l-6 -18l-6 -17l-9 -14 l-12 -15l-16 -20l-21 -12l-20 -13l-23 -10l-24 -10l-17 -6l-24 -4l-21 2l-24 2l-31 8l-31 12l-26 21l-25 16l-33 19l-30 14l-19 4l-18 4l-21 2l-16 -2l-10 -2l-15 -4l-24 -12zM664 434l2 -8l10 -8l8 -10l6 -11l6 -14l9 -21l4 -14l6 -12v-4l4 -2h4l6 4l21 18l36 31l33 27 l37 28l14 17l7 14l4 14l-2 21l-5 20q-45 66 -59 62l-18 -13l-19 -16l-16 -12l-21 -15l-18 -22l-21 -23l-22 -24l-10 -12l-4 -5z" />
<glyph unicode="&#x1961;" horiz-adv-x="1593" d="M-35 643l10 25l5 18l10 21l20 45l17 30l20 33l39 55l39 56l39 53l20 29l23 24l20 23l27 18l27 19l26 14l33 2l16 2l25 -4l22 -6l15 -6l16 -7l10 -14l13 -14l10 -17l8 -12l14 -35l7 -16l6 -27l4 -30l2 -21l2 -6l4 -10l4 -4l8 -2l11 6l12 10l18 12l17 19l22 26l23 23l22 26 l27 23l31 33l20 14l23 8l16 8l18 7l19 6l16 2l21 -2l22 -10l21 -17l22 -33l17 -41l39 -92l69 -202l31 -95l31 -98l12 -43l6 -14l2 -15l10 4l6 5l15 12l10 8l8 10l21 33l10 12l4 21l4 14l-2 21v34l-92 277l-47 141l-10 33l-11 33l-8 20l-12 15l-10 12l-6 8v12l4 11l8 12 l16 22l19 23l16 18l33 27q36 29 59 37h15l20 -2l27 -17l20 -24l12 -33l21 -65l90 -248l74 -236l14 -59l10 -58l6 -49l5 -43l-11 -73l-4 -37l-8 -33l-8 -45l-12 -43l-31 -76l-17 -41l-14 -33l-20 -43l-17 -41l-20 -41l-11 -20l-10 -14l-10 -23l-12 -16l-21 -35l-24 -35 l-13 -16l-24 -29l-21 -27l-32 -34l-35 -35l-19 -21l-20 -22l-27 -23l-31 -33l-30 -26l-21 -17l-26 -16l-35 -14l-53 -17l-82 -16l73 57l35 27l17 16l10 6l12 13l10 14l13 16l22 29l19 29l20 31l19 34l24 37l19 33l24 45l14 25l21 39l18 38l17 35l14 31l12 33l15 35l12 32 l20 66l13 37l14 39l6 39l8 34v17q-8 90 -34 108l-15 -37l-12 -26l-18 -33l-11 -14l-24 -29l-35 -35l-21 -16l-20 -17l-29 -12l-18 -8h-23l-20 8l-29 19l-18 16l-25 27l-14 26l-17 29l-30 61l-17 49l-14 54l-35 100l-53 176l-12 31l-15 31l-8 16l-4 2l-8 6h-8l-15 -6l-10 -6 l-20 -21l-13 -10l-14 -12l-31 -39l-65 -78l-33 -45l-14 -10l-15 -19l-22 -16l-13 -4l-24 -8l-25 4l-35 4l-26 8l-27 12l-22 19l-27 18l-53 41l-27 13l-10 8h-8l-15 -4l-12 -9l-26 -20l-31 -25l-31 -24z" />
<glyph unicode="&#x1962;" horiz-adv-x="1374" d="M-6 692l4 25l2 18l16 53l37 142l31 117l31 96l32 80l25 49l45 51l35 43l35 -8l30 -68l15 -61l18 -72l35 -72l64 -151l57 -156l29 -100l10 -33l18 -27l6 -12l6 -8h5l2 4l10 16l4 13l4 10l6 16l2 15l8 33l7 30l8 33l14 66l8 30l9 29l8 29l8 20l14 47l25 68l41 94l41 49 l45 35l28 10h33l39 -8l37 -10l43 -45l43 -84l39 -90l43 -152l49 -207l78 -387l4 -72l-4 -61l-19 -57l-30 -37l-27 -27l-29 -16l-34 -19l-31 -14l-39 14l-23 76l-24 105l-86 370l-39 156l-41 123l-20 49l-21 57l-14 17l-11 14l-14 8l-8 4l-8 2l-4 -2l-9 -4l-6 -10l-10 -14 l-10 -19l-8 -20l-6 -17l-7 -18l-6 -25l-4 -24l-4 -33l-4 -31l-2 -24l-27 -185l-12 -84l-6 -45l-6 -41l-6 -45l-13 -53l-10 -47l-6 -27l-8 -24l-9 -29l-12 -29l-24 -34l-11 -13l-18 -16l-23 -16l-28 -17l-23 -8h-20l-27 2l-27 18l-24 25l-19 18l-16 21l-12 20l-10 27l-11 29 l-12 24l-8 31l-8 33l-17 63l-30 127l-33 127l-17 62l-8 30l-8 25l-6 16l-6 9l-6 10l-7 6l-6 2l-8 -6l-8 -12l-8 -7l-6 -8l-17 -16l-10 -10l-12 -11l-13 -4h-8l-6 4l-2 11l-2 10z" />
<glyph unicode="&#x1963;" horiz-adv-x="591" d="M-186 1874l36 55l23 56l12 40l2 39l4 29l-2 23q18 114 168 149h25l29 -4l22 -8l25 -12l22 -15l15 -12l12 -16l24 -33l35 -72l49 -147l52 -234l39 -211l18 -305l4 -174l-2 -172l-12 -291l-17 -174l-41 -219l-45 -139l-22 -19l-25 -8l-24 -2l-19 4l-18 10l-15 11l-8 16 l2 18l4 23l4 20l3 23l14 113l-2 104v324l-8 229l-9 182l-12 211l-20 215l-35 197l-53 137l-41 84l-11 14l-8 13l-6 2l-6 2l-10 -4l-21 -17l-18 -10l-17 -10l-24 -11l-31 -10z" />
<glyph unicode="&#x1964;" horiz-adv-x="1366" d="M8 1896l12 66l58 84l53 59l45 56l47 41l33 34l14 21l21 16l39 17l30 12l33 4l25 -2l28 -2l58 -4l47 -23l61 -45l25 -43l31 -63l37 -70l34 -63l144 -453l141 -471l6 -4q35 4 70 22l65 25l-116 -111l18 -86l55 -247l41 -228l4 -102l-2 -23l-4 -22l-4 -23l-6 -26l-10 -21 l-13 -18l-24 -37l-23 -23l-14 -16l-35 -29l-35 -20l-28 -21l-41 -26l-21 -11l-33 -12l-36 -6l-50 -2l-102 10l-108 35l-84 57l-29 21l-25 20l-18 21l-23 35l-22 34q-8 -45 -19 -69l-6 -25l-6 -12l-10 -12l-21 -9l-47 -16l-35 -14l-14 -6l-16 -2l-13 8l-12 14l-4 10l-2 11 l6 10l17 24l14 27l12 33l8 37l4 37l15 73l26 127l29 221l12 127v152l-26 162l-35 121l-72 237l-112 270l-23 41l-22 41zM125 1911l2 -19l4 -14l12 -31l52 -143l79 -191l84 -221l43 -133l41 -131l23 -98l8 -109l4 -92v-117l2 -71l-2 -60l19 27l22 33l31 43l33 49l32 43l35 49 l17 27l8 14l6 6l2 6l41 78l-158 563l-71 185l-125 280l-29 39l-16 21l-25 28q-35 33 -70 37l-10 -2l-10 -6l-6 -4l-23 -15l-35 -43l-10 -12l-8 -10zM526 313l4 -10l5 -16l4 -11l8 -14l10 -14l8 -12l27 -27l22 -21l33 -18l33 -14l25 -6l20 4l14 8l21 4l24 6l27 18l27 19 l30 29l19 41l18 73l-8 33l-14 33l-29 96l-57 129q-33 136 -105 23l-10 -17l-8 -14l-21 -37l-18 -33l-21 -35l-43 -67l-12 -23l-16 -26l-6 -21l-2 -22l-3 -23l-2 -22z" />
<glyph unicode="&#x1965;" horiz-adv-x="1325" d="M2 2021v9l14 10l17 6l14 4l19 2l20 -2l18 -8l21 -6l8 -2l10 -6l11 12l10 12l10 12l14 13l29 20l29 19l30 22l25 19l29 28l24 23q113 68 138 80l22 6l25 2l24 -2l21 -6l61 -43l33 -23l37 -29l22 -43l33 -51l14 -108l70 -224l55 -229l207 -874l66 -459l-11 -115l-45 -80 l-55 -24l-57 -31l-45 -16l-39 6l-58 37q-39 14 -61 49l-2 71l-115 748l-110 512l-105 387l-59 133l-31 25l-12 12l-8 2l-7 4l-8 -2l-10 -2l-14 -8l-17 -8l-24 -17l-21 -20l-12 -17l-2 -4l-8 -10v-12l4 -15l6 -26l10 -53l154 -521l41 -139l35 -164l32 -139l29 -182l23 -166 v-117l-37 -110l-45 -101l-39 -45l-21 -20l-14 -17l-41 -16l-39 -12l-25 -11l-22 -10h-12h-17l-8 10l-6 13l-8 16l-6 6v10l4 13l2 14l12 33l43 90l35 119l8 145l-20 217l-37 268l-62 312l-137 520l-47 141l-21 72l-10 33l-6 18z" />
<glyph unicode="&#x1966;" horiz-adv-x="907" d="M0 1690l39 102l65 74l76 53l72 51l90 33l66 -6l98 -33l65 -72l31 -98l100 -551l74 -461l41 -315l4 -205l6 -59l2 -31l-6 -41l-10 -41l-90 -184l-70 -103l-82 -114l-129 -92l-223 -99l193 207l75 127l29 117l14 114l15 64l4 66l-2 61l-12 96l-33 289l-37 211l-51 283 l-82 407l-31 100l-16 50l-9 24l-10 23l-14 10l-16 10l-31 8h-12l-11 -6l-22 -14l-17 -8l-14 -13l-8 -22l-6 -19v-26l18 -203l31 -164l55 -334l35 -208l10 -170l23 -220l26 -147l-6 -70q-53 -72 -96 -86l-96 -18l-37 10l33 47l22 103l4 235l-24 340l-56 410l-49 387z" />
<glyph unicode="&#x1967;" horiz-adv-x="907" d="M8 -434l2 8l8 8l11 8l28 21l31 20l27 17l35 14l20 6h23l24 -4l27 -10l35 -25l36 -32l21 -29l16 -31l37 -55l10 -14l17 -13l10 -4l8 2l23 17l32 24l35 27l31 24l53 47l47 56l-37 43l-47 73l-47 125l-245 1008l-35 111l-21 55l-4 16l-16 33l-23 31l-26 22l-17 13l-8 8 l-2 10l2 8l6 10l8 15l11 8l20 12l25 13l96 47l33 14l24 4l21 2l30 -2l21 -4l14 -8l15 -15l4 -12l16 -28l43 -138l39 -190l23 -119l174 -784l28 -144l13 -28l8 -11l18 17l96 143l52 51l-29 -57l31 8l-140 -209l21 -63l45 -47l43 -47l137 -68l86 -23l119 -12l213 27l129 55 l180 113l152 153l127 174l53 125l-63 -180l-78 -135l-92 -111l-211 -178l-103 -59l-49 -27l-25 -12l-22 -10l-29 -9l-24 -4l-54 -8l-53 -8l-51 -8h-82l-74 6l-45 4l-47 4l-67 10l-45 21l-29 18l-62 37l-30 19l-31 20l-61 37l-21 -33l-37 -47l-84 -84l-51 -49l-43 -41 l-43 -37l-18 -6l-19 -8l-33 -4h-34l-37 10l-37 10l-62 39l-38 37l-39 37l-39 39l-21 18l-20 23l-15 24l-8 15v10z" />
<glyph unicode="&#x1968;" horiz-adv-x="696" d="M0 1147v8l4 8l8 6l8 5l23 10l45 22q88 48 139 66l35 -4l31 -6l16 -15l17 -18l32 -101l23 -106l27 -236l106 -731l18 -123l27 -163l57 -150l58 -76l76 -63l100 -43l117 -12l157 8l136 55l161 113l150 151l121 172l49 113l-23 -72l-63 -155l-64 -99l-207 -229l-165 -113 l-95 -35l-110 -20l-121 -2l-84 6l-76 20l-155 89l-76 65l-66 80l-49 76l-43 114l-27 129l-22 136l-51 266l-99 532l-28 113l-17 53l-8 29l-16 37l-25 24l-18 21l-19 16l-8 17z" />
<glyph unicode="&#x1969;" horiz-adv-x="1144" d="M18 1167l7 17l12 12l22 14l78 25l82 22l53 3h37l35 -7l35 -16l35 -23l45 -77l76 -172l36 -193l4 -96l15 -133l-4 -84l10 -156l12 -158l-8 -223l6 -250l88 -184l15 -14l20 -15l12 -4l21 -2l10 6l16 11l33 24l47 60l27 30l25 45l10 31l8 47l-197 928l-153 913l151 -352 l117 -362l57 -271l111 -612l20 -88l15 -62l6 -26v-47l-8 -50l-8 -32l-11 -29l-22 -49l-19 -39l-55 -80l-49 -53l-25 -29l-24 -22l-33 -19l-31 -12l-67 -16l-39 -7l-45 7l-41 12l-31 12l-31 21l-30 16l-19 10l-16 19l-10 18l-13 35l-30 65l-175 1059l-14 154l-92 350l-14 12 l-13 15l-14 14l-12 10l-31 23l-16 10z" />
<glyph unicode="&#x196a;" horiz-adv-x="1044" d="M-12 1829l2 8l2 8l6 13l8 8l8 6l15 8l10 2l24 8l117 64l64 26l147 31l82 8l14 2h15l16 -2l12 -10l31 -18l29 -17l22 -14l13 -18l4 -15l6 -26l14 -56l23 -159l12 -134l172 -1402l23 -191l18 -86l6 -43l23 -70l22 -67l31 -41l31 -43l24 -21l23 -16l69 -29l68 -26l156 2 l192 45l109 67l141 140l104 186l70 197l-27 -156l-59 -150l-113 -172l-96 -116l-90 -68l-98 -67l-146 -74l-188 -37l-92 12l-66 17l-67 14l-109 35l-74 53l-69 88l-76 152l-37 170l-35 208l-41 322l-28 186l-156 -14l-55 -37l-123 -90l-25 -20l-16 -7l-12 -6l-17 4l-20 9 l-15 12l-4 6v8l2 8l6 7l9 4l6 2l8 2h6l19 24l8 13l10 14l2 8l6 14l8 43l4 74l-34 463l-15 164zM141 1817l15 -105l41 -332l18 -149l4 -391l23 -135l10 -19l129 10l37 45l-31 406l-33 246l-41 438l-10 6l-10 4l-14 6l-17 4l-14 4l-74 -14l-16 -10l-11 -4z" />
<glyph unicode="&#x196b;" horiz-adv-x="1034" d="M35 1665l2 27l-2 16l2 12l12 15l12 14l134 78l108 59l84 17l47 6l33 6l35 4l18 -2l23 -2l14 -8l18 -9l33 -18l51 -53l99 -543l61 -313l70 -375l63 -358l31 -134l12 -86l25 -108l33 -111l45 -63l51 -39l51 -41l74 -31l43 -14l43 -8l43 2l43 4l166 31l100 57l162 125l45 74 l96 221l8 -21l-30 -88l-70 -196l-104 -150l-140 -121l-161 -86l-123 -28l-64 -15l-57 -8h-72l-143 14l-84 33l-66 53l-84 60l-67 80l-66 118l-39 117l-43 191l-47 227l-65 340l-74 483l-94 457l-23 43l-12 20l-14 13l-13 2h-6h-12l-14 -8l-13 -7l-6 -10v-10v-68l156 -1167 l-8 -10l-11 -8l-8 -11l-12 -6h-8l-72 -18l-25 10l-22 6l-19 8l-14 15l-6 12l4 10l4 15l14 22v96l-18 170z" />
<glyph unicode="&#x196c;" horiz-adv-x="393" d="M-4 1325l16 119l31 106l80 127l100 107l76 61l121 76l143 57l92 29l99 10l129 -26l108 -47l111 -99l84 -125l16 -59l-4 -53l-27 -54l-24 -53l-107 -180l-106 -170l-37 -49l8 31l8 41l13 61l22 123l8 49l9 47l8 37l6 33l4 26l2 27v22l-2 19l-4 14l-6 15l-12 22l-21 27 l-31 37l-88 75l-110 37l-105 -2l-117 -45l-127 -74l-65 -77l-43 -70l-37 -104l-6 -101l4 -119l-20 -202l24 -633l17 -146l-13 -82l2 -55l-14 -53l-23 -35l-18 -43l-31 -6l-26 12l-31 37l-33 154l-10 172l-39 876z" />
<glyph unicode="&#x196d;" horiz-adv-x="1701" d="M-31 799l43 73l64 115l45 70l49 41l68 16l69 4l66 -14l24 -17l27 -18l37 -45l20 -25l19 -22l22 -4l17 2l18 6l57 68l33 32l15 17l18 22l14 21l15 22l32 51l23 35l45 19l43 2l43 -15l53 -36l49 -84l52 -101l47 -121l20 -63l8 -51l11 -49l34 -203l39 -55h95l65 36l23 70 l4 74l-31 159l-31 162l-47 107l-33 43l-43 26l-4 39v45l23 33l39 23l45 -6l55 -25l25 -49l43 -103l69 -274l39 -270l4 -109l-12 -67l-31 -41l-45 -35l-76 -45l-102 10l-78 18l-28 -14l-9 -82l-20 -84l-35 -113l-78 -161l-82 -121l-143 -156l-272 -194l65 86l150 176l94 153 l51 150l35 176l16 102l8 125l-6 103l-22 131l-37 141l-45 133l-47 107l-35 63l-16 8l-5 5l-10 2l-12 -5l-12 -2l-43 -36l-45 -56l-21 -26l-22 -31l-11 -27l-10 -30l-10 -29l-10 -29l-17 -30l-18 -33l-19 -19l-20 -18l-31 -10l-33 -2l-39 -4l-34 4l-25 8l-43 26l-80 45 l-41 23l-20 10l-19 13l-16 8l-16 -2l-13 2l-33 -19l-18 -6l-6 -6l-10 2l-9 6l-6 8z" />
<glyph unicode="&#x1970;" horiz-adv-x="1888" d="M0 43l6 10l8 6l25 11l96 110l84 94l72 103l74 141l20 78l10 78l-8 71l-2 37l-6 23l-14 29l-21 14l-45 -21l-47 -20l-57 -8l-54 20l-39 35l-30 74l-9 90l5 72l26 63l27 45l43 29l37 6l49 -10l49 -29l39 -33l31 -37l26 -47l23 -43l24 2l33 13l109 98l45 33l33 24l38 29 l43 10l29 -4l27 -6l16 -16l10 -29l47 -178l52 -324l26 -119l23 -108l24 -72l29 -39l49 12l86 50l107 100l43 41l84 113l20 51l19 12l2 -29l-39 -127l-119 -239l-66 -82l-71 -57l-80 -62l-84 -25l-86 -6l-55 13l-88 51l-68 69l-29 46l-37 98l-24 127l-19 112l-6 242l-10 64 l-10 24h-21l-35 -35l-24 -41l16 -133l2 -59l-10 -92l-20 -94l-78 -170l-82 -119l-98 -105l-123 -80l-19 -6l-14 2l-16 4l-17 11zM227 1034l25 -14l18 -2l17 24q8 35 -35 43l-21 -22z" />
<glyph unicode="&#x1971;" horiz-adv-x="1705" d="M6 635v94l8 84l23 76l55 86l60 69l79 58l70 41l57 18l62 10l74 3l94 -9l78 -28l53 -43l37 -56l22 -69l10 -84l-2 -82l-10 -82l-39 -100l-63 -101l-103 -92l-116 -63l32 -60l62 -37l217 -63l94 -8l148 16l71 27l92 59l156 131l-188 -227l-142 -109l-155 -63l-97 -21 l-114 -18l-90 4l-97 14l-100 27l-84 49l-63 53l-72 66h-21l-57 -31l-39 19l15 24l69 64l-57 190zM344 639l10 -72l19 -57l69 82l50 92l26 78l14 63l-2 45l-4 43l-37 19l-61 -19l-37 -36q-33 -47 -39 -109l-6 -72z" />
<glyph unicode="&#x1972;" horiz-adv-x="1789" d="M8 586v88l12 104l19 92l31 72l41 62l77 71l76 41l58 23l67 8l94 -6l29 2l33 10l28 25l72 73l64 33l45 -10l30 -31l7 -63l-9 -41l-6 -39l-4 -64l4 -71l4 -68l17 -86l24 -98l45 -156l39 -106l51 -91l56 -36l67 -5l117 66l227 168l-211 -291l-104 -123l-64 -51l-112 -35 l-86 6l-60 17l-59 39l-47 75l-27 -20l-26 -20l-144 -97l-104 -37l-62 2l-73 21l-56 47l-51 61l-53 101l-43 102l-25 119zM213 621l12 -93l31 -116l20 -50l23 -49l35 -26l47 -19h61l43 4l74 29l41 45l-37 219l-35 215l-8 131q-8 60 -61 60l-103 -33l-67 -59l-56 -78l-20 -109 v-71z" />
<glyph unicode="&#x1973;" horiz-adv-x="1705" d="M-39 885v8l4 12l4 8l43 33l78 47l55 37l74 43l43 17l55 4l58 -15l69 -45l52 -67l41 -80l143 -547l47 -72l45 -22l55 12l58 39l53 61l-45 72l-59 62l-70 98l-62 119l-22 98l-6 117l2 80l14 86l25 81l45 74l31 21l49 18h49l49 -8l63 -43q51 -33 74 -74l35 -53 q37 -49 59 -154l21 -123v-96l-14 -145l-25 -117l-31 -106l-39 -70l-41 -72l-61 -55l-72 -47l-73 -43l-64 -37l-80 -31l-76 -6l-86 19l-98 51l-55 55l-43 68l-43 84l-64 170l-69 274l-23 82l-27 47l-24 20h-102l-9 3zM858 858l16 -96l19 -70l61 -108l27 -21l31 4l28 51l19 68 v70l-12 63l-13 66l-33 63l-34 51q-18 23 -47 35l-25 -10l-21 -35l-10 -65z" />
<glyph unicode="&#x1974;" horiz-adv-x="1595" d="M6 512v68l10 75l35 107l41 96l53 90l52 68l79 82l66 47l82 20l65 6l58 -16l80 -41l47 -43l41 -53l-10 -33l-58 -22h-65l-66 -19l-55 -24l-45 -33l-41 -56l-33 -55l-45 -78l-16 -88l-31 -123l35 -131l80 -96l172 -27l151 -2h113l112 23l113 68q342 315 -12 -84l-88 -84 l-72 -39l-80 -35l-96 -35l-94 -18l-189 -25l-106 8l-66 27l-65 49l-66 78l-33 51l-22 66l-19 77l-8 72z" />
<glyph unicode="&#x2000;" horiz-adv-x="1153" />
<glyph unicode="&#x2001;" horiz-adv-x="2306" />
<glyph unicode="&#x2002;" horiz-adv-x="1153" />
<glyph unicode="&#x2003;" horiz-adv-x="2306" />
<glyph unicode="&#x2004;" horiz-adv-x="768" />
<glyph unicode="&#x2005;" horiz-adv-x="576" />
<glyph unicode="&#x2006;" horiz-adv-x="384" />
<glyph unicode="&#x2007;" horiz-adv-x="384" />
<glyph unicode="&#x2008;" horiz-adv-x="288" />
<glyph unicode="&#x2009;" horiz-adv-x="461" />
<glyph unicode="&#x200a;" horiz-adv-x="256" />
<glyph unicode="&#x200b;" />
<glyph unicode="&#x200c;" d="M-37 -408v2157h74v-2157h-74z" />
<glyph unicode="&#x200d;" d="M-219 1364l172 170l-172 168l49 47l170 -170l170 170l49 -47l-172 -168l172 -170l-49 -49l-133 135v-1858h-74v1858l-133 -135z" />
<glyph unicode="&#x200e;" d="M-37 -408v1979h338l-135 131l47 47l217 -213l-217 -215l-47 49l135 129h-264v-1907h-74z" />
<glyph unicode="&#x200f;" d="M-430 1536l217 213l47 -47l-135 -131h338v-1979h-74v1907h-264l135 -129l-47 -49z" />
<glyph unicode="&#x2010;" horiz-adv-x="630" d="M41 436l45 213l475 146l8 -299z" />
<glyph unicode="&#x2011;" horiz-adv-x="630" d="M41 436l45 213l475 146l8 -299z" />
<glyph unicode="&#x2012;" horiz-adv-x="1103" d="M90 506v129h924v-129h-924z" />
<glyph unicode="&#x2013;" horiz-adv-x="1138" d="M-4 459v143h1139v-143h-1139z" />
<glyph unicode="&#x2014;" horiz-adv-x="2048" d="M0 459v143h2048v-143h-2048z" />
<glyph unicode="&#x2015;" horiz-adv-x="2048" d="M0 506v129h2048v-129h-2048z" />
<glyph unicode="&#x2018;" horiz-adv-x="454" d="M127 952v146q0 53 5 96t15.5 80t24.5 69.5t35 65.5h121q-45 -66 -70 -131.5t-25 -130.5h89v-195h-195z" />
<glyph unicode="&#x2019;" horiz-adv-x="454" d="M127 952q45 66 69.5 131.5t24.5 128.5h-88v197h195v-145q0 -53 -4.5 -96.5t-14.5 -80t-24.5 -70.5t-34.5 -65h-123z" />
<glyph unicode="&#x201a;" horiz-adv-x="454" d="M127 -262q45 66 69.5 131t24.5 131h-88v195h195v-144q0 -53 -4.5 -96t-14.5 -81t-24.5 -70.5t-34.5 -65.5h-123z" />
<glyph unicode="&#x201c;" horiz-adv-x="681" d="M74 952v146q0 53 5 96t15 80t24.5 69.5t35.5 65.5h120q-45 -66 -69.5 -131.5t-24.5 -130.5h88v-195h-194zM406 952v146q0 53 5 96t14 80t23.5 69.5t34.5 65.5h123q-45 -66 -69.5 -131.5t-24.5 -130.5h88v-195h-194z" />
<glyph unicode="&#x201d;" horiz-adv-x="681" d="M74 952q45 66 69.5 131.5t24.5 130.5h-88v195h194v-145q0 -53 -4 -96.5t-14 -80t-24.5 -70.5t-34.5 -65h-123zM406 952q45 66 69.5 131.5t24.5 130.5h-88v195h194v-145q0 -53 -5 -96.5t-14 -80t-24.5 -70.5t-36.5 -65h-120z" />
<glyph unicode="&#x2022;" horiz-adv-x="716" d="M109 719q0 104 74.5 178t178.5 74t179 -74t75 -178q0 -106 -74.5 -180t-179.5 -74q-104 0 -178.5 74t-74.5 180z" />
<glyph unicode="&#x2026;" horiz-adv-x="2048" d="M236 0v254h213v-254h-213zM918 0v254h212v-254h-212zM1599 0v254h213v-254h-213z" />
<glyph unicode="&#x202f;" horiz-adv-x="461" />
<glyph unicode="&#x2039;" horiz-adv-x="819" d="M158 559v82l469 418v-191l-301 -268l301 -268v-191z" />
<glyph unicode="&#x203a;" horiz-adv-x="681" d="M92 72l264 458l-264 453h150l303 -446l-303 -465h-150z" />
<glyph unicode="&#x205f;" horiz-adv-x="576" />
<glyph unicode="&#x20ac;" horiz-adv-x="1138" d="M14 502l41 129h119q0 8 -1 30.5t-1 47.5q0 27 1 53t1 33h-160l41 127h129q14 123 50 217t98.5 159.5t148.5 98.5t201 33q98 0 171 -25t125 -69t83 -102t45 -126l-186 -14q-12 90 -74 140t-166 50q-68 0 -121 -19.5t-93 -63.5t-64.5 -111.5t-36.5 -167.5h446l-39 -127 h-414q-2 -16 -2 -40v-46v-41.5t2 -36.5h453l-39 -129h-405q10 -80 30.5 -149.5t59.5 -120t96 -78t137 -27.5q98 0 158.5 49t75.5 141l184 -14q-12 -68 -44 -127t-83 -102t-125 -68.5t-170 -25.5q-121 0 -209 38.5t-148.5 108.5t-95 165t-49.5 210h-170z" />
<glyph unicode="&#x2122;" horiz-adv-x="2048" d="M295 1399v94h518v-94h-203v-484h-114v484h-201zM926 915v578h172l174 -256l164 256h170v-578h-113v484l-195 -303h-55l-203 303v-484h-114z" />
<glyph unicode="&#x2212;" horiz-adv-x="681" d="M66 440v181h552v-181h-552z" />
<glyph unicode="&#x25cc;" horiz-adv-x="1349" d="M10 551q0 61 62 61q59 0 59 -61q0 -57 -59 -57q-61 0 -62 57zM49 354q0 25 18.5 43.5t43.5 18.5q63 0 63 -62q0 -25 -19.5 -43t-43.5 -18q-23 0 -42.5 19.5t-19.5 41.5zM49 760q0 23 19.5 42t42.5 19q25 0 44 -18.5t19 -42.5q0 -62 -63 -62q-61 0 -62 62zM166 203 q0 61 59 61q61 0 62 -61q0 -25 -18.5 -42.5t-43.5 -17.5q-59 0 -59 60zM166 911q0 59 59 60q25 0 43.5 -17.5t18.5 -42.5q-1 -61 -62 -61q-59 0 -59 61zM317 102q1 62 58 62q63 0 63 -62q0 -27 -19.5 -45t-43.5 -18q-23 0 -40.5 20.5t-17.5 42.5zM317 1012q0 23 17.5 43 t40.5 20q25 0 44 -18.5t19 -44.5q0 -62 -63 -62q-57 0 -58 62zM494 72q0 23 18 40t41 17q59 0 59 -57q0 -64 -59 -64t-59 64zM494 1047q0 63 59 63t59 -63q0 -58 -59 -58t-59 58zM686 102q1 62 64 62q57 0 57 -62q0 -23 -17.5 -43t-39.5 -20q-25 0 -44.5 18.5t-19.5 44.5z M686 1012q0 27 19.5 45t44.5 18q23 0 40 -20.5t17 -42.5q0 -62 -57 -62q-63 0 -64 62zM838 203q0 61 61 61q59 0 59 -61q0 -59 -59 -60q-25 0 -43 17.5t-18 42.5zM838 911q0 25 18 42.5t43 17.5q59 0 59 -60q0 -61 -59 -61q-61 0 -61 61zM950 354q1 62 64 62q25 0 43 -18.5 t18 -43.5q0 -23 -19.5 -42t-41.5 -19q-25 0 -44.5 18.5t-19.5 42.5zM950 760q0 25 19.5 43t44.5 18q23 0 42 -19.5t19 -41.5q0 -62 -61 -62q-63 0 -64 62zM993 551q0 61 60 61q61 0 61 -61q0 -57 -61 -57q-59 0 -60 57z" />
<glyph unicode="&#x25fc;" horiz-adv-x="1034" d="M0 0v1034h1034v-1034h-1034z" />
<glyph unicode="&#xa9e0;" horiz-adv-x="1343" d="M10 305q0 6 6 19q-6 0 -6 14q0 27 13 63q0 20 77 99q59 59 101 67l69 19q0 23 174 55q102 18 117 18q82 2 109 -4q45 -10 69 -59l27 -47q31 -59 31 -119q0 -74 -13 -129q-88 -121 -153 -121q-29 0 -49.5 35t-20.5 74q0 8 45 82q-6 2 -2 12q2 12 2 20q6 -10 6 9 q-2 41 -18 57q-4 4 -43 25q-16 23 -80 12q-121 -20 -156 -41q-8 -14 -57 -82q-25 -35 -25 -55q0 -96 111 -142q-14 0 74 -19.5t133 -19.5q201 0 295 158q4 -8 6 -8q14 0 35.5 71.5t21.5 100.5q0 111 -35 178q4 4 -6 29l-8 24q0 33 -80 117q-51 55 -63 49l-4 2 q-98 -152 -279 -151q-143 0 -164 33l-10 10q-8 -15 -35 -15q-84 0 -84 107q0 14 9 39q-8 16 8 76q27 92 102 88l74 28q104 43 215 41q367 -2 471 -364l20 -92q23 -111 23 -197q0 -315 -260 -393q-63 -68 -295 -68q-100 0 -164 39q0 -16 -18 -16q-27 0 -84 20 q-104 37 -136 58q-84 57 -83 163q0 14 -11 21q-2 2 -2 10zM301 891q0 -8 4 -29q29 4 35 4q14 0 47 -16t49 -16q68 0 189 98l-60 -4q-10 0 -28.5 -2t-28.5 -2h-76z" />
<glyph unicode="&#xa9e1;" horiz-adv-x="2287" d="M47 127v25q0 63 182 114q18 -63 119 -94q0 -4 20.5 -11t90 -17.5t159.5 -10.5q213 0 318 143l6 -6q18 0 40 64.5t22 93.5q0 109 -56 197l-18 30l-31 56l-102 88q-74 39 -162 51q12 -31 12 -72q0 -84 -67 -164l-218 -47q-104 20 -161 66q-72 53 -72 143l8 43v25.5t8 44.5 q23 82 111 82l78 26q43 16 112.5 26.5t167.5 10.5q395 0 510 -329l21 -91q23 -119 22 -184q0 -123 -39 -197q45 -51 93 -65h-15q14 -10 78 -21l166 -16q94 0 219 78q162 92 162 219q0 23 -98 268q-49 123 -275 123h-82l6 -67q0 -45 -55 -56q-16 -12 -29 -12q-92 0 -92 98 l2 37q0 10 2 25.5t11 44.5q27 82 106 82l78 26l104 27q47 14 95 14q23 0 63.5 -8t89.5 -33.5t88 -66.5q74 -70 109 -234l16 -82q27 -129 27 -184q0 -293 -285 -364q-57 -61 -315 -62l-72 -10q-35 0 -55 10l-68 21l-86 16q-104 29 -141 51l-84 -26q-70 -61 -320 -62 q-162 0 -223 35h-20h-52l-182 61zM369 817l92 -49l6 92q-37 -12 -55 -16q-23 -14 -43 -27z" />
<glyph unicode="&#xa9e2;" horiz-adv-x="2291" d="M47 127v25q0 63 184 114q18 -63 121 -94q0 -4 20.5 -11t90 -17.5t162.5 -10.5q215 0 321 143l6 -6q16 0 39 64.5t23 93.5q0 109 -56 197l-18 30l-33 56l-102 88q-102 55 -227 55q-113 0 -134 -6l-143 -29l6 -67q0 -47 -49 -47q0 -20 -39 -21q-90 0 -90 92l8 43v25.5 t10 44.5q23 82 111 82l80 26q43 16 113.5 26.5t169.5 10.5q399 0 516 -329l20 -91q23 -119 23 -184q0 -123 -41 -197q47 -51 94 -65h-14q14 -10 77 -21l168 -16q96 0 222 78q166 92 165 219q0 23 -100 268q-35 100 -182 121q-10 -49 -21 -72q-27 -72 -54.5 -87t-63.5 -15 q-33 0 -64 8t-43 13q-43 0 -68.5 25.5t-25.5 66.5q-4 16 -7 33.5t-1 29.5q0 10 2 25.5t10 44.5q27 82 108 82l78 26l107 27q47 14 94 14q23 0 63.5 -8t91 -33.5t91.5 -66.5q72 -70 108 -234l17 -82q26 -129 26 -184q0 -293 -286 -364q-59 -61 -320 -62l-74 -10q-35 0 -55 10 l-68 21l-88 16q-104 29 -143 51l-84 -26q-70 -61 -321 -62q-164 0 -226 35h-20h-53l-185 61zM1391 819l6 -67h26q64 34 50 67h-82z" />
<glyph unicode="&#xa9e3;" horiz-adv-x="2463" d="M41 270l6 17l-6 10l12 61q6 23 88 86q141 111 209 129q0 25 154 45l129 9q154 0 213 -97l26 -43q33 -49 33 -106q0 -43 -6 -59q-82 -88 -147 -89q-78 0 -78 46q0 18 24 53v26l7 9q0 74 -84 110q-12 14 -48 15q-25 0 -88 -8.5t-135 -45.5q-66 -94 -65 -147q0 -90 125 -129 l79 -19l146 -16q223 0 328 143l6 -6q16 4 38.5 68.5t22.5 85.5q0 102 -39 160l-6 26l-8 23q-2 41 -90 110q-55 47 -68 43q-119 -133 -311 -133q-156 0 -182 31l-9 10q-12 -14 -38 -14q-92 0 -93 98l7 33q-6 23 12 69q29 76 112 76l80 27q123 41 236 41q403 0 528 -336 q117 330 522 330q113 0 236 -41l80 -27q84 0 112 -76q18 -47 13 -69l6 -35q0 -96 -92 -96q-18 0 -26.5 5t-12.5 9q-41 2 -47 49l2 68l-142 28h-83q-133 0 -232 -53q-12 4 -67 -43q-84 -70 -91 -104l-8 -23l-6 -26q-39 -57 -39 -160q0 -20 22.5 -85t39.5 -69l6 6 q104 -143 327 -143l146 16l80 19q125 39 125 129q0 53 -66 147q-72 37 -135.5 45.5t-75.5 8.5h-18q-23 0 -41 -15q-84 -37 -84 -110l6 -9l4 -20q20 -47 20 -59q0 -45 -77 -46q-66 0 -148 89q-6 16 -6 59q0 57 33 106l26 43q59 96 213 97l129 -9q154 -20 154 -45 q68 -18 209 -129q82 -63 88 -86l12 -61l-6 -10l6 -17l-6 -12l-6 -14q0 -92 -94 -150q-20 -16 -150 -53l-92 -16q-16 0 -20 12q-68 -33 -178 -33q-256 0 -328 59q-174 43 -246 168q-33 -68 -90 -105.5t-150 -62.5q-72 -59 -327 -59q-111 0 -178 33q-4 -12 -21 -12l-92 16 q-129 37 -150 53q-94 57 -94 150l-6 14zM362 805l3 -27l38 2l54 -12q25 -14 53 -14q78 0 209 90l-66 -2l-32 -4l-33 -4h-84z" />
<glyph unicode="&#xa9e4;" horiz-adv-x="2271" d="M39 430q0 68 22 184l19 88q55 166 143 244t203 78q84 0 154.5 -10t115.5 -27l72 -26q82 0 106 -82q6 -25 7.5 -40.5t1.5 -29.5l8 -45q0 -92 -88 -92q-35 0 -35 20q-45 4 -45 49l6 68l-135 27q-14 4 -35.5 9t-38.5 5q-18 0 -47 -5t-31 -9q-25 -20 -49 -37l-98 -88 q-18 -29 -22.5 -39t-6.5 -17l-18 -30q-51 -88 -51 -199q0 -37 22 -92q18 -66 35 -66l6 8q98 -145 303 -145q86 0 162 12.5t85 17.5t9 9q51 16 85 46t42 63q-10 35 -13 68.5t-3 84.5q0 31 2 68t20 114l21 86q106 338 485 338q51 0 129 -20q41 -10 133 -45l74 -27 q78 0 104 -78q18 -49 13 -73l6 -33q0 -100 -86 -100q-16 0 -24.5 5t-12.5 9q-39 4 -43 51l2 68l-176 55h-78q-119 0 -215 -55q-12 4 -63 -43q-78 -72 -84 -107l-9 -24l-4 -27q-37 -57 -37 -164q0 -20 20.5 -87t37.5 -71l6 7q96 -147 303 -148l135 19l76 16q115 41 115 133 q0 55 -60 152q-68 37 -126 45t-69.5 8h-17.5q-23 0 -39 -12q-78 -39 -77 -113l6 -10l2 -21q20 -49 20 -61q0 -45 -71 -45q-61 0 -140 88q-4 18 -4 61q0 59 31 111l25 45q55 98 198 98l119 -10q143 -20 143 -45q63 -20 193 -133q78 -66 84 -88l10 -62l-6 -10q8 -18 -4 -45 q0 -96 -90 -154q-18 -18 -138 -55l-86 -16q-16 0 -18 12q-63 -33 -166 -33q-238 0 -303 62q-63 16 -115 51q-8 -15 -18 -21l-174 -61h-49h-21q-57 -35 -211 -35q-242 0 -305 61q-264 68 -264 367z" />
<glyph unicode="&#xa9e5;" horiz-adv-x="6" d="M-1339 1141q33 47 69 86q57 61 68 69q37 33 78 50q-119 123 -119 296q0 176 119.5 296t298.5 120q174 0 290 -121q45 -45 72 -98l-145 -94q-57 147 -221 147q-111 0 -179.5 -69.5t-68.5 -180.5q0 -55 46 -143t97 -115l82 9q31 4 64 4q137 0 264 -65.5t205 -178.5v-2 l-152 -96q-57 88 -186 133q-115 39 -234 26q-180 -18 -283 -151z" />
<glyph unicode="&#xa9e6;" horiz-adv-x="1071" d="M182 1333q-16 -55 76 -131q23 -20 49 31q17 33 31 92q51 131 90 211q86 168 203 365q35 41 -37 100q-27 23 -57 43q-53 -49 -197 -326q-82 -162 -115 -260zM436 1284q-14 -55 80 -123q25 -16 49 37q13 33 25 96q43 135 80 217q78 174 182 379q35 45 -41 97q-27 20 -59 36 q-51 -53 -179 -342q-80 -178 -104 -268z" />
<glyph unicode="&#xaa60;" horiz-adv-x="2353" d="M2 541q0 254 156.5 406.5t412.5 152.5q309 0 486 -262q174 262 483 262q252 0 410.5 -153.5t158.5 -405.5q0 -236 -167.5 -404t-403.5 -168l-106 15q-68 27 -58 137q-2 150 100.5 247t254.5 97q84 0 167 -39q43 63 43 115q0 168 -115.5 278.5t-283.5 110.5 q-174 0 -283.5 -107.5t-109.5 -281.5v-29h-8q-16 -307 -369 -504l-78 146q272 156 273 387q0 170 -112 279.5t-282 109.5q-172 0 -285.5 -108.5t-113.5 -280.5q0 -233 287 -387l-82 -148l-76 39q-299 154 -299 496zM1546 164q0 -4 4 -4q136 0 265 127q-37 18 -91 18 q-63 -2 -125 -61q-53 -53 -53 -80z" />
<glyph unicode="&#xaa61;" horiz-adv-x="2342" d="M47 494q4 61 4 92q0 299 303 370q92 57 332 58q59 0 133 -31l55 -22l62 -46q41 -41 53 -88l12 -45q12 25 39 64t70 74q145 119 399 118q156 0 265 -37l90 -30q39 0 102 -45q59 -51 68 -92q102 -223 102 -265l-6 -14q6 -16 6 -84v-133l-6 -82q-10 -98 -96 -154 q-41 -23 -156 -51q-57 -16 -96 -16q-8 6 -11.5 6t-7.5 4q-80 -35 -202 -35q-270 0 -342 62q-297 72 -297 364q0 76 14 135l-31 76q-86 115 -108 119l-160 86q-299 -51 -356 -147q-20 -84 -17 -119q-12 -74 47 -215q102 -98 154 -115l59 -61l-35 -150l-69 -51 q-41 6 -179.5 10t-164.5 55l-13 101l25 35l223 -31l-239 242q-12 10 -18.5 37.5t-6.5 50.5zM1098 432q0 -37 24 -92q23 -63 41 -64l6 7q111 -143 338 -144l160 19l156 37q29 16 53.5 40.5t39.5 46t15 201.5q0 209 -121 310l-149 59h-100q-143 0 -244 -55q-55 -51 -97 -97.5 t-51 -62.5q-72 -145 -71 -205z" />
<glyph unicode="&#xaa62;" horiz-adv-x="1361" d="M-10 963q0 -29 10 -56v-14l2 -891h137q76 96 228 324l116 -205q51 -92 164 -121q203 20 336 180t133 379q0 221 -131 377t-350 178v-180q145 -23 230 -124t85 -251q0 -166 -110 -278q-76 -78 -205 -99l-197 332q-6 8 -65 10q-61 4 -86 -4l-133 -237v540q55 4 87.5 43 t32.5 97q0 53 -37.5 94t-93.5 45h-10q-59 0 -101 -41t-42 -98z" />
<glyph unicode="&#xaa63;" horiz-adv-x="2289" d="M-4 563q0 240 163 397.5t402 157.5q309 0 467 -241q29 41 72 84q162 158 403 157q246 0 400.5 -156.5t154.5 -402.5t-155.5 -403.5t-399.5 -157.5q-315 0 -473 235q-20 -37 -61 -96q-68 -72 -176 -121l-39 43q-29 39 -43 109q-25 111 -25 199q0 252 219 399 q-16 27 -55 65q-113 113 -283 113q-174 0 -274 -94q-92 -86 -111 -176q-10 -49 -10 -86q0 -57 25 -80q37 10 75 10q106 0 182 -75.5t76 -182.5q0 -109 -74.5 -184.5t-183.5 -75.5q-123 0 -215 131l140 80q47 -39 73 -39q88 0 88 86q0 88 -88 88q-20 0 -59 -6t-55 -6 q-88 -4 -131 92q-29 66 -29 137zM829 346q0 -94 15 -80q76 72 98 211q14 82 10 119q-123 -92 -123 -250zM1112 631q-35 -246 137 -379q106 -86 254 -86q166 0 277.5 112.5t111.5 280.5t-110.5 279.5t-278.5 111.5q-145 0 -257.5 -89t-133.5 -230z" />
<glyph unicode="&#xaa64;" horiz-adv-x="2289" d="M6 569q0 303 264 478q70 45 125 45q102 0 160 -78q53 -70 53 -176q0 -100 -53 -203q-102 -197 -352 -213q98 -246 358 -246q141 0 245.5 83t133.5 220q16 76 0 160q-18 92 -92 180t-162 125l117 125l49 -25q115 -57 182 -157q25 35 66 74q162 158 403 157 q246 0 400.5 -156.5t154.5 -402.5t-155.5 -403.5t-399.5 -157.5q-250 0 -407 156q-41 39 -72 88q-29 -45 -61 -78q-152 -156 -402 -156q-246 0 -400.5 157t-154.5 404zM172 555q127 0 221 96q20 20 39 80q17 53 17 88q0 98 -50 99q-8 0 -22 -11q-205 -141 -205 -338v-14z M1110 485q20 -143 133 -231t260 -88q166 0 277.5 112.5t111.5 280.5t-110.5 279.5t-278.5 111.5q-170 0 -282 -110q-139 -137 -111 -355z" />
<glyph unicode="&#xaa65;" horiz-adv-x="2349" d="M-4 -438v-148q0 -137 84 -198q100 -72 340 -62h594q129 0 129 139v1276q0 158 111.5 269.5t269.5 111.5q160 0 270.5 -110.5t110.5 -270.5q0 -162 -109.5 -271.5t-271.5 -109.5l-13 -8l13 -182q236 0 403.5 168t167.5 403q0 236 -168 404t-403 168q-236 0 -404 -168 q-18 -18 -73 -107q-66 115 -195 178l-49 25l-117 -125q106 -45 185 -153.5t79 -221.5q0 -168 -110.5 -280.5t-278.5 -112.5q-174 0 -285.5 109.5t-111.5 283.5q0 109 55 203q53 -53 127 -53t126 52t52 126t-52 126t-126 52q-12 0 -22 -2l-2 2l-7 -4q-70 -12 -112 -67 q-207 -158 -207 -435q0 -252 156.5 -407.5t408.5 -155.5q240 0 391 148v-4v-697q0 -119 -143 -119h-389q-246 8 -246 78v150h-178z" />
<glyph unicode="&#xaa66;" horiz-adv-x="2338" d="M47 344v135q0 70 6 86l-6 15q0 43 100 270q8 43 66 94q61 45 100 45l88 31q45 18 111 28.5t147 10.5q355 0 498 -260l12 45q14 49 52 90l59 45l55 25q72 31 131 30q233 0 324 -59q297 -72 297 -377q0 -111 -21 -184l-88 -264q-63 -117 -252 -156l-69 51l-33 154l57 61 q25 12 78 53q37 27 74 66q59 141 45 219q2 35 -16 121q-57 96 -349 149l-157 -88q-20 -2 -105 -121l-30 -75q14 -63 14 -140q0 -297 -291 -370q-70 -63 -334 -64q-121 0 -198 35q-12 -10 -19 -10q-25 0 -52.5 7t-41.5 11q-113 27 -152 51q-86 55 -94 156zM248 494 q0 -184 12 -201q27 -39 46.5 -58.5t45.5 -35.5l152 -39l158 -17q221 0 331 146l6 -6q18 0 39 65q25 55 25 94q0 57 -70 207q-16 29 -48 65t-97 99q-98 55 -238 55h-100l-145 -59q-117 -104 -117 -315zM494 508q-1 61 28 100q18 31 47 45.5t64 14.5q53 0 88 -35 q51 -45 51 -125q0 -59 -31 -98q-43 -61 -112 -62q-51 0 -84 35q-29 20 -40 53t-11 72z" />
<glyph unicode="&#xaa67;" horiz-adv-x="2340" d="M47 354v140q0 72 6 88l-6 14q0 43 105 278q8 43 67 97q63 45 105 45l90 33q47 18 114.5 28t151.5 10q367 0 514 -266l12 45q16 51 54 92l63 48l55 24q76 33 135 33q242 0 336 -62q307 -74 308 -387q0 -115 -23 -188l-90 -270q-66 -121 -260 -160l-10 2l-109 -6 q-348 0 -526 155q-59 -41 -164 -69q-72 -66 -344 -66q-127 0 -207 37q-12 -10 -21 -10q-25 0 -52 7t-44 9q-117 29 -155 54q-88 57 -99 159zM254 508q0 -188 12 -207q29 -39 49.5 -58.5t49.5 -37.5l155 -39l164 -19q227 0 342 150l6 -6q18 0 39 67q27 57 27 97q0 59 -72 213 q-16 29 -49 65.5t-103 102.5q-100 55 -243 55h-105l-149 -60q-123 -106 -123 -323zM506 496q0 59 37 100t96 41t100 -41t41 -100q0 -57 -42 -95.5t-99 -38.5q-55 0 -94 39t-39 95zM1247 305q207 -164 301 -164t254 125l90 125q63 145 47 223q4 35 -14 125q-59 98 -360 152 l-164 -88q-23 -4 -109 -125l-32 -78q16 -63 16 -141z" />
<glyph unicode="&#xaa68;" horiz-adv-x="2342" d="M47 350v139q0 70 6 89l-6 14q0 41 100 274q10 43 68 97q61 45 100 45l88 32q47 18 113 28.5t148 10.5q356 0 499 -264l13 45q16 49 53 92l61 45l53 25q74 33 132 33q240 0 333 -58q299 -78 299 -389q0 -119 -24 -186l-86 -266q-63 -123 -252 -162l-229 45q-63 76 -64 170 q0 18 4 42.5t10.5 49.5t47 75t74.5 70.5t73 20.5q61 0 129 -39q20 -10 57 -41q31 78 43.5 132t5.5 89q4 39 -14 129q-43 63 -166 103q-68 20 -105.5 29.5t-86.5 15.5l-158 -88q-23 -4 -106 -125l-31 -78q14 -63 14 -141q0 -303 -293 -377q-70 -63 -336 -64q-121 0 -200 35 q-12 -10 -19 -10q-25 0 -52.5 7t-41.5 9q-113 29 -154 53q-86 57 -94 160zM248 504q0 -188 12 -207q29 -39 48.5 -58.5t47.5 -35.5l152 -39l160 -19q221 0 331 150l7 -8q18 0 38 67q25 57 25 97q0 59 -70 211q-14 29 -46.5 65.5t-100.5 99.5q-96 57 -238 58h-100l-147 -60 q-119 -106 -119 -321zM506 516q0 59 37 100t96 41t100 -41t41 -100q0 -57 -42 -95t-99 -38q-55 0 -94 39t-39 94zM1636 297l4 -90l95 45q-31 18 -62 35q-12 4 -37 10z" />
<glyph unicode="&#xaa69;" horiz-adv-x="2330" d="M47 332v129q0 68 6 84l-6 14q0 39 94 258q10 41 64 90q59 43 96 43l84 31q43 16 105.5 26.5t140.5 10.5q336 0 473 -250l10 43q14 47 49 86l58 45l53 23q68 31 123 30q223 0 309 -57q283 -70 283 -363q0 -106 -21 -178l-84 -252q-59 -113 -239 -149l-9 2l-100 -6 q-322 0 -485 147q-55 -41 -150 -67q-66 -59 -317 -60q-115 0 -191 33q-12 -10 -16 -10q-25 0 -50.5 7t-39.5 9q-106 27 -146 51q-80 53 -88 150zM238 475q0 -176 12 -192q25 -37 44 -55.5t44 -34.5l145 -37l150 -17q211 0 313 140l6 -7q18 0 39 64q23 53 23 88q0 57 -68 201 q-14 27 -44 61.5t-93 95.5q-92 53 -225 54h-95l-139 -58q-113 -100 -112 -303zM471 487q0 41 12 68q35 86 121 86q35 0 58 -12q76 -41 75 -137q0 -41 -12 -68q-37 -88 -127 -88q-29 0 -51 12q-76 41 -76 139zM1153 285q188 -154 277 -154q45 0 76.5 12.5t101.5 67.5 q-23 4 -107 94q-49 53 -88 69.5t-66.5 19.5t-62.5 3q-37 0 -62.5 -3t-45.5 -9q0 -6 -5 -20q-10 -39 -18 -80zM1163 561q37 6 88.5 18.5t87.5 12.5q51 0 97 -14q94 -29 190 -144q43 -49 80 -117q35 74 62.5 149t21.5 109q2 33 -14 117q-55 92 -332 144l-150 -84 q-20 -4 -102 -117z" />
<glyph unicode="&#xaa6a;" horiz-adv-x="2330" d="M47 338v133q0 68 6 84l-6 14q0 41 100 265q10 41 68 92q61 45 100 45l88 30q45 16 111 26.5t148 10.5q356 0 499 -254l13 43q16 47 53 88l59 46l55 22q74 31 132 31q236 0 325 -58q299 -72 299 -370q0 -109 -20 -180l-90 -259q-63 -115 -252 -151l-9 2l-108 -6 q-338 0 -510 149q-59 -41 -160 -67q-70 -61 -334 -62q-123 0 -202 35q-10 -10 -17 -10q-25 0 -52.5 6t-43.5 10q-113 27 -152 51q-86 53 -94 152zM248 485q0 -180 12 -198q29 -37 48.5 -55.5t45.5 -34.5l154 -39l158 -17q223 0 331 144l7 -9q18 0 38 66q25 53 25 92 q0 57 -70 203q-14 29 -46.5 63.5t-98.5 96.5q-98 55 -238 55h-100l-147 -57q-119 -102 -119 -310zM1214 291q201 -156 291 -156q49 0 83 11.5t108 70.5q-25 2 -113 94q-53 55 -94 71.5t-69.5 20t-65.5 3.5q-39 0 -67 -3.5t-48 -9.5q0 -8 -4 -20q-12 -41 -21 -82zM1227 573 q39 6 92 18.5t92 12.5q55 0 100 -14q102 -31 203 -146q45 -50 84 -118q37 74 65.5 150.5t22.5 109.5q4 35 -14 119q-57 96 -350 147l-158 -86q-23 -2 -109 -119z" />
<glyph unicode="&#xaa6b;" horiz-adv-x="1400" d="M-197 1051q0 55 11 73q53 0 166 -8q-6 -29 -7 -61q0 -98 52 -213q39 -88 49 -88q2 0 4 2q41 100 119 178q160 158 405 158q244 0 399.5 -159t155.5 -405q0 -325 -358 -528l-86 147q279 154 278 381q0 172 -109.5 285t-279.5 113q-252 0 -369 -250q240 -18 345 -209 q55 -100 55 -205q0 -96 -55 -172q-59 -84 -154 -84q-61 0 -176 84q-211 154 -211 438q0 41 4 80q-125 37 -188 193q-49 119 -50 250zM205 528q0 -180 129 -297q31 -16 67 -43q16 -6 25 -6q43 0 43 94q0 119 -72.5 197t-191.5 78v-23z" />
<glyph unicode="&#xaa6c;" horiz-adv-x="2357" d="M-4 569q0 -252 156.5 -407.5t408.5 -155.5q205 0 369 166q51 104 63 147q16 51 23 160q6 68 -37 148q-27 53 -35 108q-2 25 31 46.5t61 21.5q37 0 69 -26.5t19 -59.5q-20 -70 -55 -185q-4 -20 -6 -53q-2 -203 84 -325q157 -156 407 -156t402.5 157.5t152.5 405.5 q0 344 -264 475l-49 25l-117 -125q106 -45 185.5 -153.5t79.5 -221.5q0 -168 -111 -280.5t-279 -112.5q-174 0 -284 111q-39 94 -39 229q39 66 57 178q6 33 -10 89t-51 95q-72 80 -183 80q-113 0 -182 -76.5t-69 -187.5q0 -35 65 -166q0 -176 -113 -291q-55 -53 -184 -53 q-174 0 -285.5 109.5t-111.5 283.5q0 127 72.5 229.5t191.5 147.5l-106 129q-326 -160 -326 -506z" />
<glyph unicode="&#xaa6d;" horiz-adv-x="2103" d="M18 -432h172q8 -117 77 -186.5t184 -69.5q109 0 178 70q66 63 84 174v1013q0 8 -2 21.5t-2 21.5q-55 -27 -119 -26q-117 0 -199 83t-82 199q0 117 82 199t199 82q92 0 166.5 -53.5t101.5 -141.5q176 186 420 187q238 0 404.5 -167t166.5 -405q0 -236 -168 -403.5 t-403 -167.5l-12 182l12 8q164 0 272.5 109t108.5 272q0 160 -110.5 270.5t-270.5 110.5q-156 0 -268.5 -112.5t-112.5 -268.5v-1007q-41 -203 -139 -297q-129 -125 -303 -125q-186 0 -308 123q-117 117 -129 305zM455 868q0 -59 41 -100t100 -41t99 41t40 100 q0 57 -41 98.5t-98 41.5q-59 0 -100 -40t-41 -100z" />
<glyph unicode="&#xaa6e;" horiz-adv-x="2338" d="M18 348q0 51 45 90q-12 61 -13 95t-1 55q0 297 297 373q98 57 330 57q57 0 82.5 -5t70.5 -26h48q70 0 120 -35q18 -6 74 -67q14 -4 51 -37l6 -19l7 -20l-5 -12q23 -41 50 -244q12 -104 18 -144t12 -57q8 -6 31 -35q37 -47 57 -77q10 -4 48 -17.5t104 -34.5l106 -30 l162 47q131 45 164 100q6 20 12.5 59t3.5 60q14 72 -47 215q-100 92 -151 117l-58 61l33 150l70 51q188 -31 254 -154l88 -260q20 -68 20 -180q0 -297 -299 -373q-94 -57 -297 -57l-45 6l-247 14q-45 0 -72 31l-31 55l-31 43l-26 31q-23 31 -19 41q-12 45 -18 84t-6 90l8 90 q-14 63 -32.5 130t-51.5 163q-18 10 -67.5 28.5t-57.5 22.5l-188 31q-63 -10 -92 -17.5t-97 -29.5q-127 -41 -162 -100q-20 -68 -14 -119l-4 -15q70 35 131 35q113 0 213 -116q131 -145 131 -277q0 -68 -55 -94l-45 -25l-211 -96l-8 -6q-195 31 -252 153l-35 93l-59 -11 q-16 16 -29 41q-20 37 -21 78zM301 389l6 -16l45 -88q31 -72 49 -76l25 6l90 -20l66 8q8 61 -19 94q-125 133 -176 133q-41 0 -86 -41z" />
<glyph unicode="&#xaa6f;" horiz-adv-x="2336" d="M49 637q0 326 303 403q92 61 330 62q59 0 133 -33l55 -27l62 -47q41 -45 53 -96l12 -47q145 276 506 276q156 0 264 -41l88 -32q41 0 103 -49q59 -55 67 -99q102 -244 103 -289l-6 -14q6 -18 6 -92v-145l-6 -88q-10 -106 -97 -166q-39 -27 -153 -56q-59 -18 -96 -18 q-8 6 -11.5 6t-7.5 4q-80 -37 -205 -37q-268 0 -338 68q-297 76 -296 395q0 80 14 148l-31 79q-86 127 -108 132l-160 92q-297 -55 -354 -160q-18 -92 -17 -129q-12 -82 47 -234q100 -106 154 -124l59 -68l-35 -121l-10 -14q-252 -41 -317 84l-88 280q-23 78 -23 197z M356 266q0 76 50.5 127t130.5 51t135 -51t55 -127q0 -72 -56.5 -120t-133.5 -48q-76 0 -128.5 49.5t-52.5 118.5zM1094 471q0 -41 24 -100q20 -70 39 -70l6 6q113 -154 338 -153l160 18l156 39q27 18 51 45t39.5 50t15.5 220q0 225 -119 336l-149 64h-103q-141 0 -239 -60 q-55 -55 -97 -105t-53 -69q-70 -160 -69 -221z" />
<glyph unicode="&#xaa70;" horiz-adv-x="970" d="M8 1477q201 109 375 108q180 0 389 -108l-74 -127q-174 78 -303 77q-129 0 -307 -79q-6 8 -80 129zM8 1767q195 102 375 103q188 0 389 -103l-72 -125q-203 66 -307 66q-117 0 -305 -66q-14 25 -39 64z" />
<glyph unicode="&#xaa71;" horiz-adv-x="2355" d="M-6 629q0 324 301 405q96 63 328 64q82 0 157 -35q6 4 43 0q98 -8 172 -78q55 -49 80 -74q0 -4 4 -19t4 -24q0 -10 -2 -12l25 -74l33 111q12 49 51 96q14 16 63.5 48t53.5 26q76 37 131 35q231 0 329 -64q301 -80 299 -405q0 -121 -24 -197l-86 -280q-66 -133 -256 -172 l-68 57l-35 164l58 65q49 20 151 125q61 156 47 238q6 45 -14 131q-61 106 -354 158l-158 -95q-20 -6 -106 -129q-33 -68 -41 -162q12 -51 10 -88v-41v-16q-2 -4 0 -8q-18 -164 -127 -273.5t-246 -105.5q-72 37 -72 102q0 49 52 109q66 -8 143.5 47t99.5 129q2 17 2 29 q0 25 -20 125q-10 35 -27 73q-2 14 -102 205q-96 55 -129 66l-189 33q-86 -16 -188 -52q-129 -45 -166 -106q-20 -88 -16 -131q-12 -82 49 -238q102 -102 154 -125l57 -65l-35 -164l-70 -57q-193 39 -254 172l-88 280q-25 78 -24 197zM274 193q0 71 37 118q23 37 60 54.5 t80 17.5q68 0 110 -41q66 -55 66 -149q0 -72 -39 -119q-55 -74 -144 -74q-63 0 -104 41q-37 25 -51.5 64.5t-14.5 87.5z" />
<glyph unicode="&#xaa72;" horiz-adv-x="2760" d="M12 377q0 86 37 158q45 86 146 86q137 0 215 -168l90 -193q-47 279 -47 295q0 248 158.5 404.5t406.5 156.5q233 0 393 -155q37 -37 68 -84q29 41 71 84q162 158 404 157q246 0 400.5 -156.5t154.5 -402.5t-155.5 -403.5t-399.5 -157.5q-315 0 -473 235q-20 -37 -62 -96 q-68 -72 -176 -121l-39 43q-29 41 -43 109q78 49 146 133q72 92 86 174q6 35 6 78q0 33 -4 74q-6 31 -21 90q-8 33 -74 114q-90 113 -282 113q-170 0 -282.5 -109.5t-112.5 -279.5q0 -100 28 -195q18 -57 39 -112q25 -74 25 -113q0 -76 -56 -108q-35 -12 -108 -27 q-6 0 -1 -34t-5 -40q-20 -14 -74 -10q-43 2 -68 6q-6 0 -7 39t-7 39q-147 8 -217 49q-43 27 -94 109q-66 106 -66 219zM197 350q0 -45 41 -135q44 -71 79 -59q18 6 19 26q0 2 -33 88q-18 49 -27 76q-20 37 -55 37q-25 0 -24 -33zM1563 631q-35 -246 137 -379 q106 -86 254 -86q166 0 277.5 112.5t111.5 280.5t-110.5 279.5t-278.5 111.5q-145 0 -258 -89t-133 -230z" />
<glyph unicode="&#xaa73;" horiz-adv-x="1681" d="M-6 12h160v776l307 -624q157 -158 407 -158q248 0 403.5 158t155.5 405q0 229 -143 389q-147 168 -375 168q-27 0 -51 -2v-166q170 0 284.5 -109.5t114.5 -279.5q0 -168 -110.5 -280.5t-278.5 -112.5q-172 0 -284 111l-430 798h-160v-1073z" />
<glyph unicode="&#xaa74;" horiz-adv-x="1648" d="M-4 569q0 346 326 506l108 -129q-121 -45 -192.5 -146.5t-71.5 -230.5q0 -174 110.5 -283.5t284.5 -109.5q68 0 125 19l2 749l60 139l106 -39q139 -51 207 -192q57 -119 57 -283q-2 -248 -155 -405q-45 -45 -101 -80l-6 -469l381 -305v1667l-59 90l-142 121l-92 -10 l-72 2l-69 20q-125 37 -250 238l-27 75l-12 93q0 248 256 403l86 31l92 10l49 -2q29 -2 52 -14l106 -41q121 -47 182 -213l-32 -31l-84 -55q-27 88 -106 147.5t-171 59.5q-117 0 -198.5 -84t-81.5 -203q0 -61 4 -66q0 -18 28 -71q8 -39 95 -101l34 -24l39 -15l86 -16 q47 0 74 14q150 -27 242 -112q45 -43 137 -181v-1802q-20 -115 -143 -114q-41 0 -89 14l-325 215q-92 -188 -266 -189q-119 0 -203 85t-84 204t84 204t203 85q35 0 102 -20l4 294q-59 -12 -125 -12q-252 0 -408.5 155.5t-156.5 407.5zM479 -541q0 -45 30 -75.5t75 -30.5 t76.5 30.5t31.5 75.5t-31.5 76t-76.5 31t-75 -31t-30 -76zM864 317q88 104 88 252q0 111 -82 224z" />
<glyph unicode="&#xaa75;" horiz-adv-x="2652" d="M-4 563q0 240 163 397.5t402 157.5q240 0 400 -157q53 -53 83 -107q90 156 248 219q113 45 232 45q246 0 400.5 -156.5t154.5 -402.5q0 -289 -215 -453l-4 -491l381 -305v1667l-60 90l-141 121l-92 -10l-72 2l-70 20q-125 37 -250 238l-26 75l-12 93q0 248 256 403l86 31 l92 10l49 -2q29 -2 51 -14l107 -41q121 -47 182 -213l-33 -31l-84 -55q-27 88 -105.5 147.5t-170.5 59.5q-117 0 -199 -84t-82 -203q0 -61 4 -66q0 -18 29 -71q8 -39 94 -101l35 -24l39 -15l86 -16q47 0 74 14q150 -27 241 -112q45 -43 137 -181v-1802q-20 -115 -143 -114 q-41 0 -88 14l-326 215q-92 -188 -266 -189q-119 0 -203 85t-84 204t84 204t203 85q35 0 103 -20l4 294q-78 -20 -166 -20q-49 0 -94 6l-44 182q63 -20 138 -20q166 0 277.5 112.5t111.5 280.5t-110.5 279.5t-278.5 111.5q-164 0 -288 -114.5t-120 -276.5q6 -238 -143 -397 q-68 -74 -174 -121l-84 152q63 31 133 98q100 96 100 272q0 170 -105.5 275.5t-275.5 105.5q-174 0 -274 -94q-92 -86 -111 -176q-10 -49 -10 -86q0 -57 25 -80q37 10 75 10q106 0 182 -75.5t76 -182.5q0 -109 -74.5 -184.5t-183.5 -75.5q-123 0 -215 131l140 80 q47 -39 73 -39q88 0 88 86q0 88 -88 88q-20 0 -59 -6t-55 -6q-88 -4 -131 92q-29 66 -29 137zM1483 -541q0 -45 29.5 -75.5t74.5 -30.5t77 30.5t32 75.5t-32 76t-77 31t-74.5 -31t-29.5 -76z" />
<glyph unicode="&#xaa76;" horiz-adv-x="2662" d="M2 -457q0 102 47 170q98 139 266 123q115 0 248 -26l-24 -93q-8 -31 -25 -82q-84 12 -209 21q-106 -14 -129 -102v-113q0 -123 129 -123h647v1210q0 170 -118.5 286t-288.5 116q-74 0 -158 -25l-76 162q117 39 234 39q252 0 416 -164q12 -8 71 -98q35 49 88 117 q182 158 404 157q246 0 400.5 -156.5t154.5 -402.5q0 -289 -215 -453l-4 -491l381 -305v1667l-60 90l-141 121l-92 -10l-72 2l-70 20q-125 37 -250 238l-26 75l-12 93q0 248 256 403l86 31l92 10l49 -2q29 -2 51 -14l107 -41q121 -47 182 -213l-33 -31l-84 -55 q-27 88 -105.5 147.5t-170.5 59.5q-117 0 -199 -84t-82 -203q0 -61 4 -66q0 -18 29 -71q8 -39 94 -101l35 -24l39 -15l86 -16q47 0 74 14q150 -27 241 -112q45 -43 137 -181v-1802q-20 -115 -143 -114q-41 0 -88 14l-326 215q-92 -188 -266 -189q-119 0 -203 85t-84 204 t84 204t203 85q35 0 103 -20l4 294q-78 -20 -166 -20q-49 0 -94 6l-44 182q63 -20 138 -20q166 0 277.5 112.5t111.5 280.5t-110.5 279.5t-278.5 111.5q-166 0 -283 -110q-125 -119 -125 -281l6 -1241q0 -72 -50 -122t-122 -50h-770q-174 20 -176 172zM1483 -541 q0 -45 29.5 -75.5t74.5 -30.5t77 30.5t32 75.5t-32 76t-77 31t-74.5 -31t-29.5 -76z" />
<glyph unicode="&#xaa77;" horiz-adv-x="1359" d="M-4 563q0 240 163 397.5t402 157.5q248 0 397.5 -155.5t157.5 -403.5q6 -238 -143 -397q-51 -55 -125 -160l12 4l283 -606l153 72l72 -154l-229 -106q-18 -8 -37 -9q-45 0 -76 64l-272 581q-150 -276 -170 -548l270 12l12 -172h-497q10 113 22 223q16 137 43 219 q82 244 244 488q109 162 170 221q100 96 100 272q0 170 -105.5 275.5t-275.5 105.5q-174 0 -274 -94q-92 -86 -111 -176q-10 -49 -10 -86q0 -57 25 -80q37 10 75 10q106 0 182 -75.5t76 -182.5q0 -109 -74.5 -184.5t-183.5 -75.5q-123 0 -215 131l140 80q47 -39 73 -39 q88 0 88 86q0 88 -88 88q-20 0 -59 -6t-55 -6q-88 -4 -131 92q-29 66 -29 137zM203 1624q0 176 119.5 296t298.5 120q160 0 267 -94.5t138 -253.5q-121 -45 -164 -45q-6 0 -6 6q-8 98 -74.5 159.5t-165.5 61.5q-111 0 -179 -69.5t-68 -180.5q0 -104 68.5 -173t172.5 -69 q23 0 68 7v-179q-37 -4 -62 -4q-176 0 -294.5 120t-118.5 298z" />
<glyph unicode="&#xaa78;" horiz-adv-x="2129" d="M0 143v181q109 10 175.5 74.5t68.5 172.5q2 109 -68 181q-63 66 -174 79v166q184 -12 298 -127.5t114 -298.5q0 -178 -118 -296.5t-296 -131.5zM272 -4q10 176 132 294t296 118q182 0 304 -121v-2q-2 4 -25 26q57 475 219 848q115 264 268 373q78 55 166 55 q150 0 312 -180l-136 -88q-84 86 -161 86q-160 0 -304 -318q-90 -199 -149 -452q-74 -317 -72 -639h-164q-10 115 -75 172q-84 74 -183 72q-109 -4 -174 -70t-75 -174h-179zM272 1141h179q16 -168 149 -223q47 -20 100 -21q111 -2 179.5 65.5t78.5 178.5h166 q-10 -184 -124.5 -298t-299.5 -114q-176 0 -296.5 118t-131.5 294z" />
<glyph unicode="&#xaa79;" horiz-adv-x="1372" d="M-4 563q0 240 163 397.5t402 157.5q248 0 397.5 -155.5t157.5 -403.5q6 -238 -143 -397q-51 -55 -125 -160l12 4q-260 -475 -276 -706l270 12l12 -172h-497q33 268 94 454q82 246 229 482q102 164 156 215q100 96 100 272q0 170 -105.5 275.5t-275.5 105.5 q-174 0 -274 -94q-92 -86 -111 -176q-10 -49 -10 -86q0 -57 25 -80q37 10 75 10q106 0 182 -75.5t76 -182.5q0 -109 -74.5 -184.5t-183.5 -75.5q-123 0 -215 131l140 80q47 -39 73 -39q88 0 88 86q0 88 -88 88q-20 0 -59 -6t-55 -6q-88 -4 -131 92q-29 66 -29 137z" />
<glyph unicode="&#xaa7a;" horiz-adv-x="2566" d="M0 -860v2724h1284l-2 225h191l-11 -453l-1304 -12l14 -2294l1026 4v1235q0 156 -112.5 268.5t-268.5 112.5q-160 0 -270.5 -110.5t-110.5 -270.5q0 -164 108.5 -272.5t272.5 -108.5l12 -8l-12 -182q-236 0 -403.5 168t-167.5 403q0 238 167 405t404 167q236 0 404 -168 t168 -404q0 -166 107.5 -273.5t272.5 -107.5q158 0 270.5 112t112.5 269q0 156 -113.5 268.5t-269.5 112.5q-78 0 -133 -20l19 203l114 6q225 12 402 -168q170 -174 170 -402q0 -236 -168 -403.5t-404 -167.5q-211 0 -380 152v-816q0 -33 2 -97t2 -97h-1393z" />
<glyph unicode="&#xaa7b;" horiz-adv-x="673" d="M59 115q-4 -80 47 -162q25 -35 46 -74q47 -63 200 -155l201 -109q-233 207 -272 284.5t-50 114.5l41 -2q174 -6 187 90l14 127q2 68 -23.5 142.5t-76.5 85.5l-51 -45l-58 51q-74 -12 -131 -82q-59 -61 -63 -154v-28zM186 225q4 70 88 68l33 20l8 -4q41 -25 50 -57 l-29 -90h-62q-47 4 -61 14l-6 8l-12 9q-2 2 -9 32z" />
<glyph horiz-adv-x="6" d="M-1571 -434q0 4 4 53q-2 6 -2 12q0 33 76 189q8 37 52 71.5t81 34.5l64 19q78 25 194 24q260 0 367 -159q25 70 100 108q23 12 39 12l-2 4q57 20 98 21q174 0 252 -41q227 -53 228 -270q0 -78 -19 -129l-65 -181q-49 -90 -205 -114l-58 43l-28 119l49 47q35 14 110 73 q41 94 33 142q4 29 -10 77q-43 59 -248 93l-114 -60q-12 -2 -74 -76q-10 -18 -17 -45q12 -49 11 -94q0 -213 -226 -262q-61 -45 -256 -45q-86 0 -145 23q-6 -6 -18 -7q-92 0 -187 52q-51 29 -67 71q-8 29 -15 101q0 23 -2 94zM-1393 -424q0 -123 4 -129q53 -70 179 -84 l112 -14q162 0 236 94h16q6 0 20.5 43t14.5 53q-2 39 -51 135q-14 25 -105 107q-76 33 -170 33h-71l-107 -41q-78 -63 -78 -197z" />
</font>
</defs>
</svg>
