<?xml version="1.0" standalone="no"?>
<!DOCTYPE svg PUBLIC "-//W3C//DTD SVG 1.1//EN" "http://www.w3.org/Graphics/SVG/1.1/DTD/svg11.dtd" >
<svg xmlns="http://www.w3.org/2000/svg" xmlns:xlink="http://www.w3.org/1999/xlink" version="1.1">
<metadata></metadata>
<defs>
<font id="mm_baganregular" horiz-adv-x="0" >
<font-face units-per-em="2048" ascent="1638" descent="-410" />
<missing-glyph horiz-adv-x="547" />
<glyph unicode="&#x1039;&#x1000;" horiz-adv-x="2" d="M-1841 -493q0 174 133.5 293t322.5 119q253 0 378 -174q127 175 373 174q186 0 318.5 -110.5t132.5 -289.5q-1 -179 -130 -290q-148 -120 -307 -119q-27 0 -52 2.5t-65 14.5q-56 19 -56 71q0 79 73 79q12 0 32 -6.5t27 -6.5q133 -17 250 84q75 66 76 171q0 108 -76 175 q-94 75 -221 75t-215 -75q-69 -57 -81 -165v-22q0 -258 -221 -380q-23 -10 -40 -10q-75 0 -75 81q0 42 42 66q132 69 139 226v35q-4 105 -89 174.5t-213 69.5q-125 0 -213.5 -74.5t-88.5 -187.5q0 -155 160 -248q38 -25 37 -61q0 -79 -76 -79q-19 0 -35 10 q-113 61 -176.5 168t-63.5 210zM-1830 -1056q58 29 98 69q55 54 69 106q4 43 -29 79q-13 12 -44 35q-5 3 -12 9q-40 41 -25 122q22 46 39 63l2 2v1q39 37 110 32q39 -3 64 -15q26 -11 49 -36q41 -40 54 -95q8 -40 0 -82q-6 -31 -29 -72q-29 -43 -56 -71q-8 -6 -28 -27l-2 -1 q-34 -31 -74 -54q-30 -18 -61 -31q-69 -22 -106 -31q-16 -5 -18 -5zM-1359 -706q12 56 53 96q23 24 49 35q25 12 64 16q72 4 110 -33v-1l3 -2q17 -16 38 -63q16 -81 -24 -121q-6 -6 -12 -10q-31 -23 -45 -35q-33 -36 -29 -78q14 -53 69 -107q40 -40 98 -69v-2q-3 0 -19 5 q-37 10 -105 32q-32 13 -63 31q-38 23 -73 54l-1 1q-20 20 -28 27q-28 28 -56 71q-24 40 -29 71q-9 42 0 82zM-807 -790q-2 45 8 75q12 41 39 73q38 44 93 59q31 10 59 7q28 -1 64 -17q66 -30 82 -80l-1 -2l1 -2q8 -23 4 -73q-25 -80 -80 -96q-9 -3 -15 -3q-38 -4 -55 -9 q-46 -15 -64 -55q-13 -54 10 -127q17 -54 54 -108l-1 -1q-2 1 -14 14q-28 25 -78 78q-22 26 -40 56q-23 39 -38 82l-1 2q-9 28 -12 37q-11 37 -15 90z" />
<glyph unicode="&#x1039;&#x1001;" horiz-adv-x="2" d="M-1103 -171q4 53 15 89q3 10 12 38l1 2q16 43 39 82q18 30 40 56q50 53 78 78q12 13 14 14l1 -2q-37 -54 -54 -107q-23 -73 -10 -128q17 -40 64 -54q17 -4 55 -9q6 0 15 -3q55 -16 80 -96q3 -51 -5 -74l-1 -2l1 -2q-16 -50 -82 -80q-36 -16 -63 -17q-29 -3 -60 8 q-55 15 -92 59q-27 31 -39 72q-11 30 -9 76zM-1064 -589q-6 64 15 79q140 102 290 103q117 0 219 -59t154 -165q54 64 54 148q0 52 -23.5 97t-65 78t-96.5 53t-120 20q-132 0 -262 -115q-23 -42 -61 -42q-29 0 -55 24t-26 59q0 15 7 34v2q-5 0 0 6q8 5 18.5 17t25.5 29 q142 140 353 140q194 0 329 -115q130 -118 130 -287q0 -177 -135 -290q-138 -117 -324 -117q-264 0 -397 196q-23 52 -30 105zM-924 -613q15 2 25 0l25 -25q91 -98 237 -98q60 0 119 20q-61 156 -237 157q-85 0 -169 -54z" />
<glyph unicode="&#x1039;&#x1002;" horiz-adv-x="2" d="M-1085 -486q0 186 144 305q125 95 302 95q194 0 329 -105q134 -105 134 -295q0 -220 -166 -380q-25 -19 -51 -19q-79 0 -79 81q0 29 27 56q117 103 117 262q0 111 -81 174q-86 73 -220 74q-133 0 -217.5 -68.5t-84.5 -179.5q0 -152 118 -262q27 -27 27 -59q0 -78 -81 -78 q-25 0 -51 19q-167 152 -167 380zM-1065 -1078q58 29 98 69q55 54 69 107q4 43 -29 78q-13 12 -44 35q-5 3 -12 10q-40 41 -25 121q22 46 39 63l2 2v1q39 37 110 33q39 -3 65 -16q25 -10 48 -35q41 -40 54 -96q8 -40 0 -82q-6 -31 -29 -71q-29 -43 -56 -71q-8 -6 -28 -27 l-2 -1q-34 -31 -73 -54q-30 -18 -62 -31q-69 -22 -106 -32q-16 -5 -18 -5zM-594 -728q12 56 53 96q23 25 49 36q25 12 64 15q72 4 110 -32v-1l3 -3q17 -16 38 -62q16 -81 -24 -122q-6 -6 -12 -10q-31 -23 -45 -34q-33 -36 -29 -79q14 -53 69 -106q40 -40 98 -69v-3 q-3 0 -18 6q-37 10 -106 31q-32 13 -62 31q-38 23 -74 54l-1 1q-20 20 -28 27q-28 28 -56 71q-24 40 -29 72q-9 42 0 81z" />
<glyph unicode="&#x1039;&#x1003;" horiz-adv-x="2" d="M-1721 -235q0 29 18 56t50 48t71.5 32t81.5 11q79 0 146 -54q69 -54 62 -133q-8 -113 -110 -173q-50 -13 -125 -45l-6 -3q-22 -22 -21 -44q0 -33 -2 -41q16 -57 109 -106q86 -46 185 -46q127 0 214.5 69.5t93.5 175.5v34q-10 157 -142 229q-44 22 -44 65q0 81 74 81 q19 0 37 -9q227 -123 227 -383v-22q13 -101 79 -157q91 -81 226 -81q120 0 210 79q79 64 79 173q0 106 -79 173q-112 98 -248 81q-10 0 -28 -5t-28 -5q-73 0 -73 78q0 50 52 71q19 10 68 9q13 3 25 4.5t24 1.5q168 0 310 -120q129 -111 129 -288q0 -181 -133 -292 q-137 -110 -315 -110q-246 0 -376 175q-130 -177 -382 -179q-138 -5 -261 85q-122 84 -164 194q-34 44 -15 123q17 58 51.5 88t44.5 37q5 2 18.5 7t35.5 13q44 12 73.5 27t37.5 49q-15 2 -44 19q-82 39 -82 8q0 -74 -78 -79q-77 0 -76 79zM-1208 -260q-11 56 10 109 q15 38 46 68q23 23 64 42q47 20 87 28q10 1 37 7h3q46 6 90 3q36 -1 69 -9q70 -22 106 -33q15 -4 18 -7l-1 -1q-65 9 -121 -2q-75 -14 -116 -50q-28 -33 -21 -81q5 -17 19 -54q2 -5 4 -14q10 -57 -49 -115q-43 -27 -66 -31h-4h-1q-52 -10 -109 35q-30 25 -44 48 q-15 23 -21 57zM-672 -271q-13 55 8 110q15 38 45 68q22 24 63 43q49 22 86 31q10 1 39 6l2 1q45 5 91 4q36 -2 67 -8q70 -18 106 -31q17 -4 19 -6l-1 -2q-65 6 -120 -3q-74 -15 -117 -52q-27 -34 -18 -82q4 -17 19 -53q2 -5 5 -15q12 -56 -48 -115q-43 -27 -66 -31h-3 l-1 -3q-51 -10 -109 35q-31 24 -45 47q-17 24 -22 56z" />
<glyph unicode="&#x1039;&#x1005;" horiz-adv-x="2" d="M-1080 -479q0 177 127 288q144 120 339 120q196 0 309 -135q112 -135 112 -300q0 -160 -125 -265q-137 -110 -316 -110t-311 110q-135 111 -135 292zM-926 -473q0 -113 79 -185q119 69 119 177q0 110 -127 172q-71 -64 -71 -164zM-693 -229q117 -100 117 -252 q0 -150 -112 -248q12 -2 26.5 -2h27.5q127 1 218 76q74 61 74 155q0 102 -82 198q-68 83 -190 83q-42 0 -79 -10z" />
<glyph unicode="&#x1039;&#x1006;" horiz-adv-x="2" d="M-1772 -189q4 53 15 90q3 10 12 38l1 2q16 43 39 82q18 30 40 56q50 53 77 77q12 13 14 14l1 -1q-37 -54 -54 -108q-23 -73 -9 -127q17 -40 63 -55q17 -4 55 -8q6 0 15 -4q55 -16 80 -96q3 -51 -4 -73l-1 -2l1 -2q-16 -50 -82 -80q-36 -16 -64 -17q-28 -4 -59 7 q-55 15 -93 60q-27 31 -38 72q-11 30 -9 75zM-1758 -615q0 29 39 61q120 100 252 100q54 0 110.5 -14.5t104.5 -41.5t87.5 -66t60.5 -86q61 41 83 122q-2 17 -2 32v27v25.5t2 30.5q-60 186 -298 187q-138 0 -258 -110q-19 -42 -59 -42q-31 0 -57 24.5t-26 56.5q0 19 9 36 q-2 0 -2 4l2 2q10 15 42 46q137 135 349 135q243 0 377 -164q135 169 375 169q192 0 327 -113q132 -116 132 -287q0 -175 -132 -284q-137 -115 -327 -118q-237 -2 -375 167q-137 -169 -377 -169q-209 0 -346 135q-12 17 -28.5 39t-40.5 49q-24 24 -24 47zM-1565 -633 q96 -100 246 -100q39 0 73 6q-37 77 -133 109q-98 31 -186 -15zM-863 -540q67 -193 292 -193q64 0 120 16.5t99 50t67.5 80t24.5 105.5q0 54 -24.5 101t-66 79t-96.5 50t-120 18q-233 0 -294 -192q3 -17 4 -30.5t1 -25.5q0 -27 -7 -59z" />
<glyph unicode="&#x1039;&#x1007;" horiz-adv-x="2" d="M-1064 -481q0 167 138 283q135 112 318 112q169 0 319 -105q25 -20 62 -88q44 -79 44 -142q0 -44 -25 -94l59 -74q44 -61 -17 -107q-59 -46 -108 17l-42 58q-83 -39 -208 -37q-88 2 -159 67q-69 60 -69 132q0 74 71 123q64 42 142 42q106 0 196 -77q-15 40 -39 57 q-101 75 -223 76q-65 0 -118.5 -19.5t-95 -53t-65 -78.5t-23.5 -97q0 -100 86 -172q92 -81 223 -80q56 0 99 13l145 -96q-8 -8 -19 -14q-26 -15 -66 -28q-81 -25 -164 -25q-192 0 -326 121q-135 117 -135 286zM-646 -821q-2 41 5 59v1v2q13 40 65 65q29 13 52 14q23 3 49 -7 q44 -12 75 -47q22 -26 31 -59q9 -24 8 -62q-4 -42 -13 -72q-2 -8 -10 -30l-1 -2q-13 -34 -31 -67q-15 -24 -32 -45q-40 -43 -63 -63q-10 -11 -12 -12l-1 1q30 43 44 88q18 59 8 103q-14 32 -52 44q-14 4 -44 8q-5 0 -12 2q-45 13 -66 79zM-603 -469q-17 -33 83 -39 q62 0 99 10q-41 37 -68 44q-94 34 -114 -15z" />
<glyph unicode="&#x1039;&#x1008;" horiz-adv-x="391" d="M-1006 -490q0 169 125 277q142 121 327 120q185 0 296 -130q110 -133 110 -287q0 -57 -19 -111l255 -63v1695q0 91 89 91q88 0 88 -91v-1811q0 -96 -74 -96q-19 0 -37 8l-423 115q-130 -100 -302 -100q-177 0 -305 106q-129 108 -130 277zM-849 -500q0 -111 71 -167 q38 17 78 81q37 59 37 98q0 103 -122 167q-65 -56 -64 -179zM-631 -248q113 -96 114 -240q0 -142 -111 -241q13 -2 26 -2h25q126 0 212 73q73 59 73 152q0 96 -79 189q-64 79 -179 79q-44 0 -81 -10zM-5 1043q0 43 19 82q13 32 45 66q38 39 73 59q10 5 35 22l1 1 q42 24 87 39q34 11 69 15q74 8 115 9q17 3 18 2l3 -2q-68 -16 -117 -49q-67 -42 -95 -93q-13 -43 13 -86q11 -15 38 -44q4 -4 9 -13q31 -51 -3 -129q-31 -42 -53 -55l-3 -3q-49 -29 -119 -7q-39 12 -61 30q-24 16 -42 46q-33 49 -32 110z" />
<glyph unicode="&#x1039;&#x100a;" d="M-1741 -216q69 75 164.5 123t237.5 54q84 0 159.5 -21.5t140.5 -61.5q54 -38 88 -83t44 -97q0 -4 1 -9.5t1 -8.5v-14q0 -52 67.5 -91.5t167.5 -39.5q45 0 88.5 10t75 29t50.5 42.5t19 49.5q0 24 -19 48t-50.5 44t-75 30t-88.5 10q-39 0 -81.5 -8.5t-83.5 -34.5l-139 128 q80 38 154 58t150 20q84 0 156.5 -21.5t136.5 -61.5q71 -44 104.5 -98t33.5 -114q0 -55 -38.5 -114t-99.5 -98q-64 -42 -139 -63.5t-154 -21.5q-83 0 -175 27t-157 81l-32 -22q-64 -41 -142.5 -63.5t-162.5 -22.5q-54 0 -99 5t-88 19v-96q0 -43 55.5 -78t132.5 -35h694 q39 0 75.5 12.5t63 34t43.5 48.5t17 60h204v-50q2 -124 -106.5 -193t-279.5 -69h-717q-171 0 -272.5 72.5t-101.5 191.5v264l122 83q59 -47 122 -75t135 -28q88 0 152.5 34t76.5 82v3q0 2 2 3.5t2 4.5v4v2q-4 52 -72 91t-161 39q-85 -4 -140 -27.5t-96 -58.5z" />
<glyph unicode="&#x1039;&#x100b;" d="M-992 -352q0 63 30 119.5t82 102.5q57 41 122 64t139 23q80 0 143 -22t120 -65q19 -16 38 -40t45 -59l-142 -103q-17 28 -32.5 46t-35.5 33q-52 50 -136 49q-79 0 -133.5 -46t-54.5 -102q0 -57 55 -101.5t133 -44.5q41 0 78.5 14t57.5 35q14 6 30 27t35 58l132 -96 q-15 -63 -64.5 -106.5t-116.5 -74.5q-32 -12 -69 -15.5t-83 -3.5q-150 0 -269 89q-11 9 -22 20t-22 24q-24 40 -41 83t-19 92zM-935 -636q155 -107 337 -107q132 0 238 66l134 -73v-145h120v-157h-299l-2 171q-40 -12 -90.5 -18t-100.5 -6q-79 0 -153 16t-131 40h2l-55 21 v192z" />
<glyph unicode="&#x1039;&#x100c;" d="M-1893 -53q2 1 20 6q36 13 105 31q32 6 68 8q45 1 91 -4l2 -1q29 -5 39 -6q38 -9 86 -31q41 -19 62 -43q30 -30 46 -68q20 -55 7 -110q-5 -32 -21 -56q-14 -24 -46 -47q-58 -44 -108 -35l-2 3h-3q-23 4 -66 31q-59 59 -47 115q2 10 4 15q15 36 20 53q9 47 -19 82 q-42 37 -116 52q-56 10 -121 3zM-1851 -467q0 167 104 286q51 52 122 80t159 24h31v-170h-20q-92 -3 -162 -69q-72 -70 -72 -164v-37q0 -49 19.5 -91.5t52 -72t76.5 -47.5t97 -18h457q-31 50 -44 107.5t-13 121.5q0 189 131 315h-2q14 16 30 30t36 28q132 73 250 73 q186 0 314 -128q133 -129 133 -318q0 -185 -134 -315h1q-11 -11 -23 -21l-124 117q16 12 29 26q86 81 86 193q0 111 -86 196q-82 82 -196 82q-110 0 -194 -82q-84 -81 -84 -196q0 -114 84 -193h-4q44 -41 114 -75l-122 -125h-650q-168 0 -283 108q-113 108 -113 277v58z M-553 -639q6 32 22 56q14 24 45 47q58 44 109 35l1 -2h3q23 -4 66 -32q59 -59 47 -115q-2 -10 -4 -15q-15 -36 -19 -53q-9 -47 18 -82q42 -37 116 -52q56 -10 121 -3l1 -2q-2 -1 -19 -5q-36 -13 -106 -32q-32 -6 -68 -8q-45 -1 -90 4l-3 1q-29 5 -38 7q-38 9 -87 30 q-41 19 -62 43q-30 30 -45 68q-20 55 -8 110z" />
<glyph unicode="&#x1039;&#x100d;" d="M-955 -252q26 33 45 57.5t37 40.5q55 45 117 66t141 21q71 0 134.5 -22.5t119.5 -64.5q50 -45 79.5 -103t29.5 -119q-2 -47 -18 -91t-42 -83q-10 -14 -20 -24.5t-20 -19.5q-116 -89 -263 -89q-44 0 -81 3t-67 16v-33q65 -25 150 -25q127 0 233 64l130 -74v-143h120v-160 h-295l-2 173q-38 -11 -87.5 -16.5t-98.5 -5.5q-77 0 -148.5 14.5t-127.5 40.5h2l-53 21v324l129 96q16 -36 33 -56.5t29 -29.5q22 -19 58 -34t76 -15q77 0 130 45t53 102q0 58 -53.5 103.5t-129.5 45.5q-83 0 -134 -50q-19 -14 -34.5 -32.5t-32.5 -45.5z" />
<glyph unicode="&#x1039;&#x100f;" horiz-adv-x="1" d="M-2005 -473q0 125 79 223q127 157 367 162q152 5 256 -64l24 -15q61 81 182 86q106 2 173 -90l30 19q102 66 258 69q231 2 360 -167q77 -94 77 -229q4 -225 -187 -338q-113 -64 -246 -64q-65 0 -109 11l-1 178q19 0 30 -2q125 -34 228 27q108 64 110 188q2 113 -113 183 q-60 39 -147 38q-96 0 -167 -48q-22 -3 -63 -44q-2 -3 -5 -9t-7 -18l-15 -25q-17 -27 -25 -77q0 -61 25 -100q12 -19 15 -42v-48q0 -44 -19 -82.5t-49 -66.5t-69.5 -45.5t-83.5 -17.5q-88 -4 -156 62q-68 61 -67 150v51q0 33 9 47q27 39 27 92q0 17 -27 77l-2 17 q-20 14 -23 29l-2 6q-27 37 -100 63q-74 25 -128 25q-140 0 -221 -99q-37 -43 -41 -112q-3 -113 120 -185q111 -64 221 -36l30 -174q-38 -9 -92 -10q-140 -2 -262 71q-192 115 -194 334zM-1805 -1110q58 29 98 69q55 54 69 106q4 43 -30 79q-14 12 -45 35q-5 3 -12 9 q-40 41 -23 122q20 46 37 63l4 2v1q38 37 110 32q39 -3 63 -15q26 -10 50 -35q41 -40 53 -96q9 -40 0 -82q-5 -31 -30 -71q-28 -43 -56 -72q-8 -6 -28 -27l-1 -1q-36 -31 -73 -53q-30 -18 -63 -32q-69 -22 -105 -31q-15 -5 -18 -5v2zM-1147 -287v-49q37 -73 37 -143 q0 -85 -37 -159v-31q0 -37 50 -37q44 0 44 37v19q-34 69 -35 171q0 64 35 146v46q0 25 -44 32q-50 0 -50 -32zM-777 -728q12 56 53 96q23 25 49 36q25 12 64 15q72 4 110 -32v-1l3 -3q17 -16 38 -62q16 -81 -24 -122q-6 -6 -12 -10q-31 -23 -45 -34q-33 -36 -29 -79 q14 -53 69 -106q40 -40 98 -69v-3q-3 0 -18 6q-37 10 -106 31q-32 13 -63 31q-38 23 -73 54l-1 1q-20 20 -28 27q-28 28 -56 71q-24 40 -29 72q-9 42 0 81z" />
<glyph unicode="&#x1039;&#x1010;" horiz-adv-x="104" d="M-1454 -475q0 164 125 279q126 115 316 115q240 0 365 -174q138 177 366 176q174 0 311 -115q133 -117 133 -292q0 -164 -137 -285q-140 -122 -347 -110q-26 0 -50 8l4 2l6 -2q4 -2 4 -5t-4 -3q-74 -2 -75 74q0 77 75 78q4 0 4 -2q-4 -5 -7 -5l-7 5q-2 0 -2 8l59 -8 q158 0 243 73.5t85 176.5q0 100 -81 175q-91 75 -209 75q-126 0 -213 -75q-69 -59 -87 -128q3 -12 4.5 -22t1.5 -19q0 -177 -129 -290q-133 -115 -313 -116q-180 0 -311 116q-130 113 -130 290zM-1305 -475q0 -113 84.5 -184.5t207.5 -71.5q110 0 190.5 58.5t97.5 152.5 q-3 39 0 86q-17 91 -97.5 146t-190.5 55q-64 0 -117.5 -18t-92.5 -51.5t-60.5 -78t-21.5 -94.5zM-510 -717q12 56 53 96q24 25 50 36q25 12 63 15q72 4 110 -33v-1l3 -2q17 -16 38 -62q16 -81 -24 -122q-6 -6 -12 -10q-31 -23 -45 -34q-33 -36 -29 -79q14 -53 69 -107 q40 -40 98 -69v-2q-3 0 -18 6q-37 10 -106 31q-32 13 -62 31q-38 23 -74 54l-1 1q-20 20 -28 27q-28 28 -56 71q-24 40 -29 71q-9 42 0 82z" />
<glyph unicode="&#x1039;&#x1011;" horiz-adv-x="104" d="M-1461 -481q0 167 123 285q123 115 306 115q234 0 359 -169q127 169 355 169q188 0 310 -113q125 -116 125 -287q0 -177 -125 -290q-125 -117 -310 -117q-227 0 -355 172q-127 -172 -359 -172q-179 0 -304 117q-125 113 -125 290zM-1315 -481q0 -56 22 -103t60.5 -79.5 t89.5 -52.5t111 -20q103 0 186 55.5t101 148.5q-2 13 -3 26t-1 25t1 25.5t3 28.5q-9 44 -35.5 78.5t-65 60.5t-87 39.5t-99.5 13.5q-60 0 -111 -20t-89.5 -53t-60.5 -77t-22 -96zM-596 -427q2 -15 2 -28.5v-25.5v-25.5t-2 -25.5q16 -93 94.5 -148.5t183.5 -55.5 q60 0 113.5 20t93 52.5t62.5 79.5t23 103t-22 102t-61.5 78t-92.5 49t-116 17q-107 0 -184.5 -54.5t-93.5 -137.5z" />
<glyph unicode="&#x1039;&#x1012;" horiz-adv-x="2" d="M-1194 -53l2 1q29 -58 69 -98q54 -55 107 -69q43 -4 78 29q12 13 35 44q3 5 9 12q41 40 122 25q46 -22 63 -39l2 -2h1q37 -39 32 -110q-3 -39 -15 -64q-10 -26 -35 -49q-40 -41 -96 -54q-40 -8 -82 0q-31 6 -71 29q-43 29 -71 56q-6 8 -27 28l-2 2q-31 34 -53 74 q-18 30 -32 61q-22 69 -31 106q-5 16 -5 18zM-1194 -908q0 3 5 19q10 37 31 105q13 32 32 63q23 38 53 73l2 1q20 20 27 28q28 28 71 56q40 24 71 29q42 9 82 0q56 -12 96 -52q24 -24 35 -50q12 -25 15 -64q4 -72 -32 -109h-1l-2 -4q-16 -17 -63 -37q-81 -16 -122 23 q-6 6 -9 12q-23 31 -35 45q-36 33 -78 29q-53 -14 -107 -68q-40 -40 -69 -99h-2zM-986 -294q59 231 392 228q152 -5 260 -61q140 -79 140 -211q0 -88 -71 -152q66 -71 66 -145q0 -236 -395 -248q-294 -8 -385 191q-3 10 -4 17.5t-1 14.5q0 71 76 71q44 0 66 -44 q46 -106 248 -100q225 4 243 91q10 69 -93 83q-10 -2 -25 -3h-63q-77 0 -77 74q0 81 77 81h63h10h7q117 15 101 80q-27 111 -243 111q-219 0 -242 -111q-13 -64 -75 -63q-37 0 -62 28.5t-13 67.5z" />
<glyph unicode="&#x1039;&#x1013;" horiz-adv-x="2" d="M-1104 -479q0 167 133 283q129 115 323 115q191 0 327 -113q135 -113 135 -285q0 -177 -135 -288q-138 -117 -327 -118q-191 0 -323 118q-133 112 -133 288zM-950 -479q0 -52 23 -102q108 115 274 115q172 0 288 -115q23 46 23 102q0 54 -24 100t-65.5 79t-98 50 t-118.5 17q-64 0 -117.5 -20t-95.5 -52.5t-65.5 -77t-23.5 -96.5zM-822 -692q79 -41 174 -41q91 0 177 49q-69 64 -182 63q-98 0 -169 -71z" />
<glyph unicode="&#x1039;&#x1014;" d="M-1052 -625q0 71 43 129q61 88 187 89q103 0 209.5 -60t210.5 -137q6 -4 21.5 -15.5t36.5 -22.5v21q-10 67 -96 115q-17 10 -57.5 20.5t-108.5 22.5q-157 29 -213 115q-23 39 -23 86q0 73 52 122q69 59 177 59q97 0 166 -44q3 -3 7 -5q5 -4 11 -9l3 -4l-123 -101 q-24 11 -64 11q-46 0 -77 -22q-4 -4 0 -7q17 -32 223 -74q98 -17 182 -93q79 -71 91 -175q8 -58 -19 -119q19 -13 38.5 -23t39.5 -19q41 -34 41 -69q0 -81 -73 -81q-22 0 -160 79q-140 -59 -342 -47q-246 14 -319 100q-64 71 -64 158zM-903 -633q0 -25 24.5 -44t77.5 -34.5 t141 -21.5q81 -8 164 6h-4q-52 42 -194 129q-71 44 -125 44q-42 0 -67 -32q-17 -22 -17 -47zM-638 -112q9 15 35 40q53 28 90 9l10 -5q20 -17 33 -25q30 -15 60 -4q33 22 60 71q18 34 26 82h1q1 -1 0 -14q2 -28 1 -79q-2 -24 -8 -49q-8 -30 -20 -62l-2 -1q-9 -19 -13 -26 q-12 -25 -37 -52q-23 -24 -44 -36q-26 -14 -55 -17q-42 -3 -78 15q-21 12 -35 27q-12 15 -24 41q-17 49 0 83q1 0 0 1v1z" />
<glyph unicode="&#x1039;&#x1015;" horiz-adv-x="2" d="M-1085 -539q0 205 167 341q27 17 51 17q81 0 81 -70q0 -28 -27 -53q-119 -98 -118 -235q0 -99 84.5 -160.5t217.5 -61.5q135 0 220 66q81 57 81 156q0 142 -117 235q-27 25 -27 51q0 72 79 72q27 0 51 -17q166 -143 166 -341q1 -169 -134 -264q-135 -94 -329 -94 q-177 0 -302 85q-144 106 -144 273zM-1082 34q2 1 19 -2q38 -3 108 -15q32 -5 64 -19q44 -17 83 -42l-1 -1q12 -8 20 -13l8 -7l5 -3q30 -22 65 -61q27 -33 39 -65q14 -41 13 -81q-5 -56 -37 -101q-18 -29 -42 -44q-24 -12 -60 -22q-71 -16 -116 13q2 0 1 1l-3 1 q-17 14 -48 54q-29 80 7 127q5 8 8 11q28 26 40 41q28 40 20 80q-24 51 -88 95q-44 32 -105 53zM-585 -266q0 40 16 80q13 31 43 62q37 39 68 58l4 3l10 6q9 6 20 12l-1 2q40 23 84 38q33 13 66 16q69 9 108 9q18 2 20 2q-63 -18 -108 -49q-66 -41 -92 -90q-11 -40 15 -81 q11 -15 37 -43q4 -3 9 -11q31 -49 -1 -127q-31 -38 -49 -52h-4q-1 -1 2 -2q-47 -26 -118 -8q-34 13 -57 26q-23 15 -40 46q-30 46 -32 103z" />
<glyph unicode="&#x1039;&#x1016;" horiz-adv-x="2" d="M-1261 -123q2 1 17 8q34 16 100 45q33 12 68 18q43 8 91 7h1q29 -2 39 -2q40 -2 89 -17q44 -15 69 -34q33 -26 53 -63q28 -50 24 -106q-2 -35 -14 -60q-11 -25 -38 -52q-52 -51 -105 -49l-1 1h-3q-24 1 -70 22q-65 51 -61 108q0 10 2 15q9 38 12 56q1 49 -31 78 q-45 30 -121 35q-56 4 -120 -12zM-1104 -469q0 103 62.5 210t173.5 168q17 10 37 10q75 0 75 -79q0 -39 -36 -61q-156 -91 -157 -248q0 -117 87 -190.5t220 -73.5t218 75q-165 59 -207 212q-12 54 -11 98q0 135 110 235q40 57 101 25q245 -126 245 -381q0 -176 -128 -294 q-127 -117 -328 -120q-194 -2 -329 116q-133 117 -133 298zM-479 -407q28 -81 136 -110q2 12 3.5 24t1.5 24q0 121 -118 214q-46 -68 -23 -152z" />
<glyph unicode="&#x1039;&#x1017;" horiz-adv-x="2" d="M-1098 -473q0 54 15.5 110.5t45 106.5t72.5 92.5t97 72.5q29 12 49 12q61 0 59 -83q-5 -50 32 -89t86 -39q44 0 75.5 39.5t29.5 88.5q-2 83 58 83q25 0 45 -9q119 -52 186 -160t67 -225q0 -177 -131 -292q-133 -117 -328 -120q-196 -5 -326 114q-133 119 -132 298z M-944 -473q0 -57 23 -104.5t63.5 -82t96 -54t121.5 -19.5q64 0 119 19.5t96.5 54t65 82t23.5 104.5q0 112 -78 186q-69 -157 -228 -157q-157 0 -241 150q-61 -79 -61 -179z" />
<glyph unicode="&#x1039;&#x1018;" horiz-adv-x="62" d="M-1714 -74l2 1q29 -58 69 -98q54 -55 107 -69q43 -4 79 29q12 13 34 44q3 5 10 12q41 40 122 25q46 -22 62 -39l2 -2h1q37 -39 33 -110q-3 -39 -15 -65q-11 -26 -36 -49q-40 -41 -96 -53q-40 -8 -82 0q-31 6 -71 29q-43 29 -71 56q-6 8 -27 28l-1 2q-31 34 -54 73 q-18 30 -31 62q-22 69 -31 105q-5 16 -6 19zM-1714 -908q0 3 6 19q10 37 31 105q13 32 31 63q23 38 54 73l1 1q20 20 27 28q28 28 71 56q40 24 71 29q42 9 82 0q56 -12 96 -52q25 -24 36 -50q12 -25 15 -64q4 -72 -33 -109h-1l-2 -4q-16 -17 -62 -37q-81 -16 -122 23 q-6 6 -10 12q-23 31 -34 45q-36 33 -79 29q-53 -14 -107 -68q-40 -40 -69 -99h-2zM-1516 -660q0 31 25.5 57t59.5 26q39 0 57 -44l5 -2q108 -110 249 -110q129 0 211.5 66t88.5 192q-2 54 -27.5 99t-65 77t-93.5 49t-114 17q-158 0 -230 -84l-19 -14q-29 -57 -72 -57 q-36 0 -57.5 29.5t-9.5 71.5q2 22 39 66q114 140 349 140q239 0 374 -177q124 177 363 177q178 0 310 -113q135 -115 134 -296q0 -171 -129 -285q-135 -115 -300 -115h-25t-25 2q-51 0 -69 10q-51 23 -51 71q0 79 72 78q10 0 28 -4.5t29 -4.5q132 -15 240 78q82 66 82 170 q0 110 -82 178q-91 79 -208 79q-120 0 -216 -79q-67 -56 -76 -154v-20q0 -166 -128 -285q-129 -117 -323 -117q-206 0 -345 140q-8 10 -18.5 22t-24.5 26q0 5 2 6q-10 12 -10 34zM-596 -728q12 56 53 96q23 25 49 36q25 12 64 15q72 4 110 -32v-1l3 -3q17 -16 38 -62 q16 -81 -24 -122q-6 -6 -12 -10q-31 -23 -45 -34q-33 -36 -29 -79q14 -53 69 -106q40 -40 98 -69v-3q-3 0 -18 6q-37 10 -106 31q-32 13 -63 31q-38 23 -73 54l-1 1q-20 20 -28 27q-28 28 -56 71q-24 40 -29 72q-9 42 0 81z" />
<glyph unicode="&#x1039;&#x1019;" horiz-adv-x="2" d="M-1098 -471q0 52 17 105.5t48 105.5t74.5 95.5t100.5 73.5q17 10 37 10q73 0 73 -79q0 -39 -35 -61q-162 -96 -161 -250q0 -39 9 -69q115 113 295 113q179 0 294 -115q10 32 10 71q0 157 -159 246q-47 22 -47 65q0 81 81 81q20 0 37 -9q243 -131 243 -383 q0 -177 -131 -294q-129 -120 -328 -120q-98 0 -208 41q-115 52 -165 130q-85 108 -85 243zM-1082 67q1 1 18 -2q34 -3 100 -14q30 -4 61 -19q41 -16 76 -38l-1 -2q11 -6 19 -12l7 -6l5 -3q28 -19 61 -57q26 -31 38 -61q13 -38 10 -74q-4 -53 -34 -95q-17 -28 -40 -41 q-22 -12 -55 -21q-66 -14 -108 13q1 0 0 1h-2q-17 14 -44 51q-28 73 5 118q5 8 9 11q26 24 36 37q27 37 19 75q-23 47 -82 88q-41 31 -98 51zM-846 -669q86 -64 206 -64q118 0 203 64q-81 88 -203 88t-206 -88zM-619 -213q0 37 15 74q12 29 41 58q33 36 63 54l4 3l9 6 q9 5 19 10l-1 2q37 22 79 35q31 12 61 15q65 9 100 10q17 1 19 1q-58 -17 -100 -45q-61 -39 -87 -84q-10 -38 14 -76q11 -15 36 -40q3 -4 7 -10q30 -45 0 -119q-29 -36 -47 -49h-2q-1 -1 1 -2q-44 -25 -110 -6q-32 11 -53 24q-22 14 -38 43q-28 43 -30 96z" />
<glyph unicode="&#x1039;&#x101c;" horiz-adv-x="2" d="M-1823 -486q0 182 132.5 294.5t314.5 112.5q179 0 316 -112q91 -79 125 -219q17 -25 14 -49q-6 -114 87 -196.5t221 -82.5q120 0 211 78q75 66 75 174q0 109 -75 174q-106 91 -244 81q-14 0 -36 -7q-41 -10 -71 15t-30 61q0 49 54 69q37 12 77 12q185 22 348 -115 q129 -110 129 -290q0 -179 -128.5 -289t-309.5 -110q-184 0 -322 112q-98 81 -128 229q-12 14 -12 36q0 125 -83 199q-98 81 -218 80q-123 0 -208 -73t-85 -184q0 -102 77 -166q110 -98 242 -81q13 0 33.5 6t30.5 6q77 0 77 -79q0 -58 -69 -78q-25 -4 -59 -5q-25 -2 -51 -2 q-162 0 -302 118q-133 106 -133 281zM-1528 -1041q58 29 98 69q55 54 69 106q4 43 -29 79q-14 12 -46 35q-5 3 -12 9q-40 41 -23 122q20 46 37 63l4 2v1q38 37 110 32q39 -3 63 -15q26 -10 50 -35q41 -40 53 -96q9 -40 0 -82q-5 -31 -30 -71q-28 -43 -56 -72q-8 -6 -28 -27 l-1 -1q-36 -31 -73 -53q-30 -18 -62 -32q-69 -22 -106 -31q-15 -5 -18 -5v2zM-854 -152q8 40 32 75q17 27 55 55q42 28 78 44q10 3 37 14l1 1q45 15 88 20q36 5 70 6q72 -8 109 -13q16 0 20 -3l-1 -1q-65 -4 -117 -26q-72 -28 -105 -72q-20 -38 -4 -83q8 -16 28 -49 q3 -5 8 -14q20 -53 -26 -121q-37 -36 -59 -43l-4 -1l-1 -1q-49 -19 -113 13q-34 18 -53 38t-32 52q-22 53 -11 109z" />
<glyph unicode="&#x1039;&#x101e;" d="M-1886 3h2q22 -61 55 -106q46 -61 97 -82q43 -10 82 18q14 12 40 40q3 5 10 10q45 36 125 8q43 -27 58 -46l1 -2h2q30 -43 16 -114q-8 -39 -24 -62q-13 -24 -41 -43q-44 -36 -102 -40q-41 -3 -81 11q-30 9 -66 37q-41 34 -63 65q-6 8 -24 31l-1 3q-26 39 -44 79 q-13 32 -22 65q-14 71 -17 109q-3 17 -3 19zM-1870 -1015q0 3 3 20q3 37 17 108q9 32 22 66q18 41 44 78l1 2q17 24 24 33q23 30 63 64q36 28 66 37q40 15 81 12q58 -5 102 -41q28 -18 41 -43q16 -24 24 -62q14 -71 -16 -113l-2 -1l-1 -2q-14 -19 -57 -46q-80 -27 -125 8 q-8 5 -11 10q-26 28 -40 40q-39 29 -82 19q-51 -22 -97 -83q-33 -45 -55 -106h-2zM-1734 -759l141 103q14 -22 29 -37v2q86 -83 193 -83q108 0 195 83v-2q39 42 60 90.5t21 106.5q0 110 -81 196q-87 81 -195 81q-107 0 -193 -81q-22 -22 -40 -52l-118 127q18 26 35 45 q133 129 316 129t318 -129q129 -134 129 -316q0 -112 78 -197v2q87 -83 199 -83q108 0 194 83v-2q81 82 81 197q0 114 -81 196q-86 81 -194 81q-31 0 -61 -6l-94 147q72 27 155 27q189 0 315 -131v2q130 -134 130 -316q0 -185 -130 -316v1q-126 -130 -315 -130 q-180 0 -316 129q-15 13 -25.5 27t-20.5 30l-47 -57q-136 -129 -315 -129q-94 0 -171.5 33.5t-144.5 93.5q-28 26 -47 55zM-847 -223q1 32 19 73q23 47 47 79q6 8 23 30l2 2q30 34 66 63q28 22 57 37q65 32 101 46q15 8 18 7v-1q-53 -37 -89 -81q-47 -60 -55 -115 q2 -44 40 -74q15 -11 49 -28q5 -2 13 -9q45 -34 40 -118q-15 -49 -30 -66l-2 -2v-3q-33 -41 -105 -45q-39 -2 -65 7q-28 8 -53 28q-46 34 -65 88q-14 39 -11 82z" />
<glyph unicode="&#x1039;&#x1021;" d="M-1978 -1015q0 3 3 20q3 37 18 108q9 32 21 66q18 41 44 78l1 2q17 24 24 33q23 30 64 64q36 28 65 37q40 15 81 12q58 -5 103 -41q28 -18 41 -43q16 -24 23 -62q14 -71 -16 -113l-2 -1l-1 -2q-14 -19 -57 -46q-80 -27 -125 8q-8 5 -11 10q-26 28 -40 40q-39 29 -82 19 q-51 -22 -97 -83q-33 -45 -55 -106h-2zM-1962 -40h2q22 -61 55 -107q46 -61 97 -82q43 -10 82 19q14 12 40 40q3 5 11 9q45 36 125 9q43 -27 57 -46l1 -2h2q30 -43 17 -114q-8 -39 -24 -62q-13 -24 -41 -43q-44 -36 -103 -40q-41 -3 -80 11q-30 9 -66 37q-41 34 -64 65 q-6 8 -23 31l-2 2q-26 39 -44 80q-13 32 -21 65q-14 71 -18 109q-3 17 -3 19zM-1801 -741l154 64q91 -135 238 -135q32 0 70.5 10.5t68.5 27.5q-44 9 -74 27t-58 49q-64 117 -64 175q0 77 70 160q30 30 58 50t62 28q-81 36 -133 36q-88 0 -161 -50q-41 -28 -68 -65l-147 78 q46 70 119 121q116 83 257 83q116 0 274 -85q28 -22 53 -45t42 -49q12 18 20.5 28.5t18.5 20.5q132 130 315 130q184 0 313 -130q128 -127 128 -311q0 -182 -131 -316q-119 -115 -272 -128q-12 -2 -26 -2h-24q-47 0 -90 18t-76 49.5t-50 73.5t-17 92q0 51 17 93t50 73 t75.5 49.5t90.5 18.5q89 0 164 -68q31 -28 47 -56.5t22 -67.5q25 37 39.5 79.5t14.5 91.5q0 58 -21 105t-60 90v-2q-41 38 -87.5 59.5t-106.5 21.5q-108 0 -196 -84q-65 -69 -77 -151h-129l-69 27q-32 19 -49 19q-20 -4 -38.5 -10.5t-29.5 -18.5v2q-2 0 -2 -4l-20 -42 l-6 -12q2 -34 29 -63t63 -29q5 0 19.5 5.5t33.5 15.5q46 24 72 24q95 0 94 -95l-8 -46q-125 -260 -410 -260q-156 0 -268 84q-77 57 -124 146zM-769 -743q0 -29 23.5 -51.5t53.5 -22.5q29 0 55 22.5t26 51.5q0 40 -26 62.5t-55 22.5q-30 0 -53.5 -22.5t-23.5 -62.5z" />
<glyph unicode="&#x102b;&#x103a;" horiz-adv-x="1108" d="M-584 2007q1 47 7 88q18 88 33 135q3 24 7 24l1 1q-5 -84 13 -152q24 -96 74 -146q45 -31 105 -17q23 6 67 19q6 13 19 16q70 18 150 -52q37 -54 44 -84l-1 -2q0 -1 2 0q16 -68 -34 -144q-29 -40 -56 -60q-29 -21 -72 -32q-69 -17 -140 3q-49 17 -89 52q-33 29 -60 78 q-32 58 -44 106q-4 14 -11 51l-3 1q-10 59 -12 115zM-384 1732q-5 139 125 243q127 106 265 105q183 -5 310 -140q127 140 296 140q144 0 268 -105q127 -104 125 -243q-5 -86 -87 -84q-85 5 -85 91q0 67 -71 115q-71 52 -145 52q-41 0 -79.5 -13.5t-69 -38t-49 -55 t-18.5 -63.5v-140q0 -17 -2 -23v-1512q0 -88 -86 -88q-88 0 -89 88v1675q0 37 -18 68t-50 53t-71.5 35.5t-80.5 13.5q-77 0 -145 -52q-71 -49 -71 -115q0 -91 -89 -91q-81 0 -83 84zM656 1817l2 -1l-2 6q9 28 45 77q78 66 145 49q10 -4 17 -8q41 -20 64 -26q56 -15 100 15 q46 47 71 138q18 66 14 147l4 -2q2 -1 3 -22q13 -45 30 -130q8 -40 5 -83q-1 -56 -11 -111l-3 -2q-9 -36 -10 -47q-12 -46 -42 -102q-26 -47 -59 -74q-39 -32 -86 -48q-67 -23 -134 -2q-39 9 -65 31q-29 20 -55 60q-49 72 -33 135z" />
<glyph unicode="&#x103a;&#x103a;" d="M-1166 1688q55 139 174 223t286 104q19 1 39.5 2t39.5 1q218 0 388 -102q213 -135 239 -444h-171q-34 196 -174 301t-364 118q-89 -1 -172.5 -20.5t-142.5 -56.5q-63 -45 -123 -138zM-1143 1470q0 103 73 195q24 29 48 49q60 49 135.5 76.5t166.5 27.5q93 0 171.5 -23 t147.5 -66q133 -91 133 -229v-30l-164 2q0 67 -75 124q-72 67 -194 73q-30 0 -61.5 -4t-67.5 -16q-75 -25 -101 -67q-36 -51 -36 -90q0 -42 23 -83t49 -53q28 -12 80.5 -29.5t113.5 -21.5v-148q-91 2 -169.5 27t-137.5 66q-63 47 -99 103t-36 117z" />
<glyph unicode="&#x104e;&#x25cc;&#xe390;" horiz-adv-x="1304" d="M119 540q0 233 158 397q163 165 403 165q264 0 441 -204q13 -15 21.5 -27.5t18.5 -24.5l4 -2q0 -2 6 -8q0 -5 -6 -5q13 -24 13 -44q0 -37 -28.5 -64t-65.5 -27q-52 0 -75 52v8q-5 2 -23 29q-110 140 -306 140q-165 0 -278 -113q-110 -110 -110 -272q0 -157 115 -278 q115 -114 273 -114q198 0 294 121q12 20 51 21q52 0 101 -29.5t49 -69.5v-993q0 -88 -85 -88q-88 0 -89 88v866q-142 -91 -321 -91q-229 0 -395 167q-166 171 -166 400zM342 1444q0 141 106 221q-19 29 -36 67t-17 75q0 45 18 85t47.5 70t69 47t82.5 17q89 0 143 -48 q27 -34 48.5 -72.5t32.5 -84.5l-133 -19q-46 27 -64 39h3q-5 3 -12.5 5.5t-18.5 2.5q-17 0 -29.5 -14t-12.5 -28q0 -9 8.5 -23.5t21 -27.5t26.5 -24t29 -11h103l1 -161h-102q-23 0 -47.5 -10.5t-44.5 -27t-34.5 -39t-14.5 -42.5q0 -40 28.5 -70t68.5 -30q45 0 68 27 q13 14 22.5 34t15.5 48l169 -37q-17 -88 -60 -141q-39 -44 -94.5 -73t-120.5 -29q-54 0 -104 22.5t-87 59.5t-58 86t-21 106zM701 677h1l-1 5q1 30 22 90q59 86 132 86q12 0 19 -1q47 -11 71 -11q60 0 95 42q34 59 35 158q0 70 -25 149l3 -1q1 -1 9 -21q26 -40 67 -121 q16 -39 27 -81q14 -56 17 -114l-1 -2q1 -37 1 -51q0 -49 -14 -113q-15 -54 -39 -87q-29 -44 -72 -74q-60 -40 -134 -37q-42 0 -74 14q-33 12 -70 43q-67 60 -69 127z" />
<glyph unicode="&#x1039;&#x1051;" d="M-1171 -9q2 0 20 -3q38 -4 109 -17q32 -9 64 -23q41 -17 80 -43l2 -1q24 -17 32 -24q30 -23 64 -63q29 -36 38 -66q14 -40 11 -82q-4 -57 -40 -102q-19 -27 -44 -41q-23 -15 -62 -23q-71 -14 -113 16v2l-2 1q-19 14 -46 58q-27 79 7 125q5 8 11 10q28 26 40 40 q28 39 18 81q-20 52 -82 98q-46 33 -107 55v2zM-1103 -489q0 149 85 260q43 56 99 95l112 -132q-39 -25 -69 -62q-59 -72 -60 -167q0 -54 24 -105t61.5 -89t88.5 -60t111 -22q57 0 109.5 22t91 60t59.5 89t21 105q0 95 -55 165q-29 36 -65 61l98 139q59 -41 106 -100 q86 -111 87 -259q0 -92 -36 -172.5t-98 -140t-144 -94t-175 -34.5q-95 0 -176.5 34.5t-142.5 94t-96.5 140t-35.5 172.5zM-742 -552q0 36 27 61t65 25t65 -25t27 -61t-27 -61t-65 -25t-65 25.5t-27 60.5zM-572 -315q-3 42 10 82q10 30 38 66q34 41 65 64q9 6 32 23l2 1 q38 26 79 43q33 14 66 23q71 13 108 17q17 3 20 4v-3q-61 -22 -107 -55q-61 -46 -83 -98q-10 -42 20 -81q11 -14 39 -39q5 -3 10 -11q34 -46 9 -125q-28 -43 -48 -57l-2 -1v-3q-42 -30 -113 -16q-38 8 -61 23q-25 14 -43 41q-37 45 -41 102z" />
<glyph unicode="&#x1039;&#x1050;" d="M-1171 -1021q60 23 107 56q61 46 82 97q10 43 -18 82q-12 14 -40 40q-5 3 -11 11q-34 45 -7 125q27 43 46 56l2 1v3q42 30 113 16q39 -8 62 -23q25 -14 44 -41q36 -44 40 -103q3 -41 -11 -80q-9 -31 -38 -66q-34 -41 -64 -64l-32 -24l-2 -1q-39 -26 -80 -44 q-32 -13 -64 -21q-71 -14 -109 -18q-17 -3 -20 -3v1zM-1103 -541q0 92 35.5 172t96.5 140t142.5 94.5t176.5 34.5q93 0 175 -34.5t144 -94.5t98 -140t36 -172q0 -149 -87 -260q-47 -58 -106 -99l-98 139q37 25 65 60q55 70 55 165q0 54 -21 105.5t-59.5 89t-91 59.5 t-109.5 22q-60 0 -111 -22t-88.5 -59.5t-61.5 -89t-24 -105.5q0 -95 60 -167q30 -37 69 -62l-112 -132q-55 39 -99 95q-85 112 -85 261zM-742 -479q0 36 27 61.5t65 25.5t65 -25.5t27 -61.5t-27 -61t-65 -25t-65 25.5t-27 60.5zM-572 -717q4 58 41 103q18 27 43 41 q24 16 61 23q71 14 113 -16v-3l2 -1q19 -13 48 -56q26 -80 -9 -125q-5 -8 -10 -11q-28 -26 -39 -40q-29 -39 -20 -82q22 -51 83 -97q45 -33 107 -56v-1q-3 0 -20 3q-37 3 -108 17q-32 9 -66 22q-41 18 -79 44l-2 1q-24 17 -32 24q-30 23 -65 64q-28 34 -38 65q-14 40 -10 81 z" />
<glyph unicode="&#x1039;&#x105a;" d="M-913 -304q0 51 21.5 94.5t60.5 78.5t91 55t115 20t118 -19t96 -52t64 -78t23 -96q0 -31 -13 -64.5t-31 -71.5l-67 -108q-45 -69 -46 -119q0 -30 22 -39l-10 2q2 0 6 -2.5t6 -2.5q13 -2 67 -37l-96 -110q-91 11 -127 69q-31 53 -32 123q0 82 53 174l15 27l-2 -2l71 121 q5 9 9.5 20t4.5 19q0 40 -36.5 68t-91.5 28t-90 -29t-35 -69l6 -14q6 -20 7.5 -43t1.5 -42l-150 -14q-31 71 -31 113z" />
<glyph unicode="&#x1039;&#x105b;" horiz-adv-x="376" d="M-1060 -501q0 96 35 178t98 152q143 135 333 134q188 0 331 -134q34 -42 55.5 -72.5t29.5 -57.5h6q16 -77 76 -133v2q50 -51 121 -71l-49 -176q-120 38 -199 120h6l-8 7q-10 -11 -12 -14q-80 -73 -175 -73q-106 0 -178 71t-72 176t73 176q6 4 3 2t2 3h-10 q-121 0 -200 -88v3q-89 -87 -90 -205q0 -123 90 -207q40 -42 91.5 -64t108.5 -22q110 0 197 79l106 -3q15 -40 50.5 -54.5t97.5 -14.5q77 3 123.5 27.5t51.5 115.5v1738h190v-1781q0 -285 -266 -286h-181q-107 6 -172 50q-96 -47 -197 -47q-193 0 -333 135q-63 70 -98 151 t-35 183zM-488 -399q0 -32 24.5 -56t56.5 -24q15 0 31.5 8.5t29.5 16.5q18 17 23 39q-6 14 -11.5 33.5t-9.5 37.5l-27 27q-25 7 -36 7q-31 0 -56 -22.5t-25 -66.5zM-38 1036q0 41 19 79q12 31 43 63q38 37 70 56q9 5 34 21v1q41 23 85 37q32 10 66 14q71 8 110 9q16 3 17 2 l4 -2q-65 -16 -114 -46q-65 -40 -90 -90q-13 -41 12 -82q11 -15 36 -43q3 -4 10 -12q29 -50 -3 -125q-30 -40 -52 -52l-3 -2l1 -1q-46 -27 -114 -6q-37 11 -60 28q-22 16 -39 45q-32 47 -32 106z" />
<glyph unicode="&#x1039;&#x105c;" d="M-1167 -556q0 98 37 184t100 150.5t149 101.5t184 37q97 0 183.5 -37t151.5 -101.5t102.5 -150.5t37.5 -184q0 -99 -37.5 -185.5t-102.5 -151t-151.5 -102.5t-183.5 -38q-98 0 -184 38t-149 102.5t-100 151t-37 185.5zM-993 -563q0 -61 24.5 -115t63 -93.5t93 -63.5 t117.5 -24q60 0 113.5 24t94.5 63.5t63.5 93.5t22.5 115t-22.5 115.5t-63.5 94.5t-94.5 63.5t-113.5 23.5q-63 0 -117.5 -23.5t-93 -63.5t-63 -94.5t-24.5 -115.5zM-888 -559q0 82 56.5 139.5t138.5 57.5q79 0 135.5 -57.5t56.5 -139.5q0 -79 -56.5 -135t-135.5 -56 q-82 0 -138.5 56t-56.5 135zM-775 -559q0 -32 25 -56.5t57 -24.5q33 0 58 24t25 57q0 37 -25 61t-58 24q-32 0 -57 -24.5t-25 -60.5z" />
<glyph unicode="&#x1062;&#x103a;" horiz-adv-x="530" d="M-199 1715q0 149 107 258q108 108 260 107q150 0 265 -96q111 -90 123 -205q8 -86 -81 -91q-83 -8 -90 78q-3 57 -68 97.5t-149 40.5q-78 0 -128.5 -45.5t-59.5 -106.5q-22 -125 117 -250q13 -13 74.5 -51t178.5 -101q49 -27 49 -75q0 -93 -85 -93q-30 0 -187 91 q-50 27 -87.5 52t-62.5 46q-177 157 -176 344zM-26 913v181h408v-1094h-189v913h-219zM177 1924l1 -1l1 4q13 27 59 67q88 49 151 17q11 -6 16 -10q37 -29 56 -40q53 -26 102 -7q56 37 98 120q33 60 46 141l2 -2q1 -2 -1 -23q3 -46 2 -133q-3 -41 -12 -83q-14 -54 -36 -106 l-1 -1l-22 -44q-20 -41 -62 -91q-37 -41 -73 -59q-44 -25 -93 -29q-71 -8 -133 26q-36 19 -58 45q-23 26 -41 69q-31 81 -2 140z" />
<glyph unicode="&#x1039;&#x1075;" d="M-1131 -503q0 94 33.5 169t93.5 140q130 126 321 126q181 0 315 -126h-2q135 -128 135 -309q0 -180 -133 -326q-39 -34 -84 -61l-86 143q27 17 50 37v-2q40 51 61 102t21 107q0 108 -82 194q-86 78 -195 77q-117 0 -200 -77q-32 -29 -50 -65t-25 -75q221 -68 211 -239 l-6 -40q-3 -26 -7.5 -48t-14.5 -33q-13 -38 -47.5 -69t-84.5 -47l-84 -11q-80 11 -128 35l44 164q11 -4 23 -14t24 -15l58 -3q46 -1 57 64q-4 78 -69 94l-144 38l-5 62v8zM-625 -743q4 58 41 103q18 27 43 41q24 15 61 23q71 14 114 -17v-2l2 -1q19 -14 47 -57 q26 -79 -9 -124q-5 -8 -10 -12q-28 -26 -39 -39q-29 -40 -20 -82q22 -52 83 -97q45 -33 107 -56v-1q-3 -1 -20 3q-37 3 -108 18q-32 8 -66 21q-41 18 -79 43l-2 1l-32 24q-30 24 -65 64q-28 36 -37 66q-14 40 -11 81z" />
<glyph unicode="&#x1039;&#x1076;" d="M-1033 -655q0 47 18 89.5t49 74t72 50t91 18.5q103 0 171 -67.5t68 -164.5q0 -74 -45 -136q100 9 169 79q82 82 82 201q0 108 -82 192q-79 74 -172 80q-16 -84 -73 -124t-145 -43q-107 13 -151 66t-44 138q0 51 16 121l160 -11q-18 -72 -19 -100q0 -57 43 -70 q33 2 54 42.5t13 127.5q58 16 118 19h18q175 -8 300 -129q135 -130 134 -309q0 -95 -33 -173.5t-98 -144.5q-130 -130 -321 -130q-171 0 -307 123q-12 3 -21 14q-65 75 -65 167zM-881 -651q0 -34 25.5 -57.5t57.5 -23.5q36 0 61 23t25 58q0 37 -25 61t-61 24 q-32 0 -57.5 -24t-25.5 -61z" />
<glyph unicode="&#x1039;&#x1078;" d="M-1808 -539q0 191 130 320q129 130 318 131q183 0 319 -131h-2q16 -12 27 -25t21 -30q11 19 22.5 32t23.5 23q130 130 318 131q184 0 322 -131q129 -129 129 -320q0 -186 -129 -318q-137 -133 -322 -133q-188 0 -318 133q-131 132 -131 318q0 61 -21.5 108.5t-60.5 89.5 q-91 84 -198 84q-60 0 -108.5 -22t-89.5 -59v1q-83 -89 -83 -202q0 -111 83 -198q41 -38 89 -60t109 -22q4 0 11 1t30 5l-27 -177q-203 0 -332 133q-129 132 -130 318zM-1638 -1171q60 23 106 56q61 45 82 97q10 42 -18 82q-12 13 -40 39q-5 4 -11 12q-34 45 -7 124 q27 43 46 57l2 1v2q42 31 113 18q39 -9 62 -24q25 -14 44 -41q36 -44 40 -102q3 -41 -11 -81q-9 -31 -38 -67q-34 -40 -64 -64q-8 -5 -32 -23l-2 -2q-39 -25 -79 -43q-32 -14 -65 -21q-71 -14 -109 -17q-17 -4 -19 -4v1zM-908 -539q0 -111 81 -198q86 -82 196 -82 q113 0 201 82q82 87 82 198q0 112 -82 202v-1q-88 81 -201 81q-110 0 -196 -81v1q-81 -89 -81 -202z" />
<glyph unicode="&#x1039;&#x107c;" d="M-1780 -676q0 47 19.5 90t51 78t75.5 53t95 18q106 0 173 -71q73 -70 74 -168q0 -81 -49 -139q100 12 171 78q74 74 88 170q-2 9 -2 18.5v19.5v18t2 14q-9 45 -29.5 88t-54.5 78h2q-44 38 -95 61t-113 23q-53 0 -103 -19l-83 151q86 37 186 36q189 0 326 -131 q16 -16 29 -30t23 -26q12 16 23.5 30.5t18.5 25.5q70 66 152 98.5t178 32.5q103 0 191 -37l-73 -156q-57 25 -118 25q-116 0 -205 -84q-71 -70 -82 -168v-66q3 -45 25 -88t59 -81q32 -32 78 -53.5t93 -27.5q-44 59 -44 139q0 96 70 168q69 71 174 71q52 0 95.5 -18t76 -53 t51.5 -77.5t19 -90.5q0 -95 -69 -171l-1 -1q-153 -139 -340 -139q-188 0 -327 131h-3q-11 11 -20.5 23.5t-21.5 32.5q-12 -18 -23.5 -29.5t-28.5 -26.5q-138 -132 -326 -131q-186 0 -341 139q-67 78 -67 172zM-1620 -670q0 -34 25.5 -60t57.5 -26q37 0 63 25.5t26 60.5 q0 36 -26 61t-63 25q-32 0 -57.5 -25.5t-25.5 -60.5zM-1580 -171q6 41 30 76q16 27 52 55q43 31 77 48q10 3 37 15l2 1q43 15 87 23q34 5 69 6q72 -3 109 -9q17 0 20 -1v-1q-65 -8 -117 -29q-70 -31 -103 -76q-18 -40 0 -84q8 -16 29 -47q4 -5 7 -14q24 -52 -21 -123 q-36 -36 -58 -44l-2 -1l-2 -2q-49 -19 -114 10q-34 16 -54 37q-20 20 -33 51q-24 51 -15 109zM-944 -14q2 2 19 6q34 13 105 33q33 6 68 8q45 2 90 -4h3q28 -5 39 -7q37 -8 85 -28q41 -19 64 -44q30 -30 45 -67q22 -55 9 -110q-6 -32 -22 -56q-14 -24 -44 -49 q-58 -43 -109 -34l-2 2h-2q-24 4 -67 30q-58 59 -47 115q1 10 4 15q14 36 18 53q9 47 -18 82q-42 37 -118 51q-55 11 -120 3v1zM-542 -670q0 -34 25 -60t59 -26t60.5 25.5t26.5 60.5q0 36 -26.5 61t-60.5 25q-33 0 -58.5 -25.5t-25.5 -60.5z" />
<glyph unicode="&#x1039;&#x107d;" d="M-1827 -526q0 207 218 409l58 19l17 -2q78 -27 78 -85l-24 -86q0 -8 1.5 -16.5t1.5 -16.5q23 -72 93 -72q41 0 65 31t24 71q0 30 -39 76l45 130q147 -69 146 -218q0 -100 -69 -163q-37 -32 -76.5 -50t-85.5 -18q-80 0 -144 45.5t-84 115.5q-49 -66 -48 -161 q0 -114 84 -198q45 -37 95.5 -58t111.5 -21q103 0 198 79q59 61 74 134q-2 16 -3 32.5t-1 33.5q0 185 134 315q139 127 321 127q100 0 188 -38l-76 -150q-53 23 -112 23q-117 0 -204 -81h1q-83 -89 -83 -196q0 -45 10 -76v6q11 -33 30 -67t43 -63q39 -37 81 -56.5t89 -22.5 q-24 31 -33.5 63.5t-9.5 72.5q0 47 19.5 89.5t51 74t75.5 50.5t94 19t91 -19t73 -50.5t50.5 -73.5t18.5 -90q0 -96 -67 -169q-8 -9 -21 -13q-132 -123 -309 -123q-189 0 -323 130q-15 15 -24.5 25.5t-20.5 24.5q-64 -84 -151 -132t-196 -48q-191 0 -324 113q-58 54 -115 152 q-37 80 -37 172zM-821 -171l2 1v2q5 24 35 65q64 54 119 38q9 -2 14 -5q34 -17 52 -23q46 -12 83 13q40 39 59 112q15 55 13 120l1 1q1 -2 4 -19q11 -37 24 -108q4 -32 4 -68q-2 -45 -12 -91v-2q-8 -28 -9 -37q-11 -37 -36 -85q-22 -40 -47 -59q-32 -28 -71 -40 q-56 -17 -110 -1q-32 8 -54 26q-24 16 -45 49q-39 60 -26 111zM-559 -653q0 -32 23 -57t58 -25q34 0 59.5 24.5t25.5 57.5q0 37 -25.5 60.5t-59.5 23.5q-36 0 -58.5 -24t-22.5 -60z" />
<glyph unicode="&#x1081;&#x102f;" horiz-adv-x="1372" d="M-441 -317l20 -2q406 -364 786 -456l37 -19l-93 -173q-341 123 -716 577zM-154 -686l86 118l290 -178l392 746q-55 0 -104 19q-141 33 -250 138q-164 161 -164 389q0 226 164 386t399 160q234 0 398 -160q157 -152 165 -365l-192 -24v3q0 148 -107 256t-264 108 q-154 0 -264 -108t-110 -256q0 -106 53 -191q20 69 80 127q85 49 204 59q119 0 205 -71t86 -190q0 -86 -43 -150l-596 -1122zM468 291q0 -34 47.5 -60.5t101.5 -26.5q59 0 105.5 26.5t46.5 60.5q0 43 -46.5 69t-105.5 26q-54 0 -101.5 -26t-47.5 -69zM814 694h2l-2 4 q2 29 27 86q61 81 131 77q11 -2 19 -3q45 -12 67 -13q58 -2 95 36q36 56 41 149q4 69 -16 147l3 -1q2 -1 8 -20q23 -42 57 -122q15 -38 23 -80q10 -55 10 -111l-1 -2q-1 -37 -1 -49q-2 -47 -20 -109q-15 -52 -41 -84q-31 -40 -75 -64q-61 -36 -130 -31q-41 3 -71 18 q-32 14 -66 46q-63 60 -60 126zM917 -69q0 88 89 88q110 0 110 -88v-645h149q88 0 89 -90q0 -86 -89 -86h-259q-88 0 -89 88v733zM924 -847l44 157h151q379 -96 909 38l18 -8l-64 -49q-668 -278 -1058 -138z" />
<glyph unicode="&#x1081;&#x1030;" horiz-adv-x="1338" d="M-473 -295l19 -2q406 -364 787 -456l37 -20l-93 -172q-342 122 -717 576zM-165 -686l86 118l279 -178l393 746q-55 0 -105 19q-141 33 -250 138q-164 161 -164 389q0 226 164 386t399 160q234 0 399 -160q157 -152 165 -365l-192 -24v3q0 148 -107.5 256t-264.5 108 q-154 0 -264 -108t-110 -256q0 -106 54 -191q20 69 80 127q85 49 203 59q119 0 205 -71t86 -190q0 -86 -43 -150l-596 -1122zM446 291q0 -34 47.5 -60.5t101.5 -26.5q59 0 105.5 26.5t46.5 60.5q0 43 -46.5 69t-105.5 26q-54 0 -101.5 -26t-47.5 -69zM784 -69q0 88 108 88 q88 0 89 -88v-733q0 -88 -89 -88q-109 0 -108 88v733zM792 694h2l-2 4q2 29 27 86q61 81 132 77q11 -2 18 -3q45 -12 68 -13q58 -2 95 36q36 56 41 149q4 69 -16 147l3 -1q2 -1 7 -20q23 -42 57 -122q15 -38 23 -80q10 -55 11 -111l-1 -2q-1 -37 -1 -49q-2 -47 -21 -109 q-15 -52 -41 -84q-31 -40 -74 -64q-61 -36 -130 -31q-42 3 -72 18q-32 14 -65 46q-63 60 -61 126zM1111 -69q0 88 89 88q110 0 110 -88v-645h149q88 0 89 -90q0 -86 -89 -86h-259q-88 0 -89 88v733zM1118 -847l44 157h151q379 -96 909 38l18 -8l-64 -49 q-668 -278 -1058 -138z" />
<glyph unicode="&#x1081;&#x103d;" horiz-adv-x="1372" d="M-473 -295l19 -2q406 -364 787 -456l37 -20l-93 -172q-342 122 -717 576zM-122 -686l83 107l280 -167l380 746q-53 0 -100 19q-137 33 -243 138q-158 161 -158 389q0 226 158.5 386t385.5 160q226 0 385.5 -159.5t159.5 -386.5q0 -127 -50 -231l-157 102q22 61 22 129 q0 148 -104 256t-256 108q-149 0 -255.5 -108t-106.5 -256q0 -106 53 -191q19 69 76 127q83 81 197 81q115 0 198.5 -82t83.5 -201q0 -86 -41 -150l-577 -1122zM523 274q0 -45 36 -78.5t78 -33.5q45 0 80.5 33.5t35.5 78.5q0 55 -35.5 88t-80.5 33q-42 0 -78 -33t-36 -88z M613 -553q0 98 37.5 184t101 150.5t149 101t183.5 36.5q97 0 184 -36.5t151.5 -101t101.5 -150.5t37 -184q0 -99 -37 -186t-101.5 -151.5t-151.5 -101t-184 -36.5q-98 0 -183.5 36.5t-149 101t-101 151.5t-37.5 186zM789 -558q0 -63 24.5 -117.5t63 -93t92.5 -63t116 -24.5 q60 0 114.5 24.5t96 63t63 93t21.5 117.5q0 61 -21.5 114.5t-63 94t-95.5 63t-115 22.5q-63 0 -116.5 -22.5t-92 -63t-63 -94t-24.5 -114.5z" />
<glyph unicode="&#x1081;&#x1082;" horiz-adv-x="1329" d="M-500 -305l19 -2q406 -364 787 -456l37 -20l-93 -172q-342 123 -717 577zM-176 -696l87 106l279 -156l392 746q-55 0 -104 19q-141 33 -251 138q-164 161 -163 389q0 226 163.5 386t398.5 160q234 0 399 -160q157 -152 165 -365l-192 -24v3q0 148 -107 256t-265 108 q-154 0 -264 -108t-110 -256q0 -106 54 -191q20 69 80 127q85 49 204 59q119 0 205 -71t86 -190q0 -86 -43 -150l-597 -1122zM435 291q0 -34 47.5 -60.5t101.5 -26.5q59 0 105.5 26.5t46.5 60.5q0 43 -46.5 69t-105.5 26q-54 0 -101.5 -26t-47.5 -69zM645 -507 q0 99 37.5 185t100.5 150.5t149.5 101t184.5 36.5l1 -184q-64 0 -117.5 -22t-92.5 -63t-63 -93.5t-24 -114.5q0 -64 24 -117.5t63 -92.5t92.5 -63t117.5 -24q60 0 114 24t95 63t63.5 92.5t22.5 117.5l178 4q0 -98 -37 -184.5t-102.5 -151t-151 -102.5t-183.5 -38t-184.5 38 t-149.5 102.5t-100.5 151t-37.5 184.5zM781 694h3l-3 4q2 29 27 86q61 81 132 77q11 -2 18 -3q45 -12 68 -13q58 -2 95 36q36 56 41 149q4 69 -16 147l3 -1q2 -1 8 -20q23 -42 57 -122q15 -38 22 -80q10 -55 11 -111l-1 -2q-1 -37 -1 -49q-2 -47 -21 -109q-15 -52 -40 -84 q-31 -40 -75 -64q-61 -36 -130 -31q-41 3 -71 18q-32 14 -66 46q-63 60 -61 126zM1202 -599q11 69 57 120q33 39 80 60q37 18 90 23q65 4 112 -3q12 -3 48 -8h2q55 -12 107 -33q38 -17 74 -40q71 -52 106 -79q18 -12 19 -13v-5q-72 38 -140 47q-94 16 -155 -10 q-46 -26 -56 -84q-3 -24 -1 -70q0 -6 -1 -18q-12 -69 -103 -114q-60 -13 -90 -8l-3 2l-1 -1q-65 12 -112 85q-25 41 -31 74q-7 34 -2 75z" />
<glyph unicode="&#x100b;&#x1039;&#x100b;" horiz-adv-x="1322" d="M123 546q0 229 161 388.5t388 159.5q226 0 384 -159q57 -58 94 -124l-140 -129q-27 66 -83 122q-106 109 -255 109q-151 0 -256.5 -107.5t-105.5 -259.5q0 -146 105.5 -253.5t256.5 -107.5q150 0 255 107q56 59 83 125l140 -131q-32 -66 -94 -126q-158 -157 -384 -158 q-226 0 -386 158q-41 42 -70 85q-85 129 -93 301zM170 -120l120 130l62 -32q137 -61 301 -61q217 0 383 107l165 -92v-647h196v-161h-375l-3 702q-166 -73 -368 -73q-234 0 -419 92zM306 -520q4 -34 15 -62.5t30 -54.5q13 -20 32 -31q82 -59 190 -60q33 0 60 1.5t51 10.5 q49 22 83.5 52t46.5 72l-96 65q-12 -27 -24 -40t-22 -18q-16 -13 -41.5 -23.5t-57.5 -10.5q-56 0 -94 29t-38 70t38 72.5t94 31.5q66 0 99 -35q29 -20 48 -52l104 71q12 6 7.5 14.5t-18.5 19.5t-28 19t-23 13q-75 60 -189 60q-103 0 -184 -60q-38 -32 -60.5 -71t-22.5 -83z M349 -690q107 -72 240 -72q96 0 171 44l97 -52v-99h86v-109h-216l-3 120q-26 -8 -63 -12t-72 -4q-56 0 -108 9.5t-95 28.5h3l-40 14v132zM721 721q2 1 1 1l-1 2q-2 31 14 95q53 92 126 98h21q46 -5 72 -5q61 6 94 51q32 65 22 162q-5 70 -38 148h3q2 2 13 -19 q29 -41 75 -118q20 -38 37 -82q17 -53 26 -112l-1 -2q4 -38 5 -52q4 -49 -6 -114q-11 -57 -33 -96q-27 -44 -67 -78q-60 -43 -131 -49q-44 -4 -78 6q-32 12 -74 40q-73 55 -80 124z" />
<glyph unicode="&#x100b;&#x1039;&#x100c;" horiz-adv-x="1346" d="M129 540q0 233 162 395t402 161q127 0 260 -63q111 -59 179 -135l27 -32l15 -22l2 -5l8 -8q0 -4 -8 -4h-2v4v3q15 -27 15 -47q0 -37 -28.5 -64t-65.5 -27q-52 0 -75 52q-5 2 0 8l-23 27q-117 140 -304 140q-167 0 -280 -114q-110 -110 -110 -269q0 -157 115 -278 q121 -114 275 -114q206 0 297 127q13 12 24 34q22 64 83 64q88 0 89 -83q0 -40 -52 -115q-141 -202 -441 -202q-231 0 -398 167q-166 171 -166 400zM139 -675q0 69 37 148q56 115 208 115q106 0 228 -63q49 -27 49 -75q0 -93 -85 -92q-23 0 -42 11q-100 57 -148 58 q-41 0 -57 -32.5t-16 -59.5q0 -49 49 -49h404q121 0 163.5 44.5t42.5 159.5v270q-144 -71 -306 -74q-142 -8 -246 37q-81 34 -205 137q-34 27 -35 69q0 32 26 59t62 27q25 0 133 -81q91 -79 243 -82q113 -4 159 18l138 64l75 37q34 19 60 19q71 0 71 -96v-404 q0 -186 -91 -283t-290 -97h-404q-111 0 -167 61.5t-56 153.5zM751 747q1 0 0 1v2q3 30 29 91q67 82 141 77q13 -1 19 -3q46 -13 71 -17q61 -3 101 35q41 59 48 158q6 70 -14 152h2q3 0 10 -23q22 -44 56 -127q14 -41 22 -86q9 -56 9 -117l-2 -1q-1 -38 -3 -51 q-2 -49 -24 -113q-20 -54 -46 -89q-34 -40 -79 -66q-67 -33 -138 -29q-44 5 -77 20q-30 16 -67 51q-63 66 -58 135z" />
<glyph unicode="&#x100d;&#x1039;&#x100e;" horiz-adv-x="1346" d="M108 421q-15 96 39 183l7 9q29 44 81 81q206 66 206 150q0 39 -56 66q-32 10 -65 7q-41 -8 -41 -34q0 -88 -84 -89q-87 0 -87 89q0 88 83 150q79 56 173 56q98 0 173 -76q75 -77 73 -174q-5 -135 -137 -226q-20 -12 -52 -28t-78 -35q-10 -8 -28.5 -22.5t-37.5 -79.5v-29 q10 -100 125 -184q112 -85 243 -87v100l173 43v-107q111 49 175.5 151t64.5 219q0 263 -200 381q-44 29 -44 73q0 37 24 65.5t62 28.5q19 0 49 -13q133 -81 211 -233q73 -144 73 -302q0 -189 -117 -346q-115 -154 -298 -210v-665h21q88 0 88 -91q0 -84 -88 -84h-108 q-86 0 -86 89v726q-177 5 -327 125q-154 125 -194 279q-12 17 -16 44zM494 497q16 36 49 64q64 56 154 56q89 0 152.5 -56.5t63.5 -132.5q0 -77 -63 -131t-153 -54q-91 0 -154 54q-12 10 -21 20l120 48q23 -15 55 -15q38 0 66 23t28 55q0 36 -28 57.5t-66 21.5 q-39 0 -64 -22q-10 -8 -16 -18zM751 854q-8 71 23 139q24 44 64 80q33 29 87 48q61 24 110 29q15 2 52 3l1 4q60 1 115 -5q47 -8 87 -19q84 -31 130 -52q23 -6 21 -11l1 -1q-82 17 -152 9q-98 -10 -154 -53q-38 -40 -32 -101q3 -24 8 -69q12 -8 14 -22q9 -71 -73 -141 q-57 -28 -88 -31l-2 1q-1 1 0 -2q-70 -6 -137 55q-36 33 -52 62q-19 33 -23 77z" />
<glyph unicode="&#x100f;&#x1039;&#x100d;" horiz-adv-x="2555" d="M99 542q0 169 96 314q164 236 456 236q179 0 331 -101q17 -12 29.5 -22t20.5 -15q75 142 229 142q157 0 234 -142l44 32q152 108 333 108q292 0 456 -238q96 -144 96 -316q0 -307 -240 -474q-144 -93 -312 -93q-91 0 -164 25q-61 17 -61 83q0 88 83 88q23 0 68 -12.5 t69 -12.5q119 0 217 69q164 110 163 324q0 123 -65 219q-115 167 -310 167q-130 0 -228 -77l-58 -39q-23 -23 -62 -84q0 -14 -12 -39q-42 -79 -42 -147q0 -91 42 -179q12 -19 12 -39v-71q0 -108 -79 -194q-79 -81 -184 -81q-108 0 -183 81q-77 83 -77 194v73q0 23 6 37 q44 84 44 179q0 23 -7.5 47t-16 49t-16 44t-7.5 32q-10 12 -21 30.5t-26 43.5q-10 12 -81 61q-102 73 -227 73q-197 0 -307 -161q-69 -94 -69 -216q0 -199 165 -309q112 -83 235 -83q23 0 62 10.5t58 10.5q81 0 81 -88q0 -31 -17 -52t-45 -32.5t-65.5 -15t-73.5 -3.5 q-181 0 -339 105q-235 163 -235 459zM297 -985q82 -1 147 20q89 28 135 77q29 44 12 101q-8 22 -30 63q-2 5 -7 16q-20 68 42 146q49 39 77 48h4l-1 1q64 18 138 -27q40 -25 60 -53q23 -25 35 -65q23 -66 3 -134q-13 -47 -45 -88q-25 -32 -72 -61q-56 -32 -100 -45 q-12 -3 -47 -14h-1q-54 -14 -110 -19q-42 -1 -83 3q-87 14 -132 25q-20 1 -22 4zM387 -217q79 22 136 60q79 51 109 110q15 51 -17 100q-13 18 -45 52l-12 15q-38 59 3 152q36 50 60 65l4 1l-1 2q56 34 140 10q45 -13 72 -33q28 -20 51 -53q40 -58 39 -129q1 -50 -19 -97 q-15 -38 -53 -78q-44 -46 -84 -71q-10 -6 -41 -26l-1 -1q-50 -28 -103 -46q-40 -13 -81 -21q-86 -10 -132 -11q-20 -4 -23 -3zM467 -578q0 154 130 258q132 103 317 103q175 0 315 -107q140 -109 140 -254q0 -94 -45 -163h45l11 17q43 44 39 144q-2 75 -43 138 q-12 32 -11 51q0 67 89 67h413v30q0 80 89 79q86 0 87 -79v-111q0 -82 -90 -82h-370q4 -13 10 -84q11 -167 -74 -260l-43 -44q-26 -26 -66 -26h-256q-88 0 -88 80v22q0 32 63 89q65 54 64 132q0 80 -86 143q-85 59 -193 59q-114 0 -193 -55.5t-79 -146.5q0 -96 95 -154 l27 -17q0 -11 -7 -4q0 4 3 5q58 -14 58 -73q0 -86 -83 -87q-26 0 -46.5 11t-57.5 35q-63 40 -108 113q-56 84 -56 171zM1173 248q0 -40 25.5 -72t62.5 -32q38 0 65 32t27 72v48q-59 106 -52 244q2 112 52 206v85q0 38 -27 66t-65 28q-37 0 -62.5 -28t-25.5 -66v-88 q50 -110 49 -206q0 -129 -49 -233v-56zM1616 135q-1 71 39 129q22 34 50 53q27 20 72 33q84 24 141 -10l-2 -2l5 -1q25 -16 60 -65q39 -93 2 -152l-12 -15q-32 -33 -45 -52q-31 -50 -16 -100q30 -59 109 -110q57 -38 136 -60l-2 -2q-2 -1 -23 3q-46 1 -134 11q-40 8 -81 21 q-53 18 -101 46l-1 1q-31 19 -41 26q-40 25 -84 71q-38 40 -53 78q-20 47 -19 97z" />
<glyph unicode="&#x100a;&#x1039;&#x100a;" horiz-adv-x="3151" d="M67 999q1 46 7 86q18 87 33 133q2 24 6 24l1 1q-5 -83 13 -150q24 -94 72 -142q44 -31 104 -18q23 6 66 28l18 6q69 18 148 -50q36 -54 44 -83l-1 -2q0 -1 1 0q16 -67 -35 -140q-28 -40 -55 -60q-28 -21 -70 -32q-68 -17 -138 3q-47 18 -86 51q-32 28 -59 78 q-31 57 -43 103q-4 14 -11 50l-3 1q-10 58 -12 113zM183 285l137 132q31 -66 85 -125q106 -107 255 -107q151 0 256.5 108t105.5 253q0 152 -105.5 259.5t-256.5 107.5q-149 0 -255 -109q-26 -26 -45 -55l-137 124q24 32 53 62q158 160 384 159q230 0 388.5 -159.5 t158.5 -388.5q0 -146 106 -253.5t260 -107.5q148 0 253.5 108t105.5 253q0 152 -106 259.5t-253 107.5q-81 0 -149 -30l-86 160q107 51 235 51q225 0 384 -159.5t159 -388.5v-1q0 -151 107 -257q109 -105 255 -105q150 0 257 106t107 257q0 148 -107 253.5t-257 105.5h-33 l27 187h6q226 0 386.5 -159.5t160.5 -386.5q0 -229 -160.5 -387.5t-386.5 -158.5q-230 0 -387 157q-40 39 -69 82l-2 -3q-28 -40 -65 -76q-157 -157 -382 -158q-229 0 -388 158q-40 42 -68 85q-30 -43 -70 -85q-157 -157 -387 -158q-167 0 -298 87v-600q0 -137 85 -227 t214 -90h1871q122 0 213.5 88.5t94.5 212.5v16h185v-29q8 -213 -129 -341.5t-347 -128.5h-1898q-206 0 -337 137.5t-131 345.5v812zM1282 867q2 51 21 98q15 40 53 81q44 49 84 74q12 9 44 27v2q52 29 103 49q44 15 85 21q87 11 135 13q23 5 24 1h1q-80 -23 -136 -61 q-82 -53 -113 -116q-14 -52 19 -102q13 -19 47 -54q4 -4 12 -16q40 -58 0 -156q-38 -50 -64 -68l-2 2q-1 -1 1 -3q-58 -37 -144 -13q-46 15 -74 33q-29 19 -53 56q-38 58 -43 132zM2339 890q2 51 22 98q15 40 52 81q44 49 84 75q12 9 45 27v2q52 29 102 48q44 15 85 22 q87 11 135 13q23 5 25 1h1q-80 -23 -137 -62q-82 -53 -112 -115q-14 -52 18 -102q13 -19 48 -54q4 -4 11 -16q40 -58 0 -157q-38 -50 -63 -68l-2 3q-1 -1 1 -4q-58 -37 -145 -13q-46 15 -74 34q-29 19 -53 56q-38 58 -43 131zM2679 -555q11 67 53 122q33 36 78 58 q38 19 92 25q64 6 109 0q14 -1 49 -9l1 2q56 -13 107 -31q41 -18 74 -40q71 -47 107 -76q19 -12 18 -16v-1q-72 34 -138 45q-93 13 -155 -13q-44 -28 -54 -87q-2 -23 1 -69q0 -6 -2 -19q-9 -68 -100 -113q-60 -12 -90 -9l-1 2q-1 0 -1 -2q-66 11 -113 83q-25 41 -33 72 q-7 34 -2 76z" />
<glyph unicode="&#x102d;&#x1032;" d="M-1825 2344l18 -10q227 -632 615 -836l197 -102l-94 -196l-16 9q-97 50 -166 89q-369 193 -550 962zM-1106 1664q0 189 131 325q127 135 319 134q186 0 319 -138q132 -137 132 -321q0 -181 -130 -316q-133 -128 -321 -132q-192 -5 -319 129q-130 138 -131 319zM-929 1664 q0 -113 81 -196q77 -83 192 -83q113 0 194 83q80 83 80 196t-80 199q-81 84 -194 84q-59 0 -109.5 -22.5t-86 -60.5t-56.5 -89t-21 -111zM-842 2068q0 34 13 78q22 61 46 100q8 11 27 41v2q32 45 73 86q31 29 64 53q74 45 116 66q17 12 19 13l3 -1q-63 -53 -98 -112 q-49 -79 -52 -146q9 -52 59 -84q18 -11 62 -27q6 -2 17 -9q32 -20 49 -60h-398z" />
<glyph unicode="&#x100d;&#x1039;&#x100d;" horiz-adv-x="1221" d="M102 896q-2 60 6 115q8 46 20 87q32 84 53 130q6 23 10 21l2 1q-18 -83 -11 -153q9 -98 52 -155q40 -39 101 -33q25 4 71 18q6 2 20 3q73 8 141 -73q28 -59 32 -91l-1 -2q-1 0 1 -1q5 -69 -55 -136q-37 -36 -65 -52q-33 -17 -77 -22q-71 -6 -138 26q-45 25 -81 63 q-27 34 -48 89q-23 63 -27 111q-2 14 -5 52zM110 836q0 17 1.5 25t3.5 20v-6q0 17 10 21q2 12 42 50v-2q166 181 416 181q224 0 383 -144q77 -71 118 -162.5t41 -195.5q5 -208 -159 -361q-81 -68 -176.5 -108.5t-206.5 -43.5q-166 -6 -277 74v-27q101 -61 261 -61 q105 0 328 85h16t26 3q84 0 84 -91v-603q33 0 64 1t63 1q91 3 96 -93q2 -91 -96 -91h-229q-96 0 -95 91v574q-39 -12 -101.5 -24.5t-145.5 -27.5q-236 -8 -334 60l-69 44q-58 39 -59 83v238q0 91 93 91h35q42 0 71 -33q98 -105 269 -110q142 -2 246 96h-2q102 100 108 233 q2 130 -101 223q-54 50 -114 70.5t-137 25.5q-75 2 -144 -29.5t-125 -87.5q-4 -5 -9.5 -15t-10.5 -16v4q-29 -50 -83 -52q-92 0 -101 90zM225 -246q0 5 2 13t8 25q15 22 50.5 46.5t74.5 46.5q25 8 61.5 16t71.5 8q130 0 216 -76q87 -79 88 -191q0 -57 -23.5 -106t-65 -85.5 t-97 -59t-118.5 -22.5q-39 -2 -71 3t-74 27v-27q66 -29 135 -30q25 0 73 12.5t104 32.5q17 0 21 2q23 -4 40 -16.5t17 -37.5v-133q25 0 32 4q3 0 5 2t10 2h-5q31 3 45 -12t21 -29q0 -71 -44 -71h-125q-56 0 -56 54v132l12 -15q-2 0 -4 -2.5t-4 -2.5q-15 -2 -34.5 -6 t-36.5 -6l2 2q-12 -8 -27 -7q-6 0 -9 -1.5t-8 -1.5l-10 -4h-17q-64 -3 -100.5 4.5t-57.5 12.5l-45 24q-17 3 -17 8l-5 5h5q-37 29 -36 75v125q0 59 58 60h17q2 0 19.5 -8.5t24.5 -16.5q27 -19 65.5 -34t79.5 -18q79 0 130.5 49t53.5 116q0 66 -53 113t-131 49 q-34 0 -62.5 -13.5t-62.5 -36.5q-19 -10 -27 -18.5t-20 -25.5q10 11 4 9.5t-16 -9.5q4 0 -3 -6l-10 -10q-25 6 -44 18.5t-27 37.5v4z" />
<glyph unicode="&#x1020;&#x103e;" horiz-adv-x="1316" d="M111 567q0 225 157 383q156 156 391 156q127 0 250 -62q108 -56 173 -129l27 -34q5 -8 15 -18l2 -5l8 -10q0 -2 -8 -2h-2v2v4q12 -30 12 -45q0 -37 -27 -64t-63 -27q-46 0 -72 51q-4 3 0 8l-24 27q-112 135 -291 135q-163 0 -271 -108t-108 -262q0 -155 113 -267 q113 -113 266 -114q186 0 291 128q30 30 66 30h32q86 0 86 -84q0 -83 -83 -85q-150 -157 -392 -158q-223 0 -386 162q-162 165 -162 388zM168 -38q0 31 24.5 61t60.5 30q19 0 47 -15q175 -108 365 -108q194 0 263 48l69 55q34 27 68 27q69 0 69 -93v-623h152q86 0 86 -87 q0 -83 -86 -83h-238q-33 0 -61 20q-17 -54 -78 -54h-121q-83 0 -83 86v69q-37 -8 -88 -7q-140 0 -231 58.5t-91 168.5q0 98 83.5 162t218.5 64q174 0 231 -51q24 -32 24 -64q0 -81 -81 -81q-22 2 -34.5 8t-23 12.5t-22 10.5t-26.5 0q-200 0 -200 -61q0 -56 96 -58h56 q73 0 132 27q17 10 39 9q84 0 84 -100q2 -10 2 -25v-61h35q31 0 56 -19v519q-127 -49 -300 -48q-235 0 -458 139q-39 25 -39 64zM744 709q2 0 1 1v2q8 30 43 86q78 71 150 55q12 -3 19 -6q43 -20 67 -27q60 -14 106 20q50 52 71 147q16 68 8 153l3 -1q3 0 6 -23 q15 -46 37 -135q8 -42 8 -89q1 -56 -9 -115l-1 -2q-8 -37 -12 -51q-10 -47 -40 -106q-28 -51 -61 -81q-39 -34 -87 -54q-71 -23 -141 -8q-42 12 -72 32q-27 20 -59 60q-52 74 -37 142z" />
<glyph unicode="&#x103b;&#x103e;" horiz-adv-x="391" d="M-1381 -75l19 -7q249 -365 524 -553l-116 -130q-219 212 -413 610zM-1184 -463q0 37 28.5 62.5t62.5 -17.5q41 11 66 -33q27 6 55.5 -30t55.5 -71q93 -108 122 -108q27 4 57 52l281 520q34 56 88 56q79 0 79 -101v-448l390 -106v1710q0 91 89 90q83 0 83 -90v-1825 q0 -91 -74 -90q-10 0 -17 1t-17 3l-564 155q-64 19 -63 85v192l-123 -233q-32 -54 -91 -97t-103 -45q-37 -5 -108 33q-77 38 -115 84l-160 197q-22 25 -22 54zM5 1036q0 41 19 79q12 31 43 63q38 37 70 56q9 5 34 21v1q41 23 86 37q32 10 65 14q71 8 110 9q16 3 17 2l4 -2 q-65 -16 -113 -46q-65 -40 -91 -90q-13 -41 12 -82q11 -15 36 -43q3 -4 10 -12q29 -50 -3 -125q-30 -40 -52 -52l-3 -2l1 -1q-46 -27 -114 -6q-37 11 -59 28q-23 16 -40 45q-32 47 -32 106z" />
<glyph unicode="&#x103b;&#x103d;" horiz-adv-x="372" d="M-985 -469q0 177 125 307q121 125 302 125q179 0 307 -127q125 -130 125 -305q0 -93 -37 -173l252 -67v1665q0 84 83 84q82 0 82 -84v-1773q0 -88 -69 -88q-10 0 -17 1.5t-17 3.5l-422 113q-125 -111 -287 -113q-174 -2 -302 127q-125 128 -125 304zM-818 -469 q0 -110 79 -189t181 -78q54 0 103 21t84.5 57.5t56.5 84.5t21 104q0 108 -76 187q-79 79 -189 78q-56 0 -102.5 -21t-82 -56.5t-55.5 -83t-20 -104.5zM5 1036q0 41 19 79q12 31 43 63q38 37 70 56q9 5 34 21v1q41 23 86 37q32 10 65 14q71 8 110 9q16 3 17 2l4 -2 q-65 -16 -113 -46q-65 -40 -91 -90q-13 -41 12 -82q11 -15 36 -43q3 -4 10 -12q29 -50 -3 -125q-30 -40 -52 -52l-3 -2l1 -1q-46 -27 -114 -6q-37 11 -59 28q-23 16 -40 45q-32 47 -32 106z" />
<glyph unicode="&#x103c;&#x103d;" horiz-adv-x="377" d="M160 -402v1989q0 233 119 361q138 144 358 144h549v-177h-549q-147 0 -227 -90q-77 -79 -77 -238v-1989q0 -148 89.5 -236.5t222.5 -88.5h152q-88 113 -89 258q0 175 119 300q122 123 294 123q171 0 294 -123q123 -127 123 -300q0 -169 -121 -289q-123 -123 -296 -125 q-27 0 -50 -7h-426q-122 -12 -199 24q-69 31 -142 106q-144 149 -144 358zM831 2037l46 70l158 -7q379 -56 865 240l18 -3l-46 -54q-527 -414 -888 -383q-64 24 -135 39zM871 -469q0 -51 19.5 -97.5t52 -82t79.5 -55t99 -19.5t98 19.5t80.5 55t54 82t19.5 97.5q0 52 -18 99 t-52.5 83.5t-81 57.5t-100.5 21t-101 -20t-79.5 -55.5t-51 -83.5t-18.5 -102z" />
<glyph unicode="&#x103d;&#x103e;" horiz-adv-x="2" d="M-1692 -217l19 5q407 -172 741 -181l-27 -173q-300 60 -677 290zM-1395 -388q0 84 86 41q31 -11 56 18q34 -34 47 -36q25 -23 52 -23q44 -4 71 38l78 100q120 208 368 208q179 0 307 -127q125 -131 125 -310q0 -177 -125 -301q-125 -127 -307 -133q-164 0 -285 113 q-120 108 -142 270q-56 -27 -100 -22q-113 8 -204 106q-27 27 -27 58zM-899 -479q0 -108 78 -186q77 -81 184 -81q111 0 189 81q76 76 76 186q0 108 -76 192q-78 81 -189 81q-56 0 -104 -21t-82.5 -57.5t-55 -85.5t-20.5 -109z" />
<glyph unicode="&#x1020;&#x1039;&#x1020;" horiz-adv-x="1322" d="M120 -101l166 103q164 -120 383 -119q164 0 301 68v136q-130 -85 -296 -85q-227 0 -386 158q-40 42 -69 85q-86 129 -91 301q0 229 159 388.5t387 159.5q227 0 384 -159q32 -32 58 -67l-131 -134q-23 37 -56 70q-106 109 -255 109q-151 0 -256 -107.5t-105 -259.5 q0 -146 105 -253.5t256 -107.5q150 0 255 107q56 59 83 125l140 -131v-446l-60 -39q-186 -102 -420 -103q-202 0 -370 82v-538h639q24 8 46 25q31 30 32 73q0 47 -32.5 76.5t-70.5 29.5h-18l-56 165q37 9 76 9q117 0 201 -81t84 -199q0 -122 -83.5 -202.5t-201.5 -80.5 q-17 0 -37 2h-761v840zM360 -493q0 34 18.5 66t50.5 61q60 49 148 48q89 0 154 -48q4 -4 15.5 -12t21.5 -15.5t14.5 -14.5t-4.5 -13l-84 -58q-20 30 -39 42q-27 29 -78 30q-46 0 -77.5 -25.5t-31.5 -60.5q0 -34 31 -56t78 -22q26 0 46.5 7.5t31.5 17.5q5 6 17 17.5t20 31.5 l79 -53q-2 -2 -2 -6v-97h84v-91h-176v98q-8 0 -13 -5q-18 -6 -39.5 -7.5t-47.5 -1.5q-87 0 -158 48q-12 8 -22 23q-34 43 -37 96zM686 778q26 101 93 124q13 5 20 7q47 6 70 14q56 22 75 71q13 68 -20 159q-22 66 -72 132l1 -1q3 2 19 -15q36 -30 100 -92q28 -29 54 -68 q29 -46 54 -100l-2 -2q15 -33 19 -49q16 -44 23 -109q5 -56 -7 -98q-13 -49 -42 -90q-47 -55 -113 -80q-39 -14 -75 -13q-33 2 -79 18q-84 33 -108 97q2 0 2 1l-3 2q-10 29 -9 92z" />
<glyph unicode="&#x102d;&#x1036;" horiz-adv-x="91" d="M-1127 1643q0 189 130 324q127 135 319 135q186 0 319 -138q133 -137 133 -321q0 -181 -131 -316q-133 -128 -321 -133q-192 -5 -319 130q-130 138 -130 319zM-951 1643q0 -113 81 -196q77 -83 192 -83q113 0 194 83t81 196t-81 198q-81 84 -194 84q-59 0 -109.5 -22 t-86 -60.5t-56.5 -89.5t-21 -110zM-874 2068q0 34 13 78q22 61 46 100q8 11 27 41v2q32 45 72 86q31 29 65 53q74 45 115 66q17 12 20 13l3 -1q-63 -53 -98 -112q-49 -79 -52 -146q9 -52 58 -84q18 -11 63 -27q6 -2 17 -9q32 -20 49 -60h-398zM-182 1593q0 101 70.5 173.5 t171.5 72.5q97 0 168 -72.5t71 -173.5q0 -98 -71 -169t-168 -71q-101 0 -171.5 71t-70.5 169zM-41 1593q0 -41 29 -70.5t72 -29.5q41 0 71.5 29.5t30.5 70.5q0 45 -30.5 74.5t-71.5 29.5q-43 0 -72 -29.5t-29 -74.5z" />
<glyph unicode="&#x1004;&#x103a;&#x1039;" horiz-adv-x="2" d="M-953 1498q0 136 91 209q-52 69 -52 150t52 152q61 75 176 76q120 0 193 -81q23 -27 23 -56q0 -34 -27 -62.5t-59 -28.5q-19 0 -33 8.5t-27 19.5t-26.5 20.5t-31.5 9.5q-32 2 -49 -17q-37 -44 -5 -75q32 -44 118 -54q88 -13 113 -37q75 -40 76 -101q0 -37 -27 -65 t-59 -28t-51 20q-34 32 -42 34l-64 14q-59 0 -91 -30t-32 -78q0 -58 40.5 -91.5t90.5 -33.5q46 0 80 44q29 44 69 45q91 0 91 -86q0 -17 -12 -42q-65 -125 -228 -125q-113 0 -197 64q-100 86 -100 225z" />
<glyph unicode="&#x1039;&#x1010;&#x103d;" horiz-adv-x="2" d="M-1607 -431q0 155 123 255q115 88 275 89q224 0 336 -156q17 32 52 61q134 97 279 97q152 0 278 -101t126 -246q0 -85 -32 -150q17 -38 23 -79t-1 -85q-2 -24 -9.5 -42.5t-21.5 -38.5q-12 -16 -33.5 -28t-38.5 -22q-25 -15 -65.5 -27t-84.5 -17t-86 -3t-70 15 q-22 11 -43 26t-41 30q-17 15 -26.5 38t-21.5 42q-15 30 -17.5 66.5t3 72t17.5 70t26 62.5q10 17 23.5 31.5t26.5 27.5q6 6 14.5 12t17 11.5t17 10.5t15.5 6q16 11 34 13.5t40 4.5q38 4 69 -4q37 -9 72 -26t65 -40q1 10 1 23q0 97 -93 163q-81 57 -186 57q-99 0 -174.5 -57 t-98.5 -151q0 -162 -115.5 -261.5t-276.5 -99.5q-162 0 -280 95t-118 255zM-1478 -431q0 -100 86 -167q79 -59 183 -60q235 1 269 254q-13 79 -85.5 134t-183.5 55q-109 0 -185 -52q-84 -60 -84 -164zM-586.5 -632q-6.5 -37 0.5 -74t30 -61q18 -18 45 -29t57.5 -15t61 -1 t52.5 11q14 10 31 18t33 28q12 39 10 74.5t-15.5 66.5t-38 53.5t-53.5 35.5q-18 9 -29.5 14t-20.5 8.5t-20 4.5t-28 1q-12 -5 -22 -9t-23 -15q-28 -13 -46 -43.5t-24.5 -67.5z" />
<glyph unicode="&#x101b;&#x103a;&#x1039;" d="M-1065 1596q0 86 31.5 162.5t87.5 138.5q128 125 307 125q85 0 163.5 -31.5t137.5 -90.5q65 -61 97.5 -140.5t27.5 -163.5v-124h-176v124q0 93 -76 171h3q-39 36 -81.5 55t-95.5 19q-96 0 -175 -74q-69 -78 -69 -171q0 -51 13 -88q15 29 37 54q71 71 169 71 q49 0 91.5 -20t75 -51.5t49.5 -74.5t17 -90q0 -51 -17 -94t-49.5 -72.5t-75 -47.5t-91.5 -18q-51 0 -86 14h2q-114 28 -195 110q-122 122 -122 307zM-718 1393q0 -23 19.5 -40t38.5 -17q23 0 44 17t21 40q0 29 -21 47.5t-44 18.5q-19 0 -38.5 -18.5t-19.5 -47.5z" />
<glyph unicode="&#x103e;&#x102d;&#xe2f1;" horiz-adv-x="2" d="M-1814 -649l18 8q529 -134 909 -38h151l44 -157q-390 -140 -1059 138zM-1135 -804q0 101 91 101h141v656q0 86 118 86q88 0 89 -86v-755q0 -88 -89 -88h-259q-91 0 -91 86zM-1127 1653q0 189 130 325q127 135 319 135q186 0 319 -138t133 -322q0 -181 -131 -315 q-133 -128 -321 -133q-192 -5 -319 129q-130 138 -130 319zM-951 1653q0 -113 81 -196q77 -83 192 -83q113 0 194 83t81 196t-81 199q-81 84 -194 84q-59 0 -109.5 -22t-86 -60.5t-56.5 -89.5t-21 -111zM-874 2068q0 34 13 78q22 61 46 100q8 11 27 41v2q32 45 72 86 q31 29 65 53q74 45 115 66q17 12 20 13l3 -1q-63 -53 -98 -112q-49 -79 -52 -146q9 -52 58 -84q18 -11 63 -27q6 -2 17 -9q32 -20 49 -60h-398zM-553 -836l44 157h151q379 -96 909 38l18 -8l-63 -49q-668 -278 -1059 -138zM-542 -47q0 86 86 86q120 0 120 -86v-656h142 q88 0 88 -101q0 -86 -88 -86h-262q-86 0 -86 88v755z" />
<glyph unicode="&#x103e;&#x1072;&#xe2f1;" horiz-adv-x="2" d="M-1814 -649l18 8q529 -134 909 -38h151l44 -157q-390 -140 -1059 138zM-1135 -804q0 101 91 101h141v656q0 86 118 86q88 0 89 -86v-755q0 -88 -89 -88h-259q-91 0 -91 86zM-965 1715q0 149 108 258q108 108 260 107q150 0 265 -96q89 -72 114 -161l-160 -76q-1 9 -2 19 q-3 57 -68 97.5t-149 40.5q-78 0 -128.5 -45.5t-60.5 -106.5q-22 -125 118 -250q13 -13 74 -51q40 -25 102 -59v-197q-27 12 -69 35q-33 17 -77 43q-50 27 -87.5 52t-62.5 46q-177 157 -177 344zM-662 1920l1 -1l1 5q9 28 50 73q81 60 147 38q12 -4 18 -7q40 -25 60 -33 q56 -18 102 8q51 44 80 131q25 65 27 147l2 -2q1 -2 3 -23q10 -45 20 -131q2 -42 -1 -85q-6 -56 -22 -109l-1 -2q-12 -34 -15 -46q-15 -44 -49 -99q-31 -45 -64 -68q-40 -31 -88 -42q-70 -17 -136 8q-39 14 -64 37q-26 22 -49 63q-42 75 -22 138zM-553 -836l44 157h151 q379 -96 909 38l18 -8l-63 -49q-668 -278 -1059 -138zM-542 -47q0 86 86 86q120 0 120 -86v-656h142q88 0 88 -101q0 -86 -88 -86h-262q-86 0 -86 88v755z" />
<glyph unicode="&#x103e;&#x102d;&#xe2f2;" horiz-adv-x="2" d="M-2019 -649l18 8q529 -134 909 -38h151l44 -157q-390 -140 -1058 138zM-1340 -804q0 101 91 101h141v656q0 86 118 86q88 0 89 -86v-755q0 -88 -89 -88h-259q-91 0 -91 86zM-1127 1664q0 189 130 325q127 135 319 134q186 0 319 -138q133 -137 133 -321q0 -181 -131 -316 q-133 -128 -321 -132q-192 -5 -319 129q-130 138 -130 319zM-951 1664q0 -113 81 -196q77 -83 192 -83q113 0 194 83t81 196t-81 199q-81 84 -194 84q-59 0 -109.5 -22.5t-86 -60.5t-56.5 -89t-21 -111zM-874 2068q0 34 13 78q22 61 46 100q8 11 27 41v2q32 45 72 86 q31 29 65 53q74 45 115 66q17 12 20 13l3 -1q-63 -53 -98 -112q-49 -79 -52 -146q9 -52 58 -84q18 -11 63 -27q6 -2 17 -9q32 -20 49 -60h-398zM-758 -37q0 99 88 100q110 0 109 -100v-767q0 -99 -109 -99q-87 0 -88 99v767zM-424 -836l45 157h150q379 -96 909 38l18 -8 l-63 -49q-668 -278 -1059 -138zM-413 -47q0 86 86 86q120 0 120 -86v-656h142q88 0 89 -101q0 -86 -89 -86h-262q-86 0 -86 88v755z" />
<glyph unicode="&#x102b;&#x1036;" horiz-adv-x="482" d="M-1026 1593q0 101 70.5 173.5t169.5 72.5t168.5 -72.5t69.5 -173.5q0 -98 -69.5 -169t-168.5 -71t-169.5 71t-70.5 169zM-885 1593q0 -41 28.5 -70.5t70.5 -29.5t73 29.5t31 70.5q0 45 -31 74.5t-73 29.5t-70.5 -29.5t-28.5 -74.5zM-492 1746q11 64 31 108q6 11 20 44v2 q25 51 58 95q26 33 56 63q69 57 105 83q15 15 17 15l3 -1q-54 -60 -78 -124q-39 -86 -29 -153q14 -51 68 -75q22 -10 66 -19q8 0 19 -5q64 -28 84 -128q-2 -60 -14 -88l-2 -3h1q-28 -60 -111 -88q-45 -14 -80 -13q-34 2 -72 17q-65 27 -104 85q-28 42 -36 92q-10 40 -2 93z M-437 1811q28 47 69 88q125 127 304 127q175 0 300 -127t125 -300v-1599h-192v1596h-2q2 98 -69 171.5t-170 73.5q-105 0 -175 -73q-41 -42 -58 -92z" />
<glyph unicode="&#x102b;&#x1032;" horiz-adv-x="482" d="M-1292 2335l19 -8q304 -598 715 -752l208 -77l-68 -207l-17 8q-104 37 -176 67q-390 146 -666 887zM-481 1779q11 64 30 107q6 11 21 45v2q25 51 58 95q26 33 56 62q69 57 105 83q15 15 17 15l3 -1q-54 -60 -78 -124q-39 -86 -30 -153q14 -51 68 -74q22 -10 67 -20 q8 0 18 -5q64 -28 85 -127q-2 -60 -14 -89l-3 -3h1q-28 -60 -111 -87q-45 -14 -79 -13q-35 1 -73 16q-65 27 -103 85q-28 42 -37 93q-10 40 -1 93zM-425 1829q24 37 57 70q125 127 304 127q175 0 300 -127t125 -300v-1599h-192v1596h-2q2 98 -69 171.5t-170 73.5 q-105 0 -175 -73q-24 -24 -39 -51z" />
<glyph unicode="&#x1032;&#xaa70;" horiz-adv-x="2" d="M-1106 1663q-9 28 8.5 58t43.5 34q20 5 49 -2l672 -302q40 -17 47 -50q7 -26 -10.5 -56.5t-45.5 -37.5q-17 -3 -53 5l-672 301q-30 11 -39 50zM-1000 1894q-8 28 9.5 56.5t40.5 33.5t50 -3l673 -301q40 -17 46 -47q6 -28 -10 -58t-45 -36q-16 -5 -52 3l-672 302 q-32 9 -40 50z" />
<glyph unicode="&#x103a;&#xaa70;" d="M-965 1715q0 149 108 258q108 108 260 107q150 0 265 -96q89 -72 114 -161l-160 -76q-1 9 -2 19q-3 57 -68 97.5t-149 40.5q-78 0 -128.5 -45.5t-60.5 -106.5q-22 -125 118 -250q13 -13 74 -51q40 -25 102 -59v-197q-27 12 -69 35q-33 17 -77 43q-50 27 -87.5 52 t-62.5 46q-177 157 -177 344zM-697 1678.5q6 72.5 62 119.5l70 -73q-55 -47 -5 -107q49 -56 103 -9l62 -81q-57 -50 -129 -43.5t-122 66.5q-47 55 -41 127.5zM-662 1974l1 -1l1 5q9 28 50 73q81 60 147 38q12 -4 18 -8q40 -25 60 -32q56 -18 102 8q51 44 80 131 q25 65 27 147l2 -2q1 -2 3 -23q10 -45 20 -132q2 -42 -1 -84q-6 -56 -22 -110l-1 -1q-12 -34 -15 -46q-15 -44 -49 -99q-31 -45 -64 -68q-40 -31 -88 -42q-70 -17 -136 7q-39 15 -64 38q-26 22 -49 63q-42 75 -22 138z" />
<glyph unicode="&#x102c;&#x103e;&#x103a;" horiz-adv-x="1117" d="M-1620 -649l18 8q529 -134 909 -38h122l-1 -180q-378 -91 -984 161zM-966 -804q0 91 91 101h152v645q0 88 108 88q88 0 88 -88v-744q0 -88 -88 -88h-260q-91 0 -91 86zM-965 1715q0 149 108 258q108 108 260 107q150 0 265 -96q89 -72 114 -161l-160 -76q-1 9 -2 19 q-3 57 -68 97.5t-149 40.5q-78 0 -128.5 -45.5t-60.5 -106.5q-22 -125 118 -250q13 -13 74 -51q40 -25 102 -59v-197q-27 12 -69 35q-33 17 -77 43q-50 27 -87.5 52t-62.5 46q-177 157 -177 344zM-662 1920l1 -1l1 5q9 28 50 73q81 60 147 38q12 -4 18 -7q40 -25 60 -33 q56 -18 102 8q51 44 80 131q25 65 27 147l2 -2q1 -2 3 -23q10 -45 20 -131q2 -42 -1 -85q-6 -56 -22 -109l-1 -2q-12 -34 -15 -46q-15 -44 -49 -99q-31 -45 -64 -68q-40 -31 -88 -42q-70 -17 -136 8q-39 14 -64 37q-26 22 -49 63q-42 75 -22 138zM-182 567q0 37 17 64 q17 31 48 78t72 110q40 56 81.5 99t85.5 76q152 100 326 100q293 0 459 -236q94 -144 93 -316q0 -302 -238 -465q-160 -106 -341 -106q-71 0 -128.5 17t-82.5 37q-34 27 -34 68q0 38 27 65.5t63 27.5q25 0 52 -22q2 -2 27 -10q42 -12 81 -12q119 0 236 81q164 110 164 319 q0 120 -66 216q-111 162 -304 161q-128 0 -231 -73q-27 -19 -60 -52.5t-70 -82.5q-71 -88 -98 -159q-34 -88 -98 -73q-81 14 -81 88zM123 147q-13 69 14 133q16 38 40 63t66 46q79 39 140 15v-1h3q28 -12 72 -54q55 -85 29 -150q-4 -11 -8 -16q-26 -39 -35 -60 q-23 -55 3 -101q40 -54 129 -89q63 -28 143 -33l-2 -3q-1 -1 -23 -2q-44 -6 -132 -14q-42 0 -84 6q-55 9 -108 27l-2 1q-33 14 -46 17q-44 18 -97 56q-43 32 -64 67q-29 42 -38 92z" />
<glyph unicode="&#x1051;&#x1039;&#x100d;" horiz-adv-x="1333" d="M17 1192v2q2 1 23 1q44 4 130 7q40 -4 80 -12q52 -11 102 -32l4 -1q31 -14 42 -19q41 -20 89 -59q42 -34 59 -68q27 -43 33 -92q8 -67 -23 -128q-17 -35 -42 -57q-23 -23 -66 -41q-78 -33 -134 -7l-1 2l-3 1q-26 12 -66 55q-50 85 -21 146q5 10 9 15q28 36 37 55 q24 52 3 100q-36 54 -119 92q-59 29 -136 40zM108 532q0 144 75 285q77 142 208 231q25 16 50 16q37 0 61.5 -27.5t24.5 -63.5q0 -40 -37 -69q-209 -130 -209 -372q0 -158 114 -274q112 -115 277 -116q162 0 274 116q115 119 116 274q0 247 -214 372q-40 29 -40 69 q0 33 25 59t62 26q17 0 46 -10q69 -41 124 -97t93 -123.5t57.5 -142t19.5 -153.5q0 -230 -164 -390q-162 -164 -399 -164q-236 0 -400 164q-164 161 -164 390zM170 -143l120 130l62 -30q137 -63 301 -63q217 0 383 108l165 -94v-655h196v-164h-375l-3 713q-166 -73 -368 -74 q-234 0 -419 92zM536 500q-8 135 152 150q140 0 152 -148q0 -152 -152 -156q-142 -2 -152 154zM636 500q0 -41 52 -52q44 0 48 52q0 40 -48 52q-42 0 -52 -52zM761 933q9 50 38 92q22 34 64 67q53 38 97 56q12 3 46 17l2 1q53 18 108 27q42 5 84 6q88 -8 132 -14q22 0 23 -1 l2 -4q-81 -5 -143 -33q-88 -34 -129 -89q-26 -46 -3 -101q9 -22 35 -60q4 -5 8 -16q26 -65 -29 -150q-44 -42 -72 -54h-3v-1q-61 -24 -140 15q-42 22 -66 46q-24 25 -40 63q-27 65 -14 133zM1032 -890l44 157h151q379 -96 908 38l19 -8l-64 -49q-668 -278 -1058 -138z" />
<glyph unicode="&#x1051;&#x1039;&#x100c;" horiz-adv-x="1333" d="M17 1192v2q2 1 23 1q44 4 130 7q40 -4 80 -12q52 -11 102 -32l4 -1q31 -14 42 -19q41 -20 89 -59q42 -34 59 -68q27 -43 33 -92q8 -67 -23 -128q-17 -35 -42 -57q-23 -23 -66 -41q-78 -33 -134 -7l-1 2l-3 1q-26 12 -66 55q-50 85 -21 146q5 10 9 15q28 36 37 55 q24 52 3 100q-36 54 -119 92q-59 29 -136 40zM108 532q0 144 75 285q77 142 208 231q25 16 50 16q37 0 61.5 -27.5t24.5 -63.5q0 -40 -37 -69q-209 -130 -209 -372q0 -158 114 -274q112 -115 277 -116q162 0 274 116q115 119 116 274q0 247 -214 372q-40 29 -40 69 q0 33 25 59t62 26q17 0 46 -10q69 -41 124 -97t93 -123.5t57.5 -142t19.5 -153.5q0 -230 -164 -390q-162 -164 -399 -164q-236 0 -400 164q-164 161 -164 390zM120 -660q0 117 84 198.5t199 81.5q42 0 79 -9l-58 -165h-19q-37 0 -69 -29t-32 -77q0 -43 32 -73q22 -17 47 -25 h46h591v538q-167 -82 -369 -82q-234 0 -419 103l-62 39l116 158l66 -47q137 -69 301 -68q217 0 384 119l166 -103v-840h-760q-22 -2 -40 -2q-115 0 -199 81t-84 202zM536 500q-8 135 152 150q140 0 152 -148q0 -152 -152 -156q-142 -2 -152 154zM636 500q0 -41 52 -52 q44 0 48 52q0 40 -48 52q-42 0 -52 -52zM761 933q9 50 38 92q22 34 64 67q53 38 97 56q12 3 46 17l2 1q53 18 108 27q42 5 84 6q88 -8 132 -14q22 0 23 -1l2 -4q-81 -5 -143 -33q-88 -34 -129 -89q-26 -46 -3 -101q9 -22 35 -60q4 -5 8 -16q26 -65 -29 -150q-44 -42 -72 -54 h-3v-1q-61 -24 -140 15q-42 22 -66 46q-24 25 -40 63q-27 65 -14 133z" />
<glyph unicode="&#x103a;&#x1036;" horiz-adv-x="2" d="M-965 1715q0 149 108 258q108 108 260 107q150 0 265 -96q89 -72 114 -161l-160 -76q-1 9 -2 19q-3 57 -68 97.5t-149 40.5q-78 0 -128.5 -45.5t-60.5 -106.5q-22 -125 118 -250q13 -13 74 -51q40 -25 102 -59v-197q-27 12 -69 35q-33 17 -77 43q-50 27 -87.5 52 t-62.5 46q-177 157 -177 344zM-709 1653q0 56 39 95t99 39q55 0 96.5 -36.5t41.5 -93.5q0 -65 -38.5 -104.5t-99.5 -39.5q-57 0 -97.5 43t-40.5 97zM-662 1974l1 -1l1 5q9 28 50 73q81 60 147 38q12 -4 18 -8q40 -25 60 -32q56 -18 102 8q51 44 80 131q25 65 27 147l2 -2 q1 -2 3 -23q10 -45 20 -132q2 -42 -1 -84q-6 -56 -22 -110l-1 -1q-12 -34 -15 -46q-15 -44 -49 -99q-31 -45 -64 -68q-40 -31 -88 -42q-70 -17 -136 7q-39 15 -64 38q-26 22 -49 63q-42 75 -22 138zM-624 1656q0 -52 53 -62q45 0 58 59q0 52 -58 57q-53 0 -53 -54z" />
<glyph unicode="&#x107e;&#x102f;" horiz-adv-x="2370" d="M116 900q-3 89 81 149t186 64q106 3 188 -77t73 -180q-2 -129 -134 -227q-49 -23 -135 -60q-29 -14 -47 -28.5t-35 -66.5v-58q29 -111 152.5 -188t244.5 -82q182 -2 304 125q84 84 113 197q10 50 10 103q16 230 184 385q168 161 420 161q239 0 390 -152l-86 -157 q-63 50 -96 70q-83 59 -208 62q-172 4 -291 -112t-129 -283q-6 -42 2 -79q25 -113 113 -201l8 -8q86 202 302 260q82 26 151 26q188 2 353 -160q16 -11 16 -54q0 -52 -41 -116q-18 -30 -47 -58q-129 -157 -353 -185v-6l-187 6q-22 6 -45 12q-49 12 -94 32q-45 16 -86 42 q-123 64 -192 177l-6 -8l-4 -8q-29 -36 -65 -74q-180 -174 -436 -175q-180 -3 -346 118t-219 294q0 12 -4 38q-22 174 67 237q43 40 120 74q146 66 155 131q0 40 -40 62t-87 16q-38 -10 -37 -38q0 -87 -94 -89q-86 -2 -89 89zM274 -459l19 4q489 -241 881 -227l41 -9 l-43 -191q-362 26 -846 361zM735 -689q31 93 124 62l171 -57l281 842l175 -63l-307 -925q-29 -87 -117 -57l-260 86q-94 31 -67 112zM1591 163q53 -19 110 -20q188 -2 319 128v2q5 2 8 9q10 4 17 7l4 12q-77 54 -170 54q-223 0 -288 -192zM1668 -836l44 157h151 q379 -96 908 38l19 -8l-64 -49q-668 -278 -1058 -138zM1672 -69q0 88 88 88q110 0 110 -88v-634h150q88 0 88 -101q0 -86 -88 -86h-260q-88 0 -88 88v733zM1675 902l1 -1v4q5 29 38 81q72 71 141 58q12 -3 17 -5q44 -18 66 -24q57 -11 99 23q43 50 63 141q14 68 5 148l2 -1 q2 -1 6 -21q16 -46 37 -129q10 -40 12 -83q2 -55 -5 -111l-1 -2q-5 -36 -9 -48q-10 -46 -35 -104q-23 -50 -53 -78q-37 -36 -82 -53q-67 -27 -135 -11q-41 9 -68 28q-29 18 -58 55q-53 69 -41 133z" />
<glyph unicode="&#x107e;&#x1030;" horiz-adv-x="2376" d="M116 900q-3 89 81 149t186 64q106 3 188 -77t73 -180q-2 -129 -134 -227q-49 -23 -135 -60q-29 -14 -47 -28.5t-35 -66.5v-58q29 -111 152.5 -188t244.5 -82q182 -2 304 125q84 84 113 197q10 50 10 103q16 230 184 385q168 161 420 161q239 0 390 -152l-86 -157 q-63 50 -96 70q-83 59 -208 62q-172 4 -291 -112t-129 -283q-6 -42 2 -79q25 -113 113 -201l8 -8q86 202 302 260q82 26 151 26q188 2 353 -160q16 -11 16 -54q0 -52 -41 -116q-18 -30 -47 -58q-129 -157 -353 -185v-6l-187 6q-22 6 -45 12q-49 12 -94 32q-45 16 -86 42 q-123 64 -192 177l-6 -8l-4 -8q-29 -36 -65 -74q-180 -174 -436 -175q-180 -3 -346 118t-219 294q0 12 -4 38q-22 174 67 237q43 40 120 74q146 66 155 131q0 40 -40 62t-87 16q-38 -10 -37 -38q0 -87 -94 -89q-86 -2 -89 89zM274 -459l19 4q489 -241 881 -227l41 -9 l-43 -191q-362 26 -846 361zM735 -689q31 93 124 62l171 -57l281 842l175 -63l-307 -925q-29 -87 -117 -57l-260 86q-94 31 -67 112zM1538 -69q0 88 109 88q88 0 88 -88v-733q0 -88 -88 -88q-109 0 -109 88v733zM1591 163q53 -19 110 -20q188 -2 319 128v2q5 2 8 9 q10 4 17 7l4 12q-77 54 -170 54q-223 0 -288 -192zM1675 902l1 -1v4q5 29 38 81q72 71 141 58q12 -3 17 -5q44 -18 66 -24q57 -11 99 23q43 50 63 141q14 68 5 148l2 -1q2 -1 6 -21q16 -46 37 -129q10 -40 12 -83q2 -55 -5 -111l-1 -2q-5 -36 -9 -48q-10 -46 -35 -104 q-23 -50 -53 -78q-37 -36 -82 -53q-67 -27 -135 -11q-41 9 -68 28q-29 18 -58 55q-53 69 -41 133zM1883 -836l44 157h151q379 -96 909 38l18 -8l-63 -49q-668 -278 -1059 -138zM1887 -69q0 88 89 88q110 0 110 -88v-634h150q88 0 88 -101q0 -86 -88 -86h-260q-88 0 -89 88 v733z" />
<glyph unicode="&#x103b;&#x1082;" horiz-adv-x="377" d="M-1096 -517q0 98 37.5 183.5t101 149.5t149 101.5t183.5 37.5l3 -184q-64 0 -117 -22.5t-92.5 -63t-63.5 -94t-24 -114.5q0 -64 24 -117.5t63.5 -93t92.5 -63.5t117 -24q59 0 113 24t95.5 63.5t64 93.5t22.5 117l178 6q0 -98 -37.5 -185.5t-102.5 -151.5t-151.5 -102.5 t-184.5 -38.5t-183.5 38.5t-149 102.5t-101 151.5t-37.5 185.5zM-382 -869l106 161l346 -89v1891h181v-2021q0 -81 -72 -81zM5 1051q0 39 19 75q11 30 41 62q36 36 68 54q9 5 32 20h1q39 23 81 37q32 10 65 14q68 8 104 7q16 3 18 3l3 -3q-63 -15 -109 -44q-63 -39 -88 -86 q-13 -40 12 -80q10 -14 35 -41q4 -3 9 -12q28 -47 -3 -120q-29 -38 -49 -51l-4 -1h1q-45 -27 -111 -7q-34 11 -56 27q-22 17 -40 44q-30 45 -29 102z" />
<glyph unicode="&#x1083;&#x1037;" horiz-adv-x="893" d="M-64 922v172h405v-1825h188v-173h-374v1826h-219zM154 -855l44 158h151q379 -96 909 37l18 -7l-63 -50q-668 -278 -1059 -138zM430 -418q0 100 70.5 173t171.5 73q99 0 167.5 -73t68.5 -173q0 -98 -68.5 -169.5t-167.5 -71.5q-100 0 -171 71.5t-71 169.5zM571 -418 q0 -41 28 -71.5t73 -30.5q40 0 71.5 30.5t31.5 71.5q0 46 -31.5 74t-71.5 28q-44 0 -72.5 -28t-28.5 -74z" />
<glyph unicode="&#x1062;&#x1086;" horiz-adv-x="548" d="M5 913v181h408v-1094h-187v913h-221zM12 1151q44 55 123 177l97 183l44 135h-24h-28q-84 4 -144 65q-54 52 -58 116q-10 25 -10 57q0 100 68.5 169.5t171.5 69.5q100 0 171.5 -69.5t71.5 -169.5q0 -53 -23.5 -165t-89 -213.5t-184 -205t-186.5 -149.5zM149 1884 q0 -41 31 -72t72 -31q44 0 72 31t28 72q0 43 -28 73t-72 30q-41 0 -72 -30t-31 -73z" />
<glyph unicode="&#x1083;&#x103a;" horiz-adv-x="526" d="M-210 1715q0 149 108 258q108 108 259 107q150 0 266 -96q89 -72 114 -161l-161 -76q-1 9 -2 19q-3 57 -68 97.5t-149 40.5q-78 0 -128.5 -45.5t-59.5 -106.5q-22 -125 117 -250q13 -13 75 -51q40 -25 102 -59v-197q-27 12 -69 35q-33 17 -78 43q-50 27 -87.5 52 t-61.5 46q-177 157 -177 344zM-64 922v172h405v-1825h188v-173h-374v1826h-219zM93 1920l1 -1l1 5q9 28 49 73q81 60 147 38q12 -4 18 -7q40 -25 61 -33q56 -18 101 8q51 44 81 131q25 65 27 147l2 -2q1 -2 2 -23q10 -45 21 -131q2 -42 -1 -85q-6 -56 -22 -109l-1 -2 q-12 -34 -15 -46q-15 -44 -50 -99q-31 -45 -63 -68q-40 -31 -89 -42q-70 -17 -136 8q-38 14 -63 37q-26 22 -50 63q-42 75 -21 138zM160 -860l44 157h151q379 -96 908 38l19 -8l-64 -49q-668 -278 -1058 -138z" />
<glyph unicode="&#x1039;&#x101f;" d="M-1884 -44q2 0 19 -3q38 -4 109 -18q32 -9 65 -22q41 -17 80 -43l2 -2q24 -17 31 -23q30 -23 65 -64q29 -36 37 -66q14 -40 11 -81q-4 -57 -40 -103q-19 -27 -44 -41q-23 -15 -61 -22q-71 -14 -114 16v2l-2 1q-19 14 -46 57q-27 79 7 125q5 8 11 11q28 26 40 40 q28 39 18 81q-20 52 -81 98q-46 33 -107 55v2zM-1808 -531q0 186 129 335q6 5 13 11l105 -134q-79 -102 -78 -212q0 -116 83 -197q82 -83 192 -83q59 0 107.5 22t90.5 61q82 80 82 197q0 111 -86 214v-1q-26 24 -54 42l114 129q31 -20 59 -47l3 -2q14 -20 27.5 -35.5 t24.5 -34.5l2 2q11 12 19.5 25.5t20.5 26.5q65 61 142.5 93.5t174.5 32.5q181 0 315 -126q130 -130 130 -318q0 -186 -132 -318q-105 -98 -240 -123l-45 163q93 11 165 83q84 84 84 195q0 110 -84 194q-83 83 -193 83t-197 -83q-37 -39 -57 -80t-25 -87v-28 q0 -95 -32.5 -173.5t-99.5 -145.5h2q-132 -129 -318 -130q-188 0 -315 132v-2q-128 134 -129 319zM-1286 -350q-3 42 11 82q10 30 38 65q34 41 64 64q9 6 33 24l2 1q38 26 78 43q33 14 66 22q71 13 108 18q17 3 20 3v-2q-61 -22 -106 -55q-61 -46 -83 -98q-10 -42 19 -81 q11 -14 39 -40q5 -3 11 -11q34 -46 8 -125q-28 -43 -47 -57l-2 -1v-2q-42 -30 -113 -16q-38 8 -62 22q-25 14 -43 41q-37 45 -41 103zM-727 -830q4 58 41 102q19 27 44 41q24 15 61 24q71 14 113 -17v-2l2 -1q19 -14 48 -58q26 -79 -9 -123q-5 -8 -11 -12q-28 -26 -38 -39 q-29 -40 -20 -82q22 -52 83 -97q45 -33 107 -56v-1q-3 -1 -21 3q-37 3 -107 17q-32 8 -66 22q-41 18 -79 43l-2 1l-32 24q-30 24 -65 63q-28 36 -38 67q-14 40 -11 81z" />
<glyph unicode="&#x1001;&#x103c;&#x102f;&#x1036;" horiz-adv-x="2155" d="M171 -390v1967q0 229 118 358q139 146 360 145h547v-176h-547q-147 0 -231 -91q-73 -81 -73 -236v-1967q0 -73 23 -133.5t65 -102t98 -65t123 -23.5h493q155 0 240 101q84 91 84 213v517q0 88 88 89q86 0 86 -89v-517q0 -198 -125 -333q-142 -157 -373 -157h-493 q-123 0 -199 36q-64 29 -139 106q-144 144 -145 358zM490 1029q0 14 7 51l-3 2q11 59 28 113q16 44 36 81q46 77 75 117q12 20 15 19l2 1q-33 -78 -39 -148q-10 -99 21 -161q32 -45 93 -52q24 -1 69 -5q11 11 24 9q72 -6 124 -99q17 -63 14 -94l-2 -2q0 -1 2 0 q-6 -70 -80 -124q-41 -28 -73 -39q-35 -9 -79 -6q-71 8 -131 51q-40 32 -66 77q-22 39 -30 95q-12 65 -7 114zM582 415q0 39 12 51q165 160 359 159q87 0 183 -34q186 -68 283 -285q81 103 80 231q0 163 -113 272q-112 113 -277 114q-181 0 -304 -146l-34 -39l-2 5q-2 0 2 5 q8 8 7 -2q-27 -52 -73 -52q-37 0 -66.5 27t-29.5 64q0 19 12 40q-2 2 -2 6l2 3q5 4 17.5 20.5t31.5 41.5q171 200 439 200q240 0 402 -161q163 -162 163 -398q0 -231 -167 -397q-167 -167 -398 -167q-316 0 -488 275q-39 75 -39 167zM753 365l25 -34q8 -10 35 -41 q120 -142 296 -142q71 -1 165 36q-50 186 -199 243q-85 27 -135 27q-96 0 -187 -89zM894 1539q0 101 70.5 173.5t171.5 72.5q98 0 167.5 -72.5t69.5 -173.5q0 -98 -69.5 -169t-167.5 -71q-101 0 -171.5 71t-70.5 169zM927 2016l46 70l158 -8q379 -56 865 241l18 -4l-46 -54 q-527 -414 -888 -382q-64 24 -135 39zM1035 1539q0 -41 29 -70.5t72 -29.5q40 0 71.5 29.5t31.5 70.5q0 45 -31.5 74.5t-71.5 29.5q-43 0 -72 -29t-29 -75zM1718 1051q0 39 18 75q11 30 41 62q36 36 68 54q9 5 33 20h1q39 23 81 37q32 10 64 14q68 8 105 7q16 3 18 3l2 -3 q-63 -15 -109 -44q-63 -39 -87 -86q-13 -40 12 -80q10 -14 34 -41q4 -3 10 -12q28 -47 -3 -120q-29 -38 -50 -51l-3 -1h1q-45 -27 -111 -7q-34 11 -56 27q-22 17 -40 44q-30 45 -29 102zM1793 -802v1815q0 88 91 89q105 0 105 -89v-1716h128q87 -11 87 -101q0 -86 -87 -86 h-238q-86 0 -86 88zM1796 -836l44 157h151q379 -96 909 38l18 -8l-64 -49q-668 -278 -1058 -138z" />
<glyph unicode="&#x1016;&#x103c;&#x102f;&#x1036;" horiz-adv-x="2143" d="M171 -390v1967q0 229 118 358q139 146 360 145h547v-176h-547q-147 0 -231 -91q-73 -81 -73 -236v-1967q0 -73 23 -133.5t65 -102t98 -65t123 -23.5h493q155 0 240 101q84 91 84 213v517q0 88 88 89q86 0 86 -89v-517q0 -198 -125 -333q-142 -157 -373 -157h-493 q-123 0 -199 36q-64 29 -139 106q-144 144 -145 358zM372 1202v3h25q49 4 142 8q43 -4 87 -13q56 -12 111 -35l4 -2q34 -15 45 -19q45 -23 98 -65q45 -38 65 -73q29 -47 34 -101q10 -74 -24 -140q-19 -38 -45 -62q-25 -25 -72 -44q-85 -38 -147 -9l-1 2l-3 1q-28 13 -72 59 q-55 94 -23 161q5 11 10 17q30 39 41 60q26 56 2 107q-39 59 -129 102q-64 31 -148 43zM506 554q0 146 73 292q75 148 208 238q25 17 49 18q37 0 61.5 -29t24.5 -65q0 -41 -37 -71q-206 -133 -206 -383q0 -166 113 -287q112 -120 277 -119q186 0 304 156q-211 77 -275 287 q-22 74 -21 145q0 189 154 341q25 25 61 25q37 0 64 -27q277 -190 277 -521q0 -235 -164 -406q-162 -169 -400 -170q-236 0 -400 170q-164 171 -163 406zM883 1539q0 101 70.5 173.5t171.5 72.5q98 0 167.5 -72.5t69.5 -173.5q0 -98 -69.5 -169t-167.5 -71q-101 0 -171.5 71 t-70.5 169zM927 2016l46 70l158 -8q379 -56 865 241l18 -4l-46 -54q-527 -414 -888 -382q-64 24 -135 39zM1024 1539q0 -41 29 -70.5t72 -29.5q40 0 71.5 29.5t31.5 70.5q0 45 -31.5 74.5t-71.5 29.5q-43 0 -72 -29t-29 -75zM1254 729q0 -108 60 -179q50 -59 136 -87 q9 42 9 91q0 204 -155 342q-51 -79 -50 -167zM1718 1051q0 39 18 75q11 30 41 62q36 36 68 54q9 5 33 20h1q39 23 81 37q32 10 64 14q68 8 105 7q16 3 18 3l2 -3q-63 -15 -109 -44q-63 -39 -87 -86q-13 -40 12 -80q10 -14 34 -41q4 -3 10 -12q28 -47 -3 -120 q-29 -38 -50 -51l-3 -1h1q-45 -27 -111 -7q-34 11 -56 27q-22 17 -40 44q-30 45 -29 102zM1793 -802v1815q0 88 91 89q105 0 105 -89v-1716h128q87 -11 87 -101q0 -86 -87 -86h-238q-86 0 -86 88zM1796 -836l44 157h151q379 -96 909 38l18 -8l-64 -49q-668 -278 -1058 -138z " />
<glyph unicode="&#x1001;&#x103c;&#x103d;&#x102d;&#x102f;" horiz-adv-x="2163" d="M153 -446v2081q0 197 128 321q42 40 93 67q74 40 244 52l-4 -176q-150 -18 -201 -68q-80 -78 -80 -209v-2053q0 -130 85 -216q79 -81 199 -85h8v-175h-4q-206 0 -337 131.5t-131 329.5zM448 1029q0 14 7 51l-3 2q11 59 28 113q16 44 36 81q46 77 75 117q12 20 15 19l2 1 q-33 -78 -39 -148q-10 -99 21 -161q32 -45 93 -52q24 -1 69 -5q11 11 24 9q72 -6 124 -99q17 -63 14 -94l-2 -2q0 -1 2 0q-6 -70 -80 -124q-41 -28 -73 -39q-35 -9 -79 -6q-71 8 -131 51q-40 32 -66 77q-22 39 -30 95q-12 65 -7 114zM500 1653q0 189 131 325 q127 135 319 135q186 0 319 -138q132 -138 132 -322q0 -181 -130 -315q-133 -128 -321 -133q-192 -5 -319 129q-130 138 -131 319zM518 415q0 39 12 51q165 160 359 159q87 0 184 -34q186 -68 282 -285q81 103 81 231q0 163 -113 272q-112 113 -277 114q-181 0 -304 -146 l-35 -39l-2 5q-2 0 2 5q8 8 8 -2q-27 -52 -74 -52q-37 0 -66.5 27t-29.5 64q0 19 12 40q-2 2 -2 6l2 3q5 4 17.5 20.5t32.5 41.5q171 200 439 200q240 0 402 -161q162 -162 162 -398q0 -231 -167 -397q-167 -167 -397 -167q-316 0 -489 275q-39 75 -39 167zM555 -471 q0 186 128 314q127 128 309 128t311 -131q128 -127 128 -311q0 -181 -125 -309q-130 -129 -314 -133q-176 0 -306 130t-131 312zM677 1653q0 -113 81 -196q77 -83 192 -83q113 0 194 83q80 83 80 196t-80 199q-81 84 -194 84q-59 0 -109.5 -22t-86 -60.5t-56.5 -89.5 t-21 -111zM690 365l25 -34q8 -10 34 -41q120 -142 297 -142q70 -1 164 36q-50 186 -199 243q-85 27 -135 27q-96 0 -186 -89zM728 -471q0 -56 20.5 -105t56 -86.5t83.5 -59t104 -21.5q113 0 192 81q78 83 78 191q0 106 -78 192q-79 81 -192 81q-56 0 -104 -21t-83.5 -58 t-56 -86t-20.5 -108zM743 2068q0 34 13 78q22 61 46 100q8 11 27 41v2q32 45 72 86q31 29 65 53q74 45 115 66q17 12 20 13l3 -1q-63 -53 -98 -112q-49 -79 -52 -146q9 -52 58 -84q18 -11 63 -27q6 -2 17 -9q32 -20 48 -60h-397zM1698 1051q0 39 18 75q11 30 41 62 q36 36 68 54q9 5 32 20h1q39 23 81 37q32 10 65 14q68 8 104 7q16 3 19 3l2 -3q-63 -15 -109 -44q-63 -39 -87 -86q-13 -40 12 -80q10 -14 34 -41q4 -3 10 -12q28 -47 -4 -120q-29 -38 -49 -51l-3 -1h1q-45 -27 -111 -7q-34 11 -56 27q-22 17 -40 44q-30 45 -29 102z M1761 -802v1815q0 88 92 89q105 0 104 -89v-1716h129q87 -11 87 -101q0 -86 -87 -86h-238q-86 0 -87 88zM1765 -836l44 157h151q379 -96 908 38l19 -8l-64 -49q-668 -278 -1058 -138z" />
<glyph unicode="&#x1000;&#x103c;&#x102f;&#x1036;" horiz-adv-x="3183" d="M171 -398v1998q0 193 125 335q127 146 345 145h1462l1 -176h-1463q-144 0 -221 -82.5t-77 -221.5v-1998q0 -68 22.5 -125.5t62.5 -100.5t95.5 -66.5t121.5 -23.5h1500q152 0 230 103q73 94 73 199v523q0 92 90 92q84 0 85 -92v-523q0 -167 -116 -309q-138 -169 -362 -169 h-1500q-206 0 -341 144q-133 142 -133 348zM538 532q0 238 164 410q164 171 400 171q309 0 473 -267q37 54 78 100q171 169 398 170q230 0 395 -164q167 -167 167 -402q0 -238 -163 -400q-176 -169 -394 -169q-46 0 -103 9q-11 2 -19.5 3.5t-20.5 4.5q-64 19 -63 83 q0 91 86 90q17 0 58.5 -10.5t63.5 -10.5q148 0 270 123q112 112 112 277q0 166 -112 279q-115 115 -272 115q-167 0 -280 -119q-96 -94 -111 -258v-35q0 -363 -269 -530q-23 -10 -46 -10q-37 0 -62 27t-25 62q0 42 42 69q171 110 187 356q-3 25 0 53q-13 156 -123 268 q-115 115 -267 115q-160 0 -275 -123t-116 -287q0 -52 15 -105.5t41.5 -105.5t65 -96t88.5 -75q37 -27 36 -69q0 -37 -24.5 -64t-61.5 -27q-19 0 -50 12q-132 94 -208 241q-75 146 -75 289zM666 -300q73 38 123 88q69 68 87 134q5 55 -36 100q-17 15 -57 42q-5 4 -14 13 q-51 52 -31 154q26 57 48 77l3 2v3q49 46 138 39q50 -4 81 -18q32 -14 61 -44q52 -51 68 -122q10 -50 0 -102q-8 -40 -36 -89q-36 -56 -71 -90q-10 -8 -35 -34l-2 -2q-44 -39 -93 -68q-38 -22 -78 -38q-86 -27 -132 -39q-19 -6 -23 -7zM1688 83q0 53 20 100q29 67 91 106 q36 23 70 29q34 9 82 2q89 -13 128 -68l-1 -1l3 -3q16 -26 31 -87q-2 -105 -62 -145q-11 -6 -17 -10q-45 -17 -65 -30q-51 -33 -57 -87q4 -69 58 -150q39 -59 104 -112l-3 -1q-2 0 -20 13q-43 19 -122 65q-36 24 -68 52q-42 39 -76 87l-1 2q-20 30 -28 41q-27 41 -51 102 q-17 54 -16 95zM1831 1539q0 101 71 173.5t172 72.5q98 0 167.5 -72.5t69.5 -173.5q0 -98 -69.5 -169t-167.5 -71q-101 0 -172 71t-71 169zM1940 2026l47 71l157 -8q379 -56 865 240l18 -3l-46 -54q-527 -414 -888 -382q-63 23 -134 38zM1973 1539q0 -41 29 -70.5t72 -29.5 q40 0 71 29.5t31 70.5q0 45 -31 74.5t-71 29.5q-43 0 -72 -29t-29 -75zM2785 1051q0 39 19 75q11 30 41 62q36 36 67 54q9 5 33 20h1q39 23 81 37q32 10 64 14q68 8 105 7q16 3 18 3l2 -3q-63 -15 -108 -44q-63 -39 -88 -86q-13 -40 12 -80q10 -14 35 -41q4 -3 9 -12 q28 -47 -3 -120q-29 -38 -50 -51l-3 -1h1q-45 -27 -111 -7q-34 11 -56 27q-22 17 -40 44q-30 45 -29 102zM2870 -802v1815q0 88 92 89q105 0 105 -89v-1716h128q87 -11 87 -101q0 -86 -87 -86h-238q-86 0 -87 88zM2874 -836l44 157h151q379 -96 908 38l19 -8l-64 -49 q-668 -278 -1058 -138z" />
<glyph unicode="&#x1000;&#x103c;&#x102f;&#x1036;&#x1037;" horiz-adv-x="3574" d="M171 -398v1998q0 193 125 335q127 146 345 145h1462l1 -176h-1463q-144 0 -221 -82.5t-77 -221.5v-1998q0 -68 22.5 -125.5t62.5 -100.5t95.5 -66.5t121.5 -23.5h1500q152 0 230 103q73 94 73 199v523q0 92 90 92q84 0 85 -92v-523q0 -167 -116 -309q-138 -169 -362 -169 h-1500q-206 0 -341 144q-133 142 -133 348zM570 532q0 238 164 410q164 171 400 171q309 0 473 -267q37 54 79 100q171 169 398 170q230 0 394 -164q167 -167 167 -402q0 -238 -163 -400q-176 -169 -394 -169q-46 0 -103 9q-11 2 -19.5 3.5t-19.5 4.5q-64 19 -64 83 q0 91 86 90q17 0 58.5 -10.5t63.5 -10.5q148 0 271 123q112 112 112 277q0 166 -112 279q-115 115 -273 115q-167 0 -279 -119q-96 -94 -111 -258v-35q0 -363 -270 -530q-23 -10 -46 -10q-37 0 -61.5 27t-24.5 62q0 42 42 69q171 110 186 356q-3 25 0 53q-13 156 -123 268 q-115 115 -267 115q-160 0 -275 -123t-115 -287q0 -52 14.5 -105.5t41.5 -105.5t65 -96t88 -75q37 -27 37 -69q0 -37 -25 -64t-62 -27q-19 0 -49 12q-132 94 -208 241q-75 146 -76 289zM666 -310q73 38 123 87q69 68 87 135q5 55 -36 99q-17 15 -57 42q-5 4 -14 13 q-51 52 -31 154q26 57 48 77l3 3v2q49 46 138 40q50 -4 81 -19q32 -14 61 -44q52 -51 68 -122q10 -50 0 -102q-8 -40 -36 -88q-36 -56 -71 -91q-10 -8 -35 -33l-2 -3q-44 -39 -93 -67q-38 -22 -78 -39q-86 -27 -132 -39q-19 -6 -23 -7zM1753 83q0 53 20 100q29 67 91 106 q36 23 70 29q34 9 82 2q89 -13 128 -68l-1 -1l3 -3q16 -26 30 -87q-2 -105 -61 -145q-11 -6 -17 -10q-45 -17 -65 -30q-51 -33 -57 -87q4 -69 58 -150q39 -59 103 -112l-3 -1q-2 0 -19 13q-43 19 -122 65q-36 24 -68 52q-42 39 -76 87l-1 2q-20 30 -29 41q-27 41 -50 102 q-17 54 -16 95zM1842 1539q0 101 70.5 173.5t172.5 72.5q98 0 167.5 -72.5t69.5 -173.5q0 -98 -69.5 -169t-167.5 -71q-101 0 -172 71t-71 169zM1940 2026l47 71l157 -8q379 -56 865 240l18 -3l-46 -54q-527 -414 -888 -382q-63 23 -134 38zM1983 1539q0 -41 29.5 -70.5 t72.5 -29.5q40 0 71 29.5t31 70.5q0 45 -31 74.5t-71 29.5q-43 0 -72.5 -29t-29.5 -75zM2764 1051q0 39 18 75q11 30 41 62q36 36 68 54q9 5 32 20h1q39 23 81 37q32 10 65 14q68 8 104 7q16 3 19 3l2 -3q-63 -15 -109 -44q-63 -39 -87 -86q-13 -40 12 -80q10 -14 34 -41 q4 -3 10 -12q28 -47 -3 -120q-29 -38 -50 -51l-3 -1h1q-45 -27 -111 -7q-34 11 -56 27q-22 17 -40 44q-30 45 -29 102zM2838 -802v1815q0 88 92 89q83 0 83 -89v-1727h236q87 0 87 -90q0 -86 -87 -86h-325q-86 0 -86 88zM2965 -749l47 61l157 -7q379 -49 866 209l17 -3 l-45 -47q-527 -359 -889 -332q-63 21 -134 34zM3169 -418q0 100 71 173t172 73q99 0 168.5 -73t69.5 -173q0 -98 -69.5 -169.5t-168.5 -71.5q-100 0 -171.5 71.5t-71.5 169.5zM3311 -418q0 -41 28.5 -71.5t72.5 -30.5q42 0 73 30.5t31 71.5q0 46 -31 74t-73 28 q-43 0 -72 -28t-29 -74z" />
<glyph unicode="&#x1001;&#x103c;&#x102f;&#x1036;&#x1037;" horiz-adv-x="2486" d="M171 -390v1967q0 229 118 358q139 146 360 145h547v-176h-547q-147 0 -231 -91q-73 -81 -73 -236v-1967q0 -73 23 -133.5t65 -102t98 -65t123 -23.5h493q155 0 240 101q84 91 84 213v517q0 88 88 89q86 0 86 -89v-517q0 -198 -125 -333q-142 -157 -373 -157h-493 q-123 0 -199 36q-64 29 -139 106q-144 144 -145 358zM480 1029q0 14 6 51l-3 2q11 59 28 113q16 44 37 81q46 77 74 117q12 20 15 19l2 1q-33 -78 -39 -148q-10 -99 21 -161q32 -45 94 -52q24 -1 69 -5q11 11 23 9q72 -6 124 -99q17 -63 14 -94l-2 -2q0 -1 2 0 q-6 -70 -79 -124q-41 -28 -74 -39q-34 -9 -78 -6q-71 8 -132 51q-40 32 -66 77q-22 39 -30 95q-12 65 -6 114zM550 415q0 39 12 51q165 160 359 159q87 0 183 -34q186 -68 282 -285q81 103 81 231q0 163 -113 272q-112 113 -277 114q-181 0 -304 -146l-35 -39l-2 5q-2 0 2 5 q8 8 8 -2q-27 -52 -73 -52q-37 0 -66.5 27t-29.5 64q0 19 12 40q-2 2 -3 6l3 3q5 4 17.5 20.5t31.5 41.5q171 200 439 200q240 0 402 -161q163 -162 163 -398q0 -231 -167 -397q-167 -167 -398 -167q-316 0 -488 275q-39 75 -39 167zM721 365l25 -34q8 -10 34 -41 q120 -142 297 -142q71 -1 165 36q-50 186 -200 243q-85 27 -134 27q-96 0 -187 -89zM861 1539q0 101 70 173.5t173 72.5q98 0 167 -72.5t69 -173.5q0 -98 -69 -169t-167 -71q-102 0 -172.5 71t-70.5 169zM981 2016l46 70l158 -8q379 -56 865 241l17 -4l-45 -54 q-527 -414 -888 -382q-64 24 -135 39zM1001 1539q0 -41 30 -70.5t73 -29.5q40 0 71 29.5t31 70.5q0 45 -31 74.5t-71 29.5q-43 0 -73 -29t-30 -75zM1718 1051q0 39 18 75q11 30 41 62q36 36 68 54q9 5 33 20h1q39 23 81 37q32 10 64 14q68 8 105 7q16 3 18 3l2 -3 q-63 -15 -109 -44q-63 -39 -87 -86q-13 -40 12 -80q10 -14 34 -41q4 -3 10 -12q28 -47 -3 -120q-29 -38 -50 -51l-3 -1h1q-45 -27 -111 -7q-34 11 -56 27q-22 17 -40 44q-30 45 -29 102zM1793 -802v1815q0 88 91 89q105 0 105 -89v-1716h128q87 -11 87 -101q0 -86 -87 -86 h-238q-86 0 -86 88zM1796 -836l44 157h151q379 -96 909 38l18 -8l-64 -49q-668 -278 -1058 -138zM2048 -418q0 100 71 173t172 73q99 0 168.5 -73t69.5 -173q0 -98 -69.5 -169.5t-168.5 -71.5q-100 0 -171.5 71.5t-71.5 169.5zM2190 -418q0 -41 28.5 -71.5t72.5 -30.5 q42 0 73 30.5t31 71.5q0 46 -31 74t-73 28q-43 0 -72 -28t-29 -74z" />
<glyph unicode="&#x1016;&#x103c;&#x102f;&#x1036;&#x1037;" horiz-adv-x="2517" d="M171 -390v1967q0 229 118 358q139 146 360 145h547v-176h-547q-147 0 -231 -91q-73 -81 -73 -236v-1967q0 -73 23 -133.5t65 -102t98 -65t123 -23.5h493q155 0 240 101q84 91 84 213v517q0 88 88 89q86 0 86 -89v-517q0 -198 -125 -333q-142 -157 -373 -157h-493 q-123 0 -199 36q-64 29 -139 106q-144 144 -145 358zM361 1202v3h25q49 4 142 8q43 -4 87 -13q56 -12 112 -35l3 -2q34 -15 45 -19q45 -23 98 -65q45 -38 65 -73q29 -47 34 -101q10 -74 -23 -140q-20 -38 -46 -62q-25 -25 -72 -44q-85 -38 -147 -9l-1 2l-3 1q-28 13 -72 59 q-55 94 -23 161q5 11 10 17q30 39 41 60q26 56 2 107q-39 59 -129 102q-64 31 -148 43zM506 554q0 146 73 292q75 148 208 238q25 17 49 18q37 0 61.5 -29t24.5 -65q0 -41 -37 -71q-206 -133 -206 -383q0 -166 113 -287q112 -120 277 -119q186 0 304 156q-211 77 -275 287 q-22 74 -21 145q0 189 154 341q25 25 61 25q37 0 64 -27q277 -190 277 -521q0 -235 -164 -406q-162 -169 -400 -170q-236 0 -400 170q-164 171 -163 406zM883 1539q0 101 70 173.5t172 72.5q98 0 167 -72.5t69 -173.5q0 -98 -69 -169t-167 -71q-102 0 -172 71t-70 169z M927 2016l46 70l158 -8q379 -56 865 241l18 -4l-46 -54q-527 -414 -888 -382q-64 24 -135 39zM1023 1539q0 -41 29.5 -70.5t72.5 -29.5q40 0 71.5 29.5t31.5 70.5q0 45 -31.5 74.5t-71.5 29.5q-43 0 -72.5 -29t-29.5 -75zM1254 729q0 -108 60 -179q50 -59 136 -87q9 42 9 91 q0 204 -155 342q-51 -79 -50 -167zM1718 1051q0 39 18 75q11 30 41 62q36 36 68 54q9 5 33 20h1q39 23 81 37q32 10 64 14q68 8 105 7q16 3 18 3l2 -3q-63 -15 -109 -44q-63 -39 -87 -86q-13 -40 12 -80q10 -14 34 -41q4 -3 10 -12q28 -47 -3 -120q-29 -38 -50 -51l-3 -1h1 q-45 -27 -111 -7q-34 11 -56 27q-22 17 -40 44q-30 45 -29 102zM1793 -802v1815q0 88 91 89q105 0 105 -89v-1716h128q87 -11 87 -101q0 -86 -87 -86h-238q-86 0 -86 88zM1796 -836l44 157h151q379 -96 909 38l18 -8l-64 -49q-668 -278 -1058 -138zM2123 -418 q0 100 71.5 173t171.5 73q99 0 168.5 -73t69.5 -173q0 -98 -69.5 -169.5t-168.5 -71.5q-100 0 -171.5 71.5t-71.5 169.5zM2266 -418q0 -41 28.5 -71.5t71.5 -30.5q42 0 73.5 30.5t31.5 71.5q0 46 -31.5 74t-73.5 28q-43 0 -71.5 -28t-28.5 -74z" />
<glyph unicode="&#x1009;&#x1039;&#x1001;" horiz-adv-x="1336" d="M101 809q0 14 1 51l-1 2q3 58 18 115q11 42 27 80q41 81 66 121q6 20 9 22l3 1q-25 -80 -25 -150q0 -98 34 -157q36 -42 96 -42q24 0 71 10q6 1 19 1q71 0 131 -86q23 -59 23 -89l-1 -6h1q-2 -67 -70 -127q-36 -31 -69 -43q-32 -14 -74 -14q-73 -2 -134 38q-43 29 -72 73 q-24 33 -39 87q-14 65 -14 113zM119 804q0 30 17 54v-2v2l4 -2h-6l-4 2l4 3q12 22 48 62q171 198 437 200q236 2 397 -162q162 -160 168 -394q2 -234 -165 -400q-164 -165 -400 -169q-171 -3 -319 95v-623q0 -122 40 -162q25 -27 161 -44l-9 -164q-32 2 -60.5 7t-55.5 10 q-123 29 -161 69q-91 91 -91 284v749q0 39 58 73q52 19 96 20q34 0 46 -10q100 -130 295 -131q162 0 272 116q110 115 116 280q4 160 -111 269q-115 110 -277 110q-183 0 -302 -139l-29 -36q-8 -8 -12 -8q0 4 4 10l2 -2q3 -8 -4 -18t-19.5 -17t-27 -13.5t-24.5 -6.5 q-88 0 -88 88zM397 -189q4 53 15 90q3 10 12 38l1 2q16 43 38 82q18 30 40 56q50 53 78 77q12 13 14 14l1 -1q-37 -54 -54 -108q-23 -73 -10 -127q17 -40 64 -55q17 -4 55 -8q6 0 15 -4q55 -16 80 -96q3 -51 -4 -73l-1 -2l1 -2q-16 -50 -82 -80q-36 -16 -64 -17 q-28 -4 -59 7q-55 15 -93 60q-27 31 -39 72q-11 30 -8 75zM456 -589q-6 64 15 79q140 102 290 103q117 0 219 -59t154 -165q54 64 54 148q0 52 -24 97t-65.5 78t-96.5 53t-119 20q-132 0 -262 -115q-23 -42 -62 -42q-29 0 -54.5 24t-25.5 59q0 15 7 34v2q-5 0 0 6 q8 5 18.5 17t25.5 29q142 140 353 140q194 0 329 -115q130 -118 130 -287q0 -177 -135 -290q-138 -117 -324 -117q-264 0 -397 196q-23 52 -30 105zM596 -613q15 2 25 0l25 -25q91 -98 237 -98q59 0 118 20q-61 156 -236 157q-85 0 -169 -54z" />
<glyph unicode="&#x1009;&#x1039;&#x1002;" horiz-adv-x="1335" d="M101 809q0 14 1 51l-1 2q3 58 18 115q11 42 27 80q41 81 66 121q6 20 9 22l3 1q-25 -80 -25 -150q0 -98 34 -157q36 -42 96 -42q24 0 71 10q6 1 19 1q71 0 131 -86q23 -59 23 -89l-1 -6h1q-2 -67 -70 -127q-36 -31 -69 -43q-32 -14 -74 -14q-73 -2 -134 38q-43 29 -72 73 q-24 33 -39 87q-14 65 -14 113zM119 804q0 30 17 54v-2v2l4 -2h-6l-4 2l4 3q12 22 48 62q171 198 437 200q236 2 397 -162q162 -160 168 -394q2 -234 -165 -400q-164 -165 -400 -169q-171 -3 -319 95v-623q0 -122 40 -162q25 -27 161 -44l-9 -164q-32 2 -60.5 7t-55.5 10 q-123 29 -161 69q-91 91 -91 284v749q0 39 58 73q52 19 96 20q34 0 46 -10q100 -130 295 -131q162 0 272 116q110 115 116 280q4 160 -111 269q-115 110 -277 110q-183 0 -302 -139l-29 -36q-8 -8 -12 -8q0 4 4 10l2 -2q3 -8 -4 -18t-19.5 -17t-27 -13.5t-24.5 -6.5 q-88 0 -88 88zM434 -486q0 186 145 305q125 95 302 95q194 0 328 -105q135 -105 135 -295q0 -220 -166 -380q-25 -19 -52 -19q-79 0 -78 81q0 29 27 56q117 103 117 262q0 111 -81 174q-86 73 -221 74q-133 0 -217 -68.5t-84 -179.5q0 -152 118 -262q27 -27 27 -59 q0 -78 -81 -78q-25 0 -52 19q-167 152 -167 380zM484 -1115q54 36 89 80q49 59 56 114q-1 44 -37 75q-15 11 -49 29q-5 2 -13 9q-45 36 -38 118q16 49 31 67l2 1v2q33 40 106 44q39 2 65 -7q27 -7 52 -29q45 -34 65 -90q13 -39 8 -82q-1 -31 -19 -73q-24 -47 -47 -76 q-6 -9 -25 -32l-2 -1q-31 -34 -66 -62q-29 -20 -58 -37q-66 -31 -102 -43q-15 -9 -18 -9v2zM932 -769q2 42 22 79q27 52 78 79q28 17 56 20q27 5 65 -3q71 -15 97 -59v-2l1 -3q13 -20 21 -71q-6 -83 -56 -111q-9 -4 -14 -6q-37 -12 -52 -21q-42 -25 -51 -68q0 -55 38 -121 q29 -49 77 -93l-1 -1q-2 0 -17 10q-33 18 -92 59q-27 20 -52 45q-30 33 -56 72l-1 1q-15 26 -21 35q-18 33 -34 84q-12 43 -8 75z" />
<glyph unicode="&#x1009;&#x1039;&#x1005;" horiz-adv-x="1336" d="M101 809q0 14 1 51l-1 2q3 58 18 115q11 42 27 80q41 81 66 121q6 20 9 22l3 1q-25 -80 -25 -150q0 -98 34 -157q36 -42 96 -42q24 0 71 10q6 1 19 1q71 0 131 -86q23 -59 23 -89l-1 -6h1q-2 -67 -70 -127q-36 -31 -69 -43q-32 -14 -74 -14q-73 -2 -134 38q-43 29 -72 73 q-24 33 -39 87q-14 65 -14 113zM119 804q0 30 17 54v-2v2l4 -2h-6l-4 2l4 3q12 22 48 62q171 198 437 200q236 2 397 -162q162 -160 168 -394q2 -234 -165 -400q-164 -165 -400 -169q-171 -3 -319 95v-623q0 -122 40 -162q25 -27 161 -44l-9 -164q-32 2 -60.5 7t-55.5 10 q-123 29 -161 69q-91 91 -91 284v749q0 39 58 73q52 19 96 20q34 0 46 -10q100 -130 295 -131q162 0 272 116q110 115 116 280q4 160 -111 269q-115 110 -277 110q-183 0 -302 -139l-29 -36q-8 -8 -12 -8q0 4 4 10l2 -2q3 -8 -4 -18t-19.5 -17t-27 -13.5t-24.5 -6.5 q-88 0 -88 88zM440 -479q0 177 127 288q144 120 338 120q196 0 310 -135q112 -135 112 -300q0 -160 -125 -265q-137 -110 -316 -110t-311 110q-135 111 -135 292zM594 -473q0 -113 79 -185q119 69 119 177q0 110 -127 172q-71 -64 -71 -164zM827 -229q117 -100 117 -252 q0 -150 -112 -248q12 -2 26.5 -2h27.5q127 1 218 76q74 61 74 155q0 102 -82 198q-68 83 -191 83q-42 0 -78 -10z" />
<glyph unicode="&#x1009;&#x1039;&#x1007;" horiz-adv-x="1336" d="M101 809q0 14 1 51l-1 2q3 58 18 115q11 42 27 80q41 81 66 121q6 20 9 22l3 1q-25 -80 -25 -150q0 -98 34 -157q36 -42 96 -42q24 0 71 10q6 1 19 1q71 0 131 -86q23 -59 23 -89l-1 -6h1q-2 -67 -70 -127q-36 -31 -69 -43q-32 -14 -74 -14q-73 -2 -134 38q-43 29 -72 73 q-24 33 -39 87q-14 65 -14 113zM119 804q0 30 17 54l4 -2h-6l-4 2l4 3q12 22 48 62q171 198 437 200q236 2 397 -162q162 -160 168 -394q2 -234 -165 -400q-164 -165 -400 -169q-171 -3 -319 95v-623q0 -122 40 -162q25 -27 161 -44l-9 -164q-32 2 -60.5 7t-55.5 10 q-123 29 -161 69q-91 91 -91 284v749q0 39 58 73q52 19 96 20q34 0 46 -10q100 -130 295 -131q162 0 272 116q110 115 116 280q4 160 -111 269q-115 110 -277 110q-183 0 -302 -139l-29 -36q-8 -8 -12 -8q0 4 4 10l2 -2q3 -8 -4 -18t-19.5 -17t-27 -13.5t-24.5 -6.5 q-88 0 -88 88zM445 -481q0 167 138 283q135 112 318 112q169 0 319 -105q25 -20 62 -88q44 -79 44 -142q0 -44 -25 -94l59 -74q44 -61 -17 -107q-59 -46 -108 17l-42 58q-83 -39 -208 -37q-88 2 -159 67q-69 60 -69 132q0 74 71 123q64 42 142 42q106 0 196 -77 q-15 40 -39 57q-101 75 -223 76q-65 0 -118.5 -19.5t-95 -53t-64.5 -78.5t-23 -97q0 -100 85 -172q92 -81 223 -80q43 0 77 7l117 -119q-15 -6 -35 -13q-81 -25 -163 -25q-192 0 -327 121q-135 117 -135 286zM651 -1184q64 15 113 44q66 39 93 87q14 41 -10 84 q-10 14 -34 43q-5 4 -10 13q-29 49 6 124q32 40 53 52l2 1l2 2q45 26 114 3q37 -12 58 -30q23 -16 39 -45q30 -49 28 -107q-1 -41 -21 -80q-12 -29 -44 -61q-39 -36 -71 -56q-10 -4 -34 -20l-3 -1q-41 -20 -84 -33q-34 -11 -67 -15q-73 -5 -109 -5q-17 -2 -21 -1v1z M907 -469q-17 -33 83 -39q61 0 98 10q-41 37 -68 44q-94 34 -113 -15z" />
<glyph unicode="&#x1009;&#x1039;&#x100e;" horiz-adv-x="1335" d="M101 809q0 14 1 51l-1 2q3 58 18 115q11 42 27 80q41 81 66 121q6 20 9 22l3 1q-25 -80 -25 -150q0 -98 34 -157q36 -42 96 -42q24 0 71 10q6 1 19 1q71 0 131 -86q23 -59 23 -89l-1 -6h1q-2 -67 -70 -127q-36 -31 -69 -43q-32 -14 -74 -14q-73 -2 -134 38q-43 29 -72 73 q-24 33 -39 87q-14 65 -14 113zM119 804q0 30 17 54l4 -2h-6l-4 2l4 3q12 22 48 62q171 198 437 200q236 2 397 -162q162 -160 168 -394q2 -234 -165 -400q-164 -165 -400 -169q-171 -3 -319 95v-623q0 -122 40 -162q25 -27 161 -44l-9 -164q-32 2 -60.5 7t-55.5 10 q-123 29 -161 69q-91 91 -91 284v749q0 39 58 73q52 19 96 20q34 0 46 -10q100 -130 295 -131q162 0 272 116q110 115 116 280q4 160 -111 269q-115 110 -277 110q-183 0 -302 -139l-29 -36q-8 -8 -12 -8q0 4 4 10l2 -2q3 -8 -4 -18t-19.5 -17t-27 -13.5t-24.5 -6.5 q-88 0 -88 88zM470 -489l4 58l134 36q60 14 65 88q-11 63 -55 61l-52 -2q-11 -3 -23 -13.5t-20 -13.5l-40 156q44 23 118 33l76 -10q47 -18 79.5 -45.5t42.5 -64.5q9 -12 13 -33t8 -44l5 -38q11 -163 -194 -229q6 -37 22.5 -70t47.5 -62q75 -74 183 -75q100 0 181 75 q75 81 75 185q0 53 -19.5 101.5t-55.5 96.5l51 158q32 -22 61 -48q122 -137 122 -308t-124 -295h2q-124 -121 -293 -121q-176 0 -297 121q-56 60 -86.5 133t-30.5 162v8zM933 -260q-2 31 11 75q18 51 38 83q5 9 22 33l1 2q27 38 58 69q26 25 53 44q61 39 94 55q15 10 18 11 l1 -2q-50 -42 -80 -91q-41 -65 -42 -119q6 -43 47 -70q16 -9 52 -22q5 -2 13 -7q50 -29 53 -114q-10 -50 -23 -69l-1 -2v-2q-28 -44 -99 -57q-39 -6 -66 0q-28 5 -56 23q-50 28 -74 80q-18 37 -20 80z" />
<glyph unicode="&#x1009;&#x1039;&#x1012;" horiz-adv-x="1335" d="M102 809q0 14 1 51l-1 2q3 58 18 115q11 42 27 80q41 81 66 121q6 20 9 22l3 1q-25 -80 -25 -150q0 -98 34 -157q36 -42 96 -42q24 0 71 10q6 1 19 1q71 0 131 -86q23 -59 24 -89l-2 -6h2q-2 -67 -71 -127q-36 -31 -69 -43q-32 -14 -74 -14q-73 -2 -134 38q-43 29 -72 73 q-24 33 -39 87q-14 65 -14 113zM120 804q0 30 17 54v-2v2l4 -2h-6l-3 2l3 3q12 22 48 62q171 198 437 200q236 2 398 -162q162 -160 167 -394q2 -234 -165 -400q-164 -165 -400 -169q-171 -3 -319 95v-623q0 -122 40 -162q25 -27 161 -44l-9 -164q-32 2 -60.5 7t-55.5 10 q-123 29 -161 69q-91 91 -91 284v749q0 39 58 73q52 19 96 20q34 0 47 -10q100 -130 294 -131q162 0 272 116q110 115 116 280q4 160 -111 269q-115 110 -277 110q-183 0 -302 -139l-29 -36q-8 -8 -12 -8q0 4 4 10l2 -2q3 -8 -4 -18t-19.5 -17t-27 -13.5t-24.5 -6.5 q-88 0 -88 88zM370 -53l2 1q29 -58 69 -98q54 -55 107 -69q43 -4 78 29q12 13 35 44q3 5 9 12q41 40 122 25q46 -22 63 -39l2 -2h1q37 -39 32 -110q-3 -39 -15 -64q-10 -26 -35 -49q-40 -41 -96 -54q-40 -8 -82 0q-31 6 -71 29q-43 29 -71 56q-6 8 -27 28l-1 2 q-31 34 -54 74q-18 30 -32 61q-22 69 -31 106q-5 16 -5 18zM370 -908q0 3 5 19q10 37 31 105q13 32 32 63q23 38 54 73l1 1q20 20 27 28q28 28 71 56q40 24 71 29q42 9 82 0q56 -12 96 -52q24 -24 35 -50q12 -25 15 -64q4 -72 -32 -109h-1l-2 -4q-16 -17 -63 -37 q-81 -16 -122 23q-6 6 -9 12q-23 31 -35 45q-36 33 -78 29q-53 -14 -107 -68q-40 -40 -69 -99h-2zM578 -294q59 231 392 228q152 -5 260 -61q140 -79 140 -211q0 -88 -71 -152q66 -71 66 -145q0 -236 -395 -248q-294 -8 -385 191q-3 10 -4 17.5t-1 14.5q0 71 76 71 q44 0 66 -44q46 -106 248 -100q225 4 243 91q10 69 -93 83q-10 -2 -25 -3h-63q-77 0 -77 74q0 81 77 81h63h10h7q117 15 101 80q-27 111 -243 111q-219 0 -242 -111q-13 -64 -75 -63q-37 0 -62 28.5t-13 67.5z" />
<glyph unicode="&#x1009;&#x1039;&#x1013;" horiz-adv-x="1335" d="M101 809q0 14 1 51l-1 2q3 58 18 115q11 42 27 80q41 81 66 121q6 20 9 22l3 1q-25 -80 -25 -150q0 -98 34 -157q36 -42 96 -42q24 0 71 10q6 1 19 1q71 0 131 -86q23 -59 23 -89l-1 -6h1q-2 -67 -70 -127q-36 -31 -69 -43q-32 -14 -74 -14q-73 -2 -134 38q-43 29 -72 73 q-24 33 -39 87q-14 65 -14 113zM119 804q0 30 17 54v-2v2l4 -2h-6l-4 2l4 3q12 22 48 62q171 198 437 200q236 2 397 -162q162 -160 168 -394q2 -234 -165 -400q-164 -165 -400 -169q-171 -3 -319 95v-623q0 -122 40 -162q25 -27 161 -44l-9 -164q-32 2 -60.5 7t-55.5 10 q-123 29 -161 69q-91 91 -91 284v749q0 39 58 73q52 19 96 20q34 0 46 -10q100 -130 295 -131q162 0 272 116q110 115 116 280q4 160 -111 269q-115 110 -277 110q-183 0 -302 -139l-29 -36q-8 -8 -12 -8q0 4 4 10l2 -2q3 -8 -4 -18t-19.5 -17t-27 -13.5t-24.5 -6.5 q-88 0 -88 88zM416 -479q0 167 133 283q129 115 323 115q191 0 327 -113q134 -113 134 -285q0 -177 -134 -288q-138 -117 -327 -118q-191 0 -323 118q-133 112 -133 288zM570 -479q0 -52 23 -102q108 115 274 115q172 0 287 -115q24 46 24 102q0 54 -24 100t-65.5 79 t-98.5 50t-118 17q-64 0 -117.5 -20t-95.5 -52.5t-65.5 -77t-23.5 -96.5zM697 -692q79 -41 175 -41q91 0 177 49q-69 64 -182 63q-98 0 -170 -71z" />
<glyph unicode="&#x1009;&#x1039;&#x1014;" horiz-adv-x="1335" d="M101 809q0 14 1 51l-1 2q3 58 18 115q11 42 27 80q41 81 66 121q6 20 9 22l3 1q-25 -80 -25 -150q0 -98 34 -157q36 -42 96 -42q24 0 71 10q6 1 19 1q71 0 131 -86q23 -59 23 -89l-1 -6h1q-2 -67 -70 -127q-36 -31 -69 -43q-32 -14 -74 -14q-73 -2 -134 38q-43 29 -72 73 q-24 33 -39 87q-14 65 -14 113zM119 804q0 30 17 54v-2v2l4 -2h-6l-4 2l4 3q12 22 48 62q171 198 437 200q236 2 397 -162q162 -160 168 -394q2 -234 -165 -400q-164 -165 -400 -169q-171 -3 -319 95v-623q0 -122 40 -162q25 -27 161 -44l-9 -164q-32 2 -60.5 7t-55.5 10 q-123 29 -161 69q-91 91 -91 284v749q0 39 58 73q52 19 96 20q34 0 46 -10q100 -130 295 -131q162 0 272 116q110 115 116 280q4 160 -111 269q-115 110 -277 110q-183 0 -302 -139l-29 -36q-8 -8 -12 -8q0 4 4 10l2 -2q3 -8 -4 -18t-19.5 -17t-27 -13.5t-24.5 -6.5 q-88 0 -88 88zM446 -625q0 71 43 129q61 88 187 89q103 0 210 -60t210 -137q6 -4 21.5 -15.5t36.5 -22.5v21q-10 67 -96 115q-17 10 -57.5 20.5t-108.5 22.5q-157 29 -213 115q-23 39 -23 86q0 73 52 122q69 59 177 59q102 0 173 -49q5 -4 10.5 -9t10.5 -11q54 -17 54 -69 q0 -81 -75 -81q-10 0 -48 15l-8 8q-10 4 -36.5 24t-80.5 20q-46 0 -77 -22q-4 -4 0 -7q17 -32 224 -74q98 -17 182 -93q79 -71 90 -175q8 -58 -19 -119q19 -13 38.5 -23t40.5 -19q40 -35 40 -69q0 -81 -73 -81q-22 0 -159 79q-140 -59 -343 -47q-246 14 -319 100 q-64 71 -64 158zM595 -633q0 -25 25 -44t77.5 -34.5t141.5 -21.5q81 -8 163 6h-4q-52 42 -194 129q-71 44 -125 44q-42 0 -67 -32q-17 -22 -17 -47z" />
<glyph unicode="&#x1009;&#x1039;&#x1015;" horiz-adv-x="1336" d="M73 785q10 65 27 111q5 12 20 45v3q24 53 56 100q26 36 55 66q68 61 105 90q14 16 16 17h4q-52 -66 -77 -133q-36 -91 -25 -158q17 -52 75 -73q22 -9 70 -15q6 -2 18 -7q67 -26 92 -127q-1 -64 -11 -92l-3 -4l2 -1q-27 -61 -111 -94q-45 -16 -81 -15q-34 -1 -74 13 q-68 25 -111 84q-30 42 -42 94q-10 40 -5 96zM119 804q0 30 17 54v-2v2l4 -2h-6l-4 2l4 3q12 22 48 62q171 198 437 200q236 2 397 -162q162 -160 168 -394q2 -234 -165 -400q-164 -165 -400 -169q-171 -3 -319 95v-623q0 -122 40 -162q25 -27 161 -44l-9 -164 q-32 2 -60.5 7t-55.5 10q-123 29 -161 69q-91 91 -91 284v749q0 39 58 73q52 19 96 20q34 0 46 -10q100 -130 295 -131q162 0 272 116q110 115 116 280q4 160 -111 269q-115 110 -277 110q-183 0 -302 -139l-29 -36q-8 -8 -12 -8q0 4 4 10l2 -2q3 -8 -4 -18t-19.5 -17 t-27 -13.5t-24.5 -6.5q-88 0 -88 88zM324 -15q2 1 20 2q37 5 109 9q34 0 69 -7q44 -8 87 -23h2q27 -12 37 -17q34 -15 77 -46q37 -27 52 -55q24 -36 30 -77q9 -57 -15 -108q-12 -32 -32 -51q-19 -20 -55 -37q-66 -30 -113 -10l-1 2l-4 1q-22 9 -58 44q-44 70 -21 123 q3 9 7 13q22 32 29 47q19 45 0 84q-32 45 -103 76q-52 22 -117 29v1zM434 -535q0 227 160 380q26 19 50 19q78 0 77 -77q0 -32 -26 -60q-113 -110 -113 -262q0 -111 81 -179.5t207 -68.5q129 0 211 74q78 64 78 174q0 158 -112 262q-26 27 -26 56q0 81 75 81q26 0 50 -19 q158 -160 158 -380q0 -189 -129 -295q-128 -105 -314 -105q-169 0 -289 95q-138 119 -138 305zM970 -259q-3 41 11 81q10 31 38 67q34 40 64 64q9 5 33 23l2 1q38 25 78 43q33 14 66 22q71 14 108 17q17 4 20 4v-2q-61 -23 -106 -56q-61 -45 -83 -97q-10 -42 19 -82 q11 -14 39 -38q5 -4 11 -12q34 -45 8 -124q-28 -43 -47 -57l-2 -1v-3q-42 -31 -113 -17q-38 9 -62 24q-25 14 -43 41q-37 44 -41 102z" />
<glyph unicode="&#x1009;&#x1039;&#x1016;" horiz-adv-x="1336" d="M101 809q0 14 1 51l-1 2q3 58 18 115q11 42 27 80q41 81 66 121q6 20 9 22l3 1q-25 -80 -25 -150q0 -98 34 -157q36 -42 96 -42q24 0 71 10q6 1 19 1q71 0 131 -86q23 -59 23 -89l-1 -6h1q-2 -67 -70 -127q-36 -31 -69 -43q-32 -14 -74 -14q-73 -2 -134 38q-43 29 -72 73 q-24 33 -39 87q-14 65 -14 113zM119 804q0 30 17 54l4 -2h-6l-4 2l4 3q12 22 48 62q171 198 437 200q236 2 397 -162q162 -160 168 -394q2 -234 -165 -400q-164 -165 -400 -169q-171 -3 -319 95v-623q0 -122 40 -162q25 -27 161 -44l-9 -164q-32 2 -60.5 7t-55.5 10 q-123 29 -161 69q-91 91 -91 284v749q0 39 58 73q52 19 96 20q34 0 46 -10q100 -130 295 -131q162 0 272 116q110 115 116 280q4 160 -111 269q-115 110 -277 110q-183 0 -302 -139l-29 -36q-8 -8 -12 -8q0 4 4 10l2 -2q3 -8 -4 -18t-19.5 -17t-27 -13.5t-24.5 -6.5 q-88 0 -88 88zM292 -26q2 1 20 2q37 5 108 9q34 0 69 -7q44 -8 88 -23h2l36 -16q34 -15 78 -47q37 -27 52 -55q24 -36 30 -76q9 -57 -15 -109q-12 -32 -32 -51q-19 -20 -55 -36q-66 -30 -114 -11l-1 2l-3 1q-22 9 -58 44q-44 70 -22 123q3 9 8 13q22 32 29 47q19 45 0 84 q-32 45 -103 76q-52 22 -117 29v1zM438 -469q0 103 62 210q49 83 126 138l78 -130q-111 -85 -111 -218q0 -117 86.5 -190.5t219.5 -73.5t219 75q-165 59 -207 212q-12 54 -12 98q0 135 110 235q40 57 101 25q245 -125 245 -381q0 -176 -127 -294q-127 -117 -329 -120 q-194 -2 -329 116q-133 117 -132 298zM1063 -407q28 -81 136 -110q2 12 3 24t1 24q0 121 -118 214q-46 -68 -22 -152z" />
<glyph unicode="&#x1009;&#x1039;&#x1017;" horiz-adv-x="1349" d="M101 809q0 14 1 51l-1 2q3 58 18 115q11 42 27 80q41 81 66 121q6 20 9 22l3 1q-25 -80 -25 -150q0 -98 34 -157q36 -42 96 -42q24 0 71 10q6 1 19 1q71 0 131 -86q23 -59 23 -89l-1 -6h1q-2 -67 -70 -127q-36 -31 -69 -43q-32 -14 -74 -14q-73 -2 -134 38q-43 29 -72 73 q-24 33 -39 87q-14 65 -14 113zM119 804q0 30 17 54v-2v2l4 -2h-6l-4 2l4 3q12 22 48 62q171 198 437 200q236 2 397 -162q162 -160 168 -394q2 -234 -165 -400q-164 -165 -400 -169q-171 -3 -319 95v-623q0 -122 40 -162q25 -27 161 -44l-9 -164q-32 2 -60.5 7t-55.5 10 q-123 29 -161 69q-91 91 -91 284v749q0 39 58 73q52 19 96 20q34 0 46 -10q100 -130 295 -131q162 0 272 116q110 115 116 280q4 160 -111 269q-115 110 -277 110q-183 0 -302 -139l-29 -36q-8 -8 -12 -8q0 4 4 10l2 -2q3 -8 -4 -18t-19.5 -17t-27 -13.5t-24.5 -6.5 q-88 0 -88 88zM411 -473q0 54 15.5 110.5t45 106.5t72.5 92.5t97 72.5q29 12 49 12q61 0 59 -83q-5 -50 32 -89t86 -39q44 0 75.5 39.5t29.5 88.5q-2 83 58 83q25 0 45 -9q119 -52 186 -160t67 -225q0 -177 -130 -292q-133 -117 -329 -120q-196 -5 -326 114 q-133 119 -132 298zM565 -473q0 -57 23 -104.5t63.5 -82t96 -54t121.5 -19.5q64 0 119 19.5t96.5 54t65 82t23.5 104.5q0 112 -78 186q-69 -157 -228 -157q-157 0 -241 150q-61 -79 -61 -179z" />
<glyph unicode="&#x1009;&#x1039;&#x1019;" horiz-adv-x="1336" d="M101 809q0 14 1 51l-1 2q3 58 18 115q11 42 27 80q41 81 66 121q6 20 9 22l3 1q-25 -80 -25 -150q0 -98 34 -157q36 -42 96 -42q24 0 71 10q6 1 19 1q71 0 131 -86q23 -59 23 -89l-1 -6h1q-2 -67 -70 -127q-36 -31 -69 -43q-32 -14 -74 -14q-73 -2 -134 38q-43 29 -72 73 q-24 33 -39 87q-14 65 -14 113zM119 804q0 30 17 54l4 -2h-6l-4 2l4 3q12 22 48 62q171 198 437 200q236 2 397 -162q162 -160 168 -394q2 -234 -165 -400q-164 -165 -400 -169q-171 -3 -319 95v-623q0 -122 40 -162q25 -27 161 -44l-9 -164q-32 2 -60.5 7t-55.5 10 q-123 29 -161 69q-91 91 -91 284v749q0 39 58 73q52 19 96 20q34 0 46 -10q100 -130 295 -131q162 0 272 116q110 115 116 280q4 160 -111 269q-115 110 -277 110q-183 0 -302 -139l-29 -36q-8 -8 -12 -8q0 4 4 10l2 -2q3 -8 -4 -18t-19.5 -17t-27 -13.5t-24.5 -6.5 q-88 0 -88 88zM324 -15q2 1 20 2q37 5 109 9q34 0 69 -7q44 -8 87 -23h2q27 -12 37 -17q34 -15 77 -46q37 -27 52 -55q24 -36 30 -77q9 -57 -15 -108q-12 -32 -32 -51q-19 -20 -55 -37q-66 -30 -113 -10l-1 2l-4 1q-22 9 -58 44q-44 70 -21 123q3 9 7 13q22 32 29 47 q19 45 0 84q-32 45 -103 76q-52 22 -117 29v1zM432 -482q0 52 17.5 106t48 105.5t74.5 95.5q13 13 28 25l116 -103q-129 -91 -130 -229q0 -39 10 -69q115 113 294 113t295 -115q10 32 9 71q0 147 -137 233l131 97q162 -124 162 -330q0 -177 -131 -294q-129 -120 -329 -120 q-98 0 -208 41q-115 52 -165 131q-85 108 -85 242zM684 -680q86 -64 206 -64q119 0 204 64q-81 88 -204 88q-122 0 -206 -88zM970 -259q-3 41 11 81q10 31 38 67q34 40 64 64q9 5 33 23l2 1q38 25 78 43q33 14 66 22q71 14 108 17q17 4 20 4v-2q-61 -23 -106 -56 q-61 -45 -83 -97q-10 -42 19 -82q11 -14 39 -38q5 -4 11 -12q34 -45 8 -124q-28 -43 -47 -57l-2 -1v-3q-42 -31 -113 -17q-38 9 -62 24q-25 14 -43 41q-37 44 -41 102z" />
<glyph unicode="&#x1009;&#x1039;&#x105c;" horiz-adv-x="1335" d="M101 809q0 14 1 51l-1 2q3 58 18 115q11 42 27 80q41 81 66 121q6 20 9 22l3 1q-25 -80 -25 -150q0 -98 34 -157q36 -42 96 -42q24 0 71 10q6 1 19 1q71 0 131 -86q23 -59 23 -89l-1 -6h1q-2 -67 -70 -127q-36 -31 -69 -43q-32 -14 -74 -14q-73 -2 -134 38q-43 29 -72 73 q-24 33 -39 87q-14 65 -14 113zM119 804q0 30 17 54v-2v2l4 -2h-6l-4 2l4 3q12 22 48 62q171 198 437 200q236 2 397 -162q162 -160 168 -394q2 -234 -165 -400q-164 -165 -400 -169q-171 -3 -319 95v-623q0 -122 40 -162q25 -27 161 -44l-9 -164q-32 2 -60.5 7t-55.5 10 q-123 29 -161 69q-91 91 -91 284v749q0 39 58 73q52 19 96 20q34 0 46 -10q100 -130 295 -131q162 0 272 116q110 115 116 280q4 160 -111 269q-115 110 -277 110q-183 0 -302 -139l-29 -36q-8 -8 -12 -8q0 4 4 10l2 -2q3 -8 -4 -18t-19.5 -17t-27 -13.5t-24.5 -6.5 q-88 0 -88 88zM427 -476q0 88 34 165.5t91 134.5t133 91t165 34q87 0 164.5 -34t136 -91t92 -134.5t33.5 -165.5t-33.5 -166t-92 -135.5t-135.5 -91t-165 -33.5q-89 0 -165 33.5t-133 91t-91 135.5t-34 166zM584 -480q0 -56 21.5 -104.5t57 -84.5t84 -57t105.5 -21 q54 0 102 21t85.5 57t57.5 84.5t20 104.5q0 54 -20 102t-57.5 85.5t-86 57.5t-101.5 20q-56 0 -105 -20t-84.5 -57.5t-57 -85.5t-21.5 -102zM679 -478q0 73 50.5 125t123.5 52q72 0 123 -52t51 -125q0 -71 -51 -122t-123 -51t-123 51t-51 122zM780 -478q0 -30 22 -51.5 t51 -21.5q30 0 53.5 21.5t23.5 51.5q0 31 -23.5 53.5t-53.5 22.5q-29 0 -51 -22t-22 -54z" />
<glyph unicode="&#x1009;&#x1039;&#x1075;" horiz-adv-x="1335" d="M101 809q0 14 1 51l-1 2q3 58 18 115q11 42 27 80q41 81 66 121q6 20 9 22l3 1q-25 -80 -25 -150q0 -98 34 -157q36 -42 96 -42q24 0 71 10q6 1 19 1q71 0 131 -86q23 -59 23 -89l-1 -6h1q-2 -67 -70 -127q-36 -31 -69 -43q-32 -14 -74 -14q-73 -2 -134 38q-43 29 -72 73 q-24 33 -39 87q-14 65 -14 113zM119 804q0 30 17 54l4 -2h-6l-4 2l4 3q12 22 48 62q171 198 437 200q236 2 397 -162q162 -160 168 -394q2 -234 -165 -400q-164 -165 -400 -169q-171 -3 -319 95v-623q0 -122 40 -162q25 -27 161 -44l-9 -164q-32 2 -60.5 7t-55.5 10 q-123 29 -161 69q-91 91 -91 284v749q0 39 58 73q52 19 96 20q34 0 46 -10q100 -130 295 -131q162 0 272 116q110 115 116 280q4 160 -111 269q-115 110 -277 110q-183 0 -302 -139l-29 -36q-8 -8 -12 -8q0 4 4 10l2 -2q3 -8 -4 -18t-19.5 -17t-27 -13.5t-24.5 -6.5 q-88 0 -88 88zM516 -451q0 89 32 162t91 134q124 121 305 121q174 0 303 -121h-2q128 -124 128 -296q0 -174 -126 -310q-42 -37 -87 -64q-8 -4 -15 -8l-77 140q3 1 6 3q32 17 58 40v-2q37 49 57 97.5t20 103.5q0 103 -77 185q-83 75 -188 75q-111 0 -189 -75 q-30 -28 -48 -61.5t-25 -72.5q211 -64 202 -228l-4 -38q-5 -24 -9.5 -45t-13.5 -34q-12 -36 -45.5 -64.5t-80.5 -45.5l-79 -11q-78 11 -122 35l42 156q8 -4 20 -13.5t22 -13.5l55 -2q46 -2 58 62q-5 74 -68 88l-137 36l-6 60v7zM981 -721q4 58 41 102q18 27 43 41 q24 15 61 24q71 14 114 -17v-2l2 -2q19 -14 47 -57q26 -79 -8 -124q-5 -8 -11 -11q-28 -26 -39 -39q-29 -40 -19 -82q22 -52 83 -97q45 -33 106 -56v-1q-3 -1 -20 3q-37 3 -108 17q-32 8 -66 22q-41 18 -78 43l-3 1l-32 24q-30 24 -65 63q-28 36 -37 67q-14 40 -11 81z" />
<glyph unicode="&#x1009;&#x1039;&#x1051;" horiz-adv-x="1335" d="M101 809q0 14 1 51l-1 2q3 58 18 115q11 42 27 80q41 81 66 121q6 20 9 22l3 1q-25 -80 -25 -150q0 -98 34 -157q36 -42 96 -42q24 0 71 10q6 1 19 1q71 0 131 -86q23 -59 23 -89l-1 -6h1q-2 -67 -70 -127q-36 -31 -69 -43q-32 -14 -74 -14q-73 -2 -134 38q-43 29 -72 73 q-24 33 -39 87q-14 65 -14 113zM119 804q0 30 17 54v-2v2l4 -2h-6l-4 2l4 3q12 22 48 62q171 198 437 200q236 2 397 -162q162 -160 168 -394q2 -234 -165 -400q-164 -165 -400 -169q-171 -3 -319 95v-623q0 -122 40 -162q25 -27 161 -44l-9 -164q-32 2 -60.5 7t-55.5 10 q-123 29 -161 69q-91 91 -91 284v749q0 39 58 73q52 19 96 20q34 0 46 -10q100 -130 295 -131q162 0 272 116q110 115 116 280q4 160 -111 269q-115 110 -277 110q-183 0 -302 -139l-29 -36q-8 -8 -12 -8q0 4 4 10l2 -2q3 -8 -4 -18t-19.5 -17t-27 -13.5t-24.5 -6.5 q-88 0 -88 88zM324 -15q2 1 20 2q37 5 109 9q34 0 69 -7q44 -8 87 -23h2q27 -12 37 -17q34 -15 77 -46q37 -27 52 -55q24 -36 30 -77q9 -57 -15 -108q-12 -32 -32 -51q-19 -20 -55 -37q-66 -30 -113 -10l-1 2l-4 1q-22 9 -58 44q-44 70 -21 123q3 9 7 13q22 32 29 47 q19 45 0 84q-32 45 -103 76q-52 22 -117 29v1zM434 -535q0 227 160 380q26 19 50 19q78 0 77 -77q0 -32 -26 -60q-113 -110 -113 -262q0 -111 81 -179.5t207 -68.5q129 0 211 74q78 64 78 174q0 158 -112 262q-26 27 -26 56q0 81 75 81q26 0 50 -19q158 -160 158 -380 q0 -189 -129 -295q-128 -105 -314 -105q-169 0 -289 95q-138 119 -138 305zM757 -549q0 -47 32 -79t79 -32q44 0 78.5 32t34.5 79q0 43 -34.5 75.5t-78.5 32.5q-46 0 -78.5 -32.5t-32.5 -75.5zM949 -280q-3 41 10 81q10 31 38 66q34 40 65 64q9 5 32 24l2 1q38 25 79 43 q33 14 66 21q71 14 107 18q17 4 21 3v-1q-61 -23 -107 -56q-61 -45 -83 -97q-10 -42 20 -82q11 -14 38 -39q5 -4 11 -12q34 -45 9 -124q-28 -43 -48 -57l-2 -1v-2q-42 -31 -113 -17q-38 9 -61 23q-25 14 -43 41q-37 44 -41 103z" />
<glyph unicode="&#x1009;&#x1039;&#x1050;" horiz-adv-x="1335" d="M101 809q0 14 1 51l-1 2q3 58 18 115q11 42 27 80q41 81 66 121q6 20 9 22l3 1q-25 -80 -25 -150q0 -98 34 -157q36 -42 96 -42q24 0 71 10q6 1 19 1q71 0 131 -86q23 -59 23 -89l-1 -6h1q-2 -67 -70 -127q-36 -31 -69 -43q-32 -14 -74 -14q-73 -2 -134 38q-43 29 -72 73 q-24 33 -39 87q-14 65 -14 113zM119 804q0 30 17 54v-2v2l4 -2h-6l-4 2l4 3q12 22 48 62q171 198 437 200q236 2 397 -162q162 -160 168 -394q2 -234 -165 -400q-164 -165 -400 -169q-171 -3 -319 95v-623q0 -122 40 -162q25 -27 161 -44l-9 -164q-32 2 -60.5 7t-55.5 10 q-123 29 -161 69q-91 91 -91 284v749q0 39 58 73q52 19 96 20q34 0 46 -10q100 -130 295 -131q162 0 272 116q110 115 116 280q4 160 -111 269q-115 110 -277 110q-183 0 -302 -139l-29 -36q-8 -8 -12 -8q0 4 4 10l2 -2q3 -8 -4 -18t-19.5 -17t-27 -13.5t-24.5 -6.5 q-88 0 -88 88zM324 -985q65 6 117 29q71 30 103 74q19 40 0 84q-8 16 -29 48q-4 5 -7 14q-23 53 21 123q37 36 58 44l4 1l1 2q47 19 113 -11q36 -16 55 -36q20 -20 32 -51q24 -52 15 -109q-6 -41 -30 -76q-15 -28 -52 -55q-43 -31 -77 -48q-10 -3 -37 -15h-2 q-43 -16 -87 -24q-34 -6 -69 -6q-72 3 -109 9q-17 1 -20 1v2zM434 -467q0 186 138 305q120 95 289 95q185 0 314 -104q129 -106 129 -296q0 -220 -158 -379q-24 -19 -50 -20q-75 0 -75 81q0 29 26 56q112 103 112 262q0 111 -78 175q-82 73 -211 73q-126 0 -207 -68.5 t-81 -179.5q0 -152 113 -262q26 -27 26 -59q0 -78 -77 -78q-24 0 -50 20q-160 152 -160 379zM757 -453q0 -43 32 -75.5t79 -32.5q44 0 78.5 32.5t34.5 75.5q0 47 -34.5 79t-78.5 32q-46 0 -78.5 -31.5t-32.5 -79.5zM970 -743q4 58 41 103q18 27 43 41q24 15 62 23 q71 14 113 -17v-2l2 -1q19 -14 47 -57q26 -79 -8 -124q-5 -8 -11 -12q-28 -26 -39 -39q-29 -40 -19 -82q22 -52 83 -97q45 -33 106 -56v-1q-3 -1 -20 3q-37 3 -108 18q-32 8 -66 21q-41 18 -78 43l-2 1q-24 18 -33 24q-30 24 -64 64q-28 36 -38 66q-14 40 -11 81z" />
<glyph unicode="&#x1009;&#x1039;&#x1076;" horiz-adv-x="1335" d="M101 809q0 14 1 51l-1 2q3 58 18 115q11 42 27 80q41 81 66 121q6 20 9 22l3 1q-25 -80 -25 -150q0 -98 34 -157q36 -42 96 -42q24 0 71 10q6 1 19 1q71 0 131 -86q23 -59 23 -89l-1 -6h1q-2 -67 -70 -127q-36 -31 -69 -43q-32 -14 -74 -14q-73 -2 -134 38q-43 29 -72 73 q-24 33 -39 87q-14 65 -14 113zM119 804q0 30 17 54v-2v2l4 -2h-6l-4 2l4 3q12 22 48 62q171 198 437 200q236 2 397 -162q162 -160 168 -394q2 -234 -165 -400q-164 -165 -400 -169q-171 -3 -319 95v-623q0 -122 40 -162q25 -27 161 -44l-9 -164q-32 2 -60.5 7t-55.5 10 q-123 29 -161 69q-91 91 -91 284v749q0 39 58 73q52 19 96 20q34 0 46 -10q100 -130 295 -131q162 0 272 116q110 115 116 280q4 160 -111 269q-115 110 -277 110q-183 0 -302 -139l-29 -36q-8 -8 -12 -8q0 4 4 10l2 -2q3 -8 -4 -18t-19.5 -17t-27 -13.5t-24.5 -6.5 q-88 0 -88 88zM539 -622q0 44 17 83.5t46.5 69.5t68.5 46.5t86 16.5q98 0 162 -63t64 -153q0 -70 -42 -129q92 8 158 74q78 77 78 190q0 103 -78 181q-74 70 -162 75q-17 -80 -68.5 -116.5t-137.5 -38.5q-100 10 -143 60.5t-43 131.5q0 46 17 114l152 -12q-18 -67 -19 -93 q0 -53 40 -65q32 0 51 39t14 119q55 15 111 18h17q165 -5 284 -120q126 -123 126 -293q0 -89 -32 -162.5t-93 -137.5q-122 -123 -302 -123q-163 0 -291 117q-11 3 -20 12q-61 73 -61 159zM683 -619q0 -31 24 -53t54 -22q33 0 57 22t24 53q0 33 -24 57t-57 24 q-30 0 -54 -23.5t-24 -57.5z" />
<glyph unicode="&#x1009;&#x1039;&#x100b;" horiz-adv-x="1335" d="M101 809q0 14 1 51l-1 2q3 58 18 115q11 42 27 80q41 81 66 121q6 20 9 22l3 1q-25 -80 -25 -150q0 -98 34 -157q36 -42 96 -42q24 0 71 10q6 1 19 1q71 0 131 -86q23 -59 23 -89l-1 -6h1q-2 -67 -70 -127q-36 -31 -69 -43q-32 -14 -74 -14q-73 -2 -134 38q-43 29 -72 73 q-24 33 -39 87q-14 65 -14 113zM119 804q0 30 17 54v-2v2l4 -2h-6l-4 2l4 3q12 22 48 62q171 198 437 200q236 2 397 -162q162 -160 168 -394q2 -234 -165 -400q-164 -165 -400 -169q-171 -3 -319 95v-623q0 -122 40 -162q25 -27 161 -44l-9 -164q-32 2 -60.5 7t-55.5 10 q-123 29 -161 69q-91 91 -91 284v749q0 39 58 73q52 19 96 20q34 0 46 -10q100 -130 295 -131q162 0 272 116q110 115 116 280q4 160 -111 269q-115 110 -277 110q-183 0 -302 -139l-29 -36q-8 -8 -12 -8q0 4 4 10l2 -2q3 -8 -4 -18t-19.5 -17t-27 -13.5t-24.5 -6.5 q-88 0 -88 88zM524 -331q0 58 26 111.5t72 95.5q50 38 106.5 59.5t120.5 21.5q69 0 124.5 -20.5t105.5 -60.5q15 -15 33 -37.5t39 -53.5l-124 -95q-15 25 -28.5 41.5t-29.5 29.5q-46 46 -120 46q-69 0 -117 -42.5t-48 -95.5t48 -94.5t117 -41.5q36 0 68 13.5t52 32.5 q11 8 25.5 26.5t29.5 52.5l115 -89q-12 -57 -55.5 -97.5t-101.5 -69.5q-29 -12 -61 -14.5t-72 -2.5q-132 0 -236 81q-9 9 -18.5 19.5t-18.5 22.5q-20 36 -35 76t-17 85zM573 -586q136 -98 294 -98q115 0 209 59l115 -69v-134h107v-146h-262l-2 159q-36 -10 -79.5 -15 t-87.5 -5q-68 0 -133 14t-114 36h2l-49 20v179z" />
<glyph unicode="&#x1009;&#x1039;&#x100d;" horiz-adv-x="1335" d="M101 809q0 14 1 51l-1 2q3 58 18 115q11 42 27 80q41 81 66 121q6 20 9 22l3 1q-25 -80 -25 -150q0 -98 34 -157q36 -42 96 -42q24 0 71 10q6 1 19 1q71 0 131 -86q23 -59 23 -89l-1 -6h1q-2 -67 -70 -127q-36 -31 -69 -43q-32 -14 -74 -14q-73 -2 -134 38q-43 29 -72 73 q-24 33 -39 87q-14 65 -14 113zM119 804q0 30 17 54v-2v2l4 -2h-6l-4 2l4 3q12 22 48 62q171 198 437 200q236 2 397 -162q162 -160 168 -394q2 -234 -165 -400q-164 -165 -400 -169q-171 -3 -319 95v-623q0 -122 40 -162q25 -27 161 -44l-9 -164q-32 2 -60.5 7t-55.5 10 q-123 29 -161 69q-91 91 -91 284v749q0 39 58 73q52 19 96 20q34 0 46 -10q100 -130 295 -131q162 0 272 116q110 115 116 280q4 160 -111 269q-115 110 -277 110q-183 0 -302 -139l-29 -36q-8 -8 -12 -8q0 4 4 10l2 -2q3 -8 -4 -18t-19.5 -17t-27 -13.5t-24.5 -6.5 q-88 0 -88 88zM552 -229q22 31 37.5 54t30.5 38q46 41 98 61t117 20q59 0 112 -21.5t100 -59.5q43 -42 67 -96t24 -112q-2 -44 -14.5 -84.5t-33.5 -77.5q-9 -13 -18 -22.5t-18 -18.5q-97 -83 -219 -83q-37 0 -67.5 3.5t-56.5 14.5v-31q55 -23 127 -22q107 0 194 59l108 -69 v-133h100v-148h-245l-2 160q-32 -11 -73.5 -16t-81.5 -5q-64 0 -124.5 14t-106.5 38h2l-45 18v303l109 89q13 -33 27 -52t23 -27q18 -18 48.5 -32t63.5 -14q64 0 108.5 41.5t44.5 94.5q0 54 -44.5 96.5t-108.5 42.5q-69 0 -112 -46q-16 -13 -28.5 -30.5t-26.5 -41.5z" />
<glyph unicode="&#xd;" horiz-adv-x="547" />
<glyph unicode=" "  horiz-adv-x="547" />
<glyph unicode="&#x09;" horiz-adv-x="547" />
<glyph unicode="&#xa0;" horiz-adv-x="547" />
<glyph unicode="!" horiz-adv-x="563" d="M16 405l72 47q81 52 81 151v757q0 204 300 300l69 24q-27 -12 -70 -56.5t-56.5 -73t-16.5 -95.5q5 -17 5 -62v-794q0 -83 -111 -129q-14 -5 -273 -69zM89 74v94q0 79 82 79h133q81 0 81 -79v-94q0 -77 -81 -76h-133q-82 0 -82 76z" />
<glyph unicode="&#x22;" horiz-adv-x="639" d="M16 1664l44 -22q190 -97 190 -297v-456q-147 10 -147 143v349q0 44 5 62q-2 67 -10 91q-6 23 -35 70q-30 50 -47 60zM380 889v456q0 199 189 297l44 22q-16 -11 -46 -60q-29 -47 -36 -70q-8 -24 -8 -91q3 -18 3 -62v-349q0 -133 -146 -143z" />
<glyph unicode="#" horiz-adv-x="1007" d="M16 614l90 120h202l13 132h-279l88 117h203l28 279l110 -76l-20 -203h130l28 279l113 -76l-20 -203h280l-90 -117h-202l-13 -132h279l-88 -120h-203l-28 -280l-112 78l19 202h-130l-28 -280l-109 78l19 202h-280zM426 734h131l12 132h-130z" />
<glyph unicode="$" horiz-adv-x="1241" d="M16 -128q4 237 110 323q77 61 249 62q31 0 60 -3l4 549l-99 26q-275 100 -275 314q0 156 147 250q107 67 234 76q-4 56 -16 82q-10 23 -50 67q-44 49 -65 59l64 -22q178 -64 216 -191q206 -26 319 -159l-203 -167q-50 84 -103 140l1 -82l-1 -249l333 -90 q275 -120 275 -370q0 -170 -182 -332q-119 -105 -291 -252l-56 36q-29 18 -84 55v-51q0 -97 72 -149l67 -46q-152 41 -196 59q-111 49 -111 136v142q-60 16 -125 16q-120 0 -182 -44q-69 -51 -112 -185zM155 1213q0 -143 275 -217l10 -2l2 387q-27 5 -54 5q-91 0 -153 -35 q-80 -45 -80 -138zM603 202l8 -5q43 -23 207 -154q306 226 306 373q0 198 -275 276q-156 44 -242 68z" />
<glyph unicode="%" horiz-adv-x="2084" d="M16 1206q0 -117 62 -213q126 -202 400 -202q269 0 391 232q55 106 55 234q0 130 -43 210q-81 140 -201 211l-29 -20l-140 -67l51 -21q158 -63 224 -224q22 -95 21 -131q0 -45 -21 -138q-29 -139 -139 -210q-42 -28 -124 -37q-259 0 -333 191q-36 102 -36 169 q0 144 57 268q34 71 129 117l162 78l-185 -44q-81 -20 -173 -114q-75 -78 -107 -177q-20 -59 -21 -112zM337 -30q133 37 206.5 56.5t84.5 24.5q126 51 167 134q132 259 226 448t159 324t106.5 223t68 144.5t41 87t28 52t30.5 41t45 51.5q88 100 186 141l-76 -28 q-330 -109 -433 -314l-596 -1178q-53 -101 -151 -157zM1148 426q0 -119 62 -210q130 -202 399 -202q273 0 393 229q57 106 57 235q0 130 -45 210q-81 142 -199 213l-29 -23l-142 -66l53 -21q156 -63 223 -224q19 -95 19 -129q0 -50 -19 -141q-30 -139 -138 -208 q-44 -30 -126 -38q-264 0 -333 190q-37 100 -37 170q0 138 60 268q31 72 125 119l164 76l-32 -7q-69 -16 -107 -25.5t-47 -11.5q-96 -32 -172 -114q-129 -136 -129 -290z" />
<glyph unicode="&#x26;" horiz-adv-x="1474" d="M16 297q0 -165 131 -263q114 -87 288 -87q312 0 599 266q73 -49 135 -105.5t99.5 -122.5t46 -137.5t-24.5 -150.5q-37 -92 -99 -131.5t-150 -39.5q-122 0 -187 82.5t-65 202.5q0 63 20 130l-43 18q-22 -69 -21 -142q0 -77 22 -143t68 -116.5t117 -68.5q116 -32 207.5 0 t155 100.5t98 162t36.5 182.5q6 59 -12 130.5t-53.5 136.5t-86 118t-105.5 78q128 213 163 447q-65 -134 -140.5 -253t-162.5 -225q-267 -320 -521 -320q-128 0 -203 84q-75 83 -76 212q0 199 202 350q124 89 218 156t158 110q202 153 202 365q0 133 -105 237 q-93 88 -232 123q-177 -163 -285.5 -265t-169.5 -160.5t-84 -82.5t-23 -31l3 -11q114 -103 186.5 -167.5t114 -100t57 -47t20.5 -11.5q-150 -69 -246.5 -140t-152.5 -138t-77.5 -125t-21.5 -107zM330 1245q73 73 140 134t126 110q24 13 51 13q75 0 148 -103q69 -102 69 -191 q0 -110 -181 -275q-4 -2 -31.5 18.5t-65 54t-81 72.5t-80.5 74.5t-63.5 61t-31.5 31.5z" />
<glyph unicode="'" horiz-adv-x="274" d="M16 889v456q0 199 190 297l44 22q-16 -12 -46 -60q-29 -47 -36 -70q-8 -24 -10 -91q4 -18 5 -62v-349q0 -133 -147 -143z" />
<glyph unicode="(" horiz-adv-x="702" d="M16 644q0 507 297 870q148 183 364 308l-79 -147q-121 -83 -177 -167q-45 -67 -102 -225q-87 -239 -87 -639q0 -379 78 -618q50 -148 117 -239q59 -80 171 -169l79 -155q-433 250 -586 716q-74 223 -75 465z" />
<glyph unicode=")" horiz-adv-x="702" d="M16 -537l80 155q112 88 170 169q68 92 118 239q79 238 78 618q0 397 -87 639q-58 162 -102 225q-57 84 -177 167l-80 147q217 -123 366 -308q295 -363 295 -870q0 -244 -73 -465q-153 -466 -588 -716z" />
<glyph unicode="*" horiz-adv-x="843" d="M16 1317l53 -25q40 -18 67 -18l192 7l-45 66q-27 40 -26 97q0 40 17 111l18 46q-10 -68 5 -121q3 -10 17 -30q5 -5 14 -19l77 -116l49 85q39 68 188 112l51 8q-68 -26 -109 -66q-8 -6 -20 -27q-2 -8 -10 -20l-70 -122l105 3q82 2 197 -96l32 -38q-57 42 -115 56 q-10 2 -35 3l-24 -3l-165 -5l94 -142q19 -29 11 -77q-1 9 -42 -115l-3 55q-2 42 -16 64l-112 167l-76 -134q-17 -30 -66 -46q6 4 -128 -25l50 30q38 23 50 45l100 174l-162 -5q-37 -1 -77 30q8 -3 -86 91z" />
<glyph unicode="+" horiz-adv-x="971" d="M16 746l78 117h327v406l119 -78v-328h405l-77 -117h-328v-405l-119 76v329h-405z" />
<glyph unicode="," horiz-adv-x="425" d="M16 -356q114 39 175 60t70 25q103 51 115 135l23 209v117q0 85 -80 85h-134q-82 0 -82 -85v-101q0 -85 82 -85h45l-6 -77q-4 -49 -49 -126q-44 -73 -90 -106z" />
<glyph unicode="-" horiz-adv-x="779" d="M16 443h686l77 119h-685z" />
<glyph unicode="." horiz-adv-x="337" d="M16 83q0 -85 83 -85h133q81 0 81 85v100q0 85 -81 85h-133q-83 0 -83 -85v-100z" />
<glyph unicode="/" horiz-adv-x="1295" d="M16 -30q126 37 192.5 56.5t78.5 24.5q122 53 157 134l569 1216q23 43 26 62q37 73 57 93q82 98 174 141l-74 -28q-305 -109 -401 -314l-552 -1178q-45 -101 -142 -157z" />
<glyph unicode="0" horiz-adv-x="942" d="M61 155q30 -11 68 -37t80.5 -58t85 -65.5t81.5 -59.5q43 46 110 84t139 65.5t139.5 42.5t113.5 15q9 117 2.5 239.5t-6.5 257.5q0 179 4.5 321.5t-7.5 249.5l-328 212q-140 -140 -250 -179q-123 -42 -232 -42q-2 -89 1 -223t3.5 -281t2 -290t-6.5 -252zM239.5 913.5 q-3.5 122.5 8.5 232.5q108 26 183 78l255 -130q12 -126 7 -242t-5 -244q0 -130 4.5 -236t-6.5 -191q-37 -2 -93 -19.5t-109 -49.5l-234 108q-12 78 -9.5 183.5t2.5 243.5q0 144 -3.5 266.5z" />
<glyph unicode="1" horiz-adv-x="953" d="M6 -46q0 -47 38.5 -91t97.5 -44q43 0 55 14q-20 -3 -45.5 8.5t-46 30t-34.5 43t-12 46.5q5 108 122 108q23 0 69.5 -10t97.5 -23t96.5 -23.5t70.5 -10.5q89 0 148 16t101.5 47t79.5 77.5t84 107.5q-135 -95 -240 -95q-23 0 -54 6t-75 28v1195q-110 -27 -182 -53.5 t-121 -58t-81.5 -72t-62.5 -95.5q12 12 63 43q39 26 90.5 36t103.5 6l-3 -942q-9 2 -24 2q-67 0 -127.5 -19.5t-107 -57t-74 -93t-27.5 -126.5z" />
<glyph unicode="2" horiz-adv-x="1047" d="M16 -103q2 -64 29.5 -113.5t73.5 -81.5t104.5 -49t122.5 -17q53 -2 118 9t144 34l-30 28q-53 -19 -94 -23.5t-96 -4.5q-124 0 -207 48q-53 30 -84 64t-31 95q0 64 28 110.5t72.5 75.5t103 43.5t120.5 17.5q124 3 236 -36.5t243 -137.5l154 149q-37 39 -96.5 65 t-128.5 43.5t-137.5 25.5t-121.5 8q-133 -2 -232 -36.5t-179 -103.5q34 179 262 321q139 84 235.5 149t160.5 122t103 109.5t63 115.5q47 119 47 236q-155 0 -284 52.5t-245 173.5q-32 -51 -78 -103t-100 -98.5t-112 -80t-114 -49.5q67 -4 106 -6t50 -2q274 8 392 146 q5 -11 26 -24.5t45.5 -24t49 -17.5t34.5 -5q0 -126 -116 -289q-29 -41 -97 -112t-143.5 -149t-143 -148.5t-98.5 -112.5q-107 -149 -116 -289q-39 -64 -39 -128z" />
<glyph unicode="3" horiz-adv-x="986" d="M16 158q142 4 257 -39q142 -53 201 -149q168 136 436 167v422q-88 60 -155 105.5t-110 78.5q106 42 136 55q81 30 146 32v362q-278 53 -423 197q-169 -108 -185 -117q-93 -45 -218 -66q36 -69 225 -69q144 0 286 104l83 -49v-336q-46 -30 -81.5 -48.5t-67.5 -34.5 t-64.5 -33.5t-70.5 -42.5q169 -142 307 -218v-314l-115 -46q-124 117 -310 117q-202 0 -277 -78z" />
<glyph unicode="4" horiz-adv-x="1129" d="M43 462h622v-277q-83 -2 -161 -38.5t-137.5 -94.5t-96 -132.5t-36.5 -153.5q4 -133 80 -218t211 -89q96 -2 222 51l-25 36q-46 -25 -84 -36.5t-88 -11.5q-124 0 -192.5 72t-68.5 196q0 133 130 214q34 23 63 33t73 10q110 2 209.5 -51t216.5 -188l136 206q-18 22 -47 49 t-63.5 52.5t-72 47.5t-78.5 31v292h196v63h-196v775q-46 32 -80.5 60.5t-57.5 51.5l-675 -804v-146zM224 722l404 497l39 -43l-2 -651h-439q3 57 4 92v55q0 20 -2 32t-4 18z" />
<glyph unicode="5" horiz-adv-x="962" d="M16 136q139 4 257 -37q140 -51 201 -152q165 138 436 170v493q-116 89 -204.5 167.5t-162.5 130.5l-366 -138q30 111 45.5 225.5t20.5 239.5q70 -31 118 -53t80.5 -34.5t56 -19.5t39.5 -9q41 -8 89 -5t99.5 9.5t104.5 18t98 22.5q5 10 8.5 16t5.5 8q-15 11 -33 46.5 t-35 76t-32.5 76t-27.5 46.5q-55 -59 -111 -95t-108 -56.5t-94 -26.5t-68 -6q-18 0 -39 5t-48 14t-65 25.5t-92 40.5v-4l-6 4q-4 -189 -25.5 -345.5t-61.5 -286.5l-15 -49l304 117q58 -50 97 -85.5t73.5 -65t72 -57.5t90.5 -60v-358l-115 -48q-124 117 -310 117 q-202 0 -277 -77z" />
<glyph unicode="6" horiz-adv-x="976" d="M69 128q106 -53 181.5 -93.5t137.5 -80.5q288 148 511 227v570l-254 146q-85 -53 -134 -80.5t-85 -47t-72.5 -35.5t-96.5 -44l-3 466q103 37 147 68q110 -34 167 -34q89 0 148 16t101.5 47t79.5 77t84 107q-135 -94 -240 -94q-106 0 -198 69q-47 -51 -109 -88.5 t-127.5 -67t-129 -52t-108.5 -37.5v-1039zM260 241v359q86 44 174.5 81t143.5 82l130 -110v-451q-92 -31 -183 -90z" />
<glyph unicode="7" horiz-adv-x="1020" d="M-10 1224q69 -34 189 -61q78 -19 174 -15.5t191 22t180 49t143 67.5q-73 -61 -132 -118.5t-107 -122t-86 -141t-72 -172.5q-73 -211 -119 -338.5t-79.5 -203.5t-61 -116t-63.5 -76q-100 -112 -101 -230q0 -116 80 -211q126 -139 342 -137q122 2 305 62l-37 46 q-60 -25 -109 -37t-118 -14q-151 -4 -249 53q-146 78 -146 240q0 87 32.5 147t126.5 103q83 44 148 142t114 207t81.5 210t50.5 159q149 486 383 665l-14 39q-119 -69 -241.5 -109t-245.5 -44.5t-241.5 30t-229.5 114.5z" />
<glyph unicode="8" horiz-adv-x="1004" d="M71 175q47 -30 101 -62t106 -63.5t100 -56.5t84 -42q170 138 437 171v419q-89 59 -156 106.5t-110 79.5q51 18 84 32t62.5 24t60.5 17t75 12q2 133 2 209v116v57v30q-189 85 -286 132t-113 56q-170 -137 -435 -169v-421q88 -59 155 -106t110 -79q-71 -27 -115 -43 t-74.5 -25.5t-50 -12.5t-37.5 -3v-378zM273 901v314l117 48q96 -46 169.5 -83.5t126.5 -64.5l-3 -279q-106 -29 -183 -85q-124 97 -227 150zM295 277v250q111 32 187 85q59 -45 115 -82t109 -68v-313l-114 -48q-148 87 -221.5 130.5t-75.5 45.5z" />
<glyph unicode="9" horiz-adv-x="953" d="M16 -89q136 94 241 93q103 0 197 -69q46 51 109 88.5t128.5 68t127.5 51t108 38.5v1038q-106 53 -180.5 94.5t-136.5 80.5q-289 -147 -511 -227v-571l255 -144q82 53 127.5 86t81 53.5t73.5 35.5t105 31l-3 -456q-53 -18 -85.5 -38t-56.5 -38q-114 32 -167 32 q-89 0 -148 -16t-102 -46.5t-78.5 -77t-84.5 -107.5zM287 1146q92 30 185 89l269 -128l-3 -360q-89 -31 -161.5 -70.5t-124.5 -84.5l-163 103z" />
<glyph unicode=":" horiz-adv-x="337" d="M16 82v101q0 84 83 84h132q82 0 82 -84v-101q0 -84 -82 -84h-132q-83 0 -83 84zM16 921v102q0 84 83 84h132q82 0 82 -84v-102q0 -84 -82 -85h-132q-83 0 -83 85z" />
<glyph unicode=";" horiz-adv-x="425" d="M16 -363l70 50q41 30 88 105q50 78 51 126l5 79h-44q-82 0 -81 84v102q0 83 81 83h132q82 0 82 -83v-102q0 -6 -1 -12q1 -2 1 -4l-24 -209q-9 -82 -115 -135q-17 -9 -245 -84zM99 921v102q0 84 82 84h132q82 0 82 -84v-102q0 -84 -82 -85h-132q-82 0 -82 85z" />
<glyph unicode="&#x3c;" horiz-adv-x="895" d="M16 749l1 2l-1 2l2 -1l87 191l765 245l-89 -194l-757 -243l757 -242l89 -195l-765 244l-87 191h-2zM17 751l1 -2l6 2l-6 1z" />
<glyph unicode="=" horiz-adv-x="971" d="M16 614l78 120h851l-77 -120h-852zM16 866l78 117h851l-77 -117h-852z" />
<glyph unicode="&#x3e;" horiz-adv-x="895" d="M16 314l89 195l757 242l-757 243l-89 194l765 -245l87 -191l2 1l-1 -2l1 -2h-2l-87 -191zM862 751l6 -2l1 2l-1 1z" />
<glyph unicode="?" horiz-adv-x="851" d="M16 1205q155 277 432 277q197 0 322 -177q56 -80 56 -168q0 -217 -212 -323l-152 -77q-31 -16 -125 -120q-38 -43 -37 -245q-84 129 -82 226q2 126 101 218q54 50 142 111q119 82 148 103q113 89 113 205q0 103 -107 168q-46 28 -93 28q-134 0 -235 -130q-38 -49 -47 -67 q-6 -14 -31 -88zM165 82v101q0 84 82 84h132q81 0 81 -84v-101q0 -84 -81 -84h-132q-82 0 -82 84z" />
<glyph unicode="@" horiz-adv-x="1481" d="M16 665q0 40 7 82q20 132 104 259q163 244 459 345q143 49 288 48q269 0 438 -141q143 -121 143 -302q1 -43 -7 -89q-17 -100 -82 -198q-44 -66 -99 -115l-2 -2q-77 -84 -183 -119q-40 -13 -137 -13q-43 0 -75 42l-3 -1q-36 42 -46 96v1q-4 22 -4 45q0 12 1 25l-245 -167 q-153 31 -153 133q0 112 178 235q184 77 277 178l-28 28q-96 -51 -260 -51q-46 0 -80 8l2 49q24 -6 58 -6q91 0 204 38q126 41 181 99l89 -76l-64 -379q-11 -65 8 -109q34 -54 37 -56q17 -16 57 -16q38 0 95 21q63 24 81 52l73 110q44 82 53 148q2 27 2 54q0 240 -247 367 q-128 66 -269 65q-166 -1 -314 -77q-309 -157 -376 -540q-8 -43 -8 -84q0 -93 39 -174q59 -122 193 -192q122 -65 267 -67q209 -4 413 69q125 45 206 101q-71 -89 -304 -165q-203 -66 -325 -66q-286 0 -474 160q-168 143 -168 347zM554 701q-9 -49 32 -84q38 -32 89 -36 l154 103l46 268q-113 -105 -231 -144q-81 -58 -90 -107z" />
<glyph unicode="A" horiz-adv-x="1579" d="M-65 -197q3 -92 51 -163q92 -128 268 -133h11q102 0 242 50l-28 30q-102 -39 -211 -39q-120 0 -197 55q-101 67 -101 200q0 156 156 229q75 33 169 34h15q229 0 400 -151l51 -43l147 167q-69 63 -220 132q-121 28 -248 28q-20 -2 -41 -3t-39 -3l124 311h627 q32 -98 53.5 -157.5t35 -99t21.5 -62t17 -47t23 -55t35 -83.5h289q-140 106 -202 279q-111 313 -188.5 535t-131.5 374.5t-86.5 244t-50.5 142t-23.5 69t-8.5 22.5l-32 17l-573 -1502q-119 -27 -206 -100q-148 -126 -148 -270v-8zM545 686l258 683l240 -683h-498z" />
<glyph unicode="B" horiz-adv-x="1389" d="M-37 -190q4 -115 74 -198q134 -157 384 -162h13q143 0 352 60l-41 38q-141 -48 -296 -48h-6q-168 0 -288 67q-141 83 -141 243q0 192 224 279q108 43 246 44h14q333 0 579 -186l74 -55l208 207l-49 38q-8 71 -8 127q0 4 1 13.5t1 45.5v115v215q0 185 -286 238v6 q138 102 201 190q91 124 91 278q0 61 -26 130q-65 163 -227 167h-5q-133 0 -254 -98q0 2 -55 2q-29 0 -119 39q-162 73 -252 73q-79 0 -148 -41q-153 -92 -165 -278q6 -89 53 -155l25 15q-36 60 -36 120q0 73 35 126q36 57 112 57q65 0 178 -57q70 -37 115 -46 q-183 -86 -183 -247v-806q0 -73 -10 -100q-6 -18 -18 -34q-84 -30 -153 -83q-214 -152 -214 -332v-7zM478 273q59 73 59 156v759q0 92 12 132q18 60 72 90q89 12 182 85q139 89 178 90q85 0 113 -86q20 -53 21 -169q0 -392 -293 -474l-1 -40l184 53q121 -69 120 -230v-409 q-18 9 -37.5 15.5t-39.5 15.5q-78 14 -148 22t-139 9h-28q-55 0 -111 -3q-70 -4 -144 -16z" />
<glyph unicode="C" horiz-adv-x="1368" d="M59 736v-9q0 -283 131 -481q195 -299 557 -299q379 0 618 362l-24 31q-55 -55 -107 -99t-106 -74.5t-115 -48t-135 -19.5h-24q-293 0 -462 231q-49 69 -81 149t-49 167q-16 88 -21 176q-2 37 -2 73q0 51 4 102l573 500q74 -91 213 -91h3q128 23 190 77q68 59 101 138 l-11 23q-93 -59 -175 -59q-144 0 -201 54l-49 34l-614 -543q12 69 40.5 135.5t70 125t91.5 107t109 81.5l-2 30q-356 -172 -468 -545q-53 -177 -55 -328z" />
<glyph unicode="D" horiz-adv-x="1377" d="M-23 1662q69 -245 377 -245q15 0 61 9q51 6 57 4q-165 -53 -165 -242v-698q0 -122 -66 -160v-41q245 46 245 252v295v207v129v73q0 25 -1 33t-1 12q2 63 13 88q40 71 172 73q112 19 162 24.5t74 5.5q106 0 170 -62t69 -168q0 -114 1 -184t2 -112.5t1 -65.5v-36 q0 -357 -112 -619q170 149 232 394q44 171 44 461v207q0 135 -53 220q-98 146 -384 146h-4q-34 0 -67.5 -2t-65.5 -7q-158 -26 -252 -41t-146.5 -21t-77 -9t-42.5 -3h-7q-154 0 -183 83h-53zM-18 -190q2 -113 64 -198q112 -157 332 -162h11q121 0 306 60l-34 38 q-126 -48 -257 -48h-5q-149 0 -250 67q-124 83 -124 243q0 194 195 279q94 43 213 44q67 0 136.5 -12.5t138.5 -37t131 -60t111 -76.5l63 -55l183 209q-86 75 -274 160q-158 32 -294 32h-16q-280 -4 -447 -144q-183 -151 -183 -329v-10z" />
<glyph unicode="E" horiz-adv-x="1423" d="M16 1206q0 -55 33 -112q9 -24 43 -36q8 -4 50 -12q-89 23 -89 181q0 142 117 217q91 57 229 58q63 0 213 -41l-39 -21q-163 -94 -162 -221v-781q0 -98 -63 -129l18 -48q225 101 226 268v299q132 105 263 105h2q77 0 150 -62q61 -50 82 -59l165 126q-98 130 -229 132 q-11 1 -22 1q-29 0 -65 -6q-48 -8 -104 -24q-155 -46 -242 -126v204q0 82 1 131.5t3 76t7 39.5q17 49 55 81q14 -4 29 -7.5t31 -9.5q103 -29 172.5 -47t118.5 -29t85 -14t69 -3q135 39 185 87q64 61 107 197q-47 -71 -192 -71q-55 0 -153.5 16t-242.5 48q-219 48 -307 48 h-10q-204 -12 -351 -114q-183 -129 -183 -342zM140 -190q2 -113 64 -198q113 -157 333 -162h11q121 0 305 60l-35 38q-125 -48 -256 -48h-5q-149 0 -250 67q-124 83 -124 243q0 194 195 279q89 43 214 44q66 0 136 -12.5t137.5 -37t129.5 -60t112 -76.5l65 -55l183 209 q-87 75 -275 160q-159 32 -294 32h-16q-279 -4 -447 -144q-183 -151 -183 -329v-10z" />
<glyph unicode="F" horiz-adv-x="1216" d="M16 1206q0 -55 33 -112q9 -24 43 -36q10 -4 55 -12q-94 18 -94 181q0 142 117 217q91 57 229 58q85 0 319 -72q103 -29 172.5 -47t118.5 -29t85 -14t69 -3q135 39 185 87q64 61 107 197q-47 -71 -192 -71q-55 0 -153.5 16t-242.5 48q-219 48 -307 48h-10 q-204 -12 -351 -114q-183 -129 -183 -342zM140 -190q2 -113 64 -198q113 -157 333 -162h11q121 0 305 60l-35 38q-125 -48 -256 -48h-5q-149 0 -250 67q-124 83 -124 243q0 38 12.5 54.5t38.5 43.5q51 71 132 108q161 71 168 78q58 51 58 191v543q132 105 263 105h2 q83 0 150 -62h1q7 0 66 73q31 39 49.5 62t24.5 33q-47 27 -123 31q-11 1 -23 1q-32 0 -67 -6q-48 -8 -101 -24q-161 -46 -242 -126v137q0 58 1 97t3 62.5t7 39.5q18 53 58 83l-16 31l-72 -42q-163 -94 -162 -220v-855q0 -83 -31 -126q-14 -10 -27 -20t-30 -21 q-57 -46 -91.5 -78.5t-46.5 -48.5q-45 -55 -45 -131v-13z" />
<glyph unicode="G" horiz-adv-x="1618" d="M71 732q4 -342 259 -569q238 -216 541 -216q154 0 305 67q360 163 362 515v8q0 188 -142 327q-84 82 -202 116q-92 26 -188 26q-26 0 -52 -2q-122 -9 -232 -58t-181 -134l149 -209q71 78 124 124t102 73.5t101.5 40t126.5 26.5q172 0 199 -163q7 -37 7 -84q0 -31 -3 -68 q-8 -90 -32.5 -180t-65.5 -171.5t-96 -127.5q-96 -83 -262 -83q-590 0 -590 739q0 75 4 144t14 134l598 474q78 -67 167 -67q144 0 257 79l156 169q-126 -92 -243 -92q-102 0 -162 22t-95 80l-662 -567q71 346 307 470v48q-358 -183 -502 -543q-69 -166 -69 -326v-22z" />
<glyph unicode="H" horiz-adv-x="1607" d="M16 -163q0 -330 305 -330q100 0 246 39l-148 -20q-174 2 -252 45q-114 63 -114 240q0 223 234 228h6q136 0 305 -82l172 169q-153 64 -249 82q11 5 20 8.5t16 7.5q87 46 88 130v415h614l2 -584q0 -82 85 -126q37 -20 156 -57v35q-62 43 -62 137v11v1266q49 19 68 46v7 q83 56 142 181q-116 -96 -206 -96q-49 0 -146 46q-97 47 -147 48q-128 0 -205 -86q-71 -78 -71 -208q0 -65 44 -114q23 -24 62 -24q37 0 48 14h-3q-38 0 -82 47q-34 37 -34 82q8 108 105 108q46 0 143 -32q32 -12 57.5 -19t43.5 -11v-496h-614v237v142q0 53 2 76t6 37 q18 50 39 71q65 43 117 102q18 30 21 33l-21 30q-78 -79 -142 -79q-55 0 -158 37q-116 42 -181 42q-172 0 -269 -168q-43 -79 -43 -141v-6q4 -126 110 -169l14 27q-87 69 -87 151q0 133 134 133h2q54 0 150 -36.5t157 -36.5q23 0 33 2q-64 -73 -63 -183v-891q0 -97 -53 -143 q-89 -12 -165 -44q-232 -101 -232 -330z" />
<glyph unicode="I" horiz-adv-x="803" d="M16 -154q0 -160 101 -219q66 -44 223 -44q86 0 215 14l-138 -6q-11 -2 -41 -2q-323 0 -323 232q0 108 77 173q63 50 163 55q140 0 312 -86l170 173q-154 64 -250 82q12 4 22 8t17 8q85 43 85 126v417v291v186q0 71 1 110t2 54t6 24q10 23 19 40t23 34q81 89 136 167 q-80 -80 -164 -80q-55 0 -158 36q-115 41 -182 41q-169 0 -267 -167q-45 -81 -45 -144q0 -135 173 -188l-49 41q-87 80 -87 153q0 133 136 133q50 0 153 -38q95 -37 151 -37h3q11 0 34 4q-64 -78 -64 -183v-894q0 -94 -53 -140q-89 -12 -165 -43q-236 -103 -236 -331z" />
<glyph unicode="J" horiz-adv-x="1066" d="M16 -6q0 -164 147 -260q92 -59 246 -64h11q134 0 259 45q271 106 271 446v1288q0 63 18 103q23 25 44.5 54t41.5 60l-25 19q-94 -92 -183 -92q-51 0 -151 44q-117 47 -209 48q-69 0 -144 -35q-183 -86 -184 -251q0 -81 37 -138q41 -65 118 -65v43q-115 18 -116 144 q0 141 157 141q50 0 84 -11q96 -39 153.5 -61t92 -30t52.5 -8q20 0 41 5q-4 -17 -5.5 -32.5t-1.5 -47.5v-1181q0 -437 -376 -437h-2q-128 0 -207 49q-157 98 -157 296v19q-12 -51 -12 -91z" />
<glyph unicode="K" horiz-adv-x="1696" d="M16 -165q0 -161 101 -220q66 -44 223 -44q86 0 215 14l-138 -4h-41q-323 0 -323 229q0 109 77 174q59 49 163 53h12q132 0 300 -83l170 170q-154 65 -250 83q12 4 22 8.5t17 6.5q85 44 85 126v385l167 221l488 -897q34 -59 104 -59q18 0 29 2q17 4 58 4q27 0 65 -2h16 q64 0 102 14l-77 23q-65 39 -88 61t-34 42l-541 969l256 331q73 -59 165 -59q37 0 74.5 12.5t71 30.5t59 38.5t39.5 39.5q59 79 73 156l-16 20q-81 -75 -163 -89q-55 -10 -99 -10q-70 0 -114 26l-57 25l-578 -761v275v164q0 59 2 83t7 37q10 24 19 41.5t23 32.5 q82 89 136 168q-80 -81 -164 -81q-55 0 -158 37q-115 41 -182 41q-169 0 -267 -167q-45 -81 -45 -144q0 -136 173 -188l-49 40q-87 80 -87 155q0 132 134 132h2q50 0 153 -39q94 -36 151 -36h3q11 0 34 4q-64 -78 -64 -183v-895q0 -94 -53 -140q-89 -11 -165 -43 q-236 -103 -236 -330z" />
<glyph unicode="L" horiz-adv-x="1395" d="M16 1369q0 -59 45 -112q22 -26 63 -26q34 0 46 14h-3q-40 0 -80 45q-35 34 -35 73q0 5 1 10q4 108 102 108q46 0 143 -32t142 -32h22q15 0 26 2q-80 -86 -79 -213v-862q0 -43 -26 -137q-32 -113 -66 -141q-152 -141 -152 -308q0 -116 61 -201q117 -155 336 -160h8 q122 0 308 60l-34 36q-125 -48 -259 -48h-5q-147 0 -248 67q-125 82 -125 242q0 197 194 283q95 39 213 44q137 0 275 -51q142 -51 244 -138l61 -53l187 207q-46 39 -114 79t-162 83q-156 33 -301 33h-9q-151 -5 -274 -48q66 139 65 269v877q0 103 63 144q83 53 142 179 q-112 -92 -205 -92q-45 0 -148 47q-98 45 -147 45q-130 0 -202 -83q-73 -80 -73 -210z" />
<glyph unicode="M" horiz-adv-x="2068" d="M16 1296q73 114 130.5 154t117.5 40q121 0 214 -87v-1177q-124 -38 -217 -112q-183 -151 -183 -329v-9q5 -113 64 -197q114 -158 332 -163h6q209 0 377 135l-100 -37q-130 -47 -261 -48q-150 0 -250 66q-124 83 -124 244q0 194 195 279q89 44 212 44h12q322 0 637 -207 q3 -2 4 -2q12 0 37.5 25.5t52 57t48 64t28.5 44.5q-345 179 -622 179h-18q-45 0 -87.5 -5t-86.5 -14v1116q33 -37 70.5 -86t75.5 -115q52 -80 129.5 -221.5t183.5 -350.5q43 -84 89.5 -168t95.5 -170l565 1086l-3 -1161q0 -41 24 -71.5t67 -53.5q40 -24 154 -58v35 q-61 43 -61 148v1266q23 10 42 19t31 29q41 28 74 75.5t63 108.5q-114 -94 -203 -94q-46 0 -149 46q-97 47 -147 48q-128 0 -205 -84q-71 -78 -71 -210q0 -61 47 -114q19 -22 56 -22h3q37 0 48 12h-3q-38 0 -82 47q-32 37 -32 78q0 113 103 113q46 0 143 -34q18 -4 33 -9.5 t31 -9.5l-472 -897l-296 571q-289 562 -566 562q-165 0 -278 -165q-71 -106 -78 -211z" />
<glyph unicode="N" horiz-adv-x="1712" d="M16 1286q73 115 130.5 155t117.5 40q121 0 214 -87v-1176q-124 -39 -217 -112q-183 -152 -183 -330v-10q3 -112 64 -197q114 -158 332 -163q126 0 317 63l-34 35q-128 -47 -261 -47q-150 0 -250 65q-124 83 -124 244q0 195 195 280q89 43 212 43h11q160 0 308 -59h5 q12 0 37 25.5t51.5 57t48 63t28.5 44.5q-80 16 -156 24q-61 6 -123 6h-31q-43 0 -85.5 -4.5t-88.5 -13.5v1116q65 -67 146 -202q83 -128 159 -275t153.5 -298.5t157 -299t168.5 -277.5l119 -2l3 1443q96 12 133 67q81 56 140 179q-115 -94 -205 -94q-19 0 -60.5 15t-86.5 32 t-85.5 32t-60.5 15q-128 0 -204 -86q-73 -80 -73 -208q0 -61 45 -114q22 -24 63 -24q34 0 46 14h-3q-40 0 -80 47q-35 34 -35 74v8q4 53 29.5 78t76.5 30q13 1 25 1q29 0 59 -8q42 -12 80 -26t70 -25t57 -8v-1168q-417 800 -433 833q-288 561 -565 561h-1q-71 0 -134 -30 q-89 -43 -155 -143q-60 -99 -67 -203z" />
<glyph unicode="O" horiz-adv-x="1643" d="M61 766v-11q0 -165 58 -311q60 -150 165.5 -261.5t245.5 -175.5q131 -60 279 -60h19q226 0 403 131q87 65 152.5 155t107 194t61.5 217q18 103 18 205v20q0 140 -22 249t-70 201.5t-125.5 175t-192.5 167.5h-35l-208 -120q122 -43 211 -123t149 -182t89.5 -218t29.5 -230 q0 -120 -25 -254t-82.5 -251t-151.5 -198.5t-232 -91.5q-44 -7 -84 -6q-107 0 -193 45q-119 63 -199.5 175.5t-120.5 253.5t-40 274q0 102 12.5 221t47 229t97.5 201.5t167 142.5l226 109q-224 -57 -259 -73q-112 -51 -203.5 -140t-157 -199t-101.5 -231t-36 -230z" />
<glyph unicode="P" horiz-adv-x="1418" d="M66 -330q93 -129 269 -132h19q101 0 232 47l-27 32q-100 -38 -206 -38h-5q-116 0 -196 52q-101 68 -101 199q0 156 156 229q47 22 97 27.5t99 9.5q218 -6 386 -153l52 -44l147 170q-69 61 -219 133q-49 12 -97 17t-96 7q45 93 45 207v348v242t1.5 152t1.5 86q0 32 1 43.5 t3 18.5q9 30 30 51.5t48 37.5q92 12 179 85q140 92 181 92q49 0 75 -24t39.5 -62t17 -83t3.5 -88q0 -380 -293 -475l-188 -59q96 2 164 10t115 19.5t75.5 27.5t46.5 32q130 101 199.5 211.5t73.5 267.5q0 60 -17.5 114t-50.5 95.5t-81.5 66t-105.5 24.5q-137 0 -256 -98h-55 q-30 0 -120 39q-160 73 -252 73q-78 0 -147 -41q-155 -94 -165 -278q2 -47 33 -112q30 -71 69 -98q-38 80 -49.5 119.5t-11.5 70.5q0 73 35 126q41 57 112 57q65 0 179 -57q69 -31 115 -45q-183 -87 -183 -248v-362t-1.5 -247.5t-1.5 -155.5q0 -55 -1 -85.5t-2.5 -40.5 t-3.5 -15q-9 -18 -20.5 -31t-27.5 -26q-155 -49 -222 -103q-147 -126 -147 -274q0 -92 50 -164z" />
<glyph unicode="Q" horiz-adv-x="1584" d="M49 766q0 -195 79 -371.5t230 -293.5q-98 -115 -98 -253q4 -112 63 -196q114 -158 335 -163q127 0 316 62l-34 36q-125 -48 -259 -48h-5q-147 0 -247 66q-126 82 -126 243q0 134 100 221q183 -122 411 -122q191 0 344 92q34 -20 69 -53l63 -52l187 206q-32 30 -120 78 q108 144 152.5 305t46.5 346q0 250 -75 419q-45 101 -132.5 194t-237.5 180l-208 -120q94 -41 142.5 -71.5t79.5 -60.5q60 -55 107 -130.5t80.5 -158t52 -168.5t18.5 -164q0 -46 -7 -115t-21 -143.5t-34.5 -144t-50.5 -118.5q-96 41 -212 58q-71 10 -142 10l-90 -4 q-116 -11 -220 -50t-180 -107q-41 47 -73 122t-54 156t-33.5 157t-11.5 126q0 291 100 546q27 69 77.5 124t112 99.5t129.5 78t131 55.5q-165 -16 -303.5 -95t-239 -199.5t-156.5 -270.5t-56 -308zM479 119q111 52 227 52h4h13q108 0 256 -47q53 -16 126 -55 q-73 -55 -214 -75q-265 0 -412 125z" />
<glyph unicode="R" horiz-adv-x="1499" d="M16 -189q4 -114 73 -196q135 -161 385 -164q147 0 365 63l-39 37q-149 -47 -303 -48q-174 0 -289 66q-142 83 -142 242q0 193 223 278q87 10 145.5 39.5t93 75.5t48.5 104t14 125v348q0 146 1 242t1 151q0 57 1 88t2 42.5t3 18.5q16 55 76 89q95 12 182 85q139 92 178 92 q49 0 76 -24t40 -61t16.5 -83t3.5 -89q0 -392 -295 -475l-153 -68l335 82q121 -68 121 -229q3 -175 3 -276v-150q0 -51 2.5 -71.5t8.5 -36.5q18 -46 51 -65q45 -23 97 -34t97 -11h18q10 0 20 2q-49 34 -85 88q-32 49 -31 88v9v470q0 185 -289 239v5q138 103 202 190 q89 126 89 277q0 58 -18 113t-50 96.5t-79 66t-104 24.5q-140 0 -260 -98q-59 0 -94.5 10.5t-79.5 28.5q-59 28 -110 47q-52 18 -100 26q-21 3 -43 4q-25 0 -51 -6q-46 -10 -94 -39.5t-86 -73t-58 -95t-20 -109.5q0 -55 26 -112q15 -37 35 -61t38 -37q-37 80 -48 119.5 t-11 70.5q0 71 35 127t112 56q64 0 178 -57q70 -31 115 -45q-183 -87 -183 -248v-805q0 -73 -10 -101q-6 -20 -28.5 -36t-49 -29.5t-52 -25.5t-41.5 -25q-214 -153 -214 -334v-7z" />
<glyph unicode="S" horiz-adv-x="1395" d="M16 30q83 84 173 114q62 21 128 21q29 0 61 -4q100 -14 204 -64.5t216 -124.5l59 -38q117 105 210 177t156 139t97.5 142.5t36.5 185.5q0 140 -72 247.5t-217 160.5q-135 47 -278 85.5t-263.5 80.5t-200.5 96t-88 130q-1 9 -1 17q1 41 17 71q20 36 55 59t79.5 34t93.5 11 q188 0 344 -274l213 185q-74 92 -187.5 134.5t-265.5 46.5h-15q-89 0 -164 -22q-81 -24 -140 -71t-92 -114.5t-33 -152.5q0 -133 71.5 -223.5t217.5 -124.5q277 -65 442.5 -123t251 -113t111 -109t25.5 -109q0 -163 -323 -413q-71 83 -160.5 136.5t-187.5 76.5 q-72 17 -146 17q-26 0 -51 -2q-100 -8 -191 -49q-142 -67 -186 -236z" />
<glyph unicode="T" horiz-adv-x="1513" d="M16 1206q0 -55 33 -112q9 -24 43 -36q10 -4 55 -12q-94 18 -94 181q0 142 117 217q91 57 229 58q85 0 319 -72q103 -29 172.5 -47t118.5 -29t85 -14t69 -3q135 39 185 87q64 61 107 197q-47 -71 -192 -71q-55 0 -153.5 16t-242.5 48q-219 48 -307 48h-10 q-204 -12 -351 -114q-183 -129 -183 -342zM165 620q5 -186 69 -319q172 -354 610 -354q401 0 619 413l26 84q-26 -41 -60.5 -81t-73.5 -78q-94 -89 -159 -120q-128 -53 -233 -62q-13 4 -23 5q-326 0 -500 289q-89 152 -94 380v11q0 105 37 225q69 211 213 326l71 71 q-502 -225 -502 -779v-11z" />
<glyph unicode="U" horiz-adv-x="1795" d="M16 1383q0 -60 45 -113q22 -23 63 -23q34 0 46 14h-3q-38 0 -80 43q-34 39 -34 79v6q4 108 105 108q45 0 139 -34q97 -32 146 -33h29q16 0 30 3q-16 -23 -34.5 -50.5t-38.5 -64.5q-60 -104 -92 -218q-30 -108 -30 -229v-15q0 -158 3.5 -258.5t9.5 -160t13 -89t13 -45.5 q85 -179 264 -273q156 -81 330 -81q41 0 85.5 6t86 15.5t72.5 20.5t43 21q14 2 25 3t20 1h12q134 0 303 -82l169 169q-153 64 -249 82q25 12 35 19q87 46 88 126v403v276v169v92q0 32 -1 40t-1 10q2 32 4.5 55.5t6.5 36.5q18 49 41 71q85 94 138 167q-81 -80 -165 -80 q-49 0 -158 39q-122 39 -181 39q-170 0 -268 -167q-44 -79 -44 -142v-5q6 -136 172 -186l-49 44q-86 80 -86 154q0 133 135 133q51 0 154 -39q96 -37 153 -37q23 0 35 3q-65 -73 -65 -184v-892q0 -96 -52 -141q-42 -5 -93.5 -20t-100.5 -31t-90 -26.5t-58 -5.5 q-254 2 -398.5 138t-158.5 444q-2 50 -6 120q-2 38 -2 78q0 34 1 70q3 78 10.5 155t25.5 138q69 216 214 328q18 40 28 61.5t20 39.5q-12 -12 -26 -21t-24 -18l-30 -15t-28 -17q-47 -22 -93 -22h-4q-47 0 -146 45q-94 48 -145 48h-2q-128 0 -204 -85q-73 -80 -73 -210z" />
<glyph unicode="V" horiz-adv-x="1418" d="M-20 1683q133 -108 191 -282l423 -1257q-26 -4 -27 -7q-152 -47 -213 -103q-141 -124 -141 -267v-10q0 -95 48 -163q85 -127 254 -133h8q103 0 236 49l-26 31q-102 -38 -202 -38q-112 0 -191 53q-94 68 -94 201q0 155 149 229q41 18 74 25t68 7q34 0 69.5 -3t81.5 -5 q142 -30 266 -140l48 -45l142 171q-33 32 -86 64t-125 68q-42 9 -87.5 15t-95.5 9l454 1297q73 14 102 59q77 53 136 182q-112 -95 -197 -95q-44 0 -140 47q-92 48 -140 48h-2q-124 0 -197 -87q-66 -80 -66 -205q0 -68 43 -119q19 -22 57 -22h3q31 0 43 13h-3q-36 0 -77 44 q-33 42 -33 83q0 110 101 110q44 0 136 -32.5t137 -32.5h26l-409 -1133q-92 275 -156 469t-106.5 323.5t-66 204.5t-36.5 116t-17.5 57t-6.5 25q-16 51 -32 95.5t-35 83.5h-288z" />
<glyph unicode="W" horiz-adv-x="2038" d="M-25 1669q130 -105 190 -277q96 -287 164 -488.5t113.5 -338t72 -218t42.5 -126t21.5 -63t11.5 -30.5q-10 -6 -21.5 -14t-23.5 -20q-172 -151 -172 -327v-10q5 -115 60 -197q108 -158 314 -163q122 0 299 62l-33 37q-122 -49 -247 -49q-140 0 -235 67q-118 77 -118 240 q0 193 183 280q87 39 202 44h14q270 0 472 -186l59 -53l177 207q-45 37 -117 82l456 1316q37 10 64.5 20.5t43.5 32.5q39 27 68.5 76t57.5 110q-106 -92 -193 -92q-43 0 -139.5 46t-137.5 46q-126 0 -195 -88q-63 -77 -63 -202q0 -65 41 -116q19 -23 56 -23h3q32 0 43 14h-6 q-35 0 -74 44q-29 37 -29 75v7q4 108 98 108q44 0 133 -32q43 -16 80 -24.5t80 -8.5l-398 -1124q-85 254 -143.5 432.5t-98.5 300t-63 196t-38 120.5t-24.5 74.5t-19.5 57t-25 70t-42 112.5h-283q130 -103 189 -277l121 -367l-255 -727q-100 307 -171 526t-120.5 369.5 t-79.5 240t-47 138.5t-24 66t-8 24h-285zM757 208l248 711l236 -708q-122 27 -248 27h-25q-127 -4 -211 -30z" />
<glyph unicode="X" horiz-adv-x="1435" d="M16 -66q0 -63 45 -115q22 -23 63 -23q34 0 46 14h-5q-40 0 -78 46q-35 33 -35 73q0 5 1 10q4 107 100 107h2q49 0 142 -34q97 -32 143 -32q79 0 130 17t86.5 49t65 78t69.5 102q-114 -93 -203 -93h-2q-33 0 -98 28l253 557l302 -582q64 -126 113 -132l134 -4q58 -2 92 -2 t44 2q-32 0 -120 101q-13 16 -28 34.5t-35.5 50.5t-51.5 86t-78 142t-112 216.5t-155 309.5l234 521q38 -33 112 -33h4q89 2 150 69q53 64 80 151l10 24q-115 -87 -159 -87q-65 0 -103.5 1t-68.5 44l-21 32l-280 -626q-80 165 -130 265t-81 157.5t-48.5 83.5t-30.5 43 q-64 77 -185 77h-3q-59 0 -124 -34q-147 -78 -172 -263q39 37 64 60.5t41.5 36.5t26 18t17.5 9q23 4 78 4q103 0 186 -170l247 -519l-279 -609q-83 31 -120 31q-130 0 -202 -84q-73 -81 -73 -208z" />
<glyph unicode="Y" horiz-adv-x="1612" d="M-12 1298l40 75q89 124 206 124q80 0 142 -30.5t112.5 -79t88 -108.5t70.5 -119q57 -102 108.5 -200t100.5 -194v-245v-163v-101v-53v-20l1 -5q-181 -18 -290 -114q-146 -129 -146 -278q4 -96 51 -163q89 -128 261 -133q99 0 250 50l-27 33q-100 -42 -206 -42 q-117 0 -195 55q-99 65 -99 200q0 156 152 229q75 34 169 35h10q111 0 213 -41q107 -44 231 -154l144 167q-66 65 -215 132q-59 16 -126 24v621l335 642q120 12 157 66q83 56 140 182q-54 -42 -93 -63.5t-77 -27.5q-14 -2 -28 -2q-25 0 -52 7q-41 10 -98 38q-94 48 -142 48 h-2q-128 0 -204 -85q-69 -83 -69 -211q0 -23 5.5 -47t19.5 -44.5t33.5 -33t47.5 -12.5q34 0 45 13q-20 -2 -42 10.5t-39 32t-27.5 42.5t-7.5 44q6 108 103 108q45 0 142 -32q54 -20 96 -28l-282 -539q-39 87 -63 138.5t-31 64.5q-281 567 -561 567q-163 0 -274 -167 q-70 -106 -78 -213zM1447 1591l2 2q0 -2 -2 -2z" />
<glyph unicode="Z" horiz-adv-x="1348" d="M46 -388q125 -157 371 -162h13q135 0 339 60l-40 38q-139 -48 -285 -48h-6q-75 0 -150 17t-133.5 54t-94 96.5t-35.5 142.5q0 194 216 279q98 41 207 47q24 1 48 1q85 -1 169 -17q108 -22 206.5 -68t176.5 -105l71 -55l204 209q-87 73 -204 119t-245 64q-86 12 -171 13 q-43 0 -85 -3q-128 -9 -238 -44q51 45 110.5 128t117 176t104.5 184.5t74 158.5q223 531 504 724l-11 41q-312 -155 -582 -155q-60 0 -128.5 12.5t-136.5 35t-128.5 55t-106.5 70.5l-119 -226q30 -22 84 -41t114.5 -33.5t116.5 -23t93 -8.5q69 0 153.5 15t168 38t154 48.5 t108.5 45.5q-66 -49 -118.5 -92.5t-94.5 -82.5q-87 -82 -160 -187.5t-133 -235.5q-94 -202 -150 -323.5t-88.5 -188t-47 -94t-24.5 -41.5q-61 -89 -137 -156q-140 -133 -140 -280q0 -112 69 -202z" />
<glyph unicode="[" horiz-adv-x="336" d="M16 59l1 1287q0 119 60 185q51 58 170 101l63 23q-25 -12 -64.5 -56.5t-51 -72t-14.5 -93.5q4 -16 4 -63v-1496q0 -46 -4 -63q4 -95 68 -165q42 -46 62 -57l-63 23q-119 43 -169 100q-60 68 -61 186z" />
<glyph unicode="\" horiz-adv-x="1485" d="M16 1841q114 -53 204 -151q23 -26 62 -101q9 -28 31 -69l655 -1318q43 -89 180 -147q12 -4 90.5 -26t222.5 -61l-100 55q-112 65 -162 167l-635 1281q-114 223 -465 343z" />
<glyph unicode="]" horiz-adv-x="336" d="M16 -411q23 12 65 59q63 69 67 163q-4 16 -5 63v1496q0 46 5 63q-4 97 -65 164q-40 45 -67 58l65 -23q120 -43 170 -101q59 -67 59 -185v-1448q0 -117 -60 -186q-52 -57 -169 -100z" />
<glyph unicode="^" horiz-adv-x="594" d="M16 1362l187 315h184l182 -317h-77l-150 260q-11 -14 -19 -26l-144 -233z" />
<glyph unicode="_" horiz-adv-x="1612" d="M16 -728l78 118h1493l-78 -118h-1493z" />
<glyph unicode="`" horiz-adv-x="537" d="M16 1428l63 -1q267 -5 319 -113l115 -248q-69 -10 -101 -10q-100 0 -124 51l-88 190q-12 25 -10 34q-20 37 -36 48q-57 42 -138 49z" />
<glyph unicode="a" horiz-adv-x="864" d="M61 798l4 -697l173 -131q110 60 175 92t83 41l19 11q5 -18 9.5 -33t9.5 -28q22 -51 69 -106l236 190l-36 46l-71 -57q-34 49 -46 124v578l-251 144q-275 -151 -374 -174zM238 216v554q57 28 88.5 45t39.5 21l143 -98v-553l-2 -2v-4q-89 -42 -131 -69z" />
<glyph unicode="b" horiz-adv-x="766" d="M0 1284l99 50l2 -1220l110 -94q-109 -100 -137 -178q-26 -70 -25 -131v-12q2 -135 95 -213q85 -78 218 -78q108 0 222 51l-25 39q-94 -47 -193 -48q-261 0 -260 249v5q0 96 71 177q31 31 55.5 53.5t40.5 37.5l2 -2q34 30 220 98.5t232 68.5v677l-182 140l-270 -218l2 780 q-75 -45 -143.5 -84.5t-133.5 -72.5v-75zM275 218v443l172 137l103 -74v-539q-80 -20 -144 -55z" />
<glyph unicode="c" horiz-adv-x="671" d="M0 757l18 -53l83 29v-630l181 -133l379 256l-33 47l-231 -145l-118 96v583l104 34l99 -90l142 79l-138 140z" />
<glyph unicode="d" horiz-adv-x="875" d="M75 101l175 -131l277 144q16 -25 28 -45t21.5 -41.5t22.5 -40.5t32 -40l219 190l-36 46l-71 -57q-34 49 -46 124v1125l117 -55v81l-275 96h-2l2 -2v-601l-92 76q-99 -55 -163 -89.5t-104 -51.5t-63 -23t-42 -6v-699zM250 216v529q128 53 181 85l90 -92v-553l-3 -2v-4 q-32 -9 -66.5 -20.5t-71.5 -25.5z" />
<glyph unicode="e" horiz-adv-x="687" d="M65 83l176 -113l404 271l-33 50l-254 -177l-117 71v159l447 298l-267 330q-171 -85 -260.5 -128.5t-95.5 -45.5v-715zM241 413v372q25 9 42.5 14t25.5 10l184 -225z" />
<glyph unicode="f" horiz-adv-x="673" d="M-71 -268q2 -45 8 -84.5t22 -72.5q78 -147 259 -151h7q94 0 215 51l-25 37q-94 -49 -193 -49q-123 0 -192 72.5t-69 196.5q0 53 24.5 99.5t64 82t91.5 56.5q47 18 97 18h10h12q61 0 102 -18v815q23 -10 41 -12.5t37 -3.5q32 -2 57.5 4t52 24.5t58 47.5t78.5 72 q-14 -10 -36 -18t-46 -13t-47 -8t-39 -3q-40 5 -74.5 26t-81.5 51v394q23 11 38 19t19 10q40 -23 75 -42t68 -35l130 165l-181 97l-488 -397l7 -79l159 120v-183q-44 -8 -88 -44q-16 -18 -46 -55t-75 -90q73 39 100.5 48t43.5 9q30 0 65 -11l-4 -770q-110 -59 -183 -159.5 t-73 -216.5z" />
<glyph unicode="g" horiz-adv-x="804" d="M73 122l277 -132l159 88q96 -98 122.5 -184.5t26.5 -166.5q0 -65 -18.5 -125.5t-59.5 -105.5q-83 -95 -192 -95q-20 0 -40 3q-124 20 -180 104q-44 64 -44 150q0 25 4 51q16 94 83 181l-34 29q-92 -135 -92 -265q0 -115 72.5 -188.5t184.5 -93.5q49 -6 83 -7q34 0 65 7.5 t62.5 26.5t78.5 46q119 77 164 287q6 30 6 80q0 64 -10 160q-44 109 -89 182v658l-181 142q-25 -23 -136.5 -79.5t-311.5 -147.5v-605zM250 230v486q57 25 111 52t77 39l87 -74v-552l-57 -51z" />
<glyph unicode="h" horiz-adv-x="907" d="M-163 -305q0 -144 108 -232q98 -83 244 -83q274 0 320 329l-47 -2q-11 -128 -79 -204q-73 -87 -193 -87q-261 0 -265 265v6q0 168 114 254q69 47 243 93v646l172 138l103 -75v-539q6 -128 104 -234l228 191l-36 46l-72 -60q-59 87 -59 350q0 24 2.5 70.5t3.5 98.5t3 99 t2 69l-180 140l-271 -219v779q-75 -45 -144 -83.5t-132 -69.5v-79l102 53v-1233q-271 -106 -271 -427z" />
<glyph unicode="i" horiz-adv-x="461" d="M16 750l117 48v-574q12 -139 93 -236l226 191l-37 45l-71 -57q-34 49 -37 147v640l-289 -128zM61 1241l155 -175l150 169l-153 175z" />
<glyph unicode="j" horiz-adv-x="447" d="M-275 -321q0 -73 31 -133.5t86 -101t128 -52.5q27 -5 56 -5q49 0 102 13q117 32 200.5 118.5t106.5 238.5q7 35 7 90q0 62 -9 151q-57 144 -124 224l-2 732l-287 -128l-2 -76l115 48v-668l-5 -2q98 -119 135.5 -206t37.5 -170q0 -59 -20 -123t-61 -108q-82 -96 -188 -96 q-22 0 -44 4q-57 10 -103 37t-75.5 67.5t-41.5 92.5q-5 24 -5 49q0 29 7 59q18 99 81 181l-34 30q-92 -135 -92 -266zM61 1241l157 -175l148 169l-153 175z" />
<glyph unicode="k" horiz-adv-x="884" d="M-181 -337q0 -47 20.5 -97t59.5 -89q99 -98 271 -98h14q60 -1 109 23q55 26 99 73q40 45 60 107q17 51 17 136q0 16 -1 34l-42 -9q9 -25 9 -58v-6q0 -87 -47 -145q-48 -58 -118 -86q-58 -23 -122 -23q-14 0 -28 1q-79 6 -140 45q-54 33 -72 95q-11 37 -11 77q1 26 5 53 q12 68 45 127.5t78 91.5q63 44 254 108l6 436l98 82q85 -73 142 -266q61 -209 136 -289l6 8h2l202 183l-37 45l-61 -52q-63 59 -134 229q-68 165 -149 238l255 250v78l-466 -415v1002q-96 -57 -164.5 -96t-110.5 -60v-78l99 51v-1273q-124 -59 -202 -179q-82 -121 -82 -254z " />
<glyph unicode="l" horiz-adv-x="417" d="M-137 -287q0 -39 9 -77.5t27 -66.5q53 -83 91 -114q44 -37 127 -63q69 -18 122 -18q19 0 36 2q69 10 120.5 47.5t83.5 90.5q50 76 50 185v28q0 13 -2 25l-43 -9q4 -26 4 -51q0 -61 -22 -121q-41 -100 -138 -139q-44 -15 -95 -15t-107 15q-126 37 -158 169q-7 28 -7 55 q0 42 16 84q69 179 300 260l67 23v1527q-65 -39 -132.5 -76.5t-142.5 -77.5v-78l98 51v-1225q-37 -16 -74.5 -38.5t-78.5 -52.5q-95 -119 -120 -181q-31 -89 -31 -159z" />
<glyph unicode="m" horiz-adv-x="1313" d="M0 761l39 -43l78 63q41 -45 41 -171v-529l-135 -104l42 -52l270 194v479l169 181l58 -47v-744q10 12 179 129v503l178 157l62 -50l-2 -542q4 -67 30.5 -125t70.5 -106l234 190l-39 46l-69 -57q-20 28 -33 45t-15 21v645l-124 110l-293 -257v151l-138 110l-268 -279 q-5 112 -16 153q-22 71 -85 126z" />
<glyph unicode="n" horiz-adv-x="942" d="M4 761l39 -43l79 63q41 -45 41 -171v-529l-135 -104l41 -52l271 194v479l210 183l60 -49v-542q11 -135 96 -231l236 190l-37 46l-71 -58q-20 30 -34 46t-14 21v644l-123 110l-323 -279q-4 112 -17 153q-20 71 -85 126z" />
<glyph unicode="o" horiz-adv-x="689" d="M30 122l177 -152q166 69 444 223v614l-172 147q-130 -65 -241.5 -121t-207.5 -101v-610zM207 226v515q102 44 149 80l122 -99v-543q-95 -39 -132 -62z" />
<glyph unicode="p" horiz-adv-x="852" d="M16 755l39 -45l64 59q58 -60 58 -173v-1034q-23 -22 -43 -49t-35 -63l27 -14q0 9 23 39q59 81 205 94v516q86 -57 160 -113q6 14 48.5 42.5t94 61t94 60t49.5 35.5l3 650l-182 133l-267 -240q-8 127 -113 240zM354 252v383l171 154l101 -73v-572q-34 -16 -62 -38z" />
<glyph unicode="q" horiz-adv-x="740" d="M49 92l183 -120l264 205v-539q-18 -16 -35 -41.5t-31.5 -52t-26 -50t-15.5 -37.5h52q26 47 67 82q75 69 169 88v1185l-165 142q-428 -204 -462 -230v-632zM224 193v543q53 25 99 48t86 42l91 -102v-467l-168 -131z" />
<glyph unicode="r" horiz-adv-x="710" d="M16 755l39 -47l71 61q53 -65 53 -173v-479q0 -53 20.5 -88t66.5 -59q59 -27 107 -45.5t81.5 -46t52 -70t18.5 -117.5q0 -94 -41 -151.5t-104 -80.5q-45 -16 -97 -16q-22 1 -44 3q-78 10 -154 45l-53 12q18 -18 44.5 -41.5t65.5 -39.5q78 -32 129 -32q138 0 219 85 q39 43 63.5 104t24.5 132q0 106 -56 192.5t-166 153.5v601l61 85q-2 -4 24.5 -26t57 -47t58 -47.5t29.5 -22.5q3 -2 20.5 24.5t37 60t36.5 59t17 22.5q-117 114 -195 188l-146 -197q-10 84 -106 197z" />
<glyph unicode="s" horiz-adv-x="836" d="M-4 -39q47 34 102.5 58t113.5 30q15 2 30 2q43 1 85 -13q56 -18 106 -66q94 53 175.5 97.5t152.5 84.5v364h-525v252q12 12 22 21t19 18q20 -18 53.5 -29t67 -20.5t60 -13t32.5 -3.5q81 0 159 52.5t138.5 128t95.5 160.5q28 69 28 126q0 13 -1 25q1 10 1 20q1 49 -21 99 q-26 60 -70.5 107t-101.5 76t-115 29q-102 0 -194 -77q-96 -79 -124 -183q47 77 141 141q99 71 179 71q101 0 176 -81q79 -78 79 -176q0 -85 -45 -170.5t-116 -142.5q-71 -58 -158 -64q-7 -1 -14 0q-80 0 -158 68q-25 -8 -75.5 -35.5l-101 -55t-91 -49t-42.5 -17.5v-376h521 v-265q-12 -5 -18.5 -8.5t-11.5 -5.5q-72 23 -162 23q-87 0 -167.5 -23t-142.5 -67.5t-82 -111.5zM285 1304v2v-2z" />
<glyph unicode="t" horiz-adv-x="671" d="M4 846q49 28 82 40.5t58.5 14.5t44.5 -2.5t37 -13.5v-351v-237v-142v-74t2 -28l2 -4q-59 -39 -94 -77q-34 -38 -58.5 -67t-39.5 -57.5t-20.5 -63t-5.5 -81.5q4 -95 34 -157q80 -151 257 -154h7q92 0 213 51l-26 39q-45 -25 -86.5 -37t-91.5 -12q-124 0 -193 73t-69 197 q0 50 19.5 96t53 80t79 56t98.5 24q41 0 83 41q13 23 13 55l3 736q38 -12 60 -12q83 0 197 108l45 44q-13 -10 -35 -18t-46 -13.5t-46 -8t-38 -2.5q-20 4 -65 21.5t-72 41.5v419q-65 -39 -132 -76.5t-144 -77.5v-76l96 51v-158q-50 -4 -100 -43q-16 -18 -45.5 -55t-76.5 -90 zM708 931q3 0 6 2z" />
<glyph unicode="u" horiz-adv-x="986" d="M16 779l39 -46l69 58q30 -14 41.5 -38t13.5 -29v-643l122 -111l325 280q4 -113 13 -156q22 -71 85 -124l234 195l-36 46l-78 -64q-44 42 -44 172v497l138 103l-41 53l-271 -195v-447l-211 -183l-61 48v541q1 9 1 17q0 31 -12 56q-15 32 -38 60t-51 51.5t-47 49.5z" />
<glyph unicode="v" horiz-adv-x="804" d="M55 344l258 -369l363 389v452l138 103l-41 53l-273 -195v-498l-120 -132l-148 197v477l134 103l-40 53l-271 -196v-437z" />
<glyph unicode="w" horiz-adv-x="1277" d="M4 738l39 -46l69 58q18 -14 33.5 -32t19.5 -44l2 -580l183 -159l234 246v-87l209 -165l374 342l-3 547q87 134 87 338q0 172 -105 305q-114 142 -284 142q-130 0 -229 -79q-110 -82 -110 -208q0 -147 124 -293l29 34q-56 59 -82 113t-26 123q0 106 81 178q78 71 183 71 q80 0 137.5 -20t96.5 -79.5t56 -137.5q13 -60 13 -123q0 -18 -1 -36q-5 -82 -31.5 -156.5t-75.5 -125.5q-16 -18 -25 -27t-14 -15v-611l-97 -103l-132 103v686l-177 -131v-475l2 -4l-153 -163l-89 87v481l-5 5q-12 135 -96 231z" />
<glyph unicode="x" horiz-adv-x="864" d="M41 807l40 -46l68 57l179 -340q-55 -18 -101 -63.5t-80.5 -103t-53 -120.5t-18.5 -118q0 -135 79 -220q78 -89 212 -89q111 0 220 51l-24 45q-46 -25 -94.5 -33t-98.5 -8q-73 0 -127 47q-53 48 -74 114q-12 38 -12 77q0 30 7 61q16 72 80 125q14 14 166 87l194 -350 l236 190l-36 46l-71 -61l-191 331q53 20 100 66t81.5 104t53.5 120.5t19 117.5q0 136 -77 221q-81 89 -211 89q-108 0 -222 -51l24 -38q90 48 189 48h4q206 0 206 -239v-23q-4 -101 -88 -172q-46 -39 -161 -94l-182 362z" />
<glyph unicode="y" horiz-adv-x="868" d="M78 781l3 -700l123 -111l323 280q4 -113 14 -156q18 -59 52.5 -97t66.5 -79.5t56 -96.5q22 -49 22 -131v-20q-2 -63 -18 -117.5t-51 -102.5q-49 -67 -109 -91q-40 -16 -86 -16q-23 0 -48 4q-100 18 -161 81t-61 163q0 129 85 242l-32 30q-45 -70 -70.5 -145.5 t-25.5 -138.5q0 -112 72 -187t186 -96q29 -5 57 -5q80 0 152 38q96 51 160.5 143.5t88.5 209.5q11 51 11 103q0 65 -17 130q-64 163 -126 232q-43 43 -43 172v497l137 103l-41 53l-271 -195v-447l-210 -183l-60 48l-3 626l138 103l-42 53z" />
<glyph unicode="z" horiz-adv-x="878" d="M-49 -213q-2 -28 5 -7t23.5 59.5t39 82.5t54.5 62q141 83 267 83q48 1 93 -11q165 -44 294 -210l135 158q-161 195 -415 195q-117 0 -234 -55q160 213 271.5 368t185 265t115 181t62 119t24.5 78.5t4 57.5q0 124 -86 224q-93 104 -211 104h-2q-158 0 -308 -170l39 -23 q41 57 97 94q56 36 116 48q23 4 46 5q36 1 72 -11q58 -18 107 -72q45 -46 63 -100q14 -41 13 -85q0 -14 -1 -28q-6 -58 -33.5 -110.5t-72.5 -95.5q-115 -108 -246 -108q-133 0 -387 117l-38 -207q14 -11 63 -21.5t107 -18.5t108.5 -13.5t68.5 -5.5q107 0 213 53 q-155 -209 -262 -353.5t-179.5 -243t-112 -159.5t-60.5 -103t-28 -73.5t-10 -69.5z" />
<glyph unicode="{" horiz-adv-x="478" d="M16 590l67 46q72 52 72 149l-1 576q0 119 58 186q52 58 172 100l63 23q-25 -11 -64.5 -56t-51.5 -72.5t-14 -92.5q4 -16 4 -63l2 -613q0 -82 -102 -126q-13 -6 -205 -57zM22 590q193 -52 204 -58q102 -45 103 -126l-2 -613q0 -47 -5 -62q4 -95 68 -165q43 -47 63 -58 l-64 23q-120 43 -170 101q-59 67 -59 185l2 578q0 97 -74 147z" />
<glyph unicode="|" horiz-adv-x="319" d="M66 -297l175 -79v1981l-175 78v-1980z" />
<glyph unicode="}" horiz-adv-x="478" d="M16 -492q91 53 119 129q10 26 13 94q-4 15 -5 62l-2 613q0 81 102 126q12 6 204 58l-65 -48q-73 -51 -74 -147l2 -578q0 -119 -59 -185q-52 -58 -170 -101zM22 1670l64 -23q120 -43 171 -100q59 -67 59 -186l-2 -576q0 -97 73 -149l66 -46q-192 51 -205 57 q-101 44 -101 126l2 613q0 46 4 63q-4 95 -66 164q-42 46 -65 57z" />
<glyph unicode="~" horiz-adv-x="1127" d="M16 517q66 67 172 160q87 54 170 54q37 0 72 -11l115 -32l75 -27q19 -8 85 -33q92 -25 138 -25q33 0 129 19q103 22 130 38l-73 -51q-178 -125 -314 -125q-80 0 -197 38l-138 45q-60 19 -122 19q-69 0 -134 -25zM418 555z" />
<glyph unicode="&#xa1;" horiz-adv-x="537" d="M16 -207q26 11 68 54q41 41 54 69q13 27 15 89q-5 17 -5 61v759q0 79 106 121q13 5 260 66l-69 -44q-78 -50 -77 -143v-725q0 -193 -285 -285zM162 1239v89q0 73 78 73h125q79 0 79 -73v-89q0 -74 -79 -75h-125q-79 0 -78 75z" />
<glyph unicode="&#xa2;" horiz-adv-x="669" d="M22 998l17 -51l80 28v-601l172 -126l13 7v-181l105 -74v326l243 167l-30 43l-222 -138l-111 92v556l98 32l95 -84l135 74l-131 133l-116 -52v227l-106 75v-348z" />
<glyph unicode="&#xa3;" horiz-adv-x="1404" d="M16 -177q-3 175 206 324q75 53 169 86q83 50 83 125l1 334h-95q-43 0 -60 4q-88 -3 -155 -63q-45 -41 -55 -62l22 61q93 261 282 260h62l2 273q1 150 240 308q170 113 314 114q103 0 296 -111l-212 -170q-12 103 -117 164q-52 30 -95 28q-95 -5 -157 -57 q-68 -57 -68 -149v-400h365q93 0 142 71l45 63q-60 -225 -66 -237q-43 -97 -121 -97h-366l-2 -189q-1 -152 -83 -226q68 8 130 8q170 3 347 -30q211 -81 311 -155l-208 -197l-71 52q-113 82 -277 130q-157 47 -303 47q-132 -1 -240 -41q-219 -83 -218 -268q0 -154 140 -232 q113 -64 279 -63q153 0 295 45l116 26q-205 -122 -433 -120q-246 3 -375 156q-69 82 -70 188z" />
<glyph unicode="&#xa4;" horiz-adv-x="1513" d="M16 591l73 115h155q1 60 10 124h-127l73 113h76q9 36 19 72q108 358 447 522l3 -30q-160 -94 -245 -274q-30 -64 -34 -75q-10 -26 -19 -79l586 520l45 -34q58 -53 193 -53q82 0 167 55l12 -21q-29 -72 -96 -131q-56 -49 -183 -74q-134 0 -206 87l-65 -53l-481 -423l-1 -9 h794l-74 -113h-723q1 -64 9 -124h671l-74 -115h-577q15 -60 36 -119q34 -92 82 -157q166 -230 462 -221q88 2 147 23q158 58 295 206l23 -28q-226 -346 -589 -346q-344 0 -532 286q-100 152 -119 356h-233z" />
<glyph unicode="&#xa5;" horiz-adv-x="1947" d="M16 1240q8 102 86 202q125 158 312 159q319 0 638 -539q8 -12 109 -194l319 512q-47 9 -110 27q-106 31 -160 31q-112 0 -117 -104q-2 -41 38 -79q49 -45 95 -43q-12 -13 -53 -13q-45 0 -69 22q-52 50 -52 108q0 135 89 211q84 71 221 71q58 0 165.5 -44.5t165.5 -44.5 q102 0 230 89q-66 -120 -158 -171l1 -5q-47 -50 -179 -59l-323 -518h290q97 0 150 -79q6 -11 81 -196l-55 53q-59 57 -176 57h-349v-118h344q97 0 150 -80q6 -11 81 -195l-55 52q-60 56 -176 57h-344v-122h-1v-118q71 -5 144 -19q166 -66 246 -127l-165 -162l-56 42 q-196 148 -462 146q-105 0 -190 -34q-175 -68 -175 -219q0 -126 112 -189q91 -53 223 -53q121 0 235 39l30 -32q-174 -47 -283 -46q-195 2 -298 127q-55 66 -56 154q-2 141 165 264q129 95 328 111q-1 4 -1 11v107l-1 120h-233q-236 0 -352 215l-27 50q13 -17 72 -52 q83 -50 191 -52q20 4 74 5h275v118h-227q-237 0 -353 214l-27 50q15 -19 73 -53q82 -47 190 -49q20 3 74 3h192q-128 210 -159 249q-91 122 -165 194q-88 127 -304 127q-134 0 -236 -118zM1674 1518q2 1 3 2l-1 1z" />
<glyph unicode="&#xa6;" horiz-adv-x="153" d="M16 -47v724l112 -73v-725zM16 867v724l112 -73v-725z" />
<glyph unicode="&#xa7;" horiz-adv-x="870" d="M16 -78q94 191 388 191q106 0 141 -20q5 4 30 13v294h-451l8 5h-12v360h-5v395q135 73 314 172q99 -74 180 -74q49 0 124 23q89 27 113 61q-94 -191 -388 -191q-107 0 -141 21q-5 -3 -29 -12v-301h450l-8 -4h13v-361h4v-389q-136 -72 -315 -172q-98 74 -179 75 q-50 0 -125 -24q-88 -27 -112 -62zM291 761l1 -262h279l-1 262h-279z" />
<glyph unicode="&#xa8;" horiz-adv-x="603" d="M16 1221l101 132l104 -135l-100 -133zM374 1221l101 132l104 -135l-100 -133z" />
<glyph unicode="&#xa9;" horiz-adv-x="1664" d="M16 767q0 359 224.5 589.5t583.5 230.5q365 0 591 -227t226 -593q0 -354 -225 -584q-226 -234 -578 -234q-360 0 -591 229t-231 589zM150 767q0 -291 187 -491q191 -205 479 -208l8 4q302 3 491 197t189 498q0 306 -186 501q-190 196 -494 196q-295 0 -487 -203 q-188 -198 -187 -494zM320 718q1 96 39 203q83 234 342 339l3 -19q-122 -60 -188 -178q-24 -42 -27 -50q-6 -18 -14 -50l449 337l34 -22q44 -33 147 -33q64 0 128 36l9 -14q-22 -47 -74 -87q-43 -31 -140 -47q-101 0 -157 57l-50 -34l-366 -276q-4 -30 -4 -63 q0 -132 50 -249q26 -61 62 -102q129 -148 354 -144q65 1 111 15q119 36 227 135l17 -19q-172 -224 -451 -224q-263 0 -406 185q-97 124 -95 304z" />
<glyph unicode="&#xaa;" horiz-adv-x="646" d="M16 1064q0 98 126 205q148 71 214 164l-22 19q-78 -46 -221 -46q-42 0 -80 8l-7 63q33 -8 60 -8q80 0 173 35q105 39 147 99l100 -80l1 -366q0 -67 29 -111l49 38l37 -42l-181 -140q-64 68 -75 155l-184 -153q-166 36 -166 160zM134 1141q0 -43 38 -74q34 -29 78 -33 l115 95v233q-80 -89 -172 -123q-59 -53 -59 -98z" />
<glyph unicode="&#xab;" horiz-adv-x="842" d="M16 707l1 2l-1 3l1 -1l147 189l326 227l-84 -198l-383 -220l383 -219l84 -198l-326 228l-147 188zM337 707l1 2l-1 3l3 -1l152 189l326 227l-84 -198l-389 -220l389 -219l84 -198l-326 228l-152 188z" />
<glyph unicode="&#xac;" horiz-adv-x="925" d="M16 711l73 113h813l-2 -2v-319l-112 74v134h-772z" />
<glyph unicode="&#xad;" horiz-adv-x="779" d="M16 443h686l77 119h-685z" />
<glyph unicode="&#xae;" horiz-adv-x="1664" d="M16 767q0 359 224.5 589.5t583.5 230.5q365 0 591 -227t226 -593q0 -354 -225 -584q-226 -234 -578 -234q-306 0 -516 181q-15 4 -20 18q-286 245 -286 619zM150 767q0 -257 173 -459q101 82 207 116q19 22 20 84v499q0 101 134 153q-39 10 -85 29q-86 36 -129 35 q-108 0 -108 -113q0 -41 26 -76l18 -42q-65 41 -73 130q8 115 120 172q51 27 108 26q69 0 184 -46q61 -24 86 -24q34 0 41 -1q86 63 188 62q120 -1 166 -104q19 -43 19 -82q0 -94 -66 -172q-49 -56 -147 -118v-3q210 -32 210 -147v-293q12 -40 45 -92l29 -18 q188 199 188 484q0 306 -186 501q-190 196 -494 196q-295 0 -487 -203q-188 -198 -187 -494zM352 276q196 -205 464 -208l8 4q291 3 486 205h-10q-66 0 -130 29q-25 11 -37 39q-17 40 -21 46l-2 -1v3l1 284q0 99 -89 142l-245 -52l113 44q211 52 212 294q0 73 -14 107 q-22 52 -83 51q-27 0 -132 -56q-65 -46 -131 -51q-40 -20 -53 -58q-8 -24 -8 -82v-468q0 -68 -31 -123q-56 -95 -189 -92q-69 -23 -109 -57z" />
<glyph unicode="&#xaf;" horiz-adv-x="1104" d="M10 1513v146h1069v-146h-1069z" />
<glyph unicode="&#xb0;" horiz-adv-x="709" d="M63 1239q0 126 90 215.5t216 89.5q127 0 216 -90t89 -215t-90.5 -216t-215.5 -91q-128 0 -216.5 89.5t-88.5 217.5zM169 1234q0 -85 60 -143.5t143 -58.5q85 0 144 58.5t59 143.5t-59.5 144.5t-143.5 59.5q-82 0 -142.5 -59.5t-60.5 -144.5z" />
<glyph unicode="&#xb1;" horiz-adv-x="1265" d="M100 43v146h1070v-146h-1070zM100 783v146h1070v-146h-1070zM561 322v1068h147v-1068h-147z" />
<glyph unicode="&#xb2;" horiz-adv-x="1067" d="M227 817v32q288 202 383 330q58 78 58 150q0 65 -48 108.5t-121 43.5q-67 0 -117 -32t-75 -93h-53q15 103 89 162.5t191 59.5q125 0 202 -63t77 -135t-55 -152q-87 -120 -343 -307h216q101 0 134.5 11.5t56.5 46.5h50l-68 -162h-577z" />
<glyph unicode="&#xb3;" horiz-adv-x="947" d="M195 811q0 16 20 31.5t48 15.5q36 0 99.5 -26t107.5 -26q69 0 117.5 41.5t48.5 98.5q0 74 -68 125.5t-213 49.5v27q95 0 156.5 49.5t61.5 114.5q0 52 -39 84t-105 32q-101 0 -177 -92l-44 18q42 78 95 113q80 50 180 50q111 0 174 -49t63 -106q0 -72 -124 -164 q86 -26 128.5 -77.5t42.5 -114.5q0 -107 -102 -185t-296 -78q-100 0 -144 26q-30 17 -30 42z" />
<glyph unicode="&#xb4;" horiz-adv-x="1077" d="M254 1119l385 393q45 45 73.5 61.5t53.5 16.5q43 0 70 -26.5t27 -66.5q0 -30 -19.5 -56.5t-60.5 -52.5l-437 -269h-92z" />
<glyph unicode="&#xb5;" horiz-adv-x="1077" d="M13 115l15 37q50 -14 71 -14q29 0 45 12.5t24.5 50t8.5 203.5v874q0 88 -13 117.5t-35 41.5q-37 19 -101 19v39h370l-3 -60q-24 -14 -32 -35q-11 -24 -11 -122v-509q77 -84 132 -111t106 -27q53 0 88.5 25t51.5 73t16 209v340q0 81 -2 98q-8 27 -24 46v73h345v-39 q-69 0 -94 -14t-36 -40q-14 -36 -14 -124v-340q0 -180 -21 -249q-28 -94 -86.5 -139.5t-141.5 -45.5q-69 0 -136.5 35.5t-183.5 164.5v-704h-50z" />
<glyph unicode="&#xb6;" horiz-adv-x="1077" d="M98 1143q0 165 114 266t299 101h467v-74h-134v-1436h-87v1436h-174v-1436h-88v777q-183 8 -290 107.5t-107 258.5z" />
<glyph unicode="&#xb7;" horiz-adv-x="533" d="M136 772q0 18 20 37l101 106q19 16 36 16q15 0 38 -20l98 -105q15 -23 15 -37q0 -18 -17 -39l-100 -107q-23 -25 -34 -25q-22 0 -36 16l-109 127q-12 14 -12 31z" />
<glyph unicode="&#xb8;" horiz-adv-x="1077" d="M309 -365q108 -65 191 -65q84 0 119 26.5t35 83.5t-62 81q-49 19 -129 19q-18 0 -42 -1l63 221h77l-45 -130q39 4 76 6q109 0 170.5 -51t61.5 -144q0 -95 -74.5 -151t-203.5 -56q-138 0 -237 41v120z" />
<glyph unicode="&#xb9;" horiz-adv-x="999" d="M340 1449l267 98h46v-656q0 -69 8 -83q5 -11 17 -15q23 -11 103 -10v-36h-420v36q82 0 102 7q17 8 24.5 19t7.5 82v413q0 80 -6 105q-5 18 -15.5 24t-25.5 6q-25 0 -87 -20z" />
<glyph unicode="&#xba;" horiz-adv-x="922" d="M114 1103q9 97 67 189t140.5 130t171.5 29q162 -15 248 -146q70 -113 57 -248q-9 -95 -63 -187.5t-139 -135t-183 -33.5q-160 16 -243 153q-69 116 -56 249zM283 1131q-13 -137 32.5 -242.5t136.5 -114.5q66 -5 114.5 45t62.5 185q15 168 -48 272q-42 73 -119 79 q-38 4 -76 -15t-65.5 -71t-37.5 -138z" />
<glyph unicode="&#xbb;" horiz-adv-x="882" d="M16 306l89 208l408 230l-408 229l-89 208l343 -238l159 -197h2l-2 -2l2 -2h-2l-159 -198zM360 306l87 208l402 230l-402 229l-87 208l342 -238l154 -197h1l-1 -2l1 -2h-1l-154 -198z" />
<glyph unicode="&#xbc;" horiz-adv-x="1565" d="M16 817q0 83 57 132q54 45 138 45q8 0 15 -1l1 566q-8 0 -20 1q-54 -2 -96 -27q-30 -18 -37 -27l14 26q49 96 139 110v4l115 29v-719q52 -18 77 -18q64 0 145 56q-42 -74 -99 -107v-4q-36 -37 -148 -37q-34 0 -100.5 19.5t-100.5 19.5q-70 0 -74 -65q-1 -26 24 -49 q30 -29 59 -27q-8 -9 -33 -9q-28 0 -43 15q-32 30 -33 67zM105 -29l85 49q92 54 141 156l583 1179q110 220 372 315l71 26q-91 -42 -173 -138q-23 -27 -57 -94q-6 -25 -25 -64l-601 -1215q-42 -85 -157 -133q-37 -17 -239 -81zM897 356v87l404 483q28 -27 82 -67v-466l119 2 v-38l-119 -1v-176q17 -4 36 -9q81 -52 120 -98l-81 -125l-28 33q-98 114 -227 112q-52 -1 -94 -26q-79 -47 -79 -128q0 -161 158 -161q60 0 115 29l16 -24q-73 -31 -133 -30q-107 3 -154 93q-18 37 -20 93q0 51 16 86q12 26 57 76q71 82 185 89v166h-373zM1000 429 q0 -9 5 -23q4 -9 0 -13h265l3 392l-26 24l-242 -298q4 -18 0 -45z" />
<glyph unicode="&#xbd;" horiz-adv-x="1547" d="M16 817q0 83 57 132q54 45 138 45q8 0 15 -1l1 566q-8 0 -20 1q-54 -2 -96 -27q-30 -18 -37 -27l14 26q49 96 139 110v4l115 29v-719q52 -18 77 -18q64 0 145 56q-42 -74 -99 -107v-4q-36 -37 -148 -37q-34 0 -100.5 19.5t-100.5 19.5q-70 0 -74 -65q-1 -26 24 -49 q30 -29 59 -27q-8 -9 -33 -9q-28 0 -43 15q-32 30 -33 67zM105 -29l85 49q92 54 141 156l583 1179q110 220 372 315l71 26q-91 -42 -173 -138q-23 -27 -57 -94q-6 -25 -25 -64l-601 -1215q-42 -85 -157 -133q-37 -17 -239 -81zM919 -41q-1 40 22 78q8 85 72 173 q41 56 143.5 156t144.5 158q69 96 69 172q-17 -1 -50.5 14t-42.5 29q-72 -84 -234 -88q-16 0 -94 5q139 37 242 198l16 -16q115 -119 302 -119q0 -165 -108 -264q-59 -55 -115 -89l-142 -87q-137 -84 -158 -192q9 9 24 20q84 61 222 63q72 1 153 -13q93 -38 137 -71l-92 -90 l-31 23q-109 82 -256 81q-59 0 -106 -18q-96 -39 -96 -123q0 -135 184 -135q68 0 131 21l17 -16q-93 -27 -157 -27q-108 1 -165 71q-31 38 -32 86z" />
<glyph unicode="&#xbe;" horiz-adv-x="1575" d="M16 939q45 46 167 46q112 0 185 -70l70 28v189q-83 44 -185 129q41 30 79 56q30 22 92 39v204l-49 28q-85 -61 -173 -62q-112 0 -135 41q78 12 130 39q12 6 112 71q89 -88 254 -117v-219q-42 -2 -88 -20q-19 -8 -83 -32q53 -38 161 -110v-252q-160 -18 -262 -101 q-37 59 -121 90q-71 25 -154 23zM115 -29l85 49q91 54 142 156l583 1179q109 220 372 315l71 26q-92 -42 -174 -138q-23 -27 -57 -94q-5 -25 -25 -64l-600 -1215q-42 -85 -157 -133q-37 -17 -240 -81zM907 356v87l404 483q28 -27 83 -67v-466l118 2v-38l-118 -1v-176 q17 -4 34 -9q82 -52 122 -98l-82 -125l-28 33q-98 114 -226 112q-53 -1 -94 -26q-79 -47 -79 -128q0 -161 158 -161q59 0 115 29l15 -24q-73 -31 -134 -30q-106 3 -153 93q-19 37 -20 93q0 51 16 86q12 26 58 76q70 82 183 89v166h-372zM1010 429q0 -9 5 -23q3 -9 -1 -13 h265l4 392l-26 24l-243 -298q4 -18 1 -45z" />
<glyph unicode="&#xbf;" horiz-adv-x="851" d="M16 127q0 218 211 325l152 76q31 16 125 120q38 43 38 246q84 -129 82 -227q-2 -127 -101 -219q-54 -49 -143 -110q-120 -82 -147 -104q-113 -88 -113 -205q0 -103 106 -168q46 -28 95 -28q134 0 234 131q38 49 46 66q6 15 32 89l193 -60q-155 -276 -433 -276 q-197 0 -321 177q-56 80 -56 167zM382 1081v103q0 84 80 84h133q82 0 82 -84v-103q0 -83 -82 -83h-133q-81 0 -80 83z" />
<glyph unicode="&#xc0;" horiz-adv-x="1610" d="M-64 -198q-1 151 148 278q85 73 206 101l572 1502l34 -17q10 -29 125 -357l363 -1030q62 -174 201 -279h-301q-23 45 -70 177q-19 55 -49 152l-53 175h-629l-122 -311q38 5 80 5q126 2 248 -26q149 -69 220 -132l-148 -169l-51 44q-176 154 -413 152q-95 -1 -170 -36 q-156 -71 -156 -229q0 -132 100 -200q81 -54 198 -54q110 0 211 40l28 -31q-143 -52 -254 -50q-175 2 -266 134q-50 70 -52 161zM545 686h499l-241 683zM660 2130l62 -1q267 -6 318 -114l116 -248q-68 -10 -102 -10q-99 0 -123 51l-87 189q-12 25 -11 35q-20 37 -35 47 q-57 42 -138 51z" />
<glyph unicode="&#xc1;" horiz-adv-x="1610" d="M-64 -198q-1 151 148 278q85 73 206 101l572 1502l34 -17q10 -29 125 -357l363 -1030q62 -174 201 -279h-301q-23 45 -70 177q-19 55 -49 152l-53 175h-629l-122 -311q38 5 80 5q126 2 248 -26q149 -69 220 -132l-148 -169l-51 44q-176 154 -413 152q-95 -1 -170 -36 q-156 -71 -156 -229q0 -132 100 -200q81 -54 198 -54q110 0 211 40l28 -31q-143 -52 -254 -50q-175 2 -266 134q-50 70 -52 161zM545 686h499l-241 683zM586 1771l116 248q51 108 318 114l62 1q-81 -9 -138 -50q-15 -11 -34 -48q0 -10 -12 -34l-87 -190q-24 -51 -123 -51 q-32 0 -102 10z" />
<glyph unicode="&#xc2;" horiz-adv-x="1610" d="M-64 -198q-1 151 148 278q85 73 206 101l572 1502l34 -17q10 -29 125 -357l363 -1030q62 -174 201 -279h-301q-23 45 -70 177q-19 55 -49 152l-53 175h-629l-122 -311q38 5 80 5q126 2 248 -26q149 -69 220 -132l-148 -169l-51 44q-176 154 -413 152q-95 -1 -170 -36 q-156 -71 -156 -229q0 -132 100 -200q81 -54 198 -54q110 0 211 40l28 -31q-143 -52 -254 -50q-175 2 -266 134q-50 70 -52 161zM545 686h499l-241 683zM605 1780l186 315l183 -1l183 -315l-77 -2l-151 261q-10 -14 -17 -27l-145 -232z" />
<glyph unicode="&#xc3;" horiz-adv-x="1610" d="M-64 -198q-1 151 148 278q85 73 206 101l572 1502l34 -17q10 -29 125 -357l363 -1030q62 -174 201 -279h-301q-23 45 -70 177q-19 55 -49 152l-53 175h-629l-122 -311q38 5 80 5q126 2 248 -26q149 -69 220 -132l-148 -169l-51 44q-176 154 -413 152q-95 -1 -170 -36 q-156 -71 -156 -229q0 -132 100 -200q81 -54 198 -54q110 0 211 40l28 -31q-143 -52 -254 -50q-175 2 -266 134q-50 70 -52 161zM545 686h499l-241 683zM573 1869q93 107 122 146q55 44 105 44q28 0 54 -14l72 -37l89 -57l10 -6q60 -28 86 -31q32 -2 89 11.5t82 31.5 l-50 -46q-115 -106 -197 -106q-56 0 -137 47l-86 48q-45 26 -93 26q-32 0 -72 -19z" />
<glyph unicode="&#xc4;" horiz-adv-x="1610" d="M-64 -198q-1 151 148 278q85 73 206 101l572 1502l34 -17q10 -29 125 -357l363 -1030q62 -174 201 -279h-301q-23 45 -70 177q-19 55 -49 152l-53 175h-629l-122 -311q38 5 80 5q126 2 248 -26q149 -69 220 -132l-148 -169l-51 44q-176 154 -413 152q-95 -1 -170 -36 q-156 -71 -156 -229q0 -132 100 -200q81 -54 198 -54q110 0 211 40l28 -31q-143 -52 -254 -50q-175 2 -266 134q-50 70 -52 161zM545 686h499l-241 683zM584 1980l107 138l109 -142l-106 -138zM959 1980l107 138l109 -142l-106 -138z" />
<glyph unicode="&#xc5;" horiz-adv-x="1610" d="M-64 -198q-1 151 148 278q85 73 206 101l572 1502l34 -17q10 -29 125 -357l363 -1030q62 -174 201 -279h-301q-23 45 -70 177q-19 55 -49 152l-53 175h-629l-122 -311q38 5 80 5q126 2 248 -26q149 -69 220 -132l-148 -169l-51 44q-176 154 -413 152q-95 -1 -170 -36 q-156 -71 -156 -229q0 -132 100 -200q81 -54 198 -54q110 0 211 40l28 -31q-143 -52 -254 -50q-175 2 -266 134q-50 70 -52 161zM545 686h499l-241 683zM660 1899l1 210q126 65 306 154l140 -102l2 -213q-129 -68 -304 -152zM795 1963l61 -68q31 17 108 43v165l-102 68 q-9 -13 -67 -36v-172z" />
<glyph unicode="&#xc6;" horiz-adv-x="2464" d="M16 -198q-2 151 174 278q100 73 241 101l403 898h-1q-38 11 -53 36q-37 53 -36 111q0 215 216 342q58 33 119 56l26 59l39 -17l7 -17q103 28 221 34q102 4 371 -48q338 -66 468 -66q169 1 227 72q-56 -141 -128 -198q-63 -50 -218 -88q-150 0 -304 40l-220 55 q-265 68 -364 71l237 -574q106 75 265 114q129 31 223 29q156 -3 272 -134l-195 -126q-29 14 -97 61q-87 60 -176 61q-132 0 -263 -74l234 -565q144 -3 291 -31q219 -85 324 -162l-218 -207l-73 54q-43 31 -94 58l-18 13q-4 -1 -25 8q-66 32 -153 59q-167 50 -318 48 q-139 -1 -252 -44q-230 -86 -229 -280q0 -161 146 -243q119 -66 294 -66q161 0 309 48l41 -38q-223 -63 -373 -60q-258 3 -392 162q-72 85 -75 197q-1 47 16 103q-171 137 -464 135q-111 -1 -201 -36q-184 -71 -184 -229q0 -132 119 -200q94 -54 234 -54q128 0 246 40 l33 -31q-169 -52 -298 -50q-206 2 -313 134q-59 69 -61 161zM515 193q45 5 94 5q149 2 292 -26q38 -14 135 -59q29 26 70 55q147 105 365 134l-9 27l-62 175h-740zM732 686h587l-283 683zM787 1245q0 -111 53 -155l183 412q-54 -15 -99 -39q-137 -72 -137 -218z" />
<glyph unicode="&#xc7;" horiz-adv-x="1576" d="M16 736q2 153 65 328q132 375 548 546l6 -31q-196 -98 -302 -287q-37 -67 -42 -79q-12 -27 -24 -82l723 544l56 -36q71 -54 237 -53q101 0 206 57l15 -23q-36 -75 -120 -137q-68 -52 -225 -79q-164 0 -254 93l-79 -56l-592 -443q-6 -51 -7 -101q0 -217 81 -402 q42 -97 101 -166q205 -239 570 -231q109 2 181 25q195 61 364 217l27 -31q-267 -348 -693 -361l-53 -154q272 0 272 -160q0 -193 -277 -193q-105 0 -227 132q147 -25 202 -25q94 0 136 36q9 5 17 12q-4 5 -4 24q0 133 -196 132l77 195q-409 6 -635 299q-157 202 -154 490z " />
<glyph unicode="&#xc8;" horiz-adv-x="1455" d="M-10 1205q0 216 185 343q150 106 349 115q87 4 316 -48q288 -65 396 -65q144 0 194 71q-47 -140 -109 -197q-54 -50 -185 -88q-127 0 -259 38l-186 56q-31 10 -59 18q-39 -31 -54 -80q-10 -32 -17 -109q3 -25 3 -72v-273q89 84 244 127q110 30 190 29q133 -3 230 -133 l-165 -126q-24 14 -82 60q-74 61 -150 61q-134 0 -267 -105v-298q0 -170 -223 -268l-18 48q61 30 62 129v781q0 126 161 220l39 23q-152 40 -213 40q-135 0 -229 -59q-117 -73 -117 -217q0 -156 88 -180q-41 11 -48 12q-31 12 -46 36q-30 54 -30 111zM113 -191 q-2 183 184 340q168 140 447 144q149 3 309 -31q187 -84 276 -162l-185 -207l-63 54q-100 86 -242 137t-275 49q-116 -1 -213 -44q-195 -86 -195 -280q0 -161 125 -242q100 -67 248 -67q137 0 264 48l34 -38q-189 -61 -316 -60q-219 3 -334 162q-61 86 -64 197zM486 2130 l63 -1q267 -6 318 -114l115 -248q-69 -10 -101 -10q-100 0 -123 51l-89 189q-12 25 -10 35q-20 37 -35 47q-57 42 -138 51z" />
<glyph unicode="&#xc9;" horiz-adv-x="1455" d="M-10 1205q0 216 185 343q150 106 349 115q87 4 316 -48q288 -65 396 -65q144 0 194 71q-47 -140 -109 -197q-54 -50 -185 -88q-127 0 -259 38l-186 56q-31 10 -59 18q-39 -31 -54 -80q-10 -32 -17 -109q3 -25 3 -72v-273q89 84 244 127q110 30 190 29q133 -3 230 -133 l-165 -126q-24 14 -82 60q-74 61 -150 61q-134 0 -267 -105v-298q0 -170 -223 -268l-18 48q61 30 62 129v781q0 126 161 220l39 23q-152 40 -213 40q-135 0 -229 -59q-117 -73 -117 -217q0 -156 88 -180q-41 11 -48 12q-31 12 -46 36q-30 54 -30 111zM113 -191 q-2 183 184 340q168 140 447 144q149 3 309 -31q187 -84 276 -162l-185 -207l-63 54q-100 86 -242 137t-275 49q-116 -1 -213 -44q-195 -86 -195 -280q0 -161 125 -242q100 -67 248 -67q137 0 264 48l34 -38q-189 -61 -316 -60q-219 3 -334 162q-61 86 -64 197zM480 1766 l115 248q50 109 318 114l62 1q-81 -8 -137 -51q-15 -11 -35 -46q0 -10 -12 -36l-87 -189q-24 -50 -123 -51q-32 0 -101 10z" />
<glyph unicode="&#xca;" horiz-adv-x="1455" d="M-10 1205q0 216 185 343q150 106 349 115q87 4 316 -48q288 -65 396 -65q144 0 194 71q-47 -140 -109 -197q-54 -50 -185 -88q-127 0 -259 38l-186 56q-31 10 -59 18q-39 -31 -54 -80q-10 -32 -17 -109q3 -25 3 -72v-273q89 84 244 127q110 30 190 29q133 -3 230 -133 l-165 -126q-24 14 -82 60q-74 61 -150 61q-134 0 -267 -105v-298q0 -170 -223 -268l-18 48q61 30 62 129v781q0 126 161 220l39 23q-152 40 -213 40q-135 0 -229 -59q-117 -73 -117 -217q0 -156 88 -180q-41 11 -48 12q-31 12 -46 36q-30 54 -30 111zM113 -191 q-2 183 184 340q168 140 447 144q149 3 309 -31q187 -84 276 -162l-185 -207l-63 54q-100 86 -242 137t-275 49q-116 -1 -213 -44q-195 -86 -195 -280q0 -161 125 -242q100 -67 248 -67q137 0 264 48l34 -38q-189 -61 -316 -60q-219 3 -334 162q-61 86 -64 197zM473 1780 l187 315l184 -1l182 -315l-77 -2l-150 261q-11 -14 -19 -27l-145 -232z" />
<glyph unicode="&#xcb;" horiz-adv-x="1455" d="M-10 1205q0 216 185 343q150 106 349 115q87 4 316 -48q288 -65 396 -65q144 0 194 71q-47 -140 -109 -197q-54 -50 -185 -88q-127 0 -259 38l-186 56q-31 10 -59 18q-39 -31 -54 -80q-10 -32 -17 -109q3 -25 3 -72v-273q89 84 244 127q110 30 190 29q133 -3 230 -133 l-165 -126q-24 14 -82 60q-74 61 -150 61q-134 0 -267 -105v-298q0 -170 -223 -268l-18 48q61 30 62 129v781q0 126 161 220l39 23q-152 40 -213 40q-135 0 -229 -59q-117 -73 -117 -217q0 -156 88 -180q-41 11 -48 12q-31 12 -46 36q-30 54 -30 111zM113 -191 q-2 183 184 340q168 140 447 144q149 3 309 -31q187 -84 276 -162l-185 -207l-63 54q-100 86 -242 137t-275 49q-116 -1 -213 -44q-195 -86 -195 -280q0 -161 125 -242q100 -67 248 -67q137 0 264 48l34 -38q-189 -61 -316 -60q-219 3 -334 162q-61 86 -64 197zM480 1980 l106 138l109 -142l-105 -138zM855 1980l106 138l109 -142l-105 -138z" />
<glyph unicode="&#xcc;" horiz-adv-x="908" d="M49 -154q0 227 237 330q80 36 163 44q52 45 52 140v894q0 107 66 183q-18 -3 -36 -3q-53 0 -153.5 37.5t-153.5 37.5q-135 0 -135 -133q0 -75 88 -154l48 -43q-166 53 -172 187q-2 69 43 146q98 168 269 168q65 0 180 -41q108 -38 160 -37q84 0 164 81q-58 -83 -138 -169 q-28 -29 -42 -71q-10 -27 -12 -91q4 -18 4 -63v-929q0 -81 -86 -126q-12 -5 -38 -16q94 -16 250 -82l-171 -172q-176 85 -312 83q-100 -1 -162 -53q-77 -64 -77 -173q0 -231 324 -231q25 0 39 1l138 6q-129 -14 -214 -14q-154 0 -224 42q-99 60 -99 221zM230 2130l62 -1 q267 -6 319 -114l116 -248q-69 -10 -102 -10q-100 0 -124 51l-87 189q-12 25 -11 35q-20 37 -35 47q-57 42 -138 51z" />
<glyph unicode="&#xcd;" horiz-adv-x="874" d="M37 -154q0 227 236 330q81 36 165 44q52 45 51 140v894q0 107 65 183q-18 -3 -34 -3q-54 0 -154.5 37.5t-154.5 37.5q-134 0 -133 -133q0 -75 87 -154l47 -43q-166 53 -171 187q-2 69 43 146q97 168 270 168q64 0 180 -41q107 -38 158 -37q85 0 164 81q-57 -83 -137 -169 q-28 -29 -43 -71q-9 -27 -11 -91q4 -18 4 -63v-929q0 -81 -87 -126q-11 -5 -37 -16q94 -16 249 -82l-170 -172q-176 85 -311 83q-100 -1 -163 -53q-78 -64 -78 -173q0 -231 325 -231q25 0 40 1l136 6q-128 -14 -213 -14q-154 0 -224 42q-99 60 -99 221zM248 1771l115 248 q51 108 319 114l63 1q-81 -9 -138 -50q-16 -11 -36 -48q1 -10 -10 -34l-88 -190q-24 -51 -124 -51q-32 0 -101 10z" />
<glyph unicode="&#xce;" horiz-adv-x="908" d="M55 -154q0 227 236 330q81 36 165 44q52 45 52 140v894q0 107 64 183q-18 -3 -34 -3q-54 0 -154.5 37.5t-153.5 37.5q-134 0 -134 -133q0 -75 87 -154l48 -43q-166 53 -172 187q-2 69 43 146q97 168 270 168q64 0 180 -41q108 -38 158 -37q85 0 164 81q-57 -83 -137 -169 q-28 -29 -42 -71q-10 -27 -12 -91q4 -18 5 -63v-929q0 -81 -88 -126q-11 -5 -36 -16q94 -16 249 -82l-171 -172q-176 85 -311 83q-100 -1 -163 -53q-78 -64 -77 -173q0 -231 324 -231q25 0 40 1l138 6q-129 -14 -215 -14q-154 0 -224 42q-99 60 -99 221zM211 1780l187 315 l184 -1l182 -315l-77 -2l-150 261q-11 -14 -19 -27l-145 -232z" />
<glyph unicode="&#xcf;" horiz-adv-x="901" d="M42 -154q0 227 237 330q80 36 164 44q53 45 53 140v894q0 107 65 183q-18 -3 -35 -3q-54 0 -154.5 37.5t-153.5 37.5q-135 0 -135 -133q0 -75 88 -154l48 -43q-166 53 -172 187q-2 69 44 146q97 168 268 168q65 0 181 -41q107 -38 158 -37q84 0 164 81q-58 -83 -138 -169 q-27 -29 -42 -71q-9 -27 -12 -91q4 -18 5 -63v-929q0 -81 -86 -126q-12 -5 -38 -16q94 -16 250 -82l-170 -172q-176 85 -313 83q-99 -1 -163 -53q-77 -64 -76 -173q0 -231 324 -231q24 0 40 1l137 6q-128 -14 -214 -14q-155 0 -225 42q-99 60 -99 221zM211 1980l107 138 l109 -142l-106 -138zM586 1980l107 138l109 -142l-106 -138z" />
<glyph unicode="&#xd0;" horiz-adv-x="1613" d="M16 700q0 137 95 217q89 77 230 77q28 0 63 -9v203q0 192 194 243q-11 2 -64 -5q-63 -10 -74 -10q-352 0 -440 267l39 -35q29 -71 243 -69q84 2 178 14l432 59q78 11 155 11q341 0 457 -149q64 -81 64 -217l-1 -208q0 -286 -51 -460q-73 -249 -274 -395q134 263 134 620 q0 75 -4 160q-2 36 0 94l1 60l-5 82q-5 114 -87 176q-75 56 -193 56q-59 0 -181 -17l-96 -14q-161 -5 -200 -72q-15 -25 -18 -88q2 -25 2 -103v-275q44 -13 73 -13q106 0 240 94q-69 -125 -166 -180l1 -6q-45 -46 -148 -58v-210q0 -203 -353 -250l65 39q78 38 77 161v274 l-56 16q-115 32 -166 33q-117 0 -123 -108q-2 -44 40 -84q50 -47 98 -44q-12 -14 -55 -14q-47 0 -72 23q-54 52 -54 114zM23 -191q-3 183 216 340q198 140 525 144q175 3 365 -31q218 -84 324 -162l-218 -207l-74 54q-120 86 -290 138q-165 50 -318 48q-138 -1 -251 -44 q-229 -86 -229 -280q0 -161 147 -242q117 -67 293 -67q156 0 308 48l135 42q-233 -143 -466 -140q-258 3 -393 162q-72 86 -74 197zM1393 1175z" />
<glyph unicode="&#xd1;" horiz-adv-x="1697" d="M-25 1285q8 107 67 202q63 100 156 145q67 31 132 31q278 0 568 -562q15 -30 431 -833v1168h-8q-49 0 -141 33t-142 33q-99 0 -105 -108q-2 -44 34 -83q43 -49 84 -46q-11 -14 -47 -14q-40 0 -62 24q-45 51 -45 113q0 129 72 211q75 84 204 84q51 0 147.5 -47t146.5 -47 q91 0 205 94q-58 -125 -141 -179l1 -6q-39 -49 -131 -59l-4 -1447l-121 4q-29 41 -158 267q-117 204 -167 313q-141 304 -311 571q-83 133 -145 201v-1115q87 17 172 18q151 2 310 -31q-23 -40 -73 -104q-68 -86 -91 -86h-5q-153 61 -320 61q-119 -2 -213 -45 q-195 -86 -195 -280q0 -161 124 -242q101 -66 250 -66q136 0 262 47l34 -37q-189 -63 -316 -61q-219 3 -334 163q-61 84 -62 196q-3 183 183 340q92 75 213 112v1176q-88 88 -211 88q-119 0 -209 -123zM513 1869q92 107 121 146q55 44 104 44q28 0 55 -14l71 -37l90 -57 l10 -6q61 -28 86 -31q32 -2 88.5 11.5t81.5 31.5l-49 -46q-114 -106 -198 -106q-55 0 -137 47l-86 48q-45 26 -92 26q-32 0 -73 -19z" />
<glyph unicode="&#xd2;" horiz-adv-x="1626" d="M49 766q0 107 32 222q68 249 274 451q87 86 191 126q30 12 258 76l-227 -113q-158 -79 -223 -246q-99 -259 -100 -546q0 -138 64 -350q84 -276 319 -357q107 -37 254 -37q144 23 218 80q189 147 241 434q33 181 33 283q0 75 -33 264q-116 342 -387 464l-61 27l209 119h35 q244 -177 335 -375q77 -166 77 -419q0 -244 -86 -449q-89 -218 -255 -341q-177 -132 -404 -132q-212 0 -387 106.5t-276 295t-101 417.5zM590 2130l62 -1q267 -6 319 -114l114 -248q-68 -10 -100 -10q-100 0 -124 51l-87 189q-12 25 -11 35q-20 37 -35 47q-57 42 -138 51z " />
<glyph unicode="&#xd3;" horiz-adv-x="1612" d="M42 766q0 107 32 222q69 249 275 451q86 86 191 126q31 12 258 76l-227 -113q-160 -79 -224 -246q-99 -259 -99 -546q0 -138 65 -350q83 -276 318 -357q107 -37 254 -37q144 23 218 80q189 147 240 434q33 181 33 283q0 75 -33 264q-116 342 -387 464l-59 27l209 119h34 q243 -177 335 -375q76 -166 76 -419q0 -244 -84 -449q-89 -218 -257 -341q-176 -132 -403 -132q-212 0 -386.5 106.5t-276.5 295t-102 417.5zM546 1771l116 248q51 108 319 114l62 1q-81 -9 -138 -50q-16 -11 -35 -48q1 -10 -11 -34l-87 -190q-24 -51 -124 -51 q-32 0 -102 10z" />
<glyph unicode="&#xd4;" horiz-adv-x="1626" d="M49 766q0 107 32 222q68 249 274 451q87 86 191 126q30 12 258 76l-227 -113q-158 -79 -223 -246q-99 -259 -100 -546q0 -138 64 -350q84 -276 319 -357q107 -37 254 -37q144 23 218 80q189 147 241 434q33 181 33 283q0 75 -33 264q-116 342 -387 464l-61 27l209 119h35 q244 -177 335 -375q77 -166 77 -419q0 -244 -86 -449q-89 -218 -255 -341q-177 -132 -404 -132q-212 0 -387 106.5t-276 295t-101 417.5zM603 1780l185 315l184 -1l182 -315l-77 -2l-150 261q-11 -14 -17 -27l-146 -232z" />
<glyph unicode="&#xd5;" horiz-adv-x="1612" d="M55 766q0 107 31 222q69 249 275 451q87 86 192 126q30 12 256 76l-226 -113q-158 -79 -224 -246q-99 -259 -99 -546q0 -138 64 -350q83 -276 320 -357q107 -37 254 -37q143 23 217 80q189 147 241 434q32 181 32 283q0 75 -32 264q-116 342 -388 464l-59 27l209 119h34 q244 -177 334 -375q78 -166 78 -419q0 -244 -85 -449q-89 -218 -257 -341q-176 -132 -403 -132q-212 0 -386.5 106.5t-276 295t-101.5 417.5zM498 1869q92 107 121 146q56 44 105 44q27 0 54 -14l71 -37l90 -57q6 -3 10 -6q61 -28 87 -31q31 -2 88 11.5t81 31.5l-49 -46 q-114 -106 -198 -106q-55 0 -137 47l-85 48q-45 26 -92 26q-33 0 -74 -19z" />
<glyph unicode="&#xd6;" horiz-adv-x="1633" d="M60 766q0 107 33 222q69 249 275 451q87 86 190 126q31 12 258 76l-226 -113q-160 -79 -225 -246q-99 -259 -99 -546q0 -138 65 -350q83 -276 318 -357q107 -37 255 -37q143 23 217 80q189 147 240 434q33 181 34 283q0 75 -34 264q-116 342 -387 464l-59 27l209 119h35 q243 -177 334 -375q76 -166 76 -419q0 -244 -84 -449q-89 -218 -256 -341q-176 -132 -403 -132q-212 0 -387 106.5t-277 295t-102 417.5zM578 1980l106 138l109 -142l-105 -138zM953 1980l107 138l108 -142l-105 -138z" />
<glyph unicode="&#xd7;" horiz-adv-x="824" d="M16 338l89 30q31 11 52 36l184 223l-169 200q-12 15 -15 22q-19 22 -33 31q-51 33 -105 47l3 15q106 -22 159 -40q98 -32 139 -81l91 -109l120 147q50 60 178 79l2 -15q-29 -6 -61 -31q-10 -8 -24 -23q-3 -6 -13 -20l-157 -190l206 -247q27 -32 137 -68l-5 -15l-167 28 q-70 12 -101 49l-140 167l-154 -187q-22 -27 -64 -35q-5 -1 -152 -13z" />
<glyph unicode="&#xd8;" horiz-adv-x="1687" d="M16 -111l57 28q64 30 124 109l96 128q-86 83 -145 194q-102 189 -103 418q0 107 33 222q68 249 274 451q86 86 191 126q30 12 258 76l-228 -113q-158 -79 -223 -246q-99 -259 -99 -546q0 -138 64 -350q22 -72 55 -132l821 1086q-97 115 -232 177l-59 27l209 119h34 q102 -74 177 -152q124 162 300 199l42 8q-57 -19 -131 -87q-19 -18 -62 -72q-11 -19 -35 -52l-51 -67q58 -73 95 -152q77 -167 76 -419q0 -244 -84 -449q-89 -218 -256 -341q-176 -132 -405 -132q-252 0 -446 148l-74 -100q-50 -66 -122 -87q-13 -4 -151 -19zM424 174 q150 -181 464 -182q144 23 218 80q189 147 240 434q34 181 34 283q0 75 -34 264q-40 117 -98 209z" />
<glyph unicode="&#xd9;" horiz-adv-x="1825" d="M-1 1383q0 129 72 210q75 84 204 84q50 0 146.5 -46t147.5 -46q45 0 97 23q26 16 56 31q25 16 52 38q-19 -39 -40 -71l-9 -29q-146 -114 -214 -327q-39 -122 -38 -237q2 -216 10 -326q13 -222 54 -289q174 -288 481 -288q13 0 21 -5q81 6 192 46l15 5q10 3 27 12 q5 2 11 1q49 14 97 20q52 45 52 140v893q0 107 65 184q-18 -3 -35 -4q-53 0 -154 38t-153 38q-135 0 -135 -133q0 -75 88 -154l48 -43q-167 53 -172 186q-3 69 42 147q98 168 270 168q65 0 180 -41q107 -38 159 -38q84 0 164 81q-55 -79 -138 -168q-27 -28 -42 -71 q-10 -27 -12 -92q4 -18 5 -62v-929q0 -81 -87 -126q-12 -5 -37 -17q94 -16 250 -81l-171 -172q-177 84 -312 83q-19 0 -47 -4q-63 -32 -104 -41l-99 -21q-10 -1 -84 -1q-176 0 -330 81q-176 93 -263 273q-31 66 -33 265l-2 287q-2 258 118 463q41 70 73 116q-28 -2 -61 -3 q-49 0 -142 33t-142 33q-99 0 -104 -109q-2 -43 33 -83q43 -47 84 -44q-11 -15 -47 -15q-41 0 -62 25q-45 51 -45 112zM683 2130l63 -1q267 -6 318 -114l115 -248q-69 -10 -101 -10q-100 0 -123 51l-88 189q-11 25 -11 35q-20 37 -35 47q-57 42 -138 51z" />
<glyph unicode="&#xda;" horiz-adv-x="1825" d="M-1 1383q0 129 72 210q75 84 204 84q50 0 146.5 -46t147.5 -46q45 0 97 23q26 16 56 31q25 16 52 38q-19 -39 -40 -71l-9 -29q-146 -114 -214 -327q-39 -122 -38 -237q2 -216 10 -326q13 -222 54 -289q174 -288 481 -288q13 0 21 -5q81 6 192 46l15 5q10 3 27 12 q5 2 11 1q49 14 97 20q52 45 52 140v893q0 107 65 184q-18 -3 -35 -4q-53 0 -154 38t-153 38q-135 0 -135 -133q0 -75 88 -154l48 -43q-167 53 -172 186q-3 69 42 147q98 168 270 168q65 0 180 -41q107 -38 159 -38q84 0 164 81q-55 -79 -138 -168q-27 -28 -42 -71 q-10 -27 -12 -92q4 -18 5 -62v-929q0 -81 -87 -126q-12 -5 -37 -17q94 -16 250 -81l-171 -172q-177 84 -312 83q-19 0 -47 -4q-63 -32 -104 -41l-99 -21q-10 -1 -84 -1q-176 0 -330 81q-176 93 -263 273q-31 66 -33 265l-2 287q-2 258 118 463q41 70 73 116q-28 -2 -61 -3 q-49 0 -142 33t-142 33q-99 0 -104 -109q-2 -43 33 -83q43 -47 84 -44q-11 -15 -47 -15q-41 0 -62 25q-45 51 -45 112zM695 1771l116 248q51 108 318 114l62 1q-81 -9 -138 -50q-15 -11 -34 -48q0 -10 -11 -34l-89 -190q-23 -51 -122 -51q-32 0 -102 10z" />
<glyph unicode="&#xdb;" horiz-adv-x="1825" d="M-1 1383q0 129 72 210q75 84 204 84q50 0 146.5 -46t147.5 -46q45 0 97 23q26 16 56 31q25 16 52 38q-19 -39 -40 -71l-9 -29q-146 -114 -214 -327q-39 -122 -38 -237q2 -216 10 -326q13 -222 54 -289q174 -288 481 -288q13 0 21 -5q81 6 192 46l15 5q10 3 27 12 q5 2 11 1q49 14 97 20q52 45 52 140v893q0 107 65 184q-18 -3 -35 -4q-53 0 -154 38t-153 38q-135 0 -135 -133q0 -75 88 -154l48 -43q-167 53 -172 186q-3 69 42 147q98 168 270 168q65 0 180 -41q107 -38 159 -38q84 0 164 81q-55 -79 -138 -168q-27 -28 -42 -71 q-10 -27 -12 -92q4 -18 5 -62v-929q0 -81 -87 -126q-12 -5 -37 -17q94 -16 250 -81l-171 -172q-177 84 -312 83q-19 0 -47 -4q-63 -32 -104 -41l-99 -21q-10 -1 -84 -1q-176 0 -330 81q-176 93 -263 273q-31 66 -33 265l-2 287q-2 258 118 463q41 70 73 116q-28 -2 -61 -3 q-49 0 -142 33t-142 33q-99 0 -104 -109q-2 -43 33 -83q43 -47 84 -44q-11 -15 -47 -15q-41 0 -62 25q-45 51 -45 112zM720 1780l185 315l185 -1l182 -315l-77 -2l-151 261q-10 -14 -17 -27l-145 -232z" />
<glyph unicode="&#xdc;" horiz-adv-x="1825" d="M-1 1383q0 129 72 210q75 84 204 84q50 0 146.5 -46t147.5 -46q45 0 97 23q26 16 56 31q25 16 52 38q-19 -39 -40 -71l-9 -29q-146 -114 -214 -327q-39 -122 -38 -237q2 -216 10 -326q13 -222 54 -289q174 -288 481 -288q13 0 21 -5q81 6 192 46l15 5q10 3 27 12 q5 2 11 1q49 14 97 20q52 45 52 140v893q0 107 65 184q-18 -3 -35 -4q-53 0 -154 38t-153 38q-135 0 -135 -133q0 -75 88 -154l48 -43q-167 53 -172 186q-3 69 42 147q98 168 270 168q65 0 180 -41q107 -38 159 -38q84 0 164 81q-55 -79 -138 -168q-27 -28 -42 -71 q-10 -27 -12 -92q4 -18 5 -62v-929q0 -81 -87 -126q-12 -5 -37 -17q94 -16 250 -81l-171 -172q-177 84 -312 83q-19 0 -47 -4q-63 -32 -104 -41l-99 -21q-10 -1 -84 -1q-176 0 -330 81q-176 93 -263 273q-31 66 -33 265l-2 287q-2 258 118 463q41 70 73 116q-28 -2 -61 -3 q-49 0 -142 33t-142 33q-99 0 -104 -109q-2 -43 33 -83q43 -47 84 -44q-11 -15 -47 -15q-41 0 -62 25q-45 51 -45 112zM720 1980l107 138l109 -142l-106 -138zM1095 1980l107 138l109 -142l-106 -138z" />
<glyph unicode="&#xdd;" horiz-adv-x="1654" d="M-49 1299q6 106 77 212q110 166 274 166q279 0 560 -565q15 -29 96 -203l282 536q-41 9 -97 30q-94 32 -141 32q-98 0 -103 -108q-2 -45 32 -84q42 -49 83 -45q-10 -14 -45 -14q-41 0 -61 23q-45 52 -46 114q0 130 71 211q74 85 203 85q50 0 145 -47t145 -47q90 0 203 94 q-58 -125 -139 -180v-6q-41 -52 -158 -60l-335 -643l1 -499h-2v-123q63 -6 127 -21q147 -70 216 -133l-145 -170l-49 45q-171 154 -407 152q-94 0 -167 -36q-153 -71 -153 -230q0 -130 98 -198q79 -54 195 -54q107 0 207 40l27 -32q-153 -51 -248 -50q-172 3 -263 134 q-49 69 -49 160q-1 150 144 279q113 99 290 115q-1 5 -1 12v111l-1 462q-95 192 -208 396q-54 97 -144 204q-79 133 -269 132q-117 0 -207 -123zM580 1771l115 248q50 108 318 114l63 1q-81 -9 -138 -50q-15 -11 -36 -48q1 -10 -11 -34l-87 -190q-24 -51 -124 -51 q-32 0 -100 10zM1409 1590q3 2 3 3h-1z" />
<glyph unicode="&#xde;" horiz-adv-x="880" d="M16 -294q0 213 215 347l-2 13l1 1203q0 99 -59 160l-65 -57l-37 42l223 201q112 -120 112 -241l2 -265l268 211l181 -133l-2 -649q-26 -23 -147 -96q-112 -69 -140 -102q-74 57 -162 112l2 -332h1q0 -103 -93 -144l-173 -68q-94 -59 -94 -202q0 -123 70 -194 q70 -74 192 -75q99 0 193 49l25 -39q-115 -50 -210 -50q-138 0 -220 86q-81 84 -81 223zM404 618l213 -146q24 21 62 38v572l-101 74l-174 -154v-384z" />
<glyph unicode="&#xdf;" horiz-adv-x="1607" d="M16 -441q0 216 200 343q179 115 410 115q133 0 298 -49q192 -56 280 -56q164 0 164 155q0 6 -1 19.5t-1 20.5v366q0 41 -34 136q-29 83 -48 118q-14 24 -85 73q-86 39 -201 92q83 19 117 45q41 39 83 77q153 134 153 315q0 119 -23 171q-32 79 -116 79q-34 0 -119 -85 q-106 -74 -212 -84q-65 -32 -86 -91q-13 -39 -12 -132v-677q0 -79 -64 -188q-84 -144 -215 -147q14 14 33 60q24 60 24 110q0 17 5 50.5t5 50.5v726q0 163 216 247q-55 12 -135 45q-138 58 -210 58q-79 0 -126.5 -51.5t-47.5 -131.5q0 -87 159 -218l17 -16q-95 30 -163 121 q-55 73 -60 133q13 184 193 277q83 42 175 42q109 0 296 -74q98 -39 140 -39q70 0 65 -1q71 68 113 86q24 10 80 13q189 9 268 -168q30 -67 30 -131q0 -152 -105 -277q-29 -33 -165 -93q-165 -71 -208 -97v-6q162 -25 321 -169q153 -137 153 -235v-213q0 -27 -1 -33 q1 -40 -1 -128l-2 -3q-2 -93 -43 -203q-37 -100 -73 -129q-58 -51 -200 -88q-140 0 -280 38q-28 8 -202 56q-258 71 -345 72q-148 0 -248 -59q-126 -73 -126 -217q0 -156 96 -180q-46 10 -57 14q-31 13 -45 34q-33 54 -34 111z" />
<glyph unicode="&#xe0;" horiz-adv-x="853" d="M47 798q101 24 378 174l250 -144v-578q9 -70 45 -124l71 58l38 -45l-236 -191q-49 54 -69 105q-11 28 -18 61l-22 -9q-39 -18 -255 -135l-176 131zM160 1428l62 -1q268 -5 319 -113l115 -248q-69 -10 -101 -10q-100 0 -124 51l-87 190q-12 25 -11 34q-20 37 -36 48 q-56 42 -137 49zM227 771l2 -555l135 -107q43 29 132 71v3l3 2v553l-142 97q-16 -10 -130 -64z" />
<glyph unicode="&#xe1;" horiz-adv-x="853" d="M47 798q101 24 378 174l250 -144v-578q9 -70 45 -124l71 58l38 -45l-236 -191q-49 54 -69 105q-11 28 -18 61l-22 -9q-39 -18 -255 -135l-176 131zM179 1070l114 247q51 109 319 114l63 2q-81 -8 -138 -50q-15 -11 -36 -47q1 -10 -11 -35l-87 -190q-24 -51 -124 -50 q-32 0 -100 9zM227 771l2 -555l135 -107q43 29 132 71v3l3 2v553l-142 97q-16 -10 -130 -64z" />
<glyph unicode="&#xe2;" horiz-adv-x="870" d="M47 798q101 24 378 174l250 -144v-578q9 -70 45 -124l71 58l38 -45l-236 -191q-49 54 -69 105q-11 28 -18 61l-22 -9q-39 -18 -255 -135l-176 131zM123 1079l186 316l185 -1l182 -316l-78 -1l-150 261q-11 -14 -18 -27l-144 -233zM227 771l2 -555l135 -107q43 29 132 71 v3l3 2v553l-142 97q-16 -10 -130 -64z" />
<glyph unicode="&#xe3;" horiz-adv-x="853" d="M47 798q101 24 378 174l250 -144v-578q9 -70 45 -124l71 58l38 -45l-236 -191q-49 54 -69 105q-11 28 -18 61l-22 -9q-39 -18 -255 -135l-176 131zM68 1168q92 107 121 146q56 43 105 43q28 0 54 -13l72 -37l90 -57q5 -4 8 -6q61 -29 88 -30q32 -2 88.5 11.5t81.5 31.5 l-49 -47q-115 -106 -199 -105q-55 0 -136 46l-86 49q-45 26 -93 26q-33 0 -73 -21zM227 771l2 -555l135 -107q43 29 132 71v3l3 2v553l-142 97q-16 -10 -130 -64z" />
<glyph unicode="&#xe4;" horiz-adv-x="853" d="M47 798q101 24 378 174l250 -144v-578q9 -70 45 -124l71 58l38 -45l-236 -191q-49 54 -69 105q-11 28 -18 61l-22 -9q-39 -18 -255 -135l-176 131zM99 1279l107 138l108 -142l-106 -138zM227 771l2 -555l135 -107q43 29 132 71v3l3 2v553l-142 97q-16 -10 -130 -64z M474 1279l107 138l108 -142l-105 -138z" />
</font>
</defs>
</svg>
