<?xml version="1.0" standalone="no"?>
<!DOCTYPE svg PUBLIC "-//W3C//DTD SVG 1.1//EN" "http://www.w3.org/Graphics/SVG/1.1/DTD/svg11.dtd" >
<svg xmlns="http://www.w3.org/2000/svg" xmlns:xlink="http://www.w3.org/1999/xlink" version="1.1">
<metadata></metadata>
<defs>
<font id="mm_jasmineregular" horiz-adv-x="0" >
<font-face units-per-em="2048" ascent="1638" descent="-410" />
<missing-glyph horiz-adv-x="533" />
<glyph unicode="&#x1039;&#x1000;" d="M-1890 -572q0 202 136.5 334.5t340.5 132.5q247 0 390 -200q142 200 391 200q202 0 339.5 -133.5t137.5 -333.5q0 -192 -138 -329t-331 -137q-101 0 -176 51q-86 58 -86 152q0 86 90 86q26 0 77.5 -58t100.5 -58q114 0 201.5 89t87.5 204q0 125 -90.5 208.5t-212.5 83.5 q-118 0 -210.5 -77.5t-92.5 -188.5v-54q-4 -8 -4 -34q-40 -267 -293 -370q-13 -4 -33 -4q-89 0 -89 89q0 56 58 78q186 72 186 243v52q0 111 -93 188.5t-210 77.5q-123 0 -214 -83.5t-91 -208.5q0 -214 208 -279q60 -17 60 -78q0 -90 -83 -91q-14 0 -31 7q-148 48 -237 167 t-89 274z" />
<glyph unicode="&#x1039;&#x1001;" d="M-1180 -459q0 4 67.5 56.5t76.5 64.5q90 129 150 178q141 111 295 112q201 0 339 -133t138 -334q0 -202 -136 -333.5t-341 -131.5q-97 0 -185 37q-187 51 -187 239q0 101 73.5 175t177.5 74q106 0 179.5 -72t73.5 -177q0 -34 -15 -78q187 79 187 267q0 126 -90 209.5 t-214 83.5q-79 0 -141 -38q-55 -17 -84 -54l-11 -15q-119 -148 -240 -148q-50 0 -113 18zM-791 -704q0 -40 68 -72h11q78 0 78 72q0 75 -78 75q-79 0 -79 -75z" />
<glyph unicode="&#x1039;&#x1002;" horiz-adv-x="5" d="M-1079 -557q0 201 137.5 334.5t340.5 133.5q205 0 341.5 -132.5t136.5 -335.5q0 -351 -281 -419q-23 -6 -38 -6q-69 0 -69 95q0 66 67 83q149 27 149 247q0 125 -91 209t-215 84q-123 0 -214.5 -84t-91.5 -209q0 -198 190 -271q59 -22 58 -79q0 -89 -84 -90q-15 0 -32 7 q-141 48 -222.5 167t-81.5 266z" />
<glyph unicode="&#x1039;&#x1003;" horiz-adv-x="5" d="M-2048 -96q13 25 30 38q105 79 232 79q125 0 231 -72q114 -79 114 -200q0 -85 -76 -145q-102 -64 -101 -170q0 -119 88.5 -201t211.5 -82q114 0 204 75t90 184v41q0 132 -122 213q-36 27 -36 68q0 89 82 89q23 0 52 -19q155 -108 190 -289q0 -361 302 -362q123 0 212 82 t89 201q0 110 -85.5 196t-200.5 86q-47 0 -98 -54t-74 -54q-91 0 -91 81q0 89 87 145q74 51 172 52q188 0 323 -132.5t135 -319.5q0 -191 -135 -320t-334 -129q-239 0 -382 189q-141 -189 -380 -189q-204 0 -336 127t-132 322q0 160 81 240q59 23 80 62q8 8 13 23q0 2 2 9 v10q0 75 -119 116q-86 29 -177 29q-78 0 -142 -19z" />
<glyph unicode="&#x1039;&#x1005;" horiz-adv-x="5" d="M-1061 -551q0 201 138 334t340 133q205 0 342 -132t137 -335q0 -198 -138 -331.5t-341 -133.5q-204 0 -341 131t-137 334zM-890 -551q0 -72 80 -73q77 1 77 73q0 78 -77 77q-80 0 -80 -77zM-754 -309q85 -18 141.5 -86t56.5 -156q0 -83 -57.5 -153t-140.5 -89 q83 -51 171 -51q124 0 215 85t91 208q0 125 -91 209t-215 84q-95 0 -171 -51z" />
<glyph unicode="&#x1039;&#x1006;" d="M-1894 -525q-8 17 142 121q85 127 147 178q135 112 286 113q237 0 379 -195q137 197 378 198q196 0 330.5 -134t134.5 -337q0 -197 -134 -330.5t-331 -133.5q-239 0 -378 196q-142 -196 -379 -196q-95 0 -181 36q-79 21 -130 87t-51 152q0 105 70.5 177t172.5 72 q104 0 175 -72t71 -177q0 -33 -15 -79q163 66 181 240v62q-12 111 -97.5 185t-195.5 74q-80 0 -136 -39q-38 -12 -164 -150q-62 -66 -162 -66q-50 0 -113 18zM-1514 -770q0 -40 68 -72q86 0 86 72q0 75 -78 75q-77 0 -76 -75zM-855 -547v-62q11 -111 96.5 -186.5 t196.5 -75.5q120 0 207 83.5t87 206.5q0 128 -86 210.5t-208 82.5q-113 0 -195.5 -71.5t-97.5 -187.5z" />
<glyph unicode="&#x1039;&#x1007;" d="M-1069 -578q0 196 134 326t330 130q203 0 335 -128.5t132 -327.5q6 -42 7 -52q0 -38 -4 -48q123 -91 127 -249q2 -86 -84 -86q-80 0 -87 81q-2 67 -41 103q-2 0 -12 -2h-9q-59 -40 -135 -40q-99 0 -173.5 71t-74.5 170q0 101 72.5 170.5t173.5 69.5q-82 99 -227 99 q-120 0 -208 -82t-88 -205q0 -101 63.5 -178t162.5 -96q64 -15 64 -82q0 -45 -30 -70.5t-75 -13.5q-159 39 -256 159.5t-97 280.5zM-454 -630q0 -71 78 -72q29 0 54 19q0 8 4 18q10 30 10 64q-23 41 -68 41q-78 0 -78 -70z" />
<glyph unicode="&#x1039;&#x1008;" horiz-adv-x="426" d="M-1066 -551q0 201 138 334t340 133q205 0 342 -132t137 -335q0 -198 -138 -331.5t-341 -133.5q-204 0 -341 131t-137 334zM-895 -551q0 -72 80 -73q77 1 77 73q0 78 -77 77q-80 0 -80 -77zM-759 -309q85 -18 141.5 -86t56.5 -156q0 -83 -57.5 -153t-140.5 -89 q83 -51 171 -51q124 0 214.5 85t90.5 208q0 125 -90.5 209t-214.5 84q-95 0 -171 -51zM-383 -978l81 110q62 -43 212 -43h114q85 0 85 89v1701q0 90 89 90q87 0 88 -90v-1701q0 -110 -75.5 -188t-186.5 -78h-114q-110 0 -174 27q-41 18 -119 83z" />
<glyph unicode="&#x1039;&#x100a;" d="M-1627 -242q64 74 153 120t220 53q79 0 148.5 -21t129.5 -60q50 -37 82 -81t41 -95q0 -4 0.5 -9t0.5 -8v-14q0 -50 63 -88.5t156 -38.5q42 0 82.5 9.5t69 27.5t47 41.5t18.5 48.5q0 23 -18.5 46.5t-47 43t-69 29.5t-82.5 10q-36 0 -76 -8.5t-78 -33.5l-129 124 q75 37 143.5 57t139.5 20q78 0 145.5 -21t126.5 -60q66 -43 97 -95.5t31 -111.5q0 -54 -36 -111t-92 -96q-59 -41 -129 -61.5t-143 -20.5q-77 0 -162 26.5t-146 78.5l-29 -22q-59 -40 -132 -61.5t-152 -21.5q-49 0 -91 5t-82 18v-93q0 -42 51.5 -76.5t122.5 -34.5h645 q36 0 69.5 12.5t58.5 33.5t40.5 47t15.5 59h189v-50q2 -121 -98.5 -188t-259.5 -67h-665q-160 0 -254 71t-94 186v258l114 81q55 -46 113.5 -73t124.5 -27q82 0 142 33t70 79v3q0 2 2 4t2 4v4v2q-4 50 -67 88.5t-149 38.5q-79 -4 -130 -27t-88 -57z" />
<glyph unicode="&#x1039;&#x100b;" horiz-adv-x="2" d="M-905 -397q0 142 123 226q103 70 237 70q155 0 272 -106q25 -15 29 -59q0 -61 -52 -61q-19 0 -42 15q-45 48 -145 74q-27 6 -62 6q-87 0 -153 -39q-89 -41 -90 -126q0 -83 83 -141q77 -46 155 -46q132 0 195 61q22 21 49 23q55 0 55 -50q0 -18 -20 -53 q-85 -103 -274 -103q-135 0 -238 77q-122 87 -122 232zM-841 -803q-16 87 33 111q20 0 60 -32q64 -56 201 -67l113 22l80 32l37 31l23 9q47 0 47 -50v-170h108q55 -12 55 -58q5 -50 -55 -57h-155q-58 0 -58 50v104l-89 -32l-101 -7q-59 -7 -147 18q-65 21 -133 77z" />
<glyph unicode="&#x1039;&#x100c;" d="M-1815 -437q0 160 100 273q48 49 116 76t153 24h30v-162h-21q-87 -4 -154 -67q-68 -67 -68 -157v-35q0 -46 18 -86.5t49.5 -69.5t73.5 -46t93 -17h436q-28 47 -41 102.5t-13 116.5q0 181 125 302h-2q14 15 29.5 28t34.5 26q125 70 238 70q179 0 302 -123 q126 -123 126 -303q0 -177 -128 -301h2q-41 -41 -103 -76l-115 122q64 29 103 70q82 77 82 185q0 106 -82 188q-78 78 -187 77q-105 0 -185 -77q-80 -78 -80 -188q0 -109 80 -185h-4q43 -39 109 -70l-116 -120h-623q-160 0 -269 103t-109 264v56z" />
<glyph unicode="&#x1039;&#x100d;" horiz-adv-x="4" d="M-864 -270q6 44 28 60q109 104 253 104q123 0 219 -68q114 -86 114 -228q0 -143 -110 -230q-97 -79 -223 -79q-175 0 -256 103q-17 35 -17 55q0 49 52 49q25 -4 45 -22q58 -61 182 -61q69 0 140 46q78 56 78 139q0 87 -81 128q-62 36 -143 36q-34 0 -59 -8 q-91 -21 -132 -69q-23 -17 -42 -17q-48 0 -48 62zM-852 -826q-15 87 31 113q19 0 56 -33q59 -56 184 -67l107 22l75 33l34 31l21 9q44 0 44 -51v-169h99q51 -12 51 -58q5 -53 -51 -60h-143q-53 0 -53 53v103l-83 -31l-94 -7q-55 -7 -137 18q-60 20 -124 77z" />
<glyph unicode="&#x1039;&#x100f;" horiz-adv-x="5" d="M-2277 -571q0 193 133.5 322t329.5 129q223 0 363 -172q87 137 205 137q130 0 206 -141q139 176 368 176q197 0 330 -128t133 -323q0 -185 -134 -318.5t-319 -133.5q-200 0 -253 169q-6 19 -6 30q0 81 88 80q25 0 74.5 -56t101.5 -56q112 0 195.5 85t83.5 200 q0 121 -87.5 202t-206.5 81q-123 0 -209 -81.5t-86 -201.5v-27q0 -22 -4 -41q-58 -384 -275 -384q-128 0 -208 136q-67 123 -67 259v78q0 112 -87.5 187t-205.5 75q-120 0 -208.5 -81.5t-88.5 -201.5q0 -112 85.5 -198.5t197.5 -86.5q46 0 96.5 56t76.5 56q87 0 87 -83 q0 -88 -81 -142t-173 -54q-188 0 -321.5 132.5t-133.5 319.5zM-1354 -595q0 -67 25 -149q37 -112 83 -112q54 0 81 115q26 90 27 152q0 62 -27 151q-27 117 -81 117q-51 0 -85 -119q-15 -42 -19 -106v-25q0 -18 -4 -24z" />
<glyph unicode="&#x1039;&#x1010;" horiz-adv-x="95" d="M-1488 -534q0 191 127 318t315 127q228 0 361 -188q130 188 362 188q189 0 315.5 -126t126.5 -319q0 -181 -130 -311t-305 -130q-93 0 -164 48q-79 55 -79 147q0 80 79 79q27 0 74 -55.5t96 -55.5q108 0 187.5 84t79.5 194q0 120 -83.5 199.5t-196.5 79.5 q-108 0 -194 -73t-86 -180v-68q-5 -7 -5 -16q-18 -167 -145.5 -275t-292.5 -108q-190 0 -316 124.5t-126 316.5zM-1330 -534q0 -118 84.5 -198t199.5 -80q108 0 193.5 73.5t85.5 182.5v48q0 107 -85.5 180t-193.5 73q-114 0 -199 -79.5t-85 -199.5z" />
<glyph unicode="&#x1039;&#x1011;" horiz-adv-x="107" d="M-1510 -536q0 193 127 321t314 128q234 0 360 -190q130 190 360 190q189 0 315 -127t126 -322q0 -189 -127 -316.5t-314 -127.5q-228 0 -360 188q-132 -188 -360 -188q-189 0 -315 125.5t-126 318.5zM-1352 -536q0 -118 84 -199t199 -81q114 0 198 81t84 199 q0 121 -84 201.5t-198 80.5t-198.5 -80.5t-84.5 -201.5zM-628 -536q0 -120 80.5 -200t198.5 -80q113 0 197 81t84 199q0 121 -83.5 201.5t-197.5 80.5q-117 0 -198 -80.5t-81 -201.5z" />
<glyph unicode="&#x1039;&#x1012;" horiz-adv-x="5" d="M-949 -728q0 81 86 81q46 0 70 -46q82 -156 257 -157q212 0 234 105q0 111 -170 105q-88 -4 -88 83q0 86 84 89q96 4 118 10q56 22 51 88q-49 106 -229 106q-69 0 -141 -33q-86 -39 -93 -99l-2 4q28 -36 28 -66q0 -72 -92 -72q-113 0 -100 150q4 62 40 114 q122 176 360 177q132 0 234 -56q120 -64 156 -177l2 -18q4 -19 4 -52q0 -101 -63 -167q69 -70 65 -194q-33 -268 -398 -268q-273 0 -402 249q-12 19 -11 44z" />
<glyph unicode="&#x1039;&#x1013;" horiz-adv-x="5" d="M-1053 -566q0 193 136 324t334 131q203 0 337.5 -130t134.5 -325q0 -198 -135.5 -328t-336.5 -130q-196 0 -333 131t-137 327zM-884 -566q0 -68 33 -127q21 88 98.5 147.5t169.5 59.5q97 0 173 -58.5t95 -148.5q35 59 35 127q0 120 -90 203t-213 83q-121 0 -211 -83 t-90 -203zM-686 -756q0 -101 103 -101q42 0 73.5 30.5t31.5 70.5q0 97 -105 96q-103 0 -103 -96zM451 179h16q7 -5 16 -6q13 0 17 6h17q-32 -7 -34 -8q-6 0 -32 8z" />
<glyph unicode="&#x1039;&#x1014;" d="M-827 -720q0 90 64.5 151.5t154.5 61.5q89 0 147.5 -61.5t68.5 -151.5q6 -35 36 -77q111 12 111 69q0 72 -147 168l-218 143q-7 3 -24 17q-54 54 -54 128q0 173 186 175q15 0 29 -2q150 -29 163 -165q7 -80 -75 -79q-28 0 -64.5 45.5t-54.5 52.5q-26 -6 -32 -13 q-7 -27 2 -46q137 -80 266 -178q162 -125 169 -198q5 -47 6 -58q0 -95 -109 -164q26 -18 85 -18q111 0 150 45q-60 -141 -221 -141q-139 0 -194 70q-19 0 -191 -7q-167 -5 -237 145q-17 20 -17 88zM-676 -720q0 -63 68 -63l97 -15q-7 15 -34 100q-7 43 -63 43q-68 0 -68 -65 z" />
<glyph unicode="&#x1039;&#x1015;" horiz-adv-x="5" d="M-1033 -510q0 257 181 381q26 17 51 17q83 0 83 -86q0 -40 -37 -67q-113 -76 -114 -245q0 -118 88 -198.5t207 -80.5q118 0 206 80.5t88 198.5q0 203 -111 237q-37 15 -82 -14.5t-57 -31.5q-36 0 -63 26t-27 60q0 28 23 56q70 72 179 72q173 0 258 -187q46 -97 46 -218 q0 -189 -133 -315.5t-327 -126.5q-197 0 -328 124t-131 318z" />
<glyph unicode="&#x1039;&#x1016;" horiz-adv-x="5" d="M-1046 -506q0 258 184 382q27 16 50 16q84 0 84 -85q0 -40 -37 -67q-114 -75 -114 -246q0 -117 88 -197t207 -80q112 0 198.5 72.5t94.5 181.5q-64 -41 -139 -41q-99 0 -170 68.5t-71 166.5q0 96 75 165.5t176 69.5q162 0 247 -170q52 -109 52 -236q0 -188 -132.5 -314 t-330.5 -126q-197 0 -329.5 124t-132.5 316zM-504 -335q0 -71 74 -71q77 0 77 71q0 68 -77 68q-19 0 -42 -13l-16 -18q-16 -20 -16 -37z" />
<glyph unicode="&#x1039;&#x1017;" d="M-1066 -518q0 249 221 370q24 26 68 26q37 0 64.5 -31.5t19.5 -68.5q23 -75 105 -74q93 0 106 81q-4 8 2 32q14 61 84 61q43 0 64 -26q223 -127 223 -370q0 -188 -138 -313.5t-341 -125.5q-204 0 -341 123.5t-137 315.5zM-895 -518q0 -118 92 -197.5t215 -79.5 q124 0 214.5 79.5t90.5 197.5q0 92 -70 176q-87 -117 -235 -117q-150 0 -235 117q-71 -72 -72 -176z" />
<glyph unicode="&#x1039;&#x1018;" horiz-adv-x="89" d="M-1558 -740q0 81 89 80q47 0 70 -45q84 -156 263 -156q121 0 209 84.5t88 208.5q0 125 -88.5 208.5t-208.5 83.5q-76 0 -144 -29q-86 -39 -96 -105q18 -23 18 -53q0 -89 -81 -89q-47 0 -78 47q-26 40 -26 91q0 77 42 136q121 177 365 177q246 0 379 -199q139 200 381 199 q202 0 333.5 -132.5t131.5 -334.5q0 -190 -135.5 -327t-318.5 -137q-97 0 -173 49q-85 58 -85 154q0 84 85 84q27 0 77 -58t100 -58q116 0 199 88t83 205q0 125 -87.5 208.5t-209.5 83.5q-120 0 -207.5 -83.5t-87.5 -208.5q0 -198 -134.5 -331t-330.5 -133q-277 0 -409 247 q-13 20 -13 45z" />
<glyph unicode="&#x1039;&#x1019;" horiz-adv-x="5" d="M-1046 -563q0 262 184 387q27 17 48 16q86 0 86 -86q0 -41 -37 -68q-112 -74 -112 -249q0 -60 27 -119q23 92 95.5 151.5t169.5 59.5t170.5 -58t94.5 -153q29 55 29 119q0 205 -108 241q-37 15 -82.5 -15t-58.5 -32q-34 0 -59.5 26.5t-25.5 57.5q0 33 21 60q70 74 179 74 q175 0 258 -189q41 -103 41 -223q0 -195 -130 -320.5t-327 -125.5q-194 0 -328.5 125.5t-134.5 320.5zM-688 -739q0 -43 29.5 -74t73.5 -31q45 0 75 31t30 74t-30 74t-75 31q-44 0 -73.5 -31t-29.5 -74z" />
<glyph unicode="&#x1039;&#x101c;" horiz-adv-x="5" d="M-1809 -552q0 190 133 318t330 128q195 0 328.5 -128t133.5 -321v-21q0 -112 87 -188.5t204 -76.5q120 0 207 80.5t87 199.5q0 109 -84 194.5t-195 85.5q-47 0 -97 -55t-76 -55q-91 0 -91 80q0 11 6 27q51 169 253 170q186 0 319 -132t133 -315q0 -190 -133 -317 t-329 -127q-197 0 -330 125t-133 319q0 15 5 19q-4 117 -90.5 192.5t-204.5 75.5q-120 0 -208.5 -80t-88.5 -198q0 -49 24 -111q64 141 223 141q100 0 172.5 -67t72.5 -168q0 -92 -62 -158.5t-155 -74.5q-25 -6 -34 -5h-15q-173 21 -282.5 145.5t-109.5 297.5zM-1462 -757 q0 -74 73 -74q78 0 78 74q0 69 -74 69q-77 0 -77 -69z" />
<glyph unicode="&#x1039;&#x101e;" d="M-1718 -281q39 66 74 106q129 126 308 126t310 -126q126 -130 126 -308q0 -109 76 -192v2q85 -81 194 -81q105 0 189 81v-2q79 80 79 192q0 111 -79 191q-84 79 -189 79q-95 0 -176 -61l-88 135q114 89 264 90q184 0 307 -128v2q127 -130 127 -308q0 -181 -127 -308v1 q-123 -127 -307 -127q-175 0 -308 126q-15 13 -25.5 26.5t-19.5 29.5l-46 -56q-133 -126 -307 -126q-91 0 -167 32.5t-141 91.5q-53 49 -74 107l127 122q29 -72 67 -111v2q84 -81 188 -81q105 0 190 81v-2q38 41 58.5 88t20.5 104q0 107 -79 191q-85 79 -190 79 q-104 0 -188 -79q-40 -40 -67 -108z" />
<glyph unicode="&#x1039;&#x1021;" horiz-adv-x="5" d="M-1633 -724q0 78 86 78q46 0 70 -45q82 -148 259 -148q209 0 232 100q0 105 -169 99q-88 -4 -89 79q0 82 85 84q48 4 78 6q99 15 91 89q-48 100 -228 99q-70 0 -143 -31q-86 -38 -93 -93q27 -30 28 -59q0 -69 -92 -70q-113 0 -100 143q4 57 38 108q118 167 362 167 q224 0 336 -129q138 129 326 129q198 0 329 -125.5t131 -317.5q0 -276 -261 -398q-59 -42 -138 -42h-14q-40 0 -55 11q-172 50 -172 223q0 101 69.5 168.5t171.5 67.5q150 0 215 -124q19 44 18 94q0 119 -88 198.5t-206 79.5q-202 0 -274 -179l-4 -15q-12 -46 -52 -86 q76 -71 65 -185q-26 -255 -397 -255q-273 0 -403 236q-13 19 -12 43zM-570 -767q0 -57 61 -70q88 20 88 70q0 71 -74 72q-76 0 -75 -72z" />
<glyph unicode="&#x102b;&#x103a;" horiz-adv-x="760" d="M-402 1566q0 186 116 313t301 127q214 0 347 -164q132 170 349 170q179 1 673 -98q-315 -39 -382 -41t-184 -1q-85 -29 -107 -30q-105 -22 -179 -96t-74 -180v-1469q0 -99 -96 -99q-97 0 -96 99v1469q0 106 -72.5 178.5t-178.5 72.5q-105 0 -176 -72.5t-71 -178.5 q0 -113 83 -185q35 -30 35 -65q0 -40 -14 -55t-32 -15q-30 0 -62 28q-160 104 -180 292z" />
<glyph unicode="&#x103a;&#x103a;" horiz-adv-x="60" d="M-1342 1315q287 473 526 656q188 107 436 107q205 0 340 -79v1q245 -155 266 -458l-165 -18q-2 390 -525 417q-168 7 -294 -73q-54 -34 -584 -553zM-881 1407q0 107 105 235v12q-19 -33 -15 -32l25 22q119 103 295 103q162 0 290 -75q149 -87 226 -210l304 -395l-417 299 l-53 61q-83 36 -151 93q-77 63 -183 67q-43 2 -117 -20q-51 -14 -88 -52t-37 -90q0 -32 18 -69t46 -51q84 -46 192 -48l-4 -158q-151 1 -283 76q-153 90 -153 232z" />
<glyph unicode="&#x104e;&#x25cc;&#xe390;" horiz-adv-x="1193" d="M121 472l3 54q12 192 152 321.5t336 129.5q254 0 383 -182q43 -60 43 -139q0 -51 -27 -93q-33 -47 -82 -47q-86 0 -86 91q0 30 19 54q-9 67 -100 108q-71 28 -150 28q-128 0 -220.5 -85t-92.5 -214q0 -125 92.5 -211t220.5 -86q187 0 274 159q25 45 75 45q91 0 91 -85 q0 -13 -2 -22v-1121q0 -26 -4 -52h-181q11 20 11 52v921q-128 -75 -264 -75q-244 0 -400 200q-98 150 -91 249zM249 1335q0 117 89 194q-89 81 -89 190q0 116 91 189t205 60q322 -47 577 -291q158 -131 159 -148q-124 121 -416 235q-231 85 -326 75q-56 0 -100.5 -32.5 t-44.5 -87.5q0 -49 46.5 -82.5t98.5 -33.5q103 0 190 -64q29 -22 29 -56q0 -81 -74 -81q-18 0 -39 15q-50 38 -106 38t-100.5 -33t-44.5 -87q0 -89 111 -119q40 -11 80 -10q89 0 124 80q54 0 53 -80q0 -50 -38 -77q-69 -45 -179 -45q-118 0 -207 69t-89 182z" />
<glyph unicode="&#x1039;&#x1051;" horiz-adv-x="6" d="M-1024 -502q0 67 13 124q13 58 41 102q21 36 60 85q50 43 110 90l91 -122l-83 -73q-69 -84 -69 -211q0 -61 17 -110q25 -56 66 -96q88 -82 198 -82q113 0 203 82q39 39 63 91q23 51 23 115q0 91 -29 149q-36 64 -115 133l85 124q110 -77 173 -175q51 -82 51 -226 q0 -86 -32 -172q-38 -80 -100 -139q-131 -119 -316 -119q-186 0 -320 119q-34 29 -55 65q-21 35 -43 73q-32 86 -32 173zM-778 -503q0 42 16 74q30 64 110 97q19 5 33 7q23 4 45 5q85 0 139 -50q56 -65 56 -133q0 -67 -56 -128q-58 -47 -139 -47q-90 0 -143 47 q-61 61 -61 128zM-661 -503q0 -71 90 -71q84 0 84 71q0 80 -84 80q-90 0 -90 -80z" />
<glyph unicode="&#x1039;&#x1050;" d="M-1030 -543q0 91 33 174q19 38 41 74q24 38 56 66q138 120 326 120q185 0 318 -120q63 -62 101 -142q33 -83 32 -172q0 -142 -50 -226q-62 -97 -175 -174l-88 122q80 69 118 134q28 61 28 152q0 61 -21 112q-24 53 -66 92q-89 85 -203 85q-112 0 -201 -85 q-41 -42 -67 -94q-18 -54 -17 -110q0 -132 70 -215l84 -73l-93 -120q-59 44 -108 91q-44 47 -66 83q-25 47 -38 102q-15 56 -14 124zM-781 -542q0 66 61 128q54 48 146 49q82 0 138 -49q57 -62 57 -128q0 -69 -57 -131q-54 -48 -138 -49q-24 0 -45 6q-18 0 -36 7 q-80 30 -110 94q-17 30 -16 73zM-662 -542q0 -79 90 -79q85 0 85 79q0 74 -85 74q-89 0 -90 -74z" />
<glyph unicode="&#x1039;&#x105a;" d="M-890 -296q0 49 21 91.5t59 77t89 53.5t112 19t115 -18t94 -50t62 -76.5t22 -93.5q0 -30 -12.5 -63t-29.5 -69l-66 -106q-44 -67 -44 -116q0 -29 21 -38l-10 2q2 0 6 -2.5t6 -2.5q13 -2 65 -36l-94 -107q-88 11 -124 67q-30 51 -30 120q0 80 51 169l15 27l-2 -3l69 119 q5 8 9.5 19t4.5 19q0 39 -35.5 66t-89.5 27t-88 -28t-34 -67l6 -14q6 -20 7.5 -42t1.5 -41l-146 -13q-30 69 -31 110z" />
<glyph unicode="&#x1039;&#x105b;" horiz-adv-x="439" d="M-1069 -578q0 196 134 326t330 130q203 0 335 -128.5t132 -327.5q6 -42 7 -52q0 -38 -4 -48q123 -91 127 -249q2 -86 -84 -86q-80 0 -87 81q-2 67 -41 103q-2 0 -12 -2h-9q-59 -40 -135 -40q-99 0 -173.5 71t-74.5 170q0 101 72.5 170.5t173.5 69.5q-82 99 -227 99 q-120 0 -208 -82t-88 -205q0 -101 63.5 -178t162.5 -96q64 -15 64 -82q0 -45 -30 -70.5t-75 -13.5q-159 39 -256 159.5t-97 280.5zM-454 -630q0 -71 78 -72q29 0 54 19q0 8 4 18q10 30 10 64q-23 41 -68 41q-78 0 -78 -70zM-166 -897q34 -3 76 -3h114q85 0 85 88v1703 q0 89 89 89q87 0 88 -89v-1703q0 -110 -75.5 -188t-186.5 -78h-92z" />
<glyph unicode="&#x1039;&#x105c;" d="M-1003 -552q0 89 35.5 170.5t96.5 143t144 97t177 35.5q96 0 179 -35.5t144.5 -97t97.5 -143t36 -170.5q0 -93 -36 -177t-97.5 -144t-143 -95t-173.5 -35q-97 0 -180 35t-146 95t-98.5 143.5t-35.5 177.5zM-851 -550q0 -65 25 -119t66 -94t93.5 -64.5t116.5 -24.5 q63 0 118.5 24.5t96 64.5t65 94t24.5 119q0 59 -24.5 112.5t-65 94.5t-95 65t-114.5 24q-64 0 -119 -24t-96 -65t-66 -95t-25 -112zM-731 -557q0 70 53.5 123.5t130.5 53.5q72 0 128 -53.5t56 -123.5q0 -75 -56 -129t-128 -54q-77 0 -130.5 54.5t-53.5 128.5zM-627 -552 q0 -36 24 -59t58 -23q30 0 55.5 23t25.5 59q0 29 -25.5 53t-55.5 24q-34 0 -58 -24t-24 -53z" />
<glyph unicode="&#x1062;&#x103a;" horiz-adv-x="854" d="M-101 1540q0 283 263 407q194 96 508 96q505 -48 793 -200q548 -284 775 -616q8 -15 8 -30q-235 257 -644 486q-163 86 -434 150q-243 39 -456 43q-641 5 -641 -336q0 -299 282 -334q95 -14 159.5 47.5t55.5 160.5q8 2 21 2q39 0 73 -40.5t34 -81.5q0 -12 -6 -29 q-66 -191 -349 -192q-197 0 -319.5 132t-122.5 335zM44 804v155h420v-943h-183v788h-237z" />
<glyph unicode="&#x1039;&#x1075;" horiz-adv-x="6" d="M-1244 -950q67 -19 135 -19q87 0 169 28q109 34 109 104q0 34 -89 94q-77 74 -77 219q0 173 128 290t313 117q183 0 311 -117t128 -290q1 -226 -184 -334q-28 -17 -48 -17q-79 0 -78 81q152 161 152 270t-83.5 177.5t-197.5 68.5q-117 0 -199.5 -68.5t-82.5 -177.5 q0 -58 83 -150t83 -137q0 -109 -107 -180q-100 -66 -216 -67q-62 0 -140 30q-90 30 -109 78z" />
<glyph unicode="&#x1039;&#x1076;" horiz-adv-x="5" d="M-1024 -687q0 152 193 214h77q121 0 201 -152q12 -37 11 -51v-57q0 -48 -48 -86l1 -5q193 0 288 182q12 22 11 62v82q-32 122 -187 197q-50 14 -113 43q0 -77 -117 -152q-45 -19 -117 -19q-188 33 -188 165v39q0 107 23 107q102 -5 130 -5l5 -11q-12 -53 -11 -84v-29 q0 -51 71 -57h5q71 0 72 136q-7 22 -8 39q40 16 123 24q193 0 375 -154q106 -138 106 -292l-9 -6q9 -294 -318 -424q-68 -22 -154 -22h-10q-186 0 -336 130q-34 0 -76 140v46zM-860 -690v-23q18 -71 79 -72h10q78 15 78 77v18q-20 71 -74 71h-14q-61 0 -79 -71z" />
<glyph unicode="&#x1039;&#x1078;" horiz-adv-x="2" d="M-1598 -517q0 177 121 301q121 122 293 121q117 0 217 -73q61 -48 109 -110q46 69 113 114q93 69 226 69q123 0 230 -71q107 -76 151 -187q29 -78 30 -164q0 -83 -30 -156q-32 -75 -88 -140q-112 -116 -293 -121q-187 0 -313 154q-49 59 -79 131q-11 23 -16 54 q-4 32 -5 60q0 44 -24 97q-96 180 -228 180q-100 0 -170 -77q-72 -78 -72 -182q0 -96 72 -177q81 -77 170 -77q43 0 109 35l60 -148q-75 -49 -169 -50q-179 5 -293 121q-122 131 -121 296zM-756 -521q0 -96 63 -171q68 -79 174 -79q90 0 171 77q69 68 70 177 q-4 134 -106 215q-63 44 -135 44q-102 0 -174 -81q-63 -74 -63 -182z" />
<glyph unicode="&#x1039;&#x107c;" horiz-adv-x="13" d="M-1571 -474q20 28 124 111q157 261 377 261q188 0 315 -151l-5 -10h33q0 46 163 130q33 23 158 31q211 0 377 -267q88 -100 118 -99v-10q-80 -15 -95 -15q-118 0 -233 171q-110 60 -167 59q-195 0 -264 -220q15 0 15 -10h-6l6 -11q-15 -18 -15 -35v-9q21 -107 71 -156 q67 -50 82 -50v5q-9 38 -9 71q0 149 176 210h48q146 0 205 -171l6 -59q0 -154 -167 -217q-86 -24 -154 -24q-194 0 -325 150h-9q-128 -150 -334 -150q-142 0 -253 90q-58 62 -58 160q0 152 163 215q18 5 39 6h33q141 0 195 -175q5 -27 5 -51q0 -8 -10 -60h5q92 46 124 121 l19 65q-4 8 -4 20v5h9q-9 53 -9 65h9v4q-75 211 -267 211q-69 0 -176 -75q-105 -154 -220 -155q-16 0 -95 15v4zM-1227 -678v-6q0 -43 53 -70h15q62 0 61 60q-7 66 -52 66h-28q-42 0 -49 -50zM-374 -689q0 -65 62 -65h15q53 28 52 60v16q-7 50 -48 50h-42q-39 -22 -39 -61z " />
<glyph unicode="&#x1039;&#x107d;" horiz-adv-x="2" d="M-1860 -71q0 42 153 92q53 13 80 13q183 0 290 -169q16 -42 20 -94q0 -42 -109 -177q-51 -67 -52 -128q0 -184 205 -258q35 -4 57 -4h19q159 0 242 186q0 13 9 34q0 5 -4 42q0 277 244 403q82 39 177 39q251 0 434 -345q16 -16 29 -37v-4q-26 -8 -36 -8h-41 q-92 0 -206 165q-107 64 -168 64h-31q-145 0 -230 -167q-16 -47 -16 -84v-38q0 -147 156 -225v4q-7 32 -7 60v25q0 134 157 204q32 8 68 9q144 0 209 -165q7 -30 7 -52v-17q0 -162 -145 -216q-92 -38 -188 -38q-202 0 -337 169q-133 -169 -331 -169h-4q-290 0 -405 301 q-16 82 -16 131q0 194 131 276q25 30 25 45v14q0 95 -221 127h-57q-88 -8 -108 -8zM-488 -690v-25q0 -45 55 -52h13q64 20 64 64v9q0 60 -56 60h-25q-51 -5 -51 -56z" />
<glyph unicode="&#x1081;&#x102f;" horiz-adv-x="1260" d="M-697 -602q145 -274 675 -367q174 -13 205 62l270 873q34 141 220 146l-302 -1004q-72 -306 -429 -219q-53 14 -117 37q-308 83 -514 446q-8 19 -8 26zM143.5 669q56.5 188 241.5 285q185 100 374.5 36t287.5 -247q74 -143 39 -328q-17 -78 -73 -197q-13 -20 -26 -35 q-7 -8 -16 -16q-6 -5 -13 -9q13 11 27 2q-50 18 -52 73q-30 54 -21 124q-15 24 -12 32l10 16q21 45 8 103q6 77 -32 151q-60 113 -180 155.5t-238 -18.5q-173 -91 -157 -302q37 37 67 53q97 50 198.5 16.5t152.5 -129.5q50 -97 17 -200.5t-125 -151.5q-173 -90 -312 56 q-75 64 -122 154q-100 189 -43.5 377zM433 277l6 -10q62 -46 99 -26q69 36 30 109q-37 69 -105 33q-67 -35 -30 -106zM788 -741l5 696q179 -50 178 -201l-4 -556q13 -84 186 -102q521 -8 742 194q-2 -8 -15 -26q-286 -313 -604 -323q-68 -7 -123 -7q-365 0 -365 325z" />
<glyph unicode="&#x1081;&#x1030;" horiz-adv-x="1272" d="M-697 -602q145 -274 675 -367q174 -13 205 62l270 873q34 141 220 146l-302 -1004q-72 -306 -429 -219q-53 14 -117 37q-308 83 -514 446q-8 19 -8 26zM143.5 669q56.5 188 241.5 285q185 100 374.5 36t287.5 -247q74 -143 39 -328q-17 -78 -73 -197q-13 -20 -26 -35 q-7 -8 -16 -16q-6 -5 -13 -9q13 11 27 2q-50 18 -52 73q-30 54 -21 124q-15 24 -12 32l10 16q21 45 8 103q6 77 -32 151q-60 113 -180 155.5t-238 -18.5q-173 -91 -157 -302q37 37 67 53q97 50 198.5 16.5t152.5 -129.5q50 -97 17 -200.5t-125 -151.5q-173 -90 -312 56 q-75 64 -122 154q-100 189 -43.5 377zM433 277l6 -10q62 -46 99 -26q69 36 30 109q-37 69 -105 33q-67 -35 -30 -106zM686 -55q186 -47 186 -215l-2 -481q-2 -243 83 -284q-267 32 -267 286v694zM1019 -741l5 696q179 -50 179 -201l-5 -556q13 -84 186 -102q521 -8 742 194 q-2 -8 -15 -26q-286 -313 -604 -323q-68 -7 -123 -7q-365 0 -365 325z" />
<glyph unicode="&#x1081;&#x103d;" horiz-adv-x="1327" d="M-794 -602q144 -274 674 -367q174 -13 206 62l270 873q34 141 220 146l-302 -1004q-74 -306 -428 -219q-54 14 -120 37q-307 83 -512 446q-8 19 -8 26zM143.5 669q56.5 188 241.5 285q185 100 374.5 36t287.5 -247q74 -143 39 -328q-17 -78 -73 -197q-13 -20 -26 -35 q-7 -8 -16 -16q-6 -5 -13 -9q13 11 27 2q-50 18 -52 73q-30 54 -21 124q-15 24 -12 32l10 16q21 45 8 103q6 77 -32 151q-60 113 -180 155.5t-238 -18.5q-173 -91 -157 -302q37 37 67 53q97 50 198.5 16.5t152.5 -129.5q50 -97 17 -200.5t-125 -151.5q-173 -90 -312 56 q-75 64 -122 154q-100 189 -43.5 377zM372 -570q0 205 137 342t334 137q202 0 338 -136t136 -343q0 -211 -136 -347t-338 -136q-200 0 -335.5 136t-135.5 347zM433 277l6 -10q62 -46 99 -26q69 36 30 109q-37 69 -105 33q-67 -35 -30 -106zM545 -568q0 -130 89.5 -218 t212.5 -88q124 0 212 88t88 218q0 127 -88.5 215t-211.5 88t-212.5 -88t-89.5 -215z" />
<glyph unicode="&#x1081;&#x1082;" horiz-adv-x="1251" d="M-697 -602q145 -274 675 -367q174 -13 205 62l270 873q34 141 220 146l-302 -1004q-72 -306 -429 -219q-53 14 -117 37q-308 83 -514 446q-8 19 -8 26zM143.5 669q56.5 188 241.5 285q185 100 374.5 36t287.5 -247q74 -143 39 -328q-17 -78 -73 -197q-13 -20 -26 -35 q-7 -8 -16 -16q-6 -5 -13 -9q13 11 27 2q-50 18 -52 73q-30 54 -21 124q-15 24 -12 32l10 16q21 45 8 103q6 77 -32 151q-60 113 -180 155.5t-238 -18.5q-173 -91 -157 -302q37 37 67 53q97 50 198.5 16.5t152.5 -129.5q50 -97 17 -200.5t-125 -151.5q-173 -90 -312 56 q-75 64 -122 154q-100 189 -43.5 377zM433 277l6 -10q62 -46 99 -26q69 36 30 109q-37 69 -105 33q-67 -35 -30 -106zM573 -486q0 93 40 175q43 80 102 126q133 102 310 102v-150q-106 0 -188 -60q-96 -76 -96 -193q0 -102 80 -174q65 -63 152 -63q119 0 215 88l179 169 q-173 -410 -394 -410q-151 0 -276 109q-124 107 -124 281z" />
<glyph unicode="&#x100b;&#x1039;&#x100b;" horiz-adv-x="1246" d="M108 493q0 208 133.5 347t339.5 139q277 0 409 -193q18 -28 18 -53q0 -88 -92 -88q-42 0 -72 38q-80 121 -263 120q-125 0 -211 -92.5t-86 -217.5t86 -218t211 -93q216 0 255 116q16 38 -15.5 86.5t-33.5 61.5q0 37 27.5 65.5t63.5 28.5q32 0 60 -24q79 -74 79 -189 q0 -183 -201 -272q-106 -48 -235 -48q-202 0 -337.5 140.5t-135.5 345.5zM150 74q222 -160 440 -160q190 0 472 175v-160l-184 -135v17q-130 -57 -288 -57q-226 0 -440 133v187zM287 -469q0 169 299 169q143 0 208 -39l-80 -94q-63 28 -128 29q-141 0 -141 -65 q0 -61 124 -61q108 0 217 38v-103q-104 -35 -217 -35q-280 0 -282 161zM291 -634q135 -46 265 -47q126 0 230 45v-131q0 -43 41 -43h64v-84h-64q-168 0 -168 93v19q-38 -8 -101 -9q-151 0 -267 39v118zM887 -696l5 558q56 97 171 113l-10 -729q13 -78 174 -95 q484 -7 690 181q-2 -7 -14 -23q-266 -295 -562 -303q-63 -7 -114 -7q-339 0 -340 305z" />
<glyph unicode="&#x100b;&#x1039;&#x100c;" horiz-adv-x="1162" d="M79 -806q0 96 63 175q68 78 184 78q119 0 198 -86l169 -152q-304 113 -391 90q-82 -20 -81 -105q5 -88 143 -110l221 -10q190 33 244 189q17 56 36 106v233h165v-233q0 -156 -76 -263q-122 -170 -311 -170h-324q-177 9 -226 154q-15 43 -14 104zM108 493q0 208 133.5 347 t339.5 139q277 0 409 -193q18 -28 18 -53q0 -88 -92 -88q-42 0 -72 38q-80 121 -263 120q-125 0 -211 -92.5t-86 -217.5t86 -218t211 -93q216 0 255 116q16 38 -15.5 86.5t-33.5 61.5q0 37 27.5 65.5t63.5 28.5q32 0 60 -24q79 -74 79 -189q0 -183 -201 -272 q-106 -48 -235 -48q-202 0 -337.5 140.5t-135.5 345.5zM139 85q71 -49 133 -82q60 -33 113 -54q96 -35 200 -35q98 0 207 39q111 44 238 126v-488h-165v197q-141 -43 -280 -43q-112 0 -221 30q-112 35 -225 113v197z" />
<glyph unicode="&#x100d;&#x1039;&#x100e;" horiz-adv-x="1276" d="M-111 988q20 55 120 92q89 34 158 33q130 0 243 -77q121 -85 120 -215q0 -53 -94 -161.5t-94 -177.5q0 -127 94 -216t226 -89q127 0 221 89t94 216q0 131 -173 320q0 97 91 97q20 0 51 -21q209 -128 209 -396q0 -205 -144.5 -343.5t-348.5 -138.5q-209 0 -353 138.5 t-144 343.5q0 172 86 259q102 72 102 112q0 82 -124 124q-91 32 -189 31q-76 0 -151 -20zM514 388l108 52l2 -2q24 -24 61 -24q36 0 60 24t24 60t-24.5 60t-59.5 24q-37 0 -61 -24l-74 83q22 20 52 32q35 15 75 15q41 0 76 -15.5t61.5 -42t42 -61.5t15.5 -75 q0 -42 -15.5 -77.5t-42 -61t-61.5 -41.5t-76 -16t-76 16t-61 42q-15 14 -26 32zM564 -718l4 1061q169 -48 169 -120l-5 -1001q25 -80 197 -98q521 -8 743 187q-2 -8 -16 -24q-285 -304 -603 -312q-69 -7 -124 -7q-365 0 -365 314z" />
<glyph unicode="&#x100f;&#x1039;&#x100d;" horiz-adv-x="2279" d="M0 504q0 205 141.5 342t347.5 137q235 0 385 -184q91 144 217 144q138 0 217 -149q147 189 388 189q210 0 350 -136t140 -343q0 -195 -141 -336.5t-337 -141.5q-211 0 -267 180q-6 20 -6 30q0 86 92 86q26 0 78.5 -59t106.5 -59q120 0 208 89.5t88 210.5 q0 128 -92.5 213.5t-219.5 85.5q-129 0 -220.5 -85.5t-91.5 -213.5v-28q0 -22 -4 -42q-61 -407 -289 -408q-137 0 -219 145q-72 129 -73 274v81q0 119 -92.5 198t-217.5 79t-219.5 -85.5t-94.5 -213.5q0 -119 91 -209.5t208 -90.5q50 0 103 59t80 59q92 0 93 -88 q0 -92 -85.5 -150t-183.5 -58q-198 0 -339.5 140.5t-141.5 337.5zM167 -546q0 191 122.5 318.5t312.5 127.5q185 0 309 -128.5t124 -317.5q0 -26 3.5 -87t3.5 -87q17 -8 30 -9q21 0 41 18q27 92 11 309q-5 66 34.5 117.5t102.5 62.5l17 2h95q141 -14 284 -13q434 0 560 112 q14 16 33 21q-167 -278 -612 -296q-135 -6 -331 15h-14q0 -362 -46 -423q-55 -77 -179 -77q-174 0 -189 114q-4 23 -4 221q0 117 -79.5 199.5t-193.5 82.5q-120 0 -197 -81.5t-77 -200.5q0 -70 31 -138q36 -83 96 -90q23 16 48 16q84 0 84 -82q0 -46 -39 -72.5t-87 -26.5 q-71 0 -130 42q-164 121 -164 351zM982 476q0 -70 26 -157q38 -111 85 -111q56 0 84 118q28 92 28 156t-28 157q-28 120 -84 119q-51 0 -87 -122q-16 -43 -20 -109q-4 -12 -4 -45v-6z" />
<glyph unicode="&#x100a;&#x1039;&#x100a;" horiz-adv-x="3070" d="M179 277l133 129q30 -64 83 -121q103 -104 248 -104q147 0 250 105t103 246q0 148 -103 253t-250 105q-145 0 -248 -107q-53 -55 -83 -118l-133 125q35 64 90 121q154 155 374 155q224 0 378.5 -155.5t154.5 -378.5q0 -142 103 -246.5t253 -104.5q144 0 247 105t103 246 q0 148 -103 253t-247 105q-126 0 -220 -76l-96 149q135 103 316 103q220 0 375 -155.5t155 -378.5v-1q0 -147 104 -251q106 -102 249 -101q146 0 250.5 102.5t104.5 250.5q0 144 -104.5 247t-250.5 103h-33l26 182h7q221 0 376.5 -155.5t155.5 -376.5q0 -223 -156 -377.5 t-376 -154.5q-224 0 -378 153q-39 38 -67 80l-2 -3q-27 -39 -63 -75q-153 -153 -373 -153q-223 0 -378 153q-39 41 -66 83q-29 -42 -68 -83q-153 -153 -377 -153q-163 0 -290 85v-585q0 -133 83 -221t208 -88h1823q119 0 208 86.5t92 206.5v16h180v-28q7 -208 -125.5 -333 t-337.5 -125h-1850q-201 0 -328 134t-127 336v791z" />
<glyph unicode="&#x102d;&#x1032;" horiz-adv-x="2" d="M-1641 1776q-5 25 3 48q11 32 46.5 48t65.5 5q46 -15 56 -64q18 -82 69 -196q70 -153 159 -240q129 -126 368 -239q-170 5 -303 50q-361 121 -464 588zM-1093 1572q0 100 41 198q67 182 270 263q87 42 197 42q103 0 197 -42q213 -96 269 -263q43 -98 43 -198 q0 -152 -85 -281q-45 -71 -138 -137q-116 -87 -286 -87q-105 0 -197 39q-98 40 -161 111q-80 74 -109 160q-41 91 -41 195zM-919 1563q0 -109 63 -200q112 -148 273 -148q125 0 231 108q101 104 101 240q0 68 -26 133q-27 60 -75 115q-91 104 -231 104q-167 -11 -273 -159 q-63 -88 -63 -193z" />
<glyph unicode="&#x100d;&#x1039;&#x100d;" horiz-adv-x="1228" d="M66 -369q130 55 295 55q256 -4 263 -183q0 -164 -263 -171q-56 0 -95 7v-46q48 -12 95 -11q122 0 248 57v-131h92v-143h-240v104q-47 -11 -100 -10q-130 0 -253 45v287q117 -43 253 -43q109 0 110 55q-1 53 -110 53q-128 0 -236 -49zM175 -22q-11 22 2 42l198 -12h-27 q2 -16 -10 -35q0 -26 23 -45q99 -28 335 -10q164 12 199 -155l3 -15v-356h-178v340q-376 0 -452 42q-92 55 -93 204zM175 342q0 84 93 84q50 0 74 -46q90 -155 278 -155q129 0 221.5 84t92.5 208q0 125 -92.5 208.5t-221.5 83.5q-79 0 -152 -29q-90 -39 -99 -105 q18 -24 17 -53q0 -89 -86 -90q-50 0 -80 48q-28 40 -29 91q0 78 44 135q129 177 385 177q196 0 337.5 -125.5t152.5 -314.5l2 -54q7 -97 -90 -242q-159 -193 -402 -193q-137 0 -264 72v-218l-179 6v406q-2 8 -2 22zM720 -598h178v-203q19 -114 271 -115q123 0 259 27 q229 47 412 169q-6 -4 -14 -15q-288 -329 -613 -329q-68 -6 -103 -6q-390 0 -390 297v175z" />
<glyph unicode="&#x1020;&#x103e;" horiz-adv-x="1240" d="M108 552q0 220 154 373q152 152 380 153q124 0 243 -60q105 -55 169 -126l27 -34q5 -7 14 -17l3 -5q3 -4 7 -9q0 -2 -7 -3h-3v3v3q12 -29 12 -43q0 -36 -26.5 -63t-61.5 -27q-45 0 -70 51q-4 3 0 7l-24 26q-109 131 -283 132q-159 0 -264 -105t-105 -256t110 -260 q110 -110 259 -110q182 0 283 124q29 29 65 29h31q84 0 84 -82q0 -81 -81 -83q-146 -153 -382 -153q-217 0 -376 157q-158 161 -158 378zM164 -37q0 30 23.5 59t59.5 29q19 0 45 -14q170 -105 356 -105q189 0 256 47l67 54q34 26 67 26q67 0 67 -92v-607h148q84 0 84 -84 q0 -81 -84 -80h-232q-33 0 -59 18q-17 -53 -77 -52h-117q-81 0 -81 84v67q-36 -7 -86 -7q-137 0 -225 57t-88 164q0 96 81.5 158.5t212.5 62.5q169 0 225 -50q23 -32 23 -62q0 -79 -79 -79q-21 2 -33 7.5t-22.5 12t-21.5 10t-26 0.5q-195 0 -195 -60q0 -55 93 -56h55 q71 0 129 26q17 9 38 9q82 0 82 -97q2 -9 2 -24v-60h33q30 0 55 -19v506q-124 -47 -292 -47q-229 0 -446 135q-38 24 -38 63z" />
<glyph unicode="&#x103b;&#x103e;" horiz-adv-x="408" d="M-1340 -588q64 -149 172 -203q163 -93 243 -26q50 75 140 188l50 81q107 132 314 139l-218 -281q-202 -404 -485 -262q-185 93 -216 262q-3 46 0 102zM-617 -606q0 190 110 334t244 215q62 35 96 55q-245 -234 -245 -525q0 -161 80 -266q87 -122 242 -122h114q83 0 83 91 v1735q0 88 89 88q86 0 87 -88v-1735q0 -107 -74.5 -184.5t-184.5 -77.5h-114q-235 0 -381 123.5t-146 356.5z" />
<glyph unicode="&#x103b;&#x103d;" horiz-adv-x="416" d="M-1196 -580q0 236 164 393t400 157q241 0 403.5 -156t162.5 -394q0 -239 -163 -394.5t-403 -155.5q-237 0 -400.5 155.5t-163.5 394.5zM-1022 -580q0 -161 115.5 -269.5t274.5 -108.5q161 0 275 108.5t114 269.5q0 160 -114.5 268.5t-274.5 108.5q-159 0 -274.5 -108.5 t-115.5 -268.5zM-383 -978l81 110q62 -43 212 -43h114q85 0 85 89v1701q0 90 89 90q87 0 88 -90v-1701q0 -110 -75.5 -188t-186.5 -78h-114q-110 0 -174 27q-41 18 -119 83z" />
<glyph unicode="&#x103c;&#x103d;" horiz-adv-x="447" d="M174 -812v2592q0 111 76.5 190t185.5 79h707q334 0 657 -294q247 -226 345 -447q-492 609 -1060 565h-649q-89 0 -89 -93v-2592q0 -93 89 -93h123l105 -176h-228q-111 0 -186.5 77t-75.5 192zM569 -558q0 227 157.5 377.5t384.5 150.5q230 0 387 -149.5t157 -378.5 q0 -230 -157 -379t-387 -149q-229 0 -385.5 149t-156.5 379zM736 -558q0 -154 111.5 -258.5t263.5 -104.5q154 0 264.5 104.5t110.5 258.5q0 152 -110 257t-265 105q-152 0 -263.5 -104.5t-111.5 -257.5z" />
<glyph unicode="&#x103d;&#x103e;" horiz-adv-x="24" d="M-2537 -1057q53 -4 142 -4q615 0 983 383l183 191q33 204 190 335t366 131q237 0 399.5 -154.5t162.5 -391.5q0 -238 -162.5 -393t-399.5 -155q-186 0 -336 108t-202 289l-117 -120q-286 -286 -795 -286q-262 0 -414 67zM-1062 -567q0 -161 114.5 -267.5t274.5 -106.5 q158 0 272 106.5t114 267.5q0 160 -114.5 267t-271.5 107q-160 0 -274.5 -107t-114.5 -267z" />
<glyph unicode="&#x1020;&#x1039;&#x1020;" horiz-adv-x="1288" d="M117 -99l161 101q160 -117 374 -116q160 0 293 67v132q-127 -83 -289 -83q-222 0 -376 153q-39 41 -67 83q-84 126 -88 294q0 223 155 378.5t376 155.5q222 0 375 -155q57 -57 92 -121l-137 -125q-26 64 -81 118q-103 106 -249 107q-147 0 -249 -104.5t-102 -253.5 q0 -142 102 -246.5t249 -104.5q146 0 249 104q55 58 81 121l137 -128v-433l-59 -39q-182 -100 -410 -100q-196 0 -360 80v-524h623q23 7 45 24q30 29 30 71q0 46 -31.5 74.5t-67.5 28.5h-18l-55 161q36 8 75 8q114 0 195.5 -78.5t81.5 -193.5q0 -119 -81.5 -197.5 t-195.5 -78.5q-17 0 -37 2h-741v818zM351 -480q0 34 17.5 65t49.5 58q59 47 144 47q87 0 150 -47q4 -4 15 -11.5t21 -15t14.5 -14t-4.5 -13.5l-82 -55q-20 29 -37 41q-26 28 -77 28q-45 0 -75.5 -24.5t-30.5 -58.5t30.5 -55.5t75.5 -21.5q25 0 45 7.5t32 17.5q5 6 16.5 17 t18.5 31l77 -52q-2 -2 -2 -6v-94h82v-89h-171v96q-7 0 -13 -5q-18 -6 -39 -7.5t-46 -1.5q-85 0 -153 46q-12 7 -23 24q-34 42 -35 93z" />
<glyph unicode="&#x102d;&#x1036;" horiz-adv-x="234" d="M-1104 1572q0 100 41 198q67 182 270 263q87 42 198 42q103 0 197 -42q213 -96 269 -263q43 -98 43 -198q0 -152 -85 -281q-45 -71 -139 -137q-117 -87 -285 -87q-105 0 -198 39q-99 40 -161 111q-80 74 -109 160q-41 91 -41 195zM-929 1563q0 -109 63 -200 q112 -148 273 -148q125 0 231 108q101 104 100 240q0 68 -26 133q-27 60 -74 115q-91 104 -231 104q-167 -11 -273 -159q-63 -88 -63 -193zM-121 1396q0 71 63 141q65 60 150 60q89 0 153 -60q56 -69 55 -149q0 -78 -55 -137q-59 -56 -153 -56q-87 0 -150 56q-63 64 -63 145 zM-7 1398q4 -81 95 -85q93 0 94 85q-2 78 -94 85q-89 -7 -95 -85z" />
<glyph unicode="&#x1004;&#x103a;&#x1039;" d="M-948 1335q0 117 89 194q-89 81 -89 190q0 116 90.5 189t205.5 60q322 -47 576 -291q159 -131 160 -148q-124 121 -416 235q-231 85 -327 75q-56 0 -100 -32.5t-44 -87.5q0 -49 46.5 -82.5t97.5 -33.5q103 0 191 -64q29 -22 29 -56q0 -81 -75 -81q-18 0 -38 15 q-50 38 -107 38q-56 0 -100 -33t-44 -87q0 -89 111 -119q40 -11 80 -10q89 0 124 80q54 0 53 -80q0 -50 -39 -77q-69 -45 -178 -45q-118 0 -207 69t-89 182z" />
<glyph unicode="&#x1039;&#x1010;&#x103d;" horiz-adv-x="2" d="M-1566 -420q0 151 120 249q112 86 268 86q218 0 327 -151q17 32 51 59q130 95 272 94q148 0 271 -98t123 -240q0 -83 -32 -146q17 -37 22.5 -77t-0.5 -83q-2 -23 -9.5 -41.5t-20.5 -37.5q-12 -16 -33 -27t-38 -22q-24 -15 -63.5 -26.5t-82.5 -16t-84 -2.5t-68 15 q-21 11 -41.5 25.5t-40.5 28.5q-17 15 -26 37t-20 41q-15 29 -17.5 64.5t2.5 70t17.5 68t25.5 61.5q9 17 22.5 30.5l26.5 26.5q6 6 14 12t16 11.5t16.5 10t15.5 5.5q16 11 33.5 13.5t38.5 4.5q37 4 67 -4q36 -8 70 -25t64 -39q1 9 1 22q0 95 -91 158q-79 56 -181 56 q-97 0 -170.5 -55t-95.5 -148q0 -158 -112.5 -254.5t-269.5 -96.5q-158 0 -273 92.5t-115 248.5zM-1440 -420q0 -98 84 -163q77 -58 178 -58q228 0 262 247q-13 77 -83.5 131t-178.5 54q-106 0 -180 -51q-82 -59 -82 -160zM-571.5 -616q-6.5 -36 0.5 -72t29 -60 q18 -18 44 -28.5t56 -14t59.5 -1t51.5 11.5q14 9 30 17t32 28q12 38 9.5 72.5t-15.5 64.5t-36.5 52t-51.5 35q-18 8 -29 13t-20 8.5t-19.5 4.5t-27.5 1q-12 -5 -21.5 -9t-22.5 -14q-27 -13 -44.5 -43t-24 -66z" />
<glyph unicode="&#x101b;&#x103a;&#x1039;" horiz-adv-x="2" d="M-1061 1525q0 184 127.5 307t313.5 123q143 0 270 -103q57 -44 140 -165q8 -9 70 -58.5t62 -53.5q-57 -17 -105 -16q-110 0 -219 136l-12 14q-29 36 -78 49q-55 36 -128 36q-114 0 -198 -77.5t-84 -191.5q0 -174 173 -248q-15 42 -15 74q0 97 69 163t167 66 q95 0 163 -68.5t68 -160.5q0 -174 -173 -222q-79 -34 -170 -34q-189 0 -315 121t-126 309zM-582 1351q0 -67 74 -68h8q65 30 65 68q0 67 -73 67q-74 0 -74 -67z" />
<glyph unicode="&#x103e;&#x102d;&#xe2f1;" horiz-adv-x="4" d="M-1802 -689q220 -195 742 -187q172 18 186 98l-4 539q0 146 179 194l4 -673q0 -314 -365 -314q-55 0 -124 7q-319 8 -602 312q-14 16 -16 24zM-1226 1623q0 239 162 393.5t401 154.5q242 0 404.5 -155.5t162.5 -392.5q0 -238 -164.5 -394.5t-402.5 -156.5 q-237 0 -400 155t-163 396zM-1054 1623q0 -167 113 -273t278 -106q161 0 277 108t116 271q0 159 -116 267.5t-277 108.5q-165 0 -278 -105.5t-113 -270.5zM-529 -718l4 673q180 -48 179 -194l-5 -539q15 -80 187 -98q521 -8 743 187q-2 -8 -16 -24q-285 -304 -603 -312 q-69 -7 -124 -7q-365 0 -365 314z" />
<glyph unicode="&#x103e;&#x1072;&#xe2f1;" horiz-adv-x="16" d="M-1801 -689q220 -195 742 -187q172 18 186 98l-4 539q0 146 179 194l4 -673q0 -314 -365 -314q-55 0 -124 7q-319 8 -602 312q-14 16 -16 24zM-957 1540q0 283 262 407q193 96 509 96q505 -48 793 -200q538 -305 775 -616q9 -15 9 -30q-235 257 -645 486 q-163 86 -435 150q-242 39 -456 43q-641 5 -641 -336q0 -299 282 -334q96 -14 160.5 47.5t55.5 160.5q8 2 20 2q40 0 74 -40.5t34 -81.5q0 -12 -6 -29q-66 -191 -349 -192q-197 0 -319.5 132t-122.5 335zM-528 -718l4 673q180 -48 180 -194l-6 -539q15 -80 187 -98 q521 -8 743 187q-2 -8 -16 -24q-285 -304 -603 -312q-69 -7 -124 -7q-365 0 -365 314z" />
<glyph unicode="&#x103e;&#x102d;&#xe2f2;" horiz-adv-x="4" d="M-1960 -689q221 -195 743 -187q172 18 186 98l-5 539q0 146 179 194l4 -673q0 -314 -364 -314q-55 0 -124 7q-319 8 -603 312q-14 16 -16 24zM-1226 1623q0 239 162 393.5t401 154.5q242 0 404.5 -155.5t162.5 -392.5q0 -238 -164.5 -394.5t-402.5 -156.5 q-237 0 -400 155t-163 396zM-1054 1623q0 -167 113 -273t278 -106q161 0 277 108t116 271q0 159 -116 267.5t-277 108.5q-165 0 -278 -105.5t-113 -270.5zM-724 -55q186 -47 186 -215l-2 -481q-2 -243 83 -284q-267 32 -267 286v694zM-414 -718l4 673q180 -48 180 -194 l-5 -539q15 -80 187 -98q520 -8 742 187q-2 -8 -16 -24q-285 -304 -602 -312q-69 -7 -124 -7q-365 0 -366 314z" />
<glyph unicode="&#x102b;&#x1036;" horiz-adv-x="520" d="M-941 1509q0 47 18 88.5t49 72.5t72.5 49.5t90.5 18.5q46 0 88 -18.5t72.5 -49.5t49.5 -72.5t19 -88.5q0 -48 -19 -89.5t-49.5 -72.5t-72.5 -49.5t-88 -18.5q-49 0 -90.5 18.5t-72.5 49.5t-49 72.5t-18 89.5zM-795 1509q0 -36 22.5 -59t59.5 -23q34 0 57.5 23.5 t23.5 58.5t-24 58t-57 23q-37 0 -59.5 -23t-22.5 -58zM-409 1657q26 134 112 235q110 127 286 127q175 0 297.5 -128t122.5 -314v-1479q0 -100 -91 -100t-91 100v1479q0 105 -69 178t-169 73t-167.5 -72.5t-67.5 -178.5q0 -29 5 -55z" />
<glyph unicode="&#x102b;&#x1032;" horiz-adv-x="492" d="M-940 1900q6 32 40.5 51t65.5 12q47 -13 62 -60q25 -80 86 -188q84 -146 180 -226q139 -111 388 -203q-169 -9 -306 22q-371 87 -515 544q-6 24 -1 48zM-409 1657q26 134 112 235q110 127 286 127q175 0 297.5 -128t122.5 -314v-1479q0 -100 -91 -100t-91 100v1479 q0 105 -69 178t-169 73t-167.5 -72.5t-67.5 -178.5q0 -29 5 -55z" />
<glyph unicode="&#x1032;&#xaa70;" horiz-adv-x="2" d="M-1078 1621q-8 27 9 56t42 33q20 5 48 -2l654 -294q39 -17 47 -49q6 -25 -11 -55t-44 -36q-17 -3 -51 4l-656 293q-29 11 -38 50zM-975 1845q-7 27 10 55t40 34q22 5 48 -4l655 -293q39 -17 46 -46q6 -27 -10 -56.5t-44 -34.5q-16 -5 -50 3l-656 294q-32 8 -39 48z" />
<glyph unicode="&#x103a;&#xaa70;" horiz-adv-x="60" d="M-956 1540q0 283 262 407q193 96 509 96q505 -48 793 -200q538 -305 775 -616q9 -15 9 -30q-235 257 -645 486q-163 86 -435 150q-242 39 -456 43q-641 5 -641 -336q0 -299 282 -334q96 -14 160.5 47.5t55.5 160.5q8 2 20 2q40 0 74 -40.5t34 -81.5q0 -12 -6 -29 q-66 -191 -349 -192q-197 0 -319.5 132t-122.5 335zM-690 1581q43 65 92.5 95.5t99.5 30.5q51 0 101 -30.5t255 -184.5l-197 32q-67 17 -100.5 36t-58.5 19q-24 0 -58 -19t-64 -72z" />
<glyph unicode="&#x102c;&#x103e;&#x103a;" horiz-adv-x="1022" d="M-1612 -689q220 -195 742 -187q172 18 186 98l-4 539q0 146 180 194l4 -673q0 -314 -366 -314q-56 0 -124 7q-318 8 -603 312q-13 16 -15 24zM-973 1540q0 283 262 407q193 96 509 96q505 -48 793 -200q538 -305 775 -616q9 -15 9 -30q-235 257 -645 486 q-163 86 -435 150q-242 39 -456 43q-641 5 -640 -336q0 -299 281 -334q96 -14 160.5 47.5t55.5 160.5q8 2 20 2q40 0 74.5 -40.5t34.5 -81.5q0 -12 -7 -29q-66 -191 -348 -192q-197 0 -320 132t-123 335zM-122 646q0 17 8 35q103 295 464 295q224 0 372.5 -139t148.5 -351 q0 -184 -123 -327q-129 -152 -318 -153q-208 0 -268 190q-7 20 -8 32q0 85 101 85q39 0 90.5 -61t89.5 -61q112 0 182 98q62 85 61 197q0 134 -95 220.5t-233 86.5q-206 0 -303 -180q-34 -60 -83 -60q-86 0 -86 93z" />
<glyph unicode="&#x1051;&#x1039;&#x100d;" horiz-adv-x="1241" d="M108 508q0 152 87.5 275.5t238.5 173.5q18 7 34 7q88 0 89 -94q0 -58 -63 -82q-202 -75 -202 -280q0 -130 97 -216.5t230 -86.5q131 0 228 86.5t97 216.5q0 228 -159 258q-70 16 -71 84q0 98 73 97q17 0 41 -6q300 -71 300 -433q0 -210 -145.5 -347t-363.5 -137 q-216 0 -363.5 138t-147.5 346zM150 77q229 -165 454 -165q196 0 487 180v-166l-188 -139v17q-137 -57 -299 -57q-233 0 -454 134v196zM446 511q0 39 15 74t40.5 60t59.5 39.5t73 14.5q40 0 74.5 -14.5t59.5 -39.5t40 -60t15 -74q0 -40 -15 -74t-40 -58.5t-59.5 -40.5 t-74.5 -16q-39 0 -73 16t-59.5 40.5t-40.5 59t-15 73.5zM549 509q0 -36 24.5 -60t59.5 -24q37 0 60.5 24t23.5 60t-23.5 60t-60.5 24q-36 0 -60 -24t-24 -60zM912 -718l4 576q58 100 176 116l-9 -752q13 -80 178 -98q501 -8 713 187q-2 -8 -14 -24q-274 -304 -580 -312 q-66 -7 -119 -7q-350 0 -349 314z" />
<glyph unicode="&#x1051;&#x1039;&#x100c;" horiz-adv-x="1252" d="M108 508q0 152 88 275.5t238 173.5q18 7 34 7q88 0 89 -94q0 -59 -64 -82q-201 -76 -201 -280q0 -130 97 -216.5t230 -86.5q132 0 228.5 86.5t96.5 216.5q0 228 -159 258q-70 16 -71 84q0 98 73 97q17 0 41 -6q300 -71 300 -433q0 -210 -145.5 -347.5t-363.5 -137.5 q-216 0 -363.5 138.5t-147.5 346.5zM120 -806q0 96 64 175q70 78 192 78t205 -86l175 -152q-315 113 -404 90q-86 -20 -86 -105q6 -88 149 -110l228 -10q198 33 253 189q19 56 39 106v233h171v-233q0 -156 -80 -263q-126 -170 -321 -170h-336q-185 9 -235 154 q-15 43 -14 104zM180 85q75 -49 138 -82t119 -54q99 -35 206 -35q103 0 216 39q114 44 247 126v-488h-171v197q-145 -43 -292 -43q-114 0 -228 30q-116 35 -235 113v197zM446 511q0 39 15 74t40.5 60t59.5 39.5t73 14.5q40 0 75 -14.5t59.5 -39.5t39.5 -60t15 -74 q0 -40 -15 -74t-39.5 -58.5t-59.5 -40.5t-75 -16q-39 0 -73 16t-59.5 40.5t-40.5 59t-15 73.5zM549 509q0 -37 24.5 -61t59.5 -24q37 0 60.5 24.5t23.5 60.5t-23.5 60t-60.5 24q-35 0 -59.5 -24t-24.5 -60z" />
<glyph unicode="&#x103a;&#x1036;" horiz-adv-x="60" d="M-956 1540q0 283 262 407q193 96 509 96q505 -48 793 -200q538 -305 775 -616q9 -15 9 -30q-235 257 -645 486q-163 86 -435 150q-242 39 -456 43q-641 5 -641 -336q0 -299 282 -334q96 -14 160.5 47.5t55.5 160.5q8 2 20 2q40 0 74 -40.5t34 -81.5q0 -12 -6 -29 q-66 -191 -349 -192q-197 0 -319.5 132t-122.5 335zM-645 1532q0 32 12.5 61t33 50t49.5 33.5t63 12.5q33 0 61.5 -12.5t49 -33.5t33 -50t12.5 -61q0 -34 -12.5 -62.5t-33 -49.5t-49.5 -33t-61 -12q-34 0 -63 12t-49.5 33t-33 49.5t-12.5 62.5zM-557 1538q0 -28 19 -47.5 t49 -19.5q28 0 46.5 19t18.5 48q0 27 -18.5 46.5t-46.5 19.5q-29 0 -48.5 -19.5t-19.5 -46.5z" />
<glyph unicode="&#x107e;&#x102f;" horiz-adv-x="2077" d="M-70 984v4q0 30 116 84q97 33 160 33q194 0 326 -172q27 -64 28 -121q0 -44 -145 -221q-41 -67 -41 -108q0 -192 214 -279q38 -15 80 -15h23q212 0 295 220q4 19 4 37v67q0 247 252 397q105 56 239 55q287 0 509 -387q4 -2 28 -34q-16 -14 -55 -14h-47q-88 0 -229 182 q-120 70 -197 70h-23q-202 0 -291 -210l-4 -46v-93q0 -98 131 -192q40 -23 52 -24q-15 37 -15 80v4q0 179 206 243q34 5 57 5q175 0 247 -191q9 -59 9 -70q0 -190 -224 -253q-78 -23 -164 -23q-174 0 -303 97l-5 -8q-67 -935 -84 -935q-71 -177 -294 -177h-10 q-213 0 -424 93q-123 58 -305 262q-3 0 -19 23v9h5q114 -131 487 -206q154 -23 229 -23q168 12 168 84q65 828 74 878h-4q-127 -98 -304 -97h-5q-274 0 -426 252q-50 102 -50 182v71q0 179 143 271q38 43 38 61q0 109 -229 145q-17 4 -51 4h-46q-41 0 -126 -14zM1428 -741 l6 696q179 -50 178 -201l-4 -556q13 -84 186 -102q520 -8 741 194q-2 -8 -14 -26q-286 -313 -604 -323q-68 -7 -123 -7q-365 0 -366 325zM1523 288q0 -65 66 -65h14q51 0 78 74q-11 70 -60 71h-41q-51 -1 -57 -67v-13z" />
<glyph unicode="&#x107e;&#x1030;" horiz-adv-x="2088" d="M-70 984v4q0 30 116 84q97 33 160 33q194 0 326 -172q27 -64 28 -121q0 -44 -145 -221q-41 -67 -41 -108q0 -192 214 -279q38 -15 80 -15h23q212 0 295 220q4 19 4 37v67q0 247 252 397q105 56 239 55q287 0 509 -387q4 -2 28 -34q-16 -14 -55 -14h-47q-88 0 -229 182 q-120 70 -197 70h-23q-202 0 -291 -210l-4 -46v-93q0 -98 131 -192q40 -23 52 -24q-15 37 -15 80v4q0 179 206 243q34 5 57 5q175 0 247 -191q9 -59 9 -70q0 -190 -224 -253q-78 -23 -164 -23q-174 0 -303 97l-5 -8q-67 -935 -84 -935q-71 -177 -294 -177h-10 q-213 0 -424 93q-123 58 -305 262q-3 0 -19 23v9h5q114 -131 487 -206q154 -23 229 -23q168 12 168 84q65 828 74 878h-4q-127 -98 -304 -97h-5q-274 0 -426 252q-50 102 -50 182v71q0 179 143 271q38 43 38 61q0 109 -229 145q-17 4 -51 4h-46q-41 0 -126 -14zM1295 -55 q186 -47 186 -215l-2 -481q-2 -243 83 -284q-267 32 -267 286v694zM1523 288q0 -65 66 -65h14q51 0 78 74q-11 70 -60 71h-41q-51 -1 -57 -67v-13zM1628 -741l5 696q179 -50 179 -201l-5 -556q13 -84 186 -102q521 -8 742 194q-2 -8 -15 -26q-286 -313 -604 -323 q-68 -7 -123 -7q-365 0 -365 325z" />
<glyph unicode="&#x103b;&#x1082;" horiz-adv-x="366" d="M-966 -464q22 220 206 338q96 51 211 51h20q164 0 241 -129q-15 -91 -82 -91h-10q-9 0 -107 46q-28 5 -47 5q-205 0 -231 -173l-10 -62q11 -91 103 -186q40 -35 108 -34q198 0 358 178q23 46 82 46q50 0 82 -62q0 -60 -55 -91v-5l159 -37v1633q0 123 82 123h46 q62 -12 62 -62v-1806q0 -51 -71 -68h-47q-20 0 -365 82q-161 -102 -322 -102q-296 0 -409 299z" />
<glyph unicode="&#x1083;&#x1037;" horiz-adv-x="928" d="M-3 811v162q1 8 8 8h431q8 -1 8 -8v-81q0 -644 -4 -1722q0 -30 81 -81q90 -34 127 -33h35q481 0 711 217v-9q-130 -143 -222 -208l4 -9v-4q0 -9 -8 -9h-4l-13 9q-182 -141 -532 -141q-244 0 -328 162q-35 70 -35 149v695q0 308 -4 893h-247q-8 0 -8 10zM507 -435 q0 43 17 80.5t44 65t65 44t81 16.5t81 -16.5t66 -44t44 -65t16 -80.5q0 -44 -16 -81t-44 -65t-66 -44.5t-81 -16.5t-81 16.5t-65 44.5t-44 65t-17 81zM639 -435q0 -33 21 -53.5t52 -20.5q33 0 53.5 21t20.5 53t-20.5 52.5t-53.5 20.5q-32 0 -52.5 -20.5t-20.5 -52.5z" />
<glyph unicode="&#x1062;&#x1086;" horiz-adv-x="620" d="M33 1231q220 149 254 177q34 34 50 70q-45 0 -112 57q-60 56 -60 143q0 100 74 157q55 41 136 41q77 0 135 -41q70 -57 71 -163q0 -42 -9 -72q-17 -79 -72 -163q-68 -104 -302 -259zM43 894v172h468v-1050h-204v878h-264zM316 1685q0 -35 13 -51q26 -24 53 -24 q67 0 68 75q0 29 -13 45q-22 25 -55 25q-38 0 -55 -25q-11 -17 -11 -45z" />
<glyph unicode="&#x1083;&#x103a;" horiz-adv-x="754" d="M-101 1540q0 283 261 407q195 96 510 96q504 -47 793 -199q547 -285 774 -616q8 -16 8 -32q-235 258 -643 488q-164 85 -435 149q-243 39 -457 43q-640 5 -640 -336q0 -299 283 -335q95 -13 159 48.5t55 160.5q8 2 21 2q39 0 73 -40.5t34 -81.5q0 -12 -6 -31 q-66 -190 -349 -190q-197 0 -319 132t-122 335zM40 811v162q1 8 8 8h430q8 -1 8 -8v-81q0 -644 -4 -1722q0 -30 81 -81q91 -34 128 -33h34q482 0 712 217v-9q-130 -143 -222 -208l4 -9v-4q0 -9 -8 -9h-4l-13 9q-183 -141 -532 -141q-245 0 -329 162q-34 70 -34 149v695 q0 308 -4 893h-247q-8 0 -8 10z" />
<glyph unicode="&#x1039;&#x101f;" d="M-1730 -518q0 182 125 327q84 78 193 110l61 -152q-86 -26 -136 -77v1q-79 -101 -79 -209q0 -113 81 -191q80 -81 188 -81q58 0 104.5 21t87.5 60q80 78 80 191q0 108 -83 209v-1q-57 53 -133 77l59 152q110 -33 190 -108l3 -2q14 -20 27 -35t23 -33l2 2q11 12 19 24.5 t20 25.5q63 60 138.5 91.5t170.5 31.5q176 0 306 -123q127 -127 128 -310q0 -182 -130 -310q-134 -126 -319 -128l-25 172q19 -4 26.5 -5.5t13.5 -1.5q107 2 188 83q82 82 82 190q0 107 -82 189q-81 81 -188 81t-192 -81q-36 -38 -55.5 -77.5t-24.5 -84.5v-28 q0 -92 -31.5 -168t-96.5 -143h2q-128 -126 -310 -126q-183 0 -308 128v-2q-125 130 -125 311z" />
<glyph unicode="&#x1001;&#x103c;&#x102f;&#x1036;" horiz-adv-x="2100" d="M173 -813v2593q0 111 76.5 190t184.5 79h707q335 0 658 -295q247 -225 344 -447q-490 610 -1060 566h-649q-87 0 -87 -93v-2593q0 -91 87 -91h794q85 0 85 91v934q0 87 88 87q86 0 86 -87v-934q0 -109 -76 -188.5t-183 -79.5h-794q-110 0 -185.5 77t-75.5 191zM421 541 q0 5 70.5 60t80.5 67q93 134 156 185q146 118 308 117q208 0 351 -138.5t143 -347.5q0 -211 -141 -347.5t-353 -136.5q-102 0 -194 36q-194 56 -194 251q0 105 76.5 182t183.5 77q110 0 187 -74.5t77 -184.5q0 -35 -16 -82q195 82 196 279q0 130 -94 217.5t-222 87.5 q-84 0 -147 -41q-58 -16 -88 -55l-12 -16q-123 -154 -249 -154q-54 0 -119 18zM827 287q0 -41 71 -76h10q81 0 81 76q0 79 -81 78q-82 0 -81 -78zM1037 1407q0 45 17 84t46 68.5t68 46.5t85 17q44 0 83 -17t68.5 -46.5t46 -68t16.5 -84.5q0 -45 -16.5 -84t-46 -67.5 t-68.5 -46t-83 -17.5q-46 0 -85 17.5t-68 46t-46 67.5t-17 84zM1182 1403q0 -32 21.5 -53.5t54.5 -21.5q32 0 54 22t22 53q0 34 -22 55.5t-54 21.5q-34 0 -55 -21.5t-21 -55.5zM1728 -744l2 1762q186 -51 186 -209l-7 -1617q14 -87 194 -125q536 -10 765 222q-2 -14 -16 -25 q-295 -334 -623 -336q-68 -8 -128 -9q-373 0 -373 337z" />
<glyph unicode="&#x1016;&#x103c;&#x102f;&#x1036;" horiz-adv-x="2073" d="M173 -813v2593q0 111 76.5 190t184.5 79h707q335 0 658 -295q247 -225 344 -447q-490 610 -1060 566h-649q-87 0 -87 -93v-2593q0 -91 87 -91h794q85 0 85 91v934q0 87 88 87q86 0 86 -87v-934q0 -109 -76 -188.5t-183 -79.5h-794q-110 0 -185.5 77t-75.5 191zM493 540 q0 142 71 284q74 144 203 233q24 17 48 16q36 0 59.5 -27.5t23.5 -63.5q0 -40 -36 -69q-201 -129 -200 -373q0 -162 110 -280q109 -117 270 -116q182 0 296 152q-206 75 -268 280q-21 72 -21 141q0 184 150 332q24 24 60 24t62 -26q270 -185 270 -507q0 -229 -160 -396 q-158 -165 -389 -165q-230 0 -390 165q-160 167 -159 396zM1037 1407q0 45 17 84t46 68.5t68 46.5t85 17q44 0 83 -17t68.5 -46.5t46 -68t16.5 -84.5q0 -45 -16.5 -84t-46 -67.5t-68.5 -46t-83 -17.5q-46 0 -85 17.5t-68 46t-46 67.5t-17 84zM1182 1403q0 -32 21.5 -53.5 t54.5 -21.5q32 0 54 22t22 53q0 34 -22 55.5t-54 21.5q-34 0 -55 -21.5t-21 -55.5zM1221 710q0 -105 59 -174q48 -58 133 -84q9 41 9 88q0 198 -151 333q-49 -77 -50 -163zM1728 -744l2 1762q186 -51 186 -209l-7 -1617q14 -87 194 -125q536 -10 765 222q-2 -14 -16 -25 q-295 -334 -623 -336q-68 -8 -128 -9q-373 0 -373 337z" />
<glyph unicode="&#x1001;&#x103c;&#x103d;&#x102d;&#x102f;" horiz-adv-x="2107" d="M174 -812v2592q0 111 76.5 190t185.5 79h170l-63 -176h-107q-89 0 -89 -93v-2592q0 -93 89 -93h123l105 -176h-228q-111 0 -186.5 77t-75.5 192zM422 541q0 5 70.5 60t80.5 67q93 134 156 185q146 118 308 117q208 0 351 -138.5t143 -347.5q0 -211 -141 -347.5 t-353 -136.5q-102 0 -194 36q-194 56 -194 251q0 105 76.5 182t184.5 77q110 0 186.5 -74.5t76.5 -184.5q0 -35 -16 -82q195 82 196 279q0 130 -94 217.5t-222 87.5q-84 0 -147 -41q-58 -16 -88 -55l-12 -16q-123 -154 -249 -154q-54 0 -119 18zM436 1623q0 105 31 194 q41 113 131 199q162 154 401 155q242 0 404.5 -155.5t162.5 -392.5q0 -238 -165 -394.5t-402 -156.5t-400 155t-163 396zM506 -558q0 227 157.5 377.5t384.5 150.5q230 0 387 -149.5t157 -378.5q0 -230 -157 -379t-387 -149q-229 0 -385.5 149t-156.5 379zM607 1623 q0 -167 113.5 -273t278.5 -106q161 0 277 108t116 271q0 159 -116.5 267.5t-276.5 108.5q-165 0 -278.5 -105.5t-113.5 -270.5zM673 -558q0 -154 111.5 -258.5t263.5 -104.5q154 0 264.5 104.5t110.5 258.5q0 152 -110 257t-265 105q-152 0 -263.5 -104.5t-111.5 -257.5z M828 287q0 -41 71 -76h11q80 0 80 76q0 79 -80 78q-82 0 -82 -78zM1750 -744l2 1762q186 -51 186 -209l-7 -1617q14 -87 194 -125q536 -10 765 222q-2 -14 -15 -25q-295 -334 -624 -336q-68 -8 -128 -9q-373 0 -373 337z" />
<glyph unicode="&#x1000;&#x103c;&#x102f;&#x1036;" horiz-adv-x="2851" d="M151 -800v2585q0 110 75.5 189t184.5 79h1489q336 0 659 -283q257 -225 345 -457q-480 564 -1062 564h-1431q-88 0 -89 -92v-2585q0 -93 89 -94h1587q87 0 87 94v887q0 87 88 87q84 0 84 -87v-887q0 -111 -76 -189.5t-183 -78.5h-1587q-110 0 -185 76t-75 192zM433 484 q0 211 142.5 349t356.5 138q256 0 406 -206q147 207 405 206q211 0 355 -139t144 -348q0 -200 -143.5 -342t-344.5 -142q-106 0 -185 54q-89 59 -89 157q0 89 94 89q27 0 81.5 -60.5t104.5 -60.5q119 0 210.5 93t91.5 212q0 131 -94.5 218.5t-224.5 87.5 q-121 0 -217.5 -80.5t-96.5 -196.5v-56q-4 -9 -4 -37q-41 -277 -305 -386q-14 -4 -35 -5q-91 0 -91 95q0 57 58 81q193 76 194 254v54q0 117 -97 197t-217 80q-129 0 -224.5 -87.5t-95.5 -218.5q0 -223 219 -289q61 -19 61 -83q0 -95 -88 -94q-13 0 -31 7 q-153 50 -246.5 174t-93.5 285zM1572 1407q0 45 17.5 84t46.5 68.5t67.5 46.5t85.5 17q44 0 82.5 -17t68 -46.5t46.5 -68t17 -84.5q0 -45 -17 -84t-46.5 -67.5t-68 -46t-82.5 -17.5q-46 0 -85 17.5t-68 46t-46.5 67.5t-17.5 84zM1717 1403q0 -32 21.5 -53.5t55.5 -21.5 q32 0 53.5 22t21.5 53q0 34 -22 55.5t-53 21.5q-34 0 -55.5 -21.5t-21.5 -55.5zM2473 -744l2 1762q186 -51 186 -209l-6 -1617q14 -87 193 -125q537 -10 766 222q-2 -14 -16 -25q-295 -334 -624 -336q-68 -8 -128 -9q-373 0 -373 337z" />
<glyph unicode="&#x1000;&#x103c;&#x102f;&#x1036;&#x1037;" horiz-adv-x="3219" d="M151 -800v2585q0 110 75.5 189t184.5 79h1489q336 0 659 -283q257 -225 345 -457q-480 564 -1062 564h-1431q-88 0 -89 -92v-2585q0 -93 89 -94h1587q87 0 87 94v887q0 87 88 87q84 0 84 -87v-887q0 -111 -76 -189.5t-183 -78.5h-1587q-110 0 -185 76t-75 192zM433 484 q0 211 142.5 349t356.5 138q256 0 406 -206q147 207 405 206q211 0 355 -139t144 -348q0 -200 -143.5 -342t-344.5 -142q-106 0 -185 54q-89 59 -89 157q0 89 94 89q27 0 81.5 -60.5t104.5 -60.5q119 0 210.5 93t91.5 212q0 131 -94.5 218.5t-224.5 87.5 q-121 0 -217.5 -80.5t-96.5 -196.5v-56q-4 -9 -4 -37q-41 -277 -305 -386q-14 -4 -35 -5q-91 0 -91 95q0 57 58 81q193 76 194 254v54q0 117 -97 197t-217 80q-129 0 -224.5 -87.5t-95.5 -218.5q0 -223 219 -289q61 -19 61 -83q0 -95 -88 -94q-13 0 -31 7 q-153 50 -246.5 174t-93.5 285zM1572 1407q0 45 17.5 84t46.5 68.5t67.5 46.5t85.5 17q44 0 82.5 -17t68 -46.5t46.5 -68t17 -84.5q0 -45 -17 -84t-46.5 -67.5t-68 -46t-82.5 -17.5q-46 0 -85 17.5t-68 46t-46.5 67.5t-17.5 84zM1717 1403q0 -32 21.5 -53.5t55.5 -21.5 q32 0 53.5 22t21.5 53q0 34 -22 55.5t-53 21.5q-34 0 -55.5 -21.5t-21.5 -55.5zM2473 -744l2 1762q186 -51 186 -209l-6 -1617q14 -87 193 -125q537 -10 766 222q-2 -14 -16 -25q-295 -334 -624 -336q-68 -8 -128 -9q-373 0 -373 337zM2779 -401q0 45 17.5 84t46 68t67.5 46 t85 17q44 0 83 -17t68.5 -46t46.5 -68t17 -84t-17 -84t-46.5 -68t-68.5 -46.5t-83 -17.5q-46 0 -85 17.5t-67.5 46.5t-46 68t-17.5 84zM2924 -405q0 -32 21.5 -54t55.5 -22q32 0 53.5 22t21.5 54q0 34 -22 55t-53 21q-34 0 -55.5 -21t-21.5 -55z" />
<glyph unicode="&#x1001;&#x103c;&#x102f;&#x1036;&#x1037;" horiz-adv-x="2422" d="M173 -813v2593q0 111 76.5 190t184.5 79h707q335 0 658 -295q247 -225 344 -447q-490 610 -1060 566h-649q-87 0 -87 -93v-2593q0 -91 87 -91h794q85 0 85 91v934q0 87 88 87q86 0 86 -87v-934q0 -109 -76 -188.5t-183 -79.5h-794q-110 0 -185.5 77t-75.5 191zM421 541 q0 5 70.5 60t80.5 67q93 134 156 185q146 118 308 117q208 0 351 -138.5t143 -347.5q0 -211 -141 -347.5t-353 -136.5q-102 0 -194 36q-194 56 -194 251q0 105 76.5 182t183.5 77q110 0 187 -74.5t77 -184.5q0 -35 -16 -82q195 82 196 279q0 130 -94 217.5t-222 87.5 q-84 0 -147 -41q-58 -16 -88 -55l-12 -16q-123 -154 -249 -154q-54 0 -119 18zM827 287q0 -41 71 -76h10q81 0 81 76q0 79 -81 78q-82 0 -81 -78zM1037 1407q0 45 17 84t46 68.5t68 46.5t85 17q44 0 83 -17t68.5 -46.5t46 -68t16.5 -84.5q0 -45 -16.5 -84t-46 -67.5 t-68.5 -46t-83 -17.5q-46 0 -85 17.5t-68 46t-46 67.5t-17 84zM1182 1403q0 -32 21.5 -53.5t54.5 -21.5q32 0 54 22t22 53q0 34 -22 55.5t-54 21.5q-34 0 -55 -21.5t-21 -55.5zM1728 -744l2 1762q186 -51 186 -209l-7 -1617q14 -87 194 -125q536 -10 765 222q-2 -14 -16 -25 q-295 -334 -623 -336q-68 -8 -128 -9q-373 0 -373 337zM1993 -377q0 45 17.5 84t46.5 68.5t68 46t85 16.5q44 0 83 -16.5t68 -46t46 -68.5t17 -84t-17 -84t-46 -68t-68 -46t-83 -17q-46 0 -85 17t-68 46t-46.5 68t-17.5 84zM2138 -381q0 -32 21.5 -54t55.5 -22q32 0 54 22 t22 54q0 34 -22.5 55t-53.5 21q-34 0 -55.5 -21t-21.5 -55z" />
<glyph unicode="&#x1016;&#x103c;&#x102f;&#x1036;&#x1037;" horiz-adv-x="2453" d="M173 -813v2593q0 111 76.5 190t184.5 79h707q335 0 658 -295q247 -225 344 -447q-490 610 -1060 566h-649q-87 0 -87 -93v-2593q0 -91 87 -91h794q85 0 85 91v934q0 87 88 87q86 0 86 -87v-934q0 -109 -76 -188.5t-183 -79.5h-794q-110 0 -185.5 77t-75.5 191zM493 540 q0 142 71 284q74 144 203 233q24 17 48 16q36 0 59.5 -27.5t23.5 -63.5q0 -40 -36 -69q-201 -129 -200 -373q0 -162 110 -280q109 -117 270 -116q182 0 296 152q-206 75 -268 280q-21 72 -21 141q0 184 150 332q24 24 60 24t62 -26q270 -185 270 -507q0 -229 -160 -396 q-158 -165 -389 -165q-230 0 -390 165q-160 167 -159 396zM1037 1407q0 45 17 84t46 68.5t68 46.5t85 17q44 0 83 -17t68.5 -46.5t46 -68t16.5 -84.5q0 -45 -16.5 -84t-46 -67.5t-68.5 -46t-83 -17.5q-46 0 -85 17.5t-68 46t-46 67.5t-17 84zM1182 1403q0 -32 21.5 -53.5 t54.5 -21.5q32 0 54 22t22 53q0 34 -22 55.5t-54 21.5q-34 0 -55 -21.5t-21 -55.5zM1221 710q0 -105 59 -174q48 -58 133 -84q9 41 9 88q0 198 -151 333q-49 -77 -50 -163zM1728 -744l2 1762q186 -51 186 -209l-7 -1617q14 -87 194 -125q536 -10 765 222q-2 -14 -16 -25 q-295 -334 -623 -336q-68 -8 -128 -9q-373 0 -373 337zM2014 -398q0 45 17.5 84t46.5 68.5t68 46t85 16.5q44 0 83 -16.5t68 -46t46 -68.5t17 -84t-17 -84t-46 -68t-68 -46t-83 -17q-46 0 -85 17t-68 46t-46.5 68t-17.5 84zM2159 -402q0 -32 21.5 -54t55.5 -22q32 0 54 22 t22 54q0 34 -22 55t-54 21q-34 0 -55.5 -21t-21.5 -55z" />
<glyph unicode="&#x1009;&#x1039;&#x1001;" horiz-adv-x="1201" d="M121 320q0 85 91 85q48 0 75 -45q87 -160 273 -159q129 0 221 86t92 211q0 129 -92 214t-221 85q-79 0 -150 -28q-90 -41 -99 -108q18 -23 18 -54q0 -91 -86 -91q-48 0 -81 47q-26 42 -27 93q0 79 42 139q129 182 383 182q197 0 337.5 -129.5t151.5 -321.5l3 -54 q6 -99 -91 -249q-158 -200 -401 -200q-134 0 -263 75v-921q0 -32 11 -52h-181q-4 25 -4 52v1121q-2 9 -2 22zM237 -418q0 4 61 51.5t70 56.5q81 118 134 162q127 100 266 100q181 0 304.5 -119.5t123.5 -299.5q0 -183 -122 -301t-306 -118q-87 0 -167 32q-167 47 -167 215 q0 91 66 158t159 67q96 0 161.5 -64.5t65.5 -160.5q0 -29 -13 -70q169 70 169 242q0 112 -81.5 187.5t-192.5 75.5q-70 0 -126 -35q-50 -15 -76 -49l-10 -13q-107 -132 -217 -133q-45 0 -102 16zM588 -639q0 -35 61 -65h10q70 0 70 65q0 67 -70 68q-70 0 -71 -68z" />
<glyph unicode="&#x1009;&#x1039;&#x1002;" horiz-adv-x="1213" d="M121 320q0 85 91 85q48 0 75 -45q87 -160 273 -159q129 0 221 86t92 211q0 129 -92 214t-221 85q-79 0 -150 -28q-90 -41 -99 -108q18 -23 18 -54q0 -91 -86 -91q-48 0 -81 47q-26 42 -27 93q0 79 42 139q129 182 383 182q197 0 337.5 -129.5t151.5 -321.5l3 -54 q6 -99 -91 -249q-158 -200 -401 -200q-134 0 -263 75v-921q0 -32 11 -52h-181q-4 25 -4 52v1121q-2 9 -2 22zM344 -515q0 183 125 304.5t310 121.5q186 0 310.5 -120.5t124.5 -305.5q0 -319 -256 -381q-21 -5 -35 -5q-63 0 -63 86q0 60 62 75q135 25 136 225 q0 114 -83 190.5t-196 76.5q-112 0 -195.5 -76t-83.5 -191q0 -181 173 -245q54 -21 54 -74q0 -81 -77 -81q-14 0 -29 7q-128 43 -202.5 151.5t-74.5 241.5z" />
<glyph unicode="&#x1009;&#x1039;&#x1005;" horiz-adv-x="1206" d="M121 320q0 85 91 85q48 0 75 -45q87 -160 273 -159q129 0 221 86t92 211q0 129 -92 214t-221 85q-79 0 -150 -28q-90 -41 -99 -108q18 -23 18 -54q0 -91 -86 -91q-48 0 -81 47q-26 42 -27 93q0 79 42 139q129 182 383 182q197 0 337.5 -129.5t151.5 -321.5l3 -54 q6 -99 -91 -249q-158 -200 -401 -200q-134 0 -263 75v-921q0 -32 11 -52h-181q-4 25 -4 52v1121q-2 9 -2 22zM341 -519q0 187 128.5 311t316.5 124q190 0 317 -123t127 -312q0 -184 -128 -307t-316 -123q-190 0 -317.5 121t-127.5 309zM501 -519q0 -67 73 -67q72 0 72 67 q0 72 -72 73q-74 0 -73 -73zM626 -293q80 -17 132.5 -80t52.5 -146q0 -77 -53.5 -141.5t-131.5 -82.5q78 -48 160 -48q114 0 198.5 79.5t84.5 192.5q0 118 -84.5 195t-198.5 77q-88 0 -160 -46z" />
<glyph unicode="&#x1009;&#x1039;&#x1007;" horiz-adv-x="1189" d="M121 320q0 85 91 85q48 0 75 -45q87 -160 273 -159q129 0 221 86t92 211q0 129 -92 214t-221 85q-79 0 -150 -28q-90 -41 -99 -108q18 -23 18 -54q0 -91 -86 -91q-48 0 -81 47q-26 42 -27 93q0 79 42 139q129 182 383 182q197 0 337.5 -129.5t151.5 -321.5l3 -54 q6 -99 -91 -249q-158 -200 -401 -200q-134 0 -263 75v-921q0 -32 11 -52h-181q-4 25 -4 52v1121q-2 9 -2 22zM349 -502q0 177 120.5 294.5t299.5 117.5q183 0 302.5 -116t119.5 -296q6 -39 6 -48q0 -34 -4 -43q112 -83 115 -226q2 -78 -76 -78q-72 0 -78 75q-2 60 -37 93 q-2 0 -11 -2h-8q-53 -37 -122 -37q-89 0 -157 64t-68 154q0 91 65.5 154t157.5 63q-74 90 -205 90q-109 0 -188.5 -74.5t-79.5 -184.5q0 -91 57 -161t147 -88q58 -13 57 -73q0 -41 -26.5 -65t-67.5 -12q-144 36 -231.5 145t-87.5 254zM905 -550q0 -64 71 -64q27 0 48 16 q0 8 3 17q11 26 11 58q-22 37 -62 37q-70 0 -71 -64z" />
<glyph unicode="&#x1009;&#x1039;&#x100e;" horiz-adv-x="1301" d="M121 320q0 85 91 85q48 0 75 -45q87 -160 273 -159q129 0 221 86t92 211q0 129 -92 214t-221 85q-79 0 -150 -28q-90 -41 -99 -108q18 -23 18 -54q0 -91 -86 -91q-48 0 -81 47q-26 42 -27 93q0 79 42 139q129 182 383 182q197 0 337.5 -129.5t151.5 -321.5l3 -54 q6 -99 -91 -249q-158 -200 -401 -200q-134 0 -263 75v-921q0 -32 11 -52h-181q-4 25 -4 52v1121q-2 9 -2 22zM458 -477l4 57l130 36q59 14 63 85q-11 61 -53 60l-51 -3q-11 -3 -22 -13t-20 -13l-38 152q43 22 115 32l74 -9q46 -18 77.5 -45t40.5 -63q8 -12 12.5 -32t8.5 -43 l4 -37q11 -159 -189 -223q6 -36 22.5 -68t46.5 -61q74 -72 178 -72q98 0 177 72q74 79 73 181q0 51 -19.5 98.5t-53.5 94.5v-1q-24 22 -55 39.5t-70 27.5l54 146q54 -18 97.5 -44t82.5 -61q119 -133 119 -300t-121 -288h2q-121 -118 -286 -118q-171 0 -289 118 q-55 59 -84.5 130t-29.5 158v7z" />
<glyph unicode="&#x1009;&#x1039;&#x1012;" horiz-adv-x="1219" d="M122 320q0 85 91 85q48 0 75 -45q87 -160 273 -159q129 0 221 86t92 211q0 129 -92 214t-221 85q-79 0 -150 -28q-90 -41 -99 -108q18 -23 18 -54q0 -91 -86 -91q-48 0 -81 47q-26 42 -26 93q0 79 42 139q129 182 382 182q197 0 337.5 -129.5t151.5 -321.5l3 -54 q6 -99 -91 -249q-158 -200 -401 -200q-134 0 -263 75v-921q0 -32 11 -52h-181q-4 25 -4 52v1121q-2 9 -2 22zM380 -686q0 76 80 76q44 0 66 -43q77 -146 241 -146q197 0 217 97q0 104 -157 98q-83 -4 -83 78q0 81 78 83q89 4 111 9q51 21 48 83q-46 99 -214 99 q-65 0 -133 -32q-81 -37 -86 -92l-2 4q26 -33 26 -62q0 -67 -86 -67q-106 0 -93 140q4 58 38 107q113 165 336 165q123 0 217 -52q111 -60 147 -167l1 -17q4 -17 4 -47q0 -95 -58 -156q64 -65 60 -181q-30 -251 -371 -251q-254 0 -376 233q-11 18 -11 41z" />
<glyph unicode="&#x1009;&#x1039;&#x1013;" horiz-adv-x="1218" d="M121 320q0 85 91 85q48 0 75 -45q87 -160 273 -159q129 0 221 86t92 211q0 129 -92 214t-221 85q-79 0 -150 -28q-90 -41 -99 -108q18 -23 18 -54q0 -91 -86 -91q-48 0 -81 47q-26 42 -27 93q0 79 42 139q129 182 383 182q197 0 337.5 -129.5t151.5 -321.5l3 -54 q6 -99 -91 -249q-158 -200 -401 -200q-134 0 -263 75v-921q0 -32 11 -52h-181q-4 25 -4 52v1121q-2 9 -2 22zM370 -515q0 181 126.5 303t312.5 122q188 0 313.5 -121t125.5 -304q0 -185 -126 -305.5t-313 -120.5q-184 0 -311.5 122t-127.5 304zM527 -515q0 -63 32 -117 q20 82 92 137t158 55q89 0 160 -54t89 -138q32 54 32 117q0 112 -83.5 189.5t-197.5 77.5q-113 0 -197.5 -77t-84.5 -190zM712 -691q0 -95 97 -95q39 0 67.5 28.5t28.5 66.5q0 90 -96 90q-97 0 -97 -90z" />
<glyph unicode="&#x1009;&#x1039;&#x1014;" horiz-adv-x="1189" d="M121 320q0 85 91 85q48 0 75 -45q87 -160 273 -159q129 0 221 86t92 211q0 129 -92 214t-221 85q-79 0 -150 -28q-90 -41 -99 -108q18 -23 18 -54q0 -91 -86 -91q-48 0 -81 47q-26 42 -27 93q0 79 42 139q129 182 383 182q197 0 337.5 -129.5t151.5 -321.5l3 -54 q6 -99 -91 -249q-158 -200 -401 -200q-134 0 -263 75v-921q0 -32 11 -52h-181q-4 25 -4 52v1121q-2 9 -2 22zM381 -678q0 90 64 151.5t155 61.5q89 0 147.5 -61.5t68.5 -151.5q6 -35 36 -77q111 12 111 69q0 72 -147 168l-218 143q-7 3 -25 17q-54 54 -53 128q0 173 186 175 q15 0 29 -2q150 -29 163 -165q7 -80 -76 -79q-28 0 -64 45.5t-54 52.5q-26 -6 -32 -13q-7 -27 2 -46q137 -80 266 -178q162 -125 169 -198q5 -47 5 -58q0 -95 -108 -164q26 -18 85 -18q110 0 149 45q-60 -141 -220 -141q-139 0 -194 70q-19 0 -192 -7q-167 -5 -236 145 q-17 20 -17 88zM531 -678q0 -63 69 -63l96 -15q-7 15 -33 100q-7 43 -63 43q-68 0 -69 -65z" />
<glyph unicode="&#x1009;&#x1039;&#x1015;" horiz-adv-x="1224" d="M121 320q0 85 91 85q48 0 75 -45q87 -160 273 -159q129 0 221 86t92 211q0 129 -92 214t-221 85q-79 0 -150 -28q-90 -41 -99 -108q18 -23 18 -54q0 -91 -86 -91q-48 0 -81 47q-26 42 -27 93q0 79 42 139q129 182 383 182q197 0 337.5 -129.5t151.5 -321.5l3 -54 q6 -99 -91 -249q-158 -200 -401 -200q-134 0 -263 75v-921q0 -32 11 -52h-181q-4 25 -4 52v1121q-2 9 -2 22zM344 -489q0 133 74.5 241.5t202.5 151.5q16 6 29 7q77 0 77 -82q0 -51 -54 -73q-173 -66 -173 -245q0 -114 83.5 -190.5t195.5 -76.5t195.5 76t83.5 191 q0 201 -136 225q-62 15 -62 75q0 86 63 86q14 0 35 -6q256 -62 256 -380q0 -185 -124.5 -305.5t-310.5 -120.5q-185 0 -310 121.5t-125 304.5z" />
<glyph unicode="&#x1009;&#x1039;&#x1016;" horiz-adv-x="1172" d="M121 320q0 85 91 85q48 0 75 -45q87 -160 273 -159q129 0 221 86t92 211q0 129 -92 214t-221 85q-79 0 -150 -28q-90 -41 -99 -108q18 -23 18 -54q0 -91 -86 -91q-48 0 -81 47q-26 42 -27 93q0 79 42 139q129 182 383 182q197 0 337.5 -129.5t151.5 -321.5l3 -54 q6 -99 -91 -249q-158 -200 -401 -200q-134 0 -263 75v-921q0 -32 11 -52h-181q-4 25 -4 52v1121q-2 9 -2 22zM371 -473q0 237 168 351q25 14 47 14q76 0 76 -78q0 -36 -34 -61q-105 -68 -105 -226q0 -106 81 -179.5t190 -73.5q103 0 181.5 67t87.5 166q-59 -38 -127 -37 q-90 0 -156 62.5t-66 152.5q0 87 69 151t160 64q148 0 227 -156q48 -99 48 -217q0 -171 -121.5 -286.5t-302.5 -115.5t-302 113.5t-121 288.5zM868 -315q0 -65 68 -65q70 0 70 65q0 62 -70 62q-18 0 -39 -13l-16 -15q-14 -18 -13 -34z" />
<glyph unicode="&#x1009;&#x1039;&#x1017;" horiz-adv-x="1189" d="M121 320q0 85 91 85q48 0 75 -45q87 -160 273 -159q129 0 221 86t92 211q0 129 -92 214t-221 85q-79 0 -150 -28q-90 -41 -99 -108q18 -23 18 -54q0 -91 -86 -91q-48 0 -81 47q-26 42 -27 93q0 79 42 139q129 182 383 182q197 0 337.5 -129.5t151.5 -321.5l3 -54 q6 -99 -91 -249q-158 -200 -401 -200q-134 0 -263 75v-921q0 -32 11 -52h-181q-4 25 -4 52v1121q-2 9 -2 22zM352 -490q0 232 205 343q23 25 64 25q35 0 60.5 -29.5t16.5 -63.5q22 -69 98 -70q86 0 99 76q-4 7 2 30q13 57 78 57q41 0 60 -25q206 -117 206 -343 q0 -174 -128 -291t-317 -117q-190 0 -317 114.5t-127 293.5zM511 -490q0 -109 85.5 -183.5t199.5 -74.5q116 0 200.5 74.5t84.5 183.5q0 86 -65 163q-82 -108 -220 -108q-139 0 -218 108q-66 -67 -67 -163z" />
<glyph unicode="&#x1009;&#x1039;&#x1019;" horiz-adv-x="1189" d="M121 320q0 85 91 85q48 0 75 -45q87 -160 273 -159q129 0 221 86t92 211q0 129 -92 214t-221 85q-79 0 -150 -28q-90 -41 -99 -108q18 -23 18 -54q0 -91 -86 -91q-48 0 -81 47q-26 42 -27 93q0 79 42 139q129 182 383 182q197 0 337.5 -129.5t151.5 -321.5l3 -54 q6 -99 -91 -249q-158 -200 -401 -200q-134 0 -263 75v-921q0 -32 11 -52h-181q-4 25 -4 52v1121q-2 9 -2 22zM360 -493q0 244 171 360q25 16 46 15q80 0 79 -79q0 -38 -33 -63q-105 -69 -105 -233q0 -56 25 -110q22 86 89 141.5t158 55.5q89 0 158 -54.5t88 -142.5 q28 50 28 110q0 191 -101 224q-35 14 -77.5 -13.5t-53.5 -29.5q-32 0 -56 24.5t-24 54.5q0 29 20 56q66 68 167 68q163 0 239 -177q39 -96 39 -207q0 -182 -121 -298.5t-304 -116.5q-182 0 -307 117t-125 298zM694 -656q0 -41 27.5 -70t68.5 -29q42 0 69.5 29t27.5 70 q0 40 -27.5 68t-69.5 28q-41 0 -68.5 -28.5t-27.5 -67.5z" />
<glyph unicode="&#x1009;&#x1039;&#x105c;" horiz-adv-x="1206" d="M121 320q0 85 91 85q48 0 75 -45q87 -160 273 -159q129 0 221 86t92 211q0 129 -92 214t-221 85q-79 0 -150 -28q-90 -41 -99 -108q18 -23 18 -54q0 -91 -86 -91q-48 0 -81 47q-26 42 -27 93q0 79 42 139q129 182 383 182q197 0 337.5 -129.5t151.5 -321.5l3 -54 q6 -99 -91 -249q-158 -200 -401 -200q-134 0 -263 75v-921q0 -32 11 -52h-181q-4 25 -4 52v1121q-2 9 -2 22zM374 -464q0 86 33 161.5t88.5 131t129.5 89t162 33.5q85 0 160 -33.5t132 -89t89.5 -131t32.5 -161.5t-32.5 -162t-89.5 -132t-132 -88.5t-160 -32.5 q-87 0 -161.5 32.5t-130 88.5t-88.5 132t-33 162zM527 -467q0 -55 21 -102.5t56 -82.5t82 -55.5t102 -20.5q53 0 100 20.5t83 55.5t55.5 82.5t19.5 102.5q0 53 -19.5 99.5t-55.5 82.5t-83.5 56t-99.5 20q-55 0 -102 -20t-82 -56t-56 -82.5t-21 -99.5zM620 -465 q0 71 49 121.5t120 50.5q70 0 120 -50.5t50 -121.5q0 -69 -50 -119t-120 -50t-119.5 49.5t-49.5 119.5zM718 -465q0 -29 21 -50.5t50 -21.5t52 21t23 51t-23 51.5t-52 21.5q-28 0 -49.5 -21.5t-21.5 -51.5z" />
<glyph unicode="&#x1009;&#x1039;&#x1075;" horiz-adv-x="1206" d="M121 320q0 85 91 85q48 0 75 -45q87 -160 273 -159q129 0 221 86t92 211q0 129 -92 214t-221 85q-79 0 -150 -28q-90 -41 -99 -108q18 -23 18 -54q0 -91 -86 -91q-48 0 -81 47q-26 42 -27 93q0 79 42 139q129 182 383 182q197 0 337.5 -129.5t151.5 -321.5l3 -54 q6 -99 -91 -249q-158 -200 -401 -200q-134 0 -263 75v-921q0 -32 11 -52h-181q-4 25 -4 52v1121q-2 9 -2 22zM330 -723l133 55q7 -4 19 -13.5t22 -12.5l54 -2q45 -2 55 60q-5 72 -66 86l-133 34l-5 59v7q0 87 31 158t88 130q121 118 298 118q169 0 295 -118h-2 q125 -121 125 -288q0 -169 -123 -302q-41 -36 -86 -62.5t-99 -42.5l-57 145q40 12 72 29t57 39v-2q36 47 56 95t20 101q0 101 -76 180q-81 74 -182 74q-108 0 -185 -74q-29 -27 -46.5 -59.5t-24.5 -70.5q206 -62 197 -223l-5 -37q-5 -23 -9 -43.5t-13 -32.5q-12 -35 -44 -63 t-78 -44l-77 -11q-76 11 -211 131z" />
<glyph unicode="&#x1009;&#x1039;&#x1051;" horiz-adv-x="1201" d="M121 320q0 85 91 85q48 0 75 -45q87 -160 273 -159q129 0 221 86t92 211q0 129 -92 214t-221 85q-79 0 -150 -28q-90 -41 -99 -108q18 -23 18 -54q0 -91 -86 -91q-48 0 -81 47q-26 42 -27 93q0 79 42 139q129 182 383 182q197 0 337.5 -129.5t151.5 -321.5l3 -54 q6 -99 -91 -249q-158 -200 -401 -200q-134 0 -263 75v-921q0 -32 11 -52h-181q-4 25 -4 52v1121q-2 9 -2 22zM370 -463q0 138 80 244.5t206 148.5l63 -151q-82 -22 -136.5 -90t-54.5 -156q0 -53 21 -101.5t57.5 -83t85 -56t104.5 -21.5q54 0 102 21.5t85 56t57.5 83 t20.5 101.5q0 88 -51.5 154t-134.5 90l57 151q127 -43 208 -148.5t81 -242.5q0 -86 -33.5 -162t-91.5 -132.5t-136 -89.5t-167 -33q-88 0 -165 33t-134 89.5t-90.5 132.5t-33.5 162zM694 -465q0 -46 31.5 -77t76.5 -31q43 0 77 31t34 77q0 42 -34 73.5t-77 31.5 q-45 0 -76.5 -31.5t-31.5 -73.5z" />
<glyph unicode="&#x1009;&#x1039;&#x1050;" horiz-adv-x="1183" d="M121 320q0 85 91 85q48 0 75 -45q87 -160 273 -159q129 0 221 86t92 211q0 129 -92 214t-221 85q-79 0 -150 -28q-90 -41 -99 -108q18 -23 18 -54q0 -91 -86 -91q-48 0 -81 47q-26 42 -27 93q0 79 42 139q129 182 383 182q197 0 337.5 -129.5t151.5 -321.5l3 -54 q6 -99 -91 -249q-158 -200 -401 -200q-134 0 -263 75v-921q0 -32 11 -52h-181q-4 25 -4 52v1121q-2 9 -2 22zM359 -485q0 87 33 161.5t90.5 131.5t133.5 89.5t163 32.5q89 0 166.5 -32.5t135 -89.5t91 -131.5t33.5 -161.5q0 -137 -80.5 -241.5t-206.5 -145.5l-57 148 q83 25 134 91t51 153q0 51 -20.5 99.5t-57 83.5t-84.5 55.5t-102 20.5q-56 0 -104 -20.5t-83.5 -55.5t-56.5 -83.5t-21 -99.5q0 -87 54 -155.5t136 -90.5l-62 -149q-126 42 -206 147.5t-80 242.5zM682 -482q0 -42 31.5 -73t75.5 -31q43 0 76.5 31t33.5 73q0 47 -33.5 77 t-76.5 30q-44 0 -75.5 -30t-31.5 -77z" />
<glyph unicode="&#x1009;&#x1039;&#x1076;" horiz-adv-x="1195" d="M121 320q0 85 91 85q48 0 75 -45q87 -160 273 -159q129 0 221 86t92 211q0 129 -92 214t-221 85q-79 0 -150 -28q-90 -41 -99 -108q18 -23 18 -54q0 -91 -86 -91q-48 0 -81 47q-26 42 -27 93q0 79 42 139q129 182 383 182q197 0 337.5 -129.5t151.5 -321.5l3 -54 q6 -99 -91 -249q-158 -200 -401 -200q-134 0 -263 75v-921q0 -32 11 -52h-181q-4 25 -4 52v1121q-2 9 -2 22zM399 -606q0 43 17 81.5t45 68t66.5 45t83.5 15.5q96 0 158.5 -61.5t62.5 -148.5q0 -68 -41 -126q89 7 154 72q76 75 76 185q0 101 -76 177q-72 68 -158 73 q-17 -78 -67 -113.5t-134 -37.5q-98 9 -139.5 58.5t-41.5 128.5q0 45 16 111l148 -11q-18 -65 -18 -92q0 -51 39 -63q32 0 50.5 38t12.5 117q54 15 108 17h17q161 -5 276 -117q123 -120 123 -286q0 -87 -31 -158.5t-90 -133.5q-120 -119 -295 -119q-159 0 -283 113 q-11 3 -19 12q-60 71 -60 155zM540 -603q0 -30 23 -51.5t52 -21.5q33 0 56 21.5t23 51.5q0 33 -23 56t-56 23q-29 0 -52 -23t-23 -56z" />
<glyph unicode="&#x1009;&#x1039;&#x100b;" horiz-adv-x="1189" d="M121 320q0 85 91 85q48 0 75 -45q87 -160 273 -159q129 0 221 86t92 211q0 129 -92 214t-221 85q-79 0 -150 -28q-90 -41 -99 -108q18 -23 18 -54q0 -91 -86 -91q-48 0 -81 47q-26 42 -27 93q0 79 42 139q129 182 383 182q197 0 337.5 -129.5t151.5 -321.5l3 -54 q6 -99 -91 -249q-158 -200 -401 -200q-134 0 -263 75v-921q0 -32 11 -52h-181q-4 25 -4 52v1121q-2 9 -2 22zM395 -322q0 57 25 108.5t70 92.5q48 37 103.5 58t118.5 21q67 0 121 -20t103 -59q15 -15 32 -37t38 -51l-121 -93q-15 24 -28 40t-28 29q-45 45 -117 45 q-67 0 -114 -41.5t-47 -92.5t47 -92t114 -41q35 0 66 13t51 31q11 7 25 25.5t28 52.5l113 -87q-12 -56 -54.5 -95.5t-99.5 -67.5q-28 -12 -59 -14.5t-70 -2.5q-128 0 -230 80q-8 8 -17.5 18t-19.5 23q-20 35 -34 73.5t-16 83.5zM443 -571q132 -96 286 -96q112 0 204 58 l112 -67v-131h104v-142h-255l-2 155q-35 -9 -77.5 -14.5t-85.5 -5.5q-66 0 -129 13.5t-112 35.5h2l-47 19v175z" />
<glyph unicode="&#x1009;&#x1039;&#x100d;" horiz-adv-x="1201" d="M121 320q0 85 91 85q48 0 75 -45q87 -160 273 -159q129 0 221 86t92 211q0 129 -92 214t-221 85q-79 0 -150 -28q-90 -41 -99 -108q18 -23 18 -54q0 -91 -86 -91q-48 0 -81 47q-26 42 -27 93q0 79 42 139q129 182 383 182q197 0 337.5 -129.5t151.5 -321.5l3 -54 q6 -99 -91 -249q-158 -200 -401 -200q-134 0 -263 75v-921q0 -32 11 -52h-181q-4 25 -4 52v1121q-2 9 -2 22zM422 -223q21 30 36.5 52.5t29.5 37.5q45 40 95.5 59t114.5 19q58 0 109.5 -21t96.5 -57q42 -41 66 -93.5t24 -109.5q-2 -43 -14.5 -82.5t-33.5 -75.5 q-8 -13 -17 -22t-17 -18q-95 -81 -214 -80q-36 0 -65.5 3t-54.5 13v-29q54 -22 123 -22q104 0 189 58l106 -68v-130h96v-144h-238l-2 157q-32 -11 -72 -16t-79 -5q-62 0 -121 13.5t-104 36.5h2l-44 18v295l106 87q13 -33 26.5 -51t22.5 -26q18 -18 47.5 -31t61.5 -13 q62 0 106 40t44 92q0 53 -44 94t-106 41q-67 0 -109 -45q-16 -13 -28 -29.5t-25 -40.5z" />
<glyph unicode="&#xd;" horiz-adv-x="533" />
<glyph unicode=" "  horiz-adv-x="533" />
<glyph unicode="&#x09;" horiz-adv-x="533" />
<glyph unicode="&#xa0;" horiz-adv-x="533" />
<glyph unicode="!" horiz-adv-x="677" d="M167 161l167 182l9 -7q58 -63 100 -173l3 -7l-168 -186l-5 19q-38 109 -96 164zM304 477l27 225q17 129 28.5 239.5t18.5 206.5q11 153 8.5 273.5t-12.5 215.5v8l197 95v-88v-75.5t-2 -65.5q-7 -108 -20.5 -231t-37.5 -265l-25 -167l-32 -239z" />
<glyph unicode="&#x22;" horiz-adv-x="874" d="M88 1018l8 7q150 129 159 278q11 123 -92 216l-10 7l160 184l10 -8q112 -112 102 -265q-17 -218 -293 -463l-9 -11zM425 1018l8 7q149 129 159 278q9 123 -91 216l-11 7l160 184l11 -8q112 -112 101 -265q-17 -218 -293 -463l-10 -11z" />
<glyph unicode="#" horiz-adv-x="1225" d="M55 571l98 114h239q0 3 10 37t23.5 73t23.5 73t14 45h-310l102 112h242q4 14 24 77t42.5 131t39.5 122l17 54l115 130l21 -10q-35 -133 -65 -242q-27 -91 -49 -171t-25 -91h211q3 7 21.5 66.5t43.5 130.5q27 85 57 187l113 130l40 -10q-40 -133 -75 -242 q-27 -91 -54 -171t-31 -91h293l-95 -112h-231q0 -7 -10 -39.5t-24 -69.5t-24.5 -73.5t-14.5 -45.5h296l-97 -114h-232q-7 -13 -26 -72.5t-39.5 -125.5t-37 -119t-16.5 -57l-134 -129l-20 10q40 130 75 235q27 88 51.5 168.5t27.5 89.5h-211q-4 -13 -22.5 -72.5t-39 -125.5 t-39.5 -119l-19 -53l-133 -129l-20 10q41 129 75 234q27 89 51 167.5t31 87.5h-303zM507 685h215q0 3 10.5 37t24 73t23.5 73t13 45h-214q0 -7 -10 -39.5t-22 -72t-24 -73.5t-16 -43z" />
<glyph unicode="$" horiz-adv-x="1117" d="M135 327l128 136l6 -9q38 -45 89 -70.5t111 -43.5q0 11 12.5 84t26 158t25 156.5t11.5 75.5q-5 3 -23 20l-14 14q-146 132 -146 265v17q17 252 283 320q0 3 8.5 47.5t14.5 96.5q11 60 24 136l99 95l-28 -177q-11 -68 -20.5 -127.5t-9.5 -66.5h30q127 0 218 -37l15 -8 l-113 -133l-10 7q-58 50 -157 78q0 -9 -10.5 -68.5t-20.5 -128t-20 -127.5t-10 -63q3 -3 11.5 -10t16.5 -14l15 -17q158 -150 158 -283v-14q-11 -129 -106 -238q-88 -102 -208 -129q-2 -6 -9.5 -54t-17.5 -107q-13 -64 -24 -149l-101 -99q17 99 30 181q14 67 22.5 130.5 t12.5 74.5q-7 -4 -19.5 -4h-22.5q-14 0 -28 -4q-126 0 -238 82zM497 1213q0 -72 85 -157q4 14 11 59.5t15.5 98.5t14.5 97.5t10 53.5q-126 -9 -136 -143v-9zM551 340q150 34 167 204v11q0 79 -89 177l-2 3q-7 7 -7 11q-3 -17 -13 -77t-20.5 -130t-21.5 -127.5t-14 -71.5z " />
<glyph unicode="%" horiz-adv-x="1586" d="M173 885q11 194 143 365q138 169 281 167q61 0 93 -28t47 -65t18.5 -81.5t0.5 -81.5q-11 -183 -143 -354q-127 -156 -279 -167q-21 0 -51.5 12t-56 41t-42.5 75t-11 117zM300 0l857 1467h4l130 102l47 -20q-242 -409 -428 -732q-82 -140 -159 -272.5t-138 -234.5 q-72 -122 -136 -228l-161 -96zM304.5 875q11.5 -75 38.5 -102q35 -34 86 -24q41 7 76.5 41t56.5 68q27 47 42.5 98.5t22.5 118.5q6 116 -25 178q-16 34 -38.5 41t-49.5 7q-55 0 -111 -58.5t-80 -146.5q-30 -146 -18.5 -221zM868 384q11 194 142 365q138 171 281 167 q61 0 93.5 -27t47.5 -64.5t18.5 -82.5t-0.5 -81q-9 -184 -142 -354q-126 -156 -280 -167q-20 0 -50.5 11.5t-56.5 40.5t-42.5 75t-10.5 117zM999 375q11 -75 40 -102q34 -35 85 -24q41 6 76.5 40t55.5 69q27 47 42.5 98t22.5 120q7 116 -23 176q-18 35 -40 41.5t-49 6.5 q-55 0 -111 -57.5t-80 -145.5q-30 -147 -19 -222z" />
<glyph unicode="&#x26;" horiz-adv-x="1696" d="M130 378q21 177 127 324t315 265q-21 80 -34.5 165.5t-6.5 144.5q20 189 125 305q112 125 266 122q72 0 114.5 -25t65 -58t27.5 -71.5t5 -62.5q0 -129 -99 -254.5t-285 -248.5q0 -6 18 -67t45 -127q165 182 467 181h134q53 -4 108 0q48 3 102 14t104 38q38 21 56.5 64.5 t26.5 102.5q4 67 -46 141l-6 6l131 158l12 -18q27 -63 27 -144v-34q-17 -237 -188 -374q-164 -140 -437 -139h-9q-66 -275 -265 -507q83 -160 156 -159q60 0 140 123l10 12q4 -6 11 -17q13 -21 13 -42q0 -66 -97 -156q-98 -87 -157 -87q-97 0 -206 188q-218 -188 -439 -188 q-63 0 -127 26t-113.5 78t-75 132.5t-15.5 188.5zM333 454q-7 -114 24.5 -188t76.5 -115.5t95.5 -57t84.5 -8.5q70 7 126 33t125 86q-3 3 -4.5 8t-4.5 12q-4 7 -7 11q-36 69 -77.5 179t-80 216.5t-65 183.5t-28.5 83q-245 -152 -265 -443zM689 1365q0 -106 48 -297 q229 158 240 355q0 11 -2 42t-16 61t-41 56t-76 29q-135 11 -153 -212v-34zM837 723q4 -6 14.5 -36t24.5 -61q15 -39 36 -85q27 -65 45 -112.5t34 -78.5q132 216 164 436h-13q-102 0 -176.5 -17.5t-128.5 -45.5z" />
<glyph unicode="'" horiz-adv-x="905" d="M169 1094q75 221 131.5 424t147.5 414q19 37 59 37q7 0 30 -4.5t44.5 -10.5t41.5 -15t20 -21q-32 -90 -80 -195.5t-100.5 -215t-102.5 -220t-88 -219.5q-3 -11 -22.5 -15t-40 0.5t-34.5 14t-6 26.5z" />
<glyph unicode="(" horiz-adv-x="810" d="M156 814q17 225 72 414t148 351.5t224.5 306.5t301.5 283l14 10l27 -75l-3 -7q-140 -123 -245.5 -249t-182 -268.5t-120.5 -306t-58 -363.5q-11 -161 -2.5 -292.5t39 -251.5t82 -234.5t123.5 -239.5l3 -8l-146 -170l-8 13q-78 133 -134 257t-90 254t-44.5 269.5 t-0.5 306.5z" />
<glyph unicode=")" horiz-adv-x="817" d="M-123 -211l6 7q137 126 244 250t182 264t121.5 300t58.5 360q11 156 2.5 292.5t-39 259.5t-82 240.5t-121.5 242.5l-4 7l136 157l11 10l6 -13q79 -132 135 -259t90 -257.5t44 -272t0 -308.5q-17 -225 -71.5 -412.5t-148 -349t-226.5 -304.5t-300 -279l-13 -10z" />
<glyph unicode="*" horiz-adv-x="979" d="M92 987q88 82 160 143q61 55 114 100.5t59 52.5q-61 58 -120 133t-117 164l-4 10l136 95l7 -10q58 -109 163 -228q3 17 12 63t15 100l22 137l115 81l20 17q-14 -99 -27 -180q-11 -68 -22.5 -134.5t-15.5 -83.5q24 20 62 55t74.5 66.5t66.5 55.5l29 24l122 31l11 -17 q-99 -88 -181 -160q-68 -61 -127.5 -112.5t-65.5 -57.5l20 -14q177 -137 290 -194l15 -11l-163 -112l-3 4q-123 75 -197 149q-3 -14 -10.5 -60t-12.5 -93q-11 -61 -22 -129l-136 -93q17 99 31 188q14 75 22.5 143t15.5 88q-21 -20 -56.5 -50.5t-70 -61t-59.5 -53.5l-26 -23 l-135 -43z" />
<glyph unicode="+" horiz-adv-x="1351" d="M173 579l85 170h399q0 7 10 68t21 133q14 85 30 191l154 77q-24 -122 -38 -223q-14 -89 -25.5 -164t-11.5 -82h459l-85 -170h-401q-3 -7 -12 -73.5t-23 -141.5q-14 -88 -30 -197l-157 -99q23 132 41 245q17 92 27.5 174t12.5 92h-456z" />
<glyph unicode="," horiz-adv-x="455" d="M-24 -384l7 6q149 129 160 279q11 123 -93 215l-9 7l160 184l10 -7q112 -112 102 -265q-17 -218 -293 -464l-9 -10z" />
<glyph unicode="-" horiz-adv-x="987" d="M88 586l73 153h761l-74 -153h-760z" />
<glyph unicode="." horiz-adv-x="507" d="M126 132l167 184l11 -6q58 -64 97 -175l4 -5l-170 -188l-4 20q-38 110 -96 164z" />
<glyph unicode="/" horiz-adv-x="915" d="M-99 -181l1039 1883l217 35l-1037 -1883z" />
<glyph unicode="0" horiz-adv-x="1118" d="M88 653q0 339 145 540.5t381 201.5q191 0 303.5 -179t112.5 -493q0 -328 -143 -531t-379 -203q-211 0 -315.5 186t-104.5 478zM308 718q0 -269 82 -427.5t220 -158.5h28q12 0 33 5q92 82 138 218.5t46 328.5q0 297 -91 441t-213 144q-16 -1 -72 -9q-86 -88 -128.5 -224 t-42.5 -318z" />
<glyph unicode="1" horiz-adv-x="1118" d="M134 1096l499 299l92 -38v-1342l-180 -26h-32v991q0 108 7 226q-61 -55 -102 -81l-76 -48l-177 -57z" />
<glyph unicode="2" horiz-adv-x="1118" d="M80 92l100 106q210 226 298.5 335.5t138.5 225t50 216.5q0 129 -71.5 202.5t-195.5 73.5q-44 0 -107 -14.5t-141 -41.5l-36 105q111 47 212 71t190 24q173 0 272.5 -97t99.5 -270q0 -209 -138 -400.5t-451 -498.5q83 9 229 10h435v-103l-182 -25q-71 -11 -99 -11h-578z " />
<glyph unicode="3" horiz-adv-x="1118" d="M132 70l109 85h52q1 -24 31 -36.5t88 -12.5q63 0 131 16q72 64 108.5 134.5t36.5 143.5q0 126 -82 197.5t-223 71.5h-47q-25 0 -60 -2l-67 -3l-11 111q230 15 345.5 87.5t115.5 205.5q0 90 -66.5 144.5t-178.5 54.5q-47 0 -101 -10t-104 -22l-19 104q105 28 193 42 t158 14q161 0 253.5 -73t92.5 -201q0 -126 -89.5 -216.5t-267.5 -146.5q212 1 301 -90t89 -228q0 -151 -96.5 -260t-245.5 -151t-415 -42z" />
<glyph unicode="4" horiz-adv-x="1118" d="M13 610l543 763l181 24h42v-787h333v-96l-149 -22q-74 -11 -97 -11h-89v-466l-175 -26h-35v492h-525zM161 606q70 4 125 4h288v117q0 95 18 524q-85 -156 -165 -274l-155 -229q-56 -82 -111 -142z" />
<glyph unicode="5" horiz-adv-x="1118" d="M134 70l113 84h44q11 -20 27.5 -28t40.5 -8q75 0 190 25q71 69 106.5 148.5t35.5 169.5q0 149 -94.5 229t-274.5 80q-65 0 -119 -5l-32 48l180 536l163 22q60 8 85 8h402v-85l-186 -39q-39 -8 -90 -8h-207l-118 -362l38 2q200 9 340 -80.5t140 -293.5 q0 -231 -190.5 -378.5t-566.5 -147.5z" />
<glyph unicode="6" horiz-adv-x="1118" d="M116 528q0 362 217 614.5t666 252.5l27 -80l-103 -90h-57q-3 21 -19.5 32.5t-67.5 11.5q-55 0 -134 -20q-147 -89 -225 -256t-87 -415q88 86 180.5 129t188.5 43q145 0 229.5 -89t84.5 -237q0 -184 -134.5 -309.5t-338.5 -125.5q-193 0 -310 143.5t-117 395.5zM336 473 q11 -172 91.5 -268t200.5 -96q21 0 89 9q48 46 72 107.5t24 136.5q0 106 -59 176t-150 70q-63 0 -131 -33.5t-137 -101.5z" />
<glyph unicode="7" horiz-adv-x="1118" d="M97 1239v104l183 28q56 8 73 8h624l29 -58l-522 -1152q-35 -79 -63.5 -108t-67.5 -48l-104 -51l-46 42l459 1060q41 95 94 183q-76 -7 -172 -8h-487z" />
<glyph unicode="8" horiz-adv-x="1118" d="M104 297q0 126 77 212t235 180q-165 110 -219 172t-54 169q0 160 133.5 262.5t340.5 102.5q174 0 271.5 -79t97.5 -220q0 -109 -67 -190.5t-226 -174.5q225 -130 269 -211.5t44 -164.5q0 -166 -143.5 -266t-376.5 -100q-181 0 -281.5 81.5t-100.5 226.5zM272 329 q0 -106 72 -169t192 -63q58 0 135 19q58 44 86.5 93.5t28.5 105.5q0 95 -59 158.5t-223 154.5q-132 -86 -182 -150t-50 -149zM355 1077q0 -60 32 -114.5t217 -165.5q89 54 152 117t63 161q0 91 -65 149.5t-164 58.5q-54 0 -128 -14q-55 -41 -81 -88.5t-26 -103.5z" />
<glyph unicode="9" horiz-adv-x="1118" d="M90 68l102 90h58q3 -22 19.5 -32t66.5 -10q51 0 135 16q148 95 226 263.5t86 411.5q-87 -87 -178.5 -130.5t-190.5 -43.5q-144 0 -228.5 88t-84.5 235q0 186 136.5 311.5t334.5 125.5q195 0 312 -143t117 -395q0 -356 -214 -612t-669 -256zM304 1022q0 -109 59 -178.5 t151 -69.5q62 0 128.5 33.5t136.5 100.5q-7 167 -86 266.5t-201 99.5q-25 0 -94 -7q-46 -53 -70 -113.5t-24 -131.5z" />
<glyph unicode=":" horiz-adv-x="559" d="M121 128l173 191l12 -7q60 -67 101 -181l4 -7l-177 -195l-4 22q-39 113 -99 170zM156 996l174 191l10 -7q60 -68 103 -180l3 -8l-176 -195l-4 21q-39 113 -100 170z" />
<glyph unicode=";" horiz-adv-x="492" d="M11 -400l6 6q156 135 168 292q9 126 -97 223l-10 7l167 191l10 -7q117 -118 106 -276q-18 -227 -304 -482l-12 -11zM131 996l175 191l9 -7q60 -68 103 -180l4 -8l-177 -195l-3 21q-40 113 -100 170z" />
<glyph unicode="&#x3c;" horiz-adv-x="1519" d="M177 592l124 145l989 595l13 -17l-85 -100q-17 -18 -31 -37.5t-29 -32.5q-14 -18 -28 -33q-198 -117 -357 -209q-68 -39 -135.5 -77.5t-120.5 -69t-88 -49.5t-39 -22q361 -185 691 -551l7 -6l-117 -128l-7 11q-301 340 -773 574z" />
<glyph unicode="=" horiz-adv-x="1391" d="M160 446l74 160h1048l-77 -160h-1045zM206 843l73 160h1051l-79 -160h-1045z" />
<glyph unicode="&#x3e;" horiz-adv-x="1519" d="M230 24l85 100q32 39 58.5 71t29.5 32q198 117 358 209q68 39 133.5 77.5t119 69t86.5 52t41 24.5q-181 92 -352.5 227t-337.5 319l-8 7l117 131l10 -11q309 -347 769 -574l15 -7q-36 -42 -64 -74q-21 -21 -43 -49q-9 -15 -21 -26l-981 -595z" />
<glyph unicode="?" horiz-adv-x="1045" d="M237 539v31q18 220 214 411l80 86q64 57 113.5 132.5t75 151.5t18 149t-64.5 124q-53 53 -142 49q-67 -4 -116.5 -22t-84.5 -39q-39 -24 -72 -57l-9 50q42 71 102 110t120 58.5t111.5 22.5t80.5 3q82 -2 134.5 -29t84.5 -65q68 -96 54 -230q-21 -202 -251 -380l-125 -110 q-106 -110 -117 -262v-29q0 -36 3 -49q4 -11 -26 -44.5t-69 -69.5q-43 -43 -100 -92q-2 18 -6 33q-7 36 -8 67zM245 134q-3 43 12.5 75.5t38.5 55t49.5 36.5t44.5 21q14 7 35 14t21 4q4 -61 4.5 -99.5t3.5 -63.5q0 -28 3 -43q7 -49 -41 -99t-161 -99q-4 47 -4 82t-2 63 q-4 33 -4 53z" />
<glyph unicode="@" horiz-adv-x="1708" d="M142 245q18 255 92 480t217 395q85 103 168 167t164 100.5t168.5 48.5t178.5 10q113 -4 187.5 -34t124.5 -87q57 -64 94 -164.5t24 -285.5q-15 -187 -57.5 -309.5t-113.5 -238.5q-71 -113 -152.5 -163.5t-163.5 -50.5q-57 0 -88 36q-49 49 -49 181q0 17 1.5 49t1.5 43 q-67 -121 -149 -209q-102 -107 -169 -107q-40 0 -64 25q-49 57 -40 203q22 262 177 456q160 198 358 198q11 0 30.5 -1.5t37.5 -5.5q21 -2 46 -6l-64 -397l-18 -160q-11 -103 7 -141q14 -33 67 -32q43 0 82 45.5t71 116.5q36 71 57 151t28 193q22 333 -106 471 q-46 50 -108 68t-146 18q-143 0 -265 -78t-222 -213q-49 -66 -90 -154t-71 -179.5t-48 -182t-18 -165.5q-3 -180 14.5 -302t78.5 -183q57 -64 155 -60q124 7 232.5 72.5t164.5 136.5l18 21q7 -6 15 -21q14 -28 13 -45q-4 -43 -40.5 -85.5t-104.5 -92.5q-92 -68 -193.5 -94 t-186.5 -26q-134 0 -211 85q-64 70 -106.5 196t-28.5 307zM677 418q-7 -57 2 -81.5t15 -30.5q3 -12 18 -12q78 0 167 149q92 159 124 354q4 7 4 14q0 15 2 22q-6 0 -20 1.5t-32 4.5q-18 4 -39 4q-92 0 -160 -117q-70 -120 -81 -308z" />
<glyph unicode="A" horiz-adv-x="1473" d="M56 17q4 17 13.5 37t24.5 39t25 26l56 16q82 33 138.5 99t82.5 116q27 57 76.5 172.5t98.5 250.5q69 211 124 333.5t101 191.5q43 62 89.5 110.5t112.5 91.5q-135 29 -271 29q-399 0 -419 -334q-2 -24 -2 -47q0 -90 34 -173l-178 -199q-20 72 -26 142q-5 53 -5 96v26 q21 285 236 472q182 149 588 150q20 0 61.5 -2t84 -5t78.5 -6t47 -3h82q-45 -77 -80.5 -224t-44.5 -358q-8 -164 -8 -327v-37q1 -182 14 -337q3 -27 6.5 -82.5t10.5 -83.5q3 -6 5 -10.5t28 -7.5q23 -3 46 4.5t33 13.5q34 18 60 37.5t42 19.5q18 -3 18 -19q0 -14 -15 -38 q-29 -48 -74 -85.5t-93 -63.5q-48 -24 -90 -36q-22 -6 -40 -6t-33 5q-56 29 -72 131q-17 112 -21.5 234.5t-4.5 241.5q-14 -11 -30.5 -22t-26.5 -22h-304q-43 -112 -100.5 -207.5t-120.5 -154.5l-66 -57q57 -16 95 -16h4q6 0 26 6.5t33 13.5q9 6 22.5 7.5t20.5 -5t2 -22.5 t-28 -39q-60 -66 -103 -84q-32 -14 -53 -14q-7 0 -12 1q-11 0 -31 8q-26 5 -68.5 17t-72.5 15l-20 -7t-43 -14.5t-39 -14.5l-17 -7q-11 0 -7 17zM688 724h310q0 96 5 171.5t10 131.5q3 34 14 103t22.5 141.5t23 130.5t17.5 68q-59 -26 -112.5 -102t-102 -177t-90 -211.5 t-75.5 -206.5z" />
<glyph unicode="B" horiz-adv-x="1423" d="M56 948q23 317 252 519q231 201 567 201q421 -1 421 -290q0 -15 -1 -31q-17 -260 -311 -412q140 -69 194 -167t54 -240q0 -69 -38.5 -159.5t-112 -171.5t-181 -137.5t-249.5 -56.5q-60 0 -112 11h2q7 0 -10.5 3t-34.5 6q-23 6 -43 10t-36 4q-18 0 -44 -10.5t-50 -15.5 q-19 -7 -34 -10.5t-24 10.5q9 39 26 63q9 13 17 22q6 4 19 13.5t23 16.5q14 5 30 17t43 42q16 17 26 44.5t13 54.5l145 1024q11 57 60.5 99t102.5 70q26 9 49 7.5t16 -17.5q-16 -18 -24 -44t-15 -49q-11 -29 -14 -56q-16 -92 -27 -186t-28 -187q26 -7 44.5 -5t34.5 2h13 q14 0 25.5 1.5t37.5 11.5h-3q33 14 74.5 48.5t77.5 79t62.5 95.5t30.5 97v17q0 66 -20 108q-24 48 -69 75.5t-105.5 39t-130.5 11.5q-36 0 -71 -1.5t-71 -4.5q-86 -7 -166.5 -40t-140.5 -86q-111 -109 -129 -270v-21q-1 -39 5 -75q8 -46 25 -100l-185 -191q-6 56 -10 110 q-2 29 -1 56q0 23 1 45zM559 162q53 -6 104 -9.5t101 -3.5q138 0 216 78t87 216q1 14 1 27q0 107 -64 207q-26 46 -79 84t-95 61q-7 0 -12.5 2.5t-11.5 2.5h-96q-20 -139 -43 -274.5t-42 -274.5q-3 -37 -23.5 -66.5t-42.5 -49.5z" />
<glyph unicode="C" horiz-adv-x="1413" d="M189 568v46.5t2 49.5q17 208 84.5 391.5t183.5 325.5q116 139 263 213t305 74q86 0 157 -26.5t100 -52.5q20 -17 34 -43q13 -26 13 -61q0 -33 -27 -78q-6 -14 -14.5 -31.5t-14.5 -31.5q-17 -26 -31.5 -39t-40.5 -13q-7 0 -12 1.5t-22 8.5q14 22 17 36t6 29 q0 29 -11.5 62.5t-56.5 59.5q-37 23 -83 38.5t-99 15.5q-218 0 -371 -219q-151 -218 -177 -571q-4 -23 -4 -46v-46q0 -205 72 -338q82 -158 237 -158h2q59 0 120 20t117 66q53 40 102.5 95.5t83.5 122.5l19 4q30 -20 26 -43q-6 -36 -37.5 -93t-91.5 -119 q-205 -215 -455 -215q-202 0 -307 182q-47 76 -68 172t-21 211z" />
<glyph unicode="D" horiz-adv-x="1652" d="M54 842q-2 23 -2 47q0 30 4 59q26 347 258 535h-4q228 185 640 185q173 0 291.5 -42.5t192.5 -122.5q73 -81 102 -189q25 -93 25 -202q0 -19 -1 -39q-7 -86 -22 -176.5t-41.5 -179.5t-63 -172t-81.5 -149q-41 -56 -102 -123.5t-136.5 -127t-163.5 -99t-186 -39.5h-113 q-14 0 -53 6.5t-84 13.5t-81.5 10t-38.5 3q-18 -6 -59 -21.5t-61 -15.5q-9 0 -6 17t11 36.5t19.5 39.5t24.5 27q46 29 76.5 72t46.5 125q39 248 82 496t83 492q11 57 58.5 101.5t100.5 67.5q29 9 52 6t17 -20q-17 -19 -26.5 -44t-16.5 -48q-11 -26 -14 -53l-183 -1070 q-7 -23 -19 -43t-21 -37q45 -9 107 -16q39 -4 78 -4q23 0 46 1q76 0 143.5 29.5t123.5 72.5t97 93t64 89q57 132 91.5 287t34.5 311q0 244 -127 378t-382 134q-151 0 -263.5 -33t-187 -88t-114 -125.5t-42.5 -146.5q-2 -20 -2 -41q0 -75 25 -159l-182 -204q-9 44 -15 96z " />
<glyph unicode="E" horiz-adv-x="1396" d="M56 945q14 161 80 295t178 237q165 146 450 146l511 2q23 -2 49 0q54 6 94 24l5 3q24 6 22.5 -17t-22.5 -46q-33 -41 -83 -85q-47 -42 -106 -41h-8q-106 4 -208.5 7.5t-208.5 6.5q-23 -139 -41 -268t-41 -267h166q68 0 145.5 6.5t160.5 19.5q-139 -192 -254 -192 q-17 0 -33.5 1.5t-32.5 4.5q-53 7 -81 7.5t-97 3.5q-26 -132 -48.5 -265.5t-48.5 -267.5q-3 -22 -13 -42.5t-17 -26.5l-6 -9q26 -6 88.5 -16.5t182.5 -10.5q36 0 77.5 2t87.5 5q13 0 38 6.5t49.5 14.5t46 15t28.5 10q16 11 34 -3q5 -4 6 -12q0 -17 -27 -48 q-46 -53 -113.5 -93.5t-101.5 -44.5q-16 0 -49 -2t-73 -2q-57 0 -111 2t-77 6q-14 0 -51.5 4.5t-80.5 11.5t-77.5 11.5t-42.5 4.5q-16 -6 -55 -21t-63 -15q-9 0 -7.5 15t9.5 34.5t19.5 37.5t22.5 29q29 19 47.5 37.5t33 46t26 70.5t21.5 113q40 225 66 388.5t46 288.5 t35 222.5t27 187.5h-12q-171 0 -275 -90q-102 -99 -112 -244q-3 -20 -2 -42q0 -72 28 -153l-188 -208q-9 56 -13 107q-2 27 -1 54q0 22 1 44z" />
<glyph unicode="F" horiz-adv-x="1351" d="M53 945q21 320 255 532q165 146 459 146l514 2q23 -2 51 0q53 6 91 24l7 3q19 6 19 -15.5t-19 -47.5q-34 -41 -86 -85q-49 -42 -104 -41h-8q-108 4 -212.5 7.5t-213.5 6.5q-23 -148 -46 -293.5t-46 -294.5h165q82 0 161.5 9.5t158.5 16.5q-135 -185 -244 -185 q-13 0 -28 1.5t-32 1.5q-26 4 -56 4h-66h-85q-21 -126 -43.5 -250t-40.5 -249q-5 -23 -17.5 -41t-21.5 -35q53 -20 96 -20q9 0 32.5 5t30.5 12q20 17 39 5q6 -4 6 -10q0 -16 -32 -51q-59 -67 -101 -85q-30 -13 -51 -13q-8 0 -14 2q-6 0 -26 4.5t-44.5 11t-51 12t-43.5 8.5 q-7 3 -25 -3t-35.5 -15t-36 -15.5t-25.5 -6.5q-9 0 -7.5 15.5t9.5 35.5t19.5 39t22.5 30q26 19 46 35.5t34.5 41.5t24.5 62.5t20 104.5q46 277 89 552.5t86 557.5h-17q-172 0 -275 -90q-98 -92 -111 -244q-1 -14 -1 -29q0 -30 6 -64q8 -48 24 -102l-185 -208q-14 45 -15 110 t-1 95z" />
<glyph unicode="G" horiz-adv-x="1419" d="M191 657q29 430 268 724q234 287 568 287q43 0 104 -9.5t111 -38t71 -80.5q8 -18 8 -42q0 -39 -23 -91q-3 -3 -6 -13q-3 -6 -7 -16.5t-10 -22.5q-26 -63 -69 -63q-6 0 -11.5 1.5t-25.5 8.5q20 39 20 62q1 6 1 11q0 28 -12 55q-15 33 -51 59q-37 23 -83 38.5t-102 15.5 q-223 0 -371 -219q-69 -106 -117 -257.5t-60 -329.5q-4 -23 -4 -46.5v-46.5q0 -201 72 -324q79 -149 245 -149q76 0 152 40t151 112q14 76 28 150q9 63 20.5 130t18.5 121h-145q-152 0 -281 -54q33 70 64 116.5t55 62.5q23 17 62.5 23.5t95.5 9.5h304q0 -14 -5.5 -76 t-14.5 -160t-24 -222t-35 -256q-17 -108 -35 -196t-45 -151q-46 -119 -128 -220q-80 -97 -179 -149.5t-201 -52.5q-202 0 -308 181l168 163q74 -222 239 -222q122 0 192 96q33 53 57.5 152.5t47.5 230.5q3 16 5 45t9 55q3 29 9 62q-208 -159 -399 -159q-97 0 -174 48.5 t-131 133.5q-92 156 -92 385q0 43 3 87z" />
<glyph unicode="H" horiz-adv-x="1654" d="M60 874l-2 36q0 35 5 68q16 294 211 485q191 183 496 183h92q-33 -97 -48 -178t-24 -134l-63 -363h491q7 23 17 72.5t18.5 107.5t18 115.5t17.5 104.5q14 74 34.5 160.5t58.5 177.5t94.5 178t135.5 164q96 86 188.5 104.5t165.5 21.5q29 0 54 1t48 12h3q17 9 17 -17 q0 -22 -51 -62q-33 -26 -61 -31.5t-59 -5.5q-21 0 -37 -3q-47 -7 -106.5 -32t-101.5 -77q-30 -45 -59.5 -105t-54.5 -124.5t-43 -129t-26 -117.5q-45 -294 -96.5 -589.5t-88.5 -586.5q-6 -32 -7 -54q-1 -8 1 -14q4 -24 15 -32t26.5 -3t31.5 11q20 9 31.5 16.5t17.5 13.5 q11 6 29 19t34 27q0 -11 3 -20q0 -6 1.5 -13t1.5 -10q-3 -26 -12.5 -43t-35.5 -46q-27 -26 -54 -48t-46 -38q-23 -16 -43 -30q-29 -17 -57 -30t-46 -13q-40 0 -59.5 25t-25.5 63q-5 31 -6 64v15q2 42 6 72l10 68q7 54 23 167.5t49 331.5h-485q-26 -142 -49.5 -285.5 t-50.5 -289.5q-6 -37 -17.5 -51.5t-18.5 -20.5l-3 -3q54 -20 96 -20q6 0 26 6.5t34 13.5q20 13 38 1q5 -4 5 -10q0 -15 -27 -47q-57 -66 -99 -86q-32 -15 -55 -15q-7 0 -12 1q-9 0 -29 8q-30 5 -69.5 15.5t-69.5 13.5q-7 0 -31.5 -8.5t-43.5 -15.5q-17 -5 -27 -9t-20 -4 q-9 0 -7.5 15.5t11 35.5t22.5 37.5t24 27.5q26 20 45.5 38t32.5 46t25.5 71t21.5 112l179 1100h-13q-377 0 -397 -307q-2 -18 -2 -36q0 -83 34 -168l-191 -208q-5 53 -9 107z" />
<glyph unicode="I" horiz-adv-x="845" d="M68 20q1 17 9.5 38t21.5 41t24 30q13 9 27.5 12.5t31.5 10.5q20 6 36 11t24 12q26 26 39 74t27 137l154 1071q-26 -7 -64 -10t-41 -3q-23 0 -50 11.5t-73 77.5q-32 36 -32 51q0 5 4 8q15 10 42 -3q13 -6 35 -6h27q11 0 48.5 4.5t87.5 9.5t101.5 11.5t86.5 14.5q9 0 18 1 t15 1q7 0 10 3q6 0 11 1q36 1 60 -17q28 -20 42 -33l13 -14q23 -22 38 -55t-11 -50l-8 7q-3 3 -16 10q-9 6 -25.5 11t-40.5 1q-14 0 -46.5 -1.5t-59.5 -7.5q-46 -317 -96 -624.5t-95 -624.5q-4 -23 -13.5 -41.5t-16.5 -30.5q34 -6 73 -13t59 -7q9 0 29 5t30 11q24 17 44 7 q6 -3 5 -10q0 -15 -31 -49q-63 -66 -103 -86q-31 -15 -53 -15q-7 0 -13 1q-6 0 -30 5.5t-55.5 11.5t-62.5 11.5t-48 8.5q-6 0 -42 -8.5t-73 -15.5q-19 -5 -37.5 -9t-28.5 -4q-9 0 -8 17z" />
<glyph unicode="J" horiz-adv-x="1079" d="M-179 -197l186 163q26 -309 230 -309h1q125 0 195 122q37 59 66 163t49 255l205 1266h-13q-374 0 -400 -308v-16q0 -82 36 -184l-187 -211q-14 76 -14 143q0 35 4 68q11 145 64.5 271t146.5 215q96 88 221.5 136t270.5 48h93q-37 -135 -55.5 -229t-24.5 -141 q-33 -211 -71 -457.5t-71 -457.5q-63 -410 -221 -597q-89 -109 -189.5 -160.5t-216.5 -51.5q-222 0 -305 272z" />
<glyph unicode="K" horiz-adv-x="1545" d="M34 955q19 304 211 486q194 184 492 184h90q-27 -82 -45 -181.5t-36 -188.5q-2 -23 -10.5 -69t-17 -94t-15.5 -86t-7 -42q463 654 745 654q36 0 73.5 -8t74.5 -21l-145 -182q-54 42 -120 42q-106 0 -244 -138q-66 -66 -125.5 -163.5t-109.5 -202.5q17 -50 52 -129 t74 -163.5t76 -157t56 -109.5q86 -155 139 -155q60 0 136 145q40 -40 40 -66q-7 -79 -97 -175q-91 -101 -151 -101h-1q-56 0 -130.5 92t-145.5 244q-11 20 -46 97.5t-71 163.5t-66 154l-29 68q-23 -156 -50 -309.5t-53 -305.5q-6 -30 -16.5 -48.5t-16.5 -24.5l-6 -3 q26 -9 54.5 -14.5t47.5 -5.5q7 0 27 6.5t25 13.5q23 14 43 0q6 -4 7 -11q0 -16 -29 -48q-58 -67 -102 -85q-32 -13 -51 -13q-7 0 -13 2q-9 0 -29 7q-30 6 -71.5 16t-71.5 13q-13 0 -57.5 -20t-61.5 -20q-9 0 -7.5 17t11.5 36.5t23 39.5t24 27q26 19 45.5 37.5t32.5 44.5 t25 69t22 112l174 1077h-13q-374 0 -397 -308v-12q0 -83 37 -188l-188 -211q-14 80 -14 153q0 30 2 58z" />
<glyph unicode="L" horiz-adv-x="1213" d="M10 72q24 56 76 113q29 34 51 40t45 9h7q5 0 12 -1.5t20 -4.5q21 20 43.5 71t35.5 100q7 21 25 122t38 224.5t38.5 239t23.5 170.5q18 126 66 195.5t108 129.5l26 27q165 161 353 161q36 0 92.5 -17t105.5 -53q-74 -56 -123 -65q-26 -7 -45 -4q-37 9 -68.5 18t-57.5 9 q-66 0 -114.5 -33.5t-79.5 -86t-48.5 -113.5t-28.5 -117q-40 -257 -64.5 -411t-41.5 -233q-17 -97 -26 -129v3q-23 -76 -56 -130.5t-66 -97.5q119 -11 190 -17t108.5 -9t54.5 -3h30q228 0 373 184q20 -46 20 -63q0 -20 -26.5 -57.5t-71.5 -80.5q-80 -72 -169.5 -115.5 t-175.5 -43.5q-33 0 -119 8.5t-181 17.5q-96 11 -178.5 19t-111.5 8q-18 -3 -27.5 -8t-19.5 -11q-6 -7 -15 -14t-24 -7q-14 0 -14 16q-1 14 10 40z" />
<glyph unicode="M" horiz-adv-x="1921" d="M56 958q20 285 209 483q95 96 209 145q99 43 216 43q17 0 34 -1h32q17 0 41.5 -1.5t58.5 -1.5q-7 -33 -7 -43v-17q-1 -18 -1 -39q0 -78 18 -190q23 -141 69 -338l78 -344q11 -47 18 -82.5t13 -83.5q116 229 239.5 465t239.5 465q11 13 52 105l222 162 q-27 -116 -46.5 -238.5t-39.5 -285.5t-39.5 -384.5t-46.5 -534.5q-2 -29 -12.5 -48t-20.5 -29l-6 -6q13 -3 34.5 -10t47.5 -7q11 0 38.5 3.5t36.5 9.5q11 6 28 8t24.5 -4.5t4.5 -19.5t-26 -36q-60 -57 -116 -76.5t-89 -19.5q-4 0 -17 3.5t-19 5.5q-21 7 -47 15.5t-66 11.5 q-9 3 -34.5 -5.5t-47.5 -14.5q-17 -7 -30 -9.5t-27 -2.5q-13 0 -11 14.5t12 32.5t23 38t29 30q54 33 84 65q16 17 19 51q17 268 43.5 508t58.5 456q-59 -100 -103.5 -178t-75.5 -139q-116 -218 -180 -354t-103 -238l-169 -201v25q0 113 -23 263q-26 168 -73 356 q-16 56 -26 100.5t-16 78.5q-11 45 -18.5 78.5t-14.5 61.5t-13.5 56t-9.5 64q-47 -237 -93.5 -470t-92.5 -471q-6 -23 -17.5 -43t-22.5 -36q60 -17 103 -17q7 0 28.5 6.5t28.5 13.5q9 6 21 7.5t18 -6.5t3.5 -22.5t-23.5 -37.5q-53 -57 -99 -76.5t-72 -19.5q-26 8 -64 19 t-75 17q-7 3 -25 -3t-38 -15t-38 -15.5t-25 -6.5q-11 0 -7 15.5t12.5 35.5t20 39t21.5 30q49 36 82.5 85t59.5 168q56 268 112 543.5t112 543.5h-26q-373 0 -397 -308v-9q0 -85 36 -191l-188 -211q-9 60 -13 112q-2 28 -1 55q0 24 1 47z" />
<glyph unicode="N" horiz-adv-x="1743" d="M54 850v26q0 39 2 82q7 140 58 261.5t146 217.5q97 97 209 147q98 44 213 45q16 0 32 -1h32q18 0 44 -1.5t63 -1.5q-11 -39 -11 -50q0 -6 -1.5 -10.5t-1.5 -8.5q-1 -12 -1 -23q0 -109 50 -249q54 -156 152 -326q27 -46 60 -97.5t59 -96.5q43 -74 69.5 -119.5t52.5 -105.5 q23 145 47 290.5t50 290.5q48 277 116.5 483.5t154.5 321.5q202 272 419 272q46 0 87.5 -11.5t86.5 -28.5l-168 -198q-82 69 -145 69q-132 0 -212 -159q-92 -175 -154 -567q-34 -183 -58.5 -321.5t-42.5 -244.5t-31 -179.5t-24 -123.5q-20 -116 -26 -146q-11 -36 -20 -59 t-27 -60q-5 -13 -22 -39t-38.5 -54.5t-44.5 -50t-43 -21.5q-30 0 -28.5 28.5t8.5 57.5q0 11 7 37q3 9 3 19q3 39 3 73q0 82 -16 129q-20 56 -65 137t-100 183l-63 106q-76 122 -119 211t-70 179q-36 -234 -77 -462t-78 -463q-6 -23 -19 -41t-21 -35q26 -9 54.5 -14.5 t48.5 -5.5q6 0 28 6.5t28 13.5q20 14 40 0q6 -4 6 -11q0 -16 -29 -48q-49 -57 -94 -76.5t-68 -19.5q-33 6 -72.5 19.5t-75.5 16.5q-18 0 -62.5 -20t-60.5 -20q-7 0 -3.5 15.5t11.5 35.5t20 39t21 30q26 19 44.5 37.5t32 46t25 69t24.5 110.5q45 271 88.5 537t90.5 540h-30 q-376 0 -397 -308q-1 -16 -1 -31q0 -81 34 -169l-188 -211q-11 56 -12 106z" />
<glyph unicode="O" horiz-adv-x="1407" d="M112 651q29 413 274 716q244 305 538 305q97 0 166 -46.5t125 -136.5q92 -154 92 -382q0 -42 -3 -86q-29 -414 -273 -716q-126 -152 -258 -228.5t-288 -76.5q-96 0 -163.5 48t-124.5 137q-88 155 -88 379q0 42 3 87zM317 648q0 -209 66 -351q42 -92 99 -131.5t129 -39.5 q92 0 175 72.5t156 184.5q68 112 105 233t51 289q2 26 2 52.5v52.5q0 211 -69 361q-44 89 -93 128.5t-119 39.5q-92 0 -181.5 -67.5t-158.5 -173.5q-66 -112 -105.5 -239t-53.5 -295q-3 -30 -3 -60v-56z" />
<glyph unicode="P" horiz-adv-x="1341" d="M56 950q26 318 254 524q116 96 261.5 148.5t313.5 52.5q231 0 340 -99q104 -95 104 -268v-16q-14 -238 -202 -417q-179 -168 -437 -187q-20 -113 -42.5 -225.5t-43.5 -224.5q-5 -23 -17.5 -45t-21.5 -38q57 -16 97 -16h5q7 0 28.5 6.5t28.5 13.5q20 17 38 1q6 -5 5 -13 q0 -16 -23 -44q-56 -63 -103 -85q-37 -17 -59 -16q-6 0 -11 1q-6 0 -24.5 5.5t-43 11.5t-51.5 11.5t-42 8.5q-7 0 -30 -8.5t-46 -15.5q-17 -5 -30 -9t-20 -4q-9 0 -7.5 15.5t9.5 35.5t21 37.5t24 27.5q29 20 47 38t32.5 46t27 71t21.5 112l185 1143q-208 -49 -307 -144.5 t-112 -237.5q-2 -22 -2 -43q1 -34 5 -68q6 -54 29 -101l-188 -195q-15 80 -15 157q0 27 2 53zM714 830q42 -11 72 -11q338 0 367 376q2 24 2 46q0 298 -328 305q-27 -186 -57 -361t-56 -355z" />
<glyph unicode="Q" horiz-adv-x="1519" d="M171 651q26 419 275 716q242 305 541 305q92 0 161.5 -48.5t126.5 -134.5q49 -92 73 -207q16 -79 16 -172q0 -43 -4 -89q-16 -209 -81.5 -387t-191.5 -329q-83 -110 -179 -174q20 -32 69.5 -111.5t112.5 -162t128.5 -148.5t122.5 -72q26 -6 57.5 -5t56.5 11t41 28.5 t16 41.5q0 26 -11.5 49t-37.5 33q0 3 13 28t33 50t41.5 43t35.5 10q23 -8 36 -23t20 -32q10 -16 10 -39q0 -60 -38.5 -119.5t-67.5 -92.5q-83 -85 -205 -85q-53 0 -112.5 20t-115.5 55q-34 23 -63 54t-64.5 76t-81 108t-108.5 152q-6 11 -14.5 22.5t-17.5 23.5 q-103 -46 -223 -46q-174 0 -287 185q-86 153 -86 379q0 42 3 87zM376 651q0 -106 17 -195t53 -176q45 37 121.5 70t139.5 33q72 0 120 -55q8 -18 21.5 -49t20.5 -58q33 34 69.5 76.5t62.5 85.5q66 108 102.5 232.5t49.5 292.5q2 29 2 58v55q0 99 -14 190t-51 163 q-77 165 -215 165q-89 0 -178.5 -67.5t-160.5 -173.5q-66 -112 -104 -237.5t-52 -293.5q-4 -34 -4 -60v-56zM485 215q37 -50 83 -69.5t102 -19.5q23 0 54 9q-4 6 -7 10t-7 10q-9 36 -34 59.5t-75 23.5q-23 0 -51 -6.5t-65 -16.5z" />
<glyph unicode="R" horiz-adv-x="1496" d="M56 950q11 155 74.5 288t179.5 232q226 202 575 202q445 0 445 -341q0 -16 -1 -33q-21 -254 -291 -456q-17 -7 -55 -31.5t-75 -34.5h56q34 -13 64 -24.5t36 -27.5q49 -139 88.5 -245t65.5 -165q50 -102 97 -109h6q68 0 123 152l23 6q29 -27 30 -58q-7 -84 -97 -189 q-92 -112 -148 -113q-83 0 -199 215q-99 194 -184 496q-6 9 -34.5 20.5t-58.5 18.5q-9 3 -20.5 3h-22.5h-37q-22 -128 -46.5 -257t-45.5 -261q-5 -23 -15.5 -45t-23.5 -38q57 -16 95 -16h4q6 0 28 6.5t27 13.5q11 6 24 7.5t20 -5t4 -21t-27 -37.5q-53 -57 -96 -78.5 t-70 -21.5q-3 0 -6 2t-6 2q-23 6 -74.5 18t-85.5 15q-3 0 -21 -5.5t-38 -12t-39.5 -13t-23.5 -6.5q-9 0 -7.5 15.5t11.5 35.5t23 37.5t24 27.5q26 20 45.5 38t33 46t25 71t21.5 112l185 1140q-208 -46 -307.5 -144t-112.5 -235v-21q-1 -48 7 -90q10 -52 26 -104l-188 -192 q-13 70 -13 140q0 35 3 70zM717 889q62 -14 122 -14h14q57 0 95 22q42 25 56 38q129 129 139 304q2 20 2 38q1 120 -73 185q-84 75 -253 77q-26 -168 -50.5 -327t-51.5 -323z" />
<glyph unicode="S" horiz-adv-x="1133" d="M66 265l152 197q9 -148 87 -247t191 -99q105 0 185 73q72 79 83 191q1 9 1 19q0 150 -135 302q-139 148 -196.5 222.5t-76.5 111.5q-17 36 -27 85q-8 38 -8 77q0 12 1 24q7 100 45 179.5t101 145.5q131 122 324 122q105 0 191 -40q40 -19 57 -45.5t21.5 -53t1.5 -49.5 t-6 -36q-7 -18 -37.5 -72t-72.5 -88q-6 -3 -17.5 -4.5t-32.5 18.5q14 34 19 57t7 39v7q0 59 -59 108q-26 24 -70.5 37.5t-87.5 13.5q-69 0 -120 -33.5t-79 -86.5q-27 -50 -27 -109v-9q2 -64 38 -127q20 -33 76 -102t191 -218q76 -85 116 -181q34 -81 35 -163q0 -15 -2 -29 q-16 -211 -171 -357q-156 -145 -370 -145q-271 0 -328 265z" />
<glyph unicode="T" horiz-adv-x="1351" d="M86 950q26 321 250 527q84 72 174.5 110t233.5 38h383q327 0 347 255q1 13 1 26q0 75 -45 145l142 159q23 -40 33 -94q8 -42 7 -81v-24q-17 -237 -192 -393q-181 -151 -425 -151h-73q-54 -312 -106 -615.5t-106 -613.5q-9 -60 -36 -79q26 -9 52.5 -14.5t46.5 -5.5 q6 0 27.5 6.5t29.5 13.5q23 17 39 0q5 -5 5 -13q0 -16 -25 -43q-56 -66 -102 -86q-35 -15 -54 -15q-5 0 -9 1q-6 0 -21 4t-25 7q-30 6 -63.5 14.5t-61.5 11.5q-7 0 -22 -5.5t-35 -13t-37 -13t-25 -5.5q-11 0 -7.5 17t9.5 36.5t20 39.5t23 27q26 19 46 35.5t33.5 44.5t25 71 t24.5 112q46 274 89.5 538.5t86.5 542.5h-140q-187 0 -263 -78t-90 -234v-13q0 -83 36 -187l-187 -211q-16 84 -16 158q0 24 2 48z" />
<glyph unicode="U" horiz-adv-x="1615" d="M56 955q20 304 215 489q96 95 195 138t248 43h161q-26 -46 -54 -146.5t-57 -226.5q-7 -26 -26 -108.5t-40 -182t-39 -193.5t-25 -140q-6 -57 -9 -98.5t-3 -79.5q0 -135 42.5 -218t125.5 -83q37 0 76 21t75.5 51t65 64.5t40.5 64.5q53 97 91 228.5t68 310.5q0 4 4.5 32.5 t15 98.5t28.5 185.5t48 294.5q8 57 62 97.5t113 64.5q30 11 52.5 5.5t16.5 -25.5q-30 -46 -46.5 -90.5t-28 -98t-19.5 -117.5t-22 -150l-101 -661q-7 -49 -12.5 -86t-8.5 -69q-1 -14 -1 -25q0 -77 51 -77q23 0 59.5 14.5t82.5 40.5q0 -6 -1.5 -16t-1.5 -20v-22 q-3 -30 -60 -68l-364 -211l56 345q-95 -149 -207.5 -240t-220.5 -91q-70 0 -121.5 37t-86 97t-51.5 138t-17 164q0 53 7 101t18 93q16 70 39.5 177.5t46.5 223.5q26 138 50.5 258.5t41.5 177.5h-60q-185 0 -259.5 -79.5t-87.5 -232.5v-9q0 -85 36 -191l-188 -211 q-15 83 -15 159q0 26 2 52z" />
<glyph unicode="V" horiz-adv-x="1364" d="M56 1383q23 54 63 120q49 76 105 122.5t119 46.5q56 0 99 -33.5t71 -89.5q23 -60 45.5 -185t48.5 -303q57 -391 81 -691q429 670 448 941v9q0 94 -59 150l162 205q95 -72 95 -198v-17q-5 -86 -75 -239.5t-195 -381.5l-305 -539q-6 -6 -16 -32t-26 -66l-198 -222 q-6 198 -26 421.5t-47 440.5q-26 185 -49.5 320.5t-39.5 192.5q-37 108 -97 108q-108 0 -178 -234q-53 13 -53 58q0 32 27 96z" />
<glyph unicode="W" horiz-adv-x="1832" d="M96 1284q9 126 112 259q109 129 194 129q86 0 137 -86q20 -43 33 -121t22 -187q6 -72 9.5 -153t3.5 -164q0 -102 -4 -211t-12 -235q76 155 147 309t147 309q46 88 75.5 159.5t47.5 127.5l181 203q-6 -37 -13 -93t-10 -86q-3 -40 -3 -76v-73q0 -92 5 -216t18 -273 q9 -135 16 -214t11 -123q2 -49 5 -70q3 7 8.5 19t25.5 56.5t61.5 133t116.5 248.5q66 145 104 257.5t45 188.5v11q0 100 -67 157l163 208q94 -85 94 -186q0 -9 -1 -18q-6 -83 -69.5 -236.5t-169.5 -392.5q-14 -26 -43 -92q-26 -57 -74 -168.5t-134 -300.5q0 -9 -36 -90 l-178 -220v86q0 122 -8.5 263.5t-20.5 310.5q-18 198 -24.5 304t-9.5 152q-3 57 -3 60q-142 -305 -228 -489.5t-132 -290.5q-57 -122 -76 -176l-168 -191l-24 13q14 77 23 177.5t20 236.5q13 171 19.5 317t6.5 261q0 128 -9 224q-20 242 -96 242q-50 0 -103 -67 q-49 -66 -72 -178q-63 14 -63 55z" />
<glyph unicode="X" horiz-adv-x="1430" d="M-43 53l159 178q37 -26 81 -26q63 0 131 65.5t127.5 157t107.5 187t78 152.5l16 42l-15 59q-14 60 -34 134.5t-38.5 143.5t-21.5 90q-7 29 -18 67t-24.5 72.5t-28.5 58t-34 20.5q-44 -6 -83.5 -58t-75.5 -160q-49 8 -50 62q11 116 102 241q107 133 183 133q40 0 66 -23.5 t49 -69.5q9 -19 35.5 -107t53.5 -187t48.5 -178.5t21.5 -82.5l49.5 99t39.5 76q128 234 244 353.5t232 119.5q72 0 149 -54l-160 -181q-40 30 -72 30q-39 0 -75.5 -22t-86.5 -87q-40 -54 -104 -157t-140 -256q-3 -7 -6.5 -16.5t-9.5 -20.5l-14 -26q26 -116 57.5 -226.5 t61.5 -222.5q66 -235 122 -236q97 0 156 209q53 -26 53 -72q0 -26 -18.5 -67.5t-52.5 -98.5q-45 -76 -99.5 -122t-108.5 -46q-42 0 -77 31.5t-61 80.5t-65.5 173.5t-105.5 371.5q0 -3 -4 -6t-4 -7q-152 -327 -301.5 -485.5t-295.5 -158.5q-56 0 -139 53z" />
<glyph unicode="Y" horiz-adv-x="1351" d="M112 1410q3 72 90 169q89 93 148 93q139 0 235 -249q76 -208 96 -508q49 146 113.5 276t140.5 235q179 246 331 246q59 0 128 -60l-136 -202q-43 39 -82 39q-137 0 -291 -273q-77 -126 -126 -249.5t-75 -262.5l-80 -426q-5 -26 -15.5 -46.5t-20.5 -32.5q26 -9 53 -14.5 t46 -5.5q7 0 28.5 6.5t28.5 13.5q22 17 38 0q6 -5 6 -13q0 -16 -24 -43q-56 -66 -100 -86q-35 -15 -55 -15q-6 0 -11 1q-9 0 -30 8q-29 5 -70.5 15.5t-71.5 13.5q-11 0 -54.5 -18.5t-64.5 -18.5q-8 0 -10.5 13t2.5 30t15.5 33.5t19.5 25.5q33 24 56.5 45t39 51t28 73 t21.5 112l43 239q7 45 9 93.5t2 93.5q0 110 -14 215.5t-46 211.5q-77 257 -162 258q-66 0 -129 -150q-51 20 -51 54q0 5 1 9z" />
<glyph unicode="Z" horiz-adv-x="1281" d="M29 66q0 9 14 34q9 19 29 52t63 90l860 1162q-17 -4 -40 -4q-106 0 -225 60q-40 20 -83 38t-88 18q-40 0 -70 -29.5t-48 -76.5q-19 -46 -25 -107q-3 -24 -2 -48q0 -36 6 -72l-189 -145q0 9 3.5 37t3.5 38q6 108 49.5 209t106.5 185q68 79 146 122t167 43q30 0 71 -9 t81 -25q46 -16 79 -28t100 -12q116 0 180 80q36 -35 36 -61q0 -6 -2 -12q-7 -22 -26.5 -53.5t-33.5 -51.5q-19 -26 -119 -159q-42 -57 -105 -144t-156 -211t-214.5 -289t-280.5 -383q33 22 53 22q17 0 78 -19.5t137 -45.5q85 -29 163.5 -54.5t93.5 -25.5q159 0 216 166 q48 -26 48 -57q-3 -40 -66 -148q-102 -152 -234 -152q-13 0 -61.5 14.5t-114.5 34.5q-45 14 -95 30.5t-91.5 28t-71 19.5t-38.5 8q-43 0 -90 -24.5t-82 -50.5q-26 -17 -54.5 -37t-38.5 -23l-16 7q-23 33 -24 59z" />
<glyph unicode="[" horiz-adv-x="620" d="M-6 -636l377 2374l122 141h448l-128 -151h-307q0 -3 -16 -99t-40.5 -251.5t-54.5 -352t-63.5 -401.5t-64 -402t-56 -352t-41.5 -252.5t-16 -100.5h418l-124 -153h-454z" />
<glyph unicode="\" horiz-adv-x="851" d="M70 1584l163 -39l583 -1676l-166 38z" />
<glyph unicode="]" horiz-adv-x="646" d="M-327 -636l129 153h317q0 3 15.5 99t39.5 249.5t54.5 350.5t64.5 403.5t64.5 403t54 352t39.5 251t16 102.5h-425l124 151h464l-378 -2372l-124 -143h-455z" />
<glyph unicode="^" horiz-adv-x="1372" d="M39 381l649 1123l164 84q41 -251 90 -442.5t99 -331t95.5 -230.5t73.5 -142l-135 -154q-80 195 -148 384q-57 163 -114.5 340.5t-79.5 321.5q-132 -224 -251.5 -430.5t-251.5 -429.5z" />
<glyph unicode="_" horiz-adv-x="1161" d="M39 -592l12 128h1076l-17 -128h-1071z" />
<glyph unicode="`" horiz-adv-x="691" d="M208 1581l102 112q81 -259 203 -361l-103 -125q-131 111 -202 374z" />
<glyph unicode="a" horiz-adv-x="1116" d="M100 268q26 350 228 614q205 260 462 261q49 0 95.5 -8t82.5 -25q0 -4 -13 -41.5t-31 -130.5l-94 -508q-30 -146 -34 -182q-3 -27 -3 -36q-7 -37 6 -37q63 0 169 224q40 -36 40 -56q-4 -49 -93 -172q-62 -82 -118.5 -126.5t-103.5 -44.5q-36 0 -53.5 38t-17.5 85 q0 13 3 43.5t9 58.5l40 205q-7 -9 -29.5 -44.5t-56 -78t-69.5 -87.5t-66 -78q-132 -142 -235 -142q-70 0 -98 71q-22 55 -22 144q0 25 2 53zM278 334q-2 -21 -2 -40q0 -100 52 -100q71 0 197 156q82 97 138 225.5t83 259.5l30 123q-69 46 -158 46q-63 0 -117.5 -49.5 t-101.5 -142.5q-53 -95 -82.5 -217t-38.5 -261z" />
<glyph unicode="b" horiz-adv-x="960" d="M66 16q20 58 29.5 105t16.5 94q6 33 12.5 79t14.5 89l109 681q9 65 27.5 167.5t55 218t95.5 234.5t152 222q86 96 163.5 115.5t140.5 26.5q26 0 43 3.5t25 7.5q14 3 18 9q13 2 23 -16q2 -3 2 -6q0 -20 -45 -64q-29 -26 -56 -31t-53 -8q-57 0 -109.5 -28.5t-99.5 -94.5 q-49 -79 -85 -181t-62.5 -206t-43 -197t-26.5 -156q-17 -105 -28.5 -177.5t-27.5 -183.5q92 173 205 285q134 143 234 143q128 0 129 -231q0 -32 -3 -67q-24 -343 -226 -598q-194 -251 -445 -251q-9 0 -31.5 3.5t-107.5 10.5q-7 0 -22.5 1t-23.5 1zM271 189q72 -50 149 -50 q116 0 208 181q46 89 75.5 201.5t40.5 257.5q2 22 2 42q0 51 -12 83q-16 46 -44 46q-76 0 -194 -151q-162 -201 -209 -491z" />
<glyph unicode="c" horiz-adv-x="808" d="M92 363q13 149 66.5 286t141.5 263q86 116 187 183.5t197 67.5q72 0 138 -39l-132 -179q-72 42 -142 42q-119 0 -191 -122q-37 -60 -60 -148.5t-29 -197.5q0 -46 3 -102.5t16 -109.5t41.5 -87.5t81.5 -34.5q131 0 231 238q20 -27 26.5 -46.5t6.5 -29.5q0 -13 -11.5 -41 t-31.5 -59.5t-44.5 -64.5t-47.5 -56q-66 -66 -125.5 -94.5t-113.5 -28.5q-62 0 -103.5 35.5t-66.5 87.5q-25 54 -33 118q-6 47 -6 88q0 16 1 31z" />
<glyph unicode="d" horiz-adv-x="1099" d="M103 271q13 165 69 319t156 285q205 272 431 272h23q3 8 7 28t10 64q13 71 35 157.5t56 176t82.5 178.5t117.5 166q83 82 168.5 110t145.5 35q49 0 76 12q14 8 17 11q13 7 21 -15q1 -3 1 -7q0 -22 -45 -64q-29 -26 -56 -31.5t-54 -8.5q-57 0 -119 -33t-102 -96 q-56 -88 -91 -192.5t-56 -209t-34.5 -203t-26.5 -178.5q-13 -83 -29.5 -175.5t-31.5 -185t-29.5 -178t-25.5 -148.5q-7 -33 -10 -74t-6 -65q-4 -42 6 -42q70 0 159 223q43 -35 43 -54q0 -2 -1 -5q-2 -26 -25.5 -69t-60.5 -99q-62 -83 -116.5 -127.5t-103.5 -44.5 q-75 0 -75 113q0 11 1 23q0 11 2 25.5t5.5 42t10 77.5t16.5 129q-34 -66 -81 -127t-104 -124q-77 -76 -138 -117.5t-113 -41.5q-68 0 -100 71q-26 58 -26 153q0 21 1 44zM284 336q-1 -19 -1 -36q0 -103 48 -103q49 0 101.5 43.5t95.5 101t73 110.5t37 73q37 69 56.5 140.5 t38.5 173.5l23 125q-63 44 -126 44q-131 0 -224 -189q-102 -194 -122 -483z" />
<glyph unicode="e" horiz-adv-x="845" d="M100 347q19 265 197 538q191 277 344 278q119 0 119 -138q0 -12 -1 -24q-6 -86 -49 -178.5t-109 -168.5q-65 -77 -153 -133t-180 -88q0 -254 142 -254q76 0 138.5 64.5t125.5 189.5q43 -39 40 -66q-7 -26 -27 -61t-46 -72q-175 -231 -336 -231q-47 0 -88.5 26.5 t-71.5 73.5q-29 47 -41 109q-7 38 -7 78q0 28 3 57zM278 591q13 -6 32 -6q110 0 203 85q36 37 62 86.5t32 108.5q1 13 1 24q0 98 -86 98q-76 0 -146 -112q-33 -56 -59 -127t-39 -157z" />
<glyph unicode="f" horiz-adv-x="763" d="M-496 -901l149 164q42 -19 79 -27.5t66 -8.5q126 0 214 129t123 376q43 291 86.5 594.5t88.5 595.5l10 59h-99q-32 -3 -59 -10q-26 -7 -48 -14t-38 -15q-26 0 -28 13t5 29q29 56 73.5 99.5t118.5 43.5h95q9 68 29.5 166t56.5 207t90.5 219.5t134.5 202.5q76 77 159 107 t138 35q26 -2 43 1t26 9l21 11q21 8 21 -21q0 -23 -46 -65q-26 -26 -50.5 -31.5t-50.5 -8.5q-49 0 -110.5 -30t-97.5 -93q-66 -105 -105.5 -246t-62.5 -269q-3 -6 -7 -36t-10 -67q-6 -39 -17 -91h83q29 0 59 6q26 6 56 11.5t56 18.5q20 0 25 -21.5t-11 -48.5 q-26 -46 -74 -79t-118 -33h-95l-140 -932q-26 -159 -52 -279t-60 -203q-16 -40 -59 -122.5t-117.5 -165t-180 -147t-244.5 -70.5q-43 0 -126 37z" />
<glyph unicode="g" horiz-adv-x="911" d="M-294 -559l159 129q-2 -23 -2 -45q0 -58 12 -107q16 -66 46 -111q71 -89 191 -89q179 0 290 197q37 76 77 271t80 476q3 27 12.5 66.5t21 77t22 69t10.5 42.5q-262 -406 -454 -406q-13 0 -26 3q-26 6 -45 29q-30 30 -42 89q-8 37 -8 83q0 27 3 56q14 175 73 330t154 281 q208 265 460 265q108 0 172 -37q-6 -26 -12.5 -56t-14.5 -56q-43 -149 -73 -286.5t-49 -247.5t-29 -190t-15 -112q-19 -142 -40.5 -287.5t-48.5 -221.5q-26 -77 -67 -154t-90 -140q-245 -294 -499 -294q-119 0 -202 108q-67 94 -67 229q0 19 1 39zM225 317q0 -69 13 -98.5 t40 -29.5q79 0 201 158q86 103 142 226t80 262l18 120q-58 53 -148 53h-3q-59 0 -110.5 -51.5t-103.5 -144.5q-57 -98 -93 -237t-36 -258z" />
<glyph unicode="h" horiz-adv-x="1105" d="M96 20q14 20 22 44.5t13 47.5q7 26 14 53q4 24 10.5 73t12.5 90q47 287 72 445.5t36 234.5t14.5 94t3.5 25q14 68 37 167.5t61 208.5t92.5 219.5t129.5 199.5q79 80 163.5 108.5t141.5 33.5q29 4 52.5 7t59.5 26q8 6 7.5 -20t-54.5 -78q-29 -26 -56 -31.5t-53 -8.5 q-53 0 -110.5 -33t-97.5 -90q-45 -82 -82 -184.5t-63 -205t-44.5 -195t-27.5 -153.5q-17 -100 -28.5 -178t-27.5 -180q111 179 228 284q145 139 240 139q46 0 66 -35t21 -84v-12q-1 -44 -7 -94q-8 -56 -14 -96q-17 -102 -36.5 -209.5t-38.5 -209.5q-11 -66 -18.5 -117.5 t-12.5 -87.5q-6 -47 11 -47q60 0 157 205l18 4q29 -17 30 -49q-11 -83 -119 -202q-113 -126 -192 -126q-74 0 -74 113q0 14 1 29q9 93 39 268q26 165 44.5 261t26.5 148q9 60 9 83q1 11 1 21q0 55 -30 55q-56 0 -119 -51t-126 -144q-53 -76 -94.5 -171.5t-61.5 -189.5 q-9 -59 -19 -126.5t-19 -127.5q-26 -53 -70 -93.5t-83 -66.5q-23 -14 -43 -11t-13 20z" />
<glyph unicode="i" horiz-adv-x="614" d="M66 839q3 36 36 89t83 110q120 125 185 125q48 -1 64 -33q13 -26 13 -77q0 -12 -1 -26q0 -14 -3.5 -41.5t-9.5 -53.5q-49 -251 -75.5 -394.5t-38 -215t-13.5 -89.5l-1 -18q-7 -37 5 -36q70 0 159 211l19 4q30 -27 31 -47q-4 -49 -94 -172q-121 -172 -223 -172 q-72 0 -72 104q0 11 1 22q4 20 18 105q13 76 39.5 224.5t71.5 420.5q4 9 7.5 27t5 36.5t0 31.5t-12.5 13q-29 0 -72 -52.5t-88 -158.5q-21 20 -27.5 35.5t-6.5 27.5zM334 1295l26 182q13 76 54.5 102t73.5 39q14 6 33.5 8t19.5 -1q-8 -62 -13.5 -99t-8.5 -56q-4 -22 -4 -33 q-5 -46 -37 -81t-144 -61z" />
<glyph unicode="j" horiz-adv-x="634" d="M-479 -898l83 82q56 63 122 63q20 0 62 -17q4 -3 22.5 -7.5t47.5 -8.5h11q131 0 200 158q36 83 74.5 260t74.5 428q33 208 69 444t70 446l-73 -71q-29 -30 -61 -59.5t-78 -60.5l17 130q162 112 397 356l-179 -1189q-76 -485 -221 -704q-103 -138 -220.5 -214t-248.5 -76 q-89 0 -169 40zM413 1295q7 43 12 74t11 57q3 27 7 51q13 76 53 102t75 39q14 6 35.5 8t18.5 -1q-11 -56 -16 -90.5t-8 -57.5q-3 -27 -7 -40q-6 -46 -36 -81t-145 -61z" />
<glyph unicode="k" horiz-adv-x="1016" d="M82 20q11 17 17 38t13 42q6 23 14 49q42 268 85 540t86 540q13 74 38 161t61.5 179.5t88 183t119.5 169.5q80 80 164.5 108.5t139.5 33.5q29 4 46 7t27 6q10 5 14 8q14 3 23 -15q1 -3 1 -7q0 -20 -44 -64q-29 -26 -55.5 -31.5t-54.5 -8.5q-57 0 -113 -28t-95 -95 q-46 -68 -81 -157.5t-61.5 -182t-44 -178.5t-27.5 -155l-47 -314q34 57 73.5 108t81.5 93q53 49 109.5 81t98.5 32q124 0 124 -143q0 -11 -1 -22q-11 -152 -118 -274q-103 -120 -268 -176q139 -369 218 -369q59 0 142 144q13 -16 21 -30.5t8 -32.5q-6 -63 -99 -155 q-45 -45 -85 -73.5t-67 -28.5h-3q-53 1 -118 123q-67 126 -173 379q-13 -82 -26.5 -165t-22.5 -165q-26 -57 -67.5 -97.5t-84.5 -66.5q-20 -14 -38.5 -11t-18.5 20zM360 607q131 4 228 81q108 76 113 191q1 15 1 28q0 88 -54 88q-60 -1 -143 -113q-40 -56 -75.5 -122.5 t-69.5 -152.5z" />
<glyph unicode="l" horiz-adv-x="663" d="M135 162q3 23 5 47.5t9 50.5q36 223 70.5 449t67.5 446q11 74 29 169.5t50.5 199.5t87.5 206.5t137 188.5q86 92 164 109t140 20q27 0 43.5 1.5t25.5 5.5q14 4 17 7q14 2 23 -18q1 -3 1 -6q0 -20 -44 -59q-29 -23 -54 -28t-51 -8q-57 0 -112.5 -27t-99.5 -83 q-56 -95 -100.5 -225.5t-64.5 -252.5q-33 -215 -71 -463t-72 -462q-8 -57 -13.5 -96.5t-8.5 -62.5q-3 -34 -3 -56q0 -36 9 -36q34 0 76 63q27 42 45 78.5t35 89.5q43 -34 43 -67q-4 -43 -35 -100.5t-82 -113.5q-108 -126 -184 -126q-83 0 -83 145v14z" />
<glyph unicode="m" horiz-adv-x="1595" d="M92 842q0 23 31.5 79.5t88.5 116.5q116 125 178 125q87 0 87 -116q0 -12 -1 -26q0 -17 -3.5 -41.5t-7.5 -44.5q-6 -49 -16 -97t-16 -94q116 202 223.5 310.5t199.5 108.5q87 0 87 -138q0 -13 -1 -27q0 -26 -3.5 -54.5t-10.5 -64.5q-9 -60 -14.5 -91.5t-9 -46t-3.5 -15.5 v-2q44 85 90.5 155.5t101.5 130.5q66 74 124 113.5t104 39.5q94 0 94 -134q0 -12 -1 -25q-3 -62 -20 -155q-29 -161 -45.5 -250.5t-25 -131.5t-10.5 -49.5t-2 -11.5q-22 -123 -30 -185q-6 -49 11 -50q26 0 75 63q50 60 87 142l23 4q30 -30 23 -49q-11 -83 -119 -202 q-116 -126 -182 -126q-87 0 -87 115q0 13 1 27q0 26 14 93q9 56 25.5 165.5t53.5 289.5q7 40 15 103t15 99q1 15 1 27q0 59 -31 59q-37 0 -95 -59.5t-113 -151.5q-56 -100 -96 -208.5t-60 -201.5q-13 -77 -21.5 -127.5t-14.5 -80.5q-6 -37 -10 -56q-3 -14 -29.5 -30.5 t-56 -29.5t-55 -17.5t-25.5 1.5v9q0 14 4 24l110 680q6 49 10.5 84.5t9.5 64.5q2 17 2 31q0 68 -36 68q-37 0 -91 -58t-111 -153q-56 -103 -97 -204t-58 -196q-6 -53 -14.5 -105.5t-15.5 -89.5q-26 -57 -67.5 -99t-81.5 -65q-26 -14 -45.5 -11t-13.5 20q23 40 36 92 q7 26 11 56q3 17 7.5 47t7.5 56l90 541q4 15 5.5 34t4.5 36q3 19 8 42q1 13 1 24q0 39 -15 39q-63 0 -162 -208q-37 47 -37 63z" />
<glyph unicode="n" horiz-adv-x="1159" d="M82 845q0 19 32 75q35 61 83 118q110 125 179 125q84 0 84 -116q0 -12 -1 -26q0 -20 -3 -41.5t-6 -44.5q-11 -69 -15.5 -105.5t-8 -56.5t-5 -26.5t-1.5 -13.5q56 86 112 160.5t116 130.5q142 139 241 139q46 0 66 -33q21 -32 25 -79q2 -17 1 -35q0 -32 -5 -68 q-8 -56 -15 -99q-37 -191 -58 -307.5t-32.5 -182t-16.5 -95.5t-5 -46q-6 -47 10 -47q56 0 154 205l22 4q26 -20 26 -46q-7 -83 -119 -205q-116 -126 -189 -126t-73 111q0 15 1 31q3 80 19.5 177.5t36 198.5t38 199.5t24.5 180.5v15q0 65 -32 65q-112 0 -239 -195 q-63 -89 -104 -195t-57 -211q-6 -49 -18.5 -102t-17.5 -103q-26 -57 -68 -97.5t-84 -66.5q-26 -14 -44.5 -11t-11.5 20q22 46 32 92q6 26 13 56q3 34 12 75t20.5 110.5t29.5 178.5t44 280q6 47 9.5 70t7.5 42q1 15 1 27q0 36 -14 36q-66 0 -159 -208q-37 51 -37 66z" />
<glyph unicode="o" horiz-adv-x="908" d="M100 360q9 139 62 274.5t143 263.5q85 123 179 194t180 71q112 0 162 -94q41 -78 41 -208q0 -26 -2 -55q-9 -139 -58.5 -277.5t-145.5 -263.5q-185 -262 -364 -262q-200 0 -200 284q0 35 3 73zM278 502q-4 -49 -4 -90q0 -257 143 -257q48 0 93 38t81 104q39 76 64.5 165 t32.5 199q3 42 3 78q0 269 -142 269h-1q-102 0 -175 -143q-82 -151 -95 -363z" />
<glyph unicode="p" horiz-adv-x="1060" d="M-476 -915l162 185q57 -23 106 -23q126 0 213 135t124 393q46 294 88.5 576.5t90.5 580.5q-43 -43 -91.5 -88t-120.5 -100l16 131q79 57 180.5 146t216.5 218l-79 -506q49 86 109 165.5t105 122.5q132 142 231 142q128 0 128 -231q0 -31 -2 -67q-20 -343 -219 -594 q-95 -126 -206 -191q-108 -64 -222 -64h-7l-16 4q-17 -89 -34 -183t-32 -184q-17 -89 -78 -190t-150.5 -188t-195.5 -147t-208 -66q-46 0 -109 23zM357 205q37 -26 69.5 -38t78.5 -12q123 0 202 181q97 183 115 470q2 25 2 47q0 115 -50 115h-1q-77 0 -195 -152 q-79 -97 -129 -225.5t-76 -267.5z" />
<glyph unicode="q" horiz-adv-x="1047" d="M109 271q14 168 71.5 325t159.5 286q205 265 450 265q105 0 174 -34q-3 -7 -3 -11t-3 -12q-3 -6 -3 -13q-6 -19 -11.5 -43t-11.5 -44q-7 -22 -10 -48l-255 -1596q14 17 43.5 45t62.5 57.5t64.5 54t51.5 35.5l-20 -129q-172 -112 -410 -370l222 1400q-56 -89 -112 -163 t-113 -131q-132 -142 -228 -142q-66 0 -96 71q-24 59 -24 156q0 20 1 41zM291 336q-2 -25 -2 -45q0 -94 41 -94h4q68 7 207 173q47 56 85 113.5t51 87.5q19 46 34.5 112.5t32.5 151.5l23 133q-26 16 -61.5 28t-77.5 12q-116 0 -218 -192q-92 -202 -119 -480z" />
<glyph unicode="r" horiz-adv-x="799" d="M92 849q0 14 28.5 70t84.5 121q49 63 102 93t83 30q84 0 84 -119q0 -13 -1 -27q-3 -45 -13 -114.5t-27 -158.5q218 419 409 419q29 0 62.5 -15t40.5 -50q4 -18 4.5 -37.5t-4.5 -39.5q-11 -37 -40.5 -84.5t-98.5 -103.5v12q6 22 6 39q0 14 -4 24q-9 24 -23.5 33t-31 11.5 t-26.5 2.5q-92 0 -205 -191q-57 -86 -92.5 -181t-53.5 -193q-6 -29 -11 -67.5t-11.5 -71.5t-12 -56.5t-5.5 -26.5q-28 -56 -66.5 -93.5t-78.5 -60.5q-26 -14 -45.5 -10.5t-14.5 19.5q14 17 22.5 43t14.5 50q7 26 11 52q26 149 44.5 254.5t31.5 180t19 124t13 85.5 q7 23 10 56t3 60q0 59 -13 59q-62 0 -156 -214q-16 26 -27.5 43t-11.5 33z" />
<glyph unicode="s" horiz-adv-x="745" d="M-16 79l155 149q74 -102 175 -102q66 0 97.5 35.5t38.5 109.5q3 83 -107 242l-49 68q-56 80 -78 137.5t-22 114.5q0 142 111 234q45 43 109.5 69.5t133.5 26.5q74 0 185 -43l-145 -152q-76 69 -152 70q-86 0 -96 -90q-1 -5 -1 -10q0 -34 24 -81q27 -54 73 -124 q14 -16 27 -36t25 -36q63 -86 84.5 -147t28.5 -128q1 -10 1 -20q0 -67 -36 -125q-41 -66 -97 -122q-126 -116 -275 -116q-116 0 -210 76z" />
<glyph unicode="t" horiz-adv-x="717" d="M61.5 1014.5q12.5 20.5 35 43t48.5 42.5t40 20h143q8 60 15 92.5t11 49.5q3 16 3 22q9 60 57 103t95 62q19 11 39 11t17 -11q-6 -13 -29 -57.5t-31 -93.5l-26 -178h238q23 0 11.5 -18t-36.5 -42.5t-53 -47t-38 -22.5h-142l-86 -521q-13 -80 -18 -126t-8 -78 q-2 -18 -1 -33q0 -90 56 -90q37 0 78.5 44.5t87.5 113.5q20 -26 13 -49q-6 -36 -29.5 -79t-72.5 -90q-46 -45 -87.5 -62t-74.5 -17q-127 0 -127 177q0 17 1 35q3 39 10 98.5t24 155.5l85 521h-241q-20 4 -7.5 24.5z" />
<glyph unicode="u" horiz-adv-x="1142" d="M92 835q3 40 33 91.5t83 108.5q115 120 181 120h1q80 0 80 -117q0 -13 -1 -28q-4 -33 -7 -64t-9 -67q-17 -116 -37 -231.5t-36 -224.5q-11 -80 -20 -169q-1 -9 -1 -17q0 -48 31 -48q102 0 240 207q70 103 115 210.5t64 209.5q14 69 27 142t26 140l185 75 q-16 -67 -32.5 -138t-27.5 -127q-37 -191 -58 -311.5t-34 -186.5q-13 -82 -23 -119q-9 -46 -12.5 -81t9.5 -39q3 -1 5 -1q28 0 68 54q44 60 93 172q42 -33 42 -56t-26.5 -69t-66.5 -103q-128 -168 -225 -168q-70 0 -70 99q0 13 1 27q3 26 7 51t7 44l36 215 q-50 -79 -111 -156.5t-116 -134.5q-63 -66 -124 -105.5t-109 -39.5q-96 0 -96 135q0 13 1 27q4 29 8 77t15 115q23 159 43 284q9 53 16 104t13.5 92t11.5 67.5t5 30.5q3 53 -13 52q-29 0 -79 -59.5t-76 -145.5q-24 17 -30.5 30t-6.5 26z" />
<glyph unicode="v" horiz-adv-x="1037" d="M63 856q3 37 20 88t52 103q77 112 133 112h6q100 1 160 -201q62 -208 102 -650q260 419 276 587v8q0 55 -48 95l137 165q74 -58 74 -146v-7q-6 -60 -49.5 -157t-129.5 -246q-66 -116 -129 -226t-119 -219l-168 -178q-7 201 -22 376.5t-44 327.5q-57 290 -106 290 q-63 0 -103 -179q-42 13 -42 57z" />
<glyph unicode="w" horiz-adv-x="1321" d="M63 859q3 86 82 194q80 109 135 110q96 0 133 -176q37 -168 40 -577v-16q86 174 150 329.5t114 300.5l142 162q0 -46 1.5 -114t1.5 -164q3 -43 5 -92t5 -92l26 -377v3q242 443 252 555v9q0 54 -52 103l134 149q77 -55 76 -132v-13q-5 -89 -132 -314q-34 -66 -68.5 -135.5 t-69.5 -135.5q-47 -82 -71.5 -135t-44.5 -119q-27 -53 -63.5 -96t-72.5 -70q-26 -16 -44 -9t-12 27q16 36 25 80.5t9 50.5v20q-4 66 -6 133.5t-8 134.5q-6 88 -11.5 162.5t-11.5 163.5q-9 -20 -16 -27.5t-18 -27.5q-56 -109 -110.5 -223.5t-86.5 -229.5q-7 -23 -13.5 -50 t-13.5 -50q-63 -116 -155 -157q-23 -14 -41.5 -10.5t-18.5 22.5l26 53q6 66 8.5 133.5t2.5 130.5l-20 427q-6 96 -19.5 147t-39.5 54h-6q-56 0 -94 -175q-49 21 -49 57v6z" />
<glyph unicode="x" horiz-adv-x="1057" d="M-37 56l133 149q34 -43 63 -43q86 0 211 208q26 47 53 91t53 94l-86 320q-17 57 -33.5 93t-33.5 36q-56 0 -105 -165q-47 17 -47 54q0 26 23.5 75t59.5 96q37 46 71.5 72.5t60.5 26.5q99 0 182 -294q3 -13 8 -33t12 -37q6 -23 11 -46q2 3 23.5 41.5t38.5 64.5 q195 304 310 304q29 0 96 -36l-135 -166q-17 7 -22 8.5t-9 1.5q-98 0 -253 -283q-7 -14 -13.5 -24t-12.5 -23q16 -89 39 -177t47.5 -157t47.5 -110.5t40 -41.5q60 0 109 145q43 -40 43 -66q0 -33 -23.5 -69t-62.5 -79q-83 -83 -145 -83q-110 0 -202 387q-2 13 -10 33 q-3 6 -3 13l-14 -23q-214 -410 -402 -410q-70 0 -123 53z" />
<glyph unicode="y" horiz-adv-x="1102" d="M-179 -895l142 179q40 -27 86.5 -37.5t92.5 -10.5q182 0 288 146q49 77 95 222t100 343q26 96 52.5 210t52.5 249q-40 -72 -84.5 -142t-90.5 -119q-122 -142 -185 -142q-46 0 -68 74.5t-24 170.5q5 139 9 290.5t10 291.5q0 59 -5 115t-24 59q-4 1 -7 1q-31 0 -61 -44 q-35 -49 -77 -139q-23 17 -32 34q-12 22 -12 37q0 20 29 65q31 50 77 100q89 105 162 105q34 0 56 -21.5t36 -54.5q17 -61 17 -201v-44q-3 -99 -6.5 -200t-6.5 -203q-1 -37 -1 -68q0 -64 6 -99q8 -51 25 -51q37 0 82.5 49.5t101.5 154.5q62 107 102 211t68 209l29 123 q0 6 1.5 9.5t1.5 9.5q9 60 64 103t90 63q24 13 42 13t22 -16l-13 -34q-20 -49 -37 -116.5t-37 -160.5l-178 -773q-105 -450 -273 -673q-260 -331 -559 -331q-62 0 -159 43z" />
<glyph unicode="z" horiz-adv-x="960" d="M46 -16l77 184q19 3 40.5 25t43 48.5t41.5 52.5t30 42q139 196 219.5 309.5t123.5 176.5t59 88t27 38q-72 0 -182 36q-20 6 -51 16t-51 10q-27 0 -45 -19.5t-15 -55.5q0 -29 13 -73l-142 -145v89q7 66 32 129t62 109q82 109 185 109q28 0 65 -10q57 -16 104.5 -26.5 t93.5 -10.5q63 0 179 60l-110 -224q-46 -57 -83.5 -104.5t-73.5 -100.5q-143 -205 -218.5 -314t-112.5 -163q-43 -59 -49 -71l55 5q33 -3 101 -9t154 -20q34 -6 59 -6q82 0 132 75q18 -22 21 -35.5t3 -19.5q-6 -34 -20 -63.5t-43 -59.5q-29 -29 -61 -41t-61 -15h-41 q-22 0 -57 3.5t-85 12.5q-19 4 -72 8.5t-119 4.5q-54 0 -112.5 -9t-115.5 -36z" />
<glyph unicode="{" horiz-adv-x="687" d="M3 673l131 145h121q173 92 188 294l8 135l9 156q40 536 415 688l15 2l10 -60l-7 -2q-236 -143 -259 -497l-6 -114l-7 -133q-12 -198 -79 -316q-63 -100 -191 -174q160 -43 159 -233q0 -25 -3 -40q-4 -70 -18 -157.5t-35 -189.5l-93 -443q-3 -21 -7 -42q-3 -19 -3 -41.5 v-40.5q3 -121 103 -174l13 -6l-109 -124h-7q-92 38 -127.5 112.5t-38.5 181.5q0 28 1.5 54.5t4.5 51.5q3 28 11 57l92 453q36 159 42 269q11 107 -42 145q-49 43 -188 43h-103z" />
<glyph unicode="|" horiz-adv-x="559" d="M36 -630l358 2540l163 64l-359 -2541z" />
<glyph unicode="}" horiz-adv-x="733" d="M-185 -638l8 4q234 139 262 496l3 114l8 133q18 210 81 315q28 50 78.5 93t112.5 83q-159 42 -159 233v39q7 71 20 157.5t37 188.5l88 444q4 21 7 43q4 18 4 41v39q-4 121 -102 175l-12 7l107 124h7q91 -39 128.5 -113.5t37.5 -180.5q0 -28 -1.5 -56.5t-5.5 -53.5 q-3 -28 -7 -54l-95 -453q-33 -156 -43 -269q-7 -106 43 -145q45 -43 191 -43h103l-135 -145h-121q-173 -96 -187 -294l-7 -135l-8 -156q-39 -531 -418 -687l-10 -3z" />
<glyph unicode="~" horiz-adv-x="1382" d="M142 542q11 75 31.5 135t68.5 120q45 64 109 95.5t106 31.5q46 0 106.5 -28t130.5 -102l72 -71q70 -70 121.5 -95.5t87.5 -25.5q66 0 118 69t73 204l3 18l15 -7q6 -4 10 -9t11 -9q21 -24 21 -60q-11 -134 -99 -256q-46 -64 -96 -96t-92 -32q-43 0 -104.5 27.5 t-137.5 100.5l-69 72q-61 64 -114.5 93.5t-89.5 29.5q-70 0 -133.5 -69t-84.5 -203l-4 -15q-17 4 -32 19q-33 24 -28 63z" />
<glyph unicode="&#xa1;" horiz-adv-x="614" d="M66 839q3 36 36 89t83 110q120 125 185 125q47 0 63.5 -32.5t12.5 -103.5q0 -14 -3.5 -41.5t-9.5 -53.5q-49 -251 -75.5 -394.5t-38 -215t-13.5 -89.5l-1 -18q-7 -37 5 -36q70 0 159 211l19 4q30 -27 31 -47q-4 -49 -94 -172q-121 -172 -223 -172q-79 0 -71 126 q4 20 18 105q13 76 39.5 224.5t71.5 420.5q4 9 7.5 27t5 36.5t0 31.5t-12.5 13q-29 0 -72 -52.5t-88 -158.5q-21 20 -27.5 35.5t-6.5 27.5zM334 1295l26 182q13 76 54.5 102t73.5 39q14 6 33.5 8t19.5 -1q-8 -62 -13.5 -99t-8.5 -56q-4 -22 -4 -33q-5 -46 -37 -81t-144 -61z " />
<glyph unicode="&#xa2;" horiz-adv-x="1259" d="M182 505q0 239 142.5 387.5t341.5 148.5q147 0 243.5 -78t96.5 -164q0 -43 -25.5 -68t-76.5 -25q-66 0 -97 41q-21 22 -26.5 88t-44.5 101q-38 34 -108 33q-108 0 -177 -82q-90 -108 -91 -286q0 -182 89.5 -321.5t240.5 -139.5q110 0 196 75q61 53 118 185l32 -16 q-41 -198 -160 -307.5t-264 -109.5q-174 0 -302 145t-128 393zM583 -457v1957h99v-1957h-99z" />
<glyph unicode="&#xa3;" horiz-adv-x="1120" d="M84 744v67h149q-64 158 -64 279q0 249 136.5 383t338.5 134h4q84 0 206 -16t122 -37v-178h-64q-5 68 -85 112q-80 35 -177 35h-3q-110 0 -210 -111q-92 -103 -93 -266q0 -18 2 -34q0 -149 58 -301h398v-67h-369q16 -34 34 -67q39 -69 39 -153q0 -177 -179 -414h444 q144 0 209 146l55 -1l-115 -255h-794l1 55q207 264 207 463q0 85 -38 157q-19 35 -34 69h-178z" />
<glyph unicode="&#xa4;" horiz-adv-x="1120" d="M134 457l131 128q-35 51 -53 116q-14 45 -14 91q0 49 15 97q18 61 52 110l-131 129l90 89l130 -129q49 33 109 50q48 15 98 15q46 0 92 -12q63 -19 113 -53l130 129l89 -89l-130 -128q35 -51 53 -114q14 -46 14 -94q0 -46 -14 -94q-19 -62 -53 -113l130 -128l-89 -89 l-130 129q-49 -35 -112 -53q-46 -13 -94 -12q-45 0 -94 12q-63 18 -112 53l-130 -129zM314 792q0 -32 9 -62q19 -65 63 -111q46 -44 110 -63q33 -8 64 -9q33 0 64 9q65 19 109 63q45 46 63 110q11 32 11 63q0 33 -11 64q-18 64 -63 110q-44 44 -110 63q-32 8 -64 9 q-32 0 -64 -10q-63 -19 -109 -62q-43 -44 -61 -109q-11 -33 -11 -65z" />
<glyph unicode="&#xa5;" horiz-adv-x="1394" d="M9 1299q0 22 12 31t36 9q29 0 135 -8.5t182 -8.5h97q37 0 45 -7t8 -29q0 -9 -15.5 -16t-42.5 -7q-6 0 -19.5 2.5t-21.5 2.5q-26 0 -40.5 -10.5t-14.5 -28.5q0 -19 17.5 -57t50.5 -85l175 -245q15 -21 37 -59q45 -78 79 -77q9 0 17.5 5.5t15.5 17.5l306 437q9 14 15 29.5 t6 26.5q0 19 -11.5 29.5t-40.5 16.5q-17 2 -46 4q-51 3 -51 27q0 17 8.5 25.5t27.5 8.5q3 0 16 -1q62 -7 120 -8h154q34 0 72 1t40 1q12 0 20.5 -5t9.5 -12q0 -32 -43 -38q-19 -3 -29 -5q-69 -17 -162 -130q-8 -11 -13 -15l-187 -229h357q17 0 26.5 -6.5t9.5 -19.5 q0 -16 -6.5 -22t-25.5 -6h-404q-50 -63 -106.5 -124.5t-58.5 -66.5h565q20 0 28 -6t8 -19q0 -15 -7.5 -23t-24.5 -8h-585q0 -12 -1.5 -33.5t-1.5 -33.5l3 -237q0 -125 5.5 -165t22.5 -48q34 -20 119 -22.5t85 -34.5q0 -13 -10.5 -22t-28.5 -9q-2 0 -38.5 5t-71.5 5 q-101 0 -230.5 -5t-157.5 -5q-35 0 -44 5t-9 18t8.5 20.5t40.5 13.5q9 2 27 5q83 18 102 36q19 15 27 52t8 113l-2 268q0 20 -2 37.5t-6 35.5l-534 1q-16 0 -24 7.5t-8 21.5q0 15 8 21t24 6h517l-135 191h-380q-18 0 -26 6.5t-8 19.5q0 16 7 22t25 6h339q-47 63 -119 171 q-146 218 -252 218q-7 0 -13.5 6.5t-6.5 11.5z" />
<glyph unicode="&#xa6;" horiz-adv-x="1120" d="M472 410h176v-872h-176v872zM472 873v871h176v-871h-176z" />
<glyph unicode="&#xa7;" horiz-adv-x="1120" d="M188 1249q0 164 98 261q90 88 238 96q9 1 20 1h3q72 0 179.5 -18.5t107.5 -45.5v-214h-56q-6 90 -88 146q-78 51 -166 56h-16q-86 0 -138 -49t-52 -130q0 -146 317 -298q165 -75 226.5 -158.5t61.5 -206.5q0 -190 -111 -313q-53 -42 -110 -69q120 -62 171 -132 q60 -85 60 -207q0 -189 -112 -311q-138 -113 -305 -117v1q-7 -1 -16 -1h-3q-72 0 -179.5 18.5t-107.5 45.5v214h57q5 -89 88 -145q76 -49 161 -55q125 7 203 75q80 71 80 183q0 139 -349 306q-135 70 -194 150.5t-59 195.5q0 164 99 263q75 71 188 90l-44 21 q-135 70 -193.5 151t-58.5 196zM329 631q0 -136 274 -276q62 18 106 58q82 72 82 184q0 6 -1 11h-2q-1 15 -6 31q-24 66 -125 139q-65 33 -138 33q-86 0 -138 -49.5t-52 -130.5z" />
<glyph unicode="&#xa8;" horiz-adv-x="1132" d="M137 1356q0 20 21 38l102 107q19 17 38 17q15 0 39 -21l101 -108q14 -19 14 -35q0 -18 -16 -41l-102 -108q-25 -25 -36 -26q-21 0 -38 17l-111 127q-13 18 -12 33zM660 1356q0 20 21 38l104 107q19 17 36 17q15 0 40 -18l100 -111q16 -19 16 -35q0 -18 -18 -39l-102 -110 q-25 -25 -36 -26q-21 0 -36 17l-113 128q-13 17 -12 32z" />
<glyph unicode="&#xa9;" horiz-adv-x="1850" d="M110 793q0 164 61.5 313.5t176.5 263.5q113 114 263.5 176.5t316.5 62.5q161 0 310 -62.5t264 -176.5q113 -111 175.5 -263t62.5 -314t-62.5 -311t-179.5 -265q-116 -117 -264 -177t-314 -60q-161 0 -307 61.5t-263 178.5q-117 114 -178.5 261.5t-61.5 311.5zM176 793 q0 -150 56.5 -285t164.5 -243q108 -105 241.5 -162t283.5 -57q151 0 286.5 56.5t241.5 160.5q108 109 165.5 245t57.5 285q0 148 -57 287t-160 243q-106 106 -243.5 163t-285.5 57q-151 0 -289.5 -57t-242.5 -163q-106 -107 -162.5 -243.5t-56.5 -286.5zM388 794 q0 141 72 271t207 203t281 73q42 0 83 -6.5t84 -22.5q5 -1 10 -1q22 0 28 33h47l79 -219h-47q-58 104 -145 137q-81 28 -163 29h-17q-95 -8 -184 -78t-134 -196q-37 -100 -37 -203q0 -27 3 -56q13 -134 77 -247.5t164 -167.5q81 -45 184 -47q138 0 215 62t77 139h59v-111 q0 -50 -106.5 -94.5t-268.5 -44.5q-156 0 -291.5 75t-206 204t-70.5 268z" />
<glyph unicode="&#xaa;" horiz-adv-x="932" d="M82 1060q0 62 25 108q38 61 131 115t310 134v32q0 126 -40 173.5t-115 47.5q-59 0 -93 -32q-36 -33 -35 -71l2 -53q0 -43 -21.5 -66t-55.5 -23t-55 24.5t-21 64.5q0 78 80 143.5t224 65.5q112 0 184 -36q55 -28 79 -89q18 -39 17 -160v-287q0 -119 5 -146t15 -35t26 -8 q12 0 24 5q21 11 74 68v-53q-102 -137 -197 -137q-45 0 -71 30.5t-26 106.5q-130 -99 -163 -113q-49 -23 -105 -24q-85 0 -141.5 59.5t-56.5 155.5zM236 1104q0 -65 39 -110t89 -45q70 1 184 94v319q-139 -57 -179 -79q-71 -39 -102 -83t-31 -96z" />
<glyph unicode="&#xab;" horiz-adv-x="1132" d="M49 511l429 520h84l-281 -520l281 -520h-84zM541 511l435 520h86l-280 -520l280 -520h-86z" />
<glyph unicode="&#xac;" horiz-adv-x="1144" d="M97 706v143h960v-543l-33 -1h-109v401h-818z" />
<glyph unicode="&#xad;" horiz-adv-x="987" d="M88 586l73 153h761l-74 -153h-760z" />
<glyph unicode="&#xae;" horiz-adv-x="1850" d="M110 793q0 164 61.5 313.5t176.5 263.5q113 114 263.5 176.5t316.5 62.5q161 0 310 -62.5t264 -176.5q113 -111 175.5 -263t62.5 -314t-62.5 -311t-179.5 -265q-116 -117 -264 -177t-314 -60q-161 0 -307 61.5t-263 178.5q-117 114 -178.5 261.5t-61.5 311.5zM176 793 q0 -150 56.5 -285t164.5 -243q108 -105 241.5 -162t283.5 -57q151 0 286.5 56.5t241.5 160.5q108 109 165.5 245t57.5 285q0 148 -57 287t-160 243q-106 106 -243.5 163t-285.5 57q-151 0 -289.5 -57t-242.5 -163q-106 -107 -162.5 -243.5t-56.5 -286.5zM580 297v56h47 q41 0 41 133v595q0 133 -41 133h-47v78h393q70 -1 138 -46q66 -45 102 -126t36 -168q0 -86 -35.5 -167t-125.5 -149l90 -128q110 -155 166 -155h38v-56h-382v56h49q33 0 33 23q0 33 -77 127l-82 112q-46 0 -93 48v-177q0 -133 40 -133h58v-56h-348zM830 801l3 -9 q25 -61 62 -89q33 -24 62 -25h7q35 4 68 42.5t52 108.5q14 55 14 113q0 15 -2 31q-5 75 -31 138t-62 83t-70 20h-103v-413z" />
<glyph unicode="&#xaf;" horiz-adv-x="1160" d="M11 1589v153h1122v-153h-1122z" />
<glyph unicode="&#xb0;" horiz-adv-x="744" d="M66 1300q0 133 95 227.5t227 94.5q133 0 226.5 -94.5t93.5 -227.5q0 -131 -95 -226t-227 -95q-135 0 -227.5 94t-92.5 227zM177 1296q0 -89 63.5 -150.5t150.5 -61.5q89 0 151 61.5t62 150.5t-62.5 151.5t-150.5 62.5q-86 0 -150 -62.5t-64 -151.5z" />
<glyph unicode="&#xb1;" horiz-adv-x="1328" d="M105 45v153h1123v-153h-1123zM105 822v154h1123v-154h-1123zM589 338v1123h155v-1123h-155z" />
<glyph unicode="&#xb2;" horiz-adv-x="1120" d="M238 858v34q302 212 403 346q61 82 61 158q0 68 -50.5 113.5t-127.5 45.5q-70 0 -122.5 -33.5t-79.5 -97.5h-55q17 108 94 170.5t200 62.5q131 0 212 -66t81 -142t-58 -159q-92 -126 -360 -324h227q106 0 141 12.5t59 49.5h53l-72 -170h-606z" />
<glyph unicode="&#xb3;" horiz-adv-x="995" d="M205 852q0 17 21 33t50 16q38 0 104.5 -27t113.5 -27q72 0 123 43.5t51 103.5q0 79 -71.5 132t-223.5 51v29q99 0 164 52t65 120q0 55 -41 88.5t-110 33.5q-106 0 -186 -98l-47 20q44 81 100 119q84 53 189 52q117 0 183 -51.5t66 -111.5q0 -76 -130 -172q90 -27 135 -81 t45 -120q0 -112 -107.5 -194.5t-310.5 -82.5q-106 0 -152 28q-32 18 -31 44z" />
<glyph unicode="&#xb4;" horiz-adv-x="1132" d="M267 1175l404 413q48 48 77 65t56 17q46 0 74 -28t28 -70q0 -32 -21 -59.5t-63 -54.5l-459 -283h-96z" />
<glyph unicode="&#xb5;" horiz-adv-x="1132" d="M14 121l15 39q53 -15 75 -15q30 0 47 13t26 52.5t9 213.5v918q0 93 -13.5 124t-37.5 43q-38 20 -106 20v41h389l-3 -63q-25 -15 -34 -37q-12 -25 -11 -128v-534q81 -89 138.5 -117t111.5 -28q55 0 92.5 26t54 76.5t16.5 219.5v357q0 85 -2 103q-8 28 -25 48v77h363v-41 q-72 0 -98.5 -14.5t-38.5 -42.5q-16 -37 -16 -130v-357q0 -189 -21 -261q-29 -99 -91 -147t-148 -48q-72 0 -143 37.5t-193 172.5v-739h-53z" />
<glyph unicode="&#xb6;" horiz-adv-x="1132" d="M103 1200q0 173 119 279.5t315 106.5h490v-78h-141v-1508h-91v1508h-183v-1508h-92v816q-193 8 -305 112.5t-112 271.5z" />
<glyph unicode="&#xb7;" horiz-adv-x="560" d="M143 811q0 19 21 40l106 110q20 17 38 17q16 0 40 -21l103 -110q16 -23 15 -39q0 -20 -18 -41l-105 -113q-24 -26 -35 -26q-22 0 -38 17l-115 132q-13 16 -12 34z" />
<glyph unicode="&#xb8;" horiz-adv-x="1132" d="M325 -383q113 -68 200 -69q88 0 125 28t37 88t-65 85q-51 20 -135 20q-20 0 -45 -1l66 232h81l-47 -137q41 4 80 7q114 0 178 -53.5t64 -151.5q0 -100 -77.5 -158.5t-212.5 -58.5q-145 0 -249 43v126z" />
<glyph unicode="&#xb9;" horiz-adv-x="1049" d="M357 1522l281 103h48v-689q0 -72 8 -87q5 -11 18 -16q24 -11 108 -11v-37h-441v37q86 0 108 8q18 8 25.5 19.5t7.5 86.5v434q0 84 -6 110q-5 19 -16 25t-27 6q-25 0 -92 -21z" />
<glyph unicode="&#xba;" horiz-adv-x="969" d="M120 1158q9 102 70 199t147 136.5t181 30.5q169 -16 259 -153q75 -119 61 -261q-9 -99 -66 -196.5t-146 -142t-192 -35.5q-168 17 -255 161q-72 122 -59 261zM298 1188q-14 -144 33.5 -255t143.5 -120q68 -6 120 47t66 193q17 177 -51 287q-44 76 -125 83 q-39 4 -79.5 -15.5t-69 -74.5t-38.5 -145z" />
<glyph unicode="&#xbb;" horiz-adv-x="1132" d="M49 -9l280 520l-280 520h86l435 -520l-435 -520h-86zM549 -9l281 520l-281 520h84l429 -520l-429 -520h-84z" />
<glyph unicode="&#xbc;" horiz-adv-x="1789" d="M86 645v58q77 5 102 20t25 56v615q0 66 -20 66q-17 0 -103 -31v55l283 131l33 -7v-819q0 -48 27.5 -64.5t109.5 -21.5v-58h-457zM328 -34l1082 1649h110l-1076 -1649h-116zM985 215v117l484 636h113v-616h132v-137h-132v-215h-167v215h-430zM1092 352h323v427z" />
<glyph unicode="&#xbd;" horiz-adv-x="1789" d="M71 645v58q77 5 102 20t25 56v615q0 66 -18 66q-17 0 -103 -31v55l281 131l34 -7v-819q0 -48 27.5 -64.5t108.5 -21.5v-58h-457zM239 -34l1082 1649h110l-1075 -1649h-117zM1075 686q17 50 21 65q7 16 39 69q34 57 62 79q32 23 91 47t134 24q139 0 226 -69t87 -184 q0 -89 -45 -170t-156 -189l-205 -203h289q47 0 71.5 12.5t50.5 52.5l40 -17l-88 -203h-605v55l234 256q194 208 195 328q0 74 -51.5 127.5t-123.5 53.5q-132 0 -206 -168z" />
<glyph unicode="&#xbe;" horiz-adv-x="1789" d="M34 746q0 38 23.5 63t60.5 25q36 0 97 -47q60 -46 124 -47q75 0 119 44.5t44 118.5q0 105 -77 154q-77 50 -136 50h-12l-54 -7v69q129 43 179 87t50 108q0 53 -36 85.5t-98 32.5q-67 0 -110 -29t-101 -108l-59 43q64 122 138 174.5t189 52.5q53 0 100.5 -15t82 -41.5 t55 -62.5t20.5 -79q0 -92 -146 -196q208 -84 208 -269q0 -139 -133 -233q-134 -93 -330 -93q-198 0 -198 120zM328 -34l1082 1649h110l-1076 -1649h-116zM985 215v117l484 636h113v-616h132v-137h-132v-215h-167v215h-430zM1092 352h323v427z" />
<glyph unicode="&#xbf;" horiz-adv-x="1004" d="M98 -138q0 90 34 167q46 108 164.5 245.5t151 212t38.5 206.5h43q-5 -139 -26 -219t-113 -272.5t-92 -318.5q0 -146 73.5 -226t189.5 -80q96 0 151 46t55 98q0 37 -33 95.5t-33 93.5q0 39 25.5 64.5t62.5 25.5q44 0 83 -46.5t39 -121.5q0 -126 -108 -223t-294 -97 q-188 0 -299.5 102t-111.5 248zM378 955q0 49 35.5 86t86.5 37t86.5 -37t35.5 -86q0 -51 -35.5 -86.5t-86.5 -35.5t-86.5 35t-35.5 87z" />
<glyph unicode="&#xc0;" horiz-adv-x="1473" d="M56 17q4 17 13.5 37t24.5 39t25 26l56 16q82 33 138.5 99t82.5 116q27 57 76.5 172.5t98.5 250.5q69 211 124 333.5t101 191.5q43 62 89.5 110.5t112.5 91.5q-135 29 -271 29q-399 0 -419 -334q-11 -116 32 -220l-178 -199q-20 72 -26.5 141.5t-4.5 122.5q21 285 236 472 q182 149 588 150q20 0 61.5 -2t84 -5t78.5 -6t47 -3h82q-45 -77 -80.5 -224t-44.5 -358q-9 -182 -8 -363.5t14 -337.5q3 -27 6.5 -82.5t10.5 -83.5q3 -6 5 -10.5t28 -7.5q23 -3 46 4.5t33 13.5q34 18 60 37.5t42 19.5q34 -6 3 -57q-29 -48 -74 -85.5t-92.5 -63t-90 -37 t-73.5 -0.5q-56 29 -72 131q-17 112 -21.5 234.5t-4.5 241.5q-14 -11 -30.5 -22t-26.5 -22h-304q-43 -112 -100.5 -207.5t-120.5 -154.5l-66 -57q60 -17 99 -16q6 0 26 6.5t33 13.5q9 6 22.5 7.5t20.5 -5t2 -22.5t-28 -39q-60 -66 -103 -84.5t-65 -12.5q-11 0 -31 8 q-26 5 -68.5 17t-72.5 15l-20 -7t-43 -14.5t-39 -14.5l-17 -7q-11 0 -7 17zM688 724h310q0 96 5 171.5t10 131.5q3 34 14 103t22.5 141.5t23 130.5t17.5 68q-59 -26 -112.5 -102t-102 -177t-90 -211.5t-75.5 -206.5zM746 2074l93 103q72 -234 185 -331l-92 -115 q-123 102 -186 343z" />
<glyph unicode="&#xc1;" horiz-adv-x="1473" d="M56 17q4 17 13.5 37t24.5 39t25 26l56 16q82 33 138.5 99t82.5 116q27 57 76.5 172.5t98.5 250.5q69 211 124 333.5t101 191.5q43 62 89.5 110.5t112.5 91.5q-135 29 -271 29q-399 0 -419 -334q-11 -116 32 -220l-178 -199q-20 72 -26.5 141.5t-4.5 122.5q21 285 236 472 q182 149 588 150q20 0 61.5 -2t84 -5t78.5 -6t47 -3h82q-45 -77 -80.5 -224t-44.5 -358q-9 -182 -8 -363.5t14 -337.5q3 -27 6.5 -82.5t10.5 -83.5q3 -6 5 -10.5t28 -7.5q23 -3 46 4.5t33 13.5q34 18 60 37.5t42 19.5q34 -6 3 -57q-29 -48 -74 -85.5t-92.5 -63t-90 -37 t-73.5 -0.5q-56 29 -72 131q-17 112 -21.5 234.5t-4.5 241.5q-14 -11 -30.5 -22t-26.5 -22h-304q-43 -112 -100.5 -207.5t-120.5 -154.5l-66 -57q60 -17 99 -16q6 0 26 6.5t33 13.5q9 6 22.5 7.5t20.5 -5t2 -22.5t-28 -39q-60 -66 -103 -84.5t-65 -12.5q-11 0 -31 8 q-26 5 -68.5 17t-72.5 15l-20 -7t-43 -14.5t-39 -14.5l-17 -7q-11 0 -7 17zM688 724h310q0 96 5 171.5t10 131.5q3 34 14 103t22.5 141.5t23 130.5t17.5 68q-59 -26 -112.5 -102t-102 -177t-90 -211.5t-75.5 -206.5zM932 1734l148 280q54 26 106 57q43 26 89 59.5t80 69.5 l5 7q7 -9 14 -24q14 -26 13 -46q-17 -135 -432 -389z" />
<glyph unicode="&#xc2;" horiz-adv-x="1473" d="M56 17q4 17 13.5 37t24.5 39t25 26l56 16q82 33 138.5 99t82.5 116q27 57 76.5 172.5t98.5 250.5q69 211 124 333.5t101 191.5q43 62 89.5 110.5t112.5 91.5q-135 29 -271 29q-399 0 -419 -334q-11 -116 32 -220l-178 -199q-20 72 -26.5 141.5t-4.5 122.5q21 285 236 472 q182 149 588 150q20 0 61.5 -2t84 -5t78.5 -6t47 -3h82q-45 -77 -80.5 -224t-44.5 -358q-9 -182 -8 -363.5t14 -337.5q3 -27 6.5 -82.5t10.5 -83.5q3 -6 5 -10.5t28 -7.5q23 -3 46 4.5t33 13.5q34 18 60 37.5t42 19.5q34 -6 3 -57q-29 -48 -74 -85.5t-92.5 -63t-90 -37 t-73.5 -0.5q-56 29 -72 131q-17 112 -21.5 234.5t-4.5 241.5q-14 -11 -30.5 -22t-26.5 -22h-304q-43 -112 -100.5 -207.5t-120.5 -154.5l-66 -57q60 -17 99 -16q6 0 26 6.5t33 13.5q9 6 22.5 7.5t20.5 -5t2 -22.5t-28 -39q-60 -66 -103 -84.5t-65 -12.5q-11 0 -31 8 q-26 5 -68.5 17t-72.5 15l-20 -7t-43 -14.5t-39 -14.5l-17 -7q-11 0 -7 17zM688 724h310q0 96 5 171.5t10 131.5q3 34 14 103t22.5 141.5t23 130.5t17.5 68q-59 -26 -112.5 -102t-102 -177t-90 -211.5t-75.5 -206.5zM750 1754l72 182q30 17 63 43q26 23 56 56t57 82l102 110 q11 -56 27 -116q16 -49 40.5 -108.5t68.5 -116.5l-103 -125q-23 33 -46 75q-20 37 -40 87.5t-34 110.5q-45 -76 -93 -129.5t-85 -87.5q-42 -40 -85 -63z" />
<glyph unicode="&#xc3;" horiz-adv-x="1473" d="M56 17q4 17 13.5 37t24.5 39t25 26l56 16q82 33 138.5 99t82.5 116q27 57 76.5 172.5t98.5 250.5q69 211 124 333.5t101 191.5q43 62 89.5 110.5t112.5 91.5q-135 29 -271 29q-399 0 -419 -334q-11 -116 32 -220l-178 -199q-20 72 -26.5 141.5t-4.5 122.5q21 285 236 472 q182 149 588 150q20 0 61.5 -2t84 -5t78.5 -6t47 -3h82q-45 -77 -80.5 -224t-44.5 -358q-9 -182 -8 -363.5t14 -337.5q3 -27 6.5 -82.5t10.5 -83.5q3 -6 5 -10.5t28 -7.5q23 -3 46 4.5t33 13.5q34 18 60 37.5t42 19.5q34 -6 3 -57q-29 -48 -74 -85.5t-92.5 -63t-90 -37 t-73.5 -0.5q-56 29 -72 131q-17 112 -21.5 234.5t-4.5 241.5q-14 -11 -30.5 -22t-26.5 -22h-304q-43 -112 -100.5 -207.5t-120.5 -154.5l-66 -57q60 -17 99 -16q6 0 26 6.5t33 13.5q9 6 22.5 7.5t20.5 -5t2 -22.5t-28 -39q-60 -66 -103 -84.5t-65 -12.5q-11 0 -31 8 q-26 5 -68.5 17t-72.5 15l-20 -7t-43 -14.5t-39 -14.5l-17 -7q-11 0 -7 17zM585 1840q6 72 69 155q72 96 122 96q17 0 51 -27l115 -90q33 -22 53 -22q16 0 42.5 25t65.5 111v6q11 0 17 -6q9 -14 16 -37v-6q-3 -60 -72 -156q-66 -96 -114 -95q-28 0 -61 26l-113 89 q-36 23 -52 23q-54 0 -99 -135l-7 -9l-7 6q-26 13 -26 46zM688 724h310q0 96 5 171.5t10 131.5q3 34 14 103t22.5 141.5t23 130.5t17.5 68q-59 -26 -112.5 -102t-102 -177t-90 -211.5t-75.5 -206.5z" />
<glyph unicode="&#xc4;" horiz-adv-x="1473" d="M56 17q4 17 13.5 37t24.5 39t25 26l56 16q82 33 138.5 99t82.5 116q27 57 76.5 172.5t98.5 250.5q69 211 124 333.5t101 191.5q43 62 89.5 110.5t112.5 91.5q-135 29 -271 29q-399 0 -419 -334q-11 -116 32 -220l-178 -199q-20 72 -26.5 141.5t-4.5 122.5q21 285 236 472 q182 149 588 150q20 0 61.5 -2t84 -5t78.5 -6t47 -3h82q-45 -77 -80.5 -224t-44.5 -358q-9 -182 -8 -363.5t14 -337.5q3 -27 6.5 -82.5t10.5 -83.5q3 -6 5 -10.5t28 -7.5q23 -3 46 4.5t33 13.5q34 18 60 37.5t42 19.5q34 -6 3 -57q-29 -48 -74 -85.5t-92.5 -63t-90 -37 t-73.5 -0.5q-56 29 -72 131q-17 112 -21.5 234.5t-4.5 241.5q-14 -11 -30.5 -22t-26.5 -22h-304q-43 -112 -100.5 -207.5t-120.5 -154.5l-66 -57q60 -17 99 -16q6 0 26 6.5t33 13.5q9 6 22.5 7.5t20.5 -5t2 -22.5t-28 -39q-60 -66 -103 -84.5t-65 -12.5q-11 0 -31 8 q-26 5 -68.5 17t-72.5 15l-20 -7t-43 -14.5t-39 -14.5l-17 -7q-11 0 -7 17zM536 1896l145 149q16 -17 33 -40q16 -20 30.5 -46.5t28.5 -62.5l-145 -155q-11 46 -25.5 75.5t-31.5 46.5q-17 20 -35 33zM688 724h310q0 96 5 171.5t10 131.5q3 34 14 103t22.5 141.5t23 130.5 t17.5 68q-59 -26 -112.5 -102t-102 -177t-90 -211.5t-75.5 -206.5zM865 1896l145 149q17 -17 34 -40q17 -20 31.5 -46.5t27.5 -62.5l-145 -155q-9 46 -24 75.5t-33 46.5q-16 20 -36 33z" />
<glyph unicode="&#xc5;" horiz-adv-x="1473" d="M56 17q4 17 13.5 37t24.5 39t25 26l56 16q82 33 138.5 99t82.5 116q27 57 76.5 172.5t98.5 250.5q69 211 124 333.5t101 191.5q43 62 89.5 110.5t112.5 91.5q-135 29 -271 29q-399 0 -419 -334q-11 -116 32 -220l-178 -199q-20 72 -26.5 141.5t-4.5 122.5q21 285 236 472 q182 149 588 150q20 0 61.5 -2t84 -5t78.5 -6t47 -3h82q-45 -77 -80.5 -224t-44.5 -358q-9 -182 -8 -363.5t14 -337.5q3 -27 6.5 -82.5t10.5 -83.5q3 -6 5 -10.5t28 -7.5q23 -3 46 4.5t33 13.5q34 18 60 37.5t42 19.5q34 -6 3 -57q-29 -48 -74 -85.5t-92.5 -63t-90 -37 t-73.5 -0.5q-56 29 -72 131q-17 112 -21.5 234.5t-4.5 241.5q-14 -11 -30.5 -22t-26.5 -22h-304q-43 -112 -100.5 -207.5t-120.5 -154.5l-66 -57q60 -17 99 -16q6 0 26 6.5t33 13.5q9 6 22.5 7.5t20.5 -5t2 -22.5t-28 -39q-60 -66 -103 -84.5t-65 -12.5q-11 0 -31 8 q-26 5 -68.5 17t-72.5 15l-20 -7t-43 -14.5t-39 -14.5l-17 -7q-11 0 -7 17zM688 724h310q0 96 5 171.5t10 131.5q3 34 14 103t22.5 141.5t23 130.5t17.5 68q-59 -26 -112.5 -102t-102 -177t-90 -211.5t-75.5 -206.5zM809 1909q21 96 101 157t196 61q63 0 119 -43t44 -136 q-11 -79 -82 -143t-174 -74q-49 -6 -95 7t-73 42q-23 26 -32.5 56t-3.5 73zM938 1919q-3 -33 13.5 -59.5t52.5 -36.5q36 -9 72.5 12.5t50.5 67.5q6 22 3 62t-57 57q-29 13 -78.5 -8.5t-56.5 -94.5z" />
<glyph unicode="&#xc6;" horiz-adv-x="1961" d="M73 17q3 17 13 37t25 39t24 26l56 16q83 33 139 99t83 116q26 57 76 172.5t99 250.5q69 211 124 333.5t100 191.5q44 62 90 110.5t111 91.5q-134 29 -269 29q-400 0 -421 -334q-9 -116 34 -220l-178 -199q-20 72 -27 141.5t-3 122.5q19 285 234 472q182 149 588 150 q45 0 86 -6.5t80 -17t82 -17t96 -6.5h69l512 3q23 -3 50 0q53 6 91 24l8 4q23 6 21 -17.5t-21 -45.5q-34 -40 -85 -84.5t-114 -41.5l-416 13q-23 -139 -41 -268t-42 -267h165q70 0 148 6.5t160 19.5q-139 -191 -255 -191q-16 0 -32.5 1.5t-32.5 4.5q-43 6 -88 6t-91 4 l-95 -532q-4 -23 -13.5 -43t-17.5 -26l-6 -10q26 -7 89 -16.5t182 -9.5q37 0 78 1.5t87 4.5q14 0 38.5 6.5t49.5 15t46 14.5t29 11q16 11 34 -3t-22 -60q-46 -53 -114 -94.5t-100 -44.5q-17 0 -50 -1.5t-73 -1.5q-56 0 -110.5 1.5t-77.5 4.5q-13 0 -51 5.5t-81 11.5 t-77.5 11.5t-41.5 5.5q-16 -7 -56 -22t-63 -15q-11 0 -9 14.5t10.5 34.5t20 38t21.5 29q29 20 47 37.5t33.5 46t27 71.5t21.5 112q21 122 39 228q-14 -7 -28.5 -18.5t-20.5 -18.5h-416q-44 -112 -101.5 -207.5t-119.5 -154.5l-67 -57q60 -17 99 -16q7 0 27 6.5t33 13.5 q11 6 24 7.5t19 -5t1.5 -22.5t-27.5 -39q-60 -66 -102.5 -84.5t-66.5 -12.5q-9 0 -30 8q-26 5 -69 17t-74 15l-19 -7t-42.5 -14.5t-39.5 -14.5l-17 -7q-9 0 -6 17zM704 724h429q22 135 40.5 242t31.5 196.5t25 163.5t22 144l-97 7q-82 -50 -146 -130.5t-115.5 -175 t-93 -198.5t-73.5 -200z" />
<glyph unicode="&#xc7;" horiz-adv-x="1413" d="M189 568v46.5t2 49.5q17 208 84.5 391.5t183.5 325.5q116 139 263 213t305 74q86 0 157 -26.5t100 -52.5q20 -17 34 -43q11 -23 12.5 -57.5t-26.5 -81.5q-6 -14 -14.5 -31.5t-14.5 -31.5q-17 -26 -31.5 -39t-40.5 -13q-7 0 -12 1.5t-22 8.5q14 22 17 36t6 29 q0 29 -11.5 62.5t-56.5 59.5q-37 23 -83 38.5t-99 15.5q-218 0 -371 -219q-151 -218 -177 -571q-4 -23 -4 -46v-46q0 -205 72 -338q83 -159 239 -158q59 0 120 20t117 66q53 40 102.5 95.5t83.5 122.5l19 4q30 -20 26 -43q-6 -36 -37.5 -93t-91.5 -119q-165 -172 -356 -204 q-17 -27 -35.5 -58.5t-20.5 -37.5q112 -54 112 -169v-20q-11 -96 -76 -162q-69 -72 -185 -89q-43 0 -56 66l-3 6h10q174 20 184 136q7 99 -118 125l-11 4l103 188h-3q-202 0 -307 182q-47 76 -68 172t-21 211z" />
<glyph unicode="&#xc8;" horiz-adv-x="1396" d="M56 945q14 161 80 295t178 237q165 146 450 146l511 2q23 -2 49 0q54 6 94 24l5 3q24 6 22.5 -17t-22.5 -46q-33 -40 -83.5 -84.5t-113.5 -41.5q-106 4 -208.5 7.5t-208.5 6.5q-23 -139 -41 -268t-41 -267h166q68 0 145.5 6.5t160.5 19.5q-139 -192 -254 -192 q-17 0 -33.5 1.5t-32.5 4.5q-53 7 -81 7.5t-97 3.5q-26 -132 -48.5 -265.5t-48.5 -267.5q-3 -22 -13 -42.5t-17 -26.5l-6 -9q26 -6 88.5 -16.5t182.5 -10.5q36 0 77.5 2t87.5 5q13 0 38 6.5t49.5 14.5t46 15t28.5 10q17 11 34.5 -3t-21.5 -60q-46 -53 -113.5 -93.5 t-101.5 -44.5q-16 0 -49 -2t-73 -2q-57 0 -111 2t-77 6q-14 0 -51.5 4.5t-80.5 11.5t-77.5 11.5t-42.5 4.5q-16 -6 -55 -21t-63 -15q-9 0 -7.5 15t9.5 34.5t19.5 37.5t22.5 29q29 19 47.5 37.5t33 46t26 70.5t21.5 113q40 225 66 388.5t46 288.5t35 222.5t27 187.5h-12 q-171 0 -275 -90q-102 -99 -112 -244q-11 -89 26 -195l-188 -208q-9 56 -12.5 107t-0.5 98zM744 2074l91 103q74 -234 186 -331l-93 -115q-123 102 -184 343z" />
<glyph unicode="&#xc9;" horiz-adv-x="1396" d="M56 945q14 161 80 295t178 237q165 146 450 146l511 2q23 -2 49 0q54 6 94 24l5 3q24 6 22.5 -17t-22.5 -46q-33 -40 -83.5 -84.5t-113.5 -41.5q-106 4 -208.5 7.5t-208.5 6.5q-23 -139 -41 -268t-41 -267h166q68 0 145.5 6.5t160.5 19.5q-139 -192 -254 -192 q-17 0 -33.5 1.5t-32.5 4.5q-53 7 -81 7.5t-97 3.5q-26 -132 -48.5 -265.5t-48.5 -267.5q-3 -22 -13 -42.5t-17 -26.5l-6 -9q26 -6 88.5 -16.5t182.5 -10.5q36 0 77.5 2t87.5 5q13 0 38 6.5t49.5 14.5t46 15t28.5 10q17 11 34.5 -3t-21.5 -60q-46 -53 -113.5 -93.5 t-101.5 -44.5q-16 0 -49 -2t-73 -2q-57 0 -111 2t-77 6q-14 0 -51.5 4.5t-80.5 11.5t-77.5 11.5t-42.5 4.5q-16 -6 -55 -21t-63 -15q-9 0 -7.5 15t9.5 34.5t19.5 37.5t22.5 29q29 19 47.5 37.5t33 46t26 70.5t21.5 113q40 225 66 388.5t46 288.5t35 222.5t27 187.5h-12 q-171 0 -275 -90q-102 -99 -112 -244q-11 -89 26 -195l-188 -208q-9 56 -12.5 107t-0.5 98zM730 1698l149 281q53 26 105 55q43 27 89.5 60t79.5 70l6 7q6 -11 14 -23q13 -26 13 -47q-17 -134 -433 -389z" />
<glyph unicode="&#xca;" horiz-adv-x="1396" d="M56 945q14 161 80 295t178 237q165 146 450 146l511 2q23 -2 49 0q54 6 94 24l5 3q24 6 22.5 -17t-22.5 -46q-33 -40 -83.5 -84.5t-113.5 -41.5q-106 4 -208.5 7.5t-208.5 6.5q-23 -139 -41 -268t-41 -267h166q68 0 145.5 6.5t160.5 19.5q-139 -192 -254 -192 q-17 0 -33.5 1.5t-32.5 4.5q-53 7 -81 7.5t-97 3.5q-26 -132 -48.5 -265.5t-48.5 -267.5q-3 -22 -13 -42.5t-17 -26.5l-6 -9q26 -6 88.5 -16.5t182.5 -10.5q36 0 77.5 2t87.5 5q13 0 38 6.5t49.5 14.5t46 15t28.5 10q17 11 34.5 -3t-21.5 -60q-46 -53 -113.5 -93.5 t-101.5 -44.5q-16 0 -49 -2t-73 -2q-57 0 -111 2t-77 6q-14 0 -51.5 4.5t-80.5 11.5t-77.5 11.5t-42.5 4.5q-16 -6 -55 -21t-63 -15q-9 0 -7.5 15t9.5 34.5t19.5 37.5t22.5 29q29 19 47.5 37.5t33 46t26 70.5t21.5 113q40 225 66 388.5t46 288.5t35 222.5t27 187.5h-12 q-171 0 -275 -90q-102 -99 -112 -244q-11 -89 26 -195l-188 -208q-9 56 -12.5 107t-0.5 98zM724 1754l72 182q30 17 63 43q26 23 56 56t56 82l102 110q11 -56 27 -116q17 -49 41.5 -108.5t67.5 -116.5l-103 -125q-22 33 -45 75q-21 37 -40.5 87.5t-33.5 110.5 q-45 -76 -93.5 -129.5t-84.5 -87.5q-42 -40 -85 -63z" />
<glyph unicode="&#xcb;" horiz-adv-x="1396" d="M56 945q14 161 80 295t178 237q165 146 450 146l511 2q23 -2 49 0q54 6 94 24l5 3q24 6 22.5 -17t-22.5 -46q-33 -40 -83.5 -84.5t-113.5 -41.5q-106 4 -208.5 7.5t-208.5 6.5q-23 -139 -41 -268t-41 -267h166q68 0 145.5 6.5t160.5 19.5q-139 -192 -254 -192 q-17 0 -33.5 1.5t-32.5 4.5q-53 7 -81 7.5t-97 3.5q-26 -132 -48.5 -265.5t-48.5 -267.5q-3 -22 -13 -42.5t-17 -26.5l-6 -9q26 -6 88.5 -16.5t182.5 -10.5q36 0 77.5 2t87.5 5q13 0 38 6.5t49.5 14.5t46 15t28.5 10q17 11 34.5 -3t-21.5 -60q-46 -53 -113.5 -93.5 t-101.5 -44.5q-16 0 -49 -2t-73 -2q-57 0 -111 2t-77 6q-14 0 -51.5 4.5t-80.5 11.5t-77.5 11.5t-42.5 4.5q-16 -6 -55 -21t-63 -15q-9 0 -7.5 15t9.5 34.5t19.5 37.5t22.5 29q29 19 47.5 37.5t33 46t26 70.5t21.5 113q40 225 66 388.5t46 288.5t35 222.5t27 187.5h-12 q-171 0 -275 -90q-102 -99 -112 -244q-11 -89 26 -195l-188 -208q-9 56 -12.5 107t-0.5 98zM641 1896l145 149q18 -17 33 -40q16 -20 31 -46.5t29 -62.5l-146 -155q-9 46 -24.5 75.5t-31.5 46.5q-17 20 -36 33zM971 1896l145 149q17 -17 34 -40q16 -20 30.5 -46.5 t28.5 -62.5l-145 -155q-11 46 -25.5 75.5t-30.5 46.5q-18 20 -37 33z" />
<glyph unicode="&#xcc;" horiz-adv-x="845" d="M68 20q1 17 9.5 38t21.5 41t24 30q13 9 27.5 12.5t31.5 10.5q20 6 36 11t24 12q26 26 39 74t27 137l154 1071q-26 -7 -64 -10t-41 -3q-23 0 -50 11.5t-73 77.5q-43 49 -28 59t42 -3q13 -6 35 -6h27q11 0 48.5 4.5t87.5 9.5t101.5 11.5t86.5 14.5q9 0 18 1t15 1q7 0 10 3 q42 3 70.5 -16.5t42.5 -32.5l13 -14q23 -22 38 -55t-11 -50l-8 7q-3 3 -16 10q-9 6 -25.5 11t-40.5 1q-14 0 -46.5 -1.5t-59.5 -7.5q-46 -317 -96 -624.5t-95 -624.5q-4 -23 -13.5 -41.5t-16.5 -30.5q34 -6 73 -13t59 -7q9 0 29 5t30 11q24 16 43.5 6.5t-25.5 -58.5 q-63 -66 -103 -86t-66 -14q-6 0 -30 5.5t-55.5 11.5t-62.5 11.5t-48 8.5q-6 0 -42 -8.5t-73 -15.5q-19 -5 -37.5 -9t-28.5 -4q-9 0 -8 17zM390 2074l93 103q71 -234 184 -331l-93 -115q-122 102 -184 343z" />
<glyph unicode="&#xcd;" horiz-adv-x="924" d="M68 20q1 17 9.5 38t21.5 41t24 30q13 9 27.5 12.5t31.5 10.5q20 6 36 11t24 12q26 26 39 74t27 137l154 1071q-26 -7 -64 -10t-41 -3q-23 0 -50 11.5t-73 77.5q-43 49 -28 59t42 -3q13 -6 35 -6h27q11 0 48.5 4.5t87.5 9.5t101.5 11.5t86.5 14.5q9 0 18 1t15 1q7 0 10 3 q42 3 70.5 -16.5t42.5 -32.5l13 -14q23 -22 38 -55t-11 -50l-8 7q-3 3 -16 10q-9 6 -25.5 11t-40.5 1q-14 0 -46.5 -1.5t-59.5 -7.5q-46 -317 -96 -624.5t-95 -624.5q-4 -23 -13.5 -41.5t-16.5 -30.5q34 -6 73 -13t59 -7q9 0 29 5t30 11q24 16 43.5 6.5t-25.5 -58.5 q-63 -66 -103 -86t-66 -14q-6 0 -30 5.5t-55.5 11.5t-62.5 11.5t-48 8.5q-6 0 -42 -8.5t-73 -15.5q-19 -5 -37.5 -9t-28.5 -4q-9 0 -8 17zM465 1698l149 281q53 26 105 55q44 27 90.5 60t79.5 70l6 7q6 -11 13 -23q14 -26 14 -47q-17 -134 -434 -389z" />
<glyph unicode="&#xce;" horiz-adv-x="845" d="M68 20q1 17 9.5 38t21.5 41t24 30q13 9 27.5 12.5t31.5 10.5q20 6 36 11t24 12q26 26 39 74t27 137l154 1071q-26 -7 -64 -10t-41 -3q-23 0 -50 11.5t-73 77.5q-43 49 -28 59t42 -3q13 -6 35 -6h27q11 0 48.5 4.5t87.5 9.5t101.5 11.5t86.5 14.5q9 0 18 1t15 1q7 0 10 3 q42 3 70.5 -16.5t42.5 -32.5l13 -14q23 -22 38 -55t-11 -50l-8 7q-3 3 -16 10q-9 6 -25.5 11t-40.5 1q-14 0 -46.5 -1.5t-59.5 -7.5q-46 -317 -96 -624.5t-95 -624.5q-4 -23 -13.5 -41.5t-16.5 -30.5q34 -6 73 -13t59 -7q9 0 29 5t30 11q24 16 43.5 6.5t-25.5 -58.5 q-63 -66 -103 -86t-66 -14q-6 0 -30 5.5t-55.5 11.5t-62.5 11.5t-48 8.5q-6 0 -42 -8.5t-73 -15.5q-19 -5 -37.5 -9t-28.5 -4q-9 0 -8 17zM314 1754l72 182q30 17 64 43q26 23 56 56t56 82l102 110q11 -56 26 -116q17 -49 41.5 -108.5t67.5 -116.5l-103 -125q-22 33 -45 75 q-21 37 -40.5 87.5t-32.5 110.5q-45 -76 -93.5 -129.5t-85.5 -87.5q-42 -40 -85 -63z" />
<glyph unicode="&#xcf;" horiz-adv-x="868" d="M68 20q1 17 9.5 38t21.5 41t24 30q13 9 27.5 12.5t31.5 10.5q20 6 36 11t24 12q26 26 39 74t27 137l154 1071q-26 -7 -64 -10t-41 -3q-23 0 -50 11.5t-73 77.5q-43 49 -28 59t42 -3q13 -6 35 -6h27q11 0 48.5 4.5t87.5 9.5t101.5 11.5t86.5 14.5q9 0 18 1t15 1q7 0 10 3 q42 3 70.5 -16.5t42.5 -32.5l13 -14q23 -22 38 -55t-11 -50l-8 7q-3 3 -16 10q-9 6 -25.5 11t-40.5 1q-14 0 -46.5 -1.5t-59.5 -7.5q-46 -317 -96 -624.5t-95 -624.5q-4 -23 -13.5 -41.5t-16.5 -30.5q34 -6 73 -13t59 -7q9 0 29 5t30 11q24 16 43.5 6.5t-25.5 -58.5 q-63 -66 -103 -86t-66 -14q-6 0 -30 5.5t-55.5 11.5t-62.5 11.5t-48 8.5q-6 0 -42 -8.5t-73 -15.5q-19 -5 -37.5 -9t-28.5 -4q-9 0 -8 17zM300 1896l146 149q16 -17 33 -40q17 -20 31.5 -46.5t28.5 -62.5l-145 -155q-11 46 -25.5 75.5t-32.5 46.5q-16 20 -36 33zM630 1896 l146 149q17 -17 33 -40q18 -20 32.5 -46.5t27.5 -62.5l-145 -155q-9 46 -24.5 75.5t-32.5 46.5q-16 20 -37 33z" />
<glyph unicode="&#xd0;" horiz-adv-x="1652" d="M54.5 835.5q-5.5 53.5 1.5 106.5q26 347 258 535h-4q228 185 640 185q173 0 291.5 -43.5t192 -122t102.5 -188t24 -241.5q-7 -86 -22 -177t-41.5 -179.5t-63 -171.5t-81.5 -149q-41 -56 -102 -124.5t-136.5 -127.5t-163.5 -98.5t-186 -39.5h-113q-14 0 -53 7t-84 13 t-81.5 10t-38.5 4q-18 -7 -59 -22t-61 -15q-9 0 -6 16t11 36t19.5 40t24.5 27q46 29 76.5 72t46.5 126q16 99 36 214.5t43 241.5h-307l102 95h221q27 159 55.5 314t47.5 281q4 29 26 63q-217 -34 -326.5 -141t-115.5 -239q-9 -92 23 -198l-182 -205q-9 42 -14.5 95.5z M559 162q45 -9 106.5 -16t124.5 -4q76 0 143.5 30t123.5 72.5t97 92t64 88.5q57 133 91.5 288.5t34.5 310.5q0 245 -127 379t-382 134h-2q-6 -17 -8.5 -27t-5.5 -21q-3 -13 -3 -19l-109 -605h317l-102 -95h-232l-91 -528q-7 -23 -19 -43t-21 -37z" />
<glyph unicode="&#xd1;" horiz-adv-x="1743" d="M54 850.5q-1 50.5 2 107.5q7 140 58 261.5t146 217.5q97 97 209 147.5t245 43.5h32q18 0 44 -1.5t63 -1.5q-11 -39 -11 -50q0 -6 -1.5 -10.5t-1.5 -8.5q-6 -116 48.5 -271.5t152.5 -326.5q27 -46 60 -97.5t59 -96.5q43 -74 69.5 -119.5t52.5 -105.5q23 145 47 290.5 t50 290.5q48 277 116.5 483.5t154.5 321.5q202 272 419 272q46 0 87.5 -11.5t86.5 -28.5l-168 -198q-82 69 -145 69q-132 0 -212 -159q-92 -175 -154 -567q-34 -183 -58.5 -321.5t-42.5 -244.5t-31 -179.5t-24 -123.5q-20 -116 -26 -146q-11 -36 -20 -59t-27 -60 q-5 -13 -22 -39t-38.5 -54.5t-44.5 -50t-43 -21.5q-30 0 -28.5 28.5t8.5 57.5q0 11 7 37q3 9 3 19q9 135 -13 202q-20 56 -65 137t-100 183l-63 106q-76 122 -119 211t-70 179q-36 -234 -77 -462t-78 -463q-6 -23 -19 -41t-21 -35q26 -9 54.5 -14.5t48.5 -5.5q6 0 28 6.5 t28 13.5q20 14 40 0.5t-23 -59.5q-49 -57 -94 -76.5t-68 -19.5q-33 6 -72.5 19.5t-75.5 16.5q-18 0 -62.5 -20t-60.5 -20q-7 0 -3.5 15.5t11.5 35.5t20 39t21 30q26 19 44.5 37.5t32 46t25 69t24.5 110.5q45 271 88.5 537t90.5 540h-30q-376 0 -397 -308q-8 -95 33 -200 l-188 -211q-11 56 -12 106.5zM513 1774q0 -33 26 -46l6 -8l6 11q47 135 100 135q16 0 53 -23l112 -89q33 -26 63 -26q45 0 111 95q70 96 74 156v6q-6 23 -17 37q-8 6 -16 6v-6q-41 -86 -67 -111t-42 -25q-21 0 -53 23l-116 90q-34 26 -49 26q-49 0 -123 -96 q-62 -83 -68 -155z" />
<glyph unicode="&#xd2;" horiz-adv-x="1407" d="M112 651q29 413 274 716q244 305 538 305q97 0 166 -46.5t125 -136.5q109 -182 89 -468q-29 -414 -273 -716q-126 -152 -258 -228.5t-288 -76.5q-96 0 -163.5 48t-124.5 137q-105 185 -85 466zM317 648q0 -209 66 -351q42 -92 99 -131.5t129 -39.5q92 0 175 72.5 t156 184.5q68 112 105 233t51 289q2 26 2 52.5v52.5q0 211 -69 361q-44 89 -93 128.5t-119 39.5q-92 0 -181.5 -67.5t-158.5 -173.5q-66 -112 -105.5 -239t-53.5 -295q-3 -30 -3 -60v-56zM559 2074l92 103q72 -234 184 -331l-91 -115q-122 102 -185 343z" />
<glyph unicode="&#xd3;" horiz-adv-x="1407" d="M112 651q29 413 274 716q244 305 538 305q97 0 166 -46.5t125 -136.5q109 -182 89 -468q-29 -414 -273 -716q-126 -152 -258 -228.5t-288 -76.5q-96 0 -163.5 48t-124.5 137q-105 185 -85 466zM317 648q0 -209 66 -351q42 -92 99 -131.5t129 -39.5q92 0 175 72.5 t156 184.5q68 112 105 233t51 289q2 26 2 52.5v52.5q0 211 -69 361q-44 89 -93 128.5t-119 39.5q-92 0 -181.5 -67.5t-158.5 -173.5q-66 -112 -105.5 -239t-53.5 -295q-3 -30 -3 -60v-56zM782 1764l150 281q53 26 106 56q42 26 88.5 59t79.5 70l7 7q5 -11 13 -24 q14 -26 13 -46q-18 -134 -433 -390z" />
<glyph unicode="&#xd4;" horiz-adv-x="1407" d="M112 651q29 413 274 716q244 305 538 305q97 0 166 -46.5t125 -136.5q109 -182 89 -468q-29 -414 -273 -716q-126 -152 -258 -228.5t-288 -76.5q-96 0 -163.5 48t-124.5 137q-105 185 -85 466zM317 648q0 -209 66 -351q42 -92 99 -131.5t129 -39.5q92 0 175 72.5 t156 184.5q68 112 105 233t51 289q2 26 2 52.5v52.5q0 211 -69 361q-44 89 -93 128.5t-119 39.5q-92 0 -181.5 -67.5t-158.5 -173.5q-66 -112 -105.5 -239t-53.5 -295q-3 -30 -3 -60v-56zM607 1754l74 182q29 17 63 43q26 23 56 56t56 82l102 110q11 -56 26 -116 q17 -49 41.5 -108.5t67.5 -116.5l-103 -125q-22 33 -45 75q-21 37 -40.5 87.5t-32.5 110.5q-45 -76 -93.5 -129.5t-85.5 -87.5q-42 -40 -86 -63z" />
<glyph unicode="&#xd5;" horiz-adv-x="1407" d="M112 651q29 413 274 716q244 305 538 305q97 0 166 -46.5t125 -136.5q109 -182 89 -468q-29 -414 -273 -716q-126 -152 -258 -228.5t-288 -76.5q-96 0 -163.5 48t-124.5 137q-105 185 -85 466zM317 648q0 -209 66 -351q42 -92 99 -131.5t129 -39.5q92 0 175 72.5 t156 184.5q68 112 105 233t51 289q2 26 2 52.5v52.5q0 211 -69 361q-44 89 -93 128.5t-119 39.5q-92 0 -181.5 -67.5t-158.5 -173.5q-66 -112 -105.5 -239t-53.5 -295q-3 -30 -3 -60v-56zM528 1774q7 72 71 155q71 96 120 96q18 0 51 -26l115 -90q34 -23 53 -23 q17 0 43.5 25t65.5 111v6q11 0 17 -6q9 -14 16 -37v-6q-3 -60 -72 -156q-66 -96 -113 -95q-29 0 -62 26l-114 89q-36 23 -52 23q-53 0 -99 -135l-6 -11l-7 8q-26 14 -27 46z" />
<glyph unicode="&#xd6;" horiz-adv-x="1407" d="M112 651q29 413 274 716q244 305 538 305q97 0 166 -46.5t125 -136.5q109 -182 89 -468q-29 -414 -273 -716q-126 -152 -258 -228.5t-288 -76.5q-96 0 -163.5 48t-124.5 137q-105 185 -85 466zM317 648q0 -209 66 -351q42 -92 99 -131.5t129 -39.5q92 0 175 72.5 t156 184.5q68 112 105 233t51 289q2 26 2 52.5v52.5q0 211 -69 361q-44 89 -93 128.5t-119 39.5q-92 0 -181.5 -67.5t-158.5 -173.5q-66 -112 -105.5 -239t-53.5 -295q-3 -30 -3 -60v-56zM585 1896l145 149q16 -17 34 -40q16 -20 30.5 -46.5t27.5 -62.5l-145 -155 q-11 46 -25 75.5t-30 46.5q-18 20 -37 33zM915 1896l146 149q16 -17 32 -40q17 -20 32 -46.5t28 -62.5l-145 -155q-11 46 -25.5 75.5t-32.5 46.5q-16 20 -35 33z" />
<glyph unicode="&#xd7;" horiz-adv-x="1328" d="M152 11l39 207q103 109 189 195q72 76 131.5 137t62.5 68q-60 106 -105.5 206t-82.5 180q-40 93 -69 175l142 102q29 -82 66 -171q34 -76 78.5 -172t100.5 -188l24.5 24.5t56 58t75.5 81t88 90.5q105 109 238 248l9 -7l-16 -175q-116 -122 -204 -214q-40 -40 -76.5 -79.5 t-66 -69.5t-48.5 -49l-20 -20q59 -112 118.5 -205t107.5 -159q57 -80 110 -145l-129 -129q-40 49 -92 123q-46 62 -107.5 157.5t-137.5 228.5q-4 -4 -25 -27t-54 -57.5t-76 -81t-85 -92.5l-232 -251z" />
<glyph unicode="&#xd8;" horiz-adv-x="1507" d="M109 -105l156 257q-14 19 -20 33q-106 185 -86 466q30 413 274 716q245 305 538 305q112 0 202 -74l85 143h165l-157 -255q105 -184 86 -465q-30 -414 -275 -716q-126 -152 -257.5 -228.5t-287.5 -76.5q-100 0 -172 53l-95 -158h-156zM363 648q0 -80 8.5 -149t27.5 -129 l654 1044q-72 125 -188 125q-92 0 -181.5 -67.5t-158.5 -173.5q-66 -112 -105.5 -239t-52.5 -295q-3 -30 -3.5 -60t-0.5 -56zM469 228q69 -102 188 -102q92 0 175 72.5t155 184.5q70 112 106 233t50 289q4 26 4 52.5v52.5q0 132 -31 242z" />
<glyph unicode="&#xd9;" horiz-adv-x="1615" d="M56 955q20 304 215 489q96 95 195 138t248 43h161q-26 -46 -54 -146.5t-57 -226.5q-7 -26 -26 -108.5t-40 -182t-39 -193.5t-25 -140q-6 -57 -9 -98.5t-3 -79.5q0 -135 42.5 -218t125.5 -83q37 0 76 21t75.5 51t65 64.5t40.5 64.5q53 97 91 228.5t68 310.5q0 4 4.5 32.5 t15 98.5t28.5 185.5t48 294.5q8 57 62 97.5t113 64.5q30 11 52.5 5.5t16.5 -25.5q-30 -46 -46.5 -90.5t-28 -98t-19.5 -117.5t-22 -150l-101 -661q-7 -49 -12.5 -86t-8.5 -69q-9 -102 50 -102q23 0 59.5 14.5t82.5 40.5q0 -6 -1.5 -16t-1.5 -20v-22q-3 -30 -60 -68 l-364 -211l56 345q-95 -149 -207.5 -240t-220.5 -91q-70 0 -121.5 37t-86 97t-51.5 138t-17 164q0 53 7 101t18 93q16 70 39.5 177.5t46.5 223.5q26 138 50.5 258.5t41.5 177.5h-60q-185 0 -259.5 -79.5t-87.5 -232.5q-2 -88 36 -200l-188 -211q-20 112 -13 211zM901 2074 l94 103q72 -234 184 -331l-92 -115q-123 102 -186 343z" />
<glyph unicode="&#xda;" horiz-adv-x="1615" d="M56 955q20 304 215 489q96 95 195 138t248 43h161q-26 -46 -54 -146.5t-57 -226.5q-7 -26 -26 -108.5t-40 -182t-39 -193.5t-25 -140q-6 -57 -9 -98.5t-3 -79.5q0 -135 42.5 -218t125.5 -83q37 0 76 21t75.5 51t65 64.5t40.5 64.5q53 97 91 228.5t68 310.5q0 4 4.5 32.5 t15 98.5t28.5 185.5t48 294.5q8 57 62 97.5t113 64.5q30 11 52.5 5.5t16.5 -25.5q-30 -46 -46.5 -90.5t-28 -98t-19.5 -117.5t-22 -150l-101 -661q-7 -49 -12.5 -86t-8.5 -69q-9 -102 50 -102q23 0 59.5 14.5t82.5 40.5q0 -6 -1.5 -16t-1.5 -20v-22q-3 -30 -60 -68 l-364 -211l56 345q-95 -149 -207.5 -240t-220.5 -91q-70 0 -121.5 37t-86 97t-51.5 138t-17 164q0 53 7 101t18 93q16 70 39.5 177.5t46.5 223.5q26 138 50.5 258.5t41.5 177.5h-60q-185 0 -259.5 -79.5t-87.5 -232.5q-2 -88 36 -200l-188 -211q-20 112 -13 211zM1008 1698 l147 281q54 26 107 55q42 27 88.5 60t79.5 70l7 7q7 -11 12 -23q14 -26 14 -47q-16 -134 -432 -389z" />
<glyph unicode="&#xdb;" horiz-adv-x="1615" d="M56 955q20 304 215 489q96 95 195 138t248 43h161q-26 -46 -54 -146.5t-57 -226.5q-7 -26 -26 -108.5t-40 -182t-39 -193.5t-25 -140q-6 -57 -9 -98.5t-3 -79.5q0 -135 42.5 -218t125.5 -83q37 0 76 21t75.5 51t65 64.5t40.5 64.5q53 97 91 228.5t68 310.5q0 4 4.5 32.5 t15 98.5t28.5 185.5t48 294.5q8 57 62 97.5t113 64.5q30 11 52.5 5.5t16.5 -25.5q-30 -46 -46.5 -90.5t-28 -98t-19.5 -117.5t-22 -150l-101 -661q-7 -49 -12.5 -86t-8.5 -69q-9 -102 50 -102q23 0 59.5 14.5t82.5 40.5q0 -6 -1.5 -16t-1.5 -20v-22q-3 -30 -60 -68 l-364 -211l56 345q-95 -149 -207.5 -240t-220.5 -91q-70 0 -121.5 37t-86 97t-51.5 138t-17 164q0 53 7 101t18 93q16 70 39.5 177.5t46.5 223.5q26 138 50.5 258.5t41.5 177.5h-60q-185 0 -259.5 -79.5t-87.5 -232.5q-2 -88 36 -200l-188 -211q-20 112 -13 211zM915 1754 l72 182q29 17 63 43q26 23 56 56t57 82l103 110q9 -56 26 -116q16 -49 41 -108.5t67 -116.5l-102 -125q-23 33 -46 75q-20 37 -40 87.5t-33 110.5q-46 -76 -93.5 -129.5t-84.5 -87.5q-43 -40 -86 -63z" />
<glyph unicode="&#xdc;" horiz-adv-x="1615" d="M56 955q20 304 215 489q96 95 195 138t248 43h161q-26 -46 -54 -146.5t-57 -226.5q-7 -26 -26 -108.5t-40 -182t-39 -193.5t-25 -140q-6 -57 -9 -98.5t-3 -79.5q0 -135 42.5 -218t125.5 -83q37 0 76 21t75.5 51t65 64.5t40.5 64.5q53 97 91 228.5t68 310.5q0 4 4.5 32.5 t15 98.5t28.5 185.5t48 294.5q8 57 62 97.5t113 64.5q30 11 52.5 5.5t16.5 -25.5q-30 -46 -46.5 -90.5t-28 -98t-19.5 -117.5t-22 -150l-101 -661q-7 -49 -12.5 -86t-8.5 -69q-9 -102 50 -102q23 0 59.5 14.5t82.5 40.5q0 -6 -1.5 -16t-1.5 -20v-22q-3 -30 -60 -68 l-364 -211l56 345q-95 -149 -207.5 -240t-220.5 -91q-70 0 -121.5 37t-86 97t-51.5 138t-17 164q0 53 7 101t18 93q16 70 39.5 177.5t46.5 223.5q26 138 50.5 258.5t41.5 177.5h-60q-185 0 -259.5 -79.5t-87.5 -232.5q-2 -88 36 -200l-188 -211q-20 112 -13 211zM796 1896 l146 149q16 -17 33 -40q16 -20 31 -46.5t29 -62.5l-146 -155q-9 46 -24.5 75.5t-31.5 46.5q-17 20 -37 33zM1127 1896l145 149q17 -17 32 -40q17 -20 32.5 -46.5t27.5 -62.5l-146 -155q-9 46 -24 75.5t-31 46.5q-16 20 -36 33z" />
<glyph unicode="&#xdd;" horiz-adv-x="1351" d="M112 1410q3 72 90 169q89 93 148 93q139 0 235 -249q76 -208 96 -508q49 146 113.5 276t140.5 235q179 246 331 246q59 0 128 -60l-136 -202q-43 39 -82 39q-137 0 -291 -273q-77 -126 -126 -249.5t-75 -262.5l-80 -426q-5 -26 -15.5 -46.5t-20.5 -32.5q26 -9 53 -14.5 t46 -5.5q7 0 28.5 6.5t28.5 13.5q22 17 38.5 0t-18.5 -56q-56 -66 -100.5 -86t-65.5 -14q-9 0 -30 8q-29 5 -70.5 15.5t-71.5 13.5q-11 0 -54.5 -18.5t-64.5 -18.5q-8 0 -10.5 13t2.5 30t15.5 33.5t19.5 25.5q33 24 56.5 45t39 51t28 73t21.5 112l43 239q7 45 9 93.5t2 93.5 q0 110 -14 215.5t-46 211.5q-77 257 -162 258q-66 0 -129 -150q-57 23 -50 63zM674 1698l148 281q53 26 106 55q43 27 89.5 60t80.5 70l5 7q7 -11 13 -23q13 -26 13 -47q-16 -134 -433 -389z" />
<glyph unicode="&#xde;" horiz-adv-x="1278" d="M-528 -942l134 172q60 -20 107 -20q290 0 379 545l225 1481q26 182 94 335.5t174 285.5q211 260 453 260q26 0 57.5 -3t51.5 -10l-157 -172q-48 20 -101 20q-300 0 -380 -542l-119 -746q60 106 124 196t137 161q142 142 247 142q142 0 123 -294q-11 -172 -63.5 -329 t-154.5 -286q-103 -125 -223.5 -181.5t-245.5 -56.5l-47 4l-13 -94q-56 -365 -263 -619q-208 -262 -447 -262q-49 0 -92 13zM320 194q74 -56 172 -55q139 0 235 184q96 186 122 489q11 175 -73 175q-88 0 -221 -160q-171 -220 -215 -504z" />
<glyph unicode="&#xdf;" horiz-adv-x="1182" d="M-661 -809l146 135l6 -3q80 -26 139 -27q139 0 221 103q86 99 133 321l231 1241q68 357 250 559q179 208 428 208q105 0 174 -60q66 -69 62 -161q-9 -140 -231 -348l-86 -82q-138 -139 -142 -212q-9 -66 120 -240l55 -84q112 -145 103 -273q-11 -126 -132 -215 q-116 -92 -271 -93q-99 0 -202 47l-9 7l158 125l7 -8q60 -71 171 -71q126 0 136 122v12q0 77 -66 166l-129 191q-102 132 -102 228v17q9 102 175 248q26 23 53 47.5t27 28.5q171 162 186 298v26q0 76 -38 116q-37 36 -122 35q-152 0 -249 -106q-79 -89 -145 -445l-199 -1058 q-26 -131 -53.5 -233.5t-61.5 -172.5q-71 -148 -198 -250q-194 -169 -412 -169q-49 0 -120 27z" />
<glyph unicode="&#xe0;" horiz-adv-x="1116" d="M100 268q26 350 228 614q205 260 462 261q49 0 95.5 -8t82.5 -25q0 -4 -13 -41.5t-31 -130.5l-94 -508q-30 -146 -34 -182q-3 -27 -3 -36q-7 -37 6 -37q63 0 169 224q40 -36 40 -56q-4 -49 -93 -172q-62 -82 -118.5 -126.5t-103.5 -44.5q-36 0 -53.5 38t-17.5 85 q0 13 3 43.5t9 58.5l40 205q-7 -9 -29.5 -44.5t-56 -78t-69.5 -87.5t-66 -78q-132 -142 -235 -142q-69 0 -97.5 71t-20.5 197zM278 334q-11 -140 50 -140q71 0 197 156q82 97 138 225.5t83 259.5l30 123q-69 46 -158 46q-63 0 -117.5 -49.5t-101.5 -142.5 q-53 -95 -82.5 -217t-38.5 -261zM469 1572l93 103q72 -234 184 -331l-92 -115q-122 103 -185 343z" />
<glyph unicode="&#xe1;" horiz-adv-x="1116" d="M100 268q26 350 228 614q205 260 462 261q49 0 95.5 -8t82.5 -25q0 -4 -13 -41.5t-31 -130.5l-94 -508q-30 -146 -34 -182q-3 -27 -3 -36q-7 -37 6 -37q63 0 169 224q40 -36 40 -56q-4 -49 -93 -172q-62 -82 -118.5 -126.5t-103.5 -44.5q-36 0 -53.5 38t-17.5 85 q0 13 3 43.5t9 58.5l40 205q-7 -9 -29.5 -44.5t-56 -78t-69.5 -87.5t-66 -78q-132 -142 -235 -142q-69 0 -97.5 71t-20.5 197zM278 334q-11 -140 50 -140q71 0 197 156q82 97 138 225.5t83 259.5l30 123q-69 46 -158 46q-63 0 -117.5 -49.5t-101.5 -142.5 q-53 -95 -82.5 -217t-38.5 -261zM688 1262l147 281q54 26 107 55q42 26 88.5 59.5t79.5 70.5l6 6q7 -9 13 -22q14 -27 14 -47q-16 -135 -433 -390z" />
<glyph unicode="&#xe2;" horiz-adv-x="1116" d="M100 268q26 350 228 614q205 260 462 261q49 0 95.5 -8t82.5 -25q0 -4 -13 -41.5t-31 -130.5l-94 -508q-30 -146 -34 -182q-3 -27 -3 -36q-7 -37 6 -37q63 0 169 224q40 -36 40 -56q-4 -49 -93 -172q-62 -82 -118.5 -126.5t-103.5 -44.5q-36 0 -53.5 38t-17.5 85 q0 13 3 43.5t9 58.5l40 205q-7 -9 -29.5 -44.5t-56 -78t-69.5 -87.5t-66 -78q-132 -142 -235 -142q-69 0 -97.5 71t-20.5 197zM278 334q-11 -140 50 -140q71 0 197 156q82 97 138 225.5t83 259.5l30 123q-69 46 -158 46q-63 0 -117.5 -49.5t-101.5 -142.5 q-53 -95 -82.5 -217t-38.5 -261zM476 1239l72 181q29 17 63 43q26 23 55.5 56t57.5 83l103 110q8 -58 26 -117q16 -49 41 -109t67 -115l-102 -126q-24 34 -47 76q-19 37 -39 88t-33 111q-47 -76 -94 -131t-84 -87q-43 -40 -86 -63z" />
<glyph unicode="&#xe3;" horiz-adv-x="1116" d="M100 268q26 350 228 614q205 260 462 261q49 0 95.5 -8t82.5 -25q0 -4 -13 -41.5t-31 -130.5l-94 -508q-30 -146 -34 -182q-3 -27 -3 -36q-7 -37 6 -37q63 0 169 224q40 -36 40 -56q-4 -49 -93 -172q-62 -82 -118.5 -126.5t-103.5 -44.5q-36 0 -53.5 38t-17.5 85 q0 13 3 43.5t9 58.5l40 205q-7 -9 -29.5 -44.5t-56 -78t-69.5 -87.5t-66 -78q-132 -142 -235 -142q-69 0 -97.5 71t-20.5 197zM278 334q-11 -140 50 -140q71 0 197 156q82 97 138 225.5t83 259.5l30 123q-69 46 -158 46q-63 0 -117.5 -49.5t-101.5 -142.5 q-53 -95 -82.5 -217t-38.5 -261zM430 1278q6 74 69 156q72 96 123 95q16 0 48 -26l116 -89q34 -23 53 -23q17 0 43 25t66 110v7q9 0 16 -7q11 -14 17 -37v-6q-3 -60 -73 -154q-66 -97 -112 -97q-29 0 -63 26l-111 89q-37 23 -54 24q-54 0 -99 -135l-7 -10l-6 6 q-26 13 -26 46z" />
<glyph unicode="&#xe4;" horiz-adv-x="1116" d="M100 268q26 350 228 614q205 260 462 261q49 0 95.5 -8t82.5 -25q0 -4 -13 -41.5t-31 -130.5l-94 -508q-30 -146 -34 -182q-3 -27 -3 -36q-7 -37 6 -37q63 0 169 224q40 -36 40 -56q-4 -49 -93 -172q-62 -82 -118.5 -126.5t-103.5 -44.5q-36 0 -53.5 38t-17.5 85 q0 13 3 43.5t9 58.5l40 205q-7 -9 -29.5 -44.5t-56 -78t-69.5 -87.5t-66 -78q-132 -142 -235 -142q-69 0 -97.5 71t-20.5 197zM278 334q-11 -140 50 -140q71 0 197 156q82 97 138 225.5t83 259.5l30 123q-69 46 -158 46q-63 0 -117.5 -49.5t-101.5 -142.5 q-53 -95 -82.5 -217t-38.5 -261zM410 1407l145 149q17 -18 33 -40q16 -19 31 -45.5t29 -63.5l-146 -155q-11 46 -25.5 76t-30.5 46q-17 20 -36 33zM740 1407l145 149q16 -18 34 -40q16 -19 30.5 -45.5t28.5 -63.5l-145 -155q-11 46 -25.5 76t-31.5 46q-17 20 -36 33z" />
<glyph unicode="&#xe5;" horiz-adv-x="1116" d="M100 271q26 351 228 614q205 262 462 262q49 0 95.5 -9t82.5 -25q0 -3 -13 -40.5t-31 -130.5l-94 -509q-30 -146 -34 -182q-3 -26 -3 -36q-7 -37 6 -36q63 0 169 223q40 -36 40 -55q-4 -49 -93 -172q-62 -83 -118.5 -127.5t-103.5 -44.5q-36 0 -53.5 38t-17.5 85 q0 13 3 44.5t9 57.5l40 205q-7 -9 -29.5 -44t-56 -78t-69.5 -87.5t-66 -78.5q-132 -142 -235 -142q-69 0 -97.5 71t-20.5 197zM278 336q-11 -139 50 -139q71 0 197 157q82 96 138 224.5t83 260.5l30 122q-69 47 -158 47q-63 0 -117.5 -50t-101.5 -142q-53 -97 -82.5 -218.5 t-38.5 -261.5zM509 1437q19 97 100 157t197 60q63 0 119 -42.5t43 -134.5q-11 -80 -81.5 -144t-172.5 -75q-50 -6 -96.5 7t-72.5 43q-23 26 -33 56t-3 73zM638 1447q-3 -34 13 -60.5t53 -34.5q37 -11 72.5 10.5t50.5 67.5q6 23 3 63t-57 56q-29 14 -79 -7.5t-56 -94.5z" />
<glyph unicode="&#xe6;" horiz-adv-x="1423" d="M100 271q26 351 228 614q205 262 462 262q49 0 95.5 -9t82.5 -25q0 -3 -11.5 -38t-28.5 -114q165 205 290 205q129 0 120 -162q-6 -85 -50 -178t-109 -169q-66 -77 -153.5 -132.5t-180.5 -88.5q0 -254 142 -254q77 0 139.5 64t125.5 190q43 -40 40 -66q-7 -26 -27 -61 t-47 -71q-174 -231 -336 -231q-47 0 -88 26.5t-70 71.5q-30 47 -42 110t-5 135q0 44 11 83h-14q-7 -9 -29.5 -44t-56 -78t-69.5 -87.5t-66 -78.5q-132 -142 -235 -142q-69 0 -97.5 71t-20.5 197zM278 336q-11 -139 50 -139q71 0 197 157q82 96 138 224.5t83 260.5l30 122 q-69 47 -158 47q-63 0 -117.5 -50t-101.5 -142q-53 -97 -82.5 -218.5t-38.5 -261.5zM856 594q13 -6 33 -6q109 0 201 86q37 36 63 85.5t33 109.5q9 122 -86 121q-76 0 -145 -111q-33 -57 -59.5 -127.5t-39.5 -157.5z" />
<glyph unicode="&#xe7;" horiz-adv-x="874" d="M89 -380l50 102q37 -26 73 -32.5t62 -6.5q43 0 81.5 23t43.5 60q7 45 -54 63.5t-154 25.5l129 156q-66 19 -112 94q-59 100 -49 258q13 149 66 286t142 263q86 116 186.5 183.5t196.5 67.5q72 0 139 -39l-133 -179q-72 42 -142 42q-119 0 -191 -122q-37 -60 -60 -148.5 t-29 -197.5q-3 -66 5 -134t28 -111q33 -89 109 -89q131 0 231 238q20 -27 26.5 -46.5t6.5 -29.5q-3 -53 -38 -109t-98 -112q-68 -66 -128 -92l-77 -90q63 -18 98 -57t28 -108v-4q-16 -109 -95.5 -154.5t-184.5 -45.5q-33 0 -76 11.5t-80 33.5z" />
<glyph unicode="&#xe8;" horiz-adv-x="845" d="M100 347q19 265 197 538q191 277 344 278q129 0 118 -162q-6 -86 -49 -178.5t-109 -168.5q-65 -77 -153 -133t-180 -88q0 -254 142 -254q76 0 138.5 64.5t125.5 189.5q43 -39 40 -66q-7 -26 -27 -61t-46 -72q-175 -231 -336 -231q-47 0 -88.5 26.5t-71.5 73.5 q-29 46 -41 108.5t-4 135.5zM278 591q13 -6 32 -6q110 0 203 85q36 37 62 86.5t32 108.5q11 122 -85 122q-76 0 -146 -112q-33 -56 -59 -127t-39 -157zM357 1572l93 103q72 -234 184 -331l-93 -115q-121 103 -184 343z" />
<glyph unicode="&#xe9;" horiz-adv-x="845" d="M100 347q19 265 197 538q191 277 344 278q129 0 118 -162q-6 -86 -49 -178.5t-109 -168.5q-65 -77 -153 -133t-180 -88q0 -254 142 -254q76 0 138.5 64.5t125.5 189.5q43 -39 40 -66q-7 -26 -27 -61t-46 -72q-175 -231 -336 -231q-47 0 -88.5 26.5t-71.5 73.5 q-29 46 -41 108.5t-4 135.5zM278 591q13 -6 32 -6q110 0 203 85q36 37 62 86.5t32 108.5q11 122 -85 122q-76 0 -146 -112q-33 -56 -59 -127t-39 -157zM450 1272l149 280q53 26 105 57q42 26 88.5 59t79.5 70l7 5q6 -9 14 -23q13 -26 12 -45q-17 -137 -432 -391z" />
<glyph unicode="&#xea;" horiz-adv-x="905" d="M100 347q19 265 197 538q191 277 344 278q129 0 118 -162q-6 -86 -49 -178.5t-109 -168.5q-65 -77 -153 -133t-180 -88q0 -254 142 -254q76 0 138.5 64.5t125.5 189.5q43 -39 40 -66q-7 -26 -27 -61t-46 -72q-175 -231 -336 -231q-47 0 -88.5 26.5t-71.5 73.5 q-29 46 -41 108.5t-4 135.5zM278 591q13 -6 32 -6q110 0 203 85q36 37 62 86.5t32 108.5q11 122 -85 122q-76 0 -146 -112q-33 -56 -59 -127t-39 -157zM336 1239l74 181q29 17 63 43q26 23 56 56t56 83l103 110q8 -58 26 -117q16 -49 40.5 -109t67.5 -115l-103 -126 q-23 34 -45 76q-20 37 -40 88t-33 111q-46 -76 -94 -131t-84 -87q-43 -40 -87 -63z" />
<glyph unicode="&#xeb;" horiz-adv-x="924" d="M100 347q19 265 197 538q191 277 344 278q129 0 118 -162q-6 -86 -49 -178.5t-109 -168.5q-65 -77 -153 -133t-180 -88q0 -254 142 -254q76 0 138.5 64.5t125.5 189.5q43 -39 40 -66q-7 -26 -27 -61t-46 -72q-175 -231 -336 -231q-47 0 -88.5 26.5t-71.5 73.5 q-29 46 -41 108.5t-4 135.5zM274 1407l146 149q16 -18 33 -40q17 -19 31.5 -45.5t28.5 -63.5l-146 -155q-9 46 -24 76t-33 46q-16 20 -36 33zM278 591q13 -6 32 -6q110 0 203 85q36 37 62 86.5t32 108.5q11 122 -85 122q-76 0 -146 -112q-33 -56 -59 -127t-39 -157z M604 1407l146 149q17 -18 32 -40q17 -19 32.5 -45.5t27.5 -63.5l-146 -155q-8 46 -23.5 76t-31.5 46q-16 20 -37 33z" />
<glyph unicode="&#xec;" horiz-adv-x="591" d="M66 839q0 -13 6.5 -28t27.5 -35q45 106 88 158.5t72 52.5q11 0 12.5 -13t0 -31.5t-4.5 -36t-8 -27.5q-45 -272 -71.5 -420.5t-39.5 -224.5q-14 -85 -18 -105q-8 -126 71 -126q103 0 223 172q89 122 94 172q0 20 -31 47l-19 -4q-89 -211 -159 -211q-13 0 -5 36l1 18 q2 18 13.5 89.5t37.5 215t76 394.5q6 26 9.5 53.5t3.5 41.5q3 70 -13 103t-63 33q-65 0 -185 -125q-49 -57 -82.5 -110t-36.5 -89zM129 1572l92 103q74 -234 185 -331l-92 -115q-123 103 -185 343z" />
<glyph unicode="&#xed;" horiz-adv-x="637" d="M66 839q3 36 36 89t83 110q120 125 185 125q47 0 63.5 -32.5t12.5 -103.5q0 -14 -3.5 -41.5t-9.5 -53.5q-49 -251 -75.5 -394.5t-38 -215t-13.5 -89.5l-1 -18q-7 -37 5 -36q70 0 159 211l19 4q30 -27 31 -47q-4 -49 -94 -172q-121 -172 -223 -172q-79 0 -71 126 q4 20 18 105q13 76 39.5 224.5t71.5 420.5q4 9 7.5 27t5 36.5t0 31.5t-12.5 13q-29 0 -72 -52.5t-88 -158.5q-21 20 -27.5 35.5t-6.5 27.5zM218 1218l125 268q53 26 107 57q42 26 88.5 59t79.5 70l7 6q5 -11 13 -24q14 -26 13 -45q-17 -135 -433 -391z" />
<glyph unicode="&#xee;" horiz-adv-x="660" d="M66 839q3 36 36 89t83 110q120 125 185 125q47 0 63.5 -32.5t12.5 -103.5q0 -14 -3.5 -41.5t-9.5 -53.5q-49 -251 -75.5 -394.5t-38 -215t-13.5 -89.5l-1 -18q-7 -37 5 -36q70 0 159 211l19 4q30 -27 31 -47q-4 -49 -94 -172q-121 -172 -223 -172q-79 0 -71 126 q4 20 18 105q13 76 39.5 224.5t71.5 420.5q4 9 7.5 27t5 36.5t0 31.5t-12.5 13q-29 0 -72 -52.5t-88 -158.5q-21 20 -27.5 35.5t-6.5 27.5zM103 1239l72 181q29 17 63 43q26 23 55.5 56t56.5 83l103 110q9 -58 26 -117q17 -49 41.5 -109t67.5 -115l-103 -126q-23 34 -46 76 q-19 37 -39 88t-33 111q-46 -76 -94 -131t-84 -87q-44 -40 -86 -63z" />
<glyph unicode="&#xef;" horiz-adv-x="717" d="M66 839q3 36 36 89t83 110q120 125 185 125q47 0 63.5 -32.5t12.5 -103.5q0 -14 -3.5 -41.5t-9.5 -53.5q-49 -251 -75.5 -394.5t-38 -215t-13.5 -89.5l-1 -18q-7 -37 5 -36q70 0 159 211l19 4q30 -27 31 -47q-4 -49 -94 -172q-121 -172 -223 -172q-79 0 -71 126 q4 20 18 105q13 76 39.5 224.5t71.5 420.5q4 9 7.5 27t5 36.5t0 31.5t-12.5 13q-29 0 -72 -52.5t-88 -158.5q-21 20 -27.5 35.5t-6.5 27.5zM76 1407l145 149q18 -18 33 -40q17 -19 31.5 -45.5t28.5 -63.5l-146 -155q-9 46 -24 76t-32 46q-17 20 -36 33zM406 1407l145 149 q17 -18 34 -40q16 -19 30.5 -45.5t28.5 -63.5l-145 -155q-11 46 -25.5 76t-30.5 46q-18 20 -37 33z" />
<glyph unicode="&#xf0;" horiz-adv-x="1116" d="M103 367q26 308 217 557q198 255 413 255q66 0 139 -26q3 39 3 76v73q0 85 -5 161t-21 152q-6 -6 -69 -39t-139 -76q-86 -50 -198 -109l22 109q100 57 179 102q66 37 122 70t64 36q-74 291 -212 291q-56 0 -117.5 -59.5t-94.5 -142.5l-4 -6h-6q-36 16 -33 55 q9 97 139 213q135 116 231 115q195 0 271 -371q6 3 65.5 36.5t129.5 69.5q82 43 182 99l-21 -115q-91 -53 -168 -90q-65 -36 -118 -62.5l-57 -28.5q18 -77 22.5 -163t4.5 -182v-96t-6 -102q-27 -339 -110 -588q-83 -250 -235 -416q-171 -191 -336 -191q-97 0 -166 72 q-49 54 -72 138t-16 183zM291 545q-20 -277 69 -374q42 -48 119 -48q139 0 235 231q102 234 131 621q-89 65 -201 65q-148 0 -242 -132t-111 -363z" />
<glyph unicode="&#xf1;" horiz-adv-x="1179" d="M92 842q-3 17 32 78t84 118q109 125 178 125q92 0 83 -142q0 -20 -3.5 -41.5t-6.5 -44.5q-9 -69 -14.5 -105.5t-8.5 -56.5t-4.5 -26.5t-1.5 -13.5q56 86 112.5 160.5t114.5 130.5q142 139 241 139q47 0 66.5 -32.5t25 -79.5t-3 -102.5t-15.5 -99.5q-37 -191 -57.5 -307.5 t-32.5 -182t-17 -95.5t-5 -46q-6 -47 10 -47q56 0 155 205l20 4q26 -20 26 -46q-6 -83 -120 -205q-116 -126 -186 -126q-83 0 -74 142q3 80 20 177.5t37 198.5t38 199.5t24 180.5q3 80 -33 80q-112 0 -237 -195q-63 -89 -104 -195t-59 -211q-6 -49 -17.5 -102t-18.5 -103 q-26 -57 -67.5 -97.5t-83.5 -66.5q-27 -14 -45 -11t-13 20q24 46 34 92q6 26 14 56q3 34 10.5 75t19.5 110.5t30 178.5t45 280q7 47 10 70t6 42q7 63 -13 63q-66 0 -158 -208q-29 40 -37 63zM425 1407l146 149q17 -18 33 -40q18 -19 32.5 -45.5t27.5 -63.5l-145 -155 q-9 46 -24.5 76t-32.5 46q-16 20 -37 33zM756 1407l145 149q18 -18 34 -40q16 -19 31 -45.5t29 -63.5l-146 -155q-9 46 -24.5 76t-31.5 46q-17 20 -37 33z" />
<glyph unicode="&#xf2;" horiz-adv-x="908" d="M100 360q9 139 62 274.5t143 263.5q85 123 179 194t180 71q112 0 161.5 -94t39.5 -263q-9 -139 -58.5 -277.5t-145.5 -263.5q-185 -262 -364 -262q-224 0 -197 357zM278 502q-27 -347 139 -347q48 0 93 38t81 104q39 76 64.5 165t32.5 199q22 348 -140 347 q-102 0 -175 -143q-82 -151 -95 -363zM343 1572l93 103q74 -234 186 -331l-94 -115q-122 103 -185 343z" />
<glyph unicode="&#xf3;" horiz-adv-x="908" d="M100 360q9 139 62 274.5t143 263.5q85 123 179 194t180 71q112 0 161.5 -94t39.5 -263q-9 -139 -58.5 -277.5t-145.5 -263.5q-185 -262 -364 -262q-224 0 -197 357zM278 502q-27 -347 139 -347q48 0 93 38t81 104q39 76 64.5 165t32.5 199q22 348 -140 347 q-102 0 -175 -143q-82 -151 -95 -363zM588 1239l149 281q53 26 105 55q43 26 89.5 59.5t78.5 70.5l7 7q7 -11 14 -24q13 -26 13 -46q-17 -134 -433 -390z" />
<glyph unicode="&#xf4;" horiz-adv-x="948" d="M100 360q9 139 62 274.5t143 263.5q85 123 179 194t180 71q112 0 161.5 -94t39.5 -263q-9 -139 -58.5 -277.5t-145.5 -263.5q-185 -262 -364 -262q-224 0 -197 357zM278 502q-27 -347 139 -347q48 0 93 38t81 104q39 76 64.5 165t32.5 199q22 348 -140 347 q-102 0 -175 -143q-82 -151 -95 -363zM423 1275l73 182q29 17 63 43q26 23 55.5 56t55.5 82l103 110q9 -57 26 -117q17 -48 41.5 -108t67.5 -116l-102 -126q-23 34 -47 77q-19 36 -38.5 87.5t-32.5 110.5q-47 -77 -95 -131t-84 -87q-44 -40 -86 -63z" />
<glyph unicode="&#xf5;" horiz-adv-x="954" d="M100 360q9 139 62 274.5t143 263.5q85 123 179 194t180 71q112 0 161.5 -94t39.5 -263q-9 -139 -58.5 -277.5t-145.5 -263.5q-185 -262 -364 -262q-224 0 -197 357zM278 502q-27 -347 139 -347q48 0 93 38t81 104q39 76 64.5 165t32.5 199q22 348 -140 347 q-102 0 -175 -143q-82 -151 -95 -363zM363 1278q6 74 70 156q72 96 122 95q17 0 49 -26l115 -89q34 -23 54 -23q17 0 43 25t66 110v7q11 0 16 -7q11 -14 17 -37v-6q-3 -60 -73 -154q-66 -97 -112 -97q-29 0 -63 26l-112 89q-36 23 -53 24q-53 0 -100 -135l-6 -10l-6 6 q-26 13 -27 46z" />
<glyph unicode="&#xf6;" horiz-adv-x="990" d="M100 360q9 139 62 274.5t143 263.5q85 123 179 194t180 71q112 0 161.5 -94t39.5 -263q-9 -139 -58.5 -277.5t-145.5 -263.5q-185 -262 -364 -262q-224 0 -197 357zM278 502q-27 -347 139 -347q48 0 93 38t81 104q39 76 64.5 165t32.5 199q22 348 -140 347 q-102 0 -175 -143q-82 -151 -95 -363zM383 1407l145 149q17 -18 34 -40q16 -19 30.5 -45.5t29.5 -63.5l-146 -155q-11 46 -25.5 76t-30.5 46q-18 20 -37 33zM714 1407l145 149q16 -18 34 -40q16 -19 30.5 -45.5t26.5 -63.5l-144 -155q-9 46 -24 76t-32 46q-17 20 -36 33z " />
<glyph unicode="&#xf7;" horiz-adv-x="1407" d="M234 601l129 145h921l-121 -145h-929zM548 242l153 164q66 -49 105 -164l-155 -166q-34 109 -103 166zM684 1093l165 165q60 -56 96 -165l-152 -165q-37 116 -109 165z" />
<glyph unicode="&#xf8;" horiz-adv-x="1004" d="M-129 -194l278 376q-18 79 -7 185q11 139 63 274t142 264q86 122 180.5 193t179.5 71q79 0 132 -53l188 258h149l-281 -379q20 -70 13 -183q-11 -138 -60 -277t-144 -264q-185 -260 -364 -260q-89 0 -132 49l-188 -254h-149zM317 410l387 525q-37 79 -113 78 q-103 0 -174 -141q-83 -153 -97 -363q-3 -26 -3 -51v-48zM343 245q33 -83 116 -83q50 0 95 38t80 105q40 76 65 165t31 197q3 26 3 52.5v53.5z" />
<glyph unicode="&#xf9;" horiz-adv-x="1142" d="M92 835q3 40 33 91.5t83 108.5q116 121 182 120q89 0 79 -145q0 -33 -10 -72q-16 -126 -38 -258t-41 -257v2q-7 -42 -10 -83.5t-10 -87.5q-6 -65 30 -65q102 0 240 207q70 103 115 210.5t64 209.5q14 69 27 142t26 140l185 75q-16 -67 -32.5 -138t-27.5 -127l-89 -478 q-3 -13 -6 -35t-10 -45q-7 -26 -10 -59q-9 -57 -10 -83q-6 -37 7 -37q77 0 166 225q42 -33 42 -56t-25 -66t-68 -106q-128 -168 -225 -168q-79 0 -69 126v16q3 17 4.5 34.5t9.5 44.5l33 199v10q-49 -80 -110.5 -156.5t-113.5 -128.5q-63 -66 -124 -105.5t-109 -39.5 q-105 0 -95 162q4 29 8 77t15 115q23 159 43 284q9 53 16 104t13.5 92t11.5 67.5t5 30.5q0 17 -3 34.5t-10 17.5q-65 0 -155 -205q-24 17 -30.5 30t-6.5 26zM505 1572l94 103q71 -234 183 -331l-92 -115q-122 103 -185 343z" />
<glyph unicode="&#xfa;" horiz-adv-x="1142" d="M92 835q3 40 33 91.5t83 108.5q116 121 182 120q89 0 79 -145q0 -33 -10 -72q-16 -126 -38 -258t-41 -257v2q-7 -42 -10 -83.5t-10 -87.5q-6 -65 30 -65q102 0 240 207q70 103 115 210.5t64 209.5q14 69 27 142t26 140l185 75q-16 -67 -32.5 -138t-27.5 -127l-89 -478 q-3 -13 -6 -35t-10 -45q-7 -26 -10 -59q-9 -57 -10 -83q-6 -37 7 -37q77 0 166 225q42 -33 42 -56t-25 -66t-68 -106q-128 -168 -225 -168q-79 0 -69 126v16q3 17 4.5 34.5t9.5 44.5l33 199v10q-49 -80 -110.5 -156.5t-113.5 -128.5q-63 -66 -124 -105.5t-109 -39.5 q-105 0 -95 162q4 29 8 77t15 115q23 159 43 284q9 53 16 104t13.5 92t11.5 67.5t5 30.5q0 17 -3 34.5t-10 17.5q-65 0 -155 -205q-24 17 -30.5 30t-6.5 26zM599 1206l147 280q54 26 107 57q42 26 88 59t80 70l6 6q7 -11 13 -24q14 -26 13 -45q-16 -135 -431 -391z" />
<glyph unicode="&#xfb;" horiz-adv-x="1142" d="M92 835q3 40 33 91.5t83 108.5q116 121 182 120q89 0 79 -145q0 -33 -10 -72q-16 -126 -38 -258t-41 -257v2q-7 -42 -10 -83.5t-10 -87.5q-6 -65 30 -65q102 0 240 207q70 103 115 210.5t64 209.5q14 69 27 142t26 140l185 75q-16 -67 -32.5 -138t-27.5 -127l-89 -478 q-3 -13 -6 -35t-10 -45q-7 -26 -10 -59q-9 -57 -10 -83q-6 -37 7 -37q77 0 166 225q42 -33 42 -56t-25 -66t-68 -106q-128 -168 -225 -168q-79 0 -69 126v16q3 17 4.5 34.5t9.5 44.5l33 199v10q-49 -80 -110.5 -156.5t-113.5 -128.5q-63 -66 -124 -105.5t-109 -39.5 q-105 0 -95 162q4 29 8 77t15 115q23 159 43 284q9 53 16 104t13.5 92t11.5 67.5t5 30.5q0 17 -3 34.5t-10 17.5q-65 0 -155 -205q-24 17 -30.5 30t-6.5 26zM430 1239l72 181q30 17 63 43q26 23 56 56t56 83l102 110q11 -58 27 -117q17 -49 41.5 -109t67.5 -115l-103 -126 q-22 34 -45 76q-21 37 -40.5 88t-33.5 111q-45 -76 -93.5 -131t-84.5 -87q-42 -40 -85 -63z" />
<glyph unicode="&#xfc;" horiz-adv-x="1142" d="M92 835q3 40 33 91.5t83 108.5q116 121 182 120q89 0 79 -145q0 -33 -10 -72q-16 -126 -38 -258t-41 -257v2q-7 -42 -10 -83.5t-10 -87.5q-6 -65 30 -65q102 0 240 207q70 103 115 210.5t64 209.5q14 69 27 142t26 140l185 75q-16 -67 -32.5 -138t-27.5 -127l-89 -478 q-3 -13 -6 -35t-10 -45q-7 -26 -10 -59q-9 -57 -10 -83q-6 -37 7 -37q77 0 166 225q42 -33 42 -56t-25 -66t-68 -106q-128 -168 -225 -168q-79 0 -69 126v16q3 17 4.5 34.5t9.5 44.5l33 199v10q-49 -80 -110.5 -156.5t-113.5 -128.5q-63 -66 -124 -105.5t-109 -39.5 q-105 0 -95 162q4 29 8 77t15 115q23 159 43 284q9 53 16 104t13.5 92t11.5 67.5t5 30.5q0 17 -3 34.5t-10 17.5q-65 0 -155 -205q-24 17 -30.5 30t-6.5 26zM423 1407l145 149q17 -18 33 -40q17 -19 32 -45.5t28 -63.5l-146 -155q-9 46 -24 76t-32 46q-16 20 -36 33z M753 1407l145 149q17 -18 34 -40q17 -19 31.5 -45.5t26.5 -63.5l-145 -155q-11 46 -25 76t-30 46q-17 20 -37 33z" />
<glyph unicode="&#xfd;" horiz-adv-x="1102" d="M-179 -895l142 179q40 -27 86.5 -37.5t92.5 -10.5q182 0 288 146q49 77 98.5 222t96.5 343q13 63 26 117.5l26 109t26.5 110.5t26.5 122q-40 -72 -85.5 -142t-89.5 -119q-116 -142 -185 -142q-46 0 -68 74.5t-24 170.5q5 139 9 290.5t10 291.5q0 59 -6.5 116.5 t-22.5 57.5q-60 0 -145 -182q-44 34 -44 67q3 34 31.5 77.5t74.5 91.5q99 105 162 105q34 0 56 -21.5t36 -54.5q20 -70 17 -245q-3 -99 -6.5 -200t-6.5 -203q-4 -116 4.5 -167t25.5 -51q72 0 184 212q62 100 102 203.5t68 208.5l29 123q0 6 1.5 9.5t1.5 9.5q9 60 64 103 t90 63v-3q24 16 40.5 16t19.5 -16q3 -3 4 -7l-4 -10q-3 -4 -3 -9q0 -4 -3 -8q-20 -49 -38.5 -116.5t-38.5 -160.5l-178 -773q-105 -450 -273 -673q-260 -331 -559 -331q-62 0 -159 43zM528 1206l149 280q53 26 105 57q44 26 90.5 59t77.5 70l8 6q6 -11 13 -24q13 -26 13 -45 q-16 -135 -433 -391z" />
<glyph unicode="&#xfe;" horiz-adv-x="1294" d="M53 -767q116 651 205 1277t198 1247q6 46 14.5 83t12.5 63v3q0 66 -84 113l-49 26l7 26l327 136l12 3q-59 -363 -105 -654q-20 -126 -39.5 -246.5t-36 -220t-26.5 -166.5t-13 -81q57 106 121 188.5t130 148.5q142 149 251 150q54 0 83 -37q53 -53 52 -205v-34.5t-3 -35.5 q-20 -356 -238 -623q-105 -133 -228 -197q-122 -66 -258 -66h-32q0 -2 -5.5 -38.5t-15.5 -94.5t-21.5 -130.5t-24.5 -147.5q-29 -179 -62 -404zM390 323q82 -55 178 -55q139 0 238 188q96 188 122 502q6 126 -27 158q-16 17 -39 17q-92 0 -221 -165q-179 -223 -231 -515 q-7 -33 -11 -59q-5 -24 -7 -45t-2 -26z" />
<glyph unicode="&#xff;" horiz-adv-x="1102" d="M-179 -895l142 179q40 -27 86.5 -37.5t92.5 -10.5q182 0 288 146q49 77 98.5 222t96.5 343q13 63 26 117.5l26 109t26.5 110.5t26.5 122q-40 -72 -85.5 -142t-89.5 -119q-116 -142 -185 -142q-46 0 -68 74.5t-24 170.5q5 139 9 290.5t10 291.5q0 59 -6.5 116.5 t-22.5 57.5q-60 0 -145 -182q-44 34 -44 67q3 34 31.5 77.5t74.5 91.5q99 105 162 105q34 0 56 -21.5t36 -54.5q20 -70 17 -245q-3 -99 -6.5 -200t-6.5 -203q-4 -116 4.5 -167t25.5 -51q72 0 184 212q62 100 102 203.5t68 208.5l29 123q0 6 1.5 9.5t1.5 9.5q9 60 64 103 t90 63v-3q24 16 40.5 16t19.5 -16q3 -3 4 -7l-4 -10q-3 -4 -3 -9q0 -4 -3 -8q-20 -49 -38.5 -116.5t-38.5 -160.5l-178 -773q-105 -450 -273 -673q-260 -331 -559 -331q-62 0 -159 43zM402 1407l146 149q17 -18 33 -40q18 -19 32.5 -45.5t27.5 -63.5l-145 -155 q-11 46 -25.5 76t-31.5 46q-16 20 -37 33zM733 1407l146 149q16 -18 33 -40q17 -19 31.5 -45.5t27.5 -63.5l-144 -155q-11 46 -26 76t-31 46q-17 20 -37 33z" />
<glyph unicode="&#x100;" horiz-adv-x="1556" d="M16 0v39q89 15 117 41q51 51 119 204l502 1175h37l496 -1188q61 -142 109 -184t136 -48v-39h-562v39q83 4 114 28t31 61q0 45 -42 143l-86 208h-553l-98 -227q-34 -82 -34 -123q0 -35 30 -59.5t133 -30.5v-39h-449zM420 1600v121h593v-121h-593zM465 555h491l-240 576z " />
<glyph unicode="&#x101;" horiz-adv-x="955" d="M78 228q0 71 29 124q44 70 150.5 132.5t356.5 153.5v38q0 145 -46 199t-132 54q-68 0 -107 -36q-41 -37 -41 -82l3 -60q0 -50 -25 -76.5t-63 -26.5q-39 0 -64 27.5t-25 75.5q0 89 92.5 164.5t258.5 75.5q129 0 211 -42q63 -34 91 -102q20 -44 20 -185v-329 q0 -137 5.5 -168.5t17 -41t29.5 -9.5q14 0 29 7q23 13 85 77v-60q-118 -156 -227 -157q-51 0 -81.5 35.5t-30.5 121.5q-149 -113 -187 -131q-58 -26 -121 -26q-98 0 -163 68t-65 179zM255 278q0 -76 44.5 -126.5t103.5 -50.5q80 0 211 107v368q-160 -65 -207 -91 q-82 -45 -117 -95.5t-35 -111.5zM258 1262v121h594v-121h-594z" />
<glyph unicode="&#x102;" horiz-adv-x="1556" d="M16 0v39q89 15 117 41q51 51 119 204l502 1175h37l496 -1188q61 -142 109 -184t136 -48v-39h-562v39q83 4 114 28t31 61q0 45 -42 143l-86 208h-553l-98 -227q-34 -82 -34 -123q0 -35 30 -59.5t133 -30.5v-39h-449zM430 1860h94q17 -75 67 -107.5t126 -32.5 q75 0 125 32.5t68 107.5h94q-2 -58 -19.5 -109t-53 -89t-89 -60.5t-125.5 -22.5q-74 0 -127 22.5t-88 60.5t-52.5 89t-19.5 109zM465 555h491l-240 576z" />
<glyph unicode="&#x103;" horiz-adv-x="955" d="M78 228q0 71 29 124q44 70 150.5 132.5t356.5 153.5v38q0 145 -46 199t-132 54q-68 0 -107 -36q-41 -37 -41 -82l3 -60q0 -50 -25 -76.5t-63 -26.5q-39 0 -64 27.5t-25 75.5q0 89 92.5 164.5t258.5 75.5q129 0 211 -42q63 -34 91 -102q20 -44 20 -185v-329 q0 -137 5.5 -168.5t17 -41t29.5 -9.5q14 0 29 7q23 13 85 77v-60q-118 -156 -227 -157q-51 0 -81.5 35.5t-30.5 121.5q-149 -113 -187 -131q-58 -26 -121 -26q-98 0 -163 68t-65 179zM255 278q0 -76 44.5 -126.5t103.5 -50.5q80 0 211 107v368q-160 -65 -207 -91 q-82 -45 -117 -95.5t-35 -111.5zM277 1522h94q17 -75 67 -107.5t126 -32.5q75 0 125 32.5t67 107.5h95q-2 -58 -19.5 -109t-53 -89t-88 -60.5t-126.5 -22.5q-72 0 -126 22.5t-89 60.5t-52.5 89t-19.5 109z" />
<glyph unicode="&#x104;" horiz-adv-x="1556" d="M16 0v39q89 15 117 41q51 51 119 204l502 1175h37l496 -1188q61 -142 109 -184t136 -48v-39h-562v39q83 4 114 28t31 61q0 45 -42 143l-86 208h-553l-98 -227q-34 -82 -34 -123q0 -35 30 -59.5t133 -30.5v-39h-449zM465 555h491l-240 576zM934 -266q0 47 20 90.5t54 79 t77.5 60.5t90.5 36h117q-32 -11 -66 -30.5t-61.5 -49t-45.5 -68.5t-18 -88q0 -34 10.5 -58.5t29.5 -40t45 -23t57 -7.5q27 0 59 4.5t70 12.5v-111q-16 -8 -36.5 -14t-42.5 -10t-42.5 -6.5t-36.5 -2.5q-65 0 -117 13.5t-88.5 41t-56 70t-19.5 101.5z" />
<glyph unicode="&#x105;" horiz-adv-x="956" d="M78 228q0 71 29 124q44 70 150.5 132.5t356.5 153.5v38q0 145 -46 199t-132 54q-68 0 -107 -36q-41 -37 -41 -82l3 -60q0 -50 -25 -76.5t-63 -26.5q-39 0 -64 27.5t-25 75.5q0 89 92.5 164.5t258.5 75.5q129 0 211 -42q63 -34 91 -102q20 -44 20 -185v-329 q0 -137 5.5 -168.5t17 -41t29.5 -9.5q14 0 29 7q23 13 85 77v-60q-118 -156 -227 -157q-51 0 -81.5 35.5t-30.5 121.5q-149 -113 -187 -131q-58 -26 -121 -26q-98 0 -163 68t-65 179zM255 278q0 -76 44.5 -126.5t103.5 -50.5q80 0 211 107v368q-160 -65 -207 -91 q-82 -45 -117 -95.5t-35 -111.5zM549 -266q0 47 20 90.5t54 79t77.5 60.5t90.5 36h117q-33 -11 -66.5 -30.5t-61 -49t-45.5 -68.5t-18 -88q0 -34 10.5 -58.5t29.5 -40t45 -23t57 -7.5q27 0 59 4.5t70 12.5v-111q-17 -8 -37 -14t-42 -10t-42 -6.5t-37 -2.5q-65 0 -117 13.5 t-88.5 41t-56 70t-19.5 101.5z" />
<glyph unicode="&#x106;" horiz-adv-x="1436" d="M78 692q0 213 96 392t263.5 277t366.5 98q153 0 306 -75q43 -25 63 -25q28 0 49 22q27 28 39 78h36l33 -484h-33q-64 217 -186 313t-290 96q-142 0 -257.5 -72.5t-181 -229.5t-65.5 -392q0 -194 62.5 -336t187.5 -218t284 -76q139 0 245.5 59.5t233.5 236.5l32 -23 q-105 -189 -248.5 -277.5t-341.5 -88.5q-355 0 -548 264q-146 196 -146 461zM657 1579v27q22 29 47 67t48.5 78.5t45 81t37.5 74.5h219v-21q-20 -27 -56.5 -67.5t-81.5 -84.5t-92.5 -85.5t-88.5 -69.5h-78z" />
<glyph unicode="&#x107;" horiz-adv-x="956" d="M74 481q0 228 135 369t325 141q141 0 232.5 -74t91.5 -156q0 -41 -24.5 -65t-72.5 -24q-63 0 -93 39q-20 21 -25 84t-42 96q-36 33 -103 32q-103 0 -169 -78q-86 -104 -86 -273q0 -173 85 -306t229 -133q105 0 187 72q59 50 112 176l30 -16q-40 -188 -152.5 -292.5 t-250.5 -104.5q-166 0 -287.5 138.5t-121.5 374.5zM465 1241v27q23 29 47.5 67t48 78.5t45 81t37.5 74.5h219v-21q-19 -27 -56 -67.5t-81.5 -84.5t-92.5 -85.5t-89 -69.5h-78z" />
<glyph unicode="&#x108;" horiz-adv-x="1436" d="M78 692q0 213 96 392t263.5 277t366.5 98q153 0 306 -75q43 -25 63 -25q28 0 49 22q27 28 39 78h36l33 -484h-33q-64 217 -186 313t-290 96q-142 0 -257.5 -72.5t-181 -229.5t-65.5 -392q0 -194 62.5 -336t187.5 -218t284 -76q139 0 245.5 59.5t233.5 236.5l32 -23 q-105 -189 -248.5 -277.5t-341.5 -88.5q-355 0 -548 264q-146 196 -146 461zM459 1579v27q24 29 53 67t57.5 78.5t53.5 81t41 74.5h194q16 -35 41 -75t53.5 -80.5t57.5 -78.5t53 -67v-27h-80q-59 35 -118 85t-105 99q-47 -49 -105 -99.5t-116 -84.5h-80z" />
<glyph unicode="&#x109;" horiz-adv-x="956" d="M74 481q0 228 135 369t325 141q141 0 232.5 -74t91.5 -156q0 -41 -24.5 -65t-72.5 -24q-63 0 -93 39q-20 21 -25 84t-42 96q-36 33 -103 32q-103 0 -169 -78q-86 -104 -86 -273q0 -173 85 -306t229 -133q105 0 187 72q59 50 112 176l30 -16q-40 -188 -152.5 -292.5 t-250.5 -104.5q-166 0 -287.5 138.5t-121.5 374.5zM278 1241v27q24 29 53 67t57.5 78.5t53.5 81t41 74.5h194q16 -34 41 -74.5t53.5 -81t57.5 -78.5t53 -67v-27h-80q-60 34 -118.5 84.5t-104.5 99.5q-46 -49 -104.5 -99.5t-116.5 -84.5h-80z" />
<glyph unicode="&#x10a;" horiz-adv-x="1436" d="M78 692q0 213 96 392t263.5 277t366.5 98q153 0 306 -75q43 -25 63 -25q28 0 49 22q27 28 39 78h36l33 -484h-33q-64 217 -186 313t-290 96q-142 0 -257.5 -72.5t-181 -229.5t-65.5 -392q0 -194 62.5 -336t187.5 -218t284 -76q139 0 245.5 59.5t233.5 236.5l32 -23 q-105 -189 -248.5 -277.5t-341.5 -88.5q-355 0 -548 264q-146 196 -146 461zM651 1737q0 36 9 60t25 39t37 21t46 6q24 0 45 -6t37 -21t25.5 -39t9.5 -60t-9.5 -60t-25.5 -39t-37 -21.5t-45 -6.5q-25 0 -46 6.5t-37 21.5t-25 39t-9 60z" />
<glyph unicode="&#x10b;" horiz-adv-x="956" d="M74 481q0 228 135 369t325 141q141 0 232.5 -74t91.5 -156q0 -41 -24.5 -65t-72.5 -24q-63 0 -93 39q-20 21 -25 84t-42 96q-36 33 -103 32q-103 0 -169 -78q-86 -104 -86 -273q0 -173 85 -306t229 -133q105 0 187 72q59 50 112 176l30 -16q-40 -188 -152.5 -292.5 t-250.5 -104.5q-166 0 -287.5 138.5t-121.5 374.5zM463 1399q0 36 9 60t25 39t37 21t46 6q24 0 45 -6t37 -21t25.5 -39t9.5 -60t-9.5 -60t-25.5 -38.5t-37 -21.5t-45 -7q-25 0 -46 7t-37 21.5t-25 38.5t-9 60z" />
<glyph unicode="&#x10c;" horiz-adv-x="1436" d="M78 692q0 213 96 392t263.5 277t366.5 98q153 0 306 -75q43 -25 63 -25q28 0 49 22q27 28 39 78h36l33 -484h-33q-64 217 -186 313t-290 96q-142 0 -257.5 -72.5t-181 -229.5t-65.5 -392q0 -194 62.5 -336t187.5 -218t284 -76q139 0 245.5 59.5t233.5 236.5l32 -23 q-105 -189 -248.5 -277.5t-341.5 -88.5q-355 0 -548 264q-146 196 -146 461zM436 1880v27h80q29 -18 58.5 -40t58 -46.5t55 -50.5t49.5 -50q23 24 49.5 50t55.5 50.5t59 46.5t59 40h80v-27q-24 -29 -53 -67t-57.5 -78.5t-53.5 -80.5t-41 -75h-194q-16 36 -41.5 75.5 t-53.5 80t-57 78.5t-53 67z" />
<glyph unicode="&#x10d;" horiz-adv-x="956" d="M74 481q0 228 135 369t325 141q141 0 232.5 -74t91.5 -156q0 -41 -24.5 -65t-72.5 -24q-63 0 -93 39q-20 21 -25 84t-42 96q-36 33 -103 32q-103 0 -169 -78q-86 -104 -86 -273q0 -173 85 -306t229 -133q105 0 187 72q59 50 112 176l30 -16q-40 -188 -152.5 -292.5 t-250.5 -104.5q-166 0 -287.5 138.5t-121.5 374.5zM274 1542v27h80q29 -18 58.5 -40t58 -46.5t55 -50t48.5 -50.5q23 25 50 50.5t56 50t59 46.5t59 40h80v-27q-24 -28 -53 -66.5t-57.5 -79t-53.5 -80.5t-41 -75h-194q-16 35 -41 75t-53.5 80.5t-57.5 78.5t-53 67z" />
<glyph unicode="&#x10e;" horiz-adv-x="1555" d="M37 0v39h54q89 0 129 58q21 35 21 155v923q0 132 -28 168q-40 45 -122 45h-54v39h582q319 0 485.5 -72t268 -242.5t101.5 -392.5q0 -298 -180 -496q-203 -224 -620 -224h-637zM377 1880v27h80q29 -18 58.5 -40t58 -46.5t55 -50.5t49.5 -50q22 24 49 50t56 50.5t59 46.5 t59 40h80v-27q-24 -29 -53 -67t-57.5 -78.5t-53.5 -80.5t-41 -75h-194q-16 36 -41 75.5t-53.5 80t-57.5 78.5t-53 67zM444 103q133 -29 224 -29q243 0 405.5 170.5t162.5 466.5q0 295 -162.5 465.5t-413.5 170.5q-95 0 -216 -30v-1214z" />
<glyph unicode="&#x10f;" horiz-adv-x="1078" d="M71 442q0 206 130 378t338 172q128 0 210 -81v180q0 166 -8.5 203.5t-25.5 50t-43 12.5t-71 -14l-15 37l288 115h49v-1114q0 -168 7.5 -205.5t25 -53t40.5 -15.5q28 0 75 21l11 -37l-284 -123h-49v139q-72 -72 -139 -105.5t-145 -33.5q-158 0 -276 133.5t-118 340.5z M266 526q0 -213 91 -326.5t206 -113.5q97 0 186 95v499q-7 71 -38 129.5t-83 89t-102 30.5q-92 0 -166 -84q-95 -111 -94 -319zM1149 1229v26q17 69 33 148t29 153h178v-19q-15 -33 -34.5 -73t-43 -81.5t-47.5 -81.5t-45 -72h-70z" />
<glyph unicode="&#x110;" horiz-adv-x="1488" d="M78 0v86h26q35 0 65.5 5t53.5 20.5t36 44.5t13 77v482h-194v100h194v422q0 45 -13.5 72.5t-37 42.5t-53.5 19.5t-64 4.5h-26v86h627q159 0 282.5 -48.5t209 -141.5t130.5 -229t45 -310q0 -168 -42 -303.5t-125 -231t-208.5 -147t-291.5 -51.5h-627zM479 104h178 q122 0 213.5 41.5t152.5 121.5t91.5 197t30.5 269t-30.5 269t-91 196.5t-152 120.5t-212.5 41h-180v-545h348v-100h-348v-611z" />
<glyph unicode="&#x111;" horiz-adv-x="1256" d="M113 526q0 143 27 247t80 171.5t131 100t179 32.5q59 0 107 -13t86.5 -37t68.5 -57t52 -73h12q-3 50 -6 95q-2 38 -4 77t-2 59v86h-350v97h350v20q0 45 -13.5 72t-36.5 42t-53.5 20t-64.5 5h-17v86h377v-245h186v-97h-186v-989q0 -45 13.5 -72.5t36.5 -42.5t53.5 -19.5 t64.5 -4.5h17v-86h-347l-22 184h-8q-23 -47 -52.5 -84.5t-67.5 -64t-86 -41t-108 -14.5q-102 0 -179.5 32t-130.5 98.5t-80 170t-27 245.5zM311 524q0 -207 58.5 -310t195.5 -103q80 0 133.5 25.5t86 77t46 129.5t13.5 183q0 102 -13.5 180.5t-46 132t-86.5 80.5t-135 27 q-134 0 -193 -108t-59 -314z" />
<glyph unicode="&#x112;" horiz-adv-x="1317" d="M45 0v39h50q49 0 94 23q35 18 47 51t12 139v927q0 135 -26 168q-38 41 -127 41h-50v39h1099l15 -312h-40q-22 110 -49 152.5t-81 66.5q-40 16 -146 16h-393v-567h312q124 0 165 38q55 48 60 170h41v-495h-41q-13 103 -29 133q-18 38 -61.5 59t-134.5 21h-312v-472 q0 -96 9 -116t29 -31.5t81 -11.5h242q120 0 174.5 16.5t105.5 67.5q66 64 133 195h43l-123 -357h-1099zM354 1600v121h594v-121h-594z" />
<glyph unicode="&#x113;" horiz-adv-x="955" d="M80 469q0 249 126.5 386t319.5 137q161 0 265.5 -106t104.5 -285h-668q0 -214 105 -335q107 -124 249 -124q92 0 162 51.5t118 179.5l34 -21q-24 -144 -129 -264t-268 -120q-172 0 -295.5 136.5t-123.5 364.5zM228 662h446q-4 92 -21 131q-26 58 -77 91.5t-111 33.5 q-86 0 -155 -67.5t-82 -188.5zM262 1262v121h594v-121h-594z" />
<glyph unicode="&#x114;" horiz-adv-x="1317" d="M45 0v39h50q49 0 94 23q35 18 47 51t12 139v927q0 135 -26 168q-38 41 -127 41h-50v39h1099l15 -312h-40q-22 110 -49 152.5t-81 66.5q-40 16 -146 16h-393v-567h312q124 0 165 38q55 48 60 170h41v-495h-41q-13 103 -29 133q-18 38 -61.5 59t-134.5 21h-312v-472 q0 -96 9 -116t29 -31.5t81 -11.5h242q120 0 174.5 16.5t105.5 67.5q66 64 133 195h43l-123 -357h-1099zM352 1860h94q17 -75 67 -107.5t126 -32.5t125.5 32.5t66.5 107.5h95q-2 -58 -19.5 -109t-53 -89t-88 -60.5t-126.5 -22.5q-72 0 -126 22.5t-89 60.5t-52.5 89t-19.5 109 z" />
<glyph unicode="&#x115;" horiz-adv-x="955" d="M80 469q0 249 126.5 386t319.5 137q161 0 265.5 -106t104.5 -285h-668q0 -214 105 -335q107 -124 249 -124q92 0 162 51.5t118 179.5l34 -21q-24 -144 -129 -264t-268 -120q-172 0 -295.5 136.5t-123.5 364.5zM228 662h446q-4 92 -21 131q-26 58 -77 91.5t-111 33.5 q-86 0 -155 -67.5t-82 -188.5zM281 1522h94q17 -75 67 -107.5t126 -32.5q75 0 125 32.5t67 107.5h95q-2 -58 -19.5 -109t-53 -89t-89 -60.5t-125.5 -22.5q-74 0 -127 22.5t-88 60.5t-52.5 89t-19.5 109z" />
<glyph unicode="&#x116;" horiz-adv-x="1317" d="M45 0v39h50q49 0 94 23q35 18 47 51t12 139v927q0 135 -26 168q-38 41 -127 41h-50v39h1099l15 -312h-40q-22 110 -49 152.5t-81 66.5q-40 16 -146 16h-393v-567h312q124 0 165 38q55 48 60 170h41v-495h-41q-13 103 -29 133q-18 38 -61.5 59t-134.5 21h-312v-472 q0 -96 9 -116t29 -31.5t81 -11.5h242q120 0 174.5 16.5t105.5 67.5q66 64 133 195h43l-123 -357h-1099zM542 1708q0 37 9 60.5t25 38.5t37 21t46 6q24 0 45 -6t37 -21t25.5 -39t9.5 -60t-9.5 -60t-25.5 -39t-37 -21.5t-45 -6.5t-45.5 6.5t-37.5 21.5t-25 39t-9 60z" />
<glyph unicode="&#x117;" horiz-adv-x="955" d="M80 469q0 249 126.5 386t319.5 137q161 0 265.5 -106t104.5 -285h-668q0 -214 105 -335q107 -124 249 -124q92 0 162 51.5t118 179.5l34 -21q-24 -144 -129 -264t-268 -120q-172 0 -295.5 136.5t-123.5 364.5zM228 662h446q-4 92 -21 131q-26 58 -77 91.5t-111 33.5 q-86 0 -155 -67.5t-82 -188.5zM446 1399q0 36 9 60t25 39t37 21t46 6q24 0 45 -6t37 -21t25.5 -39t9.5 -60t-9.5 -60t-25.5 -38.5t-37 -21.5t-45 -7q-25 0 -46 7t-37 21.5t-25 38.5t-9 60z" />
<glyph unicode="&#x118;" horiz-adv-x="1317" d="M45 0v39h50q49 0 94 23q35 18 47 51t12 139v927q0 135 -26 168q-38 41 -127 41h-50v39h1099l15 -312h-40q-22 110 -49 152.5t-81 66.5q-40 16 -146 16h-393v-567h312q124 0 165 38q55 48 60 170h41v-495h-41q-13 103 -29 133q-18 38 -61.5 59t-134.5 21h-312v-472 q0 -96 9 -116t29 -31.5t81 -11.5h242q120 0 174.5 16.5t105.5 67.5q66 64 133 195h43l-123 -357h-1099zM714 -266q0 47 20 90.5t54 79t78 60.5t90 36h117q-33 -11 -66.5 -30.5t-61 -49t-45.5 -68.5t-18 -88q0 -34 10.5 -58.5t29.5 -40t44.5 -23t57.5 -7.5q27 0 59 4.5 t70 12.5v-111q-16 -8 -36.5 -14t-42.5 -10t-42.5 -6.5t-36.5 -2.5q-65 0 -117 13.5t-88.5 41t-56 70t-19.5 101.5z" />
<glyph unicode="&#x119;" horiz-adv-x="955" d="M80 469q0 249 126.5 386t319.5 137q161 0 265.5 -106t104.5 -285h-668q0 -214 105 -335q107 -124 249 -124q92 0 162 51.5t118 179.5l34 -21q-24 -144 -129 -264t-268 -120q-172 0 -295.5 136.5t-123.5 364.5zM228 662h446q-4 92 -21 131q-26 58 -77 91.5t-111 33.5 q-86 0 -155 -67.5t-82 -188.5zM471 -235q0 48 20 91t54 78.5t77.5 60.5t90.5 37h117q-32 -11 -66 -31t-61.5 -49.5t-45.5 -68.5t-18 -88q0 -35 10.5 -59t29.5 -39.5t45 -23t57 -7.5q26 0 58.5 4.5t70.5 12.5v-112q-16 -7 -36.5 -13t-42.5 -10t-42.5 -6.5t-36.5 -2.5 q-65 0 -117 13.5t-88.5 41t-56 70t-19.5 101.5z" />
<glyph unicode="&#x11a;" horiz-adv-x="1317" d="M45 0v39h50q49 0 94 23q35 18 47 51t12 139v927q0 135 -26 168q-38 41 -127 41h-50v39h1099l15 -312h-40q-22 110 -49 152.5t-81 66.5q-40 16 -146 16h-393v-567h312q124 0 165 38q55 48 60 170h41v-495h-41q-13 103 -29 133q-18 38 -61.5 59t-134.5 21h-312v-472 q0 -96 9 -116t29 -31.5t81 -11.5h242q120 0 174.5 16.5t105.5 67.5q66 64 133 195h43l-123 -357h-1099zM332 1880v27h80q29 -18 58.5 -40t58 -46.5t55 -50.5t49.5 -50q23 24 49.5 50t55.5 50.5t59 46.5t59 40h80v-27q-24 -29 -53 -67t-57.5 -78.5t-53.5 -80.5t-41 -75h-194 q-16 36 -41 75.5t-53.5 80t-57.5 78.5t-53 67z" />
</font>
</defs>
</svg>
