<?xml version="1.0" standalone="no"?>
<!DOCTYPE svg PUBLIC "-//W3C//DTD SVG 1.1//EN" "http://www.w3.org/Graphics/SVG/1.1/DTD/svg11.dtd" >
<svg xmlns="http://www.w3.org/2000/svg" xmlns:xlink="http://www.w3.org/1999/xlink" version="1.1">
<metadata></metadata>
<defs>
<font id="mm_phetkonregular" horiz-adv-x="0" >
<font-face units-per-em="2048" ascent="1638" descent="-410" />
<missing-glyph horiz-adv-x="520" />
<glyph unicode="&#x1039;&#x1000;" d="M-1764 -501q0 179 121.5 305t295.5 126q175 0 295 -129q32 -29 55 -62q51 90 139.5 136.5t202.5 54.5q167 0 286.5 -121.5t119.5 -295.5q0 -172 -119.5 -291.5t-286.5 -119.5q-125 0 -225 63l73 123q66 -50 152 -50q113 0 192.5 80.5t79.5 194.5q0 112 -80 194.5 t-192 82.5q-114 0 -193 -84q-78 -86 -78 -203v-7v-10l-4 -42q-13 -141 -88.5 -220.5t-196.5 -124.5l-49 139q66 11 114 65q82 84 82 196q0 121 -83 203t-196 82q-114 0 -194 -82t-80 -203q0 -113 78 -205q42 -40 92 -61l-47 -134q-77 28 -149 94q-118 133 -117 306z" />
<glyph unicode="&#x1039;&#x1001;" d="M-1028 -605q0 43 16.5 80.5t45 66.5t66.5 46t82 17q47 0 87.5 -17t69.5 -46t46 -66.5t17 -80.5q0 -34 -11.5 -63.5t-30.5 -58.5q89 8 153 69q74 75 73 181q0 104 -72 178q-77 72 -182 72q-47 0 -88 -15.5t-74 -40.5l-112 105q62 49 130 75.5t144 26.5q172 0 290 -115h-2 q122 -120 122 -286t-122 -287h2q-120 -119 -290 -119q-161 0 -299 124l-2 3q-30 36 -44.5 70.5t-14.5 80.5zM-887 -601q0 -30 22 -53t49 -23q36 0 58.5 23t22.5 53q0 33 -22.5 55.5t-58.5 22.5q-27 0 -49 -22.5t-22 -55.5z" />
<glyph unicode="&#x1039;&#x1002;" horiz-adv-x="5" d="M-1097 -469q0 77 35.5 149t94 127.5t133 88t154.5 32.5q82 0 159 -31t135 -85t93.5 -127.5t35.5 -161.5q0 -293 -293 -415l-50 142q189 88 189 275q0 51 -22.5 95t-60.5 77t-86.5 53t-99.5 20q-45 0 -90.5 -21.5t-81 -55.5t-57 -79.5t-21.5 -93.5q0 -176 162 -270 l-45 -142q-284 111 -284 423z" />
<glyph unicode="&#x1039;&#x1003;" d="M-1767 -474l4 55l130 36q79 20 79 104q-11 78 -71 74l-55 -2l-35 -22l-37 141q37 20 112 29l71 -12q97 -37 125 -107q14 -25 21 -80l4 -38q9 -167 -201 -229h-5q13 -87 80 -154q82 -83 197 -83q118 0 199 82t81 201q0 111 -81 215q-55 55 -126 71l49 136q98 -31 175 -107 q113 -128 124 -283h2q2 -17 2 -36q0 -117 83 -196q80 -85 198 -85q115 0 196.5 83t81.5 198t-81.5 197.5t-196.5 82.5q-14 0 -27 -2l21 144h6q175 0 298 -122.5t123 -299.5q0 -174 -123 -297.5t-298 -123.5q-174 0 -301 123q-30 31 -50 65q-15 -25 -35 -44l-2 3 q-9 -11 -19 -21q-123 -124 -299 -124q-175 0 -297 123.5t-122 299.5v5z" />
<glyph unicode="&#x1039;&#x1005;" horiz-adv-x="5" d="M-1062 -480q0 116 49.5 203t141.5 153q102 66 224 66q157 0 280 -116q122 -129 122 -284q0 -177 -113 -298q-54 -61 -129 -94t-160 -33q-169 0 -288 119q-127 118 -127 284zM-912 -453q0 -44 12 -87t37 -72q66 74 66 156q0 63 -66 139q-28 -22 -38.5 -59.5t-10.5 -76.5z M-733 -229q86 -93 86 -227q0 -155 -86 -247q41 -16 86 -17q110 5 180.5 75t70.5 181q0 50 -21 95.5t-54 78.5t-78.5 52.5t-95.5 19.5q-52 0 -88 -11z" />
<glyph unicode="&#x1039;&#x1006;" horiz-adv-x="5" d="M-1626 -321q49 117 148.5 189t215.5 72q88 0 172 -35t148 -95q52 41 83 63.5t39 27.5q83 39 165 39q91 0 168 -31t134 -84.5t89 -129.5t32 -167q0 -163 -122 -290q-63 -63 -133.5 -89.5t-159.5 -26.5q-163 0 -298 127q-72 -67 -143.5 -97t-143.5 -30q-267 0 -391 260 q74 125 237 124q91 0 176.5 -43t146.5 -103q72 72 72 176q0 111 -81.5 176t-189.5 65q-42 0 -77.5 -11.5t-60.5 -24.5q-42 -34 -94 -116zM-1419 -648q44 -44 79.5 -57t94.5 -15l36 13q-50 63 -155 64q-11 0 -26.5 -1.5t-28.5 -3.5zM-870 -612q44 -58 102.5 -86t121.5 -28 q53 0 102.5 18t88 51t62 80.5t23.5 104.5q0 52 -20.5 97.5t-57 79t-85.5 53t-102 19.5q-146 0 -226 -100q32 -78 32 -141q-2 -49 -41 -148z" />
<glyph unicode="&#x1039;&#x1007;" d="M-1032 -480q0 82 30 151.5t83 127.5q123 117 285 117q161 0 281 -117q29 -35 47.5 -60t24.5 -48h6q15 -65 64 -114v2q43 -44 103 -61l-38 -150q-103 32 -170 102h3l-6 7q-8 -8 -10 -14q-70 -61 -151 -61q-89 0 -151 61t-62 151q0 88 63 148q5 4 2.5 2t1.5 3h-8 q-104 0 -173 -74v3q-76 -77 -76 -176q0 -104 76 -176q35 -37 79.5 -55.5t93.5 -18.5q94 0 166 66l110 -105q-123 -112 -276 -112q-163 0 -285 116q-53 59 -83 128.5t-30 156.5zM-545 -392q0 -28 22 -48t48 -20q13 0 26.5 6.5t23.5 14.5q18 14 22 31q-6 13 -10 30t-9 33 l-22 22q-24 6 -31 6q-26 0 -48 -19.5t-22 -55.5z" />
<glyph unicode="&#x1039;&#x1008;" horiz-adv-x="326" d="M-1081 -485q0 178 129 311q133 131 314 131q186 0 314 -129q130 -129 130 -313q0 -182 -130 -313q-128 -133 -314 -133q-185 0 -314 133v-2q-129 132 -129 315zM-916 -489q0 -33 24.5 -54.5t52.5 -21.5q31 0 57.5 21.5t26.5 54.5q0 41 -26.5 64t-57.5 23q-29 0 -53 -23.5 t-24 -63.5zM-797 -716q35 -27 75 -37.5t84 -10.5q106 0 194 82q81 86 80 197q0 106 -80 194q-87 82 -194 82q-81 0 -154 -44q68 -13 116 -64h-3q72 -68 72 -166q0 -100 -72 -169h3q-48 -50 -121 -64zM-441 -786l176 100q14 -38 47.5 -52t92.5 -14q72 4 117 27t49 110v1657 h181v-1699q0 -271 -254 -274h-171q-188 12 -238 145z" />
<glyph unicode="&#x1039;&#x100a;" d="M-1654 -205q66 72 156.5 117t225.5 51q80 0 151.5 -20.5t133.5 -58.5q51 -36 83.5 -79t42.5 -92q0 -4 0.5 -9t0.5 -8v-13q0 -49 64.5 -86.5t158.5 -37.5q43 0 84.5 9t71 27t48 40.5t18.5 47.5q0 23 -18.5 45.5t-48 41.5t-71 29t-84.5 10q-37 0 -77.5 -8.5t-79.5 -32.5 l-132 120q76 36 146.5 55.5t142.5 19.5q80 0 149 -20.5t130 -58.5q68 -42 99.5 -93t31.5 -108q0 -52 -36.5 -108t-94.5 -94q-60 -40 -131.5 -60t-147.5 -20q-79 0 -166 25.5t-149 76.5l-30 -21q-60 -39 -135 -60t-155 -21q-51 0 -94 4.5t-84 17.5v-91q0 -41 52.5 -74 t126.5 -33h660q37 0 71 11.5t59.5 32t41.5 46.5t16 57h194v-48q2 -118 -101 -183.5t-266 -65.5h-681q-163 0 -259 69.5t-96 181.5v251l115 79q56 -45 116.5 -71t128.5 -26q84 0 145 32t72 77v3q0 2 2 3.5t2 3.5v5v2q-4 49 -68.5 86.5t-152.5 37.5q-81 -4 -133 -27t-91 -55z " />
<glyph unicode="&#x1039;&#x100b;" d="M-942 -335q0 59 28 113.5t78 97.5q54 39 116 61t132 22q76 0 136 -21t114 -62q18 -15 36 -37.5t43 -55.5l-135 -98q-16 27 -31 43.5t-34 30.5q-49 47 -129 47q-75 0 -127 -44t-52 -97q0 -54 52 -96t127 -42q39 0 74.5 13.5t54.5 32.5q13 6 28.5 26t33.5 55l126 -91 q-14 -59 -61.5 -101t-110.5 -71q-31 -11 -66.5 -14.5t-78.5 -3.5q-142 0 -256 84q-10 8 -20 19t-22 23q-23 38 -38.5 79t-17.5 87zM-888 -604q147 -102 320 -102q125 0 226 63l127 -70v-137h115v-149h-285l-2 162q-38 -11 -85.5 -17t-95.5 -6q-75 0 -145 15.5t-125 37.5h2 l-52 21v182z" />
<glyph unicode="&#x1039;&#x100c;" d="M-1922 -451q0 175 108 299q53 54 127.5 83.5t167.5 25.5h33v-177h-22q-95 -4 -169 -73q-75 -74 -75 -171v-40q0 -50 20 -94.5t54 -76t80.5 -49.5t101.5 -18h477q-32 51 -45.5 111.5t-13.5 126.5q0 198 137 331h-2q15 16 32 30.5t38 28.5q137 77 261 77q196 0 329 -134 q138 -135 139 -333q0 -194 -141 -329h2q-45 -45 -112 -83l-125 133q70 33 112 77q90 84 91 202q0 117 -91 206q-85 85 -204 85q-115 0 -203 -85t-88 -206q0 -120 88 -202h-4q47 -43 119 -77l-127 -131h-681q-175 0 -295 112q-119 113 -119 290v61z" />
<glyph unicode="&#x1039;&#x100d;" d="M-907 -240q25 32 42.5 55t35.5 39q52 43 111 63t133 20q68 0 128.5 -21.5t113.5 -61.5q47 -43 75 -98t28 -113q-2 -45 -16.5 -86.5t-39.5 -78.5q-9 -13 -19 -23.5t-20 -18.5q-111 -85 -250 -85q-42 0 -76.5 3t-63.5 15v-32q61 -24 142 -23q121 0 222 61l123 -70v-136h114 v-152h-279l-3 164q-36 -10 -83 -15.5t-94 -5.5q-73 0 -141 14t-121 39h2l-50 19v308l123 91q15 -34 31 -53t27 -29q20 -18 54.5 -32t72.5 -14q73 0 123.5 42.5t50.5 97.5t-50.5 98t-123.5 43q-79 0 -127 -47q-18 -13 -32.5 -30.5t-30.5 -43.5z" />
<glyph unicode="&#x1039;&#x100f;" d="M-1766 -453q0 172 119 298q123 122 301 122q117 0 204 -50q26 25 62.5 35.5t75.5 10.5q38 0 73.5 -11t63.5 -35q48 28 98.5 39t106.5 11q170 0 298 -120q126 -125 126 -300q0 -177 -123 -304q-123 -122 -312 -122v160q114 0 195 78q78 83 78 188q0 100 -78 184 q-81 78 -184 78q-69 0 -125 -35q10 -49 -9 -107q-2 -5 -3 -10.5t-9 -14.5q0 -2 -0.5 -2t-0.5 -2v-5q-15 -41 -15 -88q0 -30 4 -52.5t11 -46.5l11 -25q18 -67 11 -116q-18 -79 -60 -119q-36 -30 -75.5 -48.5t-81.5 -18.5t-79 16t-68 43q-49 46 -62 133q-7 63 17 140 q10 25 14 46t4 48q0 43 -18 84h4l-7 17l-9 19q-23 48 -9 109q-28 16 -61.5 25.5t-67.5 9.5q-101 0 -183 -78q-79 -78 -79 -184q0 -112 79 -188q82 -78 194 -78v-160q-193 0 -312 124q-120 129 -119 302zM-1059 -241v-59q37 -83 37 -155q0 -45 -10.5 -91t-26.5 -82v-37 q0 -23 17.5 -41.5t41.5 -18.5q28 0 45 19t17 41v35q-46 78 -46 167q0 76 46 159v63q0 24 -19 42.5t-43 18.5t-41.5 -18.5t-17.5 -42.5z" />
<glyph unicode="&#x1039;&#x1010;" horiz-adv-x="100" d="M-1345 -458q0 167 113 283q118 115 282 115t282 -115q8 -10 19 -21.5t20 -26.5q9 15 19 25.5t23 22.5h-2q118 115 282 115t280 -115q115 -116 115 -283q0 -164 -115 -281q-117 -114 -294 -114l-20 155q16 -3 23 -4t11 -1q52 0 95 18t80 53q72 76 72 174q0 99 -72 179v-2 q-37 33 -80 53t-95 20q-95 0 -175 -76q-34 -36 -52.5 -78.5t-18.5 -95.5q0 -164 -115 -281q-119 -114 -282 -114q-164 0 -282 114q-113 118 -113 281zM-1197 -458q0 -98 73 -174q77 -72 174 -71q97 0 174 71q72 76 71 174q0 99 -71 179v-2q-77 73 -174 73t-174 -73v2 q-73 -80 -73 -179z" />
<glyph unicode="&#x1039;&#x1011;" horiz-adv-x="83" d="M-1340 -468q0 161 113 281q118 118 286 117q81 0 154.5 -32.5t139.5 -94.5q5 -9 12 -17t18 -19q8 17 17 27t20 23q119 114 284 113q165 0 286 -115q116 -116 115 -283q0 -168 -115 -286q-121 -119 -286 -118q-79 0 -151.5 31.5t-130.5 86.5q-24 20 -39 46 q-12 -15 -22.5 -26t-19.5 -20h1q-120 -119 -283 -118q-170 0 -286 118q-114 120 -113 286zM-1190 -468q0 -106 73 -178q78 -75 176 -75q99 0 173 75q63 63 73 146v2q6 27 0 58q-9 86 -73 148v-2q-74 74 -173 74q-98 0 -176 -74v2q-73 -78 -73 -176zM-544 -440q-2 -33 0 -60 q10 -85 71 -146h-2q80 -75 179 -75q97 0 176 75q72 78 72 178q0 51 -19.5 94t-52.5 82v-2q-79 74 -176 74q-99 0 -179 -74q-58 -62 -69 -146z" />
<glyph unicode="&#x1039;&#x1012;" horiz-adv-x="5" d="M-1004 -632l141 49q91 -143 229 -143q52 0 98 9.5t90 51.5q16 5 27 23t11 24q0 11 -86 61q-96 57 -96 91q0 52 100 99q55 44 55 58t-15.5 28t-53.5 43q-23 16 -62.5 22t-72.5 6q-99 0 -177 -85q-22 -23 -22 -26q0 -5 77 -65l-77 -102q-153 94 -152 167q0 50 63 127 q127 133 296 134q113 0 232 -70q135 -85 135 -184q0 -36 -52 -80q-23 -19 -33.5 -29t-14.5 -13q-8 -13 -8 -28q0 -10 39 -33q91 -58 91 -96q0 -50 -77 -141q-124 -143 -312 -144q-249 0 -373 246z" />
<glyph unicode="&#x1039;&#x1013;" horiz-adv-x="5" d="M-1060 -464q0 166 121 288q111 116 282 116q185 0 296 -111q112 -116 123 -293q0 -173 -118 -292q-130 -122 -301 -122q-196 0 -331 186q-72 96 -72 228zM-905 -458q0 -23 1 -39t10 -39q116 86 248 86q130 0 243 -82q6 16 7 32t1 42q0 104 -77.5 172t-184.5 68 q-49 0 -95 -19.5t-79 -51.5t-53.5 -76t-20.5 -93zM-804 -671q64 -55 147 -55q119 0 171 61q-85 60 -171 61q-44 0 -78.5 -14t-68.5 -53z" />
<glyph unicode="&#x1039;&#x1014;" horiz-adv-x="5" d="M-1043 -635q0 75 44.5 122t115.5 47q22 0 55 -7t72 -15q82 -25 155.5 -74.5t128.5 -127.5q31 14 50.5 37.5t19.5 48.5q-11 85 -137 124q-187 33 -203 42q-49 18 -89.5 57t-54.5 91q-11 19 -11 52q0 99 114 147q52 28 154 28q118 0 240 -83l-88 -124q-72 47 -152 47 q-70 0 -110 -17q-6 0 -6 -30q14 -23 77 -31q124 -5 185 -33q194 -88 221 -213q3 -38 8 -57q0 -132 -132 -218q16 -19 30 -44q8 -8 17.5 -32t15.5 -27l-130 -60q-31 55 -86 107q-8 0 -14.5 -4t-20.5 -4h-77q-119 0 -240 64q-153 77 -152 187zM-897 -640q0 -23 59.5 -43 t158.5 -43h41q-57 58 -140 94q-5 3 -16.5 3t-24.5 5q-8 3 -17 6t-19 6q-42 -6 -42 -28z" />
<glyph unicode="&#x1039;&#x1015;" d="M-1072 -469q0 163 120 300q42 35 88 63q3 1 6 4l103 -123q-48 -19 -84 -53v4q-75 -95 -74 -195q0 -100 76 -177q80 -75 184 -75q56 0 100 19t84 56q75 73 75 177q0 101 -75 195v-4q-28 23 -58 41q-8 3 -18 10l84 130q9 -3 18 -8q45 -27 85 -61l1 -3q124 -133 124 -300 q0 -168 -125 -288h1q-122 -117 -296 -116q-175 0 -299 116q-57 59 -88.5 130t-31.5 158z" />
<glyph unicode="&#x1039;&#x1016;" horiz-adv-x="5" d="M-1059 -483q0 293 251 428l50 -157q-152 -94 -151 -260q0 -49 20.5 -94.5t54.5 -80.5t79.5 -55.5t96.5 -20.5q124 0 182 75q-163 77 -174 314q0 80 34 146t106 130q268 -127 268 -425q0 -165 -125 -281q-63 -61 -135.5 -87.5t-162.5 -26.5q-155 0 -275 122 q-119 119 -119 273zM-496 -331q0 -127 94 -196q11 22 11 58q0 148 -91 220q-13 -41 -14 -82z" />
<glyph unicode="&#x1039;&#x1017;" horiz-adv-x="5" d="M-1068 -450q0 55 15 113t42.5 112t66.5 98t88 72q102 -116 197 -116q72 0 171 119q168 -108 226 -334q10 -55 10 -83q0 -166 -118 -287q-117 -119 -284 -118q-91 0 -167 32.5t-131 93.5q-116 124 -116 298zM-913 -453q0 -196 159 -254q41 -19 100 -19q104 0 177.5 73 t73.5 181q0 122 -83 205q-82 -58 -173 -59q-86 0 -181 67q-74 -75 -73 -194z" />
<glyph unicode="&#x1039;&#x1018;" horiz-adv-x="5" d="M-1372 -326q25 108 138 188q110 75 215 75q207 0 320 -133q111 132 296 133q91 0 167.5 -30.5t133.5 -84t87 -130t30 -169.5q0 -169 -129 -290q-130 -116 -298 -116q-9 0 -36 10t-74 26l44 129q41 -10 66 -10q49 0 96.5 20.5t83 55t57.5 81.5t22 99q0 116 -67.5 182.5 t-182.5 66.5q-135 0 -205 -94l11 -22q19 -39 19 -125q0 -176 -115 -292q-119 -119 -298 -118q-254 0 -370 239l127 64q82 -148 226 -149q118 0 190.5 68.5t77.5 193.5v11q0 102 -78 160q-82 66 -193 66q-158 0 -232 -171z" />
<glyph unicode="&#x1039;&#x1019;" horiz-adv-x="5" d="M-1059 -472q0 260 276 403l45 -141q-144 -91 -161 -207q-2 -13 -2 -28.5v-31.5q0 -60 30 -127q70 69 221 68q108 0 212 -74q19 31 31.5 65t12.5 65q0 42 -14 83t-30 71l-124 116l36 143q289 -187 289 -413q0 -166 -121 -287q-116 -119 -292 -119q-276 0 -381 268 q-28 67 -28 146zM-766 -698q33 -25 116 -30q63 0 110 30q-17 11 -40 19t-78 11q-52 0 -108 -30z" />
<glyph unicode="&#x1039;&#x101c;" d="M-1710 -484q0 170 118 285q120 117 293 117q170 0 293 -117q119 -116 119 -285q0 -101 74 -179q80 -74 182 -73q100 0 180 73q76 77 76 179q0 99 -76 181v-3q-80 75 -180 75q-46 0 -85 -15t-81 -43l-67 138q108 69 233 69q169 0 291 -117q120 -116 120 -285 q0 -168 -120 -287q-122 -118 -291 -118q-170 0 -291 118q-115 117 -119 279l-2 8q0 99 -76 181v-3q-78 75 -180 75q-101 0 -181 -75v3q-77 -82 -76 -181q0 -101 76 -179q79 -74 181 -73q82 0 160 53l63 -140q-101 -66 -223 -66q-173 0 -293 118q-118 119 -118 287z" />
<glyph unicode="&#x1039;&#x101e;" d="M-1661 -295q36 62 70 99q121 117 286 117q166 0 288 -117q117 -121 117 -286q0 -102 71 -178v2q79 -76 180 -76q97 0 176 76v-2q74 74 74 178q0 103 -74 177q-79 74 -176 74q-88 0 -163 -57l-82 126q106 83 245 83q171 0 285 -119v2q118 -121 118 -286q0 -168 -118 -287 v1q-115 -118 -285 -118q-163 0 -286 117q-14 12 -24 24.5t-18 27.5l-43 -52q-124 -117 -285 -117q-85 0 -155.5 30.5t-130.5 85.5q-49 46 -70 99l118 114q28 -68 63 -103v2q78 -76 175 -76t177 76v-2q35 38 54 81t19 97q0 100 -73 177q-79 74 -177 74q-97 0 -175 -74 q-38 -37 -63 -101z" />
<glyph unicode="&#x1039;&#x1021;" d="M-1693 -594l140 38q88 -186 254 -186q29 0 63.5 9.5t61.5 23.5q-41 9 -68 25.5t-52 43.5q-58 108 -59 161q0 70 65 144q27 29 53 47t55 26q-74 32 -119 32q-81 0 -148 -45.5t-93 -122.5l-147 43q42 125 152 202q106 75 236 75q104 0 248 -78q26 -19 48.5 -40t37.5 -45 q10 16 18.5 25.5t17.5 18.5q120 119 288 119q167 0 285 -119q117 -116 116 -282q0 -166 -119 -289q-108 -103 -248 -116q-10 -2 -23 -2h-23q-43 0 -82 16.5t-69 45t-45.5 67t-15.5 83.5q0 46 15.5 84.5t45.5 66.5t69 45t82 17q82 0 150 -61q28 -27 43 -52.5t20 -60.5 q23 33 36 72t13 84q0 53 -19.5 95.5t-54.5 82.5v-2q-37 34 -80 53.5t-96 19.5q-99 0 -179 -76q-58 -62 -71 -138h-117l-63 24q-29 17 -45 18q-18 -3 -34.5 -9.5t-27.5 -16.5v2q-2 0 -2 -4l-17 -39l-6 -10q2 -32 26.5 -58t57.5 -26q4 0 17 5t31 14q43 22 65 22q86 0 86 -86 l-7 -43q-115 -237 -372 -237q-143 0 -245.5 77t-148.5 217zM-717 -680q0 -27 21 -47.5t48 -20.5q28 0 51.5 20.5t23.5 47.5q0 37 -23.5 57.5t-51.5 20.5q-27 0 -48 -20.5t-21 -57.5z" />
<glyph unicode="&#x102b;&#x103a;" horiz-adv-x="1028" d="M-607 1523v122q0 190 132 322q130 130 317 130q124 0 229 -56t157 -156q28 41 89 108q113 104 253 104q343 0 456 -281q31 -91 31 -196h-169q-2 155 -85 230.5t-233 75.5q-110 0 -187 -94q-77 -93 -77 -212v-1620h-177v1628q0 212 -192 279q-39 19 -95 19 q-132 0 -203.5 -87t-71.5 -219v-97h-174z" />
<glyph unicode="&#x103a;&#x103a;" d="M-1108 1604q52 132 165.5 211.5t271.5 98.5q18 1 38 2t37 1q207 0 369 -96q203 -128 227 -422h-163q-33 186 -165.5 285.5t-345.5 111.5q-85 -1 -164 -19.5t-135 -53.5q-59 -43 -117 -131zM-1085 1397q0 98 68 185q23 28 46 46q57 46 129 72.5t158 26.5q88 0 163 -22 t140 -63q126 -86 126 -217v-28l-156 2q0 63 -70 118q-69 63 -185 68q-29 0 -59 -3.5t-63 -14.5q-72 -24 -97 -64q-34 -48 -34 -86q0 -40 22.5 -79t46.5 -50q27 -11 76.5 -28t107.5 -20v-141q-86 2 -160.5 26t-130.5 63q-59 45 -93.5 97.5t-34.5 111.5z" />
<glyph unicode="&#x104e;&#x25cc;&#xe390;" horiz-adv-x="1286" d="M104 524q0 99 39.5 197.5t109.5 176t163 126t202 48.5q188 0 332 -87.5t219 -268.5l-147 -56q-20 63 -59.5 111.5t-93.5 80.5t-117 49t-128 17q-73 0 -137.5 -34.5t-111.5 -89.5t-75 -125.5t-28 -144.5q0 -69 29.5 -135t79 -119t115 -85.5t136.5 -32.5q110 0 209.5 71 t178.5 180l144 -44v-1219h-168v996q-79 -68 -172 -102t-189 -34q-105 0 -201 40.5t-169.5 111.5t-117 166.5t-43.5 205.5zM325 1372q0 134 101 210q-18 28 -34.5 63.5t-16.5 70.5q0 43 17.5 81t45.5 66.5t65.5 45t78.5 16.5q85 0 135 -46q26 -33 46 -69t32 -80l-127 -18 q-44 26 -61 37h3q-5 3 -12 5t-17 2q-16 0 -28 -13t-12 -27q0 -8 8 -22t20 -26t25 -22.5t28 -10.5h97l1 -153h-96q-22 0 -45.5 -10t-42.5 -25.5t-33 -37t-14 -40.5q0 -38 27.5 -66.5t65.5 -28.5q43 0 64 25q12 13 21.5 32.5t14.5 45.5l161 -35q-16 -84 -58 -134 q-37 -42 -89.5 -69.5t-113.5 -27.5q-51 0 -99 21.5t-83 57t-55 82t-20 100.5z" />
<glyph unicode="&#x1039;&#x1051;" d="M-1067 -482q0 136 78 238.5t201 143.5l61 -146q-79 -23 -132.5 -88.5t-53.5 -152.5q0 -49 21.5 -96.5t55.5 -81.5t81 -54.5t103 -20.5q52 0 99.5 20.5t83.5 54.5t55.5 81t19.5 97q0 87 -51 151t-130 88l55 148q123 -43 202.5 -144.5t79.5 -237.5q0 -84 -32.5 -158 t-89.5 -128.5t-133 -86.5t-161 -32q-87 0 -161.5 32t-130 86.5t-88.5 128.5t-33 158zM-753 -484q0 -44 31.5 -73.5t76.5 -29.5q42 0 74 29.5t32 73.5q0 41 -32 71.5t-74 30.5q-45 0 -76.5 -30.5t-31.5 -71.5z" />
<glyph unicode="&#x1039;&#x1050;" d="M-1087 -508q0 85 32.5 159.5t89 130t131.5 87t163 31.5q85 0 162 -31.5t134.5 -87t90 -130t32.5 -159.5q0 -136 -80 -239.5t-204 -143.5l-56 146q81 25 131.5 90t50.5 151q0 52 -19.5 99.5t-55 81.5t-83.5 54t-102 20q-55 0 -102.5 -20t-82 -54t-56.5 -81.5t-22 -99.5 q0 -86 54.5 -153t134.5 -92l-63 -144q-124 42 -202 145.5t-78 239.5zM-770 -506q0 -42 31 -72.5t76 -30.5q43 0 75.5 30.5t32.5 72.5q0 44 -32.5 74.5t-75.5 30.5q-45 0 -76 -30.5t-31 -74.5z" />
<glyph unicode="&#x1039;&#x105a;" d="M-867 -289q0 48 20.5 89.5t57 75t86.5 52.5t109 19t112 -18t92 -49.5t60.5 -74.5t21.5 -91q0 -30 -12.5 -61.5t-28.5 -67.5l-65 -103q-43 -66 -43 -113q0 -29 21 -37l-9 2q2 0 5.5 -2.5t5.5 -2.5q12 -2 63 -35l-91 -104q-86 10 -121 66q-30 50 -29 116q0 78 50 165l14 26 l-2 -2l68 115q5 8 9 18.5t4 18.5q0 38 -35 64.5t-87 26.5t-85.5 -27.5t-33.5 -65.5l7 -13q6 -19 7 -41t1 -40l-143 -13q-30 68 -29 107z" />
<glyph unicode="&#x1039;&#x105b;" horiz-adv-x="252" d="M-1078 -476q0 91 33 169t93 144q136 128 316 128q178 0 314 -128q33 -40 53 -68.5t28 -54.5h5q15 -73 73 -127v2q47 -48 115 -67l-46 -167q-114 36 -190 114h6l-8 7q-9 -10 -11 -14q-76 -70 -166 -69q-100 0 -168.5 67.5t-68.5 166.5t69 168q6 4 3 2t1 2h-9 q-115 0 -190 -83v2q-85 -83 -85 -194q0 -117 85 -197q38 -40 87 -61t103 -21q104 0 187 76l101 -3q14 -38 48 -52t92 -14q73 3 117.5 26.5t49.5 110.5v1650h180v-1691q0 -270 -253 -273h-172q-101 6 -163 48q-91 -45 -187 -45q-183 0 -316 128q-59 67 -92.5 144.5 t-33.5 173.5zM-536 -379q0 -31 24 -53.5t53 -22.5q14 0 30 8t29 16q17 16 21 37q-6 13 -10.5 31.5t-8.5 35.5l-26 26q-25 6 -35 6q-30 0 -53.5 -21t-23.5 -63z" />
<glyph unicode="&#x1039;&#x105c;" d="M-1109 -528q0 93 35.5 175t95 142.5t141 96t174.5 35.5q92 0 174.5 -35.5t144 -96t97.5 -142.5t36 -175q0 -94 -36 -176t-97.5 -143.5t-143.5 -97.5t-175 -36t-174.5 36t-141 97.5t-95 143.5t-35.5 176zM-943 -535q0 -58 23 -109t60 -88.5t88.5 -60.5t111.5 -23 q57 0 107.5 23t89.5 60.5t60.5 88.5t21.5 109t-21.5 109.5t-60.5 90t-89.5 60.5t-107.5 22q-59 0 -111 -22t-89 -60.5t-60 -90t-23 -109.5zM-844 -531q0 78 54 132.5t132 54.5q75 0 128.5 -54.5t53.5 -132.5q0 -75 -54 -128.5t-128 -53.5q-78 0 -132 53.5t-54 128.5z M-736 -531q0 -31 23.5 -54t54.5 -23q32 0 55 23t23 54q0 35 -23 57.5t-55 22.5q-31 0 -54.5 -23t-23.5 -57z" />
<glyph unicode="&#x1062;&#x103a;" horiz-adv-x="503" d="M-207 1519q0 165 119.5 285.5t290.5 120.5q166 0 284.5 -121t118.5 -285l-177 -2q0 93 -66 162.5t-162 69.5q-100 0 -167 -69.5t-67 -162.5q0 -96 66.5 -166t167.5 -70l2 -172q-171 0 -290.5 120.5t-119.5 289.5zM-25 867v172h387v-1039h-179v867h-208z" />
<glyph unicode="&#x1039;&#x1075;" d="M-1074 -477q0 86 30.5 156t87.5 130q121 117 296 116q167 0 291 -116h-2q124 -119 124 -286q0 -166 -122 -300q-40 -35 -84 -61t-99 -44l-56 145q40 11 71 28.5t57 39.5v-2q37 47 56.5 95t19.5 99q0 99 -76 179q-80 72 -180 72q-110 0 -185 -72q-30 -27 -46 -60t-23 -70 q203 -62 194 -220l-5 -37q-4 -24 -7.5 -44.5t-12.5 -31.5q-12 -34 -43.5 -62t-78.5 -43l-77 -11q-74 10 -119 32l41 152q9 -4 20 -13t22 -14l54 -3q43 -1 54 59q-4 72 -65 86l-133 36l-4 58v7z" />
<glyph unicode="&#x1039;&#x1076;" d="M-1010 -600q0 43 16.5 82t45 67.5t65.5 45.5t83 17q93 0 155.5 -61.5t62.5 -150.5q0 -67 -42 -123q91 6 155 71q75 75 75 183q0 98 -75 175q-73 68 -158 74q-15 -77 -66 -114t-131 -39q-98 11 -138 60t-40 126q0 48 14 111l145 -10q-17 -67 -17 -92q0 -51 40 -65 q31 2 49 40t12 117q52 14 108 16h16q158 -6 274 -117q122 -118 121 -282q0 -86 -30.5 -157.5t-88.5 -131.5q-119 -120 -292 -120q-158 0 -281 113q-11 3 -19 12q-58 70 -59 153zM-871 -596q0 -31 23.5 -52t51.5 -21q33 0 55.5 21t22.5 52q0 34 -22.5 56t-55.5 22 q-29 0 -52 -22t-23 -56z" />
<glyph unicode="&#x1039;&#x1078;" d="M-1683 -488q0 171 115 287q117 117 286 117q165 0 287 -117h-2q14 -11 24 -23t20 -27q9 17 19 29t22 21q117 117 285 117q166 0 289 -117q116 -117 116 -287q0 -168 -116 -286q-123 -119 -289 -119q-169 0 -285 119q-118 118 -118 286q0 55 -19.5 97.5t-54.5 80.5 q-81 75 -178 74q-54 0 -97 -19t-79 -54v1q-75 -80 -75 -180q0 -99 75 -179q36 -34 79 -53.5t97 -19.5q4 0 10 1t27 5l-24 -159q-182 0 -299 119q-116 118 -115 286zM-876 -488q0 -99 73 -179q78 -74 176 -73q101 0 180 73q74 79 73 179q0 100 -73 180v-1q-79 73 -180 73 q-98 0 -176 -73v1q-73 -80 -73 -180z" />
<glyph unicode="&#x1039;&#x107c;" d="M-1652 -612q0 43 17.5 81t45.5 69.5t67.5 48.5t85.5 17q95 0 156 -65q67 -62 67 -151q0 -73 -44 -124q90 10 154 69q67 67 79 153q-3 8 -3 17v17v16t3 12q-8 41 -26.5 80t-50.5 70h2q-39 35 -84.5 55.5t-101.5 20.5q-90 0 -168 -60l-110 111q121 100 278 100 q170 0 294 -118q14 -15 26 -27t20 -23q10 13 20.5 26.5t17.5 23.5q62 58 136 88t161 30q160 0 276 -100l-109 -111q-75 59 -167 60q-105 0 -185 -76q-65 -62 -74 -151v-59q4 -41 23 -79.5t53 -73.5q29 -29 70.5 -48t83.5 -23q-40 52 -40 124q0 87 63 151q61 65 156 65 q46 0 85.5 -17t69 -48.5t46 -69.5t16.5 -81q0 -84 -62 -154v-1q-138 -125 -305 -125q-169 0 -294 118h-3q-10 10 -19 21.5t-19 28.5q-10 -15 -21 -25.5t-25 -24.5q-124 -118 -294 -118q-168 0 -306 125q-60 71 -61 155zM-1508 -606q0 -32 22.5 -55t51.5 -23q33 0 56.5 23 t23.5 55t-23.5 54.5t-56.5 22.5q-30 0 -52 -22.5t-22 -54.5zM-539 -606q0 -32 22.5 -55t52.5 -23q32 0 55.5 23t23.5 55t-23.5 54.5t-55.5 22.5q-30 0 -52.5 -22.5t-22.5 -54.5z" />
<glyph unicode="&#x1039;&#x107d;" d="M-1699 -485q0 190 200 374l53 19l15 -2q72 -26 72 -78l-21 -79q0 -6 1.5 -14.5t1.5 -16.5q20 -66 85 -65q38 0 60 28t22 66q0 28 -37 69l42 119q134 -63 134 -199q0 -92 -64 -151q-33 -30 -69 -46t-79 -16q-74 0 -133 42t-76 106q-45 -60 -45 -148q0 -104 77 -180 q42 -35 88.5 -54.5t102.5 -19.5q94 0 182 74q54 55 68 121q-2 15 -3 30.5t-1 30.5q0 170 123 289q128 117 295 116q158 0 276 -101l-109 -110q-77 59 -167 60q-108 0 -188 -74h1q-76 -82 -75 -180q0 -41 8 -70v5q10 -31 27.5 -61.5t39.5 -55.5q36 -35 74.5 -53.5t81.5 -20.5 q-23 29 -31.5 58.5t-8.5 66.5q0 44 18.5 82.5t47 67.5t69 46.5t85.5 17.5q46 0 84 -17.5t68 -46.5t46 -67.5t16 -82.5q0 -88 -61 -155q-7 -8 -19 -12q-121 -113 -283 -113q-174 0 -298 119q-13 14 -21.5 24t-18.5 23q-58 -78 -138 -122t-181 -44q-175 0 -298 104 q-53 49 -105 139q-34 73 -34 158zM-536 -602q0 -30 21.5 -52.5t54.5 -22.5q32 0 54.5 22.5t22.5 52.5q0 34 -22.5 55.5t-54.5 21.5q-33 0 -54.5 -21.5t-21.5 -55.5z" />
<glyph unicode="&#x1081;&#x102f;" horiz-adv-x="1303" d="M-126 -621l99 143l256 -190l361 709q-50 0 -95 18q-130 32 -231 131q-151 153 -150 370q0 215 150.5 366.5t366.5 151.5q215 0 366.5 -151.5t151.5 -366.5q0 -121 -48 -220l-138 97q20 58 30 123q0 140 -104 247.5t-258 107.5q-152 -10 -253.5 -112.5t-101.5 -242.5 q0 -100 61 -182q18 66 73 110q79 67 187 67q110 0 188.5 -67.5t78.5 -180.5q0 -82 -39 -142l-547 -1066zM473 303q0 -34 40 -59.5t87 -25.5q50 0 89.5 25.5t39.5 59.5q0 42 -39.5 67t-89.5 25q-47 0 -87 -25t-40 -67zM844 -46h157v-670h216v-141h-373v811z" />
<glyph unicode="&#x1081;&#x1030;" horiz-adv-x="1271" d="M-126 -621l99 143l256 -190l361 709q-50 0 -95 18q-130 32 -231 131q-151 153 -150 370q0 215 150.5 366.5t366.5 151.5q215 0 366.5 -151.5t151.5 -366.5q0 -121 -48 -220l-138 97q20 58 30 123q0 140 -104 247.5t-258 107.5q-152 -10 -253.5 -112.5t-101.5 -242.5 q0 -100 61 -182q18 66 73 110q79 67 187 67q110 0 188.5 -67.5t78.5 -180.5q0 -82 -39 -142l-547 -1066zM473 303q0 -34 40 -59.5t87 -25.5q50 0 89.5 25.5t39.5 59.5q0 42 -39.5 67t-89.5 25q-47 0 -87 -25t-40 -67zM737 -46h161v-812h-161v812zM1028 -46h158v-670h215 v-141h-373v811z" />
<glyph unicode="&#x1081;&#x103d;" horiz-adv-x="1303" d="M-126 -662l99 143l256 -190l361 709q-50 0 -95 18q-130 32 -231 132q-151 153 -150 369q0 215 150.5 366.5t366.5 151.5q215 0 366.5 -151.5t151.5 -366.5q0 -121 -48 -220l-149 97q20 58 21 123q0 140 -99 242.5t-243 102.5q-141 0 -242.5 -102.5t-101.5 -242.5 q0 -100 50 -182q18 66 73 121q79 77 187 77q110 0 188.5 -78t78.5 -191q0 -82 -39 -142l-547 -1066zM497 260q0 -43 34 -74.5t74 -31.5q43 0 77 31.5t34 74.5q0 52 -34 83.5t-77 31.5q-40 0 -74 -31.5t-34 -83.5zM583 -525q0 93 35 174.5t95.5 143t142 96t174.5 34.5 q92 0 174.5 -34.5t144 -96t96.5 -143t35 -174.5q0 -94 -35 -176.5t-96.5 -144t-144 -96.5t-174.5 -35q-93 0 -174.5 35t-142 96.5t-95.5 144t-35 176.5zM750 -530q0 -59 23 -111t59.5 -89t88 -60t110.5 -23q57 0 108.5 23t91 60t60 88.5t20.5 111.5q0 58 -20.5 108.5t-60 89 t-90.5 60t-109 21.5q-59 0 -110.5 -21.5t-88 -60t-59.5 -89t-23 -108.5z" />
<glyph unicode="&#x1081;&#x1082;" horiz-adv-x="1262" d="M-126 -621l99 143l256 -190l361 709q-50 0 -95 18q-130 32 -231 131q-151 153 -150 370q0 215 150.5 366.5t366.5 151.5q215 0 366.5 -151.5t151.5 -366.5q0 -121 -48 -220l-138 97q20 58 30 123q0 140 -104 247.5t-258 107.5q-152 -10 -253.5 -112.5t-101.5 -242.5 q0 -100 61 -182q18 66 73 110q79 67 187 67q110 0 188.5 -67.5t78.5 -180.5q0 -82 -39 -142l-547 -1066zM473 303q0 -34 40 -59.5t87 -25.5q50 0 89.5 25.5t39.5 59.5q0 42 -39.5 67t-89.5 25q-47 0 -87 -25t-40 -67zM612 -444q0 86 33 160.5t88 131t130.5 88t160.5 31.5 l1 -160q-55 0 -101.5 -19t-81 -55t-55 -81.5t-20.5 -100.5t20.5 -102t55 -81t81 -55t101.5 -21q53 0 99.5 21t82.5 55t56 81t20 102l155 5q0 -86 -32.5 -162t-89 -132t-131.5 -89t-161 -33q-85 0 -160.5 33t-130.5 89t-88 132t-33 162z" />
<glyph unicode="&#x100b;&#x1039;&#x100b;" horiz-adv-x="1256" d="M94 553q0 220 148 368q73 71 164.5 109.5t203.5 41.5h17q359 0 514 -359l-129 -42l-16 8q-118 236 -361 235h-25q-241 -12 -327 -250q-26 -60 -26 -113q0 -121 58 -216.5t162 -148.5q62 -32 131 -31q230 0 380 233l139 -60q-63 -111 -146.5 -181.5t-175.5 -109.5 q-84 -37 -197 -37q-223 0 -372 173q-141 158 -142 380zM162 -111l113 118l60 -33q130 -66 286 -65q206 0 363 114l146 -78v-650h197v-162h-356l-3 699q-158 -78 -350 -78q-222 0 -398 98zM291 -483q4 -33 14 -60t29 -52q12 -19 30 -30q78 -56 181 -56q32 0 57 1t48 10 q46 20 79 49t44 69l-91 62q-11 -26 -22.5 -38.5t-21.5 -17.5q-15 -12 -39.5 -22t-53.5 -10q-53 0 -89.5 28t-36.5 67t36.5 68.5t89.5 29.5q62 0 93 -33q28 -19 46 -50l98 68q11 6 7 14t-17 18.5t-26.5 18t-21.5 11.5q-72 57 -179 57q-98 0 -175 -57q-36 -31 -57.5 -67.5 t-21.5 -77.5zM332 -686q101 -69 227 -69q91 0 163 42l92 -49v-94h82v-103h-206l-2 113q-25 -7 -60 -11t-69 -4q-53 0 -102 9t-90 27h3l-38 13v126z" />
<glyph unicode="&#x100b;&#x1039;&#x100c;" horiz-adv-x="1213" d="M94 553q0 220 148 368q73 71 164.5 109.5t203.5 41.5h17q359 0 514 -359l-129 -42l-16 8q-118 236 -361 235h-25q-241 -12 -327 -250q-26 -60 -26 -113q0 -121 58 -216.5t162 -148.5q62 -32 131 -31q230 0 380 233l139 -60q-63 -111 -146.5 -181.5t-175.5 -109.5 q-84 -37 -197 -37q-223 0 -372 173q-141 158 -142 380zM114 -606q0 112 74 188.5t177 76.5q36 0 67 -8l-49 -157h-17q-31 0 -60.5 -27.5t-29.5 -72.5q0 -41 28 -70q19 -16 41 -23l40 -11h524v522q-147 -78 -325 -78q-206 0 -373 97l-52 38l102 139l58 -44q122 -66 266 -65 q194 0 340 113l146 -88v-797h-673q-16 -2 -33 -3q-102 0 -176.5 77t-74.5 193z" />
<glyph unicode="&#x100d;&#x1039;&#x100e;" horiz-adv-x="1266" d="M84 968q57 47 112.5 74t112.5 30h10q208 0 208 -178q0 -128 -89 -186q-108 -52 -121 -66q-71 -55 -70 -144q0 -89 81 -194q111 -146 314 -146q144 0 260 112q113 104 113 249q0 136 -69 244q-55 79 -191 178l68 139q180 -121 254 -238q84 -136 84 -307v-16 q0 -165 -90.5 -295t-250.5 -187q-104 -37 -178 -37q-217 0 -377 141q-161 141 -168 357v29q0 136 68 204q18 24 139 82q62 29 69 76q0 24 -87 23q-44 -10 -100 -73zM470 504q31 53 45 68q61 60 142 61q41 0 75 -15.5t66 -45.5q60 -63 60 -153q0 -38 -9.5 -67.5t-23.5 -56.5 q-4 -11 -10.5 -18t-12.5 -15q-66 -61 -145 -61q-27 0 -45.5 2t-37.5 12v-37q35 -16 85 -16q71 0 127 46l64 -54v-910h75v-111h-227l-2 933q-12 -5 -14.5 -8.5t-2.5 -5.5t-3 -3t-17 -1q-44 0 -82.5 11t-70.5 28h3l-33 13v240l74 70q9 -27 18 -42.5t16 -21.5q28 -31 73 -31 q43 0 72.5 31t29.5 73q0 39 -29.5 69.5t-72.5 30.5q-46 0 -73 -34q-11 -12 -20 -24t-16 -30z" />
<glyph unicode="&#x100f;&#x1039;&#x100d;" horiz-adv-x="2580" d="M102 547q0 124 42.5 230t120 184.5t185 122.5t237.5 44q171 0 334 -115q23 47 104 86q78 30 145 29q74 0 145 -38q78 -28 103 -72q67 47 166 78.5t198 31.5q116 0 217 -46.5t176.5 -125t119.5 -185t44 -224.5q0 -114 -46.5 -211.5t-125.5 -172.5t-184 -119t-217 -47v163 q77 0 148.5 29t126.5 81.5t88.5 123t33.5 153.5q0 74 -25 148.5t-71.5 134t-113 95.5t-151.5 36q-97 0 -179 -29.5t-139.5 -83t-90.5 -131t-33 -170.5q0 -42 12.5 -86t33.5 -100q47 -116 47 -146q0 -72 -45.5 -123t-125.5 -81q-39 -19 -112 -19q-293 0 -293 223 q0 23 6.5 51.5t26.5 62.5q19 38 30.5 64.5t13.5 39.5q6 25 10 52.5t4 61.5q0 181 -103.5 297.5t-277.5 116.5q-88 0 -164 -28t-132.5 -81.5t-90 -129.5t-33.5 -170q0 -91 35 -163t94.5 -121.5t139 -77t167.5 -30.5l9 -168q-113 3 -222 43t-194.5 111.5t-139.5 173.5t-54 227 zM342 -565q0 187 141 319q140 133 328 133q190 0 326 -144q63 -63 93.5 -147t30.5 -173q0 -138 -72 -257h47q63 80 63 243q0 161 -93 316q-19 27 -19 44q0 60 74 60h849v199h166v-367h-863q60 -130 61 -252q0 -52 -10 -106t-26 -103q-23 -55 -50 -106t-58 -79h-329l-55 140 q143 83 144 260q0 119 -85 212q-75 83 -199 83q-55 0 -105 -22t-88.5 -61t-62 -89.5t-23.5 -108.5q0 -135 129 -251l-68 -155q-163 88 -223 265q-23 80 -23 147zM1167 243q0 -80 103 -80q107 0 107 83q0 36 -27 93q-34 63 -39 83q-13 61 -14 125q0 110 61 292q5 14 6.5 29 t1.5 31q0 61 -96 62q-102 0 -103 -64q0 -42 36 -158q39 -129 39 -192q0 -78 -39 -194l-8 -24q-28 -72 -28 -86z" />
<glyph unicode="&#x100a;&#x1039;&#x100a;" horiz-adv-x="2994" d="M174 270l130 126q30 -62 81 -118q100 -101 242 -102q143 0 243.5 102.5t100.5 240.5q0 144 -100.5 246t-243.5 102q-141 0 -242 -103q-51 -53 -81 -116l-130 122q34 62 88 118q151 152 365 151q218 0 369 -151.5t151 -368.5q0 -138 100.5 -240.5t246.5 -102.5 q140 0 240.5 102.5t100.5 240.5q0 144 -100.5 246t-240.5 102q-123 0 -215 -73l-93 145q132 100 308 100q214 0 365 -151.5t151 -368.5v-1q0 -143 101 -245q103 -99 243 -99q142 0 244 100.5t102 244.5q0 140 -101.5 240.5t-244.5 100.5h-32l26 177h6q215 0 367 -151.5 t152 -366.5q0 -217 -152 -368t-367 -151q-218 0 -367 150q-38 37 -66 77l-2 -3q-27 -38 -61 -72q-150 -150 -364 -150q-217 0 -369 150q-38 40 -64 80q-29 -41 -67 -80q-150 -150 -367 -150q-159 0 -283 83v-570q0 -130 81 -215.5t203 -85.5h1777q116 0 203 84t90 201v16 h175v-28q7 -203 -122.5 -324.5t-328.5 -121.5h-1804q-196 0 -320 130.5t-124 327.5v771z" />
<glyph unicode="&#x102d;&#x1032;" d="M-1640 1876l129 84l491 -727l-131 -82zM-1094 1586q0 86 33.5 164t91 135t133.5 90t164 33q87 0 164.5 -33t134.5 -90t90.5 -135t33.5 -164q0 -89 -33.5 -165t-90.5 -133t-134.5 -90.5t-164.5 -33.5q-88 0 -164 33.5t-133.5 90.5t-91 133t-33.5 165zM-943 1586 q0 -114 79 -193t192 -79q115 0 194 79.5t79 192.5q0 114 -79 193.5t-194 79.5q-114 0 -192.5 -79.5t-78.5 -193.5z" />
<glyph unicode="&#x100d;&#x1039;&#x100d;" horiz-adv-x="1299" d="M109 -19v322l115 64q73 -101 179 -150t210 -49q78 0 148 25t124 73t87.5 120t33.5 166q0 182 -105 295.5t-281 113.5q-259 0 -384 -222l-116 103q72 132 211 209t289 77q228 0 394 -174q166 -171 166 -402q0 -234 -180 -400q-163 -148 -372 -149q-185 0 -357 113v-56 q63 -52 146.5 -81t179.5 -29q210 0 387 110q16 19 49 20q36 0 68 -27.5t32 -57.5v-734h167v-150h-325v754q-215 -91 -378 -91q-132 0 -267 58q-127 52 -221 149zM351 -425q83 158 246 166q197 -16 254 -179q6 -23 10 -45t4 -46q0 -53 -22 -101.5t-61 -86t-88.5 -59.5 t-104.5 -22q-13 3 -37 7.5t-54 17.5v-22q50 -23 99 -22q135 0 202 69q55 0 58 -44v-113h137v-132h-275v99q-67 -19 -122 -19q-63 0 -235 88v229l116 69q42 -72 119 -72q108 0 108 114q0 85 -89 107h-19q-72 0 -108 -61z" />
<glyph unicode="&#x1020;&#x103e;" horiz-adv-x="1228" d="M114 -55l157 98q156 -124 365 -124q156 0 306 76l-10 129q-134 -81 -292 -81q-216 0 -367 150q-38 40 -65 80q-82 123 -86 287q0 217 151 368.5t367 151.5t366 -151q55 -55 89 -118l-133 -112q-15 62 -69 106q-90 103 -253 114q-143 0 -248 -107t-105 -252 q10 -138 99.5 -240.5t253.5 -122.5q142 10 243 111q53 56 79 119l133 -115v-5v4v-422l-58 -37q-177 -97 -399 -98q-191 0 -362 78v-531h574l44 20q23 7 44 24q30 29 30 69q0 45 -31 73t-67 28h-17l-53 156q35 8 72 8q112 0 191.5 -76.5t79.5 -188.5q0 -116 -79.5 -192.5 t-191.5 -76.5q-16 0 -35 2h-723v798zM377 -507h188v202h156v-341h-344v139z" />
<glyph unicode="&#x103b;&#x103e;" horiz-adv-x="309" d="M-894 -684l87 144l182 -134l282 611h177v-374q63 -50 112.5 -91t112.5 -95v1700h156v-1877l-114 -71l-406 330v135l-9 30q-66 -141 -126 -261.5t-113 -231.5h-95z" />
<glyph unicode="&#x103b;&#x103d;" horiz-adv-x="349" d="M-1047 -453q0 83 32 157.5t87 129t128 86.5t158 32q83 0 157 -32t129 -86.5t86.5 -129t31.5 -157.5q0 -85 -31.5 -158t-86.5 -128t-129 -86.5t-157 -31.5q-85 0 -158 31.5t-128 86.5t-87 128t-32 158zM-903 -453q0 -110 75.5 -185.5t185.5 -75.5t185.5 76t75.5 185 q0 110 -75.5 186t-185.5 76t-185.5 -76t-75.5 -186zM-327 -536l84 156q166 -131 202 -160q54 -45 113 -92v1712h154v-1866l-144 -71z" />
<glyph unicode="&#x103c;&#x103d;" horiz-adv-x="365" d="M144 -395v1959q0 306 267 421q61 29 202 28h411q344 0 455 -261q19 -85 19 -208v-270q0 -10 -9 -10h-140q-10 0 -11 10v265q0 245 -163 295q-95 25 -180 25h-377q-250 0 -314 -233q-5 -26 -5 -48v-1988q0 -210 242 -275q32 -5 63 -5h58l156 -159h-176q-316 0 -416 178 q-82 90 -82 276zM612 -453q0 83 32 157.5t86.5 129t128 86.5t158.5 32q83 0 157 -32t129 -86.5t86.5 -129t31.5 -157.5q0 -85 -31.5 -158t-86.5 -128t-129 -86.5t-157 -31.5q-85 0 -158.5 31.5t-128 86.5t-86.5 128t-32 158zM756 -453q0 -110 75.5 -185.5t185.5 -75.5 t185.5 76t75.5 185q0 110 -76 186t-185 76q-110 0 -185.5 -76t-75.5 -186z" />
<glyph unicode="&#x103d;&#x103e;" d="M-1543 -554.5q-31 109.5 30 206.5l122 -84l18 -7q-32 -37 -18.5 -82.5t45.5 -73.5q59 -31 98.5 -16.5t75.5 61.5l157 285l31 -245l-59 -101l-7 -12q-59 -97 -166.5 -123.5t-202.5 28.5q-93 54 -124 163.5zM-1047 -453q0 83 32 157.5t87 129t128 86.5t158 32q83 0 157 -32 t129 -86.5t86.5 -129t31.5 -157.5q0 -85 -31.5 -158t-86.5 -128t-129 -86.5t-157 -31.5q-85 0 -158 31.5t-128 86.5t-87 128t-32 158zM-903 -453q0 -110 75.5 -185.5t185.5 -75.5t185.5 76t75.5 185q0 110 -75.5 186t-185.5 76t-185.5 -76t-75.5 -186z" />
<glyph unicode="&#x1020;&#x1039;&#x1020;" horiz-adv-x="1256" d="M114 -96l157 98q156 -114 365 -114q156 0 286 66v129q-124 -81 -282 -81q-216 0 -367 150q-38 40 -65 80q-82 123 -86 287q0 217 151 368.5t367 151.5t366 -151q55 -55 89 -118l-133 -122q-26 62 -79 116q-100 103 -243 103t-243 -101.5t-100 -246.5q0 -138 100 -240.5 t243 -102.5q142 0 243 102q53 56 79 118l133 -125v-423l-58 -37q-177 -97 -399 -98q-191 0 -351 78v-511h607q23 7 44 24q30 29 30 69q0 45 -31 73t-67 28h-17l-53 156q35 8 72 9q112 0 191.5 -77t79.5 -189q0 -116 -79.5 -192.5t-191.5 -76.5q-16 0 -35 2h-723v798z M342 -468q0 33 17.5 63t48.5 57q57 46 140 46q85 0 146 -46q4 -4 15 -11.5t20.5 -14.5t14 -13.5t-4.5 -12.5l-80 -55q-19 29 -36 40q-26 28 -75 28q-44 0 -74 -24t-30 -57t30 -54t74 -21q25 0 44 7.5t31 16.5q5 6 16 16.5t18 30.5l75 -50q-2 -2 -2 -6v-93h80v-86h-167v94 q-7 0 -12 -5q-17 -6 -38 -7.5t-45 -1.5q-83 0 -150 45q-11 7 -21 23q-33 41 -35 91z" />
<glyph unicode="&#x102d;&#x1036;" horiz-adv-x="87" d="M-1094 1586q0 86 33.5 164t91 135t133.5 90t164 33q87 0 164.5 -33t134.5 -90t90.5 -135t33.5 -164q0 -89 -33.5 -165t-90.5 -133t-134.5 -90.5t-164.5 -33.5q-88 0 -164 33.5t-133.5 90.5t-91 133t-33.5 165zM-943 1586q0 -114 79 -193t192 -79q115 0 194 79.5t79 192.5 q0 114 -79 193.5t-194 79.5q-114 0 -192.5 -79.5t-78.5 -193.5zM-173 1513q0 96 67 165t163 69q92 0 159.5 -69t67.5 -165q0 -93 -67 -160.5t-160 -67.5q-96 0 -163 67.5t-67 160.5zM-39 1513q0 -39 27.5 -67t68.5 -28q39 0 68 28.5t29 66.5q0 43 -29 71t-68 28 q-41 0 -68.5 -28t-27.5 -71z" />
<glyph unicode="&#x1004;&#x103a;&#x1039;" d="M-895 1423q0 134 102 210q-20 28 -36 64t-16 70q0 43 17 81t46 67t66 45t78 16q86 0 134 -46q27 -33 47.5 -69t31.5 -80l-126 -18q-45 26 -61 37h2q-4 3 -11 5t-19 2q-16 0 -27.5 -13t-11.5 -27q0 -8 8 -21.5t19.5 -26t25.5 -22.5t28 -10h96l2 -154h-96q-22 0 -45.5 -10 t-42.5 -25.5t-32.5 -37t-13.5 -40.5q0 -38 27 -66.5t65 -28.5q43 0 65 26q11 13 20.5 32t14.5 45l160 -34q-16 -84 -56 -134q-37 -42 -90.5 -70t-113.5 -28q-51 0 -98.5 21.5t-83 57t-55.5 82t-20 100.5z" />
<glyph unicode="&#x1039;&#x1010;&#x103d;" horiz-adv-x="2" d="M-1527 -410q0 147 117 243q110 84 261 84q213 0 320 -147q16 31 49 57q127 92 265 92q144 0 264 -95.5t120 -234.5q0 -81 -31 -142q16 -36 22 -75t0 -81q-2 -23 -9.5 -40.5t-20.5 -35.5q-11 -15 -31.5 -26.5t-37.5 -22.5q-24 -14 -62 -25t-80 -16t-82 -3t-66 15 q-20 10 -40.5 24.5t-39.5 28.5q-16 14 -25 35.5t-20 40.5q-14 29 -17 63t2 68t17 66.5t25 59.5q9 16 22 30t25 26q6 6 14 12t16 11t16.5 9.5t14.5 5.5q15 10 32.5 12.5t37.5 4.5q36 4 66 -4q35 -8 68 -24.5t62 -37.5q1 9 1 21q0 92 -88 155q-77 54 -177 54q-94 0 -166 -53.5 t-93 -143.5q0 -154 -109.5 -248.5t-263.5 -94.5t-266 90.5t-112 241.5zM-1404 -410q0 -95 82 -158q75 -56 173 -57q223 0 256 241q-12 75 -81 127.5t-175 52.5q-103 0 -175 -50q-80 -57 -80 -156zM-557 -600.5q-6 -35.5 0.5 -70.5t28.5 -58q17 -17 42.5 -27.5t55 -14t58 -1 t49.5 10.5q13 9 29 17t32 27q11 37 9 71t-15 63t-35.5 50.5t-50.5 33.5q-17 8 -28 13.5t-20 8.5t-19 4t-26 1q-11 -5 -21 -8.5t-22 -14.5q-27 -12 -44 -41t-23 -64.5z" />
<glyph unicode="&#x101b;&#x103a;&#x1039;" d="M-1008 1551q0 157 111 268q109 110 268 109q144 0 261 -96l-100 -101q-79 56 -161 56q-93 0 -168 -69q-70 -69 -69 -167q0 -98 71 -162q60 -58 138 -67q-35 46 -35 110q0 42 17.5 78.5t45 63.5t64 42t75.5 15q41 0 76.5 -15t63 -42t43.5 -63.5t16 -78.5 q0 -38 -13.5 -72.5t-42.5 -63.5q-5 -6 -13 -12l-2 -3q-110 -106 -267 -106q-162 0 -268 110q-111 109 -111 266zM-562 1438q0 -30 21.5 -50t46.5 -20q30 0 50 20t20 50q0 29 -20 49t-50 20q-26 0 -47 -20.5t-21 -48.5z" />
<glyph unicode="&#x103e;&#x102d;&#xe2f1;" horiz-adv-x="5" d="M-1094 1586q0 86 33.5 164t91 135t133.5 90t164 33q87 0 164.5 -33t134.5 -90t90.5 -135t33.5 -164q0 -89 -33.5 -165t-90.5 -133t-134.5 -90.5t-164.5 -33.5q-88 0 -164 33.5t-133.5 90.5t-91 133t-33.5 165zM-1065 -716h215v670h161v-811h-376v141zM-943 1586 q0 -114 79 -193t192 -79q115 0 194 79.5t79 192.5q0 114 -79 193.5t-194 79.5q-114 0 -192.5 -79.5t-78.5 -193.5zM-559 -46h162v-670h213v-141h-375v811z" />
<glyph unicode="&#x103e;&#x1072;&#xe2f1;" d="M-1065 -716h215v670h161v-811h-376v141zM-1037 1560q0 84 35 161t93 138q121 129 299 129q212 0 393 -255l-133 -68l-14 5q-92 155 -251 155q-50 0 -98.5 -21t-85.5 -58t-60.5 -85t-23.5 -101q0 -104 84 -189q42 -39 87.5 -60t101.5 -21q34 0 94 24l60 -142 q-76 -24 -104.5 -29t-49.5 -5q-141 0 -242 72t-154 193q-13 37 -22 77.5t-9 79.5zM-559 -46h162v-670h213v-141h-375v811z" />
<glyph unicode="&#x103e;&#x102d;&#xe2f2;" d="M-1252 -721h205v685h161v-829h-366v144zM-1094 1586q0 86 33.5 164t91 135t133.5 90t164 33q87 0 164.5 -33t134.5 -90t90.5 -135t33.5 -164q0 -89 -33.5 -165t-90.5 -133t-134.5 -90.5t-164.5 -33.5q-88 0 -164 33.5t-133.5 90.5t-91 133t-33.5 165zM-943 1586 q0 -114 79 -193t192 -79q115 0 194 79.5t79 192.5q0 114 -79 193.5t-194 79.5q-114 0 -192.5 -79.5t-78.5 -193.5zM-719 -36h161v-829h-161v829zM-399 -36h161v-685h203v-144h-364v829z" />
<glyph unicode="&#x102b;&#x1036;" horiz-adv-x="458" d="M-975 1513q0 96 67 165t162 69q94 0 160 -69t66 -165q0 -93 -66 -160.5t-160 -67.5t-161.5 67.5t-67.5 160.5zM-841 1513q0 -39 27.5 -67t67.5 -28t69 28.5t29 66.5q0 43 -29 71t-69 28t-67.5 -28t-27.5 -71zM-465 1445v146q0 158 110 288q119 114 294 114q92 0 159 -36 t114 -95t72.5 -136t25.5 -163v-1563h-168v1549q0 126 -52.5 199.5t-150.5 73.5q-34 0 -83 -13t-80.5 -43t-48.5 -76t-27 -109v-136h-165z" />
<glyph unicode="&#x102b;&#x1032;" horiz-adv-x="458" d="M-959 1869l129 85l490 -728l-130 -81zM-465 1445v146q0 158 110 288q119 114 294 114q92 0 159 -36t114 -95t72.5 -136t25.5 -163v-1563h-168v1549q0 126 -52.5 199.5t-150.5 73.5q-34 0 -83 -13t-80.5 -43t-48.5 -76t-27 -109v-136h-165z" />
<glyph unicode="&#x1032;&#xaa70;" horiz-adv-x="2" d="M-1051 1580q-8 27 8.5 55t41.5 32q19 5 47 -2l638 -287q38 -16 45 -47q6 -24 -10.5 -53.5t-43.5 -35.5q-16 -3 -50 4l-639 286q-29 10 -37 48zM-950 1799q-7 27 9 54t39 32q22 5 47 -3l639 -286q38 -16 44 -45q6 -26 -9.5 -55t-42.5 -34q-15 -5 -49 3l-639 287 q-31 8 -38 47z" />
<glyph unicode="&#x103a;&#xaa70;" d="M-977 1519q0 165 119 285.5t290 120.5q166 0 284.5 -121t118.5 -285l-177 -2q0 93 -66.5 162.5t-162.5 69.5q-98 0 -165.5 -69.5t-67.5 -162.5q0 -96 67 -166t166 -70l3 -172q-171 0 -290 120.5t-119 289.5zM-733 1492q0 73 48 120.5t123 47.5q69 0 117.5 -49t48.5 -119 l-98 -5q0 70 -72 69q-71 0 -71 -69z" />
<glyph unicode="&#x102c;&#x103e;&#x103a;" horiz-adv-x="1025" d="M-1037 1560q0 84 35 161t93 138q121 129 299 129q212 0 393 -255l-133 -68l-14 5q-92 155 -251 155q-50 0 -98.5 -21t-85.5 -58t-60.5 -85t-23.5 -101q0 -104 84 -189q42 -39 87.5 -60t101.5 -21q34 0 94 24l60 -142q-76 -24 -104.5 -29t-49.5 -5q-141 0 -242 72 t-154 193q-13 37 -22 77.5t-9 79.5zM-923 -716h214v680h159v-821h-373v141zM-123 702q49 153 180 261q136 113 316 112q225 0 385 -152q165 -155 165 -370q0 -236 -155 -398q-74 -74 -173 -113t-225 -42q-60 0 -197 52l52 134q42 -16 77.5 -25t72.5 -9q173 3 291 118 q52 49 79.5 116.5t27.5 158.5q0 163 -118 268q-123 101 -282 101q-250 0 -358 -264z" />
<glyph unicode="&#x1051;&#x1039;&#x100d;" horiz-adv-x="1266" d="M114 519q0 215 148 390q99 94 219 130l64 -165q-90 -22 -160 -89q-98 -126 -98 -266q0 -142 101 -243.5t243 -101.5q144 0 244.5 101.5t100.5 243.5q0 140 -104 266q-65 68 -153 89l61 165q121 -36 216 -130q155 -175 155 -390q0 -217 -152.5 -368t-367.5 -151 q-216 0 -366.5 151t-150.5 368zM162 -152l113 139l60 -33q130 -66 286 -66q206 0 363 114l157 -98v-690h186v-173h-356l-3 750q-158 -78 -350 -78q-222 0 -398 98zM528 506q0 44 29.5 71.5t69.5 27.5q37 0 66 -27.5t29 -71.5q0 -38 -29 -65.5t-66 -27.5q-40 0 -69.5 27.5 t-29.5 65.5z" />
<glyph unicode="&#x1051;&#x1039;&#x100c;" horiz-adv-x="1266" d="M114 519q0 215 148 390q99 94 219 130l64 -165q-90 -22 -160 -89q-98 -126 -98 -266q0 -142 101 -243.5t243 -101.5q144 0 244.5 101.5t100.5 243.5q0 140 -104 266q-65 68 -153 89l61 165q121 -36 216 -130q155 -175 155 -390q0 -217 -152.5 -368t-367.5 -151 q-216 0 -366.5 151t-150.5 368zM114 -627q0 112 79.5 189t189.5 77q40 0 75 -9l-56 -156h-17q-35 0 -65.5 -28t-30.5 -73q0 -41 30 -69q20 -16 45 -24h44h561v511q-159 -78 -351 -78q-222 0 -398 98l-58 37l109 150l64 -44q130 -66 286 -66q206 0 364 114l158 -98v-798h-722 q-20 -2 -38 -2q-110 0 -189.5 77t-79.5 192zM528 506q0 44 29.5 71.5t69.5 27.5q37 0 66 -27.5t29 -71.5q0 -38 -29 -65.5t-66 -27.5q-40 0 -69.5 27.5t-29.5 65.5z" />
<glyph unicode="&#x103a;&#x1036;" horiz-adv-x="2" d="M-1037 1560q0 84 35 161t93 138q121 129 299 129q212 0 393 -255l-133 -68l-14 5q-92 155 -251 155q-50 0 -98.5 -21t-85.5 -58t-60.5 -85t-23.5 -101q0 -104 84 -189q42 -39 87.5 -60t101.5 -21q34 0 94 24l60 -142q-76 -24 -104.5 -29t-49.5 -5q-141 0 -242 72 t-154 193q-13 37 -22 77.5t-9 79.5zM-779 1558q0 65 45.5 109.5t113.5 44.5q65 0 113 -42t48 -109q0 -75 -44.5 -120.5t-116.5 -45.5q-66 0 -112.5 49t-46.5 114zM-681 1560q0 -60 63 -72q52 -1 67 68q0 60 -67 66q-62 0 -63 -62z" />
<glyph unicode="&#x107e;&#x102f;" horiz-adv-x="2208" d="M88 967q119 105 252 105q184 -20 184 -136q5 -7 5 -37q0 -178 -173 -231q-105 -73 -105 -148v-47q0 -88 131 -226q96 -89 278 -89q169 0 306 184q52 76 52 173l-5 27q0 380 410 515q53 15 142 15q332 0 505 -320v-6q-94 -51 -143 -63l-42 79q-161 158 -346 158 q-246 0 -357 -269q-11 -52 -12 -94q0 -83 32 -179q10 0 131 68q136 63 327 64q410 -50 410 -174v-10q-109 -291 -500 -326h-79q-38 0 -94 15q-35 -61 -626 -882h-5q-326 214 -326 231q68 115 74 116l210 -143q13 13 530 747v5q-91 60 -157 163v5h-5q-59 -134 -268 -225 q-108 -32 -189 -32q-326 0 -500 315q-37 115 -37 210q0 201 169 269q104 44 105 89v16q-34 10 -47 10h-37q-30 0 -100 -68q-71 81 -100 126zM1313 237q80 -74 178 -74h37q234 0 315 121q8 0 22 21q-114 52 -216 52q-193 1 -336 -120zM1561 -46h157v-670h215v-141h-372v811z " />
<glyph unicode="&#x107e;&#x1030;" horiz-adv-x="2174" d="M88 967q119 105 252 105q184 -20 184 -136q5 -7 5 -37q0 -178 -173 -231q-105 -73 -105 -148v-47q0 -88 131 -226q96 -89 278 -89q169 0 306 184q52 76 52 173l-5 27q0 380 410 515q53 15 142 15q332 0 505 -320v-6q-94 -51 -143 -63l-42 79q-161 158 -346 158 q-246 0 -357 -269q-11 -52 -12 -94q0 -83 32 -179q10 0 131 68q136 63 327 64q410 -50 410 -174v-10q-109 -291 -500 -326h-79q-38 0 -94 15q-35 -61 -626 -882h-5q-326 214 -326 231q68 115 74 116l210 -143q13 13 530 747v5q-91 60 -157 163v5h-5q-59 -134 -268 -225 q-108 -32 -189 -32q-326 0 -500 315q-37 115 -37 210q0 201 169 269q104 44 105 89v16q-34 10 -47 10h-37q-30 0 -100 -68q-71 81 -100 126zM1313 237q80 -74 178 -74h37q234 0 315 121q8 0 22 21q-114 52 -216 52q-193 1 -336 -120zM1444 -46h161v-812h-161v812zM1735 -46 h157v-670h215v-141h-372v811z" />
<glyph unicode="&#x103b;&#x1082;" horiz-adv-x="330" d="M-1021 -447q0 84 32.5 157.5t87 129t128 87.5t158.5 32l3 -158q-55 0 -101.5 -19.5t-80 -54t-54 -81t-20.5 -99.5q0 -54 20.5 -100.5t54 -80.5t79.5 -54.5t102 -20.5q50 0 96.5 20.5t82.5 54.5t55.5 80.5t19.5 100.5l152 6q0 -84 -32 -159.5t-88 -131t-130.5 -88 t-158.5 -32.5q-85 0 -158.5 32.5t-128 88t-87 131t-32.5 159.5zM-356 -746l98 149l323 -82v1759h167v-1881q0 -75 -66 -75z" />
<glyph unicode="&#x1083;&#x1037;" horiz-adv-x="827" d="M-60 895v165h367v-1749h172v-166h-329v1750h-210zM398 -339q0 88 62 152t151 64q87 0 147.5 -64t60.5 -152q0 -87 -60.5 -149.5t-147.5 -62.5q-89 0 -151 62.5t-62 149.5zM522 -339q0 -37 25 -63t64 -26q35 0 63 26t28 63q0 41 -28 65.5t-63 24.5q-39 0 -64 -24.5 t-25 -65.5z" />
<glyph unicode="&#x1062;&#x1086;" horiz-adv-x="521" d="M5 867v172h387v-1039h-177v867h-210zM11 1094q42 52 117 168l92 174l42 128h-22h-27q-80 4 -137 61q-51 49 -56 111q-9 24 -9 54q0 95 65 161t164 66q95 0 162.5 -66t67.5 -161q0 -50 -22 -156.5t-84.5 -203t-175 -194.5t-177.5 -142zM141 1790q0 -39 30 -68.5t69 -29.5 q42 0 68.5 29.5t26.5 68.5q0 41 -26.5 69t-68.5 28q-39 0 -69 -28t-30 -69z" />
<glyph unicode="&#x1083;&#x103a;" horiz-adv-x="499" d="M-207 1519q0 165 119.5 285.5t290.5 120.5q166 0 284.5 -121t118.5 -285l-177 -2q0 93 -66 162.5t-162 69.5q-100 0 -167 -69.5t-67 -162.5q0 -96 66.5 -166t167.5 -70l2 -172q-171 0 -290.5 120.5t-119.5 289.5zM-60 895v165h367v-1749h172v-166h-329v1750h-210z" />
<glyph unicode="&#x1039;&#x101f;" d="M-1717 -505q0 177 122 319q82 76 188 107l59 -148q-84 -26 -133 -75v1q-77 -98 -77 -204q0 -111 79 -186q78 -79 184 -79q56 0 101.5 20.5t85.5 58.5q78 76 78 186q0 105 -81 204v-1q-55 51 -130 75l58 148q108 -32 185 -105l3 -2q13 -19 26 -33.5t23 -33.5l2 2 q10 11 18 24t20 25q61 58 135 89t166 31q172 0 299 -120q124 -124 124 -302q0 -177 -126 -302q-131 -123 -312 -125l-24 167q18 -4 25.5 -5t13.5 -1q104 2 183 81q80 80 80 185q0 104 -80 185q-79 79 -183 78q-104 0 -188 -78q-35 -37 -53.5 -76t-23.5 -83v-27 q0 -90 -31 -164t-94 -139h2q-125 -123 -302 -123q-178 0 -300 125v-2q-122 127 -122 303z" />
<glyph unicode="&#x1001;&#x103c;&#x102f;&#x1036;" horiz-adv-x="1950" d="M143 -395v1959q0 306 267 421q61 28 202 28h411q344 0 455 -261q19 -85 19 -208v-270q0 -10 -9 -10h-140q-10 0 -11 10v265q0 245 -163 295q-95 25 -180 25h-377q-250 0 -314 -233q-5 -26 -5 -48v-1988q0 -210 242 -275q32 -5 63 -5h411q248 0 304 165q19 78 19 154v407 q144 169 155 174h5v-581q0 -246 -82 -319q-78 -91 -165 -121q-73 -38 -275 -38h-334q-316 0 -416 178q-82 90 -82 276zM453 346v13q8 20 15 29q195 123 365 123q153 0 246 -32q50 -15 102.5 -41t104.5 -68q22 47 31 89t9 94q0 230 -210 338q-79 35 -181 35q-175 0 -294 -155 q-12 -18 -24 -40.5t-23 -43.5l-141 66q84 197 299 287q81 32 183 32q218 0 380 -146q166 -155 166 -373q0 -257 -190 -422q-155 -131 -329 -131q-76 0 -155 21t-142 58q-66 37 -121 97t-83 128q-8 18 -8 42zM649 309q105 -151 307 -151q155 0 233 89q-155 115 -356 114 q-84 0 -184 -52zM892 1405q0 87 60.5 143.5t143.5 56.5q84 0 144 -58t60 -142t-60 -143t-144 -59q-89 0 -146.5 55.5t-57.5 146.5zM1017 1404q10 -83 80 -83q80 0 80 83q0 30 -26.5 52.5t-53.5 22.5q-70 0 -80 -75zM1638 -867v1947h155v-1795h128v-152h-283z" />
<glyph unicode="&#x1016;&#x103c;&#x102f;&#x1036;" horiz-adv-x="2021" d="M143 -395v1959q0 306 267 421q61 28 202 28h411q344 0 455 -261q19 -85 19 -208v-270q0 -10 -9 -10h-140q-10 0 -11 10v265q0 245 -163 295q-95 25 -180 25h-377q-250 0 -314 -233q-5 -26 -5 -48v-1988q0 -210 242 -275q32 -5 63 -5h411q248 0 304 165q19 78 19 154v407 q144 169 155 174h5v-581q0 -246 -82 -319q-78 -91 -165 -121q-73 -38 -275 -38h-334q-316 0 -416 178q-82 90 -82 276zM434 551q0 272 212 442q29 24 55.5 41.5t52.5 27.5l68 -141q-60 -24 -102 -63.5t-74 -91.5q-62 -111 -62 -221q0 -160 104 -275q102 -113 265 -112 q52 0 94.5 9t89.5 30q-44 60 -69.5 111t-40.5 95q-30 108 -30 252q0 71 37 210q40 138 89 181l9 6q2 2 20 7h22.5t27.5 -2q144 -66 225 -218q79 -150 79 -315q0 -176 -131 -330q-163 -185 -422 -186q-218 0 -369 160q-150 160 -150 383zM892 1405q0 87 60.5 143.5 t143.5 56.5q84 0 144 -58t60 -142t-60 -143t-144 -59q-89 0 -146.5 55.5t-57.5 146.5zM1017 1404q10 -83 80 -83q80 0 80 83q0 30 -26.5 52.5t-53.5 22.5q-70 0 -80 -75zM1145 652q0 -202 115 -356q50 40 69.5 97t19.5 134q0 232 -150 333q-54 -108 -54 -208zM1638 -867 v1947h155v-1795h128v-152h-283z" />
<glyph unicode="&#x1001;&#x103c;&#x103d;&#x102d;&#x102f;" horiz-adv-x="1940" d="M144 -395v1959q0 306 267 421q61 29 202 28h167l-101 -154h-61q-250 0 -314 -233q-5 -26 -5 -48v-1988q0 -210 242 -275q32 -5 63 -5h58l156 -159h-176q-316 0 -416 178q-82 90 -82 276zM454 346v13q8 20 15 29q195 123 365 123q153 0 246 -32q50 -15 102.5 -41 t104.5 -68q22 47 31 89t9 94q0 230 -210 338q-79 35 -181 35q-175 0 -294 -155q-12 -18 -24 -40.5t-23 -43.5l-141 66q84 197 299 287q81 32 183 32q218 0 380 -146q166 -155 166 -373q0 -257 -190 -422q-155 -131 -329 -131q-76 0 -155 21t-142 58q-66 37 -121 97t-83 128 q-8 18 -8 42zM514 1586q0 86 33.5 164t90.5 135t133.5 90t164.5 33q87 0 164.5 -33t134 -90t90.5 -135t34 -164q0 -89 -34 -165t-90.5 -133t-134 -90.5t-164.5 -33.5q-88 0 -164.5 33.5t-133.5 90.5t-90.5 133t-33.5 165zM602 -453q0 83 32 157.5t86.5 129t128 86.5 t158.5 32q83 0 157 -32t129 -86.5t86.5 -129t31.5 -157.5q0 -85 -31.5 -158t-86.5 -128t-129 -86.5t-157 -31.5q-85 0 -158.5 31.5t-128 86.5t-86.5 128t-32 158zM650 309q105 -151 307 -151q155 0 233 89q-155 115 -356 114q-84 0 -184 -52zM665 1586q0 -114 78.5 -193 t192.5 -79q115 0 193.5 79.5t78.5 192.5q0 114 -78.5 193.5t-193.5 79.5q-114 0 -192.5 -79.5t-78.5 -193.5zM745 -453q0 -110 76 -185.5t186 -75.5t185.5 76t75.5 185q0 110 -76 186t-185 76q-110 0 -186 -76t-76 -186zM1629 -867v1947h155v-1795h128v-152h-283z" />
<glyph unicode="&#x1000;&#x103c;&#x102f;&#x1036;" horiz-adv-x="2836" d="M143 -395v1959q0 306 277 421q65 29 211 28h1246q369 0 453 -251q41 -95 41 -218v-270q0 -10 -11 -10h-145q-11 0 0 10v265q-11 245 -192 305q-36 14 -176 15h-1211q-259 0 -327 -233q-5 -26 -5 -48v-1988q0 -210 251 -275q34 -5 67 -5h1256q258 0 316 165q20 78 21 154 v543l166 195v-738q0 -246 -85 -319q-81 -91 -172 -121q-75 -38 -286 -38h-1178q-329 0 -432 178q-85 90 -85 276zM427 553q0 218 165 373q178 146 390 146q119 0 223.5 -54.5t186.5 -155.5q84 100 192.5 155t242.5 55q210 0 372 -149q154 -150 154 -370q0 -212 -160 -380 q-160 -170 -366 -176q-10 0 -25 1.5t-34 4.5q-17 2 -37 3.5t-38 1.5v147q173 0 265 39q239 102 238 359q0 141 -112 252q-119 110 -257 109q-237 0 -349 -190q29 -79 28 -171q0 -353 -382 -550l-42 143q31 24 74.5 61t98.5 87q89 115 90 259q0 139 -111 249 q-113 113 -252 112q-118 0 -216 -68t-148 -177q-30 -66 -29 -116q0 -270 270 -403l-42 -147q-390 170 -390 550zM1711 1405q0 87 60.5 143.5t143.5 56.5q84 0 144.5 -58t60.5 -142t-60.5 -143t-144.5 -59q-89 0 -146.5 55.5t-57.5 146.5zM1836 1404q10 -83 80 -83 q80 0 80 83q0 30 -26 52.5t-54 22.5q-70 0 -80 -75zM2458 -867v1947h154v-1795h128v-152h-282z" />
<glyph unicode="&#x1000;&#x103c;&#x102f;&#x1036;&#x1037;" horiz-adv-x="3158" d="M143 -395v1959q0 306 277 421q65 29 211 28h1246q369 0 453 -251q41 -95 41 -218v-270q0 -10 -11 -10h-145q-11 0 0 10v265q-11 245 -192 305q-36 14 -176 15h-1211q-259 0 -327 -233q-5 -26 -5 -48v-1988q0 -210 251 -275q34 -5 67 -5h1256q258 0 316 165q20 78 21 154 v543l166 195v-738q0 -246 -85 -319q-81 -91 -172 -121q-75 -38 -286 -38h-1178q-329 0 -432 178q-85 90 -85 276zM427 553q0 218 165 373q178 146 390 146q119 0 223.5 -54.5t186.5 -155.5q84 100 192.5 155t242.5 55q210 0 372 -149q154 -150 154 -370q0 -212 -160 -380 q-160 -170 -366 -176q-10 0 -25 1.5t-34 4.5q-17 2 -37 3.5t-38 1.5v147q173 0 265 39q239 102 238 359q0 141 -112 252q-119 110 -257 109q-237 0 -349 -190q29 -79 28 -171q0 -353 -382 -550l-42 143q31 24 74.5 61t98.5 87q89 115 90 259q0 139 -111 249 q-113 113 -252 112q-118 0 -216 -68t-148 -177q-30 -66 -29 -116q0 -270 270 -403l-42 -147q-390 170 -390 550zM1762 1405q0 87 60.5 143.5t143.5 56.5q84 0 144.5 -58t60.5 -142t-60.5 -143t-144.5 -59q-89 0 -146.5 55.5t-57.5 146.5zM1887 1404q10 -83 80 -83 q80 0 80 83q0 30 -26 52.5t-54 22.5q-70 0 -80 -75zM2509 -867v1947h154v-1795h128v-152h-282zM2728 -342q0 87 60.5 143.5t143.5 56.5q84 0 144.5 -58t60.5 -142t-60.5 -143t-144.5 -59q-89 0 -146.5 55.5t-57.5 146.5zM2853 -343q10 -83 80 -83q80 0 80 83 q0 30 -26.5 52.5t-53.5 22.5q-70 0 -80 -75z" />
<glyph unicode="&#x1001;&#x103c;&#x102f;&#x1036;&#x1037;" horiz-adv-x="2253" d="M143 -395v1959q0 306 267 421q61 28 202 28h411q344 0 455 -261q19 -85 19 -208v-270q0 -10 -9 -10h-140q-10 0 -11 10v265q0 245 -163 295q-95 25 -180 25h-377q-250 0 -314 -233q-5 -26 -5 -48v-1988q0 -210 242 -275q32 -5 63 -5h411q248 0 304 165q19 78 19 154v407 q144 169 155 174h5v-581q0 -246 -82 -319q-78 -91 -165 -121q-73 -38 -275 -38h-334q-316 0 -416 178q-82 90 -82 276zM442 346v13q8 20 16 29q195 123 364 123q153 0 247 -32q50 -15 102.5 -41t104.5 -68q22 47 31 89t9 94q0 230 -210 338q-79 35 -181 35q-175 0 -294 -155 q-12 -18 -24 -40.5t-23 -43.5l-142 66q84 197 299 287q81 32 184 32q218 0 380 -146q165 -155 165 -373q0 -257 -189 -422q-155 -131 -330 -131q-76 0 -154.5 21t-142.5 58q-66 37 -120.5 97t-82.5 128q-8 18 -9 42zM639 309q105 -151 307 -151q155 0 233 89 q-155 115 -357 114q-84 0 -183 -52zM892 1405q0 87 60.5 143.5t143.5 56.5q84 0 144 -58t60 -142t-60 -143t-144 -59q-89 0 -146.5 55.5t-57.5 146.5zM1017 1404q10 -83 80 -83q80 0 80 83q0 30 -26.5 52.5t-53.5 22.5q-70 0 -80 -75zM1638 -867v1947h155v-1795h128v-152 h-283zM1858 -342q0 87 60 143.5t143 56.5q84 0 144.5 -58t60.5 -142t-60.5 -143t-144.5 -59q-89 0 -146 55.5t-57 146.5zM1982 -343q10 -83 80 -83q80 0 80 83q0 30 -26 52.5t-54 22.5q-70 0 -80 -75z" />
<glyph unicode="&#x1016;&#x103c;&#x102f;&#x1036;&#x1037;" horiz-adv-x="2271" d="M143 -395v1959q0 306 267 421q61 28 202 28h411q344 0 455 -261q19 -85 19 -208v-270q0 -10 -9 -10h-140q-10 0 -11 10v265q0 245 -163 295q-95 25 -180 25h-377q-250 0 -314 -233q-5 -26 -5 -48v-1988q0 -210 242 -275q32 -5 63 -5h411q248 0 304 165q19 78 19 154v407 q144 169 155 174h5v-581q0 -246 -82 -319q-78 -91 -165 -121q-73 -38 -275 -38h-334q-316 0 -416 178q-82 90 -82 276zM434 551q0 272 212 442q29 24 55.5 41.5t52.5 27.5l68 -141q-60 -24 -102 -63.5t-74 -91.5q-62 -111 -62 -221q0 -160 104 -275q102 -113 265 -112 q52 0 94.5 9t89.5 30q-44 60 -69.5 111t-40.5 95q-30 108 -30 252q0 71 37 210q40 138 89 181l9 6q2 2 20 7h22.5t27.5 -2q144 -66 225 -218q79 -150 79 -315q0 -176 -131 -330q-163 -185 -422 -186q-218 0 -369 160q-150 160 -150 383zM892 1405q0 87 60.5 143.5 t143.5 56.5q84 0 144 -58t60 -142t-60 -143t-144 -59q-89 0 -146.5 55.5t-57.5 146.5zM1017 1404q10 -83 80 -83q80 0 80 83q0 30 -26.5 52.5t-53.5 22.5q-70 0 -80 -75zM1145 652q0 -202 115 -356q50 40 69.5 97t19.5 134q0 232 -150 333q-54 -108 -54 -208zM1638 -867 v1947h155v-1795h128v-152h-283zM1858 -342q0 87 60 143.5t143 56.5q84 0 144.5 -58t60.5 -142t-60.5 -143t-144.5 -59q-89 0 -146 55.5t-57 146.5zM1982 -343q10 -83 80 -83q80 0 80 83q0 30 -26 52.5t-54 22.5q-70 0 -80 -75z" />
<glyph unicode="&#x1009;&#x1039;&#x1001;" horiz-adv-x="1269" d="M136 698q153 374 521 374q210 0 369 -158q71 -74 110.5 -166t42.5 -212q0 -238 -151 -391q-156 -156 -397 -155q-142 0 -272 82q-8 5 -23 13t-32 21v-787q8 -18 29 -32h52l2 -152h-133q-32 5 -49 10t-27.5 18.5t-20 36t-19.5 61.5v1077l146 60q42 -108 144 -179 q50 -37 109.5 -54t119.5 -17q71 0 139.5 26.5t121.5 79.5q114 116 113 289q0 142 -113 258q-116 116 -259 115q-271 0 -384 -268zM433 -582q0 40 15.5 76.5t42.5 64.5t63.5 43.5t80.5 15.5q43 0 81.5 -15.5t66.5 -43.5t44.5 -64.5t16.5 -76.5q0 -34 -10.5 -62t-28.5 -56 q84 8 144 66q73 73 73 175q0 99 -71 169q-74 68 -174 68q-45 0 -84 -14t-71 -36l-108 98q59 47 124 72.5t139 25.5q167 0 278 -110h-2q117 -115 116 -273q0 -161 -116 -275h2q-113 -114 -278 -114q-153 0 -285 119l-3 2q-30 34 -43 67t-13 78zM568 -579q0 -28 20.5 -50.5 t47.5 -22.5q33 0 54 23t21 50q0 32 -21 53.5t-54 21.5q-27 0 -47.5 -21.5t-20.5 -53.5z" />
<glyph unicode="&#x1009;&#x1039;&#x1002;" horiz-adv-x="1268" d="M136 698q153 374 521 374q210 0 369 -158q71 -74 110.5 -166t42.5 -212q0 -238 -151 -391q-156 -156 -397 -155q-142 0 -272 82q-8 5 -23 13t-32 21v-787q8 -18 29 -32h74l4 -152h-157q-32 5 -49 10t-27.5 18.5t-20 36t-19.5 61.5v1077l146 60q42 -108 144 -179 q50 -37 109.5 -54t119.5 -17q71 0 139.5 26.5t121.5 79.5q114 116 113 289q0 142 -113 258q-116 116 -259 115q-271 0 -384 -268zM419 -486q0 82 31 154.5t84.5 126t124.5 85.5t153 32q83 0 155 -32t126 -85.5t85.5 -126t31.5 -154.5q0 -132 -75 -233t-194 -141l-52 142 q77 25 125 88.5t48 147.5q0 50 -19 96t-53.5 80t-80 53.5t-95.5 19.5q-51 0 -96.5 -19.5t-79 -53.5t-53 -80t-19.5 -96q0 -84 51.5 -149t125.5 -89l-58 -142q-118 40 -192 142t-74 234z" />
<glyph unicode="&#x1009;&#x1039;&#x1005;" horiz-adv-x="1269" d="M136 698q153 374 521 374q210 0 369 -158q71 -74 110.5 -166t42.5 -212q0 -238 -151 -391q-156 -156 -397 -155q-142 0 -272 82q-8 5 -23 13t-32 21v-787q8 -18 29 -32h74l4 -152h-157q-32 5 -49 10t-27.5 18.5t-20 36t-19.5 61.5v1077l146 60q42 -108 144 -179 q50 -37 109.5 -54t119.5 -17q71 0 139.5 26.5t121.5 79.5q114 116 113 289q0 142 -113 258q-116 116 -259 115q-271 0 -384 -268zM392 -480q0 116 50 203t141 153q102 66 224 66q157 0 280 -116q122 -129 122 -284q0 -177 -113 -298q-54 -61 -129 -94t-160 -33 q-169 0 -288 119q-127 118 -127 284zM542 -453q0 -44 12 -87t37 -72q66 74 66 156q0 63 -66 139q-28 -22 -38.5 -59.5t-10.5 -76.5zM721 -229q86 -93 86 -227q0 -155 -86 -247q41 -16 86 -17q110 5 180.5 75t70.5 181q0 50 -21 95.5t-54 78.5t-78.5 52.5t-95.5 19.5 q-52 0 -88 -11z" />
<glyph unicode="&#x1009;&#x1039;&#x1007;" horiz-adv-x="1269" d="M136 698q153 374 521 374q210 0 369 -158q71 -74 110.5 -166t42.5 -212q0 -238 -151 -391q-156 -156 -397 -155q-142 0 -272 82q-8 5 -23 13t-32 21v-787q8 -18 29 -32h74l4 -152h-157q-32 5 -49 10t-27.5 18.5t-20 36t-19.5 61.5v1077l146 60q42 -108 144 -179 q50 -37 109.5 -54t119.5 -17q71 0 139.5 26.5t121.5 79.5q114 116 113 289q0 142 -113 258q-116 116 -259 115q-271 0 -384 -268zM416 -471q0 80 28.5 147.5t80.5 125.5q120 114 279 114q157 0 274 -114q29 -34 47 -59t24 -46h5q14 -65 63 -112v2q42 -42 101 -60l-40 -145 q-99 31 -165 99h3l-5 6q-8 -8 -10 -12q-66 -59 -147 -60q-87 0 -147.5 59t-60.5 147q0 85 61 146q6 5 3 2.5t1 2.5h-7q-101 0 -169 -73v3q-74 -76 -74 -173q0 -101 74 -171q34 -38 77.5 -56t91.5 -18q91 0 162 68l107 -105q-120 -108 -269 -107q-161 0 -279 110 q-52 58 -80.5 126.5t-28.5 152.5zM891 -385q0 -27 20.5 -46.5t47.5 -19.5q11 0 25.5 6t24.5 14q15 14 20 32q-6 12 -10 28l-8 32l-22 22q-24 6 -30 6q-28 0 -48 -19t-20 -55z" />
<glyph unicode="&#x1009;&#x1039;&#x100e;" horiz-adv-x="1268" d="M136 698q153 374 521 374q210 0 369 -158q71 -74 110.5 -166t42.5 -212q0 -238 -151 -391q-156 -156 -397 -155q-142 0 -272 82q-8 5 -23 13t-32 21v-787q8 -18 29 -32h74l4 -152h-157q-32 5 -49 10t-27.5 18.5t-20 36t-9.5 61.5v1077l136 60q42 -108 144 -179 q50 -37 109.5 -54t119.5 -17q71 0 139.5 26.5t121.5 79.5q114 116 113 289q0 142 -113 258q-116 116 -259 115q-271 0 -384 -268zM426 -462l4 55l125 34q57 13 61 83q-9 59 -51 58l-49 -2q-10 -3 -21 -12.5t-19 -13.5l-38 147q41 22 112 31l72 -9q44 -16 74 -43t39 -61 q9 -11 13 -31t8 -41l4 -36q10 -154 -182 -215q6 -34 21 -65.5t44 -58.5q71 -71 172 -71q95 0 171 71q72 76 72 173q0 51 -19 96t-53 91v-2q-24 23 -54 39.5t-67 27.5l54 140q51 -16 93 -41.5t80 -59.5q115 -128 114 -291q0 -162 -116 -277h2q-117 -114 -277 -114 q-165 0 -278 114q-52 57 -81.5 125.5t-29.5 151.5v7z" />
<glyph unicode="&#x1009;&#x1039;&#x1012;" horiz-adv-x="1268" d="M137 698q153 374 521 374q210 0 369 -158q71 -74 110.5 -166t42.5 -212q0 -238 -151 -391q-156 -156 -397 -155q-142 0 -272 82q-8 5 -23 13t-32 21v-787q8 -18 29 -32h74l4 -152h-157q-32 5 -49 10t-27.5 18.5t-19.5 36t-9 61.5v1077l135 60q42 -108 144 -179 q50 -37 109.5 -54t119.5 -17q71 0 139.5 26.5t121.5 79.5q114 116 113 289q0 142 -113 258q-116 116 -259 115q-271 0 -384 -268zM422 -615l140 49q91 -143 230 -144q52 0 97.5 10t89.5 52q16 5 27.5 23t11.5 23q0 11 -86 61q-96 57 -96 91q0 52 99 100q55 44 55 57 q0 14 -15.5 28t-52.5 44q-23 16 -63 21.5t-73 5.5q-99 0 -177 -85q-22 -23 -21 -25q0 -5 77 -66l-77 -102q-153 94 -153 168q0 50 64 127q127 133 296 133q113 0 231 -70q135 -85 135 -184q0 -36 -52 -80q-23 -19 -33.5 -29t-13.5 -13q-8 -13 -8 -27q0 -10 39 -33 q91 -59 91 -97q0 -50 -78 -141q-124 -143 -311 -143q-249 0 -373 246z" />
<glyph unicode="&#x1009;&#x1039;&#x1013;" horiz-adv-x="1268" d="M136 698q153 374 521 374q210 0 369 -158q71 -74 110.5 -166t42.5 -212q0 -238 -151 -391q-156 -156 -397 -155q-142 0 -272 82q-8 5 -23 13t-32 21v-787q8 -18 29 -32h74l4 -152h-157q-32 5 -49 10t-27.5 18.5t-20 36t-9.5 61.5v1077l136 60q42 -108 144 -179 q50 -37 109.5 -54t119.5 -17q71 0 139.5 26.5t121.5 79.5q114 116 113 289q0 142 -113 258q-116 116 -259 115q-271 0 -384 -268zM404 -464q0 166 121 288q111 116 282 116q185 0 296 -111q113 -116 124 -293q0 -173 -119 -292q-130 -122 -301 -122q-196 0 -331 186 q-72 96 -72 228zM559 -458q0 -23 1 -39t10 -39q116 86 248 86q130 0 243 -82q6 16 7 32t1 42q0 104 -77.5 172t-184.5 68q-49 0 -94.5 -19.5t-79 -51.5t-54 -76t-20.5 -93zM660 -671q64 -55 147 -55q119 0 171 61q-85 60 -171 61q-44 0 -78.5 -14t-68.5 -53z" />
<glyph unicode="&#x1009;&#x1039;&#x1014;" horiz-adv-x="1268" d="M136 698q153 374 521 374q210 0 369 -158q71 -74 110.5 -166t42.5 -212q0 -238 -151 -391q-156 -156 -397 -155q-142 0 -272 82q-8 5 -23 13t-32 21v-787q8 -18 29 -32h74l4 -152h-157q-32 5 -49 10t-27.5 18.5t-20 36t-9.5 61.5v1077l136 60q42 -108 144 -179 q50 -37 109.5 -54t119.5 -17q71 0 139.5 26.5t121.5 79.5q114 116 113 289q0 142 -113 258q-116 116 -259 115q-271 0 -384 -268zM421 -635q0 75 44.5 122t116.5 47q22 0 55 -7t72 -15q82 -25 155 -74.5t128 -127.5q31 14 50.5 37.5t19.5 48.5q-11 85 -136 124 q-187 33 -204 42q-49 18 -89.5 57t-53.5 91q-11 19 -12 52q0 99 114 147q52 28 155 28q118 0 239 -83l-88 -124q-72 47 -151 47q-70 0 -111 -17q-6 0 -6 -30q14 -23 78 -31q124 -5 184 -33q194 -88 221 -213q3 -38 8 -57q0 -132 -132 -218q16 -19 30 -44q8 -8 18 -32t16 -27 l-130 -60q-31 55 -86 107q-8 0 -15 -4t-21 -4h-77q-119 0 -240 64q-153 77 -152 187zM567 -640q0 -23 59.5 -43t158.5 -43h41q-57 58 -140 94q-5 3 -16.5 3t-24.5 5q-8 3 -16.5 6t-19.5 6q-42 -6 -42 -28z" />
<glyph unicode="&#x1009;&#x1039;&#x1015;" horiz-adv-x="1269" d="M136 698q153 374 521 374q210 0 369 -158q71 -74 110.5 -166t42.5 -212q0 -238 -151 -391q-156 -156 -397 -155q-142 0 -272 82q-8 5 -23 13t-32 21v-787q8 -18 29 -32h74l4 -152h-157q-32 5 -49 10t-27.5 18.5t-20 36t-9.5 61.5v1077l136 60q42 -108 144 -179 q50 -37 109.5 -54t119.5 -17q71 0 139.5 26.5t121.5 79.5q114 116 113 289q0 142 -113 258q-116 116 -259 115q-271 0 -384 -268zM424 -447q0 158 111 290q38 34 80 61q4 1 9 3l96 -118q-44 -17 -80 -50v2q-69 -92 -69 -188t71 -171q76 -72 172 -72q51 0 93.5 18.5 t78.5 53.5q71 71 71 171q0 99 -71 188v-2q-25 22 -54 39q-8 4 -17 8l78 127l18 -8q41 -26 76 -60l4 -2q115 -129 114 -290q0 -161 -118 -277h4q-114 -113 -277 -113t-279 113q-53 58 -82 125.5t-29 151.5z" />
<glyph unicode="&#x1009;&#x1039;&#x1016;" horiz-adv-x="1269" d="M136 698q153 374 521 374q210 0 369 -158q71 -74 110.5 -166t42.5 -212q0 -238 -151 -391q-156 -156 -397 -155q-142 0 -272 82q-8 5 -23 13t-32 21v-787q8 -18 29 -32h74l4 -152h-157q-32 5 -49 10t-27.5 18.5t-20 36t-9.5 61.5v1077l136 60q42 -108 144 -179 q50 -37 109.5 -54t119.5 -17q71 0 139.5 26.5t121.5 79.5q114 116 113 289q0 142 -113 258q-116 116 -259 115q-271 0 -384 -268zM397 -461q0 293 251 428l50 -156q-152 -94 -151 -261q0 -49 20.5 -94.5t54.5 -80t80 -55t96 -20.5q124 0 182 74q-163 77 -174 315 q0 80 34 146t106 129q268 -127 268 -425q0 -165 -124 -280q-63 -61 -136 -87.5t-162 -26.5q-155 0 -276 122q-119 119 -119 272zM961 -308q0 -127 93 -197q11 23 11 59q0 148 -91 220q-13 -41 -13 -82z" />
<glyph unicode="&#x1009;&#x1039;&#x1017;" horiz-adv-x="1282" d="M136 698q153 374 521 374q210 0 369 -158q71 -74 110.5 -166t42.5 -212q0 -238 -151 -391q-156 -156 -397 -155q-142 0 -272 82q-8 5 -23 13t-32 21v-787q8 -18 29 -32h74l4 -152h-157q-32 5 -49 10t-27.5 18.5t-20 36t-9.5 61.5v1077l136 60q42 -108 144 -179 q50 -37 109.5 -54t119.5 -17q71 0 139.5 26.5t121.5 79.5q114 116 113 289q0 142 -113 258q-116 116 -259 115q-271 0 -384 -268zM395 -443q0 55 15 113t42.5 111.5t66.5 97.5t88 72q102 -116 197 -116q72 0 171 119q168 -108 226 -334q10 -55 10 -83q0 -166 -117 -287 q-117 -119 -285 -118q-91 0 -167 32.5t-131 94.5q-116 124 -116 298zM550 -446q0 -196 160 -254q41 -19 99 -20q104 0 177.5 73t73.5 181q0 122 -83 205q-82 -58 -173 -58q-86 0 -180 66q-74 -75 -74 -193z" />
<glyph unicode="&#x1009;&#x1039;&#x1019;" horiz-adv-x="1269" d="M136 698q153 374 521 374q210 0 369 -158q71 -74 110.5 -166t42.5 -212q0 -238 -151 -391q-156 -156 -397 -155q-142 0 -272 82q-8 5 -23 13t-32 21v-787q8 -18 29 -32h74l4 -152h-157q-32 5 -49 10t-27.5 18.5t-20 36t-9.5 61.5v1077l136 60q42 -108 144 -179 q50 -37 109.5 -54t119.5 -17q71 0 139.5 26.5t121.5 79.5q114 116 113 289q0 142 -113 258q-116 116 -259 115q-271 0 -384 -268zM389 -466q0 260 276 404l45 -142q-144 -91 -161 -207q-2 -13 -2 -28.5v-31.5q0 -60 30 -127q70 69 221 69q108 0 212 -75q19 31 31.5 65 t12.5 65q0 42 -14 83t-30 72l-124 115l36 144q289 -188 289 -414q0 -166 -121 -287q-116 -119 -292 -119q-276 0 -381 268q-28 67 -28 146zM682 -692q33 -25 116 -30q63 0 110 30q-17 11 -40 19t-78 11q-52 0 -108 -30z" />
<glyph unicode="&#x1009;&#x1039;&#x105c;" horiz-adv-x="1268" d="M136 698q153 374 521 374q210 0 369 -158q71 -74 110.5 -166t42.5 -212q0 -238 -151 -391q-156 -156 -397 -155q-142 0 -272 82q-8 5 -23 13t-32 21v-787q8 -18 29 -32h74l4 -152h-157q-32 5 -49 10t-27.5 18.5t-20 36t-9.5 61.5v1077l136 60q42 -108 144 -179 q50 -37 109.5 -54t119.5 -17q71 0 139.5 26.5t121.5 79.5q114 116 113 289q0 142 -113 258q-116 116 -259 115q-271 0 -384 -268zM406 -472q0 82 31 153.5t83.5 124.5t123 84t153.5 31q80 0 151.5 -31t125.5 -84t85 -124.5t31 -153.5q0 -81 -31 -153t-85 -125.5t-125.5 -84 t-151.5 -30.5q-83 0 -153.5 30.5t-123 84t-83.5 125.5t-31 153zM551 -474q0 -53 20.5 -99.5t54 -80.5t81 -54.5t99.5 -20.5t98.5 20.5t82 54.5t55 80.5t19.5 99.5q0 52 -19.5 98t-55 81.5t-82 55t-98.5 19.5t-99.5 -19.5t-81 -55t-54 -81.5t-20.5 -98zM649 -473 q0 68 46.5 115.5t113.5 47.5t114 -47.5t47 -115.5q0 -66 -47 -113t-114 -47t-113.5 47t-46.5 113zM733 -469q0 -30 21 -51t51 -21t53 21t23 51q0 32 -23 53.5t-53 21.5t-51 -21.5t-21 -53.5z" />
<glyph unicode="&#x1009;&#x1039;&#x1075;" horiz-adv-x="1268" d="M136 698q153 374 521 374q210 0 369 -158q71 -74 110.5 -166t42.5 -212q0 -238 -151 -391q-156 -156 -397 -155q-142 0 -272 82q-8 5 -23 13t-32 21v-787q8 -18 29 -32h74l4 -152h-157q-32 5 -49 10t-27.5 18.5t-20 36t-9.5 61.5v1077l136 60q42 -108 144 -179 q50 -37 109.5 -54t119.5 -17q71 0 139.5 26.5t121.5 79.5q114 116 113 289q0 142 -113 258q-116 116 -259 115q-271 0 -384 -268zM460 -449q0 82 29.5 150t83.5 124q115 112 283 112q162 0 281 -112h-2q119 -116 118 -274q0 -161 -116 -287q-38 -35 -81 -60t-94 -41l-55 139 q38 10 68.5 27t54.5 37v-2q34 45 53 90.5t19 96.5q0 95 -72 171q-77 69 -174 69q-102 0 -175 -69q-29 -27 -45 -58t-23 -65q197 -59 187 -212l-3 -36q-5 -22 -9.5 -41.5t-12.5 -30.5q-10 -34 -41.5 -60.5t-75.5 -41.5l-72 -11q-72 10 -113 32l38 146q8 -5 19 -13.5t20 -12.5 l52 -2q43 -2 52 57q-5 69 -63 82l-126 33l-5 55v8z" />
<glyph unicode="&#x1009;&#x1039;&#x1051;" horiz-adv-x="1268" d="M136 698q153 374 521 374q210 0 369 -158q71 -74 110.5 -166t42.5 -212q0 -238 -151 -391q-156 -156 -397 -155q-142 0 -272 82q-8 5 -23 13t-32 21v-787q8 -18 29 -32h74l4 -152h-157q-32 5 -49 10t-27.5 18.5t-20 36t-9.5 61.5v1077l136 60q42 -108 144 -179 q50 -37 109.5 -54t119.5 -17q71 0 139.5 26.5t121.5 79.5q114 116 113 289q0 142 -113 258q-116 116 -259 115q-271 0 -384 -268zM401 -466q0 133 77 235t199 142l60 -144q-79 -20 -131.5 -86t-52.5 -150q0 -51 20.5 -97t55.5 -80t81.5 -54t99.5 -20q51 0 97.5 20t82 54 t55 80t19.5 97q0 84 -49 147.5t-129 87.5l54 143q122 -41 200 -141.5t78 -233.5q0 -82 -32.5 -154.5t-88.5 -127t-130 -86t-160 -31.5q-85 0 -158.5 31.5t-128 86t-87 127t-32.5 154.5zM713 -468q0 -44 30 -73.5t73 -29.5q41 0 73.5 29.5t32.5 73.5q0 40 -32.5 70t-73.5 30 q-43 0 -73 -30t-30 -70z" />
<glyph unicode="&#x1009;&#x1039;&#x1050;" horiz-adv-x="1268" d="M136 698q153 374 521 374q210 0 369 -158q71 -74 110.5 -166t42.5 -212q0 -238 -151 -391q-156 -156 -397 -155q-142 0 -272 82q-8 5 -23 13t-32 21v-787q8 -18 29 -32h74l4 -152h-157q-32 5 -49 10t-27.5 18.5t-20 36t-9.5 61.5v1077l136 60q42 -108 144 -179 q50 -37 109.5 -54t119.5 -17q71 0 139.5 26.5t121.5 79.5q114 116 113 289q0 142 -113 258q-116 116 -259 115q-271 0 -384 -268zM401 -483q0 83 32 153.5t86 124t126.5 85t155.5 31.5q85 0 158 -31.5t128.5 -85t86.5 -124t31 -153.5q0 -130 -76 -229.5t-196 -138.5l-54 140 q79 25 127 87.5t48 145.5q0 49 -19 95t-54 79t-80.5 53t-96.5 20q-52 0 -98.5 -20t-80.5 -53t-54 -79t-20 -95q0 -83 51.5 -148t129.5 -86l-59 -142q-120 40 -196 140.5t-76 230.5zM709 -480q0 -40 29.5 -69.5t71.5 -29.5q41 0 72.5 29.5t31.5 69.5q0 44 -31.5 72.5 t-72.5 28.5q-42 0 -71.5 -28.5t-29.5 -72.5z" />
<glyph unicode="&#x1009;&#x1039;&#x1076;" horiz-adv-x="1268" d="M136 698q153 374 521 374q210 0 369 -158q71 -74 110.5 -166t42.5 -212q0 -238 -151 -391q-156 -156 -397 -155q-142 0 -272 82q-8 5 -23 13t-32 21v-787q8 -18 29 -32h74l4 -152h-157q-32 5 -49 10t-27.5 18.5t-20 36t-9.5 61.5v1077l136 60q42 -108 144 -179 q50 -37 109.5 -54t119.5 -17q71 0 139.5 26.5t121.5 79.5q114 116 113 289q0 142 -113 258q-116 116 -259 115q-271 0 -384 -268zM440 -599q0 42 17 80.5t44.5 67.5t65.5 45t83 16q94 0 156 -61t62 -148q0 -68 -40 -125q88 8 153 72q75 75 75 183q0 99 -75 174 q-72 69 -158 74q-16 -77 -65 -113t-132 -38q-97 10 -138.5 59t-41.5 127q0 45 17 110l145 -11q-17 -65 -17 -91q0 -51 39 -63q32 1 49 38t13 116q52 14 108 16h16q159 -5 273 -115q122 -119 121 -283q0 -87 -30.5 -157.5t-88.5 -132.5q-118 -118 -291 -118q-158 0 -282 113 q-10 3 -18 11q-59 70 -60 154zM580 -596q0 -30 23 -51.5t51 -21.5q33 0 55.5 21.5t22.5 51.5q0 33 -22.5 55.5t-55.5 22.5q-29 0 -51.5 -22.5t-22.5 -55.5z" />
<glyph unicode="&#x1009;&#x1039;&#x100b;" horiz-adv-x="1268" d="M136 698q153 374 521 374q210 0 369 -158q71 -74 110.5 -166t42.5 -212q0 -238 -151 -391q-156 -156 -397 -155q-142 0 -272 82q-8 5 -23 13t-32 21v-787q8 -18 29 -32h74l4 -152h-157q-32 5 -49 10t-27.5 18.5t-20 36t-9.5 61.5v1077l136 60q42 -108 144 -179 q50 -37 109.5 -54t119.5 -17q71 0 139.5 26.5t121.5 79.5q114 116 113 289q0 142 -113 258q-116 116 -259 115q-271 0 -384 -268zM457 -313q0 55 24.5 105t68.5 90q47 36 100 56.5t115 20.5q66 0 118 -19.5t100 -57.5q14 -14 30.5 -35t37.5 -51l-117 -91q-14 25 -27 40.5 t-29 28.5q-43 43 -113 43q-66 0 -111 -40t-45 -90t45 -89.5t111 -39.5q33 0 63.5 12.5t49.5 30.5q10 7 23.5 25t28.5 50l109 -84q-11 -55 -52 -93t-97 -66q-28 -10 -57.5 -13t-67.5 -3q-125 0 -223 77q-8 9 -17.5 18.5t-18.5 21.5q-19 34 -33 72t-16 81zM504 -556 q126 -92 277 -92q109 0 198 56l110 -64v-127h100v-140h-248l-2 152q-33 -9 -74.5 -15t-83.5 -6q-65 0 -125.5 13.5t-107.5 36.5h2l-46 17v169z" />
<glyph unicode="&#x1009;&#x1039;&#x100d;" horiz-adv-x="1268" d="M136 698q153 374 521 374q210 0 369 -158q71 -74 110.5 -166t42.5 -212q0 -238 -151 -391q-156 -156 -397 -155q-142 0 -272 82q-8 5 -23 13t-32 21v-787q8 -18 29 -32h74l4 -152h-157q-32 5 -49 10t-27.5 18.5t-20 36t-9.5 61.5v1077l136 60q42 -108 144 -179 q50 -37 109.5 -54t119.5 -17q71 0 139.5 26.5t121.5 79.5q114 116 113 289q0 142 -113 258q-116 116 -259 115q-271 0 -384 -268zM473 -216q19 30 34.5 51t30.5 35q44 39 92.5 58t110.5 19q56 0 106 -20.5t94 -56.5q41 -40 63.5 -90.5t22.5 -106.5q-1 -41 -13.5 -79 t-31.5 -73q-8 -12 -17 -21.5t-17 -16.5q-92 -79 -207 -79q-35 0 -64 2.5t-53 12.5v-27q52 -23 119 -23q100 0 184 58l102 -66v-127h94v-139h-231l-2 151q-30 -10 -69 -14.5t-78 -4.5q-60 0 -117.5 13.5t-100.5 34.5h2l-43 17v287l103 84q12 -31 25.5 -48.5t22.5 -27.5 q17 -16 45.5 -29t60.5 -13q59 0 102.5 39t43.5 89q0 51 -43 91.5t-103 40.5q-66 0 -106 -44q-15 -12 -27 -28.5t-25 -39.5z" />
<glyph unicode="&#x1015;&#x103c;&#x102f;&#x1036;" horiz-adv-x="1965" d="M144 -395v1959q0 306 267 421q61 28 202 28h411q344 0 455 -261q19 -85 19 -208v-270q0 -10 -9 -10h-140q-10 0 -11 10v265q0 245 -163 295q-95 25 -180 25h-377q-250 0 -314 -233q-5 -26 -5 -48v-1988q0 -210 242 -275q32 -5 63 -5h411q248 0 304 165q19 78 19 154v407 q144 169 155 174h5v-581q0 -246 -82 -319q-78 -91 -165 -121q-73 -38 -275 -38h-334q-316 0 -416 178q-82 90 -82 276zM427 553q0 144 99 299q50 76 114.5 132t140.5 93l39 -141q-92 -69 -147 -144.5t-76 -159.5q-5 -24 -6 -45t-1 -34q0 -131 79 -241q101 -155 309 -154 q133 0 249 114q115 116 114 252q0 128 -59 229q-47 91 -176 180l39 147q357 -228 357 -556q0 -194 -163 -364q-160 -160 -361 -160q-250 0 -398 152q-153 156 -153 401zM893 1405q0 87 60.5 143.5t143.5 56.5q84 0 144.5 -58t60.5 -142t-60.5 -143t-144.5 -59 q-89 0 -146.5 55.5t-57.5 146.5zM1018 1404q10 -83 80 -83q80 0 80 83q0 30 -26.5 52.5t-53.5 22.5q-70 0 -80 -75zM1639 -867v1947h155v-1795h128v-152h-283z" />
<glyph unicode="&#x1015;&#x103c;&#x102f;&#x1036;&#x1037;" horiz-adv-x="2257" d="M144 -395v1959q0 306 267 421q61 28 202 28h411q344 0 455 -261q19 -85 19 -208v-270q0 -10 -9 -10h-140q-10 0 -11 10v265q0 245 -163 295q-95 25 -180 25h-377q-250 0 -314 -233q-5 -26 -5 -48v-1988q0 -210 242 -275q32 -5 63 -5h411q248 0 304 165q19 78 19 154v407 q144 169 155 174h5v-581q0 -246 -82 -319q-78 -91 -165 -121q-73 -38 -275 -38h-334q-316 0 -416 178q-82 90 -82 276zM427 553q0 144 99 299q50 76 114.5 132t140.5 93l39 -141q-92 -69 -147 -144.5t-76 -159.5q-5 -24 -6 -45t-1 -34q0 -131 79 -241q101 -155 309 -154 q133 0 249 114q115 116 114 252q0 128 -59 229q-47 91 -176 180l39 147q357 -228 357 -556q0 -194 -163 -364q-160 -160 -361 -160q-250 0 -398 152q-153 156 -153 401zM893 1405q0 87 60.5 143.5t143.5 56.5q84 0 144.5 -58t60.5 -142t-60.5 -143t-144.5 -59 q-89 0 -146.5 55.5t-57.5 146.5zM1018 1404q10 -83 80 -83q80 0 80 83q0 30 -26.5 52.5t-53.5 22.5q-70 0 -80 -75zM1639 -867v1947h155v-1795h128v-152h-283zM1859 -342q0 87 60 143.5t143 56.5q84 0 144.5 -58t60.5 -142t-60.5 -143t-144.5 -59q-89 0 -146 55.5t-57 146.5 zM1983 -343q10 -83 80 -83q80 0 80 83q0 30 -26 52.5t-54 22.5q-70 0 -80 -75z" />
<glyph unicode="&#x103b;&#x103d;&#x103e;" horiz-adv-x="349" d="M-1543 -554.5q-31 109.5 30 206.5l122 -84l18 -7q-32 -37 -18.5 -82.5t45.5 -73.5q59 -31 98.5 -16.5t75.5 61.5l157 285l31 -245l-59 -101l-7 -12q-59 -97 -166.5 -123.5t-202.5 28.5q-93 54 -124 163.5zM-1047 -453q0 83 32 157.5t87 129t128 86.5t158 32q83 0 157 -32 t129 -86.5t86.5 -129t31.5 -157.5q0 -85 -31.5 -158t-86.5 -128t-129 -86.5t-157 -31.5q-85 0 -158 31.5t-128 86.5t-87 128t-32 158zM-903 -453q0 -110 75.5 -185.5t185.5 -75.5t185.5 76t75.5 185q0 110 -75.5 186t-185.5 76t-185.5 -76t-75.5 -186zM-327 -536l74 125 q176 -100 212 -129q54 -45 113 -92v1712h165v-1866l-155 -71z" />
<glyph unicode="&#xd;" horiz-adv-x="520" />
<glyph unicode=" "  horiz-adv-x="520" />
<glyph unicode="&#x09;" horiz-adv-x="520" />
<glyph unicode="&#xa0;" horiz-adv-x="520" />
<glyph unicode="!" horiz-adv-x="594" d="M159 108q0 54 39 94.5t101 40.5q53 0 92 -40.5t39 -94.5q0 -53 -39 -94t-92 -41q-62 0 -101 40.5t-39 94.5zM210 357v1139h173v-1139h-173z" />
<glyph unicode="&#x22;" horiz-adv-x="624" d="M35 1496h172l-22 -478h-128zM415 1496h178l-28 -478h-129z" />
<glyph unicode="#" horiz-adv-x="1456" d="M172 476v137h264q10 79 18.5 150.5t21.5 149.5h-243v134h266l69 455h134l-67 -455h294l67 455h137l-67 -455h218v-134h-237q-10 -76 -21 -148.5t-19 -151.5h223v-137h-245l-72 -476h-138l70 476h-298l-74 -476h-133l72 476h-240zM568 613h293q11 62 26 147t26 153h-300 q-10 -76 -22 -148.5t-23 -151.5z" />
<glyph unicode="$" horiz-adv-x="1120" d="M61 243l124 91q66 -89 149.5 -140t179.5 -65v577q-84 46 -129 69.5t-64 34.5q-165 116 -165 294q0 91 46 168t119 131q81 51 193 58v106h149v-113q188 -46 306 -213l-129 -97q-73 113 -177 140v-458q129 -70 209.5 -124t112.5 -97q38 -55 59.5 -116t21.5 -132 q0 -230 -226 -346q-30 -14 -78 -26t-99 -20v-310h-149v310q-99 11 -184 42t-147 85q-68 45 -122 151zM323 1109q0 -129 191 -215v400q-30 -4 -53 -11t-46 -15q-92 -51 -92 -159zM663 132q92 15 158 73q38 32 56.5 68t18.5 84q0 162 -233 289v-514z" />
<glyph unicode="%" horiz-adv-x="1569" d="M43 1144q0 202 182 315q41 18 80.5 27.5t84.5 9.5q43 0 122 -15q123 -25 271 -25q188 0 456 71h141l-1063 -1627h-163l944 1446q-78 -15 -160 -23.5t-176 -8.5h-44l-24 3q49 -78 49 -162q0 -152 -103 -261q-98 -99 -250 -99q-151 0 -253 101q-94 111 -94 248zM190 1150 q0 -87 61 -143.5t144 -56.5q78 0 136.5 56.5t58.5 143.5q0 78 -58.5 135.5t-136.5 57.5q-83 0 -144 -56.5t-61 -136.5zM824 307q0 154 99 253q54 53 114.5 76t136.5 23q155 0 252 -99q100 -99 101 -253q0 -148 -101 -248q-104 -105 -252 -105q-145 0 -251 105 q-98 99 -99 248zM974 307q0 -41 16.5 -75.5t43.5 -63t63 -44.5t77 -16q40 0 78 16t66 44.5t44 63t16 75.5q0 88 -60.5 144t-143.5 56q-81 0 -140.5 -56t-59.5 -144z" />
<glyph unicode="&#x26;" horiz-adv-x="1534" d="M167 312q0 71 32 144.5t89 143.5q61 74 224 202q-97 114 -140 193t-43 141t29.5 116t77.5 94q91 68 230 67q202 0 287 -137q43 -68 43 -146q0 -76 -57.5 -164t-186.5 -194l346 -354l38 30t34 28q28 23 53.5 45.5t47.5 40.5l118 -121q-43 -38 -83 -74t-78 -65l-8 -6 q16 -16 52.5 -53.5t95.5 -97.5q58 -59 92.5 -95.5t46.5 -49.5h-241l-179 183q-70 -51 -131.5 -88.5t-113.5 -64.5q-139 -70 -290 -70q-148 0 -266 94q-54 46 -86.5 112.5t-32.5 145.5zM348 314q0 -83 64 -131q65 -56 153 -56q59 0 149 29q53 26 120.5 64.5t131.5 84.5 l-346 366q-140 -109 -206 -195t-66 -162zM501 1130q0 -30 15 -53q23 -38 53.5 -86.5t73.5 -94.5q175 146 175 240q0 57 -51 84q-22 10 -50 17t-58 7q-70 0 -109 -33q-49 -22 -49 -81z" />
<glyph unicode="'" horiz-adv-x="398" d="M110 1496h178l-22 -478h-131z" />
<glyph unicode="(" horiz-adv-x="745" d="M248 493q0 288 50.5 546t154.5 488h190q-215 -453 -215 -1013q0 -525 169 -929h-185q-164 377 -164 908z" />
<glyph unicode=")" horiz-adv-x="745" d="M113 -395q208 422 208 992q0 520 -170 930h186q159 -396 159 -916q0 -565 -202 -1026h-170z" />
<glyph unicode="*" horiz-adv-x="861" d="M70 1026l256 110q-65 31 -129.5 58.5t-126.5 54.5l81 137l229 -161l-31 271h163l-33 -271q54 41 116 82.5t116 78.5l81 -137l-256 -116q59 -26 129 -56t127 -51l-81 -143l-232 156l33 -269h-163l31 272q-54 -39 -113.5 -79.5t-115.5 -79.5z" />
<glyph unicode="+" horiz-adv-x="1227" d="M104 651v167h426v418h170v-418h420v-167h-420v-423h-170v423h-426z" />
<glyph unicode="," horiz-adv-x="560" d="M108 -119l178 415l155 -75l-210 -391z" />
<glyph unicode="-" horiz-adv-x="667" d="M51 476v152h565v-152h-565z" />
<glyph unicode="." horiz-adv-x="560" d="M170 108q0 54 40.5 94.5t94.5 40.5q55 0 95.5 -40.5t40.5 -94.5q0 -53 -40.5 -94t-95.5 -41q-54 0 -94.5 40.5t-40.5 94.5z" />
<glyph unicode="/" horiz-adv-x="882" d="M51 -194l608 1690h183l-602 -1690h-189z" />
<glyph unicode="0" horiz-adv-x="1120" d="M27 729q0 140 17 253.5t48 191.5q70 155 185 238.5t277 83.5q160 0 264.5 -68t168 -177t89 -246.5t25.5 -275.5q0 -505 -266 -678q-124 -91 -281 -91q-162 0 -277 86t-185 240q-31 78 -48 191t-17 252zM199 729q0 -420 181 -544q89 -65 180 -64q223 0 309 243 q56 156 57 365q-1 415 -183 545q-95 61 -183 61q-220 0 -309 -245q-52 -110 -52 -361z" />
<glyph unicode="1" horiz-adv-x="1120" d="M352 0v156h155v1057l-147 -141v204l167 185h149v-1305h145v-156h-469z" />
<glyph unicode="2" horiz-adv-x="1120" d="M51 0v147l560 469q59 54 113 118.5t97 143.5q46 86 46 172q0 124 -87 201q-91 84 -203 84q-78 0 -133.5 -24t-101.5 -75q-78 -81 -89 -251h-167q3 221 142 369q135 142 354 142q199 0 322 -124q130 -125 130 -317q0 -61 -13.5 -119t-46.5 -118q-51 -91 -104.5 -165 t-124.5 -131l-424 -355h592v97h142v-264h-1004z" />
<glyph unicode="3" horiz-adv-x="1120" d="M61 420h172q76 -274 329 -275q132 0 236 80q101 82 101 211q0 169 -167 240q-89 41 -259 48v159q219 0 305 110q13 22 22.5 50.5t9.5 57.5q0 97 -78 150q-73 57 -178 58q-177 0 -266 -222h-184q46 178 163.5 280t286.5 102q259 0 383 -187q56 -87 56 -181 q0 -175 -167 -285q43 -22 81 -50.5t67 -65.5q100 -114 100 -254q0 -98 -40.5 -183t-109 -145.5t-163.5 -95.5t-204 -35q-414 0 -496 433z" />
<glyph unicode="4" horiz-adv-x="1120" d="M137 331v150l612 1015h150v-997h178v-168h-178v-331h-170v331h-592zM352 499h377v631q-94 -162 -185 -314.5t-192 -316.5z" />
<glyph unicode="5" horiz-adv-x="1120" d="M73 375h180q27 -159 154 -221q73 -27 127 -27q70 0 132.5 29t108.5 77q92 103 92 254q0 145 -90.5 228.5t-234.5 83.5q-227 0 -426 -90l145 752h646v-164h-517l-64 -355q108 22 251 22q204 0 345 -140q121 -124 120 -348q1 -306 -244 -446q-120 -70 -271 -70 q-89 0 -166.5 29.5t-138 84.5t-99.5 130.5t-50 170.5z" />
<glyph unicode="6" horiz-adv-x="1120" d="M127 420q0 165 55 327.5t155 310.5q210 305 530 444v-162q-113 -73 -193.5 -135.5t-134.5 -122.5q-46 -48 -85 -110t-71 -130q40 23 96.5 32t133.5 9q173 0 306 -151q126 -121 125 -312q0 -269 -231 -396q-113 -63 -234 -64q-261 0 -394 228q-58 111 -58 232zM302 420 q0 -62 23 -114.5t60.5 -90t89.5 -60.5t112 -23q56 0 109 23t90.5 60.5t60 89.5t22.5 115q0 116 -83 200q-85 86 -199 86q-116 0 -202 -86q-83 -84 -83 -200z" />
<glyph unicode="7" horiz-adv-x="1120" d="M137 1297v164h945l-586 -1461h-179l499 1297h-679z" />
<glyph unicode="8" horiz-adv-x="1120" d="M61 415q0 121 66 225q63 92 187 173q-20 22 -40.5 51.5t-42.5 66.5q-22 43 -35 89t-13 92q0 220 183 331q89 53 186 53q212 0 315 -202q46 -86 46 -185t-37.5 -172t-92.5 -116q78 -51 133.5 -94.5t82.5 -80.5q58 -92 59 -220q0 -89 -26 -164.5t-82 -140.5 q-143 -161 -390 -161q-211 0 -347 121q-152 126 -152 334zM233 410q0 -167 152 -246q88 -35 177 -35q138 0 233 78q96 92 96 216t-99 212q-100 76 -219 76q-137 0 -236 -80q-103 -95 -104 -221zM337 1112q0 -94 66 -170q62 -70 149 -70q124 0 185 127q27 61 27 113 q0 96 -62 157t-152 61q-89 0 -151 -64.5t-62 -153.5z" />
<glyph unicode="9" horiz-adv-x="1120" d="M108 1055q0 270 232 399q110 58 233 58q259 0 385 -222q65 -112 65 -232q0 -334 -207 -638q-208 -296 -528 -442v149l6 10q108 70 187 132t132 123q41 46 81.5 111t75.5 135q-43 -25 -100 -34t-134 -9q-164 0 -305 148q-124 132 -123 312zM283 1055q0 -113 81 -202 q43 -40 93 -61.5t113 -21.5q116 0 197 83q84 86 84 202q0 122 -84 201q-86 87 -197 87q-121 0 -206 -87q-81 -83 -81 -201z" />
<glyph unicode=":" horiz-adv-x="560" d="M170 108q0 54 40.5 94.5t94.5 40.5q55 0 95.5 -40.5t40.5 -94.5q0 -53 -40.5 -94t-95.5 -41q-54 0 -94.5 40.5t-40.5 94.5zM170 980q0 62 40.5 99.5t94.5 37.5q55 0 95.5 -37.5t40.5 -99.5q0 -54 -40.5 -93t-95.5 -39q-54 0 -94.5 39t-40.5 93z" />
<glyph unicode=";" horiz-adv-x="560" d="M108 -119l178 415l155 -75l-210 -391zM170 980q0 62 40.5 99.5t96.5 37.5q53 0 93.5 -37.5t40.5 -99.5q0 -54 -40.5 -93t-93.5 -39q-56 0 -96.5 39t-40.5 93z" />
<glyph unicode="&#x3c;" horiz-adv-x="1227" d="M94 654v153l1036 469v-175l-796 -372q200 -91 400 -181t396 -182v-181z" />
<glyph unicode="=" horiz-adv-x="1227" d="M104 436v161h1016v-161h-1016zM104 864v162h1016v-162h-1016z" />
<glyph unicode="&#x3e;" horiz-adv-x="1227" d="M94 185v181l800 363q-200 92 -401.5 186.5t-398.5 185.5v175l1036 -469v-153z" />
<glyph unicode="?" horiz-adv-x="1198" d="M159 1042q0 212 114.5 333t323.5 121q178 0 294 -83q132 -99 132 -261q0 -153 -127 -248q-32 -24 -86.5 -47.5t-126.5 -54.5q-83 -35 -122 -52.5t-45 -20.5q-93 -53 -93 -124q0 -63 58 -96q54 -36 124 -36q181 0 200 205h167q-6 -169 -101.5 -271t-265.5 -102 q-139 0 -245 80q-113 84 -112 220q0 130 100 213q29 22 73.5 42.5t105.5 43.5q46 18 79.5 32t61.5 28q30 13 47 20t22 9q114 68 114 157t-81 137q-65 48 -170 48q-134 0 -217 -96q-54 -66 -57 -197h-167zM466 108q0 54 38 94.5t93 40.5q62 0 97 -40.5t35 -94.5 q0 -53 -35 -94t-97 -41q-55 0 -93 40.5t-38 94.5z" />
<glyph unicode="@" horiz-adv-x="1755" d="M132 745v25q0 153 62 290.5t167 241.5t248 164.5t304 60.5q273 0 487 -173q226 -190 226 -468q1 -362 -323 -534q-121 -53 -191 -53q-113 0 -129 84q-81 -81 -203 -81q-150 0 -250 116q-86 98 -86 256q0 194 118 330q121 140 310 140q156 0 248 -116q5 27 13.5 57 t13.5 54h132l-116 -658q-3 -12 -4 -20t-1 -15q0 -32 32 -31q35 0 78 20t84 54q37 35 68 75.5t53 78.5q49 92 49 226q0 246 -190 402q-182 144 -428 144q-395 0 -581 -328q-86 -151 -86 -332v-15q0 -132 52.5 -250t143.5 -207t216.5 -141.5t269.5 -52.5q260 0 492 232h145 q-73 -89 -140 -155t-125 -99q-159 -93 -365 -94q-217 0 -399 100q-187 102 -291 278t-104 394zM611 689q0 -104 57 -170q56 -73 161 -73q136 0 199 154q44 94 44 207q0 87 -50 149t-136 62q-122 0 -203 -103q-35 -46 -53.5 -103t-18.5 -123z" />
<glyph unicode="A" horiz-adv-x="1496" d="M35 0l689 1461h59l681 -1461h-190l-224 471h-600l-222 -471h-193zM530 638h444q-58 124 -109.5 230t-109.5 236z" />
<glyph unicode="B" horiz-adv-x="1163" d="M170 0v1461h301q309 0 423 -171q48 -89 48 -194q0 -200 -159 -294q86 -35 148 -90t97 -122q33 -74 33 -164q0 -198 -146 -318q-132 -108 -333 -108h-412zM342 170h165q252 0 333 118q22 33 32.5 65t10.5 70q-1 194 -224 248q-32 10 -95 14t-154 4h-68v-519zM342 861h68 q118 0 200 29t119 82q14 25 24.5 59.5t10.5 64.5q0 198 -268 198h-3h-151v-433z" />
<glyph unicode="C" horiz-adv-x="1644" d="M104 740q0 332 236 547q225 209 556 209q418 0 646 -317l-136 -102q-195 251 -510 251q-164 0 -303 -79q-152 -81 -228.5 -217t-76.5 -308q0 -255 175 -425q177 -170 441 -170q291 0 502 243l136 -106q-239 -306 -646 -306q-380 0 -605 258q-186 210 -187 522z" />
<glyph unicode="D" horiz-adv-x="1510" d="M54 1284v175h470q294 0 432 -46q113 -38 196.5 -109t141.5 -165q114 -182 114 -425q0 -207 -83 -365q-46 -83 -113.5 -152.5t-148.5 -115.5q-150 -81 -420 -81h-570v36t2 45v11q0 12 -1 28.5t-4 35.5h97v1128h-113zM334 162h153q293 0 407 40q83 30 149 78.5t109 111.5 q78 135 78 322q0 200 -86 333q-102 151 -283 207q-129 40 -438 40h-89v-1132z" />
<glyph unicode="E" horiz-adv-x="1089" d="M140 0v1461h850v-171h-679v-445h481v-169h-481v-506h674v-170h-845z" />
<glyph unicode="F" horiz-adv-x="983" d="M142 0v1461h753v-171h-573v-445h376v-169h-376v-676h-180z" />
<glyph unicode="G" horiz-adv-x="1851" d="M110 729v14q0 156 61.5 293.5t168 239.5t249.5 161t305 59h16q380 0 683 -288l-137 -126q-248 246 -537 246q-81 0 -162 -20.5t-152 -58.5q-153 -83 -233.5 -223t-80.5 -294q0 -81 24.5 -156t67.5 -143.5t101 -125t121 -97.5q73 -38 158 -59.5t174 -21.5q215 0 357 116 q78 57 122.5 132.5t61.5 169.5h-555v170h845v-132q0 -25 -56 -25h-15q-6 0 -8.5 1t-8.5 1t-7.5 -1t-3.5 -1h-10q-16 -122 -62.5 -219.5t-127.5 -178.5q-199 -202 -535 -202q-400 0 -638 283q-89 102 -137.5 226t-48.5 260z" />
<glyph unicode="H" horiz-adv-x="1386" d="M164 0v1461h181v-621h694v621h172v-1461h-172v671h-694v-671h-181z" />
<glyph unicode="I" horiz-adv-x="460" d="M140 0v1461h174v-1461h-174z" />
<glyph unicode="J" horiz-adv-x="976" d="M75 124v218q79 -74 227 -164q47 -23 85.5 -33t65.5 -13q118 0 163 129q22 65 22 223v807l-124 6v164h399v-171h-103v-814q0 -185 -18 -251q-28 -131 -141 -209q-89 -56 -198 -56q-92 0 -183.5 41.5t-194.5 122.5z" />
<glyph unicode="K" horiz-adv-x="1219" d="M164 0v1461h181v-570l568 570h220l-705 -712q185 -186 379 -375t380 -374h-218l-624 595v-595h-181z" />
<glyph unicode="L" horiz-adv-x="1054" d="M49 1297v162h293v-1303h577v118h139v-274h-1007v156h113v1141h-115z" />
<glyph unicode="M" horiz-adv-x="1719" d="M175 -8v1489h167l525 -767l519 767h170v-1489h-173v1190l-489 -721h-59l-487 721v-1190h-173z" />
<glyph unicode="N" horiz-adv-x="1461" d="M162 0v1461h169l813 -1132v1132h173v-1461h-154l-826 1168v-1168h-175z" />
<glyph unicode="O" horiz-adv-x="1758" d="M108 724v25q0 154 60 289.5t162.5 237.5t240.5 161t288 59h13q329 0 552 -217q223 -218 224 -550q0 -326 -222 -546q-222 -223 -540 -223q-334 0 -555 218q-223 223 -223 546zM288 724q0 -243 170 -422q177 -170 420 -170h13q119 0 225 46.5t185 128t127 190t48 232.5 q0 356 -302 520q-134 79 -296 79h-14q-116 0 -219 -49t-182.5 -131t-127 -191t-47.5 -233z" />
<glyph unicode="P" horiz-adv-x="1201" d="M162 0v1464h435q186 0 322 -139q142 -143 142 -332q0 -196 -138 -334q-139 -140 -336 -140h-245v-519h-180zM342 671h231q127 0 222 91q93 94 93 218q0 127 -96 215q-46 44 -100 69.5t-119 25.5h-231v-619z" />
<glyph unicode="Q" horiz-adv-x="1766" d="M110 724v25q0 151 60.5 286t163 237.5t237.5 163t285 60.5h22q327 0 548 -217q224 -218 225 -550q0 -169 -56 -302t-141 -220q53 -35 112.5 -72.5t113.5 -67.5l-100 -116l-261 153q-239 -144 -436 -144q-329 0 -549 218q-224 223 -224 546zM291 724q0 -245 172 -419 q165 -173 415 -173q154 0 285 67q-76 46 -155 92t-152 92l110 126l331 -207q178 177 179 427q0 353 -299 520q-142 79 -299 79h-14q-113 0 -216.5 -49t-183 -131t-126.5 -191t-47 -233z" />
<glyph unicode="R" horiz-adv-x="1213" d="M164 0v1464h433q183 0 325 -139q139 -143 139 -332q0 -161 -96 -286t-244 -171l412 -536h-207l-404 519h-177v-519h-181zM345 671h228q127 0 222 91q93 94 93 218q0 127 -96 215q-43 44 -98.5 69.5t-120.5 25.5h-228v-619z" />
<glyph unicode="S" horiz-adv-x="1048" d="M-18 286l166 89q146 -243 337 -243q175 0 259 124q13 22 22.5 47.5t9.5 53.5q0 76 -54 136q-83 100 -280 228q-175 114 -239 201q-73 104 -73 230q0 202 180 302q76 42 182 42q212 0 400 -252l-142 -105q-145 183 -262 183q-76 0 -129 -47t-53 -117q0 -89 88 -178 q13 -14 68.5 -50t141.5 -95q178 -121 277.5 -241.5t99.5 -233.5q0 -179 -154 -293q-140 -107 -325 -107q-315 0 -520 326z" />
<glyph unicode="T" horiz-adv-x="1372" d="M75 1294v167h1209v-167h-517v-1294h-177v1294h-515z" />
<glyph unicode="U" horiz-adv-x="1286" d="M172 582v879h173v-879q0 -145 7 -187q23 -167 164 -228q38 -19 76.5 -28.5t78.5 -9.5q139 0 233 108q41 54 60 123q16 51 16 222v879h172v-879q0 -180 -29 -294q-46 -142 -162 -235t-283 -93q-83 0 -155.5 18.5t-134.5 59.5q-71 40 -117.5 102t-71.5 138 q-13 45 -20 121.5t-7 182.5z" />
<glyph unicode="V" horiz-adv-x="1421" d="M49 1461h191l466 -1089q116 268 235.5 544.5t237.5 544.5h189l-613 -1461h-101z" />
<glyph unicode="W" horiz-adv-x="1944" d="M89 1461h177l307 -1095l372 1095h56l367 -1069l309 1069h184l-426 -1461h-135l-328 999q-81 -254 -167.5 -504t-166.5 -495h-134z" />
<glyph unicode="X" horiz-adv-x="1863" d="M13 8l770 749q-178 169 -362 351t-356 351h252l593 -578l597 578h248l-716 -702l762 -749h-251l-640 623l-646 -623h-251z" />
<glyph unicode="Y" horiz-adv-x="1434" d="M38 1461h205l459 -578q122 162 233.5 304.5t216.5 273.5h205l-565 -767v-694h-176v694q-140 186 -289 384t-289 383z" />
<glyph unicode="Z" horiz-adv-x="1291" d="M38 0l838 1294h-763v167h1091l-867 -1291h826v-170h-1125z" />
<glyph unicode="[" horiz-adv-x="708" d="M274 -390v1886h357v-166h-190v-1555h190v-165h-357z" />
<glyph unicode="\" horiz-adv-x="1227" d="M46 1496h182l949 -1690h-184z" />
<glyph unicode="]" horiz-adv-x="708" d="M78 -221h188v1556h-188v161h355v-1886h-355v169z" />
<glyph unicode="^" horiz-adv-x="1359" d="M102 355l503 1106h144l507 -1106h-160l-418 899l-417 -899h-159z" />
<glyph unicode="_" horiz-adv-x="1009" d="M-19 -121h1050v-132h-1050v132z" />
<glyph unicode="`" horiz-adv-x="761" d="M78 1591h256l226 -335h-165z" />
<glyph unicode="a" horiz-adv-x="1386" d="M97 544q0 240 164 406q167 167 396 167q144 0 247 -62q102 -51 170 -118v150h159v-928h135v-159h-294v140q-86 -79 -167 -113q-54 -27 -116 -40.5t-134 -13.5q-234 0 -398 170q-162 169 -162 401zM264 542q0 -240 207 -361q94 -54 197 -54q113 0 208 54q201 105 201 351 q0 182 -115 306q-114 118 -294 118q-83 0 -157.5 -32.5t-128 -89t-86 -131.5t-32.5 -161z" />
<glyph unicode="b" horiz-adv-x="1386" d="M159 0v1496h162v-543q156 164 411 164q237 0 401 -172q161 -166 161 -400q0 -232 -167 -408q-163 -164 -400 -164q-122 0 -243 54q-51 28 -91.5 57t-71.5 61v-145h-162zM312 552q0 -83 30 -159t83.5 -133.5t128 -92.5t163.5 -35q82 0 156.5 32.5t131 87.5t88.5 130.5 t32 163.5q0 243 -202 361q-106 58 -205 59q-83 0 -157 -32t-129 -87t-87.5 -131t-32.5 -164z" />
<glyph unicode="c" horiz-adv-x="1308" d="M97 534q0 121 45.5 227t126 185.5t188.5 125t232 45.5h17q223 0 379 -116q65 -48 126 -153l-126 -84q-159 194 -386 194h-2q-181 0 -312 -116q-121 -121 -121 -298q0 -242 209 -363q114 -54 229 -54q220 0 383 190l126 -89q-175 -255 -517 -255q-248 0 -416 154 q-180 164 -181 407z" />
<glyph unicode="d" horiz-adv-x="1386" d="M102 544q0 114 43 217t117.5 182.5t177 126.5t223.5 47q132 0 232.5 -44.5t178.5 -146.5v414h-118v156h277v-1340h127v-156h-286v154q-172 -180 -415 -181q-113 0 -213.5 44t-178 122.5t-121.5 182.5t-44 222zM264 542q0 -240 209 -361q95 -54 201 -54q113 0 207 54 q199 112 199 351q0 182 -116 306q-113 118 -290 118q-236 0 -351 -204q-58 -109 -59 -210z" />
<glyph unicode="e" horiz-adv-x="1313" d="M94 539q0 110 42 213.5t117.5 184.5t178 130.5t219.5 49.5q278 0 450 -213q119 -150 119 -385h-956q7 -162 111 -271q104 -121 273 -121q162 0 278 98q66 54 121 160l138 -76q-113 -223 -304 -301q-86 -35 -218 -35q-243 0 -410 159q-78 86 -118.5 186t-40.5 221z M283 666h751q-50 182 -201 253q-46 18 -86.5 27.5t-87.5 9.5q-151 0 -264 -97q-70 -57 -112 -193z" />
<glyph unicode="f" horiz-adv-x="736" d="M63 942v145h184v154q0 197 98 254q55 32 126 32q70 0 174 -32v-167q-86 40 -144 40q-69 0 -78 -43q-11 -19 -11 -103v-135h271v-145h-271v-942h-165v942h-184z" />
<glyph unicode="g" horiz-adv-x="1564" d="M291 450q0 162 73.5 284t212.5 203q67 37 138 59t141 22q116 0 215 -44.5t189 -140.5v185h170v-1031q0 -185 -73 -294q-43 -81 -132 -137q-110 -75 -242 -75q-254 0 -406 236h190q89 -81 191 -81h19q167 0 256 170q11 35 19 97t8 158v12q-83 -94 -184.5 -135.5 t-224.5 -41.5q-116 0 -218.5 45.5t-177.5 122t-119.5 176.5t-44.5 210zM458 441q0 -86 30.5 -157t85 -122.5t130.5 -79.5t165 -28t162 28t126.5 79.5t83.5 125t30 163.5q0 239 -197 352q-94 54 -202 54q-83 0 -158.5 -32t-132.5 -87.5t-90 -131t-33 -164.5z" />
<glyph unicode="h" horiz-adv-x="1232" d="M145 0v1496h167v-543q62 67 157 108q116 56 228 56q129 0 219.5 -60.5t141.5 -173.5q43 -108 43 -326v-557h-167v519q0 89 -4 148.5t-8 94.5q-49 202 -256 202q-116 0 -209 -79.5t-126 -198.5q-10 -35 -14.5 -106t-4.5 -173v-407h-167z" />
<glyph unicode="i" horiz-adv-x="406" d="M113 1303v204h175v-204h-175zM116 0v1087h172v-1087h-172z" />
<glyph unicode="j" horiz-adv-x="409" d="M-73 -218q70 -43 108 -43q54 0 75 37q14 28 14 120v1191h172v-1234q0 -268 -196 -268q-69 0 -173 32v165zM116 1303v204h172v-204h-172z" />
<glyph unicode="k" horiz-adv-x="1098" d="M143 0v1496h169v-818l471 409h248l-527 -441q136 -157 277 -323.5t272 -322.5h-229l-447 522l-65 -41v-481h-169z" />
<glyph unicode="l" horiz-adv-x="587" d="M77 0v159h119v1184h-108v153h278v-1337h132v-159h-421z" />
<glyph unicode="m" horiz-adv-x="1900" d="M40 937v180h274v-161q46 53 122 97q103 64 223 64h4q167 0 274 -116q43 -51 67 -120q71 126 163.5 181t221.5 55q122 0 206.5 -58t129.5 -165q18 -46 29.5 -121.5t11.5 -177.5v-595h-167v595q0 154 -26 210q-46 126 -210 126q-100 0 -173 -53.5t-116 -150.5 q-38 -105 -38 -299v-428h-164v557q0 186 -24 259q-15 40 -76 83q-27 14 -61.5 23t-72.5 9q-94 0 -171 -56.5t-115 -142.5q-38 -99 -38 -269v-463h-167v937h-107z" />
<glyph unicode="n" horiz-adv-x="1232" d="M35 937v180h274v-191q167 191 385 191q130 0 221.5 -60.5t139.5 -173.5q23 -48 36 -132.5t13 -193.5v-557h-170v519q0 74 -4 124.5t-8 85.5q-54 202 -256 202q-122 0 -212 -78t-125 -194q-11 -38 -15.5 -102t-4.5 -150v-407h-166v937h-108z" />
<glyph unicode="o" horiz-adv-x="1301" d="M80 542q0 228 148 392q169 183 420 183q256 0 420 -180q148 -165 149 -395q0 -116 -44 -218.5t-120 -180.5t-180 -124t-225 -46q-116 0 -218 43t-180 120t-124 180.5t-46 225.5zM250 534q0 -231 200 -351q91 -51 198 -51q237 0 348 194q53 102 54 208q0 172 -119 299 q-113 120 -283 120q-167 0 -282 -120q-116 -124 -116 -299z" />
<glyph unicode="p" horiz-adv-x="1386" d="M27 -233h120q0 293 -1 578.5t-1 580.5h-110v161h279v-161q159 191 404 191q236 0 402 -164q164 -164 164 -409q0 -231 -161 -401q-170 -170 -396 -170q-248 0 -413 178v-384h93v-157h-380v157zM305 534q0 -240 202 -353q90 -54 202 -54q233 0 352 207q54 99 54 208 q0 247 -200 360q-99 54 -206 54q-170 0 -289 -118q-115 -124 -115 -304z" />
<glyph unicode="q" horiz-adv-x="1417" d="M94 544q0 240 165 406q161 167 400 167q248 0 407 -191v161h277v-161h-110v-1159h113v-157h-372v157h92v387q-83 -87 -188.5 -134t-226.5 -47q-233 0 -395 172q-162 169 -162 399zM256 542q0 -237 213 -361q93 -54 194 -54q118 0 213 54q198 112 198 351q0 182 -116 306 q-118 118 -292 118q-81 0 -155.5 -34t-131 -90.5t-90 -131.5t-33.5 -158z" />
<glyph unicode="r" horiz-adv-x="713" d="M89 0v1087h172v-153q115 153 259 153h2q46 0 132 -45v-143l-19 -11q-42 31 -78 31q-22 0 -53 -15q-181 -72 -221 -241q-22 -92 -22 -291v-372h-172z" />
<glyph unicode="s" horiz-adv-x="824" d="M28 181l105 113q147 -162 253 -162q71 0 127 44.5t56 114.5t-81 132q-30 32 -123 78q-256 130 -256 323q0 129 85 211t222 82q154 0 314 -161l-106 -105q-109 99 -208 99q-54 0 -100 -39t-46 -90q0 -49 37 -94q26 -33 152 -99q130 -71 199.5 -153.5t69.5 -175.5 q0 -74 -26.5 -132.5t-72.5 -101.5t-108 -67.5t-132 -24.5q-91 0 -180 40.5t-181 167.5z" />
<glyph unicode="t" horiz-adv-x="791" d="M29 942v145h272v397h170v-397h263v-145h-263v-648q0 -51 15 -116q14 -14 34.5 -24.5t35.5 -10.5q31 0 112 38v-178q-89 -35 -167 -35q-95 0 -147.5 63t-52.5 209v702h-272z" />
<glyph unicode="u" horiz-adv-x="1257" d="M129 565v522h170v-505q0 -92 4 -155t14 -96q57 -199 288 -199q224 0 294 189q23 75 23 292v474h163v-931h126v-156h-289l9 75q-40 -48 -133 -75q-41 -13 -90 -20t-103 -7q-311 0 -424 248q-28 53 -40 139t-12 205z" />
<glyph unicode="v" horiz-adv-x="1147" d="M45 1087h178l344 -747q83 184 169.5 374t169.5 373h186l-487 -1127h-73z" />
<glyph unicode="w" horiz-adv-x="1682" d="M22 1087h177l285 -742q78 185 163 373.5t163 368.5h51l326 -742q73 185 147 371t147 371h175l-412 -1087h-81l-325 732l-329 -732h-79z" />
<glyph unicode="x" horiz-adv-x="1247" d="M-24 0l497 565q-108 124 -224.5 258.5t-221.5 258.5h232l334 -385q78 94 166.5 195t166.5 190h232l-449 -517q124 -137 254 -282.5t250 -282.5h-236l-384 436l-383 -436h-234z" />
<glyph unicode="y" horiz-adv-x="1126" d="M29 1087h180l352 -761q84 188 171.5 382t171.5 379h182l-664 -1525h-180l229 532z" />
<glyph unicode="z" horiz-adv-x="1219" d="M58 -3l727 934h-641v178h1016l-715 -939h677v-173h-1064z" />
<glyph unicode="{" horiz-adv-x="708" d="M65 415v190q119 3 172 89q11 24 20 58t9 81v217q0 62 6 124t14 97q40 140 169 185q22 3 54.5 4t80.5 1h67v-185h-41q-104 0 -137 -40q-22 -30 -21 -140q0 -113 -1.5 -185.5t-3.5 -105.5q-11 -99 -58 -172t-127 -119q54 -30 98 -74.5t64 -105.5q14 -43 21 -110.5t7 -153.5 q0 -91 1.5 -145t3.5 -76q8 -81 44 -92q17 -10 55 -13t95 -3v-182h-67q-114 0 -149 15q-147 57 -167 238q-3 27 -4.5 88.5t-1.5 160.5q0 76 -3.5 133t-16.5 94q-35 122 -183 127z" />
<glyph unicode="|" horiz-adv-x="1359" d="M593 -390v1886h174v-1886h-174z" />
<glyph unicode="}" horiz-adv-x="708" d="M51 -259h49q104 0 131 52q22 29 22 134v162v84.5t6 54.5q29 208 174 286q-61 33 -97.5 75t-57.5 94q-13 41 -19 108.5t-6 158.5q0 210 -8 251q-19 55 -55 73q-9 0 -33.5 1t-56.5 1h-49v185h68q105 0 149 -15q69 -28 110.5 -88.5t57.5 -146.5q5 -18 5 -48v-70v-129 q0 -73 6 -132.5t16 -104.5q36 -116 183 -122v-190q-124 -3 -175 -92q-10 -24 -18.5 -58t-8.5 -77v-220q0 -73 -3 -128.5t-15 -92.5q-49 -142 -175 -175q-54 -13 -132 -13h-68v182z" />
<glyph unicode="~" horiz-adv-x="1227" d="M102 603v195q191 101 264 101q103 0 269 -81q170 -81 232 -81q72 0 253 116v-194q-183 -94 -253 -94q-100 0 -270 75q-177 78 -222 78q-84 0 -273 -115z" />
<glyph unicode="&#xa1;" horiz-adv-x="770" d="M261 1300q0 53 36 89.5t89 36.5q51 0 87 -37.5t36 -88.5t-36 -88t-87 -37q-53 0 -89 37t-36 88zM263 0l64 770v234h116v-234l63 -770h-243z" />
<glyph unicode="&#xa2;" horiz-adv-x="1219" d="M143 498q0 227 120 366.5t324 154.5v252h96v-252q87 -6 165 -27t152 -57v-255h-98q-18 114 -72 175t-147 74v-863q84 12 137.5 72t75.5 162h137q-33 -144 -121 -226.5t-229 -97.5v-255h-96v255q-204 14 -324 156.5t-120 365.5zM347 498q0 -201 60 -309t180 -123v863 q-120 -15 -180 -123t-60 -308z" />
<glyph unicode="&#xa3;" horiz-adv-x="1219" d="M129 0v99h179v557h-179v99h179v275q0 193 108 293t315 100q78 0 154.5 -12t144.5 -33v-230h-95q-12 89 -64.5 135.5t-142.5 46.5q-117 0 -173.5 -71.5t-56.5 -228.5v-275h383v-99h-383v-542h446v213h108v-327h-923z" />
<glyph unicode="&#xa4;" horiz-adv-x="988" d="M27 246l138 137q-99 115 -99 273q0 153 99 276l-138 135l54 53l141 -134q50 42 125 69q81 27 151 26q69 0 137 -23q72 -25 132 -72l138 134l57 -53l-141 -135q101 -129 102 -273q0 -147 -102 -276l141 -137l-57 -55l-138 139q-66 -51 -130.5 -75.5t-130.5 -24.5 q-81 0 -164 28q-81 30 -120 72l-141 -139zM143 653q0 -141 106 -242q101 -102 246 -103q143 0 245 103q104 101 105 245q0 84 -48 170q-48 87 -129 132q-83 46 -173 46q-144 0 -246 -102q-105 -102 -106 -249z" />
<glyph unicode="&#xa5;" horiz-adv-x="1219" d="M-15 1297v102h519v-102h-165l320 -566l318 566h-156v102h405v-102h-132l-268 -464h255v-99h-311l-65 -113v-81h376v-97h-376v-344h176v-99h-542v99h176v344h-377v97h377v62l-75 132h-302v99h245l-269 464h-129z" />
<glyph unicode="&#xa6;" horiz-adv-x="647" d="M249 -327v708h149v-708h-149zM249 632v707h149v-707h-149z" />
<glyph unicode="&#xa7;" horiz-adv-x="958" d="M87 674q0 87 55.5 150t157.5 89q-78 48 -116 106.5t-38 133.5q0 123 95 196.5t251 73.5q72 0 143 -12t141 -39v-191h-87q0 69 -49.5 107.5t-130.5 38.5q-95 0 -149.5 -45t-54.5 -123q0 -92 232 -218q27 -18 35 -21q182 -101 240.5 -172t58.5 -163q0 -90 -47.5 -150 t-155.5 -99q73 -45 107 -103.5t34 -145.5q0 -123 -96 -196t-257 -73q-84 0 -159 13t-147 37v198h87q0 -75 51 -114t152 -39q96 0 153 46.5t57 124.5q0 104 -213 224q-20 12 -29 19q-204 114 -262.5 184.5t-58.5 162.5zM240 707q0 -122 339 -315l32 -17q51 36 79.5 81 t28.5 98q0 72 -66.5 133t-299.5 187q-62 -42 -87.5 -80.5t-25.5 -86.5z" />
<glyph unicode="&#xa8;" horiz-adv-x="958" d="M188 1360q0 42 32 75t77 33t78 -33t33 -75q0 -48 -32 -79.5t-79 -31.5q-48 0 -78.5 31.5t-30.5 79.5zM551 1360q0 42 33.5 75t78.5 33q44 0 75.5 -33t31.5 -75q0 -48 -30 -79.5t-77 -31.5q-48 0 -80 31.5t-32 79.5z" />
<glyph unicode="&#xa9;" horiz-adv-x="1916" d="M263 695q0 143 51.5 266t152.5 226q102 98 226.5 151t264.5 53q141 0 266 -53t226 -151q102 -102 153 -225t51 -267t-51 -267t-153 -224q-101 -99 -225.5 -151.5t-266.5 -52.5q-140 0 -264.5 52t-226.5 152q-101 101 -152.5 224t-51.5 267zM359 695q0 -123 45.5 -229.5 t132.5 -193.5q89 -90 194 -133t227 -43q123 0 229.5 43t193.5 133q90 87 133.5 193.5t43.5 229.5t-45 229t-132 193q-87 90 -193.5 133.5t-229.5 43.5t-227.5 -43.5t-193.5 -133.5q-87 -87 -132.5 -193t-45.5 -229zM579 695q0 185 104 299.5t279 114.5q75 0 147 -18.5 t153 -54.5v-197h-78q-15 102 -69 149.5t-153 47.5q-111 0 -168 -85t-57 -256t57 -256.5t168 -85.5q90 0 143.5 45t72.5 139h110q-24 -123 -109 -189t-217 -66q-176 0 -279.5 112t-103.5 301z" />
<glyph unicode="&#xaa;" horiz-adv-x="910" d="M117 916q0 109 90 167.5t249 58.5h191v45q0 78 -55 121t-152 43q-81 0 -129 -33t-62 -95h-69v146q69 27 137.5 40.5t128.5 13.5q165 0 252 -72t87 -209v-357h75v-78h-213v75q-48 -48 -106.5 -70.5t-139.5 -22.5q-132 0 -208 61.5t-76 165.5zM156 501v98h653v-98h-653z M269 923q0 -75 48.5 -114t138.5 -39q87 0 139 45t52 120v137h-177q-98 0 -149.5 -37.5t-51.5 -111.5z" />
<glyph unicode="&#xab;" horiz-adv-x="1174" d="M146 524v75l441 392v-107l-279 -321l279 -323v-108zM554 524v75l440 392v-107l-278 -321l278 -323v-108z" />
<glyph unicode="&#xac;" horiz-adv-x="1116" d="M94 688v139h936v-529l-32 -1h-106v391h-798z" />
<glyph unicode="&#xad;" horiz-adv-x="667" d="M51 476v152h565v-152h-565z" />
<glyph unicode="&#xae;" horiz-adv-x="1916" d="M263 695q0 143 51.5 266t152.5 226q102 98 226.5 151t264.5 53q141 0 266 -53t226 -151q102 -102 153 -225t51 -267t-51 -267t-153 -224q-101 -99 -225.5 -151.5t-266.5 -52.5q-140 0 -264.5 52t-226.5 152q-101 101 -152.5 224t-51.5 267zM359 695q0 -123 45.5 -229.5 t132.5 -193.5q89 -90 194 -133t227 -43q123 0 229.5 43t193.5 133q90 87 133.5 193.5t43.5 229.5t-45 229t-132 193q-87 90 -193.5 133.5t-229.5 43.5t-227.5 -43.5t-193.5 -133.5q-87 -87 -132.5 -193t-45.5 -229zM621 330v62h77v630h-77v62h389q117 0 178 -52t61 -154 q0 -78 -45 -120t-137 -51q42 -14 68.5 -38.5t45.5 -60.5l110 -216h69v-62h-176l-123 236q-33 66 -61.5 88.5t-76.5 22.5h-84v-285h77v-62h-295zM839 740h116q78 0 117 36t39 105t-40.5 105t-115.5 36h-116v-282z" />
<glyph unicode="&#xaf;" horiz-adv-x="1131" d="M0 1519v149h1095v-149h-1095z" />
<glyph unicode="&#xb0;" horiz-adv-x="726" d="M65 1268q0 130 92 221.5t221 91.5q130 0 221 -92t91 -221q0 -128 -92.5 -221t-220.5 -93q-132 0 -222 92t-90 222zM173 1264q0 -87 61.5 -147t146.5 -60q87 0 147.5 60t60.5 147t-61 148t-147 61q-84 0 -146 -61t-62 -148z" />
<glyph unicode="&#xb1;" horiz-adv-x="1295" d="M102 44v150h1095v-150h-1095zM102 802v149h1095v-149h-1095zM574 330v1094h151v-1094h-151z" />
<glyph unicode="&#xb2;" horiz-adv-x="770" d="M84 626v69l266 240q81 69 116 127t35 119q0 81 -45 127t-123 46q-75 0 -118.5 -36t-55.5 -105h-66v147q62 33 127 48t130 15q129 0 210 -61.5t81 -160.5q0 -114 -182 -278l-19 -16l-221 -200h360v102h68v-183h-563z" />
<glyph unicode="&#xb3;" horiz-adv-x="770" d="M93 663v161h66q3 -70 49.5 -107t133.5 -37q86 0 134 42t48 117q0 87 -48 132t-140 45h-51v68h26q90 0 137 34.5t47 104.5q0 62 -37.5 96.5t-110.5 34.5q-78 0 -118.5 -30t-46.5 -90h-65v141q69 24 131.5 36t117.5 12q129 0 199 -51t70 -143q0 -67 -49 -114.5t-140 -62.5 q111 -15 168 -70.5t57 -148.5q0 -108 -81 -165t-237 -57q-66 0 -131.5 13.5t-128.5 38.5z" />
<glyph unicode="&#xb4;" horiz-adv-x="1103" d="M260 1146l394 402q47 47 75.5 63.5t54.5 16.5q45 0 72.5 -27t27.5 -68q0 -31 -20.5 -58t-61.5 -54l-448 -275h-94z" />
<glyph unicode="&#xb5;" horiz-adv-x="1246" d="M57 -300h165v1196h-156v98h326v-577q0 -183 45 -250.5t159 -67.5q120 0 183 88t63 256v453h-150v98h324v-895h162v-99h-336v177q-48 -99 -117 -151.5t-153 -52.5q-54 0 -99 16.5t-81 49.5v-339h165v-98h-500v98z" />
<glyph unicode="&#xb6;" horiz-adv-x="1219" d="M146 1004q0 177 123 286t324 109h504v-102h-111v-1479h-99v1479h-219v-1479h-99v790q-201 15 -312 118t-111 278z" />
<glyph unicode="&#xb7;" horiz-adv-x="546" d="M139 791q1 18 21 38l103 108q19 16 37 16q15 0 39 -20l100 -108q15 -23 16 -38q0 -19 -18 -39l-102 -110q-24 -26 -35 -26q-22 0 -37 17l-111 129q-12 15 -13 33z" />
<glyph unicode="&#xb8;" horiz-adv-x="1103" d="M316 -374q111 -67 196 -66q86 0 122 27t36 85t-64 83q-50 19 -131 20q-19 0 -44 -1l65 226h78l-46 -133q40 4 78 6q112 0 174.5 -52t62.5 -148q0 -97 -76 -154.5t-207 -57.5q-141 0 -244 42v123z" />
<glyph unicode="&#xb9;" horiz-adv-x="770" d="M138 1198v87l224 123h97v-703h162v-79h-456v79h162v592z" />
<glyph unicode="&#xba;" horiz-adv-x="902" d="M87 1058q0 165 99 265t264 100t263.5 -100t98.5 -265q0 -168 -98.5 -268.5t-263.5 -100.5t-264 102t-99 267zM129 501v98h644v-98h-644zM252 1058q0 -147 51 -222t147 -75q101 0 150.5 74.5t49.5 222.5q0 143 -51 218t-149 75q-96 0 -147 -75t-51 -218z" />
<glyph unicode="&#xbb;" horiz-adv-x="1174" d="M180 132v108l279 323l-279 321v107l441 -392v-75zM587 132v108l279 323l-279 321v107l438 -392v-75z" />
<glyph unicode="&#xbc;" horiz-adv-x="1857" d="M138 1198v87l224 123h97v-703h162v-79h-456v79h162v592zM420 -27l880 1450h141l-884 -1450h-137zM1139 207v78l373 497h133v-497h152v-78h-152v-129h138v-78h-408v78h135v129h-371zM1223 285h287v381z" />
<glyph unicode="&#xbd;" horiz-adv-x="1857" d="M138 1198v87l224 123h97v-703h162v-79h-456v79h162v592zM420 -27l880 1450h141l-884 -1450h-137zM1175 0v72l266 236q81 73 115.5 130t34.5 119q0 78 -46.5 124.5t-124.5 46.5q-72 0 -117 -34t-54 -107h-65v150q59 27 125 43.5t132 16.5q129 0 208.5 -61.5t79.5 -156.5 q0 -117 -183 -279l-15 -15l-224 -201h362v98h69v-182h-563z" />
<glyph unicode="&#xbe;" horiz-adv-x="1857" d="M93 663v161h66q3 -70 49.5 -107t133.5 -37q86 0 134 42t48 117q0 87 -48 132t-140 45h-51v68h26q90 0 137 34.5t47 104.5q0 62 -37.5 96.5t-110.5 34.5q-78 0 -118.5 -30t-46.5 -90h-65v141q69 24 131.5 36t117.5 12q129 0 199 -51t70 -143q0 -67 -49 -114.5t-140 -62.5 q111 -15 168 -70.5t57 -148.5q0 -108 -81 -165t-237 -57q-66 0 -131.5 13.5t-128.5 38.5zM420 -27l880 1450h141l-884 -1450h-137zM1139 207v78l373 497h133v-497h152v-78h-152v-129h138v-78h-408v78h135v129h-371zM1223 285h287v381z" />
<glyph unicode="&#xbf;" horiz-adv-x="1028" d="M132 344q0 174 103.5 285t309.5 158v238h118v-306q-165 -39 -250.5 -135t-85.5 -240q0 -128 70 -203t188 -75q104 0 172.5 61t87.5 178h90v-245q-99 -42 -187.5 -63t-168.5 -21q-207 0 -327 99t-120 269zM479 1300q0 50 36 88t90 38t88.5 -36.5t34.5 -89.5q0 -51 -36 -88 t-87 -37q-54 0 -90 37t-36 88z" />
<glyph unicode="&#xc0;" horiz-adv-x="1520" d="M36 0l706 1498h61l698 -1498h-195l-230 483h-615l-227 -483h-198zM477 1844h182l171 -246h-107zM544 654h454q-60 127 -112 235.5t-113 242.5z" />
<glyph unicode="&#xc1;" horiz-adv-x="1525" d="M36 0l706 1498h61l698 -1498h-195l-230 483h-615l-227 -483h-198zM544 654h454q-60 127 -112 235.5t-113 242.5zM575 1576l170 246h184l-246 -246h-108z" />
<glyph unicode="&#xc2;" horiz-adv-x="1531" d="M36 0l706 1498h61l698 -1498h-195l-230 483h-615l-227 -483h-198zM449 1571l219 246h165l215 -246h-111l-188 149l-189 -149h-111zM544 654h454q-60 127 -112 235.5t-113 242.5z" />
<glyph unicode="&#xc3;" horiz-adv-x="1525" d="M36 0l706 1498h61l698 -1498h-195l-230 483h-615l-227 -483h-198zM422 1628q3 93 49.5 148.5t127.5 55.5q33 0 63 -7t81 -38l44 -24q22 -12 43 -19t35 -7q40 0 62 26.5t22 68.5h90q-3 -95 -50.5 -149.5t-134.5 -54.5q-63 0 -132 42l-3 3l-45 28q-20 8 -38.5 15.5 t-33.5 7.5q-39 0 -63 -27t-27 -69h-90zM544 654h454q-60 127 -112 235.5t-113 242.5z" />
<glyph unicode="&#xc4;" horiz-adv-x="1503" d="M36 0l706 1498h61l698 -1498h-195l-230 483h-615l-227 -483h-198zM424 1705q0 45 32.5 78t74.5 33q45 0 78.5 -33t33.5 -78t-31.5 -76.5t-80.5 -31.5q-45 0 -76 31.5t-31 76.5zM544 654h454q-60 127 -112 235.5t-113 242.5zM786 1705q0 45 33 78t78 33t77 -33t32 -78 t-32 -76.5t-77 -31.5q-48 0 -79.5 31.5t-31.5 76.5z" />
<glyph unicode="&#xc5;" horiz-adv-x="1384" d="M-12 0v99h123l458 1198q-66 33 -102 90t-36 135q0 109 75.5 183.5t182.5 74.5q108 0 183 -75t75 -183q0 -75 -38 -133.5t-103 -91.5l459 -1198h137v-99h-506v99h156l-117 309h-591l-117 -309h154v-99h-393zM383 506h513l-255 665zM545 1522q0 -59 42 -100t102 -41 q59 0 99.5 41t40.5 100q0 60 -40 102t-100 42t-102 -40.5t-42 -103.5z" />
<glyph unicode="&#xc6;" horiz-adv-x="1920" d="M-33 0v99h123l551 1198h-201v102h1363v-312h-113v195h-644v-467h458v173h117v-464h-117v177h-458v-587h659v197h114v-311h-1139v99h177v309h-504l-143 -309h156v-99h-399zM398 506h459v791h-93z" />
<glyph unicode="&#xc7;" horiz-adv-x="1468" d="M108 698q0 327 187 526t496 199q117 0 244 -30t277 -89v-324h-105q-33 176 -137.5 260t-293.5 84q-225 0 -338.5 -160t-113.5 -466t113.5 -466t338.5 -160q156 0 258 75t147 225h170q-59 -198 -206.5 -298.5t-368.5 -100.5q-138 0 -255 46.5t-207 136.5 q-104 108 -155 241t-51 301zM585 -224q36 -15 73 -24.5t70 -9.5q54 0 85.5 25.5t31.5 67.5q0 27 -21 67.5t-63 97.5h90q62 -60 91 -112.5t29 -97.5q0 -75 -58.5 -118.5t-163.5 -43.5q-39 0 -81 6.5t-83 18.5v123z" />
<glyph unicode="&#xc8;" horiz-adv-x="1398" d="M104 0v99h181v1198h-181v102h1127v-312h-117v195h-641v-467h459v173h114v-464h-114v177h-459v-587h660v197h113v-311h-1142zM450 1777h185l171 -246h-111z" />
<glyph unicode="&#xc9;" horiz-adv-x="1398" d="M104 0v99h181v1198h-181v102h1127v-312h-117v195h-641v-467h459v173h114v-464h-114v177h-459v-587h660v197h113v-311h-1142zM587 1531l171 246h186l-246 -246h-111z" />
<glyph unicode="&#xca;" horiz-adv-x="1398" d="M104 0v99h181v1198h-181v102h1127v-312h-117v195h-641v-467h459v173h114v-464h-114v177h-459v-587h660v197h113v-311h-1142zM401 1531l216 246h165l215 -246h-107l-189 149l-192 -149h-108z" />
<glyph unicode="&#xcb;" horiz-adv-x="1398" d="M104 0v99h181v1198h-181v102h1127v-312h-117v195h-641v-467h459v173h114v-464h-114v177h-459v-587h660v197h113v-311h-1142zM408 1654q0 45 32.5 77.5t77.5 32.5t76.5 -32.5t31.5 -77.5t-31.5 -76.5t-76.5 -31.5q-48 0 -79 31.5t-31 76.5zM773 1654q0 45 33 77.5t75 32.5 q45 0 77.5 -32.5t32.5 -77.5t-31 -76.5t-79 -31.5q-45 0 -76.5 31.5t-31.5 76.5z" />
<glyph unicode="&#xcc;" horiz-adv-x="757" d="M104 0v99h181v1198h-181v102h549v-102h-180v-1198h180v-99h-549zM132 1777h182l171 -246h-110z" />
<glyph unicode="&#xcd;" horiz-adv-x="757" d="M104 0v99h181v1198h-181v102h549v-102h-180v-1198h180v-99h-549zM269 1531l171 246h184l-246 -246h-109z" />
<glyph unicode="&#xce;" horiz-adv-x="757" d="M81 1531l216 246h165l218 -246h-111l-188 149l-193 -149h-107zM104 0v99h181v1198h-181v102h549v-102h-180v-1198h180v-99h-549z" />
<glyph unicode="&#xcf;" horiz-adv-x="757" d="M87 1654q0 45 33 77.5t78 32.5t76 -32.5t31 -77.5t-31 -76.5t-76 -31.5t-78 31.5t-33 76.5zM104 0v99h181v1198h-181v102h549v-102h-180v-1198h180v-99h-549zM453 1654q0 45 32.5 77.5t77.5 32.5q42 0 75 -32.5t33 -77.5t-31.5 -76.5t-76.5 -31.5q-48 0 -79 31.5 t-31 76.5z" />
<glyph unicode="&#xd0;" horiz-adv-x="1546" d="M104 674v117h190v506h-180v102h557q362 0 563 -184.5t201 -513.5q0 -330 -202.5 -515.5t-561.5 -185.5h-557v99h180v575h-190zM482 99h177q269 0 416.5 156t147.5 446t-147 443t-417 153h-177v-506h315v-117h-315v-575z" />
<glyph unicode="&#xd1;" horiz-adv-x="1677" d="M93 0v99h189v1198h-189v102h360l838 -1102v1000h-188v102h490v-102h-188v-1324h-114l-896 1177v-1051h190v-99h-492zM530 1561q3 93 51 148t126 55q37 0 65 -7t79 -38l48 -23q20 -12 39.5 -19.5t38.5 -7.5q39 0 60 26.5t21 68.5h90q0 -95 -48 -149t-138 -54 q-62 0 -129 42l-7 3l-44 27q-18 8 -37.5 16t-34.5 8q-36 0 -60 -27t-29 -69h-91z" />
<glyph unicode="&#xd2;" horiz-adv-x="1572" d="M108 698q0 168 51 301.5t155 237.5q93 93 210 139.5t261 46.5q305 0 492.5 -199t187.5 -526q0 -168 -52.5 -302.5t-154.5 -239.5q-93 -90 -211.5 -136.5t-261.5 -46.5q-141 0 -261 46.5t-210 136.5q-104 108 -155 239.5t-51 302.5zM324 698q0 -309 116.5 -467.5 t344.5 -158.5q230 0 347 158.5t117 467.5q0 308 -116.5 467t-347.5 159q-228 0 -344.5 -158.5t-116.5 -467.5zM537 1777h185l171 -246h-111z" />
<glyph unicode="&#xd3;" horiz-adv-x="1572" d="M108 698q0 168 51 301.5t155 237.5q93 93 210 139.5t261 46.5q305 0 492.5 -199t187.5 -526q0 -168 -52.5 -302.5t-154.5 -239.5q-93 -90 -211.5 -136.5t-261.5 -46.5q-141 0 -261 46.5t-210 136.5q-104 108 -155 239.5t-51 302.5zM324 698q0 -309 116.5 -467.5 t344.5 -158.5q230 0 347 158.5t117 467.5q0 308 -116.5 467t-347.5 159q-228 0 -344.5 -158.5t-116.5 -467.5zM674 1531l171 246h185l-245 -246h-111z" />
<glyph unicode="&#xd4;" horiz-adv-x="1572" d="M108 698q0 168 51 301.5t155 237.5q93 93 210 139.5t261 46.5q305 0 492.5 -199t187.5 -526q0 -168 -52.5 -302.5t-154.5 -239.5q-93 -90 -211.5 -136.5t-261.5 -46.5q-141 0 -261 46.5t-210 136.5q-104 108 -155 239.5t-51 302.5zM324 698q0 -309 116.5 -467.5 t344.5 -158.5q230 0 347 158.5t117 467.5q0 308 -116.5 467t-347.5 159q-228 0 -344.5 -158.5t-116.5 -467.5zM488 1531l217 246h163l216 -246h-107l-192 149l-189 -149h-108z" />
<glyph unicode="&#xd5;" horiz-adv-x="1572" d="M108 698q0 168 51 301.5t155 237.5q93 93 210 139.5t261 46.5q305 0 492.5 -199t187.5 -526q0 -168 -52.5 -302.5t-154.5 -239.5q-93 -90 -211.5 -136.5t-261.5 -46.5q-141 0 -261 46.5t-210 136.5q-104 108 -155 239.5t-51 302.5zM324 698q0 -309 116.5 -467.5 t344.5 -158.5q230 0 347 158.5t117 467.5q0 308 -116.5 467t-347.5 159q-228 0 -344.5 -158.5t-116.5 -467.5zM476 1561q3 93 51 148t126 55q36 0 64.5 -7t79.5 -38l48 -23q22 -12 42 -19.5t36 -7.5q39 0 60 26.5t21 68.5h90q0 -95 -48.5 -149t-138.5 -54q-62 0 -128 42 l-3 3l-48 27l-36 16t-36 8q-36 0 -60 -27t-30 -69h-90z" />
<glyph unicode="&#xd6;" horiz-adv-x="1572" d="M108 698q0 168 51 301.5t155 237.5q93 93 210 139.5t261 46.5q305 0 492.5 -199t187.5 -526q0 -168 -52.5 -302.5t-154.5 -239.5q-93 -90 -211.5 -136.5t-261.5 -46.5q-141 0 -261 46.5t-210 136.5q-104 108 -155 239.5t-51 302.5zM324 698q0 -309 116.5 -467.5 t344.5 -158.5q230 0 347 158.5t117 467.5q0 308 -116.5 467t-347.5 159q-228 0 -344.5 -158.5t-116.5 -467.5zM495 1654q0 45 32.5 77.5t77.5 32.5q42 0 75 -32.5t33 -77.5t-31.5 -76.5t-76.5 -31.5q-48 0 -79 31.5t-31 76.5zM860 1654q0 45 31.5 77.5t76.5 32.5t77.5 -32.5 t32.5 -77.5t-31 -76.5t-79 -31.5q-45 0 -76.5 31.5t-31.5 76.5z" />
<glyph unicode="&#xd7;" horiz-adv-x="1605" d="M263 168l432 431l-432 434l109 106l431 -432l431 432l108 -106l-435 -434l435 -431l-108 -106l-431 433l-431 -433z" />
<glyph unicode="&#xd8;" horiz-adv-x="1572" d="M93 12l176 192q-81 98 -121 221t-40 273q0 324 187 524.5t490 200.5q134 0 245.5 -38.5t203.5 -119.5l165 185l75 -66l-170 -189q81 -101 121 -224t40 -273q0 -324 -187 -524.5t-493 -200.5q-132 0 -243 40.5t-203 121.5l-171 -189zM324 698q0 -112 14.5 -203t44.5 -165 l756 829q-63 84 -150 124.5t-204 40.5q-228 0 -344.5 -158.5t-116.5 -467.5zM434 240q57 -84 145.5 -126t205.5 -42q230 0 347 158.5t117 467.5q0 108 -14.5 200.5t-47.5 168.5z" />
<glyph unicode="&#xd9;" horiz-adv-x="1617" d="M90 1297v102h545v-102h-176v-722q0 -270 86.5 -374.5t302.5 -104.5t302.5 104.5t86.5 374.5v722h-179v102h473v-102h-180v-740q0 -321 -122.5 -452.5t-416.5 -131.5t-418.5 133.5t-124.5 450.5v740h-179zM596 1777h183l170 -246h-107z" />
<glyph unicode="&#xda;" horiz-adv-x="1617" d="M90 1297v102h545v-102h-176v-722q0 -270 86.5 -374.5t302.5 -104.5t302.5 104.5t86.5 374.5v722h-179v102h473v-102h-180v-740q0 -321 -122.5 -452.5t-416.5 -131.5t-418.5 133.5t-124.5 450.5v740h-179zM734 1531l171 246h186l-246 -246h-111z" />
<glyph unicode="&#xdb;" horiz-adv-x="1617" d="M90 1297v102h545v-102h-176v-722q0 -270 86.5 -374.5t302.5 -104.5t302.5 104.5t86.5 374.5v722h-179v102h473v-102h-180v-740q0 -321 -122.5 -452.5t-416.5 -131.5t-418.5 133.5t-124.5 450.5v740h-179zM545 1531l219 246h165l216 -246h-109l-191 149l-189 -149h-111z " />
<glyph unicode="&#xdc;" horiz-adv-x="1617" d="M90 1297v102h545v-102h-176v-722q0 -270 86.5 -374.5t302.5 -104.5t302.5 104.5t86.5 374.5v722h-179v102h473v-102h-180v-740q0 -321 -122.5 -452.5t-416.5 -131.5t-418.5 133.5t-124.5 450.5v740h-179zM554 1654q0 45 33.5 77.5t75.5 32.5q44 0 77 -32.5t33 -77.5 t-31.5 -76.5t-78.5 -31.5q-45 0 -77 31.5t-32 76.5zM920 1654q0 45 31.5 77.5t76.5 32.5q44 0 77.5 -32.5t33.5 -77.5t-33.5 -76.5t-77.5 -31.5q-45 0 -76.5 31.5t-31.5 76.5z" />
<glyph unicode="&#xdd;" horiz-adv-x="1264" d="M-20 1297v102h518v-102h-162l347 -566l350 566h-159v102h408v-102h-132l-419 -676v-522h176v-99h-545v99h178v503l-432 695h-128zM521 1531l171 246h182l-242 -246h-111z" />
<glyph unicode="&#xde;" horiz-adv-x="1297" d="M104 0v99h181v1198h-181v102h585v-102h-216v-203h294q210 0 333 -106.5t123 -286.5q0 -183 -123 -289.5t-333 -106.5h-294v-206h216v-99h-585zM473 408h249q138 0 211.5 74.5t73.5 218.5q0 140 -73.5 216.5t-211.5 76.5h-249v-586z" />
<glyph unicode="&#xdf;" horiz-adv-x="1282" d="M57 0v99h165v1012q0 165 106 255t304 90t302.5 -97t117.5 -295h-22q-137 0 -215 -51t-78 -139q0 -48 25 -83.5t95 -80.5l84 -51q143 -93 198.5 -172t55.5 -187q0 -144 -107.5 -235.5t-281.5 -91.5q-78 0 -157.5 18t-150.5 48v219h101q3 -96 55.5 -144t148.5 -48 q102 0 162 57t60 152q0 78 -38 133.5t-148 125.5l-81 51q-95 59 -137 119t-42 138q0 114 79.5 191.5t222.5 99.5q-9 111 -73.5 172t-175.5 61q-123 0 -181.5 -61.5t-58.5 -190.5v-1114h-335z" />
<glyph unicode="&#xe0;" horiz-adv-x="1141" d="M96 300q0 153 110.5 238.5t314.5 85.5h243v68q0 114 -69 175.5t-194 61.5q-102 0 -164 -46.5t-76 -139.5h-87v204q89 36 173 55.5t165 19.5q207 0 315 -101.5t108 -299.5v-522h156v-99h-327v108q-57 -69 -132 -102t-176 -33q-165 0 -262.5 88.5t-97.5 238.5zM213 1531 h182l246 -350h-111zM288 300q0 -105 63 -166.5t173 -61.5q108 0 174 65.5t66 173.5v213h-224q-126 0 -189 -55t-63 -169z" />
<glyph unicode="&#xe1;" horiz-adv-x="1141" d="M96 300q0 153 110.5 238.5t314.5 85.5h243v68q0 114 -69 175.5t-194 61.5q-102 0 -164 -46.5t-76 -139.5h-87v204q89 36 173 55.5t165 19.5q207 0 315 -101.5t108 -299.5v-522h156v-99h-327v108q-57 -69 -132 -102t-176 -33q-165 0 -262.5 88.5t-97.5 238.5zM288 300 q0 -105 63 -166.5t173 -61.5q108 0 174 65.5t66 173.5v213h-224q-126 0 -189 -55t-63 -169zM423 1181l240 353h188l-321 -353h-107z" />
<glyph unicode="&#xe2;" horiz-adv-x="1141" d="M96 300q0 153 110.5 238.5t314.5 85.5h243v68q0 114 -69 175.5t-194 61.5q-102 0 -164 -46.5t-76 -139.5h-87v204q89 36 173 55.5t165 19.5q207 0 315 -101.5t108 -299.5v-522h156v-99h-327v108q-57 -69 -132 -102t-176 -33q-165 0 -262.5 88.5t-97.5 238.5zM233 1181 l223 353h155l222 -353h-111l-188 245l-190 -245h-111zM288 300q0 -105 63 -166.5t173 -61.5q108 0 174 65.5t66 173.5v213h-224q-126 0 -189 -55t-63 -169z" />
<glyph unicode="&#xe3;" horiz-adv-x="1141" d="M96 300q0 153 110.5 238.5t314.5 85.5h243v68q0 114 -69 175.5t-194 61.5q-102 0 -164 -46.5t-76 -139.5h-87v204q89 36 173 55.5t165 19.5q207 0 315 -101.5t108 -299.5v-522h156v-99h-327v108q-57 -69 -132 -102t-176 -33q-165 0 -262.5 88.5t-97.5 238.5zM224 1226 q3 125 50 194t134 69q33 0 64.5 -13.5t64.5 -43.5l53 -51q22 -22 36.5 -28.5t36.5 -6.5q42 0 64 37t25 106h90q-3 -126 -51 -194.5t-132 -68.5q-36 0 -66 13t-63 43l-54 51q-27 24 -41.5 31.5t-33.5 7.5q-39 0 -61.5 -37.5t-25.5 -108.5h-90zM288 300q0 -105 63 -166.5 t173 -61.5q108 0 174 65.5t66 173.5v213h-224q-126 0 -189 -55t-63 -169z" />
<glyph unicode="&#xe4;" horiz-adv-x="1141" d="M96 300q0 153 110.5 238.5t314.5 85.5h243v68q0 114 -69 175.5t-194 61.5q-102 0 -164 -46.5t-76 -139.5h-87v204q89 36 173 55.5t165 19.5q207 0 315 -101.5t108 -299.5v-522h156v-99h-327v108q-57 -69 -132 -102t-176 -33q-165 0 -262.5 88.5t-97.5 238.5zM243 1360 q0 42 31 75t76 33t78.5 -33t33.5 -75q0 -48 -32 -79.5t-80 -31.5t-77.5 31.5t-29.5 79.5zM288 300q0 -105 63 -166.5t173 -61.5q108 0 174 65.5t66 173.5v213h-224q-126 0 -189 -55t-63 -169zM605 1360q0 42 33 75t78 33q42 0 75 -33t33 -75q0 -48 -31.5 -79.5t-76.5 -31.5 q-48 0 -79.5 31.5t-31.5 79.5z" />
<glyph unicode="&#xe5;" horiz-adv-x="1141" d="M96 300q0 153 110.5 238.5t314.5 85.5h243v68q0 114 -69 175.5t-194 61.5q-102 0 -164 -46.5t-76 -139.5h-87v204q89 36 173 55.5t165 19.5q207 0 315 -101.5t108 -299.5v-522h156v-99h-327v108q-57 -69 -132 -102t-176 -33q-165 0 -262.5 88.5t-97.5 238.5zM275 1426 q0 108 75 182.5t184 74.5q108 0 182.5 -74.5t74.5 -182.5q0 -109 -75 -183.5t-182 -74.5q-109 0 -184 75t-75 183zM288 300q0 -105 63 -166.5t173 -61.5q108 0 174 65.5t66 173.5v213h-224q-126 0 -189 -55t-63 -169zM392 1426q0 -60 39 -100.5t103 -40.5q59 0 99.5 40.5 t40.5 100.5q0 59 -40.5 101.5t-99.5 42.5q-63 0 -102.5 -42t-39.5 -102z" />
<glyph unicode="&#xe6;" horiz-adv-x="1803" d="M96 300q0 153 112.5 238.5t312.5 85.5h243v68q0 111 -67.5 174t-187.5 63q-111 0 -172.5 -45t-75.5 -141h-87v204q89 36 173 55.5t165 19.5q132 0 222 -40.5t140 -124.5q73 84 162.5 124.5t197.5 40.5q228 0 348 -139.5t126 -403.5h-743v-9q0 -201 74.5 -302.5 t225.5 -101.5q114 0 185.5 58t101.5 176h138q-42 -162 -153 -244.5t-291 -82.5q-114 0 -211 42t-169 126q-79 -84 -173 -126t-211 -42q-185 0 -285.5 85t-100.5 242zM288 300q0 -105 63 -166.5t173 -61.5q108 0 174 65.5t66 173.5v213h-224q-126 0 -189 -55t-63 -169z M965 579h539q-6 176 -75 263t-195 87q-120 0 -188.5 -88.5t-80.5 -261.5z" />
<glyph unicode="&#xe7;" horiz-adv-x="1072" d="M96 498q0 240 131.5 382t351.5 142q92 0 186.5 -22.5t186.5 -64.5v-255h-98q-22 129 -87.5 189t-187.5 60q-138 0 -210 -108t-72 -323q0 -216 71.5 -324t210.5 -108q111 0 178 58t91 176h138q-37 -159 -140 -243t-267 -84q-219 0 -351 144t-132 381zM366 -224 q39 -15 76 -24.5t70 -9.5q51 0 82.5 25.5t31.5 67.5q0 27 -20.5 67.5t-60.5 97.5h90q60 -60 90 -112.5t30 -97.5q0 -75 -60 -118.5t-165 -43.5q-39 0 -80.5 6.5t-83.5 18.5v123z" />
<glyph unicode="&#xe8;" horiz-adv-x="1135" d="M96 498q0 237 130 380.5t340 143.5q227 0 348.5 -139.5t124.5 -403.5h-742v-9q0 -201 76.5 -302.5t222.5 -101.5q114 0 186 58t102 176h138q-39 -162 -151.5 -244.5t-291.5 -82.5q-219 0 -351 144t-132 381zM249 1531h182l243 -350h-108zM297 579h539q-6 176 -73.5 263 t-196.5 87q-117 0 -186 -88.5t-83 -261.5z" />
<glyph unicode="&#xe9;" horiz-adv-x="1135" d="M96 498q0 237 130 380.5t340 143.5q227 0 348.5 -139.5t124.5 -403.5h-742v-9q0 -201 76.5 -302.5t222.5 -101.5q114 0 186 58t102 176h138q-39 -162 -151.5 -244.5t-291.5 -82.5q-219 0 -351 144t-132 381zM297 579h539q-6 176 -73.5 263t-196.5 87q-117 0 -186 -88.5 t-83 -261.5zM456 1181l242 353h186l-318 -353h-110z" />
<glyph unicode="&#xea;" horiz-adv-x="1135" d="M96 498q0 237 130 380.5t340 143.5q227 0 348.5 -139.5t124.5 -403.5h-742v-9q0 -201 76.5 -302.5t222.5 -101.5q114 0 186 58t102 176h138q-39 -162 -151.5 -244.5t-291.5 -82.5q-219 0 -351 144t-132 381zM269 1181l219 353h159l219 -353h-108l-192 245l-188 -245h-109 zM297 579h539q-6 176 -73.5 263t-196.5 87q-117 0 -186 -88.5t-83 -261.5z" />
<glyph unicode="&#xeb;" horiz-adv-x="1135" d="M96 498q0 237 130 380.5t340 143.5q227 0 348.5 -139.5t124.5 -403.5h-742v-9q0 -201 76.5 -302.5t222.5 -101.5q114 0 186 58t102 176h138q-39 -162 -151.5 -244.5t-291.5 -82.5q-219 0 -351 144t-132 381zM275 1360q0 42 33.5 75t77.5 33q42 0 75.5 -33t33.5 -75 q0 -48 -30.5 -79.5t-78.5 -31.5q-47 0 -79 31.5t-32 79.5zM297 579h539q-6 176 -73.5 263t-196.5 87q-117 0 -186 -88.5t-83 -261.5zM641 1360q0 42 33 75t75 33q45 0 78 -33t33 -75q0 -48 -31.5 -79.5t-79.5 -31.5q-47 0 -77.5 31.5t-30.5 79.5z" />
<glyph unicode="&#xec;" horiz-adv-x="614" d="M-12 1531h183l243 -350h-109zM69 0v99h164v797h-164v98h339v-895h161v-99h-500z" />
<glyph unicode="&#xed;" horiz-adv-x="614" d="M69 0v99h164v797h-164v98h339v-895h161v-99h-500zM195 1181l242 353h187l-319 -353h-110z" />
<glyph unicode="&#xee;" horiz-adv-x="614" d="M9 1181l218 353h159l219 -353h-107l-193 245l-188 -245h-108zM69 0v99h164v797h-164v98h339v-895h161v-99h-500z" />
<glyph unicode="&#xef;" horiz-adv-x="614" d="M15 1360q0 42 33 75t78 33q42 0 74.5 -33t32.5 -75q0 -48 -29.5 -79.5t-77.5 -31.5t-79.5 31.5t-31.5 79.5zM69 0v99h164v797h-164v98h339v-895h161v-99h-500zM381 1360q0 42 31 75t76 33t78 -33t33 -75q0 -48 -31 -79.5t-80 -31.5q-48 0 -77.5 31.5t-29.5 79.5z" />
<glyph unicode="&#xf0;" horiz-adv-x="1153" d="M96 485q0 221 131.5 356.5t344.5 135.5q33 0 69 -3t84 -9q-20 51 -55 100t-83 100l-299 -140l-36 75l275 126q-57 53 -130 90.5t-164 61.5l19 78q111 -25 208 -67.5t184 -106.5l303 138l33 -71l-270 -126q171 -156 259.5 -339t88.5 -386q0 -237 -130.5 -381t-348.5 -144 q-216 0 -349.5 142.5t-133.5 369.5zM297 476q0 -198 73 -304t209 -106q131 0 204.5 106.5t73.5 306.5q0 105 -22.5 204t-64.5 185q-42 9 -81 14t-75 5q-165 0 -241 -102t-76 -309z" />
<glyph unicode="&#xf1;" horiz-adv-x="1233" d="M69 896v98h339v-176q48 101 122.5 152.5t176.5 51.5q165 0 243 -94.5t78 -295.5v-533h153v-99h-474v99h147v480q0 182 -45 251t-156 69q-123 0 -184 -88.5t-61 -256.5v-455h149v-99h-479v99h155v797h-164zM308 1226q3 125 49.5 194t134.5 69q33 0 64 -13.5t65 -43.5 l53 -51q22 -22 38 -28.5t37 -6.5q39 0 61.5 37t25.5 106h90q-3 -126 -51.5 -194.5t-131.5 -68.5q-37 0 -66.5 13t-62.5 43l-54 51q-24 24 -40 31.5t-32 7.5q-42 0 -64.5 -37.5t-25.5 -108.5h-90z" />
<glyph unicode="&#xf2;" horiz-adv-x="1153" d="M96 498q0 240 131.5 382t351.5 142q218 0 348.5 -142.5t130.5 -381.5q0 -237 -130.5 -381t-348.5 -144q-219 0 -351 144t-132 381zM258 1531h182l243 -350h-108zM297 498q0 -213 72 -322.5t210 -109.5q137 0 207.5 109.5t70.5 322.5q0 212 -70.5 321.5t-207.5 109.5 q-138 0 -210 -109.5t-72 -321.5z" />
<glyph unicode="&#xf3;" horiz-adv-x="1153" d="M96 498q0 240 131.5 382t351.5 142q218 0 348.5 -142.5t130.5 -381.5q0 -237 -130.5 -381t-348.5 -144q-219 0 -351 144t-132 381zM297 498q0 -213 72 -322.5t210 -109.5q137 0 207.5 109.5t70.5 322.5q0 212 -70.5 321.5t-207.5 109.5q-138 0 -210 -109.5t-72 -321.5z M467 1181l240 353h186l-318 -353h-108z" />
<glyph unicode="&#xf4;" horiz-adv-x="1153" d="M96 498q0 240 131.5 382t351.5 142q218 0 348.5 -142.5t130.5 -381.5q0 -237 -130.5 -381t-348.5 -144q-219 0 -351 144t-132 381zM279 1181l219 353h158l218 -353h-107l-188 245l-193 -245h-107zM297 498q0 -213 72 -322.5t210 -109.5q137 0 207.5 109.5t70.5 322.5 q0 212 -70.5 321.5t-207.5 109.5q-138 0 -210 -109.5t-72 -321.5z" />
<glyph unicode="&#xf5;" horiz-adv-x="1153" d="M96 498q0 240 131.5 382t351.5 142q218 0 348.5 -142.5t130.5 -381.5q0 -237 -130.5 -381t-348.5 -144q-219 0 -351 144t-132 381zM269 1226q0 125 48.5 194t132.5 69q36 0 65.5 -13.5t66.5 -43.5l53 -51q22 -22 36.5 -28.5t35.5 -6.5q42 0 63 37t27 106h90 q-3 -126 -51.5 -194.5t-130.5 -68.5q-37 0 -67 13t-66 43l-54 51q-24 24 -39 31.5t-33 7.5q-39 0 -61.5 -37.5t-25.5 -108.5h-90zM297 498q0 -213 72 -322.5t210 -109.5q137 0 207.5 109.5t70.5 322.5q0 212 -70.5 321.5t-207.5 109.5q-138 0 -210 -109.5t-72 -321.5z" />
<glyph unicode="&#xf6;" horiz-adv-x="1153" d="M96 498q0 240 131.5 382t351.5 142q218 0 348.5 -142.5t130.5 -381.5q0 -237 -130.5 -381t-348.5 -144q-219 0 -351 144t-132 381zM285 1360q0 42 32.5 75t77.5 33t77 -33t32 -75q0 -48 -32 -79.5t-77 -31.5q-48 0 -79 31.5t-31 79.5zM297 498q0 -213 72 -322.5 t210 -109.5q137 0 207.5 109.5t70.5 322.5q0 212 -70.5 321.5t-207.5 109.5q-138 0 -210 -109.5t-72 -321.5zM650 1360q0 42 33 75t75 33q45 0 77.5 -33t32.5 -75q0 -48 -31 -79.5t-79 -31.5t-78 31.5t-30 79.5z" />
<glyph unicode="&#xf7;" horiz-adv-x="1605" d="M204 524v153h1198v-153h-1198zM680 255q0 50 36 88t87 38t88.5 -38t37.5 -88q0 -51 -37.5 -87t-88.5 -36q-54 0 -88.5 34.5t-34.5 88.5zM680 947q0 50 36 87.5t87 37.5t88.5 -37.5t37.5 -87.5q0 -51 -37.5 -87t-88.5 -36q-54 0 -88.5 34.5t-34.5 88.5z" />
<glyph unicode="&#xf8;" horiz-adv-x="1153" d="M72 -30l138 168q-57 72 -85.5 163t-28.5 197q0 240 131.5 382t351.5 142q87 0 161.5 -24t133.5 -69l130 155l71 -59l-134 -162q56 -70 86.5 -162.5t30.5 -202.5q0 -237 -130.5 -381t-348.5 -144q-90 0 -165 25.5t-139 73.5l-134 -159zM297 498q0 -67 7 -122t20 -101 l461 549q-34 50 -86 77.5t-120 27.5q-138 0 -210 -109.5t-72 -321.5zM366 180q36 -60 89.5 -87t123.5 -27q137 0 207.5 109.5t70.5 322.5q0 72 -7.5 128.5t-23.5 104.5z" />
<glyph unicode="&#xf9;" horiz-adv-x="1233" d="M51 896v98h330v-577q0 -183 44.5 -250.5t159.5 -67.5q120 0 180.5 88t60.5 256v453h-146v98h320v-895h162v-99h-336v177q-47 -99 -122 -151.5t-174 -52.5q-168 0 -245.5 94.5t-77.5 294.5v534h-156zM227 1531h184l242 -350h-108z" />
<glyph unicode="&#xfa;" horiz-adv-x="1233" d="M51 896v98h330v-577q0 -183 44.5 -250.5t159.5 -67.5q120 0 180.5 88t60.5 256v453h-146v98h320v-895h162v-99h-336v177q-47 -99 -122 -151.5t-174 -52.5q-168 0 -245.5 94.5t-77.5 294.5v534h-156zM434 1181l243 353h186l-318 -353h-111z" />
<glyph unicode="&#xfb;" horiz-adv-x="1233" d="M51 896v98h330v-577q0 -183 44.5 -250.5t159.5 -67.5q120 0 180.5 88t60.5 256v453h-146v98h320v-895h162v-99h-336v177q-47 -99 -122 -151.5t-174 -52.5q-168 0 -245.5 94.5t-77.5 294.5v534h-156zM249 1181l218 353h159l219 -353h-108l-192 245l-189 -245h-107z" />
<glyph unicode="&#xfc;" horiz-adv-x="1233" d="M51 896v98h330v-577q0 -183 44.5 -250.5t159.5 -67.5q120 0 180.5 88t60.5 256v453h-146v98h320v-895h162v-99h-336v177q-47 -99 -122 -151.5t-174 -52.5q-168 0 -245.5 94.5t-77.5 294.5v534h-156zM255 1360q0 42 33 75t78 33q42 0 74.5 -33t32.5 -75q0 -48 -29.5 -79.5 t-77.5 -31.5t-79.5 31.5t-31.5 79.5zM621 1360q0 42 31 75t76 33t78 -33t33 -75q0 -48 -31.5 -79.5t-79.5 -31.5t-77.5 31.5t-29.5 79.5z" />
<glyph unicode="&#xfd;" horiz-adv-x="1084" d="M-6 896v98h459v-98h-159l278 -686l282 686h-149v98h373v-98h-110l-459 -1120q-45 -118 -103.5 -159.5t-159.5 -41.5q-45 0 -91.5 7t-94.5 23v188h90q6 -62 33 -91t80 -29q54 0 86 29t65 116l65 164l-371 914h-114zM431 1181l243 353h186l-320 -353h-109z" />
<glyph unicode="&#xfe;" horiz-adv-x="1228" d="M57 -300h165v1657h-165v99h335v-617q51 96 129 139.5t195 43.5q183 0 300 -145.5t117 -378.5q0 -234 -117 -379.5t-300 -145.5q-117 0 -195 43.5t-129 139.5v-456h165v-98h-500v98zM392 450q0 -180 69 -274.5t202 -94.5q131 0 198.5 105t67.5 312q0 209 -67.5 312 t-198.5 103q-132 0 -201.5 -94t-69.5 -274v-95z" />
<glyph unicode="&#xff;" horiz-adv-x="1084" d="M-6 896v98h459v-98h-159l278 -686l282 686h-149v98h373v-98h-110l-459 -1120q-45 -118 -103.5 -159.5t-159.5 -41.5q-45 0 -91.5 7t-94.5 23v188h90q6 -62 33 -91t80 -29q54 0 86 29t65 116l65 164l-371 914h-114zM252 1360q0 42 32.5 75t74.5 33q45 0 78 -33t33 -75 q0 -48 -31 -79.5t-80 -31.5q-45 0 -76 31.5t-31 79.5zM614 1360q0 42 33 75t78 33t76.5 -33t31.5 -75q0 -48 -30 -79.5t-78 -31.5q-45 0 -78 31.5t-33 79.5z" />
<glyph unicode="&#x100;" horiz-adv-x="1593" d="M16 0v40q91 15 120 42q53 52 122 209l514 1203h38l508 -1216q61 -145 111 -188.5t140 -49.5v-40h-576v40q85 4 117 28.5t32 62.5q0 46 -43 147l-88 212h-567l-100 -232q-35 -84 -35 -126q0 -35 31 -60.5t136 -31.5v-40h-460zM430 1638v124h608v-124h-608zM476 568h503 l-246 590z" />
<glyph unicode="&#x101;" horiz-adv-x="978" d="M80 233q0 73 30 127q45 72 154 136t365 157v39q0 148 -47 203.5t-136 55.5q-70 0 -109 -37q-42 -38 -42 -84l3 -61q0 -51 -25.5 -78t-64.5 -27q-40 0 -65 28t-25 77q0 91 94 168.5t264 77.5q132 0 216 -43q65 -34 93 -105q20 -46 21 -189v-337q0 -140 5.5 -172.5 t17.5 -41.5t30 -9q14 0 29 6q25 12 88 79v-62q-121 -161 -233 -160q-53 0 -83.5 35.5t-30.5 124.5q-153 -117 -192 -134q-58 -27 -124 -26q-100 0 -166.5 69.5t-66.5 182.5zM261 285q0 -77 46 -129.5t106 -52.5q82 0 216 110v377q-163 -68 -211 -93q-84 -46 -120.5 -98 t-36.5 -114zM264 1292v124h608v-124h-608z" />
<glyph unicode="&#x102;" horiz-adv-x="1593" d="M16 0v40q91 15 120 42q53 52 122 209l514 1203h38l508 -1216q61 -145 111 -188.5t140 -49.5v-40h-576v40q85 4 117 28.5t32 62.5q0 46 -43 147l-88 212h-567l-100 -232q-35 -84 -35 -126q0 -35 31 -60.5t136 -31.5v-40h-460zM440 1905h97q17 -77 68 -110.5t129 -33.5 q77 0 128 33.5t69 110.5h97q-2 -59 -20 -111.5t-54 -91.5t-90.5 -62t-129.5 -23t-129.5 23t-90.5 62t-54 91t-20 112zM476 568h503l-246 590z" />
<glyph unicode="&#x103;" horiz-adv-x="978" d="M80 233q0 73 30 127q45 72 154 136t365 157v39q0 148 -47 203.5t-136 55.5q-70 0 -109 -37q-42 -38 -42 -84l3 -61q0 -51 -25.5 -78t-64.5 -27q-40 0 -65 28t-25 77q0 91 94 168.5t264 77.5q132 0 216 -43q65 -34 93 -105q20 -46 21 -189v-337q0 -140 5.5 -172.5 t17.5 -41.5t30 -9q14 0 29 6q25 12 88 79v-62q-121 -161 -233 -160q-53 0 -83.5 35.5t-30.5 124.5q-153 -117 -192 -134q-58 -27 -124 -26q-100 0 -166.5 69.5t-66.5 182.5zM261 285q0 -77 46 -129.5t106 -52.5q82 0 216 110v377q-163 -68 -211 -93q-84 -46 -120.5 -98 t-36.5 -114zM284 1559h96q17 -77 68.5 -110.5t129.5 -33.5q77 0 128 33.5t68 110.5h97q-2 -59 -19.5 -111.5t-54 -91.5t-90.5 -62t-129 -23t-130 23t-90.5 62t-53.5 91t-20 112z" />
<glyph unicode="&#x104;" horiz-adv-x="1593" d="M16 0v40q91 15 120 42q53 52 122 209l514 1203h38l508 -1216q61 -145 111 -188.5t140 -49.5v-40h-576v40q85 4 117 28.5t32 62.5q0 46 -43 147l-88 212h-567l-100 -232q-35 -84 -35 -126q0 -35 31 -60.5t136 -31.5v-40h-460zM476 568h503l-246 590zM956 -272 q0 49 20.5 93t55.5 80.5t79.5 62t92.5 36.5h120q-33 -10 -67.5 -30.5t-63 -51t-47 -70t-18.5 -90.5q0 -35 11 -60t30.5 -40.5t46 -23.5t58.5 -8q28 0 60.5 4.5t71.5 13.5v-114q-16 -8 -37 -14t-43.5 -10.5t-43.5 -7t-38 -2.5q-67 0 -120 14t-90.5 42t-57.5 72t-20 104z" />
<glyph unicode="&#x105;" horiz-adv-x="978" d="M80 233q0 73 30 127q45 72 154 136t365 157v39q0 148 -47 203.5t-136 55.5q-70 0 -109 -37q-42 -38 -42 -84l3 -61q0 -51 -25.5 -78t-64.5 -27q-40 0 -65 28t-25 77q0 91 94 168.5t264 77.5q132 0 216 -43q65 -34 93 -105q20 -46 21 -189v-337q0 -140 5.5 -172.5 t17.5 -41.5t30 -9q14 0 29 6q25 12 88 79v-62q-121 -161 -233 -160q-53 0 -83.5 35.5t-30.5 124.5q-153 -117 -192 -134q-58 -27 -124 -26q-100 0 -166.5 69.5t-66.5 182.5zM261 285q0 -77 46 -129.5t106 -52.5q82 0 216 110v377q-163 -68 -211 -93q-84 -46 -120.5 -98 t-36.5 -114zM562 -272q0 49 20.5 93t55.5 80.5t79.5 62t92.5 36.5h120q-33 -10 -68 -30.5t-63 -51t-46.5 -70t-18.5 -90.5q0 -35 11 -60t30.5 -40.5t46 -23.5t58.5 -8q28 0 60.5 4.5t71.5 13.5v-114q-16 -8 -37.5 -14t-44 -10.5t-43.5 -7t-37 -2.5q-67 0 -120 14t-90.5 42 t-57.5 72t-20 104z" />
<glyph unicode="&#x106;" horiz-adv-x="1471" d="M80 709q0 218 98 401t270 283.5t375 100.5q158 0 314 -77q44 -26 64 -25q29 0 50 22q29 29 40 80h37l34 -496h-34q-66 222 -190.5 320.5t-296.5 98.5q-145 0 -263.5 -74t-185.5 -235t-67 -401q0 -199 64 -344.5t192 -223.5t290 -78q141 0 251 61t240 243l33 -24 q-108 -194 -255 -284.5t-349 -90.5q-364 0 -562 271q-150 201 -149 472zM673 1617v28q24 30 48.5 68.5t49 80t46.5 83t38 76.5h224v-22q-19 -28 -57 -69t-84 -86t-94.5 -87.5t-90.5 -71.5h-80z" />
<glyph unicode="&#x107;" horiz-adv-x="978" d="M75 493q0 233 139 377.5t333 144.5q143 0 237.5 -76t94.5 -160q0 -42 -25.5 -66.5t-74.5 -24.5q-65 0 -95 40q-20 22 -25.5 86.5t-43.5 97.5q-37 33 -105 33q-105 0 -173 -80q-88 -105 -88 -279q0 -177 87 -313.5t234 -136.5q108 0 192 74q59 51 115 180l30 -15 q-40 -194 -155.5 -300.5t-256.5 -106.5q-170 0 -295 141.5t-125 383.5zM476 1271v27q24 30 49 69t49 80.5t46 83t38 76.5h225v-22q-19 -28 -57.5 -69t-84.5 -86.5t-94.5 -88t-90.5 -70.5h-80z" />
<glyph unicode="&#x108;" horiz-adv-x="1471" d="M80 709q0 218 98 401t270 283.5t375 100.5q158 0 314 -77q44 -26 64 -25q29 0 50 22q29 29 40 80h37l34 -496h-34q-66 222 -190.5 320.5t-296.5 98.5q-145 0 -263.5 -74t-185.5 -235t-67 -401q0 -199 64 -344.5t192 -223.5t290 -78q141 0 251 61t240 243l33 -24 q-108 -194 -255 -284.5t-349 -90.5q-364 0 -562 271q-150 201 -149 472zM470 1617v28q25 30 54.5 68.5t58.5 80t55 83t42 76.5h199q16 -35 41.5 -76.5t55 -83t59 -80.5t54.5 -68v-28h-82q-60 35 -121 86.5t-108 101.5q-48 -50 -107.5 -101.5t-118.5 -86.5h-82z" />
<glyph unicode="&#x109;" horiz-adv-x="978" d="M75 493q0 233 139 377.5t333 144.5q143 0 237.5 -76t94.5 -160q0 -42 -25.5 -66.5t-74.5 -24.5q-65 0 -95 40q-20 22 -25.5 86.5t-43.5 97.5q-37 33 -105 33q-105 0 -173 -80q-88 -105 -88 -279q0 -177 87 -313.5t234 -136.5q108 0 192 74q59 51 115 180l30 -15 q-40 -194 -155.5 -300.5t-256.5 -106.5q-170 0 -295 141.5t-125 383.5zM285 1271v27q25 30 54.5 69t58.5 80.5t54.5 83t42.5 76.5h198q16 -35 42 -76.5t55 -83t59 -80.5t54 -69v-27h-82q-60 35 -120.5 86.5t-107.5 101.5q-48 -50 -107.5 -101.5t-118.5 -86.5h-82z" />
<glyph unicode="&#x10a;" horiz-adv-x="1471" d="M80 709q0 218 98 401t270 283.5t375 100.5q158 0 314 -77q44 -26 64 -25q29 0 50 22q29 29 40 80h37l34 -496h-34q-66 222 -190.5 320.5t-296.5 98.5q-145 0 -263.5 -74t-185.5 -235t-67 -401q0 -199 64 -344.5t192 -223.5t290 -78q141 0 251 61t240 243l33 -24 q-108 -194 -255 -284.5t-349 -90.5q-364 0 -562 271q-150 201 -149 472zM667 1779q0 37 9 61.5t25.5 39.5t38 21.5t46.5 6.5t46.5 -6.5t38 -21.5t26 -39.5t9.5 -61.5t-9.5 -61.5t-26 -40t-38 -22t-46.5 -6.5q-26 0 -47 6.5t-37.5 22t-25.5 40t-9 61.5z" />
<glyph unicode="&#x10b;" horiz-adv-x="978" d="M75 493q0 233 139 377.5t333 144.5q143 0 237.5 -76t94.5 -160q0 -42 -25.5 -66.5t-74.5 -24.5q-65 0 -95 40q-20 22 -25.5 86.5t-43.5 97.5q-37 33 -105 33q-105 0 -173 -80q-88 -105 -88 -279q0 -177 87 -313.5t234 -136.5q108 0 192 74q59 51 115 180l30 -15 q-40 -194 -155.5 -300.5t-256.5 -106.5q-170 0 -295 141.5t-125 383.5zM474 1433q0 37 9.5 61.5t25.5 39.5t37.5 21.5t47.5 6.5q25 0 46.5 -6.5t37.5 -21.5t26 -40t10 -61q0 -37 -10 -61.5t-26 -40t-38 -22t-46 -6.5q-26 0 -47.5 6.5t-37.5 22t-25.5 40t-9.5 61.5z" />
<glyph unicode="&#x10c;" horiz-adv-x="1471" d="M80 709q0 218 98 401t270 283.5t375 100.5q158 0 314 -77q44 -26 64 -25q29 0 50 22q29 29 40 80h37l34 -496h-34q-66 222 -190.5 320.5t-296.5 98.5q-145 0 -263.5 -74t-185.5 -235t-67 -401q0 -199 64 -344.5t192 -223.5t290 -78q141 0 251 61t240 243l33 -24 q-108 -194 -255 -284.5t-349 -90.5q-364 0 -562 271q-150 201 -149 472zM446 1925v28h82q30 -18 60 -41t59.5 -48t56.5 -51t51 -52q24 26 51 52t56.5 51t60 47.5t60.5 41.5h82v-28q-25 -30 -54.5 -68.5t-58.5 -80t-55 -82.5t-42 -77h-199q-16 36 -41.5 77t-55 82.5t-59 80 t-54.5 68.5z" />
<glyph unicode="&#x10d;" horiz-adv-x="978" d="M75 493q0 233 139 377.5t333 144.5q143 0 237.5 -76t94.5 -160q0 -42 -25.5 -66.5t-74.5 -24.5q-65 0 -95 40q-20 22 -25.5 86.5t-43.5 97.5q-37 33 -105 33q-105 0 -173 -80q-88 -105 -88 -279q0 -177 87 -313.5t234 -136.5q108 0 192 74q59 51 115 180l30 -15 q-40 -194 -155.5 -300.5t-256.5 -106.5q-170 0 -295 141.5t-125 383.5zM281 1579v28h81q30 -18 60.5 -41t59.5 -48t56 -51t51 -52q24 26 51 52t56.5 51t60 47.5t60.5 41.5h82v-28q-25 -30 -54.5 -69t-58.5 -80t-54.5 -82t-42.5 -77h-199q-16 36 -41.5 77t-54.5 82t-59 80 t-54 69z" />
<glyph unicode="&#x10e;" horiz-adv-x="1593" d="M38 0v40h55q92 0 132 59q22 35 22 159v945q0 136 -29 172q-41 46 -125 46h-55v40h596q327 0 497.5 -73.5t274 -248t103.5 -402.5q0 -305 -184 -508q-208 -229 -635 -229h-652zM386 1925v28h82q30 -18 60 -41t59 -48t56.5 -51t50.5 -52q24 26 51 52t56.5 51t60.5 47.5 t61 41.5h82v-28q-25 -30 -54.5 -68.5t-59 -80t-55 -82.5t-41.5 -77h-199q-16 36 -42 77t-55 82.5t-58.5 80t-54.5 68.5zM455 105q137 -31 229 -30q249 0 415.5 175t166.5 478q0 302 -166.5 476.5t-423.5 174.5q-97 0 -221 -30v-1244z" />
<glyph unicode="&#x10f;" horiz-adv-x="1103" d="M73 453q0 211 133 387.5t346 176.5q131 0 215 -84v184q0 170 -8.5 208.5t-26 51.5t-44.5 13t-73 -15l-15 38l295 118h50v-1141q0 -172 8 -210.5t25.5 -54t41.5 -15.5q29 0 77 21l11 -38l-291 -125h-50v142q-75 -74 -143 -108t-148 -34q-161 0 -282 136.5t-121 348.5z M272 539q0 -218 93.5 -334.5t211.5 -116.5q99 0 190 97v510q-7 74 -39.5 134t-85 91t-103.5 31q-94 0 -170 -86q-96 -114 -97 -326zM1177 1258v27q17 71 33.5 152t29.5 156h182v-20q-14 -33 -34.5 -74t-44.5 -83.5t-48.5 -83.5t-46.5 -74h-71z" />
<glyph unicode="&#x110;" horiz-adv-x="1524" d="M80 0v88h26q36 0 67.5 5t55 21t37 45.5t13.5 79.5v493h-199v103h199v432q0 46 -14 74t-37.5 43.5t-55 20t-66.5 4.5h-26v88h642q162 0 289 -49.5t214.5 -145t133.5 -234.5t46 -317q0 -172 -43 -311t-128 -237t-213.5 -150.5t-298.5 -52.5h-642zM490 106h183 q125 0 218.5 42.5t156 124.5t93.5 202t31 276t-31 275.5t-93 201t-155.5 123.5t-217.5 42h-185v-558h357v-103h-357v-626z" />
<glyph unicode="&#x111;" horiz-adv-x="1287" d="M116 539q0 146 27.5 252.5t82 175.5t134 102.5t183.5 33.5q60 0 109 -13.5t88.5 -38t70.5 -58.5t53 -74h13q-3 51 -7 97q-2 39 -4 79t-2 60v88h-358v99h358v21q0 46 -13.5 73.5t-37 43t-55 20.5t-66.5 5h-17v88h386v-251h191v-99h-191v-1013q0 -46 14 -74t37.5 -43.5 t54.5 -20t66 -4.5h17v-88h-355l-23 188h-8q-24 -48 -54 -86.5t-69 -65.5t-88 -41.5t-110 -14.5q-103 0 -183 32.5t-134.5 101t-82 174t-27.5 251.5zM318 537q0 -212 61 -317.5t200 -105.5q82 0 136.5 26t88 78.5t47 132.5t13.5 188q0 104 -13.5 184.5t-47 135t-89 82.5 t-137.5 28q-138 0 -198.5 -110.5t-60.5 -321.5z" />
<glyph unicode="&#x112;" horiz-adv-x="1348" d="M46 0v40h51q50 0 97 23q36 18 48 52.5t12 142.5v949q0 139 -27 172q-39 42 -130 42h-51v40h1125l16 -319h-41q-24 114 -51 156.5t-82 67.5q-41 16 -150 16h-402v-579h320q126 0 168 38q56 50 62 174h42v-507h-42q-12 105 -30 136q-18 39 -63 60.5t-137 21.5h-320v-483 q0 -97 9 -118.5t29.5 -33t83.5 -11.5h247q123 0 179 17t108 69q68 66 136 200h44l-126 -366h-1125zM362 1638v124h609v-124h-609z" />
<glyph unicode="&#x113;" horiz-adv-x="978" d="M82 480q0 255 129.5 396t327.5 141q165 0 272 -109t107 -293h-685q0 -220 108 -343q110 -127 255 -127q94 0 166 53t121 184l35 -22q-25 -147 -132.5 -269.5t-274.5 -122.5q-176 0 -302.5 139.5t-126.5 372.5zM233 678h457q-4 94 -21 134q-27 59 -79 93.5t-114 34.5 q-88 0 -159 -69.5t-84 -192.5zM268 1292v124h609v-124h-609z" />
<glyph unicode="&#x114;" horiz-adv-x="1348" d="M46 0v40h51q50 0 97 23q36 18 48 52.5t12 142.5v949q0 139 -27 172q-39 42 -130 42h-51v40h1125l16 -319h-41q-24 114 -51 156.5t-82 67.5q-41 16 -150 16h-402v-579h320q126 0 168 38q56 50 62 174h42v-507h-42q-12 105 -30 136q-18 39 -63 60.5t-137 21.5h-320v-483 q0 -97 9 -118.5t29.5 -33t83.5 -11.5h247q123 0 179 17t108 69q68 66 136 200h44l-126 -366h-1125zM360 1905h97q17 -77 68.5 -110.5t128.5 -33.5t128.5 33.5t68.5 110.5h97q-2 -59 -20 -111.5t-54 -91.5t-90.5 -62t-129.5 -23t-129.5 23t-90.5 62t-54 91t-20 112z" />
<glyph unicode="&#x115;" horiz-adv-x="978" d="M82 480q0 255 129.5 396t327.5 141q165 0 272 -109t107 -293h-685q0 -220 108 -343q110 -127 255 -127q94 0 166 53t121 184l35 -22q-25 -147 -132.5 -269.5t-274.5 -122.5q-176 0 -302.5 139.5t-126.5 372.5zM233 678h457q-4 94 -21 134q-27 59 -79 93.5t-114 34.5 q-88 0 -159 -69.5t-84 -192.5zM288 1559h96q17 -77 68.5 -110.5t129.5 -33.5q77 0 128 33.5t68 110.5h98q-2 -59 -20 -111.5t-54.5 -91.5t-90.5 -62t-129 -23t-130 23t-90.5 62t-53.5 91t-20 112z" />
<glyph unicode="&#x116;" horiz-adv-x="1348" d="M46 0v40h51q50 0 97 23q36 18 48 52.5t12 142.5v949q0 139 -27 172q-39 42 -130 42h-51v40h1125l16 -319h-41q-24 114 -51 156.5t-82 67.5q-41 16 -150 16h-402v-579h320q126 0 168 38q56 50 62 174h42v-507h-42q-12 105 -30 136q-18 39 -63 60.5t-137 21.5h-320v-483 q0 -97 9 -118.5t29.5 -33t83.5 -11.5h247q123 0 179 17t108 69q68 66 136 200h44l-126 -366h-1125zM555 1749q0 37 9 61.5t25.5 40t38 21.5t47.5 6q25 0 46 -6t37.5 -21.5t26.5 -40t10 -61.5t-10 -61.5t-26.5 -40t-38 -22t-45.5 -6.5q-26 0 -47.5 6.5t-38 22t-25.5 40 t-9 61.5z" />
<glyph unicode="&#x117;" horiz-adv-x="978" d="M82 480q0 255 129.5 396t327.5 141q165 0 272 -109t107 -293h-685q0 -220 108 -343q110 -127 255 -127q94 0 166 53t121 184l35 -22q-25 -147 -132.5 -269.5t-274.5 -122.5q-176 0 -302.5 139.5t-126.5 372.5zM233 678h457q-4 94 -21 134q-27 59 -79 93.5t-114 34.5 q-88 0 -159 -69.5t-84 -192.5zM457 1433q0 37 9 61.5t25.5 39.5t38 21.5t47.5 6.5q25 0 46 -6.5t37.5 -21.5t26 -40t9.5 -61q0 -37 -9.5 -61.5t-26 -40t-38 -22t-45.5 -6.5q-26 0 -47.5 6.5t-38 22t-25.5 40t-9 61.5z" />
<glyph unicode="&#x118;" horiz-adv-x="1348" d="M46 0v40h51q50 0 97 23q36 18 48 52.5t12 142.5v949q0 139 -27 172q-39 42 -130 42h-51v40h1125l16 -319h-41q-24 114 -51 156.5t-82 67.5q-41 16 -150 16h-402v-579h320q126 0 168 38q56 50 62 174h42v-507h-42q-12 105 -30 136q-18 39 -63 60.5t-137 21.5h-320v-483 q0 -97 9 -118.5t29.5 -33t83.5 -11.5h247q123 0 179 17t108 69q68 66 136 200h44l-126 -366h-1125zM731 -272q0 49 20.5 93t55.5 80.5t79.5 62t92.5 36.5h120q-33 -10 -68 -30.5t-63 -51t-46.5 -70t-18.5 -90.5q0 -35 11 -60t30.5 -40.5t46 -23.5t58.5 -8q28 0 60.5 4.5 t71.5 13.5v-114q-16 -8 -37.5 -14t-44 -10.5t-43.5 -7t-37 -2.5q-67 0 -120 14t-90.5 42t-57.5 72t-20 104z" />
<glyph unicode="&#x119;" horiz-adv-x="978" d="M82 480q0 255 129.5 396t327.5 141q165 0 272 -109t107 -293h-685q0 -220 108 -343q110 -127 255 -127q94 0 166 53t121 184l35 -22q-25 -147 -132.5 -269.5t-274.5 -122.5q-176 0 -302.5 139.5t-126.5 372.5zM233 678h457q-4 94 -21 134q-27 59 -79 93.5t-114 34.5 q-88 0 -159 -69.5t-84 -192.5zM482 -241q0 49 20.5 93.5t55.5 80.5t79.5 61.5t92.5 37.5h120q-33 -10 -67.5 -30.5t-63 -51t-47 -70.5t-18.5 -90q0 -35 11 -60t30.5 -41t46 -23.5t58.5 -7.5q28 0 60.5 4.5t71.5 12.5v-113q-16 -8 -37.5 -14.5t-44 -10.5t-43.5 -6.5t-37 -2.5 q-67 0 -120 14t-90.5 42t-57.5 71.5t-20 103.5z" />
<glyph unicode="&#x11a;" horiz-adv-x="1348" d="M46 0v40h51q50 0 97 23q36 18 48 52.5t12 142.5v949q0 139 -27 172q-39 42 -130 42h-51v40h1125l16 -319h-41q-24 114 -51 156.5t-82 67.5q-41 16 -150 16h-402v-579h320q126 0 168 38q56 50 62 174h42v-507h-42q-12 105 -30 136q-18 39 -63 60.5t-137 21.5h-320v-483 q0 -97 9 -118.5t29.5 -33t83.5 -11.5h247q123 0 179 17t108 69q68 66 136 200h44l-126 -366h-1125zM340 1925v28h82q30 -18 60 -41t59 -48t56.5 -51t50.5 -52q24 26 51 52t56.5 51t60.5 47.5t61 41.5h81v-28q-25 -30 -54.5 -68.5t-58.5 -80t-54.5 -82.5t-41.5 -77h-199 q-16 36 -42 77t-55 82.5t-58.5 80t-54.5 68.5z" />
<glyph unicode="&#x11b;" horiz-adv-x="978" d="M82 480q0 255 129.5 396t327.5 141q165 0 272 -109t107 -293h-685q0 -220 108 -343q110 -127 255 -127q94 0 166 53t121 184l35 -22q-25 -147 -132.5 -269.5t-274.5 -122.5q-176 0 -302.5 139.5t-126.5 372.5zM233 678h457q-4 94 -21 134q-27 59 -79 93.5t-114 34.5 q-88 0 -159 -69.5t-84 -192.5zM267 1579v28h82q30 -18 60 -41t59.5 -48t56.5 -51t50 -52q24 26 51 52t57 51t60.5 47.5t60.5 41.5h82v-28q-25 -30 -54.5 -69t-59 -80t-55 -82t-41.5 -77h-199q-16 36 -41.5 77t-55 82t-59 80t-54.5 69z" />
<glyph unicode="&#x11c;" horiz-adv-x="1593" d="M77 709q0 193 93 367q110 211 302 325q162 93 381 93q78 0 143.5 -12t184.5 -57q59 -25 82 -24q19 0 34 19t19 74h39l37 -461h-37q-57 172 -148 260q-131 126 -336 126q-278 0 -422 -221q-124 -187 -124 -443q0 -210 81 -382t211.5 -252.5t270.5 -80.5q79 0 155 21 t147 61v421q0 111 -18 145t-52 51.5t-122 17.5v40h565v-40h-28q-83 0 -114 -58q-23 -40 -22 -156v-448q-123 -67 -244.5 -98t-269.5 -31q-424 0 -642 273q-166 204 -166 470zM516 1617v28q25 30 54.5 68.5t58.5 80t55 83t42 76.5h199q16 -35 41.5 -76.5t55 -83t59 -80.5 t54.5 -68v-28h-82q-60 35 -121 86.5t-108 101.5q-48 -50 -107.5 -101.5t-118.5 -86.5h-82z" />
<glyph unicode="&#x11d;" horiz-adv-x="1103" d="M66 -272q0 28 11 54q18 39 76 110q8 10 110 117q-55 33 -78.5 59.5t-23.5 60.5q0 37 30.5 87.5t142.5 143.5q-91 44 -140 123.5t-49 173.5q0 148 110.5 253t283.5 105q141 0 244 -68h210q46 0 54 -2.5t11 -8.5q5 -11 5 -35q0 -28 -5 -38q-3 -6 -11 -10t-54 -4h-128 q59 -77 60 -198q0 -137 -105.5 -235.5t-281.5 -98.5q-77 0 -152 22q-49 -41 -65 -71.5t-16 -50.5q0 -22 17 -37.5t71 -24.5q29 -5 150 -8q224 -6 287 -15q100 -12 160.5 -73t60.5 -150q0 -122 -115 -230q-167 -156 -437 -155q-210 0 -354 94q-80 53 -79 110zM220 -189 q0 -51 62 -91q109 -68 312 -67q194 0 286 68.5t92 146.5q0 55 -54 80q-57 24 -223 27q-242 9 -372 25q-50 -55 -76.5 -102.5t-26.5 -86.5zM237 1271v27q25 30 54.5 69t58.5 80.5t54.5 83t41.5 76.5h199q16 -35 42 -76.5t55 -83t58.5 -80.5t54.5 -69v-27h-82 q-60 35 -120.5 86.5t-107.5 101.5q-48 -50 -107.5 -101.5t-119.5 -86.5h-81zM334 707q0 -169 73 -265q54 -72 143 -71q81 0 133 62t52 193q0 171 -73 267q-56 72 -142 72q-78 0 -132 -64.5t-54 -193.5z" />
<glyph unicode="&#x11e;" horiz-adv-x="1593" d="M77 709q0 193 93 367q110 211 302 325q162 93 381 93q78 0 143.5 -12t184.5 -57q59 -25 82 -24q19 0 34 19t19 74h39l37 -461h-37q-57 172 -148 260q-131 126 -336 126q-278 0 -422 -221q-124 -187 -124 -443q0 -210 81 -382t211.5 -252.5t270.5 -80.5q79 0 155 21 t147 61v421q0 111 -18 145t-52 51.5t-122 17.5v40h565v-40h-28q-83 0 -114 -58q-23 -40 -22 -156v-448q-123 -67 -244.5 -98t-269.5 -31q-424 0 -642 273q-166 204 -166 470zM532 1905h97q17 -77 68.5 -110.5t128.5 -33.5t128.5 33.5t68.5 110.5h97q-2 -59 -20 -111.5 t-54 -91.5t-90.5 -62t-129.5 -23t-129.5 23t-90.5 62t-53.5 91t-20.5 112z" />
<glyph unicode="&#x11f;" horiz-adv-x="1103" d="M66 -272q0 28 11 54q18 39 76 110q8 10 110 117q-55 33 -78.5 59.5t-23.5 60.5q0 37 30.5 87.5t142.5 143.5q-91 44 -140 123.5t-49 173.5q0 148 110.5 253t283.5 105q141 0 244 -68h210q46 0 54 -2.5t11 -8.5q5 -11 5 -35q0 -28 -5 -38q-3 -6 -11 -10t-54 -4h-128 q59 -77 60 -198q0 -137 -105.5 -235.5t-281.5 -98.5q-77 0 -152 22q-49 -41 -65 -71.5t-16 -50.5q0 -22 17 -37.5t71 -24.5q29 -5 150 -8q224 -6 287 -15q100 -12 160.5 -73t60.5 -150q0 -122 -115 -230q-167 -156 -437 -155q-210 0 -354 94q-80 53 -79 110zM220 -189 q0 -51 62 -91q109 -68 312 -67q194 0 286 68.5t92 146.5q0 55 -54 80q-57 24 -223 27q-242 9 -372 25q-50 -55 -76.5 -102.5t-26.5 -86.5zM244 1559h96q17 -77 68.5 -110.5t129.5 -33.5q77 0 128 33.5t68 110.5h97q-2 -59 -19.5 -111.5t-54 -91.5t-90.5 -62t-129 -23 t-130 23t-90.5 62t-53.5 91t-20 112zM334 707q0 -169 73 -265q54 -72 143 -71q81 0 133 62t52 193q0 171 -73 267q-56 72 -142 72q-78 0 -132 -64.5t-54 -193.5z" />
<glyph unicode="&#x120;" horiz-adv-x="1593" d="M77 709q0 193 93 367q110 211 302 325q162 93 381 93q78 0 143.5 -12t184.5 -57q59 -25 82 -24q19 0 34 19t19 74h39l37 -461h-37q-57 172 -148 260q-131 126 -336 126q-278 0 -422 -221q-124 -187 -124 -443q0 -210 81 -382t211.5 -252.5t270.5 -80.5q79 0 155 21 t147 61v421q0 111 -18 145t-52 51.5t-122 17.5v40h565v-40h-28q-83 0 -114 -58q-23 -40 -22 -156v-448q-123 -67 -244.5 -98t-269.5 -31q-424 0 -642 273q-166 204 -166 470zM725 1779q0 37 9 61.5t25.5 39.5t38 21.5t47.5 6.5q25 0 46 -6.5t37.5 -21.5t26.5 -39.5t10 -61.5 t-10 -61.5t-26.5 -40t-38 -22t-45.5 -6.5q-26 0 -47.5 6.5t-38 22t-25.5 40t-9 61.5z" />
<glyph unicode="&#x121;" horiz-adv-x="1103" d="M66 -272q0 28 11 54q18 39 76 110q8 10 110 117q-55 33 -78.5 59.5t-23.5 60.5q0 37 30.5 87.5t142.5 143.5q-91 44 -140 123.5t-49 173.5q0 148 110.5 253t283.5 105q141 0 244 -68h210q46 0 54 -2.5t11 -8.5q5 -11 5 -35q0 -28 -5 -38q-3 -6 -11 -10t-54 -4h-128 q59 -77 60 -198q0 -137 -105.5 -235.5t-281.5 -98.5q-77 0 -152 22q-49 -41 -65 -71.5t-16 -50.5q0 -22 17 -37.5t71 -24.5q29 -5 150 -8q224 -6 287 -15q100 -12 160.5 -73t60.5 -150q0 -122 -115 -230q-167 -156 -437 -155q-210 0 -354 94q-80 53 -79 110zM220 -189 q0 -51 62 -91q109 -68 312 -67q194 0 286 68.5t92 146.5q0 55 -54 80q-57 24 -223 27q-242 9 -372 25q-50 -55 -76.5 -102.5t-26.5 -86.5zM334 707q0 -169 73 -265q54 -72 143 -71q81 0 133 62t52 193q0 171 -73 267q-56 72 -142 72q-78 0 -132 -64.5t-54 -193.5zM417 1433 q0 37 9 61.5t25.5 39.5t38 21.5t47.5 6.5q25 0 46 -6.5t37.5 -21.5t26 -40t9.5 -61q0 -37 -9.5 -61.5t-26 -40t-38 -22t-45.5 -6.5q-26 0 -47.5 6.5t-38 22t-25.5 40t-9 61.5z" />
<glyph unicode="&#x122;" horiz-adv-x="1593" d="M77 709q0 193 93 367q110 211 302 325q162 93 381 93q78 0 143.5 -12t184.5 -57q59 -25 82 -24q19 0 34 19t19 74h39l37 -461h-37q-57 172 -148 260q-131 126 -336 126q-278 0 -422 -221q-124 -187 -124 -443q0 -210 81 -382t211.5 -252.5t270.5 -80.5q79 0 155 21 t147 61v421q0 111 -18 145t-52 51.5t-122 17.5v40h565v-40h-28q-83 0 -114 -58q-23 -40 -22 -156v-448q-123 -67 -244.5 -98t-269.5 -31q-424 0 -642 273q-166 204 -166 470zM674 -436q17 70 33.5 151t28.5 157h204v-20q-14 -33 -34.5 -74t-44.5 -84t-49 -84t-46 -74h-92v28 z" />
<glyph unicode="&#x123;" horiz-adv-x="1103" d="M66 -272q0 28 11 54q18 39 76 110q8 10 110 117q-55 33 -78.5 59.5t-23.5 60.5q0 37 30.5 87.5t142.5 143.5q-91 44 -140 123.5t-49 173.5q0 148 110.5 253t283.5 105q141 0 244 -68h210q46 0 54 -2.5t11 -8.5q5 -11 5 -35q0 -28 -5 -38q-3 -6 -11 -10t-54 -4h-128 q59 -77 60 -198q0 -137 -105.5 -235.5t-281.5 -98.5q-77 0 -152 22q-49 -41 -65 -71.5t-16 -50.5q0 -22 17 -37.5t71 -24.5q29 -5 150 -8q224 -6 287 -15q100 -12 160.5 -73t60.5 -150q0 -122 -115 -230q-167 -156 -437 -155q-210 0 -354 94q-80 53 -79 110zM220 -189 q0 -51 62 -91q109 -68 312 -67q194 0 286 68.5t92 146.5q0 55 -54 80q-57 24 -223 27q-242 9 -372 25q-50 -55 -76.5 -102.5t-26.5 -86.5zM334 707q0 -169 73 -265q54 -72 143 -71q81 0 133 62t52 193q0 171 -73 267q-56 72 -142 72q-78 0 -132 -64.5t-54 -193.5zM440 1271 v21q14 33 35 74t44.5 83.5t48 83.5t46.5 74h93v-28q-17 -70 -34 -151t-30 -157h-203z" />
<glyph unicode="&#x124;" horiz-adv-x="1593" d="M38 0v40h53q90 0 129 53q27 36 27 165v943q0 113 -16 148q-9 29 -43 46q-47 27 -97 26h-53v40h626v-40h-53q-53 0 -100 -24q-32 -17 -44 -53t-12 -143v-418h678v418q0 113 -14 148q-11 29 -47 46q-46 27 -96 26h-54v40h628v-40h-53q-52 0 -98 -24q-35 -17 -47.5 -53 t-12.5 -143v-943q0 -111 14 -146q11 -26 44 -46q48 -26 100 -26h53v-40h-628v40h54q87 0 130 53q27 36 27 165v445h-678v-445q0 -111 13 -146q11 -26 43 -46q47 -26 100 -26h53v-40h-626zM522 1617v28q25 30 54.5 68.5t59 80t55 83t41.5 76.5h199q16 -35 41.5 -76.5t55 -83 t59 -80.5t54.5 -68v-28h-82q-60 35 -120.5 86.5t-108.5 101.5q-48 -50 -107 -101.5t-119 -86.5h-82z" />
<glyph unicode="&#x125;" horiz-adv-x="1103" d="M13 1413l296 118h51v-721q119 132 188 168.5t140 36.5q84 0 144.5 -46.5t89.5 -143.5q20 -71 20 -255v-348q0 -91 15 -127q11 -27 37 -41t97 -14v-40h-487v40h23q69 0 96 21t39 61q2 17 2 100v348q0 165 -16.5 214.5t-53.5 75t-90 25.5q-52 0 -108.5 -27.5t-135.5 -114.5 v-521q0 -100 11 -124.5t42 -41t105 -16.5v-40h-489v40q67 0 103 19q23 12 36 42t13 121v895q0 170 -8.5 208.5t-25 51.5t-46.5 13q-22 0 -72 -15zM340 1673v28q25 30 54.5 68.5t58.5 80t55 83t42 76.5h199q16 -35 41.5 -76.5t54.5 -83t59 -80t54 -68.5v-28h-81 q-60 35 -121 86.5t-108 102.5q-48 -50 -107.5 -102t-118.5 -87h-82z" />
<glyph unicode="&#x126;" horiz-adv-x="1662" d="M80 0v88h26q36 0 67.5 5t55 21t37 45.5t13.5 79.5v808h-199v102h199v118q0 46 -14 74t-37.5 43.5t-55 20t-66.5 4.5h-26v88h610v-88h-27q-35 0 -67 -5t-55 -21t-37 -45.5t-14 -79.5v-109h682v109q0 49 -13.5 79t-36.5 46t-54.5 21t-67.5 5h-27v88h610v-88h-27 q-36 0 -67 -5t-54.5 -21t-37 -45.5t-13.5 -79.5v-109h199v-102h-199v-819q0 -46 14 -74t37.5 -42.5t55 -19t65.5 -4.5h27v-88h-610v88h27q36 0 67.5 5t54.5 21t36.5 45.5t13.5 79.5v491h-682v-491q0 -49 14 -79t37 -46t55 -21t67 -5h27v-88h-610zM490 835h682v212h-682v-212 z" />
<glyph unicode="&#x127;" horiz-adv-x="1331" d="M36 1243v99h190v21q0 46 -13.5 74t-37 43.5t-55 20t-66.5 4.5h-16v88h386v-251h358v-99h-358v-152q0 -29 -1 -60.5t-3 -57.5q-2 -31 -4 -61h10q94 190 308 191q89 0 158.5 -24t116.5 -74t71.5 -127.5t24.5 -185.5v-453q0 -49 12 -79t33.5 -46t51.5 -21t65 -5h6v-88h-365 v682q0 69 -12 122t-39.5 90t-71.5 56t-107 19q-66 0 -113.5 -24t-78.5 -69t-46.5 -107.5t-15.5 -139.5v-401q0 -46 14 -74t37.5 -42.5t54.5 -19t66 -4.5h6v-88h-564v88h16q36 0 67.5 5t54.5 21t36.5 45.5t13.5 79.5v1004h-190z" />
<glyph unicode="&#x128;" horiz-adv-x="735" d="M11 1638q3 48 17 92.5t41 79t67.5 55t96.5 20.5t102 -20.5t85.5 -45.5t73.5 -45.5t67 -20.5q31 0 50 9.5t29.5 25t15 35.5t8.5 42h94q-3 -48 -17 -93t-40.5 -79.5t-66.5 -55t-96 -20.5t-102 20.5t-85.5 45.5t-73.5 45.5t-68 20.5q-32 0 -50.5 -9t-29 -24.5t-15.5 -35.5 t-9 -42h-94zM55 0v40h50q90 0 134 53q27 36 26 165v945q0 111 -16 146q-10 29 -44 46q-46 27 -100 26h-50v40h628v-40h-54q-90 0 -130 -53q-29 -35 -29 -165v-945q0 -111 15 -146q11 -26 45 -46q46 -26 99 -26h54v-40h-628z" />
<glyph unicode="&#x129;" horiz-adv-x="670" d="M-49 1292q3 48 17 92t41 79t67.5 55.5t96.5 20.5t102 -20.5t85 -45.5t73.5 -45.5t67.5 -20.5q31 0 49.5 9t29.5 25t15.5 36t7.5 42h94q-3 -48 -16.5 -93t-40.5 -79.5t-66.5 -55t-96.5 -20.5q-56 0 -101.5 20.5t-85 45.5t-74 45.5t-68.5 20.5q-32 0 -50 -9.5t-29 -24.5 t-16 -35t-8 -42h-94zM48 0v88h28q35 0 66 4.5t54.5 19t37.5 42.5t14 74v665q0 46 -14 74t-37.5 43.5t-54.5 20.5t-66 5h-6v88h374v-885q0 -49 14 -79t37 -46t55 -21t66 -5h28v-88h-596z" />
<glyph unicode="&#x12a;" horiz-adv-x="735" d="M55 0v40h50q90 0 134 53q27 36 26 165v945q0 111 -16 146q-10 29 -44 46q-46 27 -100 26h-50v40h628v-40h-54q-90 0 -130 -53q-29 -35 -29 -165v-945q0 -111 15 -146q11 -26 45 -46q46 -26 99 -26h54v-40h-628zM81 1638v124h608v-124h-608z" />
<glyph unicode="&#x12b;" horiz-adv-x="670" d="M1 1292v124h608v-124h-608zM48 0v88h28q35 0 66 4.5t54.5 19t37.5 42.5t14 74v665q0 46 -14 74t-37.5 43.5t-54.5 20.5t-66 5h-6v88h374v-885q0 -49 14 -79t37 -46t55 -21t66 -5h28v-88h-596z" />
<glyph unicode="&#x12c;" horiz-adv-x="735" d="M55 0v40h50q90 0 134 53q27 36 26 165v945q0 111 -16 146q-10 29 -44 46q-46 27 -100 26h-50v40h628v-40h-54q-90 0 -130 -53q-29 -35 -29 -165v-945q0 -111 15 -146q11 -26 45 -46q46 -26 99 -26h54v-40h-628zM91 1905h96q17 -77 68.5 -110.5t129.5 -33.5q77 0 128 33.5 t69 110.5h97q-2 -59 -20 -111.5t-54.5 -91.5t-90.5 -62t-129 -23t-129.5 23t-90.5 62t-54 91t-20 112z" />
<glyph unicode="&#x12d;" horiz-adv-x="670" d="M26 1559h96q17 -77 68.5 -110.5t128.5 -33.5t128.5 33.5t68.5 110.5h97q-2 -59 -20 -111.5t-54 -91.5t-90.5 -62t-129.5 -23t-129.5 23t-90.5 62t-53.5 91t-19.5 112zM48 0v88h28q35 0 66 4.5t54.5 19t37.5 42.5t14 74v665q0 46 -14 74t-37.5 43.5t-54.5 20.5t-66 5h-6 v88h374v-885q0 -49 14 -79t37 -46t55 -21t66 -5h28v-88h-596z" />
<glyph unicode="&#x12e;" horiz-adv-x="735" d="M55 0v40h50q90 0 134 53q27 36 26 165v945q0 111 -16 146q-10 29 -44 46q-46 27 -100 26h-50v40h628v-40h-54q-90 0 -130 -53q-29 -35 -29 -165v-945q0 -111 15 -146q11 -26 45 -46q46 -26 99 -26h54v-40h-628zM185 -272q0 49 20.5 93t55.5 80.5t79.5 62t92.5 36.5h120 q-33 -10 -67.5 -30.5t-63 -51t-47 -70t-18.5 -90.5q0 -35 11 -60t30.5 -40.5t46 -23.5t58.5 -8q28 0 60.5 4.5t71.5 13.5v-114q-16 -8 -37 -14t-44 -10.5t-44 -7t-37 -2.5q-67 0 -120 14t-90.5 42t-57.5 72t-20 104z" />
<glyph unicode="&#x12f;" horiz-adv-x="613" d="M63 895l299 120h49v-793q0 -91 13 -122t39.5 -45.5t94.5 -14.5v-40h-478v40q73 0 97 13t38 46t14 123v380q0 162 -9 210q-5 33 -22 47t-45 14q-29 0 -73 -16zM105 -272q0 49 20.5 93t55.5 80.5t79.5 62t92.5 36.5h120q-33 -10 -67.5 -30.5t-63 -51t-46.5 -70t-18 -90.5 q0 -35 10.5 -60t30 -40.5t46 -23.5t58.5 -8q28 0 60.5 4.5t71.5 13.5v-114q-16 -8 -37 -14t-43.5 -10.5t-43.5 -7t-38 -2.5q-67 0 -120 14t-90.5 42t-57.5 72t-20 104zM210 1423q0 47 32.5 77.5t78.5 30.5q45 0 75.5 -30.5t30.5 -77.5q0 -44 -30.5 -76.5t-75.5 -32.5 q-44 0 -77.5 32.5t-33.5 76.5z" />
<glyph unicode="&#x130;" horiz-adv-x="735" d="M55 0v40h50q90 0 134 53q27 36 26 165v945q0 111 -16 146q-10 29 -44 46q-46 27 -100 26h-50v40h628v-40h-54q-90 0 -130 -53q-29 -35 -29 -165v-945q0 -111 15 -146q11 -26 45 -46q46 -26 99 -26h54v-40h-628zM264 1779q0 37 9.5 61.5t25.5 39.5t37.5 21.5t47.5 6.5 q25 0 46.5 -6.5t37.5 -21.5t26 -39.5t10 -61.5t-10 -61.5t-26 -40t-37.5 -22t-46.5 -6.5q-26 0 -47.5 6.5t-37.5 22t-25.5 40t-9.5 61.5z" />
<glyph unicode="&#x131;" horiz-adv-x="670" d="M48 0v88h28q35 0 66 4.5t54.5 19t37.5 42.5t14 74v665q0 46 -14 74t-37.5 43.5t-54.5 20.5t-66 5h-6v88h374v-885q0 -49 14 -79t37 -46t55 -21t66 -5h28v-88h-596z" />
<glyph unicode="&#x132;" horiz-adv-x="1459" d="M55 0v40h50q90 0 134 53q27 36 26 165v945q0 111 -16 146q-10 29 -44 46q-46 27 -100 26h-50v40h628v-40h-54q-90 0 -130 -53q-29 -35 -29 -165v-945q0 -111 15 -146q11 -26 45 -46q46 -26 99 -26h54v-40h-628zM757 132q0 51 26 81q35 32 82 32q35 0 62.5 -23.5 t69.5 -120.5q25 -57 65 -57q28 0 53.5 35t25.5 126v998q0 111 -16 146q-8 29 -44 46q-46 27 -96 26h-54v40h624v-40h-52q-89 0 -131 -53q-24 -35 -23 -165v-716q0 -165 -36.5 -266t-125 -178t-213.5 -77q-102 0 -159.5 50t-57.5 116z" />
<glyph unicode="&#x133;" horiz-adv-x="1300" d="M63 895l299 120h49v-793q0 -91 13 -122t39.5 -45.5t94.5 -14.5v-40h-478v40q73 0 97 13t38 46t14 123v380q0 162 -9 210q-5 33 -22 47t-45 14q-29 0 -73 -16zM210 1423q0 47 32.5 77.5t78.5 30.5q45 0 75.5 -30.5t30.5 -77.5q0 -44 -30.5 -76.5t-75.5 -32.5 q-44 0 -77.5 32.5t-33.5 76.5zM501 -369q0 40 26 66.5t62 26.5q30 0 57 -13q20 -9 72 -55t87 -46q27 0 51.5 19.5t36 66t11.5 203.5v701q0 164 -8 210q-8 35 -25 49t-44 14q-31 0 -72 -16l-16 38l297 120h47v-993q0 -251 -108.5 -374.5t-279.5 -123.5q-99 0 -146.5 34.5 t-47.5 72.5zM881 1423q0 47 32 78.5t78 31.5q45 0 77.5 -31.5t32.5 -78.5q0 -46 -32.5 -77.5t-77.5 -31.5q-46 0 -78 31.5t-32 77.5z" />
<glyph unicode="&#x134;" horiz-adv-x="859" d="M46 132q0 51 27 81q35 32 82 32q35 0 62.5 -23.5t69.5 -120.5q25 -57 64 -57q28 0 53.5 35t25.5 126v998q0 111 -15 146q-8 29 -44 46q-46 27 -97 26h-54v40h625v-40h-52q-89 0 -131 -53q-24 -35 -24 -165v-716q0 -165 -36.5 -266t-125 -178t-213.5 -77q-102 0 -159.5 50 t-57.5 116zM75 1617v28q25 30 54.5 68.5t58.5 80t54.5 83t42.5 76.5h198q16 -35 42 -76.5t55 -83t59 -80.5t54 -68v-28h-82q-60 35 -120.5 86.5t-107.5 101.5q-48 -50 -107.5 -101.5t-118.5 -86.5h-82z" />
<glyph unicode="&#x135;" horiz-adv-x="628" d="M-26 -404h16q56 0 100 18.5t74.5 63t46 119t15.5 185.5v911q0 46 -13.5 74t-37 43.5t-55 20.5t-66.5 5h-6v88h376v-1140q0 -141 -31 -235t-86 -150t-131.5 -79.5t-167.5 -23.5h-34v100zM-24 1271v27q25 30 54.5 69t59 80.5t55 83t41.5 76.5h199q16 -35 42 -76.5t55 -83 t58.5 -80.5t54.5 -69v-27h-82q-60 35 -120.5 86.5t-107.5 101.5q-48 -50 -107.5 -101.5t-119.5 -86.5h-82z" />
<glyph unicode="&#x136;" horiz-adv-x="1593" d="M38 0v40h50q91 0 132 53q25 36 25 165v945q0 111 -14 148q-11 27 -43 44q-49 27 -100 26h-50v40h621v-40h-51q-50 0 -97 -24q-32 -17 -45 -51t-13 -143v-448q22 22 147 136q319 294 386 394q29 41 29 75q0 24 -21.5 42.5t-75.5 18.5h-35v40h538v-40q-48 0 -87 -12 t-95 -46.5t-138 -109.5q-25 -22 -218 -220l-224 -223l539 -534q132 -135 226.5 -182.5t187.5 -53.5v-40h-694v40q61 0 89 21t28 47q0 27 -11 46.5t-67 74.5l-504 502v-473q0 -111 13 -146q10 -26 45 -46q47 -26 97 -26h51v-40h-621zM627 -436q17 70 33.5 151t28.5 157h204 v-20q-14 -33 -34.5 -74t-44.5 -84t-49 -84t-46 -74h-92v28z" />
<glyph unicode="&#x137;" horiz-adv-x="1103" d="M16 0v40q77 0 116 17q23 11 34 36q17 38 17 124v897q0 173 -7.5 211.5t-25.5 52.5t-47 14q-22 0 -65 -17l-22 38l295 118h51v-981l249 229q79 74 92 92q10 13 11 28q0 20 -18 36t-58 18v33h427v-33q-88 -2 -146.5 -27t-127.5 -90l-253 -234l253 -320q104 -132 140 -168 q53 -50 91 -66q29 -8 95 -8v-40h-479v40q40 0 54.5 10.5t14.5 33.5q0 24 -43 80l-302 386v-328q0 -96 13 -126t37.5 -43t107.5 -13v-40h-504zM506 -436q17 70 33.5 151t28.5 157h204v-20q-14 -33 -34.5 -74t-44.5 -84t-48.5 -84t-46.5 -74h-92v28z" />
<glyph unicode="&#x138;" horiz-adv-x="1226" d="M38 0v88h16q36 0 67.5 5t54.5 21t36.5 45.5t13.5 79.5v655q0 46 -13.5 74t-37 43.5t-55 20t-66.5 4.5h-16v88h386v-340q0 -29 -1 -73t-3 -87q-2 -49 -4 -104l262 287q34 38 56 66.5t35 50t18.5 38.5t5.5 32q0 27 -25.5 34.5t-77.5 7.5v88h463v-88q-73 0 -143 -51 t-152 -144l-147 -166l279 -415q54 -84 108 -128t125 -44h6v-88h-30q-91 0 -150 5.5t-102 26.5t-78.5 61.5t-80.5 110.5l-209 328l-155 -114v-190q0 -46 14 -74t37.5 -42.5t54.5 -19t66 -4.5h6v-88h-564z" />
<glyph unicode="&#x139;" horiz-adv-x="1348" d="M44 0v40h55q92 0 132 59q23 35 23 162v942q0 136 -29 172q-42 46 -126 46h-55v40h663v-40q-117 2 -163.5 -21t-64.5 -57.5t-18 -162.5v-919q0 -91 18 -125q13 -23 39.5 -33t167.5 -10h107q170 0 237 24t123 88t113 199l33 -7l-121 -397h-1134zM311 1617v28q24 30 49 68.5 t49 80t46 83t39 76.5h224v-22q-19 -28 -57 -69t-84.5 -86t-95 -87.5t-90.5 -71.5h-80z" />
<glyph unicode="&#x13a;" horiz-adv-x="613" d="M66 1413l294 118h49v-1309q0 -91 12.5 -120.5t42 -45.5t103.5 -16v-40h-483v40q69 0 93 13t38 46t14 123v897q0 168 -7 206.5t-24 51.5t-43 13t-71 -15zM221 1675v28q24 30 49 68.5t49 80t46 83t38 76.5h225v-21q-19 -28 -57.5 -69.5t-84.5 -86.5t-94.5 -87.5 t-90.5 -71.5h-80z" />
<glyph unicode="&#x13b;" horiz-adv-x="1348" d="M44 0v40h55q92 0 132 59q23 35 23 162v942q0 136 -29 172q-42 46 -126 46h-55v40h663v-40q-117 2 -163.5 -21t-64.5 -57.5t-18 -162.5v-919q0 -91 18 -125q13 -23 39.5 -33t167.5 -10h107q170 0 237 24t123 88t113 199l33 -7l-121 -397h-1134zM535 -436q17 70 33.5 151 t28.5 157h204v-20q-14 -33 -35 -74t-45 -84t-48.5 -84t-45.5 -74h-92v28z" />
<glyph unicode="&#x13c;" horiz-adv-x="613" d="M66 1413l294 118h49v-1309q0 -91 12.5 -120.5t42 -45.5t103.5 -16v-40h-483v40q69 0 93 13t38 46t14 123v897q0 168 -7 206.5t-24 51.5t-43 13t-71 -15zM167 -436q17 70 33.5 151t28.5 157h204v-20q-14 -33 -34.5 -74t-44.5 -84t-48.5 -84t-46.5 -74h-92v28z" />
<glyph unicode="&#x13d;" horiz-adv-x="1348" d="M44 0v40h55q92 0 132 59q23 35 23 162v942q0 136 -29 172q-42 46 -126 46h-55v40h663v-40q-117 2 -163.5 -21t-64.5 -57.5t-18 -162.5v-919q0 -91 18 -125q13 -23 39.5 -33t167.5 -10h107q170 0 237 24t123 88t113 199l33 -7l-121 -397h-1134zM885 1163v27 q17 71 33.5 151.5t29.5 156.5h182v-20q-14 -33 -34.5 -74t-44.5 -83.5t-48.5 -83.5t-46.5 -74h-71z" />
<glyph unicode="&#x13e;" horiz-adv-x="613" d="M66 1413l294 118h49v-1309q0 -91 12.5 -120.5t42 -45.5t103.5 -16v-40h-483v40q69 0 93 13t38 46t14 123v897q0 168 -7 206.5t-24 51.5t-43 13t-71 -15zM539 1258v27q17 71 33.5 152t29.5 156h182v-20q-14 -33 -34.5 -74t-44.5 -83.5t-48.5 -83.5t-46.5 -74h-71z" />
<glyph unicode="&#x13f;" horiz-adv-x="1348" d="M44 0v40h55q92 0 132 59q23 35 23 162v942q0 136 -29 172q-42 46 -126 46h-55v40h663v-40q-117 2 -163.5 -21t-64.5 -57.5t-18 -162.5v-919q0 -91 18 -125q13 -23 39.5 -33t167.5 -10h107q170 0 237 24t123 88t113 199l33 -7l-121 -397h-1134zM901 773q0 37 9.5 61.5 t25.5 40t37.5 21.5t47.5 6q25 0 46.5 -6t37.5 -21.5t26 -40t10 -61.5t-10 -61.5t-26 -40t-37.5 -22t-46.5 -6.5q-26 0 -47.5 6.5t-37.5 22t-25.5 40t-9.5 61.5z" />
<glyph unicode="&#x140;" horiz-adv-x="776" d="M66 1413l294 118h49v-1309q0 -91 12.5 -120.5t42 -45.5t103.5 -16v-40h-483v40q69 0 93 13t38 46t14 123v897q0 168 -7 206.5t-24 51.5t-43 13t-71 -15zM593 657q0 37 9 61.5t25.5 40t38 21.5t47.5 6q25 0 46 -6t37.5 -21.5t26.5 -40t10 -61.5t-10 -61.5t-26.5 -39.5 t-38 -22t-45.5 -7q-26 0 -47.5 7t-38 22t-25.5 39.5t-9 61.5z" />
<glyph unicode="&#x141;" horiz-adv-x="1306" d="M80 0v88h26q36 0 67.5 5t55 21t37 45.5t13.5 79.5v355l-199 -114v118l199 115v545q0 49 -13.5 79t-37 46t-55 21t-67.5 5h-26v88h610v-88h-27q-35 0 -66.5 -4.5t-55 -20t-37.5 -43.5t-14 -74v-432l328 190v-121l-328 -189v-611h414q47 0 80.5 17t55 44.5t33 61t16.5 67.5 l20 157h110l-15 -451h-1124z" />
<glyph unicode="&#x142;" horiz-adv-x="679" d="M58 0v88h28q36 0 67 5t54 21t37 45.5t14 79.5v342l-178 -101v118l178 102v663q0 46 -14 74t-37.5 43.5t-54.5 20t-66 4.5h-28v88h397v-779l197 113v-122l-197 -111v-455q0 -49 13.5 -79t36.5 -46t55 -21t67 -5h27v-88h-596z" />
<glyph unicode="&#x143;" horiz-adv-x="1593" d="M-29 1421v40h398l891 -1095v841q0 134 -28 170q-40 44 -128 44h-49v40h508v-40h-52q-92 0 -132 -55q-25 -36 -24 -159v-1232h-37l-965 1177v-898q0 -134 29 -168q41 -46 126 -46h52v-40h-510v40h51q94 0 132 55q25 36 25 159v1015q-65 75 -96 98t-96 46q-30 8 -95 8z M723 1617v28q24 30 49 68.5t49 80t46 83t38 76.5h224v-22q-19 -28 -57 -69t-84 -86t-94.5 -87.5t-90.5 -71.5h-80z" />
<glyph unicode="&#x144;" horiz-adv-x="1103" d="M13 895l298 120h47v-207q172 207 330 207q81 0 139 -39.5t93 -132.5q23 -63 22 -199v-422q0 -91 15 -127q11 -27 38 -41t100 -14v-40h-491v40h23q69 0 96 21t39 61q5 14 5 100v405q0 135 -36 195.5t-120 60.5q-128 0 -253 -140v-521q0 -98 11 -123q15 -31 41.5 -45 t105.5 -14v-40h-487v40h21q76 0 102.5 37t26.5 145v368q0 179 -7.5 217t-24 52t-46.5 14t-72 -16zM583 1271v27q24 30 48.5 69t49 80.5t46.5 83t38 76.5h224v-22q-19 -28 -57 -69t-84 -86.5t-94.5 -88t-90.5 -70.5h-80z" />
<glyph unicode="&#x145;" horiz-adv-x="1593" d="M-29 1421v40h398l891 -1095v841q0 134 -28 170q-40 44 -128 44h-49v40h508v-40h-52q-92 0 -132 -55q-25 -36 -24 -159v-1232h-37l-965 1177v-898q0 -134 29 -168q41 -46 126 -46h52v-40h-510v40h51q94 0 132 55q25 36 25 159v1015q-65 75 -96 98t-96 46q-30 8 -95 8z M688 -436q17 70 33.5 151t29.5 157h203v-20q-14 -33 -34.5 -74t-44.5 -84t-48.5 -84t-46.5 -74h-92v28z" />
<glyph unicode="&#x146;" horiz-adv-x="1103" d="M13 895l298 120h47v-207q172 207 330 207q81 0 139 -39.5t93 -132.5q23 -63 22 -199v-422q0 -91 15 -127q11 -27 38 -41t100 -14v-40h-491v40h23q69 0 96 21t39 61q5 14 5 100v405q0 135 -36 195.5t-120 60.5q-128 0 -253 -140v-521q0 -98 11 -123q15 -31 41.5 -45 t105.5 -14v-40h-487v40h21q76 0 102.5 37t26.5 145v368q0 179 -7.5 217t-24 52t-46.5 14t-72 -16zM546 -436q17 70 33.5 151t28.5 157h204v-20q-14 -33 -34.5 -74t-44.5 -84t-49 -84t-46 -74h-92v28z" />
<glyph unicode="&#x147;" horiz-adv-x="1593" d="M-29 1421v40h398l891 -1095v841q0 134 -28 170q-40 44 -128 44h-49v40h508v-40h-52q-92 0 -132 -55q-25 -36 -24 -159v-1232h-37l-965 1177v-898q0 -134 29 -168q41 -46 126 -46h52v-40h-510v40h51q94 0 132 55q25 36 25 159v1015q-65 75 -96 98t-96 46q-30 8 -95 8z M540 1925v28h82q30 -18 60 -41t59 -48t56 -51t51 -52q24 26 51 52t56.5 51t60.5 47.5t60 41.5h82v-28q-25 -30 -54.5 -68.5t-58.5 -80t-54.5 -82.5t-42.5 -77h-198q-16 36 -42 77t-55 82.5t-59 80t-54 68.5z" />
<glyph unicode="&#x148;" horiz-adv-x="1103" d="M13 895l298 120h47v-207q172 207 330 207q81 0 139 -39.5t93 -132.5q23 -63 22 -199v-422q0 -91 15 -127q11 -27 38 -41t100 -14v-40h-491v40h23q69 0 96 21t39 61q5 14 5 100v405q0 135 -36 195.5t-120 60.5q-128 0 -253 -140v-521q0 -98 11 -123q15 -31 41.5 -45 t105.5 -14v-40h-487v40h21q76 0 102.5 37t26.5 145v368q0 179 -7.5 217t-24 52t-46.5 14t-72 -16zM384 1579v28h82q30 -18 60 -41t59 -48t56.5 -51t50.5 -52q24 26 51 52t56.5 51t60.5 47.5t61 41.5h81v-28q-25 -30 -54 -69t-58.5 -80t-55 -82t-41.5 -77h-199q-16 36 -42 77 t-55 82t-58.5 80t-54.5 69z" />
<glyph unicode="&#x149;" horiz-adv-x="1635" d="M1 904v88q103 33 151.5 80t48.5 109q0 20 -11.5 34t-29 24.5t-37 21t-36.5 24.5t-28.5 35t-11.5 53q0 60 39.5 92t97.5 32q33 0 61.5 -11.5t51 -35t35.5 -57.5t13 -78q0 -67 -18.5 -129.5t-60 -115.5t-106.5 -95.5t-159 -70.5zM296 895l298 120h47v-207q172 207 330 207 q81 0 138.5 -39.5t92.5 -132.5q23 -63 23 -199v-422q0 -91 15 -127q11 -27 38 -41t99 -14v-40h-490v40h22q69 0 96 21t39 61q5 14 6 100v405q0 135 -36 195.5t-120 60.5q-128 0 -253 -140v-521q0 -98 10 -123q15 -31 42 -45t106 -14v-40h-488v40h22q76 0 102.5 37t26.5 145 v368q0 179 -8 217t-24 52t-46 14t-73 -16z" />
<glyph unicode="&#x14a;" horiz-adv-x="1600" d="M80 0v88h26q36 0 67.5 5t55 21t37 45.5t13.5 79.5v1028q0 46 -14 74t-37.5 43.5t-55 20t-66.5 4.5h-26v88h384l750 -1130v900q0 46 -13.5 74t-37 43.5t-55 20t-66.5 4.5h-27v88h526v-88h-27q-36 0 -67 -5t-54.5 -21t-37 -45.5t-13.5 -79.5v-1274q0 -141 -19.5 -235 t-59.5 -150t-100 -79.5t-140 -23.5h-48v100h30q50 0 89 18.5t66 63t40.5 119t13.5 185.5v18l-807 1208v-969q0 -49 13.5 -79t36.5 -46t54.5 -21t67.5 -5h27v-88h-526z" />
<glyph unicode="&#x14b;" horiz-adv-x="1331" d="M58 0v88h18q36 0 67 5t54 21t37 45.5t14 79.5v654q0 46 -14 74t-37.5 43.5t-54.5 20.5t-66 5h-6v88h339l27 -170h10q33 58 69.5 95.5t77 58.5t86 29t95.5 8q83 0 148 -24t110.5 -74t69.5 -127.5t24 -185.5v-750q0 -141 -28.5 -235t-80 -150t-123 -79.5t-156.5 -23.5h-31 v100h12q51 0 90 18.5t65.5 63t40.5 119t14 185.5v742q0 69 -12.5 122t-39.5 90t-71 56t-108 19q-72 0 -120.5 -28t-78 -75t-42.5 -108.5t-13 -128.5v-443q0 -46 14 -74t37.5 -42.5t55 -19t65.5 -4.5h7v-88h-565z" />
<glyph unicode="&#x14c;" horiz-adv-x="1593" d="M77 735q0 349 238 569q205 190 493 190q285 0 493 -216t208 -539q0 -333 -210 -553t-508 -220q-303 0 -508.5 214.5t-205.5 554.5zM325 739q0 -357 151 -550q120 -145 311 -145q206 0 341 160.5t135 506.5q0 376 -149 558q-118 148 -329 148q-194 0 -313 -146 q-147 -180 -147 -532zM470 1638v124h608v-124h-608z" />
<glyph unicode="&#x14d;" horiz-adv-x="1103" d="M75 483q0 136 67.5 270.5t176 198t233.5 63.5q224 0 360 -170q114 -145 114 -334q0 -132 -62.5 -267.5t-174 -205.5t-248.5 -70q-223 0 -356 179q-111 151 -110 336zM276 573q0 -213 85 -370t227 -157q102 0 171 86t69 295q0 263 -114 416q-76 104 -196 104 q-57 0 -114 -34t-92.5 -119t-35.5 -221zM296 1292v124h608v-124h-608z" />
<glyph unicode="&#x14e;" horiz-adv-x="1593" d="M77 735q0 349 238 569q205 190 493 190q285 0 493 -216t208 -539q0 -333 -210 -553t-508 -220q-303 0 -508.5 214.5t-205.5 554.5zM325 739q0 -357 151 -550q120 -145 311 -145q206 0 341 160.5t135 506.5q0 376 -149 558q-118 148 -329 148q-194 0 -313 -146 q-147 -180 -147 -532zM484 1905h97q17 -77 68 -110.5t129 -33.5q77 0 128 33.5t69 110.5h97q-2 -59 -20 -111.5t-54 -91.5t-90.5 -62t-129.5 -23t-129.5 23t-90.5 62t-54 91t-20 112z" />
<glyph unicode="&#x14f;" horiz-adv-x="1103" d="M75 483q0 136 67.5 270.5t176 198t233.5 63.5q224 0 360 -170q114 -145 114 -334q0 -132 -62.5 -267.5t-174 -205.5t-248.5 -70q-223 0 -356 179q-111 151 -110 336zM276 573q0 -213 85 -370t227 -157q102 0 171 86t69 295q0 263 -114 416q-76 104 -196 104 q-57 0 -114 -34t-92.5 -119t-35.5 -221zM310 1559h97q17 -77 68 -110.5t129 -33.5q77 0 128 33.5t69 110.5h97q-2 -59 -20 -111.5t-54.5 -91.5t-90.5 -62t-129 -23t-129.5 23t-90.5 62t-54 91t-20 112z" />
<glyph unicode="&#x150;" horiz-adv-x="1593" d="M77 735q0 349 238 569q205 190 493 190q285 0 493 -216t208 -539q0 -333 -210 -553t-508 -220q-303 0 -508.5 214.5t-205.5 554.5zM325 739q0 -357 151 -550q120 -145 311 -145q206 0 341 160.5t135 506.5q0 376 -149 558q-118 148 -329 148q-194 0 -313 -146 q-147 -180 -147 -532zM456 1617v28q22 34 46 72.5t48 79.5t45.5 81t38.5 75h224v-22q-11 -18 -31 -43t-45.5 -54t-55 -59t-59 -58.5t-57.5 -54.5t-52 -45h-102zM834 1617v28q22 34 46 72.5t48 79.5t45.5 81t38.5 75h224v-22q-11 -18 -31 -43t-45.5 -54t-55 -59t-59 -58.5 t-58 -54.5t-51.5 -45h-102z" />
<glyph unicode="&#x151;" horiz-adv-x="1103" d="M75 483q0 136 67.5 270.5t176 198t233.5 63.5q224 0 360 -170q114 -145 114 -334q0 -132 -62.5 -267.5t-174 -205.5t-248.5 -70q-223 0 -356 179q-111 151 -110 336zM276 573q0 -213 85 -370t227 -157q102 0 171 86t69 295q0 263 -114 416q-76 104 -196 104 q-57 0 -114 -34t-92.5 -119t-35.5 -221zM286 1271v27q22 34 46 73t48 80t45.5 81t38.5 75h224v-22q-11 -18 -31 -43t-45.5 -54t-55 -59t-59 -59t-57.5 -54.5t-52 -44.5h-102zM664 1271v27q22 34 46 73t48 80t45.5 81t38.5 75h224v-22q-11 -18 -31 -43t-45.5 -54t-55 -59 t-59 -59t-57.5 -54.5t-52 -44.5h-102z" />
<glyph unicode="&#x152;" horiz-adv-x="2011" d="M118 753q0 174 41 315.5t123 242t206.5 155.5t291.5 55q25 0 54 -1.5t58.5 -5t56 -7.5t47.5 -10h845l10 -367h-108l-10 91q-4 35 -16 66t-34 54.5t-55.5 37.5t-80.5 14h-352v-558h506v-103h-506v-628h406q49 0 84 14t58.5 37.5t37 55t18.5 65.5l16 91h108l-14 -367h-915 q-22 -5 -48.5 -8.5t-56 -6t-58 -4t-53.5 -1.5q-167 0 -290.5 55t-205.5 156.5t-123 244.5t-41 317zM350 751q0 -156 23 -278.5t74.5 -207t132.5 -129t198 -44.5q61 0 112.5 9t93.5 23v1247q-42 17 -92 26.5t-112 9.5q-117 0 -198.5 -44t-133.5 -128t-75 -206.5t-23 -277.5z " />
<glyph unicode="&#x153;" horiz-adv-x="1897" d="M116 564q0 294 124.5 437.5t367.5 143.5q127 0 223 -50.5t159 -152.5q59 102 151 152.5t216 50.5q101 0 182 -32t137.5 -95t86.5 -156.5t30 -217.5v-96h-698q2 -101 19.5 -181.5t54 -137.5t95 -87t143.5 -30q54 0 100.5 12t84.5 32.5t67.5 46.5t47.5 55q14 -6 27 -25.5 t13 -46.5q0 -32 -22.5 -68t-68.5 -67t-115.5 -51t-162.5 -20q-133 0 -226.5 53t-155.5 155q-122 -209 -394 -208q-114 0 -204 35.5t-153 108.5t-96 183t-33 257zM318 564q0 -117 15.5 -206t50 -148.5t89 -90.5t133.5 -31q78 0 132 29.5t87.5 88.5t49 146t16.5 202v29 q-1 113 -17.5 197t-50 141t-88 85t-131.5 28q-79 0 -133 -29.5t-88 -88.5t-49.5 -147t-15.5 -205zM1099 660h482q0 83 -12.5 152t-39 118t-70 75.5t-106.5 26.5q-118 0 -180.5 -94.5t-73.5 -277.5z" />
<glyph unicode="&#x154;" horiz-adv-x="1471" d="M38 0v40h55q92 0 132 59q22 35 22 159v945q0 136 -29 172q-41 46 -125 46h-55v40h530q234 0 345 -34.5t189 -125.5t78 -215q0 -135 -89 -234.5t-272 -140.5l300 -420q103 -143 178.5 -191t194.5 -60v-40h-391l-495 684q-54 -1 -90 -1h-29t-32 1v-426q0 -136 28 -170 q42 -48 123 -48h58v-40h-626zM455 750h35h24q210 0 316 90.5t106 229.5q0 137 -86 223t-226 86q-63 0 -169 -19v-610zM537 1617v28q24 30 48.5 68.5t48.5 80t46 83t39 76.5h224v-22q-19 -28 -57 -69t-84 -86t-95 -87.5t-91 -71.5h-79z" />
<glyph unicode="&#x155;" horiz-adv-x="735" d="M13 895l300 120h45v-220q122 220 253 220q60 0 98.5 -35t38.5 -85q0 -40 -28 -69t-67 -29q-38 0 -84.5 37t-66.5 37q-22 0 -43 -22q-48 -43 -101 -146v-474q0 -82 19 -124q16 -29 51 -47t102 -18v-40h-505v40q75 0 111 21q28 18 38 57q7 18 7 104v382q0 172 -7.5 205.5 t-26 48.5t-48.5 15q-34 0 -74 -16zM383 1271v27q24 30 49 69t49 80.5t46 83t38 76.5h225v-22q-19 -28 -57.5 -69t-84.5 -86.5t-94.5 -88t-90.5 -70.5h-80z" />
<glyph unicode="&#x156;" horiz-adv-x="1471" d="M38 0v40h55q92 0 132 59q22 35 22 159v945q0 136 -29 172q-41 46 -125 46h-55v40h530q234 0 345 -34.5t189 -125.5t78 -215q0 -135 -89 -234.5t-272 -140.5l300 -420q103 -143 178.5 -191t194.5 -60v-40h-391l-495 684q-54 -1 -90 -1h-29t-32 1v-426q0 -136 28 -170 q42 -48 123 -48h58v-40h-626zM455 750h35h24q210 0 316 90.5t106 229.5q0 137 -86 223t-226 86q-63 0 -169 -19v-610zM546 -436q17 70 33.5 151t28.5 157h204v-20q-14 -33 -34.5 -74t-44.5 -84t-49 -84t-46 -74h-92v28z" />
<glyph unicode="&#x157;" horiz-adv-x="735" d="M13 895l300 120h45v-220q122 220 253 220q60 0 98.5 -35t38.5 -85q0 -40 -28 -69t-67 -29q-38 0 -84.5 37t-66.5 37q-22 0 -43 -22q-48 -43 -101 -146v-474q0 -82 19 -124q16 -29 51 -47t102 -18v-40h-505v40q75 0 111 21q28 18 38 57q7 18 7 104v382q0 172 -7.5 205.5 t-26 48.5t-48.5 15q-34 0 -74 -16zM183 -436q17 70 33.5 151t29.5 157h204v-20q-14 -33 -35 -74t-45 -84t-48.5 -84t-46.5 -74h-92v28z" />
<glyph unicode="&#x158;" horiz-adv-x="1471" d="M38 0v40h55q92 0 132 59q22 35 22 159v945q0 136 -29 172q-41 46 -125 46h-55v40h530q234 0 345 -34.5t189 -125.5t78 -215q0 -135 -89 -234.5t-272 -140.5l300 -420q103 -143 178.5 -191t194.5 -60v-40h-391l-495 684q-54 -1 -90 -1h-29t-32 1v-426q0 -136 28 -170 q42 -48 123 -48h58v-40h-626zM330 1925v28h82q30 -18 60 -41t59 -48t56 -51t51 -52q24 26 51 52t56.5 51t60.5 47.5t60 41.5h82v-28q-25 -30 -54.5 -68.5t-58.5 -80t-54.5 -82.5t-42.5 -77h-198q-16 36 -42 77t-55 82.5t-59 80t-54 68.5zM455 750h35h24q210 0 316 90.5 t106 229.5q0 137 -86 223t-226 86q-63 0 -169 -19v-610z" />
<glyph unicode="&#x159;" horiz-adv-x="735" d="M13 895l300 120h45v-220q122 220 253 220q60 0 98.5 -35t38.5 -85q0 -40 -28 -69t-67 -29q-38 0 -84.5 37t-66.5 37q-22 0 -43 -22q-48 -43 -101 -146v-474q0 -82 19 -124q16 -29 51 -47t102 -18v-40h-505v40q75 0 111 21q28 18 38 57q7 18 7 104v382q0 172 -7.5 205.5 t-26 48.5t-48.5 15q-34 0 -74 -16zM159 1579v28h82q30 -18 60 -41t59 -48t56 -51t51 -52q24 26 51 52t56.5 51t60.5 47.5t60 41.5h82v-28q-25 -30 -54.5 -69t-58.5 -80t-54.5 -82t-42.5 -77h-198q-16 36 -42 77t-55 82t-59 80t-54 69z" />
<glyph unicode="&#x15a;" horiz-adv-x="1227" d="M136 1110q0 157 121.5 270.5t307.5 113.5q118 0 247 -57q61 -26 87 -26t45 16t28 67h39v-505h-39q-18 145 -68.5 231t-144 137.5t-192.5 51.5q-111 0 -184.5 -69t-73.5 -155q0 -68 46 -123q67 -81 319 -215q205 -110 279.5 -168.5t114.5 -139t40 -166.5 q0 -165 -127.5 -286t-331.5 -121q-63 0 -119 9q-34 8 -139.5 40.5t-132.5 32.5q-29 0 -44.5 -16t-22.5 -66h-38v502h38q29 -157 76.5 -235t145 -130.5t214.5 -52.5q135 0 213 70.5t78 168.5q0 55 -29.5 110.5t-93.5 102.5q-43 33 -230.5 137t-266 167t-120.5 138.5 t-42 165.5zM461 1617v28q24 30 49 68.5t49 80t46 83t38 76.5h224v-22q-19 -28 -57 -69t-84 -86t-94.5 -87.5t-90.5 -71.5h-80z" />
<glyph unicode="&#x15b;" horiz-adv-x="859" d="M108 731q0 122 84 203t217 81q57 0 141 -24q52 -15 74 -15q16 0 24.5 7.5t23.5 31.5h35v-335h-35q-41 159 -104.5 216t-163.5 57q-78 0 -124.5 -40t-46.5 -88q0 -61 36 -103q34 -44 138 -95l156 -75q218 -108 218 -283q0 -135 -101 -218t-227 -83q-90 0 -208 34 q-35 11 -60 11t-38 -27h-35v351h35q32 -152 117 -227.5t191 -75.5q73 0 121 44t48 105q0 73 -54 124t-209.5 127.5t-203.5 142.5q-49 61 -49 154zM374 1271v27q24 30 48.5 69t49 80.5t46.5 83t38 76.5h224v-22q-19 -28 -57 -69t-84 -86.5t-94.5 -88t-90.5 -70.5h-80z" />
<glyph unicode="&#x15c;" horiz-adv-x="1227" d="M136 1110q0 157 121.5 270.5t307.5 113.5q118 0 247 -57q61 -26 87 -26t45 16t28 67h39v-505h-39q-18 145 -68.5 231t-144 137.5t-192.5 51.5q-111 0 -184.5 -69t-73.5 -155q0 -68 46 -123q67 -81 319 -215q205 -110 279.5 -168.5t114.5 -139t40 -166.5 q0 -165 -127.5 -286t-331.5 -121q-63 0 -119 9q-34 8 -139.5 40.5t-132.5 32.5q-29 0 -44.5 -16t-22.5 -66h-38v502h38q29 -157 76.5 -235t145 -130.5t214.5 -52.5q135 0 213 70.5t78 168.5q0 55 -29.5 110.5t-93.5 102.5q-43 33 -230.5 137t-266 167t-120.5 138.5 t-42 165.5zM276 1617v28q25 30 54.5 68.5t59 80t55 83t41.5 76.5h199q16 -35 42 -76.5t55 -83t58.5 -80.5t54.5 -68v-28h-82q-60 35 -120.5 86.5t-107.5 101.5q-48 -50 -107.5 -101.5t-119.5 -86.5h-82z" />
<glyph unicode="&#x15d;" horiz-adv-x="859" d="M108 731q0 122 84 203t217 81q57 0 141 -24q52 -15 74 -15q16 0 24.5 7.5t23.5 31.5h35v-335h-35q-41 159 -104.5 216t-163.5 57q-78 0 -124.5 -40t-46.5 -88q0 -61 36 -103q34 -44 138 -95l156 -75q218 -108 218 -283q0 -135 -101 -218t-227 -83q-90 0 -208 34 q-35 11 -60 11t-38 -27h-35v351h35q32 -152 117 -227.5t191 -75.5q73 0 121 44t48 105q0 73 -54 124t-209.5 127.5t-203.5 142.5q-49 61 -49 154zM193 1271v27q25 30 54 69t58.5 80.5t55 83t41.5 76.5h199q16 -35 42 -76.5t55 -83t58.5 -80.5t54.5 -69v-27h-82 q-60 35 -120.5 86.5t-107.5 101.5q-48 -50 -107.5 -101.5t-119.5 -86.5h-81z" />
<glyph unicode="&#x15e;" horiz-adv-x="1227" d="M136 1110q0 157 121.5 270.5t307.5 113.5q118 0 247 -57q61 -26 87 -26t45 16t28 67h39v-505h-39q-18 145 -68.5 231t-144 137.5t-192.5 51.5q-111 0 -184.5 -69t-73.5 -155q0 -68 46 -123q67 -81 319 -215q205 -110 279.5 -168.5t114.5 -139t40 -166.5 q0 -165 -127.5 -286t-331.5 -121q-63 0 -119 9q-34 8 -139.5 40.5t-132.5 32.5q-29 0 -44.5 -16t-22.5 -66h-38v502h38q29 -157 76.5 -235t145 -130.5t214.5 -52.5q135 0 213 70.5t78 168.5q0 55 -29.5 110.5t-93.5 102.5q-43 33 -230.5 137t-266 167t-120.5 138.5 t-42 165.5zM326 -374q38 -8 75.5 -12t66.5 -4q60 0 94 31.5t34 86.5q0 61 -44.5 91.5t-113.5 36.5l44 162h100l-22 -90q102 -8 153 -58.5t51 -133.5q0 -112 -71 -176t-206 -64q-16 0 -36.5 1.5t-42 4.5t-43 8t-39.5 10v106z" />
<glyph unicode="&#x15f;" horiz-adv-x="859" d="M108 731q0 122 84 203t217 81q57 0 141 -24q52 -15 74 -15q16 0 24.5 7.5t23.5 31.5h35v-335h-35q-41 159 -104.5 216t-163.5 57q-78 0 -124.5 -40t-46.5 -88q0 -61 36 -103q34 -44 138 -95l156 -75q218 -108 218 -283q0 -135 -101 -218t-227 -83q-90 0 -208 34 q-35 11 -60 11t-38 -27h-35v351h35q32 -152 117 -227.5t191 -75.5q73 0 121 44t48 105q0 73 -54 124t-209.5 127.5t-203.5 142.5q-49 61 -49 154zM252 -374q38 -8 76 -12t66 -4q60 0 94 31.5t34 86.5q0 61 -44.5 91.5t-112.5 36.5l44 162h99l-22 -90q102 -8 153 -58.5 t51 -133.5q0 -112 -71 -176t-205 -64q-16 0 -37 1.5t-42.5 4.5t-43 8t-39.5 10v106z" />
<glyph unicode="&#x160;" horiz-adv-x="1227" d="M136 1110q0 157 121.5 270.5t307.5 113.5q118 0 247 -57q61 -26 87 -26t45 16t28 67h39v-505h-39q-18 145 -68.5 231t-144 137.5t-192.5 51.5q-111 0 -184.5 -69t-73.5 -155q0 -68 46 -123q67 -81 319 -215q205 -110 279.5 -168.5t114.5 -139t40 -166.5 q0 -165 -127.5 -286t-331.5 -121q-63 0 -119 9q-34 8 -139.5 40.5t-132.5 32.5q-29 0 -44.5 -16t-22.5 -66h-38v502h38q29 -157 76.5 -235t145 -130.5t214.5 -52.5q135 0 213 70.5t78 168.5q0 55 -29.5 110.5t-93.5 102.5q-43 33 -230.5 137t-266 167t-120.5 138.5 t-42 165.5zM269 1925v28h82q30 -18 60 -41t59.5 -48t56.5 -51t51 -52q24 26 50.5 52t56.5 51t60.5 47.5t60.5 41.5h82v-28q-25 -30 -54.5 -68.5t-59 -80t-55 -82.5t-41.5 -77h-199q-16 36 -41.5 77t-55 82.5t-59 80t-54.5 68.5z" />
<glyph unicode="&#x161;" horiz-adv-x="859" d="M108 731q0 122 84 203t217 81q57 0 141 -24q52 -15 74 -15q16 0 24.5 7.5t23.5 31.5h35v-335h-35q-41 159 -104.5 216t-163.5 57q-78 0 -124.5 -40t-46.5 -88q0 -61 36 -103q34 -44 138 -95l156 -75q218 -108 218 -283q0 -135 -101 -218t-227 -83q-90 0 -208 34 q-35 11 -60 11t-38 -27h-35v351h35q32 -152 117 -227.5t191 -75.5q73 0 121 44t48 105q0 73 -54 124t-209.5 127.5t-203.5 142.5q-49 61 -49 154zM173 1579v28h82q30 -18 60 -41t59 -48t56.5 -51t50.5 -52q24 26 51 52t56.5 51t60.5 47.5t61 41.5h82v-28q-25 -30 -54.5 -69 t-59 -80t-55 -82t-41.5 -77h-199q-16 36 -42 77t-55 82t-58.5 80t-54.5 69z" />
<glyph unicode="&#x162;" horiz-adv-x="1348" d="M66 1119l18 342h1194l15 -342h-42q-11 89 -30 127q-34 66 -90.5 95.5t-146.5 29.5h-205v-1117q0 -134 29 -168q41 -46 125 -46h51v-40h-618v40h52q92 0 132 55q20 36 20 159v1117h-173q-104 0 -146 -16q-57 -22 -97 -79.5t-46 -156.5h-42zM433 -374q38 -8 76 -12t66 -4 q60 0 94 31.5t34 86.5q0 61 -44.5 91.5t-112.5 36.5l44 162h99l-21 -90q102 -8 152.5 -58.5t50.5 -133.5q0 -112 -71 -176t-205 -64q-16 0 -36.5 1.5t-42 4.5t-43 8t-40.5 10v106z" />
<glyph unicode="&#x163;" horiz-adv-x="613" d="M22 912v35q60 25 121.5 81t110.5 132q24 43 69 152h32v-326h233v-74h-233v-640q0 -95 28 -129.5t72 -34.5q36 0 68.5 22.5t49.5 65.5h42q-37 -104 -105 -157t-141 -53q-51 0 -99 27t-69.5 77.5t-21.5 156.5v665h-157zM198 -374q38 -8 75.5 -12t66.5 -4q60 0 94 31.5 t34 86.5q0 61 -44.5 91.5t-113.5 36.5l44 162h100l-22 -90q102 -8 153 -58.5t51 -133.5q0 -112 -71 -176t-206 -64q-16 0 -36.5 1.5t-42 4.5t-43 8t-39.5 10v106z" />
<glyph unicode="&#x164;" horiz-adv-x="1348" d="M66 1119l18 342h1194l15 -342h-42q-11 89 -30 127q-34 66 -90.5 95.5t-146.5 29.5h-205v-1117q0 -134 29 -168q41 -46 125 -46h51v-40h-618v40h52q92 0 132 55q20 36 20 159v1117h-173q-104 0 -146 -16q-57 -22 -97 -79.5t-46 -156.5h-42zM332 1925v28h82q30 -18 60 -41 t59 -48t56 -51t51 -52q24 26 51 52t56.5 51t60.5 47.5t60 41.5h82v-28q-25 -30 -54.5 -68.5t-58.5 -80t-54.5 -82.5t-42.5 -77h-198q-16 36 -42 77t-55 82.5t-59 80t-54 68.5z" />
<glyph unicode="&#x165;" horiz-adv-x="613" d="M22 912v35q60 25 121.5 81t110.5 132q24 43 69 152h32v-326h233v-74h-233v-640q0 -95 28 -129.5t72 -34.5q36 0 68.5 22.5t49.5 65.5h42q-37 -104 -105 -157t-141 -53q-51 0 -99 27t-69.5 77.5t-21.5 156.5v665h-157zM545 1258v27q17 71 33.5 152t29.5 156h183v-20 q-14 -33 -35 -74t-45 -83.5t-48.5 -83.5t-46.5 -74h-71z" />
<glyph unicode="&#x166;" horiz-adv-x="1285" d="M42 1130l10 367h1181l10 -367h-108l-11 91q-4 35 -14 66t-29.5 54.5t-51.5 37.5t-79 14h-204v-602h355v-103h-355v-449q0 -49 14 -79t37 -46t55 -21t67 -5h48v-88h-653v88h48q35 0 66.5 4.5t55 19t37.5 42.5t14 74v460h-351v103h351v602h-201q-46 0 -77.5 -14 t-51.5 -37.5t-29.5 -55t-13.5 -65.5l-11 -91h-109z" />
<glyph unicode="&#x167;" horiz-adv-x="738" d="M40 1005v84q38 0 83.5 15t80.5 51q36 39 58 93t38 134h96v-258h275v-119h-275v-296h254v-99h-254v-312q0 -108 43.5 -158t116.5 -50q38 0 69.5 4t64.5 10v-92q-13 -6 -34.5 -12t-46.5 -10.5t-53 -7t-52 -2.5q-80 0 -137.5 16.5t-94 54.5t-54.5 100.5t-18 152.5v306h-144 v99h144v296h-160z" />
<glyph unicode="&#x168;" horiz-adv-x="1593" d="M11 1421v40h633v-40h-56q-91 0 -129 -57q-29 -38 -29 -161v-638q0 -85 15.5 -194.5t57.5 -172t118 -102t189 -39.5q143 0 257 63t155 160t41 331v592q0 136 -29 172q-42 46 -126 46h-55v40h516v-40h-52q-89 0 -135 -72q-23 -33 -22 -155v-594q0 -218 -43 -339.5 t-171.5 -209t-348.5 -87.5q-239 0 -362.5 84t-176.5 224q-33 96 -33 359v572q0 134 -37.5 176t-121.5 42h-55zM402 1638q3 48 17 92.5t41 79t67.5 55t97.5 20.5q56 0 101.5 -20.5t85 -45.5t73.5 -45.5t67 -20.5q31 0 50 9.5t29.5 25t15.5 35.5t8 42h94q-3 -48 -17 -93 t-40.5 -79.5t-66.5 -55t-96 -20.5t-102 20.5t-85.5 45.5t-73.5 45.5t-68 20.5q-32 0 -50.5 -9t-29 -24.5t-15.5 -35.5t-8 -42h-95z" />
<glyph unicode="&#x169;" horiz-adv-x="1103" d="M2 947v39h347v-659q0 -138 47.5 -182t114.5 -44q47 0 106 30t140 112v558q0 84 -31 114t-128 32v39h335v-598q0 -170 9 -208.5t26.5 -54t42.5 -15.5q34 0 75 21l15 -38l-295 -125h-49v211q-128 -137 -194 -174t-141 -37q-85 0 -145 49t-83.5 124.5t-23.5 213.5v440 q0 71 -15.5 98t-45 41.5t-107.5 12.5zM276 1292q3 48 17 92t41 79t67.5 55.5t97.5 20.5q56 0 101.5 -20.5t85 -45.5t73.5 -45.5t67 -20.5q31 0 50 9t29.5 25t15.5 36t8 42h94q-3 -48 -17 -93t-40.5 -79.5t-66.5 -55t-96 -20.5t-102 20.5t-85 45.5t-73.5 45.5t-68.5 20.5 q-32 0 -50 -9.5t-29 -24.5t-16 -35t-8 -42h-95z" />
<glyph unicode="&#x16a;" horiz-adv-x="1593" d="M11 1421v40h633v-40h-56q-91 0 -129 -57q-29 -38 -29 -161v-638q0 -85 15.5 -194.5t57.5 -172t118 -102t189 -39.5q143 0 257 63t155 160t41 331v592q0 136 -29 172q-42 46 -126 46h-55v40h516v-40h-52q-89 0 -135 -72q-23 -33 -22 -155v-594q0 -218 -43 -339.5 t-171.5 -209t-348.5 -87.5q-239 0 -362.5 84t-176.5 224q-33 96 -33 359v572q0 134 -37.5 176t-121.5 42h-55zM486 1638v124h609v-124h-609z" />
<glyph unicode="&#x16b;" horiz-adv-x="1103" d="M2 947v39h347v-659q0 -138 47.5 -182t114.5 -44q47 0 106 30t140 112v558q0 84 -31 114t-128 32v39h335v-598q0 -170 9 -208.5t26.5 -54t42.5 -15.5q34 0 75 21l15 -38l-295 -125h-49v211q-128 -137 -194 -174t-141 -37q-85 0 -145 49t-83.5 124.5t-23.5 213.5v440 q0 71 -15.5 98t-45 41.5t-107.5 12.5zM336 1292v124h608v-124h-608z" />
<glyph unicode="&#x16c;" horiz-adv-x="1593" d="M11 1421v40h633v-40h-56q-91 0 -129 -57q-29 -38 -29 -161v-638q0 -85 15.5 -194.5t57.5 -172t118 -102t189 -39.5q143 0 257 63t155 160t41 331v592q0 136 -29 172q-42 46 -126 46h-55v40h516v-40h-52q-89 0 -135 -72q-23 -33 -22 -155v-594q0 -218 -43 -339.5 t-171.5 -209t-348.5 -87.5q-239 0 -362.5 84t-176.5 224q-33 96 -33 359v572q0 134 -37.5 176t-121.5 42h-55zM484 1905h97q17 -77 68 -110.5t129 -33.5q77 0 128 33.5t69 110.5h97q-2 -59 -20 -111.5t-54 -91.5t-90.5 -62t-129.5 -23t-129.5 23t-90.5 62t-54 91t-20 112z " />
<glyph unicode="&#x16d;" horiz-adv-x="1103" d="M2 947v39h347v-659q0 -138 47.5 -182t114.5 -44q47 0 106 30t140 112v558q0 84 -31 114t-128 32v39h335v-598q0 -170 9 -208.5t26.5 -54t42.5 -15.5q34 0 75 21l15 -38l-295 -125h-49v211q-128 -137 -194 -174t-141 -37q-85 0 -145 49t-83.5 124.5t-23.5 213.5v440 q0 71 -15.5 98t-45 41.5t-107.5 12.5zM356 1559h97q17 -77 68 -110.5t129 -33.5q77 0 128 33.5t69 110.5h97q-2 -59 -20 -111.5t-54 -91.5t-90.5 -62t-129.5 -23t-129.5 23t-90.5 62t-54 91t-20 112z" />
<glyph unicode="&#x16e;" horiz-adv-x="1593" d="M11 1421v40h633v-40h-56q-91 0 -129 -57q-29 -38 -29 -161v-638q0 -85 15.5 -194.5t57.5 -172t118 -102t189 -39.5q143 0 257 63t155 160t41 331v592q0 136 -29 172q-42 46 -126 46h-55v40h516v-40h-52q-89 0 -135 -72q-23 -33 -22 -155v-594q0 -218 -43 -339.5 t-171.5 -209t-348.5 -87.5q-239 0 -362.5 84t-176.5 224q-33 96 -33 359v572q0 134 -37.5 176t-121.5 42h-55zM526 1825q0 55 19.5 98t54 71.5t80.5 43.5t98 15t98.5 -15t80.5 -43.5t53.5 -71.5t19.5 -98q0 -56 -19.5 -99t-53.5 -71.5t-80.5 -43.5t-98.5 -15t-98 15 t-80.5 43.5t-54 71t-19.5 99.5zM640 1825q0 -34 11 -58t29.5 -39t44 -22t53.5 -7q29 0 54 7t44 22t29.5 39t10.5 58t-10.5 58t-29.5 38.5t-44 22t-54 7.5t-54 -7.5t-43.5 -22t-29.5 -38.5t-11 -58z" />
<glyph unicode="&#x16f;" horiz-adv-x="1103" d="M2 947v39h347v-659q0 -138 47.5 -182t114.5 -44q47 0 106 30t140 112v558q0 84 -31 114t-128 32v39h335v-598q0 -170 9 -208.5t26.5 -54t42.5 -15.5q34 0 75 21l15 -38l-295 -125h-49v211q-128 -137 -194 -174t-141 -37q-85 0 -145 49t-83.5 124.5t-23.5 213.5v440 q0 71 -15.5 98t-45 41.5t-107.5 12.5zM386 1479q0 55 19.5 98t54 71.5t80.5 43.5t98 15t98 -15t80.5 -43.5t54 -71.5t19.5 -98q0 -56 -19.5 -99t-54 -71.5t-80.5 -43.5t-98 -15t-98 15t-80.5 43.5t-54 71t-19.5 99.5zM500 1479q0 -34 10.5 -58t29.5 -39t44 -22t54 -7t54 7 t44 22t29.5 39t10.5 58t-10.5 58t-29.5 38.5t-44 22t-54 7.5t-54 -7.5t-44 -22t-29.5 -39t-10.5 -57.5z" />
<glyph unicode="&#x170;" horiz-adv-x="1593" d="M11 1421v40h633v-40h-56q-91 0 -129 -57q-29 -38 -29 -161v-638q0 -85 15.5 -194.5t57.5 -172t118 -102t189 -39.5q143 0 257 63t155 160t41 331v592q0 136 -29 172q-42 46 -126 46h-55v40h516v-40h-52q-89 0 -135 -72q-23 -33 -22 -155v-594q0 -218 -43 -339.5 t-171.5 -209t-348.5 -87.5q-239 0 -362.5 84t-176.5 224q-33 96 -33 359v572q0 134 -37.5 176t-121.5 42h-55zM470 1617v28q22 34 46.5 72.5t48.5 79.5t45.5 81t37.5 75h224v-22q-11 -18 -31 -43t-45.5 -54t-54.5 -59t-59 -58.5t-58 -54.5t-52 -45h-102zM848 1617v28 q22 34 46.5 72.5t48.5 79.5t45.5 81t37.5 75h224v-22q-11 -18 -31 -43t-45.5 -54t-54.5 -59t-59 -58.5t-58 -54.5t-52 -45h-102z" />
<glyph unicode="&#x171;" horiz-adv-x="1103" d="M2 947v39h347v-659q0 -138 47.5 -182t114.5 -44q47 0 106 30t140 112v558q0 84 -31 114t-128 32v39h335v-598q0 -170 9 -208.5t26.5 -54t42.5 -15.5q34 0 75 21l15 -38l-295 -125h-49v211q-128 -137 -194 -174t-141 -37q-85 0 -145 49t-83.5 124.5t-23.5 213.5v440 q0 71 -15.5 98t-45 41.5t-107.5 12.5zM346 1271v27q22 34 46.5 73t48.5 80t45.5 81t37.5 75h225v-22q-11 -18 -31.5 -43t-46 -54t-54.5 -59t-59 -59t-58 -54.5t-51 -44.5h-103zM724 1271v27q22 34 46.5 73t48.5 80t45.5 81t37.5 75h224v-22q-11 -18 -31 -43t-45.5 -54 t-54.5 -59t-59 -59t-58 -54.5t-52 -44.5h-102z" />
<glyph unicode="&#x172;" horiz-adv-x="1593" d="M11 1421v40h633v-40h-56q-91 0 -129 -57q-29 -38 -29 -161v-638q0 -85 15.5 -194.5t57.5 -172t118 -102t189 -39.5q143 0 257 63t155 160t41 331v592q0 136 -29 172q-42 46 -126 46h-55v40h516v-40h-52q-89 0 -135 -72q-23 -33 -22 -155v-594q0 -218 -43 -339.5 t-171.5 -209t-348.5 -87.5q-239 0 -362.5 84t-176.5 224q-33 96 -33 359v572q0 134 -37.5 176t-121.5 42h-55zM572 -272q0 49 20.5 93t55.5 80.5t79.5 62t92.5 36.5h120q-33 -10 -67.5 -30.5t-63 -51t-47 -70t-18.5 -90.5q0 -35 11 -60t30.5 -40.5t46 -23.5t58.5 -8 q28 0 60.5 4.5t71.5 13.5v-114q-16 -8 -37 -14t-43.5 -10.5t-43.5 -7t-38 -2.5q-67 0 -120 14t-90.5 42t-57.5 72t-20 104z" />
<glyph unicode="&#x173;" horiz-adv-x="1103" d="M2 947v39h347v-659q0 -138 47.5 -182t114.5 -44q47 0 106 30t140 112v558q0 84 -31 114t-128 32v39h335v-598q0 -170 9 -208.5t26.5 -54t42.5 -15.5q34 0 75 21l15 -38l-295 -125h-49v211q-128 -137 -194 -174t-141 -37q-85 0 -145 49t-83.5 124.5t-23.5 213.5v440 q0 71 -15.5 98t-45 41.5t-107.5 12.5zM709 -272q0 49 20.5 93t55 80.5t79 62t92.5 36.5h120q-33 -10 -67.5 -30.5t-62.5 -51t-46.5 -70t-18.5 -90.5q0 -35 10.5 -60t30 -40.5t46 -23.5t58.5 -8q28 0 60.5 4.5t71.5 13.5v-114q-16 -8 -37 -14t-43.5 -10.5t-43.5 -7t-38 -2.5 q-67 0 -120 14t-90 42t-57 72t-20 104z" />
<glyph unicode="&#x174;" horiz-adv-x="2082" d="M29 1421v40h539v-40h-23q-57 0 -88.5 -25t-31.5 -63t49 -175l288 -819l243 698l-42 121l-36 99q-22 54 -50 96q-13 20 -36 32q-26 22 -54 29q-18 7 -63 7v40h567v-40h-38q-59 0 -87.5 -25t-28.5 -70q0 -55 48 -191l281 -796l278 807q48 132 48 184q0 25 -16.5 46 t-38.5 31q-41 14 -109 14v40h437v-40q-56 0 -92 -21t-68 -75q-20 -38 -67 -179l-407 -1180h-46l-330 935l-331 -935h-40l-435 1215q-48 135 -61 158q-20 43 -57.5 62.5t-101.5 19.5zM826 1617v28q25 30 54.5 68.5t59 80t55 83t41.5 76.5h199q16 -35 42 -76.5t55 -83 t58.5 -80.5t54.5 -68v-28h-82q-60 35 -120.5 86.5t-107.5 101.5q-48 -50 -107.5 -101.5t-119.5 -86.5h-82z" />
<glyph unicode="&#x175;" horiz-adv-x="1593" d="M13 947v39h414v-39q-56 -5 -74 -20t-18 -46q0 -34 18 -82l212 -568l211 461l-54 147q-27 67 -69 90q-25 16 -88 18v39h470v-39q-78 -2 -110 -27q-22 -16 -22 -55q0 -23 9 -44l225 -567l206 545q23 60 23 92q0 24 -20.5 39t-82.5 17v39h310v-39q-94 -14 -138 -126 l-329 -853h-44l-247 632l-288 -632h-40l-317 831q-31 80 -60.5 107t-96.5 41zM623 1271v27q25 30 54.5 69t58.5 80.5t54.5 83t42.5 76.5h198q16 -35 42 -76.5t55 -83t59 -80.5t54 -69v-27h-82q-60 35 -120.5 86.5t-107.5 101.5q-48 -50 -107.5 -101.5t-118.5 -86.5h-82z" />
<glyph unicode="&#x176;" horiz-adv-x="1593" d="M19 1421v40h625v-40h-31q-50 0 -93.5 -23t-43.5 -72q0 -39 67 -139l304 -472l288 450q63 101 63 153q0 29 -15.5 53t-44 37t-85.5 13v40h510v-40h-30q-28 0 -82 -24t-98.5 -70.5t-108.5 -151.5l-353 -555v-366q0 -134 31 -168q43 -46 131 -46h46v-40h-620v40h51 q93 0 132 55q25 36 24 159v344l-401 612q-70 110 -95.5 136.5t-105.5 64.5q-23 10 -65 10zM350 1617v28q25 30 54.5 68.5t59 80t55 83t41.5 76.5h199q16 -35 41.5 -76.5t55 -83t59 -80.5t54.5 -68v-28h-82q-60 35 -120.5 86.5t-108.5 101.5q-48 -50 -107 -101.5t-119 -86.5 h-82z" />
<glyph unicode="&#x177;" horiz-adv-x="1103" d="M13 947v39h459v-39h-21q-49 0 -73.5 -21t-24.5 -53q0 -42 35 -116l241 -496l220 545q20 43 20 85q0 22 -9 29q-7 13 -25 20t-64 7v39h320v-39q-40 -5 -61 -17t-49 -49q-9 -13 -36 -82l-402 -984q-57 -143 -152.5 -217t-180.5 -74q-65 0 -106 36t-41 85q0 44 30.5 71.5 t80.5 27.5q36 0 98 -22q43 -17 53 -17q34 0 71.5 33t75.5 130l71 172l-355 743q-16 34 -52 84q-27 38 -43 51q-25 15 -80 29zM310 1271v27q25 30 54.5 69t59 80.5t55 83t41.5 76.5h199q16 -35 41.5 -76.5t55 -83t59 -80.5t54.5 -69v-27h-82q-60 35 -120.5 86.5t-108.5 101.5 q-48 -50 -107 -101.5t-119 -86.5h-82z" />
<glyph unicode="&#x178;" horiz-adv-x="1593" d="M19 1421v40h625v-40h-31q-50 0 -93.5 -23t-43.5 -72q0 -39 67 -139l304 -472l288 450q63 101 63 153q0 29 -15.5 53t-44 37t-85.5 13v40h510v-40h-30q-28 0 -82 -24t-98.5 -70.5t-108.5 -151.5l-353 -555v-366q0 -134 31 -168q43 -46 131 -46h46v-40h-620v40h51 q93 0 132 55q25 36 24 159v344l-401 612q-70 110 -95.5 136.5t-105.5 64.5q-23 10 -65 10zM368 1789q0 33 8 55.5t22.5 36t34 20t41.5 6.5q23 0 42.5 -6.5t34 -20t23 -36t8.5 -55.5q0 -32 -8.5 -54.5t-23 -37t-34 -20.5t-42.5 -6q-46 0 -76 26.5t-30 91.5zM766 1789 q0 33 8 55.5t22.5 36t34 20t41.5 6.5q23 0 42.5 -6.5t34.5 -20t23 -36t8 -55.5q0 -32 -8 -54.5t-23 -37t-34.5 -20.5t-42.5 -6q-46 0 -76 26.5t-30 91.5z" />
<glyph unicode="&#x179;" horiz-adv-x="1348" d="M29 0v40l936 1335h-466q-117 0 -170 -25t-80 -73.5t-51 -179.5h-39l29 364h1081l-960 -1373h600q137 0 211 61t131 244l36 -7l-69 -386h-1189zM507 1617v28q24 30 49 68.5t49 80t46 83t38 76.5h224v-22q-19 -28 -57 -69t-84 -86t-94.5 -87.5t-90.5 -71.5h-80z" />
<glyph unicode="&#x17a;" horiz-adv-x="978" d="M44 0v40l655 872h-324q-102 0 -134.5 -13.5t-55.5 -51.5q-29 -54 -32 -133h-43l8 272h827v-39l-663 -874h360q113 0 153.5 18.5t64.5 65.5q18 35 29 146h38l-11 -303h-872zM438 1271v27q24 30 49 69t49 80.5t46 83t39 76.5h224v-22q-19 -28 -57 -69t-84.5 -86.5t-95 -88 t-90.5 -70.5h-80z" />
<glyph unicode="&#x17b;" horiz-adv-x="1348" d="M29 0v40l936 1335h-466q-117 0 -170 -25t-80 -73.5t-51 -179.5h-39l29 364h1081l-960 -1373h600q137 0 211 61t131 244l36 -7l-69 -386h-1189zM532 1779q0 37 9.5 61.5t26 39.5t38 21.5t46.5 6.5t46.5 -6.5t38 -21.5t26 -39.5t9.5 -61.5t-9.5 -61.5t-26 -40t-38 -22 t-46.5 -6.5q-26 0 -47 6.5t-37.5 22t-26 40t-9.5 61.5z" />
<glyph unicode="&#x17c;" horiz-adv-x="978" d="M44 0v40l655 872h-324q-102 0 -134.5 -13.5t-55.5 -51.5q-29 -54 -32 -133h-43l8 272h827v-39l-663 -874h360q113 0 153.5 18.5t64.5 65.5q18 35 29 146h38l-11 -303h-872zM438 1433q0 37 9.5 61.5t25.5 39.5t37.5 21.5t47.5 6.5q25 0 46.5 -6.5t37.5 -21.5t26 -40 t10 -61q0 -37 -10 -61.5t-26 -40t-37.5 -22t-46.5 -6.5q-26 0 -47.5 6.5t-37.5 22t-25.5 40t-9.5 61.5z" />
<glyph unicode="&#x17d;" horiz-adv-x="1348" d="M29 0v40l936 1335h-466q-117 0 -170 -25t-80 -73.5t-51 -179.5h-39l29 364h1081l-960 -1373h600q137 0 211 61t131 244l36 -7l-69 -386h-1189zM328 1925v28h82q30 -18 60 -41t59 -48t56 -51t51 -52q24 26 51 52t56.5 51t60.5 47.5t60 41.5h82v-28q-25 -30 -54.5 -68.5 t-58.5 -80t-54.5 -82.5t-42.5 -77h-198q-16 36 -42 77t-55 82.5t-59 80t-54 68.5z" />
<glyph unicode="&#x17e;" horiz-adv-x="978" d="M44 0v40l655 872h-324q-102 0 -134.5 -13.5t-55.5 -51.5q-29 -54 -32 -133h-43l8 272h827v-39l-663 -874h360q113 0 153.5 18.5t64.5 65.5q18 35 29 146h38l-11 -303h-872zM253 1579v28h82q30 -18 60 -41t59 -48t56.5 -51t50.5 -52q24 26 51 52t56.5 51t60.5 47.5 t61 41.5h81v-28q-25 -30 -54.5 -69t-58.5 -80t-54.5 -82t-41.5 -77h-199q-16 36 -42 77t-55 82t-58.5 80t-54.5 69z" />
<glyph unicode="&#x17f;" horiz-adv-x="744" d="M28 0v88h26q36 0 67.5 5t54.5 21t36.5 45.5t13.5 79.5v990q0 94 26 165.5t74.5 121t117 74.5t154.5 25q82 0 138 -11t90.5 -30.5t49.5 -46t15 -59.5q0 -57 -47.5 -87t-124.5 -30q0 32 -6.5 62t-22.5 53.5t-42.5 38t-66.5 14.5q-89 0 -123 -69.5t-34 -201.5v-1009 q0 -49 13.5 -79t37 -46t54.5 -21t67 -5h79v-88h-647z" />
<glyph unicode="&#x2c6;" horiz-adv-x="1142" d="M184 1212l308 474h157l308 -474h-76l-311 284l-309 -284h-77z" />
<glyph unicode="&#x2c7;" horiz-adv-x="1142" d="M184 1686h77l309 -284l311 284h76l-308 -474h-157z" />
<glyph unicode="&#x2c9;" horiz-adv-x="1142" d="M284 1302v171h575v-171h-575z" />
<glyph unicode="&#x2d8;" horiz-adv-x="1142" d="M245 1581h65q23 -102 97 -150t216 -48q139 0 212.5 47.5t95.5 150.5h66q-26 -185 -121 -281.5t-253 -96.5t-255 97t-123 281z" />
<glyph unicode="&#x2d9;" horiz-adv-x="1142" d="M398 1420q0 7 5 17t16 18l94 100q8 7 18 12t19 5t18 -4.5t18 -12.5l97 -104q6 -7 9 -15.5t3 -18.5q-1 -12 -4 -20t-11 -18l-98 -104q-16 -15 -21.5 -18.5t-10.5 -3.5q-13 0 -22.5 3.5t-14.5 12.5l-103 120q-5 5 -8.5 12.5t-3.5 18.5z" />
<glyph unicode="&#x2da;" horiz-adv-x="1142" d="M374 1426q0 94 64 158.5t157 64.5q94 0 159 -64.5t65 -158.5q0 -93 -65 -158t-159 -65q-93 0 -157 65t-64 158zM489 1426q0 -47 33.5 -80.5t82.5 -33.5q47 0 81 33.5t34 80.5q0 46 -34.5 80t-80.5 34q-48 0 -82 -34t-34 -80z" />
<glyph unicode="&#x2db;" horiz-adv-x="1142" d="M319 -416q0 120 95 245.5t253 211.5h75q-110 -97 -171.5 -187t-61.5 -177q0 -73 42.5 -116.5t114.5 -43.5q61 0 107.5 24.5t77.5 76.5l44 -27q-56 -97 -141 -150t-188 -53q-109 0 -178 55t-69 141z" />
<glyph unicode="&#x2dc;" horiz-adv-x="1142" d="M208 1214q25 166 86 247.5t164 81.5q58 -2 143 -38q80 -35 142 -35h5q45 0 73 30.5t45 102.5h69q-26 -160 -87 -239t-160 -79h-6q-62 0 -142 35q-84 38 -145 38q-49 0 -76 -32t-43 -112h-68z" />
<glyph unicode="&#x2dd;" horiz-adv-x="1142" d="M160 1183l212 402q36 66 67.5 93.5t67.5 27.5q42 0 71.5 -29t29.5 -69q0 -24 -15 -52t-45 -61l-301 -312h-87zM560 1183l212 402q35 66 66.5 93.5t68.5 27.5q41 0 71 -29t30 -69q0 -24 -16 -52t-46 -61l-301 -312h-85z" />
<glyph unicode="&#x1000;" horiz-adv-x="2162" d="M121 553q0 218 165 373q178 146 390 146q119 0 223.5 -54.5t185.5 -155.5q84 100 192.5 155t243.5 55q210 0 371 -149q155 -150 155 -370q0 -212 -160 -380q-160 -170 -366 -176q-10 0 -25 1.5t-34 4.5q-17 2 -37 3.5t-39 1.5v147q173 0 266 39q239 102 238 359 q0 141 -112 252q-119 110 -257 109q-237 0 -350 -190q29 -79 29 -171q0 -353 -382 -550l-42 143q31 24 74.5 61t98.5 87q89 115 89 259q0 139 -110 249q-113 113 -252 112q-118 0 -216.5 -68t-147.5 -177q-30 -66 -29 -116q0 -270 270 -403l-42 -147q-390 170 -390 550z" />
<glyph unicode="&#x1001;" horiz-adv-x="1269" d="M105 346v13q8 20 16 29q195 123 364 123q153 0 247 -32q50 -15 102.5 -41t104.5 -68q22 47 31 89t9 94q0 230 -210 338q-79 35 -181 35q-175 0 -294 -155q-12 -18 -24 -40.5t-23 -43.5l-142 66q84 197 299 287q81 32 184 32q218 0 380 -146q166 -155 166 -373 q0 -257 -190 -422q-155 -131 -330 -131q-76 0 -154.5 21t-142.5 58q-66 37 -120.5 97t-82.5 128q-8 18 -9 42zM302 309q105 -151 307 -151q155 0 233 89q-155 115 -357 114q-84 0 -183 -52z" />
<glyph unicode="&#x1002;" horiz-adv-x="1297" d="M115 527q0 199 112 345q152 197 436 197q168 0 300 -91.5t190 -251.5q34 -91 34 -207q0 -79 -29 -156t-79 -145t-120.5 -126t-151.5 -97l-40 151q265 171 265 373q0 86 -26 158.5t-74.5 125t-117 81t-148.5 28.5q-79 0 -150.5 -28.5t-124.5 -79.5t-86 -125t-36 -160 q3 -191 262 -373l-42 -154q-99 69 -168.5 122.5t-108.5 100.5q-45 60 -71 138.5t-26 173.5z" />
<glyph unicode="&#x1003;" horiz-adv-x="2156" d="M99 968q60 44 121 71.5t128 32.5h13q165 0 165 -183q0 -57 -49 -108q7 0 -13 -5q-8 -5 -27.5 -18.5t-48.5 -33.5q-129 -87 -129 -231q0 -150 121 -254q113 -94 267 -95h13q168 7 276 142q47 60 71.5 132t24.5 164q-12 97 -89 201q-36 53 -81 91t-92 67l40 136 q136 -57 249 -215q57 -76 87.5 -149t30.5 -133q0 -79 -34 -242q92 -99 179.5 -146.5t179.5 -47.5q126 0 217.5 76t141.5 187q30 79 29 112q0 165 -107 286q-55 60 -121 94t-148 34h-94v129h124q202 0 346 -153q149 -165 149 -390q0 -202 -167 -359q-166 -157 -370 -157 q-113 0 -250 63q-59 27 -106.5 63t-76.5 78q-89 -99 -190 -153t-219 -54q-126 0 -233.5 48.5t-185.5 134.5q-133 150 -133 307q0 202 141 300l81 54q50 35 50 58q0 31 -34 31h-29q-6 -5 -16 -6t-23 -6q8 7 -14 -9q-10 -5 -12 -8q-30 -15 -55 -47z" />
<glyph unicode="&#x1004;" horiz-adv-x="1282" d="M104 553q0 220 148 368q73 71 164.5 109.5t204.5 41.5h16q359 0 514 -359l-129 -42l-15 8q-118 236 -362 235h-24q-241 -12 -328 -250q-26 -60 -26 -113q0 -121 58 -216.5t162 -148.5q62 -32 131 -31q230 0 380 233l140 -60q-63 -111 -147 -181.5t-176 -109.5 q-84 -37 -197 -37q-223 0 -372 173q-141 158 -142 380z" />
<glyph unicode="&#x1005;" horiz-adv-x="1293" d="M94 519q0 230 155 393q158 160 388 160q215 0 373 -160q154 -159 154 -367q0 -212 -157 -377q-158 -168 -370 -168q-133 0 -242 51t-185 146q-50 69 -83 155t-33 167zM242 519q7 -126 106 -241q108 129 108 273q0 143 -102 244q-53 -60 -82.5 -123.5t-29.5 -133.5v-19z M472 183q71 -32 138 -31h27q150 6 262 123q116 115 116 270q0 139 -121 257q-118 119 -257 119q-84 0 -163 -35q69 -76 100 -157.5t31 -175.5q-5 -205 -133 -370z" />
</font>
</defs>
</svg>
