<?xml version="1.0" standalone="no"?>
<!DOCTYPE svg PUBLIC "-//W3C//DTD SVG 1.1//EN" "http://www.w3.org/Graphics/SVG/1.1/DTD/svg11.dtd" >
<svg xmlns="http://www.w3.org/2000/svg" xmlns:xlink="http://www.w3.org/1999/xlink" version="1.1">
<metadata></metadata>
<defs>
<font id="myanmar_sanpyaregular" horiz-adv-x="0" >
<font-face units-per-em="2048" ascent="1536" descent="-512" />
<missing-glyph horiz-adv-x="518" />
<glyph unicode="&#x103e;&#x102f;" d="M-944 -424h143v363h168v-498h-311v135zM-494 -61h168v-363h144v-135h-312v498z" />
<glyph unicode="&#x1085;&#x1036;" d="M-975 1374q0 102 96 152q-96 49 -96 151q0 207 420 207v-135q-264 0 -264 -72q0 -86 215 -106v-90q-215 -21 -215 -107q0 -72 264 -71v-136q-420 0 -420 207zM-522 1526q0 186 186 186t186 -186t-186 -187q-186 0 -186 187zM-397 1526q0 -61 61 -62q62 1 62 62t-62 61 q-61 0 -61 -61z" />
<glyph unicode="&#x1085;&#x102d;" d="M-1030 1374q0 102 96 152q-96 49 -96 151q0 207 358 207v-135q-203 0 -202 -72q0 -86 153 -106v-90q-153 -21 -153 -107q0 -72 202 -71v-136q-358 0 -358 207zM-608 1526q0 358 256 358t256 -358t-256 -359q-256 0 -256 359zM-473 1526q0 -223 121 -223t121 223t-121 223 t-121 -223z" />
<glyph unicode="&#x1085;&#x102e;" d="M-1030 1374q0 102 96 152q-96 49 -96 151q0 207 358 207v-135q-203 0 -202 -72q0 -86 153 -106v-90q-153 -21 -153 -107q0 -72 202 -71v-136q-358 0 -358 207zM-608 1526q0 358 256 358t256 -358t-256 -359q-256 0 -256 359zM-473 1536q55 12 117 12q68 0 125 -14 q-2 215 -121 215t-121 -213zM-463 1413q27 -111 111 -110q84 0 108 106q-49 18 -112 18q-60 0 -107 -14z" />
<glyph unicode="&#x102d;&#x1036;" d="M-1022 1526q0 358 265 358t265 -358t-265 -358.5t-265 358.5zM-897 1526q0 -223 140.5 -223t140.5 223t-140.5 223t-140.5 -223zM-444 1526q0 186 172 186t172 -186t-172 -187q-172 0 -172 187zM-330 1526q0 -61 58 -62q57 1 57 62t-57 61t-58 -61z" />
<glyph unicode="&#x100d;&#x1039;&#x100d;" horiz-adv-x="1126" d="M102 121v301l160 43q63 -147 281 -148q313 0 313 308q0 305 -313 305q-217 0 -281 -144l-160 41q96 238 441 238q481 0 481 -440q0 -438 -481 -439q-164 0 -273 50v-82q119 -51 293 -52q199 0 324 84l137 -51v-559h102v-135h-270v598q-125 -39 -293 -39q-295 0 -461 121z M143 -145q61 109 285 108q309 0 309 -188q0 -186 -309 -187q-129 0 -205 37v-47q100 -45 213 -45q186 0 287 94h29v-100q0 -23 45 -23h22v-63h-22q-125 0 -125 65v9q-98 -45 -236 -45q-184 0 -293 77v150l109 41q41 -57 176 -57q193 0 193 94q0 96 -193 96q-135 0 -176 -59z " />
<glyph unicode="&#x100e;&#x1039;&#x100d;" horiz-adv-x="1329" d="M100 532q0 160 228 240q76 29 75 80q0 12 -4 27q-16 47 -61 47q-25 0 -57 -15l-129 -49l-52 123l129 53q68 27 121 27q123 0 174 -137q18 -49 19 -92q0 -127 -166 -193q-109 -41 -109 -111q0 -397 396 -397q143 0 235 53v50q-98 -43 -235 -43q-201 0 -318 88l19 63 q135 -90 299 -90q186 0 286 92h29v-92q80 98 80 276q0 336 -185 402l56 131q297 -86 297 -533q0 -352 -248 -473v-180q0 -23 45 -22h23v-68h-23q-125 0 -125 70v172q-102 -31 -235 -31q-563 0 -564 532zM371 416l108 43q41 -57 176 -58q193 0 193 93q0 94 -193 94 q-135 0 -176 -58l-108 41q61 106 284 107q309 0 310 -184q0 -184 -310 -185q-223 0 -284 107z" />
<glyph unicode="&#x100f;&#x1039;&#x100d;" horiz-adv-x="2211" d="M102 532q0 532 461 533q195 0 307 -96q63 96 236 96q172 0 235 -96q113 96 308 96q461 0 460 -533q0 -381 -217 -499h47v-176h-380q47 -51 47 -148q0 -170 -146 -264h-342l-51 90q178 37 178 162q0 160 -397 160t-397 -160q0 -104 178 -141l-51 -111q-262 53 -263 252 q0 276 533 276q532 0 532 -276q0 -94 -59 -135h98q63 47 64 147q0 113 -103 185l62 79h362v45l-47 113q184 66 185 401q0 397 -293 398q-293 0 -293 -398q0 -127 8 -178l2 -24q18 -68 18 -119q0 -211 -278 -211q-279 0 -279 211q0 51 19 119l4 24q6 51 6 178q0 397 -293 398 q-293 0 -293 -398q0 -336 185 -401l-56 -131q-297 86 -297 532zM963 852q61 -123 61 -320q0 -127 -25 -225q-18 -47 -18 -82q0 -90 125 -90t125 90q0 35 -19 82q-24 98 -24 225q0 197 61 320q-29 78 -143 78q-115 0 -143 -78z" />
<glyph unicode="&#x103e;&#x1030;" d="M-1004 -424h123v363h154v-498h-277v135zM-639 -61h152v-498h-152v498zM-399 -61h153v-363h123v-135h-276v498z" />
<glyph unicode="&#x102b;&#x103a;" horiz-adv-x="372" d="M-446 1167q0 358 358 359q184 0 274 -96q90 96 275 96q358 0 358 -359h-135q0 224 -223 224q-190 0 -191 -224v-1167h-168v1167q0 223 -190 224q-223 0 -223 -224h-135z" />
<glyph unicode="&#x103d;&#x1037;" d="M-879 -303q0 256 256 256t256 -256t-256 -256t-256 256zM-766 -303q0 -143 143 -143t144 143q0 143 -144 143q-143 0 -143 -143zM-334 -262q0 164 164 164t164 -164t-164 -164t-164 164zM-231 -262q0 -61 61 -62q61 1 61 62t-61 61t-61 -61z" />
<glyph unicode="&#xd;" horiz-adv-x="1040" />
<glyph unicode=" "  horiz-adv-x="518" />
<glyph unicode="&#x09;" horiz-adv-x="518" />
<glyph unicode="&#xa0;" horiz-adv-x="518" />
<glyph unicode="!" horiz-adv-x="591" d="M174 102q0 59 36 95t87 36q49 0 85 -35.5t36 -95.5q0 -55 -36 -91t-85 -36q-51 0 -87 36t-36 91zM211 1372h170l-4 -192l-23 -774h-116l-23 774z" />
<glyph unicode="&#x22;" horiz-adv-x="870" d="M164 1413h180l-6 -188l-33 -342h-102l-33 342zM524 1413h181l-7 -188l-32 -342h-103l-33 342z" />
<glyph unicode="#" horiz-adv-x="1017" d="M72 418v117h178l37 303h-174v118h188l47 375h109l-47 -375h272l49 375h109l-49 -375h165v-118h-178l-37 -303h174v-117h-188l-51 -418h-109l49 418h-270l-51 -418h-111l52 418h-164zM360 535h271l37 303h-271z" />
<glyph unicode="$" horiz-adv-x="1017" d="M106 135l78 117q66 -57 145 -97t173 -40q115 0 171 57t56 154q0 82 -42 136t-105.5 94t-138 75t-138 80t-105.5 109.5t-42 164.5q0 137 80.5 228.5t216.5 113.5v205h123v-203q98 -10 166.5 -53t123.5 -102l-90 -101q-57 55 -111.5 86t-138.5 31q-94 0 -149 -53.5 t-55 -143.5q0 -74 42 -121t105.5 -82.5t138 -69.5t138 -82t105.5 -118.5t42 -181.5q0 -147 -85 -241.5t-232 -114.5v-207h-123v202q-98 10 -190.5 54.5t-158.5 103.5z" />
<glyph unicode="%" horiz-adv-x="1687" d="M72 946q0 203 83 312.5t222 109.5q137 0 221 -109.5t84 -312.5q0 -205 -84 -315.5t-221 -110.5q-139 0 -222 110.5t-83 315.5zM199 946q0 -160 49 -240.5t129 -80.5q78 0 127 80.5t49 240.5t-49 239t-127 79q-80 0 -129 -79t-49 -239zM414 -25l741 1393h115l-742 -1393 h-114zM1008 401q0 203 83 312.5t222 109.5q137 0 221 -109.5t84 -312.5q0 -205 -84 -315.5t-221 -110.5q-139 0 -222 111t-83 315zM1135 401q0 -160 49 -240.5t129 -80.5q78 0 127 81t49 240q0 160 -49 239t-127 79q-80 0 -129 -79t-49 -239z" />
<glyph unicode="&#x26;" horiz-adv-x="1247" d="M66 348q0 68 21.5 123t58 102.5t85 87t99.5 74.5q-41 84 -64.5 163t-23.5 153q0 68 22.5 125t63.5 100t98 67.5t127 24.5q125 0 194.5 -73.5t69.5 -192.5q0 -66 -26.5 -121t-69.5 -103.5t-97.5 -90.5t-109.5 -82q66 -104 155 -200.5t185 -176.5q61 84 109.5 182t78.5 215 h158q-41 -133 -98.5 -254t-136.5 -227q70 -47 133 -80t119 -49l-46 -140q-72 20 -149.5 58.5t-159.5 95.5q-78 -70 -173 -112t-214 -42q-92 0 -167 28t-129 77t-83.5 117.5t-29.5 150.5zM229 358q0 -55 20.5 -101t56.5 -79t84 -50t104 -17q70 0 133 28.5t123 79.5 q-98 86 -189.5 188.5t-163.5 210.5q-72 -57 -120 -119.5t-48 -140.5zM387 1053q0 -55 17.5 -114.5t46.5 -121.5q45 31 87 62.5t73.5 65.5t50 72t18.5 83q0 59 -29.5 103t-97.5 44q-76 0 -121 -55t-45 -139z" />
<glyph unicode="'" horiz-adv-x="509" d="M164 1413h180l-6 -188l-33 -342h-102l-33 342z" />
<glyph unicode="(" horiz-adv-x="620" d="M168 569q0 270 71.5 496.5t198.5 433.5l105 -49q-119 -197 -177.5 -421t-58.5 -460t58.5 -460t177.5 -420l-105 -49q-127 205 -198.5 432t-71.5 497z" />
<glyph unicode=")" horiz-adv-x="620" d="M78 -311q119 197 177 421t58 459q0 236 -58 460t-177 421l104 49q127 -207 199 -433t72 -497q0 -270 -72 -497.5t-199 -431.5z" />
<glyph unicode="*" horiz-adv-x="856" d="M119 1194l31 94l208 -51l19 221h100l19 -219l211 49l30 -94l-198 -82l114 -192l-80 -60l-145 176l-145 -176l-82 60l116 192z" />
<glyph unicode="+" horiz-adv-x="1017" d="M70 612v127h372v400h133v-400h373v-127h-373v-399h-133v399h-372z" />
<glyph unicode="," horiz-adv-x="509" d="M96 -250q86 39 135.5 102.5t49.5 147.5q-6 -2 -21 -2q-49 0 -85 29.5t-36 87.5q0 55 37 86.5t88 31.5q66 0 104 -53t38 -145q0 -133 -72 -231.5t-197 -151.5z" />
<glyph unicode="-" horiz-adv-x="636" d="M84 449v129h471v-129h-471z" />
<glyph unicode="." horiz-adv-x="509" d="M133 102q0 59 36 95t87 36q49 0 85 -35.5t36 -95.5q0 -55 -36 -91t-85 -36q-51 0 -87 36t-36 91z" />
<glyph unicode="/" horiz-adv-x="716" d="M20 -328l547 1782h123l-547 -1782h-123z" />
<glyph unicode="0" horiz-adv-x="1017" d="M90 657q0 330 110.5 502t309.5 172q197 0 307.5 -172t110.5 -502t-110.5 -506t-307.5 -176q-199 0 -309.5 176.5t-110.5 505.5zM254 657q0 -287 70.5 -416.5t185.5 -129.5q57 0 103 31.5t80 98t52.5 170t18.5 246.5t-18.5 246t-52.5 167.5t-80 95t-103 30.5t-104.5 -30.5 t-81 -95t-52 -167t-18.5 -246.5z" />
<glyph unicode="1" horiz-adv-x="1017" d="M162 0v139h299v963h-238v108q90 16 156.5 40t120.5 57h129v-1168h270v-139h-737z" />
<glyph unicode="2" horiz-adv-x="1017" d="M74 1133q82 90 174 144t221 54q182 0 286.5 -105.5t104.5 -279.5q0 -92 -40 -185t-110.5 -192.5t-168 -207t-213.5 -228.5q53 4 110.5 8t108.5 4h379v-145h-844v100q147 147 262 266t192.5 220.5t118.5 186.5t41 165q0 113 -61.5 184.5t-185.5 71.5q-82 0 -152 -46 t-127 -112z" />
<glyph unicode="3" horiz-adv-x="1017" d="M53 160l86 110q59 -61 138 -108t196 -47q119 0 194.5 64.5t75.5 174.5q0 57 -21.5 105.5t-70.5 83.5t-129 53t-196 18v129q104 0 174.5 18.5t114.5 51.5t62.5 78t18.5 96q0 96 -60.5 151.5t-164.5 55.5q-82 0 -150.5 -37t-127.5 -96l-91 106q76 72 167 118t208 46 q86 0 158 -22.5t124 -64.5t80.5 -103.5t28.5 -141.5q0 -119 -65.5 -194.5t-171.5 -116.5v-8q59 -14 110.5 -42t90 -70t60 -97t21.5 -123q0 -86 -33.5 -155.5t-92 -117.5t-136.5 -74t-168 -26q-78 0 -142.5 15.5t-117.5 41t-95 58.5t-75 70z" />
<glyph unicode="4" horiz-adv-x="1017" d="M35 360v111l559 836h188v-811h179v-136h-179v-360h-159v360h-588zM213 496h410v378q0 53 3 126t7 126h-8q-25 -47 -51.5 -92t-55.5 -92z" />
<glyph unicode="5" horiz-adv-x="1017" d="M51 154l82 110q57 -59 136 -104t194 -45q59 0 111.5 21.5t91.5 60.5t61.5 94t22.5 123q0 135 -76 210.5t-203 75.5q-68 0 -116 -20.5t-107 -58.5l-90 57l43 629h653v-146h-506l-35 -387q47 25 94.5 39t106.5 14q84 0 157.5 -24.5t129 -74.5t87.5 -127t32 -183t-37 -188.5 t-98.5 -138.5t-140.5 -86t-165 -30q-78 0 -142.5 15.5t-116.5 40t-94 56.5t-75 67z" />
<glyph unicode="6" horiz-adv-x="1017" d="M98 604q0 197 41 335t110.5 225t159 127t187.5 40q106 0 183 -40t132 -99l-94 -105q-41 47 -97 75t-118 28q-68 0 -129 -28.5t-108.5 -94.5t-76 -171t-30.5 -261q61 76 143 120t162 44q170 0 271.5 -100.5t101.5 -303.5q0 -94 -31 -171t-84 -132t-122.5 -86t-149.5 -31 q-96 0 -178 39t-142.5 118t-95.5 196.5t-35 275.5zM262 500q16 -193 89 -292t198 -99q49 0 90 20.5t71.5 58t48 90t17.5 117.5q0 129 -59.5 203t-181.5 74q-61 0 -134 -40t-139 -132z" />
<glyph unicode="7" horiz-adv-x="1017" d="M90 1161v146h842v-105q-117 -147 -189.5 -282.5t-115.5 -275.5t-62.5 -297t-27.5 -347h-175q8 184 33 338t69 292t112.5 267t164.5 264h-651z" />
<glyph unicode="8" horiz-adv-x="1017" d="M84 334q0 63 21.5 117.5t55.5 98.5t78 78t91 58v8q-72 51 -127.5 124t-55.5 177q0 76 29 137.5t78 105.5t116.5 68.5t147.5 24.5q86 0 153.5 -25.5t116 -71.5t74 -110.5t25.5 -140.5q0 -51 -17.5 -98t-43 -88t-57.5 -74t-62 -55v-9q43 -25 83.5 -56.5t72.5 -71t51.5 -91 t19.5 -116.5q0 -74 -31 -137.5t-86 -110.5t-133 -74t-172 -27q-92 0 -171 27t-135 75t-89 113.5t-33 143.5zM236 350q0 -55 21.5 -100t59 -79t89 -52.5t110.5 -18.5q115 0 185.5 63.5t70.5 166.5q0 63 -28.5 108t-78 79t-114 61.5t-133.5 56.5q-78 -53 -130 -124t-52 -161z M303 995q0 -59 24.5 -101t66.5 -75t96.5 -58t113.5 -48q66 59 101.5 124.5t35.5 137.5q0 98 -59 164.5t-168 66.5q-92 0 -151.5 -57t-59.5 -154z" />
<glyph unicode="9" horiz-adv-x="1017" d="M82 911q0 94 30.5 171t83 132.5t123 86t148.5 30.5q96 0 179 -39t143.5 -117.5t94.5 -196.5t34 -276q0 -197 -41 -335t-111 -225t-159 -127t-187 -40q-104 0 -183 39t-133 99l95 106q41 -47 97 -75.5t118 -28.5q70 0 131 28.5t108 95t76 173t31 264.5q-61 -78 -143 -123 t-164 -45q-170 0 -270.5 100.5t-100.5 302.5zM240 911q0 -129 59 -202.5t182 -73.5q63 0 136 40t139 134q-16 193 -90 291t-199 98q-47 0 -89 -20.5t-73 -58.5t-48 -91t-17 -117z" />
<glyph unicode=":" horiz-adv-x="509" d="M133 102q0 59 36 95t87 36q49 0 85 -35.5t36 -95.5q0 -55 -36 -91t-85 -36q-51 0 -87 36t-36 91zM133 842q0 59 36 95t87 36q49 0 85 -36t36 -95q0 -55 -36 -91t-85 -36q-51 0 -87 36t-36 91z" />
<glyph unicode=";" horiz-adv-x="509" d="M96 -250q86 39 135.5 102.5t49.5 147.5q-6 -2 -21 -2q-49 0 -85 29.5t-36 87.5q0 55 37 86.5t88 31.5q66 0 104 -53t38 -145q0 -133 -72 -231.5t-197 -151.5zM133 842q0 59 36 95t87 36q49 0 85 -36t36 -95q0 -55 -36 -91t-85 -36q-51 0 -87 36t-36 91z" />
<glyph unicode="&#x3c;" horiz-adv-x="1017" d="M70 612v136l878 344v-146l-432 -160l-274 -102v-8l274 -103l432 -159v-146z" />
<glyph unicode="=" horiz-adv-x="1017" d="M70 395v127h878v-127h-878zM70 831v127h878v-127h-878z" />
<glyph unicode="&#x3e;" horiz-adv-x="1017" d="M70 268v146l432 159l274 103v8l-274 102l-432 160v146l878 -344v-136z" />
<glyph unicode="?" horiz-adv-x="870" d="M78 1227q66 74 149.5 122t194.5 48q160 0 255 -87t95 -241q0 -68 -24.5 -123t-60.5 -104t-76 -97.5t-73.5 -99.5t-52 -109.5t-10.5 -129.5h-147q-12 80 5 144t48 118.5t71 101.5t74.5 93t58 93.5t23.5 102.5q0 82 -50 140t-148 58q-68 0 -128.5 -31.5t-107.5 -86.5z M285 102q0 59 34.5 95t86.5 36q51 0 86.5 -35.5t35.5 -95.5q0 -55 -35.5 -91t-86.5 -36t-86 36t-35 91z" />
<glyph unicode="@" horiz-adv-x="1734" d="M104 416q0 205 69 372.5t186.5 286.5t272 183.5t326.5 64.5q156 0 280 -49t211 -138t134 -214t47 -277q0 -135 -38 -236.5t-97 -170t-132 -103.5t-142 -35q-84 0 -142.5 39t-68.5 117h-4q-51 -59 -117 -99t-133 -40q-104 0 -175 73.5t-71 215.5q0 82 27.5 166.5t79 153.5 t124 112t162.5 43q53 0 94 -23.5t70 -75.5h4l23 82h112l-80 -409q-61 -240 111 -240q49 0 97 28.5t88 83t64.5 133.5t24.5 179q0 123 -35.5 228.5t-107.5 181t-178.5 118.5t-245.5 43q-137 0 -266 -56t-229.5 -158.5t-161 -248t-60.5 -325.5q0 -150 46 -266.5t128 -196.5 t194 -122t243 -42q94 0 178 25.5t153 66.5l45 -100q-174 -104 -389 -104q-152 0 -282.5 47t-228 140t-154 230.5t-56.5 315.5zM645 416q0 -98 41 -141.5t102 -43.5q43 0 89.5 29t99.5 92l59 326q-29 47 -59.5 66.5t-71.5 19.5q-61 0 -109 -33t-82 -84t-51.5 -112.5 t-17.5 -118.5z" />
<glyph unicode="A" horiz-adv-x="1114" d="M6 0l455 1343h192l455 -1343h-182l-127 410h-490l-129 -410h-174zM352 547h404l-64 205q-37 113 -69.5 224t-65.5 228h-8q-31 -117 -63.5 -228.5t-69.5 -223.5z" />
<glyph unicode="B" horiz-adv-x="1204" d="M184 0v1343h400q102 0 187 -18t145.5 -57t94 -101.5t33.5 -150.5q0 -100 -57 -181t-176 -112v-8q147 -23 229 -103t82 -219q0 -98 -36.5 -172t-104.5 -123t-162 -73.5t-207 -24.5h-428zM354 135h234q174 0 270 64.5t96 201.5q0 125 -94 183.5t-272 58.5h-234v-508z M354 770h199q174 0 249 59.5t75 171.5q0 111 -79 159t-237 48h-207v-438z" />
<glyph unicode="C" horiz-adv-x="1169" d="M106 672q0 162 45.5 291t125 219t189 138t239.5 48q123 0 215 -50t151 -116l-96 -108q-53 57 -117.5 91t-150.5 34q-96 0 -174 -38t-133.5 -109t-86 -171t-30.5 -225q0 -127 29.5 -228.5t83 -173t130 -110.5t172.5 -39q98 0 171 39t139 110l96 -104 q-80 -92 -180.5 -143.5t-229.5 -51.5q-127 0 -234.5 47.5t-186 136.5t-123 219t-44.5 294z" />
<glyph unicode="D" horiz-adv-x="1259" d="M184 0v1343h336q311 0 473 -172t162 -493q0 -160 -41 -286t-121 -213t-196.5 -133t-268.5 -46h-344zM354 139h154q236 0 353.5 141.5t117.5 397.5t-118 391t-353 135h-154v-1065z" />
<glyph unicode="E" horiz-adv-x="1079" d="M184 0v1343h774v-143h-604v-422h510v-145h-510v-488h625v-145h-795z" />
<glyph unicode="F" horiz-adv-x="1011" d="M184 0v1343h774v-143h-604v-455h512v-143h-512v-602h-170z" />
<glyph unicode="G" horiz-adv-x="1263" d="M106 672q0 162 46.5 291t129.5 219t195.5 138t247.5 48q139 0 232.5 -52t152.5 -114l-96 -108q-51 53 -118 89t-169 36t-184 -38t-139.5 -109t-89 -171t-31.5 -225q0 -127 29.5 -228.5t86 -173t139.5 -110.5t191 -39q72 0 136.5 21.5t105.5 58.5v350h-285v141h440v-565 q-66 -68 -173 -112t-242 -44q-133 0 -244 47.5t-190.5 136.5t-125 219t-45.5 294z" />
<glyph unicode="H" horiz-adv-x="1335" d="M184 0v1343h170v-563h625v563h172v-1343h-172v633h-625v-633h-170z" />
<glyph unicode="I" horiz-adv-x="538" d="M184 0v1343h170v-1343h-170z" />
<glyph unicode="J" horiz-adv-x="983" d="M63 190l123 86q45 -80 102.5 -115.5t129.5 -35.5q109 0 162 66.5t53 220.5v931h172v-948q0 -86 -21.5 -162.5t-65.5 -134t-115 -90.5t-169 -33q-252 0 -371 215z" />
<glyph unicode="K" horiz-adv-x="1185" d="M184 0v1343h170v-673h6l560 673h192l-420 -512l486 -831h-191l-401 698l-232 -272v-426h-170z" />
<glyph unicode="L" horiz-adv-x="995" d="M184 0v1343h170v-1198h588v-145h-758z" />
<glyph unicode="M" horiz-adv-x="1488" d="M184 0v1343h201l260 -720l98 -275h9l94 275l258 720h201v-1343h-162v739q0 90 7 199t15 199h-8l-108 -299l-258 -703h-97l-260 703l-106 299h-9q6 -90 14.5 -199t8.5 -199v-739h-158z" />
<glyph unicode="N" horiz-adv-x="1325" d="M184 0v1343h176l486 -843l145 -279h8q-6 102 -13 212t-7 216v694h162v-1343h-176l-488 846l-145 276h-8q8 -102 15 -207.5t7 -212.5v-702h-162z" />
<glyph unicode="O" horiz-adv-x="1359" d="M106 678q0 162 42 290t118 217t181.5 136t232.5 47t232.5 -48t182 -137t118.5 -217t42 -288q0 -162 -42 -292t-118.5 -221t-182 -140.5t-232.5 -49.5t-232.5 49.5t-181.5 140.5t-118 221t-42 292zM283 678q0 -127 28.5 -228.5t80.5 -174t125 -111.5t163 -39t162.5 39 t125 111.5t81 174t28.5 228.5q0 125 -28.5 225.5t-81 170t-125 107.5t-162.5 38t-163 -38t-125 -107.5t-80.5 -170t-28.5 -225.5z" />
<glyph unicode="P" horiz-adv-x="1179" d="M184 0v1343h412q111 0 203 -20t156.5 -66.5t100.5 -122t36 -186.5q0 -106 -36 -184t-101.5 -129t-156.5 -77t-202 -26h-242v-532h-170zM354 672h221q176 0 261.5 66.5t85.5 209.5q0 145 -86 201.5t-261 56.5h-221v-534z" />
<glyph unicode="Q" horiz-adv-x="1359" d="M106 678q0 162 42 290t118 217t181.5 136t232.5 47t232.5 -48t182 -137t118.5 -217t42 -288q0 -145 -33.5 -265t-96 -209t-150.5 -145.5t-195 -74.5q47 -90 133 -133.5t197 -43.5q45 0 79 6.5t62 14.5l33 -133q-31 -10 -82 -20.5t-110 -10.5q-186 0 -311.5 89t-184.5 229 q-111 14 -201 69t-154.5 145.5t-99.5 212t-35 269.5zM283 678q0 -129 28.5 -232.5t80.5 -177t125 -112.5t163 -39t162.5 39t125 112.5t81 177t28.5 232.5q0 125 -28.5 225.5t-81 170t-125 107.5t-162.5 38t-163 -38t-125 -107.5t-80.5 -170t-28.5 -225.5z" />
<glyph unicode="R" horiz-adv-x="1189" d="M184 0v1343h420q102 0 189.5 -19t150 -64.5t97 -117t34.5 -175.5q0 -158 -82 -252t-219 -129l340 -586h-192l-324 567h-244v-567h-170zM354 707h226q158 0 241.5 64.5t83.5 195.5q0 133 -84 186t-241 53h-226v-499z" />
<glyph unicode="S" horiz-adv-x="1093" d="M86 174l102 119q72 -76 169.5 -122t201.5 -46q133 0 207 60.5t74 158.5q0 51 -17.5 87t-47.5 61.5t-70.5 46t-88.5 43.5l-192 84q-47 20 -96 48.5t-88 69.5t-63.5 97.5t-24.5 130.5q0 76 31.5 141.5t88 113.5t133 74.5t168.5 26.5q121 0 223.5 -46t174.5 -120l-92 -110 q-61 59 -136 93t-170 34q-113 0 -181 -52.5t-68 -144.5q0 -49 19 -83t52 -59.5t72 -45t80 -35.5l190 -82q57 -25 108.5 -56.5t88.5 -73.5t58.5 -98.5t21.5 -130.5q0 -80 -32 -149.5t-91.5 -121.5t-143 -82t-190.5 -30q-141 0 -262 53.5t-209 145.5z" />
<glyph unicode="T" horiz-adv-x="1097" d="M57 1200v143h983v-143h-405v-1200h-172v1200h-406z" />
<glyph unicode="U" horiz-adv-x="1320" d="M178 555v788h170v-792q0 -121 24.5 -203t66.5 -131t99.5 -70.5t123.5 -21.5q68 0 125 21.5t100 70.5t67.5 131t24.5 203v792h164v-788q0 -162 -37 -272.5t-101.5 -179t-152.5 -98.5t-190 -30t-191.5 30t-154 98.5t-101.5 179t-37 272.5z" />
<glyph unicode="V" horiz-adv-x="1054" d="M0 1343h182l215 -725q37 -121 64.5 -223t66.5 -221h9q37 119 65.5 221.5t63.5 222.5l215 725h174l-426 -1343h-199z" />
<glyph unicode="W" horiz-adv-x="1609" d="M47 1343h176l142 -731q18 -111 38.5 -217t38.5 -217h9q23 111 47 218.5t47 215.5l186 731h156l186 -731q25 -106 49.5 -214.5t48.5 -219.5h9q18 111 36.5 218.5t38.5 215.5l142 731h164l-279 -1343h-205l-203 809q-18 78 -33.5 152.5t-31.5 152.5h-8 q-16 -78 -33.5 -152.5t-34.5 -152.5l-198 -809h-203z" />
<glyph unicode="X" horiz-adv-x="1050" d="M31 0l391 694l-365 649h189l182 -344q27 -47 50.5 -91t53.5 -103h9q29 59 50 103t46 91l178 344h180l-366 -657l391 -686h-189l-196 362q-27 49 -54.5 101.5t-60.5 114.5h-8q-29 -61 -55.5 -113.5t-50.5 -102.5l-195 -362h-180z" />
<glyph unicode="Y" horiz-adv-x="974" d="M-2 1343h182l174 -378q33 -74 64 -145.5t65 -147.5h9q35 76 69.5 147.5t65.5 145.5l172 378h178l-404 -823v-520h-172v520z" />
<glyph unicode="Z" horiz-adv-x="1103" d="M92 0v102l707 1098h-643v143h856v-100l-709 -1098h715v-145h-926z" />
<glyph unicode="[" horiz-adv-x="620" d="M193 -311v1761h366v-96h-240v-1569h240v-96h-366z" />
<glyph unicode="\" horiz-adv-x="716" d="M29 1454h121l546 -1782h-121z" />
<glyph unicode="]" horiz-adv-x="620" d="M63 -215h238v1569h-238v96h365v-1761h-365v96z" />
<glyph unicode="^" horiz-adv-x="1017" d="M123 582l311 790h150l311 -790h-147l-134 360l-100 272h-8l-103 -272l-133 -360h-147z" />
<glyph unicode="_" horiz-adv-x="1024" d="M25 -145h974v-113h-974v113z" />
<glyph unicode="`" horiz-adv-x="1110" d="M328 1462h176l184 -288h-129z" />
<glyph unicode="a" horiz-adv-x="1048" d="M119 258q0 164 146.5 251t465.5 122q0 47 -9 92t-32.5 80t-62.5 56.5t-101 21.5q-88 0 -162.5 -33t-134.5 -74l-67 117q70 45 170 87t221 42q182 0 264 -111.5t82 -298.5v-610h-139l-15 119h-4q-72 -59 -154.5 -101.5t-174.5 -42.5q-127 0 -210 74t-83 209zM285 270 q0 -86 50 -122.5t124 -36.5q72 0 136 33.5t136 99.5v276q-125 -16 -211 -38.5t-138 -53.5t-74.5 -71t-22.5 -87z" />
<glyph unicode="b" horiz-adv-x="1136" d="M168 0v1458h168v-397l-4 -180q68 59 147.5 99t163.5 40q96 0 170 -36t124 -102.5t75.5 -159.5t25.5 -208q0 -127 -34.5 -227.5t-94 -170t-137.5 -105.5t-164 -36q-70 0 -144.5 32t-139.5 91h-7l-14 -98h-135zM336 221q66 -57 130 -80.5t114 -23.5q61 0 113 27.5t90 77.5 t59.5 124t21.5 166q0 82 -14 149.5t-46 115.5t-82 75t-120 27q-121 0 -266 -136v-522z" />
<glyph unicode="c" horiz-adv-x="933" d="M94 496q0 125 39 222t104.5 164.5t152.5 102.5t183 35q98 0 169 -36t122 -83l-84 -108q-45 39 -93 63.5t-107 24.5q-68 0 -125.5 -28t-98.5 -79t-64.5 -121.5t-23.5 -156.5t22.5 -156t62.5 -120t97.5 -77.5t124.5 -27.5q72 0 130.5 29.5t103.5 70.5l76 -111 q-68 -59 -151 -94t-173 -35q-98 0 -184 35t-148.5 101.5t-98.5 164t-36 220.5z" />
<glyph unicode="d" horiz-adv-x="1136" d="M96 496q0 121 36 218t95.5 164.5t137 104.5t163.5 37t149.5 -31t129.5 -84l-8 170v383h170v-1458h-140l-14 117h-6q-59 -57 -136 -99.5t-165 -42.5q-188 0 -300 135.5t-112 385.5zM270 498q0 -180 72 -280.5t203 -100.5q70 0 131 33.5t123 103.5v520q-63 57 -122 81 t-120 24q-59 0 -111.5 -28t-91.5 -78t-61.5 -119.5t-22.5 -155.5z" />
<glyph unicode="e" horiz-adv-x="1015" d="M94 496q0 123 38 220t100.5 164.5t142.5 103.5t166 36q94 0 168.5 -33t125 -94.5t77 -147.5t26.5 -192q0 -55 -6 -92h-672q10 -162 99.5 -256t232.5 -94q72 0 132 21.5t116 55.5l59 -110q-66 -41 -145.5 -72t-182.5 -31q-100 0 -187 36t-151.5 102.5t-101.5 163 t-37 219.5zM258 571h533q0 154 -64.5 235t-181.5 81q-53 0 -101.5 -21.5t-87.5 -61.5t-64.5 -98.5t-33.5 -134.5z" />
<glyph unicode="f" horiz-adv-x="598" d="M61 858v127l136 10v158q0 154 70.5 242t219.5 88q47 0 89 -9.5t77 -23.5l-37 -129q-55 25 -112 25q-139 0 -139 -193v-158h210v-137h-210v-858h-168v858h-136z" />
<glyph unicode="g" horiz-adv-x="1032" d="M92 -190q0 63 39 120.5t107 104.5v8q-37 23 -62.5 62.5t-25.5 99.5q0 63 34.5 110t73.5 74v8q-49 41 -89 109.5t-40 159.5q0 82 29.5 147.5t81 111.5t120 70.5t144.5 24.5q41 0 76.5 -7t64.5 -18h346v-129h-205q35 -35 58.5 -88t23.5 -116q0 -80 -28.5 -144.5 t-77.5 -108.5t-115.5 -69t-142.5 -25q-37 0 -76 9.5t-74 25.5q-27 -23 -45 -50.5t-18 -68.5q0 -47 37 -77.5t139 -30.5h192q174 0 261.5 -56.5t87.5 -181.5q0 -70 -35 -132t-100.5 -109t-158.5 -75t-210 -28q-92 0 -168 17.5t-130 52.5t-84 84t-30 115zM240 -168 q0 -80 76.5 -127t211.5 -47q72 0 130.5 17.5t99.5 45t63.5 64.5t22.5 76q0 70 -51.5 96.5t-149.5 26.5h-172q-29 0 -62.5 3t-66.5 13q-53 -39 -77.5 -82t-24.5 -86zM293 666q0 -55 16.5 -99.5t46 -75t67.5 -47t81 -16.5t81 16.5t67.5 47t46 74.5t16.5 100q0 111 -61.5 171 t-149.5 60t-149.5 -60.5t-61.5 -170.5z" />
<glyph unicode="h" horiz-adv-x="1114" d="M168 0v1458h168v-397l-6 -205q72 68 149.5 116t182.5 48q158 0 230.5 -98.5t72.5 -290.5v-631h-168v608q0 141 -45 203.5t-144 62.5q-78 0 -137 -38.5t-135 -114.5v-721h-168z" />
<glyph unicode="i" horiz-adv-x="503" d="M137 1309q0 49 34 78.5t83 29.5t83 -29.5t34 -78.5q0 -47 -34 -78t-83 -31t-83 31t-34 78zM168 0v995h168v-995h-168z" />
<glyph unicode="j" horiz-adv-x="505" d="M-82 -418l35 127q18 -6 42.5 -11t51.5 -5q74 0 98.5 51t24.5 143v1108h168v-1108q0 -152 -61.5 -241.5t-210.5 -89.5q-47 0 -84 8t-64 18zM139 1309q0 49 34 78.5t83 29.5q47 0 81 -29.5t34 -78.5q0 -47 -34 -78t-81 -31q-49 0 -83 31t-34 78z" />
<glyph unicode="k" horiz-adv-x="1013" d="M168 0v1458h166v-987h6l424 524h186l-334 -399l379 -596h-184l-291 479l-186 -217v-262h-166z" />
<glyph unicode="l" horiz-adv-x="522" d="M168 201v1257h168v-1270q0 -41 14.5 -57t32.5 -16h15.5t21.5 4l22 -127q-16 -8 -38.5 -12.5t-57.5 -4.5q-96 0 -137 57.5t-41 168.5z" />
<glyph unicode="m" horiz-adv-x="1697" d="M168 0v995h139l15 -143h6q66 72 142.5 120t166.5 48q115 0 179.5 -50t94.5 -141q78 86 157 138.5t171 52.5q154 0 228.5 -98.5t74.5 -290.5v-631h-168v608q0 141 -45 203.5t-139 62.5q-113 0 -250 -153v-721h-168v608q0 141 -45 203.5t-141 62.5q-113 0 -250 -153v-721 h-168z" />
<glyph unicode="n" horiz-adv-x="1120" d="M168 0v995h139l15 -143h6q72 72 150.5 120t183.5 48q158 0 230.5 -98.5t72.5 -290.5v-631h-168v608q0 141 -45 203.5t-144 62.5q-78 0 -137 -38.5t-135 -114.5v-721h-168z" />
<glyph unicode="o" horiz-adv-x="1110" d="M94 496q0 125 38 222t101.5 164.5t146.5 102.5t175 35t175 -35t146.5 -102.5t101.5 -164.5t38 -222q0 -123 -38 -220.5t-101.5 -164t-146.5 -101.5t-175 -35t-175 35t-146.5 101.5t-101.5 164t-38 220.5zM268 496q0 -86 20.5 -156t58.5 -120t91.5 -77.5t116.5 -27.5 t116.5 27.5t91.5 77.5t58.5 120t20.5 156t-20.5 156.5t-58.5 121.5t-91.5 79t-116.5 28t-116.5 -28t-91.5 -79t-58.5 -121.5t-20.5 -156.5z" />
<glyph unicode="p" horiz-adv-x="1136" d="M168 -420v1415h139l15 -114h6q68 57 148.5 98t168.5 41q96 0 170 -36t123 -102.5t74.5 -159.5t25.5 -210q0 -127 -34.5 -226.5t-94 -169t-137.5 -105.5t-164 -36q-70 0 -138.5 31t-137.5 84l4 -174v-336h-168zM336 221q68 -57 131 -80.5t113 -23.5q61 0 113 27.5t90 77.5 t59.5 124t21.5 166q0 82 -14 149.5t-46 115.5t-82 75t-120 27q-63 0 -127.5 -35t-138.5 -101v-522z" />
<glyph unicode="q" horiz-adv-x="1126" d="M96 496q0 121 36 218t95.5 164.5t137 104.5t163.5 37t151.5 -29.5t133.5 -89.5h4l17 94h135v-1415h-170v354l8 177q-59 -55 -136 -95.5t-163 -40.5q-188 0 -300 135.5t-112 385.5zM270 498q0 -180 72 -280.5t203 -100.5q70 0 131 33.5t123 103.5v520q-63 57 -122 81 t-120 24q-59 0 -111.5 -28t-91.5 -78t-61.5 -119.5t-22.5 -155.5z" />
<glyph unicode="r" horiz-adv-x="710" d="M168 0v995h139l15 -180h6q51 94 123.5 149.5t158.5 55.5q59 0 107 -21l-33 -147q-25 8 -45.5 12t-50.5 4q-63 0 -132 -51t-120 -178v-639h-168z" />
<glyph unicode="s" horiz-adv-x="858" d="M57 113l84 112q66 -53 134.5 -86t158.5 -33q98 0 147.5 45.5t49.5 110.5q0 39 -20.5 67.5t-52.5 50t-73 38t-82 33.5q-53 18 -106 41.5t-95 57.5t-69 79t-27 108q0 59 24 111.5t68 90.5t107.5 59.5t143.5 21.5q94 0 172.5 -33t136.5 -80l-80 -106q-51 39 -106.5 63.5 t-120.5 24.5q-94 0 -138.5 -43t-44.5 -101q0 -35 18.5 -60.5t49.5 -44.5t70.5 -34.5t82.5 -32.5q53 -20 107.5 -42.5t97.5 -56.5t71 -83t28 -119q0 -61 -24 -114.5t-70 -94t-114.5 -64.5t-156.5 -24q-106 0 -202.5 39t-168.5 99z" />
<glyph unicode="t" horiz-adv-x="692" d="M49 858v127l156 10l20 279h142v-279h268v-137h-268v-553q0 -92 33.5 -142t119.5 -50q27 0 57.5 8t55.5 18l33 -127q-41 -14 -89.5 -25.5t-95.5 -11.5q-80 0 -134 25t-88 68t-48 104t-14 135v551h-148z" />
<glyph unicode="u" horiz-adv-x="1114" d="M154 365v630h170v-608q0 -141 44 -203.5t142 -62.5q78 0 137.5 40t130.5 128v706h168v-995h-139l-14 156h-7q-70 -82 -146.5 -131.5t-180.5 -49.5q-160 0 -232.5 98.5t-72.5 291.5z" />
<glyph unicode="v" horiz-adv-x="956" d="M25 995h174l188 -565q23 -74 46.5 -147.5t45.5 -145.5h8q23 72 45.5 145.5t45.5 147.5l188 565h166l-352 -995h-197z" />
<glyph unicode="w" horiz-adv-x="1470" d="M49 995h172l148 -575q16 -72 30.5 -139.5t28.5 -137.5h8q16 70 32.5 138.5t35.5 138.5l153 575h164l156 -575q18 -72 35.5 -139.5t34.5 -137.5h8q16 70 30.5 137.5t30.5 139.5l146 575h159l-266 -995h-205l-143 535q-18 72 -33.5 141t-34.5 145h-8q-16 -76 -32.5 -146.5 t-36.5 -142.5l-140 -532h-196z" />
<glyph unicode="x" horiz-adv-x="913" d="M29 0l325 520l-301 475h183l133 -219q23 -41 47 -83t51 -83h8q23 41 45.5 83t44.5 83l121 219h176l-301 -493l324 -502h-183l-145 231q-27 45 -53.5 90.5t-54.5 88.5h-9q-27 -43 -51 -87t-49 -92l-135 -231h-176z" />
<glyph unicode="y" horiz-adv-x="956" d="M25 995h174l202 -551q23 -66 48.5 -138.5t48.5 -141.5h8q23 68 43 141.5t41 138.5l178 551h164l-375 -1077q-27 -74 -59.5 -137.5t-77.5 -109.5t-102.5 -72.5t-133.5 -26.5q-35 0 -63.5 5t-52.5 15l32 134q16 -4 37 -9.5t39 -5.5q86 0 140.5 60.5t84.5 152.5l23 74z" />
<glyph unicode="z" horiz-adv-x="870" d="M63 0v90l525 768h-467v137h680v-90l-525 -768h541v-137h-754z" />
<glyph unicode="{" horiz-adv-x="620" d="M70 516v107q51 0 85.5 14t54 35.5t28 50.5t8.5 57q0 104 -9.5 194.5t-9.5 203.5q0 158 59.5 215t180.5 57h92v-96h-55q-84 0 -111.5 -43t-27.5 -144q0 -94 6 -180t6 -190q0 -100 -29 -152.5t-94 -71.5v-8q66 -18 94.5 -71.5t28.5 -151.5q0 -104 -6 -190t-6 -181 q0 -100 27.5 -143t111.5 -43h55v-96h-92q-121 0 -180.5 57t-59.5 215q0 55 3 105.5t6.5 97.5t6.5 94t3 98q0 31 -8.5 58.5t-28 50t-54 37t-85.5 14.5z" />
<glyph unicode="|" horiz-adv-x="493" d="M188 -512v2048h119v-2048h-119z" />
<glyph unicode="}" horiz-adv-x="620" d="M63 -215h54q84 0 111.5 43t27.5 143q0 94 -5 180.5t-5 190.5q0 98 27.5 151.5t93.5 71.5v8q-66 18 -93.5 70.5t-27.5 153.5q0 104 5 190t5 180q0 100 -27.5 143.5t-111.5 43.5h-54v96h91q61 0 106 -13.5t75 -44t44 -83t14 -131.5q0 -113 -9 -203t-9 -195q0 -59 37 -107 t139 -50v-107q-51 0 -85 -14.5t-54.5 -37t-28.5 -50t-8 -58.5q0 -51 3 -98l6 -94t6 -97.5t3 -105.5q0 -80 -14 -132t-44 -83t-75 -44t-106 -13h-91v96z" />
<glyph unicode="~" horiz-adv-x="1017" d="M74 641q55 98 122.5 141t133.5 43q61 0 109 -26.5t90 -59t81 -59.5t82 -27q45 0 84 30t74 95l94 -69q-55 -98 -122.5 -140.5t-133.5 -42.5q-61 0 -109.5 27t-90.5 59.5t-80.5 59t-81.5 26.5q-45 0 -84 -29.5t-74 -95.5z" />
<glyph unicode="&#xa1;" horiz-adv-x="591" d="M174 893q0 55 36 91t87 36q49 0 85 -36t36 -91q0 -59 -36 -95t-85 -36q-51 0 -87 36t-36 95zM211 -377l4 193l23 774h116l23 -774l4 -193h-170z" />
<glyph unicode="&#xa2;" horiz-adv-x="1017" d="M125 635q0 106 31.5 190t87 145.5t131.5 99.5t162 50v217h106v-211q90 -4 155.5 -38.5t112.5 -79.5l-82 -107q-41 37 -87 59.5t-99 26.5v-704q66 4 119 31.5t94 64.5l74 -107q-59 -53 -133 -87.5t-154 -41.5v-211h-106v213q-92 10 -168 48t-130.5 99.5t-84 147.5 t-29.5 195zM293 635q0 -137 63.5 -227.5t180.5 -116.5v686q-113 -27 -178.5 -117t-65.5 -225z" />
<glyph unicode="&#xa3;" horiz-adv-x="1017" d="M109 584v106l137 8h37q-20 66 -38 128.5t-18 127.5q0 86 28 156t78 119t119.5 75.5t155.5 26.5q111 0 187.5 -44t130.5 -109l-99 -97q-39 47 -88 78t-118 31q-111 0 -169.5 -66.5t-58.5 -173.5q0 -66 15.5 -126t33.5 -126h326v-114h-299q4 -29 7 -56.5t3 -58.5 q0 -109 -32.5 -180.5t-94.5 -134.5v-9h576v-145h-817v102q104 57 160.5 154.5t56.5 214.5q0 29 -4.5 56.5t-10.5 56.5h-204z" />
<glyph unicode="&#xa4;" horiz-adv-x="1017" d="M53 303l131 133q-35 47 -54 106.5t-19 131.5t19.5 132t53.5 107l-131 136l90 92l140 -144q98 76 227 76q59 0 118.5 -19.5t106.5 -56.5l139 144l91 -92l-134 -136q35 -47 55.5 -107.5t20.5 -131.5q0 -72 -20.5 -131.5t-55.5 -106.5l134 -133l-91 -92l-139 141 q-47 -39 -106.5 -58.5t-118.5 -19.5q-131 0 -227 78l-140 -141zM266 674q0 -61 19.5 -111.5t52.5 -87.5t78 -56.5t94 -19.5t93 19.5t77 56.5t52.5 87t19.5 112q0 61 -19.5 111.5t-52.5 87t-77 56t-93 19.5t-94 -19.5t-78 -56t-52.5 -87t-19.5 -111.5z" />
<glyph unicode="&#xa5;" horiz-adv-x="1017" d="M47 1307h176l160 -351q31 -68 60.5 -136t62.5 -140h8q35 72 64.5 140.5t60.5 135.5l160 351h172l-336 -656h291v-96h-334v-133h334v-98h-334v-324h-168v324h-332v98h332v133h-332v96h289z" />
<glyph unicode="&#xa6;" horiz-adv-x="493" d="M188 438h119v-950h-119v950zM188 596v940h119v-940h-119z" />
<glyph unicode="&#xa7;" horiz-adv-x="1017" d="M92 702q0 90 49 156t127 109q-31 33 -48 73.5t-17 94.5q0 53 19.5 101t59.5 85t97 58.5t135 21.5q98 0 177 -35t138 -82l-81 -108q-49 41 -104.5 67.5t-123.5 26.5q-86 0 -124 -38t-38 -91q0 -55 42 -92t105.5 -68t136.5 -61.5t136.5 -74.5t105.5 -106.5t42 -156.5 q0 -98 -48.5 -159t-125.5 -106q29 -35 45 -74.5t16 -92.5q0 -61 -24.5 -112.5t-68.5 -88.5t-104.5 -58.5t-132.5 -21.5q-111 0 -200.5 39t-153.5 106l102 92q51 -49 110.5 -77.5t141.5 -28.5t128 41t46 100q0 57 -42 96t-104 70t-136 60.5t-136.5 72.5t-104.5 105.5 t-42 156.5zM240 713q0 -68 41 -112t103 -76.5t135 -62.5t136 -67q59 29 91 68t32 106q0 70 -41 115t-102.5 79t-134 62.5t-135.5 65.5q-59 -33 -92 -74t-33 -104z" />
<glyph unicode="&#xa8;" horiz-adv-x="1110" d="M279 1305q0 43 27.5 71.5t72.5 28.5q43 0 71.5 -28.5t28.5 -71.5t-28.5 -72t-71.5 -29q-45 0 -72.5 29t-27.5 72zM631 1305q0 43 28.5 71.5t71.5 28.5q45 0 72.5 -28.5t27.5 -71.5t-27.5 -72t-72.5 -29q-43 0 -71.5 29t-28.5 72z" />
<glyph unicode="&#xa9;" horiz-adv-x="1523" d="M100 662q0 156 53.5 280.5t143.5 212.5t211 135t254 47t253 -47t211 -135t144 -213t53 -280q0 -158 -53 -284t-144 -215t-211 -137.5t-253 -48.5t-254 48.5t-211 137.5t-143.5 215t-53.5 284zM197 662q0 -135 45 -245t121.5 -188.5t179 -122t219.5 -43.5t219 43.5 t179 122t122 188t45 245.5q0 133 -45 242.5t-122 187t-179 119.5t-219 42t-219.5 -42t-179 -119.5t-121.5 -187t-45 -242.5zM406 662q0 88 31.5 159.5t83.5 122.5t121 78t142 27q86 0 146.5 -34t109.5 -83l-71 -80q-41 41 -83 62.5t-95 21.5q-113 0 -181.5 -77t-68.5 -197 q0 -135 66.5 -214t176.5 -79q66 0 115 25.5t94 64.5l62 -86q-57 -49 -121 -83t-156 -34q-78 0 -145.5 27.5t-118.5 80t-79.5 127.5t-28.5 171z" />
<glyph unicode="&#xaa;" horiz-adv-x="706" d="M76 723q0 109 97 165t310 77q-2 66 -28.5 108.5t-98.5 42.5q-53 0 -109.5 -21.5t-96.5 -47.5l-48 86q51 33 122 60.5t151 27.5q123 0 179 -72t56 -203v-401h-102l-14 76h-9q-41 -37 -92 -65t-114 -28q-92 0 -147.5 53.5t-55.5 141.5zM201 733q0 -53 30.5 -77.5 t83.5 -24.5q80 0 168 82v174q-158 -18 -220 -57t-62 -97z" />
<glyph unicode="&#xab;" horiz-adv-x="878" d="M92 453v127l279 317l73 -61l-241 -320l241 -323l-73 -58zM416 453v127l278 317l74 -61l-242 -320l242 -323l-74 -58z" />
<glyph unicode="&#xac;" horiz-adv-x="1017" d="M70 612v127h878v-526h-135v399h-743z" />
<glyph unicode="&#xad;" horiz-adv-x="636" d="M84 449v129h471v-129h-471z" />
<glyph unicode="&#xae;" horiz-adv-x="866" d="M47 1057q0 90 31 163.5t83 127t121.5 83t149.5 29.5t150.5 -29.5t123 -83t83 -127t30.5 -163.5t-30.5 -164t-83 -127t-123 -83t-150.5 -30t-149.5 30t-121.5 83t-83 127t-31 164zM129 1057q0 -74 23.5 -134.5t63.5 -103.5t95 -66.5t121 -23.5q63 0 119.5 23.5t97.5 66.5 t64.5 103.5t23.5 134.5q0 72 -23.5 132t-64.5 104t-97 68.5t-120 24.5q-66 0 -121 -24.5t-95 -68.5t-63.5 -104.5t-23.5 -131.5zM285 854v416h155q66 0 113 -30t47 -103q0 -37 -20.5 -69t-55.5 -44l94 -170h-94l-71 143h-84v-143h-84zM369 1063h53q88 0 88 70q0 31 -18.5 49 t-65.5 18h-57v-137z" />
<glyph unicode="&#xaf;" horiz-adv-x="1110" d="M303 1231v117h504v-117h-504z" />
<glyph unicode="&#xb0;" horiz-adv-x="677" d="M84 1139q0 61 20.5 109t56.5 83t82 53.5t97 18.5t97 -18.5t82 -53.5t56.5 -83t20.5 -109q0 -59 -20.5 -107.5t-56.5 -82.5t-82 -52t-97 -18t-97 18t-82 52t-56.5 82t-20.5 108zM186 1139q0 -72 43 -119t111 -47t111 47t43 119q0 76 -43 123t-111 47t-111 -47.5 t-43 -122.5z" />
<glyph unicode="&#xb1;" horiz-adv-x="1017" d="M70 0v127h878v-127h-878zM70 623v127h372v389h133v-389h373v-127h-373v-363h-133v363h-372z" />
<glyph unicode="&#xb2;" horiz-adv-x="751" d="M82 1569q47 70 115.5 112.5t150.5 42.5q121 0 193.5 -65.5t72.5 -192.5q0 -57 -22.5 -110t-62.5 -107.5t-94 -112t-118 -122.5h338v-113h-549v76q92 84 164 150.5t119 122t71.5 103.5t24.5 93q0 78 -41 123t-112 45q-51 0 -94 -34t-78 -83z" />
<glyph unicode="&#xb3;" horiz-adv-x="751" d="M72 1032l88 68q37 -55 88 -87t114 -32q66 0 113 37t47 106q0 70 -65.5 106t-182.5 36v84q104 0 161 41t57 102q0 57 -40 92t-106 35q-45 0 -86 -27.5t-76 -68.5l-80 69q53 59 116 95t147 36q51 0 97 -14t81 -42t55.5 -67.5t20.5 -91.5q0 -72 -39 -120t-101 -76 q68 -16 120 -66.5t52 -130.5q0 -55 -22.5 -99t-61.5 -76t-91 -48t-109 -16q-98 0 -174 44t-123 111z" />
<glyph unicode="&#xb4;" horiz-adv-x="1110" d="M422 1174l184 288h176l-231 -288h-129z" />
<glyph unicode="&#xb5;" horiz-adv-x="1126" d="M168 -410v1405h168v-608q0 -141 45 -203.5t143 -62.5q78 0 136.5 40t130.5 128v706h167v-995h-139l-14 156h-4q-59 -80 -130 -126t-157 -46q-59 0 -106.5 17t-81.5 71l10 -185v-297h-168z" />
<glyph unicode="&#xb6;" horiz-adv-x="1146" d="M84 907q0 121 37 204t103.5 135t156.5 74.5t197 22.5h90v-880h-68q-111 0 -206 25.5t-163.5 80t-107.5 138.5t-39 200zM778 -164v1507h172v-1507h-172z" />
<glyph unicode="&#xb7;" horiz-adv-x="509" d="M133 657q0 59 36 95t87 36q49 0 85 -35.5t36 -95.5q0 -55 -36 -91t-85 -36q-51 0 -87 36t-36 91z" />
<glyph unicode="&#xb8;" horiz-adv-x="1110" d="M393 -352q82 10 132 33.5t50 64.5t-33.5 62.5t-95.5 37.5l82 160h109l-51 -108q49 -16 85 -49t36 -97q0 -45 -25 -77.5t-66 -55t-95 -36t-111 -19.5z" />
<glyph unicode="&#xb9;" horiz-adv-x="751" d="M178 1532v86q68 12 113 31.5t86 50.5h106v-799h-131v631h-174z" />
<glyph unicode="&#xba;" horiz-adv-x="747" d="M61 874q0 82 25 146.5t68 109t99 68t120 23.5q63 0 119.5 -23.5t99.5 -68t67.5 -109t24.5 -146.5t-24.5 -146t-67.5 -108.5t-99.5 -68t-119.5 -23.5t-119.5 23.5t-99.5 68t-68 109t-25 145.5zM190 874q0 -109 48.5 -175t134.5 -66t133 66.5t47 174.5q0 111 -47 176.5 t-133 65.5t-134.5 -65.5t-48.5 -176.5z" />
<glyph unicode="&#xbb;" horiz-adv-x="878" d="M111 193l241 323l-241 320l71 61l281 -317v-127l-281 -318zM434 193l242 323l-242 320l72 61l280 -317v-127l-280 -318z" />
<glyph unicode="&#xbc;" horiz-adv-x="1599" d="M131 1176v86q68 12 113 31.5t86 49.5h106v-798h-131v631h-174zM369 -25l741 1393h115l-742 -1393h-114zM932 213v68l336 518h147v-492h119v-94h-119v-213h-119v213h-364zM1069 307h227v144l9 223h-9l-102 -166z" />
<glyph unicode="&#xbd;" horiz-adv-x="1654" d="M131 1176v86q68 12 113 31.5t86 49.5h106v-798h-131v631h-174zM326 -25l741 1393h115l-742 -1393h-114zM985 668q47 70 115.5 112.5t150.5 42.5q121 0 194 -65.5t73 -192.5q0 -57 -22.5 -110.5t-62.5 -107.5t-94.5 -111.5t-117.5 -122.5h338v-113h-549v76 q92 84 163.5 150.5t118.5 121.5t72 103.5t25 93.5q0 78 -41 123t-113 45q-51 0 -94 -34t-78 -83z" />
<glyph unicode="&#xbe;" horiz-adv-x="1630" d="M72 676l88 67q37 -55 88 -86.5t114 -31.5q66 0 113 36.5t47 106.5t-65.5 105.5t-182.5 35.5v84q104 0 161 41t57 103q0 57 -40 92t-106 35q-45 0 -86 -28t-76 -69l-80 70q53 59 116 95t147 36q51 0 97 -14.5t81 -42t55.5 -67.5t20.5 -91q0 -72 -39 -120t-101 -77 q68 -16 120 -66t52 -130q0 -55 -22.5 -99.5t-61.5 -76t-91 -48t-109 -16.5q-98 0 -174 44t-123 112zM444 -25l742 1393h114l-741 -1393h-115zM963 213v68l335 518h148v-492h119v-94h-119v-213h-119v213h-364zM1100 307h227v144l8 223h-8l-102 -166z" />
<glyph unicode="&#xbf;" horiz-adv-x="870" d="M98 -74q0 68 24.5 123t60.5 104.5t76 97.5t73 99t51 109.5t10 130.5h150q10 -80 -6.5 -144.5t-47 -119t-70.5 -101.5t-75 -93t-58.5 -94t-23.5 -101q0 -82 49 -139.5t150 -57.5q68 0 127 30.5t106 86.5l99 -88q-66 -72 -150 -121t-194 -49q-160 0 -255.5 87t-95.5 240z M342 893q0 55 36 91t87 36q49 0 85 -36t36 -91q0 -59 -36 -95t-85 -36q-51 0 -87 36t-36 95z" />
<glyph unicode="&#xc0;" horiz-adv-x="1114" d="M6 0l455 1343h192l455 -1343h-182l-127 410h-490l-129 -410h-174zM287 1675h192l180 -229h-141zM352 547h404l-64 205q-37 113 -69.5 224t-65.5 228h-8q-31 -117 -63.5 -228.5t-69.5 -223.5z" />
<glyph unicode="&#xc1;" horiz-adv-x="1114" d="M6 0l455 1343h192l455 -1343h-182l-127 410h-490l-129 -410h-174zM352 547h404l-64 205q-37 113 -69.5 224t-65.5 228h-8q-31 -117 -63.5 -228.5t-69.5 -223.5zM451 1446l180 229h192l-231 -229h-141z" />
<glyph unicode="&#xc2;" horiz-adv-x="1114" d="M6 0l455 1343h192l455 -1343h-182l-127 410h-490l-129 -410h-174zM276 1446l197 229h164l197 -229h-138l-137 139h-8l-137 -139h-138zM352 547h404l-64 205q-37 113 -69.5 224t-65.5 228h-8q-31 -117 -63.5 -228.5t-69.5 -223.5z" />
<glyph unicode="&#xc3;" horiz-adv-x="1114" d="M6 0l455 1343h192l455 -1343h-182l-127 410h-490l-129 -410h-174zM258 1456q10 96 55 158.5t119 62.5q41 0 74 -16t60.5 -36.5t54 -37t55.5 -16.5t51.5 27.5t30.5 78.5h94q-10 -94 -55 -157.5t-119 -63.5q-41 0 -74 16.5t-60.5 37t-54 37t-55.5 16.5t-51.5 -27t-30.5 -80 h-94zM352 547h404l-64 205q-37 113 -69.5 224t-65.5 228h-8q-31 -117 -63.5 -228.5t-69.5 -223.5z" />
<glyph unicode="&#xc4;" horiz-adv-x="1114" d="M6 0l455 1343h192l455 -1343h-182l-127 410h-490l-129 -410h-174zM279 1565q0 45 27.5 72.5t72.5 27.5q43 0 71.5 -27.5t28.5 -72.5q0 -43 -28.5 -72t-71.5 -29q-45 0 -72.5 29t-27.5 72zM352 547h404l-64 205q-37 113 -69.5 224t-65.5 228h-8q-31 -117 -63.5 -228.5 t-69.5 -223.5zM631 1565q0 45 28.5 72.5t71.5 27.5q45 0 72.5 -27.5t27.5 -72.5q0 -43 -27.5 -72t-72.5 -29q-43 0 -71.5 29t-28.5 72z" />
<glyph unicode="&#xc5;" horiz-adv-x="1114" d="M6 0l455 1343h192l455 -1343h-182l-127 410h-490l-129 -410h-174zM352 547h404l-64 205q-37 113 -69.5 224t-65.5 228h-8q-31 -117 -63.5 -228.5t-69.5 -223.5zM365 1612q0 82 53 131t137 49q82 0 136 -49t54 -131q0 -84 -54 -132t-136 -48q-84 0 -137 48t-53 132z M457 1612q0 -51 28.5 -79t69.5 -28q39 0 67.5 28t28.5 79q0 47 -28.5 75.5t-67.5 28.5q-41 0 -69.5 -28.5t-28.5 -75.5z" />
<glyph unicode="&#xc6;" horiz-adv-x="1683" d="M16 0l705 1343h842v-143h-570v-422h475v-145h-475v-488h590v-145h-762v391h-422l-202 -391h-181zM469 528h352v680h-8q-109 -219 -219 -438z" />
<glyph unicode="&#xc7;" horiz-adv-x="1169" d="M106 672q0 162 45.5 291t125 219t189 138t239.5 48q123 0 215 -50t151 -116l-96 -108q-53 57 -117.5 91t-150.5 34q-96 0 -174 -38t-133.5 -109t-86 -171t-30.5 -225q0 -127 29.5 -228.5t83 -173t130 -110.5t172.5 -39q98 0 171 39t139 110l96 -104 q-80 -92 -180.5 -143.5t-229.5 -51.5q-127 0 -234.5 47.5t-186 136.5t-123 219t-44.5 294zM528 -352q82 10 132.5 33.5t50.5 64.5t-34 62.5t-95 37.5l82 160h108l-51 -108q49 -16 85 -49t36 -97q0 -45 -24.5 -77.5t-65.5 -55t-95.5 -36t-111.5 -19.5z" />
<glyph unicode="&#xc8;" horiz-adv-x="1079" d="M184 0v1343h774v-143h-604v-422h510v-145h-510v-488h625v-145h-795zM313 1675h193l180 -229h-141z" />
<glyph unicode="&#xc9;" horiz-adv-x="1079" d="M184 0v1343h774v-143h-604v-422h510v-145h-510v-488h625v-145h-795zM477 1446l180 229h193l-232 -229h-141z" />
<glyph unicode="&#xca;" horiz-adv-x="1079" d="M184 0v1343h774v-143h-604v-422h510v-145h-510v-488h625v-145h-795zM303 1446l197 229h164l196 -229h-137l-137 139h-8l-138 -139h-137z" />
<glyph unicode="&#xcb;" horiz-adv-x="1079" d="M184 0v1343h774v-143h-604v-422h510v-145h-510v-488h625v-145h-795zM305 1565q0 45 27.5 72.5t73.5 27.5q43 0 71.5 -27.5t28.5 -72.5q0 -43 -28.5 -72t-71.5 -29q-45 0 -73 29t-28 72zM657 1565q0 45 29 72.5t72 27.5q45 0 72.5 -27.5t27.5 -72.5q0 -43 -27.5 -72 t-72.5 -29q-43 0 -72 29t-29 72z" />
<glyph unicode="&#xcc;" horiz-adv-x="538" d="M0 1675h193l180 -229h-142zM184 0v1343h170v-1343h-170z" />
<glyph unicode="&#xcd;" horiz-adv-x="538" d="M164 1446l180 229h193l-232 -229h-141zM184 0v1343h170v-1343h-170z" />
<glyph unicode="&#xce;" horiz-adv-x="538" d="M-10 1446l196 229h164l197 -229h-137l-138 139h-8l-137 -139h-137zM184 0v1343h170v-1343h-170z" />
<glyph unicode="&#xcf;" horiz-adv-x="538" d="M-8 1565q0 45 27.5 72.5t72.5 27.5q43 0 72 -27.5t29 -72.5q0 -43 -29 -72t-72 -29q-45 0 -72.5 29t-27.5 72zM184 0v1343h170v-1343h-170zM344 1565q0 45 28.5 72.5t71.5 27.5q45 0 73 -27.5t28 -72.5q0 -43 -28 -72t-73 -29q-43 0 -71.5 29t-28.5 72z" />
<glyph unicode="&#xd0;" horiz-adv-x="1306" d="M68 657v88l161 9v589h336q311 0 473 -172t162 -493q0 -160 -41 -286t-121 -213t-196.5 -133t-268.5 -46h-344v657h-161zM399 139h154q236 0 353.5 141.5t117.5 397.5t-118 391t-353 135h-154v-450h306v-97h-306v-518z" />
<glyph unicode="&#xd1;" horiz-adv-x="1325" d="M184 0v1343h176l486 -843l145 -279h8q-6 102 -13 212t-7 216v694h162v-1343h-176l-488 846l-145 276h-8q8 -102 15 -207.5t7 -212.5v-702h-162zM371 1456q10 96 55 158.5t119 62.5q41 0 73.5 -16t60.5 -36.5t54.5 -37t54.5 -16.5q29 0 51.5 27.5t30.5 78.5h95 q-10 -94 -55 -157.5t-119 -63.5q-41 0 -74 16.5t-60.5 37t-54.5 37t-55 16.5q-29 0 -51.5 -27t-30.5 -80h-94z" />
<glyph unicode="&#xd2;" horiz-adv-x="1359" d="M106 678q0 162 42 290t118 217t181.5 136t232.5 47t232.5 -48t182 -137t118.5 -217t42 -288q0 -162 -42 -292t-118.5 -221t-182 -140.5t-232.5 -49.5t-232.5 49.5t-181.5 140.5t-118 221t-42 292zM283 678q0 -127 28.5 -228.5t80.5 -174t125 -111.5t163 -39t162.5 39 t125 111.5t81 174t28.5 228.5q0 125 -28.5 225.5t-81 170t-125 107.5t-162.5 38t-163 -38t-125 -107.5t-80.5 -170t-28.5 -225.5zM412 1675h192l180 -229h-141z" />
<glyph unicode="&#xd3;" horiz-adv-x="1359" d="M106 678q0 162 42 290t118 217t181.5 136t232.5 47t232.5 -48t182 -137t118.5 -217t42 -288q0 -162 -42 -292t-118.5 -221t-182 -140.5t-232.5 -49.5t-232.5 49.5t-181.5 140.5t-118 221t-42 292zM283 678q0 -127 28.5 -228.5t80.5 -174t125 -111.5t163 -39t162.5 39 t125 111.5t81 174t28.5 228.5q0 125 -28.5 225.5t-81 170t-125 107.5t-162.5 38t-163 -38t-125 -107.5t-80.5 -170t-28.5 -225.5zM575 1446l181 229h192l-231 -229h-142z" />
<glyph unicode="&#xd4;" horiz-adv-x="1359" d="M106 678q0 162 42 290t118 217t181.5 136t232.5 47t232.5 -48t182 -137t118.5 -217t42 -288q0 -162 -42 -292t-118.5 -221t-182 -140.5t-232.5 -49.5t-232.5 49.5t-181.5 140.5t-118 221t-42 292zM283 678q0 -127 28.5 -228.5t80.5 -174t125 -111.5t163 -39t162.5 39 t125 111.5t81 174t28.5 228.5q0 125 -28.5 225.5t-81 170t-125 107.5t-162.5 38t-163 -38t-125 -107.5t-80.5 -170t-28.5 -225.5zM401 1446l197 229h164l196 -229h-137l-137 139h-8l-137 -139h-138z" />
<glyph unicode="&#xd5;" horiz-adv-x="1359" d="M106 678q0 162 42 290t118 217t181.5 136t232.5 47t232.5 -48t182 -137t118.5 -217t42 -288q0 -162 -42 -292t-118.5 -221t-182 -140.5t-232.5 -49.5t-232.5 49.5t-181.5 140.5t-118 221t-42 292zM283 678q0 -127 28.5 -228.5t80.5 -174t125 -111.5t163 -39t162.5 39 t125 111.5t81 174t28.5 228.5q0 125 -28.5 225.5t-81 170t-125 107.5t-162.5 38t-163 -38t-125 -107.5t-80.5 -170t-28.5 -225.5zM383 1456q10 96 55 158.5t119 62.5q41 0 74 -16t60.5 -36.5t54 -37t55.5 -16.5t51 27.5t31 78.5h94q-10 -94 -55 -157.5t-119 -63.5 q-41 0 -74 16.5t-60.5 37t-54 37t-55.5 16.5t-51.5 -27t-30.5 -80h-94z" />
<glyph unicode="&#xd6;" horiz-adv-x="1359" d="M106 678q0 162 42 290t118 217t181.5 136t232.5 47t232.5 -48t182 -137t118.5 -217t42 -288q0 -162 -42 -292t-118.5 -221t-182 -140.5t-232.5 -49.5t-232.5 49.5t-181.5 140.5t-118 221t-42 292zM283 678q0 -127 28.5 -228.5t80.5 -174t125 -111.5t163 -39t162.5 39 t125 111.5t81 174t28.5 228.5q0 125 -28.5 225.5t-81 170t-125 107.5t-162.5 38t-163 -38t-125 -107.5t-80.5 -170t-28.5 -225.5zM403 1565q0 45 28 72.5t73 27.5q43 0 71.5 -27.5t28.5 -72.5q0 -43 -28.5 -72t-71.5 -29q-45 0 -73 29t-28 72zM756 1565q0 45 28.5 72.5 t71.5 27.5q45 0 72.5 -27.5t27.5 -72.5q0 -43 -27.5 -72t-72.5 -29q-43 0 -71.5 29t-28.5 72z" />
<glyph unicode="&#xd7;" horiz-adv-x="1017" d="M102 350l318 326l-318 323l91 93l317 -326l315 326l90 -93l-317 -323l317 -326l-90 -92l-315 328l-317 -328z" />
<glyph unicode="&#xd8;" horiz-adv-x="1359" d="M102 12l144 187q-66 90 -100.5 210.5t-34.5 268.5q0 162 42 290t118.5 217t182 136t232.5 47q213 0 358 -129l130 166l94 -72l-142 -184q63 -88 98.5 -206t35.5 -265q0 -162 -42 -292t-119 -221t-182.5 -140.5t-230.5 -49.5q-106 0 -197.5 34t-162.5 100l-129 -170z M287 678q0 -197 69 -336l590 766q-104 111 -260 111q-90 0 -163.5 -38t-126 -107.5t-81 -170t-28.5 -225.5zM426 238q51 -53 116.5 -83t143.5 -30q90 0 163 39t125 111.5t80.5 174t28.5 228.5q0 98 -17 180t-50 148z" />
<glyph unicode="&#xd9;" horiz-adv-x="1320" d="M178 555v788h170v-792q0 -121 24.5 -203t66.5 -131t99.5 -70.5t123.5 -21.5q68 0 125 21.5t100 70.5t67.5 131t24.5 203v792h164v-788q0 -162 -37 -272.5t-101.5 -179t-152.5 -98.5t-190 -30t-191.5 30t-154 98.5t-101.5 179t-37 272.5zM391 1675h193l180 -229h-141z" />
<glyph unicode="&#xda;" horiz-adv-x="1320" d="M178 555v788h170v-792q0 -121 24.5 -203t66.5 -131t99.5 -70.5t123.5 -21.5q68 0 125 21.5t100 70.5t67.5 131t24.5 203v792h164v-788q0 -162 -37 -272.5t-101.5 -179t-152.5 -98.5t-190 -30t-191.5 30t-154 98.5t-101.5 179t-37 272.5zM555 1446l180 229h193l-232 -229 h-141z" />
<glyph unicode="&#xdb;" horiz-adv-x="1320" d="M178 555v788h170v-792q0 -121 24.5 -203t66.5 -131t99.5 -70.5t123.5 -21.5q68 0 125 21.5t100 70.5t67.5 131t24.5 203v792h164v-788q0 -162 -37 -272.5t-101.5 -179t-152.5 -98.5t-190 -30t-191.5 30t-154 98.5t-101.5 179t-37 272.5zM381 1446l197 229h163l197 -229 h-137l-137 139h-9l-137 -139h-137z" />
<glyph unicode="&#xdc;" horiz-adv-x="1320" d="M178 555v788h170v-792q0 -121 24.5 -203t66.5 -131t99.5 -70.5t123.5 -21.5q68 0 125 21.5t100 70.5t67.5 131t24.5 203v792h164v-788q0 -162 -37 -272.5t-101.5 -179t-152.5 -98.5t-190 -30t-191.5 30t-154 98.5t-101.5 179t-37 272.5zM383 1565q0 45 27.5 72.5 t72.5 27.5q43 0 72 -27.5t29 -72.5q0 -43 -29 -72t-72 -29q-45 0 -72.5 29t-27.5 72zM735 1565q0 45 29 72.5t72 27.5q45 0 72.5 -27.5t27.5 -72.5q0 -43 -27.5 -72t-72.5 -29q-43 0 -72 29t-29 72z" />
<glyph unicode="&#xdd;" horiz-adv-x="974" d="M-2 1343h182l174 -378q33 -74 64 -145.5t65 -147.5h9q35 76 69.5 147.5t65.5 145.5l172 378h178l-404 -823v-520h-172v520zM383 1446l180 229h193l-232 -229h-141z" />
<glyph unicode="&#xde;" horiz-adv-x="1193" d="M184 0v1343h170v-225h242q111 0 203 -20.5t156.5 -67.5t100.5 -121.5t36 -185.5q0 -106 -36 -185t-101.5 -130.5t-156.5 -76t-202 -24.5h-242v-307h-170zM354 446h221q176 0 261.5 66t85.5 211t-86 200.5t-261 55.5h-221v-533z" />
<glyph unicode="&#xdf;" horiz-adv-x="1179" d="M168 0v1055q0 193 104.5 308.5t296.5 115.5q80 0 142.5 -23.5t105.5 -64.5t64.5 -95.5t21.5 -115.5q0 -78 -28.5 -132.5t-64.5 -99.5t-64.5 -87t-28.5 -95q0 -49 29.5 -82t74.5 -58.5t97.5 -52t97.5 -63.5t74.5 -92.5t29.5 -136.5q0 -66 -22.5 -121.5t-65.5 -96 t-103.5 -64.5t-135.5 -24q-86 0 -156 27t-133 74l67 119q53 -45 105.5 -67t111.5 -22q86 0 129.5 49.5t43.5 114.5q0 59 -30 98.5t-75 68t-97 54t-97.5 58.5t-75 79t-29.5 117q0 70 27.5 119t61.5 94.5t62.5 92.5t28.5 112q0 78 -42 128t-128 50q-111 0 -171 -78.5 t-60 -238.5v-1024h-168z" />
<glyph unicode="&#xe0;" horiz-adv-x="1048" d="M119 258q0 164 146.5 251t465.5 122q0 47 -9 92t-32.5 80t-62.5 56.5t-101 21.5q-88 0 -162.5 -33t-134.5 -74l-67 117q70 45 170 87t221 42q182 0 264 -111.5t82 -298.5v-610h-139l-15 119h-4q-72 -59 -154.5 -101.5t-174.5 -42.5q-127 0 -210 74t-83 209zM285 270 q0 -86 50 -122.5t124 -36.5q72 0 136 33.5t136 99.5v276q-125 -16 -211 -38.5t-138 -53.5t-74.5 -71t-22.5 -87zM324 1462h176l184 -288h-129z" />
<glyph unicode="&#xe1;" horiz-adv-x="1048" d="M119 258q0 164 146.5 251t465.5 122q0 47 -9 92t-32.5 80t-62.5 56.5t-101 21.5q-88 0 -162.5 -33t-134.5 -74l-67 117q70 45 170 87t221 42q182 0 264 -111.5t82 -298.5v-610h-139l-15 119h-4q-72 -59 -154.5 -101.5t-174.5 -42.5q-127 0 -210 74t-83 209zM285 270 q0 -86 50 -122.5t124 -36.5q72 0 136 33.5t136 99.5v276q-125 -16 -211 -38.5t-138 -53.5t-74.5 -71t-22.5 -87zM418 1174l184 288h176l-231 -288h-129z" />
<glyph unicode="&#xe2;" horiz-adv-x="1048" d="M119 258q0 164 146.5 251t465.5 122q0 47 -9 92t-32.5 80t-62.5 56.5t-101 21.5q-88 0 -162.5 -33t-134.5 -74l-67 117q70 45 170 87t221 42q182 0 264 -111.5t82 -298.5v-610h-139l-15 119h-4q-72 -59 -154.5 -101.5t-174.5 -42.5q-127 0 -210 74t-83 209zM285 270 q0 -86 50 -122.5t124 -36.5q72 0 136 33.5t136 99.5v276q-125 -16 -211 -38.5t-138 -53.5t-74.5 -71t-22.5 -87zM287 1174l194 288h140l194 -288h-123l-137 186h-8l-137 -186h-123z" />
<glyph unicode="&#xe3;" horiz-adv-x="1048" d="M119 258q0 164 146.5 251t465.5 122q0 47 -9 92t-32.5 80t-62.5 56.5t-101 21.5q-88 0 -162.5 -33t-134.5 -74l-67 117q70 45 170 87t221 42q182 0 264 -111.5t82 -298.5v-610h-139l-15 119h-4q-72 -59 -154.5 -101.5t-174.5 -42.5q-127 0 -210 74t-83 209zM266 1186 q8 92 49 154.5t117 62.5q39 0 72 -16.5t60.5 -36t52 -36t49.5 -16.5q57 0 75 105h95q-8 -92 -49.5 -154.5t-116.5 -62.5q-39 0 -71 16.5t-59.5 35.5t-52 35.5t-51.5 16.5q-57 0 -76 -104h-94zM285 270q0 -86 50 -122.5t124 -36.5q72 0 136 33.5t136 99.5v276 q-125 -16 -211 -38.5t-138 -53.5t-74.5 -71t-22.5 -87z" />
<glyph unicode="&#xe4;" horiz-adv-x="1048" d="M119 258q0 164 146.5 251t465.5 122q0 47 -9 92t-32.5 80t-62.5 56.5t-101 21.5q-88 0 -162.5 -33t-134.5 -74l-67 117q70 45 170 87t221 42q182 0 264 -111.5t82 -298.5v-610h-139l-15 119h-4q-72 -59 -154.5 -101.5t-174.5 -42.5q-127 0 -210 74t-83 209zM274 1305 q0 43 28 71.5t73 28.5q43 0 71.5 -28.5t28.5 -71.5t-28.5 -72t-71.5 -29q-45 0 -73 29t-28 72zM285 270q0 -86 50 -122.5t124 -36.5q72 0 136 33.5t136 99.5v276q-125 -16 -211 -38.5t-138 -53.5t-74.5 -71t-22.5 -87zM627 1305q0 43 28.5 71.5t71.5 28.5q45 0 72.5 -28.5 t27.5 -71.5t-27.5 -72t-72.5 -29q-43 0 -71.5 29t-28.5 72z" />
<glyph unicode="&#xe5;" horiz-adv-x="1048" d="M119 258q0 164 146.5 251t465.5 122q0 47 -9 92t-32.5 80t-62.5 56.5t-101 21.5q-88 0 -162.5 -33t-134.5 -74l-67 117q70 45 170 87t221 42q182 0 264 -111.5t82 -298.5v-610h-139l-15 119h-4q-72 -59 -154.5 -101.5t-174.5 -42.5q-127 0 -210 74t-83 209zM285 270 q0 -86 50 -122.5t124 -36.5q72 0 136 33.5t136 99.5v276q-125 -16 -211 -38.5t-138 -53.5t-74.5 -71t-22.5 -87zM360 1300q0 86 53.5 137.5t137.5 51.5t137 -51.5t53 -137.5t-53 -138t-137 -52t-137.5 52t-53.5 138zM453 1300q0 -53 28.5 -83.5t69.5 -30.5t69.5 30.5 t28.5 83.5q0 51 -28.5 82t-69.5 31t-69.5 -30.5t-28.5 -82.5z" />
<glyph unicode="&#xe6;" horiz-adv-x="1607" d="M119 258q0 164 145.5 251t456.5 122q0 47 -8 92t-32 80t-62.5 56.5t-100.5 21.5q-82 0 -155.5 -33t-133.5 -74l-67 117q70 45 168 87t209 42t182.5 -56.5t101.5 -154.5q59 98 142.5 154.5t185.5 56.5q92 0 162.5 -33t119 -94.5t73 -148.5t24.5 -193q0 -57 -6 -94h-645 q2 -78 27.5 -141.5t66.5 -108.5t96 -69.5t119 -24.5q72 0 129 23.5t113 58.5l61 -117q-66 -41 -143.5 -72t-180.5 -31q-125 0 -209 56.5t-141 130.5q-102 -92 -205.5 -139.5t-199.5 -47.5q-127 0 -210 74t-83 209zM285 270q0 -86 50 -122.5t124 -36.5q70 0 151.5 39.5 t149.5 113.5q-16 39 -26.5 93.5t-12.5 111.5v51q-119 -16 -202 -38.5t-135 -53.5t-75.5 -71t-23.5 -87zM879 569h503q0 154 -60 236t-175 82q-104 0 -179 -85t-89 -233z" />
<glyph unicode="&#xe7;" horiz-adv-x="933" d="M94 496q0 125 39 222t104.5 164.5t152.5 102.5t183 35q98 0 169 -36t122 -83l-84 -108q-45 39 -93 63.5t-107 24.5q-68 0 -125.5 -28t-98.5 -79t-64.5 -121.5t-23.5 -156.5t22.5 -156t62.5 -120t97.5 -77.5t124.5 -27.5q72 0 130.5 29.5t103.5 70.5l76 -111 q-68 -59 -151 -94t-173 -35q-98 0 -184 35t-148.5 101.5t-98.5 164t-36 220.5zM383 -352q82 10 132 33.5t50 64.5t-33.5 62.5t-95.5 37.5l82 160h109l-52 -108q49 -16 85 -49t36 -97q0 -45 -24.5 -77.5t-65.5 -55t-95 -36t-112 -19.5z" />
<glyph unicode="&#xe8;" horiz-adv-x="1015" d="M94 496q0 123 38 220t100.5 164.5t142.5 103.5t166 36q94 0 168.5 -33t125 -94.5t77 -147.5t26.5 -192q0 -55 -6 -92h-672q10 -162 99.5 -256t232.5 -94q72 0 132 21.5t116 55.5l59 -110q-66 -41 -145.5 -72t-182.5 -31q-100 0 -187 36t-151.5 102.5t-101.5 163 t-37 219.5zM258 571h533q0 154 -64.5 235t-181.5 81q-53 0 -101.5 -21.5t-87.5 -61.5t-64.5 -98.5t-33.5 -134.5zM315 1462h177l184 -288h-129z" />
<glyph unicode="&#xe9;" horiz-adv-x="1015" d="M94 496q0 123 38 220t100.5 164.5t142.5 103.5t166 36q94 0 168.5 -33t125 -94.5t77 -147.5t26.5 -192q0 -55 -6 -92h-672q10 -162 99.5 -256t232.5 -94q72 0 132 21.5t116 55.5l59 -110q-66 -41 -145.5 -72t-182.5 -31q-100 0 -187 36t-151.5 102.5t-101.5 163 t-37 219.5zM258 571h533q0 154 -64.5 235t-181.5 81q-53 0 -101.5 -21.5t-87.5 -61.5t-64.5 -98.5t-33.5 -134.5zM410 1174l184 288h176l-231 -288h-129z" />
<glyph unicode="&#xea;" horiz-adv-x="1015" d="M94 496q0 123 38 220t100.5 164.5t142.5 103.5t166 36q94 0 168.5 -33t125 -94.5t77 -147.5t26.5 -192q0 -55 -6 -92h-672q10 -162 99.5 -256t232.5 -94q72 0 132 21.5t116 55.5l59 -110q-66 -41 -145.5 -72t-182.5 -31q-100 0 -187 36t-151.5 102.5t-101.5 163 t-37 219.5zM258 571h533q0 154 -64.5 235t-181.5 81q-53 0 -101.5 -21.5t-87.5 -61.5t-64.5 -98.5t-33.5 -134.5zM279 1174l194 288h139l195 -288h-123l-137 186h-8l-138 -186h-122z" />
<glyph unicode="&#xeb;" horiz-adv-x="1015" d="M94 496q0 123 38 220t100.5 164.5t142.5 103.5t166 36q94 0 168.5 -33t125 -94.5t77 -147.5t26.5 -192q0 -55 -6 -92h-672q10 -162 99.5 -256t232.5 -94q72 0 132 21.5t116 55.5l59 -110q-66 -41 -145.5 -72t-182.5 -31q-100 0 -187 36t-151.5 102.5t-101.5 163 t-37 219.5zM258 571h533q0 154 -64.5 235t-181.5 81q-53 0 -101.5 -21.5t-87.5 -61.5t-64.5 -98.5t-33.5 -134.5zM266 1305q0 43 28 71.5t73 28.5q43 0 71.5 -28.5t28.5 -71.5t-28.5 -72t-71.5 -29q-45 0 -73 29t-28 72zM618 1305q0 43 29 71.5t72 28.5q45 0 72.5 -28.5 t27.5 -71.5t-27.5 -72t-72.5 -29q-43 0 -72 29t-29 72z" />
<glyph unicode="&#xec;" horiz-adv-x="503" d="M25 1462h176l184 -288h-129zM168 0v995h168v-995h-168z" />
<glyph unicode="&#xed;" horiz-adv-x="503" d="M119 1174l184 288h176l-231 -288h-129zM168 0v995h168v-995h-168z" />
<glyph unicode="&#xee;" horiz-adv-x="503" d="M-12 1174l194 288h140l194 -288h-123l-137 186h-8l-137 -186h-123zM168 0v995h168v-995h-168z" />
<glyph unicode="&#xef;" horiz-adv-x="503" d="M-25 1305q0 43 28 71.5t73 28.5q43 0 71.5 -28.5t28.5 -71.5t-28.5 -72t-71.5 -29q-45 0 -73 29t-28 72zM168 0v995h168v-995h-168zM328 1305q0 43 28.5 71.5t71.5 28.5q45 0 72.5 -28.5t27.5 -71.5t-27.5 -72t-72.5 -29q-43 0 -71.5 29t-28.5 72z" />
<glyph unicode="&#xf0;" horiz-adv-x="1116" d="M109 455q0 104 32.5 189t89 145.5t133 93t166.5 32.5q78 0 150 -32.5t125 -102.5q-29 127 -85 221.5t-134 172.5l-289 -150l-49 84l260 133q-106 82 -229 148l77 106q74 -41 145.5 -86t137.5 -100l291 149l49 -84l-264 -135q123 -125 200.5 -297t77.5 -416 q0 -123 -31.5 -224t-90 -174t-139.5 -113t-181 -40q-86 0 -166 33t-141.5 95.5t-98 151.5t-36.5 200zM268 455q0 -78 22.5 -140.5t62.5 -106.5t91.5 -68.5t110.5 -24.5q70 0 121 29.5t86 83t52 128t17 164.5q0 29 -1 57.5t-3 55.5q-68 90 -135 120.5t-137 30.5 q-68 0 -121 -24.5t-90 -69.5t-56.5 -105.5t-19.5 -129.5z" />
<glyph unicode="&#xf1;" horiz-adv-x="1120" d="M168 0v995h139l15 -143h6q72 72 150.5 120t183.5 48q158 0 230.5 -98.5t72.5 -290.5v-631h-168v608q0 141 -45 203.5t-144 62.5q-78 0 -137 -38.5t-135 -114.5v-721h-168zM313 1186q8 92 49 154.5t117 62.5q39 0 72 -16.5t60.5 -36t52 -36t49.5 -16.5q57 0 75 105h95 q-8 -92 -49 -154.5t-117 -62.5q-39 0 -71 16.5t-59.5 35.5t-52 35.5t-51.5 16.5q-57 0 -75 -104h-95z" />
<glyph unicode="&#xf2;" horiz-adv-x="1110" d="M94 496q0 125 38 222t101.5 164.5t146.5 102.5t175 35t175 -35t146.5 -102.5t101.5 -164.5t38 -222q0 -123 -38 -220.5t-101.5 -164t-146.5 -101.5t-175 -35t-175 35t-146.5 101.5t-101.5 164t-38 220.5zM268 496q0 -86 20.5 -156t58.5 -120t91.5 -77.5t116.5 -27.5 t116.5 27.5t91.5 77.5t58.5 120t20.5 156t-20.5 156.5t-58.5 121.5t-91.5 79t-116.5 28t-116.5 -28t-91.5 -79t-58.5 -121.5t-20.5 -156.5zM328 1462h176l184 -288h-129z" />
<glyph unicode="&#xf3;" horiz-adv-x="1110" d="M94 496q0 125 38 222t101.5 164.5t146.5 102.5t175 35t175 -35t146.5 -102.5t101.5 -164.5t38 -222q0 -123 -38 -220.5t-101.5 -164t-146.5 -101.5t-175 -35t-175 35t-146.5 101.5t-101.5 164t-38 220.5zM268 496q0 -86 20.5 -156t58.5 -120t91.5 -77.5t116.5 -27.5 t116.5 27.5t91.5 77.5t58.5 120t20.5 156t-20.5 156.5t-58.5 121.5t-91.5 79t-116.5 28t-116.5 -28t-91.5 -79t-58.5 -121.5t-20.5 -156.5zM422 1174l184 288h176l-231 -288h-129z" />
<glyph unicode="&#xf4;" horiz-adv-x="1110" d="M94 496q0 125 38 222t101.5 164.5t146.5 102.5t175 35t175 -35t146.5 -102.5t101.5 -164.5t38 -222q0 -123 -38 -220.5t-101.5 -164t-146.5 -101.5t-175 -35t-175 35t-146.5 101.5t-101.5 164t-38 220.5zM268 496q0 -86 20.5 -156t58.5 -120t91.5 -77.5t116.5 -27.5 t116.5 27.5t91.5 77.5t58.5 120t20.5 156t-20.5 156.5t-58.5 121.5t-91.5 79t-116.5 28t-116.5 -28t-91.5 -79t-58.5 -121.5t-20.5 -156.5zM291 1174l194 288h140l194 -288h-123l-137 186h-8l-137 -186h-123z" />
<glyph unicode="&#xf5;" horiz-adv-x="1110" d="M94 496q0 125 38 222t101.5 164.5t146.5 102.5t175 35t175 -35t146.5 -102.5t101.5 -164.5t38 -222q0 -123 -38 -220.5t-101.5 -164t-146.5 -101.5t-175 -35t-175 35t-146.5 101.5t-101.5 164t-38 220.5zM268 496q0 -86 20.5 -156t58.5 -120t91.5 -77.5t116.5 -27.5 t116.5 27.5t91.5 77.5t58.5 120t20.5 156t-20.5 156.5t-58.5 121.5t-91.5 79t-116.5 28t-116.5 -28t-91.5 -79t-58.5 -121.5t-20.5 -156.5zM270 1186q8 92 49 154.5t117 62.5q39 0 72 -16.5t60.5 -36t52 -36t49.5 -16.5q57 0 75 105h95q-8 -92 -49 -154.5t-117 -62.5 q-39 0 -71 16.5t-59.5 35.5t-52 35.5t-51.5 16.5q-57 0 -75 -104h-95z" />
<glyph unicode="&#xf6;" horiz-adv-x="1110" d="M94 496q0 125 38 222t101.5 164.5t146.5 102.5t175 35t175 -35t146.5 -102.5t101.5 -164.5t38 -222q0 -123 -38 -220.5t-101.5 -164t-146.5 -101.5t-175 -35t-175 35t-146.5 101.5t-101.5 164t-38 220.5zM268 496q0 -86 20.5 -156t58.5 -120t91.5 -77.5t116.5 -27.5 t116.5 27.5t91.5 77.5t58.5 120t20.5 156t-20.5 156.5t-58.5 121.5t-91.5 79t-116.5 28t-116.5 -28t-91.5 -79t-58.5 -121.5t-20.5 -156.5zM279 1305q0 43 27.5 71.5t72.5 28.5q43 0 71.5 -28.5t28.5 -71.5t-28.5 -72t-71.5 -29q-45 0 -72.5 29t-27.5 72zM631 1305 q0 43 28.5 71.5t71.5 28.5q45 0 72.5 -28.5t27.5 -71.5t-27.5 -72t-72.5 -29q-43 0 -71.5 29t-28.5 72z" />
<glyph unicode="&#xf7;" horiz-adv-x="1017" d="M70 612v127h878v-127h-878zM397 307q0 47 33 78t80 31t79 -31t32 -78q0 -49 -32 -79.5t-79 -30.5t-80 30.5t-33 79.5zM397 1044q0 47 33 78t80 31t79 -30.5t32 -78.5q0 -49 -32 -79.5t-79 -30.5t-80 30.5t-33 79.5z" />
<glyph unicode="&#xf8;" horiz-adv-x="1110" d="M94 12l111 133q-51 66 -81 153t-30 198q0 125 38 222t101.5 164.5t146.5 102.5t175 35q78 0 151.5 -25.5t133.5 -76.5l102 124l74 -59l-111 -133q51 -66 81 -155t30 -199q0 -123 -38 -220.5t-101.5 -164t-146.5 -101.5t-175 -35q-162 0 -285 101l-100 -123zM260 504 q0 -137 47 -232l438 531q-76 82 -190 82q-63 0 -117.5 -28t-93.5 -78t-61.5 -120.5t-22.5 -154.5zM365 190q80 -80 190 -79q63 0 117.5 27.5t94.5 77.5t61.5 120t21.5 153q0 137 -49 234z" />
<glyph unicode="&#xf9;" horiz-adv-x="1114" d="M154 365v630h170v-608q0 -141 44 -203.5t142 -62.5q78 0 137.5 40t130.5 128v706h168v-995h-139l-14 156h-7q-70 -82 -146.5 -131.5t-180.5 -49.5q-160 0 -232.5 98.5t-72.5 291.5zM330 1462h176l184 -288h-129z" />
<glyph unicode="&#xfa;" horiz-adv-x="1114" d="M154 365v630h170v-608q0 -141 44 -203.5t142 -62.5q78 0 137.5 40t130.5 128v706h168v-995h-139l-14 156h-7q-70 -82 -146.5 -131.5t-180.5 -49.5q-160 0 -232.5 98.5t-72.5 291.5zM424 1174l184 288h176l-231 -288h-129z" />
<glyph unicode="&#xfb;" horiz-adv-x="1114" d="M154 365v630h170v-608q0 -141 44 -203.5t142 -62.5q78 0 137.5 40t130.5 128v706h168v-995h-139l-14 156h-7q-70 -82 -146.5 -131.5t-180.5 -49.5q-160 0 -232.5 98.5t-72.5 291.5zM293 1174l194 288h140l194 -288h-123l-137 186h-8l-137 -186h-123z" />
<glyph unicode="&#xfc;" horiz-adv-x="1114" d="M154 365v630h170v-608q0 -141 44 -203.5t142 -62.5q78 0 137.5 40t130.5 128v706h168v-995h-139l-14 156h-7q-70 -82 -146.5 -131.5t-180.5 -49.5q-160 0 -232.5 98.5t-72.5 291.5zM281 1305q0 43 27.5 71.5t72.5 28.5q43 0 71.5 -28.5t28.5 -71.5t-28.5 -72t-71.5 -29 q-45 0 -72.5 29t-27.5 72zM633 1305q0 43 28.5 71.5t71.5 28.5q45 0 73 -28.5t28 -71.5t-28 -72t-73 -29q-43 0 -71.5 29t-28.5 72z" />
<glyph unicode="&#xfd;" horiz-adv-x="956" d="M25 995h174l202 -551q23 -66 48.5 -138.5t48.5 -141.5h8q23 68 43 141.5t41 138.5l178 551h164l-375 -1077q-27 -74 -59.5 -137.5t-77.5 -109.5t-102.5 -72.5t-133.5 -26.5q-35 0 -63.5 5t-52.5 15l32 134q16 -4 37 -9.5t39 -5.5q86 0 140.5 60.5t84.5 152.5l23 74z M362 1174l185 288h176l-231 -288h-130z" />
<glyph unicode="&#xfe;" horiz-adv-x="1136" d="M168 -420v1878h168v-397l-2 -170q66 53 143.5 91t159.5 38q98 0 173 -36t126 -102.5t76.5 -159.5t25.5 -210q0 -127 -34.5 -226.5t-94 -169t-137.5 -105.5t-164 -36q-72 0 -139.5 29t-134.5 82l2 -170v-336h-168zM336 221q68 -57 131 -80.5t113 -23.5q61 0 113 27.5 t90 77.5t59.5 124t21.5 166q0 82 -14 149.5t-46 115.5t-82 75t-120 27q-63 0 -127.5 -35t-138.5 -101v-522z" />
<glyph unicode="&#xff;" horiz-adv-x="956" d="M25 995h174l202 -551q23 -66 48.5 -138.5t48.5 -141.5h8q23 68 43 141.5t41 138.5l178 551h164l-375 -1077q-27 -74 -59.5 -137.5t-77.5 -109.5t-102.5 -72.5t-133.5 -26.5q-35 0 -63.5 5t-52.5 15l32 134q16 -4 37 -9.5t39 -5.5q86 0 140.5 60.5t84.5 152.5l23 74z M219 1305q0 43 27.5 71.5t72.5 28.5q43 0 72 -28.5t29 -71.5t-29 -72t-72 -29q-45 0 -72.5 29t-27.5 72zM571 1305q0 43 29 71.5t72 28.5q45 0 72.5 -28.5t27.5 -71.5t-27.5 -72t-72.5 -29q-43 0 -72 29t-29 72z" />
<glyph unicode="&#x100;" horiz-adv-x="1114" d="M6 0l455 1343h192l455 -1343h-182l-127 410h-490l-129 -410h-174zM301 1493v117h508v-117h-508zM352 547h404l-64 205q-37 113 -69.5 224t-65.5 228h-8q-31 -117 -63.5 -228.5t-69.5 -223.5z" />
<glyph unicode="&#x101;" horiz-adv-x="1048" d="M119 258q0 164 146.5 251t465.5 122q0 47 -9 92t-32.5 80t-62.5 56.5t-101 21.5q-88 0 -162.5 -33t-134.5 -74l-67 117q70 45 170 87t221 42q182 0 264 -111.5t82 -298.5v-610h-139l-15 119h-4q-72 -59 -154.5 -101.5t-174.5 -42.5q-127 0 -210 74t-83 209zM285 270 q0 -86 50 -122.5t124 -36.5q72 0 136 33.5t136 99.5v276q-125 -16 -211 -38.5t-138 -53.5t-74.5 -71t-22.5 -87zM299 1231v117h504v-117h-504z" />
<glyph unicode="&#x102;" horiz-adv-x="1114" d="M6 0l455 1343h192l455 -1343h-182l-127 410h-490l-129 -410h-174zM303 1675h103q10 -49 44.5 -89t104.5 -40t104.5 40t45.5 89h102q-6 -43 -22.5 -84t-47 -71.5t-76 -50t-106.5 -19.5t-106.5 19.5t-76 50t-47 71.5t-22.5 84zM352 547h404l-64 205q-37 113 -69.5 224 t-65.5 228h-8q-31 -117 -63.5 -228.5t-69.5 -223.5z" />
<glyph unicode="&#x103;" horiz-adv-x="1048" d="M119 258q0 164 146.5 251t465.5 122q0 47 -9 92t-32.5 80t-62.5 56.5t-101 21.5q-88 0 -162.5 -33t-134.5 -74l-67 117q70 45 170 87t221 42q182 0 264 -111.5t82 -298.5v-610h-139l-15 119h-4q-72 -59 -154.5 -101.5t-174.5 -42.5q-127 0 -210 74t-83 209zM285 270 q0 -86 50 -122.5t124 -36.5q72 0 136 33.5t136 99.5v276q-125 -16 -211 -38.5t-138 -53.5t-74.5 -71t-22.5 -87zM293 1438h104q8 -59 45 -107.5t109 -48.5t108.5 48t45.5 108h104q-4 -45 -19.5 -91.5t-46 -84t-78.5 -61t-114 -23.5t-114 23.5t-78.5 61t-47 84t-18.5 91.5z " />
<glyph unicode="&#x104;" horiz-adv-x="1114" d="M6 0l455 1343h192l455 -1343q-72 -29 -118 -92.5t-46 -126.5q0 -47 28.5 -70.5t65.5 -23.5q47 0 86 28l47 -92q-31 -23 -76.5 -40t-86.5 -17q-82 0 -139.5 45t-57.5 133q0 41 14.5 80t37 71.5t49 59.5t53.5 45h-39l-127 410h-490l-129 -410h-174zM352 547h404l-64 205 q-37 113 -69.5 224t-65.5 228h-8q-31 -117 -63.5 -228.5t-69.5 -223.5z" />
<glyph unicode="&#x105;" horiz-adv-x="1048" d="M119 258q0 164 146.5 251t465.5 122q0 47 -9 92t-32.5 80t-62.5 56.5t-101 21.5q-88 0 -162.5 -33t-134.5 -74l-67 117q70 45 170 87t221 42q182 0 264 -111.5t82 -298.5v-610q-86 -35 -132 -95.5t-46 -119.5q0 -47 29.5 -70.5t66.5 -23.5q25 0 44.5 7t37.5 19l43 -84 q-29 -23 -75 -39t-85 -16q-78 0 -131 44t-53 130q0 41 14.5 79t38 70.5t52 60.5t59.5 46l-17 111h-4q-72 -59 -154.5 -101.5t-174.5 -42.5q-127 0 -210 74t-83 209zM285 270q0 -86 50 -122.5t124 -36.5q72 0 136 33.5t136 99.5v276q-125 -16 -211 -38.5t-138 -53.5 t-74.5 -71t-22.5 -87z" />
<glyph unicode="&#x106;" horiz-adv-x="1169" d="M106 672q0 162 45.5 291t125 219t189 138t239.5 48q123 0 215 -50t151 -116l-96 -108q-53 57 -117.5 91t-150.5 34q-96 0 -174 -38t-133.5 -109t-86 -171t-30.5 -225q0 -127 29.5 -228.5t83 -173t130 -110.5t172.5 -39q98 0 171 39t139 110l96 -104 q-80 -92 -180.5 -143.5t-229.5 -51.5q-127 0 -234.5 47.5t-186 136.5t-123 219t-44.5 294zM571 1446l181 229h192l-231 -229h-142z" />
<glyph unicode="&#x107;" horiz-adv-x="933" d="M94 496q0 125 39 222t104.5 164.5t152.5 102.5t183 35q98 0 169 -36t122 -83l-84 -108q-45 39 -93 63.5t-107 24.5q-68 0 -125.5 -28t-98.5 -79t-64.5 -121.5t-23.5 -156.5t22.5 -156t62.5 -120t97.5 -77.5t124.5 -27.5q72 0 130.5 29.5t103.5 70.5l76 -111 q-68 -59 -151 -94t-173 -35q-98 0 -184 35t-148.5 101.5t-98.5 164t-36 220.5zM438 1174l185 288h176l-232 -288h-129z" />
<glyph unicode="&#x108;" horiz-adv-x="1169" d="M106 672q0 162 45.5 291t125 219t189 138t239.5 48q123 0 215 -50t151 -116l-96 -108q-53 57 -117.5 91t-150.5 34q-96 0 -174 -38t-133.5 -109t-86 -171t-30.5 -225q0 -127 29.5 -228.5t83 -173t130 -110.5t172.5 -39q98 0 171 39t139 110l96 -104 q-80 -92 -180.5 -143.5t-229.5 -51.5q-127 0 -234.5 47.5t-186 136.5t-123 219t-44.5 294zM397 1446l197 229h164l196 -229h-137l-137 139h-8l-137 -139h-138z" />
<glyph unicode="&#x109;" horiz-adv-x="933" d="M94 496q0 125 39 222t104.5 164.5t152.5 102.5t183 35q98 0 169 -36t122 -83l-84 -108q-45 39 -93 63.5t-107 24.5q-68 0 -125.5 -28t-98.5 -79t-64.5 -121.5t-23.5 -156.5t22.5 -156t62.5 -120t97.5 -77.5t124.5 -27.5q72 0 130.5 29.5t103.5 70.5l76 -111 q-68 -59 -151 -94t-173 -35q-98 0 -184 35t-148.5 101.5t-98.5 164t-36 220.5zM307 1174l195 288h139l195 -288h-123l-138 186h-8l-137 -186h-123z" />
<glyph unicode="&#x10a;" horiz-adv-x="1169" d="M106 672q0 162 45.5 291t125 219t189 138t239.5 48q123 0 215 -50t151 -116l-96 -108q-53 57 -117.5 91t-150.5 34q-96 0 -174 -38t-133.5 -109t-86 -171t-30.5 -225q0 -127 29.5 -228.5t83 -173t130 -110.5t172.5 -39q98 0 171 39t139 110l96 -104 q-80 -92 -180.5 -143.5t-229.5 -51.5q-127 0 -234.5 47.5t-186 136.5t-123 219t-44.5 294zM559 1573q0 47 34 77.5t83 30.5t83 -30.5t34 -77.5q0 -49 -34 -80t-83 -31t-83 31t-34 80z" />
<glyph unicode="&#x10b;" horiz-adv-x="933" d="M94 496q0 125 39 222t104.5 164.5t152.5 102.5t183 35q98 0 169 -36t122 -83l-84 -108q-45 39 -93 63.5t-107 24.5q-68 0 -125.5 -28t-98.5 -79t-64.5 -121.5t-23.5 -156.5t22.5 -156t62.5 -120t97.5 -77.5t124.5 -27.5q72 0 130.5 29.5t103.5 70.5l76 -111 q-68 -59 -151 -94t-173 -35q-98 0 -184 35t-148.5 101.5t-98.5 164t-36 220.5zM461 1311q0 47 31.5 78.5t78.5 31.5t79 -31.5t32 -78.5q0 -49 -32 -80t-79 -31t-78.5 31t-31.5 80z" />
<glyph unicode="&#x10c;" horiz-adv-x="1169" d="M106 672q0 162 45.5 291t125 219t189 138t239.5 48q123 0 215 -50t151 -116l-96 -108q-53 57 -117.5 91t-150.5 34q-96 0 -174 -38t-133.5 -109t-86 -171t-30.5 -225q0 -127 29.5 -228.5t83 -173t130 -110.5t172.5 -39q98 0 171 39t139 110l96 -104 q-80 -92 -180.5 -143.5t-229.5 -51.5q-127 0 -234.5 47.5t-186 136.5t-123 219t-44.5 294zM397 1675h138l137 -139h8l137 139h137l-196 -229h-164z" />
<glyph unicode="&#x10d;" horiz-adv-x="933" d="M94 496q0 125 39 222t104.5 164.5t152.5 102.5t183 35q98 0 169 -36t122 -83l-84 -108q-45 39 -93 63.5t-107 24.5q-68 0 -125.5 -28t-98.5 -79t-64.5 -121.5t-23.5 -156.5t22.5 -156t62.5 -120t97.5 -77.5t124.5 -27.5q72 0 130.5 29.5t103.5 70.5l76 -111 q-68 -59 -151 -94t-173 -35q-98 0 -184 35t-148.5 101.5t-98.5 164t-36 220.5zM307 1462h123l137 -188h8l138 188h123l-195 -288h-139z" />
<glyph unicode="&#x10e;" horiz-adv-x="1259" d="M184 0v1343h336q311 0 473 -172t162 -493q0 -160 -41 -286t-121 -213t-196.5 -133t-268.5 -46h-344zM350 1675h137l138 -139h8l137 139h137l-196 -229h-164zM354 139h154q236 0 353.5 141.5t117.5 397.5t-118 391t-353 135h-154v-1065z" />
<glyph unicode="&#x10f;" horiz-adv-x="1173" d="M96 496q0 121 36 218t95.5 164.5t137 104.5t163.5 37t149.5 -31t129.5 -84l-8 170v383h170v-1458h-140l-14 117h-6q-59 -57 -136 -99.5t-165 -42.5q-188 0 -300 135.5t-112 385.5zM270 498q0 -180 72 -280.5t203 -100.5q70 0 131 33.5t123 103.5v520q-63 57 -122 81 t-120 24q-59 0 -111.5 -28t-91.5 -78t-61.5 -119.5t-22.5 -155.5zM1077 1556h121l-2 -116l-29 -318h-82z" />
<glyph unicode="&#x110;" horiz-adv-x="1306" d="M68 657v88l161 9v589h336q311 0 473 -172t162 -493q0 -160 -41 -286t-121 -213t-196.5 -133t-268.5 -46h-344v657h-161zM399 139h154q236 0 353.5 141.5t117.5 397.5t-118 391t-353 135h-154v-450h306v-97h-306v-518z" />
<glyph unicode="&#x111;" horiz-adv-x="1136" d="M96 475q0 117 36 210t95.5 158.5t137 100.5t163.5 35t149.5 -30.5t129.5 -84.5l-8 170v135h-330v99h330v190h170v-190h147v-88l-147 -11v-1169h-144l-12 113h-6q-57 -57 -133 -97.5t-166 -40.5q-188 0 -300 129t-112 371zM270 477q0 -172 72 -266t203 -94q70 0 131 33.5 t123 103.5v479q-63 57 -122 81t-120 24q-59 0 -111.5 -26t-91.5 -74t-61.5 -114.5t-22.5 -146.5z" />
<glyph unicode="&#x112;" horiz-adv-x="1079" d="M184 0v1343h774v-143h-604v-422h510v-145h-510v-488h625v-145h-795zM328 1493v117h508v-117h-508z" />
<glyph unicode="&#x113;" horiz-adv-x="1015" d="M94 496q0 123 38 220t100.5 164.5t142.5 103.5t166 36q94 0 168.5 -33t125 -94.5t77 -147.5t26.5 -192q0 -55 -6 -92h-672q10 -162 99.5 -256t232.5 -94q72 0 132 21.5t116 55.5l59 -110q-66 -41 -145.5 -72t-182.5 -31q-100 0 -187 36t-151.5 102.5t-101.5 163 t-37 219.5zM258 571h533q0 154 -64.5 235t-181.5 81q-53 0 -101.5 -21.5t-87.5 -61.5t-64.5 -98.5t-33.5 -134.5zM291 1231v117h504v-117h-504z" />
<glyph unicode="&#x114;" horiz-adv-x="1079" d="M184 0v1343h774v-143h-604v-422h510v-145h-510v-488h625v-145h-795zM330 1675h102q10 -49 45 -89t105 -40t104.5 40t44.5 89h103q-6 -43 -22.5 -84t-47.5 -71.5t-76 -50t-106 -19.5t-106.5 19.5t-76 50t-47 71.5t-22.5 84z" />
<glyph unicode="&#x115;" horiz-adv-x="1015" d="M94 496q0 123 38 220t100.5 164.5t142.5 103.5t166 36q94 0 168.5 -33t125 -94.5t77 -147.5t26.5 -192q0 -55 -6 -92h-672q10 -162 99.5 -256t232.5 -94q72 0 132 21.5t116 55.5l59 -110q-66 -41 -145.5 -72t-182.5 -31q-100 0 -187 36t-151.5 102.5t-101.5 163 t-37 219.5zM258 571h533q0 154 -64.5 235t-181.5 81q-53 0 -101.5 -21.5t-87.5 -61.5t-64.5 -98.5t-33.5 -134.5zM285 1438h104q8 -59 45 -107.5t109 -48.5t108.5 48t44.5 108h105q-4 -45 -19.5 -91.5t-46 -84t-78.5 -61t-114 -23.5t-114 23.5t-79 61t-47 84t-18 91.5z" />
<glyph unicode="&#x116;" horiz-adv-x="1079" d="M184 0v1343h774v-143h-604v-422h510v-145h-510v-488h625v-145h-795zM465 1573q0 47 33.5 77.5t83.5 30.5q49 0 82.5 -30.5t33.5 -77.5q0 -49 -33.5 -80t-82.5 -31t-83 31t-34 80z" />
<glyph unicode="&#x117;" horiz-adv-x="1015" d="M94 496q0 123 38 220t100.5 164.5t142.5 103.5t166 36q94 0 168.5 -33t125 -94.5t77 -147.5t26.5 -192q0 -55 -6 -92h-672q10 -162 99.5 -256t232.5 -94q72 0 132 21.5t116 55.5l59 -110q-66 -41 -145.5 -72t-182.5 -31q-100 0 -187 36t-151.5 102.5t-101.5 163 t-37 219.5zM258 571h533q0 154 -64.5 235t-181.5 81q-53 0 -101.5 -21.5t-87.5 -61.5t-64.5 -98.5t-33.5 -134.5zM432 1311q0 47 32 78.5t79 31.5t78.5 -31.5t31.5 -78.5q0 -49 -31.5 -80t-78.5 -31t-79 31t-32 80z" />
<glyph unicode="&#x118;" horiz-adv-x="1079" d="M184 0v1343h774v-143h-604v-422h510v-145h-510v-488h625v-145h-6q-35 -4 -69 -23.5t-60.5 -49t-43 -67.5t-16.5 -79q0 -47 31 -70.5t68 -23.5q43 0 82 28l47 -92q-29 -23 -76 -40t-88 -17q-82 0 -139.5 45t-57.5 133q0 86 48.5 152.5t105.5 103.5h-621z" />
<glyph unicode="&#x119;" horiz-adv-x="1015" d="M94 496q0 123 38 220t100.5 164.5t142.5 103.5t166 36q94 0 168.5 -33t125 -94.5t77 -147.5t26.5 -192q0 -55 -6 -92h-672q10 -162 99.5 -256t232.5 -94q72 0 132 21.5t116 55.5l59 -110q-68 -47 -111 -87t-69.5 -75t-36.5 -66.5t-10 -64.5q0 -47 28.5 -70.5t67.5 -23.5 q25 0 44 7t38 19l43 -84q-29 -23 -75 -39t-85 -16q-78 0 -131 44t-53 130q0 39 11 74t29.5 65.5t40 55t42.5 43.5q-27 -10 -51.5 -12.5t-49.5 -2.5q-100 0 -187 36t-151.5 102.5t-101.5 163t-37 219.5zM258 571h533q0 154 -63.5 235t-182.5 81q-53 0 -101.5 -21.5 t-87.5 -61.5t-64.5 -98.5t-33.5 -134.5z" />
<glyph unicode="&#x11a;" horiz-adv-x="1079" d="M184 0v1343h774v-143h-604v-422h510v-145h-510v-488h625v-145h-795zM303 1675h137l138 -139h8l137 139h137l-196 -229h-164z" />
<glyph unicode="&#x11b;" horiz-adv-x="1015" d="M94 496q0 123 38 220t100.5 164.5t142.5 103.5t166 36q94 0 168.5 -33t125 -94.5t77 -147.5t26.5 -192q0 -55 -6 -92h-672q10 -162 99.5 -256t232.5 -94q72 0 132 21.5t116 55.5l59 -110q-66 -41 -145.5 -72t-182.5 -31q-100 0 -187 36t-151.5 102.5t-101.5 163 t-37 219.5zM258 571h533q0 154 -64.5 235t-181.5 81q-53 0 -101.5 -21.5t-87.5 -61.5t-64.5 -98.5t-33.5 -134.5zM279 1462h122l138 -188h8l137 188h123l-195 -288h-139z" />
<glyph unicode="&#x11c;" horiz-adv-x="1263" d="M106 672q0 162 46.5 291t129.5 219t195.5 138t247.5 48q139 0 232.5 -52t152.5 -114l-96 -108q-51 53 -118 89t-169 36t-184 -38t-139.5 -109t-89 -171t-31.5 -225q0 -127 29.5 -228.5t86 -173t139.5 -110.5t191 -39q72 0 136.5 21.5t105.5 58.5v350h-285v141h440v-565 q-66 -68 -173 -112t-242 -44q-133 0 -244 47.5t-190.5 136.5t-125 219t-45.5 294zM444 1446l197 229h164l196 -229h-137l-137 139h-8l-137 -139h-138z" />
<glyph unicode="&#x11d;" horiz-adv-x="1032" d="M92 -190q0 63 39 120.5t107 104.5v8q-37 23 -62.5 62.5t-25.5 99.5q0 63 34.5 110t73.5 74v8q-49 41 -89 109.5t-40 159.5q0 82 29.5 147.5t81 111.5t120 70.5t144.5 24.5q41 0 76.5 -7t64.5 -18h346v-129h-205q35 -35 58.5 -88t23.5 -116q0 -80 -28.5 -144.5 t-77.5 -108.5t-115.5 -69t-142.5 -25q-37 0 -76 9.5t-74 25.5q-27 -23 -45 -50.5t-18 -68.5q0 -47 37 -77.5t139 -30.5h192q174 0 261.5 -56.5t87.5 -181.5q0 -70 -35 -132t-100.5 -109t-158.5 -75t-210 -28q-92 0 -168 17.5t-130 52.5t-84 84t-30 115zM225 1174l195 288 h139l195 -288h-123l-137 186h-9l-137 -186h-123zM240 -168q0 -80 76.5 -127t211.5 -47q72 0 130.5 17.5t99.5 45t63.5 64.5t22.5 76q0 70 -51.5 96.5t-149.5 26.5h-172q-29 0 -62.5 3t-66.5 13q-53 -39 -77.5 -82t-24.5 -86zM293 666q0 -55 16.5 -99.5t46 -75t67.5 -47 t81 -16.5t81 16.5t67.5 47t46 74.5t16.5 100q0 111 -61.5 171t-149.5 60t-149.5 -60.5t-61.5 -170.5z" />
<glyph unicode="&#x11e;" horiz-adv-x="1263" d="M106 672q0 162 46.5 291t129.5 219t195.5 138t247.5 48q139 0 232.5 -52t152.5 -114l-96 -108q-51 53 -118 89t-169 36t-184 -38t-139.5 -109t-89 -171t-31.5 -225q0 -127 29.5 -228.5t86 -173t139.5 -110.5t191 -39q72 0 136.5 21.5t105.5 58.5v350h-285v141h440v-565 q-66 -68 -173 -112t-242 -44q-133 0 -244 47.5t-190.5 136.5t-125 219t-45.5 294zM471 1675h102q10 -49 45 -89t105 -40t104.5 40t44.5 89h103q-6 -43 -22.5 -84t-47.5 -71.5t-76 -50t-106 -19.5t-106.5 19.5t-76 50t-47 71.5t-22.5 84z" />
<glyph unicode="&#x11f;" horiz-adv-x="1032" d="M92 -190q0 63 39 120.5t107 104.5v8q-37 23 -62.5 62.5t-25.5 99.5q0 63 34.5 110t73.5 74v8q-49 41 -89 109.5t-40 159.5q0 82 29.5 147.5t81 111.5t120 70.5t144.5 24.5q41 0 76.5 -7t64.5 -18h346v-129h-205q35 -35 58.5 -88t23.5 -116q0 -80 -28.5 -144.5 t-77.5 -108.5t-115.5 -69t-142.5 -25q-37 0 -76 9.5t-74 25.5q-27 -23 -45 -50.5t-18 -68.5q0 -47 37 -77.5t139 -30.5h192q174 0 261.5 -56.5t87.5 -181.5q0 -70 -35 -132t-100.5 -109t-158.5 -75t-210 -28q-92 0 -168 17.5t-130 52.5t-84 84t-30 115zM231 1438h105 q8 -59 45 -107.5t108 -48.5q72 0 109 48t45 108h105q-4 -45 -19.5 -91.5t-46.5 -84t-79 -61t-114 -23.5t-113.5 23.5t-78.5 61t-47.5 84t-18.5 91.5zM240 -168q0 -80 76.5 -127t211.5 -47q72 0 130.5 17.5t99.5 45t63.5 64.5t22.5 76q0 70 -51.5 96.5t-149.5 26.5h-172 q-29 0 -62.5 3t-66.5 13q-53 -39 -77.5 -82t-24.5 -86zM293 666q0 -55 16.5 -99.5t46 -75t67.5 -47t81 -16.5t81 16.5t67.5 47t46 74.5t16.5 100q0 111 -61.5 171t-149.5 60t-149.5 -60.5t-61.5 -170.5z" />
<glyph unicode="&#x120;" horiz-adv-x="1263" d="M106 672q0 162 46.5 291t129.5 219t195.5 138t247.5 48q139 0 232.5 -52t152.5 -114l-96 -108q-51 53 -118 89t-169 36t-184 -38t-139.5 -109t-89 -171t-31.5 -225q0 -127 29.5 -228.5t86 -173t139.5 -110.5t191 -39q72 0 136.5 21.5t105.5 58.5v350h-285v141h440v-565 q-66 -68 -173 -112t-242 -44q-133 0 -244 47.5t-190.5 136.5t-125 219t-45.5 294zM606 1573q0 47 34 77.5t83 30.5t83 -30.5t34 -77.5q0 -49 -34 -80t-83 -31t-83 31t-34 80z" />
<glyph unicode="&#x121;" horiz-adv-x="1032" d="M92 -190q0 63 39 120.5t107 104.5v8q-37 23 -62.5 62.5t-25.5 99.5q0 63 34.5 110t73.5 74v8q-49 41 -89 109.5t-40 159.5q0 82 29.5 147.5t81 111.5t120 70.5t144.5 24.5q41 0 76.5 -7t64.5 -18h346v-129h-205q35 -35 58.5 -88t23.5 -116q0 -80 -28.5 -144.5 t-77.5 -108.5t-115.5 -69t-142.5 -25q-37 0 -76 9.5t-74 25.5q-27 -23 -45 -50.5t-18 -68.5q0 -47 37 -77.5t139 -30.5h192q174 0 261.5 -56.5t87.5 -181.5q0 -70 -35 -132t-100.5 -109t-158.5 -75t-210 -28q-92 0 -168 17.5t-130 52.5t-84 84t-30 115zM240 -168 q0 -80 76.5 -127t211.5 -47q72 0 130.5 17.5t99.5 45t63.5 64.5t22.5 76q0 70 -51.5 96.5t-149.5 26.5h-172q-29 0 -62.5 3t-66.5 13q-53 -39 -77.5 -82t-24.5 -86zM293 666q0 -55 16.5 -99.5t46 -75t67.5 -47t81 -16.5t81 16.5t67.5 47t46 74.5t16.5 100q0 111 -61.5 171 t-149.5 60t-149.5 -60.5t-61.5 -170.5zM379 1311q0 47 31.5 78.5t78.5 31.5t79 -31.5t32 -78.5q0 -49 -32 -80t-79 -31t-78.5 31t-31.5 80z" />
<glyph unicode="&#x122;" horiz-adv-x="1263" d="M106 672q0 162 46.5 291t129.5 219t195.5 138t247.5 48q139 0 232.5 -52t152.5 -114l-96 -108q-51 53 -118 89t-169 36t-184 -38t-139.5 -109t-89 -171t-31.5 -225q0 -127 29.5 -228.5t86 -173t139.5 -110.5t191 -39q72 0 136.5 21.5t105.5 58.5v350h-285v141h440v-565 q-66 -68 -173 -112t-242 -44q-133 0 -244 47.5t-190.5 136.5t-125 219t-45.5 294zM539 -360q82 10 132 31.5t50 62.5t-31 60.5t-74 29.5l37 78q104 -16 151.5 -52t47.5 -106q0 -45 -24.5 -78t-65.5 -55.5t-95.5 -35.5t-111.5 -17z" />
<glyph unicode="&#x123;" horiz-adv-x="1032" d="M92 -190q0 63 39 120.5t107 104.5v8q-37 23 -62.5 62.5t-25.5 99.5q0 63 34.5 110t73.5 74v8q-49 41 -89 109.5t-40 159.5q0 82 29.5 147.5t81 111.5t120 70.5t144.5 24.5q41 0 76.5 -7t64.5 -18h346v-129h-205q35 -35 58.5 -88t23.5 -116q0 -80 -28.5 -144.5 t-77.5 -108.5t-115.5 -69t-142.5 -25q-37 0 -76 9.5t-74 25.5q-27 -23 -45 -50.5t-18 -68.5q0 -47 37 -77.5t139 -30.5h192q174 0 261.5 -56.5t87.5 -181.5q0 -70 -35 -132t-100.5 -109t-158.5 -75t-210 -28q-92 0 -168 17.5t-130 52.5t-84 84t-30 115zM240 -168 q0 -80 76.5 -127t211.5 -47q72 0 130.5 17.5t99.5 45t63.5 64.5t22.5 76q0 70 -51.5 96.5t-149.5 26.5h-172q-29 0 -62.5 3t-66.5 13q-53 -39 -77.5 -82t-24.5 -86zM293 666q0 -55 16.5 -99.5t46 -75t67.5 -47t81 -16.5t81 16.5t67.5 47t46 74.5t16.5 100q0 111 -61.5 171 t-149.5 60t-149.5 -60.5t-61.5 -170.5zM348 1266q0 45 24.5 77.5t65.5 55t94.5 36t110.5 19.5l16 -84q-80 -10 -130 -31.5t-50 -60.5q0 -41 30 -61.5t75 -30.5l-37 -78q-104 16 -151.5 53t-47.5 105z" />
<glyph unicode="&#x124;" horiz-adv-x="1335" d="M184 0v1343h170v-563h625v563h172v-1343h-172v633h-625v-633h-170zM389 1446l197 229h164l196 -229h-137l-137 139h-8l-138 -139h-137z" />
<glyph unicode="&#x125;" horiz-adv-x="1114" d="M-25 1532l197 229h164l196 -229h-137l-137 139h-8l-137 -139h-138zM168 0v1458h168v-397l-6 -205q72 68 149.5 116t182.5 48q158 0 230.5 -98.5t72.5 -290.5v-631h-168v608q0 141 -45 203.5t-144 62.5q-78 0 -137 -38.5t-135 -114.5v-721h-168z" />
<glyph unicode="&#x126;" horiz-adv-x="1406" d="M66 1008v86l159 10v239h170v-239h625v239h172v-239h147v-96h-147v-1008h-172v633h-625v-633h-170v1008h-159zM395 780h625v228h-625v-228z" />
<glyph unicode="&#x127;" horiz-adv-x="1114" d="M16 1169v88l152 11v190h168v-190h373v-99h-373v-149l-6 -205q72 68 149.5 116t182.5 48q158 0 230.5 -98.5t72.5 -290.5v-590h-168v567q0 141 -45 204t-144 63q-78 0 -137 -39t-135 -115v-680h-168v1169h-152z" />
<glyph unicode="&#x128;" horiz-adv-x="538" d="M-29 1456q10 96 55.5 158.5t118.5 62.5q41 0 74 -16t60.5 -36.5t54 -37t55.5 -16.5t51.5 27.5t30.5 78.5h94q-10 -94 -55 -157.5t-119 -63.5q-41 0 -73.5 16.5t-60.5 37t-54.5 37t-55.5 16.5t-51 -27t-30 -80h-95zM184 0v1343h170v-1343h-170z" />
<glyph unicode="&#x129;" horiz-adv-x="503" d="M-33 1186q8 92 49 154.5t117 62.5q39 0 72 -16.5t60.5 -36t52 -36t49.5 -16.5q57 0 75 105h95q-8 -92 -49.5 -154.5t-116.5 -62.5q-39 0 -71 16.5t-59.5 35.5t-52 35.5t-51.5 16.5q-57 0 -76 -104h-94zM168 0v995h168v-995h-168z" />
<glyph unicode="&#x12a;" horiz-adv-x="538" d="M14 1493v117h508v-117h-508zM184 0v1343h170v-1343h-170z" />
<glyph unicode="&#x12b;" horiz-adv-x="503" d="M0 1231v117h504v-117h-504zM168 0v995h168v-995h-168z" />
<glyph unicode="&#x12c;" horiz-adv-x="538" d="M16 1675h103q10 -49 45 -89t104 -40q70 0 105 40t45 89h102q-6 -43 -22.5 -84t-47 -71.5t-76 -50t-106.5 -19.5t-106 19.5t-76 50t-47 71.5t-23 84zM184 0v1343h170v-1343h-170z" />
<glyph unicode="&#x12d;" horiz-adv-x="503" d="M-4 1438h104q8 -59 45 -107.5t109 -48.5t108.5 48t45.5 108h104q-4 -45 -19.5 -91.5t-46 -84t-78.5 -61t-114 -23.5t-114 23.5t-78.5 61t-47 84t-18.5 91.5zM168 0v995h168v-995h-168z" />
<glyph unicode="&#x12e;" horiz-adv-x="538" d="M88 -256q0 88 44 149.5t93 106.5h-41v1343h170v-1343q-63 -49 -98 -102.5t-35 -116.5q0 -47 31 -70.5t65 -23.5q45 0 84 28l48 -92q-31 -23 -77 -40t-87 -17q-82 0 -139.5 45t-57.5 133z" />
<glyph unicode="&#x12f;" horiz-adv-x="503" d="M78 -248q0 82 44 143.5t87 104.5h-41v995h168v-995q-61 -45 -97 -100.5t-36 -114.5q0 -47 28.5 -70.5t67.5 -23.5q23 0 42 7t40 19l43 -84q-29 -23 -75 -39t-85 -16q-78 0 -132 44t-54 130zM135 1309q0 49 34 78.5t83 29.5q47 0 81 -29.5t34 -78.5q0 -47 -34 -78t-81 -31 q-49 0 -83 31t-34 78z" />
<glyph unicode="&#x130;" horiz-adv-x="538" d="M152 1573q0 47 33.5 77.5t82.5 30.5t83 -30.5t34 -77.5q0 -49 -34 -80t-83 -31t-82.5 31t-33.5 80zM184 0v1343h170v-1343h-170z" />
<glyph unicode="&#x131;" horiz-adv-x="503" d="M168 0v995h168v-995h-168z" />
<glyph unicode="&#x134;" horiz-adv-x="983" d="M63 190l123 86q45 -80 102.5 -115.5t129.5 -35.5q109 0 162 66.5t53 220.5v931h172v-948q0 -86 -21.5 -162.5t-65.5 -134t-115 -90.5t-169 -33q-252 0 -371 215zM434 1446l197 229h164l196 -229h-137l-137 139h-8l-138 -139h-137z" />
<glyph unicode="&#x135;" horiz-adv-x="505" d="M-82 -418l35 127q18 -6 42.5 -11t51.5 -5q74 0 98.5 51t24.5 143v1108h168v-1108q0 -152 -61.5 -241.5t-210.5 -89.5q-47 0 -84 8t-64 18zM-12 1174l194 288h140l194 -288h-123l-137 186h-8l-137 -186h-123z" />
<glyph unicode="&#x136;" horiz-adv-x="1185" d="M184 0v1343h170v-673h6l560 673h192l-420 -512l486 -831h-191l-401 698l-232 -272v-426h-170zM492 -360q82 10 132 31.5t50 62.5t-31 60.5t-74 29.5l37 78q104 -16 151.5 -52t47.5 -106q0 -45 -24.5 -78t-65.5 -55.5t-95.5 -35.5t-111.5 -17z" />
<glyph unicode="&#x137;" horiz-adv-x="1013" d="M168 0v1458h166v-987h6l424 524h186l-334 -399l379 -596h-184l-291 479l-186 -217v-262h-166zM381 -360q82 10 132 31.5t50 62.5t-30.5 60.5t-73.5 29.5l37 78q104 -16 151 -52t47 -106q0 -45 -24.5 -78t-65.5 -55.5t-95 -35.5t-112 -17z" />
<glyph unicode="&#x138;" horiz-adv-x="1013" d="M168 0v995h168v-528h6l422 528h186l-329 -399l374 -596h-184l-291 473l-184 -217v-256h-168z" />
<glyph unicode="&#x139;" horiz-adv-x="995" d="M170 1446l180 229h193l-232 -229h-141zM184 0v1343h170v-1198h588v-145h-758z" />
<glyph unicode="&#x13a;" horiz-adv-x="522" d="M139 1552l180 230h193l-231 -230h-142zM168 201v1257h168v-1270q0 -41 14.5 -57t32.5 -16h15.5t21.5 4l22 -127q-16 -8 -38.5 -12.5t-57.5 -4.5q-96 0 -137 57.5t-41 168.5z" />
<glyph unicode="&#x13b;" horiz-adv-x="995" d="M184 0v1343h170v-1198h588v-145h-758zM416 -360q82 10 132 31.5t50 62.5t-30.5 60.5t-73.5 29.5l36 78q104 -16 151.5 -52t47.5 -106q0 -45 -24.5 -78t-65.5 -55.5t-95.5 -35.5t-111.5 -17z" />
<glyph unicode="&#x13c;" horiz-adv-x="522" d="M168 201v1257h168v-1270q0 -41 14.5 -57t32.5 -16h15.5t21.5 4l22 -127q-16 -8 -38.5 -12.5t-57.5 -4.5q-96 0 -137 57.5t-41 168.5zM174 -360q82 10 132 31.5t50 62.5t-30.5 60.5t-73.5 29.5l37 78q104 -16 151 -52t47 -106q0 -45 -24.5 -78t-65.5 -55.5t-95 -35.5 t-112 -17z" />
<glyph unicode="&#x13d;" horiz-adv-x="995" d="M184 0v1343h170v-1198h588v-145h-758zM676 1489h121l-2 -117l-29 -317h-82z" />
<glyph unicode="&#x13e;" horiz-adv-x="540" d="M168 201v1257h168v-1270q0 -41 14.5 -57t32.5 -16h15.5t21.5 4l22 -127q-16 -8 -38.5 -12.5t-57.5 -4.5q-96 0 -137 57.5t-41 168.5zM444 1556h121l-2 -116l-28 -318h-82z" />
<glyph unicode="&#x13f;" horiz-adv-x="995" d="M184 0v1343h170v-1198h588v-145h-758zM649 666q0 59 36 95t87 36q49 0 85 -36t36 -95q0 -55 -36 -91t-85 -36q-51 0 -87 36t-36 91z" />
<glyph unicode="&#x140;" horiz-adv-x="741" d="M168 201v1257h168v-1270q0 -41 14.5 -57t32.5 -16h15.5t21.5 4l22 -127q-16 -8 -38.5 -12.5t-57.5 -4.5q-96 0 -137 57.5t-41 168.5zM500 666q0 59 35.5 95t87.5 36q49 0 84.5 -36t35.5 -95q0 -55 -35.5 -91t-84.5 -36q-51 0 -87 36t-36 91z" />
<glyph unicode="&#x141;" horiz-adv-x="1001" d="M27 397v138l168 96v712h172v-636l378 204v-139l-378 -203v-424h585v-145h-757v492z" />
<glyph unicode="&#x142;" horiz-adv-x="536" d="M47 596v143l129 82v637h170v-549l143 92v-143l-143 -92v-578q0 -41 14.5 -57t32.5 -16h13.5t23.5 4l23 -127q-18 -8 -41 -12.5t-58 -4.5q-94 0 -136 57.5t-42 168.5v477z" />
<glyph unicode="&#x143;" horiz-adv-x="1325" d="M184 0v1343h176l486 -843l145 -279h8q-6 102 -13 212t-7 216v694h162v-1343h-176l-488 846l-145 276h-8q8 -102 15 -207.5t7 -212.5v-702h-162zM563 1446l180 229h193l-231 -229h-142z" />
<glyph unicode="&#x144;" horiz-adv-x="1120" d="M168 0v995h139l15 -143h6q72 72 150.5 120t183.5 48q158 0 230.5 -98.5t72.5 -290.5v-631h-168v608q0 141 -45 203.5t-144 62.5q-78 0 -137 -38.5t-135 -114.5v-721h-168zM465 1174l184 288h176l-231 -288h-129z" />
<glyph unicode="&#x145;" horiz-adv-x="1325" d="M184 0v1343h176l486 -843l145 -279h8q-6 102 -13 212t-7 216v694h162v-1343h-176l-488 846l-145 276h-8q8 -102 15 -207.5t7 -212.5v-702h-162zM498 -360q82 10 132 31.5t50 62.5t-31 60.5t-74 29.5l37 78q104 -16 151.5 -52t47.5 -106q0 -45 -24.5 -78t-65.5 -55.5 t-95.5 -35.5t-111.5 -17z" />
<glyph unicode="&#x146;" horiz-adv-x="1120" d="M168 0v995h139l15 -143h6q72 72 150.5 120t183.5 48q158 0 230.5 -98.5t72.5 -290.5v-631h-168v608q0 141 -45 203.5t-144 62.5q-78 0 -137 -38.5t-135 -114.5v-721h-168zM397 -360q82 10 132.5 31.5t50.5 62.5t-31 60.5t-74 29.5l37 78q104 -16 151.5 -52t47.5 -106 q0 -45 -24.5 -78t-65.5 -55.5t-95.5 -35.5t-111.5 -17z" />
<glyph unicode="&#x147;" horiz-adv-x="1325" d="M184 0v1343h176l486 -843l145 -279h8q-6 102 -13 212t-7 216v694h162v-1343h-176l-488 846l-145 276h-8q8 -102 15 -207.5t7 -212.5v-702h-162zM389 1675h137l138 -139h8l137 139h137l-196 -229h-164z" />
<glyph unicode="&#x148;" horiz-adv-x="1120" d="M168 0v995h139l15 -143h6q72 72 150.5 120t183.5 48q158 0 230.5 -98.5t72.5 -290.5v-631h-168v608q0 141 -45 203.5t-144 62.5q-78 0 -137 -38.5t-135 -114.5v-721h-168zM334 1462h123l137 -188h8l137 188h123l-194 -288h-140z" />
<glyph unicode="&#x149;" horiz-adv-x="1587" d="M129 961q78 51 116 108t38 148q-6 -2 -17 -3q-43 0 -75.5 27t-32.5 76q0 53 30.5 84t77.5 31q59 0 94 -48.5t35 -138.5q0 -123 -56 -212t-163 -150zM623 0v995h139l14 -143h6q72 72 151 120t183 48q158 0 230.5 -98.5t72.5 -290.5v-631h-168v608q0 141 -45 203.5 t-143 62.5q-78 0 -137.5 -38.5t-134.5 -114.5v-721h-168z" />
<glyph unicode="&#x14c;" horiz-adv-x="1359" d="M106 678q0 162 42 290t118 217t181.5 136t232.5 47t232.5 -48t182 -137t118.5 -217t42 -288q0 -162 -42 -292t-118.5 -221t-182 -140.5t-232.5 -49.5t-232.5 49.5t-181.5 140.5t-118 221t-42 292zM283 678q0 -127 28.5 -228.5t80.5 -174t125 -111.5t163 -39t162.5 39 t125 111.5t81 174t28.5 228.5q0 125 -28.5 225.5t-81 170t-125 107.5t-162.5 38t-163 -38t-125 -107.5t-80.5 -170t-28.5 -225.5zM426 1493v117h508v-117h-508z" />
<glyph unicode="&#x14d;" horiz-adv-x="1110" d="M94 496q0 125 38 222t101.5 164.5t146.5 102.5t175 35t175 -35t146.5 -102.5t101.5 -164.5t38 -222q0 -123 -38 -220.5t-101.5 -164t-146.5 -101.5t-175 -35t-175 35t-146.5 101.5t-101.5 164t-38 220.5zM268 496q0 -86 20.5 -156t58.5 -120t91.5 -77.5t116.5 -27.5 t116.5 27.5t91.5 77.5t58.5 120t20.5 156t-20.5 156.5t-58.5 121.5t-91.5 79t-116.5 28t-116.5 -28t-91.5 -79t-58.5 -121.5t-20.5 -156.5zM303 1231v117h504v-117h-504z" />
<glyph unicode="&#x14e;" horiz-adv-x="1359" d="M106 678q0 162 42 290t118 217t181.5 136t232.5 47t232.5 -48t182 -137t118.5 -217t42 -288q0 -162 -42 -292t-118.5 -221t-182 -140.5t-232.5 -49.5t-232.5 49.5t-181.5 140.5t-118 221t-42 292zM283 678q0 -127 28.5 -228.5t80.5 -174t125 -111.5t163 -39t162.5 39 t125 111.5t81 174t28.5 228.5q0 125 -28.5 225.5t-81 170t-125 107.5t-162.5 38t-163 -38t-125 -107.5t-80.5 -170t-28.5 -225.5zM428 1675h102q10 -49 45 -89t105 -40t104.5 40t44.5 89h103q-6 -43 -22.5 -84t-47.5 -71.5t-76 -50t-106 -19.5t-106.5 19.5t-76 50t-47 71.5 t-22.5 84z" />
<glyph unicode="&#x14f;" horiz-adv-x="1110" d="M94 496q0 125 38 222t101.5 164.5t146.5 102.5t175 35t175 -35t146.5 -102.5t101.5 -164.5t38 -222q0 -123 -38 -220.5t-101.5 -164t-146.5 -101.5t-175 -35t-175 35t-146.5 101.5t-101.5 164t-38 220.5zM268 496q0 -86 20.5 -156t58.5 -120t91.5 -77.5t116.5 -27.5 t116.5 27.5t91.5 77.5t58.5 120t20.5 156t-20.5 156.5t-58.5 121.5t-91.5 79t-116.5 28t-116.5 -28t-91.5 -79t-58.5 -121.5t-20.5 -156.5zM297 1438h104q8 -59 45 -107.5t109 -48.5t108.5 48t45.5 108h104q-4 -45 -19.5 -91.5t-46 -84t-78.5 -61t-114 -23.5t-114 23.5 t-78.5 61t-47 84t-18.5 91.5z" />
<glyph unicode="&#x150;" horiz-adv-x="1359" d="M106 678q0 162 42 290t118 217t181.5 136t232.5 47t232.5 -48t182 -137t118.5 -217t42 -288q0 -162 -42 -292t-118.5 -221t-182 -140.5t-232.5 -49.5t-232.5 49.5t-181.5 140.5t-118 221t-42 292zM283 678q0 -127 28.5 -228.5t80.5 -174t125 -111.5t163 -39t162.5 39 t125 111.5t81 174t28.5 228.5q0 125 -28.5 225.5t-81 170t-125 107.5t-162.5 38t-163 -38t-125 -107.5t-80.5 -170t-28.5 -225.5zM457 1446l135 229h158l-170 -229h-123zM780 1446l135 229h158l-172 -229h-121z" />
<glyph unicode="&#x151;" horiz-adv-x="1110" d="M94 496q0 125 38 222t101.5 164.5t146.5 102.5t175 35t175 -35t146.5 -102.5t101.5 -164.5t38 -222q0 -123 -38 -220.5t-101.5 -164t-146.5 -101.5t-175 -35t-175 35t-146.5 101.5t-101.5 164t-38 220.5zM268 496q0 -86 20.5 -156t58.5 -120t91.5 -77.5t116.5 -27.5 t116.5 27.5t91.5 77.5t58.5 120t20.5 156t-20.5 156.5t-58.5 121.5t-91.5 79t-116.5 28t-116.5 -28t-91.5 -79t-58.5 -121.5t-20.5 -156.5zM354 1169l144 293h149l-180 -293h-113zM655 1169l146 293h147l-180 -293h-113z" />
<glyph unicode="&#x152;" horiz-adv-x="1734" d="M106 678q0 322 172.5 493.5t485.5 171.5h850v-143h-570v-422h476v-145h-476v-488h590v-145h-878q-154 0 -274 46t-203.5 133t-128 213t-44.5 286zM283 678q0 -258 124.5 -398.5t368.5 -140.5h98v1065h-98q-244 0 -368.5 -135t-124.5 -391z" />
<glyph unicode="&#x153;" horiz-adv-x="1718" d="M94 496q0 125 37 222t98.5 164.5t143.5 102.5t172 35q115 0 211 -63.5t149 -186.5q57 117 148.5 183.5t201.5 66.5q92 0 164 -33t121 -94.5t74.5 -148.5t25.5 -193q0 -57 -6 -94h-653q2 -78 27.5 -141.5t67.5 -108.5t98.5 -69.5t119.5 -24.5q72 0 131.5 23.5t114.5 58.5 l62 -117q-66 -41 -146 -72t-182 -31q-117 0 -213 65.5t-154 182.5q-117 -248 -366 -248q-90 0 -171 35t-142.5 101.5t-97.5 164t-36 220.5zM266 496q0 -86 20.5 -156t57.5 -120t88 -77.5t113 -27.5q61 0 112.5 27.5t88 77.5t57 120t20.5 156t-20.5 156.5t-57 121.5t-88 79 t-112.5 28t-112.5 -28t-88.5 -79t-57.5 -121.5t-20.5 -156.5zM981 569h512q0 154 -63.5 236t-178.5 82q-104 0 -180 -85t-90 -233z" />
<glyph unicode="&#x154;" horiz-adv-x="1189" d="M184 0v1343h420q102 0 189.5 -19t150 -64.5t97 -117t34.5 -175.5q0 -158 -82 -252t-219 -129l340 -586h-192l-324 567h-244v-567h-170zM354 707h226q158 0 241.5 64.5t83.5 195.5q0 133 -84 186t-241 53h-226v-499zM498 1446l180 229h192l-231 -229h-141z" />
<glyph unicode="&#x155;" horiz-adv-x="710" d="M168 0v995h139l15 -180h6q51 94 123.5 149.5t158.5 55.5q59 0 107 -21l-33 -147q-25 8 -45.5 12t-50.5 4q-63 0 -132 -51t-120 -178v-639h-168zM311 1174l185 288h176l-232 -288h-129z" />
<glyph unicode="&#x156;" horiz-adv-x="1189" d="M184 0v1343h420q102 0 189.5 -19t150 -64.5t97 -117t34.5 -175.5q0 -158 -82 -252t-219 -129l340 -586h-192l-324 567h-244v-567h-170zM354 707h226q158 0 241.5 64.5t83.5 195.5q0 133 -84 186t-241 53h-226v-499zM459 -360q82 10 132 31.5t50 62.5t-30.5 60.5 t-73.5 29.5l36 78q104 -16 151.5 -52t47.5 -106q0 -45 -24.5 -78t-65.5 -55.5t-95.5 -35.5t-111.5 -17z" />
<glyph unicode="&#x157;" horiz-adv-x="710" d="M74 -360q82 10 132 31.5t50 62.5t-30.5 60.5t-73.5 29.5l36 78q104 -16 151.5 -52t47.5 -106q0 -45 -24.5 -78t-65.5 -55.5t-95.5 -35.5t-111.5 -17zM168 0v995h139l15 -180h6q51 94 123.5 149.5t158.5 55.5q59 0 107 -21l-33 -147q-25 8 -45.5 12t-50.5 4 q-63 0 -132 -51t-120 -178v-639h-168z" />
<glyph unicode="&#x158;" horiz-adv-x="1189" d="M184 0v1343h420q102 0 189.5 -19t150 -64.5t97 -117t34.5 -175.5q0 -158 -82 -252t-219 -129l340 -586h-192l-324 567h-244v-567h-170zM324 1675h137l137 -139h8l137 139h138l-197 -229h-164zM354 707h226q158 0 241.5 64.5t83.5 195.5q0 133 -84 186t-241 53h-226v-499z " />
<glyph unicode="&#x159;" horiz-adv-x="710" d="M168 0v995h139l15 -180h6q51 94 123.5 149.5t158.5 55.5q59 0 107 -21l-33 -147q-25 8 -45.5 12t-50.5 4q-63 0 -132 -51t-120 -178v-639h-168zM180 1462h123l137 -188h9l137 188h123l-195 -288h-139z" />
<glyph unicode="&#x15a;" horiz-adv-x="1093" d="M86 174l102 119q72 -76 169.5 -122t201.5 -46q133 0 207 60.5t74 158.5q0 51 -17.5 87t-47.5 61.5t-70.5 46t-88.5 43.5l-192 84q-47 20 -96 48.5t-88 69.5t-63.5 97.5t-24.5 130.5q0 76 31.5 141.5t88 113.5t133 74.5t168.5 26.5q121 0 223.5 -46t174.5 -120l-92 -110 q-61 59 -136 93t-170 34q-113 0 -181 -52.5t-68 -144.5q0 -49 19 -83t52 -59.5t72 -45t80 -35.5l190 -82q57 -25 108.5 -56.5t88.5 -73.5t58.5 -98.5t21.5 -130.5q0 -80 -32 -149.5t-91.5 -121.5t-143 -82t-190.5 -30q-141 0 -262 53.5t-209 145.5zM467 1446l180 229h193 l-232 -229h-141z" />
<glyph unicode="&#x15b;" horiz-adv-x="858" d="M57 113l84 112q66 -53 134.5 -86t158.5 -33q98 0 147.5 45.5t49.5 110.5q0 39 -20.5 67.5t-52.5 50t-73 38t-82 33.5q-53 18 -106 41.5t-95 57.5t-69 79t-27 108q0 59 24 111.5t68 90.5t107.5 59.5t143.5 21.5q94 0 172.5 -33t136.5 -80l-80 -106q-51 39 -106.5 63.5 t-120.5 24.5q-94 0 -138.5 -43t-44.5 -101q0 -35 18.5 -60.5t49.5 -44.5t70.5 -34.5t82.5 -32.5q53 -20 107.5 -42.5t97.5 -56.5t71 -83t28 -119q0 -61 -24 -114.5t-70 -94t-114.5 -64.5t-156.5 -24q-106 0 -202.5 39t-168.5 99zM315 1174l185 288h176l-232 -288h-129z" />
<glyph unicode="&#x15c;" horiz-adv-x="1093" d="M86 174l102 119q72 -76 169.5 -122t201.5 -46q133 0 207 60.5t74 158.5q0 51 -17.5 87t-47.5 61.5t-70.5 46t-88.5 43.5l-192 84q-47 20 -96 48.5t-88 69.5t-63.5 97.5t-24.5 130.5q0 76 31.5 141.5t88 113.5t133 74.5t168.5 26.5q121 0 223.5 -46t174.5 -120l-92 -110 q-61 59 -136 93t-170 34q-113 0 -181 -52.5t-68 -144.5q0 -49 19 -83t52 -59.5t72 -45t80 -35.5l190 -82q57 -25 108.5 -56.5t88.5 -73.5t58.5 -98.5t21.5 -130.5q0 -80 -32 -149.5t-91.5 -121.5t-143 -82t-190.5 -30q-141 0 -262 53.5t-209 145.5zM293 1446l196 229h164 l197 -229h-137l-138 139h-8l-137 -139h-137z" />
<glyph unicode="&#x15d;" horiz-adv-x="858" d="M57 113l84 112q66 -53 134.5 -86t158.5 -33q98 0 147.5 45.5t49.5 110.5q0 39 -20.5 67.5t-52.5 50t-73 38t-82 33.5q-53 18 -106 41.5t-95 57.5t-69 79t-27 108q0 59 24 111.5t68 90.5t107.5 59.5t143.5 21.5q94 0 172.5 -33t136.5 -80l-80 -106q-51 39 -106.5 63.5 t-120.5 24.5q-94 0 -138.5 -43t-44.5 -101q0 -35 18.5 -60.5t49.5 -44.5t70.5 -34.5t82.5 -32.5q53 -20 107.5 -42.5t97.5 -56.5t71 -83t28 -119q0 -61 -24 -114.5t-70 -94t-114.5 -64.5t-156.5 -24q-106 0 -202.5 39t-168.5 99zM184 1174l195 288h139l195 -288h-123 l-137 186h-9l-137 -186h-123z" />
<glyph unicode="&#x15e;" horiz-adv-x="1093" d="M86 174l102 119q72 -76 169.5 -122t201.5 -46q133 0 207 60.5t74 158.5q0 51 -17.5 87t-47.5 61.5t-70.5 46t-88.5 43.5l-192 84q-47 20 -96 48.5t-88 69.5t-63.5 97.5t-24.5 130.5q0 76 31.5 141.5t88 113.5t133 74.5t168.5 26.5q121 0 223.5 -46t174.5 -120l-92 -110 q-61 59 -136 93t-170 34q-113 0 -181 -52.5t-68 -144.5q0 -49 19 -83t52 -59.5t72 -45t80 -35.5l190 -82q57 -25 108.5 -56.5t88.5 -73.5t58.5 -98.5t21.5 -130.5q0 -80 -32 -149.5t-91.5 -121.5t-143 -82t-190.5 -30q-141 0 -262 53.5t-209 145.5zM385 -352q82 10 132 33.5 t50 64.5t-33.5 62.5t-95.5 37.5l82 160h109l-51 -108q49 -16 84.5 -49t35.5 -97q0 -45 -24.5 -77.5t-65.5 -55t-95 -36t-112 -19.5z" />
<glyph unicode="&#x15f;" horiz-adv-x="858" d="M57 113l84 112q66 -53 134.5 -86t158.5 -33q98 0 147.5 45.5t49.5 110.5q0 39 -20.5 67.5t-52.5 50t-73 38t-82 33.5q-53 18 -106 41.5t-95 57.5t-69 79t-27 108q0 59 24 111.5t68 90.5t107.5 59.5t143.5 21.5q94 0 172.5 -33t136.5 -80l-80 -106q-51 39 -106.5 63.5 t-120.5 24.5q-94 0 -138.5 -43t-44.5 -101q0 -35 18.5 -60.5t49.5 -44.5t70.5 -34.5t82.5 -32.5q53 -20 107.5 -42.5t97.5 -56.5t71 -83t28 -119q0 -61 -24 -114.5t-70 -94t-114.5 -64.5t-156.5 -24q-106 0 -202.5 39t-168.5 99zM281 -352q82 10 132 33.5t50 64.5t-34 62.5 t-95 37.5l82 160h108l-51 -108q49 -16 85 -49t36 -97q0 -45 -24.5 -77.5t-65.5 -55t-95.5 -36t-111.5 -19.5z" />
<glyph unicode="&#x160;" horiz-adv-x="1093" d="M86 174l102 119q72 -76 169.5 -122t201.5 -46q133 0 207 60.5t74 158.5q0 51 -17.5 87t-47.5 61.5t-70.5 46t-88.5 43.5l-192 84q-47 20 -96 48.5t-88 69.5t-63.5 97.5t-24.5 130.5q0 76 31.5 141.5t88 113.5t133 74.5t168.5 26.5q121 0 223.5 -46t174.5 -120l-92 -110 q-61 59 -136 93t-170 34q-113 0 -181 -52.5t-68 -144.5q0 -49 19 -83t52 -59.5t72 -45t80 -35.5l190 -82q57 -25 108.5 -56.5t88.5 -73.5t58.5 -98.5t21.5 -130.5q0 -80 -32 -149.5t-91.5 -121.5t-143 -82t-190.5 -30q-141 0 -262 53.5t-209 145.5zM293 1675h137l137 -139h8 l138 139h137l-197 -229h-164z" />
<glyph unicode="&#x161;" horiz-adv-x="858" d="M57 113l84 112q66 -53 134.5 -86t158.5 -33q98 0 147.5 45.5t49.5 110.5q0 39 -20.5 67.5t-52.5 50t-73 38t-82 33.5q-53 18 -106 41.5t-95 57.5t-69 79t-27 108q0 59 24 111.5t68 90.5t107.5 59.5t143.5 21.5q94 0 172.5 -33t136.5 -80l-80 -106q-51 39 -106.5 63.5 t-120.5 24.5q-94 0 -138.5 -43t-44.5 -101q0 -35 18.5 -60.5t49.5 -44.5t70.5 -34.5t82.5 -32.5q53 -20 107.5 -42.5t97.5 -56.5t71 -83t28 -119q0 -61 -24 -114.5t-70 -94t-114.5 -64.5t-156.5 -24q-106 0 -202.5 39t-168.5 99zM184 1462h123l137 -188h9l137 188h123 l-195 -288h-139z" />
<glyph unicode="&#x162;" horiz-adv-x="1097" d="M57 1200v143h983v-143h-405v-1200h-172v1200h-406zM367 -352q82 10 132 33.5t50 64.5t-34 62.5t-95 37.5l82 160h108l-51 -108q49 -16 85 -49t36 -97q0 -45 -24.5 -77.5t-65.5 -55t-95.5 -36t-111.5 -19.5z" />
<glyph unicode="&#x163;" horiz-adv-x="692" d="M49 858v127l156 10l20 279h142v-279h268v-137h-268v-553q0 -92 33.5 -142t119.5 -50q27 0 57.5 8t55.5 18l33 -127q-41 -14 -89.5 -25.5t-95.5 -11.5q-80 0 -134 25t-88 68t-48 104t-14 135v551h-148zM268 -352q82 10 132.5 33.5t50.5 64.5t-34 62.5t-95 37.5l81 160h109 l-51 -108q49 -16 85 -49t36 -97q0 -45 -25 -77.5t-65.5 -55t-95 -36t-111.5 -19.5z" />
<glyph unicode="&#x164;" horiz-adv-x="1097" d="M57 1200v143h983v-143h-405v-1200h-172v1200h-406zM268 1675h138l137 -139h8l137 139h137l-196 -229h-164z" />
<glyph unicode="&#x165;" horiz-adv-x="692" d="M49 858v127l156 10l20 279h142v-279h268v-137h-268v-553q0 -92 33.5 -142t119.5 -50q27 0 57.5 8t55.5 18l33 -127q-41 -14 -89.5 -25.5t-95.5 -11.5q-80 0 -134 25t-88 68t-48 104t-14 135v551h-148zM518 1556h121l-2 -116l-29 -318h-82z" />
<glyph unicode="&#x168;" horiz-adv-x="1320" d="M178 555v788h170v-792q0 -121 24.5 -203t66.5 -131t99.5 -70.5t123.5 -21.5q68 0 125 21.5t100 70.5t67.5 131t24.5 203v792h164v-788q0 -162 -37 -272.5t-101.5 -179t-152.5 -98.5t-190 -30t-191.5 30t-154 98.5t-101.5 179t-37 272.5zM362 1456q10 96 55.5 158.5 t119.5 62.5q41 0 73.5 -16t60 -36.5t54.5 -37t55 -16.5q29 0 51.5 27.5t30.5 78.5h94q-10 -94 -55 -157.5t-119 -63.5q-41 0 -73.5 16.5t-60 37t-54.5 37t-55 16.5q-29 0 -51.5 -27t-30.5 -80h-95z" />
<glyph unicode="&#x169;" horiz-adv-x="1114" d="M154 365v630h170v-608q0 -141 44 -203.5t142 -62.5q78 0 137.5 40t130.5 128v706h168v-995h-139l-14 156h-7q-70 -82 -146.5 -131.5t-180.5 -49.5q-160 0 -232.5 98.5t-72.5 291.5zM272 1186q8 92 49 154.5t117 62.5q39 0 72 -16.5t60.5 -36t52 -36t49.5 -16.5 q57 0 76 105h94q-8 -92 -49 -154.5t-117 -62.5q-39 0 -71 16.5t-59.5 35.5t-52 35.5t-51.5 16.5q-57 0 -75 -104h-95z" />
<glyph unicode="&#x16a;" horiz-adv-x="1320" d="M178 555v788h170v-792q0 -121 24.5 -203t66.5 -131t99.5 -70.5t123.5 -21.5q68 0 125 21.5t100 70.5t67.5 131t24.5 203v792h164v-788q0 -162 -37 -272.5t-101.5 -179t-152.5 -98.5t-190 -30t-191.5 30t-154 98.5t-101.5 179t-37 272.5zM406 1493v117h507v-117h-507z" />
<glyph unicode="&#x16b;" horiz-adv-x="1114" d="M154 365v630h170v-608q0 -141 44 -203.5t142 -62.5q78 0 137.5 40t130.5 128v706h168v-995h-139l-14 156h-7q-70 -82 -146.5 -131.5t-180.5 -49.5q-160 0 -232.5 98.5t-72.5 291.5zM299 1231v117h504v-117h-504z" />
<glyph unicode="&#x16c;" horiz-adv-x="1320" d="M178 555v788h170v-792q0 -121 24.5 -203t66.5 -131t99.5 -70.5t123.5 -21.5q68 0 125 21.5t100 70.5t67.5 131t24.5 203v792h164v-788q0 -162 -37 -272.5t-101.5 -179t-152.5 -98.5t-190 -30t-191.5 30t-154 98.5t-101.5 179t-37 272.5zM408 1675h102q10 -49 45 -89 t104 -40q70 0 105 40t45 89h102q-6 -43 -22.5 -84t-47 -71.5t-76 -50t-106.5 -19.5t-106 19.5t-76 50t-47 71.5t-22 84z" />
<glyph unicode="&#x16d;" horiz-adv-x="1114" d="M154 365v630h170v-608q0 -141 44 -203.5t142 -62.5q78 0 137.5 40t130.5 128v706h168v-995h-139l-14 156h-7q-70 -82 -146.5 -131.5t-180.5 -49.5q-160 0 -232.5 98.5t-72.5 291.5zM299 1438h104q8 -59 45 -107.5t109 -48.5t108.5 48t45.5 108h104q-4 -45 -19.5 -91.5 t-46 -84t-78.5 -61t-114 -23.5t-114 23.5t-78.5 61t-47 84t-18.5 91.5z" />
<glyph unicode="&#x16e;" horiz-adv-x="1320" d="M178 555v788h170v-792q0 -121 24.5 -203t66.5 -131t99.5 -70.5t123.5 -21.5q68 0 125 21.5t100 70.5t67.5 131t24.5 203v792h164v-788q0 -162 -37 -272.5t-101.5 -179t-152.5 -98.5t-190 -30t-191.5 30t-154 98.5t-101.5 179t-37 272.5zM469 1612q0 82 53 131t137 49 q82 0 136.5 -49t54.5 -131q0 -84 -54.5 -132t-136.5 -48q-84 0 -137 48t-53 132zM561 1612q0 -51 28.5 -79t69.5 -28q39 0 68 28t29 79q0 47 -29 75.5t-68 28.5q-41 0 -69.5 -28.5t-28.5 -75.5z" />
<glyph unicode="&#x16f;" horiz-adv-x="1114" d="M154 365v630h170v-608q0 -141 44 -203.5t142 -62.5q78 0 137.5 40t130.5 128v706h168v-995h-139l-14 156h-7q-70 -82 -146.5 -131.5t-180.5 -49.5q-160 0 -232.5 98.5t-72.5 291.5zM367 1300q0 86 53 137.5t137 51.5t137.5 -51.5t53.5 -137.5t-53.5 -138t-137.5 -52 t-137 52t-53 138zM459 1300q0 -53 28.5 -83.5t69.5 -30.5t69.5 30.5t28.5 83.5q0 51 -28.5 82t-69.5 31t-69.5 -30.5t-28.5 -82.5z" />
<glyph unicode="&#x170;" horiz-adv-x="1320" d="M178 555v788h170v-792q0 -121 24.5 -203t66.5 -131t99.5 -70.5t123.5 -21.5q68 0 125 21.5t100 70.5t67.5 131t24.5 203v792h164v-788q0 -162 -37 -272.5t-101.5 -179t-152.5 -98.5t-190 -30t-191.5 30t-154 98.5t-101.5 179t-37 272.5zM436 1446l135 229h158l-170 -229 h-123zM760 1446l135 229h158l-172 -229h-121z" />
<glyph unicode="&#x171;" horiz-adv-x="1114" d="M154 365v630h170v-608q0 -141 44 -203.5t142 -62.5q78 0 137.5 40t130.5 128v706h168v-995h-139l-14 156h-7q-70 -82 -146.5 -131.5t-180.5 -49.5q-160 0 -232.5 98.5t-72.5 291.5zM356 1169l144 293h149l-180 -293h-113zM657 1169l146 293h147l-180 -293h-113z" />
<glyph unicode="&#x172;" horiz-adv-x="1320" d="M178 555v788h170v-792q0 -121 24.5 -203t66.5 -131t99.5 -70.5t123.5 -21.5q68 0 125 21.5t100 70.5t67.5 131t24.5 203v792h164v-788q0 -135 -23.5 -228.5t-66.5 -158t-103.5 -106.5t-134.5 -76q-80 -39 -121 -96.5t-41 -108.5q0 -47 31 -70.5t68 -23.5q43 0 82 28 l47 -92q-29 -23 -76 -40t-88 -17q-82 0 -139.5 45t-57.5 133q0 43 13.5 77t33 62.5t43 52l41.5 41.5q-104 2 -191 35t-149.5 101.5t-97.5 177t-35 264.5z" />
<glyph unicode="&#x173;" horiz-adv-x="1114" d="M154 365v630h170v-608q0 -141 43 -203.5t143 -62.5q78 0 137.5 40t130.5 128v706h168v-995q-92 -45 -135 -100.5t-43 -114.5q0 -47 29.5 -70.5t64.5 -23.5q25 0 45.5 7t38.5 19l43 -84q-29 -23 -75 -39t-85 -16q-78 0 -132 44t-54 130q0 84 50 146.5t116 109.5l-16 148 h-7q-70 -82 -146.5 -131.5t-180.5 -49.5q-160 0 -232.5 98.5t-72.5 291.5z" />
<glyph unicode="&#x174;" horiz-adv-x="1609" d="M47 1343h176l142 -731q18 -111 38.5 -217t38.5 -217h9q23 111 47 218.5t47 215.5l186 731h156l186 -731q25 -106 49.5 -214.5t48.5 -219.5h9q18 111 36.5 218.5t38.5 215.5l142 731h164l-279 -1343h-205l-203 809q-18 78 -33.5 152.5t-31.5 152.5h-8 q-16 -78 -33.5 -152.5t-34.5 -152.5l-198 -809h-203zM526 1446l197 229h164l196 -229h-137l-137 139h-8l-137 -139h-138z" />
<glyph unicode="&#x175;" horiz-adv-x="1470" d="M49 995h172l148 -575q16 -72 30.5 -139.5t28.5 -137.5h8q16 70 32.5 138.5t35.5 138.5l153 575h164l156 -575q18 -72 35.5 -139.5t34.5 -137.5h8q16 70 30.5 137.5t30.5 139.5l146 575h159l-266 -995h-205l-143 535q-18 72 -33.5 141t-34.5 145h-8q-16 -76 -32.5 -146.5 t-36.5 -142.5l-140 -532h-196zM473 1174l195 288h139l194 -288h-122l-138 186h-8l-137 -186h-123z" />
<glyph unicode="&#x176;" horiz-adv-x="974" d="M-2 1343h182l174 -378q33 -74 64 -145.5t65 -147.5h9q35 76 69.5 147.5t65.5 145.5l172 378h178l-404 -823v-520h-172v520zM209 1446l197 229h163l197 -229h-137l-137 139h-9l-137 -139h-137z" />
<glyph unicode="&#x177;" horiz-adv-x="956" d="M25 995h174l202 -551q23 -66 48.5 -138.5t48.5 -141.5h8q23 68 43 141.5t41 138.5l178 551h164l-375 -1077q-27 -74 -59.5 -137.5t-77.5 -109.5t-102.5 -72.5t-133.5 -26.5q-35 0 -63.5 5t-52.5 15l32 134q16 -4 37 -9.5t39 -5.5q86 0 140.5 60.5t84.5 152.5l23 74z M231 1174l195 288h139l195 -288h-123l-137 186h-8l-138 -186h-123z" />
<glyph unicode="&#x178;" horiz-adv-x="974" d="M-2 1343h182l174 -378q33 -74 64 -145.5t65 -147.5h9q35 76 69.5 147.5t65.5 145.5l172 378h178l-404 -823v-520h-172v520zM211 1565q0 45 27.5 72.5t72.5 27.5q43 0 72 -27.5t29 -72.5q0 -43 -29 -72t-72 -29q-45 0 -72.5 29t-27.5 72zM563 1565q0 45 29 72.5t72 27.5 q45 0 72.5 -27.5t27.5 -72.5q0 -43 -27.5 -72t-72.5 -29q-43 0 -72 29t-29 72z" />
<glyph unicode="&#x179;" horiz-adv-x="1103" d="M92 0v102l707 1098h-643v143h856v-100l-709 -1098h715v-145h-926zM469 1446l180 229h193l-232 -229h-141z" />
<glyph unicode="&#x17a;" horiz-adv-x="870" d="M63 0v90l525 768h-467v137h680v-90l-525 -768h541v-137h-754zM334 1174l184 288h176l-231 -288h-129z" />
<glyph unicode="&#x17b;" horiz-adv-x="1103" d="M92 0v102l707 1098h-643v143h856v-100l-709 -1098h715v-145h-926zM457 1573q0 47 33.5 77.5t82.5 30.5t83 -30.5t34 -77.5q0 -49 -34 -80t-83 -31t-82.5 31t-33.5 80z" />
<glyph unicode="&#x17c;" horiz-adv-x="870" d="M63 0v90l525 768h-467v137h680v-90l-525 -768h541v-137h-754zM356 1311q0 47 32 78.5t79 31.5t79 -31.5t32 -78.5q0 -49 -32 -80t-79 -31t-79 31t-32 80z" />
<glyph unicode="&#x17d;" horiz-adv-x="1103" d="M92 0v102l707 1098h-643v143h856v-100l-709 -1098h715v-145h-926zM295 1675h137l137 -139h9l137 139h137l-197 -229h-163z" />
<glyph unicode="&#x17e;" horiz-adv-x="870" d="M63 0v90l525 768h-467v137h680v-90l-525 -768h541v-137h-754zM203 1462h123l137 -188h8l137 188h123l-194 -288h-140z" />
<glyph unicode="&#x180;" horiz-adv-x="1114" d="M16 1169v88l152 11v190h168v-190h373v-99h-373v-149l-4 -180q68 59 147.5 99t163.5 40q96 0 170 -35t124 -97.5t75.5 -152.5t25.5 -200q0 -123 -34.5 -219.5t-94 -163t-137.5 -101.5t-164 -35q-70 0 -144.5 32t-139.5 91h-7l-14 -98h-135v1169h-152zM336 221 q66 -57 130 -80.5t114 -23.5q61 0 113 25.5t90 73.5t59.5 117.5t21.5 158.5q0 156 -60.5 251t-201.5 95q-121 0 -266 -136v-481z" />
<glyph unicode="&#x18f;" horiz-adv-x="1349" d="M119 666q0 10 1 23t3 28h950q-10 238 -113.5 374t-293.5 136q-100 0 -184.5 -37t-143.5 -96l-82 116q72 70 179.5 114t244.5 44q129 0 233.5 -48t177 -137t112.5 -217t40 -290t-42 -291t-117.5 -220t-181 -140.5t-230.5 -49.5q-127 0 -228.5 49.5t-174 140.5t-111.5 218 t-39 283zM293 586q6 -111 35.5 -198t80 -147.5t117 -92t146.5 -31.5q164 0 270.5 125t126.5 344h-776z" />
<glyph unicode="&#x192;" horiz-adv-x="1017" d="M37 -168l31 127q47 -20 102 -20q96 0 138 80.5t59 238.5l49 449h-178v120l141 9h51l12 114q23 205 102 311.5t242 106.5q45 0 88.5 -11t71.5 -26l-37 -129q-23 10 -49 19.5t-65 9.5q-47 0 -80 -22.5t-54.5 -59.5t-35 -85t-19.5 -99l-14 -129h258v-129h-272l-54 -486 q-10 -94 -32.5 -171t-61.5 -132t-98.5 -86t-145.5 -31q-47 0 -86 8.5t-63 22.5z" />
<glyph unicode="&#x1a0;" horiz-adv-x="1359" d="M111 678q0 162 42 290t118.5 217t182 136t232.5 47q147 0 266 -65q86 16 126 47.5t40 89.5q0 23 -8 43t-20 41l120 59q20 -29 33.5 -61.5t13.5 -71.5q0 -88 -56 -140.5t-152 -74.5q98 -90 154.5 -230.5t56.5 -326.5q0 -162 -42 -292t-119 -221t-182.5 -140.5 t-230.5 -49.5q-127 0 -232.5 49.5t-182 140.5t-118.5 221t-42 292zM287 678q0 -127 28.5 -228.5t81 -174t126 -111.5t163.5 -39t163 39t125 111.5t80.5 174t28.5 228.5q0 125 -28.5 225.5t-80.5 170t-125 107.5t-163 38t-163.5 -38t-126 -107.5t-81 -170t-28.5 -225.5z" />
<glyph unicode="&#x1a1;" horiz-adv-x="1110" d="M94 496q0 125 38 222t101.5 164.5t146.5 102.5t175 35q102 0 193 -43q72 12 111.5 44t39.5 89q0 23 -8 44.5t-23 41.5l123 59q20 -29 33.5 -61.5t13.5 -71.5q0 -92 -57 -140t-133 -71q76 -68 122 -172t46 -243q0 -123 -38 -220.5t-101.5 -164t-146.5 -101.5t-175 -35 t-175 35t-146.5 101.5t-101.5 164t-38 220.5zM268 496q0 -86 20.5 -156t58.5 -120t91.5 -77.5t116.5 -27.5t116.5 27.5t91.5 77.5t58.5 120t20.5 156t-20.5 156.5t-58.5 121.5t-91.5 79t-116.5 28t-116.5 -28t-91.5 -79t-58.5 -121.5t-20.5 -156.5z" />
<glyph unicode="&#x1af;" horiz-adv-x="1349" d="M178 555v788h170v-792q0 -121 24.5 -203t66.5 -131t99.5 -70.5t123.5 -21.5q68 0 125 21.5t100 70.5t67.5 131t24.5 203v792h68q86 8 135 37t49 101q0 23 -8.5 43t-22.5 41l121 59q23 -29 35 -61.5t12 -71.5q0 -51 -18.5 -88t-49 -63.5t-71.5 -43t-86 -26.5v-715 q0 -162 -37 -272.5t-101.5 -179t-152.5 -98.5t-190 -30t-191.5 30t-154 98.5t-101.5 179t-37 272.5z" />
<glyph unicode="&#x1b0;" horiz-adv-x="1114" d="M154 365v630h170v-608q0 -141 44 -203.5t142 -62.5q78 0 137.5 40t130.5 128v706h43q72 8 122 37t50 98q0 23 -8 44.5t-20 42.5l120 59q20 -29 34 -61.5t14 -71.5q0 -47 -16.5 -82t-42 -60.5t-59.5 -42t-69 -26.5v-932h-139l-14 156h-7q-70 -82 -146.5 -131.5 t-180.5 -49.5q-160 0 -232.5 98.5t-72.5 291.5z" />
<glyph unicode="&#x1cd;" horiz-adv-x="1114" d="M6 0l455 1343h192l455 -1343h-182l-127 410h-490l-129 -410h-174zM276 1675h138l137 -139h8l137 139h138l-197 -229h-164zM352 547h404l-64 205q-37 113 -69.5 224t-65.5 228h-8q-31 -117 -63.5 -228.5t-69.5 -223.5z" />
<glyph unicode="&#x1ce;" horiz-adv-x="1048" d="M119 258q0 164 146.5 251t465.5 122q0 47 -9 92t-32.5 80t-62.5 56.5t-101 21.5q-88 0 -162.5 -33t-134.5 -74l-67 117q70 45 170 87t221 42q182 0 264 -111.5t82 -298.5v-610h-139l-15 119h-4q-72 -59 -154.5 -101.5t-174.5 -42.5q-127 0 -210 74t-83 209zM285 270 q0 -86 50 -122.5t124 -36.5q72 0 136 33.5t136 99.5v276q-125 -16 -211 -38.5t-138 -53.5t-74.5 -71t-22.5 -87zM287 1462h123l137 -188h8l137 188h123l-194 -288h-140z" />
<glyph unicode="&#x1cf;" horiz-adv-x="538" d="M-10 1675h137l137 -139h8l138 139h137l-197 -229h-164zM184 0v1343h170v-1343h-170z" />
<glyph unicode="&#x1d0;" horiz-adv-x="503" d="M-12 1462h123l137 -188h8l137 188h123l-194 -288h-140zM168 0v995h168v-995h-168z" />
<glyph unicode="&#x1d1;" horiz-adv-x="1359" d="M106 678q0 162 42 290t118 217t181.5 136t232.5 47t232.5 -48t182 -137t118.5 -217t42 -288q0 -162 -42 -292t-118.5 -221t-182 -140.5t-232.5 -49.5t-232.5 49.5t-181.5 140.5t-118 221t-42 292zM283 678q0 -127 28.5 -228.5t80.5 -174t125 -111.5t163 -39t162.5 39 t125 111.5t81 174t28.5 228.5q0 125 -28.5 225.5t-81 170t-125 107.5t-162.5 38t-163 -38t-125 -107.5t-80.5 -170t-28.5 -225.5zM401 1675h138l137 -139h8l137 139h137l-196 -229h-164z" />
<glyph unicode="&#x1d2;" horiz-adv-x="1110" d="M94 496q0 125 38 222t101.5 164.5t146.5 102.5t175 35t175 -35t146.5 -102.5t101.5 -164.5t38 -222q0 -123 -38 -220.5t-101.5 -164t-146.5 -101.5t-175 -35t-175 35t-146.5 101.5t-101.5 164t-38 220.5zM268 496q0 -86 20.5 -156t58.5 -120t91.5 -77.5t116.5 -27.5 t116.5 27.5t91.5 77.5t58.5 120t20.5 156t-20.5 156.5t-58.5 121.5t-91.5 79t-116.5 28t-116.5 -28t-91.5 -79t-58.5 -121.5t-20.5 -156.5zM291 1462h123l137 -188h8l137 188h123l-194 -288h-140z" />
<glyph unicode="&#x1d3;" horiz-adv-x="1320" d="M178 555v788h170v-792q0 -121 24.5 -203t66.5 -131t99.5 -70.5t123.5 -21.5q68 0 125 21.5t100 70.5t67.5 131t24.5 203v792h164v-788q0 -162 -37 -272.5t-101.5 -179t-152.5 -98.5t-190 -30t-191.5 30t-154 98.5t-101.5 179t-37 272.5zM381 1675h137l137 -139h9l137 139 h137l-197 -229h-163z" />
<glyph unicode="&#x1d4;" horiz-adv-x="1114" d="M154 365v630h170v-608q0 -141 44 -203.5t142 -62.5q78 0 137.5 40t130.5 128v706h168v-995h-139l-14 156h-7q-70 -82 -146.5 -131.5t-180.5 -49.5q-160 0 -232.5 98.5t-72.5 291.5zM293 1462h123l137 -188h8l137 188h123l-194 -288h-140z" />
<glyph unicode="&#x1d5;" horiz-adv-x="1320" d="M178 555v788h170v-792q0 -121 24.5 -203t66.5 -131t99.5 -70.5t123.5 -21.5q68 0 125 21.5t100 70.5t67.5 131t24.5 203v792h164v-788q0 -162 -37 -272.5t-101.5 -179t-152.5 -98.5t-190 -30t-191.5 30t-154 98.5t-101.5 179t-37 272.5zM389 1559q0 41 26.5 66.5 t67.5 25.5t66.5 -26t25.5 -66q0 -41 -25.5 -68t-66.5 -27t-67.5 27t-26.5 68zM406 1763v95h507v-95h-507zM743 1559q0 41 26 66.5t67 25.5t67.5 -26t26.5 -66q0 -41 -26.5 -68t-67.5 -27t-67 27t-26 68z" />
<glyph unicode="&#x1d6;" horiz-adv-x="1114" d="M154 365v630h170v-608q0 -141 44 -203.5t142 -62.5q78 0 137.5 40t130.5 128v706h168v-995h-139l-14 156h-7q-70 -82 -146.5 -131.5t-180.5 -49.5q-160 0 -232.5 98.5t-72.5 291.5zM287 1296q0 41 26.5 68t67.5 27t66.5 -27t25.5 -68q0 -39 -25.5 -65.5t-66.5 -26.5 t-67.5 26.5t-26.5 65.5zM303 1536v96h506v-96h-506zM641 1296q0 41 25.5 68t66.5 27t67.5 -27t26.5 -68q0 -39 -26.5 -65.5t-67.5 -26.5t-66.5 26.5t-25.5 65.5z" />
<glyph unicode="&#x1d7;" horiz-adv-x="1320" d="M178 555v788h170v-792q0 -121 24.5 -203t66.5 -131t99.5 -70.5t123.5 -21.5q68 0 125 21.5t100 70.5t67.5 131t24.5 203v792h164v-788q0 -162 -37 -272.5t-101.5 -179t-152.5 -98.5t-190 -30t-191.5 30t-154 98.5t-101.5 179t-37 272.5zM389 1559q0 41 26.5 66.5 t67.5 25.5t66.5 -26t25.5 -66q0 -41 -25.5 -68t-66.5 -27t-67.5 27t-26.5 68zM555 1718l182 228h187l-230 -228h-139zM743 1559q0 41 26 66.5t67 25.5t67.5 -26t26.5 -66q0 -41 -26.5 -68t-67.5 -27t-67 27t-26 68z" />
<glyph unicode="&#x1d8;" horiz-adv-x="1114" d="M154 365v630h170v-608q0 -141 44 -203.5t142 -62.5q78 0 137.5 40t130.5 128v706h168v-995h-139l-14 156h-7q-70 -82 -146.5 -131.5t-180.5 -49.5q-160 0 -232.5 98.5t-72.5 291.5zM287 1296q0 41 26.5 68t67.5 27t66.5 -27t25.5 -68q0 -39 -25.5 -65.5t-66.5 -26.5 t-67.5 26.5t-26.5 65.5zM449 1475l167 211h162l-211 -211h-118zM641 1296q0 41 25.5 68t66.5 27t67.5 -27t26.5 -68q0 -39 -26.5 -65.5t-67.5 -26.5t-66.5 26.5t-25.5 65.5z" />
<glyph unicode="&#x1d9;" horiz-adv-x="1320" d="M178 555v788h170v-792q0 -121 24.5 -203t66.5 -131t99.5 -70.5t123.5 -21.5q68 0 125 21.5t100 70.5t67.5 131t24.5 203v792h164v-788q0 -162 -37 -272.5t-101.5 -179t-152.5 -98.5t-190 -30t-191.5 30t-154 98.5t-101.5 179t-37 272.5zM381 1946h137l137 -140h9l137 140 h137l-197 -228h-163zM389 1559q0 41 26.5 66.5t67.5 25.5t66.5 -26t25.5 -66q0 -41 -25.5 -68t-66.5 -27t-67.5 27t-26.5 68zM743 1559q0 41 26 66.5t67 25.5t67.5 -26t26.5 -66q0 -41 -26.5 -68t-67.5 -27t-67 27t-26 68z" />
<glyph unicode="&#x1da;" horiz-adv-x="1114" d="M154 365v630h170v-608q0 -141 44 -203.5t142 -62.5q78 0 137.5 40t130.5 128v706h168v-995h-139l-14 156h-7q-70 -82 -146.5 -131.5t-180.5 -49.5q-160 0 -232.5 98.5t-72.5 291.5zM287 1296q0 41 26.5 68t67.5 27t66.5 -27t25.5 -68q0 -39 -25.5 -65.5t-66.5 -26.5 t-67.5 26.5t-26.5 65.5zM299 1686h125l129 -132h8l129 132h125l-186 -211h-144zM641 1296q0 41 25.5 68t66.5 27t67.5 -27t26.5 -68q0 -39 -26.5 -65.5t-67.5 -26.5t-66.5 26.5t-25.5 65.5z" />
<glyph unicode="&#x1db;" horiz-adv-x="1320" d="M178 555v788h170v-792q0 -121 24.5 -203t66.5 -131t99.5 -70.5t123.5 -21.5q68 0 125 21.5t100 70.5t67.5 131t24.5 203v792h164v-788q0 -162 -37 -272.5t-101.5 -179t-152.5 -98.5t-190 -30t-191.5 30t-154 98.5t-101.5 179t-37 272.5zM389 1559q0 41 26.5 66.5 t67.5 25.5t66.5 -26t25.5 -66q0 -41 -25.5 -68t-66.5 -27t-67.5 27t-26.5 68zM395 1946h187l182 -228h-139zM743 1559q0 41 26 66.5t67 25.5t67.5 -26t26.5 -66q0 -41 -26.5 -68t-67.5 -27t-67 27t-26 68z" />
<glyph unicode="&#x1dc;" horiz-adv-x="1114" d="M154 365v630h170v-608q0 -141 44 -203.5t142 -62.5q78 0 137.5 40t130.5 128v706h168v-995h-139l-14 156h-7q-70 -82 -146.5 -131.5t-180.5 -49.5q-160 0 -232.5 98.5t-72.5 291.5zM287 1296q0 41 26.5 68t67.5 27t66.5 -27t25.5 -68q0 -39 -25.5 -65.5t-66.5 -26.5 t-67.5 26.5t-26.5 65.5zM336 1686h162l168 -211h-119zM641 1296q0 41 25.5 68t66.5 27t67.5 -27t26.5 -68q0 -39 -26.5 -65.5t-67.5 -26.5t-66.5 26.5t-25.5 65.5z" />
<glyph unicode="&#x1e6;" horiz-adv-x="1263" d="M106 672q0 162 46.5 291t129.5 219t195.5 138t247.5 48q139 0 232.5 -52t152.5 -114l-96 -108q-51 53 -118 89t-169 36t-184 -38t-139.5 -109t-89 -171t-31.5 -225q0 -127 29.5 -228.5t86 -173t139.5 -110.5t191 -39q72 0 136.5 21.5t105.5 58.5v350h-285v141h440v-565 q-66 -68 -173 -112t-242 -44q-133 0 -244 47.5t-190.5 136.5t-125 219t-45.5 294zM444 1675h138l137 -139h8l137 139h137l-196 -229h-164z" />
<glyph unicode="&#x1e7;" horiz-adv-x="1032" d="M92 -190q0 63 39 120.5t107 104.5v8q-37 23 -62.5 62.5t-25.5 99.5q0 63 34.5 110t73.5 74v8q-49 41 -89 109.5t-40 159.5q0 82 29.5 147.5t81 111.5t120 70.5t144.5 24.5q41 0 76.5 -7t64.5 -18h346v-129h-205q35 -35 58.5 -88t23.5 -116q0 -80 -28.5 -144.5 t-77.5 -108.5t-115.5 -69t-142.5 -25q-37 0 -76 9.5t-74 25.5q-27 -23 -45 -50.5t-18 -68.5q0 -47 37 -77.5t139 -30.5h192q174 0 261.5 -56.5t87.5 -181.5q0 -70 -35 -132t-100.5 -109t-158.5 -75t-210 -28q-92 0 -168 17.5t-130 52.5t-84 84t-30 115zM225 1462h123 l137 -188h9l137 188h123l-195 -288h-139zM240 -168q0 -80 76.5 -127t211.5 -47q72 0 130.5 17.5t99.5 45t63.5 64.5t22.5 76q0 70 -51.5 96.5t-149.5 26.5h-172q-29 0 -62.5 3t-66.5 13q-53 -39 -77.5 -82t-24.5 -86zM293 666q0 -55 16.5 -99.5t46 -75t67.5 -47t81 -16.5 t81 16.5t67.5 47t46 74.5t16.5 100q0 111 -61.5 171t-149.5 60t-149.5 -60.5t-61.5 -170.5z" />
<glyph unicode="&#x1ea;" horiz-adv-x="1359" d="M106 678q0 162 42 290t118 217t181.5 136t232.5 47t232.5 -48t182 -137t118.5 -217t42 -288q0 -137 -27.5 -245.5t-81.5 -192.5t-132 -146.5t-178 -107.5q-84 -37 -122 -94.5t-38 -110.5q0 -47 30.5 -70.5t67.5 -23.5q25 0 44.5 7t37.5 21l47 -92q-29 -23 -76 -40 t-88 -17q-82 0 -138 45t-56 133q0 68 35.5 128t89.5 105q-129 2 -233.5 53.5t-178.5 142.5t-113 219t-39 286zM283 678q0 -127 28.5 -228.5t80.5 -174t125 -111.5t163 -39t162.5 39t125 111.5t81 174t28.5 228.5q0 125 -28.5 225.5t-81 170t-125 107.5t-162.5 38t-163 -38 t-125 -107.5t-80.5 -170t-28.5 -225.5z" />
<glyph unicode="&#x1eb;" horiz-adv-x="1110" d="M94 496q0 125 38 222t101.5 164.5t146.5 102.5t175 35t175 -35t146.5 -102.5t101.5 -164.5t38 -222q0 -104 -23.5 -183.5t-66.5 -139.5t-102.5 -104t-133.5 -77q-70 -33 -107.5 -90.5t-37.5 -116.5q0 -47 28.5 -70.5t65.5 -23.5q25 0 44 7t40 19l43 -84q-29 -23 -75 -39 t-87 -16q-78 0 -131 44t-53 130q0 39 11 73t28.5 63.5t37 52t38.5 36.5q-90 4 -170 42t-140.5 103.5t-95.5 160t-35 213.5zM268 496q0 -86 20.5 -156t58.5 -120t91.5 -77.5t116.5 -27.5t116.5 27.5t91.5 77.5t58.5 120t20.5 156t-20.5 156.5t-58.5 121.5t-91.5 79t-116.5 28 t-116.5 -28t-91.5 -79t-58.5 -121.5t-20.5 -156.5z" />
<glyph unicode="&#x218;" horiz-adv-x="1093" d="M86 174l102 119q72 -76 169.5 -122t201.5 -46q133 0 207 60.5t74 158.5q0 51 -17.5 87t-47.5 61.5t-70.5 46t-88.5 43.5l-192 84q-47 20 -96 48.5t-88 69.5t-63.5 97.5t-24.5 130.5q0 76 31.5 141.5t88 113.5t133 74.5t168.5 26.5q121 0 223.5 -46t174.5 -120l-92 -110 q-61 59 -136 93t-170 34q-113 0 -181 -52.5t-68 -144.5q0 -49 19 -83t52 -59.5t72 -45t80 -35.5l190 -82q57 -25 108.5 -56.5t88.5 -73.5t58.5 -98.5t21.5 -130.5q0 -80 -32 -149.5t-91.5 -121.5t-143 -82t-190.5 -30q-141 0 -262 53.5t-209 145.5zM385 -360q82 10 132 31.5 t50 62.5t-30.5 60.5t-73.5 29.5l37 78q104 -16 151 -52t47 -106q0 -45 -24.5 -78t-65.5 -55.5t-95 -35.5t-112 -17z" />
<glyph unicode="&#x219;" horiz-adv-x="858" d="M57 113l84 112q66 -53 134.5 -86t158.5 -33q98 0 147.5 45.5t49.5 110.5q0 39 -20.5 67.5t-52.5 50t-73 38t-82 33.5q-53 18 -106 41.5t-95 57.5t-69 79t-27 108q0 59 24 111.5t68 90.5t107.5 59.5t143.5 21.5q94 0 172.5 -33t136.5 -80l-80 -106q-51 39 -106.5 63.5 t-120.5 24.5q-94 0 -138.5 -43t-44.5 -101q0 -35 18.5 -60.5t49.5 -44.5t70.5 -34.5t82.5 -32.5q53 -20 107.5 -42.5t97.5 -56.5t71 -83t28 -119q0 -61 -24 -114.5t-70 -94t-114.5 -64.5t-156.5 -24q-106 0 -202.5 39t-168.5 99zM281 -360q82 10 132 31.5t50 62.5t-31 60.5 t-74 29.5l37 78q104 -16 151.5 -52t47.5 -106q0 -45 -24.5 -78t-65.5 -55.5t-95.5 -35.5t-111.5 -17z" />
<glyph unicode="&#x21a;" horiz-adv-x="1097" d="M57 1200v143h983v-143h-405v-1200h-172v1200h-406zM377 -360q82 10 132 31.5t50 62.5t-30.5 60.5t-73.5 29.5l37 78q104 -16 151 -52t47 -106q0 -45 -24.5 -78t-65.5 -55.5t-95 -35.5t-112 -17z" />
<glyph unicode="&#x21b;" horiz-adv-x="692" d="M49 858v127l156 10l20 279h142v-279h268v-137h-268v-553q0 -92 33.5 -142t119.5 -50q27 0 57.5 8t55.5 18l33 -127q-41 -14 -89.5 -25.5t-95.5 -11.5q-80 0 -134 25t-88 68t-48 104t-14 135v551h-148zM262 -360q82 10 132 31.5t50 62.5t-30.5 60.5t-73.5 29.5l37 78 q104 -16 151 -52t47 -106q0 -45 -24.5 -78t-65.5 -55.5t-95 -35.5t-111 -17z" />
<glyph unicode="&#x237;" horiz-adv-x="505" d="M-82 -418l35 127q18 -6 42.5 -11t51.5 -5q74 0 98.5 51t24.5 143v1108h168v-1108q0 -152 -61.5 -241.5t-210.5 -89.5q-47 0 -84 8t-64 18z" />
<glyph unicode="&#x243;" horiz-adv-x="1234" d="M61 362v89l158 8v884h399q102 0 187.5 -18t146 -57t94 -100.5t33.5 -147.5q0 -98 -57 -175t-176 -108v-8q147 -23 229 -104.5t82 -223.5q0 -102 -37 -176.5t-104.5 -125t-160.5 -75t-206 -24.5h-430v362h-158zM389 129h236q174 0 270 68.5t96 212.5q0 133 -95 194.5 t-271 61.5h-236v-207h311v-97h-311v-233zM389 778h201q172 0 248.5 58.5t76.5 171.5q0 111 -80.5 160t-238.5 49h-207v-439z" />
<glyph unicode="&#x251;" horiz-adv-x="1136" d="M96 496q0 121 36 218t96.5 164.5t138 104.5t163.5 37q84 0 149.5 -31t133.5 -90h4l14 96h138v-995h-140l-14 117h-6q-59 -57 -136 -99.5t-165 -42.5q-188 0 -300 135.5t-112 385.5zM270 498q0 -180 72 -280.5t203 -100.5q70 0 131 33.5t123 103.5v520q-63 57 -122 81 t-120 24q-59 0 -111.5 -28t-91.5 -78t-61.5 -119.5t-22.5 -155.5z" />
<glyph unicode="&#x259;" horiz-adv-x="1015" d="M76 455q0 29 2 52t6 42h670q-8 154 -85 246t-212 92q-76 0 -137.5 -23.5t-120.5 -62.5l-60 110q70 47 155 78t189 31q94 0 174 -35t138.5 -102.5t92.5 -163.5t34 -219t-34 -220.5t-92.5 -165t-138 -103.5t-170.5 -36q-94 0 -169.5 33t-130 95.5t-83 151.5t-28.5 200z M225 436q0 -166 70 -245.5t188 -79.5q117 0 187.5 84t85.5 241h-531z" />
<glyph unicode="&#x261;" horiz-adv-x="1144" d="M102 512q0 117 36 211t95.5 159.5t138.5 101.5t163 36q86 0 150.5 -29.5t127.5 -87.5h4l14 92h142v-1044q0 -186 -115 -289.5t-328 -103.5q-92 0 -185 27.5t-171 80.5l62 119q74 -49 148.5 -70.5t145.5 -21.5q137 0 204 70.5t71 191.5l2 188q-57 -55 -132 -94t-163 -39 q-94 0 -170 35t-129 99.5t-82 157.5t-29 210zM274 514q0 -168 72 -266t203 -98q70 0 130 33.5t126 103.5v487q-66 57 -124 81t-120 24q-59 0 -111.5 -27t-91.5 -76t-61.5 -115.5t-22.5 -146.5z" />
<glyph unicode="&#x2b0;" horiz-adv-x="749" d="M106 545v960h127v-258l-6 -135q41 43 98.5 76t123.5 33q115 0 161.5 -72t46.5 -186v-418h-127v399q0 78 -23.5 123t-100.5 45q-76 0 -173 -96v-471h-127z" />
<glyph unicode="&#x2b2;" horiz-adv-x="346" d="M-53 266l26 99q12 -4 24.5 -7.5t33.5 -3.5q47 0 63.5 32t16.5 91v727h127v-719q0 -111 -43.5 -173t-147.5 -62q-35 0 -56.5 3t-43.5 13zM90 1411q0 35 24.5 57.5t61.5 22.5t61.5 -22.5t24.5 -57.5t-24.5 -57.5t-61.5 -22.5t-61.5 22.5t-24.5 57.5z" />
<glyph unicode="&#x2b3;" horiz-adv-x="491" d="M106 545v659h103l14 -117h6q78 133 187 134q49 0 78 -15l-25 -112q-12 4 -30.5 7t-35.5 3q-43 0 -88 -32t-79 -109v-418h-130z" />
<glyph unicode="&#x2b7;" horiz-adv-x="997" d="M33 1204h131l90 -366l39 -189h8l45 189l96 366h115l102 -366l46 -189h8l43 189l88 366h121l-179 -659h-153l-88 336l-43 186h-4l-43 -186l-88 -336h-152z" />
<glyph unicode="&#x2b8;" horiz-adv-x="653" d="M16 1204h129l129 -346q16 -45 32 -92t32 -98h8q14 49 28.5 96t31.5 94l106 346h125l-244 -696q-37 -104 -96 -171t-164 -67q-47 0 -84 13l27 102q23 -10 49 -10q53 0 90 37t55 96l15 41z" />
<glyph unicode="&#x2b9;" horiz-adv-x="509" d="M166 889l47 524h166l-33 -205l-70 -319h-110z" />
<glyph unicode="&#x2bb;" horiz-adv-x="509" d="M117 1061q0 123 55 213t162 151l49 -79q-78 -51 -117 -108.5t-39 -145.5q6 2 19 2q41 0 74.5 -27t33.5 -78q0 -53 -30.5 -82.5t-77.5 -29.5q-61 0 -95 47t-34 137z" />
<glyph unicode="&#x2bc;" horiz-adv-x="509" d="M129 961q78 51 116 108t38 148q-6 -2 -17 -3q-43 0 -75.5 27t-32.5 76q0 53 30.5 84t77.5 31q59 0 94 -48.5t35 -138.5q0 -123 -56 -212t-163 -150z" />
<glyph unicode="&#x2be;" horiz-adv-x="307" d="M61 1110v74q72 0 102 31.5t30 84.5q0 51 -30 83t-102 32v74q111 4 169.5 -48t58.5 -141q0 -90 -58.5 -142t-169.5 -48z" />
<glyph unicode="&#x2bf;" horiz-adv-x="331" d="M41 1300q0 88 58.5 140.5t168.5 48.5v-74q-72 0 -101.5 -31.5t-29.5 -83.5q0 -53 30 -84.5t101 -31.5v-74q-111 -4 -169 48t-58 142z" />
<glyph unicode="&#x2c6;" horiz-adv-x="1110" d="M291 1174l194 288h140l194 -288h-123l-137 186h-8l-137 -186h-123z" />
<glyph unicode="&#x2c7;" horiz-adv-x="1110" d="M291 1462h123l137 -188h8l137 188h123l-194 -288h-140z" />
<glyph unicode="&#x2c8;" horiz-adv-x="233" d="M45 1466h143l-12 -374h-119z" />
<glyph unicode="&#x2c9;" horiz-adv-x="567" d="M33 1231v117h504v-117h-504z" />
<glyph unicode="&#x2ca;" horiz-adv-x="460" d="M94 1174l185 288h176l-232 -288h-129z" />
<glyph unicode="&#x2cb;" horiz-adv-x="460" d="M0 1462h176l184 -288h-129z" />
<glyph unicode="&#x2cc;" horiz-adv-x="233" d="M45 -520l12 375h119l12 -375h-143z" />
<glyph unicode="&#x2d8;" horiz-adv-x="1110" d="M297 1438h104q8 -59 45 -107.5t109 -48.5t108.5 48t45.5 108h104q-4 -45 -19.5 -91.5t-46 -84t-78.5 -61t-114 -23.5t-114 23.5t-78.5 61t-47 84t-18.5 91.5z" />
<glyph unicode="&#x2d9;" horiz-adv-x="1110" d="M444 1311q0 47 32 78.5t79 31.5t79 -31.5t32 -78.5q0 -49 -32 -80t-79 -31t-79 31t-32 80z" />
<glyph unicode="&#x2da;" horiz-adv-x="1110" d="M365 1300q0 86 53 137.5t137 51.5t137 -51.5t53 -137.5t-53 -138t-137 -52t-137 52t-53 138zM457 1300q0 -53 28.5 -83.5t69.5 -30.5t69.5 30.5t28.5 83.5q0 51 -28.5 82t-69.5 31t-69.5 -30.5t-28.5 -82.5z" />
<glyph unicode="&#x2db;" horiz-adv-x="1110" d="M420 -248q0 84 47 149.5t98 104.5h119q-66 -49 -102.5 -105.5t-36.5 -115.5q0 -47 28.5 -70.5t65.5 -23.5q45 0 82 26l45 -84q-29 -23 -76 -39t-86 -16q-78 0 -131 44t-53 130z" />
<glyph unicode="&#x2dc;" horiz-adv-x="1110" d="M270 1186q8 92 49 154.5t117 62.5q39 0 72 -16.5t60.5 -36t52 -36t49.5 -16.5q57 0 75 105h95q-8 -92 -49 -154.5t-117 -62.5q-39 0 -71 16.5t-59.5 35.5t-52 35.5t-51.5 16.5q-57 0 -75 -104h-95z" />
<glyph unicode="&#x2dd;" horiz-adv-x="1110" d="M354 1169l144 293h149l-180 -293h-113zM655 1169l146 293h147l-180 -293h-113z" />
<glyph unicode="&#x2e1;" horiz-adv-x="356" d="M106 696v809h127v-821q0 -51 33 -51h12.5t16.5 4l18 -94q-14 -6 -30.5 -10.5t-42.5 -4.5q-74 0 -104 45t-30 123z" />
<glyph unicode="&#x2e2;" horiz-adv-x="579" d="M39 618l61 84q45 -35 93.5 -55t103.5 -20q57 0 88 26.5t31 67.5q0 23 -12.5 40t-34 29.5t-48 23.5t-55.5 22q-35 14 -69.5 30.5t-62.5 39t-45 53t-17 73.5q0 76 59 132.5t168 56.5q72 0 125 -22.5t94 -51.5l-63 -82q-37 27 -71 42t-81 15q-55 0 -82.5 -25.5t-27.5 -58.5 q0 -23 12 -39t32.5 -28.5t47 -21.5t55.5 -21q35 -14 70.5 -29.5t64.5 -37t46.5 -53.5t17.5 -77q0 -88 -65.5 -145.5t-178.5 -57.5q-74 0 -140.5 27t-115.5 63z" />
<glyph unicode="&#x2e3;" horiz-adv-x="628" d="M16 545l222 346l-203 313h139l84 -135l64 -104h8l55 104l76 135h135l-201 -327l215 -332h-139l-88 143l-72 113h-8l-67 -113l-84 -143h-136z" />
<glyph unicode="&#x300;" d="M-227 1462h176l184 -288h-129z" />
<glyph unicode="&#x301;" d="M-133 1174l184 288h176l-231 -288h-129z" />
<glyph unicode="&#x302;" d="M-264 1174l194 288h140l194 -288h-123l-137 186h-8l-137 -186h-123z" />
<glyph unicode="&#x303;" d="M-285 1186q8 92 49 154.5t117 62.5q39 0 72 -16.5t60.5 -36t52 -36t49.5 -16.5q57 0 75 105h95q-8 -92 -49 -154.5t-117 -62.5q-39 0 -71 16.5t-59.5 35.5t-52 35.5t-51.5 16.5q-57 0 -75 -104h-95z" />
<glyph unicode="&#x304;" d="M-252 1231v117h504v-117h-504z" />
<glyph unicode="&#x306;" d="M-258 1438h104q8 -59 45 -107.5t109 -48.5t108.5 48t45.5 108h104q-4 -45 -19.5 -91.5t-46 -84t-78.5 -61t-114 -23.5t-114 23.5t-78.5 61t-47 84t-18.5 91.5z" />
<glyph unicode="&#x307;" d="M-111 1311q0 47 32 78.5t79 31.5t79 -31.5t32 -78.5q0 -49 -32 -80t-79 -31t-79 31t-32 80z" />
<glyph unicode="&#x308;" d="M-276 1305q0 43 27.5 71.5t72.5 28.5q43 0 71.5 -28.5t28.5 -71.5t-28.5 -72t-71.5 -29q-45 0 -72.5 29t-27.5 72zM76 1305q0 43 28.5 71.5t71.5 28.5q45 0 72.5 -28.5t27.5 -71.5t-27.5 -72t-72.5 -29q-43 0 -71.5 29t-28.5 72z" />
<glyph unicode="&#x309;" d="M-131 1391l18 98q135 -4 209 -46t74 -120q0 -45 -18.5 -77t-50 -55.5t-72.5 -36.5t-86 -21l-19 77q49 14 82 35t33 60q0 80 -170 86z" />
<glyph unicode="&#x30a;" d="M-190 1300q0 86 53 137.5t137 51.5t137 -51.5t53 -137.5t-53 -138t-137 -52t-137 52t-53 138zM-98 1300q0 -53 28.5 -83.5t69.5 -30.5t69.5 30.5t28.5 83.5q0 51 -28.5 82t-69.5 31t-69.5 -30.5t-28.5 -82.5z" />
<glyph unicode="&#x30b;" d="M-201 1169l144 293h149l-180 -293h-113zM100 1169l146 293h147l-180 -293h-113z" />
<glyph unicode="&#x30c;" d="M-264 1462h123l137 -188h8l137 188h123l-194 -288h-140z" />
<glyph unicode="&#x30f;" d="M-393 1462h147l146 -293h-113zM-92 1462h149l144 -293h-113z" />
<glyph unicode="&#x312;" d="M-109 1257q0 72 39 136.5t127 105.5l37 -65q-59 -29 -85.5 -65t-31.5 -83q6 2 17 2q31 0 57.5 -19.5t26.5 -60.5q0 -47 -23.5 -69.5t-58.5 -22.5q-104 0 -105 141z" />
<glyph unicode="&#x313;" d="M-96 1180q111 53 116 147q-6 -2 -18 -2q-31 0 -57.5 19.5t-26.5 60.5q0 45 24.5 67.5t59.5 22.5q102 0 102 -141q0 -72 -38.5 -135.5t-126.5 -104.5z" />
<glyph unicode="&#x31b;" d="M-18 973q86 10 129 40.5t43 94.5q0 23 -8.5 44.5t-20.5 41.5l121 57q20 -29 33.5 -61.5t13.5 -69.5q0 -55 -22.5 -96t-62.5 -68.5t-93.5 -44t-116.5 -22.5z" />
<glyph unicode="&#x323;" d="M-111 -311q0 47 32 77.5t79 30.5t79 -30.5t32 -77.5q0 -49 -32 -80t-79 -31t-79 31t-32 80z" />
<glyph unicode="&#x324;" d="M-276 -311q0 43 27.5 71.5t72.5 28.5q43 0 71.5 -28.5t28.5 -71.5q0 -41 -28.5 -71t-71.5 -30q-45 0 -72.5 30t-27.5 71zM76 -311q0 43 28.5 71.5t71.5 28.5q45 0 72.5 -28.5t27.5 -71.5q0 -41 -27.5 -71t-72.5 -30q-43 0 -71.5 30t-28.5 71z" />
<glyph unicode="&#x326;" d="M-174 -360q82 10 132 31.5t50 62.5t-30.5 60.5t-73.5 29.5l37 78q104 -16 151 -52t47 -106q0 -45 -24.5 -78t-65.5 -55.5t-95 -35.5t-112 -17z" />
<glyph unicode="&#x327;" d="M-174 -352q82 10 132 33.5t50 64.5t-33.5 62.5t-95.5 37.5l82 160h109l-52 -108q49 -16 85 -49t36 -97q0 -45 -24.5 -77.5t-65.5 -55t-95 -36t-112 -19.5z" />
<glyph unicode="&#x328;" d="M-135 -248q0 84 47 149.5t98 104.5h119q-66 -49 -102.5 -105.5t-36.5 -115.5q0 -47 28.5 -70.5t65.5 -23.5q45 0 82 26l45 -84q-29 -23 -76 -39t-86 -16q-78 0 -131 44t-53 130z" />
<glyph unicode="&#x32e;" d="M-258 -162h104q8 -59 45 -107t109 -48t108.5 48t45.5 107h104q-4 -45 -19.5 -91t-46 -84t-78.5 -61.5t-114 -23.5t-114 23.5t-78.5 61.5t-47 84t-18.5 91z" />
<glyph unicode="&#x331;" d="M-254 -231h506v-119h-506v119z" />
<glyph unicode="&#x3c0;" horiz-adv-x="1148" d="M49 856v129l141 10h895v-139h-151v-637q0 -49 17.5 -76.5t52.5 -27.5q10 0 21 3t28 7l22 -129q-47 -20 -112 -21q-111 0 -155 69t-44 187v625h-373v-856h-166v856h-176z" />
<glyph unicode="&#x1000;" horiz-adv-x="1808" d="M102 532q0 532 461 533q225 0 340 -127q117 127 342 127q461 0 461 -533q0 -532 -461 -532v135q293 0 293 397t-293 398q-182 0 -252 -156q31 -102 31 -242q0 -446 -297 -532l-55 131q184 66 184 401q0 397 -293 398q-293 0 -293 -398q0 -336 185 -401l-56 -131 q-297 86 -297 532z" />
<glyph unicode="&#x1001;" horiz-adv-x="1126" d="M102 319q115 168 326 168q76 0 166 -22q156 -39 242 -113q20 76 20 180q0 397 -313 398q-217 0 -281 -178l-160 51q96 262 441 262q481 0 481 -533q0 -532 -481 -532q-354 0 -441 319zM281 276q76 -141 262 -141q133 0 211 72q-53 92 -193 127q-55 14 -104 14 q-106 0 -176 -72z" />
<glyph unicode="&#x1002;" horiz-adv-x="1126" d="M102 532q0 533 461 533t461 -533q0 -446 -297 -532l-55 131q184 66 184 401q0 397 -293 398q-293 0 -293 -398q0 -336 185 -401l-56 -131q-297 86 -297 532z" />
<glyph unicode="&#x1003;" horiz-adv-x="1808" d="M102 532q0 160 228 240q76 29 76 80q0 12 -5 27q-16 47 -61 47q-25 0 -57 -15l-129 -49l-52 123l129 53q68 27 121 27q123 0 174 -137q18 -49 19 -92q0 -127 -166 -193q-109 -41 -109 -111q0 -397 293 -397t293 397q0 336 -184 402l55 131q297 -86 297 -533 q0 -139 -31 -241q70 -156 252 -156q293 0 293 397t-293 398v135q461 0 461 -533q0 -532 -461 -532q-225 0 -342 127q-115 -127 -340 -127q-461 0 -461 532z" />
<glyph unicode="&#x1004;" horiz-adv-x="1126" d="M102 532q1 533 482 533q344 0 440 -262l-160 -51q-63 178 -280 178q-313 0 -314 -398q0 -397 314 -397q217 0 280 178l160 -51q-96 -262 -440 -262q-481 0 -482 532z" />
<glyph unicode="&#x1005;" horiz-adv-x="1126" d="M102 532q0 533 461 533t461 -533q0 -532 -461 -532t-461 532zM270 532q0 -178 60 -276q139 82 139 276q0 197 -139 279q-59 -98 -60 -279zM436 160q55 -25 127 -25q293 0 293 397t-293 398q-72 0 -127 -25q168 -113 168 -373q0 -259 -168 -372z" />
<glyph unicode="&#x1006;" horiz-adv-x="1808" d="M102 319q115 168 326 168q76 0 166 -22q156 -39 242 -113q20 76 20 180q0 397 -313 398q-217 0 -281 -178l-160 51q96 262 441 262q246 0 360 -127q117 127 342 127q461 0 461 -533q0 -532 -461 -532q-229 0 -344 131q-121 -131 -358 -131q-354 0 -441 319zM281 276 q76 -141 262 -141q133 0 211 72q-53 92 -193 127q-55 14 -104 14q-106 0 -176 -72zM991 293l2 2q68 -160 252 -160q293 0 293 397t-293 398q-182 0 -252 -156q31 -102 31 -242q0 -139 -33 -239z" />
<glyph unicode="&#x1007;" horiz-adv-x="1126" d="M102 532q0 532 482 533q344 0 440 -262q8 -37 8 -82q0 -133 -88 -180q61 -57 135 -58q20 0 43 4v-122q-20 -2 -39 -3q-154 0 -278 154q-182 12 -182 205q0 141 98 186q-59 23 -137 23q-313 0 -314 -398q0 -397 314 -397q172 0 247 111l142 -82q-117 -164 -389 -164 q-481 0 -482 532zM758 721q0 -70 69 -70q70 0 70 70t-70 70t-69 -70z" />
<glyph unicode="&#x1008;" horiz-adv-x="1499" d="M102 532q0 532 461 533q461 0 461 -533q0 -424 -293 -509v-330q0 -117 125 -117h250q123 0 123 117v1372h168v-1372q0 -252 -291 -252h-250q-293 0 -293 252v307q-461 0 -461 532zM270 532q0 -178 60 -276q139 82 139 276q0 197 -139 279q-59 -98 -60 -279zM436 160 q55 -25 127 -25q293 0 293 397t-293 398q-72 0 -127 -25q168 -113 168 -373q0 -259 -168 -372z" />
<glyph unicode="&#x1009;" horiz-adv-x="1126" d="M102 262l160 51q63 -178 281 -178q313 0 313 397t-313 398q-217 0 -281 -178l-160 51q96 262 441 262q481 0 481 -533q0 -532 -481 -532q-164 0 -273 59v-346q0 -137 148 -137h665q145 0 146 137v185h168v-185q0 -272 -314 -272h-665q-315 0 -316 272v549z" />
<glyph unicode="&#x100a;" horiz-adv-x="1808" d="M102 262l160 51q63 -178 281 -178q313 0 313 397t-313 398q-217 0 -281 -178l-160 51q96 262 441 262q481 0 481 -533q0 -139 -31 -241q70 -156 252 -156q293 0 293 397t-293 398v135q461 0 461 -533q0 -532 -461 -532q-225 0 -342 127q-115 -127 -360 -127 q-164 0 -273 59v-346q0 -137 148 -137h975q145 0 145 137v185h168v-185q0 -272 -313 -272h-975q-315 0 -316 272v549z" />
<glyph unicode="&#x100b;" horiz-adv-x="1126" d="M102 -61l138 61q125 -82 323 -82q174 0 293 64v77q-109 -59 -272 -59q-481 0 -482 532q0 532 482 533q344 0 440 -262l-160 -51q-63 178 -280 178q-313 0 -314 -398q0 -397 314 -397q217 0 280 178l160 -51v-321q-166 -145 -461 -146q-168 0 -293 47v-90q129 -39 293 -39 q236 0 398 82l63 -24v-195h102v-135h-270v182q-133 -33 -293 -33q-272 0 -461 93v256z" />
<glyph unicode="&#x100c;" horiz-adv-x="1126" d="M102 -340q0 217 308 217h127v-135h-127q-139 0 -140 -82q0 -84 140 -84h299q147 0 147 137v346q-109 -59 -272 -59q-481 0 -482 532q0 532 482 533q344 0 440 -262l-160 -51q-63 178 -280 178q-313 0 -314 -398q0 -397 314 -397q217 0 280 178l160 -51v-549 q0 -272 -315 -272h-299q-307 0 -308 219z" />
<glyph unicode="&#x100d;" horiz-adv-x="1126" d="M102 -80v342l160 51q63 -178 281 -178q313 0 313 397t-313 398q-217 0 -281 -178l-160 51q96 262 441 262q481 0 481 -533q0 -532 -481 -532q-164 0 -273 59v-98q119 -63 293 -63q199 0 324 102l137 -61v-363h102v-135h-270v381q-125 -47 -293 -47q-295 0 -461 145z" />
<glyph unicode="&#x100e;" horiz-adv-x="1126" d="M102 532q0 160 228 240q76 29 76 80q0 12 -5 27q-16 47 -61 47q-25 0 -57 -15l-129 -49l-52 123l129 53q68 27 121 27q123 0 174 -137q18 -49 19 -92q0 -127 -166 -193q-109 -41 -109 -111q0 -397 293 -397t293 397q0 336 -184 402l55 131q297 -86 297 -533 q0 -532 -461 -532t-461 532z" />
<glyph unicode="&#x100f;" horiz-adv-x="2211" d="M102 532q0 532 461 533q195 0 307 -96q63 96 236 96q172 0 235 -96q113 96 308 96q461 0 460 -533q0 -446 -297 -532l-55 131q184 66 185 401q0 397 -293 398q-293 0 -293 -398q0 -127 8 -178l2 -24q18 -68 18 -119q0 -211 -278 -211q-279 0 -279 211q0 51 19 119l4 24 q6 51 6 178q0 397 -293 398q-293 0 -293 -398q0 -336 185 -401l-56 -131q-297 86 -297 532zM963 852q61 -123 61 -320q0 -127 -25 -225q-18 -47 -18 -82q0 -90 125 -90t125 90q0 35 -19 82q-24 98 -24 225q0 197 61 320q-29 78 -143 78q-115 0 -143 -78z" />
<glyph unicode="&#x1010;" horiz-adv-x="1808" d="M102 532q0 532 461 533q225 0 340 -127q117 127 342 127q461 0 461 -533q0 -532 -461 -532v135q293 0 293 397t-293 398q-182 0 -252 -156q31 -102 31 -242q0 -532 -461 -532t-461 532zM270 532q0 -397 293 -397t293 397t-293 398q-293 0 -293 -398z" />
<glyph unicode="&#x1011;" horiz-adv-x="1808" d="M102 532q0 532 461 533q225 0 340 -127q117 127 342 127q461 0 461 -533q0 -532 -461 -532q-225 0 -342 127q-115 -127 -340 -127q-461 0 -461 532zM270 532q0 -397 293 -397t293 397t-293 398q-293 0 -293 -398zM993 291q70 -156 252 -156q293 0 293 397t-293 398 q-182 0 -252 -156q31 -102 31 -242q0 -139 -31 -241z" />
<glyph unicode="&#x1012;" horiz-adv-x="1126" d="M102 262l160 51q63 -178 301 -178q293 0 293 172q0 158 -229 158v135q229 0 229 158q0 172 -293 172t-293 -172q0 -70 99 -70v-135q-266 0 -267 205q0 307 461 307t461 -307q0 -152 -123 -226q123 -74 123 -225q0 -307 -461 -307q-365 0 -461 262z" />
<glyph unicode="&#x1013;" horiz-adv-x="1126" d="M102 532q0 533 461 533t461 -533q0 -532 -461 -532t-461 532zM270 532q0 -43 4 -81q109 82 289 81q180 1 289 -79q4 37 4 79q0 397 -293 398q-293 0 -293 -398zM324 266q72 -131 239 -131q168 0 240 131q-72 131 -240 131q-167 0 -239 -131z" />
<glyph unicode="&#x1014;" horiz-adv-x="1126" d="M102 246q0 225 256 225q338 0 338 -266v-58q160 39 160 181q0 154 -270 227q-360 98 -361 285q0 225 338 225q227 0 338 -178l-139 -88q-72 131 -199 131q-170 0 -170 -90q0 -92 228 -154q403 -111 403 -358q0 -277 -328 -320v-567h-168v559q-426 10 -426 246zM270 246 q0 -105 258 -111v70q0 131 -170 131q-88 0 -88 -90z" />
<glyph unicode="&#x1015;" horiz-adv-x="1126" d="M102 532q0 446 297 533l56 -131q-184 -66 -185 -402q0 -397 293 -397t293 397q0 336 -184 402l55 131q297 -86 297 -533q0 -532 -461 -532t-461 532z" />
<glyph unicode="&#x1016;" horiz-adv-x="1126" d="M102 532q0 446 297 533l56 -131q-184 -66 -185 -402q0 -397 293 -397q195 0 260 176q-82 31 -147 101q-115 119 -115 288q0 209 166 365q297 -86 297 -533q0 -532 -461 -532t-461 532zM696 700q0 -115 76 -194q37 -39 80 -60q4 41 4 86q0 247 -98 347q-61 -76 -62 -179z " />
<glyph unicode="&#x1017;" horiz-adv-x="1126" d="M102 532q0 446 297 533l43 -102v-52q0 -100 121 -100t121 100v52l43 102q297 -86 297 -533q0 -532 -461 -532t-461 532zM270 532q0 -397 293 -397t293 397q0 179 -51 281q-47 -137 -242 -137t-241 137q-51 -102 -52 -281z" />
<glyph unicode="&#x1018;" horiz-adv-x="1808" d="M102 262l160 51q63 -178 281 -178q313 0 313 397t-311 398q-217 0 -281 -178l-160 51q96 262 441 262q244 0 358 -127q117 127 342 127q461 0 461 -533q0 -532 -461 -532v135q293 0 293 397t-293 398q-182 0 -252 -156q31 -103 31 -242q0 -532 -481 -532q-344 0 -441 262 z" />
<glyph unicode="&#x1019;" horiz-adv-x="1126" d="M102 532q0 446 297 533l56 -131q-184 -66 -185 -402q0 -43 4 -81q109 82 289 81q180 0 289 -79q4 37 4 79q0 336 -184 402l55 131q297 -86 297 -533q0 -532 -461 -532t-461 532zM324 266q72 -131 239 -131q168 0 240 131q-72 131 -240 131q-167 0 -239 -131z" />
<glyph unicode="&#x101a;" horiz-adv-x="1808" d="M102 532q0 446 297 533l56 -131q-184 -66 -185 -402q0 -397 293 -397t293 397q0 336 -184 402l55 131q297 -86 297 -533q0 -139 -31 -241q70 -156 252 -156q293 0 293 397t-293 398v135q461 0 461 -533q0 -532 -461 -532q-225 0 -342 127q-115 -127 -340 -127 q-461 0 -461 532z" />
<glyph unicode="&#x101b;" horiz-adv-x="1126" d="M102 532q0 532 461 533q461 0 461 -533v-956h102v-135h-270v1091q0 397 -293 398q-236 0 -282 -258q49 -8 98 -29q152 -63 219 -219q35 -80 35 -166q0 -123 -70 -258q-461 0 -461 532zM270 532q0 -334 207 -387q18 66 19 121q0 57 -21 103q-45 106 -147 149 q-29 12 -58 19v-5z" />
<glyph unicode="&#x101c;" horiz-adv-x="1880" d="M102 532q0 532 461 533q461 0 461 -533q0 -397 293 -397t293 397t-293 398v135q461 -1 461 -533t-461 -532t-461 532q0 397 -293 398q-293 0 -293 -398q0 -397 293 -397v-135q-461 0 -461 532z" />
<glyph unicode="&#x101d;" horiz-adv-x="1126" d="M102 532q0 533 461 533t461 -533q0 -532 -461 -532t-461 532zM270 532q0 -397 293 -397t293 397q0 398 -293 398t-293 -398z" />
<glyph unicode="&#x101e;" horiz-adv-x="1808" d="M102 803q96 262 441 262q481 0 481 -533q0 -139 -31 -241q70 -156 252 -156q293 0 293 397t-293 398v135q461 0 461 -533q0 -532 -461 -532q-225 0 -342 127q-115 -127 -358 -127q-344 0 -441 262l160 51q63 -178 281 -178q311 0 311 397t-313 398q-217 0 -281 -178z" />
<glyph unicode="&#x101f;" horiz-adv-x="1808" d="M102 532q0 446 297 533l56 -131q-184 -66 -185 -402q0 -397 293 -397t293 397q0 336 -184 402l55 131q114 -33 184 -119q117 119 334 119q461 0 461 -533q0 -532 -461 -532v135q293 0 293 397t-293 398q-180 0 -250 -152q29 -106 29 -246q0 -532 -461 -532t-461 532z" />
<glyph unicode="&#x1020;" horiz-adv-x="1126" d="M102 -61l138 61q125 -102 323 -102q174 0 293 63v98q-109 -59 -272 -59q-481 0 -482 532q0 532 482 533q344 0 440 -262l-160 -51q-63 178 -280 178q-313 0 -314 -398q0 -397 314 -397q217 0 280 178l160 -51v-342q-166 -145 -461 -145q-168 0 -293 47v-170 q0 -76 103 -76h399q84 0 84 76v82h168v-82q0 -211 -252 -211h-399q-270 0 -271 211v287z" />
<glyph unicode="&#x1021;" horiz-adv-x="1808" d="M102 262l160 51q63 -178 301 -178q293 0 293 172q0 158 -229 158v135q229 0 229 158q0 172 -293 172t-293 -152q0 -49 99 -49v-135q-266 0 -267 184q0 287 461 287q258 0 373 -96q113 96 309 96q461 0 461 -533q0 -532 -461 -532q-70 135 -69 258q0 86 34 166 q68 156 220 219q49 20 98 29q-47 258 -283 258q-154 0 -227 -109q6 -29 6 -63q0 -152 -123 -226q123 -74 123 -225q0 -307 -461 -307q-365 0 -461 262zM1313 266q0 -55 18 -121q207 53 207 387v5q-29 -6 -57 -19q-102 -43 -148 -149q-20 -45 -20 -103z" />
<glyph unicode="&#x1022;" horiz-adv-x="1808" d="M102 80l52 123l129 -49q33 -14 57 -15q45 0 61 47q4 14 5 27q0 51 -76 80q-227 80 -228 239q0 532 461 533q225 0 340 -127q117 127 342 127q461 0 461 -533q0 -532 -461 -532v135q293 0 293 397t-293 398q-182 0 -252 -156q31 -102 31 -242q0 -446 -297 -532l-55 131 q184 66 184 401q0 397 -293 398q-293 0 -293 -398q0 -70 109 -110q166 -66 166 -193q0 -43 -19 -92q-51 -137 -174 -137q-53 0 -121 27z" />
<glyph unicode="&#x1023;" horiz-adv-x="1808" d="M102 532q0 532 461 533q225 0 340 -127q117 127 342 127q461 0 461 -533q0 -532 -461 -532v135q293 0 293 397t-293 398q-182 0 -252 -156q31 -102 31 -242q0 -446 -297 -532l-55 131q184 66 184 401q0 397 -293 398q-293 0 -293 -398q0 -336 185 -401l-56 -131 q-297 86 -297 532zM260 -303q0 256 358 256q199 0 287 -78q88 78 287 78q358 0 358 -256q0 -94 -37 -154h121l4 -102h-364v102q133 0 133 154t-215 153q-215 0 -215 -153q0 -213 -205 -256l-49 94q111 31 111 162q0 154 -216 153q-215 0 -215 -153q0 -131 111 -162l-49 -94 q-205 43 -205 256z" />
<glyph unicode="&#x1024;" horiz-adv-x="2181" d="M102 -319q0 238 308 237q412 0 823 -123v-135q-412 123 -823 123q-139 0 -140 -102q0 -104 140 -105h1005q123 0 123 117v839q0 397 -293 398q-182 0 -252 -156q31 -102 31 -242q0 -446 -297 -532l-55 131q184 66 184 401q0 397 -293 398q-293 0 -293 -398 q0 -336 185 -401l-56 -131q-297 86 -297 532q0 532 461 533q225 0 340 -127q117 127 342 127q461 0 461 -533v-839q0 -252 -291 -252h-1005q-307 0 -308 240zM1319 1544q0 461 461 461q313 0 401 -227l-108 -62q-70 154 -293 154q-326 0 -326 -326q0 -231 219 -336 q406 -195 406 -594v-1173h-168v1173q0 330 -295 471q-297 143 -297 459z" />
<glyph unicode="&#x1025;" horiz-adv-x="1126" d="M102 262l160 51q63 -178 281 -178q313 0 313 397t-313 398q-217 0 -281 -178l-160 51q96 262 441 262q481 0 481 -533q0 -532 -481 -532q-164 0 -273 59v-346q0 -137 148 -137h299q139 0 139 84q0 82 -139 82h-127v135h127q307 0 307 -217q0 -219 -307 -219h-299 q-315 0 -316 272v549z" />
<glyph unicode="&#x1026;" horiz-adv-x="1126" d="M102 262l160 51q63 -178 281 -178q313 0 313 397t-313 398q-217 0 -281 -178l-160 51q96 262 441 262q481 0 481 -533q0 -532 -481 -532q-164 0 -273 59v-346q0 -137 148 -137h299q139 0 139 84q0 82 -139 82h-127v135h127q307 0 307 -217q0 -219 -307 -219h-299 q-315 0 -316 272v549zM205 1526q0 358 358 358t359 -358q0 -358 -359 -359q-358 0 -358 359zM340 1503q94 53 223 53t223 -51v21q0 223 -223 223t-223 -223v-23zM379 1378q55 -76 184 -75q129 0 185 75q-70 57 -185 58q-114 -1 -184 -58z" />
<glyph unicode="&#x1027;" horiz-adv-x="1126" d="M102 532q0 532 482 533q354 0 440 -320q-115 -168 -326 -167q-76 0 -166 22q-156 39 -241 113q-20 -76 -21 -181q1 -104 21 -180q86 74 241 113q90 23 166 22q211 0 326 -168q-86 -319 -440 -319q-481 0 -482 532zM373 207q78 -72 211 -72q186 0 262 141q-70 72 -176 72 q-49 0 -105 -14q-139 -35 -192 -127zM373 858q53 -92 192 -127q55 -14 105 -14q106 -1 176 71q-76 141 -262 142q-133 0 -211 -72z" />
<glyph unicode="&#x1028;" horiz-adv-x="1126" d="M102 -27v559q0 532 461 533q461 0 461 -533v-143q0 -389 -276 -389t-277 205q0 158 100 205q61 29 62 112q0 70 -70 70t-69 -70h-136q0 205 205 205t205 -205q0 -170 -113 -223q-49 -23 -49 -94q0 -70 142 -70q109 0 108 254v143q0 397 -293 398q-293 0 -293 -398v-559 q0 -397 293 -397q229 0 279 242l162 -45q-79 -332 -441 -332q-461 0 -461 532z" />
<glyph unicode="&#x1029;" horiz-adv-x="2181" d="M102 -287v1843q0 272 316 273h1288v-135h-1288q-147 0 -148 -138v-1843q0 -137 148 -137h975q145 0 145 137v291q-168 20 -262 123q-115 -127 -358 -127q-344 0 -441 262l160 51q63 -178 281 -178q311 0 311 397t-314 398q-217 0 -280 -178l-160 51q96 262 440 262 q481 0 482 -533q0 -139 -31 -241q70 -156 252 -156q293 0 293 397t-293 398v135q461 0 461 -533q0 -479 -373 -526v-293q0 -272 -313 -272h-975q-315 0 -316 272z" />
<glyph unicode="&#x102a;" horiz-adv-x="3989" d="M102 532q0 532 482 533q344 0 440 -262l-160 -51q-63 178 -280 178q-313 0 -314 -398q0 -104 21 -180q85 74 241 113q90 23 166 22q211 0 326 -168q-86 -319 -440 -319q-481 0 -482 532zM373 207q78 -72 211 -72q186 0 262 141q-70 72 -176 72q-49 0 -105 -14 q-139 -35 -192 -127zM1229 -287v1843q0 272 315 273h1391v-135h-1391q-147 0 -147 -138v-1843q0 -137 147 -137h975q145 0 145 137v291q-168 20 -262 123q-115 -127 -358 -127q-344 0 -440 262l159 51q63 -178 281 -178q311 0 311 397t-313 398q-217 0 -281 -178l-159 51 q96 262 440 262q481 0 481 -533q0 -139 -31 -241q70 -156 252 -156q293 0 293 397t-293 398v135q225 0 340 -127q117 127 342 127q461 0 461 -533q0 -532 -461 -532v135q293 0 293 397t-293 398q-182 0 -252 -156q31 -102 31 -242q0 -479 -373 -526v-293q0 -272 -313 -272 h-975q-315 0 -315 272zM3072 1526q0 358 358 358q262 0 332 -190l-127 -58q-47 113 -205 113q-223 0 -223 -223t223 -223v-136q-358 0 -358 359z" />
<glyph unicode="&#x102b;" horiz-adv-x="372" d="M-446 1372q0 358 358 359q358 0 358 -359v-1372h-168v1372q0 223 -190 223q-223 0 -223 -223h-135z" />
<glyph unicode="&#x102c;" horiz-adv-x="681" d="M-223 938q117 127 342 127q461 0 461 -533q0 -532 -461 -532v135q293 0 293 397t-293 398q-182 0 -252 -156z" />
<glyph unicode="&#x102d;" d="M-922 1526q1 358 359 358t358 -358t-358 -359q-358 0 -359 359zM-786 1526q0 -223 223 -223t223 223t-223 223t-223 -223z" />
<glyph unicode="&#x102e;" d="M-922 1526q1 358 359 358t358 -358t-358 -359q-358 0 -359 359zM-786 1503q94 53 223 53t223 -51v21q0 223 -223 223t-223 -223v-23zM-748 1378q55 -76 185 -75q129 0 184 75q-70 57 -184 58q-115 -1 -185 -58z" />
<glyph unicode="&#x102f;" d="M-647 -61h168v-363h143v-135h-311v498z" />
<glyph unicode="&#x1030;" d="M-780 -61h168v-498h-168v498zM-514 -61h168v-363h143v-135h-311v498z" />
<glyph unicode="&#x1031;" horiz-adv-x="1126" d="M102 532q0 532 482 533q344 0 440 -262l-160 -51q-63 178 -280 178q-313 0 -314 -398q0 -104 21 -180q85 74 241 113q90 23 166 22q211 0 326 -168q-86 -319 -440 -319q-481 0 -482 532zM373 207q78 -72 211 -72q186 0 262 141q-70 72 -176 72q-49 0 -105 -14 q-139 -35 -192 -127z" />
<glyph unicode="&#x1032;" d="M-922 1786l97 98l620 -620l-96 -97z" />
<glyph unicode="&#x1033;" d="M-922 1526q1 358 359 358t358 -358t-358 -359q-358 0 -359 359zM-799 1526q0 -236 236 -236q235 0 235 236t-235 235q-236 0 -236 -235zM-717 1526q0 153 154 153t153 -153q0 -154 -153 -154q-154 0 -154 154zM-614 1526q0 -51 51 -51t51 51t-51 51t-51 -51z" />
<glyph unicode="&#x1034;" d="M-922 1264l621 620l96 -98l-620 -619z" />
<glyph unicode="&#x1035;" d="M-922 1526q0 358 359 358q197 0 287 -108l-121 -80q-55 53 -166 53q-223 0 -223 -223q0 -80 28 -131q78 166 322 166q127 0 209 -45l22 -13q-10 -336 -358 -336q-358 0 -359 359zM-641 1311q35 -8 78 -8q160 0 205 114q-35 8 -78 8q-160 1 -205 -114z" />
<glyph unicode="&#x1036;" d="M-750 1313q1 186 187 186t186 -186t-186 -187q-186 0 -187 187zM-625 1313q0 -61 62 -62q61 1 61 62t-61 61t-62 -61z" />
<glyph unicode="&#x1037;" d="M-750 -248q1 187 187 187t186 -187q0 -186 -186 -186t-187 186zM-625 -248q0 -61 62 -61q61 0 61 61t-61 62q-61 0 -62 -62z" />
<glyph unicode="&#x1038;" horiz-adv-x="577" d="M102 227q1 187 187 187t186 -187q0 -186 -186 -186t-187 186zM102 838q1 186 187 186t186 -186t-186 -187q-186 0 -187 187zM227 227q0 -61 62 -61q61 0 61 61t-61 62q-61 0 -62 -62zM227 838q0 -61 62 -62q61 1 61 62t-61 61t-62 -61z" />
<glyph unicode="&#x1039;" d="M-799 -209h168v168h135v-168h168v-135h-168v-168h-135v168h-168v135z" />
<glyph unicode="&#x103a;" d="M-793 1526q0 358 359 358q262 0 332 -190l-127 -58q-47 113 -205 113q-223 0 -223 -223t223 -223v-136q-358 0 -359 359z" />
<glyph unicode="&#x103b;" horiz-adv-x="372" d="M-373 -61h168v-228l307 -119v1473h168v-1624h-157l-486 190v308z" />
<glyph unicode="&#x103c;" horiz-adv-x="372" d="M102 -287v1843q0 272 316 273h665q313 0 314 -273v-225h-168v225q0 137 -146 138h-665q-147 0 -148 -138v-1843q0 -137 148 -137h665q145 0 146 137v492h168v-492q0 -272 -314 -272h-665q-315 0 -316 272z" />
<glyph unicode="&#x103d;" d="M-858 -303q0 256 297 256t297 -256t-297 -256t-297 256zM-745 -303q0 -143 184 -143t184 143t-184 143t-184 -143z" />
<glyph unicode="&#x103e;" d="M-791 -424h144v363h168v-498h-312v135z" />
<glyph unicode="&#x103f;" horiz-adv-x="2490" d="M102 803q96 262 441 262q481 0 481 -533q0 -139 -31 -241q70 -156 252 -156q293 0 293 397t-293 398v135q461 0 461 -533q0 -139 -31 -241q70 -156 252 -156q293 0 293 397t-293 398v135q461 0 461 -533q0 -532 -461 -532q-225 0 -342 127q-115 -127 -340 -127t-342 127 q-115 -127 -358 -127q-344 0 -441 262l160 51q63 -178 281 -178q311 0 311 397t-313 398q-217 0 -281 -178z" />
<glyph unicode="&#x1040;" horiz-adv-x="1126" d="M102 532q0 533 461 533t461 -533q0 -532 -461 -532t-461 532zM270 532q0 -397 293 -397t293 397q0 398 -293 398t-293 -398z" />
<glyph unicode="&#x1041;" horiz-adv-x="1126" d="M102 262l160 51q63 -178 281 -178q313 0 313 397t-313 398q-217 0 -281 -178l-160 51q96 262 441 262q481 -1 481 -533t-481 -532q-344 0 -441 262z" />
<glyph unicode="&#x1042;" horiz-adv-x="839" d="M20 -102h136q0 -223 223 -224q190 0 190 224v1167h168v-1167q0 -358 -358 -359q-358 0 -359 359z" />
<glyph unicode="&#x1043;" horiz-adv-x="1126" d="M102 262l160 51q63 -178 281 -178q313 0 313 397t-313 398q-217 0 -281 -178l-160 51q96 262 441 262q481 0 481 -533q0 -532 -481 -532q-33 0 -66 2l391 -475l-104 -86l-520 635q-96 66 -142 186z" />
<glyph unicode="&#x1044;" horiz-adv-x="1126" d="M102 532q0 532 482 533q344 0 440 -262l-160 -51q-63 178 -280 178q-313 0 -314 -398q0 -397 314 -397q217 0 280 178l160 -51q-45 -121 -141 -186l-521 -635l-104 86l391 475q-33 -2 -65 -2q-481 0 -482 532z" />
<glyph unicode="&#x1045;" horiz-adv-x="1126" d="M102 655q0 410 461 410t461 -533v-559q0 -532 -461 -532q-362 0 -440 332l162 45q49 -242 278 -242q293 0 293 397v559q0 397 -293 398q-166 0 -237 -88h4q186 0 186 -187q0 -186 -186 -186q-228 0 -228 186zM268 655q0 -61 62 -61q61 0 61 61t-61 62q-61 0 -62 -62z" />
<glyph unicode="&#x1046;" horiz-adv-x="1126" d="M102 532v560q0 532 461 532q363 0 441 -332l-162 -45q-49 242 -279 242q-293 0 -293 -397v-560q0 -397 293 -397t293 397q0 82 -182 130.5t-182 197.5q0 205 204 205q205 0 205 -205h-135q0 70 -70 70t-69 -70q0 -63 198.5 -111.5t198.5 -216.5q0 -532 -461 -532 t-461 532z" />
<glyph unicode="&#x1047;" horiz-adv-x="1126" d="M102 553q0 512 461 512t461 -451q0 -344 -416 -614q-174 -113 -174 -283q0 -141 129 -141t129 141h168q0 -276 -297 -276t-297 276q0 260 250 424q340 221 340 473q0 315 -293 316q-293 0 -293 -377q0 -180 43 -279l-149 -73q-61 129 -62 352z" />
<glyph unicode="&#x1048;" horiz-adv-x="1126" d="M102 532q0 532 461 533q461 0 461 -533q0 -446 -297 -532l-55 131q184 66 184 401q0 397 -293 398q-195 0 -260 -176q82 -31 148 -101q115 -119 114 -288q0 -209 -166 -365q-297 86 -297 532zM270 532q1 -246 99 -346q61 76 61 179q0 115 -76 194q-37 39 -80 59 q-4 -41 -4 -86z" />
<glyph unicode="&#x1049;" horiz-adv-x="1126" d="M102 -27v559q0 532 461 533q461 0 461 -533q0 -168 -198.5 -216t-198.5 -111q0 -70 69 -70q70 0 70 70h135q0 -205 -205 -205t-204 205q0 150 182 198t182 129q0 397 -293 398q-293 0 -293 -398v-559q0 -397 293 -397q229 0 279 242l162 -45q-79 -332 -441 -332 q-461 0 -461 532z" />
<glyph unicode="&#x104a;" horiz-adv-x="372" d="M102 0v1065h168v-1065h-168z" />
<glyph unicode="&#x104b;" horiz-adv-x="679" d="M102 0v1065h168v-1065h-168zM410 0v1065h168v-1065h-168z" />
<glyph unicode="&#x104c;" horiz-adv-x="1126" d="M102 -80v342l160 51q63 -178 281 -178q313 0 313 397t-313 398q-217 0 -281 -178l-160 51q96 262 441 262q481 0 481 -533q0 -532 -481 -532q-164 0 -273 59v-98q119 -63 293 -63q199 0 324 102l137 -61v-287q0 -211 -270 -211h-400q-252 0 -252 211v82h168v-82 q0 -76 84 -76h400q102 0 102 76v170q-125 -47 -293 -47q-295 0 -461 145zM293 1526q0 358 358 358q262 0 332 -190l-127 -58q-47 113 -205 113q-223 0 -223 -223t223 -223v-136q-358 0 -358 359z" />
<glyph unicode="&#x104d;" horiz-adv-x="1464" d="M102 -340q0 217 308 217h127v-135h-127q-139 0 -140 -82q0 -84 140 -84h637q147 0 147 137v901q0 330 -295 471q-297 143 -297 459q0 461 461 461q313 0 401 -227l-108 -62q-70 154 -293 154q-326 0 -326 -326q0 -231 219 -336q406 -195 406 -594v-901q0 -272 -315 -272 h-637q-307 0 -308 219zM102 532q0 532 461 533q461 0 461 -533v-833h-168v833q0 397 -293 398q-236 0 -282 -258q49 -8 98 -29q152 -63 219 -219q35 -80 35 -166q0 -123 -70 -258q-461 0 -461 532zM270 532q0 -334 207 -387q18 66 19 121q0 57 -21 103q-45 106 -147 149 q-29 12 -58 19v-5z" />
<glyph unicode="&#x104e;" horiz-adv-x="1126" d="M102 532q0 532 482 533q344 0 440 -262l-160 -51q-63 178 -280 178q-313 0 -314 -398q0 -397 314 -397q217 0 280 178l160 -51v-821h-168v618q-109 -59 -272 -59q-481 0 -482 532z" />
<glyph unicode="&#x104f;" horiz-adv-x="1792" d="M102 532q0 532 482 533q163 0 272 -70q72 70 203 70q297 0 297 -358v-707h-168v707q0 223 -146 223q-53 0 -88 -31q45 -63 70 -154q-115 -168 -326 -167q-76 0 -166 22q-156 39 -241 113q-20 -76 -21 -181q0 -104 21 -180q86 74 241 113q90 23 166 22q211 0 326 -168 q-86 -319 -440 -319q-481 0 -482 532zM373 207q78 -72 211 -72q186 0 262 141q-70 72 -176 72q-49 0 -105 -14q-139 -35 -192 -127zM373 858q53 -92 192 -127q55 -14 105 -14q106 -1 176 71q-76 141 -262 142q-133 0 -211 -72zM930 1544q0 461 461 461q313 0 401 -227 l-109 -62q-70 154 -292 154q-326 0 -326 -326q0 -170 219 -274q406 -195 406 -563v-707h-168v707q0 299 -295 440q-297 143 -297 397z" />
<glyph unicode="&#x1050;" horiz-adv-x="1126" d="M102 532q0 533 461 533t461 -533q0 -446 -297 -532l-55 131q184 66 184 401q0 397 -293 398q-293 0 -293 -398q0 -336 185 -401l-56 -131q-297 86 -297 532zM461 532q0 103 102 103t103 -103q0 -102 -103 -102q-102 0 -102 102z" />
<glyph unicode="&#x1051;" horiz-adv-x="1126" d="M102 532q0 446 297 533l56 -131q-184 -66 -185 -402q0 -397 293 -397t293 397q0 336 -184 402l55 131q297 -86 297 -533q0 -532 -461 -532t-461 532zM461 532q0 102 102 103q102 0 103 -103q0 -102 -103 -102q-102 0 -102 102z" />
<glyph unicode="&#x1052;" horiz-adv-x="1126" d="M102 532q0 446 297 533l56 -131q-184 -66 -185 -402q0 -397 293 -397t293 397q1 70 -108 111q-166 66 -166 193q0 43 18 92q51 137 174 137q53 0 121 -27l129 -53l-51 -123l-129 49q-33 14 -58 15q-45 0 -61 -47q-4 -14 -4 -27q0 -51 76 -80q227 -80 227 -240 q0 -532 -461 -532t-461 532z" />
<glyph unicode="&#x1053;" horiz-adv-x="1126" d="M102 532q0 168 187 240q76 29 76 80q0 12 -5 27q-16 47 -61 47q-25 0 -57 -15l-90 -34l-50 124l88 37q68 27 121 27q123 0 174 -137q18 -49 19 -92q0 -127 -166 -193q-68 -27 -68 -111q0 -397 293 -397t293 397q0 84 -68 111q-166 66 -165 193q0 43 18 92q51 137 174 137 q53 0 121 -27l88 -37l-49 -124l-90 34q-33 14 -58 15q-45 0 -61 -47q-4 -14 -4 -27q0 -51 76 -80q186 -72 186 -240q0 -532 -461 -532t-461 532z" />
<glyph unicode="&#x1054;" horiz-adv-x="1126" d="M102 532q0 532 482 533q354 0 440 -320q-115 -168 -326 -167q-76 0 -166 22q-155 39 -241 113q-20 -76 -21 -181q0 -397 314 -397q217 0 280 178l160 -51q-96 -262 -440 -262q-481 0 -482 532zM373 858q53 -92 192 -127q55 -14 105 -14q106 -1 176 71q-76 141 -262 142 q-133 0 -211 -72z" />
<glyph unicode="&#x1055;" horiz-adv-x="1126" d="M102 532q0 532 482 533q354 0 440 -320q-115 -168 -326 -167q-76 0 -166 22q-156 39 -241 113q-20 -76 -21 -181q0 -397 140 -397q98 0 127 234h143q0 -233 82 -234q80 0 102 260l160 -30q-55 -365 -262 -365q-109 0 -166 100q-70 -100 -186 -100q-308 0 -308 532z M373 858q53 -92 192 -127q55 -14 105 -14q106 -1 176 71q-76 141 -262 142q-133 0 -211 -72z" />
<glyph unicode="&#x1056;" horiz-adv-x="753" d="M-270 532h168q0 -397 292 -397q293 0 293 397q1 70 -108 111q-166 66 -166 193q0 43 18 92q51 137 174 137q53 0 121 -27l129 -53l-51 -123l-129 49q-33 14 -57 15q-45 0 -62 -47q-4 -14 -4 -27q0 -51 76 -80q227 -80 227 -240q0 -532 -461 -532t-460 532z" />
<glyph unicode="&#x1057;" horiz-adv-x="753" d="M-270 365l159 30q23 -260 103 -260q82 0 82 234h143q29 -233 127 -234q139 0 139 397q0 70 -108 111q-166 66 -166 193q0 43 18 92q51 137 174 137q53 0 121 -27l129 -53l-51 -123l-129 49q-33 14 -57 15q-45 0 -62 -47q-4 -14 -4 -27q0 -51 76 -80q227 -80 227 -240 q0 -532 -307 -532q-117 0 -186 100q-57 -100 -166 -100q-207 0 -262 365z" />
<glyph unicode="&#x1058;" d="M-915 -303q0 256 358 256q297 0 348 -176q-115 -105 -305 -105q-172 0 -252 76q-6 -23 -6 -51q0 -154 215 -154q164 0 244 90l84 -65q-76 -127 -328 -127q-358 0 -358 256zM-680 -168q47 -78 166 -78q84 0 131 49q-53 47 -174 47q-74 0 -123 -18z" />
<glyph unicode="&#x1059;" d="M-915 -303q0 256 358 256q297 0 348 -176q-115 -104 -305 -105q-172 0 -252 76q-6 -23 -6 -51q0 -154 113 -154q41 0 79 72h95q20 -72 92 -72q82 0 100 90l84 -24q-14 -168 -184 -168q-90 0 -133 80q-45 -80 -133 -80q-256 0 -256 256zM-680 -168q47 -78 166 -78 q84 0 131 49q-53 47 -174 47q-74 0 -123 -18z" />
<glyph unicode="&#x105a;" horiz-adv-x="1126" d="M102 532q1 533 482 533q344 0 440 -262l-160 -51q-63 178 -280 178q-313 0 -314 -398q0 -397 314 -397q217 0 280 178l160 -51q-96 -262 -440 -262q-481 0 -482 532zM328 -188q0 160 235 159q236 0 236 -159q0 -80 -100.5 -136.5t-100.5 -85.5q0 -35 68 -34h67v-115h-67 q-236 0 -236 149q0 76 100.5 135.5t100.5 86.5q0 35 -68 34q-68 0 -67 -34h-168z" />
<glyph unicode="&#x105b;" horiz-adv-x="1499" d="M102 532q0 532 482 533q344 0 440 -262q8 -37 8 -82q0 -133 -88 -180q61 -57 135 -58q74 0 150 37v545h168v-1372q0 -252 -291 -252h-250q-293 0 -293 252v307q-461 12 -461 532zM270 532q0 -397 314 -397q172 0 247 111l142 -82q-82 -115 -242 -150v-321 q0 -117 125 -117h250q123 0 123 117v704q-74 -35 -146 -35q-154 0 -278 154q-182 12 -182 205q0 141 98 186q-59 23 -137 23q-313 0 -314 -398zM758 721q0 -70 69 -70q70 0 70 70t-70 70t-69 -70z" />
<glyph unicode="&#x105c;" horiz-adv-x="1126" d="M102 532q0 533 461 533t461 -533q0 -532 -461 -532t-461 532zM270 532q0 -397 293 -397t293 397q0 398 -293 398t-293 -398zM373 532q0 295 190 295q191 0 191 -295t-191 -294q-190 0 -190 294zM485 532q0 -182 78 -182t78 182q0 183 -78 183t-78 -183z" />
<glyph unicode="&#x105d;" horiz-adv-x="1126" d="M102 532q0 446 297 533l56 -131q-184 -66 -185 -402q0 -43 4 -81q109 82 289 81q180 0 289 -79q4 37 4 79q0 336 -184 402l55 131q297 -86 297 -533q0 -356 -207 -475q63 -63 64 -196v-164q0 -256 -359 -256q-358 0 -358 225t235 225q236 0 236 -194h-123q0 92 -102 92 t-103 -123q0 -123 215 -123t215 154v164q0 124 -61 147q-53 -8 -113 -8q-461 0 -461 532zM324 266q72 -131 239 -131q168 0 240 131q-72 131 -240 131q-167 0 -239 -131z" />
<glyph unicode="&#x105e;" d="M-922 -334q0 225 420 225h72v109h143v-119q301 -31 348 -164l-102 -41q-55 76 -246 101v-39q0 -297 -317 -297t-318 225zM-778 -334q0 -123 174 -123t174 195v49q-35 2 -72 2q-276 0 -276 -123z" />
<glyph unicode="&#x105f;" d="M-881 -334q0 193 234 221v113h168v-211h-84q-174 0 -174 -123t174 -123t174 133h143q0 -236 -317 -235q-317 0 -318 225z" />
<glyph unicode="&#x1060;" d="M-899 -436l422 422l123 -115l-297 -295h424v-135h-633z" />
<glyph unicode="&#x1061;" horiz-adv-x="1126" d="M102 532q0 532 461 533q461 0 461 -533v-1091h-168v1091q0 397 -293 398q-236 0 -282 -258q49 -8 98 -29q152 -63 219 -219q35 -80 35 -166v-817h-373v135h205v430q-362 53 -363 526zM270 532q0 -334 207 -387q18 66 19 121q0 57 -21 103q-45 106 -147 149q-29 12 -58 19 v-5z" />
<glyph unicode="&#x1062;" horiz-adv-x="372" d="M-88 930v135h358v-1065h-168v930h-190z" />
<glyph unicode="&#x1063;" horiz-adv-x="1126" d="M102 262l160 51q63 -178 281 -178q313 0 313 397t-313 398q-217 0 -281 -178l-160 51q96 262 441 262q481 0 481 -533q0 -532 -481 -532q-164 0 -273 59v-618h-168v821z" />
<glyph unicode="&#x1064;" horiz-adv-x="372" d="M-88 930v135h358v-930h191v-135h-359v930h-190z" />
<glyph unicode="&#x1065;" horiz-adv-x="1126" d="M102 262l160 51q63 -178 281 -178q313 0 313 397t-313 398q-217 0 -281 -178l-160 51q96 262 441 262q481 -1 481 -533t-481 -532q-344 0 -441 262z" />
<glyph unicode="&#x1066;" horiz-adv-x="1126" d="M102 532q0 446 297 533l56 -131q-184 -66 -185 -402q0 -397 293 -397t293 397q0 336 -184 402l55 131q297 -86 297 -533q0 -326 -172 -452v-639h-373v135h205v434q-55 -10 -121 -10q-461 0 -461 532z" />
<glyph unicode="&#x1067;" horiz-adv-x="372" d="M-102 186q0 186 186 187h18v692h168v-879q0 -186 -186 -186t-186 186zM23 186q0 -61 61 -61t61 61t-61 62q-61 0 -61 -62z" />
<glyph unicode="&#x1068;" horiz-adv-x="372" d="M-88 0v135h190v930h168v-1065h-358zM0 1354q0 186 186 186t187 -186q0 -186 -187 -187q-186 0 -186 187zM125 1354q0 -61 61 -62q62 1 62 62t-62 61q-61 0 -61 -61z" />
<glyph unicode="&#x1069;" horiz-adv-x="638" d="M102 272q0 182 177 314q90 68 90 205q0 139 -133 139h-134v135h134q301 0 301 -274q0 -182 -177 -314q-90 -68 -90 -205t133 -137h134v-135h-134q-301 0 -301 272z" />
<glyph unicode="&#x106a;" horiz-adv-x="372" d="M-303 297h135q0 -162 135 -162t135 162v768h168v-768q0 -297 -286 -297q-287 0 -287 297z" />
<glyph unicode="&#x106b;" horiz-adv-x="372" d="M-303 768q0 297 287 297t286 -297v-768h-168v768q0 162 -135 162t-135 -162h-135z" />
<glyph unicode="&#x106c;" horiz-adv-x="372" d="M102 297v768h168v-768q0 -162 136 -162q135 0 135 162h135q0 -297 -287 -297t-287 297z" />
<glyph unicode="&#x106d;" horiz-adv-x="638" d="M102 0v135h134q133 0 133 137t-90 205q-176 131 -177 314q0 274 301 274h134v-135h-134q-133 0 -133 -139q0 -137 90 -205q176 -131 177 -314q0 -272 -301 -272h-134z" />
<glyph unicode="&#x106e;" horiz-adv-x="2156" d="M102 532q0 532 461 533q98 0 174 -25q76 25 174 25q225 0 340 -127q117 127 342 127q461 0 461 -533q0 -532 -461 -532v135q293 0 293 397t-293 398q-182 0 -252 -156q31 -102 31 -242q0 -446 -297 -532l-55 131q184 66 184 401q0 397 -293 398q113 -133 113 -398 q0 -446 -297 -532l-55 131q184 66 184 401q0 397 -293 398q-293 0 -293 -398q0 -336 185 -401l-56 -131q-297 86 -297 532z" />
<glyph unicode="&#x106f;" horiz-adv-x="1808" d="M102 532q0 446 297 533l56 -131q-184 -66 -185 -402q0 -397 293 -397t293 397q0 336 -184 402l55 131q115 -33 184 -119q117 119 334 119q461 0 461 -533q0 -268 -117 -401v-690h-372v135h204v449q-78 -25 -176 -25v135q293 0 293 397t-293 398q-180 0 -250 -152 q29 -106 29 -246q0 -532 -461 -532t-461 532z" />
<glyph unicode="&#x1070;" horiz-adv-x="1808" d="M102 532q0 160 228 240q76 29 76 80q0 12 -5 27q-16 47 -61 47q-25 0 -57 -15l-129 -49l-52 123l129 53q68 27 121 27q123 0 174 -137q18 -49 19 -92q0 -127 -166 -193q-109 -41 -109 -111q0 -397 293 -397t293 397q0 336 -184 402l55 131q297 -86 297 -533 q0 -139 -31 -241q70 -156 252 -156q293 0 293 397t-293 398v135q461 0 461 -533q0 -268 -117 -401v-690h-372v135h204v449q-78 -25 -176 -25q-225 0 -342 127q-115 -127 -340 -127q-461 0 -461 532z" />
<glyph unicode="&#x1071;" d="M-985 1526q0 186 186 186t187 -186q0 -186 -187 -187q-186 0 -186 187zM-860 1526q0 -61 61 -62q62 1 62 62t-62 61q-61 0 -61 -61zM-514 1526q0 186 186 186t187 -186q0 -186 -187 -187q-186 0 -186 187zM-389 1526q0 -61 61 -62q62 1 62 62t-62 61q-61 0 -61 -61z" />
<glyph unicode="&#x1072;" d="M-913 1526q0 358 358 358q281 0 342 -219l-131 -49q-39 133 -211 133q-223 0 -223 -223t223 -223q172 0 211 133l131 -50q-61 -219 -342 -219q-358 0 -358 359z" />
<glyph unicode="&#x1073;" d="M-1024 1264l461 460l461 -460l-97 -97l-364 363l-365 -363z" />
<glyph unicode="&#x1074;" d="M-922 1526q0 279 217 342l56 -129q-137 -39 -137 -213q0 -223 223 -223t223 223q0 174 -137 213l55 129q217 -63 217 -342q0 -358 -358 -359q-358 0 -359 359z" />
<glyph unicode="&#x1075;" horiz-adv-x="1126" d="M102 80l52 123l129 -49q33 -14 57 -15q45 0 61 47q4 14 5 27q0 51 -76 80q-227 80 -228 239q0 532 461 533q461 0 461 -533q0 -446 -297 -532l-55 131q184 66 184 401q0 397 -293 398q-293 0 -293 -398q0 -69 109 -110q166 -66 166 -193q0 -43 -19 -92 q-51 -137 -174 -137q-53 0 -121 27z" />
<glyph unicode="&#x1076;" horiz-adv-x="1126" d="M-119 911v154h168v-154q0 -67 57 -96q100 250 437 250q481 0 481 -533q0 -532 -481 -532q-354 0 -441 319q115 168 326 168q76 0 166 -22q156 -39 242 -113q20 76 20 180q0 397 -313 398q-217 0 -281 -178q-23 -61 -22 -97q-358 0 -359 256zM281 276q76 -141 262 -141 q133 0 211 72q-53 92 -193 127q-55 14 -104 14q-106 0 -176 -72z" />
<glyph unicode="&#x1077;" horiz-adv-x="1126" d="M102 63l50 125l90 -34q33 -14 57 -15q45 0 61 47q4 14 5 27q0 51 -76 80q-186 72 -187 239q0 533 461 533t461 -533q0 -446 -297 -532q-125 156 -125 365q0 170 69.5 264t151.5 125q-66 176 -260 176q-293 0 -293 -398q0 -84 68 -110q166 -66 166 -193q0 -43 -19 -92 q-51 -137 -174 -137q-53 0 -121 27zM727 365q0 -102 31 -179q98 100 98 346q0 45 -4 86q-43 -20 -84 -79.5t-41 -173.5z" />
<glyph unicode="&#x1078;" horiz-adv-x="1808" d="M102 532q0 532 461 533q225 0 342 -127q115 127 340 127q461 0 461 -533q0 -532 -461 -532t-461 532q0 139 31 242q-70 156 -252 156q-293 0 -293 -398q0 -397 293 -397v-135q-461 0 -461 532zM952 532q0 -397 293 -397t293 397t-293 398q-293 0 -293 -398z" />
<glyph unicode="&#x1079;" horiz-adv-x="1808" d="M102 532q0 533 461 533q225 0 342 -127q115 127 340 127q461 0 461 -533q0 -532 -461 -532t-461 532q0 139 31 242q-70 156 -252 156q-195 0 -260 -176q82 -31 148 -101q115 -119 114 -288q0 -209 -166 -365q-297 86 -297 532zM270 532q1 -246 99 -346q61 76 61 179 q0 115 -76 194q-37 39 -80 59q-4 -41 -4 -86zM952 532q0 -397 293 -397t293 397t-293 398q-293 0 -293 -398z" />
<glyph unicode="&#x107a;" horiz-adv-x="1880" d="M102 532q0 532 461 533q461 0 461 -533q0 -397 293 -397t293 397t-293 398v135q461 0 461 -533q0 -532 -461 -532q-182 0 -293 84v-508h190v-135h-358v1091q0 397 -293 398q-293 0 -293 -398q0 -397 293 -397v-135q-461 0 -461 532z" />
<glyph unicode="&#x107b;" horiz-adv-x="1808" d="M102 532q0 532 461 533q225 0 340 -127q117 127 342 127q461 -1 461 -533q0 -446 -297 -532q-166 156 -166 365q0 170 115 288q66 70 147 101q-66 176 -260 176q-182 0 -252 -156q31 -102 31 -242q0 -532 -461 -532t-461 532zM270 532q0 -397 293 -397t293 397t-293 398 q-293 0 -293 -398zM1378 365q0 -102 62 -179q98 100 98 346q0 45 -4 86q-43 -20 -80 -59q-76 -80 -76 -194z" />
<glyph unicode="&#x107c;" horiz-adv-x="1880" d="M102 319q115 168 326 168q76 0 166 -22q156 -39 242 -113q20 76 20 180q0 397 -313 398q-217 0 -281 -178l-160 51q96 262 441 262q281 0 397 -180q117 180 397 180q344 0 441 -262l-160 -51q-63 178 -281 178q-313 -1 -313 -398q0 -104 20 -180q86 74 242 113 q90 23 166 22q211 0 326 -168q-86 -319 -441 -319q-281 0 -397 180q-117 -180 -397 -180q-354 0 -441 319zM281 276q76 -141 262 -141q133 0 211 72q-53 92 -193 127q-55 14 -104 14q-106 0 -176 -72zM1126 207q78 -72 211 -72q186 0 262 141q-70 72 -176 72q-49 0 -104 -14 q-139 -35 -193 -127z" />
<glyph unicode="&#x107d;" horiz-adv-x="1880" d="M102 532q0 160 228 240q76 29 76 80q0 12 -5 27q-16 47 -61 47q-25 0 -57 -15l-129 -49l-52 123l129 53q68 27 121 27q123 0 174 -137q18 -49 19 -92q0 -127 -166 -193q-109 -41 -109 -111q0 -397 293 -397t293 397q0 532 481 533q344 0 441 -262l-160 -51 q-63 178 -281 178q-313 -1 -313 -398q0 -104 20 -180q86 74 242 113q90 23 166 22q211 0 326 -168q-86 -319 -441 -319q-279 0 -395 178q-113 -178 -379 -178q-461 0 -461 532zM1126 207q78 -72 211 -72q186 0 262 141q-70 72 -176 72q-49 0 -104 -14q-139 -35 -193 -127z " />
<glyph unicode="&#x107e;" horiz-adv-x="1880" d="M102 532q0 160 228 240q76 29 76 80q0 12 -5 27q-16 47 -61 47q-25 0 -57 -15l-129 -49l-52 123l129 53q68 27 121 27q123 0 174 -137q18 -49 19 -92q0 -127 -166 -193q-109 -41 -109 -111q0 -397 293 -397t293 397q0 532 481 533q344 0 441 -262l-160 -51 q-63 178 -281 178q-313 0 -313 -398q0 -104 20 -180q86 74 242 113q90 23 166 22q211 0 326 -168q-76 -281 -357 -315v-563h-372v135h204v428q-213 25 -311 174q-113 -178 -379 -178q-461 0 -461 532zM1126 207q78 -72 211 -72q186 0 262 141q-70 72 -176 72q-49 0 -104 -14 q-139 -35 -193 -127z" />
<glyph unicode="&#x107f;" horiz-adv-x="1126" d="M102 532q0 446 297 533q166 -156 166 -365q0 -170 -114 -288q-66 -70 -148 -101q66 -176 260 -176q293 0 293 397q0 336 -184 402l55 131q297 -86 297 -533q0 -532 -461 -532t-461 532zM270 532q0 -45 4 -86q43 20 80 60q76 80 76 194q0 102 -61 179q-99 -101 -99 -347z " />
<glyph unicode="&#x1080;" horiz-adv-x="1880" d="M102 319q115 168 326 168q76 0 166 -22q156 -39 242 -113q20 76 20 180q0 397 -313 398q-217 0 -281 -178l-160 51q96 262 441 262q481 0 481 -533q0 -397 293 -397t293 397t-293 398v135q461 0 461 -533q0 -532 -461 -532q-266 0 -379 178q-117 -178 -395 -178 q-354 0 -441 319zM281 276q76 -141 262 -141q133 0 211 72q-53 92 -193 127q-55 14 -104 14q-106 0 -176 -72z" />
<glyph unicode="&#x1081;" horiz-adv-x="1126" d="M102 532q0 532 461 533q461 0 461 -533q0 -446 -297 -532l-55 131q184 66 184 401q0 397 -293 398q-293 0 -293 -398q0 -256 107 -354v129h168v-866h-373v135h205v432q-274 94 -275 524z" />
<glyph unicode="&#x1082;" d="M-920 -303q0 256 359 256q131 0 213 -33l-58 -104q-53 35 -155 34q-215 0 -215 -153q0 -154 215 -154q197 0 213 127l141 -20q-30 -209 -354 -209q-358 0 -359 256z" />
<glyph unicode="&#x1083;" horiz-adv-x="372" d="M-88 930v135h358l2 -1489h191v-135h-359l-2 1489h-190z" />
<glyph unicode="&#x1084;" horiz-adv-x="1126" d="M102 307q0 152 123 225q-123 74 -123 226q0 307 461 307t461 -307h-168q0 172 -293 172t-293 -172q0 -158 230 -158v-135q-230 0 -230 -158q0 -172 293 -172t293 172h168q0 -307 -461 -307t-461 307z" />
<glyph unicode="&#x1085;" d="M-922 1374q0 102 97 152q-96 49 -97 151q0 207 359 207q358 0 358 -268h-131q0 133 -227 133q-203 0 -203 -72q0 -86 154 -106v-90q-154 -21 -154 -107q0 -72 203 -71q227 0 227 133h131q0 -268 -358 -269q-358 0 -359 207z" />
<glyph unicode="&#x1086;" d="M-750 1526q0 186 187 186q186 0 186 -186v-103q0 -305 -256 -407l-47 117q143 57 172 210q-25 -4 -55 -4q-186 0 -187 187zM-625 1526q0 -61 62 -62q61 1 61 62t-61 61t-62 -61z" />
<glyph unicode="&#x1087;" horiz-adv-x="577" d="M102 186q0 186 187 187q186 0 186 -187v-102q0 -305 -256 -408l-47 117q143 57 172 211q-25 -4 -55 -4q-186 0 -187 186zM227 186q0 -61 62 -61q61 0 61 61t-61 62q-61 0 -62 -62z" />
<glyph unicode="&#x1088;" horiz-adv-x="577" d="M102 186q0 186 187 187q186 0 186 -187v-102q0 -305 -256 -408l-47 117q143 57 172 211q-25 -4 -55 -4q-186 0 -187 186zM102 879q1 186 187 186t186 -186t-186 -187q-186 0 -187 187zM227 186q0 -61 62 -61q61 0 61 61t-61 62q-61 0 -62 -62zM227 879q0 -61 62 -62 q61 1 61 62t-61 61t-62 -61z" />
<glyph unicode="&#x1089;" horiz-adv-x="577" d="M102 186q1 187 187 187t186 -187q0 -186 -186 -186t-187 186zM227 186q0 -61 62 -61q61 0 61 61t-61 62q-61 0 -62 -62z" />
<glyph unicode="&#x108a;" horiz-adv-x="901" d="M102 190q0 186 187 187q186 0 186 -187q0 -31 -4 -55q154 29 211 172l117 -47q-102 -260 -408 -260h-102q-186 0 -187 190zM102 879q0 186 187 186q186 0 186 -186q0 -31 -4 -56q154 29 211 172l117 -47q-102 -260 -408 -260h-102q-186 0 -187 191zM227 190q0 -61 62 -61 q61 0 61 61t-61 62q-61 0 -62 -62zM227 879q0 -61 62 -62q61 1 61 62t-61 61t-62 -61z" />
<glyph unicode="&#x108b;" horiz-adv-x="577" d="M102 532q1 187 187 187t186 -187q0 -186 -186 -186t-187 186zM227 532q0 -61 62 -61q61 0 61 61t-61 62q-61 0 -62 -62z" />
<glyph unicode="&#x108c;" horiz-adv-x="1089" d="M102 532q1 187 187 187t186 -187q0 -186 -186 -186t-187 186zM227 532q0 -61 62 -61q61 0 61 61t-61 62q-61 0 -62 -62zM614 532q1 187 187 187t186 -187q0 -186 -186 -186t-187 186zM739 532q0 -61 62 -61q61 0 61 61t-61 62q-61 0 -62 -62z" />
<glyph unicode="&#x108d;" d="M-1024 -170h922v-135h-922v135z" />
<glyph unicode="&#x108e;" horiz-adv-x="1126" d="M102 532q0 532 461 533q461 0 461 -533q0 -532 -461 -532t-461 532zM270 532q0 -397 293 -397t293 397q0 43 -4 80q-109 -80 -289 -80t-289 82q-4 -39 -4 -82zM324 799q71 -131 239 -131t240 131q-72 131 -240 131t-239 -131z" />
<glyph unicode="&#x108f;" horiz-adv-x="577" d="M102 84v102q0 186 187 187q186 0 186 -187q0 -186 -186 -186q-31 0 -56 4q29 -154 173 -211l-48 -117q-256 102 -256 408zM102 879q1 186 187 186t186 -186t-186 -187q-186 0 -187 187zM227 186q1 -61 62 -61t61 61t-61 62q-61 0 -62 -62zM227 879q0 -61 62 -62 q61 1 61 62t-61 61t-62 -61z" />
<glyph unicode="&#x1090;" horiz-adv-x="1126" d="M102 532q0 533 461 533t461 -533q0 -532 -461 -532t-461 532zM270 532q0 -397 293 -397t293 397q0 398 -293 398t-293 -398z" />
<glyph unicode="&#x1091;" horiz-adv-x="634" d="M0 885l233 180h168v-895l152 117l82 -107l-234 -180h-168v895l-151 -117z" />
<glyph unicode="&#x1092;" horiz-adv-x="1126" d="M102 614v512h168v-133q111 72 293 72q461 0 461 -451q0 -344 -416 -614q-174 -113 -174 -283h-168q0 260 250 424q340 221 340 473q0 315 -293 316q-293 0 -293 -316h-168z" />
<glyph unicode="&#x1093;" horiz-adv-x="1169" d="M102 47l523 1446l127 -47l-138 -381h95q358 0 358 -358v-707h-168v707q0 223 -190 223h-144l-336 -930z" />
<glyph unicode="&#x1094;" horiz-adv-x="1087" d="M102 47l523 1446l127 -47v-1276l151 117l82 -107l-233 -180h-168v981l-355 -981z" />
<glyph unicode="&#x1095;" horiz-adv-x="1024" d="M102 430q0 430 461 430h191v574h168v-574h102v-135h-102v-193q0 -532 -410 -532t-410 430zM270 430q0 -295 242 -295t242 397v193h-191q-293 0 -293 -295z" />
<glyph unicode="&#x1096;" horiz-adv-x="1024" d="M102 635q0 430 410 430t410 -533v-192h102v-135h-102v-574h-168v574h-191q-461 0 -461 430zM270 635q0 -295 293 -295h191v192q0 397 -242 398q-242 0 -242 -295z" />
<glyph unicode="&#x1097;" horiz-adv-x="962" d="M102 0l496 930h-496v135h758l-495 -930h495v-135h-758z" />
<glyph unicode="&#x1098;" horiz-adv-x="1126" d="M102 532q0 342 191 465q-190 123 -191 465h168q0 -397 293 -397t293 397h168q0 -342 -190 -465q190 -123 190 -465q0 -532 -461 -532t-461 532zM270 532q0 -397 293 -397t293 397q0 398 -293 398t-293 -398z" />
<glyph unicode="&#x1099;" horiz-adv-x="1126" d="M102 0q0 342 191 465q-190 123 -191 465q0 532 461 532t461 -532q0 -342 -190 -465q190 -123 190 -465h-168q0 397 -293 397t-293 -397h-168zM270 930q0 -397 293 -398q293 1 293 398t-293 397t-293 -397z" />
<glyph unicode="&#x109a;" horiz-adv-x="577" d="M102 879q1 186 187 186t186 -186t-186 -187q-186 0 -187 187zM227 879q0 -61 62 -62q61 1 61 62t-61 61t-62 -61z" />
<glyph unicode="&#x109b;" horiz-adv-x="577" d="M102 879q0 186 187 186q186 0 186 -186v-103q0 -305 -256 -407l-47 116q143 57 172 211q-25 -4 -55 -4q-186 0 -187 187zM227 879q0 -61 62 -62q61 1 61 62t-61 61t-62 -61z" />
<glyph unicode="&#x109c;" horiz-adv-x="901" d="M102 186q0 190 187 191h102q305 0 408 -260l-117 -47q-57 143 -211 172q4 -25 4 -56q0 -186 -186 -186t-187 186zM102 874q0 190 187 191h102q305 0 408 -260l-117 -47q-57 143 -211 172q4 -25 4 -56q0 -186 -186 -186t-187 186zM227 186q0 -61 62 -61q61 0 61 61 q0 62 -61 62t-62 -62zM227 874q0 -61 62 -61q61 0 61 61q0 62 -61 62t-62 -62z" />
<glyph unicode="&#x109d;" d="M-922 1229q0 297 410 297t410 -359v-348h-168v348q0 223 -258 224q-258 0 -258 -162h-136z" />
<glyph unicode="&#x109e;" horiz-adv-x="372" d="M-88 930v135h358l2 -1489h191v-135h-359l-2 1489h-190zM2 1374q0 187 186 187t187 -187q0 -186 -187 -186q-186 0 -186 186zM127 1374q0 -61 61 -61q62 0 62 61t-62 62q-61 0 -61 -62z" />
<glyph unicode="&#x109f;" horiz-adv-x="1464" d="M102 532q0 532 461 533q461 0 461 -533v-851q0 -104 86 -105q84 0 84 105v933q0 330 -295 471q-297 143 -297 459q0 461 461 461q313 0 401 -227l-108 -62q-70 154 -293 154q-326 0 -326 -326q0 -231 219 -336q406 -195 406 -594v-933q0 -240 -252 -240q-254 0 -254 240 v851q0 397 -293 398q-293 0 -293 -398q0 -336 185 -401l-56 -131q-297 86 -297 532z" />
<glyph unicode="&#x1d43;" horiz-adv-x="706" d="M76 723q0 109 97 165t310 77q-2 66 -28.5 108.5t-98.5 42.5q-53 0 -109.5 -21.5t-96.5 -47.5l-48 86q51 33 122 60.5t151 27.5q123 0 179 -72t56 -203v-401h-102l-14 76h-9q-41 -37 -92 -65t-114 -28q-92 0 -147.5 53.5t-55.5 141.5zM201 733q0 -53 30.5 -77.5 t83.5 -24.5q80 0 168 82v174q-158 -18 -220 -57t-62 -97z" />
<glyph unicode="&#x1d47;" horiz-adv-x="765" d="M106 545v960h127v-258l-6 -119q47 39 97.5 66t107.5 27q129 0 197.5 -90.5t68.5 -243.5q0 -86 -23.5 -152.5t-63.5 -113t-91 -70t-108 -23.5q-47 0 -96.5 21.5t-90.5 62.5h-8l-12 -67h-99zM233 698q41 -35 83 -50t77 -15q74 0 124 65.5t50 188.5q0 106 -40 166.5 t-126 60.5q-82 0 -168 -86v-330z" />
<glyph unicode="&#x1d48;" horiz-adv-x="765" d="M68 887q0 76 23.5 138t63.5 105.5t92 67t107 23.5q53 0 98.5 -19.5t86.5 -54.5l-7 113v245h127v-960h-102l-14 71h-6q-41 -35 -86.5 -61.5t-102.5 -26.5q-131 0 -205.5 93.5t-74.5 265.5zM199 887q0 -123 43 -188.5t135 -65.5q41 0 78 22.5t77 63.5v332q-41 35 -80.5 50 t-76.5 15q-72 0 -124 -63.5t-52 -165.5z" />
<glyph unicode="&#x1d49;" horiz-adv-x="688" d="M57 874q0 80 24.5 144.5t66.5 108.5t98.5 69t118.5 25q76 0 128 -29t83.5 -74t45 -98t13.5 -102q0 -23 -2 -36.5t-6 -35.5h-445q6 -102 63.5 -158.5t149.5 -56.5q47 0 90 14t78 37l49 -80q-47 -31 -105 -52.5t-126 -21.5t-127 22.5t-102 68t-69 109t-26 146.5zM180 930 h342q0 33 -8 67.5t-26.5 61t-48 44t-74.5 17.5q-74 0 -123 -50t-62 -140z" />
<glyph unicode="&#x1d4d;" horiz-adv-x="702" d="M61 422q0 86 95 143v8q-27 16 -43.5 43t-16.5 66t22.5 69.5t51.5 49.5v8q-35 27 -61.5 72t-26.5 104q0 55 20.5 99t56.5 74t82 46.5t99 16.5q57 0 104 -19h226v-98h-127q20 -20 33.5 -54t13.5 -69q0 -53 -19.5 -96t-53.5 -73t-80 -45t-97 -15q-23 0 -48.5 4t-49.5 16 q-16 -14 -27.5 -30.5t-11.5 -41.5q0 -31 24.5 -47t89.5 -16h127q121 0 178.5 -38t57.5 -124q0 -47 -23.5 -89t-68.5 -72.5t-108.5 -49t-143.5 -18.5q-123 0 -199 45t-76 131zM170 440q0 -51 49 -78.5t137 -27.5q90 0 145.5 38t55.5 85q0 41 -34 57t-95 16h-109 q-16 0 -39.5 1t-46.5 8q-63 -46 -63 -99zM203 985q0 -68 39 -107.5t98 -39.5q55 0 95 40t40 107q0 68 -40 105.5t-95 37.5q-59 0 -98 -36.5t-39 -106.5z" />
<glyph unicode="&#x1d4f;" horiz-adv-x="690" d="M106 545v960h127v-631h9l268 330h141l-229 -270l258 -389h-141l-191 303l-115 -135v-168h-127z" />
<glyph unicode="&#x1d50;" horiz-adv-x="1144" d="M106 545v659h103l10 -94h8q41 47 90.5 79t116.5 32q137 0 184 -123q47 49 101.5 86t120.5 37q111 0 159 -71t48 -187v-418h-127v399q0 78 -25 123t-96 45q-37 0 -75 -22.5t-85 -73.5v-471h-127v399q0 78 -24.5 123t-96.5 45q-35 0 -72.5 -22.5t-85.5 -73.5v-471h-127z " />
<glyph unicode="&#x1d52;" horiz-adv-x="747" d="M61 874q0 82 25 146.5t68 109t99 68t120 23.5q63 0 119.5 -23.5t99.5 -68t67.5 -109t24.5 -146.5t-24.5 -146t-67.5 -108.5t-99.5 -68t-119.5 -23.5t-119.5 23.5t-99.5 68t-68 109t-25 145.5zM190 874q0 -109 48.5 -175t134.5 -66t133 66.5t47 174.5q0 111 -47 176.5 t-133 65.5t-134.5 -65.5t-48.5 -176.5z" />
<glyph unicode="&#x1d56;" horiz-adv-x="765" d="M106 264v940h101l14 -76h6q41 35 93.5 64t111.5 29q129 0 197.5 -90.5t68.5 -243.5q0 -86 -23.5 -152.5t-63.5 -113t-91 -70t-108 -23.5q-45 0 -95.5 20.5t-91.5 55.5l8 -127v-213h-127zM233 698q41 -35 83 -50t77 -15q74 0 124 65.5t50 188.5q0 106 -40 166.5t-126 60.5 q-82 0 -168 -86v-330z" />
<glyph unicode="&#x1d57;" horiz-adv-x="475" d="M33 1102v96l102 6l17 187h106v-187h180v-102h-180v-342q0 -127 100 -127q41 0 76 14l27 -94q-29 -10 -64 -17.5t-69 -7.5q-109 0 -153 64.5t-44 167.5v342h-98z" />
<glyph unicode="&#x1d58;" horiz-adv-x="757" d="M102 786v418h127v-399q0 -78 23.5 -122t101.5 -44q80 0 172 94v471h127v-659h-100l-14 92h-7q-41 -43 -97 -76t-122 -33q-115 0 -163 72t-48 186z" />
<glyph unicode="&#x1d5b;" horiz-adv-x="657" d="M16 1204h127l119 -360l64 -197h8l63 197l119 360h125l-238 -659h-149z" />
<glyph unicode="&#x1d9c;" horiz-adv-x="626" d="M61 874q0 82 26 146.5t70 109t102 68t122 23.5q72 0 122 -22.5t81 -49.5l-62 -84q-31 27 -59.5 39t-73.5 12q-86 0 -142.5 -66.5t-56.5 -175.5q0 -106 55.5 -173.5t143.5 -67.5q53 0 88 17.5t64 39.5l53 -84q-35 -29 -87 -53.5t-130 -24.5q-137 0 -226.5 90.5 t-89.5 255.5z" />
<glyph unicode="&#x1da0;" horiz-adv-x="411" d="M39 1104v94l92 6v86q0 102 49 170t156 68q68 0 115 -23l-27 -94q-14 6 -32.5 10t-43.5 4q-45 0 -67.5 -33.5t-22.5 -93.5v-94h139v-100h-139v-559h-127v559h-92z" />
<glyph unicode="&#x1dbb;" horiz-adv-x="593" d="M43 545v69l344 488h-303v102h463v-71l-342 -484h352v-104h-514z" />
<glyph unicode="&#x1e06;" horiz-adv-x="1204" d="M184 0v1343h400q102 0 187 -18t145.5 -57t94 -101.5t33.5 -150.5q0 -100 -57 -181t-176 -112v-8q147 -23 229 -103t82 -219q0 -98 -36.5 -172t-104.5 -123t-162 -73.5t-207 -24.5h-428zM354 135h234q174 0 270 64.5t96 201.5q0 125 -94 183.5t-272 58.5h-234v-508z M354 770h199q174 0 249 59.5t75 171.5q0 111 -79 159t-237 48h-207v-438zM360 -231h506v-119h-506v119z" />
<glyph unicode="&#x1e07;" horiz-adv-x="1136" d="M168 0v1458h168v-397l-4 -180q68 59 147.5 99t163.5 40q96 0 170 -36t124 -102.5t75.5 -159.5t25.5 -208q0 -127 -34.5 -227.5t-94 -170t-137.5 -105.5t-164 -36q-70 0 -144.5 32t-139.5 91h-7l-14 -98h-135zM326 -231h505v-119h-505v119zM336 221q66 -57 130 -80.5 t114 -23.5q61 0 113 27.5t90 77.5t59.5 124t21.5 166q0 82 -14 149.5t-46 115.5t-82 75t-120 27q-121 0 -266 -136v-522z" />
<glyph unicode="&#x1e0c;" horiz-adv-x="1259" d="M184 0v1343h336q311 0 473 -172t162 -493q0 -160 -41 -286t-121 -213t-196.5 -133t-268.5 -46h-344zM354 139h154q236 0 353.5 141.5t117.5 397.5t-118 391t-353 135h-154v-1065zM512 -311q0 47 31.5 77.5t79.5 30.5q47 0 78.5 -30.5t31.5 -77.5q0 -49 -31.5 -80 t-78.5 -31t-79 31t-32 80z" />
<glyph unicode="&#x1e0d;" horiz-adv-x="1136" d="M96 496q0 121 36 218t95.5 164.5t137 104.5t163.5 37t149.5 -31t129.5 -84l-8 170v383h170v-1458h-140l-14 117h-6q-59 -57 -136 -99.5t-165 -42.5q-188 0 -300 135.5t-112 385.5zM270 498q0 -180 72 -280.5t203 -100.5q70 0 131 33.5t123 103.5v520q-63 57 -122 81 t-120 24q-59 0 -111.5 -28t-91.5 -78t-61.5 -119.5t-22.5 -155.5zM508 -311q0 47 31.5 77.5t78.5 30.5t79 -30.5t32 -77.5q0 -49 -32 -80t-79 -31t-78.5 31t-31.5 80z" />
<glyph unicode="&#x1e0e;" horiz-adv-x="1259" d="M184 0v1343h336q311 0 473 -172t162 -493q0 -160 -41 -286t-121 -213t-196.5 -133t-268.5 -46h-344zM354 139h154q236 0 353.5 141.5t117.5 397.5t-118 391t-353 135h-154v-1065zM369 -231h505v-119h-505v119z" />
<glyph unicode="&#x1e0f;" horiz-adv-x="1136" d="M96 496q0 121 36 218t95.5 164.5t137 104.5t163.5 37t149.5 -31t129.5 -84l-8 170v383h170v-1458h-140l-14 117h-6q-59 -57 -136 -99.5t-165 -42.5q-188 0 -300 135.5t-112 385.5zM270 498q0 -180 72 -280.5t203 -100.5q70 0 131 33.5t123 103.5v520q-63 57 -122 81 t-120 24q-59 0 -111.5 -28t-91.5 -78t-61.5 -119.5t-22.5 -155.5zM362 -231h506v-119h-506v119z" />
<glyph unicode="&#x1e16;" horiz-adv-x="1079" d="M184 0v1343h774v-143h-604v-422h510v-145h-510v-488h625v-145h-795zM324 1493v117h507v-117h-507zM473 1718l182 228h187l-230 -228h-139z" />
<glyph unicode="&#x1e17;" horiz-adv-x="1015" d="M94 496q0 123 38 220t100.5 164.5t142.5 103.5t166 36q94 0 168.5 -33t125 -94.5t77 -147.5t26.5 -192q0 -55 -6 -92h-672q10 -162 99.5 -256t232.5 -94q72 0 132 21.5t116 55.5l59 -110q-66 -41 -145.5 -72t-182.5 -31q-100 0 -187 36t-151.5 102.5t-101.5 163 t-37 219.5zM258 571h533q0 154 -64.5 235t-181.5 81q-53 0 -101.5 -21.5t-87.5 -61.5t-64.5 -98.5t-33.5 -134.5zM291 1231v117h504v-117h-504zM434 1475l168 211h162l-211 -211h-119z" />
<glyph unicode="&#x1e20;" horiz-adv-x="1263" d="M106 672q0 162 46.5 291t129.5 219t195.5 138t247.5 48q139 0 232.5 -52t152.5 -114l-96 -108q-51 53 -118 89t-169 36t-184 -38t-139.5 -109t-89 -171t-31.5 -225q0 -127 29.5 -228.5t86 -173t139.5 -110.5t191 -39q72 0 136.5 21.5t105.5 58.5v350h-285v141h440v-565 q-66 -68 -173 -112t-242 -44q-133 0 -244 47.5t-190.5 136.5t-125 219t-45.5 294zM469 1493v117h508v-117h-508z" />
<glyph unicode="&#x1e21;" horiz-adv-x="1032" d="M92 -190q0 63 39 120.5t107 104.5v8q-37 23 -62.5 62.5t-25.5 99.5q0 63 34.5 110t73.5 74v8q-49 41 -89 109.5t-40 159.5q0 82 29.5 147.5t81 111.5t120 70.5t144.5 24.5q41 0 76.5 -7t64.5 -18h346v-129h-205q35 -35 58.5 -88t23.5 -116q0 -80 -28.5 -144.5 t-77.5 -108.5t-115.5 -69t-142.5 -25q-37 0 -76 9.5t-74 25.5q-27 -23 -45 -50.5t-18 -68.5q0 -47 37 -77.5t139 -30.5h192q174 0 261.5 -56.5t87.5 -181.5q0 -70 -35 -132t-100.5 -109t-158.5 -75t-210 -28q-92 0 -168 17.5t-130 52.5t-84 84t-30 115zM238 1231v117h503 v-117h-503zM240 -168q0 -80 76.5 -127t211.5 -47q72 0 130.5 17.5t99.5 45t63.5 64.5t22.5 76q0 70 -51.5 96.5t-149.5 26.5h-172q-29 0 -62.5 3t-66.5 13q-53 -39 -77.5 -82t-24.5 -86zM293 666q0 -55 16.5 -99.5t46 -75t67.5 -47t81 -16.5t81 16.5t67.5 47t46 74.5 t16.5 100q0 111 -61.5 171t-149.5 60t-149.5 -60.5t-61.5 -170.5z" />
<glyph unicode="&#x1e24;" horiz-adv-x="1335" d="M184 0v1343h170v-563h625v563h172v-1343h-172v633h-625v-633h-170zM557 -311q0 47 32 77.5t79 30.5t78.5 -30.5t31.5 -77.5q0 -49 -31.5 -80t-78.5 -31t-79 31t-32 80z" />
<glyph unicode="&#x1e25;" horiz-adv-x="1114" d="M168 0v1458h168v-397l-6 -205q72 68 149.5 116t182.5 48q158 0 230.5 -98.5t72.5 -290.5v-631h-168v608q0 141 -45 203.5t-144 62.5q-78 0 -137 -38.5t-135 -114.5v-721h-168zM475 -311q0 47 32 77.5t79 30.5t78.5 -30.5t31.5 -77.5q0 -49 -31.5 -80t-78.5 -31t-79 31 t-32 80z" />
<glyph unicode="&#x1e2a;" horiz-adv-x="1335" d="M184 0v1343h170v-563h625v563h172v-1343h-172v633h-625v-633h-170zM410 -162h104q8 -59 45 -107t109 -48t108.5 48t44.5 107h105q-4 -45 -19.5 -91t-46.5 -84t-78.5 -61.5t-113.5 -23.5t-114 23.5t-79 61.5t-47 84t-18 91z" />
<glyph unicode="&#x1e2b;" horiz-adv-x="1114" d="M168 0v1458h168v-397l-6 -205q72 68 149.5 116t182.5 48q158 0 230.5 -98.5t72.5 -290.5v-631h-168v608q0 141 -45 203.5t-144 62.5q-78 0 -137 -38.5t-135 -114.5v-721h-168zM326 -162h104q8 -59 45 -107t109 -48t108.5 48t44.5 107h105q-4 -45 -19.5 -91t-46.5 -84 t-78.5 -61.5t-113.5 -23.5t-114 23.5t-79 61.5t-47 84t-18 91z" />
<glyph unicode="&#x1e34;" horiz-adv-x="1185" d="M184 0v1343h170v-673h6l560 673h192l-420 -512l486 -831h-191l-401 698l-232 -272v-426h-170zM412 -231h506v-119h-506v119z" />
<glyph unicode="&#x1e35;" horiz-adv-x="1013" d="M168 0v1458h166v-987h6l424 524h186l-334 -399l379 -596h-184l-291 479l-186 -217v-262h-166zM301 -231h506v-119h-506v119z" />
<glyph unicode="&#x1e36;" horiz-adv-x="995" d="M184 0v1343h170v-1198h588v-145h-758zM479 -311q0 47 32 77.5t79 30.5t78.5 -30.5t31.5 -77.5q0 -49 -31.5 -80t-78.5 -31t-79 31t-32 80z" />
<glyph unicode="&#x1e37;" horiz-adv-x="522" d="M168 201v1257h168v-1270q0 -41 14.5 -57t32.5 -16h15.5t21.5 4l22 -127q-16 -8 -38.5 -12.5t-57.5 -4.5q-96 0 -137 57.5t-41 168.5zM238 -311q0 47 31.5 77.5t78.5 30.5t79 -30.5t32 -77.5q0 -49 -32 -80t-79 -31t-78.5 31t-31.5 80z" />
<glyph unicode="&#x1e38;" horiz-adv-x="995" d="M20 1493v117h508v-117h-508zM184 0v1343h170v-1198h588v-145h-758zM479 -311q0 47 32 77.5t79 30.5t78.5 -30.5t31.5 -77.5q0 -49 -31.5 -80t-78.5 -31t-79 31t-32 80z" />
<glyph unicode="&#x1e39;" horiz-adv-x="522" d="M-2 1683v117h504v-117h-504zM168 201v1257h168v-1270q0 -41 14.5 -57t32.5 -16h15.5t21.5 4l22 -127q-16 -8 -38.5 -12.5t-57.5 -4.5q-96 0 -137 57.5t-41 168.5zM238 -311q0 47 31.5 77.5t78.5 30.5t79 -30.5t32 -77.5q0 -49 -32 -80t-79 -31t-78.5 31t-31.5 80z" />
<glyph unicode="&#x1e3a;" horiz-adv-x="995" d="M184 0v1343h170v-1198h588v-145h-758zM336 -231h506v-119h-506v119z" />
<glyph unicode="&#x1e3b;" horiz-adv-x="522" d="M94 -231h506v-119h-506v119zM168 201v1257h168v-1270q0 -41 14.5 -57t32.5 -16h15.5t21.5 4l22 -127q-16 -8 -38.5 -12.5t-57.5 -4.5q-96 0 -137 57.5t-41 168.5z" />
<glyph unicode="&#x1e42;" horiz-adv-x="1488" d="M184 0v1343h201l260 -720l98 -275h9l94 275l258 720h201v-1343h-162v739q0 90 7 199t15 199h-8l-108 -299l-258 -703h-97l-260 703l-106 299h-9q6 -90 14.5 -199t8.5 -199v-739h-158zM635 -311q0 47 31.5 77.5t78.5 30.5t79 -30.5t32 -77.5q0 -49 -32 -80t-79 -31 t-78.5 31t-31.5 80z" />
<glyph unicode="&#x1e43;" horiz-adv-x="1697" d="M168 0v995h139l15 -143h6q66 72 142.5 120t166.5 48q115 0 179.5 -50t94.5 -141q78 86 157 138.5t171 52.5q154 0 228.5 -98.5t74.5 -290.5v-631h-168v608q0 141 -45 203.5t-139 62.5q-113 0 -250 -153v-721h-168v608q0 141 -45 203.5t-141 62.5q-113 0 -250 -153v-721 h-168zM762 -311q0 47 31.5 77.5t78.5 30.5t79 -30.5t32 -77.5q0 -49 -32 -80t-79 -31t-78.5 31t-31.5 80z" />
<glyph unicode="&#x1e44;" horiz-adv-x="1325" d="M184 0v1343h176l486 -843l145 -279h8q-6 102 -13 212t-7 216v694h162v-1343h-176l-488 846l-145 276h-8q8 -102 15 -207.5t7 -212.5v-702h-162zM551 1573q0 47 33.5 77.5t83.5 30.5q49 0 82.5 -30.5t33.5 -77.5q0 -49 -33.5 -80t-82.5 -31t-83 31t-34 80z" />
<glyph unicode="&#x1e45;" horiz-adv-x="1120" d="M168 0v995h139l15 -143h6q72 72 150.5 120t183.5 48q158 0 230.5 -98.5t72.5 -290.5v-631h-168v608q0 141 -45 203.5t-144 62.5q-78 0 -137 -38.5t-135 -114.5v-721h-168zM487 1311q0 47 32 78.5t79 31.5t79 -31.5t32 -78.5q0 -49 -32 -80t-79 -31t-79 31t-32 80z" />
<glyph unicode="&#x1e46;" horiz-adv-x="1325" d="M184 0v1343h176l486 -843l145 -279h8q-6 102 -13 212t-7 216v694h162v-1343h-176l-488 846l-145 276h-8q8 -102 15 -207.5t7 -212.5v-702h-162zM561 -311q0 47 32 77.5t79 30.5t78.5 -30.5t31.5 -77.5q0 -49 -31.5 -80t-78.5 -31t-79 31t-32 80z" />
<glyph unicode="&#x1e47;" horiz-adv-x="1120" d="M168 0v995h139l15 -143h6q72 72 150.5 120t183.5 48q158 0 230.5 -98.5t72.5 -290.5v-631h-168v608q0 141 -45 203.5t-144 62.5q-78 0 -137 -38.5t-135 -114.5v-721h-168zM461 -311q0 47 31.5 77.5t78.5 30.5t79 -30.5t32 -77.5q0 -49 -32 -80t-79 -31t-78.5 31t-31.5 80 z" />
<glyph unicode="&#x1e48;" horiz-adv-x="1325" d="M184 0v1343h176l486 -843l145 -279h8q-6 102 -13 212t-7 216v694h162v-1343h-176l-488 846l-145 276h-8q8 -102 15 -207.5t7 -212.5v-702h-162zM418 -231h506v-119h-506v119z" />
<glyph unicode="&#x1e49;" horiz-adv-x="1120" d="M168 0v995h139l15 -143h6q72 72 150.5 120t183.5 48q158 0 230.5 -98.5t72.5 -290.5v-631h-168v608q0 141 -45 203.5t-144 62.5q-78 0 -137 -38.5t-135 -114.5v-721h-168zM317 -231h506v-119h-506v119z" />
<glyph unicode="&#x1e52;" horiz-adv-x="1359" d="M106 678q0 162 42 290t118 217t181.5 136t232.5 47t232.5 -48t182 -137t118.5 -217t42 -288q0 -162 -42 -292t-118.5 -221t-182 -140.5t-232.5 -49.5t-232.5 49.5t-181.5 140.5t-118 221t-42 292zM283 678q0 -127 28.5 -228.5t80.5 -174t125 -111.5t163 -39t162.5 39 t125 111.5t81 174t28.5 228.5q0 125 -28.5 225.5t-81 170t-125 107.5t-162.5 38t-163 -38t-125 -107.5t-80.5 -170t-28.5 -225.5zM420 1493v117h508v-117h-508zM569 1718l183 228h186l-229 -228h-140z" />
<glyph unicode="&#x1e53;" horiz-adv-x="1110" d="M94 496q0 125 38 222t101.5 164.5t146.5 102.5t175 35t175 -35t146.5 -102.5t101.5 -164.5t38 -222q0 -123 -38 -220.5t-101.5 -164t-146.5 -101.5t-175 -35t-175 35t-146.5 101.5t-101.5 164t-38 220.5zM268 496q0 -86 20.5 -156t58.5 -120t91.5 -77.5t116.5 -27.5 t116.5 27.5t91.5 77.5t58.5 120t20.5 156t-20.5 156.5t-58.5 121.5t-91.5 79t-116.5 28t-116.5 -28t-91.5 -79t-58.5 -121.5t-20.5 -156.5zM303 1231v117h504v-117h-504zM446 1475l168 211h162l-211 -211h-119z" />
<glyph unicode="&#x1e5a;" horiz-adv-x="1189" d="M184 0v1343h420q102 0 189.5 -19t150 -64.5t97 -117t34.5 -175.5q0 -158 -82 -252t-219 -129l340 -586h-192l-324 567h-244v-567h-170zM354 707h226q158 0 241.5 64.5t83.5 195.5q0 133 -84 186t-241 53h-226v-499zM522 -311q0 47 32 77.5t79 30.5t78.5 -30.5t31.5 -77.5 q0 -49 -31.5 -80t-78.5 -31t-79 31t-32 80z" />
<glyph unicode="&#x1e5b;" horiz-adv-x="710" d="M137 -311q0 47 32 77.5t79 30.5t78.5 -30.5t31.5 -77.5q0 -49 -31.5 -80t-78.5 -31t-79 31t-32 80zM168 0v995h139l15 -180h6q51 94 123.5 149.5t158.5 55.5q59 0 107 -21l-33 -147q-25 8 -45.5 12t-50.5 4q-63 0 -132 -51t-120 -178v-639h-168z" />
<glyph unicode="&#x1e5c;" horiz-adv-x="1189" d="M184 0v1343h420q102 0 189.5 -19t150 -64.5t97 -117t34.5 -175.5q0 -158 -82 -252t-219 -129l340 -586h-192l-324 567h-244v-567h-170zM348 1493v117h508v-117h-508zM354 707h226q158 0 241.5 64.5t83.5 195.5q0 133 -84 186t-241 53h-226v-499zM522 -311q0 47 32 77.5 t79 30.5t78.5 -30.5t31.5 -77.5q0 -49 -31.5 -80t-78.5 -31t-79 31t-32 80z" />
<glyph unicode="&#x1e5d;" horiz-adv-x="710" d="M137 -311q0 47 32 77.5t79 30.5t78.5 -30.5t31.5 -77.5q0 -49 -31.5 -80t-78.5 -31t-79 31t-32 80zM168 0v995h139l15 -180h6q51 94 123.5 149.5t158.5 55.5q59 0 107 -21l-33 -147q-25 8 -45.5 12t-50.5 4q-63 0 -132 -51t-120 -178v-639h-168zM193 1231v117h503v-117 h-503z" />
<glyph unicode="&#x1e5e;" horiz-adv-x="1189" d="M184 0v1343h420q102 0 189.5 -19t150 -64.5t97 -117t34.5 -175.5q0 -158 -82 -252t-219 -129l340 -586h-192l-324 567h-244v-567h-170zM354 707h226q158 0 241.5 64.5t83.5 195.5q0 133 -84 186t-241 53h-226v-499zM379 -231h506v-119h-506v119z" />
<glyph unicode="&#x1e5f;" horiz-adv-x="710" d="M-6 -231h506v-119h-506v119zM168 0v995h139l15 -180h6q51 94 123.5 149.5t158.5 55.5q59 0 107 -21l-33 -147q-25 8 -45.5 12t-50.5 4q-63 0 -132 -51t-120 -178v-639h-168z" />
<glyph unicode="&#x1e60;" horiz-adv-x="1093" d="M86 174l102 119q72 -76 169.5 -122t201.5 -46q133 0 207 60.5t74 158.5q0 51 -17.5 87t-47.5 61.5t-70.5 46t-88.5 43.5l-192 84q-47 20 -96 48.5t-88 69.5t-63.5 97.5t-24.5 130.5q0 76 31.5 141.5t88 113.5t133 74.5t168.5 26.5q121 0 223.5 -46t174.5 -120l-92 -110 q-61 59 -136 93t-170 34q-113 0 -181 -52.5t-68 -144.5q0 -49 19 -83t52 -59.5t72 -45t80 -35.5l190 -82q57 -25 108.5 -56.5t88.5 -73.5t58.5 -98.5t21.5 -130.5q0 -80 -32 -149.5t-91.5 -121.5t-143 -82t-190.5 -30q-141 0 -262 53.5t-209 145.5zM455 1573q0 47 33.5 77.5 t82.5 30.5t83 -30.5t34 -77.5q0 -49 -34 -80t-83 -31t-82.5 31t-33.5 80z" />
<glyph unicode="&#x1e61;" horiz-adv-x="858" d="M57 113l84 112q66 -53 134.5 -86t158.5 -33q98 0 147.5 45.5t49.5 110.5q0 39 -20.5 67.5t-52.5 50t-73 38t-82 33.5q-53 18 -106 41.5t-95 57.5t-69 79t-27 108q0 59 24 111.5t68 90.5t107.5 59.5t143.5 21.5q94 0 172.5 -33t136.5 -80l-80 -106q-51 39 -106.5 63.5 t-120.5 24.5q-94 0 -138.5 -43t-44.5 -101q0 -35 18.5 -60.5t49.5 -44.5t70.5 -34.5t82.5 -32.5q53 -20 107.5 -42.5t97.5 -56.5t71 -83t28 -119q0 -61 -24 -114.5t-70 -94t-114.5 -64.5t-156.5 -24q-106 0 -202.5 39t-168.5 99zM338 1311q0 47 31.5 78.5t79.5 31.5 q47 0 78.5 -31.5t31.5 -78.5q0 -49 -31.5 -80t-78.5 -31t-79 31t-32 80z" />
<glyph unicode="&#x1e62;" horiz-adv-x="1093" d="M86 174l102 119q72 -76 169.5 -122t201.5 -46q133 0 207 60.5t74 158.5q0 51 -17.5 87t-47.5 61.5t-70.5 46t-88.5 43.5l-192 84q-47 20 -96 48.5t-88 69.5t-63.5 97.5t-24.5 130.5q0 76 31.5 141.5t88 113.5t133 74.5t168.5 26.5q121 0 223.5 -46t174.5 -120l-92 -110 q-61 59 -136 93t-170 34q-113 0 -181 -52.5t-68 -144.5q0 -49 19 -83t52 -59.5t72 -45t80 -35.5l190 -82q57 -25 108.5 -56.5t88.5 -73.5t58.5 -98.5t21.5 -130.5q0 -80 -32 -149.5t-91.5 -121.5t-143 -82t-190.5 -30q-141 0 -262 53.5t-209 145.5zM449 -311q0 47 31.5 77.5 t78.5 30.5t79 -30.5t32 -77.5q0 -49 -32 -80t-79 -31t-78.5 31t-31.5 80z" />
<glyph unicode="&#x1e63;" horiz-adv-x="858" d="M57 113l84 112q66 -53 134.5 -86t158.5 -33q98 0 147.5 45.5t49.5 110.5q0 39 -20.5 67.5t-52.5 50t-73 38t-82 33.5q-53 18 -106 41.5t-95 57.5t-69 79t-27 108q0 59 24 111.5t68 90.5t107.5 59.5t143.5 21.5q94 0 172.5 -33t136.5 -80l-80 -106q-51 39 -106.5 63.5 t-120.5 24.5q-94 0 -138.5 -43t-44.5 -101q0 -35 18.5 -60.5t49.5 -44.5t70.5 -34.5t82.5 -32.5q53 -20 107.5 -42.5t97.5 -56.5t71 -83t28 -119q0 -61 -24 -114.5t-70 -94t-114.5 -64.5t-156.5 -24q-106 0 -202.5 39t-168.5 99zM346 -311q0 47 32 77.5t79 30.5t78.5 -30.5 t31.5 -77.5q0 -49 -31.5 -80t-78.5 -31t-79 31t-32 80z" />
<glyph unicode="&#x1e6c;" horiz-adv-x="1097" d="M57 1200v143h983v-143h-405v-1200h-172v1200h-406zM440 -311q0 47 32 77.5t79 30.5t79 -30.5t32 -77.5q0 -49 -32 -80t-79 -31t-79 31t-32 80z" />
<glyph unicode="&#x1e6d;" horiz-adv-x="692" d="M49 858v127l156 10l20 279h142v-279h268v-137h-268v-553q0 -92 33.5 -142t119.5 -50q27 0 57.5 8t55.5 18l33 -127q-41 -14 -89.5 -25.5t-95.5 -11.5q-80 0 -134 25t-88 68t-48 104t-14 135v551h-148zM328 -311q0 47 31.5 77.5t78.5 30.5t79 -30.5t32 -77.5 q0 -49 -32 -80t-79 -31t-78.5 31t-31.5 80z" />
<glyph unicode="&#x1e6e;" horiz-adv-x="1097" d="M57 1200v143h983v-143h-405v-1200h-172v1200h-406zM297 -231h506v-119h-506v119z" />
<glyph unicode="&#x1e6f;" horiz-adv-x="692" d="M49 858v127l156 10l20 279h142v-279h268v-137h-268v-553q0 -92 33.5 -142t119.5 -50q27 0 57.5 8t55.5 18l33 -127q-41 -14 -89.5 -25.5t-95.5 -11.5q-80 0 -134 25t-88 68t-48 104t-14 135v551h-148zM182 -231h506v-119h-506v119z" />
<glyph unicode="&#x1e80;" horiz-adv-x="1609" d="M47 1343h176l142 -731q18 -111 38.5 -217t38.5 -217h9q23 111 47 218.5t47 215.5l186 731h156l186 -731q25 -106 49.5 -214.5t48.5 -219.5h9q18 111 36.5 218.5t38.5 215.5l142 731h164l-279 -1343h-205l-203 809q-18 78 -33.5 152.5t-31.5 152.5h-8 q-16 -78 -33.5 -152.5t-34.5 -152.5l-198 -809h-203zM537 1675h192l180 -229h-141z" />
<glyph unicode="&#x1e81;" horiz-adv-x="1470" d="M49 995h172l148 -575q16 -72 30.5 -139.5t28.5 -137.5h8q16 70 32.5 138.5t35.5 138.5l153 575h164l156 -575q18 -72 35.5 -139.5t34.5 -137.5h8q16 70 30.5 137.5t30.5 139.5l146 575h159l-266 -995h-205l-143 535q-18 72 -33.5 141t-34.5 145h-8q-16 -76 -32.5 -146.5 t-36.5 -142.5l-140 -532h-196zM510 1462h176l184 -288h-129z" />
<glyph unicode="&#x1e82;" horiz-adv-x="1609" d="M47 1343h176l142 -731q18 -111 38.5 -217t38.5 -217h9q23 111 47 218.5t47 215.5l186 731h156l186 -731q25 -106 49.5 -214.5t48.5 -219.5h9q18 111 36.5 218.5t38.5 215.5l142 731h164l-279 -1343h-205l-203 809q-18 78 -33.5 152.5t-31.5 152.5h-8 q-16 -78 -33.5 -152.5t-34.5 -152.5l-198 -809h-203zM700 1446l181 229h192l-231 -229h-142z" />
<glyph unicode="&#x1e83;" horiz-adv-x="1470" d="M49 995h172l148 -575q16 -72 30.5 -139.5t28.5 -137.5h8q16 70 32.5 138.5t35.5 138.5l153 575h164l156 -575q18 -72 35.5 -139.5t34.5 -137.5h8q16 70 30.5 137.5t30.5 139.5l146 575h159l-266 -995h-205l-143 535q-18 72 -33.5 141t-34.5 145h-8q-16 -76 -32.5 -146.5 t-36.5 -142.5l-140 -532h-196zM604 1174l184 288h177l-232 -288h-129z" />
<glyph unicode="&#x1e84;" horiz-adv-x="1609" d="M47 1343h176l142 -731q18 -111 38.5 -217t38.5 -217h9q23 111 47 218.5t47 215.5l186 731h156l186 -731q25 -106 49.5 -214.5t48.5 -219.5h9q18 111 36.5 218.5t38.5 215.5l142 731h164l-279 -1343h-205l-203 809q-18 78 -33.5 152.5t-31.5 152.5h-8 q-16 -78 -33.5 -152.5t-34.5 -152.5l-198 -809h-203zM528 1565q0 45 28 72.5t73 27.5q43 0 71.5 -27.5t28.5 -72.5q0 -43 -28.5 -72t-71.5 -29q-45 0 -73 29t-28 72zM881 1565q0 45 28.5 72.5t71.5 27.5q45 0 72.5 -27.5t27.5 -72.5q0 -43 -27.5 -72t-72.5 -29 q-43 0 -71.5 29t-28.5 72z" />
<glyph unicode="&#x1e85;" horiz-adv-x="1470" d="M49 995h172l148 -575q16 -72 30.5 -139.5t28.5 -137.5h8q16 70 32.5 138.5t35.5 138.5l153 575h164l156 -575q18 -72 35.5 -139.5t34.5 -137.5h8q16 70 30.5 137.5t30.5 139.5l146 575h159l-266 -995h-205l-143 535q-18 72 -33.5 141t-34.5 145h-8q-16 -76 -32.5 -146.5 t-36.5 -142.5l-140 -532h-196zM461 1305q0 43 27.5 71.5t72.5 28.5q43 0 72 -28.5t29 -71.5t-29 -72t-72 -29q-45 0 -72.5 29t-27.5 72zM813 1305q0 43 28.5 71.5t71.5 28.5q45 0 73 -28.5t28 -71.5t-28 -72t-73 -29q-43 0 -71.5 29t-28.5 72z" />
<glyph unicode="&#x1e8e;" horiz-adv-x="974" d="M-2 1343h182l174 -378q33 -74 64 -145.5t65 -147.5h9q35 76 69.5 147.5t65.5 145.5l172 378h178l-404 -823v-520h-172v520zM371 1573q0 47 33.5 77.5t82.5 30.5t83 -30.5t34 -77.5q0 -49 -34 -80t-83 -31t-82.5 31t-33.5 80z" />
<glyph unicode="&#x1e8f;" horiz-adv-x="956" d="M25 995h174l202 -551q23 -66 48.5 -138.5t48.5 -141.5h8q23 68 43 141.5t41 138.5l178 551h164l-375 -1077q-27 -74 -59.5 -137.5t-77.5 -109.5t-102.5 -72.5t-133.5 -26.5q-35 0 -63.5 5t-52.5 15l32 134q16 -4 37 -9.5t39 -5.5q86 0 140.5 60.5t84.5 152.5l23 74z M385 1311q0 47 32 78.5t79 31.5t78.5 -31.5t31.5 -78.5q0 -49 -31.5 -80t-78.5 -31t-79 31t-32 80z" />
<glyph unicode="&#x1e92;" horiz-adv-x="1103" d="M92 0v102l707 1098h-643v143h856v-100l-709 -1098h715v-145h-926zM465 -311q0 47 31.5 77.5t78.5 30.5t79 -30.5t32 -77.5q0 -49 -32 -80t-79 -31t-78.5 31t-31.5 80z" />
<glyph unicode="&#x1e93;" horiz-adv-x="870" d="M63 0v90l525 768h-467v137h680v-90l-525 -768h541v-137h-754zM356 -311q0 47 32 77.5t79 30.5t79 -30.5t32 -77.5q0 -49 -32 -80t-79 -31t-79 31t-32 80z" />
<glyph unicode="&#x1e97;" horiz-adv-x="692" d="M18 1583q0 43 28 71.5t73 28.5q43 0 71.5 -28.5t28.5 -71.5t-28.5 -71.5t-71.5 -28.5q-45 0 -73 28.5t-28 71.5zM49 858v127l156 10l20 279h142v-279h268v-137h-268v-553q0 -92 33.5 -142t119.5 -50q27 0 57.5 8t55.5 18l33 -127q-41 -14 -89.5 -25.5t-95.5 -11.5 q-80 0 -134 25t-88 68t-48 104t-14 135v551h-148zM371 1583q0 43 28.5 71.5t71.5 28.5q45 0 72.5 -28.5t27.5 -71.5t-27.5 -71.5t-72.5 -28.5q-43 0 -71.5 28.5t-28.5 71.5z" />
<glyph unicode="&#x1e9e;" horiz-adv-x="1366" d="M186 0v854q0 242 137.5 378t387.5 136q172 0 280.5 -86t163.5 -229l-283 -312q215 -43 310.5 -143t95.5 -248q0 -80 -27.5 -148.5t-79 -118.5t-123 -79t-159.5 -29q-119 0 -213 43t-158 113l98 111q59 -66 121 -94.5t137 -28.5q109 0 168.5 64.5t59.5 166.5 q0 47 -17.5 90t-62.5 80t-122 65.5t-193 49.5l-11 110l281 314q-35 70 -101.5 119t-170.5 49q-164 0 -255.5 -97.5t-91.5 -306.5v-823h-172z" />
<glyph unicode="&#x1ea0;" horiz-adv-x="1114" d="M6 0l455 1343h192l455 -1343h-182l-127 410h-490l-129 -410h-174zM352 547h404l-64 205q-37 113 -69.5 224t-65.5 228h-8q-31 -117 -63.5 -228.5t-69.5 -223.5zM444 -311q0 47 32 77.5t79 30.5t79 -30.5t32 -77.5q0 -49 -32 -80t-79 -31t-79 31t-32 80z" />
<glyph unicode="&#x1ea1;" horiz-adv-x="1048" d="M119 258q0 164 146.5 251t465.5 122q0 47 -9 92t-32.5 80t-62.5 56.5t-101 21.5q-88 0 -162.5 -33t-134.5 -74l-67 117q70 45 170 87t221 42q182 0 264 -111.5t82 -298.5v-610h-139l-15 119h-4q-72 -59 -154.5 -101.5t-174.5 -42.5q-127 0 -210 74t-83 209zM285 270 q0 -86 50 -122.5t124 -36.5q72 0 136 33.5t136 99.5v276q-125 -16 -211 -38.5t-138 -53.5t-74.5 -71t-22.5 -87zM408 -311q0 47 31.5 77.5t78.5 30.5t79 -30.5t32 -77.5q0 -49 -32 -80t-79 -31t-78.5 31t-31.5 80z" />
<glyph unicode="&#x1ea2;" horiz-adv-x="1114" d="M6 0l455 1343h192l455 -1343h-182l-127 410h-490l-129 -410h-174zM352 547h404l-64 205q-37 113 -69.5 224t-65.5 228h-8q-31 -117 -63.5 -228.5t-69.5 -223.5zM424 1688l18 98q135 -4 209 -46t74 -120q0 -45 -18.5 -77t-50 -55.5t-72.5 -36.5t-86 -21l-19 77 q49 14 82 35t33 60q0 80 -170 86z" />
</font>
</defs>
</svg>
