<?xml version="1.0" standalone="no"?>
<!DOCTYPE svg PUBLIC "-//W3C//DTD SVG 1.1//EN" "http://www.w3.org/Graphics/SVG/1.1/DTD/svg11.dtd" >
<svg xmlns="http://www.w3.org/2000/svg" xmlns:xlink="http://www.w3.org/1999/xlink" version="1.1">
<metadata></metadata>
<defs>
<font id="myanmar_katkuuregular" horiz-adv-x="0" >
<font-face units-per-em="2048" ascent="1638" descent="-410" />
<missing-glyph horiz-adv-x="525" />
<glyph unicode="&#xd;" horiz-adv-x="525" />
<glyph unicode=" "  horiz-adv-x="525" />
<glyph unicode="&#x09;" horiz-adv-x="525" />
<glyph unicode="&#xa0;" horiz-adv-x="525" />
<glyph unicode="!" horiz-adv-x="476" d="M98 94q0 51 40 82t100 31q57 0 97 -31t40 -82q0 -48 -40 -80t-97 -32q-60 0 -100 32t-40 80zM125 1214q-2 72 59.5 115.5t173.5 43.5l-34 -986q-3 -55 -42.5 -85t-127.5 -30z" />
<glyph unicode="&#x22;" horiz-adv-x="606" d="M96 1276v588h129v-588h-129zM377 1276v588h129v-588h-129z" />
<glyph unicode="#" horiz-adv-x="1155" d="M61 562v142h265l51 176h-246v144h285l117 410h151l-117 -410h177l117 410h151l-117 -410h209v-144h-248l-51 -176h229v-142h-270l-158 -562h-151l157 562h-176l-158 -562h-151l157 562h-223zM477 704h177l50 176h-175z" />
<glyph unicode="$" horiz-adv-x="1091" d="M35 428h141q0 -69 31 -130.5t82 -106.5t119 -72q41 -17 81 -23v615q-84 29 -159 63q-92 41 -163 103.5t-89 165.5q-10 88 25 167.5t102 140t157 95.5q62 25 127 33v105h144v-107q59 -8 113 -33q82 -39 138 -93.5t88.5 -113.5t39.5 -100h-160q-39 98 -123 149 q-48 29 -96 41v-520q12 -4 31 -8q102 -32 187 -84.5t142.5 -134.5t57.5 -214q0 -98 -41 -175.5t-109.5 -131t-158.5 -80.5q-56 -17 -109 -25v-106h-144v106q-65 8 -129 32q-96 35 -166.5 97.5t-114.5 150.5t-44 194zM228 1053q17 -72 83 -114t155 -74l23 -9v479 q-32 -6 -65 -16q-62 -23 -111 -62t-74.5 -92t-10.5 -112zM633 100q27 4 51 13q66 17 115 50.5t77.5 83.5t28.5 119q0 100 -54.5 162t-139.5 101q-37 19 -78 35v-564z" />
<glyph unicode="%" horiz-adv-x="1675" d="M121 925v260q0 37 19 70t53 57t80.5 38t97.5 14q53 0 97.5 -14t78.5 -38t53.5 -56.5t19.5 -70.5v-260q0 -40 -19.5 -73t-53.5 -56t-78.5 -38t-97.5 -15q-52 0 -98 15t-80 38t-53 55.5t-19 73.5zM247 925q0 -47 36.5 -78t87.5 -31q49 0 85 31t36 78v260q0 44 -36 75 t-85 31q-52 0 -88 -30.5t-36 -75.5v-260zM383 -41l710 1412q29 51 77 63t119 -24l-710 -1412q-55 -115 -196 -39zM1027 179v274q0 82 75 136.5t187 54.5q109 0 185 -54.5t76 -136.5v-274q0 -38 -21 -72t-56 -59t-81.5 -40.5t-102.5 -15.5q-55 0 -103 15.5t-83.5 40.5 t-55.5 59t-20 72zM1158 179q0 -46 38 -77.5t93 -31.5q52 0 89.5 31.5t37.5 77.5v274q0 49 -37.5 81t-89.5 32q-55 0 -93 -32t-38 -81v-274z" />
<glyph unicode="&#x26;" horiz-adv-x="1296" d="M59 419q7 93 55 182t139 159l127 105l-35 36q-60 66 -92.5 122t-32.5 122q0 59 22.5 112.5t61.5 92t91.5 61.5t111.5 23t112 -23t92.5 -61.5t61.5 -92t22 -112.5q0 -84 -41.5 -144.5t-107.5 -107.5l-64 -45l384 -424l201 205l102 -103l-207 -208l203 -224l-107 -94 l-196 217l-133 -131q-67 -67 -151.5 -101.5t-173.5 -34.5t-173 33.5t-152 100.5q-67 68 -97 155t-23 180zM194.5 401.5q-5.5 -59.5 18.5 -113.5t70 -100q46 -47 104.5 -69.5t118.5 -23.5t117.5 22t104.5 69l138 138l-384 440l-130 -110q-79 -66 -115.5 -129.5t-42 -123z M363 1145q2 -52 35 -92.5t62 -69.5l28 -30q17 10 45 27t53 42t45 55.5t20 67.5q0 59 -42.5 101t-101.5 42t-102.5 -42t-41.5 -101z" />
<glyph unicode="'" horiz-adv-x="474" d="M139 1267q-7 81 48 119t153 38l-16 -342q-6 -44 -51 -86.5t-119 -42.5z" />
<glyph unicode="(" horiz-adv-x="405" d="M71 -144v1530q0 64 25 119.5t66 95t97 63.5t118 24v-146q-34 0 -62 -12.5t-50.5 -32.5t-37 -49t-14.5 -62v-1530q0 -32 14.5 -61t37 -49t50 -32.5t62.5 -12.5v-146q-61 0 -117.5 24t-97.5 63.5t-66 95t-25 118.5z" />
<glyph unicode=")" horiz-adv-x="405" d="M31 -299q32 0 61 12.5t51 32.5t35.5 49t13.5 61v1530q0 33 -13.5 62t-35.5 49t-51 32.5t-61 12.5v146q59 0 116.5 -24t98.5 -63.5t65.5 -95t24.5 -119.5v-1530q0 -63 -24.5 -118.5t-65.5 -95t-98.5 -63.5t-116.5 -24v146z" />
<glyph unicode="*" horiz-adv-x="880" d="M55 1005v126l289 -24q-12 24 -31.5 45t-34.5 43l-108 144l156 95l110 -220l32 62l39.5 79t37.5 79l155 -92l-178 -235l111 9q37 2 92 7t92 10v-128l-293 17q21 -29 43 -54.5t41 -54.5h-2q23 -28 46.5 -58t47.5 -59l-161 -85l-113 227q-6 -12 -14.5 -30t-14.5 -32 l-92 -165l-135 89l170 228l-105 -8q-39 -7 -94 -10t-86 -5z" />
<glyph unicode="+" horiz-adv-x="727" d="M14 558v142h275v274h143v-274h281v-142h-281v-282h-143v282h-275z" />
<glyph unicode="," horiz-adv-x="517" d="M78 -260q152 107 177 296q-77 8 -122 53t-38 106t61 95t131 25q74 -8 120 -53t40 -106q-12 -103 -38.5 -176.5t-61 -122t-74 -80.5t-75.5 -56q-27 -16 -64.5 -10t-55.5 29z" />
<glyph unicode="-" horiz-adv-x="727" d="M80 512q0 111 131 111h434q0 -111 -131 -111h-434z" />
<glyph unicode="." horiz-adv-x="517" d="M115 108q0 55 44.5 90t112.5 35q66 0 111 -35.5t45 -89.5t-45 -89.5t-111 -35.5q-68 0 -112.5 35.5t-44.5 89.5z" />
<glyph unicode="/" horiz-adv-x="637" d="M8 0l467 1434h152l-468 -1434h-151z" />
<glyph unicode="0" horiz-adv-x="1642" d="M55 717q0 157 60.5 296.5t165 244t244 165t296.5 60.5t297 -60.5t244.5 -165t164.5 -244t60 -296.5t-60 -297t-164.5 -244.5t-244.5 -165t-297 -60.5t-296.5 60.5t-244 165t-165 244.5t-60.5 297zM199 717q0 -127 49 -241t133.5 -199t198.5 -134t241 -49t240 49t198 134 t134 199t49 241t-49 240t-134 197.5t-198 133.5t-240 49t-241 -49t-198.5 -133.5t-133.5 -197.5t-49 -240z" />
<glyph unicode="1" horiz-adv-x="436" d="M6 1292v142h351v-1434h-144v1292h-207z" />
<glyph unicode="2" horiz-adv-x="1062" d="M56 0v144l700 661q47 46 70.5 104t23.5 117t-23.5 116.5t-70.5 102.5q-48 44 -103 68t-115 24t-118.5 -23.5t-101.5 -68.5q-42 -43 -65 -97.5t-28 -111.5h-143q2 86 34 166t99 146q65 67 148.5 100t171.5 33t171 -33t153 -100q65 -67 99 -150.5t34 -170.5t-34 -171 t-99 -150l-594 -562h742v-144h-951z" />
<glyph unicode="3" horiz-adv-x="1259" d="M63 510h144q0 -86 33 -161q32 -77 89.5 -134.5t134.5 -90t163 -32.5t163 32.5t134.5 90t90 134.5t32.5 163t-32.5 163t-104.5 142t-173 88q-109 19 -204 4v154l309 227h-696v144h907v-2l2 2v-144l-284 -233q38 -10 75 -27q102 -43 179 -119.5t120.5 -179t43.5 -219.5 t-43.5 -219.5t-120.5 -179t-179 -120.5t-219 -44t-219.5 44t-179 120.5t-121.5 179.5q-43 100 -44 217z" />
<glyph unicode="4" horiz-adv-x="1036" d="M46 258l284 1176h148l-250 -1033h460v253h142v-253h169v-143h-169v-258h-142v258h-642z" />
<glyph unicode="5" horiz-adv-x="1257" d="M84 510h140q0 -86 36 -161q33 -77 90.5 -134.5t134 -90t161.5 -32.5q87 0 163.5 32.5t134 90t90 134.5t32.5 163t-32.5 163t-90 134.5t-134 90t-173.5 32.5q-98 0 -184 -33.5t-139 -104.5h-141l127 640h713v-144h-598l-60 -297q138 84 292 83q117 0 219.5 -44.5 t178.5 -121t120 -179t44 -219.5t-44 -219.5t-120 -179t-178.5 -120.5t-219.5 -44q-118 0 -219 44t-178 120.5t-123 179.5q-42 100 -42 217z" />
<glyph unicode="6" horiz-adv-x="1275" d="M82 514v406q0 117 44.5 219t121 178.5t179 121t218.5 44.5q117 0 220 -45q96 -41 169 -115l-98 -100q-55 54 -129 81q-76 33 -162 33t-163 -31.5t-134 -89t-90 -134.5t-33 -162v-31q10 12 21 22q78 78 180.5 122t218.5 44q117 0 219.5 -44t179 -120.5t120.5 -179 t44 -219.5t-44 -219.5t-120.5 -179t-179 -121t-219.5 -44.5t-219 44.5t-178.5 121t-121 179t-44.5 219.5zM225 514q0 -86 33 -163t90 -134.5t134.5 -90t162.5 -32.5q86 0 163 32.5t134 90t90 134.5t33 163t-33 163t-90 134.5t-134 90t-163 32.5t-163 -32.5t-134 -90 t-90 -134.5t-33 -163z" />
<glyph unicode="7" horiz-adv-x="1031" d="M46 0l706 1290h-706v144h959l-786 -1434h-173z" />
<glyph unicode="8" horiz-adv-x="1254" d="M64 514q0 117 44 219.5t120.5 179t179.5 119.5l6 2q-61 74 -61 174q0 58 21 108t58.5 87t87.5 58.5t107 21.5q58 0 108 -21.5t87 -58.5t58 -87t21 -108q0 -100 -61 -174l6 -2q102 -43 179 -119.5t121.5 -179t44.5 -219.5t-44.5 -219.5t-121.5 -179t-179 -121t-219 -44.5 t-219.5 44.5t-179 121t-120.5 179t-44 219.5zM207 514q0 -86 33 -163t90 -134.5t134 -90t163 -32.5t163 32.5t134.5 90t90 134.5t32.5 163t-32.5 163t-90 134.5t-136.5 89.5q-71 31 -151 33h-10q-86 0 -163 -32.5t-134 -90t-90 -134.5t-33 -163zM495 1208q0 -53 39.5 -92 t92.5 -39h10q49 4 85 41t36 90q0 54 -38.5 92.5t-92.5 38.5q-53 0 -92.5 -38.5t-39.5 -92.5z" />
<glyph unicode="9" horiz-adv-x="1259" d="M58 920q0 117 44 219t120.5 178.5t179 121t219.5 44.5t219 -44.5t178.5 -121t121 -178.5t44.5 -219v-25q-2 -500 -45 -600q-43 -102 -120 -179t-179.5 -121.5t-218.5 -44.5q-117 0 -220 46q-96 41 -169 115l98 100q55 -54 129 -82q76 -33 162 -33t163 31.5t134 89 t90 134.5t33 163v29l-23 -23q-76 -76 -178.5 -119.5t-218.5 -43.5q-117 0 -219.5 44t-179 120.5t-120.5 179t-44 219.5zM201 920q0 -86 32.5 -163t90 -134.5t134.5 -90t163 -32.5t163 32.5t134 90t90 134.5t33 163t-33 162.5t-90 134t-134.5 90t-162.5 32.5 q-86 0 -163 -32.5t-134.5 -90t-90 -134.5t-32.5 -162z" />
<glyph unicode=":" horiz-adv-x="517" d="M94 155q0 59 47.5 97t120.5 38q71 0 119.5 -38t48.5 -97q0 -57 -48.5 -94.5t-119.5 -37.5q-72 0 -120 37.5t-48 94.5zM94 788q0 59 47.5 97t120.5 38q71 0 119.5 -38t48.5 -97q0 -57 -48.5 -94.5t-119.5 -37.5q-72 0 -120 37.5t-48 94.5z" />
<glyph unicode=";" horiz-adv-x="517" d="M73 783q0 61 50 100.5t125 39.5q74 0 124.5 -39.5t50.5 -100.5q0 -60 -50 -99.5t-125 -39.5q-76 0 -125.5 39.5t-49.5 99.5zM78 -260q152 107 177 296q-77 8 -122 53t-38 106t61 95t131 25q74 -8 120 -53t40 -106q-12 -103 -38.5 -176.5t-61 -122t-74 -80.5t-75.5 -56 q-27 -16 -64.5 -10t-55.5 29z" />
<glyph unicode="&#x3c;" horiz-adv-x="894" d="M4 436v158l813 352v-158l-631 -274l631 -272v-158z" />
<glyph unicode="=" horiz-adv-x="1136" d="M80 299v144h975v-144h-975zM80 585v144h975v-144h-975z" />
<glyph unicode="&#x3e;" horiz-adv-x="898" d="M80 84v158l631 272l-631 274v158l813 -352v-158z" />
<glyph unicode="?" horiz-adv-x="1013" d="M14 1139q57 140 180.5 217.5t282.5 77.5q104 0 196.5 -40t161 -109t108.5 -161t40 -196q0 -96 -34 -182t-93.5 -153t-140 -109.5t-172.5 -55.5v-160h-144v292h78q77 0 144 28t117 78.5t79 117t29 144.5q0 76 -29 143.5t-79 117.5t-117.5 78.5t-143.5 28.5 q-102 0 -182 -39t-130 -118h-151zM387 86q0 37 24.5 61.5t61.5 24.5t62 -24.5t25 -61.5q0 -36 -25 -61t-62 -25q-36 0 -61 25t-25 61z" />
<glyph unicode="@" horiz-adv-x="1654" d="M55 717q0 157 60.5 296.5t165 244t244 165t296.5 60.5t297 -60.5t244.5 -165t164.5 -244t60 -296.5v-552q0 -42 -17 -82t-46 -68.5t-68 -46.5t-83 -18q-46 0 -85 18t-67.5 46.5t-45 68.5t-16.5 82v209q-66 -63 -152 -100q-86 -36 -186 -36t-187 37.5t-151.5 102.5 t-102.5 151.5t-38 187t38 187.5t102.5 152.5t151.5 103.5t187 38t187 -38t153 -103.5t103.5 -152.5t37.5 -187v-552q0 -28 21 -48.5t50 -20.5q28 0 49.5 21t21.5 48v552q0 129 -49 242t-134 197.5t-197.5 133.5t-242.5 49q-129 0 -242 -49t-197.5 -133.5t-133.5 -197.5 t-49 -242t49 -242t133.5 -198t197.5 -134t242 -49v-144q-157 0 -296.5 60.5t-244 165t-165 244.5t-60.5 297zM483 717q0 -69 27 -131t73 -108t107.5 -72.5t130.5 -26.5t131 26.5t108 72.5t72.5 107.5t26.5 131.5q0 69 -26.5 130.5t-72.5 107.5t-107.5 73t-131.5 27 q-69 0 -130.5 -27t-107.5 -73t-73 -107.5t-27 -130.5z" />
<glyph unicode="A" horiz-adv-x="1132" d="M31 0l458 1434h150l461 -1434h-149l-184 558h-409l-178 -558h-149zM405 700h318l-158 498z" />
<glyph unicode="B" horiz-adv-x="1089" d="M80 0v1434h384q219 0 347 -103q125 -104 125 -284q0 -92 -32 -162t-93 -123q-2 -4 -6 -6q56 -23 100 -58q66 -59 97.5 -129.5t31.5 -169.5q0 -182 -129 -295q-133 -104 -356 -104h-469zM221 146h330q159 0 239 67q88 73 88 188q0 123 -88 193q-80 68 -239 68h-330v-516z M221 801h310q93 0 169 66q80 65 80 180q0 113 -80 182q-90 65 -234 65h-245v-493z" />
<glyph unicode="C" horiz-adv-x="1560" d="M55 717q0 157 60.5 296.5t165 244t244 165t296.5 60.5t297 -60.5t244 -164.5q80 -80 133 -181h-172q-29 41 -65 76q-84 86 -197 135t-240 49t-241 -49t-198.5 -133.5t-133.5 -197.5t-49 -240t49 -241t133.5 -199t198.5 -134t241 -49t240 49t197 133q36 37 67 81h170 q-53 -100 -133 -181q-104 -104 -244 -165t-297 -61t-296.5 60.5t-244 165t-165 244.5t-60.5 297z" />
<glyph unicode="D" horiz-adv-x="1327" d="M80 0v1434h480q149 0 280 -56.5t226.5 -153t152.5 -227t57 -278.5t-57 -279t-152.5 -229t-226.5 -154.5t-280 -56.5h-480zM221 144h339q120 0 223 45t181.5 123.5t123.5 183t45 223.5t-45 222.5t-123.5 181t-181.5 122.5t-223 45h-339v-1146z" />
<glyph unicode="E" horiz-adv-x="1083" d="M80 0v1434h952v-144h-811v-590h670v-142h-670v-414h811v-144h-952z" />
<glyph unicode="F" horiz-adv-x="1101" d="M80 0v1434h952v-144h-811v-590h670v-142h-670v-558h-141z" />
<glyph unicode="G" horiz-adv-x="1625" d="M55 717q0 157 60.5 296.5t165 244t244 165t296.5 60.5t297 -60.5t244 -164.5q80 -80 133 -181h-172q-29 41 -65 76q-84 86 -197 135t-240 49t-241 -49t-198.5 -133.5t-133.5 -197.5t-49 -240t49 -241t133.5 -199t198.5 -134t241 -49t245.5 40t205.5 154q82 110 82 256v14 h-480v142h645v-11q0 -329 -119 -479q-122 -151 -272 -205.5t-307 -54.5t-296.5 60.5t-244 165t-165 244.5t-60.5 297z" />
<glyph unicode="H" horiz-adv-x="1116" d="M80 0v1434h141v-734h670v734h141v-1434h-141v558h-670v-558h-141z" />
<glyph unicode="I" horiz-adv-x="300" d="M80 0v1434h141v-1434h-141z" />
<glyph unicode="J" horiz-adv-x="1052" d="M25 428h143q0 -69 25.5 -129.5t70.5 -105.5t106.5 -72t131.5 -27q69 0 129.5 27t105.5 72t72 105.5t27 129.5v862h-668v144h810v-1006q0 -98 -37.5 -185.5t-102 -151.5t-152.5 -102.5t-184 -38.5q-98 0 -185 38.5t-152 102.5t-102.5 151.5t-37.5 185.5z" />
<glyph unicode="K" horiz-adv-x="1090" d="M80 0v1434h141v-650l537 650h195l-550 -662l627 -772h-178l-545 660l-86 -102v-558h-141z" />
<glyph unicode="L" horiz-adv-x="1093" d="M80 0v1434h141v-1290h811v-144h-952z" />
<glyph unicode="M" horiz-adv-x="1364" d="M80 0v1434h141l459 -625l461 625h141v-1434h-141v1192l-461 -625l-459 622v-1189h-141z" />
<glyph unicode="N" horiz-adv-x="1116" d="M80 0v1434h141l670 -1147v1147h141v-1434h-141l-670 1147v-1147h-141z" />
<glyph unicode="O" horiz-adv-x="1642" d="M55 717q0 157 60.5 296.5t165 244t244 165t296.5 60.5t297 -60.5t244.5 -165t164.5 -244t60 -296.5t-60 -297t-164.5 -244.5t-244.5 -165t-297 -60.5t-296.5 60.5t-244 165t-165 244.5t-60.5 297zM199 717q0 -127 49 -241t133.5 -199t198.5 -134t241 -49t240 49t198 134 t134 199t49 241t-49 240t-134 197.5t-198 133.5t-240 49t-241 -49t-198.5 -133.5t-133.5 -197.5t-49 -240z" />
<glyph unicode="P" horiz-adv-x="1043" d="M80 0v1434h426q219 0 346 -103q124 -104 124 -334q0 -147 -31.5 -216.5t-92.5 -122.5q-127 -100 -346 -100h-285v-558h-141zM221 696h289q142 0 232 66q79 64 79 231q0 166 -79 236q-90 65 -232 65h-289v-598z" />
<glyph unicode="Q" horiz-adv-x="1628" d="M43 717q0 157 60 296.5t164.5 244t244.5 165t297 60.5q158 0 297 -60.5t243.5 -165t165 -244t60.5 -296.5t-60.5 -297t-164.5 -244q-98 -98 -230 -157q8 -31 35 -56q36 -34 88 -34v-144q-56 0 -104 20.5t-83.5 56.5t-56.5 85q-6 11 -10 26q-88 -23 -180 -23 q-157 0 -297 60.5t-244.5 165t-164.5 244.5t-60 297zM186 717q0 -127 49 -241t134.5 -199t199 -134t240.5 -49q78 0 152 19q-8 12 -19 22q-37 34 -88 35v143q55 0 103 -20.5t84 -56.5q33 -31 50 -73q86 46 154 113q86 86 135 200t49 241t-49 240t-133.5 197.5t-197.5 133.5 t-240 49t-240.5 -49t-199 -133.5t-134.5 -197.5t-49 -240z" />
<glyph unicode="R" horiz-adv-x="1038" d="M80 0v1434h426q209 0 342 -103q61 -59 94.5 -146.5t33.5 -185.5q0 -225 -128 -337q-29 -21 -58 -39q27 -17 56 -35q128 -113 128 -295v-293h-142v293q0 62 -23 109t-67 85q-77 70 -213 71h-308v-558h-141zM221 692h287q152 0 234 70q90 76 90 239q0 162 -90 234 q-82 69 -234 69h-287v-612z" />
<glyph unicode="S" horiz-adv-x="1116" d="M48 428h142q0 -69 30 -130.5t81.5 -106.5t119.5 -72q63 -25 134 -25h10q70 2 133.5 18.5t113 50.5t79 84t29.5 119q0 100 -55.5 162t-140.5 101.5t-187.5 71.5t-194.5 73t-161.5 103.5t-90.5 165.5q-2 19 -2 38q0 67 28 129q36 80 102 140.5t157 96.5t190 36 q111 0 193 -39t139.5 -93.5t89 -113.5t37.5 -100h-157q-39 98 -123 149t-179 53h-10q-58 -1 -117 -21q-64 -22 -112 -61t-73 -92q-17 -36 -17 -74q0 -19 4 -38q16 -72 82.5 -114t158.5 -74.5t194.5 -65.5t189 -85t142.5 -134t56 -214q0 -98 -41 -175.5t-109.5 -131 t-158.5 -81.5t-189 -28q-98 0 -192.5 35.5t-166 98t-115 150.5t-43.5 194z" />
<glyph unicode="T" horiz-adv-x="992" d="M19 1290v144h953v-144h-405v-1290h-143v1290h-405z" />
<glyph unicode="U" horiz-adv-x="1099" d="M71 428v1006h142v-1006q0 -69 26.5 -130.5t72 -106.5t106.5 -71t131 -26q69 0 131 26t107 71t70 106.5t25 130.5v1006h142v-1006q0 -100 -35.5 -187t-100.5 -151.5t-151.5 -102t-187.5 -37.5q-100 0 -187.5 37.5t-151.5 102t-101.5 151.5t-37.5 187z" />
<glyph unicode="V" horiz-adv-x="1132" d="M31 1434h149l385 -1198l386 1198h149l-461 -1434h-150z" />
<glyph unicode="W" horiz-adv-x="1356" d="M80 0v1434h141v-1190l459 623l461 -625v1192h141v-1434h-141l-461 625l-459 -625h-141z" />
<glyph unicode="X" horiz-adv-x="1075" d="M59 0l394 717l-369 717h166l287 -562l284 562h166l-368 -717l395 -717h-164l-313 562l-314 -562h-164z" />
<glyph unicode="Y" horiz-adv-x="1120" d="M25 1434h157l378 -732l376 732h157l-456 -870v-564h-154v560z" />
<glyph unicode="Z" horiz-adv-x="1078" d="M48 0v144l782 1146h-782v144h953v-144l-786 -1146h786v-144h-953z" />
<glyph unicode="[" horiz-adv-x="477" d="M80 -447v2135h356v-144h-215v-1847h215v-144h-356z" />
<glyph unicode="\" horiz-adv-x="637" d="M8 1434h151l468 -1434h-152z" />
<glyph unicode="]" horiz-adv-x="471" d="M25 -303h215v1847h-215v144h358v-2135h-358v144z" />
<glyph unicode="^" horiz-adv-x="929" d="M33 621l350 813h160l352 -813h-158l-275 631l-272 -631h-157z" />
<glyph unicode="_" horiz-adv-x="1193" d="M80 0v144h1030v-144h-1030z" />
<glyph unicode="`" horiz-adv-x="672" d="M117 1362h100q125 0 158 -54l168 -252q-76 0 -118 10t-69 39z" />
<glyph unicode="a" horiz-adv-x="1247" d="M53 514q0 117 44.5 219.5t121 179t179 120.5t218.5 44q117 0 219.5 -44t179 -120.5t120.5 -179t44 -219.5v-514h-143v138q-10 -10 -22 -23q-76 -76 -178.5 -120.5t-219.5 -44.5t-219 44.5t-178.5 121t-121 179t-44.5 219.5zM197 514q0 -86 32.5 -163t90 -134.5t134.5 -90 t162 -32.5q86 0 163 32.5t134.5 90t89.5 134.5q29 69 33 144v19q0 86 -32.5 163t-90 134.5t-134.5 90t-163 32.5t-162.5 -32.5t-134 -90t-90 -134.5t-32.5 -163z" />
<glyph unicode="b" horiz-adv-x="1218" d="M41 514v920h143v-573q58 92 180.5 154t239.5 62t219.5 -44t179 -120.5t121 -179t44.5 -219.5t-44.5 -219.5t-121 -179t-179 -121t-219.5 -44.5t-219.5 44.5t-179 121t-120.5 179t-44 219.5zM184 514q0 -86 33 -163t90 -134.5t134 -90t163 -32.5t163 32.5t134.5 90 t90 134.5t32.5 163t-32.5 163t-90 134.5t-134.5 90t-163 32.5t-163 -32.5t-134 -90t-90 -134.5t-33 -163z" />
<glyph unicode="c" horiz-adv-x="1183" d="M53 514q0 117 44.5 219.5t121 179t179 120.5t218.5 44q117 0 219.5 -44t179 -120.5t120.5 -179.5l6 -14h-160q-26 51 -68 92q-57 58 -134 90.5t-163 32.5t-162.5 -32.5t-134 -90t-90 -134.5t-32.5 -163t32.5 -163t90 -134.5t134.5 -90t162 -32.5q86 0 163 32.5t134 90.5 q41 40 70 94h158l-6 -16q-43 -102 -120 -179t-179.5 -121.5t-219.5 -44.5t-219 44.5t-178.5 121t-121 179t-44.5 219.5z" />
<glyph unicode="d" horiz-adv-x="1218" d="M21 514q0 117 44 219.5t120.5 179t178.5 120.5t219 44t240 -62t180 -154v573h144v-920q0 -117 -44 -219.5t-121 -179t-179.5 -121t-219.5 -44.5t-219 44.5t-178.5 121t-120.5 179t-44 219.5zM163 514q0 -86 33.5 -163t90.5 -134.5t134 -90t162 -32.5q86 0 163 32.5 t134.5 90t90 134.5t32.5 163t-32.5 163t-90 134.5t-134.5 90t-163 32.5t-162.5 -32.5t-133.5 -90t-90.5 -134.5t-33.5 -163z" />
<glyph unicode="e" horiz-adv-x="1222" d="M53 514q0 117 44.5 219.5t121 179t179 120.5t218.5 44q117 0 219.5 -44t179 -120.5t120.5 -179.5q37 -84 42 -175h-978q-2 -23 -2 -44q0 -86 32.5 -163t90 -134.5t134.5 -90t162 -32.5q86 0 163 32.5t134 90.5q41 40 70 94h158l-6 -16q-43 -102 -120 -179t-179.5 -121.5 t-219.5 -44.5t-219 44.5t-178.5 121t-121 179t-44.5 219.5zM240 700h751q-30 62 -78 111q-57 58 -134 90.5t-163 32.5t-162.5 -32.5t-133.5 -90.5q-50 -49 -80 -111z" />
<glyph unicode="f" horiz-adv-x="647" d="M-19 558v142h105v459q0 57 21.5 107.5t58.5 87t87 58.5t108 22q57 0 107 -22t88 -58.5t59.5 -87t21.5 -107.5h-144q0 53 -38.5 91t-92.5 38q-53 0 -90.5 -38t-37.5 -91v-459h264v-142h-264v-558h-148v558h-105z" />
<glyph unicode="g" horiz-adv-x="1249" d="M52 514q0 117 44.5 219.5t121 179t179 120.5t218.5 44q117 0 219.5 -44t178.5 -122q12 -10 22 -22v135h143v-487v-430q0 -117 -44 -219.5t-120.5 -179t-179 -121t-219.5 -44.5t-219 44.5t-180 121.5q-41 40 -73 92l104 105q28 -54 72 -96q57 -58 134 -90.5t162 -32.5 q86 0 163 32.5t134.5 90t90 134.5t32.5 163v31q-10 -10 -22 -23q-76 -76 -178.5 -120.5t-219.5 -44.5t-219 44.5t-178.5 121t-121 179t-44.5 219.5zM195 514q0 -86 33 -163t90 -134.5t134.5 -90t162.5 -32.5q86 0 163 32.5t134.5 90t90 134.5t32.5 180q0 80 -29 146 q-36 77 -93.5 134.5t-134.5 90t-163 32.5t-163 -32.5t-134 -90t-90 -134.5t-33 -163z" />
<glyph unicode="h" horiz-adv-x="1082" d="M80 0v1434h145v-500q27 33 61 59.5t75.5 45t86.5 28.5t91 10q94 0 178 -37t146.5 -99.5t99 -146t36.5 -178.5v-2l2 -614h-149v614v2q0 65 -24.5 122.5t-67.5 99.5t-101.5 67t-119.5 25q-64 0 -119.5 -27t-97.5 -71t-67 -100.5t-25 -117.5v-614h-150z" />
<glyph unicode="i" horiz-adv-x="272" d="M52 1348q0 36 24.5 61t62.5 25q36 0 60.5 -25t24.5 -61q0 -37 -24.5 -61.5t-60.5 -24.5q-37 0 -62 24.5t-25 61.5zM64 0v1024h144v-1024h-144z" />
<glyph unicode="j" horiz-adv-x="305" d="M-318 -129h148q0 -53 38 -91t91 -38q54 0 92.5 38t38.5 91v1153h144v-1153q0 -57 -22 -107.5t-59.5 -87t-88 -58t-107.5 -21.5t-107.5 21.5t-87 58t-58.5 87t-22 107.5zM76 1348q0 36 24.5 61t60.5 25q37 0 62 -25t25 -61q0 -37 -24.5 -61.5t-62.5 -24.5 q-36 0 -60.5 24.5t-24.5 61.5z" />
<glyph unicode="k" horiz-adv-x="802" d="M80 1434h141v-748l381 338h170l-438 -416l462 -608h-186l-389 516l2 -516h-141z" />
<glyph unicode="l" horiz-adv-x="300" d="M80 0v1434h141v-1434h-141z" />
<glyph unicode="m" horiz-adv-x="1849" d="M80 1024h145v-92q51 65 136.5 105t177.5 40q121 0 217 -58t161 -154q61 96 166.5 154t229.5 58q94 0 178 -37t146 -99.5t98.5 -147t36.5 -179.5l2 -614h-150l-2 614q0 65 -23.5 122.5t-66 100.5t-99 68t-120.5 25q-67 0 -122.5 -25t-98.5 -68t-68 -100t-25 -123l2 -614 h-149v614q-4 67 -30 126t-67.5 100.5t-98 65.5t-117.5 24q-66 0 -121.5 -27t-98.5 -71t-68.5 -100.5t-25.5 -117.5l5 -614h-148z" />
<glyph unicode="n" horiz-adv-x="1069" d="M78 0v1024h141v-94q23 33 56.5 60.5t75.5 47t90 29.5t96 10q94 0 178 -37t146.5 -99.5t99 -147t36.5 -179.5l2 -614h-147l-2 614q0 65 -24.5 122.5t-67.5 100.5t-101.5 68t-119.5 25q-66 0 -122.5 -27t-99.5 -71t-69.5 -101.5t-26.5 -116.5l2 -614h-143z" />
<glyph unicode="o" horiz-adv-x="1235" d="M53 514q0 117 44.5 219.5t121 179t179 120.5t218.5 44q117 0 219.5 -44t179 -120.5t120.5 -179t44 -219.5t-44 -219.5t-120.5 -179t-179 -121t-219.5 -44.5t-219 44.5t-178.5 121t-121 179t-44.5 219.5zM197 514q0 -86 32.5 -163t90 -134.5t134.5 -90t162 -32.5 q86 0 163 32.5t134.5 90t90 134.5t32.5 163t-32.5 163t-90 134.5t-134.5 90t-163 32.5t-162.5 -32.5t-134 -90t-90 -134.5t-32.5 -163z" />
<glyph unicode="p" horiz-adv-x="1261" d="M61 -408v920q0 117 44.5 219.5t121 179t179 121t219.5 44.5t219 -44.5t179 -121t120.5 -179t43.5 -219.5t-43.5 -219.5t-120.5 -179t-179 -120.5t-219 -44t-240 62t-180 154v-573h-144zM205 512q0 -86 32.5 -163t90 -134.5t134.5 -90t163 -32.5t163 32.5t133.5 90 t90 134.5t33.5 163t-33.5 163t-90 134.5t-133.5 90t-163 32.5t-163 -32.5t-134.5 -90t-90 -134.5t-32.5 -163z" />
<glyph unicode="q" horiz-adv-x="1257" d="M61 512q0 117 44.5 219.5t121 179t179 121t219.5 44.5t219 -44.5t179 -121t120.5 -179t43.5 -219.5v-920h-142v573q-58 -92 -180.5 -154t-239.5 -62t-219.5 44t-179 120.5t-121 179t-44.5 219.5zM205 512q0 -86 32.5 -163t90 -134.5t134.5 -90t163 -32.5t163 32.5 t133.5 90t90 134.5t33.5 163t-33.5 163t-90 134.5t-133.5 90t-163 32.5t-163 -32.5t-134.5 -90t-90 -134.5t-32.5 -163z" />
<glyph unicode="r" horiz-adv-x="700" d="M80 1024h141v-194q12 21 25 33q78 78 180.5 121.5t216.5 43.5v-144q-86 0 -162 -32.5t-133 -90t-91 -134t-34 -163.5v-464h-141z" />
<glyph unicode="s" horiz-adv-x="848" d="M51 311h146q0 -54 21 -100q22 -45 78 -83q54 -36 136 -36h9q100 0 150 48.5t54 116.5v9q1 62 -25 98q-28 38 -81.5 63.5t-133 45.5t-147.5 49t-117 86.5t-59 143.5q-2 16 -2 31q0 49 20 93q26 58 74.5 102t116 71.5t139.5 27.5q82 0 142.5 -26.5t101.5 -68.5t64.5 -85 t27.5 -74h-154q-19 59 -70 91t-112 32q-41 0 -88 -16.5t-87 -65.5q-32 -39 -32 -82q0 -11 2 -22q10 -50 48 -76t100.5 -49t138.5 -47t142.5 -66.5t103 -105.5t36.5 -159q0 -72 -29.5 -130t-79.5 -96.5t-116.5 -59.5t-138.5 -21t-141.5 26t-122.5 72q-52 46 -84 110 q-31 63 -31 148v5z" />
<glyph unicode="t" horiz-adv-x="589" d="M35 880v144h103v410h144v-410h269v-144h-269v-880h-144v880h-103z" />
<glyph unicode="u" horiz-adv-x="1059" d="M67 1024h146l4 -562v-1q0 -66 24.5 -123.5t68 -99t99 -66t122.5 -24.5q65 0 122.5 24.5t100 66t67.5 99t25 123.5v563h143v-563q0 -95 -36 -178.5t-98.5 -146.5t-146 -99.5t-177.5 -36.5t-178.5 36.5t-146.5 99.5t-99.5 146.5t-37.5 178.5v1z" />
<glyph unicode="v" horiz-adv-x="1113" d="M31 1024h157l365 -844l371 844h157l-446 -1024h-160z" />
<glyph unicode="w" horiz-adv-x="1841" d="M73 414v610h142v-610q0 -65 25.5 -122.5t67 -100.5t99 -68t124.5 -25q63 0 120.5 25t100 68t68.5 100.5t26 122.5v610h147v-610q2 -69 28 -126.5t68 -99.5t96 -66t119 -24q64 0 122 25t100.5 68t67 100.5t24.5 122.5v610h148v-610q0 -96 -36.5 -180t-99.5 -146.5 t-147.5 -100t-178.5 -37.5q-123 0 -224.5 57.5t-162.5 155.5q-65 -98 -165 -155.5t-221 -57.5q-98 0 -180.5 37.5t-143.5 100t-97.5 146.5t-36.5 180z" />
<glyph unicode="x" horiz-adv-x="839" d="M65 0l271 512l-271 512h167l188 -355l188 355h166l-272 -512l272 -512h-164l-190 357l-190 -357h-165z" />
<glyph unicode="y" horiz-adv-x="1071" d="M67 1024h146l4 -562v-1q0 -66 24.5 -123.5t68 -99t99 -66t122.5 -24.5q65 0 122.5 24.5t100 66t67.5 99t25 123.5v563h143v-563q0 -95 -36 -178.5t-98.5 -146.5t-145.5 -99q-51 -23 -107 -33l2 -463h-145l-2 463q-56 10 -104 33q-85 36 -147 99t-99.5 146.5t-37.5 178.5 v1z" />
<glyph unicode="z" horiz-adv-x="839" d="M65 0l468 880h-468v144h709l-469 -880h469v-144h-709z" />
<glyph unicode="{" horiz-adv-x="522" d="M10 551v145q33 0 61.5 12.5t51.5 33t36 49t13 61.5v534q0 64 24.5 119.5t65.5 95t97.5 63.5t117.5 24v-146q-32 0 -61 -12.5t-51.5 -32.5t-36 -49t-13.5 -62v-534q0 -72 -30 -130t-76 -99q47 -41 76.5 -100t29.5 -128v-539q0 -32 13.5 -61t36 -49t51.5 -32.5t61 -12.5 v-146q-61 0 -117.5 24t-97.5 63.5t-65.5 95t-24.5 118.5v539q0 64 -44 108t-105 48h-13z" />
<glyph unicode="|" horiz-adv-x="300" d="M80 -441v2129h141v-2129h-141z" />
<glyph unicode="}" horiz-adv-x="524" d="M46 -299q32 0 60.5 12.5t51 32.5t36 49t13.5 61v539q0 69 29.5 127.5t76.5 100.5q-48 41 -77 99t-29 130v534q0 33 -13.5 62t-36 49t-51 32.5t-60.5 12.5v146q61 0 117 -24t97 -63.5t66 -95t25 -119.5v-534q0 -33 13 -61.5t35.5 -49t51 -33t61.5 -12.5v-145h-12 q-61 -4 -105 -48t-44 -108v-539q0 -63 -25 -118.5t-66 -95t-97 -63.5t-117 -24v146z" />
<glyph unicode="~" horiz-adv-x="1017" d="M53 790v101h148v-101q0 -53 37.5 -90.5t91.5 -37.5q44 0 79.5 29.5t72 64t84.5 64.5t120 30q58 0 108 -21.5t86.5 -58.5t58.5 -87t22 -108v-100h-148v100q0 54 -38 91.5t-91 37.5q-44 0 -78.5 -29.5t-71 -64.5t-85 -64.5t-121.5 -29.5q-58 0 -108 22t-87 58.5t-58.5 86.5 t-21.5 107z" />
<glyph unicode="&#xa1;" horiz-adv-x="471" d="M96 1247q0 48 39.5 79t99.5 31q56 0 96.5 -31t40.5 -79t-40.5 -79t-96.5 -31q-60 0 -99.5 31.5t-39.5 78.5zM124 142l28 931q88 0 126.5 -30t41.5 -84l33 -976q-110 0 -171 42.5t-58 116.5z" />
<glyph unicode="&#xa2;" horiz-adv-x="1027" d="M139 310v347q0 119 93 206.5t234 109.5v43q0 54 37.5 77.5t125.5 23.5v-141q108 -14 187 -68t115 -127q11 -28 1.5 -52t-32.5 -41t-52.5 -26.5t-52.5 -9.5q0 73 -46.5 132t-119.5 82v-762q73 23 119.5 82.5t46.5 133.5q23 0 52.5 -10.5t52.5 -27t32.5 -41t-1.5 -52.5 q-36 -77 -115.5 -129t-186.5 -65v-52q0 -53 -38.5 -77t-124.5 -24v155q-145 23 -236 109t-91 204zM308 310q0 -67 42.5 -125t115.5 -81v762q-73 -25 -115.5 -81.5t-42.5 -127.5v-347z" />
<glyph unicode="&#xa3;" horiz-adv-x="1134" d="M113 614q0 114 133 114h102q-8 62 -14 120t-6 122q0 85 29.5 157.5t83 123t126.5 78.5t163 28q82 0 143 -16.5t92 -45.5q31 -25 21 -64.5t-41 -67.5q-96 85 -223 84q-110 0 -164.5 -71.5t-54.5 -207.5q0 -42 4 -107.5t10 -132.5h326q0 -114 -132 -114h-182 q4 -62 9.5 -109.5t5.5 -69.5q0 -119 -36 -190.5t-118 -131.5h521q135 0 136 -113h-908q0 73 62 116q28 17 59 45t56 66.5t42 85t17 102.5q0 52 -4 102t-9 97h-249z" />
<glyph unicode="&#xa4;" horiz-adv-x="1448" d="M167 671q0 82 29 167t89 158l-110 116l107 113l119 -116q67 51 149 72t169 21q184 0 325 -98l127 124l102 -116l-114 -116q60 -70 88 -153.5t28 -171.5q0 -82 -28 -163.5t-84 -154.5l110 -118l-107 -108l-119 119q-67 -54 -152 -76.5t-176 -22.5q-90 0 -168.5 19.5 t-149.5 76.5l-116 -119l-110 111l107 118q-116 145 -115 318zM344 671q0 -85 29.5 -160.5t81 -133t120 -90.5t144.5 -33q77 0 146 33t119.5 90.5t80 133t29.5 160.5t-29.5 161t-80 134t-120 90.5t-145.5 32.5t-144.5 -32.5t-120 -90.5t-81 -134t-29.5 -161z" />
<glyph unicode="&#xa5;" horiz-adv-x="1185" d="M34 1344q56 39 113 29t88 -55l357 -497l362 497q34 46 88.5 55.5t111.5 -29.5l-359 -490h232q0 -113 -135 -112h-178l-31 -46v-95h344q0 -110 -135 -110h-209v-383q0 -119 -177 -119v502h-354q0 110 137 110h217v95l-34 46h-320q0 113 137 112h101z" />
<glyph unicode="&#xa6;" horiz-adv-x="491" d="M163 -291v694q0 102 162 103v-695q0 -101 -162 -102zM163 691v695q0 101 162 101v-695q0 -101 -162 -101z" />
<glyph unicode="&#xa7;" horiz-adv-x="1165" d="M163 750q0 46 28.5 98t102.5 109q-31 31 -45 66t-14 71q0 119 105.5 191t271.5 72q73 0 141 -14t104 -42q23 -18 20.5 -58.5t-25.5 -71.5q-49 31 -119 59.5t-135 28.5q-79 0 -133.5 -40t-54.5 -107q0 -80 68.5 -117.5t186.5 -68.5q71 -23 130 -48.5t104.5 -58t71 -75 t25.5 -99.5q0 -64 -31 -117t-88 -107q23 -28 45.5 -69.5t22.5 -88.5q0 -132 -113 -206t-285 -74q-72 0 -143 17t-113 42q-31 23 -34 65.5t28 93.5q54 -49 122 -80t145 -31q99 0 161.5 41.5t62.5 119.5q0 73 -55.5 121.5t-191.5 90.5q-176 51 -271 115.5t-95 171.5zM339 756 q0 -51 43.5 -100.5t178.5 -88.5q88 -31 131.5 -42t77.5 -31q23 28 35.5 63t12.5 75q0 59 -44 104t-148 82l-111 37t-105 40q-31 -31 -51 -69.5t-20 -69.5z" />
<glyph unicode="&#xa8;" horiz-adv-x="663" d="M17 1228q0 39 36.5 68.5t93.5 29.5t93.5 -29.5t36.5 -68.5q0 -42 -36.5 -72t-93.5 -30t-93.5 30t-36.5 72zM384 1228q0 39 36.5 68.5t93.5 29.5q56 0 92.5 -29.5t36.5 -68.5q0 -42 -36.5 -72t-92.5 -30q-57 0 -93.5 30t-36.5 72z" />
<glyph unicode="&#xa9;" horiz-adv-x="1599" d="M82 668q0 144 55 269.5t152.5 219.5t226.5 147t279 53t280 -53t227 -147t154 -219.5t57 -269.5q0 -143 -57 -267t-154 -217.5t-227 -147t-280 -53.5t-279 53.5t-226.5 147t-152.5 217.5t-55 267zM248 665q0 -121 44 -226.5t119 -184.5t173.5 -124t210.5 -45 q113 0 213.5 45t174 124t117.5 184.5t44 226.5q0 122 -44 230.5t-117.5 188t-174 126t-213.5 46.5t-211 -46.5t-173 -126t-119 -188t-44 -230.5zM457 529v286q0 60 31 107.5t80.5 83.5t111.5 54t124 18q54 0 106 -11.5t98.5 -33.5t80.5 -56.5t51 -79.5q18 -56 -29.5 -81.5 t-120.5 -13.5q0 70 -54.5 126.5t-131.5 56.5q-76 0 -129.5 -52.5t-53.5 -117.5v-286q0 -68 53.5 -119t129.5 -51q77 0 131.5 55t54.5 127q73 11 120 -13.5t30 -81.5q-17 -44 -51 -78.5t-80.5 -58.5t-100.5 -35t-104 -11q-59 0 -121 18t-111.5 52t-82 83.5t-32.5 112.5z" />
<glyph unicode="&#xaa;" horiz-adv-x="823" d="M23 830q0 51 25 97t70 81.5t106.5 56.5t131.5 21q88 0 166 -36v47q0 62 -48 109t-118 47q-54 0 -109 -48t-92 -116q-51 34 -69 77.5t2 72.5q42 54 114 82t154 28q59 0 116.5 -18t105.5 -51t78 -79.5t30 -103.5v-432q0 -90 -164 -90v34q-73 -34 -166 -34 q-70 0 -131.5 19.5t-106.5 54t-70 81t-25 100.5zM186 830q0 -62 48.5 -110.5t121.5 -48.5t119.5 48t46.5 111q0 65 -46.5 112.5t-119.5 47.5t-121.5 -47.5t-48.5 -112.5z" />
<glyph unicode="&#xab;" horiz-adv-x="902" d="M68 559q0 13 20 39l274 310q39 49 91.5 47.5t90.5 -49.5l-301 -347q77 -84 151.5 -173t149.5 -174q-38 -49 -90.5 -49t-91.5 46l-274 313q-20 19 -20 37zM367 559q0 13 20 39l273 310q39 49 91.5 47.5t91.5 -49.5l-302 -347q77 -84 151.5 -173t150.5 -174 q-39 -49 -91.5 -49t-91.5 46l-273 313q-20 19 -20 37z" />
<glyph unicode="&#xac;" horiz-adv-x="1185" d="M82 674q0 107 127 107h892v-340q0 -101 -164 -102v335h-855z" />
<glyph unicode="&#xad;" horiz-adv-x="727" d="M80 512q0 111 131 111h434q0 -111 -131 -111h-434z" />
<glyph unicode="&#xae;" horiz-adv-x="1597" d="M82 668q0 144 55 269.5t152.5 219.5t226.5 147t279 53t280 -53t227 -147t154 -219.5t57 -269.5q0 -143 -57 -267t-154 -217.5t-227 -147t-280 -53.5t-279 53.5t-226.5 147t-152.5 217.5t-55 267zM248 665q0 -121 44 -226.5t119 -184.5t173.5 -124t210.5 -45 q113 0 213.5 45t174 124t117.5 184.5t44 226.5q0 122 -44 230.5t-117.5 188t-174 126t-213.5 46.5t-211 -46.5t-173 -126t-119 -188t-44 -230.5zM466 266v747q0 20 21.5 34t59.5 14h369q102 0 170 -65t68 -153q0 -44 -25 -92.5t-71 -82.5q46 -31 73.5 -77.5t27.5 -92.5v-150 q0 -39 -43 -60.5t-120 -21.5v232q0 58 -24 90.5t-56 32.5h-290v-273q0 -39 -42.5 -60.5t-117.5 -21.5zM626 717h290q32 0 54.5 42.5t22.5 83.5q0 42 -22.5 83.5t-54.5 41.5h-290v-251z" />
<glyph unicode="&#xaf;" horiz-adv-x="665" d="M73 1182v100h513v-100h-513z" />
<glyph unicode="&#xb0;" horiz-adv-x="665" d="M36 1097q0 54 23 102t62.5 83.5t93 55t115.5 19.5q60 0 114 -19.5t92.5 -55t61.5 -83.5t23 -102t-23 -101.5t-61.5 -83t-92.5 -55t-114 -19.5q-62 0 -115.5 19.5t-93 55t-62.5 83t-23 101.5zM175 1097q0 -70 45.5 -118t109.5 -48q65 0 110.5 48t45.5 118t-45.5 118.5 t-110.5 48.5q-64 0 -109.5 -48.5t-45.5 -118.5z" />
<glyph unicode="&#xb1;" horiz-adv-x="1185" d="M82 509q0 103 127 103h297v242q0 104 168 105v-347h427q0 -103 -131 -103h-296v-243q0 -104 -168 -105v348h-424zM85 3q0 48 35 79t97 31h887q0 -51 -37 -80.5t-99 -29.5h-883z" />
<glyph unicode="&#xb2;" horiz-adv-x="840" d="M108 626q0 91 67.5 175t203.5 141q36 17 70 34t62 36.5t44.5 44t16.5 55.5q0 56 -44.5 100t-109.5 44q-62 0 -107 -44t-45 -100v-18t5 -33q-31 0 -60.5 7t-52.5 20t-36.5 26.5t-11.5 28.5q9 46 40 83.5t73.5 66t93 42.5t101.5 14q54 0 109.5 -15.5t101 -46.5t73.5 -75 t28 -100q0 -49 -23.5 -86.5t-64.5 -67.5t-92.5 -55.5t-108.5 -48.5q-142 -62 -167 -178h349q49 0 78 -23.5t29 -71.5h-544q-31 0 -54.5 11t-23.5 34z" />
<glyph unicode="&#xb3;" horiz-adv-x="840" d="M110 776q-5 82 158 81q-2 -14 -2 -25v-25q0 -59 45 -100.5t107 -41.5t107 41.5t45 100.5q0 57 -45 97.5t-107 40.5q-31 0 -55 12.5t-24 32.5q0 23 24 35.5t55 12.5q49 0 80.5 33t31.5 77q0 46 -32 77t-80 31q-46 0 -78 -31t-32 -77q0 -5 1 -16.5t8 -25.5 q-73 -11 -125.5 8.5t-41.5 67.5q8 59 81.5 113t186.5 54q54 0 104 -15.5t86.5 -43.5t59.5 -63.5t23 -78.5q0 -39 -27 -80t-66 -72q57 -34 94.5 -84.5t37.5 -104.5q0 -99 -90.5 -167t-221.5 -68q-65 0 -121.5 18.5t-96 48t-63.5 65t-27 72.5z" />
<glyph unicode="&#xb4;" horiz-adv-x="654" d="M116 1044l163 249q37 54 159 54h98l-231 -255q-31 -29 -73.5 -38.5t-115.5 -9.5z" />
<glyph unicode="&#xb5;" horiz-adv-x="1157" d="M163 -398v1270q0 104 170 104v-668q0 -91 69.5 -155.5t172.5 -64.5q108 0 177 64.5t69 155.5v564q0 104 167 104v-886q0 -107 -167 -107v59q-52 -28 -114 -43.5t-132 -15.5q-69 0 -130 15.5t-112 43.5v-333q0 -108 -170 -107z" />
<glyph unicode="&#xb6;" horiz-adv-x="1159" d="M65 908q0 77 25.5 157.5t93 145t185 105.5t299.5 41q96 0 186.5 -5t135.5 -15v-1489q0 -52 -45 -78.5t-127 -26.5v1513h-124v-1408q0 -52 -46.5 -78.5t-128.5 -26.5v763q-82 3 -162 29t-145 77t-106 124.5t-41 171.5z" />
<glyph unicode="&#xb7;" horiz-adv-x="705" d="M135 559q0 79 64 134t154 55q91 0 152.5 -55.5t61.5 -133.5q0 -76 -61.5 -131.5t-152.5 -55.5q-90 0 -154 55.5t-64 131.5z" />
<glyph unicode="&#xb8;" horiz-adv-x="549" d="M71 -309q-6 30 25 72q87 -68 147 -68q25 0 49.5 19.5t24.5 53.5q0 46 -61.5 64t-136.5 13l124 186h141l-76 -110q73 -9 124 -48t51 -90q0 -42 -21 -75t-55.5 -55.5t-78 -34t-85.5 -11.5q-85 0 -133 31q-33 23 -39 53z" />
<glyph unicode="&#xb9;" horiz-adv-x="677" d="M61 1274l244 189h136v-878h-146v517q0 25 1 55l2 60t2 57.5t3 50.5q-14 -17 -32.5 -37t-40.5 -36l-95 -74z" />
<glyph unicode="&#xba;" horiz-adv-x="716" d="M65 1133q0 84 21 148.5t58.5 108.5t93 66.5t122.5 22.5q62 0 115.5 -22.5t92 -66.5t61.5 -108.5t23 -148.5q0 -82 -21 -147.5t-59.5 -109.5t-93 -68t-121.5 -24q-64 0 -117.5 24t-92 68t-60.5 109.5t-22 147.5zM197 1133q0 -119 37.5 -179.5t124.5 -60.5q84 0 121.5 60.5 t37.5 179.5q0 121 -37.5 178t-121.5 57q-87 0 -124.5 -57t-37.5 -178z" />
<glyph unicode="&#xbb;" horiz-adv-x="995" d="M84 192l238 349l-238 348l117 78l309 -414v-27l-309 -411zM491 192l238 349l-238 348l117 78l309 -414v-27l-309 -411z" />
<glyph unicode="&#xbc;" horiz-adv-x="1507" d="M61 1274l244 189h136v-878h-146v517q0 25 1 55l2 60t2 57.5t3 50.5q-14 -17 -32.5 -37t-40.5 -36l-95 -74zM232 0l811 1463h157l-811 -1463h-157zM774 192v111l377 579h141v-562h125v-128h-125v-192h-143v192h-375zM920 320h229v194q0 43 1 92.5t5 97.5q-4 -10 -14 -28 t-21.5 -40t-24 -41.5t-20.5 -34.5z" />
<glyph unicode="&#xbd;" horiz-adv-x="1507" d="M43 1274l246 189h135v-878h-146v517v55t2 60t3 57.5t4 50.5q-14 -17 -33.5 -37t-40.5 -36l-94 -74zM213 0l811 1463h157l-811 -1463h-157zM869 0v113l208 229q58 61 93.5 103t55 76t28 63.5t8.5 62.5q0 65 -34 97t-87 32q-52 0 -98 -24.5t-90 -63.5l-79 94 q54 50 120.5 82.5t148.5 32.5q59 0 108 -17t83 -48t52.5 -77t18.5 -103q0 -50 -14 -93t-41 -86t-67 -88t-91 -101l-147 -155h395v-129h-571z" />
<glyph unicode="&#xbe;" horiz-adv-x="1507" d="M31 625v133q63 -33 128.5 -52.5t118.5 -19.5q98 0 142 41.5t44 114.5t-52.5 107t-149.5 34h-99v112h99q93 0 135 40.5t42 103.5q0 33 -10.5 56.5t-28 38t-41 21.5t-50.5 7q-59 0 -107 -20.5t-100 -57.5l-69 97q28 22 59 40.5t64.5 32t71.5 20.5t83 7q69 0 121.5 -16.5 t87.5 -47.5t52.5 -71.5t17.5 -89.5q0 -78 -40 -131t-109 -78q88 -23 131.5 -76.5t43.5 -130.5q0 -60 -20.5 -110t-61.5 -86t-104.5 -55.5t-149.5 -19.5q-69 0 -130.5 12.5t-118.5 43.5zM328 0l811 1463h157l-811 -1463h-157zM844 192v111l377 579h141v-562h124v-128h-124 v-192h-144v192h-374zM989 320h229v194q0 43 1.5 92.5t5.5 97.5q-6 -10 -16.5 -28t-20.5 -40t-22.5 -41.5t-20.5 -34.5z" />
<glyph unicode="&#xbf;" horiz-adv-x="870" d="M67 -21q0 68 13.5 120.5t40.5 97.5t68 87t93 88q54 46 86.5 79.5t51.5 64.5t26 64.5t7 77.5v17h139v-36q0 -58 -8.5 -104t-27.5 -85.5t-52 -77.5t-82 -81q-48 -40 -82.5 -74.5t-56 -68t-31.5 -73.5t-10 -94q0 -47 15 -87t44 -68.5t71 -44t97 -15.5q85 0 159 26t144 60 l64 -145q-82 -43 -176.5 -71.5t-190.5 -28.5q-92 0 -166.5 25.5t-126 73.5t-80.5 116.5t-29 156.5zM385 978q0 37 10 63t28 43.5t40 25.5t49 8t50 -8t41 -25.5t27 -43.5t9 -63q0 -38 -9 -63.5t-27 -43t-41 -24.5t-50 -7t-49 7t-40 24.5t-28 43t-10 63.5z" />
<glyph unicode="&#xc0;" horiz-adv-x="1132" d="M65 0l458 1434h150l461 -1434h-149l-183 558h-410l-178 -558h-149zM354 1813h151l104 -260h-153zM440 700h317l-158 498z" />
<glyph unicode="&#xc1;" horiz-adv-x="1132" d="M65 0l458 1434h150l461 -1434h-149l-183 558h-410l-178 -558h-149zM440 700h317l-158 498zM478 1547v27q23 29 46 67t47 78.5t44 82t37 73.5h219v-20q-17 -26 -48.5 -67t-69 -85.5t-79 -85.5t-75.5 -70h-121z" />
<glyph unicode="&#xc2;" horiz-adv-x="1132" d="M65 0l458 1434h150l461 -1434h-149l-183 558h-410l-178 -558h-149zM332 1565l215 331h134l215 -331h-121l-164 229l-166 -229h-113zM440 700h317l-158 498z" />
<glyph unicode="&#xc3;" horiz-adv-x="1132" d="M65 0l458 1434h150l461 -1434h-149l-183 558h-410l-178 -558h-149zM244 1546q0 107 48 171.5t134 64.5q65 0 149 -52q74 -44 127 -44q84 0 84 116h98q0 -104 -48 -170.5t-130 -66.5q-71 0 -161 51q-78 43 -119 43q-88 0 -88 -113h-94zM440 700h317l-158 498z" />
<glyph unicode="&#xc4;" horiz-adv-x="1132" d="M65 0l458 1434h150l461 -1434h-149l-183 558h-410l-178 -558h-149zM269 1699q0 61 30 87t75 26q42 0 74 -27t32 -86q0 -58 -31.5 -84.5t-74.5 -26.5q-46 0 -75.5 26.5t-29.5 84.5zM440 700h317l-158 498zM680 1699q0 61 30.5 87t74.5 26q21 0 40 -6.5t33.5 -20t23.5 -35 t9 -51.5q0 -58 -33 -84.5t-73 -26.5q-44 0 -74.5 26.5t-30.5 84.5z" />
<glyph unicode="&#xc5;" horiz-adv-x="1320" d="M23 0l528 1379q-100 51 -100 163q0 88 59 143.5t152 55.5q88 0 144.5 -54.5t56.5 -138.5q0 -113 -97 -165l532 -1383h-186l-151 401h-608l-144 -401h-186zM408 553h497l-225 611q-10 30 -22 96h-4q-10 -62 -23 -96zM543 1548q0 -115 113 -114q49 0 81.5 32.5t32.5 81.5 t-33 80t-82 31t-80.5 -32t-31.5 -79z" />
<glyph unicode="&#xc6;" horiz-adv-x="1761" d="M10 0l701 1434h923v-152h-558v-477h517v-151h-517v-502h591v-152h-760v401h-510l-192 -401h-195zM466 553h441v729h-94z" />
<glyph unicode="&#xc7;" horiz-adv-x="1601" d="M63 717q0 157 60.5 296.5t165 244t244 165t297.5 60.5q157 0 296.5 -60.5t244.5 -164.5q80 -80 132 -181h-172q-29 41 -65 76q-84 86 -196.5 135t-239.5 49t-241 -49t-199 -133.5t-134 -197.5t-49 -240t49 -241t134 -199t198.5 -134t241.5 -49q127 0 239.5 49t196.5 133 q36 37 67 81h170q-53 -100 -132 -181q-104 -104 -244 -165t-297 -61t-297 60.5t-244.5 165t-165 244.5t-60.5 297zM610 -374q14 -4 38.5 -5.5t41.5 -1.5q72 0 112 21.5t40 70.5q0 25 -13.5 42t-35.5 29.5t-54.5 23t-68.5 18.5l90 176h120l-57 -115q35 -8 63.5 -21.5 t50.5 -33.5t34 -49.5t12 -67.5q0 -96 -70.5 -150t-220.5 -54q-22 0 -44.5 3l-37.5 5v109z" />
<glyph unicode="&#xc8;" horiz-adv-x="1108" d="M76 0v1434h952v-144h-811v-590h669v-142h-669v-414h811v-144h-952zM280 1855h152l105 -261h-154z" />
<glyph unicode="&#xc9;" horiz-adv-x="1161" d="M88 0v1434h953v-144h-811v-590h669v-142h-669v-414h811v-144h-953zM429 1588v26q23 29 47 66.5t47 78.5t44 82.5t37 73.5h219v-20q-17 -27 -48.5 -68t-69.5 -85.5t-79 -85t-76 -68.5h-121z" />
<glyph unicode="&#xca;" horiz-adv-x="1061" d="M135 0v1434h953v-144h-811v-590h669v-142h-669v-414h811v-144h-953zM315 1567l216 331h133l215 -331h-121l-163 229l-167 -229h-113z" />
<glyph unicode="&#xcb;" horiz-adv-x="1115" d="M82 0v1434h952v-144h-811v-590h670v-142h-670v-414h811v-144h-952zM240 1743q0 55 27.5 78.5t68.5 23.5q38 0 67 -24.5t29 -77.5t-29 -78t-67 -25q-41 0 -68.5 25t-27.5 78zM614 1743q0 55 27.5 78.5t69.5 23.5q19 0 36 -6t30 -18.5t21.5 -31.5t8.5 -46q0 -53 -29.5 -78 t-66.5 -25q-41 0 -69 25t-28 78z" />
<glyph unicode="&#xcc;" horiz-adv-x="328" d="M10 1782h152l105 -260h-154zM113 0v1434h141v-1434h-141z" />
<glyph unicode="&#xcd;" horiz-adv-x="317" d="M31 1558v27q23 29 46.5 66.5t47 78.5t44 82.5t37.5 73.5h218v-21q-16 -26 -48 -67t-69.5 -85.5t-78.5 -85t-76 -69.5h-121zM96 0v1434h142v-1434h-142z" />
<glyph unicode="&#xce;" horiz-adv-x="350" d="M-110 1567l216 331h133l215 -331h-121l-164 229l-166 -229h-113zM100 0v1434h142v-1434h-142z" />
<glyph unicode="&#xcf;" horiz-adv-x="340" d="M-87 1712q0 61 30.5 87t76.5 26q43 0 74.5 -27.5t31.5 -85.5q0 -59 -31.5 -86.5t-74.5 -27.5q-46 0 -76.5 27.5t-30.5 86.5zM107 0v1434h141v-1434h-141zM235 1701q0 61 30.5 87t75.5 26q21 0 40 -6.5t33.5 -20t24 -35.5t9.5 -51q0 -59 -33 -86t-74 -27q-46 0 -76 27 t-30 86z" />
<glyph unicode="&#xd0;" horiz-adv-x="1435" d="M29 641v155h159v638h395q758 0 759 -699q0 -334 -210 -534.5t-565 -200.5h-379v641h-159zM357 152h212q283 0 440 151.5t157 427.5q0 550 -587 551h-222v-486h335v-155h-335v-489z" />
<glyph unicode="&#xd1;" horiz-adv-x="1097" d="M82 0v1434h141l670 -1147v1147h141v-1434h-141l-670 1147v-1147h-141zM253 1546q0 107 48.5 171.5t134.5 64.5q65 0 149 -52q73 -44 128 -44q84 0 83 116h99q0 -104 -48 -170.5t-130 -66.5q-71 0 -163 51q-78 43 -118 43q-89 0 -88 -113h-95z" />
<glyph unicode="&#xd2;" horiz-adv-x="1664" d="M63 717q0 157 60.5 296.5t165 244t244 165t297.5 60.5q157 0 296.5 -60.5t244 -165t164.5 -244t60 -296.5t-60 -297t-164.5 -244.5t-244 -165t-296.5 -60.5t-297 60.5t-244.5 165t-165 244.5t-60.5 297zM207 717q0 -127 49 -241t134 -199t198.5 -134t241.5 -49 q127 0 239.5 49t197.5 134t134 199t49 241t-49 240t-134 197.5t-197.5 133.5t-239.5 49t-241 -49t-199 -133.5t-134 -197.5t-49 -240zM647 1869h152l104 -261h-153z" />
<glyph unicode="&#xd3;" horiz-adv-x="1664" d="M57 717q0 157 60.5 296.5t165 244t244 165t296.5 60.5t297 -60.5t244.5 -165t164.5 -244t60 -296.5t-60 -297t-164.5 -244.5t-244 -165t-297.5 -60.5q-157 0 -296.5 60.5t-244 165t-165 244.5t-60.5 297zM201 717q0 -127 49 -241t134 -199t198.5 -134t240.5 -49t240 49 t198 134t134 199t49 241t-49 240t-134 197.5t-197.5 133.5t-240.5 49q-127 0 -240.5 -49t-198.5 -133.5t-134 -197.5t-49 -240zM723 1600v27q23 29 46.5 66.5t47 78.5t44 82.5t37.5 73.5h218v-21q-16 -26 -48 -66.5t-69.5 -85t-78.5 -85.5t-76 -70h-121z" />
<glyph unicode="&#xd4;" horiz-adv-x="1663" d="M51 717q0 157 60.5 296.5t165 244t244 165t296.5 60.5t297 -60.5t244.5 -165t164.5 -244t60 -296.5t-60 -297t-164.5 -244.5t-244.5 -165t-297 -60.5t-296.5 60.5t-244 165t-165 244.5t-60.5 297zM194 717q0 -127 49.5 -241t134 -199t198.5 -134t241 -49t240 49 t197.5 134t134 199t49.5 241t-49.5 240t-134 197.5t-197.5 133.5t-240 49t-241 -49t-198.5 -133.5t-134 -197.5t-49.5 -240zM528 1596l215 331h133l215 -331h-121l-164 229l-166 -229h-112z" />
<glyph unicode="&#xd5;" horiz-adv-x="1670" d="M63 717q0 157 60.5 296.5t165 244t244 165t297.5 60.5q157 0 296.5 -60.5t244 -165t164.5 -244t60 -296.5t-60 -297t-164.5 -244.5t-244 -165t-296.5 -60.5t-297 60.5t-244.5 165t-165 244.5t-60.5 297zM207 717q0 -127 49 -241t134 -199t198.5 -134t241.5 -49 q127 0 239.5 49t197.5 134t134 199t49 241t-49 240t-134 197.5t-197.5 133.5t-239.5 49t-241 -49t-199 -133.5t-134 -197.5t-49 -240zM473 1598q0 107 48 171.5t134 64.5q65 0 149 -52q74 -44 127 -44q84 0 84 116h98q0 -104 -48 -170.5t-130 -66.5q-71 0 -161 50 q-79 43 -119 44q-88 0 -88 -113h-94z" />
<glyph unicode="&#xd6;" horiz-adv-x="1675" d="M57 717q0 157 60.5 296.5t165 244t244 165t296.5 60.5t297 -60.5t244.5 -165t164.5 -244t60 -296.5t-60 -297t-164.5 -244.5t-244 -165t-297.5 -60.5q-157 0 -296.5 60.5t-244 165t-165 244.5t-60.5 297zM201 717q0 -127 49 -241t134 -199t198.5 -134t240.5 -49t240 49 t198 134t134 199t49 241t-49 240t-134 197.5t-197.5 133.5t-240.5 49q-127 0 -240.5 -49t-198.5 -133.5t-134 -197.5t-49 -240zM539 1742q0 62 31 89t77 27q44 0 77 -28t33 -88q0 -61 -32.5 -89t-77.5 -28q-47 0 -77.5 28t-30.5 89zM964 1742q0 62 31.5 89t78.5 27 q21 0 41 -7t35 -21t24 -36t9 -52q0 -61 -33.5 -89t-75.5 -28q-47 0 -78.5 28t-31.5 89z" />
<glyph unicode="&#xd7;" horiz-adv-x="1583" d="M353 121q-8 33 38 88l320 311l-320 312q-47 47 -38 79q8 71 71 80q41 0 88 -47l311 -311l312 311q41 47 88 47q56 -8 71 -80q0 -33 -38 -79l-320 -312l320 -311q40 -55 38 -88q-16 -71 -71 -73q-55 -8 -88 48l-312 312l-311 -312q-41 -55 -88 -48q-63 0 -71 73z" />
<glyph unicode="&#xd8;" horiz-adv-x="1542" d="M94 14l158 191q-158 194 -158 495q0 342 186 550t510 208q234 0 402 -129l135 161l78 -63l-139 -165q184 -199 184 -527q0 -351 -186.5 -555.5t-497.5 -204.5q-266 0 -442 156l-152 -182zM270 715q0 -223 98 -373l721 862q-124 102 -311 102q-227 0 -367.5 -164 t-140.5 -427zM432 264q131 -137 334 -137q235 0 371.5 154.5t136.5 431.5q0 261 -117 418z" />
<glyph unicode="&#xd9;" horiz-adv-x="1121" d="M73 428v1006h142v-1006q0 -69 26.5 -130.5t72 -106.5t106.5 -71t131 -26q69 0 131 26t107 71t70 106.5t25 130.5v1006h142v-1006q0 -100 -35.5 -187t-100.5 -151.5t-151.5 -102t-187.5 -37.5q-100 0 -187.5 37.5t-151.5 102t-101.5 151.5t-37.5 187zM393 1782h152 l105 -260h-155z" />
<glyph unicode="&#xda;" horiz-adv-x="1099" d="M71 428v1006h142v-1006q0 -69 26.5 -130.5t72 -106.5t106.5 -71t131 -26q69 0 131 26t107 71t70 106.5t25 130.5v1006h142v-1006q0 -100 -35.5 -187t-100.5 -151.5t-151.5 -102t-187.5 -37.5q-100 0 -187.5 37.5t-151.5 102t-101.5 151.5t-37.5 187zM418 1588v26 q23 29 46 66.5t47 78.5t44 82.5t37 73.5h219v-20q-17 -27 -48.5 -68t-69 -85.5t-79 -85t-75.5 -68.5h-121z" />
<glyph unicode="&#xdb;" horiz-adv-x="1099" d="M71 428v1006h142v-1006q0 -69 26.5 -130.5t72 -106.5t106.5 -71t131 -26q69 0 131 26t107 71t70 106.5t25 130.5v1006h142v-1006q0 -100 -35.5 -187t-100.5 -151.5t-151.5 -102t-187.5 -37.5q-100 0 -187.5 37.5t-151.5 102t-101.5 151.5t-37.5 187zM258 1567l215 331 h133l215 -331h-121l-163 229l-167 -229h-112z" />
<glyph unicode="&#xdc;" horiz-adv-x="1099" d="M71 428v1006h142v-1006q0 -69 26.5 -130.5t72 -106.5t106.5 -71t131 -26q69 0 131 26t107 71t70 106.5t25 130.5v1006h142v-1006q0 -100 -35.5 -187t-100.5 -151.5t-151.5 -102t-187.5 -37.5q-100 0 -187.5 37.5t-151.5 102t-101.5 151.5t-37.5 187zM282 1743 q0 55 28 78.5t69 23.5q39 0 67.5 -24.5t28.5 -77.5t-28.5 -78t-67.5 -25q-40 0 -68.5 25t-28.5 78zM658 1743q0 55 27.5 78.5t68.5 23.5q18 0 35.5 -6t31 -18.5t21.5 -31.5t8 -46q0 -53 -30 -78t-66 -25q-41 0 -68.5 25t-27.5 78z" />
<glyph unicode="&#xdd;" horiz-adv-x="1150" d="M33 1434h157l378 -732l376 732h158l-457 -870v-564h-154v560zM479 1589v27q23 29 46 66.5t47 78.5t44.5 82.5t36.5 73.5h219v-21q-17 -26 -48.5 -67t-69 -85.5t-78.5 -85t-76 -69.5h-121z" />
<glyph unicode="&#xde;" horiz-adv-x="1147" d="M188 0v1434h169v-226h224q232 0 358 -111.5t126 -316.5t-141.5 -333.5t-380.5 -128.5h-186v-318h-169zM357 469h176q172 0 264 78t92 223q0 288 -336 287h-196v-588z" />
<glyph unicode="&#xdf;" horiz-adv-x="1111" d="M165 0v1114q0 192 110 308t296 116q167 0 266 -95t99 -251q0 -126 -75 -227.5t-195 -141.5v-4q379 -76 379 -426q0 -178 -112 -298t-294 -120q-100 0 -178 27v159q76 -47 170 -46q109 0 177 72.5t68 197.5q0 150 -100.5 244t-277.5 113v130q119 21 195 104t76 196 q0 109 -55.5 167.5t-151.5 58.5q-232 0 -232 -309v-1089h-165z" />
<glyph unicode="&#xe0;" horiz-adv-x="1247" d="M53 514q0 117 44.5 219.5t121 179t179 120.5t218.5 44q117 0 219.5 -44t179 -120.5t120.5 -179t44 -219.5v-514h-143v138q-10 -10 -22 -23q-76 -76 -178.5 -120.5t-219.5 -44.5t-219 44.5t-178.5 121t-121 179t-44.5 219.5zM197 514q0 -86 32.5 -163t90 -134.5t134.5 -90 t162 -32.5q86 0 163 32.5t134.5 90t89.5 134.5q29 69 33 144v19q0 86 -32.5 163t-90 134.5t-134.5 90t-163 32.5t-162.5 -32.5t-134 -90t-90 -134.5t-32.5 -163zM359 1535v21h219q17 -32 37.5 -73.5t44 -82.5t47 -78.5t45.5 -66.5v-27h-120q-35 29 -76 69.5t-79 85t-70 85.5 t-48 67z" />
<glyph unicode="&#xe1;" horiz-adv-x="1247" d="M53 514q0 117 44.5 219.5t121 179t179 120.5t218.5 44q117 0 219.5 -44t179 -120.5t120.5 -179t44 -219.5v-514h-143v138q-10 -10 -22 -23q-76 -76 -178.5 -120.5t-219.5 -44.5t-219 44.5t-178.5 121t-121 179t-44.5 219.5zM197 514q0 -86 32.5 -163t90 -134.5t134.5 -90 t162 -32.5q86 0 163 32.5t134.5 90t89.5 134.5q29 69 33 144v19q0 86 -32.5 163t-90 134.5t-134.5 90t-163 32.5t-162.5 -32.5t-134 -90t-90 -134.5t-32.5 -163zM411 1228v27q23 29 46.5 66.5t47 78.5t44 82.5t36.5 73.5h219v-21q-16 -26 -48 -67t-69.5 -85.5t-78.5 -85 t-76 -69.5h-121z" />
<glyph unicode="&#xe2;" horiz-adv-x="1247" d="M59 514q0 117 44.5 219.5t121 179t179 120.5t219.5 44t219 -44t178.5 -120.5t120.5 -179t44 -219.5v-514h-142v138l-23 -23q-76 -76 -178 -120.5t-219 -44.5t-219.5 44.5t-179 121t-121 179t-44.5 219.5zM203 514q0 -86 32.5 -163t90 -134.5t134.5 -90t163 -32.5 t163 32.5t134 90t90 134.5q29 69 33 144v19q0 86 -33 163t-90 134.5t-134 90t-163 32.5t-163 -32.5t-134.5 -90t-90 -134.5t-32.5 -163zM277 1218l215 332h133l215 -332h-121l-164 230l-165 -230h-113z" />
<glyph unicode="&#xe3;" horiz-adv-x="1247" d="M59 514q0 117 44.5 219.5t121 179t179 120.5t219.5 44t219 -44t178.5 -120.5t120.5 -179t44 -219.5v-514h-142v138l-23 -23q-76 -76 -178 -120.5t-219 -44.5t-219.5 44.5t-179 121t-121 179t-44.5 219.5zM203 514q0 -86 32.5 -163t90 -134.5t134.5 -90t163 -32.5 t163 32.5t134 90t90 134.5q29 69 33 144v19q0 86 -33 163t-90 134.5t-134 90t-163 32.5t-163 -32.5t-134.5 -90t-90 -134.5t-32.5 -163zM269 1212q0 107 48 171.5t134 64.5q66 0 150 -52q73 -44 127 -44q84 0 84 117h98q0 -104 -48 -171t-130 -67q-72 0 -162 52 q-78 42 -119 42q-88 0 -88 -113h-94z" />
<glyph unicode="&#xe4;" horiz-adv-x="1247" d="M59 514q0 117 44.5 219.5t121 179t179 120.5t219.5 44t219 -44t178.5 -120.5t120.5 -179t44 -219.5v-514h-142v138l-23 -23q-76 -76 -178 -120.5t-219 -44.5t-219.5 44.5t-179 121t-121 179t-44.5 219.5zM203 514q0 -86 32.5 -163t90 -134.5t134.5 -90t163 -32.5 t163 32.5t134 90t90 134.5q29 69 33 144v19q0 86 -33 163t-90 134.5t-134 90t-163 32.5t-163 -32.5t-134.5 -90t-90 -134.5t-32.5 -163zM285 1351q0 60 30 85.5t74 25.5q42 0 73 -26.5t31 -84.5q0 -57 -31 -84t-73 -27q-43 0 -73.5 27t-30.5 84zM690 1351q0 60 29.5 85.5 t73.5 25.5q20 0 39 -7t33 -20.5t23 -34t9 -49.5q0 -57 -31.5 -84t-72.5 -27q-44 0 -73.5 27t-29.5 84z" />
<glyph unicode="&#xe5;" horiz-adv-x="1247" d="M59 514q0 117 44.5 219.5t121 179t179 120.5t219.5 44t219 -44t178.5 -120.5t120.5 -179t44 -219.5v-514h-142v138l-23 -23q-76 -76 -178 -120.5t-219 -44.5t-219.5 44.5t-179 121t-121 179t-44.5 219.5zM203 514q0 -86 32.5 -163t90 -134.5t134.5 -90t163 -32.5 t163 32.5t134 90t90 134.5q29 69 33 144v19q0 86 -33 163t-90 134.5t-134 90t-163 32.5t-163 -32.5t-134.5 -90t-90 -134.5t-32.5 -163zM320 1366q0 90 59.5 144.5t149.5 54.5t146 -54.5t56 -137.5q0 -85 -60.5 -141t-148.5 -56t-145 52.5t-57 137.5zM410 1371 q0 -113 112 -113q49 0 82 32.5t33 80.5q0 49 -33 80.5t-82 31.5t-80.5 -33t-31.5 -79z" />
<glyph unicode="&#xe6;" horiz-adv-x="1703" d="M90 272q0 299 383 324l262 16q0 297 -215 297q-176 0 -330 -121v165q148 96 349 96q231 0 299 -201h4q117 201 356 201q203 0 313.5 -131.5t110.5 -362.5v-84h-725q2 -172 90.5 -264t241.5 -92q178 0 321 113v-155q-133 -98 -358 -98q-270 0 -383 230h-4 q-145 -230 -387 -230q-154 0 -241 81.5t-87 215.5zM257 276q0 -73 52.5 -117t143.5 -44q118 0 200 84t82 211v63l-202 -12q-140 -8 -208 -49.5t-68 -135.5zM899 610h555q-2 144 -68.5 221.5t-185.5 77.5q-117 0 -200 -81.5t-101 -217.5z" />
<glyph unicode="&#xe7;" horiz-adv-x="1183" d="M111 514q0 117 44.5 219.5t121 179t179 120.5t218.5 44q117 0 219.5 -44t179 -120.5t120.5 -179.5l6 -14h-161q-26 51 -67 92q-57 58 -134 90.5t-163 32.5t-163 -32.5t-134 -90t-90 -134.5t-33 -163t33 -163t90 -134.5t134.5 -90t162.5 -32.5q86 0 163 32.5t134 90.5 q41 40 70 94h158l-6 -16q-43 -102 -120 -179t-179.5 -121.5t-219.5 -44.5t-219 44.5t-178.5 121t-121 179t-44.5 219.5zM478 -374q14 -4 38.5 -5.5t41.5 -1.5q71 0 111.5 21.5t40.5 70.5q0 25 -13.5 42t-36.5 29.5t-54.5 23t-68.5 18.5l90 176h121l-57 -115q34 -8 63 -21.5 t50 -33.5t33.5 -49.5t12.5 -67.5q0 -96 -70 -150t-220 -54q-23 0 -45.5 3t-36.5 5v109z" />
<glyph unicode="&#xe8;" horiz-adv-x="1222" d="M53 514q0 117 44.5 219.5t121 179t179 120.5t218.5 44q117 0 219.5 -44t179 -120.5t120.5 -179.5q37 -84 42 -175h-978q-2 -23 -2 -44q0 -86 32.5 -163t90 -134.5t134.5 -90t162 -32.5q86 0 163 32.5t134 90.5q41 40 70 94h158l-6 -16q-43 -102 -120 -179t-179.5 -121.5 t-219.5 -44.5t-219 44.5t-178.5 121t-121 179t-44.5 219.5zM240 700h751q-30 62 -78 111q-57 58 -134 90.5t-163 32.5t-162.5 -32.5t-133.5 -90.5q-50 -49 -80 -111zM369 1525v20h220q17 -32 37 -73.5t43.5 -82t47.5 -78.5t45 -67v-27h-120q-35 29 -76 70t-79 85.5 t-69.5 85.5t-48.5 67z" />
<glyph unicode="&#xe9;" horiz-adv-x="1222" d="M53 514q0 117 44.5 219.5t121 179t179 120.5t218.5 44q117 0 219.5 -44t179 -120.5t120.5 -179.5q37 -84 42 -175h-978q-2 -23 -2 -44q0 -86 32.5 -163t90 -134.5t134.5 -90t162 -32.5q86 0 163 32.5t134 90.5q41 40 70 94h158l-6 -16q-43 -102 -120 -179t-179.5 -121.5 t-219.5 -44.5t-219 44.5t-178.5 121t-121 179t-44.5 219.5zM240 700h751q-30 62 -78 111q-57 58 -134 90.5t-163 32.5t-162.5 -32.5t-133.5 -90.5q-50 -49 -80 -111zM411 1228v27q23 29 46.5 66.5t47 78.5t44 82.5t36.5 73.5h219v-21q-16 -26 -48 -67t-69.5 -85.5t-78.5 -85 t-76 -69.5h-121z" />
<glyph unicode="&#xea;" horiz-adv-x="1222" d="M53 514q0 117 44.5 219.5t121 179t179 120.5t218.5 44q117 0 219.5 -44t179 -120.5t120.5 -179.5q37 -84 42 -175h-978q-2 -23 -2 -44q0 -86 32.5 -163t90 -134.5t134.5 -90t162 -32.5q86 0 163 32.5t134 90.5q41 40 70 94h158l-6 -16q-43 -102 -120 -179t-179.5 -121.5 t-219.5 -44.5t-219 44.5t-178.5 121t-121 179t-44.5 219.5zM240 700h751q-30 62 -78 111q-57 58 -134 90.5t-163 32.5t-162.5 -32.5t-133.5 -90.5q-50 -49 -80 -111zM271 1208l215 332h133l215 -332h-121l-164 230l-165 -230h-113z" />
<glyph unicode="&#xeb;" horiz-adv-x="1222" d="M53 514q0 117 44.5 219.5t121 179t179 120.5t218.5 44q117 0 219.5 -44t179 -120.5t120.5 -179.5q37 -84 42 -175h-978q-2 -23 -2 -44q0 -86 32.5 -163t90 -134.5t134.5 -90t162 -32.5q86 0 163 32.5t134 90.5q41 40 70 94h158l-6 -16q-43 -102 -120 -179t-179.5 -121.5 t-219.5 -44.5t-219 44.5t-178.5 121t-121 179t-44.5 219.5zM240 700h751q-30 62 -78 111q-57 58 -134 90.5t-163 32.5t-162.5 -32.5t-133.5 -90.5q-50 -49 -80 -111zM279 1351q0 60 30 85.5t74 25.5q42 0 73 -26.5t31 -84.5q0 -57 -31 -84t-73 -27q-43 0 -73.5 27t-30.5 84z M684 1351q0 60 29.5 85.5t73.5 25.5q20 0 39 -7t33 -20.5t23 -34t9 -49.5q0 -57 -32 -84t-72 -27q-44 0 -73.5 27t-29.5 84z" />
<glyph unicode="&#xec;" horiz-adv-x="397" d="M-54 1463v20h219q17 -32 37.5 -73.5t44 -82t47.5 -78.5t45 -67v-27h-120q-35 29 -76 70t-79 85.5t-69.5 85.5t-48.5 67zM126 0v1024h144v-1024h-144z" />
<glyph unicode="&#xed;" horiz-adv-x="363" d="M19 1166v27q23 29 46.5 66.5t46.5 78.5t44 82.5t37 73.5h219v-21q-16 -26 -48 -67t-69.5 -85.5t-78.5 -85t-76 -69.5h-121zM116 0v1024h144v-1024h-144z" />
<glyph unicode="&#xee;" horiz-adv-x="369" d="M-80 1208l215 332h133l215 -332h-121l-163 230l-166 -230h-113zM126 0v1024h144v-1024h-144z" />
<glyph unicode="&#xef;" horiz-adv-x="327" d="M-52 1296q0 36 25 61t62 25q36 0 61 -25t25 -61q0 -37 -25 -61.5t-61 -24.5q-37 0 -62 24.5t-25 61.5zM106 0v1024h143v-1024h-143zM207 1296q0 36 25 61t62 25q36 0 61 -25t25 -61q0 -37 -25 -61.5t-61 -24.5q-37 0 -62 24.5t-25 61.5z" />
<glyph unicode="&#xf0;" horiz-adv-x="1145" d="M96 500q0 244 130.5 395.5t348.5 151.5q123 0 211 -78l4 2q-90 161 -198 266l-299 -152l-51 98l270 132q-119 104 -264 200h221q77 -51 172 -134l289 143l55 -95l-264 -129q328 -307 328 -774q0 -240 -129.5 -394.5t-352.5 -154.5q-220 0 -345.5 140.5t-125.5 382.5z M264 506q0 -180 83 -285.5t230 -105.5q140 0 221.5 107.5t81.5 287.5q0 399 -299 399q-147 0 -232 -108.5t-85 -294.5z" />
<glyph unicode="&#xf1;" horiz-adv-x="1069" d="M78 0v1024h141v-94q23 33 56.5 60.5t75.5 47t90 29.5t96 10q94 0 178 -37t146.5 -99.5t99 -147t36.5 -179.5l2 -614h-147l-2 614q0 65 -24.5 122.5t-67.5 100.5t-101.5 68t-119.5 25q-66 0 -122.5 -27t-99.5 -71t-69.5 -101.5t-26.5 -116.5l2 -614h-143zM237 1236 q0 107 48 171.5t134 64.5q65 0 149 -52q74 -44 127 -44q84 0 84 116h98q0 -104 -48 -170.5t-130 -66.5q-71 0 -161 50q-79 43 -119 44q-88 0 -88 -113h-94z" />
<glyph unicode="&#xf2;" horiz-adv-x="1235" d="M53 514q0 117 44.5 219.5t121 179t179 120.5t218.5 44q117 0 219.5 -44t179 -120.5t120.5 -179t44 -219.5t-44 -219.5t-120.5 -179t-179 -121t-219.5 -44.5t-219 44.5t-178.5 121t-121 179t-44.5 219.5zM197 514q0 -86 32.5 -163t90 -134.5t134.5 -90t162 -32.5 q86 0 163 32.5t134.5 90t90 134.5t32.5 163t-32.5 163t-90 134.5t-134.5 90t-163 32.5t-162.5 -32.5t-134 -90t-90 -134.5t-32.5 -163zM359 1514v21h219q17 -32 37.5 -73.5t44 -82.5t47 -78.5t45.5 -66.5v-27h-120q-35 29 -76 70t-79 85.5t-70 85t-48 66.5z" />
<glyph unicode="&#xf3;" horiz-adv-x="1235" d="M53 514q0 117 44.5 219.5t121 179t179 120.5t218.5 44q117 0 219.5 -44t179 -120.5t120.5 -179t44 -219.5t-44 -219.5t-120.5 -179t-179 -121t-219.5 -44.5t-219 44.5t-178.5 121t-121 179t-44.5 219.5zM197 514q0 -86 32.5 -163t90 -134.5t134.5 -90t162 -32.5 q86 0 163 32.5t134.5 90t90 134.5t32.5 163t-32.5 163t-90 134.5t-134.5 90t-163 32.5t-162.5 -32.5t-134 -90t-90 -134.5t-32.5 -163zM462 1228v27q23 29 47 66.5t47 78.5t44 82.5t37 73.5h218v-21q-16 -26 -47.5 -67t-69.5 -85.5t-78.5 -85t-76.5 -69.5h-121z" />
<glyph unicode="&#xf4;" horiz-adv-x="1242" d="M55 514q0 117 44.5 219.5t121 179t179 120.5t219.5 44t219 -44t178.5 -120.5t120.5 -179t44 -219.5t-44 -219.5t-120.5 -179t-179 -121t-218.5 -44.5q-117 0 -219.5 44.5t-179 121t-121 179t-44.5 219.5zM199 514q0 -86 32.5 -163t90 -134.5t134.5 -90t163 -32.5 t163 32.5t134 90t89.5 134.5t32.5 163t-32.5 163t-89.5 134.5t-134.5 90t-162.5 32.5q-86 0 -163 -32.5t-134.5 -90t-90 -134.5t-32.5 -163zM322 1218l215 332h132l215 -332h-120l-164 230l-166 -230h-112z" />
<glyph unicode="&#xf5;" horiz-adv-x="1247" d="M49 514q0 117 44.5 219.5t121 179t178.5 120.5t219 44t219.5 -44t179 -120.5t120.5 -179t44 -219.5t-44 -219.5t-120.5 -179t-179 -121t-219.5 -44.5t-219 44.5t-178.5 121t-121 179t-44.5 219.5zM192 514q0 -86 33 -163t90 -134.5t134 -90t163 -32.5t163 32.5t134.5 90 t90 134.5t32.5 163t-32.5 163t-90 134.5t-134.5 90t-163 32.5t-163 -32.5t-134 -90t-90 -134.5t-33 -163zM284 1202q0 107 48.5 171.5t133.5 64.5q66 0 150 -52q73 -44 128 -44q84 0 83 116h99q0 -104 -48 -170.5t-130 -66.5q-72 0 -163 51q-78 42 -119 43q-88 0 -87 -113 h-95z" />
<glyph unicode="&#xf6;" horiz-adv-x="1247" d="M49 514q0 117 44.5 219.5t121 179t178.5 120.5t219 44t219.5 -44t179 -120.5t120.5 -179t44 -219.5t-44 -219.5t-120.5 -179t-179 -121t-219.5 -44.5t-219 44.5t-178.5 121t-121 179t-44.5 219.5zM192 514q0 -86 33 -163t90 -134.5t134 -90t163 -32.5t163 32.5t134.5 90 t90 134.5t32.5 163t-32.5 163t-90 134.5t-134.5 90t-163 32.5t-163 -32.5t-134 -90t-90 -134.5t-33 -163zM297 1343q0 56 28 79t68 23q39 0 67.5 -24.5t28.5 -77.5t-28.5 -78t-67.5 -25q-40 0 -68 25t-28 78zM672 1343q0 56 27.5 79t69.5 23q18 0 35 -5.5t30.5 -18t22 -32.5 t8.5 -46q0 -53 -30 -78t-66 -25q-41 0 -69 25t-28 78z" />
<glyph unicode="&#xf7;" horiz-adv-x="1791" d="M400 520q0 71 88 80h865q80 -8 88 -80q-8 -88 -88 -88h-865q-88 0 -88 88zM777 96q8 127 144 144q127 -17 143 -144q-17 -121 -143 -137q-136 16 -144 137zM777 944q8 127 144 143q127 -16 143 -143q-17 -144 -143 -152q-136 8 -144 152z" />
<glyph unicode="&#xf8;" horiz-adv-x="1197" d="M50 -4l149 163q-102 138 -103 341q0 259 142.5 404t382.5 145q184 0 307 -98l161 175l85 -77l-169 -180q98 -140 99 -347q0 -252 -139.5 -399.5t-370.5 -147.5q-192 0 -318 103l-145 -160zM264 506q0 -131 49 -224l508 554q-80 73 -215 73q-159 0 -250.5 -107.5 t-91.5 -295.5zM383 190q86 -76 221 -75q164 0 249 103.5t85 293.5q1 134 -47 230z" />
<glyph unicode="&#xf9;" horiz-adv-x="1059" d="M67 1024h146l4 -562v-1q0 -66 24.5 -123.5t68 -99t99 -66t122.5 -24.5q65 0 122.5 24.5t100 66t67.5 99t25 123.5v563h143v-563q0 -95 -36 -178.5t-98.5 -146.5t-146 -99.5t-177.5 -36.5t-178.5 36.5t-146.5 99.5t-99.5 146.5t-37.5 178.5v1zM214 1535v21h219 q17 -32 37.5 -73.5t44 -82.5t47 -78.5t45.5 -66.5v-27h-120q-35 29 -76 69.5t-79 85t-69.5 85.5t-48.5 67z" />
<glyph unicode="&#xfa;" horiz-adv-x="1059" d="M67 1024h146l4 -562v-1q0 -66 24.5 -123.5t68 -99t99 -66t122.5 -24.5q65 0 122.5 24.5t100 66t67.5 99t25 123.5v563h143v-563q0 -95 -36 -178.5t-98.5 -146.5t-146 -99.5t-177.5 -36.5t-178.5 36.5t-146.5 99.5t-99.5 146.5t-37.5 178.5v1zM411 1228v27 q23 29 46.5 66.5t47 78.5t44 82.5t36.5 73.5h219v-21q-16 -26 -48 -67t-69.5 -85.5t-78.5 -85t-76 -69.5h-121z" />
<glyph unicode="&#xfb;" horiz-adv-x="1074" d="M76 1024h145l4 -562v-1q0 -66 24.5 -123.5t68 -99t99.5 -66t122 -24.5q65 0 122.5 24.5t100.5 66t67.5 99t24.5 123.5v563h143v-563q0 -95 -35.5 -178.5t-98 -146.5t-146.5 -99.5t-178 -36.5t-178.5 36.5t-146.5 99.5t-99 146.5t-37 178.5v1zM245 1218l215 332h134 l215 -332h-121l-165 230l-165 -230h-113z" />
<glyph unicode="&#xfc;" horiz-adv-x="1059" d="M67 1024h146l4 -562v-1q0 -66 24.5 -123.5t68 -99t99 -66t122.5 -24.5q65 0 122.5 24.5t100 66t67.5 99t25 123.5v563h143v-563q0 -95 -36 -178.5t-98.5 -146.5t-146 -99.5t-177.5 -36.5t-178.5 36.5t-146.5 99.5t-99.5 146.5t-37.5 178.5v1zM239 1343q0 56 28 79t68 23 q39 0 67.5 -24.5t28.5 -77.5t-28.5 -78t-67.5 -25q-40 0 -68 25t-28 78zM614 1343q0 56 27.5 79t69.5 23q18 0 35 -5.5t30.5 -18t22 -32.5t8.5 -46q0 -53 -30 -78t-66 -25q-41 0 -69 25t-28 78z" />
<glyph unicode="&#xfd;" horiz-adv-x="1071" d="M80 1024h145l5 -562v-1q0 -66 24 -123.5t67.5 -99t99.5 -66t122 -24.5q65 0 122.5 24.5t100.5 66t68 99t25 123.5v563h142v-563q0 -95 -35.5 -178.5t-98 -146.5t-146.5 -99q-51 -23 -107 -33l2 -463h-144l-2 463q-56 10 -105 33q-85 36 -147 99t-99 146.5t-37 178.5v1z M352 1221v26q23 28 46 66.5t47 79.5t44 81.5t36 73.5h220v-20q-17 -27 -48.5 -68t-69 -85t-79 -85t-75.5 -69h-121z" />
<glyph unicode="&#xfe;" horiz-adv-x="1201" d="M165 -471v1986h165v-671h4q121 205 354 205q199 0 309.5 -138.5t110.5 -367.5q0 -259 -124.5 -413.5t-342.5 -154.5q-198 0 -307 173h-4v-619h-165zM330 418q0 -127 82.5 -215t210.5 -88q147 0 232 113.5t85 316.5q0 172 -79 268t-214 96q-144 0 -230.5 -99t-86.5 -248 v-144z" />
<glyph unicode="&#xff;" horiz-adv-x="1071" d="M80 1024h145l5 -562v-1q0 -66 24 -123.5t67.5 -99t99.5 -66t122 -24.5q65 0 122.5 24.5t100.5 66t68 99t25 123.5v563h142v-563q0 -95 -35.5 -178.5t-98 -146.5t-146.5 -99q-51 -23 -107 -33l2 -463h-144l-2 463q-56 10 -105 33q-85 36 -147 99t-99 146.5t-37 178.5v1z M273 1343q0 56 28 79t68 23q39 0 67.5 -24.5t28.5 -77.5t-28 -78t-68 -25t-68 25t-28 78zM649 1343q0 56 27 79t69 23q18 0 35 -5.5t30.5 -18t22 -32.5t8.5 -46q0 -53 -30 -78t-66 -25q-41 0 -68.5 25t-27.5 78z" />
<glyph unicode="&#x100;" horiz-adv-x="1128" d="M27 0l458 1434h150l460 -1434h-149l-183 558h-409l-178 -558h-149zM246 1676q0 73 88 81h418q80 -8 88 -81q-8 -88 -88 -88h-418q-88 0 -88 88zM401 700h318l-158 498z" />
<glyph unicode="&#x101;" horiz-adv-x="1265" d="M55 514q0 117 44.5 219.5t121 179t179 120.5t219.5 44t219 -44t178.5 -120.5t120.5 -179t44 -219.5v-514h-143v138q-10 -10 -22 -23q-76 -76 -178.5 -120.5t-218.5 -44.5q-117 0 -219.5 44.5t-179 121t-121 179t-44.5 219.5zM199 514q0 -86 32.5 -163t90 -134.5 t134.5 -90t163 -32.5t163 32.5t134 90t89 134.5q29 69 33 144v19q0 86 -32.5 163t-89.5 134.5t-134.5 90t-162.5 32.5q-86 0 -163 -32.5t-134.5 -90t-90 -134.5t-32.5 -163zM307 1344q0 71 88 79h416q80 -8 88 -79q-8 -88 -88 -88h-416q-88 0 -88 88z" />
<glyph unicode="&#x102;" horiz-adv-x="1126" d="M22 0l458 1434h150l460 -1434h-149l-183 558h-409l-178 -558h-149zM268 1818h100q12 -155 173 -155q67 0 115 42t59 113h102q-10 -113 -87.5 -182t-190.5 -69q-117 0 -191 68.5t-80 182.5zM396 700h318l-159 498z" />
<glyph unicode="&#x103;" horiz-adv-x="1298" d="M59 514q0 117 44.5 219.5t121 179t179 120.5t219.5 44t219 -44t178.5 -120.5t120.5 -179t44 -219.5v-514h-142v138l-23 -23q-76 -76 -178 -120.5t-219 -44.5t-219.5 44.5t-179 121t-121 179t-44.5 219.5zM203 514q0 -86 32.5 -163t90 -134.5t134.5 -90t163 -32.5 t163 32.5t134 90t90 134.5q29 69 33 144v19q0 86 -33 163t-90 134.5t-134 90t-163 32.5t-163 -32.5t-134.5 -90t-90 -134.5t-32.5 -163zM333 1471h100q11 -156 172 -156q67 0 115.5 41.5t58.5 114.5h102q-10 -113 -87.5 -183t-190.5 -70q-117 0 -191 69t-79 184z" />
<glyph unicode="&#x104;" horiz-adv-x="1138" d="M22 0l458 1434h150l460 -1434h-149l-183 558h-409l-178 -558h-149zM396 700h318l-159 498zM836 -250q0 123 157 250h119q-150 -142 -150 -223q0 -69 68 -70q31 0 55 13v-107q-28 -12 -82 -12q-76 0 -121.5 39.5t-45.5 109.5z" />
<glyph unicode="&#x105;" horiz-adv-x="1304" d="M59 514q0 117 44.5 219.5t121 179t179 120.5t219.5 44t219 -44t178.5 -120.5t120.5 -179t44 -219.5v-514h-142v138l-23 -23q-76 -76 -178 -120.5t-219 -44.5t-219.5 44.5t-179 121t-121 179t-44.5 219.5zM203 514q0 -86 32.5 -163t90 -134.5t134.5 -90t163 -32.5 t163 32.5t134 90t90 134.5q29 69 33 144v19q0 86 -33 163t-90 134.5t-134 90t-163 32.5t-163 -32.5t-134.5 -90t-90 -134.5t-32.5 -163zM567 -271q0 123 158 250h119q-150 -142 -150 -223q0 -69 68 -69q30 0 55 12v-107q-29 -12 -82 -12q-76 0 -122 40t-46 109z" />
<glyph unicode="&#x106;" horiz-adv-x="1600" d="M57 717q0 157 60.5 296.5t165 244t244 165t296.5 60.5t297 -60.5t244 -164.5q80 -80 133 -181h-172q-29 41 -65 76q-84 86 -196.5 135t-240.5 49q-127 0 -240.5 -49t-198.5 -133.5t-134 -197.5t-49 -240t49 -241t134 -199t198.5 -134t240.5 -49t240 49t197 133 q36 37 67 81h170q-53 -100 -133 -181q-104 -104 -243.5 -165t-297.5 -61q-157 0 -296.5 60.5t-244 165t-165 244.5t-60.5 297zM666 1609v27q22 29 45.5 67t47 79t44 82t37.5 73h219v-20q-17 -26 -48 -67t-69.5 -85.5t-79.5 -85.5t-76 -70h-120z" />
<glyph unicode="&#x107;" horiz-adv-x="1236" d="M55 514q0 117 44.5 219.5t121 179t179 120.5t219.5 44t219 -44t178.5 -120.5t120.5 -179.5l6 -14h-160q-26 51 -68 92q-57 58 -134 90.5t-162 32.5q-86 0 -163 -32.5t-134.5 -90t-90 -134.5t-32.5 -163t32.5 -163t90 -134.5t134.5 -90t163 -32.5t163 32.5t133 90.5 q41 40 70 94h158l-6 -16q-43 -102 -120 -179t-179.5 -121.5t-218.5 -44.5q-117 0 -219.5 44.5t-179 121t-121 179t-44.5 219.5zM477 1241v27q23 28 46.5 66.5t47 79t44 81.5t37.5 74h218v-21q-16 -27 -48 -67.5t-69.5 -84.5t-78.5 -85t-76 -70h-121z" />
<glyph unicode="&#x108;" horiz-adv-x="1617" d="M73 717q0 157 60.5 296.5t165 244t244.5 165t297 60.5t296.5 -60.5t244.5 -164.5q80 -80 132 -181h-171q-29 41 -66 76q-84 86 -196.5 135t-239.5 49t-241 -49t-199 -133.5t-134 -197.5t-49 -240t49 -241t134 -199t199 -134t241 -49t240 49t196 133q36 37 68 81h169 q-53 -100 -132 -181q-104 -104 -244 -165t-297 -61t-297 60.5t-244.5 165t-165 244.5t-60.5 297zM489 1610l215 331h134l215 -331h-121l-163 229l-167 -229h-113z" />
<glyph unicode="&#x109;" horiz-adv-x="1242" d="M55 514q0 117 44.5 219.5t121 179t179 120.5t219.5 44t219 -44t178.5 -120.5t120.5 -179.5l6 -14h-160q-26 51 -68 92q-57 58 -134 90.5t-162 32.5q-86 0 -163 -32.5t-134.5 -90t-90 -134.5t-32.5 -163t32.5 -163t90 -134.5t134.5 -90t163 -32.5t163 32.5t133 90.5 q41 40 70 94h158l-6 -16q-43 -102 -120 -179t-179.5 -121.5t-218.5 -44.5q-117 0 -219.5 44.5t-179 121t-121 179t-44.5 219.5zM276 1218l215 332h134l215 -332h-121l-164 230l-166 -230h-113z" />
<glyph unicode="&#x10a;" horiz-adv-x="1559" d="M55 717q0 157 60.5 296.5t165 244t244 165t296.5 60.5t297 -60.5t244 -164.5q80 -80 133 -181h-172q-29 41 -65 76q-84 86 -197 135t-240 49t-241 -49t-198.5 -133.5t-133.5 -197.5t-49 -240t49 -241t133.5 -199t198.5 -134t241 -49t240 49t197 133q36 37 67 81h170 q-53 -100 -133 -181q-104 -104 -244 -165t-297 -61t-296.5 60.5t-244 165t-165 244.5t-60.5 297zM662 1733q8 104 113 112q104 -8 111 -112q-7 -103 -111 -110q-105 7 -113 110z" />
<glyph unicode="&#x10b;" horiz-adv-x="1201" d="M55 514q0 117 44.5 219.5t121 179t179 120.5t219.5 44t219 -44t178.5 -120.5t120.5 -179.5l6 -14h-160q-26 51 -68 92q-57 58 -134 90.5t-162 32.5q-86 0 -163 -32.5t-134.5 -90t-90 -134.5t-32.5 -163t32.5 -163t90 -134.5t134.5 -90t163 -32.5t163 32.5t133 90.5 q41 40 70 94h158l-6 -16q-43 -102 -120 -179t-179.5 -121.5t-218.5 -44.5q-117 0 -219.5 44.5t-179 121t-121 179t-44.5 219.5zM443 1360q8 104 112 113q104 -8 113 -113q-8 -104 -113 -111q-104 7 -112 111z" />
<glyph unicode="&#x10c;" horiz-adv-x="1577" d="M51 717q0 157 60.5 296.5t165 244t244 165t296.5 60.5t297 -60.5t244 -164.5q80 -80 132 -181h-171q-29 41 -65 76q-84 86 -197 135t-240 49t-241 -49t-198.5 -133.5t-134 -197.5t-49.5 -240t49.5 -241t134 -199t198.5 -134t241 -49t240 49t197 133q36 37 67 81h169 q-53 -100 -132 -181q-104 -104 -244 -165t-297 -61t-296.5 60.5t-244 165t-165 244.5t-60.5 297zM449 1835q0 71 72 80q24 0 47 -9l192 -79l193 79q25 8 47 9q63 -8 72 -80q0 -48 -47 -72l-265 -112l-264 112q-48 25 -47 72z" />
<glyph unicode="&#x10d;" horiz-adv-x="1207" d="M55 514q0 117 44.5 219.5t121 179t179 120.5t219.5 44t219 -44t178.5 -120.5t120.5 -179.5l6 -14h-160q-26 51 -68 92q-57 58 -134 90.5t-162 32.5q-86 0 -163 -32.5t-134.5 -90t-90 -134.5t-32.5 -163t32.5 -163t90 -134.5t134.5 -90t163 -32.5t163 32.5t133 90.5 q41 40 70 94h158l-6 -16q-43 -102 -120 -179t-179.5 -121.5t-218.5 -44.5q-117 0 -219.5 44.5t-179 121t-121 179t-44.5 219.5zM287 1434q0 71 71 79q25 0 47 -8l193 -80l192 80q25 8 48 8q63 -8 71 -79q0 -47 -46 -72l-265 -113l-264 113q-48 25 -47 72z" />
<glyph unicode="&#x10e;" horiz-adv-x="1335" d="M88 0v1434h480q149 0 280.5 -56.5t226.5 -153t152.5 -227t57.5 -278.5t-57.5 -279t-152.5 -229t-226.5 -154.5t-280.5 -56.5h-480zM159 1813q0 71 72 80q25 0 47 -8l193 -80l192 80q25 8 48 8q63 -8 71 -80q0 -48 -47 -72l-264 -112l-264 112q-48 25 -48 72zM230 144h338 q120 0 223.5 45t181.5 123.5t123 183t45 223.5t-45 222.5t-123 181t-181.5 122.5t-223.5 45h-338v-1146z" />
<glyph unicode="&#x10f;" horiz-adv-x="1253" d="M23 514q0 117 44 219.5t120.5 179t179 120.5t218.5 44q117 0 240 -62t180 -154v573h144v-920q0 -117 -44 -219.5t-121 -179t-179.5 -121t-219.5 -44.5t-219 44.5t-178.5 121t-120.5 179t-44 219.5zM165 514q0 -86 33.5 -163t91 -134.5t134 -90t161.5 -32.5q86 0 163 32.5 t134.5 90t90 134.5t32.5 163t-32.5 163t-90 134.5t-134.5 90t-163 32.5t-162 -32.5t-133.5 -90t-91 -134.5t-33.5 -163zM446 1256l116 259h172l-166 -259h-122z" />
<glyph unicode="&#x110;" horiz-adv-x="1435" d="M29 641v155h159v638h395q758 0 759 -699q0 -334 -210 -534.5t-565 -200.5h-379v641h-159zM357 152h212q283 0 440 151.5t157 427.5q0 550 -587 551h-222v-486h335v-155h-335v-489z" />
<glyph unicode="&#x111;" horiz-adv-x="1259" d="M54 514q0 117 44 219.5t120.5 179t179 120.5t218.5 44q117 0 240.5 -62t179.5 -154v573h144v-920q0 -117 -44 -219.5t-121 -179t-179.5 -121t-219.5 -44.5t-219 44.5t-178.5 121t-120.5 179t-44 219.5zM197 514q0 -86 33 -163t90.5 -134.5t134 -90t161.5 -32.5 q86 0 163 32.5t134.5 90t90 134.5t32.5 163t-32.5 163t-90 134.5t-134.5 90t-163 32.5t-162 -32.5t-133.5 -90t-90.5 -134.5t-33 -163zM719 1202v133h612v-133h-612z" />
<glyph unicode="&#x112;" horiz-adv-x="1115" d="M99 0v1434h953v-144h-811v-590h669v-142h-669v-414h811v-144h-953zM274 1686q0 74 89 82h417q81 -8 89 -82q-8 -88 -89 -88h-417q-89 0 -89 88z" />
<glyph unicode="&#x113;" horiz-adv-x="1265" d="M55 514q0 117 44.5 219.5t121 179t179 120.5t219.5 44t219 -44t178.5 -120.5t120.5 -179.5q37 -84 42 -175h-978q-2 -23 -2 -44q0 -86 32.5 -163t90 -134.5t134.5 -90t163 -32.5t163 32.5t133 90.5q41 40 70 94h158l-6 -16q-43 -102 -120 -179t-179.5 -121.5 t-218.5 -44.5q-117 0 -219.5 44.5t-179 121t-121 179t-44.5 219.5zM242 700h751q-30 62 -78 111q-57 58 -134 90.5t-162 32.5q-86 0 -163 -32.5t-134 -90.5q-50 -49 -80 -111zM301 1344q0 79 88 79h410q80 0 87 -79q-8 -88 -87 -88h-410q-88 0 -88 88z" />
<glyph unicode="&#x114;" horiz-adv-x="1131" d="M70 0v1434h953v-144h-811v-590h669v-142h-669v-414h811v-144h-953zM269 1820h100q12 -155 173 -155q67 0 115 42t59 113h102q-10 -113 -87.5 -182t-190.5 -69q-117 0 -191 68.5t-80 182.5z" />
<glyph unicode="&#x115;" horiz-adv-x="1271" d="M55 514q0 117 44.5 219.5t121 179t179 120.5t219.5 44t219 -44t178.5 -120.5t120.5 -179.5q37 -84 42 -175h-978q-2 -23 -2 -44q0 -86 32.5 -163t90 -134.5t134.5 -90t163 -32.5t163 32.5t133 90.5q41 40 70 94h158l-6 -16q-43 -102 -120 -179t-179.5 -121.5 t-218.5 -44.5q-117 0 -219.5 44.5t-179 121t-121 179t-44.5 219.5zM242 700h751q-30 62 -78 111q-57 58 -134 90.5t-162 32.5q-86 0 -163 -32.5t-134 -90.5q-50 -49 -80 -111zM282 1471h101q12 -156 172 -156q67 0 115.5 41.5t58.5 114.5h103q-10 -113 -88 -183t-191 -70 q-117 0 -190.5 69t-80.5 184z" />
<glyph unicode="&#x116;" horiz-adv-x="1108" d="M76 0v1434h952v-144h-811v-590h669v-142h-669v-414h811v-144h-952zM410 1712q8 104 112 113q104 -8 113 -113q-8 -103 -113 -110q-104 7 -112 110z" />
<glyph unicode="&#x117;" horiz-adv-x="1266" d="M61 514q0 117 44.5 219.5t121 179t179 120.5t219.5 44t219 -44t179 -120.5t120 -179.5q37 -84 42 -175h-978q-2 -23 -2 -44q0 -86 32.5 -163t90 -134.5t134.5 -90t163 -32.5t163 32.5t134 90.5q41 40 69 94h158l-6 -16q-43 -102 -120 -179t-179 -121.5t-219 -44.5 t-219.5 44.5t-179 121t-121 179t-44.5 219.5zM248 700h751q-29 62 -77 111q-57 58 -134 90.5t-163 32.5t-163 -32.5t-134 -90.5q-50 -49 -80 -111zM459 1344q7 104 112 112q104 -8 113 -112q-8 -104 -113 -111q-105 7 -112 111z" />
<glyph unicode="&#x118;" horiz-adv-x="1142" d="M82 0v1434h952v-144h-811v-590h670v-142h-670v-414h811v-144h-952zM588 -250q0 123 158 250h119q-150 -142 -150 -223q0 -69 67 -70q31 0 56 13v-107q-29 -12 -82 -12q-77 0 -122.5 39.5t-45.5 109.5z" />
<glyph unicode="&#x119;" horiz-adv-x="1282" d="M55 514q0 117 44.5 219.5t121 179t179 120.5t219.5 44t219 -44t178.5 -120.5t120.5 -179.5q37 -84 42 -175h-978q-2 -23 -2 -44q0 -86 32.5 -163t90 -134.5t134.5 -90t163 -32.5t163 32.5t133 90.5q41 40 70 94h158l-6 -16q-43 -102 -120 -179t-179.5 -121.5 t-218.5 -44.5q-117 0 -219.5 44.5t-179 121t-121 179t-44.5 219.5zM242 700h751q-30 62 -78 111q-57 58 -134 90.5t-162 32.5q-86 0 -163 -32.5t-134 -90.5q-50 -49 -80 -111zM479 -271q0 123 158 250h119q-150 -142 -150 -223q0 -69 67 -69q31 0 56 12v-107 q-29 -12 -82 -12q-77 0 -122.5 40t-45.5 109z" />
<glyph unicode="&#x11a;" horiz-adv-x="1115" d="M82 0v1434h952v-144h-811v-590h670v-142h-670v-414h811v-144h-952zM237 1793q0 71 72 79q24 0 47 -8l192 -80l193 80q25 8 47 8q63 -8 72 -79q0 -48 -47 -73l-265 -112l-264 112q-48 25 -47 73z" />
<glyph unicode="&#x11b;" horiz-adv-x="1271" d="M55 514q0 117 44.5 219.5t121 179t179 120.5t219.5 44t219 -44t178.5 -120.5t120.5 -179.5q37 -84 42 -175h-978q-2 -23 -2 -44q0 -86 32.5 -163t90 -134.5t134.5 -90t163 -32.5t163 32.5t133 90.5q41 40 70 94h158l-6 -16q-43 -102 -120 -179t-179.5 -121.5 t-218.5 -44.5q-117 0 -219.5 44.5t-179 121t-121 179t-44.5 219.5zM242 700h751q-30 62 -78 111q-57 58 -134 90.5t-162 32.5q-86 0 -163 -32.5t-134 -90.5q-50 -49 -80 -111zM266 1440q0 63 71 71q8 0 40 -8l200 -71l193 71q25 8 39 8q63 -8 71 -71q0 -48 -39 -72 l-264 -112l-272 112q-48 24 -39 72z" />
<glyph unicode="&#x11c;" horiz-adv-x="1646" d="M68 717q0 157 60.5 296.5t165 244t244 165t297.5 60.5q157 0 296.5 -60.5t244.5 -164.5q80 -80 132 -181h-172q-29 41 -65 76q-84 86 -196.5 135t-239.5 49t-241 -49t-199 -133.5t-134 -197.5t-49 -240t49 -241t134 -199t198.5 -134t241.5 -49q127 0 245.5 40t205 154.5 t81.5 269.5h-480v142h646q2 -338 -119.5 -489.5t-271.5 -206t-307 -54.5t-297 60.5t-244.5 165t-165 244.5t-60.5 297zM509 1600l247 331h152l247 -331h-138l-188 229l-191 -229h-129z" />
<glyph unicode="&#x11d;" horiz-adv-x="1277" d="M53 514q0 117 44.5 219.5t121 179t179 120.5t218.5 44q117 0 219.5 -44t178.5 -122q12 -10 22 -22v135h143v-487v-430q0 -117 -44 -219.5t-120.5 -179t-179 -121t-219.5 -44.5t-219 44.5t-180 121.5q-41 40 -73 92l104 105q28 -54 72 -96q57 -58 134 -90.5t162 -32.5 q86 0 163 32.5t134.5 90t90 134.5t32.5 163v31q-10 -10 -22 -23q-76 -76 -178.5 -120.5t-219.5 -44.5t-219 44.5t-178.5 121t-121 179t-44.5 219.5zM197 514q0 -86 32.5 -163t90 -134.5t134.5 -90t162 -32.5q86 0 163 32.5t134.5 90t90 134.5t32.5 180q0 80 -29 146 q-36 77 -93.5 134.5t-134.5 90t-163 32.5t-162.5 -32.5t-134 -90t-90 -134.5t-32.5 -163zM301 1218l215 332h134l215 -332h-121l-165 230l-165 -230h-113z" />
<glyph unicode="&#x11e;" horiz-adv-x="1629" d="M57 717q0 157 60.5 296.5t165 244t244 165t296.5 60.5t297 -60.5t244 -164.5q80 -80 133 -181h-172q-29 41 -65 76q-84 86 -196.5 135t-240.5 49q-127 0 -240.5 -49t-198.5 -133.5t-134 -197.5t-49 -240t49 -241t134 -199t198.5 -134t240.5 -49t245.5 40t205 154.5 t82.5 269.5h-480v142h646q2 -338 -119.5 -489.5t-271.5 -206t-308 -54.5q-157 0 -296.5 60.5t-244 165t-165 244.5t-60.5 297zM518 1858h101q12 -155 171 -155q68 0 116.5 41.5t58.5 113.5h102q-10 -113 -88 -182.5t-191 -69.5q-117 0 -190.5 68.5t-79.5 183.5z" />
<glyph unicode="&#x11f;" horiz-adv-x="1306" d="M69 514q0 117 44.5 219.5t121 179t179 120.5t219.5 44t219.5 -44t177.5 -122q12 -10 23 -22v135h143v-487v-430q0 -117 -44 -219.5t-120.5 -179t-179 -121t-219.5 -44.5t-219.5 44.5t-179.5 121.5q-41 40 -74 92l105 105q28 -54 71 -96q57 -58 134 -90.5t163 -32.5 t163 32.5t134.5 90t90 134.5t32.5 163v31l-23 -23q-76 -76 -178 -120.5t-219 -44.5t-219.5 44.5t-179 121t-121 179t-44.5 219.5zM213 514q0 -86 32.5 -163t90 -134.5t134.5 -90t163 -32.5t163 32.5t134.5 90t90 134.5t32.5 180q0 80 -29 146q-36 77 -93.5 134.5t-134.5 90 t-163 32.5t-163 -32.5t-134.5 -90t-90 -134.5t-32.5 -163zM326 1471h100q12 -156 172 -156q68 0 116 41.5t59 114.5h102q-10 -113 -88 -183t-191 -70q-117 0 -190.5 69t-79.5 184z" />
<glyph unicode="&#x120;" horiz-adv-x="1634" d="M63 717q0 157 60.5 296.5t165 244t244 165t297.5 60.5q157 0 296.5 -60.5t244.5 -164.5q80 -80 132 -181h-172q-29 41 -65 76q-84 86 -196.5 135t-239.5 49t-241 -49t-199 -133.5t-134 -197.5t-49 -240t49 -241t134 -199t198.5 -134t241.5 -49q127 0 245.5 40 t204.5 154.5t82 269.5h-480v142h646q2 -338 -119.5 -489.5t-271.5 -206t-307 -54.5t-297 60.5t-244.5 165t-165 244.5t-60.5 297zM682 1733q8 104 112 112q104 -8 113 -112q-8 -103 -113 -110q-104 7 -112 110z" />
<glyph unicode="&#x121;" horiz-adv-x="1250" d="M53 514q0 117 44.5 219.5t121 179t179 120.5t218.5 44q117 0 219.5 -44t178.5 -122q12 -10 22 -22v135h143v-487v-430q0 -117 -44 -219.5t-120.5 -179t-179 -121t-219.5 -44.5t-219 44.5t-180 121.5q-41 40 -73 92l104 105q28 -54 72 -96q57 -58 134 -90.5t162 -32.5 q86 0 163 32.5t134.5 90t90 134.5t32.5 163v31q-10 -10 -22 -23q-76 -76 -178.5 -120.5t-219.5 -44.5t-219 44.5t-178.5 121t-121 179t-44.5 219.5zM197 514q0 -86 32.5 -163t90 -134.5t134.5 -90t162 -32.5q86 0 163 32.5t134.5 90t90 134.5t32.5 180q0 80 -29 146 q-36 77 -93.5 134.5t-134.5 90t-163 32.5t-162.5 -32.5t-134 -90t-90 -134.5t-32.5 -163zM443 1344q7 104 111 112q104 -8 113 -112q-8 -104 -113 -111q-104 7 -111 111z" />
<glyph unicode="&#x122;" horiz-adv-x="1405" d="M94 698q0 332 210 546t534 214q234 0 393 -75v-187q-174 111 -412 110q-242 0 -395.5 -166t-153.5 -429q0 -272 142.5 -428t388.5 -156q169 0 290 67v402h-313v152h482v-650q-215 -123 -480 -123q-307 0 -496.5 198.5t-189.5 524.5zM545 -379l138 307h201l-194 -307h-145 z" />
<glyph unicode="&#x123;" horiz-adv-x="1282" d="M53 514q0 117 44.5 219.5t121 179t179 120.5t218.5 44q117 0 219.5 -44t178.5 -122q12 -10 22 -22v135h143v-487v-430q0 -117 -44 -219.5t-120.5 -179t-179 -121t-219.5 -44.5t-219 44.5t-180 121.5q-41 40 -73 92l104 105q28 -54 72 -96q57 -58 134 -90.5t162 -32.5 q86 0 163 32.5t134.5 90t90 134.5t32.5 163v31q-10 -10 -22 -23q-76 -76 -178.5 -120.5t-219.5 -44.5t-219 44.5t-178.5 121t-121 179t-44.5 219.5zM197 514q0 -86 32.5 -163t90 -134.5t134.5 -90t162 -32.5q86 0 163 32.5t134.5 90t90 134.5t32.5 180q0 80 -29 146 q-36 77 -93.5 134.5t-134.5 90t-163 32.5t-162.5 -32.5t-134 -90t-90 -134.5t-32.5 -163zM471 1218l166 261h123l-117 -261h-172z" />
<glyph unicode="&#x124;" horiz-adv-x="1116" d="M88 0v1434h142v-734h669v734h142v-1434h-142v558h-669v-558h-142zM294 1567l215 331h132l215 -331h-121l-163 229l-166 -229h-112z" />
<glyph unicode="&#x125;" horiz-adv-x="1126" d="M93 0v1434h146v-500q27 33 60.5 59.5t75.5 45t87 28.5t90 10q94 0 178 -37t146.5 -99.5t99.5 -146t37 -178.5v-2l2 -614h-149v614v2q0 65 -25 122.5t-68 99.5t-101.5 67t-119.5 25q-64 0 -119 -27t-97 -71t-67.5 -100.5t-25.5 -117.5v-614h-150zM360 1574l215 332h132 l216 -332h-121l-164 230l-165 -230h-113z" />
<glyph unicode="&#x126;" horiz-adv-x="1452" d="M29 1028v151h159v255h169v-255h740v255h169v-255h159v-151h-159v-1028h-169v654h-740v-654h-169v1028h-159zM357 805h740v223h-740v-223z" />
<glyph unicode="&#x127;" horiz-adv-x="1157" d="M31 1202v133h134v180h165v-180h332v-133h-332v-348h4q121 194 335 195q169 0 258 -107.5t89 -310.5v-631h-164v590q0 320 -238 319q-121 0 -202.5 -92t-81.5 -238v-579h-165v1202h-134z" />
<glyph unicode="&#x128;" horiz-adv-x="302" d="M-175 1548q0 107 48.5 171.5t134.5 64.5q65 0 149 -51q74 -44 127 -45q84 0 84 116h98q0 -104 -48 -170.5t-129 -66.5q-71 0 -162 51q-79 43 -119 43q-88 0 -88 -113h-95zM81 0v1434h141v-1434h-141z" />
<glyph unicode="&#x129;" horiz-adv-x="467" d="M-104 1202q0 107 48 171.5t134 64.5q65 0 150 -52q73 -44 126 -44q85 0 85 116h98q0 -104 -48 -170.5t-131 -66.5q-71 0 -161 51q-78 42 -119 43q-88 0 -88 -113h-94zM145 0v1024h164v-1024h-164z" />
<glyph unicode="&#x12a;" horiz-adv-x="315" d="M-132 1676q0 73 88 81h417q81 -8 89 -81q-8 -88 -89 -88h-417q-88 0 -88 88zM93 0v1434h142v-1434h-142z" />
<glyph unicode="&#x12b;" horiz-adv-x="495" d="M-51 1324q0 74 88 82h418q81 -8 89 -82q-8 -88 -89 -88h-418q-88 0 -88 88zM165 0v1024h165v-1024h-165z" />
<glyph unicode="&#x12c;" horiz-adv-x="300" d="M-108 1839h101q12 -155 171 -155q68 0 116.5 42t58.5 113h103q-10 -113 -88.5 -182t-191.5 -69q-116 0 -189.5 68t-80.5 183zM80 0v1434h141v-1434h-141z" />
<glyph unicode="&#x12d;" horiz-adv-x="467" d="M-37 1471h100q12 -156 173 -156q67 0 115 41.5t59 114.5h102q-10 -113 -87.5 -183t-190.5 -70q-117 0 -191 69t-80 184zM155 0v1024h165v-1024h-165z" />
<glyph unicode="&#x12e;" horiz-adv-x="296" d="M-12 -250q0 123 157 250h119q-150 -142 -150 -223q0 -69 68 -70q30 0 55 13v-107q-29 -12 -82 -12q-76 0 -121.5 39.5t-45.5 109.5zM74 0v1434h142v-1434h-142z" />
<glyph unicode="&#x12f;" horiz-adv-x="275" d="M-49 -250q0 123 159 250h119q-150 -142 -150 -223q0 -69 68 -70q30 0 55 13v-107q-29 -12 -82 -12q-76 0 -122.5 39.5t-46.5 109.5zM53 1348q0 36 24.5 61t62.5 25q36 0 60.5 -25t24.5 -61q0 -37 -24.5 -61.5t-60.5 -24.5q-37 0 -62 24.5t-25 61.5zM65 0v1024h144v-1024 h-144z" />
<glyph unicode="&#x130;" horiz-adv-x="309" d="M52 1701q8 104 112 113q104 -8 113 -113q-8 -103 -113 -109q-104 6 -112 109zM88 0v1434h142v-1434h-142z" />
<glyph unicode="&#x131;" horiz-adv-x="495" d="M165 0v1024h165v-1024h-165z" />
<glyph unicode="&#x132;" horiz-adv-x="1756" d="M76 0v1434h141v-1434h-141zM567 428h144q0 -69 25.5 -129.5t70.5 -105.5t106 -72t132 -27q69 0 129.5 27t105.5 72t71.5 105.5t26.5 129.5v862h-667v144h811v-1006q0 -98 -38 -185.5t-102.5 -151.5t-152.5 -102.5t-184 -38.5q-98 0 -185.5 38.5t-152 102.5t-102.5 151.5 t-38 185.5z" />
<glyph unicode="&#x133;" horiz-adv-x="900" d="M53 1348q0 36 24.5 61t62.5 25q36 0 60.5 -25t24.5 -61q0 -37 -24.5 -61.5t-60.5 -24.5q-37 0 -62 24.5t-25 61.5zM65 0v1024h144v-1024h-144zM199 -129h148q0 -53 37.5 -91t90.5 -38q54 0 92.5 38t38.5 91v1153h144v-1153q0 -57 -22 -107.5t-59.5 -87t-87.5 -58 t-108 -21.5q-57 0 -107.5 21.5t-87 58t-58 87t-21.5 107.5zM592 1348q0 36 24.5 61t60.5 25q37 0 62 -25t25 -61q0 -37 -24.5 -61.5t-62.5 -24.5q-36 0 -60.5 24.5t-24.5 61.5z" />
<glyph unicode="&#x134;" horiz-adv-x="1137" d="M52 428h142q0 -69 26 -129.5t71 -105.5t106.5 -72t131.5 -27q69 0 129.5 27t105.5 72t72 105.5t27 129.5v862h-669v144h811v-1006q0 -98 -37.5 -185.5t-102 -151.5t-152.5 -102.5t-184 -38.5q-98 0 -185 38.5t-152 102.5t-102.5 151.5t-37.5 185.5zM319 1567l215 331h133 l215 -331h-121l-164 229l-166 -229h-112z" />
<glyph unicode="&#x135;" horiz-adv-x="495" d="M-199 -297q73 -46 142 -45q222 0 222 359v1007h165v-981q0 -252 -101.5 -388t-289.5 -136q-70 0 -138 30v154zM-37 1218l215 332h133l215 -332h-121l-163 230l-166 -230h-113z" />
<glyph unicode="&#x136;" horiz-adv-x="1187" d="M137 0v1434h168v-674h3q14 22 37 49l537 625h209l-614 -688l657 -746h-233l-556 656q-31 36 -37 50h-3v-706h-168zM401 -379l116 260h173l-167 -260h-122z" />
<glyph unicode="&#x137;" horiz-adv-x="1017" d="M165 0v1515h165v-960h4l430 469h214l-474 -493l512 -531h-230l-452 491h-4v-491h-165zM355 -379l116 260h172l-166 -260h-122z" />
<glyph unicode="&#x138;" horiz-adv-x="1017" d="M165 0v1024h165v-469h4l430 469h214l-474 -493l512 -531h-230l-452 491h-4v-491h-165z" />
<glyph unicode="&#x139;" horiz-adv-x="1121" d="M88 0v1434h142v-1290h811v-144h-953zM555 1589v27q23 29 46.5 66.5t47 78.5t44 82.5t36.5 73.5h219v-21q-17 -26 -48 -67t-69 -85.5t-79 -85t-76 -69.5h-121z" />
<glyph unicode="&#x13a;" horiz-adv-x="393" d="M33 1674v25q23 29 46 67t47 79.5t44.5 82t36.5 72.5h219v-19q-17 -27 -48 -68t-69 -85t-79 -85.5t-76 -68.5h-121zM129 0v1434h142v-1434h-142z" />
<glyph unicode="&#x13b;" horiz-adv-x="1086" d="M76 0v1434h141v-1290h811v-144h-952zM403 -374q14 -4 38.5 -5.5t41.5 -1.5q72 0 112 21.5t40 70.5q0 25 -13.5 42t-36 29.5t-54 23t-69.5 18.5l91 176h120l-57 -115q35 -8 64 -21.5t50.5 -33.5t33.5 -49.5t12 -67.5q0 -96 -70.5 -150t-220.5 -54q-23 0 -45 3t-37 5v109z " />
<glyph unicode="&#x13c;" horiz-adv-x="313" d="M-20 -374q14 -4 38.5 -5.5t41.5 -1.5q71 0 111.5 21.5t40.5 70.5q0 25 -13.5 42t-36 29.5t-54 23t-69.5 18.5l90 176h121l-57 -115q34 -8 63 -21.5t50.5 -33.5t34 -49.5t12.5 -67.5q0 -96 -70.5 -150t-220.5 -54q-23 0 -45 3t-37 5v109zM76 0v1434h141v-1434h-141z" />
<glyph unicode="&#x13d;" horiz-adv-x="884" d="M85 0v1434h168v-1282h576v-152h-744zM482 1174l117 260h172l-166 -260h-123z" />
<glyph unicode="&#x13e;" horiz-adv-x="525" d="M83 0v1515h164v-1515h-164zM335 1249l117 260h172l-166 -260h-123z" />
<glyph unicode="&#x13f;" horiz-adv-x="1102" d="M88 0v1434h142v-1290h811v-144h-953zM515 1007q8 104 113 113q104 -8 113 -113q-8 -104 -113 -110q-105 6 -113 110z" />
<glyph unicode="&#x140;" horiz-adv-x="438" d="M76 0v1434h141v-1434h-141zM317 997q8 104 112 113q104 -8 113 -113q-8 -104 -113 -111q-104 7 -112 111z" />
<glyph unicode="&#x141;" horiz-adv-x="962" d="M33 451v151l155 96v736h169v-631l327 202v-153l-327 -200v-500h575v-152h-744v547z" />
<glyph unicode="&#x142;" horiz-adv-x="559" d="M23 459v157l169 119v780h165v-669l174 123v-158l-174 -123v-688h-165v577z" />
<glyph unicode="&#x143;" horiz-adv-x="1131" d="M76 0v1434h141l669 -1147v1147h142v-1434h-142l-669 1147v-1147h-141zM454 1589v27q23 29 46.5 66.5t47 78.5t44 82.5t37.5 73.5h219v-21q-17 -26 -49 -67t-69.5 -85.5t-78.5 -85t-76 -69.5h-121z" />
<glyph unicode="&#x144;" horiz-adv-x="1137" d="M80 0v1024h141v-94q23 33 56.5 60.5t75.5 47t90 29.5t96 10q94 0 178 -37t146.5 -99.5t99 -147t36.5 -179.5l2 -614h-147l-2 614q0 65 -24.5 122.5t-67.5 100.5t-101.5 68t-119.5 25q-66 0 -122.5 -27t-99.5 -71t-69.5 -101.5t-26.5 -116.5l2 -614h-143zM387 1335 q-8 41 71 74l234 94q41 17 71 16q64 -8 80 -79q-7 -56 -71 -80l-240 -96q-47 -25 -66 -17q-71 0 -79 88z" />
<glyph unicode="&#x145;" horiz-adv-x="1416" d="M126 0v1434h217l719 -1125q46 -69 57 -96h4q-9 61 -9 211v1010h168v-1434h-205l-740 1143q-27 42 -44 90h-6q8 -46 8 -197v-1036h-169zM519 -379l117 260h173l-167 -260h-123z" />
<glyph unicode="&#x146;" horiz-adv-x="1157" d="M80 0v1024h141v-94q23 33 56.5 60.5t75.5 47t90 29.5t96 10q94 0 178 -37t146.5 -99.5t99 -147t36.5 -179.5l2 -614h-147l-2 614q0 65 -24.5 122.5t-67.5 100.5t-101.5 68t-119.5 25q-66 0 -122.5 -27t-99.5 -71t-69.5 -101.5t-26.5 -116.5l2 -614h-143zM403 -379 l117 260h172l-166 -260h-123z" />
<glyph unicode="&#x147;" horiz-adv-x="1111" d="M76 0v1434h141l669 -1147v1147h142v-1434h-142l-669 1147v-1147h-141zM262 1793q0 71 72 79q24 0 47 -8l192 -80l192 80q25 8 48 8q63 -8 71 -79q0 -48 -46 -73l-265 -112l-264 112q-48 25 -47 73z" />
<glyph unicode="&#x148;" horiz-adv-x="1092" d="M80 0v1024h141v-94q23 33 56.5 60.5t75.5 47t90 29.5t96 10q94 0 178 -37t146.5 -99.5t99 -147t36.5 -179.5l2 -614h-147l-2 614q0 65 -24.5 122.5t-67.5 100.5t-101.5 68t-119.5 25q-66 0 -122.5 -27t-99.5 -71t-69.5 -101.5t-26.5 -116.5l2 -614h-143zM210 1452 q0 63 82 72q8 0 39 -9l192 -71l193 71q33 8 47 9q63 -8 72 -72q0 -48 -48 -71l-264 -113l-264 113q-47 24 -49 71z" />
<glyph unicode="&#x149;" horiz-adv-x="1279" d="M161 0v1024h142v-94q23 33 56.5 60.5t75.5 47t90 29.5t96 10q94 0 177.5 -37t146 -99.5t99.5 -147t37 -179.5l2 -614h-147l-2 614q0 65 -25 122.5t-67.5 100.5t-101 68t-119.5 25q-65 0 -121.5 -27t-99.5 -71t-70 -101.5t-27 -116.5l2 -614h-144zM468 1311l234 360 l116 -73l-235 -361z" />
<glyph unicode="&#x14a;" horiz-adv-x="1369" d="M85 0v1434h217l719 -1066q2 -2 57 -104h4q-9 72 -9 219v951h167v-1371q0 -485 -365 -485q-76 0 -136 31v166q78 -44 140 -45q189 0 189 270l-772 1143q-21 33 -45 90h-6q8 -54 8 -197v-1036h-168z" />
<glyph unicode="&#x14b;" horiz-adv-x="1157" d="M165 0v1024h165v-170h4q117 194 335 195q347 0 347 -422v-600q0 -449 -358 -449q-77 0 -138 31v166q78 -44 142 -45q190 0 190 270v583q0 326 -238 326q-123 0 -203.5 -92t-80.5 -234v-583h-165z" />
<glyph unicode="&#x14c;" horiz-adv-x="1680" d="M68 717q0 157 60.5 296.5t165 244t244 165t297.5 60.5q157 0 296.5 -60.5t244 -165t164.5 -244t60 -296.5t-60 -297t-164.5 -244.5t-244 -165t-296.5 -60.5t-297 60.5t-244.5 165t-165 244.5t-60.5 297zM212 717q0 -127 49 -241t134 -199t198.5 -134t241.5 -49 q127 0 239.5 49t197.5 134t134 199t49 241t-49 240t-134 197.5t-197.5 133.5t-239.5 49t-241 -49t-199 -133.5t-134 -197.5t-49 -240zM498 1727q-1 74 88 82h417q81 -8 89 -82q-8 -88 -89 -88h-417q-89 0 -88 88z" />
<glyph unicode="&#x14d;" horiz-adv-x="1271" d="M55 514q0 117 44.5 219.5t121 179t179 120.5t219.5 44t219 -44t178.5 -120.5t120.5 -179t44 -219.5t-44 -219.5t-120.5 -179t-179 -121t-218.5 -44.5q-117 0 -219.5 44.5t-179 121t-121 179t-44.5 219.5zM199 514q0 -86 32.5 -163t90 -134.5t134.5 -90t163 -32.5 t163 32.5t134 90t89.5 134.5t32.5 163t-32.5 163t-89.5 134.5t-134.5 90t-162.5 32.5q-86 0 -163 -32.5t-134.5 -90t-90 -134.5t-32.5 -163zM322 1344q0 79 88 79h409q80 0 88 -79q-8 -88 -88 -88h-409q-88 0 -88 88z" />
<glyph unicode="&#x14e;" horiz-adv-x="1704" d="M68 717q0 157 60.5 296.5t165 244t244 165t297.5 60.5q157 0 296.5 -60.5t244 -165t164.5 -244t60 -296.5t-60 -297t-164.5 -244.5t-244 -165t-296.5 -60.5t-297 60.5t-244.5 165t-165 244.5t-60.5 297zM212 717q0 -127 49 -241t134 -199t198.5 -134t241.5 -49 q127 0 239.5 49t197.5 134t134 199t49 241t-49 240t-134 197.5t-197.5 133.5t-239.5 49t-241 -49t-199 -133.5t-134 -197.5t-49 -240zM519 1883h101q12 -155 171 -156q68 0 116.5 42t58.5 114h102q-10 -113 -88 -182.5t-191 -69.5q-116 0 -190 68.5t-80 183.5z" />
<glyph unicode="&#x14f;" horiz-adv-x="1288" d="M61 514q0 117 44.5 219.5t121 179t179 120.5t219.5 44t219 -44t179 -120.5t120.5 -179t43.5 -219.5t-43.5 -219.5t-120.5 -179t-179 -121t-219 -44.5t-219.5 44.5t-179 121t-121 179t-44.5 219.5zM205 514q0 -86 32.5 -163t90 -134.5t134.5 -90t163 -32.5t163 32.5 t134.5 90t90 134.5t32.5 163t-32.5 163t-90 134.5t-134.5 90t-163 32.5t-163 -32.5t-134.5 -90t-90 -134.5t-32.5 -163zM353 1471h100q12 -156 172 -156q67 0 115 41.5t59 114.5h102q-10 -113 -88 -183t-190 -70q-117 0 -190.5 69t-79.5 184z" />
<glyph unicode="&#x150;" horiz-adv-x="1675" d="M57 717q0 157 60.5 296.5t165 244t244 165t296.5 60.5t297 -60.5t244.5 -165t164.5 -244t60 -296.5t-60 -297t-164.5 -244.5t-244 -165t-297.5 -60.5q-157 0 -296.5 60.5t-244 165t-165 244.5t-60.5 297zM201 717q0 -127 49 -241t134 -199t198.5 -134t240.5 -49t240 49 t198 134t134 199t49 241t-49 240t-134 197.5t-197.5 133.5t-240.5 49q-127 0 -240.5 -49t-198.5 -133.5t-134 -197.5t-49 -240zM488 1590l253 317h157l-293 -317h-117zM783 1590l255 317h163l-300 -317h-118z" />
<glyph unicode="&#x151;" horiz-adv-x="1294" d="M61 514q0 117 44.5 219.5t121 179t179 120.5t219.5 44t219 -44t179 -120.5t120.5 -179t43.5 -219.5t-43.5 -219.5t-120.5 -179t-179 -121t-219 -44.5t-219.5 44.5t-179 121t-121 179t-44.5 219.5zM205 514q0 -86 32.5 -163t90 -134.5t134.5 -90t163 -32.5t163 32.5 t134.5 90t90 134.5t32.5 163t-32.5 163t-90 134.5t-134.5 90t-163 32.5t-163 -32.5t-134.5 -90t-90 -134.5t-32.5 -163zM339 1218l232 318h145l-268 -318h-109zM610 1218l234 318h150l-276 -318h-108z" />
<glyph unicode="&#x152;" horiz-adv-x="1904" d="M94 700q0 347 189.5 552.5t515.5 205.5q90 0 177 -10q111 -14 113 -14h689v-152h-560v-477h519v-151h-519v-502h592v-152h-721q-16 0 -136 -14q-98 -10 -183 -11q-310 0 -493 202t-183 523zM270 715q0 -258 139.5 -423t366.5 -165q117 0 275 32v1119q-160 28 -269 28 q-229 0 -370.5 -166t-141.5 -425z" />
<glyph unicode="&#x153;" horiz-adv-x="1898" d="M96 498q0 259 142.5 405t382.5 146q293 0 401 -236h4q119 236 385 236q197 0 305.5 -132.5t108.5 -356.5v-89h-725q4 -172 92.5 -264t241.5 -92q176 0 319 113v-155q-135 -98 -357 -98q-270 0 -382 238h-4q-131 -238 -416 -238q-230 0 -364 143.5t-134 379.5zM264 502 q0 -180 92.5 -283.5t247.5 -103.5q160 0 246 102.5t86 290.5q0 194 -86 297.5t-243.5 103.5t-250 -108.5t-92.5 -298.5zM1102 610h555q-2 142 -68.5 220.5t-183.5 78.5q-121 0 -204 -84.5t-99 -214.5z" />
<glyph unicode="&#x154;" horiz-adv-x="1085" d="M93 0v1434h426q209 0 343 -103q61 -59 94.5 -146.5t33.5 -185.5q0 -225 -128 -337q-29 -21 -58 -39q27 -17 56 -35q128 -113 128 -295v-293h-143v293q0 62 -22.5 109t-67.5 85q-77 70 -213 71h-307v-558h-142zM235 692h286q152 0 234 70q90 76 90 239q0 162 -90 234 q-82 69 -234 69h-286v-612zM403 1589v27q23 29 46.5 66.5t47 78.5t44 82.5t36.5 73.5h219v-21q-17 -26 -48 -67t-69.5 -85.5t-79 -85t-75.5 -69.5h-121z" />
<glyph unicode="&#x155;" horiz-adv-x="728" d="M82 1024h141v-194q12 21 25 33q78 78 180.5 121.5t216.5 43.5v-144q-86 0 -161.5 -32.5t-133 -90t-91.5 -134t-34 -163.5v-464h-141zM247 1241v27q22 28 46 66.5t47 79t43.5 81.5t37.5 74h219v-21q-17 -27 -48 -67.5t-69.5 -84.5t-79.5 -85t-76 -70h-120z" />
<glyph unicode="&#x156;" horiz-adv-x="1166" d="M85 0v1434h428q94 0 173 -24t137 -72t92.5 -118.5t34.5 -166.5q0 -77 -23 -139t-65 -111t-100.5 -84t-131.5 -53v-4q36 -17 63 -37.5t50.5 -48t47 -63.5t52.5 -83l270 -430h-201l-240 401q-32 58 -63 97t-63.5 64.5t-70 36.5t-85.5 11h-137v-610h-168zM253 762h227 q64 0 117.5 19.5t92 54.5t61 86.5t22.5 115.5q0 115 -74.5 179.5t-216.5 64.5h-229v-520zM343 -379l117 260h172l-167 -260h-122z" />
<glyph unicode="&#x157;" horiz-adv-x="618" d="M37 -379l116 260h173l-167 -260h-122zM114 0v1024h164v-211h4q34 109 106 169.5t162 60.5q64 0 99 -15v-169q-42 32 -126 32q-104 0 -174.5 -99.5t-70.5 -269.5v-522h-164z" />
<glyph unicode="&#x158;" horiz-adv-x="1046" d="M88 0v1434h426q209 0 342 -103q61 -59 95 -146.5t34 -185.5q0 -225 -129 -337q-29 -21 -57 -39q27 -17 55 -35q128 -113 129 -295v-293h-143v293q0 62 -23 109t-67 85q-77 70 -213 71h-307v-558h-142zM119 1782q0 71 71 80q25 0 48 -8l192 -80l193 80q25 8 46 8 q64 -8 73 -80q0 -48 -48 -72l-264 -112l-265 112q-47 25 -46 72zM230 692h286q152 0 234 70q90 76 90 239q0 162 -90 234q-82 69 -234 69h-286v-612z" />
<glyph unicode="&#x159;" horiz-adv-x="682" d="M33 1423q0 71 71 80q25 0 47 -8l193 -80l193 80q24 8 46 8q64 -8 72 -80q0 -47 -47 -71l-264 -113l-264 113q-47 25 -47 71zM87 1024h142v-194q12 21 24 33q78 78 180.5 121.5t217.5 43.5v-144q-86 0 -162 -32.5t-133.5 -90t-91 -134t-33.5 -163.5v-464h-142z" />
<glyph unicode="&#x15a;" horiz-adv-x="1143" d="M43 428h143q0 -69 30 -130.5t81.5 -106.5t119.5 -72t144 -25q70 2 133.5 18.5t112.5 50.5t78.5 84t29.5 119q0 100 -55 162t-140 101.5t-187.5 71.5t-194.5 73t-161.5 103.5t-90.5 165.5q-10 88 26 167.5t102 140t157 96.5t190 36q111 0 193 -39t139.5 -93.5t89 -113.5 t37.5 -100h-157q-39 98 -123 149t-179 53q-63 2 -127 -20.5t-112 -61.5t-73.5 -92t-12.5 -112q16 -72 82.5 -114t158.5 -74.5t194.5 -65.5t188.5 -85t142.5 -134t56.5 -214q0 -98 -41.5 -175.5t-109.5 -131t-158 -81.5t-189 -28q-98 0 -192.5 35.5t-166 98t-115.5 150.5 t-44 194zM373 1619v26q23 29 47 66.5t47 78.5t44 82.5t37 73.5h218v-20q-16 -27 -47.5 -68t-69.5 -85.5t-78.5 -85t-76.5 -68.5h-121z" />
<glyph unicode="&#x15b;" horiz-adv-x="878" d="M59 311h146q0 -54 21.5 -100t78 -83.5t144.5 -35.5q100 0 150.5 48.5t54.5 116.5q2 69 -26 107.5t-81.5 63.5t-133 45t-147 49t-117 86.5t-59.5 143.5q-8 67 18.5 124.5t75 101.5t115.5 71.5t140 27.5q82 0 142 -26.5t101 -68.5t65 -85t28 -74h-154q-19 59 -70 91 t-112 32q-41 0 -88.5 -16.5t-87.5 -65.5t-29 -104q10 -50 48 -76t100.5 -49t138 -47t142 -66.5t103.5 -105.5t37 -159q0 -72 -29.5 -130t-80 -96.5t-117 -59.5t-137.5 -21q-72 0 -141.5 26t-123 72t-85 110.5t-30.5 152.5zM290 1241v27q23 28 46.5 66.5t46.5 79t44 81.5 t37 74h219v-21q-16 -27 -48 -67.5t-69.5 -84.5t-78.5 -85t-76 -70h-121z" />
<glyph unicode="&#x15c;" horiz-adv-x="1155" d="M61 428h143q0 -69 30 -130.5t81 -106.5t119.5 -72t143.5 -25q70 2 134 18.5t113 50.5t78.5 84t29.5 119q0 100 -55.5 162t-140 101.5t-187 71.5t-194.5 73t-162 103.5t-91 165.5q-10 88 26 167.5t102.5 140t157.5 96.5t189 36q111 0 193 -39t139.5 -93.5t89 -113.5 t37.5 -100h-157q-39 98 -123 149t-179 53q-63 2 -126.5 -20.5t-111.5 -61.5t-73.5 -92t-13.5 -112q16 -72 82.5 -114t158.5 -74.5t194.5 -65.5t189 -85t143 -134t56.5 -214q0 -98 -41.5 -175.5t-110 -131t-158.5 -81.5t-189 -28q-98 0 -192 35.5t-165.5 98t-115.5 150.5 t-44 194zM279 1588l215 331h134l215 -331h-121l-163 228l-167 -228h-113z" />
<glyph unicode="&#x15d;" horiz-adv-x="871" d="M64 311h146q0 -54 21.5 -100t78 -83.5t144.5 -35.5q100 0 150.5 48.5t54.5 116.5q2 69 -26 107.5t-81 63.5t-133 45t-147.5 49t-116.5 86.5t-60 143.5q-8 67 19 124.5t75 101.5t115 71.5t140 27.5q82 0 142 -26.5t101 -68.5t65 -85t28 -74h-154q-19 59 -70 91t-112 32 q-41 0 -88.5 -16.5t-87 -65.5t-29.5 -104q10 -50 48 -76t100.5 -49t138 -47t142 -66.5t103.5 -105.5t37 -159q0 -72 -29.5 -130t-79.5 -96.5t-117 -59.5t-138 -21q-72 0 -141.5 26t-123 72t-85 110.5t-30.5 152.5zM159 1218l214 332h134l215 -332h-121l-163 230l-167 -230 h-112z" />
<glyph unicode="&#x15e;" horiz-adv-x="1172" d="M56 428h143q0 -69 30 -130.5t81 -106.5t119.5 -72t143.5 -25q70 2 134 18.5t113 50.5t78.5 84t29.5 119q0 100 -55.5 162t-140.5 101.5t-187 71.5t-194 73t-162 103.5t-91 165.5q-10 88 26 167.5t102.5 140t157.5 96.5t189 36q111 0 193 -39t139.5 -93.5t89 -113.5 t37.5 -100h-157q-39 98 -123 149t-179 53q-63 2 -126.5 -20.5t-111.5 -61.5t-73.5 -92t-13.5 -112q16 -72 82.5 -114t158.5 -74.5t194.5 -65.5t189 -85t143 -134t56.5 -214q0 -98 -41.5 -175.5t-110 -131t-158.5 -81.5t-189 -28q-98 0 -192 35.5t-165.5 98t-115.5 150.5 t-44 194zM416 -374q14 -4 38.5 -5.5t40.5 -1.5q72 0 112 21.5t40 70.5q0 25 -13 42t-36 29.5t-54.5 23t-68.5 18.5l91 176h120l-57 -115q35 -8 63.5 -21.5t50 -33.5t33.5 -49.5t12 -67.5q0 -96 -70.5 -150t-219.5 -54q-23 0 -45.5 3t-36.5 5v109z" />
<glyph unicode="&#x15f;" horiz-adv-x="860" d="M53 311h146q0 -54 21.5 -100t78 -83.5t144.5 -35.5q100 0 150 48.5t54 116.5q2 69 -25.5 107.5t-81 63.5t-133 45t-147.5 49t-117 86.5t-59 143.5q-8 67 18.5 124.5t74.5 101.5t115.5 71.5t139.5 27.5q82 0 142.5 -26.5t101.5 -68.5t64.5 -85t28.5 -74h-155 q-19 59 -70 91t-112 32q-41 0 -88 -16.5t-87 -65.5t-29 -104q10 -50 47.5 -76t100.5 -49t138.5 -47t142 -66.5t103 -105.5t36.5 -159q0 -72 -29.5 -130t-79.5 -96.5t-116.5 -59.5t-138.5 -21t-141.5 26t-122.5 72t-84.5 110.5t-30.5 152.5zM293 -374q14 -4 39 -5.5t40 -1.5 q72 0 112 21.5t40 70.5q0 25 -13 42t-35.5 29.5t-54.5 23t-68 18.5l90 176h121l-58 -115q35 -8 63.5 -21.5t50 -33.5t34 -49.5t12.5 -67.5q0 -96 -71 -150t-221 -54q-22 0 -44.5 3t-36.5 5v109z" />
<glyph unicode="&#x160;" horiz-adv-x="1118" d="M50 428h142q0 -69 30 -130.5t81.5 -106.5t119.5 -72t144 -25q70 2 133.5 18.5t113 50.5t79 84t29.5 119q0 100 -55.5 162t-140.5 101.5t-187.5 71.5t-194.5 73t-161.5 103.5t-90.5 165.5q-10 88 26 167.5t102.5 140t157.5 96.5t189 36q111 0 193 -39t139.5 -93.5 t89 -113.5t37.5 -100h-157q-39 98 -123 149t-179 53q-63 2 -126.5 -20.5t-112 -61.5t-73.5 -92t-13 -112q16 -72 82.5 -114t158.5 -74.5t194.5 -65.5t189 -85t142.5 -134t56 -214q0 -98 -41 -175.5t-109.5 -131t-158.5 -81.5t-189 -28q-98 0 -192.5 35.5t-165.5 98 t-115 150.5t-44 194zM212 1795q0 71 72 79q25 0 47 -8l192 -80l194 80q24 8 46 8q63 -8 72 -79q0 -48 -47 -73l-265 -113l-263 113q-48 25 -48 73z" />
<glyph unicode="&#x161;" horiz-adv-x="860" d="M53 311h146q0 -54 21.5 -100t78 -83.5t144.5 -35.5q100 0 150 48.5t54 116.5q2 69 -25.5 107.5t-81 63.5t-133 45t-147.5 49t-117 86.5t-59 143.5q-8 67 18.5 124.5t74.5 101.5t115.5 71.5t139.5 27.5q82 0 142.5 -26.5t101.5 -68.5t64.5 -85t28.5 -74h-155 q-19 59 -70 91t-112 32q-41 0 -88 -16.5t-87 -65.5t-29 -104q10 -50 47.5 -76t100.5 -49t138.5 -47t142 -66.5t103 -105.5t36.5 -159q0 -72 -29.5 -130t-79.5 -96.5t-116.5 -59.5t-138.5 -21t-141.5 26t-122.5 72t-84.5 110.5t-30.5 152.5zM90 1423q0 71 71 80q25 0 48 -8 l192 -80l193 80q25 8 46 8q64 -8 73 -80q0 -47 -48 -71l-264 -113l-264 113q-47 25 -47 71z" />
<glyph unicode="&#x162;" horiz-adv-x="999" d="M21 1290v144h953v-144h-405v-1290h-143v1290h-405zM325 -374q14 -4 38.5 -5.5t40.5 -1.5q72 0 112 21.5t40 70.5q0 25 -13 42t-36 29.5t-54.5 23t-68.5 18.5l91 176h120l-57 -115q35 -8 63.5 -21.5t50 -33.5t33.5 -49.5t12 -67.5q0 -96 -70.5 -150t-220.5 -54 q-23 0 -45 3t-36 5v109z" />
<glyph unicode="&#x163;" horiz-adv-x="554" d="M-7 -374q14 -4 38.5 -5.5t40.5 -1.5q72 0 112 21.5t40 70.5q0 25 -13 42t-36 29.5t-54.5 23t-68.5 18.5l91 176h120l-57 -115q35 -8 63.5 -21.5t50 -33.5t33.5 -49.5t12 -67.5q0 -96 -70.5 -150t-220.5 -54q-23 0 -45 3t-36 5v109zM31 880v144h102v410h145v-410h269v-144 h-269v-880h-145v880h-102z" />
<glyph unicode="&#x164;" horiz-adv-x="995" d="M21 1290v144h953v-144h-405v-1290h-143v1290h-405zM147 1782q0 71 71 80q25 0 47 -8l192 -80l194 80q24 8 46 8q64 -8 72 -80q0 -48 -47 -72l-265 -112l-264 112q-47 25 -46 72z" />
<glyph unicode="&#x165;" horiz-adv-x="745" d="M43 884v140h176v250l164 53v-303h258v-140h-258v-577q0 -102 35 -146t117 -44q61 0 106 33v-140q-58 -33 -154 -33q-268 0 -268 301v606h-176zM483 1135l117 259h172l-166 -259h-123z" />
<glyph unicode="&#x166;" horiz-adv-x="1071" d="M41 1282v152h995v-152h-413v-486h246v-155h-246v-641h-168v641h-250v155h250v486h-414z" />
<glyph unicode="&#x167;" horiz-adv-x="693" d="M43 884v140h176v250q4 2 82 26l82 27v-303h258v-140h-258v-204h248v-133h-248v-240q0 -102 35 -146t117 -44q59 0 106 33v-140q-58 -33 -154 -33q-268 0 -268 301v269h-164v133h164v204h-176z" />
<glyph unicode="&#x168;" horiz-adv-x="1116" d="M80 428v1006h141v-1006q0 -69 26.5 -130.5t72 -106.5t106.5 -71t132 -26q69 0 130.5 26t106.5 71t70.5 106.5t25.5 130.5v1006h141v-1006q0 -100 -35.5 -187t-100 -151.5t-151.5 -102t-187 -37.5t-188 37.5t-152 102t-101 151.5t-37 187zM205 1550q0 107 48 171.5 t134 64.5q66 0 150 -51q73 -44 127 -45q84 0 84 116h98q0 -104 -48 -170.5t-130 -66.5q-72 0 -162 51q-78 43 -119 43q-88 0 -88 -113h-94z" />
<glyph unicode="&#x169;" horiz-adv-x="1085" d="M63 1024h146l4 -562v-1q0 -66 24.5 -123.5t68 -99t99 -66t121.5 -24.5q65 0 122.5 24.5t100.5 66t68 99t25 123.5v563h143v-563q0 -95 -36 -178.5t-98.5 -146.5t-146 -99.5t-178.5 -36.5q-94 0 -178 36.5t-146 99.5t-99.5 146.5t-37.5 178.5v1zM242 1202q0 107 48 171.5 t134 64.5q65 0 149 -52q74 -44 127 -44q84 0 84 116h98q0 -104 -48 -170.5t-130 -66.5q-71 0 -161 51q-79 42 -119 43q-88 0 -88 -113h-94z" />
<glyph unicode="&#x16a;" horiz-adv-x="1101" d="M73 428v1006h142v-1006q0 -69 26.5 -130.5t72 -106.5t106.5 -71t131 -26q69 0 131 26t107 71t70 106.5t25 130.5v1006h142v-1006q0 -100 -35.5 -187t-100.5 -151.5t-151.5 -102t-187.5 -37.5q-100 0 -187.5 37.5t-151.5 102t-101.5 151.5t-37.5 187zM284 1696q0 74 88 82 h418q80 -8 88 -82q-8 -88 -88 -88h-418q-88 0 -88 88z" />
<glyph unicode="&#x16b;" horiz-adv-x="1109" d="M69 1024h146l4 -562v-1q0 -66 24.5 -123.5t68 -99t99 -66t122.5 -24.5q65 0 122.5 24.5t100.5 66t67.5 99t24.5 123.5v563h143v-563q0 -95 -35.5 -178.5t-98.5 -146.5t-146.5 -99.5t-177.5 -36.5t-178.5 36.5t-146.5 99.5t-99.5 146.5t-37.5 178.5v1zM220 1323 q0 72 88 80h418q80 0 88 -80q-8 -88 -88 -88h-418q-88 0 -88 88z" />
<glyph unicode="&#x16c;" horiz-adv-x="1103" d="M67 428v1006h142v-1006q0 -69 26.5 -130.5t72 -106.5t106.5 -71t131 -26q69 0 130.5 26t106.5 71t70.5 106.5t25.5 130.5v1006h142v-1006q0 -100 -36 -187t-100.5 -151.5t-151.5 -102t-187 -37.5t-187.5 37.5t-151.5 102t-101.5 151.5t-37.5 187zM232 1818h100 q12 -155 172 -155q68 0 116 42t59 113h102q-10 -113 -88.5 -182t-190.5 -69q-117 0 -190.5 68.5t-79.5 182.5z" />
<glyph unicode="&#x16d;" horiz-adv-x="1097" d="M76 1024h145l4 -562v-1q0 -66 24.5 -123.5t68 -99t99.5 -66t122 -24.5q65 0 122.5 24.5t100.5 66t67.5 99t24.5 123.5v563h143v-563q0 -95 -35.5 -178.5t-98 -146.5t-146.5 -99.5t-178 -36.5t-178.5 36.5t-146.5 99.5t-99 146.5t-37 178.5v1zM297 1471h100 q12 -156 173 -156q67 0 115 41.5t59 114.5h102q-10 -113 -88 -183t-190 -70q-117 0 -191 69t-80 184z" />
<glyph unicode="&#x16e;" horiz-adv-x="1115" d="M73 428v1006h142v-1006q0 -69 26.5 -130.5t72 -106.5t106.5 -71t131 -26q69 0 131 26t107 71t70 106.5t25 130.5v1006h142v-1006q0 -100 -35.5 -187t-100.5 -151.5t-151.5 -102t-187.5 -37.5q-100 0 -187.5 37.5t-151.5 102t-101.5 151.5t-37.5 187zM344 1768 q0 90 59.5 144t149.5 54t146.5 -54t56.5 -138t-60.5 -140.5t-148.5 -56.5t-145.5 52.5t-57.5 138.5zM434 1772q0 -113 113 -113q50 0 82.5 32.5t32.5 80.5q0 49 -32.5 81t-81.5 32t-81.5 -33.5t-32.5 -79.5z" />
<glyph unicode="&#x16f;" horiz-adv-x="1097" d="M76 1024h145l4 -562v-1q0 -66 24.5 -123.5t68 -99t99.5 -66t122 -24.5q65 0 122.5 24.5t100.5 66t67.5 99t24.5 123.5v563h143v-563q0 -95 -35.5 -178.5t-98 -146.5t-146.5 -99.5t-178 -36.5t-178.5 36.5t-146.5 99.5t-99 146.5t-37 178.5v1zM368 1366q0 90 59.5 144.5 t150 54.5t146.5 -54.5t56 -137.5q0 -85 -60 -141t-148.5 -56t-146 52.5t-57.5 137.5zM459 1371q0 -113 112 -113q50 0 82.5 32.5t32.5 80.5q0 49 -32.5 80.5t-82 31.5t-81 -33t-31.5 -79z" />
<glyph unicode="&#x170;" horiz-adv-x="1116" d="M80 428v1006h141v-1006q0 -69 26.5 -130.5t72 -106.5t106.5 -71t132 -26q69 0 130.5 26t106.5 71t70.5 106.5t25.5 130.5v1006h141v-1006q0 -100 -35.5 -187t-100 -151.5t-151.5 -102t-187 -37.5t-188 37.5t-152 102t-101 151.5t-37 187zM297 1567l233 318h144l-270 -318 h-107zM569 1567l235 318h150l-278 -318h-107z" />
<glyph unicode="&#x171;" horiz-adv-x="1102" d="M81 1024h146l4 -562v-1q0 -66 24 -123.5t67.5 -99t99.5 -66t122 -24.5q65 0 122.5 24.5t100.5 66t68 99t25 123.5v563h142v-563q0 -95 -35.5 -178.5t-98 -146.5t-146.5 -99.5t-178 -36.5t-178.5 36.5t-146.5 99.5t-99 146.5t-37 178.5v1zM335 1218l207 318h129l-240 -318 h-96zM576 1218l209 318h133l-245 -318h-97z" />
<glyph unicode="&#x172;" horiz-adv-x="1109" d="M80 428v1006h141v-1006q0 -69 26.5 -130.5t72 -106.5t106.5 -71t132 -26q69 0 130.5 26t106.5 71t70.5 106.5t25.5 130.5v1006h141v-1006q0 -100 -35.5 -187t-100 -151.5t-151.5 -102t-187 -37.5t-188 37.5t-152 102t-101 151.5t-37 187zM461 -261q0 123 159 251h119 q-150 -142 -150 -224q0 -69 67 -69q31 0 56 12v-106q-29 -12 -82 -13q-77 0 -123 40t-46 109z" />
<glyph unicode="&#x173;" horiz-adv-x="1068" d="M69 1024h146l4 -562v-1q0 -66 24.5 -123.5t68 -99t99 -66t122.5 -24.5q65 0 122.5 24.5t100.5 66t67.5 99t24.5 123.5v563h143v-563q0 -95 -35.5 -178.5t-98.5 -146.5t-146.5 -99.5t-177.5 -36.5t-178.5 36.5t-146.5 99.5t-99.5 146.5t-37.5 178.5v1zM406 -240 q0 123 158 250h119q-149 -142 -149 -223q0 -69 67 -69q31 0 56 12v-107q-29 -12 -83 -12q-76 0 -122 40t-46 109z" />
<glyph unicode="&#x174;" horiz-adv-x="1391" d="M86 0v1434h142v-1190l458 623l461 -625v1192h141v-1434h-141l-461 625l-458 -625h-142zM440 1588l215 331h133l215 -331h-121l-163 228l-167 -228h-112z" />
<glyph unicode="&#x175;" horiz-adv-x="1875" d="M61 414v610h142v-610q0 -65 25 -122.5t66.5 -100.5t99.5 -68t124 -25q63 0 120.5 25t100.5 68t69 100.5t26 122.5v610h147v-610q2 -69 27.5 -126.5t67.5 -99.5t96.5 -66t119.5 -24q64 0 122 25t100.5 68t66.5 100.5t24 122.5v610h148v-610q0 -96 -36 -180t-99 -146.5 t-147.5 -100t-178.5 -37.5q-123 0 -224.5 57.5t-162.5 155.5q-65 -98 -165.5 -155.5t-221.5 -57.5q-98 0 -180.5 37.5t-143.5 100t-97 146.5t-36 180zM462 1218l215 332h134l215 -332h-121l-163 230l-167 -230h-113z" />
<glyph unicode="&#x176;" horiz-adv-x="1131" d="M21 1434h157l377 -732l377 732h157l-456 -870v-564h-154v560zM282 1565l216 331h133l215 -331h-121l-164 229l-166 -229h-113z" />
<glyph unicode="&#x177;" horiz-adv-x="1096" d="M80 1024h145l5 -562v-1q0 -66 24 -123.5t67.5 -99t99.5 -66t122 -24.5q65 0 122.5 24.5t100.5 66t68 99t25 123.5v563h142v-563q0 -95 -35.5 -178.5t-98 -146.5t-146.5 -99q-51 -23 -107 -33l2 -463h-144l-2 463q-56 10 -105 33q-85 36 -147 99t-99 146.5t-37 178.5v1z M242 1218l215 332h133l215 -332h-121l-164 230l-165 -230h-113z" />
<glyph unicode="&#x178;" horiz-adv-x="1132" d="M27 1434h157l378 -732l376 732h157l-456 -870v-564h-154v560zM250 1741q0 55 27.5 78.5t69.5 23.5q38 0 67 -24.5t29 -77.5t-29 -78t-67 -25q-41 0 -69 25t-28 78zM625 1741q0 55 27.5 78.5t68.5 23.5q19 0 36 -6t30.5 -18.5t21.5 -31.5t8 -46q0 -53 -29.5 -78t-66.5 -25 q-41 0 -68.5 25t-27.5 78z" />
<glyph unicode="&#x179;" horiz-adv-x="1103" d="M43 0v144l782 1146h-782v144h954v-144l-786 -1146h786v-144h-954zM421 1589v27q23 29 46 66.5t47 78.5t44 82.5t37 73.5h219v-21q-17 -26 -48.5 -67t-69.5 -85.5t-79 -85t-75 -69.5h-121z" />
<glyph unicode="&#x17a;" horiz-adv-x="848" d="M78 0l467 880h-467v144h708l-468 -880h468v-144h-708zM292 1241v27q23 28 46.5 66.5t47 79t44 81.5t36.5 74h219v-21q-16 -27 -48 -67.5t-69.5 -84.5t-78.5 -85t-76 -70h-121z" />
<glyph unicode="&#x17b;" horiz-adv-x="1057" d="M38 0v144l782 1146h-782v144h954v-144l-786 -1146h786v-144h-954zM428 1722q8 104 113 113q104 -8 113 -113q-8 -103 -113 -109q-105 6 -113 109z" />
<glyph unicode="&#x17c;" horiz-adv-x="852" d="M78 0l467 880h-467v144h708l-468 -880h468v-144h-708zM269 1344q8 104 113 112q104 -8 112 -112q-8 -104 -112 -111q-105 7 -113 111z" />
<glyph unicode="&#x17d;" horiz-adv-x="1064" d="M61 0v144l782 1146h-782v144h954v-144l-786 -1146h786v-144h-954zM236 1790q0 71 71 80q25 0 48 -8l192 -80l193 80q25 8 46 8q64 -8 73 -80q0 -48 -48 -72l-264 -112l-265 112q-47 25 -46 72z" />
<glyph unicode="&#x17e;" horiz-adv-x="852" d="M78 0l467 880h-467v144h708l-468 -880h468v-144h-708zM118 1423q0 71 71 80q25 0 48 -8l192 -80l193 80q25 8 47 8q63 -8 72 -80q0 -47 -48 -71l-264 -113l-265 113q-47 25 -46 71z" />
<glyph unicode="&#x17f;" horiz-adv-x="493" d="M165 0v1189q0 162 95 255.5t231 93.5q73 0 119 -19v-146q-47 26 -108 25q-172 0 -172 -217v-1181h-165z" />
<glyph unicode="&#x2c6;" horiz-adv-x="1125" d="M182 1195l302 465h155l305 -465h-76l-305 280l-304 -280h-77z" />
<glyph unicode="&#x2c7;" horiz-adv-x="1125" d="M182 1660h77l304 -278l305 278h76l-305 -465h-155z" />
<glyph unicode="&#x2c9;" horiz-adv-x="1125" d="M280 1284v166h567v-166h-567z" />
<glyph unicode="&#x2d8;" horiz-adv-x="1125" d="M242 1558h64q23 -101 95.5 -147.5t211.5 -46.5q138 0 210.5 46t93.5 148h66q-25 -182 -118.5 -277t-251.5 -95q-155 0 -251 95t-120 277z" />
<glyph unicode="&#x2d9;" horiz-adv-x="1125" d="M393 1401q0 5 4.5 15.5t16.5 18.5l93 98q7 6 16.5 11t19.5 5q7 0 16.5 -5t17.5 -11l96 -103q6 -8 9.5 -16t3.5 -18q-2 -12 -5.5 -20.5t-10.5 -15.5l-97 -103q-17 -16 -21.5 -19t-8.5 -3q-14 0 -23.5 3t-12.5 13l-104 116q-4 6 -7 13.5t-3 20.5z" />
<glyph unicode="&#x2da;" horiz-adv-x="1125" d="M369 1406q0 93 62.5 155.5t156.5 62.5q92 0 155.5 -63.5t63.5 -154.5q0 -92 -63.5 -156t-155.5 -64q-93 0 -156 64t-63 156zM482 1406q0 -46 33.5 -79.5t81.5 -33.5q47 0 80.5 33.5t33.5 79.5q0 44 -35 77.5t-79 33.5q-48 0 -81.5 -33.5t-33.5 -77.5z" />
<glyph unicode="&#x2db;" horiz-adv-x="1125" d="M314 -410q0 119 94.5 242.5t249.5 207.5h74q-109 -95 -169 -183.5t-60 -173.5q0 -72 41 -115.5t112 -43.5q60 0 106.5 24t76.5 77l42 -26q-54 -97 -137.5 -149.5t-184.5 -52.5q-107 0 -176 54.5t-69 138.5z" />
<glyph unicode="&#x2dc;" horiz-adv-x="1125" d="M206 1197q24 163 84.5 244t161.5 81q57 -2 141 -39q80 -35 139 -35h4q44 0 72.5 30.5t44.5 100.5h69q-26 -157 -85.5 -234.5t-159.5 -77.5h-5q-61 0 -139 34q-83 36 -144 36q-48 0 -74 -31t-43 -109h-66z" />
<glyph unicode="&#x2dd;" horiz-adv-x="1125" d="M157 1166l210 396q34 64 65.5 91.5t68.5 27.5q40 0 69 -28.5t29 -68.5q0 -22 -15 -50.5t-43 -60.5l-297 -307h-87zM552 1166l208 396q34 64 65.5 91.5t68.5 27.5q40 0 69.5 -28.5t29.5 -68.5q0 -22 -15.5 -50.5t-45.5 -60.5l-297 -307h-83z" />
<glyph unicode="&#xe01;" horiz-adv-x="1272" d="M108.5 598.5q-0.5 14.5 3.5 43.5q11 44 45 104.5t97.5 117t162 97.5t237.5 41q257 0 374 -113t117 -313v-504q0 -37 -25.5 -54.5t-63.5 -17.5q-35 0 -62 17.5t-27 54.5v526q0 146 -88.5 202t-241.5 56q-85 0 -148 -21.5t-109 -52.5t-70.5 -64t-32.5 -62q20 -9 44 -20 t43 -23q16 11 37 32t39 30q34 21 54.5 4.5t39.5 -37.5q3 -8 10.5 -20t11 -24t-2.5 -23t-22 -21q-40 -21 -60.5 -70t-20.5 -82v-325q2 -39 -24 -57t-65 -20q-35 -2 -62.5 15.5t-27.5 52.5q-4 79 -5 140.5t1 102.5q0 51 4 91q0 12 5 45.5t17 47.5q-58 28 -89.5 42.5 t-50.5 21.5q-16 12 -21 14q-23 11 -23.5 25.5z" />
<glyph unicode="&#xe02;" horiz-adv-x="1146" d="M77 722q-27 79 13 157t125 112q-11 -4 14 5t71.5 15t107.5 1t126 -39q69 -31 110.5 -98.5t41.5 -134.5q0 -88 -43.5 -149t-95.5 -110q-55 -52 -74.5 -111t-8 -107t54 -79t105.5 -31q117 0 159 39t42 113v628q0 38 25.5 56t62.5 18q38 0 64.5 -18t26.5 -56v-628 q-5 -100 -34 -161.5t-81.5 -96t-121.5 -46.5t-143 -12q-66 0 -127 15.5t-109 49t-79.5 87t-33.5 127.5q-6 82 34 154.5t84 107.5q20 17 58.5 47.5t66 74t27.5 91t-55 98.5q12 -90 -26 -146.5t-104 -84.5q-42 -12 -86 -12t-83 14.5t-70 44.5t-44 65zM198 765q14 -28 46.5 -39 t73.5 4q31 11 49.5 43.5t4.5 62.5q-10 28 -43 40.5t-71 -6.5q-36 -9 -54 -40t-6 -65z" />
<glyph unicode="&#xe03;" horiz-adv-x="1223" d="M73 772q11 59 44 106t83 77t104 41q60 11 117 -3.5t84 -55.5l11 14q10 14 33 28.5t62 20t90 -8.5q104 -34 137 -123.5t-1 -194.5q-19 -53 -58 -95.5t-82 -78t-80.5 -74t-47.5 -84.5q-23 -77 19 -133.5t149 -51.5q64 0 102 18t57 42.5t22.5 53.5t3.5 48v607 q0 36 26.5 54.5t62.5 18.5q39 0 64 -18.5t25 -54.5v-607q0 -140 -90 -234.5t-277 -94.5q-86 0 -152 23t-109 63t-67 93.5t-30 112.5q-2 60 19 112t52.5 92t68.5 73t68 55q93 76 115 133.5t-13 92.5q-8 4 -21.5 7t-31 1t-30.5 -13.5t-13 -37.5q-3 -19 -25 -31t-47 -12 q-56 0 -66 48q-6 30 -37 45t-67.5 15t-66.5 -16t-39 -51q33 12 72.5 8.5t74 -22.5t54.5 -50.5t20 -75.5q0 -65 -50 -107.5t-128 -42.5q-23 0 -54.5 5.5t-61.5 20t-57 43.5t-35 77q-14 63 -3 122zM210 656q0 -24 23.5 -41t57.5 -17q35 0 57.5 15.5t22.5 42.5q0 31 -21 46.5 t-59 15.5q-34 0 -57.5 -15.5t-23.5 -46.5z" />
<glyph unicode="&#xe04;" horiz-adv-x="1213" d="M108 70v469q0 208 123 327q131 137 385 136q229 0 356 -130q44 -39 81 -122t37 -211v-469q0 -37 -26.5 -54.5t-61.5 -17.5q-37 0 -63 17.5t-26 54.5v471q0 86 -21.5 143.5t-59.5 90t-90.5 48.5t-125.5 16q-71 0 -129 -16t-104.5 -49.5t-70.5 -91t-24 -143.5v-33 q24 26 55.5 59t74 63t92 51.5t106.5 21.5q90 0 152.5 -58.5t62.5 -136.5q0 -79 -62.5 -136t-152.5 -57q-64 0 -113 32.5t-74 79.5q-65 -54 -103 -134t-38 -174v-47q0 -37 -26.5 -54.5t-66.5 -17.5q-33 0 -60 17.5t-27 54.5zM529 506q0 -29 25 -50t62 -21q34 0 61 21t27 50 t-26.5 51t-61.5 22q-37 0 -62 -22t-25 -51z" />
<glyph unicode="&#xe05;" horiz-adv-x="1209" d="M108 70v586q0 155 79.5 245t238.5 104q40 2 59 -17t38 -44q59 -72 116 -70.5t118 68.5q19 25 41.5 47t75.5 9q24 -7 60 -17t72 -33t62 -63t26 -101v-714q0 -37 -26 -54.5t-63 -17.5q-38 0 -63.5 17.5t-25.5 54.5v736q0 9 -8 17t-38 18q-8 -10 -27.5 -29.5t-49.5 -39 t-67 -34t-87 -14.5q-44 0 -83 13.5t-69.5 32.5t-50.5 37.5t-28 31.5q-71 -10 -95.5 -59.5t-24.5 -123.5v-166q56 73 113 110.5t107 57.5q56 27 113 29q33 0 69 -12.5t69 -38.5t53.5 -62.5t20.5 -83.5q0 -80 -63.5 -136.5t-150.5 -56.5q-62 0 -114.5 27.5t-78.5 75.5 q-21 -8 -44 -38t-42.5 -70.5t-35.5 -88t-16 -90.5v-43q0 -37 -26.5 -54.5t-63.5 -17.5q-35 0 -62.5 17.5t-27.5 54.5zM526 490q0 -34 26.5 -54.5t66.5 -20.5q37 0 62 20.5t25 54.5q0 29 -25 52t-62 23q-39 0 -66 -23t-27 -52z" />
<glyph unicode="&#xe06;" horiz-adv-x="1347" d="M81 756.5q8 60.5 38 109.5t77.5 82t101.5 41q63 13 118.5 -4.5t82.5 -57.5q0 -5 9.5 11.5t32.5 31.5t60.5 22.5t90.5 -7.5q51 -16 86 -50.5t50.5 -78t13 -90t-24.5 -91.5q-18 -31 -46 -57.5t-55.5 -52.5t-48.5 -55t-21 -65v-63q18 -13 40.5 -32.5t48.5 -40.5 q24 -17 53 -43.5t60 -49t58 -40.5t46 -20q6 0 21.5 -3t34 4.5t33 30.5t14.5 80v645q0 35 25 52.5t65 17.5q33 0 58.5 -17.5t25.5 -52.5v-645q0 -63 -16.5 -119t-52.5 -96t-90 -58t-128 -8q-63 11 -142.5 58.5t-160.5 130.5q-9 -38 -26.5 -72t-45.5 -61t-69 -41.5t-95 -12.5 q-66 5 -117.5 46.5t-78.5 109.5q-26 78 -7.5 155.5t78.5 128.5q42 35 95 47.5t108 -4.5q6 63 23.5 106t63.5 76q93 70 109.5 113.5t-18.5 73.5q-6 4 -21.5 8t-28 -1t-21.5 -20t-7 -44q0 -17 -22 -30.5t-48 -13.5q-54 0 -66 50q-4 27 -38.5 50.5t-69.5 18.5t-52.5 -23.5 t-19.5 -36.5q33 7 70 0t69 -24.5t50 -48t18 -74.5q0 -63 -51 -106.5t-123 -43.5q-25 0 -54.5 7.5t-58 22t-52.5 40.5t-36 64q-24 60 -16 120.5zM214 652q0 -27 23.5 -44t60.5 -17t60 17t23 44q0 26 -22 44.5t-61 18.5q-37 0 -60.5 -19t-23.5 -44zM347 229q0 -28 17 -58 t58 -30t54.5 24.5t16.5 65.5q0 43 -14 71t-55 28q-27 0 -52 -21.5t-25 -79.5z" />
<glyph unicode="&#xe07;" horiz-adv-x="981" d="M64 541q2 40 30 56t63 13q38 -2 63.5 -18.5t25.5 -54.5q-2 -50 13 -101t43.5 -96t63.5 -83.5t75 -61.5q51 -30 101 -30t86 18t46.5 71t10.5 89v263q-66 -13 -115.5 0t-84 41t-54.5 67t-20 80q0 83 64.5 140t154.5 57q77 0 123.5 -23.5t71.5 -58t31.5 -75t6.5 -71.5v-420 q0 -71 -14 -124.5t-37 -93.5t-50 -63t-52 -39q-73 -38 -169 -28.5t-196 68.5q-133 80 -208.5 211.5t-72.5 266.5zM538 794q0 -29 26 -50.5t66 -21.5q36 0 62 21.5t26 50.5q0 34 -26 56t-62 22q-40 0 -66 -21.5t-26 -56.5z" />
<glyph unicode="&#xe08;" horiz-adv-x="1146" d="M70 677q7 21 30 72.5t80 107.5t155 99.5t248 43.5q145 0 235.5 -36.5t139 -91.5t65.5 -122t17 -132l-2 -405q0 -111 -56 -162t-151 -55q-40 -2 -80 3t-71 22.5t-57.5 51.5t-34.5 85l-23 166q-10 -14 -40 -21.5t-53 -7.5q-90 0 -152 57t-62 137q0 78 62 136t152 58 q99 0 161 -48.5t73 -145.5q2 -21 8 -56q6 -31 11.5 -82.5t22.5 -141.5q4 -31 18 -45t40 -17q33 -4 44 21.5t11 44.5v369q0 62 -9 110t-39 80t-86 49.5t-146 17.5q-88 0 -150.5 -21.5t-104.5 -52t-61.5 -66.5t-25.5 -61q-5 -36 -35 -49t-66 -8q-6 1 -21 6.5t-27 18t-19 29.5 t-1 42zM380 489q0 -35 27.5 -55.5t64.5 -20.5t64.5 20.5t27.5 55.5q0 28 -27.5 50t-64.5 22q-36 0 -64 -22t-28 -50z" />
<glyph unicode="&#xe09;" horiz-adv-x="1310" d="M72 450q0 82 65 141t155 59q53 0 94.5 -18.5t67.5 -45.5t42 -61.5t16 -65.5v-214q0 -12 2 -40.5t23.5 -41.5t70.5 11.5t148 118.5q37 35 80.5 74t95.5 60v140q0 134 -68.5 203t-243.5 69q-102 0 -172.5 -16.5t-116.5 -38t-66.5 -41t-24.5 -25.5q-21 -31 -60.5 -40 t-71.5 15q-62 37 -24 103q20 24 54.5 59.5t98 68.5t158 55.5t225.5 22.5q266 0 379 -107.5t113 -327.5v-149q52 -26 82.5 -82.5t30.5 -124.5q0 -92 -60 -158t-143 -66q-81 0 -132.5 38t-72.5 94q-52 -51 -113.5 -91.5t-135.5 -40.5q-128 0 -182 69t-57 199q-23 -4 -37 -4 q-90 0 -155 58.5t-65 140.5zM202 450q0 -32 25 -52t65 -20q37 0 65 20t28 52q0 33 -28 56t-65 23q-39 0 -64.5 -23t-25.5 -56zM957 211q0 -31 18 -57.5t47 -26.5q31 0 51.5 26.5t20.5 57.5q0 36 -20.5 63t-51.5 27q-29 0 -47 -27t-18 -63z" />
<glyph unicode="&#xe0a;" horiz-adv-x="1121" d="M77 713q-27 78 10 153.5t123 106.5q2 0 31.5 9t75.5 11.5t103.5 -3t113.5 -35.5q46 -24 81.5 -60t49.5 -78q28 24 69 58t78.5 66t66.5 63t38 52q4 26 15 36q16 13 35 18t61 -6q50 -19 55 -46.5t-1 -46.5q-5 -30 -33.5 -62t-65 -66t-77.5 -64t-68 -62q63 -20 108 -75 t45 -134v-267q0 -106 -36.5 -165.5t-90.5 -88.5t-121 -33.5t-121 -4.5q-155 0 -252 73t-97 217q0 70 33.5 134t76.5 104q17 12 56 44t68 73t30 91.5t-55 103.5q12 -49 6 -86t-25 -63t-47.5 -44t-58.5 -34q-44 -13 -86.5 -13t-81.5 15t-69 42t-43 67zM192 753 q16 -29 47.5 -39.5t70.5 4.5q32 10 49 42t6 62q-8 27 -42.5 38.5t-70.5 -1.5q-35 -13 -52.5 -42.5t-7.5 -63.5zM465.5 261q12.5 -48 55.5 -79t108 -31q114 0 153 40t39 113v231q-2 38 -30.5 85t-101.5 75q-12 -68 -56.5 -121t-87.5 -95q-55 -54 -73.5 -112t-6 -106z" />
<glyph unicode="&#xe0b;" horiz-adv-x="1235" d="M73 767q11 59 44 104.5t82 77.5t103 40q62 13 119 -1.5t84 -54.5q-2 0 8.5 14t33 27t60.5 19.5t91 -8.5q56 -20 95.5 -55t58.5 -94q23 26 53.5 57.5t55.5 62.5t45 59.5t28 44.5l2 12q2 13 12.5 24.5t33 18t64.5 -8.5q50 -19 54.5 -46.5t0.5 -46.5q-10 -30 -33.5 -64 t-54.5 -69t-65.5 -69.5t-64.5 -63.5q58 -25 88.5 -75.5t30.5 -130.5v-244q0 -82 -18.5 -139.5t-60.5 -95t-113 -55.5t-181 -18q-84 0 -149 23t-109 62t-68.5 92.5t-27.5 114.5q-4 58 17 108.5t52.5 92t68.5 74.5t66 54q92 74 111.5 129t-19.5 90q-5 4 -17 9t-28.5 3 t-28.5 -13t-12 -36q0 -19 -22.5 -31t-47.5 -12q-27 0 -43.5 12.5t-20.5 34.5q-4 30 -36 43.5t-67.5 13.5t-66.5 -15.5t-35 -47.5q30 13 70.5 8.5t73.5 -23t52 -49.5t19 -74q0 -65 -50.5 -107.5t-123.5 -42.5q-23 0 -55 5.5t-63 19.5t-58 42.5t-35 74.5q-14 64 -3 123z M205 646q0 -26 23.5 -41.5t55.5 -15.5q36 0 58.5 15.5t22.5 41.5q0 29 -21.5 46t-59.5 17q-32 0 -55.5 -17t-23.5 -46zM567 339q-23 -77 20 -134.5t146 -54.5q64 0 103 15t59 36t24 50.5t4 59.5v224q0 32 -19.5 68t-70.5 64q-17 -54 -56.5 -94.5t-81 -76t-80 -73.5 t-48.5 -84z" />
<glyph unicode="&#xe0c;" horiz-adv-x="1778" d="M107.5 597q0.5 16 4.5 42q11 46 45 106.5t97.5 116t159.5 97t235 41.5q260 0 376 -113t116 -311v-235v-2q23 -28 54 -60t65.5 -58.5t68.5 -45.5t65 -19q12 0 27.5 3t32 15.5t24 38.5t7.5 74v642q-2 32 26 51.5t66 19.5t64 -17.5t26 -53.5v-642q0 -97 -29 -156 t-69.5 -89.5t-88 -39t-86.5 -8.5q-73 0 -135.5 37t-117.5 88q-25 -55 -76 -92.5t-130 -37.5q-40 0 -77 17t-66 48t-44.5 74.5t-15.5 86.5q0 94 59.5 159.5t143.5 65.5h26v158q0 142 -87.5 198.5t-237.5 56.5q-89 0 -150.5 -21t-106.5 -52t-70.5 -64t-32.5 -60q19 -11 43 -22 t43 -24q16 12 38 32.5t40 32.5q32 21 52 4t39 -40q10 -12 21 -37.5t-23 -47.5q-27 -25 -48 -54q-20 -28 -29.5 -61t-2.5 -75h20q79 0 136 -54.5t57 -129.5q0 -80 -57.5 -134t-135.5 -54q-47 0 -84 16.5t-60.5 44t-38.5 60t-17 70.5q-2 32 -2 69v72q0 40 2 78q0 12 9.5 45.5 t25.5 52.5q-63 24 -96.5 39t-54.5 22l-21 12q-25 8 -24.5 24zM387 180q0 -30 23 -51t59 -21q35 0 56.5 21t21.5 51q0 27 -21.5 48t-56.5 21t-58.5 -21t-23.5 -48zM866 215q0 -35 21 -59.5t48 -24.5q32 0 53.5 24.5t21.5 59.5q0 34 -21.5 61.5t-53.5 27.5q-27 0 -48 -27.5 t-21 -61.5z" />
<glyph unicode="&#xe0d;" horiz-adv-x="1817" d="M109.5 608.5q0.5 16.5 4.5 43.5q11 43 44 102t95 115t156.5 96t228.5 40q251 0 367 -112.5t113 -306.5l-2 -218q0 -53 7.5 -91t31 -61.5t62 -33.5t102.5 -10q65 0 105.5 10t61 34.5t30 63t9.5 91.5v564q0 36 25 56t59 20q37 0 63.5 -20t26.5 -56v-564q0 -92 -18.5 -156 t-62 -108t-116.5 -64.5t-183 -20.5q-108 0 -181.5 20.5t-117 64.5t-60.5 108t-17 156v239q2 141 -84 196t-234 55q-86 0 -146.5 -20.5t-104.5 -52t-67.5 -63.5t-30.5 -59q17 -6 40.5 -18t42.5 -23q13 11 34.5 29.5t39.5 32.5q33 18 53 2t39 -37q3 -5 8.5 -15t7.5 -21.5 t-2 -24t-18 -22.5q-29 -23 -47 -48q-18 -22 -28.5 -55t-3.5 -72h19q78 0 134 -55.5t56 -129.5q0 -76 -56 -128.5t-134 -52.5q-89 0 -139.5 58.5t-54.5 126.5q-2 34 -2 69.5v65.5q0 34 2 74q0 11 9 44.5t27 48.5q-62 22 -95.5 37t-53.5 21l-20 9q-25 10 -24.5 26.5zM382 209 q0 -29 23 -49t56 -20t56.5 20t23.5 49q0 30 -23.5 48.5t-56.5 18.5t-56 -18.5t-23 -48.5zM941 -199q0 71 54 122.5t135 51.5q80 0 134.5 -51t54.5 -123q0 -55 -33 -100q47 2 97 11t90.5 30t67.5 61.5t23 103.5q-4 32 18.5 42t54.5 12q69 8 72 -54q4 -106 -64 -193t-221 -118 q-114 -27 -203.5 -18t-150 39.5t-95 78t-34.5 105.5zM1047 -199q0 -32 25.5 -49t57.5 -17q38 0 59.5 19t21.5 47q0 25 -21.5 44.5t-59.5 19.5q-33 0 -58 -19.5t-25 -44.5z" />
<glyph unicode="&#xe0e;" horiz-adv-x="1255" d="M59 213q0 73 59 128t144 55q23 0 36 -4v35q2 12 6 44.5t17 45.5q-57 24 -89.5 39t-44.5 23q-18 7 -22 10q-22 16 -22 30.5t3 40.5q9 41 41.5 101.5t96 115t157 95.5t226.5 41q255 0 369 -112t114 -305v-823q0 -27 -24 -62t-52.5 -69t-57 -60.5t-35.5 -29.5 q-10 -6 -29.5 -14.5t-40.5 0.5q-4 3 -32.5 20t-66.5 42t-76 45.5t-64 28.5q-29 -68 -80.5 -104t-112.5 -41q-5 0 -13.5 -0.5t-16.5 -0.5q-92 0 -154.5 52t-62.5 125q0 77 62.5 127.5t154.5 50.5q10 0 43.5 -3t67.5 -20v68q0 28 17 40t51 12q33 0 54 -10.5t21 -37.5 q4 -25 4 -65.5v-58.5q53 -21 105 -48.5t99 -58.5q21 18 40 40t24 35v843q1 137 -86 193t-230 56q-87 0 -147.5 -21t-105 -51.5t-67 -64t-33.5 -60.5q16 -8 40.5 -18.5t45.5 -20.5q11 10 34 31.5t36 29.5q35 20 54.5 2t41.5 -35l9 -18t8.5 -23t-1 -25.5t-19.5 -20.5 q-42 -17 -61.5 -65.5t-19.5 -80.5v-203q0 -66 -24.5 -104t-60.5 -58.5t-72.5 -26.5t-54.5 -6q-85 0 -144 54.5t-59 129.5zM175 213q0 -28 26.5 -49t60.5 -21t59.5 21t25.5 49q0 30 -25.5 48t-59.5 18t-60.5 -18t-26.5 -48zM357 -295q0 -27 24.5 -47t67.5 -20q39 0 65 20 t26 47q0 30 -26 49t-65 19q-42 0 -67 -19t-25 -49z" />
<glyph unicode="&#xe0f;" horiz-adv-x="1245" d="M59 205q0 71 58 125.5t138 54.5q23 0 39 -5q2 12 2 35q0 14 4 44.5t17 46.5q-55 26 -86.5 39.5t-45.5 21.5q-16 8 -22 9q-21 14 -20.5 28.5t3.5 39.5q7 44 39.5 102t94 113.5t155.5 95t227 39.5q249 0 363 -111t114 -301v-813q0 -25 -18.5 -60t-43 -67t-45.5 -58.5 t-28 -30.5q-17 -5 -33.5 -14.5t-38.5 -0.5q-5 2 -22 14.5t-38.5 31t-44.5 41.5t-40 45q-13 -18 -40 -50.5t-46 -50.5q-17 -19 -43 -19t-43 12q-16 10 -39 37.5t-50 46.5q-38 -64 -94.5 -91t-114.5 -27q-89 0 -154 50.5t-65 124.5t65 125t154 51q12 0 43.5 -3t66.5 -19v69 q0 26 17.5 38.5t48.5 12.5q33 0 56 -10.5t23 -38.5q2 -10 3 -32.5t1 -44t-1 -40t-1 -31.5q24 -14 46.5 -32t41.5 -37q19 11 41 40t34 54q20 24 40 24.5t43 -20.5q21 -29 36 -45.5t26 -27t21 -15t20 -12.5q35 26 40 50v845q0 135 -85 191t-228 56q-85 0 -146 -20t-102.5 -50 t-65.5 -62t-34 -59q17 -10 41 -20.5t45 -21.5q11 11 33 30t38 27q32 23 51 7t36 -38q13 -10 23 -39t-23 -41q-37 -23 -57.5 -69t-20.5 -80v-200q0 -64 -23.5 -102.5t-59.5 -57t-72 -25.5t-58 -7q-81 0 -138.5 54t-57.5 128zM175 205q0 -29 23.5 -48t56.5 -19q38 0 62 19 t24 48q0 30 -23.5 48.5t-62.5 18.5q-33 0 -56.5 -18.5t-23.5 -48.5zM228 -297q0 -27 24.5 -46t64.5 -19t64.5 19t24.5 46q0 29 -24.5 47.5t-64.5 18.5q-39 0 -64 -18.5t-25 -47.5z" />
<glyph unicode="&#xe10;" horiz-adv-x="1145" d="M71 -315q0 66 57.5 112.5t138.5 46.5q42 0 61 -9t34 -13q2 10 2 30.5v32.5q0 28 26 30.5t53 2.5q25 0 42.5 -5.5t17.5 -35.5q0 -78 -13 -136q17 -18 34 -35t36 -38q10 10 18 19t19 24q12 12 30.5 13.5t33.5 -21.5q3 0 14 -13.5t26 -30t36.5 -30.5t43.5 -23q6 -2 20 8.5 t26 26.5t22.5 38t14.5 47q-25 -7 -64 -7q-70 0 -121 40t-51 100q0 61 50.5 102t121.5 41q55 0 100 -25.5t64 -61.5q11 -23 19.5 -68.5t4 -98t-26 -108t-69.5 -92.5q-59 -48 -129.5 -32.5t-130.5 80.5q-12 -16 -23.5 -23.5t-22.5 -20.5q-27 -24 -39.5 -24t-32.5 18 q-16 7 -36.5 30.5t-36.5 43.5q-25 -40 -70.5 -66t-103.5 -26q-81 0 -138.5 46t-57.5 111zM80 737.5q5 49.5 42 95.5q25 31 65.5 63.5t95 59.5t124 44t155.5 17q104 0 186 -18t138 -45t90.5 -55.5t45.5 -49.5q13 -23 13 -48t-50 -52q-31 -21 -52 -11.5t-51 36.5 q-30 32 -115.5 68.5t-211.5 34.5q-59 0 -115.5 -16t-102 -36.5t-72.5 -44t-23 -45.5q4 -23 43.5 -18t128.5 20q80 13 161.5 12.5t149.5 -15t121 -41.5t80 -64q42 -53 48.5 -96.5t6.5 -60.5v-225q-3 -93 -62 -156t-156 -75q-48 -4 -93.5 1.5t-86 22t-70.5 45t-37 66.5 q-4 7 -6 22.5t-7 25.5q-48 -27 -102 -27q-86 0 -146.5 54.5t-60.5 133.5q0 78 60.5 131t146.5 53q65 0 104.5 -16.5t67 -44t39.5 -56.5t19 -54l51 -179q14 -38 47.5 -42.5t58.5 -1.5q22 1 45.5 15.5t23.5 52.5v243q0 67 -34.5 96t-91 39t-128.5 6t-137 -11q-40 -6 -87 -10.5 t-93 -2t-84 16t-59 49.5q-28 44 -23 93.5zM186 -315q0 -24 24.5 -41t56.5 -17q33 0 57.5 17t24.5 41q0 29 -24.5 44.5t-57.5 15.5q-32 0 -56.5 -16t-24.5 -44zM273 360q0 -32 26 -51.5t62 -19.5t61.5 19.5t25.5 51.5t-25.5 52.5t-61.5 20.5t-62 -20.5t-26 -52.5zM727 -141 q0 -25 21.5 -39t51.5 -14q33 0 55 14t22 39q0 24 -22 41t-55 17q-30 0 -51.5 -17t-21.5 -41z" />
<glyph unicode="&#xe11;" horiz-adv-x="1460" d="M65 777q8 57 36 103.5t73.5 77.5t100.5 42q124 21 178 -56q2 2 12 12.5t30.5 22.5t51 20t73.5 1q41 -4 76 -26.5t59 -59.5t30 -84.5t-10 -105.5q-20 -53 -51.5 -84.5t-63.5 -61.5t-57.5 -68.5t-25.5 -111.5l-1 -195q0 -25 13.5 -29t11.5 -4q17 0 31.5 4t31.5 21.5 t32.5 59.5t36.5 113q14 36 25.5 80.5t28.5 92.5q35 117 72.5 202.5t77 142t89 84.5t113.5 28q106 0 162.5 -71t56.5 -176v-679q0 -37 -26.5 -53.5t-61.5 -16.5q-39 0 -64.5 16.5t-25.5 53.5v679q0 36 -11 52.5t-30 16.5t-34.5 -12t-36 -47t-48.5 -100t-60 -174 q-18 -48 -30.5 -90.5t-24.5 -78.5q-21 -68 -43.5 -129.5t-57 -105.5t-84.5 -69t-119 -25q-25 0 -59.5 11t-64 36t-53 65t-23.5 102v175q-2 69 22.5 121.5t48.5 86.5q33 42 72 70q57 39 79 73t21 64.5t-18 48t-34 20.5q-24 8 -56.5 -3.5t-30.5 -45.5q2 -54 -46 -54 q-27 0 -38.5 17.5t-11.5 30.5q-2 29 -33.5 46t-70.5 16t-75.5 -20.5t-41.5 -64.5q10 8 49.5 15t82.5 -2.5t78.5 -42t40.5 -96.5q2 -65 -52 -108.5t-129 -43.5q-23 0 -53 8.5t-55.5 26.5t-47.5 47.5t-31 67.5q-14 64 -6 121zM183 658q0 -26 23.5 -43t57.5 -17t57 17t23 43 q0 29 -22 45.5t-58 16.5q-34 0 -57.5 -16.5t-23.5 -45.5z" />
<glyph unicode="&#xe12;" horiz-adv-x="1834" d="M108 396v248q0 159 87.5 257.5t244.5 109.5q21 2 32 2t21.5 -5.5t19 -15t26.5 -27.5q78 -70 149 -64.5t129 62.5q19 20 28.5 31t19 15t22.5 1t35 -8q120 -29 196 -81.5t76 -133.5v-437q23 -28 53.5 -60.5t66 -60.5t69 -44.5t60.5 -16.5q13 0 29 2t31 13t26.5 38.5 t11.5 77.5v632q0 36 26 56t64 20q36 0 63 -19t27 -57v-632q0 -100 -28 -158t-71 -88.5t-91 -39.5t-88 -9q-71 0 -135.5 47t-124.5 99q-18 -63 -58 -108.5t-127 -45.5q-39 0 -76 16.5t-62.5 47.5t-42 73.5t-16.5 86.5q0 50 16.5 91t42 72.5t62.5 49t76 17.5h16v340 q-2 2 -23 20.5t-74 32.5q-68 -61 -139.5 -81t-137 -12.5t-122.5 32.5t-85 59q-21 -2 -45 -11.5t-46 -30.5t-35.5 -57t-18.5 -84v-2v-260q0 -74 8 -118.5t23 -72t40.5 -41t56.5 -17.5q82 -9 129.5 50.5t64.5 139.5q-8 -3 -28 -3q-81 0 -138 53t-57 128q0 71 57.5 124.5 t137.5 53.5q73 0 129 -44.5t71 -133.5q10 -76 -7.5 -168t-63.5 -170.5t-113 -133t-158 -54.5q-67 0 -128.5 18t-105.5 64t-71 125.5t-27 199.5zM500 515q0 -28 23.5 -49t58.5 -21q36 0 58.5 21t22.5 49q0 24 -22 45t-59 21q-35 0 -58.5 -21t-23.5 -45zM926 215 q0 -32 20.5 -58t46.5 -26q30 0 48.5 26t18.5 58q0 36 -18.5 62.5t-48.5 26.5q-26 0 -46.5 -26.5t-20.5 -62.5z" />
<glyph unicode="&#xe13;" horiz-adv-x="2026" d="M109.5 589.5q0.5 14.5 4.5 42.5q11 43 44.5 103.5t97.5 119t161 99t234 40.5q260 0 377 -114.5t117 -312.5q0 -104 -1 -156t-1 -81v-33q0 -66 17.5 -95.5t79.5 -33.5q67 -5 136 32t123 87t86.5 98t35.5 60v472q0 37 28 54.5t64 17.5q37 0 62.5 -17t25.5 -55v-500 q16 0 37 -13.5t39 -42.5t32.5 -67.5t14.5 -82.5q0 -94 -60.5 -159t-144.5 -65q-80 0 -132 38t-62 96q-30 -30 -64.5 -52t-74 -42.5t-78.5 -31.5t-68 -11q-142 0 -209 83.5t-67 229.5v292q0 144 -87.5 201t-237.5 57q-87 0 -151 -21.5t-108 -52.5t-68 -66.5t-35 -60.5 q20 -7 44 -17.5t43 -24.5q16 13 38 33.5t40 28.5q34 23 55.5 10t39.5 -37q4 -3 11.5 -16t9 -26t-5.5 -25.5t-19 -25.5q-29 -21 -50 -46q-20 -25 -29.5 -58t-1.5 -76h20q81 0 137 -55.5t56 -132.5q0 -78 -56.5 -132t-136.5 -54q-94 0 -145 60.5t-56 132.5q-2 30 -2 67v69 q0 38 2 73q0 14 8.5 47.5t29.5 51.5q-66 24 -99.5 37.5t-55.5 23.5l-20 10q-25 11 -24.5 25.5zM387 178q0 -31 25.5 -51t59.5 -20t57 20t23 51q0 29 -23 50t-57 21t-59.5 -21t-25.5 -50zM1645 211q0 -33 21.5 -58.5t52.5 -25.5q28 0 47.5 25.5t19.5 58.5q0 34 -17 61t-50 27 q-31 0 -52.5 -25t-21.5 -63z" />
<glyph unicode="&#xe14;" horiz-adv-x="1249" d="M86 483q2 101 36.5 197t101.5 169t165.5 118.5t231.5 45.5q110 0 205 -29t166 -88.5t111.5 -144t40.5 -199.5v-480q0 -37 -26.5 -54.5t-62.5 -17.5t-61 17.5t-25 54.5v480q0 141 -92 218t-256 77q-97 0 -167.5 -33.5t-114.5 -90.5t-62.5 -132.5t-14.5 -157.5 q9 -134 68 -208.5t156 -74.5q95 0 152 42.5t60 128.5q-18 -9 -35.5 -12.5t-43.5 -3.5q-88 0 -150.5 56t-62.5 137q0 79 62.5 137t150.5 58q48 0 82 -15.5t59 -36t39.5 -40t19.5 -28.5q46 -80 49 -180t-37.5 -190t-126.5 -152t-218 -62q-86 0 -159 31.5t-126.5 94.5t-85 155 t-29.5 213zM531 498q0 -31 25 -52t63 -21q40 0 65.5 21t25.5 52q0 32 -25.5 52.5t-65.5 20.5q-37 0 -62.5 -20.5t-25.5 -52.5z" />
<glyph unicode="&#xe15;" horiz-adv-x="1256" d="M108 390v256q0 78 25 141.5t69.5 112t100.5 75.5t113 32h35t27 -5.5t27.5 -15.5t31.5 -26q38 -38 73.5 -44.5t69 -3.5t59.5 17.5t45 30.5q44 40 68.5 46.5t45.5 4.5q46 -5 87 -25.5t72 -48.5t50.5 -67t19.5 -83v-713q0 -37 -25 -54.5t-65 -17.5q-35 0 -60.5 17.5 t-25.5 54.5v702q0 8 -13.5 31.5t-47.5 35.5q-66 -61 -133.5 -81t-130.5 -12.5t-115.5 32.5t-81.5 59q-22 -2 -46 -13t-44.5 -31.5t-37 -55.5t-16.5 -83v-268q0 -72 13 -116.5t34.5 -71t51 -39.5t65.5 -18q34 -5 74.5 4t75 29.5t56.5 52.5t18 70q-40 -12 -78 -12 q-89 0 -151 56.5t-62 135.5q0 84 62 140t151 56q67 0 111 -21.5t71 -51t40.5 -58.5t16.5 -44q22 -99 9.5 -193t-61 -164.5t-127.5 -113t-185 -42.5q-67 0 -133 18t-115.5 65t-81.5 123.5t-32 194.5zM506 481q0 -31 25 -51.5t64 -20.5q38 0 66 20.5t28 51.5q0 34 -28 54.5 t-66 20.5t-63.5 -20.5t-25.5 -54.5z" />
<glyph unicode="&#xe16;" horiz-adv-x="1269" d="M107.5 595.5q0.5 14.5 4.5 43.5q11 46 45 107t98.5 118.5t163 99t237.5 41.5q262 0 381.5 -115.5t119.5 -316.5v-509q0 -39 -26.5 -55.5t-66.5 -16.5q-36 0 -64 16.5t-28 55.5v534q0 144 -88 201t-240 57q-88 0 -151.5 -21.5t-110 -52.5t-70.5 -65t-33 -61 q18 -11 43.5 -22t43.5 -26q16 14 38 34.5t40 30.5q34 23 54.5 6t38.5 -40q4 -7 11.5 -19t11 -24t-1 -24.5t-23.5 -19.5q-40 -21 -61.5 -70t-21.5 -84v-36q12 4 23.5 5t24.5 1q37 0 73.5 -14.5t63 -40.5t43 -60.5t16.5 -72.5q0 -40 -16.5 -75t-43 -60t-63 -40.5t-73.5 -15.5 q-66 0 -109 23t-69.5 56.5t-38.5 70.5t-12 62q-6 30 -6 62v61q0 36 4 74q0 14 12 47.5t28 52.5q-125 47 -156 58q-19 10 -21 13q-25 12 -24.5 26.5zM413 180q0 -33 24 -53t63 -20q34 0 56.5 20t22.5 53q0 29 -22.5 50t-56.5 21q-38 0 -62.5 -21t-24.5 -50z" />
<glyph unicode="&#xe17;" horiz-adv-x="1348" d="M63 804q0 82 64 139t150 57q73 0 119.5 -20t70.5 -53.5t35 -74.5t11 -82v-236q16 42 40 95.5t56 104t66 94.5t62 74q66 65 152 84t157 -7t121 -96t50 -180v-640q2 -40 -24 -58t-67 -18q-35 0 -60 18t-25 58v635q0 59 -23.5 89t-54 38t-60 -2t-44.5 -29 q-57 -46 -111.5 -132.5t-104 -192t-82 -214t-48.5 -191.5q0 -41 -25.5 -58t-60.5 -17q-39 0 -64.5 17t-25.5 58l-2 557q-40 -19 -88.5 -11t-88 30.5t-67.5 65.5t-28 98zM189 804q0 -34 28.5 -55t59.5 -21q41 0 68.5 21t27.5 55q0 30 -27 52.5t-69 22.5q-31 0 -59.5 -22.5 t-28.5 -52.5z" />
<glyph unicode="&#xe18;" horiz-adv-x="1185" d="M117 604q-53 97 14 203q20 36 64 73t104.5 66.5t136 48t162.5 18.5q111 0 193.5 -17.5t140.5 -44t91.5 -55t46.5 -49.5q8 -13 13 -28t5.5 -31t-6 -32t-34.5 -32q-37 -21 -66 -2.5t-58 43.5q-33 33 -119.5 55.5t-211.5 22.5q-56 0 -116 -11.5t-106.5 -32.5t-78 -47 t-28.5 -49q4 -36 46.5 -35t138.5 21q85 14 168 11.5t155.5 -18t126.5 -39.5t78 -54q47 -55 56.5 -98.5t9.5 -72.5v-142q-3 -133 -113 -210t-328 -77q-85 0 -163.5 12t-139 44t-96 89.5t-35.5 148.5v104q0 38 24 56t65 18q34 0 60 -17t26 -52v-93q0 -48 21.5 -77.5t56 -44.5 t82 -21t99.5 -6q54 0 102 7.5t82 24.5t55.5 50t21.5 83v94q0 68 -43.5 96.5t-108.5 34.5t-142.5 -2t-139.5 -15q-41 -6 -86.5 -8t-88.5 4t-78.5 25.5t-58.5 59.5z" />
<glyph unicode="&#xe19;" horiz-adv-x="1480" d="M63 796q0 81 62 138t151 57q65 0 110 -18t70 -49t38 -74t13 -85v-404q0 -60 17.5 -98.5t45.5 -59t70.5 -27t90.5 -6.5q108 0 159.5 34.5t74.5 81t38.5 98t55.5 85.5v451q0 41 25 57.5t64 16.5q34 0 61.5 -16.5t27.5 -57.5v-425q22 0 41.5 -4t41.5 -27q30 -25 42.5 -57 t18 -65t6.5 -62t1 -43q0 -36 -9.5 -77t-35 -81t-63 -65t-96.5 -25q-73 0 -116.5 32.5t-71.5 88.5q-11 -9 -28 -30.5t-50.5 -41.5t-79.5 -34.5t-107 -14.5q-189 0 -293.5 91.5t-104.5 280.5v257q-42 -20 -88.5 -14t-87 31t-67.5 66t-27 95zM187 796q0 -31 27 -51.5t62 -20.5 q38 0 64.5 20.5t26.5 51.5q0 32 -26.5 54t-64.5 22q-35 0 -62 -21.5t-27 -54.5zM1100 245q0 -40 11.5 -58.5t28.5 -35.5q18 -11 40 -13q34 0 56.5 28.5t22.5 76.5q0 40 -17.5 74.5t-65.5 34.5q-33 0 -54.5 -28.5t-21.5 -78.5z" />
<glyph unicode="&#xe1a;" horiz-adv-x="1333" d="M63 804q0 82 63 139t151 57q73 0 118.5 -17.5t70 -49t35 -74t10.5 -89.5q0 -147 2 -225.5t2 -117.5v-56q0 -50 9 -88t34 -64.5t77 -41.5t134 -15t134.5 11.5t80 37.5t38 66.5t10.5 100.5v547q0 36 27 53.5t62 17.5q39 0 66 -17.5t27 -53.5v-547q0 -206 -107 -297.5 t-338 -91.5q-218 0 -326 92.5t-108 296.5v243q-42 -19 -89.5 -11t-87 30.5t-67.5 65.5t-28 98zM189 804q0 -34 27 -55t61 -21q39 0 66.5 21t27.5 55q0 30 -27 53.5t-67 23.5q-34 0 -61 -23.5t-27 -53.5z" />
<glyph unicode="&#xe1b;" horiz-adv-x="1304" d="M63 794q0 83 62 140t151 57q69 0 114.5 -18t71.5 -49t35.5 -74t9.5 -87q0 -145 2 -223t2 -118v-54q0 -51 9 -89t34 -64t76 -43.5t131 -17.5t132.5 13t79.5 39.5t39 66.5t12 100v862q0 35 26 52.5t61 17.5q39 0 65.5 -17.5t26.5 -52.5v-862q0 -204 -105.5 -294t-336.5 -90 q-217 0 -322.5 91.5t-105.5 292.5v240q-42 -16 -88.5 -10.5t-87 30.5t-67.5 67t-27 94zM187 794q0 -31 27 -51.5t62 -20.5q38 0 64.5 20.5t26.5 51.5q0 34 -26.5 56t-64.5 22q-35 0 -62 -21.5t-27 -56.5z" />
<glyph unicode="&#xe1c;" horiz-adv-x="1283" d="M108 301v462q0 40 9.5 83t38 76t76 53.5t122.5 20.5q90 0 154.5 -57.5t64.5 -139.5q0 -81 -64.5 -138t-154.5 -57q-36 0 -69 14v-323q0 -56 22.5 -100t88.5 -44q51 0 80.5 21.5t43.5 49t17.5 57.5t5.5 45v191q0 37 27 62t66 25q37 0 62.5 -25t25.5 -62v-191l2 -27 t17.5 -59.5t44.5 -60t82 -27.5q48 0 80.5 28.5t32.5 122.5v621q0 38 25 55t66 17q36 0 62 -17t26 -55v-621q0 -133 -67 -222.5t-225 -89.5q-73 0 -135 36t-99 98q-43 -65 -104.5 -99.5t-133.5 -34.5q-133 0 -211.5 75.5t-78.5 236.5zM265 799q0 -33 26.5 -53t62.5 -20 q39 0 66 20t27 53q0 32 -27 54t-66 22q-36 0 -62.5 -22t-26.5 -54z" />
<glyph unicode="&#xe1d;" horiz-adv-x="1302" d="M108 305v467q0 41 9.5 83.5t39 76t77 54.5t124.5 21q91 0 154.5 -58t63.5 -142q0 -81 -63.5 -139t-154.5 -58q-38 0 -70 13v-326q0 -54 22 -99t88 -45q52 0 82 21t43.5 49t17.5 58t6 47v191q0 37 28.5 63t66.5 26q35 0 61.5 -26t26.5 -63v-191l2 -28t17.5 -60.5t46 -60.5 t81.5 -28q49 0 81.5 29t32.5 125v949q0 37 26.5 54.5t64.5 17.5q37 0 64 -17.5t27 -54.5v-949q0 -135 -68 -225.5t-228 -90.5q-73 0 -136.5 37t-98.5 99q-43 -64 -106.5 -100t-133.5 -36q-135 0 -214.5 75.5t-79.5 240.5zM267 807q0 -33 26.5 -54t64.5 -21t65 21t27 54 q0 32 -27 55t-65 23t-64.5 -23t-26.5 -55z" />
<glyph unicode="&#xe1e;" horiz-adv-x="1531" d="M63 807q0 84 63 142t154 58q67 0 114 -20t72 -51.5t37 -73.5t12 -88v-477q0 -54 24.5 -99t86.5 -45q55 0 85.5 20.5t44.5 49t19.5 57.5t5.5 48v523q0 39 24 67t65 28q37 0 64 -27.5t27 -67.5v-523q0 -19 4 -49t19.5 -58.5t46 -49t75.5 -20.5q52 0 82.5 34.5t30.5 119.5 v630q0 38 27.5 57t60.5 19q37 0 66 -19t29 -57v-630q0 -135 -67 -225.5t-229 -90.5q-71 0 -135 37t-101 99q-43 -64 -105.5 -100t-136.5 -36q-132 0 -211.5 76t-79.5 240v320q-42 -19 -89.5 -11.5t-88 30.5t-68.5 66t-28 97zM189 807q0 -33 28.5 -54t62.5 -21q38 0 65.5 21 t27.5 54q0 34 -27 56t-66 22q-34 0 -62.5 -22t-28.5 -56z" />
<glyph unicode="&#xe1f;" horiz-adv-x="1537" d="M63 806q0 83 63 139.5t154 56.5q67 0 113 -19.5t72 -51t37 -74t11 -85.5v-475q0 -56 24.5 -100t85.5 -44q54 0 85.5 20.5t46 49t19 57.5t4.5 46v523q0 39 24 66t66 27q37 0 64.5 -26.5t27.5 -66.5v-523q0 -17 3.5 -47t19 -58.5t46 -49t75.5 -20.5q50 0 81 33.5t31 119.5 v943q0 36 27 54t62 18q36 0 63.5 -17.5t27.5 -54.5v-943q0 -134 -65 -224.5t-227 -90.5q-73 0 -136 37t-100 99q-43 -67 -105.5 -101.5t-136.5 -34.5q-132 0 -211.5 75.5t-79.5 239.5v319q-42 -19 -88.5 -11.5t-87 31t-68.5 66t-28 97.5zM189 806q0 -34 28.5 -55t62.5 -21 q36 0 63.5 21t27.5 55q0 30 -27 53.5t-64 23.5q-34 0 -62.5 -23.5t-28.5 -53.5z" />
<glyph unicode="&#xe20;" horiz-adv-x="1304" d="M59 178q0 76 61 130t146 54q11 0 36 -3q0 7 1 15t1 20t5 44.5t15 48.5q-56 26 -88.5 40t-45.5 21q-18 12 -22 16q-22 11 -22 25.5t4 42.5q11 41 45.5 102.5t98 119t158 97.5t233.5 40q258 0 375 -114t117 -308v-503q0 -38 -29 -55t-61 -17q-39 0 -65 17t-26 55v523 q0 144 -89 200t-235 56q-89 0 -151 -22t-106 -52.5t-68.5 -65t-34.5 -59.5q19 -8 44 -20.5t45 -21.5q9 9 31.5 30.5t41.5 28.5q35 24 53.5 8.5t39.5 -39.5q5 -7 10.5 -18.5t9 -24.5t-1 -25t-18.5 -20q-23 -10 -39.5 -27t-25.5 -40t-12.5 -43.5t-3.5 -37.5v-207 q0 -68 -26 -108t-62 -59.5t-73.5 -26t-58.5 -6.5q-85 0 -146 54.5t-61 134.5zM181 178q0 -33 26.5 -53.5t58.5 -20.5q34 0 60.5 20.5t26.5 53.5q0 27 -26.5 48t-60.5 21q-32 0 -58.5 -21t-26.5 -48z" />
<glyph unicode="&#xe21;" horiz-adv-x="1299" d="M84 807q0 82 64 143t158 61q72 0 121 -22t77.5 -53.5t43 -73.5t14.5 -88v-347q43 -29 86 -64t82 -68q49 -43 89 -80t74 -41q7 0 24 -2t35.5 7.5t34.5 35.5t16 82v638q0 38 26 57t65 19q36 0 64 -19t28 -57l-2 -658q0 -64 -17.5 -119.5t-55 -96.5t-98 -61t-142.5 -8 q-43 6 -90.5 38.5t-92.5 71.5t-82 78.5t-61 60.5q2 -40 -6 -85.5t-34.5 -83t-69.5 -61.5t-110 -22q-68 5 -124.5 43t-79.5 109q-18 78 -2 161t79 133q36 29 86.5 41.5t94.5 2.5v140q-31 -10 -73 -11q-94 0 -158 58t-64 141zM212 807q0 -33 27.5 -54t66.5 -21q35 0 63.5 21 t28.5 54q0 32 -28.5 54t-63.5 22q-39 0 -66.5 -22t-27.5 -54zM254 231q0 -28 18.5 -59.5t56.5 -31.5q46 0 60 25t20 66q0 46 -16 74.5t-62 28.5q-25 0 -51 -19.5t-26 -83.5z" />
<glyph unicode="&#xe22;" horiz-adv-x="1279" d="M110 774.5q19 72.5 63 129t106.5 87t125.5 28.5q89 -2 154 -58.5t65 -138.5q0 -83 -65 -141t-154 -58q-76 0 -129 39q1 -49 42 -82.5t99.5 -44t131.5 0t145 48.5q34 18 67.5 12.5t51.5 -40.5t1 -64.5t-47 -44.5q-76 -34 -152 -49.5t-156 -10.5q-16 -26 -24.5 -56 t-1.5 -61q12 -57 81.5 -92t183.5 -35q80 0 134.5 12.5t87.5 36t45 65.5t12 102v574q0 40 28 57t66 17q37 0 62.5 -17t25.5 -55v-575q0 -95 -22.5 -165t-74 -118.5t-140.5 -71.5t-224 -23q-126 0 -209.5 27.5t-131.5 66.5t-69 81t-29 67q-27 110 26 203q-129 56 -169 191 q-25 84 -6 156.5zM313 822q0 -33 26.5 -55.5t65.5 -22.5q38 0 65.5 22.5t27.5 55.5q0 29 -27 52.5t-66 23.5t-65.5 -23.5t-26.5 -52.5z" />
<glyph unicode="&#xe23;" horiz-adv-x="1175" d="M62 671q1 64 30 118q62 103 205.5 162.5t309.5 59.5q104 0 182.5 -22t132 -53.5t87 -66.5t52.5 -63q42 -64 -20 -105q-32 -19 -64.5 -17.5t-54.5 27.5q-10 18 -35.5 41.5t-63.5 45.5t-92.5 35.5t-128.5 13.5q-140 0 -239 -44t-128 -94q-25 -37 -1.5 -60.5t46.5 -16.5 q22 4 90.5 21.5t151.5 27.5t170 -2t143 -71q28 -27 44 -60t24 -64.5t9 -56.5t1 -37v-175q0 -92 -55.5 -159t-188.5 -67q-90 0 -152 57.5t-62 140.5q0 52 29 93t70.5 64.5t91.5 28.5t87 -12v54v10q4 12 -1 38t-16 37q-18 18 -39 25t-51 6t-72.5 -9.5t-104.5 -17.5 q-50 -10 -101.5 -21t-102 -11t-91.5 19.5t-68 67.5q-25 48 -24 112zM579 187q0 -36 27.5 -57.5t62.5 -21.5q37 0 65 21.5t28 57.5q0 28 -28 50t-65 22q-35 0 -62.5 -22t-27.5 -50z" />
<glyph unicode="&#xe24;" horiz-adv-x="1219" d="M108.5 602.5q-0.5 16.5 3.5 41.5q11 44 44 103t94 114.5t156.5 95t229.5 39.5q249 0 362.5 -111t113.5 -304v-901q0 -37 -25 -54.5t-61 -17.5q-35 0 -60 17.5t-25 54.5v924q0 140 -86 194.5t-234 54.5q-86 0 -146.5 -21t-103.5 -51t-67.5 -62t-29.5 -59 q19 -10 41.5 -20.5t45.5 -21.5q9 11 30.5 30t37.5 27q35 23 54 7t38 -38q4 -6 9 -16t9 -23.5t0 -25.5t-18 -18q-46 -22 -63.5 -68t-17.5 -80v-33q10 5 20 6t21 1q82 0 136 -55t54 -129q0 -76 -54 -128.5t-136 -52.5q-59 0 -102 21t-68.5 54.5t-34.5 67.5t-9 59q-4 27 -6 58 t2 59q0 32 4 72q0 14 7 47t29 48q-119 47 -149 57q-17 10 -22 11q-23 10 -23.5 26.5zM404 203q0 -29 22.5 -48.5t54.5 -19.5q36 0 59 19.5t23 48.5q0 30 -23 49.5t-59 19.5q-32 0 -54.5 -19.5t-22.5 -49.5z" />
<glyph unicode="&#xe25;" horiz-adv-x="1245" d="M108 656q12 72 58.5 133.5t114.5 108t153.5 71.5t181.5 25q287 0 421 -138q103 -106 104 -258v-540q0 -38 -27 -56t-64 -18q-37 2 -61.5 19t-24.5 55v98q0 24 -11.5 75.5t-43.5 109t-94.5 99t-170.5 47.5q-68 3 -118 -6.5t-82 -30.5t-48 -49t-24 -62q46 22 93 22 q43 0 82 -15.5t68 -41t47.5 -59.5t18.5 -69q0 -78 -62.5 -132.5t-153.5 -54.5q-10 0 -39.5 1.5t-66 15.5t-69.5 45.5t-58 89.5q-23 58 -25 114t7.5 107t31 93.5t41.5 65.5q122 139 369 125q103 -4 178 -37t130 -80v89q0 81 -52 131q-41 41 -116 62.5t-180 21.5 q-60 0 -119 -16t-108 -44.5t-80.5 -67.5t-45.5 -86q-8 -36 -39 -47t-66 -3q-67 13 -50 87zM378 176q0 -33 25.5 -52.5t61.5 -19.5q38 0 66 19.5t28 52.5q0 27 -27.5 47t-66.5 20q-36 0 -61.5 -20t-25.5 -47z" />
<glyph unicode="&#xe26;" horiz-adv-x="1290" d="M57 207q0 74 59 130.5t142 56.5q12 0 19 -2t19 -2q2 10 2 35q0 12 5 44.5t18 45.5q-59 24 -90.5 39t-45.5 21q-14 9 -22 11q-22 13 -22 30.5t5 41.5q8 43 41 103.5t96.5 116t157 95.5t229.5 40q254 0 371 -113t117 -309v-909q0 -39 -26.5 -55.5t-60.5 -16.5 q-36 0 -64.5 16.5t-28.5 55.5v936q0 142 -87 196t-232 54q-85 0 -146.5 -21t-106 -52.5t-67 -64t-33.5 -59.5q16 -8 40.5 -20t45.5 -22q11 13 34 30.5t39 31.5q33 20 53 3t40 -36q10 -13 20 -41t-23 -44q-23 -8 -37.5 -26t-25 -42t-14.5 -43t-4 -37v-205q0 -66 -24.5 -104.5 t-60.5 -58.5t-73.5 -27t-57.5 -7q-83 0 -142 54t-59 130zM175 207q0 -29 26.5 -49t56.5 -20q38 0 63.5 20t25.5 49q0 30 -25.5 49.5t-63.5 19.5q-30 0 -56.5 -19.5t-26.5 -49.5z" />
<glyph unicode="&#xe27;" horiz-adv-x="1105" d="M63 632q1 69 36.5 135.5t97 120.5t145 85.5t187.5 31.5q143 0 233 -39t141 -102t68 -138.5t17 -146.5v-361q0 -95 -55.5 -162t-184.5 -67q-92 0 -154.5 57.5t-62.5 140.5q0 52 28.5 93t71 64.5t91 29.5t88.5 -12v234q0 38 -9 80t-36.5 77.5t-85.5 58t-150 22.5 q-67 0 -119.5 -19t-91 -51t-57 -69t-18.5 -70q-2 -38 -29 -54.5t-64 -14.5q-39 2 -63 18.5t-24 57.5zM656 187q0 -36 25 -55t67 -19q35 0 62 19t27 55q0 28 -27 51t-62 23q-41 0 -66.5 -23t-25.5 -51z" />
<glyph unicode="&#xe28;" horiz-adv-x="1239" d="M110 70v467q0 207 123 325q129 137 383 136q161 0 278 -71q43 24 90.5 73.5t73.5 96.5q21 32 49 31t63 -22q34 -13 44.5 -40.5t0.5 -54.5q-34 -54 -92.5 -114.5t-106.5 -90.5q28 -44 49.5 -111.5t21.5 -157.5v-467q0 -35 -27.5 -52.5t-62.5 -17.5q-36 0 -62.5 17.5 t-26.5 52.5v469q0 86 -21 143.5t-58 90.5t-90 47t-123 14q-73 0 -130.5 -14t-102.5 -49.5t-70 -91.5t-25 -142v-31q24 24 55 57t73 63t92.5 51t107.5 21q88 0 150.5 -58t62.5 -134q0 -79 -62.5 -136t-150.5 -57q-64 0 -113 32.5t-75 79.5q-64 -57 -102 -135.5t-38 -170.5 v-49q0 -35 -26 -52.5t-64 -17.5q-35 0 -61.5 17.5t-26.5 52.5zM529 506q0 -31 24.5 -52t62.5 -21q32 0 59 21t27 52q0 28 -26.5 49t-59.5 21q-38 0 -62.5 -21t-24.5 -49z" />
<glyph unicode="&#xe29;" horiz-adv-x="1423" d="M64 813q0 85 64 142.5t156 57.5q74 0 119.5 -20t71 -52t37.5 -74.5t12 -90.5v-396q0 -52 9 -93.5t36 -70.5t78 -47t136 -18q146 0 204 48t63 144q-24 -4 -52.5 -7.5t-57.5 -1.5q-17 0 -45 3.5t-66.5 12.5t-80.5 22t-81 39q-35 23 -58.5 63.5t-25.5 84.5q-2 37 10.5 70.5 t39.5 61t61 42t80 18.5q83 4 143 -46.5t65 -123.5q0 -23 -6.5 -51t-29.5 -41q31 -2 57.5 -1t48.5 2v443q0 40 27 59t66 19t65.5 -19t26.5 -59v-368q48 37 69.5 79.5t32.5 59.5q17 35 36 43t60 -12q29 -13 40 -29.5t11 -36.5q0 -15 -10 -33q-36 -90 -97 -150.5t-140 -98.5v-2 q0 -211 -110 -303.5t-346 -92.5q-219 0 -331.5 91.5t-112.5 299.5v247q-39 -19 -87 -13.5t-89.5 29.5t-70 68t-28.5 102zM191 813q0 -35 28.5 -56.5t64.5 -21.5q37 0 66.5 21.5t29.5 56.5q0 32 -29 52t-67 20q-36 0 -64.5 -20t-28.5 -52zM704 567q0 -30 26 -46.5t57 -14.5 q35 0 57.5 20t18.5 47q0 29 -23.5 47.5t-59.5 17.5q-32 -2 -55 -22t-21 -49z" />
<glyph unicode="&#xe2a;" horiz-adv-x="1320" d="M107 662q11 73 57.5 135t115.5 108t155.5 71.5t183.5 25.5q217 0 351 -82q40 27 89 76.5t76 95.5q21 31 47.5 30t59.5 -22q36 -12 46 -40.5t-1 -54.5q-31 -55 -88.5 -113.5t-106.5 -90.5q53 -88 53 -199v-544q0 -36 -26.5 -55t-64.5 -19q-34 2 -59 20t-25 54v100 q0 25 -11 77t-44.5 108.5t-96.5 100t-172 46.5q-70 3 -120 -7.5t-82 -30t-48 -48.5t-24 -61q46 21 96 21q41 0 81 -16t68.5 -41.5t47 -59.5t18.5 -71q0 -78 -63.5 -132.5t-151.5 -54.5q-12 0 -42.5 1.5t-66 16.5t-70 45.5t-59.5 90.5q-23 56 -25 113t8.5 109t32 94.5 t42.5 65.5q122 141 370 127q103 -5 179.5 -38t132.5 -82v89q0 84 -54 134q-41 41 -116.5 63.5t-180.5 22.5q-62 0 -121.5 -17t-108.5 -45t-81 -69t-45 -87q-10 -34 -40 -46t-67 -4q-67 16 -49 89zM378 176q0 -31 25.5 -51.5t64.5 -20.5q36 0 64.5 20.5t28.5 51.5 q0 29 -28.5 49t-64.5 20q-38 0 -64 -20t-26 -49z" />
<glyph unicode="&#xe2b;" horiz-adv-x="1336" d="M63 813q0 85 64 141.5t153 56.5q67 0 113 -21t72 -52.5t38 -72.5t12 -89v-283q47 61 100.5 117t138.5 85q-32 13 -41.5 42.5t-9.5 61.5q0 90 72 154t192 64q117 0 187 -64t70 -154q0 -97 -79 -163q35 -34 57 -82t22 -116v-364q0 -37 -25.5 -54.5t-64.5 -17.5 q-38 0 -63.5 17.5t-25.5 54.5v373q0 32 -16 61t-42.5 48t-69 21t-91.5 -18q-65 -27 -119.5 -84.5t-95 -126.5t-65 -142t-33.5 -136q0 -37 -25.5 -55.5t-62.5 -18.5t-64.5 18.5t-27.5 55.5v549q-40 -12 -87.5 -5t-87 32t-67.5 67t-28 100zM191 813q0 -31 26 -54.5t63 -23.5 q38 0 65.5 23.5t27.5 54.5q0 32 -27 54t-66 22q-37 0 -63 -22t-26 -54zM861 799q0 -41 32 -61t76 -20q48 0 75.5 23t27.5 58q0 32 -28.5 55t-76.5 23q-54 0 -80 -23t-26 -55z" />
<glyph unicode="&#xe2c;" horiz-adv-x="1598" d="M63 811q0 82 63 139t151 57q68 0 113.5 -20t72.5 -51.5t38.5 -73.5t11.5 -84v-483q0 -54 23.5 -98t84.5 -44q51 0 81.5 21t44.5 48t18.5 57t6.5 45v301q0 37 25 62.5t66 25.5q37 0 64 -25.5t27 -62.5v-301l2 -27t15.5 -59.5t43.5 -60t82 -27.5q49 0 80.5 28.5t31.5 122.5 v540q-56 -2 -105.5 9t-86.5 35q-48 32 -76 83t-24 115q6 84 70.5 138.5t155.5 48.5q92 -9 153.5 -69t80.5 -155q51 41 73 79q20 32 39.5 27.5t46.5 -27.5q27 -24 33.5 -40.5t-2.5 -38.5q-8 -27 -30.5 -52t-45.5 -46t-52.5 -37t-53.5 -28l1 -582q0 -133 -64.5 -222.5 t-224.5 -89.5q-73 0 -135 36t-99 98q-42 -65 -104.5 -99.5t-135.5 -34.5q-131 0 -209.5 74.5t-78.5 237.5v326q-42 -17 -89.5 -10.5t-87 31.5t-67.5 66t-28 97zM189 811q0 -33 27 -54.5t61 -21.5q39 0 65.5 21.5t26.5 54.5q0 30 -26 52t-66 22q-34 0 -61 -22t-27 -52z M1065.5 1038.5q6.5 -21.5 34.5 -42.5q13 -9 44.5 -12t67.5 -1v6q0 65 -23.5 95.5t-45.5 34.5q-26 2 -44.5 -8.5t-29 -30.5t-4 -41.5z" />
<glyph unicode="&#xe2d;" horiz-adv-x="1293" d="M121 662q12 42 44 101t94 110.5t155 89t224 37.5q117 0 216.5 -29t169 -87t110 -139.5t40.5 -183.5v-126q0 -126 -33.5 -210t-95.5 -136t-151.5 -74.5t-197.5 -25.5q-152 -4 -245.5 47t-138 130t-47.5 172t30 170.5t96.5 131t150.5 51.5q94 -4 142.5 -55.5t48.5 -120.5 q0 -72 -56 -123t-135 -51q-31 0 -65 15t-52 34q-7 -31 -1.5 -75.5t35 -83.5t86.5 -65t154 -25q34 0 85 3t97 29t81.5 84t35.5 168v123q0 56 -17.5 109.5t-61.5 94t-113 66t-168 25.5q-100 0 -164.5 -24.5t-107 -58.5t-61 -70t-27.5 -63q-6 -27 -31 -44.5t-56 -17.5 q-38 0 -58 31t-12 66zM459 515q0 -26 25 -46t58 -20q35 0 58.5 20t23.5 46q0 24 -23.5 45.5t-58.5 21.5q-33 0 -58 -21.5t-25 -45.5z" />
<glyph unicode="&#xe2e;" horiz-adv-x="1212" d="M99 770q0 53 36 97t94.5 74t138.5 45.5t163 15.5q49 0 103.5 -6.5t105.5 -15.5t95.5 -23.5t73.5 -36.5q36 35 58 72t30 71q12 32 43 36.5t61 -7.5q35 -10 54 -33.5t6 -56.5q-19 -52 -53.5 -105.5t-90.5 -92.5q32 -40 49.5 -106t17.5 -163v-139q0 -113 -33.5 -188 t-95 -123t-149 -70.5t-194.5 -25.5q-130 -4 -216 23t-139 74t-71.5 110t-12.5 130q2 54 23 102.5t55 86t81 59.5t102 22q78 0 134 -50.5t56 -120.5q0 -66 -56 -118t-134 -52q-29 0 -62.5 8.5t-50.5 29.5q-6 -30 4.5 -59t44.5 -50.5t91.5 -35t150.5 -10.5q47 2 98.5 8.5 t98.5 32.5t75.5 77t28.5 140v123q0 67 -9.5 111.5t-29.5 87.5q-51 -40 -125.5 -60t-154.5 -29.5t-155.5 -9.5t-128.5 2q-78 4 -123 24.5t-63 44t-21.5 47.5t-3.5 33zM275 794q0 -14 65 -22.5t149.5 -6.5t166 18t117.5 51q-12 16 -42.5 24t-66.5 14.5t-69.5 8.5t-65.5 2 q-120 0 -188 -26t-66 -63zM357 425q0 -27 22 -45.5t55 -18.5q32 0 56 18.5t24 45.5q0 29 -24 47t-56 18q-33 0 -55 -18t-22 -47z" />
<glyph unicode="&#xe2f;" horiz-adv-x="1138" d="M80 799q0 81 63 136.5t150 55.5q92 0 152 -56t60 -136q0 -74 -52 -128q58 -8 127 7t126 50t97 89.5t56 133.5q6 34 37.5 40.5t68.5 -4.5q26 -10 38 -23t15.5 -28.5t1 -26.5t-4.5 -18v-2v-821q0 -35 -25 -51.5t-62 -16.5q-33 0 -57 16.5t-24 51.5v570 q-80 -67 -175.5 -98.5t-195.5 -31.5q-65 0 -135 18t-128 55.5t-95.5 91t-37.5 126.5zM204 799q0 -31 27 -52t62 -21q38 0 65 21t27 52q0 32 -27 52.5t-65 20.5q-35 0 -62 -20.5t-27 -52.5z" />
<glyph unicode="&#xe30;" horiz-adv-x="1160" d="M110 257q0 78 63 135.5t148 57.5q91 0 152.5 -58t61.5 -135q0 -54 -29 -104q39 0 97.5 4.5t112 27t95.5 69.5t60 131q8 32 37 43.5t64 4.5q33 -6 52 -27t13 -56q-51 -240 -307 -317q-95 -29 -203.5 -28t-200 29.5t-154 85t-62.5 137.5zM110 794q0 78 63 136.5t148 58.5 q91 0 152.5 -58.5t61.5 -136.5q0 -57 -29 -101q39 0 97.5 5t112 27t95.5 68t60 129q8 38 37 46t64 3q33 -6 52 -27.5t13 -52.5q-51 -241 -307 -320q-95 -30 -203.5 -28.5t-200 30.5t-154 84.5t-62.5 136.5zM235 257q0 -32 25 -52t61 -20q40 0 65.5 20t25.5 52 q0 30 -25.5 51.5t-65.5 21.5q-35 0 -60.5 -21.5t-25.5 -51.5zM235 820q0 -33 25 -54.5t61 -21.5q40 0 65.5 21.5t25.5 54.5q0 29 -25.5 51t-65.5 22q-35 0 -60.5 -22t-25.5 -51z" />
<glyph unicode="&#xe31;" d="M-754 1363q0 73 56.5 126.5t138.5 53.5q83 0 139.5 -53t56.5 -127q0 -24 -9 -52.5t-39 -36.5q44 -2 122.5 2.5t158 27t151.5 69.5t116 135q10 25 33 31.5t50 -8.5q32 -12 43.5 -28.5t3.5 -50.5q-30 -101 -118 -167t-202 -105t-236 -47t-225.5 16t-171.5 78t-68 136z M-641 1363q0 -27 25 -47.5t57 -20.5q34 0 58.5 20.5t24.5 47.5q0 31 -24 50.5t-59 19.5q-32 0 -57 -19.5t-25 -50.5z" />
<glyph unicode="&#xe32;" horiz-adv-x="1074" d="M102 780q59 97 176.5 165t259.5 68q88 0 164 -28t131.5 -77t89 -117.5t33.5 -151.5v-565q0 -37 -26.5 -55.5t-64.5 -18.5t-64.5 17.5t-26.5 52.5v569q0 83 -59 142.5t-184 59.5q-51 0 -95 -14t-79 -39t-61 -51t-38 -46q-19 -35 -54.5 -36t-68.5 18q-72 39 -33 107z" />
<glyph unicode="&#xe33;" horiz-adv-x="1047" d="M-554 1330q0 42 19.5 82t53.5 68t79.5 47t96.5 19q49 0 92 -15t78 -45t56 -68.5t21 -87.5q0 -98 -72.5 -159t-174.5 -61q-110 0 -179.5 62.5t-69.5 157.5zM-420 1330q0 -47 35 -66t80 -19q47 0 80.5 19t33.5 66q0 35 -27 59t-87 24q-59 0 -87 -25t-28 -58zM59 772 q54 94 171.5 160t256.5 66q88 0 162.5 -26t129.5 -75.5t87 -116.5t32 -146v-562q0 -35 -25.5 -53.5t-61.5 -18.5q-37 0 -64 16.5t-27 53.5v564q0 79 -58 138t-181 59q-46 0 -91 -15t-80.5 -38t-61.5 -49t-39 -46q-17 -36 -52.5 -37.5t-69.5 20.5q-69 38 -28 106z" />
<glyph unicode="&#xe34;" d="M-1126 1178q-14 48 8 70t35 26q39 19 77 59t88 78.5t122 69t184 30.5q96 0 172 -36t130.5 -81t91.5 -87t64 -56q25 -13 27.5 -45t-18.5 -65q-20 -29 -34 -29t-21 3q-100 21 -208 29.5t-216.5 9.5t-215 -7t-197.5 -20q-22 -6 -52.5 8.5t-36.5 42.5zM-916 1251 q143 22 290 19t286 -31q-10 8 -30.5 32t-51.5 51t-77 44t-113 17q-54 0 -96 -13.5t-79 -35t-65.5 -44.5t-63.5 -39z" />
<glyph unicode="&#xe35;" d="M-1124 1179q-14 49 8 72t35 30q41 14 78 55t87 83.5t121.5 70.5t184.5 28q90 0 151.5 -27t120.5 -64v176q0 36 22 50.5t61 14.5q44 0 64 -14.5t20 -50.5v-327q41 -21 55 -51.5t-10 -74.5q-17 -31 -33 -33t-27 0q-96 21 -205.5 29.5t-220.5 9.5t-218 -7t-203 -19 q-24 -6 -54.5 7t-36.5 42zM-910 1254q145 21 292.5 18.5t289.5 -31.5q-12 8 -33 33t-54.5 51t-82 43.5t-113.5 17.5q-56 0 -99 -13t-75 -34.5t-60.5 -45t-64.5 -39.5z" />
<glyph unicode="&#xe36;" d="M-1128.5 1223q2.5 16 11 27t18 18.5t15.5 9.5q42 19 79.5 60t86 82.5t119 69.5t181.5 28q49 0 101.5 -11t86.5 -30q-2 69 48.5 113t127.5 44q81 0 132 -51.5t51 -128.5q0 -67 -34.5 -106.5t-81.5 -52.5q13 -11 24 -25t23 -19q27 -16 24 -52.5t-27 -62.5q-12 -19 -24 -20 t-22 1q-97 21 -207.5 29.5t-220 9.5t-217.5 -7t-202 -19q-23 -6 -53 8.5t-39 40.5q-3 28 -0.5 44zM-911 1254q143 21 289 18.5t289 -33.5q-12 10 -33.5 34t-55 51t-82 44.5t-115.5 17.5q-55 0 -95 -13t-74.5 -35.5t-63 -45t-59.5 -38.5zM-323 1462q0 -32 21.5 -54t47.5 -22 q30 0 48.5 22t18.5 54q0 24 -18.5 43.5t-48.5 19.5q-26 0 -47.5 -20t-21.5 -43z" />
<glyph unicode="&#xe37;" d="M-1104 1179q-13 47 7.5 70t37.5 27q40 17 75.5 57t83.5 80.5t118.5 70t181.5 29.5h31.5t31.5 -5v87q0 24 17.5 42.5t53.5 18.5q37 0 55.5 -18.5t18.5 -42.5v-131q12 -11 42 -27.5t42 -25.5v184q0 24 19 42.5t55 18.5q42 0 61 -18.5t19 -42.5v-321q48 -33 47.5 -64.5 t-12.5 -56.5q-12 -30 -32.5 -34t-29.5 -2q-96 21 -204 29.5t-216 9.5t-214.5 -7t-199.5 -19q-23 -6 -52.5 6t-36.5 43zM-893 1251q141 22 285.5 19t285.5 -31q-13 8 -33 32t-54 51t-80 44t-113 17q-58 0 -95.5 -13.5t-71 -35t-62 -44.5t-62.5 -39z" />
<glyph unicode="&#xe38;" d="M-526 -283q0 79 61.5 136.5t151.5 57.5q92 0 153 -58t61 -136v-353q0 -35 -25 -54t-63 -19q-35 0 -61.5 19t-26.5 54v159q-9 0 -19 -1t-19 -1q-90 0 -151.5 56.5t-61.5 139.5zM-403 -283q0 -32 26 -55t64 -23q40 0 66 23t26 55q0 28 -26 51t-66 23q-37 0 -63.5 -23 t-26.5 -51z" />
<glyph unicode="&#xe39;" d="M-852 -281q0 79 61.5 136.5t151.5 57.5q84 0 147.5 -52t63.5 -137l1 -39t1 -84.5v-83.5v-40q0 -58 85 -58q33 0 51 11t18 51v339q0 39 26 56t61 17q36 0 61 -17t25 -56v-357q0 -108 -68 -143t-184 -35q-37 0 -81 7t-82.5 26t-62.5 49.5t-24 76.5v81q-10 0 -19.5 -2 t-18.5 -2q-90 0 -151.5 57.5t-61.5 140.5zM-729 -281q0 -34 26.5 -57t63.5 -23q40 0 66 23t26 57q0 28 -26 51t-66 23q-37 0 -63.5 -23t-26.5 -51z" />
<glyph unicode="&#xe3a;" d="M-387 -239q0 50 43 90.5t111 40.5q66 0 111 -40.5t45 -90.5q0 -56 -45 -97.5t-111 -41.5q-68 0 -111 41.5t-43 97.5z" />
<glyph unicode="&#xe3f;" horiz-adv-x="1121" d="M87 348v380q0 89 32 152.5t84 105.5t120.5 66t139.5 31v118q0 38 16 62t58 24q35 0 52 -25t17 -61v-116q80 -5 154 -31t131 -68t90 -101t33 -134q0 -145 -121 -214q63 -35 92 -96t29 -132q0 -126 -98 -222q-23 -21 -54 -37.5t-68 -27.5t-75 -16.5t-67 -5.5h-46v-91 q0 -56 -21.5 -71.5t-47.5 -15.5q-39 0 -56.5 22.5t-17.5 64.5v91q-71 2 -138.5 23t-119.5 62.5t-85 107.5t-33 155zM253 354q0 -53 16 -88t47 -58t70 -34.5t75 -17.5h2v298h-30q-58 0 -76.5 26t-18.5 57q0 44 25.5 63t69.5 19h30v296q-36 -4 -76 -17t-71 -35t-47 -56.5 t-16 -82.5v-370zM606 156h46q38 0 72.5 11t62.5 28.5t43.5 47t15.5 66.5q0 145 -207 145h-33v-298zM606 619h33q85 -5 146 30.5t61 109.5q0 37 -20.5 65.5t-53.5 48.5t-75.5 31t-90.5 13v-298z" />
<glyph unicode="&#xe40;" horiz-adv-x="693" d="M162 224v722q0 36 27.5 55.5t64.5 19.5q38 0 64.5 -19t26.5 -56v-561q29 7 65 7q94 0 157.5 -59t63.5 -142q0 -84 -63.5 -143t-157.5 -59q-25 0 -67 7.5t-83 33.5t-69.5 71.5t-28.5 122.5zM318 191q0 -37 26 -57.5t66 -20.5q42 0 68 20.5t26 57.5q0 31 -26 54t-68 23 q-39 0 -65.5 -23t-26.5 -54z" />
<glyph unicode="&#xe41;" horiz-adv-x="1249" d="M162 218v699q0 39 25.5 56.5t62.5 17.5t63.5 -17t26.5 -57v-544q28 6 64 7q86 0 150.5 -57.5t64.5 -135.5q0 -83 -64.5 -140.5t-150.5 -57.5q-30 0 -68.5 7.5t-77.5 32.5t-67.5 69.5t-28.5 119.5zM308 187q0 -36 28 -57.5t68 -21.5q37 0 62.5 21.5t25.5 57.5q0 28 -25 51 t-63 23q-40 0 -68 -23t-28 -51zM736 218v699q0 39 26 56.5t67 17.5q35 0 60 -17t25 -57v-544q31 6 63 7q94 0 154.5 -57.5t60.5 -135.5q0 -83 -60 -140.5t-155 -57.5q-21 0 -64 7.5t-82.5 32.5t-67 69.5t-27.5 119.5zM887 187q0 -36 27 -57.5t63 -21.5q38 0 66.5 21.5 t28.5 57.5q0 28 -28 51t-67 23q-36 0 -63 -23t-27 -51z" />
<glyph unicode="&#xe42;" horiz-adv-x="848" d="M-122 1533q-21 84 18 151t110.5 112t171 67t212.5 15q114 -9 194.5 -43t130 -74.5t74.5 -79.5t36 -52q18 -29 8 -58.5t-46 -50.5q-27 -12 -59.5 -2.5t-54.5 37.5q-7 17 -27.5 43.5t-56 54.5t-86.5 47.5t-122 27.5q-54 5 -109 0.5t-100.5 -19.5t-80 -34t-43.5 -41 q-26 -34 -10 -66.5t63 -28.5h82.5t67.5 -5t61.5 -20.5t59.5 -41.5q44 -57 45.5 -114t1.5 -119v-868q26 6 55 7q91 0 153 -57.5t62 -135.5q0 -81 -62 -138.5t-153 -57.5q-106 0 -168.5 57.5t-62.5 194.5v1029q2 25 0 50t-13 44t-33.5 29t-58.5 3q-42 -9 -84.5 2t-78.5 27.5 t-63.5 44.5t-33.5 63zM383 185q0 -34 28.5 -55.5t62.5 -21.5q39 0 65 21.5t26 55.5q0 28 -26 51t-65 23q-34 0 -62.5 -23t-28.5 -51z" />
<glyph unicode="&#xe43;" horiz-adv-x="862" d="M-4.5 1475.5q-17.5 55.5 1.5 139.5q25 115 141 178.5t271 66.5q63 1 123.5 -13.5t116 -42.5t97 -74.5t62.5 -112.5q26 -70 17.5 -131t-34.5 -108.5t-63 -79t-65 -53.5q-27 -18 -58 -31t-59.5 -29t-47 -37t-18.5 -44v-736q26 7 56 7q90 0 153 -56t63 -134 q0 -83 -63 -139.5t-153 -56.5q-106 0 -170 56.5t-64 195.5v880q0 53 30 90.5t73.5 68.5t87 53.5t72.5 43.5q71 49 96.5 91.5t11.5 91.5q-11 63 -61 99t-114 50.5t-133.5 6t-127.5 -29.5q41 4 77.5 -10t61 -39t38.5 -57t14 -62q0 -82 -62 -135t-156 -59q-27 0 -72 13.5 t-85 48t-57.5 90zM121 1518q0 -32 28 -52t61 -20q42 0 68 20t26 52t-26 54.5t-68 22.5q-33 0 -61 -22.5t-28 -54.5zM449 185q0 -35 25 -56t62 -21q40 0 65 21t25 56q0 28 -25 51t-65 23q-37 0 -62 -23t-25 -51z" />
<glyph unicode="&#xe44;" horiz-adv-x="906" d="M-181 1806q7 35 31.5 48t54.5 11q141 -7 221.5 -59.5t115.5 -135.5q25 85 112.5 129t184.5 40q63 -3 120.5 -25.5t101 -65.5t68.5 -103t25 -145q0 -54 -28.5 -95.5t-68.5 -71.5t-84.5 -53.5t-79.5 -47.5q-52 -36 -77.5 -65t-25.5 -91v-698q24 7 53 7q94 0 159 -58.5 t65 -139.5q0 -83 -65 -141.5t-159 -58.5q-106 0 -171 58.5t-65 199.5v842q0 84 36.5 145t89.5 90q8 8 48.5 32.5t86.5 53.5t86 54.5t52 31.5q2 63 -22 109.5t-66 71.5t-97.5 22t-106.5 -32q-48 -29 -72 -76.5t-22 -102.5q0 -34 -18 -46.5t-54 -17.5q-37 -2 -53 11t-23 48 q-7 67 -35.5 114.5t-70.5 78.5t-90 49t-97 18q-66 0 -60 65zM453 187q0 -36 28 -57.5t62 -21.5q39 0 67.5 21.5t28.5 57.5q0 31 -28.5 53.5t-67.5 22.5q-34 0 -62 -22.5t-28 -53.5z" />
<glyph unicode="&#xe45;" horiz-adv-x="1010" d="M66.5 714.5q-9.5 25.5 9.5 55.5q26 46 70 88t99 72t120 47t130 17q86 0 161 -26t129 -74.5t84 -113.5t30 -144v-943q0 -38 -25.5 -54.5t-59.5 -16.5q-37 0 -63 16.5t-26 52.5v945q0 79 -60 136t-179 57q-50 0 -91.5 -15t-77 -37t-56.5 -48t-31 -44q-22 -33 -55.5 -34 t-65.5 15q-33 23 -42.5 48.5z" />
<glyph unicode="&#xe46;" horiz-adv-x="1165" d="M82 767q-2 39 13.5 76.5t42.5 68t64 50t76 29.5q102 20 197.5 -1t143.5 -84q13 27 39.5 47t60 30.5t69 11.5t68.5 -6q192 -47 193 -288v-1016q0 -38 -27 -55t-61 -17q-37 0 -62 16.5t-25 55.5v1016q0 79 -18.5 104.5t-40.5 35.5q-34 12 -67 0t-52 -28q6 -17 11 -26 q5 -16 9 -26t10 -24q7 -16 3.5 -39t-42.5 -36q-25 -10 -53.5 -1.5t-38.5 43.5q-24 63 -59.5 110t-88.5 52q27 -12 39 -43t14 -51q7 -83 -53.5 -138t-148.5 -55q-85 0 -148.5 55t-67.5 133zM208 767q0 -30 26 -50.5t64 -20.5q37 0 62.5 20.5t25.5 50.5q0 31 -25.5 53.5 t-62.5 22.5q-38 0 -64 -22t-26 -54z" />
<glyph unicode="&#xe47;" d="M-917 1351q-4 35 8 79t44.5 83.5t88 67.5t139.5 46q143 21 231 44t136.5 40.5t65.5 28.5l17 11q29 14 45 27t41 0q30 -12 37.5 -35t-3.5 -53q-8 -13 -26.5 -32.5t-74.5 -44t-164 -52.5t-294 -61q-85 -13 -128 -56t-39 -91q3 -27 24 -49.5t50 -33.5l97 139q18 22 39 30.5 t44 -6.5q42 -30 19 -75q-2 -2 -11.5 -18t-11.5 -18q10 -21 42.5 -35.5t69.5 -27.5q-6 11 -10.5 22.5t-4.5 17.5q0 66 52.5 111.5t122.5 45.5q69 0 119.5 -45.5t50.5 -111.5q0 -62 -49.5 -105.5t-118.5 -48.5q-37 -2 -85.5 1.5t-99 14t-90 27.5t-64.5 44l-58 -84h-40 q-81 0 -143 58.5t-68 144.5zM-347 1299q0 -25 20.5 -42.5t55.5 -17.5q29 0 52.5 17.5t23.5 42.5q0 27 -23.5 44.5t-52.5 17.5q-35 0 -55.5 -17.5t-20.5 -44.5z" />
<glyph unicode="&#xe48;" d="M-360 1751v253q0 71 102 71q100 0 101 -71v-253q0 -72 -101 -72q-102 0 -102 72z" />
<glyph unicode="&#xe49;" d="M-646 1789q-4 25 11.5 39.5t43.5 20.5l50 8q26 8 52.5 30t34.5 42q-68 -4 -107.5 29t-46.5 85q-4 56 36.5 100.5t116.5 48.5q89 5 131.5 -35.5t46.5 -104.5q2 -31 -7 -61t-27 -56t-36.5 -43.5t-33.5 -26.5q10 6 58 16.5t101 38.5t102 86t57 149q1 48 62 47 q50 2 64.5 -8.5t12.5 -38.5q-17 -215 -180 -315.5t-471 -126.5q-28 -2 -48.5 24.5t-22.5 51.5zM-510 2050q0 -22 24 -37.5t46 -11.5q27 0 47.5 15.5t20.5 39.5q-6 26 -27 41t-47 11t-46.5 -17.5t-17.5 -40.5z" />
<glyph unicode="&#xe4a;" d="M-815 1869q20 100 98.5 148.5t160.5 46.5q44 0 88 -16t64 -52q20 34 52 47t73 15q49 2 101.5 -20.5t82.5 -72.5q26 44 42 83t25 60q4 30 25.5 41t44.5 3q27 -5 38 -27.5t7 -45.5q-9 -33 -36 -90.5t-58.5 -119.5t-66 -118.5t-59.5 -85.5q-17 -23 -43 -23t-45 18 q-18 19 -21.5 43.5t17.5 43.5q0 2 9.5 13.5t19 31t16.5 41t4 38.5q-6 48 -39 65.5t-60 13.5q-63 -12 -57 -81q2 -24 -14 -43.5t-41 -22.5q-26 -6 -44 10.5t-25 44.5q-4 52 -38.5 76t-75 24t-79 -24.5t-49.5 -59.5q36 18 72 18q58 0 102 -39t42 -92q-2 -59 -36.5 -88.5 t-81 -33t-93 9.5t-70.5 41q-32 38 -45 84.5t-7 94.5zM-694 1761q0 -19 20.5 -35.5t47.5 -16.5q29 0 46 16.5t17 35.5q0 23 -17 38t-46 15q-27 0 -47.5 -15t-20.5 -38z" />
<glyph unicode="&#xe4b;" d="M-449 1766q0 58 58 58h101v107q0 56 60 56q32 0 49 -14.5t17 -41.5v-107h99q55 0 55 -58q0 -55 -55 -55h-99v-102q0 -29 -17 -42.5t-49 -13.5q-60 0 -60 56v102h-101q-58 0 -58 55q0 58 58 58h101v107q0 56 60 56q32 0 49 -14.5t17 -41.5v-107h99q55 0 55 -58 q0 -55 -55 -55h-99v-102q0 -29 -17 -42.5t-49 -13.5q-60 0 -60 56v102h-101q-58 0 -58 55z" />
<glyph unicode="&#xe4c;" d="M-624 1658q0 36 14 68.5t40 60t61 46t77 24.5q119 10 189 30t112 44q44 21 62 44q12 27 32 23t47 -14q24 -14 38 -30.5t2 -44.5q-37 -40 -83.5 -67.5t-95 -42.5t-93 -21.5t-82.5 -6.5q33 -16 48.5 -48.5t15.5 -66.5q0 -67 -54.5 -114.5t-137.5 -47.5q-79 0 -134.5 47.5 t-57.5 116.5zM-514 1656q0 -27 25.5 -48.5t56.5 -21.5q35 0 60 21.5t25 48.5q0 30 -25 50t-60 20q-31 0 -56.5 -20t-25.5 -50z" />
<glyph unicode="&#xe4d;" d="M-505 1344q0 40 20 82t53 71.5t77.5 45t96.5 15.5q50 0 94 -13.5t78.5 -43t55.5 -72t21 -85.5q0 -98 -71.5 -158.5t-177.5 -60.5q-108 0 -177.5 62t-69.5 157zM-373 1344q0 -49 33.5 -68.5t81.5 -19.5t81.5 19.5t33.5 68.5q0 35 -26 60t-89 25q-59 0 -87 -27t-28 -58z " />
<glyph unicode="&#xe4e;" d="M-618 1324q13 182 213 189q-61 64 -48.5 140t96 118t209.5 16q22 -7 36 -20.5t16 -24.5t-8.5 -19t-35.5 -8q-67 13 -125.5 -22t-53 -93.5t73.5 -64.5q27 -4 31.5 -22.5t2.5 -27.5q-3 -6 -10.5 -17.5t-35.5 -13.5q-199 -2 -202 -112q12 -67 89 -67.5t100 16.5l-19 -95 q-112 -42 -210.5 -12.5t-118.5 140.5z" />
<glyph unicode="&#xe4f;" horiz-adv-x="1100" d="M122 435q0 183 128.5 311.5t313.5 128.5q183 0 311.5 -129t128.5 -311q0 -184 -128 -312.5t-312 -128.5q-185 0 -313.5 128.5t-128.5 312.5zM278 435q0 -120 85 -202.5t201 -82.5q119 0 200.5 83.5t81.5 201.5q0 119 -81.5 201t-200.5 82q-116 0 -201 -82t-85 -201z M358 435q0 86 59 146.5t147 60.5t147.5 -60.5t59.5 -146.5q0 -88 -59.5 -149.5t-147.5 -61.5t-147 62t-59 149zM490 435q0 -31 22 -52.5t52 -21.5q29 0 50 21.5t21 52.5q0 27 -21 49t-50 22q-30 0 -52 -22t-22 -49z" />
<glyph unicode="&#xe50;" horiz-adv-x="1269" d="M97 411q0 91 32.5 171.5t97.5 138t160 89t232 31.5q131 0 229.5 -31.5t163 -89t95.5 -138t31 -171.5q0 -190 -127.5 -312t-390.5 -122q-267 0 -395 121.5t-128 312.5zM288 411q0 -122 81.5 -200t252.5 -78q168 0 251.5 78t83.5 200q0 121 -84.5 198.5t-252.5 77.5 q-171 0 -251.5 -77.5t-80.5 -198.5z" />
<glyph unicode="&#xe51;" horiz-adv-x="1311" d="M115 350q-10 90 20 175t97 156.5t171.5 114.5t248.5 43q118 0 219.5 -32.5t178.5 -94.5t121 -154t44 -208q0 -182 -95.5 -328.5t-257.5 -213.5q-28 -10 -61.5 4t-45.5 41q-13 30 -2.5 59.5t49.5 46.5q118 53 184 152.5t66 238.5q0 76 -30.5 135t-84.5 104t-127 69.5 t-158 24.5q-97 0 -172 -25.5t-123 -69.5t-73 -101.5t-21 -124.5q4 -41 23 -80t47.5 -69t66.5 -48t68 -18q-32 6 -56.5 48t-24.5 66q0 98 67.5 149.5t164.5 51.5q43 0 86 -13.5t75.5 -40t50.5 -61.5t18 -86q0 -40 -17 -78t-48 -66q-62 -63 -169 -86t-213.5 2t-190.5 102.5 t-96 214.5zM513 259q0 -43 31.5 -59.5t73.5 -16.5t73 21t31 55q0 38 -30 60t-74 22t-74.5 -24t-30.5 -58z" />
<glyph unicode="&#xe52;" horiz-adv-x="1557" d="M-16 1177.5q9 29.5 37 44.5q31 18 61 10t47 -37q72 -115 110 -271.5t57 -309.5t20.5 -281t-1.5 -192h883q51 0 81 55t44 128.5t7 148.5t-34 120q-21 36 -52 49.5t-73 7.5q-52 -5 -72.5 -47t-20.5 -113q0 -36 -15.5 -56.5t-56.5 -20.5q-46 0 -61 21.5t-17 54.5 q-2 80 -55.5 124.5t-120.5 50t-127 -22.5t-82 -87q13 12 44 19.5t52 8.5q88 8 152.5 -45.5t64.5 -140.5t-63.5 -141t-153.5 -54q-74 0 -127 31t-82 82.5t-33.5 121.5t12.5 140q31 111 106.5 167t193.5 70q89 7 170 -20.5t118 -89.5q29 52 67.5 72.5t76.5 28.5 q78 13 154.5 -20t124.5 -113q25 -39 38 -104t13 -141t-14 -151.5t-48.5 -136.5t-85 -99.5t-125.5 -38.5h-973q-30 0 -51.5 22t-21.5 52l2 56q2 57 0 144.5t-6.5 202t-24 230t-51 223t-83.5 187.5q-14 31 -5 60.5zM534 394q0 -47 33.5 -63t68.5 -16q47 0 76.5 22t29.5 57 t-28.5 56t-77.5 21q-39 0 -70.5 -22t-31.5 -55z" />
<glyph unicode="&#xe53;" horiz-adv-x="1502" d="M114 469q9 108 64 198t148 139q44 27 113 35t137 -3.5t127.5 -41t92.5 -83.5q49 57 110.5 88.5t133.5 34.5q55 9 111 -7t103 -47t80 -77.5t49 -108.5q24 -74 26 -155.5t-9 -156.5t-28 -138t-34 -102q-22 -44 -46.5 -53t-59.5 -4q-43 9 -55.5 30.5t-0.5 54.5 q12 42 27 99.5t26.5 117t12.5 124t-16 131.5q-12 42 -35 68.5t-51 40.5t-51.5 16t-38.5 2q-48 -4 -90.5 -27t-55.5 -79q29 -67 43 -172.5t-10 -242.5q-6 -31 -26.5 -55.5t-69.5 -20.5q-57 7 -71.5 35.5t-10.5 60.5q17 104 6.5 202.5t-46 169.5t-97 112.5t-146.5 32.5 q-71 -11 -116 -51t-68 -90.5t-25 -103t9 -82.5q19 27 60.5 44.5t79.5 17.5q49 0 92.5 -17.5t77 -45t53 -66.5t19.5 -86q0 -94 -70.5 -153.5t-171.5 -59.5q-88 0 -149.5 44t-98 112t-49 152.5t-5.5 166.5zM307 205q0 -49 34 -65.5t73 -16.5q44 0 76.5 21.5t32.5 60.5 q0 36 -31.5 59t-77.5 23t-76.5 -24t-30.5 -58z" />
<glyph unicode="&#xe54;" horiz-adv-x="1542" d="M112 315q-7 64 0 139.5t49 148t123.5 138t230.5 115.5q58 16 136.5 41t164.5 50.5t172 55.5t157 57t121.5 55t67.5 56q17 24 47.5 32t57.5 -7q32 -11 39 -46t-7 -60q-41 -62 -130.5 -113.5t-210 -97t-266.5 -89t-299 -95.5q-167 -57 -237.5 -153.5t-51.5 -204.5 q3 -38 25.5 -71t56.5 -60.5t76.5 -44t95.5 -16.5h315q-49 8 -95.5 36t-86.5 71t-67 91.5t-23 103.5q0 36 18.5 71.5t51 62.5t75.5 42.5t87 15.5q47 0 88.5 -14.5t73 -39t52.5 -60.5t21 -80q0 -63 -42.5 -116t-131.5 -53q27 -27 80.5 -48t116 -35.5t125.5 -27t105 -14.5 q68 -6 68 -79q0 -37 -27.5 -56.5t-55.5 -15.5h-148q-86 0 -234.5 1t-389.5 1q-74 0 -141.5 22.5t-120 62.5t-88 98t-44.5 130zM703 443q0 -44 33.5 -63t68.5 -19q44 0 75 22t31 60q0 32 -30 55t-76 23q-41 0 -71.5 -24.5t-30.5 -53.5z" />
<glyph unicode="&#xe55;" horiz-adv-x="1449" d="M110 305q-5 59 2 132.5t46.5 144t119.5 133.5t222 109h2q-30 19 -42.5 56t-12.5 71q0 79 57 135.5t135 56.5q38 0 76 -16.5t65 -45.5t40.5 -69.5t5.5 -89.5q78 29 154 52.5t138.5 49.5t109 53t61.5 48q16 25 45 33.5t53 -5.5q33 -12 40.5 -44.5t-7.5 -58.5 q-39 -61 -124 -109t-202.5 -92.5t-257.5 -86.5t-290 -95q-159 -54 -226 -147t-50 -196q4 -37 24.5 -69.5t54 -57.5t74.5 -41t90 -16h304q-46 10 -90.5 36.5t-84.5 65.5t-65 87.5t-21 99.5q0 35 18.5 70t50 61t72 42t83.5 16q47 0 86.5 -14.5t69.5 -40.5t49.5 -59.5 t19.5 -76.5q0 -61 -41.5 -111.5t-124.5 -50.5q25 -24 77 -45t111.5 -34.5t121.5 -24.5t99 -14q64 -7 65 -77q0 -35 -24 -54.5t-55 -15.5h-142q-83 0 -226.5 1t-375.5 1q-74 0 -137.5 21t-114 59.5t-84 95.5t-44.5 127zM567 946q0 -29 20.5 -51.5t51.5 -22.5q30 0 52 22.5 t22 51.5q0 27 -22 50t-52 23q-31 0 -51.5 -23t-20.5 -50zM682 425q0 -43 31 -60t67 -17q44 0 72.5 21t28.5 56q0 34 -27.5 55.5t-73.5 21.5q-40 0 -69 -23t-29 -54z" />
<glyph unicode="&#xe56;" horiz-adv-x="1233" d="M-93 1159q12 29 39 42q32 12 62.5 10t52.5 -44q29 -61 61 -127.5t66 -126.5t62.5 -109t51.5 -78l37 21q96 40 201 58.5t204 2.5t187 -60.5t145 -137.5q50 -77 61 -172t-21 -188.5t-112 -162.5t-217 -95q-65 -13 -159.5 -16.5t-183.5 17t-152 74.5t-70 157 q-2 40 16.5 79.5t50.5 67t74.5 44t88.5 16.5q48 0 87.5 -15.5t72.5 -43t52 -64t19 -84.5q0 -26 -19 -67.5t-66 -52.5q111 -4 195 34t132 102.5t49 144t-53 161.5q-49 67 -127 92t-168.5 22.5t-175.5 -30.5t-142 -69q-36 -27 -63 -10.5t-42 31.5q-27 40 -68 104.5t-82.5 138 t-80 147.5t-61.5 128q-16 30 -4 59zM345 224q0 -39 34 -56.5t70 -17.5q44 0 73.5 20.5t29.5 53.5q0 36 -28.5 58.5t-74.5 22.5q-42 0 -73 -24t-31 -57z" />
<glyph unicode="&#xe57;" horiz-adv-x="1905" d="M99.5 412.5q8.5 108.5 55.5 199.5t136 150.5t213 50.5q89 -6 143.5 -31t99.5 -78q35 53 87.5 81t110.5 35q67 6 145 -12.5t133 -66.5t79 -130t-1 -207q44 77 69.5 201.5t64.5 258.5q25 83 58 146.5t67.5 110t60.5 74t41 37.5q24 19 58 28.5t60 -9.5q29 -16 42.5 -46.5 t-4.5 -59.5q-9 -13 -34 -31.5t-56 -52t-66.5 -89t-58.5 -143.5q-27 -73 -47.5 -170.5t-51 -205.5t-84 -220t-139.5 -217q-22 -27 -53.5 -37t-72.5 3q-35 9 -50 35.5t14 80.5q7 11 22.5 61t24.5 114t9 134t-22 126t-66.5 92.5t-128.5 28.5q-46 -4 -84 -52t-38 -136 q0 -29 -24.5 -50.5t-64.5 -21.5q-44 0 -66.5 22t-24.5 50q-3 94 -52.5 137t-114.5 47q-54 0 -101.5 -28.5t-79 -72t-46 -104t-1.5 -123.5q33 38 82.5 62.5t106.5 24.5q48 0 88.5 -18t75.5 -44t54.5 -65t19.5 -87q0 -64 -37 -115q-29 -51 -77 -73.5t-102 -22.5 q-135 0 -217.5 63t-123 160t-32 205.5zM342 191q0 -47 35 -64t73 -17q44 0 76.5 20.5t32.5 60.5q0 37 -30.5 58t-78.5 21q-43 0 -75.5 -23t-32.5 -56z" />
<glyph unicode="&#xe58;" horiz-adv-x="1532" d="M115 324q-10 63 4 140t64 152t135.5 137t222.5 92q92 21 215 60t239.5 82.5t207 88.5t110.5 93q22 40 52.5 42t56.5 -15q28 -14 37.5 -44.5t-5.5 -59.5q-27 -51 -94 -100.5t-156 -95t-185.5 -82t-184 -63.5t-157 -44.5t-99.5 -23.5q-89 -21 -153 -60t-98 -86t-49 -99.5 t-6 -103.5q11 -81 69.5 -131t128.5 -62l162 304q14 26 42.5 40.5t65.5 -6.5q32 -14 40.5 -45.5t-4.5 -62.5l-23 -49q12 -44 45 -81.5t69.5 -65.5t76 -44t69.5 -18q-40 14 -53.5 52t-13.5 64q0 83 67.5 144.5t162.5 61.5q46 0 87 -16.5t75 -43.5t53.5 -65t19.5 -81 q1 -74 -44 -126t-116.5 -81.5t-162 -37t-172.5 11.5q-163 33 -254 157l-87 -169q-135 -12 -224.5 29t-139 103t-72 121.5t-24.5 86.5zM1074 222q0 -42 33.5 -59.5t68.5 -17.5q43 0 75.5 22t32.5 55q0 36 -31 59.5t-77 23.5q-39 0 -70.5 -24t-31.5 -59z" />
<glyph unicode="&#xe59;" horiz-adv-x="1767" d="M100.5 468.5q9.5 90.5 61 170t151.5 131.5q76 31 154 36t149.5 -10.5t125 -44.5t87.5 -68q33 70 88 100t111 37q32 4 76.5 -1.5t85 -21t74.5 -41.5t49 -67q43 47 84.5 84.5t76.5 86.5t63 119.5t43 179.5q10 54 48.5 62.5t64.5 -2.5q57 -27 51 -92q-11 -94 -46.5 -178.5 t-87.5 -159t-111.5 -140t-117.5 -117.5q-29 -26 -58 -29t-56 8q-34 8 -49.5 29t-21.5 41q-13 48 -51.5 66.5t-82.5 12.5q-44 -4 -70 -33t-31 -90q47 -81 86.5 -193.5t39.5 -275.5q0 -46 -26 -63.5t-59 -17.5q-30 0 -57.5 16.5t-27.5 66.5q0 106 -20 188.5t-52 146.5t-72 110 t-77 67q-84 52 -167 58t-147 -21q-68 -34 -95.5 -90.5t-31 -116.5t13 -111.5t35.5 -78.5q13 79 79 129.5t154 50.5q48 0 88.5 -17t74 -43.5t52.5 -64.5t19 -85q0 -94 -67 -149.5t-167 -60.5q-103 -4 -188.5 38.5t-142.5 112.5t-86 157.5t-19.5 178zM431 189q0 -49 34.5 -65 t68.5 -16q43 0 75.5 21t32.5 60q0 33 -31.5 54.5t-76.5 21.5q-39 0 -71 -22.5t-32 -53.5z" />
<glyph unicode="&#xe5a;" horiz-adv-x="1666" d="M122 806q0 83 63 139.5t150 56.5q93 0 154.5 -56.5t61.5 -139.5q0 -76 -52 -129q59 -8 127 8t126.5 51.5t100 90t54.5 134.5q9 33 40 41.5t69 -6.5q25 -9 36.5 -22t16 -29t1 -27.5t-5.5 -17.5v-217q52 6 104.5 26.5t92.5 55t70 84t41 112.5q6 33 39.5 41.5t69.5 -6.5 q26 -9 39 -22t16 -29t1 -27.5t-4 -17.5v-832q0 -35 -26 -51.5t-62 -16.5q-31 0 -56.5 16.5t-25.5 51.5v576q-65 -56 -142.5 -85.5t-156.5 -39.5v-451q0 -35 -24 -51.5t-62 -16.5q-31 0 -55 16.5t-24 51.5v576q-84 -69 -180.5 -99t-196.5 -30q-67 0 -137 16.5t-128.5 54 t-96.5 92t-38 128.5zM246 806q0 -30 28 -52t61 -22q39 0 66 22t27 52q0 33 -27 54t-66 21q-33 0 -61 -21t-28 -54z" />
<glyph unicode="&#xe5b;" horiz-adv-x="2548" d="M170.5 558q1.5 108 35 205.5t101.5 167t186 76.5q100 7 172 -39t115.5 -118t56 -157t-1 -158.5t-58 -123t-117.5 -49.5q-79 0 -132.5 55t-53.5 147q0 40 13 76.5t34 66.5t53 44t73 10q-2 12 -19 37.5t-46.5 41.5t-72.5 13.5t-88 -40.5q-39 -31 -60.5 -76.5t-30.5 -100 t-8.5 -109.5t6.5 -98q16 -97 71 -157.5t128 -80t153.5 -2t148.5 80.5q53 48 82 117t44.5 145t18 152.5t2.5 144.5q54 -22 98.5 -60.5t79 -86.5t60 -103.5t37.5 -109.5q28 70 45 160.5t22 166.5q38 -21 70 -54t58 -74t44.5 -85t25.5 -81q13 22 27.5 52t29.5 67t26 73t14 65 q71 -51 111 -108.5t65 -135.5q19 39 34.5 92t25.5 125q104 -96 229.5 -145t305.5 -62q-33 -24 -102.5 -38.5t-141.5 -17.5t-139.5 7.5t-100.5 40.5q-6 -36 -21 -68t-35 -60t-44 -45.5t-48 -19.5q-16 2 -24 19t-18 42.5t-22.5 59.5t-35.5 74q-13 -36 -30 -73t-37 -70t-41 -55 t-46 -24q-21 0 -38.5 32t-32 73t-28 78t-24.5 49q-10 -39 -24 -87t-34 -92.5t-46 -74.5t-60 -34q-25 0 -37 33t-23 78.5t-24.5 91t-38.5 69.5q-2 -41 -20 -93t-45 -105.5t-59.5 -101.5t-63.5 -75q-89 -71 -200 -92t-215.5 8t-185.5 107t-110 200q-20 89 -18.5 197zM581 564 q0 -38 20 -65t49 -27q31 0 47.5 26.5t16.5 65.5q0 36 -16.5 63t-47.5 27q-29 0 -49 -27t-20 -63z" />
<glyph unicode="&#x1000;" horiz-adv-x="2103" d="M107 539q0 221 149 377.5t360 156.5q212 0 360 -153q36 -38 74 -95q36 56 70 95q152 153 363 153q210 0 360.5 -156.5t150.5 -377.5q0 -225 -150.5 -381t-360.5 -156q-91 0 -159 26l58 153q40 -13 101 -13q148 0 252 109t104 262q0 149 -104 259.5t-252 110.5 q-150 0 -256 -112q-88 -94 -102 -217q-2 -47 0 -84q-12 -188 -85 -287q-27 -46 -64 -78q-86 -90 -180 -126l-49 156q66 25 146.5 125.5t80.5 252.5q0 149 -103.5 259.5t-254.5 110.5q-147 0 -251.5 -110.5t-104.5 -259.5q0 -152 82.5 -252.5t148.5 -125.5l-48 -158 q-99 34 -217.5 172t-118.5 364z" />
<glyph unicode="&#x1001;" horiz-adv-x="1215" d="M111 271q-21 107 44 197.5t176 108.5q110 19 203 -45t113 -171q20 -100 -40 -199q168 30 255 151q90 123 61 272q-30 157 -160 251t-286 68q-130 -23 -209 -107l-137 94q116 139 317 172q218 37 405 -94.5t230 -356.5q40 -216 -87 -394t-346 -215q-216 -36 -401 86 q-13 3 -25 8q-94 67 -113 174zM252 292q9 -51 54.5 -80.5t97.5 -21.5q56 9 85 51.5t19 93.5q-9 49 -51 81t-100 22q-53 -9 -84 -52.5t-21 -93.5z" />
<glyph unicode="&#x1002;" horiz-adv-x="1280" d="M96 535q0 225 157 381.5t378 156.5q222 0 381.5 -156.5t159.5 -381.5q0 -222 -162 -403q-98 -95 -213 -129l-58 154q88 23 158 97q111 135 110 281q0 155 -108.5 264.5t-267.5 109.5q-153 0 -263 -109.5t-110 -264.5q0 -145 106 -281q76 -74 164 -97l-60 -154 q-114 34 -217 129q-155 181 -155 403z" />
<glyph unicode="&#x1003;" horiz-adv-x="2124" d="M118 535v10l3 65l154 44q108 27 108 143q-14 110 -101 105l-69 -4l-34 -22l-41 164q38 21 128 31l87 -13q113 -44 145 -133q18 -32 25 -105l6 -46q10 -211 -241 -286h-16q17 -123 102 -212q106 -111 253 -111q151 0 255 109.5t104 260.5q0 150 -107 284q-67 74 -151 94 l56 157q110 -33 203 -130q154 -182 154 -405q0 -29 -2 -58q18 -115 99 -201q106 -111 256 -111q149 0 252 110.5t103 258.5q0 154 -103 263t-252 109q-61 0 -101 -13l-59 153q68 25 160 25q211 0 361 -156.5t150 -380.5q0 -222 -150 -378t-361 -156t-363 154q-34 35 -71 93 q-20 -32 -33 -46l15 28v-11q-35 -41 -53 -65q-150 -153 -362 -153t-360.5 155.5t-148.5 379.5z" />
<glyph unicode="&#x1004;" horiz-adv-x="1209" d="M111 536q0 224 156 380.5t375 156.5t374 -157q55 -56 88 -115l-121 -113q-22 53 -79 109q-108 112 -262 112t-261 -109.5t-107 -264.5q0 -147 107 -257t261 -110t262 110q57 60 79 113l121 -116q-29 -60 -88 -119q-154 -154 -374 -154q-219 0 -373 154q-39 41 -68 84 q-83 127 -90 296z" />
<glyph unicode="&#x1005;" horiz-adv-x="1286" d="M118 539q0 221 152.5 377.5t368.5 156.5q215 0 370 -156.5t155 -377.5q0 -225 -155 -381t-370 -156q-216 0 -368.5 155.5t-152.5 381.5zM273 534q0 -49 37.5 -83.5t82.5 -34.5q50 0 88.5 34.5t38.5 83.5q0 59 -38.5 93t-88.5 34q-46 0 -83 -34t-37 -93zM391 266 q113 -98 248 -98q153 0 259.5 109t106.5 262q0 149 -106.5 259.5t-259.5 110.5q-130 0 -244 -97q110 -10 177 -79q81 -78 81 -192q0 -115 -81 -193q-69 -70 -181 -82z" />
<glyph unicode="&#x1006;" horiz-adv-x="2093" d="M110 362q0 113 75.5 193t183.5 80q112 0 188.5 -80t76.5 -193q0 -104 -80 -194q173 2 276 108q108 112 107 267q0 151 -107 261t-262 110q-129 0 -258 -112l-145 98q206 181 403 181q218 0 370 -157q40 -39 82 -99q35 53 70 93q149 154 363 155q209 0 360 -156.5 t151 -377.5q0 -225 -151 -381t-360 -156q-214 0 -363 153q-37 41 -73 98q-39 -57 -79 -97q-152 -156 -370 -156q-211 0 -383 167q-76 84 -75 195zM251 371q0 -52 37 -90.5t87 -38.5q53 0 91.5 39t38.5 90q0 54 -38.5 91.5t-91.5 37.5q-51 0 -87.5 -37.5t-36.5 -91.5z M1095 539q0 -153 105 -262t253 -109q147 0 251.5 109t104.5 262q0 149 -104.5 259.5t-251.5 110.5q-148 0 -255 -112q-96 -103 -103 -236v-18v-4z" />
<glyph unicode="&#x1007;" horiz-adv-x="1253" d="M110 544q0 339 342 505q101 25 172 25q285 0 443 -278q62 -186 192 -262q46 -9 45 -30q-40 -139 -40 -146q-70 0 -221 146q-91 -111 -218 -111q-194 0 -256 232v66q0 118 116 202q0 9 -11 9h-80q-194 0 -307 -237q-21 -52 -21 -116v-40q0 -193 222 -318q82 -25 136 -24 q122 0 217 80h5q106 -100 106 -112v-5q-130 -130 -323 -130h-16q-327 0 -479 358q-25 92 -24 186zM720 651q0 -83 116 -107q116 22 116 101h5q-33 141 -111 141h-26q-100 -31 -100 -100v-35z" />
<glyph unicode="&#x1008;" horiz-adv-x="1523" d="M118 539q0 221 148.5 377.5t360.5 156.5t363 -156.5t151 -377.5q0 -225 -151 -383q-31 -29 -67 -57l2 -784q3 -90 41 -121.5t124 -31.5q76 6 124 31.5t54 121.5v1747h159v-1789q0 -277 -243 -279h-173q-247 12 -248 258l-4 748l-6 17q-60 -14 -126 -15 q-212 0 -360.5 155.5t-148.5 381.5zM270 534q0 -49 36 -83.5t80 -34.5q50 0 87 34.5t37 83.5q0 59 -37 93t-87 34q-43 0 -79.5 -34t-36.5 -93zM385 266q111 -98 242 -98q151 0 255 109t104 262q0 149 -104 259.5t-255 110.5q-126 0 -239 -97q109 -10 174 -79q79 -78 79 -192 q0 -115 -79 -193q-67 -70 -177 -82z" />
<glyph unicode="&#x1009;" horiz-adv-x="1177" d="M116 273l118 118q24 -53 76 -113q104 -111 252 -110q150 0 253 110t103 257q0 155 -103 264.5t-253 109.5q-147 0 -252 -112q-53 -57 -76 -109l-116 113q31 60 85 115q149 156 359 157q214 0 363.5 -156.5t149.5 -381.5q0 -142 -86 -295q-28 -43 -66 -85 q-147 -153 -361 -153q-155 0 -295 97v-617q0 -138 84 -231t212 -93h455q123 0 212 91t91 218v7h156v-20q7 -210 -119.5 -335t-322.5 -125h-483q-190 0 -313 133.5t-123 339.5v806z" />
<glyph unicode="&#x100a;" horiz-adv-x="2059" d="M106 273l117 118q24 -53 77 -113q104 -111 251 -110q150 0 253.5 110t103.5 257q0 155 -103.5 264.5t-253.5 109.5q-147 0 -251 -112q-53 -57 -77 -109l-115 113q31 60 84 115q149 156 359 157q214 0 363.5 -156.5t149.5 -381.5q0 -147 104 -257t257 -110 q146 0 249.5 110t103.5 257q0 155 -103.5 264.5t-249.5 109.5q-128 0 -214 -71l-85 136q125 98 299 99q209 0 358.5 -156.5t149.5 -381.5q0 -221 -149.5 -377t-358.5 -156q-214 0 -364 153q-37 41 -72 98q-38 -57 -77 -98q-147 -153 -361 -153q-155 0 -294 97v-617 q0 -138 84 -231t211 -93h911q123 0 212 91t91 218v7h156v-20q7 -210 -119.5 -335t-322.5 -125h-938q-190 0 -313 133.5t-123 339.5v806z" />
<glyph unicode="&#x100b;" horiz-adv-x="1210" d="M118 536q0 224 150.5 380.5t360.5 156.5q212 0 360 -157q56 -56 87 -115l-117 -113q-22 53 -79 109q-102 112 -251 112t-252.5 -109.5t-103.5 -264.5q0 -147 103.5 -257t252.5 -110t252 110q56 60 78 113l118 -117v-421l-54 -35q-176 -101 -396 -101q-188 0 -360 89 l-6 -129q170 -83 375 -82q155 0 278 43l158 -113v-367h190v-164h-341v466q-140 -31 -287 -31q-217 0 -389 75v1l-106 57v344l120 95q155 -117 365 -117q161 0 299 65v148q-138 -95 -294 -95q-210 0 -359 154q-39 40 -65 84q-84 127 -87 296z" />
<glyph unicode="&#x100c;" horiz-adv-x="1192" d="M118 535q0 225 150.5 381.5t360.5 156.5q212 0 360 -157q56 -56 87 -115l-117 -113q-22 53 -79 109q-102 112 -251 112t-252.5 -109.5t-103.5 -264.5q0 -147 103.5 -257t252.5 -110t252 110q56 60 78 113l118 -118v-806q0 -206 -122.5 -339.5t-314.5 -133.5h-72 q-194 0 -322 125t-120 335v20h155v-7q2 -127 92 -218t210 -91h44q130 0 214.5 93t84.5 231v617q-139 -97 -297 -97q-210 0 -359 154q-39 40 -65 83q-87 154 -87 296z" />
<glyph unicode="&#x100d;" horiz-adv-x="1197" d="M115 -163v437l120 117q21 -53 75 -113q101 -111 250 -110q150 0 253 110t103 257q0 155 -103 264.5t-253 109.5q-148 0 -250 -112q-55 -57 -75 -109l-118 113q31 60 85 115q148 156 358 157q214 0 363.5 -156.5t149.5 -380.5q-3 -169 -86 -296q-26 -43 -63 -85 q-150 -153 -364 -153q-153 0 -292 95v-158q139 -72 297 -72q212 0 367 115l147 -96v-727h188v-162h-338l-3 791q-173 -89 -363 -89q-219 0 -394 100z" />
<glyph unicode="&#x100e;" horiz-adv-x="1289" d="M118 535v10l3 65l159 44q112 27 112 143q-16 110 -103 105l-73 -4l-35 -22l-42 164q39 21 132 31l91 -13q115 -44 148 -133q19 -32 26 -105l5 -46q13 -211 -248 -286h-16q17 -123 106 -212q111 -111 261 -111q156 0 264 109.5t108 260.5q0 150 -111 284q-69 74 -155 94 l58 157q112 -33 209 -130q159 -182 159 -405t-156 -379t-376 -156q-218 0 -372 155.5t-154 379.5z" />
<glyph unicode="&#x100f;" horiz-adv-x="2124" d="M118 541q0 223 148.5 379.5t360.5 156.5q143 0 264 -77q70 70 170 71q91 0 170 -68q121 73 263 74q211 0 361 -156.5t150 -379.5q0 -224 -150 -380.5t-351 -156.5v166q139 0 242 109t103 262q0 149 -103 259t-252 110q-102 0 -189 -54q17 -78 -3 -147q-3 -11 -9 -21.5 t-9 -23.5q-21 -59 -21 -125q0 -74 23 -140q10 -18 13 -27q21 -71 9 -144q-9 -53 -29.5 -91t-51.5 -70q-34 -30 -76 -47.5t-90 -17.5q-98 0 -166 68q-60 53 -77 161q-10 86 25 177q22 63 22 131q0 63 -23 121q-4 13 -7 22t-8 21q-27 61 -8 150q-86 57 -192 57 q-147 0 -251.5 -110t-104.5 -259q0 -153 104.5 -262t240.5 -109v-166q-202 0 -350 156.5t-148 380.5zM946 269q0 -37 34.5 -72.5t76.5 -35.5q56 0 86 35.5t30 72.5v52q-40 90 -42.5 199t33.5 204v91q0 38 -28 66.5t-79 28.5q-42 0 -71 -28.5t-29 -66.5v-86 q33 -117 28 -216.5t-39 -193.5v-50z" />
<glyph unicode="&#x1010;" horiz-adv-x="2124" d="M118 541q0 223 148.5 379.5t360.5 156.5t361 -155q35 -37 72 -96q36 58 71 96q152 155 363 155t361 -156.5t150 -379.5q0 -224 -150 -380.5t-361 -156.5q-90 0 -160 26l59 153q39 -13 101 -13q149 0 252 109t103 262q0 149 -103 259t-252 110q-150 0 -256 -110 q-89 -93 -101 -218q-3 -48 0 -83q14 -100 -86 -259q-28 -46 -63 -78q-149 -158 -361 -158t-360.5 156.5t-148.5 380.5zM271 541q0 -153 104.5 -262t251.5 -109q151 0 255 109t104 262q0 149 -104 259t-255 110q-147 0 -251.5 -110t-104.5 -259z" />
<glyph unicode="&#x1011;" horiz-adv-x="2124" d="M118 541q0 223 148.5 379.5t360.5 156.5t361 -155q35 -37 72 -96q36 58 71 96q152 155 363 155t361 -156.5t150 -379.5q0 -224 -150 -380.5t-361 -156.5t-363 158q-35 32 -71 92q-37 -60 -72 -92q-149 -158 -361 -158t-360.5 156.5t-148.5 380.5zM271 541 q0 -153 104.5 -262t251.5 -109q151 0 252 112q90 90 104 217q3 36 0 83q-14 124 -104 218q-101 111 -252 110q-147 0 -251.5 -110t-104.5 -259zM1137 499q12 -127 101 -217q106 -113 256 -112q149 0 252 109t103 262q0 149 -103 259t-252 110q-150 0 -256 -110 q-89 -94 -101 -218q-3 -48 0 -83z" />
<glyph unicode="&#x1012;" horiz-adv-x="1191" d="M116 759q22 84 140 199t328 115q214 0 361 -157q70 -73 105 -160q58 -188 -139 -136q-1 2 -7 8q-37 35 -85 35q-47 0 -85.5 -35t-38.5 -97q0 -47 39 -82.5t85 -35.5q44 0 80 28q90 19 132 -10t18 -121q-35 -82 -104 -154q-147 -154 -361 -154q-210 0 -327 112.5 t-137 191.5l131 99q22 -66 103 -151.5t230 -85.5q126 0 239 91q-112 12 -180 80q-80 84 -79 200q0 118 79 198q66 69 174 80q-109 92 -233 92q-149 0 -230 -87t-103 -152z" />
<glyph unicode="&#x1013;" horiz-adv-x="1279" d="M118 534q0 222 153.5 379.5t363.5 157.5q217 0 369.5 -157.5t152.5 -379.5q0 -223 -152.5 -378.5t-369.5 -155.5q-210 0 -363.5 155t-153.5 379zM273 534q0 -130 99 -252q12 117 77 189q77 78 183 78q115 0 189 -78q69 -73 81 -193q101 120 101 256q0 154 -107.5 261.5 t-260.5 107.5q-146 0 -254 -107.5t-108 -261.5zM515 282q0 -41 33.5 -80t92.5 -39q49 0 84 39t35 80q0 50 -35 88.5t-84 38.5q-59 0 -92.5 -38.5t-33.5 -88.5z" />
<glyph unicode="&#x1014;" horiz-adv-x="1241" d="M111 374q0 115 80.5 192.5t189.5 77.5t189.5 -77t94.5 -244l21 -153q83 25 164 106q110 111 82 178l-293 175q-101 63 -164.5 88t-63.5 119q0 98 67.5 166.5t159.5 68.5q94 0 161 -69q34 -35 47 -71l-124 -50q-2 9 -16 20q-28 27 -68 27q-39 0 -65 -25t-26 -44 q0 -36 85 -87l13 -9l476 -240q0 -210 -158 -367q-133 -130 -268 -149l8 -949h-160v950q-209 27 -329 147q-9 9 -19 16l-3 8q-82 79 -81 195zM276 368q0 -49 28 -84q5 1 16 -14q68 -66 214 -94l-20 141q-21 98 -48 123t-78 34q-44 0 -78 -24t-34 -82z" />
<glyph unicode="&#x1015;" horiz-adv-x="1279" d="M111 518q0 215 152 389q100 94 211 126l60 -151q-87 -19 -162 -91q-103 -130 -103 -273q0 -147 108.5 -253t258.5 -106q155 0 262.5 106t107.5 253q0 143 -111 273q-68 72 -155 91l59 151q111 -32 205 -126q159 -174 160 -389q0 -217 -156 -367.5t-372 -150.5 q-217 0 -371 150.5t-154 367.5z" />
<glyph unicode="&#x1016;" horiz-adv-x="1279" d="M118 524q0 218 151 397q72 66 153 105q17 7 23 9l63 -148q-67 -21 -130 -84q-103 -131 -104 -279q0 -149 107.5 -256t257.5 -107q153 0 259.5 107t106.5 256q0 56 -21 122q-71 -55 -147 -54q-93 0 -159.5 66t-66.5 160q0 96 66.5 163.5t159.5 67.5q91 0 157 -67 q50 -54 110 -165.5t60 -292.5q0 -219 -155 -371.5t-370 -152.5q-216 0 -368.5 152.5t-152.5 371.5zM727 818q0 -43 31 -75t79 -32q44 0 77.5 32t33.5 75q0 48 -33.5 79t-77.5 31q-48 0 -79 -31t-31 -79z" />
<glyph unicode="&#x1017;" horiz-adv-x="1283" d="M118 523q0 219 152 378q113 116 247 140v-267q0 -58 37.5 -91.5t80.5 -33.5q50 0 89 33.5t39 91.5v267q129 -26 240 -140q154 -158 154 -378q0 -217 -153.5 -369t-368.5 -152t-366 152t-151 369zM273 523q0 -145 107 -252.5t255 -107.5q153 0 259 108t106 252 q0 135 -104 260q-5 -133 -81 -204q-79 -78 -186 -77q-106 0 -184 77q-70 66 -82 187q-90 -118 -90 -243z" />
<glyph unicode="&#x1018;" horiz-adv-x="2081" d="M97 801q28 60 88 119q151 153 365 153q219 0 371 -153q38 -42 76 -98q36 56 75 98q153 153 370 153q215 0 367.5 -156.5t152.5 -377.5q0 -225 -152.5 -381t-367.5 -156q-176 0 -303 97l86 140q87 -71 217 -71q149 0 255 109t106 262q0 149 -106 259.5t-255 110.5 q-155 0 -260 -111l-106 -110q0 -374 -153 -530t-373 -156q-214 0 -365 156q-55 57 -87 117l118 113q25 -52 78 -110q107 -111 256 -110q153 0 258.5 109t105.5 262q0 149 -105.5 259.5t-258.5 110.5q-150 0 -256 -112q-53 -59 -78 -112z" />
<glyph unicode="&#x1019;" horiz-adv-x="1292" d="M111 516q0 212 152 387q100 93 212 125l59 -150q-86 -19 -161 -90q-104 -130 -104 -272q0 -126 96 -242q12 109 78 177q79 78 185 78q117 0 192 -78q70 -70 79 -158l-18 -20q125 102 125 243q0 142 -110 272q-69 71 -155 90l59 150q110 -32 205 -125q159 -175 160 -387 q0 -216 -156 -366t-373 -150q-216 0 -370.5 150t-154.5 366zM509 272q0 -41 31 -80q25 -25 60 -34h36h27q32 7 58 34q37 38 37 80q0 47 -35.5 84t-86.5 37q-58 0 -92.5 -37t-34.5 -84z" />
<glyph unicode="&#x101a;" horiz-adv-x="2124" d="M118 534q0 224 118 363t218 173l48 -159q-66 -24 -148.5 -124t-82.5 -253q0 -148 104.5 -258.5t251.5 -110.5q151 0 255 110.5t104 258.5q0 153 -81.5 253t-147.5 124l50 156q94 -36 181 -126q35 -31 63 -76q72 -97 86 -287q-3 -39 0 -85q12 -123 101 -217 q106 -111 256 -111q149 0 252 110.5t103 258.5q0 154 -103 263t-252 109q-61 0 -101 -13l-59 153q68 25 160 25q211 0 361 -156.5t150 -380.5q0 -222 -150 -378t-361 -156t-363 154q-34 37 -71 94q-37 -57 -73 -94q-148 -154 -360 -154t-360.5 155.5t-148.5 378.5z" />
<glyph unicode="&#x101b;" horiz-adv-x="1277" d="M118 539q0 221 148.5 377.5t360.5 156.5t368.5 -156.5t156.5 -377.5v-1391h178v-154h-334v1545q0 149 -109 259.5t-260 110.5q-147 0 -251.5 -110.5t-104.5 -259.5q0 -108 65 -217q25 94 78 146q77 78 179 77q106 0 183.5 -78.5t77.5 -191.5q0 -120 -78 -197.5 t-183 -77.5q-53 0 -98 19q-129 36 -227 137q-150 157 -150 383zM482 267q0 -48 37 -83t82 -35q49 0 85.5 35t36.5 83q0 58 -36.5 93.5t-85.5 35.5q-44 0 -81.5 -35.5t-37.5 -93.5z" />
<glyph unicode="&#x101c;" horiz-adv-x="2124" d="M118 539q0 225 148.5 381.5t360.5 156.5t361 -157q35 -32 63 -79q81 -118 86 -259q-3 -39 0 -83q12 -125 101 -217q106 -113 256 -112q149 0 252 110.5t103 258.5q0 153 -103 262t-252 109q-61 0 -101 -12l-59 153q68 26 160 26q211 0 361 -156.5t150 -381.5 q0 -222 -150 -378.5t-361 -156.5t-363 153q-34 40 -61 83q-72 111 -84 299q0 153 -104 262t-255 109q-147 0 -251.5 -109t-104.5 -262q0 -148 104.5 -258.5t251.5 -110.5q62 0 108 15l57 -153q-73 -28 -165 -28q-212 0 -360.5 156.5t-148.5 378.5z" />
<glyph unicode="&#x101d;" horiz-adv-x="1284" d="M107 539q0 221 152.5 377.5t368.5 156.5t370.5 -156.5t154.5 -377.5q0 -225 -154.5 -381t-370.5 -156t-368.5 155.5t-152.5 381.5zM263 539q0 -153 107.5 -262t257.5 -109q154 0 260.5 109t106.5 262q0 149 -106.5 259.5t-260.5 110.5q-150 0 -257.5 -110.5 t-107.5 -259.5z" />
<glyph unicode="&#x101e;" horiz-adv-x="2068" d="M117 275l115 116q25 -53 77 -113q103 -111 251 -110q150 0 253 110t103 257q0 155 -103 264.5t-253 109.5q-147 0 -251 -112q-53 -57 -77 -109l-114 113q31 60 84 115q149 156 358 157q215 0 358.5 -156.5t133.5 -112.5l21 -44q0 -372 104 -482t257 -110q147 0 249.5 110 t102.5 257q0 155 -103 264.5t-249 109.5q-128 0 -215 -71l-82 136q123 98 297 99q210 0 358.5 -156.5t148.5 -381.5q0 -221 -148.5 -377t-358.5 -156q-213 0 -363 153q-38 41 -73 98q-38 -57 -75 -98q-148 -153 -363 -153q-209 0 -358 154q-58 59 -85 119z" />
<glyph unicode="&#x101f;" horiz-adv-x="2124" d="M118 535q0 223 148 405q97 96 205 130l58 -157q-85 -20 -158 -94q-100 -134 -100 -284q0 -151 104.5 -260.5t251.5 -109.5q151 0 255 109.5t104 260.5q0 150 -107 284q-67 74 -151 94l56 157q110 -34 203 -130q40 -50 79 -114q34 55 73 94q148 153 359 153 q209 0 358 -156.5t149 -377.5q0 -225 -149 -381t-358 -158h2l-22 165h20q146 2 251 111.5t105 262.5q0 149 -105 259.5t-251 110.5q-151 0 -255 -112q-91 -96 -102 -224v-38q0 -223 -151 -379t-363 -156t-360.5 155.5t-148.5 379.5z" />
<glyph unicode="&#x1020;" horiz-adv-x="1203" d="M118 -114l148 96q152 -116 366 -115q159 0 299 72v158q-140 -95 -295 -95q-211 0 -360 153q-37 41 -64 85q-82 127 -86 296q0 224 149.5 380.5t360.5 156.5q212 0 360 -157q55 -56 86 -115l-117 -113q-22 53 -75 109q-104 112 -254 112q-148 0 -251.5 -109.5 t-103.5 -264.5q0 -147 103.5 -257t251.5 -110q149 0 254 110q54 60 75 113l119 -117v-437l-54 -38q-176 -100 -396 -100q-189 0 -363 88v-559h624q27 8 49 27q32 33 32 80q0 50 -33.5 82t-83.5 32h1l-19 149q13 5 30 5q107 0 184 -77t77 -191q0 -119 -77.5 -196.5 t-183.5 -77.5q-17 0 -35 2h-718v823z" />
<glyph unicode="&#x1021;" horiz-adv-x="2057" d="M94 759q23 84 141 199t328 115q214 0 362 -155q31 -37 65 -85q34 52 70 89q151 155 363 155q209 0 358.5 -156.5t149.5 -379.5q0 -224 -152 -383q-134 -139 -317 -154q-26 -4 -55 -4q-104 0 -182.5 77.5t-78.5 197.5q0 113 78 191.5t183 78.5q106 0 182 -77 q71 -72 79 -200q111 127 111 273q0 149 -104.5 259t-251.5 110q-151 0 -257 -110q-39 -50 -77.5 -95t-74.5 -70.5t-67.5 -31t-54.5 14.5q-2 4 -9 10q-37 35 -83 35q-48 0 -87 -35t-39 -97q0 -47 39 -82.5t87 -35.5q42 0 77 28q90 19 132.5 -10t17.5 -121q-34 -82 -102 -154 q-148 -154 -362 -154q-210 0 -326.5 112.5t-138.5 191.5l132 99q22 -66 103 -151.5t230 -85.5q126 0 240 91q-112 12 -181 80q-80 84 -80 200q0 118 80 198q66 69 174 80q-110 92 -233 92q-149 0 -230.5 -87t-102.5 -152zM1311 267q0 -48 38 -83t80 -35q48 0 86 35t38 83 q0 58 -38 93.5t-86 35.5q-42 0 -80 -35.5t-38 -93.5z" />
<glyph unicode="&#x1022;" horiz-adv-x="2124" d="M118 529v6q0 225 150 381.5t363 156.5q214 0 366 -152q19 -23 54 -68v-5l-16 25q14 -16 33 -47q37 58 72 94q154 153 366 153t364 -156.5t152 -377.5q0 -225 -152 -381t-364 -156q-92 0 -161 26l60 153q39 -13 101 -13q150 0 255 109t105 262q0 149 -105 259.5 t-255 110.5t-259 -112q-82 -86 -99 -201q2 -29 2 -61q0 -221 -155 -403q-95 -95 -205 -129l-56 154q84 23 151 97q108 135 108 281q0 155 -105 264.5t-257 109.5q-147 0 -254 -112q-87 -88 -104 -212h16q254 -74 243 -283l-4 -49q-9 -72 -27 -104q-32 -88 -146 -132l-87 -15 q-91 11 -129 32l41 161l34 -18l70 -4q86 -6 101 103q0 118 -108 141l-156 47z" />
<glyph unicode="&#x1023;" horiz-adv-x="2126" d="M118 539q0 221 150.5 377.5t358.5 156.5q214 0 362 -152q34 -42 72 -94q39 51 78 94q146 152 359 152q212 0 361.5 -156.5t149.5 -377.5q0 -253 -147 -408q-84 -82 -171 -119l-47 161q55 23 105 76q107 107 107 290q0 149 -106 259.5t-252 110.5q-151 0 -255 -112 q-96 -103 -102 -236v-20v-330h-80h-75v328q0 149 -104 259.5t-255 110.5q-147 0 -251.5 -110.5t-104.5 -259.5q0 -183 106 -290q52 -54 108 -76l-52 -161q-86 37 -167 119q-148 154 -148 408zM440 -385q0 142 95 243q94 100 232 101q63 0 122 -25.5t103 -68.5 q0 -11 11.5 -11.5t17.5 -14.5q11 12 20.5 14.5t15.5 6.5q46 44 106.5 71.5t122.5 27.5q140 0 227 -99q48 -54 73.5 -113.5t25.5 -131.5q0 -71 -26 -142t-75 -138q-12 -17 -21.5 -42t-9.5 -58l48 9q28 2 71 5v-160q-129 -3 -203.5 39.5t-74.5 116.5q0 47 22.5 102t74.5 111 q59 78 59 157q0 78 -54.5 138t-136.5 60t-140 -62q-52 -51 -52 -134v-187h-136v185q0 78 -55 138t-136 60q-41 0 -76.5 -17t-62 -44.5t-42.5 -61.5t-16 -75t12 -69t37 -56q12 -17 26.5 -26t27.5 -17l-45 -141q-57 31 -93 66q-95 103 -95 243z" />
<glyph unicode="&#x1024;" horiz-adv-x="2524" d="M107 520q0 231 154.5 392t369.5 161q219 0 374 -162q36 -35 78 -99q72 134 180.5 192.5t253.5 68.5q212 0 361 -156.5t149 -381.5v-1262q0 -279 -218 -279h-1488q-100 0 -165 122q-50 99 -49 223q0 189 157 301q140 96 362 96q370 0 703 -88l-29 -158q-313 90 -674 90 q-281 0 -379 -148q-17 -39 -16 -89q0 -41 24 -107q25 -83 66 -83h1453q104 0 104 120v862l-2 401q-3 154 -106 263.5t-253 109.5q-149 0 -254 -112q-102 -116 -102 -269v-24l-3 -57q-20 -181 -115 -284.5t-237 -159.5l-55 165q76 18 142 90q106 113 105 262 q0 158 -106.5 270.5t-260.5 112.5q-147 0 -257 -112t-110 -271q0 -150 108 -272q55 -58 113 -83l-52 -161q-90 35 -174 120q-152 170 -152 396zM1648 1583q0 171 116 294.5t279 123.5q165 0 283 -123q113 -125 113 -286h-136q0 99 -74 180q-78 78 -186 77q-109 0 -184 -79 t-75 -187q0 -114 75 -190.5t184 -76.5h336v-2324h-140v2173l-196 -2q-162 0 -278.5 123.5t-116.5 296.5z" />
<glyph unicode="&#x1025;" horiz-adv-x="1186" d="M106 273l116 118q24 -53 77 -113q104 -111 251 -110q150 0 253.5 110t103.5 257q0 155 -103.5 264.5t-253.5 109.5q-147 0 -251 -112q-53 -57 -77 -109l-115 113q31 60 84 115q149 156 359 157q214 0 363.5 -156.5t149.5 -381.5q0 -142 -86 -295q-28 -43 -66 -85 q-147 -153 -361 -153q-155 0 -295 97v-617q0 -138 84.5 -231t211.5 -93h45q122 0 212 91t92 218v7h157v-20q6 -210 -120.5 -335t-324.5 -125h-71q-190 0 -312.5 133.5t-122.5 339.5v806z" />
<glyph unicode="&#x1026;" horiz-adv-x="1210" d="M126 273l117 118q25 -53 77 -113q106 -111 251 -110q149 0 253 110t104 257q0 155 -104 264.5t-253 109.5q-146 0 -251 -112q-52 -57 -77 -109l-115 113q31 60 85 115q149 156 358 157q214 0 363.5 -156.5t149.5 -381.5q0 -142 -86 -295q-28 -43 -65 -85 q-148 -153 -362 -153q-155 0 -295 97v-617q0 -138 84.5 -231t210.5 -93h47q122 0 212 91t92 218v7h157v-20q5 -210 -121 -335t-326 -125h-69q-190 0 -313.5 133.5t-123.5 339.5v806zM139 1625q0 191 129 326.5t309 135.5q181 0 310.5 -135.5t129.5 -326.5 q0 -190 -129.5 -326t-310.5 -136q-180 0 -309 136t-129 326zM297 1625q0 -59 36 -144q22 101 73 154q73 76 167 76q103 0 175 -76q53 -53 71 -158q40 86 41 148q0 118 -83 206t-200 88q-118 0 -199 -88t-81 -206zM458 1454q0 -53 35 -88q23 -24 52 -32h32h30q29 8 52 32 q35 35 35 88q0 51 -35.5 86.5t-85.5 35.5q-43 0 -79 -35.5t-36 -86.5z" />
<glyph unicode="&#x1027;" horiz-adv-x="1150" d="M118 522v13q0 223 148.5 379.5t360.5 156.5t360 -153q41 -68 44.5 -129.5t-27 -108t-92.5 -77t-149 -34.5q-91 0 -156.5 67t-65.5 164q0 47 20 102q-113 -30 -187 -107q-103 -110 -103 -260v-18q8 -138 103 -241q73 -78 187 -106q-20 56 -20 101q0 97 65.5 164t156.5 67 q87 -4 149 -34t92.5 -77.5t27 -108.5t-44.5 -129q-148 -153 -360 -153t-360 156q-147 154 -149 366zM657 267q0 -42 30 -78q7 -7 17 -15q71 18 125 52t75 107q-99 47 -141 47q-48 0 -77 -33.5t-29 -79.5zM657 803q0 -49 29 -81.5t77 -32.5q42 0 141 45q-21 74 -74.5 108 t-125.5 54q-10 -10 -17 -16q-30 -35 -30 -77z" />
<glyph unicode="&#x1028;" horiz-adv-x="1268" d="M118 556q0 231 146 377q147 146 376 146q230 0 369.5 -153t139.5 -395q0 -183 -111 -340q-63 -90 -133 -132l-140 112q12 20 13 61q0 112 -108 111q-109 0 -108 -111q0 -53 21 -80l-51 -104l-64 68q-34 59 -35 123q0 103 70 173t170 70q74 0 141 -55t85 -154 q98 123 98 247q0 165 -101 282.5t-256 117.5q-160 0 -268 -100q-122 -117 -118 -259h6v-1014l8 -70l17 -72l45 -100q80 -149 312 -141q212 0 303 180q31 33 35 86l3 29l132 10v-38q0 -83 -58 -173q-127 -275 -415 -275h-2q-293 0 -406.5 170t-113.5 394v1009h-2z" />
<glyph unicode="&#x1029;" horiz-adv-x="2466" d="M118 -533v2077q0 200 120.5 326.5t314.5 126.5h1620v-148h-1620q-138 0 -216.5 -83.5t-78.5 -221.5v-2077q0 -135 84 -229t213 -94h1185q121 0 211.5 91.5t92.5 218.5l2 721h140l-3 -722q9 -206 -119.5 -332.5t-323.5 -126.5h-1185q-191 0 -314 133.5t-123 339.5z M518 277l118 114q22 -53 75 -113q108 -111 255 -110q150 0 253 109t103 262q0 149 -103 259.5t-253 110.5q-149 0 -255 -112q-53 -59 -73 -109l-120 113q35 62 85 120q151 152 363 152q211 0 361 -156.5t150 -385.5h3q0 -145 104 -254t252 -109q150 0 254.5 109t104.5 262 q0 149 -104.5 259.5t-254.5 110.5q-126 0 -210 -71l-86 139q122 95 296 96q212 0 362 -156.5t150 -377.5q0 -225 -150 -381t-362 -156q-211 0 -359 156q-37 36 -76 96q-35 -60 -73 -96q-151 -156 -362 -156q-212 0 -363 155q-50 58 -85 120z" />
<glyph unicode="&#x102a;" horiz-adv-x="4548" d="M118 525q0 218 150.5 382t360.5 164q187 0 319 -118l-106 -113q-90 69 -213 69q-150 0 -254 -116.5t-104 -267.5q0 -149 103 -254q101 -106 266 -108q-79 87 -78 190q0 111 74.5 186t181.5 75t182 -76t75 -185q0 -111 -73 -189l-18 -15q-148 -149 -355 -149 q-210 0 -360.5 154t-150.5 371zM693 357q0 -51 36 -86.5t88 -35.5q51 0 86 35.5t35 86.5q0 54 -35 90.5t-86 36.5q-52 0 -88 -36.5t-36 -90.5zM1246 -533v2075q0 201 120.5 327t315.5 126h1620v-149h-1620q-135 0 -215 -83t-80 -221v-2075q0 -135 84 -229t213 -94h1184 q122 0 212 91.5t92 218.5l3 673h141l-4 -674q11 -206 -118.5 -332.5t-325.5 -126.5h-1184q-192 0 -315 133.5t-123 339.5zM1649 275l119 116q23 -55 74 -115q104 -109 255 -108q146 0 250.5 108t104.5 259q0 153 -105 262t-250 109q-150 0 -255 -111q-52 -57 -74 -110 l-119 114q33 62 84 119q152 152 364 153q212 0 363 -157l150 -156q0 -374 101.5 -482t251.5 -108q151 0 254.5 108t103.5 259q0 153 -103.5 262t-254.5 109q-125 0 -209 -68l-83 136q124 96 292 97q212 0 363.5 -156.5t151.5 -379.5t-151.5 -379t-363.5 -156 q-211 0 -360 156q-34 35 -73 94q-38 -59 -73 -94q-148 -156 -360 -156t-364 155q-53 60 -84 120zM3565 920q144 151 355 151q210 0 359.5 -157.5t149.5 -379.5t-149.5 -379t-359.5 -157l3 -2l-21 172h18q146 0 251 108t105 258q0 154 -105 263t-251 109q-148 0 -262 -101z M3588 1576q0 172 117 294.5t281 122.5q163 0 280 -123q119 -122 119 -284h-139q0 101 -74 177q-77 82 -186 81q-109 0 -185 -78.5t-76 -189.5q0 -112 76.5 -191t174.5 -79v-145q-154 0 -271 122.5t-117 292.5z" />
<glyph unicode="&#x102b;" horiz-adv-x="462" d="M-401 1590q0 164 96 287.5t283 123.5q163 0 269.5 -123.5t106.5 -292.5v-1585h-163v1590h-2q2 92 -57.5 168t-161.5 76q-126 0 -175 -76.5t-49 -167.5h-147z" />
<glyph unicode="&#x102c;" horiz-adv-x="947" d="M-150 821q37 57 77 95q151 154 371 155q217 0 370.5 -156.5t153.5 -380.5q0 -222 -153.5 -378t-370.5 -156q-5 0 2 0l-22 170h20q153 0 260 108t107 256q0 156 -107 264t-260 108q-152 0 -261 -109q-105 -107 -105 -219l-12 43q-58 182 -70 200z" />
<glyph unicode="&#x102d;" d="M-1078 1612q0 95 36 177t94.5 142.5t139 94.5t170.5 34q91 0 172.5 -34t142 -94.5t95.5 -142.5t35 -177q0 -92 -35 -174.5t-95.5 -143t-142 -96.5t-172.5 -36q-90 0 -170.5 36t-139 96.5t-94.5 143t-36 174.5zM-930 1608q0 -62 24.5 -115t62 -92.5t91.5 -63.5t117 -24 q61 0 113.5 24t93.5 63.5t63 92.5t22 115q0 59 -22 112t-63 95t-93.5 64t-113.5 22q-63 0 -117 -22t-91.5 -64t-62 -95t-24.5 -112z" />
<glyph unicode="&#x102e;" d="M-1076 1614q0 184 130 315t313 131q182 0 311.5 -131t129.5 -315q0 -186 -129.5 -318.5t-311.5 -132.5q-183 0 -313 132t-130 319zM-940 1558q10 -70 80 -192q12 152 56 217q67 83 176 82q106 0 175 -74q49 -67 62 -240q50 116 71 207q0 141 -94.5 241.5t-213.5 100.5 q-124 0 -218 -101t-94 -241zM-749 1428q0 -56 37 -91q33 -32 77 -36h14q52 0 89 36t37 91q0 54 -37 89.5t-89 35.5q-54 0 -91 -35.5t-37 -89.5z" />
<glyph unicode="&#x102f;" d="M-676 -108h169v-757h184v-141h-353v898z" />
<glyph unicode="&#x1030;" d="M-850 -108h173v-898h-173v898zM-504 -108h172v-757h183v-141h-355v898z" />
<glyph unicode="&#x1031;" horiz-adv-x="1146" d="M116 612q40 224 215.5 356.5t380.5 94.5q188 -34 296 -172l-128 -94q-73 84 -196 107q-146 26 -268 -67.5t-150 -251.5q-27 -149 57 -272q82 -121 239 -151q-56 98 -38 199q19 107 106.5 171t190.5 45t164.5 -109t42.5 -197t-107 -174q-12 -5 -23 -8q-173 -122 -376 -86 q-206 37 -325 215t-81 394zM655 335q-9 -51 17.5 -93t79.5 -52q50 -8 92 21.5t51 80.5t-20 94.5t-79 51.5q-54 10 -93 -22t-48 -81z" />
<glyph unicode="&#x1032;" d="M-1002 1751l120 120l594 -518l-110 -117z" />
<glyph unicode="&#x1033;" d="M-1087 1616q0 185 131.5 317.5t318.5 132.5q182 0 314 -132.5t132 -317.5q0 -188 -132 -320.5t-314 -132.5q-187 0 -318.5 132t-131.5 321zM-936 1610q0 -122 87 -210t213 -88q123 0 209.5 88t86.5 210q0 117 -86.5 206.5t-209.5 89.5q-127 0 -213.5 -89.5t-86.5 -206.5z M-814 1610q0 78 51.5 130.5t129.5 52.5q74 0 124 -53t50 -130q0 -72 -50 -124.5t-124 -52.5q-78 0 -129.5 51.5t-51.5 125.5zM-727 1606q0 -89 90 -89q92 0 92 89q0 87 -92 87q-90 0 -90 -87z" />
<glyph unicode="&#x1034;" d="M-1052 1364l604 525l107 -131l-613 -512z" />
<glyph unicode="&#x1035;" d="M-989 1634q23 169 154 275q130 101 297 79q146 -20 248 -135l-107 -86q-71 69 -161 80q-106 16 -199 -52q-87 -69 -103 -179q-16 -113 52 -197q59 -78 165 -104q-38 70 -28 139q6 44 29.5 81.5t55.5 61.5t70 35.5t77 5.5q42 -6 76 -27t58.5 -52.5t35 -73.5t4.5 -87 q-6 -41 -25 -76t-52 -61q-7 -6 -17 -14l-3 -3q-130 -98 -290 -75q-168 23 -263 157q-98 134 -74 308zM-552 1445q-5 -36 16 -65t54 -33q37 -5 64.5 17t32.5 58q4 33 -16 61.5t-57 33.5q-33 5 -61.5 -16t-32.5 -56z" />
<glyph unicode="&#x1036;" d="M-871 1483q0 98 64 166.5t157 68.5q89 0 152 -68.5t63 -166.5q0 -95 -63 -163t-152 -68q-93 0 -157 68t-64 163zM-759 1483q0 -44 31 -76.5t78 -32.5q42 0 74.5 32.5t32.5 76.5q0 48 -32.5 79t-74.5 31q-48 0 -78.5 -31t-30.5 -79z" />
<glyph unicode="&#x1037;" d="M-851 -414q0 98 64.5 167t156.5 69q88 0 150.5 -69t62.5 -167q0 -96 -62 -163t-151 -67q-92 0 -156.5 67t-64.5 163zM-737 -414q0 -43 30 -76t77 -33q43 0 75.5 32.5t32.5 76.5q0 48 -32.5 80t-75.5 32q-48 0 -77.5 -32t-29.5 -80z" />
<glyph unicode="&#x1038;" horiz-adv-x="653" d="M87 232q0 100 67 166t154 66q91 0 156.5 -66t65.5 -166q0 -98 -65.5 -165t-156.5 -67q-87 0 -154 66.5t-67 165.5zM87 841q0 98 67 165t154 67q91 0 156.5 -67t65.5 -165q0 -96 -65.5 -163.5t-156.5 -67.5q-87 0 -154 67.5t-67 163.5zM202 232q0 -48 30.5 -78.5 t75.5 -30.5q43 0 76 30.5t33 78.5t-32.5 79.5t-76.5 31.5q-46 0 -76 -32t-30 -79zM202 841q0 -50 30.5 -82t75.5 -32q44 0 76.5 32t32.5 82q0 44 -32.5 77.5t-76.5 33.5q-46 0 -76 -33.5t-30 -77.5z" />
<glyph unicode="&#x1039;" d="M-834 -466q0 52 61 61h229v236q7 66 64 66q52 -3 61 -66v-236h231q66 0 66 -61q0 -65 -66 -72h-231v-204q0 -34 -19 -50t-41 -16q-65 0 -65 66v204h-230q-60 0 -60 72z" />
<glyph unicode="&#x103a;" d="M-1016 1584q0 88 33 163.5t88.5 130.5t130 86.5t159.5 31.5t161 -31.5t132.5 -86.5t89.5 -131q12 -29 19 -82l-159 -2q-20 65 -54 100q-36 36 -82.5 55t-100.5 19q-56 0 -104 -19t-81 -56t-55 -83t-22 -97q0 -54 22 -100.5t55 -81.5t81 -56t114 -21l1 -153h-17 q-85 0 -159.5 33t-130 89t-88.5 131.5t-33 160.5z" />
<glyph unicode="&#x103b;" horiz-adv-x="281" d="M-417 -111h155v-604l303 -99v1887h151v-2005q0 -71 -55 -71l-507 147q-47 13 -47 68v677z" />
<glyph unicode="&#x103c;" horiz-adv-x="341" d="M142 -469v2086q0 327 259 449q60 31 197 31h401q335 0 443 -280q20 -89 20 -221v-259h-157v254q0 262 -159 314q-93 26 -176 26h-368q-241 0 -304 -247q-6 -27 -6 -52v-2116q0 -223 237 -293q30 -5 60 -5h401q242 0 297 175q19 82 18 164v434q141 108 152 112l5 11v-557 q0 -262 -81 -339q-76 -97 -160 -128q-71 -42 -268 -43h-327q-307 0 -405 192q-80 96 -79 292z" />
<glyph unicode="&#x103d;" d="M-1065 -547q0 94 35 179t95 147.5t139 98.5t171 36q90 0 171 -36t141.5 -98.5t95.5 -147.5t35 -179q0 -98 -35 -183t-95.5 -147.5t-142 -100.5t-170.5 -38q-92 0 -171 38t-139 100.5t-95 147.5t-35 183zM-920 -552q0 -65 25 -120t63.5 -95.5t92 -65t116.5 -24.5 q60 0 113.5 24.5t94.5 65t62 95t21 120.5q0 60 -21 115t-62 96.5t-94.5 65.5t-113.5 24q-63 0 -116.5 -24t-92 -65.5t-63.5 -96.5t-25 -115z" />
<glyph unicode="&#x103e;" horiz-adv-x="57" d="M-882 -865h184v757h169v-898h-353v141z" />
<glyph unicode="&#x103f;" horiz-adv-x="2945" d="M140 274l117 111q24 -52 76 -111q104 -111 250 -111q151 0 255 109.5t104 261.5q0 150 -104 259.5t-255 109.5q-146 0 -250 -112q-53 -56 -76 -108l-115 113q32 61 85 117q149 155 356 155q214 0 364 -156l150 -156q0 -374 104.5 -483.5t255.5 -109.5q147 0 250 109.5 t103 261.5q0 150 -103 259.5t-250 109.5q-128 0 -213 -70l-85 140q124 95 298 95q210 0 359.5 -156t149.5 -378q0 -29 -3 -59q22 -104 101 -199q102 -113 252 -113t254.5 110.5t104.5 261.5q0 153 -105 260.5t-254 107.5q-124 0 -208 -64l-64 149q117 83 272 83 q208 0 360.5 -156.5t152.5 -379.5q0 -221 -152.5 -378t-360.5 -157q-190 0 -435 238q-35 -53 -65 -84q-149 -156 -359 -156q-214 0 -362 156q-38 35 -73 95q-37 -60 -77 -95q-148 -156 -362 -156q-208 0 -356 156q-61 57 -87 120z" />
<glyph unicode="&#x1040;" horiz-adv-x="1319" d="M139 539q0 221 149.5 377.5t360.5 156.5q212 0 362.5 -156.5t150.5 -377.5q0 -225 -150.5 -381t-362.5 -156q-211 0 -360.5 155.5t-149.5 381.5zM292 539q0 -153 105 -262t252 -109q151 0 254 109t103 262q0 149 -103 259.5t-254 110.5q-147 0 -252 -110.5t-105 -259.5z M602 531q0 27 18 44t39 17q22 0 39.5 -17t17.5 -44q0 -28 -17.5 -45t-39.5 -17q-21 0 -39 17t-18 45z" />
</font>
</defs>
</svg>
