<?xml version="1.0" standalone="no"?>
<!DOCTYPE svg PUBLIC "-//W3C//DTD SVG 1.1//EN" "http://www.w3.org/Graphics/SVG/1.1/DTD/svg11.dtd" >
<svg xmlns="http://www.w3.org/2000/svg" xmlns:xlink="http://www.w3.org/1999/xlink" version="1.1">
<metadata></metadata>
<defs>
<font id="myanmar_ponenyetregular" horiz-adv-x="1228" >
<font-face units-per-em="2048" ascent="1536" descent="-512" />
<missing-glyph horiz-adv-x="512" />
<glyph unicode="&#x103e;&#x102f;" horiz-adv-x="0" d="M-954 -389h176v348h102v-717h-278v369zM-553 -41h102v-348h177v-369h-279v717z" />
<glyph unicode="&#x1085;&#x1036;" horiz-adv-x="0" d="M-1020 1311q0 102 90 153q-90 51 -90 154q0 205 358 205v-205q-215 0 -215 -51t215 -51v-103q-215 0 -215 -51t215 -51v-205q-358 0 -358 205zM-588 1464q1 205 191 205t190 -205t-190 -204q-190 0 -191 204z" />
<glyph unicode="&#x1085;&#x102d;" horiz-adv-x="0" d="M-1096 1311q0 102 90 153q-90 51 -90 154q0 205 359 205v-205q-215 0 -215 -51t215 -51v-103q-215 0 -215 -51t215 -51v-205q-358 0 -359 205zM-686 1464q0 359 276 359t277 -359q0 -358 -277 -358q-276 0 -276 358zM-584 1464q0 -113 174 -112q174 0 174 112 q0 113 -174 113t-174 -113z" />
<glyph unicode="&#x1085;&#x102e;" horiz-adv-x="0" d="M-1096 1311q0 102 90 153q-90 51 -90 154q0 205 359 205v-205q-215 0 -215 -51t215 -51v-103q-215 0 -215 -51t215 -51v-205q-358 0 -359 205zM-686 1464q0 359 276 359t277 -359q0 -358 -277 -358q-276 0 -276 358zM-584 1450q70 35 174 35t174 -35v14q0 113 -174 113 t-174 -113v-14zM-567 1329q39 -39 157 -39q119 0 156 37q-51 55 -156 55q-106 0 -157 -53z" />
<glyph unicode="&#x102d;&#x1036;" horiz-adv-x="0" d="M-1092 1464q1 359 277 359t276 -359q0 -358 -276 -358t-277 358zM-989 1464q0 -113 174 -112q174 0 174 112q0 113 -174 113t-174 -113zM-516 1464q0 205 190 205t191 -205q0 -205 -191 -204q-190 0 -190 204z" />
<glyph unicode="&#x100d;&#x1039;&#x100d;" d="M82 -59v569l102 43q0 -68 430 -68t430 136q0 137 -430 137t-430 -68l-102 43q0 332 399 332h267q399 0 399 -332v-223q0 -332 -399 -332h-267q-197 0 -297 82v-121q176 -63 430 -63t533 94v-621h164v-307h-267v666q-182 -55 -430 -55q-309 0 -532 88zM113 -317 q51 125 358 124q358 0 358 -188t-358 -188q-166 0 -256 37v-78q98 -37 256 -37q219 0 320 67h38v-100h164v-78h-266v68q-90 -37 -256 -37q-281 2 -358 74v209l100 41q39 -27 258 -27q256 0 256 49t-256 49q-219 0 -258 -26z" />
<glyph unicode="&#x100e;&#x1039;&#x100d;" d="M82 399v195l184 143h-184v328h399v-328l-297 -205q0 -266 430 -266q131 0 224 25v53q-90 -27 -195 -27q-219 2 -297 52l41 49q106 -45 256 -45q158 0 258 47h39v-86q104 68 104 198q0 205 -296 205v328q399 0 399 -399v-267q0 -287 -207 -368v-346h164v-344h-266v665 q-43 -6 -90 -6h-267q-399 0 -399 399zM346 512l100 14q39 -47 197 -47q195 0 195 76t-195 76q-158 0 -197 -47l-100 14q51 86 297 86q297 0 297 -129t-297 -129q-246 0 -297 86z" />
<glyph unicode="&#x100f;&#x1039;&#x100d;" horiz-adv-x="2088" d="M82 399v267q0 399 399 399h154q166 0 264 -70q61 70 197 70q135 0 196 -70q98 70 264 70h154q399 0 399 -399v-267q0 -352 -313 -393q-31 -262 -369 -287q27 -53 27 -94v-129q0 -254 -221 -254h-250l-27 244q170 39 170 115q0 113 -297 112q-297 0 -297 -112 q0 -76 170 -115l-26 -244q-246 51 -246 359q0 358 399 358t400 -358q0 -59 -27 -113h31q119 0 119 49v88q0 88 -101 88v246h154q258 0 285 55l20 9v346q297 0 297 163q0 164 -373 164q-375 0 -374 -164q0 -164 296 -163l-147 -369h-627l-147 369q297 0 297 163 q0 164 -373 164q-375 0 -375 -164t297 -163v-369q-399 0 -399 399zM936 102h319q-98 100 -98 297v267q0 156 62 249q-39 47 -123 48q-84 0 -123 -48q61 -94 61 -249v-267q0 -197 -98 -297z" />
<glyph unicode="&#x103e;&#x1030;" horiz-adv-x="0" d="M-1067 -389h176v348h103v-717h-279v369zM-666 -41h103v-717h-103v717zM-440 -41h102v-348h176v-369h-278v717z" />
<glyph unicode="&#x102b;&#x103a;" horiz-adv-x="266" d="M-410 1366q0 375 297 375q174 0 246 -129q72 129 246 129q297 0 297 -375h-103q0 109 -194 109q-195 0 -195 -109v-1366h-102v1366q0 109 -195 109t-194 -109h-103z" />
<glyph unicode="&#x103d;&#x1037;" horiz-adv-x="20" d="M-1055 -399q1 358 359 358t358 -358t-358 -359q-358 0 -359 359zM-952 -399q0 -113 256 -113t256 113q0 112 -256 112t-256 -112zM-330 -266q0 205 195 205t194 -205q0 -205 -194 -205q-195 0 -195 205z" />
<glyph unicode="&#xd;" horiz-adv-x="1040" />
<glyph unicode=" "  horiz-adv-x="512" />
<glyph unicode="&#x09;" horiz-adv-x="512" />
<glyph unicode="&#xa0;" horiz-adv-x="512" />
<glyph unicode="&#x1000;" horiz-adv-x="2191" d="M82 399v267q0 399 399 399h267q256 0 348 -164q92 164 348 164h266q399 0 399 -399v-267q0 -399 -399 -399h-266v369h133q430 0 430 163q0 164 -430 164t-430 -164v-133q0 -399 -399 -399v369q296 -1 296 163t-430 164t-430 -164t297 -163v-369q-399 0 -399 399z" />
<glyph unicode="&#x1001;" d="M82 369q0 164 246 163h286q260 0 347 -182q84 66 83 182q0 164 -430 164t-430 -82l-102 52q0 399 399 399h267q399 0 399 -399v-267q0 -399 -399 -399h-267q-399 0 -399 369zM221 369q0 -102 393 -103q154 0 252 33q-66 131 -252 131h-286q-106 0 -107 -61z" />
<glyph unicode="&#x1002;" d="M82 399v267q0 399 399 399h267q399 0 399 -399v-267q0 -399 -399 -399v369q297 0 296 163q0 164 -430 164t-430 -164t297 -163v-369q-399 0 -399 399z" />
<glyph unicode="&#x1003;" horiz-adv-x="2191" d="M82 399v195l184 102h-184v369h399v-369l-297 -164q0 -164 430 -163q430 0 430 163q1 164 -296 164v369q399 0 399 -399v-134q0 -164 430 -163q430 0 430 163q0 164 -430 164h-133v369h266q399 0 399 -399v-267q0 -399 -399 -399h-266q-256 0 -348 164q-92 -164 -348 -164 h-267q-399 0 -399 399z" />
<glyph unicode="&#x1004;" d="M82 399v267q0 399 399 399h267q399 0 399 -399l-103 -52q0 82 -430 82t-430 -164t430 -163q430 0 430 82l103 -52q0 -399 -399 -399h-267q-399 0 -399 399z" />
<glyph unicode="&#x1005;" d="M82 399v267q0 399 399 399h267q399 0 399 -399v-267q0 -399 -399 -399h-267q-399 0 -399 399zM184 532q0 -115 211 -149q16 68 17 149q-1 82 -17 150q-211 -35 -211 -150zM500 373q53 -4 114 -4q430 0 430 163q0 164 -430 164q-61 0 -114 -4q14 -72 14 -160 q0 -87 -14 -159z" />
<glyph unicode="&#x1006;" horiz-adv-x="2191" d="M82 369q0 164 246 163h286q260 0 347 -182q84 66 83 182q0 164 -430 164t-430 -82l-102 52q0 399 399 399h267q256 0 348 -164q92 164 348 164h266q399 0 399 -399v-267q0 -399 -399 -399h-266q-256 0 -348 164q-92 -164 -348 -164h-267q-399 0 -399 369zM221 369 q0 -102 393 -103q154 0 252 33q-66 131 -252 131h-286q-106 0 -107 -61zM1147 532q0 -164 430 -163q430 0 430 163q0 164 -430 164t-430 -164z" />
<glyph unicode="&#x1007;" d="M82 399v267q0 399 399 399h267q399 0 399 -399l-6 -2q33 -125 213 -150l-13 -102q-193 25 -266 139q-55 -55 -166 -55q-213 0 -225 200h-70q-430 0 -430 -164t430 -163q430 0 430 82l103 -52q0 -399 -399 -399h-267q-399 0 -399 399zM788 692q14 -94 121 -94q80 0 109 53 q-57 31 -230 41z" />
<glyph unicode="&#x1008;" horiz-adv-x="1495" d="M82 399v267q0 399 399 399h267q399 0 399 -399v-267q0 -399 -399 -399h-82v-225q0 -164 323 -164q322 0 322 164v1290h102v-1423q0 -399 -424 -400q-426 0 -426 400v358h-82q-399 0 -399 399zM184 532q0 -115 211 -149q16 68 17 149q-1 82 -17 150q-211 -35 -211 -150z M500 373q53 -4 114 -4q430 0 430 163q0 164 -430 164q-61 0 -114 -4q14 -72 14 -160q0 -87 -14 -159z" />
<glyph unicode="&#x1009;" d="M82 -358v757l102 52q0 -82 430 -82t430 163q0 164 -430 164t-430 -82l-102 52q0 399 399 399h267q399 0 399 -399v-267q0 -399 -399 -399h-267q-197 0 -297 98v-323q0 -164 430 -164h267q430 0 430 164v164h102v-297q0 -399 -399 -400h-533q-399 0 -399 400z" />
<glyph unicode="&#x100a;" horiz-adv-x="2191" d="M82 -358v757l102 52q0 -82 430 -82t430 163q0 164 -430 164t-430 -82l-102 52q0 399 399 399h267q399 0 399 -399v-134q0 -164 430 -163q430 0 430 163q0 164 -430 164h-133v369h266q399 0 399 -399v-267q0 -399 -399 -399h-266q-256 0 -348 164q-92 -164 -348 -164h-267 q-197 0 -297 98v-323q0 -164 430 -164h963q430 0 430 164v164h102v-297q0 -399 -399 -400h-1229q-399 0 -399 400z" />
<glyph unicode="&#x100b;" d="M82 -18l76 36q158 -80 456 -79q274 0 430 57v102q-100 -98 -296 -98h-267q-399 0 -399 399v267q0 399 399 399h267q399 0 399 -399l-103 -52q0 82 -430 82t-430 -164t430 -163q430 0 430 82l103 -52v-458q-184 -166 -533 -166q-260 0 -430 94v-80q176 -76 430 -76 q332 0 533 131v-295h164v-307h-267v271q-182 -66 -430 -66q-322 0 -532 109v426z" />
<glyph unicode="&#x100c;" d="M82 399v267q0 399 399 399h267q399 0 399 -399l-103 -52q0 82 -430 82t-430 -164t430 -163q430 0 430 82l103 -52v-860q0 -297 -399 -297h-267q-399 0 -399 336t346 336h252v-266h-252q-244 0 -244 -70t430 -70t430 164v426q-100 -98 -296 -98h-267q-399 0 -399 399z" />
<glyph unicode="&#x100d;" d="M82 -285v684l102 52q0 -82 430 -82t430 163q0 164 -430 164t-430 -82l-102 52q0 399 399 399h267q399 0 399 -399v-267q0 -399 -399 -399h-267q-197 0 -297 98v-145q176 -76 430 -76t533 113v-441h164v-307h-267v434q-182 -66 -430 -65q-309 0 -532 104z" />
<glyph unicode="&#x100e;" d="M82 399v195l184 102h-184v369h399v-369l-297 -164q0 -164 430 -163q430 0 430 163q0 164 -296 164v369q399 0 399 -399v-267q0 -399 -399 -399h-267q-399 0 -399 399z" />
<glyph unicode="&#x100f;" horiz-adv-x="2191" d="M82 399v267q0 399 399 399h154q166 0 264 -70q61 70 197 70q135 0 196 -70q98 70 264 70h154q399 0 399 -399v-267q0 -399 -399 -399v369q297 0 297 163q0 164 -373 164q-375 0 -374 -164q0 -164 296 -163l-147 -369h-627l-147 369q297 0 297 163q0 164 -373 164 q-375 0 -375 -164t297 -163v-369q-399 0 -399 399zM936 102h319q-98 100 -98 297v267q0 156 62 249q-39 47 -123 48q-84 0 -123 -48q61 -94 61 -249v-267q0 -197 -98 -297z" />
<glyph unicode="&#x1010;" horiz-adv-x="2191" d="M82 399v267q0 399 399 399h267q256 0 348 -164q92 164 348 164h266q399 0 399 -399v-267q0 -399 -399 -399h-266v369h133q430 0 430 163q0 164 -430 164t-430 -164v-133q0 -399 -399 -399h-267q-399 0 -399 399zM184 532q0 -164 430 -163q430 0 430 163q0 164 -430 164 t-430 -164z" />
<glyph unicode="&#x1011;" horiz-adv-x="2191" d="M82 399v267q0 399 399 399h267q256 0 348 -164q92 164 348 164h266q399 0 399 -399v-267q0 -399 -399 -399h-266q-256 0 -348 164q-92 -164 -348 -164h-267q-399 0 -399 399zM184 532q0 -164 430 -163q430 0 430 163q0 164 -430 164t-430 -164zM1147 532q0 -164 430 -163 q430 0 430 163q0 164 -430 164t-430 -164z" />
<glyph unicode="&#x1012;" d="M82 358l102 52q0 -102 430 -103q430 0 430 51q0 61 -368 62h-62v225h62q368 1 368 62q0 51 -430 51t-430 -103l-102 52q0 358 399 358h267q399 0 399 -358q0 -102 -178 -175q178 -70 178 -174q0 -358 -399 -358h-267q-399 0 -399 358z" />
<glyph unicode="&#x1013;" d="M82 399v267q0 399 399 399h267q399 0 399 -399v-267q0 -399 -399 -399h-267q-399 0 -399 399zM184 532q0 -66 27 -116q123 117 272 116h262q150 1 273 -116q27 51 26 116q0 164 -430 164t-430 -164zM295 332q109 -66 319 -66q211 0 320 66q-66 98 -189 98h-262 q-122 0 -188 -98z" />
<glyph unicode="&#x1014;" d="M82 338v31q0 143 225 143q274 0 338 -205q328 4 387 84q-29 43 -164 78l-293 74q-141 37 -223 86q-106 66 -106 119q41 317 368 317q369 0 369 -338l-102 -51q0 82 -267 82q-137 0 -202 -43q63 -39 192 -72l291 -74q252 -66 252 -200q0 -369 -399 -369h-82v-758h-103v758 h-82q-399 0 -399 338zM184 369q0 -56 346 -62q-59 102 -223 103q-123 0 -123 -41z" />
<glyph unicode="&#x1015;" d="M82 399v267q0 399 399 399v-369q-297 0 -297 -164t430 -163q430 0 430 163q0 164 -296 164v369q399 0 399 -399v-267q0 -399 -399 -399h-267q-399 0 -399 399z" />
<glyph unicode="&#x1016;" d="M82 399v267q0 399 399 399v-369q-297 0 -297 -164t430 -163q43 0 84 2q-53 127 -53 325v154q0 178 103 215q399 0 399 -399v-267q0 -399 -399 -399h-267q-399 0 -399 399zM748 696q0 -204 63 -315q233 31 233 151q0 164 -296 164z" />
<glyph unicode="&#x1017;" d="M82 399v267q0 399 399 399v-236q43 -45 133 -45q91 0 134 45v236q399 0 399 -399v-267q0 -399 -399 -399h-267q-399 0 -399 399zM184 532q0 -164 430 -163q430 0 430 163q0 184 -239 203q-68 -53 -191 -53q-122 0 -190 53q-240 -18 -240 -203z" />
<glyph unicode="&#x1018;" horiz-adv-x="2191" d="M82 399l102 52q0 -82 430 -82q430 -1 430 163t-430 164t-430 -82l-102 52q0 399 399 399h267q256 0 348 -164q92 164 348 164h266q399 0 399 -399v-267q0 -399 -399 -399h-266v369h133q430 0 430 163q0 164 -430 164t-430 -164v-133q0 -399 -399 -399h-267 q-399 0 -399 399z" />
<glyph unicode="&#x1019;" d="M82 399v267q0 399 399 399v-369q-297 0 -297 -164q0 -66 27 -116q123 117 272 116h262q150 1 273 -116q27 51 26 116q0 164 -296 164v369q399 0 399 -399v-267q0 -399 -399 -399h-267q-399 0 -399 399zM295 332q109 -66 319 -66q211 0 320 66q-66 98 -189 98h-262 q-122 0 -188 -98z" />
<glyph unicode="&#x101a;" horiz-adv-x="2191" d="M82 399v267q0 399 399 399v-369q-297 0 -297 -164t430 -163q430 0 430 163q0 164 -296 164v369q399 0 399 -399v-134q0 -164 430 -163q430 0 430 163q0 164 -430 164h-133v369h266q399 0 399 -399v-267q0 -399 -399 -399h-266q-256 0 -348 164q-92 -164 -348 -164h-267 q-399 0 -399 399z" />
<glyph unicode="&#x101b;" d="M82 399v267q0 399 399 399h267q399 0 399 -399v-891q0 -266 297 -267v-266q-399 0 -400 400v890q0 164 -430 164t-430 -164q0 -18 2 -34q96 35 254 34q348 0 348 -225q0 -307 -307 -307q-399 0 -399 399zM221 399q90 -133 332 -133q113 0 113 82t-226 82q-139 0 -219 -31 z" />
<glyph unicode="&#x101c;" horiz-adv-x="2191" d="M82 399v267q0 399 399 399h267q399 0 399 -399v-134q0 -164 430 -163q430 0 430 163q0 164 -430 164h-133v369h266q399 0 399 -399v-267q0 -399 -399 -399h-266q-399 0 -400 399v133q0 164 -430 164t-430 -164t430 -163h134v-369h-267q-399 0 -399 399z" />
<glyph unicode="&#x101d;" d="M82 399v267q0 399 399 399h267q399 0 399 -399v-267q0 -399 -399 -399h-267q-399 0 -399 399zM184 532q0 -164 430 -163q430 0 430 163q0 164 -430 164t-430 -164z" />
<glyph unicode="&#x101e;" horiz-adv-x="2191" d="M82 399l102 52q0 -82 430 -82q430 -1 430 163t-430 164t-430 -82l-102 52q0 399 399 399h267q399 0 399 -399v-134q0 -164 430 -163q430 0 430 163q0 164 -430 164h-133v369h266q399 0 399 -399v-267q0 -399 -399 -399h-266q-256 0 -348 164q-92 -164 -348 -164h-267 q-399 0 -399 399z" />
<glyph unicode="&#x101f;" horiz-adv-x="2191" d="M82 399v267q0 399 399 399v-369q-297 0 -297 -164t430 -163q430 0 430 163q0 164 -296 164v369q256 0 348 -164q92 164 348 164h266q399 0 399 -399v-267q0 -399 -399 -399h-266v369h133q430 0 430 163q0 164 -430 164t-430 -164v-133q0 -399 -399 -399h-267 q-399 0 -399 399z" />
<glyph unicode="&#x1020;" d="M82 -18l76 36q158 -80 456 -79q274 0 430 57v102q-100 -98 -296 -98h-267q-399 0 -399 399v267q0 399 399 399h267q399 0 399 -399l-103 -52q0 82 -430 82t-430 -164t430 -163q430 0 430 82l103 -52v-458q-184 -166 -533 -166q-260 0 -430 94v-94q0 -164 430 -164 t430 164v41h103v-174q0 -399 -399 -400h-267q-399 0 -399 400v340z" />
<glyph unicode="&#x1021;" horiz-adv-x="2191" d="M82 358l102 52q0 -102 430 -103q430 0 430 51q0 61 -368 62h-62v225h62q369 0 368 62q0 51 -430 51t-430 -103l-102 52q0 358 399 358h267q264 0 352 -156q94 156 344 156h266q399 0 399 -399v-267q0 -399 -399 -399q-307 0 -307 307q0 225 348 225q158 0 254 -34 q2 16 2 34q0 164 -430 164q-328 0 -453 -59q-41 -59 -155 -105q178 -70 178 -174q0 -358 -399 -358h-267q-399 0 -399 358zM1526 348q-1 -82 112 -82q242 0 332 133q-80 31 -219 31q-225 0 -225 -82z" />
<glyph unicode="&#x1022;" horiz-adv-x="2191" d="M82 0v369h184l-184 102v195q0 399 399 399h267q256 0 348 -164q92 164 348 164h266q399 0 399 -399v-267q0 -399 -399 -399h-266v369h133q430 0 430 163q0 164 -430 164t-430 -164v-133q0 -399 -399 -399v369q296 -1 296 163t-430 164t-430 -164l297 -163v-369h-399z" />
<glyph unicode="&#x1023;" horiz-adv-x="2191" d="M82 399v267q0 399 399 399h267q256 0 348 -164q92 164 348 164h266q399 0 399 -399v-267q0 -399 -399 -399h-266v369h133q430 0 430 163q0 164 -430 164t-430 -164v-133q0 -399 -399 -399v369q296 -1 296 163t-430 164t-430 -164t297 -163v-369q-399 0 -399 399z M379 -399q0 358 358 358q223 0 307 -139q84 139 308 139q358 0 358 -358q0 -84 -78 -113h180v-246h-460v246q256 0 256 113t-256 112q-256 0 -256 -112q0 -293 -234 -359l-37 242q168 39 168 117q0 113 -256 112q-256 0 -256 -112q0 -78 168 -117l-37 -242q-233 66 -233 359 z" />
<glyph unicode="&#x1024;" horiz-adv-x="2457" d="M82 399v267q0 399 399 399h267q256 0 348 -164q92 164 348 164h266q399 0 399 -399v-1127q0 -297 -399 -297h-1229q-399 0 -399 336t346 336h1419v-266h-1419q-244 0 -244 -70t430 -70h963q430 0 430 164v860q0 164 -430 164t-430 -164v-133q0 -399 -399 -399v369 q297 0 296 163q0 164 -430 164t-430 -164t297 -163v-369q-399 0 -399 399zM1655 1464q0 358 358 359q295 0 348 -305l-102 -25q-39 63 -246 63q-256 0 -256 -92t256 -92q363 0 363 -635v-1495h-103v1290q0 573 -260 574q-358 0 -358 358z" />
<glyph unicode="&#x1025;" d="M82 399l102 52q0 -82 430 -82t430 163q0 164 -430 164t-430 -82l-102 52q0 399 399 399h267q399 0 399 -399v-267q0 -399 -399 -399h-267q-197 0 -297 98v-426q0 -164 430 -164t430 70t-243 70h-252v266h252q346 0 346 -336t-399 -336h-267q-399 0 -399 297v860z" />
<glyph unicode="&#x1026;" d="M82 399l102 52q0 -82 430 -82t430 163q0 164 -430 164t-430 -82l-102 52q0 399 399 399h267q399 0 399 -399v-267q0 -399 -399 -399h-267q-197 0 -297 98v-426q0 -164 430 -164t430 70t-243 70h-252v266h252q346 0 346 -336t-399 -336h-267q-399 0 -399 297v860z M256 1464q0 359 358 359t359 -359q0 -358 -359 -358q-358 0 -358 358zM358 1464q0 -39 13 -69q78 90 243 90q168 0 244 -88q12 29 12 67q0 92 -256 92t-256 -92zM449 1319q61 -29 165 -29q102 0 164 29q-49 63 -164 63q-114 0 -165 -63z" />
<glyph unicode="&#x1027;" d="M82 399v267q0 399 399 399h267q399 0 399 -307q0 -164 -246 -164h-287q-260 0 -346 162q-84 -66 -84 -224t84 -223q86 162 346 162h287q246 0 246 -164q0 -307 -399 -307h-267q-399 0 -399 399zM362 258q98 -33 252 -33q393 0 394 82q0 61 -107 62h-287q-186 0 -252 -111 zM362 807q66 -111 252 -111h287q106 0 107 62q0 82 -394 82q-154 0 -252 -33z" />
<glyph unicode="&#x1028;" d="M82 -358v1024q0 399 399 399h267q399 0 399 -399v-267q0 -399 -320 -399q-321 0 -321 184v148q211 55 211 98q0 41 -101 41q-104 0 -104 -57h-102q0 242 206 241q203 0 203 -225q0 -158 -211 -211v-35q0 -82 219 -82q217 0 217 297v133q0 164 -430 164t-430 -164v-757 q0 -164 430 -164t430 164v143h103v-276q0 -399 -399 -400h-267q-399 0 -399 400z" />
<glyph unicode="&#x1029;" horiz-adv-x="2457" d="M82 -393v1851q0 365 346 365h1276v-369h-1276q-244 0 -244 -164v-1515q0 -164 244 -164h1112q242 0 242 164v225h-72q-256 0 -348 164q-92 -164 -348 -164h-266q-399 0 -400 399l103 52q0 -82 430 -82t430 163q0 164 -430 164t-430 -82l-103 52q0 399 400 399h266 q399 0 399 -399v-134q0 -164 430 -163q430 0 430 163q0 164 -430 164h-133v369h266q399 0 400 -399v-267q0 -399 -400 -399h-92v-393q0 -365 -344 -365h-1112q-346 0 -346 365z" />
<glyph unicode="&#x102a;" horiz-adv-x="4648" d="M82 399v267q0 399 399 399h267q399 0 399 -399l-103 -52q0 82 -430 82t-430 -164q0 -117 84 -182q86 182 346 182h287q246 0 246 -163q0 -369 -399 -369h-267q-399 0 -399 399zM362 299q98 -33 252 -33q393 0 394 103q0 61 -107 61h-287q-186 0 -252 -131zM1311 -393 v1851q0 365 346 365h1829v-369h-1829q-244 0 -244 -164v-1515q0 -164 244 -164h1112q242 0 242 164v225h-72q-256 0 -348 164q-92 -164 -348 -164h-267q-399 0 -399 399l102 52q0 -82 430 -82t431 163q0 164 -431 164q-430 0 -430 -82l-102 52q0 399 399 399h267 q399 0 399 -399v-134q0 -164 430 -163q430 0 430 163q0 164 -430 164h-133v369h266q256 0 348 -164q92 164 348 164h267q399 0 399 -399v-267q0 -399 -399 -399h-267v369h134q430 0 430 163q0 164 -430 164q-431 0 -431 -164v-133q0 -399 -399 -399h-92v-393 q0 -365 -344 -365h-1112q-346 0 -346 365zM3682 1464q0 358 359 359q295 0 348 -305l-103 -25q-38 63 -245 63q-256 0 -256 -92t256 -92v-266q-358 0 -359 358z" />
<glyph unicode="&#x102b;" horiz-adv-x="266" d="M-410 1366q0 375 297 375t297 -375v-1366h-102v1366q0 109 -195 109t-194 -109h-103z" />
<glyph unicode="&#x102c;" horiz-adv-x="962" d="M-184 532v134q0 399 399 399h266q399 0 400 -399v-267q0 -399 -400 -399h-266v369h133q430 0 430 163q0 164 -430 164t-430 -164h-102z" />
<glyph unicode="&#x102d;" horiz-adv-x="0" d="M-973 1464q1 359 359 359t358 -359q0 -358 -358 -358t-359 358zM-870 1464q0 -92 256 -92t256 92t-256 92t-256 -92z" />
<glyph unicode="&#x102e;" horiz-adv-x="0" d="M-973 1464q1 359 359 359t358 -359q0 -358 -358 -358t-359 358zM-870 1464q0 -39 12 -69q78 90 244 90q167 0 243 -88q12 29 13 67q0 92 -256 92t-256 -92zM-780 1319q61 -29 166 -29q102 0 163 29q-49 63 -163 63q-115 0 -166 -63z" />
<glyph unicode="&#x102f;" horiz-adv-x="0" d="M-666 -41h103v-348h176v-369h-279v717z" />
<glyph unicode="&#x1030;" horiz-adv-x="0" d="M-778 -41h102v-717h-102v717zM-553 -41h102v-348h177v-369h-279v717z" />
<glyph unicode="&#x1031;" d="M82 399v267q0 399 399 399h267q399 0 399 -399l-103 -52q0 82 -430 82t-430 -164q0 -117 84 -182q86 182 346 182h287q246 0 246 -163q0 -369 -399 -369h-267q-399 0 -399 399zM362 299q98 -33 252 -33q393 0 394 103q0 61 -107 61h-287q-186 0 -252 -131z" />
<glyph unicode="&#x1032;" horiz-adv-x="0" d="M-961 1739l72 73l623 -622l-72 -74z" />
<glyph unicode="&#x1033;" horiz-adv-x="0" d="M-973 1464q1 359 359 359t358 -359q0 -358 -358 -358t-359 358zM-870 1464q0 -154 256 -153q256 0 256 153q0 154 -256 154t-256 -154zM-809 1464q0 92 195 92t194 -92q0 -92 -194 -92q-195 0 -195 92z" />
<glyph unicode="&#x1034;" horiz-adv-x="0" d="M-961 1190l623 622l72 -73l-623 -623z" />
<glyph unicode="&#x1035;" horiz-adv-x="0" d="M-973 1464q0 358 359 359q307 0 358 -287l-100 -27q-39 68 -258 68q-256 0 -256 -113q0 -84 59 -127q84 138 307 138q160 0 248 -72v-10q-51 -287 -358 -287q-358 0 -359 358zM-707 1296q41 -6 93 -6q158 0 221 66q-48 16 -111 16q-137 0 -203 -76z" />
<glyph unicode="&#x1036;" horiz-adv-x="0" d="M-819 1311q0 205 205 205t204 -205q0 -205 -204 -205q-205 0 -205 205z" />
<glyph unicode="&#x1037;" horiz-adv-x="0" d="M-819 -307q0 205 205 205t204 -205q0 -205 -204 -205q-205 0 -205 205z" />
<glyph unicode="&#x1038;" horiz-adv-x="573" d="M82 246q0 205 205 205t205 -205t-205 -205t-205 205zM82 819q0 205 205 205t205 -205t-205 -205t-205 205z" />
<glyph unicode="&#x1039;" horiz-adv-x="0" d="M-850 -225h184v184h103v-184h184v-103h-184v-184h-103v184h-184v103z" />
<glyph unicode="&#x103a;" horiz-adv-x="0" d="M-967 1464q0 358 359 359q295 0 348 -305l-102 -25q-39 63 -246 63q-256 0 -256 -92t256 -92v-266q-358 0 -359 358z" />
<glyph unicode="&#x103b;" horiz-adv-x="266" d="M-502 -41h103v-184q0 -164 241 -164q240 0 240 164v1290h102v-1423q0 -399 -342 -400q-344 0 -344 400v317z" />
<glyph unicode="&#x103c;" horiz-adv-x="266" d="M82 -393v1851q0 365 346 365h641q344 0 344 -365v-229h-102v61q0 164 -242 164h-641q-244 0 -244 -164v-1515q0 -164 244 -164h641q242 0 242 164v430h102v-598q0 -365 -344 -365h-641q-346 0 -346 365z" />
<glyph unicode="&#x103d;" horiz-adv-x="0" d="M-973 -399q1 358 359 358t358 -358t-358 -359q-358 0 -359 359zM-870 -399q0 -113 256 -113t256 113q0 112 -256 112t-256 -112z" />
<glyph unicode="&#x103e;" horiz-adv-x="0" d="M-842 -389h176v348h103v-717h-279v369z" />
<glyph unicode="&#x103f;" horiz-adv-x="3153" d="M82 399l102 52q0 -82 430 -82t430 163q0 164 -430 164t-430 -82l-102 52q0 399 399 399h267q399 0 399 -399v-134q0 -164 430 -163q430 0 430 163q0 164 -430 164h-133v369h266q399 0 399 -399v-134q0 -164 431 -163q430 0 430 163q0 164 -430 164h-134v369h267 q399 0 399 -399v-267q0 -399 -399 -399h-267q-256 0 -348 164q-92 -164 -348 -164h-266q-256 0 -348 164q-92 -164 -348 -164h-267q-399 0 -399 399z" />
<glyph unicode="&#x1040;" d="M82 399v267q0 399 399 399h267q399 0 399 -399v-267q0 -399 -399 -399h-267q-399 0 -399 399zM184 532q0 -164 430 -163q430 0 430 163q0 164 -430 164t-430 -164z" />
<glyph unicode="&#x1041;" d="M82 399l102 52q0 -82 430 -82t430 163q0 164 -430 164t-430 -82l-102 52q0 399 399 399h267q399 0 399 -399v-267q0 -399 -399 -399h-267q-399 0 -399 399z" />
<glyph unicode="&#x1042;" d="M82 -61h102v-164q0 -164 430 -164t430 164v1290h103v-1423q0 -399 -399 -400h-267q-399 0 -399 400v297z" />
<glyph unicode="&#x1043;" d="M82 399l102 52q0 -82 430 -82t430 163q0 164 -430 164t-430 -82l-102 52q0 399 399 399h267q399 0 399 -399v-267q0 -399 -399 -399h-269l484 -483l-72 -74l-582 582q-227 74 -227 374z" />
<glyph unicode="&#x1044;" d="M82 399v267q0 399 399 399h267q399 0 399 -399l-103 -52q0 82 -430 82t-430 -164t430 -163q430 0 430 82l103 -52q0 -301 -227 -374l-582 -582l-72 74l484 483h-269q-399 0 -399 399z" />
<glyph unicode="&#x1045;" d="M82 -82h102v-143q0 -164 430 -164t430 164v757q0 164 -430 164q-362 1 -419 -116q39 14 92 14q205 0 205 -205t-205 -205t-205 205v277q0 399 399 399h267q399 0 399 -399v-1024q0 -399 -399 -400h-267q-399 0 -399 400v276z" />
<glyph unicode="&#x1046;" d="M82 399v1024q0 399 399 400h267q399 0 399 -400v-266h-103v133q0 164 -430 164t-430 -164v-758q0 -164 430 -163q430 0 430 163v35l-75 27q-231 68 -232 246q0 246 203 245q207 0 207 -262h-103q0 57 -104 58q-100 0 -100 -41q0 -43 184 -101l123 -39v-301 q0 -399 -399 -399h-267q-399 0 -399 399z" />
<glyph unicode="&#x1047;" d="M82 461v205q0 399 399 399h267q399 0 399 -399v-195q0 -213 -305 -428q-330 -233 -330 -330q0 -61 123 -61t123 61v103h102v-103q0 -328 -225 -327q-225 0 -225 327q0 311 374 576q260 184 260 243q0 164 -430 164t-430 -164q0 -102 297 -102v-266q-399 0 -399 297z" />
<glyph unicode="&#x1048;" d="M82 399v267q0 399 399 399h267q399 0 399 -399v-267q0 -399 -399 -399v369q297 0 296 163q0 164 -430 164q-43 0 -84 -2q53 -127 54 -325v-154q0 -178 -103 -215q-399 0 -399 399zM184 532q0 -164 297 -163q0 204 -63 315q-233 -31 -234 -152z" />
<glyph unicode="&#x1049;" d="M82 -358v1024q0 399 399 399h267q399 0 399 -399v-301l-123 -39q-184 -57 -184 -101q0 -41 100 -41q104 0 104 58h103q0 -262 -207 -262q-203 0 -203 245q0 178 232 246l75 27v34q0 164 -430 164t-430 -164v-757q0 -164 430 -164t430 164v133h103v-266q0 -399 -399 -400 h-267q-399 0 -399 400z" />
<glyph unicode="&#x104a;" horiz-adv-x="266" d="M82 0v1065h102v-1065h-102z" />
<glyph unicode="&#x104b;" horiz-adv-x="491" d="M82 0v1065h102v-1065h-102zM307 0v1065h103v-1065h-103z" />
<glyph unicode="&#x104c;" d="M82 -59v458l102 52q0 -82 430 -82t430 163q0 164 -430 164t-430 -82l-102 52q0 399 399 399h267q399 0 399 -399v-267q0 -399 -399 -399h-267q-197 0 -297 98v-102q156 -57 430 -57q299 0 457 79l76 -36v-340q0 -399 -399 -400h-267q-399 0 -399 400v174h102v-41 q0 -164 430 -164t430 164v94q-170 -94 -430 -94q-348 0 -532 166zM262 1464q0 358 359 359q295 0 348 -305l-103 -25q-38 63 -245 63q-256 0 -256 -92t256 -92v-266q-358 0 -359 358z" />
<glyph unicode="&#x104d;" horiz-adv-x="1495" d="M82 399v267q0 399 399 399h267q399 0 399 -399v-1024h-103v890q0 164 -430 164t-430 -164q0 -18 2 -34q96 35 254 34q348 0 348 -225q0 -307 -307 -307q-399 0 -399 399zM82 -422q0 336 346 336h477v-266h-477q-244 0 -244 -70t430 -70h267q430 0 430 164v860 q0 573 -260 574q-358 0 -359 358q0 358 359 359q295 0 348 -305l-103 -25q-39 63 -245 63q-256 0 -256 -92t256 -92q362 0 362 -840v-993q0 -297 -399 -297h-533q-399 0 -399 336zM221 399q90 -133 332 -133q113 0 113 82t-226 82q-139 0 -219 -31z" />
<glyph unicode="&#x104e;" d="M82 399v267q0 399 399 399h267q399 0 399 -399l-103 -52q0 82 -430 82t-430 -164t430 -163q430 0 430 82l103 -52v-1157h-103v856q-100 -98 -296 -98h-267q-399 0 -399 399z" />
<glyph unicode="&#x104f;" horiz-adv-x="1738" d="M82 399v267q0 399 399 399h267q203 0 303 -80q51 80 157 80q205 0 205 -287v-778h-102v778q0 61 -103 62q-42 -1 -67 -11q6 -33 6 -71q0 -164 -246 -164h-287q-260 0 -346 162q-84 -66 -84 -224t84 -223q86 162 346 162h287q246 0 246 -164q0 -307 -399 -307h-267 q-399 0 -399 399zM362 258q98 -33 252 -33q393 0 394 82q0 61 -107 62h-287q-186 0 -252 -111zM362 807q66 -111 252 -111h287q106 0 107 62q0 82 -394 82q-154 0 -252 -33zM936 1464q0 358 358 359q295 0 348 -305l-102 -25q-39 63 -246 63q-256 0 -256 -92t256 -92 q362 0 363 -594v-778h-103v778q0 328 -260 328q-358 0 -358 358z" />
<glyph unicode="&#x1050;" d="M82 399v267q0 399 399 399h267q399 0 399 -399v-267q0 -399 -399 -399v369q297 0 296 163q0 164 -430 164t-430 -164t297 -163v-369q-399 0 -399 399zM543 532q-1 72 71 72t72 -72t-72 -71q-72 0 -71 71z" />
<glyph unicode="&#x1051;" d="M82 399v267q0 399 399 399v-369q-297 0 -297 -164t430 -163q430 0 430 163q0 164 -296 164v369q399 0 399 -399v-267q0 -399 -399 -399h-267q-399 0 -399 399zM543 532q0 72 71 72q72 0 72 -72t-72 -71q-71 -1 -71 71z" />
<glyph unicode="&#x1052;" d="M82 399v267q0 399 399 399v-369q-297 0 -297 -164t430 -163q430 0 430 163l-296 164v369h399v-369h-184l184 -102v-195q0 -399 -399 -399h-267q-399 0 -399 399z" />
<glyph unicode="&#x1053;" d="M82 399v195l184 102h-184v369h399v-369l-297 -164q0 -164 430 -163q430 0 430 163l-296 164v369h399v-369h-184l184 -102v-195q0 -399 -399 -399h-267q-399 0 -399 399z" />
<glyph unicode="&#x1054;" d="M82 399v267q0 399 399 399h267q399 0 399 -369q0 -164 -246 -164h-287q-260 0 -346 183q-84 -66 -84 -183q0 -164 430 -163q430 0 430 82l103 -52q0 -399 -399 -399h-267q-399 0 -399 399zM362 766q66 -131 252 -131h287q106 0 107 61q0 102 -394 103q-154 0 -252 -33z " />
<glyph unicode="&#x1055;" d="M82 399v267q0 399 399 399h267q399 0 399 -369q0 -164 -246 -164h-287q-260 0 -346 183q-84 -66 -84 -183q0 -225 297 -225l133 144l134 -144q297 0 296 144l103 -52q0 -399 -399 -399l-134 143l-133 -143q-399 0 -399 399zM362 766q66 -131 252 -131h287q106 0 107 61 q0 102 -394 103q-154 0 -252 -33z" />
<glyph unicode="&#x1056;" horiz-adv-x="962" d="M-184 399l102 133q0 -164 430 -163q430 0 430 163l-297 164v369h400v-369h-185l185 -102v-195q0 -399 -400 -399h-266q-399 0 -399 399z" />
<glyph unicode="&#x1057;" horiz-adv-x="962" d="M-184 399l102 133q0 -143 297 -143l133 143l133 -143q297 0 297 143l-297 164v369h400v-369h-185l185 -102v-195q0 -399 -400 -399l-133 143l-133 -143q-399 0 -399 399z" />
<glyph unicode="&#x1058;" horiz-adv-x="0" d="M-973 -399q0 358 359 358q307 0 358 -287v-10q-88 -72 -248 -72q-223 1 -307 138q-59 -43 -59 -127q0 -113 256 -113q219 0 258 68l100 -27q-51 -287 -358 -287q-358 0 -359 359zM-707 -231q66 -76 203 -76q64 0 111 16q-63 66 -221 66q-51 0 -93 -6z" />
<glyph unicode="&#x1059;" horiz-adv-x="0" d="M-973 -399q0 358 359 358q307 0 358 -287v-10q-88 -72 -248 -72q-223 1 -307 138q-59 -43 -59 -127q0 -174 129 -174l127 122l110 -122q109 0 148 129l100 -27q-51 -287 -246 -287l-112 123l-138 -123q-221 0 -221 359zM-707 -231q66 -76 203 -76q64 0 111 16 q-63 66 -221 66q-51 0 -93 -6z" />
<glyph unicode="&#x105a;" d="M82 399v267q0 399 399 399h267q399 0 399 -399l-103 -52q0 82 -430 82t-430 -164t430 -163q430 0 430 82l103 -52q0 -399 -399 -399h-267q-399 0 -399 399zM379 -276q0 236 235 235q236 0 236 -235q0 -170 -133 -205t-133 -74t133 -39h67v-164h-67q-236 0 -236 203 q0 164 133.5 193t133.5 86q0 51 -134 51q-133 0 -133 -51h-102z" />
<glyph unicode="&#x105b;" horiz-adv-x="1495" d="M82 399v267q0 399 399 399h267q399 0 399 -399l-6 -2q29 -109 170 -142v543h102v-1423q0 -399 -424 -400q-426 0 -426 400v358h-82q-399 0 -399 399zM184 532q0 -164 430 -163q430 0 430 82l103 -52q0 -399 -399 -399h-82v-225q0 -164 323 -164q322 0 322 164v641 q-168 31 -236 135q-55 -55 -166 -55q-213 0 -225 200h-70q-430 0 -430 -164zM788 692q14 -94 121 -94q80 0 109 53q-57 31 -230 41z" />
<glyph unicode="&#x105c;" d="M82 399v267q0 399 399 399h267q399 0 399 -399v-267q0 -399 -399 -399h-267q-399 0 -399 399zM184 532q0 -225 430 -225t430 225q0 226 -430 226t-430 -226zM410 532q-1 164 204 164t205 -164t-205 -163q-205 0 -204 163z" />
<glyph unicode="&#x105d;" d="M82 399v267q0 399 399 399v-369q-297 0 -297 -164q0 -66 27 -116q123 117 272 116h262q150 0 273 -116q27 51 26 116q0 164 -296 164v369q399 0 399 -399v-267q0 -197 -96 -295q96 -92 96 -284v-213q0 -365 -344 -365h-375q-346 0 -346 336t346 336h252v-287h-252 q-244 0 -244 -49t244 -49h375q242 0 241 160v131q0 158 -86 219q-86 -39 -210 -39h-267q-399 0 -399 399zM295 332q109 -66 319 -66q211 0 320 66q-66 98 -189 98h-262q-122 0 -188 -98z" />
<glyph unicode="&#x105e;" horiz-adv-x="0" d="M-1147 -422q0 336 346 336h606q-25 111 -116 147l96 72q104 -67 127 -219h170v-287h-164v-20q0 -365 -344 -365h-375q-346 0 -346 336zM-1044 -422q0 -49 243 -49h375q190 0 231 98h-606q-244 0 -243 -49z" />
<glyph unicode="&#x105f;" horiz-adv-x="0" d="M-932 -395q0 254 354 282v113l107 -2v-309l-82 2q-276 0 -276 -86t215 -86t215 96h102q0 -342 -317 -342t-318 332z" />
<glyph unicode="&#x1060;" horiz-adv-x="0" d="M-920 -530l359 436l80 -64l-168 -211h340v-245h-568z" />
<glyph unicode="&#x1061;" d="M82 399v267q0 399 399 399h267q399 0 399 -399v-891q0 -266 297 -267v-266q-399 0 -400 400v890q0 164 -430 164t-430 -164q0 -18 2 -34q96 35 254 34q348 0 348 -225v-1065h-278v369h176v444q-76 -55 -205 -55q-399 0 -399 399zM221 399q90 -133 332 -133q113 0 113 82 t-226 82q-139 0 -219 -31z" />
<glyph unicode="&#x1062;" horiz-adv-x="266" d="M-82 696v369h266v-1065h-102v696h-164z" />
<glyph unicode="&#x1063;" d="M82 399l102 52q0 -82 430 -82t430 163q0 164 -430 164t-430 -82l-102 52q0 399 399 399h267q399 0 399 -399v-267q0 -399 -399 -399h-267q-197 0 -297 98v-856h-102v1157z" />
<glyph unicode="&#x1064;" horiz-adv-x="266" d="M-82 696v369h266v-696h164v-369h-266v696h-164z" />
<glyph unicode="&#x1065;" d="M82 399l102 52q0 -82 430 -82t430 163q0 164 -430 164t-430 -82l-102 52q0 399 399 399h267q399 0 399 -399v-267q0 -399 -399 -399h-267q-399 0 -399 399z" />
<glyph unicode="&#x1066;" d="M82 399v267q0 399 399 399v-369q-297 0 -297 -164t430 -163q430 0 430 163q0 164 -296 164v369q399 0 399 -399v-267q0 -348 -305 -393v-764h-279v369h176v389h-258q-399 0 -399 399z" />
<glyph unicode="&#x1067;" horiz-adv-x="450" d="M-41 205q0 205 205 205q59 0 102 -19v674h103v-860q0 -205 -205 -205t-205 205z" />
<glyph unicode="&#x1068;" horiz-adv-x="266" d="M-82 0v369h164v696h102v-1065h-266zM-72 1311q0 205 205 205t205 -205t-205 -205t-205 205z" />
<glyph unicode="&#x1069;" horiz-adv-x="598" d="M82 334q0 223 145.5 271t145.5 83q0 70 -199 70h-92v307h92q342 0 342 -315q0 -244 -145.5 -292t-145.5 -83q0 -68 199 -68h92v-307h-92q-342 0 -342 334z" />
<glyph unicode="&#x106a;" horiz-adv-x="266" d="M-246 395h103q-1 -88 112 -88t113 88v670h102v-670q0 -395 -215 -395t-215 395z" />
<glyph unicode="&#x106b;" horiz-adv-x="266" d="M-246 670q0 395 215 395t215 -395v-670h-102v670q0 88 -113 88q-112 0 -112 -88h-103z" />
<glyph unicode="&#x106c;" horiz-adv-x="266" d="M82 395v670h102v-670q0 -88 113 -88t113 88h102q0 -395 -215 -395t-215 395z" />
<glyph unicode="&#x106d;" horiz-adv-x="598" d="M82 0v307h92q199 0 199 68q0 35 -145.5 83t-145.5 292q0 315 342 315h92v-307h-92q-199 0 -199 -70q0 -35 145.5 -83t145.5 -271q0 -334 -342 -334h-92z" />
<glyph unicode="&#x106e;" horiz-adv-x="2662" d="M82 399v267q0 399 399 399h738q256 0 348 -164q92 164 348 164h266q399 0 399 -399v-267q0 -399 -399 -399h-266v369h133q430 0 430 163q0 164 -430 164t-430 -164v-133q0 -399 -399 -399v369q297 0 297 163q0 152 -369 164v-297q0 -399 -399 -399v369q297 0 296 163 q0 164 -430 164t-430 -164t297 -163v-369q-399 0 -399 399z" />
<glyph unicode="&#x106f;" horiz-adv-x="2191" d="M82 399v267q0 399 399 399v-369q-297 0 -297 -164t430 -163q430 0 430 163q0 164 -296 164v369q256 0 348 -164q92 164 348 164h266q399 0 399 -399v-267q0 -399 -399 -399h-164v-758h-278v369h176v758h133q430 0 430 163q0 164 -430 164t-430 -164v-133 q0 -399 -399 -399h-267q-399 0 -399 399z" />
<glyph unicode="&#x1070;" horiz-adv-x="2191" d="M82 399v195l184 102h-184v369h399v-369l-297 -164q0 -164 430 -163q430 0 430 163q0 164 -296 164v369q399 0 399 -399v-134q0 -164 430 -163q430 0 430 163q0 164 -430 164h-133v369h266q399 0 399 -399v-267q0 -399 -399 -399h-164v-758h-278v369h176v389 q-256 0 -348 164q-92 -164 -348 -164h-267q-399 0 -399 399z" />
<glyph unicode="&#x1071;" horiz-adv-x="0" d="M-1024 1485q0 205 190 205t191 -205q0 -205 -191 -205q-190 0 -190 205zM-586 1485q1 205 191 205t190 -205t-190 -205t-191 205z" />
<glyph unicode="&#x1072;" horiz-adv-x="0" d="M-973 1464q1 359 359 359q307 0 358 -287l-100 -27q-39 68 -258 68q-256 0 -256 -113t256 -112q219 0 258 67l100 -26q-51 -287 -358 -287q-358 0 -359 358z" />
<glyph unicode="&#x1073;" horiz-adv-x="0" d="M-1155 1198l541 541l540 -541l-73 -72l-365 365l-469 -467z" />
<glyph unicode="&#x1074;" horiz-adv-x="0" d="M-973 1475q0 272 207 337l39 -241q-143 -49 -143 -96q0 -113 256 -113t256 113q0 47 -144 96l39 241q207 -66 207 -337q0 -358 -358 -359q-358 0 -359 359z" />
<glyph unicode="&#x1075;" d="M82 0v369h184l-184 102v195q0 399 399 399h267q399 0 399 -399v-267q0 -399 -399 -399v369q297 0 296 163q0 164 -430 164t-430 -164l297 -163v-369h-399z" />
<glyph unicode="&#x1076;" d="M-61 965v100h102v-100q0 -111 61 -140q70 240 379 240h267q399 0 399 -399v-267q0 -399 -399 -399h-267q-399 0 -399 369q0 164 246 163h286q260 0 347 -182q84 66 83 182q0 164 -430 164t-430 -82l-102 52q0 28 2 55q-145 37 -145 244zM221 369q0 -102 393 -103 q154 0 252 33q-66 131 -252 131h-286q-106 0 -107 -61z" />
<glyph unicode="&#x1077;" d="M82 0v369h184l-184 102v195q0 399 399 399h267q399 0 399 -399v-267q0 -399 -399 -399q-102 37 -103 215v154q0 199 53 325q-41 2 -84 2q-430 0 -430 -164l297 -163v-369h-399zM748 369q297 0 296 163q0 121 -233 152q-63 -110 -63 -315z" />
<glyph unicode="&#x1078;" horiz-adv-x="2191" d="M82 399v267q0 399 399 399h267q256 0 348 -164q92 164 348 164h266q399 0 399 -399v-267q0 -399 -399 -399h-266q-399 0 -400 399v133q0 164 -430 164t-430 -164t430 -163h134v-369h-267q-399 0 -399 399zM1147 532q0 -164 430 -163q430 0 430 163q0 164 -430 164 t-430 -164z" />
<glyph unicode="&#x1079;" horiz-adv-x="2191" d="M82 399v267q0 399 399 399h267q256 0 348 -164q92 164 348 164h266q399 0 399 -399v-267q0 -399 -399 -399h-266q-399 0 -400 399v133q0 164 -430 164t-430 -164q0 -18 2 -34q96 35 254 34q348 0 348 -225q0 -307 -307 -307q-399 0 -399 399zM221 399q90 -133 332 -133 q113 0 113 82t-226 82q-139 0 -219 -31zM1147 532q0 -164 430 -163q430 0 430 163q0 164 -430 164t-430 -164z" />
<glyph unicode="&#x107a;" horiz-adv-x="2191" d="M82 399v267q0 399 399 399h267q399 0 399 -399v-134q0 -164 430 -163q430 0 430 163q0 164 -430 164h-133v369h266q399 0 399 -399v-267q0 -399 -399 -399h-266q-197 0 -297 98v-487h176v-369h-279v1290q0 164 -430 164t-430 -164t430 -163h134v-369h-267 q-399 0 -399 399z" />
<glyph unicode="&#x107b;" horiz-adv-x="2191" d="M82 399v267q0 399 399 399h267q256 0 348 -164q92 164 348 164h266q399 0 399 -399v-267q0 -399 -399 -399q-307 0 -307 307q0 225 348 225q158 0 254 -34q2 16 2 34q0 164 -430 164t-430 -164v-133q0 -399 -399 -399h-267q-399 0 -399 399zM184 532q0 -164 430 -163 q430 0 430 163q0 164 -430 164t-430 -164zM1526 348q-1 -82 112 -82q242 0 332 133q-80 31 -219 31q-225 0 -225 -82z" />
<glyph unicode="&#x107c;" horiz-adv-x="2191" d="M82 369q0 164 246 163h286q260 0 347 -182q84 66 83 182q0 164 -430 164t-430 -82l-102 52q0 399 399 399h267q256 0 348 -164q92 164 348 164h266q399 0 399 -399l-102 -52q0 82 -430 82t-430 -164q0 -117 84 -182q86 182 346 182h287q246 0 245 -163q0 -369 -399 -369 h-266q-256 0 -348 164q-92 -164 -348 -164h-267q-399 0 -399 369zM221 369q0 -102 393 -103q154 0 252 33q-66 131 -252 131h-286q-106 0 -107 -61zM1325 299q98 -33 252 -33q393 0 393 103q0 61 -106 61h-287q-186 0 -252 -131z" />
<glyph unicode="&#x107d;" horiz-adv-x="2191" d="M82 399v195l184 102h-184v369h399v-369l-297 -164q0 -164 430 -163q430 0 430 163v134q0 399 400 399h266q399 0 399 -399l-102 -52q0 82 -430 82t-430 -164q0 -117 84 -182q86 182 346 182h287q246 0 245 -163q0 -369 -399 -369h-266q-256 0 -348 164 q-92 -164 -348 -164h-267q-399 0 -399 399zM1325 299q98 -33 252 -33q393 0 393 103q0 61 -106 61h-287q-186 0 -252 -131z" />
<glyph unicode="&#x107e;" horiz-adv-x="2191" d="M82 399v195l184 102h-184v369h399v-369l-297 -164q0 -164 430 -163q430 0 430 163v134q0 399 400 399h266q399 0 399 -399l-102 -52q0 82 -430 82t-430 -164q0 -117 84 -182q86 182 346 182h287q246 0 245 -163q0 -369 -399 -369h-82v-758h-278v369h176v389h-82 q-256 0 -348 164q-92 -164 -348 -164h-267q-399 0 -399 399zM1325 299q98 -33 252 -33q393 0 393 103q0 61 -106 61h-287q-186 0 -252 -131z" />
<glyph unicode="&#x107f;" d="M82 399v267q0 399 399 399q102 -37 103 -215v-154q0 -199 -54 -325q41 -2 84 -2q430 0 430 163q0 164 -296 164v369q399 0 399 -399v-267q0 -399 -399 -399h-267q-399 0 -399 399zM184 532q0 -121 234 -151q63 110 63 315q-297 0 -297 -164z" />
<glyph unicode="&#x1080;" horiz-adv-x="2191" d="M82 369q0 164 246 163h286q260 0 347 -182q84 66 83 182q0 164 -430 164t-430 -82l-102 52q0 399 399 399h267q399 0 399 -399v-134q0 -164 430 -163q430 0 430 163q0 164 -430 164h-133v369h266q399 0 399 -399v-267q0 -399 -399 -399h-266q-256 0 -348 164 q-92 -164 -348 -164h-267q-399 0 -399 369zM221 369q0 -102 393 -103q154 0 252 33q-66 131 -252 131h-286q-106 0 -107 -61z" />
<glyph unicode="&#x1081;" d="M82 399v267q0 399 399 399h267q399 0 399 -399v-267q0 -399 -399 -399v369q297 0 296 163q0 164 -430 164t-430 -164t297 -163v-1127h-278v369h176v397q-297 47 -297 391z" />
<glyph unicode="&#x1082;" horiz-adv-x="0" d="M-973 -399q0 358 359 358q166 0 256 -78l-70 -207q-63 39 -186 39q-256 0 -256 -112q0 -113 256 -113t256 113h102q0 -358 -358 -359q-358 0 -359 359z" />
<glyph unicode="&#x1083;" horiz-adv-x="266" d="M-82 696v369h266v-1454h164v-369h-266v1454h-164z" />
<glyph unicode="&#x1084;" d="M82 358q0 104 178 174q-178 72 -178 175q0 358 399 358h267q399 0 399 -358l-103 -52q0 102 -430 103q-430 0 -430 -51q0 -62 369 -62h61v-225h-61q-369 0 -369 -62q0 -51 430 -51t430 103l103 -52q0 -358 -399 -358h-267q-399 0 -399 358z" />
<glyph unicode="&#x1085;" horiz-adv-x="0" d="M-877 1311q1 102 91 153q-90 51 -91 154q0 205 359 205q96 0 166 -15l-19 -202q-57 12 -147 12q-215 0 -215 -51t215 -51v-103q-215 0 -215 -51t215 -51q90 0 147 12l19 -203q-70 -14 -166 -14q-358 0 -359 205z" />
<glyph unicode="&#x1086;" horiz-adv-x="0" d="M-819 1556q0 205 205 205t204 -205v-65q0 -358 -309 -444l-33 98q178 51 224 219q-37 -12 -86 -12q-205 0 -205 204z" />
<glyph unicode="&#x1087;" horiz-adv-x="573" d="M82 205q0 205 205 205t205 -205v-66q0 -358 -310 -444l-32 98q178 51 223 219q-37 -12 -86 -12q-205 0 -205 205z" />
<glyph unicode="&#x1088;" horiz-adv-x="573" d="M82 205q0 205 205 205t205 -205v-66q0 -358 -310 -444l-32 98q178 51 223 219q-37 -12 -86 -12q-205 0 -205 205zM82 860q0 205 205 205t205 -205t-205 -205t-205 205z" />
<glyph unicode="&#x1089;" horiz-adv-x="573" d="M82 205q0 205 205 205t205 -205t-205 -205t-205 205z" />
<glyph unicode="&#x108a;" horiz-adv-x="880" d="M82 205q0 205 205 205t205 -205q0 -51 -13 -88q168 45 219 225l99 -33q-86 -309 -445 -309h-65q-205 0 -205 205zM84 860q0 205 205 205t205 -205q0 -51 -13 -88q168 45 219 225l99 -32q-86 -309 -445 -310h-65q-205 0 -205 205z" />
<glyph unicode="&#x108b;" horiz-adv-x="573" d="M82 532q0 205 205 205t205 -205t-205 -204q-205 0 -205 204z" />
<glyph unicode="&#x108c;" horiz-adv-x="1064" d="M82 532q0 205 205 205t205 -205t-205 -204q-205 0 -205 204zM573 532q0 205 205 205t205 -205t-205 -204q-205 0 -205 204z" />
<glyph unicode="&#x108d;" horiz-adv-x="0" d="M-1075 -74h921v-307h-921v307z" />
<glyph unicode="&#x108e;" d="M82 399v267q0 399 399 399h267q399 0 399 -399v-267q0 -399 -399 -399h-267q-399 0 -399 399zM184 532q0 -164 430 -163q430 0 430 163q0 66 -26 117q-123 -117 -273 -117h-262q-150 0 -272 117q-27 -51 -27 -117zM295 733q65 -98 188 -98h262q123 0 189 98 q-109 66 -320 66t-319 -66z" />
<glyph unicode="&#x108f;" horiz-adv-x="573" d="M82 139v66q0 205 205 205t205 -205t-205 -205q-49 0 -86 12q45 -168 223 -219l-33 -98q-309 86 -309 444zM82 860q0 205 205 205t205 -205t-205 -205t-205 205z" />
<glyph unicode="&#x1090;" d="M82 399v267q0 399 399 399h267q399 0 399 -399v-267q0 -399 -399 -399h-267q-399 0 -399 399zM184 532q0 -164 430 -163q430 0 430 163q0 164 -430 164t-430 -164z" />
<glyph unicode="&#x1091;" horiz-adv-x="655" d="M82 928l229 137h68v-719l141 84l53 -293l-229 -137h-68v719l-141 -84z" />
<glyph unicode="&#x1092;" d="M82 532v615h102v-232q131 150 430 150q532 0 533 -533q0 -377 -305 -591q-330 -233 -330 -351h-102q0 373 374 637q260 184 260 305q0 164 -430 164t-430 -164h-102z" />
<glyph unicode="&#x1093;" horiz-adv-x="1095" d="M82 41l670 1497l94 -41l-193 -432h43q317 0 318 -313v-752h-103v588q0 109 -215 108h-213l-307 -696z" />
<glyph unicode="&#x1094;" horiz-adv-x="917" d="M82 41l459 1024h100v-719l141 84l54 -293l-230 -137h-67v811l-363 -811z" />
<glyph unicode="&#x1095;" horiz-adv-x="983" d="M82 430q0 492 461 492h256v512h102v-512h103v-308h-103v-82q0 -532 -409 -532q-410 0 -410 430zM184 430q0 -123 308 -123q307 0 307 225v82h-256q-358 0 -359 -184z" />
<glyph unicode="&#x1096;" horiz-adv-x="983" d="M82 635q0 430 410 430t409 -533v-81h103v-308h-103v-512h-102v512h-256q-461 0 -461 492zM184 635q0 -184 359 -184h256v81q0 225 -307 226q-307 0 -308 -123z" />
<glyph unicode="&#x1097;" horiz-adv-x="983" d="M82 0v63l463 633h-463v369h819v-68l-459 -628h459v-369h-819z" />
<glyph unicode="&#x1098;" d="M82 532q0 367 254 482q-254 115 -254 481h102q0 -266 430 -266t430 266h103q0 -367 -254 -481q254 -115 254 -482q0 -532 -533 -532q-532 0 -532 532zM184 532q0 -164 430 -163q430 0 430 163q0 164 -430 164t-430 -164z" />
<glyph unicode="&#x1099;" d="M82 0q0 367 254 481q-254 115 -254 482q0 532 532 532t533 -532q0 -367 -254 -482q254 -115 254 -481h-103q0 266 -430 266t-430 -266h-102zM184 963q0 -164 430 -164t430 164t-430 163q-430 0 -430 -163z" />
<glyph unicode="&#x109a;" horiz-adv-x="573" d="M82 860q0 205 205 205t205 -205t-205 -205t-205 205z" />
<glyph unicode="&#x109b;" horiz-adv-x="573" d="M82 860q0 205 205 205t205 -205v-65q0 -358 -310 -445l-32 99q178 51 223 219q-37 -12 -86 -13q-205 0 -205 205z" />
<glyph unicode="&#x109c;" horiz-adv-x="880" d="M82 860q0 205 205 205h65q358 0 445 -309l-99 -33q-51 180 -219 225q12 -37 13 -88q0 -205 -205 -205t-205 205zM84 205q0 205 205 205h65q358 0 445 -310l-99 -32q-51 180 -219 225q12 -37 13 -88q0 -205 -205 -205t-205 205z" />
<glyph unicode="&#x109d;" horiz-adv-x="0" d="M-676 1120q0 395 297 396q297 0 297 -314v-383h-102v219q0 170 -195 170t-194 -88h-103z" />
<glyph unicode="&#x109e;" horiz-adv-x="266" d="M-82 696v369h266v-1454h164v-369h-266v1454h-164zM-72 1311q0 205 205 205t205 -205t-205 -205t-205 205z" />
<glyph unicode="&#x109f;" horiz-adv-x="1495" d="M82 399v267q0 399 399 399h267q399 0 399 -399v-998q0 -57 82 -57t82 57v864q0 573 -260 574q-358 0 -359 358q0 358 359 359q295 0 348 -305l-103 -25q-39 63 -245 63q-256 0 -256 -92t256 -92q362 0 362 -635v-1212q0 -283 -184 -283t-185 283v1007q0 164 -430 164 t-430 -164t430 -163h134v-369h-267q-399 0 -399 399z" />
<glyph unicode="&#x2000;" horiz-adv-x="911" />
<glyph unicode="&#x2001;" horiz-adv-x="1823" />
<glyph unicode="&#x2002;" horiz-adv-x="911" />
<glyph unicode="&#x2003;" horiz-adv-x="1823" />
<glyph unicode="&#x2004;" horiz-adv-x="607" />
<glyph unicode="&#x2005;" horiz-adv-x="455" />
<glyph unicode="&#x2006;" horiz-adv-x="303" />
<glyph unicode="&#x2007;" horiz-adv-x="303" />
<glyph unicode="&#x2008;" horiz-adv-x="227" />
<glyph unicode="&#x2009;" horiz-adv-x="364" />
<glyph unicode="&#x200a;" horiz-adv-x="101" />
<glyph unicode="&#x202f;" horiz-adv-x="364" />
<glyph unicode="&#x205f;" horiz-adv-x="455" />
<glyph unicode="&#x25cc;" horiz-adv-x="1218" d="M102 535q0 49 52 49q49 0 49 -49t-49 -50q-51 0 -52 50zM139 360q0 51 49 52q50 -1 50 -52q0 -49 -50 -49q-49 0 -49 49zM139 709q0 49 49 49q50 0 50 -49q0 -51 -48 -52q-51 0 -51 52zM238 211q0 51 49 51q51 0 51 -51q0 -49 -51 -49q-49 0 -49 49zM238 854q0 53 49 53 q51 0 51 -51q0 -49 -51 -49q-49 0 -49 47zM385 113q0 51 49 51q51 0 51 -47q0 -51 -51 -51q-49 0 -49 47zM385 954q0 51 49 52q51 -1 51 -52q0 -49 -51 -49q-49 0 -49 49zM559 80q0 49 49 49t49 -49q0 -51 -49 -51t-49 51zM559 991q0 49 49 49t49 -49q0 -51 -49 -51t-49 51z M733 113q0 51 51 51q47 0 47 -51q0 -47 -47 -47q-51 0 -51 47zM733 954q0 51 51 52q47 -1 47 -52q0 -49 -47 -49q-51 0 -51 49zM881 211q0 51 51 51q49 0 49 -51q0 -49 -49 -49q-51 0 -51 49zM881 856q0 51 51 51q49 0 49 -51q0 -49 -49 -49q-51 0 -51 49zM979 360 q0 51 49 52q51 -1 51 -52q0 -49 -51 -49q-49 0 -49 49zM979 709q0 49 51 49q49 0 49 -49q0 -51 -51 -52q-49 0 -49 52zM1016 535q0 49 51 49q49 0 49 -49t-49 -50q-51 0 -51 50z" />
<glyph unicode="&#x25fc;" horiz-adv-x="1024" d="M0 0z" />
<glyph unicode="&#xaa60;" horiz-adv-x="2191" d="M82 399v267q0 399 399 399h267q256 0 348 -164q92 164 348 164h266q399 0 399 -399v-267q0 -399 -399 -399q-307 0 -307 307q0 225 348 225q158 0 254 -34q2 16 2 34q0 164 -430 164t-430 -164v-133q0 -399 -399 -399v369q297 0 296 163q0 164 -430 164t-430 -164 t297 -163v-369q-399 0 -399 399zM1526 348q-1 -82 112 -82q242 0 332 133q-80 31 -219 31q-225 0 -225 -82z" />
<glyph unicode="&#xaa61;" horiz-adv-x="2191" d="M82 0v369h184l-184 102v195q0 399 399 399h267q256 0 348 -164q92 164 348 164h266q399 0 399 -399v-267q0 -399 -399 -399h-266q-256 0 -348 164q-92 -164 -348 -164v369q296 -1 296 163t-430 164t-430 -164l297 -163v-369h-399zM1147 532q0 -164 430 -163 q430 0 430 163q0 164 -430 164t-430 -164z" />
<glyph unicode="&#xaa62;" horiz-adv-x="1632" d="M82 0v1065h102v-705l355 377l100 -205q0 -164 405 -163q403 0 404 163q0 164 -430 164q-121 0 -209 -34l-39 364q104 39 248 39q532 0 532 -533q0 -532 -506 -532q-436 0 -497 393l-369 -393h-96z" />
<glyph unicode="&#xaa63;" horiz-adv-x="2191" d="M82 0v369h184l-184 102v195q0 399 399 399h267q256 0 348 -164q92 164 348 164h266q399 0 399 -399v-267q0 -399 -399 -399h-266q-256 0 -348 164q-92 -164 -348 -164q-102 37 -103 215v154q0 199 53 325q-41 2 -84 2q-430 0 -430 -164l297 -163v-369h-399zM748 369 q297 0 296 163q0 121 -233 152q-63 -110 -63 -315zM1147 532q0 -164 430 -163q430 0 430 163q0 164 -430 164t-430 -164z" />
<glyph unicode="&#xaa64;" horiz-adv-x="2191" d="M82 399v267q0 399 399 399v-369q-297 0 -297 -164t430 -163q430 0 430 163q0 164 -296 164v369q256 0 348 -164q92 164 348 164h266q399 0 399 -399v-267q0 -399 -399 -399h-266q-256 0 -348 164q-92 -164 -348 -164h-267q-399 0 -399 399zM1147 532q0 -164 430 -163 q430 0 430 163q0 164 -430 164t-430 -164z" />
<glyph unicode="&#xaa65;" horiz-adv-x="2191" d="M82 399v267q0 399 399 399h267v-369h-134q-430 0 -430 -164t430 -163q430 0 430 163v134q0 399 400 399h266q399 0 399 -399v-267q0 -399 -399 -399h-266v369h133q430 0 430 163q0 164 -430 164t-430 -164v-1290h-279v369h176v487q-99 -98 -296 -98h-267q-399 0 -399 399 z" />
<glyph unicode="&#xaa66;" horiz-adv-x="2191" d="M82 399v267q0 399 399 399h267q256 0 348 -164q92 164 348 164h266q399 0 399 -399v-267q0 -399 -399 -399h-266v369h133q430 0 430 163q0 164 -430 164t-430 -164v-133q0 -399 -399 -399h-267q-399 0 -399 399zM184 532q0 -164 430 -163q430 0 430 163q0 164 -430 164 t-430 -164zM543 532q-1 72 71 72t72 -72t-72 -71q-72 0 -71 71z" />
<glyph unicode="&#xaa67;" horiz-adv-x="2191" d="M82 399v267q0 399 399 399h267q256 0 348 -164q92 164 348 164h266q399 0 399 -399v-267q0 -399 -399 -399h-266q-256 0 -348 164q-92 -164 -348 -164h-267q-399 0 -399 399zM184 532q0 -164 430 -163q430 0 430 163q0 164 -430 164t-430 -164zM543 532q-1 72 71 72 t72 -72t-72 -71q-72 0 -71 71zM1147 532q0 -164 430 -163q430 0 430 163q0 164 -430 164t-430 -164z" />
<glyph unicode="&#xaa68;" horiz-adv-x="2191" d="M82 399v267q0 399 399 399h267q256 0 348 -164q92 164 348 164h266q399 0 399 -399v-267q0 -399 -399 -399q-307 0 -307 307q0 225 348 225q158 0 254 -34q2 16 2 34q0 164 -430 164t-430 -164v-133q0 -399 -399 -399h-267q-399 0 -399 399zM184 532q0 -164 430 -163 q430 0 430 163q0 164 -430 164t-430 -164zM543 532q-1 72 71 72t72 -72t-72 -71q-72 0 -71 71zM1526 348q-1 -82 112 -82q242 0 332 133q-80 31 -219 31q-225 0 -225 -82z" />
<glyph unicode="&#xaa69;" horiz-adv-x="2191" d="M82 399v267q0 399 399 399h267q256 0 348 -164q92 164 348 164h266q399 0 399 -399v-267q0 -399 -399 -399h-266q-256 0 -348 164q-92 -164 -348 -164h-267q-399 0 -399 399zM184 532q0 -164 430 -163q430 0 430 163q0 164 -430 164t-430 -164zM543 532q-1 72 71 72 t72 -72t-72 -71q-72 0 -71 71zM1147 532q0 -129 270 -157q-59 166 -266 184q-4 -12 -4 -27zM1241 649q234 -51 287 -280h49q430 0 430 163q0 164 -430 164q-229 0 -336 -47z" />
<glyph unicode="&#xaa6a;" horiz-adv-x="2191" d="M82 399v267q0 399 399 399h267q256 0 348 -164q92 164 348 164h266q399 0 399 -399v-267q0 -399 -399 -399h-266q-256 0 -348 164q-92 -164 -348 -164h-267q-399 0 -399 399zM184 532q0 -164 430 -163q430 0 430 163q0 164 -430 164t-430 -164zM1147 532q0 -129 270 -157 q-59 166 -266 184q-4 -12 -4 -27zM1241 649q234 -51 287 -280h49q430 0 430 163q0 164 -430 164q-229 0 -336 -47z" />
<glyph unicode="&#xaa6b;" d="M82 399v267q0 180 82 278q-78 100 -78 244h102q0 -102 56 -176q92 53 237 53h267q399 0 399 -399v-267q0 -399 -399 -399v369q297 0 296 163q0 164 -430 164q-43 0 -84 -2q53 -127 54 -325v-154q0 -178 -103 -215q-399 0 -399 399zM184 532q0 -164 297 -163 q0 204 -63 315q-233 -31 -234 -152z" />
<glyph unicode="&#xaa6c;" horiz-adv-x="2191" d="M82 399v267q0 399 399 399v-369q-297 0 -297 -164t375 -163q373 0 373 163q0 164 -297 164l147 369h627l147 -369q-297 0 -296 -164q0 -164 374 -163q373 0 373 163q0 164 -297 164v369q399 0 399 -399v-267q0 -399 -399 -399h-154q-399 0 -399 399v267q0 197 98 297 h-319q98 -100 98 -297v-267q0 -399 -399 -399h-154q-399 0 -399 399z" />
<glyph unicode="&#xaa6d;" horiz-adv-x="1392" d="M-246 -281h103q0 -109 194 -108q195 0 195 108v813q0 68 8 127q-25 -4 -53 -4q-205 0 -205 205t205 205q156 0 192 -119q133 119 385 119q532 0 533 -533q0 -532 -533 -532q-143 0 -248 39l39 364q88 -35 209 -34q430 0 430 163q0 164 -430 164t-430 -164v-915 q0 -375 -297 -375t-297 477z" />
<glyph unicode="&#xaa6e;" horiz-adv-x="2191" d="M82 399v267q0 399 399 399h267q399 0 399 -399v-134q0 -164 430 -163q430 0 430 163q0 164 -430 164h-133v369h266q399 0 399 -399v-267q0 -399 -399 -399h-266q-399 0 -400 399v133q0 164 -430 164t-430 -164q0 -18 2 -34q96 35 254 34q348 0 348 -225q0 -307 -307 -307 q-399 0 -399 399zM221 399q90 -133 332 -133q113 0 113 82t-226 82q-139 0 -219 -31z" />
<glyph unicode="&#xaa6f;" horiz-adv-x="1495" d="M82 0v1065h96l199 -213q78 213 371 213h266q399 0 399 -399v-267q0 -399 -399 -399h-266q-399 0 -400 399v131l-164 175v-705h-102zM451 532q0 -164 430 -163q430 0 430 163q0 164 -430 164t-430 -164z" />
<glyph unicode="&#xaa70;" horiz-adv-x="0" d="M-913 1278q90 94 301 94q209 0 299 -94l-82 -174q-63 63 -217 63q-156 0 -219 -63zM-913 1606q90 94 301 94q209 0 299 -94l-82 -174q-63 63 -217 63q-156 0 -219 -63z" />
<glyph unicode="&#xaa71;" horiz-adv-x="2191" d="M82 399v267q0 399 399 399h267q256 0 348 -164q92 164 348 164h266q399 0 399 -399v-267q0 -399 -399 -399h-266v369h133q430 0 430 163q0 164 -430 164t-430 -164v-133q0 -399 -399 -399v369q296 -1 296 163t-430 164q-43 0 -84 -2q53 -127 54 -325v-154 q0 -178 -103 -215q-399 0 -399 399zM184 532q0 -164 297 -163q0 204 -63 315q-233 -31 -234 -152z" />
<glyph unicode="&#xaa72;" horiz-adv-x="2191" d="M-61 205q0 171 143 198v263q0 399 399 399h267q256 0 348 -164q92 164 348 164h266q399 0 399 -399v-267q0 -399 -399 -399h-266q-256 0 -348 164q-92 -164 -348 -164v369q297 0 296 163q0 164 -430 164t-430 -164q0 -80 25 -129q139 -31 139 -198q0 -205 -205 -205 t-204 205zM1147 532q0 -164 430 -163q430 -1 430 163t-430 164t-430 -164z" />
<glyph unicode="&#xaa73;" horiz-adv-x="1421" d="M82 0v1065h98q301 -696 654 -696q403 0 403 163q0 164 -430 164q-121 0 -209 -34l-39 364q104 39 248 39q532 0 532 -533q0 -532 -505 -532q-361 0 -650 745v-745h-102z" />
<glyph unicode="&#xaa74;" horiz-adv-x="1495" d="M82 399v267q0 399 399 399v-369q-297 0 -297 -164t430 -163h31v481q0 178 103 215q399 0 399 -399v-267q0 -399 -399 -399v-412q139 -59 352 -59q211 0 211 180v823q0 573 -260 574q-358 0 -359 358q0 358 359 359q295 0 348 -305l-103 -25q-39 63 -245 63 q-256 0 -256 -92t256 -92q362 0 362 -635v-1151q0 -344 -313 -344q-219 0 -359 135q-33 -135 -198 -135q-205 0 -205 205t205 205q59 0 102 -19v367h-164q-399 0 -399 399zM748 373q296 24 296 159q0 164 -296 164v-323z" />
<glyph unicode="&#xaa75;" horiz-adv-x="2355" d="M82 0v369h184l-184 102v195q0 399 399 399h267q256 0 348 -164q92 164 348 164h266q399 0 399 -399v-267q0 -350 -307 -393v-397q139 -80 305 -80t166 78v925q0 573 -260 574q-358 0 -358 358t358 359q295 0 348 -305l-102 -25q-39 63 -246 63q-256 0 -256 -92t256 -92 q362 0 363 -635v-1192q0 -303 -269 -303q-172 0 -311 135q-33 -135 -199 -135q-205 0 -204 205q0 205 204 205q59 0 103 -19v367h-256v369h133q430 0 430 163q0 164 -430 164t-430 -164v-133q0 -399 -399 -399v369q297 0 296 163q0 164 -430 164t-430 -164l297 -163v-369 h-399z" />
<glyph unicode="&#xaa76;" horiz-adv-x="1658" d="M-307 -330q0 428 244 428h169v-368h-169q-141 0 -142 -60q0 -59 142 -59h169q139 0 140 201v878q0 68 -195 68t-194 -129h-103q0 436 297 436q217 0 275 -199q127 199 452 199q532 0 533 -533q0 -403 -307 -501v-422q139 -39 305 -39t166 57v905q0 573 -261 574 q-358 0 -358 358t358 359q295 0 349 -305l-103 -25q-39 63 -246 63q-256 0 -256 -92t256 -92q362 0 363 -635v-1192q0 -303 -268 -303q-172 0 -312 135q-33 -135 -198 -135q-205 0 -205 205t205 205q59 0 102 -19v375q-57 -8 -123 -8q-143 0 -248 39l39 364q88 -35 209 -34 q430 0 430 163q0 164 -430 164t-430 -164v-864q0 -426 -242 -426h-169q-244 0 -244 428z" />
<glyph unicode="&#xaa77;" d="M82 0v369h184l-184 102v195q0 399 399 399h267q399 0 399 -399v-267q0 -342 -293 -391l195 -430l165 60l97 -300l-262 -96l-355 871v-502h176v-369h-278v901l156 226q297 0 296 163q0 164 -430 164t-430 -164l297 -163v-369h-399zM262 1464q0 358 359 359q295 0 348 -305 l-103 -25q-38 63 -245 63q-256 0 -256 -92t256 -92v-266q-358 0 -359 358z" />
<glyph unicode="&#xaa78;" horiz-adv-x="1515" d="M82 836l82 71q143 -133 143 -409q0 -268 -135 -402l-78 76q111 106 111 326q0 229 -123 338zM254 90q133 299 401 299q217 0 336 -59l191 549q61 186 198 186q39 0 84 -14q100 -33 133 -109l-96 -53q-14 47 -69 63q-23 8 -41 9q-74 0 -111 -115l-242 -737l25 -25l-72 -84 q-106 123 -336 123q-219 0 -325 -111zM254 913l76 242q106 -111 325 -111q230 0 336 123l72 -245q-133 -143 -408 -144q-268 0 -401 135z" />
<glyph unicode="&#xaa79;" d="M82 0v369h184l-184 102v195q0 399 399 399h267q399 0 399 -399v-267q0 -399 -399 -399v-389h176v-369h-279v1127h103q297 0 296 163q0 164 -430 164t-430 -164l297 -163v-369h-399z" />
<glyph unicode="&#xaa7a;" horiz-adv-x="2457" d="M82 -393v1687q0 365 346 365h641q242 0 242 164h102v-168q0 -365 -344 -365h-641q-244 0 -244 -164v-1351q0 -164 244 -164h641q242 0 242 164v757q0 164 -430 164t-430 -164t430 -163h133v-369h-266q-399 0 -400 399v267q0 399 400 399h266q399 0 399 -399v-134 q0 -164 430 -163q430 0 430 163q0 164 -430 164h-133v369h266q399 0 400 -399v-267q0 -399 -400 -399h-266q-197 0 -297 98v-491q0 -365 -344 -365h-641q-346 0 -346 365z" />
<glyph unicode="&#xaa7b;" horiz-adv-x="573" d="M82 139v66q0 205 205 205t205 -205t-205 -205q-49 0 -86 12q45 -168 223 -219l-33 -98q-309 86 -309 444z" />
<glyph horiz-adv-x="0" d="M-1280 -399q0 358 358 358q223 0 308 -139q84 139 307 139q358 0 358 -358t-358 -359q-55 0 -103 8l19 246q39 -8 84 -8q256 0 256 113t-256 112q-256 0 -256 -112q0 -307 -246 -359l-27 244q170 39 170 115q0 113 -256 112q-256 0 -256 -112q0 -76 170 -115l-26 -244 q-246 51 -246 359z" />
<glyph horiz-adv-x="0" d="M-973 -328q51 287 359 287q358 0 358 -358t-358 -359q-307 0 -359 287v10q88 72 248 72q223 0 307 -137q59 43 60 127q0 113 -256 112q-219 0 -258 -67zM-836 -508q63 -66 222 -65q51 0 92 6q-66 76 -203 75q-64 0 -111 -16z" />
<glyph horiz-adv-x="2" d="M-973 -399q0 358 359 358q358 0 358 -358q0 -307 -246 -359l-26 244q170 39 170 115q0 113 -256 112q-256 0 -256 -112q0 -76 170 -115l-27 -244q-246 51 -246 359z" />
<glyph horiz-adv-x="0" d="M-1280 -100q92 59 166 59q160 0 160 -137q0 -195 -154 -242q-49 -23 -49 -41q0 -51 235 -51q256 0 256 113q0 76 -170 114l27 244q246 -51 246 -358q0 -113 256 -113t256 113t-256 112q-45 0 -84 -8l-19 246q47 8 103 8q358 0 358 -358t-358 -359q-223 0 -307 140 q-84 -139 -308 -140q-358 0 -358 338q0 53 101.5 89t101.5 71t-41 35q-45 0 -115 -49z" />
<glyph horiz-adv-x="2" d="M-973 -399q1 358 359 358q307 0 358 -287l-100 -26q-39 68 -258 67q-256 0 -256 -112q0 -113 256 -113q219 0 258 68l100 -27q-51 -287 -358 -287q-358 0 -359 359z" />
<glyph horiz-adv-x="2" d="M-973 -399q1 358 359 358t358 -358t-358 -359q-358 0 -359 359zM-870 -399q0 -78 122 -103q27 37 27 103q0 65 -27 102q-123 -25 -122 -102zM-635 -287q16 -47 17 -112q-1 -66 -17 -113h21q256 0 256 113t-256 112h-21z" />
<glyph horiz-adv-x="0" d="M-1280 -328q51 287 358 287q223 0 308 -139q84 139 307 139q358 0 358 -358t-358 -359q-223 1 -307 140q-84 -139 -308 -140q-307 0 -358 287v10q88 72 248 72q223 0 307 -137q59 43 59 127q0 113 -256 112q-219 0 -258 -67zM-1143 -508q63 -66 221 -65q51 0 93 6 q-66 76 -203 75q-64 0 -111 -16zM-563 -399q0 -113 256 -113t256 113q0 112 -256 112t-256 -112z" />
<glyph horiz-adv-x="2" d="M-973 -399q0 358 359 358q264 0 338 -211q55 -49 159 -61l-12 -103q-123 16 -199 70l-14 -4q-35 -31 -102 -31q-117 0 -138 94h-32q-256 0 -256 -112q0 -113 256 -113q219 0 258 68l100 -27q-51 -287 -358 -287q-358 0 -359 359zM-496 -238q0 -51 52 -51q51 0 51 51 t-51 52q-51 0 -52 -52z" />
<glyph horiz-adv-x="266" d="M-973 -399q0 358 359 358q348 0 358 -340q43 -8 98 -8q240 0 240 164v1290h102v-1423q0 -399 -342 -400q-137 0 -219 64q-88 -63 -237 -64q-358 0 -359 359zM-870 -399q0 -78 122 -103q27 37 27 103q0 65 -27 102q-123 -25 -122 -102zM-635 -287q16 -47 17 -112 q-1 -66 -17 -113h21q256 0 256 113t-256 112h-21z" />
<glyph horiz-adv-x="0" d="M-973 -266q1 246 359 246q307 0 358 -164l-100 -27q-39 27 -258 27q-256 0 -256 -82t256 -82q219 0 258 26l100 -26q-51 -164 -358 -164q-358 0 -359 246zM-973 -621l41 93q106 -84 318 -86q219 0 319 88h39v-129h164v-103h-266v88q-90 -47 -256 -47q-281 2 -359 96z" />
<glyph horiz-adv-x="0" d="M-1229 -272q0 231 203 231t203 -231v-170h-103v88q0 68 -100 67q-100 0 -100 -67v-68q0 -86 118 -86h359q-68 49 -68 109q0 358 359 358q358 0 358 -358q0 -307 -246 -359l-26 244q170 39 170 115q0 113 -256 112q-256 0 -256 -112q0 -76 170 -115l-27 -244l-537 4 q-221 0 -221 250v232z" />
<glyph horiz-adv-x="0" d="M-1280 -399q0 358 319 358q111 0 183 -43q49 43 164 43t163 -43q72 43 183 43q319 0 319 -358t-358 -359v246q256 0 256 113t-217 112q-217 0 -217 -112q0 -92 24 -154q18 -39 45 -65q-12 -61 -53 -95q-51 -45 -145 -45t-146 45q-41 33 -53 95q27 27 45 65q25 61 25 154 q0 113 -218 112q-217 1 -217 -112t256 -113v-246q-358 0 -358 359zM-700 -156q59 -88 59 -243q0 -143 -49 -232q27 -25 76 -24q49 0 75 24q-49 88 -49 232q1 155 60 243q-25 12 -86 13q-61 0 -86 -13z" />
<glyph horiz-adv-x="0" d="M-1280 -399q0 358 358 358q223 0 308 -139q84 139 307 139q358 0 358 -358t-358 -359q-55 0 -103 8l19 246q39 -8 84 -8q256 0 256 113t-256 112q-256 0 -256 -112q0 -358 -359 -359q-358 0 -358 359zM-1178 -399q0 -113 256 -113t256 113t-256 112q-256 0 -256 -112z " />
<glyph horiz-adv-x="0" d="M-1280 -399q0 358 358 358q224 0 308 -139q84 139 307 139q358 0 358 -358t-358 -359q-223 0 -307 140q-84 -139 -308 -140q-358 0 -358 359zM-1178 -399q0 -113 256 -113t256 113q0 112 -256 112t-256 -112zM-563 -399q0 -113 256 -113t256 113q0 112 -256 112 t-256 -112z" />
<glyph horiz-adv-x="0" d="M-973 -307q0 266 359 266q358 0 358 -205q0 -102 -90 -153q90 -51 90 -154q0 -205 -358 -205t-359 266h103q0 -41 256 -40q215 0 215 40q0 41 -215 41v103q215 0 215 41t-215 41q-256 0 -256 -41h-103z" />
<glyph horiz-adv-x="2" d="M-973 -399q0 358 359 358q358 0 358 -358t-358 -359q-359 1 -359 359zM-870 -399q0 -80 24 -133q45 129 232 129q186 0 231 -129q25 53 25 133q0 113 -256 112q-256 0 -256 -112zM-758 -627q57 -29 144 -28q86 0 143 28q-2 121 -143 121q-142 0 -144 -121z" />
<glyph horiz-adv-x="0" d="M-973 -551q0 137 152 137q241 0 241 -139q221 8 222 37q0 45 -239 103.5t-239 193.5q0 178 207 178q236 0 236 -233h-103q0 29 -133 28q-84 0 -84 -14q0 -20 228.5 -78.5t228.5 -198.5q0 -221 -358 -221t-359 207z" />
<glyph horiz-adv-x="2" d="M-973 -399q0 307 246 358l27 -244q-170 -39 -170 -114q0 -113 256 -113t256 113q0 76 -170 114l26 244q246 -51 246 -358q0 -359 -358 -359t-359 359z" />
<glyph horiz-adv-x="2" d="M-973 -399q0 307 246 358l27 -244q-170 -39 -170 -114q0 -113 256 -113q24 0 47 2q-47 82 -47 213q0 160 71 248q6 8 41 8q246 -51 246 -358q0 -358 -358 -359q-358 0 -359 359zM-512 -289v-8q0 -132 68 -195q86 27 86 93q0 72 -154 110z" />
<glyph horiz-adv-x="2" d="M-973 -399q0 307 246 358l10 -37q0 -164 103 -164q102 0 102 164l10 37q246 -51 246 -358q0 -358 -358 -359q-358 0 -359 359zM-870 -399q0 -113 256 -113t256 113q0 80 -74 145q-45 -90 -182 -90q-140 0 -183 94q-74 -68 -73 -149z" />
<glyph horiz-adv-x="0" d="M-1280 -287q51 246 358 246q223 0 308 -139q84 139 307 139q358 0 358 -358t-358 -359q-55 0 -103 8l19 246q39 -8 84 -8q256 0 256 113t-256 112q-256 0 -256 -112q0 -358 -359 -359q-307 0 -358 246l100 68q39 -68 258 -68q256 0 256 113q0 112 -256 112 q-219 0 -258 -67z" />
<glyph horiz-adv-x="2" d="M-973 -399q0 307 246 358l27 -244q-170 -39 -170 -114q0 -80 24 -133q45 129 232 129q186 0 231 -129q25 53 25 133q0 76 -170 114l26 244q246 -51 246 -358q0 -358 -358 -359q-358 0 -359 359zM-758 -627q57 -29 144 -28q86 0 143 28q-2 121 -143 121q-142 0 -144 -121z " />
<glyph horiz-adv-x="0" d="M-1280 -399q0 358 358 358t359 -358q0 -113 256 -113t256 113t-256 112q-45 0 -84 -8l-19 246q47 8 103 8q358 0 358 -358t-358 -359q-358 0 -359 359q0 113 -256 112q-256 0 -256 -112q0 -113 256 -113q45 0 84 8l19 -246q-47 -8 -103 -8q-358 0 -358 359z" />
<glyph horiz-adv-x="2" d="M-973 -399q1 358 359 358t358 -358t-358 -359q-358 0 -359 359zM-870 -399q0 -113 256 -113t256 113q0 112 -256 112t-256 -112z" />
<glyph horiz-adv-x="2" d="M-1333 -573l155 182l134 -117l71 78v31q0 358 359 358q358 0 358 -358t-358 -359q-266 0 -336 199l-174 -199zM-870 -399q0 -113 256 -113t256 113q0 112 -256 112t-256 -112z" />
<glyph horiz-adv-x="266" d="M82 -393v1851q0 365 346 365h1604q344 0 344 -365v-229h-103v61q0 164 -241 164h-1604q-244 0 -244 -164v-1515q0 -164 244 -164h1604q242 0 241 164v430h103v-598q0 -365 -344 -365h-1604q-346 0 -346 365z" />
<glyph horiz-adv-x="266" d="M82 -758v1823h102v-1454h176v-369h-278z" />
<glyph horiz-adv-x="491" d="M82 -758v1823h102v-1823h-102zM307 -758v1823h103v-1454h176v-369h-279z" />
<glyph horiz-adv-x="266" d="M82 -393v1851q0 365 346 365h641q344 0 344 -365v-229h-102v61q0 164 -242 164h-641q-244 0 -244 -164v-1515q0 -164 244 -164v-369q-346 0 -346 365z" />
<glyph horiz-adv-x="266" d="M82 -393v1851q0 365 346 365v-369q-244 0 -244 -164v-1515q0 -164 244 -164h641q242 0 242 164v430h102v-598q0 -365 -344 -365h-641q-346 0 -346 365z" />
<glyph horiz-adv-x="266" d="M82 -393v1851q0 365 346 365v-369q-244 0 -244 -164v-1515q0 -164 244 -164v-369q-346 0 -346 365z" />
<glyph horiz-adv-x="266" d="M82 -393v1851q0 365 346 365h1604q344 0 344 -365v-229h-103v61q0 164 -241 164h-1604q-244 0 -244 -164v-1515q0 -164 244 -164h803v-369h-803q-346 0 -346 365z" />
<glyph horiz-adv-x="266" d="M82 -393v1851q0 365 346 365h803v-369h-803q-244 0 -244 -164v-1515q0 -164 244 -164h1604q242 0 241 164v430h103v-598q0 -365 -344 -365h-1604q-346 0 -346 365z" />
<glyph horiz-adv-x="266" d="M82 -393v1851q0 365 346 365h803v-369h-803q-244 0 -244 -164v-1515q0 -164 244 -164h803v-369h-803q-346 0 -346 365z" />
<glyph d="M82 -57v315l76 29q158 -59 456 -60q274 0 430 43v76q-100 -74 -296 -74h-267q-399 0 -399 297v199q0 297 399 297h267q399 0 399 -297l-103 -39q0 61 -430 62q-430 0 -430 -121q0 -123 430 -123t430 61l103 -39v-340q-184 -125 -533 -125q-260 0 -430 70v-59 q176 -55 430 -56q332 0 533 99v-609h164v-307h-267v668q-182 -49 -430 -49q-322 0 -532 82zM113 -381q0 188 358 188q307 0 358 -124l-100 -41q-39 27 -258 26q-256 0 -256 -49t256 -49q219 0 258 27l100 -41q-51 -125 -358 -125q-358 0 -358 188zM113 -653l41 71 q106 -66 317 -65q219 0 320 67h38v-100h164v-78h-266v68q-90 -37 -256 -37q-281 2 -358 74z" />
<glyph horiz-adv-x="2191" d="M82 -358v757l102 52q0 -82 430 -82t430 163q0 164 -430 164t-430 -82l-102 52q0 399 399 399h267q399 0 399 -399v-134q0 -164 430 -163q430 0 430 163q0 164 -430 164h-133v369h266q399 0 399 -399v-267q0 -399 -399 -399h-266q-256 0 -348 164q-92 -164 -348 -164h-267 q-197 0 -297 98v-323q0 -164 430 -164h482v-369h-615q-399 0 -399 400z" />
<glyph d="M82 338v31q0 143 225 143q274 0 338 -205q328 4 387 84q-29 43 -164 78l-293 74q-141 37 -223 86q-106 66 -106 119q41 317 368 317q369 0 369 -338l-102 -51q0 82 -267 82q-137 0 -202 -43q63 -39 192 -72l291 -74q252 -66 252 -200q0 -369 -399 -369h-267 q-399 0 -399 338zM184 369q0 -56 346 -62q-59 102 -223 103q-123 0 -123 -41z" />
<glyph d="M82 399v267q0 399 399 399h267q399 0 399 -399v-1024h-103v890q0 164 -430 164t-430 -164q0 -18 2 -34q96 35 254 34q348 0 348 -225q0 -307 -307 -307q-399 0 -399 399zM221 399q90 -133 332 -133q113 0 113 82t-226 82q-139 0 -219 -31z" />
<glyph d="M82 -358v757l102 52q0 -82 430 -82t430 163q0 164 -430 164t-430 -82l-102 52q0 399 399 399h267q399 0 399 -399v-267q0 -399 -399 -399h-267q-197 0 -297 98v-323q0 -164 430 -164v-369h-133q-399 0 -399 400z" />
<glyph horiz-adv-x="0" d="M-410 -246q0 205 205 205t205 -205t-205 -205t-205 205z" />
<glyph horiz-adv-x="266" d="M-502 -358l103 133q0 -164 241 -164q240 0 240 164v1290h102v-1423q0 -399 -342 -400q-344 0 -344 400z" />
<glyph horiz-adv-x="0" d="M-995 -432l194 194l125 -122l311 311l74 -74l-508 -506z" />
<glyph horiz-adv-x="0" d="M-102 -246q-1 205 204 205t205 -205t-205 -205t-204 205z" />
<glyph d="M82 -121l102 117q156 -57 430 -57q299 0 457 79l76 -36v-437q0 -303 -344 -303h-375q-346 0 -346 213t285 213h313v-164h-313q-182 0 -183 -49q0 -49 244 -49h375q242 0 241 139v262q-170 -94 -430 -94q-348 0 -532 166zM82 399v267q0 399 399 399h267q399 0 399 -399 l-103 -52q0 82 -430 82t-430 -164t430 -163q430 0 430 82l103 -52q0 -399 -399 -399h-267q-399 0 -399 399z" />
<glyph horiz-adv-x="0" d="M-842 -143h176v102h103v-348h-279v246z" />
</font>
</defs>
</svg>
