<?xml version="1.0" standalone="no"?>
<!DOCTYPE svg PUBLIC "-//W3C//DTD SVG 1.1//EN" "http://www.w3.org/Graphics/SVG/1.1/DTD/svg11.dtd" >
<svg xmlns="http://www.w3.org/2000/svg" xmlns:xlink="http://www.w3.org/1999/xlink" version="1.1">
<metadata></metadata>
<defs>
<font id="myanmar_kuttarregular" horiz-adv-x="1556" >
<font-face units-per-em="2048" ascent="1536" descent="-512" />
<missing-glyph horiz-adv-x="512" />
<glyph unicode="&#x103e;&#x102f;" horiz-adv-x="0" d="M-1311 -492h62q102 0 102 82v369h307v-491q0 -225 -204 -226h-267v266zM-717 -41h307v-369q0 -82 103 -82h61v-266h-266q-205 0 -205 226v491z" />
<glyph unicode="&#x1085;&#x1036;" horiz-adv-x="0" d="M-1389 1311q1 102 91 153q-90 51 -91 154q0 205 461 205q96 0 166 -15l-18 -182q-57 12 -148 12q-174 0 -174 -51t174 -51v-143q-174 0 -174 -52q0 -51 174 -51q90 0 148 13l18 -183q-70 -14 -166 -14q-461 0 -461 205zM-748 1464q0 267 291 267q289 0 289 -267 q0 -266 -289 -266q-291 0 -291 266zM-512 1464q0 -61 55 -61q54 0 54 61t-54 62q-55 0 -55 -62z" />
<glyph unicode="&#x1085;&#x102d;" horiz-adv-x="0" d="M-1442 1311q0 102 84 153q-84 51 -84 154q0 205 428 205q90 0 156 -15l-19 -182q-53 12 -137 12q-162 0 -162 -51t162 -51v-143q-162 0 -162 -52q0 -51 162 -51q84 0 137 13l19 -183q-66 -14 -156 -14q-428 0 -428 205zM-834 1464q0 305 254 359h211q256 -53 256 -359 q0 -305 -256 -358h-211q-254 53 -254 358zM-608 1464q0 -53 73 -90h121q76 37 76 90t-76 90h-121q-74 -37 -73 -90z" />
<glyph unicode="&#x1085;&#x102e;" horiz-adv-x="0" d="M-1442 1311q0 102 84 153q-84 51 -84 154q0 205 428 205q90 0 156 -15l-19 -182q-53 12 -137 12q-162 0 -162 -51t162 -51v-143q-162 0 -162 -52q0 -51 162 -51q84 0 137 13l19 -183q-66 -14 -156 -14q-428 0 -428 205zM-829 1464q0 305 254 359h208q254 -53 254 -359 q0 -305 -254 -358h-208q-254 53 -254 358zM-606 1479q63 6 135 6t135 -6q-6 102 -76 137h-118q-70 -35 -76 -137zM-596 1374q16 -78 66 -102h118q49 25 66 102q-55 8 -125 8t-125 -8z" />
<glyph unicode="&#x102d;&#x1036;" horiz-adv-x="0" d="M-1432 1464q0 305 277 359h231q279 -53 279 -359q0 -305 -279 -358h-231q-276 53 -277 358zM-1186 1464q0 -53 80 -90h133q82 37 82 90t-82 90h-133q-80 -37 -80 -90zM-598 1464q0 267 240 267q236 0 235 -267q0 -266 -235 -266q-240 0 -240 266zM-403 1464q0 -61 45 -61 q43 0 43 61t-43 62q-45 0 -45 -62z" />
<glyph unicode="&#x100d;&#x1039;&#x100d;" d="M82 240v159l309 103q25 -33 68 -45h606q102 35 102 155q0 123 -102 158h-606q-43 -14 -68 -45l-309 102q74 201 315 238h729q348 -51 349 -453q0 -399 -349 -452h-735q18 -59 135 -105h508q238 0 441 105v-570q0 -82 102 -82h61v-266h-266q-205 0 -205 226v413h-637 q-207 0 -327.5 71t-120.5 288zM82 -242q51 80 217 95h500q240 -20 239 -179q0 -158 -239 -178h-504q12 -25 92 -41h348q164 0 303 41v-76q0 -47 70 -61h43v-117h-84q-213 19 -238 144h-440q-141 0 -224 27.5t-83 113.5v63l213 41q16 -14 45 -18h418q70 14 69 61q0 47 -69 62 h-418q-29 -6 -45 -19z" />
<glyph unicode="&#x100e;&#x1039;&#x100d;" horiz-adv-x="1945" d="M82 410q0 197 289 307h-289v348h553v-348q-246 -184 -246 -266q0 -61 103 -103h710v58q-80 -37 -229 -37q-252 2 -322 73l37 72q96 -63 285 -65q197 0 287 67h34v-168h160q102 41 102 184t-102 185h-143v348h205q348 -61 348 -533q0 -471 -348 -532h-236v-410 q0 -82 102 -82h62v-266h-266q-205 0 -205 226v532h-543q-348 61 -348 410zM653 612l203 56q16 -10 49 -21h109q68 20 67 49q1 29 -67 47h-109q-33 -8 -49 -20l-203 57q47 88 211 109h191q229 -29 229 -193t-229 -192h-191q-164 20 -211 108z" />
<glyph unicode="&#x100f;&#x1039;&#x100d;" horiz-adv-x="2641" d="M82 532q0 471 348 533h512q104 -18 178 -74q61 74 201 74q139 0 201 -74q74 55 178 74h512q348 -61 348 -533q0 -395 -246 -501q-20 -276 -125 -277q-68 0 -67 -67v-150q0 -291 -316 -291l-565 -4l-59 269q100 37 100 90t-100 90h-262q-100 -37 -101 -90q0 -53 101 -90 l-60 -269q-340 53 -340 359q0 305 340 358h381q340 -53 340 -358q0 -59 -12 -109h137q117 0 117 86v109q0 272 276 272q23 0 35 41h-127v348h143q102 41 103 184q0 143 -103 185h-389q-102 -41 -102 -185q0 -143 102 -184q-61 -348 -440 -348t-440 348q102 41 102 184 t-102 185h-389q-102 -41 -103 -185q0 -143 103 -184h143v-348h-205q-348 61 -348 532zM1196 913q94 -135 94 -381q0 -188 -55 -311q10 -119 86 -119t86 119q-55 123 -55 311q0 246 94 381q-39 49 -125 50q-86 0 -125 -50z" />
<glyph unicode="&#x103e;&#x1030;" horiz-adv-x="0" d="M-1454 -492h61q102 0 103 82v369h307v-491q0 -225 -205 -226h-266v266zM-881 -41h205v-717h-205v717zM-573 -41h307v-369q0 -82 102 -82h62v-266h-267q-205 0 -204 226v491z" />
<glyph unicode="&#x102b;&#x103a;" horiz-adv-x="471" d="M-655 1208q0 471 348 533h348q117 -20 195 -88q78 68 194 88h348q348 -61 348 -533h-307q0 143 -102 185h-225q-102 -41 -103 -185v-1208h-307v1208q0 143 -102 185h-226q-102 -41 -102 -185h-307z" />
<glyph unicode="&#x103d;&#x1037;" horiz-adv-x="20" d="M-1270 -399q0 305 309 358h256q309 -53 310 -358q0 -305 -310 -359h-256q-309 53 -309 359zM-997 -399q0 -53 92 -90h145q92 37 92 90t-92 90h-145q-92 -37 -92 -90zM-350 -287q0 226 205 226t204 -226q0 -225 -204 -225q-205 0 -205 225zM-201 -287q0 -61 56 -61 q55 0 55 61t-55 62q-55 0 -56 -62z" />
<glyph unicode="&#xd;" horiz-adv-x="1040" />
<glyph unicode=" "  horiz-adv-x="512" />
<glyph unicode="&#x09;" horiz-adv-x="512" />
<glyph unicode="&#xa0;" horiz-adv-x="512" />
<glyph unicode="&#x1000;" horiz-adv-x="2641" d="M82 532q0 471 348 533h696q117 -20 195 -88q78 68 195 88h696q348 -61 348 -533q0 -471 -348 -532h-246v348h184q102 41 103 184q0 143 -103 185h-573q-102 -41 -102 -185q0 -471 -349 -532h-204v348h143q102 41 102 184t-102 185h-573q-102 -41 -103 -185 q0 -143 103 -184h143v-348h-205q-348 61 -348 532z" />
<glyph unicode="&#x1001;" d="M82 297q0 256 297 256h299q272 0 436 -174q53 51 53 153q0 143 -102 185h-606q-43 -16 -68 -53l-309 120q74 238 315 281h729q348 -61 349 -533q0 -471 -349 -532h-737q-307 61 -307 297zM414 399q0 -51 78 -51h534q-135 123 -348 123h-133q-131 0 -131 -72z" />
<glyph unicode="&#x1002;" d="M82 532q0 471 348 533h696q348 -61 349 -533q0 -471 -349 -532h-204v348h143q102 41 102 184t-102 185h-573q-102 -41 -103 -185q0 -143 103 -184h143v-348h-205q-348 61 -348 532z" />
<glyph unicode="&#x1003;" horiz-adv-x="2641" d="M82 410q0 197 289 307h-289v348h553v-348q-246 -184 -246 -266q0 -61 103 -103h573q102 41 102 184t-102 185h-143v348h204q348 -61 349 -533q0 -143 102 -184h573q102 41 103 184q0 143 -103 185h-184v348h246q348 -61 348 -533q0 -471 -348 -532h-696q-117 20 -195 88 q-78 -68 -195 -88h-696q-348 61 -348 410z" />
<glyph unicode="&#x1004;" d="M82 532q0 471 348 533h729q242 -43 316 -281l-310 -120q-25 37 -67 53h-606q-102 -41 -103 -185q0 -143 103 -184h606q43 16 67 53l310 -120q-74 -238 -316 -281h-729q-348 61 -348 532z" />
<glyph unicode="&#x1005;" d="M82 532q0 471 348 533h696q348 -61 349 -533q0 -471 -349 -532h-696q-348 61 -348 532zM389 532q0 -143 103 -184h98q25 80 24 184q1 105 -24 185h-98q-102 -41 -103 -185zM698 348h367q102 41 102 184t-102 185h-367q18 -82 19 -185q-1 -102 -19 -184z" />
<glyph unicode="&#x1006;" horiz-adv-x="2641" d="M82 297q0 256 297 256h299q272 0 436 -174q53 51 53 153q0 143 -102 185h-606q-43 -16 -68 -53l-309 120q74 238 315 281h729q117 -20 195 -88q78 68 195 88h696q348 -61 348 -533q0 -471 -348 -532h-696q-117 20 -195 88q-78 -68 -195 -88h-737q-307 61 -307 297z M414 399q0 -51 78 -51h534q-135 123 -348 123h-133q-131 0 -131 -72zM1475 532q0 -143 102 -184h573q102 41 103 184q0 143 -103 185h-573q-102 -41 -102 -185z" />
<glyph unicode="&#x1007;" horiz-adv-x="1558" d="M82 532q0 471 348 533h737q307 -61 308 -297q-1 -119 -64 -182q53 -39 148 -51l-13 -103q-156 20 -233 98q-57 -18 -135 -18h-299q-272 0 -437 174q-53 -51 -53 -154q0 -143 103 -184h606q43 16 67 53l310 -120q-74 -238 -316 -281h-729q-348 61 -348 532zM530 717 q135 -123 349 -123h133q131 0 131 72q0 51 -78 51h-535z" />
<glyph unicode="&#x1008;" horiz-adv-x="2027" d="M82 532q0 471 348 533h696q348 -61 349 -533q0 -471 -349 -532h-102v-225q0 -143 102 -185h410q102 41 102 185v1290h308v-1290q0 -471 -349 -533h-532q-348 61 -348 533v225h-287q-348 61 -348 532zM389 532q0 -143 103 -184h98q25 80 24 184q1 105 -24 185h-98 q-102 -41 -103 -185zM698 348h367q102 41 102 184t-102 185h-367q18 -82 19 -185q-1 -102 -19 -184z" />
<glyph unicode="&#x1009;" d="M82 -225v506l309 120q25 -37 68 -53h606q102 41 102 184t-102 185h-606q-43 -16 -68 -53l-309 120q74 238 315 281h729q348 -61 349 -533q0 -471 -349 -532h-729q-4 0 -8 2v-227q0 -143 103 -185h1044q102 41 102 185v143h308v-143q0 -471 -349 -533h-1167 q-348 61 -348 533z" />
<glyph unicode="&#x100a;" horiz-adv-x="2641" d="M82 -225v506l309 120q25 -37 68 -53h606q102 41 102 184t-102 185h-606q-43 -16 -68 -53l-309 120q74 238 315 281h729q348 -61 349 -533q0 -143 102 -184h573q102 41 103 184q0 143 -103 185h-184v348h246q348 -61 348 -533q0 -471 -348 -532h-696q-117 20 -195 88 q-78 -68 -195 -88h-729q-4 0 -8 2v-227q0 -143 103 -185h1658q102 41 103 185v143h307v-143q0 -471 -348 -533h-1782q-348 61 -348 533z" />
<glyph unicode="&#x100b;" d="M82 0q305 -123 440 -123h508q117 51 135 123h-735q-348 61 -348 532t348 533h729q242 -43 316 -281l-310 -120q-25 37 -67 53h-606q-102 -41 -103 -185q0 -143 103 -184h606q43 16 67 53l310 -120v-189q0 -152 -121 -234.5t-328 -82.5h-637v-123h741q193 14 345 131v-111 q0 -82 102 -82h61v-348h-122q-285 51 -336 307h-822l-276 109v342z" />
<glyph unicode="&#x100c;" d="M82 -399q0 317 348 317h387v-223h-325q-102 -33 -103 -94q0 -61 103 -93h573q102 41 102 185v309q-4 -2 -8 -2h-729q-348 61 -348 532t348 533h729q242 -43 316 -281l-310 -120q-25 37 -67 53h-606q-102 -41 -103 -185q0 -143 103 -184h606q43 16 67 53l310 -120v-588 q0 -389 -349 -451h-696q-348 47 -348 359z" />
<glyph unicode="&#x100d;" d="M82 92v189l309 120q25 -37 68 -53h606q102 41 102 184t-102 185h-606q-43 -16 -68 -53l-309 120q74 238 315 281h729q348 -61 349 -533q0 -471 -349 -532h-735q18 -72 135 -123h508q238 0 441 123v-225q0 -143 102 -185h61v-348h-122q-310 55 -345 430h-641 q-207 0 -327.5 83t-120.5 337z" />
<glyph unicode="&#x100e;" d="M82 410q0 197 289 307h-289v348h553v-348q-246 -184 -246 -266q0 -61 103 -103h573q102 41 102 184t-102 185h-143v348h204q348 -61 349 -533q0 -471 -349 -532h-696q-348 61 -348 410z" />
<glyph unicode="&#x100f;" horiz-adv-x="2641" d="M82 532q0 471 348 533h512q104 -18 178 -74q61 74 201 74q139 0 201 -74q74 55 178 74h512q348 -61 348 -533q0 -471 -348 -532h-205v348h143q102 41 103 184q0 143 -103 185h-389q-102 -41 -102 -185q0 -143 102 -184q-61 -348 -440 -348t-440 348q102 41 102 184 t-102 185h-389q-102 -41 -103 -185q0 -143 103 -184h143v-348h-205q-348 61 -348 532zM1196 913q94 -135 94 -381q0 -188 -55 -311q10 -119 86 -119t86 119q-55 123 -55 311q0 246 94 381q-39 49 -125 50q-86 0 -125 -50z" />
<glyph unicode="&#x1010;" horiz-adv-x="2641" d="M82 532q0 471 348 533h696q117 -20 195 -88q78 68 195 88h696q348 -61 348 -533q0 -471 -348 -532h-246v348h184q102 41 103 184q0 143 -103 185h-573q-102 -42 -102 -185q0 -471 -349 -532h-696q-348 61 -348 532zM389 532q0 -143 103 -184h573q102 41 102 184t-102 185 h-573q-102 -41 -103 -185z" />
<glyph unicode="&#x1011;" horiz-adv-x="2641" d="M82 532q0 471 348 533h696q117 -20 195 -88q78 68 195 88h696q348 -61 348 -533q0 -471 -348 -532h-696q-117 20 -195 88q-78 -68 -195 -88h-696q-348 61 -348 532zM389 532q0 -143 103 -184h573q102 41 102 184t-102 185h-573q-102 -41 -103 -185zM1475 532 q0 -143 102 -184h573q102 41 103 184q0 143 -103 185h-573q-102 -41 -102 -185z" />
<glyph unicode="&#x1012;" d="M82 281l309 120q25 -37 68 -53h606q102 0 102 41t-245 103v81q246 61 245 103q0 41 -102 41h-606q-43 -16 -68 -53l-309 120q74 238 315 281h729q348 0 349 -246q0 -188 -326 -287q326 -98 326 -286q0 -246 -349 -246h-729q-242 43 -315 281z" />
<glyph unicode="&#x1013;" d="M82 532q0 471 348 533h696q348 -61 349 -533q0 -471 -349 -532h-696q-348 61 -348 532zM389 532q0 -20 2 -36q156 57 387 57t387 -57q2 16 2 36q0 143 -102 185h-573q-102 -41 -103 -185zM432 389q23 -27 60 -41h573q37 14 59 41q-131 61 -346 62q-215 -1 -346 -62z" />
<glyph unicode="&#x1014;" d="M82 297q0 256 289 256q287 0 409 -205h285q45 18 72 58l-631 208q-221 74 -221 150v10q61 244 329 291h361q242 -43 315 -281l-309 -120q-25 37 -68 53h-237q-51 -20 -78 -47l657 -211q219 -72 220 -146q-55 -268 -349 -313h-98v-758h-307v758h-332q-307 61 -307 297z M414 399q0 -51 78 -51h172q-72 102 -211 103q-39 0 -39 -52z" />
<glyph unicode="&#x1015;" d="M82 532q0 471 348 533h205v-348h-143q-102 -41 -103 -185q0 -143 103 -184h573q102 41 102 184t-102 185h-143v348h204q348 -61 349 -533q0 -471 -349 -532h-696q-348 61 -348 532z" />
<glyph unicode="&#x1016;" d="M82 532q0 471 348 533h205v-348h-143q-102 -41 -103 -185q0 -143 103 -184h366q-18 82 -18 184v103q0 430 143 430h143q348 -61 349 -533q0 -471 -349 -532h-696q-348 61 -348 532zM942 532q0 -104 25 -184h98q102 41 102 184t-102 185h-98q-25 -81 -25 -185z" />
<glyph unicode="&#x1017;" d="M82 532q0 471 348 533h205v-326q57 -16 143 -16t144 16v326h204q348 -61 349 -533q0 -471 -349 -532h-696q-348 61 -348 532zM389 532q0 -143 103 -184h573q102 41 102 184q0 111 -61 160q-106 -72 -328 -71q-221 -1 -327 71q-61 -49 -62 -160z" />
<glyph unicode="&#x1018;" horiz-adv-x="2641" d="M82 281l309 120q25 -37 68 -53h606q102 41 102 184t-102 185h-606q-43 -16 -68 -53l-309 120q74 238 315 281h729q117 -20 195 -88q78 68 195 88h696q348 -61 348 -533q0 -471 -348 -532h-246v348h184q102 41 103 184q0 143 -103 185h-573q-102 -42 -102 -185 q0 -471 -349 -532h-729q-242 43 -315 281z" />
<glyph unicode="&#x1019;" d="M82 532q0 471 348 533h205v-348h-143q-102 -41 -103 -185q0 -20 2 -36q156 57 387 57t387 -57q2 16 2 36q0 143 -102 185h-143v348h204q348 -61 349 -533q0 -471 -349 -532h-696q-348 61 -348 532zM432 389q23 -27 60 -41h573q37 14 59 41q-131 61 -346 62 q-215 -1 -346 -62z" />
<glyph unicode="&#x101a;" horiz-adv-x="2641" d="M82 532q0 471 348 533h205v-348h-143q-102 -41 -103 -185q0 -143 103 -184h573q102 41 102 184t-102 185h-143v348h204q348 -61 349 -533q0 -143 102 -184h573q102 41 103 184q0 143 -103 185h-184v348h246q348 -61 348 -533q0 -471 -348 -532h-696q-117 20 -195 88 q-78 -68 -195 -88h-696q-348 61 -348 532z" />
<glyph unicode="&#x101b;" d="M82 532q0 471 348 533h696q348 -61 349 -533v-757q0 -143 102 -185h61v-348h-122q-309 55 -349 430v860q0 143 -102 185h-573q-102 -41 -103 -185q0 -102 53 -153q82 174 252 174h115q236 0 235 -256q0 -236 -307 -297h-307q-348 61 -348 532zM530 348h125q119 0 119 51 q0 72 -80 72q-111 0 -164 -123z" />
<glyph unicode="&#x101c;" horiz-adv-x="2641" d="M82 532q0 471 348 533h696q349 -62 349 -533q0 -143 102 -184h573q102 41 103 184q0 143 -103 185h-389v348h451q348 -61 348 -533q0 -471 -348 -532h-696q-348 61 -349 532q0 143 -102 185h-573q-102 -41 -103 -185q0 -143 103 -184h389v-348h-451q-348 61 -348 532z " />
<glyph unicode="&#x101d;" d="M82 532q0 471 348 533h696q348 -61 349 -533q0 -471 -349 -532h-696q-348 61 -348 532zM389 532q0 -143 103 -184h573q102 41 102 184t-102 185h-573q-102 -41 -103 -185z" />
<glyph unicode="&#x101e;" horiz-adv-x="2641" d="M82 281l309 120q25 -37 68 -53h606q102 41 102 184t-102 185h-606q-43 -16 -68 -53l-309 120q74 238 315 281h729q348 -61 349 -533q0 -143 102 -184h573q102 41 103 184q0 143 -103 185h-184v348h246q348 -61 348 -533q0 -471 -348 -532h-696q-117 20 -195 88 q-78 -68 -195 -88h-729q-242 43 -315 281z" />
<glyph unicode="&#x101f;" horiz-adv-x="2641" d="M82 532q0 471 348 533h205v-348h-143q-102 -41 -103 -185q0 -143 103 -184h573q102 41 102 184t-102 185h-143v348h204q117 -20 195 -88q78 68 195 88h696q348 -61 348 -533q0 -471 -348 -532h-246v348h184q102 41 103 184q0 143 -103 185h-573q-102 -42 -102 -185 q0 -471 -349 -532h-696q-348 61 -348 532z" />
<glyph unicode="&#x1020;" d="M82 0q305 -123 440 -123h508q117 51 135 123h-735q-348 61 -348 532t348 533h729q242 -43 316 -281l-310 -120q-25 37 -67 53h-606q-102 -41 -103 -185q0 -143 103 -184h606q43 16 67 53l310 -120v-189q0 -152 -121 -234.5t-328 -82.5h-637q0 -143 103 -185h573 q102 41 102 123h308q0 -410 -349 -471h-696q-342 61 -348 518v240z" />
<glyph unicode="&#x1021;" horiz-adv-x="2641" d="M82 281l309 120q25 -37 68 -53h606q102 0 102 41t-245 103v81q246 61 245 103q0 41 -102 41h-606q-43 -16 -68 -53l-309 120q74 238 315 281h729q158 0 246 -51q61 37 144 51h696q348 -62 348 -533t-348 -532h-307q-307 61 -308 297q0 256 236 256h115q170 0 252 -174 q53 51 53 153q0 143 -103 185h-634q-55 -14 -103 -45q-82 -84 -264 -140q326 -98 326 -286q0 -246 -349 -246h-729q-242 43 -315 281zM1868 399q0 -51 119 -51h124q-53 123 -163 123q-80 0 -80 -72z" />
<glyph unicode="&#x1022;" horiz-adv-x="2641" d="M82 0v348h289q-289 111 -289 307q0 348 348 410h696q117 -20 195 -88q78 68 195 88h696q348 -61 348 -533q0 -471 -348 -532h-246v348h184q102 41 103 184q0 143 -103 185h-573q-102 -41 -102 -185q0 -471 -349 -532h-204v348h143q102 41 102 184t-102 185h-573 q-102 -41 -103 -103q0 -82 246 -266v-348h-553z" />
<glyph unicode="&#x1023;" horiz-adv-x="2641" d="M82 532q0 471 348 533h696q117 -20 195 -88q78 68 195 88h696q348 -61 348 -533q0 -471 -348 -532h-246v348h184q102 41 103 184q0 143 -103 185h-573q-102 -41 -102 -185q0 -471 -349 -532h-204v348h143q102 41 102 184t-102 185h-573q-102 -41 -103 -185 q0 -143 103 -184h143v-348h-205q-348 61 -348 532zM266 -399q0 311 348 358h512q117 -16 195 -68q78 51 195 68h491q348 -47 348 -358q0 -52 -8 -95h152v-264h-738v264h185q102 33 102 95q0 61 -102 94h-369q-102 -33 -102 -94q0 -311 -349 -359h-163v264h102q102 33 102 95 q0 61 -102 94h-389q-102 -33 -103 -94q0 -61 103 -95h102v-264h-164q-348 47 -348 359z" />
<glyph unicode="&#x1024;" horiz-adv-x="3112" d="M82 -399q0 317 348 317h1618v-223h-1556q-102 -33 -103 -94q0 -61 103 -93h1658q102 41 103 185v839q0 143 -103 185h-573q-102 -41 -102 -185q0 -471 -349 -532h-204v348h143q102 41 102 184t-102 185h-573q-102 -41 -103 -185q0 -143 103 -184h143v-348h-205 q-348 61 -348 532t348 533h696q117 -20 195 -88q78 68 195 88h696q348 -61 348 -533v-839q0 -389 -348 -451h-1782q-348 47 -348 359zM1679 1464q0 305 349 359h286q252 -39 322 -211l-299 -105q-25 27 -84 47h-164q-102 -37 -102 -90t102 -92h205q737 0 737 -840v-1290 h-307v1290q0 573 -430 574h-266q-348 53 -349 358z" />
<glyph unicode="&#x1025;" d="M82 281l309 120q25 -37 68 -53h606q102 41 102 184t-102 185h-606q-43 -16 -68 -53l-309 120q74 238 315 281h729q348 -61 349 -533q0 -471 -349 -532h-729q-4 0 -8 2v-309q0 -143 103 -185h573q102 31 102 93q0 61 -102 94h-326v223h387q348 0 349 -317 q0 -311 -349 -359h-696q-348 61 -348 451v588z" />
<glyph unicode="&#x1026;" d="M82 281l309 120q25 -37 68 -53h606q102 41 102 184t-102 185h-606q-43 -16 -68 -53l-309 120q74 238 315 281h729q348 -61 349 -533q0 -471 -349 -532h-729q-4 0 -8 2v-309q0 -143 103 -185h573q102 31 102 93q0 61 -102 94h-326v223h387q348 0 349 -317 q0 -311 -349 -359h-696q-348 61 -348 451v588zM287 1464q0 305 348 359h287q348 -53 348 -359q0 -305 -348 -358h-287q-348 53 -348 358zM594 1479q86 6 184 6q99 0 185 -6q-6 102 -103 137h-164q-96 -35 -102 -137zM606 1374q23 -78 90 -102h164q68 25 90 102q-76 8 -172 8 t-172 -8z" />
<glyph unicode="&#x1027;" d="M82 532q0 475 348 533h737q307 -57 308 -281q0 -203 -297 -202h-299q-272 0 -437 125q-53 -50 -53 -175t53 -174q164 125 437 125h299q297 0 297 -202q0 -223 -308 -281h-737q-348 57 -348 532zM530 330h535q78 0 78 47q0 31 -131 31h-133q-213 0 -349 -78zM530 735 q135 -78 349 -78h133q131 0 131 31q0 47 -78 47h-535z" />
<glyph unicode="&#x1028;" d="M82 -225v757q0 471 348 533h696q348 -61 349 -533v-204q0 -328 -443 -328q-362 0 -362 264v47l82 39q129 57 129 121q0 82 -101 82q-104 0 -104 -98h-103q0 201 207 200q203 0 203 -184q0 -92 -109 -160v-47q0 -59 158 -59q135 0 135 123v204q0 143 -102 185h-573 q-102 -41 -103 -185v-757q0 -143 103 -185h573q102 41 102 185v143h308v-143q0 -471 -349 -533h-696q-348 61 -348 533z" />
<glyph unicode="&#x1029;" horiz-adv-x="3112" d="M82 -225v1515q0 471 348 533h1700v-348h-1638q-102 -41 -103 -185v-1515q0 -143 103 -185h1638q102 41 102 185v225h-245q-117 20 -195 88q-78 -68 -195 -88h-729q-242 43 -315 281l309 120q25 -37 68 -53h606q102 41 102 184t-102 185h-606q-43 -16 -68 -53l-309 120 q74 238 315 281h729q348 -61 349 -533q0 -143 102 -184h573q102 41 103 184q0 143 -103 185h-184v348h246q348 -61 348 -533q0 -471 -348 -532h-143v-225q0 -471 -349 -533h-1761q-348 61 -348 533z" />
<glyph unicode="&#x102a;" horiz-adv-x="5754" d="M82 532q0 471 348 533h729q242 -43 316 -281l-310 -120q-25 37 -67 53h-606q-102 -41 -103 -185q0 -102 53 -153q164 174 437 174h299q297 0 297 -256q0 -236 -308 -297h-737q-348 61 -348 532zM530 348h535q78 0 78 51q0 72 -131 72h-133q-213 0 -349 -123zM1638 -225 v1515q0 471 349 533h2314v-348h-2253q-102 -41 -102 -185v-1515q0 -143 102 -185h1638q102 41 103 185v225h-246q-117 20 -195 88q-78 -68 -194 -88h-729q-242 43 -316 281l310 120q25 -37 67 -53h606q102 41 103 184q0 143 -103 185h-606q-43 -16 -67 -53l-310 120 q74 238 316 281h729q348 -61 348 -533q0 -143 102 -184h574q102 41 102 184t-102 185h-184v348h245q117 -20 195 -88q78 68 194 88h697q348 -61 348 -533q0 -471 -348 -532h-246v348h184q102 41 103 184q0 143 -103 185h-573q-102 -42 -102 -185q0 -471 -349 -532h-143v-225 q0 -471 -348 -533h-1761q-348 61 -349 533zM4485 1464q0 305 348 359h287q348 -53 348 -359h-307q0 53 -102 90h-164q-102 -37 -103 -90q0 -53 103 -90h164v-268h-226q-348 53 -348 358z" />
<glyph unicode="&#x102b;" horiz-adv-x="471" d="M-655 1208q0 471 348 533h348q348 -61 348 -533v-1208h-307v1208q0 143 -102 185h-226q-102 -41 -102 -185h-307z" />
<glyph unicode="&#x102c;" horiz-adv-x="1085" d="M-389 532q0 471 348 533h696q348 -61 349 -533q0 -471 -349 -532h-245v348h184q102 41 102 184t-102 185h-574q-102 -41 -102 -185h-307z" />
<glyph unicode="&#x102d;" horiz-adv-x="0" d="M-1270 1464q0 305 348 359h287q348 -53 348 -359q0 -305 -348 -358h-287q-348 53 -348 358zM-963 1464q0 -53 103 -90h164q102 37 102 90t-102 90h-164q-102 -37 -103 -90z" />
<glyph unicode="&#x102e;" horiz-adv-x="0" d="M-1270 1464q0 305 348 359h287q348 -53 348 -359q0 -305 -348 -358h-287q-348 53 -348 358zM-963 1479q86 6 185 6q98 0 184 -6q-6 102 -102 137h-164q-96 -35 -103 -137zM-950 1374q23 -78 90 -102h164q68 25 90 102q-76 8 -172 8t-172 -8z" />
<glyph unicode="&#x102f;" horiz-adv-x="0" d="M-932 -41h307v-369q0 -82 103 -82h61v-266h-266q-205 0 -205 226v491z" />
<glyph unicode="&#x1030;" horiz-adv-x="0" d="M-1126 -41h307v-717h-307v717zM-737 -41h307v-369q0 -82 102 -82h62v-266h-266q-205 0 -205 226v491z" />
<glyph unicode="&#x1031;" d="M82 532q0 471 348 533h729q242 -43 316 -281l-310 -120q-25 37 -67 53h-606q-102 -41 -103 -185q0 -102 53 -153q164 174 437 174h299q297 0 297 -256q0 -236 -308 -297h-737q-348 61 -348 532zM530 348h535q78 0 78 51q0 72 -131 72h-133q-213 0 -349 -123z" />
<glyph unicode="&#x1032;" horiz-adv-x="0" d="M-1149 1602l217 217l522 -523l-217 -217z" />
<glyph unicode="&#x1033;" horiz-adv-x="0" d="M-1270 1464q0 305 348 359h287q348 -53 348 -359q0 -305 -348 -358h-287q-348 53 -348 358zM-952 1464q0 -174 174 -174t174 174t-174 174t-174 -174zM-911 1464q0 133 133 133t133 -133t-133 -133t-133 133zM-809 1464q0 -31 31 -30q30 -1 30 30t-30 31q-31 0 -31 -31z " />
<glyph unicode="&#x1034;" horiz-adv-x="0" d="M-1149 1296l522 523l217 -217l-522 -523z" />
<glyph unicode="&#x1035;" horiz-adv-x="0" d="M-1241 1464q0 305 348 359h287q207 -31 291 -152l-299 -141q-23 12 -54 24h-163q-102 -37 -103 -90v-2q139 23 318 23q172 0 236.5 -54.5t64.5 -101.5q-43 -193 -291 -223h-287q-348 53 -348 358zM-899 1356q25 -29 68 -43h163q74 12 74 41t-84 28q-108 1 -221 -26z" />
<glyph unicode="&#x1036;" horiz-adv-x="0" d="M-1106 1372q0 266 328 266t327 -266q0 -266 -327 -266q-328 0 -328 266zM-840 1372q0 -61 62 -61q61 0 61 61t-61 62q-61 0 -62 -62z" />
<glyph unicode="&#x1037;" horiz-adv-x="0" d="M-1106 -328q0 287 328 287t327 -287q0 -287 -327 -286q-328 0 -328 286zM-840 -328q0 -61 62 -61q61 0 61 61t-61 62q-61 0 -62 -62z" />
<glyph unicode="&#x1038;" horiz-adv-x="819" d="M82 225q0 226 328 226t327 -226q0 -225 -327 -225q-328 0 -328 225zM82 840q0 225 328 225t327 -225q0 -225 -327 -226q-328 0 -328 226zM348 225q0 -61 62 -61q61 0 61 61t-61 62q-61 0 -62 -62zM348 840q0 -61 62 -62q61 1 61 62t-61 61t-62 -61z" />
<glyph unicode="&#x1039;" horiz-adv-x="0" d="M-850 -225h184v184h103v-184h184v-103h-184v-184h-103v184h-184v103z" />
<glyph unicode="&#x103a;" horiz-adv-x="0" d="M-1270 1464q0 305 348 359h287q348 -53 348 -359h-307q0 53 -102 90h-164q-102 -37 -103 -90q0 -53 103 -90h164v-268h-226q-348 53 -348 358z" />
<glyph unicode="&#x103b;" horiz-adv-x="471" d="M-512 -41h307v-184q0 -143 103 -185h82q102 41 102 185v1290h307v-1290q0 -471 -348 -533h-205q-348 61 -348 533v184z" />
<glyph unicode="&#x103c;" horiz-adv-x="471" d="M82 -225v1515q0 471 348 533h1167q348 -61 349 -533v-184h-308v184q0 143 -102 185h-1044q-102 -41 -103 -185v-1515q0 -143 103 -185h1044q102 41 102 185v430h308v-430q0 -471 -349 -533h-1167q-348 61 -348 533z" />
<glyph unicode="&#x103d;" horiz-adv-x="0" d="M-1270 -399q0 305 348 358h287q348 -53 348 -358t-348 -359h-287q-348 53 -348 359zM-963 -399q0 -53 103 -90h164q102 37 102 90t-102 90h-164q-102 -37 -103 -90z" />
<glyph unicode="&#x103e;" horiz-adv-x="0" d="M-1096 -492h62q102 0 102 82v369h307v-491q0 -225 -204 -226h-267v266z" />
<glyph unicode="&#x103f;" horiz-adv-x="3727" d="M82 281l309 120q25 -37 68 -53h606q102 41 102 184t-102 185h-606q-43 -16 -68 -53l-309 120q74 238 315 281h729q348 -61 349 -533q0 -143 102 -184h573q102 41 103 184q0 143 -103 185h-184v348h246q348 -61 348 -533q0 -143 102 -184h574q102 41 102 184t-102 185 h-184v348h245q348 -61 348 -533q0 -471 -348 -532h-696q-117 20 -195 88q-78 -68 -194 -88h-696q-117 20 -195 88q-78 -68 -195 -88h-729q-242 43 -315 281z" />
<glyph unicode="&#x1040;" d="M82 532q0 471 348 533h696q348 -61 349 -533q0 -471 -349 -532h-696q-348 61 -348 532zM389 532q0 -143 103 -184h573q102 41 102 184t-102 185h-573q-102 -41 -103 -185z" />
<glyph unicode="&#x1041;" d="M82 281l309 120q25 -37 68 -53h606q102 41 102 184t-102 185h-606q-43 -16 -68 -53l-309 120q74 238 315 281h729q348 -61 349 -533q0 -471 -349 -532h-729q-242 43 -315 281z" />
<glyph unicode="&#x1042;" d="M82 -82h307q0 -143 103 -184h573q102 41 102 184v1147h308v-1147q0 -471 -349 -532h-696q-348 61 -348 532z" />
<glyph unicode="&#x1043;" d="M82 281l309 120q25 -37 68 -53h606q102 41 102 184t-102 185h-606q-43 -16 -68 -53l-309 120q74 238 315 281h729q348 -61 349 -533q0 -471 -349 -532h-313l336 -336l-217 -217l-522 522l30 31h-43q-242 43 -315 281z" />
<glyph unicode="&#x1044;" d="M82 532q0 471 348 533h729q242 -43 316 -281l-310 -120q-25 37 -67 53h-606q-102 -41 -103 -185q0 -143 103 -184h606q43 16 67 53l310 -120q-74 -238 -316 -281h-43l31 -31l-522 -522l-217 217l335 336h-313q-348 61 -348 532z" />
<glyph unicode="&#x1045;" d="M82 -82h307q0 -143 103 -184h573q102 41 102 184v614q0 143 -102 185h-573q-102 -41 -103 -185q0 -102 53 -153q82 174 252 174h115q236 0 235 -256q0 -236 -307 -297h-307q-348 61 -348 532t348 533h696q348 -61 349 -533v-614q0 -471 -349 -532h-696q-348 61 -348 532z M530 348h125q119 0 119 51q0 72 -80 72q-111 0 -164 -123z" />
<glyph unicode="&#x1046;" d="M82 532v615q0 471 348 532h696q348 -61 349 -532h-308q0 143 -102 184h-573q-102 -41 -103 -184v-615q0 -143 103 -184h573q102 41 102 184v39q-393 88 -393 267q0 199 336 198q365 0 365 -235h-308q0 51 -63 51t-64 -76q0 -125 435 -153v-91q0 -471 -349 -532h-696 q-348 61 -348 532z" />
<glyph unicode="&#x1047;" d="M82 594q0 410 348 471h696q348 -61 349 -533q0 -442 -363 -595l-430 -183q18 -92 96 -123h41q102 0 103 123h307q0 -410 -348 -471h-164q-348 61 -348 533q0 141 155 207l469 198q174 73 174 311q0 143 -102 185h-573q-102 -41 -103 -123q0 -82 103 -123l-62 -348 q-348 61 -348 471z" />
<glyph unicode="&#x1048;" d="M82 532q0 471 348 533h696q348 -61 349 -533q0 -471 -349 -532h-204v348h143q102 41 102 184t-102 185h-367q18 -82 19 -185v-102q0 -430 -144 -430h-143q-348 61 -348 532zM389 532q0 -143 103 -184h98q24 80 24 184t-24 185h-98q-102 -41 -103 -185z" />
<glyph unicode="&#x1049;" d="M82 -82v614q0 471 348 533h696q348 -61 349 -533v-90q-434 -29 -435 -153q0 -76 64 -76q63 0 63 51h308q0 -236 -365 -235q-336 0 -336 198q0 178 393 267v38q0 143 -102 185h-573q-102 -41 -103 -185v-614q0 -143 103 -184h573q102 41 102 184h308q0 -471 -349 -532 h-696q-348 61 -348 532z" />
<glyph unicode="&#x104a;" horiz-adv-x="471" d="M82 0v1065h307v-1065h-307z" />
<glyph unicode="&#x104b;" horiz-adv-x="880" d="M82 0v1065h307v-1065h-307zM492 0v1065h307v-1065h-307z" />
<glyph unicode="&#x104c;" d="M82 92v189l309 120q25 -37 68 -53h606q102 41 102 184t-102 185h-606q-43 -16 -68 -53l-309 120q74 238 315 281h729q348 -61 349 -533q0 -471 -349 -532h-735q18 -72 135 -123h508q238 0 441 123v-307q0 -389 -349 -451h-696q-348 47 -348 359h307q0 -61 103 -93h573 q94 39 102 164h-637q-207 0 -327.5 83t-120.5 337zM287 1464q0 305 348 359h287q348 -53 348 -359h-307q0 53 -103 90h-164q-102 -37 -102 -90t102 -90h164v-268h-225q-348 53 -348 358z" />
<glyph unicode="&#x104d;" horiz-adv-x="2027" d="M82 -399q0 317 348 317h594v-223h-532q-102 -33 -103 -94q0 -61 103 -93h1044q102 41 102 185v839q0 573 -348 574h-184q-348 53 -348 358t348 359h287q252 -39 321 -211l-299 -105q-25 27 -84 47h-164q-102 -37 -102 -90t102 -92h123q655 0 656 -840v-839 q0 -389 -349 -451h-1167q-348 47 -348 359zM82 532q0 471 348 533h696q348 -61 349 -533v-942h-308v942q0 143 -102 185h-573q-102 -41 -103 -185q0 -102 53 -153q82 174 252 174h115q236 0 235 -256q0 -236 -307 -297h-307q-348 61 -348 532zM530 348h125q119 0 119 51 q0 72 -80 72q-111 0 -164 -123z" />
<glyph unicode="&#x104e;" d="M82 532q0 471 348 533h729q242 -43 316 -281l-310 -120q-25 37 -67 53h-606q-102 -41 -103 -185q0 -143 103 -184h606q43 16 67 53l310 -120v-1039h-308v760q-4 -2 -8 -2h-729q-348 61 -348 532z" />
<glyph unicode="&#x104f;" horiz-adv-x="2498" d="M82 532q0 475 348 533h737q66 -13 117 -33q49 23 109 33h204q348 -61 349 -533v-532h-308v532q0 143 -102 185h-72q-45 -135 -286 -135h-299q-272 0 -437 125q-53 -49 -53 -175q0 -125 53 -174q164 125 437 125h299q297 0 297 -202q0 -223 -308 -281h-737 q-348 57 -348 532zM530 330h535q78 0 78 47q0 31 -131 31h-133q-213 0 -349 -78zM530 735q135 -78 349 -78h133q131 0 131 31q0 47 -78 47h-535zM1229 1464q0 305 348 359h287q252 -39 321 -211l-299 -105q-25 27 -84 47h-164q-102 -37 -102 -90t102 -92h123q655 0 656 -840 v-528h-308v528q0 573 -348 574h-184q-348 53 -348 358z" />
<glyph unicode="&#x1050;" d="M82 532q0 471 348 533h696q348 -61 349 -533q0 -471 -349 -532h-204v348h143q102 41 102 184t-102 185h-573q-102 -41 -103 -185q0 -143 103 -184h143v-348h-205q-348 61 -348 532zM676 532q0 103 102 103t103 -103q0 -102 -103 -102q-102 0 -102 102z" />
<glyph unicode="&#x1051;" d="M82 532q0 471 348 533h205v-348h-143q-102 -41 -103 -185q0 -143 103 -184h573q102 41 102 184t-102 185h-143v348h204q348 -61 349 -533q0 -471 -349 -532h-696q-348 61 -348 532zM676 532q0 102 102 103q102 0 103 -103q0 -102 -103 -102q-102 0 -102 102z" />
<glyph unicode="&#x1052;" d="M82 532q0 471 348 533h205v-348h-143q-102 -41 -103 -185q0 -143 103 -184h573q102 41 102 103q0 82 -245 266v348h553v-348h-289q289 -111 289 -307q0 -348 -349 -410h-696q-348 61 -348 532z" />
<glyph unicode="&#x1053;" d="M82 410q0 197 289 307h-289v348h553v-348q-246 -184 -246 -266q0 -61 103 -103h573q102 41 102 103q0 82 -245 266v348h553v-348h-289q289 -111 289 -307q0 -348 -349 -410h-696q-348 61 -348 410z" />
<glyph unicode="&#x1054;" d="M82 532q0 471 348 533h737q307 -61 308 -297q0 -256 -297 -256h-299q-272 0 -437 174q-53 -52 -53 -154q0 -143 103 -184h606q43 16 67 53l310 -120q-74 -238 -316 -281h-729q-348 61 -348 532zM530 717q135 -123 349 -123h133q131 0 131 72q0 51 -78 51h-535z" />
<glyph unicode="&#x1055;" d="M82 532q0 471 348 533h737q307 -61 308 -297q0 -256 -297 -256h-299q-272 0 -437 174q-53 -51 -53 -154q0 -287 160 -286q96 0 176 184h106q80 -184 177 -184q135 0 135 164h332q0 -410 -322 -410q-246 0 -375 264q-129 -264 -375 -264q-322 0 -321 532zM530 717 q135 -123 349 -123h133q131 0 131 72q0 51 -78 51h-535z" />
<glyph unicode="&#x1056;" horiz-adv-x="1085" d="M-389 532h307q0 -143 102 -184h574q102 41 102 103q0 82 -245 266v348h553v-348h-289q289 -111 289 -307q0 -348 -349 -410h-696q-348 61 -348 532z" />
<glyph unicode="&#x1057;" horiz-adv-x="1085" d="M-389 532h307q0 -287 160 -286q96 0 176 184h106q80 -184 177 -184q135 0 135 164q0 123 -221 307v348h553v-348h-289q289 -111 289 -307q0 -410 -322 -410q-246 0 -375 264q-129 -264 -375 -264q-322 0 -321 532z" />
<glyph unicode="&#x1058;" horiz-adv-x="0" d="M-1241 -399q0 305 348 358h287q248 -31 291 -223q0 -47 -64.5 -101.5t-236.5 -54.5q-178 0 -318 23v-2q0 -53 103 -90h163q31 12 54 24l299 -141q-84 -121 -291 -152h-287q-348 53 -348 359zM-899 -291q112 -26 221 -26q84 0 84 28q0 29 -74 41h-163q-43 -14 -68 -43z " />
<glyph unicode="&#x1059;" horiz-adv-x="0" d="M-1241 -406q0 311 348 365h287q248 -31 291 -223q0 -47 -64.5 -101.5t-236.5 -54.5q-179 0 -318 23q-10 2 -16 2q-25 0 -25 -21q0 -184 45 -184q43 0 117 119h70q74 -119 116 -119q49 0 49 104h263q0 -262 -213 -262q-164 0 -250 170q-86 -170 -250 -170q-213 0 -213 352 zM-899 -291q112 -26 221 -26q84 0 84 28q0 29 -74 41h-163q-43 -14 -68 -43z" />
<glyph unicode="&#x105a;" d="M82 532q0 471 348 533h729q242 -43 316 -281l-310 -120q-25 37 -67 53h-606q-102 -41 -103 -185q0 -143 103 -184h606q43 16 67 53l310 -120q-74 -238 -316 -281h-729q-348 61 -348 532zM440 -256q0 215 338 215t338 -215q0 -129 -143.5 -194.5t-143.5 -104.5 q0 -59 52 -59h67v-144h-67q-297 0 -297 203q0 102 143 161.5t143 137.5q0 72 -92 72t-92 -72h-246z" />
<glyph unicode="&#x105b;" horiz-adv-x="2027" d="M82 532q0 471 348 533h737q307 -61 308 -297q0 -119 -64 -182q47 -35 227 -49v528h308v-1290q0 -471 -349 -533h-532q-348 61 -348 533v225h-287q-348 61 -348 532zM389 532q0 -143 103 -184h606q43 16 67 53l310 -120q-74 -238 -316 -281h-135v-225q0 -143 102 -185h410 q102 41 102 185v659q-252 23 -325 96q-57 -18 -135 -18h-299q-272 0 -437 174q-53 -51 -53 -154zM530 717q135 -123 349 -123h133q131 0 131 72q0 51 -78 51h-535z" />
<glyph unicode="&#x105c;" d="M82 532q0 471 348 533h696q348 -61 349 -533q0 -471 -349 -532h-696q-348 61 -348 532zM389 532q0 -143 103 -184h573q102 41 102 184t-102 185h-573q-102 -41 -103 -185zM573 532q0 154 205 154t205 -154t-205 -153q-205 0 -205 153zM727 532q0 -39 51 -38q51 -1 51 38 t-51 39t-51 -39z" />
<glyph unicode="&#x105d;" d="M82 -399q0 317 348 317h490v-223h-428q-102 -33 -103 -94q0 -61 103 -93h573q102 41 102 185v127q0 114 -47 180h-690q-348 61 -348 532t348 533h205v-348h-143q-102 -41 -103 -185q0 -20 2 -36q156 57 387 57t387 -57q2 16 2 36q0 143 -102 185h-143v348h204 q348 -61 349 -533q0 -274 -119 -409q119 -88 119 -303v-127q0 -389 -349 -451h-696q-348 47 -348 359zM432 389q23 -27 60 -41h573q37 14 59 41q-131 61 -346 62q-215 -1 -346 -62z" />
<glyph unicode="&#x105e;" horiz-adv-x="0" d="M-1475 -399q0 317 349 317h727q-12 47 -37 82l235 123q90 -66 111 -205h192v-223h-184v-2q0 -389 -348 -451h-696q-348 47 -349 359zM-1167 -399q0 -61 102 -93h573q102 41 103 185v2h-676q-102 -33 -102 -94z" />
<glyph unicode="&#x105f;" horiz-adv-x="0" d="M-1198 -395q0 295 457 323v72l311 -2v-268l-287 2q-174 0 -174 -127t113 -127t112 137h308q0 -342 -420 -342t-420 332z" />
<glyph unicode="&#x1060;" horiz-adv-x="0" d="M-1135 -530l359 436l244 -125l-148 -191h258v-204h-670z" />
<glyph unicode="&#x1061;" d="M82 532q0 471 348 533h696q348 -61 349 -533v-757q0 -143 102 -185h61v-348h-122q-309 55 -349 430v860q0 143 -102 185h-573q-102 -41 -103 -185q0 -102 53 -153q82 174 252 174h115q236 0 235 -256q0 -74 -30 -131v-698q0 -225 -205 -226h-266v266h61q102 0 103 82v410 h-277q-348 61 -348 532zM530 348h125q119 0 119 51q0 72 -80 72q-111 0 -164 -123z" />
<glyph unicode="&#x1062;" horiz-adv-x="471" d="M-82 799v266h471v-1065h-307v799h-164z" />
<glyph unicode="&#x1063;" d="M82 281l309 120q25 -37 68 -53h606q102 41 102 184t-102 185h-606q-43 -16 -68 -53l-309 120q74 238 315 281h729q348 -61 349 -533q0 -471 -349 -532h-729q-4 0 -8 2v-760h-307v1039z" />
<glyph unicode="&#x1064;" horiz-adv-x="471" d="M-82 799v266h471v-799h164v-266h-471v799h-164z" />
<glyph unicode="&#x1065;" d="M82 281l309 120q25 -37 68 -53h606q102 41 102 184t-102 185h-606q-43 -16 -68 -53l-309 120q74 238 315 281h729q348 -61 349 -533q0 -471 -349 -532h-729q-242 43 -315 281z" />
<glyph unicode="&#x1066;" d="M82 532q0 471 348 533h205v-348h-143q-102 -41 -103 -185q0 -143 103 -184h573q102 41 102 184t-102 185h-143v348h204q348 -61 349 -533q0 -403 -256 -505v-559q0 -225 -205 -226h-266v266h61q102 0 102 82v410h-481q-348 61 -348 532z" />
<glyph unicode="&#x1067;" horiz-adv-x="552" d="M-41 205q0 205 205 205v655h307v-860q0 -205 -307 -205q-205 0 -205 205zM113 205q0 -51 51 -51t51 51t-51 51t-51 -51z" />
<glyph unicode="&#x1068;" horiz-adv-x="471" d="M-82 0v266h164v799h307v-1065h-471zM-61 1311q0 205 307 205t307 -205t-307 -205t-307 205zM195 1311q0 -51 51 -51t51 51t-51 51t-51 -51z" />
<glyph unicode="&#x1069;" horiz-adv-x="802" d="M82 293q0 162 166 251t166 165q0 90 -138 90h-194v266h194q444 0 445 -295q0 -162 -166 -251t-166 -165q0 -88 137 -88h195v-266h-195q-444 0 -444 293z" />
<glyph unicode="&#x106a;" horiz-adv-x="471" d="M-451 416h308q-1 -150 112 -150t113 150v649h307v-649q0 -416 -420 -416t-420 416z" />
<glyph unicode="&#x106b;" horiz-adv-x="471" d="M-451 649q0 416 420 416t420 -416v-649h-307v649q0 150 -113 150q-112 0 -112 -150h-308z" />
<glyph unicode="&#x106c;" horiz-adv-x="471" d="M82 457v608h307v-608q0 -150 113 -150q112 0 112 150h308q0 -457 -420 -457t-420 457z" />
<glyph unicode="&#x106d;" horiz-adv-x="802" d="M82 0v266h194q137 0 138 88q0 76 -166 165t-166 251q0 295 444 295h195v-266h-195q-137 0 -137 -90q0 -76 166 -165t166 -251q0 -293 -445 -293h-194z" />
<glyph unicode="&#x106e;" horiz-adv-x="3338" d="M82 532q0 471 348 533h1393q117 -20 194 -88q78 68 195 88h696q348 -61 348 -533q0 -471 -348 -532h-246v348h185q102 41 102 184t-102 185h-574q-102 -41 -102 -185q0 -471 -348 -532h-205v348h143q102 41 103 184q0 143 -103 185h-303q16 -82 17 -185q0 -471 -349 -532 h-204v348h143q102 41 102 184t-102 185h-573q-102 -41 -103 -185q0 -143 103 -184h143v-348h-205q-348 61 -348 532z" />
<glyph unicode="&#x106f;" horiz-adv-x="2641" d="M82 532q0 471 348 533h205v-348h-143q-102 -41 -103 -185q0 -143 103 -184h573q102 41 102 184t-102 185h-143v348h204q117 -20 195 -88q78 68 195 88h696q348 -61 348 -533q0 -471 -348 -532h-133v-532q0 -225 -205 -226h-266v266h61q102 0 103 82v758h378 q102 41 103 184q0 143 -103 185h-573q-102 -41 -102 -185q0 -471 -349 -532h-696q-348 61 -348 532z" />
<glyph unicode="&#x1070;" horiz-adv-x="2641" d="M82 410q0 197 289 307h-289v348h553v-348q-246 -184 -246 -266q0 -61 103 -103h573q102 41 102 184t-102 185h-143v348h204q348 -61 349 -533q0 -143 102 -184h573q102 41 103 184q0 143 -103 185h-184v348h246q348 -61 348 -533q0 -471 -348 -532h-133v-532 q0 -225 -205 -226h-266v266h61q102 0 103 82v410h-256q-117 20 -195 88q-78 -68 -195 -88h-696q-348 61 -348 410z" />
<glyph unicode="&#x1071;" horiz-adv-x="0" d="M-1475 1372q0 266 328 266t328 -266t-328 -266t-328 266zM-1208 1372q0 -61 61 -61q62 0 62 61t-62 62q-61 0 -61 -62zM-737 1372q-1 266 327 266t328 -266t-328 -266t-327 266zM-471 1372q0 -61 61 -61q62 0 62 61t-62 62q-61 0 -61 -62z" />
<glyph unicode="&#x1072;" horiz-adv-x="0" d="M-1249 1464q0 305 348 359h287q227 -35 305 -176l-301 -125q-25 18 -66 32h-164q-102 -37 -102 -90t102 -90h164q41 14 66 33l301 -125q-78 -141 -305 -176h-287q-348 53 -348 358z" />
<glyph unicode="&#x1073;" horiz-adv-x="0" d="M-1155 1260l541 479l540 -479l-176 -195l-364 303l-367 -303z" />
<glyph unicode="&#x1074;" horiz-adv-x="0" d="M-1270 1464q0 305 348 359l62 -269q-102 -37 -103 -90q0 -53 103 -90h164q102 37 102 90t-102 90l61 269q348 -53 348 -359q0 -305 -348 -358h-287q-348 53 -348 358z" />
<glyph unicode="&#x1075;" d="M82 0v348h289q-289 111 -289 307q0 348 348 410h696q348 -61 349 -533q0 -471 -349 -532h-204v348h143q102 41 102 184t-102 185h-573q-102 -41 -103 -103q0 -82 246 -266v-348h-553z" />
<glyph unicode="&#x1076;" d="M0 965v100h102v-100q0 -57 17 -93q86 158 278 193h729q348 -61 349 -533q0 -471 -349 -532h-737q-307 61 -307 297q0 256 297 256h299q272 0 436 -174q53 51 53 153q0 143 -102 185h-606q-43 -16 -68 -53l-244 57q-147 37 -147 244zM414 399q0 -51 78 -51h534 q-135 123 -348 123h-133q-131 0 -131 -72z" />
<glyph unicode="&#x1077;" d="M82 0v348h289q-289 111 -289 307q0 348 348 410h696q348 -61 349 -533q0 -471 -349 -532h-143q-143 0 -143 430v102q0 102 18 185h-366q-102 -41 -103 -103q0 -82 246 -266v-348h-553zM942 532q0 -104 25 -184h98q102 41 102 184t-102 185h-98q-25 -80 -25 -185z" />
<glyph unicode="&#x1078;" horiz-adv-x="2641" d="M82 532q0 471 348 533h696q117 -20 195 -88q78 68 195 88h696q348 -61 348 -533q0 -471 -348 -532h-696q-348 61 -349 532q0 144 -102 185h-573q-102 -41 -103 -185q0 -143 103 -184h184v-348h-246q-348 61 -348 532zM1475 532q0 -143 102 -184h573q102 41 103 184 q0 143 -103 185h-573q-102 -41 -102 -185z" />
<glyph unicode="&#x1079;" horiz-adv-x="2641" d="M82 532q0 471 348 533h696q117 -20 195 -88q78 68 195 88h696q348 -61 348 -533q0 -471 -348 -532h-696q-348 61 -349 532q0 143 -102 185h-573q-102 -41 -103 -185q0 -102 53 -153q82 174 252 174h115q236 0 235 -256q0 -236 -307 -297h-307q-348 61 -348 532zM530 348 h125q119 0 119 51q0 72 -80 72q-111 0 -164 -123zM1475 532q0 -143 102 -184h573q102 41 103 184q0 143 -103 185h-573q-102 -41 -102 -185z" />
<glyph unicode="&#x107a;" horiz-adv-x="2641" d="M82 532q0 471 348 533h696q348 -61 349 -533q0 -143 102 -184h573q102 41 103 184q0 143 -103 185h-389v348h451q348 -61 348 -533q0 -471 -348 -532h-696q-20 4 -41 8v-418q0 -82 102 -82h61v-266h-266q-205 0 -205 226v1064q0 143 -102 185h-573q-102 -41 -103 -185 q0 -143 103 -184h389v-348h-451q-348 61 -348 532z" />
<glyph unicode="&#x107b;" horiz-adv-x="2641" d="M82 532q0 471 348 533h696q117 -20 195 -88q78 68 195 88h696q348 -61 348 -533q0 -471 -348 -532h-307q-307 61 -308 297q0 256 236 256h115q170 0 252 -174q53 51 53 153q0 143 -103 185h-573q-102 -41 -102 -185q0 -471 -349 -532h-696q-348 61 -348 532zM389 532 q0 -143 103 -184h573q102 41 102 184t-102 185h-573q-102 -41 -103 -185zM1868 399q0 -51 119 -51h124q-53 123 -163 123q-80 0 -80 -72z" />
<glyph unicode="&#x107c;" horiz-adv-x="2641" d="M82 297q0 256 297 256h299q272 0 436 -174q53 51 53 153q0 143 -102 185h-606q-43 -16 -68 -53l-309 120q74 238 315 281h729q117 -20 195 -88q78 68 195 88h729q242 -43 315 -281l-309 -120q-25 37 -68 53h-606q-102 -42 -102 -185q0 -102 53 -153q164 174 436 174h299 q297 0 297 -256q0 -236 -307 -297h-737q-117 20 -195 88q-78 -68 -195 -88h-737q-307 61 -307 297zM414 399q0 -51 78 -51h534q-135 123 -348 123h-133q-131 0 -131 -72zM1616 348h534q78 0 78 51q0 72 -131 72h-133q-213 0 -348 -123z" />
<glyph unicode="&#x107d;" horiz-adv-x="2641" d="M82 410q0 197 289 307h-289v348h553v-348q-246 -184 -246 -266q0 -61 103 -103h573q102 41 102 184q0 471 349 533h729q242 -43 315 -281l-309 -120q-25 37 -68 53h-606q-102 -41 -102 -185q0 -102 53 -153q164 174 436 174h299q297 0 297 -256q0 -236 -307 -297h-737 q-117 20 -195 88q-78 -68 -195 -88h-696q-348 61 -348 410zM1616 348h534q78 0 78 51q0 72 -131 72h-133q-213 0 -348 -123z" />
<glyph unicode="&#x107e;" horiz-adv-x="2641" d="M82 410q0 197 289 307h-289v348h553v-348q-246 -184 -246 -266q0 -61 103 -103h573q102 41 102 184q0 471 349 533h729q242 -43 315 -281l-309 -120q-25 37 -68 53h-606q-102 -41 -102 -185q0 -102 53 -153q164 174 436 174h299q297 0 297 -256q0 -236 -307 -297h-144 v-532q0 -225 -204 -226h-267v266h62q102 0 102 82v410h-286q-117 20 -195 88q-78 -68 -195 -88h-696q-348 61 -348 410zM1616 348h534q78 0 78 51q0 72 -131 72h-133q-213 0 -348 -123z" />
<glyph unicode="&#x107f;" d="M82 532q0 471 348 533h143q143 0 144 -430v-103q0 -102 -19 -184h367q102 41 102 184t-102 185h-143v348h204q348 -61 349 -533q0 -471 -349 -532h-696q-348 61 -348 532zM389 532q0 -143 103 -184h98q25 80 24 184q1 105 -24 185h-98q-102 -41 -103 -185z" />
<glyph unicode="&#x1080;" horiz-adv-x="2641" d="M82 297q0 256 297 256h299q272 0 436 -174q53 51 53 153q0 143 -102 185h-606q-43 -16 -68 -53l-309 120q74 238 315 281h729q348 -61 349 -533q0 -143 102 -184h573q102 41 103 184q0 143 -103 185h-184v348h246q348 -61 348 -533q0 -471 -348 -532h-696 q-117 20 -195 88q-78 -68 -195 -88h-737q-307 61 -307 297zM414 399q0 -51 78 -51h534q-135 123 -348 123h-133q-131 0 -131 -72z" />
<glyph unicode="&#x1081;" d="M82 532q0 471 348 533h696q348 -61 349 -533q0 -471 -349 -532h-204v348h143q102 41 102 184t-102 185h-573q-102 -41 -103 -185q0 -143 103 -184h143v-880q0 -225 -205 -226h-266v266h61q102 0 103 82v441q-246 106 -246 501z" />
<glyph unicode="&#x1082;" horiz-adv-x="0" d="M-1270 -399q0 305 348 358h287q207 -31 291 -152l-299 -141q-22 15 -53 25h-164q-102 -37 -103 -90q0 -53 103 -90h164q102 37 102 90h307q0 -305 -348 -359h-287q-348 53 -348 359z" />
<glyph unicode="&#x1083;" horiz-adv-x="471" d="M-82 799v266h471v-1557h164v-266h-471v1557h-164z" />
<glyph unicode="&#x1084;" d="M82 246q0 188 326 286q-326 98 -326 287q0 246 348 246h729q242 -43 316 -281l-310 -120q-25 37 -67 53h-606q-102 0 -103 -41q0 -41 246 -103v-81q-246 -61 -246 -103q0 -41 103 -41h606q43 16 67 53l310 -120q-74 -238 -316 -281h-729q-348 0 -348 246z" />
<glyph unicode="&#x1085;" horiz-adv-x="0" d="M-1092 1311q1 102 91 153q-90 51 -91 154q0 205 461 205q96 0 166 -15l-18 -182q-57 12 -148 12q-174 0 -174 -51t174 -51v-143q-174 0 -174 -52q0 -51 174 -51q90 0 148 13l18 -183q-70 -14 -166 -14q-461 0 -461 205z" />
<glyph unicode="&#x1086;" horiz-adv-x="0" d="M-1055 1556q0 246 246 246q307 0 307 -246v-65q0 -358 -309 -444l-176 139q98 43 145 168q-213 14 -213 202zM-860 1556q0 -51 51 -51t51 51t-51 52q-51 0 -51 -52z" />
<glyph unicode="&#x1087;" horiz-adv-x="778" d="M82 205q0 246 287 246q328 0 327 -246v-66q0 -358 -370 -444l-176 139q98 43 145 168q-213 14 -213 203zM276 205q0 -51 52 -51q51 0 51 51t-51 51t-52 -51z" />
<glyph unicode="&#x1088;" horiz-adv-x="778" d="M82 205q0 246 287 246q328 0 327 -246v-66q0 -358 -370 -444l-176 139q98 43 145 168q-213 14 -213 203zM82 860q0 205 307 205t307 -205t-307 -205t-307 205zM276 205q0 -51 52 -51q51 0 51 51t-51 51t-52 -51zM338 860q0 -51 51 -51t51 51t-51 51t-51 -51z" />
<glyph unicode="&#x1089;" horiz-adv-x="778" d="M82 205q0 205 307 205t307 -205t-307 -205t-307 205zM338 205q0 -51 51 -51t51 51t-51 51t-51 -51z" />
<glyph unicode="&#x108a;" horiz-adv-x="919" d="M82 264q0 229 246 230q188 0 202 -172q125 39 168 116l140 -141q-86 -295 -445 -295h-65q-246 0 -246 262zM82 838q0 229 246 229q188 0 202 -172q125 39 168 117l140 -142q-86 -295 -445 -295h-65q-246 0 -246 263zM276 287q0 -51 52 -51q51 0 51 51t-51 51t-52 -51z M276 860q0 -51 52 -51q51 0 51 51t-51 51t-52 -51z" />
<glyph unicode="&#x108b;" horiz-adv-x="778" d="M82 532q0 205 307 205t307 -205t-307 -204q-307 0 -307 204zM338 532q0 -51 51 -51t51 51t-51 52q-51 0 -51 -52z" />
<glyph unicode="&#x108c;" horiz-adv-x="1474" d="M82 532q0 205 307 205t307 -205t-307 -204q-307 0 -307 204zM338 532q0 -51 51 -51t51 51t-51 52q-51 0 -51 -52zM778 532q0 205 307 205t308 -205q0 -205 -308 -204q-307 0 -307 204zM1034 532q0 -51 51 -51q52 0 52 51t-52 52q-51 0 -51 -52z" />
<glyph unicode="&#x108d;" horiz-adv-x="0" d="M-1075 -166h921v-205h-921v205z" />
<glyph unicode="&#x108e;" d="M82 532q0 471 348 533h696q348 -61 349 -533q0 -471 -349 -532h-696q-348 61 -348 532zM389 532q0 -143 103 -184h573q102 41 102 184q0 20 -2 37q-156 -57 -387 -57t-387 57q-2 -16 -2 -37zM432 676q131 -62 346 -62t346 62q-23 27 -59 41h-573q-37 -14 -60 -41z" />
<glyph unicode="&#x108f;" horiz-adv-x="778" d="M82 139v66q0 246 328 246q287 0 286 -246q0 -188 -213 -203q47 -125 146 -168l-176 -139q-371 86 -371 444zM82 860q0 205 307 205t307 -205t-307 -205t-307 205zM338 860q0 -51 51 -51t51 51t-51 51t-51 -51zM399 205q1 -51 52 -51t51 51t-51 51t-52 -51z" />
<glyph unicode="&#x1090;" d="M82 532q0 471 348 533h696q348 -61 349 -533q0 -471 -349 -532h-696q-348 61 -348 532zM389 532q0 -143 103 -184h573q102 41 102 184t-102 185h-573q-102 -41 -103 -185z" />
<glyph unicode="&#x1091;" horiz-adv-x="860" d="M82 928l229 137h273v-801l141 84l53 -211l-229 -137h-273v801l-141 -84z" />
<glyph unicode="&#x1092;" d="M82 532q0 31 2 62h-2v553h307v-90q20 4 41 8h696q348 -61 349 -533q0 -274 -317.5 -498t-317.5 -444h-308q0 270 317.5 494.5t317.5 447.5q0 143 -102 185h-573q-102 -41 -103 -185h-307z" />
<glyph unicode="&#x1093;" horiz-adv-x="1157" d="M82 143l629 1395l258 -143l-154 -334q260 -29 260 -371v-690h-307v690q0 88 -51 88h-33l-344 -778z" />
<glyph unicode="&#x1094;" horiz-adv-x="1224" d="M82 41l459 1024h407v-801l142 84l53 -211l-230 -137h-272v709l-301 -709z" />
<glyph unicode="&#x1095;" horiz-adv-x="1187" d="M82 430q0 532 563 533h154v471h307v-471h102v-308h-102v-123q0 -532 -512 -532t-512 430zM389 430q0 -123 205 -123t205 225v123h-154q-256 0 -256 -225z" />
<glyph unicode="&#x1096;" horiz-adv-x="1187" d="M82 635q0 430 512 430t512 -533v-122h102v-308h-102v-471h-307v471h-154q-563 0 -563 533zM389 635q0 -225 256 -225h154v122q0 225 -205 226q-205 0 -205 -123z" />
<glyph unicode="&#x1097;" horiz-adv-x="983" d="M82 0v63l399 695h-399v307h819v-68l-395 -690h395v-307h-819z" />
<glyph unicode="&#x1098;" d="M82 532q0 250 98 386q-98 197 -98 577h307q0 -389 103 -430h573q102 41 102 430h308q0 -381 -99 -577q98 -135 99 -386q0 -471 -349 -532h-696q-348 61 -348 532zM389 532q0 -143 103 -184h573q102 41 102 184q0 144 -102 185h-573q-102 -41 -103 -185z" />
<glyph unicode="&#x1099;" d="M82 0q0 381 98 578q-98 135 -98 385q0 471 348 532h696q348 -61 349 -532q0 -250 -99 -385q98 -197 99 -578h-308q0 389 -102 430h-573q-102 -41 -103 -430h-307zM389 963q0 -143 103 -185h573q102 42 102 185t-102 184h-573q-102 -41 -103 -184z" />
<glyph unicode="&#x109a;" horiz-adv-x="778" d="M82 860q0 205 307 205t307 -205t-307 -205t-307 205zM338 860q0 -51 51 -51t51 51t-51 51t-51 -51z" />
<glyph unicode="&#x109b;" horiz-adv-x="778" d="M82 819q0 246 287 246q328 0 327 -246v-65q0 -358 -370 -445l-176 140q98 43 145 167q-213 14 -213 203zM276 819q0 -51 52 -51q51 0 51 51t-51 51t-52 -51z" />
<glyph unicode="&#x109c;" horiz-adv-x="919" d="M82 231q0 262 246 263h65q358 0 445 -295l-140 -142q-43 78 -168 117q-14 -172 -202 -172q-246 0 -246 229zM82 805q0 262 246 262h65q358 0 445 -295l-140 -141q-43 78 -168 117q-14 -172 -202 -173q-246 0 -246 230zM276 209q0 -51 52 -51q51 0 51 51t-51 51t-52 -51z M276 782q0 -51 52 -51q51 0 51 51q0 52 -51 52t-52 -52z" />
<glyph unicode="&#x109d;" horiz-adv-x="0" d="M-881 1120q0 395 400 396q399 0 399 -396v-301h-307v301q0 88 -92 88t-92 -88h-308z" />
<glyph unicode="&#x109e;" horiz-adv-x="471" d="M-82 799v266h471v-1557h164v-266h-471v1557h-164zM-72 1311q1 205 308 205t307 -205t-307 -205t-308 205zM184 1311q0 -51 52 -51q51 0 51 51t-51 51t-52 -51z" />
<glyph unicode="&#x109f;" horiz-adv-x="2027" d="M82 532q0 471 348 533h696q348 -61 349 -533v-757q0 -184 81 -185q82 0 82 185v757q0 573 -348 574h-184q-348 53 -348 358t348 359h287q252 -39 321 -211l-299 -105q-25 27 -84 47h-164q-102 -37 -102 -90t102 -92h123q655 0 656 -840v-757q0 -532 -390 -533 q-389 0 -389 533v757q0 143 -102 185h-573q-102 -41 -103 -185q0 -143 103 -184h532v-348h-594q-348 61 -348 532z" />
<glyph unicode="&#x2000;" horiz-adv-x="911" />
<glyph unicode="&#x2001;" horiz-adv-x="1823" />
<glyph unicode="&#x2002;" horiz-adv-x="911" />
<glyph unicode="&#x2003;" horiz-adv-x="1823" />
<glyph unicode="&#x2004;" horiz-adv-x="607" />
<glyph unicode="&#x2005;" horiz-adv-x="455" />
<glyph unicode="&#x2006;" horiz-adv-x="303" />
<glyph unicode="&#x2007;" horiz-adv-x="303" />
<glyph unicode="&#x2008;" horiz-adv-x="227" />
<glyph unicode="&#x2009;" horiz-adv-x="364" />
<glyph unicode="&#x200a;" horiz-adv-x="101" />
<glyph unicode="&#x202f;" horiz-adv-x="364" />
<glyph unicode="&#x205f;" horiz-adv-x="455" />
<glyph unicode="&#x25cc;" horiz-adv-x="1218" d="M102 535q0 49 52 49q49 0 49 -49t-49 -50q-51 0 -52 50zM139 360q0 51 49 52q50 -1 50 -52q0 -49 -50 -49q-49 0 -49 49zM139 709q0 49 49 49q50 0 50 -49q0 -51 -48 -52q-51 0 -51 52zM238 211q0 51 49 51q51 0 51 -51q0 -49 -51 -49q-49 0 -49 49zM238 854q0 53 49 53 q51 0 51 -51q0 -49 -51 -49q-49 0 -49 47zM385 113q0 51 49 51q51 0 51 -47q0 -51 -51 -51q-49 0 -49 47zM385 954q0 51 49 52q51 -1 51 -52q0 -49 -51 -49q-49 0 -49 49zM559 80q0 49 49 49t49 -49q0 -51 -49 -51t-49 51zM559 991q0 49 49 49t49 -49q0 -51 -49 -51t-49 51z M733 113q0 51 51 51q47 0 47 -51q0 -47 -47 -47q-51 0 -51 47zM733 954q0 51 51 52q47 -1 47 -52q0 -49 -47 -49q-51 0 -51 49zM881 211q0 51 51 51q49 0 49 -51q0 -49 -49 -49q-51 0 -51 49zM881 856q0 51 51 51q49 0 49 -51q0 -49 -49 -49q-51 0 -51 49zM979 360 q0 51 49 52q51 -1 51 -52q0 -49 -51 -49q-49 0 -49 49zM979 709q0 49 51 49q49 0 49 -49q0 -51 -51 -52q-49 0 -49 52zM1016 535q0 49 51 49q49 0 49 -49t-49 -50q-51 0 -51 50z" />
<glyph unicode="&#x25fc;" horiz-adv-x="1024" d="M0 0z" />
<glyph unicode="&#xaa60;" horiz-adv-x="2641" d="M82 532q0 471 348 533h696q117 -20 195 -88q78 68 195 88h696q348 -61 348 -533q0 -471 -348 -532h-307q-307 61 -308 297q0 256 236 256h115q170 0 252 -174q53 51 53 153q0 143 -103 185h-573q-102 -41 -102 -185q0 -471 -349 -532h-204v348h143q102 41 102 184 t-102 185h-573q-102 -41 -103 -185q0 -143 103 -184h143v-348h-205q-348 61 -348 532zM1868 399q0 -51 119 -51h124q-53 123 -163 123q-80 0 -80 -72z" />
<glyph unicode="&#xaa61;" horiz-adv-x="2641" d="M82 0v348h289q-289 111 -289 307q0 348 348 410h696q117 -20 195 -88q78 68 195 88h696q348 -61 348 -533q0 -471 -348 -532h-696q-117 20 -195 88q-78 -68 -195 -88h-204v348h143q102 41 102 184t-102 185h-573q-102 -41 -103 -103q0 -82 246 -266v-348h-553zM1475 532 q0 -143 102 -184h573q102 41 103 184q0 143 -103 185h-573q-102 -41 -102 -185z" />
<glyph unicode="&#xaa62;" horiz-adv-x="2088" d="M82 0v1065h307v-705l252 213l281 -41q0 -143 102 -184h573q102 41 103 184q0 143 -103 185h-573v348h635q348 -61 348 -533q0 -471 -348 -532h-696q-260 45 -326 319l-356 -319h-199z" />
<glyph unicode="&#xaa63;" horiz-adv-x="2641" d="M82 0v348h289q-289 111 -289 307q0 348 348 410h696q117 -20 195 -88q78 68 195 88h696q348 -61 348 -533q0 -471 -348 -532h-696q-117 20 -195 88q-78 -68 -195 -88h-143q-143 0 -143 430v102q0 102 18 185h-366q-102 -41 -103 -103q0 -82 246 -266v-348h-553zM942 532 q0 -104 25 -184h98q102 41 102 184t-102 185h-98q-25 -80 -25 -185zM1475 532q0 -143 102 -184h573q102 41 103 184q0 143 -103 185h-573q-102 -41 -102 -185z" />
<glyph unicode="&#xaa64;" horiz-adv-x="2641" d="M82 532q0 471 348 533h205v-348h-143q-102 -41 -103 -185q0 -143 103 -184h573q102 41 102 184t-102 185h-143v348h204q117 -20 195 -88q78 68 195 88h696q348 -61 348 -533q0 -471 -348 -532h-696q-117 20 -195 88q-78 -68 -195 -88h-696q-348 61 -348 532zM1475 532 q0 -143 102 -184h573q102 41 103 184q0 143 -103 185h-573q-102 -41 -102 -185z" />
<glyph unicode="&#xaa65;" horiz-adv-x="2641" d="M82 532q0 471 348 533h451v-348h-389q-102 -41 -103 -185q0 -143 103 -184h573q102 41 102 184q0 471 349 533h696q348 -61 348 -533q0 -471 -348 -532h-451v348h389q102 41 103 184q0 143 -103 185h-573q-102 -41 -102 -185v-1064q0 -225 -205 -226h-266v266h61 q102 0 102 82v418q-20 -4 -41 -8h-696q-348 61 -348 532z" />
<glyph unicode="&#xaa66;" horiz-adv-x="2641" d="M82 532q0 471 348 533h696q117 -20 195 -88q78 68 195 88h696q348 -61 348 -533q0 -471 -348 -532h-246v348h184q102 41 103 184q0 143 -103 185h-573q-102 -42 -102 -185q0 -471 -349 -532h-696q-348 61 -348 532zM389 532q0 -143 103 -184h573q102 41 102 184t-102 185 h-573q-102 -41 -103 -185zM676 532q0 103 102 103t103 -103q0 -102 -103 -102q-102 0 -102 102z" />
<glyph unicode="&#xaa67;" horiz-adv-x="2641" d="M82 532q0 471 348 533h696q117 -20 195 -88q78 68 195 88h696q348 -61 348 -533q0 -471 -348 -532h-696q-117 20 -195 88q-78 -68 -195 -88h-696q-348 61 -348 532zM389 532q0 -143 103 -184h573q102 41 102 184t-102 185h-573q-102 -41 -103 -185zM676 532 q0 103 102 103t103 -103q0 -102 -103 -102q-102 0 -102 102zM1475 532q0 -143 102 -184h573q102 41 103 184q0 143 -103 185h-573q-102 -41 -102 -185z" />
<glyph unicode="&#xaa68;" horiz-adv-x="2641" d="M82 532q0 471 348 533h696q117 -20 195 -88q78 68 195 88h696q348 -61 348 -533q0 -471 -348 -532h-307q-307 61 -308 297q0 256 236 256h115q170 0 252 -174q53 51 53 153q0 143 -103 185h-573q-102 -41 -102 -185q0 -471 -349 -532h-696q-348 61 -348 532zM389 532 q0 -143 103 -184h573q102 41 102 184t-102 185h-573q-102 -41 -103 -185zM676 532q0 103 102 103t103 -103q0 -102 -103 -102q-102 0 -102 102zM1868 399q0 -51 119 -51h124q-53 123 -163 123q-80 0 -80 -72z" />
<glyph unicode="&#xaa69;" horiz-adv-x="2641" d="M82 532q0 471 348 533h696q117 -20 195 -88q78 68 195 88h696q348 -61 348 -533q0 -471 -348 -532h-696q-117 20 -195 88q-78 -68 -195 -88h-696q-348 61 -348 532zM389 532q0 -143 103 -184h573q102 41 102 184t-102 185h-573q-102 -41 -103 -185zM676 532 q0 103 102 103t103 -103q0 -102 -103 -102q-102 0 -102 102zM1475 532q0 -143 102 -184h149q-54 164 -251 189v-5zM1493 637q283 -33 342 -289h315q102 41 103 184q0 143 -103 185h-573q-57 -23 -84 -80z" />
<glyph unicode="&#xaa6a;" horiz-adv-x="2641" d="M82 532q0 471 348 533h696q117 -20 195 -88q78 68 195 88h696q348 -61 348 -533q0 -471 -348 -532h-696q-117 20 -195 88q-78 -68 -195 -88h-696q-348 61 -348 532zM389 532q0 -143 103 -184h573q102 41 102 184t-102 185h-573q-102 -41 -103 -185zM1475 532 q0 -143 102 -184h149q-54 164 -251 189v-5zM1493 637q283 -33 342 -289h315q102 41 103 184q0 143 -103 185h-573q-57 -23 -84 -80z" />
<glyph unicode="&#xaa6b;" d="M82 532q0 326 166 457q-59 92 -60 219h103q0 -98 49 -168q41 16 90 25h696q348 -61 349 -533q0 -471 -349 -532h-204v348h143q102 41 102 184t-102 185h-367q18 -82 19 -185v-102q0 -430 -144 -430h-143q-348 61 -348 532zM389 532q0 -143 103 -184h98q24 80 24 184 t-24 185h-98q-102 -41 -103 -185z" />
<glyph unicode="&#xaa6c;" horiz-adv-x="2641" d="M82 532q0 471 348 533h205v-348h-143q-102 -41 -103 -185q0 -143 103 -184h389q102 41 102 184t-102 185q61 348 440 348t440 -348q-102 -41 -102 -185q0 -143 102 -184h389q102 41 103 184q0 143 -103 185h-143v348h205q348 -61 348 -533q0 -471 -348 -532h-512 q-348 0 -348 532q0 188 55 312q-10 119 -86 119t-86 -119q55 -123 55 -312q0 -532 -348 -532h-512q-348 61 -348 532z" />
<glyph unicode="&#xaa6d;" horiz-adv-x="1617" d="M-348 -281h307q0 -170 92 -170t92 170v813q0 43 2 82q-207 8 -206 226q0 225 225 225q100 0 170 -59q68 43 158 59h696q348 -61 348 -533q0 -471 -348 -532h-410v348h348q102 41 103 184q0 143 -103 185h-573q-102 -41 -102 -185v-813q0 -477 -400 -477q-399 0 -399 477z M102 840q0 -61 62 -62q61 1 61 62t-61 61t-62 -61z" />
<glyph unicode="&#xaa6e;" horiz-adv-x="2641" d="M82 532q0 471 348 533h696q348 -61 349 -533q0 -143 102 -184h573q102 41 103 184q0 143 -103 185h-389v348h451q348 -61 348 -533q0 -471 -348 -532h-696q-348 61 -349 532q0 143 -102 185h-573q-102 -41 -103 -185q0 -102 53 -153q82 174 252 174h115q236 0 235 -256 q0 -236 -307 -297h-307q-348 61 -348 532zM530 348h125q119 0 119 51q0 72 -80 72q-111 0 -164 -123z" />
<glyph unicode="&#xaa6f;" horiz-adv-x="2027" d="M82 0v1065h301l231 -209q84 174 287 209h696q348 -61 349 -533q0 -471 -349 -532h-696q-348 61 -348 532v31l-164 142v-705h-307zM860 532q0 -143 103 -184h573q102 41 102 184t-102 185h-573q-102 -41 -103 -185z" />
<glyph unicode="&#xaa70;" horiz-adv-x="0" d="M-913 1155q90 94 301 94q209 0 299 -94l-82 -174q-63 63 -217 63q-156 0 -219 -63zM-913 1442q90 94 301 94q209 0 299 -94l-82 -174q-63 63 -217 63q-156 0 -219 -63z" />
<glyph unicode="&#xaa71;" horiz-adv-x="2641" d="M82 532q0 471 348 533h696q117 -20 195 -88q78 68 195 88h696q348 -61 348 -533q0 -471 -348 -532h-246v348h184q102 41 103 184q0 143 -103 185h-573q-102 -41 -102 -185q0 -471 -349 -532h-204v348h143q102 41 102 184t-102 185h-367q18 -82 19 -185v-102 q0 -430 -144 -430h-143q-348 61 -348 532zM389 532q0 -143 103 -184h98q24 80 24 184t-24 185h-98q-102 -41 -103 -185z" />
<glyph unicode="&#xaa72;" horiz-adv-x="2641" d="M0 205q0 137 92 182q-10 68 -10 145q0 471 348 533h696q117 -20 195 -88q78 68 195 88h696q348 -61 348 -533q0 -471 -348 -532h-696q-117 20 -195 88q-78 -68 -195 -88h-204v348h143q102 41 102 184t-102 185h-573q-102 -41 -103 -185v-399q0 -51 -53 -92t-131 -41 q-205 0 -205 205zM154 205q0 -51 51 -51t51 51t-51 51t-51 -51zM1475 532q0 -143 102 -184h573q102 41 103 184q0 143 -103 185h-573q-102 -41 -102 -185z" />
<glyph unicode="&#xaa73;" horiz-adv-x="1597" d="M82 0v1065h303q403 -717 653 -717h68q102 41 102 184t-102 185h-143v348h204q348 -61 349 -533q0 -471 -349 -532h-129q-360 0 -649 643v-643h-307z" />
<glyph unicode="&#xaa74;" horiz-adv-x="2027" d="M82 532q0 471 348 533h205v-348h-143q-102 -41 -103 -185q0 -143 103 -184h348v287q0 430 143 430h143q348 -61 349 -533q0 -471 -349 -532h-184v-371q139 -80 346 -80h144q207 0 206 119v864q0 573 -348 574h-184q-348 53 -348 358t348 359h287q252 -39 321 -211 l-299 -105q-25 27 -84 47h-164q-102 -37 -102 -90t102 -92h123q655 0 656 -840v-864q0 -426 -514 -426h-144q-213 0 -352 135q-33 -135 -199 -135q-205 0 -205 205q0 225 205 225q59 0 103 -18v346h-410q-348 61 -348 532zM635 -553q0 -102 102 -102q103 0 103 102t-103 102 q-102 0 -102 -102zM942 348h123q102 41 102 184t-102 185h-98q-25 -80 -25 -185v-184z" />
<glyph unicode="&#xaa75;" horiz-adv-x="3112" d="M82 0v348h289q-289 111 -289 307q0 348 348 410h696q117 -20 195 -88q78 68 195 88h696q348 -61 348 -533q0 -428 -287 -518v-405q139 -59 305 -60q145 0 146 119v864q0 573 -430 574h-266q-348 53 -349 358q0 305 349 359h286q252 -39 322 -211l-299 -105q-25 27 -84 47 h-164q-102 -37 -102 -90t102 -92h205q737 0 737 -840v-864q0 -426 -453 -426q-172 0 -311 135q-33 -135 -301 -135q-205 0 -205 205t205 205v696h184q102 41 103 184q0 143 -103 185h-573q-102 -41 -102 -185q0 -471 -349 -532h-204v348h143q102 41 102 184t-102 185h-573 q-102 -41 -103 -103q0 -82 246 -266v-348h-553zM1915 -553q0 -51 51 -51t51 51t-51 51t-51 -51z" />
<glyph unicode="&#xaa76;" horiz-adv-x="2088" d="M-348 -281h307q0 -170 92 -170t92 170v813q0 43 2 82q-207 8 -206 226q0 225 225 225q100 0 170 -59q68 43 158 59h696q348 -61 348 -533q0 -428 -287 -518v-405q139 -59 305 -60q145 0 146 119v864q0 573 -430 574h-266q-348 53 -349 358q0 305 349 359h286 q252 -39 322 -211l-299 -105q-25 27 -84 47h-164q-102 -37 -102 -90t102 -92h205q737 0 737 -840v-864q0 -426 -453 -426q-172 0 -311 135q-33 -135 -301 -135q-205 0 -205 205t205 205v348h-164v348h348q102 41 103 184q0 143 -103 185h-573q-102 -41 -102 -185v-813 q0 -477 -400 -477q-399 0 -399 477zM102 840q0 -61 62 -62q61 1 61 62t-61 61t-62 -61zM891 -553q0 -51 51 -51t51 51t-51 51t-51 -51z" />
<glyph unicode="&#xaa77;" d="M82 0v348h289q-289 111 -289 307q0 348 348 410h696q348 -61 349 -533q0 -276 -119 -411l272 -492q23 -43 64 -43q29 0 65 21l53 28l129 -231l-233 -129q-59 -33 -113 -33q-102 0 -174 131l-348 627h-37v-410q0 -82 103 -82h61v-266h-266q-205 0 -205 226v552l195 328 h143q102 41 102 184t-102 185h-573q-102 -41 -103 -103q0 -82 246 -266v-348h-553zM287 1464q0 305 348 359h287q348 -53 348 -359h-307q0 53 -103 90h-164q-102 -37 -102 -90t102 -90h164v-268h-225q-348 53 -348 358z" />
<glyph unicode="&#xaa78;" horiz-adv-x="1822" d="M82 836l287 71q143 -133 143 -409q0 -268 -135 -402l-283 76q111 106 111 326q0 229 -123 338zM459 90q133 135 401 135q176 0 295 -59l231 713q61 186 302 186q39 0 84 -14q100 -33 133 -109l-97 -258q-14 47 -69 64q-23 8 -41 8q-74 0 -111 -115l-180 -594 q12 -12 25 -24l-236 -228q-106 123 -336 123q-219 0 -325 -111zM459 913l76 283q106 -111 325 -111q230 0 336 123l72 -286q-133 -143 -408 -144q-268 0 -401 135z" />
<glyph unicode="&#xaa79;" d="M82 0v348h289q-289 111 -289 307q0 348 348 410h696q348 -61 349 -533q0 -471 -349 -532h-92v-410q0 -82 103 -82h61v-266h-266q-205 0 -205 226v573l195 307h143q102 41 102 184t-102 185h-573q-102 -41 -103 -103q0 -82 246 -266v-348h-553z" />
<glyph unicode="&#xaa7a;" horiz-adv-x="3112" d="M82 -225v1331q0 471 348 532h1106q102 41 102 185h308q0 -471 -349 -533h-1105q-102 -41 -103 -184v-1331q0 -143 103 -185h1044q102 41 102 185v757q0 143 -102 185h-573q-102 -41 -103 -185q0 -143 103 -184h389v-348h-451q-348 61 -348 532t348 533h696 q348 -61 349 -533q0 -143 102 -184h573q102 41 103 184q0 143 -103 185h-389v348h451q348 -61 348 -533q0 -471 -348 -532h-696q-20 4 -41 8v-233q0 -471 -349 -533h-1167q-348 61 -348 533z" />
<glyph unicode="&#xaa7b;" horiz-adv-x="778" d="M82 139v66q0 246 328 246q287 0 286 -246q0 -188 -213 -203q47 -125 146 -168l-176 -139q-371 86 -371 444zM399 205q1 -51 52 -51t51 51t-51 51t-52 -51z" />
<glyph horiz-adv-x="0" d="M-1608 -399q0 305 348 358h287q117 -18 195 -63q78 45 194 63h287q348 -53 348 -358t-348 -359h-143v269h82q102 37 102 90t-102 90h-164q-102 -37 -103 -90q0 -305 -348 -359l-61 269q102 37 102 90t-102 90h-164q-102 -37 -102 -90t102 -90l-62 -269q-348 53 -348 359z " />
<glyph horiz-adv-x="0" d="M-1241 -193q84 121 291 152h286q348 -53 349 -358q0 -305 -349 -359h-286q-248 31 -291 223q0 47 64.5 101.5t236.5 54.5q178 0 317 -22v2q0 53 -102 90h-164q-31 -12 -53 -25zM-963 -510q0 -29 74 -41h164q43 14 68 43q-113 27 -222 27q-84 0 -84 -29z" />
<glyph horiz-adv-x="2" d="M-1270 -399q0 305 348 358h287q348 -53 348 -358t-348 -359l-61 269q102 37 102 90t-102 90h-164q-102 -37 -103 -90q0 -53 103 -90l-62 -269q-348 53 -348 359z" />
<glyph horiz-adv-x="0" d="M-1608 -43h254q233 0 234 -190q0 -129 -88 -146q-92 -16 -92 -43q0 -51 102 -67h164q102 37 102 90t-102 90l61 268q348 -53 348 -358q0 -53 103 -90h164q102 37 102 90t-102 90h-82v268h143q348 -53 348 -358t-348 -359h-287q-117 18 -194 64q-78 -45 -195 -64h-287 q-348 53 -348 318q0 58 193 121v16h-193v260z" />
<glyph horiz-adv-x="2" d="M-1255 -399q0 305 348 358h286q248 -39 320 -203l-307 -104q-25 20 -74 39h-164q-102 -37 -102 -90t102 -90h164q49 18 74 38l307 -104q-72 -164 -320 -203h-286q-348 53 -348 359z" />
<glyph horiz-adv-x="2" d="M-1270 -399q0 305 348 358h287q348 -53 348 -358t-348 -359h-287q-348 53 -348 359zM-1065 -399q0 -53 102 -90h50q12 39 12 90t-12 90h-50q-102 -37 -102 -90zM-807 -309q8 -41 8 -90t-8 -90h111q102 37 102 90t-102 90h-111z" />
<glyph horiz-adv-x="0" d="M-1579 -193q84 121 291 152h287q117 -18 194 -63q78 45 195 63h286q348 -53 349 -358q0 -305 -349 -359h-286q-117 19 -195 64q-78 -45 -194 -64h-287q-248 31 -291 223q0 47 64.5 101.5t236.5 54.5q178 0 317 -22v2q0 53 -102 90h-164q-31 -12 -53 -25zM-1300 -510 q0 -29 73 -41h164q43 14 68 43q-113 27 -222 27q-84 0 -83 -29zM-653 -399q0 -53 102 -90h164q102 37 102 90t-102 90h-164q-102 -37 -102 -90z" />
<glyph horiz-adv-x="2" d="M-1241 -399q0 305 348 358h287q248 -31 291 -223q0 -41 -47 -86q57 -16 151 -25l-12 -102q-182 16 -260 67q-55 -10 -133 -10q-178 0 -318 23v-2q0 -53 103 -90h163q31 12 54 24l299 -141q-84 -121 -291 -152h-287q-348 53 -348 359zM-899 -291q112 -26 221 -26 q84 0 84 28q0 29 -74 41h-163q-43 -14 -68 -43z" />
<glyph horiz-adv-x="471" d="M-1270 -399q0 305 348 358h287q275 -43 334 -242q86 -94 199 -127h82q102 41 102 185v1290h307v-1290q0 -471 -348 -533h-205q-135 25 -217 109q-88 -84 -254 -109h-287q-348 53 -348 359zM-1065 -399q0 -53 102 -90h50q12 39 12 90t-12 90h-50q-102 -37 -102 -90z M-807 -309q8 -41 8 -90t-8 -90h111q102 37 102 90t-102 90h-111z" />
<glyph horiz-adv-x="0" d="M-1260 -621l56 93q145 -84 432 -86q297 0 434 88h51v-129h224v-103h-363v88q-121 -47 -346 -47q-381 2 -488 96zM-1255 -291q0 213 348 250h286q248 -27 320 -141l-307 -74q-25 14 -74 27h-164q-102 -25 -102 -62q0 -39 102 -63h164q49 12 74 26l307 -73 q-72 -115 -320 -142h-286q-348 37 -348 252z" />
<glyph horiz-adv-x="0" d="M-1579 -313q0 272 276 272q258 0 259 -272v-129h-99v129q0 68 -69 67q-68 0 -68 -67v-109q0 -86 117 -86h239q-12 49 -12 109q0 305 340 358h279q340 -53 340 -358t-340 -359l-60 269q100 37 101 90q0 53 -101 90h-160q-100 -37 -100 -90t100 -90l-59 -269l-668 4 q-315 0 -315 291v150z" />
<glyph horiz-adv-x="0" d="M-1579 -399q0 309 250 358h278q76 -14 129 -59q43 59 144 59q100 0 143 -59q53 45 129 59h279q250 -49 250 -358t-250 -359h-148v269h105q72 41 71 90q0 49 -71 90h-193q-74 -41 -74 -107q0 -33 74 -65q-43 -277 -315 -277t-316 277q74 33 74 65q0 66 -74 107h-192 q-72 -41 -72 -90t72 -90h104v-269h-147q-250 49 -250 359zM-868 -162q68 -106 67 -254q0 -68 -39 -166q6 -94 62 -94q55 0 61 94q-39 98 -39 166q0 147 68 254q-29 39 -90 39t-90 -39z" />
<glyph horiz-adv-x="0" d="M-1608 -399q0 305 348 358h287q117 -18 195 -63q78 45 194 63h287q348 -53 348 -358t-348 -359h-143v269h82q102 37 102 90t-102 90h-164q-103 -37 -103 -90q0 -305 -348 -359h-287q-348 53 -348 359zM-1300 -399q0 -53 102 -90h164q102 37 102 90t-102 90h-164 q-102 -37 -102 -90z" />
<glyph horiz-adv-x="0" d="M-1608 -399q0 305 348 358h287q117 -18 195 -63q78 45 194 63h287q348 -53 348 -358t-348 -359h-287q-116 19 -194 64q-78 -45 -195 -64h-287q-348 53 -348 359zM-1300 -399q0 -53 102 -90h164q102 37 102 90t-102 90h-164q-102 -37 -102 -90zM-625 -399q0 -53 103 -90 h164q102 37 102 90t-102 90h-164q-102 -37 -103 -90z" />
<glyph horiz-adv-x="0" d="M-1270 -229q61 160 260 188h435q289 0 288 -166q0 -127 -270 -192q270 -66 270 -193q0 -166 -288 -166h-435q-199 29 -260 189l256 82q20 -25 56 -37h331q86 0 86 28q0 27 -202 70v53q203 43 202 70q0 29 -86 29h-331q-35 -12 -56 -37z" />
<glyph horiz-adv-x="2" d="M-1270 -399q0 305 348 358h287q348 -53 348 -358t-348 -359h-287q-348 53 -348 359zM-963 -391q82 12 185 12q102 0 184 -12q-4 88 -102 123h-164q-98 -35 -103 -123zM-944 -498q27 -53 84 -73h164q57 20 84 73q-70 16 -166 17q-96 -1 -166 -17z" />
<glyph horiz-adv-x="0" d="M-1270 -557q0 172 205 172q201 0 289 -160h201q31 12 51 60l-447 141q-156 49 -155 100v6q43 166 233 197h254q170 -29 221 -188l-217 -41q-18 25 -47 37h-168q-37 -14 -55 -33l463 -127q156 -43 155 -154q-39 -180 -245 -211h-521q-217 41 -217 201zM-1036 -489 q0 -55 55 -56h121q-49 90 -148 90q-29 0 -28 -34z" />
<glyph horiz-adv-x="2" d="M-1270 -399q0 305 348 358l62 -268q-102 -37 -103 -90q0 -53 103 -90h164q102 37 102 90t-102 90l61 268q348 -53 348 -358t-348 -359h-287q-348 53 -348 359z" />
<glyph horiz-adv-x="2" d="M-1270 -399q0 305 348 358l62 -268q-102 -37 -103 -90q0 -53 103 -90h110q-8 41 -8 90t2 127l4 153q2 78 117 78q348 -53 348 -358t-348 -359h-287q-348 53 -348 359zM-655 -399q0 -51 12 -90h49q102 37 102 90t-102 90h-49q-12 -39 -12 -90z" />
<glyph horiz-adv-x="2" d="M-1270 -399q0 305 348 358l19 -84q20 -86 40.5 -91t84.5 -5q66 0 85 6t40 90l18 84q348 -53 348 -358t-348 -359h-287q-348 53 -348 359zM-963 -399q0 -53 103 -90h164q102 37 102 90q0 47 -82 82q-45 -6 -102 -7q-56 1 -101 7q-84 -33 -84 -82z" />
<glyph horiz-adv-x="0" d="M-1593 -244q72 164 319 203h287q117 -18 194 -63q78 45 195 63h287q348 -53 348 -358t-348 -359h-144v269h82q102 37 103 90q0 53 -103 90h-164q-102 -37 -102 -90q0 -305 -348 -359h-287q-248 39 -319 203l307 104q25 -20 74 -38h163q103 37 103 90t-103 90h-163 q-49 -18 -74 -39z" />
<glyph horiz-adv-x="2" d="M-1270 -399q0 305 348 358l62 -227q-102 -37 -103 -129q80 14 185 14q104 0 184 -14q0 92 -102 129l61 227q348 -53 348 -358t-348 -359h-287q-348 53 -348 359zM-938 -508q25 -45 78 -63h164q53 18 78 63q-57 23 -160 23t-160 -23z" />
<glyph horiz-adv-x="0" d="M-1608 -399q0 305 348 358h287q348 -53 348 -358q0 -53 103 -90h164q102 37 102 90t-102 90h-82v268h143q348 -53 348 -358t-348 -359h-287q-348 54 -348 359q0 53 -102 90h-164q-102 -37 -102 -90t102 -90h82v-269h-144q-348 53 -348 359z" />
<glyph horiz-adv-x="2" d="M-1270 -399q0 305 348 358h287q348 -53 348 -358t-348 -359h-287q-348 53 -348 359zM-963 -399q0 -53 103 -90h164q102 37 102 90t-102 90h-164q-102 -37 -103 -90z" />
<glyph horiz-adv-x="2" d="M-1640 -573l157 180l105 -96l108 120q18 276 348 328h287q348 -53 348 -358t-348 -359h-287q-247 39 -319 205l-191 -205zM-963 -399q0 -53 103 -90h164q102 37 102 90t-102 90h-164q-102 -37 -103 -90z" />
<glyph horiz-adv-x="471" d="M82 -225v1515q0 471 348 533h2253q348 -61 348 -533v-184h-307v184q0 143 -103 185h-2129q-102 -41 -103 -185v-1515q0 -143 103 -185h2129q102 41 103 185v430h307v-430q0 -471 -348 -533h-2253q-348 61 -348 533z" />
<glyph horiz-adv-x="471" d="M82 -532v1597h307v-1475q0 -82 103 -82h61v-266h-266q-205 0 -205 226z" />
<glyph horiz-adv-x="942" d="M82 -758v1823h307v-1823h-307zM553 -532v1597h307v-1475q0 -82 103 -82h61v-266h-266q-205 0 -205 226z" />
<glyph horiz-adv-x="471" d="M82 -225v1515q0 471 348 533h1167q348 -61 349 -533v-184h-308v184q0 143 -102 185h-1044q-102 -41 -103 -185v-1515q0 -143 103 -185l-62 -348q-348 61 -348 533z" />
<glyph horiz-adv-x="471" d="M82 -225v1515q0 471 348 533l62 -348q-102 -41 -103 -185v-1515q0 -143 103 -185h1044q102 41 102 185v430h308v-430q0 -471 -349 -533h-1167q-348 61 -348 533z" />
<glyph horiz-adv-x="471" d="M82 -225v1515q0 471 348 533l62 -348q-102 -41 -103 -185v-1515q0 -143 103 -185l-62 -348q-348 61 -348 533z" />
<glyph horiz-adv-x="471" d="M82 -225v1515q0 471 348 533h2253q348 -61 348 -533v-184h-307v184q0 143 -103 185h-2129q-102 -41 -103 -185v-1515q0 -143 103 -185h1064v-348h-1126q-348 61 -348 533z" />
<glyph horiz-adv-x="471" d="M82 -225v1515q0 471 348 533h1126v-348h-1064q-102 -41 -103 -185v-1515q0 -143 103 -185h2129q102 41 103 185v430h307v-430q0 -471 -348 -533h-2253q-348 61 -348 533z" />
<glyph horiz-adv-x="471" d="M82 -225v1515q0 471 348 533h1126v-348h-1064q-102 -41 -103 -185v-1515q0 -143 103 -185h1064v-348h-1126q-348 61 -348 533z" />
<glyph d="M82 -88v278q305 -100 440 -100h508q117 43 135 100h-735q-348 51 -348 439q0 385 348 436h729q242 -35 316 -229l-310 -101q-25 31 -67 45h-606q-102 -35 -103 -151q0 -119 103 -152h606q43 12 67 43l310 -98v-156q0 -123 -121 -191.5t-328 -68.5h-637v-100h741 q193 12 345 108v-424q0 -82 102 -82h61v-266h-266q-205 0 -205 226v354h-809zM82 -653l55 71q145 -63 432 -65q297 0 435 67h51v-100h59v-78h-199v68q-121 -37 -346 -37q-381 2 -487 74zM86 -399q0 164 348 192h287q248 -20 319 -108l-307 -58q-25 12 -74 21h-163 q-103 -18 -103 -47t103 -50h163q49 10 74 21l307 -55q-72 -88 -319 -109h-287q-348 29 -348 193z" />
<glyph horiz-adv-x="2641" d="M82 -225v506l309 120q25 -37 68 -53h606q102 41 102 184t-102 185h-606q-43 -16 -68 -53l-309 120q74 238 315 281h729q348 -61 349 -533q0 -143 102 -184h573q102 41 103 184q0 143 -103 185h-184v348h246q348 -61 348 -533q0 -471 -348 -532h-696q-117 20 -195 88 q-78 -68 -195 -88h-729q-4 0 -8 2v-227q0 -143 103 -185h829v-348h-891q-348 61 -348 533z" />
<glyph d="M82 297q0 256 289 256q287 0 409 -205h285q45 18 72 58l-631 208q-221 74 -221 150v10q61 244 329 291h361q242 -43 315 -281l-309 -120q-25 37 -68 53h-237q-51 -20 -78 -47l657 -211q219 -72 220 -146q-55 -268 -349 -313h-737q-307 61 -307 297zM414 399q0 -51 78 -51 h172q-72 102 -211 103q-39 0 -39 -52z" />
<glyph d="M82 532q0 471 348 533h696q348 -61 349 -533v-1044h-308v1044q0 143 -102 185h-573q-102 -41 -103 -185q0 -102 53 -153q82 174 252 174h115q236 0 235 -256q0 -236 -307 -297h-307q-348 61 -348 532zM530 348h125q119 0 119 51q0 72 -80 72q-111 0 -164 -123z" />
<glyph d="M82 -225v506l309 120q25 -37 68 -53h606q102 41 102 184t-102 185h-606q-43 -16 -68 -53l-309 120q74 238 315 281h729q348 -61 349 -533q0 -471 -349 -532h-729q-4 0 -8 2v-227q0 -143 103 -185l-62 -348q-348 61 -348 533z" />
<glyph horiz-adv-x="0" d="M-553 -328q1 287 277 287t276 -287t-276 -286q-276 0 -277 286zM-328 -328q0 -61 52 -61q51 0 51 61t-51 62q-51 0 -52 -62z" />
<glyph horiz-adv-x="471" d="M-498 -397l295 131q15 -109 101 -144h82q102 41 102 185v1290h307v-1290q0 -471 -348 -533h-205q-279 49 -334 361z" />
<glyph horiz-adv-x="0" d="M-954 -426l145 207l125 -125l299 301l207 -145l-506 -508z" />
<glyph horiz-adv-x="0" d="M-102 -246q-1 205 204 205t205 -205t-205 -205t-204 205zM51 -246q0 -51 51 -51q52 0 52 51t-52 51q-51 0 -51 -51z" />
<glyph d="M82 0h125q100 -123 319 -123h508q135 0 441 123v-451q0 -266 -349 -307h-696q-348 33 -348 244q0 217 348 217h387v-152h-325q-102 -23 -103 -65q0 -41 103 -61h573q102 27 102 124v226h-637q-207 0 -327.5 83t-120.5 142zM82 532q0 471 348 533h729q242 -43 316 -281 l-310 -120q-25 37 -67 53h-606q-102 -41 -103 -185q0 -143 103 -184h606q43 16 67 53l310 -120q-74 -238 -316 -281h-729q-348 61 -348 532z" />
<glyph horiz-adv-x="0" d="M-995 -246h176v205h307v-369h-483v164z" />
</font>
</defs>
</svg>
