<?xml version="1.0" standalone="no"?>
<!DOCTYPE svg PUBLIC "-//W3C//DTD SVG 1.1//EN" "http://www.w3.org/Graphics/SVG/1.1/DTD/svg11.dtd" >
<svg xmlns="http://www.w3.org/2000/svg" xmlns:xlink="http://www.w3.org/1999/xlink" version="1.1">
<metadata></metadata>
<defs>
<font id="myanmar_punkregular" horiz-adv-x="1146" >
<font-face units-per-em="2048" ascent="1536" descent="-512" />
<missing-glyph horiz-adv-x="512" />
<glyph unicode="&#x103e;&#x102f;" horiz-adv-x="0" d="M-995 -758l12 21l184 143v553h164v-717h-360zM-512 -41h164v-553l205 -164h-9h-360v717z" />
<glyph unicode="&#x1085;&#x1036;" horiz-adv-x="0" d="M-1012 1311q0 102 90 153q-90 51 -90 154q0 205 297 205q96 0 166 -15h17q-92 -109 -242 -88q-74 -20 -74 -102q0 -102 195 -102v-103q-195 0 -195 -102q0 -82 51 -109q172 27 236 -88l12 6q-70 -14 -166 -14q-297 0 -297 205zM-586 1464q1 226 226 226t225 -226 q0 -225 -225 -225t-226 225zM-442 1464q0 -82 82 -82q81 0 81 82t-81 82q-82 0 -82 -82z" />
<glyph unicode="&#x1085;&#x102d;" horiz-adv-x="0" d="M-1100 1311q0 102 90 153q-90 51 -90 154q0 205 297 205q96 0 139 -150l9 -6q-57 33 -148 33q-133 0 -133 -82q0 -102 195 -102l14 -56q-209 -47 -209 -149q0 -82 133 -82q90 0 148 33v14q-51 -170 -148 -170q-297 0 -297 205zM-662 1464q1 359 308 359t307 -359 q0 -358 -307 -358t-308 358zM-506 1464q0 -195 152 -194q152 0 151 194q1 195 -151 195t-152 -195z" />
<glyph unicode="&#x1085;&#x102e;" horiz-adv-x="0" d="M-1100 1311q0 102 90 153q-90 51 -90 154q0 205 297 205q96 0 152 -170l-4 14q-57 33 -148 33q-133 0 -133 -82q0 -102 195 -102l32 -35q-227 -68 -227 -170q0 -82 133 -82q90 0 148 33l10 -15q-61 -141 -158 -141q-297 0 -297 205zM-662 1464q1 359 308 359t307 -359 q0 -358 -307 -358t-308 358zM-506 1458q74 27 152 27q77 0 151 -27v6q0 195 -151 195q-152 0 -152 -195v-6zM-489 1348q31 -98 135 -99q104 0 135 99q-63 35 -135 34q-72 1 -135 -34z" />
<glyph unicode="&#x102d;&#x1036;" horiz-adv-x="0" d="M-1102 1464q0 359 307 359t308 -359q0 -358 -308 -358q-307 0 -307 358zM-946 1464q0 -195 151 -194q152 0 152 194q0 195 -152 195t-151 -195zM-453 1464q0 226 205 226t205 -226q0 -225 -205 -225t-205 225zM-324 1464q0 -82 76 -82t76 82t-76 82t-76 -82z" />
<glyph unicode="&#x100d;&#x1039;&#x100d;" d="M57 471q231 -150 516 -149q328 0 328 286q0 293 -328 293q-285 0 -481 -147l-10 2q78 309 491 309q492 0 492 -457q0 -451 -492 -450q-160 0 -327 73v-153q176 -72 327 -72q258 0 492 135v-6v-729l164 -156v-8h-328v672q-141 -43 -328 -43q-307 0 -491 141v449zM82 -449 l2 11q182 -41 311 -41q195 0 195 94t-195 94q-129 0 -311 -45l2 14q47 158 309 158q358 0 359 -221q0 -221 -359 -221q-43 0 -149 33v-33h-6q113 -33 159 -33q219 0 320 72h39v-107l76 -67l-15 -17h-164v72q-90 -39 -256 -39q-240 2 -317 80v196z" />
<glyph unicode="&#x100e;&#x1039;&#x100d;" horiz-adv-x="1433" d="M82 532q0 119 70 201q37 41 151 105v63h-221v17l221 65q205 82 205 -109q0 -152 -131 -196.5t-131 -145.5q0 -369 471 -368q137 0 231 35l25 96q-90 -29 -256 -29q-281 2 -359 60l41 59q106 -53 318 -55q219 0 319 55h39v-106q113 80 113 253q0 326 -209 510l12 23 q360 -78 361 -533q0 -352 -318 -491v-635l367 -156l-162 -8h-369v766q-72 -8 -153 -8q-635 0 -635 532zM362 477l52 -14q170 -10 299 -10q154 0 153 71q0 72 -153 72q-217 0 -103 -10l-248 -15q47 121 351 121q358 0 358 -168t-358 -168q-303 0 -351 121z" />
<glyph unicode="&#x100f;&#x1039;&#x100d;" horiz-adv-x="1966" d="M82 0v614q0 451 430 451q152 0 262 -84q162 49 197 422q45 -344 221 -422q111 84 262 84q430 0 430 -451v-614h-78q-12 -197 -170 -197v-8q-111 0 -110 -108h-4v-150q0 -291 -181 -291l-454 -4l-2 19q94 170 94 340q0 195 -195 194q-195 0 -194 -194q0 -170 108 -361 l-16 2q-256 55 -256 359q0 358 358 358t359 -358q0 -84 -21 -191h117q119 0 119 127v150h4q0 272 274 272v8q61 0 80 2l-8 51l147 -40l-135 634q0 287 -266 287t-266 -369q0 -217 102 -305q-170 -180 -319 -315q31 74 -295 315q102 88 102 305q0 369 -266 369t-266 -287 l-162 -614h-2zM850 901q92 -131 92 -369q0 -233 -90 -366q6 -63 131 -64q125 1 131 64q-90 133 -90 366q0 238 92 369q-37 61 -133 62q-96 0 -133 -62z" />
<glyph unicode="&#x103e;&#x1030;" horiz-adv-x="0" d="M-1139 -758l115 56l102 108v553h164v-717h-381zM-655 -41h163l-53 -602l-35 -242zM-389 -41h164v-553l135 -102l82 -62h-381v717z" />
<glyph unicode="&#x102b;&#x103a;" horiz-adv-x="327" d="M-451 1366q0 375 349 375q180 0 266 -101q86 100 266 101q348 0 348 -375l19 -244q-94 528 -367 455q-184 0 -184 -211v-1366h-164v1366q0 211 -184 211q-170 88 -347 -225z" />
<glyph unicode="&#x103d;&#x1037;" horiz-adv-x="20" d="M-1116 -399q73 309 358 575q256 -217 359 -575q0 -358 -359 -359q-358 0 -358 359zM-952 -399q0 -195 194 -195q195 0 195 195q0 194 -195 194t-194 -194zM-391 -287q47 158 192 443q164 -238 217 -443q0 -225 -204 -225q-205 0 -205 225zM-262 -287q0 -82 76 -82 q75 0 75 82t-75 82q-76 0 -76 -82z" />
<glyph unicode="&#xd;" horiz-adv-x="1040" />
<glyph unicode=" "  horiz-adv-x="512" />
<glyph unicode="&#x09;" horiz-adv-x="512" />
<glyph unicode="&#xa0;" horiz-adv-x="512" />
<glyph unicode="&#x1000;" horiz-adv-x="1966" d="M82 451v163q0 451 491 451q291 0 410 -158q119 158 410 158q492 0 491 -451v-163q0 -451 -491 -451l-95 14q422 150 422 437v163q0 287 -327 287q-328 0 -316 -213l-67 -696l-21 2l-108 682q20 225 -260 190q-375 35 -375 -252l6 -211q-6 -240 465 -407l-144 4 q-492 0 -491 451z" />
<glyph unicode="&#x1001;" d="M57 635l25 98q59 332 491 332q492 0 492 -451v-163q0 -451 -492 -451q-432 0 -491 332l-21 78q20 31 60.5 56.5t214.5 18.5q254 6 500 -233q65 72 65 199v163q0 287 -328 287q-305 0 -516 -266zM240 389q33 -225 333 -225q106 0 273 86q-281 131 -555 139h-51z" />
<glyph unicode="&#x1002;" d="M82 614q0 451 491 451q492 0 492 -451l-94 -403l-70 -211v614q0 287 -328 287t-327 -287v-614l-96 276z" />
<glyph unicode="&#x1003;" horiz-adv-x="1966" d="M-14 911l317 154q205 0 205 -191q0 -131 -131 -186t-131 -156v-81q0 -287 327 -287q328 0 355 495l55 439l-27 -21l82 -477q27 -436 355 -436t327 287v163q0 287 -544 410l217 41q492 0 491 -451v-163q0 -451 -491 -451q-291 0 -410 158q-119 -158 -410 -158 q-492 0 -491 451v81q0 78 53 160t170 129q39 16 39 49q0 31 -41 31h-221z" />
<glyph unicode="&#x1004;" d="M82 451v163q0 451 491 451q432 0 492 -332l10 -43q-197 211 -502 211q-328 0 -327 -287v-163q0 -287 327 -287q305 0 496 198l-4 -30q-59 -332 -492 -332q-492 0 -491 451z" />
<glyph unicode="&#x1005;" d="M82 451v163q0 451 491 451q492 0 492 -451v-163q0 -451 -492 -451t-491 451zM221 532q283 103 125 312q-100 -70 -100 -230v-163q0 -160 100 -230q119 223 -125 311zM444 178q57 -14 129 -14q328 0 328 287v163q0 287 -328 287q-72 0 -129 -14q41 -291 373 -355 q-334 -37 -373 -354z" />
<glyph unicode="&#x1006;" horiz-adv-x="1966" d="M82 332v57q0 51 40 77t138 26q330 0 576 -240q66 72 65 199l19 135q-18 315 -347 315q-305 0 -489 -203l-2 35q59 332 491 332q291 0 410 -158q119 158 410 158q492 0 491 -451v-163q0 -451 -491 -451q-291 0 -410 158q-119 -158 -410 -158q-432 0 -491 332zM240 389 q33 -225 333 -225q106 0 179 31q-187 186 -461 194h-51zM1065 614l14 -131q109 -246 346 -368q295 49 351 336l24 159q-80 291 -342 -47q-237 547 -393 51z" />
<glyph unicode="&#x1007;" d="M82 451v163q-1 451 491 451q416 0 492 -369l-45 -12q31 -123 317 -242l-118 -8q-193 25 -267 139q-55 -55 -166 -55q-225 0 -225 225q0 68 146 152q-129 6 -134 6q-328 0 -327 -287v-163q0 -287 327 -287q305 0 334 231l31 13q68 -408 -365 -408q-492 0 -491 451z M664 743q0 -123 122 -122q56 0 115 43q-37 150 -174 204q-63 -66 -63 -125z" />
<glyph unicode="&#x1008;" horiz-adv-x="1474" d="M82 451v163q0 451 491 451q492 0 492 -451v-163q0 -396 -379 -445v-399q0 -201 182 -201h179q182 0 182 201v1458l49 -55l115 -1403q0 -365 -346 -365h-179q-346 0 -346 365v395q-440 23 -440 449zM246 451q0 -160 141 -89q63 -20 199 170q-123 171 -281 177 q-59 66 -59 -95v-163zM444 178q57 -14 129 -14q328 0 328 287v163q0 287 -328 287q-72 0 -129 -14q109 -141 312 -355q-203 -213 -312 -354z" />
<glyph unicode="&#x1009;" d="M82 332l70 -66q117 -102 421 -102q328 0 328 287v163q0 287 -328 287q-305 0 -448 -129l-43 -39q59 332 491 332q492 0 492 -451v-163q0 -451 -492 -451q-207 0 -327 76v-428q0 -242 284 -242h416q283 0 283 242v270l28 -39l136 -231q0 -406 -447 -406h-416 q-449 0 -448 406v684z" />
<glyph unicode="&#x100a;" horiz-adv-x="1966" d="M82 332l61 -51q125 -117 430 -117q328 0 328 287v163q0 287 -328 287q-305 0 -409 -117l-82 -51q59 332 491 332q492 0 492 -451v-163q0 -287 328 -287t327 287v614l29 -88l135 -526q0 -451 -491 -451q-291 0 -410 158q-119 -158 -410 -158q-207 0 -327 76v-428 q0 -242 284 -242h908q283 0 282 242l135 223l29 47v-270q0 -406 -446 -406h-908q-449 0 -448 406v684z" />
<glyph unicode="&#x100b;" d="M82 -18l47 -5q186 -100 444 -100q152 0 328 80v119q-121 -76 -328 -76q-492 0 -491 451v163q0 451 491 451q432 0 492 -332l-2 -16q-184 184 -490 184q-328 0 -327 -287v-163q0 -287 327 -287q305 0 488 178l4 -10v-391q-184 -166 -492 -166q-145 0 -327 69v-133 q184 -59 327 -59q291 0 492 131v-377l170 -156l-6 -8h-328v342q-186 -35 -328 -35q-281 0 -491 109v324z" />
<glyph unicode="&#x100c;" d="M82 -432q0 326 387 326l217 -148l-6 -16h-211q-223 0 -223 -162t223 -162h211q221 0 221 242v428q-121 -76 -328 -76q-492 0 -491 451v163q0 451 491 451q432 0 492 -332l-10 -28q-176 197 -482 196q-328 0 -327 -287v-163q0 -287 327 -287q305 0 463 149l29 19v-684 q0 -406 -385 -406h-211q-387 0 -387 326z" />
<glyph unicode="&#x100d;" d="M82 -162v494l84 -45q102 -123 407 -123q328 0 328 287v163q0 287 -328 287q-305 0 -469 -164l-22 -4q59 332 491 332q492 0 492 -451v-163q0 -451 -492 -451q-206 0 -327 76v-160q176 -80 327 -80q258 0 504 162l-12 -16v-576l170 -162l-6 -2h-328v520q-182 -90 -328 -90 q-307 0 -491 166z" />
<glyph unicode="&#x100e;" d="M82 451v81q0 78 53 160t170 129q39 16 39 49q0 31 -41 31h-221l14 14l207 150q205 0 205 -191q0 -131 -131 -186t-131 -156v-81q0 -287 327 -287q328 0 328 287l162 608l2 6v-614q0 -451 -492 -451t-491 451z" />
<glyph unicode="&#x100f;" horiz-adv-x="1966" d="M82 0v614q0 451 430 451q152 0 262 -84q190 31 197 428q53 -356 221 -428q111 84 262 84q430 0 430 -451v-614l-29 8l-135 606q0 287 -266 287t-266 -369q0 -217 102 -305q-223 -227 -301 -491q-8 158 -313 491q102 88 102 305q0 369 -266 369t-266 -287l-135 -606z M850 901q92 -131 92 -369q0 -233 -90 -366q6 -63 131 -64q125 1 131 64q-90 133 -90 366q0 238 92 369q-37 61 -133 62q-96 0 -133 -62z" />
<glyph unicode="&#x1010;" horiz-adv-x="2129" d="M82 451v163q0 451 491 451q291 0 410 -158q119 158 410 158q492 0 491 -451l-162 -655l-2 41v614q0 287 -327 287q-328 0 -328 -287v-163q0 -451 -492 -451t-491 451zM246 451q0 -287 327 -287q328 0 328 287v163q0 287 -328 287t-327 -287v-163z" />
<glyph unicode="&#x1011;" horiz-adv-x="1966" d="M82 451v163q0 451 491 451q291 0 410 -158q119 158 410 158q492 0 491 -451v-163q0 -451 -491 -451q-291 0 -410 158q-119 -158 -410 -158q-477 -14 -491 451zM246 451q137 -492 354 -105q262 -372 301 105v163q0 287 -328 287t-327 -287v-163zM1065 451q0 -287 328 -287 t327 287v163q-76 516 -307 -4q-227 528 -348 4v-163z" />
<glyph unicode="&#x1012;" d="M82 334l70 -68q94 -102 421 -102q328 0 328 149q-109 227 -442 49l-279 183l299 172l135 -90q287 0 287 125q0 150 -328 149q-328 0 -421 -90l-70 -80q0 334 491 334q492 0 492 -313q0 -147 -178 -220q178 -70 178 -219q0 -313 -492 -313t-491 334z" />
<glyph unicode="&#x1013;" d="M82 451v163q0 451 491 451q492 0 492 -451v-163q0 -451 -492 -451t-491 451zM246 461q121 72 327 71q207 1 328 -71v153q0 287 -328 287t-327 -287v-153zM260 346q53 -182 313 -182t314 182q-324 152 -314 -151q-10 315 -313 151z" />
<glyph unicode="&#x1014;" d="M82 307q0 184 205 185q109 0 250 -82q98 -70 116 -242q248 16 248 160q0 94 -162 137l-194 57q-299 86 -299 277q0 266 307 266q348 0 348 -287v-6q-164 129 -348 129q-143 0 -143 -102q0 -66 161 -115l195 -57q299 -80 299 -299q0 -295 -410 -324l-135 -741l-28 -21v762 q-410 27 -410 303zM246 307q-1 -125 243 -139q-16 201 -182 201q-61 0 -61 -62z" />
<glyph unicode="&#x1015;" d="M82 451v614l35 -174l129 -440q0 -287 327 -287q328 0 328 287l141 473l23 141v-614q0 -451 -492 -451t-491 451z" />
<glyph unicode="&#x1016;" d="M82 451l135 596l29 18v-614q0 -287 327 -287q303 0 326 246q-285 160 -285 354q0 301 205 301q246 0 246 -246v-368q0 -451 -492 -451t-491 451zM717 764q0 -121 196 -371l-12 426q0 82 -82 82q-102 0 -102 -137z" />
<glyph unicode="&#x1017;" d="M82 451v178q0 371 332 436l-82 -129q104 -37 90 -41q59 -61 151 -61t152 61q-14 4 66 14l-58 156q332 -66 332 -436v-178q0 -451 -492 -451t-491 451zM246 451q0 -287 327 -287q328 0 328 287v178q0 139 -78 211q-236 -88 -262 -426q89 262 -237 426q-78 -72 -78 -211 v-178z" />
<glyph unicode="&#x1018;" horiz-adv-x="1966" d="M70 348q199 -184 503 -184q328 0 328 287v163q0 287 -328 287q-305 0 -469 -149l-22 -19q59 332 491 332q291 0 410 -158q119 158 410 158q492 0 491 -451v-614l-8 -8l-156 622q0 287 -327 287q-328 0 -328 -287v-163q0 -451 -492 -451q-432 0 -491 332z" />
<glyph unicode="&#x1019;" d="M82 451v614l43 -74l121 -530q121 72 327 71q207 0 328 -71l164 577v27v-614q0 -451 -492 -451t-491 451zM260 346q53 -182 313 -182t314 182q-330 186 -322 -145q4 364 -305 145z" />
<glyph unicode="&#x101a;" horiz-adv-x="1966" d="M82 451v163q0 451 491 451l-34 -35q-293 -129 -293 -416v-163q0 -287 327 -287q403 80 400 377l76 524l8 -14l55 -486q-82 -260 281 -401q328 0 327 287v163q0 287 -245 381l-82 70q492 0 491 -451v-163q0 -451 -491 -451q-291 0 -410 158q-119 -158 -410 -158 q-492 0 -491 451z" />
<glyph unicode="&#x101b;" d="M82 451v163q-1 451 491 451t492 -451v-1208l158 -141l6 -23h-328v1372q0 287 -328 287t-327 -287v-2q532 -256 532 -393q0 -219 -205 -219q-492 0 -491 451zM240 618l6 -167q-1 -287 327 -287q102 0 103 55q0 70 -436 399z" />
<glyph unicode="&#x101c;" horiz-adv-x="1966" d="M82 451v163q0 451 491 451q492 0 492 -451v-163q0 -287 328 -287t327 287v163q0 287 -219 408l-108 43q492 0 491 -451v-163q0 -451 -491 -451q-492 0 -492 451v163q0 287 -328 287t-327 -287v-163q0 -287 254 -410l73 -41q-492 0 -491 451z" />
<glyph unicode="&#x101d;" d="M82 451v163q0 451 491 451q492 0 492 -451v-163q0 -451 -492 -451t-491 451zM258 590l14 -125q-27 -301 301 -301t299 334l2 114q27 289 -301 289t-315 -311z" />
<glyph unicode="&#x101e;" horiz-adv-x="1966" d="M82 332l35 -4q152 -164 456 -164q328 0 328 287v163q0 287 -328 287q-305 0 -421 -108l-70 -60q59 332 491 332q492 0 492 -451v-163q0 -287 328 -287t327 287l162 622l2 -8v-614q0 -451 -491 -451q-291 0 -410 158q-119 -158 -410 -158q-432 0 -491 332z" />
<glyph unicode="&#x101f;" horiz-adv-x="1966" d="M82 451v614l43 -41l121 -573q0 -287 327 -287q328 0 328 287v614l82 -53l82 -27q121 80 328 80q492 0 491 -451v-614h-29l-135 614q0 287 -327 287q-328 0 -328 -287v-163q0 -451 -492 -451t-491 451z" />
<glyph unicode="&#x1020;" d="M82 -18l43 16q190 -162 448 -162q152 0 328 80v160q-121 -76 -328 -76q-492 0 -491 451v163q0 451 491 451q432 0 492 -332l4 -16q-190 184 -496 184q-328 0 -327 -287v-163q0 -287 327 -287q305 0 476 164l16 4v-494q-184 -166 -492 -166q-145 0 -327 90v-176 q0 -180 223 -180h211q221 0 383 186l2 -6q0 -344 -385 -344h-211q-387 0 -387 344v396z" />
<glyph unicode="&#x1021;" horiz-adv-x="1966" d="M82 334h29q135 -170 462 -170q328 0 328 149q-182 307 -260 15l-109 14l-411 205l500 237q72 -367 280 -32q0 150 -328 149q-328 0 -442 -158l-49 -12q0 334 491 334q320 0 431 -131q123 131 389 131q492 0 491 -451v-368q0 -246 -246 -246q-205 0 -204 301 q0 195 284 354q-23 246 -325 246q-264 0 -328 -162q-8 -137 -178 -207q178 -70 178 -219q0 -313 -492 -313t-491 334zM1536 301q0 -137 102 -137q82 0 82 82v426q-184 -250 -184 -371z" />
<glyph unicode="&#x1022;" horiz-adv-x="1966" d="M76 23l266 86q2 55 2 86q0 33 -39 49q-117 47 -170 129t-53 159v82q0 451 491 451q291 0 410 -158q119 158 410 158q492 0 491 -451v-163q0 -451 -491 -451l-13 10q340 154 340 441v163q0 287 -327 287q-328 0 -328 -287l-88 -628l-14 -15l-62 643q0 287 -328 287 t-327 -287v-82q0 -100 131 -155t131 -187q0 -190 -205 -190h-221z" />
<glyph unicode="&#x1023;" horiz-adv-x="1966" d="M82 451v163q0 451 491 451q291 0 410 -158q119 158 410 158q492 0 491 -451v-163q0 -451 -491 -451l14 16q313 147 313 435v163q0 287 -327 287q-328 0 -328 -287l-61 -614h-29l-74 614q0 287 -328 287t-327 -287v-163q0 -287 334 -437l-7 -14q-492 0 -491 451zM389 -399 q0 358 359 358q166 0 256 -98q90 98 256 98q358 0 358 -358q0 -88 -129 -283l307 -59l6 -17h-542q-35 0 -66 4l37 162q-59 -150 -33 -131q256 129 256 324t-194 194q-154 0 -154 -194q0 -303 -256 -351l-2 13q94 168 94 338q0 195 -194 194q-195 0 -195 -194 q0 -170 117 -346l-25 -5q-256 47 -256 351z" />
<glyph unicode="&#x1024;" horiz-adv-x="2293" d="M82 -432q0 326 375 291l1075 -107l-12 -22h-1051q-223 0 -223 -162t223 -162h1030q221 0 221 242v966q0 287 -327 287q-328 0 -328 -287l-59 -655l-23 -6l-82 661q0 287 -328 287t-327 -287v-163q0 -287 348 -457l-21 6q-492 0 -491 451v163q0 451 491 451 q291 0 410 -158q119 158 410 158q492 0 491 -451v-966q0 -406 -385 -406h-1030q-387 0 -387 326zM1321 1464q0 358 358 359q358 0 359 -359l26 -41q-190 236 -385 236t-194 -195q-1 -194 194 -194q532 0 533 -656l-109 -1413l-8 -20l-47 1433q0 492 -369 492 q-358 0 -358 358z" />
<glyph unicode="&#x1025;" d="M82 332l57 -4q129 -164 434 -164q328 0 328 287v163q0 287 -328 287q-305 0 -481 -184l-10 16q59 332 491 332q492 0 492 -451v-163q0 -451 -492 -451q-207 0 -327 76v-428q0 -242 221 -242h211q223 0 223 162t-223 162h-211l-8 8l213 88q393 68 393 -258t-387 -326h-211 q-385 0 -385 406v684z" />
<glyph unicode="&#x1026;" d="M49 340q219 -176 524 -176q328 0 328 287v163q0 287 -328 287q-305 0 -469 -170l-22 2q59 332 491 332q492 0 492 -451v-163q0 -451 -492 -451q-207 0 -327 76v-428q0 -242 221 -242h211q223 0 223 162t-223 162h-211v22l217 80q381 61 381 -264q0 -326 -387 -326h-211 q-385 0 -385 406v684zM215 1464q0 359 358 359t359 -359q0 -358 -359 -358q-358 0 -358 358zM379 1446q113 39 194 39q82 0 195 -39v18q0 195 -195 195t-194 -195v-18zM410 1341q45 -72 163 -71q119 0 164 71q-141 80 -164 -53q-24 135 -163 53z" />
<glyph unicode="&#x1027;" d="M82 451v163q0 451 491 451q432 0 492 -291v-57q0 -51 -40 -77t-138 -26q-330 0 -502 246q-139 -119 -139 -246v-163q0 -127 65 -199q246 199 576 199q98 0 138 -26t40 -77v-57q-59 -291 -492 -291q-492 0 -491 451zM322 242q145 -78 251 -78q301 0 334 184h-51 q-274 -8 -534 -106zM395 870q187 -145 461 -153h51q-33 184 -334 184q-106 0 -178 -31z" />
<glyph unicode="&#x1028;" d="M82 -307v921q0 451 491 451q492 0 492 -451v-163q0 -451 -279 -451q-322 0 -321 264v150l82 39q129 57 129 120q0 82 -101 82q-104 0 -104 -98h-102q0 201 206 201q203 0 203 -185q1 -92 -149 -180v-129q0 -100 157 -100q115 0 115 287v163q0 287 -328 287t-327 -287 v-921q0 -287 327 -287q328 0 328 287h164q0 -451 -492 -451t-491 451z" />
<glyph unicode="&#x1029;" horiz-adv-x="2293" d="M82 -332v1729q0 426 434 379l1112 -101l14 -16h-1112q-285 0 -284 -262v-1729q0 -262 284 -262h826q283 0 282 262v336q-227 18 -327 154q-119 -158 -410 -158q-432 0 -491 332l-7 -10q193 -158 498 -158q328 0 328 287v163q0 287 -328 287q-305 0 -489 -170l-2 2 q59 332 491 332q492 0 492 -451v-163q0 -287 327 -287q328 0 328 287v614h20l103 -580q41 -446 -369 -481v-336q0 -426 -446 -426h-826q-449 0 -448 426z" />
<glyph unicode="&#x102a;" horiz-adv-x="4259" d="M82 451v163q0 451 491 451q432 0 492 -332l-2 -10q-184 178 -490 178q-328 0 -327 -287v-163q-1 -127 65 -199q246 240 576 240q98 0 138 -26t40 -77v-57q-59 -332 -492 -332q-492 0 -491 451zM287 242q180 -78 286 -78q301 0 334 225h-51q-274 -8 -569 -147zM1229 -332 v1729q0 426 448 385l1571 -121l12 -2h-1583q-285 0 -284 -262v-1729q0 -262 284 -262h826q283 0 282 262v336q-227 18 -327 154q-119 -158 -410 -158q-432 0 -492 332l-4 -10q190 -158 496 -158q328 0 328 287v163q0 287 -328 287q-305 0 -504 -190l12 22q59 332 492 332 q492 0 492 -451v-163q0 -287 327 -287q328 0 328 287v614l35 -14l67 -127q182 141 389 141q492 0 492 -451v-614l-16 -20l-107 655q-41 266 -369 266q-327 0 -327 -287v-163q0 -412 -410 -447v-336q0 -426 -446 -426h-826q-449 0 -448 426zM3369 1464q0 358 358 359 q358 0 359 -359l33 -47q-197 242 -392 242t-194 -195q0 -195 227 -356l-33 -2q-358 0 -358 358z" />
<glyph unicode="&#x102b;" horiz-adv-x="327" d="M-455 1378l4 -12q0 375 349 375q348 0 348 -375v-1366l-8 -27l-144 1346q-12 232 -108 326q-272 68 -441 -267z" />
<glyph unicode="&#x102c;" horiz-adv-x="819" d="M-246 614q0 451 492 451t491 -451v-614l-16 -6l-100 620q-47 287 -375 287t-475 -301z" />
<glyph unicode="&#x102d;" horiz-adv-x="0" d="M-932 1464q1 359 359 359t358 -359q0 -358 -358 -358t-359 358zM-750 1452q-18 -182 177 -182t-2 200q197 189 2 189t-177 -207z" />
<glyph unicode="&#x102e;" horiz-adv-x="0" d="M-932 1464q1 359 359 359t358 -359q0 -358 -358 -358t-359 358zM-768 1446q113 39 195 39q81 0 194 -39v18q0 195 -194 195q-195 0 -195 -195v-18zM-737 1341q45 -72 164 -71q119 0 163 71q-139 55 -170 -67q-24 143 -157 67z" />
<glyph unicode="&#x102f;" horiz-adv-x="0" d="M-655 -41h163v-553l453 -156l-256 -8h-360v717z" />
<glyph unicode="&#x1030;" horiz-adv-x="0" d="M-819 -41h164v-717l-9 -94zM-492 -41h164v-553l344 -164h-147h-361v717z" />
<glyph unicode="&#x1031;" d="M82 451v163q0 451 491 451q432 0 492 -332l31 -16q-217 184 -523 184q-328 0 -327 -287v-163q-1 -127 65 -199q246 240 576 240q98 0 138 -26t40 -77v-57q-59 -332 -492 -332q-492 0 -491 451zM307 242q160 -78 266 -78q301 0 334 225h-51q-275 -8 -549 -147z" />
<glyph unicode="&#x1032;" horiz-adv-x="0" d="M-817 1819l508 -496l-21 -223l-342 483z" />
<glyph unicode="&#x1033;" horiz-adv-x="0" d="M-932 1464q1 359 359 359t358 -359q0 -358 -358 -358t-359 358zM-788 1464q0 -215 215 -215t215 215t-215 215t-215 -215zM-707 1464q1 133 134 133t133 -133t-133 -133t-134 133zM-604 1464q0 -31 31 -30q30 -1 30 30t-30 31q-31 0 -31 -31z" />
<glyph unicode="&#x1034;" horiz-adv-x="0" d="M-934 1214l604 605l115 -115l-602 -604z" />
<glyph unicode="&#x1035;" horiz-adv-x="0" d="M-932 1464q0 358 359 359q287 0 344 -232h4q-190 68 -348 68q-195 0 -195 -242v41q104 27 195 27q131 0 236.5 -44t105.5 -112q-59 -223 -342 -223q-358 0 -359 358zM-788 1456q76 -207 215 -207t174 99q-90 35 -195 67q-63 -33 -194 41z" />
<glyph unicode="&#x1036;" horiz-adv-x="0" d="M-799 1331q188 299 219 549q293 -324 273 -555q-41 -219 -266 -219t-226 225zM-655 1331q0 -82 82 -82q81 0 81 82t-81 82q-82 0 -82 -82z" />
<glyph unicode="&#x1037;" horiz-adv-x="0" d="M-819 -266q21 164 246 164t225 -226q-188 -238 -225 -528q-293 303 -246 590zM-655 -328q0 -82 82 -82q81 0 81 82t-81 82q-82 0 -82 -82z" />
<glyph unicode="&#x1038;" horiz-adv-x="614" d="M70 463q12 -13 237 -60q225 47 219 58q-70 -420 -198 -631q-178 229 -258 633zM82 840q191 210 211 448q139 -256 239 -448q-162 -172 -239 -340q-37 154 -211 340zM225 225q0 -82 82 -82t82 82t-82 82t-82 -82zM225 840q0 -82 82 -82t82 82t-82 82t-82 -82z" />
<glyph unicode="&#x1039;" horiz-adv-x="0" d="M-829 -117l211 -116l-115 200l325 -2l-114 -190l184 96v-328l-184 129l102 -184h-307l102 184l-204 -114v325z" />
<glyph unicode="&#x103a;" horiz-adv-x="0" d="M-932 1464q0 358 359 359q358 0 358 -359v-41q-163 236 -358 236t-195 -195t207 -350l-12 -8q-358 0 -359 358z" />
<glyph unicode="&#x103b;" horiz-adv-x="327" d="M-399 -41l16 21l94 -394l500 -264l-129 1743h164v-1823l-117 35l-528 215v467z" />
<glyph unicode="&#x103c;" horiz-adv-x="327" d="M82 -332v1729q0 426 448 426h416q446 0 447 -426v-168l18 -21l-121 283q-61 168 -344 168h-416q-285 0 -284 -262v-1729q0 -262 284 -262h416q283 0 371 254l82 360l-6 -20v-332q0 -426 -447 -426h-416q-449 0 -448 426z" />
<glyph unicode="&#x103d;" horiz-adv-x="0" d="M-932 -399q1 358 359 358t358 -358t-358 -359q-358 0 -359 359zM-768 -399q0 -195 195 -195t194 195q1 194 -194 194t-195 -194z" />
<glyph unicode="&#x103e;" horiz-adv-x="0" d="M-920 -762l265 168v553h163v-717h-360z" />
<glyph unicode="&#x103f;" horiz-adv-x="2785" d="M82 332l16 2q170 -170 475 -170q328 0 328 287v163q0 287 -328 287q-305 0 -489 -184l-2 16q59 332 491 332q492 0 492 -451v-163q0 -287 328 -287q463 223 151 463l223 397l23 -18l250 -371q-297 -287 172 -471q328 0 366 293l109 616l16 -8v-614q0 -451 -491 -451 q-291 0 -410 158q-119 -158 -409 -158q-291 0 -410 158q-119 -158 -410 -158q-432 0 -491 332z" />
<glyph unicode="&#x1040;" d="M82 451v163q0 451 491 451q492 0 492 -451v-163q0 -451 -492 -451t-491 451zM246 451q0 -287 327 -287q328 0 328 287v163q0 287 -328 287t-327 -287v-163z" />
<glyph unicode="&#x1041;" d="M82 332l35 -19q152 -150 456 -149q328 0 328 287v163q0 287 -328 287q-305 0 -481 -184l-10 16q59 332 491 332q492 0 492 -451v-163q0 -451 -492 -451q-432 0 -491 332z" />
<glyph unicode="&#x1042;" d="M78 -82q168 -369 495 -369q328 0 404 383l86 1147l2 -14v-1147q0 -532 -492 -532q-491 0 -491 532h-4z" />
<glyph unicode="&#x1043;" d="M82 332l16 8q170 -176 475 -176q328 0 328 287v163q0 287 -328 287q-305 0 -475 -184l-16 16q59 332 491 332q492 0 492 -451v-163q0 -451 -492 -451q-29 0 -57 2l324 -514l-21 -20l-604 604l14 14q-119 84 -147 246z" />
<glyph unicode="&#x1044;" d="M82 451v163q0 451 491 451q432 0 492 -332l-16 -16q-170 184 -476 184q-328 0 -327 -287v-163q0 -287 327 -287q305 0 490 164l2 4q-29 -162 -147 -246l14 -14l-604 -604l-6 14l309 520q-29 -2 -58 -2q-492 0 -491 451z" />
<glyph unicode="&#x1045;" d="M53 565q29 500 520 500q492 0 492 -533v-608q0 -539 -492 -538q-492 0 -491 538l29 -41q135 -334 462 -334q328 0 328 375v608q0 369 -328 369q-188 0 -309 -137l-71 -203q340 197 339 -29q0 -225 -225 -225t-254 258zM225 532q0 -82 82 -81q82 -1 82 81t-164 74 q0 8 0 -74z" />
<glyph unicode="&#x1046;" d="M82 532v615q0 532 491 532q492 0 492 -532l18 -41q-182 410 -510 410t-327 -369v-615q0 -369 327 -368q295 0 324 328l-371 186q-104 49 -104 162q0 225 225 225t219 -387q6 80 -22 29l16 -9l205 -102v-64q0 -532 -492 -532t-491 532zM565 840q0 -61 305 -150 q-140 88 7 27q-147 205 -230 205q-82 0 -82 -82z" />
<glyph unicode="&#x1047;" d="M82 594q0 471 491 471q492 0 492 -533q0 -274 -317.5 -498t-317.5 -444q0 -143 133 -143t160 96l121 144l16 6v-103q0 -307 -297 -307t-297 307q0 270 317.5 494.5t317.5 447.5q0 369 -328 369t-327 -307q0 -203 203 -481l-19 10q-348 82 -348 471z" />
<glyph unicode="&#x1048;" d="M82 451v163q0 451 491 451q492 0 492 -451v-614l-21 -20l-88 634q-55 287 -383 287t-327 -287v-2q532 -256 532 -393q0 -219 -205 -219q-492 0 -491 451zM240 633l6 -182q-1 -287 327 -287q102 0 103 55q0 70 -436 414z" />
<glyph unicode="&#x1049;" d="M82 -82v614q0 532 491 533q492 0 492 -533v-63l-205 -102l-198 -76q211 16 210 -66q0 -225 -225 -225t-225 225q0 113 104 162l371 186q-29 328 -324 328q-328 0 -327 -369v-614q0 -369 327 -369q328 0 510 410l-18 -41q0 -532 -492 -532t-491 532zM565 225q0 -82 82 -82 t82 82q0 62 -82 62t-82 -62z" />
<glyph unicode="&#x104a;" horiz-adv-x="327" d="M82 0v483l164 582v-1065h-164z" />
<glyph unicode="&#x104b;" horiz-adv-x="614" d="M82 0v1065l164 -520v-545h-164zM369 0l6 395l157 670v-1065h-163z" />
<glyph unicode="&#x104c;" d="M78 -401q168 -193 389 -193h211q223 0 223 180v176q-182 -90 -328 -90q-307 0 -491 166v494l22 10q164 -178 469 -178q328 0 328 287v163q0 287 -328 287q-305 0 -469 -184l-22 16q59 332 491 332q492 0 492 -451v-163q0 -451 -492 -451q-207 0 -327 76v-160 q176 -80 327 -80q258 0 471 156l21 -10v-396q0 -344 -387 -344h-211q-385 0 -385 344zM215 1464q0 358 358 359q358 0 359 -359l-2 -14q-162 209 -357 209t-194 -195q0 -195 207 -356l-13 -2q-358 0 -358 358z" />
<glyph unicode="&#x104d;" horiz-adv-x="1474" d="M82 -432q0 326 373 270l295 -94l-9 -14h-272q-223 0 -223 -162t223 -162h539q221 0 221 242v1130q0 328 -328 328q-358 0 -358 358t358 359q358 0 359 -359l-3 -6q-162 201 -356 201q-195 0 -194 -195q0 -195 194 -194q492 0 492 -492v-1130q0 -406 -385 -406h-539 q-387 0 -387 326zM82 451v163q0 451 491 451q492 0 492 -451v-1024h-16l-101 1031q-47 281 -375 280q-328 0 -327 -287v-2q532 -256 532 -393q0 -219 -205 -219q-492 0 -491 451zM246 451q-1 -287 327 -287q102 0 103 55q0 70 -430 408v-176z" />
<glyph unicode="&#x104e;" d="M82 451v163q0 451 491 451q432 0 492 -332l18 -16q-205 184 -510 184q-328 0 -327 -287v-163q0 -287 327 -287q305 0 496 172l-4 -4v-1090l-14 -35l-82 877q-188 -84 -396 -84q-492 0 -491 451z" />
<glyph unicode="&#x104f;" horiz-adv-x="1802" d="M82 451v163q0 451 491 451q236 0 361 -86q72 86 192 86q266 0 267 -375v-690l-15 -53l-108 743q-41 211 -144 211q-53 0 -92 -35q20 -41 31 -92v-57q0 -51 -40 -77t-138 -26q-330 0 -494 267q-147 -139 -147 -267v-163q0 -127 65 -199q246 199 576 199q98 0 138 -26 t40 -77v-57q-59 -291 -492 -291q-492 0 -491 451zM315 254q152 -90 258 -90q301 0 334 184h-51q-275 -8 -541 -94zM395 870q187 -145 461 -153h51q-33 184 -334 184q-106 0 -178 -31zM870 1464q0 358 359 359q358 0 358 -359l-2 -41q-162 236 -356 236q-195 0 -195 -195 q0 -154 195 -153q492 0 438 -541l-102 -803l-9 33v778q0 369 -327 369q-358 0 -359 317z" />
<glyph unicode="&#x1050;" d="M82 436v178q0 451 491 451q492 0 492 -451v-178q0 -371 -332 -436l-24 12q193 197 192 424v178q0 287 -328 287t-327 -287v-178q0 -227 180 -430l-12 -6q-332 66 -332 436zM471 532q135 379 141 123q63 -20 64 -123q0 -102 -103 -102q-102 0 -102 102z" />
<glyph unicode="&#x1051;" d="M82 451v178q0 371 332 436l-2 -8q-166 -201 -166 -428v-178q0 -287 327 -287q328 0 328 287v178q0 227 -180 424l12 12q332 -66 332 -436v-178q0 -451 -492 -451t-491 451zM471 532q0 102 102 103q102 0 103 -103q0 -102 -111 -231q-26 141 -94 231z" />
<glyph unicode="&#x1052;" d="M82 451v178q0 371 332 436h12q-180 -209 -180 -436v-178q-1 -287 327 -287t328 287v81q0 100 -131 156q-131 55 -131 186q0 190 205 191l235 -170l-14 6l-221 55q-61 -14 -41 -86q0 -33 39 -49q117 -47 170 -129t53 -160v-81q0 -451 -492 -451t-491 451z" />
<glyph unicode="&#x1053;" d="M61 1051l21 14h221q205 0 205 -191q0 -131 -131 -186t-131 -156v-81q0 -287 327 -287q328 0 328 287v81q0 100 -131 156q-131 55 -131 186q0 190 205 191h221l20 -2l-235 -109q-47 -53 -47 -84q0 -33 39 -49q117 -47 170 -129t53 -160v-81q0 -451 -492 -451t-491 451v81 q0 78 53 160t170 129q39 16 39 49q0 31 -14 66z" />
<glyph unicode="&#x1054;" d="M82 451v163q0 451 491 451q432 0 492 -332v-57q0 -51 -40 -77t-138 -26q-330 0 -488 322q-153 -154 -153 -281v-163q0 -287 327 -287q305 0 496 184l-4 -16q-59 -332 -492 -332q-492 0 -491 451zM395 870q187 -186 461 -194h51q-33 225 -334 225q-106 0 -178 -31z" />
<glyph unicode="&#x1055;" d="M82 451v163q0 451 491 451q432 0 492 -332v-57q0 -51 -40 -77t-138 -26q-330 0 -576 240q-66 -72 -65 -199v-163q0 -287 139 -287q78 0 240 295q-92 -113 4 -49l-21 34q68 -281 176 -280q88 0 295 239l-14 -24q-66 -379 -279 -379q-111 0 -186 152q-96 -152 -205 -152 q-313 0 -313 451zM281 850q301 -166 575 -174h51q-33 225 -334 225q-106 0 -292 -51z" />
<glyph unicode="&#x1056;" horiz-adv-x="819" d="M-246 451l10 14q154 -301 482 -301t327 287v81q0 100 -131 156q-131 55 -131 186q0 190 205 191l227 -162l-6 -2l-301 47q39 -47 39 -78q0 -33 39 -49q117 -47 170 -129t53 -160v-81q0 -451 -491 -451q-492 0 -492 451z" />
<glyph unicode="&#x1057;" horiz-adv-x="819" d="M-246 379v31q193 -225 281 -226q109 0 176 197l16 129q59 -164 56 -201q74 -125 151 -125q139 0 139 267v81q0 100 -131 156q-131 55 -131 186q0 190 205 191h221l27 6l-287 -129q-2 -41 -2 -72q0 -33 39 -49q117 -47 170 -129t53 -160v-81q0 -451 -313 -451 q-109 0 -205 152q-76 -152 -186 -152q-213 0 -279 379z" />
<glyph unicode="&#x1058;" horiz-adv-x="0" d="M-924 -399q0 358 359 358q283 0 342 -223q0 -47 -189 -129q-63 -27 -153 -27t-195 27v-6q0 -195 195 -195q158 0 375 117l-31 -49q-57 -231 -344 -232q-358 0 -359 359zM-772 -383q123 66 207 66t174 34q-35 98 -174 99q-139 0 -207 -199z" />
<glyph unicode="&#x1059;" horiz-adv-x="0" d="M-932 -399q0 358 359 358q283 0 342 -223q0 -47 -189 -129q-63 -27 -153 -27t-195 27v-6q0 -236 102 -236q61 0 162 168l2 -35q0 -133 82 -133t197 154l8 -21q0 -256 -205 -256q-82 0 -133 64q-51 -63 -133 -64q-246 1 -246 359zM-788 -410q131 93 215 93t174 34 q-35 98 -174 99q-139 0 -215 -226z" />
<glyph unicode="&#x105a;" d="M82 451v163q0 451 491 451q432 0 492 -332l4 -16q-190 184 -496 184q-328 0 -327 -287v-163q0 -287 327 -287q305 0 502 190l-10 -22q-59 -332 -492 -332q-492 0 -491 451zM338 -256q0 215 235 215q236 0 236 -215q0 -129 -112.5 -194.5t-112.5 -104.5q0 -59 51 -92 l129 -103l-21 -8h-67q-236 0 -236 203q0 102 113 161.5t113 137.5q0 72 -93 72q-92 0 -227 -84z" />
<glyph unicode="&#x105b;" horiz-adv-x="1474" d="M82 451v163q0 451 491 451q416 0 492 -369l-45 -12q28 -116 194 -276l117 718l15 7l47 -1567q0 -324 -306 -324h-219q-305 0 -305 324v434q-481 4 -481 451zM246 451q0 -287 327 -287q305 0 482 178l10 -10q-47 -269 -338 -320v-446q0 -160 141 -160h219q141 0 113 836 l17 153q-193 66 -265 178q-55 -55 -166 -55q-225 0 -225 225q0 68 57 152q-41 6 -45 6q-328 0 -327 -287v-163zM584 889q80 -86 80 -146q0 -123 122 -122q56 0 115 43q-37 150 -317 225z" />
<glyph unicode="&#x105c;" d="M82 451v163q0 451 491 451q492 0 492 -451v-163q0 -451 -492 -451t-491 451zM246 451q0 -287 327 -287q328 0 328 287v163q0 287 -328 287t-327 -287v-163zM334 539q34 198 239 313q205 -115 246 -328q-41 -197 -254 -299q-197 102 -231 314zM500 535q0 -72 71 -72 q72 0 72 72t-72 71q-72 0 -71 -71z" />
<glyph unicode="&#x105d;" d="M82 -453q0 305 387 258l238 -114l-27 -2h-211q-223 0 -223 -142q0 -141 223 -141h211q221 0 221 201v213q0 160 -57 229q-109 -49 -271 -49q-492 0 -458 438l-33 627l41 20l143 -768q100 215 307 215t320 -213l176 760l-4 -14v-614q0 -217 -115 -330q115 -90 115 -301 v-213q0 -365 -385 -365h-211q-387 0 -387 305zM260 346q53 -182 313 -182t314 182q-106 84 -314 84q-207 0 -313 -84z" />
<glyph unicode="&#x105e;" horiz-adv-x="0" d="M-1065 -453q0 305 387 306h432q-6 147 -114 311l145 -31q123 -80 133 -328l209 -120v4h-209v-82q0 -365 -385 -365h-211q-387 0 -387 305zM-901 -453q0 -141 223 -141h211q221 0 221 201v82h-432q-223 0 -223 -142z" />
<glyph unicode="&#x105f;" horiz-adv-x="0" d="M-891 -395q0 295 463 284l94 138l6 -29v-227l-143 2q-256 0 -256 -168t154 -168t315 205l2 -27q0 -342 -317 -342t-318 332z" />
<glyph unicode="&#x1060;" horiz-adv-x="0" d="M-975 -627l455 533l39 -12l-209 -365l428 -121l-6 -22h-568z" />
<glyph unicode="&#x1061;" d="M82 451v163q0 451 491 451q492 0 492 -451l-47 -1261l225 -109l-14 -2h-328v1372q0 287 -328 287t-335 -442l8 153q532 -256 532 -393q0 -98 -41 -151v-826h-340l-141 23l324 80l-7 655q-492 0 -491 451zM246 451q-1 -287 327 -287q102 0 103 55q0 70 -430 406v-174z" />
<glyph unicode="&#x1062;" horiz-adv-x="327" d="M-82 1051v14h328l-74 -1126l-29 -13l-41 1043z" />
<glyph unicode="&#x1063;" d="M76 729l6 4q59 332 491 332q492 0 492 -451v-163q0 -451 -492 -451q-207 0 -327 76l-82 -834h-21l-61 1090l-4 16q190 -184 495 -184q328 0 328 287v163q0 287 -328 287q-305 0 -497 -172z" />
<glyph unicode="&#x1064;" horiz-adv-x="327" d="M-90 1044l8 21h328l-82 -983l266 -88l-20 6h-328l68 956z" />
<glyph unicode="&#x1065;" d="M78 340q190 -176 495 -176q328 0 328 287v163q0 287 -328 287q-305 0 -489 -178l-2 10q59 332 491 332q492 0 492 -451v-163q0 -451 -492 -451q-432 0 -491 332z" />
<glyph unicode="&#x1066;" d="M82 451v614h29l88 -670q47 -231 374 -231q328 0 390 260l94 647l8 -6v-614q0 -258 -162 -369v-840h-381l-162 2l420 113l-41 659q-74 -16 -166 -16q-492 0 -491 451z" />
<glyph unicode="&#x1067;" horiz-adv-x="450" d="M-41 205q0 205 299 164l29 784l14 -41l68 -907q0 -205 -205 -205t-205 205zM92 205q0 -72 72 -72t72 72t-72 71q-72 0 -72 -71z" />
<glyph unicode="&#x1068;" horiz-adv-x="368" d="M-217 2l338 107l-19 956h164v-1065h-348zM-20 1311q-48 225 210 481q55 -283 199 -481q0 -205 -205 -205t-204 205zM113 1311q0 -72 71 -72q72 0 72 72t-72 71q-72 0 -71 -71z" />
<glyph unicode="&#x1069;" horiz-adv-x="598" d="M68 1051l14 14h92q342 0 342 -295q0 -162 -135 -261t-135 -216q0 -129 84 -150l186 -141v-2h-92q-342 0 -342 293q0 162 135 261t135 216q0 131 -131 178z" />
<glyph unicode="&#x106a;" horiz-adv-x="327" d="M-313 369q170 -205 270 -238q125 33 125 223l68 740l22 18l74 -758q0 -354 -277 -354q-276 0 -276 354z" />
<glyph unicode="&#x106b;" horiz-adv-x="327" d="M-307 711q0 354 276 354t277 -354l-74 -717l-22 -8l-68 725q0 190 -107 225q-119 -35 -260 -225h-22z" />
<glyph unicode="&#x106c;" horiz-adv-x="327" d="M82 354l88 731l2 -20l74 -711q0 -190 112 -190q113 0 201 176l2 27q74 -367 -203 -367q-276 0 -276 354z" />
<glyph unicode="&#x106d;" horiz-adv-x="598" d="M61 8l148 88q143 68 143 197q0 117 -135 216t-135 261q0 295 342 295h92l21 -14l-140 -68q-152 -82 -151 -213q0 -117 135 -216t135 -261q0 -293 -342 -293h-92z" />
<glyph unicode="&#x106e;" horiz-adv-x="2334" d="M82 451v163q0 451 491 451q103 -1 185 -21q82 20 184 21q291 0 410 -158q119 158 409 158q492 0 492 -451v-163q0 -451 -492 -451l-6 14q334 150 334 437v163q0 287 -328 287t-327 -287l-74 -628h-23l-67 628q0 266 -281 285q76 -106 76 -285l-100 -620l-2 -14l-62 634 q0 287 -328 287t-327 -287v-163q0 -287 327 -451q-492 0 -491 451z" />
<glyph unicode="&#x106f;" horiz-adv-x="1966" d="M82 451v614l22 20l80 -667q61 -254 389 -254t367 246l129 675l-4 -20l-88 -45q209 45 416 45q492 0 491 -451v-163q0 -326 -256 -416v-793h-360l20 23l176 53v684q-35 -2 -71 -2l-27 -12q354 176 354 463v163q0 287 -327 287q-313 47 -328 -287v-163q0 -451 -492 -451 t-491 451z" />
<glyph unicode="&#x1070;" horiz-adv-x="2129" d="M61 1057l21 8h221q205 0 205 -191q0 -131 -131 -186t-131 -156v-81q0 -287 327 -287q328 0 328 287l68 614h22l74 -614q0 -287 328 -287t327 287v163q0 287 -336 435l9 16q492 0 491 -451v-163q0 -326 -256 -416v-793h-360l-162 23l358 141v596q-35 -2 -71 -2 q-291 0 -410 158q-119 -158 -410 -158q-492 0 -491 451v81q0 78 53 160t170 129q39 16 39 49v72z" />
<glyph unicode="&#x1071;" horiz-adv-x="0" d="M-983 1485q-47 204 197 401q117 -276 184 -401q0 -205 -191 -205q-190 0 -190 205zM-864 1485q0 -72 71 -72q72 0 72 72t-72 71q-72 0 -71 -71zM-545 1485q218 287 185 428q197 -223 196 -428q0 -205 -190 -205t-191 205zM-426 1485q0 -72 72 -72q71 0 71 72t-71 71 q-72 0 -72 -71z" />
<glyph unicode="&#x1072;" horiz-adv-x="0" d="M-928 1464q0 358 359 359q303 0 350 -256l31 -19q-211 111 -381 111q-195 0 -195 -195t195 -194q170 0 360 110l-10 -18q-47 -256 -350 -256q-359 0 -359 358z" />
<glyph unicode="&#x1073;" horiz-adv-x="0" d="M-1110 1085l23 -2l514 656l487 -609l-8 -4l-479 365z" />
<glyph unicode="&#x1074;" horiz-adv-x="0" d="M-932 1468q0 303 256 351l17 2q-109 -182 -109 -353q0 -195 195 -194q195 0 194 194q0 170 -129 359l37 -8q256 -47 256 -351q0 -358 -358 -358t-359 358z" />
<glyph unicode="&#x1075;" d="M82 0v8l289 129q-27 27 -27 58q0 33 -39 49q-117 47 -170 129t-53 159v82q0 451 491 451q492 0 492 -451v-178q0 -371 -332 -436l-33 -14q201 223 201 450v178q0 287 -328 287t-327 -287v-82q0 -100 131 -155t131 -187q0 -190 -205 -190h-221z" />
<glyph unicode="&#x1076;" d="M-61 965v100l8 -21l80 -120q14 -63 84 -95q98 236 462 236q492 0 492 -451v-163q0 -451 -492 -451q-432 0 -491 332v57q0 51 40 77t138 26q330 0 514 -308q127 139 127 267v163q0 287 -328 287q-305 0 -333 -231l-152 51q-150 39 -149 244zM240 389q33 -225 333 -225 q106 0 179 31q-187 186 -461 194h-51z" />
<glyph unicode="&#x1077;" d="M61 2l254 115q29 47 29 78q0 33 -39 49q-117 47 -170 129t-53 159v82q-1 451 491 451t492 -451v-368q0 -246 -246 -246q-205 0 -205 301q0 195 291 246q-29 354 -332 354q-328 0 -327 -287v-82q0 -100 131 -155t131 -187q0 -190 -205 -190h-221zM717 301q0 -137 102 -137 q82 0 82 82v291q-184 -115 -184 -236z" />
<glyph unicode="&#x1078;" horiz-adv-x="1966" d="M82 451v163q-1 451 491 451q291 0 410 -158q119 158 410 158q492 0 491 -451v-163q0 -451 -491 -451q-492 0 -492 451v163q0 287 -328 287t-327 -287v-163q0 -287 340 -443l-13 -8q-492 0 -491 451zM1065 451q0 -287 328 -287t327 287v163q0 287 -327 287 q-328 0 -328 -287v-163z" />
<glyph unicode="&#x1079;" horiz-adv-x="1966" d="M82 451v163q-1 451 491 451q291 0 410 -158q119 158 410 158q492 0 491 -451v-163q0 -451 -491 -451q-492 0 -492 451v163q0 287 -328 287t-348 -434l21 145q532 -256 532 -393q0 -219 -205 -219q-492 0 -491 451zM225 618l21 -167q-1 -287 327 -287q102 0 103 55 q0 70 -451 399zM1065 451q0 -287 328 -287t327 287v163q0 287 -327 287q-328 0 -328 -287v-163z" />
<glyph unicode="&#x107a;" horiz-adv-x="1966" d="M82 451v163q0 451 491 451q492 0 492 -451v-163q0 -287 328 -287t327 287v163q0 287 -374 463l47 -12q492 0 491 -451v-163q0 -451 -491 -451q-207 0 -328 80l14 -733l176 -103l-14 -2h-340v1372q0 287 -328 287t-327 -287v-163q0 -287 354 -469l-27 18q-492 0 -491 451z " />
<glyph unicode="&#x107b;" horiz-adv-x="1966" d="M82 451v163q0 451 491 451q291 0 410 -158q119 158 410 158q491 0 491 -451v-163q0 -451 -491 -451q-205 0 -205 219q0 137 532 393v2q0 287 -327 287q-328 0 -328 -287v-163q0 -451 -492 -451t-491 451zM246 451q0 -287 327 -287q328 0 328 287v163q0 287 -328 287 t-327 -287v-163zM1290 219q0 -55 103 -55q327 0 327 287l15 161q-444 -324 -445 -393z" />
<glyph unicode="&#x107c;" horiz-adv-x="1966" d="M82 332v57q0 51 40 77t138 26q330 0 576 -240q66 72 65 199v163q0 287 -328 287q-305 0 -333 -231l-158 63q59 332 491 332q291 0 410 -158q119 158 410 158q432 0 491 -332l-158 -63q-29 231 -333 231q-328 0 -328 -287v-163q0 -127 65 -199q246 240 576 240 q98 0 138 -26t40 -77v-57q-59 -332 -491 -332q-291 0 -410 158q-119 -158 -410 -158q-432 0 -491 332zM240 389q33 -225 333 -225q106 0 287 72q-295 145 -569 153h-51zM1106 256q180 -92 287 -92q301 0 333 225h-51q-274 -8 -569 -133z" />
<glyph unicode="&#x107d;" horiz-adv-x="1966" d="M82 451v81q0 78 53 160t170 129q39 16 39 49v64l-262 123v8h221q205 0 205 -191q0 -131 -131 -186t-131 -156v-81q0 -287 327 -287q328 0 328 287v163q0 451 492 451q432 0 491 -332l12 -22q-199 190 -503 190q-328 0 -328 -287v-163q0 -127 65 -199q246 240 576 240 q98 0 138 -26t40 -77v-57q-59 -332 -491 -332q-291 0 -410 158q-119 -158 -410 -158q-492 0 -491 451zM1128 248q158 -84 265 -84q301 0 333 225h-51q-275 -8 -547 -141z" />
<glyph unicode="&#x107e;" horiz-adv-x="1966" d="M76 1049l6 16h221q205 0 205 -191q0 -131 -131 -186t-131 -156v-81q0 -287 327 -287q328 0 328 287v163q0 451 492 451q432 0 491 -332l12 -22q-199 190 -503 190q-328 0 -328 -287v-163q0 -127 65 -199q246 240 576 240q98 0 138 -26t40 -77v-57q-55 -303 -420 -330 v-760h-340l-108 23l284 73v666q-219 23 -317 154q-119 -158 -410 -158q-492 0 -491 451v81q0 78 53 160t170 129q39 16 39 49q0 31 18 50zM1133 250q154 -86 260 -86q301 0 333 225h-51q-274 -8 -542 -139z" />
<glyph unicode="&#x107f;" d="M82 451v368q0 246 246 246q205 0 204 -301q0 -195 -305 -234q43 -367 346 -366q328 0 328 287v178q0 227 -180 436h12q332 -66 332 -436v-178q0 -451 -492 -451t-491 451zM246 528q184 115 184 236q0 137 -102 137q-82 0 -82 -82v-291z" />
<glyph unicode="&#x1080;" horiz-adv-x="1966" d="M82 332v57q0 51 40 77t138 26q330 0 481 -328q160 160 160 287v163q0 287 -328 287q-305 0 -462 -164l-29 -4q59 332 491 332q492 0 492 -451v-163q0 -287 328 -287t327 287v163q0 287 -346 443l19 8q492 0 491 -451v-163q0 -451 -491 -451q-291 0 -410 158 q-119 -158 -410 -158q-432 0 -491 332zM240 389q33 -225 333 -225q106 0 179 31q-187 186 -461 194h-51z" />
<glyph unicode="&#x1081;" horiz-adv-x="1228" d="M-27 -750l344 101l-28 690q-207 102 -207 395v178q0 451 491 451q492 0 492 -451v-178q0 -371 -373 -280l2 6q207 47 207 274v178q0 287 -328 287t-327 -287v-178q0 -227 207 -274v-920h-371z" />
<glyph unicode="&#x1082;" horiz-adv-x="0" d="M-932 -399q0 358 359 358q180 0 270 -90l-8 4q-148 -30 -275 -10q-182 -68 -182 -262q0 -195 195 -195t358 195q0 -358 -358 -359q-358 0 -359 359z" />
<glyph unicode="&#x1083;" horiz-adv-x="327" d="M-88 1057l6 8h328l-35 -1700l205 -115l-6 -8h-328l33 1733z" />
<glyph unicode="&#x1084;" d="M82 313q0 150 178 219q-178 72 -178 220q0 313 491 313q492 0 492 -334l4 -20q-168 190 -496 190t-327 -149q162 -260 387 -31l278 -207l-8 -8l-274 -164q-227 279 -383 -29q0 -150 327 -149q328 0 498 190l-6 -20q0 -334 -492 -334t-491 313z" />
<glyph unicode="&#x1085;" horiz-adv-x="0" d="M-836 1311q1 102 91 153q-90 51 -91 154q0 205 359 205q96 0 166 -15l37 -18q-113 -70 -197 -16q-221 -53 -221 -156q0 -102 196 -76l228 -108q-268 102 -424 -123q0 -102 203 -144q63 8 213 -53l-35 6q-70 -14 -166 -14q-358 0 -359 205z" />
<glyph unicode="&#x1086;" horiz-adv-x="0" d="M-778 1556q0 205 205 205t204 -205v-65q0 -358 -309 -444l-14 -5q195 172 188 480q-274 -154 -274 34zM-645 1556q217 -12 72 -71q71 -1 71 71t-71 72q-72 0 -72 -72z" />
<glyph unicode="&#x1087;" horiz-adv-x="573" d="M82 205q0 205 205 205t205 -205v-66q0 -358 -310 -444l-18 -10q125 211 131 317q-213 14 -213 203zM154 178q61 -45 133 -192q79 147 71 219q0 72 -71 71q-72 0 -133 -98z" />
<glyph unicode="&#x1088;" horiz-adv-x="573" d="M82 205q0 205 205 205t205 -205v-66q0 -358 -310 -444l15 -8q51 190 153 368q-268 -39 -268 150zM82 860q203 278 246 475q211 -270 211 -487q-47 -193 -252 -193t-205 205zM215 205q0 -72 119 -201q24 129 24 201t-71 71q-72 0 -72 -71zM215 860q0 -72 72 -72 q71 0 71 72t-71 72q-72 0 -72 -72z" />
<glyph unicode="&#x1089;" horiz-adv-x="573" d="M82 205q189 279 240 416q170 -211 170 -416t-205 -205t-205 205zM215 205q0 -72 72 -72q71 0 71 72t-71 71q-72 0 -72 -71z" />
<glyph unicode="&#x108a;" horiz-adv-x="878" d="M82 205q0 205 205 205q188 0 202 -213q125 47 -20 4l328 108q-86 -309 -445 -309h-65q-205 0 -205 205zM82 860q0 205 205 205q188 0 202 -213q125 47 304 125l4 -12q-86 -309 -445 -310h-65q-205 0 -205 205zM215 205q0 -72 72 -72t219 66q-147 78 -219 77 q-72 0 -72 -71zM215 860q0 -72 92 -63q51 -9 207 69q-156 66 -227 66q-72 0 -72 -72z" />
<glyph unicode="&#x108b;" horiz-adv-x="573" d="M82 532q155 234 231 414q178 -209 179 -414q0 -205 -205 -204q-205 0 -205 204zM215 532q0 -72 72 -71q71 -1 71 71t-71 72q-72 0 -72 -72z" />
<glyph unicode="&#x108c;" horiz-adv-x="1064" d="M82 532q0 206 211 429q78 -223 199 -429q0 -205 -205 -204q-205 0 -205 204zM215 532q0 -72 72 -71q71 -1 71 71t-71 72q-72 0 -72 -72zM573 532q0 205 205 205t205 -205t-192 -454q-82 256 -218 454zM707 532q0 -72 71 -71q72 -1 72 71t-72 72t-71 -72z" />
<glyph unicode="&#x108d;" horiz-adv-x="0" d="M-1075 -186h921v-164h-921v164z" />
<glyph unicode="&#x108e;" d="M82 451v163q0 451 491 451q492 0 492 -451v-163q0 -451 -492 -451t-491 451zM233 598q133 37 340 37t314 -31q-53 297 -314 297q-260 0 -340 -303zM246 451q0 -287 327 -287q328 0 328 287v153q-121 -72 -328 -72t-327 72v-153z" />
<glyph unicode="&#x108f;" horiz-adv-x="573" d="M82 139v66q0 205 205 205t205 -205q0 -188 -213 -203q47 -125 -64 82l176 -389q-309 86 -309 444zM82 860q174 197 199 443q211 -238 211 -443t-205 -205t-205 205zM215 205q0 -72 45 -187q98 115 98 187t-71 71q-72 0 -72 -71zM215 860q0 -72 72 -72q71 0 71 72t-71 72 q-72 0 -72 -72z" />
<glyph unicode="&#x1090;" d="M82 451v163q0 451 491 451q492 0 492 -451v-163q0 -451 -492 -451t-491 451zM246 451q0 -287 327 -287q328 0 328 287v163q0 287 -328 287t-327 -287v-163z" />
<glyph unicode="&#x1091;" horiz-adv-x="716" d="M82 928l229 137h129l-18 -903l242 -31l-29 6l-229 -137h-130l15 903l-197 4z" />
<glyph unicode="&#x1092;" horiz-adv-x="1228" d="M76 561l6 33l149 582l15 -29v-191q90 109 368 109q532 0 533 -533q0 -274 -327.5 -498t-477.5 -444h-14q0 270 327.5 494.5t327.5 447.5q0 369 -369 369t-538 -340z" />
<glyph unicode="&#x1093;" horiz-adv-x="1054" d="M82 41l670 1497l8 6l-47 -483q260 -29 260 -350v-711l-8 -8l-156 719q0 211 -133 211h-33l-541 -881h-20z" />
<glyph unicode="&#x1094;" horiz-adv-x="1040" d="M82 41l567 1085v-8l115 -948l221 -33h-27l-344 -145l-14 8v811l-491 -778z" />
<glyph unicode="&#x1095;" horiz-adv-x="983" d="M82 430q0 430 461 430h194l82 594l8 27l74 -621l313 -53l-198 -35l-82 -22l-33 -218q0 -532 -409 -532q-410 0 -410 430zM246 430q0 -266 246 -266t245 368v164h-194q-297 0 -297 -266z" />
<glyph unicode="&#x1096;" horiz-adv-x="983" d="M82 635q0 430 410 430t409 -533l21 -219l204 -94h-41l-184 -14l-76 -586l-6 -2l-82 588h-194q-461 0 -461 430zM246 635q0 -266 297 -266h194v163q0 369 -245 369q-246 0 -246 -266z" />
<glyph unicode="&#x1097;" horiz-adv-x="983" d="M74 1042l8 23h819v-68l-633 -901l647 -82l-14 -14h-819v63l670 918z" />
<glyph unicode="&#x1098;" d="M82 532q0 367 254 482q-254 115 -92 528l2 -47q-1 -369 327 -369t328 369l8 29q156 -395 -98 -510q254 -115 254 -482q0 -532 -492 -532t-491 532zM246 532q0 -369 327 -368q328 0 328 368q0 369 -328 369t-327 -369z" />
<glyph unicode="&#x1099;" d="M82 963q0 532 491 532q492 0 492 -532q0 -367 -254 -482q254 -115 72 -487l18 6q0 369 -328 369q-327 0 -327 -369l-8 -33q-156 399 98 514q-254 115 -254 482zM246 963q0 -369 327 -369q328 0 328 369t-328 368q-328 0 -327 -368z" />
<glyph unicode="&#x109a;" horiz-adv-x="573" d="M82 860q0 205 205 205t205 -205t-205 -205t-205 205zM215 860q0 -72 72 -72q71 0 71 72t-71 72q-72 0 -72 -72z" />
<glyph unicode="&#x109b;" horiz-adv-x="573" d="M82 860q0 205 205 205t205 -205v-65q0 -358 -310 -445l-12 -2q172 281 199 477q-287 -154 -287 35zM215 860q0 -72 72 -72q71 0 71 72t-71 72q-72 0 -72 -72z" />
<glyph unicode="&#x109c;" horiz-adv-x="878" d="M82 205q0 205 205 205h65q358 0 445 -310l-11 -12q-213 186 -446 193q135 -281 -53 -281q-205 0 -205 205zM82 860q0 205 205 205h65q358 0 445 -309l-19 -21q-223 215 -450 195q147 -274 -41 -275q-205 0 -205 205zM215 205q0 -72 72 -72t71 72q1 71 -71 71t-72 -71z M215 860q0 -72 72 -72t71 72q1 72 -71 72t-72 -72z" />
<glyph unicode="&#x109d;" horiz-adv-x="0" d="M-682 1202l6 21q0 293 297 293t297 -375l-86 -342l-16 8l-41 381q-21 164 -154 203q-133 -39 -303 -189z" />
<glyph unicode="&#x109e;" horiz-adv-x="368" d="M-82 1065h348v-1659l185 -149v-15h-349v1659l-184 170v-6zM-20 1311q75 205 198 434q211 -229 211 -434t-205 -205t-204 205zM113 1311q0 -72 71 -72q72 0 72 72t-72 71q-72 0 -71 -71z" />
<glyph unicode="&#x109f;" horiz-adv-x="1474" d="M82 436v178q0 451 491 451q492 0 492 -451v-1106q0 -102 82 -102t82 102v1270q0 328 -328 328q-358 0 -358 358t358 359q358 0 359 -359l-15 -18q-150 213 -344 213q-195 0 -194 -195q0 -195 194 -194q492 0 492 -492v-1270q0 -266 -246 -266t-246 266v1106 q0 287 -328 287t-327 -287v-178q0 -227 180 -424l-12 -12q-332 66 -332 436z" />
<glyph unicode="&#x2000;" horiz-adv-x="956" />
<glyph unicode="&#x2001;" horiz-adv-x="1913" />
<glyph unicode="&#x2002;" horiz-adv-x="956" />
<glyph unicode="&#x2003;" horiz-adv-x="1913" />
<glyph unicode="&#x2004;" horiz-adv-x="637" />
<glyph unicode="&#x2005;" horiz-adv-x="478" />
<glyph unicode="&#x2006;" horiz-adv-x="318" />
<glyph unicode="&#x2007;" horiz-adv-x="318" />
<glyph unicode="&#x2008;" horiz-adv-x="239" />
<glyph unicode="&#x2009;" horiz-adv-x="382" />
<glyph unicode="&#x200a;" horiz-adv-x="106" />
<glyph unicode="&#x202f;" horiz-adv-x="382" />
<glyph unicode="&#x205f;" horiz-adv-x="478" />
<glyph unicode="&#x25cc;" horiz-adv-x="1218" d="M102 535q0 49 52 49q49 0 49 -49t-49 -50q-51 0 -52 50zM139 360q0 51 49 52q50 -1 50 -52q0 -49 -50 -49q-49 0 -49 49zM139 709q0 49 49 49q50 0 50 -49q0 -51 -48 -52q-51 0 -51 52zM238 211q0 51 49 51q51 0 51 -51q0 -49 -51 -49q-49 0 -49 49zM238 854q0 53 49 53 q51 0 51 -51q0 -49 -51 -49q-49 0 -49 47zM385 113q0 51 49 51q51 0 51 -47q0 -51 -51 -51q-49 0 -49 47zM385 954q0 51 49 52q51 -1 51 -52q0 -49 -51 -49q-49 0 -49 49zM559 80q0 49 49 49t49 -49q0 -51 -49 -51t-49 51zM559 991q0 49 49 49t49 -49q0 -51 -49 -51t-49 51z M733 113q0 51 51 51q47 0 47 -51q0 -47 -47 -47q-51 0 -51 47zM733 954q0 51 51 52q47 -1 47 -52q0 -49 -47 -49q-51 0 -51 49zM881 211q0 51 51 51q49 0 49 -51q0 -49 -49 -49q-51 0 -51 49zM881 856q0 51 51 51q49 0 49 -51q0 -49 -49 -49q-51 0 -51 49zM979 360 q0 51 49 52q51 -1 51 -52q0 -49 -51 -49q-49 0 -49 49zM979 709q0 49 51 49q49 0 49 -49q0 -51 -51 -52q-49 0 -49 52zM1016 535q0 49 51 49q49 0 49 -49t-49 -50q-51 0 -51 50z" />
<glyph unicode="&#x25fc;" horiz-adv-x="1024" d="M0 0z" />
<glyph unicode="&#xaa60;" horiz-adv-x="1966" d="M82 436v178q0 451 491 451q291 0 410 -158q119 158 410 158q492 0 491 -451v-163q0 -451 -491 -451q-205 0 -205 219q0 137 532 393v2q0 287 -327 287q-328 0 -328 -287l-88 -614h-16l-60 614q0 287 -328 287t-327 -287v-178q0 -227 192 -430l-24 -6q-332 66 -332 436z M1290 219q0 -55 103 -55q327 0 327 287l6 167q-436 -330 -436 -399z" />
<glyph unicode="&#xaa61;" horiz-adv-x="1966" d="M74 16l282 127q-12 20 -12 52q0 33 -39 49q-117 47 -170 129t-53 159v82q0 451 491 451q291 0 410 -158q119 158 410 158q492 0 491 -451v-163q0 -451 -491 -451q-285 0 -404 152q-84 -117 -256 -152l-26 20q195 188 194 416v178q0 287 -328 287t-327 -287v-82 q0 -100 131 -155t131 -187q0 -190 -205 -190h-221zM1065 451q0 -287 328 -287t327 287v163q0 287 -327 287q-328 0 -328 -287v-163z" />
<glyph unicode="&#xaa62;" horiz-adv-x="1509" d="M82 0v1065l29 6l102 -799l401 336l4 13q41 -457 345 -457q301 0 301 368q0 369 -260 396q29 33 -289 73l14 25q104 39 207 39q492 0 491 -533q0 -532 -464 -532q-396 0 -457 393l-369 -393h-55z" />
<glyph unicode="&#xaa63;" horiz-adv-x="1966" d="M55 2l275 115q14 47 14 78q0 33 -39 49q-117 47 -170 129t-53 159v82q0 451 491 451q291 0 410 -158q119 158 410 158q492 0 491 -451v-163q0 -451 -491 -451q-236 0 -359 102q-55 -102 -215 -102q-205 0 -205 301q0 195 285 354q-23 246 -326 246q-328 0 -327 -287v-82 q0 -100 131 -155t131 -187q0 -190 -205 -190h-221zM717 301q0 -137 102 -137q82 0 82 82l-6 418q-178 -242 -178 -363zM1065 451q0 -287 328 -287t327 287v163q0 287 -327 287q-328 0 -328 -287v-163z" />
<glyph unicode="&#xaa64;" horiz-adv-x="1966" d="M82 451v178q0 371 332 436l6 6q-174 -215 -174 -442v-178q0 -287 327 -287q328 0 328 287v178q0 227 -180 436h12q172 -35 256 -152q119 152 404 152q492 0 491 -451v-163q0 -451 -491 -451q-291 0 -410 158q-119 -158 -410 -158q-492 0 -491 451zM1065 451 q0 -287 328 -287t327 287v163q0 287 -327 287q-328 0 -328 -287v-163z" />
<glyph unicode="&#xaa65;" horiz-adv-x="1966" d="M82 451v163q0 451 491 451l27 -2q-354 -162 -354 -449v-163q0 -287 327 -287q328 0 328 287v163q0 451 492 451t491 -451v-163q0 -451 -491 -451l-29 -12q356 176 356 463v163q0 287 -327 287q-328 0 -328 -287v-1372h-340l-20 8l202 115l-6 715q-121 -80 -328 -80 q-492 0 -491 451z" />
<glyph unicode="&#xaa66;" horiz-adv-x="1966" d="M82 451v163q0 451 491 451q291 0 410 -158q119 158 410 158q491 0 491 -451v-163q0 -451 -491 -451l-27 16q354 147 354 435v163q0 287 -327 287q-328 0 -328 -287v-163q0 -451 -492 -451t-491 451zM246 451q0 -287 327 -287q328 0 328 287v163q0 287 -328 287t-327 -287 v-163zM471 532q0 103 102 279q102 -176 103 -279q0 -102 -103 -278q-102 176 -102 278z" />
<glyph unicode="&#xaa67;" horiz-adv-x="1966" d="M82 451v163q0 451 491 451q291 0 410 -158q119 158 410 158q492 0 491 -451v-163q0 -451 -491 -451q-291 0 -410 158q-119 -158 -410 -158q-492 0 -491 451zM246 451q0 -287 327 -287q328 0 328 287v163q0 287 -328 287t-327 -287v-163zM471 532q0 103 109 259 q96 -156 96 -259q0 -102 -103 -270q-102 168 -102 270zM1065 451q0 -287 328 -287t327 287v163q0 287 -327 287q-328 0 -328 -287v-163z" />
<glyph unicode="&#xaa68;" horiz-adv-x="1966" d="M82 451v163q0 451 491 451q291 0 410 -158q119 158 410 158q491 0 491 -451v-163q0 -451 -491 -451q-205 0 -205 219q0 137 532 393v2q0 287 -327 287q-328 0 -328 -287v-163q0 -451 -492 -451t-491 451zM246 451q0 -287 327 -287q328 0 328 287v163q0 287 -328 287 t-327 -287v-163zM471 532q0 103 102 244q102 -141 103 -244q0 -102 -96 -208q-109 106 -109 208zM1290 219q0 -55 103 -55q327 0 327 287v182q-430 -344 -430 -414z" />
<glyph unicode="&#xaa69;" horiz-adv-x="1966" d="M82 451v163q0 451 491 451q291 0 410 -158q119 158 410 158q492 0 491 -451v-163q0 -451 -491 -451q-291 0 -410 158q-119 -158 -410 -158q-492 0 -491 451zM246 451q0 -287 327 -287q328 0 328 287v163q0 287 -328 287t-327 -287v-163zM471 532q0 102 82 297 q123 -195 123 -297t-103 -264q-102 162 -102 264zM1065 535q315 -39 385 -369q270 25 270 285v163q0 287 -327 287q-328 0 -328 -287v-79zM1079 526q-4 -340 373 -374q-172 243 -373 374z" />
<glyph unicode="&#xaa6a;" horiz-adv-x="1966" d="M82 451v163q0 451 491 451q291 0 410 -158q119 158 410 158q492 0 491 -451v-163q0 -451 -491 -451q-291 0 -410 158q-119 -158 -410 -158q-492 0 -491 451zM246 451q0 -287 327 -287q328 0 328 287v163q0 287 -328 287t-327 -287v-163zM1065 535q315 -39 385 -369 q270 25 270 285v163q0 287 -327 287q-328 0 -328 -287v-79zM1065 541q10 -354 395 -381q-180 236 -395 381z" />
<glyph unicode="&#xaa6b;" d="M-16 1065h28q74 -106 135 -182q113 182 426 182q492 0 492 -451v-178q0 -371 -332 -436l-39 162q207 47 207 274v178q0 287 -328 287q-303 0 -325 -246q285 -160 284 -354q0 -301 -204 -301q-246 0 -246 246v368q0 90 20 164q-119 113 -118 287zM225 678l21 -432 q0 -82 82 -82q102 0 102 137q0 121 -205 377z" />
<glyph unicode="&#xaa6c;" horiz-adv-x="1966" d="M82 451v178q0 371 332 436h4q-172 -209 -172 -436v-178q0 -287 266 -287t266 368q0 217 -162 232q74 301 367 301t354 -309q-150 -6 -149 -224q0 -369 266 -368q266 0 266 287v178q0 227 -188 436h20q332 -66 332 -436v-178q0 -451 -430 -451t-430 532q0 233 90 367 q-6 63 -131 64q-125 0 -131 -64q90 -133 90 -367q0 -532 -430 -532t-430 451z" />
<glyph unicode="&#xaa6d;" horiz-adv-x="1208" d="M-246 -383l23 6q141 -217 246 -250q121 33 120 244v915q0 43 4 82q-209 8 -208 226q0 225 225 225q131 0 186 -76q125 76 285 76q492 0 491 -451v-178q0 -371 -331 -436l-13 -2q180 211 181 438v178q0 287 -328 287t-328 -369v-915q0 -375 -276 -375t-277 375zM82 840 q0 -82 82 -82t82 82t-82 82t-82 -82z" />
<glyph unicode="&#xaa6e;" horiz-adv-x="1966" d="M82 451v163q-1 451 491 451t492 -451v-163q0 -287 328 -287t327 287v163q0 287 -309 435l-18 16q492 0 491 -451v-163q0 -451 -491 -451q-492 0 -492 451v163q0 287 -328 287t-327 -287v-2q532 -256 532 -393q0 -219 -205 -219q-492 0 -491 451zM246 451 q-1 -287 327 -287q102 0 103 55q0 70 -424 393z" />
<glyph unicode="&#xaa6f;" horiz-adv-x="1474" d="M82 1065l8 12l348 -270q92 258 463 258q492 0 492 -451v-163q0 -451 -492 -451t-491 451v198l-164 158l-94 -813l-23 6zM573 451q0 -287 328 -287t328 287v163q0 287 -328 287t-328 -287v-163z" />
<glyph unicode="&#xaa70;" horiz-adv-x="0" d="M-879 1204l7 13q90 94 301 94q209 0 299 -94l20 -17q-151 35 -319 35q-156 -14 -308 -31zM-872 1442q90 94 301 94q209 0 299 -94l20 -31q-153 43 -319 43q-150 -8 -299 -31z" />
<glyph unicode="&#xaa71;" horiz-adv-x="1966" d="M82 451v163q0 451 491 451q291 0 410 -158q119 158 410 158q492 0 491 -451v-163q0 -451 -491 -451l-7 14q334 150 334 437v163q0 287 -327 287q-328 0 -328 -287l-82 -587l-14 -15l-68 602q0 287 -328 287t-327 -287v-2q532 -256 532 -393q0 -219 -205 -219 q-492 0 -491 451zM246 451q-1 -287 327 -287q102 0 103 55q0 70 -424 379z" />
<glyph unicode="&#xaa72;" horiz-adv-x="2088" d="M0 225q0 166 123 211q-41 76 -41 178q0 451 491 451q291 0 410 -158q119 158 410 158q492 0 491 -451v-163q0 -451 -491 -451q-285 0 -404 152q-84 -117 -256 -152l-26 6q195 203 194 430v178q0 287 -328 287t-327 -287q0 -98 102 -170q102 -61 103 -219 q0 -225 -226 -225q-225 0 -225 225zM143 225q0 -82 82 -82t82 82t-82 82t-82 -82zM1065 451q0 -287 328 -287t327 287v163q0 287 -327 287q-328 0 -328 -287v-163z" />
<glyph unicode="&#xaa73;" horiz-adv-x="1298" d="M82 1065h160q403 -901 571 -901q240 0 240 368q0 369 -252 410q-100 14 -303 74l20 10q104 39 248 39q451 0 451 -533q0 -532 -404 -532q-278 0 -567 745l-76 -745h-41z" />
<glyph unicode="&#xaa74;" horiz-adv-x="1556" d="M82 532q0 457 369 533l24 -6q-229 -209 -229 -527q0 -369 368 -368q20 0 41 2v721q0 98 26 138t97 40q369 -76 369 -533q0 -454 -389 -522v-483q139 -121 346 -121t207 160v1212q0 328 -328 328q-358 0 -358 358t358 359q358 0 358 -359l11 -26q-174 221 -369 221 t-195 -195t195 -194q492 0 492 -492v-1212q0 -324 -371 -324q-213 0 -352 135q-33 -135 -199 -135q-205 0 -205 205t205 205q59 0 102 -19v367h-41q-532 0 -532 532zM451 -553q0 -102 102 -102t102 102t-102 102t-102 -102zM649 156q334 88 334 376q0 301 -225 365z" />
<glyph unicode="&#xaa75;" horiz-adv-x="2457" d="M76 14l248 88q20 61 20 93q0 33 -39 49q-117 47 -170 129t-53 159q0 532 532 533q324 0 451 -197q127 197 451 197q532 0 532 -533q0 -430 -348 -512v-432q139 -182 305 -182q207 0 207 160v1212q0 328 -369 328q-358 0 -358 358t358 359q358 0 359 -359l6 6 q-170 188 -365 189q-195 0 -194 -195q0 -195 194 -194q532 0 533 -492v-1212q0 -324 -371 -324q-172 0 -311 135q-33 -135 -199 -135q-205 0 -205 205t246 205v348h-20q-199 0 -324 74l33 18q154 72 291 39q369 33 368 401q0 369 -368 369q-369 0 -369 -369 q0 -457 -369 -532l-18 20q223 195 223 512q0 369 -369 369t-368 -369q0 -100 131 -155t131 -187q0 -190 -205 -190h-221zM1423 -553q0 -72 72 -72t72 72t-72 72t-72 -72z" />
<glyph unicode="&#xaa76;" horiz-adv-x="1617" d="M-492 -432q0 326 402 170l-14 -8q-223 0 -224 -162q0 -162 183 -162h129q180 0 180 242v1063q0 190 -154 190q-133 0 -295 -205l-2 15q0 354 297 354q205 0 281 -119q133 119 385 119q532 0 532 -533q0 -403 -307 -501v-443q139 -182 305 -182t166 160v1212 q0 328 -328 328q-358 0 -358 358t358 359q358 0 359 -359l-2 -6q-162 201 -357 201t-194 -195q0 -195 194 -194q492 0 492 -492v-1212q0 -324 -330 -324q-172 0 -311 135q-33 -135 -199 -135q-205 0 -204 205q0 205 245 205v350q-31 -2 -61 -2q-199 0 -324 74l41 18 q166 31 283 17q369 55 368 423q0 369 -368 369q-348 0 -348 -369v-884q0 -406 -344 -406h-129q-346 0 -347 326zM625 -553q0 -72 71 -72q72 0 72 72t-72 72t-71 -72z" />
<glyph unicode="&#xaa77;" horiz-adv-x="1228" d="M82 0l12 23l244 94q6 47 6 78q0 33 -39 49q-117 47 -170 129t-53 159q0 533 532 533t533 -533q0 -281 -275 -491l289 -590l269 -53h-5l-348 -156l-313 699q-18 -10 -39 -21l-33 -553l215 -110l-6 -15h-340v813q422 152 422 477q0 369 -369 369t-368 -369q0 -100 131 -155 t131 -187q0 -190 -205 -190h-221zM256 1464q0 358 358 359q358 0 359 -359l-15 -12q-149 207 -344 207t-194 -195q0 -195 209 -356l-15 -2q-358 0 -358 358z" />
<glyph unicode="&#xaa78;" horiz-adv-x="1679" d="M53 137q152 141 152 361q0 229 -96 432l28 10q231 -166 232 -442q0 -268 -277 -363zM383 -31q66 256 334 256q176 0 295 -59l231 713q61 186 301 186q39 0 101.5 -34t95.5 -109l24 -7q-188 41 -211 -24q-23 61 -41 8q-115 0 -151 -115l-221 -655q74 -53 86 -66l2 -30 q-283 49 -512 49q-219 0 -326 -131zM383 1057l8 -4q106 -111 326 -111q230 0 336 123l18 -2q-80 -285 -354 -285q-268 0 -334 279z" />
<glyph unicode="&#xaa79;" horiz-adv-x="1228" d="M68 8l247 88q29 68 29 99q0 33 -39 49q-117 47 -170 129t-53 159q0 533 532 533t533 -533q0 -403 -422 -612l6 -561l191 -109l-21 -8h-340v772q422 213 422 518q0 369 -369 369t-368 -369q0 -100 131 -155t131 -187q0 -190 -205 -190h-221z" />
<glyph unicode="&#xaa7a;" horiz-adv-x="2457" d="M82 -332v1508q0 426 448 426h539q283 0 453 215l-6 6q0 -385 -447 -385h-539q-285 0 -284 -262v-1508q0 -262 284 -262h498q283 0 283 262v864q0 369 -369 369t-369 -369t349 -415q150 -14 344 -37v-6q-125 -74 -324 -74q-532 0 -532 532t532 533q532 0 533 -533 q0 -369 368 -368q369 0 369 368q0 369 -369 402q-129 2 -311 31l-12 26q125 74 323 74q532 0 533 -533q0 -532 -533 -532q-238 0 -368 106v-438q0 -426 -447 -426h-498q-449 0 -448 426z" />
<glyph unicode="&#xaa7b;" horiz-adv-x="573" d="M82 139v66q0 205 205 205t205 -205q0 -188 -281 -68q8 -221 201 -452l-21 10q-309 86 -309 444zM215 205q0 -72 72 -72t71 72q0 72 -71 71q-72 0 -72 -71z" />
<glyph horiz-adv-x="0" d="M-1188 -399q0 358 359 358q166 0 256 -78q90 78 256 78q358 0 358 -358t-358 -359q-35 0 -66 4l37 54q14 -8 -4 -37q227 143 227 338t-194 194q-154 0 -154 -194q0 -303 -256 -351l4 19q88 162 88 332q0 195 -194 194q-195 0 -195 -194q0 -170 88 -361l4 10 q-256 47 -256 351z" />
<glyph horiz-adv-x="0" d="M-936 -272h12q57 231 344 231q358 0 359 -358q0 -358 -359 -359q-283 0 -342 223q0 47 126 101.5t216 54.5t189 -149l6 129q0 195 -195 194q-158 0 -356 -67zM-754 -516q35 -98 174 -98t174 98q-90 35 -174 35q-104 0 -174 -35z" />
<glyph horiz-adv-x="2" d="M-932 -399q1 358 359 358t358 -358q0 -303 -256 -351l-25 -2q117 182 117 353q0 195 -194 194q-195 0 -195 -194q0 -170 109 -326l-17 -25q-256 47 -256 351z" />
<glyph horiz-adv-x="0" d="M-1188 -180l35 14l141 82q150 41 150 -88q0 -88 -81 -145.5t-81 -83.5q0 -193 195 -193q194 0 194 195q0 170 -94 325l2 25q256 -47 256 -350q0 -195 154 -195q195 0 194 195q0 195 -248 321q59 -92 31 -108l-43 141q31 4 66 4q358 0 358 -358t-358 -359q-166 0 -256 78 q-90 -78 -256 -78q-358 0 -359 357v2q0 57 41 88t129 73v58h-170z" />
<glyph horiz-adv-x="2" d="M-928 -395q0 358 359 358q303 0 350 -256l10 -16q-190 109 -360 108q-195 0 -195 -194q0 -195 195 -195q170 0 352 103l-2 -11q-47 -256 -350 -256q-359 1 -359 359z" />
<glyph horiz-adv-x="2" d="M-932 -399q0 358 359 358q358 0 358 -358t-358 -359q-358 0 -359 359zM-788 -399q0 -139 98 -174q35 90 35 174t-35 174q-98 -35 -98 -174zM-580 -205q27 -104 27 -194q0 -91 -27 -195h7q195 0 194 195q0 195 -194 194h-7z" />
<glyph horiz-adv-x="0" d="M-1180 -272q57 231 344 231q166 0 256 -78q90 78 256 78q358 0 359 -358q0 -358 -359 -359q-166 0 -256 78q-90 -78 -256 -78q-283 0 -342 223q0 47 189 129q63 27 153 27t168 -121l-14 101q0 195 -154 194q-158 0 -327 -82zM-1010 -516q35 -98 174 -98q98 0 148 151 q-64 -18 -148 -18t-174 -35zM-518 -399q0 -195 194 -195q195 0 195 195q0 194 -195 194t-194 -194z" />
<glyph horiz-adv-x="2" d="M-928 -395q0 358 359 358q291 0 346 -233q53 -41 147 -148l-12 -8q-129 16 -205 74q-35 -39 -110 -39q-143 0 -144 184v6h-22q-195 0 -195 -194q0 -195 195 -195q170 0 360 103l-10 -11q-47 -256 -350 -256q-358 0 -359 359zM-455 -238q0 -51 52 -51q51 0 51 51t-51 52 q-51 0 -52 -52z" />
<glyph horiz-adv-x="327" d="M-909 -399q0 358 358 358q352 0 358 -367l275 -155v1628l22 -168l115 -1567l-96 -88l-354 203q-78 -203 -320 -203q-358 0 -358 359zM-745 -399q0 -139 77 -174q35 90 35 174t-35 174q-78 -35 -77 -174zM-557 -205q27 -104 27 -194q0 -91 -27 -195h6q195 0 195 195 t-195 194h-6z" />
<glyph horiz-adv-x="0" d="M-946 -602q162 -10 373 -12q219 0 319 88h39v-129l178 -95l-14 -8h-266v88q-90 -47 -256 -47q-281 2 -359 96zM-928 -305q0 268 359 268q303 0 350 -192l29 -2q-209 41 -379 41q-195 0 -195 -115t195 -115q170 0 346 35l4 4q-47 -193 -350 -192q-359 0 -359 268z" />
<glyph horiz-adv-x="0" d="M-1192 -313q0 272 223 272t224 -272v-170l-3 -15l-53 197q-47 96 -117 96q-111 0 -110 -108v-150q0 -127 160 -127h260q-61 106 -62 191q0 358 359 358q358 0 358 -358q0 -303 -256 -359l2 -2q90 190 90 361q0 195 -194 194q-195 0 -195 -194q0 -170 117 -373l-25 14 l-557 4q-221 0 -221 291v150z" />
<glyph horiz-adv-x="0" d="M-1239 -399q0 358 319 358q111 0 183 -43q137 10 145 301q59 -279 182 -301q72 43 183 43q319 0 319 -358t-358 -359l-6 15q201 150 200 344q0 195 -155 194q-156 0 -156 -194q0 -154 49 -219q-143 -104 -233 -228q-88 147 -226 228q29 66 29 219q0 195 -156 194 q-155 1 -155 -194t227 -351l-33 -8q-358 0 -358 359zM-659 -156q59 -88 59 -243q0 -143 -49 -232q27 -25 76 -24q49 0 75 24q-49 88 -49 232q1 155 60 243q-25 12 -86 13q-61 0 -86 -13z" />
<glyph horiz-adv-x="0" d="M-1188 -399q0 358 359 358q165 0 276 -119q90 119 236 119q358 0 358 -358t-358 -359q-35 0 -66 4l16 41q-18 -37 -30 -8q274 127 274 322t-194 194q-154 0 -154 -194q0 -358 -358 -359q-358 0 -359 359zM-1024 -399q0 -195 195 -195t194 195q1 194 -194 194t-195 -194z " />
<glyph horiz-adv-x="0" d="M-1188 -399q0 358 359 358q166 0 256 -78q90 78 256 78q358 0 358 -358t-358 -359q-166 0 -256 78q-90 -78 -256 -78q-358 0 -359 359zM-1024 -399q0 -195 195 -195t194 195q1 194 -194 194t-195 -194zM-512 -399q0 -195 195 -195t194 195q1 194 -194 194t-195 -194z" />
<glyph horiz-adv-x="0" d="M-932 -287q0 246 359 246q358 0 358 -246q0 -61 -90 -112q90 -51 90 -113q0 -246 -358 -246t-359 246l2 6q162 -109 357 -108q195 0 194 102q0 61 -194 61v103q195 0 194 61q0 102 -194 103q-195 0 -357 -82z" />
<glyph horiz-adv-x="2" d="M-932 -399q1 358 359 358t358 -358t-358 -359q-358 0 -359 359zM-768 -399v-7q104 27 195 27q90 0 194 -27v7q0 195 -194 194q-195 0 -195 -194zM-748 -516q35 -78 175 -78q139 0 174 78q-90 35 -174 35q-85 0 -175 -35z" />
<glyph horiz-adv-x="0" d="M-932 -551q0 137 152 137q242 0 241 -159v-62q201 8 201 98q0 66 -228.5 134.5t-228.5 183.5q0 178 207 178q236 0 236 -192h12q-135 70 -248 69q-63 0 -63 -55q0 -41 218 -109.5t218 -208.5q0 -221 -358 -221t-359 207zM-809 -551q1 -76 277 -84l-82 96q-27 25 -105 25 q-90 0 -90 -37z" />
<glyph horiz-adv-x="2" d="M-932 -391q0 303 256 350l10 23q-102 -203 -102 -373q0 -195 195 -195t194 195q0 170 -96 334l4 16q256 -47 256 -350q0 -358 -358 -359q-359 1 -359 359z" />
<glyph horiz-adv-x="2" d="M-932 -399q0 287 232 344v-17q-68 -170 -68 -327q0 -195 195 -195h6q-27 104 -27 195q0 90 27 153q82 188 129 189q223 -59 223 -342q0 -358 -358 -359q-358 0 -359 359zM-530 -608q152 70 151 209q0 139 -78 174q-35 -90 -35 -174q1 -84 -38 -209z" />
<glyph horiz-adv-x="2" d="M-932 -391q0 303 256 350l35 -121q25 -18 68 -18t67 18l35 121q256 -47 256 -350q0 -358 -358 -359q-358 0 -359 359zM-768 -391q0 -195 195 -195t194 195q0 129 -51 166q-84 -57 -143 -58q-60 1 -144 60q-51 -39 -51 -168z" />
<glyph horiz-adv-x="0" d="M-1186 -311l2 18q47 256 350 256q168 0 279 -100q68 96 233 96q358 0 359 -358q0 -358 -359 -359q-35 0 -65 4l45 33q12 -23 -121 -35q336 162 336 357t-195 194q-154 0 -153 -190q0 -358 -359 -359q-303 0 -350 256l-2 17q182 -109 352 -109q195 0 195 195t-195 194 q-170 0 -352 -110z" />
<glyph horiz-adv-x="2" d="M-932 -391q0 303 256 350l19 -16q-111 -164 -111 -334v-25q100 33 195 33q94 0 194 -33v25q0 170 -108 332l16 18q256 -47 256 -350q0 -358 -358 -359q-358 0 -359 359zM-735 -530q39 -76 162 -76t161 76q-76 45 -161 45q-86 0 -162 -45z" />
<glyph horiz-adv-x="0" d="M-1188 -399q0 358 359 358q338 0 337 -358q0 -195 175 -195q195 0 194 195q0 195 -283 342q74 -147 60 -150l-37 162q31 4 66 4q358 0 358 -358t-358 -359q-338 1 -338 359q0 195 -174 194q-195 0 -195 -194q0 -195 365 -365q-203 82 8 16l-113 -6q-31 -4 -65 -4 q-358 0 -359 359z" />
<glyph horiz-adv-x="2" d="M-932 -399q1 358 359 358t358 -358t-358 -359q-358 0 -359 359zM-768 -399q0 -195 195 -195t194 195q1 194 -194 194t-195 -194z" />
<glyph horiz-adv-x="2" d="M-1292 -573l14 16l186 -68l131 168q41 416 388 416q358 0 358 -358t-358 -359q-266 0 -336 199l-174 -199zM-768 -399q0 -195 195 -195t194 195q1 194 -194 194t-195 -194z" />
<glyph horiz-adv-x="327" d="M82 -332v1729q0 426 448 426h1235q446 0 447 -426v-168l-17 -21l-108 230q-39 221 -322 221h-1235q-285 0 -284 -262v-1729q0 -262 284 -262h1235q283 0 336 256l103 332l8 6v-332q0 -426 -447 -426h-1235q-449 0 -448 426z" />
<glyph horiz-adv-x="327" d="M82 -758v1823h164v-1659l217 -147l-21 -17h-360z" />
<glyph horiz-adv-x="614" d="M82 1065h164v-1823l-15 -149zM369 -758v1823h163v-1659l252 -162l-55 -2h-360z" />
<glyph horiz-adv-x="327" d="M82 -332v1729q0 426 448 426h416q446 0 447 -426v-168l-9 -27l-108 250q-47 207 -330 207h-416q-285 0 -284 -262v-1729q0 -262 293 -418l-9 -8q-449 0 -448 426z" />
<glyph horiz-adv-x="327" d="M82 -332v1729q0 426 455 270l-7 -8q-285 0 -284 -262v-1729q0 -262 284 -262h416q283 0 350 234l88 374l9 -14v-332q0 -426 -447 -426h-416q-449 0 -448 426z" />
<glyph horiz-adv-x="327" d="M82 -332v1729q0 426 442 276l6 -14q-285 0 -284 -262v-1729q0 -262 278 -303l428 -115l-6 -8h-416q-449 0 -448 426z" />
<glyph horiz-adv-x="327" d="M82 -332v1729q0 426 448 426h1235q446 0 447 -426v-168l4 -29l-127 270q-41 188 -324 189h-1235q-285 0 -284 -262v-1729q0 -262 243 -282l654 -144h6h-619q-449 0 -448 426z" />
<glyph horiz-adv-x="327" d="M82 -332v1729q0 426 434 370l633 -106v-2h-619q-285 0 -284 -262v-1729q0 -262 284 -262h1235q283 0 342 234l97 360h8v-332q0 -426 -447 -426h-1235q-449 0 -448 426z" />
<glyph horiz-adv-x="327" d="M82 -332v1729q0 426 448 393l613 -129l6 -2h-619q-285 0 -284 -262v-1729q0 -262 278 -295l637 -137l-12 6h-619q-449 0 -448 426z" />
<glyph d="M82 -76v262l76 37q158 -141 415 -141q193 0 328 80v76q-168 -80 -328 -80q-492 0 -491 454q0 453 491 453q414 0 492 -307l10 -15q-217 158 -502 158q-328 0 -327 -289q0 -291 327 -290q285 0 508 163l-16 -20v-320q-184 -166 -492 -165q-145 0 -327 69v-72 q184 -59 327 -59q291 0 492 131v-643l156 -162l8 -2h-328v608q-145 -35 -328 -34q-281 0 -491 108zM82 -655l20 14q127 -8 297 -8q219 0 320 65h39v-96l76 -68l-15 -10h-164v66q-90 -35 -256 -35q-240 2 -317 72zM86 -418q0 201 317 201q303 0 351 -143h16q-197 29 -367 28 q-154 0 -153 -86q0 -86 153 -86q170 0 347 25l4 4q-47 -143 -351 -143q-317 -1 -317 200z" />
<glyph horiz-adv-x="1966" d="M76 702l6 31q59 332 491 332q492 0 492 -451v-163q0 -287 328 -287t389 239l73 627l29 35v-614q0 -451 -491 -451q-291 0 -410 158q-119 -158 -410 -158q-207 0 -327 76v-428q0 -242 237 -283l502 -115v-8h-455q-449 0 -448 406v684l31 4q156 -172 460 -172 q328 0 328 287v163q0 287 -328 287q-305 0 -497 -199z" />
<glyph d="M82 307q0 184 246 185q68 0 209 -82q119 -70 137 -242q227 16 227 160q0 84 -121 116l-174 58q-360 106 -360 297q0 266 307 266q348 0 348 -287l12 -12q-176 135 -360 135q-143 0 -143 -102q0 -57 120 -94l195 -58q340 -80 340 -319q0 -328 -492 -328t-491 307zM287 307 q-1 -125 405 -160q-199 221 -344 222q-61 0 -61 -62z" />
<glyph d="M82 451v163q0 451 491 451q492 0 492 -451v-1126h-2l-94 1126q-68 287 -396 287t-327 -287v-2q532 -256 532 -393q0 -219 -205 -219q-492 0 -491 451zM246 451q-1 -287 327 -287q102 0 103 55q0 70 -428 373z" />
<glyph d="M82 332l22 -4q164 -164 469 -164q328 0 328 287v163q0 287 -328 287q-305 0 -489 -190l-2 22q59 332 491 332q492 0 492 -451v-163q0 -451 -492 -451q-207 0 -327 76v-428q0 -242 305 -412l-21 6q-449 0 -448 406v684z" />
<glyph horiz-adv-x="0" d="M-369 -246q101 172 199 522q137 -317 211 -522q-41 -145 -199 -307q-143 117 -211 307zM-236 -246q0 -72 72 -71q72 -1 72 71t-72 72t-72 -72z" />
<glyph horiz-adv-x="327" d="M-399 -446h28l418 -41l203 1605l-4 -53v-1823h-164z" />
<glyph horiz-adv-x="0" d="M-913 -426l71 -4l213 -125l346 451l146 -84l-506 -508z" />
<glyph horiz-adv-x="0" d="M-102 -246q87 205 204 537q143 -344 205 -537q-47 -178 -198 -293q-164 102 -211 293zM31 -246q0 -72 71 -71q72 -1 72 71t-72 72t-71 -72z" />
<glyph d="M82 -59l41 -2q217 -61 450 -62q258 0 490 113l2 -8v-396q0 -344 -385 -344h-313q-285 0 -285 264q0 182 272 142l285 -47v-15h-272q-121 0 -121 -80q0 -100 121 -100h313q221 0 221 180v238q-182 -49 -328 -49q-307 0 -491 166zM82 451v163q0 451 491 451q432 0 492 -332 l18 -16q-205 184 -510 184q-328 0 -327 -287v-163q0 -287 327 -287q305 0 490 184l2 -16q-59 -332 -492 -332q-492 0 -491 451z" />
<glyph horiz-adv-x="0" d="M-907 -504l278 115l-67 348h164v-471h-361z" />
</font>
</defs>
</svg>
