<?xml version="1.0" standalone="no"?>
<!DOCTYPE svg PUBLIC "-//W3C//DTD SVG 1.1//EN" "http://www.w3.org/Graphics/SVG/1.1/DTD/svg11.dtd" >
<svg xmlns="http://www.w3.org/2000/svg" xmlns:xlink="http://www.w3.org/1999/xlink" version="1.1">
<metadata></metadata>
<defs>
<font id="myanglishregular" horiz-adv-x="0" >
<font-face units-per-em="2048" ascent="1638" descent="-410" />
<missing-glyph horiz-adv-x="500" />
<glyph unicode="&#x108a;&#x1959;&#x1958;" horiz-adv-x="1409" d="M88 322q0 82 31 148.5t98.5 130t183.5 128.5q-74 96 -104.5 175t-30.5 161q0 92 48 163.5t136.5 111.5t196.5 40q68 0 126 -13t101.5 -43t69 -78t25.5 -118q0 -33 -7.5 -63.5t-21.5 -57t-36.5 -56t-61.5 -63.5t-100.5 -72t-135.5 -81q49 -66 149.5 -185.5t200.5 -230.5 q68 70 101 138.5t33 142.5q0 51 -25 78t-78 33v49h287v-49q0 -14 -10 -60q-6 -29 -17 -57q-8 -29 -20 -57q-12 -27 -27 -56q-14 -29 -35 -55q-18 -29 -41 -57q-23 -29 -51 -58q-27 -29 -57 -57q49 -57 86 -90t64.5 -46.5t60.5 -13.5q29 0 56.5 14.5t74.5 53.5l45 -57 q-59 -61 -125 -96t-125 -35q-49 0 -86 13t-75 42.5t-97 95.5q-102 -82 -198.5 -116.5t-211.5 -34.5q-121 0 -211 42t-138 117.5t-48 178.5zM268 362q0 -82 34 -142t93.5 -91t132.5 -31q86 0 157 23.5t149 81.5q-31 37 -93 106l-163 197q-41 49 -74 90l-47 61 q-98 -63 -143.5 -133.5t-45.5 -161.5zM434 1081q0 -59 25.5 -123.5t91.5 -152.5q127 68 192.5 145.5t65.5 161.5q0 57 -21.5 99t-61.5 63.5t-91 21.5q-59 0 -104.5 -25.5t-71 -73.5t-25.5 -116z" />
<glyph unicode="&#x1073;&#x1959;&#x1958;" horiz-adv-x="542" d="M-115 961v182h453v-993h283v-170q-127 0 -226.5 -1.5t-226.5 -1.5l-2 984h-281z" />
<glyph unicode="!" horiz-adv-x="585" d="M193 0v231h200v-231h-200zM193 1366h210l-65 -950h-96z" />
<glyph unicode="&#x22;" horiz-adv-x="804" d="M145 1432h195l-64 -467h-106zM483 1432h195l-64 -467h-104z" />
<glyph unicode="#" horiz-adv-x="1267" d="M111 424v113h215l43 297h-209v114h225l57 418h136l-62 -418h309l60 418h133l-60 -418h199v-114h-215l-41 -297h209v-113h-225l-60 -424h-135l62 424h-308l-59 -424h-133l57 424h-198zM461 537h307l41 297h-307z" />
<glyph unicode="$" horiz-adv-x="1036" d="M113 94v221h100q23 -102 84 -150t176 -52v518l-24 12q-131 63 -193.5 110.5t-96.5 107t-34 136.5q0 76 27.5 136.5t75.5 103.5t114 68.5t137 31.5v193h105v-187q176 0 329 -57v-215h-100q-27 90 -82 136t-147 48v-481q141 -66 210.5 -119t106.5 -118.5t37 -151.5 q0 -164 -91 -253t-269 -101v-187h-105v185q-88 2 -188.5 20.5t-171.5 44.5zM289 1053q0 -82 45 -135.5t145 -102.5v438q-86 -12 -138 -66t-52 -134zM578 117q94 10 143 67.5t49 153.5q0 86 -45 145.5t-147 108.5v-475zM1036 1366z" />
<glyph unicode="%" horiz-adv-x="1822" d="M104 942q0 147 41 245.5t112 145.5t163 47q88 0 146.5 -30.5t95 -86t52 -133t15.5 -169.5q0 -219 -82.5 -332t-236.5 -113t-230 106.5t-76 319.5zM254 958q0 -193 40 -280.5t126 -87.5q82 0 122 82t40 262q0 190 -40 282.5t-122 92.5q-63 0 -100 -42t-51.5 -119 t-14.5 -190zM397 -96l883 1462h145l-880 -1462h-148zM1094 313q0 147 40 245.5t110.5 146t164.5 47.5q86 0 145.5 -31t95.5 -86t51 -133t15 -170q0 -219 -81.5 -332t-237.5 -113q-154 0 -228.5 106.5t-74.5 319.5zM1241 330q0 -195 40 -283t128 -88q82 0 121 83t39 261 q0 193 -39 285t-123 92q-63 0 -99 -42t-51.5 -118.5t-15.5 -189.5z" />
<glyph unicode="'" horiz-adv-x="485" d="M145 1432h213l-73 -478h-107z" />
<glyph unicode="(" horiz-adv-x="782" d="M180 496q0 285 26.5 452.5t86 274t168 160t278.5 53.5v-82q-70 0 -125 -13q-59 -14 -102 -55q-49 -43 -80 -123q-35 -92 -51 -243q-18 -160 -19 -416q0 -225 15.5 -383t50.5 -256q29 -84 70 -131q37 -41 88 -64q59 -23 153 -22v-82q-170 0 -277.5 50t-168 154.5 t-87 272.5t-26.5 453z" />
<glyph unicode=")" horiz-adv-x="782" d="M43 -352q70 0 125 10q59 14 102 55q49 43 78 123q37 92 53 244q18 162 19 416q0 225 -15.5 382.5t-50.5 258.5q-29 84 -69 131q-37 41 -88 61q-59 25 -154 25v82q170 0 277.5 -51.5t168 -156t87 -271t26.5 -453.5q0 -285 -26.5 -453t-87 -274.5t-168 -158.5t-277.5 -52 v82z" />
<glyph unicode="*" horiz-adv-x="874" d="M78 920l287 135l-287 133l65 110l258 -180l-28 314h131l-29 -314l256 180l66 -110l-285 -133l285 -135l-66 -111l-256 180l29 -311h-131l28 311l-258 -180z" />
<glyph unicode="+" horiz-adv-x="1134" d="M125 516v139h369v377h147v-377h369v-139h-369v-379h-147v379h-369z" />
<glyph unicode="," horiz-adv-x="419" d="M25 -215q51 47 73.5 86t32.5 88t10 123q0 76 -8 149h176q14 -70 15 -137q0 -70 -25 -128t-77 -115.5t-144 -126.5z" />
<glyph unicode="-" horiz-adv-x="679" d="M109 449v155h462v-155h-462z" />
<glyph unicode="&#xad;" horiz-adv-x="679" d="M109 449v155h462v-155h-462z" />
<glyph unicode="." horiz-adv-x="419" d="M109 0v231h202v-231h-202z" />
<glyph unicode="/" horiz-adv-x="1003" d="M61 -430l725 1862h154l-721 -1862h-158z" />
<glyph unicode="0" horiz-adv-x="1134" d="M129 670q0 184 33 318t91 221t140 129t178 42q219 0 327 -169t108 -511q0 -354 -115 -535t-336 -181q-215 0 -320.5 170t-105.5 516zM324 700q0 -326 60 -478t187 -152q121 0 180.5 143t59.5 444q0 229 -30.5 371.5t-84 205t-129.5 62.5q-70 0 -115.5 -41t-74.5 -117.5 t-41 -187.5t-12 -250zM389 455v20q0 90 53 139q234 377 246 377q57 -12 57 -88q0 -80 -79 -174q-199 -326 -220 -326h-4q-37 0 -53 52z" />
<glyph unicode="1" horiz-adv-x="1134" d="M178 1102l467 278h55q-6 -96 -6 -266v-854q0 -57 7.5 -87t23.5 -48.5t47 -28.5t78 -15t125 -7v-74h-739v74q111 4 157.5 12t72.5 25.5t37 48t11 100.5v811q0 41 -14.5 59.5t-40.5 18.5q-33 0 -91.5 -33t-146.5 -92z" />
<glyph unicode="2" horiz-adv-x="1134" d="M129 0v47q43 106 115.5 216t208.5 259q115 127 165 195q57 72 84 124t39.5 98t12.5 93q0 76 -23.5 133.5t-74 90t-124.5 32.5q-188 0 -251 -207h-121v193q121 55 226.5 80.5t188.5 25.5q186 0 280.5 -80.5t94.5 -236.5q0 -53 -10 -97t-32.5 -88t-60.5 -94.5t-84 -101.5 t-159 -170q-190 -203 -278 -352h376q49 0 79 6t48.5 20.5t28.5 37t27 69.5h84l-17 -293h-823z" />
<glyph unicode="3" horiz-adv-x="1134" d="M143 55v211h121q35 -102 92.5 -149t155.5 -47q131 0 197.5 70.5t66.5 209.5q0 145 -88 222t-258 77h-90v88q135 8 227 52.5t137.5 114t45.5 155.5q0 111 -58.5 170t-173.5 59q-92 0 -151.5 -50t-87.5 -157h-119v191q115 55 216 81.5t195 26.5q113 0 198 -34.5t130 -100 t45 -155.5q0 -86 -33.5 -151t-95 -113t-160.5 -93v-8q61 -12 117.5 -39t101 -69t71 -100t26.5 -132q0 -117 -51.5 -207t-154.5 -142t-253 -52q-86 0 -185.5 19.5t-183.5 51.5z" />
<glyph unicode="4" horiz-adv-x="1134" d="M61 446v105q0 23 263 418q255 397 278 415h189q10 -2 10 -12v-774h205q12 -2 12 -12v-135q0 -10 -12 -11h-205v-282q166 -16 166 -35v-123q0 -12 -13 -12h-608q-12 0 -12 12v98q0 20 313 60v276h-573q-12 0 -13 12zM250 598h403v592q-28 -29 -403 -592z" />
<glyph unicode="5" horiz-adv-x="1134" d="M150 55v211h120q31 -100 91.5 -148t156.5 -48q133 0 200.5 79.5t67.5 237.5q0 106 -35.5 176t-96 100.5t-142.5 30.5q-68 0 -117 -8t-104 -27l-80 48v659h551q33 0 48 5t24.5 16.5t19.5 44.5h80l-16 -234h-576v-438q53 23 113.5 34t122.5 11q119 0 211 -49t142 -138.5 t50 -207.5q0 -133 -56.5 -229.5t-162 -146.5t-250.5 -50q-172 -1 -362 71z" />
<glyph unicode="6" horiz-adv-x="1134" d="M129 520q0 178 56.5 334t160 270.5t239.5 181t285 74.5l41 -55v-47q-154 0 -273.5 -66.5t-197.5 -194.5t-110 -304l10 -4q84 59 166 87.5t176 28.5q113 0 192.5 -50t119.5 -139t40 -210q0 -129 -50 -228.5t-154.5 -156.5t-258.5 -57q-219 0 -330.5 136t-111.5 400z M322 461q0 -193 63.5 -292t194.5 -99q74 0 125 25.5t82.5 71.5t45 107.5t13.5 133.5q0 147 -60.5 230t-173.5 83q-49 0 -94 -11.5t-85 -33t-79 -51.5q-12 -12 -16 -25q-10 -18 -13 -46t-3 -93z" />
<glyph unicode="7" horiz-adv-x="1134" d="M123 924v440h833v-131q-256 -354 -309 -647q-57 -330 -51 -426l174 -23v-145h-520v145l196 23q16 301 78 526q80 285 240 510h-494l-45 -272h-102z" />
<glyph unicode="8" horiz-adv-x="1134" d="M111 360q0 86 29.5 150.5t78.5 105.5t123 76l-2 13q-215 94 -215 319q0 102 56.5 183t160.5 127t231 46q145 0 242.5 -40t148 -116.5t50.5 -183.5q0 -111 -54 -190.5t-167 -128.5l2 -12q113 -45 171 -129t58 -203t-56.5 -207t-163 -137t-249.5 -49q-131 0 -232.5 45 t-156.5 130t-55 201zM301 377q0 -66 15.5 -122t48 -97t84 -64.5t122.5 -23.5q82 0 140.5 32.5t89 99t30.5 156.5q0 96 -32.5 166t-93 106t-138.5 36q-74 0 -125 -22.5t-81.5 -61.5t-45 -92.5t-14.5 -112.5zM313 1032q0 -57 14.5 -109.5t45 -90t80 -60t120.5 -22.5 q84 0 140.5 31.5t84 94t27.5 146.5q0 88 -32.5 151.5t-90 93t-131.5 29.5q-125 0 -191.5 -68.5t-66.5 -195.5z" />
<glyph unicode="9" horiz-adv-x="1134" d="M100 938q0 90 30 171t89.5 141.5t147.5 95t206 34.5q209 0 320 -144t111 -417q0 -250 -81 -432t-227.5 -283.5t-341.5 -119.5l-41 55v49q139 0 241.5 62.5t165 183.5t85.5 317l-10 4q-84 -59 -166 -86.5t-176 -27.5q-113 0 -193 49t-120 138t-40 210zM289 958 q0 -150 60 -231.5t171 -81.5q39 0 74 6t67.5 18.5t64.5 33t56 40.5q8 8 15.5 21.5t11.5 34t4 65.5q0 137 -27.5 234.5t-84 147.5t-140.5 50q-74 0 -126 -26.5t-85 -71.5t-47 -106.5t-14 -133.5z" />
<glyph unicode=":" horiz-adv-x="540" d="M170 0v231h201v-231h-201zM170 670v233h201v-233h-201z" />
<glyph unicode=";" horiz-adv-x="540" d="M74 -215q51 47 73.5 86t32.5 88t10 123q0 76 -8 149h176q14 -70 15 -137q0 -70 -24.5 -128t-77 -115.5t-144.5 -126.5zM170 670v233h201v-233h-201z" />
<glyph unicode="&#x3c;" horiz-adv-x="1134" d="M125 514v141l885 381v-149l-738 -301l738 -301v-152z" />
<glyph unicode="=" horiz-adv-x="1134" d="M125 307v139h885v-139h-885zM125 723v139h885v-139h-885z" />
<glyph unicode="&#x3e;" horiz-adv-x="1134" d="M125 133v152l737 301l-737 301v149l885 -381v-141z" />
<glyph unicode="?" horiz-adv-x="864" d="M92 1112v166q115 57 194 79.5t156 22.5q119 0 198 -35.5t115 -97t36 -143.5q0 -41 -8.5 -76t-23 -67.5t-38 -67.5t-52 -70t-98.5 -116q-53 -63 -77.5 -100.5t-33.5 -73t-9 -93.5v-24h-136v35q0 41 5.5 65.5t17.5 53t38.5 67.5t76.5 100q59 74 83.5 120t38 95t13.5 111 q0 78 -20.5 131t-59.5 79.5t-88 26.5q-78 0 -126 -47t-67 -141h-135zM285 0v231h200v-231h-200z" />
<glyph unicode="@" horiz-adv-x="1812" d="M137 539q0 172 59.5 326.5t176 271t275.5 180t347 63.5q182 0 317.5 -50t216.5 -138t117.5 -199.5t36.5 -244.5q0 -166 -50 -296t-141 -201t-212 -71q-43 0 -81 11.5t-65.5 34t-45 59.5t-17.5 90q0 24 2 47l-12 2q-84 -127 -160 -185.5t-153 -58.5q-66 0 -112 34 t-69.5 96.5t-23.5 144.5t19.5 164.5t57 157.5t92 131.5t125 91t154.5 34.5q59 0 107.5 -13t91.5 -40l78 53l63 -14l-110 -502q-10 -45 -14.5 -73.5t-4.5 -55.5q0 -115 96 -115q70 0 125.5 57.5t85 159t29.5 220.5q0 186 -60.5 315t-180 194.5t-289.5 65.5q-211 0 -370 -94 t-245 -269t-86 -399q0 -195 66.5 -325.5t193.5 -196t303 -65.5q86 0 158 12t154 39l22 -90q-63 -25 -152 -39.5t-186 -14.5q-250 0 -412.5 82t-239.5 235.5t-77 377.5zM709 463q0 -86 22.5 -128t75.5 -42q43 0 84 30.5t87 90t75.5 122t48.5 148.5l8 37q6 37 9 62.5t3 52.5 q0 63 -27.5 90.5t-88.5 27.5q-35 0 -67 -11t-64.5 -37.5t-62.5 -68.5t-53.5 -103.5t-36.5 -133.5t-13 -137z" />
<glyph unicode="A" horiz-adv-x="1275" d="M6 0v59q55 10 97 80t81 197l416 1356h160l340 -1366q23 -94 41 -144.5t44.5 -79t71.5 -43.5v-59h-460v59q49 14 73.5 28.5t37 41.5t12.5 70t-8.5 90t-22.5 108l-37 158h-467l-35 -121q-25 -90 -33 -136t-8 -85q0 -72 31 -107.5t92 -46.5v-59h-426zM424 672h418l-189 766z " />
<glyph unicode="B" horiz-adv-x="1251" d="M121 0v61q61 20 82.5 44t28 69t6.5 135v1071q0 86 -5.5 125t-16.5 60.5t-29.5 35t-65.5 29.5v62h547q160 0 256 -43t143 -126t47 -212q0 -106 -33.5 -186.5t-88 -132.5t-138.5 -95v-12q135 -51 205.5 -155.5t70.5 -252.5q0 -168 -60 -274.5t-169.5 -154.5t-263.5 -48 h-516zM426 96q72 -8 162 -8q131 0 203.5 39t105.5 115.5t33 193.5q0 115 -36 189.5t-109.5 112.5t-204.5 38h-154v-680zM426 926h174q152 0 232.5 91t80.5 269q0 88 -22.5 144.5t-62.5 90t-93 49t-117 15.5q-39 0 -100 -3t-92 -5v-651z" />
<glyph unicode="C" horiz-adv-x="1153" d="M119 819q0 258 67.5 453.5t198.5 303t313 107.5q90 0 167 -11t177 -44v-336h-100q-23 106 -59.5 169t-85.5 89.5t-119 26.5q-102 0 -183 -84t-127 -251t-46 -404q0 -238 37.5 -407t112.5 -255t181 -86q82 0 134.5 28.5t88 91t66.5 183.5h100v-348q-94 -31 -192 -46 t-217 -15q-254 0 -384 208.5t-130 626.5z" />
<glyph unicode="D" horiz-adv-x="1355" d="M121 0v61q45 14 65.5 28.5t30.5 34t15.5 58.5t5.5 125v1065q0 90 -5.5 128t-16.5 58.5t-29.5 34t-65.5 29.5v61h436q190 0 310 -52t203 -151.5t125 -248t42 -352.5q0 -209 -39 -367t-113 -266q-63 -94 -157 -156q-76 -47 -177.5 -68.5t-269.5 -21.5h-360zM426 117 q39 -4 117 -4q84 0 150.5 17t119.5 53t96 101.5t71 150.5t40 187.5t12 225.5q0 246 -58.5 403.5t-165 230t-253.5 72.5q-70 0 -129 -4v-1433z" />
<glyph unicode="E" horiz-adv-x="1177" d="M121 0v61q61 20 82.5 44t28 69t6.5 135v1071q0 86 -5.5 125t-16.5 60.5t-29.5 35t-65.5 29.5v62h936v-375h-99q-16 59 -31.5 105t-32.5 78t-37.5 49.5t-48.5 25.5t-67 8h-315v-649h213q43 0 68.5 15.5t42 51t30.5 115.5h94v-475h-94q-12 74 -29.5 112t-41 54t-70.5 16 h-213v-714h309q49 0 80 10t53.5 35.5t39 67.5t27.5 85t32 127h100l-20 -434h-926z" />
<glyph unicode="F" horiz-adv-x="1099" d="M121 0v61q61 20 82.5 44t28 69t6.5 137v1073q0 86 -5.5 126t-16.5 61.5t-29.5 34t-65.5 30.5v62h911v-377h-96q-23 84 -43.5 136t-43 80t-52 40t-78.5 12h-293v-678h205q45 0 69.5 17.5t41 59.5t30.5 132h94v-524h-94q-14 84 -30.5 127t-40 61.5t-70.5 18.5h-205v-488 q0 -76 6 -120.5t22.5 -70.5t43 -39t67.5 -24v-61h-444z" />
<glyph unicode="G" horiz-adv-x="1251" d="M119 827q0 260 69.5 457t200.5 302.5t309 105.5q92 0 178.5 -12.5t190.5 -45.5v-336h-98q-27 111 -64 172.5t-88 87t-131 25.5q-109 0 -190.5 -85t-127.5 -251t-46 -405q0 -238 38.5 -408t114.5 -256t187 -86q119 0 176 62.5t57 195.5v72q0 111 -10.5 160t-34 74.5 t-78.5 43.5v60h404v-60q-35 -16 -53.5 -34.5t-28 -46t-13.5 -68.5t-4 -117v-426l-78 -24l-71 94q-66 -47 -136.5 -70.5t-162.5 -23.5q-254 0 -382 213t-128 630z" />
<glyph unicode="H" horiz-adv-x="1406" d="M121 0v61q61 20 82.5 44t28 69t6.5 135v1071q0 86 -5.5 125t-16.5 60.5t-29.5 35t-65.5 29.5v62h422v-62q-45 -14 -64.5 -28.5t-31 -35t-16.5 -60.5t-5 -126v-436h555v436q0 109 -8 148t-28.5 60.5t-80.5 41.5v62h420v-62q-55 -16 -77.5 -37.5t-31 -66.5t-8.5 -146v-1071 q0 -72 3.5 -108.5t10.5 -58t17 -34t28.5 -23.5t57.5 -24v-61h-420v61q55 16 78 37t31 66t8 145v520h-555v-520q0 -84 4 -121.5t14.5 -59.5t31 -37t67.5 -30v-61h-422z" />
<glyph unicode="I" horiz-adv-x="663" d="M121 0v61q61 20 82.5 44t28 69t6.5 137v1073q0 86 -5.5 126t-16.5 61.5t-29.5 34t-65.5 30.5v62h422v-62q-43 -14 -62.5 -28.5t-32 -35t-17.5 -61.5t-5 -127v-1073q0 -84 4 -122.5t15.5 -60.5t32 -37t65.5 -30v-61h-422z" />
<glyph unicode="J" horiz-adv-x="628" d="M29 -287q88 39 124.5 80t51 102.5t14.5 165.5v1325q0 104 -8 141.5t-27.5 58t-81.5 40.5v57h422v-57q-43 -14 -62.5 -27.5t-30.5 -33t-17 -58.5t-6 -121v-1236q0 -158 -32 -257.5t-105.5 -167t-209.5 -116.5z" />
<glyph unicode="K" horiz-adv-x="1288" d="M121 0v61q61 20 82.5 44t28 69t6.5 135v1071q0 86 -5.5 125t-16.5 60.5t-29.5 35t-65.5 29.5v62h422v-62q-45 -14 -64.5 -28.5t-31 -35t-16.5 -60.5t-5 -126l-2 -454h31q37 0 68.5 15t70.5 55t119 153q96 131 131 192q45 72 59 119q12 37 12 70q0 51 -23.5 73.5 t-62.5 26.5v62h437v-62q-33 -10 -64 -31.5t-63.5 -59.5t-96.5 -124l-335 -467l364 -657q57 -102 90 -143.5t63.5 -61.5t63.5 -25v-61h-440v61q37 2 54.5 16.5t17.5 41.5q0 23 -11.5 54.5t-38.5 74.5l-231 432q-41 76 -60.5 100.5t-42 36.5t-59.5 12h-51v-520q0 -84 4 -121.5 t14.5 -59.5t31 -37t67.5 -30v-61h-422z" />
<glyph unicode="L" horiz-adv-x="1099" d="M121 0v61q61 20 82.5 44t28 69t6.5 135v1071q0 86 -5.5 125t-16.5 60.5t-29.5 35t-65.5 29.5v62h422v-62q-45 -14 -63.5 -27.5t-31 -32t-17.5 -59.5t-5 -131v-1265h260q43 0 72.5 6t50 18.5t37 36t32 60t29 93t31.5 169.5h102l-20 -498h-899z" />
<glyph unicode="M" horiz-adv-x="1669" d="M117 0v61q61 20 82.5 44t27.5 69t6 135v1071q0 86 -5 125t-16 60.5t-29.5 35t-65.5 29.5v62h356l352 -1207l385 1207h338v-62q-43 -14 -62.5 -28.5t-30.5 -35t-17 -60.5t-6 -126v-1071q0 -84 5 -121.5t15 -59.5t30.5 -37t65.5 -30v-61h-415v61q57 16 78.5 38t29.5 67 t8 143v475q0 186 4 378t11 263h-17l-395 -1226h-117l-366 1245h-19q6 -74 11 -273.5t4 -406.5v-455q0 -84 5 -121.5t15 -59.5t30.5 -37t65.5 -30v-61h-364z" />
<glyph unicode="N" horiz-adv-x="1394" d="M117 2v61q61 18 82.5 43t27.5 70t6 135v1073q0 86 -5 126t-16 61.5t-29.5 35t-65.5 29.5v62h313l494 -1024q37 -74 61.5 -130.5t48.5 -125.5h15q-6 74 -10.5 300t-4.5 408v258q0 86 -4 126t-14 61.5t-28.5 35t-63.5 29.5v62h358v-62q-45 -14 -63.5 -27.5t-29.5 -34 t-17.5 -59t-6.5 -131.5v-1390h-125l-557 1159q-51 111 -73.5 160t-40.5 98h-17q6 -98 9.5 -348t3.5 -498v-254q0 -84 5 -121.5t15 -59t30.5 -37t65.5 -30.5v-61h-364z" />
<glyph unicode="O" horiz-adv-x="1337" d="M119 825q0 272 68.5 468t194.5 297.5t294 101.5q178 0 299 -95.5t182.5 -282t61.5 -454.5q0 -285 -70 -483.5t-198 -295.5t-298 -97q-119 0 -217 49t-168.5 150.5t-109.5 260t-39 381.5zM326 862q0 -387 89 -588.5t261 -201.5q109 0 185.5 88t114.5 257t38 392 q0 276 -45 457.5t-122 262.5t-179 81q-90 0 -154.5 -53.5t-106.5 -149.5t-61.5 -235.5t-19.5 -309.5z" />
<glyph unicode="P" horiz-adv-x="1163" d="M121 0v61q61 20 82.5 44t28 69t6.5 135v1071q0 86 -5.5 125t-16.5 60.5t-29.5 35t-65.5 29.5v62h495q236 0 349.5 -112t113.5 -337q0 -129 -35.5 -232.5t-101 -169t-156 -93t-188.5 -27.5q-113 0 -172 4v-410q0 -74 6 -116.5t19.5 -68.5t37 -41t70.5 -28v-61h-438z M426 821h115q113 0 186.5 38t112.5 127t39 235q0 111 -22.5 185.5t-63.5 119.5t-96.5 64.5t-123.5 19.5q-98 0 -147 -6v-783z" />
<glyph unicode="Q" horiz-adv-x="1337" d="M119 858q0 262 68.5 450.5t194.5 286t294 97.5q178 0 299 -91.5t182.5 -271.5t61.5 -438q0 -328 -99 -535.5t-289 -277.5l35 -62q29 -45 52.5 -80.5t51 -69.5t52.5 -54.5t46.5 -30.5t41.5 -10q55 0 95 24.5t77 67.5l47 -72q-78 -92 -144.5 -133t-137.5 -41 q-57 0 -94.5 13.5t-73 43t-80.5 89t-105 163.5l-71 125q-248 14 -376 219t-128 588zM326 891q0 -369 89 -560.5t261 -191.5q109 0 185.5 83t114.5 244t38 376q0 262 -45 434t-122 249t-179 77q-90 0 -154.5 -50.5t-106.5 -142.5t-61.5 -224t-19.5 -294z" />
<glyph unicode="R" horiz-adv-x="1271" d="M121 0v61q61 20 82.5 44t28 69t6.5 135v1071q0 86 -5.5 125t-16.5 60.5t-29.5 35t-65.5 29.5v62h495q233 0 349 -106.5t116 -328.5q0 -170 -74.5 -288.5t-226.5 -184.5v-10q61 -31 104.5 -88t96.5 -178l90 -203q39 -92 66.5 -139t57.5 -70.5t77 -34.5v-61h-277 q-39 66 -72.5 140.5t-66.5 154.5l-88 207q-41 94 -65.5 138t-46 62.5t-46 25.5t-73.5 7h-111v-420q0 -92 5 -131t16.5 -59.5t31 -34.5t64.5 -29v-61h-422zM426 836h113q88 0 141 15t99 60t74 125t28 195q0 125 -33 205t-98.5 123t-178.5 43q-90 -1 -145 -7v-759z" />
<glyph unicode="S" horiz-adv-x="1015" d="M113 49v336h100q18 -109 52 -171t88.5 -92t140.5 -30q117 0 179 75t62 218q0 90 -26.5 152.5t-85 118t-179.5 128.5q-117 72 -185.5 139.5t-101 147.5t-32.5 172q0 137 52 237.5t153.5 156t232.5 55.5q76 0 148.5 -9.5t181.5 -44.5v-329h-98q-25 106 -60 166.5t-82 84 t-121 23.5q-66 0 -116.5 -29.5t-81.5 -88t-31 -142.5t25.5 -144.5t80 -111.5t160.5 -117q127 -78 198 -145.5t111 -152.5t40 -199q0 -131 -33 -219.5t-92.5 -144.5t-140.5 -80.5t-179 -24.5q-156 0 -360 65z" />
<glyph unicode="T" horiz-adv-x="1214" d="M66 1260v432h1083v-432h-98q-23 106 -44.5 167.5t-45 94t-51 47t-83.5 14.5h-127v-1268q0 -74 6.5 -116.5t19.5 -68.5t36.5 -41t73.5 -28v-61h-457v61q29 6 52.5 16.5t37.5 25t23.5 37t14.5 60.5t5 115v1268h-125q-47 0 -77.5 -11t-56.5 -47t-47.5 -100.5t-39.5 -164.5 h-100z" />
<glyph unicode="U" horiz-adv-x="1327" d="M90 1636v62h420v-62q-55 -16 -77.5 -38.5t-31 -66.5t-8.5 -147v-874q0 -123 20.5 -204t58.5 -127t88 -66.5t126 -20.5q72 0 124 31t88 93.5t49.5 152.5t13.5 241v774q0 111 -9.5 150t-29 60.5t-78.5 41.5v62h397v-62q-57 -20 -78.5 -41.5t-30 -64.5t-8.5 -146v-796 q0 -135 -18 -232q-20 -94 -57 -163q-35 -68 -87.5 -112t-126 -70.5t-173.5 -26.5q-121 0 -208 33.5t-143.5 110.5t-81 179.5t-24.5 261.5v815q0 100 -5 133t-15.5 53.5t-28 35t-66.5 30.5z" />
<glyph unicode="V" horiz-adv-x="1236" d="M23 1622v61h450v-61q-45 -8 -68.5 -23.5t-36 -43t-12.5 -72.5q0 -41 8.5 -90.5t22.5 -110.5l234 -1001l286 1009q6 25 12.5 50.5t11.5 51t6 43t1 33.5q0 74 -27.5 108t-93.5 46v61h420v-61q-41 -12 -65.5 -35.5t-49 -75t-59.5 -165.5l-416 -1362h-131l-338 1372 q-27 111 -46 159t-44 71.5t-65 35.5z" />
<glyph unicode="W" horiz-adv-x="1886" d="M23 1622v61h428v-61q-63 -14 -87 -44t-24 -83q0 -43 8 -102.5t25 -132.5l200 -973l324 1396h168l260 -1398l236 940q43 172 43 243q0 74 -26 108t-85 46v61h395v-61q-31 -12 -48 -28.5t-33.5 -43t-37 -81t-45.5 -148.5l-364 -1327h-143l-277 1374l-319 -1374h-162 l-291 1337q-18 82 -32.5 135.5t-30 84t-33 45t-49.5 26.5z" />
<glyph unicode="X" horiz-adv-x="1169" d="M20 0v61q37 12 61.5 32t46.5 50.5t49.5 75.5t84.5 160l238 459l-283 575q-41 78 -61.5 115t-38 58.5t-30.5 31.5t-32 18v62h426v-62q-49 -10 -69.5 -32.5t-20.5 -65.5q0 -33 18.5 -85t55.5 -126l143 -301l144 287q33 63 48 102t22 65.5t7 53.5q0 39 -18 65.5t-59 36.5v62 h370v-62q-37 -14 -66.5 -43.5t-63.5 -84t-95 -171.5l-225 -436l254 -520q53 -111 76.5 -155t44 -73.5t44 -53t58.5 -38.5v-61h-438v61q45 10 67.5 32t22.5 65q0 35 -15.5 76.5t-44.5 103.5l-182 377l-190 -389q-47 -98 -47 -162q0 -41 17 -66.5t60 -36.5v-61h-379z" />
<glyph unicode="Y" horiz-adv-x="1167" d="M18 1630v62h426v-62q-94 -14 -94 -100q0 -37 13.5 -81t48.5 -128l200 -471l197 430q41 90 57.5 145.5t16.5 104.5q0 45 -21.5 70.5t-64.5 29.5v62h379v-62q-41 -20 -72 -53t-62.5 -88t-95.5 -189l-276 -585v-400q0 -72 6 -114.5t19.5 -69.5t37 -42t72.5 -28v-61h-459v61 q49 12 71.5 26.5t37 41.5t20.5 70t6 116v396l-274 632q-51 117 -77 167.5t-52.5 78t-59.5 41.5z" />
<glyph unicode="Z" horiz-adv-x="1101" d="M94 0v61l684 1522h-362q-39 0 -61.5 -9t-40 -25.5t-36 -48.5t-36 -89t-35.5 -141h-98v428h903v-62l-684 -1521h360q68 0 99.5 15t53 48t39 93.5t40.5 183.5h98v-455h-924z" />
<glyph unicode="[" horiz-adv-x="716" d="M227 -430v1862h447v-82h-271v-1698h271v-82h-447z" />
<glyph unicode="\" horiz-adv-x="1003" d="M63 1432h154l725 -1862h-156z" />
<glyph unicode="]" horiz-adv-x="716" d="M43 -348h270v1698h-270v82h446v-1862h-446v82z" />
<glyph unicode="^" horiz-adv-x="1134" d="M158 676l338 704h143l338 -704h-152l-258 567l-258 -567h-151z" />
<glyph unicode="_" horiz-adv-x="759" d="M0 -125h760v-117h-760v117z" />
<glyph unicode="`" horiz-adv-x="583" d="M63 1393v49h175l206 -320l-65 -53z" />
<glyph unicode="a" horiz-adv-x="999" d="M47 256q0 172 147.5 263t442.5 108v73q0 121 -19.5 192t-63.5 102.5t-118 31.5q-80 0 -129 -47t-74 -143h-133v151q98 57 164 85t130.5 43t133.5 15q100 0 161 -36.5t92.5 -111.5t31.5 -226v-404q0 -86 1 -121.5t6 -65.5t14.5 -47.5t30 -30.5t65.5 -28v-57h-281l6 166 l-16 6q-88 -104 -166 -147t-166 -43q-78 0 -137 34.5t-91 96t-32 141.5zM221 309q0 -57 22.5 -90t57.5 -46t84 -13q68 0 123 33.5t86 84t31 101.5v141q-203 -2 -303.5 -54t-100.5 -157z" />
<glyph unicode="b" horiz-adv-x="1120" d="M14 1616v63l260 13h60v-748h4q78 86 126 126t101 60.5t115 20.5q115 0 195.5 -65.5t126 -193.5t45.5 -314q0 -193 -53.5 -326t-156 -200.5t-241.5 -67.5q-80 0 -149.5 15t-147.5 56l-74 -71l-73 18v1284q0 113 -1 158t-7.5 76.5t-19.5 48t-33.5 28t-76.5 19.5zM348 412 q0 -92 7 -144.5t23.5 -88.5t48.5 -64.5t71 -40t88 -11.5q119 0 181 114t62 345t-56 348t-171 117q-57 0 -97 -20.5t-80 -63.5t-58.5 -85t-18.5 -97v-309z" />
<glyph unicode="c" horiz-adv-x="903" d="M104 549q0 174 56.5 306t158 203.5t232.5 71.5q82 0 151.5 -10t139.5 -35v-241h-127q-16 74 -42 118t-58.5 61t-82.5 17q-70 0 -124 -52t-84.5 -158.5t-30.5 -262.5q0 -98 11 -180t41 -139.5t77 -91t119 -33.5q70 0 129 32.5t123 110.5l57 -76q-51 -68 -90 -102.5 t-83 -59t-88 -34.5t-95 -10q-188 0 -289 146t-101 419z" />
<glyph unicode="d" horiz-adv-x="1136" d="M104 557q0 193 58.5 327t157 200.5t221.5 66.5q66 0 120 -12.5t111 -40.5v188q0 113 -2 158t-8 76.5t-17.5 48t-31 28t-70.5 19.5v63l242 13h59v-1368q0 -90 3 -129t13.5 -64t32 -39t74.5 -29v-61l-236 -10h-61l12 192l-14 4q-63 -80 -109.5 -117.5t-98.5 -62t-114 -24.5 q-164 0 -253 147.5t-89 425.5zM266 580q0 -217 58.5 -329t175.5 -112q47 0 77.5 8.5t60.5 27t60.5 52t45 60t21.5 60.5t7 89v254q0 88 -7 141.5t-24.5 89t-47 60.5t-65.5 36t-85 11q-135 0 -206 -115.5t-71 -332.5z" />
<glyph unicode="e" horiz-adv-x="999" d="M104 549q0 174 53.5 306t153 203.5t228.5 71.5q100 0 170.5 -36.5t113.5 -101t66.5 -163t25.5 -254.5h-628v-22q0 -137 26.5 -229.5t87 -146.5t156.5 -54q82 0 147.5 36t131.5 117l61 -75q-66 -80 -119 -124t-116.5 -68.5t-141.5 -24.5q-207 0 -311.5 143t-104.5 422z M301 678h477q-4 115 -27.5 187.5t-69.5 111.5t-120 39q-113 0 -181.5 -88t-78.5 -250z" />
<glyph unicode="f" horiz-adv-x="620" d="M80 1006v61q37 6 49 11t24.5 13.5t20.5 22.5t14.5 45t10.5 86q10 127 39.5 207t88 137.5t125 80t156.5 22.5q80 0 135 -13v-215h-100q-18 70 -44 99.5t-71 29.5q-33 0 -55 -11t-41.5 -32.5t-33 -59.5t-19.5 -94.5t-6 -146.5v-123h237v-120h-237v-711q0 -80 6 -120 t18.5 -60.5t33 -32.5t65.5 -25v-57h-410v57q45 14 64.5 27.5t29.5 33t15.5 57.5t5.5 120v711h-121z" />
<glyph unicode="g" horiz-adv-x="1011" d="M63 -174q0 72 42 128t118 101q-47 20 -73.5 61.5t-26.5 98.5q0 63 31.5 115.5t113.5 122.5q-72 45 -109.5 127t-37.5 184q0 96 28.5 166.5t79 117t120 69t149.5 22.5q72 0 143 -19h352v-114l-184 10l-8 -12q31 -37 48 -96.5t17 -127.5q0 -184 -100 -282.5t-285 -98.5 q-84 0 -143 23q-76 -63 -76 -127q0 -41 14.5 -61.5t48 -29.5t101.5 -9h240q106 0 172.5 -37t95.5 -98.5t29 -147.5q0 -102 -54.5 -184t-156 -128t-238.5 -46q-100 0 -183 12t-142.5 45t-92.5 85t-33 130zM238 -166q0 -90 71.5 -133t216.5 -43q90 0 154.5 24.5t99.5 69.5 t35 105q0 29 -7 55.5t-26.5 47t-55.5 32.5t-95 12h-148q-82 0 -143 6q-51 -37 -76.5 -80t-25.5 -96zM293 774q0 -137 51 -211t148 -74q51 0 86.5 21.5t58 58.5t33 86.5t10.5 102.5q0 96 -24.5 159.5t-67.5 94t-99 30.5q-96 0 -146 -69.5t-50 -198.5z" />
<glyph unicode="h" horiz-adv-x="1130" d="M63 1610v61l242 12h60v-743h4q78 90 124 128t90 57.5t95 19.5q55 0 98 -16.5t76 -47t53.5 -77t29.5 -108.5t9 -159v-444q0 -100 8.5 -137t27.5 -57.5t79 -41.5v-57h-395v57q39 14 56 25.5t28.5 30t17.5 57.5t6 119v309q0 156 -13.5 239t-52 123.5t-110.5 40.5 q-41 0 -72.5 -16t-73.5 -58t-63.5 -87t-21.5 -97v-450q0 -78 4 -112t13 -57.5t29.5 -38.5t63.5 -28v-57h-395v57q45 14 63.5 27.5t28.5 33t15.5 56.5t5.5 119v985q0 115 -1.5 159t-8.5 75.5t-18 48t-30.5 27.5t-71.5 22z" />
<glyph unicode="i" horiz-adv-x="569" d="M84 1053v61l231 10h62v-833q0 -100 8 -139t30.5 -59.5t73.5 -35.5v-57h-393v57q39 14 56.5 24.5t29 29t17.5 56.5t6 122v506q0 76 -2 122t-14.5 73.5t-36 39.5t-68.5 23zM193 1409v195h184v-195h-184z" />
<glyph unicode="j" horiz-adv-x="544" d="M4 -344q63 25 95 49.5t53.5 56t33 86t11.5 138.5v829q0 88 -3.5 126t-13.5 59.5t-30.5 36t-75.5 24.5v61l233 8h62v-1056q0 -156 -30 -250t-100.5 -159.5t-199.5 -106.5zM176 1413v195h182v-195h-182z" />
<glyph unicode="k" horiz-adv-x="1073" d="M63 1616v63l240 13h62v-1035h30q33 0 56 9q25 12 54.5 37.5t84.5 84.5q47 51 69.5 86t32.5 64q8 25 8 51q0 35 -18 55.5t-61 26.5v59h432v-59q-47 -10 -99.5 -48t-105.5 -99l-232 -258l289 -443q49 -78 90 -115.5t88 -50.5v-57h-383v57q25 4 38.5 14.5t13.5 32.5 q0 18 -6.5 36t-22.5 46.5t-61 104.5l-119 188q-35 53 -49.5 68.5t-31 23t-42.5 7.5h-55v-283q0 -100 8 -140t30.5 -61.5t71.5 -36.5v-57h-395v57q49 14 68.5 31.5t27.5 40.5t12.5 62.5t4.5 103.5v989q0 115 -2.5 160t-8.5 75.5t-17 48t-30.5 29t-71.5 19.5z" />
<glyph unicode="l" horiz-adv-x="555" d="M63 1622v64l240 12h62v-1401q0 -102 8 -142t30.5 -60.5t71.5 -37.5v-57h-395v57q49 16 68.5 32.5t27.5 40.5t12.5 63.5t4.5 103.5v993q0 113 -2.5 158t-8.5 76.5t-17 49t-30.5 28t-71.5 20.5z" />
<glyph unicode="m" horiz-adv-x="1703" d="M84 1049v63l233 8h62l-12 -186l14 -6q59 70 98 105.5t75 57t67.5 30.5t64.5 9q100 0 162.5 -53t87.5 -166q76 88 122 131t94 65.5t105 22.5q66 0 115 -22.5t83 -70.5t49.5 -118.5t15.5 -189.5v-438q0 -88 5 -122t14 -52.5t27.5 -31.5t63.5 -28v-57h-393v57 q41 14 57.5 24.5t27.5 29t18.5 57.5t7.5 117v305q0 100 -5.5 164.5t-14.5 102.5t-22.5 60.5t-31 38t-40 24.5t-60.5 9q-39 0 -74 -18.5t-76 -62.5t-58.5 -88t-17.5 -105v-424q0 -88 5 -122t14.5 -52.5t29 -31.5t64.5 -28v-57h-393v57q39 14 55 24.5t28.5 29t18.5 57.5t6 117 v305q0 104 -5 168.5t-15.5 103.5t-26.5 64.5t-33.5 39t-40 18.5t-53.5 5q-41 0 -77 -20.5t-72.5 -61.5t-56 -85t-19.5 -97v-434q0 -68 3 -101.5t9 -54t16.5 -33t29 -22.5t54.5 -23v-57h-391v57q37 14 54.5 24.5t29 29t17.5 56.5t6 122v504q0 76 -2 120.5t-14.5 72.5t-36 41 t-68.5 22z" />
<glyph unicode="n" horiz-adv-x="1142" d="M84 1049v63l233 8h62l-12 -186l14 -6q74 86 120 124t92 58t97 20q55 0 97 -15t75 -45t54.5 -75t31.5 -107.5t10 -158.5v-438q0 -82 4.5 -118t13.5 -54.5t28.5 -32.5t66.5 -29v-57h-393v57q39 14 55.5 24.5t27.5 29t18 57.5t7 117v305q0 82 -4 148.5t-13 109.5t-23.5 66.5 t-33 40t-42 25.5t-62.5 9t-73.5 -17.5t-76.5 -61.5t-61.5 -87t-19.5 -100v-432q0 -100 8 -139t30.5 -59.5t73.5 -35.5v-57h-393v57q39 14 56.5 24.5t29 29t17.5 56.5t6 122v504q0 76 -2 120.5t-14.5 72.5t-36 41t-68.5 22z" />
<glyph unicode="o" horiz-adv-x="1087" d="M104 547q0 193 57.5 323.5t158 195t229.5 64.5q213 0 322.5 -143t109.5 -414q0 -193 -54.5 -325.5t-156 -198t-238.5 -65.5q-209 0 -318.5 142t-109.5 421zM295 571q0 -244 65.5 -376t186.5 -132q68 0 115 39t76.5 104.5t42 151.5t12.5 183q0 174 -33 289.5t-88.5 171 t-126.5 55.5q-121 0 -185.5 -126.5t-64.5 -359.5z" />
<glyph unicode="p" horiz-adv-x="1138" d="M74 1053v59l233 10h62l-13 -180l15 -6q61 70 98 101.5t75 53t73.5 30.5t74.5 9q166 0 254 -138t88 -402q0 -184 -49 -309t-145.5 -187.5t-227.5 -62.5q-74 0 -134 13t-109 38v-234q0 -74 4 -108.5t15 -55t32.5 -35t71.5 -24.5v-55h-408v55q35 10 57.5 21.5t34.5 35 t16.5 61.5t4.5 105v955q0 80 -2 113.5t-8.5 55t-17.5 37t-30.5 25.5t-64.5 19zM369 440q0 -109 11 -167t42 -95t73 -54.5t109 -17.5q121 0 182.5 113t61.5 334q0 440 -230 440q-57 0 -97 -19.5t-80 -63.5t-56 -85t-16 -88v-297z" />
<glyph unicode="q" horiz-adv-x="1120" d="M104 571q0 184 57.5 312.5t161 192t236.5 63.5q72 0 129 -16.5t117 -53.5l69 70l68 -19v-1272q0 -66 5 -104.5t16.5 -60t34 -35t59.5 -23.5v-55h-410v55q49 10 70.5 24.5t33 35t15.5 55.5t4 108v385q-53 -68 -99 -107.5t-103.5 -66t-121.5 -26.5q-166 0 -254 137t-88 401 zM293 584q0 -205 55 -310.5t166 -105.5q41 0 70.5 7t58.5 26.5t58.5 49.5t43 55.5t19.5 58t6 84.5v243q0 98 -11 152.5t-41 92.5t-69 54.5t-92 16.5q-129 0 -196.5 -112t-67.5 -312z" />
<glyph unicode="r" horiz-adv-x="847" d="M84 1044v60l233 10h62l-12 -201l14 -4q55 78 102 123t101.5 68.5t124.5 23.5q57 0 104 -6v-266h-113q-25 61 -51 90t-74 29q-37 0 -71.5 -23.5t-68.5 -70t-46 -88t-12 -95.5v-405q0 -104 11 -144.5t37 -59.5t77 -28v-57h-404v57q37 14 54.5 24.5t29 28t17.5 55.5t6 122 v501q0 76 -2 121t-14.5 72t-36 40t-68.5 23z" />
<glyph unicode="s" horiz-adv-x="880" d="M94 37v242h99q27 -106 80 -154.5t145 -48.5q37 0 70.5 8t61.5 28.5t43 55.5t15 86q0 59 -19.5 97t-61.5 68t-148 83q-90 45 -145.5 86t-87 98t-31.5 135q0 96 45 166t129 106.5t196 36.5q66 0 127.5 -7t155.5 -31v-234h-96q-23 68 -52.5 109t-68.5 57t-92 16 q-80 0 -128 -44t-48 -119q0 -53 19.5 -88t59 -65t140.5 -81q102 -49 157.5 -93t87 -99.5t31.5 -137.5q0 -90 -26.5 -152.5t-75.5 -102.5t-116.5 -57t-147.5 -17q-84 0 -163 14t-155 39z" />
<glyph unicode="t" horiz-adv-x="692" d="M37 1004v59q49 10 81 33.5t49 61.5t27.5 92.5t20.5 160.5h141v-289h324v-118h-324v-521q0 -113 8.5 -180t31 -105t50 -55.5t70.5 -17.5q41 0 76 19.5t70 58.5l45 -66q-72 -82 -135.5 -117.5t-131.5 -35.5q-129 0 -192.5 90t-63.5 278v652h-147z" />
<glyph unicode="u" horiz-adv-x="1130" d="M74 1073v57h284v-602q0 -137 9.5 -207.5t27 -108.5t50 -61.5t92.5 -23.5q37 0 71.5 16.5t77.5 61.5t62.5 88t19.5 100v443q0 68 -3 101.5t-10 54t-17.5 33.5t-28 24.5t-56.5 23.5v57h285v-806q0 -88 3 -128t13.5 -65t32 -39t74.5 -29v-61l-230 -10h-61l6 192l-14 4 q-82 -106 -158 -155t-151 -49q-92 0 -150.5 42t-88.5 127t-30 238v445q0 100 -6 137t-24.5 58.5t-79.5 41.5z" />
<glyph unicode="v" horiz-adv-x="1032" d="M18 1073v57h408v-57q-45 -12 -64.5 -24.5t-28.5 -32t-9 -49.5q0 -33 7 -68t19 -80l174 -598l205 574q20 55 28.5 92t8.5 69q0 49 -22.5 76t-84.5 41v57h375v-57q-39 -10 -60.5 -29.5t-42 -61.5t-48.5 -118l-338 -874h-119l-270 882q-27 88 -44.5 122t-37 51.5t-56.5 27.5 z" />
<glyph unicode="w" horiz-adv-x="1585" d="M29 1073v57h395v-57q-57 -14 -77.5 -37.5t-20.5 -68.5q0 -33 6 -68t16 -80l158 -604l258 915h139l219 -915l176 580q14 43 22.5 84t8.5 77q0 49 -22.5 77t-75.5 40v57h348v-57q-27 -10 -41 -18t-27.5 -25.5t-30 -53.5t-40.5 -112l-289 -868h-135l-217 889l-262 -889h-140 l-239 876q-25 84 -40.5 119t-32.5 52.5t-56 29.5z" />
<glyph unicode="x" horiz-adv-x="989" d="M23 0v57q33 14 59.5 36t54 55.5t72.5 99.5l209 303l-213 348q-45 70 -70.5 101.5t-48.5 48t-43 24.5v57h391v-57q-80 -14 -80 -74q0 -29 11.5 -55t31.5 -61l123 -201l129 195q23 31 35 61.5t12 62.5q0 27 -16 44.5t-53 27.5v57h327v-57q-39 -12 -77.5 -51t-96.5 -121 l-207 -301l228 -362q49 -80 88 -121t78 -60v-57h-402v57q82 12 82 74q0 25 -6 47.5t-27 50.5l-145 240l-154 -238q-16 -27 -25 -48t-9 -48q0 -31 18 -51.5t57 -26.5v-57h-333z" />
<glyph unicode="y" horiz-adv-x="1032" d="M20 1075v55h406v-55q-45 -12 -64.5 -24.5t-28.5 -31t-9 -48.5q0 -29 7 -61.5t19 -75.5l178 -566l201 543q16 43 26.5 81t10.5 71q0 49 -23.5 73.5t-83.5 38.5v55h375v-55q-39 -8 -60.5 -26.5t-42 -59.5t-48.5 -112l-363 -914q-55 -141 -107.5 -227t-114.5 -130t-148 -44 q-55 0 -123 14v223h88q12 -47 30.5 -64.5t51.5 -17.5q31 0 54 13.5t49 44t59.5 96.5t76.5 166l-278 848q-29 82 -45.5 114.5t-35 48t-57.5 27.5z" />
<glyph unicode="z" horiz-adv-x="931" d="M82 0v57l547 971h-271q-51 0 -79.5 -20.5t-54 -69.5t-50.5 -133h-88v319h760v-59l-547 -969h262q51 0 78 8.5t45 29t36.5 66.5t43.5 142h88v-342h-770z" />
<glyph unicode="{" horiz-adv-x="792" d="M94 459v82q80 0 125 19.5t68.5 68.5t23.5 139v289q0 135 39 214t129 119t246 40h25v-80q-78 0 -118 -9.5t-64.5 -26t-40 -44t-24.5 -74.5t-9 -127v-195q0 -100 -17.5 -167.5t-62.5 -116.5t-123 -82v-19q76 -31 122 -82t63.5 -119.5t17.5 -164.5v-195q0 -78 9 -126 t24.5 -74.5t40 -44t64.5 -25.5t118 -8v-82h-25q-156 0 -246 40t-129 119.5t-39 213.5v288q0 90 -22.5 139.5t-67.5 70t-127 20.5z" />
<glyph unicode="|" horiz-adv-x="647" d="M248 -430v1862h153v-1862h-153z" />
<glyph unicode="}" horiz-adv-x="792" d="M43 -350q80 0 119 8t63.5 25.5t41 44t24.5 74.5t8 126v195q0 100 18.5 167.5t63.5 118t123 80.5v19q-78 31 -124 82t-63.5 119.5t-17.5 164.5v195q0 80 -8 127t-24.5 74.5t-41 44t-63.5 26t-119 9.5v80h27q154 0 243.5 -40t128.5 -119t39 -214v-289q0 -90 23.5 -139 t68.5 -68.5t125 -19.5v-82q-82 0 -127 -20.5t-67.5 -70t-22.5 -139.5v-288q0 -133 -39 -213t-129 -120t-243 -40h-27v82z" />
<glyph unicode="~" horiz-adv-x="1458" d="M125 485q51 117 135 196t199 79q121 0 286.5 -104.5t251.5 -104.5q84 0 141.5 45t114.5 139l80 -53q-43 -90 -135 -180t-225 -90q-129 0 -294 104.5t-251 104.5q-74 0 -128 -46.5t-97 -134.5z" />
<glyph unicode="&#xa1;" horiz-adv-x="585" d="M182 -410l66 951h96l49 -951h-211zM190 723v233h201v-233h-201zM586 -430z" />
<glyph unicode="&#xa2;" horiz-adv-x="903" d="M104 514q0 133 46.5 239.5t129 173t193.5 83.5v188h105v-182q143 -2 264 -39v-191h-127q-23 70 -54.5 107t-82.5 43v-789q59 6 109 34t106 89l57 -65q-76 -82 -141.5 -121t-130.5 -49v-191h-105v183q-180 8 -274.5 133t-94.5 354zM281 539q0 -184 48 -275t144 -114v784 q-90 -29 -141 -132.5t-51 -262.5zM903 973z" />
<glyph unicode="&#xa3;" horiz-adv-x="1081" d="M68 0v49q59 59 94 116.5t59.5 134.5t24.5 169v190h-164v115h164v152q0 125 29.5 209t92 140t146.5 80.5t193 24.5q131 0 254 -26v-215h-101q-16 59 -42.5 94t-64.5 49t-96 14q-78 0 -130 -42t-76.5 -118.5t-24.5 -230.5v-131h414v-115h-414v-63q0 -78 -7 -133t-23.5 -98 t-48.5 -96.5t-71 -98.5v-10h396q90 0 124.5 14t52 52t38.5 130h98l-49 -356h-868z" />
<glyph unicode="&#xa4;" horiz-adv-x="1114" d="M125 336l123 127q-72 96 -72 213q0 55 18.5 108.5t53.5 106.5l-123 123l92 94l127 -125q96 70 213 70t211 -70l129 127l92 -96l-123 -123q35 -53 53.5 -106.5t18.5 -108.5q0 -117 -72 -213l123 -127l-92 -96l-129 127q-88 -70 -211 -70t-213 70l-127 -127zM319 676 q0 -70 30 -125t84 -87t124 -32q68 0 122 32t85 87t31 125q0 68 -31 123t-84 85.5t-123 30.5q-68 0 -122 -30.5t-85 -86t-31 -122.5z" />
<glyph unicode="&#xa5;" horiz-adv-x="1247" d="M61 1317v49h418v-49q-94 -12 -94 -82q0 -29 13.5 -64.5t47.5 -103.5l203 -389l203 356q41 72 57.5 117t16.5 84q0 37 -21.5 57.5t-64.5 24.5v49h370v-49q-41 -16 -71.5 -43t-62.5 -72t-95 -151l-152 -260h291v-97h-348l-67 -116v-82h415v-97h-415v-145q0 -57 6 -92 t19 -56.5t37 -34t73 -22.5v-49h-451v49q49 10 71.5 21.5t37 33t20.5 56.5t6 94v145h-418v97h418v77l-65 121h-353v97h302l-158 294q-55 102 -83 142.5t-52.5 60t-53.5 29.5z" />
<glyph unicode="&#xa6;" horiz-adv-x="647" d="M248 352h153v-782h-153v782zM248 645v787h153v-787h-153z" />
<glyph unicode="&#xa7;" horiz-adv-x="1024" d="M88 623q0 88 59.5 162.5t174.5 132.5q-66 57 -97.5 115.5t-31.5 137.5q0 74 44 135.5t123.5 95.5t182.5 34q90 0 167.5 -13.5t172.5 -52.5v-217h-99q-31 98 -86 148.5t-151 50.5q-57 0 -101.5 -21.5t-67 -57.5t-22.5 -77q0 -53 22.5 -93t77 -83t173.5 -119 q92 -57 147 -99t90 -84t53.5 -89t18.5 -109q0 -68 -33 -122t-84 -96t-121 -77q66 -53 98.5 -109.5t32.5 -142.5q0 -88 -48 -153.5t-131 -99t-185 -33.5q-90 0 -182 16t-162 47v219h98q45 -199 242 -198q94 0 149.5 47t55.5 127q0 45 -12.5 75.5t-41 61.5t-75.5 64.5 t-144 95.5q-135 86 -193.5 138t-86 109.5t-27.5 133.5zM258 664q0 -51 14.5 -86t44 -70t74.5 -68.5t115 -74.5q84 -53 125 -84q61 33 98 86t37 112q0 41 -10.5 76t-39 69.5t-78.5 73.5t-120 80q-80 49 -127 84q-61 -33 -97 -86t-36 -112z" />
<glyph unicode="&#xa8;" horiz-adv-x="583" d="M39 1233v176h166v-176h-166zM377 1237v176h168v-176h-168z" />
<glyph unicode="&#xa9;" horiz-adv-x="1742" d="M111 623q0 162 57 304t163.5 244.5t245 156.5t293.5 54q160 0 300.5 -56t245 -159.5t160.5 -243.5t56 -300q0 -162 -56 -301.5t-160.5 -244t-245 -159.5t-300.5 -55q-156 0 -295 53t-244.5 155.5t-162.5 245t-57 306.5zM236 623q0 -193 79.5 -343.5t225 -235.5t329.5 -85 t330 85t226.5 237t80.5 342q0 188 -79.5 339.5t-226 235.5t-331.5 84q-184 0 -330.5 -85t-225 -235.5t-78.5 -338.5zM477 618q0 137 49 241t144.5 160t226.5 56q84 0 147.5 -12t124.5 -41v-188h-86q-23 63 -49 100t-61 52t-96 15q-68 0 -120 -40.5t-81 -123.5t-29 -200 q0 -80 13.5 -150.5t41 -124t71.5 -84t110 -30.5q80 0 126 41t76 137h84v-195q-76 -33 -146.5 -46t-162.5 -13q-188 0 -285.5 112.5t-97.5 333.5z" />
<glyph unicode="&#xaa;" horiz-adv-x="854" d="M111 877q0 104 102 157t311 62v32q0 66 -12 105t-42 57.5t-83 18.5q-47 0 -84 -27t-51 -80h-107v96q90 43 165 62.5t145 19.5q78 0 124 -24.5t64.5 -70.5t18.5 -124v-231q0 -74 4 -99.5t17 -41t60 -23.5v-41h-215l4 94l-6 4q-68 -63 -118 -86.5t-113 -23.5q-84 0 -134 45 t-50 119zM119 489v93h616v-93h-616zM246 893q0 -49 26.5 -72.5t83.5 -23.5q29 0 55.5 9t47 25.5t35 35t22.5 41t8 59.5v63q-139 -4 -208.5 -38t-69.5 -99z" />
<glyph unicode="&#xab;" horiz-adv-x="999" d="M100 455v73l349 394l63 -50l-240 -380l240 -379l-63 -50zM483 455v73l353 394l63 -50l-244 -380l244 -379l-63 -50z" />
<glyph unicode="&#xac;" horiz-adv-x="1134" d="M113 725v137h874v-567h-145v430h-729z" />
<glyph unicode="&#xae;" horiz-adv-x="1742" d="M111 623q0 162 57 304t163.5 244.5t245 156.5t293.5 54q160 0 300.5 -56t245 -159.5t160.5 -243.5t56 -300q0 -162 -56 -301.5t-160.5 -244t-245 -159.5t-300.5 -55q-156 0 -295 53t-244.5 155.5t-162.5 245t-57 306.5zM236 623q0 -193 79.5 -343.5t225 -235.5t329.5 -85 t330 85t226.5 237t80.5 342q0 188 -79.5 339.5t-226 235.5t-331.5 84q-184 0 -330.5 -85t-225 -235.5t-78.5 -338.5zM489 186v45q39 10 56.5 27.5t25 45.5t7.5 75v493q0 45 -7.5 73t-23 45.5t-58.5 29.5v45h408q111 0 180.5 -25.5t105.5 -76t36 -134.5q0 -80 -50.5 -136 t-164.5 -95l2 -10q41 -20 69.5 -52t54.5 -87l50 -105q14 -31 29.5 -52.5t28.5 -33.5t26.5 -17t38.5 -10v-45h-216q-41 70 -69 144l-47 108q-20 45 -39 71t-38.5 38t-43 15t-51.5 3h-74v-159q0 -59 7 -93t26.5 -52.5t66.5 -29.5v-45h-336zM725 641h104q119 0 175.5 44 t56.5 132q0 66 -26.5 102.5t-74 52t-114.5 15.5h-31q-39 0 -90 -4v-342z" />
<glyph unicode="&#xaf;" horiz-adv-x="583" d="M33 1270v125h528v-125h-528z" />
<glyph unicode="&#xb0;" horiz-adv-x="768" d="M84 1083q0 86 39 155t107.5 105.5t154.5 36.5t153.5 -37.5t105.5 -105.5t38 -154t-40 -154.5t-109.5 -107.5t-155.5 -39q-88 0 -154.5 39t-102.5 107.5t-36 154.5zM190 1083q0 -59 24 -104t68 -70.5t101 -25.5q55 0 100 25.5t68.5 70.5t23.5 104q0 57 -23.5 102.5 t-68.5 71t-100 25.5q-57 0 -101 -25.5t-68 -70.5t-24 -103z" />
<glyph unicode="&#xb1;" horiz-adv-x="1134" d="M125 27v139h885v-139h-885zM125 645v139h369v369h147v-369h369v-139h-369v-338h-147v338h-369z" />
<glyph unicode="&#xb2;" horiz-adv-x="833" d="M98 829v37q35 74 93.5 144.5t136.5 146.5q92 88 131 134t58.5 86t19.5 81q0 70 -39 109t-111 39q-61 0 -105 -34t-67 -97h-94v135q88 37 162.5 52t134.5 15q78 0 129 -17.5t83 -45t44 -64.5t12 -75q0 -49 -20.5 -91.5t-65.5 -92.5t-162 -154q-123 -113 -180 -195h248 q35 0 53.5 3t29.5 10.5t18 18.5t24 48h67l-14 -193h-586z" />
<glyph unicode="&#xb3;" horiz-adv-x="833" d="M115 860v148h92q20 -66 59 -94.5t107 -28.5q86 0 131 40t45 119q0 84 -59.5 128.5t-176.5 44.5h-59v69q92 4 155.5 29.5t92 65.5t28.5 94q0 61 -36.5 96t-108.5 35q-59 0 -102 -34t-68 -97l-90 -2v139q162 66 293 65q70 0 129 -19.5t96 -60.5t37 -102q0 -53 -24.5 -93 t-67.5 -68.5t-111 -57.5v-10q100 -16 159.5 -71.5t59.5 -133.5q0 -72 -35.5 -126t-110.5 -87t-181 -33q-70 0 -134.5 12.5t-119.5 32.5z" />
<glyph unicode="&#xb4;" horiz-adv-x="583" d="M145 1280l207 319h174v-49l-315 -323z" />
<glyph unicode="&#xb5;" horiz-adv-x="1114" d="M180 -401v1357h172v-550q0 -96 8.5 -152.5t32 -90.5t52 -46.5t77.5 -12.5q63 0 117.5 45.5t78 87.5t23.5 97v622h172v-749q0 -59 19.5 -88t52.5 -29q45 0 94 41l39 -59q-55 -45 -105 -65.5t-104 -20.5q-74 0 -115.5 44t-45.5 126l-11 4q-66 -72 -107.5 -103.5t-85.5 -48 t-93 -16.5q-39 0 -72 13t-66 44l-8 -6q8 -86 21.5 -176t29.5 -156v-53l-86 -59h-90zM1114 -430z" />
<glyph unicode="&#xb6;" horiz-adv-x="1204" d="M82 1020q0 94 32.5 160.5t91 107.5t139.5 59.5t177 18.5h606v-104h-200v-1692h-121v1692h-191v-1692h-120v1112q-129 0 -223.5 42t-142.5 118t-48 178z" />
<glyph unicode="&#xb7;" horiz-adv-x="577" d="M154 586q0 41 16 73.5t48 51t71 18.5t70.5 -18.5t49 -51t17.5 -73.5q0 -43 -18.5 -76t-49 -51.5t-69.5 -18.5q-37 0 -69 18.5t-49 51.5t-17 76z" />
<glyph unicode="&#xb8;" horiz-adv-x="583" d="M59 -356q66 8 105 30.5t54 51t15 71.5q0 27 -6 51v41l254 177l39 -29l-155 -117q10 -23 16 -53.5t6 -59.5q0 -102 -81 -164.5t-232 -72.5z" />
<glyph unicode="&#xb9;" horiz-adv-x="833" d="M127 1489l348 182h45q0 -14 -2 -70.5t-2 -111.5v-481q0 -43 8 -61.5t24.5 -30t55.5 -16.5t127 -7v-64h-567v64q82 2 121 7t57 16.5t26.5 30t8.5 61.5v452q0 27 -9.5 37t-27.5 10q-23 0 -66 -22.5t-112 -65.5z" />
<glyph unicode="&#xba;" horiz-adv-x="876" d="M121 1040q0 113 42 190t114.5 113.5t164.5 36.5q86 0 145.5 -24.5t97.5 -68.5t54.5 -103.5t16.5 -126.5q0 -166 -85 -255t-241 -89q-152 0 -230.5 84t-78.5 243zM129 489v93h619v-93h-619zM266 1055q0 -135 45 -204t129 -69q82 0 125 68t43 186q0 98 -22.5 159.5 t-60.5 88.5t-87 27q-84 0 -128 -64.5t-44 -191.5z" />
<glyph unicode="&#xbb;" horiz-adv-x="999" d="M100 113l244 379l-244 378l64 52l350 -394v-73l-350 -394zM485 113l242 379l-242 378l66 52l348 -394v-73l-348 -394z" />
<glyph unicode="&#xbc;" horiz-adv-x="1771" d="M127 1194l348 180h45q0 -14 -2 -69.5t-2 -110.5v-483q0 -33 4 -50.5t14.5 -28.5t32 -19.5t53 -11.5t97.5 -3v-66h-553v66q82 0 121 6t57 16.5t26.5 29t8.5 61.5v454q0 25 -9.5 36t-27.5 11q-23 0 -66 -22.5t-112 -65.5zM418 -96l882 1462h146l-883 -1462h-145zM995 147 v56l406 538h117v-518h12q39 0 56.5 7.5t28.5 22.5t19 48h64l-8 -154h-172v-75q0 -55 7 -76t23.5 -30t55.5 -17v-45h-308v45q43 8 58.5 18t21.5 30.5t6 74.5v75h-387zM1126 223h256v119q0 45 2 116.5t7 121.5h-9l-256 -349v-8z" />
<glyph unicode="&#xbd;" horiz-adv-x="1822" d="M127 1194l348 180h45q0 -14 -2 -69.5t-2 -110.5v-483q0 -33 4 -50.5t14.5 -28.5t32 -19.5t53 -11.5t97.5 -3v-66h-553v66q82 0 121 6t57 16.5t26.5 29t8.5 61.5v454q0 25 -9.5 36t-27.5 11q-23 0 -66 -22.5t-112 -65.5zM397 -96l883 1462h145l-880 -1462h-148zM1087 -57 q33 72 91.5 143.5t136.5 144.5q94 90 133 135.5t57.5 86.5t18.5 82q0 68 -38 106.5t-112 38.5q-61 0 -104 -33t-68 -96h-94v133q88 37 164 52.5t133 15.5q80 0 131 -16.5t82 -44t43 -64.5t12 -76q0 -49 -19.5 -92t-65.5 -92.5t-161 -153.5q-125 -115 -180 -197h246 q37 0 55.5 4.5t28.5 11.5t18.5 17t22.5 47h70l-15 -192h-586v39z" />
<glyph unicode="&#xbe;" horiz-adv-x="1771" d="M113 565v146h90q20 -63 60 -92t106 -29q88 0 132 40t44 118q0 84 -59.5 128t-176.5 44h-59v71q94 2 156.5 27.5t91 66.5t28.5 93q0 61 -36.5 96t-106.5 35q-61 0 -104 -33t-66 -98h-90v137q160 66 293 65q70 0 129 -18.5t95 -59t36 -104.5q0 -53 -24.5 -92t-66.5 -68.5 t-110 -56.5v-10q98 -16 158.5 -71.5t60.5 -135.5q0 -70 -36.5 -125t-111.5 -87t-181 -32q-68 0 -132.5 12.5t-119.5 32.5zM418 -96l882 1462h146l-883 -1462h-145zM991 147v56l406 538h114v-518h13q39 0 56 7.5t29.5 22.5t20.5 48h64l-11 -154h-172v-75q0 -55 7.5 -76 t25 -30t55.5 -17v-45h-309v45q45 8 60.5 18t21.5 30.5t6 74.5v75h-387zM1122 223h256v119q0 45 2 116.5t6 121.5h-10l-254 -349v-8z" />
<glyph unicode="&#xbf;" horiz-adv-x="864" d="M76 -147q0 41 7 74.5t22.5 67.5t38 67.5t51 69.5t100.5 118q51 61 75.5 99t35 74t10.5 91v27h133v-35q0 -41 -5 -65.5t-17.5 -53.5t-39 -67.5t-75.5 -100.5q-57 -74 -83 -120t-39.5 -95t-13.5 -110q0 -115 46.5 -176.5t121.5 -61.5q78 0 126 45t67 141h135v-164 q-113 -57 -192.5 -80.5t-155.5 -23.5q-121 0 -199 36t-113.5 98.5t-35.5 144.5zM381 725v231h199v-231h-199z" />
<glyph unicode="&#xc0;" horiz-adv-x="1275" d="M6 0v49q55 8 97 64.5t81 160.5l416 1106h160l340 -1114q23 -78 41 -119t44.5 -64.5t71.5 -33.5v-49h-460v49q49 10 73.5 22.5t37 34t12.5 56.5t-8.5 73.5t-22.5 88.5l-37 129h-467l-35 -99q-25 -74 -33 -111.5t-8 -68.5q0 -59 31 -88t92 -37v-49h-426zM393 1733v49h199 l242 -256l-58 -58zM412 541h417l-188 645z" />
<glyph unicode="&#xc1;" horiz-adv-x="1275" d="M6 0v49q55 8 97 64.5t81 160.5l416 1106h160l340 -1114q23 -78 41 -119t44.5 -64.5t71.5 -33.5v-49h-460v49q49 10 73.5 22.5t37 34t12.5 56.5t-8.5 73.5t-22.5 88.5l-37 129h-467l-35 -99q-25 -74 -33 -111.5t-8 -68.5q0 -59 31 -88t92 -37v-49h-426zM412 541h417 l-188 645zM518 1526l242 256h196v-49l-383 -265z" />
<glyph unicode="&#xc2;" horiz-adv-x="1275" d="M6 0v49q55 8 97 64.5t81 160.5l416 1106h160l340 -1114q23 -78 41 -119t44.5 -64.5t71.5 -33.5v-49h-460v49q49 10 73.5 22.5t37 34t12.5 56.5t-8.5 73.5t-22.5 88.5l-37 129h-467l-35 -99q-25 -74 -33 -111.5t-8 -68.5q0 -59 31 -88t92 -37v-49h-426zM375 1526l239 254 h134l229 -254l-57 -58l-238 185h-12l-240 -185zM412 541h417l-188 645z" />
<glyph unicode="&#xc3;" horiz-adv-x="1275" d="M6 0v49q55 8 97 64.5t81 160.5l416 1106h160l340 -1114q23 -78 41 -119t44.5 -64.5t71.5 -33.5v-49h-460v49q49 10 73.5 22.5t37 34t12.5 56.5t-8.5 73.5t-22.5 88.5l-37 129h-467l-35 -99q-25 -74 -33 -111.5t-8 -68.5q0 -59 31 -88t92 -37v-49h-426zM344 1513 q47 96 78 134.5t61.5 54.5t75.5 16q25 0 44.5 -6t35.5 -14t55 -35q31 -20 47.5 -31.5t35 -17.5t40.5 -6q33 0 57.5 24.5t53.5 85.5l78 -35q-37 -82 -72 -126t-66.5 -60t-70.5 -16q-29 0 -48.5 5t-39 15t-60.5 39q-27 18 -42 28.5t-32.5 16.5t-35.5 6q-27 0 -44.5 -10 t-36 -34.5t-36.5 -65.5zM412 541h417l-188 645z" />
<glyph unicode="&#xc4;" horiz-adv-x="1275" d="M6 0v49q55 8 97 64.5t81 160.5l416 1106h160l340 -1114q23 -78 41 -119t44.5 -64.5t71.5 -33.5v-49h-460v49q49 10 73.5 22.5t37 34t12.5 56.5t-8.5 73.5t-22.5 88.5l-37 129h-467l-35 -99q-25 -74 -33 -111.5t-8 -68.5q0 -59 31 -88t92 -37v-49h-426zM408 1513v177h165 v-177h-165zM412 541h417l-188 645zM776 1513v177h166v-177h-166z" />
<glyph unicode="&#xc5;" horiz-adv-x="1275" d="M6 0v49q55 8 97 64.5t81 160.5l416 1106h160l340 -1114q23 -78 41 -119t44.5 -64.5t71.5 -33.5v-49h-460v49q49 10 73.5 22.5t37 34t12.5 56.5t-8.5 73.5t-22.5 88.5l-37 129h-467l-35 -99q-25 -74 -33 -111.5t-8 -68.5q0 -59 31 -88t92 -37v-49h-426zM412 541h417 l-188 645zM449 1622q0 66 29.5 112t80.5 68.5t119 22.5q109 0 166 -50.5t57 -144.5q0 -98 -60 -152.5t-171 -54.5q-109 0 -165 50.5t-56 148.5zM553 1628q0 -68 30.5 -104.5t94.5 -36.5q57 0 88 34.5t31 98.5q0 70 -33 106.5t-88 36.5q-61 0 -92 -34.5t-31 -100.5z" />
<glyph unicode="&#xc6;" horiz-adv-x="1773" d="M0 0v49q59 20 105.5 73.5t97.5 149.5l567 1094h883v-303h-99q-16 49 -31.5 86t-32.5 62.5t-37.5 40t-48.5 20.5t-67 6h-342l31 -524h209q45 0 69.5 12t41 42t30.5 93h94v-383h-94q-12 59 -29.5 90t-41 44.5t-70.5 13.5h-203l39 -578h260q49 0 80 8t53.5 28.5t39 54.5 t27.5 69t32 102h100l-21 -350h-882v49q47 10 70.5 25.5t36 43t12.5 75.5q0 31 -2 57l-15 203h-430l-51 -99q-14 -27 -35.5 -72.5t-29 -72.5t-7.5 -47q0 -59 24.5 -82t82.5 -31v-49h-416zM471 541h385l-29 499l-4 99q-2 43 -2 71h-10z" />
<glyph unicode="&#xc7;" horiz-adv-x="1153" d="M119 670q0 213 67.5 373.5t198.5 248.5t313 88q90 0 167 -9t177 -36v-276h-100q-23 88 -59.5 139t-85.5 72.5t-119 21.5q-102 0 -183 -68.5t-127 -205.5t-46 -332q0 -197 37.5 -335t112.5 -208.5t181 -70.5q82 0 134.5 23.5t88 74.5t66.5 149h100v-284q-133 -35 -276 -45 l-92 -70q10 -23 17 -53.5t7 -59.5q0 -102 -81.5 -164.5t-233.5 -72.5l-12 74q63 8 102 30.5t54.5 51t15.5 71.5q0 27 -6 51v41l137 97q-10 -2 -21 -2h-20q-254 0 -384 172t-130 514z" />
<glyph unicode="&#xc8;" horiz-adv-x="1177" d="M121 0v49q61 16 82.5 35.5t28 55.5t6.5 110v864q0 70 -5.5 101.5t-16.5 49t-29.5 28t-65.5 24.5v49h936v-303h-99q-16 49 -31.5 86t-32.5 62.5t-37.5 40t-48.5 20.5t-67 6h-315v-524h213q43 0 68.5 12t42 42t30.5 93h94v-383h-94q-12 59 -29.5 90t-41 44.5t-70.5 13.5 h-213v-578h309q49 0 80 8t53.5 28.5t39 54.5t27.5 69t32 102h100l-20 -350h-926zM324 1733v49h198l242 -256l-57 -58z" />
<glyph unicode="&#xc9;" horiz-adv-x="1177" d="M121 0v49q61 16 82.5 35.5t28 55.5t6.5 110v864q0 70 -5.5 101.5t-16.5 49t-29.5 28t-65.5 24.5v49h936v-303h-99q-16 49 -31.5 86t-32.5 62.5t-37.5 40t-48.5 20.5t-67 6h-315v-524h213q43 0 68.5 12t42 42t30.5 93h94v-383h-94q-12 59 -29.5 90t-41 44.5t-70.5 13.5 h-213v-578h309q49 0 80 8t53.5 28.5t39 54.5t27.5 69t32 102h100l-20 -350h-926zM453 1526l239 256h199v-49l-383 -265z" />
<glyph unicode="&#xca;" horiz-adv-x="1177" d="M121 0v49q61 16 82.5 35.5t28 55.5t6.5 110v864q0 70 -5.5 101.5t-16.5 49t-29.5 28t-65.5 24.5v49h936v-303h-99q-16 49 -31.5 86t-32.5 62.5t-37.5 40t-48.5 20.5t-67 6h-315v-524h213q43 0 68.5 12t42 42t30.5 93h94v-383h-94q-12 59 -29.5 90t-41 44.5t-70.5 13.5 h-213v-578h309q49 0 80 8t53.5 28.5t39 54.5t27.5 69t32 102h100l-20 -350h-926zM307 1526l242 254h133l227 -254l-55 -58l-240 185h-10l-239 -185z" />
<glyph unicode="&#xcb;" horiz-adv-x="1177" d="M121 0v49q61 16 82.5 35.5t28 55.5t6.5 110v864q0 70 -5.5 101.5t-16.5 49t-29.5 28t-65.5 24.5v49h936v-303h-99q-16 49 -31.5 86t-32.5 62.5t-37.5 40t-48.5 20.5t-67 6h-315v-524h213q43 0 68.5 12t42 42t30.5 93h94v-383h-94q-12 59 -29.5 90t-41 44.5t-70.5 13.5 h-213v-578h309q49 0 80 8t53.5 28.5t39 54.5t27.5 69t32 102h100l-20 -350h-926zM342 1513v177h166v-177h-166zM711 1513v177h166v-177h-166z" />
<glyph unicode="&#xcc;" horiz-adv-x="663" d="M51 1733v49h199l239 -256l-55 -58zM121 0v49q61 16 82.5 35.5t28 55.5t6.5 110v864q0 70 -5.5 101.5t-16.5 49t-29.5 28t-65.5 24.5v49h422v-49q-43 -12 -62.5 -23.5t-32 -28t-17.5 -49t-5 -102.5v-864q0 -68 4 -98.5t15.5 -48t32 -30t65.5 -24.5v-49h-422z" />
<glyph unicode="&#xcd;" horiz-adv-x="663" d="M121 0v49q61 16 82.5 35.5t28 55.5t6.5 110v864q0 70 -5.5 101.5t-16.5 49t-29.5 28t-65.5 24.5v49h422v-49q-43 -12 -62.5 -23.5t-32 -28t-17.5 -49t-5 -102.5v-864q0 -68 4 -98.5t15.5 -48t32 -30t65.5 -24.5v-49h-422zM174 1526l242 256h196v-49l-381 -265z" />
<glyph unicode="&#xce;" horiz-adv-x="663" d="M31 1526l239 254h136l227 -254l-58 -58l-237 185h-10l-242 -185zM121 0v49q61 16 82.5 35.5t28 55.5t6.5 110v864q0 70 -5.5 101.5t-16.5 49t-29.5 28t-65.5 24.5v49h422v-49q-43 -12 -62.5 -23.5t-32 -28t-17.5 -49t-5 -102.5v-864q0 -68 4 -98.5t15.5 -48t32 -30 t65.5 -24.5v-49h-422z" />
<glyph unicode="&#xcf;" horiz-adv-x="663" d="M63 1513v177h168v-177h-168zM121 0v49q61 16 82.5 35.5t28 55.5t6.5 110v864q0 70 -5.5 101.5t-16.5 49t-29.5 28t-65.5 24.5v49h422v-49q-43 -12 -62.5 -23.5t-32 -28t-17.5 -49t-5 -102.5v-864q0 -68 4 -98.5t15.5 -48t32 -30t65.5 -24.5v-49h-422zM432 1513v177h168 v-177h-168z" />
<glyph unicode="&#xd0;" horiz-adv-x="1361" d="M49 670v92h195v352q0 72 -5.5 102.5t-16.5 48t-30.5 28t-64.5 24.5v49h436q186 0 307 -42t205 -122t125 -200.5t41 -288.5q0 -170 -38 -298t-111 -216q-66 -76 -158 -125q-78 -39 -178.5 -56.5t-268.5 -17.5h-360v49q45 12 65.5 23.5t30.5 28t15.5 48t5.5 101.5v420h-195 zM430 92q41 -4 119 -4q170 0 271.5 58.5t159.5 189.5t58 358q0 203 -58 333t-164.5 190.5t-256.5 60.5q-68 0 -129 -4v-512h322v-92h-322v-578z" />
<glyph unicode="&#xd1;" horiz-adv-x="1394" d="M117 0v49q61 16 82.5 35.5t27.5 55.5t6 110v864q0 70 -5 101.5t-16 49t-29.5 28t-65.5 24.5v49h313l494 -825q37 -59 61.5 -104.5t48.5 -100.5h15q-6 59 -10.5 241.5t-4.5 327.5v209q0 70 -4 101.5t-14 49t-28.5 28t-63.5 24.5v49h358v-49q-45 -12 -63.5 -22.5t-29.5 -27 t-17.5 -48t-6.5 -105.5v-1120h-125l-557 934q-51 88 -73.5 128t-40.5 79h-17q6 -78 9.5 -280t3.5 -400v-205q0 -68 5 -98.5t15 -48t30.5 -30t65.5 -24.5v-49h-364zM389 1513q47 96 78 134.5t61.5 54.5t75.5 16q25 0 44.5 -6t35.5 -14t55 -35q29 -20 46.5 -31.5t36 -17.5 t40.5 -6q33 0 57.5 24.5t53.5 85.5l78 -35q-37 -82 -72 -126t-66.5 -60t-70.5 -16q-29 0 -48.5 5t-39 15t-60.5 39q-27 18 -42 28.5t-32.5 16.5t-35.5 6q-27 0 -44.5 -10t-36 -34.5t-36.5 -65.5z" />
<glyph unicode="&#xd2;" horiz-adv-x="1337" d="M119 672q0 223 68.5 382.5t194.5 242.5t294 83q178 0 299 -77.5t182.5 -230t61.5 -372.5q0 -233 -70 -395t-198 -241.5t-298 -79.5q-119 0 -217 39.5t-168.5 122.5t-109.5 213t-39 313zM326 698q0 -307 89 -466.5t261 -159.5q109 0 185.5 69.5t114.5 203.5t38 312 q0 219 -45 362.5t-122 208t-179 64.5q-90 0 -154.5 -42t-106.5 -118.5t-61.5 -187.5t-19.5 -246zM387 1733v49h199l241 -256l-57 -58z" />
<glyph unicode="&#xd3;" horiz-adv-x="1337" d="M119 672q0 223 68.5 382.5t194.5 242.5t294 83q178 0 299 -77.5t182.5 -230t61.5 -372.5q0 -233 -70 -395t-198 -241.5t-298 -79.5q-119 0 -217 39.5t-168.5 122.5t-109.5 213t-39 313zM326 698q0 -307 89 -466.5t261 -159.5q109 0 185.5 69.5t114.5 203.5t38 312 q0 219 -45 362.5t-122 208t-179 64.5q-90 0 -154.5 -42t-106.5 -118.5t-61.5 -187.5t-19.5 -246zM512 1526l242 256h196v-49l-383 -265z" />
<glyph unicode="&#xd4;" horiz-adv-x="1337" d="M119 672q0 223 68.5 382.5t194.5 242.5t294 83q178 0 299 -77.5t182.5 -230t61.5 -372.5q0 -233 -70 -395t-198 -241.5t-298 -79.5q-119 0 -217 39.5t-168.5 122.5t-109.5 213t-39 313zM326 698q0 -307 89 -466.5t261 -159.5q109 0 185.5 69.5t114.5 203.5t38 312 q0 219 -45 362.5t-122 208t-179 64.5q-90 0 -154.5 -42t-106.5 -118.5t-61.5 -187.5t-19.5 -246zM369 1526l239 254h133l230 -254l-58 -58l-237 185h-12l-240 -185z" />
<glyph unicode="&#xd5;" horiz-adv-x="1337" d="M119 672q0 223 68.5 382.5t194.5 242.5t294 83q178 0 299 -77.5t182.5 -230t61.5 -372.5q0 -233 -70 -395t-198 -241.5t-298 -79.5q-119 0 -217 39.5t-168.5 122.5t-109.5 213t-39 313zM326 698q0 -307 89 -466.5t261 -159.5q109 0 185.5 69.5t114.5 203.5t38 312 q0 219 -45 362.5t-122 208t-179 64.5q-90 0 -154.5 -42t-106.5 -118.5t-61.5 -187.5t-19.5 -246zM338 1513q47 96 77.5 134.5t62.5 54.5t75 16q25 0 44 -6t35.5 -14t55.5 -35q31 -20 47.5 -31.5t34.5 -17.5t41 -6q33 0 57.5 24.5t53.5 85.5l77 -35q-37 -82 -71.5 -126 t-66.5 -60t-70 -16q-27 0 -47.5 5t-40 15t-60.5 39q-27 18 -42 28.5t-32.5 16.5t-36.5 6q-27 0 -44 -10t-35.5 -34.5t-36.5 -65.5z" />
<glyph unicode="&#xd6;" horiz-adv-x="1337" d="M119 672q0 223 68.5 382.5t194.5 242.5t294 83q178 0 299 -77.5t182.5 -230t61.5 -372.5q0 -233 -70 -395t-198 -241.5t-298 -79.5q-119 0 -217 39.5t-168.5 122.5t-109.5 213t-39 313zM326 698q0 -307 89 -466.5t261 -159.5q109 0 185.5 69.5t114.5 203.5t38 312 q0 219 -45 362.5t-122 208t-179 64.5q-90 0 -154.5 -42t-106.5 -118.5t-61.5 -187.5t-19.5 -246zM401 1513v177h166v-177h-166zM770 1513v177h168v-177h-168z" />
<glyph unicode="&#xd7;" horiz-adv-x="1134" d="M168 287l301 299l-301 297l100 100l299 -301l297 301l103 -98l-301 -299l301 -299l-103 -101l-297 301l-299 -301z" />
<glyph unicode="&#xd8;" horiz-adv-x="1337" d="M100 -135l170 276q-72 84 -111.5 215t-39.5 316q0 223 68.5 382.5t194.5 242.5t294 83q92 0 165.5 -21.5t137.5 -62.5l121 203h137l-170 -276q74 -86 113 -217.5t39 -305.5q0 -233 -70 -395t-198 -241.5t-298 -79.5q-174 0 -297 84l-118 -203h-138zM326 698 q0 -233 53 -389l520 860q-45 63 -103.5 93t-127.5 30q-90 0 -154.5 -42t-106.5 -118.5t-61.5 -187t-19.5 -246.5zM438 195q86 -123 238 -123q109 0 185.5 69.5t114.5 203.5t38 312q-1 240 -56 396z" />
<glyph unicode="&#xd9;" horiz-adv-x="1327" d="M90 1317v49h420v-49q-55 -14 -77.5 -31.5t-31 -53.5t-8.5 -118v-706q0 -98 20.5 -164t58.5 -103t88 -53t126 -16q72 0 124 24.5t88 74.5t49.5 123t13.5 195v625q0 88 -9.5 120t-29 49t-78.5 34v49h397v-49q-57 -16 -78.5 -33.5t-30 -52.5t-8.5 -117v-643q0 -109 -18 -186 q-20 -76 -57 -133q-35 -53 -87.5 -89t-126 -57.5t-173.5 -21.5q-121 0 -208 27.5t-143.5 89t-81 144.5t-24.5 212v657q0 80 -5 106.5t-15.5 43t-28 28t-66.5 25.5zM377 1733v49h198l240 -256l-55 -58z" />
<glyph unicode="&#xda;" horiz-adv-x="1327" d="M90 1317v49h420v-49q-55 -14 -77.5 -31.5t-31 -53.5t-8.5 -118v-706q0 -98 20.5 -164t58.5 -103t88 -53t126 -16q72 0 124 24.5t88 74.5t49.5 123t13.5 195v625q0 88 -9.5 120t-29 49t-78.5 34v49h397v-49q-57 -16 -78.5 -33.5t-30 -52.5t-8.5 -117v-643q0 -109 -18 -186 q-20 -76 -57 -133q-35 -53 -87.5 -89t-126 -57.5t-173.5 -21.5q-121 0 -208 27.5t-143.5 89t-81 144.5t-24.5 212v657q0 80 -5 106.5t-15.5 43t-28 28t-66.5 25.5zM555 1526l242 256h196v-49l-381 -265z" />
<glyph unicode="&#xdb;" horiz-adv-x="1327" d="M90 1317v49h420v-49q-55 -14 -77.5 -31.5t-31 -53.5t-8.5 -118v-706q0 -98 20.5 -164t58.5 -103t88 -53t126 -16q72 0 124 24.5t88 74.5t49.5 123t13.5 195v625q0 88 -9.5 120t-29 49t-78.5 34v49h397v-49q-57 -16 -78.5 -33.5t-30 -52.5t-8.5 -117v-643q0 -109 -18 -186 q-20 -76 -57 -133q-35 -53 -87.5 -89t-126 -57.5t-173.5 -21.5q-121 0 -208 27.5t-143.5 89t-81 144.5t-24.5 212v657q0 80 -5 106.5t-15.5 43t-28 28t-66.5 25.5zM383 1526l240 254h133l227 -254l-55 -58l-240 185h-10l-240 -185z" />
<glyph unicode="&#xdc;" horiz-adv-x="1327" d="M90 1317v49h420v-49q-55 -14 -77.5 -31.5t-31 -53.5t-8.5 -118v-706q0 -98 20.5 -164t58.5 -103t88 -53t126 -16q72 0 124 24.5t88 74.5t49.5 123t13.5 195v625q0 88 -9.5 120t-29 49t-78.5 34v49h397v-49q-57 -16 -78.5 -33.5t-30 -52.5t-8.5 -117v-643q0 -109 -18 -186 q-20 -76 -57 -133q-35 -53 -87.5 -89t-126 -57.5t-173.5 -21.5q-121 0 -208 27.5t-143.5 89t-81 144.5t-24.5 212v657q0 80 -5 106.5t-15.5 43t-28 28t-66.5 25.5zM416 1513v177h166v-177h-166zM784 1513v177h166v-177h-166z" />
<glyph unicode="&#xdd;" horiz-adv-x="1167" d="M18 1317v49h426v-49q-94 -12 -94 -82q0 -29 13.5 -64.5t48.5 -103.5l200 -381l197 348q41 72 57.5 117t16.5 84q0 37 -21.5 57.5t-64.5 24.5v49h379v-49q-41 -16 -72 -43t-62.5 -72t-95.5 -151l-276 -473v-324q0 -57 6 -92t19.5 -56.5t37 -34t72.5 -22.5v-49h-459v49 q49 10 71.5 21.5t37 33t20.5 56.5t6 94v319l-274 512q-51 94 -77 134.5t-52.5 63t-59.5 34.5zM498 1526l239 256h199v-49l-383 -265z" />
<glyph unicode="&#xde;" horiz-adv-x="1175" d="M121 0v49q61 16 82.5 35.5t28 55.5t6.5 110v864q0 70 -5.5 101.5t-16.5 49t-29.5 28t-65.5 24.5v49h422v-49q-45 -12 -63.5 -22.5t-31 -27t-17.5 -48t-5 -105.5v-6h197q233 0 347.5 -89t114.5 -274q0 -104 -35.5 -187t-102 -135t-157 -75.5t-188.5 -23.5q-94 0 -176 4 v-74q0 -59 6 -94t19.5 -55.5t37 -33t70.5 -22.5v-49h-438zM426 412h121q113 0 186.5 28.5t112.5 97t39 183.5q0 86 -23.5 143.5t-63.5 92t-96.5 49t-121.5 14.5q-86 0 -154 -4v-604z" />
<glyph unicode="&#xdf;" horiz-adv-x="1239" d="M80 913v54q61 10 89 35.5t34 84.5q10 98 43 180.5t95 141.5t149.5 92t199.5 33q160 0 248 -75t88 -212q0 -55 -17.5 -99t-56.5 -90t-145 -132q-39 -33 -59.5 -53.5t-31.5 -44t-11 -48.5q0 -45 17 -72.5t56 -54t115 -61.5q102 -47 156.5 -86t86 -91.5t31.5 -127.5 q0 -82 -26.5 -140.5t-74.5 -94.5t-114.5 -52t-144.5 -16q-137 0 -279 43v188h93q20 -55 44.5 -85t59.5 -45t86 -15q37 0 70.5 7t59.5 25.5t42 50t16 80.5q0 31 -6 53.5t-16 40t-25.5 32t-34 27.5t-50 29.5t-99.5 45.5q-72 35 -118 70.5t-69.5 83t-23.5 112.5q0 68 37 121 t123 125q57 47 87 85t44 82t14 99q0 59 -15.5 99t-43 64.5t-62 35t-73.5 10.5q-59 0 -105.5 -17.5t-84.5 -58.5t-61.5 -104.5t-33.5 -154.5t-10 -234v-877h-287v51q45 14 64.5 25.5t29.5 29t15.5 51.5t5.5 109v645h-121z" />
<glyph unicode="&#xe0;" horiz-adv-x="999" d="M80 219q0 147 144.5 226t432.5 94v63q0 104 -19.5 164.5t-62.5 88.5t-114 28q-78 0 -126 -41t-73 -123h-131v131q96 49 160.5 72.5t128 37t131.5 13.5q98 0 157.5 -32t90 -96.5t30.5 -195.5v-348q0 -74 1 -104.5t6.5 -56t14.5 -41t28.5 -27t64.5 -23.5v-49h-274l6 143 l-17 4q-86 -90 -162.5 -126.5t-162.5 -36.5q-76 0 -134.5 29.5t-89 83t-30.5 122.5zM238 1393v49h174l206 -320l-65 -53zM254 246q0 -57 22.5 -90t57.5 -46.5t84 -13.5q68 0 123 34t85.5 84t30.5 101v142q-203 -2 -303 -54.5t-100 -156.5z" />
<glyph unicode="&#xe1;" horiz-adv-x="999" d="M80 256q0 170 144.5 260t432.5 109v71q0 121 -19.5 190.5t-62.5 101.5t-114 32q-78 0 -126 -47t-73 -142h-131v152q96 55 160.5 83t128 43t131.5 15q98 0 157.5 -36.5t90 -110.5t30.5 -225v-402q0 -86 1 -120.5t6.5 -64.5t14.5 -47.5t28.5 -30.5t64.5 -28v-57h-274l6 166 l-17 4q-86 -102 -162.5 -145t-162.5 -43q-76 0 -134.5 33.5t-89 95t-30.5 143.5zM254 272q0 -68 22.5 -106.5t57.5 -54t84 -15.5q68 0 123 40t85.5 99.5t30.5 118.5v168q-203 -2 -303 -63.5t-100 -186.5zM395 1245l207 320h176v-49l-317 -324z" />
<glyph unicode="&#xe2;" horiz-adv-x="999" d="M80 254q0 168 144.5 259t432.5 108v71q0 121 -19.5 190.5t-62.5 101.5t-114 32q-78 0 -126 -47t-73 -142h-131v150q96 57 160.5 83.5t128 42t131.5 15.5q98 0 157.5 -37t90 -110.5t30.5 -222.5v-400q0 -86 1 -120.5t6.5 -64.5t14.5 -47.5t28.5 -29.5t64.5 -27v-57h-274 l6 164l-17 6q-86 -104 -162.5 -146t-162.5 -42q-76 0 -134.5 33.5t-89 95t-30.5 141.5zM205 1264l223 315h133l215 -315l-69 -58l-211 244h-13l-211 -244zM254 276q0 -70 22.5 -108.5t57.5 -55t84 -16.5q68 0 123 41t85.5 101.5t30.5 121.5v170q-203 -2 -303 -65.5 t-100 -188.5z" />
<glyph unicode="&#xe3;" horiz-adv-x="999" d="M80 256q0 170 144.5 260t432.5 109v71q0 121 -19.5 190.5t-62.5 101.5t-114 32q-78 0 -126 -47t-73 -142h-131v152q96 55 160.5 83t128 43t131.5 15q98 0 157.5 -36.5t90 -110.5t30.5 -225v-402q0 -86 1 -120.5t6.5 -64.5t14.5 -47.5t28.5 -30.5t64.5 -28v-57h-274l6 166 l-17 4q-86 -102 -162.5 -145t-162.5 -43q-76 0 -134.5 33.5t-89 95t-30.5 143.5zM160 1237q47 96 76.5 134t61.5 54.5t77 16.5q23 0 42 -5t35.5 -14.5t57.5 -36.5q29 -20 46 -31.5t34.5 -17.5t42.5 -6q31 0 56 25t54 86l78 -35q-39 -82 -72.5 -126t-65.5 -60.5t-73 -16.5 q-27 0 -46 5t-38.5 15.5t-60.5 39.5q-29 18 -44 28.5t-31.5 16.5t-37.5 6q-25 0 -42 -10.5t-35.5 -35t-36.5 -65.5zM254 272q0 -68 22.5 -106.5t57.5 -54t84 -15.5q68 0 123 40t85.5 99.5t30.5 118.5v168q-203 -2 -303 -63.5t-100 -186.5z" />
<glyph unicode="&#xe4;" horiz-adv-x="999" d="M80 256q0 172 144.5 263t432.5 108v73q0 121 -19.5 192t-62.5 102.5t-114 31.5q-78 0 -126 -47t-73 -143h-131v151q96 57 160.5 85t128 43t131.5 15q98 0 157.5 -36.5t90 -111.5t30.5 -226v-404q0 -86 1 -121.5t6.5 -65.5t14.5 -47.5t28.5 -30.5t64.5 -28v-57h-274l6 166 l-17 6q-86 -104 -162.5 -147t-162.5 -43q-76 0 -134.5 34.5t-89 96t-30.5 141.5zM238 1233v176h165v-176h-165zM254 272q0 -68 22.5 -106.5t57.5 -54t84 -15.5q68 0 123 40t85.5 99.5t30.5 118.5v168q-203 -2 -303 -63.5t-100 -186.5zM575 1239v176h168v-176h-168z" />
<glyph unicode="&#xe5;" horiz-adv-x="999" d="M80 256q0 170 144.5 260t432.5 109v71q0 121 -19.5 190.5t-62.5 101.5t-114 32q-78 0 -126 -47t-73 -142h-131v152q96 55 160.5 83t128 43t131.5 15q98 0 157.5 -36.5t90 -110.5t30.5 -225v-402q0 -86 1 -120.5t6.5 -64.5t14.5 -47.5t28.5 -30.5t64.5 -28v-57h-274l6 166 l-17 4q-86 -102 -162.5 -145t-162.5 -43q-76 0 -134.5 33.5t-89 95t-30.5 143.5zM254 279q0 -70 22.5 -110t57.5 -56.5t84 -16.5q68 0 123 41t85.5 102.5t30.5 125.5v172q-203 -2 -303 -66.5t-100 -191.5zM262 1370q0 66 30 113t82 69.5t118 22.5q111 0 168 -50t57 -145 q0 -100 -60.5 -153t-173.5 -53q-106 0 -163.5 50t-57.5 146zM369 1382q0 -68 30.5 -105.5t92.5 -37.5q59 0 88.5 35t29.5 98q0 70 -31.5 107t-89.5 37q-59 0 -89.5 -35.5t-30.5 -98.5z" />
<glyph unicode="&#xe6;" horiz-adv-x="1540" d="M80 256q0 172 144.5 263t432.5 108v73q0 121 -19.5 192t-62.5 102.5t-114 31.5q-78 0 -126 -47t-73 -143h-131v151q96 57 160.5 85t128 43t131.5 15q88 0 139 -37.5t84 -123.5h12q57 82 129 121.5t164 39.5q102 0 173 -36.5t114 -101t65.5 -163t26.5 -254.5h-631v-22 q0 -137 27 -229.5t87 -146.5t159 -54q82 0 147.5 36t128.5 117l62 -75q-63 -80 -116.5 -124t-118 -68.5t-140.5 -24.5q-129 0 -218 55t-138 168h-7q-70 -84 -125 -130t-114.5 -69.5t-126.5 -23.5q-76 0 -134.5 34.5t-89 96t-30.5 141.5zM254 268q0 -66 22.5 -103.5t57.5 -53 t84 -15.5q68 0 123 39t85.5 96.5t30.5 116.5v162q-203 -2 -303 -62.5t-100 -179.5zM860 666h436q-6 127 -26.5 206.5t-62.5 122.5t-111 43q-102 0 -164 -96t-72 -276z" />
<glyph unicode="&#xe7;" horiz-adv-x="903" d="M104 571q0 168 56.5 295t158 195.5t232.5 68.5q82 0 151.5 -10t139.5 -33v-233h-127q-16 72 -42 114t-58.5 59t-82.5 17q-70 0 -124 -50t-84.5 -152.5t-30.5 -249.5q0 -94 11 -173t41 -135.5t77 -88t119 -31.5q70 0 129 30.5t123 106.5l57 -74q-29 -35 -67 -72.5 t-87 -70.5l-151 -125q10 -25 16 -58.5t6 -66.5q0 -115 -80.5 -183.5t-232.5 -80.5l-14 82q66 8 104.5 33.5t54 57.5t15.5 79q0 31 -6 57v47l141 109q-27 -4 -55 -4q-188 0 -289 140t-101 400z" />
<glyph unicode="&#xe8;" horiz-adv-x="999" d="M104 549q0 174 53.5 306t153 203.5t228.5 71.5q100 0 170.5 -36.5t113.5 -101t66.5 -163t25.5 -254.5h-628v-22q0 -137 26.5 -229.5t87 -146.5t156.5 -54q82 0 147.5 36t131.5 117l61 -75q-66 -80 -119 -124t-116.5 -68.5t-141.5 -24.5q-207 0 -311.5 143t-104.5 422z M256 1536v49h176l207 -319l-66 -54zM305 664h436q-4 129 -25.5 209.5t-63.5 124.5t-109 44q-102 0 -165 -98t-73 -280z" />
<glyph unicode="&#xe9;" horiz-adv-x="999" d="M104 549q0 174 53.5 306t153 203.5t228.5 71.5q100 0 170.5 -36.5t113.5 -101t66.5 -163t25.5 -254.5h-628v-22q0 -137 26.5 -229.5t87 -146.5t156.5 -54q82 0 147.5 36t131.5 117l61 -75q-66 -80 -119 -124t-116.5 -68.5t-141.5 -24.5q-207 0 -311.5 143t-104.5 422z M305 672h436q-4 131 -25.5 214t-63.5 127t-109 44q-102 0 -165 -100.5t-73 -284.5zM381 1260l207 319h174v-49l-316 -324z" />
<glyph unicode="&#xea;" horiz-adv-x="999" d="M104 549q0 174 53.5 306t153 203.5t228.5 71.5q100 0 170.5 -36.5t113.5 -101t66.5 -163t25.5 -254.5h-628v-22q0 -137 26.5 -229.5t87 -146.5t156.5 -54q82 0 147.5 36t131.5 117l61 -75q-66 -80 -119 -124t-116.5 -68.5t-141.5 -24.5q-207 0 -311.5 143t-104.5 422z M217 1270l225 315h133l216 -315l-70 -58l-213 244h-10l-211 -244zM299 659h436q-4 129 -25.5 210t-63.5 124t-109 43q-102 0 -165 -98t-73 -279z" />
<glyph unicode="&#xeb;" horiz-adv-x="999" d="M104 545q0 174 53.5 306t153 202.5t228.5 70.5q100 0 170.5 -36.5t113.5 -100t66.5 -162t25.5 -254.5h-628v-20q0 -137 26.5 -229.5t87 -145.5t156.5 -53q82 0 147.5 36t131.5 115l61 -75q-66 -78 -119 -122t-116.5 -68.5t-141.5 -24.5q-207 0 -311.5 143t-104.5 418z M248 1231v176h168v-176h-168zM291 657h436q-4 131 -25.5 214t-63.5 127t-110 44q-102 0 -164.5 -100t-72.5 -285zM602 1225v176h166v-176h-166z" />
<glyph unicode="&#xec;" horiz-adv-x="569" d="M29 1536v49h176l207 -319l-68 -54zM84 1053v61l231 10h62v-833q0 -100 8 -139t30.5 -59.5t73.5 -35.5v-57h-393v57q39 14 56.5 24.5t29 29t17.5 56.5t6 122v506q0 76 -2 122t-14.5 73.5t-36 39.5t-68.5 23z" />
<glyph unicode="&#xed;" horiz-adv-x="569" d="M84 1053v61l231 10h62v-833q0 -100 8 -139t30.5 -59.5t73.5 -35.5v-57h-393v57q39 14 56.5 24.5t29 29t17.5 56.5t6 122v506q0 76 -2 122t-14.5 73.5t-36 39.5t-68.5 23zM162 1266l207 319h176v-49l-318 -324z" />
<glyph unicode="&#xee;" horiz-adv-x="569" d="M-2 1264l223 315h135l213 -315l-67 -58l-213 244h-10l-213 -244zM84 1053v61l231 10h62v-833q0 -100 8 -139t30.5 -59.5t73.5 -35.5v-57h-393v57q39 14 56.5 24.5t29 29t17.5 56.5t6 122v506q0 76 -2 122t-14.5 73.5t-36 39.5t-68.5 23z" />
<glyph unicode="&#xef;" horiz-adv-x="569" d="M31 1219v176h168v-176h-168zM84 1059v61l231 10h62v-837q0 -100 8 -140t30.5 -60.5t73.5 -35.5v-57h-393v57q39 14 56.5 25.5t29 29t17.5 56.5t6 123v508q0 78 -2 123t-14.5 72.5t-36 41t-68.5 23.5zM365 1225v176h165v-176h-165z" />
<glyph unicode="&#xf0;" horiz-adv-x="1085" d="M104 547q0 188 53.5 323.5t151 207t230.5 71.5q70 0 126 -24.5t107 -73.5l12 8q-61 258 -219 414l-307 -211l-43 94l268 182q-96 74 -245 123l20 106q193 -55 336 -151l201 139l45 -94l-162 -107q147 -135 224 -353t77 -515q0 -219 -47 -374.5t-147.5 -241.5t-256.5 -86 q-205 0 -314.5 146t-109.5 417zM293 551q0 -231 66.5 -352t189.5 -121q80 0 134 53t83 158.5t29 263.5q0 143 -30 245.5t-84 156t-134 53.5q-70 0 -118 -35t-79 -96.5t-44 -144.5t-13 -181zM1085 956z" />
<glyph unicode="&#xf1;" horiz-adv-x="1142" d="M84 1049v63l233 8h62l-12 -186l14 -6q74 86 120 124t92 58t97 20q55 0 97 -15t75 -45t54.5 -75t31.5 -107.5t10 -158.5v-438q0 -82 4.5 -118t13.5 -54.5t28.5 -32.5t66.5 -29v-57h-393v57q39 14 55.5 24.5t27.5 29t18 57.5t7 117v305q0 82 -4 148.5t-13 109.5t-23.5 66.5 t-33 40t-42 25.5t-62.5 9t-73.5 -17.5t-76.5 -61.5t-61.5 -87t-19.5 -100v-432q0 -100 8 -139t30.5 -59.5t73.5 -35.5v-57h-393v57q39 14 56.5 24.5t29 29t17.5 56.5t6 122v504q0 76 -2 120.5t-14.5 72.5t-36 41t-68.5 22zM236 1257q49 96 78.5 134.5t61.5 54.5t75 16 q25 0 44 -5t35.5 -14t57.5 -36q29 -20 45 -31.5t34.5 -17.5t41.5 -6q33 0 57 24.5t53 85.5l78 -35q-37 -82 -71.5 -126t-66.5 -60t-71 -16q-27 0 -47 5t-39.5 15t-60.5 39q-27 18 -42.5 28.5t-32.5 16.5t-36 6q-27 0 -44 -10t-34.5 -34.5t-38.5 -65.5z" />
<glyph unicode="&#xf2;" horiz-adv-x="1087" d="M104 543q0 193 57.5 323.5t158 194t229.5 63.5q213 0 322.5 -143t109.5 -412q0 -190 -54.5 -323t-156 -197.5t-238.5 -64.5q-209 0 -318.5 141t-109.5 418zM283 1542v49h176l207 -319l-68 -53zM295 565q0 -242 65.5 -372t186.5 -130q68 0 115 39t76.5 102.5t42 149.5 t12.5 181q0 170 -33 284.5t-88.5 168.5t-126.5 54q-121 0 -185.5 -124t-64.5 -353z" />
<glyph unicode="&#xf3;" horiz-adv-x="1087" d="M104 547q0 193 57.5 323.5t158 195t229.5 64.5q213 0 322.5 -143t109.5 -414q0 -193 -54.5 -325.5t-156 -198t-238.5 -65.5q-209 0 -318.5 142t-109.5 421zM295 571q0 -244 65.5 -376t186.5 -132q68 0 115 39t76.5 104.5t42 151.5t12.5 183q0 174 -33 289.5t-88.5 171 t-126.5 55.5q-121 0 -185.5 -126.5t-64.5 -359.5zM428 1278l207 319h176v-49l-317 -323z" />
<glyph unicode="&#xf4;" horiz-adv-x="1087" d="M104 543q0 193 57.5 323.5t158 194t229.5 63.5q213 0 322.5 -143t109.5 -412q0 -190 -54.5 -323t-156 -197.5t-238.5 -64.5q-209 0 -318.5 141t-109.5 418zM270 1264l224 315h135l213 -315l-68 -58l-213 244h-10l-213 -244zM295 565q0 -242 65.5 -372t186.5 -130 q68 0 115 39t76.5 102.5t42 149.5t12.5 181q0 170 -33 284.5t-88.5 168.5t-126.5 54q-121 0 -185.5 -124t-64.5 -353z" />
<glyph unicode="&#xf5;" horiz-adv-x="1087" d="M104 543q0 193 57.5 323.5t158 194t229.5 63.5q213 0 322.5 -143t109.5 -412q0 -190 -54.5 -323t-156 -197.5t-238.5 -64.5q-209 0 -318.5 141t-109.5 418zM219 1243q49 96 79 134t61.5 54.5t74.5 16.5q25 0 44.5 -5t35.5 -14.5t57 -35.5q29 -20 46.5 -31.5t35 -18 t39.5 -6.5q33 0 57.5 25t55.5 86l78 -35q-39 -82 -74 -126t-65.5 -60.5t-71.5 -16.5q-27 0 -47.5 5.5t-40 15.5t-60.5 39q-27 18 -42 28.5t-32.5 16.5t-35.5 6q-25 0 -43.5 -10.5t-36 -35t-35.5 -65.5zM295 565q0 -242 65.5 -372t186.5 -130q68 0 115 39t76.5 102.5 t42 149.5t12.5 181q0 170 -33 284.5t-88.5 168.5t-126.5 54q-121 0 -185.5 -124t-64.5 -353z" />
<glyph unicode="&#xf6;" horiz-adv-x="1087" d="M104 543q0 193 57.5 323.5t158 194t229.5 63.5q213 0 322.5 -143t109.5 -412q0 -190 -54.5 -323t-156 -197.5t-238.5 -64.5q-209 0 -318.5 141t-109.5 418zM291 1225v176h168v-176h-168zM295 561q0 -240 65.5 -369t186.5 -129q68 0 115 38t76.5 101.5t42 149.5t12.5 178 q0 170 -33 284t-88.5 168t-126.5 54q-121 0 -185.5 -124t-64.5 -351zM631 1231v176h166v-176h-166z" />
<glyph unicode="&#xf7;" horiz-adv-x="1134" d="M127 514v139h881v-139h-881zM461 242q0 33 14 58.5t38.5 38.5t53.5 13t53.5 -13t39 -39t14.5 -58q0 -33 -14.5 -59.5t-39 -40t-53.5 -13.5t-53.5 13.5t-38.5 40t-14 59.5zM461 928q0 33 14 59.5t38.5 39.5t53.5 13t53.5 -13t39 -39.5t14.5 -59.5t-14.5 -58.5t-39 -40 t-53.5 -14.5t-53.5 14.5t-38.5 40t-14 58.5z" />
<glyph unicode="&#xf8;" horiz-adv-x="1087" d="M90 -135l143 256q-129 145 -129 446q0 193 58.5 324t159 195.5t231.5 64.5q129 0 217 -49l100 186h134l-144 -260q129 -145 129 -436q0 -193 -55 -326t-156.5 -198.5t-240.5 -65.5q-123 0 -211 51l-103 -188h-133zM293 586q0 -162 37 -283l366 643q-31 39 -69.5 57.5 t-83.5 18.5q-121 0 -185.5 -112.5t-64.5 -323.5zM389 154q59 -76 158 -76q68 0 115 37t76.5 97t43 142t13.5 172q0 96 -9.5 167t-27.5 130z" />
<glyph unicode="&#xf9;" horiz-adv-x="1130" d="M74 1073v57h284v-602q0 -137 9.5 -207.5t27 -108.5t50 -61.5t92.5 -23.5q37 0 71.5 16.5t77.5 61.5t62.5 88t19.5 100v443q0 68 -3 101.5t-10 54t-17.5 33.5t-28 24.5t-56.5 23.5v57h285v-806q0 -88 3 -128t13.5 -65t32 -39t74.5 -29v-61l-230 -10h-61l6 192l-14 4 q-82 -106 -158 -155t-151 -49q-92 0 -150.5 42t-88.5 127t-30 238v445q0 100 -6 137t-24.5 58.5t-79.5 41.5zM279 1542v49h174l206 -319l-65 -53z" />
<glyph unicode="&#xfa;" horiz-adv-x="1130" d="M74 1067v57h284v-598q0 -137 9.5 -207.5t27 -107.5t50 -61.5t92.5 -24.5q37 0 71.5 17.5t77.5 61.5t62.5 87t19.5 100v440q0 68 -3 102t-10 54.5t-17.5 32.5t-28 23.5t-56.5 23.5v57h285v-802q0 -88 3 -128t13.5 -64t32 -38t74.5 -29v-61l-230 -10h-61l6 190l-14 6 q-82 -106 -158 -155t-151 -49q-92 0 -150.5 42t-88.5 126t-30 237v442q0 98 -6 135.5t-24.5 59t-79.5 41.5zM422 1266l207 319h174v-49l-316 -324z" />
<glyph unicode="&#xfb;" horiz-adv-x="1130" d="M74 1067v57h284v-598q0 -137 9.5 -207.5t27 -107.5t50 -61.5t92.5 -24.5q37 0 71.5 17.5t77.5 61.5t62.5 87t19.5 100v440q0 68 -3 102t-10 54.5t-17.5 32.5t-28 23.5t-56.5 23.5v57h285v-802q0 -88 3 -128t13.5 -64t32 -38t74.5 -29v-61l-230 -10h-61l6 190l-14 6 q-82 -106 -158 -155t-151 -49q-92 0 -150.5 42t-88.5 126t-30 237v442q0 98 -6 135.5t-24.5 59t-79.5 41.5zM279 1270l225 315h133l215 -315l-70 -58l-213 244h-10l-213 -244z" />
<glyph unicode="&#xfc;" horiz-adv-x="1130" d="M74 1061v57h284v-594q0 -137 9.5 -207.5t27 -107.5t50 -60.5t92.5 -23.5q37 0 71.5 16.5t77.5 60.5t62.5 87t19.5 100v438q0 66 -3 100t-10 54t-17.5 33.5t-28 24t-56.5 22.5v57h285v-799q0 -88 3 -126.5t13.5 -63.5t32 -39t74.5 -29v-59l-230 -12h-61l6 192l-14 4 q-82 -104 -158 -153t-151 -49q-92 0 -150.5 42t-88.5 124.5t-30 236.5v440q0 98 -6 135t-24.5 58.5t-79.5 40.5zM311 1225v176h168v-176h-168zM659 1233v176h166v-176h-166z" />
<glyph unicode="&#xfd;" horiz-adv-x="1032" d="M20 1069v55h406v-55q-45 -10 -64.5 -23.5t-28.5 -32t-9 -46.5q0 -31 7 -63t19 -77l178 -561l201 539q16 45 26.5 83t10.5 68q0 49 -23.5 74t-83.5 39v55h375v-55q-39 -8 -60.5 -26.5t-42 -59.5t-48.5 -111l-363 -911q-55 -139 -107.5 -225t-114.5 -130t-148 -44 q-55 0 -123 14v221h88q12 -45 30.5 -62.5t51.5 -17.5q31 0 54 13.5t49 44t59.5 96.5t76.5 164l-278 844q-29 82 -45.5 114.5t-35 49t-57.5 26.5zM406 1274l206 319h174v-49l-317 -323z" />
<glyph unicode="&#xfe;" horiz-adv-x="1120" d="M49 1579v59l242 13h59v-707h4q61 68 98 101.5t74 54t73 30t77 9.5q164 0 253 -139.5t89 -403.5q0 -182 -50 -309t-145.5 -190.5t-228.5 -63.5q-131 0 -244 45v-230q0 -72 4 -107.5t16.5 -56t34 -35t68.5 -24.5v-55h-407v55q35 10 57 22.5t34.5 35t16.5 61.5t4 104v1418 q0 109 -2 150.5t-8 71.5t-17.5 46t-31 26.5t-70.5 18.5zM350 446q0 -94 8.5 -147t26.5 -85t48 -56.5t70 -34.5t87 -10q117 0 178 115.5t61 332.5q0 219 -56 329.5t-173 110.5q-55 0 -96 -19t-81 -63.5t-56.5 -86t-16.5 -87.5v-299z" />
<glyph unicode="&#xff;" horiz-adv-x="1032" d="M20 1075v55h406v-55q-45 -12 -64.5 -24.5t-28.5 -31t-9 -48.5q0 -29 7 -61.5t19 -75.5l178 -566l201 543q16 43 26.5 81t10.5 71q0 49 -23.5 73.5t-83.5 38.5v55h375v-55q-39 -8 -60.5 -26.5t-42 -59.5t-48.5 -112l-363 -914q-55 -141 -107.5 -227t-114.5 -130t-148 -44 q-55 0 -123 14v223h88q12 -47 30.5 -64.5t51.5 -17.5q31 0 54 13.5t49 44t59.5 96.5t76.5 166l-278 848q-29 82 -45.5 114.5t-35 48t-57.5 27.5zM266 1237v176h166v-176h-166zM604 1239v176h168v-176h-168z" />
<glyph unicode="&#x100;" horiz-adv-x="1363" d="M2 0l576 1409h217l565 -1409h-195l-161 412h-642l-161 -412h-199zM410 1571v127h548v-127h-548zM420 561h526l-180 465q-16 41 -30.5 82t-26 73.5t-18.5 55.5t-7 29q-2 -6 -9 -29t-19.5 -56.5t-27 -74.5t-28.5 -82z" />
<glyph unicode="&#x101;" horiz-adv-x="1138" d="M86 301q0 109 41 177.5t106.5 107.5t149.5 53t170 16l244 4v60q0 68 -14.5 115t-43 75.5t-72.5 42t-104 13.5q-51 0 -93 -7.5t-72.5 -27t-50 -53t-25.5 -84.5l-189 18q10 63 39 116.5t80 92.5t129 60.5t186 21.5q205 0 308.5 -93.5t103.5 -271.5v-465q0 -80 20.5 -120.5 t79.5 -40.5q14 0 29.5 2t30.5 6v-113q-35 -8 -69 -12t-71 -4q-51 0 -88 13t-59.5 41t-34.5 69t-14 94h-6q-29 -51 -64 -93t-81 -72t-104 -46t-134 -16q-164 0 -246 86t-82 235zM270 299q0 -88 48.5 -136t136.5 -48q86 0 150.5 31.5t106.5 80.5t63.5 106.5t21.5 110.5v91 l-199 -5q-66 -2 -125 -10t-104 -32.5t-72 -69.5t-27 -119zM283 1237v127h548v-127h-548z" />
<glyph unicode="&#x112;" horiz-adv-x="1363" d="M168 0v1409h1069v-156h-879v-452h820v-154h-820v-491h920v-156h-1110zM428 1571v127h551v-127h-551z" />
<glyph unicode="&#x113;" horiz-adv-x="1138" d="M86 549q0 152 38 257t104.5 170.5t154.5 95.5t186 30q137 0 228.5 -44t146.5 -122t79 -182.5t24 -227.5v-22h-773q0 -86 17.5 -158t54.5 -123t94.5 -79.5t137.5 -28.5q117 0 187.5 47t94.5 119l158 -45q-16 -45 -47 -90.5t-82 -82t-128 -60t-183 -23.5q-240 0 -366 143 t-126 426zM276 641h584q-14 170 -86 249t-207 79q-45 0 -94 -14.5t-91 -51.5t-71.5 -100.5t-34.5 -161.5zM295 1237v127h549v-127h-549z" />
<glyph unicode="&#x192;" horiz-adv-x="1138" d="M190 -434l254 1325h-151l26 131h152l29 152q12 59 31.5 110t55.5 89t90 59.5t136 21.5q31 0 72 -5t76 -15l-31 -121q-16 4 -47 9t-62 5q-33 0 -55.5 -9t-38.5 -29.5t-28.5 -52.5t-20.5 -77l-27 -137h211l-24 -131h-213l-254 -1325h-181z" />
<glyph unicode="&#x2dc;" horiz-adv-x="681" d="M-23 1200q4 45 14.5 93t33 87t59.5 63.5t96 24.5q45 0 87 -18t81 -41t73 -41t64 -18q53 0 81 31.5t36 86.5h92q-4 -43 -14 -91t-31.5 -87t-58.5 -64.5t-98 -25.5q-41 0 -83 18.5t-81 41t-75 42t-67 19.5q-55 0 -81.5 -32t-36.5 -89h-91z" />
<glyph unicode="&#x1000;" horiz-adv-x="2289" d="M-20 1069v23q2 16 20 16q229 8 369 8h20q20 -2 21 -16q-12 -119 -13 -174h21q264 196 422 198h102q201 0 295 -190q10 -16 10 -25q289 215 430 215h92q221 0 318 -174q29 -84 29 -168v-458q0 -254 122 -254q51 -12 52 -25v-22q0 -16 -21 -17h-540q-23 0 -23 17v22 q129 55 133 72q33 39 33 119v444q0 317 -256 317q-240 0 -348 -237v-563q0 -117 162 -144v-30q0 -16 -21 -17h-528q-20 0 -21 17v22q121 53 121 64q41 45 41 256v86q0 514 -133 514q0 23 -141 32q-150 0 -297 -159q-41 -47 -41 -136v-417q0 -215 122 -215q51 -12 52 -25v-22 q0 -16 -21 -17h-543q-20 0 -20 17v22q115 47 143 80q20 80 21 143v611q0 139 -113 165q-66 0 -71 25z" />
<glyph unicode="&#x1001;" horiz-adv-x="1370" d="M-6 244v51q0 295 868 342h64l8 12v103q0 297 -318 297h-8q-240 0 -325 -181q0 -12 -19 -12h-170q-18 0 -18 12v129q39 39 379 121q153 27 262 27h90q397 0 397 -334v-502q0 -172 74 -207q117 -31 117 -45v-24q0 -14 -19 -15h-405q-18 0 -19 15q0 4 9 153l-19 7 q-264 -193 -551 -193q-285 0 -389 186q-8 35 -8 58zM252 281q0 -160 258 -160h57q240 0 361 198q8 25 8 52v174q-684 0 -684 -244v-20z" />
<glyph unicode="&#x1002;" horiz-adv-x="1372" d="M0 1098v24q2 16 18 17q215 8 344 8h19q20 -2 20 -17q-10 -123 -10 -180h19q235 205 409 205h68q217 0 307 -205q18 -82 18 -164v-499q0 -221 123 -221q39 -16 39 -25v-25q0 -16 -18 -16h-506q-18 0 -19 16v25q117 55 123 74q29 53 29 131v401q0 297 -113 344 q-78 33 -135 33q-199 0 -325 -221q-8 -43 -9 -82v-451q0 -213 154 -213l8 -16v-25q0 -16 -20 -16h-504q-20 0 -21 16v25q106 47 136 82q18 82 18 147v631q0 143 -104 172q-61 0 -68 25z" />
<glyph unicode="&#x1003;" horiz-adv-x="2289" d="M0 563q2 72 21.5 110t49 56.5t59.5 19.5t50 1q16 0 21.5 -1t11.5 3q47 2 76.5 32.5t29.5 73.5q0 23 -9 45.5t-23.5 40t-35 28.5t-38.5 11q-43 0 -94 -51l-107 141q51 41 97.5 58.5t99.5 17.5q59 0 112.5 -22.5t91.5 -61.5t61.5 -91t23.5 -112q0 -59 -23.5 -112.5 t-61.5 -91t-91.5 -61.5t-112.5 -24q-8 0 -21.5 1t-11.5 1v-12q0 -178 117 -291q123 -117 297 -116q174 0 289 116q119 117 118 291q0 213 -118 344q-25 23 -54.5 45.5t-83.5 46.5l84 158q106 -49 179 -121q164 -186 163 -473q0 -106 -28 -198q10 -20 29.5 -47t41.5 -48 q59 -55 134 -85.5t163 -30.5q174 0 289 116q119 117 119 291t-119 293q-115 117 -289 117q-57 0 -121 -10l-55 163q59 16 97 19.5t79 3.5q250 0 414 -166q164 -164 164 -420t-162 -418q-164 -164 -416 -163q-254 0 -424 163l-41 41q-2 -2 -14 -15t-22 -24 q-164 -164 -416 -163q-254 0 -424 163q-166 162 -166 418z" />
<glyph unicode="&#x1004;" horiz-adv-x="1372" d="M6 569q0 428 500 557q85 13 153 13h103q182 0 373 -45v-224q0 -12 -17 -12h-162q-14 0 -59 103q-76 94 -221 94h-41q-248 0 -340 -332q-8 -70 -8 -121v-20q0 -446 389 -447q203 0 383 133h16q0 -8 60 -63v-6q-229 -199 -535 -199q-412 0 -543 295q-51 106 -51 274z" />
<glyph unicode="&#x1005;" horiz-adv-x="1372" d="M0 549q0 264 203 475q184 115 389 129q252 -18 412 -182q164 -168 163 -422q0 -252 -163 -416q-164 -162 -418 -162q-258 0 -422 162q-164 164 -164 416zM174 549q0 -160 100 -270q98 111 99 270q0 164 -105 282q-94 -114 -94 -282zM420 934q129 -154 129 -385 q0 -225 -127 -377q25 -8 78 -35.5t162 -21.5q137 31 210 143q86 149 80 317q-2 156 -75 271q-96 152 -244 158q-147 -6 -213 -70z" />
<glyph unicode="&#x1006;" horiz-adv-x="2287" d="M20 401v52q0 82 35 157q113 203 402 203q233 0 436 -111h25q-39 141 -97 242q-150 211 -426 289q-217 20 -217 33v26l51 51q167 1 394 -83q539 -248 538 -721v-21q0 -117 -35 -221q-133 -283 -469 -283h-96q-70 0 -158 13q-383 98 -383 374zM248 414q0 -330 330 -330 q350 0 350 369v75q0 129 -350 166h-70q-260 -37 -260 -280zM979 573q0 403 354 547q111 25 164 25h70q334 0 467 -275q37 -80 51 -288q0 -420 -336 -555q-109 -33 -182 -33h-105q-336 0 -456 346q-27 147 -27 233zM1155 518q41 -303 244 -420q92 -25 133 -24q248 0 311 329 q8 78 8 146q0 381 -202 491q-80 25 -107 25h-18q-328 0 -369 -547z" />
<glyph unicode="&#x1007;" horiz-adv-x="1372" d="M0 565q0 254 166 418q174 164 424 164q252 0 416 -164q18 -20 35.5 -39.5t31.5 -44.5q20 -39 33.5 -80t13.5 -86q0 -35 -10 -71q6 -166 131 -291l-127 -127q-63 61 -97 122.5t-50 112.5q-61 -33 -136 -33q-59 0 -111 23t-91 61.5t-61.5 91t-22.5 111.5q0 72 43 141.5 t67 88.5q49 0 31 2t-36.5 3t-35 2t-24.5 1q-176 0 -297 -115q-117 -117 -117 -291q0 -178 115 -297q119 -113 299 -112q82 0 144.5 20.5t131.5 83.5l127 -127q-94 -90 -189 -121.5t-214 -31.5q-264 0 -426 161q-164 164 -164 424zM719 737q0 -51 32.5 -83.5t84.5 -32.5 q39 0 71.5 22.5t42.5 54.5q4 23 4 37.5v24.5q-8 39 -42.5 68.5t-75.5 29.5q-51 0 -84 -35t-33 -86z" />
<glyph unicode="&#x1008;" horiz-adv-x="1679" d="M0 549q0 264 162 426q164 164 424 164q256 0 418 -168q164 -168 163 -422q0 -252 -163 -416q-27 -25 -52.5 -44t-46.5 -36v-596q-2 -33 7.5 -54t26.5 -34.5t42 -20.5t51 -10h90q49 0 85 4.5t54.5 16.5t27.5 34.5t9 63.5v1690h177v-1798q-2 -78 -37 -131.5t-111 -53.5 l-448 2q-35 0 -61.5 15.5t-45 41t-29 55.5t-10.5 60l-2 648q-68 -14 -145 -15q-258 0 -422 162q-164 164 -164 416zM176 549q0 -80 27.5 -151.5t70.5 -118.5q43 47 71 118.5t28 151.5q0 166 -103 282q-94 -110 -94 -282zM420 934q129 -154 129 -385q0 -225 -127 -377 q25 -8 72 -19.5t92 -11.5q172 0 288 117q117 115 117 291q0 180 -114 297q-115 117 -291 117q-45 0 -92.5 -9.5t-73.5 -19.5z" />
<glyph unicode="&#x1009;" horiz-adv-x="1335" d="M10 938q215 203 543 207q471 4 567 -432q8 -76 8 -133v-21q4 -373 -403 -524q-100 -43 -299 -45q-408 14 -408 59l-2 201q0 14 15 14l100 2q10 -20 117 -104q82 -90 205 -88h82q233 2 315 364q8 31 6 105v20q-4 453 -377 449h-35q-164 -2 -372 -135h-6q0 4 -56 61zM20 25 q3 14 15 14h135q14 -2 14 -14v-682h1725v135q0 41 -56 84l41 -33l-69 47l-21 -14h-12q-14 0 -14 14v137q2 14 14 15h6q195 0 254 -166q6 -41 6 -68v-121q0 -141 -116 -198q-25 -14 -54 -15h-1730q-131 23 -131 144q-6 0 -7 45v676z" />
<glyph unicode="&#x100a;" horiz-adv-x="2252" d="M0 35q0 6 6 6l-6 14q0 6 6 6l-6 15v241q2 14 14 15h88q12 0 97 -150q106 -74 196 -73h62q254 0 362 297q49 100 49 282v29q0 446 -280 553l-123 20q-260 0 -342 -243h-123v256q0 53 457 61h131q285 0 450 -283q76 -178 76 -379q0 -199 -70 -311q14 -2 15 -12q-6 0 -6 -6 q6 0 6 -8q-14 -2 -15 -13q41 0 91 -55q131 -100 286 -100q326 0 437 276q20 74 20 94q0 276 -217 371q-109 55 -219 55h-41l-70 -8l-41 109h8q-14 35 -14 47q20 20 129 20h76q158 0 315 -88q258 -182 258 -479q0 -406 -442 -547q-96 -12 -125 -27l-27 9q-12 -8 -20 -9 q-12 8 -21 9q-12 -8 -20 -9q-12 8 -21 9q-12 -8 -26 -9q0 12 -143 35q-225 88 -254 156l-13 -8q-8 0 -8 8l-12 -8l-15 8q-20 -47 -157 -123q-217 -80 -314 -80h-20q-72 0 -219 6v6l-15 -6l-12 6l-8 -12q14 -2 14 -14v-588h1735v135q0 74 -68 88q-61 8 -61 21v147q0 10 20 21 q217 0 267 -209v-195q0 -147 -150 -211h-1763q-150 0 -150 232v579z" />
<glyph unicode="&#x100b;" horiz-adv-x="1372" d="M0 578v20q0 379 408 528q100 43 299 43q408 -18 407 -63v-205q0 -14 -14 -14h-156q-23 0 -61 106q-80 92 -203 92h-82q-233 0 -319 -366q-6 -31 -7 -107v-20q0 -459 373 -459h35q164 0 373 135h6q0 -6 55 -63q-217 -205 -543 -205q-473 0 -565 444q-6 76 -6 134zM35 -86 q100 82 164 113q90 -39 90 -45l14 6h6q0 -37 240 -68h20q102 0 207 35l-8 12v6q2 14 14 15h6q14 0 15 -21h14q115 59 123 60v94q2 12 14 12l123 88q20 -14 15 -12l6 -268q-47 -59 -383 -166q-68 -12 -160 -19q-145 0 -362 99v-66q188 -94 342 -94h49q180 0 350 94 q49 -25 164 -127v-344h123q14 -2 14 -14v-113q0 -12 -14 -12h-144q-137 0 -137 166v278q-223 -106 -397 -106q-233 0 -508 192v205z" />
<glyph unicode="&#x100c;" horiz-adv-x="1372" d="M0 -535q4 115 82 169.5t211 52.5v-160q-59 0 -92 -14.5t-37 -44.5v-130h792v760q-156 -119 -378 -118q-252 0 -416 163q-162 164 -162 422q0 256 162 418q164 164 416 164q254 0 423 -164q39 -37 69 -78t56 -106q-55 -25 -82.5 -38t-80.5 -32q-25 47 -43.5 73.5 t-45.5 53.5q-117 115 -296 115q-174 0 -291 -117q-115 -115 -115 -289q0 -172 115 -293q117 -117 291 -116q184 0 299 112q23 23 42 50.5t44 76.5l167 -80v-1032q0 -125 -176 -119h-788q-154 33 -166 131v170z" />
<glyph unicode="&#x100d;" horiz-adv-x="1331" d="M0 799q27 63 58.5 106t66.5 78q170 164 424 164q252 0 416 -164q162 -162 161 -418q0 -254 -163 -422q-164 -164 -414 -163q-227 0 -385 124v-57q88 -53 181 -89t190 -36q86 0 177 31t191 88q53 -27 85 -52.5t81 -49.5v-621h131v-154h-129q-170 -2 -166 154v522 q-82 -43 -176 -70.5t-182 -27.5q-100 0 -195.5 28.5t-277.5 108.5h16l-88 45v395l162 74q25 -51 42 -73.5t44 -51.5q115 -113 299 -112q174 0 289 116q117 119 116 293q0 172 -116 289q-115 117 -289 117q-180 0 -297 -115q-27 -27 -45.5 -53.5t-42.5 -75.5q-55 23 -83 36 t-81 36z" />
<glyph unicode="&#x100e;" horiz-adv-x="1372" d="M0 553q2 72 21.5 109.5t49 56t59.5 19.5t50 1q14 0 19.5 -1t13.5 3q47 2 76.5 33t29.5 74q0 23 -9 45t-23.5 39.5t-35 29t-40.5 11.5q-45 0 -92 -53l-109 143q53 41 98.5 58.5t98.5 17.5q59 0 112.5 -22.5t92.5 -61.5t62.5 -91.5t23.5 -111.5t-23.5 -112.5t-62.5 -91.5 t-92.5 -61.5t-112.5 -23.5q-8 0 -20.5 1t-12.5 -11q0 -178 119 -291q119 -117 297 -117q172 0 289 117t116 291q0 211 -116 344q-27 23 -56.5 45.5t-83.5 46.5l86 158q106 -49 179 -121q164 -186 163 -473q0 -256 -161 -418q-164 -164 -416 -164q-254 0 -424 164 q-166 162 -166 418z" />
<glyph unicode="&#x100f;" horiz-adv-x="2576" d="M0 565q0 254 166 418q170 164 424 164q211 0 358 -115q31 45 95.5 82t136.5 37q76 0 141 -41t98 -86q150 123 375 123q252 0 416 -164q162 -162 162 -418q0 -254 -164 -422q-164 -164 -414 -163q-55 0 -101 5t-114 25q12 55 19.5 86t21.5 88q57 -20 93 -24t81 -4 q178 0 289 116q119 119 119 293q0 172 -119 289q-111 117 -289 117q-176 0 -297 -115l-31 -35q-27 -37 -46 -81t-34 -87q-6 -35 -6 -88q0 -29 2 -54.5t7 -47.5q6 -35 23.5 -65.5t35.5 -65.5q37 -132 -33 -234q-37 -57 -99.5 -89t-135.5 -32q-70 0 -132.5 32t-62.5 34 q-117 106 -61 291q23 41 40 73.5t23 69.5q4 18 6 42t2 46q0 23 -2 43.5t-6 40.5q-4 37 -25.5 86t-66.5 103q-6 2 -10 7t-6 9q-117 117 -289 117q-180 0 -297 -115q-119 -117 -119 -291q0 -180 117 -297q115 -113 299 -112q39 0 73.5 5t88.5 23q14 -61 21 -92t20 -84 q-106 -29 -203 -28q-264 0 -426 161q-164 164 -164 424zM1081 244q6 -31 36 -55.5t69 -24.5q37 0 65.5 23.5t36.5 50.5q-76 119 -84 282v66q2 90 25.5 163.5t60.5 135.5q-4 33 -34.5 60.5t-69.5 27.5t-70 -26.5t-35 -59.5q80 -123 86 -295v-60q-4 -82 -26.5 -156.5 t-59.5 -131.5z" />
<glyph unicode="&#x1010;" horiz-adv-x="2289" d="M0 678q0 549 391 692q95 21 158 21h12q358 0 479 -322q55 -147 56 -309v-96q0 -489 -369 -637q-82 -27 -166 -27h-53q-332 0 -461 350q-35 92 -47 328zM190 653q0 -381 216 -501q80 -39 147 -39q256 0 336 321q20 98 20 201v90q0 442 -270 537q-27 12 -78 12h-20 q-260 0 -336 -336q-15 -101 -15 -193v-92zM958 868q182 301 555 301q403 0 584 -376q29 -106 29 -177v-61q0 -365 -402 -520q-84 -27 -190 -27h-35q-80 0 -139 15q0 14 43 155h53q29 0 57 -6q317 0 431 307q6 37 6 62v75q0 219 -254 349q-88 33 -183 32q-307 0 -423 -272h-7 q-125 127 -125 143z" />
<glyph unicode="&#x1011;" horiz-adv-x="2289" d="M-6 682q0 543 412 688q99 21 165 21h15q365 0 506 -308q57 -176 57 -319v-96q0 -487 -389 -635q-86 -27 -174 -27h-72q-268 0 -426 252q-94 184 -94 424zM217 653q0 -397 217 -530q82 -41 152 -41q270 0 346 367q14 90 14 178v102q0 467 -274 565q-29 14 -80 15h-23 q-293 0 -346 -430q-6 -43 -6 -115v-111zM1012 215v762h6l16 -6q185 215 502 215q434 0 596 -410q20 -88 20 -166v-35q0 -383 -415 -540q-92 -29 -201 -29h-18q-301 0 -490 209h-16zM1126 393q137 -203 379 -203h62q293 0 411 297q16 29 17 86v48q0 238 -314 364 q-92 14 -145 14q-275 1 -410 -208q31 -80 31 -197q0 -84 -31 -201z" />
<glyph unicode="&#x1012;" horiz-adv-x="1273" d="M0 322l162 75q37 -78 88 -129q115 -113 299 -112q170 0 289 118q-20 0 -82 22.5t-108 62.5t-72.5 92.5t-26.5 111.5t26.5 112.5t72.5 92.5t107.5 61.5t84.5 22.5q-117 119 -291 119q-176 0 -297 -115q-20 -20 -28.5 -37.5t-8.5 -42.5q0 -14 3 -31.5t24 -62.5 q-80 0 -115 -2t-94 -2q-29 61 -29 108q0 51 32 102.5t81 100.5q88 76 197.5 117t234.5 41q121 0 227.5 -43t188.5 -119q43 -57 65.5 -105.5t22.5 -82.5q0 -115 -211 -121q-45 0 -76 -33t-31 -76q0 -45 30 -74.5t77 -29.5q96 -8 153.5 -36t57.5 -87q0 -74 -90 -199 q-82 -76 -187.5 -118.5t-226.5 -42.5q-264 0 -426 161q-35 35 -64.5 75t-58.5 106z" />
<glyph unicode="&#x1013;" horiz-adv-x="1372" d="M0 565q0 254 166 418q170 164 424 164q252 0 416 -164q162 -162 161 -418q0 -254 -163 -422q-164 -163 -414 -163q-264 0 -426 161q-164 164 -164 424zM174 565q0 -84 31 -166q152 129 385 129q221 0 375 -129q31 78 30 166q0 172 -116 289q-115 117 -289 117 q-180 0 -297 -115q-119 -117 -119 -291zM307 250q107 -94 283 -94q162 0 270 98q-109 98 -270 98q-166 0 -283 -102z" />
<glyph unicode="&#x1014;" horiz-adv-x="1443" d="M-55 395q0 78 51 121t116.5 62.5t132 23.5t171.5 4q66 0 122 -22.5t97 -60.5t66.5 -90t25.5 -111v-172q137 18 228.5 82.5t144.5 156.5q31 55 5 92t-94.5 69t-164.5 55.5t-189 51.5q-80 25 -158.5 50.5t-140 55.5t-100.5 66.5t4 165.5q49 137 418 152q104 0 198.5 -25.5 t190.5 -81.5l-117 -139q-70 41 -135 55.5t-137 14.5q-68 0 -130.5 -13.5t-94.5 -42.5q-6 -2 5 -12t64.5 -33.5t126 -48t131.5 -43.5q88 -29 183.5 -56.5t175.5 -60t131 -75.5t47 -105q-14 -96 -58 -183t-120 -155q-72 -66 -171.5 -105.5t-242.5 -51.5v-822h-188v820 q-207 12 -326 69q-59 33 -108.5 72t-85 84t-55 92t-19.5 94zM182 365q31 -92 144.5 -150.5t205.5 -67.5v175q0 45 -31.5 76.5t-74.5 31.5q-86 0 -119 -2t-62.5 -9t-46 -20.5t-16.5 -31.5v-2z" />
<glyph unicode="&#x1015;" horiz-adv-x="1372" d="M-123 1098v32q3 17 21 17h553q20 -2 20 -17v-24q0 -8 -123 -49l-31 -74q35 -166 308 -762h8q317 588 360 729v25q0 90 -143 123q-12 0 -12 8v24q2 16 20 17h502q20 -2 20 -17v-24q-184 -84 -184 -172q-86 -125 -543 -934h-164q-39 41 -428 942q-92 156 -184 156z" />
<glyph unicode="&#x1016;" horiz-adv-x="1372" d="M-137 1081v33q2 16 20 16h559q18 -2 19 -16v-24q0 -8 -123 -48l-31 -73q35 -164 309 -752h11q203 395 231 442l-227 177q-23 162 -19 172q57 59 37 61l72 41q115 20 133 20h506q20 -2 20 -16v-24q-186 -82 -186 -170q-86 -123 -547 -920h-166q-39 41 -432 928 q-94 154 -186 153zM848 924q-37 -70 26 -121h7q109 51 139 106q37 72 -33 127q-109 -53 -139 -112z" />
<glyph unicode="&#x1017;" horiz-adv-x="1372" d="M0 551q0 299 164 475q37 37 76.5 63.5t117.5 65.5q-4 -80 5.5 -114.5t39.5 -51.5q43 -14 88.5 -24.5t98.5 -10.5q86 0 162 31q68 35 59 166q121 -55 193 -127q164 -186 163 -473q0 -256 -161 -418q-164 -164 -416 -164q-254 0 -424 164q-166 162 -166 418zM174 551 q0 -178 119 -291q119 -117 297 -117q172 0 289 117q116 117 116 291q0 180 -94 309q-133 -80 -311 -80q-92 0 -178 23.5t-150 62.5q-88 -125 -88 -315z" />
<glyph unicode="&#x1018;" horiz-adv-x="2248" d="M14 59v246q0 12 17 12h94q14 -14 76 -135q104 -94 237 -94h25q338 0 430 414q16 96 16 190q0 475 -270 590q-37 14 -135 27q-297 0 -371 -250h-102q-16 2 -17 12v252q0 41 422 61h119q373 0 524 -299q76 -168 76 -372q0 -518 -473 -680q-140 -27 -244 -27h-8 q-342 6 -416 53zM991 874v201q147 105 389 105q451 0 627 -404q31 -68 31 -180v-21q0 -406 -467 -555q-115 -20 -191 -20q-78 0 -174 14v6q0 25 47 160l56 -6h94q262 0 405 242q39 66 39 174q0 303 -364 409q-68 6 -111 7q-227 0 -373 -132h-8z" />
<glyph unicode="&#x1019;" horiz-adv-x="1372" d="M-82 1098v24q3 17 21 17h340q18 -2 18 -17v-446q0 -424 74 -496q76 -57 190 -57q180 0 313 219v586q0 119 -114 153q-37 0 -37 17v24q2 16 18 17h340q20 -2 21 -17v-786q0 -244 84 -244q86 -29 86 -41v-24q0 -16 -21 -17q-211 -8 -340 -8h-8q-18 0 -18 16v170 q-18 8 -29 9q-207 -203 -397 -203h-88q-190 0 -273 203q-31 76 -30 186v504q0 186 -113 186q-37 16 -37 25zM287 256v10q100 147 305 393h86q66 -45 305 -393v-10q-33 -63 -57 -63l-287 272h-8q-272 -272 -303 -272z" />
<glyph unicode="&#x101a;" horiz-adv-x="2289" d="M-199 1081v33q3 16 21 16h571q18 -2 19 -16v-24q0 -6 -129 -48q0 -14 -21 -32v-58q0 -74 281 -735h10q397 913 418 913h184q20 0 352 -913h13q332 674 331 735q-31 129 -159 129v33q2 16 20 16h496q20 -2 20 -16v-24q-135 -51 -205 -185q-453 -905 -481 -905h-172 q-23 0 -358 889h-8q-43 -104 -406 -889h-205q-20 0 -323 727q-123 354 -269 354z" />
<glyph unicode="&#x101b;" horiz-adv-x="1372" d="M0 565q0 254 166 418q170 164 424 164q252 0 416 -164q160 -162 161 -408v-1179q-4 -45 14.5 -58.5t57.5 -9.5h117v-162h-191q-164 6 -168 150l-2 1259q-1 162 -116 279t-289 117q-180 0 -297 -115q-98 -92 -117 -233q254 0 418 -164q92 -109 124 -217.5t36 -243.5 q-51 -12 -89 -15t-75 -3q-264 0 -426 161q-164 164 -164 424zM186 446q31 -104 105 -178q104 -104 276 -112q-31 104 -100 174q-57 53 -133 83.5t-148 32.5z" />
<glyph unicode="&#x101c;" horiz-adv-x="2289" d="M-96 1083v21q0 10 20 20q281 8 375 9q0 -8 8 -9q-8 -37 -14 -192h20q244 207 439 207h41q244 0 325 -228q8 -80 8 -116v-467q0 -268 76 -269l90 -34v-27q0 -14 -14 -14h-131q-190 0 -250 178l6 49v399q0 385 -160 385q0 10 -104 21q-201 0 -326 -236q-6 -27 -6 -53v-496 q0 -199 152 -198l8 -15v-20q0 -14 -14 -14h-514q-14 0 -15 14v12q131 82 139 96q14 84 15 132v667q0 113 -98 158q-76 0 -76 20zM1067 4q20 154 51 154q109 -53 221 -52q248 0 400 230q8 27 6 55l-4 483q-2 195 -189 193l-10 14v19q0 14 19 14l628 4q18 0 19 -14v-12 q-160 -80 -170 -97q-16 -80 -17 -127l9 -651q0 -109 118 -154q94 0 95 -18v-20q0 -10 -25 -21q-344 -8 -461 -10q0 6 -8 6q8 37 16 188h-26q-297 -202 -535 -204h-119q-16 0 -18 20z" />
<glyph unicode="&#x101d;" horiz-adv-x="1372" d="M0 -143l172 243q-164 154 -164 467q0 475 408 609q100 18 166 18h14q178 0 307 -74q134 176 144 176h108q14 -2 14 -12q-14 -12 -172 -225q158 -174 158 -436v-74q0 -434 -387 -565q-84 -25 -172 -25h-57q-160 0 -281 74q-129 -182 -135 -183h-109zM223 537 q0 -125 47 -287q68 80 543 743q-96 104 -229 105h-21q-283 0 -334 -369q-6 -37 -6 -100v-92zM338 139q104 -109 250 -108q270 0 344 327q14 80 14 158v92q-22 303 -63 303z" />
<glyph unicode="&#x101e;" horiz-adv-x="2248" d="M-2 1059v248q0 41 418 63h116q369 0 519 -295q78 -168 77 -370q2 -516 -464 -678q-140 -27 -242 -27h-8q-338 6 -412 53v242q0 14 16 14h93q14 -14 75 -135q104 -94 234 -94h26q334 2 424 414q16 94 17 188q-2 473 -271 588q-37 12 -135 26q-293 -2 -366 -252h-101 q-16 2 -16 15zM901 143v674h17q55 -123 55 -250q0 -113 -39 -200q166 -197 352 -197q0 -6 55 -6h66q262 0 408 235q41 70 40 168q0 297 -368 398q-68 6 -113 6h-24l-97 -6l-55 155q80 19 193 19q459 0 632 -396q25 -78 25 -161v-35q0 -342 -393 -504q-121 -47 -281 -47 q-305 0 -473 147z" />
<glyph unicode="&#x101f;" horiz-adv-x="2289" d="M-96 1329v21q2 14 16 14h469q16 -2 17 -14v-21l-115 -53q-25 -35 -25 -90v-836q0 -211 221 -274q109 -8 123 -13q346 0 346 404v561q0 274 -75 275q-74 14 -74 26v21q4 14 16 14h445q16 -2 16 -14v-21q0 -6 -98 -41q-41 -31 -41 -102v-596q0 -434 -180 -514 q-135 -88 -338 -88h-90q-494 0 -494 458v746q0 92 -106 125q-33 0 -33 12zM1065 328v692q152 151 410 151q393 0 546 -387q29 -94 29 -186v-20q0 -424 -430 -568q-102 -14 -154 -14q-45 0 -166 14v6q0 29 50 160l84 -8h61q264 0 375 305q14 31 14 90v27q0 297 -319 401 q-59 8 -99 8q-244 0 -372 -208q27 -113 26 -228q0 -96 -41 -235h-14z" />
<glyph unicode="&#x1020;" horiz-adv-x="1331" d="M0 565q0 256 162 418q164 164 416 164q254 0 423 -164q39 -37 69 -78t56 -106q-55 -25 -82.5 -38t-80.5 -32q-25 47 -43.5 73.5t-45.5 53.5q-94 141 -296 162q-168 -12 -291 -164q-74 -133 -80 -309q12 -162 80 -273q123 -158 291 -163q225 41 299 159q20 20 41.5 51 t46.5 76q53 -25 82.5 -39t76.5 -37v-372q-55 -43 -114.5 -76t-127 -58.5t-143 -40t-159.5 -12.5q-82 2 -174.5 16.5t-172.5 57.5v-496h730v91q-4 33 -36 47t-93 12v180q76 0 124 -16.5t83.5 -48t58 -75.5t24.5 -101v-127q-4 -51 -48 -84t-115 -50h-728q-176 -6 -176 119v654 q49 25 81 54.5t85 55.5q100 -57 192.5 -84.5t176.5 -27.5q96 0 190.5 30.5t180.5 83.5v53q-156 -125 -385 -124q-252 0 -416 163q-162 164 -162 422z" />
<glyph unicode="&#x1021;" horiz-adv-x="2207" d="M0 80v176q2 12 16 12h107q10 0 90 -121q80 -74 238 -73q258 0 303 215q0 14 8 73q0 213 -262 277q-82 12 -148 12h-98q-16 0 -16 15v53q0 14 204 41q287 98 287 289q0 137 -106 194q-45 29 -172 41q-219 0 -295 -197q0 -12 -17 -12h-106q-16 0 -17 12v162q37 37 312 101 q121 14 180 14q340 0 434 -201l8 -67v-35q0 -199 -344 -328v-14q141 -4 295 -127q82 -104 82 -195v-8q0 -297 -369 -375q-66 -14 -139 -14h-74q-362 27 -401 80zM743 831h7v35q266 273 618 273q424 0 600 -346q47 -86 47 -232q0 -379 -432 -524q-111 -27 -215 -27h-16 q-125 0 -154 47v19q0 387 463 524q37 14 170 27q-20 133 -162 260q-131 86 -301 86q-301 0 -530 -135q-43 4 -95 -7zM1376 176h15q197 0 352 160q70 115 69 160q-244 0 -376 -195q-23 -37 -60 -125z" />
<glyph unicode="&#x1022;" horiz-adv-x="2289" d="M0 565q0 254 166 418q170 164 424 164q252 0 416 -164l14 -16q6 -8 13 -16.5t9 -12.5l13 12h-8q207 199 460 199q252 0 416 -164q162 -162 162 -418q0 -254 -164 -422q-164 -164 -414 -163q-82 0 -178 20q25 55 33 86t24 80q41 -6 65 -8t56 -2q178 0 289 116 q119 119 119 293q0 172 -119 289q-111 117 -289 117q-176 0 -297 -115q-47 -49 -71 -96q29 -90 28 -197q0 -291 -163 -473q-35 -37 -75 -65.5t-106 -55.5q-25 51 -40 77t-40 81q53 25 80 45.5t56 46.5q119 131 118 344q0 172 -118 289q-111 117 -289 117q-176 0 -297 -115 q-117 -117 -117 -291v-14q25 2 33 2q59 0 112.5 -22.5t91.5 -61.5t61.5 -91t23.5 -112q0 -59 -23.5 -111.5t-61.5 -91t-91.5 -61t-112.5 -22.5q-51 0 -99.5 16t-99.5 61l109 136q47 -47 94 -48q18 0 38.5 11.5t35 29t23.5 40t9 44.5q0 41 -29.5 73t-74.5 34q-8 4 -13 3 t-22 -1q-20 0 -50 1t-59.5 19.5t-49 56t-21.5 109.5z" />
<glyph unicode="&#x1023;" horiz-adv-x="2289" d="M-170 1092v20q0 18 166 18h264l14 -6q-14 -135 -14 -182q43 0 158 88q192 115 360 115h15q279 0 364 -223h8q279 223 473 223h15q274 0 358 -141q57 -66 57 -271v-459q0 -217 173 -217l8 -14v-18q0 -14 -15 -15h-573q-14 0 -14 15v12q135 72 149 94q23 51 23 109v452 q0 233 -144 303q-66 20 -86 21h-80q-223 0 -329 -250v-580q0 -100 157 -135l6 -14v-12q0 -14 -14 -15h-559q-14 0 -14 15v12q0 10 129 67q43 90 43 306q0 580 -150 579q0 23 -145 27h-21q-160 0 -315 -189q-23 -51 -23 -108v-438q0 -223 172 -224l9 -14v-18q0 -14 -15 -15 h-573q-14 0 -14 15v12q113 57 149 88q23 78 23 162v614q0 176 -187 176zM152 -23q0 10 122 11h199l10 -2q-10 -76 -10 -103q31 0 117 49q143 64 268 64h10q209 0 273 -123h6q207 123 352 123h10q205 0 269 -78q43 -37 43 -149v-109q0 -102 4 -289l-10 -4h-173q-10 0 -10 8 v371q0 129 -106 168q-47 10 -64 10h-59q-166 0 -246 -137v-322q0 -55 117 -75l6 -6v-9q0 -8 -10 -8h-418q-10 0 -10 8v9q0 4 96 36q31 49 31 168q0 322 -111 322q0 12 -108 14h-15q-121 0 -235 -104q-16 -27 -17 -60v-243q0 -123 127 -123l6 -8v-11q0 -8 -10 -8h-428 q-10 0 -10 8v9q84 31 113 47q14 45 14 90v340q0 98 -137 98l-6 6v12zM1632 -369q0 8 10 11h162q10 0 11 -9l2 -172q2 -150 106 -194q47 -12 62 -12h57q84 2 162 57q4 0 30 -29q-157 -110 -284 -110h-11q-199 -2 -262 88q-41 41 -43 172z" />
<glyph unicode="&#x1024;" horiz-adv-x="2596" d="M-76 1065v20q0 20 158 21h254l14 -8q-14 -133 -14 -178q41 0 151 86q182 112 342 112h15q266 0 348 -219h8q266 219 453 219h12q262 0 344 -139q55 -63 55 -266v-193q0 -184 7 -514l-15 -6h-219q-14 0 -14 14v133q0 18 -6 19l6 35v471q0 231 -137 301q-61 18 -82 18h-76 q-211 0 -316 -246v-571q0 -98 152 -133l6 -14v-13q0 -14 -12 -14h-535q-14 0 -14 14v13q0 8 123 67q41 88 41 299q0 571 -144 572q0 23 -137 26h-20q-154 0 -301 -186q-20 -49 -21 -107v-432q0 -219 164 -219l6 -14v-19q0 -14 -12 -14h-549q-14 0 -14 14v13q109 55 143 86 q20 78 21 159v607q0 174 -179 174zM0 -449q0 238 129 293q0 23 117 50h82q340 0 673 -213l7 -15q-27 -162 -27 -186h-14q-274 229 -648 229q-6 0 -20 -8q-12 8 -27 8q-61 -33 -59 -135l-2 -41q-6 18 6 53l-12 -170q41 -57 108 -63h1516l2 719q72 14 6 14h213q14 -2 14 -14 v-727q0 -143 -192 -164h-1682q-190 20 -190 164v206zM1675 1640q2 86 34 165t91 139q127 127 309 127q184 0 304 -127q53 -51 88 -136l-158 -69q-18 39 -28.5 55t-24.5 31q-72 74 -185 73q-117 0 -188.5 -72.5t-71.5 -189.5q6 -61 26.5 -108t51.5 -86t72 -74t84 -70 q55 -45 112.5 -98t102.5 -126t72.5 -170t23.5 -230v-1510h-172v1561q-2 102 -25.5 176t-61.5 128t-87 95t-100 82q-45 33 -90.5 73t-83 91t-63.5 117.5t-32 152.5z" />
<glyph unicode="&#x1025;" horiz-adv-x="1337" d="M0 313q49 25 71.5 36t38 18.5t23.5 11.5t33 16q27 -49 47 -75.5t43 -51.5q100 -139 299 -202q201 55 289 206q70 119 76 308q-20 156 -78 254q-92 164 -287 213q-209 -49 -297 -191q-51 -51 -88 -129q-55 23 -84 36t-80 36q27 63 57.5 106t67.5 78q170 164 424 164 q252 0 416 -164q162 -162 162 -418q0 -254 -164 -422q-164 -164 -414 -163q-227 0 -379 118v-760h793v132q-4 33 -36 47t-93 12v160q129 2 208.5 -54.5t84.5 -166.5v-168q-4 -51 -49.5 -84t-116.5 -50h-791q-176 -6 -176 119v1028z" />
<glyph unicode="&#x1026;" horiz-adv-x="1337" d="M0 313q49 25 71.5 36t38 18.5t23.5 11.5t33 16q27 -49 47 -75.5t43 -51.5q115 -113 305 -174q170 10 256 119q102 131 96 346q-6 178 -84 315q-92 139 -282 138q-111 0 -234 -107q-106 -100 -143 -178q-55 23 -84 36t-80 36q27 63 57.5 106t67.5 78q170 164 424 164 q252 0 416 -164q162 -162 162 -418q0 -254 -164 -422q-164 -164 -414 -163q-227 0 -379 118v-760h793v132q-4 33 -36 47t-93 12v160q129 2 208.5 -54.5t84.5 -166.5v-168q-4 -51 -49.5 -84t-116.5 -50h-791q-176 -6 -176 119v1028zM131 1645q0 180 123 303t305 123 q178 0 301 -123q119 -125 119 -303q0 -172 -125 -304q-121 -127 -299 -127t-301 125q-123 123 -123 306zM299 1645q0 -49 16 -91q27 37 92.5 79t137.5 42q78 0 147.5 -45t95.5 -84q14 45 19 96q0 57 -18.5 105.5t-51 82.5t-79 52.5t-103.5 18.5q-115 0 -185.5 -71 t-70.5 -185zM446 1413q48 -18 103 -18q49 0 102 18q-4 27 -33.5 56.5t-68.5 29.5q-37 0 -66.5 -29.5t-36.5 -56.5z" />
<glyph unicode="&#x1027;" horiz-adv-x="1372" d="M0 565q0 256 162 418q164 164 416 164q254 0 423 -164q76 -80 123 -180q-176 -229 -469 -230q-254 0 -424 164l-18 17q-16 -31 -28.5 -84.5t-12.5 -104.5q0 -106 43 -194l16 14q170 164 424 164q121 0 226.5 -44t187.5 -120q12 -12 24.5 -26.5t28.5 -41.5 q-25 -57 -53.5 -98t-64.5 -78q-162 -162 -426 -161q-252 0 -416 163q-162 164 -162 422zM332 893q18 -25 24 -29q61 -57 136 -86.5t163 -29.5q137 0 246 79l-27 29q-116 115 -296 115q-145 0 -246 -78zM334 231q100 -76 244 -75q184 0 301 114l22 25q-109 80 -246 80 q-180 0 -301 -119z" />
<glyph unicode="&#x1028;" horiz-adv-x="1372" d="M0 -272v858q6 242 166 397q170 164 424 164q250 0 401 -152q76 -76 113 -161.5t39 -182.5v-325q-6 -90 -45 -158t-86 -113t-95.5 -68.5t-70.5 -17.5l-205 2q-74 16 -126 64.5t-52 116.5q0 55 41 131q80 117 109.5 184.5t29.5 101.5q0 41 -24.5 51.5t-57.5 10.5 q-37 0 -61.5 -28t-24.5 -81l-141 -57q-12 33 -12 46v26q0 49 19 93t51 75.5t75 51t92 19.5t93 -19.5t75 -51t50.5 -75.5t19.5 -93q0 -47 -22.5 -94.5t-50.5 -91.5t-51.5 -86t-29.5 -83q-2 -14 9.5 -25.5t36 -19.5t54 -11t54.5 3q27 4 56.5 23.5t55 50t42 70.5t16.5 85 l-4 369q-27 66 -84 127q-115 117 -289 117q-180 0 -297 -115q-115 -113 -119 -285l-4 -829q2 -84 31.5 -153.5t87.5 -129.5q113 -117 289 -116q178 0 296 114q111 111 117 291q55 0 89 1t87 1q-4 -141 -44 -241.5t-122 -180.5q-164 -162 -423 -162q-252 0 -414 166 q-82 80 -121 178.5t-43 217.5z" />
<glyph unicode="&#x1029;" horiz-adv-x="2551" d="M0 -221v1702q0 446 477 571q112 16 309 16h816q514 0 626 -163q160 -156 160 -320q0 -18 -18 -18h-160q-14 0 -47 139q-121 207 -459 207h-1002q-360 0 -477 -277q-29 -90 -28 -182v-1659q0 -383 393 -448q139 -8 233 -9h760q471 0 553 173q55 98 55 260v145q2 18 19 18 h160q18 -2 18 -18v-172q0 -553 -666 -553h-1095q-453 0 -598 389q-29 86 -29 199zM336 61v220q2 14 14 14h92q92 -154 113 -154q92 -68 199 -67h77q295 0 402 395q23 113 22 195q0 512 -340 593l-98 15q-274 0 -368 -242l-15 -6h-84q-14 0 -14 12v236q0 47 438 59h156 q387 0 530 -387q35 -133 35 -227v-47q0 -182 -84 -363q0 -18 -8 -45q96 -109 346 -108h43q270 0 418 227q49 80 49 168q0 297 -389 395q-47 6 -92 6h-29q-37 0 -119 -6q-49 119 -49 146q53 14 191 20q461 0 643 -375q35 -70 34 -192q0 -377 -481 -523q-82 -20 -211 -26 q-258 0 -467 121q-16 0 -43 20h-6q-182 -135 -481 -135q-358 0 -424 61z" />
<glyph unicode="&#x102a;" horiz-adv-x="4993" d="M0 528v7q0 516 578 768q194 67 315 67h27q55 -37 55 -47v-20q0 -16 -262 -50q-313 -129 -410 -348q-29 -51 -67 -198h12q233 115 457 114q338 0 417 -293q6 -37 6 -69v-68q0 -254 -329 -364q-90 -27 -221 -27h-80q-336 0 -465 295q-33 98 -33 233zM229 438 q0 -244 168 -336q72 -35 168 -34h19q324 0 323 329v68q0 223 -276 262h-6q-396 -29 -396 -166v-123zM1290 -246v1702q0 414 375 543q76 41 285 41h948q465 0 586 -223q98 -119 98 -258l-12 -7h-152q-14 6 -59 162q-117 182 -494 182h-837q-440 0 -527 -284q-27 -57 -26 -156 v-1687q0 -334 350 -422q178 -12 473 -13h356q653 0 690 177q53 94 54 243v156q0 10 20 20h146q8 0 18 -20v-141q0 -428 -336 -531q-123 -39 -295 -39h-1069q-455 0 -579 432q-12 70 -13 123zM1606 106v211q2 14 14 15h72q14 0 98 -137q106 -80 199 -80h112q305 0 387 508 v129q0 418 -295 534q-106 20 -145 21q-238 0 -342 -244h-86q-14 0 -14 14v223q53 62 528 62q442 0 559 -420q20 -109 21 -164v-114q0 -123 -80 -332l-6 -35q102 -109 362 -109q348 0 461 332q6 27 6 62v20q0 289 -395 379q-20 8 -78 8h-21q-35 0 -112 -8q-45 119 -45 137 q55 20 203 21q438 0 606 -408q20 -51 20 -149q0 -397 -520 -529q-113 -14 -164 -14q-213 0 -481 143q-164 -137 -455 -137h-26q-319 0 -383 61zM3682 840q27 47 51.5 79.5t53.5 63.5q162 162 426 162q250 0 413 -166q164 -164 164 -420t-162 -418q-164 -164 -415 -164 q-68 0 -154 17l51 170q37 -8 56.5 -9t46.5 -1q176 0 289 114q119 119 118 291q0 174 -118 293q-111 117 -289 117q-180 0 -299 -113q-31 -31 -52.5 -65.5t-50.5 -106.5q-51 66 -71.5 88.5t-57.5 67.5zM3785 1640q0 180 125 306q127 127 309 127t303 -127q51 -51 88 -136 l-160 -69q-14 39 -25.5 55t-25.5 31q-72 74 -184 74q-117 0 -187.5 -72t-70.5 -189q0 -55 20.5 -103t58 -84t86 -56.5t103.5 -20.5q10 0 31.5 -1t52.5 5l20 -163q-43 -8 -67.5 -10.5t-46.5 -2.5q-180 0 -307 127q-123 123 -123 309z" />
<glyph unicode="&#x102b;" horiz-adv-x="1798" d="M20 567q0 25 17.5 42.5t44.5 17.5q25 0 43 -17.5t18 -42.5q0 -27 -18.5 -45t-42.5 -18q-27 0 -44.5 18.5t-17.5 44.5zM59 354q0 29 19.5 46.5t42.5 17.5q29 0 47 -17.5t18 -46.5q0 -23 -18 -43t-47 -20q-23 0 -42.5 20.5t-19.5 42.5zM59 768q0 23 19.5 43t42.5 20 q29 0 47 -20t18 -43q0 -27 -18 -45t-47 -18q-23 0 -42.5 18t-19.5 45zM178 199q0 29 17.5 46t44.5 17q25 0 43 -17.5t18 -45.5q0 -23 -18.5 -41.5t-42.5 -18.5q-27 0 -44.5 18.5t-17.5 41.5zM178 924q0 23 17.5 41t44.5 18q25 0 43 -18.5t18 -40.5q0 -29 -18 -46.5 t-43 -17.5q-27 0 -44.5 17.5t-17.5 46.5zM334 96q0 29 17 46.5t40 17.5q29 0 47.5 -17.5t18.5 -46.5q0 -23 -18.5 -43t-47.5 -20q-23 0 -40 20.5t-17 42.5zM334 1026q0 23 17.5 43.5t39.5 20.5q29 0 47.5 -20.5t18.5 -43.5q0 -29 -18.5 -46t-47.5 -17q-23 0 -40 17t-17 46z M530 61q0 25 17.5 42.5t44.5 17.5q25 0 43 -17.5t18 -42.5q0 -27 -18.5 -45t-42.5 -18q-27 0 -44.5 18.5t-17.5 44.5zM530 1057q0 29 17.5 46t44.5 17q25 0 43 -17.5t18 -45.5q0 -23 -18.5 -41.5t-42.5 -18.5q-27 0 -44.5 18.5t-17.5 41.5zM709 96q0 29 18 46.5t47 17.5 q23 0 40 -17.5t17 -46.5q0 -23 -17 -43t-40 -20q-29 0 -47 20.5t-18 42.5zM709 1026q0 23 18 43.5t47 20.5q23 0 40 -20.5t17 -43.5q0 -29 -17 -46t-40 -17q-29 0 -47 17t-18 46zM733 1642q6 102 37 172t90 130q127 127 309 127t304 -127q115 -117 120 -291v-1673h-174v1662 q-2 106 -69 183q-72 74 -185 73q-117 0 -186 -71q-61 -66 -76 -185h-170zM864 199q0 29 18.5 46t43.5 17q27 0 44 -17.5t17 -45.5q0 -23 -17.5 -41.5t-43.5 -18.5q-25 0 -43.5 18.5t-18.5 41.5zM864 924q0 23 18.5 41t43.5 18q27 0 44 -18.5t17 -40.5q0 -29 -17 -46.5 t-44 -17.5q-25 0 -43.5 17.5t-18.5 46.5zM979 354q0 29 18 46.5t47 17.5q23 0 42.5 -17.5t19.5 -46.5q0 -23 -19.5 -43t-42.5 -20q-29 0 -47 20.5t-18 42.5zM979 768q0 23 18.5 43t46.5 20q23 0 42.5 -20t19.5 -43q0 -27 -19.5 -45t-42.5 -18q-29 0 -47 18t-18 45zM1022 567 q0 25 18 42.5t43 17.5q27 0 44.5 -17.5t17.5 -42.5q0 -27 -17.5 -45t-44.5 -18q-25 0 -43 18.5t-18 44.5z" />
<glyph unicode="&#x102c;" horiz-adv-x="2557" d="M20 567q0 25 17.5 42.5t44.5 17.5q25 0 43 -17.5t18 -42.5q0 -27 -18.5 -45t-42.5 -18q-27 0 -44.5 18.5t-17.5 44.5zM59 354q0 29 19.5 46.5t42.5 17.5q29 0 47 -17.5t18 -46.5q0 -23 -18 -43t-47 -20q-23 0 -42.5 20.5t-19.5 42.5zM59 768q0 23 19.5 43t42.5 20 q29 0 47 -20t18 -43q0 -27 -18 -45t-47 -18q-23 0 -42.5 18t-19.5 45zM178 199q0 29 17.5 46t44.5 17q25 0 43 -17.5t18 -45.5q0 -23 -18.5 -41.5t-42.5 -18.5q-27 0 -44.5 18.5t-17.5 41.5zM178 924q0 23 17.5 41t44.5 18q25 0 43 -18.5t18 -40.5q0 -29 -18 -46.5 t-43 -17.5q-27 0 -44.5 17.5t-17.5 46.5zM334 96q0 29 17 46.5t40 17.5q29 0 47.5 -17.5t18.5 -46.5q0 -23 -18.5 -43t-47.5 -20q-23 0 -40 20.5t-17 42.5zM334 1026q0 23 17.5 43.5t39.5 20.5q29 0 47.5 -20.5t18.5 -43.5q0 -29 -18.5 -46t-47.5 -17q-23 0 -40 17t-17 46z M530 61q0 25 17.5 42.5t44.5 17.5q25 0 43 -17.5t18 -42.5q0 -27 -18.5 -45t-42.5 -18q-27 0 -44.5 18.5t-17.5 44.5zM530 1057q0 29 17.5 46t44.5 17q25 0 43 -17.5t18 -45.5q0 -23 -18.5 -41.5t-42.5 -18.5q-27 0 -44.5 18.5t-17.5 41.5zM709 96q0 29 18 46.5t47 17.5 q23 0 40 -17.5t17 -46.5q0 -23 -17 -43t-40 -20q-29 0 -47 20.5t-18 42.5zM709 1026q0 23 18 43.5t47 20.5q23 0 40 -20.5t17 -43.5q0 -29 -17 -46t-40 -17q-29 0 -47 17t-18 46zM864 199q0 29 18.5 46t43.5 17q27 0 44 -17.5t17 -45.5q0 -23 -17.5 -41.5t-43.5 -18.5 q-25 0 -43.5 18.5t-18.5 41.5zM864 924q0 23 18.5 41t43.5 18q27 0 44 -18.5t17 -40.5q0 -29 -17 -46.5t-44 -17.5q-25 0 -43.5 17.5t-18.5 46.5zM979 354q0 29 18 46.5t47 17.5q23 0 42.5 -17.5t19.5 -46.5q0 -23 -19.5 -43t-42.5 -20q-29 0 -47 20.5t-18 42.5zM979 768 q0 23 18.5 43t46.5 20q23 0 42.5 -20t19.5 -43q0 -27 -19.5 -45t-42.5 -18q-29 0 -47 18t-18 45zM1022 567q0 25 18 42.5t43 17.5q27 0 44.5 -17.5t17.5 -42.5q0 -27 -17.5 -45t-44.5 -18q-25 0 -43 18.5t-18 44.5zM1245 840q27 47 51.5 79.5t53.5 63.5q162 162 426 162 q250 0 413 -166q164 -164 164 -420t-162 -418q-164 -164 -415 -164q-68 0 -154 17l51 170q37 -8 56.5 -9t46.5 -1q176 0 288 114q119 119 119 291q0 174 -119 293q-111 117 -288 117q-180 0 -299 -113q-31 -31 -52.5 -65.5t-50.5 -106.5q-51 66 -71.5 88.5t-57.5 67.5z" />
<glyph unicode="&#x102d;" horiz-adv-x="1349" d="M20 567q0 25 17.5 42.5t44.5 17.5q25 0 43 -17.5t18 -42.5q0 -27 -18.5 -45t-42.5 -18q-27 0 -44.5 18.5t-17.5 44.5zM59 354q0 29 19.5 46.5t42.5 17.5q29 0 47 -17.5t18 -46.5q0 -23 -18 -43t-47 -20q-23 0 -42.5 20.5t-19.5 42.5zM59 768q0 23 19.5 43t42.5 20 q29 0 47 -20t18 -43q0 -27 -18 -45t-47 -18q-23 0 -42.5 18t-19.5 45zM174 1638q0 180 125 306q127 127 309 127t303 -127q121 -125 121 -306q0 -176 -125 -307q-127 -129 -303 -129q-180 0 -307 127q-123 123 -123 309zM178 199q0 29 17.5 46t44.5 17q25 0 43 -17.5 t18 -45.5q0 -23 -18.5 -41.5t-42.5 -18.5q-27 0 -44.5 18.5t-17.5 41.5zM178 924q0 23 17.5 41t44.5 18q25 0 43 -18.5t18 -40.5q0 -29 -18 -46.5t-43 -17.5q-27 0 -44.5 17.5t-17.5 46.5zM334 96q0 29 17 46.5t40 17.5q29 0 47.5 -17.5t18.5 -46.5q0 -23 -18.5 -43 t-47.5 -20q-23 0 -40 20.5t-17 42.5zM334 1026q0 23 17.5 43.5t39.5 20.5q29 0 47.5 -20.5t18.5 -43.5q0 -29 -18.5 -46t-47.5 -17q-23 0 -40 17t-17 46zM346 1638q0 -55 19.5 -103t52.5 -83t79 -54.5t101 -19.5q115 0 185.5 72t74.5 188q0 115 -69.5 187.5t-184.5 72.5 q-117 0 -187.5 -71.5t-70.5 -188.5zM530 61q0 25 17.5 42.5t44.5 17.5q25 0 43 -17.5t18 -42.5q0 -27 -18.5 -45t-42.5 -18q-27 0 -44.5 18.5t-17.5 44.5zM530 1057q0 29 17.5 46t44.5 17q25 0 43 -17.5t18 -45.5q0 -23 -18.5 -41.5t-42.5 -18.5q-27 0 -44.5 18.5 t-17.5 41.5zM709 96q0 29 18 46.5t47 17.5q23 0 40 -17.5t17 -46.5q0 -23 -17 -43t-40 -20q-29 0 -47 20.5t-18 42.5zM709 1026q0 23 18 43.5t47 20.5q23 0 40 -20.5t17 -43.5q0 -29 -17 -46t-40 -17q-29 0 -47 17t-18 46zM864 199q0 29 18.5 46t43.5 17q27 0 44 -17.5 t17 -45.5q0 -23 -17.5 -41.5t-43.5 -18.5q-25 0 -43.5 18.5t-18.5 41.5zM864 924q0 23 18.5 41t43.5 18q27 0 44 -18.5t17 -40.5q0 -29 -17 -46.5t-44 -17.5q-25 0 -43.5 17.5t-18.5 46.5zM979 354q0 29 18 46.5t47 17.5q23 0 42.5 -17.5t19.5 -46.5q0 -23 -19.5 -43 t-42.5 -20q-29 0 -47 20.5t-18 42.5zM979 768q0 23 18.5 43t46.5 20q23 0 42.5 -20t19.5 -43q0 -27 -19.5 -45t-42.5 -18q-29 0 -47 18t-18 45zM1022 567q0 25 18 42.5t43 17.5q27 0 44.5 -17.5t17.5 -42.5q0 -27 -17.5 -45t-44.5 -18q-25 0 -43 18.5t-18 44.5z" />
<glyph unicode="&#x102e;" horiz-adv-x="1349" d="M20 567q0 25 17.5 42.5t44.5 17.5q25 0 43 -17.5t18 -42.5q0 -27 -18.5 -45t-42.5 -18q-27 0 -44.5 18.5t-17.5 44.5zM59 354q0 29 19.5 46.5t42.5 17.5q29 0 47 -17.5t18 -46.5q0 -23 -18 -43t-47 -20q-23 0 -42.5 20.5t-19.5 42.5zM59 768q0 23 19.5 43t42.5 20 q29 0 47 -20t18 -43q0 -27 -18 -45t-47 -18q-23 0 -42.5 18t-19.5 45zM178 199q0 29 17.5 46t44.5 17q25 0 43 -17.5t18 -45.5q0 -23 -18.5 -41.5t-42.5 -18.5q-27 0 -44.5 18.5t-17.5 41.5zM178 924q0 23 17.5 41t44.5 18q25 0 43 -18.5t18 -40.5q0 -29 -18 -46.5 t-43 -17.5q-27 0 -44.5 17.5t-17.5 46.5zM178 1647q0 180 123 303t305 123q178 0 301 -123q119 -125 119 -303q0 -172 -125 -304q-121 -126 -299 -126t-301 124q-123 123 -123 306zM334 96q0 29 17 46.5t40 17.5q29 0 47.5 -17.5t18.5 -46.5q0 -23 -18.5 -43t-47.5 -20 q-23 0 -40 20.5t-17 42.5zM334 1026q0 23 17.5 43.5t39.5 20.5q29 0 47.5 -20.5t18.5 -43.5q0 -29 -18.5 -46t-47.5 -17q-23 0 -40 17t-17 46zM346 1647q0 -49 16 -91q27 37 92.5 79t137.5 42q78 0 147.5 -45t96.5 -84q14 45 18 97q0 57 -18.5 105t-51 82t-79 52.5 t-103.5 18.5q-115 0 -185.5 -71t-70.5 -185zM494 1415q47 -18 102 -18q49 0 102 18q-4 27 -33.5 56.5t-68.5 29.5q-37 0 -66.5 -29.5t-35.5 -56.5zM530 61q0 25 17.5 42.5t44.5 17.5q25 0 43 -17.5t18 -42.5q0 -27 -18.5 -45t-42.5 -18q-27 0 -44.5 18.5t-17.5 44.5z M530 1057q0 29 17.5 46t44.5 17q25 0 43 -17.5t18 -45.5q0 -23 -18.5 -41.5t-42.5 -18.5q-27 0 -44.5 18.5t-17.5 41.5zM709 96q0 29 18 46.5t47 17.5q23 0 40 -17.5t17 -46.5q0 -23 -17 -43t-40 -20q-29 0 -47 20.5t-18 42.5zM709 1026q0 23 18 43.5t47 20.5q23 0 40 -20.5 t17 -43.5q0 -29 -17 -46t-40 -17q-29 0 -47 17t-18 46zM864 199q0 29 18.5 46t43.5 17q27 0 44 -17.5t17 -45.5q0 -23 -17.5 -41.5t-43.5 -18.5q-25 0 -43.5 18.5t-18.5 41.5zM864 924q0 23 18.5 41t43.5 18q27 0 44 -18.5t17 -40.5q0 -29 -17 -46.5t-44 -17.5 q-25 0 -43.5 17.5t-18.5 46.5zM979 354q0 29 18 46.5t47 17.5q23 0 42.5 -17.5t19.5 -46.5q0 -23 -19.5 -43t-42.5 -20q-29 0 -47 20.5t-18 42.5zM979 768q0 23 18.5 43t46.5 20q23 0 42.5 -20t19.5 -43q0 -27 -19.5 -45t-42.5 -18q-29 0 -47 18t-18 45zM1022 567 q0 25 18 42.5t43 17.5q27 0 44.5 -17.5t17.5 -42.5q0 -27 -17.5 -45t-44.5 -18q-25 0 -43 18.5t-18 44.5z" />
<glyph unicode="&#x102f;" horiz-adv-x="1349" d="M20 567q0 25 17.5 42.5t44.5 17.5q25 0 43 -17.5t18 -42.5q0 -27 -18.5 -45t-42.5 -18q-27 0 -44.5 18.5t-17.5 44.5zM59 354q0 29 19.5 46.5t42.5 17.5q29 0 47 -17.5t18 -46.5q0 -23 -18 -43t-47 -20q-23 0 -42.5 20.5t-19.5 42.5zM59 768q0 23 19.5 43t42.5 20 q29 0 47 -20t18 -43q0 -27 -18 -45t-47 -18q-23 0 -42.5 18t-19.5 45zM178 199q0 29 17.5 46t44.5 17q25 0 43 -17.5t18 -45.5q0 -23 -18.5 -41.5t-42.5 -18.5q-27 0 -44.5 18.5t-17.5 41.5zM178 924q0 23 17.5 41t44.5 18q25 0 43 -18.5t18 -40.5q0 -29 -18 -46.5 t-43 -17.5q-27 0 -44.5 17.5t-17.5 46.5zM334 96q0 29 17 46.5t40 17.5q29 0 47.5 -17.5t18.5 -46.5q0 -23 -18.5 -43t-47.5 -20q-23 0 -40 20.5t-17 42.5zM334 1026q0 23 17.5 43.5t39.5 20.5q29 0 47.5 -20.5t18.5 -43.5q0 -29 -18.5 -46t-47.5 -17q-23 0 -40 17t-17 46z M516 47h170v-704h252v-177q-90 0 -148.5 -1t-132.5 -1q-135 33 -139 129q0 193 -1 367t-1 387zM530 61q0 25 17.5 42.5t44.5 17.5q25 0 43 -17.5t18 -42.5q0 -27 -18.5 -45t-42.5 -18q-27 0 -44.5 18.5t-17.5 44.5zM530 1057q0 29 17.5 46t44.5 17q25 0 43 -17.5t18 -45.5 q0 -23 -18.5 -41.5t-42.5 -18.5q-27 0 -44.5 18.5t-17.5 41.5zM709 96q0 29 18 46.5t47 17.5q23 0 40 -17.5t17 -46.5q0 -23 -17 -43t-40 -20q-29 0 -47 20.5t-18 42.5zM709 1026q0 23 18 43.5t47 20.5q23 0 40 -20.5t17 -43.5q0 -29 -17 -46t-40 -17q-29 0 -47 17t-18 46z M864 199q0 29 18.5 46t43.5 17q27 0 44 -17.5t17 -45.5q0 -23 -17.5 -41.5t-43.5 -18.5q-25 0 -43.5 18.5t-18.5 41.5zM864 924q0 23 18.5 41t43.5 18q27 0 44 -18.5t17 -40.5q0 -29 -17 -46.5t-44 -17.5q-25 0 -43.5 17.5t-18.5 46.5zM979 354q0 29 18 46.5t47 17.5 q23 0 42.5 -17.5t19.5 -46.5q0 -23 -19.5 -43t-42.5 -20q-29 0 -47 20.5t-18 42.5zM979 768q0 23 18.5 43t46.5 20q23 0 42.5 -20t19.5 -43q0 -27 -19.5 -45t-42.5 -18q-29 0 -47 18t-18 45zM1022 567q0 25 18 42.5t43 17.5q27 0 44.5 -17.5t17.5 -42.5q0 -27 -17.5 -45 t-44.5 -18q-25 0 -43 18.5t-18 44.5z" />
<glyph unicode="&#x1030;" horiz-adv-x="1349" d="M20 567q0 25 17.5 42.5t44.5 17.5q25 0 43 -17.5t18 -42.5q0 -27 -18.5 -45t-42.5 -18q-27 0 -44.5 18.5t-17.5 44.5zM59 354q0 29 19.5 46.5t42.5 17.5q29 0 47 -17.5t18 -46.5q0 -23 -18 -43t-47 -20q-23 0 -42.5 20.5t-19.5 42.5zM59 768q0 23 19.5 43t42.5 20 q29 0 47 -20t18 -43q0 -27 -18 -45t-47 -18q-23 0 -42.5 18t-19.5 45zM178 199q0 29 17.5 46t44.5 17q25 0 43 -17.5t18 -45.5q0 -23 -18.5 -41.5t-42.5 -18.5q-27 0 -44.5 18.5t-17.5 41.5zM178 924q0 23 17.5 41t44.5 18q25 0 43 -18.5t18 -40.5q0 -29 -18 -46.5 t-43 -17.5q-27 0 -44.5 17.5t-17.5 46.5zM334 96q0 29 17 46.5t40 17.5q29 0 47.5 -17.5t18.5 -46.5q0 -23 -18.5 -43t-47.5 -20q-23 0 -40 20.5t-17 42.5zM334 1026q0 23 17.5 43.5t39.5 20.5q29 0 47.5 -20.5t18.5 -43.5q0 -29 -18.5 -46t-47.5 -17q-23 0 -40 17t-17 46z M379 49h172v-883h-170zM530 61q0 25 17.5 42.5t44.5 17.5q25 0 43 -17.5t18 -42.5q0 -27 -18.5 -45t-42.5 -18q-27 0 -44.5 18.5t-17.5 44.5zM530 1057q0 29 17.5 46t44.5 17q25 0 43 -17.5t18 -45.5q0 -23 -18.5 -41.5t-42.5 -18.5q-27 0 -44.5 18.5t-17.5 41.5zM655 49 h174v-704h254v-179q-92 0 -151.5 -1t-130.5 -1q-139 33 -144 131zM709 96q0 29 18 46.5t47 17.5q23 0 40 -17.5t17 -46.5q0 -23 -17 -43t-40 -20q-29 0 -47 20.5t-18 42.5zM709 1026q0 23 18 43.5t47 20.5q23 0 40 -20.5t17 -43.5q0 -29 -17 -46t-40 -17q-29 0 -47 17 t-18 46zM864 199q0 29 18.5 46t43.5 17q27 0 44 -17.5t17 -45.5q0 -23 -17.5 -41.5t-43.5 -18.5q-25 0 -43.5 18.5t-18.5 41.5zM864 924q0 23 18.5 41t43.5 18q27 0 44 -18.5t17 -40.5q0 -29 -17 -46.5t-44 -17.5q-25 0 -43.5 17.5t-18.5 46.5zM979 354q0 29 18 46.5 t47 17.5q23 0 42.5 -17.5t19.5 -46.5q0 -23 -19.5 -43t-42.5 -20q-29 0 -47 20.5t-18 42.5zM979 768q0 23 18.5 43t46.5 20q23 0 42.5 -20t19.5 -43q0 -27 -19.5 -45t-42.5 -18q-29 0 -47 18t-18 45zM1022 567q0 25 18 42.5t43 17.5q27 0 44.5 -17.5t17.5 -42.5 q0 -27 -17.5 -45t-44.5 -18q-25 0 -43 18.5t-18 44.5z" />
<glyph unicode="&#x1031;" horiz-adv-x="2578" d="M6 520v21q0 463 471 721q234 108 412 108l49 -53v-29q0 -12 -205 -33q-248 -70 -397 -282q-57 -111 -98 -264h24q193 115 412 114q283 0 389 -223q25 -74 24 -154v-34q0 -301 -362 -398q-84 -14 -150 -14h-90q-319 0 -446 291q-33 106 -33 229zM229 465q0 -391 330 -391 q223 0 297 202q16 94 16 142q0 258 -231 305h-106q-297 -45 -297 -162q-9 -23 -9 -82v-14zM1249 567q0 25 17.5 42.5t44.5 17.5q25 0 43 -17.5t18 -42.5q0 -27 -18.5 -45t-42.5 -18q-27 0 -44.5 18.5t-17.5 44.5zM1288 354q0 29 19.5 46.5t42.5 17.5q29 0 47 -17.5t18 -46.5 q0 -23 -18.5 -43t-46.5 -20q-23 0 -42.5 20.5t-19.5 42.5zM1288 768q0 23 19.5 43t42.5 20q29 0 47 -20t18 -43q0 -27 -18 -45t-47 -18q-23 0 -42.5 18t-19.5 45zM1407 199q0 29 17 46t44 17q25 0 43.5 -17.5t18.5 -45.5q0 -23 -18.5 -41.5t-43.5 -18.5q-27 0 -44 18.5 t-17 41.5zM1427 903q0 23 17.5 41.5t44.5 18.5q25 0 43 -18.5t18 -41.5q0 -29 -18 -46t-43 -17q-27 0 -44.5 17t-17.5 46zM1563 96q0 29 17 46.5t40 17.5q29 0 47.5 -17.5t18.5 -46.5q0 -23 -18.5 -43t-47.5 -20q-23 0 -40 20.5t-17 42.5zM1563 1026q0 23 17 43.5t40 20.5 q29 0 47.5 -20.5t18.5 -43.5q0 -29 -18.5 -46t-47.5 -17q-23 0 -40 17t-17 46zM1759 61q0 25 17.5 42.5t44.5 17.5q25 0 43 -17.5t18 -42.5q0 -27 -18.5 -45t-42.5 -18q-27 0 -44.5 18.5t-17.5 44.5zM1759 1057q0 29 17.5 46t44.5 17q25 0 43 -17.5t18 -45.5 q0 -23 -18.5 -41.5t-42.5 -18.5q-27 0 -44.5 18.5t-17.5 41.5zM1937 96q0 29 18.5 46.5t47.5 17.5q23 0 40 -17.5t17 -46.5q0 -23 -17.5 -43t-39.5 -20q-29 0 -47.5 20.5t-18.5 42.5zM1937 1026q0 23 18.5 43.5t47.5 20.5q23 0 40 -20.5t17 -43.5q0 -29 -17 -46t-40 -17 q-29 0 -47.5 17t-18.5 46zM2093 199q0 29 18 46t43 17q27 0 44.5 -17.5t17.5 -45.5q0 -23 -17.5 -41.5t-44.5 -18.5q-25 0 -43 18.5t-18 41.5zM2093 924q0 23 18.5 41t42.5 18q27 0 44.5 -18.5t17.5 -40.5q0 -29 -17.5 -46.5t-44.5 -17.5q-25 0 -43 17.5t-18 46.5zM2208 354 q0 29 18 46.5t47 17.5q23 0 42.5 -17.5t19.5 -46.5q0 -23 -19.5 -43t-42.5 -20q-29 0 -47 20.5t-18 42.5zM2208 768q0 23 18.5 43t46.5 20q23 0 42.5 -20t19.5 -43q0 -27 -19.5 -45t-42.5 -18q-29 0 -47 18t-18 45zM2251 567q0 25 18 42.5t43 17.5q27 0 44.5 -17.5 t17.5 -42.5q0 -27 -17.5 -45t-44.5 -18q-25 0 -43 18.5t-18 44.5z" />
<glyph unicode="&#x1032;" horiz-adv-x="1349" d="M20 567q0 25 17.5 42.5t44.5 17.5q25 0 43 -17.5t18 -42.5q0 -27 -18.5 -45t-42.5 -18q-27 0 -44.5 18.5t-17.5 44.5zM59 354q0 29 19.5 46.5t42.5 17.5q29 0 47 -17.5t18 -46.5q0 -23 -18 -43t-47 -20q-23 0 -42.5 20.5t-19.5 42.5zM59 768q0 23 19.5 43t42.5 20 q29 0 47 -20t18 -43q0 -27 -18 -45t-47 -18q-23 0 -42.5 18t-19.5 45zM76 1886l86 187q205 -264 412.5 -446.5t476.5 -293.5l-21 -131q-289 117 -517 284t-437 400zM178 199q0 29 17.5 46t44.5 17q25 0 43 -17.5t18 -45.5q0 -23 -18.5 -41.5t-42.5 -18.5q-27 0 -44.5 18.5 t-17.5 41.5zM178 924q0 23 17.5 41t44.5 18q25 0 43 -18.5t18 -40.5q0 -29 -18 -46.5t-43 -17.5q-27 0 -44.5 17.5t-17.5 46.5zM334 96q0 29 17 46.5t40 17.5q29 0 47.5 -17.5t18.5 -46.5q0 -23 -18.5 -43t-47.5 -20q-23 0 -40 20.5t-17 42.5zM334 1026q0 23 17.5 43.5 t39.5 20.5q29 0 47.5 -20.5t18.5 -43.5q0 -29 -18.5 -46t-47.5 -17q-23 0 -40 17t-17 46zM530 61q0 25 17.5 42.5t44.5 17.5q25 0 43 -17.5t18 -42.5q0 -27 -18.5 -45t-42.5 -18q-27 0 -44.5 18.5t-17.5 44.5zM530 1057q0 29 17.5 46t44.5 17q25 0 43 -17.5t18 -45.5 q0 -23 -18.5 -41.5t-42.5 -18.5q-27 0 -44.5 18.5t-17.5 41.5zM709 96q0 29 18 46.5t47 17.5q23 0 40 -17.5t17 -46.5q0 -23 -17 -43t-40 -20q-29 0 -47 20.5t-18 42.5zM709 1026q0 23 18 43.5t47 20.5q23 0 40 -20.5t17 -43.5q0 -29 -17 -46t-40 -17q-29 0 -47 17t-18 46z M864 199q0 29 18.5 46t43.5 17q27 0 44 -17.5t17 -45.5q0 -23 -17.5 -41.5t-43.5 -18.5q-25 0 -43.5 18.5t-18.5 41.5zM864 924q0 23 18.5 41t43.5 18q27 0 44 -18.5t17 -40.5q0 -29 -17 -46.5t-44 -17.5q-25 0 -43.5 17.5t-18.5 46.5zM979 354q0 29 18 46.5t47 17.5 q23 0 42.5 -17.5t19.5 -46.5q0 -23 -19.5 -43t-42.5 -20q-29 0 -47 20.5t-18 42.5zM979 768q0 23 18.5 43t46.5 20q23 0 42.5 -20t19.5 -43q0 -27 -19.5 -45t-42.5 -18q-29 0 -47 18t-18 45zM1022 567q0 25 18 42.5t43 17.5q27 0 44.5 -17.5t17.5 -42.5q0 -27 -17.5 -45 t-44.5 -18q-25 0 -43 18.5t-18 44.5z" />
<glyph unicode="&#x1033;" horiz-adv-x="1349" d="M20 567q0 25 17.5 42.5t44.5 17.5q25 0 43 -17.5t18 -42.5q0 -27 -18.5 -45t-42.5 -18q-27 0 -44.5 18.5t-17.5 44.5zM59 354q0 29 19.5 46.5t42.5 17.5q29 0 47 -17.5t18 -46.5q0 -23 -18 -43t-47 -20q-23 0 -42.5 20.5t-19.5 42.5zM59 768q0 23 19.5 43t42.5 20 q29 0 47 -20t18 -43q0 -27 -18 -45t-47 -18q-23 0 -42.5 18t-19.5 45zM174 1640q0 180 125 306q127 127 309 127t303 -127q121 -125 121 -306q0 -176 -125 -307q-127 -129 -303 -129q-180 0 -307 127q-123 123 -123 309zM178 199q0 29 17.5 46t44.5 17q25 0 43 -17.5 t18 -45.5q0 -23 -18.5 -41.5t-42.5 -18.5q-27 0 -44.5 18.5t-17.5 41.5zM178 924q0 23 17.5 41t44.5 18q25 0 43 -18.5t18 -40.5q0 -29 -18 -46.5t-43 -17.5q-27 0 -44.5 17.5t-17.5 46.5zM334 96q0 29 17 46.5t40 17.5q29 0 47.5 -17.5t18.5 -46.5q0 -23 -18.5 -43 t-47.5 -20q-23 0 -40 20.5t-17 42.5zM334 1026q0 23 17.5 43.5t39.5 20.5q29 0 47.5 -20.5t18.5 -43.5q0 -29 -18.5 -46t-47.5 -17q-23 0 -40 17t-17 46zM346 1640q0 -55 19.5 -103t52.5 -83t79 -54.5t101 -19.5q115 0 185.5 72t74.5 188q0 115 -69.5 188t-184.5 73 q-117 0 -187.5 -72t-70.5 -189zM422 1638q0 72 51 123t125 51t124 -51t50 -123q0 -74 -50 -125t-124 -51t-125 51t-51 125zM530 61q0 25 17.5 42.5t44.5 17.5q25 0 43 -17.5t18 -42.5q0 -27 -18.5 -45t-42.5 -18q-27 0 -44.5 18.5t-17.5 44.5zM530 1057q0 29 17.5 46 t44.5 17q25 0 43 -17.5t18 -45.5q0 -23 -18.5 -41.5t-42.5 -18.5q-27 0 -44.5 18.5t-17.5 41.5zM532 1640q0 -27 19.5 -46t46.5 -19t47.5 19.5t20.5 45.5q0 27 -20.5 46.5t-47.5 19.5t-46.5 -19.5t-19.5 -46.5zM709 96q0 29 18 46.5t47 17.5q23 0 40 -17.5t17 -46.5 q0 -23 -17 -43t-40 -20q-29 0 -47 20.5t-18 42.5zM709 1026q0 23 18 43.5t47 20.5q23 0 40 -20.5t17 -43.5q0 -29 -17 -46t-40 -17q-29 0 -47 17t-18 46zM864 199q0 29 18.5 46t43.5 17q27 0 44 -17.5t17 -45.5q0 -23 -17.5 -41.5t-43.5 -18.5q-25 0 -43.5 18.5t-18.5 41.5z M864 924q0 23 18.5 41t43.5 18q27 0 44 -18.5t17 -40.5q0 -29 -17 -46.5t-44 -17.5q-25 0 -43.5 17.5t-18.5 46.5zM979 354q0 29 18 46.5t47 17.5q23 0 42.5 -17.5t19.5 -46.5q0 -23 -19.5 -43t-42.5 -20q-29 0 -47 20.5t-18 42.5zM979 768q0 23 18.5 43t46.5 20 q23 0 42.5 -20t19.5 -43q0 -27 -19.5 -45t-42.5 -18q-29 0 -47 18t-18 45zM1022 567q0 25 18 42.5t43 17.5q27 0 44.5 -17.5t17.5 -42.5q0 -27 -17.5 -45t-44.5 -18q-25 0 -43 18.5t-18 44.5z" />
<glyph unicode="&#x1034;" horiz-adv-x="1349" d="M20 567q0 25 17.5 42.5t44.5 17.5q25 0 43 -17.5t18 -42.5q0 -27 -18.5 -45t-42.5 -18q-27 0 -44.5 18.5t-17.5 44.5zM59 354q0 29 19.5 46.5t42.5 17.5q29 0 47 -17.5t18 -46.5q0 -23 -18 -43t-47 -20q-23 0 -42.5 20.5t-19.5 42.5zM59 768q0 23 19.5 43t42.5 20 q29 0 47 -20t18 -43q0 -27 -18 -45t-47 -18q-23 0 -42.5 18t-19.5 45zM78 1335q268 111 476 293t413 447l86 -187q-209 -233 -437.5 -400t-517.5 -284zM178 199q0 29 17.5 46t44.5 17q25 0 43 -17.5t18 -45.5q0 -23 -18.5 -41.5t-42.5 -18.5q-27 0 -44.5 18.5t-17.5 41.5z M178 924q0 23 17.5 41t44.5 18q25 0 43 -18.5t18 -40.5q0 -29 -18 -46.5t-43 -17.5q-27 0 -44.5 17.5t-17.5 46.5zM334 96q0 29 17 46.5t40 17.5q29 0 47.5 -17.5t18.5 -46.5q0 -23 -18.5 -43t-47.5 -20q-23 0 -40 20.5t-17 42.5zM334 1026q0 23 17.5 43.5t39.5 20.5 q29 0 47.5 -20.5t18.5 -43.5q0 -29 -18.5 -46t-47.5 -17q-23 0 -40 17t-17 46zM530 61q0 25 17.5 42.5t44.5 17.5q25 0 43 -17.5t18 -42.5q0 -27 -18.5 -45t-42.5 -18q-27 0 -44.5 18.5t-17.5 44.5zM530 1057q0 29 17.5 46t44.5 17q25 0 43 -17.5t18 -45.5 q0 -23 -18.5 -41.5t-42.5 -18.5q-27 0 -44.5 18.5t-17.5 41.5zM709 96q0 29 18 46.5t47 17.5q23 0 40 -17.5t17 -46.5q0 -23 -17 -43t-40 -20q-29 0 -47 20.5t-18 42.5zM709 1026q0 23 18 43.5t47 20.5q23 0 40 -20.5t17 -43.5q0 -29 -17 -46t-40 -17q-29 0 -47 17t-18 46z M864 199q0 29 18.5 46t43.5 17q27 0 44 -17.5t17 -45.5q0 -23 -17.5 -41.5t-43.5 -18.5q-25 0 -43.5 18.5t-18.5 41.5zM864 924q0 23 18.5 41t43.5 18q27 0 44 -18.5t17 -40.5q0 -29 -17 -46.5t-44 -17.5q-25 0 -43.5 17.5t-18.5 46.5zM979 354q0 29 18 46.5t47 17.5 q23 0 42.5 -17.5t19.5 -46.5q0 -23 -19.5 -43t-42.5 -20q-29 0 -47 20.5t-18 42.5zM979 768q0 23 18.5 43t46.5 20q23 0 42.5 -20t19.5 -43q0 -27 -19.5 -45t-42.5 -18q-29 0 -47 18t-18 45zM1022 567q0 25 18 42.5t43 17.5q27 0 44.5 -17.5t17.5 -42.5q0 -27 -17.5 -45 t-44.5 -18q-25 0 -43 18.5t-18 44.5z" />
<glyph unicode="&#x1035;" horiz-adv-x="1349" d="M20 567q0 25 17.5 42.5t44.5 17.5q25 0 43 -17.5t18 -42.5q0 -27 -18.5 -45t-42.5 -18q-27 0 -44.5 18.5t-17.5 44.5zM59 354q0 29 19.5 46.5t42.5 17.5q29 0 47 -17.5t18 -46.5q0 -23 -18 -43t-47 -20q-23 0 -42.5 20.5t-19.5 42.5zM59 768q0 23 19.5 43t42.5 20 q29 0 47 -20t18 -43q0 -27 -18 -45t-47 -18q-23 0 -42.5 18t-19.5 45zM158 1540q0 182 125 305q123 127 309 127q180 0 303 -127q16 -14 29.5 -32.5t-65.5 -57.5t-89 -29q-72 74 -182 74q-119 0 -189.5 -71.5t-70.5 -188.5q0 -86 43 -149q6 10 27.5 38.5t39.5 45.5 q123 125 310 124q258 0 258 -133q0 -47 -31 -110v-2q-18 -37 -39 -68t-47 -53q-123 -129 -301 -129q-184 0 -307 127q-123 121 -123 309zM178 199q0 29 17.5 46t44.5 17q25 0 43 -17.5t18 -45.5q0 -23 -18.5 -41.5t-42.5 -18.5q-27 0 -44.5 18.5t-17.5 41.5zM178 924 q0 23 17.5 41t44.5 18q25 0 43 -18.5t18 -40.5q0 -29 -18 -46.5t-43 -17.5q-27 0 -44.5 17.5t-17.5 46.5zM334 96q0 29 17 46.5t40 17.5q29 0 47.5 -17.5t18.5 -46.5q0 -23 -18.5 -43t-47.5 -20q-23 0 -40 20.5t-17 42.5zM334 1026q0 23 17.5 43.5t39.5 20.5 q29 0 47.5 -20.5t18.5 -43.5q0 -29 -18.5 -46t-47.5 -17q-23 0 -40 17t-17 46zM510 1286q4 -2 31 -9t47 -7q57 0 99 21.5t81 56.5q14 14 30.5 37.5t18.5 35.5q-33 8 -74 9q-117 0 -186 -74q-31 -29 -47 -70zM530 61q0 25 17.5 42.5t44.5 17.5q25 0 43 -17.5t18 -42.5 q0 -27 -18.5 -45t-42.5 -18q-27 0 -44.5 18.5t-17.5 44.5zM530 1057q0 29 17.5 46t44.5 17q25 0 43 -17.5t18 -45.5q0 -23 -18.5 -41.5t-42.5 -18.5q-27 0 -44.5 18.5t-17.5 41.5zM709 96q0 29 18 46.5t47 17.5q23 0 40 -17.5t17 -46.5q0 -23 -17 -43t-40 -20 q-29 0 -47 20.5t-18 42.5zM709 1026q0 23 18 43.5t47 20.5q23 0 40 -20.5t17 -43.5q0 -29 -17 -46t-40 -17q-29 0 -47 17t-18 46zM864 199q0 29 18.5 46t43.5 17q27 0 44 -17.5t17 -45.5q0 -23 -17.5 -41.5t-43.5 -18.5q-25 0 -43.5 18.5t-18.5 41.5zM864 924q0 23 18.5 41 t43.5 18q27 0 44 -18.5t17 -40.5q0 -29 -17 -46.5t-44 -17.5q-25 0 -43.5 17.5t-18.5 46.5zM979 354q0 29 18 46.5t47 17.5q23 0 42.5 -17.5t19.5 -46.5q0 -23 -19.5 -43t-42.5 -20q-29 0 -47 20.5t-18 42.5zM979 768q0 23 18.5 43t46.5 20q23 0 42.5 -20t19.5 -43 q0 -27 -19.5 -45t-42.5 -18q-29 0 -47 18t-18 45zM1022 567q0 25 18 42.5t43 17.5q27 0 44.5 -17.5t17.5 -42.5q0 -27 -17.5 -45t-44.5 -18q-25 0 -43 18.5t-18 44.5z" />
<glyph unicode="&#x1036;" horiz-adv-x="1349" d="M20 567q0 25 17.5 42.5t44.5 17.5q25 0 43 -17.5t18 -42.5q0 -27 -18.5 -45t-42.5 -18q-27 0 -44.5 18.5t-17.5 44.5zM59 354q0 29 19.5 46.5t42.5 17.5q29 0 47 -17.5t18 -46.5q0 -23 -18 -43t-47 -20q-23 0 -42.5 20.5t-19.5 42.5zM59 768q0 23 19.5 43t42.5 20 q29 0 47 -20t18 -43q0 -27 -18 -45t-47 -18q-23 0 -42.5 18t-19.5 45zM178 199q0 29 17.5 46t44.5 17q25 0 43 -17.5t18 -45.5q0 -23 -18.5 -41.5t-42.5 -18.5q-27 0 -44.5 18.5t-17.5 41.5zM178 924q0 23 17.5 41t44.5 18q25 0 43 -18.5t18 -40.5q0 -29 -18 -46.5 t-43 -17.5q-27 0 -44.5 17.5t-17.5 46.5zM334 96q0 29 17 46.5t40 17.5q29 0 47.5 -17.5t18.5 -46.5q0 -23 -18.5 -43t-47.5 -20q-23 0 -40 20.5t-17 42.5zM334 1026q0 23 17.5 43.5t39.5 20.5q29 0 47.5 -20.5t18.5 -43.5q0 -29 -18.5 -46t-47.5 -17q-23 0 -40 17t-17 46z M377 1655q0 43 17.5 83t47 68.5t69.5 46t85 17.5q43 0 83 -17.5t68.5 -46t46 -68.5t17.5 -83q0 -45 -17.5 -85t-46 -70t-68.5 -47t-83 -17q-45 0 -85 17t-69.5 47t-47 70t-17.5 85zM516 1655q0 -33 23.5 -56.5t56.5 -23.5t58.5 23.5t25.5 56.5t-25.5 58.5t-58.5 25.5 t-56.5 -25.5t-23.5 -58.5zM530 61q0 25 17.5 42.5t44.5 17.5q25 0 43 -17.5t18 -42.5q0 -27 -18.5 -45t-42.5 -18q-27 0 -44.5 18.5t-17.5 44.5zM530 1057q0 29 17.5 46t44.5 17q25 0 43 -17.5t18 -45.5q0 -23 -18.5 -41.5t-42.5 -18.5q-27 0 -44.5 18.5t-17.5 41.5zM709 96 q0 29 18 46.5t47 17.5q23 0 40 -17.5t17 -46.5q0 -23 -17 -43t-40 -20q-29 0 -47 20.5t-18 42.5zM709 1026q0 23 18 43.5t47 20.5q23 0 40 -20.5t17 -43.5q0 -29 -17 -46t-40 -17q-29 0 -47 17t-18 46zM864 199q0 29 18.5 46t43.5 17q27 0 44 -17.5t17 -45.5 q0 -23 -17.5 -41.5t-43.5 -18.5q-25 0 -43.5 18.5t-18.5 41.5zM864 924q0 23 18.5 41t43.5 18q27 0 44 -18.5t17 -40.5q0 -29 -17 -46.5t-44 -17.5q-25 0 -43.5 17.5t-18.5 46.5zM979 354q0 29 18 46.5t47 17.5q23 0 42.5 -17.5t19.5 -46.5q0 -23 -19.5 -43t-42.5 -20 q-29 0 -47 20.5t-18 42.5zM979 768q0 23 18.5 43t46.5 20q23 0 42.5 -20t19.5 -43q0 -27 -19.5 -45t-42.5 -18q-29 0 -47 18t-18 45zM1022 567q0 25 18 42.5t43 17.5q27 0 44.5 -17.5t17.5 -42.5q0 -27 -17.5 -45t-44.5 -18q-25 0 -43 18.5t-18 44.5z" />
<glyph unicode="&#x1037;" horiz-adv-x="1349" d="M20 567q0 25 17.5 42.5t44.5 17.5q25 0 43 -17.5t18 -42.5q0 -27 -18.5 -45t-42.5 -18q-27 0 -44.5 18.5t-17.5 44.5zM59 354q0 29 19.5 46.5t42.5 17.5q29 0 47 -17.5t18 -46.5q0 -23 -18 -43t-47 -20q-23 0 -42.5 20.5t-19.5 42.5zM59 768q0 23 19.5 43t42.5 20 q29 0 47 -20t18 -43q0 -27 -18 -45t-47 -18q-23 0 -42.5 18t-19.5 45zM178 199q0 29 17.5 46t44.5 17q25 0 43 -17.5t18 -45.5q0 -23 -18.5 -41.5t-42.5 -18.5q-27 0 -44.5 18.5t-17.5 41.5zM178 924q0 23 17.5 41t44.5 18q25 0 43 -18.5t18 -40.5q0 -29 -18 -46.5 t-43 -17.5q-27 0 -44.5 17.5t-17.5 46.5zM334 96q0 29 17 46.5t40 17.5q29 0 47.5 -17.5t18.5 -46.5q0 -23 -18.5 -43t-47.5 -20q-23 0 -40 20.5t-17 42.5zM334 1026q0 23 17.5 43.5t39.5 20.5q29 0 47.5 -20.5t18.5 -43.5q0 -29 -18.5 -46t-47.5 -17q-23 0 -40 17t-17 46z M393 -385q0 43 17.5 82t46 66.5t67.5 45t84 17.5q43 0 83 -17.5t67.5 -45t45 -66.5t17.5 -82q0 -45 -17.5 -85t-45 -68.5t-67.5 -46t-83 -17.5q-45 0 -84 17.5t-67.5 46t-46 68.5t-17.5 85zM530 61q0 25 17.5 42.5t44.5 17.5q25 0 43 -17.5t18 -42.5q0 -27 -18.5 -45 t-42.5 -18q-27 0 -44.5 18.5t-17.5 44.5zM530 -385q0 -33 24 -56.5t54 -23.5q33 0 58.5 23.5t25.5 56.5t-25.5 57.5t-58.5 24.5q-31 0 -54.5 -24.5t-23.5 -57.5zM530 1057q0 29 17.5 46t44.5 17q25 0 43 -17.5t18 -45.5q0 -23 -18.5 -41.5t-42.5 -18.5q-27 0 -44.5 18.5 t-17.5 41.5zM709 96q0 29 18 46.5t47 17.5q23 0 40 -17.5t17 -46.5q0 -23 -17 -43t-40 -20q-29 0 -47 20.5t-18 42.5zM709 1026q0 23 18 43.5t47 20.5q23 0 40 -20.5t17 -43.5q0 -29 -17 -46t-40 -17q-29 0 -47 17t-18 46zM864 199q0 29 18.5 46t43.5 17q27 0 44 -17.5 t17 -45.5q0 -23 -17.5 -41.5t-43.5 -18.5q-25 0 -43.5 18.5t-18.5 41.5zM864 924q0 23 18.5 41t43.5 18q27 0 44 -18.5t17 -40.5q0 -29 -17 -46.5t-44 -17.5q-25 0 -43.5 17.5t-18.5 46.5zM979 354q0 29 18 46.5t47 17.5q23 0 42.5 -17.5t19.5 -46.5q0 -23 -19.5 -43 t-42.5 -20q-29 0 -47 20.5t-18 42.5zM979 768q0 23 18.5 43t46.5 20q23 0 42.5 -20t19.5 -43q0 -27 -19.5 -45t-42.5 -18q-29 0 -47 18t-18 45zM1022 567q0 25 18 42.5t43 17.5q27 0 44.5 -17.5t17.5 -42.5q0 -27 -17.5 -45t-44.5 -18q-25 0 -43 18.5t-18 44.5z" />
<glyph unicode="&#x1038;" horiz-adv-x="1982" d="M20 567q0 25 17.5 42.5t44.5 17.5q25 0 43 -17.5t18 -42.5q0 -27 -18.5 -45t-42.5 -18q-27 0 -44.5 18.5t-17.5 44.5zM59 354q0 29 19.5 46.5t42.5 17.5q29 0 47 -17.5t18 -46.5q0 -23 -18 -43t-47 -20q-23 0 -42.5 20.5t-19.5 42.5zM59 768q0 23 19.5 43t42.5 20 q29 0 47 -20t18 -43q0 -27 -18 -45t-47 -18q-23 0 -42.5 18t-19.5 45zM178 199q0 29 17.5 46t44.5 17q25 0 43 -17.5t18 -45.5q0 -23 -18.5 -41.5t-42.5 -18.5q-27 0 -44.5 18.5t-17.5 41.5zM178 924q0 23 17.5 41t44.5 18q25 0 43 -18.5t18 -40.5q0 -29 -18 -46.5 t-43 -17.5q-27 0 -44.5 17.5t-17.5 46.5zM334 96q0 29 17 46.5t40 17.5q29 0 47.5 -17.5t18.5 -46.5q0 -23 -18.5 -43t-47.5 -20q-23 0 -40 20.5t-17 42.5zM334 1026q0 23 17.5 43.5t39.5 20.5q29 0 47.5 -20.5t18.5 -43.5q0 -29 -18.5 -46t-47.5 -17q-23 0 -40 17t-17 46z M530 61q0 25 17.5 42.5t44.5 17.5q25 0 43 -17.5t18 -42.5q0 -27 -18.5 -45t-42.5 -18q-27 0 -44.5 18.5t-17.5 44.5zM530 1057q0 29 17.5 46t44.5 17q25 0 43 -17.5t18 -45.5q0 -23 -18.5 -41.5t-42.5 -18.5q-27 0 -44.5 18.5t-17.5 41.5zM709 96q0 29 18 46.5t47 17.5 q23 0 40 -17.5t17 -46.5q0 -23 -17 -43t-40 -20q-29 0 -47 20.5t-18 42.5zM709 1026q0 23 18 43.5t47 20.5q23 0 40 -20.5t17 -43.5q0 -29 -17 -46t-40 -17q-29 0 -47 17t-18 46zM864 199q0 29 18.5 46t43.5 17q27 0 44 -17.5t17 -45.5q0 -23 -17.5 -41.5t-43.5 -18.5 q-25 0 -43.5 18.5t-18.5 41.5zM864 924q0 23 18.5 41t43.5 18q27 0 44 -18.5t17 -40.5q0 -29 -17 -46.5t-44 -17.5q-25 0 -43.5 17.5t-18.5 46.5zM979 354q0 29 18 46.5t47 17.5q23 0 42.5 -17.5t19.5 -46.5q0 -23 -19.5 -43t-42.5 -20q-29 0 -47 20.5t-18 42.5zM979 768 q0 23 18.5 43t46.5 20q23 0 42.5 -20t19.5 -43q0 -27 -19.5 -45t-42.5 -18q-29 0 -47 18t-18 45zM1022 567q0 25 18 42.5t43 17.5q27 0 44.5 -17.5t17.5 -42.5q0 -27 -17.5 -45t-44.5 -18q-25 0 -43 18.5t-18 44.5zM1350 231q0 43 17 83t46 68t69 45t85 17q43 0 82 -17 t66.5 -45t45 -68t17.5 -83q0 -45 -17.5 -83.5t-45 -68.5t-66.5 -47.5t-82 -17.5q-45 0 -85 17.5t-69 47.5t-46 68.5t-17 83.5zM1350 877q0 90 63.5 152.5t153.5 62.5q43 0 82 -17.5t66.5 -45.5t45 -67.5t17.5 -84.5t-17.5 -84t-45 -67t-66.5 -45t-82 -17q-45 0 -85 17 t-69 45t-46 67t-17 84zM1487 231q0 -33 23.5 -55t56.5 -22t57.5 22.5t24.5 54.5q0 33 -25 58.5t-57 25.5q-33 0 -56.5 -25.5t-23.5 -58.5zM1487 877q0 -33 23.5 -54.5t56.5 -21.5t57.5 21.5t24.5 54.5q0 37 -25 59t-57 22q-33 0 -56.5 -22t-23.5 -59z" />
<glyph unicode="&#x1039;" horiz-adv-x="2545" d="M0 20v314h125v-314h-125zM0 -51h125v-314h-125v314zM0 403v314h125v-314h-125zM0 -453h125v-188h188v-125h-145q-35 0 -74 -1t-94 -1v315zM0 788v314h125v-314h-125zM0 1171v314h313v-123h-188v-191h-125zM406 -641h313v-125h-313v125zM406 1364v123h313v-123h-313z M553 567q0 25 17 42.5t44 17.5q25 0 43.5 -17.5t18.5 -42.5q0 -27 -18.5 -45t-43.5 -18q-27 0 -44 18.5t-17 44.5zM592 354q0 29 19 46.5t42 17.5q29 0 47.5 -17.5t18.5 -46.5q0 -23 -18.5 -43t-47.5 -20q-23 0 -42 20.5t-19 42.5zM592 768q0 23 19.5 43t41.5 20 q29 0 47.5 -20t18.5 -43q0 -27 -18.5 -45t-47.5 -18q-23 0 -42 18t-19 45zM711 199q0 29 17 46t44 17q25 0 43.5 -17.5t18.5 -45.5q0 -23 -18.5 -41.5t-43.5 -18.5q-27 0 -44 18.5t-17 41.5zM711 924q0 23 17 41t44 18q25 0 43.5 -18.5t18.5 -40.5q0 -29 -18.5 -46.5 t-43.5 -17.5q-27 0 -44 17.5t-17 46.5zM811 -641h313v-125h-313v125zM811 1364v123h313v-123h-313zM866 96q0 29 17.5 46.5t40.5 17.5q29 0 47 -17.5t18 -46.5q0 -23 -18.5 -43t-46.5 -20q-23 0 -40.5 20.5t-17.5 42.5zM866 1026q0 23 17.5 43.5t40.5 20.5q29 0 47 -20.5 t18 -43.5q0 -29 -18 -46t-47 -17q-23 0 -40.5 17t-17.5 46zM905 -285h189v166h108v-166h160v-106h-160v-168h-108v168h-189v106zM1063 61q0 25 17 42.5t44 17.5q25 0 43.5 -17.5t18.5 -42.5q0 -27 -18.5 -45t-43.5 -18q-27 0 -44 18.5t-17 44.5zM1063 1057q0 29 17 46t44 17 q25 0 43.5 -17.5t18.5 -45.5q0 -23 -18.5 -41.5t-43.5 -18.5q-27 0 -44 18.5t-17 41.5zM1217 -641h313v-125h-313v125zM1217 1364v123h313v-123h-313zM1241 96q0 29 18.5 46.5t47.5 17.5q23 0 40 -17.5t17 -46.5q0 -23 -17.5 -43t-39.5 -20q-29 0 -47.5 20.5t-18.5 42.5z M1241 1026q0 23 18.5 43.5t47.5 20.5q23 0 40 -20.5t17 -43.5q0 -29 -17 -46t-40 -17q-29 0 -47.5 17t-18.5 46zM1397 199q0 29 18 46t43 17q27 0 44.5 -17.5t17.5 -45.5q0 -23 -17.5 -41.5t-44.5 -18.5q-25 0 -43 18.5t-18 41.5zM1397 924q0 23 18.5 41t42.5 18 q27 0 44.5 -18.5t17.5 -40.5q0 -29 -17.5 -46.5t-44.5 -17.5q-25 0 -43 17.5t-18 46.5zM1511 354q0 29 18.5 46.5t47.5 17.5q23 0 42 -17.5t19 -46.5q0 -23 -19.5 -43t-41.5 -20q-29 0 -47.5 20.5t-18.5 42.5zM1511 768q0 23 18.5 43t47.5 20q23 0 42 -20t19 -43 q0 -27 -19 -45t-42 -18q-29 0 -47.5 18t-18.5 45zM1554 567q0 25 18.5 42.5t43.5 17.5q27 0 44 -17.5t17 -42.5q0 -27 -17.5 -45t-43.5 -18q-25 0 -43.5 18.5t-18.5 44.5zM1622 -641h313v-125h-313v125zM1622 1364v123h313v-123h-313zM1694 -774l86 8h248v125h184v188h125 v-145q0 -35 2 -73t2 -95zM2028 1364v123h313v-166q0 -35 -2 -64.5t-2 -85.5h-125v193h-184zM2212 20v314h125v-314h-125zM2212 -51h125v-314h-125v314zM2212 403v314h125v-314h-125zM2212 788v314h125v-314h-125z" />
<glyph unicode="&#x103a;" horiz-adv-x="1349" d="M20 567q0 25 17.5 42.5t44.5 17.5q25 0 43 -17.5t18 -42.5q0 -27 -18.5 -45t-42.5 -18q-27 0 -44.5 18.5t-17.5 44.5zM59 354q0 29 19.5 46.5t42.5 17.5q29 0 47 -17.5t18 -46.5q0 -23 -18 -43t-47 -20q-23 0 -42.5 20.5t-19.5 42.5zM59 768q0 23 19.5 43t42.5 20 q29 0 47 -20t18 -43q0 -27 -18 -45t-47 -18q-23 0 -42.5 18t-19.5 45zM172 1640q0 180 125 306q127 127 309 127t303 -127q51 -51 88 -136l-159 -69q-14 39 -25.5 55t-26.5 31q-72 74 -184 74q-117 0 -187.5 -72t-70.5 -189q0 -55 20.5 -103t58.5 -84t86 -56.5t103 -20.5 q10 0 32 -1t52 5l21 -163q-43 -8 -67.5 -10.5t-47.5 -2.5q-180 0 -307 127q-123 123 -123 309zM178 199q0 29 17.5 46t44.5 17q25 0 43 -17.5t18 -45.5q0 -23 -18.5 -41.5t-42.5 -18.5q-27 0 -44.5 18.5t-17.5 41.5zM178 924q0 23 17.5 41t44.5 18q25 0 43 -18.5t18 -40.5 q0 -29 -18 -46.5t-43 -17.5q-27 0 -44.5 17.5t-17.5 46.5zM334 96q0 29 17 46.5t40 17.5q29 0 47.5 -17.5t18.5 -46.5q0 -23 -18.5 -43t-47.5 -20q-23 0 -40 20.5t-17 42.5zM334 1026q0 23 17.5 43.5t39.5 20.5q29 0 47.5 -20.5t18.5 -43.5q0 -29 -18.5 -46t-47.5 -17 q-23 0 -40 17t-17 46zM530 61q0 25 17.5 42.5t44.5 17.5q25 0 43 -17.5t18 -42.5q0 -27 -18.5 -45t-42.5 -18q-27 0 -44.5 18.5t-17.5 44.5zM530 1057q0 29 17.5 46t44.5 17q25 0 43 -17.5t18 -45.5q0 -23 -18.5 -41.5t-42.5 -18.5q-27 0 -44.5 18.5t-17.5 41.5zM709 96 q0 29 18 46.5t47 17.5q23 0 40 -17.5t17 -46.5q0 -23 -17 -43t-40 -20q-29 0 -47 20.5t-18 42.5zM709 1026q0 23 18 43.5t47 20.5q23 0 40 -20.5t17 -43.5q0 -29 -17 -46t-40 -17q-29 0 -47 17t-18 46zM864 199q0 29 18.5 46t43.5 17q27 0 44 -17.5t17 -45.5 q0 -23 -17.5 -41.5t-43.5 -18.5q-25 0 -43.5 18.5t-18.5 41.5zM864 924q0 23 18.5 41t43.5 18q27 0 44 -18.5t17 -40.5q0 -29 -17 -46.5t-44 -17.5q-25 0 -43.5 17.5t-18.5 46.5zM979 354q0 29 18 46.5t47 17.5q23 0 42.5 -17.5t19.5 -46.5q0 -23 -19.5 -43t-42.5 -20 q-29 0 -47 20.5t-18 42.5zM979 768q0 23 18.5 43t46.5 20q23 0 42.5 -20t19.5 -43q0 -27 -19.5 -45t-42.5 -18q-29 0 -47 18t-18 45zM1022 567q0 25 18 42.5t43 17.5q27 0 44.5 -17.5t17.5 -42.5q0 -27 -17.5 -45t-44.5 -18q-25 0 -43 18.5t-18 44.5z" />
<glyph unicode="&#x103b;" horiz-adv-x="1607" d="M20 567q0 25 17.5 42.5t44.5 17.5q25 0 43 -17.5t18 -42.5q0 -27 -18.5 -45t-42.5 -18q-27 0 -44.5 18.5t-17.5 44.5zM59 354q0 29 19.5 46.5t42.5 17.5q29 0 47 -17.5t18 -46.5q0 -23 -18 -43t-47 -20q-23 0 -42.5 20.5t-19.5 42.5zM59 768q0 23 19.5 43t42.5 20 q29 0 47 -20t18 -43q0 -27 -18 -45t-47 -18q-23 0 -42.5 18t-19.5 45zM178 199q0 29 17.5 46t44.5 17q25 0 43 -17.5t18 -45.5q0 -23 -18.5 -41.5t-42.5 -18.5q-27 0 -44.5 18.5t-17.5 41.5zM178 924q0 23 17.5 41t44.5 18q25 0 43 -18.5t18 -40.5q0 -29 -18 -46.5 t-43 -17.5q-27 0 -44.5 17.5t-17.5 46.5zM334 96q0 29 17 46.5t40 17.5q29 0 47.5 -17.5t18.5 -46.5q0 -23 -18.5 -43t-47.5 -20q-23 0 -40 20.5t-17 42.5zM334 1026q0 23 17.5 43.5t39.5 20.5q29 0 47.5 -20.5t18.5 -43.5q0 -29 -18.5 -46t-47.5 -17q-23 0 -40 17t-17 46z M520 -31q6 20 41 21h107q14 -2 14 -13v-184q0 -340 94 -377q133 -88 248 -88q203 96 203 223v453q0 6 -8 6l8 15v964q0 37 -21 129v6q1 11 21 21h174q10 0 26 -27v-1487q0 -332 -335 -424q-57 -14 -148 -14q-289 0 -409 311q-14 141 -15 418v47zM530 61q0 25 17.5 42.5 t44.5 17.5q25 0 43 -17.5t18 -42.5q0 -27 -18.5 -45t-42.5 -18q-27 0 -44.5 18.5t-17.5 44.5zM530 1057q0 29 17.5 46t44.5 17q25 0 43 -17.5t18 -45.5q0 -23 -18.5 -41.5t-42.5 -18.5q-27 0 -44.5 18.5t-17.5 41.5zM709 96q0 29 18 46.5t47 17.5q23 0 40 -17.5t17 -46.5 q0 -23 -17 -43t-40 -20q-29 0 -47 20.5t-18 42.5zM709 1026q0 23 18 43.5t47 20.5q23 0 40 -20.5t17 -43.5q0 -29 -17 -46t-40 -17q-29 0 -47 17t-18 46zM864 199q0 29 18.5 46t43.5 17q27 0 44 -17.5t17 -45.5q0 -23 -17.5 -41.5t-43.5 -18.5q-25 0 -43.5 18.5t-18.5 41.5z M864 924q0 23 18.5 41t43.5 18q27 0 44 -18.5t17 -40.5q0 -29 -17 -46.5t-44 -17.5q-25 0 -43.5 17.5t-18.5 46.5zM979 354q0 29 18 46.5t47 17.5q23 0 42.5 -17.5t19.5 -46.5q0 -23 -19.5 -43t-42.5 -20q-29 0 -47 20.5t-18 42.5zM979 768q0 23 18.5 43t46.5 20 q23 0 42.5 -20t19.5 -43q0 -27 -19.5 -45t-42.5 -18q-29 0 -47 18t-18 45zM1022 567q0 25 18 42.5t43 17.5q27 0 44.5 -17.5t17.5 -42.5q0 -27 -17.5 -45t-44.5 -18q-25 0 -43 18.5t-18 44.5z" />
<glyph unicode="&#x103c;" horiz-adv-x="1744" d="M6 -281v1776q0 397 348 535q134 45 277 45h305q461 0 614 -371q20 -41 21 -119q0 -18 -21 -18h-174q-14 0 -41 145q-96 209 -481 209h-131q-502 0 -502 -399v-1811q0 -299 266 -399q96 -16 154 -17h295q283 0 389 226q31 94 31 190v199q4 18 20 18h174q20 -2 21 -18v-191 q0 -414 -379 -550q-152 -37 -318 -37h-161q-707 0 -707 587zM268 541v6q1 55 64 55q47 -12 47 -55v-6q0 -37 -35 -56h-41q-35 18 -35 56zM303 332q0 28 41 57h43q41 -25 41 -63q0 -27 -41 -56h-43q-41 25 -41 62zM303 756q29 55 64 55q39 0 61 -63q-8 -61 -61 -62h-15 q-49 23 -49 70zM428 154v41q0 7 35 34h41q10 0 35 -34v-41q-29 -43 -56 -43t-55 43zM428 901v21q24 41 61 41q33 -10 50 -41v-21q0 -55 -56 -55q-55 0 -55 55zM580 76q0 43 55 49h8q37 0 55 -35v-41q-18 -41 -55 -41q-55 0 -63 68zM580 1012q0 26 43 55h20q55 0 55 -55v-6 q0 -57 -55 -58q-63 10 -63 64zM782 14v15q9 61 62 61q45 0 55 -61q0 -55 -55 -56h-6q-39 0 -56 41zM782 1026v12q1 64 62 64q55 0 55 -70v-6q-25 -43 -61 -43q-29 0 -56 43zM961 76q0 43 55 49h28q10 0 35 -35v-41q-18 -41 -55 -41q-55 0 -63 68zM961 1012q0 26 43 55h40 q35 -18 35 -55v-6q0 -57 -55 -58q-63 10 -63 64zM1120 174q1 55 56 55h8q55 0 55 -55q-10 -63 -63 -63q-45 0 -56 63zM1120 887v14q11 62 64 62q43 0 55 -62q0 -55 -55 -55q-39 0 -64 41zM1239 326v28q16 35 55 35h6q39 0 56 -35v-28q0 -55 -56 -56h-6q-55 0 -55 56z M1239 741v7q8 63 61 63q45 0 56 -63v-7q0 -37 -41 -55h-35q-41 18 -41 55zM1280 526v15q8 61 61 61q55 0 56 -76q-14 -41 -56 -41h-6q-37 0 -55 41z" />
<glyph unicode="&#x103d;" horiz-adv-x="1349" d="M20 567q0 25 17.5 42.5t44.5 17.5q25 0 43 -17.5t18 -42.5q0 -27 -18.5 -45t-42.5 -18q-27 0 -44.5 18.5t-17.5 44.5zM59 354q0 29 19.5 46.5t42.5 17.5q29 0 47 -17.5t18 -46.5q0 -23 -18 -43t-47 -20q-23 0 -42.5 20.5t-19.5 42.5zM59 768q0 23 19.5 43t42.5 20 q29 0 47 -20t18 -43q0 -27 -18 -45t-47 -18q-23 0 -42.5 18t-19.5 45zM168 -408q0 180 125 306q123 123 305 122q180 0 301 -122q119 -125 119 -306q0 -172 -125 -301q-123 -129 -299 -129t-301 125t-125 305zM178 199q0 29 17.5 46t44.5 17q25 0 43 -17.5t18 -45.5 q0 -23 -18.5 -41.5t-42.5 -18.5q-27 0 -44.5 18.5t-17.5 41.5zM178 924q0 23 17.5 41t44.5 18q25 0 43 -18.5t18 -40.5q0 -29 -18 -46.5t-43 -17.5q-27 0 -44.5 17.5t-17.5 46.5zM334 96q0 29 17 46.5t40 17.5q29 0 47.5 -17.5t18.5 -46.5q0 -23 -18.5 -43t-47.5 -20 q-23 0 -40 20.5t-17 42.5zM334 1026q0 23 17.5 43.5t39.5 20.5q29 0 47.5 -20.5t18.5 -43.5q0 -29 -18.5 -46t-47.5 -17q-23 0 -40 17t-17 46zM338 -408q0 -55 19.5 -101t52 -81t77.5 -53.5t101 -18.5q115 0 184.5 70t73.5 184q0 115 -68.5 186.5t-183.5 71.5t-185.5 -71.5 t-70.5 -186.5zM530 61q0 25 17.5 42.5t44.5 17.5q25 0 43 -17.5t18 -42.5q0 -27 -18.5 -45t-42.5 -18q-27 0 -44.5 18.5t-17.5 44.5zM530 1057q0 29 17.5 46t44.5 17q25 0 43 -17.5t18 -45.5q0 -23 -18.5 -41.5t-42.5 -18.5q-27 0 -44.5 18.5t-17.5 41.5zM709 96 q0 29 18 46.5t47 17.5q23 0 40 -17.5t17 -46.5q0 -23 -17 -43t-40 -20q-29 0 -47 20.5t-18 42.5zM709 1026q0 23 18 43.5t47 20.5q23 0 40 -20.5t17 -43.5q0 -29 -17 -46t-40 -17q-29 0 -47 17t-18 46zM864 199q0 29 18.5 46t43.5 17q27 0 44 -17.5t17 -45.5 q0 -23 -17.5 -41.5t-43.5 -18.5q-25 0 -43.5 18.5t-18.5 41.5zM864 924q0 23 18.5 41t43.5 18q27 0 44 -18.5t17 -40.5q0 -29 -17 -46.5t-44 -17.5q-25 0 -43.5 17.5t-18.5 46.5zM979 354q0 29 18 46.5t47 17.5q23 0 42.5 -17.5t19.5 -46.5q0 -23 -19.5 -43t-42.5 -20 q-29 0 -47 20.5t-18 42.5zM979 768q0 23 18.5 43t46.5 20q23 0 42.5 -20t19.5 -43q0 -27 -19.5 -45t-42.5 -18q-29 0 -47 18t-18 45zM1022 567q0 25 18 42.5t43 17.5q27 0 44.5 -17.5t17.5 -42.5q0 -27 -17.5 -45t-44.5 -18q-25 0 -43 18.5t-18 44.5z" />
<glyph unicode="&#x103e;" horiz-adv-x="1349" d="M20 567q0 25 17.5 42.5t44.5 17.5q25 0 43 -17.5t18 -42.5q0 -27 -18.5 -45t-42.5 -18q-27 0 -44.5 18.5t-17.5 44.5zM59 354q0 29 19.5 46.5t42.5 17.5q29 0 47 -17.5t18 -46.5q0 -23 -18 -43t-47 -20q-23 0 -42.5 20.5t-19.5 42.5zM59 768q0 23 19.5 43t42.5 20 q29 0 47 -20t18 -43q0 -27 -18 -45t-47 -18q-23 0 -42.5 18t-19.5 45zM178 199q0 29 17.5 46t44.5 17q25 0 43 -17.5t18 -45.5q0 -23 -18.5 -41.5t-42.5 -18.5q-27 0 -44.5 18.5t-17.5 41.5zM178 924q0 23 17.5 41t44.5 18q25 0 43 -18.5t18 -40.5q0 -29 -18 -46.5 t-43 -17.5q-27 0 -44.5 17.5t-17.5 46.5zM258 -662h254v711h174v-209t-1 -178t-1 -178v-189q-4 -98 -143 -131q-68 0 -132.5 1t-150.5 1v172zM334 96q0 29 17 46.5t40 17.5q29 0 47.5 -17.5t18.5 -46.5q0 -23 -18.5 -43t-47.5 -20q-23 0 -40 20.5t-17 42.5zM334 1026 q0 23 17.5 43.5t39.5 20.5q29 0 47.5 -20.5t18.5 -43.5q0 -29 -18.5 -46t-47.5 -17q-23 0 -40 17t-17 46zM530 61q0 25 17.5 42.5t44.5 17.5q25 0 43 -17.5t18 -42.5q0 -27 -18.5 -45t-42.5 -18q-27 0 -44.5 18.5t-17.5 44.5zM530 1057q0 29 17.5 46t44.5 17q25 0 43 -17.5 t18 -45.5q0 -23 -18.5 -41.5t-42.5 -18.5q-27 0 -44.5 18.5t-17.5 41.5zM709 96q0 29 18 46.5t47 17.5q23 0 40 -17.5t17 -46.5q0 -23 -17 -43t-40 -20q-29 0 -47 20.5t-18 42.5zM709 1026q0 23 18 43.5t47 20.5q23 0 40 -20.5t17 -43.5q0 -29 -17 -46t-40 -17q-29 0 -47 17 t-18 46zM864 199q0 29 18.5 46t43.5 17q27 0 44 -17.5t17 -45.5q0 -23 -17.5 -41.5t-43.5 -18.5q-25 0 -43.5 18.5t-18.5 41.5zM864 924q0 23 18.5 41t43.5 18q27 0 44 -18.5t17 -40.5q0 -29 -17 -46.5t-44 -17.5q-25 0 -43.5 17.5t-18.5 46.5zM979 354q0 29 18 46.5 t47 17.5q23 0 42.5 -17.5t19.5 -46.5q0 -23 -19.5 -43t-42.5 -20q-29 0 -47 20.5t-18 42.5zM979 768q0 23 18.5 43t46.5 20q23 0 42.5 -20t19.5 -43q0 -27 -19.5 -45t-42.5 -18q-29 0 -47 18t-18 45zM1022 567q0 25 18 42.5t43 17.5q27 0 44.5 -17.5t17.5 -42.5 q0 -27 -17.5 -45t-44.5 -18q-25 0 -43 18.5t-18 44.5z" />
<glyph unicode="&#x103f;" horiz-adv-x="3168" d="M0 799q31 63 61.5 106t67.5 78q170 164 424 164q250 0 414 -164q162 -162 161 -418q0 -111 -30 -203q12 -23 30.5 -47t40.5 -47q119 -113 301 -112q174 0 285 116q121 119 121 293q0 172 -121 289q-111 117 -285 117q-51 0 -104 -8l-51 167q86 16 155 17q250 0 414 -164 q162 -162 162 -418q0 -111 -31 -203q12 -23 30.5 -47t41.5 -47q119 -113 299 -112q176 0 287 116q121 119 120 293q0 172 -120 289q-111 117 -287 117q-49 0 -105 -8q-14 55 -22 82.5t-25 84.5q88 16 152 17q252 0 416 -164q162 -162 161 -418q0 -254 -163 -422 q-164 -164 -414 -163q-266 0 -428 161q-2 2 -18.5 21.5t-18.5 23.5q-8 -8 -18.5 -21t-22.5 -22q-162 -164 -410 -163q-266 0 -428 161q-4 2 -20 21.5t-18 23.5q-8 -8 -18.5 -21t-22.5 -22q-162 -164 -410 -163q-266 0 -426 161q-72 68 -125 178l166 74q20 -51 38.5 -73.5 t45.5 -51.5q119 -113 301 -112q172 0 287 116q119 119 118 293q0 172 -118 289q-115 117 -287 117q-180 0 -297 -115q-51 -51 -88 -129q-55 23 -84 36t-84 36z" />
<glyph unicode="&#x1040;" horiz-adv-x="1372" d="M0 565q0 254 166 418q72 70 162 109q70 33 166 47v-181q-123 -27 -201 -102q-119 -117 -119 -291q0 -180 117 -297q51 -47 108 -75q39 -20 95 -31v-176q-98 14 -170 45q-92 41 -160 110q-164 164 -164 424zM698 -10v178q104 29 181 104q117 119 116 293q0 172 -116 289 q-49 47 -109 76q-33 16 -72 26v181q184 -33 308 -154q162 -162 161 -418q0 -254 -163 -422q-121 -123 -306 -153z" />
<glyph unicode="&#x1041;" horiz-adv-x="1333" d="M0 799q31 63 61.5 106t67.5 78q170 164 424 164q250 0 414 -164q162 -162 161 -418q0 -254 -163 -422q-164 -164 -412 -163q-266 0 -426 161q-72 68 -125 178l166 74q20 -51 38.5 -73.5t45.5 -51.5q119 -113 301 -112q174 0 285 116q121 119 120 293q0 172 -120 289 q-111 117 -285 117q-178 0 -299 -115q-51 -53 -86 -129q-55 23 -84 36t-84 36z" />
<glyph unicode="&#x1042;" horiz-adv-x="1372" d="M0 -250q57 0 90 -1t84 -1q6 -184 117 -291q121 -115 299 -114q172 0 289 116q55 59 84.5 129t31.5 154v1405h172v-1417q-4 -121 -43 -219.5t-120 -178.5q-162 -166 -414 -166q-264 0 -426 162q-80 80 -120 180.5t-44 241.5z" />
<glyph unicode="&#x1043;" horiz-adv-x="1333" d="M0 317l162 76l90 -125q119 -113 301 -112q174 0 287 116q119 119 118 293q0 172 -118 289q-113 117 -287 117q-178 0 -299 -115q-51 -53 -86 -129q-55 23 -84 36t-84 36q31 63 61.5 106t67.5 78q170 164 424 164q250 0 414 -164q162 -162 161 -418q0 -254 -163 -422 q-164 -164 -412 -163q-37 0 -77 3t-50 5q98 -152 220 -341.5t257 -394.5q-45 -29 -71.5 -49t-73.5 -47z" />
<glyph unicode="&#x1044;" horiz-adv-x="1372" d="M0 565q0 256 162 418q164 164 413 164q254 0 424 -164q37 -35 68 -78t61 -106q-55 -23 -83.5 -36t-83.5 -36q-35 76 -87 129q-121 115 -299 115q-176 0 -286 -117q-119 -117 -119 -289q0 -174 119 -293q111 -117 286 -116q182 0 299 112l93 125l161 -76l-759 -1161 q-47 27 -73 47.5t-71 48.5q135 205 257 394.5t218 341.5q-8 -2 -49 -5t-76 -3q-248 0 -411 163q-164 168 -164 422z" />
<glyph unicode="&#x1045;" horiz-adv-x="1372" d="M2 -250q55 0 88 -1t86 -1q6 -184 117 -291q121 -115 299 -114q172 0 289 116q55 59 84.5 129t31.5 154v823q0 172 -116 289q-115 117 -289 117q-180 0 -297 -115l-12 -12q23 0 85 -22.5t109 -61.5t75 -92.5t28 -112.5t-24 -111.5t-61.5 -91.5t-91 -61.5t-112.5 -22.5 t-111.5 22.5t-91.5 61.5t-61.5 91.5t-22.5 111.5v10q-4 254 164 418q170 164 424 164q252 0 416 -164q162 -162 161 -418v-823q-4 -246 -163 -410q-164 -166 -414 -166q-264 0 -426 162q-80 80 -120 180.5t-44 241.5zM176 559q0 -45 31 -75.5t76 -30.5q43 0 74.5 30.5 t31.5 75.5q0 43 -31.5 75t-74.5 32q-45 0 -76 -32t-31 -75z" />
<glyph unicode="&#x1046;" horiz-adv-x="1372" d="M0 541v968q4 119 43 217.5t121 178.5q162 166 414 166q260 0 423 -162q158 -160 166 -422q-55 0 -89 1t-87 1q-6 180 -117 291q-119 115 -296 114q-176 0 -289 -116q-111 -113 -119 -269v-956q10 -172 123 -283q117 -115 297 -114q174 0 289 116q27 29 49 64t35 63 l-80 111q-14 -4 -38 -8t-40 -4q-59 0 -112.5 23.5t-91.5 61.5t-61.5 91t-23.5 112t23.5 112.5t61.5 91.5t91 61.5t113 23.5q59 0 111.5 -23.5t91.5 -61.5t61.5 -91.5t22.5 -112.5q0 -82 -41 -149l112 -154q-27 -207 -172 -352q-152 -152 -401 -151q-254 0 -424 163 q-160 156 -166 398zM707 782q0 -43 31.5 -74.5t74.5 -31.5q45 0 76 31.5t31 74.5q0 45 -31 76t-76 31q-43 0 -74.5 -31t-31.5 -76z" />
<glyph unicode="&#x1047;" horiz-adv-x="1374" d="M0 565q0 254 166 418q170 164 424 164q252 0 416 -164q80 -80 118.5 -188.5t42.5 -229.5q2 -109 -23.5 -207t-69.5 -186t-105.5 -169t-132.5 -159q-55 -59 -101.5 -113.5t-79 -102.5t-49 -89t-8.5 -78q2 -47 30.5 -75.5t73.5 -28.5q37 0 68 24.5t41 79.5q55 0 87 2t89 2 q-2 -78 -26.5 -128t-62.5 -86.5t-90 -58t-110 -21.5q-59 0 -111 23.5t-91 61t-61.5 91t-22.5 112.5q0 66 23.5 128.5t63.5 123t90 120.5t105 120q57 63 106.5 126.5t87.5 136.5t64.5 158t42.5 191q0 174 -116 291q-115 117 -289 117q-180 0 -297 -115q-119 -117 -119 -291 q0 -180 117 -297q16 -12 32.5 -27.5t49.5 -35.5l-101 -150q-45 29 -66.5 47.5t-41.5 38.5q-164 164 -164 424z" />
<glyph unicode="&#x1048;" horiz-adv-x="1372" d="M0 567q0 256 162 418q164 164 416 164q254 0 423 -164q166 -162 166 -418q0 -299 -163 -475q-37 -37 -77 -63.5t-106 -59.5l-71 166q49 25 78.5 44.5t50.5 39.5q115 129 114 348q0 176 -119 289q-119 119 -296 119q-100 0 -189 -45l12 -10v4q199 -199 199 -459 q0 -254 -166 -418q-41 -41 -88 -74q-59 29 -102 56.5t-80 64.5q-164 186 -164 473zM172 567q0 -213 119 -346l31 -28q104 115 104 272q0 182 -117 297q-16 16 -35.5 31.5t-23.5 17.5q-78 -106 -78 -244z" />
<glyph unicode="&#x1049;" horiz-adv-x="1372" d="M0 -272v858q6 242 166 397q170 164 424 164q250 0 401 -152q145 -145 172 -352l-112 -156q41 -71 41 -147q0 -59 -22.5 -112.5t-61.5 -91.5t-91.5 -61.5t-111.5 -23.5t-112.5 23.5t-91.5 61.5t-61.5 91.5t-23.5 112.5t23.5 112.5t61.5 91.5t91 61.5t113 23.5 q16 0 39.5 -4t38.5 -9l80 111q-12 29 -35 63.5t-49 63.5q-115 117 -289 117q-180 0 -297 -115q-115 -113 -119 -285l-4 -829q2 -84 31.5 -153.5t87.5 -129.5q113 -117 289 -116q178 0 296 114q111 111 117 291q55 0 89 1t87 1q-4 -141 -44 -241.5t-122 -180.5 q-164 -162 -423 -162q-252 0 -414 166q-82 80 -121 178.5t-43 217.5zM707 344q0 -45 31.5 -75.5t74.5 -30.5q45 0 76 30.5t31 75.5q0 43 -31 75t-76 32q-43 0 -74.5 -32t-31.5 -75z" />
<glyph unicode="&#x104a;" horiz-adv-x="376" d="M0 1145h172v-1163h-170q0 307 -1 580.5t-1 582.5z" />
<glyph unicode="&#x104b;" horiz-adv-x="827" d="M0 1145h174v-1163h-172q0 307 -1 580.5t-1 582.5zM449 1145h174v-1163h-172q0 307 -1 580.5t-1 582.5z" />
<glyph unicode="&#x104c;" horiz-adv-x="1331" d="M0 799q55 -25 83 -38t81 -32q25 47 43 73.5t45 53.5q115 115 297 115q174 0 291 -117q115 -119 114 -289q0 -168 -114 -293q-117 -117 -291 -116q-184 0 -299 112q-20 20 -42 51t-46 76q-53 -25 -83 -39t-77 -37v-372q55 -43 114.5 -76t127 -58.5t143.5 -40t160 -12.5 q82 2 174 16.5t172 57.5v-496h-729v91q4 33 35.5 47t93.5 12v180q-76 0 -124 -16.5t-84 -48t-58.5 -75.5t-24.5 -101v-127q4 -51 48 -84t116 -50h727q176 -6 176 119v654q-49 25 -81 54.5t-85 55.5q-100 -57 -192.5 -84.5t-175.5 -27.5q-96 0 -190.5 30.5t-180.5 83.5v53 q156 -125 385 -124q252 0 416 163q162 164 161 422q0 256 -161 418q-164 164 -416 164q-254 0 -424 -164q-39 -37 -68.5 -78t-56.5 -106zM131 1640q0 180 125 306q127 127 309 127t303 -127q51 -51 88 -136l-159 -69q-14 39 -25.5 55t-26.5 31q-72 74 -184 74 q-117 0 -187.5 -72t-70.5 -189q0 -55 20.5 -103t58.5 -84t86 -56.5t103 -20.5q10 0 32 -1t52 5l21 -163q-43 -8 -67.5 -10.5t-47.5 -2.5q-180 0 -307 127q-123 123 -123 309z" />
<glyph unicode="&#x104d;" horiz-adv-x="1699" d="M4 -471q-2 102 44 165.5t119 93.5t162 32t176 -12.5t162.5 -41t139.5 -63.5l-55 -147q-45 12 -93.5 27.5t-105.5 28.5t-117.5 21.5t-114 1t-91 -31t-54.5 -68.5v-76q0 -37 7 -59.5t21.5 -34.5t40 -18t60.5 -9h1018v1385q-2 102 -26.5 176t-62.5 128t-87 95t-100 82 q-45 33 -90.5 73t-83 91t-63.5 117.5t-32 152.5q2 86 34 165t91 139q127 127 309 126q182 0 304 -126q51 -51 88 -136l-160 -69q-14 39 -25.5 55t-25.5 31q-72 74 -185 73q-117 0 -188.5 -72.5t-71.5 -189.5q6 -61 26.5 -108t51.5 -86t72 -74l82 -70q57 -45 114.5 -98 t102.5 -126t72.5 -170t23.5 -230v-1336q0 -180 -170 -170h-1143q-170 20 -174 172zM4 565q0 254 166 418q170 164 424 164q252 0 416 -164q160 -162 161 -408v-1110h-170l-2 1110q-2 162 -116 279q-115 117 -289 117q-180 0 -297 -115q-96 -92 -117 -233q254 0 418 -164 q92 -109 124 -217.5t36 -243.5q-51 -12 -89 -15t-75 -3q-264 0 -426 161q-164 164 -164 424zM190 446q31 -104 105 -178q104 -104 276 -112q-31 104 -100 174q-55 53 -132 83.5t-149 32.5z" />
<glyph unicode="&#x104e;" horiz-adv-x="1331" d="M0 565q0 256 162 418q164 164 416 164q254 0 423 -164q39 -37 69 -78t56 -106q-55 -25 -82.5 -38t-80.5 -32q-25 47 -43.5 73.5t-45.5 53.5q-115 115 -296 115q-174 0 -291 -117q-115 -119 -115 -289q0 -168 115 -293q117 -117 291 -116q184 0 299 112q20 20 41.5 51 t46.5 76l159 -84v-1145h-170v265t-1 234t-1 232.5v194.5q-123 -113 -374 -112q-252 0 -416 163q-162 164 -162 422z" />
<glyph unicode="&#x104f;" horiz-adv-x="1886" d="M0 565q0 256 162 418q164 164 416 164q211 0 362 -113q35 47 76 76q59 41 129 41q53 0 102 -21.5t85 -56.5t58.5 -83t24.5 -101v-909h-172l4 909q-2 41 -32.5 70.5t-69.5 29.5q-31 0 -58 -22q-16 -14 -32 -47q41 -55 69 -117q-176 -229 -469 -230q-254 0 -424 164l-18 17 q-16 -31 -28.5 -84.5t-12.5 -104.5q0 -106 43 -194l16 14q170 164 424 164q121 0 226.5 -44t187.5 -120q12 -12 24.5 -26.5t28.5 -41.5q-25 -57 -53.5 -98t-64.5 -78q-162 -162 -426 -161q-252 0 -416 163q-162 164 -162 422zM332 893l8 -12q10 -12 16 -17q61 -57 136 -86.5 t163 -29.5q137 0 246 79l-27 29q-116 115 -296 115q-145 0 -246 -78zM334 231q100 -76 244 -75q184 0 301 114l22 25q-109 80 -246 80q-180 0 -301 -119zM965 1638q2 86 32.5 165t92.5 139q127 127 309 126q182 0 303 -126q51 -51 88 -136l-160 -69q-14 39 -25.5 55 t-25.5 31q-72 74 -184 73q-117 0 -188.5 -72.5t-71.5 -189.5q4 -43 18 -74.5t37.5 -56t56.5 -44t72 -40.5q59 -37 124.5 -82t119 -127t86 -211t30.5 -327v-692h-170v743q4 164 -21.5 266.5t-69.5 163.5t-100 95t-114 65q-39 18 -79 44.5t-72.5 64.5t-56 90.5t-31.5 125.5z " />
<glyph unicode="&#x1050;" horiz-adv-x="1372" d="M0 565q0 254 166 418q170 164 424 164q252 0 416 -164q162 -162 161 -418q0 -291 -163 -473q-35 -37 -75 -65.5t-106 -55.5q-27 51 -41 77t-43 81q55 25 83 45.5t57 46.5q117 131 116 344q0 172 -116 289q-115 117 -289 117q-180 0 -297 -115q-119 -117 -119 -291 q0 -217 115 -348q25 -27 51.5 -43t77.5 -41l-72 -164q-113 49 -182 121q-164 176 -164 475zM434 557q0 61 39 101t94 40q57 0 99.5 -40t42.5 -101q0 -55 -42 -94t-100 -39q-55 0 -94 39t-39 94z" />
<glyph unicode="&#x1051;" horiz-adv-x="1372" d="M0 551q0 299 164 475q37 37 77 63.5t105 59.5l72 -168q-49 -25 -79 -43t-50 -39q-115 -131 -115 -348q0 -178 119 -291q119 -117 297 -117q172 0 289 117t116 291q0 211 -116 344q-27 23 -56.5 44.5t-83.5 45.5l86 160q106 -49 179 -121q164 -186 163 -473 q0 -256 -161 -418q-164 -164 -416 -164q-254 0 -424 164q-166 162 -166 418zM434 557q0 61 39 101t94 40q57 0 99.5 -40t42.5 -101q0 -55 -42 -94t-100 -39q-55 0 -94 39t-39 94z" />
<glyph unicode="&#x1052;" horiz-adv-x="1372" d="M0 553q0 287 164 473q72 72 180 121q25 -51 40 -78t42 -80q-86 -39 -137 -92q-119 -131 -119 -344q0 -172 117 -291q119 -117 291 -117q176 0 296 117q117 113 117 291v12q-25 -2 -33 -2q-59 0 -112 23.5t-91 61.5t-61.5 91.5t-23.5 112.5t23.5 111.5t61.5 91.5t91 61.5 t112 22.5q51 0 98.5 -17.5t100.5 -58.5l-108 -139q-47 49 -95 49q-18 0 -38.5 -11.5t-36 -29t-24.5 -40t-9 -44.5q0 -43 29.5 -74t80.5 -33q6 -4 9.5 -3t21.5 1q20 0 50 -1t59.5 -19.5t49 -56t21.5 -109.5q0 -256 -170 -418q-168 -164 -419 -164q-252 0 -416 164 q-162 162 -162 418z" />
<glyph unicode="&#x1053;" horiz-adv-x="1372" d="M0 553q2 72 21.5 109.5t49 56t59.5 19.5t50 1q14 0 19.5 -1t13.5 3q45 2 75.5 34t30.5 75q0 23 -9 45.5t-24.5 39.5t-35 28.5t-39.5 11.5q-45 0 -92 -53l-109 143q53 41 98.5 58.5t98.5 17.5q59 0 112.5 -22.5t92.5 -61.5t62.5 -91.5t23.5 -111.5t-23.5 -112.5 t-62.5 -92.5t-92.5 -62.5t-112.5 -23.5q-10 0 -21.5 1t-11.5 -11q0 -178 119 -291q119 -117 297 -117q174 6 284 117q117 113 117 291v12q-25 -2 -33 -2q-59 0 -112 23.5t-91 62.5t-61.5 92.5t-23.5 112.5t23.5 111.5t61.5 91.5t91 61.5t112 22.5q51 0 98.5 -17.5 t100.5 -58.5l-108 -139q-47 49 -95 49q-18 0 -38.5 -11.5t-36 -28.5t-24.5 -40t-9 -45q0 -43 29.5 -75t80.5 -34q4 -4 8.5 -3t22.5 1q20 0 50 -1t59.5 -19.5t49 -56t21.5 -109.5q0 -256 -170 -418q-14 -14 -32.5 -30.5t-34.5 -28.5q-72 -49 -158 -77t-182 -28h-27 q-469 43 -563 582z" />
<glyph unicode="&#x1054;" horiz-adv-x="1370" d="M0 561q0 258 162 420q162 166 416 166q264 0 426 -162q57 -61 102 -139q23 -39 41 -80t18 -80t-23.5 -72.5t-74.5 -57.5t-133 -37t-201 -13q-252 0 -416 164q-27 27 -50 61.5t-34 50.5q-63 -100 -63 -221q0 -168 117 -291q117 -115 291 -114q180 0 296 114q51 53 87 129 q55 -23 83.5 -36t83.5 -35q-31 -63 -60.5 -105.5t-66.5 -79.5q-174 -164 -423 -163q-252 0 -416 163q-162 162 -162 418zM362 911q10 -23 33 -54.5t49 -57.5q57 -57 129 -87t160 -30q127 0 225 57q-28 62 -81 119q-119 113 -299 113q-59 0 -117 -16.5t-99 -43.5z" />
<glyph unicode="&#x1055;" horiz-adv-x="2252" d="M0 561q0 258 162 420q162 166 416 166q264 0 426 -162q57 -61 102 -139q23 -39 41 -80t18 -80t-23.5 -72.5t-74.5 -57.5t-133 -37t-201 -13q-252 0 -416 164q-27 27 -50 61.5t-34 50.5q-63 -100 -63 -221q0 -168 117 -291q117 -115 291 -114q180 0 296 114q43 43 74 105 q8 31 25.5 54.5t43 31.5t53 -5.5t52.5 -52.5q31 -76 88 -135q115 -113 299 -112q174 0 289 116q63 63 103 172l147 -110q-27 -63 -56.5 -106.5t-68.5 -84.5q-164 -164 -414 -163q-264 0 -426 161q-23 23 -41 47q-20 -25 -41 -45q-174 -164 -423 -163q-252 0 -416 163 q-162 162 -162 418zM362 911q10 -23 33 -54.5t49 -57.5q57 -57 129 -87t160 -30q127 0 225 57q-28 62 -81 119q-119 113 -299 113q-59 0 -117 -16.5t-99 -43.5z" />
<glyph unicode="&#x1056;" horiz-adv-x="2428" d="M20 567q0 25 17.5 42.5t44.5 17.5q25 0 43 -17.5t18 -42.5q0 -27 -18.5 -45t-42.5 -18q-27 0 -44.5 18.5t-17.5 44.5zM59 354q0 29 19.5 46.5t42.5 17.5q29 0 47 -17.5t18 -46.5q0 -23 -18 -43t-47 -20q-23 0 -42.5 20.5t-19.5 42.5zM59 768q0 23 19.5 43t42.5 20 q29 0 47 -20t18 -43q0 -27 -18 -45t-47 -18q-23 0 -42.5 18t-19.5 45zM178 199q0 29 17.5 46t44.5 17q25 0 43 -17.5t18 -45.5q0 -23 -18.5 -41.5t-42.5 -18.5q-27 0 -44.5 18.5t-17.5 41.5zM178 924q0 23 17.5 41t44.5 18q25 0 43 -18.5t18 -40.5q0 -29 -18 -46.5 t-43 -17.5q-27 0 -44.5 17.5t-17.5 46.5zM334 96q0 29 17 46.5t40 17.5q29 0 47.5 -17.5t18.5 -46.5q0 -23 -18.5 -43t-47.5 -20q-23 0 -40 20.5t-17 42.5zM334 1026q0 23 17.5 43.5t39.5 20.5q29 0 47.5 -20.5t18.5 -43.5q0 -29 -18.5 -46t-47.5 -17q-23 0 -40 17t-17 46z M530 61q0 25 17.5 42.5t44.5 17.5q25 0 43 -17.5t18 -42.5q0 -27 -18.5 -45t-42.5 -18q-27 0 -44.5 18.5t-17.5 44.5zM530 1057q0 29 17.5 46t44.5 17q25 0 43 -17.5t18 -45.5q0 -23 -18.5 -41.5t-42.5 -18.5q-27 0 -44.5 18.5t-17.5 41.5zM709 96q0 29 18 46.5t47 17.5 q23 0 40 -17.5t17 -46.5q0 -23 -17 -43t-40 -20q-29 0 -47 20.5t-18 42.5zM709 1026q0 23 18 43.5t47 20.5q23 0 40 -20.5t17 -43.5q0 -29 -17 -46t-40 -17q-29 0 -47 17t-18 46zM864 199q0 29 18.5 46t43.5 17q27 0 44 -17.5t17 -45.5q0 -23 -17.5 -41.5t-43.5 -18.5 q-25 0 -43.5 18.5t-18.5 41.5zM864 924q0 23 18.5 41t43.5 18q27 0 44 -18.5t17 -40.5q0 -29 -17 -46.5t-44 -17.5q-25 0 -43.5 17.5t-18.5 46.5zM979 354q0 29 18 46.5t47 17.5q23 0 42.5 -17.5t19.5 -46.5q0 -23 -19.5 -43t-42.5 -20q-29 0 -47 20.5t-18 42.5zM979 768 q0 23 18.5 43t46.5 20q23 0 42.5 -20t19.5 -43q0 -27 -19.5 -45t-42.5 -18q-29 0 -47 18t-18 45zM1022 567q0 25 18 42.5t43 17.5q27 0 44.5 -17.5t17.5 -42.5q0 -27 -17.5 -45t-44.5 -18q-25 0 -43 18.5t-18 44.5zM1139 256l157 72q23 -29 34 -41.5t24 -28.5 q119 -113 286 -113q178 0 293 113q117 115 117 289v12q-23 -2 -33 -2q-59 0 -111.5 23.5t-90 61.5t-60 90t-22.5 112q0 59 22.5 110.5t60 89t90 60t111.5 22.5q51 0 98.5 -16t100.5 -57l-109 -138q-47 47 -94 48q-20 0 -39.5 -10.5t-33 -28t-22.5 -40t-9 -44.5 q0 -41 29.5 -73t76.5 -34q6 -6 10.5 -4t20.5 2q20 0 50 -1t58.5 -18.5t48 -56.5t21.5 -108q0 -254 -166 -414q-168 -162 -418 -162q-248 0 -409 162q-51 47 -92 123z" />
<glyph unicode="&#x1057;" horiz-adv-x="3168" d="M20 567q0 25 17.5 42.5t44.5 17.5q25 0 43 -17.5t18 -42.5q0 -27 -18.5 -45t-42.5 -18q-27 0 -44.5 18.5t-17.5 44.5zM59 354q0 29 19.5 46.5t42.5 17.5q29 0 47 -17.5t18 -46.5q0 -23 -18 -43t-47 -20q-23 0 -42.5 20.5t-19.5 42.5zM59 768q0 23 19.5 43t42.5 20 q29 0 47 -20t18 -43q0 -27 -18 -45t-47 -18q-23 0 -42.5 18t-19.5 45zM178 199q0 29 17.5 46t44.5 17q25 0 43 -17.5t18 -45.5q0 -23 -18.5 -41.5t-42.5 -18.5q-27 0 -44.5 18.5t-17.5 41.5zM178 924q0 23 17.5 41t44.5 18q25 0 43 -18.5t18 -40.5q0 -29 -18 -46.5 t-43 -17.5q-27 0 -44.5 17.5t-17.5 46.5zM334 96q0 29 17 46.5t40 17.5q29 0 47.5 -17.5t18.5 -46.5q0 -23 -18.5 -43t-47.5 -20q-23 0 -40 20.5t-17 42.5zM334 1026q0 23 17.5 43.5t39.5 20.5q29 0 47.5 -20.5t18.5 -43.5q0 -29 -18.5 -46t-47.5 -17q-23 0 -40 17t-17 46z M530 61q0 25 17.5 42.5t44.5 17.5q25 0 43 -17.5t18 -42.5q0 -27 -18.5 -45t-42.5 -18q-27 0 -44.5 18.5t-17.5 44.5zM530 1057q0 29 17.5 46t44.5 17q25 0 43 -17.5t18 -45.5q0 -23 -18.5 -41.5t-42.5 -18.5q-27 0 -44.5 18.5t-17.5 41.5zM709 96q0 29 18 46.5t47 17.5 q23 0 40 -17.5t17 -46.5q0 -23 -17 -43t-40 -20q-29 0 -47 20.5t-18 42.5zM709 1026q0 23 18 43.5t47 20.5q23 0 40 -20.5t17 -43.5q0 -29 -17 -46t-40 -17q-29 0 -47 17t-18 46zM864 199q0 29 18.5 46t43.5 17q27 0 44 -17.5t17 -45.5q0 -23 -17.5 -41.5t-43.5 -18.5 q-25 0 -43.5 18.5t-18.5 41.5zM864 924q0 23 18.5 41t43.5 18q27 0 44 -18.5t17 -40.5q0 -29 -17 -46.5t-44 -17.5q-25 0 -43.5 17.5t-18.5 46.5zM979 354q0 29 18 46.5t47 17.5q23 0 42.5 -17.5t19.5 -46.5q0 -23 -19.5 -43t-42.5 -20q-29 0 -47 20.5t-18 42.5zM979 768 q0 23 18.5 43t46.5 20q23 0 42.5 -20t19.5 -43q0 -27 -19.5 -45t-42.5 -18q-29 0 -47 18t-18 45zM1010 195l112 139l45 -47q57 -59 130 -98t159 -39q88 0 163 30.5t134 85.5q23 20 42.5 47t33.5 54q23 74 76 89t86 -46q31 -80 94 -142q113 -117 289 -116q174 0 297 116 q117 113 116 291v12q2 0 -11 -1t-21 -1q-59 0 -112.5 23.5t-91.5 62.5t-61.5 92.5t-23.5 112.5t23.5 111.5t61.5 91.5t91 61.5t113 22.5q53 0 99 -17.5t97 -58.5l-106 -141q-33 33 -51.5 42t-43.5 9q-18 0 -38.5 -11.5t-35 -28.5t-23.5 -39.5t-9 -45.5q0 -43 29.5 -74.5 t76.5 -33.5q6 -4 11.5 -3.5t21.5 0.5q20 0 50 -1t59.5 -19t49 -56t21.5 -110q0 -256 -165 -418q-170 -164 -424 -164q-252 0 -416 164q-10 10 -22.5 23.5t-14.5 15.5l-41 -41q-170 -164 -424 -164q-127 0 -231.5 52.5t-184.5 132.5zM1022 567q0 25 18 42.5t43 17.5 q27 0 44.5 -17.5t17.5 -42.5q0 -27 -17.5 -45t-44.5 -18q-25 0 -43 18.5t-18 44.5z" />
<glyph unicode="&#x1058;" horiz-adv-x="1349" d="M20 567q0 25 17.5 42.5t44.5 17.5q25 0 43 -17.5t18 -42.5q0 -27 -18.5 -45t-42.5 -18q-27 0 -44.5 18.5t-17.5 44.5zM59 354q0 29 19.5 46.5t42.5 17.5q29 0 47 -17.5t18 -46.5q0 -23 -18 -43t-47 -20q-23 0 -42.5 20.5t-19.5 42.5zM59 768q0 23 19.5 43t42.5 20 q29 0 47 -20t18 -43q0 -27 -18 -45t-47 -18q-23 0 -42.5 18t-19.5 45zM166 -412q0 90 28.5 168t90.5 138q117 117 299 116q193 0 311 -116q16 -25 34.5 -46.5t35 -50t31 -62.5t14.5 -61q0 -33 -17.5 -60.5t-56.5 -47t-97.5 -28.5t-146.5 -9t-167 31.5t-134 87.5 q-31 25 -47 53q-4 -8 -11 -41t-7 -72q0 -113 73 -184q72 -78 185 -78q117 0 190 76q18 18 29.5 35.5t38.5 62.5l-4 -2l149 -63q-25 -55 -48.5 -90t-47.5 -60q-121 -121 -307 -121q-92 0 -168 33t-131 88q-57 61 -88 136t-31 167zM178 199q0 29 17.5 46t44.5 17 q25 0 43 -17.5t18 -45.5q0 -23 -18.5 -41.5t-42.5 -18.5q-27 0 -44.5 18.5t-17.5 41.5zM178 924q0 23 17.5 41t44.5 18q25 0 43 -18.5t18 -40.5q0 -29 -18 -46.5t-43 -17.5q-27 0 -44.5 17.5t-17.5 46.5zM334 96q0 29 17 46.5t40 17.5q29 0 47.5 -17.5t18.5 -46.5 q0 -23 -18.5 -43t-47.5 -20q-23 0 -40 20.5t-17 42.5zM334 1026q0 23 17.5 43.5t39.5 20.5q29 0 47.5 -20.5t18.5 -43.5q0 -29 -18.5 -46t-47.5 -17q-23 0 -40 17t-17 46zM461 -180l15 -22.5t30 -28.5q74 -76 186 -76q39 0 76 7t53 17q-4 10 -17.5 27t-27.5 33 q-78 72 -192 71q-39 0 -73 -8t-50 -20zM530 61q0 25 17.5 42.5t44.5 17.5q25 0 43 -17.5t18 -42.5q0 -27 -18.5 -45t-42.5 -18q-27 0 -44.5 18.5t-17.5 44.5zM530 1057q0 29 17.5 46t44.5 17q25 0 43 -17.5t18 -45.5q0 -23 -18.5 -41.5t-42.5 -18.5q-27 0 -44.5 18.5 t-17.5 41.5zM709 96q0 29 18 46.5t47 17.5q23 0 40 -17.5t17 -46.5q0 -23 -17 -43t-40 -20q-29 0 -47 20.5t-18 42.5zM709 1026q0 23 18 43.5t47 20.5q23 0 40 -20.5t17 -43.5q0 -29 -17 -46t-40 -17q-29 0 -47 17t-18 46zM864 199q0 29 18.5 46t43.5 17q27 0 44 -17.5 t17 -45.5q0 -23 -17.5 -41.5t-43.5 -18.5q-25 0 -43.5 18.5t-18.5 41.5zM864 924q0 23 18.5 41t43.5 18q27 0 44 -18.5t17 -40.5q0 -29 -17 -46.5t-44 -17.5q-25 0 -43.5 17.5t-18.5 46.5zM979 354q0 29 18 46.5t47 17.5q23 0 42.5 -17.5t19.5 -46.5q0 -23 -19.5 -43 t-42.5 -20q-29 0 -47 20.5t-18 42.5zM979 768q0 23 18.5 43t46.5 20q23 0 42.5 -20t19.5 -43q0 -27 -19.5 -45t-42.5 -18q-29 0 -47 18t-18 45zM1022 567q0 25 18 42.5t43 17.5q27 0 44.5 -17.5t17.5 -42.5q0 -27 -17.5 -45t-44.5 -18q-25 0 -43 18.5t-18 44.5z" />
<glyph unicode="&#x1059;" horiz-adv-x="1349" d="M20 567q0 25 17.5 42.5t44.5 17.5q25 0 43 -17.5t18 -42.5q0 -27 -18.5 -45t-42.5 -18q-27 0 -44.5 18.5t-17.5 44.5zM59 354q0 29 19.5 46.5t42.5 17.5q29 0 47 -17.5t18 -46.5q0 -23 -18 -43t-47 -20q-23 0 -42.5 20.5t-19.5 42.5zM59 768q0 23 19.5 43t42.5 20 q29 0 47 -20t18 -43q0 -27 -18 -45t-47 -18q-23 0 -42.5 18t-19.5 45zM166 -412q0 90 28.5 168t90.5 138q117 117 299 116q193 0 311 -116q16 -25 34.5 -46.5t35 -50t31 -62.5t14.5 -61q0 -33 -17.5 -60.5t-56.5 -47t-97.5 -28.5t-146.5 -9t-167 31.5t-134 87.5 q-31 25 -47 53q-4 -8 -11 -41t-7 -72q0 -113 73 -184q72 -78 185 -78q117 0 190 76q8 10 17 18l47 78q-41 -70 2 4l100 -2q12 -31 31 -57l12 -16q23 -25 49 -43q61 -41 142 -41q80 0 137 33.5t100 113.5l152 -82q-27 -43 -43.5 -67.5t-40.5 -49.5q-123 -129 -299 -129 q-172 0 -295 119q-119 -117 -301 -117q-92 0 -168 33t-131 88q-57 61 -88 136t-31 167zM178 199q0 29 17.5 46t44.5 17q25 0 43 -17.5t18 -45.5q0 -23 -18.5 -41.5t-42.5 -18.5q-27 0 -44.5 18.5t-17.5 41.5zM178 924q0 23 17.5 41t44.5 18q25 0 43 -18.5t18 -40.5 q0 -29 -18 -46.5t-43 -17.5q-27 0 -44.5 17.5t-17.5 46.5zM334 96q0 29 17 46.5t40 17.5q29 0 47.5 -17.5t18.5 -46.5q0 -23 -18.5 -43t-47.5 -20q-23 0 -40 20.5t-17 42.5zM334 1026q0 23 17.5 43.5t39.5 20.5q29 0 47.5 -20.5t18.5 -43.5q0 -29 -18.5 -46t-47.5 -17 q-23 0 -40 17t-17 46zM461 -180l15 -22.5t30 -28.5q74 -76 186 -76q39 0 76 7t53 17q-4 10 -17.5 27t-27.5 33q-78 72 -192 71q-39 0 -73 -8t-50 -20zM530 61q0 25 17.5 42.5t44.5 17.5q25 0 43 -17.5t18 -42.5q0 -27 -18.5 -45t-42.5 -18q-27 0 -44.5 18.5t-17.5 44.5z M530 1057q0 29 17.5 46t44.5 17q25 0 43 -17.5t18 -45.5q0 -23 -18.5 -41.5t-42.5 -18.5q-27 0 -44.5 18.5t-17.5 41.5zM709 96q0 29 18 46.5t47 17.5q23 0 40 -17.5t17 -46.5q0 -23 -17 -43t-40 -20q-29 0 -47 20.5t-18 42.5zM709 1026q0 23 18 43.5t47 20.5q23 0 40 -20.5 t17 -43.5q0 -29 -17 -46t-40 -17q-29 0 -47 17t-18 46zM864 199q0 29 18.5 46t43.5 17q27 0 44 -17.5t17 -45.5q0 -23 -17.5 -41.5t-43.5 -18.5q-25 0 -43.5 18.5t-18.5 41.5zM864 924q0 23 18.5 41t43.5 18q27 0 44 -18.5t17 -40.5q0 -29 -17 -46.5t-44 -17.5 q-25 0 -43.5 17.5t-18.5 46.5zM979 354q0 29 18 46.5t47 17.5q23 0 42.5 -17.5t19.5 -46.5q0 -23 -19.5 -43t-42.5 -20q-29 0 -47 20.5t-18 42.5zM979 768q0 23 18.5 43t46.5 20q23 0 42.5 -20t19.5 -43q0 -27 -19.5 -45t-42.5 -18q-29 0 -47 18t-18 45zM1022 567 q0 25 18 42.5t43 17.5q27 0 44.5 -17.5t17.5 -42.5q0 -27 -17.5 -45t-44.5 -18q-25 0 -43 18.5t-18 44.5z" />
<glyph unicode="&#x105a;" horiz-adv-x="1372" d="M0 565q0 256 162 418q164 164 416 164q254 0 423 -164q39 -37 69 -78t56 -106q-55 -25 -82.5 -38t-80.5 -32q-25 47 -43.5 73.5t-45.5 53.5q-115 115 -296 115q-174 0 -291 -117q-115 -119 -115 -289q0 -168 115 -293q117 -117 291 -116q184 0 299 112q20 20 41.5 51 t46.5 76l159 -76q-49 -111 -120 -178q-162 -162 -426 -161q-252 0 -416 163q-162 164 -162 422zM324 -256q0 104 68.5 171t172.5 67q102 0 169 -68t67 -170q-2 -45 -17.5 -84t-38 -74t-48 -65.5t-48.5 -55.5q-12 -14 -29.5 -32.5t-33.5 -40.5q-18 -41 33 0t94 30 q-8 -92 -48 -142t-98 -50q-59 0 -101 42t-42 99q0 59 31.5 105.5t72.5 89.5l47 55v-4q-4 -4 34 35t36 94q-4 31 -25.5 55.5t-54.5 24.5q-39 0 -62.5 -22.5t-23.5 -59.5t82 -104l-96 -123q-37 25 -52.5 37t-21.5 18q-68 68 -67 172z" />
<glyph unicode="&#x105b;" horiz-adv-x="1675" d="M0 565q0 254 166 418q170 164 424 164q252 0 416 -164q20 -20 36.5 -40.5t34 -51.5t30.5 -72t13 -86q0 -35 -10 -71q6 -164 129 -291l-125 -127q-111 106 -147 235q-61 -33 -136 -33q-59 0 -111 23t-91 61.5t-61.5 91t-22.5 111.5q0 72 43 141.5t67 88.5q49 0 31 2 t-36.5 3t-35 2t-24.5 1q-176 0 -297 -115q-117 -117 -117 -291q0 -178 115 -297q119 -113 299 -112q80 0 143.5 20.5t132.5 83.5l129 -129q-33 -27 -53 -41t-41 -29v-636q4 -33 10.5 -49.5t13.5 -23.5t24.5 -9t45.5 -5h174h77t33 5.5t9 22t6 56.5v1723h176v-1858 q0 -129 -147 -123q-111 0 -224.5 1t-226.5 1q-139 33 -143 132l-2 694q-23 -4 -61.5 -8t-75.5 -4q-264 0 -426 161q-164 164 -164 424zM719 737q0 -51 32.5 -83.5t84.5 -32.5q39 0 71.5 22.5t42.5 54.5q4 23 4 37.5v24.5q-8 39 -42.5 68.5t-75.5 29.5q-51 0 -84 -35t-33 -86 z" />
<glyph unicode="&#x105c;" horiz-adv-x="1372" d="M0 565q0 254 166 418q170 164 424 164q252 0 416 -164q162 -162 161 -418q0 -254 -163 -422q-164 -163 -414 -163q-264 0 -426 161q-164 164 -164 424zM174 565q0 -180 117 -297q115 -113 299 -112q174 0 289 116q117 119 116 293q0 172 -116 289q-115 117 -289 117 q-180 0 -297 -115q-119 -117 -119 -291zM371 561q0 43 17.5 83t47 68.5t69.5 46t85 17.5q43 0 83 -17.5t68.5 -46t46 -68.5t17.5 -83q0 -45 -17.5 -85t-46 -69.5t-68.5 -47t-83 -17.5q-45 0 -85 17.5t-69.5 47t-47 69.5t-17.5 85zM510 561q0 -33 23.5 -56.5t56.5 -23.5 t58.5 23.5t25.5 56.5t-25.5 58.5t-58.5 25.5t-56.5 -25.5t-23.5 -58.5z" />
<glyph unicode="&#x105d;" horiz-adv-x="1372" d="M0 551q0 299 164 475q37 37 77 63.5t105 59.5q23 -57 37 -86t33 -82q-47 -25 -77 -43t-50 -39q-115 -131 -115 -348q0 -39 10.5 -84t18.5 -70q158 131 387 131q227 0 375 -131q10 25 20 70t10 84q0 211 -116 344q-27 23 -56.5 44.5t-83.5 45.5l86 160q106 -49 179 -121 q164 -186 163 -473q0 -176 -80 -311v-613q0 -467 -495 -461l-88 3q-61 0 -131 18t-129.5 57t-102.5 96.5t-49 137.5q-4 55 8.5 122.5t59.5 137.5q47 63 124.5 106t164.5 43q53 0 107 -13t99 -36.5t81 -61.5t59 -100q-37 -27 -74 -38t-74 -35q-31 80 -76 97t-116 17 q-39 0 -70 -7t-49 -21q-41 -31 -57.5 -70t-16.5 -76q0 -39 16.5 -76.5t48 -66.5t78 -47.5t101.5 -14.5h86q150 -4 236.5 78t89.5 275l2 368q-51 -33 -142.5 -61.5t-187.5 -28.5q-254 0 -424 164q-166 162 -166 418zM303 248q111 -104 287 -105q162 0 276 105 q-110 104 -276 104q-176 0 -287 -104z" />
<glyph unicode="&#x105e;" horiz-adv-x="1349" d="M-117 -504q0 76 35 147.5t121 108.5q80 35 137 47.5t111.5 12.5t113 -10.5t115.5 -18.5v266h174v-297q41 -8 72 -19.5t57.5 -21.5t52 -21.5t91.5 -29.5l-56 -172l-217 86q0 -37 -1 -124t-1 -152q-8 -98 -143 -132l-283 3q-27 0 -62.5 4t-73.5 11t-73 19.5t-61 28.5 q-20 16 -41 44t-36 62.5t-23.5 75.5t-8.5 82zM20 567q0 25 17.5 42.5t44.5 17.5q25 0 43 -17.5t18 -42.5q0 -27 -18.5 -45t-42.5 -18q-27 0 -44.5 18.5t-17.5 44.5zM59 354q0 29 19.5 46.5t42.5 17.5q29 0 47 -17.5t18 -46.5q0 -23 -18 -43t-47 -20q-23 0 -42.5 20.5 t-19.5 42.5zM59 -463q4 -102 48.5 -149t156.5 -41h252v270q-37 14 -88 23.5t-96 9.5q-84 0 -160 -29t-113 -84zM59 768q0 23 19.5 43t42.5 20q29 0 47 -20t18 -43q0 -27 -18 -45t-47 -18q-23 0 -42.5 18t-19.5 45zM178 199q0 29 17.5 46t44.5 17q25 0 43 -17.5t18 -45.5 q0 -23 -18.5 -41.5t-42.5 -18.5q-27 0 -44.5 18.5t-17.5 41.5zM178 924q0 23 17.5 41t44.5 18q25 0 43 -18.5t18 -40.5q0 -29 -18 -46.5t-43 -17.5q-27 0 -44.5 17.5t-17.5 46.5zM334 96q0 29 17 46.5t40 17.5q29 0 47.5 -17.5t18.5 -46.5q0 -23 -18.5 -43t-47.5 -20 q-23 0 -40 20.5t-17 42.5zM334 1026q0 23 17.5 43.5t39.5 20.5q29 0 47.5 -20.5t18.5 -43.5q0 -29 -18.5 -46t-47.5 -17q-23 0 -40 17t-17 46zM530 61q0 25 17.5 42.5t44.5 17.5q25 0 43 -17.5t18 -42.5q0 -27 -18.5 -45t-42.5 -18q-27 0 -44.5 18.5t-17.5 44.5zM530 1057 q0 29 17.5 46t44.5 17q25 0 43 -17.5t18 -45.5q0 -23 -18.5 -41.5t-42.5 -18.5q-27 0 -44.5 18.5t-17.5 41.5zM709 96q0 29 18 46.5t47 17.5q23 0 40 -17.5t17 -46.5q0 -23 -17 -43t-40 -20q-29 0 -47 20.5t-18 42.5zM709 1026q0 23 18 43.5t47 20.5q23 0 40 -20.5t17 -43.5 q0 -29 -17 -46t-40 -17q-29 0 -47 17t-18 46zM864 199q0 29 18.5 46t43.5 17q27 0 44 -17.5t17 -45.5q0 -23 -17.5 -41.5t-43.5 -18.5q-25 0 -43.5 18.5t-18.5 41.5zM864 924q0 23 18.5 41t43.5 18q27 0 44 -18.5t17 -40.5q0 -29 -17 -46.5t-44 -17.5q-25 0 -43.5 17.5 t-18.5 46.5zM979 354q0 29 18 46.5t47 17.5q23 0 42.5 -17.5t19.5 -46.5q0 -23 -19.5 -43t-42.5 -20q-29 0 -47 20.5t-18 42.5zM979 768q0 23 18.5 43t46.5 20q23 0 42.5 -20t19.5 -43q0 -27 -19.5 -45t-42.5 -18q-29 0 -47 18t-18 45zM1022 567q0 25 18 42.5t43 17.5 q27 0 44.5 -17.5t17.5 -42.5q0 -27 -17.5 -45t-44.5 -18q-25 0 -43 18.5t-18 44.5z" />
<glyph unicode="&#x105f;" horiz-adv-x="1349" d="M0 -500q0 143 129 240q125 94 307 94q37 0 64.5 -5t23.5 -5v86v129h172v-356l-90 -56q-80 37 -176 37q-119 0 -188.5 -47t-69.5 -115q0 -33 17.5 -62.5t51 -52t80 -34.5t103.5 -12q72 0 128 19t101 65l135 -109q-27 -27 -37 -36t-20 -17q-61 -49 -136 -74t-163 -25 q-180 0 -303 97q-129 96 -129 239zM20 567q0 25 17.5 42.5t44.5 17.5q25 0 43 -17.5t18 -42.5q0 -27 -18.5 -45t-42.5 -18q-27 0 -44.5 18.5t-17.5 44.5zM59 354q0 29 19.5 46.5t42.5 17.5q29 0 47 -17.5t18 -46.5q0 -23 -18 -43t-47 -20q-23 0 -42.5 20.5t-19.5 42.5z M59 768q0 23 19.5 43t42.5 20q29 0 47 -20t18 -43q0 -27 -18 -45t-47 -18q-23 0 -42.5 18t-19.5 45zM178 199q0 29 17.5 46t44.5 17q25 0 43 -17.5t18 -45.5q0 -23 -18.5 -41.5t-42.5 -18.5q-27 0 -44.5 18.5t-17.5 41.5zM178 924q0 23 17.5 41t44.5 18q25 0 43 -18.5 t18 -40.5q0 -29 -18 -46.5t-43 -17.5q-27 0 -44.5 17.5t-17.5 46.5zM334 96q0 29 17 46.5t40 17.5q29 0 47.5 -17.5t18.5 -46.5q0 -23 -18.5 -43t-47.5 -20q-23 0 -40 20.5t-17 42.5zM334 1026q0 23 17.5 43.5t39.5 20.5q29 0 47.5 -20.5t18.5 -43.5q0 -29 -18.5 -46 t-47.5 -17q-23 0 -40 17t-17 46zM530 61q0 25 17.5 42.5t44.5 17.5q25 0 43 -17.5t18 -42.5q0 -27 -18.5 -45t-42.5 -18q-27 0 -44.5 18.5t-17.5 44.5zM530 1057q0 29 17.5 46t44.5 17q25 0 43 -17.5t18 -45.5q0 -23 -18.5 -41.5t-42.5 -18.5q-27 0 -44.5 18.5t-17.5 41.5z M709 96q0 29 18 46.5t47 17.5q23 0 40 -17.5t17 -46.5q0 -23 -17 -43t-40 -20q-29 0 -47 20.5t-18 42.5zM709 1026q0 23 18 43.5t47 20.5q23 0 40 -20.5t17 -43.5q0 -29 -17 -46t-40 -17q-29 0 -47 17t-18 46zM864 199q0 29 18.5 46t43.5 17q27 0 44 -17.5t17 -45.5 q0 -23 -17.5 -41.5t-43.5 -18.5q-25 0 -43.5 18.5t-18.5 41.5zM864 924q0 23 18.5 41t43.5 18q27 0 44 -18.5t17 -40.5q0 -29 -17 -46.5t-44 -17.5q-25 0 -43.5 17.5t-18.5 46.5zM979 354q0 29 18 46.5t47 17.5q23 0 42.5 -17.5t19.5 -46.5q0 -23 -19.5 -43t-42.5 -20 q-29 0 -47 20.5t-18 42.5zM979 768q0 23 18.5 43t46.5 20q23 0 42.5 -20t19.5 -43q0 -27 -19.5 -45t-42.5 -18q-29 0 -47 18t-18 45zM1022 567q0 25 18 42.5t43 17.5q27 0 44.5 -17.5t17.5 -42.5q0 -27 -17.5 -45t-44.5 -18q-25 0 -43 18.5t-18 44.5z" />
<glyph unicode="&#x1060;" horiz-adv-x="1349" d="M-70 -717q0 55 86 193v-15l480 623h215l-535 -746h748v-172q-242 0 -449 -1t-432 -1q-51 18 -82 47t-31 72zM20 567q0 25 17.5 42.5t44.5 17.5q25 0 43 -17.5t18 -42.5q0 -27 -18.5 -45t-42.5 -18q-27 0 -44.5 18.5t-17.5 44.5zM59 354q0 29 19.5 46.5t42.5 17.5 q29 0 47 -17.5t18 -46.5q0 -23 -18 -43t-47 -20q-23 0 -42.5 20.5t-19.5 42.5zM59 768q0 23 19.5 43t42.5 20q29 0 47 -20t18 -43q0 -27 -18 -45t-47 -18q-23 0 -42.5 18t-19.5 45zM178 199q0 29 17.5 46t44.5 17q25 0 43 -17.5t18 -45.5q0 -23 -18.5 -41.5t-42.5 -18.5 q-27 0 -44.5 18.5t-17.5 41.5zM178 924q0 23 17.5 41t44.5 18q25 0 43 -18.5t18 -40.5q0 -29 -18 -46.5t-43 -17.5q-27 0 -44.5 17.5t-17.5 46.5zM334 96q0 29 17 46.5t40 17.5q29 0 47.5 -17.5t18.5 -46.5q0 -23 -18.5 -43t-47.5 -20q-23 0 -40 20.5t-17 42.5zM334 1026 q0 23 17.5 43.5t39.5 20.5q29 0 47.5 -20.5t18.5 -43.5q0 -29 -18.5 -46t-47.5 -17q-23 0 -40 17t-17 46zM530 61q0 25 17.5 42.5t44.5 17.5q25 0 43 -17.5t18 -42.5q0 -27 -18.5 -45t-42.5 -18q-27 0 -44.5 18.5t-17.5 44.5zM530 1057q0 29 17.5 46t44.5 17q25 0 43 -17.5 t18 -45.5q0 -23 -18.5 -41.5t-42.5 -18.5q-27 0 -44.5 18.5t-17.5 41.5zM709 96q0 29 18 46.5t47 17.5q23 0 40 -17.5t17 -46.5q0 -23 -17 -43t-40 -20q-29 0 -47 20.5t-18 42.5zM709 1026q0 23 18 43.5t47 20.5q23 0 40 -20.5t17 -43.5q0 -29 -17 -46t-40 -17q-29 0 -47 17 t-18 46zM864 199q0 29 18.5 46t43.5 17q27 0 44 -17.5t17 -45.5q0 -23 -17.5 -41.5t-43.5 -18.5q-25 0 -43.5 18.5t-18.5 41.5zM864 924q0 23 18.5 41t43.5 18q27 0 44 -18.5t17 -40.5q0 -29 -17 -46.5t-44 -17.5q-25 0 -43.5 17.5t-18.5 46.5zM979 354q0 29 18 46.5 t47 17.5q23 0 42.5 -17.5t19.5 -46.5q0 -23 -19.5 -43t-42.5 -20q-29 0 -47 20.5t-18 42.5zM979 768q0 23 18.5 43t46.5 20q23 0 42.5 -20t19.5 -43q0 -27 -19.5 -45t-42.5 -18q-29 0 -47 18t-18 45zM1022 567q0 25 18 42.5t43 17.5q27 0 44.5 -17.5t17.5 -42.5 q0 -27 -17.5 -45t-44.5 -18q-25 0 -43 18.5t-18 44.5z" />
<glyph unicode="&#x1061;" horiz-adv-x="1372" d="M0 565q0 254 166 418q170 164 424 164q252 0 416 -164q160 -162 161 -408v-1409h-170l-2 1409q-2 162 -116 279q-115 117 -289 117q-180 0 -297 -115q-98 -92 -117 -233q254 0 418 -164q29 -31 51.5 -66t43 -85t35.5 -120.5t32 -189.5l-51 -12q0 -166 -1.5 -337 t-1.5 -351q-4 -98 -143 -132q-68 0 -132.5 1.5t-150.5 1.5v178h254v635q-221 14 -366 159q-164 164 -164 424zM186 446q31 -104 105 -178q104 -104 276 -112q-31 104 -100 174q-57 53 -133 83.5t-148 32.5z" />
<glyph unicode="&#x1062;" horiz-adv-x="1789" d="M20 567q0 25 17.5 42.5t44.5 17.5q25 0 43 -17.5t18 -42.5q0 -27 -18.5 -45t-42.5 -18q-27 0 -44.5 18.5t-17.5 44.5zM59 354q0 29 19.5 46.5t42.5 17.5q29 0 47 -17.5t18 -46.5q0 -23 -18 -43t-47 -20q-23 0 -42.5 20.5t-19.5 42.5zM59 768q0 23 19.5 43t42.5 20 q29 0 47 -20t18 -43q0 -27 -18 -45t-47 -18q-23 0 -42.5 18t-19.5 45zM178 199q0 29 17.5 46t44.5 17q25 0 43 -17.5t18 -45.5q0 -23 -18.5 -41.5t-42.5 -18.5q-27 0 -44.5 18.5t-17.5 41.5zM178 924q0 23 17.5 41t44.5 18q25 0 43 -18.5t18 -40.5q0 -29 -18 -46.5 t-43 -17.5q-27 0 -44.5 17.5t-17.5 46.5zM334 96q0 29 17 46.5t40 17.5q29 0 47.5 -17.5t18.5 -46.5q0 -23 -18.5 -43t-47.5 -20q-23 0 -40 20.5t-17 42.5zM334 1026q0 23 17.5 43.5t39.5 20.5q29 0 47.5 -20.5t18.5 -43.5q0 -29 -18.5 -46t-47.5 -17q-23 0 -40 17t-17 46z M530 61q0 25 17.5 42.5t44.5 17.5q25 0 43 -17.5t18 -42.5q0 -27 -18.5 -45t-42.5 -18q-27 0 -44.5 18.5t-17.5 44.5zM530 1057q0 29 17.5 46t44.5 17q25 0 43 -17.5t18 -45.5q0 -23 -18.5 -41.5t-42.5 -18.5q-27 0 -44.5 18.5t-17.5 41.5zM709 96q0 29 18 46.5t47 17.5 q23 0 40 -17.5t17 -46.5q0 -23 -17 -43t-40 -20q-29 0 -47 20.5t-18 42.5zM709 1026q0 23 18 43.5t47 20.5q23 0 40 -20.5t17 -43.5q0 -29 -17 -46t-40 -17q-29 0 -47 17t-18 46zM864 199q0 29 18.5 46t43.5 17q27 0 44 -17.5t17 -45.5q0 -23 -17.5 -41.5t-43.5 -18.5 q-25 0 -43.5 18.5t-18.5 41.5zM864 924q0 23 18.5 41t43.5 18q27 0 44 -18.5t17 -40.5q0 -29 -17 -46.5t-44 -17.5q-25 0 -43.5 17.5t-18.5 46.5zM979 354q0 29 18 46.5t47 17.5q23 0 42.5 -17.5t19.5 -46.5q0 -23 -19.5 -43t-42.5 -20q-29 0 -47 20.5t-18 42.5zM979 768 q0 23 18.5 43t46.5 20q23 0 42.5 -20t19.5 -43q0 -27 -19.5 -45t-42.5 -18q-29 0 -47 18t-18 45zM1022 567q0 25 18 42.5t43 17.5q27 0 44.5 -17.5t17.5 -42.5q0 -27 -17.5 -45t-44.5 -18q-25 0 -43 18.5t-18 44.5zM1128 971v174h457v-1163h-172l-2 989h-283z" />
<glyph unicode="&#x1063;" horiz-adv-x="2617" d="M20 567q0 25 17.5 42.5t44.5 17.5q25 0 43 -17.5t18 -42.5q0 -27 -18.5 -45t-42.5 -18q-27 0 -44.5 18.5t-17.5 44.5zM59 354q0 29 19.5 46.5t42.5 17.5q29 0 47 -17.5t18 -46.5q0 -23 -18 -43t-47 -20q-23 0 -42.5 20.5t-19.5 42.5zM59 768q0 23 19.5 43t42.5 20 q29 0 47 -20t18 -43q0 -27 -18 -45t-47 -18q-23 0 -42.5 18t-19.5 45zM178 199q0 29 17.5 46t44.5 17q25 0 43 -17.5t18 -45.5q0 -23 -18.5 -41.5t-42.5 -18.5q-27 0 -44.5 18.5t-17.5 41.5zM178 924q0 23 17.5 41t44.5 18q25 0 43 -18.5t18 -40.5q0 -29 -18 -46.5 t-43 -17.5q-27 0 -44.5 17.5t-17.5 46.5zM334 96q0 29 17 46.5t40 17.5q29 0 47.5 -17.5t18.5 -46.5q0 -23 -18.5 -43t-47.5 -20q-23 0 -40 20.5t-17 42.5zM334 1026q0 23 17.5 43.5t39.5 20.5q29 0 47.5 -20.5t18.5 -43.5q0 -29 -18.5 -46t-47.5 -17q-23 0 -40 17t-17 46z M530 61q0 25 17.5 42.5t44.5 17.5q25 0 43 -17.5t18 -42.5q0 -27 -18.5 -45t-42.5 -18q-27 0 -44.5 18.5t-17.5 44.5zM530 1057q0 29 17.5 46t44.5 17q25 0 43 -17.5t18 -45.5q0 -23 -18.5 -41.5t-42.5 -18.5q-27 0 -44.5 18.5t-17.5 41.5zM709 96q0 29 18 46.5t47 17.5 q23 0 40 -17.5t17 -46.5q0 -23 -17 -43t-40 -20q-29 0 -47 20.5t-18 42.5zM709 1026q0 23 18 43.5t47 20.5q23 0 40 -20.5t17 -43.5q0 -29 -17 -46t-40 -17q-29 0 -47 17t-18 46zM864 199q0 29 18.5 46t43.5 17q27 0 44 -17.5t17 -45.5q0 -23 -17.5 -41.5t-43.5 -18.5 q-25 0 -43.5 18.5t-18.5 41.5zM864 924q0 23 18.5 41t43.5 18q27 0 44 -18.5t17 -40.5q0 -29 -17 -46.5t-44 -17.5q-25 0 -43.5 17.5t-18.5 46.5zM979 354q0 29 18 46.5t47 17.5q23 0 42.5 -17.5t19.5 -46.5q0 -23 -19.5 -43t-42.5 -20q-29 0 -47 20.5t-18 42.5zM979 768 q0 23 18.5 43t46.5 20q23 0 42.5 -20t19.5 -43q0 -27 -19.5 -45t-42.5 -18q-29 0 -47 18t-18 45zM1022 567q0 25 18 42.5t43 17.5q27 0 44.5 -17.5t17.5 -42.5q0 -27 -17.5 -45t-44.5 -18q-25 0 -43 18.5t-18 44.5zM1298 786q27 66 56.5 107t66.5 78q170 164 420 164 t410 -164q162 -160 162 -412q0 -129 -41 -232.5t-123 -185.5q-162 -162 -408 -161q-219 0 -371 114q0 -193 -1 -433.5t-1 -496.5h-168v1151l160 74q25 -51 42.5 -73.5t43.5 -51.5q117 -111 295 -110q174 0 285 116q117 117 117 289q0 170 -117 285q-115 117 -285 117 q-172 0 -293 -115q-27 -27 -45 -53.5t-43 -75.5q-53 25 -81.5 38t-80.5 31z" />
<glyph unicode="&#x1064;" horiz-adv-x="1871" d="M20 567q0 25 17.5 42.5t44.5 17.5q25 0 43 -17.5t18 -42.5q0 -27 -18.5 -45t-42.5 -18q-27 0 -44.5 18.5t-17.5 44.5zM59 354q0 29 19.5 46.5t42.5 17.5q29 0 47 -17.5t18 -46.5q0 -23 -18 -43t-47 -20q-23 0 -42.5 20.5t-19.5 42.5zM59 768q0 23 19.5 43t42.5 20 q29 0 47 -20t18 -43q0 -27 -18 -45t-47 -18q-23 0 -42.5 18t-19.5 45zM178 199q0 29 17.5 46t44.5 17q25 0 43 -17.5t18 -45.5q0 -23 -18.5 -41.5t-42.5 -18.5q-27 0 -44.5 18.5t-17.5 41.5zM178 924q0 23 17.5 41t44.5 18q25 0 43 -18.5t18 -40.5q0 -29 -18 -46.5 t-43 -17.5q-27 0 -44.5 17.5t-17.5 46.5zM334 96q0 29 17 46.5t40 17.5q29 0 47.5 -17.5t18.5 -46.5q0 -23 -18.5 -43t-47.5 -20q-23 0 -40 20.5t-17 42.5zM334 1026q0 23 17.5 43.5t39.5 20.5q29 0 47.5 -20.5t18.5 -43.5q0 -29 -18.5 -46t-47.5 -17q-23 0 -40 17t-17 46z M530 61q0 25 17.5 42.5t44.5 17.5q25 0 43 -17.5t18 -42.5q0 -27 -18.5 -45t-42.5 -18q-27 0 -44.5 18.5t-17.5 44.5zM530 1057q0 29 17.5 46t44.5 17q25 0 43 -17.5t18 -45.5q0 -23 -18.5 -41.5t-42.5 -18.5q-27 0 -44.5 18.5t-17.5 41.5zM612 -23q-35 0 33 0h-33zM709 96 q0 29 18 46.5t47 17.5q23 0 40 -17.5t17 -46.5q0 -23 -17 -43t-40 -20q-29 0 -47 20.5t-18 42.5zM709 1026q0 23 18 43.5t47 20.5q23 0 40 -20.5t17 -43.5q0 -29 -17 -46t-40 -17q-29 0 -47 17t-18 46zM864 199q0 29 18.5 46t43.5 17q27 0 44 -17.5t17 -45.5 q0 -23 -17.5 -41.5t-43.5 -18.5q-25 0 -43.5 18.5t-18.5 41.5zM864 924q0 23 18.5 41t43.5 18q27 0 44 -18.5t17 -40.5q0 -29 -17 -46.5t-44 -17.5q-25 0 -43.5 17.5t-18.5 46.5zM979 354q0 29 18 46.5t47 17.5q23 0 42.5 -17.5t19.5 -46.5q0 -23 -19.5 -43t-42.5 -20 q-29 0 -47 20.5t-18 42.5zM979 768q0 23 18.5 43t46.5 20q23 0 42.5 -20t19.5 -43q0 -27 -19.5 -45t-42.5 -18q-29 0 -47 18t-18 45zM1022 567q0 25 18 42.5t43 17.5q27 0 44.5 -17.5t17.5 -42.5q0 -27 -17.5 -45t-44.5 -18q-25 0 -43 18.5t-18 44.5zM1210 969v176h457v-993 h285v-172q-127 0 -227.5 -1.5t-229.5 -1.5l-2 992h-283z" />
<glyph unicode="&#x1065;" horiz-adv-x="1333" d="M0 799q31 63 61.5 106t67.5 78q170 164 424 164q250 0 414 -164q162 -162 161 -418q0 -254 -163 -422q-164 -164 -412 -163q-266 0 -426 161q-72 68 -125 178l166 74q20 -51 38.5 -73.5t45.5 -51.5q119 -113 301 -112q174 0 285 116q121 119 120 293q0 172 -120 289 q-111 117 -285 117q-178 0 -299 -115q-51 -53 -86 -129q-55 23 -84 36t-84 36z" />
<glyph unicode="&#x1066;" horiz-adv-x="1372" d="M0 551q0 299 164 475q37 37 77 63.5t105 59.5q23 -57 37 -86t33 -82q-47 -25 -77 -43t-50 -39q-115 -131 -115 -348q0 -178 119 -291q119 -117 297 -117q172 0 289 117t116 291q0 211 -116 344q-27 23 -56.5 44.5t-83.5 45.5l86 160q106 -49 179 -121q164 -186 163 -473 q0 -242 -143 -399q0 -215 -1 -424t-1 -430q-4 -98 -143 -132h-560v172h531v685q-115 -53 -260 -54q-254 0 -424 164q-166 162 -166 418z" />
<glyph unicode="&#x1067;" horiz-adv-x="1923" d="M20 567q0 25 17.5 42.5t44.5 17.5q25 0 43 -17.5t18 -42.5q0 -27 -18.5 -45t-42.5 -18q-27 0 -44.5 18.5t-17.5 44.5zM59 354q0 29 19.5 46.5t42.5 17.5q29 0 47 -17.5t18 -46.5q0 -23 -18 -43t-47 -20q-23 0 -42.5 20.5t-19.5 42.5zM59 768q0 23 19.5 43t42.5 20 q29 0 47 -20t18 -43q0 -27 -18 -45t-47 -18q-23 0 -42.5 18t-19.5 45zM178 199q0 29 17.5 46t44.5 17q25 0 43 -17.5t18 -45.5q0 -23 -18.5 -41.5t-42.5 -18.5q-27 0 -44.5 18.5t-17.5 41.5zM178 924q0 23 17.5 41t44.5 18q25 0 43 -18.5t18 -40.5q0 -29 -18 -46.5 t-43 -17.5q-27 0 -44.5 17.5t-17.5 46.5zM334 96q0 29 17 46.5t40 17.5q29 0 47.5 -17.5t18.5 -46.5q0 -23 -18.5 -43t-47.5 -20q-23 0 -40 20.5t-17 42.5zM334 1026q0 23 17.5 43.5t39.5 20.5q29 0 47.5 -20.5t18.5 -43.5q0 -29 -18.5 -46t-47.5 -17q-23 0 -40 17t-17 46z M530 61q0 25 17.5 42.5t44.5 17.5q25 0 43 -17.5t18 -42.5q0 -27 -18.5 -45t-42.5 -18q-27 0 -44.5 18.5t-17.5 44.5zM530 1057q0 29 17.5 46t44.5 17q25 0 43 -17.5t18 -45.5q0 -23 -18.5 -41.5t-42.5 -18.5q-27 0 -44.5 18.5t-17.5 41.5zM709 96q0 29 18 46.5t47 17.5 q23 0 40 -17.5t17 -46.5q0 -23 -17 -43t-40 -20q-29 0 -47 20.5t-18 42.5zM709 1026q0 23 18 43.5t47 20.5q23 0 40 -20.5t17 -43.5q0 -29 -17 -46t-40 -17q-29 0 -47 17t-18 46zM864 199q0 29 18.5 46t43.5 17q27 0 44 -17.5t17 -45.5q0 -23 -17.5 -41.5t-43.5 -18.5 q-25 0 -43.5 18.5t-18.5 41.5zM864 924q0 23 18.5 41t43.5 18q27 0 44 -18.5t17 -40.5q0 -29 -17 -46.5t-44 -17.5q-25 0 -43.5 17.5t-18.5 46.5zM979 354q0 29 18 46.5t47 17.5q23 0 42.5 -17.5t19.5 -46.5q0 -23 -19.5 -43t-42.5 -20q-29 0 -47 20.5t-18 42.5zM979 768 q0 23 18.5 43t46.5 20q23 0 42.5 -20t19.5 -43q0 -27 -19.5 -45t-42.5 -18q-29 0 -47 18t-18 45zM1022 567q0 25 18 42.5t43 17.5q27 0 44.5 -17.5t17.5 -42.5q0 -27 -17.5 -45t-44.5 -18q-25 0 -43 18.5t-18 44.5zM1290 193q0 43 17.5 81.5t46 66.5t68.5 45t85 17 q37 0 43 -2q0 162 -1 345.5t-1 396.5h170v-397.5v-256v-160v-86v-37.5v-13q0 -45 -17.5 -85t-45 -69t-66.5 -46.5t-82 -17.5q-90 0 -153.5 64t-63.5 154zM1427 193q0 -33 24 -56.5t56 -23.5q33 0 57.5 23.5t24.5 56.5t-24.5 57t-57.5 24t-56.5 -24t-23.5 -57z" />
<glyph unicode="&#x1068;" horiz-adv-x="1978" d="M20 567q0 25 17.5 42.5t44.5 17.5q25 0 43 -17.5t18 -42.5q0 -27 -18.5 -45t-42.5 -18q-27 0 -44.5 18.5t-17.5 44.5zM59 354q0 29 19.5 46.5t42.5 17.5q29 0 47 -17.5t18 -46.5q0 -23 -18 -43t-47 -20q-23 0 -42.5 20.5t-19.5 42.5zM59 768q0 23 19.5 43t42.5 20 q29 0 47 -20t18 -43q0 -27 -18 -45t-47 -18q-23 0 -42.5 18t-19.5 45zM178 199q0 29 17.5 46t44.5 17q25 0 43 -17.5t18 -45.5q0 -23 -18.5 -41.5t-42.5 -18.5q-27 0 -44.5 18.5t-17.5 41.5zM178 924q0 23 17.5 41t44.5 18q25 0 43 -18.5t18 -40.5q0 -29 -18 -46.5 t-43 -17.5q-27 0 -44.5 17.5t-17.5 46.5zM334 96q0 29 17 46.5t40 17.5q29 0 47.5 -17.5t18.5 -46.5q0 -23 -18.5 -43t-47.5 -20q-23 0 -40 20.5t-17 42.5zM334 1026q0 23 17.5 43.5t39.5 20.5q29 0 47.5 -20.5t18.5 -43.5q0 -29 -18.5 -46t-47.5 -17q-23 0 -40 17t-17 46z M530 61q0 25 17.5 42.5t44.5 17.5q25 0 43 -17.5t18 -42.5q0 -27 -18.5 -45t-42.5 -18q-27 0 -44.5 18.5t-17.5 44.5zM530 1057q0 29 17.5 46t44.5 17q25 0 43 -17.5t18 -45.5q0 -23 -18.5 -41.5t-42.5 -18.5q-27 0 -44.5 18.5t-17.5 41.5zM709 96q0 29 18 46.5t47 17.5 q23 0 40 -17.5t17 -46.5q0 -23 -17 -43t-40 -20q-29 0 -47 20.5t-18 42.5zM709 1026q0 23 18 43.5t47 20.5q23 0 40 -20.5t17 -43.5q0 -29 -17 -46t-40 -17q-29 0 -47 17t-18 46zM864 199q0 29 18.5 46t43.5 17q27 0 44 -17.5t17 -45.5q0 -23 -17.5 -41.5t-43.5 -18.5 q-25 0 -43.5 18.5t-18.5 41.5zM864 924q0 23 18.5 41t43.5 18q27 0 44 -18.5t17 -40.5q0 -29 -17 -46.5t-44 -17.5q-25 0 -43.5 17.5t-18.5 46.5zM979 354q0 29 18 46.5t47 17.5q23 0 42.5 -17.5t19.5 -46.5q0 -23 -19.5 -43t-42.5 -20q-29 0 -47 20.5t-18 42.5zM979 768 q0 23 18.5 43t46.5 20q23 0 42.5 -20t19.5 -43q0 -27 -19.5 -45t-42.5 -18q-29 0 -47 18t-18 45zM1022 567q0 25 18 42.5t43 17.5q27 0 44.5 -17.5t17.5 -42.5q0 -27 -17.5 -45t-44.5 -18q-25 0 -43 18.5t-18 44.5zM1237 -20v174h365q0 127 2 289.5t2 332.5h168v-796h-537z M1454 1085q0 43 17.5 83t47 69t69.5 46t85 17q43 0 83 -17t67.5 -46t45 -69t17.5 -83q0 -45 -16.5 -84.5t-45 -69.5t-68.5 -47.5t-83 -17.5q-45 0 -85 17.5t-69.5 47.5t-47 69.5t-17.5 84.5zM1593 1085q0 -33 23.5 -56t56.5 -23t58.5 23.5t25.5 55.5q0 33 -25.5 58.5 t-58.5 25.5t-56.5 -25.5t-23.5 -58.5z" />
<glyph unicode="&#x1069;" horiz-adv-x="1988" d="M20 567q0 25 17.5 42.5t44.5 17.5q25 0 43 -17.5t18 -42.5q0 -27 -18.5 -45t-42.5 -18q-27 0 -44.5 18.5t-17.5 44.5zM59 354q0 29 19.5 46.5t42.5 17.5q29 0 47 -17.5t18 -46.5q0 -23 -18 -43t-47 -20q-23 0 -42.5 20.5t-19.5 42.5zM59 768q0 23 19.5 43t42.5 20 q29 0 47 -20t18 -43q0 -27 -18 -45t-47 -18q-23 0 -42.5 18t-19.5 45zM178 199q0 29 17.5 46t44.5 17q25 0 43 -17.5t18 -45.5q0 -23 -18.5 -41.5t-42.5 -18.5q-27 0 -44.5 18.5t-17.5 41.5zM178 924q0 23 17.5 41t44.5 18q25 0 43 -18.5t18 -40.5q0 -29 -18 -46.5 t-43 -17.5q-27 0 -44.5 17.5t-17.5 46.5zM334 96q0 29 17 46.5t40 17.5q29 0 47.5 -17.5t18.5 -46.5q0 -23 -18.5 -43t-47.5 -20q-23 0 -40 20.5t-17 42.5zM334 1026q0 23 17.5 43.5t39.5 20.5q29 0 47.5 -20.5t18.5 -43.5q0 -29 -18.5 -46t-47.5 -17q-23 0 -40 17t-17 46z M530 61q0 25 17.5 42.5t44.5 17.5q25 0 43 -17.5t18 -42.5q0 -27 -18.5 -45t-42.5 -18q-27 0 -44.5 18.5t-17.5 44.5zM530 1057q0 29 17.5 46t44.5 17q25 0 43 -17.5t18 -45.5q0 -23 -18.5 -41.5t-42.5 -18.5q-27 0 -44.5 18.5t-17.5 41.5zM709 96q0 29 18 46.5t47 17.5 q23 0 40 -17.5t17 -46.5q0 -23 -17 -43t-40 -20q-29 0 -47 20.5t-18 42.5zM709 1026q0 23 18 43.5t47 20.5q23 0 40 -20.5t17 -43.5q0 -29 -17 -46t-40 -17q-29 0 -47 17t-18 46zM864 199q0 29 18.5 46t43.5 17q27 0 44 -17.5t17 -45.5q0 -23 -17.5 -41.5t-43.5 -18.5 q-25 0 -43.5 18.5t-18.5 41.5zM864 924q0 23 18.5 41t43.5 18q27 0 44 -18.5t17 -40.5q0 -29 -17 -46.5t-44 -17.5q-25 0 -43.5 17.5t-18.5 46.5zM979 354q0 29 18 46.5t47 17.5q23 0 42.5 -17.5t19.5 -46.5q0 -23 -19.5 -43t-42.5 -20q-29 0 -47 20.5t-18 42.5zM979 768 q0 23 18.5 43t46.5 20q23 0 42.5 -20t19.5 -43q0 -27 -19.5 -45t-42.5 -18q-29 0 -47 18t-18 45zM1022 567q0 25 18 42.5t43 17.5q27 0 44.5 -17.5t17.5 -42.5q0 -27 -17.5 -45t-44.5 -18q-25 0 -43 18.5t-18 44.5zM1251 1036q98 59 201 60q72 0 133.5 -26t105.5 -70 t68.5 -106.5t24.5 -133.5q-4 -61 -25.5 -117.5t-53.5 -105t-69 -92.5t-73 -83q-20 -20 -46 -53t-47 -53q-14 -18 -17 -31.5t1 -21.5t22.5 -17.5t57.5 -11.5q12 2 28.5 6t34.5 56h146q-6 -86 -33 -125t-62.5 -59.5t-72.5 -26t-66 -5.5q-123 0 -185 59.5t-62 139.5t45 146.5 t106 130.5l17 18q25 27 49 52.5t44.5 53t36 62.5t23.5 80q-6 55 -41 96t-90 41q-45 0 -96 -35z" />
<glyph unicode="&#x106a;" horiz-adv-x="1980" d="M20 567q0 25 17.5 42.5t44.5 17.5q25 0 43 -17.5t18 -42.5q0 -27 -18.5 -45t-42.5 -18q-27 0 -44.5 18.5t-17.5 44.5zM59 354q0 29 19.5 46.5t42.5 17.5q29 0 47 -17.5t18 -46.5q0 -23 -18 -43t-47 -20q-23 0 -42.5 20.5t-19.5 42.5zM59 768q0 23 19.5 43t42.5 20 q29 0 47 -20t18 -43q0 -27 -18 -45t-47 -18q-23 0 -42.5 18t-19.5 45zM178 199q0 29 17.5 46t44.5 17q25 0 43 -17.5t18 -45.5q0 -23 -18.5 -41.5t-42.5 -18.5q-27 0 -44.5 18.5t-17.5 41.5zM178 924q0 23 17.5 41t44.5 18q25 0 43 -18.5t18 -40.5q0 -29 -18 -46.5 t-43 -17.5q-27 0 -44.5 17.5t-17.5 46.5zM334 96q0 29 17 46.5t40 17.5q29 0 47.5 -17.5t18.5 -46.5q0 -23 -18.5 -43t-47.5 -20q-23 0 -40 20.5t-17 42.5zM334 1026q0 23 17.5 43.5t39.5 20.5q29 0 47.5 -20.5t18.5 -43.5q0 -29 -18.5 -46t-47.5 -17q-23 0 -40 17t-17 46z M530 61q0 25 17.5 42.5t44.5 17.5q25 0 43 -17.5t18 -42.5q0 -27 -18.5 -45t-42.5 -18q-27 0 -44.5 18.5t-17.5 44.5zM530 1057q0 29 17.5 46t44.5 17q25 0 43 -17.5t18 -45.5q0 -23 -18.5 -41.5t-42.5 -18.5q-27 0 -44.5 18.5t-17.5 41.5zM709 96q0 29 18 46.5t47 17.5 q23 0 40 -17.5t17 -46.5q0 -23 -17 -43t-40 -20q-29 0 -47 20.5t-18 42.5zM709 1026q0 23 18 43.5t47 20.5q23 0 40 -20.5t17 -43.5q0 -29 -17 -46t-40 -17q-29 0 -47 17t-18 46zM864 199q0 29 18.5 46t43.5 17q27 0 44 -17.5t17 -45.5q0 -23 -17.5 -41.5t-43.5 -18.5 q-25 0 -43.5 18.5t-18.5 41.5zM864 924q0 23 18.5 41t43.5 18q27 0 44 -18.5t17 -40.5q0 -29 -17 -46.5t-44 -17.5q-25 0 -43.5 17.5t-18.5 46.5zM979 354q0 29 18 46.5t47 17.5q23 0 42.5 -17.5t19.5 -46.5q0 -23 -19.5 -43t-42.5 -20q-29 0 -47 20.5t-18 42.5zM979 768 q0 23 18.5 43t46.5 20q23 0 42.5 -20t19.5 -43q0 -27 -19.5 -45t-42.5 -18q-29 0 -47 18t-18 45zM1022 567q0 25 18 42.5t43 17.5q27 0 44.5 -17.5t17.5 -42.5q0 -27 -17.5 -45t-44.5 -18q-25 0 -43 18.5t-18 44.5zM1206 270l183 -2q10 -53 37.5 -77.5t66.5 -24.5 q43 0 74.5 31.5t38.5 81.5q0 207 -1 421.5t-1 444.5h172v-879q0 -59 -23.5 -111.5t-61.5 -90t-90.5 -60t-132.5 -22.5q-37 0 -88 20.5t-88 57t-60.5 86t-25.5 124.5z" />
<glyph unicode="&#x106b;" horiz-adv-x="1980" d="M20 567q0 25 17.5 42.5t44.5 17.5q25 0 43 -17.5t18 -42.5q0 -27 -18.5 -45t-42.5 -18q-27 0 -44.5 18.5t-17.5 44.5zM59 354q0 29 19.5 46.5t42.5 17.5q29 0 47 -17.5t18 -46.5q0 -23 -18 -43t-47 -20q-23 0 -42.5 20.5t-19.5 42.5zM59 768q0 23 19.5 43t42.5 20 q29 0 47 -20t18 -43q0 -27 -18 -45t-47 -18q-23 0 -42.5 18t-19.5 45zM178 199q0 29 17.5 46t44.5 17q25 0 43 -17.5t18 -45.5q0 -23 -18.5 -41.5t-42.5 -18.5q-27 0 -44.5 18.5t-17.5 41.5zM178 924q0 23 17.5 41t44.5 18q25 0 43 -18.5t18 -40.5q0 -29 -18 -46.5 t-43 -17.5q-27 0 -44.5 17.5t-17.5 46.5zM334 96q0 29 17 46.5t40 17.5q29 0 47.5 -17.5t18.5 -46.5q0 -23 -18.5 -43t-47.5 -20q-23 0 -40 20.5t-17 42.5zM334 1026q0 23 17.5 43.5t39.5 20.5q29 0 47.5 -20.5t18.5 -43.5q0 -29 -18.5 -46t-47.5 -17q-23 0 -40 17t-17 46z M530 61q0 25 17.5 42.5t44.5 17.5q25 0 43 -17.5t18 -42.5q0 -27 -18.5 -45t-42.5 -18q-27 0 -44.5 18.5t-17.5 44.5zM530 1057q0 29 17.5 46t44.5 17q25 0 43 -17.5t18 -45.5q0 -23 -18.5 -41.5t-42.5 -18.5q-27 0 -44.5 18.5t-17.5 41.5zM709 96q0 29 18 46.5t47 17.5 q23 0 40 -17.5t17 -46.5q0 -23 -17 -43t-40 -20q-29 0 -47 20.5t-18 42.5zM709 1026q0 23 18 43.5t47 20.5q23 0 40 -20.5t17 -43.5q0 -29 -17 -46t-40 -17q-29 0 -47 17t-18 46zM864 199q0 29 18.5 46t43.5 17q27 0 44 -17.5t17 -45.5q0 -23 -17.5 -41.5t-43.5 -18.5 q-25 0 -43.5 18.5t-18.5 41.5zM864 924q0 23 18.5 41t43.5 18q27 0 44 -18.5t17 -40.5q0 -29 -17 -46.5t-44 -17.5q-25 0 -43.5 17.5t-18.5 46.5zM979 354q0 29 18 46.5t47 17.5q23 0 42.5 -17.5t19.5 -46.5q0 -23 -19.5 -43t-42.5 -20q-29 0 -47 20.5t-18 42.5zM979 768 q0 23 18.5 43t46.5 20q23 0 42.5 -20t19.5 -43q0 -27 -19.5 -45t-42.5 -18q-29 0 -47 18t-18 45zM1022 567q0 25 18 42.5t43 17.5q27 0 44.5 -17.5t17.5 -42.5q0 -27 -17.5 -45t-44.5 -18q-25 0 -43 18.5t-18 44.5zM1206 856q2 76 25.5 125t60.5 86t88.5 57.5t108.5 20.5 q59 0 111.5 -22.5t90.5 -60.5t61.5 -90t23.5 -112v-878h-172q0 229 1 444t1 422q-6 49 -38 81t-75 32q-39 0 -66.5 -25t-37.5 -78z" />
<glyph unicode="&#x106c;" horiz-adv-x="2066" d="M20 567q0 25 17.5 42.5t44.5 17.5q25 0 43 -17.5t18 -42.5q0 -27 -18.5 -45t-42.5 -18q-27 0 -44.5 18.5t-17.5 44.5zM59 354q0 29 19.5 46.5t42.5 17.5q29 0 47 -17.5t18 -46.5q0 -23 -18 -43t-47 -20q-23 0 -42.5 20.5t-19.5 42.5zM59 768q0 23 19.5 43t42.5 20 q29 0 47 -20t18 -43q0 -27 -18 -45t-47 -18q-23 0 -42.5 18t-19.5 45zM178 199q0 29 17.5 46t44.5 17q25 0 43 -17.5t18 -45.5q0 -23 -18.5 -41.5t-42.5 -18.5q-27 0 -44.5 18.5t-17.5 41.5zM178 924q0 23 17.5 41t44.5 18q25 0 43 -18.5t18 -40.5q0 -29 -18 -46.5 t-43 -17.5q-27 0 -44.5 17.5t-17.5 46.5zM334 96q0 29 17 46.5t40 17.5q29 0 47.5 -17.5t18.5 -46.5q0 -23 -18.5 -43t-47.5 -20q-23 0 -40 20.5t-17 42.5zM334 1026q0 23 17.5 43.5t39.5 20.5q29 0 47.5 -20.5t18.5 -43.5q0 -29 -18.5 -46t-47.5 -17q-23 0 -40 17t-17 46z M530 61q0 25 17.5 42.5t44.5 17.5q25 0 43 -17.5t18 -42.5q0 -27 -18.5 -45t-42.5 -18q-27 0 -44.5 18.5t-17.5 44.5zM530 1057q0 29 17.5 46t44.5 17q25 0 43 -17.5t18 -45.5q0 -23 -18.5 -41.5t-42.5 -18.5q-27 0 -44.5 18.5t-17.5 41.5zM709 96q0 29 18 46.5t47 17.5 q23 0 40 -17.5t17 -46.5q0 -23 -17 -43t-40 -20q-29 0 -47 20.5t-18 42.5zM709 1026q0 23 18 43.5t47 20.5q23 0 40 -20.5t17 -43.5q0 -29 -17 -46t-40 -17q-29 0 -47 17t-18 46zM864 199q0 29 18.5 46t43.5 17q27 0 44 -17.5t17 -45.5q0 -23 -17.5 -41.5t-43.5 -18.5 q-25 0 -43.5 18.5t-18.5 41.5zM864 924q0 23 18.5 41t43.5 18q27 0 44 -18.5t17 -40.5q0 -29 -17 -46.5t-44 -17.5q-25 0 -43.5 17.5t-18.5 46.5zM979 354q0 29 18 46.5t47 17.5q23 0 42.5 -17.5t19.5 -46.5q0 -23 -19.5 -43t-42.5 -20q-29 0 -47 20.5t-18 42.5zM979 768 q0 23 18.5 43t46.5 20q23 0 42.5 -20t19.5 -43q0 -27 -19.5 -45t-42.5 -18q-29 0 -47 18t-18 45zM1022 567q0 25 18 42.5t43 17.5q27 0 44.5 -17.5t17.5 -42.5q0 -27 -17.5 -45t-44.5 -18q-25 0 -43 18.5t-18 44.5zM1282 268v877h174l-2 -864q6 -49 38 -81t75 -32 q39 0 68.5 24.5t39.5 79.5l187 2q-6 -80 -30 -129t-61.5 -85.5t-89 -57t-108.5 -20.5q-59 0 -112.5 22.5t-92.5 61t-62.5 91t-23.5 111.5z" />
<glyph unicode="&#x106d;" horiz-adv-x="1988" d="M20 567q0 25 17.5 42.5t44.5 17.5q25 0 43 -17.5t18 -42.5q0 -27 -18.5 -45t-42.5 -18q-27 0 -44.5 18.5t-17.5 44.5zM59 354q0 29 19.5 46.5t42.5 17.5q29 0 47 -17.5t18 -46.5q0 -23 -18 -43t-47 -20q-23 0 -42.5 20.5t-19.5 42.5zM59 768q0 23 19.5 43t42.5 20 q29 0 47 -20t18 -43q0 -27 -18 -45t-47 -18q-23 0 -42.5 18t-19.5 45zM178 199q0 29 17.5 46t44.5 17q25 0 43 -17.5t18 -45.5q0 -23 -18.5 -41.5t-42.5 -18.5q-27 0 -44.5 18.5t-17.5 41.5zM178 924q0 23 17.5 41t44.5 18q25 0 43 -18.5t18 -40.5q0 -29 -18 -46.5 t-43 -17.5q-27 0 -44.5 17.5t-17.5 46.5zM334 96q0 29 17 46.5t40 17.5q29 0 47.5 -17.5t18.5 -46.5q0 -23 -18.5 -43t-47.5 -20q-23 0 -40 20.5t-17 42.5zM334 1026q0 23 17.5 43.5t39.5 20.5q29 0 47.5 -20.5t18.5 -43.5q0 -29 -18.5 -46t-47.5 -17q-23 0 -40 17t-17 46z M530 61q0 25 17.5 42.5t44.5 17.5q25 0 43 -17.5t18 -42.5q0 -27 -18.5 -45t-42.5 -18q-27 0 -44.5 18.5t-17.5 44.5zM530 1057q0 29 17.5 46t44.5 17q25 0 43 -17.5t18 -45.5q0 -23 -18.5 -41.5t-42.5 -18.5q-27 0 -44.5 18.5t-17.5 41.5zM709 96q0 29 18 46.5t47 17.5 q23 0 40 -17.5t17 -46.5q0 -23 -17 -43t-40 -20q-29 0 -47 20.5t-18 42.5zM709 1026q0 23 18 43.5t47 20.5q23 0 40 -20.5t17 -43.5q0 -29 -17 -46t-40 -17q-29 0 -47 17t-18 46zM864 199q0 29 18.5 46t43.5 17q27 0 44 -17.5t17 -45.5q0 -23 -17.5 -41.5t-43.5 -18.5 q-25 0 -43.5 18.5t-18.5 41.5zM864 924q0 23 18.5 41t43.5 18q27 0 44 -18.5t17 -40.5q0 -29 -17 -46.5t-44 -17.5q-25 0 -43.5 17.5t-18.5 46.5zM979 354q0 29 18 46.5t47 17.5q23 0 42.5 -17.5t19.5 -46.5q0 -23 -19.5 -43t-42.5 -20q-29 0 -47 20.5t-18 42.5zM979 768 q0 23 18.5 43t46.5 20q23 0 42.5 -20t19.5 -43q0 -27 -19.5 -45t-42.5 -18q-29 0 -47 18t-18 45zM1022 567q0 25 18 42.5t43 17.5q27 0 44.5 -17.5t17.5 -42.5q0 -27 -17.5 -45t-44.5 -18q-25 0 -43 18.5t-18 44.5zM1251 80l105 172q51 -35 96 -35q55 0 90 41t41 96 q-8 45 -23.5 80t-36 62.5t-45 53t-48.5 52.5l-17 19q-61 63 -106 129.5t-45 146.5t62 139.5t185 59.5q29 0 66 -5.5t72.5 -27t62.5 -60t33 -122.5h-146q-18 51 -34.5 55t-28.5 6q-39 -2 -57.5 -11t-22.5 -17.5t-1 -21.5t17 -32q20 -20 46 -53t47 -53q37 -39 73.5 -83 t68.5 -92.5t53.5 -104.5t25.5 -118q0 -72 -24.5 -134t-68.5 -106t-105.5 -70t-133.5 -26q-102 0 -201 60z" />
<glyph unicode="&#x106e;" horiz-adv-x="2566" d="M0 565q0 254 166 418q170 164 424 164q213 0 364 -119q31 45 95.5 81t138.5 36q70 0 133 -35t96 -78q68 51 164 83t203 32q252 0 416 -164q162 -162 161 -418q0 -254 -163 -422q-164 -164 -414 -163q-82 0 -176 18l55 168q41 -6 64.5 -8t56.5 -2q178 0 289 116 q119 119 118 293q0 172 -118 289q-111 117 -289 117q-176 0 -297 -115l-8 -8q8 -25 15 -70t12 -90t7.5 -86t2.5 -65q0 -90 -11.5 -162t-35 -133.5t-59.5 -121t-95 -138.5l-150 110q51 70 82 115t51.5 93t31.5 105.5t11 135.5q0 23 -2 61.5t-6 82.5t-11 86t-17 71 q-14 49 -43 82.5t-70 33.5q-39 0 -67.5 -25.5t-37.5 -58.5q80 -131 80 -309q0 -291 -163 -473q-35 -37 -75 -65.5t-106 -55.5q-27 51 -41 77t-43 81q55 25 83 45.5t57 46.5q117 131 116 344q0 172 -116 289q-115 117 -289 117q-176 0 -297 -115q-119 -117 -119 -291 q0 -217 115 -348q25 -27 51.5 -43t77.5 -41q-23 -55 -37 -82.5t-33 -81.5q-115 49 -184 121q-164 176 -164 475z" />
<glyph unicode="&#x106f;" horiz-adv-x="2289" d="M0 551q0 299 164 475q37 37 77 63.5t105 59.5q25 -57 38 -86t32 -82q-45 -25 -76 -43t-51 -39q-113 -131 -113 -348q0 -178 117 -291q123 -117 297 -117t289 117q119 117 118 291q0 213 -118 344q-25 23 -54.5 44.5t-83.5 45.5l82 160q109 -49 181 -121q18 -20 34.5 -43 t18.5 -25l26 27q170 164 424 164q252 0 416 -164q162 -162 162 -418q0 -244 -143 -401q0 -219 -1.5 -431t-1.5 -438q-4 -98 -141 -131q-68 0 -132 1t-150 1v179h253v688q-115 -53 -262 -53q-82 0 -176 18l55 168q41 -6 65 -8t56 -2q178 0 289 116q119 119 119 293 q0 172 -119 289q-111 117 -289 117q-176 0 -297 -115q-43 -47 -69 -92q14 -47 20 -101.5t6 -111.5q0 -256 -161 -418q-164 -164 -416 -164q-254 0 -424 164q-166 162 -166 418z" />
<glyph unicode="&#x1070;" horiz-adv-x="2289" d="M0 553q2 72 21.5 109.5t49 56t59.5 19.5t50 1q16 0 21.5 -1t11.5 3q47 2 76.5 34t29.5 75q0 45 -31.5 74.5t-74.5 29.5t-96 -53l-103 164q49 41 95.5 58.5t99.5 17.5q59 0 112.5 -22.5t91.5 -61.5t61.5 -91.5t23.5 -111.5t-23.5 -112.5t-61.5 -92.5t-91.5 -62.5 t-112.5 -23.5q-8 0 -21.5 1t-11.5 1v-12q0 -178 117 -291q123 -117 297 -117t289 117q119 117 118 291q0 213 -118 344q-25 23 -54.5 45.5t-83.5 46.5l84 158q106 -49 179 -121q164 -186 163 -473q0 -106 -28 -199q10 -20 29.5 -46.5t41.5 -47.5q59 -55 134 -86t163 -31 q174 0 289 117q119 117 119 291t-119 293q-115 117 -289 117q-57 0 -121 -11l-55 164q59 16 97 19.5t79 3.5q250 0 414 -166q164 -164 164 -420q0 -242 -143 -399q0 -215 -1.5 -424t-1.5 -433q-4 -98 -141 -131q-68 0 -132 1t-150 1v179h253v678q-115 -53 -262 -54 q-254 0 -424 164l-41 41q-2 -2 -14 -15.5t-22 -23.5q-164 -164 -416 -164q-254 0 -424 164q-166 162 -166 418z" />
</font>
</defs>
</svg>
