<?xml version="1.0" standalone="no"?>
<!DOCTYPE svg PUBLIC "-//W3C//DTD SVG 1.1//EN" "http://www.w3.org/Graphics/SVG/1.1/DTD/svg11.dtd" >
<svg xmlns="http://www.w3.org/2000/svg" xmlns:xlink="http://www.w3.org/1999/xlink" version="1.1">
<metadata></metadata>
<defs>
<font id="myanmar_njaunregular" horiz-adv-x="983" >
<font-face units-per-em="2048" ascent="1536" descent="-512" />
<missing-glyph horiz-adv-x="512" />
<glyph unicode="&#x103e;&#x102f;" horiz-adv-x="0" d="M-905 -451h123v410h229v-573h-352v163zM-430 -41h229v-410h123v-163h-352v573z" />
<glyph unicode="&#x1085;&#x1036;" horiz-adv-x="0" d="M-901 1325q0 78 57 139q-57 61 -57 140q0 219 293 219h108v-156h-108q-100 0 -101 -63q0 -61 101 -62h108v-156h-108q-100 0 -101 -61q0 -63 101 -63h108v-156h-108q-293 0 -293 219zM-477 1485q-1 205 198 205q197 0 197 -205t-197 -205q-199 0 -198 205zM-338 1485 q0 -61 59 -62q60 1 60 62t-60 61q-59 0 -59 -61z" />
<glyph unicode="&#x1085;&#x102d;" horiz-adv-x="0" d="M-899 1325q0 78 47 139q-47 61 -47 140q0 219 240 219h90v-156h-90q-82 0 -82 -63q0 -61 82 -62h90v-156h-90q-82 0 -82 -61q0 -63 82 -63h90v-156h-90q-240 0 -240 219zM-553 1352v225q0 246 238 246q236 0 235 -246v-225q0 -246 -235 -246q-238 0 -238 246zM-389 1352 q0 -113 72 -113t71 113v225q0 113 -71 113q-72 0 -72 -113v-225z" />
<glyph unicode="&#x1085;&#x102e;" horiz-adv-x="0" d="M-899 1325q0 78 47 139q-47 61 -47 140q0 219 240 219h90v-156h-90q-82 0 -82 -63q0 -61 82 -62h90v-156h-90q-82 0 -82 -61q0 -63 82 -63h90v-156h-90q-240 0 -240 219zM-553 1352v225q0 246 238 246q236 0 235 -246v-225q0 -246 -235 -246q-238 0 -238 246zM-389 1352 q0 -113 72 -113t71 113v43h-143v-43zM-389 1477h143v100q0 113 -71 113q-72 0 -72 -113v-100z" />
<glyph unicode="&#x102d;&#x1036;" horiz-adv-x="0" d="M-901 1352v225q0 246 221 246q219 0 219 -246v-225q0 -246 -219 -246q-221 0 -221 246zM-750 1352q0 -113 68 -113t68 113v225q0 113 -68 113t-68 -113v-225zM-449 1485q1 205 183 205q184 0 184 -205t-184 -205q-182 0 -183 205zM-322 1485q0 -61 56 -62q55 1 55 62 t-55 61t-56 -61z" />
<glyph unicode="&#x100d;&#x1039;&#x100d;" d="M82 84v498h229q0 -145 115 -146h129q117 0 117 146v166q0 147 -117 147h-129q-115 0 -115 -147h-229q0 317 344 317h129q346 0 346 -317v-166q0 -317 -346 -318h-129q-63 0 -115 12v-108q76 -8 181 -8q240 0 335 49h74v-660h123v-163h-352v622q-80 -8 -180 -8 q-287 0 -410 84zM82 -233q0 188 225 188h86q227 0 228 -188v-99q0 -188 -228 -188h-86q-41 0 -74 6v-64q49 -4 117 -4q158 0 221 29h50v-113h79v-96h-231v90q-53 -4 -119 -4q-188 0 -268 49v295h151q0 -86 74 -86h86q76 0 76 86v99q0 88 -76 88h-86q-74 0 -74 -88h-151z" />
<glyph unicode="&#x100e;&#x1039;&#x100d;" horiz-adv-x="1187" d="M82 365v172q0 193 139 262v69h-137v197h174q172 0 172 -152v-151h-2q0 -78 -58.5 -119t-58.5 -106v-172q0 -168 117 -168h289v49q-47 -4 -109 -4q-170 0 -237 49v78q90 -43 299 -43q82 0 131 28l43 -22v-99q33 41 33 132v335q0 168 -95 168v197q324 0 324 -365v-335 q0 -317 -262 -359v-328h76v-124h-203v446h-289q-346 0 -346 365zM371 483h133q0 -43 65 -43h74q70 0 70 74q0 72 -70 72h-74q-66 0 -65 -43h-133q0 119 198 119h74q201 0 201 -148q0 -150 -201 -149h-74q-199 0 -198 118z" />
<glyph unicode="&#x100f;&#x1039;&#x100d;" horiz-adv-x="1802" d="M82 365v335q0 365 346 365h68q135 0 217 -55q49 57 155 57h72q104 0 156 -55q82 53 213 53h67q344 0 344 -365v-335q0 -248 -157 -328q-8 -158 -170 -195q20 -51 20 -125v-90q0 -242 -274 -241h-303v145q68 0 67 96v90q0 96 -88 97h-172q-86 0 -86 -97v-90q0 -96 66 -96 v-145q-233 0 -234 241v90q0 242 254 242h172q254 0 254 -242v-90q0 -45 -8 -96h78q106 0 106 96v90q0 96 -53 97v145h88q90 0 121 41h-25v197q115 0 115 168v335q0 168 -115 168h-67q-117 0 -117 -168v-503q0 -197 -188 -197h-205q-188 0 -189 197v503q0 168 -114 168h-68 q-117 0 -117 -168v-335q0 -168 117 -168v-197q-346 0 -346 365zM774 948q66 -88 66 -248v-618h123v618q0 164 69 254q-31 31 -92 31h-72q-65 0 -94 -37z" />
<glyph unicode="&#x103e;&#x1030;" horiz-adv-x="0" d="M-901 -451h90v410h170v-573h-260v163zM-578 -41h172v-573h-172v573zM-342 -41h170v-410h90v-163h-260v573z" />
<glyph unicode="&#x102b;&#x103a;" horiz-adv-x="393" d="M-406 1366q0 365 359 365q156 0 244 -70q88 70 243 70q358 0 359 -365h-230q0 168 -129 168t-129 -168v-1366h-229v1366q0 168 -129 168t-129 -168h-230z" />
<glyph unicode="&#x103d;&#x1037;" horiz-adv-x="0" d="M-1034 -328q-1 287 327 287t328 -287t-328 -286q-328 0 -327 286zM-817 -328q0 -141 110 -141q111 0 111 141q0 142 -111 142t-110 -142zM-358 -328q-1 205 204 205t205 -205t-205 -204q-205 0 -204 204zM-215 -328q0 -61 61 -61q62 0 62 61t-62 62q-61 0 -61 -62z" />
<glyph unicode="&#xd;" horiz-adv-x="1040" />
<glyph unicode=" "  horiz-adv-x="512" />
<glyph unicode="&#x09;" horiz-adv-x="512" />
<glyph unicode="&#xa0;" horiz-adv-x="512" />
<glyph unicode="&#x1000;" horiz-adv-x="1572" d="M82 365v335q0 365 346 365h129q145 0 229 -66q84 66 232 66h129q344 0 344 -365v-335q0 -365 -344 -365v197q115 0 115 168v335q0 168 -115 168h-129q-117 0 -117 -168v-335q0 -365 -323 -365v197q94 0 94 168v335q0 168 -115 168h-129q-117 0 -117 -168v-335 q0 -168 97 -168v-197q-326 0 -326 365z" />
<glyph unicode="&#x1001;" d="M82 365v65h590v270q0 168 -115 168h-129q-117 0 -117 -168h-229q0 365 346 365h129q344 0 344 -365v-335q0 -365 -344 -365h-129q-346 0 -346 365zM311 348q6 -152 117 -151h129q109 0 115 151h-361z" />
<glyph unicode="&#x1002;" d="M82 365v335q0 365 346 365h129q344 0 344 -365v-335q0 -365 -323 -365v197q94 0 94 168v335q0 168 -115 168h-129q-117 0 -117 -168v-335q0 -168 97 -168v-197q-326 0 -326 365z" />
<glyph unicode="&#x1003;" horiz-adv-x="1572" d="M82 365v172q0 192 139 262v69h-137v197h174q172 0 172 -152v-151h-2q0 -78 -58.5 -119t-58.5 -106v-172q0 -168 117 -168h129q115 0 115 168v335q0 168 -94 168v197q324 0 323 -365v-335q0 -168 117 -168h129q115 0 115 168v335q0 168 -115 168v197q344 0 344 -365v-335 q0 -365 -344 -365h-129q-147 0 -232 66q-84 -66 -229 -66h-129q-346 0 -346 365z" />
<glyph unicode="&#x1004;" d="M82 365v335q0 365 346 365h129q344 0 344 -365h-229q0 168 -115 168h-129q-117 0 -117 -168v-335q0 -168 117 -168h129q115 0 115 168h229q0 -365 -344 -365h-129q-346 0 -346 365z" />
<glyph unicode="&#x1005;" d="M82 365v335q0 365 346 365h129q344 0 344 -365v-335q0 -365 -344 -365h-129q-346 0 -346 365zM311 379h74q55 0 55 78v153q0 76 -55 76h-74v-307zM317 297q20 -100 111 -100h129q115 0 115 168v335q0 168 -115 168h-129q-90 0 -111 -100h68q137 0 137 -158v-153 q0 -160 -137 -160h-68z" />
<glyph unicode="&#x1006;" horiz-adv-x="1572" d="M82 365v65h590v270q0 168 -115 168h-129q-117 0 -117 -168h-229q0 365 346 365h129q145 0 229 -66q84 66 232 66h129q344 0 344 -365v-335q0 -365 -344 -365h-129q-148 0 -232 66q-84 -66 -229 -66h-129q-346 0 -346 365zM311 348q6 -152 117 -151h129q109 0 115 151 h-361zM901 365q0 -168 117 -168h129q115 0 115 168v335q0 168 -115 168h-129q-117 0 -117 -168v-335z" />
<glyph unicode="&#x1007;" d="M82 365v335q0 365 344 365h129q346 0 346 -365v-96q0 -164 -147 -164q0 -35 90 -34h139v-144h-139q-172 0 -172 178h-74q-137 0 -137 164t137 164h68q-20 100 -111 100h-129q-115 0 -115 -168v-335q0 -168 115 -168h129q49 0 78 30l182 -135q-86 -92 -260 -92h-129 q-344 0 -344 365zM543 604q0 -82 55 -82h74v164h-74q-55 0 -55 -82z" />
<glyph unicode="&#x1008;" horiz-adv-x="1372" d="M82 365v335q0 365 346 365h129q344 0 344 -365v-335q0 -279 -201 -345v-270q0 -168 117 -168h129q115 0 115 168v1315h229v-1315q0 -365 -344 -364h-129q-346 0 -346 364v250h-43q-346 0 -346 365zM311 379h74q55 0 55 78v153q0 76 -55 76h-74v-307zM317 297 q20 -100 111 -100h129q115 0 115 168v335q0 168 -115 168h-129q-90 0 -111 -100h68q137 0 137 -158v-153q0 -160 -137 -160h-68z" />
<glyph unicode="&#x1009;" d="M82 365h229q0 -168 115 -168h129q117 0 117 168v335q0 168 -117 168h-129q-115 0 -115 -168h-229q0 365 344 365h129q346 0 346 -365v-335q0 -365 -346 -365h-129q-84 0 -147 23v-435q0 -150 167 -149h451q168 0 168 149v326h197v-326q0 -346 -365 -346h-451 q-365 0 -364 346v777z" />
<glyph unicode="&#x100a;" horiz-adv-x="1572" d="M82 365h229q0 -168 115 -168h129q117 0 117 168v335q0 168 -117 168h-129q-115 0 -115 -168h-229q0 365 344 365h129q346 0 346 -365v-335q0 -168 115 -168h129q117 0 117 168v335q0 168 -117 168v197q346 0 346 -365v-335q0 -365 -346 -365h-129q-145 0 -230 66 q-84 -66 -231 -66h-129q-84 0 -147 23v-435q0 -150 167 -149h680q168 0 168 149v326h197v-326q0 -346 -365 -346h-680q-365 0 -364 346v777z" />
<glyph unicode="&#x100b;" d="M82 -23h115q96 -57 376 -57q63 0 99 10v82q-51 -12 -115 -12h-129q-346 0 -346 365v335q0 365 346 365h129q344 0 344 -365h-229q0 168 -115 168h-129q-117 0 -117 -168v-335q0 -168 117 -168h129q115 0 115 168h229v-533q-123 -96 -307 -96q-213 0 -328 37v-92 q88 -41 328 -41q133 0 215 55l92 -41v-248h123v-164h-352v244q-78 -10 -180 -10q-279 0 -410 96v405z" />
<glyph unicode="&#x100c;" d="M82 365v335q0 365 346 365h129q344 0 344 -365h-229q0 168 -115 168h-129q-117 0 -117 -168v-335q0 -168 117 -168h129q115 0 115 168h229v-758q0 -365 -344 -365h-129q-346 0 -346 283t346 282h125v-196h-125q-117 0 -117 -86t117 -86h129q115 0 115 168v405 q-51 -12 -115 -12h-129q-346 0 -346 365z" />
<glyph unicode="&#x100d;" d="M82 -209v574h229q0 -168 115 -168h129q117 0 117 168v335q0 168 -117 168h-129q-115 0 -115 -168h-229q0 365 344 365h129q346 0 346 -365v-335q0 -365 -346 -365h-129q-63 0 -115 12v-123q76 -10 181 -10q240 0 335 58h74v-388h123v-163h-352v319q-80 -10 -180 -10 q-287 0 -410 96z" />
<glyph unicode="&#x100e;" d="M82 365v172q0 193 139 262v69h-137v197h174q172 0 172 -152v-151h-2q0 -78 -58.5 -118.5t-58.5 -106.5v-172q0 -168 117 -168h129q115 0 115 168v335q0 168 -94 168v197q324 0 323 -365v-335q0 -365 -344 -365h-129q-346 0 -346 365z" />
<glyph unicode="&#x100f;" horiz-adv-x="1802" d="M82 365v335q0 365 346 365h68q135 0 217 -55q49 57 155 57h72q105 0 156 -55q82 53 213 53h67q344 0 344 -365v-335q0 -365 -344 -365v197q115 0 115 168v335q0 168 -115 168h-67q-117 0 -117 -168v-503q0 -197 -188 -197h-205q-188 0 -189 197v503q0 168 -114 168h-68 q-117 0 -117 -168v-335q0 -168 117 -168v-197q-346 0 -346 365zM774 948q66 -88 66 -248v-618h123v618q0 164 69 254q-31 31 -92 31h-72q-65 0 -94 -37z" />
<glyph unicode="&#x1010;" horiz-adv-x="1572" d="M82 365v335q0 365 346 365h129q145 0 229 -66q84 66 232 66h129q344 0 344 -365v-335q0 -365 -344 -365v197q115 0 115 168v335q0 168 -115 168h-129q-117 0 -117 -168v-335q0 -365 -344 -365h-129q-346 0 -346 365zM311 365q0 -168 117 -168h129q115 0 115 168v335 q0 168 -115 168h-129q-117 0 -117 -168v-335z" />
<glyph unicode="&#x1011;" horiz-adv-x="1572" d="M82 365v335q0 365 346 365h129q145 0 229 -66q84 66 232 66h129q344 0 344 -365v-335q0 -365 -344 -365h-129q-147 0 -232 66q-84 -66 -229 -66h-129q-346 0 -346 365zM311 365q0 -168 117 -168h129q115 0 115 168v335q0 168 -115 168h-129q-117 0 -117 -168v-335z M901 365q0 -168 117 -168h129q115 0 115 168v335q0 168 -115 168h-129q-117 0 -117 -168v-335z" />
<glyph unicode="&#x1012;" d="M82 365h229q0 -168 115 -168h129q117 0 117 118q0 119 -117 119h-129v197h129q117 0 117 119t-117 118h-129q-115 0 -115 -168h-229q0 365 344 365h129q346 0 346 -315q0 -139 -67 -218q68 -78 67 -217q0 -315 -346 -315h-129q-344 0 -344 365z" />
<glyph unicode="&#x1013;" d="M82 365v335q0 365 346 365h129q344 0 344 -365v-335q0 -365 -344 -365h-129q-346 0 -346 365zM311 344q8 -147 117 -147h129q111 0 115 153q-29 20 -99 21h-153q-84 0 -109 -27zM311 438q43 14 109 15h153q57 0 99 -13v260q0 168 -115 168h-129q-117 0 -117 -168v-262z " />
<glyph unicode="&#x1014;" d="M82 307h2q0 137 158 137h153q160 0 160 -137v-110h2q115 0 115 168q0 109 -240 167q-254 63 -254 277q0 256 303 256q324 0 324 -283h-197q0 86 -127 86q-106 0 -106 -59q0 -57 104 -84q422 -104 422 -360q0 -338 -295 -363v-616h-229v616q-295 23 -295 305zM311 307 q0 -111 117 -110h45v110q0 55 -78 55q-84 0 -84 -55z" />
<glyph unicode="&#x1015;" d="M82 365v335q0 365 326 365v-197q-96 0 -97 -168v-335q0 -168 117 -168h129q115 0 115 168v335q0 168 -94 168v197q324 0 323 -365v-335q0 -365 -344 -365h-129q-346 0 -346 365z" />
<glyph unicode="&#x1016;" d="M82 365v335q0 365 303 365v-197q-74 0 -74 -168v-335q0 -168 115 -168h129q117 0 117 168v137h-54q-137 0 -137 160v235q0 168 115 168q305 0 305 -365v-335q0 -365 -346 -365h-129q-344 0 -344 365zM563 662q0 -78 55 -78h54v116q0 168 -76 168q-33 0 -33 -53v-153z" />
<glyph unicode="&#x1017;" d="M82 365v335q0 365 305 365v-137q0 -55 76 -56h57q78 0 78 56v137q303 0 303 -365v-335q0 -365 -344 -365h-129q-346 0 -346 365zM311 365q0 -168 117 -168h129q115 0 115 168v335q0 92 -23 134q-39 -43 -129 -43h-57q-90 0 -129 45q-23 -43 -23 -136v-335z" />
<glyph unicode="&#x1018;" horiz-adv-x="1572" d="M82 365h229q0 -168 115 -168h129q117 0 117 168v335q0 168 -117 168h-129q-115 0 -115 -168h-229q0 365 344 365h129q147 0 231 -66q84 66 230 66h129q346 0 346 -365v-335q0 -365 -346 -365v197q117 0 117 168v335q0 168 -117 168h-129q-115 0 -115 -168v-335 q0 -365 -346 -365h-129q-344 0 -344 365z" />
<glyph unicode="&#x1019;" d="M82 365v335q0 365 326 365v-197q-96 0 -97 -168v-262q43 14 109 15h153q57 0 99 -13v260q0 168 -94 168v197q324 0 323 -365v-335q0 -365 -344 -365h-129q-346 0 -346 365zM311 344q8 -147 117 -147h129q111 0 115 153q-29 20 -99 21h-153q-84 0 -109 -27z" />
<glyph unicode="&#x101a;" horiz-adv-x="1572" d="M82 365v335q0 365 326 365v-197q-96 0 -97 -168v-335q0 -168 117 -168h129q115 0 115 168v335q0 168 -94 168v197q324 0 323 -365v-335q0 -168 117 -168h129q115 0 115 168v335q0 168 -115 168v197q344 0 344 -365v-335q0 -365 -344 -365h-129q-147 0 -232 66 q-84 -66 -229 -66h-129q-346 0 -346 365z" />
<glyph unicode="&#x101b;" d="M82 365v335q0 365 346 365h129q344 0 344 -365v-1151h123v-163h-352v1314q0 168 -115 168h-129q-117 0 -117 -168v-137h54q137 0 137 -160v-235q0 -168 -115 -168q-305 0 -305 365zM311 365q0 -168 76 -168q33 0 33 53v153q0 78 -55 78h-54v-116z" />
<glyph unicode="&#x101c;" horiz-adv-x="1572" d="M82 365v335q0 365 346 365h129q344 0 344 -365v-335q0 -168 117 -168h129q115 0 115 168v335q0 168 -115 168v197q344 0 344 -365v-335q0 -365 -344 -365h-129q-346 0 -346 365v335q0 168 -115 168h-129q-117 0 -117 -168v-335q0 -168 117 -168v-197q-346 0 -346 365z " />
<glyph unicode="&#x101d;" d="M82 365v335q0 365 346 365h129q344 0 344 -365v-335q0 -365 -344 -365h-129q-346 0 -346 365zM311 365q0 -168 117 -168h129q115 0 115 168v335q0 168 -115 168h-129q-117 0 -117 -168v-335z" />
<glyph unicode="&#x101e;" horiz-adv-x="1572" d="M82 365h229q0 -168 117 -168h129q115 0 115 168v335q0 168 -115 168h-129q-117 0 -117 -168h-229q0 365 346 365h129q344 0 344 -365v-335q0 -168 117 -168h129q115 0 115 168v335q0 168 -115 168v197q344 0 344 -365v-335q0 -365 -344 -365h-129q-147 0 -232 66 q-84 -66 -229 -66h-129q-346 0 -346 365z" />
<glyph unicode="&#x101f;" horiz-adv-x="1572" d="M82 365v335q0 365 326 365v-197q-96 0 -97 -168v-335q0 -168 117 -168h129q115 0 115 168v335q0 168 -94 168v197q125 0 208 -66q84 66 232 66h129q344 0 344 -365v-335q0 -365 -344 -365v197q115 0 115 168v335q0 168 -115 168h-129q-117 0 -117 -168v-335 q0 -365 -344 -365h-129q-346 0 -346 365z" />
<glyph unicode="&#x1020;" d="M82 -98h74l8 -6q88 -51 328 -52q104 0 180 11v157q-51 -12 -115 -12h-129q-346 0 -346 365v335q0 365 346 365h129q344 0 344 -365h-229q0 168 -115 168h-129q-117 0 -117 -168v-335q0 -168 117 -168h129q115 0 115 168h229v-609l-14 -12q-109 -84 -395 -84 q-123 0 -213 16v-88q0 -150 147 -149h131q147 0 148 149h196q0 -346 -344 -346h-131q-344 0 -344 346v314z" />
<glyph unicode="&#x1021;" horiz-adv-x="1572" d="M82 365h229q0 -168 115 -168h129q117 0 117 118q0 119 -117 119h-129v197h129q117 0 117 119t-117 118h-129q-115 0 -115 -168h-229q0 365 344 365h129q147 0 231 -57q84 57 230 57h129q346 0 346 -365v-335q0 -365 -305 -365q-115 0 -115 168v235q0 160 137 160h54v137 q0 168 -117 168h-129q-115 1 -115 -118q0 -139 -67 -218q68 -78 67 -217q0 -315 -346 -315h-129q-344 0 -344 365zM1153 250q0 -53 33 -53q76 0 76 168v116h-54q-55 0 -55 -78v-153z" />
<glyph unicode="&#x1022;" horiz-adv-x="1572" d="M82 528v172q0 365 346 365h129q145 0 229 -66q84 66 232 66h129q344 0 344 -365v-335q0 -365 -344 -365v197q115 0 115 168v335q0 168 -115 168h-129q-117 0 -117 -168v-335q0 -365 -323 -365v197q94 0 94 168v335q0 168 -115 168h-129q-117 0 -117 -168v-172 q0 -66 58.5 -106.5t58.5 -118.5h2v-151q0 -152 -172 -152h-174v197h137v69q-139 69 -139 262z" />
<glyph unicode="&#x1023;" horiz-adv-x="1572" d="M82 365v335q0 365 346 365h129q145 0 229 -66q84 66 232 66h129q344 0 344 -365v-335q0 -365 -344 -365v197q115 0 115 168v335q0 168 -115 168h-129q-117 0 -117 -168v-335q0 -365 -323 -365v197q94 0 94 168v335q0 168 -115 168h-129q-117 0 -117 -168v-335 q0 -168 97 -168v-197q-326 0 -326 365zM274 -328q0 287 252 287h95q104 0 165 -55q61 55 168 55h95q250 0 249 -287q0 -92 -6 -141h117v-145h-291v4q-33 -4 -69 -4v145q84 0 84 141t-84 142h-95q-84 0 -84 -142q0 -287 -235 -286v145q68 0 67 141q0 141 -81 142h-95 q-86 0 -86 -142q0 -141 72 -141v-145q-238 0 -238 286z" />
<glyph unicode="&#x1024;" horiz-adv-x="1966" d="M82 365v335q0 365 346 365h129q145 0 229 -66q84 66 232 66h129q344 0 344 -365v-1093q0 -365 -344 -365h-719q-346 0 -346 283t346 282h657v-196h-657q-117 0 -117 -86t117 -86h719q115 0 115 168v1093q0 168 -115 168h-129q-117 0 -117 -168v-335q0 -365 -323 -365v197 q94 0 94 168v335q0 168 -115 168h-129q-117 0 -117 -168v-335q0 -168 97 -168v-197q-326 0 -326 365zM1139 1352v225q0 246 303 246h112q301 0 301 -246h-200q0 113 -101 113h-112q-102 0 -103 -113v-225q0 -113 103 -113h112q330 0 330 -246v-1751h-229v1751 q0 113 -101 113h-112q-303 0 -303 246z" />
<glyph unicode="&#x1025;" d="M82 365h229q0 -168 115 -168h129q117 0 117 168v335q0 168 -117 168h-129q-115 0 -115 -168h-229q0 365 344 365h129q346 0 346 -365v-335q0 -365 -346 -365h-129q-63 0 -115 12v-405q0 -168 115 -168h129q117 0 117 86t-117 86h-125v196h125q346 0 346 -282 q0 -283 -346 -283h-129q-344 0 -344 365v758z" />
<glyph unicode="&#x1026;" d="M82 365h229q0 -168 115 -168h129q117 0 117 168v335q0 168 -117 168h-129q-115 0 -115 -168h-229q0 365 344 365h129q346 0 346 -365v-335q0 -365 -346 -365h-129q-63 0 -115 12v-405q0 -168 115 -168h129q117 0 117 86t-117 86h-125v196h125q346 0 346 -282 q0 -283 -346 -283h-129q-344 0 -344 365v758zM133 1352v225q0 246 303 246h113q301 0 301 -246v-225q0 -246 -301 -246h-113q-303 0 -303 246zM334 1352q0 -113 102 -113h113q100 0 100 113v12q-33 31 -96 31h-113q-71 0 -106 -33v-10zM334 1452q47 25 106 25h113 q51 0 96 -23v123q0 113 -100 113h-113q-102 0 -102 -113v-125z" />
<glyph unicode="&#x1027;" d="M82 365v335q0 365 344 365h129q346 0 346 -365v-65h-590v-205h590v-65q0 -365 -346 -365h-129q-344 0 -344 365zM311 348q6 -152 115 -151h129q111 0 117 151h-361zM311 717h361q-6 152 -117 151h-129q-109 0 -115 -151z" />
<glyph unicode="&#x1028;" d="M82 -250v950q0 365 346 365h129q344 0 344 -365v-335q0 -365 -248 -365q-244 0 -243 281v221l82 39q66 31 65 73q0 55 -37 56q-39 0 -39 -52h-82q0 133 121 134q119 0 119 -138q0 -96 -113 -147l-34 -16v-170q0 -84 100 -84q121 0 121 168v335q0 168 -115 168h-170 q-117 0 -117 -168v-950q0 -168 117 -168h129q115 0 115 168h229q0 -365 -344 -364h-129q-346 0 -346 364z" />
<glyph unicode="&#x1029;" horiz-adv-x="1966" d="M82 -393v1851q0 365 346 365h1112v-197h-1112q-117 0 -117 -168v-1851q0 -168 117 -168h846q115 0 115 168v393q-131 4 -209 66q-84 -66 -232 -66h-129q-344 0 -344 365h230q0 -168 114 -168h129q117 0 117 168v335q0 168 -117 168h-129q-115 0 -114 -168h-230 q0 365 344 365h129q346 0 346 -365v-335q0 -168 115 -168h129q117 0 117 168v335q0 168 -117 168v197q346 0 346 -365v-335q0 -319 -266 -359v-399q0 -365 -344 -365h-846q-346 0 -346 365z" />
<glyph unicode="&#x102a;" horiz-adv-x="3538" d="M82 365v335q0 365 344 365h129q346 0 346 -365h-229q0 168 -117 168h-129q-115 0 -115 -168v-270h590v-65q0 -365 -346 -365h-129q-344 0 -344 365zM311 348q6 -152 115 -151h129q111 0 117 151h-361zM1065 -393v1851q0 365 346 365h1112v-197h-1112q-117 0 -117 -168 v-1851q0 -168 117 -168h846q115 0 115 168v393q-131 4 -209 66q-84 -66 -232 -66h-129q-344 0 -344 365h230q0 -168 114 -168h129q117 0 117 168v335q0 168 -117 168h-129q-115 0 -114 -168h-230q0 365 344 365h129q346 0 346 -365v-335q0 -168 115 -168h129q117 0 117 168 v335q0 168 -117 168v197q147 0 232 -66q84 66 231 66h129q344 0 344 -365v-335q0 -365 -324 -365v197q94 0 95 168v335q0 168 -115 168h-129q-117 0 -117 -168v-335q0 -319 -266 -359v-399q0 -365 -344 -365h-846q-346 0 -346 365zM2673 1352v225q0 246 303 246h112 q301 0 301 -246h-200q0 113 -101 113h-112q-102 0 -103 -113v-225q0 -113 103 -113h112v-133h-112q-303 0 -303 246z" />
<glyph unicode="&#x102b;" horiz-adv-x="393" d="M-406 1366q0 365 359 365q358 0 358 -365v-1366h-229v1366q0 168 -129 168t-129 -168h-230z" />
<glyph unicode="&#x102c;" horiz-adv-x="589" d="M-311 700q0 365 346 365h129q344 0 344 -365v-335q0 -365 -324 -365v197q94 0 95 168v335q0 168 -115 168h-129q-117 0 -117 -168h-229z" />
<glyph unicode="&#x102d;" horiz-adv-x="0" d="M-850 1352v225q0 246 303 246h113q301 0 301 -246v-225q0 -246 -301 -246h-113q-303 0 -303 246zM-649 1352q0 -113 102 -113h113q100 0 100 113v225q0 113 -100 113h-113q-102 0 -102 -113v-225z" />
<glyph unicode="&#x102e;" horiz-adv-x="0" d="M-850 1352v225q0 246 303 246h113q301 0 301 -246v-225q0 -246 -301 -246h-113q-303 0 -303 246zM-649 1352q0 -113 102 -113h113q100 0 100 113v12q-33 31 -96 31h-113q-71 0 -106 -33v-10zM-649 1452q47 25 106 25h113q51 0 96 -23v123q0 113 -100 113h-113 q-102 0 -102 -113v-125z" />
<glyph unicode="&#x102f;" horiz-adv-x="0" d="M-606 -41h229v-410h123v-163h-352v573z" />
<glyph unicode="&#x1030;" horiz-adv-x="0" d="M-764 -41h229v-573h-229v573zM-446 -41h229v-410h123v-163h-352v573z" />
<glyph unicode="&#x1031;" d="M82 365v335q0 365 344 365h129q346 0 346 -365h-229q0 168 -117 168h-129q-115 0 -115 -168v-270h590v-65q0 -365 -346 -365h-129q-344 0 -344 365zM311 348q6 -152 115 -151h129q111 0 117 151h-361z" />
<glyph unicode="&#x1032;" horiz-adv-x="0" d="M-838 1651l162 161l533 -532l-162 -162z" />
<glyph unicode="&#x1033;" horiz-adv-x="0" d="M-850 1352v225q0 246 303 246h113q301 0 301 -246v-225q0 -246 -301 -246h-113q-303 0 -303 246zM-649 1352q0 -113 102 -113h113q100 0 100 113v225q0 113 -100 113h-113q-102 0 -102 -113v-225zM-604 1464q-1 133 112 133t113 -133t-113 -133t-112 133zM-522 1464 q0 -51 30 -51q31 0 31 51t-31 52q-31 0 -30 -52z" />
<glyph unicode="&#x1034;" horiz-adv-x="0" d="M-838 1280l533 532l162 -161l-533 -533z" />
<glyph unicode="&#x1035;" horiz-adv-x="0" d="M-850 1352v225q0 246 303 246h113q301 0 301 -246h-201q0 113 -100 113h-113q-102 0 -102 -113v-109h516v-116q0 -246 -301 -246h-113q-303 0 -303 246zM-649 1352q0 -113 102 -113h113q100 0 100 113v34h-315v-34z" />
<glyph unicode="&#x1036;" horiz-adv-x="0" d="M-696 1311q-1 205 204 205t205 -205t-205 -205t-204 205zM-553 1311q0 -61 61 -62q62 1 62 62t-62 61q-61 0 -61 -61z" />
<glyph unicode="&#x1037;" horiz-adv-x="0" d="M-696 -307q-1 205 204 205t205 -205t-205 -205t-204 205zM-553 -307q0 -61 61 -62q62 1 62 62t-62 61q-61 0 -61 -61z" />
<glyph unicode="&#x1038;" horiz-adv-x="573" d="M82 246q0 205 205 205t205 -205t-205 -205t-205 205zM82 819q0 205 205 205t205 -205t-205 -205t-205 205zM225 246q0 -61 62 -62q61 1 61 62t-61 61t-62 -61zM225 819q0 -61 62 -61q61 0 61 61t-61 62q-61 0 -62 -62z" />
<glyph unicode="&#x1039;" horiz-adv-x="0" d="M-799 -209h168v168h135v-168h168v-135h-168v-168h-135v168h-168v135z" />
<glyph unicode="&#x103a;" horiz-adv-x="0" d="M-850 1352v225q0 246 303 246h113q301 0 301 -246h-201q0 113 -100 113h-113q-102 0 -102 -113v-225q0 -113 102 -113h113v-133h-113q-303 0 -303 246z" />
<glyph unicode="&#x103b;" horiz-adv-x="393" d="M-406 -41h230v-340l258 -133v1579h229v-1823h-186l-531 275v442z" />
<glyph unicode="&#x103c;" horiz-adv-x="393" d="M82 -393v1851q0 365 346 365h522q344 0 344 -365v-229h-229v229q0 168 -115 168h-522q-117 0 -117 -168v-1851q0 -168 117 -168h522q115 0 115 168v598h229v-598q0 -365 -344 -365h-522q-346 0 -346 365z" />
<glyph unicode="&#x103d;" horiz-adv-x="0" d="M-881 -328q0 287 330 287h121q328 0 328 -287t-328 -286h-121q-330 0 -330 286zM-664 -328q0 -141 113 -141h121q111 0 111 141t-111 142h-121q-113 0 -113 -142z" />
<glyph unicode="&#x103e;" horiz-adv-x="0" d="M-729 -451h123v410h229v-573h-352v163z" />
<glyph unicode="&#x103f;" horiz-adv-x="2162" d="M82 365h229q0 -168 115 -168h129q117 0 117 168v335q0 168 -117 168h-129q-115 0 -115 -168h-229q0 365 344 365h129q346 0 346 -365v-335q0 -168 115 -168h129q117 0 117 168v335q0 168 -117 168v197q346 0 346 -365v-335q0 -168 117 -168h129q115 0 114 168v335 q0 168 -94 168v197q324 0 324 -365v-335q0 -365 -344 -365h-129q-148 0 -232 66q-84 -66 -231 -66h-129q-145 0 -230 66q-84 -66 -231 -66h-129q-344 0 -344 365z" />
<glyph unicode="&#x1040;" d="M82 365v335q0 365 346 365h129q344 0 344 -365v-335q0 -365 -344 -365h-129q-346 0 -346 365zM311 365q0 -168 117 -168h129q115 0 115 168v335q0 168 -115 168h-129q-117 0 -117 -168v-335z" />
<glyph unicode="&#x1041;" d="M82 365h229q0 -168 115 -168h129q117 0 117 168v335q0 168 -117 168h-129q-115 0 -115 -168h-229q0 365 344 365h129q346 0 346 -365v-335q0 -365 -346 -365h-129q-344 0 -344 365z" />
<glyph unicode="&#x1042;" horiz-adv-x="819" d="M20 -250h230q0 -168 129 -168t129 168v1315h229v-1315q0 -365 -358 -364q-358 0 -359 364z" />
<glyph unicode="&#x1043;" d="M82 365h229q0 -168 115 -168h129q117 0 117 168v335q0 168 -117 168h-129q-115 0 -115 -168h-229q0 365 344 365h129q346 0 346 -365v-335q0 -365 -346 -365h-115l400 -399l-162 -162l-533 532q-63 161 -63 394z" />
<glyph unicode="&#x1044;" d="M82 365v335q0 365 346 365h129q344 0 344 -365h-229q0 168 -115 168h-129q-117 0 -117 -168v-335q0 -168 117 -168h129q115 0 115 168h229q0 -234 -63 -394l-533 -532l-162 162l400 399h-115q-346 0 -346 365z" />
<glyph unicode="&#x1045;" d="M82 -250h229q0 -168 115 -168h129q117 0 117 168v950q0 168 -117 168h-25v-112q0 -137 -139 -138h-219q-90 0 -90 82q0 365 344 365h129q346 0 346 -365v-950q0 -365 -346 -364h-129q-344 0 -344 364zM311 700h80q57 0 58 56v112h-23q-115 0 -115 -168z" />
<glyph unicode="&#x1046;" d="M82 365v950q0 365 346 364h129q344 0 344 -364h-229q0 168 -115 168h-129q-117 0 -117 -168v-950q0 -168 117 -168h170q115 0 115 168v206l-174 78q-113 51 -113 148q0 240 223 239q221 0 221 -235h-184q0 51 -39 51q-37 0 -37 -55q0 -43 66 -74l225 -100v-258 q0 -365 -344 -365h-129q-346 0 -346 365z" />
<glyph unicode="&#x1047;" d="M82 508v192q0 365 346 365h129q344 0 344 -365v-290q0 -283 -223 -444t-223 -290q0 -113 67 -112q88 0 88 153h209q0 -332 -297 -331q-276 0 -276 290q0 219 213 381t213 353v290q0 168 -115 168h-129q-117 0 -117 -168v-192q0 -168 97 -168v-197q-326 0 -326 365z" />
<glyph unicode="&#x1048;" d="M82 365v335q0 365 346 365h129q344 0 344 -365v-335q0 -365 -303 -365v197q74 0 74 168v335q0 168 -115 168h-129q-117 0 -117 -168v-137h54q137 0 137 -160v-235q0 -168 -115 -168q-305 0 -305 365zM311 365q0 -168 76 -168q33 0 33 53v153q0 78 -55 78h-54v-116z" />
<glyph unicode="&#x1049;" d="M82 -250v950q0 365 346 365h129q344 0 344 -365v-307l-225 -100q-66 -31 -66 -74q0 -55 37 -55q39 0 39 51h184q0 -215 -221 -215q-223 0 -223 219q0 96 113 148l174 77v256q0 168 -115 168h-170q-117 0 -117 -168v-950q0 -168 117 -168h129q115 0 115 168h229 q0 -365 -344 -364h-129q-346 0 -346 364z" />
<glyph unicode="&#x104a;" horiz-adv-x="393" d="M82 0v1065h229v-1065h-229z" />
<glyph unicode="&#x104b;" horiz-adv-x="761" d="M82 0v1065h229v-1065h-229zM451 0v1065h229v-1065h-229z" />
<glyph unicode="&#x104c;" d="M82 -209v574h229q0 -168 115 -168h129q117 0 117 168v335q0 168 -117 168h-129q-115 0 -115 -168h-229q0 365 344 365h129q346 0 346 -365v-335q0 -365 -346 -365h-129q-63 0 -115 12v-123q35 -10 99 -10q281 0 376 58h115v-330q0 -365 -344 -365h-129q-346 0 -346 283 v86h229v-86q0 -86 117 -86h129q115 0 115 168v112q-109 -25 -283 -24q-184 0 -307 96zM133 1352v225q0 246 303 246h113q301 0 301 -246h-201q0 113 -100 113h-113q-102 0 -102 -113v-225q0 -113 102 -113h113v-133h-113q-303 0 -303 246z" />
<glyph unicode="&#x104d;" horiz-adv-x="1376" d="M82 365v335q0 365 346 365h129q344 0 344 -365v-1118h-229v1118q0 168 -115 168h-129q-117 0 -117 -168v-137h54q137 0 137 -160v-235q0 -168 -115 -168q-305 0 -305 365zM82 -475q0 283 346 282h125v-196h-125q-117 0 -117 -86t117 -86h522q115 0 115 168v1202 q0 297 -213 297q-303 0 -303 246v225q0 246 303 246h113q301 0 301 -246h-201q0 113 -100 113h-113q-102 0 -102 -113v-225q0 -113 102 -113q442 0 442 -430v-1202q0 -365 -344 -365h-522q-346 0 -346 283zM311 365q0 -168 76 -168q33 0 33 53v153q0 78 -55 78h-54v-116z " />
<glyph unicode="&#x104e;" d="M82 365v335q0 365 346 365h129q344 0 344 -365h-229q0 168 -115 168h-129q-117 0 -117 -168v-335q0 -168 117 -168h129q115 0 115 168h229v-979h-229v626q-51 -12 -115 -12h-129q-346 0 -346 365z" />
<glyph unicode="&#x104f;" horiz-adv-x="1769" d="M82 365v335q0 365 344 365h129q145 0 229 -64q74 63 203 64q307 0 307 -365v-700h-229v700q0 168 -82 168t-82 -168v-65h-590v-205h590v-65q0 -365 -346 -365h-129q-344 0 -344 365zM311 348q6 -152 115 -151h129q111 0 117 151h-361zM311 717h361q-6 152 -117 151h-129 q-109 0 -115 -151zM942 1352v225q0 246 303 246h113q301 0 301 -246h-201q0 113 -100 113h-113q-102 0 -102 -113v-225q0 -113 102 -113q442 0 443 -430v-809h-230v809q0 297 -213 297q-303 0 -303 246z" />
<glyph unicode="&#x1050;" d="M82 365v335q0 365 346 365h129q344 0 344 -365v-335q0 -365 -323 -365v197q94 0 94 168v335q0 168 -115 168h-129q-117 0 -117 -168v-335q0 -168 97 -168v-197q-326 0 -326 365zM389 532q1 103 103 103t102 -103q0 -102 -102 -102t-103 102z" />
<glyph unicode="&#x1051;" d="M82 365v335q0 365 326 365v-197q-96 0 -97 -168v-335q0 -168 117 -168h129q115 0 115 168v335q0 168 -94 168v197q324 0 323 -365v-335q0 -365 -344 -365h-129q-346 0 -346 365zM389 532q0 102 103 103q102 0 102 -103q0 -102 -102 -102q-103 0 -103 102z" />
<glyph unicode="&#x1052;" d="M82 365v335q0 365 324 365v-197q-94 0 -95 -168v-335q0 -168 115 -168h129q117 0 117 168v172q0 65 -58.5 106t-58.5 119h-2v151q0 152 172 152h174v-197h-137v-69q139 -70 139 -262v-172q0 -365 -346 -365h-129q-344 0 -344 365z" />
<glyph unicode="&#x1053;" d="M82 365v172q0 193 139 262v69h-137v197h174q172 0 172 -152v-151h-2q0 -78 -58.5 -119t-58.5 -106v-172q0 -168 115 -168h129q117 0 117 168v172q0 65 -58.5 106t-58.5 119h-2v151q0 152 172 152h174v-197h-137v-69q139 -70 139 -262v-172q0 -365 -346 -365h-129 q-344 0 -344 365z" />
<glyph unicode="&#x1054;" d="M82 365v335q0 365 344 365h129q346 0 346 -365v-65h-590v-270q0 -168 115 -168h129q117 0 117 168h229q0 -365 -346 -365h-129q-344 0 -344 365zM311 717h361q-6 152 -117 151h-129q-109 0 -115 -151z" />
<glyph unicode="&#x1055;" d="M82 365v335q0 365 344 365h129q346 0 346 -365v-65h-590v-270q0 -168 62 -168q61 0 61 168h115q0 -168 61 -168t62 168h229q0 -365 -225 -365q-129 0 -184 121q-55 -121 -185 -121q-225 0 -225 365zM311 717h361q-6 152 -117 151h-129q-109 0 -115 -151z" />
<glyph unicode="&#x1056;" horiz-adv-x="589" d="M-311 365h229q0 -168 115 -168h129q117 0 117 168v172q0 65 -58.5 106t-58.5 119h-2v151q0 152 172 152h174v-197h-137v-69q139 -70 139 -262v-172q0 -365 -346 -365h-129q-344 0 -344 365z" />
<glyph unicode="&#x1057;" horiz-adv-x="589" d="M-311 365h229q0 -168 62 -168q61 0 61 168h115q0 -168 61 -168q62 0 62 168v172q0 66 -58.5 106.5t-58.5 118.5h-2v151q0 152 172 152h174v-197h-137v-69q139 -70 139 -262v-172q0 -365 -225 -365q-129 0 -185 121q-55 -121 -184 -121q-225 0 -225 365z" />
<glyph unicode="&#x1058;" horiz-adv-x="0" d="M-881 -324q0 283 328 283h121q330 0 330 -283v-51h-562v-100q0 -129 111 -129h121q113 0 113 129h217q0 -283 -330 -283h-121q-328 0 -328 283v151zM-664 -311h345q-6 117 -113 116h-121q-104 0 -111 -116z" />
<glyph unicode="&#x1059;" horiz-adv-x="0" d="M-881 -332q0 291 328 291h121q330 0 330 -291v-43h-562v-100q0 -129 60 -129q57 0 57 129h111q0 -129 57 -129q59 0 60 129h217q0 -283 -213 -283q-123 0 -177 96q-53 -96 -174 -96q-215 0 -215 291v135zM-664 -311h345q-6 117 -113 116h-121q-104 0 -111 -116z" />
<glyph unicode="&#x105a;" d="M82 365v335q0 365 346 365h129q344 0 344 -365h-229q0 168 -115 168h-129q-117 0 -117 -168v-335q0 -168 117 -168h129q115 0 115 168h229q0 -365 -344 -365h-129q-346 0 -346 365zM256 -256q0 215 236 215t235 -215q0 -109 -100.5 -184.5t-100.5 -114.5q0 -47 68 -47h68 v-156h-68q-236 0 -236 203q0 102 100.5 182t100.5 117q0 47 -67 47q-68 0 -68 -47h-168z" />
<glyph unicode="&#x105b;" horiz-adv-x="1372" d="M82 365v335q0 365 344 365h129q346 0 346 -365v-96q0 -164 -147 -164q0 -35 90 -34h217v659h229v-1315q0 -365 -344 -364h-129q-346 0 -346 364v250h-45q-344 0 -344 365zM311 365q0 -168 115 -168h129q49 0 78 30l182 -135q-45 -49 -115 -72v-270q0 -168 117 -168h129 q115 0 115 168v512h-217q-172 0 -172 178h-74q-137 0 -137 164t137 164h68q-20 100 -111 100h-129q-115 0 -115 -168v-335zM543 604q0 -82 55 -82h74v164h-74q-55 0 -55 -82z" />
<glyph unicode="&#x105c;" d="M82 365v335q0 365 346 365h129q344 0 344 -365v-335q0 -365 -344 -365h-129q-346 0 -346 365zM311 365q0 -168 117 -168h129q115 0 115 168v335q0 168 -115 168h-129q-117 0 -117 -168v-335zM348 430v205q0 184 144 184q143 0 143 -184v-205q0 -184 -143 -184t-144 184z M430 430q0 -102 62 -102q61 0 61 102v205q0 102 -61 102t-62 -102v-205z" />
<glyph unicode="&#x105d;" d="M82 365v335q0 365 326 365v-197q-96 0 -97 -168v-262q43 14 109 15h153q57 0 99 -13v260q0 168 -94 168v197q324 0 323 -365v-335q0 -176 -80 -267q80 -90 80 -266v-225q0 -365 -344 -365h-129q-346 0 -346 283t346 282h125v-196h-125q-117 0 -117 -86t117 -86h129 q115 0 115 168v225q0 168 -115 168h-129q-346 0 -346 365zM311 344q8 -147 117 -147h129q111 0 115 153q-29 20 -99 21h-153q-84 0 -109 -27z" />
<glyph unicode="&#x105e;" horiz-adv-x="0" d="M-901 -475q0 283 346 282h244v25q0 168 -115 168l264 98q80 -90 80 -266v-25h205v-196h-205v-4q0 -365 -344 -365h-129q-346 0 -346 283zM-672 -475q0 -86 117 -86h129q115 0 115 168v4h-244q-117 0 -117 -86z" />
<glyph unicode="&#x105f;" horiz-adv-x="0" d="M-809 -395q0 254 234 282v113h229v-272h-146q-113 0 -112 -123q0 -123 112 -123q113 0 113 133h205q0 -297 -318 -297q-317 0 -317 287z" />
<glyph unicode="&#x1060;" horiz-adv-x="0" d="M-827 -436l421 422l144 -176l-256 -234h362v-197h-592z" />
<glyph unicode="&#x1061;" d="M82 365v335q0 365 346 365h129q344 0 344 -365v-1151h123v-163h-352v1314q0 168 -115 168h-129q-117 0 -117 -168v-137h54q137 0 137 -160v-1017h-352v163h122v467q-190 59 -190 349zM311 365q0 -168 76 -168q33 0 33 53v153q0 78 -55 78h-54v-116z" />
<glyph unicode="&#x1062;" horiz-adv-x="393" d="M-82 868v197h393v-1065h-229v868h-164z" />
<glyph unicode="&#x1063;" d="M82 365h229q0 -168 115 -168h129q117 0 117 168v335q0 168 -117 168h-129q-115 0 -115 -168h-229q0 365 344 365h129q346 0 346 -365v-335q0 -365 -346 -365h-129q-63 0 -115 12v-626h-229v979z" />
<glyph unicode="&#x1064;" horiz-adv-x="393" d="M-82 868v197h393v-868h164v-197h-393v868h-164z" />
<glyph unicode="&#x1065;" d="M82 365h229q0 -168 115 -168h129q117 0 117 168v335q0 168 -117 168h-129q-115 0 -115 -168h-229q0 365 344 365h129q346 0 346 -365v-335q0 -365 -346 -365h-129q-344 0 -344 365z" />
<glyph unicode="&#x1066;" d="M82 365v335q0 365 326 365v-197q-96 0 -97 -168v-335q0 -168 117 -168h129q115 0 115 168v335q0 168 -94 168v197q324 0 323 -365v-335q0 -242 -151 -324v-655h-353v163h123v451h-92q-346 0 -346 365z" />
<glyph unicode="&#x1067;" horiz-adv-x="393" d="M-98 205q0 193 180 205v655h229v-860q0 -205 -205 -205t-204 205zM45 205q0 -61 61 -62q62 1 62 62t-62 61q-61 0 -61 -61z" />
<glyph unicode="&#x1068;" horiz-adv-x="393" d="M-82 0v197h164v868h229v-1065h-393zM-8 1311q0 205 205 205t204 -205q0 -205 -204 -205q-205 0 -205 205zM135 1311q0 -61 62 -62q61 1 61 62t-61 61t-62 -61z" />
<glyph unicode="&#x1069;" horiz-adv-x="598" d="M82 272q0 182 102.5 281.5t102.5 237.5q0 78 -113 77h-92v197h92q342 0 342 -274q0 -182 -102.5 -282t-102.5 -237q0 -76 113 -75h92v-197h-92q-342 0 -342 272z" />
<glyph unicode="&#x106a;" horiz-adv-x="393" d="M-406 365h230q0 -168 129 -168t129 168v700h229v-700q0 -365 -358 -365t-359 365z" />
<glyph unicode="&#x106b;" horiz-adv-x="393" d="M-406 700q0 365 359 365q358 0 358 -365v-700h-229v700q0 168 -129 168t-129 -168h-230z" />
<glyph unicode="&#x106c;" horiz-adv-x="393" d="M82 365v700h229v-700q0 -168 129 -168t129 168h230q0 -365 -359 -365q-358 0 -358 365z" />
<glyph unicode="&#x106d;" horiz-adv-x="598" d="M82 0v197h92q113 0 113 75q0 137 -102.5 237t-102.5 282q0 274 342 274h92v-197h-92q-113 0 -113 -77q0 -137 102.5 -236.5t102.5 -282.5q0 -272 -342 -272h-92z" />
<glyph unicode="&#x106e;" horiz-adv-x="1941" d="M82 365v335q0 365 346 365h129q66 0 119 -14q55 14 121 14h129q145 0 229 -66q84 66 231 66h130q344 0 344 -365v-335q0 -365 -344 -365v197q115 0 114 168v335q0 168 -114 168h-130q-117 0 -116 -168v-335q0 -365 -324 -365v197q94 0 94 168v335q0 168 -114 168h-49 q25 -72 24 -168v-335q0 -365 -323 -365v197q94 0 94 168v335q0 168 -115 168h-129q-117 0 -117 -168v-335q0 -168 97 -168v-197q-326 0 -326 365z" />
<glyph unicode="&#x106f;" horiz-adv-x="1572" d="M82 365v335q0 365 326 365v-197q-96 0 -97 -168v-335q0 -168 117 -168h129q115 0 115 168v335q0 168 -94 168v197q125 0 208 -66q84 66 232 66h129q344 0 344 -365v-335q0 -211 -115 -299v-680h-352v163h123v648q115 0 115 168v335q0 168 -115 168h-129q-117 0 -117 -168 v-335q0 -365 -344 -365h-129q-346 0 -346 365z" />
<glyph unicode="&#x1070;" horiz-adv-x="1572" d="M82 365v172q0 193 139 262v69h-137v197h174q172 0 172 -152v-151h-2q0 -78 -58.5 -119t-58.5 -106v-172q0 -168 117 -168h129q115 0 115 168v335q0 168 -94 168v197q324 0 323 -365v-335q0 -168 117 -168h129q115 0 115 168v335q0 168 -115 168v197q344 0 344 -365v-335 q0 -211 -115 -299v-680h-352v163h123v451h-129q-147 0 -232 66q-84 -66 -229 -66h-129q-346 0 -346 365z" />
<glyph unicode="&#x1071;" horiz-adv-x="0" d="M-901 1485q0 205 190 205t191 -205q0 -205 -191 -205q-190 0 -190 205zM-768 1485q0 -61 57 -62q58 1 58 62t-58 61q-57 0 -57 -61zM-463 1485q1 205 191 205t190 -205t-190 -205t-191 205zM-330 1485q0 -61 58 -62q57 1 57 62t-57 61t-58 -61z" />
<glyph unicode="&#x1072;" horiz-adv-x="0" d="M-850 1352v225q0 246 303 246h113q301 0 301 -246h-201q0 113 -100 113h-113q-102 0 -102 -113v-225q0 -113 102 -113h113q100 0 100 113h201q0 -246 -301 -246h-113q-303 0 -303 246z" />
<glyph unicode="&#x1073;" horiz-adv-x="0" d="M-952 1264l460 460l461 -460l-157 -117l-304 321l-303 -321z" />
<glyph unicode="&#x1074;" horiz-adv-x="0" d="M-850 1352v225q0 246 262 246v-133q-61 0 -61 -113v-225q0 -113 102 -113h113q100 0 100 113v225q0 113 -59 113v133q260 0 260 -246v-225q0 -246 -301 -246h-113q-303 0 -303 246z" />
<glyph unicode="&#x1075;" d="M82 528v172q0 365 346 365h129q344 0 344 -365v-335q0 -365 -323 -365v197q94 0 94 168v335q0 168 -115 168h-129q-117 0 -117 -168v-172q0 -65 58.5 -106t58.5 -119h2v-151q0 -152 -172 -152h-174v197h137v69q-139 70 -139 262z" />
<glyph unicode="&#x1076;" d="M-82 872v193h82v-193q0 -90 55 -90h31q37 283 342 283h129q344 0 344 -365v-335q0 -365 -344 -365h-129q-346 0 -346 365v65h590v270q0 168 -115 168h-129q-117 0 -117 -168h-256q-137 0 -137 172zM311 348q6 -152 117 -151h129q109 0 115 151h-361z" />
<glyph unicode="&#x1077;" d="M43 0v197h137v69q-98 70 -98 262v172q0 365 344 365h129q346 0 346 -365v-335q0 -365 -305 -365q-115 0 -115 168v235q0 160 137 160h54v137q0 168 -117 168h-129q-115 0 -115 -168v-172q0 -66 38 -106.5t38 -118.5h2v-151q0 -152 -172 -152h-174zM563 250q0 -53 33 -53 q76 0 76 168v116h-54q-55 0 -55 -78v-153z" />
<glyph unicode="&#x1078;" horiz-adv-x="1572" d="M82 365v335q0 365 344 365h129q147 0 231 -66q84 66 230 66h129q346 0 346 -365v-335q0 -365 -346 -365h-129q-344 0 -344 365v335q0 168 -117 168h-129q-115 0 -115 -168v-335q0 -168 115 -168v-197q-344 0 -344 365zM901 365q0 -168 115 -168h129q117 0 117 168v335 q0 168 -117 168h-129q-115 0 -115 -168v-335z" />
<glyph unicode="&#x1079;" horiz-adv-x="1572" d="M82 365v335q0 365 344 365h129q147 0 231 -66q84 66 230 66h129q346 0 346 -365v-335q0 -365 -346 -365h-129q-344 0 -344 365v335q0 168 -117 168h-129q-115 0 -115 -168v-137h54q137 0 137 -160v-235q0 -168 -115 -168q-305 0 -305 365zM311 365q0 -168 76 -168 q33 0 33 53v153q0 78 -55 78h-54v-116zM901 365q0 -168 115 -168h129q117 0 117 168v335q0 168 -117 168h-129q-115 0 -115 -168v-335z" />
<glyph unicode="&#x107a;" horiz-adv-x="1572" d="M82 365v335q0 365 346 365h129q344 0 344 -365v-335q0 -168 117 -168h129q115 0 115 168v335q0 168 -115 168v197q344 0 344 -365v-335q0 -365 -344 -365h-129q-64 0 -117 12v-430h191v-196h-420v1314q0 168 -115 168h-129q-117 0 -117 -168v-335q0 -168 117 -168v-197 q-346 0 -346 365z" />
<glyph unicode="&#x107b;" horiz-adv-x="1572" d="M82 365v335q0 365 346 365h129q145 0 229 -66q84 66 232 66h129q344 0 344 -365v-335q0 -365 -305 -365q-115 0 -115 168v235q0 160 137 160h54v137q0 168 -115 168h-129q-117 0 -117 -168v-335q0 -365 -344 -365h-129q-346 0 -346 365zM311 365q0 -168 117 -168h129 q115 0 115 168v335q0 168 -115 168h-129q-117 0 -117 -168v-335zM1153 250q0 -53 33 -53q76 0 76 168v116h-54q-55 0 -55 -78v-153z" />
<glyph unicode="&#x107c;" horiz-adv-x="1572" d="M82 365v65h590v270q0 168 -115 168h-129q-117 0 -117 -168h-229q0 365 346 365h129q145 0 229 -66q84 66 230 66h129q346 0 346 -365h-229q0 168 -117 168h-129q-115 0 -115 -168v-270h590v-65q0 -365 -346 -365h-129q-145 0 -230 66q-84 -66 -229 -66h-129 q-346 0 -346 365zM311 348q6 -152 117 -151h129q109 0 115 151h-361zM901 348q6 -152 115 -151h129q111 0 117 151h-361z" />
<glyph unicode="&#x107d;" horiz-adv-x="1572" d="M82 365v172q0 193 139 262v69h-137v197h174q172 0 172 -152v-151h-2q0 -78 -58.5 -119t-58.5 -106v-172q0 -168 117 -168h129q115 0 115 168v335q0 365 344 365h129q346 0 346 -365h-229q0 168 -117 168h-129q-115 0 -115 -168v-270h590v-65q0 -365 -346 -365h-129 q-146 0 -230 66q-84 -66 -229 -66h-129q-346 0 -346 365zM901 348q6 -152 115 -151h129q111 0 117 151h-361z" />
<glyph unicode="&#x107e;" horiz-adv-x="1572" d="M82 365v172q0 193 139 262v69h-137v197h174q172 0 172 -152v-151h-2q0 -78 -58.5 -119t-58.5 -106v-172q0 -168 117 -168h129q115 0 115 168v335q0 365 344 365h129q346 0 346 -365h-229q0 168 -117 168h-129q-115 0 -115 -168v-270h590v-65q0 -297 -229 -353v-626h-353 v163h123v451h-16q-145 0 -230 66q-84 -66 -229 -66h-129q-346 0 -346 365zM901 348q6 -152 115 -151h129q111 0 117 151h-361z" />
<glyph unicode="&#x107f;" d="M82 365v335q0 365 305 365q115 0 115 -168v-235q0 -160 -137 -160h-54v-137q0 -168 117 -168h129q115 0 115 168v335q0 168 -74 168v197q303 0 303 -365v-335q0 -365 -344 -365h-129q-346 0 -346 365zM311 584h54q55 0 55 78v153q0 53 -33 53q-76 0 -76 -168v-116z" />
<glyph unicode="&#x1080;" horiz-adv-x="1572" d="M82 365v65h590v270q0 168 -115 168h-129q-117 0 -117 -168h-229q0 365 346 365h129q344 0 344 -365v-335q0 -168 117 -168h129q115 0 115 168v335q0 168 -95 168v197q324 0 324 -365v-335q0 -365 -344 -365h-129q-148 0 -232 66q-84 -66 -229 -66h-129q-346 0 -346 365z M311 348q6 -152 117 -151h129q109 0 115 151h-361z" />
<glyph unicode="&#x1081;" d="M82 365v335q0 365 346 365h129q344 0 344 -365v-335q0 -365 -323 -365v197q94 0 94 168v335q0 168 -115 168h-129q-117 0 -117 -168v-335q0 -168 97 -168h61v-811h-352v163h123v484q-158 78 -158 332z" />
<glyph unicode="&#x1082;" horiz-adv-x="0" d="M-850 -287q0 246 303 246h113q121 0 192 -39l-118 -121q-25 27 -74 27h-113q-102 0 -102 -113v-123q0 -113 102 -112h113q100 0 100 112h201q0 -246 -301 -245h-113q-303 0 -303 245v123z" />
<glyph unicode="&#x1083;" horiz-adv-x="393" d="M-82 868v197h393v-1430h164v-196h-393v1429h-164z" />
<glyph unicode="&#x1084;" d="M82 315q0 139 68 217q-68 78 -68 218q0 315 346 315h129q344 0 344 -365h-229q0 168 -115 168h-129q-117 0 -117 -118q0 -119 117 -119h129v-197h-129q-117 0 -117 -119t117 -118h129q115 0 115 168h229q0 -365 -344 -365h-129q-346 0 -346 315z" />
<glyph unicode="&#x1085;" horiz-adv-x="0" d="M-850 1325q0 78 59 139q-59 61 -59 140q0 219 303 219h113q301 0 301 -242h-201q0 86 -100 86h-113q-102 0 -102 -63q0 -61 102 -62h113v-156h-113q-102 0 -102 -61q0 -63 102 -63h113q100 0 100 86h201q0 -242 -301 -242h-113q-303 0 -303 219z" />
<glyph unicode="&#x1086;" horiz-adv-x="0" d="M-709 1526q0 186 207 186q227 0 228 -186v-103q0 -305 -256 -407l-109 117q143 57 172 210q-25 -4 -55 -4q-186 0 -187 187zM-584 1526q0 -61 62 -62q61 1 61 62t-61 61t-62 -61z" />
<glyph unicode="&#x1087;" horiz-adv-x="598" d="M82 186q0 186 207 187q227 0 227 -187v-102q0 -305 -256 -408l-108 117q143 57 172 211q-25 -4 -56 -4q-186 0 -186 186zM207 186q0 -61 61 -61q62 0 62 61t-62 62q-61 0 -61 -62z" />
<glyph unicode="&#x1088;" horiz-adv-x="598" d="M82 186q0 186 207 187q227 0 227 -187v-102q0 -305 -256 -408l-108 117q143 57 172 211q-25 -4 -56 -4q-186 0 -186 186zM82 848q0 217 217 217t217 -217t-217 -217t-217 217zM207 186q0 -61 61 -61q62 0 62 61t-62 62q-61 0 -61 -62zM233 848q0 -66 66 -66t66 66t-66 65 q-66 0 -66 -65z" />
<glyph unicode="&#x1089;" horiz-adv-x="598" d="M82 217q0 217 217 217t217 -217t-217 -217t-217 217zM227 217q0 -72 72 -72t72 72t-72 72t-72 -72z" />
<glyph unicode="&#x108a;" horiz-adv-x="921" d="M82 252q0 186 227 186q207 0 207 -186q0 -31 -4 -55q154 29 211 172l117 -109q-102 -260 -428 -260h-103q-227 0 -227 252zM82 879q0 186 227 186q207 0 207 -186q0 -31 -4 -56q154 29 211 172l117 -108q-102 -260 -428 -260h-103q-227 0 -227 252zM248 252q0 -61 61 -62 q62 1 62 62t-62 61q-61 0 -61 -61zM248 879q0 -61 61 -62q62 1 62 62t-62 61q-61 0 -61 -61z" />
<glyph unicode="&#x108b;" horiz-adv-x="598" d="M82 532q0 218 217 218t217 -218q0 -217 -217 -217t-217 217zM227 532q0 -72 72 -71q72 -1 72 71t-72 72t-72 -72z" />
<glyph unicode="&#x108c;" horiz-adv-x="1110" d="M82 532q0 218 217 218t217 -218q0 -217 -217 -217t-217 217zM227 532q0 -72 72 -71q72 -1 72 71t-72 72t-72 -72zM594 532q0 218 217 218t217 -218q0 -217 -217 -217t-217 217zM739 532q0 -72 72 -71q72 -1 72 71t-72 72t-72 -72z" />
<glyph unicode="&#x108d;" horiz-adv-x="0" d="M-1024 -170h922v-197h-922v197z" />
<glyph unicode="&#x108e;" d="M82 365v335q0 365 346 365h129q344 0 344 -365v-335q0 -365 -344 -365h-129q-346 0 -346 365zM311 365q0 -168 117 -168h129q115 0 115 168v260q-41 -12 -99 -13h-153q-66 0 -109 15v-262zM311 721q25 -27 109 -27h153q70 0 99 21q-4 154 -115 153h-129q-109 0 -117 -147 z" />
<glyph unicode="&#x108f;" horiz-adv-x="598" d="M82 84v102q0 186 227 187q207 0 207 -187q0 -186 -186 -186q-31 0 -56 4q29 -154 172 -211l-108 -117q-256 102 -256 408zM82 848q0 217 217 217t217 -217t-217 -217t-217 217zM233 848q0 -66 66 -66t66 66t-66 65q-66 0 -66 -65zM268 186q1 -61 62 -61t61 61t-61 62 q-61 0 -62 -62z" />
<glyph unicode="&#x1090;" d="M82 365v335q0 365 346 365h129q344 0 344 -365v-335q0 -365 -344 -365h-129q-346 0 -346 365zM311 365q0 -168 117 -168h129q115 0 115 168v335q0 168 -115 168h-129q-117 0 -117 -168v-335z" />
<glyph unicode="&#x1091;" horiz-adv-x="696" d="M0 885l233 180h230v-834l151 117l82 -168l-233 -180h-230v834l-151 -117z" />
<glyph unicode="&#x1092;" horiz-adv-x="1085" d="M82 614v512h229v-133q111 72 232 72q461 0 461 -451q0 -344 -416 -614q-174 -113 -174 -283h-230q0 260 250 424q340 221 340 473q0 254 -231 254t-232 -254h-229z" />
<glyph unicode="&#x1093;" horiz-adv-x="1128" d="M82 47l522 1446l189 -47l-138 -381h33q358 0 359 -358v-707h-230v707q0 162 -129 161h-104l-314 -868z" />
<glyph unicode="&#x1094;" horiz-adv-x="1107" d="M82 47l522 1446l189 -47v-1276l151 117l82 -107l-233 -180h-230v817l-293 -817z" />
<glyph unicode="&#x1095;" d="M82 430q0 430 461 430h129v574h229v-574h103v-196h-103v-132q0 -532 -409 -532q-410 0 -410 430zM311 430q0 -233 181 -233q180 0 180 335v132h-129q-231 0 -232 -234z" />
<glyph unicode="&#x1096;" d="M82 635q0 430 410 430t409 -533v-131h103v-196h-103v-574h-229v574h-129q-461 0 -461 430zM311 635q0 -233 232 -234h129v131q0 336 -180 336t-181 -233z" />
<glyph unicode="&#x1097;" horiz-adv-x="921" d="M82 0l405 868h-405v197h758l-406 -868h406v-197h-758z" />
<glyph unicode="&#x1098;" d="M82 365v335q0 176 80 267q-80 90 -80 266v229h229v-229q0 -168 117 -168h129q115 0 115 168v229h229v-229q0 -176 -80 -266q80 -90 80 -267v-335q0 -365 -344 -365h-129q-346 0 -346 365zM311 365q0 -168 117 -168h129q115 0 115 168v335q0 168 -115 168h-129 q-117 0 -117 -168v-335z" />
<glyph unicode="&#x1099;" horiz-adv-x="1126" d="M82 0v229q0 176 80 267q-80 90 -80 266v336q0 365 346 364h129q344 0 344 -364v-336q0 -176 -80 -266q80 -91 80 -267v-229h-229v229q0 168 -115 168h-129q-117 0 -117 -168v-229h-229zM311 762q0 -168 117 -168h129q115 0 115 168v336q0 168 -115 168h-129 q-117 0 -117 -168v-336z" />
<glyph unicode="&#x109a;" horiz-adv-x="598" d="M82 848q0 217 217 217t217 -217t-217 -217t-217 217zM227 848q0 -72 72 -72t72 72t-72 72t-72 -72z" />
<glyph unicode="&#x109b;" horiz-adv-x="598" d="M82 879q0 186 207 186q227 0 227 -186v-103q0 -305 -256 -407l-108 116q143 57 172 211q-25 -4 -56 -4q-186 0 -186 187zM207 879q0 -61 61 -62q62 1 62 62t-62 61q-61 0 -61 -61z" />
<glyph unicode="&#x109c;" horiz-adv-x="921" d="M82 186q0 252 227 252h103q326 0 428 -260l-117 -108q-57 143 -211 172q4 -25 4 -56q0 -186 -207 -186q-227 0 -227 186zM82 813q0 252 227 252h103q326 0 428 -260l-117 -109q-57 143 -211 172q4 -25 4 -55q0 -186 -207 -186q-227 0 -227 186zM248 186q0 -61 61 -61 t62 61q-1 62 -62 62t-61 -62zM248 813q0 -61 61 -61t62 61q-1 61 -62 61t-61 -61z" />
<glyph unicode="&#x109d;" horiz-adv-x="0" d="M-901 1229q0 297 409 297q410 0 410 -359v-348h-229v348q0 162 -197 162t-197 -100h-196z" />
<glyph unicode="&#x109e;" horiz-adv-x="393" d="M-82 868v197h393v-1483h164v-196h-393v1482h-164zM-20 1343q0 218 217 218t217 -218q0 -217 -217 -217t-217 217zM125 1343q0 -72 72 -71q71 -1 71 71t-71 72q-72 0 -72 -72z" />
<glyph unicode="&#x109f;" horiz-adv-x="1376" d="M82 365v335q0 365 346 365h129q344 0 344 -365v-1011q0 -106 82 -107q82 0 82 107v1120q0 297 -213 297q-303 0 -303 246v225q0 246 303 246h113q301 0 301 -246h-201q0 113 -100 113h-113q-102 0 -102 -113v-225q0 -113 102 -113q442 0 442 -430v-1120q0 -303 -311 -303 t-311 303v1011q0 168 -115 168h-129q-117 0 -117 -168v-335q0 -168 97 -168v-197q-326 0 -326 365z" />
<glyph unicode="&#x2000;" horiz-adv-x="911" />
<glyph unicode="&#x2001;" horiz-adv-x="1823" />
<glyph unicode="&#x2002;" horiz-adv-x="911" />
<glyph unicode="&#x2003;" horiz-adv-x="1823" />
<glyph unicode="&#x2004;" horiz-adv-x="607" />
<glyph unicode="&#x2005;" horiz-adv-x="455" />
<glyph unicode="&#x2006;" horiz-adv-x="303" />
<glyph unicode="&#x2007;" horiz-adv-x="303" />
<glyph unicode="&#x2008;" horiz-adv-x="227" />
<glyph unicode="&#x2009;" horiz-adv-x="364" />
<glyph unicode="&#x200a;" horiz-adv-x="101" />
<glyph unicode="&#x202f;" horiz-adv-x="364" />
<glyph unicode="&#x205f;" horiz-adv-x="455" />
<glyph unicode="&#x25cc;" horiz-adv-x="1218" d="M102 535q0 49 52 49q49 0 49 -49t-49 -50q-51 0 -52 50zM139 360q0 51 49 52q50 -1 50 -52q0 -49 -50 -49q-49 0 -49 49zM139 709q0 49 49 49q50 0 50 -49q0 -51 -48 -52q-51 0 -51 52zM238 211q0 51 49 51q51 0 51 -51q0 -49 -51 -49q-49 0 -49 49zM238 854q0 53 49 53 q51 0 51 -51q0 -49 -51 -49q-49 0 -49 47zM385 113q0 51 49 51q51 0 51 -47q0 -51 -51 -51q-49 0 -49 47zM385 954q0 51 49 52q51 -1 51 -52q0 -49 -51 -49q-49 0 -49 49zM559 80q0 49 49 49t49 -49q0 -51 -49 -51t-49 51zM559 991q0 49 49 49t49 -49q0 -51 -49 -51t-49 51z M733 113q0 51 51 51q47 0 47 -51q0 -47 -47 -47q-51 0 -51 47zM733 954q0 51 51 52q47 -1 47 -52q0 -49 -47 -49q-51 0 -51 49zM881 211q0 51 51 51q49 0 49 -51q0 -49 -49 -49q-51 0 -51 49zM881 856q0 51 51 51q49 0 49 -51q0 -49 -49 -49q-51 0 -51 49zM979 360 q0 51 49 52q51 -1 51 -52q0 -49 -51 -49q-49 0 -49 49zM979 709q0 49 51 49q49 0 49 -49q0 -51 -51 -52q-49 0 -49 52zM1016 535q0 49 51 49q49 0 49 -49t-49 -50q-51 0 -51 50z" />
<glyph unicode="&#x25fc;" horiz-adv-x="1024" d="M0 0z" />
<glyph unicode="&#xaa60;" horiz-adv-x="1572" d="M82 365v335q0 365 346 365h129q145 0 229 -66q84 66 232 66h129q344 0 344 -365v-335q0 -365 -305 -365q-115 0 -115 168v235q0 160 137 160h54v137q0 168 -115 168h-129q-117 0 -117 -168v-335q0 -365 -323 -365v197q94 0 94 168v335q0 168 -115 168h-129 q-117 0 -117 -168v-335q0 -168 97 -168v-197q-326 0 -326 365zM1153 250q0 -53 33 -53q76 0 76 168v116h-54q-55 0 -55 -78v-153z" />
<glyph unicode="&#xaa61;" horiz-adv-x="1572" d="M82 528v172q0 365 346 365h129q145 0 229 -66q84 66 232 66h129q344 0 344 -365v-335q0 -365 -344 -365h-129q-143 0 -227 63q-78 -63 -213 -63v197q94 0 94 168v335q0 168 -115 168h-129q-117 0 -117 -168v-172q0 -66 58.5 -106.5t58.5 -118.5h2v-151q0 -152 -172 -152 h-174v197h137v69q-139 70 -139 262zM901 365q0 -168 117 -168h129q115 0 115 168v335q0 168 -115 168h-129q-117 0 -117 -168v-335z" />
<glyph unicode="&#xaa62;" horiz-adv-x="1351" d="M82 0v1065h229v-852l156 152h213q0 -168 117 -168h129q115 0 114 168v335q0 168 -114 168h-129v197h129q344 0 344 -365v-335q0 -365 -344 -365h-129q-217 0 -299 145l-148 -145h-268z" />
<glyph unicode="&#xaa63;" horiz-adv-x="1572" d="M43 0v197h137v69q-98 70 -98 262v172q0 365 344 365h129q147 0 231 -66q84 66 232 66h129q344 0 344 -365v-335q0 -365 -344 -365h-129q-141 0 -223 59q-74 -59 -199 -59q-115 0 -115 168v235q0 160 137 160h54v137q0 168 -117 168h-129q-115 0 -115 -168v-172 q0 -66 38 -106.5t38 -118.5h2v-151q0 -152 -172 -152h-174zM563 250q0 -53 33 -53q76 0 76 168v116h-54q-55 0 -55 -78v-153zM901 365q0 -168 117 -168h129q115 0 115 168v335q0 168 -115 168h-129q-117 0 -117 -168v-335z" />
<glyph unicode="&#xaa64;" horiz-adv-x="1572" d="M82 365v335q0 365 326 365v-197q-96 0 -97 -168v-335q0 -168 117 -168h129q115 0 115 168v335q0 168 -94 168v197q135 0 213 -64q84 63 227 64h129q344 0 344 -365v-335q0 -365 -344 -365h-129q-148 0 -232 66q-84 -66 -229 -66h-129q-346 0 -346 365zM901 365 q0 -168 117 -168h129q115 0 115 168v335q0 168 -115 168h-129q-117 0 -117 -168v-335z" />
<glyph unicode="&#xaa65;" horiz-adv-x="1572" d="M82 365v335q0 365 344 365v-197q-115 0 -115 -168v-335q0 -168 115 -168h129q117 0 117 168v335q0 365 344 365h129q346 0 346 -365v-335q0 -365 -346 -365v197q117 0 117 168v335q0 168 -117 168h-129q-115 0 -115 -168v-1314h-420v196h191v430q-54 -12 -117 -12h-129 q-344 0 -344 365z" />
<glyph unicode="&#xaa66;" horiz-adv-x="1572" d="M82 365v335q0 365 346 365h129q145 0 229 -66q84 66 232 66h129q344 0 344 -365v-335q0 -365 -344 -365v197q115 0 115 168v335q0 168 -115 168h-129q-117 0 -117 -168v-335q0 -365 -344 -365h-129q-346 0 -346 365zM311 365q0 -168 117 -168h129q115 0 115 168v335 q0 168 -115 168h-129q-117 0 -117 -168v-335zM389 532q1 103 103 103t102 -103q0 -102 -102 -102t-103 102z" />
<glyph unicode="&#xaa67;" horiz-adv-x="1572" d="M82 365v335q0 365 346 365h129q145 0 229 -66q84 66 232 66h129q344 0 344 -365v-335q0 -365 -344 -365h-129q-147 0 -232 66q-84 -66 -229 -66h-129q-346 0 -346 365zM311 365q0 -168 117 -168h129q115 0 115 168v335q0 168 -115 168h-129q-117 0 -117 -168v-335z M389 532q1 103 103 103t102 -103q0 -102 -102 -102t-103 102zM901 365q0 -168 117 -168h129q115 0 115 168v335q0 168 -115 168h-129q-117 0 -117 -168v-335z" />
<glyph unicode="&#xaa68;" horiz-adv-x="1572" d="M82 365v335q0 365 346 365h129q145 0 229 -66q84 66 232 66h129q344 0 344 -365v-335q0 -365 -305 -365q-115 0 -115 168v235q0 160 137 160h54v137q0 168 -115 168h-129q-117 0 -117 -168v-335q0 -365 -344 -365h-129q-346 0 -346 365zM311 365q0 -168 117 -168h129 q115 0 115 168v335q0 168 -115 168h-129q-117 0 -117 -168v-335zM389 532q1 103 103 103t102 -103q0 -102 -102 -102t-103 102zM1153 250q0 -53 33 -53q76 0 76 168v116h-54q-55 0 -55 -78v-153z" />
<glyph unicode="&#xaa69;" horiz-adv-x="1572" d="M82 365v335q0 365 346 365h129q145 0 229 -66q84 66 232 66h129q344 0 344 -365v-335q0 -365 -344 -365h-129q-147 0 -232 66q-84 -66 -229 -66h-129q-346 0 -346 365zM311 365q0 -168 117 -168h129q115 0 115 168v335q0 168 -115 168h-129q-117 0 -117 -168v-335z M389 532q1 103 103 103t102 -103q0 -102 -102 -102t-103 102zM901 365q0 -168 117 -168h12q4 14 4 34v154q0 76 -55 76h-78v-96zM901 543h78q137 0 137 -158v-154q0 -18 -2 -34h33q115 0 115 168v335q0 168 -115 168h-129q-117 0 -117 -168v-157z" />
<glyph unicode="&#xaa6a;" horiz-adv-x="1572" d="M82 365v335q0 365 346 365h129q145 0 229 -66q84 66 232 66h129q344 0 344 -365v-335q0 -365 -344 -365h-129q-147 0 -232 66q-84 -66 -229 -66h-129q-346 0 -346 365zM311 365q0 -168 117 -168h129q115 0 115 168v335q0 168 -115 168h-129q-117 0 -117 -168v-335z M901 365q0 -168 117 -168h12q4 14 4 34v154q0 76 -55 76h-78v-96zM901 543h78q137 0 137 -158v-154q0 -18 -2 -34h33q115 0 115 168v335q0 168 -115 168h-129q-117 0 -117 -168v-157z" />
<glyph unicode="&#xaa6b;" d="M-150 1065h136q0 -86 125 -184q72 184 317 184h129q344 0 344 -365v-335q0 -365 -303 -365v197q74 0 74 168v335q0 168 -115 168h-129q-117 0 -117 -168v-137h54q137 0 137 -160v-235q0 -168 -115 -168q-305 0 -305 365v366q-231 164 -232 334zM311 365q0 -168 76 -168 q33 0 33 53v153q0 78 -55 78h-54v-116z" />
<glyph unicode="&#xaa6c;" horiz-adv-x="1802" d="M82 365v335q0 365 346 365v-197q-117 0 -117 -168v-335q0 -168 117 -168h68q115 0 114 168v503q0 197 189 197h205q188 0 188 -197v-503q0 -168 117 -168h67q115 0 115 168v335q0 168 -115 168v197q344 0 344 -365v-335q0 -365 -344 -365h-67q-346 0 -346 365v618h-123 v-618q0 -365 -344 -365h-68q-346 0 -346 365z" />
<glyph unicode="&#xaa6d;" horiz-adv-x="1024" d="M-365 -250h230q0 -168 129 -168t129 168v881q-205 6 -205 217q0 217 217 217q92 0 146 -39q76 39 188 39h129q344 0 344 -365v-335q0 -365 -324 -365v197q94 0 95 168v335q0 168 -115 168h-129q-117 0 -117 -168v-950q0 -365 -358 -364q-358 0 -359 364zM63 848 q0 -72 72 -72t72 72t-72 72t-72 -72z" />
<glyph unicode="&#xaa6e;" horiz-adv-x="1572" d="M82 365v335q0 365 346 365h129q344 0 344 -365v-335q0 -168 117 -168h129q115 0 115 168v335q0 168 -115 168v197q344 0 344 -365v-335q0 -365 -344 -365h-129q-346 0 -346 365v335q0 168 -115 168h-129q-117 0 -117 -168v-137h54q137 0 137 -160v-235q0 -168 -115 -168 q-305 0 -305 365zM311 365q0 -168 76 -168q33 0 33 53v153q0 78 -55 78h-54v-116z" />
<glyph unicode="&#xaa6f;" horiz-adv-x="1376" d="M82 0v1065h227l193 -188q70 188 319 188h129q344 0 344 -365v-335q0 -365 -344 -365h-129q-346 0 -346 365v266l-164 160v-791h-229zM705 365q0 -168 116 -168h129q115 0 115 168v335q0 168 -115 168h-129q-117 0 -116 -168v-335z" />
<glyph unicode="&#xaa70;" horiz-adv-x="0" d="M-811 1251q131 80 319 80q186 0 320 -80l-66 -176q-92 59 -254 60q-162 0 -253 -60zM-811 1538q131 80 319 80q186 0 320 -80l-66 -176q-92 59 -254 59t-253 -59z" />
<glyph unicode="&#xaa71;" horiz-adv-x="1572" d="M82 365v335q0 365 346 365h129q145 0 229 -66q84 66 232 66h129q344 0 344 -365v-335q0 -365 -344 -365v197q115 0 115 168v335q0 168 -115 168h-129q-117 0 -117 -168v-335q0 -365 -323 -365v197q94 0 94 168v335q0 168 -115 168h-129q-117 0 -117 -168v-137h54 q137 0 137 -160v-235q0 -168 -115 -168q-305 0 -305 365zM311 365q0 -168 76 -168q33 0 33 53v153q0 78 -55 78h-54v-116z" />
<glyph unicode="&#xaa72;" horiz-adv-x="1572" d="M-82 217q0 195 174 215q-10 43 -10 96v172q0 365 346 365h129q145 0 229 -66q84 66 232 66h129q344 0 344 -365v-335q0 -365 -344 -365h-129q-143 0 -227 63q-78 -63 -213 -63v197q94 0 94 168v335q0 168 -115 168h-129q-117 0 -117 -168v-172q0 -66 20.5 -106.5 t20.5 -204.5q0 -217 -217 -217t-217 217zM63 217q0 -72 72 -72t72 72t-72 72t-72 -72zM901 365q0 -168 117 -168h129q115 0 115 168v335q0 168 -115 168h-129q-117 0 -117 -168v-335z" />
<glyph unicode="&#xaa73;" horiz-adv-x="1439" d="M82 0v1065h221q354 -868 594 -868q231 0 231 335q0 336 -231 336v197q461 0 461 -533q0 -532 -461 -532q-322 0 -586 637v-637h-229z" />
<glyph unicode="&#xaa74;" horiz-adv-x="1376" d="M82 365v335q0 365 303 365v-197q-74 0 -74 -168v-335q0 -168 115 -168h55v700q0 168 115 168q305 0 305 -365v-335q0 -360 -338 -365v-252q188 -176 338 -176q164 0 164 121v1116q0 297 -213 297q-303 0 -303 246v225q0 246 303 246h113q301 0 301 -246h-201 q0 113 -100 113h-113q-102 0 -102 -113v-225q0 -113 102 -113q442 0 442 -430v-1116q0 -307 -393 -307q-151 0 -313 133q-37 -133 -207 -133q-217 0 -217 217t217 217q57 0 100 -17v197h-55q-344 0 -344 365zM309 -397q0 -72 72 -72t72 72t-72 71q-72 0 -72 -71zM563 197 q109 6 109 168v335q0 168 -76 168q-33 0 -33 -53v-618z" />
<glyph unicode="&#xaa75;" horiz-adv-x="1966" d="M82 528v172q0 365 346 365h129q145 0 229 -66q84 66 232 66h129q344 0 344 -365v-335q0 -338 -297 -363v-254q147 -176 297 -176q164 0 164 121v1116q0 297 -213 297q-303 0 -303 246v225q0 246 303 246h112q301 0 301 -246h-200q0 113 -101 113h-112q-102 0 -103 -113 v-225q0 -113 103 -113q442 0 442 -430v-1116q0 -307 -393 -307q-152 0 -313 133q-37 -133 -207 -133q-217 0 -217 217t217 217q33 0 59 -4v381h117q115 0 115 168v335q0 168 -115 168h-129q-117 0 -117 -168v-335q0 -365 -323 -365v197q94 0 94 168v335q0 168 -115 168h-129 q-117 0 -117 -168v-172q0 -66 58.5 -106.5t58.5 -118.5h2v-151q0 -152 -172 -152h-174v197h137v69q-139 70 -139 262zM899 -397q0 -72 72 -72q71 0 71 72t-71 71q-72 0 -72 -71z" />
<glyph unicode="&#xaa76;" horiz-adv-x="1966" d="M-61 -332q0 283 346 283h125v-197h-125q-117 0 -117 -86t117 -86h129q115 0 114 168v950q0 168 -129 168t-129 -168h-229q0 365 358 365q154 0 242 -68q84 68 233 68h273q344 0 344 -365v-335q0 -274 -195 -342v-275q147 -176 277 -176q82 0 82 121v1116q0 297 -213 297 q-303 0 -303 246v225q0 246 303 246h112q301 0 301 -246h-200q0 113 -101 113h-112q-102 0 -103 -113v-225q0 -113 103 -113q442 0 442 -430v-1116q0 -307 -311 -307q-131 0 -293 133q-37 -133 -207 -133q-217 0 -217 217t217 217q33 0 60 -4v381h14q115 0 115 168v335 q0 168 -115 168h-273q-117 0 -116 -168v-950q0 -365 -344 -364h-129q-346 0 -346 282zM1001 -397q0 -72 72 -72t72 72t-72 71q-72 0 -72 -71z" />
<glyph unicode="&#xaa77;" d="M82 528v172q0 365 346 365h129q344 0 344 -365v-335q0 -178 -121 -332l273 -541l110 55l74 -145l-313 -160l-303 598v-434h122v-164h-352v688q281 266 281 435v335q0 168 -115 168h-129q-117 0 -117 -168v-172q0 -66 58.5 -106.5t58.5 -118.5h2v-151q0 -152 -172 -152 h-174v197h137v69q-139 70 -139 262zM133 1352v225q0 246 303 246h113q301 0 301 -246h-201q0 113 -100 113h-113q-102 0 -102 -113v-225q0 -113 102 -113h113v-133h-113q-303 0 -303 246z" />
<glyph unicode="&#xaa78;" horiz-adv-x="1673" d="M82 150q82 98 82 309t-82 309l194 90q117 -133 117 -399t-117 -400zM375 82q109 203 393 203q201 0 313 -101l117 459q127 483 426 483q70 0 152 -20l28 -193q-45 10 -84 11q-215 0 -297 -324l-153 -600l-254 -61q-70 150 -248 149q-178 0 -248 -149zM375 838l145 143 q70 -150 248 -150t248 150l145 -143q-108 -203 -393 -203t-393 203z" />
<glyph unicode="&#xaa79;" d="M82 528v172q0 365 346 365h129q344 0 344 -365v-335q0 -178 -121 -332l-159 -193v-434h122v-164h-352v688q281 266 281 435v335q0 168 -115 168h-129q-117 0 -117 -168v-172q0 -66 58.5 -106.5t58.5 -118.5h2v-151q0 -152 -172 -152h-174v197h137v69q-139 70 -139 262z " />
<glyph unicode="&#xaa7a;" horiz-adv-x="1966" d="M82 -393v1646q0 365 346 365h522q115 0 115 168v37h229v-37q0 -365 -344 -365h-522q-117 0 -117 -168v-1646q0 -168 117 -168h522q115 0 115 168v1093q0 168 -115 168h-129q-117 0 -116 -168v-335q0 -168 116 -168v-197q-346 0 -346 365v335q0 365 346 365h129 q344 0 344 -365v-335q0 -168 117 -168h129q115 0 115 168v335q0 168 -115 168v197q344 0 344 -365v-335q0 -365 -344 -365h-129q-63 0 -117 12v-405q0 -365 -344 -365h-522q-346 0 -346 365z" />
<glyph unicode="&#xaa7b;" horiz-adv-x="598" d="M82 84v102q0 186 227 187q207 0 207 -187q0 -186 -186 -186q-31 0 -56 4q29 -154 172 -211l-108 -117q-256 102 -256 408zM268 186q1 -61 62 -61t61 61t-61 62q-61 0 -62 -62z" />
<glyph horiz-adv-x="0" d="M-1004 -332q0 291 252 291h95q104 0 165 -51q61 51 168 51h95q250 0 249 -291q0 -283 -249 -282v145q84 0 84 137q0 145 -84 146h-95q-84 0 -84 -146q0 -283 -235 -282v145q68 0 68 137q0 146 -82 146h-95q-86 0 -86 -146q0 -137 72 -137v-145q-238 0 -238 282z" />
<glyph horiz-adv-x="0" d="M-881 -264q0 223 330 223h121q328 0 328 -223v-127q0 -223 -328 -223h-121q-330 0 -330 223v49h562v78q0 78 -111 78h-121q-113 0 -113 -78h-217zM-664 -403q6 -66 113 -66h121q104 0 111 66h-345z" />
<glyph horiz-adv-x="2" d="M-881 -328q0 287 330 287h121q328 0 328 -287t-308 -286v145q90 0 91 141q0 141 -111 142h-121q-113 0 -113 -142q0 -141 93 -141v-145q-309 0 -310 286z" />
<glyph horiz-adv-x="0" d="M-1004 -387q1 111 101 160v41h-98v145h127q125 0 124 -106v-107h-2q0 -53 -43 -82t-43 -51q0 -82 86 -82h95q82 0 82 141t-68 142v145q236 0 235 -287q0 -141 84 -141h95q84 0 84 141t-84 142v145q250 0 249 -287q0 -287 -249 -286h-95q-106 0 -168 45q-61 -45 -165 -45 h-95q-252 0 -252 227z" />
<glyph horiz-adv-x="2" d="M-881 -328q0 287 330 287h121q328 0 328 -227h-217q0 82 -111 82h-121q-113 0 -113 -142q0 -141 113 -141h121q111 0 111 82h217q0 -227 -328 -227h-121q-330 0 -330 286z" />
<glyph horiz-adv-x="2" d="M-881 -279q0 238 330 238h121q328 0 328 -238v-98q0 -238 -328 -237h-121q-330 0 -330 237v98zM-664 -287v-82l5 -39h67q51 0 51 80t-51 80h-67zM-633 -195h41q129 0 129 -133t-129 -133h-41q29 -25 82 -24h121q111 0 111 108v98q0 109 -111 109h-121q-53 0 -82 -25z" />
<glyph horiz-adv-x="0" d="M-1004 -256q0 215 252 215h95q104 0 165 -43q61 43 168 43h95q250 0 249 -215v-143q0 -215 -249 -215h-95q-107 0 -168 43q-61 -43 -165 -43h-95q-252 0 -252 215v45h429v98q0 84 -82 84h-95q-86 0 -86 -84h-166zM-838 -410q6 -74 86 -73h95q78 0 82 73h-263zM-408 -256 v-143q0 -84 84 -84h95q84 0 84 84v143q0 84 -84 84h-95q-84 0 -84 -84z" />
<glyph horiz-adv-x="2" d="M-881 -238q0 197 328 197h121q330 0 330 -197v-51q0 -88 -140 -88q0 -18 84 -18h117v-78h-117q-161 0 -161 96h-72q-129 0 -129 88t129 88h65q-20 53 -106 54h-121q-111 0 -111 -91v-180q0 -90 111 -90h121q47 0 76 16l172 -73q-82 -49 -248 -49h-121q-328 0 -328 196 v180zM-442 -289q0 -45 51 -45h72v88h-72q-51 0 -51 -43z" />
<glyph horiz-adv-x="393" d="M-881 -279q0 238 330 238h121q328 0 328 -238v-51l184 -71v1466h229v-1679h-219l-239 94q-76 -94 -283 -94h-121q-330 0 -330 237v98zM-664 -287v-82l5 -39h67q51 0 51 80t-51 80h-67zM-633 -195h41q129 0 129 -133t-129 -133h-41q29 -25 82 -24h121q111 0 111 108v98 q0 109 -111 109h-121q-53 0 -82 -25z" />
<glyph horiz-adv-x="0" d="M-942 -240q0 219 330 220h120q328 0 328 -175h-217q0 63 -111 64h-120q-113 0 -113 -109t113 -108h120q111 0 111 63h217q0 -174 -328 -174h-120q-330 0 -330 219zM-942 -453q150 -63 491 -63q133 0 215 43l72 -33v-127h123v-125h-332v125q-78 -8 -180 -8q-279 0 -389 74 v114z" />
<glyph horiz-adv-x="0" d="M-1004 -283q0 242 222 242q162 0 161 -242v-88h-127v88q0 96 -34 97q-53 0 -54 -97v-90q0 -96 107 -96h180q-8 51 -8 96v90q0 242 254 242h70q254 0 253 -242v-90q0 -242 -233 -241v145q66 0 66 96v90q0 96 -86 97h-70q-88 0 -88 -97v-90q0 -96 67 -96v-145h-405 q-274 0 -275 241v90z" />
<glyph horiz-adv-x="0" d="M-1004 -332q0 289 218 289h41q86 0 137 -43q31 45 96 45h45q65 0 96 -43q51 41 133 41h43q215 0 215 -289q0 -283 -215 -282v145q51 0 52 137q0 145 -52 146h-43q-72 0 -71 -146v-137q0 -145 -119 -145h-127q-119 0 -119 145v137q0 145 -71 146h-41q-53 0 -54 -146 q0 -137 54 -137v-145q-217 0 -218 282zM-571 -154q41 -47 41 -378h77q0 334 43 382q-18 25 -57 25h-45q-41 0 -59 -29z" />
<glyph horiz-adv-x="0" d="M-1004 -328q0 287 252 287h95q104 0 165 -51q61 51 168 51h95q250 0 249 -287q0 -287 -249 -286v153q84 0 84 133t-84 133h-95q-84 1 -84 -208q0 -211 -249 -211h-95q-252 0 -252 286zM-838 -328q0 -133 86 -133h95q82 0 82 133t-82 133h-95q-86 0 -86 -133z" />
<glyph horiz-adv-x="0" d="M-1004 -328q0 287 252 287h95q104 0 165 -49q61 49 168 49h95q250 0 249 -287q0 -287 -249 -286h-95q-106 0 -168 49q-61 -49 -165 -49h-95q-252 0 -252 286zM-838 -328q0 -141 86 -141h95q82 0 82 141t-82 142h-95q-86 0 -86 -142zM-408 -328q0 -141 84 -141h95 q84 0 84 141t-84 142h-95q-84 -1 -84 -142z" />
<glyph horiz-adv-x="0" d="M-881 -248q0 207 328 207h121q330 0 330 -174q0 -63 -64 -113q63 -49 64 -112q0 -174 -330 -174h-121q-328 0 -328 206h217q0 -82 111 -81h121q113 0 113 49t-113 49h-121v127h121q113 0 113 49t-113 49h-121q-111 0 -111 -82h-217z" />
<glyph horiz-adv-x="2" d="M-881 -291q0 250 330 250h121q328 0 328 -250v-74q0 -250 -328 -249h-121q-330 0 -330 249v74zM-664 -291v-24q41 10 105 10h145q55 0 95 -8v22q0 115 -111 115h-121q-113 0 -113 -115zM-664 -379q8 -100 113 -100h121q106 0 111 104q-29 14 -95 15h-145q-80 -1 -105 -19 z" />
<glyph horiz-adv-x="0" d="M-881 -449h2q0 74 150 74h145q152 0 152 -74v-59h2q111 0 111 90q0 57 -230 90q-240 35 -239 150q-1 137 286 137q307 0 307 -152h-186q0 45 -121 46q-100 0 -100 -31t98 -45q401 -57 402 -195q0 -197 -390 -196q-389 0 -389 165zM-664 -449q0 -59 113 -59h41v59 q0 29 -74 29q-80 0 -80 -29z" />
<glyph horiz-adv-x="2" d="M-881 -328q0 287 310 287v-145q-92 0 -93 -142q0 -141 113 -141h121q111 0 111 141t-91 142v145q307 0 308 -287q0 -287 -328 -286h-121q-330 0 -330 286z" />
<glyph horiz-adv-x="2" d="M-881 -328q0 287 289 287v-141q-72 0 -72 -146q0 -145 111 -145h121q113 0 113 117h-52q-131 0 -131 114v80q0 121 109 121q291 0 291 -287t-330 -286h-121q-328 0 -328 286zM-424 -221v-21q0 -57 53 -57h52v27q0 90 -74 90q-31 0 -31 -39z" />
<glyph horiz-adv-x="2" d="M-881 -328q0 287 291 287v-100q0 -41 72 -41h53q74 0 74 41v100q289 0 289 -287t-328 -286h-121q-330 0 -330 286zM-664 -328q0 -141 113 -141h121q111 0 111 141q0 66 -23 97q-37 -33 -123 -33h-53q-86 0 -123 33q-23 -31 -23 -97z" />
<glyph horiz-adv-x="0" d="M-1004 -264q0 223 250 223h95q106 0 167 -49q61 49 166 49h95q252 0 251 -287q0 -287 -251 -286v145q86 0 86 141t-86 142h-95q-82 0 -82 -142q0 -287 -251 -286h-95q-250 0 -250 223h166q0 -78 84 -78h95q84 0 84 141t-84 142h-95q-84 0 -84 -78h-166z" />
<glyph horiz-adv-x="2" d="M-881 -328q0 287 310 287v-145q-93 -1 -93 -105q41 10 105 10h145q55 0 95 -10q0 104 -91 105v145q307 0 308 -287q0 -287 -328 -286h-121q-330 0 -330 286zM-664 -381q8 -88 113 -88h121q106 0 111 92q-29 14 -95 15h-145q-80 -1 -105 -19z" />
<glyph horiz-adv-x="0" d="M-1004 -328q0 287 252 287h95q250 0 249 -287q0 -141 84 -141h95q84 0 84 141t-84 142v145q250 0 249 -287q0 -287 -249 -286h-95q-252 0 -251 286q0 142 -82 142h-95q-86 0 -86 -142q0 -141 86 -141v-145q-252 0 -252 286z" />
<glyph horiz-adv-x="2" d="M-881 -328q0 287 330 287h121q328 0 328 -287t-328 -286h-121q-330 0 -330 286zM-664 -328q0 -141 113 -141h121q111 0 111 141t-111 142h-121q-113 0 -113 -142z" />
<glyph horiz-adv-x="2" d="M-1214 -473l90 151l182 -94l63 125q18 250 328 250h121q328 0 328 -287t-328 -286h-121q-213 -1 -287 118l-100 -118zM-664 -328q0 -141 113 -141h121q111 0 111 141t-111 142h-121q-113 0 -113 -142z" />
<glyph horiz-adv-x="393" d="M82 -393v1851q0 365 346 365h1112q344 0 344 -365v-229h-229v229q0 168 -115 168h-1112q-117 0 -117 -168v-1851q0 -168 117 -168h1112q115 0 115 168v598h229v-598q0 -365 -344 -365h-1112q-346 0 -346 365z" />
<glyph horiz-adv-x="393" d="M82 -614v1679h229v-1516h123v-163h-352z" />
<glyph horiz-adv-x="747" d="M82 -614v1679h229v-1679h-229zM436 -614v1679h230v-1516h122v-163h-352z" />
<glyph horiz-adv-x="393" d="M82 -393v1851q0 365 346 365h522q344 0 344 -365v-229h-229v229q0 168 -115 168h-522q-117 0 -117 -168v-1851q0 -168 117 -168h195v-197h-195q-346 0 -346 365z" />
<glyph horiz-adv-x="393" d="M82 -393v1851q0 365 346 365h195v-197h-195q-117 0 -117 -168v-1851q0 -168 117 -168h522q115 0 115 168v598h229v-598q0 -365 -344 -365h-522q-346 0 -346 365z" />
<glyph horiz-adv-x="393" d="M82 -393v1851q0 365 346 365h195v-197h-195q-117 0 -117 -168v-1851q0 -168 117 -168h195v-197h-195q-346 0 -346 365z" />
<glyph horiz-adv-x="393" d="M82 -393v1851q0 365 346 365h1112q344 0 344 -365v-229h-229v229q0 168 -115 168h-1112q-117 0 -117 -168v-1851q0 -168 117 -168h823v-197h-823q-346 0 -346 365z" />
<glyph horiz-adv-x="393" d="M82 -393v1851q0 365 346 365h557v-197h-557q-117 0 -117 -168v-1851q0 -168 117 -168h1112q115 0 115 168v598h229v-598q0 -365 -344 -365h-1112q-346 0 -346 365z" />
<glyph horiz-adv-x="393" d="M82 -393v1851q0 365 346 365h557v-197h-557q-117 0 -117 -168v-1851q0 -168 117 -168h557v-197h-557q-346 0 -346 365z" />
<glyph d="M82 74v311h115q96 -43 376 -43q63 0 99 8v64q-51 -10 -115 -11h-129q-346 0 -346 281v100q0 281 346 281h129q344 0 344 -281h-229q0 129 -115 129h-129q-117 0 -117 -129v-100q0 -129 117 -129h129q115 0 115 129h229v-410q-123 -74 -307 -73q-213 0 -328 28v-71 q88 -31 328 -31q133 0 215 41l92 -31v-731h123v-164h-352v766q-78 -8 -180 -8q-279 0 -410 74zM82 -240q0 219 209 220h76q207 0 206 -175h-137q0 63 -69 64h-76q-72 0 -72 -109t72 -108h76q70 0 69 63h137q0 -174 -206 -174h-76q-209 0 -209 219zM82 -453q94 -63 311 -63 q84 0 135 43l45 -33v-127h78v-125h-209v125q-49 -8 -114 -8q-176 0 -246 74v114z" />
<glyph horiz-adv-x="1572" d="M82 -268v633h229q0 -168 115 -168h129q117 0 117 168v335q0 168 -117 168h-129q-115 0 -115 -168h-229q0 365 344 365h129q346 0 346 -365v-335q0 -168 115 -168h129q117 0 117 168v335q0 168 -117 168v197q346 0 346 -365v-335q0 -365 -346 -365h-129q-145 0 -230 66 q-84 -66 -231 -66h-129q-84 0 -147 23v-291q0 -150 167 -150h340v-196h-340q-365 0 -364 346z" />
<glyph d="M82 307h2q0 137 158 137h153q160 0 160 -137v-110h2q115 0 115 168q0 109 -240 167q-254 63 -254 277q0 256 303 256q324 0 324 -283h-197q0 86 -127 86q-106 0 -106 -59q0 -57 104 -84q422 -104 422 -360q0 -338 -295 -363h-229q-295 23 -295 305zM311 307 q0 -111 117 -110h45v110q0 55 -78 55q-84 0 -84 -55z" />
<glyph d="M82 365v335q0 365 346 365h129q344 0 344 -365v-1151h-229v1151q0 168 -115 168h-129q-117 0 -117 -168v-137h54q137 0 137 -160v-235q0 -168 -115 -168q-305 0 -305 365zM311 365q0 -168 76 -168q33 0 33 53v153q0 78 -55 78h-54v-116z" />
<glyph d="M82 -268v633h229q0 -168 115 -168h129q117 0 117 168v335q0 168 -117 168h-129q-115 0 -115 -168h-229q0 365 344 365h129q346 0 346 -365v-335q0 -365 -346 -365h-129q-84 0 -147 23v-291q0 -150 167 -150v-196q-365 0 -364 346z" />
<glyph horiz-adv-x="40" d="M-246 -246q0 205 205 205t205 -205t-205 -205t-205 205zM-102 -246q0 -61 61 -61t61 61t-61 62q-61 0 -61 -62z" />
<glyph horiz-adv-x="393" d="M-406 -483l230 102l258 -133v1579h229v-1823h-186z" />
<glyph horiz-adv-x="0" d="M-874 -541l108 123l92 -82l273 305l172 -153l-383 -428z" />
<glyph horiz-adv-x="0" d="M-102 -246q-1 205 204 205t205 -205t-205 -205t-204 205zM41 -246q0 -61 61 -61q62 0 62 61t-62 62q-61 0 -61 -62z" />
<glyph d="M82 18q170 -98 393 -98t426 98v-411q0 -365 -344 -365h-129q-346 0 -346 242t346 242h125v-197h-125q-117 0 -117 -45t117 -45h129q115 0 115 168v192q-100 -23 -195 -22q-199 0 -395 100v141zM82 365v335q0 365 346 365h129q344 0 344 -365h-229q0 168 -115 168h-129 q-117 0 -117 -168v-335q0 -168 117 -168h129q115 0 115 168h229q0 -365 -344 -365h-129q-346 0 -346 365z" />
<glyph horiz-adv-x="0" d="M-729 -307h123v266h229v-430h-352v164z" />
</font>
</defs>
</svg>
