<?xml version="1.0" standalone="no"?>
<!DOCTYPE svg PUBLIC "-//W3C//DTD SVG 1.1//EN" "http://www.w3.org/Graphics/SVG/1.1/DTD/svg11.dtd" >
<svg xmlns="http://www.w3.org/2000/svg" xmlns:xlink="http://www.w3.org/1999/xlink" version="1.1">
<metadata></metadata>
<defs>
<font id="myanmar_pixelregular" horiz-adv-x="1105" >
<font-face units-per-em="2048" ascent="1536" descent="-512" />
<missing-glyph horiz-adv-x="512" />
<glyph unicode="&#x103e;&#x102f;" horiz-adv-x="0" d="M-1106 -553h184v553h185v-737h-369v184zM-553 0h184v-553h185v-184h-369v737z" />
<glyph unicode="&#x1085;&#x1036;" horiz-adv-x="0" d="M-1106 1106v184h553v-184h-553zM-1106 1475v184h184v-184h-184zM-922 1290v185h185v-185h-185zM-922 1659v184h369v-184h-369zM-369 1475v184h185v-184h-185z" />
<glyph unicode="&#x1085;&#x102d;" horiz-adv-x="0" d="M-1106 1106v184h553v-184h-553zM-1106 1475v184h184v-184h-184zM-922 1290v185h185v-185h-185zM-922 1659v184h369v-184h-369zM-553 1290v369h184v-369h-184zM-369 1106v184h185v-184h-185zM-369 1659v184h185v-184h-185zM-184 1290v369h184v-369h-184z" />
<glyph unicode="&#x1085;&#x102e;" horiz-adv-x="0" d="M-1106 1106v184h553v-184h-553zM-1106 1475v184h184v-184h-184zM-922 1290v185h185v-185h-185zM-922 1659v184h369v-184h-369zM-553 1290v369h184v-369h-184zM-369 1106v184h185v-184h-185zM-369 1290v185h185v-185h-185zM-369 1659v184h185v-184h-185zM-184 1290v369 h184v-369h-184z" />
<glyph unicode="&#x102d;&#x1036;" horiz-adv-x="0" d="M-922 1290v369h185v-369h-185zM-737 1106v184h184v-184h-184zM-737 1659v184h184v-184h-184zM-553 1290v369h184v-369h-184zM-184 1475v184h184v-184h-184z" />
<glyph unicode="&#x100d;&#x1039;&#x100d;" d="M0 -55h475v-113h-475v113zM0 164v184h184v-184h-184zM0 -283h475v-112h-475v112zM0 348v184h737v-184h-737zM0 -395h158v-115h-158v115zM0 717v184h184v-184h-184zM158 -510h317v-113h-317v113zM184 -20v184h553v-184h-553zM184 901v184h553v-184h-553zM475 -168h160 v-115h-160v115zM475 -510h160v-227h-160v227zM635 -623h158v-114h-158v114zM737 164h185v-737h-185v737zM737 532v369h185v-369h-185zM922 -389h184v-184h-184v184z" />
<glyph unicode="&#x100e;&#x1039;&#x100d;" horiz-adv-x="1290" d="M0 184v553h184v-553h-184zM0 922v184h184v-184h-184zM184 0v184h738v-184h-738zM184 737v185h185v-185h-185zM369 219v105h368v-105h-368zM369 426v104h368v-104h-368zM369 633v104h368v-104h-368zM553 530v103h184v-103h-184zM737 324h185v-877h184v-184h-369v1061z M737 922v184h185v-184h-185zM922 184v738h184v-738h-184z" />
<glyph unicode="&#x100f;&#x1039;&#x100d;" horiz-adv-x="1843" d="M0 184v738h184v-738h-184zM184 0v184h185v-184h-185zM184 -369h185v-368h-185v368zM184 922v184h369v-184h-369zM369 -184h368v-185h-368v185zM553 0v184h553v-184h-553zM553 184v738h184v-738h-184zM553 -553h184v-184h-184v184zM737 -369h185v-184h-185v184zM737 922 v184h185v-184h-185zM922 184v738h184v-738h-184zM922 -553h184v-184h-184v184zM1106 -184h184v-369h-184v369zM1106 922v184h369v-184h-369zM1290 0v184h185v-184h-185zM1290 0h185v-184h-185v184zM1475 184v738h184v-738h-184z" />
<glyph unicode="&#x103e;&#x1030;" horiz-adv-x="0" d="M-1290 -553h184v553h184v-737h-368v184zM-737 0h184v-737h-184v737zM-369 0h185v-553h184v-184h-369v737z" />
<glyph unicode="&#x102b;&#x103a;" horiz-adv-x="737" d="M-369 1290v369h185v-369h-185zM-184 1659v184h553v-184h-553zM369 0v1659h184v-1659h-184zM553 1659v184h369v-184h-369zM922 1290v369h184v-369h-184z" />
<glyph unicode="&#x103d;&#x1037;" horiz-adv-x="0" d="M-1106 -184h184v-369h-184v369zM-922 0h369v-184h-369v184zM-922 -553h369v-184h-369v184zM-553 -184h184v-369h-184v369zM-184 -184h184v-185h-184v185z" />
<glyph unicode="&#xd;" horiz-adv-x="1040" />
<glyph unicode=" "  horiz-adv-x="512" />
<glyph unicode="&#x09;" horiz-adv-x="512" />
<glyph unicode="&#xa0;" horiz-adv-x="512" />
<glyph unicode="&#x1000;" horiz-adv-x="1843" d="M0 184v738h184v-738h-184zM184 0v184h185v-184h-185zM184 922v184h553v-184h-553zM553 0v184h184v-184h-184zM737 184v738h185v-738h-185zM922 922v184h553v-184h-553zM1290 0v184h185v-184h-185zM1475 184v738h184v-738h-184z" />
<glyph unicode="&#x1001;" d="M0 184v369h184v-369h-184zM0 737v185h184v-185h-184zM184 0v184h553v-184h-553zM184 369v184h553v-184h-553zM184 922v184h553v-184h-553zM737 184v738h185v-738h-185z" />
<glyph unicode="&#x1002;" d="M0 184v738h184v-738h-184zM184 0v184h185v-184h-185zM184 922v184h553v-184h-553zM553 0v184h184v-184h-184zM737 184v738h185v-738h-185z" />
<glyph unicode="&#x1003;" horiz-adv-x="1843" d="M0 184v553h184v-553h-184zM0 922v184h184v-184h-184zM184 0v184h553v-184h-553zM184 737v185h185v-185h-185zM553 922v184h184v-184h-184zM737 184v738h185v-738h-185zM922 0v184h553v-184h-553zM1290 922v184h185v-184h-185zM1475 184v738h184v-738h-184z" />
<glyph unicode="&#x1004;" d="M0 184v738h184v-738h-184zM184 0v184h553v-184h-553zM184 922v184h553v-184h-553zM737 184v185h185v-185h-185zM737 737v185h185v-185h-185z" />
<glyph unicode="&#x1005;" d="M0 184v738h184v-738h-184zM184 0v184h553v-184h-553zM184 184v185h185v-185h-185zM184 737v185h185v-185h-185zM184 922v184h553v-184h-553zM369 369v368h184v-368h-184zM737 184v738h185v-738h-185z" />
<glyph unicode="&#x1006;" horiz-adv-x="1843" d="M0 184v369h184v-369h-184zM0 737v185h184v-185h-184zM184 0v184h553v-184h-553zM184 369v184h553v-184h-553zM184 922v184h553v-184h-553zM737 184v738h185v-738h-185zM922 0v184h553v-184h-553zM922 922v184h553v-184h-553zM1475 184v738h184v-738h-184z" />
<glyph unicode="&#x1007;" d="M0 184v738h184v-738h-184zM184 0v184h553v-184h-553zM184 922v184h553v-184h-553zM553 553v184h184v-184h-184zM737 369v184h185v-184h-185zM737 553v369h185v-369h-185zM922 369v184h184v-184h-184z" />
<glyph unicode="&#x1008;" horiz-adv-x="1474" d="M0 184v738h184v-738h-184zM184 0v184h553v-184h-553zM184 184v185h185v-185h-185zM184 737v185h185v-185h-185zM184 922v184h553v-184h-553zM369 0h184v-553h-184v553zM369 369v368h184v-368h-184zM553 -553h553v-184h-553v184zM737 184v738h185v-738h-185zM1106 -553 v1659h184v-1659h-184z" />
<glyph unicode="&#x1009;" d="M0 0h184v-553h-184v553zM0 184v185h184v-185h-184zM0 737v185h184v-185h-184zM184 0v184h553v-184h-553zM184 -553h922v-184h-922v184zM184 922v184h553v-184h-553zM737 184v738h185v-738h-185zM1106 0h184v-553h-184v553z" />
<glyph unicode="&#x100a;" horiz-adv-x="1843" d="M0 0h184v-553h-184v553zM0 184v185h184v-185h-184zM0 737v185h184v-185h-184zM184 0v184h553v-184h-553zM184 -553h1291v-184h-1291v184zM184 922v184h553v-184h-553zM737 184v738h185v-738h-185zM922 0v184h553v-184h-553zM1290 922v184h185v-184h-185zM1475 -184h184 v-369h-184v369zM1475 184v738h184v-738h-184z" />
<glyph unicode="&#x100b;" d="M0 0h184v-369h-184v369zM0 369v553h184v-553h-184zM184 0h553v-184h-553v184zM184 184v185h553v-185h-553zM184 -369h553v-184h-553v184zM184 922v184h553v-184h-553zM737 0v184h185v-184h-185zM737 369v184h185v-184h-185zM737 -369h185v-368h-185v368zM737 737v185h185 v-185h-185zM922 -553h184v-184h-184v184z" />
<glyph unicode="&#x100c;" d="M0 184v738h184v-738h-184zM0 -369h184v-184h-184v184zM184 0v184h553v-184h-553zM184 -184h369v-185h-369v185zM184 -553h553v-184h-553v184zM184 922v184h553v-184h-553zM737 0h185v-553h-185v553zM737 184v185h185v-185h-185zM737 737v185h185v-185h-185z" />
<glyph unicode="&#x100d;" d="M0 0h184v-184h-184v184zM0 184v185h184v-185h-184zM0 737v185h184v-185h-184zM184 0v184h553v-184h-553zM184 -184h553v-185h-553v185zM184 922v184h553v-184h-553zM737 184v738h185v-738h-185zM737 -184h185v-553h-185v553zM922 -553h184v-184h-184v184z" />
<glyph unicode="&#x100e;" d="M0 184v553h184v-553h-184zM0 922v184h184v-184h-184zM184 0v184h553v-184h-553zM184 737v185h185v-185h-185zM553 922v184h184v-184h-184zM737 184v738h185v-738h-185z" />
<glyph unicode="&#x100f;" horiz-adv-x="1843" d="M0 184v738h184v-738h-184zM184 0v184h185v-184h-185zM184 922v184h369v-184h-369zM553 0v184h553v-184h-553zM553 184v738h184v-738h-184zM737 922v184h185v-184h-185zM922 184v738h184v-738h-184zM1106 922v184h369v-184h-369zM1290 0v184h185v-184h-185zM1475 184v738 h184v-738h-184z" />
<glyph unicode="&#x1010;" horiz-adv-x="1843" d="M0 184v738h184v-738h-184zM184 0v184h553v-184h-553zM184 922v184h553v-184h-553zM737 184v738h185v-738h-185zM922 922v184h553v-184h-553zM1290 0v184h185v-184h-185zM1475 184v738h184v-738h-184z" />
<glyph unicode="&#x1011;" horiz-adv-x="1843" d="M0 184v738h184v-738h-184zM184 0v184h553v-184h-553zM184 922v184h553v-184h-553zM737 184v738h185v-738h-185zM922 0v184h553v-184h-553zM922 922v184h553v-184h-553zM1475 184v738h184v-738h-184z" />
<glyph unicode="&#x1012;" d="M0 184v185h184v-185h-184zM0 737v185h184v-185h-184zM184 0v184h553v-184h-553zM184 922v184h553v-184h-553zM369 553v184h368v-184h-368zM737 184v369h185v-369h-185zM737 737v185h185v-185h-185z" />
<glyph unicode="&#x1013;" d="M0 184v738h184v-738h-184zM184 0v184h553v-184h-553zM184 369v184h553v-184h-553zM184 922v184h553v-184h-553zM737 184v738h185v-738h-185z" />
<glyph unicode="&#x1014;" d="M0 184v369h184v-369h-184zM184 0v184h185v185h184v-185h184v-184h-184v-553h-184v553h-185zM184 369v184h185v-184h-185zM184 737v185h185v-185h-185zM369 553v184h368v-184h-368zM369 922v184h368v-184h-368zM737 184v369h185v-369h-185z" />
<glyph unicode="&#x1015;" d="M0 184v738h184v-738h-184zM184 0v184h553v-184h-553zM184 922v184h185v-184h-185zM553 922v184h184v-184h-184zM737 184v738h185v-738h-185z" />
<glyph unicode="&#x1016;" d="M0 184v922h184v-922h-184zM184 0v184h553v-184h-553zM369 553v369h184v-369h-184zM553 369v184h184v-184h-184zM553 922v184h184v-184h-184zM737 184v738h185v-738h-185z" />
<glyph unicode="&#x1017;" d="M0 184v738h184v-738h-184zM184 0v184h553v-184h-553zM184 922v184h185v-184h-185zM369 737v185h184v-185h-184zM553 922v184h184v-184h-184zM737 184v738h185v-738h-185z" />
<glyph unicode="&#x1018;" horiz-adv-x="1843" d="M0 184v185h184v-185h-184zM0 737v185h184v-185h-184zM184 0v184h553v-184h-553zM184 922v184h553v-184h-553zM737 184v738h185v-738h-185zM922 922v184h553v-184h-553zM1290 0v184h185v-184h-185zM1475 184v738h184v-738h-184z" />
<glyph unicode="&#x1019;" d="M0 184v738h184v-738h-184zM184 0v184h553v-184h-553zM184 369v184h553v-184h-553zM184 922v184h185v-184h-185zM553 922v184h184v-184h-184zM737 184v738h185v-738h-185z" />
<glyph unicode="&#x101a;" horiz-adv-x="1843" d="M0 184v738h184v-738h-184zM184 0v184h553v-184h-553zM184 922v184h185v-184h-185zM553 922v184h184v-184h-184zM737 184v738h185v-738h-185zM922 0v184h553v-184h-553zM1290 922v184h185v-184h-185zM1475 184v738h184v-738h-184z" />
<glyph unicode="&#x101b;" d="M0 184v738h184v-185h185v-184h-185v-369h-184zM184 0v184h185v-184h-185zM184 922v184h553v-184h-553zM369 184v369h184v-369h-184zM737 -553v1475h185v-1475h-185zM922 -553h184v-184h-184v184z" />
<glyph unicode="&#x101c;" horiz-adv-x="1843" d="M0 184v738h184v-738h-184zM184 0v184h185v-184h-185zM184 922v184h553v-184h-553zM737 184v738h185v-738h-185zM922 0v184h553v-184h-553zM1290 922v184h185v-184h-185zM1475 184v738h184v-738h-184z" />
<glyph unicode="&#x101d;" d="M0 184v738h184v-738h-184zM184 0v184h553v-184h-553zM184 922v184h553v-184h-553zM737 184v738h185v-738h-185z" />
<glyph unicode="&#x101e;" horiz-adv-x="1843" d="M0 184v185h184v-185h-184zM0 737v185h184v-185h-184zM184 0v184h553v-184h-553zM184 922v184h553v-184h-553zM737 184v738h185v-738h-185zM922 0v184h553v-184h-553zM1290 922v184h185v-184h-185zM1475 184v738h184v-738h-184z" />
<glyph unicode="&#x101f;" horiz-adv-x="1843" d="M0 184v738h184v-738h-184zM184 0v184h553v-184h-553zM184 922v184h185v-184h-185zM553 922v184h184v-184h-184zM737 184v738h185v-738h-185zM922 922v184h553v-184h-553zM1290 0v184h185v-184h-185zM1475 184v738h184v-738h-184z" />
<glyph unicode="&#x1020;" d="M0 -184h737v-185h-553v-184h-184v369zM0 184v738h184v-738h-184zM184 0v184h553v185h185v-553h-185v184h-553zM184 -553h738v-184h-738v184zM184 922v184h553v-184h-553zM737 737v185h185v-185h-185z" />
<glyph unicode="&#x1021;" horiz-adv-x="1843" d="M0 184v185h184v-185h-184zM0 737v185h184v-185h-184zM184 0v184h553v-184h-553zM184 922v184h553v-184h-553zM369 553v184h368v-184h-368zM737 184v369h185v-369h-185zM737 737v185h185v-185h-185zM922 922v184h553v-184h-553zM1106 184v369h184v-369h-184zM1290 0v184 h185v-184h-185zM1290 553v184h185v-184h-185zM1475 184v738h184v-738h-184z" />
<glyph unicode="&#x1022;" horiz-adv-x="1843" d="M0 0v184h184v-184h-184zM0 369v553h184v-553h-184zM184 184v185h185v-185h-185zM184 922v184h553v-184h-553zM553 0v184h184v-184h-184zM737 184v738h185v-738h-185zM922 922v184h553v-184h-553zM1290 0v184h185v-184h-185zM1475 184v738h184v-738h-184z" />
<glyph unicode="&#x1023;" horiz-adv-x="1843" d="M0 -184h184v-369h-184v369zM0 369v553h184v-553h-184zM184 0h553v-184h-553v184zM184 184v185h185v-185h-185zM184 -553h185v-184h-185v184zM184 922v184h553v-184h-553zM553 184v185h184v-185h-184zM553 -553h184v-184h-184v184zM737 -184h185v-369h-185v369zM737 369 v553h185v-553h-185zM922 0h368v-184h-368v184zM922 922v184h553v-184h-553zM1106 -553h553v-184h-553v184zM1290 184v185h185v-185h-185zM1290 -184h185v-369h-185v369zM1475 369v553h184v-553h-184z" />
<glyph unicode="&#x1024;" horiz-adv-x="2211" d="M0 184v738h184v-738h-184zM0 -369h184v-184h-184v184zM184 0v184h185v-184h-185zM184 -184h1106v-185h-1106v185zM184 -553h1291v-184h-1291v184zM184 922v184h553v-184h-553zM553 0v184h184v-184h-184zM737 184v738h185v-738h-185zM922 922v184h553v-184h-553z M1290 1290v369h185v-369h-185zM1475 -553v1475h184v-1475h-184zM1475 1106v184h368v-184h-368zM1475 1659v184h368v-184h-368zM1843 -737v1843h185v-1843h-185zM1843 1475v184h185v-184h-185z" />
<glyph unicode="&#x1025;" d="M0 0h184v-553h-184v553zM0 184v185h184v-185h-184zM0 737v185h184v-185h-184zM184 0v184h553v-184h-553zM184 -553h553v-184h-553v184zM184 922v184h553v-184h-553zM369 -184h368v-185h-368v185zM737 184v738h185v-738h-185zM737 -369h185v-184h-185v184z" />
<glyph unicode="&#x1026;" d="M0 0h184v-553h-184v553zM0 184v185h184v-185h-184zM0 737v185h184v-185h-184zM184 0v184h553v-184h-553zM184 -553h553v-184h-553v184zM184 922v184h553v-184h-553zM184 1290v369h185v-369h-185zM369 -184h368v-185h-368v185zM369 1106v184h368v-184h-368zM369 1290v185 h368v-185h-368zM369 1659v184h368v-184h-368zM737 184v738h185v-738h-185zM737 -369h185v-184h-185v184zM737 1290v369h185v-369h-185z" />
<glyph unicode="&#x1027;" horiz-adv-x="983" d="M0 0v922h184v-922h-184zM184 0h553v-184h-553v184zM184 184v185h553v-185h-553zM184 553v184h553v-184h-553zM184 922v184h553v-184h-553zM737 0v369h185v-369h-185zM737 553v369h185v-369h-185z" />
<glyph unicode="&#x1028;" d="M0 -553v1475h184v-1475h-184zM184 -553h553v-184h-553v184zM184 922v184h553v-184h-553zM369 184v553h184v-553h-184zM553 0v184h184v-184h-184zM737 184v738h185v-738h-185zM737 -184h185v-369h-185v369z" />
<glyph unicode="&#x1029;" horiz-adv-x="2211" d="M0 -553v2212h184v-2212h-184zM184 -553h1291v-184h-1291v184zM184 1659v184h1291v-184h-1291zM369 184v185h184v-185h-184zM369 737v185h184v-185h-184zM553 0v184h553v-184h-553zM553 922v184h553v-184h-553zM1106 184v738h184v-738h-184zM1290 0v184h553v-184h-553z M1475 0h184v-553h-184v553zM1659 922v184h184v-184h-184zM1843 184v738h185v-738h-185z" />
<glyph unicode="&#x102a;" horiz-adv-x="4055" d="M0 184v738h184v-369h738v-369h-185v185h-553v-185h-184zM184 0v184h553v-184h-553zM184 922v184h553v-184h-553zM737 737v185h185v-185h-185zM1106 -553v2212h184v-2212h-184zM1290 -553h1290v-184h-1290v184zM1290 1659v184h1290v-184h-1290zM1475 184v185h184v-185 h-184zM1475 737v185h184v-185h-184zM1659 0v184h553v-184h-553zM1659 922v184h553v-184h-553zM2212 184v738h184v-738h-184zM2396 0v184h553v-184h-184v-553h-185v553h-184zM2765 922v184h184v-184h-184zM2949 184v738h184v-738h-184zM2949 1290v369h184v-369h-184z M3133 922v184h553v-184h-553zM3133 1106v184h185v-184h-185zM3133 1659v184h369v-184h-369zM3502 0v184h184v-184h-184zM3502 1475v184h184v-184h-184zM3686 184v738h185v-738h-185z" />
<glyph unicode="&#x102b;" horiz-adv-x="737" d="M-369 1290v369h185v-369h-185zM-184 1659v184h553v-184h-553zM184 0v184h185v-184h-185zM369 184v1475h184v-1475h-184z" />
<glyph unicode="&#x102c;" horiz-adv-x="737" d="M-184 922v184h553v-184h-553zM184 0v184h185v-184h-185zM369 184v738h184v-738h-184z" />
<glyph unicode="&#x102d;" horiz-adv-x="0" d="M-922 1290v369h185v-369h-185zM-737 1106v184h368v-184h-368zM-737 1659v184h368v-184h-368zM-369 1290v369h185v-369h-185z" />
<glyph unicode="&#x102e;" horiz-adv-x="0" d="M-922 1290v369h185v-369h-185zM-737 1106v184h368v-184h-368zM-737 1290v185h368v-185h-368zM-737 1659v184h368v-184h-368zM-369 1290v369h185v-369h-185z" />
<glyph unicode="&#x102f;" horiz-adv-x="0" d="M-737 0h184v-553h184v-184h-368v737z" />
<glyph unicode="&#x1030;" horiz-adv-x="0" d="M-922 0h185v-737h-185v737zM-553 0h184v-553h185v-184h-369v737z" />
<glyph unicode="&#x1031;" d="M0 184v738h184v-369h738v-369h-185v185h-553v-185h-184zM184 0v184h553v-184h-553zM184 922v184h553v-184h-553zM737 737v185h185v-185h-185z" />
<glyph unicode="&#x1032;" horiz-adv-x="0" d="M-737 1659v184h184v-184h-184zM-553 1475v184h184v-184h-184zM-369 1290v185h185v-185h-185z" />
<glyph unicode="&#x1033;" horiz-adv-x="0" d="M-922 1290v369h185v-369h-185zM-737 1106v184h368v-184h-368zM-737 1475v184h184v-184h-184zM-737 1659v184h368v-184h-368zM-369 1290v369h185v-369h-185z" />
<glyph unicode="&#x1034;" horiz-adv-x="0" d="M-737 1290v185h184v-185h-184zM-553 1475v184h184v-184h-184zM-369 1659v184h185v-184h-185z" />
<glyph unicode="&#x1035;" horiz-adv-x="0" d="M-922 1290v369h185v-184h553v-185h-185v-184h-368v184h-185zM-737 1659v184h368v-184h-368z" />
<glyph unicode="&#x1036;" horiz-adv-x="0" d="M-737 1290v185h184v-185h-184z" />
<glyph unicode="&#x1037;" horiz-adv-x="0" d="M-553 -184h184v-185h-184v185z" />
<glyph unicode="&#x1038;" horiz-adv-x="368" d="M0 184v185h184v-185h-184zM0 737v185h184v-185h-184z" />
<glyph unicode="&#x1039;" horiz-adv-x="0" d="M-737 -369h184v185h184v-185h185v-184h-185v-184h-184v184h-184v184z" />
<glyph unicode="&#x103a;" horiz-adv-x="0" d="M-922 1290v369h185v-369h-185zM-737 1106v184h184v-184h-184zM-737 1659v184h368v-184h-368zM-369 1475v184h185v-184h-185z" />
<glyph unicode="&#x103b;" horiz-adv-x="368" d="M-553 0h184v-553h-184v553zM-369 -553h369v-184h-369v184zM0 -553v1659h184v-1659h-184z" />
<glyph unicode="&#x103c;" horiz-adv-x="368" d="M0 -553v2212h184v-2212h-184zM184 -553h922v-184h-922v184zM184 1659v184h922v-184h-922zM1106 0h184v-553h-184v553zM1106 1290v369h184v-369h-184z" />
<glyph unicode="&#x103d;" horiz-adv-x="0" d="M-922 -184h185v-369h-185v369zM-737 0h368v-184h-368v184zM-737 -553h368v-184h-368v184zM-369 -184h185v-369h-185v369z" />
<glyph unicode="&#x103e;" horiz-adv-x="0" d="M-737 -553h184v553h184v-737h-368v184z" />
<glyph unicode="&#x103f;" horiz-adv-x="2580" d="M0 184v185h184v-185h-184zM0 737v185h184v-185h-184zM184 0v184h553v-184h-553zM184 922v184h553v-184h-553zM737 184v738h185v-738h-185zM922 0v184h553v-184h-553zM1290 922v184h185v-184h-185zM1475 184v738h184v-738h-184zM1659 0v184h553v-184h-553zM2028 922v184 h184v-184h-184zM2212 184v738h184v-738h-184z" />
<glyph unicode="&#x1040;" d="M0 184v738h184v-738h-184zM184 0v184h553v-184h-553zM184 922v184h553v-184h-553zM737 184v738h185v-738h-185z" />
<glyph unicode="&#x1041;" d="M0 184v185h184v-185h-184zM0 737v185h184v-185h-184zM184 0v184h553v-184h-553zM184 922v184h553v-184h-553zM737 184v738h185v-738h-185z" />
<glyph unicode="&#x1042;" horiz-adv-x="921" d="M0 -184h184v-369h-184v369zM184 -553h369v-184h-369v184zM553 -553v1659h184v-1659h-184z" />
<glyph unicode="&#x1043;" d="M0 184v185h184v-185h-184zM0 737v185h184v-185h-184zM184 0v184h553v-184h-553zM184 0h185v-184h-185v184zM184 922v184h553v-184h-553zM369 -184h184v-185h-184v185zM553 -369h184v-184h-184v184zM737 184v738h185v-738h-185z" />
<glyph unicode="&#x1044;" d="M0 184v738h184v-738h-184zM184 0v184h553v-184h-553zM184 -369h185v-184h-185v184zM184 922v184h553v-184h-553zM369 -184h184v-185h-184v185zM553 0h184v-184h-184v184zM737 184v185h185v-185h-185zM737 737v185h185v-185h-185z" />
<glyph unicode="&#x1045;" d="M0 -184h184v-369h-184v369zM0 553v369h184v-185h369v-184h-553zM184 -553h553v-184h-553v184zM184 922v184h553v-184h-553zM737 -553v1475h185v-1475h-185z" />
<glyph unicode="&#x1046;" d="M0 184v1475h184v-1475h-184zM184 0v184h553v-184h-553zM184 1659v184h553v-184h-553zM369 737v185h184v-185h-184zM553 553v184h184v-184h-184zM553 922v184h369v-184h-369zM737 184v369h185v-369h-185zM737 1290v369h185v-369h-185z" />
<glyph unicode="&#x1047;" d="M0 369v553h184v-553h-184zM184 184v185h185v-185h-185zM184 -184h185v-369h-185v369zM184 922v184h553v-184h-553zM369 0h184v-184h-184v184zM369 -553h184v-184h-184v184zM553 0v184h184v-184h-184zM553 -369h184v-184h-184v184zM737 184v738h185v-738h-185z" />
<glyph unicode="&#x1048;" d="M0 184v738h184v-185h185v-184h-185v-369h-184zM184 0v184h185v-184h-185zM184 922v184h553v-184h-553zM369 184v369h184v-369h-184zM737 0v922h185v-922h-185z" />
<glyph unicode="&#x1049;" d="M0 -553v1475h184v-1475h-184zM184 -553h553v-184h-553v184zM184 922v184h553v-184h-553zM369 184v185h184v-185h-184zM553 0v184h369v-184h-369zM553 369v184h184v-184h-184zM737 -184h185v-369h-185v369zM737 553v369h185v-369h-185z" />
<glyph unicode="&#x104a;" horiz-adv-x="368" d="M0 0v1106h184v-1106h-184z" />
<glyph unicode="&#x104b;" horiz-adv-x="737" d="M0 0v1106h184v-1106h-184zM369 0v1106h184v-1106h-184z" />
<glyph unicode="&#x104c;" d="M0 -184v553h184v-185h553v-184h-553v-184h-184zM0 -369h184v-184h-184v184zM0 737v185h184v-185h-184zM184 -184h738v-369h-185v184h-553v185zM184 -553h553v-184h-553v184zM184 922v184h553v-184h-553zM184 1290v369h185v-369h-185zM369 1106v184h184v-184h-184z M369 1659v184h368v-184h-368zM737 184v738h185v-738h-185zM737 1475v184h185v-184h-185z" />
<glyph unicode="&#x104d;" horiz-adv-x="1474" d="M0 184v738h184v-185h185v-184h-185v-369h-184zM0 -369h184v-184h-184v184zM184 0v184h185v-184h-185zM184 -184h369v-185h-369v185zM184 -553h922v-184h-922v184zM184 922v184h553v-184h-553zM369 184v369h184v-369h-184zM553 1290v369h184v-369h-184zM737 -369v1291h185 v-1291h-185zM737 1106v184h369v-184h-369zM737 1659v184h369v-184h-369zM1106 -553v1659h184v-1659h-184zM1106 1475v184h184v-184h-184z" />
<glyph unicode="&#x104e;" d="M0 184v738h184v-738h-184zM184 0v184h553v185h185v-1106h-185v737h-553zM184 922v184h553v-184h-553zM737 737v185h185v-185h-185z" />
<glyph unicode="&#x104f;" horiz-adv-x="2211" d="M0 0v922h184v-185h553v185h185v-369h-738v-184h738v-369h-185v184h-553v-184h-184zM184 0h553v-184h-553v184zM184 922v184h553v-184h-553zM922 922v184h553v-184h-553zM1290 0v184h185v-184h-185zM1290 1290v369h185v-369h-185zM1475 184v738h184v-738h-184zM1475 1106 v184h368v-184h-368zM1475 1659v184h368v-184h-368zM1843 0v1106h185v-1106h-185zM1843 1475v184h185v-184h-185z" />
<glyph unicode="&#x1050;" d="M0 184v738h184v-738h-184zM184 0v184h185v-184h-185zM184 922v184h553v-184h-553zM369 553v184h184v-184h-184zM553 0v184h184v-184h-184zM737 184v738h185v-738h-185z" />
<glyph unicode="&#x1051;" d="M0 184v738h184v-738h-184zM184 0v184h553v-184h-553zM184 922v184h185v-184h-185zM369 369v184h184v-184h-184zM553 922v184h184v-184h-184zM737 184v738h185v-738h-185z" />
<glyph unicode="&#x1052;" d="M0 184v738h184v-738h-184zM184 0v184h553v-184h-553zM184 922v184h185v-184h-185zM553 737v185h184v-185h-184zM737 184v553h185v-553h-185zM737 922v184h185v-184h-185z" />
<glyph unicode="&#x1053;" d="M0 184v553h184v-553h-184zM0 922v184h184v-184h-184zM184 0v184h553v-184h-553zM184 737v185h185v-185h-185zM553 737v185h184v-185h-184zM737 184v553h185v-553h-185zM737 922v184h185v-184h-185z" />
<glyph unicode="&#x1054;" d="M0 184v738h184v-185h553v185h185v-369h-738v-369h-184zM184 0v184h553v-184h-553zM184 922v184h553v-184h-553zM737 184v185h185v-185h-185z" />
<glyph unicode="&#x1055;" horiz-adv-x="983" d="M0 184v738h184v-185h553v185h185v-369h-738v-369h-184zM184 0v184h185v-184h-185zM184 922v184h553v-184h-553zM369 184v185h184v-185h-184zM553 0v184h184v-184h-184zM737 184v185h185v-185h-185z" />
<glyph unicode="&#x1056;" horiz-adv-x="737" d="M-184 0v184h553v-184h-553zM184 737v185h185v-185h-185zM369 184v553h184v-553h-184zM369 922v184h184v-184h-184z" />
<glyph unicode="&#x1057;" horiz-adv-x="737" d="M-369 184v185h185v-185h-185zM-184 0v184h184v-184h-184zM0 184v185h184v-185h-184zM184 0v184h185v-184h-185zM184 737v185h185v-185h-185zM369 184v553h184v-553h-184zM369 922v184h184v-184h-184z" />
<glyph unicode="&#x1058;" horiz-adv-x="0" d="M-922 -184h185v184h368v-184h185v-185h-553v-184h-185v369zM-737 -553h368v-184h-368v184z" />
<glyph unicode="&#x1059;" horiz-adv-x="0" d="M-922 -184h185v184h368v-184h185v-185h-553v-184h-185v369zM-737 -553h184v-184h-184v184zM-553 -369h184v-184h-184v184zM-369 -553h185v-184h-185v184z" />
<glyph unicode="&#x105a;" d="M0 184v738h184v-738h-184zM184 0v184h553v-184h-553zM184 922v184h553v-184h-553zM369 0h184v-184h-184v184zM369 -369h184v-184h-184v184zM553 -184h184v-185h-184v185zM553 -553h184v-184h-184v184zM737 184v185h185v-185h-185zM737 737v185h185v-185h-185z" />
<glyph unicode="&#x105b;" horiz-adv-x="1474" d="M0 184v738h184v-738h-184zM184 0v184h553v-184h-184v-553h-184v553h-185zM184 922v184h553v-184h-553zM553 -553h553v-184h-553v184zM553 553v184h184v185h185v-369h184v553h184v-1659h-184v922h-369v184h-184z" />
<glyph unicode="&#x105c;" d="M0 184v738h184v-738h-184zM184 0v184h553v-184h-553zM184 922v184h553v-184h-553zM369 369v368h184v-368h-184zM737 184v738h185v-738h-185z" />
<glyph unicode="&#x105d;" d="M0 184v738h184v-369h553v369h185v-738h-185v185h-553v-185h-184zM0 -369h184v-184h-184v184zM184 0v184h553v-184h-553zM184 -184h369v-185h-369v185zM184 -553h553v-184h-553v184zM184 922v184h185v-184h-185zM553 922v184h184v-184h-184zM737 0h185v-553h-185v553z" />
<glyph unicode="&#x105e;" horiz-adv-x="0" d="M-1106 -369h184v-184h-184v184zM-922 -184h553v184h185v-184h184v-185h-184v-184h-185v184h-553v185zM-922 -553h553v-184h-553v184z" />
<glyph unicode="&#x105f;" horiz-adv-x="0" d="M-553 -369h184v-184h-184v184zM-369 0h185v-369h-185v369zM-369 -553h185v-184h-185v184z" />
<glyph unicode="&#x1060;" horiz-adv-x="0" d="M-922 -369h185v185h184v-185h369v-184h-738v184zM-553 0h184v-184h-184v184z" />
<glyph unicode="&#x1061;" d="M0 184v738h184v-185h185v-184h-185v-369h-184zM184 0v184h185v-184h-185zM184 -553h185v553h184v-737h-369v184zM184 922v184h553v-184h-553zM369 184v369h184v-369h-184zM737 -553v1475h185v-1475h-185zM922 -553h184v-184h-184v184z" />
<glyph unicode="&#x1062;" horiz-adv-x="368" d="M-184 922v184h368v-184h-368zM0 0v922h184v-922h-184z" />
<glyph unicode="&#x1063;" d="M0 369h184v-185h553v-184h-553v-737h-184v1106zM0 737v185h184v-185h-184zM184 922v184h553v-184h-553zM737 184v738h185v-738h-185z" />
<glyph unicode="&#x1064;" horiz-adv-x="368" d="M-184 922v184h368v-922h185v-184h-369v922h-184z" />
<glyph unicode="&#x1065;" d="M0 184v185h184v-185h-184zM0 737v185h184v-185h-184zM184 0v184h553v-184h-553zM184 922v184h553v-184h-553zM737 184v738h185v-738h-185z" />
<glyph unicode="&#x1066;" d="M0 184v738h184v-738h-184zM184 0v184h553v-184h-184v-737h-369v184h185v553h-185zM184 922v184h185v-184h-185zM553 922v184h184v-184h-184zM737 184v738h185v-738h-185z" />
<glyph unicode="&#x1067;" horiz-adv-x="552" d="M-184 184v185h184v-185h-184zM0 0v184h184v-184h-184zM0 369v184h184v-184h-184zM184 184v922h185v-922h-185z" />
<glyph unicode="&#x1068;" horiz-adv-x="552" d="M0 0v184h184v922h185v-1106h-369zM0 1106v184h184v-184h-184zM184 1290v185h185v-185h-185zM369 1106v184h184v-184h-184z" />
<glyph unicode="&#x1069;" horiz-adv-x="552" d="M0 184v369h184v-369h-184zM0 922v184h184v-184h-184zM184 0v184h185v-184h-185zM184 553v369h185v-369h-185z" />
<glyph unicode="&#x106a;" horiz-adv-x="552" d="M-184 184v185h184v-185h-184zM0 0v184h184v-184h-184zM184 184v922h185v-922h-185z" />
<glyph unicode="&#x106b;" horiz-adv-x="552" d="M-184 737v185h184v-185h-184zM0 922v184h184v-184h-184zM184 0v922h185v-922h-185z" />
<glyph unicode="&#x106c;" horiz-adv-x="552" d="M0 184v922h184v-922h-184zM184 0v184h185v-184h-185zM369 184v185h184v-185h-184z" />
<glyph unicode="&#x106d;" horiz-adv-x="552" d="M0 0v184h184v-184h-184zM0 553v369h184v-369h-184zM184 184v369h185v-369h-185zM184 922v184h185v-184h-185z" />
<glyph unicode="&#x106e;" horiz-adv-x="2211" d="M0 184v738h184v-738h-184zM184 0v184h185v-184h-185zM184 922v184h553v-184h-553zM553 0v184h184v-184h-184zM737 184v738h185v-738h-185zM922 0v184h184v-184h-184zM922 922v184h184v-184h-184zM1106 184v738h184v-738h-184zM1290 922v184h553v-184h-553zM1659 0v184 h184v-184h-184zM1843 184v738h185v-738h-185z" />
<glyph unicode="&#x106f;" horiz-adv-x="1843" d="M0 184v738h184v-738h-184zM184 0v184h553v-184h-553zM184 922v184h185v-184h-185zM553 922v184h184v-184h-184zM737 184v738h185v-738h-185zM922 922v184h553v-184h-553zM1106 -553h184v737h185v-921h-369v184zM1475 184v738h184v-738h-184z" />
<glyph unicode="&#x1070;" horiz-adv-x="1843" d="M0 184v553h184v-553h-184zM0 922v184h184v-184h-184zM184 0v184h553v-184h-553zM184 737v185h185v-185h-185zM553 922v184h184v-184h-184zM737 184v738h185v-738h-185zM922 0v184h553v-921h-369v184h184v553h-368zM1290 922v184h185v-184h-185zM1475 184v738h184v-738 h-184z" />
<glyph unicode="&#x1071;" horiz-adv-x="0" d="M-737 1290v185h184v-185h-184zM-369 1290v185h185v-185h-185z" />
<glyph unicode="&#x1072;" horiz-adv-x="0" d="M-922 1290v369h185v-369h-185zM-737 1106v184h368v-184h-368zM-737 1659v184h368v-184h-368zM-369 1475v184h185v-184h-185z" />
<glyph unicode="&#x1073;" horiz-adv-x="0" d="M-1106 1290v185h184v-185h-184zM-922 1475v184h185v-184h-185zM-737 1659v184h184v-184h-184zM-553 1475v184h184v-184h-184zM-369 1290v185h185v-185h-185z" />
<glyph unicode="&#x1074;" horiz-adv-x="0" d="M-922 1290v369h185v-369h-185zM-737 1106v184h368v-184h-368zM-737 1659v184h184v-184h-184zM-369 1290v553h185v-553h-185z" />
<glyph unicode="&#x1075;" d="M0 0v184h184v-184h-184zM0 369v553h184v-553h-184zM184 184v185h185v-185h-185zM184 922v184h553v-184h-553zM553 0v184h184v-184h-184zM737 184v738h185v-738h-185z" />
<glyph unicode="&#x1076;" d="M-184 922v184h184v-184h-184zM0 184v369h184v-369h-184zM0 737v185h184v-185h-184zM184 0v184h553v-184h-553zM184 369v184h553v-184h-553zM184 922v184h553v-184h-553zM737 184v738h185v-738h-185z" />
<glyph unicode="&#x1077;" d="M0 0v184h184v-184h-184zM0 369v553h184v-553h-184zM184 184v185h185v-185h-185zM184 922v184h553v-184h-553zM553 0v553h184v369h185v-738h-185v-184h-184z" />
<glyph unicode="&#x1078;" horiz-adv-x="1843" d="M0 184v738h184v-738h-184zM184 0v184h185v-184h-185zM184 922v184h553v-184h-553zM737 184v738h185v-738h-185zM922 0v184h553v-184h-553zM922 922v184h553v-184h-553zM1475 184v738h184v-738h-184z" />
<glyph unicode="&#x1079;" horiz-adv-x="1843" d="M0 184v738h184v-185h185v-184h-185v-369h-184zM184 0v184h185v-184h-185zM184 922v184h553v-184h-553zM369 184v369h184v-369h-184zM737 184v738h185v-738h-185zM922 0v184h553v-184h-553zM922 922v184h553v-184h-553zM1475 184v738h184v-738h-184z" />
<glyph unicode="&#x107a;" horiz-adv-x="1843" d="M0 184v738h184v-738h-184zM184 0v184h185v-184h-185zM184 922v184h553v-184h-553zM737 0h185v-553h184v-184h-369v737zM737 184v738h185v-738h-185zM922 0v184h553v-184h-553zM1290 922v184h185v-184h-185zM1475 184v738h184v-738h-184z" />
<glyph unicode="&#x107b;" horiz-adv-x="1843" d="M0 184v738h184v-738h-184zM184 0v184h553v-184h-553zM184 922v184h553v-184h-553zM737 184v738h185v-738h-185zM922 922v184h553v-184h-553zM1106 184v369h184v-369h-184zM1290 0v184h185v-184h-185zM1290 553v184h185v185h184v-738h-184v369h-185z" />
<glyph unicode="&#x107c;" horiz-adv-x="1843" d="M0 184v369h737v-184h-553v-185h-184zM0 737v185h184v-185h-184zM184 0v184h553v-184h-553zM184 922v184h553v-184h-553zM737 184v738h185v-738h-185zM922 0v184h553v-184h-553zM922 369v184h737v-369h-184v185h-553zM922 922v184h553v-184h-553zM1475 737v185h184v-185 h-184z" />
<glyph unicode="&#x107d;" horiz-adv-x="1843" d="M0 184v553h184v-553h-184zM0 922v184h184v-184h-184zM184 0v184h553v-184h-553zM184 737v185h185v-185h-185zM737 184v738h185v-738h-185zM922 0v184h553v-184h-553zM922 369v184h737v-369h-184v185h-553zM922 922v184h553v-184h-553zM1475 737v185h184v-185h-184z" />
<glyph unicode="&#x107e;" horiz-adv-x="1843" d="M0 184v553h184v-553h-184zM0 922v184h184v-184h-184zM184 0v184h553v-184h-553zM184 737v185h185v-185h-185zM737 184v738h185v-738h-185zM922 0v184h553v-184h-185v-737h-368v184h184v553h-184zM922 369v184h737v-369h-184v185h-553zM922 922v184h553v-184h-553z M1475 737v185h184v-185h-184z" />
<glyph unicode="&#x107f;" d="M0 184v738h184v-738h-184zM184 0v184h553v-184h-553zM184 369v184h185v-184h-185zM184 922v184h185v-184h-185zM369 553v369h184v-369h-184zM737 184v922h185v-922h-185z" />
<glyph unicode="&#x1080;" horiz-adv-x="1843" d="M0 184v369h184v-369h-184zM0 737v185h184v-185h-184zM184 0v184h553v-184h-553zM184 369v184h553v-184h-553zM184 922v184h553v-184h-553zM737 184v738h185v-738h-185zM922 0v184h553v-184h-553zM1290 922v184h185v-184h-185zM1475 184v738h184v-738h-184z" />
<glyph unicode="&#x1081;" d="M0 184v738h184v-738h-184zM0 -553h184v737h185v-921h-369v184zM184 922v184h553v-184h-553zM553 0v184h184v-184h-184zM737 184v738h185v-738h-185z" />
<glyph unicode="&#x1082;" horiz-adv-x="0" d="M-922 -184h185v-369h-185v369zM-737 0h368v-184h-368v184zM-737 -553h368v-184h-368v184zM-369 -369h185v-184h-185v184z" />
<glyph unicode="&#x1083;" horiz-adv-x="368" d="M-184 922v184h368v-1475h185v-184h-369v1475h-184z" />
<glyph unicode="&#x1084;" d="M0 184v369h184v-369h-184zM0 737v185h184v-185h-184zM184 0v184h553v-184h-553zM184 553v184h369v-184h-369zM184 922v184h553v-184h-553zM737 184v185h185v-185h-185zM737 737v185h185v-185h-185z" />
<glyph unicode="&#x1085;" horiz-adv-x="0" d="M-922 1106v184h553v-184h-553zM-922 1475v184h185v-184h-185zM-737 1290v185h184v-185h-184zM-737 1659v184h368v-184h-368zM-369 1290v185h185v-185h-185z" />
<glyph unicode="&#x1086;" horiz-adv-x="0" d="M-553 1106v184h184v-184h-184zM-553 1475v184h369v-369h-185v185h-184z" />
<glyph unicode="&#x1087;" horiz-adv-x="368" d="M-184 0v184h368v-368h-184v184h-184zM-184 -184h184v-185h-184v185z" />
<glyph unicode="&#x1088;" horiz-adv-x="368" d="M-184 0v184h368v-368h-184v184h-184zM-184 -184h184v-185h-184v185zM0 922v184h184v-184h-184z" />
<glyph unicode="&#x1089;" horiz-adv-x="368" d="M0 0v184h184v-184h-184z" />
<glyph unicode="&#x108a;" horiz-adv-x="737" d="M0 0v369h184v-185h185v-184h-369zM0 737v369h184v-184h185v-185h-369zM369 184v185h184v-185h-184zM369 922v184h184v-184h-184z" />
<glyph unicode="&#x108b;" horiz-adv-x="368" d="M0 553v184h184v-184h-184z" />
<glyph unicode="&#x108c;" horiz-adv-x="737" d="M0 553v184h184v-184h-184zM369 553v184h184v-184h-184z" />
<glyph unicode="&#x108d;" horiz-adv-x="0" d="M-1106 -184h922v-185h-922v185z" />
<glyph unicode="&#x108e;" d="M0 184v738h184v-185h553v185h185v-738h-185v369h-553v-369h-184zM184 0v184h553v-184h-553zM184 922v184h553v-184h-553z" />
<glyph unicode="&#x108f;" horiz-adv-x="368" d="M0 -184v368h369v-184h-185v-184h-184zM0 922v184h184v-184h-184zM184 -184h185v-185h-185v185z" />
<glyph unicode="&#x1090;" d="M0 184v738h184v-738h-184zM184 0v184h553v-184h-553zM184 922v184h553v-184h-553zM737 184v738h185v-738h-185z" />
<glyph unicode="&#x1091;" horiz-adv-x="737" d="M0 737v185h184v184h185v-737h184v-185h-184v-184h-185v737h-184z" />
<glyph unicode="&#x1092;" d="M0 553v737h184v-737h-184zM184 0h185v-369h-185v369zM184 922v184h553v-184h-553zM369 0v184h184v-184h-184zM553 184v185h184v-185h-184zM737 369v553h185v-553h-185z" />
<glyph unicode="&#x1093;" d="M0 0v369h184v-369h-184zM184 369v368h185v-368h-185zM369 737v369h184v-369h-184zM553 737v185h184v-185h-184zM553 1106v369h184v-369h-184zM737 0v737h185v-737h-185z" />
<glyph unicode="&#x1094;" horiz-adv-x="921" d="M0 0v369h184v-369h-184zM184 369v368h185v-368h-185zM369 737v369h184v-369h-184zM553 0v1475h184v-1475h-184zM737 184v185h185v-185h-185z" />
<glyph unicode="&#x1095;" horiz-adv-x="921" d="M0 184v369h184v-369h-184zM184 0v184h369v-184h-369zM184 553v184h738v-184h-738zM553 184v1106h184v-1106h-184z" />
<glyph unicode="&#x1096;" horiz-adv-x="921" d="M0 553v369h184v-369h-184zM184 369v184h738v-184h-738zM184 922v184h369v-184h-369zM553 -184v1106h184v-1106h-184z" />
<glyph unicode="&#x1097;" d="M0 0v184h184v185h185v-185h553v-184h-922zM0 922v184h922v-184h-185v-185h-184v185h-553zM369 369v368h184v-368h-184z" />
<glyph unicode="&#x1098;" d="M0 184v738h184v-738h-184zM0 1106v369h184v-369h-184zM184 0v184h553v-184h-553zM184 922v184h553v-184h-553zM737 184v738h185v-738h-185zM737 1106v369h185v-369h-185z" />
<glyph unicode="&#x1099;" d="M0 0v369h184v-369h-184zM0 553v737h184v-737h-184zM184 369v184h553v-184h-553zM184 1290v185h553v-185h-553zM737 0v369h185v-369h-185zM737 553v737h185v-737h-185z" />
<glyph unicode="&#x109a;" horiz-adv-x="368" d="M0 553v184h184v-184h-184z" />
<glyph unicode="&#x109b;" horiz-adv-x="368" d="M-184 369v184h184v-184h-184zM-184 737v185h368v-369h-184v184h-184z" />
<glyph unicode="&#x109c;" horiz-adv-x="737" d="M0 0v369h369v-185h-185v-184h-184zM0 737v369h369v-184h-185v-185h-184zM369 0v184h184v-184h-184zM369 737v185h184v-185h-184z" />
<glyph unicode="&#x109d;" horiz-adv-x="0" d="M-922 1290v369h185v-369h-185zM-737 1659v184h553v-184h-553zM-184 922v737h184v-737h-184z" />
<glyph unicode="&#x109e;" horiz-adv-x="552" d="M0 922v184h369v-1475h184v-184h-369v1475h-184zM0 1290v185h184v-185h-184zM184 1106v184h185v-184h-185zM184 1475v184h185v-184h-185zM369 1290v185h184v-185h-184z" />
<glyph unicode="&#x109f;" horiz-adv-x="1474" d="M0 184v738h184v-738h-184zM184 0v184h185v-184h-185zM184 922v184h553v-184h-553zM553 1290v369h184v-369h-184zM737 -553v1475h185v-1475h-185zM737 1106v184h369v-184h-369zM737 1659v184h369v-184h-369zM922 -553h184v-184h-184v184zM1106 -553v1659h184v-1659h-184z M1106 1475v184h184v-184h-184z" />
<glyph unicode="&#x2000;" horiz-adv-x="921" />
<glyph unicode="&#x2001;" horiz-adv-x="1843" />
<glyph unicode="&#x2002;" horiz-adv-x="921" />
<glyph unicode="&#x2003;" horiz-adv-x="1843" />
<glyph unicode="&#x2004;" horiz-adv-x="614" />
<glyph unicode="&#x2005;" horiz-adv-x="460" />
<glyph unicode="&#x2006;" horiz-adv-x="307" />
<glyph unicode="&#x2007;" horiz-adv-x="307" />
<glyph unicode="&#x2008;" horiz-adv-x="230" />
<glyph unicode="&#x2009;" horiz-adv-x="368" />
<glyph unicode="&#x200a;" horiz-adv-x="102" />
<glyph unicode="&#x202f;" horiz-adv-x="368" />
<glyph unicode="&#x205f;" horiz-adv-x="460" />
<glyph unicode="&#x25cc;" horiz-adv-x="1218" d="M102 535q0 49 52 49q49 0 49 -49t-49 -50q-51 0 -52 50zM139 360q0 51 49 52q50 -1 50 -52q0 -49 -50 -49q-49 0 -49 49zM139 709q0 49 49 49q50 0 50 -49q0 -51 -48 -52q-51 0 -51 52zM238 211q0 51 49 51q51 0 51 -51q0 -49 -51 -49q-49 0 -49 49zM238 854q0 53 49 53 q51 0 51 -51q0 -49 -51 -49q-49 0 -49 47zM385 113q0 51 49 51q51 0 51 -47q0 -51 -51 -51q-49 0 -49 47zM385 954q0 51 49 52q51 -1 51 -52q0 -49 -51 -49q-49 0 -49 49zM559 80q0 49 49 49t49 -49q0 -51 -49 -51t-49 51zM559 991q0 49 49 49t49 -49q0 -51 -49 -51t-49 51z M733 113q0 51 51 51q47 0 47 -51q0 -47 -47 -47q-51 0 -51 47zM733 954q0 51 51 52q47 -1 47 -52q0 -49 -47 -49q-51 0 -51 49zM881 211q0 51 51 51q49 0 49 -51q0 -49 -49 -49q-51 0 -51 49zM881 856q0 51 51 51q49 0 49 -51q0 -49 -49 -49q-51 0 -51 49zM979 360 q0 51 49 52q51 -1 51 -52q0 -49 -51 -49q-49 0 -49 49zM979 709q0 49 51 49q49 0 49 -49q0 -51 -51 -52q-49 0 -49 52zM1016 535q0 49 51 49q49 0 49 -49t-49 -50q-51 0 -51 50z" />
<glyph unicode="&#x25fc;" horiz-adv-x="1024" d="M0 0z" />
<glyph unicode="&#xaa60;" horiz-adv-x="1843" d="M0 184v738h184v-738h-184zM184 0v184h185v-184h-185zM184 922v184h553v-184h-553zM553 0v184h184v-184h-184zM737 184v738h185v-738h-185zM922 922v184h553v-184h-553zM1106 184v369h184v-369h-184zM1290 0v184h185v-184h-185zM1290 553v184h185v185h184v-738h-184v369 h-185z" />
<glyph unicode="&#xaa61;" horiz-adv-x="1843" d="M0 0v184h184v-184h-184zM0 369v553h184v-553h-184zM184 184v185h185v-185h-185zM184 922v184h553v-184h-553zM553 0v184h184v-184h-184zM737 184v738h185v-738h-185zM922 0v184h553v-184h-553zM922 922v184h553v-184h-553zM1475 184v738h184v-738h-184z" />
<glyph unicode="&#xaa62;" horiz-adv-x="1290" d="M0 0v1106h184v-1106h-184zM184 184v185h185v-185h-185zM369 0v184h553v-184h-553zM737 922v184h185v-184h-185zM922 184v738h184v-738h-184z" />
<glyph unicode="&#xaa63;" horiz-adv-x="1843" d="M0 0v184h184v-184h-184zM0 369v553h184v-553h-184zM184 184v185h185v-185h-185zM184 922v184h553v-184h-553zM553 0v553h184v369h185v-738h-185v-184h-184zM922 0v184h553v-184h-553zM922 922v184h553v-184h-553zM1475 184v738h184v-738h-184z" />
<glyph unicode="&#xaa64;" horiz-adv-x="1843" d="M0 184v738h184v-738h-184zM184 0v184h553v-184h-553zM184 922v184h185v-184h-185zM553 922v184h184v-184h-184zM737 184v738h185v-738h-185zM922 0v184h553v-184h-553zM922 922v184h553v-184h-553zM1475 184v738h184v-738h-184z" />
<glyph unicode="&#xaa65;" horiz-adv-x="1843" d="M0 184v738h184v-738h-184zM184 0v184h553v-184h-553zM184 922v184h185v-184h-185zM553 -553h184v553h185v-737h-369v184zM737 184v738h185v-738h-185zM922 922v184h553v-184h-553zM1290 0v184h185v-184h-185zM1475 184v738h184v-738h-184z" />
<glyph unicode="&#xaa66;" horiz-adv-x="1843" d="M0 184v738h184v-738h-184zM184 0v184h553v-184h-553zM184 922v184h553v-184h-553zM369 553v184h184v-184h-184zM737 184v738h185v-738h-185zM922 922v184h553v-184h-553zM1290 0v184h185v-184h-185zM1475 184v738h184v-738h-184z" />
<glyph unicode="&#xaa67;" horiz-adv-x="1843" d="M0 184v738h184v-738h-184zM184 0v184h553v-184h-553zM184 922v184h553v-184h-553zM369 553v184h184v-184h-184zM737 184v738h185v-738h-185zM922 0v184h553v-184h-553zM922 922v184h553v-184h-553zM1475 184v738h184v-738h-184z" />
<glyph unicode="&#xaa68;" horiz-adv-x="1843" d="M0 184v738h184v-738h-184zM184 0v184h553v-184h-553zM184 922v184h553v-184h-553zM369 553v184h184v-184h-184zM737 184v738h185v-738h-185zM922 922v184h553v-184h-553zM1106 184v369h184v-369h-184zM1290 0v184h185v-184h-185zM1290 553v184h185v185h184v-738h-184v369 h-185z" />
<glyph unicode="&#xaa69;" horiz-adv-x="1843" d="M0 184v738h184v-738h-184zM184 0v184h553v-184h-553zM184 922v184h553v-184h-553zM369 553v184h184v-184h-184zM737 184v738h185v-738h-185zM922 0v184h553v-184h-553zM922 369v184h184v-184h-184zM922 922v184h553v-184h-553zM1106 184v185h184v-185h-184zM1475 184v738 h184v-738h-184z" />
<glyph unicode="&#xaa6a;" horiz-adv-x="1843" d="M0 184v738h184v-738h-184zM184 0v184h553v-184h-553zM184 922v184h553v-184h-553zM737 184v738h185v-738h-185zM922 0v184h553v-184h-553zM922 369v184h184v-184h-184zM922 922v184h553v-184h-553zM1106 184v185h184v-185h-184zM1475 184v738h184v-738h-184z" />
<glyph unicode="&#xaa6b;" d="M-184 922v184h184v-184h-184zM0 184v738h184v-738h-184zM184 0v184h185v-184h-185zM184 553v184h185v-184h-185zM184 922v184h553v-184h-553zM369 184v369h184v-369h-184zM737 0v922h185v-922h-185z" />
<glyph unicode="&#xaa6c;" horiz-adv-x="1843" d="M0 184v738h184v-738h-184zM184 0v184h369v-184h-369zM184 922v184h185v-184h-185zM553 184v738h184v-738h-184zM737 922v184h185v-184h-185zM922 184v738h184v-738h-184zM1106 0v184h369v-184h-369zM1290 922v184h185v-184h-185zM1475 184v738h184v-738h-184z" />
<glyph unicode="&#xaa6d;" horiz-adv-x="1290" d="M-369 -184h185v-369h-185v369zM-184 -553h368v-184h-368v184zM0 922v184h184v-184h-184zM184 -553v1475h185v-1475h-185zM369 922v184h553v-184h-553zM737 0v184h185v-184h-185zM922 184v738h184v-738h-184z" />
<glyph unicode="&#xaa6e;" horiz-adv-x="1843" d="M0 184v738h184v-185h185v-184h-185v-369h-184zM184 0v184h185v-184h-185zM184 922v184h553v-184h-553zM369 184v369h184v-369h-184zM737 184v738h185v-738h-185zM922 0v184h553v-184h-553zM1290 922v184h185v-184h-185zM1475 184v738h184v-738h-184z" />
<glyph unicode="&#xaa6f;" horiz-adv-x="1474" d="M0 0v1106h369v-184h-185v-922h-184zM369 184v738h184v-738h-184zM553 0v184h553v-184h-553zM553 922v184h553v-184h-553zM1106 184v738h184v-738h-184z" />
<glyph unicode="&#xaa70;" horiz-adv-x="0" d="M-737 1106v184h553v-184h-553zM-737 1475v184h553v-184h-553z" />
<glyph unicode="&#xaa71;" horiz-adv-x="1843" d="M0 184v738h184v-185h185v-184h-185v-369h-184zM184 0v184h185v-184h-185zM184 922v184h553v-184h-553zM369 184v369h184v-369h-184zM737 0v922h185v-922h-185zM922 922v184h553v-184h-553zM1290 0v184h185v-184h-185zM1475 184v738h184v-738h-184z" />
<glyph unicode="&#xaa72;" horiz-adv-x="1843" d="M-184 0v184h184v-184h-184zM0 184v738h184v-738h-184zM184 922v184h553v-184h-553zM553 0v184h184v-184h-184zM737 184v738h185v-738h-185zM922 0v184h553v-184h-553zM922 922v184h553v-184h-553zM1475 184v738h184v-738h-184z" />
<glyph unicode="&#xaa73;" horiz-adv-x="1474" d="M0 0v1106h369v-184h-185v-922h-184zM369 553v369h184v-369h-184zM553 184v369h184v-369h-184zM737 0v184h369v-184h-369zM922 922v184h184v-184h-184zM1106 184v738h184v-738h-184z" />
<glyph unicode="&#xaa74;" horiz-adv-x="1474" d="M0 184v922h184v-922h-184zM0 -369h184v-184h-184v184zM184 0v184h553v-184h-553zM184 -184h185v1106h184v-1475h-184v184h-185v185zM184 -553h185v-184h-185v184zM553 -553h553v-184h-553v184zM553 922v184h184v-184h-184zM553 1290v369h184v-369h-184zM737 184v738h185 v-738h-185zM737 1106v184h369v-184h-369zM737 1659v184h369v-184h-369zM1106 -553v1659h184v-1659h-184zM1106 1475v184h184v-184h-184z" />
<glyph unicode="&#xaa75;" horiz-adv-x="2211" d="M0 0v184h184v-184h-184zM0 369v553h184v-553h-184zM184 184v185h185v-185h-185zM184 922v184h553v-184h-553zM553 0v184h184v-184h-184zM737 184v738h185v-738h-185zM737 -369h185v-184h-185v184zM922 -184h184v184h184v-553h-184v184h-184v185zM922 -553h184v-184h-184 v184zM922 922v184h553v-184h-553zM1290 0v184h185v-184h-185zM1290 -553h553v-184h-553v184zM1290 1290v369h185v-369h-185zM1475 184v738h184v-738h-184zM1475 1106v184h368v-184h-368zM1475 1659v184h368v-184h-368zM1843 -553v1659h185v-1659h-185zM1843 1475v184h185 v-184h-185z" />
<glyph unicode="&#xaa76;" horiz-adv-x="1843" d="M-369 -369h185v-184h-185v184zM-184 -184h184v-185h-184v185zM-184 -553h368v-184h-368v184zM0 922v184h184v-184h-184zM184 -553v1475h185v-1475h-185zM369 922v184h553v-184h-553zM553 -184h184v184h185v-553h-185v184h-184v185zM737 0v184h185v-184h-185zM922 184v738 h184v-738h-184zM922 -553h553v-184h-553v184zM922 1290v369h184v-369h-184zM1106 1106v184h369v-184h-369zM1106 1659v184h369v-184h-369zM1475 -553v1659h184v-1659h-184zM1475 1475v184h184v-184h-184z" />
<glyph unicode="&#xaa77;" d="M0 0v184h184v-184h-184zM0 369v553h184v-553h-184zM184 184v185h185v-185h-185zM184 922v184h553v-184h-553zM184 1290v369h185v-369h-185zM369 0h184v-553h184v-184h-368v737zM369 1106v184h184v-184h-184zM369 1659v184h368v-184h-368zM553 0v184h184v-184h-184zM737 0 h185v-369h-185v369zM737 184v738h185v-738h-185zM737 1475v184h185v-184h-185zM922 -369h184v-368h-184v368zM1106 -553h184v-184h-184v184z" />
<glyph unicode="&#xaa78;" horiz-adv-x="1673" d="M82 150q82 98 82 309t-82 309l194 90q117 -133 117 -399t-117 -400zM375 82q109 203 393 203q201 0 313 -101l117 459q127 483 426 483q70 0 152 -20l28 -193q-45 10 -84 11q-215 0 -297 -324l-153 -600l-254 -61q-70 150 -248 149q-178 0 -248 -149zM375 838l145 143 q70 -150 248 -150t248 150l145 -143q-108 -203 -393 -203t-393 203z" />
<glyph unicode="&#xaa79;" d="M0 0v184h184v-184h-184zM0 369v553h184v-553h-184zM184 184v185h185v-185h-185zM184 922v184h553v-184h-553zM369 0h184v-553h184v-184h-368v737zM553 0v184h184v-184h-184zM737 184v738h185v-738h-185z" />
<glyph unicode="&#xaa7a;" horiz-adv-x="2211" d="M0 -553v2028h184v-2028h-184zM184 -553h922v-184h-922v184zM184 1475v184h922v-184h-922zM369 184v738h184v-738h-184zM553 0v184h184v-184h-184zM553 922v184h553v-184h-553zM1106 0h184v-553h-184v553zM1106 184v738h184v-738h-184zM1106 1659v184h184v-184h-184z M1290 0v184h553v-184h-553zM1659 922v184h184v-184h-184zM1843 184v738h185v-738h-185z" />
<glyph unicode="&#xaa7b;" horiz-adv-x="552" d="M0 -184v368h369v-184h-185v-184h-184zM184 -184h185v-185h-185v185z" />
<glyph horiz-adv-x="0" d="M-1290 -369h184v-368h-184v368zM-1106 -184h369v-185h-369v185zM-737 -369h184v-368h-184v368zM-737 -369h184v-368h-184v368zM-553 -184h369v-185h-369v185zM-184 -369h184v-368h-184v368z" />
<glyph horiz-adv-x="0" d="M-922 -369h553v185h185v-369h-185v-184h-368v184h-185v184zM-737 0h368v-184h-368v184z" />
<glyph horiz-adv-x="2" d="M-922 -369h185v-368h-185v368zM-737 -184h368v-185h-368v185zM-369 -369h185v-368h-185v368z" />
<glyph horiz-adv-x="0" d="M-1290 0h184v-184h-184v184zM-1290 -369h184v-184h-184v184zM-1106 -184h184v-185h-184v185zM-1106 -553h369v-184h-369v184zM-922 0h185v-184h-185v184zM-737 -184h184v-369h-184v369zM-553 -553h369v-184h-369v184zM-369 0h185v-184h-185v184zM-184 -184h184v-369h-184 v369z" />
<glyph horiz-adv-x="2" d="M-922 -184h185v-369h-185v369zM-737 0h368v-184h-368v184zM-737 -553h368v-184h-368v184zM-369 -369h185v-184h-185v184z" />
<glyph horiz-adv-x="2" d="M-922 -184h369v-369h-369v369zM-737 0h368v-184h-368v184zM-737 -553h368v-184h-368v184zM-369 -184h185v-369h-185v369z" />
<glyph horiz-adv-x="0" d="M-1290 -369h553v185h184v-369h-184v-184h-369v184h-184v184zM-1106 0h369v-184h-369v184zM-553 0h369v-184h-369v184zM-553 -553h369v-184h-369v184zM-184 -184h184v-369h-184v369z" />
<glyph horiz-adv-x="2" d="M-922 -184h185v-369h-185v369zM-737 0h368v-184h-368v184zM-737 -553h368v-184h-368v184zM-369 -184h369v-185h-369v185z" />
<glyph horiz-adv-x="368" d="M-922 -184h369v-369h-369v369zM-737 0h368v-184h-368v184zM-737 -553h368v-184h-368v184zM-369 -184h185v-369h-185v369zM-184 -553h184v-184h-184v184zM0 -553v1659h184v-1659h-184z" />
<glyph horiz-adv-x="0" d="M-922 -184h185v-185h-185v185zM-922 -553h922v-184h-922v184zM-737 0h553v-184h-553v184zM-737 -369h553v-184h-553v184z" />
<glyph horiz-adv-x="0" d="M-1290 -184h184v184h184v-369h-184v-184h-184v369zM-1106 -553h369v369h184v-553h-553v184zM-553 0h369v-184h-369v184zM-369 -553h185v-184h-185v184zM-184 -184h184v-369h-184v369z" />
<glyph horiz-adv-x="0" d="M-1290 -369h184v-368h-184v368zM-1106 -184h184v-185h-184v185zM-922 -369h185v-368h-185v368zM-737 -184h184v-185h-184v185zM-737 -553h184v-184h-184v184zM-553 -369h184v-368h-184v368zM-369 -184h185v-185h-185v185zM-184 -369h184v-368h-184v368z" />
<glyph horiz-adv-x="0" d="M-1290 -184h184v-369h-184v369zM-1106 0h369v-184h-369v184zM-1106 -553h369v-184h-369v184zM-737 -184h184v-369h-184v369zM-553 0h369v-184h-369v184zM-369 -553h185v-184h-185v184zM-184 -184h184v-369h-184v369z" />
<glyph horiz-adv-x="0" d="M-1290 -184h184v-369h-184v369zM-1106 0h369v-184h-369v184zM-1106 -553h369v-184h-369v184zM-737 -184h184v-369h-184v369zM-553 0h369v-184h-369v184zM-553 -553h369v-184h-369v184zM-184 -184h184v-369h-184v369z" />
<glyph horiz-adv-x="0" d="M-922 -184h185v-185h-185v185zM-737 0h553v-184h-553v184zM-737 -553h368v-184h-368v184zM-553 -184h184v-185h-184v185zM-369 -369h185v-184h-185v184z" />
<glyph horiz-adv-x="2" d="M-922 -184h185v-369h-185v369zM-737 0h368v-184h-368v184zM-737 -369h368v-368h-368v368zM-369 -184h185v-369h-185v369z" />
<glyph horiz-adv-x="0" d="M-922 -369h295v-123h-147v-122h-148v245zM-774 -123h147v-123h-147v123zM-774 -614h147v122h148v-122h147v-123h-442v123zM-627 0h295v-123h-295v123zM-627 -246h295v-123h-295v123zM-332 -369h148v-245h-148v245z" />
<glyph horiz-adv-x="2" d="M-922 -184h185v-369h-185v369zM-737 -553h368v-184h-368v184zM-369 -184h185v-369h-185v369z" />
<glyph horiz-adv-x="2" d="M-922 -184h185v-369h-185v369zM-737 -553h184v553h184v-184h185v-369h-185v-184h-368v184z" />
<glyph horiz-adv-x="2" d="M-922 0h185v-553h-185v553zM-737 -184h368v-185h-368v185zM-737 -553h368v-184h-368v184zM-369 0h185v-553h-185v553z" />
<glyph horiz-adv-x="0" d="M-1290 -369h184v-184h-184v184zM-1106 0h369v-184h-369v184zM-1106 -553h369v-184h-369v184zM-737 -184h184v-369h-184v369zM-553 0h369v-184h-369v184zM-369 -553h185v-184h-185v184zM-184 -184h184v-369h-184v369z" />
<glyph horiz-adv-x="2" d="M-922 -184h185v-369h-185v369zM-737 -369h368v-368h-368v368zM-369 -184h185v-369h-185v369z" />
<glyph horiz-adv-x="0" d="M-1290 -369h184v-184h-184v184zM-1106 -184h369v-185h-369v185zM-1106 -553h184v-184h-184v184zM-737 -369h184v-184h-184v184zM-737 -369h184v-184h-184v184zM-553 -553h369v-184h-369v184zM-369 -184h185v-185h-185v185zM-184 -369h184v-184h-184v184z" />
<glyph horiz-adv-x="2" d="M-922 -184h185v-369h-185v369zM-737 0h368v-184h-368v184zM-737 -553h368v-184h-368v184zM-369 -184h185v-369h-185v369z" />
<glyph horiz-adv-x="2" d="M-1290 -369h184v-184h-184v184zM-1106 -553h184v-184h-184v184zM-922 -184h185v-369h-185v369zM-737 0h368v-184h-368v184zM-737 -553h368v-184h-368v184zM-369 -184h185v-369h-185v369z" />
<glyph horiz-adv-x="368" d="M0 -553v2212h184v-2212h-184zM184 -553h1659v-184h-1659v184zM184 1659v184h1659v-184h-1659zM1843 0h185v-553h-185v553zM1843 1290v369h185v-369h-185z" />
<glyph horiz-adv-x="368" d="M0 -737v1843h184v-1659h185v-184h-369z" />
<glyph horiz-adv-x="737" d="M0 -737v1843h184v-1843h-184zM369 -737v1843h184v-1659h184v-184h-368z" />
<glyph horiz-adv-x="368" d="M0 -553v2212h184v-2212h-184zM184 -553h185v-184h-185v184zM184 1659v184h922v-184h-922zM1106 1290v369h184v-369h-184z" />
<glyph horiz-adv-x="368" d="M0 -553v2212h184v-2212h-184zM184 -553h922v-184h-922v184zM184 1659v184h185v-184h-185zM1106 0h184v-553h-184v553z" />
<glyph horiz-adv-x="368" d="M0 -553v2212h184v-2212h-184zM184 -553h185v-184h-185v184zM184 1659v184h185v-184h-185z" />
<glyph horiz-adv-x="368" d="M0 -553v2212h184v-2212h-184zM184 -553h922v-184h-922v184zM184 1659v184h1659v-184h-1659zM1843 1290v369h185v-369h-185z" />
<glyph horiz-adv-x="368" d="M0 -553v2212h184v-2212h-184zM184 -553h1659v-184h-1659v184zM184 1659v184h922v-184h-922zM1843 0h185v-553h-185v553z" />
<glyph horiz-adv-x="368" d="M0 -553v2212h184v-2212h-184zM184 -553h922v-184h-922v184zM184 1659v184h922v-184h-922z" />
<glyph d="M0 0v369h184v-369h-184zM0 -348h139v-129h-139v129zM0 -608h692v-129h-692v129zM0 737v185h184v-185h-184zM139 -219h414v-129h-414v129zM139 -477h414v-131h-414v131zM184 0h553v-184h-553v184zM184 184v185h553v-185h-553zM184 553v184h738v-184h-738zM184 922v184h738 v-184h-738zM737 0h185v-737h-185v737zM737 369v184h185v-184h-185zM922 -553h184v-184h-184v184z" />
<glyph horiz-adv-x="1843" d="M0 0h184v-553h-184v553zM0 184v185h184v-185h-184zM0 737v185h184v-185h-184zM184 0v184h553v-184h-553zM184 -553h553v-184h-553v184zM184 922v184h553v-184h-553zM737 184v738h185v-738h-185zM922 0v184h553v-184h-553zM1290 922v184h185v-184h-185zM1475 184v738h184 v-738h-184z" />
<glyph d="M0 184v369h369v-184h-185v-185h-184zM184 0v184h185v185h184v-185h184v-184h-553zM184 737v185h185v-185h-185zM369 553v184h368v-184h-368zM369 922v184h368v-184h-368zM737 184v369h185v-369h-185z" />
<glyph d="M0 184v738h184v-738h-184zM184 0v184h185v-184h-185zM184 553v184h185v-184h-185zM184 922v184h553v-184h-553zM369 184v369h184v-369h-184zM737 -553v1475h185v-1475h-185z" />
<glyph d="M0 0h184v-553h-184v553zM0 184v185h184v-185h-184zM0 737v185h184v-185h-184zM184 0v184h553v-184h-553zM184 -553h185v-184h-185v184zM184 922v184h553v-184h-553zM737 184v738h185v-738h-185z" />
<glyph horiz-adv-x="40" d="M-184 -184h184v-185h-184v185z" />
<glyph horiz-adv-x="368" d="M-369 -369h185v-184h-185v184zM-184 -553h184v-184h-184v184zM0 -553v1659h184v-1659h-184z" />
<glyph horiz-adv-x="0" d="M-922 -369h185v-184h-185v184zM-737 -553h184v-184h-184v184zM-553 -369h184v-184h-184v184zM-369 -184h185v-185h-185v185z" />
<glyph horiz-adv-x="0" d="M0 -184h184v-185h-184v185z" />
<glyph d="M0 0v184h737v-184h-737zM0 -369h184v-184h-184v184zM0 553v369h184v-369h-184zM184 -184h369v-185h-369v185zM184 369v184h738v-184h-738zM184 -553h553v-184h-553v184zM184 922v184h553v-184h-553zM737 0h185v-553h-185v553zM737 737v185h185v-185h-185z" />
<glyph horiz-adv-x="0" d="M-922 -184h185v184h184v-369h-369v185z" />
</font>
</defs>
</svg>
