<?xml version="1.0" standalone="no"?>
<!DOCTYPE svg PUBLIC "-//W3C//DTD SVG 1.1//EN" "http://www.w3.org/Graphics/SVG/1.1/DTD/svg11.dtd" >
<svg xmlns="http://www.w3.org/2000/svg" xmlns:xlink="http://www.w3.org/1999/xlink" version="1.1">
<metadata></metadata>
<defs>
<font id="myanmar_april_displayregular" horiz-adv-x="0" >
<font-face units-per-em="2048" ascent="1638" descent="-410" />
<missing-glyph horiz-adv-x="500" />
<glyph horiz-adv-x="509" />
<glyph unicode="!" horiz-adv-x="536" d="M137 102q0 53 39 92t92 39q54 0 92.5 -38.5t38.5 -92.5q0 -53 -38.5 -92t-92.5 -39q-53 0 -92 39t-39 92zM174 1487q0 59 25.5 87t68.5 28q41 0 67.5 -29t26.5 -86q0 -106 -28 -365q-25 -250 -36 -402.5t-11 -318.5h-37q0 166 -11.5 318.5t-35.5 402.5q-29 258 -29 365z " />
<glyph unicode="&#x22;" horiz-adv-x="610" d="M121 1399q0 43 20.5 68.5t53.5 27.5q30 0 51.5 -25.5t21.5 -68.5q0 -74 -12 -149.5t-14 -92.5q-14 -74 -33 -201h-29q-14 100 -30 185q-12 70 -20.5 133t-8.5 123zM344 1399q0 43 20.5 68.5t53.5 27.5q31 0 52.5 -25.5t21.5 -68.5q0 -74 -12.5 -149.5t-14.5 -92.5 q-14 -74 -33 -201h-29q-14 100 -30 185q-12 70 -20.5 133t-8.5 123z" />
<glyph unicode="#" horiz-adv-x="1304" d="M98 506l8 41h302l65 342h-299l6 41h301l60 303h41l-60 -303h342l60 303h41l-60 -303h301l-6 -41h-303l-66 -342h302l-9 -41h-301l-57 -299h-41l57 299h-342l-57 -299h-41l57 299h-301zM449 547h342l65 342h-342z" />
<glyph unicode="$" horiz-adv-x="1071" d="M111 -14q8 113 8 491h47q12 -174 75.5 -295t192.5 -155v663q-154 96 -233.5 190.5t-79.5 237.5q0 152 88 241t225 109v252h41v-247h31q43 0 100 -9v256h41v-266q49 -18 109 -57q45 -29 69 -29q18 0 28.5 21.5t16.5 68.5h48q-10 -119 -11 -418h-47q-10 129 -62.5 229.5 t-150.5 141.5v-608q117 -74 187.5 -133.5t111.5 -134t41 -175.5q0 -161 -94 -259.5t-246 -123.5v-247h-41v243q-18 -2 -53 -2q-33 0 -78 4v-245h-41v252q-49 10 -86 25.5t-76 39.5q-45 29 -69 29q-18 0 -28.5 -21.5t-16.5 -68.5h-47zM274 1196q0 -84 41 -144.5t119 -113.5 v481q-74 -23 -117 -82t-43 -141zM475 16q41 -4 64 -4q34 0 67 6v564q-29 20 -121 77l-10 7v-650zM475 909q27 -18 84 -51l47 -29v594q-41 10 -82 11q-16 0 -49 -4v-521zM647 31q72 28 115 91.5t43 162.5q0 80 -40 144.5t-118 123.5v-522z" />
<glyph unicode="%" horiz-adv-x="1519" d="M72 1214q0 152 86 248.5t219 96.5q139 0 222 -89.5t83 -244.5q0 -154 -86 -249t-219 -95q-139 0 -222 89t-83 244zM154 -86l1198 1774l39 -27l-1198 -1774zM215 1217q0 -147 44 -223t122 -76q156 0 156 303q0 147 -43 224t-121 77q-158 0 -158 -305zM834 305 q0 152 86 248t219 96q139 0 222 -89t83 -245q0 -154 -86 -249t-219 -95q-139 0 -222 89.5t-83 244.5zM977 307q0 -147 44 -223t122 -76q156 0 155 303q0 147 -43 224t-120 77q-158 0 -158 -305z" />
<glyph unicode="&#x26;" horiz-adv-x="1714" d="M111 481q0 135 66.5 228.5t152.5 141.5t159 67q-100 43 -153 114.5t-53 149.5q0 68 39.5 126t118.5 94t188 36q137 0 213 -62q37 -31 56.5 -68.5t19.5 -72.5q0 -49 -35 -79t-80 -30q-43 0 -75 28t-32 75q0 45 31 76.5t78 35.5q-10 27 -52 46.5t-104 19.5 q-106 0 -171.5 -64.5t-65.5 -179.5q0 -137 104 -233q72 12 127 12q37 0 59.5 -12t22.5 -35q0 -18 -15.5 -28.5t-41.5 -10.5q-33 0 -68 12.5t-82 32.5q-266 -80 -266 -336q0 -137 71.5 -237.5t196.5 -152.5t281 -52q145 0 269 46t196.5 131t72.5 198q0 82 -43 166t-163 131 q-160 -49 -236 -78q-86 -33 -133 -75t-47 -103q0 -74 60.5 -119t127.5 -45q35 0 76 12t47 33q-39 8 -67.5 32.5t-28.5 71.5q0 49 31.5 78t80.5 29t79 -31t30 -80q0 -82 -76 -129t-168 -47q-100 0 -177 60.5t-77 179.5q0 104 71 177t212 122l145 43q123 35 205 61.5t150 56.5 q98 45 137 92.5t39 104.5q0 86 -70.5 146.5t-167.5 60.5q-51 0 -61 -18q27 -12 42 -40t15 -55q0 -43 -33.5 -71.5t-81.5 -28.5q-43 0 -75.5 26.5t-32.5 75.5q0 74 68.5 108t156.5 34q129 0 214 -75t85 -202q0 -98 -53 -171t-141 -116q-78 -37 -303 -106q115 -49 169 -140 t54 -208q0 -127 -76 -239.5t-217 -181.5t-332 -69q-178 0 -330.5 62.5t-242.5 178.5t-90 269z" />
<glyph unicode="'" horiz-adv-x="387" d="M121 1399q0 43 20.5 68.5t53.5 27.5q30 0 51.5 -25.5t21.5 -68.5q0 -74 -12 -149.5t-14 -92.5q-14 -74 -33 -201h-29q-14 100 -30 185q-12 70 -20.5 133t-8.5 123z" />
<glyph unicode="(" horiz-adv-x="602" d="M90 639q0 -307 118 -561t333 -451l28 27q-166 195 -236.5 430t-70.5 555q0 319 70.5 555t236.5 430l-28 27q-215 -197 -333 -451t-118 -561z" />
<glyph unicode=")" horiz-adv-x="602" d="M33 -346q166 195 236.5 430t70.5 555q0 319 -70.5 555t-236.5 430l28 27q215 -197 333 -451t118 -561t-118 -561t-333 -451z" />
<glyph unicode="*" horiz-adv-x="1007" d="M121 877q0 45 67 88q31 18 72 31.5t113 31.5q63 14 119 31q-92 27 -121 33q-55 16 -104.5 31.5t-80.5 31.5q-66 39 -65 88q0 18 10 35q18 33 57 33q31 0 74 -25q31 -18 70 -53t80 -78q37 -39 86 -86l-31 115q-20 74 -29.5 118t-9.5 80q0 57 22.5 84t53.5 27t52.5 -26.5 t21.5 -84.5q0 -35 -11.5 -86t-27.5 -110q-14 -45 -31 -115l82 82q43 43 83 80t70 55q39 23 72 23q47 0 64 -35q8 -14 8 -31q0 -49 -68 -88q-31 -18 -71.5 -31.5t-112.5 -31.5q-63 -14 -119 -31q94 -27 121 -33q55 -16 104.5 -31.5t79.5 -31.5q66 -39 66 -88q0 -18 -10 -35 q-18 -33 -58 -33q-31 0 -74 25q-31 18 -67.5 51t-75.5 74l-92 90q12 -53 31 -115q39 -141 41 -197q-2 -57 -24.5 -83.5t-55.5 -26.5q-31 0 -51.5 26.5t-20.5 83.5q0 35 11.5 86.5t27.5 110.5q14 45 31 115l-82 -82q-43 -43 -83 -80t-71 -55q-39 -23 -71 -23q-45 0 -64 35 q-8 14 -8 31z" />
<glyph unicode="+" horiz-adv-x="1202" d="M88 696v62h477v483h74v-483h475v-62h-475v-481h-74v481h-477z" />
<glyph unicode="," horiz-adv-x="534" d="M127 102q0 55 38 93t93 38q80 1 121 -65q35 -55 35 -135q0 -102 -52.5 -184t-158.5 -132l-19 37q63 27 109.5 84.5t46.5 116.5q0 25 -6 43q-33 -27 -76 -27q-55 0 -93 36t-38 95z" />
<glyph unicode="-" horiz-adv-x="1021" d="M141 492v118h740v-118h-740z" />
<glyph unicode="." horiz-adv-x="516" d="M127 102q0 53 39 92t92 39t92 -38.5t39 -92.5q0 -53 -39 -92t-92 -39t-92 39t-39 92z" />
<glyph unicode="/" horiz-adv-x="761" d="M70 -29l557 1508h67l-557 -1508h-67z" />
<glyph unicode="0" horiz-adv-x="1243" d="M115 713q0 225 65.5 399t181 270.5t261.5 96.5q151 0 266 -88t177 -255t62 -399q0 -225 -65.5 -399t-181 -270.5t-260.5 -96.5q-152 0 -266.5 88t-177 255t-62.5 399zM319 721q0 -350 82 -531.5t228 -181.5q150 0 222.5 183.5t72.5 537.5q0 350 -82 531.5t-228 181.5 q-149 0 -222 -183.5t-73 -537.5z" />
<glyph unicode="1" horiz-adv-x="731" d="M72 1303v43q150 23 247 54.5t175 69.5v-1253q0 -78 12 -112.5t46 -47t107 -16.5v-41q-86 6 -262 6q-186 0 -295 -6v41q92 4 133 16.5t57.5 47t16.5 112.5v926q0 72 -20.5 104.5t-69.5 44t-147 11.5z" />
<glyph unicode="2" horiz-adv-x="1019" d="M88 0v41q156 174 277.5 334t217 357.5t95.5 383.5q0 154 -67.5 236t-180.5 82q-76 0 -142.5 -37t-90.5 -103q53 -8 85.5 -34.5t32.5 -73.5t-31.5 -77t-80.5 -30q-51 0 -80 33t-29 80q0 35 18.5 76t53.5 80q61 68 146 99.5t182 31.5q168 0 275.5 -87t107.5 -243 q0 -92 -43 -187.5t-109 -185.5t-193 -246q-176 -217 -286 -372h459q68 0 103.5 42t47.5 148h47q-6 -45 -6 -117q0 -109 14 -231h-440l-276 2q-72 0 -107 -2z" />
<glyph unicode="3" horiz-adv-x="1095" d="M90 190q0 47 31 78t80 31q47 0 78.5 -29.5t31.5 -81.5q0 -43 -23.5 -69.5t-62.5 -34.5q18 -31 85 -54.5t145 -23.5q164 0 253 105.5t89 269.5q0 168 -84 265t-230 110q-14 -6 -40.5 -16.5t-43.5 -10.5q-20 0 -31.5 10.5t-11.5 22.5t12.5 22.5t34.5 10.5q14 0 37 -5.5 t39 -7.5q119 25 177.5 119t58.5 227q0 143 -59.5 223.5t-172.5 80.5q-80 0 -150.5 -36t-99.5 -102q53 -8 86 -34.5t33 -73.5t-31.5 -77t-80.5 -30q-51 0 -80 33t-29 78q0 35 18.5 78t53.5 80q59 66 152.5 98.5t195.5 32.5q162 0 262 -84t100 -224q0 -143 -114.5 -249.5 t-263.5 -147.5q190 -8 323 -105.5t133 -275.5q0 -129 -70.5 -225t-192.5 -146.5t-271 -50.5q-162 0 -271 72q-96 66 -96 147z" />
<glyph unicode="4" horiz-adv-x="1103" d="M35 379v41l715 1059h32v-963h258v-137h-258v-162q0 -78 12.5 -112.5t46 -47t107.5 -16.5v-41q-86 6 -262 6q-186 0 -295 -6v41q92 4 133 16.5t57.5 47t16.5 112.5v162h-563zM145 516h453v676z" />
<glyph unicode="5" horiz-adv-x="1036" d="M92 190q0 47 31 78t78 31t79.5 -29.5t32.5 -81.5q0 -43 -23.5 -69.5t-62.5 -34.5q16 -31 78 -54.5t125 -23.5q147 0 232.5 104.5t85.5 338.5q0 197 -81 292t-206 95q-57 0 -128 -19.5t-130 -62.5l-33 14l27 690q41 -8 92 -8h381q72 0 106.5 22.5t44.5 79.5h35 q-6 -44 -6 -114q0 -68 14 -146h-633l-18 -491q115 76 281 76q117 0 220 -47.5t167.5 -143.5t64.5 -235q0 -152 -66.5 -260.5t-182 -164t-261.5 -55.5q-123 0 -227 62q-57 33 -87 76t-30 81z" />
<glyph unicode="6" horiz-adv-x="1144" d="M117 651q0 252 68.5 439.5t193.5 288t287 100.5q113 0 194 -43q49 -25 83 -65t34 -87t-33 -78.5t-80 -31.5q-45 0 -77.5 29.5t-32.5 74.5q0 37 22.5 67.5t61.5 47.5q-23 25 -74 38t-100 13q-348 0 -349 -760v-57q41 152 130.5 221.5t207.5 69.5q107 0 196 -51.5 t143.5 -155t54.5 -250.5q0 -156 -61.5 -266.5t-166 -167t-233.5 -56.5q-227 0 -348 175.5t-121 504.5zM322 506q33 -494 272 -494q115 0 184.5 107.5t69.5 337.5q0 213 -61.5 316.5t-168.5 103.5q-92 0 -177 -82t-119 -289z" />
<glyph unicode="7" horiz-adv-x="972" d="M57 1450q139 -6 475 -6q250 0 429 6v-43q-4 -6 -101 -184q-104 -182 -175 -324.5t-121 -314.5t-48 -346q0 -41 4 -99q4 -45 4 -63q0 -47 -26.5 -76t-69.5 -29q-45 0 -68.5 33t-23.5 82q0 172 65.5 357.5t154.5 348t230 388.5l70 112h-534q-102 0 -150.5 -41t-58.5 -143 h-47q6 66 6 162q0 80 -15 180z" />
<glyph unicode="8" horiz-adv-x="1150" d="M102 315q0 141 102.5 252t270.5 185q-145 102 -222 193t-77 214q0 94 54.5 167t149.5 113t212 40q162 0 270.5 -74t108.5 -207q0 -111 -78 -203t-221 -176q127 -80 200.5 -138t126 -138t52.5 -181q0 -115 -63.5 -203.5t-175.5 -138t-251 -49.5q-123 0 -227.5 39t-168 117 t-63.5 188zM283 346q0 -143 72.5 -240.5t217.5 -97.5q125 0 214.5 72t89.5 196q0 96 -50.5 173t-120 134.5t-198.5 145.5q-225 -135 -225 -383zM336 1223q0 -117 78 -202t225 -181q168 125 168 331q0 123 -62.5 197t-175.5 74q-102 0 -167.5 -59.5t-65.5 -159.5z" />
<glyph unicode="9" horiz-adv-x="1144" d="M98 989q0 156 61.5 266.5t166 167t233.5 56.5q227 0 348 -175.5t121 -504.5q0 -252 -68.5 -439.5t-193.5 -288t-287 -100.5q-113 0 -194 43q-49 25 -83 65t-34 87t32.5 78.5t80.5 31.5q45 0 77.5 -29.5t32.5 -74.5q0 -37 -22.5 -67.5t-61.5 -47.5q23 -25 74 -38t100 -13 q348 0 348 760v57q-41 -152 -130 -221.5t-207 -69.5q-106 0 -195.5 51.5t-144 155t-54.5 250.5zM297 993q0 -213 62.5 -316.5t166.5 -103.5q92 0 177 82t120 289q-33 494 -272 494q-115 0 -184.5 -107.5t-69.5 -337.5z" />
<glyph unicode=":" horiz-adv-x="544" d="M141 102q0 53 39 92t92 39q54 0 92.5 -38.5t38.5 -92.5q0 -53 -38.5 -92t-92.5 -39q-53 0 -92 39t-39 92zM141 950q0 53 39 92t92 39q54 0 92.5 -38.5t38.5 -92.5q0 -53 -38.5 -92t-92.5 -39q-53 0 -92 39t-39 92z" />
<glyph unicode=";" horiz-adv-x="583" d="M150 102q0 55 37.5 93t93.5 38q79 1 120 -65q35 -55 35 -135q0 -102 -52 -184t-159 -132l-18 37q63 27 109 84.5t46 116.5q0 25 -6 43q-33 -27 -75 -27q-55 0 -93 36t-38 95zM164 950q0 53 39 92t92 39t92 -38.5t39 -92.5q0 -53 -39 -92t-92 -39t-92 39t-39 92z" />
<glyph unicode="&#x3c;" horiz-adv-x="1245" d="M61 727l998 465l35 -74l-838 -391l838 -391l-35 -74z" />
<glyph unicode="=" horiz-adv-x="1325" d="M150 553v61h1026v-61h-1026zM150 840v61h1026v-61h-1026z" />
<glyph unicode="&#x3e;" horiz-adv-x="1245" d="M152 336l34 -74l998 465l-998 465l-34 -74l837 -391z" />
<glyph unicode="?" horiz-adv-x="940" d="M66 1380q0 82 96 148q109 74 278 74q195 0 312.5 -99.5t117.5 -269.5q0 -168 -123.5 -285t-336.5 -170v-299h-41v318q188 70 253.5 165t65.5 232q0 186 -76.5 276.5t-210.5 90.5q-59 0 -113.5 -16.5t-86.5 -57.5q39 -8 62.5 -35t23.5 -70q0 -51 -33 -80.5t-80 -29.5 t-77.5 30.5t-30.5 77.5zM260 102q0 53 39 92t92 39t92 -38.5t39 -92.5q0 -53 -39 -92t-92 -39t-92 39t-39 92z" />
<glyph unicode="@" horiz-adv-x="1798" d="M100 293q0 274 133.5 522t360.5 400.5t496 152.5q287 0 463 -139t176 -424q0 -219 -91.5 -390t-229.5 -266.5t-273 -95.5q-148 0 -148 131q0 51 14.5 99.5t16.5 56.5q-59 -147 -135 -217t-181 -70q-111 0 -160.5 67.5t-49.5 180.5q0 152 72.5 311.5t187 263t227.5 103.5 q125 0 147 -109l17 80q117 0 184 29l-172 -752q-12 -43 -12 -69q0 -29 14 -41.5t45 -12.5q86 0 202 86t200 247t84 370q0 268 -167 396t-429 128q-246 0 -466 -142t-352.5 -381t-132.5 -511q0 -301 167 -445.5t448 -144.5q238 0 422 111l14 -27q-80 -55 -192.5 -88 t-245.5 -33q-299 0 -476.5 155t-177.5 468zM666 313q0 -199 106 -198q78 0 158 116.5t131 317.5l53 258q-4 66 -35.5 95.5t-91.5 29.5q-86 0 -159.5 -93.5t-117.5 -237.5t-44 -288z" />
<glyph unicode="A" horiz-adv-x="2387" d="M82 -90q0 125 55.5 227.5t156.5 161.5t234 59q90 0 160 -38.5t108 -104t38 -141.5q0 -86 -52.5 -141.5t-122.5 -55.5q-59 0 -93 34t-34 85q0 59 50 88l6 -8q-14 -12 -25.5 -34t-11.5 -46q0 -41 30.5 -67.5t77.5 -26.5q61 0 103.5 52t42.5 120q0 72 -38 131t-101.5 94 t-137.5 35q-127 0 -222 -61.5t-145 -159t-50 -203.5q0 -133 63.5 -235.5t169 -158t227.5 -55.5q229 0 353.5 171t167.5 393.5t67 535.5q2 55 10 133q27 289 92.5 476.5t181.5 292t296 139.5h-762q-135 0 -243.5 -61.5t-171 -162t-62.5 -215.5q0 -98 40 -179t108.5 -127 t152.5 -46q94 0 160.5 54.5t66.5 144.5q0 66 -39 113.5t-96 47.5q-47 0 -80 -27.5t-33 -66.5q0 -25 11.5 -46t25.5 -34l-6 -8q-49 29 -49 88q0 51 36 85t95 34q68 0 114 -51t46 -135q0 -100 -74 -162t-178 -62q-90 0 -165 47.5t-120 133.5t-45 196q0 127 66.5 234.5 t182.5 170t257 62.5h1380v-16q-88 0 -137 -63.5t-49 -161.5v-1342q0 -98 49 -161.5t137 -63.5v-17h-602v17q88 0 137.5 63.5t49.5 161.5v733h-535l-4 -49q-23 -266 -109 -561t-265 -514t-458 -219q-129 0 -240.5 56t-180 163.5t-68.5 253.5zM1409 809h533v788 q-221 -2 -326 -81.5t-142.5 -232.5t-64.5 -474z" />
<glyph unicode="B" horiz-adv-x="2396" d="M82 1163q0 127 66.5 234.5t182 170t257.5 62.5h1132q154 0 252.5 -45t141.5 -116.5t43 -151.5q0 -111 -100.5 -198t-276.5 -113q121 -5 251 -78.5t217 -205.5t87 -298q0 -197 -106.5 -349.5t-278.5 -235.5t-361 -83q-184 0 -319 82t-187 228v-56q0 -100 -52 -152.5 t-152 -52.5h-211v17q88 0 137 63.5t49 161.5v1288q0 121 -68.5 194t-197.5 73q-135 0 -243.5 -61.5t-171 -162t-62.5 -215.5q0 -98 39.5 -179t108.5 -127t153 -46q92 0 156.5 54.5t64.5 144.5q0 66 -38 113.5t-95 47.5q-47 0 -78 -26.5t-31 -67.5q0 -25 11.5 -46t25.5 -34 l-6 -8q-49 29 -49 88q0 51 33.5 85t93.5 34q66 0 111.5 -51t45.5 -135q0 -100 -71.5 -162t-173.5 -62q-90 0 -165 47.5t-120 133.5t-45 196zM1083 236q0 -119 61.5 -222.5t174.5 -166t258 -62.5q149 0 265 73.5t180.5 211t64.5 321.5q0 160 -46 296t-152.5 222t-274.5 86 h-531v-594q43 109 133.5 168.5t200.5 59.5q111 0 185.5 -63.5t74.5 -172.5q0 -86 -52 -141t-122 -55q-59 0 -93 33.5t-34 84.5q0 59 49 88l7 -8q-14 -12 -25.5 -33.5t-11.5 -46.5q0 -41 30.5 -67.5t77.5 -26.5q61 0 103.5 52.5t42.5 119.5q0 92 -68 151.5t-164 59.5 q-90 0 -166.5 -48t-122 -132t-45.5 -188zM1083 1024h555q88 0 148.5 44t90.5 110.5t30 138.5q0 70 -32 135.5t-101.5 107.5t-176.5 42h-514v-578z" />
<glyph unicode="C" horiz-adv-x="1808" d="M82 743q0 256 128 470t349 340t483 126q127 0 223.5 -27.5t200.5 -72.5q35 -16 65 -27.5t50 -11.5q29 0 48.5 18.5t19.5 45.5h20v-480q0 -152 -60.5 -264t-164 -173.5t-232.5 -61.5q-111 0 -190.5 44t-120.5 117.5t-41 161.5q0 68 32 129.5t88 99t126 37.5q80 0 134 -48 t54 -115q0 -59 -33.5 -93t-84.5 -34q-59 0 -89 49l9 6q12 -14 33.5 -25.5t46.5 -11.5q41 0 67.5 31t26.5 78q0 61 -48 100t-116 39q-59 0 -109.5 -35t-79 -91t-28.5 -116q0 -131 88 -215t235 -84q115 0 212.5 57.5t154.5 162t57 235.5q0 127 -68.5 253t-202.5 210t-323 84 q-176 0 -338.5 -118t-263 -326t-100.5 -464q0 -254 100.5 -474t267 -352t359.5 -132q172 0 308 69.5t211 190.5t75 270h6q35 0 52.5 -31.5t17.5 -72.5q0 -121 -98.5 -226.5t-255 -167t-316.5 -61.5q-285 0 -509 124t-350 349.5t-126 513.5z" />
<glyph unicode="D" horiz-adv-x="2570" d="M82 1163q0 127 66.5 234.5t182 170t257.5 62.5h1026q229 0 436 -120.5t333 -330.5t126 -460q0 -287 -131 -506t-341 -338t-440 -119q-184 0 -322 83t-192 229v-58q0 -100 -52 -152.5t-152 -52.5h-211v17q88 0 137 63.5t49 161.5v1288q0 121 -68.5 194t-197.5 73 q-135 0 -243.5 -61.5t-171 -162t-62.5 -215.5q0 -98 39.5 -179t108.5 -127t153 -46q92 0 156.5 54.5t64.5 144.5q0 66 -38 113.5t-95 47.5q-47 0 -78 -26.5t-31 -67.5q0 -25 11.5 -46t25.5 -34l-6 -8q-49 29 -49 88q0 51 33.5 85t93.5 34q66 0 111.5 -51t45.5 -135 q0 -100 -71.5 -162t-173.5 -62q-90 0 -165 47.5t-120 133.5t-45 196zM1083 236q0 -119 65.5 -222.5t183.5 -166t265 -62.5q201 0 348.5 105.5t227.5 308t80 489.5q0 250 -81 457t-252 332t-429 125h-408v-1201q43 109 133.5 168.5t200.5 59.5q111 0 185.5 -63.5t74.5 -172.5 q0 -86 -52 -141t-122 -55q-59 0 -93 33.5t-34 84.5q0 59 49 88l7 -8q-14 -12 -25.5 -33.5t-11.5 -46.5q0 -41 30.5 -67.5t77.5 -26.5q61 0 103.5 52.5t42.5 119.5q0 92 -68 151.5t-164 59.5q-90 0 -166.5 -48t-122 -132t-45.5 -188z" />
<glyph unicode="E" horiz-adv-x="2105" d="M82 1163q0 127 66.5 234.5t182 170t257.5 62.5h1366l20 -241h-16q-33 74 -69 118.5t-97 69.5t-162 25h-547v-723h363q98 0 161.5 49t63.5 137h17v-401h-17q0 88 -63.5 137t-161.5 49h-363v-827q0 -82 34 -135.5t108 -53.5h454q147 0 224 52.5t125 160.5h16l-41 -242 h-1335v17q88 0 137 63.5t49 161.5v1288q0 121 -68.5 194t-197.5 73q-135 0 -243.5 -61.5t-171 -162t-62.5 -215.5q0 -98 39.5 -179t108.5 -127t153 -46q92 0 156.5 54.5t64.5 144.5q0 66 -38 113.5t-95 47.5q-47 0 -78 -26.5t-31 -67.5q0 -25 11.5 -46t25.5 -34l-6 -8 q-49 29 -49 88q0 51 33.5 85t93.5 34q66 0 111.5 -51t45.5 -135q0 -100 -71.5 -162t-173.5 -62q-90 0 -165 47.5t-120 133.5t-45 196z" />
<glyph unicode="F" horiz-adv-x="1994" d="M82 1163q0 127 66.5 234.5t182 170t257.5 62.5h1325l20 -241h-16q-33 74 -69 118.5t-97 69.5t-162 25h-506v-723h281q98 0 161.5 49t63.5 137h17v-401h-17q0 88 -63.5 137t-161.5 49h-281v-803q0 -98 49.5 -161.5t137.5 -63.5v-17h-602v17q88 0 137 63.5t49 161.5v1288 q0 121 -68.5 194t-197.5 73q-135 0 -243.5 -61.5t-171 -162t-62.5 -215.5q0 -98 39.5 -179t108.5 -127t153 -46q92 0 156.5 54.5t64.5 144.5q0 66 -38 113.5t-95 47.5q-47 0 -78 -26.5t-31 -67.5q0 -25 11.5 -46t25.5 -34l-6 -8q-49 29 -49 88q0 51 33.5 85t93.5 34 q66 0 111.5 -51t45.5 -135q0 -100 -71.5 -162t-173.5 -62q-90 0 -165 47.5t-120 133.5t-45 196z" />
<glyph unicode="G" horiz-adv-x="1982" d="M123 719q0 272 127 491.5t353 344t509 124.5q125 0 228.5 -31.5t224.5 -84.5q96 -43 125 -43t49 18t20 45h19v-502h-19q-23 164 -115 294t-232 203t-300 73q-201 0 -364.5 -133.5t-257 -349.5t-93.5 -449q0 -244 77 -458t226.5 -345t358.5 -131q147 0 269 67.5 t192.5 160.5t70.5 161v512q0 57 -54 100t-137 65.5t-163 22.5q-127 0 -228.5 -47t-159.5 -131t-58 -186q0 -88 39.5 -161t109.5 -114.5t156 -41.5q100 0 169.5 59t69.5 151q0 68 -40 117t-101 49q-47 0 -78 -26.5t-31 -67.5q0 -23 11.5 -45t25.5 -35l-6 -8q-49 29 -49 88 q0 53 34 86t93 33q70 0 120 -53.5t50 -137.5q0 -102 -79 -168.5t-189 -66.5q-92 0 -168 41t-121 117.5t-45 183.5q0 115 61.5 204t170 137t243.5 48q86 0 152.5 -10t152.5 -33q104 -25 190.5 -38t209.5 -13v-17q-86 0 -116 -58t-30 -167v-557q-47 0 -95 -20.5t-130 -67.5 q-133 -76 -247 -119t-265 -43q-281 0 -493 129t-327.5 349.5t-115.5 484.5z" />
<glyph unicode="H" horiz-adv-x="2312" d="M82 1163q0 127 66.5 234.5t182 170t257.5 62.5h682v-16q-88 0 -137.5 -63.5t-49.5 -161.5v-582h783v582q0 98 -49.5 161.5t-137.5 63.5v16h602v-16q-88 0 -137 -63.5t-49 -161.5v-1342q0 -98 49 -161.5t137 -63.5v-17h-602v17q88 0 137.5 63.5t49.5 161.5v731h-783v-731 q0 -98 49.5 -161.5t137.5 -63.5v-17h-602v17q88 0 137 63.5t49 161.5v1288q0 121 -68.5 194t-197.5 73q-135 0 -243.5 -61.5t-171 -162t-62.5 -215.5q0 -98 39.5 -179t108.5 -127t153 -46q92 0 156.5 54.5t64.5 144.5q0 66 -38 113.5t-95 47.5q-47 0 -78 -26.5t-31 -67.5 q0 -25 11.5 -46t25.5 -34l-6 -8q-49 29 -49 88q0 51 33.5 85t93.5 34q66 0 111.5 -51t45.5 -135q0 -100 -71.5 -162t-173.5 -62q-90 0 -165 47.5t-120 133.5t-45 196z" />
<glyph unicode="I" horiz-adv-x="1300" d="M82 1163q0 127 66.5 234.5t182 170t257.5 62.5h682v-16q-88 0 -137.5 -63.5t-49.5 -161.5v-1342q0 -98 49.5 -161.5t137.5 -63.5v-17h-602v17q88 0 137 63.5t49 161.5v1288q0 121 -68.5 194t-197.5 73q-135 0 -243.5 -61.5t-171 -162t-62.5 -215.5q0 -98 39.5 -179 t108.5 -127t153 -46q92 0 156.5 54.5t64.5 144.5q0 66 -38 113.5t-95 47.5q-47 0 -78 -26.5t-31 -67.5q0 -25 11.5 -46t25.5 -34l-6 -8q-49 29 -49 88q0 51 33.5 85t93.5 34q66 0 111.5 -51t45.5 -135q0 -100 -71.5 -162t-173.5 -62q-90 0 -165 47.5t-120 133.5t-45 196z " />
<glyph unicode="J" horiz-adv-x="1435" d="M82 115q0 121 47 218t136 153.5t212 56.5q121 0 202 -71t81 -173q0 -86 -52.5 -141.5t-123.5 -55.5q-59 0 -93 33t-34 86q0 59 49 88l6 -8q-14 -12 -25.5 -34.5t-11.5 -45.5q0 -41 31 -67.5t78 -26.5q61 0 104 52t43 120q0 96 -70.5 157.5t-183.5 61.5q-117 0 -199.5 -55 t-124.5 -147.5t-42 -200.5q0 -119 60 -227.5t167.5 -175t241.5 -66.5q147 0 239 84t131 200.5t39 225.5v1233q0 98 -49 161.5t-137 63.5v16h602v-16q-88 0 -137 -63.5t-49 -161.5v-1100q0 -170 -73 -322.5t-217.5 -249t-348.5 -96.5q-143 0 -257 67.5t-177.5 181.5 t-63.5 245z" />
<glyph unicode="K" horiz-adv-x="2091" d="M82 1163q0 127 66.5 234.5t182 170t257.5 62.5h682v-16q-88 0 -137.5 -63.5t-49.5 -161.5v-605l680 676q74 74 74 111q0 43 -88 43v16h354v-16q-66 0 -150.5 -44t-150.5 -112l-366 -366l422 -859q190 -387 403 -567t473 -180q332 0 610 203l13 -11q-113 -94 -274 -155.5 t-363 -61.5q-297 0 -513 103.5t-362.5 278.5t-265.5 421l-317 654l-179 -179v-692q0 -98 49.5 -161.5t137.5 -63.5v-17h-602v17q88 0 137 63.5t49 161.5v1288q0 121 -68.5 194t-197.5 73q-135 0 -243.5 -61.5t-171 -162t-62.5 -215.5q0 -98 39.5 -179t108.5 -127t153 -46 q92 0 156.5 54.5t64.5 144.5q0 66 -38 113.5t-95 47.5q-47 0 -78 -26.5t-31 -67.5q0 -25 11.5 -46t25.5 -34l-6 -8q-49 29 -49 88q0 51 33.5 85t93.5 34q66 0 111.5 -51t45.5 -135q0 -100 -71.5 -162t-173.5 -62q-90 0 -165 47.5t-120 133.5t-45 196z" />
<glyph unicode="L" horiz-adv-x="1927" d="M82 1163q0 127 66.5 234.5t182 170t257.5 62.5h682v-16q-88 0 -137.5 -63.5t-49.5 -161.5v-1555h330q139 0 239.5 79t153 196.5t52.5 230.5q0 147 -75 244.5t-204 97.5q-115 0 -182.5 -68.5t-67.5 -177.5q0 -88 56.5 -149.5t136.5 -61.5q66 0 112.5 44t46.5 106 q0 47 -26.5 77.5t-67.5 30.5q-23 0 -45 -11t-35 -26l-8 7q29 49 88 49q53 0 86 -34t33 -93q0 -72 -50 -123t-134 -51q-96 0 -159 67.5t-63 167.5q0 123 77 197t202 74q141 0 224 -102.5t83 -264.5q0 -86 -16.5 -155.5t-44.5 -159.5q-33 -94 -33 -131q0 -72 86 -72v-17h-1210 v17q88 0 137 63.5t49 161.5v1288q0 121 -68.5 194t-197.5 73q-135 0 -243.5 -61.5t-171 -162t-62.5 -215.5q0 -98 39.5 -179t108.5 -127t153 -46q92 0 156.5 54.5t64.5 144.5q0 66 -38 113.5t-95 47.5q-47 0 -78 -26.5t-31 -67.5q0 -25 11.5 -46t25.5 -34l-6 -8 q-49 29 -49 88q0 51 33.5 85t93.5 34q66 0 111.5 -51t45.5 -135q0 -100 -71.5 -162t-173.5 -62q-90 0 -165 47.5t-120 133.5t-45 196z" />
<glyph unicode="M" horiz-adv-x="2883" d="M82 -90q0 125 52 227.5t150.5 161.5t231.5 59q90 0 159.5 -38.5t107.5 -104t38 -141.5q0 -84 -50 -140.5t-124 -56.5q-59 0 -93 34t-34 85q0 59 49 88l6 -8q-14 -12 -25 -34t-11 -46q0 -41 30.5 -67.5t77.5 -26.5q66 0 106 51t40 121q0 72 -38 131t-101.5 94t-137.5 35 q-127 0 -218 -61.5t-139 -159t-48 -203.5q0 -133 65.5 -235.5t169 -158t213.5 -55.5q213 0 349 151.5t136 461.5v1261q0 121 -68.5 194t-197.5 73q-135 0 -243.5 -61.5t-171 -162t-62.5 -215.5q0 -98 40 -179t108.5 -127t152.5 -46q92 0 156.5 54.5t64.5 144.5 q0 66 -37.5 113.5t-95.5 47.5q-47 0 -77.5 -26.5t-30.5 -67.5q0 -25 11 -46t25 -34l-6 -8q-49 29 -49 88q0 51 34 85t93 34q66 0 112 -51t46 -135q0 -100 -71.5 -162t-174.5 -62q-90 0 -165 47.5t-120 133.5t-45 196q0 127 67 234.5t182.5 170t256.5 62.5h469l621 -1530 l610 1530h375v-16q-88 0 -137.5 -63.5t-49.5 -161.5v-1342q0 -98 49.5 -161.5t137.5 -63.5v-17h-602v17q88 0 137 63.5t49 161.5v1393l-551 -1383v-2l-4 -6l-104 -264h-35l-666 1620v-1323q0 -305 -133 -475t-385 -170q-127 0 -236.5 60.5t-175 168t-65.5 244.5z" />
<glyph unicode="N" horiz-adv-x="2420" d="M82 -90q0 125 52 227.5t150.5 161.5t231.5 59q90 0 159.5 -38.5t107.5 -104t38 -141.5q0 -84 -50 -140.5t-124 -56.5q-59 0 -93 34t-34 85q0 59 49 88l6 -8q-14 -12 -25 -34t-11 -46q0 -41 30.5 -67.5t77.5 -26.5q66 0 106 51t40 121q0 72 -38 131t-101.5 94t-137.5 35 q-127 0 -218 -61.5t-139 -159t-48 -203.5q0 -133 65.5 -235.5t169 -158t213.5 -55.5q213 0 349 151.5t136 461.5v1261q0 121 -68.5 194t-197.5 73q-135 0 -243.5 -61.5t-171 -162t-62.5 -215.5q0 -98 40 -179t108.5 -127t152.5 -46q92 0 156.5 54.5t64.5 144.5 q0 66 -37.5 113.5t-95.5 47.5q-47 0 -77.5 -26.5t-30.5 -67.5q0 -25 11 -46t25 -34l-6 -8q-49 29 -49 88q0 51 34 85t93 34q66 0 112 -51t46 -135q0 -100 -71.5 -162t-174.5 -62q-90 0 -165 47.5t-120 133.5t-45 196q0 127 67 234.5t182.5 170t256.5 62.5h439l974 -1429 v1188q0 98 -49 161.5t-137 63.5v16h405v-16q-88 0 -137 -63.5t-49 -161.5v-1604h-47l-1100 1614v-1317q0 -305 -133 -475t-385 -170q-127 0 -236.5 60.5t-175 168t-65.5 244.5z" />
<glyph unicode="O" horiz-adv-x="2064" d="M61 723q0 264 118 482t338 346t515 128t515 -128t338 -346t118 -482t-118 -485.5t-338 -351.5t-515 -130t-515 130t-338 351.5t-118 485.5zM307 723q0 -242 85 -458t249 -348t391 -132q228 0 391.5 132t248.5 348t85 458t-85 455t-248.5 343t-391.5 130h-2 q-156 0 -273.5 -78t-181 -206t-63.5 -273q0 -123 51 -226.5t140.5 -163t195.5 -59.5q115 0 195 70.5t80 185.5q0 80 -49.5 141.5t-120.5 61.5q-59 0 -98.5 -34t-39.5 -85q0 -31 14.5 -57.5t32.5 -42.5l-8 -11q-61 37 -61 111q0 63 42 103t118 40q84 0 141 -61t57 -166 q0 -127 -87 -203.5t-216 -76.5q-113 0 -208 59t-151.5 166.5t-56.5 247.5q0 115 35 218t100 181l-4 4q-147 -125 -227 -333t-80 -441z" />
<glyph unicode="P" horiz-adv-x="2160" d="M82 1163q0 127 66.5 234.5t182 170t257.5 62.5h739q238 0 420 -83t282.5 -229.5t100.5 -330.5q0 -188 -96.5 -337.5t-254 -233.5t-333.5 -84q-123 0 -221.5 55t-141.5 154v-494q0 -98 49.5 -161.5t137.5 -63.5v-17h-602v17q88 0 137 63.5t49 161.5v1288q0 121 -68.5 194 t-197.5 73q-135 0 -243.5 -61.5t-171 -162t-62.5 -215.5q0 -98 39.5 -179t108.5 -127t153 -46q92 0 156.5 54.5t64.5 144.5q0 66 -38 113.5t-95 47.5q-47 0 -78 -26.5t-31 -67.5q0 -25 11.5 -46t25.5 -34l-6 -8q-49 29 -49 88q0 51 33.5 85t93.5 34q66 0 111.5 -51 t45.5 -135q0 -100 -71.5 -162t-173.5 -62q-90 0 -165 47.5t-120 133.5t-45 196zM1083 682q0 -94 49.5 -169t132.5 -116t181 -41q147 0 250.5 86t155 229.5t51.5 317.5q0 143 -57.5 282.5t-191.5 235t-347 95.5h-224v-771q35 78 103.5 120t152.5 42q100 0 177 -63.5 t77 -171.5q0 -88 -48 -143.5t-124 -55.5q-59 0 -95 37t-36 88q0 27 14.5 51.5t36.5 36.5l7 -8q-14 -12 -25.5 -33.5t-11.5 -46.5q0 -41 31.5 -70.5t78.5 -29.5q66 0 105 51t39 123q0 61 -33 109t-85 75t-108 27q-70 0 -129 -37t-93 -102.5t-34 -147.5z" />
<glyph unicode="Q" horiz-adv-x="2064" d="M61 723q0 264 118 482t338 346t515 128t515 -128t338 -346t118 -482t-118 -485.5t-338 -351.5t-515 -130q-98 0 -196.5 -37.5t-167.5 -95.5q70 39 151 39q94 0 161 -15.5t155 -45.5q88 -31 156.5 -46.5t164.5 -15.5q121 0 176.5 20.5t71.5 73.5h22q-27 -102 -101.5 -189 t-197.5 -87q-92 0 -172.5 34t-185.5 95q-88 53 -150.5 79.5t-125.5 26.5q-172 0 -222 -104h-18q2 43 49 100.5t128 105.5t181 68q-260 27 -452.5 162t-295 344t-102.5 455zM307 723q0 -242 85 -458t249 -348t391 -132t391 132t249 348t85 458t-85 455t-248.5 343t-391.5 130 h-2q-156 0 -273.5 -78t-181 -206t-63.5 -273q0 -123 51 -226.5t140.5 -163t195.5 -59.5q115 0 195 70.5t80 185.5q0 80 -49.5 141.5t-120.5 61.5q-59 0 -98.5 -34t-39.5 -85q0 -31 14.5 -57.5t32.5 -42.5l-8 -11q-61 37 -61 111q0 63 42 103t118 40q84 0 141 -61t57 -166 q0 -127 -87 -203.5t-216 -76.5q-113 0 -208 59t-151.5 166.5t-56.5 247.5q0 115 35 218t100 181l-4 4q-147 -125 -227 -333t-80 -441z" />
<glyph unicode="R" horiz-adv-x="2170" d="M82 1163q0 127 66.5 234.5t182 170t257.5 62.5h739q244 0 426 -86t279.5 -235.5t97.5 -335.5q0 -233 -138.5 -397t-363.5 -220l170 -315q172 -317 379 -448.5t436 -131.5q332 0 611 203l12 -10q-113 -94 -273.5 -155.5t-363.5 -61.5q-287 0 -504 100.5t-351 236.5 t-204 267l-158 293q-100 10 -180 63.5t-119 141.5v-492q0 -98 49.5 -161.5t137.5 -63.5v-17h-602v17q88 0 137 63.5t49 161.5v1288q0 121 -68.5 194t-197.5 73q-135 0 -243.5 -61.5t-171 -162t-62.5 -215.5q0 -98 39.5 -179t108.5 -127t153 -46q92 0 156.5 54.5t64.5 144.5 q0 66 -38 113.5t-95 47.5q-47 0 -78 -26.5t-31 -67.5q0 -25 11.5 -46t25.5 -34l-6 -8q-49 29 -49 88q0 51 33.5 85t93.5 34q66 0 111.5 -51t45.5 -135q0 -100 -71.5 -162t-173.5 -62q-90 0 -165 47.5t-120 133.5t-45 196zM1083 682q0 -94 48.5 -168t126 -114t165.5 -40 q246 0 363 170t117 445q0 143 -57.5 286.5t-191.5 242t-347 98.5h-224v-771q35 78 103.5 120t152.5 42q100 0 176 -63.5t76 -171.5q0 -88 -48 -143.5t-124 -55.5q-59 0 -95 37t-36 88q0 27 14.5 51.5t36.5 36.5l7 -8q-14 -12 -25.5 -33.5t-11.5 -46.5q0 -41 31.5 -70.5 t78.5 -29.5q66 0 105 51t39 123q0 92 -69 151.5t-155 59.5q-70 0 -129 -37t-93 -102.5t-34 -147.5z" />
<glyph unicode="S" horiz-adv-x="1513" d="M82 229q0 133 64.5 242t172 171.5t226.5 62.5q109 0 192.5 -39t129.5 -108t46 -155q0 -102 -59 -177.5t-162 -75.5q-61 0 -103 34.5t-42 91.5q0 59 49 89l6 -9q-14 -12 -25.5 -33.5t-11.5 -46.5q0 -45 38 -73.5t89 -28.5q90 0 141.5 67.5t51.5 161.5q0 121 -95.5 199 t-244.5 78q-100 0 -200.5 -56.5t-167 -160t-66.5 -236.5q0 -156 74.5 -274.5t206.5 -184t300 -65.5q264 0 405.5 137t141.5 396q0 162 -106.5 304t-276.5 269l-305 227q-84 61 -134 107.5t-84 106t-34 132.5q0 131 106.5 214t284.5 83q66 0 119 -10t135 -33q77 -24 116 -24 h3q31 0 50.5 13t19.5 40h18v-481h-18q-18 127 -89 234.5t-167.5 170t-186.5 62.5q-111 0 -161 -54.5t-50 -132.5q0 -51 23.5 -90t57.5 -68.5t112 -86.5l289 -218q209 -156 350 -336t141 -362q0 -178 -105.5 -322.5t-280.5 -225.5t-374 -81q-180 0 -319.5 71t-215 198 t-75.5 286z" />
<glyph unicode="T" horiz-adv-x="1757" d="M82 1241q0 168 88 303t244.5 212t355.5 77q96 0 197.5 -13.5t242.5 -37.5q170 -29 275.5 -42.5t218.5 -13.5q121 0 213 9.5t189.5 48.5t174.5 119l9 -9q-98 -131 -248 -191.5t-363 -60.5q-82 1 -170 11v-1606q0 -98 49.5 -161.5t137.5 -63.5v-17h-602v17q88 0 137 63.5 t49 161.5v1653l-96 24q-131 35 -222.5 51.5t-191.5 16.5q-199 0 -348.5 -77t-230 -203t-80.5 -271q0 -135 60 -249.5t170 -182.5t253 -68q113 0 206 45t146 130t53 200q0 127 -60 205t-165 78q-57 0 -96 -36t-39 -79q0 -25 11.5 -46t25.5 -34l-6 -8q-49 29 -49 88 q0 53 40.5 96t112.5 43q113 0 183.5 -86t70.5 -221q0 -117 -58.5 -208t-157.5 -141t-218 -50q-150 0 -266.5 66.5t-181 186.5t-64.5 271z" />
<glyph unicode="U" horiz-adv-x="2207" d="M82 1163q0 127 66.5 234.5t182 170t257.5 62.5h661v-16q-86 0 -126 -58.5t-40 -146.5v-1077q0 -262 96.5 -402.5t317.5 -140.5q258 0 380 152.5t122 390.5v1077q0 88 -40 146.5t-126 58.5v16h365v-16q-86 0 -126 -58.5t-40 -146.5v-1057q0 -285 -133.5 -440.5 t-442.5 -155.5q-317 0 -459.5 160t-142.5 428v991q0 121 -68.5 194t-197.5 73q-135 0 -243.5 -61.5t-171 -162t-62.5 -215.5q0 -98 39.5 -179t108.5 -127t153 -46q92 0 156.5 54.5t64.5 144.5q0 66 -38 113.5t-95 47.5q-47 0 -78 -26.5t-31 -67.5q0 -25 11.5 -46t25.5 -34 l-6 -8q-49 29 -49 88q0 51 33.5 85t93.5 34q66 0 111.5 -51t45.5 -135q0 -100 -71.5 -162t-173.5 -62q-90 0 -165 47.5t-120 133.5t-45 196z" />
<glyph unicode="V" horiz-adv-x="2287" d="M82 1163q0 129 56.5 235.5t162 169t246.5 62.5h657v-16q-61 0 -91 -29t-30 -80q0 -47 21 -100l491 -1309l469 1307q20 57 21 98q0 53 -31 83t-94 30v16h369v-16q-72 0 -135.5 -59.5t-96.5 -151.5l-579 -1618h-64l-580 1569q-49 135 -122.5 191.5t-204.5 56.5 q-133 0 -232.5 -60.5t-151.5 -161t-52 -217.5q0 -98 39.5 -179t108.5 -127t153 -46q92 0 156.5 54.5t64.5 144.5q0 66 -38 113.5t-95 47.5q-47 0 -78 -26.5t-31 -67.5q0 -25 11.5 -46t25.5 -34l-6 -8q-49 29 -49 88q0 51 33.5 85t93.5 34q66 0 111.5 -51t45.5 -135 q0 -100 -71.5 -162t-173.5 -62q-90 0 -165 47.5t-120 133.5t-45 196z" />
<glyph unicode="W" horiz-adv-x="3067" d="M82 1163q0 129 56.5 235.5t162 169t246.5 62.5h649v-16q-63 0 -94 -30t-31 -83q0 -41 21 -98l458 -1292l320 1017l-86 271q-29 94 -98.5 154.5t-159.5 60.5v16h610v-16q-66 0 -97.5 -33t-31.5 -92q0 -45 14 -90l408 -1297l-4 -14l428 1313q16 53 16 92q0 55 -31.5 88 t-97.5 33v16h369v-16q-72 0 -132.5 -59.5t-90.5 -153.5l-527 -1616h-67l-406 1290l-405 -1290h-68l-545 1567q-86 250 -321 250q-133 0 -232.5 -60.5t-151.5 -161t-52 -217.5q0 -98 39.5 -179t108.5 -127t153 -46q92 0 156.5 54.5t64.5 144.5q0 66 -38 113.5t-95 47.5 q-47 0 -78 -26.5t-31 -67.5q0 -25 11.5 -46t25.5 -34l-6 -8q-49 29 -49 88q0 51 33.5 85t93.5 34q66 0 111.5 -51t45.5 -135q0 -100 -71.5 -162t-173.5 -62q-90 0 -165 47.5t-120 133.5t-45 196z" />
<glyph unicode="X" horiz-adv-x="2031" d="M82 1163q0 129 56.5 235.5t162 169t246.5 62.5h641v-16q-111 0 -111 -88q0 -45 33 -111l266 -526l285 528q37 70 37 115q0 82 -109 82v16h369v-16q-72 0 -145.5 -55.5t-118.5 -141.5l-303 -559l424 -838q45 -86 115.5 -142t142.5 -56v-17h-586v17q110 0 110 86 q0 47 -32 112l-322 637l-344 -639q-37 -70 -37 -114q0 -82 109 -82v-17h-369v17q72 0 145.5 55t118.5 141l361 670l-342 678q-57 115 -135 175.5t-203 60.5q-133 0 -232.5 -60.5t-151.5 -161t-52 -217.5q0 -98 39.5 -179t108.5 -127t153 -46q92 0 156.5 54.5t64.5 144.5 q0 66 -38 113.5t-95 47.5q-47 0 -78 -26.5t-31 -67.5q0 -25 11.5 -46t25.5 -34l-6 -8q-49 29 -49 88q0 51 33.5 85t93.5 34q66 0 111.5 -51t45.5 -135q0 -100 -71.5 -162t-173.5 -62q-90 0 -165 47.5t-120 133.5t-45 196z" />
<glyph unicode="Y" horiz-adv-x="2177" d="M82 1163q0 127 61.5 234.5t172 170t251.5 62.5h617v-16q-106 0 -107 -80q0 -49 37 -117l365 -669h12l381 671q39 68 39 115q0 80 -107 80v16h373v-16q-72 0 -146.5 -55.5t-121.5 -139.5l-393 -694v-678q0 -98 49 -161.5t137 -63.5v-17h-602v17q88 0 137 63.5t49 161.5 v592l-412 733q-127 229 -307 230q-133 0 -237.5 -60.5t-161.5 -162t-57 -216.5q0 -98 39.5 -179t108.5 -127t153 -46q92 0 156.5 54.5t64.5 144.5q0 66 -38 113.5t-95 47.5q-47 0 -78 -26.5t-31 -67.5q0 -25 11.5 -46t25.5 -34l-6 -8q-49 29 -49 88q0 51 33.5 85t93.5 34 q66 0 111.5 -51t45.5 -135q0 -100 -71.5 -162t-173.5 -62q-90 0 -165 47.5t-120 133.5t-45 196z" />
<glyph unicode="Z" horiz-adv-x="2052" d="M72 1272l110 370h1385v-10l-1141 -1788q137 -6 414 -53q174 -31 285.5 -45t224.5 -14q184 0 322 78.5t215 209t77 279.5q0 123 -51 220t-140.5 151.5t-197.5 54.5q-119 0 -197 -69.5t-78 -186.5q0 -84 48.5 -145.5t121.5 -61.5q59 0 99.5 34t40.5 87q0 31 -14.5 58.5 t-32.5 43.5l6 11q63 -37 63 -113q0 -66 -43 -109t-119 -43q-86 0 -146 65.5t-60 172.5q0 125 90 206t221 81q180 0 300 -120t120 -337q0 -166 -80 -302t-227.5 -216t-337.5 -80q-113 0 -220.5 14.5t-293.5 44.5q-176 33 -289 48.5t-230 15.5t-219 -19v11l1149 1800h-655 q-176 0 -310.5 -104.5t-191.5 -239.5h-18z" />
<glyph unicode="[" horiz-adv-x="606" d="M188 -371v1952h351v-39h-166v-1874h166v-39h-351z" />
<glyph unicode="\" horiz-adv-x="761" d="M68 1479l557 -1508h67l-557 1508h-67z" />
<glyph unicode="]" horiz-adv-x="606" d="M68 -332v-39h350v1952h-350v-39h165v-1874h-165z" />
<glyph unicode="^" horiz-adv-x="1097" d="M147 688q131 63 232.5 169t150.5 224h37q49 -118 150.5 -223.5t232.5 -169.5l-16 -29q-123 45 -239.5 112t-186.5 134q-57 -68 -151.5 -134t-192.5 -112z" />
<glyph unicode="_" horiz-adv-x="1210" d="M141 -236h928v-81h-928v81z" />
<glyph unicode="`" horiz-adv-x="579" d="M102 1608q0 33 29 57q16 14 45 14q43 0 78 -45q35 -47 82 -141q66 -127 141 -248l-22 -18q-72 74 -132.5 130t-74.5 68q-76 61 -117 113q-29 39 -29 70z" />
<glyph unicode="a" horiz-adv-x="1019" d="M80 229q0 92 50 151.5t118.5 94.5t181.5 74q115 39 170 71.5t55 88.5v127q0 119 -50 162.5t-140 43.5q-143 0 -203 -73q41 -10 68.5 -43t27.5 -82q0 -51 -32.5 -81t-83.5 -30q-57 0 -86 36t-29 87q0 49 23.5 82t70.5 66q49 35 125 57t166 22q160 0 242 -75 q51 -47 68.5 -114t17.5 -175v-569q0 -51 14 -74t49 -23q25 0 46.5 11.5t45.5 31.5l23 -35q-53 -41 -91 -58t-96 -17q-98 0 -137 49t-39 133q-61 -102 -141 -142t-180 -40q-129 0 -191.5 64.5t-62.5 178.5zM260 254q0 -92 45 -139t119 -47h2q134 0 229 155v402 q-18 -29 -51 -47.5t-100 -49.5q-78 -33 -126 -62.5t-83 -80.5t-35 -131z" />
<glyph unicode="b" horiz-adv-x="1153" d="M8 1538v43q66 -6 127 -6q129 0 213 29v-740q45 104 130 161.5t190 57.5q174 0 281.5 -143t107.5 -414q0 -178 -61.5 -303t-165 -188.5t-230.5 -63.5q-76 0 -146.5 31t-123.5 88l-146 -123l-34 15q14 51 14 118v1258q0 94 -35 137t-121 43zM348 119q47 -49 108.5 -75 t127.5 -26q137 0 205.5 124t68.5 384q0 250 -61.5 373t-188.5 123q-86 0 -157.5 -66.5t-102.5 -187.5v-649z" />
<glyph unicode="c" horiz-adv-x="995" d="M94 514q0 166 60.5 295t169 201.5t247.5 72.5h4q135 0 234 -65q96 -63 96 -158q0 -53 -30.5 -84t-77.5 -31t-80 28t-33 75q0 43 24.5 72.5t61.5 40.5q-20 37 -72.5 61.5t-111.5 24.5q-76 0 -141.5 -48.5t-108.5 -160t-43 -293.5q0 -254 82 -370t213 -116q88 0 167 51.5 t130 159.5l39 -14q-35 -117 -130.5 -201t-246.5 -84q-127 0 -230.5 65.5t-163 189.5t-59.5 288z" />
<glyph unicode="d" horiz-adv-x="1189" d="M98 526q0 178 62.5 304t168 189.5t232.5 63.5q78 0 142.5 -29.5t103.5 -90.5v397q0 94 -35 137t-121 43v43q66 -6 127 -6q129 0 213 29v-1383q0 -94 35 -137t121 -43v-43q-63 6 -127 6q-129 0 -213 -29v183q-37 -92 -110.5 -140.5t-180.5 -48.5q-196 -1 -308 141 q-110 139 -110 404v10zM297 526v-13q-1 -237 69 -357q72 -124 209 -123q80 0 143.5 61.5t88.5 173.5v611q-55 157 -227 157h-2q-127 0 -205 -130q-76 -127 -76 -368v-12z" />
<glyph unicode="e" horiz-adv-x="1036" d="M94 502q0 178 57.5 309t162 201.5t243.5 70.5q184 0 283.5 -111.5t99.5 -338.5h-641q-6 -57 -6 -131q0 -135 44 -235.5t116.5 -155t152.5 -54.5q98 0 174 47.5t127 157.5l41 -16q-37 -113 -138 -194t-245 -81q-145 0 -251.5 66.5t-163 186.5t-56.5 278zM297 672h446v23 q0 144 -46 243q-50 106 -148 106q-96 0 -166 -94t-86 -278z" />
<glyph unicode="f" horiz-adv-x="679" d="M53 1012v41h164q0 180 22.5 278.5t82.5 167.5q41 47 104 75t139 28q106 -1 178 -56q63 -51 64 -127q0 -47 -31 -77.5t-78 -30.5t-79.5 29.5t-32.5 80.5q0 43 23.5 70t62.5 35q-6 20 -33 32.5t-68 12.5q-45 0 -79.5 -20.5t-53.5 -55.5q-23 -41 -30 -121t-7 -268v-53h220 v-41h-220v-801q0 -94 54.5 -131t162.5 -37v-43l-49 2q-209 6 -266 6q-53 0 -242 -8v43q86 0 121 31.5t35 115.5v822h-164z" />
<glyph unicode="g" horiz-adv-x="1081" d="M18 -170q0 70 56.5 121t156.5 80l13 -33q-45 -14 -72 -57t-27 -97q0 -94 85 -144t229 -50q158 0 270.5 60.5t112.5 187.5q0 74 -52.5 114.5t-185.5 40.5h-151q-121 0 -194 31t-73 123q0 63 46.5 120.5t152.5 112.5q-135 14 -216 94t-81 226q0 162 98.5 242.5t259.5 80.5 q193 0 285 -106q39 55 98.5 91t118.5 36q53 0 86 -31t33 -88t-31.5 -86t-70.5 -29q-37 0 -62.5 25t-25.5 72q0 41 20 94q-53 -23 -84 -50.5t-55 -68.5q47 -72 47 -182q0 -162 -98.5 -243t-260.5 -81h-2q-68 -39 -102.5 -71.5t-34.5 -73.5q0 -66 99 -66h256q139 0 230 -60.5 t91 -180.5q0 -98 -63.5 -182.5t-186.5 -135.5t-297 -51q-178 0 -298 54.5t-120 160.5zM281 760q0 -158 42 -222.5t123 -64.5q82 0 124 64.5t42 222.5t-42 222.5t-124 64.5t-123.5 -64.5t-41.5 -222.5z" />
<glyph unicode="h" horiz-adv-x="1204" d="M41 0v43q86 0 121 31.5t35 115.5v1168q0 94 -35 137t-121 43v43q66 -6 127 -6q129 0 213 29v-766q51 129 142 187t206 58q143 0 217 -77q39 -41 55.5 -102.5t16.5 -166.5v-547q0 -84 34.5 -115.5t121.5 -31.5v-43q-188 8 -246 8q-57 0 -230 -8v43q76 0 106 31.5t30 115.5 v592q0 115 -33 175.5t-133 60.5q-84 0 -148.5 -47t-101.5 -132t-37 -192v-457q0 -84 29.5 -115.5t105.5 -31.5v-43q-172 8 -229 8t-246 -8z" />
<glyph unicode="i" horiz-adv-x="600" d="M59 0v43q86 0 121 31.5t35 115.5v641q0 94 -35 137.5t-121 43.5v43q66 -6 127 -6q129 0 213 28v-887q0 -84 35 -115.5t121 -31.5v-43q-188 8 -248 8q-59 0 -248 -8zM162 1436q0 53 39 92t92 39t92 -39t39 -92t-39 -92t-92 -39t-92 38.5t-39 92.5z" />
<glyph unicode="j" horiz-adv-x="546" d="M-53 -354q125 6 189.5 108.5t64.5 284.5v792q0 94 -35 137.5t-121 43.5v43q63 -6 127 -6q129 0 213 28v-841q0 -340 -147 -496q-55 -57 -130 -91t-161 -34v31zM143 1436q0 53 39 92t92 39q54 0 93 -39t39 -92t-39 -92t-93 -39q-53 0 -92 38.5t-39 92.5z" />
<glyph unicode="k" horiz-adv-x="1126" d="M41 0v43q86 0 121 31.5t35 115.5v1170q0 94 -35 137t-121 43v43q66 -6 127 -6q129 0 213 29v-1016q59 8 99 27.5t77 56.5l152 157q65 67 65 112q0 36 -42 53.5t-109 17.5v41q143 -8 231 -8q96 0 178 8v-41q-100 -8 -184 -96l-250 -263l371 -505q39 -52 69.5 -76.5 t73.5 -30.5v-43q-123 8 -166 8q-55 0 -227 -8v43q29 0 46 11.5t17 27.5t-12 31l-235 344q-35 51 -67 68.5t-87 21.5v-357q0 -84 29.5 -115.5t105.5 -31.5v-43q-172 8 -227 8q-59 0 -248 -8z" />
<glyph unicode="l" horiz-adv-x="585" d="M45 0v43q86 0 121 31.5t35 115.5v1170q0 94 -35 137t-121 43v43q63 -6 127 -6q129 0 213 29v-1416q0 -84 35 -115.5t121 -31.5v-43q-188 8 -248 8q-59 0 -248 -8z" />
<glyph unicode="m" horiz-adv-x="1818" d="M59 0v43q86 0 121 31.5t35 115.5v641q0 94 -35 137.5t-121 43.5v43q66 -6 127 -6q129 0 213 28v-241q49 127 139.5 187t196.5 60q139 0 213 -77q51 -53 64 -164q51 129 141 185t199 56q139 0 213 -77q37 -41 52 -104.5t15 -164.5v-547q0 -84 35 -115.5t121 -31.5v-43 q-188 8 -246 8q-57 0 -229 -8v43q76 0 105.5 31.5t29.5 115.5v592q0 78 -9 126t-43 79t-104 31q-78 0 -141.5 -49t-99 -134t-35.5 -188v-457q0 -84 34.5 -115.5t120.5 -31.5v-43q-188 8 -245 8t-230 -8v43q76 0 105.5 31.5t29.5 115.5v592q0 78 -9 126t-43 79t-103 31 q-78 0 -141.5 -49t-99.5 -135t-36 -189v-455q0 -84 30 -115.5t106 -31.5v-43q-172 8 -230 8q-57 0 -246 -8z" />
<glyph unicode="n" horiz-adv-x="1222" d="M59 0v43q86 0 121 31.5t35 115.5v641q0 94 -35 137.5t-121 43.5v43q66 -6 127 -6q129 0 213 28v-241q51 131 142.5 189t206.5 58h4q140 0 213 -77q39 -41 55 -102.5t16 -166.5v-547q0 -84 35 -115.5t121 -31.5v-43q-188 8 -246 8q-57 0 -229 -8v43q76 0 105.5 31.5 t29.5 115.5v592q0 115 -33 175.5t-133 60.5q-84 0 -149.5 -49t-101.5 -134t-36 -190v-455q0 -84 30 -115.5t106 -31.5v-43q-172 8 -230 8q-57 0 -246 -8z" />
<glyph unicode="o" horiz-adv-x="1122" d="M96 526q0 281 128 419t337 138t337 -138t128 -419t-128 -418t-337 -137t-337 137.5t-128 417.5zM295 526q0 -264 71.5 -389t194.5 -125t194.5 125t71.5 389t-71.5 390t-194.5 126t-194.5 -125.5t-71.5 -390.5z" />
<glyph unicode="p" horiz-adv-x="1189" d="M45 1012v43q63 -6 127 -6q129 0 213 28v-217q45 106 131 164.5t197 58.5q108 0 195 -59t136.5 -174t49.5 -275q0 -158 -50.5 -295t-156 -223t-262.5 -86q-78 0 -141.5 31t-98.5 80v-262q0 -84 49 -116t148 -32v-43l-47 2q-190 6 -248 7q-49 0 -221 -9v43q76 0 105.5 28 t29.5 99v1032q0 94 -35 137.5t-121 43.5zM385 150q29 -59 84 -95.5t133 -36.5q293 1 293 529q0 475 -238 475q-92 0 -165.5 -66.5t-106.5 -191.5v-614z" />
<glyph unicode="q" horiz-adv-x="1153" d="M96 526q0 180 57.5 306t157 188.5t224.5 62.5q104 0 173.5 -35.5t114.5 -113.5l146 153l35 -14q-14 -51 -15 -119v-1155q0 -71 30 -99t105 -28v-43q-172 8 -221 9q-57 0 -248 -7l-47 -2v43q98 0 147.5 32t49.5 116v352q-41 -96 -116 -148.5t-171 -52.5q-121 0 -216 61.5 t-150.5 186.5t-55.5 307zM295 526q0 -246 72.5 -369.5t210.5 -123.5q75 0 137.5 61.5t89.5 173.5v633q-39 68 -104.5 101.5t-149.5 33.5q-123 0 -189.5 -127t-66.5 -383z" />
<glyph unicode="r" horiz-adv-x="911" d="M59 0v43q86 0 121 31.5t35 115.5v641q0 94 -35 137.5t-121 43.5v43q66 -6 127 -6q129 0 213 28v-256q37 102 118 182t179 80q82 0 134.5 -47t52.5 -114q0 -53 -32 -91t-85 -38q-45 0 -77 28.5t-32 77.5q0 68 70 111q-14 20 -43 20q-80 0 -145.5 -62.5t-102.5 -152.5 t-37 -170v-434q0 -94 54.5 -131t162.5 -37v-43l-49 2q-209 6 -266 6q-53 0 -242 -8z" />
<glyph unicode="s" horiz-adv-x="915" d="M115 -14q8 117 8 409h47q23 -193 82 -288t203 -95q72 0 127 47t55 148q0 80 -54.5 135t-176.5 133q-100 63 -154.5 104.5t-91.5 100.5t-37 139q0 129 86 196.5t217 67.5q74 0 131 -22.5t92 -52.5q23 -16 37 -17q37 0 45 90h47q-8 -100 -8 -348h-47q-23 135 -87.5 223 t-191.5 88q-74 0 -121 -41.5t-47 -115.5q0 -72 49.5 -120t157.5 -116q18 -10 56 -35q94 -61 151.5 -108t93 -108.5t35.5 -141.5q0 -135 -101.5 -211t-248.5 -76q-92 0 -162 29q-45 23 -84 55q-8 8 -18 8q-14 0 -25.5 -20t-17.5 -57h-47z" />
<glyph unicode="t" horiz-adv-x="724" d="M8 1012v41h197v313q115 4 184 29v-342h303v-41h-303v-793q0 -92 34 -133t97 -41t108.5 51t76.5 168l40 -10q-51 -283 -266 -283q-70 0 -115 16.5t-79 51.5q-45 45 -62.5 110.5t-17.5 176.5v686h-197z" />
<glyph unicode="u" horiz-adv-x="1189" d="M33 1012v43q63 -6 127 -6q129 0 213 28v-805q0 -78 9 -126t43 -78.5t103 -30.5q78 0 141.5 49t99.5 134t36 188v423q0 94 -35 137.5t-121 43.5v43q63 -6 127 -6q129 0 213 28v-856q0 -94 35 -137t121 -43v-43q-63 6 -127 6q-129 0 -213 -29v242q-49 -127 -139.5 -186.5 t-196.5 -59.5q-139 0 -213 78q-37 41 -52.5 104.5t-15.5 163.5v514q0 94 -34.5 137.5t-120.5 43.5z" />
<glyph unicode="v" horiz-adv-x="1001" d="M-4 1012v43q106 -8 180 -8q158 0 266 8v-43q-76 0 -110.5 -11.5t-34.5 -58.5q0 -29 22 -90l252 -623l226 592q22 58 22 94q0 50 -35.5 71.5t-115.5 27.5v41q106 -6 172 -6q89 0 155 6v-41q-41 -4 -72.5 -37t-60.5 -107l-336 -880h-34l-377 907q-31 70 -59.5 92.5 t-59.5 22.5z" />
<glyph unicode="w" horiz-adv-x="1576" d="M0 1012v43q80 -12 180 -13q102 0 266 13v-43q-76 0 -109.5 -12.5t-33.5 -63.5q0 -37 21 -96l204 -590l295 813h47l314 -827l192 585q18 55 19 92q0 49 -35 72t-117 29v41q109 -6 172 -6q90 0 156 6v-41q-43 -6 -76 -38t-57 -106l-297 -880h-35l-324 823l-293 -823h-34 l-336 907q-29 72 -58.5 93.5t-60.5 21.5z" />
<glyph unicode="x" horiz-adv-x="1062" d="M43 0v41q41 4 83 37t97 106l236 310l-285 415q-41 59 -65.5 79t-61.5 24v43q106 -8 146 -8q70 0 241 8v-43q-33 0 -56.5 -12.5t-23.5 -32.5q0 -14 8 -25l220 -319l141 198q61 88 61 129q0 29 -27.5 44.5t-88.5 19.5v41q106 -6 172 -6q90 0 155 6v-41q-84 -10 -180 -144 l-207 -286l301 -439q37 -51 62.5 -72.5t64.5 -29.5v-43q-106 8 -145 8q-70 0 -242 -8v43q33 0 56.5 12.5t23.5 32.5q0 14 -8 25l-234 340l-149 -195q-57 -76 -57 -123q0 -43 39.5 -66.5t111.5 -27.5v-41q-106 6 -233 6q-90 0 -156 -6z" />
<glyph unicode="y" horiz-adv-x="1032" d="M-8 1012v43q88 -12 201 -13q102 0 266 13v-43q-74 0 -108 -12.5t-34 -59.5q0 -43 25 -100l246 -611l227 592q23 61 23 94q0 47 -37 70t-117 29v41q109 -6 172 -6q90 0 156 6v-41q-41 -4 -73 -37t-60 -107l-336 -880l-70 -178q-39 -100 -88 -144q-31 -29 -74 -41t-86 -12 q-61 0 -100 33t-39 90q0 49 28.5 78.5t80.5 29.5q45 0 74.5 -25.5t29.5 -70.5q0 -61 -55 -92q4 -2 12 -2q113 0 174 160l72 186l-371 895q-35 70 -69.5 92.5t-69.5 22.5z" />
<glyph unicode="z" horiz-adv-x="974" d="M78 -10l592 1034h-226q-137 0 -203.5 -77t-80.5 -253h-47q0 268 -9 369q162 -8 381 -8q195 0 414 10l-592 -1034h225q127 0 199 78.5t86 250.5h47q0 -268 8 -368q-162 8 -380 8q-195 0 -414 -10z" />
<glyph unicode="{" horiz-adv-x="622" d="M55 594v37h11q63 4 96 48t46 147.5t13 301.5q0 182 33 283.5t107.5 146t207.5 44.5v-39q-72 -2 -104.5 -31t-45.5 -118t-13 -286q0 -252 -78 -363.5t-215 -152.5q135 -39 214 -151.5t79 -364.5q0 -205 13 -295t46 -117.5t104 -29.5v-39q-133 0 -207.5 42t-107.5 145.5 t-33 293.5q0 197 -13 300.5t-46 147.5t-96 50h-11z" />
<glyph unicode="|" horiz-adv-x="454" d="M186 -399v2156h82v-2156h-82z" />
<glyph unicode="}" horiz-adv-x="622" d="M53 -346v-39q133 0 208 42t107.5 145.5t32.5 293.5q0 197 13.5 300.5t46.5 147.5t96 50h10v37h-10q-63 4 -96 48t-46.5 147.5t-13.5 301.5q0 182 -32.5 283.5t-107.5 146t-208 44.5v-39q72 -2 104.5 -31t46 -118t13.5 -286q0 -252 78 -363.5t215 -152.5 q-135 -39 -214 -151.5t-79 -364.5q0 -205 -13.5 -295t-46 -117.5t-104.5 -29.5z" />
<glyph unicode="~" horiz-adv-x="1329" d="M152 530q12 98 94 158t194 60q68 0 126.5 -19.5t142.5 -60.5q80 -39 135 -58.5t117 -19.5q135 0 184 119l35 -11q-12 -98 -94 -157.5t-195 -59.5q-68 0 -126 19.5t-142 60.5q-80 39 -135.5 58.5t-116.5 19.5q-135 0 -185 -119z" />
<glyph unicode="&#xa1;" horiz-adv-x="509" d="M125 952q0 53 39 92t92 39t92 -38.5t39 -92.5q0 -53 -39 -92t-92 -39t-92 39t-39 92zM160 -270q0 90 28 309q25 209 36.5 340t11.5 272h36q0 -141 11.5 -272t35.5 -340q29 -219 29 -309q0 -59 -25.5 -87t-68.5 -28q-41 0 -67.5 28.5t-26.5 86.5z" />
<glyph unicode="&#xa2;" horiz-adv-x="970" d="M70 514q0 156 54 280t150.5 199.5t223.5 87.5v369h45v-367h4q137 0 237 -65q96 -63 97 -158q0 -53 -31 -84t-78 -31t-80 28t-33 75q0 43 25 72.5t61 40.5q-20 37 -72 61.5t-112 24.5q-76 0 -141.5 -48.5t-108.5 -160t-43 -293.5q0 -254 82 -370t213 -116q88 0 167 51.5 t130 159.5l39 -14q-33 -113 -123 -196t-233 -89v-342h-45v342q-121 8 -218.5 75t-153.5 187.5t-56 280.5z" />
<glyph unicode="&#xa3;" horiz-adv-x="1232" d="M72 -8q0 31 59 82t125 76q14 66 18.5 142.5t4.5 235.5v80h-158v41h158v164h-158v41h158v45q0 279 105 443.5t349 164.5q121 0 193 -55q61 -49 61 -113q0 -43 -28.5 -71.5t-67.5 -28.5q-37 0 -65.5 26.5t-28.5 65.5q0 33 17 58.5t50 37.5q-4 20 -44 35t-83 15 q-123 0 -181 -71t-72.5 -177.5t-14.5 -276.5v-98h297v-41h-297v-164h297v-41h-297q-4 -121 -36 -217t-97 -211q88 41 176 41q47 0 89 -11t110 -34q74 -25 121 -36t100 -11q70 0 104.5 34t34.5 83q0 70 -47 115t-127 61l8 33q109 -17 185.5 -84.5t76.5 -171.5q0 -92 -59 -160 t-164 -68q-68 0 -125 24.5t-141 76.5q-10 6 -57.5 33.5t-90.5 41.5q-45 16 -100 17q-57 0 -113 -21q-47 -82 -103 -127t-110 -45q-16 0 -24 4.5t-8 16.5z" />
<glyph unicode="&#xa4;" horiz-adv-x="1095" d="M158 283l88 88q-86 106 -86 243t88 246l-90 90l57 58l90 -90q49 41 112.5 63.5t131.5 22.5q135 0 244 -89l92 93l57 -58l-92 -92q86 -109 86 -244q0 -137 -86 -243l90 -88l-57 -60l-90 90q-109 -86 -244 -86q-141 0 -244 84l-88 -88zM244 614q0 -84 42 -155.5 t111.5 -113.5t151.5 -42t151.5 42t110.5 113.5t41 155.5q0 82 -41 155t-110.5 116t-151.5 43t-152.5 -43t-111.5 -115t-41 -156z" />
<glyph unicode="&#xa5;" horiz-adv-x="1325" d="M55 1407v43q80 -6 181 -6q199 0 286 6v-43q-143 0 -143 -78q0 -31 20 -72l340 -651h2l260 518q55 109 56 176q0 57 -45 82t-135 27v41q117 -6 235 -6q93 0 154 6v-41q-41 -10 -80 -52t-84 -130l-314 -621h279v-41h-287v-164h287v-41h-287v-143q0 -78 12.5 -112.5t46 -47 t107.5 -16.5v-41q-94 6 -260 6q-176 0 -262 -6v41q74 4 107.5 16.5t46 47t12.5 112.5v143h-287v41h287v123l-23 41h-264v41h242l-371 686q-37 68 -64.5 91.5t-54.5 23.5z" />
<glyph unicode="&#xa6;" horiz-adv-x="458" d="M188 -399v1067h82v-1067h-82zM188 786v971h82v-971h-82z" />
<glyph unicode="&#xa7;" horiz-adv-x="1040" d="M84 639q0 225 235 354q-72 63 -108.5 132t-36.5 155q0 143 98.5 232.5t262.5 89.5q96 0 182 -35q74 -31 115.5 -81t41.5 -104q0 -47 -28.5 -78.5t-79.5 -31.5q-47 0 -80 30.5t-33 77.5q0 39 21.5 68t66.5 41q-18 39 -78.5 56.5t-119.5 17.5q-117 0 -171.5 -60.5 t-54.5 -142.5q0 -70 42 -131.5t102.5 -110.5t159.5 -117l36 -24q164 -113 232.5 -197t68.5 -202q0 -219 -239 -351q74 -65 111.5 -134.5t37.5 -155.5q0 -143 -98 -232.5t-262 -89.5q-96 0 -182 35q-74 31 -116 81t-42 103q0 47 28.5 79t79.5 32q47 0 80 -31t33 -78 q0 -39 -21.5 -67.5t-66.5 -40.5q16 -39 77.5 -56.5t123.5 -17.5q115 0 169 61.5t54 141.5q0 70 -42 131t-102.5 110t-158.5 117l-37 25q-164 113 -232.5 196.5t-68.5 202.5zM195 741q0 -92 73.5 -167.5t220.5 -176.5q152 -104 207 -149q76 43 114 102.5t38 124.5 q0 92 -74 168t-221 176q-14 10 -85 58.5t-122 93.5q-76 -43 -113.5 -103.5t-37.5 -126.5z" />
<glyph unicode="&#xa8;" horiz-adv-x="876" d="M102 1403q0 47 35 83t84 36q47 0 83 -36t36 -83q0 -49 -36 -84t-83 -35q-49 0 -84 35t-35 84zM537 1403q0 47 34.5 83t83.5 36q47 0 83 -36t36 -83q0 -49 -36 -84t-83 -35q-49 0 -83.5 35t-34.5 84z" />
<glyph unicode="&#xa9;" horiz-adv-x="1830" d="M100 786q0 221 109.5 408.5t297 297.5t408.5 110q222 0 409 -110t297 -297t110 -409q0 -221 -110 -408.5t-297 -297t-409 -109.5q-221 0 -408.5 109.5t-297 297t-109.5 408.5zM182 786q0 -203 98.5 -374.5t267.5 -273t367 -101.5q199 0 368 101.5t267.5 273.5t98.5 374 q0 203 -98.5 375t-267.5 273.5t-368 101.5q-198 0 -367 -101.5t-267.5 -273.5t-98.5 -375zM471 774q0 166 60.5 296t169 201.5t249.5 71.5q70 0 134.5 -18t111.5 -53q86 -59 86 -152q0 -53 -30.5 -83.5t-77.5 -30.5t-80 29.5t-33 80.5q0 43 23.5 69.5t62.5 35.5 q-20 37 -72.5 61.5t-111.5 24.5q-102 0 -177 -80q-117 -127 -116 -428q0 -248 82 -364t211 -116q90 0 168.5 51.5t130.5 159.5l38 -14q-35 -117 -130 -201t-244 -84q-129 0 -232.5 65.5t-163 188.5t-59.5 289z" />
<glyph unicode="&#xaa;" horiz-adv-x="948" d="M117 897q0 80 64.5 126t201.5 97q80 31 122 55.5t42 59.5v37q0 90 -35 129t-104 39q-37 0 -78 -10.5t-74 -32.5q29 -8 49.5 -34t20.5 -63q0 -39 -27 -64.5t-63 -25.5q-45 0 -72 26t-27 67q0 82 99 129q98 47 225 47q131 0 190.5 -61.5t59.5 -198.5v-334q0 -43 11 -59.5 t40 -16.5q49 0 84 35l22 -31q-80 -76 -184 -76q-74 0 -103.5 24.5t-33.5 72.5q-98 -96 -240 -97q-76 0 -133 41t-57 119zM285 934q0 -55 30.5 -90t81.5 -35q78 0 150 65v297q-8 -16 -31.5 -32.5t-83.5 -42.5q-78 -35 -112.5 -72t-34.5 -90z" />
<glyph unicode="&#xab;" horiz-adv-x="1028" d="M66 526v2q158 88 270.5 224.5t200.5 330.5l34 -14q-72 -190 -154.5 -313t-197.5 -221q111 -96 195 -225.5t157 -323.5l-34 -15q-88 195 -201 331t-270 224zM424 526v2q158 88 270.5 224.5t200.5 330.5l35 -14q-72 -190 -155 -313t-197 -221q111 -96 194.5 -225.5 t157.5 -323.5l-35 -15q-88 195 -200.5 331t-270.5 224z" />
<glyph unicode="&#xac;" horiz-adv-x="1343" d="M168 696v62h1026v-420h-74v358h-952z" />
<glyph unicode="&#xad;" horiz-adv-x="1021" />
<glyph unicode="&#xae;" horiz-adv-x="1388" d="M123 1030q0 156 76.5 287t208 208t286.5 77q156 0 287 -77t208 -208t77 -287t-77 -287t-208 -207.5t-287 -76.5t-287 76.5t-207.5 207.5t-76.5 287zM209 1030q0 -137 64.5 -252.5t176 -184.5t244.5 -69t245 69t176.5 184.5t64.5 252.5t-64.5 253t-176.5 184.5t-245 68.5 t-244.5 -68.5t-176 -184.5t-64.5 -253zM438 721v31q31 4 39 16t8 59v449q0 47 -8 60.5t-39 17.5v30q25 -2 99 -2l176 2q117 0 177 -42t60 -119q0 -139 -200 -174q82 -8 116.5 -36t46.5 -83l25 -117q2 -8 6 -28.5t11.5 -30t19.5 -9.5q16 1 24 17l21 -14q-12 -25 -33.5 -34 t-56.5 -9q-51 0 -77 19t-36 64l-35 152q-8 41 -22.5 59.5t-49 25.5t-108.5 9v-207q0 -47 8 -59t39 -16v-31l-104 2zM602 1067h49q100 0 136 35t36 100q0 78 -32.5 115t-110.5 37q-49 0 -63.5 -13.5t-14.5 -54.5v-219z" />
<glyph unicode="&#xaf;" horiz-adv-x="843" d="M102 1407v51h639v-51h-639z" />
<glyph unicode="&#xb0;" horiz-adv-x="681" d="M92 1434q0 111 73 178t175 67q104 0 177 -67.5t73 -177.5q0 -111 -73 -179.5t-177 -68.5q-102 0 -175 68.5t-73 179.5zM143 1432q0 -100 59.5 -155.5t137.5 -55.5t138.5 55t60.5 156q0 98 -61.5 155.5t-137.5 57.5t-136.5 -57.5t-60.5 -155.5z" />
<glyph unicode="&#xb1;" horiz-adv-x="1222" d="M88 696v62h477v483h74v-483h475v-62h-475v-481h-74v481h-477zM109 0v61h1026v-61h-1026z" />
<glyph unicode="&#xb2;" horiz-adv-x="692" d="M72 897v41q35 29 82 63q90 70 143 117t94 111.5t41 136.5q0 111 -133 111q-125 0 -195 -111l-30 16q39 70 109.5 117t172.5 47q93 0 149 -39t56 -114q0 -78 -53 -138.5t-156 -138.5q-8 -6 -51 -39t-72 -65h271q45 0 62.5 15t33.5 54l35 -6q-27 -106 -31 -184q-25 6 -78 6 h-450z" />
<glyph unicode="&#xb3;" horiz-adv-x="663" d="M57 1384q39 72 111 118t176 46q94 0 150.5 -39t56.5 -110q0 -68 -52.5 -118t-138.5 -75q100 -2 169 -50t69 -134q0 -90 -79 -160.5t-202.5 -109.5t-250.5 -39v35q104 2 198 39.5t151.5 100t57.5 134.5q0 70 -41 114t-108 48q-10 -6 -34 -17.5t-40 -11.5q-33 0 -33 25 q0 20 23.5 25t66.5 3q61 27 88 69t27 83q0 53 -38 86t-101 33q-61 0 -111.5 -28t-83.5 -83z" />
<glyph unicode="&#xb4;" horiz-adv-x="579" d="M102 1245q76 121 142 248q47 94 82 141q33 45 77 45q29 0 46 -14q28 -24 28 -57q0 -31 -28 -70q-41 -51 -117 -113q-14 -12 -74.5 -68.5t-132.5 -129.5z" />
<glyph unicode="&#xb6;" horiz-adv-x="1320" d="M72 737q0 209 87 371t253 253t393 91q64 0 166 -4l143 -2q82 0 123 4v-39q-94 -4 -126 -36t-32 -103v-1426q0 -78 12.5 -112.5t46 -47t107.5 -16.5v-41q-96 6 -260 6q-205 0 -303 -6v41q86 4 130 22.5t60.5 58.5t16.5 116v106q-430 0 -623.5 206t-193.5 558zM254 719 q0 -8 179 -18.5t394 -10.5q2 -154 14.5 -289t28 -219t21.5 -84v1245q-6 0 -21.5 -87t-28 -223t-14.5 -283q-209 0 -391 -12.5t-182 -18.5z" />
<glyph unicode="&#xb7;" horiz-adv-x="540" d="M139 549q0 53 39 92t92 39q54 0 92.5 -39t38.5 -92t-38.5 -92t-92.5 -39q-53 0 -92 39t-39 92z" />
<glyph unicode="&#xb8;" horiz-adv-x="606" d="M102 -362l9 36q43 -6 77 -6q74 0 129.5 21.5t55.5 70.5q0 57 -86 58q-57 0 -101 -15l70 209h55l-53 -159q61 14 121 14q57 0 91 -25.5t34 -70.5q0 -78 -72 -117t-160 -39q-102 0 -170 23z" />
<glyph unicode="&#xb9;" horiz-adv-x="538" d="M70 1436v43q104 2 171.5 16t123.5 47v-504q0 -57 30.5 -78.5t106.5 -21.5v-43q-78 4 -199 4q-133 0 -219 -4v43q76 0 114 21.5t38 78.5v265q0 59 -14.5 86.5t-48.5 37t-103 9.5z" />
<glyph unicode="&#xba;" horiz-adv-x="929" d="M102 1108q0 117 51.5 201t135.5 127t176 43t176 -43t135 -127t51 -201t-51 -201t-135 -127t-176 -43t-176 43t-135.5 127t-51.5 201zM272 1108q0 -168 54.5 -251t138.5 -83t138 83t54 251t-54 251t-138 83t-138.5 -83t-54.5 -251z" />
<glyph unicode="&#xbb;" horiz-adv-x="1026" d="M98 -16q72 190 155 313t198 221q-111 96 -195 225t-158 324l35 14q88 -194 200.5 -330.5t270.5 -224.5v-2q-158 -88 -270.5 -224t-200.5 -331zM457 -16q72 190 154.5 313t197.5 221q-111 96 -195 225t-157 324l35 14q88 -194 200.5 -330.5t270.5 -224.5v-2 q-158 -88 -270.5 -224t-200.5 -331z" />
<glyph unicode="&#xbc;" horiz-adv-x="1419" d="M102 1436v43q104 2 172 16t123 47v-504q0 -57 31 -78.5t107 -21.5v-43q-78 4 -199 4q-133 0 -219 -4v43q76 0 113.5 21.5t37.5 78.5v265q0 59 -14 86.5t-48 37t-104 9.5zM131 -86l1198 1774l39 -27l-1198 -1774zM612 37v43l469 541h43v-500h17q45 0 62.5 15.5t33.5 53.5 l35 -6q-27 -88 -29 -153q-25 6 -78 6h-41v-240h-114v240h-398zM692 121h318v366z" />
<glyph unicode="&#xbd;" horiz-adv-x="1433" d="M98 -86l1198 1774l39 -27l-1198 -1774zM119 1436v43q104 2 171.5 16t123.5 47v-504q0 -57 30.5 -78.5t106.5 -21.5v-43q-78 4 -199 4q-133 0 -219 -4v43q76 0 114 21.5t38 78.5v265q0 59 -14.5 86.5t-48.5 37t-103 9.5zM795 2v41q35 29 82 63q90 70 143 117t94 111.5 t41 136.5q0 111 -133 111q-125 0 -195 -111l-30 16q39 70 109.5 117t172.5 47q92 0 148.5 -39t56.5 -114q0 -78 -53 -138.5t-156 -138.5q-8 -6 -51 -38.5t-72 -65.5h271q45 0 62.5 15t33.5 54l35 -6q-27 -109 -31 -184q-25 6 -78 6h-450z" />
<glyph unicode="&#xbe;" horiz-adv-x="1523" d="M104 1384q39 72 111 118t176 46q94 0 150.5 -39t56.5 -110q0 -68 -52 -118t-138 -75q100 -2 168.5 -50t68.5 -134q0 -90 -79 -160.5t-202.5 -109.5t-250.5 -39v35q104 2 198.5 39.5t151.5 100t57 134.5q0 70 -41 114t-108 48q-10 -6 -34 -17.5t-40 -11.5q-33 0 -33 25 q0 20 23.5 25t66.5 3q61 27 88 69t27 83q0 53 -38 86t-101 33q-61 0 -111.5 -28t-83.5 -83zM227 -86l1198 1774l39 -27l-1198 -1774zM709 37v43l469 541h43v-500h16q45 0 62.5 15.5t33.5 53.5l35 -6q-27 -88 -29 -153q-25 6 -77 6h-41v-240h-115v240h-397zM788 121h318v366z " />
<glyph unicode="&#xbf;" horiz-adv-x="927" d="M63 -37q0 162 124 273.5t337 160.5v258h41v-276q-188 -66 -253.5 -156t-65.5 -221q0 -176 76.5 -261t209.5 -85q143 0 201 53q-39 8 -62.5 35t-23.5 70q0 51 33 80.5t80 29.5t77.5 -30.5t30.5 -77.5q0 -84 -96 -142q-100 -59 -278 -59q-195 0 -313 93t-118 255zM412 954 q0 53 38.5 92t92.5 39q53 0 92 -38.5t39 -92.5q0 -53 -39 -92t-92 -39t-92 39t-39 92z" />
<glyph unicode="&#xc0;" horiz-adv-x="2414" d="M82 -90q0 125 55.5 227.5t156.5 161.5t234 59q90 0 160 -38.5t108 -104t38 -141.5q0 -86 -52.5 -141.5t-122.5 -55.5q-59 0 -93 34t-34 85q0 59 50 88l6 -8q-14 -12 -25.5 -34t-11.5 -46q0 -41 30.5 -67.5t77.5 -26.5q61 0 103.5 52t42.5 120q0 72 -38 131t-101.5 94 t-137.5 35q-127 0 -222 -61.5t-145 -159t-50 -203.5q0 -133 63.5 -235.5t169 -158t227.5 -55.5q229 0 353.5 171t167.5 393.5t67 535.5q2 55 10 133q27 289 92.5 476.5t181.5 292t296 139.5h-762q-135 0 -243.5 -61.5t-171 -162t-62.5 -215.5q0 -98 40 -179t108.5 -127 t152.5 -46q94 0 160.5 54.5t66.5 144.5q0 66 -39 113.5t-96 47.5q-47 0 -80 -27.5t-33 -66.5q0 -25 11.5 -46t25.5 -34l-6 -8q-49 29 -49 88q0 51 36 85t95 34q68 0 114 -51t46 -135q0 -100 -74 -162t-178 -62q-90 0 -165 47.5t-120 133.5t-45 196q0 127 66.5 234.5 t182.5 170t257 62.5h1380v-16q-88 0 -137 -63.5t-49 -161.5v-1342q0 -98 49 -161.5t137 -63.5v-17h-602v17q88 0 137.5 63.5t49.5 161.5v733h-535l-4 -49q-23 -266 -109 -561t-265 -514t-458 -219q-129 0 -240.5 56t-180 163.5t-68.5 253.5zM1409 809h533v788 q-221 -2 -326 -81.5t-142.5 -232.5t-64.5 -474zM1493 2038q0 20 12 39q25 35 64 34q29 0 61 -20q49 -32 125 -104q14 -12 74.5 -66.5t144.5 -118.5l-14 -26q-111 55 -264 116q-104 39 -148 66q-55 35 -55 80z" />
<glyph unicode="&#xc1;" horiz-adv-x="2390" d="M82 -90q0 125 55.5 227.5t156.5 161.5t234 59q90 0 160 -38.5t108 -104t38 -141.5q0 -86 -52.5 -141.5t-122.5 -55.5q-59 0 -93 34t-34 85q0 59 50 88l6 -8q-14 -12 -25.5 -34t-11.5 -46q0 -41 30.5 -67.5t77.5 -26.5q61 0 103.5 52t42.5 120q0 72 -38 131t-101.5 94 t-137.5 35q-127 0 -222 -61.5t-145 -159t-50 -203.5q0 -133 63.5 -235.5t169 -158t227.5 -55.5q229 0 353.5 171t167.5 393.5t67 535.5q2 55 10 133q27 289 92.5 476.5t181.5 292t296 139.5h-762q-135 0 -243.5 -61.5t-171 -162t-62.5 -215.5q0 -98 40 -179t108.5 -127 t152.5 -46q94 0 160.5 54.5t66.5 144.5q0 66 -39 113.5t-96 47.5q-47 0 -80 -27.5t-33 -66.5q0 -25 11.5 -46t25.5 -34l-6 -8q-49 29 -49 88q0 51 36 85t95 34q68 0 114 -51t46 -135q0 -100 -74 -162t-178 -62q-90 0 -165 47.5t-120 133.5t-45 196q0 127 66.5 234.5 t182.5 170t257 62.5h1380v-16q-88 0 -137 -63.5t-49 -161.5v-1342q0 -98 49 -161.5t137 -63.5v-17h-602v17q88 0 137.5 63.5t49.5 161.5v733h-535l-4 -49q-23 -266 -109 -561t-265 -514t-458 -219q-129 0 -240.5 56t-180 163.5t-68.5 253.5zM1409 809h533v788 q-221 -2 -326 -81.5t-142.5 -232.5t-64.5 -474zM1505 1800q84 63 144.5 117.5t74.5 67.5q76 72 125 104q33 20 62 20q39 0 63 -34q12 -18 13 -39q0 -45 -56 -80q-43 -27 -147 -66q-154 -61 -264 -116z" />
<glyph unicode="&#xc2;" horiz-adv-x="2402" d="M82 -90q0 125 55.5 227.5t156.5 161.5t234 59q90 0 160 -38.5t108 -104t38 -141.5q0 -86 -52.5 -141.5t-122.5 -55.5q-59 0 -93 34t-34 85q0 59 50 88l6 -8q-14 -12 -25.5 -34t-11.5 -46q0 -41 30.5 -67.5t77.5 -26.5q61 0 103.5 52t42.5 120q0 72 -38 131t-101.5 94 t-137.5 35q-127 0 -222 -61.5t-145 -159t-50 -203.5q0 -133 63.5 -235.5t169 -158t227.5 -55.5q229 0 353.5 171t167.5 393.5t67 535.5q2 55 10 133q27 289 92.5 476.5t181.5 292t296 139.5h-762q-135 0 -243.5 -61.5t-171 -162t-62.5 -215.5q0 -98 40 -179t108.5 -127 t152.5 -46q94 0 160.5 54.5t66.5 144.5q0 66 -39 113.5t-96 47.5q-47 0 -80 -27.5t-33 -66.5q0 -25 11.5 -46t25.5 -34l-6 -8q-49 29 -49 88q0 51 36 85t95 34q68 0 114 -51t46 -135q0 -100 -74 -162t-178 -62q-90 0 -165 47.5t-120 133.5t-45 196q0 127 66.5 234.5 t182.5 170t257 62.5h1380v-16q-88 0 -137 -63.5t-49 -161.5v-1342q0 -98 49 -161.5t137 -63.5v-17h-602v17q88 0 137.5 63.5t49.5 161.5v733h-535l-4 -49q-23 -266 -109 -561t-265 -514t-458 -219q-129 0 -240.5 56t-180 163.5t-68.5 253.5zM1276 1784q131 45 232.5 117.5 t150.5 152.5h37q49 -80 150.5 -152.5t232.5 -117.5l-11 -29q-123 27 -242.5 66t-189.5 77q-57 -39 -154.5 -77.5t-195.5 -65.5zM1409 809h533v788q-221 -2 -326 -81.5t-142.5 -232.5t-64.5 -474z" />
<glyph unicode="&#xc3;" horiz-adv-x="2396" d="M82 -90q0 125 55.5 227.5t156.5 161.5t234 59q90 0 160 -38.5t108 -104t38 -141.5q0 -86 -52.5 -141.5t-122.5 -55.5q-59 0 -93 34t-34 85q0 59 50 88l6 -8q-14 -12 -25.5 -34t-11.5 -46q0 -41 30.5 -67.5t77.5 -26.5q61 0 103.5 52t42.5 120q0 72 -38 131t-101.5 94 t-137.5 35q-127 0 -222 -61.5t-145 -159t-50 -203.5q0 -133 63.5 -235.5t169 -158t227.5 -55.5q229 0 353.5 171t167.5 393.5t67 535.5q2 55 10 133q27 289 92.5 476.5t181.5 292t296 139.5h-762q-135 0 -243.5 -61.5t-171 -162t-62.5 -215.5q0 -98 40 -179t108.5 -127 t152.5 -46q94 0 160.5 54.5t66.5 144.5q0 66 -39 113.5t-96 47.5q-47 0 -80 -27.5t-33 -66.5q0 -25 11.5 -46t25.5 -34l-6 -8q-49 29 -49 88q0 51 36 85t95 34q68 0 114 -51t46 -135q0 -100 -74 -162t-178 -62q-90 0 -165 47.5t-120 133.5t-45 196q0 127 66.5 234.5 t182.5 170t257 62.5h1380v-16q-88 0 -137 -63.5t-49 -161.5v-1342q0 -98 49 -161.5t137 -63.5v-17h-602v17q88 0 137.5 63.5t49.5 161.5v733h-535l-4 -49q-23 -266 -109 -561t-265 -514t-458 -219q-129 0 -240.5 56t-180 163.5t-68.5 253.5zM1315 1829q8 98 73.5 157.5 t153.5 59.5q51 0 96 -20.5t109 -61.5q72 -41 109.5 -58.5t82.5 -17.5q94 0 127 115l31 -6q-8 -98 -73.5 -157.5t-153.5 -59.5q-51 0 -96 20.5t-109 61.5q-72 41 -109.5 58t-82.5 17q-47 0 -78 -25.5t-49 -88.5zM1409 809h533v788q-221 -2 -326 -81.5t-142.5 -232.5 t-64.5 -474z" />
<glyph unicode="&#xc4;" horiz-adv-x="2396" d="M82 -90q0 125 55.5 227.5t156.5 161.5t234 59q90 0 160 -38.5t108 -104t38 -141.5q0 -86 -52.5 -141.5t-122.5 -55.5q-59 0 -93 34t-34 85q0 59 50 88l6 -8q-14 -12 -25.5 -34t-11.5 -46q0 -41 30.5 -67.5t77.5 -26.5q61 0 103.5 52t42.5 120q0 72 -38 131t-101.5 94 t-137.5 35q-127 0 -222 -61.5t-145 -159t-50 -203.5q0 -133 63.5 -235.5t169 -158t227.5 -55.5q229 0 353.5 171t167.5 393.5t67 535.5q2 55 10 133q27 289 92.5 476.5t181.5 292t296 139.5h-762q-135 0 -243.5 -61.5t-171 -162t-62.5 -215.5q0 -98 40 -179t108.5 -127 t152.5 -46q94 0 160.5 54.5t66.5 144.5q0 66 -39 113.5t-96 47.5q-47 0 -80 -27.5t-33 -66.5q0 -25 11.5 -46t25.5 -34l-6 -8q-49 29 -49 88q0 51 36 85t95 34q68 0 114 -51t46 -135q0 -100 -74 -162t-178 -62q-90 0 -165 47.5t-120 133.5t-45 196q0 127 66.5 234.5 t182.5 170t257 62.5h1380v-16q-88 0 -137 -63.5t-49 -161.5v-1342q0 -98 49 -161.5t137 -63.5v-17h-602v17q88 0 137.5 63.5t49.5 161.5v733h-535l-4 -49q-23 -266 -109 -561t-265 -514t-458 -219q-129 0 -240.5 56t-180 163.5t-68.5 253.5zM1393 1884q0 47 34.5 83t83.5 36 q48 0 83.5 -36t35.5 -83q0 -49 -35.5 -84t-83.5 -35q-49 0 -83.5 35t-34.5 84zM1409 809h533v788q-221 -2 -326 -81.5t-142.5 -232.5t-64.5 -474zM1827 1884q0 47 34.5 83t84.5 36q47 0 82.5 -36t35.5 -83q0 -49 -35.5 -84t-82.5 -35q-49 0 -84 35t-35 84z" />
<glyph unicode="&#xc5;" horiz-adv-x="2402" d="M82 -90q0 125 55.5 227.5t156.5 161.5t234 59q90 0 160 -38.5t108 -104t38 -141.5q0 -86 -52.5 -141.5t-122.5 -55.5q-59 0 -93 34t-34 85q0 59 50 88l6 -8q-14 -12 -25.5 -34t-11.5 -46q0 -41 30.5 -67.5t77.5 -26.5q61 0 103.5 52t42.5 120q0 72 -38 131t-101.5 94 t-137.5 35q-127 0 -222 -61.5t-145 -159t-50 -203.5q0 -133 63.5 -235.5t169 -158t227.5 -55.5q229 0 353.5 171t167.5 393.5t67 535.5q2 55 10 133q27 289 92.5 476.5t181.5 292t296 139.5h-762q-135 0 -243.5 -61.5t-171 -162t-62.5 -215.5q0 -98 40 -179t108.5 -127 t152.5 -46q94 0 160.5 54.5t66.5 144.5q0 66 -39 113.5t-96 47.5q-47 0 -80 -27.5t-33 -66.5q0 -25 11.5 -46t25.5 -34l-6 -8q-49 29 -49 88q0 51 36 85t95 34q68 0 114 -51t46 -135q0 -100 -74 -162t-178 -62q-90 0 -165 47.5t-120 133.5t-45 196q0 127 66.5 234.5 t182.5 170t257 62.5h1380v-16q-88 0 -137 -63.5t-49 -161.5v-1342q0 -98 49 -161.5t137 -63.5v-17h-602v17q88 0 137.5 63.5t49.5 161.5v733h-535l-4 -49q-23 -266 -109 -561t-265 -514t-458 -219q-129 0 -240.5 56t-180 163.5t-68.5 253.5zM1409 809h533v788 q-221 -2 -326 -81.5t-142.5 -232.5t-64.5 -474zM1626 1956q0 84 57.5 135t139.5 51t140 -51t58 -135t-58 -136.5t-140 -52.5t-139.5 52.5t-57.5 136.5zM1683 1954q0 -68 42 -106t98 -38q55 0 98 38t43 106t-43 106.5t-98 38.5q-54 0 -97 -40t-43 -105z" />
<glyph unicode="&#xc6;" horiz-adv-x="3104" d="M82 -90q0 125 55.5 227.5t156.5 161.5t234 59q90 0 160 -38.5t108 -104t38 -141.5q0 -86 -52.5 -141.5t-122.5 -55.5q-59 0 -93 34t-34 85q0 59 50 88l6 -8q-14 -12 -25.5 -34t-11.5 -46q0 -41 30.5 -67.5t77.5 -26.5q61 0 103.5 52t42.5 120q0 72 -38 131t-101.5 94 t-137.5 35q-127 0 -222 -61.5t-145 -159t-50 -203.5q0 -131 68.5 -233.5t175 -159t216.5 -56.5q229 0 353.5 171t167.5 393.5t67 535.5q2 55 10 133q27 289 92.5 476.5t181.5 292t296 139.5h-762q-135 0 -243.5 -61.5t-171 -162t-62.5 -215.5q0 -98 40 -179t108.5 -127 t152.5 -46q94 0 160.5 54.5t66.5 144.5q0 66 -39 113.5t-96 47.5q-47 0 -80 -27.5t-33 -66.5q0 -25 11.5 -46t25.5 -34l-6 -8q-49 29 -49 88q0 51 36 85t95 34q68 0 114 -51t46 -135q0 -100 -74 -162t-178 -62q-90 0 -165 47.5t-120 133.5t-45 196q0 127 66.5 234.5 t182.5 170t257 62.5h1976l21 -241h-17q-33 74 -68.5 118.5t-97 69.5t-161.5 25h-392q-74 0 -107.5 -53.5t-33.5 -135.5v-604h348q98 0 162 49t64 137h16v-401h-16q0 88 -63.5 137t-162.5 49h-348v-757q0 -82 34 -135.5t107 -53.5h441q147 0 224 52.5t124 160.5h16l-41 -242 h-1321v17q88 0 137.5 63.5t49.5 161.5v733h-461l-4 -49q-23 -266 -109 -561t-265 -514t-458 -219q-129 0 -240.5 56t-180 163.5t-68.5 253.5zM1409 809h459v784q-186 -14 -276.5 -98t-124 -233.5t-58.5 -452.5z" />
<glyph unicode="&#xc7;" horiz-adv-x="1808" d="M82 743q0 256 128 470t349 340t483 126q127 0 223.5 -27.5t200.5 -72.5q35 -16 65 -27.5t50 -11.5q29 0 48.5 18.5t19.5 45.5h20v-480q0 -152 -60.5 -264t-164 -173.5t-232.5 -61.5q-111 0 -190.5 44t-120.5 117.5t-41 161.5q0 68 32 129.5t88 99t126 37.5q80 0 134 -48 t54 -115q0 -59 -33.5 -93t-84.5 -34q-59 0 -89 49l9 6q12 -14 33.5 -25.5t46.5 -11.5q41 0 67.5 31t26.5 78q0 61 -48 100t-116 39q-59 0 -109.5 -35t-79 -91t-28.5 -116q0 -131 88 -215t235 -84q115 0 212.5 57.5t154.5 162t57 235.5q0 127 -68.5 253t-202.5 210t-323 84 q-176 0 -338.5 -118t-263 -326t-100.5 -464q0 -254 100.5 -474t267 -352t359.5 -132q172 0 308 69.5t211 190.5t75 270h6q35 0 52.5 -31.5t17.5 -72.5q0 -121 -98.5 -226.5t-255 -167t-316.5 -61.5q-285 0 -509 124t-350 349.5t-126 513.5zM846 -592l8 37q43 -6 78 -6 q74 0 129 21.5t55 70.5q0 57 -86 57q-57 0 -100 -14l69 207h56l-54 -158q61 14 121 15q57 0 91 -26t34 -71q0 -78 -71.5 -116.5t-159.5 -38.5q-102 0 -170 22z" />
<glyph unicode="&#xc8;" horiz-adv-x="2095" d="M82 1163q0 127 66.5 234.5t182 170t257.5 62.5h1366l20 -241h-16q-33 74 -69 118.5t-97 69.5t-162 25h-547v-723h363q98 0 161.5 49t63.5 137h17v-401h-17q0 88 -63.5 137t-161.5 49h-363v-827q0 -82 34 -135.5t108 -53.5h454q147 0 224 52.5t125 160.5h16l-41 -242 h-1335v17q88 0 137 63.5t49 161.5v1288q0 121 -68.5 194t-197.5 73q-135 0 -243.5 -61.5t-171 -162t-62.5 -215.5q0 -98 39.5 -179t108.5 -127t153 -46q92 0 156.5 54.5t64.5 144.5q0 66 -38 113.5t-95 47.5q-47 0 -78 -26.5t-31 -67.5q0 -25 11.5 -46t25.5 -34l-6 -8 q-49 29 -49 88q0 51 33.5 85t93.5 34q66 0 111.5 -51t45.5 -135q0 -100 -71.5 -162t-173.5 -62q-90 0 -165 47.5t-120 133.5t-45 196zM997 2015q0 20 13 39q25 35 63 35q29 0 62 -21q49 -32 125 -104q14 -12 74.5 -66.5t144.5 -117.5l-15 -27q-111 55 -264 117 q-104 39 -147 65q-55 35 -56 80z" />
<glyph unicode="&#xc9;" horiz-adv-x="2117" d="M82 1163q0 127 66.5 234.5t182 170t257.5 62.5h1366l20 -241h-16q-33 74 -69 118.5t-97 69.5t-162 25h-547v-723h363q98 0 161.5 49t63.5 137h17v-401h-17q0 88 -63.5 137t-161.5 49h-363v-827q0 -82 34 -135.5t108 -53.5h454q147 0 224 52.5t125 160.5h16l-41 -242 h-1335v17q88 0 137 63.5t49 161.5v1288q0 121 -68.5 194t-197.5 73q-135 0 -243.5 -61.5t-171 -162t-62.5 -215.5q0 -98 39.5 -179t108.5 -127t153 -46q92 0 156.5 54.5t64.5 144.5q0 66 -38 113.5t-95 47.5q-47 0 -78 -26.5t-31 -67.5q0 -25 11.5 -46t25.5 -34l-6 -8 q-49 29 -49 88q0 51 33.5 85t93.5 34q66 0 111.5 -51t45.5 -135q0 -100 -71.5 -162t-173.5 -62q-90 0 -165 47.5t-120 133.5t-45 196zM1176 1780q84 63 144 117.5t75 66.5q76 72 125 104q32 21 61 21q39 0 64 -35q12 -18 12 -39q0 -45 -55 -80q-43 -27 -148 -65 q-154 -61 -264 -117z" />
<glyph unicode="&#xca;" horiz-adv-x="2101" d="M82 1163q0 127 66.5 234.5t182 170t257.5 62.5h1366l20 -241h-16q-33 74 -69 118.5t-97 69.5t-162 25h-547v-723h363q98 0 161.5 49t63.5 137h17v-401h-17q0 88 -63.5 137t-161.5 49h-363v-827q0 -82 34 -135.5t108 -53.5h454q147 0 224 52.5t125 160.5h16l-41 -242 h-1335v17q88 0 137 63.5t49 161.5v1288q0 121 -68.5 194t-197.5 73q-135 0 -243.5 -61.5t-171 -162t-62.5 -215.5q0 -98 39.5 -179t108.5 -127t153 -46q92 0 156.5 54.5t64.5 144.5q0 66 -38 113.5t-95 47.5q-47 0 -78 -26.5t-31 -67.5q0 -25 11.5 -46t25.5 -34l-6 -8 q-49 29 -49 88q0 51 33.5 85t93.5 34q66 0 111.5 -51t45.5 -135q0 -100 -71.5 -162t-173.5 -62q-90 0 -165 47.5t-120 133.5t-45 196zM915 1792q131 45 232.5 117.5t150.5 152.5h37q49 -80 150.5 -152.5t232.5 -117.5l-10 -29q-123 27 -242.5 66t-189.5 78 q-57 -39 -154.5 -78t-195.5 -66z" />
<glyph unicode="&#xcb;" horiz-adv-x="2107" d="M82 1163q0 127 66.5 234.5t182 170t257.5 62.5h1366l20 -241h-16q-33 74 -69 118.5t-97 69.5t-162 25h-547v-723h363q98 0 161.5 49t63.5 137h17v-401h-17q0 88 -63.5 137t-161.5 49h-363v-827q0 -82 34 -135.5t108 -53.5h454q147 0 224 52.5t125 160.5h16l-41 -242 h-1335v17q88 0 137 63.5t49 161.5v1288q0 121 -68.5 194t-197.5 73q-135 0 -243.5 -61.5t-171 -162t-62.5 -215.5q0 -98 39.5 -179t108.5 -127t153 -46q92 0 156.5 54.5t64.5 144.5q0 66 -38 113.5t-95 47.5q-47 0 -78 -26.5t-31 -67.5q0 -25 11.5 -46t25.5 -34l-6 -8 q-49 29 -49 88q0 51 33.5 85t93.5 34q66 0 111.5 -51t45.5 -135q0 -100 -71.5 -162t-173.5 -62q-90 0 -165 47.5t-120 133.5t-45 196zM1036 1884q0 47 35 83t84 36q47 0 83 -36t36 -83q0 -49 -36 -84t-83 -35q-49 0 -84 35t-35 84zM1470 1884q0 47 35 83t84 36q47 0 83 -36 t36 -83q0 -49 -36 -84t-83 -35q-49 0 -84 35t-35 84z" />
<glyph unicode="&#xcc;" horiz-adv-x="1312" d="M82 1163q0 127 66.5 234.5t182 170t257.5 62.5h682v-16q-88 0 -137.5 -63.5t-49.5 -161.5v-1342q0 -98 49.5 -161.5t137.5 -63.5v-17h-602v17q88 0 137 63.5t49 161.5v1288q0 121 -68.5 194t-197.5 73q-135 0 -243.5 -61.5t-171 -162t-62.5 -215.5q0 -98 39.5 -179 t108.5 -127t153 -46q92 0 156.5 54.5t64.5 144.5q0 66 -38 113.5t-95 47.5q-47 0 -78 -26.5t-31 -67.5q0 -25 11.5 -46t25.5 -34l-6 -8q-49 29 -49 88q0 51 33.5 85t93.5 34q66 0 111.5 -51t45.5 -135q0 -100 -71.5 -162t-173.5 -62q-90 0 -165 47.5t-120 133.5t-45 196z M590 2025q0 20 12 39q25 35 64 35q29 0 61 -20q49 -33 125 -105q14 -12 74.5 -66.5t144.5 -117.5l-14 -27q-111 55 -264 117q-104 39 -148 66q-55 35 -55 79z" />
<glyph unicode="&#xcd;" horiz-adv-x="1312" d="M82 1163q0 127 66.5 234.5t182 170t257.5 62.5h682v-16q-88 0 -137.5 -63.5t-49.5 -161.5v-1342q0 -98 49.5 -161.5t137.5 -63.5v-17h-602v17q88 0 137 63.5t49 161.5v1288q0 121 -68.5 194t-197.5 73q-135 0 -243.5 -61.5t-171 -162t-62.5 -215.5q0 -98 39.5 -179 t108.5 -127t153 -46q92 0 156.5 54.5t64.5 144.5q0 66 -38 113.5t-95 47.5q-47 0 -78 -26.5t-31 -67.5q0 -25 11.5 -46t25.5 -34l-6 -8q-49 29 -49 88q0 51 33.5 85t93.5 34q66 0 111.5 -51t45.5 -135q0 -100 -71.5 -162t-173.5 -62q-90 0 -165 47.5t-120 133.5t-45 196z M831 1790q84 63 144.5 117.5t75.5 66.5q76 72 125 105q32 20 61 20q39 0 63 -35q12 -18 13 -39q0 -45 -56 -79q-43 -27 -147 -66q-154 -61 -264 -117z" />
<glyph unicode="&#xce;" horiz-adv-x="1312" d="M82 1163q0 127 66.5 234.5t182 170t257.5 62.5h682v-16q-88 0 -137.5 -63.5t-49.5 -161.5v-1342q0 -98 49.5 -161.5t137.5 -63.5v-17h-602v17q88 0 137 63.5t49 161.5v1288q0 121 -68.5 194t-197.5 73q-135 0 -243.5 -61.5t-171 -162t-62.5 -215.5q0 -98 39.5 -179 t108.5 -127t153 -46q92 0 156.5 54.5t64.5 144.5q0 66 -38 113.5t-95 47.5q-47 0 -78 -26.5t-31 -67.5q0 -25 11.5 -46t25.5 -34l-6 -8q-49 29 -49 88q0 51 33.5 85t93.5 34q66 0 111.5 -51t45.5 -135q0 -100 -71.5 -162t-173.5 -62q-90 0 -165 47.5t-120 133.5t-45 196z M457 1788q131 45 232.5 117.5t150.5 152.5h37q49 -80 150 -152.5t233 -117.5l-11 -29q-123 27 -242.5 66t-189.5 78q-57 -39 -154.5 -78t-195.5 -66z" />
<glyph unicode="&#xcf;" horiz-adv-x="1306" d="M82 1163q0 127 66.5 234.5t182 170t257.5 62.5h682v-16q-88 0 -137.5 -63.5t-49.5 -161.5v-1342q0 -98 49.5 -161.5t137.5 -63.5v-17h-602v17q88 0 137 63.5t49 161.5v1288q0 121 -68.5 194t-197.5 73q-135 0 -243.5 -61.5t-171 -162t-62.5 -215.5q0 -98 39.5 -179 t108.5 -127t153 -46q92 0 156.5 54.5t64.5 144.5q0 66 -38 113.5t-95 47.5q-47 0 -78 -26.5t-31 -67.5q0 -25 11.5 -46t25.5 -34l-6 -8q-49 29 -49 88q0 51 33.5 85t93.5 34q66 0 111.5 -51t45.5 -135q0 -100 -71.5 -162t-173.5 -62q-90 0 -165 47.5t-120 133.5t-45 196z M586 1866q0 47 34.5 83t84.5 36q47 0 82.5 -36t35.5 -83q0 -49 -35.5 -84t-82.5 -35q-49 0 -84 35t-35 84zM1020 1866q0 47 35 83t84 36q47 0 82.5 -36t35.5 -83q0 -49 -35.5 -84t-82.5 -35q-49 0 -84 35t-35 84z" />
<glyph unicode="&#xd0;" horiz-adv-x="2570" d="M82 1163q0 127 66.5 234.5t182 170t257.5 62.5h1026q229 0 436 -120.5t333 -330.5t126 -460q0 -287 -131 -506t-341 -338t-440 -119q-184 0 -322 83t-192 229v-58q0 -100 -52 -152.5t-152 -52.5h-211v17q88 0 137 63.5t49 161.5v1288q0 121 -68.5 194t-197.5 73 q-135 0 -243.5 -61.5t-171 -162t-62.5 -215.5q0 -98 39.5 -179t108.5 -127t153 -46q92 0 156.5 54.5t64.5 144.5q0 66 -38 113.5t-95 47.5q-47 0 -78 -26.5t-31 -67.5q0 -25 11.5 -46t25.5 -34l-6 -8q-49 29 -49 88q0 51 33.5 85t93.5 34q66 0 111.5 -51t45.5 -135 q0 -100 -71.5 -162t-173.5 -62q-90 0 -165 47.5t-120 133.5t-45 196zM543 713v41h725v-41h-725zM1083 236q0 -119 65.5 -222.5t183.5 -166t265 -62.5q201 0 348.5 105.5t227.5 308t80 489.5q0 250 -81 457t-252 332t-429 125h-408v-1201q43 109 133.5 168.5t200.5 59.5 q111 0 185.5 -63.5t74.5 -172.5q0 -86 -52 -141t-122 -55q-59 0 -93 33.5t-34 84.5q0 59 49 88l7 -8q-14 -12 -25.5 -33.5t-11.5 -46.5q0 -41 30.5 -67.5t77.5 -26.5q61 0 103.5 52.5t42.5 119.5q0 92 -68 151.5t-164 59.5q-90 0 -166.5 -48t-122 -132t-45.5 -188z" />
<glyph unicode="&#xd1;" horiz-adv-x="2449" d="M82 -90q0 125 52 227.5t150.5 161.5t231.5 59q90 0 159.5 -38.5t107.5 -104t38 -141.5q0 -84 -50 -140.5t-124 -56.5q-59 0 -93 34t-34 85q0 59 49 88l6 -8q-14 -12 -25 -34t-11 -46q0 -41 30.5 -67.5t77.5 -26.5q66 0 106 51t40 121q0 72 -38 131t-101.5 94t-137.5 35 q-127 0 -218 -61.5t-139 -159t-48 -203.5q0 -133 65.5 -235.5t169 -158t213.5 -55.5q213 0 349 151.5t136 461.5v1261q0 121 -68.5 194t-197.5 73q-135 0 -243.5 -61.5t-171 -162t-62.5 -215.5q0 -98 40 -179t108.5 -127t152.5 -46q92 0 156.5 54.5t64.5 144.5 q0 66 -37.5 113.5t-95.5 47.5q-47 0 -77.5 -26.5t-30.5 -67.5q0 -25 11 -46t25 -34l-6 -8q-49 29 -49 88q0 51 34 85t93 34q66 0 112 -51t46 -135q0 -100 -71.5 -162t-174.5 -62q-90 0 -165 47.5t-120 133.5t-45 196q0 127 67 234.5t182.5 170t256.5 62.5h439l974 -1429 v1188q0 98 -49 161.5t-137 63.5v16h405v-16q-88 0 -137 -63.5t-49 -161.5v-1604h-47l-1100 1614v-1317q0 -305 -133 -475t-385 -170q-127 0 -236.5 60.5t-175 168t-65.5 244.5zM1286 1815q8 98 73.5 157.5t153.5 59.5q52 0 97 -20.5t108 -61.5q72 -41 110 -58.5t83 -17.5 q94 0 127 115l30 -7q-8 -98 -73.5 -157.5t-153.5 -59.5q-51 0 -96 20.5t-109 61.5q-72 41 -109.5 58.5t-82.5 17.5q-47 0 -78 -25.5t-49 -89.5z" />
<glyph unicode="&#xd2;" horiz-adv-x="2050" d="M61 723q0 264 118 482t338 346t515 128t515 -128t338 -346t118 -482t-118 -485.5t-338 -351.5t-515 -130t-515 130t-338 351.5t-118 485.5zM307 723q0 -242 85 -458t249 -348t391 -132q228 0 391.5 132t248.5 348t85 458t-85 455t-248.5 343t-391.5 130h-2 q-156 0 -273.5 -78t-181 -206t-63.5 -273q0 -123 51 -226.5t140.5 -163t195.5 -59.5q115 0 195 70.5t80 185.5q0 80 -49.5 141.5t-120.5 61.5q-59 0 -98.5 -34t-39.5 -85q0 -31 14.5 -57.5t32.5 -42.5l-8 -11q-61 37 -61 111q0 63 42 103t118 40q84 0 141 -61t57 -166 q0 -127 -87 -203.5t-216 -76.5q-113 0 -208 59t-151.5 166.5t-56.5 247.5q0 115 35 218t100 181l-4 4q-147 -125 -227 -333t-80 -441zM774 2025q0 20 12 39q25 35 64 35q29 0 61 -20q49 -33 125 -105q14 -12 74.5 -66.5t144.5 -117.5l-14 -27q-111 55 -264 117 q-104 39 -148 66q-55 35 -55 79z" />
<glyph unicode="&#xd3;" horiz-adv-x="2033" d="M61 723q0 264 118 482t338 346t515 128t515 -128t338 -346t118 -482t-118 -485.5t-338 -351.5t-515 -130t-515 130t-338 351.5t-118 485.5zM307 723q0 -242 85 -458t249 -348t391 -132q228 0 391.5 132t248.5 348t85 458t-85 455t-248.5 343t-391.5 130h-2 q-156 0 -273.5 -78t-181 -206t-63.5 -273q0 -123 51 -226.5t140.5 -163t195.5 -59.5q115 0 195 70.5t80 185.5q0 80 -49.5 141.5t-120.5 61.5q-59 0 -98.5 -34t-39.5 -85q0 -31 14.5 -57.5t32.5 -42.5l-8 -11q-61 37 -61 111q0 63 42 103t118 40q84 0 141 -61t57 -166 q0 -127 -87 -203.5t-216 -76.5q-113 0 -208 59t-151.5 166.5t-56.5 247.5q0 115 35 218t100 181l-4 4q-147 -125 -227 -333t-80 -441zM842 1784q84 63 144.5 117.5t74.5 66.5q76 72 125 105q32 20 61 20q39 0 64 -35q12 -18 12 -39q0 -45 -55 -80q-43 -27 -148 -65 q-154 -61 -264 -117z" />
<glyph unicode="&#xd4;" horiz-adv-x="2045" d="M61 723q0 264 118 482t338 346t515 128t515 -128t338 -346t118 -482t-118 -485.5t-338 -351.5t-515 -130t-515 130t-338 351.5t-118 485.5zM307 723q0 -242 85 -458t249 -348t391 -132q228 0 391.5 132t248.5 348t85 458t-85 455t-248.5 343t-391.5 130h-2 q-156 0 -273.5 -78t-181 -206t-63.5 -273q0 -123 51 -226.5t140.5 -163t195.5 -59.5q115 0 195 70.5t80 185.5q0 80 -49.5 141.5t-120.5 61.5q-59 0 -98.5 -34t-39.5 -85q0 -31 14.5 -57.5t32.5 -42.5l-8 -11q-61 37 -61 111q0 63 42 103t118 40q84 0 141 -61t57 -166 q0 -127 -87 -203.5t-216 -76.5q-113 0 -208 59t-151.5 166.5t-56.5 247.5q0 115 35 218t100 181l-4 4q-147 -125 -227 -333t-80 -441zM719 1794q131 45 232.5 118t150.5 152h37q49 -79 150.5 -152t232.5 -118l-11 -29q-123 27 -242.5 66t-189.5 78q-57 -39 -154.5 -78 t-195.5 -66z" />
<glyph unicode="&#xd5;" horiz-adv-x="2056" d="M61 723q0 264 118 482t338 346t515 128t515 -128t338 -346t118 -482t-118 -485.5t-338 -351.5t-515 -130t-515 130t-338 351.5t-118 485.5zM307 723q0 -242 85 -458t249 -348t391 -132q228 0 391.5 132t248.5 348t85 458t-85 455t-248.5 343t-391.5 130h-2 q-156 0 -273.5 -78t-181 -206t-63.5 -273q0 -123 51 -226.5t140.5 -163t195.5 -59.5q115 0 195 70.5t80 185.5q0 80 -49.5 141.5t-120.5 61.5q-59 0 -98.5 -34t-39.5 -85q0 -31 14.5 -57.5t32.5 -42.5l-8 -11q-61 37 -61 111q0 63 42 103t118 40q84 0 141 -61t57 -166 q0 -127 -87 -203.5t-216 -76.5q-113 0 -208 59t-151.5 166.5t-56.5 247.5q0 115 35 218t100 181l-4 4q-147 -125 -227 -333t-80 -441zM676 1839q8 98 73.5 157.5t153.5 59.5q51 0 96 -20.5t109 -61.5q72 -41 109.5 -58.5t82.5 -17.5q94 0 127 115l31 -6q-8 -98 -73.5 -157.5 t-153.5 -59.5q-51 0 -96 20.5t-109 61.5q-72 41 -109.5 58.5t-82.5 17.5q-47 0 -78 -26t-49 -89z" />
<glyph unicode="&#xd6;" horiz-adv-x="2050" d="M61 723q0 264 118 482t338 346t515 128t515 -128t338 -346t118 -482t-118 -485.5t-338 -351.5t-515 -130t-515 130t-338 351.5t-118 485.5zM307 723q0 -242 85 -458t249 -348t391 -132q228 0 391.5 132t248.5 348t85 458t-85 455t-248.5 343t-391.5 130h-2 q-156 0 -273.5 -78t-181 -206t-63.5 -273q0 -123 51 -226.5t140.5 -163t195.5 -59.5q115 0 195 70.5t80 185.5q0 80 -49.5 141.5t-120.5 61.5q-59 0 -98.5 -34t-39.5 -85q0 -31 14.5 -57.5t32.5 -42.5l-8 -11q-61 37 -61 111q0 63 42 103t118 40q84 0 141 -61t57 -166 q0 -127 -87 -203.5t-216 -76.5q-113 0 -208 59t-151.5 166.5t-56.5 247.5q0 115 35 218t100 181l-4 4q-147 -125 -227 -333t-80 -441zM676 1917q0 47 34.5 83t84.5 36q47 0 82.5 -36t35.5 -83q0 -49 -35.5 -84t-82.5 -35q-49 0 -84 35t-35 84zM1110 1917q0 47 35 83t84 36 q47 0 83 -36t36 -83q0 -49 -36 -84t-83 -35q-49 0 -84 35t-35 84z" />
<glyph unicode="&#xd7;" horiz-adv-x="1044" d="M121 1085l45 45l358 -358l355 354l45 -45l-355 -352l355 -354l-45 -45l-355 354l-356 -356l-45 45l356 354z" />
<glyph unicode="&#xd8;" horiz-adv-x="2064" d="M61 723q0 264 118 482t338 346t515 128q297 0 520 -131l84 131h35l-94 -145q203 -127 314.5 -341t111.5 -470q0 -264 -118 -485.5t-338 -351.5t-515 -130t-518 131l-84 -131h-37l96 148q-205 127 -316.5 344t-111.5 475zM307 723q0 -207 63.5 -397.5t180.5 -323.5 l942 1456q-188 193 -461 193q-227 0 -391 -130t-249 -343t-85 -455zM573 -20q188 -195 459 -195q228 0 391.5 132t248.5 348t85 458q0 205 -63.5 393.5t-180.5 319.5z" />
<glyph unicode="&#xd9;" horiz-adv-x="2238" d="M82 1163q0 127 66.5 234.5t182 170t257.5 62.5h661v-16q-86 0 -126 -58.5t-40 -146.5v-1077q0 -262 96.5 -402.5t317.5 -140.5q258 0 380 152.5t122 390.5v1077q0 88 -40 146.5t-126 58.5v16h365v-16q-86 0 -126 -58.5t-40 -146.5v-1057q0 -285 -133.5 -440.5 t-442.5 -155.5q-317 0 -459.5 160t-142.5 428v991q0 121 -68.5 194t-197.5 73q-135 0 -243.5 -61.5t-171 -162t-62.5 -215.5q0 -98 39.5 -179t108.5 -127t153 -46q92 0 156.5 54.5t64.5 144.5q0 66 -38 113.5t-95 47.5q-47 0 -78 -26.5t-31 -67.5q0 -25 11.5 -46t25.5 -34 l-6 -8q-49 29 -49 88q0 51 33.5 85t93.5 34q66 0 111.5 -51t45.5 -135q0 -100 -71.5 -162t-173.5 -62q-90 0 -165 47.5t-120 133.5t-45 196zM1196 2030q0 20 12 38q25 35 64 35q29 0 61 -20q49 -33 125 -105q14 -12 74.5 -66t144.5 -118l-14 -27q-111 55 -264 117 q-104 39 -148 66q-55 35 -55 80z" />
<glyph unicode="&#xda;" horiz-adv-x="2232" d="M82 1163q0 127 66.5 234.5t182 170t257.5 62.5h661v-16q-86 0 -126 -58.5t-40 -146.5v-1077q0 -262 96.5 -402.5t317.5 -140.5q258 0 380 152.5t122 390.5v1077q0 88 -40 146.5t-126 58.5v16h365v-16q-86 0 -126 -58.5t-40 -146.5v-1057q0 -285 -133.5 -440.5 t-442.5 -155.5q-317 0 -459.5 160t-142.5 428v991q0 121 -68.5 194t-197.5 73q-135 0 -243.5 -61.5t-171 -162t-62.5 -215.5q0 -98 39.5 -179t108.5 -127t153 -46q92 0 156.5 54.5t64.5 144.5q0 66 -38 113.5t-95 47.5q-47 0 -78 -26.5t-31 -67.5q0 -25 11.5 -46t25.5 -34 l-6 -8q-49 29 -49 88q0 51 33.5 85t93.5 34q66 0 111.5 -51t45.5 -135q0 -100 -71.5 -162t-173.5 -62q-90 0 -165 47.5t-120 133.5t-45 196zM1380 1784q84 63 144.5 117.5t74.5 66.5q76 72 125 105q33 20 62 20q39 0 63 -35q12 -18 13 -39q0 -45 -56 -80q-43 -27 -147 -65 q-154 -61 -264 -117z" />
<glyph unicode="&#xdb;" horiz-adv-x="2232" d="M82 1163q0 127 66.5 234.5t182 170t257.5 62.5h661v-16q-86 0 -126 -58.5t-40 -146.5v-1077q0 -262 96.5 -402.5t317.5 -140.5q258 0 380 152.5t122 390.5v1077q0 88 -40 146.5t-126 58.5v16h365v-16q-86 0 -126 -58.5t-40 -146.5v-1057q0 -285 -133.5 -440.5 t-442.5 -155.5q-317 0 -459.5 160t-142.5 428v991q0 121 -68.5 194t-197.5 73q-135 0 -243.5 -61.5t-171 -162t-62.5 -215.5q0 -98 39.5 -179t108.5 -127t153 -46q92 0 156.5 54.5t64.5 144.5q0 66 -38 113.5t-95 47.5q-47 0 -78 -26.5t-31 -67.5q0 -25 11.5 -46t25.5 -34 l-6 -8q-49 29 -49 88q0 51 33.5 85t93.5 34q66 0 111.5 -51t45.5 -135q0 -100 -71.5 -162t-173.5 -62q-90 0 -165 47.5t-120 133.5t-45 196zM1092 1806q131 45 232 118t151 153h36q50 -80 151 -153t232 -118l-10 -28q-123 27 -242.5 65.5t-189.5 77.5q-57 -39 -154.5 -78 t-195.5 -65z" />
<glyph unicode="&#xdc;" horiz-adv-x="2238" d="M82 1163q0 127 66.5 234.5t182 170t257.5 62.5h661v-16q-86 0 -126 -58.5t-40 -146.5v-1077q0 -262 96.5 -402.5t317.5 -140.5q258 0 380 152.5t122 390.5v1077q0 88 -40 146.5t-126 58.5v16h365v-16q-86 0 -126 -58.5t-40 -146.5v-1057q0 -285 -133.5 -440.5 t-442.5 -155.5q-317 0 -459.5 160t-142.5 428v991q0 121 -68.5 194t-197.5 73q-135 0 -243.5 -61.5t-171 -162t-62.5 -215.5q0 -98 39.5 -179t108.5 -127t153 -46q92 0 156.5 54.5t64.5 144.5q0 66 -38 113.5t-95 47.5q-47 0 -78 -26.5t-31 -67.5q0 -25 11.5 -46t25.5 -34 l-6 -8q-49 29 -49 88q0 51 33.5 85t93.5 34q66 0 111.5 -51t45.5 -135q0 -100 -71.5 -162t-173.5 -62q-90 0 -165 47.5t-120 133.5t-45 196zM1192 1905q0 47 35 82.5t84 35.5q47 0 83 -35.5t36 -82.5q0 -49 -36 -84t-83 -35q-49 0 -84 34.5t-35 84.5zM1626 1905 q0 47 35 82.5t84 35.5q47 0 83 -35.5t36 -82.5q0 -49 -36 -84t-83 -35q-49 0 -84 34.5t-35 84.5z" />
<glyph unicode="&#xdd;" horiz-adv-x="2174" d="M82 1163q0 127 61.5 234.5t172 170t251.5 62.5h617v-16q-106 0 -107 -80q0 -49 37 -117l365 -669h12l381 671q39 68 39 115q0 80 -107 80v16h373v-16q-72 0 -146.5 -55.5t-121.5 -139.5l-393 -694v-678q0 -98 49 -161.5t137 -63.5v-17h-602v17q88 0 137 63.5t49 161.5 v592l-412 733q-127 229 -307 230q-133 0 -237.5 -60.5t-161.5 -162t-57 -216.5q0 -98 39.5 -179t108.5 -127t153 -46q92 0 156.5 54.5t64.5 144.5q0 66 -38 113.5t-95 47.5q-47 0 -78 -26.5t-31 -67.5q0 -25 11.5 -46t25.5 -34l-6 -8q-49 29 -49 88q0 51 33.5 85t93.5 34 q66 0 111.5 -51t45.5 -135q0 -100 -71.5 -162t-173.5 -62q-90 0 -165 47.5t-120 133.5t-45 196zM1333 1800q84 63 144.5 117.5t74.5 67.5q76 72 125 104q33 20 62 20q39 0 63 -34q12 -18 13 -39q0 -45 -56 -80q-43 -27 -147 -66q-154 -61 -264 -116z" />
<glyph unicode="&#xde;" horiz-adv-x="1187" d="M86 0v41q74 4 107.5 16.5t46 47t12.5 112.5v1016q0 78 -12.5 112.5t-46 47t-107.5 16.5v41q86 -6 262 -6q164 0 260 6v-41q-74 -4 -107.5 -16.5t-46 -47t-12.5 -112.5v-92l189 4q160 0 271.5 -52.5t166.5 -142.5t55 -205q0 -117 -50 -221t-170 -172.5t-318 -68.5h-144 v-66q0 -78 12.5 -112.5t46.5 -47t107 -16.5v-41q-94 6 -260 6q-176 0 -262 -6zM442 324h123q201 0 278 110.5t77 298.5t-80 280.5t-260 92.5q-93 0 -138 -2v-780z" />
<glyph unicode="&#xdf;" horiz-adv-x="1196" d="M43 0v43q86 0 121 43t35 137v879q0 262 106.5 381t296.5 119q174 0 268.5 -78t94.5 -215q0 -98 -59.5 -185.5t-140.5 -149t-149 -87.5q133 -31 246 -104.5t180.5 -183.5t67.5 -241q0 -117 -51 -204.5t-136 -135t-184 -47.5q-94 0 -172 46t-78 130q0 49 29 80t78 31 q47 0 78 -26.5t31 -73.5q0 -80 -89 -107q6 -18 37 -33.5t70 -15.5q82 0 143.5 77t61.5 240q0 186 -87 342t-253 207q-49 -31 -76 -30q-16 0 -28.5 9t-12.5 25q0 18 12.5 28.5t34.5 10.5q31 0 74 -16q100 78 144 174t44 231q0 129 -51 200t-149 71q-78 0 -137.5 -62.5 t-59.5 -230.5v-1301q-84 29 -213 29q-61 0 -127 -6z" />
<glyph unicode="&#xe0;" horiz-adv-x="1019" d="M80 229q0 92 50 151.5t118.5 94.5t181.5 74q115 39 170 71.5t55 88.5v127q0 119 -50 162.5t-140 43.5q-143 0 -203 -73q41 -10 68.5 -43t27.5 -82q0 -51 -32.5 -81t-83.5 -30q-57 0 -86 36t-29 87q0 49 23.5 82t70.5 66q49 35 125 57t166 22q160 0 242 -75 q51 -47 68.5 -114t17.5 -175v-569q0 -51 14 -74t49 -23q25 0 46.5 11.5t45.5 31.5l23 -35q-53 -41 -91 -58t-96 -17q-98 0 -137 49t-39 133q-61 -102 -141 -142t-180 -40q-129 0 -191.5 64.5t-62.5 178.5zM223 1608q0 33 29 57q16 14 45 14q43 0 78 -45q35 -47 82 -141 q66 -127 141 -248l-23 -18q-72 74 -132 130t-74 68q-76 61 -117 113q-29 39 -29 70zM260 254q0 -92 45 -139t119 -47q135 -1 231 155v402q-18 -29 -51 -47.5t-100 -49.5q-78 -33 -126 -62.5t-83 -80.5t-35 -131z" />
<glyph unicode="&#xe1;" horiz-adv-x="1019" d="M80 229q0 92 50 151.5t118.5 94.5t181.5 74q115 39 170 71.5t55 88.5v127q0 119 -50 162.5t-140 43.5q-143 0 -203 -73q41 -10 68.5 -43t27.5 -82q0 -51 -32.5 -81t-83.5 -30q-57 0 -86 36t-29 87q0 49 23.5 82t70.5 66q49 35 125 57t166 22q160 0 242 -75 q51 -47 68.5 -114t17.5 -175v-569q0 -51 14 -74t49 -23q25 0 46.5 11.5t45.5 31.5l23 -35q-53 -41 -91 -58t-96 -17q-98 0 -137 49t-39 133q-61 -102 -141 -142t-180 -40q-129 0 -191.5 64.5t-62.5 178.5zM260 254q0 -92 45 -139t119 -47q135 -1 231 155v402 q-18 -29 -51 -47.5t-100 -49.5q-78 -33 -126 -62.5t-83 -80.5t-35 -131zM377 1245q76 121 141 248q47 94 82 141q33 45 78 45q29 0 45 -14q29 -24 29 -57q0 -31 -29 -70q-41 -51 -117 -113q-14 -12 -74.5 -68.5t-132.5 -129.5z" />
<glyph unicode="&#xe2;" horiz-adv-x="1019" d="M80 229q0 92 50 151.5t118.5 94.5t181.5 74q115 39 170 71.5t55 88.5v127q0 119 -50 162.5t-140 43.5q-143 0 -203 -73q41 -10 68.5 -43t27.5 -82q0 -51 -32.5 -81t-83.5 -30q-57 0 -86 36t-29 87q0 49 23.5 82t70.5 66q49 35 125 57t166 22q160 0 242 -75 q51 -47 68.5 -114t17.5 -175v-569q0 -51 14 -74t49 -23q25 0 46.5 11.5t45.5 31.5l23 -35q-53 -41 -91 -58t-96 -17q-98 0 -137 49t-39 133q-61 -102 -141 -142t-180 -40q-129 0 -191.5 64.5t-62.5 178.5zM143 1290q117 57 208 152.5t134 199.5h37q43 -104 134.5 -199 t207.5 -153l-16 -28q-111 39 -216.5 94t-168.5 110q-51 -55 -134 -110.5t-169 -93.5zM260 254q0 -92 45 -139t119 -47q135 -1 231 155v402q-18 -29 -51 -47.5t-100 -49.5q-78 -33 -126 -62.5t-83 -80.5t-35 -131z" />
<glyph unicode="&#xe3;" horiz-adv-x="1019" d="M80 229q0 92 50 151.5t118.5 94.5t181.5 74q115 39 170 71.5t55 88.5v127q0 119 -50 162.5t-140 43.5q-143 0 -203 -73q41 -10 68.5 -43t27.5 -82q0 -51 -32.5 -81t-83.5 -30q-57 0 -86 36t-29 87q0 49 23.5 82t70.5 66q49 35 125 57t166 22q160 0 242 -75 q51 -47 68.5 -114t17.5 -175v-569q0 -51 14 -74t49 -23q25 0 46.5 11.5t45.5 31.5l23 -35q-53 -41 -91 -58t-96 -17q-98 0 -137 49t-39 133q-61 -102 -141 -142t-180 -40q-129 0 -191.5 64.5t-62.5 178.5zM109 1362q31 109 95 160t148 51q51 0 90 -19.5t82 -54.5 q41 -31 71 -46t67 -15q92 0 157 108l29 -14q-31 -109 -95.5 -160t-146.5 -51q-53 0 -90 18.5t-84 55.5q-43 33 -71.5 48t-65.5 15q-90 0 -158 -110zM260 254q0 -92 45 -139t119 -47q135 -1 231 155v402q-18 -29 -51 -47.5t-100 -49.5q-78 -33 -126 -62.5t-83 -80.5t-35 -131 z" />
<glyph unicode="&#xe4;" horiz-adv-x="1019" d="M80 229q0 92 50 151.5t118.5 94.5t181.5 74q115 39 170 71.5t55 88.5v127q0 119 -50 162.5t-140 43.5q-143 0 -203 -73q41 -10 68.5 -43t27.5 -82q0 -51 -32.5 -81t-83.5 -30q-57 0 -86 36t-29 87q0 49 23.5 82t70.5 66q49 35 125 57t166 22q160 0 242 -75 q51 -47 68.5 -114t17.5 -175v-569q0 -51 14 -74t49 -23q25 0 46.5 11.5t45.5 31.5l23 -35q-53 -41 -91 -58t-96 -17q-98 0 -137 49t-39 133q-61 -102 -141 -142t-180 -40q-129 0 -191.5 64.5t-62.5 178.5zM170 1403q0 47 35 83t84 36q47 0 83 -36t36 -83q0 -49 -36 -84 t-83 -35q-49 0 -84 35t-35 84zM260 254q0 -92 45 -139t119 -47q135 -1 231 155v402q-18 -29 -51 -47.5t-100 -49.5q-78 -33 -126 -62.5t-83 -80.5t-35 -131zM604 1403q0 47 35 83t84 36q47 0 83 -36t36 -83q0 -49 -36 -84t-83 -35q-49 0 -84 35t-35 84z" />
<glyph unicode="&#xe5;" horiz-adv-x="1019" d="M80 229q0 92 50 151.5t118.5 94.5t181.5 74q115 39 170 71.5t55 88.5v127q0 119 -50 162.5t-140 43.5q-143 0 -203 -73q41 -10 68.5 -43t27.5 -82q0 -51 -32.5 -81t-83.5 -30q-57 0 -86 36t-29 87q0 49 23.5 82t70.5 66q49 35 125 57t166 22q160 0 242 -75 q51 -47 68.5 -114t17.5 -175v-569q0 -51 14 -74t49 -23q25 0 46.5 11.5t45.5 31.5l23 -35q-53 -41 -91 -58t-96 -17q-98 0 -137 49t-39 133q-61 -102 -141 -142t-180 -40q-129 0 -191.5 64.5t-62.5 178.5zM260 254q0 -92 45 -139t119 -47q135 -1 231 155v402 q-18 -29 -51 -47.5t-100 -49.5q-78 -33 -126 -62.5t-83 -80.5t-35 -131zM307 1434q0 84 57.5 135t139.5 51t140 -51t58 -135t-58 -136.5t-140 -52.5t-139.5 52.5t-57.5 136.5zM365 1432q0 -68 42 -106t97 -38t98 38t43 106t-43 106.5t-98 38.5q-53 0 -96 -40t-43 -105z" />
<glyph unicode="&#xe6;" horiz-adv-x="1525" d="M80 229q0 92 50 151.5t118.5 94.5t181.5 74q115 39 170 71.5t55 88.5v127q0 119 -50 162.5t-140 43.5q-143 0 -203 -73q41 -10 68.5 -43t27.5 -82q0 -51 -32.5 -81t-83.5 -30q-57 0 -86 36t-29 87q0 49 23.5 82t70.5 66q49 35 125 57t166 22q160 0 242 -75q23 -23 37 -50 q106 125 284 125q174 0 268.5 -111.5t94.5 -338.5h-596q-6 -57 -6 -131q0 -135 41 -236.5t106.5 -155t140.5 -53.5q84 0 149.5 47.5t110.5 157.5l41 -16q-35 -113 -124 -194t-218 -81q-141 0 -237 67.5t-144 197.5q-80 -150 -170 -200t-198 -50q-129 0 -191.5 64.5 t-62.5 178.5zM260 254q0 -92 45 -139t119 -47q135 0 231 155v402q-18 -29 -51 -47.5t-100 -49.5q-78 -33 -126 -62.5t-83 -80.5t-35 -131zM840 672h401q4 160 -41 266t-133 106q-90 0 -152.5 -94t-74.5 -278z" />
<glyph unicode="&#xe7;" horiz-adv-x="995" d="M94 514q0 166 60.5 295t169 201.5t247.5 72.5q138 1 238 -65q96 -63 96 -158q0 -53 -30.5 -84t-77.5 -31t-80 28t-33 75q0 43 24.5 72.5t61.5 40.5q-20 37 -72.5 61.5t-111.5 24.5q-76 0 -141.5 -48.5t-108.5 -160t-43 -293.5q0 -254 82 -370t213 -116q88 0 167 51.5 t130 159.5l39 -14q-35 -117 -130.5 -201t-246.5 -84q-127 0 -230.5 65.5t-163 189.5t-59.5 288zM334 -362l8 36q43 -6 78 -6q74 0 129 21.5t55 70.5q0 57 -86 58q-57 0 -100 -15l69 209h56l-54 -159q61 14 121 14q57 0 91 -25.5t34 -70.5q0 -78 -71.5 -117t-159.5 -39 q-102 0 -170 23z" />
<glyph unicode="&#xe8;" horiz-adv-x="1036" d="M94 502q0 178 57.5 309t162 201.5t243.5 70.5q184 0 283.5 -111.5t99.5 -338.5h-641q-6 -57 -6 -131q0 -135 44 -235.5t116.5 -155t152.5 -54.5q98 0 174 47.5t127 157.5l41 -16q-37 -113 -138 -194t-245 -81q-145 0 -251.5 66.5t-163 186.5t-56.5 278zM274 1608 q0 33 29 57q16 14 45 14q43 0 78 -45q35 -47 82 -141q66 -127 141 -248l-22 -18q-72 74 -132.5 130t-74.5 68q-76 61 -117 113q-29 39 -29 70zM297 672h446q4 160 -46 266t-148 106q-96 0 -166 -94t-86 -278z" />
<glyph unicode="&#xe9;" horiz-adv-x="1036" d="M94 502q0 178 57.5 309t162 201.5t243.5 70.5q184 0 283.5 -111.5t99.5 -338.5h-641q-6 -57 -6 -131q0 -135 44 -235.5t116.5 -155t152.5 -54.5q98 0 174 47.5t127 157.5l41 -16q-37 -113 -138 -194t-245 -81q-145 0 -251.5 66.5t-163 186.5t-56.5 278zM297 672h446 q4 160 -46 266t-148 106q-96 0 -166 -94t-86 -278zM428 1245q76 121 141 248q47 94 82 141q33 45 78 45q29 0 45 -14q29 -24 29 -57q0 -31 -29 -70q-41 -51 -117 -113q-14 -12 -74.5 -68.5t-131.5 -129.5z" />
<glyph unicode="&#xea;" horiz-adv-x="1036" d="M94 502q0 178 57.5 309t162 201.5t243.5 70.5q184 0 283.5 -111.5t99.5 -338.5h-641q-6 -57 -6 -131q0 -135 44 -235.5t116.5 -155t152.5 -54.5q98 0 174 47.5t127 157.5l41 -16q-37 -113 -138 -194t-245 -81q-145 0 -251.5 66.5t-163 186.5t-56.5 278zM195 1290 q117 57 208 152.5t134 199.5h36q43 -104 134.5 -199t207.5 -153l-16 -28q-111 39 -216 94t-169 110q-51 -55 -134 -110.5t-169 -93.5zM297 672h446q4 160 -46 266t-148 106q-96 0 -166 -94t-86 -278z" />
<glyph unicode="&#xeb;" horiz-adv-x="1036" d="M94 502q0 178 57.5 309t162 201.5t243.5 70.5q184 0 283.5 -111.5t99.5 -338.5h-641q-6 -57 -6 -131q0 -135 44 -235.5t116.5 -155t152.5 -54.5q98 0 174 47.5t127 157.5l41 -16q-37 -113 -138 -194t-245 -81q-145 0 -251.5 66.5t-163 186.5t-56.5 278zM221 1403 q0 47 35 83t84 36q47 0 83 -36t36 -83q0 -49 -36 -84t-83 -35q-49 0 -84 35t-35 84zM297 672h446q4 160 -46 266t-148 106q-96 0 -166 -94t-86 -278zM655 1403q0 47 35 83t84 36q47 0 83 -36t36 -83q0 -49 -36 -84t-83 -35q-49 0 -84 35t-35 84z" />
<glyph unicode="&#xec;" horiz-adv-x="600" d="M8 1608q0 33 29 57q16 14 45 14q43 0 78 -45q35 -47 82 -141q66 -127 141 -248l-23 -18q-72 74 -132 130t-74 68q-76 61 -117 113q-29 39 -29 70zM59 0v43q86 0 121 31.5t35 115.5v641q0 94 -35 137.5t-121 43.5v43q66 -6 127 -6q129 0 213 28v-887q0 -84 35 -115.5 t121 -31.5v-43q-188 8 -248 8q-59 0 -248 -8z" />
<glyph unicode="&#xed;" horiz-adv-x="600" d="M59 0v43q86 0 121 31.5t35 115.5v641q0 94 -35 137.5t-121 43.5v43q66 -6 127 -6q129 0 213 28v-887q0 -84 35 -115.5t121 -31.5v-43q-188 8 -248 8q-59 0 -248 -8zM162 1245q76 121 141 248q47 94 82 141q33 45 78 45q29 0 45 -14q29 -24 29 -57q0 -31 -29 -70 q-41 -51 -117 -113q-14 -12 -74.5 -68.5t-132.5 -129.5z" />
<glyph unicode="&#xee;" horiz-adv-x="600" d="M-72 1290q117 57 208 152.5t134 199.5h37q43 -104 134 -199t208 -153l-16 -28q-111 39 -216.5 94t-168.5 110q-51 -55 -134 -110.5t-169 -93.5zM59 0v43q86 0 121 31.5t35 115.5v641q0 94 -35 137.5t-121 43.5v43q66 -6 127 -6q129 0 213 28v-887q0 -84 35 -115.5 t121 -31.5v-43q-188 8 -248 8q-59 0 -248 -8z" />
<glyph unicode="&#xef;" horiz-adv-x="600" d="M-45 1403q0 47 35 83t84 36q47 0 83 -36t36 -83q0 -49 -36 -84t-83 -35q-49 0 -84 35t-35 84zM59 0v43q86 0 121 31.5t35 115.5v641q0 94 -35 137.5t-121 43.5v43q66 -6 127 -6q129 0 213 28v-887q0 -84 35 -115.5t121 -31.5v-43q-188 8 -248 8q-59 0 -248 -8zM389 1403 q0 47 35 83t84 36q47 0 83 -36t36 -83q0 -49 -36 -84t-83 -35q-49 0 -84 35t-35 84z" />
<glyph unicode="&#xf0;" horiz-adv-x="1134" d="M94 522q0 141 52.5 270.5t152.5 210t242 80.5q166 0 245 -106q-57 240 -217 395l-370 -180l-19 37l357 174q-109 90 -271 164l17 35q188 -76 319 -168l289 141l18 -37l-270 -131q381 -291 381 -789q0 -211 -64.5 -356t-171 -218t-231.5 -73q-209 0 -334 142.5t-125 408.5 zM293 518q0 -260 70.5 -383t179.5 -123q123 0 202.5 140.5t79.5 465.5q0 47 -4 130q-20 170 -93 231t-173 61q-119 0 -190.5 -123.5t-71.5 -398.5z" />
<glyph unicode="&#xf1;" horiz-adv-x="1222" d="M59 0v43q86 0 121 31.5t35 115.5v641q0 94 -35 137.5t-121 43.5v43q66 -6 127 -6q129 0 213 28v-241q51 131 142.5 189t206.5 58q143 1 217 -77q39 -41 55 -102.5t16 -166.5v-547q0 -84 35 -115.5t121 -31.5v-43q-188 8 -246 8q-57 0 -229 -8v43q76 0 105.5 31.5 t29.5 115.5v592q0 115 -33 175.5t-133 60.5q-84 0 -149.5 -49t-101.5 -134t-36 -190v-455q0 -84 30 -115.5t106 -31.5v-43q-172 8 -230 8q-57 0 -246 -8zM231 1362q31 109 95.5 160t148.5 51q51 0 90 -19.5t82 -54.5q41 -31 71 -46t66 -15q92 0 158 108l29 -14 q-31 -109 -95.5 -160t-146.5 -51q-53 0 -90 18.5t-84 55.5q-43 33 -71.5 48t-65.5 15q-90 0 -158 -110z" />
<glyph unicode="&#xf2;" horiz-adv-x="1122" d="M96 526q0 281 128 419t337 138t337 -138t128 -419t-128 -418t-337 -137t-337 137.5t-128 417.5zM287 1608q0 33 28 57q16 14 45 14q43 0 78 -45q35 -47 82 -141q66 -127 142 -248l-23 -18q-72 74 -132.5 130t-74.5 68q-76 61 -117 113q-29 39 -28 70zM295 526 q0 -264 71.5 -389t194.5 -125t194.5 125t71.5 389t-71.5 390t-194.5 126t-194.5 -125.5t-71.5 -390.5z" />
<glyph unicode="&#xf3;" horiz-adv-x="1122" d="M96 526q0 281 128 419t337 138t337 -138t128 -419t-128 -418t-337 -137t-337 137.5t-128 417.5zM295 526q0 -264 71.5 -389t194.5 -125t194.5 125t71.5 389t-71.5 390t-194.5 126t-194.5 -125.5t-71.5 -390.5zM440 1245q76 121 142 248q47 94 82 141q33 45 77 45 q29 0 45 -14q29 -24 29 -57q0 -31 -29 -70q-41 -51 -116 -113q-14 -12 -74.5 -68.5t-132.5 -129.5z" />
<glyph unicode="&#xf4;" horiz-adv-x="1122" d="M96 526q0 281 128 419t337 138t337 -138t128 -419t-128 -418t-337 -137t-337 137.5t-128 417.5zM207 1290q117 57 208 152.5t134 199.5h37q43 -104 134 -199t208 -153l-17 -28q-111 39 -216 94t-169 110q-51 -55 -134 -110.5t-169 -93.5zM295 526q0 -264 71.5 -389 t194.5 -125t194.5 125t71.5 389t-71.5 390t-194.5 126t-194.5 -125.5t-71.5 -390.5z" />
<glyph unicode="&#xf5;" horiz-adv-x="1122" d="M96 526q0 281 128 419t337 138t337 -138t128 -419t-128 -418t-337 -137t-337 137.5t-128 417.5zM172 1362q31 109 95.5 160t148.5 51q51 0 90 -19.5t82 -54.5q41 -31 70.5 -46t66.5 -15q92 0 158 108l28 -14q-31 -109 -95 -160t-146 -51q-53 0 -90 18.5t-84 55.5 q-43 33 -72 48t-66 15q-90 0 -157 -110zM295 526q0 -264 71.5 -389t194.5 -125t194.5 125t71.5 389t-71.5 390t-194.5 126t-194.5 -125.5t-71.5 -390.5z" />
<glyph unicode="&#xf6;" horiz-adv-x="1122" d="M96 526q0 281 128 419t337 138t337 -138t128 -419t-128 -418t-337 -137t-337 137.5t-128 417.5zM233 1403q0 47 35 83t84 36q47 0 83 -36t36 -83q0 -49 -36 -84t-83 -35q-49 0 -84 35t-35 84zM295 526q0 -264 71.5 -389t194.5 -125t194.5 125t71.5 389t-71.5 390 t-194.5 126t-194.5 -125.5t-71.5 -390.5zM668 1403q0 47 34.5 83t83.5 36q48 0 83.5 -36t35.5 -83q0 -49 -35.5 -84t-83.5 -35q-49 0 -83.5 35t-34.5 84z" />
<glyph unicode="&#xf7;" horiz-adv-x="1329" d="M150 696v62h1026v-62h-1026zM551 432q0 47 33.5 80t79.5 33q47 0 80.5 -33t33.5 -80t-33.5 -81t-80.5 -34t-80 34t-33 81zM551 1022q0 47 33.5 80t79.5 33q47 0 80.5 -33t33.5 -80t-33.5 -80t-80.5 -33t-80 33t-33 80z" />
<glyph unicode="&#xf8;" horiz-adv-x="1122" d="M88 -121l148 217q-139 143 -140 430q0 281 128 419t337 138q174 0 287 -92l145 211l39 -26l-147 -218q141 -145 141 -432q0 -281 -128 -418t-337 -137q-170 0 -287 90l-143 -211zM295 526q0 -190 39 -313l432 682q-68 147 -205 147q-123 0 -194.5 -125.5t-71.5 -390.5z M358 154q68 -141 203 -142q123 0 194.5 125t71.5 389q0 190 -39 314z" />
<glyph unicode="&#xf9;" horiz-adv-x="1189" d="M33 1012v43q63 -6 127 -6q129 0 213 28v-805q0 -78 9 -126t43 -78.5t103 -30.5q78 0 141.5 49t99.5 134t36 188v423q0 94 -35 137.5t-121 43.5v43q63 -6 127 -6q129 0 213 28v-856q0 -94 35 -137t121 -43v-43q-63 6 -127 6q-129 0 -213 -29v242q-49 -127 -139.5 -186.5 t-196.5 -59.5q-139 0 -213 78q-37 41 -52.5 104.5t-15.5 163.5v514q0 94 -34.5 137.5t-120.5 43.5zM293 1608q0 33 29 57q16 14 45 14q43 0 77 -45q35 -47 82 -141q66 -127 142 -248l-23 -18q-72 74 -132 130t-75 68q-76 61 -116 113q-29 39 -29 70z" />
<glyph unicode="&#xfa;" horiz-adv-x="1189" d="M33 1012v43q63 -6 127 -6q129 0 213 28v-805q0 -78 9 -126t43 -78.5t103 -30.5q78 0 141.5 49t99.5 134t36 188v423q0 94 -35 137.5t-121 43.5v43q63 -6 127 -6q129 0 213 28v-856q0 -94 35 -137t121 -43v-43q-63 6 -127 6q-129 0 -213 -29v242q-49 -127 -139.5 -186.5 t-196.5 -59.5q-139 0 -213 78q-37 41 -52.5 104.5t-15.5 163.5v514q0 94 -34.5 137.5t-120.5 43.5zM446 1245q76 121 142 248q47 94 82 141q33 45 78 45q29 0 45 -14q28 -24 28 -57q0 -31 -28 -70q-41 -51 -117 -113q-14 -12 -74.5 -68.5t-132.5 -129.5z" />
<glyph unicode="&#xfb;" horiz-adv-x="1189" d="M33 1012v43q63 -6 127 -6q129 0 213 28v-805q0 -78 9 -126t43 -78.5t103 -30.5q78 0 141.5 49t99.5 134t36 188v423q0 94 -35 137.5t-121 43.5v43q63 -6 127 -6q129 0 213 28v-856q0 -94 35 -137t121 -43v-43q-63 6 -127 6q-129 0 -213 -29v242q-49 -127 -139.5 -186.5 t-196.5 -59.5q-139 0 -213 78q-37 41 -52.5 104.5t-15.5 163.5v514q0 94 -34.5 137.5t-120.5 43.5zM213 1290q117 57 208 152.5t134 199.5h37q43 -104 134 -199t208 -153l-16 -28q-111 39 -216.5 94t-169.5 110q-51 -55 -134 -110.5t-169 -93.5z" />
<glyph unicode="&#xfc;" horiz-adv-x="1189" d="M33 1012v43q63 -6 127 -6q129 0 213 28v-805q0 -78 9 -126t43 -78.5t103 -30.5q78 0 141.5 49t99.5 134t36 188v423q0 94 -35 137.5t-121 43.5v43q63 -6 127 -6q129 0 213 28v-856q0 -94 35 -137t121 -43v-43q-63 6 -127 6q-129 0 -213 -29v242q-49 -127 -139.5 -186.5 t-196.5 -59.5q-139 0 -213 78q-37 41 -52.5 104.5t-15.5 163.5v514q0 94 -34.5 137.5t-120.5 43.5zM240 1403q0 47 34.5 83t83.5 36q48 0 83.5 -36t35.5 -83q0 -49 -35.5 -84t-83.5 -35q-49 0 -83.5 35t-34.5 84zM674 1403q0 47 34.5 83t84.5 36q47 0 82.5 -36t35.5 -83 q0 -49 -35.5 -84t-82.5 -35q-49 0 -84 35t-35 84z" />
<glyph unicode="&#xfd;" horiz-adv-x="1032" d="M-8 1012v43q88 -12 201 -13q102 0 266 13v-43q-74 0 -108 -12.5t-34 -59.5q0 -43 25 -100l246 -611l227 592q23 61 23 94q0 47 -37 70t-117 29v41q109 -6 172 -6q90 0 156 6v-41q-41 -4 -73 -37t-60 -107l-336 -880l-70 -178q-39 -100 -88 -144q-31 -29 -74 -41t-86 -12 q-61 0 -100 33t-39 90q0 49 28.5 78.5t80.5 29.5q45 0 74.5 -25.5t29.5 -70.5q0 -61 -55 -92q4 -2 12 -2q113 0 174 160l72 186l-371 895q-35 70 -69.5 92.5t-69.5 22.5zM393 1245q76 121 142 248q47 94 81 141q33 45 78 45q29 0 45 -14q29 -24 29 -57q0 -31 -29 -70 q-41 -51 -116 -113q-14 -12 -75 -68.5t-132 -129.5z" />
<glyph unicode="&#xfe;" horiz-adv-x="1144" d="M0 1538v43q66 -6 127 -6q129 0 213 29v-744q45 106 131 164.5t197 58.5q108 0 195 -59t136.5 -174t49.5 -275q0 -158 -50.5 -295t-156 -223t-262.5 -86q-78 0 -141.5 31t-98.5 80v-262q0 -84 49 -116t148 -32v-43l-48 2q-190 6 -247 7q-49 0 -222 -9v43q76 0 106 28 t30 99v1559q0 94 -35 137t-121 43zM340 150q29 -59 84 -95.5t133 -36.5q293 1 293 529q0 475 -238 475q-92 0 -165.5 -66.5t-106.5 -191.5v-614z" />
<glyph unicode="&#xff;" horiz-adv-x="1032" d="M-8 1012v43q88 -12 201 -13q102 0 266 13v-43q-74 0 -108 -12.5t-34 -59.5q0 -43 25 -100l246 -611l227 592q23 61 23 94q0 47 -37 70t-117 29v41q109 -6 172 -6q90 0 156 6v-41q-41 -4 -73 -37t-60 -107l-336 -880l-70 -178q-39 -100 -88 -144q-31 -29 -74 -41t-86 -12 q-61 0 -100 33t-39 90q0 49 28.5 78.5t80.5 29.5q45 0 74.5 -25.5t29.5 -70.5q0 -61 -55 -92q4 -2 12 -2q113 0 174 160l72 186l-371 895q-35 70 -69.5 92.5t-69.5 22.5zM186 1403q0 47 35 83t84 36q47 0 83 -36t36 -83q0 -49 -36 -84t-83 -35q-49 0 -84 35t-35 84z M621 1403q0 47 34.5 83t83.5 36q47 0 83 -36t36 -83q0 -49 -36 -84t-83 -35q-49 0 -83.5 35t-34.5 84z" />
<glyph unicode="&#x100;" horiz-adv-x="2396" d="M82 -90q0 125 55.5 227.5t156.5 161.5t234 59q90 0 160 -38.5t108 -104t38 -141.5q0 -86 -52.5 -141.5t-122.5 -55.5q-59 0 -93 34t-34 85q0 59 50 88l6 -8q-14 -12 -25.5 -34t-11.5 -46q0 -41 30.5 -67.5t77.5 -26.5q61 0 103.5 52t42.5 120q0 72 -38 131t-101.5 94 t-137.5 35q-127 0 -222 -61.5t-145 -159t-50 -203.5q0 -133 63.5 -235.5t169 -158t227.5 -55.5q229 0 353.5 171t167.5 393.5t67 535.5q2 55 10 133q27 289 92.5 476.5t181.5 292t296 139.5h-762q-135 0 -243.5 -61.5t-171 -162t-62.5 -215.5q0 -98 40 -179t108.5 -127 t152.5 -46q94 0 160.5 54.5t66.5 144.5q0 66 -39 113.5t-96 47.5q-47 0 -80 -27.5t-33 -66.5q0 -25 11.5 -46t25.5 -34l-6 -8q-49 29 -49 88q0 51 36 85t95 34q68 0 114 -51t46 -135q0 -100 -74 -162t-178 -62q-90 0 -165 47.5t-120 133.5t-45 196q0 127 66.5 234.5 t182.5 170t257 62.5h1380v-16q-88 0 -137 -63.5t-49 -161.5v-1342q0 -98 49 -161.5t137 -63.5v-17h-602v17q88 0 137.5 63.5t49.5 161.5v733h-535l-4 -49q-23 -266 -109 -561t-265 -514t-458 -219q-129 0 -240.5 56t-180 163.5t-68.5 253.5zM1374 1776v51h721v-51h-721z M1409 809h533v788q-221 -2 -326 -81.5t-142.5 -232.5t-64.5 -474z" />
<glyph unicode="&#x101;" horiz-adv-x="1019" d="M80 229q0 92 50 151.5t118.5 94.5t181.5 74q115 39 170 71.5t55 88.5v127q0 119 -50 162.5t-140 43.5q-143 0 -203 -73q41 -10 68.5 -43t27.5 -82q0 -51 -32.5 -81t-83.5 -30q-57 0 -86 36t-29 87q0 49 23.5 82t70.5 66q49 35 125 57t166 22q160 0 242 -75 q51 -47 68.5 -114t17.5 -175v-569q0 -51 14 -74t49 -23q25 0 46.5 11.5t45.5 31.5l23 -35q-53 -41 -91 -58t-96 -17q-98 0 -137 49t-39 133q-61 -102 -141 -142t-180 -40q-129 0 -191.5 64.5t-62.5 178.5zM178 1407v51h639v-51h-639zM260 254q0 -92 45 -139t119 -47 q135 -1 231 155v402q-18 -29 -51 -47.5t-100 -49.5q-78 -33 -126 -62.5t-83 -80.5t-35 -131z" />
<glyph unicode="&#x102;" horiz-adv-x="2402" d="M82 -90q0 125 55.5 227.5t156.5 161.5t234 59q90 0 160 -38.5t108 -104t38 -141.5q0 -86 -52.5 -141.5t-122.5 -55.5q-59 0 -93 34t-34 85q0 59 50 88l6 -8q-14 -12 -25.5 -34t-11.5 -46q0 -41 30.5 -67.5t77.5 -26.5q61 0 103.5 52t42.5 120q0 72 -38 131t-101.5 94 t-137.5 35q-127 0 -222 -61.5t-145 -159t-50 -203.5q0 -133 63.5 -235.5t169 -158t227.5 -55.5q229 0 353.5 171t167.5 393.5t67 535.5q2 55 10 133q27 289 92.5 476.5t181.5 292t296 139.5h-762q-135 0 -243.5 -61.5t-171 -162t-62.5 -215.5q0 -98 40 -179t108.5 -127 t152.5 -46q94 0 160.5 54.5t66.5 144.5q0 66 -39 113.5t-96 47.5q-47 0 -80 -27.5t-33 -66.5q0 -25 11.5 -46t25.5 -34l-6 -8q-49 29 -49 88q0 51 36 85t95 34q68 0 114 -51t46 -135q0 -100 -74 -162t-178 -62q-90 0 -165 47.5t-120 133.5t-45 196q0 127 66.5 234.5 t182.5 170t257 62.5h1380v-16q-88 0 -137 -63.5t-49 -161.5v-1342q0 -98 49 -161.5t137 -63.5v-17h-602v17q88 0 137.5 63.5t49.5 161.5v733h-535l-4 -49q-23 -266 -109 -561t-265 -514t-458 -219q-129 0 -240.5 56t-180 163.5t-68.5 253.5zM1229 1991l26 20 q57 -55 152.5 -93t228.5 -38t229.5 39t153.5 94l25 -22q-59 -96 -162.5 -167t-245.5 -71q-141 0 -244.5 70.5t-162.5 167.5zM1409 809h533v788q-221 -2 -326 -81.5t-142.5 -232.5t-64.5 -474z" />
<glyph unicode="&#x103;" horiz-adv-x="1019" d="M80 229q0 92 50 151.5t118.5 94.5t181.5 74q115 39 170 71.5t55 88.5v127q0 119 -50 162.5t-140 43.5q-143 0 -203 -73q41 -10 68.5 -43t27.5 -82q0 -51 -32.5 -81t-83.5 -30q-57 0 -86 36t-29 87q0 49 23.5 82t70.5 66q49 35 125 57t166 22q160 0 242 -75 q51 -47 68.5 -114t17.5 -175v-569q0 -51 14 -74t49 -23q25 0 46.5 11.5t45.5 31.5l23 -35q-53 -41 -91 -58t-96 -17q-98 0 -137 49t-39 133q-61 -102 -141 -142t-180 -40q-129 0 -191.5 64.5t-62.5 178.5zM135 1595l35 19q119 -197 332 -197t332 197l34 -19 q-51 -123 -144 -211t-222 -88t-222.5 88.5t-144.5 210.5zM260 254q0 -92 45 -139t119 -47q135 -1 231 155v402q-18 -29 -51 -47.5t-100 -49.5q-78 -33 -126 -62.5t-83 -80.5t-35 -131z" />
<glyph unicode="&#x104;" horiz-adv-x="2414" d="M82 -90q0 125 55.5 227.5t156.5 161.5t234 59q90 0 160 -38.5t108 -104t38 -141.5q0 -86 -52.5 -141.5t-122.5 -55.5q-59 0 -93 34t-34 85q0 59 50 88l6 -8q-14 -12 -25.5 -34t-11.5 -46q0 -41 30.5 -67.5t77.5 -26.5q61 0 103.5 52t42.5 120q0 72 -38 131t-101.5 94 t-137.5 35q-127 0 -222 -61.5t-145 -159t-50 -203.5q0 -133 63.5 -235.5t169 -158t227.5 -55.5q229 0 353.5 171t167.5 393.5t67 535.5q2 55 10 133q27 289 92.5 476.5t181.5 292t296 139.5h-762q-135 0 -243.5 -61.5t-171 -162t-62.5 -215.5q0 -98 40 -179t108.5 -127 t152.5 -46q94 0 160.5 54.5t66.5 144.5q0 66 -39 113.5t-96 47.5q-47 0 -80 -27.5t-33 -66.5q0 -25 11.5 -46t25.5 -34l-6 -8q-49 29 -49 88q0 51 36 85t95 34q68 0 114 -51t46 -135q0 -100 -74 -162t-178 -62q-90 0 -165 47.5t-120 133.5t-45 196q0 127 66.5 234.5 t182.5 170t257 62.5h1380v-16q-88 0 -137 -63.5t-49 -161.5v-1342q0 -98 49 -161.5t137 -63.5v-17h-602v17q88 0 137.5 63.5t49.5 161.5v733h-535l-4 -49q-23 -266 -109 -561t-265 -514t-458 -219q-129 0 -240.5 56t-180 163.5t-68.5 253.5zM1409 809h533v788 q-221 -2 -326 -81.5t-142.5 -232.5t-64.5 -474zM1583 -420q0 80 74 146.5t209 111.5h78q-111 -28 -161 -84.5t-50 -118.5q0 -41 23.5 -65.5t64.5 -24.5q37 0 70.5 19.5t54.5 48.5l30 -27q-92 -139 -231 -139q-74 0 -118 37t-44 96z" />
<glyph unicode="&#x105;" horiz-adv-x="1019" d="M80 229q0 92 50 151.5t118.5 94.5t181.5 74q115 39 170 71.5t55 88.5v127q0 119 -50 162.5t-140 43.5q-143 0 -203 -73q41 -10 68.5 -43t27.5 -82q0 -51 -32.5 -81t-83.5 -30q-57 0 -86 36t-29 87q0 49 23.5 82t70.5 66q49 35 125 57t166 22q160 0 242 -75 q51 -47 68.5 -114t17.5 -175v-569q0 -51 14 -74t49 -23q25 0 46.5 11.5t45.5 31.5l23 -35q-53 -41 -91 -58t-96 -17q-98 0 -137 49t-39 133q-61 -102 -141 -142t-180 -40q-129 0 -191.5 64.5t-62.5 178.5zM260 254q0 -92 45 -139t119 -47q135 -1 231 155v402 q-18 -29 -51 -47.5t-100 -49.5q-78 -33 -126 -62.5t-83 -80.5t-35 -131zM582 -252q0 80 73.5 146.5t208.5 111.5h66q-7 -6 -21 -10q-178 -76 -178 -193q0 -41 23.5 -65.5t64.5 -24.5q37 0 71 19.5t54 48.5l31 -27q-92 -139 -232 -139q-74 0 -117.5 37t-43.5 96z" />
<glyph unicode="&#x106;" horiz-adv-x="1808" d="M82 743q0 256 128 470t349 340t483 126q127 0 223.5 -27.5t200.5 -72.5q35 -16 65 -27.5t50 -11.5q29 0 48.5 18.5t19.5 45.5h20v-480q0 -152 -60.5 -264t-164 -173.5t-232.5 -61.5q-111 0 -190.5 44t-120.5 117.5t-41 161.5q0 68 32 129.5t88 99t126 37.5q80 0 134 -48 t54 -115q0 -59 -33.5 -93t-84.5 -34q-59 0 -89 49l9 6q12 -14 33.5 -25.5t46.5 -11.5q41 0 67.5 31t26.5 78q0 61 -48 100t-116 39q-59 0 -109.5 -35t-79 -91t-28.5 -116q0 -131 88 -215t235 -84q115 0 212.5 57.5t154.5 162t57 235.5q0 127 -68.5 253t-202.5 210t-323 84 q-176 0 -338.5 -118t-263 -326t-100.5 -464q0 -254 100.5 -474t267 -352t359.5 -132q172 0 308 69.5t211 190.5t75 270h6q35 0 52.5 -31.5t17.5 -72.5q0 -121 -98.5 -226.5t-255 -167t-316.5 -61.5q-285 0 -509 124t-350 349.5t-126 513.5zM807 1815q84 63 144.5 117.5 t74.5 66.5q76 72 125 104q32 21 61 21q39 0 64 -35q12 -18 12 -39q0 -45 -55 -80q-43 -27 -148 -65q-154 -61 -264 -117z" />
<glyph unicode="&#x107;" horiz-adv-x="995" d="M94 514q0 166 60.5 295t169 201.5t247.5 72.5q138 1 238 -65q96 -63 96 -158q0 -53 -30.5 -84t-77.5 -31t-80 28t-33 75q0 43 24.5 72.5t61.5 40.5q-20 37 -72.5 61.5t-111.5 24.5q-76 0 -141.5 -48.5t-108.5 -160t-43 -293.5q0 -254 82 -370t213 -116q88 0 167 51.5 t130 159.5l39 -14q-35 -117 -130.5 -201t-246.5 -84q-127 0 -230.5 65.5t-163 189.5t-59.5 288zM412 1245q76 121 141 248q47 94 82 141q33 45 78 45q29 0 45 -14q28 -24 28 -57q0 -31 -28 -70q-41 -51 -117 -113q-14 -12 -74.5 -68.5t-132.5 -129.5z" />
<glyph unicode="&#x108;" horiz-adv-x="1808" d="M82 743q0 256 128 470t349 340t483 126q127 0 223.5 -27.5t200.5 -72.5q35 -16 65 -27.5t50 -11.5q29 0 48.5 18.5t19.5 45.5h20v-480q0 -152 -60.5 -264t-164 -173.5t-232.5 -61.5q-111 0 -190.5 44t-120.5 117.5t-41 161.5q0 68 32 129.5t88 99t126 37.5q80 0 134 -48 t54 -115q0 -59 -33.5 -93t-84.5 -34q-59 0 -89 49l9 6q12 -14 33.5 -25.5t46.5 -11.5q41 0 67.5 31t26.5 78q0 61 -48 100t-116 39q-59 0 -109.5 -35t-79 -91t-28.5 -116q0 -131 88 -215t235 -84q115 0 212.5 57.5t154.5 162t57 235.5q0 127 -68.5 253t-202.5 210t-323 84 q-176 0 -338.5 -118t-263 -326t-100.5 -464q0 -254 100.5 -474t267 -352t359.5 -132q172 0 308 69.5t211 190.5t75 270h6q35 0 52.5 -31.5t17.5 -72.5q0 -121 -98.5 -226.5t-255 -167t-316.5 -61.5q-285 0 -509 124t-350 349.5t-126 513.5zM588 1792q131 45 232.5 117.5 t150.5 152.5h37q49 -80 150.5 -152.5t232.5 -117.5l-11 -29q-123 27 -242.5 66t-189.5 78q-57 -39 -154.5 -78t-195.5 -66z" />
<glyph unicode="&#x109;" horiz-adv-x="995" d="M94 514q0 166 60.5 295t169 201.5t247.5 72.5q138 1 238 -65q96 -63 96 -158q0 -53 -30.5 -84t-77.5 -31t-80 28t-33 75q0 43 24.5 72.5t61.5 40.5q-20 37 -72.5 61.5t-111.5 24.5q-76 0 -141.5 -48.5t-108.5 -160t-43 -293.5q0 -254 82 -370t213 -116q88 0 167 51.5 t130 159.5l39 -14q-35 -117 -130.5 -201t-246.5 -84q-127 0 -230.5 65.5t-163 189.5t-59.5 288zM178 1290q117 57 208 152.5t134 199.5h37q43 -104 134 -199t208 -153l-16 -28q-111 39 -216.5 94t-168.5 110q-51 -55 -134 -110.5t-169 -93.5z" />
<glyph unicode="&#x10a;" horiz-adv-x="1812" d="M82 743q0 256 128 470t349 340t483 126q127 0 223.5 -27.5t200.5 -72.5q35 -16 65 -27.5t50 -11.5q29 0 48.5 18.5t19.5 45.5h20v-480q0 -152 -60.5 -264t-164 -173.5t-232.5 -61.5q-111 0 -190.5 44t-120.5 117.5t-41 161.5q0 68 32 129.5t88 99t126 37.5q80 0 134 -48 t54 -115q0 -59 -33.5 -93t-84.5 -34q-59 0 -89 49l9 6q12 -14 33.5 -25.5t46.5 -11.5q41 0 67.5 31t26.5 78q0 61 -48 100t-116 39q-59 0 -109.5 -35t-79 -91t-28.5 -116q0 -131 88 -215t235 -84q115 0 212.5 57.5t154.5 162t57 235.5q0 127 -68.5 253t-202.5 210t-323 84 q-176 0 -338.5 -118t-263 -326t-100.5 -464q0 -254 100.5 -474t267 -352t359.5 -132q172 0 308 69.5t211 190.5t75 270h6q35 0 52.5 -31.5t17.5 -72.5q0 -121 -98.5 -226.5t-255 -167t-316.5 -61.5q-285 0 -509 124t-350 349.5t-126 513.5zM920 1925q0 53 38.5 92t92.5 39 q53 0 92 -39t39 -92t-39 -92t-92 -39t-92 39t-39 92z" />
<glyph unicode="&#x10b;" horiz-adv-x="995" d="M94 514q0 166 60.5 295t169 201.5t247.5 72.5q138 1 238 -65q96 -63 96 -158q0 -53 -30.5 -84t-77.5 -31t-80 28t-33 75q0 43 24.5 72.5t61.5 40.5q-20 37 -72.5 61.5t-111.5 24.5q-76 0 -141.5 -48.5t-108.5 -160t-43 -293.5q0 -254 82 -370t213 -116q88 0 167 51.5 t130 159.5l39 -14q-35 -117 -130.5 -201t-246.5 -84q-127 0 -230.5 65.5t-163 189.5t-59.5 288zM436 1436q0 53 39 92t92 39q54 0 92.5 -39t38.5 -92t-38.5 -92t-92.5 -39q-53 0 -92 38.5t-39 92.5z" />
<glyph unicode="&#x10c;" horiz-adv-x="1808" d="M82 743q0 256 128 470t349 340t483 126q127 0 223.5 -27.5t200.5 -72.5q35 -16 65 -27.5t50 -11.5q29 0 48.5 18.5t19.5 45.5h20v-480q0 -152 -60.5 -264t-164 -173.5t-232.5 -61.5q-111 0 -190.5 44t-120.5 117.5t-41 161.5q0 68 32 129.5t88 99t126 37.5q80 0 134 -48 t54 -115q0 -59 -33.5 -93t-84.5 -34q-59 0 -89 49l9 6q12 -14 33.5 -25.5t46.5 -11.5q41 0 67.5 31t26.5 78q0 61 -48 100t-116 39q-59 0 -109.5 -35t-79 -91t-28.5 -116q0 -131 88 -215t235 -84q115 0 212.5 57.5t154.5 162t57 235.5q0 127 -68.5 253t-202.5 210t-323 84 q-176 0 -338.5 -118t-263 -326t-100.5 -464q0 -254 100.5 -474t267 -352t359.5 -132q172 0 308 69.5t211 190.5t75 270h6q35 0 52.5 -31.5t17.5 -72.5q0 -121 -98.5 -226.5t-255 -167t-316.5 -61.5q-285 0 -509 124t-350 349.5t-126 513.5zM655 2058l11 29 q123 -27 242.5 -66t189.5 -77q57 39 154.5 77.5t195.5 65.5l10 -29q-131 -45 -232.5 -117.5t-150.5 -152.5h-37q-49 80 -150.5 152.5t-232.5 117.5z" />
<glyph unicode="&#x10d;" horiz-adv-x="995" d="M94 514q0 166 60.5 295t169 201.5t247.5 72.5q138 1 238 -65q96 -63 96 -158q0 -53 -30.5 -84t-77.5 -31t-80 28t-33 75q0 43 24.5 72.5t61.5 40.5q-20 37 -72.5 61.5t-111.5 24.5q-76 0 -141.5 -48.5t-108.5 -160t-43 -293.5q0 -254 82 -370t213 -116q88 0 167 51.5 t130 159.5l39 -14q-35 -117 -130.5 -201t-246.5 -84q-127 0 -230.5 65.5t-163 189.5t-59.5 288zM158 1614l16 28q111 -39 216.5 -94t168.5 -110q51 55 134 110.5t169 93.5l17 -28q-117 -57 -208 -152.5t-134 -199.5h-37q-43 104 -134.5 199t-207.5 153z" />
<glyph unicode="&#x10e;" horiz-adv-x="2564" d="M82 1163q0 127 66.5 234.5t182 170t257.5 62.5h1026q229 0 436 -120.5t333 -330.5t126 -460q0 -287 -131 -506t-341 -338t-440 -119q-184 0 -322 83t-192 229v-58q0 -100 -52 -152.5t-152 -52.5h-211v17q88 0 137 63.5t49 161.5v1288q0 121 -68.5 194t-197.5 73 q-135 0 -243.5 -61.5t-171 -162t-62.5 -215.5q0 -98 39.5 -179t108.5 -127t153 -46q92 0 156.5 54.5t64.5 144.5q0 66 -38 113.5t-95 47.5q-47 0 -78 -26.5t-31 -67.5q0 -25 11.5 -46t25.5 -34l-6 -8q-49 29 -49 88q0 51 33.5 85t93.5 34q66 0 111.5 -51t45.5 -135 q0 -100 -71.5 -162t-173.5 -62q-90 0 -165 47.5t-120 133.5t-45 196zM1022 2038l10 28q123 -27 243 -65.5t189 -77.5q57 39 154.5 78t196.5 65l10 -28q-131 -45 -232.5 -118t-150.5 -153h-37q-49 80 -150.5 153t-232.5 118zM1083 236q0 -119 65.5 -222.5t183.5 -166 t265 -62.5q201 0 348.5 105.5t227.5 308t80 489.5q0 250 -81 457t-252 332t-429 125h-408v-1201q43 109 133.5 168.5t200.5 59.5q111 0 185.5 -63.5t74.5 -172.5q0 -86 -52 -141t-122 -55q-59 0 -93 33.5t-34 84.5q0 59 49 88l7 -8q-14 -12 -25.5 -33.5t-11.5 -46.5 q0 -41 30.5 -67.5t77.5 -26.5q61 0 103.5 52.5t42.5 119.5q0 92 -68 151.5t-164 59.5q-90 0 -166.5 -48t-122 -132t-45.5 -188z" />
<glyph unicode="&#x10f;" horiz-adv-x="1191" d="M100 526q0 178 62.5 304t168 189.5t232.5 63.5q78 0 142.5 -29.5t103.5 -90.5v397q0 94 -35 137t-121 43v43q66 -6 127 -6q129 0 213 29v-1383q0 -94 35 -137t121 -43v-43q-63 6 -127 6q-129 0 -213 -29v183q-37 -92 -110.5 -140.5t-180.5 -48.5q-197 0 -308.5 141.5 t-109.5 413.5zM299 526q-2 -246 69.5 -369.5t209.5 -123.5q79 0 142.5 61.5t88.5 173.5v611q-55 158 -229 157q-127 0 -205 -130t-76 -380zM1114 1161q41 231 41 297q0 43 -8 62.5t-33 19.5v43l33 -2q57 0 123 25q4 -11 7 -36.5t3 -47.5q0 -55 -30.5 -132t-106.5 -237z" />
<glyph unicode="&#x110;" horiz-adv-x="2564" d="M82 1163q0 127 66.5 234.5t182 170t257.5 62.5h1026q229 0 436 -120.5t333 -330.5t126 -460q0 -287 -131 -506t-341 -338t-440 -119q-184 0 -322 83t-192 229v-58q0 -100 -52 -152.5t-152 -52.5h-211v17q88 0 137 63.5t49 161.5v1288q0 121 -68.5 194t-197.5 73 q-135 0 -243.5 -61.5t-171 -162t-62.5 -215.5q0 -98 39.5 -179t108.5 -127t153 -46q92 0 156.5 54.5t64.5 144.5q0 66 -38 113.5t-95 47.5q-47 0 -78 -26.5t-31 -67.5q0 -25 11.5 -46t25.5 -34l-6 -8q-49 29 -49 88q0 51 33.5 85t93.5 34q66 0 111.5 -51t45.5 -135 q0 -100 -71.5 -162t-173.5 -62q-90 0 -165 47.5t-120 133.5t-45 196zM571 709v41h725v-41h-725zM1083 236q0 -119 65.5 -222.5t183.5 -166t265 -62.5q201 0 348.5 105.5t227.5 308t80 489.5q0 250 -81 457t-252 332t-429 125h-408v-1201q43 109 133.5 168.5t200.5 59.5 q111 0 185.5 -63.5t74.5 -172.5q0 -86 -52 -141t-122 -55q-59 0 -93 33.5t-34 84.5q0 59 49 88l7 -8q-14 -12 -25.5 -33.5t-11.5 -46.5q0 -41 30.5 -67.5t77.5 -26.5q61 0 103.5 52.5t42.5 119.5q0 92 -68 151.5t-164 59.5q-90 0 -166.5 -48t-122 -132t-45.5 -188z" />
<glyph unicode="&#x111;" horiz-adv-x="1191" d="M100 526q0 178 62.5 304t168 189.5t232.5 63.5q78 0 142.5 -29.5t103.5 -90.5v397q0 94 -35 137t-121 43v43q66 -6 127 -6q129 0 213 29v-1383q0 -94 35 -137t121 -43v-43q-63 6 -127 6q-129 0 -213 -29v183q-37 -92 -110.5 -140.5t-180.5 -48.5q-197 0 -308.5 141.5 t-109.5 413.5zM299 526q-2 -246 69.5 -369.5t209.5 -123.5q79 0 142.5 61.5t88.5 173.5v611q-55 158 -229 157q-127 0 -205 -130t-76 -380zM449 1245v41h725v-41h-725z" />
<glyph unicode="&#x112;" horiz-adv-x="2082" d="M82 1163q0 127 66.5 234.5t182 170t257.5 62.5h1366l20 -241h-16q-33 74 -69 118.5t-97 69.5t-162 25h-547v-723h363q98 0 161.5 49t63.5 137h17v-401h-17q0 88 -63.5 137t-161.5 49h-363v-827q0 -82 34 -135.5t108 -53.5h454q147 0 224 52.5t125 160.5h16l-41 -242 h-1335v17q88 0 137 63.5t49 161.5v1288q0 121 -68.5 194t-197.5 73q-135 0 -243.5 -61.5t-171 -162t-62.5 -215.5q0 -98 39.5 -179t108.5 -127t153 -46q92 0 156.5 54.5t64.5 144.5q0 66 -38 113.5t-95 47.5q-47 0 -78 -26.5t-31 -67.5q0 -25 11.5 -46t25.5 -34l-6 -8 q-49 29 -49 88q0 51 33.5 85t93.5 34q66 0 111.5 -51t45.5 -135q0 -100 -71.5 -162t-173.5 -62q-90 0 -165 47.5t-120 133.5t-45 196zM920 1751v51h720v-51h-720z" />
<glyph unicode="&#x113;" horiz-adv-x="1036" d="M94 502q0 178 57.5 309t162 201.5t243.5 70.5q184 0 283.5 -111.5t99.5 -338.5h-641q-6 -57 -6 -131q0 -135 44 -235.5t116.5 -155t152.5 -54.5q98 0 174 47.5t127 157.5l41 -16q-37 -113 -138 -194t-245 -81q-145 0 -251.5 66.5t-163 186.5t-56.5 278zM229 1407v51h639 v-51h-639zM297 672h446q4 160 -46 266t-148 106q-96 0 -166 -94t-86 -278z" />
<glyph unicode="&#x114;" horiz-adv-x="2109" d="M82 1163q0 127 66.5 234.5t182 170t257.5 62.5h1366l20 -241h-16q-33 74 -69 118.5t-97 69.5t-162 25h-547v-723h363q98 0 161.5 49t63.5 137h17v-401h-17q0 88 -63.5 137t-161.5 49h-363v-827q0 -82 34 -135.5t108 -53.5h454q147 0 224 52.5t125 160.5h16l-41 -242 h-1335v17q88 0 137 63.5t49 161.5v1288q0 121 -68.5 194t-197.5 73q-135 0 -243.5 -61.5t-171 -162t-62.5 -215.5q0 -98 39.5 -179t108.5 -127t153 -46q92 0 156.5 54.5t64.5 144.5q0 66 -38 113.5t-95 47.5q-47 0 -78 -26.5t-31 -67.5q0 -25 11.5 -46t25.5 -34l-6 -8 q-49 29 -49 88q0 51 33.5 85t93.5 34q66 0 111.5 -51t45.5 -135q0 -100 -71.5 -162t-173.5 -62q-90 0 -165 47.5t-120 133.5t-45 196zM924 1997l26 20q57 -55 152.5 -93t228.5 -38t229.5 39t153.5 94l25 -22q-59 -96 -162.5 -167t-245.5 -71q-141 0 -244.5 71t-162.5 167z " />
<glyph unicode="&#x115;" horiz-adv-x="1036" d="M94 502q0 178 57.5 309t162 201.5t243.5 70.5q184 0 283.5 -111.5t99.5 -338.5h-641q-6 -57 -6 -131q0 -135 44 -235.5t116.5 -155t152.5 -54.5q98 0 174 47.5t127 157.5l41 -16q-37 -113 -138 -194t-245 -81q-145 0 -251.5 66.5t-163 186.5t-56.5 278zM186 1595l35 19 q119 -197 332 -197t332 197l35 -19q-51 -123 -144.5 -211t-222.5 -88t-222 88.5t-145 210.5zM297 672h446q4 160 -46 266t-148 106q-96 0 -166 -94t-86 -278z" />
<glyph unicode="&#x116;" horiz-adv-x="2088" d="M82 1163q0 127 66.5 234.5t182 170t257.5 62.5h1366l20 -241h-16q-33 74 -69 118.5t-97 69.5t-162 25h-547v-723h363q98 0 161.5 49t63.5 137h17v-401h-17q0 88 -63.5 137t-161.5 49h-363v-827q0 -82 34 -135.5t108 -53.5h454q147 0 224 52.5t125 160.5h16l-41 -242 h-1335v17q88 0 137 63.5t49 161.5v1288q0 121 -68.5 194t-197.5 73q-135 0 -243.5 -61.5t-171 -162t-62.5 -215.5q0 -98 39.5 -179t108.5 -127t153 -46q92 0 156.5 54.5t64.5 144.5q0 66 -38 113.5t-95 47.5q-47 0 -78 -26.5t-31 -67.5q0 -25 11.5 -46t25.5 -34l-6 -8 q-49 29 -49 88q0 51 33.5 85t93.5 34q66 0 111.5 -51t45.5 -135q0 -100 -71.5 -162t-173.5 -62q-90 0 -165 47.5t-120 133.5t-45 196zM1241 1878q0 53 39 92t92 39t92 -39t39 -92t-39 -92t-92 -39t-92 39t-39 92z" />
<glyph unicode="&#x117;" horiz-adv-x="1036" d="M94 502q0 178 57.5 309t162 201.5t243.5 70.5q184 0 283.5 -111.5t99.5 -338.5h-641q-6 -57 -6 -131q0 -135 44 -235.5t116.5 -155t152.5 -54.5q98 0 174 47.5t127 157.5l41 -16q-37 -113 -138 -194t-245 -81q-145 0 -251.5 66.5t-163 186.5t-56.5 278zM297 672h446 q4 160 -46 266t-148 106q-96 0 -166 -94t-86 -278zM424 1436q0 53 39 92t92 39t92 -39t39 -92t-39 -92t-92 -39t-92 38.5t-39 92.5z" />
<glyph unicode="&#x118;" horiz-adv-x="2088" d="M82 1163q0 127 66.5 234.5t182 170t257.5 62.5h1366l20 -241h-16q-33 74 -69 118.5t-97 69.5t-162 25h-547v-723h363q98 0 161.5 49t63.5 137h17v-401h-17q0 88 -63.5 137t-161.5 49h-363v-827q0 -82 34 -135.5t108 -53.5h454q147 0 224 52.5t125 160.5h16l-41 -242 h-1335v17q88 0 137 63.5t49 161.5v1288q0 121 -68.5 194t-197.5 73q-135 0 -243.5 -61.5t-171 -162t-62.5 -215.5q0 -98 39.5 -179t108.5 -127t153 -46q92 0 156.5 54.5t64.5 144.5q0 66 -38 113.5t-95 47.5q-47 0 -78 -26.5t-31 -67.5q0 -25 11.5 -46t25.5 -34l-6 -8 q-49 29 -49 88q0 51 33.5 85t93.5 34q66 0 111.5 -51t45.5 -135q0 -100 -71.5 -162t-173.5 -62q-90 0 -165 47.5t-120 133.5t-45 196zM721 -451q0 80 73.5 146.5t209.5 111.5h77q-110 -28 -160.5 -84.5t-50.5 -117.5q0 -41 24 -65.5t64 -24.5q37 0 71 19.5t54 47.5l31 -26 q-92 -139 -231 -140q-74 0 -118 37t-44 96z" />
<glyph unicode="&#x119;" horiz-adv-x="1036" d="M94 502q0 178 57.5 309t162 201.5t243.5 70.5q184 0 283.5 -111.5t99.5 -338.5h-641q-6 -57 -6 -131q0 -135 44 -235.5t116.5 -155t152.5 -54.5q98 0 174 47.5t127 157.5l41 -16q-37 -113 -138 -194t-245 -81q-145 0 -251.5 66.5t-163 186.5t-56.5 278zM297 672h446 q4 160 -46 266t-148 106q-96 0 -166 -94t-86 -278zM379 -252q0 80 73.5 146.5t209.5 111.5h65q-6 -6 -20 -10q-178 -76 -179 -193q0 -41 23.5 -65.5t64.5 -24.5q37 0 71 19.5t54 48.5l31 -27q-92 -139 -231 -139q-74 0 -118 37t-44 96z" />
<glyph unicode="&#x11a;" horiz-adv-x="2093" d="M82 1163q0 127 66.5 234.5t182 170t257.5 62.5h1366l20 -241h-16q-33 74 -69 118.5t-97 69.5t-162 25h-547v-723h363q98 0 161.5 49t63.5 137h17v-401h-17q0 88 -63.5 137t-161.5 49h-363v-827q0 -82 34 -135.5t108 -53.5h454q147 0 224 52.5t125 160.5h16l-41 -242 h-1335v17q88 0 137 63.5t49 161.5v1288q0 121 -68.5 194t-197.5 73q-135 0 -243.5 -61.5t-171 -162t-62.5 -215.5q0 -98 39.5 -179t108.5 -127t153 -46q92 0 156.5 54.5t64.5 144.5q0 66 -38 113.5t-95 47.5q-47 0 -78 -26.5t-31 -67.5q0 -25 11.5 -46t25.5 -34l-6 -8 q-49 29 -49 88q0 51 33.5 85t93.5 34q66 0 111.5 -51t45.5 -135q0 -100 -71.5 -162t-173.5 -62q-90 0 -165 47.5t-120 133.5t-45 196zM909 2032l11 28q123 -27 242.5 -65.5t189.5 -77.5q57 39 154.5 78t195.5 65l10 -28q-131 -45 -232.5 -118t-150.5 -153h-37 q-49 80 -150.5 153t-232.5 118z" />
<glyph unicode="&#x11b;" horiz-adv-x="1036" d="M94 502q0 178 57.5 309t162 201.5t243.5 70.5q184 0 283.5 -111.5t99.5 -338.5h-641q-6 -57 -6 -131q0 -135 44 -235.5t116.5 -155t152.5 -54.5q98 0 174 47.5t127 157.5l41 -16q-37 -113 -138 -194t-245 -81q-145 0 -251.5 66.5t-163 186.5t-56.5 278zM174 1614l16 28 q111 -39 216.5 -94t168.5 -110q51 55 134.5 110.5t169.5 93.5l16 -28q-117 -57 -208 -152.5t-134 -199.5h-37q-43 104 -134 199t-208 153zM297 672h446q4 160 -46 266t-148 106q-96 0 -166 -94t-86 -278z" />
<glyph unicode="&#x11c;" horiz-adv-x="1982" d="M123 719q0 272 127 491.5t353 344t509 124.5q125 0 228.5 -31.5t224.5 -84.5q96 -43 125 -43t49 18t20 45h19v-502h-19q-23 164 -115 294t-232 203t-300 73q-201 0 -364.5 -133.5t-257 -349.5t-93.5 -449q0 -244 77 -458t226.5 -345t358.5 -131q147 0 269 67.5 t192.5 160.5t70.5 161v512q0 57 -54 100t-137 65.5t-163 22.5q-127 0 -228.5 -47t-159.5 -131t-58 -186q0 -88 39.5 -161t109.5 -114.5t156 -41.5q100 0 169.5 59t69.5 151q0 68 -40 117t-101 49q-47 0 -78 -26.5t-31 -67.5q0 -23 11.5 -45t25.5 -35l-6 -8q-49 29 -49 88 q0 53 34 86t93 33q70 0 120 -53.5t50 -137.5q0 -102 -79 -168.5t-189 -66.5q-92 0 -168 41t-121 117.5t-45 183.5q0 115 61.5 204t170 137t243.5 48q86 0 152.5 -10t152.5 -33q104 -25 190.5 -38t209.5 -13v-17q-86 0 -116 -58t-30 -167v-557q-47 0 -95 -20.5t-130 -67.5 q-133 -76 -247 -119t-265 -43q-281 0 -493 129t-327.5 349.5t-115.5 484.5zM782 1782q131 45 232.5 117.5t150.5 152.5h37q49 -80 150.5 -152.5t232.5 -117.5l-10 -29q-123 27 -243 66t-189 77q-57 -39 -154.5 -77.5t-195.5 -65.5z" />
<glyph unicode="&#x11d;" horiz-adv-x="1081" d="M18 -170q0 70 56.5 121t156.5 80l13 -33q-45 -14 -72 -57t-27 -97q0 -94 85 -144t229 -50q158 0 270.5 60.5t112.5 187.5q0 74 -52.5 114.5t-185.5 40.5h-151q-121 0 -194 31t-73 123q0 63 46.5 120.5t152.5 112.5q-135 14 -216 94t-81 226q0 162 98.5 242.5t259.5 80.5 q193 0 285 -106q39 55 98.5 91t118.5 36q53 0 86 -31t33 -88t-31.5 -86t-70.5 -29q-37 0 -62.5 25t-25.5 72q0 41 20 94q-53 -23 -84 -50.5t-55 -68.5q47 -72 47 -182q0 -162 -98.5 -243t-260.5 -81h-2q-68 -39 -102.5 -71.5t-34.5 -73.5q0 -66 99 -66h256q139 0 230 -60.5 t91 -180.5q0 -98 -63.5 -182.5t-186.5 -135.5t-297 -51q-178 0 -298 54.5t-120 160.5zM129 1290q117 57 208 152.5t134 199.5h37q43 -104 134 -199t208 -153l-16 -28q-111 39 -216.5 94t-168.5 110q-51 -55 -134.5 -110.5t-169.5 -93.5zM281 760q0 -158 42 -222.5t123 -64.5 q82 0 124 64.5t42 222.5t-42 222.5t-124 64.5t-123.5 -64.5t-41.5 -222.5z" />
<glyph unicode="&#x11e;" horiz-adv-x="1976" d="M123 719q0 272 127 491.5t353 344t509 124.5q125 0 228.5 -31.5t224.5 -84.5q96 -43 125 -43t49 18t20 45h19v-502h-19q-23 164 -115 294t-232 203t-300 73q-201 0 -364.5 -133.5t-257 -349.5t-93.5 -449q0 -244 77 -458t226.5 -345t358.5 -131q147 0 269 67.5 t192.5 160.5t70.5 161v512q0 57 -54 100t-137 65.5t-163 22.5q-127 0 -228.5 -47t-159.5 -131t-58 -186q0 -88 39.5 -161t109.5 -114.5t156 -41.5q100 0 169.5 59t69.5 151q0 68 -40 117t-101 49q-47 0 -78 -26.5t-31 -67.5q0 -23 11.5 -45t25.5 -35l-6 -8q-49 29 -49 88 q0 53 34 86t93 33q70 0 120 -53.5t50 -137.5q0 -102 -79 -168.5t-189 -66.5q-92 0 -168 41t-121 117.5t-45 183.5q0 115 61.5 204t170 137t243.5 48q86 0 152.5 -10t152.5 -33q104 -25 190.5 -38t209.5 -13v-17q-86 0 -116 -58t-30 -167v-557q-47 0 -95 -20.5t-130 -67.5 q-133 -76 -247 -119t-265 -43q-281 0 -493 129t-327.5 349.5t-115.5 484.5zM700 2015l27 21q57 -55 152.5 -93t228.5 -38t229.5 38.5t153.5 94.5l25 -23q-59 -96 -163 -166.5t-245 -70.5t-244.5 70.5t-163.5 166.5z" />
<glyph unicode="&#x11f;" horiz-adv-x="1081" d="M18 -170q0 70 56.5 121t156.5 80l13 -33q-45 -14 -72 -57t-27 -97q0 -94 85 -144t229 -50q158 0 270.5 60.5t112.5 187.5q0 74 -52.5 114.5t-185.5 40.5h-151q-121 0 -194 31t-73 123q0 63 46.5 120.5t152.5 112.5q-135 14 -216 94t-81 226q0 162 98.5 242.5t259.5 80.5 q193 0 285 -106q39 55 98.5 91t118.5 36q53 0 86 -31t33 -88t-31.5 -86t-70.5 -29q-37 0 -62.5 25t-25.5 72q0 41 20 94q-53 -23 -84 -50.5t-55 -68.5q47 -72 47 -182q0 -162 -98.5 -243t-260.5 -81h-2q-68 -39 -102.5 -71.5t-34.5 -73.5q0 -66 99 -66h256q139 0 230 -60.5 t91 -180.5q0 -98 -63.5 -182.5t-186.5 -135.5t-297 -51q-178 0 -298 54.5t-120 160.5zM121 1595l35 19q119 -197 331 -197q213 0 332 197l35 -19q-51 -123 -144.5 -211t-222.5 -88t-222 88.5t-144 210.5zM281 760q0 -158 42 -222.5t123 -64.5q82 0 124 64.5t42 222.5 t-42 222.5t-124 64.5t-123.5 -64.5t-41.5 -222.5z" />
<glyph unicode="&#x120;" horiz-adv-x="1982" d="M123 719q0 272 127 491.5t353 344t509 124.5q125 0 228.5 -31.5t224.5 -84.5q96 -43 125 -43t49 18t20 45h19v-502h-19q-23 164 -115 294t-232 203t-300 73q-201 0 -364.5 -133.5t-257 -349.5t-93.5 -449q0 -244 77 -458t226.5 -345t358.5 -131q147 0 269 67.5 t192.5 160.5t70.5 161v512q0 57 -54 100t-137 65.5t-163 22.5q-127 0 -228.5 -47t-159.5 -131t-58 -186q0 -88 39.5 -161t109.5 -114.5t156 -41.5q100 0 169.5 59t69.5 151q0 68 -40 117t-101 49q-47 0 -78 -26.5t-31 -67.5q0 -23 11.5 -45t25.5 -35l-6 -8q-49 29 -49 88 q0 53 34 86t93 33q70 0 120 -53.5t50 -137.5q0 -102 -79 -168.5t-189 -66.5q-92 0 -168 41t-121 117.5t-45 183.5q0 115 61.5 204t170 137t243.5 48q86 0 152.5 -10t152.5 -33q104 -25 190.5 -38t209.5 -13v-17q-86 0 -116 -58t-30 -167v-557q-47 0 -95 -20.5t-130 -67.5 q-133 -76 -247 -119t-265 -43q-281 0 -493 129t-327.5 349.5t-115.5 484.5zM954 1911q0 53 39 92t92 39q54 0 93 -39t39 -92t-39 -92t-93 -39q-53 0 -92 39t-39 92z" />
<glyph unicode="&#x121;" horiz-adv-x="1081" d="M18 -170q0 70 56.5 121t156.5 80l13 -33q-45 -14 -72 -57t-27 -97q0 -94 85 -144t229 -50q158 0 270.5 60.5t112.5 187.5q0 74 -52.5 114.5t-185.5 40.5h-151q-121 0 -194 31t-73 123q0 63 46.5 120.5t152.5 112.5q-135 14 -216 94t-81 226q0 162 98.5 242.5t259.5 80.5 q193 0 285 -106q39 55 98.5 91t118.5 36q53 0 86 -31t33 -88t-31.5 -86t-70.5 -29q-37 0 -62.5 25t-25.5 72q0 41 20 94q-53 -23 -84 -50.5t-55 -68.5q47 -72 47 -182q0 -162 -98.5 -243t-260.5 -81h-2q-68 -39 -102.5 -71.5t-34.5 -73.5q0 -66 99 -66h256q139 0 230 -60.5 t91 -180.5q0 -98 -63.5 -182.5t-186.5 -135.5t-297 -51q-178 0 -298 54.5t-120 160.5zM281 760q0 -158 42 -222.5t123 -64.5q82 0 124 64.5t42 222.5t-42 222.5t-124 64.5t-123.5 -64.5t-41.5 -222.5zM358 1436q0 53 39 92t92 39q54 0 93 -39t39 -92t-39 -92t-93 -39 q-53 0 -92 38.5t-39 92.5z" />
<glyph unicode="&#x122;" horiz-adv-x="1976" d="M123 719q0 272 127 491.5t353 344t509 124.5q125 0 228.5 -31.5t224.5 -84.5q96 -43 125 -43t49 18t20 45h19v-502h-19q-23 164 -115 294t-232 203t-300 73q-201 0 -364.5 -133.5t-257 -349.5t-93.5 -449q0 -244 77 -458t226.5 -345t358.5 -131q147 0 269 67.5 t192.5 160.5t70.5 161v512q0 57 -54 100t-137 65.5t-163 22.5q-127 0 -228.5 -47t-159.5 -131t-58 -186q0 -88 39.5 -161t109.5 -114.5t156 -41.5q100 0 169.5 59t69.5 151q0 68 -40 117t-101 49q-47 0 -78 -26.5t-31 -67.5q0 -23 11.5 -45t25.5 -35l-6 -8q-49 29 -49 88 q0 53 34 86t93 33q70 0 120 -53.5t50 -137.5q0 -102 -79 -168.5t-189 -66.5q-92 0 -168 41t-121 117.5t-45 183.5q0 115 61.5 204t170 137t243.5 48q86 0 152.5 -10t152.5 -33q104 -25 190.5 -38t209.5 -13v-17q-86 0 -116 -58t-30 -167v-557q-47 0 -95 -20.5t-130 -67.5 q-133 -76 -247 -119t-265 -43q-281 0 -493 129t-327.5 349.5t-115.5 484.5zM961 -410q0 45 33.5 77t80.5 32q60 0 96.5 -41t36.5 -102q0 -78 -36.5 -126t-131.5 -83l-14 37q53 16 91 50t36 79q-37 -33 -86 -33q-47 0 -76.5 29.5t-29.5 80.5z" />
<glyph unicode="&#x123;" horiz-adv-x="1034" d="M18 -170q0 70 56.5 121t156.5 80l13 -33q-45 -14 -72 -57t-27 -97q0 -94 85 -144t229 -50q158 0 270.5 60.5t112.5 187.5q0 74 -52.5 114.5t-185.5 40.5h-151q-121 0 -194 31t-73 123q0 63 46.5 120.5t152.5 112.5q-135 14 -216 94t-81 226q0 162 98.5 242.5t259.5 80.5 q193 0 285 -106q39 55 98.5 91t118.5 36q53 0 86 -31t33 -88t-31.5 -86t-70.5 -29q-37 0 -62.5 25t-25.5 72q0 41 20 94q-53 -23 -84 -50.5t-55 -68.5q47 -72 47 -182q0 -162 -98.5 -243t-260.5 -81h-2q-68 -39 -102.5 -71.5t-34.5 -73.5q0 -66 99 -66h256q139 0 230 -60.5 t91 -180.5q0 -98 -63.5 -182.5t-186.5 -135.5t-297 -51q-178 0 -298 54.5t-120 160.5zM281 760q0 -158 42 -222.5t123 -64.5q82 0 124 64.5t42 222.5t-42 222.5t-124 64.5t-123.5 -64.5t-41.5 -222.5zM342 1450q0 78 37 126t131 83l14 -37q-53 -16 -91 -50t-36 -79 q37 33 86 33q47 0 77 -30t30 -81q0 -45 -34 -76.5t-81 -31.5q-59 0 -96 41t-37 102z" />
<glyph unicode="&#x124;" horiz-adv-x="2318" d="M82 1163q0 127 66.5 234.5t182 170t257.5 62.5h682v-16q-88 0 -137.5 -63.5t-49.5 -161.5v-582h783v582q0 98 -49.5 161.5t-137.5 63.5v16h602v-16q-88 0 -137 -63.5t-49 -161.5v-1342q0 -98 49 -161.5t137 -63.5v-17h-602v17q88 0 137.5 63.5t49.5 161.5v731h-783v-731 q0 -98 49.5 -161.5t137.5 -63.5v-17h-602v17q88 0 137 63.5t49 161.5v1288q0 121 -68.5 194t-197.5 73q-135 0 -243.5 -61.5t-171 -162t-62.5 -215.5q0 -98 39.5 -179t108.5 -127t153 -46q92 0 156.5 54.5t64.5 144.5q0 66 -38 113.5t-95 47.5q-47 0 -78 -26.5t-31 -67.5 q0 -25 11.5 -46t25.5 -34l-6 -8q-49 29 -49 88q0 51 33.5 85t93.5 34q66 0 111.5 -51t45.5 -135q0 -100 -71.5 -162t-173.5 -62q-90 0 -165 47.5t-120 133.5t-45 196zM1051 1792q131 45 232 117.5t151 152.5h36q50 -80 151 -152.5t232 -117.5l-10 -29q-123 27 -242.5 66 t-189.5 78q-57 -39 -154.5 -78t-195.5 -66z" />
<glyph unicode="&#x125;" horiz-adv-x="1204" d="M41 0v43q86 0 121 31.5t35 115.5v1168q0 94 -35 137t-121 43v43q66 -6 127 -6q129 0 213 29v-766q51 129 142 187t206 58q143 0 217 -77q39 -41 55.5 -102.5t16.5 -166.5v-547q0 -84 34.5 -115.5t121.5 -31.5v-43q-188 8 -246 8q-57 0 -230 -8v43q76 0 106 31.5t30 115.5 v592q0 115 -33 175.5t-133 60.5q-84 0 -148.5 -47t-101.5 -132t-37 -192v-457q0 -84 29.5 -115.5t105.5 -31.5v-43q-172 8 -229 8t-246 -8zM176 1737q131 45 232.5 117.5t150.5 152.5h37q49 -80 150.5 -152.5t232.5 -117.5l-10 -29q-123 27 -243 65.5t-189 77.5 q-57 -39 -154.5 -77.5t-196.5 -65.5z" />
<glyph unicode="&#x126;" horiz-adv-x="2312" d="M82 1163q0 127 66.5 234.5t182 170t257.5 62.5h682v-16q-88 0 -137.5 -63.5t-49.5 -161.5v-582h783v582q0 98 -49.5 161.5t-137.5 63.5v16h602v-16q-88 0 -137 -63.5t-49 -161.5v-1342q0 -98 49 -161.5t137 -63.5v-17h-602v17q88 0 137.5 63.5t49.5 161.5v731h-783v-731 q0 -98 49.5 -161.5t137.5 -63.5v-17h-602v17q88 0 137 63.5t49 161.5v1288q0 121 -68.5 194t-197.5 73q-135 0 -243.5 -61.5t-171 -162t-62.5 -215.5q0 -98 39.5 -179t108.5 -127t153 -46q92 0 156.5 54.5t64.5 144.5q0 66 -38 113.5t-95 47.5q-47 0 -78 -26.5t-31 -67.5 q0 -25 11.5 -46t25.5 -34l-6 -8q-49 29 -49 88q0 51 33.5 85t93.5 34q66 0 111.5 -51t45.5 -135q0 -100 -71.5 -162t-173.5 -62q-90 0 -165 47.5t-120 133.5t-45 196zM782 1051v41h1379v-41h-1379z" />
<glyph unicode="&#x127;" horiz-adv-x="1204" d="M18 1245v41h725v-41h-725zM41 0v43q86 0 121 31.5t35 115.5v1168q0 94 -35 137t-121 43v43q66 -6 127 -6q129 0 213 29v-766q51 129 142 187t206 58q143 0 217 -77q39 -41 55.5 -102.5t16.5 -166.5v-547q0 -84 34.5 -115.5t121.5 -31.5v-43q-188 8 -246 8q-57 0 -230 -8 v43q76 0 106 31.5t30 115.5v592q0 115 -33 175.5t-133 60.5q-84 0 -148.5 -47t-101.5 -132t-37 -192v-457q0 -84 29.5 -115.5t105.5 -31.5v-43q-172 8 -229 8t-246 -8z" />
<glyph unicode="&#x128;" horiz-adv-x="1306" d="M82 1163q0 127 66.5 234.5t182 170t257.5 62.5h682v-16q-88 0 -137.5 -63.5t-49.5 -161.5v-1342q0 -98 49.5 -161.5t137.5 -63.5v-17h-602v17q88 0 137 63.5t49 161.5v1288q0 121 -68.5 194t-197.5 73q-135 0 -243.5 -61.5t-171 -162t-62.5 -215.5q0 -98 39.5 -179 t108.5 -127t153 -46q92 0 156.5 54.5t64.5 144.5q0 66 -38 113.5t-95 47.5q-47 0 -78 -26.5t-31 -67.5q0 -25 11.5 -46t25.5 -34l-6 -8q-49 29 -49 88q0 51 33.5 85t93.5 34q66 0 111.5 -51t45.5 -135q0 -100 -71.5 -162t-173.5 -62q-90 0 -165 47.5t-120 133.5t-45 196z M469 1796q8 98 73.5 157.5t153.5 59.5q52 0 97 -20.5t108 -61.5q72 -41 110 -58.5t83 -17.5q94 0 127 115l30 -6q-8 -98 -73.5 -157.5t-153.5 -59.5q-51 0 -96 20.5t-109 61.5q-72 41 -109.5 58.5t-82.5 17.5q-47 0 -78 -26t-49 -89z" />
<glyph unicode="&#x129;" horiz-adv-x="600" d="M-106 1362q31 109 95 160t148 51q51 0 90 -19.5t82 -54.5q41 -31 71 -46t66 -15q92 0 158 108l29 -14q-31 -109 -95.5 -160t-146.5 -51q-53 0 -90 18.5t-84 55.5q-43 33 -71.5 48t-65.5 15q-90 0 -158 -110zM59 0v43q86 0 121 31.5t35 115.5v641q0 94 -35 137.5 t-121 43.5v43q66 -6 127 -6q129 0 213 28v-887q0 -84 35 -115.5t121 -31.5v-43q-188 8 -248 8q-59 0 -248 -8z" />
<glyph unicode="&#x12a;" horiz-adv-x="1312" d="M82 1163q0 127 66.5 234.5t182 170t257.5 62.5h682v-16q-88 0 -137.5 -63.5t-49.5 -161.5v-1342q0 -98 49.5 -161.5t137.5 -63.5v-17h-602v17q88 0 137 63.5t49 161.5v1288q0 121 -68.5 194t-197.5 73q-135 0 -243.5 -61.5t-171 -162t-62.5 -215.5q0 -98 39.5 -179 t108.5 -127t153 -46q92 0 156.5 54.5t64.5 144.5q0 66 -38 113.5t-95 47.5q-47 0 -78 -26.5t-31 -67.5q0 -25 11.5 -46t25.5 -34l-6 -8q-49 29 -49 88q0 51 33.5 85t93.5 34q66 0 111.5 -51t45.5 -135q0 -100 -71.5 -162t-173.5 -62q-90 0 -165 47.5t-120 133.5t-45 196z M532 1763v52h721v-52h-721z" />
<glyph unicode="&#x12b;" horiz-adv-x="600" d="M-23 1407v51h598v-51h-598zM59 0v43q86 0 121 31.5t35 115.5v641q0 94 -35 137.5t-121 43.5v43q66 -6 127 -6q129 0 213 28v-887q0 -84 35 -115.5t121 -31.5v-43q-188 8 -248 8q-59 0 -248 -8z" />
<glyph unicode="&#x12c;" horiz-adv-x="1323" d="M82 1163q0 127 66.5 234.5t182 170t257.5 62.5h682v-16q-88 0 -137.5 -63.5t-49.5 -161.5v-1342q0 -98 49.5 -161.5t137.5 -63.5v-17h-602v17q88 0 137 63.5t49 161.5v1288q0 121 -68.5 194t-197.5 73q-135 0 -243.5 -61.5t-171 -162t-62.5 -215.5q0 -98 39.5 -179 t108.5 -127t153 -46q92 0 156.5 54.5t64.5 144.5q0 66 -38 113.5t-95 47.5q-47 0 -78 -26.5t-31 -67.5q0 -25 11.5 -46t25.5 -34l-6 -8q-49 29 -49 88q0 51 33.5 85t93.5 34q66 0 111.5 -51t45.5 -135q0 -100 -71.5 -162t-173.5 -62q-90 0 -165 47.5t-120 133.5t-45 196z M496 1993l26 20q57 -55 152.5 -93t228.5 -38t229.5 39t153.5 94l25 -22q-59 -96 -163 -167t-245 -71t-244.5 70.5t-162.5 167.5z" />
<glyph unicode="&#x12d;" horiz-adv-x="600" d="M-80 1595l35 19q119 -197 332 -197t331 197l35 -19q-51 -123 -144 -211t-222 -88t-222.5 88.5t-144.5 210.5zM59 0v43q86 0 121 31.5t35 115.5v641q0 94 -35 137.5t-121 43.5v43q66 -6 127 -6q129 0 213 28v-887q0 -84 35 -115.5t121 -31.5v-43q-188 8 -248 8 q-59 0 -248 -8z" />
<glyph unicode="&#x12e;" horiz-adv-x="1312" d="M82 1163q0 127 66.5 234.5t182 170t257.5 62.5h682v-16q-88 0 -137.5 -63.5t-49.5 -161.5v-1342q0 -98 49.5 -161.5t137.5 -63.5v-17h-602v17q88 0 137 63.5t49 161.5v1288q0 121 -68.5 194t-197.5 73q-135 0 -243.5 -61.5t-171 -162t-62.5 -215.5q0 -98 39.5 -179 t108.5 -127t153 -46q92 0 156.5 54.5t64.5 144.5q0 66 -38 113.5t-95 47.5q-47 0 -78 -26.5t-31 -67.5q0 -25 11.5 -46t25.5 -34l-6 -8q-49 29 -49 88q0 51 33.5 85t93.5 34q66 0 111.5 -51t45.5 -135q0 -100 -71.5 -162t-173.5 -62q-90 0 -165 47.5t-120 133.5t-45 196z M674 -451q0 80 73.5 146.5t208.5 111.5h78q-110 -28 -160.5 -84.5t-50.5 -117.5q0 -41 23.5 -65.5t64.5 -24.5q37 0 71 19.5t54 47.5l31 -26q-92 -139 -231 -140q-74 0 -118 37t-44 96z" />
<glyph unicode="&#x12f;" horiz-adv-x="600" d="M59 0v43q86 0 121 31.5t35 115.5v641q0 94 -35 137.5t-121 43.5v43q66 -6 127 -6q129 0 213 28v-887q0 -84 35 -115.5t121 -31.5v-43q-188 8 -248 8q-59 0 -248 -8zM158 1436q0 53 39 92t92 39t92 -39t39 -92t-39 -92t-92 -39t-92 38.5t-39 92.5zM184 -252q0 80 74 146.5 t209 111.5h65q-6 -6 -20 -10q-178 -76 -178 -193q0 -41 23.5 -65.5t64.5 -24.5q37 0 70.5 19.5t54.5 48.5l31 -27q-92 -139 -232 -139q-74 0 -118 37t-44 96z" />
<glyph unicode="&#x130;" horiz-adv-x="1306" d="M82 1163q0 127 66.5 234.5t182 170t257.5 62.5h682v-16q-88 0 -137.5 -63.5t-49.5 -161.5v-1342q0 -98 49.5 -161.5t137.5 -63.5v-17h-602v17q88 0 137 63.5t49 161.5v1288q0 121 -68.5 194t-197.5 73q-135 0 -243.5 -61.5t-171 -162t-62.5 -215.5q0 -98 39.5 -179 t108.5 -127t153 -46q92 0 156.5 54.5t64.5 144.5q0 66 -38 113.5t-95 47.5q-47 0 -78 -26.5t-31 -67.5q0 -25 11.5 -46t25.5 -34l-6 -8q-49 29 -49 88q0 51 33.5 85t93.5 34q66 0 111.5 -51t45.5 -135q0 -100 -71.5 -162t-173.5 -62q-90 0 -165 47.5t-120 133.5t-45 196z M801 1896q0 53 39 92.5t92 39.5t92 -39t39 -93q0 -53 -39 -92t-92 -39t-92 39t-39 92z" />
<glyph unicode="&#x131;" horiz-adv-x="600" d="M59 0v43q86 0 121 31.5t35 115.5v641q0 94 -35 137.5t-121 43.5v43q66 -6 127 -6q129 0 213 28v-887q0 -84 35 -115.5t121 -31.5v-43q-188 8 -248 8q-59 0 -248 -8z" />
<glyph unicode="&#x132;" horiz-adv-x="2181" d="M82 1163q0 127 66.5 234.5t182 170t257.5 62.5h682v-16q-88 0 -137.5 -63.5t-49.5 -161.5v-1342q0 -98 49.5 -161.5t137.5 -63.5v-17h-602v17q88 0 137 63.5t49 161.5v1288q0 121 -68.5 194t-197.5 73q-135 0 -243.5 -61.5t-171 -162t-62.5 -215.5q0 -98 39.5 -179 t108.5 -127t153 -46q92 0 156.5 54.5t64.5 144.5q0 66 -38 113.5t-95 47.5q-47 0 -78 -26.5t-31 -67.5q0 -25 11.5 -46t25.5 -34l-6 -8q-49 29 -49 88q0 51 33.5 85t93.5 34q66 0 111.5 -51t45.5 -135q0 -100 -71.5 -162t-173.5 -62q-90 0 -165 47.5t-120 133.5t-45 196z M760 115q0 121 47 218t136 153.5t212 56.5q121 0 202 -71t81 -173q0 -86 -52.5 -141.5t-123.5 -55.5q-59 0 -93 33t-34 86q0 59 49 88l6 -8q-14 -12 -25.5 -34.5t-11.5 -45.5q0 -41 30.5 -67.5t78.5 -26.5q61 0 104 52t43 120q0 96 -70.5 157.5t-183.5 61.5q-117 0 -200 -55 t-125 -147.5t-42 -200.5q0 -119 60.5 -227.5t168 -175t240.5 -66.5q147 0 239.5 84t131.5 200.5t39 225.5v1233q0 98 -49 161.5t-137 63.5v16h602v-16q-88 0 -137.5 -63.5t-49.5 -161.5v-1100q0 -170 -72.5 -322.5t-217 -249t-349.5 -96.5q-143 0 -256.5 67.5t-177 181.5 t-63.5 245z" />
<glyph unicode="&#x133;" horiz-adv-x="1150" d="M33 1012v43q63 -6 127 -6q129 0 213 28v-805q0 -78 9 -126t43 -78.5t103 -30.5q125 0 201 105.5t76 265.5v423q0 94 -35 137.5t-121 43.5v43q63 -6 127 -6q129 0 213 28v-841q0 -289 -73.5 -455t-268.5 -166q-82 0 -124 29.5t-42 85.5q0 45 27 72.5t74 27.5 q43 0 69.5 -23.5t26.5 -66.5q0 -63 -70 -92q12 -2 35 -2q88 0 125 60.5t37 199.5v325q-37 -123 -124 -191.5t-212 -68.5q-139 0 -213 78q-37 41 -52.5 104.5t-15.5 163.5v514q0 94 -34.5 137.5t-120.5 43.5zM121 1436q0 53 39 92t92 39t92 -39t39 -92t-39 -92t-92 -39 t-92 38.5t-39 92.5zM743 1436q0 53 39 92t92 39q54 0 93 -39t39 -92t-39 -92t-93 -39q-53 0 -92 38.5t-39 92.5z" />
<glyph unicode="&#x134;" horiz-adv-x="1476" d="M82 115q0 121 47 218t136 153.5t212 56.5q121 0 202 -71t81 -173q0 -86 -52.5 -141.5t-123.5 -55.5q-59 0 -93 33t-34 86q0 59 49 88l6 -8q-14 -12 -25.5 -34.5t-11.5 -45.5q0 -41 31 -67.5t78 -26.5q61 0 104 52t43 120q0 96 -70.5 157.5t-183.5 61.5q-117 0 -199.5 -55 t-124.5 -147.5t-42 -200.5q0 -119 60 -227.5t167.5 -175t241.5 -66.5q147 0 239 84t131 200.5t39 225.5v1233q0 98 -49 161.5t-137 63.5v16h602v-16q-88 0 -137 -63.5t-49 -161.5v-1100q0 -170 -73 -322.5t-217.5 -249t-348.5 -96.5q-143 0 -257 67.5t-177.5 181.5 t-63.5 245zM618 1782q131 45 232.5 117.5t150.5 152.5h37q49 -80 150.5 -152.5t232.5 -117.5l-10 -29q-123 27 -242.5 66t-189.5 77q-57 -39 -154.5 -77.5t-195.5 -65.5z" />
<glyph unicode="&#x135;" horiz-adv-x="546" d="M-86 1290q117 57 208 152.5t134 199.5h37q43 -104 134 -199t208 -153l-17 -28q-111 39 -216 94t-169 110q-51 -55 -134 -110.5t-169 -93.5zM-53 -354q125 6 189.5 108.5t64.5 284.5v792q0 94 -35 137.5t-121 43.5v43q63 -6 127 -6q129 0 213 28v-841q0 -340 -147 -496 q-55 -57 -130 -91t-161 -34v31z" />
<glyph unicode="&#x136;" horiz-adv-x="2068" d="M82 1163q0 127 66.5 234.5t182 170t257.5 62.5h682v-16q-88 0 -137.5 -63.5t-49.5 -161.5v-605l680 676q74 74 74 111q0 43 -88 43v16h354v-16q-66 0 -150.5 -44t-150.5 -112l-366 -366l422 -859q190 -387 403 -567t473 -180q332 0 610 203l13 -11q-113 -94 -274 -155.5 t-363 -61.5q-297 0 -513 103.5t-362.5 278.5t-265.5 421l-317 654l-179 -179v-692q0 -98 49.5 -161.5t137.5 -63.5v-17h-602v17q88 0 137 63.5t49 161.5v1288q0 121 -68.5 194t-197.5 73q-135 0 -243.5 -61.5t-171 -162t-62.5 -215.5q0 -98 39.5 -179t108.5 -127t153 -46 q92 0 156.5 54.5t64.5 144.5q0 66 -38 113.5t-95 47.5q-47 0 -78 -26.5t-31 -67.5q0 -25 11.5 -46t25.5 -34l-6 -8q-49 29 -49 88q0 51 33.5 85t93.5 34q66 0 111.5 -51t45.5 -135q0 -100 -71.5 -162t-173.5 -62q-90 0 -165 47.5t-120 133.5t-45 196zM850 -412q0 45 34 77 t81 32q59 0 96 -41t37 -102q0 -78 -37 -126.5t-131 -82.5l-15 37q53 16 91 49.5t36 79.5q-37 -33 -86 -33q-47 0 -76.5 29.5t-29.5 80.5z" />
<glyph unicode="&#x137;" horiz-adv-x="1126" d="M41 0v43q86 0 121 31.5t35 115.5v1170q0 94 -35 137t-121 43v43q66 -6 127 -6q129 0 213 29v-1016q59 8 99 27.5t77 56.5l152 157q66 68 65 113q0 35 -42 52.5t-109 17.5v41q143 -8 231 -8q96 0 178 8v-41q-100 -8 -184 -96l-250 -263l371 -505q39 -52 69.5 -76.5 t73.5 -30.5v-43q-123 8 -166 8q-55 0 -227 -8v43q29 0 46 11.5t17 27.5t-12 31l-235 344q-35 51 -67 68.5t-87 21.5v-357q0 -84 29.5 -115.5t105.5 -31.5v-43q-172 8 -227 8q-59 0 -248 -8zM446 -250q0 45 34 77t81 32q60 0 96.5 -41t36.5 -103q0 -78 -36.5 -126t-131.5 -83 l-14 37q53 16 91 50t36 79q-37 -33 -86 -32q-47 0 -77 29.5t-30 80.5z" />
<glyph unicode="&#x138;" horiz-adv-x="1153" d="M59 0v43q86 0 121 31.5t35 115.5v641q0 94 -35 137.5t-121 43.5v43q66 -6 127 -6q129 0 213 28v-534q51 8 86 28.5t74 61.5l244 268q29 31 28 57q0 27 -27.5 41.5t-80.5 14.5v41q109 -6 211 -6q84 0 137 6v-41q-57 -6 -96 -24.5t-88 -71.5l-299 -328l397 -434 q47 -52 81 -79.5t64 -33.5v-43q-123 8 -165 8q-55 0 -228 -8v43q29 0 47.5 12.5t18.5 28.5q0 14 -15 29l-274 303q-35 41 -60.5 61.5t-54.5 22.5v-310q0 -84 30 -115.5t106 -31.5v-43q-172 8 -228 8q-59 0 -248 -8z" />
<glyph unicode="&#x139;" horiz-adv-x="1925" d="M82 1163q0 127 66.5 234.5t182 170t257.5 62.5h682v-16q-88 0 -137.5 -63.5t-49.5 -161.5v-1555h330q139 0 239.5 79t153 196.5t52.5 230.5q0 147 -75 244.5t-204 97.5q-115 0 -182.5 -68.5t-67.5 -177.5q0 -88 56.5 -149.5t136.5 -61.5q66 0 112.5 44t46.5 106 q0 47 -26.5 77.5t-67.5 30.5q-23 0 -45 -11t-35 -26l-8 7q29 49 88 49q53 0 86 -34t33 -93q0 -72 -50 -123t-134 -51q-96 0 -159 67.5t-63 167.5q0 123 77 197t202 74q141 0 224 -102.5t83 -264.5q0 -86 -16.5 -155.5t-44.5 -159.5q-33 -94 -33 -131q0 -72 86 -72v-17h-1210 v17q88 0 137 63.5t49 161.5v1288q0 121 -68.5 194t-197.5 73q-135 0 -243.5 -61.5t-171 -162t-62.5 -215.5q0 -98 39.5 -179t108.5 -127t153 -46q92 0 156.5 54.5t64.5 144.5q0 66 -38 113.5t-95 47.5q-47 0 -78 -26.5t-31 -67.5q0 -25 11.5 -46t25.5 -34l-6 -8 q-49 29 -49 88q0 51 33.5 85t93.5 34q66 0 111.5 -51t45.5 -135q0 -100 -71.5 -162t-173.5 -62q-90 0 -165 47.5t-120 133.5t-45 196zM715 1790q84 63 144.5 117.5t74.5 66.5q76 72 125 105q32 20 61 20q39 0 64 -35q12 -18 12 -39q0 -45 -55 -79q-43 -27 -148 -66 q-154 -61 -264 -117z" />
<glyph unicode="&#x13a;" horiz-adv-x="585" d="M45 0v43q86 0 121 31.5t35 115.5v1170q0 94 -35 137t-121 43v43q63 -6 127 -6q129 0 213 29v-1416q0 -84 35 -115.5t121 -31.5v-43q-188 8 -248 8q-59 0 -248 -8zM168 1710q84 63 144.5 117.5t74.5 66.5q76 72 125 105q32 20 61 20q39 0 64 -34q12 -18 12 -39 q0 -45 -55 -80q-43 -27 -148 -66q-154 -61 -264 -117z" />
<glyph unicode="&#x13b;" horiz-adv-x="1925" d="M82 1163q0 127 66.5 234.5t182 170t257.5 62.5h682v-16q-88 0 -137.5 -63.5t-49.5 -161.5v-1555h330q139 0 239.5 79t153 196.5t52.5 230.5q0 147 -75 244.5t-204 97.5q-115 0 -182.5 -68.5t-67.5 -177.5q0 -88 56.5 -149.5t136.5 -61.5q66 0 112.5 44t46.5 106 q0 47 -26.5 77.5t-67.5 30.5q-23 0 -45 -11t-35 -26l-8 7q29 49 88 49q53 0 86 -34t33 -93q0 -72 -50 -123t-134 -51q-96 0 -159 67.5t-63 167.5q0 123 77 197t202 74q141 0 224 -102.5t83 -264.5q0 -86 -16.5 -155.5t-44.5 -159.5q-33 -94 -33 -131q0 -72 86 -72v-17h-1210 v17q88 0 137 63.5t49 161.5v1288q0 121 -68.5 194t-197.5 73q-135 0 -243.5 -61.5t-171 -162t-62.5 -215.5q0 -98 39.5 -179t108.5 -127t153 -46q92 0 156.5 54.5t64.5 144.5q0 66 -38 113.5t-95 47.5q-47 0 -78 -26.5t-31 -67.5q0 -25 11.5 -46t25.5 -34l-6 -8 q-49 29 -49 88q0 51 33.5 85t93.5 34q66 0 111.5 -51t45.5 -135q0 -100 -71.5 -162t-173.5 -62q-90 0 -165 47.5t-120 133.5t-45 196zM815 -397q0 45 34 76.5t81 31.5q59 0 96 -41t37 -102q0 -78 -37 -126t-131 -83l-14 37q53 16 91 50t36 79q-37 -33 -86 -33 q-47 0 -77 29.5t-30 81.5z" />
<glyph unicode="&#x13c;" horiz-adv-x="585" d="M45 0v43q86 0 121 31.5t35 115.5v1170q0 94 -35 137t-121 43v43q63 -6 127 -6q129 0 213 29v-1416q0 -84 35 -115.5t121 -31.5v-43q-188 8 -248 8q-59 0 -248 -8zM164 -250q0 45 33.5 77t81.5 32q59 0 96 -41t37 -103q0 -78 -37 -126t-131 -83l-15 37q53 16 91 50t36 79 q-37 -33 -86 -32q-47 0 -76.5 29.5t-29.5 80.5z" />
<glyph unicode="&#x13d;" horiz-adv-x="1925" d="M82 1163q0 127 66.5 234.5t182 170t257.5 62.5h682v-16q-88 0 -137.5 -63.5t-49.5 -161.5v-1555h330q139 0 239.5 79t153 196.5t52.5 230.5q0 147 -75 244.5t-204 97.5q-115 0 -182.5 -68.5t-67.5 -177.5q0 -88 56.5 -149.5t136.5 -61.5q66 0 112.5 44t46.5 106 q0 47 -26.5 77.5t-67.5 30.5q-23 0 -45 -11t-35 -26l-8 7q29 49 88 49q53 0 86 -34t33 -93q0 -72 -50 -123t-134 -51q-96 0 -159 67.5t-63 167.5q0 123 77 197t202 74q141 0 224 -102.5t83 -264.5q0 -86 -16.5 -155.5t-44.5 -159.5q-33 -94 -33 -131q0 -72 86 -72v-17h-1210 v17q88 0 137 63.5t49 161.5v1288q0 121 -68.5 194t-197.5 73q-135 0 -243.5 -61.5t-171 -162t-62.5 -215.5q0 -98 39.5 -179t108.5 -127t153 -46q92 0 156.5 54.5t64.5 144.5q0 66 -38 113.5t-95 47.5q-47 0 -78 -26.5t-31 -67.5q0 -25 11.5 -46t25.5 -34l-6 -8 q-49 29 -49 88q0 51 33.5 85t93.5 34q66 0 111.5 -51t45.5 -135q0 -100 -71.5 -162t-173.5 -62q-90 0 -165 47.5t-120 133.5t-45 196zM1384 1786v43q33 -4 84 -4q72 0 134 16q10 -25 10 -74q0 -59 -39 -144t-139 -265l-29 8q41 262 41 338q0 43 -12.5 62.5t-49.5 19.5z" />
<glyph unicode="&#x13e;" horiz-adv-x="585" d="M45 0v43q86 0 121 31.5t35 115.5v1170q0 94 -35 137t-121 43v43q63 -6 127 -6q129 0 213 29v-1416q0 -84 35 -115.5t121 -31.5v-43q-188 8 -248 8q-59 0 -248 -8zM559 1161q41 231 41 297q0 43 -8 62.5t-33 19.5v43l33 -2q57 0 123 25q4 -11 7 -36.5t3 -47.5 q0 -55 -30.5 -132t-106.5 -237z" />
<glyph unicode="&#x13f;" horiz-adv-x="1925" d="M82 1163q0 127 66.5 234.5t182 170t257.5 62.5h682v-16q-88 0 -137.5 -63.5t-49.5 -161.5v-1555h330q139 0 239.5 79t153 196.5t52.5 230.5q0 147 -75 244.5t-204 97.5q-115 0 -182.5 -68.5t-67.5 -177.5q0 -88 56.5 -149.5t136.5 -61.5q66 0 112.5 44t46.5 106 q0 47 -26.5 77.5t-67.5 30.5q-23 0 -45 -11t-35 -26l-8 7q29 49 88 49q53 0 86 -34t33 -93q0 -72 -50 -123t-134 -51q-96 0 -159 67.5t-63 167.5q0 123 77 197t202 74q141 0 224 -102.5t83 -264.5q0 -86 -16.5 -155.5t-44.5 -159.5q-33 -94 -33 -131q0 -72 86 -72v-17h-1210 v17q88 0 137 63.5t49 161.5v1288q0 121 -68.5 194t-197.5 73q-135 0 -243.5 -61.5t-171 -162t-62.5 -215.5q0 -98 39.5 -179t108.5 -127t153 -46q92 0 156.5 54.5t64.5 144.5q0 66 -38 113.5t-95 47.5q-47 0 -78 -26.5t-31 -67.5q0 -25 11.5 -46t25.5 -34l-6 -8 q-49 29 -49 88q0 51 33.5 85t93.5 34q66 0 111.5 -51t45.5 -135q0 -100 -71.5 -162t-173.5 -62q-90 0 -165 47.5t-120 133.5t-45 196zM1262 1094q0 53 38.5 92t92.5 39q53 0 92 -39t39 -92t-39 -92t-92 -39t-92 38.5t-39 92.5z" />
<glyph unicode="&#x140;" horiz-adv-x="872" d="M45 0v43q86 0 121 31.5t35 115.5v1170q0 94 -35 137t-121 43v43q63 -6 127 -6q129 0 213 29v-1416q0 -84 35 -115.5t121 -31.5v-43q-188 8 -248 8q-59 0 -248 -8zM598 604q0 53 39 92t92 39t92 -39t39 -92t-39 -92t-92 -39t-92 39t-39 92z" />
<glyph unicode="&#x141;" horiz-adv-x="1204" d="M82 1163q0 127 66.5 234.5t182 170t257.5 62.5h682v-16q-88 0 -137.5 -63.5t-49.5 -161.5v-1555h330q139 0 239.5 79t153 196.5t52.5 230.5q0 147 -75 244.5t-204 97.5q-115 0 -182.5 -68.5t-67.5 -177.5q0 -88 56.5 -149.5t136.5 -61.5q66 0 112.5 44t46.5 106 q0 47 -26.5 77.5t-67.5 30.5q-23 0 -45 -11t-35 -26l-8 7q29 49 88 49q53 0 86 -34t33 -93q0 -72 -50 -123t-134 -51q-96 0 -159 67.5t-63 167.5q0 123 77 197t202 74q141 0 224 -102.5t83 -264.5q0 -86 -16.5 -155.5t-44.5 -159.5q-33 -94 -33 -131q0 -72 86 -72v-17h-1210 v17q88 0 137 63.5t49 161.5v1288q0 121 -68.5 194t-197.5 73q-135 0 -243.5 -61.5t-171 -162t-62.5 -215.5q0 -98 39.5 -179t108.5 -127t153 -46q92 0 156.5 54.5t64.5 144.5q0 66 -38 113.5t-95 47.5q-47 0 -78 -26.5t-31 -67.5q0 -25 11.5 -46t25.5 -34l-6 -8 q-49 29 -49 88q0 51 33.5 85t93.5 34q66 0 111.5 -51t45.5 -135q0 -100 -71.5 -162t-173.5 -62q-90 0 -165 47.5t-120 133.5t-45 196zM526 618v48l301 174v-21l582 338v-47l-582 -338v21z" />
<glyph unicode="&#x142;" horiz-adv-x="585" d="M-33 479v62l326 282v-20l321 280v-61l-321 -281v21zM45 0v43q86 0 121 31.5t35 115.5v1170q0 94 -35 137t-121 43v43q63 -6 127 -6q129 0 213 29v-1416q0 -84 35 -115.5t121 -31.5v-43q-188 8 -248 8q-59 0 -248 -8z" />
<glyph unicode="&#x143;" horiz-adv-x="2435" d="M82 -90q0 125 52 227.5t150.5 161.5t231.5 59q90 0 159.5 -38.5t107.5 -104t38 -141.5q0 -84 -50 -140.5t-124 -56.5q-59 0 -93 34t-34 85q0 59 49 88l6 -8q-14 -12 -25 -34t-11 -46q0 -41 30.5 -67.5t77.5 -26.5q66 0 106 51t40 121q0 72 -38 131t-101.5 94t-137.5 35 q-127 0 -218 -61.5t-139 -159t-48 -203.5q0 -133 65.5 -235.5t169 -158t213.5 -55.5q213 0 349 151.5t136 461.5v1261q0 121 -68.5 194t-197.5 73q-135 0 -243.5 -61.5t-171 -162t-62.5 -215.5q0 -98 40 -179t108.5 -127t152.5 -46q92 0 156.5 54.5t64.5 144.5 q0 66 -37.5 113.5t-95.5 47.5q-47 0 -77.5 -26.5t-30.5 -67.5q0 -25 11 -46t25 -34l-6 -8q-49 29 -49 88q0 51 34 85t93 34q66 0 112 -51t46 -135q0 -100 -71.5 -162t-174.5 -62q-90 0 -165 47.5t-120 133.5t-45 196q0 127 67 234.5t182.5 170t256.5 62.5h439l974 -1429 v1188q0 98 -49 161.5t-137 63.5v16h405v-16q-88 0 -137 -63.5t-49 -161.5v-1604h-47l-1100 1614v-1317q0 -305 -133 -475t-385 -170q-127 0 -236.5 60.5t-175 168t-65.5 244.5zM1444 1784q84 63 144.5 117.5t74.5 66.5q76 72 125 105q32 20 61 20q39 0 64 -35q12 -18 12 -39 q0 -45 -55 -80q-43 -27 -148 -65q-154 -61 -264 -117z" />
<glyph unicode="&#x144;" horiz-adv-x="1222" d="M59 0v43q86 0 121 31.5t35 115.5v641q0 94 -35 137.5t-121 43.5v43q66 -6 127 -6q129 0 213 28v-241q51 131 142.5 189t206.5 58q143 1 217 -77q39 -41 55 -102.5t16 -166.5v-547q0 -84 35 -115.5t121 -31.5v-43q-188 8 -246 8q-57 0 -229 -8v43q76 0 105.5 31.5 t29.5 115.5v592q0 115 -33 175.5t-133 60.5q-84 0 -149.5 -49t-101.5 -134t-36 -190v-455q0 -84 30 -115.5t106 -31.5v-43q-172 8 -230 8q-57 0 -246 -8zM500 1245q76 121 141 248q47 94 82 141q33 45 78 45q29 0 45 -14q28 -24 28 -57q0 -31 -28 -70q-41 -51 -117 -113 q-14 -12 -74.5 -68.5t-132.5 -129.5z" />
<glyph unicode="&#x145;" horiz-adv-x="2445" d="M82 -90q0 125 52 227.5t150.5 161.5t231.5 59q90 0 159.5 -38.5t107.5 -104t38 -141.5q0 -84 -50 -140.5t-124 -56.5q-59 0 -93 34t-34 85q0 59 49 88l6 -8q-14 -12 -25 -34t-11 -46q0 -41 30.5 -67.5t77.5 -26.5q66 0 106 51t40 121q0 72 -38 131t-101.5 94t-137.5 35 q-127 0 -218 -61.5t-139 -159t-48 -203.5q0 -133 65.5 -235.5t169 -158t213.5 -55.5q213 0 349 151.5t136 461.5v1261q0 121 -68.5 194t-197.5 73q-135 0 -243.5 -61.5t-171 -162t-62.5 -215.5q0 -98 40 -179t108.5 -127t152.5 -46q92 0 156.5 54.5t64.5 144.5 q0 66 -37.5 113.5t-95.5 47.5q-47 0 -77.5 -26.5t-30.5 -67.5q0 -25 11 -46t25 -34l-6 -8q-49 29 -49 88q0 51 34 85t93 34q66 0 112 -51t46 -135q0 -100 -71.5 -162t-174.5 -62q-90 0 -165 47.5t-120 133.5t-45 196q0 127 67 234.5t182.5 170t256.5 62.5h439l974 -1429 v1188q0 98 -49 161.5t-137 63.5v16h405v-16q-88 0 -137 -63.5t-49 -161.5v-1604h-47l-1100 1614v-1317q0 -305 -133 -475t-385 -170q-127 0 -236.5 60.5t-175 168t-65.5 244.5zM1337 -274q0 45 34 76.5t81 31.5q59 0 96 -41t37 -102q0 -78 -37 -126t-131 -83l-14 37 q53 16 91 50t36 79q-37 -33 -86 -33q-47 0 -77 29.5t-30 81.5z" />
<glyph unicode="&#x146;" horiz-adv-x="1222" d="M59 0v43q86 0 121 31.5t35 115.5v641q0 94 -35 137.5t-121 43.5v43q66 -6 127 -6q129 0 213 28v-241q51 131 142.5 189t206.5 58q143 1 217 -77q39 -41 55 -102.5t16 -166.5v-547q0 -84 35 -115.5t121 -31.5v-43q-188 8 -246 8q-57 0 -229 -8v43q76 0 105.5 31.5 t29.5 115.5v592q0 115 -33 175.5t-133 60.5q-84 0 -149.5 -49t-101.5 -134t-36 -190v-455q0 -84 30 -115.5t106 -31.5v-43q-172 8 -230 8q-57 0 -246 -8zM518 -250q0 45 34 77t81 32q59 0 96 -41t37 -103q0 -78 -37 -126t-131 -83l-14 37q53 16 91 50t36 79q-37 -33 -86 -32 q-47 0 -77 29.5t-30 80.5z" />
<glyph unicode="&#x147;" horiz-adv-x="2439" d="M82 -90q0 125 52 227.5t150.5 161.5t231.5 59q90 0 159.5 -38.5t107.5 -104t38 -141.5q0 -84 -50 -140.5t-124 -56.5q-59 0 -93 34t-34 85q0 59 49 88l6 -8q-14 -12 -25 -34t-11 -46q0 -41 30.5 -67.5t77.5 -26.5q66 0 106 51t40 121q0 72 -38 131t-101.5 94t-137.5 35 q-127 0 -218 -61.5t-139 -159t-48 -203.5q0 -133 65.5 -235.5t169 -158t213.5 -55.5q213 0 349 151.5t136 461.5v1261q0 121 -68.5 194t-197.5 73q-135 0 -243.5 -61.5t-171 -162t-62.5 -215.5q0 -98 40 -179t108.5 -127t152.5 -46q92 0 156.5 54.5t64.5 144.5 q0 66 -37.5 113.5t-95.5 47.5q-47 0 -77.5 -26.5t-30.5 -67.5q0 -25 11 -46t25 -34l-6 -8q-49 29 -49 88q0 51 34 85t93 34q66 0 112 -51t46 -135q0 -100 -71.5 -162t-174.5 -62q-90 0 -165 47.5t-120 133.5t-45 196q0 127 67 234.5t182.5 170t256.5 62.5h439l974 -1429 v1188q0 98 -49 161.5t-137 63.5v16h405v-16q-88 0 -137 -63.5t-49 -161.5v-1604h-47l-1100 1614v-1317q0 -305 -133 -475t-385 -170q-127 0 -236.5 60.5t-175 168t-65.5 244.5zM1235 2021l10 29q123 -27 243 -65.5t189 -77.5q57 39 154.5 77.5t196.5 65.5l10 -29 q-131 -45 -232.5 -117.5t-150.5 -152.5h-37q-49 80 -150.5 152.5t-232.5 117.5z" />
<glyph unicode="&#x148;" horiz-adv-x="1222" d="M59 0v43q86 0 121 31.5t35 115.5v641q0 94 -35 137.5t-121 43.5v43q66 -6 127 -6q129 0 213 28v-241q51 131 142.5 189t206.5 58q143 1 217 -77q39 -41 55 -102.5t16 -166.5v-547q0 -84 35 -115.5t121 -31.5v-43q-188 8 -246 8q-57 0 -229 -8v43q76 0 105.5 31.5 t29.5 115.5v592q0 115 -33 175.5t-133 60.5q-84 0 -149.5 -49t-101.5 -134t-36 -190v-455q0 -84 30 -115.5t106 -31.5v-43q-172 8 -230 8q-57 0 -246 -8zM246 1614l16 28q111 -39 216.5 -94t168.5 -110q51 55 134 110.5t169 93.5l17 -28q-117 -57 -208 -152.5t-134 -199.5 h-37q-43 104 -134.5 199t-207.5 153z" />
<glyph unicode="&#x149;" horiz-adv-x="1222" d="M-66 1425q0 55 38 93t94 38q79 1 120 -65q35 -55 35 -135q0 -102 -52 -184t-159 -132l-18 37q63 27 109 84.5t46 116.5q0 25 -6 43q-33 -27 -75 -27q-55 0 -93.5 36t-38.5 95zM59 0v43q86 0 121 31.5t35 115.5v641q0 94 -35 137.5t-121 43.5v43q66 -6 127 -6 q129 0 213 28v-241q51 131 142.5 189t206.5 58q143 1 217 -77q39 -41 55 -102.5t16 -166.5v-547q0 -84 35 -115.5t121 -31.5v-43q-188 8 -246 8q-57 0 -229 -8v43q76 0 105.5 31.5t29.5 115.5v592q0 115 -33 175.5t-133 60.5q-84 0 -149.5 -49t-101.5 -134t-36 -190v-455 q0 -84 30 -115.5t106 -31.5v-43q-172 8 -230 8q-57 0 -246 -8z" />
<glyph unicode="&#x14a;" horiz-adv-x="2430" d="M82 -90q0 125 52 227.5t150.5 161.5t231.5 59q90 0 159.5 -38.5t107.5 -104t38 -141.5q0 -84 -50 -140.5t-124 -56.5q-59 0 -93 34t-34 85q0 59 49 88l6 -8q-14 -12 -25 -34t-11 -46q0 -41 30.5 -67.5t77.5 -26.5q66 0 106 51t40 121q0 72 -38 131t-101.5 94t-137.5 35 q-127 0 -218 -61.5t-139 -159t-48 -203.5q0 -133 65.5 -235.5t169 -158t213.5 -55.5q213 0 349 151.5t136 461.5v1261q0 121 -68.5 194t-197.5 73q-135 0 -243.5 -61.5t-171 -162t-62.5 -215.5q0 -98 40 -179t108.5 -127t152.5 -46q92 0 156.5 54.5t64.5 144.5 q0 66 -37.5 113.5t-95.5 47.5q-47 0 -77.5 -26.5t-30.5 -67.5q0 -25 11 -46t25 -34l-6 -8q-49 29 -49 88q0 51 34 85t93 34q66 0 112 -51t46 -135q0 -100 -71.5 -162t-174.5 -62q-90 0 -165 47.5t-120 133.5t-45 196q0 127 67 234.5t182.5 170t256.5 62.5h439l974 -1429 v1188q0 98 -49 161.5t-137 63.5v16h405v-16q-88 0 -137 -63.5t-49 -161.5v-1604h-47l-1100 1614v-1317q0 -305 -133 -475t-385 -170q-127 0 -236.5 60.5t-175 168t-65.5 244.5zM1769 -440q0 47 28 74.5t69 27.5t71.5 -28.5t30.5 -67.5q0 -27 -15.5 -53.5t-37.5 -40.5 q25 -4 47 -4q205 0 231 346l-12 18l60 29q-15 -213 -72 -305q-78 -123 -215 -123q-80 0 -132.5 30.5t-52.5 96.5z" />
<glyph unicode="&#x14b;" horiz-adv-x="1185" d="M59 0v43q86 0 121 31.5t35 115.5v641q0 94 -35 137.5t-121 43.5v43q66 -6 127 -6q129 0 213 28v-241q51 129 142.5 187t206.5 58q143 1 217 -77q39 -41 55 -102.5t16 -166.5v-499q0 -166 -22.5 -291t-85.5 -205q-47 -61 -113.5 -93t-134.5 -32t-102.5 30.5t-34.5 78.5 q0 43 26.5 69.5t69.5 26.5q41 0 66.5 -26.5t25.5 -65.5q0 -47 -33 -82q80 10 113 51q20 25 31 65q10 47 10 105v913q0 115 -33 175.5t-133 60.5q-84 0 -149.5 -49t-101.5 -133t-36 -189v-455q0 -84 30 -115.5t106 -31.5v-43q-172 8 -230 8q-57 0 -246 -8z" />
<glyph unicode="&#x14c;" horiz-adv-x="2039" d="M61 723q0 264 118 482t338 346t515 128t515 -128t338 -346t118 -482t-118 -485.5t-338 -351.5t-515 -130t-515 130t-338 351.5t-118 485.5zM307 723q0 -242 85 -458t249 -348t391 -132q228 0 391.5 132t248.5 348t85 458t-85 455t-248.5 343t-391.5 130h-2 q-156 0 -273.5 -78t-181 -206t-63.5 -273q0 -123 51 -226.5t140.5 -163t195.5 -59.5q115 0 195 70.5t80 185.5q0 80 -49.5 141.5t-120.5 61.5q-59 0 -98.5 -34t-39.5 -85q0 -31 14.5 -57.5t32.5 -42.5l-8 -11q-61 37 -61 111q0 63 42 103t118 40q84 0 141 -61t57 -166 q0 -127 -87 -203.5t-216 -76.5q-113 0 -208 59t-151.5 166.5t-56.5 247.5q0 115 35 218t100 181l-4 4q-147 -125 -227 -333t-80 -441zM709 1798v51h721v-51h-721z" />
<glyph unicode="&#x14d;" horiz-adv-x="1122" d="M96 526q0 281 128 419t337 138t337 -138t128 -419t-128 -418t-337 -137t-337 137.5t-128 417.5zM242 1407v51h639v-51h-639zM295 526q0 -264 71.5 -389t194.5 -125t194.5 125t71.5 389t-71.5 390t-194.5 126t-194.5 -125.5t-71.5 -390.5z" />
<glyph unicode="&#x14e;" horiz-adv-x="2050" d="M61 723q0 264 118 482t338 346t515 128t515 -128t338 -346t118 -482t-118 -485.5t-338 -351.5t-515 -130t-515 130t-338 351.5t-118 485.5zM307 723q0 -242 85 -458t249 -348t391 -132q228 0 391.5 132t248.5 348t85 458t-85 455t-248.5 343t-391.5 130h-2 q-156 0 -273.5 -78t-181 -206t-63.5 -273q0 -123 51 -226.5t140.5 -163t195.5 -59.5q115 0 195 70.5t80 185.5q0 80 -49.5 141.5t-120.5 61.5q-59 0 -98.5 -34t-39.5 -85q0 -31 14.5 -57.5t32.5 -42.5l-8 -11q-61 37 -61 111q0 63 42 103t118 40q84 0 141 -61t57 -166 q0 -127 -87 -203.5t-216 -76.5q-113 0 -208 59t-151.5 166.5t-56.5 247.5q0 115 35 218t100 181l-4 4q-147 -125 -227 -333t-80 -441zM608 2030l27 20q57 -55 152.5 -93t228.5 -38t229 39t154 94l24 -22q-59 -96 -162.5 -167t-244.5 -71t-244.5 70.5t-163.5 167.5z" />
<glyph unicode="&#x14f;" horiz-adv-x="1122" d="M96 526q0 281 128 419t337 138t337 -138t128 -419t-128 -418t-337 -137t-337 137.5t-128 417.5zM199 1595l34 19q119 -197 332 -197t332 197l35 -19q-51 -123 -144.5 -211t-222.5 -88t-222 88.5t-144 210.5zM295 526q0 -264 71.5 -389t194.5 -125t194.5 125t71.5 389 t-71.5 390t-194.5 126t-194.5 -125.5t-71.5 -390.5z" />
<glyph unicode="&#x150;" horiz-adv-x="2050" d="M61 723q0 264 118 482t338 346t515 128t515 -128t338 -346t118 -482t-118 -485.5t-338 -351.5t-515 -130t-515 130t-338 351.5t-118 485.5zM307 723q0 -242 85 -458t249 -348t391 -132q228 0 391.5 132t248.5 348t85 458t-85 455t-248.5 343t-391.5 130h-2 q-156 0 -273.5 -78t-181 -206t-63.5 -273q0 -123 51 -226.5t140.5 -163t195.5 -59.5q115 0 195 70.5t80 185.5q0 80 -49.5 141.5t-120.5 61.5q-59 0 -98.5 -34t-39.5 -85q0 -31 14.5 -57.5t32.5 -42.5l-8 -11q-61 37 -61 111q0 63 42 103t118 40q84 0 141 -61t57 -166 q0 -127 -87 -203.5t-216 -76.5q-113 0 -208 59t-151.5 166.5t-56.5 247.5q0 115 35 218t100 181l-4 4q-147 -125 -227 -333t-80 -441zM709 1794q51 51 125 150q29 37 58.5 73.5t55.5 59.5q37 30 70 30t55 -26q18 -20 19 -47q0 -41 -43 -78q-27 -23 -69 -46.5t-85 -43.5 q-119 -61 -168 -97zM1092 1794q51 51 125 150q29 37 58.5 73.5t55.5 59.5q37 30 70 30t55 -26q18 -20 19 -47q0 -41 -43 -78q-27 -23 -69 -46.5t-85 -43.5q-119 -61 -168 -97z" />
<glyph unicode="&#x151;" horiz-adv-x="1122" d="M96 526q0 281 128 419t337 138t337 -138t128 -419t-128 -418t-337 -137t-337 137.5t-128 417.5zM295 526q0 -264 71.5 -389t194.5 -125t194.5 125t71.5 389t-71.5 390t-194.5 126t-194.5 -125.5t-71.5 -390.5zM297 1245q76 121 141 248q47 94 82 141q35 45 78 45 q29 0 45 -14q29 -24 29 -57q0 -31 -29 -70q-41 -51 -117 -113q-14 -12 -74.5 -68.5t-132.5 -129.5zM662 1245q76 121 141 248q47 94 82 141q33 45 78 45q29 0 45 -14q28 -24 28 -57q0 -31 -28 -70q-41 -51 -117 -113q-14 -12 -74.5 -68.5t-132.5 -129.5z" />
<glyph unicode="&#x152;" horiz-adv-x="2500" d="M61 723q0 248 113 455.5t322 329.5t487 122h1366l21 -241h-17q-33 74 -68.5 118.5t-97 69.5t-162.5 25h-546v-723h362q98 0 161.5 49t63.5 137h17v-401h-17q0 88 -63.5 137t-161.5 49h-362v-827q0 -82 33.5 -135.5t107.5 -53.5h455q147 0 224 52.5t124 160.5h16l-41 -242 h-1415q-279 0 -487.5 124t-321.5 333t-113 461zM305 723q0 -229 81 -433t236.5 -330t370.5 -126h74q104 0 143 57.5t39 171.5v1289q0 117 -40 183.5t-142 66.5h-74q-215 0 -370.5 -124t-236.5 -325t-81 -430z" />
<glyph unicode="&#x153;" horiz-adv-x="1710" d="M98 526q0 281 123 418t322 137q117 0 208 -60t142 -181q53 117 145 180t213 63q174 0 268.5 -111.5t94.5 -338.5h-621q-6 -57 -6 -131q0 -135 44 -235.5t117 -155t152 -54.5q92 0 162 47.5t119 157.5l41 -16q-35 -113 -131 -194t-231 -81q-129 0 -223.5 61.5 t-147.5 172.5q-51 -117 -141.5 -175.5t-204.5 -58.5q-199 0 -322 137.5t-123 417.5zM297 526q0 -262 65.5 -388t180.5 -126q114 0 179.5 126t65.5 388q0 264 -65.5 389t-179.5 125q-115 0 -180.5 -124.5t-65.5 -389.5zM991 672h426q4 160 -41 266t-133 106q-96 0 -165.5 -94 t-86.5 -278z" />
<glyph unicode="&#x154;" horiz-adv-x="2164" d="M82 1163q0 127 66.5 234.5t182 170t257.5 62.5h739q244 0 426 -86t279.5 -235.5t97.5 -335.5q0 -233 -138.5 -397t-363.5 -220l170 -315q172 -317 379 -448.5t436 -131.5q332 0 611 203l12 -10q-113 -94 -273.5 -155.5t-363.5 -61.5q-287 0 -504 100.5t-351 236.5 t-204 267l-158 293q-100 10 -180 63.5t-119 141.5v-492q0 -98 49.5 -161.5t137.5 -63.5v-17h-602v17q88 0 137 63.5t49 161.5v1288q0 121 -68.5 194t-197.5 73q-135 0 -243.5 -61.5t-171 -162t-62.5 -215.5q0 -98 39.5 -179t108.5 -127t153 -46q92 0 156.5 54.5t64.5 144.5 q0 66 -38 113.5t-95 47.5q-47 0 -78 -26.5t-31 -67.5q0 -25 11.5 -46t25.5 -34l-6 -8q-49 29 -49 88q0 51 33.5 85t93.5 34q66 0 111.5 -51t45.5 -135q0 -100 -71.5 -162t-173.5 -62q-90 0 -165 47.5t-120 133.5t-45 196zM1036 1796q84 63 144.5 117.5t74.5 66.5 q76 72 125 105q33 20 62 20q39 0 63 -34q12 -18 13 -39q0 -45 -56 -80q-43 -27 -147 -66q-154 -61 -264 -117zM1083 682q0 -94 48.5 -168t126 -114t165.5 -40q246 0 363 170t117 445q0 143 -57.5 286.5t-191.5 242t-347 98.5h-224v-771q35 78 103.5 120t152.5 42 q100 0 176 -63.5t76 -171.5q0 -88 -48 -143.5t-124 -55.5q-59 0 -95 37t-36 88q0 27 14.5 51.5t36.5 36.5l7 -8q-14 -12 -25.5 -33.5t-11.5 -46.5q0 -41 31.5 -70.5t78.5 -29.5q66 0 105 51t39 123q0 92 -69 151.5t-155 59.5q-70 0 -129 -37t-93 -102.5t-34 -147.5z" />
<glyph unicode="&#x155;" horiz-adv-x="911" d="M59 0v43q86 0 121 31.5t35 115.5v641q0 94 -35 137.5t-121 43.5v43q66 -6 127 -6q129 0 213 28v-256q37 102 118 182t179 80q82 0 134.5 -47t52.5 -114q0 -53 -32 -91t-85 -38q-45 0 -77 28.5t-32 77.5q0 68 70 111q-14 20 -43 20q-80 0 -145.5 -62.5t-102.5 -152.5 t-37 -170v-434q0 -94 54.5 -131t162.5 -37v-43l-49 2q-209 6 -266 6q-53 0 -242 -8zM356 1245q76 121 142 248q47 94 82 141q33 45 77 45q29 0 45 -14q29 -24 29 -57q0 -31 -29 -70q-41 -51 -116 -113q-14 -12 -74.5 -68.5t-132.5 -129.5z" />
<glyph unicode="&#x156;" horiz-adv-x="2170" d="M82 1163q0 127 66.5 234.5t182 170t257.5 62.5h739q244 0 426 -86t279.5 -235.5t97.5 -335.5q0 -233 -138.5 -397t-363.5 -220l170 -315q172 -317 379 -448.5t436 -131.5q332 0 611 203l12 -10q-113 -94 -273.5 -155.5t-363.5 -61.5q-287 0 -504 100.5t-351 236.5 t-204 267l-158 293q-100 10 -180 63.5t-119 141.5v-492q0 -98 49.5 -161.5t137.5 -63.5v-17h-602v17q88 0 137 63.5t49 161.5v1288q0 121 -68.5 194t-197.5 73q-135 0 -243.5 -61.5t-171 -162t-62.5 -215.5q0 -98 39.5 -179t108.5 -127t153 -46q92 0 156.5 54.5t64.5 144.5 q0 66 -38 113.5t-95 47.5q-47 0 -78 -26.5t-31 -67.5q0 -25 11.5 -46t25.5 -34l-6 -8q-49 29 -49 88q0 51 33.5 85t93.5 34q66 0 111.5 -51t45.5 -135q0 -100 -71.5 -162t-173.5 -62q-90 0 -165 47.5t-120 133.5t-45 196zM846 -408q0 45 33.5 77t81.5 32q59 0 96 -41 t37 -102q0 -78 -37 -126t-131 -83l-15 37q53 16 91 50t36 79q-37 -33 -86 -33q-47 0 -76.5 29.5t-29.5 80.5zM1083 682q0 -94 48.5 -168t126 -114t165.5 -40q246 0 363 170t117 445q0 143 -57.5 286.5t-191.5 242t-347 98.5h-224v-771q35 78 103.5 120t152.5 42 q100 0 176 -63.5t76 -171.5q0 -88 -48 -143.5t-124 -55.5q-59 0 -95 37t-36 88q0 27 14.5 51.5t36.5 36.5l7 -8q-14 -12 -25.5 -33.5t-11.5 -46.5q0 -41 31.5 -70.5t78.5 -29.5q66 0 105 51t39 123q0 92 -69 151.5t-155 59.5q-70 0 -129 -37t-93 -102.5t-34 -147.5z" />
<glyph unicode="&#x157;" horiz-adv-x="911" d="M59 0v43q86 0 121 31.5t35 115.5v641q0 94 -35 137.5t-121 43.5v43q66 -6 127 -6q129 0 213 28v-256q37 102 118 182t179 80q82 0 134.5 -47t52.5 -114q0 -53 -32 -91t-85 -38q-45 0 -77 28.5t-32 77.5q0 68 70 111q-14 20 -43 20q-80 0 -145.5 -62.5t-102.5 -152.5 t-37 -170v-434q0 -94 54.5 -131t162.5 -37v-43l-49 2q-209 6 -266 6q-53 0 -242 -8zM217 -250q0 45 34 77t81 32q59 0 96 -41t37 -103q0 -78 -37 -126t-131 -83l-14 37q53 16 91 50t36 79q-37 -33 -86 -32q-47 0 -77 29.5t-30 80.5z" />
<glyph unicode="&#x158;" horiz-adv-x="2174" d="M82 1163q0 127 66.5 234.5t182 170t257.5 62.5h739q244 0 426 -86t279.5 -235.5t97.5 -335.5q0 -233 -138.5 -397t-363.5 -220l170 -315q172 -317 379 -448.5t436 -131.5q332 0 611 203l12 -10q-113 -94 -273.5 -155.5t-363.5 -61.5q-287 0 -504 100.5t-351 236.5 t-204 267l-158 293q-100 10 -180 63.5t-119 141.5v-492q0 -98 49.5 -161.5t137.5 -63.5v-17h-602v17q88 0 137 63.5t49 161.5v1288q0 121 -68.5 194t-197.5 73q-135 0 -243.5 -61.5t-171 -162t-62.5 -215.5q0 -98 39.5 -179t108.5 -127t153 -46q92 0 156.5 54.5t64.5 144.5 q0 66 -38 113.5t-95 47.5q-47 0 -78 -26.5t-31 -67.5q0 -25 11.5 -46t25.5 -34l-6 -8q-49 29 -49 88q0 51 33.5 85t93.5 34q66 0 111.5 -51t45.5 -135q0 -100 -71.5 -162t-173.5 -62q-90 0 -165 47.5t-120 133.5t-45 196zM762 2042l10 29q123 -27 243 -66t189 -78 q57 39 154.5 78t195.5 66l11 -29q-131 -45 -232.5 -118t-150.5 -152h-37q-49 80 -150.5 152.5t-232.5 117.5zM1083 682q0 -94 48.5 -168t126 -114t165.5 -40q246 0 363 170t117 445q0 143 -57.5 286.5t-191.5 242t-347 98.5h-224v-771q35 78 103.5 120t152.5 42 q100 0 176 -63.5t76 -171.5q0 -88 -48 -143.5t-124 -55.5q-59 0 -95 37t-36 88q0 27 14.5 51.5t36.5 36.5l7 -8q-14 -12 -25.5 -33.5t-11.5 -46.5q0 -41 31.5 -70.5t78.5 -29.5q66 0 105 51t39 123q0 92 -69 151.5t-155 59.5q-70 0 -129 -37t-93 -102.5t-34 -147.5z" />
<glyph unicode="&#x159;" horiz-adv-x="911" d="M59 0v43q86 0 121 31.5t35 115.5v641q0 94 -35 137.5t-121 43.5v43q66 -6 127 -6q129 0 213 28v-256q37 102 118 182t179 80q82 0 134.5 -47t52.5 -114q0 -53 -32 -91t-85 -38q-45 0 -77 28.5t-32 77.5q0 68 70 111q-14 20 -43 20q-80 0 -145.5 -62.5t-102.5 -152.5 t-37 -170v-434q0 -94 54.5 -131t162.5 -37v-43l-49 2q-209 6 -266 6q-53 0 -242 -8zM102 1614l17 28q111 -39 216 -94t169 -110q51 55 134 110.5t169 93.5l16 -28q-117 -57 -208 -152.5t-134 -199.5h-37q-43 104 -134 199t-208 153z" />
<glyph unicode="&#x15a;" horiz-adv-x="1484" d="M82 229q0 133 64.5 242t172 171.5t226.5 62.5q109 0 192.5 -39t129.5 -108t46 -155q0 -102 -59 -177.5t-162 -75.5q-61 0 -103 34.5t-42 91.5q0 59 49 89l6 -9q-14 -12 -25.5 -33.5t-11.5 -46.5q0 -45 38 -73.5t89 -28.5q90 0 141.5 67.5t51.5 161.5q0 121 -95.5 199 t-244.5 78q-100 0 -200.5 -56.5t-167 -160t-66.5 -236.5q0 -156 74.5 -274.5t206.5 -184t300 -65.5q264 0 405.5 137t141.5 396q0 162 -106.5 304t-276.5 269l-305 227q-84 61 -134 107.5t-84 106t-34 132.5q0 131 106.5 214t284.5 83q66 0 119 -10t135 -33q80 -25 119 -24 q31 0 50.5 13t19.5 40h18v-481h-18q-18 127 -89 234.5t-167.5 170t-186.5 62.5q-111 0 -161 -54.5t-50 -132.5q0 -51 23.5 -90t57.5 -68.5t112 -86.5l289 -218q209 -156 350 -336t141 -362q0 -178 -105.5 -322.5t-280.5 -225.5t-374 -81q-180 0 -319.5 71t-215 198 t-75.5 286zM551 1810q84 63 144.5 117.5t74.5 67.5q76 72 125 104q32 21 61 21q39 0 64 -35q12 -18 12 -39q0 -45 -55 -80q-43 -27 -148 -65q-154 -61 -264 -117z" />
<glyph unicode="&#x15b;" horiz-adv-x="915" d="M115 -14q8 117 8 409h47q23 -193 82 -288t203 -95q72 0 127 47t55 148q0 80 -54.5 135t-176.5 133q-100 63 -154.5 104.5t-91.5 100.5t-37 139q0 129 86 196.5t217 67.5q74 0 131 -22.5t92 -52.5q23 -16 37 -17q37 0 45 90h47q-8 -100 -8 -348h-47q-23 135 -87.5 223 t-191.5 88q-74 0 -121 -41.5t-47 -115.5q0 -72 49.5 -120t157.5 -116q18 -10 56 -35q94 -61 151.5 -108t93 -108.5t35.5 -141.5q0 -135 -101.5 -211t-248.5 -76q-92 0 -162 29q-45 23 -84 55q-8 8 -18 8q-14 0 -25.5 -20t-17.5 -57h-47zM342 1245q76 121 141 248 q47 94 82 141q33 45 78 45q29 0 45 -14q29 -24 29 -57q0 -31 -29 -70q-41 -51 -117 -113q-14 -12 -74.5 -68.5t-131.5 -129.5z" />
<glyph unicode="&#x15c;" horiz-adv-x="1497" d="M82 229q0 133 64.5 242t172 171.5t226.5 62.5q109 0 192.5 -39t129.5 -108t46 -155q0 -102 -59 -177.5t-162 -75.5q-61 0 -103 34.5t-42 91.5q0 59 49 89l6 -9q-14 -12 -25.5 -33.5t-11.5 -46.5q0 -45 38 -73.5t89 -28.5q90 0 141.5 67.5t51.5 161.5q0 121 -95.5 199 t-244.5 78q-100 0 -200.5 -56.5t-167 -160t-66.5 -236.5q0 -156 74.5 -274.5t206.5 -184t300 -65.5q264 0 405.5 137t141.5 396q0 162 -106.5 304t-276.5 269l-305 227q-84 61 -134 107.5t-84 106t-34 132.5q0 131 106.5 214t284.5 83q66 0 119 -10t135 -33q80 -25 119 -24 q31 0 50.5 13t19.5 40h18v-481h-18q-18 127 -89 234.5t-167.5 170t-186.5 62.5q-111 0 -161 -54.5t-50 -132.5q0 -51 23.5 -90t57.5 -68.5t112 -86.5l289 -218q209 -156 350 -336t141 -362q0 -178 -105.5 -322.5t-280.5 -225.5t-374 -81q-180 0 -319.5 71t-215 198 t-75.5 286zM328 1790q131 45 232.5 117.5t150.5 152.5h37q49 -80 150 -152.5t232 -117.5l-10 -29q-123 27 -242.5 66t-189.5 78q-57 -39 -154.5 -78t-195.5 -66z" />
<glyph unicode="&#x15d;" horiz-adv-x="915" d="M109 1290q117 57 208 152.5t134 199.5h36q43 -104 134.5 -199t207.5 -153l-16 -28q-111 39 -216 94t-169 110q-51 -55 -134 -110.5t-169 -93.5zM115 -14q8 117 8 409h47q23 -193 82 -288t203 -95q72 0 127 47t55 148q0 80 -54.5 135t-176.5 133q-100 63 -154.5 104.5 t-91.5 100.5t-37 139q0 129 86 196.5t217 67.5q74 0 131 -22.5t92 -52.5q23 -16 37 -17q37 0 45 90h47q-8 -100 -8 -348h-47q-23 135 -87.5 223t-191.5 88q-74 0 -121 -41.5t-47 -115.5q0 -72 49.5 -120t157.5 -116q18 -10 56 -35q94 -61 151.5 -108t93 -108.5t35.5 -141.5 q0 -135 -101.5 -211t-248.5 -76q-92 0 -162 29q-45 23 -84 55q-8 8 -18 8q-14 0 -25.5 -20t-17.5 -57h-47z" />
<glyph unicode="&#x15e;" horiz-adv-x="1484" d="M82 229q0 133 64.5 242t172 171.5t226.5 62.5q109 0 192.5 -39t129.5 -108t46 -155q0 -102 -59 -177.5t-162 -75.5q-61 0 -103 34.5t-42 91.5q0 59 49 89l6 -9q-14 -12 -25.5 -33.5t-11.5 -46.5q0 -45 38 -73.5t89 -28.5q90 0 141.5 67.5t51.5 161.5q0 121 -95.5 199 t-244.5 78q-100 0 -200.5 -56.5t-167 -160t-66.5 -236.5q0 -156 74.5 -274.5t206.5 -184t300 -65.5q264 0 405.5 137t141.5 396q0 162 -106.5 304t-276.5 269l-305 227q-84 61 -134 107.5t-84 106t-34 132.5q0 131 106.5 214t284.5 83q66 0 119 -10t135 -33q80 -25 119 -24 q31 0 50.5 13t19.5 40h18v-481h-18q-18 127 -89 234.5t-167.5 170t-186.5 62.5q-111 0 -161 -54.5t-50 -132.5q0 -51 23.5 -90t57.5 -68.5t112 -86.5l289 -218q209 -156 350 -336t141 -362q0 -178 -105.5 -322.5t-280.5 -225.5t-374 -81q-180 0 -319.5 71t-215 198 t-75.5 286zM547 -684l8 37q43 -6 78 -6q74 0 129 21.5t55 70.5q0 57 -86 57q-57 0 -100 -14l69 207h56l-54 -158q61 14 121 14q57 0 91 -25.5t34 -70.5q0 -78 -71.5 -117t-159.5 -39q-102 0 -170 23z" />
<glyph unicode="&#x15f;" horiz-adv-x="915" d="M115 -14q8 117 8 409h47q23 -193 82 -288t203 -95q72 0 127 47t55 148q0 80 -54.5 135t-176.5 133q-100 63 -154.5 104.5t-91.5 100.5t-37 139q0 129 86 196.5t217 67.5q74 0 131 -22.5t92 -52.5q23 -16 37 -17q37 0 45 90h47q-8 -100 -8 -348h-47q-23 135 -87.5 223 t-191.5 88q-74 0 -121 -41.5t-47 -115.5q0 -72 49.5 -120t157.5 -116q18 -10 56 -35q94 -61 151.5 -108t93 -108.5t35.5 -141.5q0 -135 -101.5 -211t-248.5 -76q-92 0 -162 29q-45 23 -84 55q-8 8 -18 8q-14 0 -25.5 -20t-17.5 -57h-47zM254 -362l8 36q43 -6 78 -6 q74 0 129 21.5t55 70.5q0 57 -86 58q-57 0 -100 -15l70 209h55l-53 -159q61 14 120 14q57 0 91 -25.5t34 -70.5q0 -78 -71.5 -117t-159.5 -39q-102 0 -170 23z" />
<glyph unicode="&#x160;" horiz-adv-x="1490" d="M82 229q0 133 64.5 242t172 171.5t226.5 62.5q109 0 192.5 -39t129.5 -108t46 -155q0 -102 -59 -177.5t-162 -75.5q-61 0 -103 34.5t-42 91.5q0 59 49 89l6 -9q-14 -12 -25.5 -33.5t-11.5 -46.5q0 -45 38 -73.5t89 -28.5q90 0 141.5 67.5t51.5 161.5q0 121 -95.5 199 t-244.5 78q-100 0 -200.5 -56.5t-167 -160t-66.5 -236.5q0 -156 74.5 -274.5t206.5 -184t300 -65.5q264 0 405.5 137t141.5 396q0 162 -106.5 304t-276.5 269l-305 227q-84 61 -134 107.5t-84 106t-34 132.5q0 131 106.5 214t284.5 83q66 0 119 -10t135 -33q80 -25 119 -24 q31 0 50.5 13t19.5 40h18v-481h-18q-18 127 -89 234.5t-167.5 170t-186.5 62.5q-111 0 -161 -54.5t-50 -132.5q0 -51 23.5 -90t57.5 -68.5t112 -86.5l289 -218q209 -156 350 -336t141 -362q0 -178 -105.5 -322.5t-280.5 -225.5t-374 -81q-180 0 -319.5 71t-215 198 t-75.5 286zM268 2046l11 29q123 -27 242.5 -66t189.5 -78q57 39 154.5 78t195.5 66l10 -29q-131 -45 -232.5 -118t-150.5 -152h-37q-49 80 -150.5 152.5t-232.5 117.5z" />
<glyph unicode="&#x161;" horiz-adv-x="915" d="M88 1614l16 28q111 -39 216.5 -94t168.5 -110q51 55 134.5 110.5t169.5 93.5l16 -28q-117 -57 -208 -152.5t-134 -199.5h-37q-43 104 -134 199t-208 153zM115 -14q8 117 8 409h47q23 -193 82 -288t203 -95q72 0 127 47t55 148q0 80 -54.5 135t-176.5 133 q-100 63 -154.5 104.5t-91.5 100.5t-37 139q0 129 86 196.5t217 67.5q74 0 131 -22.5t92 -52.5q23 -16 37 -17q37 0 45 90h47q-8 -100 -8 -348h-47q-23 135 -87.5 223t-191.5 88q-74 0 -121 -41.5t-47 -115.5q0 -72 49.5 -120t157.5 -116q18 -10 56 -35q94 -61 151.5 -108 t93 -108.5t35.5 -141.5q0 -135 -101.5 -211t-248.5 -76q-92 0 -162 29q-45 23 -84 55q-8 8 -18 8q-14 0 -25.5 -20t-17.5 -57h-47z" />
<glyph unicode="&#x162;" horiz-adv-x="1761" d="M82 1241q0 168 88 303t244.5 212t355.5 77q96 0 197.5 -13.5t242.5 -37.5q170 -29 275.5 -42.5t218.5 -13.5q121 0 213 9.5t189.5 48.5t174.5 119l9 -9q-98 -131 -248 -191.5t-363 -60.5q-82 1 -170 11v-1606q0 -98 49.5 -161.5t137.5 -63.5v-17h-602v17q88 0 137 63.5 t49 161.5v1653l-96 24q-131 35 -222.5 51.5t-191.5 16.5q-199 0 -348.5 -77t-230 -203t-80.5 -271q0 -135 60 -249.5t170 -182.5t253 -68q113 0 206 45t146 130t53 200q0 127 -60 205t-165 78q-57 0 -96 -36t-39 -79q0 -25 11.5 -46t25.5 -34l-6 -8q-49 29 -49 88 q0 53 40.5 96t112.5 43q113 0 183.5 -86t70.5 -221q0 -117 -58.5 -208t-157.5 -141t-218 -50q-150 0 -266.5 66.5t-181 186.5t-64.5 271zM1212 -555l9 37q43 -6 77 -6q74 0 129.5 21.5t55.5 70.5q0 57 -86 57q-57 0 -101 -14l70 207h55l-53 -158q61 14 121 14q57 0 91 -25.5 t34 -70.5q0 -78 -72 -117t-160 -39q-102 0 -170 23z" />
<glyph unicode="&#x163;" horiz-adv-x="724" d="M8 1012v41h197v313q115 4 184 29v-342h303v-41h-303v-793q0 -92 34 -133t97 -41t108.5 51t76.5 168l40 -10q-51 -283 -266 -283q-70 0 -115 16.5t-79 51.5q-45 45 -62.5 110.5t-17.5 176.5v686h-197zM264 -362l8 36q43 -6 78 -6q74 0 129.5 21.5t55.5 70.5q0 57 -86 58 q-57 0 -101 -15l70 209h55l-53 -159q61 14 121 14q57 0 91 -25.5t34 -70.5q0 -78 -72 -117t-160 -39q-102 0 -170 23z" />
<glyph unicode="&#x164;" horiz-adv-x="1806" d="M82 1241q0 168 88 303t244.5 212t355.5 77q96 0 197.5 -13.5t242.5 -37.5q170 -29 275.5 -42.5t218.5 -13.5q121 0 213 9.5t189.5 48.5t174.5 119l9 -9q-98 -131 -248 -191.5t-363 -60.5q-82 1 -170 11v-1606q0 -98 49.5 -161.5t137.5 -63.5v-17h-602v17q88 0 137 63.5 t49 161.5v1653l-96 24q-131 35 -222.5 51.5t-191.5 16.5q-199 0 -348.5 -77t-230 -203t-80.5 -271q0 -135 60 -249.5t170 -182.5t253 -68q113 0 206 45t146 130t53 200q0 127 -60 205t-165 78q-57 0 -96 -36t-39 -79q0 -25 11.5 -46t25.5 -34l-6 -8q-49 29 -49 88 q0 53 40.5 96t112.5 43q113 0 183.5 -86t70.5 -221q0 -117 -58.5 -208t-157.5 -141t-218 -50q-150 0 -266.5 66.5t-181 186.5t-64.5 271zM985 2204l10 28q123 -27 243 -65.5t189 -77.5q57 39 154.5 78t196.5 65l10 -28q-131 -45 -232.5 -118t-150.5 -153h-37 q-49 80 -150.5 153t-232.5 118z" />
<glyph unicode="&#x165;" horiz-adv-x="724" d="M8 1012v41h197v313q115 4 184 29v-342h303v-41h-303v-793q0 -92 34 -133t97 -41t108.5 51t76.5 168l40 -10q-51 -283 -266 -283q-70 0 -115 16.5t-79 51.5q-45 45 -62.5 110.5t-17.5 176.5v686h-197zM528 1159q41 231 41 297q0 43 -8 62.5t-33 19.5v43l33 -2q57 0 123 25 q4 -11 7 -36.5t3 -47.5q0 -55 -30.5 -132t-106.5 -237z" />
<glyph unicode="&#x166;" horiz-adv-x="1789" d="M82 1241q0 168 88 303t244.5 212t355.5 77q96 0 197.5 -13.5t242.5 -37.5q170 -29 275.5 -42.5t218.5 -13.5q121 0 213 9.5t189.5 48.5t174.5 119l9 -9q-98 -131 -248 -191.5t-363 -60.5q-82 1 -170 11v-1606q0 -98 49.5 -161.5t137.5 -63.5v-17h-602v17q88 0 137 63.5 t49 161.5v1653l-96 24q-131 35 -222.5 51.5t-191.5 16.5q-199 0 -348.5 -77t-230 -203t-80.5 -271q0 -135 60 -249.5t170 -182.5t253 -68q113 0 206 45t146 130t53 200q0 127 -60 205t-165 78q-57 0 -96 -36t-39 -79q0 -25 11.5 -46t25.5 -34l-6 -8q-49 29 -49 88 q0 53 40.5 96t112.5 43q113 0 183.5 -86t70.5 -221q0 -117 -58.5 -208t-157.5 -141t-218 -50q-150 0 -266.5 66.5t-181 186.5t-64.5 271zM920 705v40h870v-40h-870z" />
<glyph unicode="&#x167;" horiz-adv-x="770" d="M14 821v41h197v150h-197v41h197v313q115 4 184 29v-342h303v-41h-303v-150h303v-41h-303v-602q0 -92 34 -133t97 -41t108.5 51t76.5 168l41 -10q-51 -283 -267 -283q-70 0 -114.5 16.5t-79.5 51.5q-45 45 -62.5 110.5t-17.5 176.5v495h-197z" />
<glyph unicode="&#x168;" horiz-adv-x="2226" d="M82 1163q0 127 66.5 234.5t182 170t257.5 62.5h661v-16q-86 0 -126 -58.5t-40 -146.5v-1077q0 -262 96.5 -402.5t317.5 -140.5q258 0 380 152.5t122 390.5v1077q0 88 -40 146.5t-126 58.5v16h365v-16q-86 0 -126 -58.5t-40 -146.5v-1057q0 -285 -133.5 -440.5 t-442.5 -155.5q-317 0 -459.5 160t-142.5 428v991q0 121 -68.5 194t-197.5 73q-135 0 -243.5 -61.5t-171 -162t-62.5 -215.5q0 -98 39.5 -179t108.5 -127t153 -46q92 0 156.5 54.5t64.5 144.5q0 66 -38 113.5t-95 47.5q-47 0 -78 -26.5t-31 -67.5q0 -25 11.5 -46t25.5 -34 l-6 -8q-49 29 -49 88q0 51 33.5 85t93.5 34q66 0 111.5 -51t45.5 -135q0 -100 -71.5 -162t-173.5 -62q-90 0 -165 47.5t-120 133.5t-45 196zM1096 1833q8 98 73.5 157.5t153.5 59.5q51 0 96 -20.5t109 -61.5q72 -41 109.5 -58.5t82.5 -17.5q94 0 127 115l31 -6 q-8 -98 -73.5 -157.5t-153.5 -59.5q-51 0 -96.5 20.5t-108.5 61.5q-72 41 -110 58.5t-83 17.5q-47 0 -77.5 -26t-49.5 -89z" />
<glyph unicode="&#x169;" horiz-adv-x="1189" d="M33 1012v43q63 -6 127 -6q129 0 213 28v-805q0 -78 9 -126t43 -78.5t103 -30.5q78 0 141.5 49t99.5 134t36 188v423q0 94 -35 137.5t-121 43.5v43q63 -6 127 -6q129 0 213 28v-856q0 -94 35 -137t121 -43v-43q-63 6 -127 6q-129 0 -213 -29v242q-49 -127 -139.5 -186.5 t-196.5 -59.5q-139 0 -213 78q-37 41 -52.5 104.5t-15.5 163.5v514q0 94 -34.5 137.5t-120.5 43.5zM178 1362q31 109 95.5 160t148.5 51q51 0 90 -19.5t82 -54.5q41 -31 70.5 -46t66.5 -15q92 0 158 108l29 -14q-31 -109 -95.5 -160t-146.5 -51q-53 0 -90 18.5t-84 55.5 q-43 33 -72 48t-65 15q-90 0 -158 -110z" />
<glyph unicode="&#x16a;" horiz-adv-x="2244" d="M82 1163q0 127 66.5 234.5t182 170t257.5 62.5h661v-16q-86 0 -126 -58.5t-40 -146.5v-1077q0 -262 96.5 -402.5t317.5 -140.5q258 0 380 152.5t122 390.5v1077q0 88 -40 146.5t-126 58.5v16h365v-16q-86 0 -126 -58.5t-40 -146.5v-1057q0 -285 -133.5 -440.5 t-442.5 -155.5q-317 0 -459.5 160t-142.5 428v991q0 121 -68.5 194t-197.5 73q-135 0 -243.5 -61.5t-171 -162t-62.5 -215.5q0 -98 39.5 -179t108.5 -127t153 -46q92 0 156.5 54.5t64.5 144.5q0 66 -38 113.5t-95 47.5q-47 0 -78 -26.5t-31 -67.5q0 -25 11.5 -46t25.5 -34 l-6 -8q-49 29 -49 88q0 51 33.5 85t93.5 34q66 0 111.5 -51t45.5 -135q0 -100 -71.5 -162t-173.5 -62q-90 0 -165 47.5t-120 133.5t-45 196zM1151 1774v51h721v-51h-721z" />
<glyph unicode="&#x16b;" horiz-adv-x="1189" d="M33 1012v43q63 -6 127 -6q129 0 213 28v-805q0 -78 9 -126t43 -78.5t103 -30.5q78 0 141.5 49t99.5 134t36 188v423q0 94 -35 137.5t-121 43.5v43q63 -6 127 -6q129 0 213 28v-856q0 -94 35 -137t121 -43v-43q-63 6 -127 6q-129 0 -213 -29v242q-49 -127 -139.5 -186.5 t-196.5 -59.5q-139 0 -213 78q-37 41 -52.5 104.5t-15.5 163.5v514q0 94 -34.5 137.5t-120.5 43.5zM248 1407v51h639v-51h-639z" />
<glyph unicode="&#x16c;" horiz-adv-x="2244" d="M82 1163q0 127 66.5 234.5t182 170t257.5 62.5h661v-16q-86 0 -126 -58.5t-40 -146.5v-1077q0 -262 96.5 -402.5t317.5 -140.5q258 0 380 152.5t122 390.5v1077q0 88 -40 146.5t-126 58.5v16h365v-16q-86 0 -126 -58.5t-40 -146.5v-1057q0 -285 -133.5 -440.5 t-442.5 -155.5q-317 0 -459.5 160t-142.5 428v991q0 121 -68.5 194t-197.5 73q-135 0 -243.5 -61.5t-171 -162t-62.5 -215.5q0 -98 39.5 -179t108.5 -127t153 -46q92 0 156.5 54.5t64.5 144.5q0 66 -38 113.5t-95 47.5q-47 0 -78 -26.5t-31 -67.5q0 -25 11.5 -46t25.5 -34 l-6 -8q-49 29 -49 88q0 51 33.5 85t93.5 34q66 0 111.5 -51t45.5 -135q0 -100 -71.5 -162t-173.5 -62q-90 0 -165 47.5t-120 133.5t-45 196zM1133 2023l26 21q57 -55 152.5 -93t228.5 -38t229.5 39t153.5 94l25 -23q-59 -96 -163 -166.5t-245 -70.5t-244.5 70.5 t-162.5 166.5z" />
<glyph unicode="&#x16d;" horiz-adv-x="1189" d="M33 1012v43q63 -6 127 -6q129 0 213 28v-805q0 -78 9 -126t43 -78.5t103 -30.5q78 0 141.5 49t99.5 134t36 188v423q0 94 -35 137.5t-121 43.5v43q63 -6 127 -6q129 0 213 28v-856q0 -94 35 -137t121 -43v-43q-63 6 -127 6q-129 0 -213 -29v242q-49 -127 -139.5 -186.5 t-196.5 -59.5q-139 0 -213 78q-37 41 -52.5 104.5t-15.5 163.5v514q0 94 -34.5 137.5t-120.5 43.5zM205 1595l35 19q119 -197 331 -197q213 0 332 197l35 -19q-51 -123 -144.5 -211t-222.5 -88t-222 88.5t-144 210.5z" />
<glyph unicode="&#x16e;" horiz-adv-x="2222" d="M82 1163q0 127 66.5 234.5t182 170t257.5 62.5h661v-16q-86 0 -126 -58.5t-40 -146.5v-1077q0 -262 96.5 -402.5t317.5 -140.5q258 0 380 152.5t122 390.5v1077q0 88 -40 146.5t-126 58.5v16h365v-16q-86 0 -126 -58.5t-40 -146.5v-1057q0 -285 -133.5 -440.5 t-442.5 -155.5q-317 0 -459.5 160t-142.5 428v991q0 121 -68.5 194t-197.5 73q-135 0 -243.5 -61.5t-171 -162t-62.5 -215.5q0 -98 39.5 -179t108.5 -127t153 -46q92 0 156.5 54.5t64.5 144.5q0 66 -38 113.5t-95 47.5q-47 0 -78 -26.5t-31 -67.5q0 -25 11.5 -46t25.5 -34 l-6 -8q-49 29 -49 88q0 51 33.5 85t93.5 34q66 0 111.5 -51t45.5 -135q0 -100 -71.5 -162t-173.5 -62q-90 0 -165 47.5t-120 133.5t-45 196zM1290 1978q0 84 57.5 135.5t139.5 51.5t140.5 -51.5t58.5 -135.5t-58.5 -136t-140.5 -52t-139.5 52t-57.5 136zM1348 1976 q0 -68 42 -105.5t97 -37.5t98 38t43 105q0 68 -43 107t-98 39q-53 0 -96 -40t-43 -106z" />
<glyph unicode="&#x16f;" horiz-adv-x="1189" d="M33 1012v43q63 -6 127 -6q129 0 213 28v-805q0 -78 9 -126t43 -78.5t103 -30.5q78 0 141.5 49t99.5 134t36 188v423q0 94 -35 137.5t-121 43.5v43q63 -6 127 -6q129 0 213 28v-856q0 -94 35 -137t121 -43v-43q-63 6 -127 6q-129 0 -213 -29v242q-49 -127 -139.5 -186.5 t-196.5 -59.5q-139 0 -213 78q-37 41 -52.5 104.5t-15.5 163.5v514q0 94 -34.5 137.5t-120.5 43.5zM377 1434q0 84 57.5 135t138.5 51q82 0 140.5 -51t58.5 -135t-58.5 -136.5t-140.5 -52.5t-139 52.5t-57 136.5zM434 1432q0 -68 42 -106t97 -38t98.5 38t43.5 106t-43 106.5 t-99 38.5q-53 0 -96 -40t-43 -105z" />
<glyph unicode="&#x170;" horiz-adv-x="2226" d="M82 1163q0 127 66.5 234.5t182 170t257.5 62.5h661v-16q-86 0 -126 -58.5t-40 -146.5v-1077q0 -262 96.5 -402.5t317.5 -140.5q258 0 380 152.5t122 390.5v1077q0 88 -40 146.5t-126 58.5v16h365v-16q-86 0 -126 -58.5t-40 -146.5v-1057q0 -285 -133.5 -440.5 t-442.5 -155.5q-317 0 -459.5 160t-142.5 428v991q0 121 -68.5 194t-197.5 73q-135 0 -243.5 -61.5t-171 -162t-62.5 -215.5q0 -98 39.5 -179t108.5 -127t153 -46q92 0 156.5 54.5t64.5 144.5q0 66 -38 113.5t-95 47.5q-47 0 -78 -26.5t-31 -67.5q0 -25 11.5 -46t25.5 -34 l-6 -8q-49 29 -49 88q0 51 33.5 85t93.5 34q66 0 111.5 -51t45.5 -135q0 -100 -71.5 -162t-173.5 -62q-90 0 -165 47.5t-120 133.5t-45 196zM1235 1798q51 51 125 150q29 37 58.5 73.5t56.5 59.5q36 30 69 30t55 -26q18 -20 19 -47q0 -41 -43 -78q-27 -23 -69 -46.5 t-85 -43.5q-119 -61 -168 -96zM1618 1798q51 51 125 150q29 37 58.5 73.5t56.5 59.5q36 30 69 30t55 -26q18 -20 19 -47q0 -41 -43 -78q-27 -23 -69 -46.5t-85 -43.5q-119 -61 -168 -96z" />
<glyph unicode="&#x171;" horiz-adv-x="1189" d="M33 1012v43q63 -6 127 -6q129 0 213 28v-805q0 -78 9 -126t43 -78.5t103 -30.5q78 0 141.5 49t99.5 134t36 188v423q0 94 -35 137.5t-121 43.5v43q63 -6 127 -6q129 0 213 28v-856q0 -94 35 -137t121 -43v-43q-63 6 -127 6q-129 0 -213 -29v242q-49 -127 -139.5 -186.5 t-196.5 -59.5q-139 0 -213 78q-37 41 -52.5 104.5t-15.5 163.5v514q0 94 -34.5 137.5t-120.5 43.5zM303 1245q76 121 141 248q47 94 82 141q35 45 78 45q29 0 45 -14q29 -24 29 -57q0 -31 -29 -70q-41 -51 -117 -113q-14 -12 -74.5 -68.5t-131.5 -129.5zM668 1245 q76 121 141 248q47 94 82 141q33 45 78 45q29 0 45 -14q28 -24 28 -57q0 -31 -28 -70q-41 -51 -117 -113q-14 -12 -74.5 -68.5t-132.5 -129.5z" />
<glyph unicode="&#x172;" horiz-adv-x="2238" d="M82 1163q0 127 66.5 234.5t182 170t257.5 62.5h661v-16q-86 0 -126 -58.5t-40 -146.5v-1077q0 -262 96.5 -402.5t317.5 -140.5q258 0 380 152.5t122 390.5v1077q0 88 -40 146.5t-126 58.5v16h365v-16q-86 0 -126 -58.5t-40 -146.5v-1057q0 -285 -133.5 -440.5 t-442.5 -155.5q-317 0 -459.5 160t-142.5 428v991q0 121 -68.5 194t-197.5 73q-135 0 -243.5 -61.5t-171 -162t-62.5 -215.5q0 -98 39.5 -179t108.5 -127t153 -46q92 0 156.5 54.5t64.5 144.5q0 66 -38 113.5t-95 47.5q-47 0 -78 -26.5t-31 -67.5q0 -25 11.5 -46t25.5 -34 l-6 -8q-49 29 -49 88q0 51 33.5 85t93.5 34q66 0 111.5 -51t45.5 -135q0 -100 -71.5 -162t-173.5 -62q-90 0 -165 47.5t-120 133.5t-45 196zM1223 -502q0 80 73.5 146.5t208.5 111.5h78q-110 -28 -160.5 -84.5t-50.5 -117.5q0 -41 23.5 -66t64.5 -25q37 0 71 19.5t54 48.5 l31 -27q-92 -139 -232 -139q-74 0 -117.5 37t-43.5 96z" />
<glyph unicode="&#x173;" horiz-adv-x="1189" d="M33 1012v43q63 -6 127 -6q129 0 213 28v-805q0 -78 9 -126t43 -78.5t103 -30.5q78 0 141.5 49t99.5 134t36 188v423q0 94 -35 137.5t-121 43.5v43q63 -6 127 -6q129 0 213 28v-856q0 -94 35 -137t121 -43v-43q-63 6 -127 6q-129 0 -213 -29v242q-49 -127 -139.5 -186.5 t-196.5 -59.5q-139 0 -213 78q-37 41 -52.5 104.5t-15.5 163.5v514q0 94 -34.5 137.5t-120.5 43.5zM770 -252q0 80 74 146.5t209 111.5h65q-6 -6 -20 -10q-178 -76 -178 -193q0 -41 23.5 -65.5t64.5 -24.5q37 0 70.5 19.5t54.5 48.5l30 -27q-92 -139 -231 -139 q-74 0 -118 37t-44 96z" />
<glyph unicode="&#x174;" horiz-adv-x="3074" d="M82 1163q0 129 56.5 235.5t162 169t246.5 62.5h649v-16q-63 0 -94 -30t-31 -83q0 -41 21 -98l458 -1292l320 1017l-86 271q-29 94 -98.5 154.5t-159.5 60.5v16h610v-16q-66 0 -97.5 -33t-31.5 -92q0 -45 14 -90l408 -1297l-4 -14l428 1313q16 53 16 92q0 55 -31.5 88 t-97.5 33v16h369v-16q-72 0 -132.5 -59.5t-90.5 -153.5l-527 -1616h-67l-406 1290l-405 -1290h-68l-545 1567q-86 250 -321 250q-133 0 -232.5 -60.5t-151.5 -161t-52 -217.5q0 -98 39.5 -179t108.5 -127t153 -46q92 0 156.5 54.5t64.5 144.5q0 66 -38 113.5t-95 47.5 q-47 0 -78 -26.5t-31 -67.5q0 -25 11.5 -46t25.5 -34l-6 -8q-49 29 -49 88q0 51 33.5 85t93.5 34q66 0 111.5 -51t45.5 -135q0 -100 -71.5 -162t-173.5 -62q-90 0 -165 47.5t-120 133.5t-45 196zM1434 1798q131 45 232 118t151 152h36q50 -79 151 -152t232 -118l-10 -29 q-123 27 -242.5 66t-189.5 78q-57 -39 -154.5 -78t-195.5 -66z" />
<glyph unicode="&#x175;" horiz-adv-x="1576" d="M0 1012v43q80 -12 180 -13q102 0 266 13v-43q-76 0 -109.5 -12.5t-33.5 -63.5q0 -37 21 -96l204 -590l295 813h47l314 -827l192 585q18 55 19 92q0 49 -35 72t-117 29v41q109 -6 172 -6q90 0 156 6v-41q-43 -6 -76 -38t-57 -106l-297 -880h-35l-324 823l-293 -823h-34 l-336 907q-29 72 -58.5 93.5t-60.5 21.5zM481 1290q117 57 208 152.5t134 199.5h37q43 -104 134 -199t208 -153l-16 -28q-111 39 -216.5 94t-168.5 110q-51 -55 -134 -110.5t-169 -93.5z" />
<glyph unicode="&#x176;" horiz-adv-x="2181" d="M82 1163q0 127 61.5 234.5t172 170t251.5 62.5h617v-16q-106 0 -107 -80q0 -49 37 -117l365 -669h12l381 671q39 68 39 115q0 80 -107 80v16h373v-16q-72 0 -146.5 -55.5t-121.5 -139.5l-393 -694v-678q0 -98 49 -161.5t137 -63.5v-17h-602v17q88 0 137 63.5t49 161.5 v592l-412 733q-127 229 -307 230q-133 0 -237.5 -60.5t-161.5 -162t-57 -216.5q0 -98 39.5 -179t108.5 -127t153 -46q92 0 156.5 54.5t64.5 144.5q0 66 -38 113.5t-95 47.5q-47 0 -78 -26.5t-31 -67.5q0 -25 11.5 -46t25.5 -34l-6 -8q-49 29 -49 88q0 51 33.5 85t93.5 34 q66 0 111.5 -51t45.5 -135q0 -100 -71.5 -162t-173.5 -62q-90 0 -165 47.5t-120 133.5t-45 196zM1012 1800q131 45 232.5 118t150.5 153h37q49 -80 150 -153t233 -118l-11 -28q-123 27 -242.5 65.5t-189.5 77.5q-57 -39 -154.5 -78t-195.5 -65z" />
<glyph unicode="&#x177;" horiz-adv-x="1032" d="M-8 1012v43q88 -12 201 -13q102 0 266 13v-43q-74 0 -108 -12.5t-34 -59.5q0 -43 25 -100l246 -611l227 592q23 61 23 94q0 47 -37 70t-117 29v41q109 -6 172 -6q90 0 156 6v-41q-41 -4 -73 -37t-60 -107l-336 -880l-70 -178q-39 -100 -88 -144q-31 -29 -74 -41t-86 -12 q-61 0 -100 33t-39 90q0 49 28.5 78.5t80.5 29.5q45 0 74.5 -25.5t29.5 -70.5q0 -61 -55 -92q4 -2 12 -2q113 0 174 160l72 186l-371 895q-35 70 -69.5 92.5t-69.5 22.5zM160 1290q117 57 208 152.5t134 199.5h37q43 -104 134 -199t208 -153l-17 -28q-111 39 -216 94 t-169 110q-51 -55 -134 -110.5t-169 -93.5z" />
<glyph unicode="&#x178;" horiz-adv-x="2193" d="M82 1163q0 127 61.5 234.5t172 170t251.5 62.5h617v-16q-106 0 -107 -80q0 -49 37 -117l365 -669h12l381 671q39 68 39 115q0 80 -107 80v16h373v-16q-72 0 -146.5 -55.5t-121.5 -139.5l-393 -694v-678q0 -98 49 -161.5t137 -63.5v-17h-602v17q88 0 137 63.5t49 161.5 v592l-412 733q-127 229 -307 230q-133 0 -237.5 -60.5t-161.5 -162t-57 -216.5q0 -98 39.5 -179t108.5 -127t153 -46q92 0 156.5 54.5t64.5 144.5q0 66 -38 113.5t-95 47.5q-47 0 -78 -26.5t-31 -67.5q0 -25 11.5 -46t25.5 -34l-6 -8q-49 29 -49 88q0 51 33.5 85t93.5 34 q66 0 111.5 -51t45.5 -135q0 -100 -71.5 -162t-173.5 -62q-90 0 -165 47.5t-120 133.5t-45 196zM1145 1898q0 47 34.5 83t84.5 36q47 0 82.5 -35.5t35.5 -83.5q0 -49 -35.5 -83.5t-82.5 -34.5q-49 0 -84 34.5t-35 83.5zM1579 1898q0 47 35 83t84 36q47 0 83 -35.5t36 -83.5 q0 -49 -36 -83.5t-83 -34.5q-49 0 -84 34.5t-35 83.5z" />
<glyph unicode="&#x179;" horiz-adv-x="2029" d="M72 1272l110 370h1385v-10l-1141 -1788q137 -6 414 -53q174 -31 285.5 -45t224.5 -14q184 0 322 78.5t215 209t77 279.5q0 123 -51 220t-140.5 151.5t-197.5 54.5q-119 0 -197 -69.5t-78 -186.5q0 -84 48.5 -145.5t121.5 -61.5q59 0 99.5 34t40.5 87q0 31 -14.5 58.5 t-32.5 43.5l6 11q63 -37 63 -113q0 -66 -43 -109t-119 -43q-86 0 -146 65.5t-60 172.5q0 125 90 206t221 81q180 0 300 -120t120 -337q0 -166 -80 -302t-227.5 -216t-337.5 -80q-113 0 -220.5 14.5t-293.5 44.5q-176 33 -289 48.5t-230 15.5t-219 -19v11l1149 1800h-655 q-176 0 -310.5 -104.5t-191.5 -239.5h-18zM733 1788q84 63 144.5 117.5t74.5 66.5q76 72 125 105q33 20 62 20q39 0 63 -35q12 -18 12 -39q0 -45 -55 -79q-43 -27 -147 -66q-154 -61 -264 -117z" />
<glyph unicode="&#x17a;" horiz-adv-x="974" d="M78 -10l592 1034h-226q-137 0 -203.5 -77t-80.5 -253h-47q0 268 -9 369q162 -8 381 -8q195 0 414 10l-592 -1034h225q127 0 199 78.5t86 250.5h47q0 -268 8 -368q-162 8 -380 8q-195 0 -414 -10zM393 1245q76 121 142 248q47 94 81 141q33 45 78 45q29 0 45 -14 q29 -24 29 -57q0 -31 -29 -70q-41 -51 -116 -113q-14 -12 -75 -68.5t-132 -129.5z" />
<glyph unicode="&#x17b;" horiz-adv-x="2029" d="M72 1272l110 370h1385v-10l-1141 -1788q137 -6 414 -53q174 -31 285.5 -45t224.5 -14q184 0 322 78.5t215 209t77 279.5q0 123 -51 220t-140.5 151.5t-197.5 54.5q-119 0 -197 -69.5t-78 -186.5q0 -84 48.5 -145.5t121.5 -61.5q59 0 99.5 34t40.5 87q0 31 -14.5 58.5 t-32.5 43.5l6 11q63 -37 63 -113q0 -66 -43 -109t-119 -43q-86 0 -146 65.5t-60 172.5q0 125 90 206t221 81q180 0 300 -120t120 -337q0 -166 -80 -302t-227.5 -216t-337.5 -80q-113 0 -220.5 14.5t-293.5 44.5q-176 33 -289 48.5t-230 15.5t-219 -19v11l1149 1800h-655 q-176 0 -310.5 -104.5t-191.5 -239.5h-18zM694 1894q0 53 39 92t92 39q54 0 92.5 -38.5t38.5 -92.5q0 -53 -38.5 -92t-92.5 -39q-53 0 -92 39t-39 92z" />
<glyph unicode="&#x17c;" horiz-adv-x="974" d="M78 -10l592 1034h-226q-137 0 -203.5 -77t-80.5 -253h-47q0 268 -9 369q162 -8 381 -8q195 0 414 10l-592 -1034h225q127 0 199 78.5t86 250.5h47q0 -268 8 -368q-162 8 -380 8q-195 0 -414 -10zM389 1436q0 53 39 92t92 39t92 -39t39 -92t-39 -92t-92 -39t-92 38.5 t-39 92.5z" />
<glyph unicode="&#x17d;" horiz-adv-x="2023" d="M72 1272l110 370h1385v-10l-1141 -1788q137 -6 414 -53q174 -31 285.5 -45t224.5 -14q184 0 322 78.5t215 209t77 279.5q0 123 -51 220t-140.5 151.5t-197.5 54.5q-119 0 -197 -69.5t-78 -186.5q0 -84 48.5 -145.5t121.5 -61.5q59 0 99.5 34t40.5 87q0 31 -14.5 58.5 t-32.5 43.5l6 11q63 -37 63 -113q0 -66 -43 -109t-119 -43q-86 0 -146 65.5t-60 172.5q0 125 90 206t221 81q180 0 300 -120t120 -337q0 -166 -80 -302t-227.5 -216t-337.5 -80q-113 0 -220.5 14.5t-293.5 44.5q-176 33 -289 48.5t-230 15.5t-219 -19v11l1149 1800h-655 q-176 0 -310.5 -104.5t-191.5 -239.5h-18zM424 2054l10 29q123 -27 243 -66t189 -78q57 39 154.5 78t196.5 66l10 -29q-131 -45 -232.5 -117.5t-150.5 -152.5h-37q-49 80 -150.5 152.5t-232.5 117.5z" />
<glyph unicode="&#x17e;" horiz-adv-x="974" d="M78 -10l592 1034h-226q-137 0 -203.5 -77t-80.5 -253h-47q0 268 -9 369q162 -8 381 -8q195 0 414 10l-592 -1034h225q127 0 199 78.5t86 250.5h47q0 -268 8 -368q-162 8 -380 8q-195 0 -414 -10zM139 1614l17 28q111 -39 216 -94t169 -110q51 55 134 110.5t169 93.5 l16 -28q-117 -57 -208 -152.5t-134 -199.5h-37q-43 104 -134 199t-208 153z" />
<glyph unicode="&#x17f;" horiz-adv-x="679" d="M53 1012v41h164q0 180 22.5 278.5t82.5 167.5q41 47 104 75t139 28q106 0 178 -56q63 -51 64 -127q0 -47 -31 -77.5t-78 -30.5t-79.5 29.5t-32.5 80.5q0 43 23.5 70t62.5 35q-6 20 -33 32.5t-68 12.5q-45 0 -79.5 -20.5t-53.5 -55.5q-23 -41 -30 -121t-7 -268v-895 q0 -94 54.5 -131t162.5 -37v-43l-49 2q-209 6 -266 6q-53 0 -242 -8v43q86 0 121 31.5t35 115.5v822h-164z" />
<glyph unicode="&#x18f;" horiz-adv-x="1439" d="M109 606h1013q6 59 6 127q0 211 -65.5 366.5t-177 237.5t-248.5 82q-90 0 -184.5 -34.5t-151.5 -102.5q-39 -45 -60.5 -112.5t-41.5 -190.5h-47q0 338 -9 471h47q6 -66 17.5 -93.5t34.5 -27.5q14 0 41 17q94 63 179 98t218 35q203 0 349.5 -92.5t224 -263.5t77.5 -404 q0 -229 -74.5 -397t-219 -259.5t-345.5 -91.5q-266 0 -424.5 160t-158.5 475zM309 567q-8 -156 40 -282.5t143.5 -200.5t222.5 -74q168 0 275.5 139.5t133.5 417.5h-815z" />
<glyph unicode="&#x192;" horiz-adv-x="940" d="M10 -276q0 43 26.5 69.5t69.5 26.5q41 0 67 -26.5t26 -65.5q0 -47 -33 -82q76 10 110 49q25 29 33 67q10 47 10 105v1145h-245v41h245v2q0 180 23 277.5t82 166.5q41 47 104.5 75t139.5 28q109 0 175 -53.5t66 -129.5q0 -45 -28.5 -74.5t-75.5 -29.5q-49 0 -80 26.5 t-31 75.5q0 37 22.5 63.5t65.5 41.5q-6 20 -36.5 34.5t-71.5 14.5q-45 0 -80 -20.5t-53 -55.5q-25 -43 -31 -130t-6 -310v-2h342v-41h-342v-776q0 -166 -22.5 -291t-86.5 -205q-47 -61 -113.5 -93t-134.5 -32t-102.5 30.5t-34.5 78.5z" />
<glyph unicode="&#x1a0;" horiz-adv-x="2050" d="M61 723q0 264 118 482t338 346t515 128t515 -128t338 -346t118 -482t-118 -485.5t-338 -351.5t-515 -130t-515 130t-338 351.5t-118 485.5zM307 723q0 -242 85 -458t249 -348t391 -132q228 0 391.5 132t248.5 348t85 458t-85 455t-248.5 343t-391.5 130h-2 q-156 0 -273.5 -78t-181 -206t-63.5 -273q0 -123 51 -226.5t140.5 -163t195.5 -59.5q115 0 195 70.5t80 185.5q0 80 -49.5 141.5t-120.5 61.5q-59 0 -98.5 -34t-39.5 -85q0 -31 14.5 -57.5t32.5 -42.5l-8 -11q-61 37 -61 111q0 63 42 103t118 40q84 0 141 -61t57 -166 q0 -127 -87 -203.5t-216 -76.5q-113 0 -208 59t-151.5 166.5t-56.5 247.5q0 115 35 218t100 181l-4 4q-147 -125 -227 -333t-80 -441zM1505 1552q94 0 161 17.5t124 52.5q-76 61 -76 139q0 49 31 85t88 36q53 0 84 -32.5t31 -80.5q0 -51 -36 -98t-97 -84q-102 -57 -228 -71z " />
<glyph unicode="&#x1a1;" horiz-adv-x="1122" d="M96 526q0 281 128 419t337 138q137 0 242 -59q80 8 143 39q-51 51 -51 115q0 45 25.5 78.5t74.5 33.5q45 0 68.5 -27.5t23.5 -70.5q0 -45 -26.5 -83t-69.5 -65q-57 -35 -143 -51q178 -145 178 -467q0 -281 -128 -418t-337 -137t-337 137.5t-128 417.5zM295 526 q0 -264 71.5 -389t194.5 -125t194.5 125t71.5 389t-71.5 390t-194.5 126t-194.5 -125.5t-71.5 -390.5z" />
<glyph unicode="&#x1af;" horiz-adv-x="2232" d="M82 1163q0 127 66.5 234.5t182 170t257.5 62.5h661v-16q-86 0 -126 -58.5t-40 -146.5v-1077q0 -262 96.5 -402.5t317.5 -140.5q258 0 380 152.5t122 390.5v1077q0 88 -40 146.5t-126 58.5v16h326q14 2 26 4q55 10 113 54q-33 27 -55.5 62.5t-22.5 76.5q0 51 30.5 87 t88.5 36q55 0 85 -33t30 -82q0 -51 -36 -97t-98 -83q-104 -61 -190 -68l-21 4q-23 -12 -36 -35q-41 -59 -41 -147v-1057q0 -285 -133.5 -440.5t-442.5 -155.5q-317 0 -459.5 160t-142.5 428v991q0 121 -68.5 194t-197.5 73q-135 0 -243.5 -61.5t-171 -162t-62.5 -215.5 q0 -98 39.5 -179t108.5 -127t153 -46q92 0 156.5 54.5t64.5 144.5q0 66 -38 113.5t-95 47.5q-47 0 -78 -26.5t-31 -67.5q0 -25 11.5 -46t25.5 -34l-6 -8q-49 29 -49 88q0 51 33.5 85t93.5 34q66 0 111.5 -51t45.5 -135q0 -100 -71.5 -162t-173.5 -62q-90 0 -165 47.5 t-120 133.5t-45 196z" />
<glyph unicode="&#x1b0;" horiz-adv-x="1189" d="M33 1012v43q63 -6 127 -6q129 0 213 28v-805q0 -78 9 -126t43 -78.5t103 -30.5q78 0 141.5 49t99.5 134t36 188v423q0 94 -35 137.5t-121 43.5v43q63 -6 127 -6q123 0 209 26q41 18 51 25q-51 51 -51 114q0 45 25.5 79t74.5 34q45 0 69 -27.5t24 -68.5q0 -84 -97 -150 q-41 -29 -92 -45v-815q0 -94 35 -137t121 -43v-43q-63 6 -127 6q-129 0 -213 -29v242q-49 -127 -139.5 -186.5t-196.5 -59.5q-139 0 -213 78q-37 41 -52.5 104.5t-15.5 163.5v514q0 94 -34.5 137.5t-120.5 43.5z" />
<glyph unicode="&#x1b7;" horiz-adv-x="1409" d="M111 -166q10 137 10 600h57q14 -250 145.5 -409.5t368.5 -159.5q211 0 318.5 127t107.5 325q0 211 -114.5 337t-311.5 175v50l434 690h-526q-156 0 -237.5 -44t-118.5 -142.5t-56 -282.5h-57q6 80 6 190q0 158 -16 336q186 -8 624 -8q426 0 609 8v-49l-461 -743 q203 -70 334 -197t131 -318q0 -150 -85 -264t-231.5 -176.5t-328.5 -62.5q-133 0 -238.5 28.5t-165.5 63.5q-57 35 -84 35q-25 0 -37 -24.5t-20 -84.5h-57z" />
<glyph unicode="&#x1cd;" horiz-adv-x="2383" d="M82 -90q0 125 55.5 227.5t156.5 161.5t234 59q90 0 160 -38.5t108 -104t38 -141.5q0 -86 -52.5 -141.5t-122.5 -55.5q-59 0 -93 34t-34 85q0 59 50 88l6 -8q-14 -12 -25.5 -34t-11.5 -46q0 -41 30.5 -67.5t77.5 -26.5q61 0 103.5 52t42.5 120q0 72 -38 131t-101.5 94 t-137.5 35q-127 0 -222 -61.5t-145 -159t-50 -203.5q0 -133 63.5 -235.5t169 -158t227.5 -55.5q229 0 353.5 171t167.5 393.5t67 535.5q2 55 10 133q27 289 92.5 476.5t181.5 292t296 139.5h-762q-135 0 -243.5 -61.5t-171 -162t-62.5 -215.5q0 -98 40 -179t108.5 -127 t152.5 -46q94 0 160.5 54.5t66.5 144.5q0 66 -39 113.5t-96 47.5q-47 0 -80 -27.5t-33 -66.5q0 -25 11.5 -46t25.5 -34l-6 -8q-49 29 -49 88q0 51 36 85t95 34q68 0 114 -51t46 -135q0 -100 -74 -162t-178 -62q-90 0 -165 47.5t-120 133.5t-45 196q0 127 66.5 234.5 t182.5 170t257 62.5h1380v-16q-88 0 -137 -63.5t-49 -161.5v-1342q0 -98 49 -161.5t137 -63.5v-17h-602v17q88 0 137.5 63.5t49.5 161.5v733h-535l-4 -49q-23 -266 -109 -561t-265 -514t-458 -219q-129 0 -240.5 56t-180 163.5t-68.5 253.5zM1378 2030l11 28 q123 -27 242.5 -65.5t189.5 -77.5q57 39 154.5 78t195.5 65l10 -28q-131 -45 -232.5 -118t-150.5 -153h-37q-49 80 -150.5 153t-232.5 118zM1409 809h533v788q-221 -2 -326 -81.5t-142.5 -232.5t-64.5 -474z" />
<glyph unicode="&#x1ce;" horiz-adv-x="1019" d="M80 229q0 92 50 151.5t118.5 94.5t181.5 74q115 39 170 71.5t55 88.5v127q0 119 -50 162.5t-140 43.5q-143 0 -203 -73q41 -10 68.5 -43t27.5 -82q0 -51 -32.5 -81t-83.5 -30q-57 0 -86 36t-29 87q0 49 23.5 82t70.5 66q49 35 125 57t166 22q160 0 242 -75 q51 -47 68.5 -114t17.5 -175v-569q0 -51 14 -74t49 -23q25 0 46.5 11.5t45.5 31.5l23 -35q-53 -41 -91 -58t-96 -17q-98 0 -137 49t-39 133q-61 -102 -141 -142t-180 -40q-129 0 -191.5 64.5t-62.5 178.5zM123 1614l16 28q111 -39 216.5 -94t168.5 -110q51 55 134 110.5 t169 93.5l17 -28q-117 -57 -208 -152.5t-134 -199.5h-37q-43 104 -134 199t-208 153zM260 254q0 -92 45 -139t119 -47q135 -1 231 155v402q-18 -29 -51 -47.5t-100 -49.5q-78 -33 -126 -62.5t-83 -80.5t-35 -131z" />
<glyph unicode="&#x1d3;" horiz-adv-x="2238" d="M82 1163q0 127 66.5 234.5t182 170t257.5 62.5h661v-16q-86 0 -126 -58.5t-40 -146.5v-1077q0 -262 96.5 -402.5t317.5 -140.5q258 0 380 152.5t122 390.5v1077q0 88 -40 146.5t-126 58.5v16h365v-16q-86 0 -126 -58.5t-40 -146.5v-1057q0 -285 -133.5 -440.5 t-442.5 -155.5q-317 0 -459.5 160t-142.5 428v991q0 121 -68.5 194t-197.5 73q-135 0 -243.5 -61.5t-171 -162t-62.5 -215.5q0 -98 39.5 -179t108.5 -127t153 -46q92 0 156.5 54.5t64.5 144.5q0 66 -38 113.5t-95 47.5q-47 0 -78 -26.5t-31 -67.5q0 -25 11.5 -46t25.5 -34 l-6 -8q-49 29 -49 88q0 51 33.5 85t93.5 34q66 0 111.5 -51t45.5 -135q0 -100 -71.5 -162t-173.5 -62q-90 0 -165 47.5t-120 133.5t-45 196zM1106 2050l10 29q123 -27 243 -66t189 -78q57 39 154.5 78t195.5 66l11 -29q-131 -45 -232.5 -117.5t-150.5 -152.5h-37 q-49 80 -150.5 152.5t-232.5 117.5z" />
<glyph unicode="&#x1d4;" horiz-adv-x="1189" d="M33 1012v43q63 -6 127 -6q129 0 213 28v-805q0 -78 9 -126t43 -78.5t103 -30.5q78 0 141.5 49t99.5 134t36 188v423q0 94 -35 137.5t-121 43.5v43q63 -6 127 -6q129 0 213 28v-856q0 -94 35 -137t121 -43v-43q-63 6 -127 6q-129 0 -213 -29v242q-49 -127 -139.5 -186.5 t-196.5 -59.5q-139 0 -213 78q-37 41 -52.5 104.5t-15.5 163.5v514q0 94 -34.5 137.5t-120.5 43.5zM193 1614l16 28q111 -39 216 -94t169 -110q51 55 134 110.5t169 93.5l16 -28q-117 -57 -208 -152.5t-134 -199.5h-36q-43 104 -134.5 199t-207.5 153z" />
<glyph unicode="&#x1e4;" horiz-adv-x="2033" d="M123 719q0 272 127 491.5t353 344t509 124.5q125 0 228.5 -31.5t224.5 -84.5q96 -43 125 -43t49 18t20 45h19v-502h-19q-23 164 -115 294t-232 203t-300 73q-201 0 -364.5 -133.5t-257 -349.5t-93.5 -449q0 -244 77 -458t226.5 -345t358.5 -131q147 0 269 67.5 t192.5 160.5t70.5 161v512q0 57 -54 100t-137 65.5t-163 22.5q-127 0 -228.5 -47t-159.5 -131t-58 -186q0 -88 39.5 -161t109.5 -114.5t156 -41.5q100 0 169.5 59t69.5 151q0 68 -40 117t-101 49q-47 0 -78 -26.5t-31 -67.5q0 -23 11.5 -45t25.5 -35l-6 -8q-49 29 -49 88 q0 53 34 86t93 33q70 0 120 -53.5t50 -137.5q0 -102 -79 -168.5t-189 -66.5q-92 0 -168 41t-121 117.5t-45 183.5q0 115 61.5 204t170 137t243.5 48q86 0 152.5 -10t152.5 -33q104 -25 190.5 -38t209.5 -13v-17q-86 0 -116 -58t-30 -167v-557q-47 0 -95 -20.5t-130 -67.5 q-133 -76 -247 -119t-265 -43q-281 0 -493 129t-327.5 349.5t-115.5 484.5zM1405 399v72h590v-72h-590z" />
<glyph unicode="&#x1e5;" horiz-adv-x="1060" d="M-102 -113h131q39 98 202 144l13 -33q-35 -12 -59.5 -41t-34.5 -70h692v11q0 74 -52.5 114.5t-185.5 40.5h-151q-121 0 -194 31t-73 123q0 63 46.5 120.5t152.5 112.5q-135 14 -216 94t-81 226q0 162 98.5 242.5t259.5 80.5q193 0 285 -106q39 55 98.5 91t118.5 36 q53 0 86 -31t33 -88t-31.5 -86t-70.5 -29q-37 0 -62.5 25t-25.5 72q0 41 20 94q-53 -23 -84 -50.5t-55 -68.5q47 -72 47 -182q0 -162 -98.5 -243t-260.5 -81h-2q-68 -39 -102.5 -71.5t-34.5 -73.5q0 -66 99 -66h256q139 0 230 -60.5t91 -180.5q0 -47 -16 -97h176v-41h-195 q-53 -104 -185 -167.5t-327 -63.5q-178 0 -298 54.5t-120 160.5v16h-120v41zM145 -154v-2q0 -94 85 -144t229 -50q139 0 246.5 48t130.5 148h-691zM281 760q0 -158 42 -222.5t123 -64.5q82 0 124 64.5t42 222.5t-42 222.5t-124 64.5t-123.5 -64.5t-41.5 -222.5z" />
</font>
</defs>
</svg>
