<?xml version="1.0" standalone="no"?>
<!DOCTYPE svg PUBLIC "-//W3C//DTD SVG 1.1//EN" "http://www.w3.org/Graphics/SVG/1.1/DTD/svg11.dtd" >
<svg xmlns="http://www.w3.org/2000/svg" xmlns:xlink="http://www.w3.org/1999/xlink" version="1.1">
<metadata></metadata>
<defs>
<font id="myanmar_ethnicregular" horiz-adv-x="0" >
<font-face units-per-em="2048" ascent="1638" descent="-410" />
<missing-glyph horiz-adv-x="520" />
<glyph unicode="&#xd;" horiz-adv-x="520" />
<glyph unicode=" "  horiz-adv-x="520" />
<glyph unicode="&#x09;" horiz-adv-x="520" />
<glyph unicode="&#xa0;" horiz-adv-x="520" />
<glyph unicode="!" horiz-adv-x="662" d="M222 1452h218l-26 -1053h-162zM232 0v206h199v-206h-199z" />
<glyph unicode="&#x22;" horiz-adv-x="801" d="M112 1518h212l-42 -566h-128zM478 1518h212l-42 -566h-129z" />
<glyph unicode="#" horiz-adv-x="1453" d="M138 411v131h286l90 366h-261v132h295l102 412h126l-102 -412h263l102 412h126l-102 -412h251v-132h-285l-89 -366h260v-131h-295l-102 -411h-125l101 411h-263l-102 -411h-126l102 411h-252zM547 540h267l92 370h-267z" />
<glyph unicode="$" horiz-adv-x="1090" d="M103 83v197h15q77 -57 173.5 -93t209.5 -47v421q-24 6 -59 14.5t-60 16.5q-146 40 -208.5 121t-62.5 198q0 138 108 240.5t282 120.5v265h111v-263q89 -3 184 -25t155 -49v-192h-14q-69 46 -150 81t-175 43v-419q32 -7 60 -14.5t50 -12.5q131 -31 203.5 -108t72.5 -207 q0 -143 -109.5 -245.5t-276.5 -124.5v-353h-111v348q-104 1 -211.5 24.5t-186.5 62.5zM295 937q0 -87 43 -134t163 -76v403q-87 -7 -146.5 -56t-59.5 -137zM612 142q99 11 150.5 60t51.5 143q0 92 -46 135.5t-156 66.5v-405z" />
<glyph unicode="%" horiz-adv-x="1949" d="M99 1049q0 218 88.5 324t255.5 106q170 0 256.5 -107t86.5 -322q0 -220 -88 -326t-255 -106q-169 0 -256.5 107.5t-87.5 323.5zM273 1049q0 -146 33 -223.5t137 -77.5q100 0 135 77.5t35 224.5t-34.5 223.5t-135.5 76.5q-100 0 -135 -77.5t-35 -223.5zM515 0l760 1452 h162l-761 -1452h-161zM1162 401q0 219 88.5 325.5t255.5 106.5q170 0 256.5 -107.5t86.5 -323.5q0 -219 -88 -325t-255 -106q-170 0 -257 107.5t-87 322.5zM1335 401q0 -146 33.5 -223t137.5 -77q100 0 135 77t35 224q0 148 -34.5 224t-135.5 76q-100 0 -135.5 -76.5 t-35.5 -224.5z" />
<glyph unicode="&#x26;" horiz-adv-x="1345" d="M67 398q0 84 22.5 149.5t62.5 118.5q38 51 87.5 89.5t95.5 66.5q-99 66 -148 139t-49 185q0 69 28 128t73 103q47 46 121.5 75.5t162.5 29.5q162 0 264.5 -85t102.5 -216q0 -48 -12 -99.5t-44 -97.5q-32 -49 -84.5 -91t-139.5 -73l343 -353q14 80 17 174t3 246h190v-94 q0 -93 -24 -211t-78 -224l348 -358h-250l-198 208q-99 -127 -204.5 -183t-237.5 -56q-198 0 -325 119t-127 310zM265 445q0 -138 82.5 -227t222.5 -89q93 0 169 39.5t137 125.5l-449 459q-25 -15 -49 -37t-53 -65q-24 -34 -42 -89t-18 -117zM330 1154q0 -39 7 -66.5 t31 -64.5q20 -31 56.5 -64.5t94.5 -69.5q54 18 89.5 49.5t55.5 69.5q18 34 26.5 71.5t8.5 81.5q0 94 -55 146t-128 52q-87 0 -136.5 -58.5t-49.5 -146.5z" />
<glyph unicode="'" horiz-adv-x="420" d="M102 1518h216l-42 -566h-132z" />
<glyph unicode="(" horiz-adv-x="763" d="M105 558q0 300 96 528.5t268 431.5h223v-10q-79 -72 -150.5 -165t-132.5 -217q-58 -120 -95.5 -264t-37.5 -304q0 -167 36 -305.5t97 -262.5q58 -121 133 -218t150 -164v-9h-223q-170 202 -267 427t-97 532z" />
<glyph unicode=")" horiz-adv-x="763" d="M72 -392q76 68 151.5 165.5t132.5 216.5q60 125 95.5 265t35.5 303q0 161 -35.5 304.5t-95.5 263.5q-60 121 -135 217.5t-149 164.5v10h224q169 -203 266 -430t97 -530q0 -302 -96.5 -530t-266.5 -429h-224v9z" />
<glyph unicode="*" horiz-adv-x="1090" d="M109 864l346 202l-346 202l64 107l319 -214l-8 357h122l-7 -357l320 213l63 -107l-345 -200l345 -202l-63 -107l-319 211l6 -355h-122l6 355l-317 -212z" />
<glyph unicode="+" horiz-adv-x="1453" d="M154 558v156h491v492h162v-492h492v-156h-492v-491h-162v491h-491z" />
<glyph unicode="," horiz-adv-x="604" d="M72 -360l172 638h243l-273 -638h-142z" />
<glyph unicode="-" horiz-adv-x="724" d="M88 547v176h550v-176h-550z" />
<glyph unicode="." horiz-adv-x="604" d="M185 0v278h233v-278h-233z" />
<glyph unicode="/" horiz-adv-x="763" d="M-24 -315l566 1833h168l-569 -1833h-165z" />
<glyph unicode="0" horiz-adv-x="1090" d="M81 724q0 393 113.5 575t350.5 182q240 0 352 -188t112 -567q0 -390 -113.5 -573.5t-350.5 -183.5q-240 0 -352 186.5t-112 568.5zM279 724q0 -152 9 -254t41 -183q28 -75 80 -115.5t136 -40.5q81 0 133 38.5t82 115.5q28 72 39.5 182t11.5 259q0 150 -12 260t-40 183 q-30 74 -81 112.5t-133 38.5q-81 0 -133.5 -38.5t-81.5 -114.5q-30 -75 -40.5 -188t-10.5 -255z" />
<glyph unicode="1" horiz-adv-x="1090" d="M220 0v148h263v973h-263v132q150 0 220.5 42.5t78.5 161.5h152v-1309h257v-148h-708z" />
<glyph unicode="2" horiz-adv-x="1090" d="M106 0v204q96 92 182.5 175.5t168.5 174.5q165 182 225.5 291.5t60.5 226.5q0 60 -19 106.5t-52 75.5q-34 30 -79 45t-98 15q-52 0 -105.5 -13.5t-101.5 -32.5q-41 -16 -79 -40t-62 -40h-11v207q61 30 169 58.5t204 28.5q203 0 318 -107.5t115 -292.5q0 -85 -20 -157 t-56 -133q-36 -63 -86.5 -126t-106.5 -123q-92 -99 -204.5 -206.5t-179.5 -169.5h713v-167h-896z" />
<glyph unicode="3" horiz-adv-x="1090" d="M94 59v206h15q61 -45 164.5 -86t205.5 -41q60 0 120 19t100 62q39 43 59.5 95t20.5 130q0 79 -23 130t-64 80t-96.5 40.5t-121.5 11.5h-83v161h65q131 0 213.5 62.5t82.5 181.5q0 55 -21.5 95t-54.5 63q-37 26 -82 35.5t-95 9.5q-53 0 -106 -13t-103 -33q-47 -19 -82 -41 t-62 -40h-12v206q63 34 172.5 61.5t207.5 27.5t172 -20t133 -62q65 -46 97 -112.5t32 -155.5q0 -120 -78.5 -211t-188.5 -115v-13q45 -8 97 -30t98 -64q45 -42 73 -108t28 -160q0 -98 -34 -180.5t-95 -146.5q-63 -67 -153 -101t-203 -34q-110 0 -217 27t-181 63z" />
<glyph unicode="4" horiz-adv-x="1090" d="M39 500v203l649 749h179v-797h173v-155h-173v-500h-186v500h-642zM191 655h490v568z" />
<glyph unicode="5" horiz-adv-x="1090" d="M121 52v206h13q23 -16 64.5 -37t93.5 -40q57 -20 104.5 -31.5t107.5 -11.5q58 0 114 21t96 68q36 43 54.5 100.5t18.5 135.5q0 77 -21 127t-60 82q-42 37 -103 52t-136 15q-79 0 -159 -12t-128 -24v749h797v-171h-608v-386q35 4 69 6t62 2q112 0 188 -18.5t149 -72.5 q72 -54 110.5 -136t38.5 -214q0 -105 -33.5 -195t-94.5 -155q-61 -66 -152.5 -104.5t-204.5 -38.5q-103 0 -204.5 23t-175.5 60z" />
<glyph unicode="6" horiz-adv-x="1090" d="M83 638q0 188 39 341t120 267q79 109 203.5 171t288.5 62q49 0 90.5 -5t74.5 -16v-185h-9q-26 14 -76 26.5t-106 12.5q-181 0 -293 -122.5t-132 -364.5q70 49 143 75.5t159 26.5q85 0 149 -17t132 -68q81 -60 120 -153t39 -218q0 -113 -37.5 -207t-99.5 -158 q-65 -68 -145.5 -102.5t-179.5 -34.5q-98 0 -178.5 33.5t-141.5 98.5q-75 79 -117.5 211t-42.5 326zM279 596q0 -152 29.5 -244.5t73.5 -139.5q42 -46 86.5 -64.5t95.5 -18.5q118 0 190 83.5t72 250.5q0 90 -23 150.5t-76 103.5q-38 31 -86 40.5t-99 9.5q-68 0 -132.5 -20.5 t-126.5 -59.5q-2 -22 -3 -41.5t-1 -49.5z" />
<glyph unicode="7" horiz-adv-x="1090" d="M96 1281v171h922v-218l-628 -1234h-208l665 1281h-751z" />
<glyph unicode="8" horiz-adv-x="1090" d="M72 400q0 119 63 218t182 157v6q-106 62 -157.5 136t-51.5 186q0 164 123.5 273t313.5 109q199 0 318 -104t119 -266q0 -97 -57.5 -193t-163.5 -149v-6q126 -59 191.5 -143.5t65.5 -219.5q0 -186 -135 -311.5t-338 -125.5q-108 0 -197 32t-150 93q-62 58 -94 138.5 t-32 169.5zM268 416q0 -131 79.5 -217.5t199.5 -86.5q123 0 197 73.5t74 200.5q0 90 -35 142.5t-136 107.5q-33 18 -88 39.5t-124 50.5q-81 -53 -124 -131.5t-43 -178.5zM302 1125q0 -73 34.5 -122.5t103.5 -89.5q31 -16 93 -45t112 -46q85 65 115.5 134t30.5 157 q0 98 -65.5 163t-181.5 65q-105 0 -173.5 -58t-68.5 -158z" />
<glyph unicode="9" horiz-adv-x="1090" d="M67 980q0 112 35.5 204.5t99.5 160.5q60 65 147.5 100.5t176.5 35.5q100 0 182 -33.5t141 -96.5q76 -80 117.5 -210t41.5 -328q0 -180 -40.5 -341.5t-120.5 -267.5q-83 -113 -201 -173t-290 -60q-40 0 -83.5 5t-81.5 16v186h10q25 -13 76.5 -26t104.5 -13 q191 0 300.5 126t123.5 360q-78 -52 -148.5 -77t-153.5 -25q-81 0 -147 18t-134 68q-78 59 -117 150.5t-39 220.5zM263 988q0 -93 23.5 -152t75.5 -102q37 -31 84.5 -41t100.5 -10q62 0 134.5 22t125.5 59q2 14 3 37.5t1 53.5q0 148 -27 241.5t-75 143.5q-43 47 -86.5 64.5 t-97.5 17.5q-120 0 -191 -85.5t-71 -248.5z" />
<glyph unicode=":" horiz-adv-x="705" d="M237 0v278h233v-278h-233zM237 811v279h233v-279h-233z" />
<glyph unicode=";" horiz-adv-x="705" d="M119 -360l172 638h244l-274 -638h-142zM237 811v279h233v-279h-233z" />
<glyph unicode="&#x3c;" horiz-adv-x="1453" d="M196 578v116l1047 500v-173l-812 -385l812 -385v-174z" />
<glyph unicode="=" horiz-adv-x="1453" d="M187 353v156h1079v-156h-1079zM187 763v156h1079v-156h-1079z" />
<glyph unicode="&#x3e;" horiz-adv-x="1453" d="M210 77v174l812 385l-812 385v173l1046 -500v-116z" />
<glyph unicode="?" horiz-adv-x="946" d="M106 1213v200q66 26 165.5 47t188.5 21q200 0 314.5 -102t114.5 -269q0 -95 -32 -169.5t-84 -131.5q-51 -56 -118.5 -104t-141.5 -93v-222h-175v297q55 35 128 80.5t114 85.5q52 50 81 109t29 134q0 111 -69 164.5t-181 53.5q-97 0 -183 -32.5t-140 -68.5h-11zM330 0v206 h198v-206h-198z" />
<glyph unicode="@" horiz-adv-x="1815" d="M129 631q0 357 233.5 603t568.5 246q359 0 562 -231.5t203 -602.5q0 -135 -37.5 -261.5t-106.5 -230.5h-410l-25 112q-66 -55 -120.5 -88t-149.5 -33q-150 0 -245.5 120.5t-95.5 349.5t117.5 357t268.5 128q71 0 121.5 -17.5t101.5 -47.5v47h156v-821h221q37 70 53 180 t16 200q0 318 -162.5 513t-466.5 195q-289 0 -476.5 -210.5t-187.5 -509.5q0 -322 182.5 -521.5t476.5 -199.5q80 0 167 10.5t164 34.5v-138q-82 -19 -165.5 -27t-165.5 -8q-346 0 -572 237t-226 614zM673 618q0 -157 50.5 -239.5t162.5 -82.5q59 0 117 28.5t110 72.5v506 q-54 28 -99.5 40t-95.5 12q-111 0 -178 -82t-67 -255z" />
<glyph unicode="A" horiz-adv-x="1197" d="M-10 0l489 1452h239l489 -1452h-203l-133 406h-555l-131 -406h-195zM371 570h447l-224 684z" />
<glyph unicode="B" horiz-adv-x="1176" d="M147 0v1452h385q155 0 233 -10t148 -48q78 -42 114.5 -110.5t36.5 -159.5q0 -102 -54.5 -183t-149.5 -127v-8q129 -35 200.5 -128.5t71.5 -232.5q0 -109 -41 -191t-110 -136q-82 -65 -175.5 -91.5t-242.5 -26.5h-416zM340 165h158q126 0 199 11.5t128 49.5t80.5 86 t25.5 126q0 81 -23 134.5t-95 90.5q-46 25 -100 31.5t-153 6.5h-220v-536zM340 862h220q90 0 133 9.5t89 37.5q43 29 62 74.5t19 113.5q0 53 -18 91.5t-57 60.5q-46 26 -103.5 32t-159.5 6h-185v-425z" />
<glyph unicode="C" horiz-adv-x="1199" d="M65 724q0 182 46 318t135 236q87 97 205.5 148.5t266.5 51.5q73 0 137 -10.5t118 -27.5q47 -14 96 -36.5t97 -48.5v-233h-15q-26 24 -65.5 57t-97.5 65q-56 30 -121 50t-151 20q-93 0 -175.5 -38.5t-145.5 -112.5q-61 -74 -95.5 -186t-34.5 -253q0 -148 36 -256.5 t98 -181.5q60 -72 142.5 -109t174.5 -37q84 0 155 20.5t126 52.5q53 30 92.5 61.5t61.5 54.5h15v-231q-48 -23 -90.5 -43t-102.5 -40q-63 -20 -117 -31t-141 -11q-142 0 -261.5 48.5t-206.5 142.5t-134.5 235.5t-47.5 324.5z" />
<glyph unicode="D" horiz-adv-x="1354" d="M147 0v1452h331q205 0 321 -30.5t198 -85.5q140 -92 217.5 -245.5t77.5 -366.5q0 -199 -81 -358.5t-216 -249.5q-110 -69 -223.5 -92.5t-290.5 -23.5h-334zM340 166h147q129 0 225.5 20.5t176.5 75.5q100 69 151 182.5t51 282.5q0 168 -55.5 286.5t-165.5 184.5 q-77 48 -164.5 68t-218.5 20h-147v-1120z" />
<glyph unicode="E" horiz-adv-x="1120" d="M147 0v1452h908v-172h-715v-397h667v-172h-667v-539h715v-172h-908z" />
<glyph unicode="F" horiz-adv-x="1041" d="M147 0v1452h869v-172h-676v-410h648v-171h-648v-699h-193z" />
<glyph unicode="G" horiz-adv-x="1333" d="M65 727q0 176 49 315t141 237q88 96 217.5 147.5t284.5 51.5q73 0 140.5 -10.5t128.5 -29.5q48 -14 108 -40t98 -44v-234h-18q-36 32 -74 61t-109 62q-58 30 -134 49.5t-164 19.5q-210 0 -339 -158.5t-129 -420.5q0 -146 34.5 -255t97.5 -185q62 -76 151 -115.5 t198 -39.5q82 0 163 12t138 35v375h-336v170h526v-634q-37 -16 -99 -41t-115 -41q-72 -22 -129 -32.5t-139 -10.5q-154 0 -282 48t-219 142q-92 96 -140.5 238.5t-48.5 327.5z" />
<glyph unicode="H" horiz-adv-x="1348" d="M147 0v1452h193v-569h669v569h193v-1452h-193v711h-669v-711h-193z" />
<glyph unicode="I" horiz-adv-x="744" d="M91 0v148h184v1156h-184v148h563v-148h-185v-1156h185v-148h-563z" />
<glyph unicode="J" horiz-adv-x="831" d="M9 8v185h10q40 -14 99 -31t121 -17q90 0 143 20.5t78 58.5q27 39 34 96t7 131v846h-307v155h500v-1075q0 -190 -116.5 -293.5t-312.5 -103.5q-47 0 -125.5 8t-130.5 20z" />
<glyph unicode="K" horiz-adv-x="1173" d="M147 0v1452h193v-668l595 668h235l-601 -648l636 -804h-251l-529 676l-85 -95v-581h-193z" />
<glyph unicode="L" horiz-adv-x="993" d="M147 0v1452h193v-1280h648v-172h-841z" />
<glyph unicode="M" horiz-adv-x="1538" d="M147 0v1452h264l362 -809l350 809h269v-1452h-194v1251l-378 -852h-118l-373 852v-1251h-182z" />
<glyph unicode="N" horiz-adv-x="1333" d="M147 0v1452h274l585 -1150v1150h180v-1452h-217l-640 1252v-1252h-182z" />
<glyph unicode="O" horiz-adv-x="1413" d="M65 725q0 183 45 322t129 238q84 96 202.5 146.5t264.5 50.5q148 0 267 -52t201 -145q83 -95 129 -237t46 -323q0 -176 -45.5 -318.5t-129.5 -238.5q-88 -101 -207 -150t-261 -49q-146 0 -264.5 50.5t-203.5 148.5q-84 96 -128.5 237.5t-44.5 319.5zM265 725 q0 -286 120 -437.5t322 -151.5t321.5 151.5t119.5 437.5q0 144 -31.5 255.5t-87.5 184.5q-58 75 -139 112.5t-183 37.5q-105 0 -184 -36.5t-139 -113.5q-57 -75 -88 -187t-31 -253z" />
<glyph unicode="P" horiz-adv-x="1100" d="M147 0v1452h365q129 0 219.5 -21.5t159.5 -69.5q81 -55 127 -140.5t46 -206.5q0 -94 -34 -178.5t-93 -144.5q-75 -74 -176.5 -112t-256.5 -38h-164v-541h-193zM340 706h132q117 0 189 18.5t120 68.5q43 44 62.5 95.5t19.5 120.5q0 76 -26 131t-78 91q-46 30 -107 42.5 t-152 12.5h-160v-580z" />
<glyph unicode="Q" horiz-adv-x="1413" d="M65 725q0 183 45 322t129 238q84 96 202.5 146.5t264.5 50.5q148 0 267 -52t201 -145q83 -95 129 -237t46 -323q0 -282 -110.5 -465t-301.5 -249q5 -54 19 -97.5t36 -68.5q27 -31 64.5 -45t102.5 -14q39 0 92 12.5t76 22.5h27v-176q-53 -13 -111 -20t-116 -7 q-163 0 -264.5 91.5t-111.5 260.5h-24h-21q-146 0 -265 51t-203 147t-128.5 237.5t-44.5 319.5zM265 725q0 -286 120 -438t322 -152t321.5 152t119.5 438q0 144 -31.5 255.5t-87.5 184.5q-58 75 -139 112.5t-183 37.5q-105 0 -184 -36.5t-139 -113.5q-57 -75 -88 -187 t-31 -253z" />
<glyph unicode="R" horiz-adv-x="1239" d="M147 0v1452h374q125 0 209.5 -14t160.5 -63q77 -49 121 -126.5t44 -190.5q0 -160 -81 -267.5t-220 -158.5l517 -632h-251l-461 578h-220v-578h-193zM340 738h170q83 0 149 14.5t113 60.5q42 41 62 97.5t20 132.5q0 63 -22.5 112.5t-68.5 80.5q-41 28 -96 39t-136 11h-191 v-548z" />
<glyph unicode="S" horiz-adv-x="1112" d="M75 87v242h14q95 -90 216 -139.5t234 -49.5q160 0 241.5 67t81.5 176q0 87 -43 142t-136 80q-68 19 -123.5 32t-139.5 35q-75 19 -134.5 49.5t-105.5 79.5q-45 47 -69.5 112t-24.5 150q0 176 137 295.5t351 119.5q122 0 230.5 -24t202.5 -70v-231h-16q-69 63 -177 111 t-227 48q-134 0 -217 -63t-83 -166q0 -93 48.5 -147t141.5 -80q61 -16 150 -37t147 -39q151 -46 220 -138.5t69 -227.5q0 -85 -35 -168t-97 -141q-70 -63 -158.5 -97.5t-220.5 -34.5q-158 0 -268.5 33t-208.5 81z" />
<glyph unicode="T" horiz-adv-x="1166" d="M-1 1280v172h1168v-172h-487v-1280h-194v1280h-487z" />
<glyph unicode="U" horiz-adv-x="1309" d="M130 547v905h193v-905q0 -101 12.5 -170t49.5 -123q39 -59 106 -89.5t163 -30.5q90 0 161 30.5t110 89.5q36 55 49 122t13 165v911h193v-905q0 -152 -31 -260.5t-108 -183.5q-70 -68 -162 -101t-225 -33q-128 0 -223 34t-163 100q-76 76 -107 182t-31 262z" />
<glyph unicode="V" horiz-adv-x="1191" d="M-8 1452h207l402 -1205l401 1205h197l-499 -1452h-208z" />
<glyph unicode="W" horiz-adv-x="1801" d="M26 1452h197l293 -1207l290 1207h196l293 -1219l291 1219h190l-365 -1452h-218l-295 1205l-289 -1205h-212z" />
<glyph unicode="X" horiz-adv-x="1159" d="M8 0l461 726l-446 726h219l347 -570l352 570h210l-455 -716l455 -736h-221l-353 581l-361 -581h-208z" />
<glyph unicode="Y" horiz-adv-x="1150" d="M-10 1452h214l375 -641l379 641h205l-490 -810v-642h-194v622z" />
<glyph unicode="Z" horiz-adv-x="1116" d="M58 0v179l778 1101h-743v172h960v-175l-786 -1105h805v-172h-1014z" />
<glyph unicode="[" horiz-adv-x="763" d="M162 -382v1900h507v-141h-336v-1620h336v-139h-507z" />
<glyph unicode="\" horiz-adv-x="763" d="M51 1518h167l566 -1833h-164z" />
<glyph unicode="]" horiz-adv-x="763" d="M95 -243h337v1620h-337v141h507v-1900h-507v139z" />
<glyph unicode="^" horiz-adv-x="1453" d="M130 665l535 787h122l536 -785h-193l-405 609l-403 -611h-192z" />
<glyph unicode="_" horiz-adv-x="1090" d="M-15 -166h1121v-127h-1121v127z" />
<glyph unicode="`" horiz-adv-x="1090" d="M242 1634h237l174 -364h-145z" />
<glyph unicode="a" horiz-adv-x="1048" d="M56 315q0 114 49 193.5t150 126.5q92 43 217 58.5t269 23.5v35q0 65 -19.5 104t-54.5 60q-35 24 -86 30.5t-104 6.5q-63 0 -149 -19t-172 -54h-11v186q50 14 145 31.5t188 17.5q113 0 189 -17.5t138 -63.5q60 -45 89.5 -116t29.5 -174v-744h-183v116q-23 -16 -60.5 -46 t-72.5 -47q-48 -26 -93.5 -40t-127.5 -14q-68 0 -128 25.5t-105 72.5q-45 45 -71.5 110.5t-26.5 137.5zM246 329q0 -94 52.5 -142.5t154.5 -48.5q87 0 157 38t131 92v302q-66 -6 -165.5 -16t-159.5 -29q-75 -24 -122.5 -69t-47.5 -127z" />
<glyph unicode="b" horiz-adv-x="1103" d="M132 0v1518h183v-543q70 62 151 103t183 41q184 0 291 -147.5t107 -409.5q0 -266 -130.5 -429.5t-324.5 -163.5q-90 0 -152.5 22t-124.5 60l-11 -51h-172zM315 198q70 -35 124 -49.5t118 -14.5q140 0 220 100t80 314q0 196 -59.5 296.5t-191.5 100.5q-75 0 -151.5 -35.5 t-139.5 -88.5v-623z" />
<glyph unicode="c" horiz-adv-x="921" d="M57 543q0 143 38.5 247.5t103.5 176.5q65 71 161 109.5t205 38.5q90 0 173.5 -25.5t148.5 -59.5v-205h-10q-19 16 -50 38t-75 43q-38 20 -90 34.5t-100 14.5q-142 0 -228 -107.5t-86 -304.5q0 -193 84 -301t230 -108q90 0 171 37.5t144 95.5h10v-206q-27 -12 -68 -30.5 t-75 -26.5q-46 -14 -83.5 -21.5t-95.5 -7.5q-112 0 -205.5 35t-160.5 105q-67 71 -104.5 177t-37.5 251z" />
<glyph unicode="d" horiz-adv-x="1103" d="M57 537q0 143 37.5 247.5t103.5 183.5q58 71 142.5 111t177.5 40q82 0 143 -18t126 -55v472h184v-1518h-184v112q-43 -37 -73.5 -60t-72.5 -43q-40 -19 -81.5 -29.5t-97.5 -10.5q-88 0 -164 37.5t-128 108.5q-54 73 -83.5 178t-29.5 244zM247 540q0 -191 61.5 -293.5 t196.5 -102.5q73 0 145 33t137 88v628q-68 34 -122 46t-117 12q-141 0 -221 -105.5t-80 -305.5z" />
<glyph unicode="e" horiz-adv-x="1050" d="M57 539q0 266 139.5 423t364.5 157q101 0 179.5 -29t137.5 -92q58 -62 89 -152t31 -221v-100h-754q0 -189 95.5 -290t263.5 -101q60 0 118.5 14t104.5 35q50 23 84.5 44t57.5 39h10v-199l-80 -32.5t-86 -29.5q-53 -15 -96.5 -23t-110.5 -8q-260 0 -404 147t-144 418z M244 666h576q-2 75 -18 128t-44 91q-33 41 -83 62t-124 21q-73 0 -124 -21.5t-93 -63.5q-41 -43 -62.5 -95.5t-27.5 -121.5z" />
<glyph unicode="f" horiz-adv-x="635" d="M29 937v153h125v35q0 197 93.5 299.5t270.5 102.5q50 0 99 -5t89 -13v-168h-10q-25 9 -70 17.5t-82 8.5q-116 0 -165 -52t-49 -189v-36h303v-153h-297v-937h-182v937h-125z" />
<glyph unicode="g" horiz-adv-x="1103" d="M57 555q0 135 38 240t103 178q61 71 145 108.5t174 37.5q84 0 146 -20t124 -57l12 48h172v-966q0 -278 -121 -407.5t-370 -129.5q-80 0 -163 13t-155 34v192h10q18 -8 54 -21.5t82 -24.5q50 -13 93 -21t95 -8q85 0 143.5 22.5t91.5 62.5q32 40 44 93t12 120v95 q-74 -65 -145 -95.5t-178 -30.5q-186 0 -296.5 139t-110.5 398zM247 559q0 -182 61 -276.5t197 -94.5q72 0 147 28.5t135 79.5v597q-68 34 -126 47.5t-114 13.5q-140 0 -220 -102t-80 -293z" />
<glyph unicode="h" horiz-adv-x="1113" d="M132 0v1518h183v-550q82 74 162.5 112.5t168.5 38.5q161 0 251.5 -106t90.5 -306v-707h-183v621q0 75 -7 139.5t-28 103.5q-23 41 -62.5 61t-108.5 20t-141.5 -37t-142.5 -95v-813h-183z" />
<glyph unicode="i" horiz-adv-x="456" d="M124 1272v189h209v-189h-209zM136 0v1090h183v-1090h-183z" />
<glyph unicode="j" horiz-adv-x="562" d="M-88 -237h11q22 -5 47.5 -9.5t48.5 -4.5q73 0 120.5 18.5t71.5 57.5q22 35 29 88.5t7 130.5v893h-197v153h380v-1121q0 -186 -100 -284t-276 -98q-30 0 -67.5 3t-74.5 10v163zM222 1272v189h209v-189h-209z" />
<glyph unicode="k" horiz-adv-x="994" d="M132 0v1518h183v-889l431 461h229l-448 -457l508 -633h-240l-407 525l-73 -69v-456h-183z" />
<glyph unicode="l" horiz-adv-x="456" d="M136 0v1518h183v-1518h-183z" />
<glyph unicode="m" horiz-adv-x="1677" d="M132 0v1090h183v-122q73 73 143.5 112t155.5 39q96 0 171 -44t114 -144q83 93 162 140.5t172 47.5q70 0 127 -22t100 -71q44 -49 68 -123.5t24 -185.5v-717h-183v630q0 75 -6 139t-25 99q-19 39 -55 58t-97 19q-56 0 -121.5 -34.5t-134.5 -100.5q1 -16 2.5 -39t1.5 -54 v-717h-183v630q0 75 -6 139t-23 99q-20 39 -56.5 58t-98.5 19q-59 0 -124.5 -37.5t-127.5 -94.5v-813h-183z" />
<glyph unicode="n" horiz-adv-x="1113" d="M132 0v1090h183v-122q82 74 162.5 112.5t168.5 38.5q161 0 251.5 -106t90.5 -306v-707h-183v621q0 75 -7 139.5t-28 103.5q-23 41 -62.5 61t-108.5 20t-141.5 -37t-142.5 -95v-813h-183z" />
<glyph unicode="o" horiz-adv-x="1084" d="M55 544q0 273 134.5 424t353.5 151q221 0 353.5 -150.5t132.5 -424.5t-132.5 -424.5t-353.5 -150.5q-227 0 -357.5 155t-130.5 420zM245 544q0 -205 77 -310.5t221 -105.5q141 0 219 104t78 312q0 212 -77.5 315t-219.5 103q-143 0 -220.5 -103t-77.5 -315z" />
<glyph unicode="p" horiz-adv-x="1103" d="M132 -401v1491h183v-115q69 61 152.5 102.5t181.5 41.5q187 0 292.5 -148t105.5 -398q0 -272 -131 -434t-329 -162q-81 0 -143.5 19t-128.5 58v-455h-183zM315 204q73 -35 124 -48t118 -13q142 0 221 104.5t79 305.5q0 186 -59.5 289t-193.5 103q-78 0 -150.5 -34.5 t-138.5 -89.5v-617z" />
<glyph unicode="q" horiz-adv-x="1103" d="M57 541q0 141 38.5 248.5t102.5 180.5q60 72 144 110.5t175 38.5q84 0 145 -19.5t125 -57.5l13 48h171v-1491h-184v520q-80 -73 -155.5 -107.5t-168.5 -34.5q-185 0 -295.5 149t-110.5 415zM247 550q0 -191 62 -293.5t193 -102.5q79 0 151.5 32.5t133.5 86.5v620 q-69 34 -123.5 47.5t-116.5 13.5q-144 0 -222 -104.5t-78 -299.5z" />
<glyph unicode="r" horiz-adv-x="719" d="M132 0v1090h183v-163q101 89 175.5 126t145.5 37q28 0 42 -2t32 -5v-191h-10q-20 6 -43.5 7.5t-55.5 1.5q-74 0 -147 -32t-139 -96v-773h-183z" />
<glyph unicode="s" horiz-adv-x="890" d="M67 67v204h8q24 -18 55.5 -40.5t83.5 -47.5q47 -22 103.5 -38t116.5 -16q44 0 94 10.5t73 25.5q35 23 50 48t15 76q0 66 -35.5 98.5t-126.5 54.5q-35 9 -91.5 21t-104.5 25q-125 36 -181 112t-56 183q0 146 111 239t295 93q90 0 182 -22t154 -57v-195h-9 q-71 54 -157.5 87t-173.5 33q-91 0 -153.5 -38t-62.5 -116q0 -68 37.5 -101.5t119.5 -55.5q41 -10 91 -20t105 -25q121 -30 182 -100t61 -191q0 -71 -27.5 -133.5t-82.5 -107.5q-58 -48 -131 -74t-185 -26q-110 0 -204.5 29.5t-155.5 64.5z" />
<glyph unicode="t" horiz-adv-x="667" d="M20 937v153h124v312h185v-312h336v-153h-336v-518q0 -83 2.5 -127.5t21.5 -83.5q16 -35 53 -52t101 -17q45 0 87 13.5t60 21.5h11v-164q-51 -15 -104.5 -24t-98.5 -9q-150 0 -234 86.5t-84 270.5v603h-124z" />
<glyph unicode="u" horiz-adv-x="1113" d="M125 382v708h183v-621q0 -87 6.5 -144t28.5 -100q23 -42 61 -61.5t111 -19.5q67 0 143 38t140 93v815h183v-1090h-183v121q-85 -74 -161.5 -113t-169.5 -39q-71 0 -134 23.5t-110 75.5q-47 50 -72.5 127t-25.5 187z" />
<glyph unicode="v" horiz-adv-x="994" d="M6 1090h198l298 -841l296 841h190l-409 -1090h-165z" />
<glyph unicode="w" horiz-adv-x="1481" d="M30 1090h190l193 -844l258 844h151l265 -844l182 844h184l-276 -1090h-169l-267 840l-264 -840h-169z" />
<glyph unicode="x" horiz-adv-x="988" d="M10 0l378 540l-375 550h226l262 -408l269 408h209l-377 -537l377 -553h-225l-265 412l-272 -412h-207z" />
<glyph unicode="y" horiz-adv-x="994" d="M6 1090h198l297 -807l297 807h190l-586 -1491h-195l194 453z" />
<glyph unicode="z" horiz-adv-x="886" d="M48 0v135l569 803h-545v152h766v-132l-573 -804h583v-154h-800z" />
<glyph unicode="{" horiz-adv-x="959" d="M58 492v151h21q86 0 144 25t93 74q37 48 49.5 116.5t12.5 135.5v146q0 185 99.5 281.5t273.5 96.5h113v-136h-79q-57 0 -99 -11.5t-72 -39.5q-32 -30 -46.5 -81.5t-14.5 -126.5v-171q0 -80 -18.5 -134t-55.5 -102q-32 -43 -83.5 -79t-106.5 -57v-24q55 -23 106 -58.5 t84 -78.5q37 -48 55.5 -102.5t18.5 -134.5v-171q0 -75 15 -126.5t46 -80.5q29 -29 71.5 -40.5t99.5 -11.5h79v-134h-113q-174 0 -273.5 96t-99.5 281v145q0 68 -12.5 136t-49.5 117q-36 48 -93.5 73.5t-143.5 25.5h-21z" />
<glyph unicode="|" horiz-adv-x="763" d="M300 -382v1900h163v-1900h-163z" />
<glyph unicode="}" horiz-adv-x="959" d="M95 -248h78q58 0 100 12t72 40q32 29 47 81t15 126v171q0 80 18 134.5t54 102.5q33 43 84.5 79t107.5 58v24q-55 22 -107 57.5t-85 78.5q-36 48 -54 102t-18 134v171q0 75 -15 127t-47 81q-30 28 -72 39.5t-100 11.5h-78v136h114q174 0 273 -96.5t99 -281.5v-146 q0 -68 12.5 -135.5t48.5 -116.5q37 -49 95 -74t144 -25h20v-151h-20q-86 0 -144 -25.5t-95 -73.5q-36 -49 -48.5 -117t-12.5 -136v-145q0 -185 -99 -281t-273 -96h-114v134z" />
<glyph unicode="~" horiz-adv-x="1453" d="M131 385q1 101 20.5 194t57.5 163q39 74 103.5 117.5t151.5 43.5q58 0 102.5 -16t78.5 -40q35 -24 63.5 -55t55.5 -66q22 -26 52 -64t50 -60q28 -29 56.5 -44.5t61.5 -15.5q48 0 82 27.5t52 73.5q19 49 28.5 115t10.5 146h165q-2 -99 -20.5 -191t-58.5 -166 q-40 -71 -99.5 -116t-155.5 -45q-55 0 -99 15.5t-79 38.5q-34 25 -65 59.5t-56 62.5q-27 33 -52 66.5t-49 57.5q-27 28 -55 44t-64 16q-49 0 -81 -25.5t-53 -76.5q-20 -48 -29 -116t-11 -143h-164z" />
<glyph unicode="&#xa1;" horiz-adv-x="662" d="M222 0l28 1052h162l28 -1052h-218zM232 1246v206h199v-206h-199z" />
<glyph unicode="&#xa2;" horiz-adv-x="1090" d="M112 543q0 232 114.5 376.5t316.5 167.5v351h111v-349q85 -3 163 -26.5t133 -51.5v-195h-9q-60 50 -129 87t-158 49v-815q48 5 96.5 22.5t80.5 38.5q35 19 63 39t47 37h9v-193q-63 -30 -131.5 -52.5t-164.5 -27.5v-353h-111v354q-209 25 -320 165t-111 376zM299 543 q0 -183 67 -282.5t177 -118.5v805q-113 -20 -178.5 -122t-65.5 -282z" />
<glyph unicode="&#xa3;" horiz-adv-x="1040" d="M78 690v63h138q-59 146 -59 259q0 231 127 355.5t314 124.5h3q79 0 192 -15t113 -34v-166h-60q-4 63 -79 104q-74 33 -164 33h-2q-102 0 -195 -103q-86 -96 -87 -247q0 -16 2 -32q0 -138 55 -279h368v-63h-343q15 -31 33 -61q36 -65 36 -143q0 -165 -167 -384h413 q133 0 193 136l52 -1l-107 -237h-737l1 51q193 245 192 429q0 80 -35 147q-18 33 -32 63h-165z" />
<glyph unicode="&#xa4;" horiz-adv-x="1090" d="M63 266l207 208q-25 39 -38 84t-13 86q0 43 13.5 86.5t38.5 83.5l-208 211l105 103l209 -207q36 24 80.5 37t89.5 13q50 0 94 -15t77 -34l207 206l105 -102l-208 -211q26 -42 38.5 -81t12.5 -90q0 -43 -13.5 -88.5t-37.5 -81.5l208 -209l-103 -103l-208 207 q-44 -27 -82 -39.5t-90 -12.5q-46 0 -91 15t-80 38l-210 -210zM358 644q0 -78 55.5 -134.5t133.5 -56.5q75 0 130.5 55.5t55.5 135.5q0 79 -55 136t-131 57t-132.5 -56.5t-56.5 -136.5z" />
<glyph unicode="&#xa5;" horiz-adv-x="1294" d="M9 1206q0 20 11 28.5t32 8.5q28 0 126 -7.5t169 -7.5h90q34 0 41.5 -7.5t7.5 -27.5q0 -8 -14 -14.5t-39 -6.5q-6 0 -19 2.5t-19 2.5q-25 0 -38.5 -10t-13.5 -26q0 -17 17 -52.5t47 -79.5l162 -227q13 -19 34 -55q42 -72 75 -72q7 0 15 5.5t15 17.5l283 404q9 12 14.5 27 t5.5 26q0 17 -11 26.5t-37 15.5q-15 2 -42 4q-48 3 -49 25q0 15 8 23t26 8q2 0 16 -1q57 -6 110 -6h143q32 0 67 1t37 1q11 0 19.5 -5t9.5 -13q0 -29 -40 -34q-17 -3 -28 -5q-65 -15 -149 -120q-8 -9 -14 -15l-173 -213h331q16 0 25.5 -5.5t9.5 -16.5q0 -15 -7 -21t-24 -6 h-375q-47 -58 -99 -115.5t-54 -61.5h524q18 0 26.5 -5t8.5 -18q0 -14 -8 -21.5t-23 -7.5h-543q0 -10 -1.5 -30.5t-1.5 -32.5l3 -220q0 -116 5.5 -153t21.5 -44q31 -18 109.5 -20.5t78.5 -33.5q0 -11 -9.5 -19t-25.5 -8q-2 0 -36.5 4t-66.5 4q-93 0 -214 -4t-145 -4 q-33 0 -41.5 4t-8.5 17q0 11 7.5 18t38.5 13q8 2 25 5q77 16 94 33q17 14 24.5 48t7.5 105l-1 248q0 19 -2 35.5t-5 33.5l-497 1q-14 0 -21 6.5t-7 19.5t7 19.5t21 6.5h481l-125 177h-354q-16 0 -23 6t-7 19q0 14 6 19t22 5h315q-42 59 -110 160q-135 203 -233 203 q-7 0 -13 6t-6 10z" />
<glyph unicode="&#xa6;" horiz-adv-x="1040" d="M438 380h163v-809h-163v809zM438 810v810h163v-810h-163z" />
<glyph unicode="&#xa7;" horiz-adv-x="1090" d="M116 519q0 92 48 174.5t146 143.5v7q-89 48 -127.5 117t-38.5 157q0 164 125 263.5t343 99.5q83 0 153.5 -12.5t157.5 -43.5v-189h-11q-87 44 -162.5 64.5t-157.5 20.5q-110 0 -185 -44t-75 -130q0 -56 19.5 -91t58.5 -58q38 -24 96.5 -42t134.5 -37 q179 -49 255.5 -125.5t76.5 -207.5q0 -105 -53.5 -184t-140.5 -132v-7q85 -45 125.5 -113t40.5 -160q0 -72 -30.5 -141t-88.5 -116q-60 -51 -144 -80t-204 -29q-78 0 -153.5 14t-156.5 44v188h9q26 -12 63.5 -27.5t72.5 -27.5q45 -14 84.5 -21.5t99.5 -7.5q111 0 185.5 45 t74.5 134q0 52 -17.5 85t-58.5 59q-41 24 -101.5 41t-130.5 37q-86 25 -143 50t-103 67q-44 40 -65.5 93t-21.5 122zM300 564q0 -79 37.5 -125.5t141.5 -79.5q34 -9 76.5 -22t94.5 -30q18 11 42.5 31.5t47.5 52.5q24 34 37 65.5t13 84.5q0 48 -14 83t-39 58q-24 22 -55 37 t-72 27q-32 10 -74.5 22.5t-97.5 30.5q-19 -12 -40 -29.5t-46 -49.5q-19 -26 -35.5 -69t-16.5 -87z" />
<glyph unicode="&#xa8;" horiz-adv-x="1050" d="M127 1258q0 19 19 36l96 100q17 15 34 15q14 0 37 -19l94 -100q12 -17 12 -34q0 -16 -15 -37l-94 -101q-24 -24 -34 -23q-19 0 -34 15l-104 119q-11 17 -11 29zM612 1258q1 19 20 36l96 100q17 15 35 15q13 0 37 -16l92 -103q14 -17 14 -34q0 -16 -16 -35l-94 -103 q-24 -24 -33 -23q-19 0 -35 15l-104 120q-11 16 -12 28z" />
<glyph unicode="&#xa9;" horiz-adv-x="1854" d="M84 639q0 349 247.5 595.5t595.5 246.5q349 0 596 -246.5t247 -595.5t-247 -596.5t-596 -247.5q-348 0 -595.5 247.5t-247.5 596.5zM198 639q0 -305 214 -520.5t516 -215.5q303 0 517 215.5t214 520.5t-214 520t-517 215q-302 0 -516 -215t-214 -520zM518 643 q0 224 122 348t317 124q81 0 155.5 -22t129.5 -50v-177h-15q-42 38 -116.5 71.5t-148.5 33.5q-120 0 -192 -80t-72 -248q0 -158 68.5 -241.5t195.5 -83.5q82 0 155 36t110 69h15v-174q-66 -30 -130.5 -52t-154.5 -22q-204 0 -321.5 121t-117.5 347z" />
<glyph unicode="&#xaa;" horiz-adv-x="985" d="M112 818q0 101 41.5 165.5t119.5 100.5q73 35 184 50t233 20v18q0 51 -16 82.5t-47 49.5q-28 16 -70 21.5t-87 5.5q-76 0 -154.5 -23t-116.5 -36h-15v165q43 13 128 28.5t159 15.5q187 0 284.5 -74t97.5 -243v-612h-163v89q-18 -15 -49.5 -37.5t-60.5 -37.5 q-40 -18 -79 -28.5t-107 -10.5q-121 0 -201.5 81.5t-80.5 209.5zM279 827q0 -73 43 -110.5t128 -37.5q74 0 133 32t107 71v237q-63 -4 -146.5 -12t-133.5 -22q-58 -17 -94.5 -54.5t-36.5 -103.5z" />
<glyph unicode="&#xab;" horiz-adv-x="1144" d="M100 593v87l498 433v-190l-323 -287l323 -287v-191zM541 595v83l476 407v-183l-309 -266l309 -266v-184z" />
<glyph unicode="&#xac;" horiz-adv-x="1453" d="M154 587v156h1136v-688h-167v532h-969z" />
<glyph unicode="&#xad;" horiz-adv-x="724" d="M88 547v176h550v-176h-550z" />
<glyph unicode="&#xae;" horiz-adv-x="1854" d="M84 639q0 349 247.5 595.5t595.5 246.5q349 0 596 -246.5t247 -595.5t-247 -596.5t-596 -247.5q-348 0 -595.5 247.5t-247.5 596.5zM198 639q0 -305 214 -520.5t516 -215.5q303 0 517 215.5t214 520.5t-214 520t-517 215q-302 0 -516 -215t-214 -520zM633 210v892h273 q91 0 144.5 -6.5t106.5 -38.5q59 -33 86 -80t27 -120q0 -97 -54.5 -159.5t-141.5 -97.5l338 -390h-221l-277 346h-119v-346h-162zM795 679h95q47 0 88 9t66 32q27 23 37.5 52t10.5 74q0 37 -11.5 63t-41.5 44q-25 15 -55 21t-78 6h-111v-301z" />
<glyph unicode="&#xaf;" horiz-adv-x="1077" d="M0 1446v142h1042v-142h-1042z" />
<glyph unicode="&#xb0;" horiz-adv-x="940" d="M98 1107q0 156 107.5 263.5t264.5 107.5t264.5 -107.5t107.5 -263.5q0 -157 -107.5 -264t-264.5 -107q-155 0 -263.5 106t-108.5 265zM252 1107q0 -96 63.5 -159t154.5 -63q93 0 155.5 64.5t62.5 157.5t-62.5 157.5t-155.5 64.5t-155.5 -64.5t-62.5 -157.5z" />
<glyph unicode="&#xb1;" horiz-adv-x="1232" d="M97 42v142h1043v-142h-1043zM97 764v142h1043v-142h-1043zM547 314v1042h143v-1042h-143z" />
<glyph unicode="&#xb2;" horiz-adv-x="985" d="M180 552v148q75 57 144 110.5t112 95.5q103 99 135 155t32 135q0 68 -42 104t-116 36q-68 0 -136.5 -29t-107.5 -60h-15v174q61 27 136 43.5t147 16.5q153 0 234 -76.5t81 -196.5q0 -83 -38.5 -159.5t-144.5 -170.5q-50 -45 -117 -95.5t-120 -90.5h481v-140h-665z" />
<glyph unicode="&#xb3;" horiz-adv-x="985" d="M179 585v171h17q37 -34 111.5 -63t152.5 -29q81 0 134.5 35.5t53.5 105.5q0 71 -42.5 105t-143.5 34h-136v135h121q85 0 131.5 37t46.5 102q0 58 -40 93t-125 35q-63 0 -138 -30.5t-111 -64.5h-17v170q62 27 135 43.5t150 16.5q148 0 231.5 -68t83.5 -164 q0 -85 -47.5 -140t-122.5 -80v-8q79 -15 135.5 -68.5t56.5 -145.5q0 -69 -29 -124t-76 -87q-51 -36 -111 -52t-138 -16q-80 0 -149.5 15t-133.5 42z" />
<glyph unicode="&#xb4;" horiz-adv-x="1090" d="M438 1270l174 364h237l-266 -364h-145z" />
<glyph unicode="&#xb5;" horiz-adv-x="1133" d="M132 -401v1491h183v-822q41 -49 102.5 -78.5t145.5 -29.5q88 0 148 28t107 80v822h183v-1090h-167v113h-7q-58 -61 -117 -95t-147 -34q-89 0 -140.5 33.5t-107.5 94.5v-513h-183z" />
<glyph unicode="&#xb6;" horiz-adv-x="1090" d="M55 1024q0 202 127 315t365 113h410v-1806h-136v1679h-182v-1679h-137v933q-201 4 -324 125t-123 320z" />
<glyph unicode="&#xb7;" horiz-adv-x="705" d="M237 811v279h233v-279h-233z" />
<glyph unicode="&#xb8;" horiz-adv-x="1050" d="M301 -356q105 -62 186 -63q82 0 116.5 25.5t34.5 81.5t-60 79q-48 19 -125 19q-18 0 -42 -1l61 215h75l-45 -127q39 4 76 6q105 0 165 -49.5t60 -140.5q0 -92 -72.5 -147t-196.5 -55q-135 0 -233 40v117z" />
<glyph unicode="&#xb9;" horiz-adv-x="973" d="M332 1413l260 95h45v-640q0 -67 7 -81q5 -9 18 -14q22 -9 100 -9v-36h-410v36q80 0 101 6q16 8 22.5 19t6.5 79v404q0 78 -5 102q-5 17 -14.5 23t-25.5 6q-24 0 -85 -20z" />
<glyph unicode="&#xba;" horiz-adv-x="900" d="M112 1075q8 95 64.5 185t136.5 126.5t167 28.5q158 -15 242 -142q69 -111 56 -243q-9 -90 -61.5 -181t-135 -132.5t-179.5 -33.5q-156 16 -236 150q-68 114 -54 242zM276 1103q-12 -134 32 -236.5t132 -111.5q63 -6 112 43t61 180q15 165 -47 266q-40 70 -115 77 q-35 4 -73.5 -14.5t-65 -69t-36.5 -134.5z" />
<glyph unicode="&#xbb;" horiz-adv-x="1144" d="M128 186v184l309 266l-309 266v183l475 -407v-83zM547 158v191l322 287l-322 287v190l497 -433v-87z" />
<glyph unicode="&#xbc;" horiz-adv-x="1996" d="M167 1214v115q99 0 160.5 21.5t69.5 105.5h134v-905h-160v663h-204zM454 0l759 1452h162l-761 -1452h-160zM1233 0v139q76 58 144.5 111t111.5 95q103 99 135.5 155.5t32.5 135.5q0 67 -42 103.5t-117 36.5q-67 0 -135.5 -29t-109.5 -61h-14v175q61 26 136 43t147 17 q153 0 234 -77t81 -197q0 -111 -55.5 -188.5t-126.5 -142.5q-55 -47 -120 -94.5t-117 -86.5h479v-135h-664z" />
<glyph unicode="&#xbd;" horiz-adv-x="1996" d="M167 1214v115q99 0 160.5 21.5t69.5 105.5h134v-905h-160v663h-204zM454 0l759 1452h162l-761 -1452h-160zM1052 214v181l445 526h144v-577h160v-130h-160v-214h-145v214h-444zM1165 344h334v390z" />
<glyph unicode="&#xbe;" horiz-adv-x="1996" d="M136 583v171h18q36 -34 110.5 -62.5t152.5 -28.5q82 0 135 35t53 106q0 81 -48.5 109.5t-137.5 28.5h-136v135h121q85 0 131.5 37t46.5 101q0 58 -40 93t-124 35q-65 0 -139.5 -30t-110.5 -64h-16v170q62 27 134.5 43.5t150.5 16.5q147 0 230.5 -68.5t83.5 -163.5 q0 -85 -47.5 -140t-122.5 -81v-7q79 -15 135.5 -68.5t56.5 -145.5q0 -69 -29 -124t-76 -87q-51 -36 -111 -52t-138 -16q-80 0 -149.5 15t-133.5 42zM541 0l761 1452h160l-760 -1452h-161zM1107 214v181l443 526h147v-577h158v-130h-158v-214h-147v214h-443zM1220 344h334 v390z" />
<glyph unicode="&#xbf;" horiz-adv-x="946" d="M56 341q0 92 29.5 164.5t87.5 136.5q51 58 118.5 104.5t141.5 93.5v222h174v-298q-69 -41 -128 -78.5t-112 -86.5q-50 -47 -81 -106.5t-31 -136.5q0 -111 69.5 -165t180.5 -54q96 0 186 34t137 67h12v-199q-77 -29 -163 -49t-191 -20q-200 0 -315 102t-115 269zM418 1246 v206h198v-206h-198z" />
<glyph unicode="&#xc0;" horiz-adv-x="1197" d="M-10 0l489 1452h239l489 -1452h-203l-133 406h-555l-131 -406h-195zM338 1998h237l175 -365h-146zM371 570h447l-224 684z" />
<glyph unicode="&#xc1;" horiz-adv-x="1197" d="M-10 0l489 1452h239l489 -1452h-203l-133 406h-555l-131 -406h-195zM338 1633l175 365h237l-267 -365h-145zM371 570h447l-224 684z" />
<glyph unicode="&#xc2;" horiz-adv-x="1197" d="M-10 0l489 1452h239l489 -1452h-203l-133 406h-555l-131 -406h-195zM251 1609l222 369h221l222 -369h-154l-181 250l-180 -250h-150zM371 570h447l-224 684z" />
<glyph unicode="&#xc3;" horiz-adv-x="1197" d="M-10 0l489 1452h239l489 -1452h-203l-133 406h-555l-131 -406h-195zM206 1608q7 151 74 227t164 76q50 0 92.5 -19t84.5 -56q42 -38 75 -58t62 -20q46 0 67 43.5t23 114.5h137q-10 -153 -73 -228.5t-168 -75.5q-50 0 -93 18.5t-84 57.5q-43 40 -74 61t-61 21 q-48 0 -67 -44.5t-23 -117.5h-136zM371 570h447l-224 684z" />
<glyph unicode="&#xc4;" horiz-adv-x="1197" d="M-10 0l489 1452h239l489 -1452h-203l-133 406h-555l-131 -406h-195zM292 1616v189h195v-189h-195zM371 570h447l-224 684zM694 1616v189h196v-189h-196z" />
<glyph unicode="&#xc5;" horiz-adv-x="1197" d="M-10 0l468 1386q-71 39 -114.5 106t-43.5 150q0 125 87 209.5t212 84.5t211.5 -84t86.5 -210q0 -81 -44 -148.5t-114 -103.5l468 -1390h-203l-133 406h-555l-131 -406h-195zM371 569h447l-224 687zM443 1640q0 -72 44 -118.5t112 -46.5q67 0 111 46.5t44 118.5t-43 119 t-112 47t-112.5 -47t-43.5 -119z" />
<glyph unicode="&#xc6;" horiz-adv-x="1823" d="M-38 0l588 1452h1207v-172h-698v-397h649v-172h-649v-539h698v-172h-890v543h-491l-212 -543h-202zM439 705h428v586h-188z" />
<glyph unicode="&#xc7;" horiz-adv-x="1199" d="M65 724q0 182 46 318t135 236q87 97 205.5 148.5t266.5 51.5q73 0 137 -10.5t118 -27.5q47 -14 96 -36.5t97 -48.5v-233h-15q-26 24 -65.5 57t-97.5 65q-56 30 -121 50t-151 20q-93 0 -175.5 -38.5t-145.5 -112.5q-61 -74 -95.5 -186t-34.5 -253q0 -148 36 -256.5 t98 -181.5q60 -72 142.5 -109t174.5 -37q84 0 155 20.5t126 52.5q53 30 92.5 61.5t61.5 54.5h15v-231q-48 -23 -90.5 -43t-102.5 -40q-7 -3 -22 -7t-21 -5q1 -14 3 -37.5t2 -52.5q0 -145 -80 -235.5t-222 -90.5q-35 0 -84 6.5t-88 17.5v156h9q24 -10 61.5 -21.5t76.5 -11.5 q92 0 134.5 38.5t42.5 123.5q0 17 -0.5 36.5t-0.5 43.5q-18 -1 -32.5 -2t-36.5 -1q-142 0 -261.5 48.5t-206.5 142.5t-134.5 235.5t-47.5 324.5z" />
<glyph unicode="&#xc8;" horiz-adv-x="1120" d="M147 0v1452h908v-172h-715v-397h667v-172h-667v-539h715v-172h-908zM358 1998h238l174 -365h-145z" />
<glyph unicode="&#xc9;" horiz-adv-x="1120" d="M147 0v1452h908v-172h-715v-397h667v-172h-667v-539h715v-172h-908zM485 1633l175 365h237l-266 -365h-146z" />
<glyph unicode="&#xca;" horiz-adv-x="1120" d="M147 0v1452h908v-172h-715v-397h667v-172h-667v-539h715v-172h-908zM271 1628l223 370h221l222 -370h-155l-181 250l-179 -250h-151z" />
<glyph unicode="&#xcb;" horiz-adv-x="1120" d="M147 0v1452h908v-172h-715v-397h667v-172h-667v-539h715v-172h-908zM343 1635v190h197v-190h-197zM745 1635v190h197v-190h-197z" />
<glyph unicode="&#xcc;" horiz-adv-x="744" d="M91 0v148h184v1156h-184v148h563v-148h-185v-1156h185v-148h-563zM104 1998h237l175 -365h-145z" />
<glyph unicode="&#xcd;" horiz-adv-x="744" d="M91 0v148h184v1156h-184v148h563v-148h-185v-1156h185v-148h-563zM229 1633l174 365h238l-266 -365h-146z" />
<glyph unicode="&#xce;" horiz-adv-x="744" d="M41 1628l222 370h221l223 -370h-155l-181 250l-178 -250h-152zM91 0v148h184v1156h-184v148h563v-148h-185v-1156h185v-148h-563z" />
<glyph unicode="&#xcf;" horiz-adv-x="744" d="M74 1635v190h196v-190h-196zM91 0v148h184v1156h-184v148h563v-148h-185v-1156h185v-148h-563zM477 1635v190h196v-190h-196z" />
<glyph unicode="&#xd0;" horiz-adv-x="1394" d="M24 722v139h163v591h331q205 0 321 -30.5t198 -85.5q140 -92 218 -245.5t78 -366.5q0 -199 -81 -358.5t-217 -249.5q-109 -72 -223 -94t-291 -22h-334v722h-163zM380 166h147q129 0 225.5 21t176.5 75q100 69 150.5 182.5t50.5 282.5q0 168 -55 286.5t-165 184.5 q-77 48 -164.5 68t-218.5 20h-147v-425h319v-139h-319v-556z" />
<glyph unicode="&#xd1;" horiz-adv-x="1333" d="M147 0v1452h274l585 -1150v1150h180v-1452h-217l-640 1252v-1252h-182zM303 1627q7 151 74 227t165 76q50 0 92 -19t84 -56q42 -38 75 -57.5t62 -19.5q46 0 67 43.5t24 113.5h136q-10 -153 -72.5 -228.5t-166.5 -75.5q-51 0 -94 18.5t-84 57.5q-43 40 -74 61t-62 21 q-48 0 -67 -44t-23 -118h-136z" />
<glyph unicode="&#xd2;" horiz-adv-x="1413" d="M65 725q0 183 45 322t129 238q84 96 202.5 146.5t264.5 50.5q148 0 267 -52t201 -145q83 -95 129 -237t46 -323q0 -176 -45.5 -318.5t-129.5 -238.5q-88 -101 -207 -150t-261 -49q-146 0 -264.5 50.5t-203.5 148.5q-84 96 -128.5 237.5t-44.5 319.5zM265 725 q0 -286 120 -437.5t322 -151.5t321.5 151.5t119.5 437.5q0 144 -31.5 255.5t-87.5 184.5q-58 75 -139 112.5t-183 37.5q-105 0 -184 -36.5t-139 -113.5q-57 -75 -88 -187t-31 -253zM418 1998h237l174 -365h-145z" />
<glyph unicode="&#xd3;" horiz-adv-x="1413" d="M65 725q0 183 45 322t129 238q84 96 202.5 146.5t264.5 50.5q148 0 267 -52t201 -145q83 -95 129 -237t46 -323q0 -176 -45.5 -318.5t-129.5 -238.5q-88 -101 -207 -150t-261 -49q-146 0 -264.5 50.5t-203.5 148.5q-84 96 -128.5 237.5t-44.5 319.5zM265 725 q0 -286 120 -437.5t322 -151.5t321.5 151.5t119.5 437.5q0 144 -31.5 255.5t-87.5 184.5q-58 75 -139 112.5t-183 37.5q-105 0 -184 -36.5t-139 -113.5q-57 -75 -88 -187t-31 -253zM565 1633l175 365h237l-266 -365h-146z" />
<glyph unicode="&#xd4;" horiz-adv-x="1413" d="M65 725q0 183 45 322t129 238q84 96 202.5 146.5t264.5 50.5q148 0 267 -52t201 -145q83 -95 129 -237t46 -323q0 -176 -45.5 -318.5t-129.5 -238.5q-88 -101 -207 -150t-261 -49q-146 0 -264.5 50.5t-203.5 148.5q-84 96 -128.5 237.5t-44.5 319.5zM265 725 q0 -286 120 -437.5t322 -151.5t321.5 151.5t119.5 437.5q0 144 -31.5 255.5t-87.5 184.5q-58 75 -139 112.5t-183 37.5q-105 0 -184 -36.5t-139 -113.5q-57 -75 -88 -187t-31 -253zM362 1628l223 370h221l223 -370h-156l-180 250l-179 -250h-152z" />
<glyph unicode="&#xd5;" horiz-adv-x="1413" d="M65 725q0 183 45 322t129 238q84 96 202.5 146.5t264.5 50.5q148 0 267 -52t201 -145q83 -95 129 -237t46 -323q0 -176 -45.5 -318.5t-129.5 -238.5q-88 -101 -207 -150t-261 -49q-146 0 -264.5 50.5t-203.5 148.5q-84 96 -128.5 237.5t-44.5 319.5zM265 725 q0 -286 120 -437.5t322 -151.5t321.5 151.5t119.5 437.5q0 144 -31.5 255.5t-87.5 184.5q-58 75 -139 112.5t-183 37.5q-105 0 -184 -36.5t-139 -113.5q-57 -75 -88 -187t-31 -253zM303 1627q7 151 74 227t165 76q50 0 92 -19t84 -56q42 -38 75 -57.5t62 -19.5q46 0 67 43.5 t24 113.5h136q-10 -153 -72.5 -228.5t-166.5 -75.5q-51 0 -94 18.5t-84 57.5q-43 40 -74 61t-62 21q-48 0 -67 -44t-23 -118h-136z" />
<glyph unicode="&#xd6;" horiz-adv-x="1413" d="M65 725q0 183 45 322t129 238q84 96 202.5 146.5t264.5 50.5q148 0 267 -52t201 -145q83 -95 129 -237t46 -323q0 -176 -45.5 -318.5t-129.5 -238.5q-88 -101 -207 -150t-261 -49q-146 0 -264.5 50.5t-203.5 148.5q-84 96 -128.5 237.5t-44.5 319.5zM265 725 q0 -286 120 -437.5t322 -151.5t321.5 151.5t119.5 437.5q0 144 -31.5 255.5t-87.5 184.5q-58 75 -139 112.5t-183 37.5q-105 0 -184 -36.5t-139 -113.5q-57 -75 -88 -187t-31 -253zM402 1635v190h197v-190h-197zM805 1635v190h196v-190h-196z" />
<glyph unicode="&#xd7;" horiz-adv-x="1453" d="M203 220l419 416l-419 415l108 108l415 -419l416 419l108 -108l-420 -415l420 -416l-108 -108l-416 419l-415 -419z" />
<glyph unicode="&#xd8;" horiz-adv-x="1413" d="M65 725q0 359 176 558t465 199q112 0 198.5 -27t166.5 -80l111 166h144l-167 -245q89 -97 139.5 -236.5t50.5 -334.5q0 -358 -176 -557t-467 -199q-106 0 -198 29t-169 80l-128 -191h-144l184 271q-88 97 -137 239.5t-49 327.5zM263 725q0 -131 25.5 -233t70.5 -177 l611 914q-50 43 -117 64.5t-146 21.5q-203 0 -323.5 -150t-120.5 -440zM438 226q56 -45 118 -67.5t151 -22.5q201 0 322 151.5t121 437.5q0 135 -27 240.5t-72 174.5z" />
<glyph unicode="&#xd9;" horiz-adv-x="1309" d="M130 547v905h193v-905q0 -101 12.5 -170t49.5 -123q39 -59 106 -89.5t163 -30.5q90 0 161 30.5t110 89.5q36 55 49 122t13 165v911h193v-905q0 -152 -31 -260.5t-108 -183.5q-70 -68 -162 -101t-225 -33q-128 0 -223 34t-163 100q-76 76 -107 182t-31 262zM421 1998h237 l175 -365h-146z" />
<glyph unicode="&#xda;" horiz-adv-x="1309" d="M130 547v905h193v-905q0 -101 12.5 -170t49.5 -123q39 -59 106 -89.5t163 -30.5q90 0 161 30.5t110 89.5q36 55 49 122t13 165v911h193v-905q0 -152 -31 -260.5t-108 -183.5q-70 -68 -162 -101t-225 -33q-128 0 -223 34t-163 100q-76 76 -107 182t-31 262zM421 1633 l175 365h237l-267 -365h-145z" />
<glyph unicode="&#xdb;" horiz-adv-x="1309" d="M130 547v905h193v-905q0 -101 12.5 -170t49.5 -123q39 -59 106 -89.5t163 -30.5q90 0 161 30.5t110 89.5q36 55 49 122t13 165v911h193v-905q0 -152 -31 -260.5t-108 -183.5q-70 -68 -162 -101t-225 -33q-128 0 -223 34t-163 100q-76 76 -107 182t-31 262zM315 1628 l223 370h221l222 -370h-156l-180 250l-179 -250h-151z" />
<glyph unicode="&#xdc;" horiz-adv-x="1309" d="M130 547v905h193v-905q0 -101 12.5 -170t49.5 -123q39 -59 106 -89.5t163 -30.5q90 0 161 30.5t110 89.5q36 55 49 122t13 165v911h193v-905q0 -152 -31 -260.5t-108 -183.5q-70 -68 -162 -101t-225 -33q-128 0 -223 34t-163 100q-76 76 -107 182t-31 262zM380 1635v190 h197v-190h-197zM783 1635v190h196v-190h-196z" />
<glyph unicode="&#xdd;" horiz-adv-x="1150" d="M-10 1452h214l375 -641l379 641h205l-490 -810v-642h-194v622zM458 1633l174 365h236l-266 -365h-144z" />
<glyph unicode="&#xde;" horiz-adv-x="1129" d="M147 0v1452h193v-263h171q130 0 224 -22t160 -65q81 -52 127 -134.5t46 -200.5q0 -89 -34.5 -171.5t-92.5 -137.5q-76 -74 -183 -109t-254 -35h-164v-314h-193zM340 476h134q117 0 190.5 20t119.5 64q42 40 62 90t20 113q0 70 -25 122t-79 86q-47 30 -109 42t-151 12 h-162v-549z" />
<glyph unicode="&#xdf;" horiz-adv-x="1094" d="M132 0v1053q0 127 33.5 213t92.5 146q58 58 139 86.5t170 28.5q164 0 272.5 -83t108.5 -234q0 -110 -69 -196.5t-179 -118.5v-8q160 -36 250.5 -143t90.5 -275q0 -213 -131.5 -353t-342.5 -140q-25 0 -61 3.5t-57 7.5v161h11q26 -8 56.5 -12t58.5 -4q75 0 128.5 26.5 t84.5 72.5q35 49 49 107.5t14 138.5q0 165 -100.5 242.5t-295.5 77.5v152q147 0 227 56.5t80 186.5q0 32 -10 66.5t-33 61.5q-24 29 -60.5 45.5t-95.5 16.5q-51 0 -93 -13.5t-79 -53.5q-35 -36 -55.5 -100t-20.5 -156v-1059h-183z" />
<glyph unicode="&#xe0;" horiz-adv-x="1048" d="M56 315q0 114 49 193.5t150 126.5q92 43 217 58.5t269 23.5v35q0 65 -19.5 104t-54.5 60q-35 24 -86 30.5t-104 6.5q-63 0 -149 -19t-172 -54h-11v186q50 14 145 31.5t188 17.5q113 0 189 -17.5t138 -63.5q60 -45 89.5 -116t29.5 -174v-744h-183v116q-23 -16 -60.5 -46 t-72.5 -47q-48 -26 -93.5 -40t-127.5 -14q-68 0 -128 25.5t-105 72.5q-45 45 -71.5 110.5t-26.5 137.5zM240 1634h237l174 -364h-145zM246 329q0 -94 52.5 -142.5t154.5 -48.5q87 0 157 38t131 92v302q-66 -6 -165.5 -16t-159.5 -29q-75 -24 -122.5 -69t-47.5 -127z" />
<glyph unicode="&#xe1;" horiz-adv-x="1048" d="M56 315q0 114 49 193.5t150 126.5q92 43 217 58.5t269 23.5v35q0 65 -19.5 104t-54.5 60q-35 24 -86 30.5t-104 6.5q-63 0 -149 -19t-172 -54h-11v186q50 14 145 31.5t188 17.5q113 0 189 -17.5t138 -63.5q60 -45 89.5 -116t29.5 -174v-744h-183v116q-23 -16 -60.5 -46 t-72.5 -47q-48 -26 -93.5 -40t-127.5 -14q-68 0 -128 25.5t-105 72.5q-45 45 -71.5 110.5t-26.5 137.5zM246 329q0 -94 52.5 -142.5t154.5 -48.5q87 0 157 38t131 92v302q-66 -6 -165.5 -16t-159.5 -29q-75 -24 -122.5 -69t-47.5 -127zM404 1270l176 364h236l-266 -364h-146 z" />
<glyph unicode="&#xe2;" horiz-adv-x="1048" d="M56 315q0 114 49 193.5t150 126.5q92 43 217 58.5t269 23.5v35q0 65 -19.5 104t-54.5 60q-35 24 -86 30.5t-104 6.5q-63 0 -149 -19t-172 -54h-11v186q50 14 145 31.5t188 17.5q113 0 189 -17.5t138 -63.5q60 -45 89.5 -116t29.5 -174v-744h-183v116q-23 -16 -60.5 -46 t-72.5 -47q-48 -26 -93.5 -40t-127.5 -14q-68 0 -128 25.5t-105 72.5q-45 45 -71.5 110.5t-26.5 137.5zM188 1265l223 369h221l222 -369h-155l-180 249l-180 -249h-151zM246 329q0 -94 52.5 -142.5t154.5 -48.5q87 0 157 38t131 92v302q-66 -6 -165.5 -16t-159.5 -29 q-75 -24 -122.5 -69t-47.5 -127z" />
<glyph unicode="&#xe3;" horiz-adv-x="1048" d="M56 315q0 114 49 193.5t150 126.5q92 43 217 58.5t269 23.5v35q0 65 -19.5 104t-54.5 60q-35 24 -86 30.5t-104 6.5q-63 0 -149 -19t-172 -54h-11v186q50 14 145 31.5t188 17.5q113 0 189 -17.5t138 -63.5q60 -45 89.5 -116t29.5 -174v-744h-183v116q-23 -16 -60.5 -46 t-72.5 -47q-48 -26 -93.5 -40t-127.5 -14q-68 0 -128 25.5t-105 72.5q-45 45 -71.5 110.5t-26.5 137.5zM131 1283q6 151 73.5 227t165.5 76q49 0 90.5 -19t84.5 -56q42 -38 75.5 -57.5t62.5 -19.5q45 0 66 43.5t24 113.5h136q-9 -153 -72 -228.5t-167 -75.5q-50 0 -93 18.5 t-84 57.5q-43 40 -74.5 61t-62.5 21q-47 0 -66 -44t-23 -118h-136zM246 329q0 -94 52.5 -142.5t154.5 -48.5q87 0 157 38t131 92v302q-66 -6 -165.5 -16t-159.5 -29q-75 -24 -122.5 -69t-47.5 -127z" />
<glyph unicode="&#xe4;" horiz-adv-x="1048" d="M56 315q0 114 49 193.5t150 126.5q92 43 217 58.5t269 23.5v35q0 65 -19.5 104t-54.5 60q-35 24 -86 30.5t-104 6.5q-63 0 -149 -19t-172 -54h-11v186q50 14 145 31.5t188 17.5q113 0 189 -17.5t138 -63.5q60 -45 89.5 -116t29.5 -174v-744h-183v116q-23 -16 -60.5 -46 t-72.5 -47q-48 -26 -93.5 -40t-127.5 -14q-68 0 -128 25.5t-105 72.5q-45 45 -71.5 110.5t-26.5 137.5zM244 1272v189h195v-189h-195zM246 329q0 -94 52.5 -142.5t154.5 -48.5q87 0 157 38t131 92v302q-66 -6 -165.5 -16t-159.5 -29q-75 -24 -122.5 -69t-47.5 -127z M646 1272v189h197v-189h-197z" />
<glyph unicode="&#xe5;" horiz-adv-x="1048" d="M56 315q0 114 49 193.5t150 126.5q92 43 217 58.5t269 23.5v35q0 65 -19.5 104t-54.5 60q-35 24 -86 30.5t-104 6.5q-51 0 -102 -9.5t-84 -17.5q-45 -12 -80.5 -25.5t-54.5 -20.5h-11v186q46 13 115 26t156 18q-87 36 -144.5 108t-57.5 167q0 125 87 209.5t212 84.5 q126 0 212 -84t86 -210q0 -97 -59 -171.5t-153 -107.5q84 -12 143 -38.5t97 -66.5q42 -45 63.5 -106.5t21.5 -150.5v-744h-183v116q-23 -16 -60.5 -45.5t-72.5 -47.5q-48 -26 -93.5 -40t-127.5 -14q-68 0 -128 25.5t-105 72.5q-45 45 -71.5 110.5t-26.5 137.5zM246 329 q0 -94 52.5 -142.5t154.5 -48.5q87 0 157 38t131 92v302q-66 -6 -165.5 -16t-159.5 -29q-75 -24 -122.5 -69t-47.5 -127zM357 1384q0 -72 44 -119.5t112 -47.5t111.5 47.5t43.5 119.5t-43 119t-112 47t-112.5 -47t-43.5 -119z" />
<glyph unicode="&#xe6;" horiz-adv-x="1757" d="M56 309q0 126 52 199t147 114q89 39 225 51t286 15v56q0 65 -21 106.5t-59 64.5q-35 22 -85 31t-114 9q-79 0 -172 -25.5t-148 -49.5h-13v186q46 13 145.5 32t188.5 19q156 0 254 -46.5t149 -132.5q65 79 161.5 130t211.5 51q218 0 329.5 -131t111.5 -363v-80h-768 q0 -111 29 -190.5t82 -129.5q51 -49 116.5 -70t142.5 -21q63 0 122 14.5t104 34.5q49 23 83.5 44t56.5 39h10v-199l-80 -32.5t-85 -29.5q-53 -15 -97 -23t-112 -8q-158 0 -270 51t-184 151q-20 -18 -62.5 -57.5t-90.5 -67.5q-62 -37 -130 -58.5t-175 -21.5q-142 0 -241.5 95 t-99.5 243zM245 322q0 -92 54.5 -138t162.5 -46q89 0 179.5 43t155.5 110q-18 52 -28 116t-10 137q-93 -3 -185.5 -8.5t-164.5 -25.5q-73 -19 -118.5 -64.5t-45.5 -123.5zM940 685h588q-5 58 -20 110t-47 91q-30 37 -82.5 59.5t-124.5 22.5q-76 0 -126 -20.5t-92 -60.5 q-39 -38 -63 -91t-33 -111z" />
<glyph unicode="&#xe7;" horiz-adv-x="921" d="M57 543q0 143 38.5 247.5t103.5 176.5q65 71 161 109.5t205 38.5q90 0 173.5 -25.5t148.5 -59.5v-205h-10q-19 16 -50 38t-75 43q-38 20 -90 34.5t-100 14.5q-142 0 -228 -107.5t-86 -304.5q0 -193 84 -301t230 -108q90 0 171 37.5t144 95.5h10v-206q-27 -12 -63.5 -28 t-65.5 -25q1 -16 3 -41t2 -54q0 -145 -80.5 -235.5t-221.5 -90.5q-36 0 -84 6.5t-88 17.5v156h8q24 -10 62 -21.5t77 -11.5q91 0 134 38.5t43 123.5q0 17 -0.5 37t-1.5 44q-12 0 -21.5 -1t-24.5 -1q-112 0 -205.5 35t-160.5 105q-67 71 -104.5 177t-37.5 251z" />
<glyph unicode="&#xe8;" horiz-adv-x="1050" d="M57 539q0 266 139.5 423t364.5 157q101 0 179.5 -29t137.5 -92q58 -62 89 -152t31 -221v-100h-754q0 -189 95.5 -290t263.5 -101q60 0 118.5 14t104.5 35q50 23 84.5 44t57.5 39h10v-199l-80 -32.5t-86 -29.5q-53 -15 -96.5 -23t-110.5 -8q-260 0 -404 147t-144 418z M244 666h576q-2 75 -18 128t-44 91q-33 41 -83 62t-124 21q-73 0 -124 -21.5t-93 -63.5q-41 -43 -62.5 -95.5t-27.5 -121.5zM256 1634h238l174 -364h-146z" />
<glyph unicode="&#xe9;" horiz-adv-x="1050" d="M57 539q0 266 139.5 423t364.5 157q101 0 179.5 -29t137.5 -92q58 -62 89 -152t31 -221v-100h-754q0 -189 95.5 -290t263.5 -101q60 0 118.5 14t104.5 35q50 23 84.5 44t57.5 39h10v-199l-80 -32.5t-86 -29.5q-53 -15 -96.5 -23t-110.5 -8q-260 0 -404 147t-144 418z M244 666h576q-2 75 -18 128t-44 91q-33 41 -83 62t-124 21q-73 0 -124 -21.5t-93 -63.5q-41 -43 -62.5 -95.5t-27.5 -121.5zM456 1270l174 364h236l-265 -364h-145z" />
<glyph unicode="&#xea;" horiz-adv-x="1050" d="M57 539q0 266 139.5 423t364.5 157q101 0 179.5 -29t137.5 -92q58 -62 89 -152t31 -221v-100h-754q0 -189 95.5 -290t263.5 -101q60 0 118.5 14t104.5 35q50 23 84.5 44t57.5 39h10v-199l-80 -32.5t-86 -29.5q-53 -15 -96.5 -23t-110.5 -8q-260 0 -404 147t-144 418z M226 1265l223 369h221l222 -369h-155l-180 249l-180 -249h-151zM244 666h576q-2 75 -18 128t-44 91q-33 41 -83 62t-124 21q-73 0 -124 -21.5t-93 -63.5q-41 -43 -62.5 -95.5t-27.5 -121.5z" />
<glyph unicode="&#xeb;" horiz-adv-x="1050" d="M57 539q0 266 139.5 423t364.5 157q101 0 179.5 -29t137.5 -92q58 -62 89 -152t31 -221v-100h-754q0 -189 95.5 -290t263.5 -101q60 0 118.5 14t104.5 35q50 23 84.5 44t57.5 39h10v-199l-80 -32.5t-86 -29.5q-53 -15 -96.5 -23t-110.5 -8q-260 0 -404 147t-144 418z M244 666h576q-2 75 -18 128t-44 91q-33 41 -83 62t-124 21q-73 0 -124 -21.5t-93 -63.5q-41 -43 -62.5 -95.5t-27.5 -121.5zM259 1272v189h197v-189h-197zM663 1272v189h195v-189h-195z" />
<glyph unicode="&#xec;" horiz-adv-x="456" d="M-1 1634h237l175 -364h-146zM136 0v1090h183v-1090h-183z" />
<glyph unicode="&#xed;" horiz-adv-x="456" d="M117 1270l175 364h236l-266 -364h-145zM136 0v1090h183v-1090h-183z" />
<glyph unicode="&#xee;" horiz-adv-x="456" d="M-52 1265l169 369h221l170 -369h-148l-135 256l-134 -256h-143zM136 0v1090h183v-1090h-183z" />
<glyph unicode="&#xef;" horiz-adv-x="456" d="M-37 1272v189h184v-189h-184zM136 0v1090h183v-1090h-183zM309 1272v189h185v-189h-185z" />
<glyph unicode="&#xf0;" horiz-adv-x="1090" d="M55 472q0 225 134 351t316 126q97 0 169 -25.5t153 -77.5q-30 110 -94.5 215.5t-141.5 173.5l-255 -157l-65 94l231 141q-79 66 -151 103.5t-157 80.5v21h288q37 -28 78 -58t81 -59l206 126l64 -94l-185 -109q127 -127 213.5 -298t86.5 -404q0 -315 -132 -484t-360 -169 q-209 0 -344 128t-135 375zM246 470q0 -175 77.5 -260t211.5 -85q62 0 118 21.5t97 73.5q45 57 69 139.5t24 229.5q0 32 -1.5 58.5t-3.5 54.5q-72 45 -147 65.5t-152 20.5q-123 0 -208 -77.5t-85 -240.5z" />
<glyph unicode="&#xf1;" horiz-adv-x="1113" d="M132 0v1090h183v-122q82 74 162.5 112.5t168.5 38.5q161 0 251.5 -106t90.5 -306v-707h-183v621q0 75 -7 139.5t-28 103.5q-23 41 -62.5 61t-108.5 20t-141.5 -37t-142.5 -95v-813h-183zM174 1283q7 151 74 227t166 76q49 0 91 -19t84 -56q42 -38 75.5 -57.5t61.5 -19.5 q46 0 67 43.5t24 113.5h136q-9 -153 -72 -228.5t-167 -75.5q-51 0 -93.5 18.5t-83.5 57.5q-43 40 -74.5 61t-62.5 21q-47 0 -66 -44t-23 -118h-137z" />
<glyph unicode="&#xf2;" horiz-adv-x="1084" d="M55 544q0 273 134.5 424t353.5 151q221 0 353.5 -150.5t132.5 -424.5t-132.5 -424.5t-353.5 -150.5q-227 0 -357.5 155t-130.5 420zM239 1634h237l174 -364h-145zM245 544q0 -205 77 -310.5t221 -105.5q141 0 219 104t78 312q0 212 -77.5 315t-219.5 103 q-143 0 -220.5 -103t-77.5 -315z" />
<glyph unicode="&#xf3;" horiz-adv-x="1084" d="M55 544q0 273 134.5 424t353.5 151q221 0 353.5 -150.5t132.5 -424.5t-132.5 -424.5t-353.5 -150.5q-227 0 -357.5 155t-130.5 420zM245 544q0 -205 77 -310.5t221 -105.5q141 0 219 104t78 312q0 212 -77.5 315t-219.5 103q-143 0 -220.5 -103t-77.5 -315zM435 1270 l174 364h237l-265 -364h-146z" />
<glyph unicode="&#xf4;" horiz-adv-x="1084" d="M55 544q0 273 134.5 424t353.5 151q221 0 353.5 -150.5t132.5 -424.5t-132.5 -424.5t-353.5 -150.5q-227 0 -357.5 155t-130.5 420zM212 1265l222 369h221l223 -369h-155l-181 249l-180 -249h-150zM245 544q0 -205 77 -310.5t221 -105.5q141 0 219 104t78 312 q0 212 -77.5 315t-219.5 103q-143 0 -220.5 -103t-77.5 -315z" />
<glyph unicode="&#xf5;" horiz-adv-x="1084" d="M55 544q0 273 134.5 424t353.5 151q221 0 353.5 -150.5t132.5 -424.5t-132.5 -424.5t-353.5 -150.5q-227 0 -357.5 155t-130.5 420zM154 1283q7 151 74.5 227t164.5 76q49 0 91 -19t84 -56q42 -38 76 -57.5t62 -19.5q46 0 67 43.5t24 113.5h136q-9 -153 -72 -228.5 t-168 -75.5q-51 0 -93.5 18.5t-83.5 57.5q-43 40 -74 61t-62 21q-47 0 -66 -44t-23 -118h-137zM245 544q0 -205 77 -310.5t221 -105.5q141 0 219 104t78 312q0 212 -77.5 315t-219.5 103q-143 0 -220.5 -103t-77.5 -315z" />
<glyph unicode="&#xf6;" horiz-adv-x="1084" d="M55 544q0 273 134.5 424t353.5 151q221 0 353.5 -150.5t132.5 -424.5t-132.5 -424.5t-353.5 -150.5q-227 0 -357.5 155t-130.5 420zM244 1272v189h195v-189h-195zM245 544q0 -205 77 -310.5t221 -105.5q141 0 219 104t78 312q0 212 -77.5 315t-219.5 103 q-143 0 -220.5 -103t-77.5 -315zM646 1272v189h197v-189h-197z" />
<glyph unicode="&#xf7;" horiz-adv-x="1453" d="M154 558v156h1145v-156h-1145zM610 16v269h233v-269h-233zM610 987v267h233v-267h-233z" />
<glyph unicode="&#xf8;" horiz-adv-x="1084" d="M40 -143l164 255q-71 74 -110 181.5t-39 250.5q0 273 134.5 423.5t353.5 150.5q74 0 138.5 -19.5t121.5 -55.5l104 166h122l-147 -230q69 -75 108 -181.5t39 -253.5q0 -274 -132.5 -424t-353.5 -150q-77 0 -141.5 20t-120.5 56l-120 -189h-121zM242 544q0 -94 14 -165 t42 -124l419 653q-34 26 -76.5 40t-97.5 14q-143 0 -222 -105t-79 -313zM369 182q37 -29 77 -41.5t97 -12.5q141 0 220.5 104t79.5 312q0 97 -14.5 168.5t-42.5 122.5z" />
<glyph unicode="&#xf9;" horiz-adv-x="1113" d="M125 382v708h183v-621q0 -87 6.5 -144t28.5 -100q23 -42 61 -61.5t111 -19.5q67 0 143 38t140 93v815h183v-1090h-183v121q-85 -74 -161.5 -113t-169.5 -39q-71 0 -134 23.5t-110 75.5q-47 50 -72.5 127t-25.5 187zM258 1634h238l174 -364h-146z" />
<glyph unicode="&#xfa;" horiz-adv-x="1113" d="M125 382v708h183v-621q0 -87 6.5 -144t28.5 -100q23 -42 61 -61.5t111 -19.5q67 0 143 38t140 93v815h183v-1090h-183v121q-85 -74 -161.5 -113t-169.5 -39q-71 0 -134 23.5t-110 75.5q-47 50 -72.5 127t-25.5 187zM435 1270l174 364h237l-265 -364h-146z" />
<glyph unicode="&#xfb;" horiz-adv-x="1113" d="M125 382v708h183v-621q0 -87 6.5 -144t28.5 -100q23 -42 61 -61.5t111 -19.5q67 0 143 38t140 93v815h183v-1090h-183v121q-85 -74 -161.5 -113t-169.5 -39q-71 0 -134 23.5t-110 75.5q-47 50 -72.5 127t-25.5 187zM219 1265l222 369h222l223 -369h-156l-180 249 l-179 -249h-152z" />
<glyph unicode="&#xfc;" horiz-adv-x="1113" d="M125 382v708h183v-621q0 -87 6.5 -144t28.5 -100q23 -42 61 -61.5t111 -19.5q67 0 143 38t140 93v815h183v-1090h-183v121q-85 -74 -161.5 -113t-169.5 -39q-71 0 -134 23.5t-110 75.5q-47 50 -72.5 127t-25.5 187zM258 1272v189h197v-189h-197zM662 1272v189h195v-189 h-195z" />
<glyph unicode="&#xfd;" horiz-adv-x="994" d="M6 1090h198l297 -807l297 807h190l-586 -1491h-195l194 453zM379 1270l175 364h237l-267 -364h-145z" />
<glyph unicode="&#xfe;" horiz-adv-x="1103" d="M132 -401v1919h183v-543q69 61 152.5 102.5t181.5 41.5q187 0 292.5 -148t105.5 -398q0 -272 -131 -434t-329 -162q-81 0 -143.5 19t-128.5 58v-455h-183zM315 204q73 -35 124 -48t118 -13q142 0 221 104.5t79 305.5q0 186 -59.5 289t-193.5 103q-78 0 -150.5 -34.5 t-138.5 -89.5v-617z" />
<glyph unicode="&#xff;" horiz-adv-x="994" d="M6 1090h198l297 -807l297 807h190l-586 -1491h-195l194 453zM210 1272v189h196v-189h-196zM612 1272v189h197v-189h-197z" />
<glyph unicode="&#x131;" horiz-adv-x="527" d="M19 751v45q228 72 269 188h48v-755q0 -178 102 -178h47v-51h-452v51h47q102 0 102 178v444q0 78 -112 78h-51z" />
<glyph unicode="&#x2c6;" horiz-adv-x="1088" d="M175 1154l293 451h150l293 -451h-72l-296 270l-294 -270h-74z" />
<glyph unicode="&#x2c7;" horiz-adv-x="1088" d="M175 1605h74l294 -271l296 271h72l-293 -451h-150z" />
<glyph unicode="&#x2c9;" horiz-adv-x="1088" d="M270 1239v163h548v-163h-548z" />
<glyph unicode="&#x2d8;" horiz-adv-x="1088" d="M233 1505h63q20 -97 91.5 -142.5t205.5 -45.5q132 0 202.5 45t91.5 143h62q-24 -176 -115 -267.5t-241 -91.5q-151 0 -243.5 92t-116.5 267z" />
<glyph unicode="&#x2d9;" horiz-adv-x="1088" d="M379 1353q0 6 4.5 15t14.5 17l90 96q8 7 17.5 11.5t17.5 4.5q9 0 17.5 -4.5t17.5 -11.5l92 -100q6 -6 9.5 -14t3.5 -17q-1 -12 -4.5 -20t-11.5 -16l-93 -101q-15 -14 -20.5 -17t-10.5 -3q-12 0 -20.5 3t-14.5 12l-98 114q-5 5 -8 12t-3 19z" />
<glyph unicode="&#x2da;" horiz-adv-x="1088" d="M356 1358q0 90 61 151t149 61q90 0 152 -61.5t62 -150.5q0 -88 -62 -150t-152 -62q-88 0 -149 62t-61 150zM466 1358q0 -44 31.5 -76.5t79.5 -32.5q45 0 76.5 32.5t31.5 76.5t-32 76t-76 32q-46 0 -78.5 -32t-32.5 -76z" />
<glyph unicode="&#x2db;" horiz-adv-x="1088" d="M304 -396q0 115 90 234t241 201h72q-104 -92 -163.5 -177.5t-59.5 -168.5q0 -70 40.5 -111.5t109.5 -41.5q58 0 102.5 23t73.5 73l42 -25q-53 -92 -134 -143t-178 -51q-103 0 -169.5 52.5t-66.5 134.5z" />
<glyph unicode="&#x2dc;" horiz-adv-x="1088" d="M198 1156q24 158 82 235.5t156 77.5q55 -2 136 -35q76 -34 136 -34h4q43 0 69.5 28.5t43.5 97.5h65q-24 -152 -82 -227t-153 -75h-6q-59 0 -135 32q-80 37 -137 37q-47 0 -73 -30t-41 -107h-65z" />
<glyph unicode="&#x2dd;" horiz-adv-x="1088" d="M153 1126l201 383q34 62 64.5 88.5t63.5 26.5q40 0 69 -27.5t29 -65.5q0 -23 -15 -49.5t-44 -58.5l-287 -297h-81zM534 1126l201 383q33 62 63 88.5t66 26.5q39 0 67 -27.5t28 -65.5q0 -23 -15 -49.5t-43 -58.5l-287 -297h-80z" />
<glyph unicode="&#x1000;" horiz-adv-x="2147" d="M112 498q0 224 151 383q155 160 375 159q290 0 441 -249q36 51 75 94q161 158 371 157q214 0 368 -152q159 -158 159 -376q0 -223 -155 -374q-165 -158 -368 -157q-43 0 -95 9q-10 2 -18 3t-19 3q-59 17 -60 79q0 84 80 84q16 0 54.5 -10.5t59.5 -10.5q138 0 254 116 q105 102 105 258t-105 259q-108 110 -256 110q-155 0 -259 -112q-91 -88 -107 -241v-32q0 -339 -252 -496q-19 -8 -43 -8q-33 0 -56.5 24.5t-23.5 58.5q0 39 39 63q161 103 175 332q-4 24 0 49q-12 148 -114 252q-108 108 -250 108q-148 0 -256 -115q-110 -116 -110 -268 q0 -49 14.5 -99t39.5 -98.5t61.5 -89.5t81.5 -71q35 -25 35 -63q0 -36 -23.5 -60.5t-56.5 -24.5q-20 0 -48 10q-122 86 -195 224q-70 136 -69 272z" />
<glyph unicode="&#x1001;" horiz-adv-x="1246" d="M112 388q0 37 12 47q153 150 336 150q81 0 170 -32q175 -63 264 -266q77 97 77 215q0 152 -109 256q-102 104 -257 104q-170 0 -286 -136l-30 -37l-2 4q-1 0 2 6q6 5 6 -2q-26 -49 -69 -49q-35 0 -62.5 25.5t-27.5 58.5q0 18 12 39q-2 2 -2 4l2 5q5 4 16 19.5t31 37.5 q161 188 410 188q224 0 375 -153q153 -150 153 -370q0 -215 -157 -372q-157 -156 -371 -156q-295 0 -457 256q-37 71 -36 158zM272 342l23 -32q6 -9 34 -41q111 -131 276 -131q67 0 155 34q-47 175 -189 226q-78 27 -126 27q-89 0 -173 -83z" />
<glyph unicode="&#x1002;" horiz-adv-x="1283" d="M102 522q0 50 12 101.5t34 100t52 92t63 77.5q151 130 368 130q223 0 393 -143q147 -128 147 -358q0 -276 -189 -473q-27 -24 -62 -23q-31 0 -58.5 24t-27.5 53q0 31 27 56q143 145 144 363q0 159 -98 246q-118 100 -274 100q-147 0 -251 -90q-117 -99 -117 -256 q0 -226 154 -363q20 -24 20 -56t-26.5 -54.5t-59.5 -22.5q-30 0 -60 23q-190 195 -191 473z" />
<glyph unicode="&#x1003;" horiz-adv-x="2131" d="M82 837q0 75 75 129q78 52 170 52q61 0 102 -23q142 -78 136 -211q-2 -123 -120 -209q-10 -8 -39.5 -21t-78.5 -33q-13 -4 -24.5 -11.5t-20.5 -17.5q-28 -48 -24 -73t-2 -43q23 -89 132 -165q108 -73 220 -73q147 0 252 106q101 103 115 252q-4 26 0 47q-11 228 -174 331 q-39 30 -39 69q0 32 22.5 57t59.5 25q13 0 41 -11q251 -155 251 -497v-33q16 -151 104 -234q111 -112 261 -112q140 0 251 108q106 108 107 260q0 150 -109 260q-111 109 -246 108q-20 6 -50.5 -3t-65.5 -12q-78 0 -78 84q0 52 54.5 73.5t136.5 21.5q204 0 367 -164 q153 -151 152 -368q0 -220 -156 -378q-154 -154 -363 -154q-215 0 -377 160q-17 25 -35 48t-34 46q-157 -254 -447 -254q-171 0 -317 117q-146 120 -182 274q-17 36 -8 105q18 105 69 135q33 39 99 62q132 55 134 124q0 33 -48 60q-36 15 -68 13q-41 -4 -41 -27 q0 -81 -80 -81q-84 0 -84 81z" />
<glyph unicode="&#x1004;" horiz-adv-x="1229" d="M101 506q0 216 151 366q150 153 376 153q119 0 242 -59q104 -56 168 -126l25 -31l14 -21l2 -4l6 -9q0 -2 -6 -2h-2v2v5q13 -25 14 -46q0 -34 -26.5 -59t-62.5 -25q-48 0 -69 49q-4 1 0 6l-22 25q-109 132 -283 132q-156 0 -263 -104q-102 -104 -103 -252q0 -150 109 -260 q112 -108 257 -108q191 0 276 120q11 9 25 31q18 60 76 60q83 0 82 -80q0 -37 -47 -105q-133 -189 -412 -190q-215 0 -372 156q-155 161 -155 376z" />
<glyph unicode="&#x1005;" horiz-adv-x="1260" d="M103 508q0 222 151 371q147 146 372 146q222 0 371 -157q151 -153 151 -370q0 -213 -160 -370q-153 -154 -367 -154q-210 0 -365 154q-153 157 -153 380zM276 514q-18 -165 98 -272q147 100 147 260q0 162 -156 258q0 -4 -3 -9l-7 -17q-34 -55 -53.5 -111t-25.5 -109z M521 151q44 -12 95 -13q152 0 263 112q108 99 107 248q0 148 -105 258q-96 104 -250 104q-53 0 -105 -14q159 -135 159 -344t-164 -351z" />
<glyph unicode="&#x1006;" horiz-adv-x="2110" d="M124 384q138 132 300 132q74 0 151 -22q188 -52 262 -260q92 83 115 201q-1 19 -3 34t-2 37q0 15 2 33t3 36q-22 124 -125 205q-101 82 -233 82q-174 0 -284 -132l-28 -25q5 -19 -21.5 -37t-45.5 -18q-36 0 -62.5 25t-26.5 59q0 24 8 39q-4 2 0 2v5q2 2 14.5 15.5 t32.5 44.5q62 70 166 126q125 59 247 59q283 0 440 -226q155 230 440 230q214 0 371 -157q157 -153 157 -366q0 -217 -157 -374q-154 -153 -371 -152q-281 0 -440 237q-162 -243 -440 -243q-247 0 -407 187q-10 11 -21 28.5t-26 34.5q-49 81 -16 160zM282 308q7 -9 14 -17.5 t19 -21.5q112 -131 279 -131q50 1 101 13q-45 146 -174 187q-49 17 -92 17q-76 0 -147 -47zM1116 435q22 -124 126 -213q99 -84 232 -84q148 0 256 108q109 110 109 260q0 142 -109 252q-108 106 -256 106q-138 0 -235 -82t-123 -207q6 -39 6 -69q0 -36 -6 -71z" />
<glyph unicode="&#x1007;" horiz-adv-x="1219" d="M101 506q0 216 153 366q157 157 372 157q202 0 371 -144q32 -26 69 -112q46 -97 46 -177q0 -57 -35 -127q92 -137 92 -168q0 -36 -24.5 -60t-59.5 -24q-34 0 -71 46q-18 34 -50 79q-93 -57 -242 -53q-103 8 -183 82q-78 76 -78 166q0 93 78 148q80 60 174 60 q123 0 238 -124q-6 94 -61 143q-117 104 -262 104q-152 0 -258 -106q-108 -106 -108 -254q0 -150 109 -262q105 -112 269 -112q111 0 177 55q31 19 53 20q77 0 77 -83q0 -77 -130 -118q-91 -29 -186 -28q-229 0 -379 152q-151 155 -151 374zM615 557q-13 -43 25 -78.5 t89 -39.5q99 -8 161 36q-101 141 -185 141q-74 0 -90 -59z" />
<glyph unicode="&#x1008;" horiz-adv-x="1604" d="M114 537q-2 219 148 367q151 147 374 151q221 2 369 -153q147 -157 152 -381q4 -232 -167 -395v-615q0 -73 48.5 -120.5t122.5 -47.5q71 0 118.5 47.5t47.5 120.5v1464q0 77 83 82q80 6 80 -82v-1464q0 -143 -95 -243q-93 -99 -234 -99t-241 93q-96 92 -97 238v537 q-75 -33 -190 -33q-224 0 -371 155q-144 152 -148 378zM263 521q-1 -131 121 -252q146 100 148 261q4 163 -154 258q-40 -33 -77 -124q-38 -86 -38 -143zM532 181q41 -15 96 -15q145 -5 255 103q107 106 112 257q3 150 -101 256q-108 105 -261 110q-53 0 -96 -20 q155 -134 158 -342q4 -200 -163 -349z" />
<glyph unicode="&#x1009;" horiz-adv-x="1242" d="M122 758q0 27 14 51v-4v4l4 -4h-6l-2 4l2 5q4 7 17 20.5t28 33.5q159 183 409 187q221 2 371 -150q153 -147 157 -368q2 -215 -154 -376q-153 -155 -374 -159q-133 -4 -297 89v-567q0 -113 37 -153.5t150 -40.5h721q31 0 31 47q0 74 4 82q12 45 83 45q66 0 76 -67v-31.5 t2 -21.5q0 -98 -52.5 -156.5t-143.5 -58.5h-721q-352 0 -352 355v685q0 41 53 67q43 23 90 23q28 0 44 -12q92 -121 275 -121q151 0 256 106q101 110 107 265q3 148 -103 251q-110 103 -260 104q-170 0 -283 -132l-26 -36q-9 -2 -12 -2l5 4l2 -2q2 -5 -5 -14.5t-18 -17 t-24.5 -11t-21.5 -3.5q-83 0 -83 80z" />
<glyph unicode="&#x100a;" horiz-adv-x="2079" d="M93 734q0 22 13 39q-3 2 -3 7h3v-5q-3 0 -3 5l3 2q2 2 45 58q160 185 411 185q222 0 373 -153q153 -146 152 -364v-28q14 -148 102 -230q111 -112 258 -112q146 0 254 108q106 108 106 262q0 150 -106 258q-108 106 -243 106q-28 6 -58 -3t-65 -12q-75 0 -74 84 q0 51 52.5 72t139.5 21q205 0 367 -160q148 -153 148 -366q0 -221 -157 -378q-154 -156 -364 -156q-211 0 -372 160q-20 19 -37.5 44t-35.5 48q-157 -252 -440 -252q-170 0 -300 85v-535q0 -113 39 -152t152 -39h1341q43 0 29 87q-11 86 86 86q71 1 80 -69q2 -14 2 -28v-27 q0 -213 -197 -213h-1341q-183 0 -267.5 88t-84.5 267v659q0 35 44 62t94 27q29 0 47 -12q88 -122 276 -122q138 0 247 104q106 108 119 250q-5 23 0 45q-12 139 -117 231q-106 94 -249 94q-174 0 -286 -132l-24 -25q2 -19 -22.5 -37t-48.5 -18q-33 0 -60.5 25t-27.5 59z" />
<glyph unicode="&#x100b;" horiz-adv-x="1229" d="M112 506q0 216 150 366q151 153 376 153q120 0 243 -59q103 -56 167 -126l25 -31l14 -21l2 -4l6 -9q0 -2 -6 -2q13 -17 13 -39q0 -34 -27 -59t-61 -25q-48 0 -71 49q-3 1 0 6l-20 25q-109 132 -285 132q-158 0 -262 -104q-103 -104 -104 -252q0 -150 110 -260 q112 -108 256 -108q181 0 285 122q23 29 61 29h32q82 0 82 -80v-258q0 -44 -33 -69q-73 -50 -120 -81t-79 -47q-102 -53 -230 -47q-183 2 -305 71v-71q143 -83 311 -85q189 -6 258 51l64 53q34 27 65 26q69 0 69 -92v-283h148q83 0 83 -85q0 -79 -83 -78h-230q-79 0 -79 84 v210q-132 -51 -297 -45q-237 2 -437 128q-35 23 -35 69v291q0 90 71 90q34 0 69 -37q125 -134 330 -136q131 -6 264 97l35 27v65q-130 -83 -299 -83q-214 0 -373 156q-154 161 -153 376z" />
<glyph unicode="&#x100c;" horiz-adv-x="1235" d="M104 -476q0 68 25.5 123.5t67.5 96.5t99 62.5t128 21.5q135 0 243 -95q27 -26 26 -64q0 -28 -25.5 -55t-57.5 -27q-33 0 -57 25q-55 56 -129 56q-99 0 -145 -81q-20 -40 -21 -99q0 -111 69 -111h413q115 0 154 41t39 151v498q-132 -92 -300 -93q-211 0 -370 156 q-152 157 -151 378q0 216 146 364q147 153 375 153q246 0 407 -185q9 -12 21 -26.5t28 -33.5q0 -5 -4 -5q16 -19 17 -49q0 -78 -86 -78q-41 0 -71 41q-2 8 0 10q4 0 6 -2q1 -6 0 -8q0 -2 -2 0l-6 10l-30 31q-109 132 -280 132q-155 0 -259 -102q-104 -104 -105 -252 q0 -150 110 -260q103 -110 254 -110q174 0 271 114q7 20 48 20q26 0 50 -7t46.5 -21t36 -28.5t13.5 -34.5v-612q0 -177 -85 -266t-273 -89h-413q-104 0 -166 99q-56 88 -57 211z" />
<glyph unicode="&#x100d;" horiz-adv-x="1197" d="M93 734q0 22 13 39q-2 0 -5 2l5 9l3 4q3 8 39 52q62 70 167 126q124 59 244 59q225 0 376 -153q153 -151 152 -366q0 -217 -156 -376q-162 -156 -372 -156q-185 0 -299 99v-164q116 -81 281 -75q78 5 170 36q40 12 81.5 27t81.5 28q13 2 21.5 4t19.5 2q69 0 69 -82v-523 l140 7q82 0 82 -82q0 -83 -82 -82h-229q-80 0 -80 82v493q-87 -49 -268 -61q-225 -9 -325 57l-71 51q-49 36 -50 75v343q0 80 78 80h32q39 0 63 -29q103 -122 285 -122q148 0 256 108q113 110 113 260q0 147 -111 252q-104 104 -258 104q-180 0 -285 -132l-22 -25q2 -4 0 -6 q-26 -49 -71 -49q-33 0 -60.5 25t-27.5 59z" />
<glyph unicode="&#x100e;" horiz-adv-x="1258" d="M101 825q0 41 18.5 78t53 62t75.5 40.5t86 15.5q93 0 166 -74q72 -73 69 -163q-6 -125 -124 -209q-16 -10 -43.5 -22t-70.5 -32q-30 -9 -42.5 -26t-28.5 -60q-4 -8 -1 -21.5t1 -31.5q27 -96 128 -171q110 -73 220 -73q160 0 269 112q112 113 111 267q0 243 -187 357 q-37 30 -37 69q0 32 22.5 57t57.5 25q13 0 41 -11q60 -39 109 -93.5t85 -118.5t54.5 -136t18.5 -149q0 -220 -160 -383q-159 -160 -384 -160q-167 0 -313 112q-148 115 -186 263v14t-3 21q-13 77 8 132q25 69 52 87q32 37 103 64q132 57 142 124q0 33 -56 66q-25 13 -58 3 q-35 -12 -35 -35q0 -82 -81 -82q-80 0 -80 82z" />
<glyph unicode="&#x100f;" horiz-adv-x="2390" d="M103 508q0 156 88 293q154 220 427 220q168 0 311 -93q16 -14 28 -22t18 -14q69 133 214 133q146 0 219 -133l41 31q142 100 311 100q272 0 428 -222q88 -137 88 -295q0 -289 -224 -445q-135 -87 -292 -87q-85 0 -153 24q-57 15 -58 79q0 82 79 82q20 0 62.5 -12.5 t65.5 -12.5q110 0 203 67q152 100 151 301q0 115 -60 203q-109 158 -290 157q-121 0 -212 -71l-56 -35q-20 -24 -58 -78q0 -16 -11 -38q-39 -75 -39 -138q0 -84 39 -168q10 -18 11 -35v-69q0 -100 -71 -181q-75 -75 -174 -75q-101 0 -171 75q-73 79 -73 181v71q0 20 6 33 q41 79 41 168q0 19 -7 42t-15 46.5t-15.5 41.5t-7.5 30q-7 14 -18 30t-25 38q-9 13 -75 58q-97 71 -213 71q-185 0 -285 -154q-68 -86 -68 -199q0 -188 157 -291q103 -77 220 -77q19 0 55.5 10.5t55.5 10.5q77 0 76 -82q0 -32 -16.5 -51.5t-42 -29t-60 -13t-68.5 -3.5 q-170 0 -318 99q-218 150 -219 429zM1107 230q0 -36 24.5 -66t57.5 -30q35 0 60.5 30.5t25.5 65.5v46q-55 99 -48 230q1 102 48 191v78q0 39 -25.5 64t-60.5 25q-33 0 -57.5 -25t-24.5 -64v-82q47 -101 47 -191q0 -120 -47 -216v-56z" />
<glyph unicode="&#x1010;" horiz-adv-x="2160" d="M101 508q0 218 149 366q152 151 380 151q288 0 441 -245q159 249 450 249q221 0 370 -155q161 -156 161 -368q0 -215 -161 -374q-170 -171 -422 -152l-50 3q-9 0 -9 2t9 2h4l-4 -2v-2q-30 0 -59 31t-29 66q0 48 79 64h7h6q28 -4 56 -6q181 -12 299 108q114 110 113 260 q0 147 -111 256q-106 106 -259 106t-258 -104q-99 -100 -115 -211q22 -222 -132 -402q-156 -176 -386 -177q-212 0 -374 156q-155 161 -155 378zM262 508q0 -152 109 -262q112 -108 259 -108q138 0 238 90q103 94 120 232q-4 46 0 97q-19 130 -122 216q-100 89 -236 89 q-158 0 -265 -100q-102 -102 -103 -254z" />
<glyph unicode="&#x1011;" horiz-adv-x="2138" d="M91 506q0 218 149 366q146 153 370 153q284 0 438 -234q147 234 444 234q216 0 367 -155q155 -151 157 -364q2 -219 -150 -374q-156 -153 -374 -152q-279 0 -440 235q-157 -241 -442 -241q-210 0 -366 156q-153 157 -153 376zM254 506q0 -153 104 -260q109 -108 252 -108 q135 0 234 84q105 88 131 211q-9 37 -9 73v32t3 35q-22 124 -125 207q-100 82 -234 82q-150 0 -255 -102q-101 -104 -101 -254zM1135 439q27 -129 123 -215q102 -86 234 -86q147 0 256 110q106 111 106 258t-106 252q-106 104 -256 104q-71 0 -132 -22.5t-106.5 -62 t-76.5 -93.5t-42 -122q7 -60 0 -123z" />
<glyph unicode="&#x1012;" horiz-adv-x="1173" d="M109 263q0 82 89 82q54 0 74 -56q58 -157 290 -151q267 2 297 147q13 93 -133 139q-4 -4 -15 -4h-78q-82 0 -82 82q0 81 82 81h78h11h2q153 23 135 139q-34 142 -297 142q-261 0 -290 -142q-18 -67 -77 -67q-41 0 -66.5 26.5t-19.5 69.5q57 279 453 274q404 -4 454 -269 q7 -34 7 -63q0 -118 -100 -197q100 -87 100 -195q0 -29 -7 -51q-56 -267 -454 -270q-338 -7 -444 250q-9 17 -9 33z" />
<glyph unicode="&#x1013;" horiz-adv-x="1258" d="M101 506q0 218 149 366q151 153 371 153q221 0 374 -155q157 -148 157 -364q0 -217 -157 -374q-154 -153 -374 -152q-215 0 -369 154q-151 155 -151 372zM262 506q0 -81 35 -153q121 144 321 145q207 0 334 -149q36 76 36 157q0 142 -109 252q-105 104 -258 104 q-151 0 -256 -102q-102 -104 -103 -254zM401 217q116 -79 220 -79q126 0 227 79q-86 117 -230 117q-140 0 -217 -116v-1z" />
<glyph unicode="&#x1014;" horiz-adv-x="1242" d="M114 301q0 85 47 166q72 106 225 106q128 0 237 -75q56 -41 107 -128q52 -79 66.5 -125.5t18.5 -90.5q146 41 132 161q-18 116 -124 179q-41 24 -93 34.5t-100 20.5q-183 43 -246 151q-29 45 -29 99q0 86 67 150q76 76 196 76q130 0 205 -71q72 -62 72 -106 q0 -73 -74 -73q-35 0 -59 17q-16 17 -47.5 43.5t-96.5 26.5q-53 0 -81.5 -28.5t-15.5 -49.5q34 -50 143 -76q67 -14 131.5 -30t115.5 -47q170 -108 198 -299q17 -160 -107 -265q-59 -49 -187 -71v-745q0 -83 -83 -82q-80 0 -80 82v723q-122 -2 -254 26q-157 35 -217 106 q-68 94 -67 195zM282 301q0 -43 29 -90q68 -83 341 -77q-6 30 -14 64q-42 118 -110 164q-82 53 -149 54q-52 0 -80 -42q-17 -32 -17 -73z" />
<glyph unicode="&#x1015;" horiz-adv-x="1258" d="M101 498q0 135 71 266q72 134 193 216q24 15 48 15q33 0 57 -26t24 -60q0 -37 -34 -63q-198 -122 -198 -348q0 -148 108 -256q102 -110 258 -110q151 0 257 110q108 110 107 256q0 230 -200 348q-36 27 -36 63q0 32 23.5 55.5t56.5 23.5q17 0 43 -8q67 -39 117 -91.5 t86 -115t55 -132t19 -143.5q0 -213 -156 -366q-150 -153 -372 -152q-222 0 -374 152q-153 153 -153 366z" />
<glyph unicode="&#x1016;" horiz-adv-x="1258" d="M101 517q0 136 69 274q70 138 192 223q26 15 49 15q33 0 55.5 -26.5t22.5 -59.5q0 -39 -32 -69q-195 -124 -195 -357q0 -155 108 -267q102 -112 258 -112q175 0 283 148q-197 70 -258 267q-17 68 -17 134q0 177 142 320q25 23 58 22q35 0 59 -24q261 -178 261 -488 q0 -218 -156 -379q-150 -159 -372 -158q-222 0 -374 158q-153 161 -153 379zM801 681q0 -101 56 -167q47 -54 127 -81q8 39 8 84q0 190 -144 320q-47 -73 -47 -156z" />
<glyph unicode="&#x1017;" horiz-adv-x="1258" d="M101 517q0 140 60 271q66 144 192 226q71 43 100 11q17 -18 25 -97q26 -187 143 -183q58 0 98.5 47.5t40.5 105.5q0 7 -3 29t-3 32q0 75 63 75q34 0 57 -16q282 -161 282 -501q0 -218 -156 -379q-150 -159 -372 -158q-222 0 -374 158q-153 161 -153 379zM262 517 q0 -155 108 -267q102 -112 258 -112q151 0 257 112q107 114 107 267q0 157 -90 267q-85 -194 -274 -199q-89 -2 -169.5 51t-118.5 139q-78 -112 -78 -258z" />
<glyph unicode="&#x1018;" horiz-adv-x="2079" d="M93 265q0 36 27.5 62t60.5 26q47 0 71 -52h-6h-6v7l4 2l8 -9l24 -29q116 -134 286 -134q142 0 249 92q102 98 118 237q-6 29 0 59q-15 135 -122 238q-106 98 -245 98q-200 0 -280 -117q-9 -7 -22 -23q-10 -69 -79 -69q-84 0 -84 79q0 34 47 108q137 185 418 185 q284 0 440 -245q18 25 37.5 46.5t37.5 43.5q161 159 370 159q211 0 369 -159q153 -152 152 -374q0 -214 -148 -370q-162 -158 -367 -158q-87 0 -139.5 21t-52.5 72q0 87 74 87q29 0 58.5 -10t64.5 -10q137 0 247 114q104 103 104 254q0 155 -108 264t-254 108 q-152 0 -254 -110q-91 -88 -102 -226v-36q0 -219 -151 -370q-152 -152 -378 -152q-125 0 -245 63q-54 25 -95 57t-71 70q-10 9 -20.5 25t-27.5 37v2q-10 19 -10 37z" />
<glyph unicode="&#x1019;" horiz-adv-x="1258" d="M101 517q0 138 71 274q37 70 85 125t108 98q24 15 48 15q33 0 57 -26.5t24 -59.5q0 -39 -34 -69q-95 -57 -146.5 -157.5t-51.5 -199.5q0 -52 20 -117q136 157 346 157q208 0 345 -159q19 58 19 119q0 239 -200 357q-36 30 -36 69q0 32 23.5 57t56.5 25q17 0 43 -11 q133 -74 205 -209t72 -288q0 -218 -156 -379q-150 -159 -372 -158q-249 0 -410 193q-23 16 -29 45q-88 127 -88 299zM370 250q102 -112 258 -112q143 0 253 112q-100 142 -253 142q-158 0 -258 -142z" />
<glyph unicode="&#x101a;" horiz-adv-x="2152" d="M101 517q0 138 71 274q37 70 85 125t108 98q24 15 48 15q33 0 57 -26.5t24 -59.5q0 -39 -34 -69q-95 -57 -146.5 -157.5t-51.5 -199.5q0 -153 109 -267q105 -112 257 -112q143 0 249 106q103 103 115 252q-4 26 0 47q-14 230 -175 331q-39 30 -39 69q0 32 23.5 57 t58.5 25q14 0 44 -11q252 -155 252 -497v-33q11 -154 102 -238q105 -112 261 -112q151 0 256 108q105 105 105 264q0 150 -112 260q-106 109 -247 108q-51 0 -72.5 -7.5t-40.5 -7.5q-81 0 -81 84q0 55 59 78q8 2 27.5 5t48.5 8q13 2 27.5 3t29.5 1q203 0 369 -164 q152 -151 152 -372q0 -216 -156 -374q-155 -154 -370 -154q-211 0 -370 158q-39 43 -73 94q-158 -247 -443 -246q-222 0 -374 158q-153 161 -153 379z" />
<glyph unicode="&#x101b;" horiz-adv-x="1281" d="M109 523q9 201 151 349q162 157 370 157q210 0 367 -157q157 -154 157 -412v-1117h118q85 0 85 -83q0 -81 -85 -81h-201q-83 0 -83 83v1198q0 200 -105 304q-104 104 -252 104q-123 0 -222 -77q-100 -80 -130 -200q219 3 328 -121q123 -138 123 -309q0 -35 -4 -68.5 t-17.5 -60t-33.5 -42.5t-45 -16q-136 0 -201 30q-69 31 -169 130q-138 142 -148 336q-12 30 -3 53zM279 427q23 -119 146 -222q59 -55 140 -65q8 118 -83 222q-62 73 -203 65z" />
<glyph unicode="&#x101c;" horiz-adv-x="2138" d="M93 506q0 218 153 373q156 156 364 155q209 0 372 -160q105 -106 142 -286q11 -26 11 -49q-10 -176 107 -293q111 -108 254 -108q147 0 254 106q108 108 108 262q0 150 -108 258q-109 106 -249 106q-52 0 -71.5 -11t-43.5 -11q-77 0 -76 87q0 51 55.5 74t130.5 23 q209 0 372 -160q148 -151 148 -366q0 -221 -152 -378q-156 -154 -368 -154q-130 0 -248 65t-187 178q-58 91 -79 214q-7 15 -7 39q3 183 -109 294q-109 109 -256 108q-143 0 -252 -106q-104 -106 -104 -260q0 -153 101 -256q112 -112 246 -112q54 0 76 11.5t45 11.5 q77 0 77 -84q0 -53 -58 -75t-138 -22q-200 0 -361 154q-148 152 -149 372z" />
<glyph unicode="&#x101d;" horiz-adv-x="1258" d="M101 506q0 218 149 366q151 153 371 153q216 0 371 -155q152 -148 156 -364q4 -217 -153 -374q-154 -153 -374 -152q-215 0 -367 152q-153 155 -153 374zM262 506q0 -153 108 -260q106 -108 251 -108q151 0 258 108q109 110 109 260q0 142 -109 252q-105 104 -258 104 q-151 0 -256 -102q-102 -104 -103 -254z" />
<glyph unicode="&#x101e;" horiz-adv-x="2086" d="M93 734q0 26 16 48h3q2 2 2 -2l-2 2l2 -2l-5 -7h-6q1 0 11 15l40 52q158 185 409 185q227 0 374 -140q148 -141 146 -348q0 -180 110 -291q102 -112 256 -112q147 0 254 108q106 108 106 264q0 152 -106 260q-108 106 -245 106q-52 0 -81 -10q-18 -5 -42 -5q-77 0 -77 84 q0 56 60 77q48 16 135 16q207 0 369 -160q150 -153 149 -368q0 -220 -155 -378q-154 -154 -367 -154q-211 0 -372 158q-18 18 -35 43.5t-33 48.5q-81 -109 -195 -177q-129 -73 -251 -73q-274 0 -415 196q-51 72 -51 99q0 80 84 80q71 0 79 -63q7 -4 26 -23q90 -125 277 -125 q147 0 254 110q112 109 112 260q0 147 -108 252q-106 102 -258 102q-81 0 -181 -48q-100 -50 -130 -115q-26 -49 -67 -49q-35 0 -63.5 25t-28.5 59z" />
<glyph unicode="&#x101f;" horiz-adv-x="2145" d="M112 506q0 295 185 499q25 25 58 24q33 0 58.5 -23.5t25.5 -58.5q0 -34 -23 -57q-143 -150 -144 -384q0 -174 104 -274q104 -94 252 -94q151 0 272 108q86 81 102 230q-5 30 0 63q-18 205 -154 351q-20 22 -21 57q0 29 26 55.5t56 26.5q32 0 62 -24q36 -45 68 -93t56 -98 q160 226 428 226q210 0 367 -157q156 -157 156 -377q0 -219 -153 -372q-161 -160 -368 -160q-23 0 -46 3t-45 8q-94 17 -95 88q0 78 80 78q18 0 33 -3.5t44 -9.5q10 -4 35 -4q136 0 249 116q109 103 108 256q0 154 -111 262q-108 106 -254 106q-166 0 -277 -128 q-73 -83 -83 -205v-35q0 -105 -43 -210t-111 -170q-163 -146 -381 -146q-212 0 -366 140q-151 138 -150 386z" />
<glyph unicode="&#x1020;" horiz-adv-x="1258" d="M101 506q0 216 151 366q150 153 376 153q119 0 242 -59q104 -56 168 -126l25 -31l14 -21l2 -4l6 -9q0 -2 -6 -2q11 -17 12 -39q0 -34 -26.5 -59t-62.5 -25q-48 0 -69 49q-4 1 0 6l-22 25q-109 132 -283 132q-156 0 -263 -104q-102 -104 -103 -252q0 -150 109 -260 q112 -108 257 -108q191 0 276 120q25 28 72 31h90q82 0 82 -80v-258q0 -44 -33 -69l-65 -48q-189 -135 -424 -127q-184 2 -307 76v-259q0 -113 39.5 -152t153.5 -39h439q51 0 35 73q-2 9 -17 0l-7 -2q-44 -23 -60 -22q-75 0 -75 79q0 49 44 76.5t98 27.5q152 0 177 -128 q2 -12 4 -26t2 -25q0 -90 -57 -153.5t-144 -63.5h-439q-185 0 -270 88t-85 267v427q0 90 69 90q32 0 69 -33q142 -136 333 -140q189 -6 323 97l35 27v111q-142 -129 -358 -129q-215 0 -372 156q-155 161 -155 376z" />
<glyph unicode="&#x1021;" horiz-adv-x="1947" d="M86 263q0 82 86 82q52 0 74 -56q62 -157 286 -151q272 4 302 147q8 53 -42 93q-41 35 -90 46q-5 -4 -15 -4h-79q-82 0 -82 82q0 81 82 81h87q50 9 76 25q54 34 65 79q-8 15 -2 35q-42 140 -302 140q-254 0 -280 -140q-19 -67 -80 -67q-42 0 -67 26.5t-14 69.5 q51 274 441 274q287 0 405 -142q25 25 70 58q143 93 310 93q270 0 427 -219q89 -136 89 -298q0 -285 -226 -438q-146 -99 -313 -99q-81 0 -178 33q-7 2 -15 4.5t-16 8.5q-62 36 -26 106q27 236 256 340q63 34 141 34q99 0 207 -49q2 15 3 29t1 30q0 115 -62 206 q-102 148 -287 148q-189 0 -295 -132q-11 -12 -25 -41q-6 -130 -100 -203q100 -92 100 -197q0 -25 -8 -47q-53 -265 -458 -270q-335 -5 -439 250q-7 26 -7 33zM1227 148q38 -10 68 -10q85 0 174 46t136 117q-82 41 -143 41q-41 0 -82 -17q-116 -52 -153 -177z" />
<glyph unicode="&#x1022;" horiz-adv-x="2093" d="M112 504v8q0 212 148.5 361.5t360.5 149.5q211 0 361 -149q18 -19 34 -38v4l5 -9q13 -14 22 -30q28 41 62 73q152 148 362 149q210 0 360 -149.5t150 -359.5q0 -215 -150 -363.5t-360 -148.5q-90 0 -170 28l66 157q47 -14 104 -14q139 0 238.5 100.5t99.5 240.5 q0 136 -99 238.5t-239 102.5t-240 -104q-79 -77 -97 -184q2 -27 3 -55q0 -213 -153 -384q-92 -91 -212 -128l-60 161q86 23 151 91q100 124 100 260q0 140 -97.5 241.5t-240.5 101.5q-140 0 -239 -104q-83 -79 -96 -186h5q256 -72 244 -274l-7 -45q-9 -71 -24 -102 q-34 -85 -149 -131l-90 -11q-90 9 -135 35l45 170l43 -26l68 -4q71 -4 85 88q0 105 -99 127l-156 45z" />
<glyph unicode="&#x1023;" horiz-adv-x="2149" d="M91 498q0 224 153 383q153 160 372 159q301 -4 450 -258q162 243 438 243q225 0 378 -161q151 -160 151 -382q0 -336 -253 -490q-28 -12 -41 -12q-34 0 -56.5 26t-22.5 53q0 44 34 67q175 109 175 356q0 158 -105 269q-102 114 -260 113q-136 0 -243 -98 q-101 -102 -115 -243q2 -22 2 -60.5v-100.5q0 -23 -12 -61q-9 -71 -75 -71q-38 0 -65 28.5t-18 72.5q6 34 6 45v28.5t-2 55.5q-4 12 -4 22q0 13 1 23.5t3 20.5q-13 150 -118 249q-102 105 -248 106q-147 0 -256 -115q-106 -116 -106 -268q0 -49 14 -99t38.5 -98.5 t59.5 -89.5t80 -71q36 -25 36 -63q0 -36 -23.5 -60.5t-57.5 -24.5q-17 0 -46 10q-123 86 -194 224q-70 136 -70 272zM311 -340q0 155 118 249q120 91 299 91q223 0 338 -128q119 120 327 120q317 -2 414 -305q8 -36 9.5 -129t-7.5 -243l176 18q82 8 82 -78t-82 -86h-266 q-54 0 -57 176v186q0 81 -11 111q-63 185 -258 186q-225 4 -247 -150v-18q0 -78 -10 -118q-5 -63 -75 -63q-38 0 -65 24.5t-18 67.5q4 13 4 20v35q-4 15 -4 25q0 9 4 34q-26 152 -254 156q-112 0 -183 -48.5t-71 -132.5q0 -118 54 -192q18 -25 19 -51q0 -84 -84 -84 q-73 0 -118 135q-34 103 -34 192z" />
<glyph unicode="&#x1024;" horiz-adv-x="2547" d="M101 498q0 224 153 383q152 160 374 159q288 0 443 -249q34 51 73 94q160 158 370 157q213 0 370 -154q156 -158 156 -367v-1092q0 -110 -38 -174q-60 -86 -195 -86h-1478q-81 0 -148 85q-61 85 -61 189q0 16 1 30.5t3 28.5q61 283 504 283q392 0 756 -110q60 -17 61 -71 q0 -82 -81 -82q-19 0 -27 2q-335 94 -709 94q-310 0 -342 -148q-11 -49 0 -91q11 -46 43 -46h1478q43 0 57 18t14 78v1092q0 155 -108 254q-101 108 -251 108q-155 0 -261 -112q-91 -88 -102 -241v-32q0 -339 -252 -496q-24 -8 -44 -8q-35 0 -58.5 24.5t-23.5 58.5 q0 39 39 63q161 103 175 332q-4 24 0 49q-12 148 -115 252q-108 108 -249 108q-150 0 -257 -115q-109 -116 -109 -268q0 -49 14.5 -99t39 -98.5t61 -89.5t83.5 -71q34 -25 34 -63q0 -36 -24.5 -60.5t-56.5 -24.5q-18 0 -48 10q-121 86 -193 224q-71 136 -71 272zM1730 1607 q0 130 95 239q96 93 249 93q248 0 343 -197q7 -15 7 -35q0 -36 -25 -58.5t-62 -22.5q-47 0 -69 47q-54 106 -191 107q-82 0 -134 -52.5t-52 -122.5q0 -109 127 -223q71 -66 140 -131.5t139 -130.5q145 -166 145 -347v-1522q0 -83 -82 -82q-82 0 -82 82v1522q0 178 -140 327 q-69 59 -137 119t-137 120q-89 78 -111.5 142.5t-22.5 125.5z" />
<glyph unicode="&#x1025;" horiz-adv-x="1229" d="M103 726q0 30 19 54v-5q0 5 2 0h-2h-2l-2 5l2 2q4 8 15 21.5t29 36.5q161 185 407 185q227 0 376 -153q151 -148 151 -364q0 -215 -155 -376q-157 -158 -372 -158q-163 0 -299 87v-537q0 -113 39.5 -152t151.5 -39h439q43 0 31 87q-10 86 87 86q68 0 75 -69q3 -12 3 -26 v-25q0 -104 -55 -160.5t-141 -56.5h-439q-181 0 -266 88t-85 267v657q0 36 46.5 62t95.5 26q31 0 43 -11q91 -120 274 -120q147 0 254 110q112 109 112 260q0 147 -108 252q-108 102 -258 102q-175 0 -280 -132l-29 -33q-8 -10 -12 -8q0 4 6 10q2 3 2 -2q5 -16 -24 -32.5 t-47 -16.5q-33 0 -58.5 24.5t-25.5 53.5z" />
<glyph unicode="&#x1026;" horiz-adv-x="1223" d="M114 726q0 30 18 54v-5q0 5 2 0h-2h-2l-2 5l2 2q4 8 15.5 21.5t27.5 36.5q161 185 410 185q226 0 373 -153q153 -148 153 -364q0 -215 -157 -376q-156 -158 -369 -158q-163 0 -298 87v-537q0 -113 37.5 -152t149.5 -39h439q43 0 32 87q-10 86 86 86q69 0 78 -69 q2 -12 2 -26v-25q0 -104 -55.5 -160.5t-142.5 -56.5h-439q-181 0 -265.5 88t-84.5 267v657q0 36 46.5 62t93.5 26q31 0 43 -11q93 -120 278 -120q145 0 253 110q110 109 109 260q0 147 -105 252q-108 102 -257 102q-177 0 -282 -132l-29 -33q-10 -10 -12 -8q0 4 3 10 q4 3 4 -2q7 -16 -22.5 -32.5t-46.5 -16.5q-32 0 -58 24.5t-26 53.5zM173 1514q0 181 120 304q120 126 299 126q176 0 300 -128q124 -129 124 -302q0 -170 -122 -294q-121 -120 -302 -125q-170 -4 -295 120q-8 6 -14.5 14.5t-10.5 16.5q-99 117 -99 268zM338 1514 q0 -41 13 -81q90 90 229 94q137 2 254 -106q17 41 17 93q0 108 -78 187q-76 77 -181 77q-53 0 -100 -20.5t-80.5 -55.5t-53.5 -83.5t-20 -104.5zM449 1297q68 -43 142 -43q70 0 137 41q-65 71 -143 71q-83 0 -136 -69z" />
<glyph unicode="&#x1027;" horiz-adv-x="1217" d="M112 508q12 301 262 444q16 18 27 21q104 56 245 52q220 -4 349 -142q16 -18 42 -48t58 -69q14 -17 12 -20q4 -3 8.5 -26t4.5 -35q0 -54 -45 -77q-102 -94 -227 -114q130 -25 245 -139q18 -13 18 -54q0 -43 -38 -100q-10 -15 -22.5 -29.5t-27.5 -31.5 q-161 -168 -407 -160q-97 5 -187 35q-55 5 -74 41q-58 28 -105 76.5t-79.5 107.5t-49.5 127t-9 141zM269 502q-7 -153 110 -262q91 215 338 254q-41 2 -84 20q-194 69 -254 242q-94 -102 -110 -254zM519 846q38 -135 168 -179q43 -16 91 -17q84 0 159 50l-9 11 q-73 90 -117 114q-68 39 -165 39q-63 0 -127 -18zM521 151q50 -12 97 -13q175 -4 284 112q12 8 29 35q-71 47 -153 47q-38 0 -83 -10q-130 -37 -174 -171z" />
<glyph unicode="&#x1028;" horiz-adv-x="1252" d="M112 521q0 227 146 369q145 136 375 136q229 0 369 -146t140 -372q0 -176 -110 -325q-61 -86 -140 -132l-149 117q14 19 15 56q0 97 -96 98q-94 0 -95 -98q0 -47 24 -73l-61 -114l-73 75q-35 58 -35 118q0 101 70.5 170t171.5 69q80 0 147.5 -54.5t82.5 -127.5 q79 95 79 209q0 153 -97.5 259.5t-242.5 106.5q-153 0 -254 -89q-117 -110 -114 -230h4v-961l10 -62l18 -69l41 -93q78 -133 298 -126q200 0 287 165q29 30 31 77l2 32l153 14v-46q0 -79 -59 -165q-127 -261 -414 -261h-3q-293 0 -406 161t-113 373v939h-2z" />
<glyph unicode="&#x1029;" horiz-adv-x="2443" d="M112 -368v1864q0 191 120 320q124 128 325 128h1345q160 0 263 -132q3 -5 -22 -70q-24 -67 -35 -69q-79 104 -206 105h-1345q-130 0 -207.5 -76t-77.5 -206v-1864q0 -61 21.5 -116t60 -94.5t91.5 -62.5t114 -23h1080q140 0 215 93q75 95 75 189l-2 395q-75 -19 -122 -19 q-210 0 -371 154q-39 43 -70 94q-181 -244 -441 -248q-270 -2 -417 191q-51 67 -51 102q0 76 86 81q65 0 75 -67q11 -4 24 -16q90 -128 283 -131q143 -3 251 106q108 116 112 263q4 153 -105 252q-108 105 -258 106q-79 0 -178 -52q-108 -54 -138 -110q-19 -45 -66 -52 q-78 0 -92 89q0 10 25 53l38 50q145 179 411 183q221 0 367 -137q151 -137 151 -352q0 -171 99 -286q96 -114 265 -116q155 -2 256 107q102 106 106 263q1 148 -104 259q-104 108 -247 112q-45 0 -84 -11q-17 -10 -38 -11q-76 0 -79 84q-5 97 194 98q217 0 368 -154 q148 -158 150 -377q4 -220 -152 -375q-37 -40 -80 -67v-461q0 -189 -135 -315q-135 -130 -321 -130h-1080q-195 0 -320 136q-127 132 -127 323z" />
<glyph unicode="&#x102a;" horiz-adv-x="4632" d="M101 508q10 222 159 371q151 146 376 146q215 0 350 -142q6 -8 20 -24.5t36 -41.5l37 -49h4l2 -4l2 -4q17 -26 18 -55q0 -82 -84 -84q-12 0 -45 19q-22 13 -29 36q-87 104 -130 138q-69 46 -181 50q-156 2 -260 -102q-106 -109 -116 -260t110 -262q77 185 272 238 q73 19 129 20q172 4 312 -143q16 -8 17 -54q0 -43 -37 -100q-19 -29 -49 -61q-161 -166 -407 -160q-105 0 -187 35q-55 0 -75 41q-125 61 -188.5 183.5t-55.5 268.5zM514 151q48 -12 94 -13q167 -4 284 112l28 35q-69 47 -152 47q-199 0 -254 -181zM1242 -368v1864 q0 191 124 320q128 128 322 128h1349q161 0 264 -132q0 -9 -26 -75q-23 -61 -31 -64q-76 104 -207 105h-1349q-130 0 -205 -76t-75 -206v-1864q0 -61 21.5 -116t59.5 -94.5t90.5 -62.5t114.5 -23h1081q139 0 219 97q68 85 68 185v382q-71 -20 -153 -20q-214 -6 -374 152 q-41 40 -70 92q-186 -248 -445 -250q-267 -2 -408 196q-54 74 -57 99q0 76 86 80q61 4 78 -63q2 -1 8 -7.5t15 -15.5q91 -121 278 -125q147 -4 256 108q105 110 109 262q5 145 -105 252q-108 102 -260 102q-75 0 -174 -47q-108 -53 -136 -116q-16 -51 -69 -51q-86 0 -86 86 q0 30 15 48q2 0 2 -2l-2 -7h-2h-2q2 0 6 15l45 52q152 181 403 185q222 4 372 -133q150 -136 150 -355q0 -172 99 -285q99 -112 271 -118q150 -2 254 110q100 108 104 262q5 147 -102 258q-108 109 -252 108q-26 0 -62.5 -7.5t-55.5 -7.5q-79 0 -81 84q-1 91 195 93 q220 4 365 -153q150 -155 153 -375q3 -219 -153 -378q-52 -27 -52 -51v-459q0 -189 -131 -315q-136 -130 -319 -130h-1081q-198 0 -326 136q-126 132 -126 323zM3359 530q-1 43 128 236q173 257 465 257q270 0 427 -220q84 -127 89 -295q4 -280 -228 -435 q-141 -96 -315 -101q-116 -4 -199 52q-25 24 -30 62q0 80 85 87q22 0 47 -19q4 0 27.5 -8t73.5 -14q136 0 261 110q112 98 112 266q0 106 -62 200q-103 152 -285 152q-112 2 -214 -69q-25 -17 -55.5 -48.5t-66.5 -78.5q-66 -81 -92 -148q-31 -81 -91 -70q-73 14 -77 84z M3553 1603q0 143 102 238q96 98 243 103q119 2 235 -80q117 -84 124 -201q10 -80 -74 -84q-76 -9 -86 72q0 56 -74 95q-57 29 -125 32q-71 2 -121.5 -43t-55.5 -99q-22 -112 107 -232q12 -9 69.5 -44t170.5 -99q39 -25 45 -68q0 -86 -80 -86q-28 0 -174 84q-54 29 -89 50.5 t-54 39.5q-163 150 -163 322z" />
<glyph unicode="&#x102b;" horiz-adv-x="473" d="M-371 1610v14q0 128 116 222q120 97 252 98q134 0 248 -96q116 -92 115 -224v-1567q0 -83 -79 -83q-83 0 -83 83v1567q0 34 -18 62t-46 49t-64.5 33t-76.5 12q-70 0 -138 -45q-67 -45 -67 -109q0 -84 -81 -84q-71 0 -75 39q-3 17 -3 29z" />
<glyph unicode="&#x102c;" horiz-adv-x="1051" d="M-161 530q0 33 17 61q16 28 44.5 71t65.5 104q38 51 77 92.5t81 70.5q141 94 305 94q271 0 430 -220q86 -136 86 -295q0 -284 -223 -435q-148 -100 -319 -101q-66 0 -120.5 16t-75.5 36q-34 24 -34 62q0 36 25.5 61.5t59.5 25.5q27 0 50 -19q2 -3 24 -10q39 -12 77 -12 q109 0 221 77q153 102 152 299q0 111 -60 200q-105 153 -287 152q-120 0 -215 -69q-25 -17 -56.5 -48.5t-64.5 -78.5q-66 -81 -93 -148q-32 -83 -90 -70q-77 14 -77 84z" />
<glyph unicode="&#x102d;" horiz-adv-x="2" d="M-1055 1535q0 177 122 303q119 126 300 126q172 0 297 -128q123 -128 123 -301q0 -170 -121 -295q-124 -120 -299 -125q-181 -4 -300 123q-122 127 -122 297zM-890 1535q0 -104 76 -181q74 -79 181 -79q104 0 180 79q75 77 75 181q0 108 -75 186q-76 77 -180 77 q-56 0 -102.5 -20.5t-81 -55t-54 -83.5t-19.5 -104z" />
<glyph unicode="&#x102e;" horiz-adv-x="2" d="M-1055 1535q0 177 122 303q119 126 300 126q172 0 297 -128q123 -128 123 -301q0 -170 -121 -295q-124 -120 -299 -125q-174 -4 -298 121q-16 14 -23 31q-100 117 -101 268zM-890 1535q0 -41 16 -82q90 90 226 94q138 2 256 -105q14 41 14 93q0 108 -75 186 q-76 77 -180 77q-56 0 -102.5 -20.5t-81 -55t-54 -83.5t-19.5 -104zM-817 1320q83 -55 191 -55q98 0 189 53q-89 90 -199 90q-111 0 -181 -88z" />
<glyph unicode="&#x102f;" horiz-adv-x="2" d="M-653 -109q0 81 82 81t82 -81v-558h160q81 0 81 -84q0 -81 -81 -80h-242q-82 0 -82 82v640z" />
<glyph unicode="&#x1030;" horiz-adv-x="2" d="M-851 -116q0 82 83 82t83 -82v-633q0 -83 -83 -82q-83 0 -83 82v633zM-521 -116q0 82 82 82q83 0 83 -82v-551h161q82 0 82 -84q0 -81 -82 -80h-244q-82 0 -82 82v633z" />
<glyph unicode="&#x1031;" horiz-adv-x="1197" d="M101 508q10 222 159 371q156 151 376 146q221 -4 350 -142q6 -8 20 -24.5t36 -41.5l37 -49h4l2 -4l2 -4q17 -26 18 -55q0 -84 -84 -84q-20 0 -44.5 17t-29.5 38q-99 115 -130 138q-67 50 -181 50q-156 0 -260 -104q-103 -102 -116 -258q-8 -153 110 -262q77 185 272 238 q73 19 129 20q172 0 312 -143q16 -13 17 -54q0 -43 -37 -100q-11 -15 -22.5 -29.5t-26.5 -31.5q-161 -168 -407 -160q-95 5 -187 35q-57 5 -75 41q-58 28 -106 76.5t-79.5 107.5t-48 127t-10.5 141zM514 151q48 -12 94 -13q176 -4 284 112q13 8 28 35q-69 47 -152 47 q-38 0 -83 -10q-128 -37 -171 -171z" />
<glyph unicode="&#x1032;" horiz-adv-x="2" d="M-933 1647q0 33 26 59.5t59 26.5q25 0 49 -17l502 -387q34 -28 34 -62q0 -35 -26 -61.5t-60 -26.5q-25 0 -49 18l-504 388q-31 25 -31 62z" />
<glyph unicode="&#x1033;" d="M-1043 1539q0 173 123 298t302 125q173 0 296.5 -125t123.5 -298q0 -179 -123.5 -303.5t-296.5 -124.5q-178 0 -301.5 124.5t-123.5 303.5zM-885 1533q0 -109 77.5 -188.5t189.5 -79.5q109 0 186 79.5t77 188.5q0 108 -77 186.5t-186 78.5q-112 0 -189.5 -79t-77.5 -186z M-792 1533q0 77 49.5 127t128.5 50q72 0 121.5 -51t49.5 -126q0 -70 -50 -121.5t-121 -51.5q-79 0 -128.5 50.5t-49.5 122.5zM-693 1529q0 -75 75 -75t75 75t-75 75t-75 -75z" />
<glyph unicode="&#x1034;" horiz-adv-x="2" d="M-943 1277q0 36 34 60l500 389q25 17 51 18q32 0 58 -27t26 -59q0 -38 -31 -63l-504 -389q-25 -17 -50 -17q-33 0 -58.5 26.5t-25.5 61.5z" />
<glyph unicode="&#x1035;" d="M-1005 1489q0 154 115 263q120 105 291 106q188 0 312 -127q13 -18 23 -28.5t16 -15.5q4 -6 0 -7v-2q6 -15 6 -29q0 -32 -22.5 -54.5t-47.5 -22.5q-36 0 -55 39q-115 105 -232 105q-55 0 -104.5 -19t-85.5 -48t-57.5 -69.5t-21.5 -90.5q0 -76 49 -135q45 97 135 150.5 t194 53.5q132 0 257 -93q18 -14 13 -72q-7 -49 -28 -96q-117 -179 -351 -179q-164 0 -286 108q-120 102 -120 263zM-701 1277q49 -17 102 -17q130 0 211 88l21 22q8 2 21 0q-74 49 -148 49q-157 0 -207 -142z" />
<glyph unicode="&#x1036;" horiz-adv-x="2" d="M-815 1440q0 86 58.5 147t148.5 61q84 0 145 -61t61 -147q0 -85 -61 -145.5t-145 -60.5q-90 0 -148.5 60.5t-58.5 145.5zM-674 1446q0 -34 19.5 -53.5t51.5 -19.5q30 0 49 19.5t19 53.5q0 29 -19 50.5t-49 21.5q-32 0 -51.5 -21.5t-19.5 -50.5z" />
<glyph unicode="&#x1037;" horiz-adv-x="2" d="M-811 -347q0 87 59.5 147.5t147.5 60.5q85 0 146 -60.5t61 -147.5q0 -84 -61 -144.5t-146 -60.5q-88 0 -147.5 60.5t-59.5 144.5zM-672 -351q0 -33 20 -53t52 -20q30 0 49.5 20t19.5 53q0 29 -19.5 50t-49.5 21q-32 0 -52 -21.5t-20 -49.5z" />
<glyph unicode="&#x1038;" horiz-adv-x="618" d="M97 207q0 86 59.5 146.5t146.5 60.5q85 0 146 -60.5t61 -146.5q0 -85 -61 -145.5t-146 -60.5q-87 0 -146.5 60.5t-59.5 145.5zM97 831q0 86 59.5 147t146.5 61q85 0 146 -61t61 -147q0 -85 -61 -145t-146 -60q-87 0 -146.5 60t-59.5 145zM237 204q0 -33 19 -53t52 -20 q28 0 48 20t20 53q0 28 -20 49.5t-48 21.5q-33 0 -52 -22t-19 -49zM237 838q0 -33 19 -52.5t52 -19.5q28 0 48 19.5t20 52.5q0 29 -20 50t-48 21q-33 0 -52 -21.5t-19 -49.5z" />
<glyph unicode="&#x1039;" horiz-adv-x="2" d="M-855 -468q0 53 63 60h204v205q10 67 71 67q58 -4 67 -67v-205h205q70 0 70 -60q0 -68 -70 -73h-205v-174q0 -31 -20 -49t-47 -18q-71 0 -71 67v174h-204q-63 0 -63 73z" />
<glyph unicode="&#x103a;" horiz-adv-x="3" d="M-1040 1612q0 143 102 247t250 104q144 0 253.5 -89.5t118.5 -199.5q5 -83 -78 -89q-80 -5 -87 78q-2 52 -65 92.5t-142 40.5q-76 0 -125 -45t-57 -102q-19 -122 111 -240q25 -24 245 -148q46 -26 46 -70q0 -89 -81 -89q-30 0 -181 85q-96 53 -144 94q-166 152 -166 331z " />
<glyph unicode="&#x103b;" horiz-adv-x="358" d="M-365 -51q0 85 80 85q84 0 84 -85v-511l285 -91v1600q0 82 84 82q80 0 80 -82v-1709q0 -84 -71 -84q-9 0 -33 4l-447 137q-61 15 -62 79v575z" />
<glyph unicode="&#x103c;" horiz-adv-x="370" d="M141 -365v1839q0 214 109 333q129 136 336 137h512q220 0 358 -191q63 -88 64 -172v-193q0 -84 -81 -84q-82 0 -82 84v193q0 34 -34 77q-95 120 -225 120h-512q-136 0 -215 -84q-67 -74 -67 -220v-1839q0 -69 22 -125.5t60.5 -94.5t91.5 -60t114 -22h461q144 0 224 94 q80 84 80 199v374q0 81 82 81q81 0 81 -81v-374q0 -185 -118 -311q-132 -146 -349 -146h-461q-115 0 -185 32q-58 28 -129 100q-136 136 -137 334z" />
<glyph unicode="&#x103d;" horiz-adv-x="2" d="M-1033 -439q0 174 121 293q118 119 287 118q171 0 290 -120q120 -119 120 -291q0 -169 -115 -291q-122 -121 -295 -125q-164 0 -287 125q-121 122 -121 291zM-870 -439q0 -54 18 -100t51 -80t78.5 -54t97.5 -20q104 0 180 75q74 78 74 179q0 97 -74 179q-75 75 -180 75 q-52 0 -97.5 -19.5t-78.5 -54t-51 -81t-18 -99.5z" />
<glyph unicode="&#x103e;" horiz-adv-x="56" d="M-904 -751q0 84 85 84h162v551q0 82 79 82q82 0 82 -82v-633q0 -83 -82 -82h-241q-85 0 -85 80z" />
<glyph unicode="&#x103f;" horiz-adv-x="2963" d="M93 734q0 26 16 48h3q2 2 2 -2l-2 2l2 -2l-5 -7h-6q1 0 11 15l40 52q158 185 409 185q223 0 380 -153q152 -146 148 -364q0 -161 102 -262q102 -112 256 -112q147 0 254 108q106 108 106 264q0 152 -106 260q-108 106 -245 106q-52 0 -81 -10q-18 -5 -42 -5q-77 0 -77 84 q0 56 60 77q48 16 135 16q207 0 369 -160q137 -140 149 -325q-7 -193 103 -301q115 -108 260 -108q147 0 254 108q105 105 105 264q0 155 -105 261q-106 108 -248 108q-48 0 -82 -13q-17 -8 -38 -8q-78 0 -78 87q0 57 58 76q55 17 136 17q205 1 369 -157q148 -153 149 -371 q0 -221 -155 -378q-156 -152 -365 -151q-211 0 -374 155q-37 39 -69 90q-31 -55 -71 -100q-157 -154 -371 -154q-211 0 -372 158q-23 25 -41 48t-36 44q-145 -250 -437 -250q-274 0 -415 196q-51 72 -51 99q0 80 84 80q71 0 79 -63q7 -4 26 -23q90 -125 277 -125 q147 0 254 110q112 109 112 260q0 147 -108 252q-106 102 -258 102q-81 0 -181 -48q-100 -50 -130 -115q-26 -49 -67 -49q-35 0 -63.5 25t-28.5 59z" />
<glyph unicode="&#x1040;" horiz-adv-x="1258" d="M101 506q0 218 149 366q151 153 371 153q216 0 371 -155q152 -148 156 -364q4 -217 -153 -374q-154 -153 -374 -152q-215 0 -367 152q-153 155 -153 374zM262 506q0 -153 108 -260q106 -108 251 -108q151 0 258 108q109 110 109 260q0 142 -109 252q-105 104 -258 104 q-151 0 -256 -102q-102 -104 -103 -254zM571 498q0 -51 65 -64q55 1 62 64q0 47 -62 61q-51 0 -65 -61z" />
<glyph unicode="&#x1041;" horiz-adv-x="1197" d="M103 734q0 24 15 41q-4 0 -4 7q4 4 4 6l4 3q8 12 16 23t21 26q163 189 412 189q222 0 374 -155q153 -150 153 -368q0 -215 -155 -376q-157 -156 -372 -156q-290 0 -439 224q-26 37 -26 71q0 80 83 80q58 0 76 -60q2 -3 22 -29q89 -122 284 -122q147 0 254 110 q112 109 112 258q0 150 -108 254q-105 104 -258 104q-183 0 -285 -132q-4 -2 -11.5 -8.5t-12.5 -18.5v-6q-24 -49 -71 -49q-33 0 -60.5 25t-27.5 59z" />
<glyph unicode="&#x1042;" horiz-adv-x="1051" d="M26 -506q2 77 75 77q82 0 82 -83q0 -63 96 -114q86 -41 164 -41q97 0 171 73q90 84 91 232v1309q0 82 83 82q80 0 80 -82v-1309q0 -231 -149 -358q-123 -110 -270 -109q-137 0 -277 97q-148 102 -146 226z" />
<glyph unicode="&#x1043;" horiz-adv-x="1197" d="M84 734q0 24 13 41q-4 0 -4 7q4 4 4 6l4 3q7 12 17 23t20 26q163 189 413 189q222 0 375 -155q151 -150 151 -368q0 -215 -154 -376q-155 -156 -372 -156q-86 0 -163 24l448 -715q15 -24 15 -45q0 -35 -26 -57.5t-63 -22.5q-40 0 -65 35l-598 941q-6 10 -6 25q0 33 51 67 q53 37 100 37q18 0 25 -7q93 -118 282 -118q146 0 254 110q111 109 110 258q0 150 -104 254q-109 104 -260 104q-183 0 -288 -132q-3 -2 -8 -8.5t-13 -18.5v-6q-25 -49 -70 -49q-34 0 -61 25t-27 59z" />
<glyph unicode="&#x1044;" horiz-adv-x="1197" d="M91 506q0 216 149 368q151 155 374 155q248 0 412 -189q14 -14 22.5 -25.5t16.5 -23.5l4 -3q0 -2 6 -6q0 -7 -6 -7q12 -19 12 -41q0 -34 -27.5 -59t-61.5 -25q-47 0 -69 49v6q-5 3 -21 27q-103 132 -288 132q-152 0 -259 -104q-101 -104 -101 -254t106 -260 q109 -108 254 -108q186 0 278 114q6 11 28 11q46 0 98 -37q51 -35 51 -67q0 -10 -4 -25l-596 -941q-28 -35 -68 -35q-34 0 -59 22.5t-25 57.5q0 22 14 45l442 715q-73 -24 -159 -24q-213 0 -368 156q-155 161 -155 376z" />
<glyph unicode="&#x1045;" horiz-adv-x="1258" d="M84 506q0 33 9 57q23 201 170 331q147 131 349 131q219 0 372 -155q158 -154 158 -368v-817q0 -215 -158 -370q-157 -159 -372 -159q-216 0 -368 155q-153 151 -153 374q0 83 81 83q82 0 82 -83q0 -154 104 -258q106 -105 254 -106q147 0 254 108q112 104 112 256v817 q0 144 -112 254q-106 106 -254 106q-150 0 -259 -106q95 -9 165 -78.5t70 -171.5q0 -53 -19.5 -100.5t-55 -80t-80.5 -51t-95 -18.5q-99 0 -179 73q-75 73 -75 177zM134 498v23v-13v-10zM252 506q0 -90 86 -90q89 0 89 90q0 88 -89 88q-86 0 -86 -88z" />
<glyph unicode="&#x1046;" horiz-adv-x="1258" d="M101 492v849q0 214 153 369q157 156 372 156q216 0 371 -152q155 -151 155 -373q0 -83 -81 -83q-83 0 -83 83q0 155 -109 255q-105 109 -253 109q-147 0 -255 -110q-109 -108 -109 -254v-849q0 -144 109 -260q108 -106 255 -106q130 0 234 89q101 90 124 218l-254 88 q-4 2 -6 2t-2 3q-82 10 -137 68q-71 70 -71 177q0 54 19.5 99t53.5 79.5t79 53t98 18.5q98 0 176 -76q78 -73 78 -174q0 -84 -62 -155l139 -49q57 -18 57 -75q0 -217 -157 -372q-159 -157 -369 -157q-215 0 -372 157q-153 153 -153 372zM674 771q0 -88 90 -88q87 0 87 88 q0 89 -87 89q-90 0 -90 -89z" />
<glyph unicode="&#x1047;" horiz-adv-x="1269" d="M91 502q0 232 165 390q153 137 352 137q231 0 390 -165q143 -157 144 -348q0 -107 -49 -225q-45 -84 -88 -169t-87 -169q-98 -197 -99 -418q0 -41 6 -76q10 -103 103 -121q68 -16 67 -78q0 -35 -27 -61t-70 -22q-77 8 -142 80q-77 77 -89 181q-5 26 -6.5 48t-1.5 47 q0 234 99 452l185 370q35 78 35 157q0 138 -99 239q-110 114 -272 113q-137 0 -242 -93q-111 -95 -111 -259q0 -77 28 -147q5 -17 5 -33q0 -80 -86 -80q-54 0 -73 56q-37 88 -37 194z" />
<glyph unicode="&#x1048;" horiz-adv-x="1258" d="M91 482q0 220 149 382q151 161 374 161q221 0 374 -161q158 -162 158 -382q0 -131 -75 -271q-71 -132 -197 -219q-22 -17 -47 -18q-34 0 -56 26t-22 59q0 42 33 67q45 31 82.5 72.5t62.5 88.5t40 97.5t15 97.5q0 154 -112 267q-109 116 -256 115q-179 0 -283 -145 q198 -77 255 -273q33 -115 32 -228q0 -84 -22 -136q-47 -114 -161 -114q-41 0 -77 24q-61 36 -110.5 89t-84.5 117.5t-53.5 137.5t-18.5 146zM254 482q0 -100 56 -197q30 -54 63 -92.5t72 -64.5q24 -14 25 26q2 19 0 55q-9 92 -41 191q-39 123 -167 167q-8 -35 -8 -85z" />
<glyph unicode="&#x1049;" horiz-adv-x="1258" d="M101 -315v817q0 217 153 368q152 155 372 155q216 0 369 -155q157 -154 157 -368q0 -58 -57 -77l-139 -49q61 -71 62 -158q0 -96 -78 -173q-80 -73 -176 -73q-53 0 -98 19t-79 53.5t-53.5 79t-19.5 94.5q0 111 71 180q59 54 137 69q0 2 2 2t6 1l254 89q-23 126 -124 214 q-104 89 -234 89q-147 0 -255 -106q-109 -110 -109 -254v-817q0 -150 109 -256q108 -108 255 -108t253 106q110 106 109 258q0 83 83 83q81 0 81 -83q0 -223 -155 -374q-154 -155 -371 -155q-220 0 -372 159q-153 153 -153 370zM674 218q0 -86 90 -86q87 0 87 86 q0 92 -87 92q-90 0 -90 -92z" />
<glyph unicode="&#x104a;" horiz-adv-x="519" d="M170 57v890q0 82 82 82q80 0 80 -82v-890q0 -83 -80 -83q-82 0 -82 83z" />
<glyph unicode="&#x104b;" horiz-adv-x="887" d="M170 57v890q0 82 82 82q80 0 80 -82v-890q0 -83 -80 -83q-82 0 -82 83zM514 57v890q0 82 82 82t82 -82v-890q0 -83 -82 -83t-82 83z" />
<glyph unicode="&#x104c;" horiz-adv-x="1258" d="M93 -614q0 26 8 51q25 128 173 128q56 0 101 -27t45 -77q0 -80 -75 -79q-16 0 -40 6q-31 16 -33 20q-12 4 -12 -2q-16 -73 35 -73h439q114 0 154.5 41t40.5 150v259q-128 -80 -311 -80q-241 0 -422 131l-64 48q-31 27 -31 69v258q0 80 78 80h90q48 -3 67 -31 q86 -120 282 -120q150 0 256 108q112 110 112 260q0 147 -109 252q-105 104 -259 104q-175 0 -284 -132l-23 -25q2 -4 0 -6q-25 -49 -67 -49q-35 0 -62.5 25t-27.5 59q0 22 12 39l-5 2q3 5 3 6t2 3l4 4q2 8 39 52q63 70 167 126q124 59 242 59q227 0 379 -153 q151 -150 151 -366q0 -217 -160 -376q-155 -156 -370 -156q-217 0 -356 127v-109l33 -27q134 -97 323 -97q190 0 333 140q37 33 70 33q70 0 70 -90v-427q0 -174 -85.5 -264.5t-271.5 -90.5h-439q-86 0 -144 63t-58 154zM246 1603q0 139 99 242q100 98 243 99q140 0 248 -90 q104 -83 115 -191q3 -80 -77 -84q-78 -9 -83 72q-2 54 -63 90.5t-140 36.5q-72 0 -119 -42t-56 -100q-20 -116 108 -232q13 -14 70 -48.5t169 -94.5q45 -25 45 -68q0 -86 -81 -86q-29 0 -173 84q-47 25 -83.5 47.5t-56.5 42.5q-165 146 -165 322z" />
<glyph unicode="&#x104d;" horiz-adv-x="1595" d="M103 523q10 220 169 367q150 139 356 139t360 -157q158 -154 158 -412v-927q0 -82 -80 -82q-82 0 -82 82v927q0 200 -107 304q-105 104 -249 104q-62 0 -118.5 -20.5t-105.5 -56t-83 -88.5t-49 -112q217 3 331 -121q121 -139 121 -309q0 -35 -4.5 -68.5t-17.5 -60 t-32.5 -42.5t-46.5 -16q-136 0 -201 30q-67 31 -168 130q-138 147 -148 336q-13 30 -3 53zM126 -557q0 99 51 186q85 154 284 154q147 0 263 -96q30 -25 30 -61q0 -35 -24.5 -59.5t-59.5 -24.5q-28 0 -54 19q-72 57 -156 57q-97 0 -133 -64q-40 -68 -40 -127q0 -93 68 -94 h855q65 0 91 37.5t26 140.5v1262q0 174 -117 296q-30 36 -246 198q-185 141 -186 340q0 123 96 230q98 109 254 109q218 0 339 -194q10 -29 11 -45q0 -36 -25.5 -58.5t-62.5 -22.5q-41 0 -65 39q-75 122 -197 122q-74 0 -127.5 -55t-53.5 -127q0 -129 168 -266 q218 -185 262 -234q113 -145 113 -332v-1262q0 -151 -54 -231q-73 -112 -226 -111h-855q-95 0 -164 80q-66 77 -65 194zM272 427q23 -119 148 -222q58 -55 139 -65q8 118 -83 222q-63 73 -204 65z" />
<glyph unicode="&#x104e;" horiz-adv-x="1197" d="M101 506q0 216 149 368q151 155 376 155q247 0 412 -189q11 -14 19.5 -25.5t17.5 -23.5l4 -3q0 -2 4 -6q0 -7 -4 -7q11 -19 12 -41q0 -34 -26.5 -59t-62.5 -25q-48 0 -69 49v6q-4 3 -22 27q-102 132 -285 132q-154 0 -261 -104q-102 -104 -103 -254q0 -150 109 -260 q108 -108 255 -108q185 0 276 114q9 17 45 17q50 0 95 -27t45 -65v-926q0 -83 -78 -82q-81 0 -81 82v808q-136 -85 -302 -85q-213 0 -370 156q-155 161 -155 376z" />
<glyph unicode="&#x104f;" horiz-adv-x="2114" d="M112 508q12 301 262 444q16 18 27 21q104 56 245 52q168 -4 267 -74q82 60 241 67q136 3 230 -126q83 -121 83 -274v-561q0 -83 -81 -83q-83 0 -82 83v561q0 79 -34 153q-48 99 -122 99q-62 0 -114 -33q11 -13 29 -34t46 -52q0 -4 -2 -5q4 -3 8.5 -26t4.5 -35 q0 -54 -45 -77q-102 -94 -227 -114q130 -25 245 -139q18 -13 18 -54q0 -43 -38 -100q-10 -15 -22.5 -29.5t-27.5 -31.5q-161 -168 -407 -160q-97 5 -187 35q-55 5 -74 41q-58 28 -105 76.5t-79.5 107.5t-49.5 127t-9 141zM269 502q-7 -153 110 -262q91 215 338 254 q-41 2 -84 20q-194 69 -254 242q-94 -102 -110 -254zM519 846q38 -135 168 -179q43 -16 91 -17q84 0 159 50l-9 11q-73 90 -117 114q-68 39 -165 39q-63 0 -127 -18zM521 151q50 -12 97 -13q175 -4 284 112q12 8 29 35q-71 47 -153 47q-38 0 -83 -10q-130 -37 -174 -171z M1135 1615q0 137 103 233q103 95 241 96q131 0 247 -86q98 -81 99 -153q0 -79 -86 -79q-47 0 -70 47q-49 104 -183 105q-43 0 -78 -14q-109 -45 -109 -157q0 -35 19 -82q19 -51 52.5 -90.5t74.5 -71.5t88.5 -60t92.5 -57q217 -135 217 -473v-716q0 -83 -81 -83q-85 0 -85 83 v716q0 219 -115 327q-66 50 -133.5 98t-134.5 97q-91 69 -131 172q-29 77 -28 148z" />
<glyph unicode="&#x1050;" horiz-adv-x="1258" d="M112 518q0 92 45 207q44 110 112 177q151 137 361 137q234 0 382 -145q149 -144 149 -376q0 -296 -186 -494q-28 -26 -64 -26q-31 0 -55.5 24.5t-24.5 57.5q0 35 24 57q135 148 140 381q5 160 -100 256q-103 98 -262 104q-155 2 -255 -104q-103 -101 -104 -256 q0 -227 148 -381q19 -23 21 -57q0 -33 -25.5 -57.5t-57.5 -24.5q-39 0 -59 26q-189 201 -189 494zM450 506q0 75 52.5 127.5t129.5 52.5q76 0 129 -52.5t53 -127.5q0 -76 -53 -128.5t-129 -52.5q-77 0 -129.5 52.5t-52.5 128.5zM555 506q0 -36 21.5 -57.5t55.5 -21.5 q33 0 54.5 21.5t21.5 57.5q0 32 -21.5 55t-54.5 23q-34 0 -55.5 -23t-21.5 -55z" />
<glyph unicode="&#x1051;" horiz-adv-x="1283" d="M112 509q0 293 189 495q20 25 59 24q32 0 57.5 -24.5t25.5 -56.5q-2 -36 -21 -57q-147 -155 -148 -381q0 -154 104 -257q100 -104 255 -104q159 5 262 104q105 99 100 257q-5 233 -140 381q-24 22 -24 57q0 32 25 56.5t55 24.5q36 0 64 -24q186 -200 186 -495 q1 -233 -149 -376q-147 -144 -382 -144q-210 0 -361 136q-69 68 -112 176q-45 116 -45 208zM450 521q0 75 52.5 127.5t129.5 52.5q76 0 129 -52.5t53 -127.5t-53 -128t-129 -53q-77 0 -129.5 53t-52.5 128zM555 521q0 -31 21.5 -54.5t55.5 -23.5q33 0 54.5 23.5t21.5 54.5 q0 35 -21.5 57t-54.5 22q-34 0 -55.5 -22t-21.5 -57z" />
<glyph unicode="&#x1052;" horiz-adv-x="1258" d="M116 549q0 324 266 493q27 12 43 13q81 0 81 -82q-6 -45 -37 -68q-193 -130 -190 -356q3 -157 111 -275q110 -114 265 -108q113 2 219 74q108 71 133 171v56q-11 23 -18 36.5t-13.5 22.5t-15.5 13t-20 12q-81 29 -119 54q-122 88 -124 210q-4 90 71 165q72 72 165 70 q88 -2 160 -60q79 -55 74 -133q-6 -89 -80 -86q-83 2 -82 86q0 22 -34 33q-38 4 -75 -14.5t-37 -58.5q9 -61 139 -120q68 -34 104 -66q77 -57 59 -218q0 -12 -1 -20.5t-1 -14.5q-47 -160 -193 -269t-311 -107q-226 4 -381 162q-158 158 -158 385z" />
<glyph unicode="&#x1053;" horiz-adv-x="1258" d="M120 857q-2 83 78 138q68 50 157 55q88 2 162 -70q75 -75 74 -165q-5 -122 -126 -210q-28 -17 -120 -54q-13 -8 -21.5 -12t-15.5 -13t-13 -25.5t-19 -40.5q16 -66 52.5 -118.5t84.5 -91.5t107 -60.5t126 -23.5q104 -2 214 68q111 76 137 177v56q-2 3 -8.5 18t-19.5 38 q-5 13 -75 40q-52 16 -83 42q-118 86 -124 210q-6 90 69 160q70 71 167 75q76 2 158 -58q73 -52 76 -135q2 -84 -80 -86q-79 -3 -82 86q0 22 -36 33q-34 8 -71 -12.5t-40 -60.5q3 -61 140 -120l35 -16q38 -14 68 -50q73 -48 63 -218q0 -4 -1 -13.5t-3 -21.5 q-41 -161 -191 -264q-148 -110 -313 -112q-176 -2 -319 104q-139 109 -199 286l-6 19q-17 146 63 220q37 33 104 66q135 49 140 120q0 40 -39 58.5t-77 14.5q-27 -11 -27 -33q0 -84 -83 -86q-79 -3 -83 86z" />
<glyph unicode="&#x1054;" horiz-adv-x="1217" d="M104 523q-3 146 60.5 268t188.5 185q20 38 72 38q89 41 189 41q245 2 406 -163q30 -32 49 -63q40 -58 40 -103q0 -39 -20 -48q-141 -152 -309 -146q-61 0 -132 21q-191 54 -272 239q-122 -113 -111 -262q13 -157 119 -263q105 -103 258 -101q114 4 183 52q41 32 129 138 q9 22 30 36q32 18 45 19q83 -5 83 -82q0 -32 -17 -57l-2 -3l-4 -6h-4l-35 -48q-24 -26 -38 -42t-20 -25q-133 -144 -350 -144q-222 0 -377 147q-147 148 -161 372zM519 881q58 -181 254 -182q84 0 156 52l-29 31q-120 116 -284 112q-49 0 -97 -13z" />
<glyph unicode="&#x1055;" horiz-adv-x="2016" d="M104 523q-3 146 60.5 268t188.5 185q20 38 72 38q89 41 189 41q245 2 406 -163q30 -32 49 -63q40 -58 40 -103q0 -39 -20 -48q-141 -152 -309 -146q-61 0 -132 21q-191 54 -272 239q-122 -113 -111 -262q13 -157 119 -263q105 -103 258 -101q114 4 183 52q41 32 129 138 q9 22 30 36q32 19 45 19q36 -5 83 -56q18 -17 35.5 -37.5t37.5 -45.5q108 -112 260 -106q111 4 183 52q41 32 130 138q6 22 29 36q31 18 46 19q82 -5 82 -82q0 -32 -18 -57l-2 -3l-4 -6h-1l-38 -48q-22 -26 -36.5 -42t-19.5 -25q-136 -144 -351 -144q-221 0 -376 150 q-17 18 -24 27.5t-9 13.5l-44 -47q-133 -144 -350 -144q-222 0 -377 147q-147 148 -161 372zM519 881q58 -181 254 -182q84 0 156 52l-29 31q-120 116 -284 112q-49 0 -97 -13z" />
<glyph unicode="&#x1056;" horiz-adv-x="835" d="M-168 183q-7 8 75 49q85 42 73 55q124 -126 244 -121q112 0 221 66q108 69 133 169q-2 24 0 45q0 77 -68 105q-109 45 -120 52q-118 86 -123 211q-2 131 139 209q40 23 104 23q86 0 162 -48q84 -49 82 -134q0 -89 -82 -82q-81 4 -81 82q-3 30 -42 30q-43 0 -67 -15 q-53 -28 -53 -62q8 -72 138 -124q69 -24 103 -60q56 -39 64 -135q12 -69 -6 -106q-41 -166 -189 -276q-146 -116 -315 -114q-245 4 -392 181z" />
<glyph unicode="&#x1057;" horiz-adv-x="2026" d="M11 398q-7 26 31 47.5t76 21.5q36 0 48 -24q9 -16 16 -33.5t19 -35.5q34 -75 64 -109q105 -104 252 -104q155 0 258 111q39 39 69 141q9 23 14.5 46t9.5 51q12 52 86 63q41 4 64.5 -18.5t23.5 -37.5q12 -143 114 -252q104 -106 252 -104q111 5 216 67q108 71 136 170 q-7 26 0 41q0 82 -70 104q-109 48 -122 56q-113 84 -117 210q-8 134 136 209q39 23 103 22q87 0 160 -45q87 -52 83 -135q-4 -87 -83 -85q-80 7 -80 85q-2 30 -40 30q-45 0 -68 -18q-52 -27 -52 -57q10 -75 138 -126q70 -28 100 -59q53 -39 67 -136q10 -69 -6 -106 q-40 -164 -190 -279q-152 -113 -311 -111q-292 4 -446 254q-170 -254 -445 -254q-214 0 -363 153q-111 113 -143 247z" />
<glyph unicode="&#x1058;" horiz-adv-x="2" d="M-1107 -443q-4 162 134 273q125 103 294 103q244 0 371 -183q22 -55 26 -97q9 -53 -9 -73q-127 -94 -272 -97q-240 -4 -344 209q-47 -54 -55 -135q-2 -108 94 -173q78 -57 189 -62q126 -3 246 107q15 37 59 41q25 0 49 -25q16 -8 28 -52q-14 -35 -50 -82 q-125 -128 -332 -132q-169 -2 -299 101q-122 101 -129 277zM-786 -228q56 -147 221 -148q79 0 156 49h-24q-2 2 -7 9t-15 17q-86 90 -224 90q-47 0 -107 -17z" />
<glyph unicode="&#x1059;" horiz-adv-x="115" d="M-1136 -455q-6 166 129 274q126 102 294 102q243 0 368 -179q20 -55 30 -98q2 -34 -27 -68q-134 -99 -257 -99q-238 -7 -344 206q-49 -60 -52 -138q-2 -102 91 -168q81 -56 191 -60q124 -4 243 105q15 35 59 39q23 0 56 -26q22 -47 109 -85q78 -33 143 -33 q121 -4 239 105q17 37 59 39q24 0 51 -24q12 -10 23 -51q-11 -32 -47 -83q-129 -128 -325 -130q-173 -2 -306 110q-111 -109 -304 -110q-170 -2 -296 101q-124 100 -127 271zM-829 -242q61 -157 233 -156q47 0 138 42l-42 43q-130 95 -213 95q-49 0 -116 -24z" />
<glyph unicode="&#x105a;" horiz-adv-x="1213" d="M101 506q0 216 151 366q150 153 376 153q119 0 242 -59q104 -56 168 -126l25 -31l14 -21l2 -4l6 -9q0 -2 -6 -2h-2v2v5q13 -25 14 -46q0 -34 -26.5 -59t-62.5 -25q-48 0 -69 49q-4 1 0 6l-22 25q-109 132 -283 132q-156 0 -263 -104q-102 -104 -103 -252q0 -150 109 -260 q112 -108 257 -108q191 0 276 120q11 9 25 31q18 60 76 60q83 0 82 -80q0 -37 -47 -105q-133 -189 -412 -190q-215 0 -372 156q-155 161 -155 376zM345 -313q0 48 20.5 88t57.5 72.5t85.5 51.5t105.5 19q59 0 110 -18t91 -48.5t60 -72.5t20 -90q0 -29 -11.5 -59.5 t-28.5 -66.5l-63 -104q-41 -65 -41 -109q0 -29 18 -37l-7 2q2 0 4.5 -2t6.5 -2q11 -2 93 -41l-82 -114q-125 27 -158 80q-27 49 -27 116q0 77 47 164l13 23l-4 -2l69 114q6 9 10 19.5t4 18.5q0 37 -34 63t-88 26q-51 0 -82.5 -27t-31.5 -64l6 -16q6 -18 7 -38.5t1 -38.5 l-140 -16q-31 69 -31 109z" />
<glyph unicode="&#x105b;" horiz-adv-x="1501" d="M112 514q0 210 148.5 359.5t360.5 149.5q211 0 359 -149q86 -90 95 -146h8q24 -82 84 -148q32 -29 69 -54v497h177v-1701q0 -267 -250 -267h-168q-252 12 -252 250l-5 708q-55 -11 -117 -11q-212 0 -360.5 148.5t-148.5 363.5zM285 514q0 -140 97.5 -240.5t238.5 -100.5 q128 0 219 83l124 -122q-23 -20 -46 -39l2 -733q6 -81 39 -108t114 -27q71 5 114 28t49 107v976q-105 38 -190 123l-14 11q-9 -11 -20 -23q-79 -75 -189 -75q-106 0 -185 76t-79 188q0 109 79 185q12 12 26 25q-17 7 -43 7q-140 0 -238 -102.5t-98 -238.5zM724 630 q0 -42 34 -73t73 -31q41 0 74 31q28 23 32 57q-14 38 -24 79q-13 17 -34 37q-22 13 -48 13q-40 0 -73.5 -30t-33.5 -83z" />
<glyph unicode="&#x105c;" horiz-adv-x="1246" d="M112 514q0 210 148.5 359.5t360.5 149.5q211 0 361.5 -149.5t150.5 -359.5q0 -215 -151 -363.5t-361 -148.5q-212 0 -360.5 148.5t-148.5 363.5zM285 514q0 -140 97.5 -240.5t238.5 -100.5q143 0 240.5 100.5t97.5 240.5q0 136 -97.5 238.5t-240.5 102.5 q-140 0 -238 -102.5t-98 -238.5zM446 502q0 76 52.5 126t124.5 50q73 0 124.5 -52t51.5 -124q0 -71 -52 -122t-124 -51t-124.5 49t-52.5 124zM549 496q0 -76 72 -76q74 0 74 76q0 72 -74 71q-72 0 -72 -71z" />
<glyph unicode="&#x105d;" horiz-adv-x="1246" d="M101 517q0 138 71 274q37 70 85 125t108 98q24 15 48 15q33 0 57 -26.5t24 -59.5q0 -39 -34 -69q-95 -57 -146.5 -157.5t-51.5 -199.5q0 -52 20 -117q136 157 346 157q208 0 345 -159q19 58 19 119q0 239 -200 357q-36 30 -36 69q0 32 23.5 57t56.5 25q17 0 43 -11 q133 -74 205 -209t72 -288q0 -218 -156 -379q-150 -159 -372 -158q-249 0 -410 193q-23 16 -29 45q-88 127 -88 299zM168 -708q0 91 19 137q69 142 226 142q29 0 64 -8.5t74 -31.5q23 -11 44 -27t45 -41l-121 -139l-33 34h3q-35 30 -69 30q-38 0 -61 -25t-23 -62 q0 -13 4.5 -29.5t8.5 -29.5h131l-131 -6h429q61 0 81 23.5t20 87.5v854l176 141l2 -995q0 -292 -279 -292h-429q-181 0 -181 237zM370 250q102 -112 258 -112q143 0 253 112q-100 142 -253 142q-158 0 -258 -142z" />
<glyph unicode="&#x105e;" d="M-1057 -514q-8 105 81 217q56 58 178 98t270 69v119h166v-93q47 7 118 18l130 -121l-241 -47q0 -114 -3.5 -195t-10.5 -132.5t-15 -81.5t-19 -45q-54 -81 -127 -108.5t-155 -25.5q-77 -2 -140 15.5t-110 56t-77.5 102t-44.5 154.5zM-900 -498q19 -110 73 -154.5 t140 -46.5q140 0 161 199v205h-2q-63 -16 -103.5 -25t-64.5 -14.5t-37 -9t-23 -7.5q-66 -25 -107 -58.5t-37 -88.5z" />
<glyph unicode="&#x105f;" d="M-1073 -486q0 65 35.5 125t100.5 107q65 41 151 67t174 26q35 0 60.5 -4.5t47.5 -6.5l2 146h162v-273l-89 -50q-40 18 -89 28t-98 10q-130 0 -210.5 -51t-80.5 -122q0 -39 20.5 -70.5t59.5 -56.5t89.5 -35.5t111.5 -10.5q77 0 141.5 21.5t106.5 57.5l130 -100 q-10 -9 -23.5 -21t-27.5 -21q-69 -48 -148 -72.5t-169 -24.5q-94 0 -175 24.5t-146 70.5q-66 46 -101 105.5t-35 130.5z" />
<glyph unicode="&#x1060;" d="M-1199 -827l587 782h181l-463 -646h648v-136h-953z" />
<glyph unicode="&#x1061;" horiz-adv-x="1276" d="M109 523q9 201 151 349q162 157 370 157q210 0 367 -157q157 -154 157 -412v-1117h118q85 0 85 -83q0 -81 -85 -81h-201q-83 0 -83 83v1198q0 200 -105 304q-104 104 -252 104q-123 0 -222 -77q-100 -80 -130 -200q219 3 328 -121q123 -138 123 -309q0 -35 -4 -68.5 t-17.5 -60t-33.5 -42.5t-45 -16q-136 0 -201 30q-69 31 -169 130q-138 142 -148 336q-12 30 -3 53zM279 427q23 -119 146 -222q59 -55 140 -65q8 118 -83 222q-62 73 -203 65zM305 -751q0 84 85 84h163v551q0 82 80 82q84 0 84 -82v-633q0 -83 -84 -82h-243q-85 0 -85 80z " />
<glyph unicode="&#x1062;" horiz-adv-x="480" d="M2 855v168h382v-1023h-175v855h-207z" />
<glyph unicode="&#x1063;" horiz-adv-x="1197" d="M112 734q0 22 10 41q-4 0 -4 7q4 4 4 6l4 3q10 12 17.5 23t20.5 26q165 189 411 189q225 0 376 -155q151 -153 151 -368t-157 -376q-157 -156 -370 -156q-167 0 -301 85v-808q0 -83 -83 -82q-78 0 -77 82v926q0 38 45.5 65t94.5 27q35 0 47 -17q89 -114 274 -114 q146 0 254 108q111 111 111 260q0 150 -104 254q-105 104 -261 104q-183 0 -286 -132q-16 -25 -22 -27v-6q-22 -49 -69 -49q-34 0 -60 25t-26 59z" />
<glyph unicode="&#x1064;" horiz-adv-x="519" d="M-28 874v151h360v-881h170v-148h-323v878h-207z" />
<glyph unicode="&#x1065;" horiz-adv-x="1197" d="M103 734q0 24 15 41q-4 0 -4 7q4 4 4 6l4 3q8 12 16 23t21 26q163 189 412 189q222 0 374 -155q153 -150 153 -368q0 -215 -155 -376q-157 -156 -372 -156q-290 0 -439 224q-26 37 -26 71q0 80 83 80q58 0 76 -60q2 -3 22 -29q89 -122 284 -122q147 0 254 110 q112 109 112 258q0 150 -108 254q-105 104 -258 104q-183 0 -285 -132q-4 -2 -11.5 -8.5t-12.5 -18.5v-6q-24 -49 -71 -49q-33 0 -60.5 25t-27.5 59z" />
<glyph unicode="&#x1066;" horiz-adv-x="1258" d="M101 516q0 139 71 275q72 138 193 223q24 15 48 15q33 0 57 -26.5t24 -59.5q0 -39 -34 -69q-198 -126 -198 -358q0 -154 108 -266q102 -112 258 -112q151 0 257 112q108 115 107 266q0 240 -200 358q-36 30 -36 69q0 32 23.5 57t56.5 25q17 0 43 -11q67 -39 117 -93.5 t86 -120.5t55 -137t19 -147q0 -223 -156 -378q-150 -159 -372 -158q-222 0 -374 158q-153 155 -153 378zM695 -751q0 84 83 84h162v911q0 83 81 83q84 0 84 -83v-993q0 -83 -84 -82h-243q-83 0 -83 80z" />
<glyph unicode="&#x1067;" horiz-adv-x="675" d="M112 224q0 100 68 165.5t160 65.5q38 0 73 -14v580h150v-797q0 -90 -65 -156t-158 -66q-92 0 -160 65t-68 157zM244 218q0 -94 94 -94q95 0 95 94q0 93 -95 93q-94 0 -94 -93z" />
<glyph unicode="&#x1068;" horiz-adv-x="677" d="M51 0h362v756h-153v-601h-209v-155zM103 1163q0 94 68 160.5t161 66.5q95 0 159 -68.5t64 -158.5q0 -91 -64 -158t-159 -67q-93 0 -161 64.5t-68 160.5zM253 1169q0 -80 82 -79q82 -1 82 79q0 78 -82 78t-82 -78z" />
<glyph unicode="&#x1069;" horiz-adv-x="683" d="M91 969q33 14 70 23t69 14q79 10 151 -5.5t126 -48.5t92 -83.5t45 -115.5q5 -33 -5.5 -78t-28.5 -95v2l-67 -154q-47 -113 -40 -179q-5 -43 32 -64t87 -31l-87 -129q-53 -1 -86.5 14t-63.5 47q-25 32 -37 65.5t-19 79.5q-6 54 4.5 112t37.5 116l11 36l72 179q0 4 1.5 5.5 t1.5 4.5t1 3t0 2q12 23 10 38q-10 68 -71 103t-144 25q-39 -6 -66 -15z" />
<glyph unicode="&#x106a;" horiz-adv-x="702" d="M51 265h167v-7q0 -41 34 -72t70 -31q43 0 77 31t34 72v763h150v-742v-14q0 -115 -79.5 -190t-188.5 -75q-106 0 -185 75.5t-79 189.5z" />
<glyph unicode="&#x106b;" horiz-adv-x="714" d="M61 756q0 113 78.5 189t187.5 76q106 0 185.5 -76.5t79.5 -188.5v-13v-743h-149v764q0 43 -33.5 72.5t-77.5 29.5q-37 0 -70.5 -29.5t-33.5 -72.5v-10z" />
<glyph unicode="&#x106c;" horiz-adv-x="721" d="M91 265v17v741h149v-763q0 -42 34 -72.5t77 -30.5q37 0 71.5 30.5t34.5 72.5v7l164 -2q0 -111 -78 -187t-187 -76q-106 0 -185.5 76.5t-79.5 186.5z" />
<glyph unicode="&#x106d;" horiz-adv-x="756" d="M72 13l78 146q30 -8 70 -8q85 0 139.5 46.5t54.5 110.5q0 16 -11 32q0 2 -1.5 3.5t-1.5 3.5t-1 4t-1 5l-95 170l-22 39q-31 51 -47.5 108t-16.5 111q0 47 6.5 83.5t26.5 67.5q25 40 56.5 59.5t85.5 26.5l103 -121q-48 -19 -82 -42.5t-25 -69.5q0 -67 63 -174l86 -144v4 q27 -45 42 -90.5t15 -78.5q0 -61 -29.5 -118t-80.5 -99.5t-119 -67t-147 -24.5q-78 0 -146 17z" />
<glyph unicode="&#x106e;" horiz-adv-x="2580" d="M88 500q0 217 168.5 371t402.5 154q162 0 292 -73q151 102 301 66q159 -42 232 -156l35 33l43 28q155 102 335 102q294 0 465 -220q93 -131 94 -295q0 -284 -242 -439q-146 -86 -317 -86q-88 0 -165 21q-62 17 -63 78q0 82 89 82q19 0 65 -11t68 -11q119 0 222 65 q166 101 165 299q0 115 -68 205q-110 150 -313 149q-129 0 -230 -70l-60 -41q-19 -20 -59 -72v-1q13 -84 12 -180q-6 -144 -73.5 -277t-163.5 -215q-29 -10 -48 -10q-39 0 -63.5 23.5t-24.5 55.5q0 37 40 63q152 127 155 360q-2 198 -66 289.5t-133 95.5q-67 5 -100 -28 q146 -153 147 -355q0 -146 -77.5 -279t-219.5 -208q-26 -9 -43 -9q-39 0 -63 24.5t-24 55.5q0 36 34 64q218 117 218 352q0 148 -115 259t-281 111q-162 0 -277 -110t-115 -260q0 -225 209 -352q38 -29 38 -64q0 -33 -23.5 -58.5t-63.5 -25.5q-26 0 -49 13 q-130 82 -210 219.5t-80 267.5z" />
<glyph unicode="&#x106f;" horiz-adv-x="2145" d="M114 492v25q0 329 217 512h33q66 0 78 -83q0 -41 -78 -122q-88 -146 -89 -317q0 -284 283 -356h90q150 0 279 145q66 91 65 217q0 209 -167 394q-5 30 -5 49q0 50 78 73h5q76 0 178 -205h11q152 217 411 217q294 0 461 -278q62 -114 62 -212v-72q0 -61 -33 -183 q11 -17 11 -33v-995q0 -84 -99 -84h-212q-99 0 -100 84v5q0 78 61 78h183v751q-152 -117 -289 -116h-56q-166 0 -166 88v17q0 71 67 71h11q100 -15 127 -16q155 0 290 188q45 82 45 145v57q0 200 -240 317q-52 15 -95 15h-44q-215 0 -318 -250q-12 -71 -21 -222 q-65 -222 -189 -300q-151 -111 -333 -110q-308 0 -468 281q-44 111 -44 225z" />
<glyph unicode="&#x1070;" horiz-adv-x="2131" d="M84 814v33q0 119 198 164q20 5 50 5q150 0 230 -162q5 -31 5 -51v-51q0 -105 -150 -202q-154 -48 -154 -118v-56q0 -111 232 -219q52 -16 94 -17h40q212 0 320 253q23 54 23 112v29q0 225 -191 348q-24 45 -23 61q16 78 73 78h11q95 0 224 -196q80 -129 80 -399 q45 -166 179 -247q88 -39 153 -39h38q196 0 314 231q23 65 22 111v23q0 265 -298 359q-43 0 -76 5q-46 -15 -85 -15h-23q-62 0 -62 73v16q-1 90 151 90h73q209 0 399 -236q90 -125 90 -297q0 -118 -45 -213l6 -58v-964q0 -101 -101 -102h-214q-100 0 -100 85v17q10 68 61 67 h184v747q-133 -108 -285 -108h-68q-215 0 -393 225l-5 22q-132 -161 -162 -161q-113 -86 -259 -86h-51q-289 0 -458 297q-35 116 -35 158q0 174 173 242q135 55 135 124q0 41 -106 67q-49 0 -56 -73q-18 -40 -72 -40q-86 6 -86 68z" />
<glyph unicode="&#x1071;" d="M-1197 1475q0 95 67.5 160.5t161.5 65.5q93 0 159 -67t66 -159q0 -91 -65.5 -157.5t-159.5 -66.5t-161.5 64t-67.5 160zM-1046 1473q0 -77 79 -77t79 77q0 78 -79 77q-79 0 -79 -77zM-640 1475q0 95 67 160.5t163 65.5q92 0 157.5 -67t65.5 -159q0 -91 -65 -157.5 t-158 -66.5q-96 0 -163 64t-67 160zM-493 1474q0 -79 83 -79q79 0 79 79t-79 78q-83 0 -83 -78z" />
<glyph unicode="&#x1072;" d="M-973 1494q0 164 115.5 281.5t285.5 117.5q164 0 281 -118q57 -58 88 -131l-151 -59q-15 43 -50 78q-71 70 -168 70q-101 0 -170 -71t-69 -168q0 -99 68.5 -171.5t170.5 -72.5q97 0 168 75q35 34 50 75l149 -63q-32 -71 -86 -129q-118 -118 -281 -117q-170 0 -285.5 119 t-115.5 284z" />
<glyph unicode="&#x1073;" d="M-1335 1167l624 523l629 -523l-97 -112l-532 439l-527 -439z" />
<glyph unicode="&#x1074;" horiz-adv-x="2" d="M-1345 1579l96 111l529 -440l531 440l96 -111l-627 -524z" />
<glyph unicode="&#x1075;" horiz-adv-x="1294" d="M101 189q0 92 80 90q86 -4 86 -90q0 -22 34 -30q41 -4 81 13t40 54q-16 65 -146 127q-70 29 -108 63q-82 58 -65 220q5 17 9 34q47 156 197.5 266t316.5 107q231 -3 394 -160t163 -381q0 -330 -274 -496q-25 -12 -45 -12q-82 0 -82 83q8 47 37 63q197 125 197 362 q-4 156 -114.5 269.5t-275.5 109.5q-110 -6 -223.5 -76.5t-139.5 -166.5v-55q15 -44 31 -59.5t44 -27.5q80 -29 122 -53q120 -88 123 -209q5 -94 -70.5 -166t-170.5 -70q-90 4 -166.5 60t-74.5 131z" />
<glyph unicode="&#x1076;" horiz-adv-x="1256" d="M88 842q5 81 63 145.5t142 62.5q91 -2 89 -70q-3 -76 -89 -76q-30 0 -35 -27q-4 -35 15.5 -66t58.5 -31q62 4 128 120q25 59 63 97q32 32 58 40.5t57 8.5q196 -13 335 -139q2 -3 7 -3q158 -151 166 -376q8 -146 -59 -270t-195 -185q-37 -24 -75 -39q-93 -40 -199 -40 q-254 -4 -422 163q-28 31 -50 61q-40 58 -40 107q0 38 18 51q148 143 322 141q66 0 139 -19q198 -56 281 -242q126 118 114 263q-14 162 -121 265q-86 75 -116 88q-39 10 -66 16t-39 -5q-17 -10 -31 -35q-30 -68 -56 -99q-90 -104 -217 -109q-92 -4 -170 60t-76 142z M293 299l32 -34q121 -115 291 -111q50 0 103 16q-63 183 -266 183q-88 0 -160 -54z" />
<glyph unicode="&#x1077;" horiz-adv-x="1294" d="M80 172q2 91 74 90q75 -2 74 -90q0 -28 30 -38q37 -4 69.5 17t32.5 58q-7 66 -126 127q-61 34 -98 65q-35 32 -43.5 61.5t-8.5 56.5q13 203 140 341q4 2 6 4q158 161 393 170q151 6 280 -62t192 -199q26 -27 38 -73q46 -93 46 -200q2 -254 -174 -423q-29 -32 -64 -49 q-58 -43 -107 -43q-42 0 -52 21q-157 147 -151 325q0 61 22 136q57 205 251 282q-122 128 -278 115q-159 -11 -271 -121q-77 -83 -90 -117t-17 -64t4 -43q11 -15 37 -27q72 -37 105 -61q108 -91 112 -216q8 -93 -60 -171.5t-151 -77.5q-80 6 -148 63t-67 143zM807 332 q0 -86 53 -160l32 33q120 122 117 295q0 49 -12 101q-190 -60 -190 -269z" />
<glyph unicode="&#x1078;" horiz-adv-x="2215" d="M88 519q0 213 166 376q157 155 384 155q295 0 464 -253q157 247 451 246q243 0 397 -149t154 -373q0 -220 -163 -377t-388 -157q-236 0 -394.5 177.5t-137.5 404.5q-18 114 -117 213q-111 105 -266 106q-156 0 -269 -107t-113 -262q0 -150 118 -261q122 -120 307 -104 q36 1 55 3h18q80 -18 80 -64q0 -36 -13.5 -66.5t-77.5 -34.5l-52 -2q-262 -19 -437 154q-166 161 -166 375zM1189 472q14 -134 121 -226t243 -92q155 0 269 108t114 259q0 158 -106.5 258t-276.5 100q-136 0 -240.5 -88.5t-123.5 -217.5q-2 -52 0 -101z" />
<glyph unicode="&#x1079;" horiz-adv-x="2102" d="M88 506v11q0 11 3 26q12 189 151 331q148 152 361 152q280 0 437 -248q148 245 427 245q226 0 372 -147.5t146 -367.5q0 -217 -153 -374.5t-365 -157.5q-221 0 -371.5 176.5t-131.5 400.5q-18 114 -109 211q-104 104 -252 104q-143 0 -254 -108q-93 -96 -103 -225h4 l-4 -7v-22v-14q0 -13 4 -31v-4q105 49 205 49q78 0 136 -34q223 -110 253 -338q16 -78 -30 -104q-13 -9 -32 -15q-95 -31 -174 -30q-41 0 -91 7q-109 14 -206 83q-1 2 -3 4q-123 89 -176 216q-44 95 -44 211zM308 305q9 -18 24 -36q8 -11 17 -19q39 -35 90 -67 q87 -41 168 -41q37 0 71 9q-36 119 -152 176q-35 15 -83 15q-59 0 -135 -37zM1122 460q15 -133 116 -225.5t229 -92.5q147 0 252.5 107t105.5 259q0 154 -99.5 253t-258.5 99q-128 0 -226.5 -86.5t-118.5 -216.5q-2 -49 0 -97z" />
<glyph unicode="&#x107a;" horiz-adv-x="2262" d="M93 510q0 230 166 390.5t387 160.5q220 0 394 -166q114 -111 153 -296q4 -7 4 -8q2 -28 3.5 -45.5t3.5 -32.5t2 -37q11 -136 111 -232q116 -114 272 -114q157 0 271.5 109.5t114.5 270.5q0 157 -114.5 270.5t-265.5 113.5q-55 0 -77 -13t-44 -13q-84 0 -84 91q0 52 60 76 t139 24q222 0 396 -164q158 -157 157 -385q0 -225 -163 -386t-390 -161q-134 0 -266 69q-65 37 -117 86v-813h127q88 0 88 -85q0 -82 -88 -82h-215q-84 0 -84 87v1240v11v8q-2 26 -2 53q-18 148 -112 243q-117 115 -274 115q-153 0 -268 -109.5t-115 -275.5q0 -157 113 -262 q118 -118 262 -118q59 0 82 12.5t44 12.5q82 0 82 -86q0 -58 -62 -79.5t-142 -21.5q-217 0 -388 160q-161 157 -161 382z" />
<glyph unicode="&#x107b;" horiz-adv-x="2102" d="M88 514q0 216 145.5 363.5t369.5 147.5q278 0 426 -245q156 249 436 249q216 0 360 -152q139 -144 152 -338q4 -5 4 -9v-18q0 -118 -48 -219q-42 -88 -117 -161l-27 -26l-4 -3q-5 -6 -10 -8q-6 -4 -13 -9l-4 -4q-95 -69 -209 -82q-47 -10 -89 -10q-74 0 -172 36 q-15 2 -30 11q-45 25 -30 105q31 227 251 336q63 34 141 34q96 0 202 -49v4q0 13 1 31v14q0 7 -1 23v4q-9 131 -103 223q-104 106 -254 106q-144 0 -250 -100q-93 -96 -108 -213q17 -221 -132.5 -394.5t-371.5 -173.5q-211 0 -363 154t-152 373zM250 514q0 -152 105.5 -260 t247.5 -108q129 0 230.5 93t115.5 226q2 47 0 94q-20 130 -118.5 216.5t-227.5 86.5q-158 0 -255.5 -99t-97.5 -249zM1393 159q33 -12 67 -13q86 0 168 45q51 27 88 63l23 22q7 9 9 13q4 4 5 12l7 10q-76 38 -136 38q-43 0 -78 -17q-119 -55 -153 -173z" />
<glyph unicode="&#x107c;" horiz-adv-x="2127" d="M111 391v22q0 63 208 158q78 22 136 22q303 0 439 -292h5q68 105 68 185v46q0 196 -225 309q-58 23 -131 22h-27q-178 0 -317 -203q-19 -10 -49 -10q-72 16 -85 84v11q39 125 220 231q107 57 231 57h40q260 0 422 -231h11q156 231 422 231h46q260 0 438 -260l5 -28v-6 q0 -77 -95 -89q-41 0 -107 102q-125 112 -247 111h-40q-185 0 -304 -190q-40 -78 -40 -154v-21q0 -109 73 -197q133 292 441 292q196 0 342 -169v-39q0 -251 -331 -388q-79 -17 -131 -17h-61q-231 0 -417 237h-5q-170 -238 -411 -237h-63q-288 0 -444 299q-17 50 -17 112z M274 340q150 -191 298 -192h45q46 0 142 29q-28 110 -119 192q-62 39 -193 61q-79 0 -173 -84v-6zM1349 177q74 -29 147 -29h23q170 0 304 198v10q-99 74 -163 74q-121 0 -238 -101q-73 -98 -73 -152z" />
<glyph unicode="&#x107d;" horiz-adv-x="2246" d="M132 834q-2 80 75.5 135.5t171.5 62.5q93 0 171 -73.5t71 -166.5q-4 -120 -127 -209q-45 -24 -124 -60q-25 -11 -42 -24t-29 -64v-51q20 -102 137 -173t228 -77q166 -2 279 116q78 79 105 181q9 45 9 99q16 210 171 355q151 147 389 147q220 0 360 -144q15 -15 61 -67 l37 -50l14 -9q15 -26 15 -54q0 -82 -88 -82q-12 0 -45 16q-24 15 -29 34q-93 111 -137 138q-76 54 -188 56q-162 2 -272.5 -105.5t-116.5 -262.5q-8 -37 0 -73q18 -100 107 -187l4 -8q80 189 281 242q74 24 136 24q175 2 328 -147q13 -13 13 -52q0 -45 -36 -105 q-17 -24 -45 -52q-144 -179 -420 -179q-56 0 -118 20q-47 7 -90 25q-43 17 -75 37q-114 57 -180 168l-5 -8l-6 -9q-25 -32 -59 -66q-163 -162 -399 -164q-170 -2 -322.5 109.5t-203.5 273.5q0 9 -4 35q-16 161 67 217q38 41 109 71q133 60 145 120q0 40 -38 59t-81 15 q-35 -9 -35 -34q0 -85 -88 -88q-79 -1 -81 88zM1486 148q52 -16 103 -16q175 -2 293 118h2q4 4 7 8q4 5 16 9l4 12q-74 52 -159 52q-204 0 -266 -183z" />
<glyph unicode="&#x107e;" horiz-adv-x="2263" d="M111 470v11q0 145 221 229q100 56 100 104v5q0 54 -95 62h-33q-16 -2 -39 -89q-26 -28 -83 -28h-10q-61 0 -61 77v28q0 134 233 178h55q108 0 193 -150q12 -38 12 -67q0 -219 -277 -304q-49 -48 -49 -83v-33q0 -139 264 -249q49 -16 111 -17h23q228 0 353 272 q25 176 39 237q0 98 182 283q158 116 361 116h6q259 0 419 -199q78 -90 78 -138q0 -78 -116 -78q-12 1 -107 116q-115 128 -274 128h-68q-165 0 -287 -210q-44 -80 -44 -195q0 -110 116 -221h5q45 119 188 205q138 55 250 55q170 0 325 -165l6 -40q0 -116 -211 -265 q-127 -73 -242 -73h-5q-165 0 -302 61v-6q-230 -818 -252 -845q-30 -17 -55 -18h-22q-22 15 -277 96q-45 23 -45 70q0 79 72 95h5q48 0 205 -61l219 762q14 -20 -75 91h-6q-157 -245 -525 -245q-176 0 -381 216q-100 106 -100 282zM1488 161q52 -22 105 -22q178 0 317 146 q-52 47 -133 47h-89q-111 0 -194 -149z" />
<glyph unicode="&#x107f;" horiz-adv-x="1262" d="M88 517q0 308 263 481q25 23 60 23q29 0 56 -21q143 -140 143 -316q0 -61 -18 -130q-59 -193 -258 -265q108 -141 287 -142q153 0 260 110.5t107 259.5q0 231 -194 352q-34 26 -34 66q0 33 22.5 59.5t54.5 26.5q26 0 46 -15q129 -83 198 -218t69 -271q0 -213 -156.5 -370 t-372.5 -157q-224 0 -378.5 157t-154.5 370zM254 517q0 -38 8 -80q80 23 126 79q58 69 58 162q0 85 -48 156q-144 -129 -144 -317z" />
<glyph unicode="&#x1080;" horiz-adv-x="2120" d="M88 728q0 27 18 50l20 29l40 52q30 36 66 64q132 121 339 120q84 0 161 -18l4 -2q132 -33 233 -121q150 -140 149 -347v-14v-4q0 -169 106 -274q112 -110 264 -109q152 0 261 107t109 260q0 160 -109.5 266.5t-250.5 106.5q-55 0 -85 -15q-20 -6 -39 -7q-80 0 -80 87 q0 56 59 75q57 15 141 16q213 0 375 -155q154 -155 153 -374q0 -218 -157.5 -371.5t-376.5 -153.5q-215 0 -379 155q-38 37 -67 89q-67 -108 -176 -161q-35 -28 -75 -38q-35 -13 -76 -28q-4 0 -4 -2h-16q-55 -15 -112 -15q-261 0 -404 172q-31 27 -49 54q-37 62 -37 103 q0 38 19 54q148 142 317 142q62 0 134 -19q195 -56 274 -240l7 3q87 88 105 192q3 33 2 64q-11 158 -120 259q-40 41 -82 66q-75 33 -166 33q-77 0 -183 -52q-33 -12 -55 -26q-35 -33 -82 -88q-7 -13 -15 -26q-6 -13 -26 -28q-37 -15 -49 -15q-85 2 -85 84zM279 303l6 -6 l14 -11l2 -7l7 -7q117 -114 286 -111q48 0 99 14q-57 178 -260 178q-84 0 -154 -50z" />
<glyph unicode="&#x1081;" horiz-adv-x="1299" d="M17 -678q14 90 68 90h29q25 0 185 -57q203 604 203 613h-5q-191 69 -293 226q-100 156 -101 321v4q0 358 360 507q69 23 163 29q255 0 450 -237q102 -161 103 -354q0 -177 -114 -338q-37 -11 -50 -11q-63 0 -85 96q0 17 67 151q17 71 18 118q0 232 -215 361 q-81 44 -174 44q-213 0 -321 -212q-17 -40 -17 -63h35q285 0 399 -315q16 -41 16 -113v-10q-10 -104 -106 -355q-198 -616 -213 -654q-19 -10 -35 -10l-38 10q-322 87 -321 118l-8 35v6zM285 430q15 -99 134 -224q113 -74 139 -74l11 16v40q0 169 -191 242q-9 6 -27 6h-66 v-6z" />
<glyph unicode="&#x1082;" d="M-986 -440q0 81 30 153t84.5 125.5t125 86t134.5 32.5l2 -155q-34 0 -78 -19.5t-77.5 -53t-54 -79t-20.5 -96.5t20.5 -96.5t54 -78.5t77.5 -53t99 -20q48 0 93.5 20t81 53t54.5 78q12 32 16 73h149q-6 -70 -29 -126q-32 -74 -87 -127t-127 -85t-154 -32q-84 0 -154.5 32 t-125 85t-84.5 125.5t-30 157.5z" />
<glyph unicode="&#x1083;" horiz-adv-x="501" d="M-34 926q0 79 83 79h211q82 0 82 -79v-1607h123q84 0 84 -85q0 -78 -84 -78h-209q-81 0 -81 82v1604h-126q-83 0 -83 84z" />
<glyph unicode="&#x1084;" horiz-adv-x="1167" d="M88 310q0 114 99 198q-99 78 -99 200q0 27 5 61q56 267 454 269q386 -9 493 -272q11 -61 -43 -85q-86 -26 -118 53q-82 128 -332 143q-261 0 -293 -147q-19 -112 132 -134h2h10h283q83 0 83 -80q0 -85 -83 -85h-283q-2 0 -14 2q-150 -43 -130 -140q25 -142 293 -142 q224 -4 332 150q41 70 121 39q51 -37 36 -96q-154 -259 -489 -254q-398 6 -454 270q-5 26 -5 50z" />
<glyph unicode="&#x1085;" d="M-905 1370q0 90 74 159q-74 62 -74 163q0 23 2 50q43 220 339 222q288 -10 370 -225q10 -47 -32 -66q-61 -20 -89 41q-59 105 -249 119q-193 0 -217 -121q-14 -88 99 -109h7h211q63 0 64 -68q0 -70 -64 -70h-211q-3 0 -9 2q-112 -34 -97 -114q18 -115 217 -115 q171 -2 249 125q31 56 94 30q38 -29 25 -78q-116 -210 -368 -206q-296 2 -339 220q-2 17 -2 41z" />
<glyph unicode="&#x1086;" d="M-825 1005q47 57 134 181l105 192l51 139h-27h-32q-93 4 -157 65q-60 57 -66 120q-8 28 -8 60q0 103 73.5 175t189.5 72q108 0 186.5 -71.5t78.5 -175.5q0 -56 -25 -170t-97.5 -219.5t-201.5 -213t-204 -154.5zM-678 1762q0 -41 35.5 -74t80.5 -33q47 0 77 33t30 74 q0 45 -30 75.5t-77 30.5q-45 0 -80.5 -30.5t-35.5 -75.5z" />
<glyph unicode="&#x1087;" horiz-adv-x="618" d="M73 194q0 91 61 154t153 63q90 0 152.5 -63t62.5 -154q0 -45 -20 -147t-80 -191t-165.5 -183.5t-163.5 -135.5q36 47 108 159l86 165l42 122h-22h-24q-76 4 -132 55q-48 48 -52 106q-6 22 -6 50zM216 194q0 -34 19.5 -53.5t51.5 -19.5q30 0 49 19.5t19 53.5q0 28 -19 49 t-49 21q-32 0 -51.5 -21.5t-19.5 -48.5z" />
<glyph unicode="&#x1088;" horiz-adv-x="653" d="M73 194q0 91 61 154t153 63q90 0 152.5 -63t62.5 -154q0 -45 -20 -147t-80 -191t-165.5 -183.5t-163.5 -135.5q36 47 108 159l86 165l42 122h-22h-24q-76 4 -132 55q-48 48 -52 106q-6 22 -6 50zM97 831q0 86 59.5 147t146.5 61q85 0 146 -61t61 -147q0 -85 -61 -145 t-146 -60q-87 0 -146.5 60t-59.5 145zM216 194q0 -34 19.5 -53.5t51.5 -19.5q30 0 49 19.5t19 53.5q0 28 -19 49t-49 21q-32 0 -51.5 -21.5t-19.5 -48.5zM237 828q0 -34 19 -53t52 -19q28 0 48 19.5t20 52.5q0 29 -20 50.5t-48 21.5q-33 0 -52 -21.5t-19 -50.5z" />
<glyph unicode="&#x1089;" horiz-adv-x="602" d="M97 207q0 86 59.5 146.5t146.5 60.5q85 0 146 -60.5t61 -146.5q0 -85 -61 -145.5t-146 -60.5q-87 0 -146.5 60.5t-59.5 145.5zM237 214q0 -34 19 -53.5t52 -19.5q28 0 48 19.5t20 53.5q0 28 -20 50t-48 22q-33 0 -52 -22t-19 -50z" />
<glyph unicode="&#x108a;" horiz-adv-x="1032" d="M82 210q0 90 63 153t145 63q28 0 49 -6q61 -16 107 -56q51 -53 54 -124q4 -10 4 -30v-20l111 42q42 7 161 82q106 73 155 112q-40 -62 -130 -165t-177 -161t-187.5 -78t-146.5 -20q-82 0 -145 61.5t-63 146.5zM82 803q0 94 63 154.5t145 60.5q28 0 49 -4q61 -12 107 -61 q51 -49 54 -118q4 -11 4 -32v-16l111 40q42 7 161 80q106 72 155 111q-40 -58 -130 -163t-177 -161t-187.5 -76t-146.5 -20q-82 0 -145 62t-63 143zM225 210q0 -29 19.5 -49t49.5 -20q32 0 53 20t21 49q0 30 -21 52.5t-53 22.5q-30 0 -49.5 -22.5t-19.5 -52.5zM225 801 q0 -30 19.5 -50t49.5 -20q32 0 53 20t21 50q0 34 -21 56t-53 22q-30 0 -49.5 -22t-19.5 -56z" />
<glyph unicode="&#x108b;" horiz-adv-x="608" d="M95 522q0 86 61 144.5t141 58.5q88 0 149 -58.5t61 -144.5q0 -87 -61 -147t-149 -60q-80 0 -141 60t-61 147zM237 516q0 -34 19 -53.5t52 -19.5q28 0 48 19.5t20 53.5q0 28 -20 49.5t-48 21.5q-33 0 -52 -21.5t-19 -49.5z" />
<glyph unicode="&#x108c;" horiz-adv-x="1169" d="M95 493q0 82 59.5 143.5t144.5 61.5q88 0 148 -62t60 -143q0 -86 -60 -146.5t-148 -60.5q-85 0 -144.5 60.5t-59.5 146.5zM233 487q0 -30 20.5 -50.5t52.5 -20.5t52.5 20.5t20.5 50.5q0 31 -20.5 51.5t-52.5 20.5t-52.5 -20.5t-20.5 -51.5zM632 493q0 82 60.5 143.5 t143.5 61.5q87 0 146.5 -62t59.5 -143q0 -86 -59.5 -146.5t-146.5 -60.5q-83 0 -143.5 60.5t-60.5 146.5zM766 487q0 -30 20 -50.5t51 -20.5q33 0 53.5 20.5t20.5 50.5q0 31 -21 51.5t-53 20.5q-31 0 -51 -20.5t-20 -51.5z" />
<glyph unicode="&#x108d;" d="M-1136 -128h1006v-151h-1006v151z" />
<glyph unicode="&#x108e;" horiz-adv-x="1258" d="M101 500q0 217 151 368q154 157 369 157q221 0 374 -155q157 -154 157 -370q0 -214 -157 -368q-154 -153 -374 -152q-220 0 -371 150q-148 152 -149 370zM262 500q0 -151 103 -254q105 -103 256 -104q153 0 258 106q110 108 109 252q0 79 -36 155q-127 -147 -334 -147 q-201 0 -321 142q-35 -71 -35 -150zM401 784q77 -115 217 -114q143 0 230 116q-101 80 -227 80q-103 0 -220 -80v-2z" />
<glyph unicode="&#x108f;" horiz-adv-x="590" d="M79 209q0 85 61.5 144.5t146.5 59.5q88 0 147 -59.5t59 -144.5q0 -27 -7 -51q-8 -51 -51 -97q-54 -50 -123 -54h-25h-22l43 -116q4 -41 81 -157q67 -105 104 -151q-57 40 -159.5 126.5t-159 174.5t-76 184.5t-19.5 140.5zM92 825q0 86 59.5 147t146.5 61q85 0 146 -61 t61 -147q0 -85 -61 -145t-146 -60q-87 0 -146.5 60t-59.5 145zM225 214q0 -34 19.5 -53.5t52.5 -19.5q30 0 49.5 19.5t19.5 53.5q0 28 -19.5 50t-49.5 22q-33 0 -52.5 -22t-19.5 -50zM231 828q0 -34 19.5 -53t52.5 -19q29 0 48.5 19.5t19.5 52.5q0 29 -19.5 50.5t-48.5 21.5 q-33 0 -52.5 -21.5t-19.5 -50.5z" />
<glyph unicode="&#x1090;" horiz-adv-x="1370" d="M112 811q0 164 46.5 318t120.5 271q80 111 188 181t218 70q228 0 396 -251q84 -121 129.5 -268.5t45.5 -320.5q0 -175 -45.5 -323t-129.5 -268q-168 -241 -396 -240q-120 0 -222.5 59.5t-183.5 180.5q-167 243 -167 591zM308 811q0 -137 25 -258.5t85 -216.5v2 q109 -194 267 -194q79 0 143 50t119 142q61 97 86.5 217.5t25.5 257.5q0 130 -29.5 250t-84.5 214q-53 99 -120 154t-140 55q-77 0 -146 -55t-119 -154q-52 -94 -82 -214t-30 -250z" />
<glyph unicode="&#x1091;" horiz-adv-x="909" d="M112 1458q0 26 26 50h-2l385 122q42 -6 68.5 -23.5t26.5 -53.5v-1323l86 80h26q30 -13 50.5 -38.5t20.5 -64.5v2l-11 -52l-215 -149q-11 -16 -47 -16q-87 0 -87 103v1324l-238 -70q-89 10 -89 109z" />
<glyph unicode="&#x1092;" horiz-adv-x="1260" d="M112 1523q0 47 39 78q6 6 19 7.5t25 8.5l45 -10l73 -136q146 168 363 168q102 0 185.5 -27t152.5 -79q136 -108 136 -309q0 -76 -47.5 -177.5t-122.5 -200.5l-504 -639l120 33q16 -1 35 -10.5t31 -26.5q14 -19 22.5 -39t8.5 -36q0 -27 -23.5 -44t-66.5 -31l-336 -61 q-45 4 -68.5 18t-23.5 43q14 46 24 67.5t19 30.5l47 66q36 45 117 144.5t226 284.5l193 246q61 83 108 171.5t47 142.5q0 282 -286 282q-47 0 -93.5 -19.5t-80.5 -58.5q-76 -83 -76 -176q0 -71 37 -127v2q12 -26 -8 -48h4l-44 -32l-33 -9q-51 5 -94 122q-38 88 -81.5 181.5 t-84.5 182.5z" />
<glyph unicode="&#x1093;" horiz-adv-x="1233" d="M59 75l23 59l626 1362l-155 -71q-96 7 -96 76q0 39 31 51t74 25l278 62q35 -5 60.5 -18.5t30.5 -37.5l-279 -603q55 0 103 -45t87 -121q62 -159 105 -266t74 -184t50.5 -132t40.5 -104q4 -19 5 -30.5t5 -18.5q0 -42 -25.5 -56.5t-58.5 -20.5q-60 0 -91 57l-144 382 q-143 373 -200 373q-12 0 -46 -41l-339 -728q-33 -75 -106 -55q-67 12 -53 87v-2z" />
<glyph unicode="&#x1094;" horiz-adv-x="1260" d="M126 84l256 1352l94 149q19 19 34.5 34t30.5 20q18 4 32.5 -8.5t18.5 -34.5l20 -86l96 -300v3q36 -106 56 -184t30 -125q20 -73 41.5 -150.5t38.5 -150.5l92 -345l32 98q25 61 58 103.5t62 29.5q16 -3 30.5 -14.5t22.5 -25.5q19 -31 10 -67q-17 -48 -40 -101t-39 -100 l-70 -144q-24 -45 -73 -45q-85 0 -102 51l-295 1114h-36l-95 -348l-75 -382l-59 -252v2l-21 -63l-18 -51q-30 -61 -71 -61l-39 6q-37 31 -22 76z" />
<glyph unicode="&#x1095;" horiz-adv-x="1316" d="M112 480q0 71 23.5 143t62.5 139q35 45 84.5 77.5t100 56.5t97 39.5t77.5 23.5q69 20 146 41t156 38v606q50 -37 85.5 -66t87.5 -59v-448q37 8 93 19.5t102 18.5q34 -40 56.5 -64t36 -38.5t21.5 -21.5t16 -12l-314 -71q0 -183 -1.5 -308t-8.5 -205.5t-16 -124t-22 -66.5 q-19 -41 -60 -76.5t-92 -61.5t-105.5 -43t-104.5 -17q-42 0 -89.5 5.5t-97.5 24.5h3q-45 13 -83.5 35.5t-70.5 43.5q-94 89 -138.5 181t-44.5 190zM285 388q2 -46 36 -87t95 -84q44 -28 95.5 -44t96.5 -16q38 0 82 11t72 35q23 14 72 84v4q27 31 31.5 89.5t4.5 117.5l-8 350 q-106 -25 -172.5 -39.5t-103.5 -25t-55.5 -14t-28.5 -7.5q-41 -15 -77.5 -38.5t-62.5 -45.5q-54 -73 -72 -144t-5 -146z" />
<glyph unicode="&#x1096;" horiz-adv-x="1199" d="M112 1161q0 101 44.5 194.5t138.5 177.5q32 20 70 44t84 40h-3q49 15 97 21t90 6q50 0 104.5 -14.5t105.5 -42t92 -63.5t60 -75q13 -26 22 -69t16 -124.5t8.5 -204.5t1.5 -308l314 -69q-8 -10 -16 -17t-21.5 -20.5t-36 -37.5t-56.5 -62q-46 6 -102 17t-93 19v-447 q-52 -31 -87.5 -59t-85.5 -67v605q-79 17 -156 37t-146 43q-31 8 -77.5 23.5t-97 40t-100.5 58t-84 78.5q-39 62 -62.5 135t-23.5 141zM285 1256q-12 -76 5.5 -147t71.5 -140q26 -26 62.5 -48.5t77.5 -35.5q10 -6 28.5 -10.5t55.5 -14t103.5 -24.5t172.5 -39l8 351 q0 56 -5 116.5t-31 92.5v2q-49 72 -72 84q-28 19 -72 32t-82 13q-45 0 -96.5 -16.5t-95.5 -40.5q-60 -46 -94.5 -87.5t-36.5 -87.5z" />
<glyph unicode="&#x1097;" horiz-adv-x="1242" d="M86 1555q0 79 95 79h888q73 0 81 -45l-12 -49l-20 -52h4l-752 -1329h705q40 -4 63 -20.5t23 -56.5q-5 -52 -29.5 -66t-56.5 -18h-880q-75 -6 -75 59q0 29 35 79l302 526q113 196 235 407.5t239 414.5h-750q-95 0 -95 71z" />
<glyph unicode="&#x1098;" horiz-adv-x="1202" d="M75 474q0 60 42 147t113 196q32 43 89 120t148 185l-45 63q-86 111 -168 228.5t-179 225.5h236l277 -376l280 376h223q-56 -62 -148 -186t-241 -329l286 -355q52 -69 83 -142.5t31 -152.5q0 -216 -146 -344q-142 -132 -368 -132q-231 0 -373 130q-73 63 -106.5 147.5 t-33.5 198.5zM260 512q0 -157 85 -268q41 -49 103 -78.5t140 -29.5q68 0 130 27.5t111 80.5q84 103 84 252q0 43 -45 117t-117 160l-163 191l-168 -191q-80 -88 -120 -157t-40 -104z" />
<glyph unicode="&#x1099;" horiz-adv-x="1235" d="M106 1154q0 119 36.5 205t107.5 149q72 69 165 104t211 35q225 0 372 -143q144 -127 144 -350q0 -162 -169 -366l-228 -272q121 -161 192.5 -258t111.5 -149.5t58.5 -75t34.5 -35.5h-237l-279 370q-67 -89 -137.5 -185.5t-139.5 -184.5h-235l392 516q-135 162 -218 271.5 t-115 161.5v-2q-67 120 -67 209zM297 1128q0 -38 42.5 -105t121.5 -157l165 -192q96 111 160.5 191t103 133.5t51.5 87t13 52.5q0 155 -86 257q-45 50 -105.5 74.5t-136.5 24.5q-161 0 -244 -104q-85 -95 -85 -262z" />
<glyph unicode="&#x109a;" horiz-adv-x="675" d="M112 788q0 96 68 162t156 66q93 0 160 -66t67 -162q0 -91 -67 -157t-160 -66q-88 0 -156 66t-68 157zM265 788q0 -34 20 -53t52 -19q30 0 49.5 19.5t19.5 52.5q0 28 -19.5 50t-49.5 22q-32 0 -52 -22t-20 -50z" />
<glyph unicode="&#x109b;" horiz-adv-x="640" d="M112 440q37 46 105 149l84 162l40 118h-20h-26q-73 2 -123 58q-47 45 -53 97q-7 25 -7 51q0 88 59 147.5t150 59.5q86 0 148.5 -59.5t62.5 -147.5q0 -47 -19.5 -143.5t-78 -186t-160.5 -177.5t-162 -128zM246 1071q0 -34 20 -54t51 -20q30 0 49.5 20t19.5 54 q0 27 -19.5 49t-49.5 22q-32 0 -51.5 -22t-19.5 -49z" />
<glyph unicode="&#x109c;" horiz-adv-x="1015" d="M112 209q0 82 61 142t142 60q44 0 141.5 -18.5t180.5 -73.5t172 -158.5t128 -158.5q-46 39 -150 109q-116 71 -157 77l-109 39v-18q0 -14 -4 -28q-1 -68 -50 -119q-44 -45 -103 -55q-26 -5 -49 -5q-81 0 -142 59.5t-61 147.5zM112 817q0 85 61 144t142 59q44 0 141.5 -19 t180.5 -75t172 -156t128 -160q-46 38 -150 109q-116 73 -157 78l-109 40v-20q0 -16 -4 -25q-1 -70 -50 -122q-44 -40 -103 -55q-26 -5 -49 -5q-81 0 -142 60.5t-61 146.5zM246 194q0 -34 20 -53.5t51 -19.5q30 0 49.5 19.5t19.5 53.5q0 28 -19.5 49t-49.5 21 q-32 0 -51.5 -21.5t-19.5 -48.5zM256 809q0 -35 19.5 -54.5t53.5 -19.5q28 0 47.5 19.5t19.5 54.5q0 28 -19.5 49.5t-47.5 21.5q-34 0 -53.5 -21.5t-19.5 -49.5z" />
<glyph unicode="&#x109d;" d="M-855 1620q0 57 24 106t62.5 85.5t91 57.5t110.5 21q59 0 112.5 -22t91.5 -62t62.5 -91.5t24.5 -113.5v-739h-144v202t1 164t1 163v200q-7 61 -48.5 101.5t-96.5 40.5q-51 0 -87.5 -32t-44.5 -79z" />
<glyph unicode="&#x109e;" horiz-adv-x="565" d="M45 1359q0 79 58 134.5t137 55.5q74 0 132.5 -55.5t58.5 -134.5q0 -84 -59 -142t-132 -58q-79 0 -137 58t-58 142zM69 926q0 79 82 79h209q81 0 81 -79v-1607h124q83 0 83 -85q0 -78 -83 -78h-209q-80 0 -80 82v1604h-125q-82 0 -82 84zM164 1353q0 -26 22.5 -52 t55.5 -26t52 26t19 52q0 28 -19.5 53t-51.5 25q-33 0 -55.5 -25.5t-22.5 -52.5z" />
<glyph unicode="&#x109f;" horiz-adv-x="1719" d="M112 474q0 228 160.5 389.5t377.5 161.5q212 0 386 -165q105 -110 147 -298v-3q14 -61 14 -132v-1039q0 -36 25 -75q18 -32 64 -41q47 4 73 41q19 39 19 75v1376q0 179 -126 297q-46 44 -247 216q-190 148 -191 351q0 128 99 239.5t261 111.5q226 0 351 -204 q17 -18 17 -43q0 -40 -27 -62.5t-68 -22.5q-39 0 -70 43q-78 126 -203 126q-72 0 -130 -57.5t-58 -130.5q12 -150 175 -262q221 -203 270 -257q120 -147 119 -345v-1376q0 -88 -56 -172q-71 -105 -208 -116q-134 10 -205 116q-56 84 -56 172v1039v79q-18 144 -112 234 q-113 120 -263 120q-151 0 -262.5 -110t-111.5 -276q0 -155 110 -261q114 -120 254 -120q59 0 81 12.5t45 12.5q80 0 80 -86q0 -57 -62 -79t-140 -22q-211 0 -377 160q-156 157 -155 383z" />
<glyph unicode="&#x1700;" horiz-adv-x="3691" d="M153 658q0 666 479 1164q215 197 336 254q382 217 785 217q732 0 1234 -541q264 -310 347 -627q66 -222 66 -446q0 -672 -487 -1172q-500 -462 -1148 -461q-453 0 -872 262q-96 59 -229 180q-167 164 -264 314q-248 416 -247 856zM315 675q0 -640 511 -1110 q255 -196 435 -249q245 -93 482 -93h56q409 0 811 265q198 148 330 326q115 159 167 298q115 270 115 526v77q0 361 -220 737q-88 144 -294 338q-428 343 -957 343q-208 -12 -340 -45q-207 -57 -390 -163q-132 -77 -301 -239q-405 -446 -405 -997v-14zM550 675 q0 487 362 866q177 163 292 212q273 140 532 140h72q326 0 648 -205q88 -54 226 -196q316 -355 316 -837q0 -463 -335 -830q-379 -381 -879 -381h-16q-542 0 -939 438q-280 351 -279 793zM782 126q388 -164 893 -164h75q597 0 1048 217q-125 502 -532 1015 q-218 258 -411 411q-98 77 -110 77q-263 -221 -438 -450q-332 -453 -440 -787q-82 -223 -85 -319zM1237 314v799h25q9 -1 9 -8v-553q0 -116 135 -201q32 -20 81 -33v-9h-216l-29 -3zM1245 106v155h49v-127q0 -25 26 -24q15 7 15 13v130q1 8 8 8h37q9 -3 67 -98q0 37 7 37h37 q8 -1 8 -9v-120q0 -10 -8 -11h-41q-23 25 -61 96h-6l6 -30q0 -41 -46 -66h-45q-28 0 -53 46zM1443 586v519q1 8 7 8h181q6 -1 6 -8v-504q0 -96 -88 -112h-16q-73 0 -90 97zM1447 216v37q1 8 7 8h37q8 -1 8 -8v-37q0 -7 -8 -7h-37q-7 0 -7 7zM1507 143v28q20 90 90 90h21 q57 0 86 -74l-8 -5h-33q-30 34 -53 34h-9q-48 -9 -49 -48v-12q0 -40 58 -50q22 0 53 32h33q8 -1 8 -8q-33 -70 -98 -70q-98 22 -99 83zM1597 309v9q121 36 184 127q33 57 33 112v183h4q35 -46 263 -426v-5h-484zM1704 175q31 86 86 86h24q90 -18 90 -86v-32q0 -59 -93 -83 h-13q-90 22 -90 92q-4 6 -4 23zM1753 143q17 -37 58 -37q48 12 49 50v12q-9 48 -49 48h-9q-27 0 -49 -37v-36zM1814 1105q2 8 9 8h244q9 -1 10 -8v-143l4 -41h176v184q1 8 9 8h15q8 -1 9 -8v-791l-5 -8q-28 3 -28 12v537q0 9 -9 9h-146q-26 -4 -25 -13v-175h-4 q-22 29 -259 429zM1914 71v182q1 8 7 8h70q66 0 90 -86v-30q0 -65 -103 -85h-57q-7 0 -7 11zM1962 106h16q47 0 62 57q-16 53 -53 53h-25v-110zM2085 163q19 98 90 98h19q90 -26 91 -86q-69 -31 -135 -49v-3q0 -11 33 -17q33 0 62 39h32q7 -1 8 -7q-30 -78 -102 -78 q-80 0 -98 103zM2134 171q65 29 86 29q-6 16 -28 16h-9q-38 0 -49 -41v-4zM2321 187v18q0 56 74 65q62 -16 63 -61l4 -9q0 -58 -73 -70q-68 12 -68 57zM2335 197q16 -51 48 -52h12q35 0 51 46q-9 61 -53 62h-4q-42 0 -54 -56zM2367 168v60q2 8 8 8h29q12 -2 13 -23l-9 -16 q8 -15 9 -34v-3h-5q-17 32 -23 31h-9v-23q0 -8 -8 -8zM2380 205h20l4 15l-9 4h-15v-19z" />
<glyph unicode="&#x1701;" horiz-adv-x="3288" d="M212 -551v2483q0 182 217 182h1107q11 -2 11 -13q-118 -75 -235 -192q-310 -318 -421 -734q-48 -209 -48 -325v-84q0 -761 657 -1288q263 -174 425 -216v-12h-1521q-193 0 -192 199zM1018 717l11 6q311 -244 313 -252q-114 -415 -127 -421q-198 353 -197 667zM1018 873 q0 222 162 573q262 473 758 668h926q211 0 211 -194v-283l-7 -11q-300 210 -636 210q-547 0 -891 -486q-134 -223 -162 -483h-350zM1276 -34q258 220 283 222q330 -475 890 -475q314 0 619 211l7 -13v-404q-49 -45 -283 -113q-188 -41 -360 -41q-613 0 -1077 497l-79 103v13 zM1391 387v342q2 12 12 12l6 -12v-246q0 -66 91 -96v-12h-97q-12 0 -12 12zM1397 279v78h12q12 0 17 -72h7l7 29v43h17l30 -36q0 7 6 7l-6 11v6q2 12 13 12q11 -2 11 -12v-73q0 -12 -11 -12h-7q-24 12 -24 37h-7q0 -27 -22 -37h-25q-8 0 -18 19zM1487 489v240q2 12 13 12h66 q10 -2 10 -12v-222q0 -33 -29 -47h-29q-8 0 -31 29zM1518 290v19q0 48 48 48q14 0 47 -29q0 30 42 29q19 0 48 -36v36h24q47 0 48 -36q28 37 54 36q25 0 43 -29v-7q0 -15 -54 -24v-12q20 0 42 18q12 -2 12 -13q-16 -30 -48 -30q-37 7 -37 30h-5q-32 -30 -55 -30h-12 q-12 0 -12 49h-6q0 -49 -48 -49q-36 7 -36 30h-12q0 -30 -42 -30q-23 0 -41 30zM1536 309q8 -25 17 -24h13q12 12 41 12v24l-12 -7q-28 18 -36 19q-19 -6 -23 -24zM1566 375v12q89 31 89 96v83h6q114 -171 114 -185l-12 -6h-197zM1631 303q0 -18 24 -18q11 5 17 5v38l-23 5 q-12 -5 -18 -5v-25zM1661 741h114v-71q3 -13 12 -14h73v79h12v-354h-12v246h-85v-78h-12zM1697 1265q163 253 464 361q145 41 228 41h115q275 0 559 -240l12 -17v-1270q-272 -259 -632 -259q-208 0 -385 96l-138 500l494 379l5 11h-601q-20 0 -121 398zM1721 290l12 -5h6 q9 0 18 18v11q0 8 -18 19h-6q-12 -1 -12 -12q6 -10 6 -24q-6 0 -6 -7zM1804 314q20 13 31 14v5h-11q-12 -5 -20 -5v-14zM1883 350v7q2 12 12 12h13q12 -1 12 -12q-12 0 -12 -18q-12 0 -13 18zM1908 328v5q2 12 12 12h5v-6q0 -11 -11 -11h-6z" />
<glyph unicode="&#x1702;" horiz-adv-x="3167" d="M203 461v118q0 234 136 542q63 143 258 368q4 0 76 67q403 350 940 350q415 0 804 -270q377 -282 516 -735q56 -243 56 -341v-80q0 -143 -72 -405q-196 -519 -606 -751q-168 -119 -467 -178q-110 -24 -193 -24h-125q-286 0 -648 194q-435 270 -611 766q-65 223 -64 379z M286 469q0 -218 106 -474q116 51 149 140q11 80 18 80q51 -80 107 -80h26q159 11 159 91v45q0 20 -18 38q-14 -12 -38 -60h-4q-5 0 -47 45l-37 -3q-83 0 -110 79q-7 26 -7 34q0 5 52 23q46 39 46 98q-11 116 -42 187q-45 36 -45 60v7q0 42 76 107q0 180 185 322 q157 83 312 83h7q241 0 322 -238q11 -26 23 -103q72 0 84 -87q-19 -76 -73 -76h-11l-19 4v-4q-11 -75 -11 -124v-35q0 -130 72 -148q11 0 11 -8q-16 -81 -65 -128q-52 -20 -75 -50h-4q-23 15 -41 15h-24l-27 -7l-3 7q87 191 87 399q-4 33 -4 83v15q0 19 -182 46q-66 7 -79 7 q-137 0 -277 -68q-63 -52 -64 -201q12 -125 83 -125q12 0 19 -4l-3 -27v-49q-16 -23 -50 -34v-4q148 -156 266 -156q91 0 196 103h4v-7q-15 -23 -56 -76v-45q0 -15 136 -46q33 -7 76 -11q76 0 152 64q11 0 22 -57q0 -16 -11 -53q98 -66 98 -110q3 -15 91 -110l4 -15 q29 40 57 72q-7 29 -8 53v4q9 76 27 76q47 -42 69 -42h18v4q0 51 -34 56q-38 -11 -80 -14q-69 0 -87 91h-15q-37 0 -42 56q-38 35 -38 54v30q-25 0 -60 49v8q49 78 49 133v14q-27 171 -27 194q0 111 122 216h3q17 -18 20 -19q29 27 147 27q0 3 31 15v7q-15 23 -38 23h-23 q-22 0 -91 -30q-15 24 -22 61v15q0 25 38 49h3q8 0 8 -35q38 38 49 38v4q-31 36 -31 65h-7q-7 -37 -34 -65h-4q-16 0 -46 87q-34 26 -34 73q11 49 12 68q-9 70 -23 95l7 4q102 -104 153 -126q0 4 3 4l-3 7l3 24q-20 50 -102 91v18q0 59 -50 96q0 11 42 11q9 0 38 -15v7 q-77 44 -91 64q-11 22 -22 111q-34 40 -61 67q7 4 12 4q132 0 181 -129q0 -9 64 -22q0 -4 46 -23q16 72 23 72q6 0 22 -57q24 -45 80 -83q27 -22 38 -72h4q0 11 3 27q-3 19 -3 38q7 34 15 33h8q8 -67 98 -171q42 -76 42 -140q15 0 34 80h4q7 -1 7 -7v-4q0 -4 -3 -4 q30 -159 49 -219q-8 -65 -19 -92q5 -1 15 -19q-7 -35 -7 -38q41 -44 41 -56q4 -15 4 -27q5 0 11 11q0 24 -7 65q0 33 45 67l8 -3l-4 -19v-19q0 -53 38 -95l4 -22q0 -25 -46 -76q11 -69 11 -118q0 -61 -11 -121l38 34q8 0 27 -167q-19 -114 -91 -113v-9q28 -49 64 -49 q23 26 23 49h12q11 -136 38 -136q56 -38 56 -60h8q11 53 19 53l80 -125q7 17 15 19q7 -9 7 -19q69 123 102 326q23 89 23 227q0 571 -451 990q-391 318 -857 319q-388 0 -732 -225q-311 -224 -439 -500q-137 -291 -137 -535v-94zM582 116q0 -161 99 -201q29 -24 121 -38 q41 -103 102 -136q37 -23 182 -57q102 -38 110 -68h4q67 72 208 159q31 55 46 125q66 7 125 46q49 58 49 94v38q-7 0 -18 -56q-46 -87 -129 -88h-46q-37 -113 -92 -155q-132 -98 -158 -98q-93 61 -178 71q-135 39 -174 114q-8 42 -35 42q-102 0 -170 91q-38 86 -38 121h-8 v-4zM628 389q0 -37 79 -64q27 0 75 -34q29 39 88 79q18 35 19 57h-7q-77 -95 -111 -95q-98 23 -140 57h-3zM642 791q18 -52 57 -53q-34 35 -33 53v19l3 27q-24 -21 -27 -46zM771 837q14 -34 62 -34l14 3v4q-60 17 -61 60v12q-5 0 -15 -23v-22zM817 863q13 -31 49 -30h23 q14 0 76 19v3q-57 0 -68 80h-4q-76 -18 -76 -61v-11zM855 104q97 -143 272 -143q108 0 176 94v8h-9q-84 -88 -158 -88q0 -3 -4 -3t-5 3l-26 -3h-11q-3 0 -4 3l-8 -3q-72 0 -170 83l-49 54h-4v-5zM862 146q23 -5 23 -11q33 11 46 11l18 -45q25 7 35 8l23 -38q25 7 33 7 q9 0 20 -38q32 27 45 27q0 -5 22 -23l27 31q19 -15 24 -16q7 27 14 27q28 -8 31 -8q0 8 30 38q-8 49 -8 64h-4q-59 -30 -125 -29h-3q-98 -1 -224 124v-15q0 -53 -27 -114zM900 738v3q38 38 99 38q114 0 114 -45q-17 -15 -27 -15q-43 23 -117 22q-61 -3 -69 -3zM904 101 q0 -6 11 -11h5l-5 23h-4q-7 -2 -7 -9v-3zM908 639v8q52 49 110 49h22q53 -10 54 -42v-4q0 -16 -54 -25l-53 33q-62 -27 -76 -26zM935 928q13 -49 72 -49v7q-31 0 -38 68q4 7 4 12h-8q-23 0 -30 -23l3 -8zM942 59l23 -8q0 4 4 4q-6 23 -12 23l-15 -15v-4zM976 -319 q35 -163 57 -350l23 -11v4q-4 93 -12 140h5q-31 212 -50 212q-12 5 -23 5zM999 26q25 -8 34 -9v5q-8 23 -11 22q-18 -11 -23 -11v-7zM1002 946q26 -68 134 -67h7q84 20 84 67v11q0 10 -8 35h-38q-11 0 -12 3l-18 -3h-46q-102 -7 -103 -46zM1011 416l7 4q25 -8 34 -8h11 q85 11 91 11q126 0 126 -23q0 -42 -73 -106q-12 -7 -22 -7q-83 12 -136 60q-38 55 -38 69zM1052 -357q6 -15 11 -16q14 7 31 7h4q32 0 98 -83q56 69 102 76h5q7 -4 11 -4l4 8v3q-9 16 -20 20q-12 0 -102 -84q-57 84 -125 84h-11q-8 0 -8 -11zM1063 507q0 21 42 49 q5 0 19 -19q0 -2 -23 -23v-11q29 -7 35 -7l26 3q6 -14 27 -15q18 0 18 8q0 42 12 42h4q9 -8 15 -9l18 12q6 0 20 -23v-15q0 -19 -57 -34q-8 -9 -30 -19q0 7 -76 15h-23q-27 24 -27 46zM1071 -430v-19l38 4q24 0 83 -68q49 60 91 60h11v16l-18 7q-15 -4 -80 -68h-11 q-39 68 -91 68h-23zM1075 -490l3 -19l27 3h4q26 0 80 -64q40 57 94 57v7q0 6 -15 16q-24 -14 -79 -69q-51 69 -95 69h-19zM1078 13q1 -7 8 -7h12l18 4v3q-14 24 -18 24zM1086 -548v-11l4 -7q13 7 23 7q25 0 65 -56h11q34 49 79 49v7q0 6 -12 11q-28 -16 -67 -56h-8 q-45 56 -80 56q-7 -3 -11 -3q-1 3 -4 3zM1094 -608l4 -7l18 4q25 0 65 -51h4q41 46 76 47q-3 11 -16 15l-60 -53q-45 53 -87 53zM1101 -657v-8h4q9 0 15 3q18 -3 61 -49l4 9q-6 0 -42 37q-12 7 -23 8h-19zM1132 374q14 -18 49 -19q19 0 38 23l-45 -4h-42zM1154 13l24 4v9 l-20 3l-4 -7v-9zM1189 -695v-4q30 31 56 30v4q0 7 -7 8h-4q-5 0 -45 -38zM1196 870l7 4h35q56 36 56 65v7q-5 38 -33 38h-8l3 -7v-20q0 -40 -60 -83v-4zM1203 -726q15 4 27 4v4q0 7 -7 7q-19 -9 -20 -15zM1207 37h8q7 0 8 7l-8 4h-8v-11zM1207 643v4q0 94 54 121 q41 15 87 15h30q27 0 27 -26h-4l4 -7v-5q0 -7 -8 -7q-34 7 -49 7h-8q-93 0 -117 -98q0 -11 -8 -11t-8 7zM1245 650q24 53 61 53h19q39 0 60 -29v-20q0 -16 -53 -22q-9 0 -34 34q-18 0 -45 -27q-8 0 -8 11zM1249 67h7q6 0 16 15v4q0 7 -7 7q-15 -16 -16 -26zM1272 867l26 -4 h16q98 22 98 61q0 49 -83 49v-42q0 -34 -57 -57v-7zM1310 -752h15q42 142 42 250q-9 189 -24 190h-3v-4q11 -120 12 -179q0 -120 -42 -257zM1666 -611q0 -33 73 -46q0 4 3 4l-3 7v22l3 27q-33 4 -68 19v-4q-8 -13 -8 -29zM1681 -544q34 -18 45 -18h24q0 15 14 41 q-45 0 -71 19q-7 -17 -12 -42zM1681 -676v-4q15 -53 23 -53h38l19 4q-8 38 -15 38q-4 0 -4 -4q-33 0 -61 19zM1689 325q41 -38 95 -38l-4 19q1 7 8 7q30 -14 30 -19v-3q-15 -31 -38 -31q-16 4 -30 4q-8 -9 -8 -15q6 -15 11 -16h35q83 -9 83 -26q-23 -42 -42 -53 q17 -83 57 -83h4q30 0 110 22q84 42 98 42l8 -11v-4q0 -6 -61 -45q23 -76 46 -91q119 0 258 178q-32 32 -50 94q-7 0 -7 12q-15 0 -49 -26h-16q-38 0 -53 56v8q0 16 35 61q3 14 3 26q0 20 -7 65q-15 -4 -27 -4q4 -38 4 -58v-11q0 -68 -95 -105h-19q-6 0 -11 11q68 43 68 83 v38q0 9 -11 49h-8q11 -46 12 -65v-14q0 -29 -58 -76l-3 7q5 0 11 12v4l-11 -8h-4q-8 0 -8 8q42 22 42 71q0 79 -69 167q-78 72 -147 72q-42 0 -42 -11v-3q0 -13 61 -16h38v-4q0 -6 -19 -11q-7 4 -12 4l-4 -8q45 0 65 -30q0 -6 -11 -11q-70 14 -87 14h-34q-18 0 -73 -22 q-17 7 -18 15v15q0 23 98 23v4q-31 0 -118 45v-4q0 -27 24 -178v-7q0 -61 -50 -129zM1708 -471q0 -12 49 -27q18 0 42 53v8q-4 0 -4 -4q-35 4 -53 19h-3q-31 -29 -31 -49zM1715 692l27 4h31q221 0 341 -197q12 -18 37 -19q102 13 103 91v12q0 48 -19 60q-77 -29 -76 -87 l12 -7h18q3 0 27 25l4 -7v-11q-4 -46 -38 -46h-31q-31 16 -30 42v22q0 19 15 47q0 38 -72 102q-77 49 -136 49q-19 0 -73 -19q-23 43 -56 80h-4q-80 -56 -80 -141zM1719 -764v-3q0 -19 16 -19q27 0 53 8l-11 22q-20 -8 -58 -8zM1746 484q0 14 34 41h8q34 -25 34 -45h15 q24 -2 65 -30v-4q-16 -19 -47 -19q-4 0 -11 4l-53 -11q-17 17 -27 49q-10 0 -18 15zM1750 1678q17 -20 30 -110q5 -16 84 -64q18 -23 18 -38v-8q0 -27 -27 -26l-15 11h-3v-3q10 -15 18 -62q18 0 96 -87h7q8 2 15 20q0 9 -53 38l-30 37v4q27 30 27 68q-10 40 -38 69l7 3h7 q43 0 76 -30h4v11q0 17 -118 50q-14 3 -40 79q-30 38 -65 38zM1764 -392q0 -15 31 -23q7 4 11 4q0 -4 4 -4q34 125 61 194q7 1 11 22q-111 -140 -118 -193zM1780 -600v-8q0 -80 38 -80q0 -7 26 -7h16l-5 19v19l5 26q-38 0 -72 31h-8zM1791 -559v-7q38 -27 49 -27h24 q4 0 15 38q7 0 7 7q-41 0 -76 27h-4q-6 -28 -15 -38zM1802 1174q4 -14 16 -15q24 10 37 23q24 0 47 -42q30 0 132 -99q38 -20 38 -26v-4q-24 -30 -27 -30l-27 27q-59 0 -128 -42l-11 -16h3q56 23 76 23h19q41 0 83 -27q47 0 58 73q-4 41 -16 41h-4l-11 -7h-4q-33 24 -52 75 l-13 -7h-3q-62 98 -125 99q-38 22 -80 64h-4v-8q0 -12 4 -19q-8 -39 -8 -83zM1806 -718q22 -53 31 -53l34 4q0 3 -7 30v11h-31zM1822 -483v-7q56 -23 75 -23q15 5 16 11v4q-12 -8 -20 -8q-11 0 -71 23zM1837 1124q11 -37 11 -45h4q7 44 8 54l-12 -9h-4l-7 4v-4zM1848 -419 v-7q6 -15 27 -15h7q13 0 129 129h-4q-78 -34 -94 -72q-4 0 -31 -31q-10 0 -15 69q-10 0 -19 -73zM1848 814q15 -8 16 -19l18 4q49 0 152 -23q16 5 23 19l-19 -4q-98 0 -145 50h-11q-30 0 -34 -27zM1890 -316q3 -13 3 -38q81 84 164 84v-4q89 9 174 64q73 72 83 133 q92 23 133 61q60 60 61 136v22q-5 -2 -45 -105q-34 -62 -141 -95q-28 0 -34 -42q-33 -75 -99 -114q0 -17 -212 -53q-34 -18 -64 -49q-8 0 -8 8q0 65 46 143q0 37 22 57h7q8 -1 9 -7v-8q-11 -36 -12 -45v-4q29 0 38 49v15q-26 0 -38 46h-11q-76 -169 -76 -254zM1897 -642 l5 -23h-5q0 -42 46 -57q27 0 83 65q-65 0 -95 91v4h-7q-27 -58 -27 -80zM1897 -737l5 -19h15v7q-12 0 -12 12h-8zM1931 848q30 -31 76 -31h50q34 8 34 20v7q0 8 -8 8q-15 -15 -30 -15h-8q-14 0 -41 18q-38 -7 -42 -7h-31zM1935 1378q65 -26 65 -75h4q7 33 7 37q-23 0 -49 92 l7 4q40 -38 99 -65l27 -34h30q-26 132 -57 132q-34 26 -64 65h-4l-4 -18q0 -14 26 -54q-7 -4 -11 -4q-27 0 -72 34h-4v-3q7 -25 8 -35v-34q-7 -27 -8 -30v-12zM1947 -237v-11h4q19 15 42 16h71v3q-53 5 -53 34l-26 -8l-19 4q0 -2 -19 -38zM1947 -517q28 -28 49 -34l49 19v4 l-27 42q-30 10 -29 26h-9q-14 0 -33 -57zM1947 1071q25 -38 49 -38h4q-18 26 -45 38h-8zM1947 1231q28 -6 68 -57q74 -83 80 -83q38 -4 38 -31h3q0 26 49 35q27 45 27 79q0 50 -27 99l8 3q45 -44 45 -98q0 -97 -75 -121q-11 -41 -12 -49v-24q0 -33 47 -49q34 0 52 38 q0 8 -7 8h-12l-30 -27h-3q-13 0 -16 50q32 80 61 79v23q0 13 33 68q0 113 -109 231h-4q-11 -30 -12 -34l5 -38q-6 0 -16 -15q45 -52 53 -114v-7q0 -51 -64 -88h-11q-57 0 -125 115q0 22 -4 25q11 36 11 42v4h-4q0 -12 -45 -53q-4 -7 -4 -11zM1989 -578v-11q15 -27 22 -26h4 q83 8 83 53q-34 7 -45 7q0 -18 -64 -23zM2000 -50q31 -53 76 -53q135 22 216 83q72 63 71 98h-7q-43 -92 -178 -144q-61 -19 -95 -19h-11q-29 0 -54 46q-18 -5 -18 -11zM2000 -430q34 -34 64 -34q49 20 50 56v16l-31 -7q-28 -1 -57 26q-27 -31 -26 -57zM2007 1436l19 11 q83 -22 83 -80l-7 -3h-4q-36 41 -49 41q-12 -7 -23 -7q-19 22 -19 38zM2015 -726q6 4 16 4v4q0 7 -9 7h-4zM2022 879q4 -11 23 -12h8l19 3v4q-30 5 -30 27q-6 1 -20 -22zM2031 -176q0 -27 45 -27q28 0 45 35q-6 18 -23 18q-15 -5 -15 -11l19 -15v-3q0 -6 -11 -11 q-30 0 -38 22v3q4 35 34 35v3q-37 0 -38 4q-7 -34 -18 -53zM2045 -691q16 -11 31 -11q49 12 49 40q-11 35 -30 35q-38 -31 -38 -53q-6 0 -12 -11zM2049 -335v-8q0 -5 23 -23h15q9 0 34 9v3q-18 23 -19 38l4 19q-47 0 -57 -38zM2057 1235h3q22 18 46 18h12v9q-61 -7 -61 -27z M2064 -495q22 -30 42 -29q45 5 45 15v3q-17 0 -30 42h-3q-10 -31 -54 -31zM2068 757l15 -7q19 0 46 22q0 7 -8 7h-12q-41 -11 -41 -22zM2068 908q12 0 79 -45q28 -8 42 -8q47 0 122 50q31 4 49 11v8l-15 15v23q15 46 15 49v49q0 16 -30 122q-19 -18 -19 -42q7 -47 7 -54 q-7 -3 -11 -3q-8 0 -31 26l-3 -7q0 -5 12 -45q-65 -13 -65 -46q38 0 56 -30v-12q-34 -79 -105 -79q-19 0 -91 34h-4q-7 -1 -8 -8v-8zM2083 1186q2 -8 8 -8h11q7 0 7 8v7q0 5 -11 11h-3q-6 0 -12 -11v-7zM2098 -229h4q81 24 87 39v3l-7 -3q-36 11 -38 11q0 -16 -46 -50z M2109 -123q2 -7 9 -7h7v7h-16zM2114 730l37 -49q38 0 61 31q0 15 -56 33q-37 -11 -42 -11v-4zM2118 -570v-8q0 -33 41 -42l23 9l7 -4q19 7 27 7q-49 41 -49 68q-49 -15 -49 -30zM2129 821q0 -19 30 -38q17 7 19 16l-19 29q-14 1 -23 9q-3 -15 -7 -16zM2136 -293v-12 q0 -34 35 -34q46 0 76 38q-35 14 -35 38h-3q-12 -13 -73 -30zM2140 -377v-7q32 -24 45 -24q29 0 42 51h-4q-16 -16 -30 -16h-8q-7 7 -26 7q0 -11 -19 -11zM2144 -430v-3q11 -50 41 -50h4q34 0 58 26v4q-16 0 -24 27q-20 -15 -34 -15h-11q-7 0 -34 11zM2151 -130 q0 -20 23 -31h11q42 8 42 38l-15 4q-14 -6 -14 -11l3 -20h-16q-14 8 -14 23q12 35 52 35q12 0 38 -20q15 32 15 58h-3q-43 -31 -117 -58zM2182 761q18 0 49 -31h4q0 6 8 15q-20 0 -42 34q-6 0 -19 -18zM2205 291q0 -5 18 -20q22 0 31 20q-5 27 -27 26h-11q-11 -4 -11 -23v-3 zM2205 -513q14 -65 64 -65h7q57 0 80 30q-38 63 -38 95h-4q-15 -15 -53 -22q0 -24 -56 -38zM2212 828q13 -45 26 -45h9l11 8h3q59 -60 77 -61q0 20 14 27h4q26 -18 61 -19q76 19 75 57q-11 49 -22 49q0 -68 -98 -68q-40 0 -107 68q0 -10 -38 -16h-15zM2238 -241 q0 -33 38 -33h12q46 2 46 42q-33 0 -38 42q-38 -45 -58 -51zM2238 355h5q25 0 42 76v15q0 20 -27 46h-4q-5 -1 -11 -12q27 -27 26 -42v-7q0 -29 -31 -73v-3zM2247 -408q19 -18 33 -18q10 0 38 7v24l4 18l-19 -4q-2 0 -42 8q0 -16 -14 -35zM2258 -335q0 -10 30 -15h19 q38 0 38 7q-7 13 -7 24v11q0 16 7 29h-4q-24 -22 -61 -29q-22 -25 -22 -27zM2258 719q0 -11 56 -27q0 -4 31 -18q4 0 15 34q3 0 3 4v3q-25 -18 -33 -19q-29 14 -61 45h-4q0 -13 -7 -22zM2273 336q62 -65 99 -65h4q90 19 90 61q-62 -45 -94 -45h-9q-28 0 -78 60q-7 0 -12 -11 zM2285 954v8q0 7 11 7q15 -5 15 -12v-3q0 -6 -12 -11h-3q-6 0 -11 11zM2288 510q38 -41 79 -41q32 0 69 53v3h-15q-27 0 -42 16q-18 0 -61 -27q-3 -4 -30 -4zM2288 598q27 -31 72 -31q32 29 54 61v4h-5q-36 0 -57 15zM2296 1037l7 4q0 -4 4 -4q1 9 7 9q11 -4 12 -24l-15 -11 q-10 0 -15 26zM2299 382q38 -46 68 -46h16q62 19 91 60v8h-4q-63 -49 -114 -49q-23 0 -45 41h-8q0 -8 -4 -14zM2299 855q38 -49 80 -49h11q20 0 24 11q0 28 -58 62q-37 0 -57 -24zM2314 -32h4q53 15 54 23q0 6 -12 11h-8q-2 0 -38 -34zM2314 -176q14 -30 38 -30h15 q57 3 58 27q-50 0 -84 52h-7q0 -6 -20 -49zM2322 454q0 -55 41 -65q9 0 54 11v9q-30 3 -91 45h-4zM2345 -392v-23q9 -58 22 -68v80q0 9 5 15q-4 7 -5 11h-15q0 -6 -7 -15zM2356 -96q33 -53 72 -54q53 35 53 76l-7 -3q-27 7 -27 27h-4q-38 -46 -87 -46zM2376 -312l7 -31 q87 167 265 307h8l94 -64q11 19 12 26q-4 7 -4 12h-3q-4 -23 -12 -23h-4q-60 87 -60 98h-8q-119 -57 -152 -151h-3l-27 42q-40 -57 -61 -145h-3q-3 0 -20 20q-27 -41 -29 -91zM2376 674q14 -15 49 -16q18 8 18 38v12q-65 0 -64 -27zM2379 37q8 -15 22 -15q16 5 24 18v11 l-16 -14h-8q-7 0 -7 7v15q16 31 23 31q27 -3 26 -19q10 0 23 53l-7 4h-4q0 -24 -27 -35q-28 8 -34 8q-15 -46 -15 -57v-7zM2390 446q36 -19 57 -19q2 31 8 31q-3 3 -4 29q-17 -16 -61 -41zM2390 560q4 0 38 -8q35 3 35 8l3 19q-5 64 -15 64q0 -27 -61 -76v-7zM2394 -460 q4 -24 4 -53h7q8 0 9 7v53q0 170 230 357h4q27 0 80 -45l7 14q-67 52 -94 53q-247 -205 -247 -386zM2455 268l4 -8q60 32 60 87q0 38 -15 111h-7q0 -13 -5 -20q11 -37 12 -49v-34q0 -38 -49 -84v-3zM2466 -28q61 -58 61 -61l83 99q-28 39 -76 61h-7q0 -20 -19 -49 q39 -18 42 -31v-7q0 -5 -12 -12h-11q-15 0 -38 23q-6 0 -23 -23z" />
<glyph unicode="&#x2000;" horiz-adv-x="1146" />
<glyph unicode="&#x2001;" horiz-adv-x="2293" />
<glyph unicode="&#x2002;" horiz-adv-x="1146" />
<glyph unicode="&#x2003;" horiz-adv-x="2293" />
<glyph unicode="&#x2004;" horiz-adv-x="764" />
<glyph unicode="&#x2005;" horiz-adv-x="573" />
<glyph unicode="&#x2006;" horiz-adv-x="382" />
<glyph unicode="&#x2007;" horiz-adv-x="382" />
<glyph unicode="&#x2008;" horiz-adv-x="286" />
<glyph unicode="&#x2009;" horiz-adv-x="458" />
<glyph unicode="&#x200a;" horiz-adv-x="127" />
<glyph unicode="&#x200b;" />
<glyph unicode="&#x200c;" horiz-adv-x="786" d="M73 1164l237 169l-237 168l59 84l267 -189l268 189l59 -84l-238 -168l238 -169l-59 -84l-216 153v-1667h-103v1667l-216 -153z" />
<glyph unicode="&#x200d;" horiz-adv-x="734" d="M329 -434v1994h99v-1994h-99z" />
<glyph unicode="&#x2010;" horiz-adv-x="724" d="M88 547v176h550v-176h-550z" />
<glyph unicode="&#x2011;" horiz-adv-x="724" d="M88 547v176h550v-176h-550z" />
<glyph unicode="&#x2012;" horiz-adv-x="724" d="M88 547v176h550v-176h-550z" />
<glyph unicode="&#x2013;" horiz-adv-x="1176" d="M59 444v159h1058v-159h-1058z" />
<glyph unicode="&#x2014;" horiz-adv-x="2174" d="M0 444v165h2175v-165h-2175z" />
<glyph unicode="&#x2018;" horiz-adv-x="591" d="M159 1326q0 141 91.5 294t180.5 153v-56q-95 -56 -113 -248q0 -155 167 -207v-56l-153 -162q-56 0 -114.5 84.5t-58.5 197.5z" />
<glyph unicode="&#x2019;" horiz-adv-x="591" d="M159 1555v56l154 162q56 0 114 -85t58 -197q0 -141 -91.5 -294t-179.5 -153v56q94 56 112 248q0 154 -167 207z" />
<glyph unicode="&#x201a;" horiz-adv-x="591" d="M100 67v55l155 162q56 0 114 -85t58 -197q0 -141 -91.5 -293.5t-180.5 -152.5v55q95 56 112 248q0 154 -167 208z" />
<glyph unicode="&#x201c;" horiz-adv-x="966" d="M106 1370q0 141 92 294t180 153v-56q-94 -57 -112 -248q0 -155 167 -207v-56l-154 -161q-56 0 -114.5 84t-58.5 197zM525 1370q0 141 92 294t181 153v-56q-95 -57 -113 -248q0 -155 167 -207v-56l-154 -161q-56 0 -114.5 84t-58.5 197z" />
<glyph unicode="&#x201d;" horiz-adv-x="1008" d="M126 1599v56l154 162q56 0 114.5 -85t58.5 -197q0 -141 -92 -293.5t-181 -152.5v55q95 56 113 248q0 154 -167 207zM545 1599v56l154 162q56 0 114 -85t58 -197q0 -141 -91.5 -293.5t-179.5 -152.5v55q94 56 112 248q0 154 -167 207z" />
<glyph unicode="&#x201e;" horiz-adv-x="1004" d="M121 131v55l154 162q56 0 114 -85t58 -196q0 -141 -91.5 -294t-180.5 -153v55q95 56 113 248q0 154 -167 208zM550 131v55l153 162q57 0 115.5 -85t58.5 -196q0 -141 -92 -294t-181 -153v55q95 56 113 248q0 154 -167 208z" />
<glyph unicode="&#x2020;" horiz-adv-x="1063" d="M74 1027q0 62 31.5 107.5t88.5 45.5q37 0 147 -60q79 -44 147 -50q-6 69 -50 145q-58 108 -58 141q0 58 42 93.5t110 35.5q62 0 107.5 -33.5t45.5 -87.5q0 -37 -59 -146q-44 -83 -49 -149q68 5 145 49q106 61 140 62q57 0 92 -43t35 -110q0 -66 -31 -109.5t-89 -43.5 q-37 0 -146 57q-81 44 -148 53q6 -145 112 -251q-109 -471 -115 -1004h-77q-6 534 -117 1004q104 105 111 252q-71 -8 -148 -52q-105 -58 -138 -59q-60 0 -94.5 42.5t-34.5 110.5z" />
<glyph unicode="&#x2021;" horiz-adv-x="1063" d="M72 187q0 68 35 110t94 42q34 0 140 -59q78 -43 148 -51q-9 199 -114 377q105 179 114 379q-71 -8 -148 -52q-106 -58 -140 -59q-58 0 -93.5 42t-35.5 111q0 62 33 107.5t89 45.5q37 0 145 -60q82 -44 149 -50q-6 69 -50 145q-60 108 -60 141q0 58 42 93.5t110 35.5 q65 0 109 -34t44 -87q0 -36 -57 -146q-45 -83 -52 -149q68 5 148 49q104 61 138 62q59 0 94 -43t35 -110q0 -66 -32.5 -109.5t-87.5 -43.5q-37 0 -146 57q-82 44 -150 53q7 -199 113 -378q-106 -178 -113 -377q68 9 150 54q110 56 146 56q54 0 87 -43t33 -109 q0 -68 -34.5 -110.5t-94.5 -42.5q-34 0 -138 60q-80 45 -148 51q6 -68 52 -150q57 -109 57 -147q0 -53 -44 -86t-109 -33q-69 0 -110.5 35.5t-41.5 92.5q0 33 60 141q44 77 50 146q-68 -7 -149 -52q-109 -58 -145 -58q-55 0 -88.5 45t-33.5 108z" />
<glyph unicode="&#x2022;" horiz-adv-x="1080" d="M222 742q0 132 94 224.5t227 92.5q131 0 223 -93.5t92 -223.5q0 -132 -93 -225.5t-224 -93.5q-133 0 -226 93.5t-93 225.5z" />
<glyph unicode="&#x2026;" horiz-adv-x="2243" d="M173 205q0 25 26 54l111 114q26 25 52 24q26 0 57 -27l108 -115q19 -30 20 -54q0 -28 -23 -54l-108 -117q-31 -34 -54 -34q-30 0 -53 24l-120 137q-16 25 -16 48zM863 205q0 26 25 54l111 114q26 25 53 24q27 0 57 -27l109 -115q22 -30 21 -54q0 -29 -27 -54l-105 -118 q-33 -33 -55 -33q-31 0 -53 24l-119 136q-16 26 -17 49zM1582 205q0 26 27 54l110 114q26 25 53 24q26 0 55 -27l111 -116q17 -30 18 -53q0 -28 -23 -54l-107 -118q-33 -33 -54 -33q-29 0 -54 23l-120 138q-16 25 -16 48z" />
<glyph unicode="&#x202f;" horiz-adv-x="458" />
<glyph unicode="&#x2039;" horiz-adv-x="734" d="M132 526l455 404h39l29 -69l-257 -335l257 -333l-29 -70h-39z" />
<glyph unicode="&#x203a;" horiz-adv-x="734" d="M100 193l256 333l-256 336l31 68h39l453 -404l-453 -403h-39z" />
<glyph unicode="&#x2044;" horiz-adv-x="491" d="M-408 -31l1031 1602h198l-1028 -1602h-201z" />
<glyph unicode="&#x205f;" horiz-adv-x="573" />
<glyph unicode="&#x20a3;" horiz-adv-x="1070" d="M50 0v91h116q85 0 85 216v52h-196v100h196v716q0 217 -85 217h-116v89h952l121 -272h-94q-60 184 -177 185l-315 -2q-84 0 -84 -217v-333h342q81 0 81 43v78h91v-383h-91v79q0 42 -81 42h-342v-242h195v-100h-195v-52q0 -216 84 -216h115v-91h-602z" />
<glyph unicode="&#x20a4;" horiz-adv-x="1073" d="M79 737v101h106q-30 84 -29 173q0 237 130.5 363t325.5 126q76 0 197 -15t121 -52v-181h-96q-8 68 -69 104q-68 29 -153 28h-2q-91 0 -175 -93q-79 -89 -79 -229q0 -13 1 -30q0 -105 27 -194h387v-101h-352q1 -2 9 -20h362v-100h-309q20 -40 21 -118q0 -170 -143 -359 h364q118 0 178 133h91l-119 -273h-757l3 78q186 238 186 412q0 73 -30 133l6 -6h-185v100h134q-1 3 -9 20h-142z" />
<glyph unicode="&#x20a7;" horiz-adv-x="2080" d="M50 0v91h116q85 0 85 216v868q0 217 -85 217h-116v89h640q98 -3 195 -66q94 -66 148 -185q53 -119 56 -228h-11q197 0 197 358h90v-358h234q43 20 116 21h2q56 0 145.5 -15t89.5 -52v-180h-81q-4 75 -60 113t-122 38q-55 0 -88 -31t-33 -83q0 -95 224 -202 q127 -58 177 -125.5t50 -167.5q0 -147 -92 -245q-109 -89 -243 -91q-60 0 -108 10q-26 6 -52 6q-16 0 -33 -2q-30 -6 -64 -6q-133 0 -187.5 63.5t-61.5 171.5h-3v689h-91q-7 -86 -48 -182q-53 -120 -149 -187t-203 -67q-106 0 -203 68q-35 23 -28 15v-254q0 -216 84 -216 h115v-91h-602zM453 748q1 -4 5 -11q41 -97 102 -146q52 -41 104 -41q7 0 17 3q62 7 117 69t82 169q23 84 22 174q0 24 -2 46q-7 115 -48 212.5t-102 135.5q-51 35 -103 35q-7 0 -17 -2h-177v-644zM1361 301h90q59 -138 113 -179q53 -40 117 -40h6q85 0 139 47q52 48 52 123 q0 88 -249 208q-106 55 -152 120t-46 158q0 128 72 203v-29h-138v-666q0 -75 30 -108q22 -25 35 -26z" />
<glyph unicode="&#x20ac;" horiz-adv-x="1063" d="M-46 657l32 101h81v7q0 18 -1 13h-76l28 101h56q13 130 77 269q84 183 234.5 283t309.5 100q44 0 90 -8q42 -11 89 -30q4 -3 6 -3q6 0 19 43h72l97 -321l-81 -3q-52 141 -134 182q-43 22 -93 35v5q-34 10 -81 10q-16 0 -33 -2q-113 -11 -214.5 -109t-153.5 -266 q-31 -103 -35 -185h714l-30 -101h-690q0 -10 1 -20h685l-28 -101h-648q13 -134 79 -271q72 -153 187 -229q98 -65 207 -66q176 3 241 84q70 85 69 193h89v-163q0 -82 -124 -147q-109 -56 -275 -58q-190 0 -339 102t-233 284q-63 138 -76 271h-118z" />
<glyph unicode="&#x2116;" horiz-adv-x="2587" d="M28 0v78q137 10 169.5 52.5t32.5 197.5v914q-55 65 -88 84t-114 19v79h387l777 -974v647q0 153 -35 195.5t-168 54.5v77h531v-77q-74 -8 -99 -15.5t-51.5 -28t-36.5 -69t-10 -137.5v-1120h-66l-895 1114v-763q0 -153 33 -197.5t165 -51.5v-79h-532zM1508 275v186h1053 v-186h-1053zM1571 954q0 203 121 332.5t315 129.5q188 0 310.5 -127.5t122.5 -318.5q0 -202 -126 -341t-311 -139t-308.5 134t-123.5 330zM1781 1048q0 -198 68.5 -330.5t178.5 -132.5q93 0 148 82.5t55 236.5q0 189 -71 303.5t-178 114.5q-90 0 -145.5 -73.5t-55.5 -200.5z " />
<glyph unicode="&#x2122;" horiz-adv-x="1370" d="M6 1297v154h581v-154h-207v-533h-167v533h-207zM647 764v687h190l102 -247l52 -151h-21l52 151l97 247h189v-687h-158v306l12 198h25l-147 -403h-121l-152 403h28l12 -198v-306h-160z" />
<glyph unicode="&#x2202;" horiz-adv-x="1063" d="M81 500q0 136 60.5 261t168.5 193.5t222 68.5t225 -69q29 -18 -3 13q-55 156 -202.5 294t-335.5 151v94q339 0 553.5 -292t214.5 -714q0 -136 -59.5 -260.5t-167 -194.5t-225.5 -70t-226 70t-166.5 194.5t-58.5 260.5zM275 560q0 -41 6 -77q15 -120 60 -225t114 -159 q59 -49 115 -49q3 0 9 1q65 4 119 65t74 172q15 70 15 144q0 42 -3 84q-14 120 -61.5 225.5t-114.5 159.5q-60 45 -115 45h-13q-59 -3 -113 -63t-75 -169q-17 -83 -17 -154z" />
<glyph unicode="&#x2206;" horiz-adv-x="1145" d="M6 0l575 1518l556 -1518h-1131zM167 164h747l-368 1000z" />
<glyph unicode="&#x220f;" horiz-adv-x="1565" d="M50 -329h116q85 0 85 216v1288q0 217 -85 217h-116v89h1466v-89h-119q-82 0 -82 -217v-1288q0 -216 82 -216h119v-89h-603v89h116q83 0 83 216v1288q0 217 -83 217h-492q-84 0 -84 -217v-1288q0 -216 84 -216h115v-90h-602v90z" />
<glyph unicode="&#x2211;" horiz-adv-x="1266" d="M124 -329q72 0 110 48l658 771l-658 852q-39 49 -110 50v89h959l120 -274h-93q-60 184 -177 185h-447l627 -822l-774 -899h594q117 0 177 185h93l-120 -274h-959v89z" />
<glyph unicode="&#x2212;" horiz-adv-x="1063" d="M91 651v180h871l13 -13v-167h-884z" />
<glyph unicode="&#x221a;" horiz-adv-x="1065" d="M18 391l110 51l76 -166l719 1453h182v-101h-79l-818 -1655z" />
<glyph unicode="&#x221e;" horiz-adv-x="1062" d="M69 742q0 79 27.5 156.5t80 123t113.5 45.5q59 0 111 -44.5t79 -121.5q9 -23 -2 34q-13 -42 -1 -8q37 94 103 147t140 53q75 0 141 -52t101.5 -143.5t35.5 -189.5q0 -101 -35.5 -192.5t-101.5 -143.5t-141 -52q-74 0 -140 52.5t-103 147.5q-12 35 2 -10q10 59 1 37 q-28 -76 -79.5 -120.5t-110.5 -44.5q-60 0 -113 45.5t-80.5 121.5t-27.5 159zM123 705q1 -42 24.5 -78t62.5 -52q25 -9 53 -9q14 0 31 2q41 9 80 40t69 172q-13 88 -62 114q-42 20 -76 20q-10 0 -20 -2q-44 -8 -84 -39t-61 -77q-17 -42 -17 -82v-9zM511 711q9 -85 85 -139 q66 -44 113 -44q9 0 16 2q58 10 110.5 48t78.5 96q25 50 25 100v9q-2 54 -31.5 99t-82.5 61q-36 11 -69 11q-20 0 -41 -4q-63 -7 -119 -55.5t-85 -183.5z" />
<glyph unicode="&#x222b;" horiz-adv-x="705" d="M-74 -52h75q3 -53 28.5 -69.5t50.5 -16.5h2q67 0 95 146q32 161 39 315l72 739l8 62q28 243 140.5 441t250.5 198q80 0 80 -47v-181h-75q-2 53 -29.5 69.5t-50.5 16.5q-56 0 -99 -147t-47 -354l-73 -773q-20 -236 -135.5 -432.5t-251.5 -196.5q-80 0 -80 48v182z" />
<glyph unicode="&#x2248;" horiz-adv-x="1064" d="M96 353v217q73 81 136 109t123 28q69 0 186.5 -49.5t170.5 -49.5q47 0 100 26.5t159 147.5v-217q-72 -82 -136 -109.5t-123 -27.5q-66 0 -184 49t-173 49q-47 0 -99 -26t-160 -147zM96 702v218q73 82 136 109.5t123 27.5q69 0 186.5 -49.5t170.5 -49.5q47 0 100 26 t159 148v-218q-72 -82 -136 -109t-123 -27q-66 0 -184 49.5t-173 49.5q-47 0 -99 -26.5t-160 -148.5z" />
<glyph unicode="&#x2264;" horiz-adv-x="1063" d="M91 2v180h871l13 -13v-167h-884zM91 685v108l884 510v-214l-609 -349l609 -347v-213z" />
<glyph unicode="&#x2265;" horiz-adv-x="1063" d="M91 2v180h861h23v-180h-884zM91 180v213l606 347l-606 349v214l884 -510v-108z" />
<glyph unicode="&#x2460;" horiz-adv-x="2785" d="M184 734q0 497 356 853t853 356t852.5 -356t355.5 -853t-356 -852.5t-852 -355.5q-497 0 -853 355.5t-356 852.5zM312 734q0 -447 316.5 -767t764.5 -320q446 0 763 320t317 767q0 446 -317 767t-763 321q-447 0 -764 -321t-317 -767zM987 1129q0 17 1.5 29.5t4.5 21 t9 14.5t15 12l305 196q4 3 10 5t15.5 4t21.5 2.5t31 0.5q25 0 41 -2t25.5 -5.5t12.5 -9t3 -12.5v-1164h239q8 0 15.5 -4.5t12 -13t7 -22t2.5 -31.5q0 -19 -3 -33t-8 -22t-11.5 -11.5t-14.5 -3.5h-692q-7 0 -13 3.5t-12 11.5t-9 21.5t-3 33.5q0 18 3 31.5t8 22t11.5 13 t14.5 4.5h277v1008l-256 -153q-19 -10 -31 -12t-19.5 4.5t-10 22t-2.5 38.5z" />
<glyph unicode="&#x2461;" horiz-adv-x="2785" d="M184 734q0 497 356 853t853 356t852.5 -356t355.5 -853t-356 -852.5t-852 -355.5q-497 0 -853 355.5t-356 852.5zM312 734q0 -447 316.5 -767t764.5 -320q446 0 763 320t317 767q0 446 -317 767t-763 321q-447 0 -764 -321t-317 -767zM978 157q0 20 1.5 35.5t6.5 27 t13 23.5t20 25l257 273q89 94 143 168.5t83 136t38 112t9 94.5t-14 83.5t-41.5 69t-68.5 47t-94 17.5q-62 0 -112 -17.5t-87 -38t-62.5 -38t-37.5 -17.5q-7 0 -12.5 4t-9 13.5t-6 24.5t-2.5 37q0 15 1.5 26.5t4 19.5t6.5 15.5t16 18t42.5 29t76 36.5t100.5 30t115 12 q96 0 168.5 -27t120 -74t71 -109.5t23.5 -133.5q0 -63 -11.5 -126t-47.5 -136.5t-105 -163t-182 -205.5l-210 -220h576q8 0 16 -4.5t13.5 -13.5t8 -23t2.5 -32t-2.5 -32.5t-7 -24.5t-12 -14.5t-17.5 -4.5h-732q-14 0 -25 3.5t-18.5 11.5t-11 23.5t-3.5 38.5z" />
<glyph unicode="&#x2462;" horiz-adv-x="2785" d="M184 734q0 497 356 853t853 356t852.5 -356t355.5 -853t-356 -852.5t-852 -355.5q-497 0 -853 355.5t-356 852.5zM312 734q0 -447 316.5 -767t764.5 -320q446 0 763 320t317 767q0 446 -317 767t-763 321q-447 0 -764 -321t-317 -767zM978 247q0 37 7 51t21 14 q9 0 36 -16t69.5 -35t99.5 -35.5t126 -16.5q68 0 119 17.5t86 49t52.5 75t17.5 94.5q0 56 -22 101.5t-64.5 78t-104.5 50t-141 17.5h-126q-8 0 -16 3.5t-13.5 12t-9 21.5t-3.5 35q0 19 3 32t8.5 20.5t13 11t16.5 3.5h116q68 0 121.5 17.5t91 50.5t57.5 78.5t20 101.5 q0 41 -13.5 78.5t-40 65t-68 43.5t-96.5 16q-59 0 -108.5 -18t-88.5 -38.5t-64.5 -38.5t-36.5 -18q-7 0 -12.5 3t-9 10.5t-5 21.5t-1.5 36q0 15 1 27t4 20.5t7 16t14 17t39.5 28t73 36.5t100.5 30t122 12q92 0 162 -23.5t116.5 -66.5t69.5 -102.5t23 -132.5 q0 -62 -16.5 -116t-48 -95.5t-77.5 -70.5t-107 -41v-2q69 -7 125.5 -34t97.5 -68t64 -96t23 -117q0 -91 -31.5 -164.5t-91 -125.5t-146.5 -80.5t-197 -28.5q-67 0 -124.5 11t-102.5 26t-74.5 30.5t-37.5 23t-12 14.5t-7 17.5t-4.5 25t-1.5 36.5z" />
<glyph unicode="&#x2463;" horiz-adv-x="2785" d="M184 734q0 497 356 853t853 356t852.5 -356t355.5 -853t-356 -852.5t-852 -355.5q-497 0 -853 355.5t-356 852.5zM312 734q0 -447 316.5 -767t764.5 -320q446 0 763 320t317 767q0 446 -317 767t-763 321q-447 0 -764 -321t-317 -767zM894 463q0 19 1 34.5t4 28.5t8 24.5 t13 24.5l477 805q5 8 14.5 14.5t25 10.5t38 5.5t53.5 1.5q34 0 59 -2.5t40 -6.5t23.5 -11t8.5 -16v-846h149q17 0 28 -17.5t11 -54.5q0 -34 -10 -53.5t-29 -19.5h-149v-279q0 -8 -4 -13.5t-14.5 -9.5t-27 -6t-41.5 -2t-41.5 2t-26 6t-13 9.5t-3.5 13.5v279h-547 q-12 0 -20.5 3t-15 11.5t-9 23.5t-2.5 40zM1055 530h433v727h-2z" />
<glyph unicode="&#x2464;" horiz-adv-x="2785" d="M184 734q0 497 356 853t853 356t852.5 -356t355.5 -853t-356 -852.5t-852 -355.5q-497 0 -853 355.5t-356 852.5zM312 734q0 -447 316.5 -767t764.5 -320q446 0 763 320t317 767q0 446 -317 767t-763 321q-447 0 -764 -321t-317 -767zM986 220q0 17 1.5 31t5.5 23t10 13 t13 4q10 0 31.5 -13t58 -27.5t90 -28t127.5 -13.5q69 0 126 16.5t98.5 51t65 87.5t23.5 129q0 63 -20 111.5t-61.5 81t-105 48.5t-151.5 16q-62 0 -107 -6.5t-84 -6.5q-29 0 -41 13.5t-12 51.5v539q0 34 15.5 50.5t45.5 16.5h587q8 0 15.5 -4.5t13 -14t8 -23.5t2.5 -34 q0 -37 -10.5 -57.5t-28.5 -20.5h-495v-371q36 5 73.5 6t86.5 1q114 0 199 -27t141.5 -77t86 -120.5t29.5 -156.5q0 -106 -36 -189t-101.5 -140t-156 -87t-201.5 -30q-61 0 -116.5 9t-98.5 21.5t-70.5 25t-35.5 19.5t-11 13.5t-5.5 15t-3.5 22t-1 31.5z" />
<glyph unicode="&#x2465;" horiz-adv-x="2785" d="M184 734q0 497 356 853t853 356t852.5 -356t355.5 -853t-356 -852.5t-852 -355.5q-497 0 -853 355.5t-356 852.5zM312 734q0 -447 316.5 -767t764.5 -320q446 0 763 320t317 767q0 446 -317 767t-763 321q-447 0 -764 -321t-317 -767zM957 696q0 85 9.5 172t33 168 t64 152.5t101.5 124t146 83t197 30.5q38 0 77 -4.5t72 -12t55.5 -17t29.5 -15t10.5 -12t5.5 -14.5t3 -17.5t1 -23.5q0 -18 -0.5 -31.5t-4 -22t-9 -12.5t-14.5 -4q-11 0 -31 7t-47.5 16t-67 16t-91.5 7q-95 0 -163.5 -39t-112 -104.5t-64.5 -152t-24 -180.5q27 15 60 30.5 t72.5 28t83.5 20t94 7.5q108 0 181.5 -29t119 -81t65 -122t19.5 -152q0 -87 -26.5 -168.5t-82 -143.5t-140.5 -99.5t-201 -37.5q-83 0 -146.5 20.5t-110.5 58.5t-78 93.5t-50 126t-27.5 154.5t-8.5 180zM1136 670q0 -132 16.5 -221.5t49 -143t80.5 -76.5t113 -23 q66 0 113.5 24.5t79.5 66t47 93.5t15 106q0 59 -12 107.5t-39.5 82.5t-73.5 52.5t-114 18.5q-38 0 -76 -7t-73 -18.5t-67.5 -27.5t-58.5 -34z" />
<glyph unicode="&#x2466;" horiz-adv-x="2785" d="M184 734q0 497 356 853t853 356t852.5 -356t355.5 -853t-356 -852.5t-852 -355.5q-497 0 -853 355.5t-356 852.5zM312 734q0 -447 316.5 -767t764.5 -320q446 0 763 320t317 767q0 446 -317 767t-763 321q-447 0 -764 -321t-317 -767zM986 1328q0 19 2.5 33.5t7.5 24.5 t12.5 14.5t16.5 4.5h772q14 0 25 -3t16.5 -12.5t8.5 -23.5t3 -37q0 -18 -1.5 -33t-4 -29t-7 -26.5t-10.5 -27.5l-477 -1099q-5 -12 -13 -20t-19.5 -12.5t-30 -6t-45.5 -1.5q-35 0 -54.5 3t-28 9.5t-7.5 16.5t7 23l502 1124h-636q-19 0 -29 20.5t-10 57.5z" />
<glyph unicode="&#x2467;" horiz-adv-x="2785" d="M184 734q0 497 356 853t853 356t852.5 -356t355.5 -853t-356 -852.5t-852 -355.5q-497 0 -853 355.5t-356 852.5zM312 734q0 -447 316.5 -767t764.5 -320q446 0 763 320t317 767q0 446 -317 767t-763 321q-447 0 -764 -321t-317 -767zM946 392q0 62 20.5 114.5t59 96.5 t95 82.5t126.5 73.5q-61 32 -108 67t-80 76.5t-50 88.5t-17 103q0 70 25 130.5t76 105.5t129 71t183 26q100 0 173.5 -24t121 -65.5t70 -97.5t22.5 -121q0 -52 -17 -100t-49.5 -91t-80.5 -80.5t-109 -70.5q73 -36 129.5 -73.5t95 -81t58.5 -92.5t20 -107q0 -86 -30.5 -153 t-88.5 -113t-143 -70t-195 -24q-102 0 -183 21.5t-137 63.5t-86 103.5t-30 140.5zM1124 409q0 -99 68.5 -153.5t203.5 -54.5q131 0 198 54.5t67 148.5q0 47 -17.5 85.5t-53 72t-88 64.5t-122.5 65q-65 -32 -113 -63.5t-79.5 -65.5t-47.5 -71t-16 -82zM1167 1103 q0 -40 14 -74.5t43 -65t73.5 -60t106.5 -60.5q103 53 158.5 117.5t55.5 142.5q0 43 -15 77.5t-43.5 59.5t-71 37.5t-96.5 12.5q-111 0 -168 -50t-57 -137z" />
<glyph unicode="&#x2468;" horiz-adv-x="2785" d="M184 734q0 497 356 853t853 356t852.5 -356t355.5 -853t-356 -852.5t-852 -355.5q-497 0 -853 355.5t-356 852.5zM312 734q0 -447 316.5 -767t764.5 -320q446 0 763 320t317 767q0 446 -317 767t-763 321q-447 0 -764 -321t-317 -767zM956 988q0 88 26 167.5t80 140 t138 96t201 35.5q83 0 147 -21t111 -60t80 -95t52.5 -126.5t28.5 -153t9 -173.5q0 -86 -10.5 -174t-35 -169.5t-66 -153t-104.5 -124.5t-149.5 -83.5t-200.5 -30.5q-44 0 -85.5 6t-75 14t-56 17.5t-32.5 18.5t-15 25t-5 42q0 23 1.5 36.5t5 20.5t9 9.5t13.5 2.5 q11 0 31.5 -7.5t52 -17t73.5 -17t94 -7.5q99 0 170.5 38.5t116.5 103t67.5 149.5t24.5 179q-54 -32 -130 -56.5t-174 -24.5q-111 0 -186.5 30t-121 82.5t-65.5 124t-20 156.5zM1135 1001q0 -60 12.5 -110t41.5 -85t75 -54t113 -19q77 0 149 23t124 61q0 131 -17.5 220.5 t-51.5 145t-83 80t-114 24.5q-67 0 -113.5 -24t-77 -64.5t-44.5 -91.5t-14 -106z" />
<glyph unicode="&#x2469;" horiz-adv-x="2785" d="M184 734q0 497 356 853t853 356t852.5 -356t355.5 -853t-356 -852.5t-852 -355.5q-497 0 -853 355.5t-356 852.5zM312 734q0 -447 316.5 -767t764.5 -320q446 0 763 320t317 767q0 446 -317 767t-763 321q-447 0 -764 -321t-317 -767zM604 1126q0 18 1 31t4 22t9 15 t14 12l294 196q3 3 9 5.5t14 4t20 2t30 0.5q25 0 40 -2t24 -5t12 -8.5t3 -13.5v-1280q0 -9 -4.5 -15t-14.5 -9.5t-26 -5t-39 -1.5q-22 0 -37.5 1.5t-25.5 5t-16 9.5t-6 15v1121l-245 -152q-18 -11 -29.5 -12.5t-19 4.5t-9.5 21.5t-2 38.5zM1287 739q0 152 23.5 278.5t77 217 t140 140t212.5 49.5q121 0 202.5 -44.5t132 -131t71.5 -213t21 -290.5q0 -153 -23 -278.5t-76.5 -216t-140 -140.5t-213.5 -50q-120 0 -202 45t-132.5 131.5t-71.5 212.5t-21 290zM1460 752q0 -148 15 -252.5t46.5 -170t81.5 -95t120 -29.5q55 0 97.5 18.5t72 52.5 t49.5 82.5t32 106.5t16 126t4 142q0 99 -7 178t-20 139.5t-34 104t-51 71.5t-67.5 41t-84.5 13q-83 0 -135.5 -41t-82.5 -112.5t-41 -168t-11 -206.5z" />
<glyph unicode="&#x246a;" horiz-adv-x="2785" d="M184 734q0 497 356 853t853 356t852.5 -356t355.5 -853t-356 -852.5t-852 -355.5q-497 0 -853 355.5t-356 852.5zM312 734q0 -447 316.5 -767t764.5 -320q446 0 763 320t317 767q0 446 -317 767t-763 321q-447 0 -764 -321t-317 -767zM660 1126q0 18 1.5 31t4.5 22 t8.5 15t13.5 12l294 196q3 3 9 5.5t14.5 4t20 2t30.5 0.5q25 0 39.5 -2t23.5 -5t12.5 -8.5t3.5 -13.5v-1280q0 -9 -5 -15t-15 -9.5t-26 -5t-38 -1.5t-38 1.5t-26 5t-15.5 9.5t-5.5 15v1121l-246 -152q-18 -11 -29.5 -12.5t-18.5 4.5t-9.5 21.5t-2.5 38.5zM1434 1126 q0 18 1 31t4 22t8.5 15t13.5 12l294 196q3 3 9 5.5t14.5 4t20 2t30.5 0.5q25 0 39.5 -2t24 -5t12.5 -8.5t3 -13.5v-1280q0 -9 -5 -15t-15 -9.5t-26 -5t-38 -1.5t-38 1.5t-26 5t-15.5 9.5t-5.5 15v1121l-246 -152q-18 -11 -29.5 -12.5t-18.5 4.5t-9 21.5t-2 38.5z" />
<glyph unicode="&#x246b;" horiz-adv-x="2785" d="M184 734q0 497 356 853t853 356t852.5 -356t355.5 -853t-356 -852.5t-852 -355.5q-497 0 -853 355.5t-356 852.5zM312 734q0 -447 316.5 -767t764.5 -320q446 0 763 320t317 767q0 446 -317 767t-763 321q-447 0 -764 -321t-317 -767zM604 1126q0 18 1 31t4 22t9 15 t14 12l294 196q3 3 9 5.5t14 4t20 2t30 0.5q25 0 40 -2t24 -5t12 -8.5t3 -13.5v-1280q0 -9 -4.5 -15t-14.5 -9.5t-26 -5t-39 -1.5q-22 0 -37.5 1.5t-25.5 5t-16 9.5t-6 15v1121l-245 -152q-18 -11 -29.5 -12.5t-19 4.5t-9.5 21.5t-2 38.5zM1323 157q0 20 1.5 35.5t6.5 27 t12.5 23.5t19.5 25l247 273q85 94 136.5 168.5t79.5 136t37 112t9 94.5t-14 83.5t-40 69t-65 47t-90 17.5q-60 0 -108 -17.5t-83.5 -38t-59.5 -38t-37 -17.5q-6 0 -11.5 4t-9 13.5t-5.5 24.5t-2 37q0 15 1 26.5t3.5 19.5t6.5 15.5t15.5 18t41 29t73 36.5t96 30t110.5 12 q93 0 162 -27t114.5 -74t68 -109.5t22.5 -133.5q0 -63 -10.5 -126t-45.5 -136.5t-101 -163t-174 -205.5l-202 -220h554q7 0 14.5 -4.5t13 -13.5t8 -23t2.5 -32t-2.5 -32.5t-7 -24.5t-12 -14.5t-15.5 -4.5h-704q-13 0 -23 3.5t-18 11.5t-11.5 23.5t-3.5 38.5z" />
<glyph unicode="&#x246c;" horiz-adv-x="2785" d="M184 734q0 497 356 853t853 356t852.5 -356t355.5 -853t-356 -852.5t-852 -355.5q-497 0 -853 355.5t-356 852.5zM312 734q0 -447 316.5 -767t764.5 -320q446 0 763 320t317 767q0 446 -317 767t-763 321q-447 0 -764 -321t-317 -767zM604 1126q0 18 1 31t4 22t9 15 t14 12l294 196q3 3 9 5.5t14 4t20 2t30 0.5q25 0 40 -2t24 -5t12 -8.5t3 -13.5v-1280q0 -9 -4.5 -15t-14.5 -9.5t-26 -5t-39 -1.5q-22 0 -37.5 1.5t-25.5 5t-16 9.5t-6 15v1121l-245 -152q-18 -11 -29.5 -12.5t-19 4.5t-9.5 21.5t-2 38.5zM1312 244q0 37 6.5 51t19.5 14 q8 0 34.5 -16.5t67.5 -35t95.5 -35t121.5 -16.5q65 0 114 17.5t82 49t50 75t17 94.5q0 56 -21 101.5t-62 78t-100.5 50t-134.5 17.5h-121q-8 0 -15.5 3.5t-13 12t-8.5 21.5t-3 35q0 19 2.5 32t8 20.5t12 11t16.5 3.5h111q65 0 116.5 17.5t87.5 50.5t55 78.5t19 101.5 q0 41 -13 78.5t-38.5 65t-65 43.5t-91.5 16q-57 0 -105 -18t-85 -38.5t-62 -38.5t-35 -18q-6 0 -11.5 2.5t-9 10.5t-5 21.5t-1.5 36.5q0 15 1 27t4 20.5t7 16t13 17t38 28t70.5 36.5t96 30t117.5 12q89 0 155.5 -23.5t111.5 -66.5t67 -103t22 -132q0 -62 -16 -116t-46 -95.5 t-74.5 -71t-102.5 -40.5v-2q66 -7 120.5 -34t93.5 -68t61 -96t22 -117q0 -91 -30 -164.5t-87 -125.5t-141 -80.5t-188 -28.5q-65 0 -120 11t-98.5 26t-72 30.5t-36 23t-11 14.5t-6.5 17.5t-4.5 25t-1.5 36.5z" />
<glyph unicode="&#x246d;" horiz-adv-x="2785" d="M184 734q0 497 356 853t853 356t852.5 -356t355.5 -853t-356 -852.5t-852 -355.5q-497 0 -853 355.5t-356 852.5zM312 734q0 -447 316.5 -767t764.5 -320q446 0 763 320t317 767q0 446 -317 767t-763 321q-447 0 -764 -321t-317 -767zM604 1126q0 18 1 31t4 22t9 15 t14 12l294 196q3 3 9 5.5t14 4t20 2t30 0.5q25 0 40 -2t24 -5t12 -8.5t3 -13.5v-1280q0 -9 -4.5 -15t-14.5 -9.5t-26 -5t-39 -1.5q-22 0 -37.5 1.5t-25.5 5t-16 9.5t-6 15v1121l-245 -152q-18 -11 -29.5 -12.5t-19 4.5t-9.5 21.5t-2 38.5zM1264 462q0 19 1 34.5t4 28.5 t7.5 24.5t11.5 24.5l458 805q5 8 14 14.5t24 10.5t37 5.5t51 1.5q33 0 57 -2.5t38.5 -6.5t22.5 -11t8 -16v-846h143q17 0 27.5 -17.5t10.5 -54.5q0 -34 -9.5 -53.5t-28.5 -19.5h-143v-279q0 -8 -3.5 -13.5t-14 -9.5t-26 -6t-39.5 -2t-39.5 2t-25 6t-13 9.5t-3.5 13.5v279 h-525q-11 0 -19.5 3t-14.5 11.5t-8.5 23.5t-2.5 40zM1418 529h416v727h-2z" />
<glyph unicode="&#x246e;" horiz-adv-x="2785" d="M184 734q0 497 356 853t853 356t852.5 -356t355.5 -853t-356 -852.5t-852 -355.5q-497 0 -853 355.5t-356 852.5zM312 734q0 -447 316.5 -767t764.5 -320q446 0 763 320t317 767q0 446 -317 767t-763 321q-447 0 -764 -321t-317 -767zM604 1126q0 18 1 31t4 22t9 15 t14 12l294 196q3 3 9 5.5t14 4t20 2t30 0.5q25 0 40 -2t24 -5t12 -8.5t3 -13.5v-1280q0 -9 -4.5 -15t-14.5 -9.5t-26 -5t-39 -1.5q-22 0 -37.5 1.5t-25.5 5t-16 9.5t-6 15v1121l-245 -152q-18 -11 -29.5 -12.5t-19 4.5t-9.5 21.5t-2 38.5zM1300 217q0 17 2 31t6 23t9 13 t12 4q9 0 30 -13t56 -28t86.5 -28t122.5 -13q66 0 121 16.5t94.5 51t62.5 87.5t23 128q0 63 -19.5 112t-59.5 81.5t-101 48t-144 15.5q-60 0 -103.5 -6t-81.5 -6q-28 0 -39.5 13.5t-11.5 51.5v539q0 34 15.5 50.5t43.5 16.5h564q8 0 15 -4.5t12 -14t7 -23.5t2 -34 q0 -37 -9.5 -57.5t-26.5 -20.5h-476v-371q35 5 71 6t83 1q110 0 191 -27t136 -77t82.5 -120.5t27.5 -156.5q0 -106 -34 -189.5t-97 -140t-150 -86.5t-193 -30q-59 0 -112.5 9t-94.5 21.5t-67.5 25t-34 19.5t-10 13.5t-5 15t-4 22t-1.5 31.5z" />
<glyph unicode="&#x246f;" horiz-adv-x="2785" d="M184 734q0 497 356 853t853 356t852.5 -356t355.5 -853t-356 -852.5t-852 -355.5q-497 0 -853 355.5t-356 852.5zM312 734q0 -447 316.5 -767t764.5 -320q446 0 763 320t317 767q0 446 -317 767t-763 321q-447 0 -764 -321t-317 -767zM604 1126q0 18 1 31t4 22t9 15 t14 12l294 196q3 3 9 5.5t14 4t20 2t30 0.5q25 0 40 -2t24 -5t12 -8.5t3 -13.5v-1280q0 -9 -4.5 -15t-14.5 -9.5t-26 -5t-39 -1.5q-22 0 -37.5 1.5t-25.5 5t-16 9.5t-6 15v1121l-245 -152q-18 -11 -29.5 -12.5t-19 4.5t-9.5 21.5t-2 38.5zM1310 693q0 85 8.5 172t31 168 t61.5 152t97.5 124t140.5 83.5t189 30.5q37 0 74.5 -4.5t68.5 -12t52.5 -17t29 -15t11 -12t5 -14.5t2.5 -17.5t1 -23.5q0 -18 -0.5 -31.5t-3.5 -22t-9 -12.5t-15 -4q-10 0 -29 7t-45 16t-64 16t-88 7q-92 0 -157.5 -39t-107.5 -104.5t-62 -152t-23 -180.5q26 15 57.5 30.5 t69 28t80 20t91.5 7.5q103 0 173.5 -29t114 -81t62.5 -122t19 -152q0 -87 -25.5 -168.5t-78.5 -143.5t-134.5 -99.5t-193.5 -37.5q-79 0 -140.5 20.5t-106.5 58.5t-74.5 93.5t-48 126t-26 154.5t-7.5 180zM1481 667q0 -132 15.5 -221.5t47 -143t77.5 -76.5t109 -23 q62 0 108 24.5t77 66t45 93.5t14 106q0 59 -11 107.5t-38 82.5t-71.5 52.5t-108.5 18.5q-37 0 -73.5 -7t-70 -18.5t-64.5 -27.5t-56 -34z" />
<glyph unicode="&#x2470;" horiz-adv-x="2785" d="M184 734q0 497 356 853t853 356t852.5 -356t355.5 -853t-356 -852.5t-852 -355.5q-497 0 -853 355.5t-356 852.5zM312 734q0 -447 316.5 -767t764.5 -320q446 0 763 320t317 767q0 446 -317 767t-763 321q-447 0 -764 -321t-317 -767zM604 1126q0 18 1 31t4 22t9 15 t14 12l294 196q3 3 9 5.5t14 4t20 2t30 0.5q25 0 40 -2t24 -5t12 -8.5t3 -13.5v-1280q0 -9 -4.5 -15t-14.5 -9.5t-26 -5t-39 -1.5q-22 0 -37.5 1.5t-25.5 5t-16 9.5t-6 15v1121l-245 -152q-18 -11 -29.5 -12.5t-19 4.5t-9.5 21.5t-2 38.5zM1293 1328q0 19 2.5 33.5t7.5 24.5 t12 14.5t16 4.5h741q14 0 24 -3t16 -12.5t8.5 -23.5t2.5 -37q0 -18 -1.5 -33t-3.5 -29t-7 -26.5l-11 -27.5l-458 -1099q-5 -12 -12 -20t-18 -12.5t-29 -6t-44 -1.5q-34 0 -52.5 3t-26.5 9.5t-7 16.5t6 23l483 1124h-611q-19 0 -28.5 20.5t-9.5 57.5z" />
<glyph unicode="&#x2471;" horiz-adv-x="2785" d="M184 734q0 497 356 853t853 356t852.5 -356t355.5 -853t-356 -852.5t-852 -355.5q-497 0 -853 355.5t-356 852.5zM312 734q0 -447 316.5 -767t764.5 -320q446 0 763 320t317 767q0 446 -317 767t-763 321q-447 0 -764 -321t-317 -767zM604 1126q0 18 1 31t4 22t9 15 t14 12l294 196q3 3 9 5.5t14 4t20 2t30 0.5q25 0 40 -2t24 -5t12 -8.5t3 -13.5v-1280q0 -9 -4.5 -15t-14.5 -9.5t-26 -5t-39 -1.5q-22 0 -37.5 1.5t-25.5 5t-16 9.5t-6 15v1121l-245 -152q-18 -11 -29.5 -12.5t-19 4.5t-9.5 21.5t-2 38.5zM1287 389q0 62 19.5 114.5 t56.5 96.5t91 82.5t122 73.5q-59 32 -104.5 67t-76.5 76.5t-47.5 88.5t-16.5 103q0 70 24 130.5t73 105.5t124 71t175 26q96 0 166.5 -24t116 -65.5t67.5 -97.5t22 -121q0 -52 -16.5 -100t-47.5 -91t-77 -80.5t-105 -70.5q70 -36 124.5 -73.5t91 -81.5t56 -92.5t19.5 -106.5 q0 -86 -29.5 -153t-85 -113t-137.5 -70t-186 -24q-98 0 -176 21.5t-132.5 63.5t-82.5 103.5t-28 140.5zM1458 406q0 -99 65 -153.5t195 -54.5q126 0 190.5 54.5t64.5 148.5q0 47 -17 85.5t-50.5 72t-84.5 64.5t-117 65q-62 -32 -109 -63.5t-76.5 -65.5t-45 -71t-15.5 -82z M1499 1100q0 -40 13.5 -74.5t41.5 -65t70.5 -60t101.5 -60.5q99 53 152 117.5t53 142.5q0 43 -13.5 77.5t-41.5 59.5t-69 37.5t-93 12.5q-105 0 -160 -50t-55 -137z" />
<glyph unicode="&#x2472;" horiz-adv-x="2785" d="M184 734q0 497 356 853t853 356t852.5 -356t355.5 -853t-356 -852.5t-852 -355.5q-497 0 -853 355.5t-356 852.5zM312 734q0 -447 316.5 -767t764.5 -320q446 0 763 320t317 767q0 446 -317 767t-763 321q-447 0 -764 -321t-317 -767zM604 1126q0 18 1 31t4 22t9 15 t14 12l294 196q3 3 9 5.5t14 4t20 2t30 0.5q25 0 40 -2t24 -5t12 -8.5t3 -13.5v-1280q0 -9 -4.5 -15t-14.5 -9.5t-26 -5t-39 -1.5q-22 0 -37.5 1.5t-25.5 5t-16 9.5t-6 15v1121l-245 -152q-18 -11 -29.5 -12.5t-19 4.5t-9.5 21.5t-2 38.5zM1297 985q0 88 25 167.5t76.5 140 t132.5 96t192 35.5q80 0 141.5 -21t106.5 -60t77 -95t51 -126.5t27.5 -153t8.5 -173.5q0 -86 -10 -174.5t-34 -169.5t-63 -152.5t-99.5 -124.5t-144 -83.5t-193.5 -30.5q-43 0 -82.5 6t-71.5 14t-53.5 17t-31.5 18.5t-14.5 25.5t-4.5 42q0 23 1.5 36t4.5 20.5t8.5 10 t13.5 2.5q11 0 30.5 -7.5t49.5 -17t70 -17t91 -7.5q95 0 163.5 38.5t111.5 103t65 149.5t24 179q-52 -32 -125 -56.5t-168 -24.5q-105 0 -177.5 30t-116.5 82.5t-63 124t-19 156.5zM1468 998q0 -60 12.5 -110t40 -85t71.5 -54t109 -19q74 0 143 23t119 61q0 131 -17 220.5 t-49 145t-80 80t-109 24.5q-63 0 -109 -24t-74.5 -64.5t-42.5 -91.5t-14 -106z" />
<glyph unicode="&#x2473;" horiz-adv-x="2785" d="M184 734q0 497 356 853t853 356t852.5 -356t355.5 -853t-356 -852.5t-852 -355.5q-497 0 -853 355.5t-356 852.5zM312 734q0 -447 316.5 -767t764.5 -320q446 0 763 320t317 767q0 446 -317 767t-763 321q-447 0 -764 -321t-317 -767zM681 157q0 20 1.5 35.5t5 27.5 t9.5 23.5t17 24.5l206 273q72 93 114.5 168t65.5 136.5t31 112t8 94.5q0 46 -10.5 86t-31 69t-51.5 45.5t-74 16.5q-49 0 -89.5 -17.5t-72 -38t-52.5 -38t-30 -17.5q-11 0 -18 17.5t-7 61.5q1 16 2 26.5t3 19t6 16t12 17.5q10 12 34.5 30.5t60 36t79.5 29.5t93 12 q77 0 135.5 -27t97 -74t58 -109.5t19.5 -133.5q0 -65 -9 -127t-37 -135.5t-82.5 -163t-145.5 -205.5l-170 -220h460q14 0 23 -18t9 -55q0 -76 -31 -76h-592q-23 0 -35 15.5t-12 61.5zM1439 739q0 156 19 282.5t63 216t116.5 138t180.5 48.5q100 0 168.5 -44.5t111 -131 t61 -213t18.5 -290.5q0 -157 -19 -283t-63 -215t-116.5 -138t-180.5 -49q-101 0 -170 44t-111 130.5t-60 213t-18 291.5zM1603 752q0 -148 10.5 -252.5t35 -170t63 -95t93.5 -29.5q65 0 106 41t63.5 112t30.5 167.5t8 207.5q0 148 -11 252.5t-35 170t-62.5 95t-94.5 29.5 q-65 0 -105.5 -41t-63 -112.5t-30.5 -168t-8 -206.5z" />
<glyph unicode="&#x24ea;" horiz-adv-x="2785" d="M184 734q0 497 356 853t853 356t852.5 -356t355.5 -853t-356 -852.5t-852 -355.5q-497 0 -853 355.5t-356 852.5zM312 734q0 -447 316.5 -767t764.5 -320q446 0 763 320t317 767q0 446 -317 767t-763 321q-447 0 -764 -321t-317 -767zM883 739q0 152 24.5 278.5t79.5 217 t145.5 140t221.5 49.5q126 0 211.5 -44.5t137.5 -131t74 -213t22 -290.5q0 -153 -24 -278.5t-80 -216t-146 -140.5t-222 -50q-125 0 -210.5 45t-137.5 131.5t-74 212.5t-22 290zM1063 752q0 -148 15.5 -252.5t48.5 -170t85 -95t125 -29.5q57 0 101 18.5t75 52.5t51.5 82.5 t33 106.5t17 126t4.5 142q0 99 -7 178t-21 139.5t-36 104t-53 71.5t-70 41t-89 13q-87 0 -141 -41t-85.5 -112.5t-42.5 -168t-11 -206.5z" />
<glyph unicode="&#x25cc;" horiz-adv-x="1121" d="M100 536l2 46h92l-4 -46l4 -54h-92zM118 403l83 35q13 -52 39 -92l-86 -35q-23 40 -36 92zM119 660q6 25 16 48t24 44l83 -36q-12 -20 -22.5 -42.5t-17.5 -48.5zM204 240l64 65q16 -20 36 -36t40 -29l-65 -65q-39 26 -75 65zM207 818q33 37 74 65l64 -63 q-20 -14 -39 -30.5t-36 -35.5zM348 924q22 12 45.5 19.5t46.5 14.5l35 -82q-24 -7 -47.5 -15t-45.5 -19zM349 135l34 84q24 -11 47.5 -18.5t46.5 -12.5l-35 -86q-24 6 -47.5 14t-45.5 19zM515 91v91l50 -3l49 3v-90l-49 -3q-38 1 -50 2zM515 883v90q25 4 50 4q26 0 49 -4 v-90q-13 1 -25 2t-24 1q-13 0 -25.5 -1t-24.5 -2zM651 189q24 6 47.5 15t44.5 21l34 -79q-42 -25 -92 -38zM655 874l34 83q24 -7 47 -15.5t44 -20.5l-32 -81q-43 23 -93 34zM777 246q20 14 40 30t36 35l58 -57q-35 -37 -72 -68zM781 818l63 62q40 -30 72 -67l-61 -61 q-16 18 -34.5 34.5t-39.5 31.5zM879 346q29 42 43 89l79 -32q-17 -46 -46 -89zM880 718l81 34q28 -43 43 -89l-81 -34q-15 49 -43 89zM933 482l4 49l-4 51h89l4 -51l-4 -49h-89z" />
<glyph unicode="&#x25fc;" horiz-adv-x="1090" d="M0 0v1091h1091v-1091h-1091z" />
<glyph unicode="&#x261c;" horiz-adv-x="2590" d="M73 880q0 25 11 43.5t30 32t44 22.5t54 15q30 2 58.5 4t60.5 5q60 4 82 5h937h135.5t148.5 -14q89 -16 191 -53.5t205 -106.5q37 -22 92 -25q32 -5 48.5 22.5t19.5 74.5h301v-701h-301v57h-63q-10 -6 -26 -14t-29 -17q-18 -11 -49 -25t-70 -35q-58 -25 -140 -47.5 t-192 -35.5q-50 -6 -128.5 -7.5t-159.5 -1.5h-65q-37 0 -72.5 0.5t-65.5 2t-54 3t-39 3.5h-18q-45 0 -94 25q-50 25 -67 82q-16 37 -3 61q28 40 -10 57q-31 12 -45 34q-35 40 -16 83q13 49 19 49v27q-12 0 -52 13q-32 10 -32 74q0 46 29 73q11 8 33 14.5t48 17.5q8 3 16 4 t16 5l-3 28h-450h-97.5t-101.5 14q-62 13 -99 43t-37 89zM151 880q0 -58 49 -82q40 -19 213 -20h575q13 25 32.5 53.5t33.5 51.5l89 72h-730q-137 0 -199.5 -15.5t-62.5 -59.5zM775 596q-3 -17 6.5 -32t29.5 -25.5t44 -10.5h418q34 22 21 67q-9 44 -83 60h-306 q-20 0 -51.5 -5t-58.5 -24h3q-20 -13 -23 -30zM848 408q0 -70 82 -70h318q17 0 38.5 3t40 9.5t31 19.5t12.5 31q0 22 -17 39t-38 25q-42 13 -67 13h-318q-82 0 -82 -70zM932.5 238.5q-1.5 -20.5 8.5 -41.5t33 -33q23 -13 71 -16t98 -3q25 0 54 1.5t51 4.5q16 3 29.5 3h29.5 q13 0 30.5 2.5t32.5 12t23.5 26t3.5 44.5q-1 13 -9.5 23t-20 15.5t-24.5 8.5t-23 3h-340q-24 0 -35 -15t-12.5 -35.5zM990 714q37 -13 69 -13.5t53 19.5q17 8 34.5 24.5t32.5 29.5v-3q5 7 11 13t8 11q32 34 62 34l10 -51q8 -4 17 -4h20q8 0 18 -3h11h22t22 7q15 3 30.5 8 t33.5 12q5 0 6.5 1t6.5 4h18q23 0 22 -5q5 -16 -3 -40q-13 -46 39 -93q25 -23 61.5 -42.5t86.5 -32.5h-2q41 -12 81 -22t79 -16q8 -3 16.5 -3t13.5 -4h-2q5 -3 16 -4t20 -4q16 -5 31.5 -11t15.5 -11t-89 -5q-83 0 -174 18q-69 20 -124.5 49.5t-91.5 69.5q-75 80 -74 101 q-11 -3 -27.5 -8.5t-28.5 -5.5h4l-117 10l-69 -28q75 -18 123 -44.5t65 -50.5q17 -29 7.5 -57.5t-31.5 -51.5q96 -47 96 -86q0 -47 -19 -60q-38 -30 17 -59q13 -8 24 -29t16 -45q-2 -30 -20 -54.5t-35 -40.5h144q122 11 219.5 35.5t173.5 59.5q145 70 169 92h82v428l-152 11 q-13 0 -31.5 11t-40.5 23q-18 5 -32.5 15.5t-36.5 23.5q-8 8 -19 15.5t-23 13.5q-86 57 -233 73q-144 16 -322 16q-19 -15 -37 -21.5t-45 -9.5q-6 -2 -10 -3.5l-12 -4.5q-17 -6 -32 -10t-29 -16q-34 -30 -64 -87v5q-11 -18 -31.5 -43.5t-49.5 -50.5zM2251 236h113v622h-113 v-622z" />
<glyph unicode="&#x261e;" horiz-adv-x="2585" d="M73 204v701h301q3 -47 20 -74.5t48 -22.5q55 3 93 25q102 70 204 107t191 53q82 13 149 13.5t135 0.5h937q22 0 82 -5q32 -3 60.5 -5t58.5 -4q29 -6 54 -15t44 -22.5t30 -32.5t11 -43q0 -58 -36.5 -88.5t-99.5 -43.5q-46 -13 -101 -13.5t-97 -0.5h-451l-3 -28 q8 -3 15.5 -4.5t16.5 -4.5q27 -11 48.5 -17.5t33.5 -14.5q29 -27 28 -73q0 -63 -31 -74q-40 -13 -53 -13v-27q5 0 19 -49q19 -43 -16 -83q-14 -22 -45 -34q-38 -17 -10 -57q13 -25 -3 -61q-16 -57 -67 -82q-49 -25 -94 -25h-18q-14 -2 -38.5 -3.5t-54.5 -3t-65.5 -2 t-72.5 -0.5h-65q-81 0 -159.5 1.5t-128.5 7.5q-110 13 -191.5 35.5t-140.5 47.5q-39 22 -69.5 35.5t-48.5 24.5q-13 8 -29.5 16.5t-26.5 14.5h-63v-57h-301zM200 236h113v622h-113v-622zM374 325h82q24 -22 169 -92q77 -36 174 -59.5t219 -35.5h144q-17 15 -35 40.5 t-20 54.5q5 24 16 45t24 29q55 29 17 59q-19 13 -19 60q0 39 96 86q-22 23 -31.5 51.5t8.5 57.5q16 25 64 50.5t123 44.5l-69 28l-116 -10h3q-11 0 -27.5 5t-28.5 9q0 -20 -74 -101q-36 -40 -91.5 -69t-123.5 -50q-91 -18 -175 -18q-89 0 -89 5t15.5 10.5t32.5 11.5 q8 3 19 4t16 4h-2q5 4 13.5 4t16.5 3q39 6 79 16t81 22h-2q50 13 87 32.5t61 42.5q52 47 39 93q-8 24 -3 40q0 5 23 5h17q5 -3 6.5 -4t6.5 -1q17 -7 32.5 -12t31.5 -8q10 -7 22 -7h22h11q10 3 18 3h19.5t17.5 4l11 51q30 -1 61 -34q2 -5 8 -11t11 -13v3q14 -13 32 -29.5 t35 -24.5q22 -19 53.5 -19.5t68.5 13.5q-29 26 -49.5 51t-31.5 43v-5q-30 57 -63 87q-14 12 -29.5 16t-32.5 10q-8 2 -11.5 4t-9.5 4q-28 3 -46 9.5t-37 21.5q-177 0 -322 -16q-147 -15 -233 -73q-11 -6 -22.5 -13.5t-19.5 -15.5q-22 -12 -36.5 -23t-32.5 -16 q-22 -11 -40 -22.5t-32 -11.5l-152 -11v-428zM1167 239q-5 -28 3.5 -44.5t23.5 -26t32.5 -12t30.5 -2.5h28.5t30.5 -3q23 -2 52 -4t53 -2q50 0 98.5 3t70.5 16q23 12 33 33t8.5 41.5t-12.5 35.5t-35 15h-340q-10 0 -23 -3t-24.5 -8.5t-20 -15.5t-9.5 -23zM1194 401 q0 -18 13 -31t31 -19.5t39 -9.5t39 -3h318q82 0 82 70q0 71 -82 70h-318q-25 0 -67 -13q-22 -8 -38.5 -25t-16.5 -39zM1270 595q-12 -45 21 -67h418q24 0 44.5 10.5t29.5 25.5t6.5 31.5t-23.5 30.5h3q-28 19 -59 24t-51 5h-306q-74 -16 -83 -60zM1421 955l89 -72 q13 -23 33 -51.5t33 -53.5h575q173 0 213 20q49 24 50 82q0 44 -62.5 59.5t-200.5 15.5h-730z" />
<glyph unicode="&#xa9e0;" horiz-adv-x="1217" d="M109 685q0 12 5.5 35t9.5 26q-2 2 10 20q34 39 59 68.5t44 48.5q127 138 348 142q139 4 243 -52q11 -2 29 -21q250 -143 261 -444q7 -73 -9.5 -141t-49.5 -127t-79.5 -107.5t-103.5 -76.5q-18 -36 -75 -41q-90 -31 -188 -35q-246 -7 -406 160q-14 16 -26.5 30.5 t-23.5 30.5q-37 57 -37 100q0 41 17 54q115 114 245 139q-124 20 -227 114q-46 23 -46 77zM293 700q75 -50 160 -50q47 0 90 17q131 44 168 179q-62 18 -126 18q-97 0 -165 -39q-44 -25 -117 -114zM299 285q18 -27 30 -35q108 -116 282 -112q47 0 98 13q-44 134 -173 171 q-45 10 -83 10q-83 0 -154 -47zM514 494q246 -39 337 -254q118 110 110 262q-13 152 -110 254q-59 -173 -255 -242q-41 -18 -82 -20z" />
<glyph unicode="&#xa9e1;" horiz-adv-x="2152" d="M100 299q0 85 82 85q20 0 44 -17.5t30 -35.5q99 -116 130 -140q67 -51 182 -51q154 0 260 106q102 101 115 258q8 152 -108 262q-79 -186 -273 -240q-72 -18 -131 -18q-171 0 -311 142q-16 11 -17 52q0 44 38 103q9 14 20.5 28.5t28.5 30.5q162 168 406 161 q95 -4 189 -37q54 -4 74 -39q57 -30 105 -78t79.5 -107t48.5 -127t10 -140q-10 -222 -159 -371q-154 -152 -375 -149q-221 7 -351 145q-6 8 -19.5 25t-36.5 40l-37 51h-4l-2 4l-2 4q-15 24 -16 53zM285 722q70 -48 151 -48q36 0 81 9q129 39 172 172q-47 11 -95 11 q-174 4 -282 -111q-13 -8 -27 -33zM947 467q0 70 76 82q60 14 92 -69q27 -65 91 -148q34 -45 66.5 -77.5t56.5 -47.5q94 -71 215 -71q182 0 285 153q61 89 61 200q0 196 -152 299q-112 76 -220 76q-38 0 -77 -11q-24 -7 -26 -9q-25 -20 -49 -21q-33 0 -59 25.5t-26 60.5 q0 40 34 66q23 17 77.5 32.5t119.5 15.5q169 0 319 -97q222 -155 222 -437q0 -159 -87 -294q-157 -223 -428 -223q-164 0 -306 97q-41 29 -80.5 69.5t-76.5 91.5q-37 60 -66 104t-44 72q-17 28 -18 61z" />
<glyph unicode="&#xa9e2;" horiz-adv-x="2153" d="M103 734q0 24 15 41q-4 0 -4 7q4 4 4 6l4 3q8 12 16 23t21 26q163 189 412 189q222 0 374 -155q153 -150 153 -368q0 -215 -155 -376q-157 -156 -372 -156q-290 0 -439 224q-26 37 -26 71q0 80 83 80q58 0 76 -60q2 -3 22 -29q89 -122 284 -122q147 0 254 110 q112 109 112 258q0 150 -108 254q-105 104 -258 104q-183 0 -285 -132q-4 -2 -11.5 -8.5t-12.5 -18.5v-6q-24 -49 -71 -49q-33 0 -60.5 25t-27.5 59zM947 457q0 70 76 82q60 14 92 -69q27 -66 91 -147q34 -45 66.5 -77.5t56.5 -49.5q94 -70 215 -70q182 0 285 154 q61 88 61 198q0 152 -90 248l-4 211q17 -11 35 -23q222 -153 222 -436q0 -158 -87 -294q-157 -221 -428 -221q-164 0 -306 95q-41 28 -80.5 70t-76.5 92q-37 61 -66 104.5t-44 71.5q-17 28 -18 61zM1317 981q-1 20 31 45q34 29 102 38q17 1 35 1.5t42 -1.5q232 -16 385 -208 q56 -76 91 -169q32 -45 17 -81q4 -19 6 -35l-163 -77q2 6 1 13q-195 -60 -360 55q-59 44 -96 89q-111 132 -91 330zM1478 902q6 -86 60 -149q23 -28 58 -57q113 -73 243 -20q-22 43 -52 80q-109 137 -266 145q-14 4 -43 1z" />
<glyph unicode="&#xa9e3;" horiz-adv-x="2110" d="M109 685q0 12 5.5 35t9.5 26q-2 2 10 20q34 39 59 68.5t44 48.5q127 138 348 142q139 4 243 -52q11 -2 29 -21q250 -143 261 -444q7 -73 -9.5 -141t-49.5 -127t-79.5 -107.5t-103.5 -76.5q-18 -36 -75 -41q-90 -31 -188 -35q-246 -7 -406 160q-14 16 -26.5 30.5 t-23.5 30.5q-37 57 -37 100q0 41 17 54q115 114 245 139q-124 20 -227 114q-46 23 -46 77zM293 700q75 -50 160 -50q47 0 90 17q131 44 168 179q-62 18 -126 18q-97 0 -165 -39q-44 -25 -117 -114zM299 285q18 -27 30 -35q108 -116 282 -112q47 0 98 13q-44 134 -173 171 q-45 10 -83 10q-83 0 -154 -47zM514 494q246 -39 337 -254q118 110 110 262q-13 152 -110 254q-59 -173 -255 -242q-41 -18 -82 -20zM977 508q11 222 159 371q157 151 376 146q220 -4 352 -142q5 -8 18 -24.5t36 -41.5l38 -49h4l1 -4l2 -4q18 -26 18 -55q0 -84 -84 -84 q-20 0 -43.5 17t-30.5 38q-96 115 -129 138q-67 50 -182 50q-155 0 -260 -104q-103 -102 -116 -258q-7 -153 110 -262q78 185 273 238q73 19 130 20q171 0 311 -143q17 -13 17 -54q0 -43 -38 -100q-11 -15 -21.5 -29.5t-27.5 -31.5q-161 -168 -407 -160q-95 5 -188 35 q-56 5 -73 41q-58 28 -106 76.5t-79.5 107.5t-48 127t-11.5 141zM1390 151q48 -12 95 -13q176 -4 283 112q12 8 29 35q-70 47 -153 47q-37 0 -82 -10q-128 -37 -172 -171z" />
<glyph unicode="&#xa9e4;" horiz-adv-x="2152" d="M100 489q0 282 223 437q147 97 317 97q67 0 121 -15.5t77 -32.5q34 -26 33 -66q0 -35 -26 -60.5t-58 -25.5q-26 0 -50 21q-3 2 -24 9q-39 11 -77 11q-109 0 -220 -76q-154 -103 -154 -299q0 -112 63 -200q102 -153 284 -153q119 0 215 71q24 15 56 47.5t65 77.5 q67 84 94 148q30 83 90 69q75 -12 75 -82q0 -34 -15 -61q-16 -28 -45 -71.5t-67 -104.5q-36 -51 -75 -92t-81 -69q-142 -96 -306 -97q-273 1 -429 223q-86 136 -86 294zM1051 508q10 222 157 371q156 151 377 146q220 -4 351 -142q5 -8 18.5 -24.5t37.5 -41.5l37 -49h4l2 -4 l2 -4q16 -26 16 -55q0 -84 -82 -84q-20 0 -44 17t-32 38q-97 115 -129 138q-66 50 -181 50q-155 0 -260 -104q-102 -102 -117 -258q-6 -153 110 -262q80 185 273 238q72 19 130 20q170 0 312 -143q17 -13 17 -54q0 -43 -38 -100q-10 -15 -21.5 -29.5t-28.5 -31.5 q-161 -168 -407 -160q-95 5 -187 35q-55 5 -74 41q-58 28 -105 76.5t-79.5 107.5t-49 127t-9.5 141zM1462 151q48 -12 96 -13q176 -4 283 112q12 8 29 35q-70 47 -154 47q-37 0 -82 -10q-128 -37 -172 -171z" />
<glyph unicode="&#xa9e5;" horiz-adv-x="2" d="M-1203 1128q36 121 130 214q147 152 362 152q211 0 360 -152q95 -93 131 -214h-189q-23 52 -65 96q-99 101 -237 101q-144 0 -241 -101q-45 -43 -69 -96h-182zM-990 1714q0 166 116 283.5t285 117.5q162 0 280 -117.5t118 -283.5h-177q0 91 -65 159.5t-159 68.5 q-97 0 -163 -68.5t-66 -159.5q0 -94 66 -162t163 -68l3 -169q-169 0 -285 116.5t-116 282.5z" />
<glyph unicode="&#xa9e6;" horiz-adv-x="2" d="M-1156 1553q6 30 44 45l630 282q26 8 47 4q19 -6 36 -33.5t11 -50.5q-8 -38 -37 -48l-630 -283q-33 -9 -50 -4q-24 6 -39 33.5t-12 54.5zM-1057 1337q7 31 43 45l630 283q26 8 46 4q25 -6 39 -34t8 -52q-6 -37 -38 -48l-625 -283q-34 -6 -51 -2q-28 6 -42 34t-10 53z" />
<glyph unicode="&#xa9e7;" horiz-adv-x="2177" d="M121 475v62q0 287 299 450q118 49 236 49q287 0 449 -242h7q160 243 448 242q340 0 492 -307q44 -100 44 -225v-4q0 -374 -363 -508q-88 -20 -141 -21h-16q-9 0 -16 -4q-189 19 -190 44q-26 26 -29 54v32q0 51 77 76q84 -28 142 -28h4q248 0 343 254q11 57 11 105 q0 249 -250 342q-51 13 -97 13h-3q-4 0 -4 3l-9 -3h-15q-244 0 -343 -278q-19 -65 -19 -117v-1220h124q73 -13 72 -72v-12q0 -62 -84 -76h-185q-85 0 -85 76v1271q0 256 -117 338q-100 90 -225 90h-41q-223 0 -323 -234q-16 -55 -16 -102v-30q0 -104 153 -191 q141 -104 141 -185q0 -105 -124 -157q-26 -8 -52 -12q-176 0 -243 92q-7 13 -7 25v28q24 73 73 73h23q23 0 96 -53q9 0 17 -4q13 8 20 8v4q0 3 -201 166q-73 100 -73 188z" />
</font>
</defs>
</svg>
