<?xml version="1.0" standalone="no"?>
<!DOCTYPE svg PUBLIC "-//W3C//DTD SVG 1.1//EN" "http://www.w3.org/Graphics/SVG/1.1/DTD/svg11.dtd" >
<svg xmlns="http://www.w3.org/2000/svg" xmlns:xlink="http://www.w3.org/1999/xlink" version="1.1">
<metadata></metadata>
<defs>
<font id="myanmar_nayoneregular" horiz-adv-x="1228" >
<font-face units-per-em="2048" ascent="1536" descent="-512" />
<missing-glyph horiz-adv-x="512" />
<glyph unicode="&#x103e;&#x102f;" horiz-adv-x="0" d="M-1077 -604q0 154 88 153h63q45 0 45 41v297q0 72 103 72q102 0 102 -72v-399q0 -246 -250 -246h-63q-88 0 -88 154zM-553 -113q0 72 102 72t103 -72v-297q0 -41 45 -41h63q88 0 88 -153q0 -154 -88 -154h-63q-250 0 -250 246v399z" />
<glyph unicode="&#x1085;&#x1036;" horiz-adv-x="0" d="M-1010 1311q0 102 90 153q-90 51 -90 154q0 205 195 205q96 0 162 -6q57 -8 57 -70v-18q-10 -117 -53 -117h-6q-49 6 -140 6q-31 0 -30 -41q0 -41 110 -41q63 0 64 -72q0 -72 -64 -71q-111 0 -110 -41q0 -41 30 -41q90 0 140 6h6q43 0 53 -115v-20q0 -61 -57 -68 q-66 -8 -162 -8q-195 0 -195 205zM-598 1464q0 205 190 205t191 -205q0 -205 -191 -204q-190 0 -190 204zM-469 1464q0 -61 61 -61q62 0 62 61t-62 62q-61 0 -61 -62z" />
<glyph unicode="&#x1085;&#x102d;" horiz-adv-x="0" d="M-1100 1311q0 102 90 153q-90 51 -90 154q0 205 195 205q96 0 162 -6q57 -8 57 -70v-18q-10 -117 -53 -117h-6q-49 6 -140 6q-31 0 -30.5 -41t110.5 -41q63 0 64 -72q0 -72 -64 -71q-111 0 -110.5 -41t30.5 -41q90 0 140 6h6q43 0 53 -115v-20q0 -61 -57 -68 q-66 -8 -162 -8q-195 0 -195 205zM-680 1464q1 359 277 359t276 -359q0 -358 -276 -358t-277 358zM-516 1464q0 -113 113 -112q113 0 112 112q1 113 -112 113t-113 -113z" />
<glyph unicode="&#x1085;&#x102e;" horiz-adv-x="0" d="M-1100 1311q0 102 90 153q-90 51 -90 154q0 205 195 205q96 0 162 -6q57 -8 57 -70v-18q-10 -117 -53 -117h-6q-49 6 -140 6q-31 0 -30.5 -41t110.5 -41q63 0 64 -72q0 -72 -64 -71q-111 0 -110.5 -41t30.5 -41q90 0 140 6h6q43 0 53 -115v-20q0 -61 -57 -68 q-66 -8 -162 -8q-195 0 -195 205zM-680 1464q1 359 277 359t276 -359q0 -358 -276 -358t-277 358zM-526 1442q57 31 123 31q65 0 122 -31v16q0 109 -122 109q-123 0 -123 -109v-16zM-506 1368q31 -47 103 -47t100 47q-43 33 -100 33q-60 0 -103 -33z" />
<glyph unicode="&#x102d;&#x1036;" horiz-adv-x="0" d="M-1092 1464q1 359 277 359t276 -359q0 -358 -276 -358t-277 358zM-928 1464q0 -113 113 -112q113 0 113 112q0 113 -113 113t-113 -113zM-516 1464q0 205 190 205t191 -205q0 -205 -191 -204q-190 0 -190 204zM-387 1464q0 -61 61 -61q62 0 62 61t-62 62q-61 0 -61 -62z " />
<glyph unicode="&#x100d;&#x1039;&#x100d;" d="M82 16v521q0 33 102 32q102 0 107 -16q49 -53 323 -53q328 0 328 145t-328 146q-274 0 -323 -54q-4 -16 -107 -16q-102 0 -102 33v2q49 309 532 309q532 0 533 -420q0 -420 -533 -420q-201 0 -327 54v-105q135 -47 327 -47q299 0 457 113l76 -29v-660q0 -104 102 -104 q61 0 62 -102q0 -102 -62 -103q-165 0 -241 72q6 -10 6 -29q0 -43 -37 -43h-135q-176 0 -176 39v17q-90 -20 -174 -21q-281 2 -338 64l-21 22v209q0 18 51 18q123 0 138.5 -7t169.5 -7q174 0 174 55t-174 56q-154 0 -169.5 -17.5t-138.5 -17.5q-51 0 -51 39q0 166 359 166 q358 0 358 -226q0 -225 -358 -225q-84 0 -175 37v-43q59 -33 175 -35q137 0 319 74h39v-109h123q14 0 22 -6q-53 61 -53 164v436q-141 -39 -328 -39q-348 0 -532 131z" />
<glyph unicode="&#x100e;&#x1039;&#x100d;" horiz-adv-x="1740" d="M82 532q0 145 285 267h-203q-82 0 -82 133t82 133h215q172 0 172 -150v-253q-264 -100 -264 -130q0 -184 583 -184q66 0 123 2v45q-61 -8 -106 -8q-246 2 -295 74q-10 12 -10 28q0 18 10 41q8 25 26 25q16 0 37 -20q47 -43 232 -46q190 0 276 89h35v-209q256 41 256 163 q0 201 -172 226q-66 4 -65 155q0 152 96 152h14q332 -55 332 -533q0 -408 -461 -503v-439q0 -41 45 -41h64q88 0 88 -153q0 -154 -88 -154h-64q-250 0 -250 246v516q-59 -4 -123 -4q-788 0 -788 532zM573 801q0 262 314 262q311 0 311 -193q0 -43 -45 -43 q-106 0 -119.5 12.5t-146.5 12.5q-154 0 -154 -51q0 -53 154 -53q133 0 146.5 12t119.5 12q45 0 45 -43q0 -193 -311 -192q-313 0 -314 264z" />
<glyph unicode="&#x100f;&#x1039;&#x100d;" horiz-adv-x="2088" d="M82 532q0 532 461 533q182 0 293 -84q61 84 208 84t209 -84q111 84 293 84q461 0 461 -533q0 -309 -172 -438q82 -2 82 -35v-73q0 -293 -223 -293q-39 0 -39 -27v-129q0 -295 -221 -295h-490q-57 0 -82 88q-8 33 -8 56q0 106 35 108q80 8 80 107q0 92 -174 92t-174 -92 q0 -98 79 -107q35 -2 35 -108q0 -23 -8 -56q-25 -88 -82 -88h-12q-197 33 -197 359q0 358 359 358q358 0 358 -358q0 -68 -14 -93h295q37 0 36 50v108q0 293 224 293q39 0 39 27v53q-100 -39 -238 -39q-63 0 -63 154t63 153q307 0 307 225h2q0 184 -256 185 q-358 0 -358 -185q0 -106 86 -215v-143q0 -174 -232 -174q-231 0 -231 174v143q86 109 86 215q0 184 -358 185q-256 0 -256 -185h2q0 -225 307 -225q63 0 63 -153q0 -154 -63 -154q-512 0 -512 532zM911 901q92 -131 93 -369q0 -150 -89 -260q4 -68 129 -67q126 -1 130 67 q-88 111 -89 260q0 238 93 369q-37 61 -134 62q-96 0 -133 -62z" />
<glyph unicode="&#x103e;&#x1030;" horiz-adv-x="0" d="M-1180 -604q0 154 88 153h64q45 0 45 41v297q0 72 102 72t103 -72v-399q0 -246 -250 -246h-64q-88 0 -88 154zM-717 -96q1 55 103 55t102 -55v-604q0 -57 -102 -58q-102 0 -103 58v604zM-451 -113q0 72 103 72q102 0 102 -72v-297q0 -41 45 -41h64q88 0 88 -153 q0 -154 -88 -154h-64q-250 0 -250 246v399z" />
<glyph unicode="&#x102b;&#x103a;" horiz-adv-x="368" d="M-512 1370q0 412 399 412q197 0 297 -111q100 111 297 111q399 0 400 -412q0 -66 -103 -65q-102 0 -102 65q0 63 -195 64q-195 0 -194 -109v-1276q0 -49 -103 -49q-102 0 -102 49v1276q0 109 -195 109t-194 -64q0 -66 -103 -65q-102 0 -102 65z" />
<glyph unicode="&#x103d;&#x1037;" horiz-adv-x="0" d="M-1075 -399q0 358 358 358t359 -358q0 -358 -359 -359q-358 0 -358 359zM-891 -399q0 -113 174 -113t174 113q0 112 -174 112t-174 -112zM-338 -266q0 205 195 205t194 -205q0 -205 -194 -205q-195 0 -195 205zM-205 -266q0 -61 62 -62q61 1 61 62t-61 61t-62 -61z" />
<glyph unicode="&#xd;" horiz-adv-x="1040" />
<glyph unicode=" "  horiz-adv-x="512" />
<glyph unicode="&#x09;" horiz-adv-x="512" />
<glyph unicode="&#xa0;" horiz-adv-x="512" />
<glyph unicode="&#x1000;" horiz-adv-x="2088" d="M82 532q0 532 532 533q299 0 430 -168q131 168 431 168q532 0 532 -533q0 -532 -532 -532q-68 0 -68 154t68 153q328 0 327 225q0 184 -327 185q-328 0 -328 -185q0 -477 -352 -532h-15q-96 0 -96 152t66 155q192 24 192 225q0 184 -328 185q-328 0 -327 -185 q0 -201 192 -225q66 -4 66 -155q0 -152 -96 -152h-15q-352 55 -352 532z" />
<glyph unicode="&#x1001;" d="M82 391q0 127 280 127q236 0 474 -168q106 55 106 182q0 184 -328 185q-274 0 -323 -68q-4 -20 -107 -20q-102 0 -102 41v4q49 391 532 391q532 0 533 -533q0 -532 -533 -532q-483 0 -532 391zM291 414q51 -106 323 -107q62 0 111 8q-178 100 -363 101q-41 0 -71 -2z" />
<glyph unicode="&#x1002;" d="M82 532q0 533 532 533t533 -533q0 -477 -352 -532h-15q-96 0 -96 152t66 155q193 25 192 225q0 184 -328 185q-328 0 -327 -185q0 -201 192 -225q66 -4 66 -155q0 -152 -96 -152h-15q-352 55 -352 532z" />
<glyph unicode="&#x1003;" horiz-adv-x="2088" d="M82 532q0 145 285 267h-203q-82 0 -82 133t82 133h215q172 0 172 -150v-253q-264 -100 -264 -130q-1 -184 327 -184t328 184q0 201 -172 226q-66 4 -65 155q0 152 96 152h14q332 -55 332 -533q0 -184 328 -184t327 184q0 225 -327 226q-68 0 -68 153q0 154 68 154 q532 0 532 -533q0 -532 -532 -532q-299 0 -431 168q-131 -168 -430 -168q-532 0 -532 532z" />
<glyph unicode="&#x1004;" d="M82 532q0 533 532 533q483 0 533 -391v-4q0 -41 -103 -41q-102 0 -106 20q-49 68 -324 68q-328 0 -327 -185q0 -184 327 -184q274 0 324 68q4 20 106 20t103 -41v-4q-49 -391 -533 -391q-532 0 -532 532z" />
<glyph unicode="&#x1005;" d="M82 532q0 533 532 533t533 -533q0 -532 -533 -532q-532 0 -532 532zM287 532q0 -117 129 -159q35 68 35 159q0 92 -35 160q-129 -43 -129 -160zM522 352q43 -4 92 -4q328 0 328 184t-328 185q-49 0 -92 -4q31 -78 31 -181q0 -102 -31 -180z" />
<glyph unicode="&#x1006;" horiz-adv-x="2088" d="M82 391q0 127 280 127q236 0 474 -168q106 55 106 182q0 184 -328 185q-274 0 -323 -68q-4 -20 -107 -20q-102 0 -102 41v4q49 391 532 391q299 0 430 -168q131 168 431 168q532 0 532 -533q0 -532 -532 -532q-299 0 -431 168q-131 -168 -430 -168q-483 0 -532 391z M291 414q51 -106 323 -107q62 0 111 8q-178 100 -363 101q-41 0 -71 -2zM1147 532q0 -184 328 -184t327 184q1 185 -327 185t-328 -185z" />
<glyph unicode="&#x1007;" d="M82 532q0 532 532 533q483 0 533 -391v-4q0 -23 -21 -29q72 -86 201 -102l-12 -103q-190 25 -264 135q-2 2 -4 2q-55 -53 -164 -53q-225 0 -226 225v13h-43q-328 0 -327 -226q0 -184 327 -184q274 0 324 68q4 20 106 20t103 -41v-4q-49 -391 -533 -391q-532 0 -532 532z M760 745q0 -123 123 -122q43 0 69 14q-12 4 -14 12q-35 76 -178 99v-3z" />
<glyph unicode="&#x1008;" horiz-adv-x="1597" d="M82 532q0 532 532 533q532 0 533 -533q0 -448 -379 -520v-405q0 -57 121 -58h301q121 0 121 58v1411q0 47 102 47t103 -47v-1411q0 -365 -326 -365h-301q-326 0 -326 365v395q-481 25 -481 530zM287 532q0 -117 129 -159q35 68 35 159q0 92 -35 160q-129 -43 -129 -160z M522 352q43 -4 92 -4q328 0 328 184t-328 185q-49 0 -92 -4q31 -78 31 -181q0 -102 -31 -180z" />
<glyph unicode="&#x1009;" d="M82 -393v788q0 41 102 41t107 -20q49 -68 323 -68q328 0 328 184t-328 185q-274 0 -323 -68q-4 -20 -107 -20q-102 0 -102 41v4q49 391 532 391q532 0 533 -533q0 -532 -533 -532q-200 0 -327 68v-461q0 -57 141 -58h723q139 0 139 58v278q0 74 103 74q102 0 102 -74 v-278q0 -365 -344 -365h-723q-346 0 -346 365z" />
<glyph unicode="&#x100a;" horiz-adv-x="2088" d="M82 -393v788q0 41 102 41t107 -20q49 -68 323 -68q328 0 328 184t-328 185q-274 0 -323 -68q-4 -20 -107 -20q-102 0 -102 41v4q49 391 532 391q533 -1 533 -533q0 -184 328 -184t327 184q0 225 -327 226q-68 0 -68 153q0 154 68 154q532 0 532 -533q0 -532 -532 -532 q-299 0 -431 168q-131 -168 -430 -168q-201 0 -327 68v-461q0 -57 141 -58h1235q139 0 139 58v278q0 74 103 74q102 0 102 -74v-278q0 -365 -344 -365h-1235q-346 0 -346 365z" />
<glyph unicode="&#x100b;" d="M82 -18l76 36q158 -141 456 -141q193 0 328 60v131q-127 -68 -328 -68q-532 0 -532 532t532 533q483 0 533 -391v-4q0 -41 -103 -41q-102 0 -106 20q-49 68 -324 68q-328 0 -327 -185q0 -184 327 -184q274 0 324 68q4 20 106 20t103 -41v-454q-184 -166 -533 -166 q-186 0 -327 49v-133q143 -39 327 -39q332 0 533 131v-232q0 -104 102 -104q61 0 62 -102q0 -102 -62 -103q-303 0 -307 240q-145 -35 -328 -35q-322 0 -532 109v426z" />
<glyph unicode="&#x100c;" d="M82 -432q0 326 346 326h186q66 0 66 -134q0 -133 -66 -133h-186q-141 0 -141 -59t141 -60h375q139 0 139 99v461q-127 -68 -328 -68q-532 0 -532 532t532 533q483 0 533 -391v-4q0 -41 -103 -41q-102 0 -106 20q-49 68 -324 68q-328 0 -327 -185q0 -184 327 -184 q274 0 324 68q4 20 106 20t103 -41v-788q0 -365 -344 -365h-375q-346 0 -346 326z" />
<glyph unicode="&#x100d;" d="M82 -264v655v4q0 41 102 41t107 -20q49 -68 323 -68q328 0 328 184t-328 185q-274 0 -323 -68q-4 -20 -107 -20q-102 0 -102 41v4q49 391 532 391q532 0 533 -533q0 -532 -533 -532q-201 0 -327 68v-131q135 -59 327 -60q299 0 457 141l76 -36v-431q0 -104 102 -104 q61 0 62 -102q0 -102 -62 -103q-307 0 -307 246v131q-141 -49 -328 -49q-348 0 -532 166z" />
<glyph unicode="&#x100e;" d="M82 532q0 145 285 267h-203q-82 0 -82 133t82 133h215q172 0 172 -150v-253q-264 -100 -264 -130q-1 -184 327 -184t328 184q0 201 -172 226q-66 4 -65 155q0 152 96 152h14q332 -55 332 -533q0 -532 -533 -532q-532 0 -532 532z" />
<glyph unicode="&#x100f;" horiz-adv-x="2088" d="M82 532q0 532 461 533q182 0 293 -84q61 84 208 84t209 -84q111 84 293 84q461 0 461 -533q0 -532 -512 -532q-63 0 -63 154t63 153q307 0 307 225h2q0 184 -256 185q-358 0 -358 -185q0 -106 86 -215v-143q0 -174 -232 -174q-231 0 -231 174v143q86 109 86 215 q0 184 -358 185q-256 -1 -256 -185h2q0 -225 307 -225q63 0 63 -153q0 -154 -63 -154q-512 0 -512 532zM911 901q92 -131 93 -369q0 -150 -89 -260q4 -68 129 -67q126 -1 130 67q-88 111 -89 260q0 238 93 369q-37 61 -134 62q-96 0 -133 -62z" />
<glyph unicode="&#x1010;" horiz-adv-x="2088" d="M82 532q0 532 532 533q299 0 430 -168q131 168 431 168q532 0 532 -533q0 -532 -532 -532q-68 0 -68 154t68 153q328 0 327 225q0 184 -327 185q-328 -1 -328 -185q0 -532 -533 -532q-532 0 -532 532zM287 532q0 -184 327 -184q328 0 328 184q0 185 -328 185t-327 -185z " />
<glyph unicode="&#x1011;" horiz-adv-x="2088" d="M82 532q0 532 532 533q299 0 430 -168q131 168 431 168q532 0 532 -533q0 -532 -532 -532q-299 0 -431 168q-131 -168 -430 -168q-532 0 -532 532zM287 532q0 -184 327 -184q328 0 328 184q0 185 -328 185t-327 -185zM1147 532q0 -184 328 -184t327 184q1 185 -327 185 t-328 -185z" />
<glyph unicode="&#x1012;" d="M82 369q0 47 102 47t103 -47q0 -61 327 -62q328 0 328 62q0 59 -266 71q-61 0 -62 92q1 93 62 93q266 12 266 73q0 59 -328 60q-328 0 -327 -62q0 -47 -103 -47q-102 0 -102 47q0 369 532 369t533 -313q0 -147 -178 -220q178 -70 178 -219q0 -313 -533 -313 q-532 0 -532 369z" />
<glyph unicode="&#x1013;" d="M82 532q0 533 532 533t533 -533q0 -532 -533 -532q-532 0 -532 532zM287 532q0 -72 32 -120q109 100 295 100t295 -100q33 49 33 120q0 184 -328 185q-328 0 -327 -185zM406 342q80 -35 208 -35q129 0 209 35q-80 68 -209 68q-128 0 -208 -68z" />
<glyph unicode="&#x1014;" d="M82 307q0 205 266 205q336 0 367 -205q166 8 166 62q0 57 -297 158.5t-297 250.5q0 287 307 287q348 0 348 -277q0 -31 -96 -51q-39 -8 -66 -8q-41 0 -57 19q-27 31 -129 30q-61 0 -62 -41q0 -29 307.5 -131t307.5 -237q0 -352 -430 -369v-707q0 -51 -103 -51 q-102 0 -102 51v707q-430 14 -430 307zM287 369q0 -56 223 -62q-31 102 -162 103q-61 0 -61 -41z" />
<glyph unicode="&#x1015;" d="M82 532q0 477 352 533h15q96 0 96 -152t-66 -155q-193 -25 -192 -226q0 -184 327 -184q328 0 328 184q0 201 -192 226q-66 4 -66 155q0 152 96 152h15q352 -55 352 -533q0 -532 -533 -532q-532 0 -532 532z" />
<glyph unicode="&#x1016;" d="M82 532q0 477 352 533h15q96 0 96 -152t-66 -155q-193 -25 -192 -226q0 -184 327 -184q144 0 226 35q-168 211 -168 504q0 98 25.5 138t76.5 40h21q352 -55 352 -533q0 -532 -533 -532q-532 0 -532 532zM782 752q29 -182 133 -308q27 37 27 88q0 183 -160 220z" />
<glyph unicode="&#x1017;" d="M82 532q0 477 352 533h15q96 0 96 -152q-1 -75 -17 -114q35 -14 86 -15q51 0 86 15q-16 39 -16 114q0 152 96 152h15q352 -55 352 -533q0 -532 -533 -532q-532 0 -532 532zM287 532q0 -184 327 -184q328 0 328 184q0 164 -129 211q-68 -61 -199 -61q-130 0 -198 61 q-129 -47 -129 -211z" />
<glyph unicode="&#x1018;" horiz-adv-x="2088" d="M82 391v4q0 41 102 41t107 -20q49 -68 323 -68q328 0 328 184t-328 185q-274 0 -323 -68q-4 -20 -107 -20q-102 0 -102 41v4q49 391 532 391q299 0 430 -168q131 168 431 168q532 0 532 -533q0 -532 -532 -532q-68 0 -68 154t68 153q328 0 327 225q0 184 -327 185 q-328 0 -328 -185q0 -532 -533 -532q-483 0 -532 391z" />
<glyph unicode="&#x1019;" d="M82 532q0 477 352 533h15q96 0 96 -152t-66 -155q-193 -25 -192 -226q0 -72 32 -120q109 100 295 100t295 -100q33 49 33 120q0 201 -192 226q-66 4 -66 155q0 152 96 152h15q352 -55 352 -533q0 -532 -533 -532q-532 0 -532 532zM406 342q80 -35 208 -35q129 0 209 35 q-80 68 -209 68q-128 0 -208 -68z" />
<glyph unicode="&#x101a;" horiz-adv-x="2088" d="M82 532q0 477 352 533h15q96 0 96 -152t-66 -155q-193 -25 -192 -226q0 -184 327 -184q328 0 328 184q0 201 -192 226q-66 4 -66 155q0 152 96 152h15q352 -55 352 -533q0 -184 328 -184t327 184q0 225 -327 226q-68 0 -68 153q0 154 68 154q532 0 532 -533 q0 -532 -532 -532q-300 0 -431 168q-131 -168 -430 -168q-532 0 -532 532z" />
<glyph unicode="&#x101b;" d="M82 532q0 532 532 533q533 -1 533 -533v-878q0 -104 123 -105q82 0 82 -153q0 -154 -82 -154q-328 0 -328 246v1044q0 184 -328 185q-309 0 -325 -164h8q211 0 338 -84q63 -41 106 -104q43 -61 43 -113v-98q0 -154 -170 -154q-532 0 -532 532zM301 451q51 -143 313 -144 h35q-6 12 -26 33q-37 37 -84 61q-95 50 -238 50z" />
<glyph unicode="&#x101c;" horiz-adv-x="2088" d="M82 532q0 532 532 533q533 -1 533 -533q0 -184 328 -184t327 184q0 225 -327 226q-68 0 -68 153q0 154 68 154q532 0 532 -533q0 -532 -532 -532t-533 532q0 184 -328 185q-328 0 -327 -185q0 -225 327 -225q68 0 68 -153q0 -154 -68 -154q-532 0 -532 532z" />
<glyph unicode="&#x101d;" d="M82 532q0 533 532 533t533 -533q0 -532 -533 -532q-532 0 -532 532zM287 532q0 -184 327 -184q328 0 328 184q0 185 -328 185t-327 -185z" />
<glyph unicode="&#x101e;" horiz-adv-x="2088" d="M82 391v4q0 41 102 41t107 -20q49 -68 323 -68q328 0 328 184t-328 185q-274 0 -323 -68q-4 -20 -107 -20q-102 0 -102 41v4q49 391 532 391q532 0 533 -533q0 -184 328 -184t327 184q0 225 -327 226q-68 0 -68 153q0 154 68 154q532 0 532 -533q0 -532 -532 -532 q-299 0 -431 168q-131 -168 -430 -168q-483 0 -532 391z" />
<glyph unicode="&#x101f;" horiz-adv-x="2088" d="M82 532q0 477 352 533h15q96 0 96 -152t-66 -155q-193 -25 -192 -226q0 -184 327 -184q328 0 328 184q0 201 -192 226q-66 4 -66 155q0 152 96 152h15q172 -27 260 -156q133 156 420 156q532 0 532 -533q0 -532 -532 -532q-68 0 -68 154t68 153q328 0 327 225 q0 184 -327 185q-328 -1 -328 -185q0 -532 -533 -532q-532 0 -532 532z" />
<glyph unicode="&#x1020;" d="M82 -18l76 36q158 -141 456 -141q193 0 328 60v131q-127 -68 -328 -68q-532 0 -532 532t532 533q483 0 533 -391v-4q0 -41 -103 -41q-102 0 -106 20q-49 68 -324 68q-328 0 -327 -185q0 -184 327 -184q274 0 324 68q4 20 106 20t103 -41v-557q-184 -166 -533 -166 q-186 0 -327 49v-114q0 -119 139 -119h375q141 0 141 70v86q0 45 102 45t103 -45v-86q0 -315 -346 -316h-375q-344 0 -344 365v375z" />
<glyph unicode="&#x1021;" horiz-adv-x="2088" d="M82 369q0 47 102 47t103 -47q0 -61 327 -62q328 0 328 62q0 59 -266 71q-61 0 -62 92q0 92 62 93q266 12 266 73q0 59 -328 60q-328 0 -327 -62q0 -47 -103 -47q-102 0 -102 47q0 369 532 369q342 0 465 -129q133 129 396 129q532 0 532 -533q0 -532 -532 -532 q-170 0 -170 154v98q0 51 43 113q43 63 106 104q127 84 338 84h8q-16 164 -325 164q-300 0 -390 -113q-43 -43 -116 -72q178 -70 178 -219q0 -313 -533 -313q-532 0 -532 369zM1440 307h35q262 0 313 144q-144 -1 -238 -50q-47 -25 -84 -61q-20 -20 -26 -33z" />
<glyph unicode="&#x1022;" horiz-adv-x="2088" d="M82 133q0 133 82 133h203q-285 121 -285 266q0 532 532 533q299 0 430 -168q131 168 431 168q532 0 532 -533q0 -532 -532 -532q-68 0 -68 154t68 153q328 0 327 225q0 184 -327 185q-328 0 -328 -185q0 -477 -332 -532h-14q-96 0 -96 152t65 155q172 25 172 225 q0 184 -328 185q-327 -1 -327 -185q0 -29 264 -129v-253q0 -150 -172 -150h-215q-82 0 -82 133z" />
<glyph unicode="&#x1023;" horiz-adv-x="2088" d="M82 532q0 532 461 533q182 0 293 -84q61 84 208 84t209 -84q111 84 293 84q461 0 461 -533q0 -532 -512 -532q-63 0 -63 154t63 153q307 0 307 225h2q0 184 -256 185q-358 0 -358 -185q0 -106 86 -215v-143q0 -174 -232 -174q-231 0 -231 174v143q86 109 86 215 q0 184 -358 185q-256 -1 -256 -185h2q0 -225 307 -225q63 0 63 -153q0 -154 -63 -154q-512 0 -512 532zM430 -399q0 358 358 358q166 0 256 -78q90 78 256 78q358 0 359 -358q0 -88 -21 -154h105q70 0 69 -102q0 -102 -69 -103h-443q-31 0 -61 4q-27 4 -27 74v31q6 96 84 96 h4q174 0 175 154q0 154 -175 153q-104 0 -167 -26q14 -57 14 -127q0 -326 -197 -359h-12q-57 0 -82 88q-8 33 -8 56q0 45 35 47q80 8 80 168q0 154 -175 153q-174 0 -174 -153q0 -160 80 -168q35 -2 35 -47q0 -23 -8 -56q-25 -88 -82 -88h-12q-197 33 -197 359zM911 901 q92 -131 93 -369q0 -150 -89 -260q4 -68 129 -67q126 -1 130 67q-88 111 -89 260q0 238 93 369q-37 61 -134 62q-96 0 -133 -62z" />
<glyph unicode="&#x1024;" horiz-adv-x="2457" d="M82 -432q0 326 346 326h1141q74 0 73 -123q0 -123 -73 -123h-1141q-141 0 -141 -80t141 -80h1235q139 0 139 119v925q0 184 -327 185q-328 0 -328 -185q0 -477 -352 -532h-15q-96 0 -96 152t66 155q193 25 192 225q0 184 -328 185q-328 0 -327 -185q0 -201 192 -225 q66 -4 66 -155q0 -152 -96 -152h-15q-352 55 -352 532q0 532 532 533q299 0 430 -168q131 168 431 168q532 0 532 -533v-925q0 -365 -344 -365h-1235q-346 0 -346 326zM1552 1464q0 358 359 359q397 0 444 -267v-8q0 -47 -100 -47t-118.5 27.5t-225.5 27.5q-154 0 -154 -92 t154 -92q465 0 465 -840v-1239q0 -51 -103 -51q-102 0 -102 51v1239q0 573 -260 574q-358 0 -359 358z" />
<glyph unicode="&#x1025;" d="M82 -393v788q0 41 102 41t107 -20q49 -68 323 -68q328 0 328 184t-328 185q-274 0 -323 -68q-4 -20 -107 -20q-102 0 -102 41v4q49 391 532 391q532 0 533 -533q0 -532 -533 -532q-201 0 -327 68v-461q0 -98 139 -99h375q141 0 141 60q0 59 -141 59h-187q-66 0 -65 133 q0 133 65 134h187q346 0 346 -326t-346 -326h-375q-344 0 -344 365z" />
<glyph unicode="&#x1026;" d="M82 -393v788q0 41 102 41t107 -20q49 -68 323 -68q328 0 328 184t-328 185q-274 0 -323 -68q-4 -20 -107 -20q-102 0 -102 41v4q49 391 532 391q532 0 533 -533q0 -532 -533 -532q-201 0 -327 68v-461q0 -98 139 -99h375q141 0 141 60q0 59 -141 59h-187q-66 0 -65 133 q0 133 65 134h187q346 0 346 -326t-346 -326h-375q-344 0 -344 365zM256 1464q0 359 358 359t359 -359q0 -358 -359 -358q-358 0 -358 358zM461 1462q0 -37 6 -63q47 82 147 82q103 0 148 -80q6 27 6 61q0 135 -154 135t-153 -135zM510 1323q39 -33 104 -33q66 0 105 33 q-29 68 -105 68q-75 0 -104 -68z" />
<glyph unicode="&#x1027;" d="M82 532q0 532 532 533q483 0 533 -371q0 -119 -281 -119q-235 0 -473 158q-106 -51 -106 -201t106 -200q238 158 473 157q281 0 281 -118q-49 -371 -533 -371q-532 0 -532 532zM504 299q49 -8 110 -8q272 0 324 100q-31 2 -72 2q-184 0 -362 -94zM504 766 q178 -94 362 -94q41 0 72 2q-51 100 -324 100q-61 0 -110 -8z" />
<glyph unicode="&#x1028;" d="M82 -225v757q0 532 532 533q532 0 533 -533q0 -532 -340 -532q-301 0 -301 264v68l82 39q129 57 129 121q0 82 -101 81q-104 0 -104 -98q0 -31 -51 -31t-51 31q0 201 206 201q203 0 203 -184q0 -96 -108 -170v-58q0 -18 96 -18q135 0 135 286q0 225 -328 226 q-328 0 -327 -226v-757q0 -225 327 -226q328 0 328 226q0 72 102 71q102 0 103 -71q0 -532 -533 -533q-532 0 -532 533z" />
<glyph unicode="&#x1029;" horiz-adv-x="2355" d="M82 -352v1769q0 406 346 406h1276q139 0 139 -174t-139 -174h-1276q-141 0 -141 -58v-1769q0 -57 141 -58h1174q139 0 139 58v358q-221 25 -328 162q-131 -168 -430 -168q-483 0 -532 391v4q0 41 102 41t106 -20q49 -68 324 -68q328 0 328 184t-328 185q-274 0 -324 -68 q-4 -20 -106 -20t-102 41v4q49 391 532 391q532 0 533 -533q0 -184 327 -184q328 0 328 184q0 225 -328 226q-68 0 -67 153q0 154 67 154q532 0 533 -533q0 -479 -430 -526v-358q0 -406 -344 -406h-1174q-346 0 -346 406z" />
<glyph unicode="&#x102a;" horiz-adv-x="4546" d="M82 532q0 532 532 533q483 0 533 -391v-4q0 -41 -103 -41q-102 0 -106 20q-49 68 -324 68q-328 0 -327 -185q0 -127 106 -182q237 168 473 168q281 0 281 -127q-49 -391 -533 -391q-532 0 -532 532zM504 315q49 -8 110 -8q272 0 324 107q-31 2 -72 2q-184 0 -362 -101z M1311 -352v1769q0 406 346 406h1276q139 0 139 -174t-139 -174h-1276q-141 0 -141 -58v-1769q0 -57 141 -58h1173q139 0 140 58v358q-221 25 -328 162q-131 -168 -430 -168q-483 0 -533 391v4q0 41 103 41q102 0 106 -20q49 -68 324 -68q328 0 328 184t-328 185 q-274 0 -324 -68q-4 -20 -106 -20t-103 41v4q49 391 533 391q532 0 532 -533q0 -184 328 -184t328 184q0 225 -328 226q-68 0 -68 153q0 154 68 154q299 0 430 -168q131 168 430 168q532 0 533 -533q0 -532 -533 -532q-68 0 -67 154q0 154 67 153q328 0 328 225 q0 184 -328 185q-328 -1 -328 -185q0 -479 -430 -526v-358q0 -406 -344 -406h-1173q-346 0 -346 406zM3400 1464q0 358 358 359q461 0 461 -334q0 -51 -103 -51q-102 0 -102 51q0 67 -256 67q-154 0 -154 -92t152 -137q84 -16 84 -149q0 -72 -82 -72q-358 0 -358 358z" />
<glyph unicode="&#x102b;" horiz-adv-x="368" d="M-512 1370q0 412 399 412t400 -457v-1276q0 -49 -103 -49q-102 0 -102 49v1276q0 109 -195 109t-194 -64q0 -66 -103 -65q-102 0 -102 65z" />
<glyph unicode="&#x102c;" horiz-adv-x="860" d="M-287 532q1 533 533 533t532 -533q0 -532 -532 -532q-68 0 -68 154t68 153q328 0 327 225q0 184 -327 185q-328 0 -328 -185h-205z" />
<glyph unicode="&#x102d;" horiz-adv-x="0" d="M-973 1464q1 359 359 359t358 -359q0 -358 -358 -358t-359 358zM-768 1464q0 -113 154 -112q154 0 153 112q1 113 -153 113t-154 -113z" />
<glyph unicode="&#x102e;" horiz-adv-x="0" d="M-973 1464q1 359 359 359t358 -359q0 -358 -358 -358t-359 358zM-768 1462q0 -37 6 -63q47 82 148 82q102 0 147 -80q6 27 6 61q0 135 -153 135q-154 0 -154 -135zM-719 1323q39 -33 105 -33t104 33q-29 68 -104 68q-76 0 -105 -68z" />
<glyph unicode="&#x102f;" horiz-adv-x="0" d="M-727 -113q0 72 102 72t103 -72v-297q0 -41 45 -41h63q88 0 88 -153q0 -154 -88 -154h-63q-250 0 -250 246v399z" />
<glyph unicode="&#x1030;" horiz-adv-x="0" d="M-881 -117q1 76 103 76t102 -76v-583q0 -57 -102 -58q-102 0 -103 58v583zM-553 -113q0 72 102 72t103 -72v-297q0 -41 45 -41h63q88 0 88 -153q0 -154 -88 -154h-63q-250 0 -250 246v399z" />
<glyph unicode="&#x1031;" d="M82 532q0 532 532 533q483 0 533 -391v-4q0 -41 -103 -41q-102 0 -106 20q-49 68 -324 68q-328 0 -327 -185q0 -127 106 -182q237 168 473 168q281 0 281 -127q-49 -391 -533 -391q-532 0 -532 532zM504 315q49 -8 110 -8q272 0 324 107q-31 2 -72 2q-184 0 -362 -101z " />
<glyph unicode="&#x1032;" horiz-adv-x="0" d="M-973 1696q0 8 4 18q8 27 45 64q35 35 62 45q8 2 14 2q18 0 33 -15l545 -544q14 -14 14 -31q0 -10 -4 -21q-6 -25 -41 -59q-37 -37 -64 -45q-10 -4 -18 -4q-16 0 -31 14l-544 545q-14 14 -15 31z" />
<glyph unicode="&#x1033;" horiz-adv-x="0" d="M-973 1464q1 359 359 359t358 -359q0 -358 -358 -358t-359 358zM-809 1464q0 -195 195 -194q195 0 194 194q1 195 -194 195t-195 -195zM-748 1464q1 133 134 133t133 -133t-133 -133t-134 133zM-653 1464q0 -31 39 -30q39 -1 39 30t-39 31t-39 -31z" />
<glyph unicode="&#x1034;" horiz-adv-x="0" d="M-973 1235q0 16 15 31l544 544q14 14 33 15q6 0 14 -2q27 -10 62 -45q37 -37 45 -64q4 -10 4 -18q0 -16 -14 -31l-545 -545q-14 -14 -31 -14q-8 0 -18 4q-27 8 -64 45q-35 35 -41 59q-4 10 -4 21z" />
<glyph unicode="&#x1035;" horiz-adv-x="0" d="M-973 1464q0 358 359 359q358 0 358 -293q0 -31 -74 -31q-76 0 -103.5 39t-180.5 39q-154 0 -154 -113q0 -43 20 -75q55 96 187 96q72 0 174 -58.5t102 -146.5q0 -174 -329 -174q-359 0 -359 358zM-678 1329q39 -18 64 -18q98 0 168 18q-53 53 -115 53q-86 0 -117 -53z " />
<glyph unicode="&#x1036;" horiz-adv-x="0" d="M-819 1311q0 205 205 205t204 -205q0 -205 -204 -205q-205 0 -205 205zM-676 1311q0 -61 62 -62q61 1 61 62t-61 61t-62 -61z" />
<glyph unicode="&#x1037;" horiz-adv-x="0" d="M-819 -246q0 205 205 205t204 -205q0 -205 -204 -205q-205 0 -205 205zM-676 -246q0 -61 62 -61q61 0 61 61t-61 62q-61 0 -62 -62z" />
<glyph unicode="&#x1038;" horiz-adv-x="573" d="M82 246q0 205 205 205t205 -205t-205 -205t-205 205zM82 819q0 205 205 205t205 -205t-205 -205t-205 205zM225 246q0 -61 62 -62q61 1 61 62t-61 61t-62 -61zM225 819q0 -61 62 -61q61 0 61 61t-61 62q-61 0 -62 -62z" />
<glyph unicode="&#x1039;" horiz-adv-x="0" d="M-850 -225h184v184h103v-184h184v-103h-184v-184h-103v184h-184v103z" />
<glyph unicode="&#x103a;" horiz-adv-x="0" d="M-973 1464q0 358 359 359q461 0 460 -334q0 -51 -102 -51t-102 51q0 67 -256 67q-154 0 -154 -92q0 -51 152 -96q84 -16 84 -139t-82 -123q-358 0 -359 358z" />
<glyph unicode="&#x103b;" horiz-adv-x="368" d="M-461 -113q0 72 103 72q102 0 102 -72v-276q0 -61 170 -62q168 0 168 62v1382q0 72 102 72t103 -72v-1382q0 -369 -373 -369q-375 0 -375 369v276z" />
<glyph unicode="&#x103c;" horiz-adv-x="368" d="M82 -352v1769q0 406 346 406h743q344 0 345 -406v-135q0 -94 -103 -94q-102 0 -102 94v135q0 57 -140 58h-743q-141 0 -141 -58v-1769q0 -57 141 -58h743q139 0 140 58v504q0 94 102 94t103 -94v-504q0 -406 -345 -406h-743q-346 0 -346 406z" />
<glyph unicode="&#x103d;" horiz-adv-x="0" d="M-973 -399q1 358 359 358t358 -358t-358 -359q-358 0 -359 359zM-768 -399q0 -92 154 -93q154 0 153 93q1 92 -153 92t-154 -92z" />
<glyph unicode="&#x103e;" horiz-adv-x="0" d="M-903 -604q0 154 88 153h63q45 0 45 41v297q0 72 103 72q102 0 102 -72v-399q0 -246 -250 -246h-63q-88 0 -88 154z" />
<glyph unicode="&#x103f;" horiz-adv-x="2949" d="M82 391v4q0 41 102 41t107 -20q49 -68 323 -68q328 0 328 184t-328 185q-274 0 -323 -68q-4 -20 -107 -20q-102 0 -102 41v4q49 391 532 391q532 0 533 -533q0 -184 328 -184t327 184q0 225 -327 226q-68 0 -68 153q0 154 68 154q532 0 532 -533q0 -184 328 -184t327 184 q0 225 -327 226q-68 0 -68 153q0 154 68 154q532 0 532 -533q0 -532 -532 -532q-299 0 -430 168q-131 -168 -430 -168t-431 168q-131 -168 -430 -168q-483 0 -532 391z" />
<glyph unicode="&#x1040;" d="M82 532q0 533 532 533t533 -533q0 -532 -533 -532q-532 0 -532 532zM287 532q0 -184 327 -184q328 0 328 184q0 185 -328 185t-327 -185z" />
<glyph unicode="&#x1041;" d="M82 391v4q0 41 102 41t107 -20q49 -68 323 -68q328 0 328 184t-328 185q-274 0 -323 -68q-4 -20 -107 -20q-102 0 -102 41v4q49 391 532 391q533 -1 533 -533t-533 -532q-483 0 -532 391z" />
<glyph unicode="&#x1042;" d="M82 -102q0 74 102 73q102 0 103 -73q0 -164 327 -164q328 0 328 184v1069q0 78 102 78t103 -78v-1069q0 -532 -533 -532q-532 0 -532 512z" />
<glyph unicode="&#x1043;" d="M82 391v4q0 41 102 41t107 -20q49 -68 323 -68q328 0 328 184t-328 185q-274 0 -323 -68q-4 -20 -107 -20q-102 0 -102 41v4q49 391 532 391q532 0 533 -533q0 -532 -533 -532h-20l364 -365q14 -14 15 -30q0 -10 -4 -21q-6 -25 -41 -59q-37 -37 -64 -45q-10 -4 -18 -4 q-16 0 -31 14l-545 545q-162 139 -188 356z" />
<glyph unicode="&#x1044;" d="M82 532q0 532 532 533q483 0 533 -391v-4q0 -41 -103 -41q-102 0 -106 20q-49 68 -324 68q-328 0 -327 -185q0 -184 327 -184q274 0 324 68q4 20 106 20t103 -41v-4q-27 -217 -189 -356l-544 -545q-14 -14 -31 -14q-8 0 -18 4q-27 8 -64 45q-35 35 -41 59q-4 10 -4 21 q0 16 14 30l365 365h-21q-532 0 -532 532z" />
<glyph unicode="&#x1045;" d="M82 -102q0 61 102 61t103 -61q0 -164 327 -164q328 0 328 184v614q0 184 -328 185q-154 0 -235 -41q113 -39 113 -191q0 -205 -205 -204q-205 0 -205 204v47q0 533 532 533t533 -533v-614q0 -532 -533 -532q-532 0 -532 512zM225 485q0 -61 62 -61q61 0 61 61t-61 62 q-61 0 -62 -62z" />
<glyph unicode="&#x1046;" d="M82 532v758q0 532 532 533q532 0 533 -533q0 -51 -103 -51q-102 0 -102 51q0 184 -328 185q-328 0 -327 -185v-758q0 -184 327 -184q328 0 328 184l-192 54q-279 55 -279 274q0 287 305 287q309 0 309 -324q0 -31 -102 -30q-102 0 -102 30q0 78 -105 78q-100 0 -100 -41 q0 -43 129 -72l342 -75v-181q0 -532 -533 -532q-532 0 -532 532z" />
<glyph unicode="&#x1047;" d="M82 532q0 532 532 533q532 0 533 -533q0 -274 -287 -498t-287 -382q0 -61 62 -62q61 0 61 62v51q0 72 103 72q102 0 102 -72v-51q0 -266 -266 -266q-225 0 -225 266q0 209 266 433t266 447q0 184 -328 185q-328 0 -327 -185q0 -201 192 -225q25 -2 25 -153 q0 -154 -55 -154h-15q-352 55 -352 532z" />
<glyph unicode="&#x1048;" d="M82 532q0 532 532 533q532 0 533 -533q0 -477 -352 -532h-15q-96 0 -96 152t66 155q193 25 192 225q0 184 -328 185q-143 0 -225 -35q168 -211 168 -504q0 -98 -25.5 -138t-76.5 -40h-21q-352 55 -352 532zM287 532q-1 -182 159 -219q-29 182 -133 308q-27 -37 -26 -89z " />
<glyph unicode="&#x1049;" d="M82 -225v757q0 532 532 533q532 0 533 -533v-180l-342 -149q-129 -57 -129 -101q0 -61 100 -61q104 0 105 98q0 31 102 31t102 -31q0 -283 -309 -282q-305 0 -305 245q0 219 279 338l192 92q0 184 -328 185q-328 0 -327 -185v-757q0 -184 327 -185q328 0 328 185 q0 51 102 51t103 -51q0 -532 -533 -533q-532 0 -532 533z" />
<glyph unicode="&#x104a;" horiz-adv-x="368" d="M82 61v943q0 61 102 61t103 -61v-943q0 -61 -103 -61q-102 0 -102 61z" />
<glyph unicode="&#x104b;" horiz-adv-x="696" d="M82 61v943q0 61 102 61t103 -61v-943q0 -61 -103 -61q-102 0 -102 61zM410 61v943q0 61 102 61t102 -61v-943q0 -61 -102 -61t-102 61z" />
<glyph unicode="&#x104c;" d="M82 -162v557q0 41 102 41t107 -20q49 -68 323 -68q328 0 328 184t-328 185q-274 0 -323 -68q-4 -20 -107 -20q-102 0 -102 41v4q49 391 532 391q532 0 533 -533q0 -532 -533 -532q-201 0 -327 68v-131q135 -59 327 -60q299 0 457 141l76 -36v-375q0 -365 -344 -365h-375 q-346 0 -346 316v86q0 45 102 45t103 -45v-86q0 -70 141 -70h375q139 0 139 119v114q-141 -49 -328 -49q-348 0 -532 166zM205 1464q0 358 358 359q461 0 461 -334q0 -51 -102 -51t-103 51q0 67 -256 67q-154 0 -153 -92q0 -92 151 -137q84 -16 84 -149q0 -72 -82 -72 q-358 0 -358 358z" />
<glyph unicode="&#x104d;" horiz-adv-x="1495" d="M82 -432q0 326 346 326h391q66 0 66 -134q0 -133 -66 -133h-391q-141 0 -141 -59t141 -60h743q139 0 140 99v925q0 573 -260 574q-358 0 -359 358q0 358 359 359q397 0 444 -267v-8q0 -68 -100 -67q-100 0 -119 37.5t-225 37.5q-154 0 -154 -92t154 -92q465 0 465 -840 v-925q0 -365 -345 -365h-743q-346 0 -346 326zM82 532q0 532 532 533q533 -1 533 -533v-983h-205v983q0 184 -328 185q-309 0 -325 -164h8q211 0 338 -84q63 -41 106 -104q43 -61 43 -113v-98q0 -154 -170 -154q-532 0 -532 532zM301 451q51 -143 313 -144h35q-6 12 -26 33 q-37 37 -84 61q-95 50 -238 50z" />
<glyph unicode="&#x104e;" d="M82 532q0 532 532 533q483 0 533 -391v-4q0 -41 -103 -41q-102 0 -106 20q-49 68 -324 68q-328 0 -327 -185q0 -184 327 -184q274 0 324 68q4 20 106 20t103 -41v-1085q0 -68 -103 -68q-102 0 -102 68v758q-127 -68 -328 -68q-532 0 -532 532z" />
<glyph unicode="&#x104f;" horiz-adv-x="1966" d="M82 532q0 532 532 533q228 0 359 -82q59 82 194 82q348 0 349 -375v-641q0 -49 -103 -49q-102 0 -102 49v641q0 68 -144 68q-14 0 -32 -4q8 -29 12 -60q0 -119 -281 -119q-236 0 -473 158q-106 -51 -106 -201t106 -200q238 158 473 157q281 0 281 -118 q-49 -371 -533 -371q-532 0 -532 532zM504 299q49 -8 110 -8q272 0 324 100q-31 2 -72 2q-184 0 -362 -94zM504 766q178 -94 362 -94q41 0 72 2q-51 100 -324 100q-61 0 -110 -8zM1061 1464q0 358 358 359q397 0 445 -267v-8q0 -68 -101 -67q-100 0 -118.5 37.5t-225.5 37.5 q-154 0 -153 -92q0 -92 153 -92q465 0 465 -676v-647q0 -49 -102 -49t-103 49v647q0 410 -260 410q-358 0 -358 358z" />
<glyph unicode="&#x1050;" d="M82 532q0 533 532 533t533 -533q0 -477 -352 -532h-15q-96 0 -96 152t66 155q193 25 192 225q0 184 -328 185q-328 0 -327 -185q0 -201 192 -225q66 -4 66 -155q0 -152 -96 -152h-15q-352 55 -352 532zM512 532q0 103 102 103t103 -103q0 -102 -103 -102q-102 0 -102 102 z" />
<glyph unicode="&#x1051;" d="M82 532q0 477 352 533h15q96 0 96 -152t-66 -155q-193 -25 -192 -226q0 -184 327 -184q328 0 328 184q0 201 -192 226q-66 4 -66 155q0 152 96 152h15q352 -55 352 -533q0 -532 -533 -532q-532 0 -532 532zM512 532q0 102 102 103q102 0 103 -103q0 -102 -103 -102 q-102 0 -102 102z" />
<glyph unicode="&#x1052;" d="M82 532q0 477 332 533h14q96 0 96 -152t-65 -155q-172 -25 -172 -226q0 -184 327 -184q328 0 328 184q0 29 -264 130v253q0 150 172 150h215q82 0 82 -133t-82 -133h-203q285 -121 285 -267q0 -532 -533 -532q-532 0 -532 532z" />
<glyph unicode="&#x1053;" d="M82 532q0 145 285 267h-203q-82 0 -82 133t82 133h215q172 0 172 -150v-253q-264 -100 -264 -130q-1 -184 327 -184t328 184q0 29 -264 130v253q0 150 172 150h215q82 0 82 -133t-82 -133h-203q285 -121 285 -267q0 -532 -533 -532q-532 0 -532 532z" />
<glyph unicode="&#x1054;" d="M82 532q0 532 532 533q483 0 533 -391q0 -127 -281 -127q-235 0 -473 168q-106 -55 -106 -183q0 -184 327 -184q274 0 324 68q4 20 106 20t103 -41v-4q-49 -391 -533 -391q-532 0 -532 532zM504 750q178 -100 362 -101q41 0 72 2q-51 106 -324 107q-61 0 -110 -8z" />
<glyph unicode="&#x1055;" d="M82 532q0 532 532 533q483 0 533 -391q0 -127 -281 -127q-236 0 -473 168q-106 -56 -106 -183q0 -225 102 -225q131 0 172 96q12 33 64 33q51 0 61 -33q29 -96 133 -96q70 0 111 96q12 33 114 33t103 -41q-49 -395 -287 -395q-168 0 -244 160q-76 -160 -227 -160 q-307 0 -307 532zM504 750q178 -100 362 -101q41 0 72 2q-51 106 -324 107q-61 0 -110 -8z" />
<glyph unicode="&#x1056;" horiz-adv-x="860" d="M-287 532h205q0 -184 328 -184q327 0 327 184q0 29 -264 130v253q0 150 172 150h215q82 0 82 -133t-82 -133h-202q285 -121 284 -267q0 -532 -532 -532t-533 532z" />
<glyph unicode="&#x1057;" horiz-adv-x="860" d="M-287 395q0 41 103 41q102 0 114 -33q41 -96 111 -96q104 0 133 96q10 33 62 33q51 0 63 -33q41 -96 172 -96q102 0 102 225q0 29 -264 130v253q0 150 172 150h215q82 0 82 -133t-82 -133h-202q284 -122 284 -267q0 -532 -307 -532q-152 0 -227 160q-76 -160 -244 -160 q-238 0 -287 395z" />
<glyph unicode="&#x1058;" horiz-adv-x="0" d="M-973 -399q1 358 359 358q330 0 329 -174q0 -88 -102 -146.5t-215 -58.5q-49 0 -166 96q-20 -33 -20 -75q0 -113 174 -113q113 0 153 47q14 31 111 31q94 0 94 -31q0 -293 -358 -293t-359 359zM-684 -264q45 -53 98 -53q92 0 140 53q-61 18 -150 18q-35 0 -88 -18z" />
<glyph unicode="&#x1059;" horiz-adv-x="0" d="M-973 -399q0 358 359 358q330 0 329 -174q0 -88 -102 -146.5t-215 -58.5q-90 0 -146 96q-20 -33 -20 -75q0 -113 31 -113q51 0 78.5 28.5t64.5 28.5q51 0 64.5 -28.5t58.5 -28.5q31 0 58.5 39t84.5 39q72 0 72 -72q0 -252 -215 -252q-82 0 -133 53q-53 -53 -154 -53 q-215 0 -215 359zM-670 -264q37 -53 113 -53q72 0 111 53q-49 18 -119 18q-61 0 -105 -18z" />
<glyph unicode="&#x105a;" d="M82 532q0 533 532 533q483 0 533 -391v-4q0 -41 -103 -41q-102 0 -106 20q-49 68 -324 68q-328 0 -327 -185q0 -184 327 -184q274 0 324 68q4 20 106 20t103 -41v-4q-49 -391 -533 -391q-532 0 -532 532zM338 -229q0 188 276 188t277 -215q0 -129 -123 -184.5t-123 -94.5 q0 -18 113 -18q68 0 67 -102q0 -102 -67 -103q-317 0 -318 223q0 102 123 151.5t123 127.5q0 51 -72 51t-71 -24q0 -47 -103 -47q-102 0 -102 47z" />
<glyph unicode="&#x105b;" horiz-adv-x="1597" d="M82 532q0 532 532 533q483 0 533 -391v-4q0 -23 -21 -29q68 -80 185 -100v477q0 47 102 47t103 -47v-1411q0 -365 -326 -365h-301q-326 0 -326 365v395q-481 25 -481 530zM287 532q0 -184 327 -184q274 0 324 68q4 20 106 20t103 -41v-4q-41 -324 -379 -379v-405 q0 -57 121 -58h301q121 0 121 58v829q-186 27 -260 135q-2 2 -4 2q-55 -53 -164 -53q-225 0 -226 225v13h-43q-328 0 -327 -226zM760 745q0 -123 123 -122q43 0 69 14q-12 4 -14 12q-35 76 -178 99v-3z" />
<glyph unicode="&#x105c;" d="M82 532q0 533 532 533t533 -533q0 -532 -533 -532q-532 0 -532 532zM287 532q0 -266 327 -266q328 0 328 266q0 267 -328 267t-327 -267zM369 532q-1 205 245 205t246 -205t-246 -204q-246 0 -245 204zM553 532q0 -61 61 -61q62 0 62 61t-62 62q-61 0 -61 -62z" />
<glyph unicode="&#x105d;" d="M82 -432q0 326 346 326h186q86 0 86 -134q0 -133 -86 -133h-186q-141 0 -141 -59t141 -60h375q139 0 139 99v213q0 154 -84 217q-102 -37 -244 -37q-532 0 -532 532q0 477 352 533h15q96 0 96 -152t-66 -155q-193 -25 -192 -226q0 -72 32 -120q109 100 295 100t295 -100 q33 49 33 120q0 201 -192 226q-66 4 -66 155q0 152 96 152h15q352 -55 352 -533q0 -264 -131 -397q131 -106 131 -315v-213q0 -365 -344 -365h-375q-346 0 -346 326zM406 342q80 -35 208 -35q129 0 209 35q-80 68 -209 68q-128 0 -208 -68z" />
<glyph unicode="&#x105e;" horiz-adv-x="0" d="M-1147 -432q0 326 346 326h508q-20 127 -121 167l199 72q111 -71 129 -239h106q66 0 66 -134q0 -133 -66 -133h-102v-20q0 -365 -344 -365h-375q-346 0 -346 326zM-942 -432q0 -59 141 -60h375q139 0 139 99v20h-514q-141 0 -141 -59z" />
<glyph unicode="&#x105f;" horiz-adv-x="0" d="M-932 -395q0 254 354 282v113l209 -2v-268l-184 2q-174 0 -174 -127q0 -86 113 -86t112 59q0 57 103 57q102 0 102 -57q0 -305 -317 -305t-318 332z" />
<glyph unicode="&#x1060;" horiz-adv-x="0" d="M-1022 -428l358 436l183 -166l-189 -252h361v-204h-568z" />
<glyph unicode="&#x1061;" d="M82 532q0 532 532 533q532 0 533 -533v-878q0 -104 123 -105q82 0 82 -153q0 -154 -82 -154q-328 0 -328 246v1044q0 184 -328 185q-309 0 -325 -164h8q211 0 338 -84q63 -41 106 -104q43 -61 43 -113v-764q0 -246 -249 -246h-64q-88 0 -88 154t88 153h64q45 0 45 41v410 q-498 18 -498 532zM301 451q51 -143 313 -144h35q-6 12 -26 33q-37 37 -84 61q-95 50 -238 50z" />
<glyph unicode="&#x1062;" horiz-adv-x="368" d="M-82 758v307h369v-1065h-205v758h-164z" />
<glyph unicode="&#x1063;" d="M82 395q0 41 102 41t107 -20q49 -68 323 -68q328 0 328 184t-328 185q-274 0 -323 -68q-4 -20 -107 -20q-102 0 -102 41v4q49 391 532 391q532 0 533 -533q0 -532 -533 -532q-200 0 -327 68v-758q0 -68 -103 -68q-102 0 -102 68v1085z" />
<glyph unicode="&#x1064;" horiz-adv-x="532" d="M0 758v307h369v-758h163v-307h-368v758h-164z" />
<glyph unicode="&#x1065;" d="M82 391v4q0 41 102 41t107 -20q49 -68 323 -68q328 0 328 184t-328 185q-274 0 -323 -68q-4 -20 -107 -20q-102 0 -102 41v4q49 391 532 391q533 -1 533 -533t-533 -532q-483 0 -532 391z" />
<glyph unicode="&#x1066;" d="M82 532q0 477 352 533h15q96 0 96 -152t-66 -155q-193 -25 -192 -226q0 -184 327 -184q328 0 328 184q0 201 -192 226q-66 4 -66 155q0 152 96 152h15q352 -55 352 -533q0 -360 -244 -477v-567q0 -246 -250 -246h-63q-88 0 -88 154t88 153h63q45 0 45 41v414 q-41 -4 -84 -4q-532 0 -532 532z" />
<glyph unicode="&#x1067;" horiz-adv-x="450" d="M-41 205q0 205 205 205v655h205v-860q0 -205 -205 -205t-205 205zM102 205q0 -61 62 -62q61 1 61 62t-61 61t-62 -61z" />
<glyph unicode="&#x1068;" horiz-adv-x="471" d="M0 0v205h164v860h205v-1065h-369zM61 1311q0 205 205 205t205 -205t-205 -205t-205 205zM205 1311q0 -61 61 -62q62 1 62 62t-62 61q-61 0 -61 -61z" />
<glyph unicode="&#x1069;" horiz-adv-x="598" d="M82 272q0 182 114.5 281.5t114.5 175.5q0 70 -137 70q-92 0 -92 133t92 133q342 0 342 -274q0 -182 -114.5 -281.5t-114.5 -175.5q0 -68 137 -68q92 0 92 -133t-92 -133q-342 0 -342 272z" />
<glyph unicode="&#x106a;" horiz-adv-x="368" d="M-348 436h205q-1 -88 112 -88t113 88v629h205v-629q0 -436 -318 -436q-317 0 -317 436z" />
<glyph unicode="&#x106b;" horiz-adv-x="368" d="M-348 629q0 436 317 436t318 -436v-629h-205v629q0 88 -113 88q-112 0 -112 -88h-205z" />
<glyph unicode="&#x106c;" horiz-adv-x="368" d="M82 436v629h205v-629q0 -88 112 -88q113 0 113 88h205q0 -436 -318 -436q-317 0 -317 436z" />
<glyph unicode="&#x106d;" horiz-adv-x="598" d="M82 133q0 133 92 133q137 0 137 68q0 76 -114.5 175.5t-114.5 281.5q0 274 342 274q92 0 92 -133t-92 -133q-137 0 -137 -70q0 -76 114.5 -175t114.5 -282q0 -272 -342 -272q-92 0 -92 133z" />
<glyph unicode="&#x106e;" horiz-adv-x="2580" d="M82 532q0 532 532 533q142 0 246 -39q104 39 246 39q299 0 430 -168q131 168 430 168q532 0 533 -533q0 -532 -533 -532q-68 0 -68 154t68 153q328 0 328 225q0 184 -328 185q-328 0 -328 -185q0 -477 -352 -532h-14q-96 0 -96 152t65 155q193 25 193 225q0 178 -308 185 q20 -82 21 -185q0 -477 -352 -532h-15q-96 0 -96 152t66 155q193 25 192 225q0 184 -328 185q-328 0 -327 -185q0 -201 192 -225q66 -4 66 -155q0 -152 -96 -152h-15q-352 55 -352 532z" />
<glyph unicode="&#x106f;" horiz-adv-x="2088" d="M82 532q0 477 352 533h15q96 0 96 -152t-66 -155q-193 -25 -192 -226q0 -184 327 -184q328 0 328 184q0 201 -192 226q-66 4 -66 155q0 152 96 152h15q172 -27 260 -156q133 156 420 156q532 0 532 -533q0 -442 -367 -516v-528q0 -246 -249 -246h-64q-88 0 -88 154 t88 153h64q45 0 45 41v428q-29 35 -29 136q0 154 68 153q328 0 327 225q0 184 -327 185q-328 0 -328 -185q0 -532 -533 -532q-532 0 -532 532z" />
<glyph unicode="&#x1070;" horiz-adv-x="2088" d="M82 532q0 145 285 267h-203q-82 0 -82 133t82 133h215q172 0 172 -150v-253q-264 -100 -264 -130q0 -184 327 -184q328 0 328 184q0 201 -172 226q-66 4 -65 155q0 152 96 152h14q332 -55 332 -533q0 -184 328 -184t327 184q0 225 -327 226q-68 0 -68 153q0 154 68 154 q532 0 532 -533q0 -442 -367 -516v-528q0 -246 -249 -246h-64q-88 0 -88 154t88 153h64q45 0 45 41v410q-268 10 -392 168q-131 -168 -430 -168q-532 0 -532 532z" />
<glyph unicode="&#x1071;" horiz-adv-x="0" d="M-1024 1485q0 205 190 205t191 -205q0 -205 -191 -205q-190 0 -190 205zM-895 1485q0 -61 61 -62q62 1 62 62t-62 61q-61 0 -61 -61zM-586 1485q1 205 191 205t190 -205t-190 -205t-191 205zM-457 1485q0 -61 62 -62q61 1 61 62t-61 61t-62 -61z" />
<glyph unicode="&#x1072;" horiz-adv-x="0" d="M-973 1464q0 358 359 359q358 0 358 -283q0 -31 -86 -31q-88 0 -103.5 23.5t-168.5 23.5q-174 0 -174 -92t174 -92q154 0 169 23.5t103 23.5q86 0 86 -30q0 -283 -358 -283t-359 358z" />
<glyph unicode="&#x1073;" horiz-adv-x="0" d="M-1257 1300l643 541l643 -541l-176 -174l-467 365l-469 -365z" />
<glyph unicode="&#x1074;" horiz-adv-x="0" d="M-973 1464q0 332 215 359h10q61 0 66 -92v-21q0 -141 -29 -143q-78 -8 -77 -103q0 -51 174 -51t174 51q0 94 -78 103q-29 2 -29 143v21q4 92 66 92h10q215 -27 215 -359q0 -358 -358 -358t-359 358z" />
<glyph unicode="&#x1075;" d="M82 133q0 133 82 133h203q-285 121 -285 266q0 532 532 533q532 0 533 -533q0 -477 -332 -532h-14q-96 0 -96 152t65 155q172 25 172 225q0 184 -328 185q-327 -1 -327 -185q0 -29 264 -129v-253q0 -150 -172 -150h-215q-82 0 -82 133z" />
<glyph unicode="&#x1076;" d="M-61 965v51q0 49 51 49t51 -49v-51q0 -119 82 -144q111 244 491 244q532 0 533 -533q0 -532 -533 -532q-483 0 -532 391q0 127 280 127q236 0 474 -168q106 55 106 182q0 184 -328 185q-274 0 -323 -68q-4 -20 -107 -20h-26q-18 0 -39 6q-9 2 -15 6q-37 14 -81 47 q-84 57 -84 277zM291 414q51 -106 323 -107q62 0 111 8q-178 100 -363 101q-41 0 -71 -2z" />
<glyph unicode="&#x1077;" d="M82 133q0 133 82 133h203q-285 121 -285 266q0 533 532 533t533 -533q0 -477 -352 -532h-21q-51 0 -76.5 40t-25.5 138q0 293 168 504q-82 35 -226 35q-328 0 -327 -185q0 -29 264 -129v-253q0 -150 -172 -150h-215q-82 0 -82 133zM782 313q160 37 160 219q0 51 -27 89 q-104 -125 -133 -308z" />
<glyph unicode="&#x1078;" horiz-adv-x="2088" d="M82 532q0 532 532 533q299 0 430 -168q131 168 431 168q532 0 532 -533q0 -532 -532 -532t-533 532q0 185 -328 185t-327 -185q0 -225 327 -225q68 0 68 -153q0 -154 -68 -154q-532 0 -532 532zM1147 532q0 -184 328 -184t327 184q0 184 -327 185q-328 -1 -328 -185z" />
<glyph unicode="&#x1079;" horiz-adv-x="2088" d="M82 532q0 533 532 533q299 0 430 -168q131 168 431 168q532 0 532 -533q0 -532 -532 -532t-533 532q0 184 -328 185q-309 0 -325 -164h8q211 0 338 -84q63 -41 106 -104q43 -61 43 -113v-98q0 -154 -170 -154q-532 0 -532 532zM301 451q51 -143 313 -144h35q-6 12 -26 33 q-37 37 -84 61q-95 50 -238 50zM1147 532q0 -184 328 -184t327 184q0 184 -327 185q-328 -1 -328 -185z" />
<glyph unicode="&#x107a;" horiz-adv-x="2088" d="M82 532q0 532 532 533q532 0 533 -533q0 -184 328 -184t327 184q0 225 -327 226q-68 0 -68 153q0 154 68 154q532 0 532 -533q0 -532 -532 -532q-203 0 -328 78v-488q0 -41 45 -41h63q88 0 88 -153q0 -154 -88 -154h-63q-250 0 -250 246v1044q0 184 -328 185 q-328 0 -327 -185q0 -225 327 -225q68 0 68 -153q0 -154 -68 -154q-532 0 -532 532z" />
<glyph unicode="&#x107b;" horiz-adv-x="2088" d="M82 532q0 532 532 533q299 0 430 -168q131 168 431 168q532 -1 532 -533t-532 -532q-170 0 -170 154v98q0 51 43 113q43 63 106 104q127 84 338 84h8q-16 164 -325 164q-328 0 -328 -185q0 -532 -533 -532q-532 0 -532 532zM287 532q0 -184 327 -184q328 0 328 184 q0 185 -328 185t-327 -185zM1440 307h35q262 0 313 144q-144 -1 -238 -50q-47 -25 -84 -61q-20 -20 -26 -33z" />
<glyph unicode="&#x107c;" horiz-adv-x="2088" d="M82 391q0 127 280 127q236 0 474 -168q106 55 106 182q0 184 -328 185q-274 0 -323 -68q-4 -20 -107 -20q-102 0 -102 41v4q49 391 532 391q299 0 430 -168q131 168 431 168q483 0 532 -391v-4q0 -41 -102 -41t-107 20q-49 68 -323 68q-328 -1 -328 -185q0 -127 106 -182 q238 168 473 168q281 0 281 -127q-49 -391 -532 -391q-299 0 -431 168q-131 -168 -430 -168q-483 0 -532 391zM291 414q51 -106 323 -107q62 0 111 8q-178 100 -363 101q-41 0 -71 -2zM1364 315q50 -8 111 -8q272 0 323 107q-31 2 -72 2q-184 0 -362 -101z" />
<glyph unicode="&#x107d;" horiz-adv-x="2088" d="M82 532q0 145 285 267h-203q-82 0 -82 133t82 133h215q172 0 172 -150v-253q-264 -100 -264 -130q0 -184 327 -184q328 0 328 184q0 532 533 533q483 0 532 -391v-4q0 -41 -102 -41t-107 20q-49 68 -323 68q-328 0 -328 -185q0 -127 106 -182q238 168 473 168 q281 0 281 -127q-49 -391 -532 -391q-300 0 -431 168q-131 -168 -430 -168q-532 0 -532 532zM1364 315q50 -8 111 -8q272 0 323 107q-31 2 -72 2q-184 0 -362 -101z" />
<glyph unicode="&#x107e;" horiz-adv-x="2088" d="M82 532q0 145 285 267h-203q-82 0 -82 133t82 133h215q172 0 172 -150v-253q-264 -100 -264 -130q0 -184 327 -184q328 0 328 184q0 532 533 533q483 0 532 -391v-4q0 -41 -102 -41t-107 20q-49 68 -323 68q-328 0 -328 -185q0 -127 106 -182q238 168 473 168 q281 0 281 -127q-41 -317 -367 -377v-526q0 -246 -249 -246h-64q-88 0 -88 154t88 153h64q45 0 45 41v410q-268 10 -392 168q-131 -168 -430 -168q-532 0 -532 532zM1364 315q50 -8 111 -8q272 0 323 107q-31 2 -72 2q-184 0 -362 -101z" />
<glyph unicode="&#x107f;" d="M82 532q0 477 352 533h21q51 0 76.5 -40t25.5 -138q0 -293 -168 -504q82 -35 225 -35q328 0 328 184q0 201 -192 226q-66 4 -66 155q0 152 96 152h15q352 -55 352 -533q0 -532 -533 -532q-532 0 -532 532zM287 532q0 -51 26 -88q104 125 133 308q-159 -38 -159 -220z" />
<glyph unicode="&#x1080;" horiz-adv-x="2088" d="M82 391q0 127 280 127q236 0 474 -168q106 55 106 182q0 184 -328 185q-274 0 -323 -68q-4 -20 -107 -20q-102 0 -102 41v4q49 391 532 391q532 0 533 -533q0 -184 328 -184t327 184q0 225 -327 226q-68 0 -68 153q0 154 68 154q532 0 532 -533q0 -532 -532 -532 q-300 0 -431 168q-131 -168 -430 -168q-483 0 -532 391zM291 414q51 -106 323 -107q62 0 111 8q-178 100 -363 101q-41 0 -71 -2z" />
<glyph unicode="&#x1081;" d="M82 532q0 532 532 533q532 0 533 -533q0 -477 -352 -532h-15q-96 0 -96 152t66 155q193 25 192 225q0 184 -328 185q-328 0 -327 -185q0 -201 192 -225q66 -4 66 -155v-664q0 -246 -250 -246h-64q-88 0 -88 154t88 153h64q45 0 45 41v435q-258 100 -258 507z" />
<glyph unicode="&#x1082;" horiz-adv-x="0" d="M-973 -399q0 358 359 358q176 0 239 -68q39 -43 39 -77q0 -23 -14 -39q-31 -100 -56 -101q-6 0 -12 4q-30 15 -196 15q-154 0 -154 -92t154 -93q133 0 148 44.5t114 44.5q96 0 96 -93q0 -262 -358 -262t-359 359z" />
<glyph unicode="&#x1083;" horiz-adv-x="532" d="M0 758v307h369v-1516h163v-307h-368v1516h-164z" />
<glyph unicode="&#x1084;" d="M82 313q0 150 178 219q-178 72 -178 220q0 313 532 313t533 -369q0 -47 -103 -47q-102 0 -102 47q0 61 -328 62q-328 0 -327 -60q0 -61 266 -73q61 -1 61 -93t-61 -92q-266 -12 -266 -71q0 -61 327 -62q328 0 328 62q0 47 102 47t103 -47q0 -369 -533 -369 q-532 0 -532 313z" />
<glyph unicode="&#x1085;" horiz-adv-x="0" d="M-877 1311q1 102 91 153q-90 51 -91 154q0 205 297 205q96 0 162 -6q57 -8 58 -107q0 -98 -54 -98h-6q-49 6 -160 6q-92 0 -92 -41t90 -41q63 0 64 -72q0 -72 -64 -71q-90 0 -90 -41t92 -41q111 0 160 6h6q53 0 54 -98q0 -98 -58 -105q-66 -8 -162 -8q-297 0 -297 205z " />
<glyph unicode="&#x1086;" horiz-adv-x="0" d="M-836 1186q170 49 220 166q-184 10 -185 204q0 205 205 205t205 -205v-65q0 -420 -309 -506zM-657 1556q0 -61 61 -61t61 61t-61 62q-61 0 -61 -62z" />
<glyph unicode="&#x1087;" horiz-adv-x="573" d="M47 -166q170 49 219 166q-184 10 -184 205q0 205 205 205t205 -205v-66q0 -420 -310 -506zM225 205q0 -61 62 -62q61 1 61 62t-61 61t-62 -61z" />
<glyph unicode="&#x1088;" horiz-adv-x="573" d="M47 -166q170 49 219 166q-184 10 -184 205q0 205 205 205t205 -205v-66q0 -420 -310 -506zM82 860q0 205 205 205t205 -205t-205 -205t-205 205zM225 205q0 -61 62 -62q61 1 61 62t-61 61t-62 -61zM225 860q0 -61 62 -61q61 0 61 61t-61 62q-61 0 -62 -62z" />
<glyph unicode="&#x1089;" horiz-adv-x="573" d="M82 205q0 205 205 205t205 -205t-205 -205t-205 205zM225 205q0 -61 62 -62q61 1 61 62t-61 61t-62 -61z" />
<glyph unicode="&#x108a;" horiz-adv-x="940" d="M82 205q0 205 205 205q195 0 205 -185q117 49 165 219l201 -135q-86 -309 -506 -309h-65q-205 0 -205 205zM82 825q0 205 205 205q195 0 205 -184q117 49 165 219l201 -135q-86 -309 -506 -309h-65q-205 0 -205 204zM225 205q0 -61 62 -62q61 1 61 62t-61 61t-62 -61z M225 825q0 -61 62 -61q61 0 61 61t-61 62q-61 0 -62 -62z" />
<glyph unicode="&#x108b;" horiz-adv-x="573" d="M82 532q0 205 205 205t205 -205t-205 -204q-205 0 -205 204zM225 532q0 -61 62 -61q61 0 61 61t-61 62q-61 0 -62 -62z" />
<glyph unicode="&#x108c;" horiz-adv-x="1064" d="M82 532q0 205 205 205t205 -205t-205 -204q-205 0 -205 204zM225 532q0 -61 62 -61q61 0 61 61t-61 62q-61 0 -62 -62zM573 532q0 205 205 205t205 -205t-205 -204q-205 0 -205 204zM717 532q0 -61 61 -61q62 0 62 61t-62 62q-61 0 -61 -62z" />
<glyph unicode="&#x108d;" horiz-adv-x="0" d="M-1075 -135h921v-287h-921v287z" />
<glyph unicode="&#x108e;" d="M82 532q0 532 532 533q532 0 533 -533q0 -532 -533 -532q-532 0 -532 532zM287 532q0 -184 327 -184q328 0 328 184q0 72 -33 121q-109 -100 -295 -100t-295 100q-33 -49 -32 -121zM406 723q79 -68 208 -68t209 68q-80 35 -209 35t-208 -35z" />
<glyph unicode="&#x108f;" horiz-adv-x="573" d="M82 139v66q0 205 205 205t205 -205q0 -195 -185 -205q49 -117 219 -166l-135 -201q-309 86 -309 506zM82 860q0 205 205 205t205 -205t-205 -205t-205 205zM225 205q1 -62 62 -62t61 62q0 61 -61 61t-62 -61zM225 860q1 -61 62 -61t61 61t-61 62q-61 0 -62 -62z" />
<glyph unicode="&#x1090;" d="M82 532q0 533 532 533t533 -533q0 -532 -533 -532q-532 0 -532 532zM287 532q0 -184 327 -184q328 0 328 184q0 185 -328 185t-327 -185z" />
<glyph unicode="&#x1091;" horiz-adv-x="757" d="M82 928l229 137h170v-719l142 84l53 -293l-230 -137h-170v719l-141 -84z" />
<glyph unicode="&#x1092;" d="M82 594v553h205v-232q131 150 327 150q532 0 533 -533q0 -274 -287 -498t-287 -444h-204q0 270 286.5 494.5t286.5 447.5q0 184 -328 185q-328 0 -327 -123h-205z" />
<glyph unicode="&#x1093;" horiz-adv-x="1198" d="M82 41l670 1497l196 -41l-192 -432h43q317 0 317 -354v-711h-205v711q0 47 -112 47h-172l-348 -758z" />
<glyph unicode="&#x1094;" horiz-adv-x="1019" d="M82 41l459 1024h202v-821l142 84l53 -191l-229 -137h-170v545l-220 -545z" />
<glyph unicode="&#x1095;" horiz-adv-x="983" d="M82 430q0 512 461 512h153v492h205v-492h103v-348h-103v-62q0 -532 -409 -532q-410 0 -410 430zM287 430q0 -82 205 -82t204 184v62h-153q-256 0 -256 -164z" />
<glyph unicode="&#x1096;" horiz-adv-x="983" d="M82 635q0 430 410 430t409 -533v-61h103v-348h-103v-492h-205v492h-153q-461 0 -461 512zM287 635q0 -164 256 -164h153v61q0 184 -204 185q-205 0 -205 -82z" />
<glyph unicode="&#x1097;" horiz-adv-x="983" d="M82 0v63l387 654h-387v348h819v-68l-383 -649h383v-348h-819z" />
<glyph unicode="&#x1098;" d="M82 532q0 227 98 359q-98 131 -98 358h205q-1 -184 327 -184t328 184h205q0 -227 -98 -358q98 -131 98 -359q0 -532 -533 -532q-532 0 -532 532zM287 532q0 -184 327 -184q328 0 328 184q0 185 -328 185t-327 -185z" />
<glyph unicode="&#x1099;" d="M82 0q0 227 98 358q-98 131 -98 359q0 532 532 532t533 -532q0 -227 -98 -359q98 -131 98 -358h-205q0 184 -328 184q-327 0 -327 -184h-205zM287 717q0 -184 327 -185q328 1 328 185t-328 184t-327 -184z" />
<glyph unicode="&#x109a;" horiz-adv-x="573" d="M82 860q0 205 205 205t205 -205t-205 -205t-205 205zM225 860q0 -61 62 -61q61 0 61 61t-61 62q-61 0 -62 -62z" />
<glyph unicode="&#x109b;" horiz-adv-x="573" d="M49 489q170 49 219 166q-184 10 -184 205q0 205 205 205t205 -205v-65q0 -420 -310 -506zM227 860q0 -61 62 -61q61 0 61 61t-61 62q-61 0 -62 -62z" />
<glyph unicode="&#x109c;" horiz-adv-x="880" d="M82 205q0 205 205 205h65q420 0 506 -310l-201 -135q-49 170 -165 219q-10 -184 -205 -184q-205 0 -205 205zM82 825q0 205 205 205h65q420 0 506 -309l-201 -135q-49 170 -165 219q-10 -184 -205 -184q-205 0 -205 204zM225 205q0 -61 62 -62q61 0 61 62q0 61 -61 61 t-62 -61zM225 825q0 -61 62 -61q61 0 61 61q0 62 -61 62t-62 -62z" />
<glyph unicode="&#x109d;" horiz-adv-x="0" d="M-717 1079q0 436 338 437q338 0 338 -457v-240h-205v240q0 108 -133 108t-133 -88h-205z" />
<glyph unicode="&#x109e;" horiz-adv-x="266" d="M-82 860v205h266v-1618h164v-205h-266v1618h-164zM-72 1311q0 205 205 205t205 -205t-205 -205t-205 205zM31 1311q0 -61 102 -62q103 1 103 62t-103 61q-102 0 -102 -61z" />
<glyph unicode="&#x109f;" horiz-adv-x="1597" d="M82 532q0 532 532 533q532 0 533 -533v-925q0 -57 82 -58q82 0 82 58v925q0 573 -260 574q-358 0 -359 358q0 358 359 359q397 0 444 -267v-8q0 -88 -100 -88t-119 48t-225 48q-154 0 -154 -92t154 -92q465 0 465 -840v-925q0 -365 -287 -365t-287 365v925 q0 184 -328 185q-328 0 -327 -185q0 -225 327 -225q68 0 68 -153q0 -154 -68 -154q-532 0 -532 532z" />
<glyph unicode="&#x2000;" horiz-adv-x="921" />
<glyph unicode="&#x2001;" horiz-adv-x="1843" />
<glyph unicode="&#x2002;" horiz-adv-x="921" />
<glyph unicode="&#x2003;" horiz-adv-x="1843" />
<glyph unicode="&#x2004;" horiz-adv-x="614" />
<glyph unicode="&#x2005;" horiz-adv-x="460" />
<glyph unicode="&#x2006;" horiz-adv-x="307" />
<glyph unicode="&#x2007;" horiz-adv-x="307" />
<glyph unicode="&#x2008;" horiz-adv-x="230" />
<glyph unicode="&#x2009;" horiz-adv-x="368" />
<glyph unicode="&#x200a;" horiz-adv-x="102" />
<glyph unicode="&#x202f;" horiz-adv-x="368" />
<glyph unicode="&#x205f;" horiz-adv-x="460" />
<glyph unicode="&#x25cc;" horiz-adv-x="1218" d="M102 535q0 49 52 49q49 0 49 -49t-49 -50q-51 0 -52 50zM139 360q0 51 49 52q50 -1 50 -52q0 -49 -50 -49q-49 0 -49 49zM139 709q0 49 49 49q50 0 50 -49q0 -51 -48 -52q-51 0 -51 52zM238 211q0 51 49 51q51 0 51 -51q0 -49 -51 -49q-49 0 -49 49zM238 854q0 53 49 53 q51 0 51 -51q0 -49 -51 -49q-49 0 -49 47zM385 113q0 51 49 51q51 0 51 -47q0 -51 -51 -51q-49 0 -49 47zM385 954q0 51 49 52q51 -1 51 -52q0 -49 -51 -49q-49 0 -49 49zM559 80q0 49 49 49t49 -49q0 -51 -49 -51t-49 51zM559 991q0 49 49 49t49 -49q0 -51 -49 -51t-49 51z M733 113q0 51 51 51q47 0 47 -51q0 -47 -47 -47q-51 0 -51 47zM733 954q0 51 51 52q47 -1 47 -52q0 -49 -47 -49q-51 0 -51 49zM881 211q0 51 51 51q49 0 49 -51q0 -49 -49 -49q-51 0 -51 49zM881 856q0 51 51 51q49 0 49 -51q0 -49 -49 -49q-51 0 -51 49zM979 360 q0 51 49 52q51 -1 51 -52q0 -49 -51 -49q-49 0 -49 49zM979 709q0 49 51 49q49 0 49 -49q0 -51 -51 -52q-49 0 -49 52zM1016 535q0 49 51 49q49 0 49 -49t-49 -50q-51 0 -51 50z" />
<glyph unicode="&#x25fc;" horiz-adv-x="1024" d="M0 0z" />
<glyph unicode="&#xaa60;" horiz-adv-x="2088" d="M82 532q0 532 532 533q299 0 430 -168q131 168 431 168q532 0 532 -533q0 -532 -532 -532q-170 0 -170 154v98q0 51 43 113q43 63 106 104q127 84 338 84h8q-16 164 -325 164q-328 0 -328 -185q0 -477 -352 -532h-15q-96 0 -96 152t66 155q193 25 192 225q0 185 -328 185 t-327 -185q0 -201 192 -225q66 -4 66 -155q0 -152 -96 -152h-15q-352 55 -352 532zM1440 307h35q262 0 313 144q-144 -1 -238 -50q-47 -25 -84 -61q-20 -20 -26 -33z" />
<glyph unicode="&#xaa61;" horiz-adv-x="2088" d="M82 133q0 133 82 133h203q-285 121 -285 266q0 532 532 533q299 0 430 -168q131 168 431 168q532 0 532 -533q0 -532 -532 -532q-285 0 -416 152q-84 -125 -244 -152h-14q-96 0 -96 152t65 155q172 24 172 225q0 184 -328 185q-328 0 -327 -185q0 -29 264 -129v-253 q0 -150 -172 -150h-215q-82 0 -82 133zM1147 532q0 -184 328 -184t327 184q1 185 -327 185t-328 -185z" />
<glyph unicode="&#xaa62;" horiz-adv-x="1632" d="M82 0v1065h205v-705l252 172h49q0 -184 430 -184q328 0 328 184q0 225 -328 226q-68 0 -68 153q0 154 68 154q532 0 532 -533q0 -532 -532 -532q-383 0 -492 274l-348 -274h-96z" />
<glyph unicode="&#xaa63;" horiz-adv-x="2088" d="M82 133q0 133 82 133h203q-285 121 -285 266q0 532 532 533q299 0 430 -168q131 168 431 168q532 0 532 -533q0 -532 -532 -532q-287 0 -420 156q-88 -129 -260 -156h-21q-51 0 -76.5 40t-25.5 138q0 293 168 504q-82 35 -226 35q-328 0 -327 -185q0 -29 264 -129v-253 q0 -150 -172 -150h-215q-82 0 -82 133zM782 313q160 37 160 219q0 51 -27 89q-104 -125 -133 -308zM1147 532q0 -184 328 -184t327 184q1 185 -327 185t-328 -185z" />
<glyph unicode="&#xaa64;" horiz-adv-x="2088" d="M82 532q0 477 352 533h15q96 0 96 -152t-66 -155q-193 -25 -192 -226q0 -184 327 -184q328 0 328 184q0 201 -192 226q-66 4 -66 155q0 152 96 152h15q172 -27 260 -156q133 156 420 156q532 0 532 -533q0 -532 -532 -532q-300 0 -431 168q-131 -168 -430 -168 q-532 0 -532 532zM1147 532q0 -184 328 -184t327 184q1 185 -327 185t-328 -185z" />
<glyph unicode="&#xaa65;" horiz-adv-x="2088" d="M82 532q0 532 532 533q68 0 68 -154t-68 -153q-328 0 -327 -226q0 -184 327 -184q328 0 328 184q0 532 533 533q532 0 532 -533q0 -532 -532 -532q-68 0 -68 154t68 153q328 0 327 225q0 184 -327 185q-328 0 -328 -185v-1044q0 -246 -250 -246h-63q-88 0 -89 154 q0 154 89 153h63q45 0 45 41v488q-125 -78 -328 -78q-532 0 -532 532z" />
<glyph unicode="&#xaa66;" horiz-adv-x="2088" d="M82 532q0 532 532 533q299 0 430 -168q131 168 431 168q532 0 532 -533q0 -532 -532 -532q-68 0 -68 154t68 153q328 0 327 225q0 184 -327 185q-328 -1 -328 -185q0 -532 -533 -532q-532 0 -532 532zM287 532q0 -184 327 -184q328 0 328 184q0 185 -328 185t-327 -185z M543 532q-1 72 71 72t72 -72t-72 -71q-72 0 -71 71z" />
<glyph unicode="&#xaa67;" horiz-adv-x="2088" d="M82 532q0 532 532 533q299 0 430 -168q131 168 431 168q532 0 532 -533q0 -532 -532 -532q-299 0 -431 168q-131 -168 -430 -168q-532 0 -532 532zM287 532q0 -184 327 -184q328 0 328 184q0 185 -328 185t-327 -185zM543 532q-1 72 71 72t72 -72t-72 -71q-72 0 -71 71z M1147 532q0 -184 328 -184t327 184q1 185 -327 185t-328 -185z" />
<glyph unicode="&#xaa68;" horiz-adv-x="2088" d="M82 532q0 532 532 533q299 0 430 -168q131 168 431 168q532 -1 532 -533t-532 -532q-170 0 -170 154v98q0 51 43 113q43 63 106 104q127 84 338 84h8q-16 164 -325 164q-328 0 -328 -185q0 -532 -533 -532q-532 0 -532 532zM287 532q0 -184 327 -184q328 0 328 184 q0 185 -328 185t-327 -185zM543 532q-1 72 71 72t72 -72t-72 -71q-72 0 -71 71zM1440 307h35q262 0 313 144q-144 -1 -238 -50q-47 -25 -84 -61q-20 -20 -26 -33z" />
<glyph unicode="&#xaa69;" horiz-adv-x="2088" d="M82 532q0 532 532 533q299 0 430 -168q131 168 431 168q532 0 532 -533q0 -532 -532 -532q-299 0 -431 168q-131 -168 -430 -168q-532 0 -532 532zM287 532q0 -184 327 -184q328 0 328 184q0 185 -328 185t-327 -185zM543 532q-1 72 71 72t72 -72t-72 -71q-72 0 -71 71z M1147 532q0 -160 246 -180q-56 160 -246 185v-5zM1184 635q264 -41 319 -287q299 8 299 184q0 184 -327 185q-217 0 -291 -82z" />
<glyph unicode="&#xaa6a;" horiz-adv-x="2088" d="M82 532q0 532 532 533q299 0 430 -168q131 168 431 168q532 0 532 -533q0 -532 -532 -532q-299 0 -431 168q-131 -168 -430 -168q-532 0 -532 532zM287 532q0 -184 327 -184q328 0 328 184q0 185 -328 185t-327 -185zM1147 532q0 -160 246 -180q-56 160 -246 185v-5z M1184 635q264 -41 319 -287q299 8 299 184q0 184 -327 185q-217 0 -291 -82z" />
<glyph unicode="&#xaa6b;" d="M-16 1065h131q0 -100 65 -172q131 172 434 172q532 0 533 -533q0 -477 -352 -532h-15q-96 0 -96 152t66 155q193 25 192 225q0 184 -328 185q-143 0 -225 -35q168 -211 168 -504q0 -98 -25.5 -138t-76.5 -40h-21q-352 55 -352 532q0 148 41 254q-139 109 -139 279z M287 532q-1 -182 159 -219q-29 182 -133 308q-27 -37 -26 -89z" />
<glyph unicode="&#xaa6c;" horiz-adv-x="2088" d="M82 532q0 532 512 533q63 0 63 -154t-63 -153q-307 0 -307 -226h-2q0 -184 256 -184q358 0 358 184q0 106 -86 216v143q0 174 231 174t232 -174v-143q-86 -109 -86 -216q0 -184 358 -184q256 0 256 184h-2q0 225 -307 226q-63 0 -63 153q0 154 63 154q512 0 512 -533 q0 -532 -461 -532t-461 532q0 150 89 261q-5 67 -130 67t-129 -67q88 -111 89 -261q0 -532 -461 -532t-461 532z" />
<glyph unicode="&#xaa6d;" horiz-adv-x="1392" d="M-246 -342h205q0 -109 143 -109t144 109v874q0 68 8 127q-25 -4 -53 -4q-205 0 -205 205t205 205q156 0 192 -119q133 119 385 119q532 0 533 -533q0 -532 -533 -532q-88 0 -88 154t88 153q328 0 328 225q0 184 -328 185q-328 0 -327 -185v-874q0 -416 -349 -416 q-348 0 -348 416zM139 860q0 -61 62 -61q61 0 61 61t-61 62q-61 0 -62 -62z" />
<glyph unicode="&#xaa6e;" horiz-adv-x="2088" d="M82 532q0 533 532 533t533 -533q0 -184 328 -184t327 184q0 225 -327 226q-68 0 -68 153q0 154 68 154q532 0 532 -533q0 -532 -532 -532t-533 532q0 184 -328 185q-309 0 -325 -164h8q211 0 338 -84q63 -41 106 -104q43 -61 43 -113v-98q0 -154 -170 -154 q-532 0 -532 532zM301 451q51 -143 313 -144h35q-6 12 -26 33q-37 37 -84 61q-95 50 -238 50z" />
<glyph unicode="&#xaa6f;" horiz-adv-x="1597" d="M82 0v1065h199l225 -242q119 242 477 242q532 0 533 -533q0 -532 -533 -532q-532 0 -532 532q0 50 4 95l-168 180v-807h-205zM655 532q0 -184 328 -184t328 184q0 185 -328 185t-328 -185z" />
<glyph unicode="&#xaa70;" horiz-adv-x="0" d="M-913 1255q90 123 301 123q209 0 299 -123l-82 -172q-63 82 -217 82q-156 0 -219 -82zM-913 1546q90 123 301 123q209 0 299 -123l-82 -172q-63 82 -217 82q-156 0 -219 -82z" />
<glyph unicode="&#xaa71;" horiz-adv-x="2088" d="M82 532q0 532 532 533q299 0 430 -168q131 168 431 168q532 0 532 -533q0 -532 -532 -532q-68 0 -68 154t68 153q328 0 327 225q0 184 -327 185q-328 0 -328 -185q0 -477 -352 -532h-15q-96 0 -96 152t66 155q192 24 192 225q0 184 -328 185q-143 0 -225 -35 q168 -211 168 -504q0 -98 -25.5 -138t-76.5 -40h-21q-352 55 -352 532zM287 532q-1 -182 159 -219q-29 182 -133 308q-27 -37 -26 -89z" />
<glyph unicode="&#xaa72;" horiz-adv-x="2088" d="M82 205q0 115 63 164q-63 66 -63 163q0 532 532 533q299 0 430 -168q131 168 431 168q532 0 532 -533q0 -532 -532 -532q-285 0 -416 152q-84 -125 -244 -152h-14q-96 0 -96 152t65 155q172 25 172 225q0 185 -328 185t-327 -185q0 -29 102.5 -71.5t102.5 -237.5v-18 q0 -205 -205 -205t-205 205zM225 205q0 -61 62 -62q61 1 61 62t-61 61t-62 -61zM1147 532q0 -184 328 -184t327 184q1 185 -327 185t-328 -185z" />
<glyph unicode="&#xaa73;" horiz-adv-x="1421" d="M-20 0v1065h200q301 -717 654 -717q301 0 301 184q0 225 -328 226q-121 0 -209 -35l-39 303q104 39 248 39q532 0 532 -533q0 -532 -505 -532q-361 0 -650 745v-745h-204z" />
<glyph unicode="&#xaa74;" horiz-adv-x="1597" d="M82 532q0 477 352 533h15q96 0 96 -152t-66 -155q-193 -25 -192 -226q0 -178 303 -184v539q0 98 76.5 138t128.5 40q352 -55 352 -533q0 -432 -352 -514v-389q139 -80 346 -80q170 0 170 119v864q0 573 -260 574q-358 0 -359 358q0 358 359 359q397 0 444 -267v-8 q0 -68 -100 -67q-100 0 -119 37.5t-225 37.5q-154 0 -154 -92t154 -92q465 0 465 -840v-864q0 -426 -375 -426q-213 0 -353 135q-33 -135 -198 -135q-205 0 -205 205t205 205v348q-508 12 -508 532zM528 -553q0 -61 62 -61q61 0 61 61t-61 61t-62 -61zM795 369 q147 41 147 163q0 176 -147 220v-383z" />
<glyph unicode="&#xaa75;" horiz-adv-x="2457" d="M82 133q0 133 82 133h203q-285 121 -285 266q0 532 532 533q299 0 430 -168q131 168 431 168q532 0 532 -533q0 -432 -352 -514v-389q139 -80 346 -80q170 0 170 119v864q0 573 -260 574q-358 0 -359 358q0 358 359 359q397 0 444 -267v-8q0 -68 -100 -67 q-100 0 -118.5 37.5t-225.5 37.5q-154 0 -154 -92t154 -92q465 0 465 -840v-864q0 -426 -375 -426q-213 0 -352 135q-33 -135 -199 -135q-205 0 -205 205t205 205v354q-43 25 -43 148q0 154 68 153q328 0 327 225q0 184 -327 185q-328 0 -328 -185q0 -477 -332 -532h-14 q-96 0 -96 152t65 155q172 25 172 225q0 184 -328 185q-328 0 -327 -185q0 -29 264 -129v-253q0 -150 -172 -150h-215q-82 0 -82 133zM1389 -553q0 -61 61 -61t61 61t-61 61t-61 -61z" />
<glyph unicode="&#xaa76;" horiz-adv-x="1761" d="M-307 -494q0 264 244 265h86q84 0 83 -103q0 -102 -83 -102h-86q-39 0 -39 -60q0 -59 39 -59h169q139 0 140 201v1001q0 109 -154 109q-133 0 -133 -64q0 -66 -102 -65q-102 0 -103 65q0 371 318 371q197 0 254 -199q127 199 452 199q532 0 533 -533q0 -432 -353 -514 v-389q139 -80 347 -80q170 0 170 119v864q0 573 -261 574q-358 0 -358 358t358 359q397 0 445 -267v-8q0 -68 -100 -67q-100 0 -119 37.5t-226 37.5q-154 0 -153 -92q0 -92 153 -92q465 0 465 -840v-864q0 -426 -374 -426q-213 0 -353 135q-33 -135 -198 -135 q-205 0 -205 205t205 205v352q-63 18 -64 150q0 154 88 153q430 0 430 225q0 184 -430 185q-328 0 -327 -185v-884q0 -406 -345 -406h-169q-244 0 -244 264zM692 -553q0 -61 62 -61q61 0 61 61t-61 61t-62 -61z" />
<glyph unicode="&#xaa77;" d="M82 133q0 133 82 133h203q-285 121 -285 266q0 532 532 533q532 0 533 -533q0 -348 -176 -471l221 -374q12 -20 33 -21q12 0 26 8l54 33q18 12 38 12q57 0 117 -100q39 -66 39 -111q0 -43 -37 -65l-55 -33q-80 -47 -150 -47q-113 0 -190 131l-250 424v-328q0 -41 45 -41 h64q88 0 88 -153q0 -154 -88 -154h-64q-250 0 -250 246v563q1 68 93 72v29q0 152 65 155q172 25 172 225q0 184 -328 185q-328 0 -327 -185q0 -29 264 -129v-253q0 -150 -172 -150h-215q-82 0 -82 133zM205 1464q0 358 358 359q461 0 461 -334q0 -51 -102 -51t-103 51 q0 67 -256 67q-154 0 -153 -92q0 -51 151 -96q84 -16 84 -139t-82 -123q-358 0 -358 358z" />
<glyph unicode="&#xaa78;" horiz-adv-x="1515" d="M82 938l82 72q143 -133 143 -410q0 -268 -135 -401l-78 75q111 106 111 326q0 229 -123 338zM254 193q133 135 401 135q176 0 295 -60l232 713q61 186 198 186q39 0 84 -14q100 -33 133 -109l-96 -53q-14 47 -69 64q-23 8 -41 8q-74 0 -111 -115l-242 -737l25 -25 l-72 -186q-106 123 -336 123q-219 0 -325 -111zM254 1016l76 180q106 -111 325 -111q230 0 336 123l72 -184q-133 -143 -408 -143q-268 0 -401 135z" />
<glyph unicode="&#xaa79;" d="M82 133q0 133 82 133h203q-285 121 -285 266q0 532 532 533q532 0 533 -533q0 -475 -330 -532v-410q0 -41 45 -41h64q88 0 88 -153q0 -154 -88 -154h-64q-250 0 -250 246v522q1 70 99 72q-6 29 -6 70q0 152 65 155q172 25 172 225q0 184 -328 185q-328 0 -327 -185 q0 -29 264 -129v-253q0 -150 -172 -150h-215q-82 0 -82 133z" />
<glyph unicode="&#xaa7a;" horiz-adv-x="2457" d="M82 -352v1732q0 406 346 406h743q139 0 140 57h205q0 -406 -345 -405h-743q-141 0 -141 -58v-1732q0 -57 141 -58h743q139 0 140 58v884q0 184 -328 185q-328 0 -328 -185q0 -225 328 -225q68 0 68 -153q0 -154 -68 -154q-532 0 -532 532t532 533q532 0 533 -533 q0 -184 327 -184q328 0 328 184q0 225 -328 226q-68 0 -67 153q0 154 67 154q532 0 533 -533q0 -532 -533 -532q-203 0 -327 78v-430q0 -406 -345 -406h-743q-346 0 -346 406z" />
<glyph unicode="&#xaa7b;" horiz-adv-x="573" d="M82 139v66q0 205 205 205t205 -205q0 -195 -185 -205q49 -117 219 -166l-135 -201q-309 86 -309 506zM225 205q1 -62 62 -62t61 62q0 61 -61 61t-62 -61z" />
<glyph horiz-adv-x="0" d="M-1229 -399q0 358 359 358q166 0 256 -78q90 78 256 78q358 0 358 -358t-358 -359q-31 0 -62 4q-27 4 -26 74v31q6 137 84 137h4q174 0 174 113q0 92 -174 92q-104 0 -168 -25q14 -16 14 -67q0 -326 -197 -359h-12q-57 0 -82 88q-8 33 -8 56q0 106 35 108q80 8 80 107 q0 92 -174 92t-174 -92q0 -98 79 -107q35 -2 35 -108q0 -23 -8 -56q-25 -88 -82 -88h-12q-197 33 -197 359z" />
<glyph horiz-adv-x="0" d="M-973 -334q0 293 359 293q358 0 358 -358q0 -359 -358 -359q-330 0 -330 174q0 88 102.5 146.5t214.5 58.5q111 0 187 -96q20 33 20 76q0 113 -194 112q-154 0 -181.5 -39t-126.5 -39q-51 0 -51 31zM-782 -535q53 -18 127 -18q66 0 110 18q-39 54 -119 54q-78 0 -118 -54 z" />
<glyph horiz-adv-x="2" d="M-973 -399q1 358 359 358t358 -358q0 -326 -197 -359h-12q-57 0 -82 88q-8 33 -8 56q0 106 35 108q80 8 80 107q0 92 -174 92t-174 -92q0 -98 79 -107q35 -2 35 -108q0 -23 -8 -56q-25 -88 -82 -88h-12q-197 33 -197 359z" />
<glyph horiz-adv-x="0" d="M-1229 -117q0 27 31 47q45 29 127 29t125 -29.5t43 -148.5q0 -133 -70.5 -168t-70.5 -53q0 -51 174 -52q174 0 174 93q0 98 -80 106q-35 2 -35 109q0 23 8 55q25 88 82 88h12q197 -33 197 -358q0 -31 -14 -68q63 -25 168 -25q174 0 174 93q0 92 -174 92h-4q-78 0 -84 157 v31q0 70 26 74q31 4 62 4q358 0 358 -358t-358 -359q-166 0 -256 78q-90 -78 -256 -78q-358 0 -359 359q0 12 71 48t71 54q0 31 -21 31q-20 0 -55 -15q-8 -4 -17 -4q-25 0 -41 37q-8 119 -8 131z" />
<glyph horiz-adv-x="2" d="M-973 -399q0 358 359 358q358 0 358 -262q0 -51 -51 -51q-41 0 -56.5 23.5t-250.5 23.5q-174 0 -174 -92t174 -93q236 0 251 24t56 24q51 0 51 -52q0 -262 -358 -262t-359 359z" />
<glyph horiz-adv-x="2" d="M-973 -399q1 358 359 358t358 -358t-358 -359q-358 0 -359 359zM-768 -393q0 -70 55 -96q35 23 35 96q0 71 -35 94q-55 -27 -55 -94zM-637 -281q20 -43 21 -112q-1 -72 -21 -115h23q154 0 153 115q0 113 -153 112h-23z" />
<glyph horiz-adv-x="0" d="M-1229 -334q0 293 359 293q168 0 256 -78q90 78 256 78q358 0 358 -358t-358 -359q-166 0 -256 78q-90 -78 -256 -78q-330 0 -330 174q0 88 102.5 146.5t214.5 58.5q90 0 166 -96q20 33 21 76q0 113 -174 112q-154 0 -181.5 -39t-101.5 -39q-76 0 -76 31zM-1038 -535 q53 -18 129 -18q68 0 112 18q-39 54 -121 54q-80 0 -120 -54zM-520 -334q8 -35 8 -65q0 -31 -8 -66q57 -27 162 -27q174 0 174 93q0 92 -174 92q-106 0 -162 -27z" />
<glyph horiz-adv-x="2" d="M-973 -399q0 358 359 358q344 0 358 -244q53 -53 111 -61q49 -6 49 -47v-10q-6 -45 -54 -46q-8 0 -16 3q-66 8 -141 65q-35 -39 -111 -39q-141 0 -141 113h-55q-174 0 -174 -92t174 -93q236 0 251 13.5t56 13.5q51 0 51 -31q0 -262 -358 -262t-359 359zM-469 -276 q0 -51 51 -52q51 1 51 52t-51 51t-51 -51z" />
<glyph horiz-adv-x="368" d="M-973 -399q0 358 359 358q358 0 358 -358v-17q47 -35 150 -35q188 0 188 62v1382q0 72 102.5 72t102.5 -72v-1382q0 -369 -393 -369q-160 0 -232 96q-90 -96 -276 -96q-358 0 -359 359zM-768 -399q0 -74 55 -103q35 25 35 103q0 77 -35 102q-55 -29 -55 -102zM-637 -276 q20 -47 21 -123q-1 -76 -21 -123h23q154 0 153 123q0 123 -153 123h-23z" />
<glyph horiz-adv-x="0" d="M-973 -303q0 262 359 262q358 0 358 -192q0 -43 -51 -43q-123 0 -138.5 12t-168.5 12q-174 0 -174 -51q0 -53 174 -53q154 0 169 12t138 12q51 0 51 -43q0 -193 -358 -192q-358 0 -359 264zM-963 -614q0 18 11 41q10 25 30 24q18 0 43 -20q53 -43 265 -45q219 0 319 88 h39v-27h123q41 0 41 -102t-37 -103h-258q-74 0 -74 45v8q-90 -12 -153 -12q-281 2 -338 74q-10 12 -11 29z" />
<glyph horiz-adv-x="0" d="M-1223 -334q0 293 224 293q223 0 223 -293v-74q0 -35 -92 -34q-92 0 -93 34v74q0 27 -38 27q-39 0 -39 -27v-108q0 -49 37 -50h294q-14 25 -14 93q0 358 359 358q358 0 358 -358q0 -326 -197 -359h-12q-57 0 -82 88q-8 33 -8 56q0 106 35 108q80 8 80 107q0 92 -174 92 t-175 -92q0 -98 80 -107q35 -2 35 -108q0 -23 -8 -56q-25 -88 -82 -88h-489q-221 0 -222 295v129z" />
<glyph horiz-adv-x="0" d="M-1229 -399q0 358 295 358q102 0 168 -43q45 43 152 43q106 0 151 -43q66 43 168 43q295 0 295 -358q0 -326 -182 -359h-11q-53 0 -75 88q-8 33 -8 56q0 106 32 108q68 8 68 107q0 92 -119 92q-201 0 -201 -92t23 -154q18 -39 43 -65q-12 -61 -49 -95q-49 -45 -135 -45 t-136 45q-37 33 -49 95q25 27 43 65q23 61 23 154q0 92 -201 92q-119 0 -119 -92q0 -98 68 -107q33 -2 33 -108q0 -23 -9 -56q-23 -88 -75 -88h-11q-182 33 -182 359zM-694 -156q55 -88 55 -243q0 -143 -45 -232q25 -25 70 -24q45 0 69 24q-45 88 -45 232q0 155 55 243 q-23 12 -79 13q-57 0 -80 -13z" />
<glyph horiz-adv-x="0" d="M-1229 -399q0 358 359 358q166 0 256 -78q90 78 256 78q358 0 358 -358t-358 -359q-31 0 -62 4q-27 4 -26 133q0 129 84 129h4q174 0 174 93q0 92 -174 92q-106 0 -160 -27q6 -37 6 -65q0 -358 -358 -359q-358 0 -359 359zM-1044 -399q0 -92 174 -93q174 0 174 93 q0 92 -174 92t-174 -92z" />
<glyph horiz-adv-x="0" d="M-1229 -399q0 358 359 358q166 0 256 -78q90 78 256 78q358 0 358 -358t-358 -359q-166 0 -256 78q-90 -78 -256 -78q-358 0 -359 359zM-1044 -399q0 -92 174 -93q174 0 174 93q0 92 -174 92t-174 -92zM-516 -324q4 -33 4 -75q0 -43 -4 -76q51 -16 158 -17q174 0 174 93 q0 92 -174 92q-104 0 -158 -17z" />
<glyph horiz-adv-x="0" d="M-973 -317q0 276 359 276q358 0 358 -205q0 -102 -90 -153q90 -51 90 -113q0 -246 -358 -246t-359 277q0 31 92 30q92 0 93 -30q0 -31 174 -31t174 31t-127 30q-47 0 -47 52q0 51 47 51q127 0 127 31t-174 30q-174 0 -174 -30q0 -31 -93 -31q-92 0 -92 31z" />
<glyph horiz-adv-x="2" d="M-973 -399q1 358 359 358t358 -358t-358 -359q-358 0 -359 359zM-768 -406q0 -29 6 -51q47 66 148 66q102 -1 147 -64q6 23 6 49q0 109 -153 109q-154 0 -154 -109zM-719 -516q39 -27 105 -27t104 27q-29 53 -104 53q-76 0 -105 -53z" />
<glyph horiz-adv-x="0" d="M-973 -530q0 137 152 137q241 0 241 -180q139 8 140 36q0 66 -198 134.5t-198 183.5q0 178 207 178q236 0 236 -188q0 -25 -92 -25t-93 14q0 14 -30 15q-23 0 -23 -15q0 -20 187.5 -88.5t187.5 -208.5q0 -221 -358 -221t-359 228zM-788 -530q0 -35 106 -43q0 80 -57 79 q-49 0 -49 -36z" />
<glyph horiz-adv-x="2" d="M-973 -399q0 326 197 358h12q57 0 82 -88q8 -33 8 -55q0 -106 -35 -109q-80 -8 -79 -106q0 -92 174 -93q174 0 174 93q0 98 -80 106q-35 2 -35 109q0 23 8 55q25 88 82 88h12q197 -33 197 -358q0 -358 -358 -359q-359 1 -359 359z" />
<glyph horiz-adv-x="2" d="M-973 -399q0 326 197 358h12q57 0 82 -88q8 -33 8 -55q0 -106 -35 -109q-80 -8 -79 -106q0 -92 174 -93q40 1 73 5q-74 88 -73 188q0 100 39.5 179t121.5 79q197 -33 197 -358q0 -358 -358 -359q-358 0 -359 359zM-512 -358q0 -32 92 -93q20 39 21 93q0 51 -109 65 q-4 -31 -4 -65z" />
<glyph horiz-adv-x="2" d="M-973 -399q0 326 197 358h12q57 0 82 -88q6 -62 6 -80q25 -12 62 -12t61 12q0 18 6 80q25 88 82 88h12q197 -33 197 -358q0 -358 -358 -359q-358 0 -359 359zM-788 -399q0 -92 174 -93q174 0 174 93q0 90 -29 118q-49 -43 -145 -43q-95 0 -146 43q-29 -27 -28 -118z" />
<glyph horiz-adv-x="0" d="M-1229 -303q0 262 359 262q168 0 256 -78q90 78 256 78q358 0 358 -358t-358 -359q-31 0 -62 4q-27 4 -26 74v31q6 158 84 157h4q174 0 174 93q0 92 -174 92q-106 0 -162 -27q8 -35 8 -65q0 -358 -358 -359q-358 0 -359 262q0 51 88 52q86 0 101.5 -24t169.5 -24 q174 0 174 93q0 92 -174 92q-154 0 -169.5 -23.5t-101.5 -23.5q-88 0 -88 51z" />
<glyph horiz-adv-x="2" d="M-973 -399q0 326 197 358h12q57 0 82 -88q8 -33 8 -55q0 -86 -35 -88q-71 -9 -79 -107q68 55 174 55t174 -55q-8 98 -80 107q-35 2 -35 88q0 23 8 55q25 88 82 88h12q197 -33 197 -358q0 -358 -358 -359q-358 0 -359 359zM-737 -473q45 -18 123 -19q78 0 122 19 q-35 47 -122 47q-88 0 -123 -47z" />
<glyph horiz-adv-x="0" d="M-1229 -399q0 358 332 358q371 0 371 -358q0 -92 194 -93q156 0 156 93q0 92 -156 92h-2q-72 0 -78 96v92q0 70 25 74q29 4 55 4q332 0 332 -358t-332 -359q-370 1 -370 359q0 92 -195 92q-156 0 -156 -92t156 -93h2q72 0 78 -96v-92q0 -70 -25 -74q-29 -4 -55 -4 q-332 0 -332 359z" />
<glyph horiz-adv-x="2" d="M-973 -399q1 358 359 358t358 -358t-358 -359q-358 0 -359 359zM-788 -399q0 -92 174 -93q174 0 174 93q0 92 -174 92t-174 -92z" />
<glyph horiz-adv-x="2" d="M-1417 -584q0 49 69 119q70 70 119 70q29 0 51 -23l45 -45q18 -18 33 -18q14 0 29 14l98 98q16 328 359 328q358 0 358 -358t-358 -359q-229 0 -312 148l-73 -74q-86 -86 -172 -86q-88 0 -179 90l-45 45q-23 23 -22 51zM-788 -399q0 -92 174 -93q174 0 174 93 q0 92 -174 92t-174 -92z" />
<glyph horiz-adv-x="368" d="M82 -352v1769q0 406 346 406h1604q344 0 344 -406v-135q0 -94 -103 -94q-102 0 -102 94v135q0 57 -139 58h-1604q-141 0 -141 -58v-1769q0 -57 141 -58h1604q139 0 139 58v504q0 94 102 94t103 -94v-504q0 -406 -344 -406h-1604q-346 0 -346 406z" />
<glyph horiz-adv-x="368" d="M82 -512v1505q0 72 102 72t103 -72v-1403q0 -41 45 -41h63q88 0 88 -153q0 -154 -88 -154h-63q-250 0 -250 246z" />
<glyph horiz-adv-x="696" d="M82 -686v1679q0 72 102 72t103 -72v-1679q0 -72 -103 -72q-102 0 -102 72zM410 -512v1505q0 72 102 72t102 -72v-1403q0 -41 45 -41h64q88 0 88 -153q0 -154 -88 -154h-64q-250 0 -249 246z" />
<glyph horiz-adv-x="368" d="M82 -352v1769q0 406 346 406h743q344 0 345 -406v-135q0 -94 -103 -94q-102 0 -102 94v135q0 57 -140 58h-743q-141 0 -141 -58v-1769q0 -57 141 -58v-348q-346 0 -346 406z" />
<glyph horiz-adv-x="368" d="M82 -352v1769q0 406 346 406v-348q-141 0 -141 -58v-1769q0 -57 141 -58h743q139 0 140 58v504q0 94 102 94t103 -94v-504q0 -406 -345 -406h-743q-346 0 -346 406z" />
<glyph horiz-adv-x="368" d="M82 -352v1769q0 406 346 406v-348q-141 0 -141 -58v-1769q0 -57 141 -58v-348q-346 0 -346 406z" />
<glyph horiz-adv-x="368" d="M82 -352v1769q0 406 346 406h1604q344 0 344 -406v-135q0 -94 -103 -94q-102 0 -102 94v135q0 57 -139 58h-1604q-141 0 -141 -58v-1769q0 -57 141 -58h803v-348h-803q-346 0 -346 406z" />
<glyph horiz-adv-x="368" d="M82 -352v1769q0 406 346 406h803v-348h-803q-141 0 -141 -58v-1769q0 -57 141 -58h1604q139 0 139 58v504q0 94 102 94t103 -94v-504q0 -406 -344 -406h-1604q-346 0 -346 406z" />
<glyph horiz-adv-x="368" d="M82 -352v1769q0 406 346 406h803v-348h-803q-141 0 -141 -58v-1769q0 -57 141 -58h803v-348h-803q-346 0 -346 406z" />
<glyph d="M82 -119v334l76 29q158 -111 456 -111q193 0 328 47v103q-127 -53 -328 -54q-532 0 -532 418t532 418q483 0 533 -307v-2q0 -33 -103 -33q-102 0 -106 16q-49 53 -324 54q-328 0 -327 -146q0 -145 327 -145q274 0 324 53q4 16 106 16t103 -32v-357q-184 -129 -533 -129 q-186 0 -327 37v-104q143 -31 327 -31q332 0 533 104v-508q0 -104 102 -104q61 0 62 -102q0 -102 -62 -103q-303 0 -307 240v340q-145 -27 -328 -27q-322 0 -532 86zM92 -424q0 193 359 193q358 0 358 -142q0 -31 -51 -30q-123 0 -138.5 8t-168.5 8q-175 0 -175 -37 q0 -39 175 -39q154 0 169 9.5t138 9.5q51 0 51 -33q0 -141 -358 -141t-359 194zM102 -653q0 14 11 30q10 18 30 19q18 0 43 -14q53 -33 265 -35q219 0 319 65h39v-20h123q41 0 41 -74q0 -76 -37 -76h-258q-74 0 -74 33v6q-90 -8 -153 -8q-281 0 -338 53q-10 10 -11 21z" />
<glyph horiz-adv-x="2088" d="M82 -393v788q0 41 102 41t107 -20q49 -68 323 -68q328 0 328 184t-328 185q-274 0 -323 -68q-4 -20 -107 -20q-102 0 -102 41v4q49 391 532 391q533 -1 533 -533q0 -184 328 -184t327 184q0 225 -327 226q-68 0 -68 153q0 154 68 154q532 0 532 -533q0 -532 -532 -532 q-299 0 -431 168q-131 -168 -430 -168q-201 0 -327 68v-461q0 -57 141 -58h619v-307h-619q-346 0 -346 365z" />
<glyph d="M82 307q0 205 266 205q336 0 367 -205q166 8 166 62q0 57 -297 158.5t-297 250.5q0 287 307 287q348 0 348 -277q0 -31 -96 -51q-39 -8 -66 -8q-41 0 -57 19q-27 31 -129 30q-61 0 -62 -41q0 -29 307.5 -131t307.5 -237q0 -369 -533 -369q-532 0 -532 307zM287 369 q0 -56 223 -62q-31 102 -162 103q-61 0 -61 -41z" />
<glyph d="M82 532q0 532 532 533q533 -1 533 -533v-983h-205v983q0 184 -328 185q-309 0 -325 -164h8q211 0 338 -84q63 -41 106 -104q43 -61 43 -113v-98q0 -154 -170 -154q-532 0 -532 532zM301 451q51 -143 313 -144h35q-6 12 -26 33q-37 37 -84 61q-95 50 -238 50z" />
<glyph d="M82 -393v788q0 41 102 41t107 -20q49 -68 323 -68q328 0 328 184t-328 185q-274 0 -323 -68q-4 -20 -107 -20q-102 0 -102 41v4q49 391 532 391q532 0 533 -533q0 -532 -533 -532q-200 0 -327 68v-461q0 -57 141 -58v-307q-346 0 -346 365z" />
<glyph horiz-adv-x="0" d="M-410 -246q0 205 205 205t205 -205t-205 -205t-205 205zM-266 -246q0 -61 61 -61q62 0 62 61t-62 62q-61 0 -61 -62z" />
<glyph horiz-adv-x="368" d="M-399 -389h204q0 -61 140 -62q137 0 137 62v1382q0 72 102 72t103 -72v-1382q0 -369 -342 -369q-344 0 -344 369z" />
<glyph horiz-adv-x="0" d="M-1008 -420q0 49 70 119t119 70q29 0 51 -23l45 -45q18 -18 33 -18q14 0 28 14l211 211q20 20 45 20q35 0 78 -43q41 -41 41 -75q0 -27 -20 -48l-283 -282q-86 -86 -172 -86q-88 0 -178 90l-45 45q-23 23 -23 51z" />
<glyph horiz-adv-x="0" d="M-102 -246q-1 205 204 205t205 -205t-205 -205t-204 205zM41 -246q0 -61 61 -61q62 0 62 61t-62 62q-61 0 -61 -62z" />
<glyph d="M82 -59q0 41 31 63q12 8 26 8q20 0 45 -16q156 -119 430 -119q299 0 457 141l76 -36v-375q0 -365 -344 -365h-477q-244 0 -244 234q0 233 244 233h288q66 0 66 -71q0 -72 -66 -72h-247q-39 0 -39 -39t39 -39h436q139 0 139 119v217q-141 -49 -328 -49q-348 0 -532 166z M82 532q0 533 532 533q483 0 533 -391v-4q0 -41 -103 -41q-102 0 -106 20q-49 68 -324 68q-328 0 -327 -185q0 -184 327 -184q274 0 324 68q4 20 106 20t103 -41v-4q-49 -391 -533 -391q-532 0 -532 532z" />
<glyph horiz-adv-x="0" d="M-903 -338q0 154 88 154h63q45 0 45 41v92q0 51 103 51q102 0 102 -51v-92q0 -348 -250 -349h-63q-88 0 -88 154z" />
</font>
</defs>
</svg>
