<?xml version="1.0" standalone="no"?>
<!DOCTYPE svg PUBLIC "-//W3C//DTD SVG 1.1//EN" "http://www.w3.org/Graphics/SVG/1.1/DTD/svg11.dtd" >
<svg xmlns="http://www.w3.org/2000/svg" xmlns:xlink="http://www.w3.org/1999/xlink" version="1.1">
<metadata></metadata>
<defs>
<font id="namtengregular" horiz-adv-x="1" >
<font-face units-per-em="2048" ascent="1638" descent="-410" />
<missing-glyph horiz-adv-x="551" />
<glyph unicode="&#xd;" horiz-adv-x="551" />
<glyph horiz-adv-x="0" />
<glyph unicode=" "  horiz-adv-x="551" />
<glyph unicode="&#x09;" horiz-adv-x="551" />
<glyph unicode="&#xa0;" horiz-adv-x="551" />
<glyph unicode="!" horiz-adv-x="501" d="M109 98q0 114 146 129h36q70 0 100 -118q0 -100 -153 -117q-129 16 -129 106zM138 1432q22 135 129 135q100 0 124 -105v-18q-59 -328 -59 -529q6 -286 6 -357q-28 -106 -100 -106q-87 20 -88 134q0 15 -6 48q6 154 6 276q-12 476 -12 522z" />
<glyph unicode="&#x22;" horiz-adv-x="831" d="M119 1468q4 32 31 58t82 30h13q47 0 78 -19q30 -25 36 -74.5t-12.5 -107t-33.5 -158.5q-15 -105 -81 -103q-73 -2 -77 102t-32 215q-8 25 -4 57zM494 1413q-5 35 0.5 61t34 51t84.5 28t88 -21.5t38 -74.5v-11q0 -47 -21 -107q-25 -70 -42 -160q-10 -86 -78 -87h-2 q-74 0 -75 108t-27 213z" />
<glyph unicode="#" horiz-adv-x="1627" d="M32 457q0 38 58 74.5t110 36.5q35 0 125 -6q89 -7 103 -7q18 50 29 105q19 80 31 114q-33 -3 -133 -20q-89 -16 -143 -15q-156 0 -156 78q0 76 191 101q51 6 97 15q119 23 174 25q44 43 95 180q33 90 66 124t89 34q65 0 65 -72q0 -62 -73 -211q-10 -21 -14 -36 q26 5 232 30q11 33 34 137q55 264 72 286q35 49 94 49q39 0 63 -26.5t24 -61.5q0 -38 -50 -170q-17 -44 -24 -80q-5 -23 -16 -53q-11 -40 -18 -59q178 27 277 27q89 0 113 -22t24 -71q0 -27 -19 -53.5t-47 -26.5q-275 0 -392 -30q-15 -57 -52 -185q-10 -29 -15 -50 q243 51 259 51q121 0 143.5 -45.5t22.5 -84.5q0 -32 -33 -57.5t-78 -25.5q-14 0 -49 14q-35 15 -45 14q-48 0 -125 -16q-78 -17 -141 -17q-20 -59 -33 -97q-15 -37 -15 -64l4 -53q0 -48 -30.5 -86.5t-77.5 -38.5q-36 0 -65 43t-29 76q0 92 30 159q6 14 6 22l-217 -32 q-88 -294 -171 -294q-35 0 -58 21.5t-23 50.5q0 107 52 220l-28 1l-145 -4q-168 0 -168 82zM613 572q41 3 67 4q126 5 173 31l48 146q15 43 20 77q-169 -16 -240 -35q-41 -99 -68 -223z" />
<glyph unicode="$" horiz-adv-x="1119" d="M7 192q0 80 64.5 113.5t244.5 49.5q159 15 159 45q30 240 31 296q-56 27 -103 44q-108 39 -144.5 67t-70.5 74.5t-34 110.5t120.5 132.5t280.5 93.5q2 20 2 47v212q0 44 55 70q30 20 77 20q102 0 102 -135q0 -27 -23 -153q-5 -25 -5 -28h40q49 0 86 10q27 8 60 8 q103 0 103 -104q0 -70 -47 -86t-256 -16l-9 -92q-20 -156 -20 -189q33 -28 136 -79q57 -30 79.5 -73.5t22.5 -115.5q0 -160 -288 -252l-25 -288q0 -19 10 -78q10 -60 10 -71q0 -26 -33.5 -46t-69.5 -20q-121 0 -121 128l19 288q-23 -5 -48 -8t-51 -8q-148 -45 -212 -45 q-54 0 -98 23.5t-44 54.5zM395 964q7 -10 65 -42.5t65 -32.5l13 138q-108 -27 -143 -63zM686 464q10 12 48 30q29 15 29 26q0 4 -2 10q-2 5 -6 10q-4 6 -10 14q-6 6 -12 13t-13 14q-6 6 -12 11l-6 5l-1 1q-12 -90 -15 -134z" />
<glyph unicode="%" horiz-adv-x="1490" d="M43 877q0 42 46.5 169.5t153 203.5t230.5 76q43 0 88 -32l58 -202q1 -6 2 -11q5 -25 5 -48q0 -86 -59 -185.5t-155.5 -151.5t-173.5 -52q-92 0 -143.5 62.5t-51.5 170.5zM240 913q0 -28 23 -51q35 -18 67 -17q37 0 76.5 60.5t39.5 118.5q0 36 -23 126h-18 q-66 0 -115.5 -85.5t-49.5 -151.5zM335 131q0 48 79 241t202 364q18 25 267 422q-98 22 -108 21t-123 34q31 -39 33 -43l-58 201q12 -8 0 -20q125 -14 520 -43q29 -39 30 -62q0 -52 -63 -88q-66 -123 -187 -300l1 1q-6 -14 -83 -130q-138 -209 -234 -426q-51 -115 -91 -196 q-54 -71 -97 -71q-88 0 -88 95zM787 269q0 111 88 236t182 125q138 0 240.5 -68.5t102.5 -178.5q0 -47 -16.5 -101t-61.5 -90.5t-101 -73t-109 -49t-115 -12.5q-129 0 -169.5 75.5t-40.5 136.5zM1003 237l15 1l56 -4q19 0 109 65q21 32 20 75q0 31 -80 66q-20 8 -35 20 q-37 0 -67 -69.5t-18 -153.5z" />
<glyph unicode="&#x26;" horiz-adv-x="1794" d="M168 303q0 266 327 473q23 14 23 35q0 13 -9 38q-49 134 -49 251q0 174 103.5 288t262.5 114q130 0 206.5 -96t76.5 -220q0 -207 -263 -410q-31 -24 -32 -49q0 -52 106 -189t159 -177q121 128 154 249l-37 4q-91 7 -122.5 39.5t-31.5 87.5q0 38 32 68.5t63 30.5 q25 0 96 -21q72 -23 155 -22q78 0 160 10q81 10 109 10q78 0 78 -63q0 -117 -159 -129q-58 -5 -79 -14.5t-35 -36.5q-107 -204 -234 -322q105 -75 214 -74q39 0 95 21q9 3 21 3q60 0 60 -80q0 -45 -59.5 -106.5t-148.5 -61.5q-192 0 -370 134q-222 -159 -472 -159 q-179 0 -289.5 103.5t-110.5 270.5zM420 312q0 -83 58 -128.5t159 -45.5q128 0 254 87q-159 162 -282 385q-189 -130 -189 -298zM687 1124q0 -113 41 -214q163 131 163 270q0 52 -25.5 90.5t-62.5 38.5q-45 0 -80.5 -55t-35.5 -130z" />
<glyph unicode="'" horiz-adv-x="534" d="M160 1388h218l-7 -185l-40 -336h-124l-40 336z" />
<glyph unicode="(" horiz-adv-x="659" d="M54 782q0 529 309 917q76 73 118 73h32q69 0 68 -73v-31q0 -65 -113 -137q-78 -106 -128 -282q-63 -284 -63 -513q0 -457 263 -814q14 -44 14 -54q0 -39 -59 -50q-155 0 -359 491q-82 233 -82 473z" />
<glyph unicode=")" horiz-adv-x="642" d="M83 1658v10q0 50 68 59q129 0 255 -255q173 -326 173 -631v-69q0 -323 -205 -736q-119 -227 -232 -227q-45 12 -45 46q0 31 118 235q145 329 145 668v78q0 285 -100 522q-49 94 -158 227q-19 41 -19 73z" />
<glyph unicode="*" horiz-adv-x="1079" d="M85 1139v4q0 56 82 87q84 -5 141 -5h68q0 17 -123 132q-28 31 -27 77q16 109 96 109h13q87 0 205 -222h4q141 231 232 231h19q59 0 72 -85v-14q0 -54 -127 -182l-37 -55h5q263 0 263 -36q9 0 9 -23q0 -78 -268 -78h-36q122 -207 150 -290v-14q-8 -63 -55 -63h-13 q-48 0 -223 268h-5q-178 -278 -249 -278q-36 0 -55 37v32q23 66 164 305q-131 -9 -232 -9q-73 23 -73 72z" />
<glyph unicode="+" horiz-adv-x="1071" d="M85 749v12q0 76 212 76h134v112q0 52 -6 117q15 135 95 135h41q76 0 105 -123q-23 -179 -23 -241h64q282 0 282 -70v-6q0 -71 -229 -70h-65q-58 0 -58 -18q-6 -23 -5 -47v-94q0 -111 40 -188q-34 -111 -117 -111h-35q-79 0 -100 146q17 131 17 194v112h-17 q-103 0 -206 -30q-129 25 -129 94z" />
<glyph unicode="," horiz-adv-x="486" d="M77 -197q-11 34 8.5 61.5t36.5 60t24.5 95.5t-6 94t-21 64.5t-1.5 50.5q0 42 25.5 81.5t88.5 62.5q31 1 57 -2q34 -5 65 -29.5t46.5 -75.5t3.5 -145l-1 -11q-18 -94 -88 -203q-60 -87 -100 -113t-80 -20l-14 2q-28 5 -44 27z" />
<glyph unicode="-" horiz-adv-x="810" d="M53 668q0 30 11 46q21 31 50 44q23 11 44 11q14 0 30 -3q37 -8 103 -49q151 -28 214 -14t126.5 29.5t88 -6.5t28.5 -81v-8q0 -52 -46 -83q-50 -28 -150 -20.5t-217 -5.5q-51 -3 -92 -2q-55 0 -98 9q-71 16 -85 81q-7 29 -7 52z" />
<glyph unicode="." horiz-adv-x="545" d="M77 165q0 26 9 56q28 61 83.5 101.5t124.5 40.5h3q68 0 117 -46q43 -44 43 -89v-7q-3 -49 -26 -84.5t-70.5 -62t-101.5 -29.5h-14q-57 0 -94 17t-54 44t-20 59z" />
<glyph unicode="/" horiz-adv-x="866" d="M34 3v4q0 123 190 545q216 512 359 960q39 157 150 157q103 -36 103 -113v-54q0 -63 -171 -373q-139 -290 -320 -797q-72 -213 -99 -406q-44 -82 -99 -81h-22q-81 0 -91 158z" />
<glyph unicode="0" horiz-adv-x="1112" d="M83 646q-6 131 23.5 275.5t82 257.5t152 200.5t222.5 102.5q116 8 212.5 -47.5t165 -148t96 -214t3.5 -370.5l-43 50q1 9 -17.5 29.5t-31 106t-44 162.5t-92.5 128q-49 47 -130 57.5t-155 -14t-124.5 -98t-62.5 -149.5q-5 -81 2.5 -114t16 -91t11.5 -85t14 -105 t-11.5 -69.5t-61.5 86.5q-19 36 -17 11.5t6 -36.5q35 -178 132.5 -271t220.5 -49q124 55 158.5 119t67 142.5t53.5 153t50 113.5l50 -103q5 -100 -17 -225.5t-76 -222.5t-118.5 -150.5t-161.5 -78.5q-125 -11 -222 35t-172 141t-125 217t-57 254z" />
<glyph unicode="1" horiz-adv-x="810" d="M103 798q0 67 31.5 147.5t72.5 167t82.5 169t65.5 145.5q18 22 50 41t62 19q31 0 54.5 -12.5t23.5 -30t18 -33t42 -22.5l12 -704q-9 -7 -15 -25.5t-6 -25.5q0 8 7 -17.5t2 -50.5l-9 -498q0 -3 -6.5 -18.5t-19 -32.5t-16 -31.5t-30.5 -14.5q-67 0 -90 17t-23 51 q0 47 10.5 64.5t10.5 45.5q0 7 1.5 27.5t-17.5 26.5v855l-13 78q-33 -31 -50.5 -84.5t-30.5 -113t-27 -119t-42 -103.5q0 -6 -20 -12.5t-30 -6.5q-47 0 -73.5 36.5t-26.5 64.5z" />
<glyph unicode="2" horiz-adv-x="1187" d="M-49 47q-7 20 11 26q100 37 190 88t176 119t173.5 155t182.5 199q78 91 103 175t15.5 158.5t-49 141t-96.5 124.5q-18 18 -32 9t-22.5 -35.5t-13 -58t-7.5 -58.5q-6 -35 -9.5 -102.5t-3.5 -134.5t8 -117t27 -53q15 -3 13.5 -30.5t-18.5 -62.5t-42 -67t-47 -46 q-44 0 -77.5 44t-36.5 150q-9 318 -3 466t15 175q10 43 44.5 85t88 64.5t117.5 14.5t135 -72q89 -81 138.5 -154t66.5 -150q19 -102 14.5 -191.5t-60.5 -207.5q-21 -46 -72.5 -123t-126 -157.5t-160 -149t-122.5 -89.5q-35 -19 35.5 -28.5t157.5 -11t190.5 0t178.5 1.5 q72 0 114.5 -16t53.5 -35.5t-10.5 -35t-73.5 -10.5q-114 14 -231.5 22.5t-225 7.5t-203.5 -13.5t-167 -42.5q-76 -29 -111 -49.5t-49 -30t-17 -10.5t-18 1q-30 10 -62.5 29.5t-53.5 42.5t-28 43z" />
<glyph unicode="3" horiz-adv-x="1319" d="M31 356q3 113 13.5 149.5t26 39.5t34.5 5t37 49q21 46 58.5 60t68 7.5t45 -27.5t-6.5 -40q-56 -53 -75.5 -111.5t-19.5 -140.5q0 -56 19.5 -89.5t50 -52.5t74 -28t86.5 -9q96 -3 174 21.5t142.5 68t116 99.5t93.5 119q26 43 48 100.5t24.5 110.5t-17.5 90.5t-76 37.5 t-90 -53t-63 -112.5t-63 -106.5t-90 -30q-9 0 -29.5 19.5t-20.5 28.5t6 47t6 45q0 17 4.5 48.5t11 65.5t12.5 64t10 44q32 48 54.5 72t37 39.5t25.5 35t24 61.5q4 12 6.5 44.5t2 66t-15 59t-39.5 25.5q-47 0 -66.5 -25.5t-25 -60.5t-3 -73.5t2.5 -67.5q11 -23 3 -30.5 t-22 -10.5q-19 -4 -44 3q-36 0 -57.5 19t-34 43t-16 49.5t-3.5 39.5q0 63 25.5 120t66.5 98t97 64.5t114 23.5q68 0 110.5 -36.5t60.5 -102.5t10.5 -157t-40.5 -196q26 12 80.5 28t108.5 4.5t96 -64.5t45 -171q3 -144 -57.5 -284.5t-168.5 -254t-255 -181.5t-311 -68 q-78 0 -153.5 25t-136 71.5t-97.5 116.5t-34 156z" />
<glyph unicode="4" horiz-adv-x="1076" d="M-30.5 -35q10.5 40 64.5 119q70 102 127.5 185t112 166t117 175t140.5 213q77 114 101 198.5t6 108.5q-14 19 0 58t47 139q-2 66 20 105t53.5 56t65.5 11t54 -31q11 -16 11 -30.5t-4.5 -29.5t-10.5 -33t-3 -36l-9 -1134q2 -22 16 -26t36 -3t52.5 1t70.5 -9 q51 -12 79.5 -33t31.5 -41t-18.5 -33t-71.5 -13q-153 2 -278.5 7t-267.5 -22q-84 -15 -187.5 -25.5t-188.5 -52.5q-54 -28 -97 -40t-61.5 -1t-8 51zM351.5 188.5q13.5 -16.5 81 -14t218.5 30.5q20 3 40.5 -6t35 -9t22 18t-1.5 76q-8 53 -11 145t-6 176.5t-8.5 140.5 t-14.5 38q-27 -46 -63 -105t-77 -122t-80.5 -124.5t-73.5 -113.5q-31 -45 -53 -79.5t-8.5 -51z" />
<glyph unicode="5" horiz-adv-x="1203" d="M59 518q4 156 32 247.5t56.5 118.5t48 -7t5.5 -123q-28 -56 -31 -157t27.5 -198.5t104 -171t204.5 -73.5q89 0 163 35t126.5 96t83.5 141t31 172q0 80 -25 144t-111 64q-59 0 -98 -49.5t-62.5 -115t-35.5 -131t-21 -97.5q-5 -28 -21 -35.5t-35.5 3t-43.5 31t-50 45.5 q-9 87 -17 200.5t-17 226t-16 212t-7 154.5q0 97 47.5 147t115.5 66t143.5 14.5t126.5 -1.5h69t103 -9.5t103.5 -34.5t70.5 -77q-14 -34 -27 -45.5t-32.5 -14.5t-42.5 1.5t-57 4.5q-21 0 -75.5 1.5t-117 1.5t-122.5 -1.5t-92 -7.5q-25 -7 -30 -26t0 -43t17.5 -49.5 t20.5 -42.5q30 -56 30.5 -101t-12 -74t-23.5 -41.5t-3 -3.5q85 77 177 96t169.5 -17.5t128.5 -125.5t51 -228q0 -122 -42.5 -239.5t-117.5 -211.5t-176 -153.5t-217 -59.5q-124 -10 -224 41q-44 25 -86 60.5t-76 97t-58.5 145.5t-32.5 199z" />
<glyph unicode="6" horiz-adv-x="905" d="M153 488.5q1 141.5 4.5 292t8.5 300t5 278.5q6 68 45.5 102t81.5 20q20 -8 40 -30t35.5 -52t26 -59.5t6.5 -45.5q0 -9 -4.5 -33.5t-10.5 -53t-16.5 -49.5t-22.5 -23l-19 -441q98 85 189.5 111.5t161.5 6t108 -85t34 -155.5q0 -22 -17 -82t-47 -133.5t-76 -151 t-107.5 -136.5t-138 -89t-172.5 -8q-43 11 -69 82t-36.5 182.5t-9.5 253zM322 330q-1 -11 0.5 -45t7.5 -66.5t19 -53.5t37 -2q76 61 124.5 124.5t75 118.5t36 91.5t9.5 45.5q1 10 2 22.5t-0.5 24.5t-14 20t-36.5 8q-37 3 -85.5 -15t-65.5 -50q-34 -53 -43 -101t-25 -37 q-7 -25 -20.5 -32.5t-20.5 30.5v-83z" />
<glyph unicode="7" horiz-adv-x="1112" d="M54 1277l17 62q-3 68 24.5 80.5t47.5 -1.5q83 -68 135.5 -104.5t84.5 -55.5t47 -23.5t23 -4.5q49 0 95 29.5t85 71.5t71 85.5t55 71.5h35q56 0 84 -37.5t41.5 -89t13.5 -106.5v-96q0 -15 -3 -154t-24 -344q0 -17 26.5 -17t57 2t55.5 2t25 -13q0 -5 6.5 -6.5t13.5 -7 t7 -13.5t-12 -18q-11 -15 -13.5 -20.5t-14.5 -17.5q-19 -20 -47 -38.5t-53.5 -34t-46.5 -28.5t-21 -15q-8 -82 -14 -160.5t-13.5 -139t-13.5 -97t-13 -36.5q-11 -39 -34.5 -53.5t-47.5 -10t-45.5 23.5t-33.5 44q0 47 6 92t8 85.5t0 71t-14 46.5q-15 25 -46.5 18.5t-66 -21.5 t-70.5 -34.5t-64 -19.5q-21 0 -51.5 2t-57 11.5t-45.5 28t-19 53.5q0 32 7.5 61t22.5 51t42.5 28.5t68.5 -10.5q50 -12 69 -15.5t27 -3.5t12 3.5t27 3.5q32 10 54.5 22t42.5 30.5t39.5 45.5t46.5 67l23 364q0 33 2.5 74.5t2 69.5t-15.5 37.5t-51 -22.5q-15 -16 -32 -22.5 t-30 -12t-19.5 -15t-6.5 -32.5q4 -70 -34.5 -83t-90.5 4q-26 5 -89.5 39t-129.5 79.5t-117 92.5t-51 81z" />
<glyph unicode="8" horiz-adv-x="1187" d="M106 1229q5 54 48 105.5t109 89.5t149.5 54.5t168.5 3.5q131 -18 204.5 -74t107 -124.5t38.5 -143t7 -134.5q9 -15 36 -8t39 6q94 46 156 0l-83 -59q-78 -42 -137.5 -94.5t-106.5 -120.5q-22 9 -37 -8.5t1 -28.5q56 -31 110.5 -73t100 -99.5t73.5 -131t24 -165.5 q5 -28 -11.5 -66t-65 -106.5t-244 -91t-399.5 145.5q-52 96 -62 141q-5 23 -5 58t14 91t53 133t120 182q-200 101 -311.5 237.5t-96.5 280.5zM319 1159q23 -94 131.5 -198t157 -118.5t76.5 35.5q86 102 47 219t-153 180q-259 68 -259 -118zM540 254q9 -40 33.5 -70t93 -75.5 t182.5 -15.5q84 77 55 185.5t-73.5 165t-91 91t-48.5 32.5l-16 -5q-17 -8 -47 -43.5t-47 -62t-28 -52t-12 -40.5q-10 -70 -1 -110z" />
<glyph unicode="9" horiz-adv-x="1032" d="M82 791q0 4 1.5 22t2.5 41t2 41t1 22q26 3 33 21t11 38.5t12 36.5t37 16q-19 -46 -19 -120t18 -145.5t53 -123t87 -43.5q52 3 103 78.5t93.5 177t72.5 204.5t40 171q7 32 0 41t-23 3.5t-36 -15t-45 -9.5q-14 0 -33.5 -8t-34 -10t-25 8t-7.5 49q-96 -46 -148 -108 t-99 -122q-35 -28 -59.5 -51t-13.5 10q4 28 20.5 77t63.5 135q10 21 49 65t94 88t119 79.5t126 38.5q197 6 271 -98t74 -292q0 -22 8.5 -45.5t14 -45t7 -40t-12.5 -35.5q-15 -17 -28.5 -23.5t-18.5 -26.5q-15 -52 -20 -102q-14 -148 -14.5 -299t-0.5 -300q0 -31 10 -55 t5 -57q-6 -38 -7.5 -60.5t-9 -34t-25.5 -18.5t-56 -19l-38 7q-26 0 -30 9.5t-18 32.5q-24 7 -23 40.5t1 39.5v806q-12 -27 -38.5 -109t-67.5 -168t-97 -154t-130 -68q-92 0 -141.5 50t-75 117t-30.5 135t-5 105z" />
<glyph unicode=":" horiz-adv-x="577" d="M95 172q-9 36 9 87q31 84 142 132q26 10 49 13q73 13 117 -27q36 -34 40.5 -66.5t-1.5 -61.5q-21 -71 -58.5 -107.5t-85 -52t-100 -14t-91.5 53.5q-18 19 -21 43zM95 859q-9 36 9 88q31 84 142 132q26 10 49 12q73 13 117 -26q36 -34 40.5 -66.5t-1.5 -62.5 q-21 -71 -58.5 -107t-85 -52t-100 -14.5t-91.5 53.5q-18 19 -21 43z" />
<glyph unicode=";" horiz-adv-x="529" d="M64 -191q32 67 52 94.5t37 60t24.5 95.5t-7 94.5t-22 64.5t-1.5 50q0 42 26 82t89 63q31 1 57 -2q33 -5 64.5 -29.5t47.5 -76t2 -145.5l-1 -11q-17 -94 -87 -203q-59 -87 -95 -122.5t-75 -64.5q-12 -10 -45 -19q-60 -18 -66 69zM76 850q-8 36 8 87q32 84 142 132 q27 10 50 12q73 13 116 -26q37 -34 41 -66.5t-1 -62.5q-21 -71 -58.5 -107t-85 -52t-100 -14.5t-92.5 53.5q-18 19 -20 44z" />
<glyph unicode="&#x3c;" horiz-adv-x="1026" d="M69 624q0 64 291 251q125 77 414 275q44 20 80 20q72 -11 71 -60q0 -60 -123 -124q-88 -60 -439 -358q62 -42 355 -278q183 -127 203 -159l4 -21q-11 -68 -52 -68q-51 0 -398 223q-264 165 -375 211q-31 41 -31 88z" />
<glyph unicode="=" horiz-adv-x="1031" d="M107 834v6q2 44 33 74q27 27 69 27h9q44 -3 119 -12t159 -17.5t187.5 1.5t149 1t71.5 -42q17 -24 16 -49q0 -15 -6 -29q-15 -45 -81.5 -54t-207.5 -0.5t-214 -1.5t-133 -20.5t-96.5 -4.5t-56.5 41q-18 36 -18 80zM111 461q0 21 7 38q11 45 71 63.5t157.5 12t178 -14 t158 3t136.5 0t77 -61t7 -79.5t-44 -54q-22 -15 -46 -14q-11 0 -26 3q-40 12 -85.5 19t-155.5 13.5t-166.5 -1.5t-115.5 -23q-42 -12 -72 -11h-23q-34 6 -51 57q-7 24 -7 49z" />
<glyph unicode="&#x3e;" horiz-adv-x="988" d="M132 1102v16q0 40 83 52q417 -299 673 -430q44 -37 44 -96v-7q0 -47 -151 -120q-164 -111 -462 -386q0 -40 -96 -52h-16q-56 12 -56 52v7q0 55 196 235q30 36 290 275v4q-216 143 -461 371q-44 42 -44 79z" />
<glyph unicode="?" horiz-adv-x="966" d="M76 1116q2 162 114.5 261t294.5 99q191 0 296.5 -101t105.5 -280q0 -174 -164 -344l-107 -108q-74 -83 -74 -233h-183q2 121 26.5 189.5t99.5 151.5l134 136q83 94 83 202q0 107 -55.5 166.5t-161.5 59.5q-102 0 -163.5 -54.5t-61.5 -144.5h-184zM350 92.5 q0 45.5 27 76.5t81 31t81.5 -31t27.5 -76.5t-27.5 -74t-81.5 -28.5t-81 28.5t-27 74z" />
<glyph unicode="@" horiz-adv-x="1458" d="M88 500v14q0 364 332 645q232 191 500 191q162 0 323 -142q127 -143 126 -350q0 -310 -235 -495q-64 -41 -128 -45q-83 0 -146 104q-111 -100 -231 -100h-9q-137 0 -186 146q-10 36 -10 77q0 213 214 382q95 59 200 59q164 0 182 -195v-14q-14 -192 -14 -218 q10 -68 32 -68q148 68 163 367q0 236 -204 310q-45 9 -82 9h-13q-326 0 -559 -400q-64 -138 -64 -291q0 -196 182 -299q112 -41 228 -42q295 0 508 210q30 77 87 76h4q67 0 81 -85q0 -102 -267 -268q-210 -109 -455 -109q-395 0 -531 340q-28 90 -28 191zM638 527 q3 -36 37 -36q105 0 149 300q-4 7 -4 27h-5q-67 0 -159 -195q-18 -58 -18 -96z" />
<glyph unicode="A" horiz-adv-x="1152" d="M66 126q0 25 53 242l31 148q-31 17 -31 58v6q0 37 74 57q178 706 311 849q36 27 89 27q135 0 169 -90q83 -247 132 -538q36 -248 48 -248q81 0 105 -42v-37q0 -25 -84 -42q0 -102 79 -359q42 -15 42 -84t-121 -69q-144 0 -180 216q-32 279 -41 291q-13 0 -22 5 q-354 -8 -354 -27q-36 -120 -78 -363q5 -41 5 -85q-47 -37 -85 -37h-47q-86 0 -95 122zM409 647h311q-84 568 -122 681h-5q-69 -177 -116 -363q21 -39 21 -64q0 -71 -89 -254z" />
<glyph unicode="B" horiz-adv-x="1171" d="M95 474v251q0 668 63 668q99 94 360 94h83q399 0 465 -250q6 -66 6 -74q0 -224 -210 -360v-10q225 -91 225 -282v-21q0 -340 -527 -455q-57 -5 -99 -5h-110q-168 0 -245 157q-11 140 -11 287zM278 304q0 -142 132 -142h5q201 0 375 158q74 83 73 153v16q0 144 -348 185 h-95q-133 0 -132 -79q-10 -61 -10 -148v-143zM319 849l22 -6q398 0 512 291q0 16 5 36q0 129 -190 169q-60 11 -116 11q-227 -20 -227 -111q-6 -30 -6 -43q48 -31 48 -79v-52q0 -82 -48 -216z" />
<glyph unicode="C" horiz-adv-x="1269" d="M75 531q0 393 280 803q146 169 300 169h47q181 0 269 -238q16 -61 16 -127q0 -142 -111 -142h-10q-80 0 -79 116q11 71 11 89v6q0 153 -101 153q-96 0 -258 -301q-138 -264 -137 -517v-26q0 -248 195 -327q77 -21 152 -21q238 0 438 237h53q69 0 69 -68q0 -129 -311 -280 q-143 -48 -312 -48q-355 0 -474 280q-37 130 -37 242z" />
<glyph unicode="D" horiz-adv-x="1273" d="M97 1193q0 187 95 236q114 53 293 53h68q451 0 597 -331q36 -107 37 -199v-100q0 -357 -294 -647q-239 -183 -521 -183h-3q-188 0 -240 110q-14 0 -21 42q0 232 -11 1019zM306 1162q58 0 58 -100v-42q-52 -550 -52 -788q20 -48 73 -48q336 0 539 473q42 130 43 221v16 q0 302 -263 420q-66 21 -187 32q-199 0 -200 -90q-5 0 -11 -94z" />
<glyph unicode="E" horiz-adv-x="1206" d="M105 1381v37q0 58 89 74h22q89 -2 89 -11q72 5 107 5h73q659 0 659 -63q11 -2 11 -11v-47q0 -31 -200 -31h-222q-359 0 -359 -48q-18 0 -26 -396h406q290 -7 290 -52v-48q0 -42 -374 -43q-136 0 -311 -9q-11 -27 -11 -80q0 -113 -5 -305q0 -153 31 -154q38 -10 138 -15 q286 15 482 15h24q111 -3 111 -31v-27q0 -115 -612 -115h-11h-132q-200 0 -237 89q-27 104 -27 180l22 997q-27 74 -27 89z" />
<glyph unicode="F" horiz-adv-x="1145" d="M55 832q0 41 89 64q0 83 6 353q-32 108 -32 121q0 106 153 106q22 0 80 -10q199 10 303 10h18q433 0 433 -95v-11q0 -52 -132 -52h-369q-238 0 -238 -53q-15 -23 -15 -288v-34v-11l5 -25h385q275 0 275 -43q16 -6 15 -32v-26q0 -43 -179 -48h-96q-42 0 -67 6 q-338 -8 -338 -26q-6 -58 -6 -101v-242q0 -123 16 -317q-65 -63 -137 -63q-95 0 -95 116q0 117 10 612q-84 0 -84 89z" />
<glyph unicode="G" horiz-adv-x="1327" d="M73 528q0 307 231 659q252 310 517 310h11q217 0 294 -140q21 -56 20 -96q-15 -112 -78 -112h-47q-68 0 -68 123q-40 81 -110 81q-211 0 -435 -444q-115 -241 -115 -429q0 -246 162 -326q20 -11 42 -11q210 0 382 429q16 52 16 68h-63q-178 0 -178 39v20q0 48 52 70 l126 11q131 -5 241 -5h78q107 0 121 -38v-48q0 -26 -146 -49l-11 -219q0 -192 52 -310v-16q-29 -102 -99 -102h-32q-94 0 -94 70q-21 10 -27 192q-185 -262 -454 -262q-388 0 -388 535z" />
<glyph unicode="H" horiz-adv-x="1194" d="M53 764q0 45 89 70q5 72 5 106v43q0 519 90 519h47q54 0 104 -64v-37q-26 -380 -26 -519v-38q5 0 16 -5q209 -5 241 -5q20 0 188 5v144q0 498 52 498q21 21 58 21h26q110 -23 110 -107v-16q-41 -154 -41 -540q131 0 130 -33v-42q0 -48 -120 -59h-10v-91q0 -107 15 -481 q-6 -133 -26 -134h-63q-90 0 -136 101q10 226 10 389v29v176q-142 -5 -221 -5h-24h-137q-27 0 -78 -5v-359q0 -108 20 -230v-6q-27 -90 -88 -90h-22q-125 0 -125 247q0 117 5 422q5 10 5 16q-94 0 -94 80z" />
<glyph unicode="I" horiz-adv-x="935" d="M47 74q0 80 210 80h5q68 0 68 91q21 747 21 1097h-5q-283 0 -283 53v38q0 49 204 64q61 0 194 5q404 0 403 -64v-48q0 -32 -251 -33q-52 0 -52 -278v-925q125 -16 190 -16h8q62 5 84 5h6q36 -11 36 -43v-21q0 -69 -220 -69q-13 0 -136 5q-37 -37 -125 -38q-8 0 -85 33 h-178q-94 0 -94 64z" />
<glyph unicode="J" horiz-adv-x="1327" d="M83 465q0 90 68 90h27q110 0 110 -176q122 -236 314 -236q294 0 398 519l21 236q-10 284 -32 470v38q0 102 79 102h31q116 -26 116 -75q21 -179 21 -428q0 -630 -257 -883q-151 -123 -341 -123h-31q-304 0 -471 278q-52 109 -53 188z" />
<glyph unicode="K" horiz-adv-x="1247" d="M90 48v32q48 138 48 594q5 0 5 64q-16 0 -31 58v32q0 21 31 53v169q0 259 -48 324v42q1 91 97 91q159 0 159 -207v-361q236 145 524 398q121 148 165 148h53q52 0 64 -79v-5q0 -91 -138 -181q-388 -308 -610 -445q204 -222 318 -308q278 -225 424 -297q32 -27 33 -75 q0 -90 -102 -90q-115 0 -270 165q-173 136 -467 419v-10q0 -547 -47 -548q-33 -31 -106 -31q-101 0 -102 48z" />
<glyph unicode="L" horiz-adv-x="1138" d="M83 148v27q31 533 31 801q0 103 -21 435q63 80 122 80h32q101 -23 101 -245q0 -218 -38 -1082h22q37 0 42 -5l53 5q122 0 351 6q307 0 307 -48q11 0 11 -27v-53q-23 -42 -90 -42q-133 22 -218 22q-473 0 -546 -22h-48q-70 0 -101 84q-11 37 -10 64z" />
<glyph unicode="M" horiz-adv-x="1514" d="M92 223q43 1080 69 1209q44 37 133 37q61 0 106 -126l318 -764q39 -83 48 -86q255 457 382 913q27 63 68 63h1h53q101 0 101 -196q21 -1015 47 -1151v-53q0 -52 -73 -69h-59q-122 0 -122 128q11 119 11 175v658h-6q-128 -331 -312 -669q-31 -53 -91 -53h-42 q-106 0 -133 84q-292 649 -291 685h-6v-11q-11 -463 -11 -487q4 -361 32 -388v-32q0 -76 -95 -90h-48q-80 0 -80 223z" />
<glyph unicode="N" horiz-adv-x="1341" d="M103 223l42 1061q-15 50 -15 114v8q33 69 99 69h2h53q83 0 243 -361q184 -359 484 -791q22 -27 26 -26q10 127 10 260v122q0 436 -47 674q39 127 122 127h5q80 0 96 -64q26 -80 26 -538v-34q0 -806 -85 -807q0 -15 -53 -21h-58q-68 0 -181 180q-235 325 -525 876v5h-5 v-16q0 -187 -5 -647q-6 -66 -6 -74q6 -22 6 -96v-21q26 -88 26 -110q0 -113 -106 -113h-53q-84 0 -96 159q-5 17 -5 64z" />
<glyph unicode="O" horiz-adv-x="1312" d="M92 613v128q0 256 147 510q-63 0 -63 49v20q0 90 240 165q65 22 147 22q472 0 643 -479q31 -134 32 -287q0 -368 -299 -623q-158 -111 -371 -111q-220 0 -376 223q-99 173 -100 383zM317 608q0 -232 142 -400q83 -53 146 -53h5q235 0 382 394q31 116 32 218 q0 325 -241 511q-116 59 -200 59q-61 -6 -83 -17l6 -10v-69q0 -14 -110 -208q-79 -192 -79 -383v-42z" />
<glyph unicode="P" horiz-adv-x="1214" d="M66 1335v27q0 111 460 139h57q415 0 539 -219q27 -54 26 -101v-59q0 -311 -413 -482q-163 -63 -405 -63h-8q-5 -163 -5 -241v-43q0 -89 26 -193v-5q-34 -101 -104 -101h-63q-74 0 -74 224v22q6 380 32 1026q-68 33 -68 69zM327 747q0 -18 58 -21q229 0 434 160 q115 114 115 225v22q0 128 -241 202q-94 11 -136 11q-209 0 -209 -86q-21 -209 -21 -486v-27z" />
<glyph unicode="Q" horiz-adv-x="1312" d="M86 600v123q0 263 152 524q-62 7 -62 54v15q0 83 235 164q92 22 151 22q441 0 618 -409q52 -132 52 -323v-31q0 -270 -183 -504q36 -56 115 -149v-42q0 -64 -74 -64q-75 0 -135 111q-4 0 -27 27h-5q-155 -111 -350 -111q-337 0 -460 392q-27 90 -27 201zM306 622 q0 -240 136 -403q84 -64 162 -64q107 0 214 111v6q-282 375 -282 451v21q0 42 32 59h72l288 -393q89 177 90 366q0 330 -247 503q-103 53 -183 53q-60 -5 -88 -16q10 -20 10 -42q0 -63 -120 -244q-79 -208 -79 -382v-5q0 -12 -5 -21z" />
<glyph unicode="R" horiz-adv-x="1167" d="M81 325v58q11 986 63 986l16 11h48q69 -11 69 -42h5q158 148 382 148h5q281 0 351 -254q5 -36 4 -59v-69q0 -242 -349 -403q-170 -53 -260 -53v-5q288 -292 482 -403q112 -63 185 -85q22 -28 22 -59v-10q0 -85 -101 -85q-144 0 -323 170q-88 45 -382 355v-68 q0 -296 26 -351v-16q0 -66 -111 -90h-37q-95 0 -95 324zM298 850q7 -64 32 -64q221 0 414 185q69 89 68 186v22q0 103 -154 153l-26 6q-104 -7 -255 -144q-73 -102 -73 -317v-6q-6 1 -6 -21z" />
<glyph unicode="S" horiz-adv-x="1182" d="M83 1006v62q0 246 293 355q127 47 257 47q395 -20 465 -225v-41q0 -78 -102 -78h-3q-69 0 -93 99q-102 99 -257 99h-21q-230 0 -318 -225v-31q0 -158 439 -350q356 -159 355 -293v-89q0 -228 -376 -319q-99 -16 -173 -16q-320 0 -418 137q-31 56 -32 99q14 110 63 110h41 q61 0 74 -90q84 -104 256 -104h52q314 28 315 199q0 96 -497 308q-319 169 -320 346z" />
<glyph unicode="T" horiz-adv-x="1383" d="M44 1416q6 86 59 86h64q114 -22 122 -22h213q280 0 677 -5q38 5 95 5q40 -11 54 -37v-42q0 -51 -523 -75l-4 -11v-64q-32 -134 -33 -404q0 -134 6 -597q18 0 31 -74v-33q0 -113 -112 -143h-36q-77 0 -107 154q0 9 -5 64l21 943q-14 160 -21 160q-59 0 -347 -6 q-154 0 -154 101z" />
<glyph unicode="U" horiz-adv-x="1280" d="M102 512v79q0 180 42 740q-5 52 -5 102q59 53 91 53h43q117 0 117 -149v-6q0 -32 -48 -383q-16 -224 -16 -363q0 -404 138 -404h1q126 0 286 272q75 135 129 335q58 326 58 496v127q0 69 101 69q149 -27 150 -132v-38q-48 -555 -49 -671v-155q0 -292 70 -335 q16 -4 16 -43q-16 -106 -106 -106h-64q-129 0 -129 400v5h-5q-207 -400 -511 -400q-308 0 -309 507z" />
<glyph unicode="V" horiz-adv-x="1365" d="M34 1406v21q42 75 134 75h10q92 0 123 -91q117 -448 303 -932q57 -143 70 -154l447 1113q38 64 96 64h27q66 0 95 -86v-15q-559 -1191 -559 -1295q-52 -90 -112 -90h-48q-101 21 -101 101q-484 1197 -485 1289z" />
<glyph unicode="W" horiz-adv-x="1643" d="M56 1391v21q0 75 101 75q126 0 171 -171q52 -201 148 -963l11 -6q240 716 304 868q30 27 53 27h54q90 0 122 -208l197 -676h5q160 707 160 1075q0 45 101 54q112 -17 112 -112v-26q0 -247 -255 -1183q-48 -160 -134 -160h-16q-134 0 -133 96q-133 417 -218 799 q-15 -10 -96 -304q-141 -446 -218 -569q-69 -27 -107 -27q-120 0 -133 106l-133 873z" />
<glyph unicode="X" horiz-adv-x="1323" d="M41 79v21q0 50 85 94q223 276 395 559v5q-199 322 -390 527q-58 44 -58 79v10q20 111 137 111q112 0 279 -295q158 -232 158 -242h5q262 387 401 532q29 27 63 27h36q74 0 74 -80v-11q0 -45 -99 -120q-193 -235 -370 -500q121 -223 490 -664l11 -37v-21q-11 -58 -58 -58 h-53q-142 0 -410 416l-116 163q-193 -324 -327 -506q-67 -73 -120 -73h-1h-79q-53 0 -53 63z" />
<glyph unicode="Y" horiz-adv-x="1129" d="M77 1180v158v5q0 169 62 169h49q61 0 116 -85q-17 -185 -17 -263q19 -390 100 -390q0 -5 16 -5q110 0 285 221q77 124 178 469q25 48 69 48h32q100 -22 100 -75v-16q-127 -681 -127 -1115v-38q28 27 48 27h36q27 -14 27 -42v-11q0 -124 -132 -232l-26 -5h-21 q-88 0 -131 127q-4 7 -11 83q11 374 42 638v6h-6q-183 -248 -395 -248h-15q-168 0 -226 179q-53 167 -53 395z" />
<glyph unicode="Z" horiz-adv-x="1286" d="M77 112v26q0 69 394 549q304 357 417 505q68 88 68 107q-23 10 -132 16q-28 -6 -47 -6q-153 0 -589 -31q-89 0 -111 79q7 128 68 128q250 -31 316 -31q54 0 553 15q180 0 179 -58q10 -50 10 -80v-16q0 -74 -136 -245q-156 -205 -516 -644l-180 -250v-6q362 6 428 6 q343 0 415 -86v-48q0 -28 -152 -37q-178 11 -316 11q-518 -11 -569 -11q-100 46 -100 107z" />
<glyph unicode="[" horiz-adv-x="703" d="M-12 -129q0 9 5 17q9 28 15.5 130.5t27.5 768.5t17.5 737t-23 90t-25.5 56.5t28 69.5t62 43q8 2 18 2q23 0 50 -17q40 -22 55.5 -28t154 -11t224.5 0t135 -1t65 -24q11 -13 10 -22q0 -6 -4 -14q-12 -19 -65 -29.5t-133.5 -15.5t-177.5 -2t-150 0t-62.5 -36.5t-10.5 -159 t-6.5 -651t-10.5 -685t10.5 -172.5t173.5 -19t209.5 4t81 -2t29.5 -32t-20.5 -48t-180.5 -24t-298 0q-52 -13 -100 -17h-9q-40 0 -70 36q-25 32 -25 56z" />
<glyph unicode="\" horiz-adv-x="925" d="M34 1502v54q0 77 104 113q111 0 149 -157q143 -448 359 -960q190 -422 190 -545v-4q-10 -158 -90 -158h-23q-54 0 -98 81q-28 193 -99 406q-181 507 -321 797q-171 310 -171 373z" />
<glyph unicode="]" horiz-adv-x="703" d="M6 -131q0 15 10 29q19 27 54.5 26.5t81 -9.5t163 -7t137.5 12t33.5 33t18.5 401t14.5 769.5t3 438.5t-18.5 64t-59.5 15t-132 -5t-159.5 -7.5t-104.5 15.5t-29.5 45t7 45t52.5 21t99.5 -9t102.5 -10t147 2t138.5 22q15 6 28 6q27 0 48 -20q36 -32 37 -120v-13 q-4 -100 -2 -674q2 -152 2 -281q0 -357 -4 -527q-6 -235 -56.5 -274.5t-162 -44.5t-190.5 -8q-58 -4 -98 -4h-32q-50 2 -80.5 16.5t-44.5 35.5q-4 8 -4 17z" />
<glyph unicode="^" horiz-adv-x="1085" d="M85 1042q221 232 411 487q37 30 71 30h17q75 0 141 -152q87 -153 282 -365q6 -32 6 -46q0 -83 -118 -100h-6q-73 10 -287 329q0 16 -35 52q-135 -195 -329 -369q-13 0 -24 -6q-90 0 -129 140z" />
<glyph unicode="_" horiz-adv-x="1090" d="M26 -162q2 53 21 74.5t47 31.5q22 10 48 10h20q40 -7 107.5 -22.5t139 -18t162 -6t203.5 15t180 -3.5t85 -57q8 -21 8 -40q0 -13 -4 -25q-12 -28 -46 -44t-219 -12.5t-328 -4.5t-240 -15h-23q-81 0 -119 29q-42 30 -42 82v6z" />
<glyph unicode="`" horiz-adv-x="1090" d="M321 1436h173l181 -283h-127z" />
<glyph unicode="a" horiz-adv-x="1013" d="M45 265v54q0 283 324 546q159 98 308 98h11q216 -14 216 -130q-11 -378 -11 -438q0 -210 60 -275v-22q-11 -92 -93 -92h-64q-108 0 -108 233q-177 -227 -384 -227h-27q-169 0 -221 167q-11 24 -11 86zM255 276q0 -90 76 -108v-5q83 0 216 156q95 149 130 395q0 20 54 54 v5q0 45 -54 49q-131 0 -297 -222q-125 -198 -125 -324z" />
<glyph unicode="b" horiz-adv-x="1035" d="M61 178q5 64 5 92l21 859q0 58 -10 227q-1 146 75 146h43q119 -27 119 -233q-22 -203 -32 -562q180 249 406 249h10q207 0 271 -189q21 -53 21 -124v-6v-27q0 -327 -308 -534q-107 -65 -221 -65h-6q-126 0 -162 65q-16 26 -16 48h-6v-65q-39 -48 -113 -48q-97 0 -97 167z M293 243h6q21 11 59 10q46 0 75 -97q39 -16 43 -16q125 34 184 130q125 190 125 357v5q-18 178 -113 178h-1h-5q-117 0 -259 -222q-114 -217 -114 -345z" />
<glyph unicode="c" horiz-adv-x="977" d="M44 400v37q0 295 303 476q136 70 286 70q132 0 178 -81q22 -42 22 -70v-43q0 -114 -86 -114h-33q-82 0 -81 135q-25 22 -49 22q-121 0 -254 -184q-70 -113 -70 -227q0 -194 178 -276q45 -10 67 -10h4h11q130 0 270 140q23 22 43 22h32q55 0 65 -70v-17q0 -109 -281 -194 q-50 -16 -124 -16h-55q-292 0 -404 270q-22 63 -22 130z" />
<glyph unicode="d" horiz-adv-x="1085" d="M77 275v76q0 297 270 529q108 82 232 82h59q124 -28 124 -82h6q15 622 76 622q0 18 59 26h21q62 0 98 -69q-48 -715 -49 -940q0 -317 44 -411v-38q-17 -65 -76 -65h-54q-114 0 -114 222v5h-11q0 -36 -145 -151q-117 -76 -238 -76q-230 0 -287 179q-16 50 -15 91zM293 329 q0 -138 97 -162h16q106 0 227 157q119 196 118 416h-4q-20 -11 -44 -11q-71 4 -70 60q-34 32 -65 32q-84 -25 -156 -125q-119 -175 -119 -356v-11z" />
<glyph unicode="e" horiz-adv-x="952" d="M60 426q0 260 227 450q126 78 232 78h8q222 0 292 -210q4 -23 4 -44v-25q0 -182 -240 -270q-81 -30 -206 -31h-81l-9 5v-5q28 -214 193 -214h22q4 0 4 -4l9 4h25q124 0 245 154q33 13 47 13q73 -13 73 -68v-5q0 -103 -245 -219q-77 -25 -156 -25h-6h-9q-319 0 -412 292 q-13 56 -17 124zM304 517q24 -5 39 -5h17q228 0 267 168v29q0 103 -100 103q-125 0 -219 -244q-4 -23 -4 -51z" />
<glyph unicode="f" horiz-adv-x="804" d="M10 885v9q0 77 238 77h6q37 446 64 446q51 107 151 107q90 0 184 -107q90 -144 91 -231v-22q-10 -20 -31 -29h-34q-67 0 -111 145q-25 46 -56 69h-9q-16 0 -34 -378l8 -4h26q292 0 292 -73v-4q0 -56 -142 -56q0 -5 -192 -18q-5 -249 -5 -317q0 -321 34 -321 q26 -16 26 -22v-13q-24 -146 -137 -146q-95 0 -125 159q-8 40 -12 240q4 101 4 206v189l4 21h-73q-65 0 -90 -12q-78 42 -77 85z" />
<glyph unicode="g" horiz-adv-x="1057" d="M-24 -281q13 78 69 78q77 0 138 -146q93 -86 214 -86h21q199 0 283 266q52 236 52 433q-175 -205 -403 -205q-217 0 -267 236q-4 21 -3 56v25q0 225 205 442q143 124 275 124h13q97 0 163 -94q0 24 77 43q97 0 133 -116q25 -102 25 -421v-25q0 -726 -351 -880 q-94 -38 -214 -38q-210 0 -365 179q-65 86 -65 125v4zM303 351q0 -130 103 -130q126 0 244 172q82 118 82 270v13q0 20 -31 52q0 -6 -21 -18h-35q-8 0 -64 69q-3 0 -25 5q-86 0 -181 -163q-72 -153 -72 -270z" />
<glyph unicode="h" horiz-adv-x="1007" d="M82 117v9q17 600 25 1176q0 21 -9 102q42 65 99 65h13q107 -24 107 -105q9 0 9 -62q-18 -240 -18 -572v-5h5q80 134 236 194q34 9 73 13q178 0 240 -189q21 0 30 -520q14 -82 34 -145q0 -88 -98 -89q-146 28 -146 194q-4 25 -4 49q4 332 4 431q-13 97 -43 97h-12 q-193 0 -297 -414q-27 -242 -42 -291q-28 -62 -82 -62h-39q-74 0 -85 124z" />
<glyph unicode="i" horiz-adv-x="492" d="M114 186q15 691 34 690q25 48 82 48q103 0 120 -155q-38 -253 -39 -368q0 -121 44 -279v-26q-14 -81 -110 -81h-2h-13q-112 36 -112 145q-4 0 -4 26zM123 1102v21q0 101 124 142q22 4 43 4q107 -23 107 -99q0 -83 -107 -142q-42 -7 -60 -7h-4q-103 11 -103 81z" />
<glyph unicode="j" horiz-adv-x="639" d="M-574 -199q12 73 71 73h2q97 0 194 -180q98 -85 226 -86h18q360 0 361 888q0 160 -48 357q62 76 116 76h26q133 0 133 -326v-9q0 -886 -348 -1076q-114 -64 -270 -64q-267 0 -459 265q-22 47 -22 82zM224 1164v8q0 116 150 159h52q89 -18 90 -86v-8q0 -104 -120 -142 q-32 -9 -60 -9h-26q-86 20 -86 78z" />
<glyph unicode="k" horiz-adv-x="989" d="M61 85v62q0 105 30 988q-8 144 -8 187v8q0 106 107 106q57 0 107 -88v-98q0 -288 -13 -556h4q388 264 532 265q94 -19 94 -93q0 -90 -167 -110q-75 0 -394 -207v-5q203 -207 369 -317q201 -108 201 -164v-9q0 -55 -77 -70h-17q-105 0 -364 238q-27 15 -194 177 q-4 -112 -4 -163v-36q0 -55 21 -79q0 -53 -68 -115q-31 -18 -69 -18h-5q-64 0 -85 97z" />
<glyph unicode="l" horiz-adv-x="504" d="M118 236q30 549 30 779q0 226 -30 362q39 96 118 96q140 -34 140 -192q-31 -543 -31 -831v-100q0 -164 31 -254q-26 -87 -87 -87h-14q-157 0 -157 227z" />
<glyph unicode="m" horiz-adv-x="1459" d="M99 66q22 368 22 489v180q0 189 70 214l31 4h22q105 -23 105 -79q0 -16 -5 -109v-5h5q97 184 218 184q141 0 197 -175q33 -136 39 -135q116 319 302 319q165 0 227 -289q44 -342 44 -485q0 -170 -109 -170h-5q-64 0 -130 100q4 23 7 189q0 235 -52 454q-13 9 -12 22h-23 q-70 -45 -148 -302q-30 -98 -70 -363q-29 -75 -87 -75q-78 0 -123 105q0 328 -79 621l-13 9h-5q-105 -132 -144 -336q-25 -93 -61 -350q-31 -70 -96 -70h-18q-70 0 -109 53z" />
<glyph unicode="n" horiz-adv-x="1071" d="M82 122v14q35 390 35 533v96q0 28 -5 66q0 148 101 148h17q95 0 114 -61q0 -7 -9 -110q127 162 262 162h18q296 0 371 -765q5 -29 5 -91q-15 -110 -96 -110q-83 39 -84 96q-9 6 -96 428q-79 267 -143 268q-115 0 -219 -337q-27 -147 -45 -368q-25 -78 -68 -78h-1h-31 q-97 0 -126 109z" />
<glyph unicode="o" horiz-adv-x="1000" d="M54 813q35 132 346 157q28 5 96 5q218 0 362 -167q79 -116 79 -235v-40q0 -241 -271 -450q-129 -70 -257 -70q-246 0 -307 280q-18 61 -18 148v66q0 134 27 228q-57 24 -57 78zM299 472q0 -310 140 -310q157 0 257 245q27 94 27 153q0 181 -140 240q-47 13 -74 13h-4h-27 q-121 0 -153 -109q-26 -84 -26 -232z" />
<glyph unicode="p" horiz-adv-x="1005" d="M62 -398q25 1185 35 1185q38 126 108 126h1q70 0 109 -91v-22q0 -43 -9 -88q192 237 389 237h9q161 0 228 -202q13 -60 18 -153q0 -269 -193 -467q-134 -114 -285 -114h-12q-76 0 -175 30v-4q-13 -223 -13 -328q21 0 26 -35v-13q0 -133 -79 -241q-32 -18 -52 -21 q-105 28 -105 201zM303 201q62 -31 121 -31q214 0 294 355q4 41 4 78v70q0 101 -66 101q-135 0 -288 -298q-65 -164 -65 -275z" />
<glyph unicode="q" horiz-adv-x="1013" d="M50 293v12q0 233 227 460q228 205 490 205h9q188 -14 188 -87v-13q0 -40 -61 -74q-43 -689 -44 -1072l8 -4q130 153 145 153h9q38 0 44 -57v-12q0 -84 -175 -268q-65 -57 -110 -57h-26q-114 0 -114 237q0 18 -4 47q13 291 13 393v14l4 23q-171 -171 -353 -171 q-149 0 -228 144q-22 50 -22 127zM273 284q0 -96 84 -96q158 0 296 297q39 151 39 275q0 24 -21 32q-141 0 -311 -228q-87 -152 -87 -241v-39z" />
<glyph unicode="r" horiz-adv-x="985" d="M89 868v11q8 86 81 86h11q98 0 139 -97v-118h5q125 209 343 210q285 -40 285 -183v-5q0 -70 -76 -70h-31q-47 0 -161 97q-11 0 -38 10q-119 0 -246 -273q-76 -248 -76 -418q6 -45 6 -70q-50 -43 -129 -43q-108 0 -108 134v5q11 282 11 499v54q0 22 -16 171z" />
<glyph unicode="s" horiz-adv-x="950" d="M55 646v47q0 182 317 255q100 11 144 11q365 -25 365 -155v-52q0 -59 -100 -59q-66 0 -101 85q-84 37 -169 37h-6q-157 0 -244 -122q0 -5 -5 -15q0 -70 408 -202q206 -75 206 -211v-26q0 -204 -359 -239h-101q-350 24 -350 164v27q0 68 83 68h2q57 0 116 -73 q84 -48 191 -48h6q165 0 217 90q0 52 -350 164q-270 92 -270 254z" />
<glyph unicode="t" horiz-adv-x="902" d="M39 895v37q0 31 196 32h26q0 171 64 423q30 70 101 70q91 0 111 -117q-69 -325 -68 -371q355 -10 354 -43v-47q0 -31 -354 -42l-11 -16v-265q0 -413 169 -413q103 9 228 122q10 5 21 5h47q27 -14 27 -42v-33q0 -71 -222 -164q-71 -26 -143 -26h-5q-202 0 -276 154 q-58 92 -58 351v9v302h-11q-195 0 -196 74z" />
<glyph unicode="u" horiz-adv-x="1039" d="M93 365l43 519v11q36 48 84 48h43q89 0 90 -117q-53 -295 -53 -397q-5 -86 -5 -95q14 -154 64 -154q133 46 248 228q122 267 122 407q26 117 69 117q107 0 132 -74l5 -21q-16 -384 -16 -525q5 -191 27 -190v-42q-48 -75 -100 -75h-43q-89 0 -90 128v153 q-205 -275 -376 -275h-53q-191 0 -191 354z" />
<glyph unicode="v" horiz-adv-x="1045" d="M27 886q0 67 63 78h21q128 0 143 -80q13 -102 233 -598q11 -4 27 -53h5q110 235 296 667q42 64 133 64q80 -18 79 -69v-16q0 -16 -174 -334q-235 -478 -271 -518q-36 -22 -63 -22h-53q-86 0 -180 217q-259 518 -259 664z" />
<glyph unicode="w" horiz-adv-x="1309" d="M45 864q59 95 142 95q97 0 137 -331q4 -6 47 -283h4q61 134 203 476q45 29 81 30q48 0 94 -55q77 -246 167 -516q12 0 69 206q34 92 65 426q32 47 89 47q73 0 95 -100v-38q0 -156 -198 -686q-49 -125 -141 -125h-8q-86 0 -108 99q-60 134 -154 437h-4 q-219 -524 -275 -523q-23 -4 -39 -4h-17q-89 21 -90 77q-94 583 -155 729z" />
<glyph unicode="x" horiz-adv-x="948" d="M51 135l56 103l197 248v5q-219 264 -219 356v30q12 77 78 77q110 0 154 -129q32 -86 125 -197q270 302 352 309h38q73 -10 73 -69v-4q0 -36 -107 -95q-109 -103 -254 -265v-5q77 -126 331 -364q22 -3 22 -13q-15 -112 -99 -112h-13q-104 0 -202 141q-31 31 -171 203 q-164 -204 -172 -267l5 -25q-45 -52 -96 -52h-16q-78 29 -78 90q0 11 -4 35z" />
<glyph unicode="y" horiz-adv-x="967" d="M81 422q8 272 8 367v19q11 133 120 133q107 0 120 -129v-9q-38 -293 -38 -373q0 -227 60 -227q9 0 9 -5q105 0 222 185q73 167 73 361q0 5 5 4l-5 8v134q53 51 116 51q112 -28 112 -111q0 -25 4 -47q-64 -592 -64 -1005q0 -16 8 -145q30 29 47 29h5q56 0 56 -60 q0 -112 -116 -192q-28 -9 -39 -9h-21q-138 29 -137 244q-5 10 -5 78v154q0 151 14 317q-160 -150 -250 -150q0 -4 -56 -13q-177 0 -227 189q-21 78 -21 192v10z" />
<glyph unicode="z" horiz-adv-x="1009" d="M57 165q0 60 270 305q344 316 348 330v3h-4q-158 0 -473 -12q-133 14 -132 77v17q7 80 34 82q39 0 154 -13q174 0 408 9q80 -4 154 -4q112 -30 112 -134v-8q0 -57 -407 -438q-172 -186 -176 -197q100 -4 150 -4h77q189 0 283 25q58 0 86 -81q-31 -86 -94 -87q0 -6 -56 -7 q-16 0 -185 7q-250 -12 -361 -12h-16h-26q-146 18 -146 142z" />
<glyph unicode="{" horiz-adv-x="890" d="M43 825q0 64 158 106q83 40 106 476q37 187 135 281q93 76 235 76q164 0 187 -111q-10 -65 -58 -65q-18 0 -123 24q-151 0 -200 -487q-55 -248 -158 -329h-12v-6q123 -129 141 -275q48 -511 124 -511q26 -53 152 -53q24 -31 23 -59q0 -65 -123 -82q-229 0 -340 294 q-16 75 -30 434q-27 110 -100 164q-117 47 -117 123z" />
<glyph unicode="|" horiz-adv-x="540" d="M164 -72q0 50 3 110q17 227 26 499.5t13 558.5t-6.5 385.5t1 146t39.5 82.5q21 24 51 24q14 0 30 -4q51 -16 76 -77q14 -60 14 -150q0 -98 -16 -234q-28 -259 -38.5 -534.5t-2.5 -499t10.5 -316t20.5 -168.5q-32 -67 -86 -74q-6 -2 -13 -2q-46 0 -86 64q-36 53 -36 189z " />
<glyph unicode="}" horiz-adv-x="745" d="M83 1659v12q0 75 123 75h53q182 0 241 -181q12 -59 12 -106q0 -53 -36 -293v-35q0 -144 112 -200q99 -28 100 -94v-12q0 -54 -94 -105q-35 -44 -35 -217v-171q0 -399 -223 -510q-41 -12 -71 -12h-70q-94 25 -94 82q0 51 141 71q112 89 112 552q0 133 69 258q5 0 36 46 q-188 88 -188 335v30l24 286q0 124 -59 124h-64q-75 0 -89 65z" />
<glyph unicode="~" horiz-adv-x="950" d="M37 477q0 17 6 42q20 83 63.5 154t106.5 119q52 40 107 40q14 0 26 -3q69 -12 125 -68.5t115.5 -92.5t105 -43t81.5 31.5t63 113.5q20 47 38 47q11 0 19 -12q18 -16 18 -53q0 -28 -11 -64q-24 -86 -51 -134.5t-68 -90.5t-116 -45q-9 -3 -17 -3q-62 0 -115 34 q-58 36 -114.5 87.5t-112 84.5t-98 -13.5t-72 -118t-69.5 -60.5q-29 6 -30 48z" />
<glyph unicode="&#xa2;" horiz-adv-x="998" d="M122 624q0 104 31 186.5t85.5 143t129 97.5t158.5 49v213h105v-207q88 -4 152.5 -38t110.5 -78l-80 -105q-40 36 -85.5 58.5t-97.5 25.5v-691q65 4 117 31t92 63l73 -105q-59 -52 -131.5 -86t-150.5 -41v-207h-105v209q-91 11 -165 48t-127.5 97.5t-82.5 145t-29 191.5z M287 624q0 -135 62.5 -224t176.5 -114v674q-111 -27 -175 -115.5t-64 -220.5z" />
<glyph unicode="&#xa3;" horiz-adv-x="998" d="M106 574v104l135 8h36q-20 65 -37 126t-17 125q0 84 27 153t76 117t118 74t153 26q108 0 184 -43t128 -107l-97 -95q-38 46 -86 76.5t-117 30.5q-109 0 -166 -65.5t-57 -170.5q0 -64 14.5 -123.5t33.5 -123.5h319v-112h-293q5 -28 7.5 -55.5t2.5 -57.5q0 -107 -32 -177.5 t-92 -132.5v-9h565v-142h-803v100q102 57 157.5 152.5t55.5 210.5q0 28 -4 55t-10 56h-201z" />
<glyph unicode="&#xa4;" horiz-adv-x="998" d="M52 298l129 130q-34 46 -53.5 104.5t-19.5 129.5q0 70 19 129.5t54 105.5l-129 133l88 91l137 -142q97 75 224 75q58 0 116.5 -19t104.5 -56l136 142l89 -91l-131 -133q34 -46 54.5 -105.5t20.5 -129.5q0 -71 -20 -129.5t-55 -104.5l131 -130l-89 -91l-136 139 q-46 -38 -104.5 -57.5t-116.5 -19.5q-129 0 -224 77l-137 -139zM261 662q0 -61 19.5 -110t51 -85.5t76.5 -55.5t93 -19t91.5 19t75 55.5t51 85.5t19.5 110q0 60 -19.5 109.5t-51 85.5t-75 55t-91.5 19t-93 -19t-76.5 -55t-51 -85.5t-19.5 -109.5z" />
<glyph unicode="&#xa5;" horiz-adv-x="998" d="M46 1284h173l157 -345q30 -66 59.5 -133t61.5 -138h8q34 71 63 138t60 133l157 345h169l-330 -645h286v-94h-329v-130h329v-97h-329v-318h-165v318h-326v97h326v130h-326v94h284z" />
<glyph unicode="&#xa6;" horiz-adv-x="484" d="M175 430h161v-933h-161v933zM175 585v924h161v-924h-161z" />
<glyph unicode="&#xa9;" horiz-adv-x="1495" d="M98 662q0 160 54.5 289t148.5 219.5t218 139t263 48.5q137 0 260 -48.5t218 -139t149.5 -219.5t54.5 -289q0 -163 -54.5 -293t-149.5 -222t-218.5 -142t-259.5 -50q-138 0 -262.5 50t-218.5 142t-148.5 222t-54.5 293zM231 650q0 -134 44 -241t119.5 -184.5t176.5 -120 t216 -42.5q114 0 214.5 42.5t176 120t120 185t44.5 240.5q0 131 -44.5 238.5t-120 183.5t-176 117.5t-214.5 41.5q-115 0 -216 -41.5t-176.5 -117.5t-119.5 -183.5t-44 -238.5zM417 650q0 86 31.5 156.5t82.5 120.5t118.5 76.5t140.5 26.5q84 0 143.5 -33t107.5 -82l-71 -78 q-40 40 -81 61t-93 21q-110 0 -178 -75.5t-68 -193.5q0 -134 65.5 -211t174.5 -77q65 0 113 25.5t92 63.5l60 -85q-56 -48 -118.5 -81.5t-152.5 -33.5q-77 0 -143 27t-117 79t-79 125t-28 168z" />
<glyph unicode="&#xad;" horiz-adv-x="810" d="M53 668q0 30 11 46q21 31 50 44q23 11 44 11q14 0 30 -3q37 -8 103 -49q151 -28 214 -14t126.5 29.5t88 -6.5t28.5 -81v-8q0 -52 -46 -83q-50 -28 -150 -20.5t-217 -5.5q-51 -3 -92 -2q-55 0 -98 9q-71 16 -85 81q-7 29 -7 52z" />
<glyph unicode="&#xae;" horiz-adv-x="850" d="M46 1038q0 88 30 160.5t81.5 125t120 81.5t146.5 29q79 0 148 -29t121 -81.5t81.5 -124.5t29.5 -161q0 -88 -29.5 -161t-81.5 -125t-121 -81.5t-148 -29.5t-147 29.5t-119.5 81.5t-81.5 125t-30 161zM127 1038q0 -73 23 -132t62 -101.5t93 -65.5t119 -23q63 0 118 23 t95.5 65.5t63.5 102t23 131.5q0 70 -23 129.5t-63.5 102.5t-95.5 67t-118 24q-65 0 -119 -24t-93 -67t-62 -102.5t-23 -129.5zM280 839v408h152q65 0 111 -29t46 -101q0 -36 -20 -67.5t-54 -43.5l92 -167h-92l-70 140h-83v-140h-82zM362 1044h53q86 0 86 69q0 29 -18 47.5 t-65 18.5h-56v-135z" />
<glyph unicode="&#xb0;" horiz-adv-x="664" d="M82 1119q0 60 20 107t55.5 81.5t80.5 52.5t95 18t95 -18t80.5 -52.5t55.5 -81.5t20 -107q0 -59 -20 -106t-55.5 -80.5t-80.5 -51.5t-95 -18t-95 18t-80.5 51.5t-55.5 80.5t-20 106zM211 1117q0 -58 35 -96t89 -38q55 0 89.5 38t34.5 96q0 60 -34.5 98t-89.5 38 q-54 0 -89 -38t-35 -98z" />
<glyph unicode="&#xb1;" horiz-adv-x="998" d="M68 0v125h863v-125h-863zM68 612v125h366v382h131v-382h366v-125h-366v-357h-131v357h-366z" />
<glyph unicode="&#xb6;" horiz-adv-x="1125" d="M82 891q0 119 36 200.5t101.5 132.5t154 73t193.5 22h88v-864h-67q-108 0 -201.5 25t-161 78.5t-105.5 136t-38 196.5zM763 -161v1480h169v-1480h-169z" />
<glyph unicode="&#xbc;" horiz-adv-x="1570" d="M127 1155v85q67 12 110 31t83 48h106v-784h-128v620h-171zM362 -25l728 1369h113l-729 -1369h-112zM917 209v67l328 509h145v-483h117v-93h-117v-209h-117v209h-356zM1050 302h223v141l11 219h-9l-100 -163z" />
<glyph unicode="&#xbd;" horiz-adv-x="1624" d="M127 1155v85q67 12 110 31t83 48h106v-784h-128v620h-171zM322 -25l728 1369h113l-729 -1369h-112zM968 656q46 68 113 110t148 42q119 0 190.5 -64t71.5 -189q0 -56 -22.5 -108.5t-61.5 -105.5t-92.5 -109.5t-115.5 -120.5h332v-111h-539v75q90 83 160.5 148t116.5 119 t70.5 101.5t24.5 91.5q0 77 -40 121t-111 44q-50 0 -92 -33t-77 -82z" />
<glyph unicode="&#xbe;" horiz-adv-x="1601" d="M68 666l84 64q36 -54 87.5 -85t112.5 -31q64 0 110.5 37t46.5 103q0 69 -64 104t-180 35v82q102 0 157.5 40.5t55.5 101.5q0 58 -38 91.5t-103 33.5q-44 0 -85.5 -26.5t-74.5 -69.5l-77 69q50 58 111.5 93.5t144.5 35.5q50 0 96 -14.5t80.5 -41.5t54.5 -66t20 -89 q0 -71 -38.5 -117.5t-98.5 -74.5q66 -18 116.5 -67t50.5 -127q0 -54 -22 -98t-59 -75t-89 -47t-107 -16q-96 0 -171 44t-121 111zM438 -25l728 1369h111l-729 -1369h-110zM945 209v67l330 509h144v-483h117v-93h-117v-209h-117v209h-357zM1079 302h223v141l11 219h-8 l-101 -163z" />
<glyph unicode="&#x2dc;" horiz-adv-x="1090" d="M265 1165q8 90 48.5 151.5t114.5 61.5q38 0 70 -16t59.5 -35.5t52 -35.5t47.5 -16q57 0 75 103h92q-8 -90 -48 -151.5t-115 -61.5q-37 0 -68.5 16t-58.5 35t-51 35t-51 16q-58 0 -72 -102h-95z" />
<glyph unicode="&#xe01;" horiz-adv-x="1263" d="M105 570q-3 40 12 81q10 32 22 57q14 28 33 49q17 25 36 46q21 21 45 41q23 19 42 32q23 17 53 36q35 19 64 26q25 8 55 17q30 8 59 14l54 8q30 4 60 6q29 0 54 -1t48 -3q25 -5 59 -14q32 -10 55 -19q25 -8 47 -18q23 -11 43 -20q25 -13 45 -32q17 -16 31 -34 q13 -15 22 -29q17 -19 29 -39q15 -21 26 -55q9 -27 17 -41q11 -23 17 -49q6 -19 7 -37q4 -19 8 -37q5 -19 5 -43q2 -16 4 -47q2 -30 4 -51q2 -25 2 -48v-40q0 -21 -2 -45q0 -25 -1 -44.5t-3 -40.5v-43q-2 -30 -4 -49q0 -18 -2 -32q-3 -17 -5 -29q0 -13 -2 -30q0 -21 -2 -40 q-2 -17 -2 -26v-29v-14q0 -32 -23.5 -55t-55 -23t-54 23.5t-22.5 54.5v16v29q0 17 2 36q2 17 2 38q2 19 4 32q0 17 2 33q2 14 4 31q0 15 2 39q0 28 2 47q0 18 1 37.5t2.5 43t1.5 44.5v36q0 17 -3 36q0 21 -3 50t-3 50q-2 17 -4 28q-2 13 -6 29q-2 15 -9 33q-2 12 -6 23 q-10 18 -20 49q-8 20 -14 30t-15 21q-12 14 -24 29q-6 10 -17 18q-4 4 -12 8q-15 8 -32 17q-17 6 -36 12q-19 8 -47 16q-25 6 -38 8q-17 2 -33 4h-39q-23 0 -43 -4q-27 -4 -51 -8q-21 -4 -47 -11q-25 -6 -45 -13q-17 -4 -38 -17q-23 -12 -34 -23q-17 -10 -35 -26 q-18 -15 -33 -31q-14 -15 -26 -28q-10 -15 -17 -29q-8 -14 -14 -35q-4 -13 -4 -20.5t5 -17t11 -15.5q13 -9 33 -17q30 -12 43 -16q19 -6 41 -12q28 -8 52.5 -31.5t24.5 -64.5q0 -19 -1 -38q-4 -16 -12 -51q-7 -28 -9 -38q-2 -13 -2 -25q-2 -17 -4 -33q-2 -18 -6 -49 q-2 -16 -4 -36q-2 -23 -2 -44v-49q0 -23 2 -49q0 -23 4 -43l4 -27q4 -30 -15 -57t-50 -32t-57.5 14.5t-30.5 52.5l-5 24q-4 30 -6 62q-2 28 -2 55v49q0 27 2 55t6 56q5 18 7 33q0 17 2 30q2 17 4 36q2 18 9 53q3 4 5 9q-23 6 -58 21q-45 19 -73 43q-32 27 -51 63.5t-22 76.5 z" />
<glyph unicode="&#xe02;" horiz-adv-x="1125" d="M102 708q0 25 2 52q4 27 13 51q8 25 20 47q13 23 33 48q25 28 49 47q28 22 66 32q28 8 57 12l20 2q14 0 31 -4h6l15 -2q17 -2 34 -8q21 -4 44.5 -14t41.5 -23q23 -14 44 -38q14 -19 26 -40q19 -27 25 -49q6 -21 9 -49q2 -27 0 -51v-13q2 -10 2 -19v-17q0 -21 -3 -43 q-2 -21 -4 -40q-4 -16 -6 -40q-4 -25 -6 -41q-3 -19 -3 -37q-2 -21 -4 -39q-2 -17 -2 -34t-2 -39v-38v-28v-29v-31t2 -40q0 -19 2 -46q2 -23 4 -32q3 -11 9 -28t11 -30q4 -10 13 -20q8 -15 19 -27l6 -6q6 -4 12 -6l26 -8q19 -5 33 -7q10 -2 21 -2q6 0 10 2q8 2 19 7 q4 2 9.5 7t10.5 11q6 11 12 26q6 17 10.5 31.5t6.5 34.5q2 27 6 45q2 15 4 38q2 20 3 34q0 17 3 32q0 15 2 40v41v32q0 17 1 33.5t1 40.5v41q2 16 2 29v32v45v42v36q2 17 1 37.5t-3 32.5q0 15 -2 31q-2 18 -2 33v18l-3 12q-6 31 14 58t51.5 30.5t58.5 -16t31 -49.5l2 -14 q2 -17 2 -35q0 -10 1 -23.5t3 -31.5q2 -17 2 -40q2 -25 0 -47v-34v-40v-45v-36t-2 -29v-41q0 -27 -2 -41v-29v-36v-41q-2 -27 -2 -45q-2 -17 -3 -35t-3 -41q-4 -25 -7 -41q-2 -17 -6 -41q-2 -30 -8 -55t-19 -52q-10 -27 -24 -49q-17 -27 -40.5 -47t-49.5 -32q-20 -9 -41 -13 q-21 -6 -45 -8q-23 0 -47 4q-21 2 -45 8q-27 7 -47 15q-25 8 -46 22q-23 16 -41 42l-24 32q-14 21 -25 43q-8 18 -18 45q-9 27 -12 46q-4 21 -8 53q-2 30 -2 51q-2 28 -2 40v37v31v30v37q2 23 2 44q2 21 2 38q2 19 4 35q-6 -2 -10 -4q-25 -7 -52 -8q-25 -2 -51 0 q-30 2 -57 12q-25 8 -45 21q-19 10 -42 26q-25 19 -42 39q-19 21 -29 41q-10 19 -18 41q-13 28 -15 61zM257 717q0 -9 3 -15l10 -20q4 -6 10 -14q9 -9 21 -17l24 -16q9 -4 19 -8q8 -4 20 -4q14 -2 24.5 -1t19.5 3q12 4 26 10q6 2 12 10q13 12 19 23q8 12 14 24q2 6 4 10 q0 11 1 24.5t-1 28.5t-4 21q0 4 -5 11q-8 12 -17 24q-4 4 -9 6q-8 6 -19.5 11.5t-18.5 7.5q-11 2 -19 4l-13 2h-10h-9q-15 -2 -32 -6q-8 -2 -16 -9q-11 -8 -20 -21q-13 -14 -18 -24t-9 -20q-4 -13 -4 -20q-3 -13 -3 -25z" />
<glyph unicode="&#xe03;" horiz-adv-x="1376" d="M102 657v25q0 28 4 60q4 30 11 49q6 23 18 47q15 30 51 63q33 29 60 43q28 17 63 25q32 9 57 8q23 2 51 0q30 -3 59.5 -13.5t53.5 -27.5q12 -11 27 -24q6 6 12 11q35 29 73 38q28 6 58 6q41 0 74 -14q25 -13 45 -30q23 -18 43 -47q16 -27 26.5 -51t16.5 -59q7 -33 7 -66 q0 -28 -3 -47q-2 -19 -6 -41q-4 -18 -6 -34q-4 -15 -6 -31q-4 -15 -7.5 -29t-7.5 -29q-4 -12 -8 -34q-4 -23 -9 -40q-4 -12 -5 -26q-2 -17 -8 -36q-4 -21 -13 -46q-4 -23 -6 -33t-6 -28q-2 -19 -2 -29q-2 -12 -4 -34q-3 -23 -4 -45.5t-1 -39.5v-26q0 -8 2 -21q3 -8 5 -17 q2 -6 6 -9q4 -6 15 -15q8 -6 12 -8q13 -6 28 -15q15 -6 27 -8q11 -4 22 -4q15 -2 27 -2q13 0 24 2q13 2 23 4q7 2 19 8q6 3 16 13q12 13 16 19q7 10 15 28q8 19 10 27q5 13 10 35q6 20 8 38q2 21 4 38q2 18 5 34q2 15 4 29q0 17 2 45q0 28 1 47t3 37v38q2 25 2 38v32 q0 15 2 31v27v42v38.5v32v28.5q0 11 -2 29q-2 23 -2 40v27q-2 15 -2 26v30l-2 14q0 33 22.5 56.5t54 23.5t55 -22.5t23.5 -53.5l2 -14v-27v-28q2 -15 2 -32q0 -10 3 -28q0 -23 2 -36v-31.5v-32.5v-39.5v-42.5v-35q-2 -17 -2 -29v-26q0 -17 -1.5 -42.5t-3.5 -44.5 q0 -16 -2 -34q0 -17 -2 -45q0 -28 -2 -47q0 -19 -2 -40q-2 -16 -4 -34q-2 -19 -6 -41q-5 -27 -10 -55q-8 -25 -12 -40q-5 -18 -17 -47q-13 -28 -26 -47q-15 -25 -42 -49q-28 -28 -57 -40q-25 -13 -43 -17q-19 -6 -41 -8q-23 -5 -45 -5q-20 0 -44 3q-28 4 -48 8q-23 6 -47 17 q-21 10 -35 16q-23 13 -47 33q-21 18 -35 36q-17 23 -26 47q-11 25 -15 48t-4 41v35.5v43.5q2 27 4 51q2 23 4 38q2 12 5.5 33.5t5.5 36.5q2 16 10 44q6 23 10 41q4 17 8 28q2 17 6 34q2 14 9 36q4 25 8 39q4 12 7 27t5 28q5 13 7 25q2 15 5 35q2 16 4 29q2 10 2 30 q0 21 -4 40q-4 18 -6.5 28t-13.5 23q-6 8 -10 12q-7 4 -15 8h-4q-15 0 -26 -2q-2 -3 -9 -6q-12 -10 -18 -18q-7 -11 -12 -25q-2 -3 -15.5 -13.5t-37 -24.5t-44.5 -16q6 -18 9 -42q2 -28 0 -56q-5 -30 -17 -61q-15 -33 -35 -60q-23 -27 -44 -40q-23 -17 -50 -25 q-25 -7 -57 -7q-30 0 -55 4q-23 5 -47 15q-32 10 -62 35q-25 23 -43 47q-19 29 -29 64q-8 30 -6 65q0 6 -2 12zM260 639q0 -13 2 -22q2 -7 6 -13t14 -17q9 -6 15 -7q15 -4 24 -6q8 -2 25 -2h16q0 2 2 2q4 4 12 11q7 9 13 19q4 13 4 23q2 10 0 22v8q-4 9 -8 15q-7 8 -15 17 q-4 4 -6 5q-8 4 -18 8l-4 2h-15q-6 -2 -16 -4q-9 -4 -18 -11q-17 -11 -27 -23h-2q-2 -13 -4 -27z" />
<glyph unicode="&#xe04;" horiz-adv-x="1183" d="M102 408v32v35q0 23 1 50.5t4 51t8 42.5q4 16 10 38q4 25 14 49q10 27 27 60q16 30 30 51q19 27 40 49q20 21 40 37q21 15 47 31q27 14 51 23q21 8 51 17q35 13 62 17q23 4 43.5 5t47.5 3h28q17 3 34 3t40 -5q28 -2 62 -12q20 -6 38 -13q37 -8 70 -32q23 -17 41 -32 q21 -19 43 -44q18 -23 35 -41q19 -23 36 -53q17 -28 25 -45t18 -43q11 -28 17 -53q4 -19 6 -33q2 -17 4 -45q5 -25 5.5 -41.5t0.5 -38.5q2 -23 2 -39q0 -17 -1 -31t-1 -42q-2 -28 -3 -41t-1 -25v-37q0 -25 -2 -45q0 -19 -2 -41q0 -25 -2 -53t-2 -47q-2 -17 -4 -35t-2 -33 q0 -17 -2 -32q-2 -13 -4 -23q0 -19 -2 -33l-3 -12q-2 -32 -27.5 -53t-57 -18t-52 28.5t-16.5 58.5v12q2 13 4 29q0 15 2 28t2 26q2 14 3.5 33.5t2.5 35.5q0 17 2 43q2 27 2 49q2 27 2 47q2 17 2 39v35q0 13 1 27l3 42q0 28 2 44v26q0 13 -2 31v33q-2 12 -4 38q-2 23 -4 33.5 t-5 26.5q-3 14 -9 33q-8 21 -13.5 30t-17.5 32q-13 18 -22 32q-17 19 -35 39q-15 16 -27 29q-14 12 -33 26q-6 4 -11 6q-25 6 -52 15q-14 4 -27 6q-16 2 -26 2t-21 -2h-40q-19 -2 -34.5 -3t-33.5 -3q-13 -2 -33 -11q-29 -10 -47 -16q-15 -7 -31 -14q-16 -8 -27 -17 q-12 -10 -24 -23q-12 -12 -21 -26q-12 -16 -24 -40q-12 -21 -16 -36q-9 -19 -13 -36t-7 -31t-5 -33q-2 -17 -2 -39q-3 -23 -3 -41v-35v-26q3 -12 3 -23q2 -16 4 -36q0 -17 2 -34q0 -8 2 -20q2 7 2 8q10 28 21 53q12 27 26 52q10 19 19 35l8 14q10 19 28 30q19 29 52 53 t65 35q35 11 70 11l21 -3q15 0 32 -8q13 -4 21 -5q23 -11 43 -23q16 -8 30 -19q19 -12 43 -34q27 -27 44 -56q16 -28 19 -59q5 -23 5 -45q-2 -23 -9 -53q-6 -32 -15 -57q-13 -29 -40 -60q-27 -30 -53 -47q-27 -17 -59.5 -26t-64.5 -5q-25 0 -50 6q-28 6 -49.5 14.5 t-46.5 25.5q-21 12 -39 28q-4 -17 -6 -35q-4 -22 -9 -45q-2 -21 -4 -31q0 -14 -2 -30q-2 -19 -2 -31q-2 -15 -4 -33q-2 -16 -4 -33q-2 -10 -3 -22q-5 -30 -22.5 -44.5t-39 -13.5t-43 7.5t-36 15t-16.5 10.5q-15 23 -20 47q-4 15 -8 27q-6 17 -13 35q-8 23 -14 59 q-4 34 -8 53q-2 19 -4 36q-2 21 -5 39.5t-5 39.5q0 15 -4 39q-7 30 -9 53q0 19 -2 37q0 15 -2 24q-2 17 -4 38zM474 330q0 -15 3 -21q0 -4 2 -5q8 -11 16 -21q7 -7 17 -13q13 -8 22.5 -12t24.5 -9q15 -2 28 -3q6 0 14.5 1.5t16.5 6.5q7 6 19 18q11 11 12 19q4 10 8 26 q4 19 4 27q0 9 -2 16q0 4 -4 10q-4 7 -15 17q-12 13 -19 17q-13 8 -26 15q-8 7 -17 11q-7 2 -11 2l-12 2h-6q-7 0 -11 -2q-8 -2 -22 -13q-12 -8 -17 -13q-8 -15 -14 -27q-4 -11 -6 -20q-5 -13 -5 -29z" />
<glyph unicode="&#xe05;" horiz-adv-x="1255" d="M102 519q0 27 2 51q2 23 4 38q2 17 7 35q2 23 8 43q4 19 8 31q2 14 8 32q6 19 16 44q11 25 23 45q13 25 35 47q20 23 44 40q21 15 37.5 24.5t34.5 15.5q17 8 35 14q19 4 35 8q25 6 49 4q25 0 49 -6q23 -6 46.5 -17t43.5 -28q15 -10 27 -21q15 -10 33 -24q8 -6 16 -14 q13 12 25 27q23 23 45 38q25 17 47 26q23 11 51 17t68 4q41 -2 73 -16q32 -15 66 -47q25 -28 43 -54q16 -25 25 -42q10 -19 18 -47q7 -27 11 -45q2 -17 3 -36q2 -10 6 -40q2 -25 4.5 -44.5t3.5 -41t1 -40.5q0 -22 -2 -55q-3 -27 -3 -43q0 -20 -2 -38v-40q-2 -14 -2 -38 q-2 -28 -4 -45q0 -17 -2 -33q0 -16 -2 -41q-2 -23 -1.5 -37.5t0.5 -26.5q0 -17 -4 -47q-2 -28 -2 -49q-2 -23 -5 -43q-2 -17 -2 -31q-2 -15 -2 -28q-2 -15 -2 -28l-2 -15q-2 -32 -27.5 -53t-57.5 -18t-52 27.5t-18 58.5l2 13q2 13 2 23q0 15 2 30q0 17 2 40q2 17 3 34 q2 21 4 49q2 29 2 39v31.5t2.5 40t3.5 41.5t3 37q0 15 2 37q2 25 2 40q0 19 2 38v34q0 21 2 54q2 25 2 40q0 17 -1 34l-2 34t-5 41q-2 25 -4 42q-2 12 -5 26q-2 12 -8 31q-4 15 -5 20q-4 8 -15 25q-10 14 -27 30l-16 15q-6 2 -18 2q-19 2 -29 0q-11 -4 -18 -6 q-9 -5 -21.5 -13t-24.5 -21t-20 -26q-10 -12 -15 -23q-4 -12 -6 -26q-2 -10 -32.5 -33.5t-66 -29t-58.5 39.5q-5 13 -13 27q-6 11 -17 25t-21 22q-17 13 -29 23q-12 8 -27 20q-8 6 -18 10.5t-16 6.5t-15 2h-12q-11 -2 -22 -7q-11 -4 -20 -7t-19.5 -9.5t-22.5 -13.5 q-12 -8 -21 -19q-10 -10 -14 -18q-9 -15 -14 -31q-8 -16 -10 -27q-4 -14 -9 -24q-2 -12 -6 -31q-4 -15 -6 -28q-2 -19 -4 -34q-2 -14 -4 -32q-3 -19 -3 -36q0 -23 1.5 -56t2.5 -45t1 -25q2 -14 4 -36q2 -23 4 -38q2 -14 4 -27l4 -26q2 -17 7 -36q2 -9 2 -19l4 8q4 19 8 32 q6 19 10 34q6 16 14 41q9 18 15 34q8 21 19 44q10 21 21 40l7 7l8 16q19 33 55 59q29 23 56 35q17 9 32 13q6 2 10 4l15 3q28 8 57 6q15 -2 31 -4q21 -4 43 -11q21 -7 41 -17q23 -12 41 -29q19 -17 38 -41q21 -27 34 -55q14 -33 16 -70q4 -30 0 -56q-3 -23 -6 -42 q-8 -27 -31 -60q-21 -27 -39 -42q-20 -21 -47 -33q-20 -8 -39 -14q-23 -7 -53 -7q-25 -2 -49 3q-25 2 -47 6q-27 6 -54 19q-28 12 -49 26q-6 4 -10 8q-4 -13 -6 -23q-4 -17 -7.5 -31t-9.5 -34q-4 -18 -7 -33q-2 -10 -7 -24q-2 -17 -6 -33q-4 -21 -8 -37q-2 -15 -5.5 -27 t-5.5 -22q-8 -37 -27.5 -51.5t-41.5 -8t-42.5 17.5t-35.5 21l-14 13q-15 30 -22 65q-7 25 -11 37q-6 19 -10 36t-11 36q-4 17 -10 39q-8 30 -14 55q-4 23 -6 41q-4 18 -6 31q-2 16 -5 31.5t-5 33.5q-3 17 -5 41q-2 23 -2 37q-2 14 -3 29.5t-2 50t-1 60.5zM512 342 q0 -4 2 -16q0 -11 4 -15q2 -6 7 -12q8 -8 15 -14q6 -4 17 -9q14 -6 26 -8q17 -4 33 -6q13 -2 26 -2q11 2 15 2q8 2 17 6q4 2 8 6q6 7 16 21q4 4 6 9q2 8 4 17v27q-2 13 -4 18q-6 11 -14 23q-10 13 -16 19q-9 6 -15 7q-8 7 -19 9q-8 4 -13 4q-13 2 -21 4l-17 -4q-8 -2 -20 -9 q-12 -6 -29 -17q-10 -7 -12 -13q-2 0 -2 -2q-2 -6 -4 -10q-2 -5 -2 -7z" />
<glyph unicode="&#xe06;" horiz-adv-x="1406" d="M102 760q0 22 6 55q7 41 23 70.5t45 56.5q28 25 62 39q28 10 51 12q23 4 55 0q41 -2 71 -16q25 -13 55 -35q11 -8 21 -17q4 5 8 9q23 19 52 31q25 10 53 16q34 6 74 -4q28 -9 55 -22q30 -19 51 -45q19 -23 31 -56q10 -27 16 -55q7 -25 9 -41t2 -39q0 -19 1 -38.5t1 -45.5 v-46v-43t-1 -50t-1 -43v-39q-2 -19 -2 -37v-39q-2 -25 -2 -41t-3 -31q0 -8 -2 -20q13 -6 26 -16q15 -9 35.5 -23t32.5 -24q15 -11 40 -28q27 -20 45 -38q19 -17 38 -37q25 -23 37 -37q12 -13 27 -30q2 4 2 12q4 25 8 43q5 21 7 41q2 14 5 46q2 39 3 65t3 50q0 25 4 51 q2 23 2 54v51v39v45q3 25 3 39v47q0 28 -3 49v31q-2 15 -4 32q0 21 -2 36q0 12 -2 24q0 12 -2 25q-2 14 -2 28l-1 13q-4 32 16 56.5t52 28.5t57.5 -16t27.5 -53l2 -12q2 -13 4 -25q3 -17 3 -33q2 -14 2 -29q2 -12 2.5 -30.5t0.5 -31.5q2 -17 2 -38q2 -23 2 -55v-47 q0 -17 -2 -43v-41v-37v-56q-2 -36 -3 -65q-2 -23 -2 -45q-2 -25 -5 -51q0 -28 -4 -66q-2 -41 -6 -63q-2 -18 -6 -39t-8.5 -44.5t-6.5 -35.5q-4 -27 -20 -55q-18 -32 -46 -51q-38 -25 -85 -19q-39 4 -74 33q-21 16 -39 37q-16 19 -27 30q-10 11 -28 30q-23 20 -39 34 q-12 15 -33 28q-23 17 -34 25q-5 4 -11 9v-13q-2 -25 -4 -49q-4 -23 -6 -41q-7 -28 -26 -57q-19 -30 -47 -49q-25 -17 -56 -23q-25 -6 -59 -8h-60q-28 2 -53 8q-27 4 -57 19q-30 14 -51 30q-25 21 -46 57q-19 35 -26 83q-7 41 -5.5 64.5t5.5 45.5q6 28 23 58q14 28 28 47 q16 21 45 43q32 27 59 34q19 8 48.5 12.5t55.5 2.5q21 -2 43 -7q21 -2 44 -10q0 12 2 29v42.5t2 36.5v34q0 16 1 46.5t1 49.5v39v47q0 25 -1 43t-1 37q0 14 -1 23t-5 28q-4 16 -10 31q-5 10 -9 16q-2 2 -8 6q-11 6 -18 8h-2q-10 -2 -21 -6q-8 -4 -14 -8q-3 -2 -5 -4 q-6 -15 -12 -29q-25 -57 -94 -44q12 -15 25 -36q17 -25 22 -53q6 -23 6 -47q2 -27 -2 -55q-4 -27 -13 -52q-13 -34 -44 -61q-27 -23 -58 -35q-23 -8 -49 -12q-28 -6 -53 -6q-25 2 -43 6t-49 15q-38 16 -70 44q-30 33 -40 70q-9 27 -11 60q0 24 4 47v2q-4 21 -6 51t-3 50 t-1 36zM264 580q2 -12 4 -21q2 -2 4 -6q6 -4 13 -8q18 -7 26 -9q4 -2 14 -2q9 0 21 2q15 4 24 9q4 0 8 4q5 10 7 21t0 19q0 13 -2 23q-2 5 -2 7q-5 6 -13 14q-6 7 -18 16q-6 4 -12 6q-4 2 -11 2h-10h-13q-6 -2 -13 -10q-11 -13 -17 -22q-4 -6 -6 -13q0 -12 -4 -25v-7z M266 809q19 4 35 6h18l19 -2q27 -2 47 -9q6 -2 14 -5q-8 11 -23 20q-16 13 -26 17q-4 2 -16 4h-25q-7 -2 -16 -6q-6 -2 -13 -9q-8 -6 -12 -14q-2 0 -2 -2zM485 80q0 -8 4 -35q4 -21 10 -30q5 -9 7 -13q6 -4 19 -10q14 -7 24 -9q12 -2 29 -4h43q22 2 32 4q4 0 6 2q0 2 2 2 q2 5 2 7q2 12 7 29q2 17 2 32q0 21 2 41v49v1v3q-17 6 -32 13q-16 4 -30 6q-14 4 -29 4q-8 2 -22 0q-10 -2 -17 -4q-6 -4 -14 -10q-15 -11 -18 -17q-6 -8 -15 -24q-8 -15 -10 -21q-2 -8 -2 -16z" />
<glyph unicode="&#xe07;" horiz-adv-x="825" d="M112 211q-8 30 8.5 58t48 36t59 -8t36.5 -48l8 -32q6 -25 12 -41l11 -21l4 -12q4 -13 12 -26q10 -21 20 -41q11 -17 17 -27q8 -10 24 -26q15 -15 29 -25q17 -11 24 -13q5 -2 17 -2q17 0 32 2q19 2 30 5q2 2 6 4q2 0 4 4q8 12 14 23q6 10 10 22q4 16 9.5 34.5t7.5 41.5 q4 23 6 32q0 15 2 29q0 17 2 33q2 17 4 41q2 22 2 39q2 17 2 33v34v39t3 43v25q-21 -8 -46 -12q-25 -6 -49 -4q-19 0 -41 2q-19 2 -37 6q-16 2 -41 8q-25 9 -45 18q-21 11 -43 27q-28 21 -47 45q-12 19 -23 39q-10 21 -18 47q-8 28 -10 65q0 33 6 66q6 35 20 64q15 28 36 51 q20 21 36 32q15 11 29 23q23 19 49 30q23 9 47 15q28 8 53 8h15h12q6 0 12 -2l15 -2q27 -4 53 -21q14 -6 28 -13q23 -13 46 -34q17 -16 32 -34q23 -25 33 -49q6 -15 12 -31q9 -21 13 -49q4 -25 4 -47v-2q6 -28 6 -56v-49v-47q0 -25 -1 -62.5t-1 -60.5q-2 -23 -2 -41v-37v-37 q0 -18 -1 -37.5t-3 -45.5q-2 -23 -4 -42q-2 -14 -2 -28q-3 -17 -5 -29q0 -19 -6 -47q-4 -30 -10 -53.5t-12 -46.5q-8 -25 -21 -47q-10 -19 -25 -39q-23 -30 -51 -47q-25 -16 -49 -23q-17 -4 -43 -6q-28 -4 -59 -4q-35 0 -64 10q-25 9 -55 28q-32 21 -57 48q-23 23 -37 39 q-15 19 -29 47q-15 25 -26 51q-13 27 -19 41l-6 17q-2 2 -2 6q-13 27 -22 63zM331 713q3 -15 5 -24q4 -15 8 -24.5t12 -17.5q3 -4 8 -8q12 -9 23 -14q8 -4 21 -8q14 -5 24 -7q12 -2 27 -4h26h16q9 2 15 6q4 3 10 9q12 10 18 20q9 10 15 25q4 12 8 25q2 10 2 17q0 13 2 23 q-2 2 -2 5q-2 12 -4 19q-4 13 -10 25q-2 2 -7 9l-22 22q-7 6 -14 10q-17 11 -31 19h-2l-9 2h-15q-7 0 -19 -4q-13 -2 -22 -6q-6 -5 -13 -9q-16 -12 -31 -24q-10 -6 -18 -17q-6 -6 -10 -14t-6 -22q-5 -17 -5 -33z" />
<glyph unicode="&#xe08;" horiz-adv-x="1185" d="M114 637l5 12q6 17 12 33q6 17 16 33q8 14 19 31q12 19 28 41q16 20 31 36.5t30 33.5q21 20 38 34q17 10 36 24q25 17 51 29q25 11 56 19q27 8 45 11q23 7 47 9q16 0 31 2q19 2 34 4q27 4 51 4q25 -2 54 -8q18 -4 33 -6q19 -2 37 -9q20 -6 51 -22q28 -14 53 -31t43 -32 q18 -17 35 -33q19 -20 30 -41q11 -15 19 -26q13 -19 21 -41q8 -17 14 -36q6 -14 14 -34q9 -21 15 -45q8 -25 14 -51q5 -27 8 -62q2 -30 4 -53q4 -30 2 -55q0 -15 -2 -36t-2 -36q-2 -21 -4 -41q-2 -16 -6 -33l-4 -34t-6 -35q-4 -21 -10 -52q-9 -28 -13 -45t-10 -32 q-7 -15 -9 -27q-6 -21 -11 -39q-4 -13 -9 -23l-12 -30q-8 -23 -26 -54q-4 -4 -11.5 -11t-29 -21t-41 -18.5t-41 6t-36.5 42.5q-8 21 -13 41q-2 11 -7 23q-4 15 -8 41q-6 23 -10.5 39t-8.5 35t-10 32q-4 17 -12 41q-4 12 -8 23q-15 -15 -33 -26q-27 -19 -60 -27 q-27 -5 -53 -7q-25 0 -49 2q-30 3 -57 15q-23 10 -47 24q-25 17 -43 35l-29 29q-21 23 -35 47q-16 30 -21 65q-4 29 -1 59t14 60q12 35 39 68q23 28 54 51q28 21 55 33q28 12 57 18q29 5 59 0q14 0 27 -4l12 -4q13 -4 24 -8q21 -7 42 -16q27 -13 49 -38q15 -16 26 -34 q19 -13 27 -31l9 -20q8 -23 20 -55q12 -35 16 -56q2 -8 4 -14q7 -13 17 -39q13 -27 16 -45q4 -14 6 -25q6 -19 13 -36q4 -17 10 -32q2 11 6 25q6 28 8 41q4 19 6 34t4 32q2 16 6 34q2 13 2 23q0 17 2.5 41.5t4.5 40.5q0 6 -2 18q-3 25 -7 58q-2 28 -6 49q-4 19 -8 34 q-7 19 -12 36q-8 21 -14 36q-7 15 -13 29q-2 9 -8 14q-9 15 -16 29q-6 9 -15 19q-12 10 -25 22q-12 10 -26 21q-16 10 -39 22q-19 8 -24 10q-9 4 -19 4q-17 4 -39 9q-14 2 -27 4q-12 0 -22 -2q-19 -2 -36 -4q-21 -5 -40 -5q-12 -2 -22 -4q-14 -4 -39 -10q-21 -7 -37 -12 q-15 -6 -27 -14q-17 -13 -26 -21q-9 -6 -21 -19q-15 -15 -27 -28t-26 -30q-11 -15 -18 -25q-8 -15 -15 -25q-4 -9 -8 -16q-4 -11 -8 -23l-4 -13q-11 -30 -39.5 -44.5t-59 -5t-45 39t-4.5 60.5zM459 342q0 -6 4 -10q4 -9 9 -15q13 -14 25 -26q9 -6 21 -15q13 -8 22 -12 q4 -2 13 -4h27q12 0 24 2l8 4q6 4 13 10q8 9 15 21q4 7 7 12q2 6 2 12q2 9 2 19v24q-2 11 -4 23q0 6 -5 13q-4 8 -9 17q-4 9 -13 17q-2 4 -4 4q-10 4 -16 6q-9 3 -19 7q-4 0 -5 2l-19 4h-9q-10 -2 -20 -8q-13 -5 -27 -15t-25 -24q-8 -10 -11 -21q-4 -14 -6 -25t0 -22z" />
<glyph unicode="&#xe09;" horiz-adv-x="1461" d="M107 732q-5 32 16 59l10 12q13 19 31 39q20 19 38 34q21 19 44 36q19 12 43 28q32 19 59 30q25 11 49 19q27 8 47 13q19 2 47 0q27 0 62 -5q30 -6 49 -8q21 -4 45 -8q34 -7 61 -18q19 -8 39 -19q25 -10 50 -27q21 -15 38 -28q19 -15 33 -29q16 -17 35 -39q17 -21 28 -36 q15 -21 30 -49q12 -31 17 -60q5 -17 9 -31q6 -19 11 -43t7.5 -48t2.5 -40v-27v-34q2 -19 2 -49q2 -33 0 -51q16 2 30 2q32 -2 61 -11q13 -4 32 -6q28 -4 55 -15q27 -10 57 -30q28 -21 49 -44q23 -27 39 -55q17 -30 24 -67q11 -40 6 -78q-4 -30 -13 -62q-11 -30 -23 -57 q-19 -34 -47 -59q-25 -21 -47 -33q-19 -6 -42 -14q-21 -7 -36 -11q-23 -4 -54.5 -5t-64.5 9q-28 9 -51 17q-27 13 -58 37q-38 32 -53 67q-8 21 -15 45q-4 23 -7 54q-6 32 -6 65q0 23 2 41q-25 -10 -44 -24q-23 -15 -38 -31q-21 -17 -39 -35q-21 -19 -49 -47q-25 -27 -36 -40 q-8 -13 -11 -21q-6 -17 -13 -28q-2 -7 -2 -13q-4 -27 -80.5 -22t-76.5 32v33q0 19 2 40v41q2 15 2 34v81q-27 -10 -57 -9q-23 -3 -46 0q-23 2 -45 5q-27 6 -55 19q-25 12 -47 25q-33 18 -56 49q-21 28 -32 61q-10 33 -13 66q-2 32 3 55q2 17 8 35q6 20 24 53q17 28 35 49 q25 30 56 45q16 6 36 12q23 9 53 13q35 4 68 0l20 -4q17 -5 33 -15q17 -6 33 -13q25 -12 47 -32q23 -19 37 -38q15 -21 24 -50q9 -22 15 -45q4 -19 6 -37q2 -6 2 -12l2 -20q2 -25 4 -54v-47v-35v-55q23 23 45 43q23 20 51 39q31 23 64 39q30 14 55 24q9 4 19 8q0 6 2 11v29 q2 14 0 40q0 31 -2 52v36v29q0 11 -1 26t-5 31t-8 29q-5 21 -11 43q-2 12 -10 27q-7 16 -13 24q-8 12 -22 29q-12 15 -23 26q-10 8 -22 19q-12 10 -25.5 19.5t-29.5 15.5q-19 11 -37 18q-11 4 -24 6q-23 5 -43 9q-23 4 -50 8q-23 2 -41 2q-17 2 -22 0q-6 0 -21 -4 q-16 -6 -34 -15q-17 -6 -36 -18q-25 -17 -45 -29q-12 -8 -25 -18q-14 -13 -26 -26q-14 -15 -23 -26l-9 -14q-19 -27 -52 -31t-57.5 15.5t-29.5 51.5zM266 385q0 -6 1 -16t5 -23q4 -12 10 -20q5 -7 11 -9q15 -10 32 -18q13 -6 23 -8q13 -2 22 -2q15 -2 31 0h9q8 4 11 8 q7 4 17 16.5t15 22.5q2 6 4 8v22t-4 19q-3 15 -9 29q-4 11 -6 14q-4 6 -13 12q-6 7 -10 7q-8 4 -16 6l-12 4q-11 4 -21 10h-18q-16 -2 -25 -6q-10 -2 -20 -6l-2 -2q-8 -13 -19 -29q-8 -15 -10 -20q-4 -11 -6 -19zM1001 102q0 -23 4 -45q5 -23 7 -38q4 -11 6 -19q4 -4 7 -8 q15 -13 23 -15q13 -6 29 -9q11 -5 22 -5q13 0 19 3q13 2 28 7q13 4 23 8q2 2 9 6q4 5 10 15q8 17 14 35q4 16 6 31q2 10 -2 24q-4 17 -11 27q-6 15 -15 24q-13 12 -25 23q-13 8 -22 12q-11 5 -25 7q-27 4 -51 9q-9 2 -21 4q-14 0 -33 -2v-9q0 -19 -1 -38.5t-1 -46.5z" />
<glyph unicode="&#xe0a;" horiz-adv-x="1299" d="M108 755q4 23 11 49q10 33 24 56q10 18 31 39q23 27 49 43q27 17 59 27q29 9 58 12q28 4 53 4l19 -2q14 0 28 -6h8q19 -3 39 -8q27 -6 51 -23q23 -14 43 -34q16 -21 31 -40q17 -23 25 -45q4 -16 10 -30q8 -23 14 -48q4 -23 4 -49q0 -23 -4 -45v-2v-14q0 -17 -4 -50 q-2 -27 -4 -44q-2 -21 -4 -39q-2 -17 -5 -35q-2 -23 -2 -39q-2 -17 -5 -41q-2 -23 -4 -38q-2 -17 -2 -34q-2 -16 -4 -31.5t-4 -29.5q-3 -13 -5 -33t-5 -41.5t-5 -44.5t-4 -37t-4 -32q-3 -17 -3 -36v-34q0 -4 3 -10v-5q25 -2 49 -8q14 -4 25 -4h34q21 0 43 -3h23q8 0 12 2 q7 2 12.5 6.5t7.5 8.5q4 9 6 19q2 23 5 43q2 19 2 45v44q0 12 -2 32q-3 25 -3 41q-2 16 -3 30.5t-1 28.5q-2 17 -3 29t-3 29q-2 16 -3 38q-2 19 -6 40q-5 25 -7 49q-2 17 -6 34q-6 25 -10 39q-2 12 -9 29q-8 23 -14 39q-4 12 -10 27q-6 14 -12 24q-6 14 -15 29q-6 13 -12 22 q-41 64 21 129q23 27 40 43q17 15 43 38q27 21 42 34q16 15 34.5 30t44.5 38q27 23 49 39q19 12 33 25q15 10 25 19q14 13 29 25l12 13q25 23 57.5 20.5t54 -26t19.5 -55.5t-24 -54l-15 -12q-15 -13 -27 -25q-17 -15 -35 -29t-38 -29q-17 -12 -41 -32q-25 -21 -42 -36 t-32 -28q-19 -16 -45 -36q-25 -23 -41 -38q-5 -4 -10 -9q6 -13 12 -23q6 -15 14 -30q9 -21 17 -40q6 -17 12 -39q9 -23 14 -40q4 -19 10 -44q7 -28 11 -55q2 -21 4 -41q4 -25 6 -49q2 -21 4 -37q3 -16 5 -31q2 -13 3 -28t2 -31t2 -33q0 -16 2 -38q2 -28 2 -45v-46 q0 -30 -2 -58q-2 -25 -5 -49q-4 -34 -21 -67q-19 -35 -49 -61q-30 -25 -60 -33q-27 -9 -55 -11q-25 -2 -49 2q-14 2 -29 2h-37q-25 3 -53 9q-14 2 -33 4q-30 4 -55 17q-33 14 -56 51q-16 27 -22 51q-6 27 -6 51v37q0 27 2 49q2 18 4 35q2 15 4 37q5 22 7 43.5t6 42.5 q2 23 4 35q1 12 1 26q2 12 4 29t2 34q3 19 7 42q2 23 4 39q0 6 2 12q-8 -2 -17 -4q-34 -10 -62 -10q-27 0 -50.5 3t-53.5 13q-28 11 -49 22q-18 11 -33.5 23.5t-37.5 31.5q-27 25 -41 47q-13 21 -20 42q-11 23 -15 60q-6 36 -2 66zM262 731q0 -6 2 -21q2 -16 4 -21 q4 -9 10 -17q4 -8 15 -19l25.5 -21t19.5 -13q6 -4 21 -9q14 -6 24 -7t22 -1q11 0 27 6q20 4 35 13q10 4 14 8q6 4 10 12q8 12 13 23q2 6 4 14q2 13 2 22q0 10 -2 21q-2 10 -7 21q-2 4 -4 9.5l-4 11t-2 9.5q-2 4 -8 13q-7 10 -16 19q-6 7 -12 11q-5 2 -7 4q-10 2 -16 2l-13 2 q-9 0 -20 4l-10 2q-13 0 -27 -2q-17 -2 -35 -8q-12 -4 -23 -10q-8 -5 -15 -12q-11 -12 -15 -21q-2 -4 -4 -12q-6 -19 -8 -33z" />
<glyph unicode="&#xe0b;" horiz-adv-x="1510" d="M106 641v8v10v47q2 29 6 56q7 27 21 57q13 32 28 57q19 29 37 49q23 25 50 40q21 10 53 20q35 12 63 14h37q29 0 64 -14q25 -11 45 -18q25 -12 47 -31l6 -4q11 8 18 12q28 17 59 23t60 2q27 -6 53 -19q27 -14 51 -40q25 -28 38 -70q6 -27 10 -53q4 -25 5 -40.5t1 -39 t-1 -41t-3 -33.5q-2 -12 -2 -23q-2 -16 -4 -36q-2 -17 -6 -40t-6.5 -37t-2.5 -28q-2 -14 -4 -36.5t-3 -36t-3 -37.5q-2 -25 -4 -54q-2 -27 -4 -49q-3 -23 -5 -45v-45q-2 -19 -2 -39q0 -21 -1 -37t-1 -36v-33q0 -8 2 -21q0 -4 2 -8q2 -2 7 -5q10 -4 16 -4q11 -2 23 -2 q17 0 31 2h32h33q19 0 35 2t27 5h4q2 14 2 27v32q-2 19 -2 37v33v41q-2 28 -2 49q-2 21 -2 37q-2 21 -2 39q-2 19 -4 41q-5 22 -7 44q-4 23 -6 42q0 15 -4 32q-6 28 -8 45q-3 13 -5 23q-4 13 -8 33q-4 14 -9 36q-5 17 -7 34q-2 8 -10 30l-15 41q-6 21 -10 41q-6 33 6 68 q9 28 40 62q23 27 45 49q21 23 45 47q27 27 42 38q13 13 32 29q18 17 40 35q19 16 33 28q8 8 14 15l11 14q4 6 10 11q4 2 14 13t17.5 17t13.5 12q23 23 55.5 22t53.5 -24t21 -55t-24 -55l-42 -43h-2l-7 -8q-12 -17 -31 -33q-15 -14 -37 -33q-20 -19 -38 -33q-19 -18 -34 -29 q-10 -10 -30 -32l-47 -47q-21 -19 -39 -42q-5 -4 -6 -7q0 -4 2 -6l14 -44q13 -32 17 -53q2 -13 4 -24q6 -21 10 -38q5 -21 9 -32q2 -17 5 -37q2 -12 6 -35q6 -28 9 -51q2 -17 4 -35q4 -23 6 -47q4 -27 4 -49q2 -14 4 -39q0 -21 1 -41.5t1 -46.5q2 -30 2 -49v-31q0 -17 3 -31 v-40q0 -29 -5 -58q-8 -40 -27 -70q-27 -38 -73 -47q-14 -4 -27 -6q-19 -4 -43 -6q-23 -2 -45 -2h-37h-28q-17 -2 -35 -2q-23 0 -44 4q-25 2 -51 12q-30 13 -55 31q-34 28 -45 70q-4 18 -6 37.5t-4 38.5v35.5t2 37.5v39q0 21 2 41v45q2 27 4 51.5t4 52.5q2 27 4 47q3 25 5 40 q0 15 2 39t4 38q2 17 4 32t6 40q2 23 4 39q3 14 4 25q0 16 2 34q2 11 4 23v31v27q-2 10 -4 28q-2 16 -6 33q-2 6 -4 7q-4 7 -8 7q-2 2 -6 4q-2 0 -7 -2q-2 0 -6 -2t-6 -7q-6 -6 -13 -19q-8 -13 -36 -30t-60 -17q11 -17 19 -34q9 -23 13 -47q4 -23 3 -49q2 -32 -7 -65 t-28 -60q-14 -19 -30 -41q-28 -34 -61 -49q-25 -12 -54 -16q-25 -5 -55 -7q-34 0 -66 7q-32 8 -61 25q-25 16 -53 42q-29 31 -41 62q-13 28 -18 65t-1 70zM260 623q0 -13 2 -31q2 -17 6 -24q2 -5 10 -15q13 -13 21 -17q9 -6 18 -8q10 -2 25 -2q21 2 32 4q9 0 15 4l4 4 q15 19 24 34q4 4 6 13q2 11 2 19q0 15 -2 25q-2 11 -4 18q-2 4 -5 8q-4 6 -13 15q-10 8 -18 12q-9 4 -15 7q-6 2 -11 2h-5q-14 -5 -29 -9l-12 -2q-3 -2 -10 -2q-2 -2 -6 -4q-13 -8 -19 -17q-6 -6 -10 -18q-4 -9 -6 -16zM383 844q14 -2 31 -6q7 -4 16 -6q-11 4 -22 10 q-7 2 -9 2h-16z" />
<glyph unicode="&#xe0c;" horiz-adv-x="1572" d="M108 639q-4 32 0 61q6 23 21 60q15 36 34 63q17 27 39 49q23 25 51 45q25 17 48 27q21 11 41 19q21 8 43 16q25 6 57 12q30 4 49 6q15 2 37 2q28 3 53 0q25 -4 46 -8q18 -4 45 -8q32 -9 55 -16q19 -6 36 -17q17 -8 43 -22q28 -17 48 -31q23 -16 47 -49q23 -30 37 -57 t23 -49q4 -15 9 -29q6 -17 15 -43q8 -27 12 -43q6 -21 10.5 -41.5t6.5 -42.5q2 -17 4 -35q2 -19 4 -43q4 -27 5 -46v-40v-45v-43q2 -21 2 -40v-26q9 -4 15 -8q15 -8 37 -21q22 -14 41 -26q15 -10 31 -23q14 -10 37 -26q23 -19 43 -35q23 -23 38 -41q9 -13 21 -24 q7 -6 10 -15q2 19 2 41q0 30 2 53v49q2 33 2 56v55q2 36 2 59q2 25 2 43q0 23 4 53q2 27 2 38v30v31v33v27q-2 16 -2 38v39v29q-2 17 -2 39q0 21 -2 30v31v29q0 12 -2 25v14q-2 33 21 56.5t54 24.5t55 -20.5t27 -54.5v-14q2 -17 1 -31v-24v-25q2 -15 2 -37q0 -21 2 -34v-40 v-34v-34q2 -17 2 -32v-35v-37v-24q0 -17 -4 -49q-2 -27 -2 -45q0 -23 -1 -48q0 -21 -3 -53v-58t-2 -53v-51q-2 -23 -2 -53t-2 -51q0 -23 -2 -41q-2 -19 -10 -60q-13 -61 -47 -91q-23 -21 -56 -25.5t-67 14.5q-29 21 -45 47q-7 11 -17 25q-12 17 -23 35q-8 12 -18 22 q-14 16 -25 31q-6 8 -17 19q-17 14 -36 28q-21 17 -34 27l-27 18q-5 4 -10 6q0 -21 -2 -42.5t-4 -36.5q-2 -19 -6 -38q-5 -28 -15 -50.5t-28.5 -44.5t-47.5 -39q-37 -23 -77 -23q-39 -3 -79 14q-32 15 -65 41q-33 27 -51 57q-19 33 -24 68q-2 -6 -5 -12q-8 -23 -25 -47 q-16 -25 -38 -43q-27 -21 -60.5 -33t-64.5 -14q-25 0 -45 2q-17 2 -37 5q-23 4 -41 9q-26 8 -54 27q-28 18 -51 38q-17 19 -30 37q-21 25 -31 53q-11 23 -14 46q-6 27 -6 51q0 17 2 30l-2 9q-4 20 -4 40v40q0 27 2 47q2 21 6 36q4 11 6 23q2 15 8 35q4 16 9 33.5l9 31.5 q4 13 11 31q8 28 30 61q0 2 2 4q-6 5 -14 9q-32 21 -55 66q-21 36 -25 71zM262 670q0 -4 1 -11.5t7 -19.5q2 -5 4 -6q8 -6 15 -8q10 -4 30 -10q15 -7 30 -16.5t30.5 -34t11.5 -54.5q-4 -38 -37 -74q-12 -12 -25 -30q-8 -17 -12 -25q-6 -19 -11 -33q-4 -10 -7 -25 q0 -6 -2 -12q10 4 22 6l17 2q11 4 26 2h4q21 2 46 0q27 -2 55 -12q25 -11 47 -24q21 -13 41 -34q21 -18 34 -38q13 -19 23 -41q11 -21 17 -43q4 -12 6 -25q8 23 20 43q12 21 37 46q31 28 55 41q21 8 40 12.5t48 7.5q21 2 39 2q0 14 -2 31v47v45v29q-2 17 -4 39q-4 27 -7 44 q-2 21 -2 39q-2 13 -3.5 26.5t-5.5 24.5q-6 17 -15 42q-6 23 -10 34q-8 19 -15 37q-2 8 -9 25q-8 14 -23 34q-13 17 -19 21q-8 6 -26 17q-25 12 -40 20l-24 12q-10 2 -29 6q-27 7 -45 11q-14 2 -30 4q-12 2 -27 0q-21 0 -37 -2q-12 0 -34 -4q-21 -4 -35 -9q-19 -6 -33 -10 q-14 -6 -27 -15q-14 -6 -32 -17q-13 -9 -25 -21q-13 -15 -24 -30q-9 -15 -18 -36.5t-11 -29.5zM278 72q0 -8 2 -17q2 -10 7 -23q4 -6 8 -11q10 -15 22 -27q8 -9 21 -17q8 -4 14 -5q11 -4 26 -6q17 -5 30 -7h19q7 0 16 4.5t14 8.5q8 4 10 9q4 6 5 9q4 12 7 25q4 10 4 22 q2 16 0 29q0 10 -4 17q-3 13 -9 23q-4 11 -9 17q-4 8 -13 16q-10 8 -21 14q-8 7 -17 11q-7 2 -11 2q-10 2 -14 0h-13q-7 -2 -16 0l-6 -2q-8 -2 -23 -9q-10 -4 -18 -10q-7 -4 -12 -14q-10 -14 -15 -22q-2 -11 -2 -17q-2 -11 -2 -20zM774 6q0 -6 2 -21q2 -14 6 -20t17 -16 q16 -13 28 -19q8 -2 13 -2q6 4 10 8q4 7 6 10t2 9q4 17 6 30q0 15 2 34t2 34q2 19 2 35v12q-11 0 -20 -2q-19 0 -25 -2t-13 -4q-4 -4 -9 -10q-13 -12 -17 -18q-2 -5 -4 -15q-4 -12 -6 -22t-2 -21z" />
<glyph unicode="&#xe0d;" horiz-adv-x="1498" d="M106 647q-4 30 0 61q6 31 21.5 63t44.5 65q27 30 45 47q16 12 34 23q19 12 44 24q28 16 55 27q23 6 53 13q29 9 52 15q25 4 51 6q23 2 43 2q22 0 51 -2q36 -2 63 -8q17 -6 33 -11q25 -6 57.5 -23t52.5 -34q15 -13 27 -24q21 -17 37 -39q12 -18 27 -48q10 -25 18 -38 q8 -19 16 -37q7 -19 13 -47q8 -30 10 -55q0 -17 2 -35q3 -19 5 -35q2 -21 4 -49v-49v-37v-45q2 -27 2 -45v-35v-29q2 -23 2 -38v-34q0 -4 1 -11q2 -11 6 -17q4 -10 13 -23l4 -4q12 -6 34 -14q21 -8 30 -10l28 -4q8 -2 22.5 -2h25.5l18 6q20 8 33 19q6 10 9 19q4 17 11 36 q4 12 8 34q4 29 6 54t7 47q2 20 6 51q4 32 6 53q2 19 4 41v39v45q-2 27 -2 45q0 21 2 47v35q0 17 4 43v24q-2 19 -4 33q-2 23 0 45v21v14q-2 30 20.5 54t54.5 25t55.5 -20.5t25.5 -54.5v-14v-35q-2 -8 0 -18q2 -21 4 -37q0 -25 -2 -52q-2 -18 -2 -28v-45q-2 -20 -2 -35 q0 -17 2 -41v-51v-49q-2 -25 -4 -47q-3 -23 -7 -55t-7 -54t-7 -45q-2 -25 -7 -55q-4 -37 -11 -62q-6 -19 -13 -34q-6 -23 -18 -47q-21 -35 -56 -60q-25 -15 -57 -29q-37 -17 -64 -18h-40q-27 0 -47 4q-15 2 -29 4q-23 5 -58 18q-36 13 -59 27q-35 21 -55 51q-12 21 -20 37 q-11 21 -19 47q-9 28 -7 57v30q0 12 -2 30v39v31q0 18 -2 42v50v39v41q-2 25 -2 36q-2 19 -3.5 38.5t-3.5 38.5q0 12 -6 30q-5 19 -9 29l-8 24q-8 15 -21 38q-8 20 -13 28q-5 6 -11 10q-12 13 -25 23q-6 6 -24 14q-17 8 -25 12q-21 4 -39 11q-8 2 -27 4h-42h-31 q-14 -2 -29 -4q-19 -7 -45 -13q-27 -8 -45 -15q-12 -4 -29 -11q-23 -13 -34 -21q-13 -8 -25 -17q-7 -6 -22 -24q-15 -16 -21 -28.5t-8 -20.5v-16q2 -7 4 -11t8 -10q13 -11 19 -12q17 -6 30 -12q25 -8 45 -25q27 -19 37.5 -52.5t-4.5 -66.5q-12 -25 -37 -53q-15 -15 -22 -26 q-8 -13 -15 -23q-4 -11 -8 -20q-4 -13 -13 -40q0 -4 -1 -6h1q17 10 34 15l12 2q25 4 47 4q17 -2 35 -4q21 -2 37 -7q25 -6 53 -22q25 -16 43 -35q19 -19 33 -39q16 -23 27 -49q12 -28 15 -53q5 -23 5 -41q2 -16 2 -35q0 -25 -5 -51q-6 -30 -17 -55q-13 -25 -38 -52 q-21 -23 -41 -36q-22 -15 -47 -23q-20 -6 -46 -10q-23 -5 -47 -5q-28 -2 -54 2q-23 7 -48 15q-27 10 -51 29q-27 17 -47 41q-21 25 -34 47.5t-19 42.5q-8 23 -10 47q-2 16 -2 31v8l-4 14q-4 21 -4 49q-2 27 -2 46q0 21 2 43q2 25 6 44q2 19 4 31q4 21 12 54q9 32 17 51 q6 19 17 37q8 18 22 38q4 6 8 13q-23 12 -43 28q-36 28 -51 59q-15 29 -19 62zM297 53l4 -12q2 -7 7 -15.5t15 -19.5q9 -10 19 -19q10 -6 20 -10t21 -5q6 -2 16 -2q15 2 31 3q14 2 23 4q2 2 6 4q6 4 15 15q9 8 11 12q2 5 4 15q2 15 2 24v27q-2 8 -4 22q-2 10 -6 20 q-5 9 -11 20q-8 10 -15 19q-7 7 -15 11l-8 4q-9 2 -20 3t-21 3q-6 -4 -13 -6l-14 -4q-4 0 -12 -6q-12 -9 -25 -19q-8 -8 -12 -18q-8 -12 -12 -29t-4 -26q-2 -6 -2 -15zM742 -305q0 33 4 59q8 32 34 68q23 28 43 44q21 15 51 30q34 14 60 16q20 2 53 -4l25 -2q20 -4 36 -17 q13 -4 27 -12q19 -13 35 -26q32 -25 47 -60q8 -21 13.5 -42t7.5 -42v-6q20 18 42 39l39 39q23 23 56 22t55.5 -24t21 -54.5t-23.5 -54.5l-39 -38q-43 -43 -90 -77q-51 -36 -94.5 -52.5t-87.5 -21.5q-39 -4 -62 -2q-8 2 -21 0h-15q-21 -2 -38 7q-15 4 -26 6q-28 8 -53 25 q-21 14 -39 32q-27 27 -40 53q-10 21 -14.5 41.5t-6.5 53.5zM897 -299q2 -15 2 -20q2 -7 6 -15q2 -2 7 -6q10 -11 15 -17q4 -2 9 -2q12 -4 27 -5h32l4 4q9 13 17 24l6 15v14q0 9 -4 20q-2 8 -4 17q-11 8 -21 14q-4 2 -6 2l-15 5q-5 1 -11 3q-9 2 -15 2q-4 -2 -10 -4 q-13 -4 -17 -8q-6 -6 -16 -18q-4 -5 -4 -7q-2 -6 -2 -18z" />
<glyph unicode="&#xe0e;" horiz-adv-x="1340" d="M104 83q2 28 11 53q6 23 20 47q17 32 43 55q23 21 45 32q17 11 39 21q36 21 70 22h14q8 0 18 -2q23 4 42 -2l11 -4q17 -7 33 -12q7 -4 13 -6v20v46q2 18 0 42v8v7v4q-21 4 -42 10q-30 10 -55 29q-27 19 -47 43q-19 25 -28 53q-11 27 -17 61q-6 39 -2 72q4 27 13 51 q8 28 19 49q13 21 36 52q27 32 49 53q21 16 47 32q23 15 51 29q30 17 62 24q28 9 69 17t74 13q35 6 67 4q31 -2 60 -9q23 -4 61 -12q45 -11 67.5 -18.5t45.5 -22.5q19 -10 37 -23q25 -16 51 -40q30 -29 48 -58q14 -21 26 -41q12 -22 29 -61q14 -37 22 -63.5t16 -51.5 q7 -27 11 -53q4 -25 6 -62q2 -36 2 -65v-56v-71q2 -44 0 -78q0 -36 -2 -74q-4 -30 -6 -73q-2 -45 -6 -74q-2 -29 -7 -72q-4 -19 -6 -62q-4 -40 -6 -66q-2 -27 -2 -49q-2 -25 -4 -46.5t-4.5 -49t-4.5 -48.5t-3 -39q-4 -17 -6 -40.5t-4 -37.5q-2 -11 -2 -22q-2 -41 -21 -58.5 t-42.5 -14.5t-46 12.5t-38.5 18.5l-16 13q-23 28 -36 42q-8 11 -22 23q-12 13 -33 31q-6 -13 -14 -22q-14 -21 -43 -49q-31 -31 -58 -47q-23 -17 -57 -36q-43 -21 -73.5 -27.5t-59.5 -2.5q-27 0 -61 10q-41 13 -66 29q-21 14 -38 30q-31 27 -47 72q-15 41 -13 74q2 30 13 64 q12 36 34 63q17 19 38 37.5t56 35.5q36 23 70 32q34 8 86 8q45 -2 71 -6q37 -4 85 -25l10 -5q4 9 6 19q10 37 16 53l4 15q13 28 41.5 42.5t59.5 4.5t44 -40t3 -58l-5 -15q-4 -12 -13 -47q-11 -32 -17 -53q0 -4 -2 -10q10 -9 21 -19q14 -13 26 -22q2 13 2 28q4 27 5 47.5 t2 44t3 49.5q3 27 7 72t8 78q4 28 6 54t4 70q3 45 6 81q2 28 2 57q2 33 0 76v75v54q0 25 -2 55t-4 49q-3 19 -8 35q-4 21 -12.5 43.5t-20.5 55.5q-13 28 -18 42q-10 17 -23 34q-6 12 -23 26q-16 16 -28 25q-19 12 -33 20q-13 6 -23 10t-40 13q-39 6 -62 12q-16 2 -37 4 q-17 0 -39 -2q-27 -4 -63 -10q-35 -9 -56 -15q-18 -4 -34 -14q-23 -11 -43 -22q-17 -11 -29 -21q-8 -9 -24 -26q-17 -23 -23 -34q-4 -8 -8 -20t-7 -27q0 -8 3 -22q2 -18 8 -31q2 -10 8 -17q4 -6 11 -9q5 -4 15 -8q15 -4 36 -9q34 -6 68 -29q44 -36 44 -92v-45q3 -27 0 -46 v-47v-42q-2 -21 -2 -47q-2 -21 -4 -43q-2 -14 0 -31l2 -20q2 -12 -2 -27q2 -8 2 -18q0 -25 -4 -49q-2 -21 -12 -48q-11 -32 -29 -57q-10 -13 -23 -28q-20 -29 -53 -47q-28 -17 -57 -23q-25 -7 -49.5 -8t-52.5 4q-31 4 -60 14q-23 11 -45 23q-30 17 -51 39q-17 18 -31 38 q-13 19 -22 34q-15 28 -19 64q-4 27 -2 51zM260 47q0 -2 2 -4q4 -9 12 -19.5t17 -21.5q4 -4 13 -8q15 -11 30 -15q8 -4 20 -6q17 -2 28 -1t21 3q5 0 11 4t7 8q15 17 25 32q2 2 4 9q7 15 9 25v17t-2 16q-2 4 -9 14q-10 15 -20 23q-13 11 -20 16q-9 6 -17 10q-13 4 -25 9l-4 2 q-6 -2 -10 -2h-10q-2 -3 -6 -3q-21 -12 -37 -19q-8 -7 -19 -15q-4 -4 -8 -10q-6 -13 -8 -21l-4 -18v-25zM549 -440q0 -7 4 -17q2 -4 4 -6q10 -11 21 -18q6 -2 20 -8q20 -4 33 -7q6 0 16 2.5t33 14.5q28 15 43 24q12 8 32 27q21 21 29 33q7 10 15 20q-8 5 -17 7 q-25 12 -38 13q-23 2 -58 4q-28 0 -41 -2q-15 -4 -35 -15q-23 -13 -32 -23q-11 -9 -19 -19q-2 -2 -6 -9q-4 -13 -4 -21z" />
<glyph unicode="&#xe0f;" horiz-adv-x="1359" d="M102 76q0 39 10 69q11 32 35 64q21 25 47 51q34 28 66 41q22 9 44 12q17 8 36 10h12q19 0 37 -2q19 -2 34 -4q17 -4 36 -10q4 -2 10 -3v3q-1 25 1 44v30q0 25 2 41v6q-16 4 -32 10q-32 11 -51 21q-23 13 -43 30q-23 21 -37 47q-13 25 -16 58q-4 30 2 70t18 67 q10 21 25 39q12 19 26 35t39 41q29 27 56 43q21 17 42 29t45 24q28 17 70 27q37 11 60 16q27 4 55 6t55 0q25 0 49 -4q25 -2 60 -10q41 -11 72 -27q19 -10 36 -20q21 -11 41 -24q21 -13 47 -34q30 -25 47 -45q15 -16 27 -32q17 -21 26 -48q11 -23 23 -58q11 -37 15 -64 q6 -27 10 -51q4 -25 8 -53q4 -29 6 -74q2 -25 2 -68q2 -27 2 -58q2 -30 0 -75q-2 -38 -2 -72q0 -27 -2 -55t-4 -53q0 -27 -4 -66q-4 -37 -6 -62q-2 -27 -4 -52t-4 -60q-4 -33 -6 -53q0 -23 -5 -45q-2 -19 -4 -37.5t-6 -45.5q-2 -28 -6 -45q-2 -16 -3 -28t-6 -31 q-2 -19 -2 -30q-2 -13 -3 -30q-2 -20 -6 -46q-4 -23 -6 -35q-5 -34 -23.5 -51t-40 -13.5t-43 11.5t-37.5 18l-14 8q-19 27 -31 49q-11 19 -24 46q-17 25 -38 63q-16 30 -26 45q-12 15 -25 27q-8 10 -18 18q-23 -23 -33 -38q-15 -23 -21 -40q-10 -23 -18 -39q-6 -14 -14 -36 q-11 -30 -21 -51q-17 -33 -39 -43.5t-42.5 -1.5t-39 22.5t-28.5 25.5l-11 15l-4 8q-10 -15 -22 -26q-36 -41 -74 -58q-30 -14 -61 -18q-35 -5 -78 4q-40 8 -69.5 21t-53.5 36q-25 21 -49 53q-32 45 -35 86q-2 25 2 51q2 27 10 49q11 27 34 58q23 32 49 52q23 16 53 26 q23 8 53 14q32 9 62 9q21 -2 40 -4q21 -5 51 -15q31 -11 52 -23q4 -2 10 -6q21 47 30 68l13 22q14 29 45 39t59.5 -4.5t38.5 -44.5t-3 -59l-13 -22q-10 -21 -37 -85q23 33 53 64q32 32 56 47q49 28 100 4q25 -13 49 -35q21 -16 37 -35t35 -39q13 -16 28 -42q3 14 5 34 q2 27 5 45.5t5 39.5q2 16 4 34q0 23 4 57q2 33 4 58.5t4 52.5t6 66q4 34 6 59q0 23 2 51q2 27 2 51q2 39 2 71q3 41 0 68q0 28 -2 55q0 28 -2 68q-2 37 -4 60q-4 25 -8 45q-4 25 -8 49q-4 21 -12 51q-8 27 -15 39q-4 11 -10 18q-8 13 -18 25q-8 9 -25 20q-23 19 -36 27 q-17 11 -34 19q-16 10 -36 22q-13 6 -32 10q-27 7 -42 9q-21 2 -39 2q-19 2 -37 1t-35 -5q-19 -5 -49 -13q-25 -6 -39 -15q-18 -10 -36.5 -20t-37.5 -24q-14 -11 -32 -27q-21 -18 -31 -31q-9 -10 -16 -20q-6 -10 -12 -21q-3 -6 -5 -20q-2 -17 -2 -26q2 -5 2 -9l2 -2 q7 -4 11 -6q10 -6 30 -13q23 -8 43 -13q51 -15 76 -56q21 -32 19 -72v-32q-2 -10 -2 -33v-41q-2 -12 -2 -31v-39q0 -17 -2 -30q0 -15 2 -25v-30v-38l2 -24q0 -15 -4 -27q0 -2 2 -4q2 -28 0 -53q-4 -31 -15 -56q-8 -23 -25 -49q-17 -30 -39 -53q-28 -30 -57 -43 q-17 -6 -41 -12q-32 -9 -65 -7q-21 3 -41 3q-30 2 -60 14q-27 8 -49 23q-27 15 -51 34q-28 26 -45 56q-16 27 -25 55q-10 32 -10 74zM257 74q0 -17 3 -25q4 -12 12 -24q4 -8 13 -15q12 -12 24 -18q12 -7 27 -13q10 -4 18 -4q19 -2 39 -2q8 -2 17 0q10 4 18 6l6 6 q10 11 19 25q10 17 12 27q2 6 4 14v27q-2 17 -4 26q0 7 -4 16t-8 16q-3 2 -7 5q-12 8 -18 10q-11 4 -19 7.5t-16 5.5q-10 2 -21 2q-4 2 -8 2q-11 -4 -18 -4l-14 -4q-7 0 -17 -5q-6 -2 -16 -12q-19 -17 -29 -28q-6 -11 -8 -19q-5 -8 -5 -22zM299 -444q4 -3 5 -7 q15 -21 28 -30q8 -8 18 -13.5t33 -9.5q16 -2 25 -2q8 2 20 6q8 7 22 21q21 23 31 43q8 18 18 41q-14 12 -22 16q-13 7 -29 13t-23 7q-10 0 -22 2q-8 0 -25 -3q-20 -4 -34 -10q-10 -2 -15 -7q-6 -6 -14 -16q-8 -11 -11 -17q-2 -8 -3 -18q0 -8 -2 -16z" />
<glyph unicode="&#xe10;" horiz-adv-x="1228" d="M106 -430q4 47 39 88q28 34 57 49q23 12 58 23q42 12 74 8q25 -2 47 -10q16 -7 36 -17q13 -6 27 -15q11 28 37.5 42t52.5 8q30 -8 48 -35.5t9 -58.5l-6 -27q-8 -30 -18 -55l-4 -8q13 -19 20 -37q4 -8 12 -16q9 -2 17 -2q6 2 13 6q23 12 30 20q41 40 102 23q-8 8 -15 16 q-21 25 -34 49q-10 25 -12 60q0 38 14 71q13 28 36 54q18 21 40 39q9 8 18 12q-19 15 -28 45q-4 17 -8 30q-5 13 -11 29q-6 21 -10.5 36.5t-9.5 27.5q-4 15 -10 30q-4 11 -8 21q-2 4 -5 6q-14 -14 -30 -27q-23 -14 -51 -25q-32 -14 -70 -15q-32 0 -66 6q-32 8 -74 30 q-38 23 -63 47q-23 21 -39 45q-21 30 -26 66q-4 25 -2 53q0 23 2 37q2 23 9 43q11 25 34 53q23 31 55 54q23 14 45 24q-19 0 -39 2q-23 2 -40 4q-21 4 -38 8q-21 4 -53 19q-62 28 -75 90q-9 38 -4 70q2 25 14 59.5t26 54.5q9 15 17 31q10 18 26 41q21 27 47 49q28 28 68 45 q36 19 61 24q19 7 35 9t31 4q17 2 43 4h41q20 0 55 -8q34 -7 57 -16q27 -8 58 -27l55 -33q17 -8 25 -12q8 0 16 2q10 0 16 2q15 11 29 20q19 15 37 29l17 13q25 18 57 14t50.5 -30t14.5 -58.5t-28 -50.5l-19 -13q-17 -15 -35 -26q-18 -15 -38 -29q-33 -21 -81 -26 q-49 -7 -80 4q-21 6 -57 26q-33 19 -57 33q-20 13 -34 17.5t-35 8.5q-17 5 -23 5h-35q-21 -3 -31 -3l-22 -4t-23 -4q-8 -2 -30 -15q-21 -10 -36 -21q-14 -13 -22 -25q-12 -15 -18 -27q-11 -16 -19 -33q-6 -8 -12 -26q-6 -19 -8 -27v-2l18 -6q8 -5 23 -6q14 -2 29.5 -3 t31.5 -1h47h49q21 0 40 -2q19 0 34 -2q23 0 51 -4q29 -4 47 -11q15 -2 29 -5t31 -5q21 -4 43 -13q27 -8 67.5 -37t57.5 -54q23 -31 27 -77q2 -28 3 -51q2 -23 2 -36q2 -19 2 -45q0 -28 -4 -51q0 -19 -1 -34v-36q-2 -21 -4 -55q-2 -33 -4 -60q-2 -28 -7 -59q-4 -35 -14 -72 q-13 -15 -31 -31h14q27 -2 51 -14l15 -4q12 -7 25 -16q6 -4 10 -8l20 -17q30 -25 45 -55q10 -21 17 -47q0 -2 2 -4q6 -11 8 -21l6 -16q9 -28 9 -55q0 -21 -4 -49q-3 -17 -3 -27q0 -23 -8 -62q-10 -41 -25 -66q-17 -28 -47 -53q-28 -23 -53 -32q-27 -15 -64 -17q-32 -2 -63 2 q-27 4 -49 11q-25 6 -47 18t-47 33q-11 -9 -21 -13q-51 -28 -90 -26q-23 0 -49 6q-43 9 -78 43q-13 15 -20 24q-15 -10 -31 -20q-23 -14 -41 -23q-19 -8 -34 -14q-29 -13 -70 -10q-33 2 -58 10q-32 8 -63 33q-29 25 -43 55q-13 27 -17 54t0 61zM260 -447v-20q2 -7 4 -10 q0 -2 2 -4l4 -2q10 -2 27 -4h7q9 4 19 8q13 6 29 16q5 2 7 4q3 6 9 15q-10 12 -18 16q-16 6 -25 11q-2 0 -6 2q-6 -2 -16 -4q-18 -7 -27 -11l-12 -12q-2 -2 -4 -5zM448 236q0 -2 2 -6q9 -11 19 -21q11 -11 33 -22q20 -13 30 -15t25 -2q10 0 19 4q12 6 19 11q5 4 13 11l10 15 q5 14 7 33q2 11 2 14q-2 8 -6 18q-7 13 -15 25q-2 5 -4 6q-15 12 -33 27q-2 2 -4 2l-8 2h-4q-9 0 -25 -2q-17 -2 -26 -6q-11 -2 -23 -11q-11 -8 -18 -18q-6 -8 -11 -14v-6q-2 -11 -2 -27q-2 -11 0 -18zM653 465q8 -6 14 -10q17 -15 29 -25q25 -19 43 -49q12 -16 18 -33 q4 -4 6 -8l15 -21q15 -27 26 -51q6 -12 11 -24q2 4 2 5q2 19 2 40v30q-2 15 -4 40q0 21 -5 45v4q-8 6 -19 16q-17 12 -28 16q-10 4 -17 7q-19 2 -36.5 6t-33.5 8q-9 2 -23 4zM806 -477q9 -8 18 -16.5t16 -10.5q8 -4 18 -8q13 -4 31 -7q12 -2 24 0q10 0 14 3q4 2 13 8 q-31 -4 -66 6q-30 9 -53 19q-9 2 -15 6zM852 -311v-2v-4q2 -2 4 -6q7 -7 10 -9q10 -6 21 -10q10 -6 26 -11q8 -2 12 0q4 0 8.5 2.5t8.5 6.5q6 10 12 23q2 2 2 4q0 4 -2 8q-2 9 -4 14l-6 6l-21 19l-8 2l-2 2l-14 -4q-10 -2 -17 -6q-10 -11 -20 -21q-7 -9 -10 -14z" />
<glyph unicode="&#xe11;" horiz-adv-x="1670" d="M102 612q0 15 2 27q-2 4 -2 8v21q0 27 2 49q2 27 13 55q8 25 20 46.5t35 47.5q21 25 45 51q30 30 65 50q37 21 66 24q27 4 66 0q41 -4 71 -17q28 -12 53 -30q21 -14 42 -34q8 10 18 20q18 16 51 35q36 19 70 22q36 4 69 -6q31 -11 60 -35q28 -25 47 -63q17 -35 22 -66 q4 -25 7 -47.5t5 -40.5v-48.5t-2 -51.5v-37q-2 -21 -2 -49q-2 -21 -2 -35q2 6 4 11q4 18 13 44q8 29 12 47q7 21 18 49q13 29 21 47q8 15 14 32q9 16 20 36q15 23 41.5 55.5t51.5 55.5q23 23 45 36q25 19 59 32q33 12 60 14t64 -2q51 -6 87 -35q31 -25 51 -58q19 -28 30 -57 q6 -21 11 -33q4 -16 13 -42q8 -31 12 -58q2 -21 4 -41q4 -23 7 -56q4 -32 4 -57q2 -23 2 -53q2 -31 2 -51q2 -23 2 -47v-54q-2 -30 0 -49v-40q-2 -17 -2 -43v-44v-38v-50v-42v-34v-28q-2 -12 0 -25v-13q2 -31 -21 -56t-54.5 -26t-55.5 21.5t-26 53.5v14q-2 17 0 33v30v30v42 v50v40v44q0 27 2 45v34q-2 21 0 51v54q0 18 -2 40q0 7 -1 52q0 33 -2 54q0 21 -2 49q-4 30 -6 49q-2 21 -6 40q-2 15 -7 35q-6 25 -10 35q-4 13 -13 33q-4 12 -11 25q-6 10 -15 15q-4 5 -12 5q-23 2 -30 2t-23 -7q-15 -4 -23 -9q-13 -8 -29 -25q-16 -15 -35.5 -38.5 t-25.5 -37.5q-10 -15 -17 -28q-6 -13 -13 -27q-7 -13 -15 -37q-10 -23 -15 -37q-4 -16 -12 -42q-7 -30 -16 -60q-6 -19 -8 -29q-6 -23 -17 -59q-10 -35 -14 -58q-7 -21 -12 -43q-6 -25 -17 -51q-6 -23 -16 -59q-13 -39 -19 -64q-6 -23 -16 -56.5t-16 -53.5q-7 -21 -13 -35 q-2 -12 -4 -23l-4 -20l-2 -14q-4 -31 -30.5 -50.5t-57.5 -15.5q-28 4 -47 25.5t-21 50.5q-4 13 -2 26v13v26v33v33q0 14 2 31v34v175v44t2 43q0 19 2 40q0 21 3 49q2 27 2 45q0 21 2 49q0 28 2 47q0 21 2 41v44v40q-2 12 -4 30.5t-7 37.5q-2 10 -8 26q-4 8 -9 12q-2 5 -7 5 h-2q-6 0 -14 -7q-17 -6 -23 -12q-4 -4 -8 -10q-8 -14 -14 -25q-2 -6 -4 -14q-9 -35 -53.5 -50.5t-78.5 1.5v-2q9 -17 15 -39q8 -27 8 -53v-34q0 -20 -6 -42q-4 -21 -15 -39q-10 -23 -30 -49q-25 -28 -55 -45q-23 -12 -45 -21q-27 -10 -52 -10q-21 -2 -47 0q-33 2 -58 14 q-16 9 -38 20q-28 17 -49 38q-19 16 -31 34q-17 23 -27 60q-10 32 -10 65zM257 611.5q0 -9.5 5 -22.5q2 -8 4 -11q4 -8 12 -15q7 -6 17 -12q17 -8 26 -15h8q15 -2 21 -2q7 0 12 4q10 2 21 9q6 4 12 10q6 8 8 13q3 6 5 10.5t2 11.5v29q0 4 -2 8q-2 13 -7 20h-2q-8 8 -16 15 q-2 0 -5 2l-24 4l-6 2h-12h-32q-12 -8 -26 -19q-8 -8 -12 -16l-6 -10q-3 -6 -3 -15.5zM352 827h2h5q8 0 15 -2l15 -2q12 -4 23 -6q28 -4 55 -22q11 -8 20 -15q-6 7 -15 15q-12 15 -24 24q-12 6 -23 13q-8 2 -26 4t-27 2q-6 -2 -15 -9q-3 0 -5 -2z" />
<glyph unicode="&#xe12;" horiz-adv-x="1687" d="M102 485v43q0 25 2 42q0 18 2 34q2 17 6 37q3 18 7 41q6 28 16 51q9 23 22 49q15 23 27 43q15 19 35 41q19 23 38 40t46 38q33 25 57 35q23 8 46 12q27 6 55 6l34 -4q31 -4 56 -19q12 -6 27 -13q25 -13 45 -29q18 -15 38 -39q4 -6 13 -15q12 15 30 32q25 25 45 34 q21 11 48 21t48 14t56 4q37 0 69 -11q39 -10 66 -36q14 -17 39 -45q27 -32 37 -55q8 -17 15 -37q4 -17 11 -46q4 -25 8.5 -44.5t8.5 -44.5q6 -31 6 -54q2 -21 2 -38q2 -21 2 -51v-48q0 -21 -2 -51q-2 -29 -3 -46t1 -32v-43q0 -27 -2 -39v-37v-8q19 -12 41 -24q22 -15 39 -25 q21 -13 41 -30q21 -17 43 -42q21 -21 38 -39t34 -34q12 -13 24 -25q4 21 4 34q0 23 2 58q2 36 4 59q2 21 2 40v63.5t-2 58.5v48q-2 25 -2 60v48q-2 23 -2 52v42q0 13 -2 28q-4 26 -4 44v41v47v32q-2 17 -2 36v26v25l-3 17q-2 30 20 54.5t54 26.5t56.5 -19.5t26.5 -52.5v-14 q2 -16 2 -33v-30q0 -15 2 -29v-39v-47v-37t2 -27q4 -25 3 -42v-47q0 -29 2 -48v-51q0 -37 1.5 -59.5t1.5 -47.5q2 -25 2 -64v-61.5t-2 -50.5q-3 -28 -5 -57q-2 -32 -2 -54q-2 -27 -5 -56q-4 -35 -10 -55q-11 -31 -36 -58q-34 -39 -83 -44q-45 0 -83 27q-23 17 -43 35 q-16 19 -33.5 36t-37.5 38q-19 19 -37 39q-17 16 -30 29q-13 10 -25 18l-4 2v-20q-3 -15 -5 -36q-2 -25 -8 -47q-8 -27 -26 -55q-25 -34 -68 -55q-39 -19 -79 -19q-28 0 -48 2q-17 2 -33 4q-25 4 -49 17q-28 15 -55 41q-23 23 -36 41q-17 25 -25 58q-5 25 -5 53q0 30 3 51 q4 19 8 37q4 12 10 25q-12 -19 -25 -40q-14 -23 -24 -37q-8 -18 -21.5 -39.5t-19.5 -34.5q-11 -14 -20 -30q-13 -19 -27 -35q-15 -21 -41 -41q-30 -23 -62 -30q-23 -7 -51 -11q-38 -4 -70 7q-28 8 -71 36q-40 28 -59 53q-17 23 -29 45q-11 21 -22 51q-13 28 -21 48 q-8 21 -17 45q-8 25 -18 57q-10 39 -14 64q-2 19 -4 39q-4 23 -9 57q-4 37 -4 62q0 21 -2 38q-2 23 -2 45zM257 485q0 -17 3 -32q2 -23 2 -47q0 -19 4 -49q4 -33 6 -52q2 -23 4 -41q2 -15 11 -41q8 -30 16 -51q7 -19 12 -33q8 -19 21 -47q10 -25 18 -41q7 -10 14 -23 q6 -6 25 -18t26 -16h6q17 2 30 4q2 2 8 6q10 9 16 15q8 10 16 22q9 12 15 25q8 10 20 32q10 17 21 38q8 14 18 30q-6 2 -14 4q-28 4 -51 15q-17 8 -37 15q-30 15 -55 44q-19 21 -32.5 44t-22.5 52q-11 35 -9 70q0 28 4 51q7 35 31 67q18 28 49 53q32 27 67 42q29 10 52 14 q25 5 51 2h4q21 2 39 -2l12 -6q15 -4 33 -10q19 -9 39 -21q27 -15 49 -41q19 -23 30 -43q13 -23 19 -47q6 -18 8 -37q5 -23 0 -51q-4 -25 -12 -49q-2 -9 -4 -17l-4 -11q-5 -19 -14.5 -42.5t-28.5 -61.5q-6 -10 -13 -22q21 29 60 56q38 27 61 34q23 8 43 11q25 4 55 0 q13 -3 27 -7v29v39q-2 19 -1 40.5t4 49.5q2 27 2 43v50q0 27 -2 42q0 17 -3 35q0 17 -4 39q-4 25 -7 40t-9 40q-5 23 -9 32q-2 11 -6 21q-4 6 -16 23q-16 19 -27 28h-2q-8 4 -24 4q-21 0 -29 -2t-22 -6q-17 -6 -25 -10q-4 -5 -17 -14q-12 -10 -17 -19q-9 -10 -19 -27 q-17 -25 -37 -45q-14 -16 -42 -24t-58.5 1.5t-47.5 37.5q-10 17 -24 41q-10 20 -23 33q-10 14 -15 18q-9 6 -17 12q-19 9 -34 17q-12 0 -24 2q-6 0 -12 -2q-8 -2 -19 -6q-8 -2 -24 -15q-23 -17 -33 -26q-11 -11 -26 -27q-15 -19 -23 -30q-11 -13 -20 -32q-8 -16 -15 -28 q-4 -10 -6 -25q-4 -21 -8 -36q-2 -17 -4 -30q0 -10 -3 -22v-35v-43zM502 404q0 -7 4 -17q4 -15 9 -22.5t13 -18.5q4 -4 8 -6q17 -8 29 -12q6 -5 18 -7q15 -2 25 -2q10 2 21 9q8 4 16 10q8 8 18 21q9 12 13 20q4 12 4 23l2 10l-4 16q-2 6 -4 10q-4 9 -15 21q-4 4 -8 6 q-11 7 -20 10q-10 4 -21 8h-19q-8 2 -11 0q-9 0 -25 -6q-11 -4 -23 -16q-17 -10 -22 -23q-4 -4 -4 -6q-2 -13 -4 -28zM870 2q6 -8 19 -21q8 -8 14 -9q6 -4 10 -4q12 -2 23 -5h29q6 0 13 3q2 2 5 2q4 8 6 13q2 9 4 21q2 17 2 27t2 28v45v13q-6 2 -14 4q-13 2 -27 4 q-8 2 -10 2l-12 -4q-9 -4 -29 -17q-16 -12 -21 -18q-8 -13 -10 -16q-2 -13 -4 -21v-24v-23z" />
<glyph unicode="&#xe13;" horiz-adv-x="1705" d="M102 659q0 31 10 64q9 25 25 51q13 23 27 43q16 25 38 49q23 21 44 37q23 19 45 31q21 12 45 25q28 12 65 24q37 10 64 14q27 5 53 7q28 2 56 0q30 0 68 -9q35 -6 60 -12q36 -11 64 -28q20 -15 37.5 -30t42.5 -40t38 -47q13 -19 25 -37q15 -23 29 -55t23 -60 q8 -22 11 -45q8 -27 11 -54q4 -25 6 -59q2 -32 2 -53q2 -23 2 -47q0 -27 -2 -51q-2 -19 -4 -51q-2 -35 -2 -52q-2 -23 -2 -44q-3 -13 -3 -30q21 23 45 42q27 19 66 39q17 8 31 14q-2 11 -2 20q0 43 -2 68q0 27 -2 53q0 25 -2 59.5t-2 55.5q-2 21 -3 41t-1 46v38v41 q-2 28 -2 43v29q-2 23 -5 43q-2 22 -2 38l-2 15q0 32 22.5 56t54.5 25t55.5 -22t23.5 -55l2 -15q0 -12 2 -28q2 -21 2 -45q2 -25 2 -41q0 -13 2 -41v-43v-34.5t2 -43.5q0 -19 2 -39q0 -21 2.5 -56.5t2.5 -62.5q2 -25 2 -51q2 -23 2 -66h6q43 -2 72 -10q27 -6 51 -18 q15 -8 39 -19q30 -14 51 -28q23 -16 45 -39q25 -29 44 -73t19 -74q2 -19 2 -35q0 -25 -8 -55q-10 -33 -30 -64q-25 -36 -60 -57q-30 -17 -55 -25q-19 -4 -51 -9q-37 -4 -68 3q-32 8 -59 27q-23 18 -52 55q-28 34 -42 64q-13 27 -25 73q-11 40 -17 76q-2 6 -2 12 q-13 -6 -18 -12q-14 -11 -27 -23q-12 -13 -30 -41q-19 -30 -29 -51q-13 -27 -22 -49q-15 -28 -40 -60q-6 -2 -17 -8t-38.5 -14t-48 -7.5t-37.5 18.5t-14 56v27v27q2 16 2 37v37v32q2 15 2 31q2 15 4 28q0 15 2 39q0 27 2 48q2 17 2 32q0 23 2 60q2 36 4 59q3 17 3 35v39 q-3 21 -5 54q-2 28 -4 47q-2 18 -6 34q-6 21 -13 39q-4 16 -13 41q-11 23 -19 35q-10 16 -21 32q-8 11 -24 29q-19 19 -31 29l-24 20l-15 5q-18 6 -49 10q-28 6 -47 6q-21 2 -41 0q-19 0 -37 -4q-17 -2 -43 -10q-27 -9 -43 -17q-20 -11 -37 -18q-13 -8 -24 -17 q-15 -10 -29 -27q-13 -12 -18 -22q-13 -18 -23 -37q-8 -15 -12 -24q-3 -4 -3 -8q0 -5 5 -13q4 0 8 -2q21 -2 45 -4q61 -9 91 -58q16 -34 8 -70t-33 -56q-15 -12 -35 -31q-12 -11 -21 -26q-10 -19 -18 -36q-7 -18 -14 -51q-4 -17 -6 -28q8 4 16 6q29 9 54 10h15h15h10 q15 -2 28 -1q21 -3 42 -9q23 -8 45 -21q21 -12 43 -32q23 -21 36 -44q13 -16 21 -32q9 -17 17 -37q10 -23 13 -43q7 -28 5 -54q0 -23 -9 -54t-24 -60q-19 -33 -43.5 -56.5t-50.5 -35.5q-25 -13 -51 -19q-27 -4 -47.5 -4.5t-48 2t-56.5 10.5q-28 11 -62 30q-32 20 -55 38 q-27 23 -43 51q-12 23 -20 43q-8 23 -12 55t2 60l-4 25q-8 41 -6 90q2 47 10 82q6 28 14 66q10 40 20 69q13 28 30 59q8 10 15 23q-16 6 -28 13q-41 25 -61 75q-15 36 -15 65zM280 49q2 -15 2 -19q5 -6 11 -17q2 -5 10 -11q11 -10 31 -23q20 -12 32 -16t25 -4q15 -2 22.5 -2 t22.5 2q10 4 17 7q4 2 10.5 8.5t10.5 17.5q9 14 13 29.5t6 21.5q0 4 -2 8q-2 6 -6 19q-6 14 -11 24q-4 8 -9 19q-4 6 -15 14q-12 11 -18 14q-7 2 -11 4q-6 2 -9 2q-13 2 -25 2h-13h-10q-6 0 -16 -3t-16.5 -6.5t-16.5 -14.5q-13 -10 -20.5 -21.5t-9.5 -17.5q-3 -7 -5 -16 q-2 -8 0 -21zM1288 168q2 -15 4 -29q5 -27 12 -61q8 -30 17 -46q6 -14 23 -34q14 -19 21 -25q0 -2 3 -1q6 0 14 1q21 2 30 4q7 2 17 8q4 2 8 9q9 10 11 18.5t2 12.5q0 13 -2 26q0 8 -8 25q-9 21 -15 26q-11 13 -18 17q-10 8 -29 17q-27 12 -45 19q-10 7 -21 9q-5 2 -24 4z " />
<glyph unicode="&#xe14;" horiz-adv-x="1244" d="M102 381v34q2 17 2 32v26q0 16 1 43t3 45q2 17 7 33q2 16 6 33q4 21 14 47q11 25 14 36q8 21 21 39q10 15 19 29q10 15 32 43q27 35 55 57q25 21 51 37q25 15 51 25q19 8 32 15q21 10 47 19q25 9 40 13q15 2 29 6q16 2 41 6q19 0 35 3q10 2 25 2q16 2 45 2q30 0 55 -4 q23 -3 39 -7q12 -4 29 -8q21 -4 38 -10q17 -7 37 -16q23 -13 39 -23t45 -32q27 -21 47 -38q21 -19 35 -34q16 -17 27.5 -35.5t20.5 -37.5t17 -46q9 -25 13 -43q2 -13 6 -27q7 -21 9 -41q4 -17 7 -39q4 -27 5 -48t1 -42v-37v-47q-2 -27 -2 -45q0 -20 -2 -39q0 -17 -2 -45v-32 q-2 -28 -1 -43q0 -17 -2 -32v-36q-2 -17 -4 -37q-2 -16 -2 -27q0 -14 -3 -42q-2 -23 -2 -40t-2 -32v-24v-13q0 -32 -23.5 -55t-55 -23t-54 22.5t-22.5 55.5v13v32q2 14 2 32q2 19 3 46v30q2 17 4 39q0 21 2 35v24q2 19 2 36q0 19 2 47q0 25 3 41v36q2 19 2 36t2 46v41v37 q0 14 -1 29t-6 34q-2 25 -6 42q-2 13 -4 24q-6 17 -7 35q-4 12 -9 29q-6 16 -11 26t-10.5 18.5t-13.5 16.5q-6 11 -20 22q-17 15 -41 34q-20 16 -29.5 22t-24.5 12q-17 8 -28 13q-8 2 -19 4q-14 4 -26 8q-12 2 -27 4t-32 2h-30l-28 -4q-12 0 -33 -2q-15 -2 -24 -4 q-11 -2 -23 -4q-10 -2 -28 -9q-17 -6 -25 -10q-17 -11 -41 -20q-17 -6 -32 -17q-17 -10 -34 -23q-14 -12 -30 -32q-19 -25 -27 -34q-8 -13 -16 -25q-4 -7 -6 -13q-4 -12 -15 -34q-6 -19 -8 -27q-4 -13 -4 -24q-2 -11 -4 -25q-2 -15 -4 -35v-35q0 -15 -1.5 -31t-1.5 -32v-27 q0 -15 1.5 -36t3.5 -36q0 -13 2 -26t4 -27q4 -19 6 -35q2 -12 6 -32q5 -21 9 -33q4 -9 12 -31q9 -23 14 -31q6 -13 17 -24q6 -10 18 -25q15 -15 33 -28q10 -13 16 -15q13 -6 24 -12q9 -5 23 -7q13 -2 17 -2q10 2 20 7q4 2 6 4q13 14 22 25t21 28q10 12 25 33q8 13 17 24 q8 13 17 32q-10 0 -22 2q-34 4 -65 15q-27 11 -45 23q-25 17 -49 43q-19 25 -32 47q-20 32 -24 70q-2 28 0 57q3 25 10 54q8 28 25 57q17 28 43 55q32 35 61 45q19 6 41 11q21 6 40 8q34 4 68 -6l17 -5q19 -2 31 -10l16 -8q23 -13 45 -31q23 -16 42 -38q23 -25 34 -48 t15 -45q6 -23 8 -51q0 -30 -4 -62q-4 -23 -11 -38q-2 -13 -8 -23l-6 -12q-6 -10 -11 -23l-13 -32q-11 -17 -21 -40q-13 -28 -21 -42q-8 -15 -22 -41q-16 -27 -27 -43q-12 -21 -24 -38q-10 -14 -23.5 -32.5t-25.5 -32.5q-12 -17 -29 -33q-25 -28 -60 -42q-28 -11 -55 -17 q-34 -4 -74 4q-34 6 -56 17q-15 6 -32 13q-20 13 -49 38q-23 21 -42 41q-19 23 -34 40q-12 17 -20 34q-12 18 -25 49q-12 30 -18 49q-5 16 -10 40q-6 25 -8 43q-2 17 -6 32q-3 18 -5 35.5t-4 33.5q-2 17 -2 41q-2 25 -2 41zM510 353q0 -5 2 -9l18 -27l10 -10q11 -4 23 -10 q8 -4 22 -4q21 -4 31 -2h21q4 2 14 6q14 9 29 18q2 2 4 6q6 15 8 27q3 13 2 27q-3 12 -2 20q-2 7 -6 13q-2 4 -10 14q-11 12 -21 20.5t-20 14.5l-6 2q-6 2 -11 2l-20 6l-5 2q-12 -2 -26 -6l-16 -4q-2 -2 -7 -8q-14 -13 -19 -23q-7 -13 -11 -24q-4 -15 -4 -27q-2 -13 0 -24z " />
<glyph unicode="&#xe15;" horiz-adv-x="1330" d="M102 481v33q0 19 4 47q2 25 4 41q5 19 9 39q4 14 6 29q4 19 10 34q7 15 12 34q8 20 23 49q16 30 43 63q23 27 35 41q19 21 49 41q27 18 43 27q23 12 53 20t57 8q19 2 35 2q36 0 78 -22q23 -14 45 -29q25 -19 45 -41q12 -12 23 -25q16 21 34 36q23 18 56 36q30 17 57 25 q30 11 70 14q43 4 74 -2q36 -4 71 -24q32 -17 55 -38q28 -25 49 -61q17 -31 29 -61q11 -28 17 -48q2 -12 9 -32q9 -27 13 -49q2 -19 4 -37q2 -19 6 -46q2 -25 5 -36q4 -21 4 -43v-41q-2 -18 -2 -39v-37q-2 -14 -2 -30v-36v-38q-3 -13 -3 -25v-30q-2 -13 -2 -30q0 -14 -2 -38 q0 -25 -2 -43q0 -17 -2 -33q-2 -21 -4 -41q-4 -21 -6 -35q-2 -12 -4 -31q-5 -14 -5 -28q-2 -15 -4 -31q-2 -17 -1 -31l-2 -12q-2 -32 -27.5 -52.5t-57.5 -18t-52.5 28.5t-18.5 56l2 17q2 13 2 26l4 34l4 36q4 19 6 33q2 12 7 33q2 14 2 26q2 19 2 35q2 15 2 37q2 23 2 39 t2 31v26q0 15 2 27v32v39.5t2 30.5v38.5t2 39.5v29q0 12 -2 23q-4 18 -6 46.5t-4 42.5q-2 17 -4 31q-2 8 -7 25q-8 25 -14 40q-2 13 -11 36q-8 19 -17 38q-7 13 -15 19q-13 11 -28 18q-13 8 -23 8q-13 2 -33 0q-22 -2 -35 -6q-15 -4 -34 -17q-21 -10 -30 -15q-8 -9 -13 -15 q-9 -12 -14 -20t-9 -18q-6 -15 -15 -32q-14 -34 -48.5 -41.5t-65.5 6t-41 29.5q-11 19 -23 40q-6 14 -16 26q-8 12 -23 25q-12 12 -24 22q-16 10 -37 23h-24q-11 -2 -23 -7q-15 -2 -20 -6q-13 -6 -31 -18q-13 -8 -17 -14q-13 -13 -32 -40q-19 -21 -27 -36q-11 -19 -14 -31 q-6 -14 -11 -27q-2 -8 -4 -18q-4 -18 -8 -35q-4 -13 -4 -22q-2 -12 -6 -37q-3 -21 -3 -31v-29v-43q3 -25 3 -40q0 -17 2 -34q0 -19 2 -34q2 -17 3 -33t5 -43q4 -25 6 -39q2 -15 7 -26q4 -17 8 -38q4 -14 10 -28q2 -12 6 -21q8 -14 18 -32q7 -13 21 -29q17 -19 30 -29t32 -18 q16 -11 28 -13q15 -4 31 -5t35 1q18 0 32 4q4 0 8 4q11 7 17 15q13 15 24 28q6 9 13 21q12 19 23 37q8 12 16 27h-33q-27 4 -55 12q-21 7 -39 12q-30 12 -57 37q-15 15 -34 37q-23 25 -34 49q-15 30 -18 65t7 70q9 29 25 60q19 34 37 57q21 25 45 43q30 23 63 32q25 7 43 11 q27 6 55 5t52 -9h4q14 0 25 -7l14 -4q21 -10 41 -24q19 -14 37 -33q16 -17 29 -35q12 -22 22 -44q8 -25 10 -52q2 -16 2 -31q0 -21 -4 -43l-8 -28v-10l-4 -17q-7 -25 -16 -49q-4 -14 -8 -25q-5 -21 -13 -43q-8 -23 -16 -41t-18 -36q-3 -4 -15 -29q-10 -21 -23 -41 q-10 -17 -20 -32q-14 -25 -31 -42q-11 -12 -22 -26q-17 -23 -42 -42q-28 -23 -64 -30q-28 -6 -60 -8q-30 -2 -58 0t-55 8q-28 8 -61 25q-32 15 -57.5 34t-51.5 47q-27 31 -42 60q-11 23 -19 36q-9 19 -17 42q-6 21 -10 41q-7 19 -10 32q-4 21 -8 40q-2 19 -6 47t-6.5 46.5 t-3.5 37t-3 37.5t-2 36q0 19 -1 44.5t-1 43.5zM522 341q0 -5 3 -7q4 -11 13 -23q13 -15 23 -24q17 -6 34 -11q15 -6 23 -6q15 -2 24 0q7 0 15 2q15 4 25 9l6 6q11 10 16.5 20t9.5 21q5 14 7 23t2 15q0 11 -2 21q0 4 -2 6q-2 9 -7 15q-4 8 -12 16q-6 6 -14 12q-2 2 -6 4 q-8 0 -15 2l-16 5q-4 2 -13 3t-15 -1q-15 -2 -32 -9q-6 -2 -13 -6q-11 -10 -19 -19q-8 -10 -19 -28q-10 -21 -13 -34q-3 -7 -3 -12z" />
<glyph unicode="&#xe16;" horiz-adv-x="1221" d="M102 666q0 42 15 78q12 25 26 47q12 23 29 43q17 23 36 40l38 34q25 18 65 38q38 19 67 28t60 16t61 12q31 4 56 4q25 2 49 2q27 0 72 -4.5t73 -10.5q25 -6 52 -16q25 -9 49 -18q30 -13 53 -29q19 -13 43 -31q28 -23 47 -45q17 -20 29 -41q11 -17 18 -28q12 -21 21 -43 q8 -19 16 -42q9 -25 13.5 -43t6.5 -38q4 -17 7 -32q2 -16 6 -34q2 -19 2 -47q2 -23 2 -35q2 -17 2 -37q2 -17 2 -32q2 -17 3 -35.5t1 -45.5v-42v-33q0 -21 -2 -39v-29v-35q0 -25 -2 -37v-38q0 -25 -2 -40q-2 -14 -2 -32q-2 -15 -2 -28v-30v-14q0 -30 -23.5 -53.5 t-55.5 -23.5t-54.5 23.5t-22.5 53.5v14v32q0 18 3 40q2 17 2 29q2 12 2 35v35q2 12 2 34v39v33q2 12 2 29v35v42q0 23 -2 39q0 15 -2 31q0 17 -2 37v29q-2 17 -5 49q0 17 -2 26q-2 15 -4 27q-2 17 -6 35q-2 14 -5 25.5t-10 27.5q-6 21 -12 35q-4 11 -10 20q-8 15 -18 31 q-9 13 -17 22q-6 9 -22 21q-21 17 -35 27q-9 7 -24 12q-21 8 -44 17q-17 6 -33 10q-18 4 -53.5 7t-52.5 3q-23 0 -45 -2q-23 0 -45 -2q-21 -4 -44 -8q-25 -6 -44 -13q-21 -8 -52 -23q-27 -12 -36 -19q-15 -13 -27 -23q-11 -11 -20 -22q-10 -15 -19 -30q-8 -12 -16 -28 q-3 -6 -3 -18v-13q7 -8 13 -16q4 -4 10 -8q13 -6 24 -12q11 -3 19 -3q21 -2 43 -4q28 -4 59.5 -30.5t27.5 -69.5q-7 -49 -50 -80q-8 -6 -20 -16q-9 -8 -21 -29q-15 -21 -18 -32q-4 -15 -8 -32q-2 -8 -4 -14q25 8 46 12l19 2q2 2 9 2q16 2 30 0l14 -2q25 -4 49 -14 q17 -9 31 -16q19 -8 39 -25q19 -15 37 -32q28 -27 41 -58q6 -16 12 -36q6 -23 11 -48q4 -25 2 -51q-2 -25 -7 -49q-6 -23 -10 -39q-10 -28 -37 -62q-27 -30 -57 -47q-25 -14 -49 -20q-27 -9 -47 -13h-42q-28 0 -57 6q-19 7 -39 13q-38 10 -76 41q-28 27 -43 49 q-14 20 -22 48q-6 18 -12 38q-6 25 -8 44.5t0 41.5v10v11q-2 27 -2 47q-3 22 2 57q2 28 4 47q2 23 4 45q4 23 10 50q7 27 14 49q10 25 31 59q2 4 7 10q-19 8 -34 16q-28 17 -51 43q-19 23 -32 49q-17 35 -17 83zM321 62q0 -9 2 -19q4 -13 9 -26q4 -9 8 -15t17 -17q6 -6 9 -8 q21 -6 40 -9q10 -2 19 -2h23q7 0 17 4t22 9q6 2 12 11q5 6 9 10q2 10 4 23q4 15 4 26v19q-2 12 -6 24t-8 25q-3 2 -5 4q-12 13 -23 20q-8 6 -13 10q-13 4 -27 13q-6 2 -11 2h-2l-15 -2q-11 -2 -25 -6q-9 -5 -19 -11q-11 -6 -14 -11q-8 -9 -14 -23q-9 -11 -11 -19v-4 q0 -9 -2 -18v-10z" />
<glyph unicode="&#xe17;" horiz-adv-x="1449" d="M102 751q2 27 10 55q11 29 29 56q12 19 35 44q25 27 49 42q23 13 49 24q30 15 64 19q27 4 55 2q41 -2 70 -16l4 -3q25 -6 47 -17q21 -13 39 -27q21 -17 34 -37q15 -19 25 -36q13 -23 23 -51q8 -25 12 -46l4 -22v-9l2 -31v-34l8 12q11 17 23 30q8 13 20 30q13 18 25 38 q19 27 43 53q23 21 40 37q21 17 42 27q13 8 24 15q15 8 31 15q23 13 47 19q21 4 37 8q17 2 32 5q21 2 42 0q19 0 43.5 -6.5t40.5 -12.5q28 -11 59 -37q19 -19 37 -35q25 -25 43 -58q17 -32 22 -57q4 -15 11 -37q6 -27 8 -46q4 -19 6 -37q2 -19 4 -46q3 -28 5 -53 q0 -19 2 -41q0 -21 2 -43q0 -20 -2 -59v-55v-39q0 -25 -2 -47q0 -23 -2 -53q-5 -27 -7 -44v-22v-30.5v-32.5q-2 -21 -3 -41.5t-2 -36.5t-1 -35v-31l-2 -14q0 -30 -23.5 -53t-55.5 -22t-54.5 25.5t-22.5 55.5l3 12v31q0 21 2 41q0 16 2 36q2 17 2 36v28v27q0 21 2 43 q2 16 4 43q2 25 2 41q2 21 1 43v43v24.5v30.5q2 33 2 51q-2 19 -2 39q-2 23 -1 44q-2 18 -4 42q-2 28 -4 45t-4 33q-2 12 -7 31q-4 21 -8 34q-2 7 -10 23q-9 13 -15 18q-17 17 -32 33q-5 5 -9 7q-10 2 -22 6q-14 2 -23 4h-10q-12 -2 -20 -4q-12 -2 -27 -6q-10 -2 -17 -7 l-24 -12q-12 -8 -27 -15q-6 -4 -15 -11q-13 -11 -30 -27q-14 -15 -23 -28q-14 -21 -26 -42q-14 -21 -27 -35q-8 -12 -15 -25q-7 -8 -13 -17q-6 -11 -12 -23q-5 -13 -11 -26q-6 -15 -8 -23q-4 -17 -10 -35q-6 -14 -12 -31q-6 -13 -11 -32q-8 -25 -12 -41q-4 -17 -9 -35.5 t-7 -36.5q-6 -23 -12 -45q-4 -15 -9 -40q-4 -28 -10 -55l-4 -22q-2 -4 -2 -8q0 -15 -2 -31v-43v-33t2 -29l2 -28v-14.5t2 -14.5v-14q2 -30 -19.5 -55t-53 -27t-56.5 19.5t-27 54.5v15q0 4 -1 12.5t-1 13.5l-2 29q0 10 -2 28v43v47q2 21 2 39v37v32v15.5v20.5q2 18 0 32 q0 21 -2 39v52v57v53v6q-21 -9 -45 -12q-28 -6 -51 -4q-17 0 -51 6q-34 9 -59 16q-33 10 -60 29q-23 15 -45 35q-25 22 -39 46q-13 23 -22 48q-13 29 -15 65q-2 28 -2 49zM257 713q3 -11 5 -19q6 -13 12 -22q4 -6 13 -15q14 -12 26 -20q8 -6 21 -10q16 -6 38 -10 q23 -5 31 -5q5 0 18 3q9 0 17 4q10 6 21 16q12 13 20 22q6 9 8 16t4 18q4 16 4 26t-2 16q0 9 -6 22q-4 13 -10 23q-7 11 -12 21q-4 6 -10 10q-7 6 -15 10t-15 4l-2 2q-5 2 -9 2q-13 5 -25 11q-17 0 -30 -2q-13 0 -23 -7q-17 -6 -27 -12q-9 -6 -18 -16q-15 -19 -23 -29 q-4 -6 -6 -12q-5 -11 -5 -16v-31z" />
<glyph unicode="&#xe18;" horiz-adv-x="1123" d="M108 664q2 18 7 34q2 19 6 38q6 18 14 46q13 35 41 70q23 31 49 54q23 18 48.5 34.5t45.5 24.5q17 8 43 16q32 12 57 14q28 2 66 -4q23 -4 37 -6q33 -2 59 -13q19 -8 48 -24q34 -16 59 -40q17 -13 37 -27q10 -7 22 -15q8 8 14 15l38 40q25 27 47 46l16 12q27 18 58.5 14 t51 -29.5t15.5 -57.5t-28 -52l-19 -12q-11 -8 -25 -25q-21 -23 -39 -41q-23 -27 -53 -47q-28 -19 -61 -22t-64 11.5t-60 32.5q-28 19 -53 40q-12 12 -30 20q-21 12 -33 18q-6 0 -12 3q-23 2 -51 6q-17 4 -23 2q-8 0 -24 -6q-21 -7 -31 -11q-7 -4 -22 -14q-19 -13 -36 -24 q-12 -11 -26 -30q-10 -12 -15 -24q-6 -21 -10 -33q-2 -13 -5 -26t-5 -29l2 -3t2 -7q10 -2 19 -2h26q16 0 41 2q25 0 39 2h32q17 2 42 2q23 3 32 2q21 2 43 0q23 0 45 -2q19 -2 33 -2h24q13 -2 28 -2h34q19 -2 38 -6q20 -2 46 -10q33 -9 66 -30q30 -18 53 -40 q21 -21 39.5 -45.5t31.5 -50.5q13 -27 21 -51q6 -23 9 -41q2 -15 2 -31q2 -15 4 -31t4 -35t4 -35q2 -20 3 -40q2 -25 2 -43.5t-3 -49.5q-4 -28 -6 -49q-4 -25 -10 -45q-9 -25 -30 -57q-18 -33 -38 -54q-25 -27 -58 -40q-28 -13 -55 -17q-15 -2 -36 -4q-23 -2 -45 -4h-47.5 h-49.5t-51 2q-21 2 -47 3t-49 1q-35 2 -68 12q-21 7 -41 13q-25 6 -47 16q-30 14 -53 35t-40 47q-14 23 -24 51q-8 23 -14 49q-7 28 -9 49v32v30v34q2 19 3.5 40.5t1.5 40.5q2 18 2 42q2 25 6 47l4 19q6 30 34 49t58.5 11.5t49 -34t11.5 -56.5l-4 -19q-2 -12 -4 -27 q0 -21 -2 -41q0 -21 -2 -40q0 -21 -1 -35.5t-1 -30.5v-30v-25q0 -5 4 -21q4 -19 10 -33q5 -10 9 -21q6 -8 12 -13q6 -4 11 -6q12 -7 28 -11q23 -6 45 -14q12 -5 25 -5q25 0 53 -2t51 -2q21 -2 41 -2h45h41q19 2 37 4q21 2 34 4q4 0 11 3q4 2 6 6q10 8 21 27q10 17 12 24 q5 10 6 23q2 17 4 41q4 25 4 36t-2 27q0 17 -2 33q-2 18 -5.5 36.5t-3.5 35.5q-2 16 -3 32q-2 17 -4 29q0 8 -4 19q-2 8 -8 22q-9 14 -19.5 27.5t-21.5 25.5q-11 10 -27 21q-15 8 -26 12q-19 7 -29 6q-13 2 -25 4h-22q-17 0 -32 2q-12 0 -28.5 1t-35.5 1q-21 2 -38 2 q-17 2 -32 0h-32q-25 -2 -40 -4q-17 0 -32 -1t-43 -2t-44 -1h-35q-23 2 -45 6q-16 4 -31 8q-28 7 -46.5 25t-22.5 28.5t-12 33.5q-19 51 -13 88z" />
<glyph unicode="&#xe19;" horiz-adv-x="1551" d="M102 694q0 23 4 46q2 21 6 36q5 27 19 53q9 19 18 35q12 21 31 42q21 23 45 38q21 13 47 23q23 11 49 16q27 6 55 8q37 4 68 -6l19 -4q19 -7 32 -20q11 -4 19 -8q19 -9 41 -25q23 -17 40 -37q17 -21 30 -49q10 -21 13 -41q7 -21 9 -39q2 -17 4 -37q2 -6 2 -15l2 -18v-41 q2 -41 2 -45v-57q-2 -30 -1 -71.5t1 -67.5q2 -28 2 -55v-54v-48t-2 -44v-39q23 19 41 32q28 21 59 38q28 17 64 30q32 15 63 27q23 10 56 16q-2 45 0 72v55v70q2 39 4 60v36v35v41q2 25 2 49q2 19 2 31q0 14 2 35v30v41l2 15q2 32 26.5 53t56.5 19t53.5 -27t19.5 -56l-2 -15 v-28v-40q-2 -15 -2 -27q0 -19 -3 -43q-2 -19 -2 -39v-41v-33q0 -21 -2 -43q0 -23 -2 -59v-64v-59q-2 -19 -2 -45h36q28 -4 55 -8q30 -7 67 -21q42 -15 67 -33q21 -14 45 -42q29 -31 42 -58q6 -12 16 -35q19 -30 23 -56q4 -16 6 -34q2 -19 2 -36q0 -26 -8 -50q-7 -18 -15 -39 q-10 -19 -26 -43q-21 -28 -51 -55q-30 -25 -53 -36t-50 -15q-21 -5 -47 -7q-29 -2 -49 0q-27 5 -49 15q-21 8 -39 21q-28 19 -62 69q-30 47 -38 78q-6 25 -11 47q-4 23 -6 51q-2 25 -4 68v36l-2 -2q-28 -10 -60 -24q-27 -12 -51 -25q-21 -10 -40 -26q-23 -17 -58 -46 q-30 -27 -45 -45q-14 -16 -23 -32q-8 -17 -14 -29v-14l-2 -14q-2 -31 -25.5 -52.5t-56.5 -19.5q-32 2 -55 29q-28 28 -21 67l2 12q0 9 2 17v30q0 19 2 34v28v45q2 23 2 37v45q3 6 3 49q2 19 2 40.5v43.5v47q0 28 -2 56v63q-21 -6 -39 -10q-19 -4 -40 -6q-16 -2 -40 -2 q-29 0 -51 4q-19 4 -43 14q-19 7 -38 12q-27 8 -52 27.5t-44 40.5q-14 21 -25 41t-20 47q-8 31 -8 59zM257 692q0 -4 3 -14q4 -12 8 -19q2 -6 8 -14q6 -4 15 -12l12 -6q19 -6 37 -15q14 -4 26 -6q6 -2 15 -2q16 0 31 2q10 0 22 2q4 2 16 9q11 4 17 10q4 4 10 12q6 14 10 22 q2 9 6 25q2 15 2 29q0 18 -2 27q0 8 -4 15q-2 11 -8 23q-2 7 -7 11q-4 6 -9 10q-10 9 -19 12q-12 6 -25 10l-13 6q-7 5 -13 9q-4 0 -6 -2q-17 0 -30 -4q-17 -5 -32 -9q-10 -6 -20 -10q-7 -4 -12 -12q-8 -8 -13 -16q-6 -11 -14 -25q-2 -7 -2 -11q-4 -14 -6 -34q-3 -13 -3 -23 zM1097 180q2 -25 2 -57q2 -39 4.5 -60.5t4.5 -37.5q2 -17 8 -33q2 -11 19 -35q10 -19 18 -25q6 -4 10 -6t8 -2q7 -2 20 0q17 0 29 4q7 0 11 2q6 4 21 16.5t22 23.5q10 14 14 24q6 10 9 16v5q0 6 -3 15q0 11 -2 21q-2 6 -8 17q-12 23 -21 41q-4 6 -14 18l-24 24q-7 4 -25 11 q-28 8 -45 12q-21 4 -43 6h-15z" />
<glyph unicode="&#xe1a;" horiz-adv-x="1342" d="M106 678q-4 28 0 55q2 29 12.5 64t24.5 60q14 28 37 51q21 18 47 34q28 17 58 27q25 6 47 12q31 4 63 0q17 2 33 -2l12 -2q23 -7 45 -20q19 -9 35 -21q23 -17 45 -39q21 -21 37 -43q21 -28 29 -57q6 -23 7 -44q4 -18 4 -38v-17v-28q0 -33 -2 -62q-2 -28 -3.5 -58.5 t-1.5 -62.5q-2 -28 -3 -55.5t-1 -67.5q-2 -43 -2 -63q0 -25 -1 -45t-3 -41q0 -21 -2 -37t-2 -31v-30v-37q0 -16 -3 -39v-37v-2q13 -4 31 -6q23 -2 33 -4q10 0 22 2q25 2 53 2h46q21 0 38 -1t33 -1q10 -2 21 -2h32q13 -2 28 -2h28h22q13 0 33 2q8 2 17 2q4 14 10 29 q6 12 10 26.5t6 27.5t2 29q2 23 4 45q2 21 2 54q0 32 -2 55q-2 27 -2 52.5v51.5v64q0 32 -2 51q0 25 -2 47q0 21 -2 37q-3 21 -4 49q-2 31 -2 52q0 14 -2 34q0 25 -2 44v22q-2 14 -4 35v28l-2 15q0 32 21.5 55.5t53 25.5t55 -19t25.5 -54l2 -14v-32q2 -12 2 -22q3 -16 3 -36 q2 -15 2 -38q2 -25 2 -44q0 -15 2 -41q2 -27 4 -45q2 -23 2 -48q2 -21 2 -41q2 -25 2 -59v-66v-51q0 -23 2 -45q2 -27 2 -63q0 -37 -2 -64q-2 -25 -4 -45q-2 -25 -5 -46.5t-9.5 -44t-16.5 -42.5q-6 -16 -11 -29q-8 -25 -28 -49q-32 -38 -80 -43q-15 -2 -37 -4 q-20 -2 -37.5 -3t-31.5 -1h-34t-36 2h-18q-15 0 -31 2q-13 0 -29 1t-32 1h-44q-23 0 -40 -2q-28 -2 -47 -2q-17 2 -45 6q-27 5 -47 9q-37 6 -68 32q-39 30 -47 78q-2 21 -2 43v43q2 23 2 39v31v30q0 21 2 42q1 19 3 36q0 19 1 38.5t1 41.5q0 21 1 62t4 67v27 q-29 -10 -56 -12q-23 -2 -49 -2q-27 2 -51 6q-27 4 -55 14q-25 9 -47 20q-37 19 -60 47q-16 21 -26 47q-8 19 -16 40q-9 25 -11 57zM260 692q2 -15 6 -22q4 -17 8 -29l8 -10q3 -2 7 -4l30 -15q15 -4 29 -6q15 -2 33 -4h27q8 2 22 8q18 7 29 13l2 4q6 10 11 24q7 13 11 29 q4 17 4 28q0 15 -2 21q0 11 -4 24q-2 4 -7 11q-8 12 -19 25q-11 12 -21 15q-13 11 -24 17l-2 2h-15l-21 4h-10q-17 -4 -33 -8q-10 -4 -20 -10q-15 -9 -20 -14q-7 -4 -11 -13q-4 -10 -10 -30.5t-8 -32.5v-27z" />
<glyph unicode="&#xe1b;" horiz-adv-x="1391" d="M104 719q2 27 8 55q7 39 23 68q15 25 37 53q23 28 49 47q23 17 49 28q32 17 64 19q20 2 38 0h17q10 0 23 -4q19 -2 32 -6q21 -5 43 -14q25 -10 49 -29q25 -21 42 -41q14 -21 24 -41q8 -18 16 -41q9 -23 13 -45t4 -43q0 -8 -2 -15q2 -8 2 -16v-14v-35q0 -17 -2 -43v-51 q0 -25 -2 -55q0 -28 2 -70v-66t2 -43v-39v-34v-35v-33v-35.5t2 -40.5v-49q0 -17 1 -36v-17h7q18 0 37 -4q10 0 31.5 -2t33.5 -2h27q17 0 45 2h43q18 0 37 -2h18q12 -3 29 -3h30q15 0 33 -1t31 -1q10 0 29 2q13 3 22 3q4 14 8.5 34.5t6.5 41.5q2 23 2 79q0 41 2 78t4 72 q4 31 6 66.5t4 85.5q3 49 3 78q0 30 2 60v60q0 28 2 55q2 23 3 55t2 51v38v34q0 19 2 45v34v28v35q0 19 -2 33v38v38.5t-0.5 37t-0.5 31.5v14q0 33 23.5 56t55 23t54 -23t22.5 -56v-14v-31q2 -18 2 -36.5v-37.5v-32q2 -17 2 -41v-35v-24v-44q-2 -23 -2 -39v-38q0 -19 -2 -39 q0 -21 -1 -53.5t-3 -56.5q-2 -23 -2 -50v-58q-2 -30 -2 -58q0 -31 -2 -85q-2 -53 -5 -90t-6 -69q-2 -33 -4 -68q-2 -33 -2 -68q0 -62 -2 -88q-2 -32 -8 -63t-14 -53q-10 -33 -35 -60q-33 -36 -80 -43q-18 -4 -41 -6q-25 -2 -41 -2q-15 0 -35 1t-37 1h-26q-17 0 -29 2 q-19 0 -35 2h-18h-39q-28 0 -43 -2h-37t-41.5 2t-42.5 4q-8 2 -19 2q-16 0 -36 3q-23 2 -43 8q-27 6 -45.5 28.5t-24.5 46.5q-6 21 -6 42q0 12 -2 34q-2 25 -2 45v45q-2 23 -2 44.5v38v34.5v33v32v37q-2 21 -2 46v65q-3 30 -3 55q-20 -8 -46 -14q-29 -4 -54 -4q-30 0 -59 10 q-19 6 -28 10q-15 4 -32 10q-30 11 -57 32q-25 18 -43 40q-21 23 -30 43q-13 25 -19 58q-4 27 -2 55zM260 686q2 -6 2 -8q4 -6 12 -14q8 -11 19 -17q6 -6 10 -6q19 -7 33 -12q16 -4 34 -12h4q11 0 25 2q13 2 20 6q15 6 29 16q5 2 9 6q7 10 13 21q2 2 2 8q5 13 5 24 q2 13 2 25q0 6 -2.5 15t-6.5 22q-6 14 -9 25q-4 6 -11 16l-10 10q-8 6 -17 10l-15 6q-7 3 -13 3h-14q-9 0 -17 2h-18q-2 0 -8 -5q-15 -4 -27 -14q-11 -6 -20 -20q-13 -15 -19 -27q-6 -8 -8 -21q-2 -19 -4 -37v-24z" />
<glyph unicode="&#xe1c;" horiz-adv-x="1240" d="M100 289v39v53q0 30 1 57t1 51q2 25 2 47q0 25 2 53q2 31 7 58q4 21 6 39q2 23 2 39l2 17q2 19 12 32q5 19 10 32q12 37 42 70q23 25 42 43q27 23 58 38q23 10 53 17q34 11 64 11l19 2q17 0 36 -6l13 -4q25 -7 48 -18q23 -13 43 -31l33 -33q16 -21 29 -43q14 -23 22 -46 q10 -25 12 -55q4 -27 4 -59q-2 -43 -14 -75q-13 -29 -30 -54q-17 -20 -38 -42q-30 -31 -65 -46q-23 -9 -49 -14q-25 -6 -55 -8q-30 0 -53 2t-48 10q-27 7 -53 18q0 -23 -3 -49v-55v-51v-35q3 -19 3 -33q2 -19 2 -37q2 -14 3 -26t5 -31q2 -17 6 -37q4 -16 9 -33q6 -19 10 -32 q4 -11 10 -23l18 -26q9 -11 21 -23q8 -7 15 -9q10 -4 24 -6q8 -2 27 -2q14 2 24 8q10 4 19 15q16 21 26 39q8 16 14 29q6 14 11 28q6 19 14 40q4 12 9 24q2 14 5 33q4 17 4 28q2 28 20 39.5t41.5 6.5t45.5 -14t37.5 -18.5t15.5 -11.5q6 -25 8 -63q4 -33 6 -45q0 -13 2 -25 t5 -26q0 -5 6 -17q4 -13 10 -20q6 -10 15 -21q8 -10 15 -14q15 -11 34 -24q14 -9 26 -15q8 -4 19 -6q10 0 20 2t20 8q15 8 25 17q9 8 10 11q6 9 8 19q9 17 15 32q4 9 6 23q6 21 10.5 46.5t6.5 45.5q2 19 4 44t4 51q0 27 3 60q2 28 4 68q0 43 2 75q3 28 3 55.5v50.5v53v49 q0 17 -3 31v28t-2 30l-2 24q0 27 -2 36q0 21 2 42v14q4 30 30 51t56.5 17.5t52.5 -28t18 -56.5l-2 -15v-14q2 -13 2 -30t2 -32q0 -16 2 -30q0 -17 0.5 -31t0.5 -32.5v-51.5v-57v-51.5t-1.5 -59t-1.5 -74.5q-2 -45 -6 -75q-2 -30 -5 -55q0 -27 -2 -53q-2 -28 -4 -49 q-4 -25 -8 -58q-6 -30 -11 -51q-6 -27 -16 -50q-7 -17 -12 -32q-8 -21 -21 -39q-12 -23 -36 -45q-25 -23 -53 -39q-31 -19 -68 -27q-35 -8 -72 -2q-35 5 -66 18q-25 13 -49 29q-19 15 -32 24q-23 17 -43 38q-17 21 -29 41q-13 -21 -26 -39q-29 -37 -68 -57q-39 -21 -87 -23 q-43 -5 -73 2q-25 6 -47 14q-30 13 -59 37q-23 23 -42 45q-17 23 -30 46q-13 25 -21 47q-6 16 -12 36q-8 27 -14 51q-4 21 -6 41q-5 21 -7 37t-2 35q-2 12 -4 35q0 19 -2 41zM285 692q0 -13 6 -24q6 -15 11 -22t12 -13t16.5 -10t19.5 -8q17 -5 26 -5q11 -2 30 -2q14 2 26 4 q14 3 29 9l8 8q15 15 24 26q7 11 11 21q2 6 4 18q0 23 -2 39q-2 13 -4 20q-5 11 -11 21q-6 11 -14 19q-9 10 -16 18q-8 6 -17 10q-6 4 -12 6l-15 5l-5 -3q-13 0 -29 -4q-21 -6 -33 -12q-8 -2 -16 -10q-15 -12 -31 -31q-10 -12 -12 -21q-6 -10 -6 -24q-2 -17 0 -35z" />
<glyph unicode="&#xe1d;" horiz-adv-x="1257" d="M102 368v44q0 21 1 41t1 53v61.5t1 45t3 42.5q0 25 4 53l3 28q0 16 10 32q2 8 4 19q8 28 24 55q11 17 27 41q25 32 53 51q21 12 44.5 22.5t47.5 17.5q39 13 72 9l17 -2q4 -2 9 -2q19 -5 36 -10q23 -6 43 -19q14 -10 30 -20q25 -19 46 -43q14 -19 24 -35q14 -23 21 -48 q8 -23 10 -42t2 -37q2 -27 -2 -56.5t-15 -53.5q-10 -26 -25 -50q-14 -25 -34 -44q-25 -28 -53 -38q-21 -10 -49 -14q-27 -6 -56 -6q-28 -2 -55 0q-30 4 -55 14q-17 6 -31 12v-38q-3 -21 -3 -43v-36q0 -16 3 -38v-39q0 -19 2 -44q2 -27 4 -38q2 -17 2 -28q2 -13 4 -34 q2 -18 6 -38q4 -19 11 -35q4 -16 10 -27q4 -12 12 -28q4 -10 8 -19q4 -6 13 -12q12 -11 20 -15q9 -4 16 -5q10 -2 27 -4h2q9 4 17 11q12 13 22 27q12 19 25 39q12 23 20 38q8 21 14 36q2 6 4 10q3 15 5 30t6 39q4 21 6 34q2 34 20.5 45.5t42 3t46 -21.5t38.5 -25l15 -15 q8 -36 12 -57q5 -17 8 -39q2 -8 4 -17q0 -6 4 -14l2 -9q2 -4 2 -5q4 -16 15 -35q10 -23 19 -37q6 -12 13 -23q6 -6 17 -13q14 -11 27 -19q15 -6 24 -10q8 -3 23 -5q10 -2 16 0q10 2 23 9q10 4 18 12q11 15 22 33q13 20 19 38q8 15 10 27q5 21 9 41q4 15 5 31q2 23 8 60 q5 36 7 57t4 41q0 25 4 49q0 23 2 55v58q0 28 2 49v47v46q2 45 2 62v33v47q-2 27 -2 41q-2 19 -2 39v31v24v37v37v38v40q2 17 2 31q-2 16 -2 34v31q-2 23 -2 39v27q-2 15 -2 26v15q0 30 23.5 54t55 24t54 -24t22.5 -54v-15q0 -10 2 -22v-29q0 -13 3 -28v-42q0 -19 2 -34 q0 -19 -2 -39v-36v-34v-39v-35v-30v-27q0 -15 2 -26q0 -21 2 -52v-44v-40q0 -19 -2 -64v-45v-47q-2 -34 -2 -46v-62q-3 -37 -5 -64q-2 -25 -2 -45q-2 -25 -4 -51q-4 -23 -7 -59q-4 -35 -9 -55q-2 -28 -8 -52l-8 -36q-7 -27 -19 -55q-10 -27 -28 -58q-19 -32 -41 -57 q-27 -28 -61 -47q-33 -17 -64 -23q-35 -6 -70 0q-30 4 -53 13q-21 6 -45 19q-23 13 -45 30q-27 18 -45 40q-16 21 -31 45q-6 13 -15 29q-14 -23 -28 -41q-17 -28 -38 -49q-28 -28 -58 -41q-34 -17 -78 -17q-30 2 -53 9q-28 6 -56 18q-25 15 -49 35q-28 25 -42 47 q-11 16 -21 39q-9 19 -15 33q-6 16 -12 36q-9 25 -14 52q-6 27 -8 51q-4 25 -4 39q-3 13 -5 26q0 17 -2 44q-2 28 -4 51v39q-2 32 -2 38zM276 727q0 -10 2 -27q4 -17 7 -22q4 -6 10 -14q13 -15 24 -27l6 -6q9 -4 19 -8q8 -2 18 -4q14 -2 33 0q17 0 33 2q10 2 16 4l2 2 q9 8 15 18q6 12 11 25q5 10 7 23t2 22q-2 16 -4 29q0 8 -3 13q-2 7 -4 11q-8 10 -17 23q-5 8 -9 10q-12 9 -25 16q-4 2 -9 4q-9 2 -15 4l-10 2h-7q-2 0 -6 -2q-16 -4 -30 -10q-15 -9 -27 -14q-4 -2 -8 -8q-13 -21 -22 -36q-5 -6 -7 -13q-2 -8 -2 -17z" />
<glyph unicode="&#xe1e;" horiz-adv-x="1486" d="M104 717q-2 30 6 68q9 32 21 59q13 23 26 43q13 16 25 30q21 27 51 46q29 17 68 24q33 8 65 8q30 2 59 -2l23 -2q12 -2 26 -8l9 -2q30 -11 57 -39q17 -17 31 -36q13 -17 27 -38q12 -23 23 -45q8 -21 12 -41q4 -25 5 -51q0 -12 -1 -25q2 -12 0 -22l-6 -29q-4 -25 -6 -40 q-2 -23 -7 -50q-2 -25 -4 -49.5t-3 -48t-1 -53.5q-2 -36 -2 -57q-2 -19 -2 -38v-34v-36q0 -14 2 -36q0 -25 2 -39q0 -10 2 -21q2 -12 9 -36q4 -21 8 -35q6 -16 9 -29q2 -6 9 -21q8 -14 16 -24q7 -8 18 -19.5t17 -14t29 -11.5q4 0 8 -2q9 5 12 5q2 2 4 6q10 10 23 30 q10 19 17 30q6 13 12 30q6 20 12 36q4 15 10 38q6 25 10 42q5 19 7 33q2 6 2 12q2 19 4 41q2 15 2 25q0 27 77.5 21t77.5 -21q3 -21 3 -49q0 -27 -3 -46v-34q0 -15 3 -24q2 -17 4 -40q2 -19 4 -30q2 -9 8 -27q11 -23 20 -41q8 -15 19 -25q10 -13 16 -16q8 -6 20 -10 q15 -6 30 -9h6q2 3 5 5q13 10 27 32q17 21 21 33q6 17 11 36.5t11 51.5q4 30 6 55q2 28 4 57.5t5 55.5q2 27 4 67.5t2 63.5q2 21 0 52v57q0 21 -2 41q-2 23 -2 42q-2 28 -2 48q0 15 -3 45q-2 37 -2 51q0 11 -2 29q0 22 -2 39q-2 19 -2 35q-2 10 -2 28v12q-2 33 20.5 57 t54 26t55 -21t26.5 -53v-15q0 -17 1 -29t1 -26q2 -17 4 -41q2 -25 2 -39q0 -12 2 -44q2 -37 2 -56q0 -14 2 -35q0 -25 2 -45q2 -21 2 -45v-57q2 -35 0 -62q0 -21 -2 -66q-2 -44 -4 -69q-2 -28 -4 -57l-4 -58q-2 -30 -9 -69q-8 -37 -13 -66q-6 -27 -15 -49q-12 -30 -40 -70 t-56 -63q-34 -29 -72 -37q-30 -6 -68 0q-28 6 -53 17q-30 10 -53 26q-23 14 -45.5 37.5t-40.5 56.5q-2 -2 -2 -4q-16 -28 -31 -43q-21 -27 -47 -43q-25 -15 -55 -23q-43 -10 -92 6q-37 13 -57.5 24.5t-44.5 33.5q-25 21 -42 44q-15 22 -26 44q-13 25 -19 43q-6 13 -10 30 q-9 21 -14 49q-4 28 -8 46q-4 19 -4 37q0 12 -2 36q-3 25 -3 46v37.5v39.5t3 39q0 19 2 51v60q2 8 2 18q-13 -4 -23 -6q-27 -4 -49 -4q-23 -2 -50.5 2t-52.5 13q-28 10 -59 30q-25 17 -43 33q-21 19 -38 46.5t-25.5 53t-12.5 56.5zM260 729q2 -10 4 -18.5t9 -18.5t14 -16 q10 -10 24 -21q12 -6 18 -10q13 -4 27 -5t25 -1q10 0 29 2q12 2 20 6t18 12q9 7 13 13q8 10 11 20q7 10 9 21q2 8 2 16q0 11 -2 18q-2 10 -7 21q-4 10 -9 19q-8 12 -19 24q-8 12 -18 23v2l-11 2l-9 2q-17 2 -36 2q-19 -2 -36 -6t-23 -9q-6 -4 -10 -6q-10 -15 -21 -28 q-8 -8 -12 -19q-4 -8 -8 -25q-2 -12 -2 -20z" />
<glyph unicode="&#xe1f;" horiz-adv-x="1521" d="M102 738q0 23 8 53q7 32 19 57q13 21 26 39q15 19 34 36q23 19 47 34q27 14 61 22q30 6 55 8q29 4 58 -2l18 -2q14 -4 29 -13q18 -6 32 -13q19 -11 38 -24.5t36 -29.5q25 -22 41 -55q10 -23 19 -42q8 -22 12 -55q4 -28 2 -55q0 -11 -2 -18v-8v-17l-4 -34q0 -21 -4 -45 q-4 -23 -9 -49q-4 -23 -6 -46q-2 -25 -4 -55v-52q0 -20 -2 -42q0 -21 -1 -38.5t-1 -43t1 -39t1 -26.5v-32q2 -10 4 -26q0 -14 4 -31q4 -19 13 -37q6 -18 10 -29q4 -6 12 -15q10 -15 23 -26q2 -2 12 -6q8 -4 14 -6h14q5 0 9 2t10 6q13 9 16 13q8 10 16 25q11 21 23 38 q7 13 17 39q10 28 14 49q6 23 10 49q6 23 12.5 55t8.5 50q4 28 6 43q9 31 27 40t40.5 0t43 -22.5t34.5 -25.5l15 -13q2 -32 2 -55v-28q2 -23 2 -38q2 -12 4 -26q0 -12 3 -31q5 -17 11 -36q6 -23 8 -33q4 -8 8 -21q7 -12 19 -28q9 -17 16 -25q10 -12 23 -25q4 -4 12 -9 q15 -9 26 -15q3 0 7 -2q2 2 4 2q14 8 25 17t16 15q6 11 10 19q4 11 13.5 38.5t11.5 45.5q4 21 10 63q7 39 8 68l4 60q2 34 4 80q2 45 2 73.5v54.5q0 27 2 68v57q-2 25 -2 49v56q2 25 2 40q0 17 -2 34q0 19 -2 45q0 25 -1 41t-1 29q0 16 -2 38q0 25 2 49q2 17 0 35 q-2 25 -2 51v41q0 17 -2 33v37q2 13 2 24q-2 19 0 33v16q2 31 25.5 54t55.5 22t54 -26t20 -56v-13v-28q0 -16 -1 -32v-27q0 -19 1 -37v-39q0 -21 2 -41q3 -28 0 -57q-2 -19 -2 -37q2 -18 2 -31q0 -15 3 -32v-43q2 -25 2 -41q2 -19 2 -39q0 -21 -2 -52v-44q0 -23 2 -43v-68 q-2 -39 -2 -66v-59q0 -31 -2 -77q-5 -47 -5 -81q-2 -30 -3 -61q-4 -35 -10 -80t-11 -67q-4 -29 -16.5 -66t-19.5 -58q-11 -20 -23 -40q-17 -23 -43 -45q-27 -23 -59 -40q-41 -21 -79 -17q-27 2 -59 13q-25 11 -47 25q-28 17 -49 39q-13 14 -23 27q-17 19 -32 43 q-11 18 -19 34q-11 -17 -22 -36q-13 -23 -27 -39q-19 -25 -49 -45q-33 -23 -62 -31q-21 -4 -42 -6h-35q-27 4 -59 18q-37 17 -62 39q-15 17 -31 35q-21 25 -33 47q-10 21 -18 47q-11 27 -16 51q-6 27 -8 49q-2 21 -2 39q-3 19 -3 31q0 15 -1 30t-1 42.5t1 46t1 41.5 q3 21 3 39q0 20 2 55v37q-11 -2 -21 -2q-21 -2 -49 -4q-37 -4 -65.5 1t-51.5 15q-19 8 -39 21q-25 12 -47 32q-21 21 -38 48.5t-25 56.5q-9 25 -13 51q-4 29 -4 52zM257 733q0 -8 3 -23q2 -16 6 -30q4 -8 10 -18.5t13 -16.5q8 -9 15 -12q15 -8 25 -12q5 -2 17 -4 q11 -2 28 -2q27 2 43 4q8 2 19 4q4 2 10 8q13 13 23 26q6 4 8 15q4 21 4 30q2 15 0 31q-2 13 -4 18q-7 13 -12 29q-4 7 -8 9q-9 10 -19 17t-19 11q-10 6 -20 10l-14 5h-2q-7 2 -17 2q-15 -2 -34 -7q-15 -4 -21 -8q-11 -4 -16 -13q-10 -8 -17 -15q-6 -9 -10 -17q-4 -4 -6 -19 q-5 -14 -5 -22z" />
<glyph unicode="&#xe20;" horiz-adv-x="1359" d="M108 111q4 27 15 53q10 28 27.5 55t42.5 47q23 19 51 33q27 13 59 18l22 4q4 2 11 2q8 3 12 3h14q14 2 31 2q27 2 53 -5q9 -2 19 -4q4 23 7 43q7 34 21 66q2 8 6 16q-32 13 -61 29q-39 18 -66 48q-36 40 -41 110q-2 60 15 100q13 31 26 54q15 27 33 51q21 27 47 49 q25 23 52 38q28 19 57 32q25 12 68 24q47 16 77 20q28 3 62 3q28 0 61 2q41 0 74 -5q37 -8 69 -25q25 -10 53 -24q41 -20 64 -40q17 -17 31 -32q17 -16 28 -32q15 -19 27 -42q13 -20 20 -40q9 -21 19 -51q8 -28 17 -45q8 -25 12 -51q4 -23 8 -43q4 -25 6 -48q0 -23 2 -57 v-59q0 -23 2 -44v-43q2 -23 2 -42v-39q0 -21 -2 -48t-3 -42.5t-3 -32.5q0 -13 -2 -25v-37q-2 -27 -2 -42q0 -13 -2 -25v-29v-29l-3 -14q0 -33 -24.5 -54.5t-55.5 -20t-53 26t-22 54.5l2 14v28v24q2 16 2 33q0 15 2 39v40l4 34q0 12 2 28q0 14 3 38q2 23 2 40v39 q0 20 -1 39.5t-1 39.5q-3 25 -3 50q0 23 -1 54.5t-1 49.5q-2 17 -4 33q-4 21 -6 38q-4 17 -10 34q-7 18 -14 45q-8 25 -14.5 38t-12.5 27q-8 13 -15 20q-8 11 -18 21q-10 12 -22 23q-9 8 -29 18q-28 14 -51 25q-14 6 -29 10q-19 2 -43 2q-34 -2 -65 -2q-23 0 -41 -2 q-19 -2 -51 -12q-35 -13 -53 -21q-17 -7 -34 -16q-19 -13 -34 -27q-17 -15 -27 -28q-13 -15 -20 -32q-9 -16 -19 -36q-4 -8 -2 -33q0 -9 2 -14q8 -8 21 -15q21 -10 38 -16.5t39 -12.5q19 -2 35 -10t36 -29t22 -53q2 -40 -25 -83q-11 -17 -18.5 -36t-11.5 -40q-5 -23 -9 -47 q-2 -23 -2 -45q2 -23 4 -51l2 -29v-17q3 -15 5 -30q2 -31 0 -54q-2 -18 -9 -44q-6 -31 -16 -56q-13 -27 -33 -49q-16 -21 -39 -37q-21 -15 -47 -29q-35 -16 -67 -18q-21 -2 -48 0q-21 2 -41 6q-28 2 -57 15q-25 10 -45 21q-21 15 -39 34q-16 17 -31 36q-17 21 -28 45 q-11 25 -16 61t-1 69zM262 86q0 -11 1 -23t5 -18q2 -6 8 -17q11 -10 19 -20q6 -6 11 -10q9 -4 21 -11q11 -2 17 -4q19 -2 36 -4q13 -2 23 0q5 0 9 2q14 9 24 15l12 12q7 7 9 15q4 8 8 22q3 19 5 31q0 6 -0.5 18t-4.5 23q-4 12 -10 22q0 4 -9 10q-12 13 -25 19q-4 4 -7 4 q-6 2 -13 2q-14 -2 -27 -2l-14 -2h-6l-23 -4q-12 -4 -20 -8q-13 -5 -18 -13q-9 -6 -15 -14t-8 -18q-6 -13 -8 -27z" />
<glyph unicode="&#xe21;" horiz-adv-x="1269" d="M104 740q4 30 15 61q8 31 23 55.5t44 55.5q31 30 63 47q28 14 62 22q25 4 41 6q21 2 43 2q19 -2 30 -4q17 -2 44 -8l20 -7q23 0 43 -11l12 -9q19 -10 39 -31q23 -23 40 -49q10 -21 17 -36q7 -19 13 -43q6 -28 8 -58v-16l4 -13q5 -21 5 -49q0 -21 -3 -49q-2 -23 -2 -49.5 v-54.5v-76v-69q0 -25 -2 -50q-2 -15 -2 -24q37 -23 62 -37q27 -19 51 -41q19 -19 34 -35l27 -27q15 -13 35 -34q19 -17 39 -35q23 -23 41 -44q9 -10 19 -24q4 21 7 51q7 37 9 62q2 23 4 45q2 23 6 57q2 30 5 69.5t3 66.5q0 30 2.5 61t4.5 53q0 25 2 61q2 35 2 51q2 17 2 34 v32q0 15 -2 42q-2 30 -2 51v34q-2 21 -2 51v13l-2 12q-3 31 18.5 55.5t53.5 26.5t56.5 -19.5t26.5 -52.5v-12q2 -14 2 -18q0 -29 2 -47v-43q0 -17 2 -44q2 -30 2 -49v-32q0 -17 -2 -36q0 -21 -2 -56q-2 -37 -2 -64q-2 -25 -4 -52.5t-2 -53.5q-2 -31 -4 -73t-7 -77 q-2 -33 -4 -56t-6 -49q-2 -25 -5 -61q-6 -41 -11 -66q-6 -23 -10 -43q-11 -32 -33 -64q-39 -51 -96 -49q-45 3 -84 36q-23 21 -43 45q-12 16 -25 30q-12 15 -28 31q-23 21 -44 41q-16 19 -28 28q-17 15 -33 31q-15 17 -33 33q-6 6 -14 12q-2 -12 -2 -22q-4 -25 -11 -45 q-4 -17 -9.5 -35.5t-10.5 -31.5q-8 -19 -18 -40q-15 -25 -39 -49q-28 -27 -70 -39q-32 -8 -68 -10q-28 -2 -45 -2q-25 2 -46 6q-23 6 -66 30q-45 25 -73 56q-31 36 -42 70q-6 23 -8 53q0 28 4 64q6 40 19 67q10 21 25 43q16 27 36 47q17 15 37 31q25 19 49 31q28 12 68 18 q34 2 61 2q27 -2 51 -4q9 -2 15 -2q2 9 2 17v67v41q-19 -8 -38 -14q-32 -11 -66 -11q-29 0 -56 5q-30 2 -57 14q-19 8 -36 16q-22 10 -44 27q-21 17 -37 39q-17 18 -31 38q-15 23 -24 46q-9 25 -14 54t-3 59zM260 727q0 -12 1 -23.5t5 -17.5q2 -8 10 -18q9 -15 19 -25 q6 -11 14 -16q8 -6 14 -8q15 -9 31 -15q9 -2 16 -4q15 -2 33 -2q15 0 27 4q10 4 18 8q13 9 21 21q15 15 24 28q6 5 9 15q4 6 4 17q2 16 0 34q0 15 -4 26q-5 17 -7 25q-4 9 -10 19q-2 6 -8 11q-8 7 -14 11q-4 2 -8 2l-23 6q-19 4 -24 7q-13 0 -25 2h-11q-10 -2 -28 -7 q-12 -2 -25 -8q-8 -4 -20 -18q-17 -14 -23 -24.5t-10 -25.5q-4 -12 -6 -24zM299 51q0 -8 2 -14q2 -5 8 -10q10 -12 33 -25q19 -10 28 -15q4 -2 11 -2q12 0 36 2q17 0 31 5q5 2 7 4q8 6 8 8q5 11 7 17q4 12 9.5 27.5t9.5 29.5q2 13 6 28q2 19 4 33q0 16 3 31v15q-15 4 -28 4 q-20 4 -38 4q-15 0 -37 -2q-16 -2 -21 -4q-10 -4 -19 -13q-15 -10 -25 -21q-7 -6 -13 -15q-8 -15 -14 -27q-3 -7 -6 -25q-2 -21 -2 -35z" />
<glyph unicode="&#xe22;" horiz-adv-x="1168" d="M102 604q0 19 2 39q0 21 2 37q0 21 4 41l2 17q3 10 5 17q2 15 6 30q4 27 14 51q11 25 20 42q15 23 39 45q17 15 42 32q27 18 59 28q30 10 62 12t62 -2l25 -4l4 -2q28 4 49 -8l13 -9q17 -8 34 -22q19 -14 35 -35q19 -21 31 -45q9 -17 17 -32q12 -27 16 -51q4 -21 6 -41 q0 -17 -2 -42q0 -28 -7 -55q-10 -37 -32 -67q-19 -25 -36 -42q-21 -20 -46 -34q-23 -13 -47 -23q-37 -15 -71 -14q-25 2 -44 4t-45 8q-23 4 -45 14q6 -12 15 -28q8 -16 18 -31q8 -12 20 -22q9 -6 19 -10q23 -9 37 -13q2 0 4 -2q4 2 8 2h13q12 2 34 4q13 0 43.5 -15.5t52 -44 t-9.5 -73.5q-23 -35 -67 -49l-21 -6q-2 -3 -4 -3q-13 -6 -22.5 -10.5t-22.5 -13.5q-10 -8 -23 -25q-12 -14 -16 -24q-6 -16 -9 -31t-3 -20.5t4 -20.5q2 -10 6 -16q5 -9 16 -20q8 -11 15 -13q14 -6 23 -10q14 -4 38 -13q21 -8 30 -10q11 -2 32 -2l26 -1q28 -2 46 -2 q10 -2 32 -2q23 0 53 2q28 2 39 3q12 2 25 4q10 2 28 6q13 4 29 15q23 15 37 29q14 13 25.5 28t17.5 27q6 17 10 27q4 12 6 25q4 14 9 32q4 19 8 34l4 30q2 16 4 42q2 27 2 47q2 21 2 45q3 23 3 46q0 19 0.5 38t0.5 45q-2 31 -1 52v65v25q-3 21 -3 45v39v34q-2 21 -2 36v28 v12q-2 33 20.5 57t54.5 25t55.5 -22t25.5 -55v-13v-28q0 -15 2 -33v-41v-39q0 -21 2 -35v-35v-65q0 -21 2 -49q0 -29 -1 -50.5t-1 -43.5q0 -21 -2 -45q-2 -23 -2 -44q0 -23 -2 -51q-2 -30 -4 -51t-9 -41q-2 -19 -8 -39q-4 -18 -8 -35q-5 -19 -10 -34q-6 -19 -17 -43 q-12 -28 -32.5 -56.5t-47.5 -52.5q-25 -21 -55 -41q-37 -25 -69 -35q-27 -6 -46 -10q-14 -2 -30 -7q-17 -2 -53 -4q-35 -2 -62 -2q-28 0 -45 2q-12 2 -35 2q-21 0 -37 2q-28 3 -47 7q-21 4 -51 14q-27 9 -38 13q-19 6 -42 18q-33 14 -62 45q-23 28 -36 49q-15 25 -23 60 q-6 28 -7 50.5t4 52t17 61.5q15 34 41 64q6 9 15 19q-19 11 -35 23q-27 23 -47 49q-16 25 -31 51q-12 25 -20 43q-10 23 -16 51q-7 28 -9 51q-2 15 -2 30q-2 18 -2 36zM272 729q0 -6 2 -14q2 -13 11 -26q4 -11 10 -21q6 -9 14 -13q12 -10 29 -18q10 -4 21 -6q14 -4 26 -6 q12 0 29 -2q4 0 7 2q17 8 29 14q9 4 17 12q11 8 18 21q4 6 6 10q2 15 4 28v28q0 8 -2 17q-2 5 -4 13q-8 17 -17 31q-4 6 -7 14q-8 6 -14.5 11t-12.5 10q-10 0 -19 2l-22 4q-14 2 -26 1t-25 -5q-12 -4 -23 -11q-14 -10 -24 -21q-6 -4 -8 -5q-4 -8 -9.5 -20.5t-7.5 -25.5 t-2 -24z" />
<glyph unicode="&#xe23;" horiz-adv-x="1019" d="M102 631q0 21 2 55q4 37 15 63q6 21 10 38q8 20 16 38q10 23 25 41q16 25 63 57q45 33 68 42q21 8 41 12q21 4 41 6q14 2 31 4q23 2 49 2q28 0 51 -6q15 -4 35 -9q32 -8 53 -17q12 -7 27 -15q14 -8 41 -23q20 -14 42 -30q27 21 37 32q12 11 23 23l12 13q21 23 53.5 24.5 t56 -20t24.5 -54.5t-19 -57l-12 -12q-13 -15 -29 -29q-16 -17 -48 -41q-44 -35 -85 -39q-47 -4 -94 28q-23 15 -44 30q-23 12 -32 17t-25 13q-6 2 -16 6q-23 4 -40 9q-6 2 -15 2q-15 0 -27 -2q-19 -3 -35 -3q-10 -2 -21 -4q-8 -2 -17 -6q-11 -4 -36 -22q-21 -15 -28 -23 q-4 -6 -8 -14q-7 -11 -9 -22q-6 -13 -12 -36q-4 -14 -6 -32q-3 -23 -3 -33v-8q11 0 19 -2q19 -2 39 -2h53t60 2q27 2 51 0q28 0 51 -4q21 -4 41 -8.5t43 -10.5q23 -4 53 -15q41 -16 72 -44q25 -25 41 -54q17 -27 24 -49l8 -32q5 -15 9 -35q8 -31 8 -60q2 -23 0 -45 q-2 -23 -4 -43q-2 -18 -2 -34q-2 -17 -2 -33v-33t-2 -29v-12q0 -13 -4 -22q2 -23 0 -45q-3 -23 -12 -56q-10 -34 -25 -57q-19 -30 -43 -51q-25 -19 -53 -31q-23 -9 -42 -13q-27 -6 -55 -4q-25 0 -47 4q-19 2 -36 6q-25 7 -47 17q-23 8 -45 23q-27 15 -46 32t-32 35 q-17 21 -27 44.5t-14 50.5q-6 27 -2 59q2 28 12 56q7 22 16 46q17 33 42 60q25 25 55 43q23 10 43 21q30 14 59 17q28 5 53 0l12 -2q2 -2 4 -2q10 0 19 -2l14 -4q21 -6 41 -16q8 -4 15 -8q2 14 0 26q0 10 -2 23q-7 21 -11 36q-2 11 -6 23q-2 7 -8.5 18t-15.5 21q-6 4 -17 8 q-21 9 -36 13q-19 4 -37.5 7t-34.5 7q-15 3 -32 2h-40q-25 -3 -62 -2h-63q-25 3 -47 4q-25 2 -43 6q-37 6 -68 37q-32 29 -43 69q-4 25 -6 46zM442 45q2 -6 5 -13t8 -11q6 -8 14 -17l18 -12q15 -9 27 -15q13 -4 22 -5q15 -4 29 -6q13 -3 24 -5q9 0 13 2q10 3 25 9q6 2 10 5 q4 2 5 6q7 11 11 25q6 19 6 26q2 7 0 13q-2 15 -4 27q-2 13 -6 24q0 6 -4 11q-7 10 -18 22q-4 9 -9 10q-14 6 -27 12q-8 7 -15 9l-13 2q-4 2 -10 2l-13 2h-4q-4 0 -11 -4q-17 -9 -38 -21q-11 -4 -17 -12q-6 -6 -9 -14q-8 -19 -13 -31q-4 -11 -4 -24q-2 -11 -2 -17z" />
<glyph unicode="&#xe24;" horiz-adv-x="1206" d="M112 561q-8 35 5 86q8 43 21 74q15 30 36 59q17 21 34 41q21 25 43 45q23 19 55 44q35 25 66 38q28 13 58.5 22t62.5 13q30 6 66 10l64 4q34 0 77 -6t72 -14q25 -9 47 -16q28 -11 53 -27q19 -13 37 -26q15 -13 39 -30q27 -20 43 -36q19 -15 31 -31q17 -21 28 -43 q13 -21 21 -45q11 -25 16 -66q8 -36 10 -63q2 -25 6 -49q3 -25 5 -54q2 -25 2 -53v-66v-67v-57l-4 -54q0 -25 -3 -60q-2 -41 -2 -66q-2 -23 -2 -43q0 -23 -2 -46q0 -25 -2 -45q-2 -18 -3 -43t-1 -40q-2 -17 -2 -31v-31v-29q0 -21 -2 -41q-2 -14 -2 -28q-2 -27 -2 -44 q-2 -12 -2 -24v-33q-3 -15 -2 -26v-19l-4 -32q-4 -33 -8 -68l-2 -34q-4 -33 -29.5 -54t-56.5 -17.5t-52.5 29t-17.5 55.5l4 38q4 34 6 67l2 8q-2 12 0 23l2 14q0 13 2 24v27q0 17 2 35q0 12 2 39q0 16 2 35q2 15 2 28v29v31q0 18 1.5 35.5t2.5 43t3 46.5q2 16 2 38 q2 21 2 43q0 23 2 48q0 23 2 62q2 40 2 64q2 25 4 54v49v67v64q0 25 -2 47q-2 23 -4 43q-2 25 -4 52q-4 21 -8 53q-7 27 -11 37q-6 14 -12 26q-5 8 -8 14q-8 11 -19 19q-10 11 -32 26q-25 19 -44 34q-12 10 -24 17q-8 7 -21 11q-18 6 -38 12q-19 5 -49 11q-30 4 -51 4 q-25 -2 -54 -4q-27 -2 -53 -6q-23 -5 -43 -12t-41 -16q-17 -8 -39 -22q-27 -18 -41 -33q-16 -14 -29 -28q-16 -19 -30 -37q-8 -12 -17 -27q-6 -16 -12 -45q-2 -12 -4 -18q2 -5 8 -11q8 -12 21 -20q10 -6 18 -8q12 -2 33 -2h14t30 -6.5t36 -16t23.5 -31.5t2.5 -52 q-4 -23 -25 -60q-12 -25 -22 -45q-6 -12 -12 -27l8 4q28 9 64 9h4q17 2 30 -2l15 -5l24 -4q28 -6 55 -20q19 -10 36 -23q21 -16 38 -38q17 -19 31 -43q14 -27 20 -54q9 -25 11 -45t2 -43q0 -21 -2 -38q-2 -23 -11 -50q-8 -27 -23 -49q-16 -25 -42 -48q-21 -16 -39 -26 q-25 -16 -49 -23q-21 -6 -49 -10q-32 -2 -59 2q-21 2 -41 8q-23 5 -44 11q-30 10 -55 31q-21 17 -41 41q-19 23 -30 45q-13 23 -23 49q-11 28 -13 59q-2 13 0 25q-2 6 -2 12l-2 19q-2 22 0 49q2 20 2 42l4 46q3 28 13 59q8 28 19 55q8 25 20 48q-28 8 -54 24q-36 25 -61 57 q-28 37 -35 72zM364 66q0 -11 4 -21q4 -13 10 -22q9 -13 19 -27q8 -11 15 -17q2 -2 5 -2q15 -4 31 -7q17 -4 31 -7q6 -2 18 0q15 3 21 5q6 0 12 4q10 8 25 18l8 8q2 6 6 15q2 10 4 15v23q0 13 -1 22.5t-5 24.5q-2 11 -8 21t-13 19q-6 6 -12 11q-11 6 -20 13l-4 2 q-17 2 -31 6l-22 2h-9q-14 -6 -27 -10q-6 -2 -20 -9l-8 -8q-10 -15 -19 -32q-8 -15 -10 -25q-2 -11 0 -22z" />
<glyph unicode="&#xe25;" horiz-adv-x="1168" d="M106 711q-4 33 17 57l10 12q11 15 22 29q15 18 32 36.5t38 37.5q23 20 39 30t37 23q23 12 45 23q21 10 43 18q25 10 43 16q21 6 42 11q25 2 44 2h39q25 0 41 -2h29q25 -2 51 -9q21 -4 38 -10t40.5 -16t40.5 -19q21 -10 41 -25q14 -12 30 -24q16 -14 31 -27q21 -14 43 -40 q19 -21 34 -39q19 -23 34 -48q16 -27 26 -53q8 -25 14 -45q5 -17 9 -43q6 -27 8 -53q4 -28 4 -53v-31v-33v-30v-9.5v-15v-15.5q0 -27 -2 -43v-33.5v-38.5q0 -20 -2 -51q0 -28 -1 -50.5t-3 -45.5q0 -23 -4 -45q-2 -20 -3 -38.5t-4 -48.5q-2 -30 -6 -55q-4 -39 -24 -70 q-4 -7 -25 -17t-46.5 -15.5t-50 6t-34.5 45.5q-4 19 -7 36q-2 17 -3 36q-2 19 -4 35q-2 17 -2 37q-2 19 -4 39q-2 19 -4 41q-2 21 -7 39q-4 19 -6 35q-4 16 -6 30q-2 13 -6 23q-5 17 -13 39l-9.5 28.5t-8.5 20.5q-6 12 -12 23q-4 8 -19 27q-10 14 -20 22t-18 12 q-11 6 -23 11q-17 6 -33 12q-14 4 -26 7q-10 5 -27 7q-21 4 -37 4q-14 2 -27.5 1t-27.5 -1q-12 -2 -25 -6q-17 -5 -30 -9q-15 -4 -38 -13q-21 -9 -28 -15q-10 -8 -20.5 -17.5t-17.5 -21.5q-9 -8 -13 -16h4q27 2 49 0l15 -2q9 0 20 -4q10 0 21 -3l14 -6q19 -4 39 -13 q23 -11 43 -25q25 -17 44 -39q17 -19 29.5 -38t22.5 -42q14 -33 16 -68q0 -27 -4 -50t-10 -46q-9 -23 -20 -43q-15 -23 -32 -41q-14 -14 -24 -27q-20 -23 -45 -34q-25 -15 -54 -21q-30 -6 -57 -4q-15 0 -32 2q-29 0 -58 10q-23 9 -42 20t-39 29q-25 19 -45.5 45.5 t-30.5 48.5q-11 19 -19 46q-8 30 -8 56q-5 15 -4 28v14v24q0 17 2 38q0 21 4 43t8 40q6 21 15 49q10 27 18 47q9 19 20 40q13 19 27 36q17 21 35.5 39.5t37.5 32.5q23 17 58 31q30 12 52 18q19 7 39 13q22 6 44 7q21 2 42.5 3t43.5 -1q21 -2 48 -5q28 -4 49 -10 q19 -7 34 -13q17 -4 33 -10q21 -9 41 -19q23 -13 45 -30q25 -21 47 -49q21 -27 32 -45q0 -2 3 -9v9v6v26v27v37q0 16 -2 34q-5 23 -8 44q-4 21 -6 34q-4 13 -8 29q-4 12 -13 25l-20 28q-14 16 -33 37q-15 17 -24 24q-15 11 -31 25q-15 11 -26 21q-11 9 -19 12 q-11 6 -28 13.5t-29.5 11.5t-27.5 6q-10 4 -19 4q-19 0 -34 2h-34h-35h-19q-12 -2 -25 -6q-10 -2 -26 -10q-20 -9 -38 -17q-15 -6 -32 -16q-18 -10 -28 -16q-8 -7 -21 -19q-16 -13 -28 -24q-12 -15 -23 -27q-12 -17 -23 -31l-9 -12q-21 -27 -54 -30t-57.5 16.5t-28.5 52.5z M297 88q0 -7 2 -16q4 -17 8 -25q4 -6 14.5 -19t20.5 -22q10 -8 18 -12l18 -9q7 -2 13 -4q19 0 34 -2q5 0 13 2t12 4q3 2 7 5q10 12 24 27q6 8 12 17q4 7 6 13q3 8 5 18.5t2 22.5q0 2 -2 8q-9 13 -14 23t-16 19q-4 6 -11 11q-10 9 -21 13q-12 4 -21 8l-13 4q-2 0 -7 2h-4 l-16 2h-19l-12 -6t-18 -12q-13 -13 -21 -26q-9 -17 -11.5 -28.5t-2.5 -17.5z" />
<glyph unicode="&#xe26;" horiz-adv-x="1414" d="M103 59.5q-1 26.5 3 53.5t15 53q12 28 32 55q21 28 49 49q21 15 42 29q30 19 69 27q34 4 61 2l15 -2q4 0 12 -3q19 0 35 -4q14 -4 29 -8v4q8 32 28 76q15 35 32 60q-5 2 -9 2q-32 12 -61 32q-39 27 -60 68q-14 30 -19 62q-6 32 2 79q9 43 21 70q13 25 29 47q14 21 33 39 q19 17 32 28q19 17 47 34q27 17 51 28q23 10 46 19q27 10 51 13q21 7 45 11t47 6q25 2 62 2q36 0 59 -2q25 -2 45 -8q19 -4 37 -11q14 -6 31 -11q19 -9 43 -19q30 -12 49 -25q18 -10 40 -30q27 -23 56 -58q23 -30 35 -51q13 -21 20 -40q10 -21 17 -44q4 -19 8 -35 q6 -21 12.5 -51t8 -53t3.5 -47q0 -23 1 -47.5t3 -48.5q2 -25 2 -62v-61v-53v-56q-2 -30 -4 -72q-2 -40 -2 -67q0 -33 -2 -54v-53q-2 -25 -2 -49q-2 -27 -3 -59q-2 -33 -2 -54v-38q0 -19 -3 -39q0 -16 -2 -44q-2 -22 -2 -36q-2 -17 -2 -28v-32q0 -25 -2 -44q0 -21 -2 -37v-19 q-2 -30 -25.5 -53t-55.5 -21t-54 25.5t-20 57.5v15q2 19 2 38q2 19 2 38v39q0 15 1 29.5t2 40.5q2 23 2 39q2 16 2 31v41q0 23 2 59q2 34 4 59q0 23 1 47.5t4 48.5v54q0 28 2 72q2 40 4 70v55v49v59q0 33 -2 56q-2 25 -3 50t-1 48q-3 21 -4 36t-6 40.5t-8 40.5q-4 18 -11 34 q-2 13 -7 24t-11 21q-7 12 -25 37q-19 23 -31 33q-16 14 -24 19q-8 4 -27 12q-23 10 -38 16q-17 6 -32 10q-10 4 -20 9q-10 2 -23 4h-40q-31 0 -49 -2q-19 -2 -37.5 -5.5t-34.5 -7.5q-17 -2 -31 -8q-18 -7 -35 -14q-17 -8 -34 -21q-19 -10 -30 -18q-10 -9 -22 -20 q-10 -11 -18 -21q-7 -11 -13 -21q-4 -10 -8 -32l-2 -27q2 -11 6 -20q2 -2 6 -4q13 -11 27 -15q19 -8 47 -15l5 -2q74 -19 85 -81q6 -43 -20 -85q-10 -18 -25 -40q-12 -19 -26 -49q-14 -31 -19 -49q-4 -17 -4 -35q0 -23 2 -44q0 -21 4 -38l7 -24q2 -13 0 -25q4 -19 4 -37 q2 -21 2 -44q-2 -23 -6 -45q-7 -28 -19 -53q-15 -25 -39 -49q-21 -19 -39 -30q-19 -13 -45 -23q-28 -12 -53 -17q-21 -4 -43 -4q-23 2 -49 9q-21 4 -41 10q-27 8 -48 19q-17 8 -38 22q-28 18 -50 41q-25 29 -36 58q-13 23 -17 43t-5 46.5zM257 64q0 -11 3 -15q2 -6 6 -17 q2 -6 10 -13q9 -11 19 -17q17 -10 26 -15q8 -4 19 -8q19 -4 34 -7q11 -2 17 -4q8 0 15 2q6 0 15 5q13 4 21 10q8 5 19 15q6 4 6 8q3 5 3 11l4 24v21l-4 24q-2 14 -5 25l-8 16q-2 2 -4 5q-11 10 -23 17q-11 7 -20 15h-4q-9 2 -13 2h-12q-14 0 -29 4h-12q-8 -2 -13 -4 q-16 -10 -32 -23q-10 -8 -17 -16q-8 -12 -12 -23q-4 -10 -6 -20q-3 -11 -3 -22z" />
<glyph unicode="&#xe27;" horiz-adv-x="1002" d="M108 682l4 16q5 21 11 42q8 25 20 45q10 18 23 38q16 21 32 39q19 16 46 37q27 19 49 33q25 16 51 27q23 10 39 13q18 9 51 13q30 4 63 4q31 0 52 -2q27 -2 49 -6q25 -7 49 -16q23 -8 51 -21q34 -16 61 -36.5t45 -41.5q15 -17 27 -34q17 -23 28 -54q9 -23 17 -45 q6 -20 11 -42q8 -25 12 -54q2 -22 4 -38t2 -36q2 -20 2 -37v-111q0 -19 -2 -34q0 -15 -4 -43q-2 -17 -2 -25q0 -21 -1 -45l-2 -48t-3 -42t-4 -37t-7 -39q2 -10 2 -22q3 -30 -2 -59q-6 -28 -18 -58q-9 -18 -18 -39q-17 -28 -40 -53q-27 -29 -59 -43q-19 -6 -41 -13 q-27 -10 -57.5 -11.5t-61.5 3.5q-30 4 -55 15q-21 8 -45 20q-32 17 -55 37q-23 23 -39 49q-15 23 -25 47q-12 30 -14 68q-2 32 3 61q2 35 17 72q15 33 25 49q11 19 33 43q25 28 49 43q23 10 65.5 20.5t74.5 8.5h21q19 -2 38 -12q19 -5 41 -13q12 -4 23 -10v14q1 23 3 40 q2 23 2 32q2 11 2 24v111q0 12 -2 29q0 15 -2 25q0 17 -3 37q-2 18 -7 34q-4 19 -10 38q-6 16 -13 34q-6 13 -10 19q-8 10 -16 22q-6 8 -21.5 18.5t-33.5 20.5q-25 11 -44 18l-24 8q-12 3 -25 3q-19 2 -45 2q-23 0 -40 -2q-17 -5 -21 -5q-13 -4 -31 -12q-14 -6 -31 -16 q-16 -10 -36 -25q-19 -12 -27 -23q-9 -8 -14 -18q-8 -12 -17 -25q-4 -8 -8 -17q-4 -13 -6 -25l-4 -17q-7 -30 -34.5 -49t-58 -11.5t-48 35t-11.5 58.5zM510 53q0 -12 2 -19q6 -12 14 -24q4 -10 12 -16q6 -7 19 -13q19 -8 32 -13q11 -5 25 -7q13 -2 25 -1t22 3q17 7 29 10 l4 4q8 8 12 17q8 19 17 34q4 9 6 19t0 23q-6 17 -4 34q0 5 -2 9q-6 12 -13 23q-4 6 -12 13q-11 9 -18 15q-6 4 -15 6q-10 4 -17.5 5t-12.5 3h-14q-13 0 -26 5q-6 0 -14 -3q-17 -4 -24 -6q-4 -4 -8 -10q-13 -13 -18 -20.5t-13 -28.5q-6 -15 -8 -27q-2 -19 0 -35z" />
<glyph unicode="&#xe28;" horiz-adv-x="1369" d="M102 453v49q0 30 2 49q2 17 6 38q5 19 9 34q4 21 16 53q15 32 29 55q12 23 24 39.5t29 38.5q21 25 49 49q27 23 51 39q27 21 49 31q12 6 37 20q29 15 67 22q28 7 46 11q21 4 43 6q23 2 54.5 2t51.5 -2q19 -2 35.5 -5t33.5 -8t46 -13q28 -8 47 -17q15 -6 37 -14 q30 -13 49 -22q12 -9 27 -17q19 -13 34 -25l6 -6q13 18 36 53q19 28 26 46q10 16 17 32q10 23 16 37t14 35.5t12 31.5q3 13 9 34l6 20q11 30 38.5 45.5t58 6t46 -37.5t6.5 -59l-6 -21q-6 -21 -10 -32q-5 -17 -13.5 -42.5t-19.5 -43.5q0 -4 -6 -16.5t-8 -20.5 q-11 -21 -22 -43q-13 -23 -36 -58q-21 -32 -32 -51q-15 -21 -27 -38v-2q12 -23 21 -36q10 -21 25 -59q12 -39 13 -58l7 -28q2 -17 6 -36q2 -19 4 -48q2 -28 4 -45q2 -23 0 -51v-43v-35q0 -18 -1 -45t-3 -43v-35q-2 -21 -2 -35v-28t-2 -33v-48q0 -28 -2 -45q0 -20 -4 -38 q-3 -17 -3 -27q0 -15 -2 -31l-2 -12q-4 -32 -29.5 -51.5t-57.5 -16t-52 29t-16 57.5l2 14q2 13 2 22q2 15 4 34q2 14 2 28q2 14 2 40v46q2 23 2 37v26q0 15 2 37q0 23 3 41q0 15 1 37.5t1 38.5v35v45q2 23 0 38q-2 17 -5 44q-2 25 -4 40t-4 28t-4 28q-2 8 -13 37 q-4 14 -8 27q-6 -7 -11 -13l-19 -19q-23 -23 -55.5 -23.5t-55.5 22t-24 55.5t22 55l19 19q17 16 30 29q-10 8 -20 13q-14 9 -25 17q-8 4 -25 11q-25 8 -40 16q-13 4 -33 10q-25 8 -38 11t-25.5 6.5t-26.5 3.5q-11 2 -33.5 2h-35.5q-15 -2 -27 -7q-17 -2 -45 -8 q-19 -6 -32 -10q-20 -13 -36 -18q-13 -6 -28 -19q-21 -15 -42 -32q-19 -15 -28 -30q-13 -16 -22 -29t-19 -30q-8 -15 -19 -34q-6 -19 -8 -28q-4 -12 -7 -28t-3 -29q-3 -10 -3 -32v-41q0 -21 3 -37v-29v-25q2 -14 4 -38q4 -29 6 -45l4 -34q2 -20 4 -36q2 4 3 12.5t1 10.5 q3 17 7 34q4 21 10 43q6 21 12 40q6 14 12 32q9 21 17 43q10 25 24 45q2 8 6 14q13 25 29 45q19 23 49 46q31 21 56 32q28 13 61 17q35 6 62 0h4q12 0 24 -2l12 -4q25 -8 47 -21q17 -10 35 -24q23 -17 39 -35q17 -17 29 -33q14 -21 24.5 -44.5t16.5 -43.5q5 -23 4 -50 q0 -25 -3 -44q-2 -21 -9 -45q-10 -27 -29 -51q-15 -19 -37 -39q-25 -21 -47 -35q-23 -13 -45 -19q-20 -6 -43 -8q-19 0 -45 2.5t-47 7.5q-23 4 -45 14q-27 9 -47 23q-17 9 -31 20v-11q-2 -17 -4 -36q0 -18 -1 -32.5t-6 -40.5v-16q-2 -15 -2 -28q0 -14 -2 -32q-2 -19 -4 -36 q-2 -15 -3 -30q-2 -16 -6 -32q-5 -28 -27 -49t-45 -27q-29 -8 -60.5 1t-50.5 33q-17 23 -30 64q-13 30 -21 61q-6 26 -11 40q-8 19 -12 37q-4 16 -8 36.5t-8 46.5q-6 28 -8 47q-2 17 -4 36q-4 20 -6 38q-3 17 -5 43q-4 27 -4 44q-2 21 -2 36v31q-2 12 -2 31zM504 387 q0 -4 2 -15.5t4 -16.5q4 -9 10 -23q5 -4 8 -9q6 -8 16 -12q11 -6 23 -10q13 -6 24 -8q13 -4 27 -4q15 -2 22 -2q2 0 7 2q6 2 14 6q9 4 19 14q12 10 20 19q2 4 2 6q2 8 4 14v20q0 13 -2 21q0 6 -4 14.5t-8 13.5q-6 9 -16 19q-9 8 -19 17l-24 16l-8 4q-9 0 -15 2l-12 2 q-5 0 -11 -2q-12 -2 -20 -4q-10 -7 -29 -18q-14 -11 -18 -15l-4 -8q-2 -11 -8 -20q-4 -15 -4 -23z" />
<glyph unicode="&#xe29;" horiz-adv-x="1544" d="M102 702q0 27 4 53q4 29 17 58q10 27 26 51q15 25 35 46q19 19 38.5 34t37.5 25q28 15 61 18q21 2 43 2q27 2 51 -2l19 -4q8 0 19 -4q6 -2 12 -5l12 -5q18 -8 37 -19q17 -10 32 -22q25 -19 43 -45q17 -23 27 -41q11 -21 17 -45q6 -21 7 -44q2 -4 2 -6q11 -21 9 -41 l-2 -26q-2 -25 -2 -49q-2 -25 -3.5 -52.5t-3.5 -53.5q-2 -27 -3 -64q-2 -43 -2 -68q-2 -23 -2 -44v-40v-39v-36v-34v-36v-37q-2 -16 -2 -37v-35q2 -23 2 -34t2 -19h5q23 -2 40 -4h32q19 -2 34 0q16 0 30 2h34h32q12 0 34 -2h36h32q10 0 30 2q25 2 44 2q19 2 37 2h24 q4 11 8 21q6 19 10 32q2 21 7 39q2 19 4 37t4 41q0 17 2 41q-34 -6 -72 -6q-57 0 -92 6l-31 4q-19 2 -35 15q-2 0 -4 2q-14 4 -36 12q-28 11 -60 33q-30 25 -49 49q-23 28 -31 72q-8 36 -4 71q2 32 17 59q10 25 34 51q25 27 55 46q33 19 68 25.5t76 0.5q35 -6 64 -20l20 -8 q18 -8 31 -21l14 -14q18 -19 33 -37q4 -4 6 -8v2v36v34q-2 25 -2 40v35v37v29q-2 16 -2 28.5t-2 26.5q-2 21 -2 42l2 11q2 32 25.5 54t55.5 21t53 -25.5t21 -55.5l-2 -14q0 -8 2 -19q0 -14 2 -28q0 -12 3 -33v-39v-35v-35v-34q2 -23 2 -38v-40v-35q0 -16 2 -35v-26q2 4 6 6 l39 26q27 19 58.5 12.5t50 -32t12 -57t-30.5 -49.5l-39 -29q-43 -29 -100 -58q0 -19 -3 -45q-2 -36 -2 -59q-2 -27 -4 -49.5t-6 -44.5q-4 -21 -6 -42q-7 -27 -16 -57q-10 -30 -25 -55q-23 -41 -62 -57q-27 -10 -57 -12h-36q-15 0 -30 -2q-16 0 -38 -2q-27 -3 -43 -3h-32 q-17 0 -40.5 1.5t-36.5 1.5h-25h-24q-10 -3 -33 -3q-21 -2 -47 0q-25 0 -41 3q-12 0 -32 2q-32 0 -59 10q-37 13 -64 43t-29 73q-2 19 -4 40q0 18 -3 34v47q0 21 3 37v35v34v34v33.5v39.5v46.5t2 50.5q2 23 2 61v8q-19 -9 -43 -14q-28 -4 -57 -2q-25 0 -54 6q-27 6 -47 10 q-30 8 -59 25q-27 16 -51 40q-25 27 -39 54q-12 25 -21 53q-8 28 -8 57zM257 706q0 -10 5 -20q2 -12 8 -22q4 -7 12 -17q11 -11 21 -16q7 -4 14 -6q17 -4 42 -8q20 -5 32 -7q8 0 17 2q10 3 17 5q7 4 19 10q9 6 15 12q8 10 18 25q4 8 6 16q4 17 6 28q0 11 -2 21q-2 17 -4 28 q-2 9 -6 15q-5 8 -12 19q-6 8 -10 12q-13 9 -23 14q-9 6 -17 8l-12 7l-12 2q-10 2 -23 0q-15 0 -30 -2h-2q-11 -7 -21.5 -14t-17.5 -15q-8 -10 -17 -23q-10 -14 -14 -27q-4 -10 -6 -20q-3 -14 -3 -27zM854 455q0 -8 2 -23q2 -6 3 -10q5 -7 18.5 -17t19.5 -12q17 -6 28 -8 q9 -4 19 -6h4t8 4q3 2 7 6q8 11 11 17q6 17 13 30q2 6 4 13q0 4 -2 8v4q-11 13 -20 22l-2 2l-19 8q-10 5 -25 9q-12 2 -20 0t-16 -6q-11 -7 -19 -17q-11 -11 -12 -16q-2 -2 -2 -8z" />
<glyph unicode="&#xe2a;" horiz-adv-x="1281" d="M107 754q-5 33 16 57l12 16q15 19 31 37q16 19 33.5 32.5t40.5 28.5q23 17 45 28q23 10 44 16q15 6 35 12q25 8 44 14q21 7 42 13q29 6 54 8h34q15 -2 29 -2q19 -2 60 -10q36 -7 59 -13q25 -6 47 -12q21 -9 41 -18q27 -11 51 -27q23 -15 43 -33q40 43 72 82q47 57 76 95 l30 38q19 25 52 29t57.5 -15.5t28.5 -52.5t-15 -57l-31 -39q-30 -39 -77 -96q-43 -53 -98 -109q8 -14 15 -32q13 -25 19 -46q4 -17 13 -37q6 -25 14 -61q9 -37 8 -66q2 -25 2 -55t-2 -45q0 -10 2 -28v-36q0 -18 -2 -34q0 -17 -1 -39.5t-4 -38.5q-2 -13 -2 -26v-37.5 t-0.5 -36t-0.5 -31.5q-2 -10 -2 -21v-42v-56q-2 -23 -4 -51q-2 -27 -8 -45q-2 -2 -2 -5v-5q-7 -32 -15 -55q-8 -19 -46 -26.5t-73.5 6t-35.5 46.5q-3 10 -5 25q-2 19 -2 32q-2 6 -2 11q-2 18 -4 32t-4 29q-2 19 -4 35q-2 14 -5 31q-2 16 -6 41q-6 27 -7 36q-4 13 -8 29 q-7 17 -13 41q-8 23 -17 43q-8 21 -13.5 33.5t-18.5 27.5q-12 17 -21 29q-8 11 -22 24q-6 9 -12 11q-11 6 -21 12q-15 7 -37 17q-21 11 -35 16h-3q-15 2 -32 2q-10 2 -21 0q-15 0 -30 -4q-21 -2 -36 -4q-11 -3 -21 -5q-10 -4 -21 -7l-30 -15q-13 -6 -28 -14 q-11 -6 -23.5 -17t-16.5 -16q-6 -8 -10 -16q8 2 18 4q29 8 51 8h15q17 0 32 -8l11 -2q21 -6 41 -15q25 -10 45 -26q19 -14 35.5 -31.5t29.5 -36.5q17 -23 29 -55q11 -27 13 -51q4 -25 4 -47q-2 -25 -8 -53q-7 -33 -23 -62q-15 -25 -37 -47q-23 -25 -47 -40t-48 -25 q-30 -13 -58 -15q-23 -2 -50 2q-27 2 -49 10q-23 9 -49 20q-28 15 -49.5 32.5t-38.5 35.5q-15 21 -29 45q-17 28 -24 55q-6 25 -6 60v12q-2 4 -2 11l-3 25q-2 32 0 55q0 17 3 32q2 23 10 54q6 25 14 49q8 25 16 42q6 17 15 34q10 19 23 34q14 21 38 42.5t51 38.5 q23 12 43 19q17 9 32 15q18 8 38 12q21 7 41 11q14 2 33 4q23 4 43 5q25 2 45 0q19 0 34 -2q31 -4 56 -13q12 -7 35.5 -18.5t36.5 -17.5q16 -6 30 -13q23 -13 50 -40q19 -21 30 -37q13 -14 27 -34q13 -17 22 -33v25q-2 21 -2 36q2 13 2 43q0 27 -2 45q0 17 -6 44 q-4 28 -11 45q-6 22 -11 36q-2 6 -4 15q-2 0 -2 -2q-29 -19 -47 -31l-19 -12q-27 -19 -58.5 -11.5t-49 33t-11.5 57t33 49.5l18 13q19 12 45 31q-6 6 -11 10q-17 11 -32 16q-16 8 -30 13q-13 4 -29 8q-21 4 -56 12q-30 7 -38 6q-13 0 -25 2h-22q-8 0 -21 -3q-21 -5 -34 -11 q-19 -4 -40 -12q-23 -9 -41 -13q-10 -4 -22 -10q-12 -5 -27 -14q-16 -12 -26 -21q-10 -8 -21 -19q-10 -12 -21 -24l-11 -16q-19 -25 -52 -30t-57.5 14.5t-29.5 52.5zM272 90q0 -13 2 -20q0 -6 6 -17q9 -14 17 -23q6 -8 14 -14t23 -14q16 -8 28 -12q10 -3 19.5 -5t17.5 0 q4 0 13 2q10 5 20 12t21 18q10 12 14 20q4 6 5 14q5 15 5 25q0 11 -3 20q-2 10 -5 23q-2 10 -6 15q-8 10 -19 19q-8 11 -19 17q-4 4 -10 6l-14 7l-14 2q-4 2 -11 4l-12 -4q-19 -5 -39 -11q-12 -4 -21 -8q-10 -6 -17 -17q-5 -4 -7 -10q-4 -9 -6 -18q-2 -15 -2 -31z" />
<glyph unicode="&#xe2b;" horiz-adv-x="1353" d="M106 760q2 32 15 61q10 23 26 45q17 25 39 46q23 23 45 34q21 13 49 21q25 11 43 14q17 2 34 6q22 2 51 0q32 -2 57 -15l12 -5q16 -6 27 -21q16 -10 30 -21q17 -14 35 -32q19 -21 33 -43q10 -21 21 -44q12 -30 12 -60q2 -19 2 -36q0 -2 -2 -6q2 -2 2 -4v-30q0 -33 -2 -64 v-53q0 -23 2 -57v-79q2 -45 1 -71q0 -20 2 -53v-6q17 23 34 43q25 28 57 61q32 35 53 51q19 17 39 33q21 16 43 29l16 12q-18 15 -44 35q-33 28 -60 64t-36 59q-11 28 -9 64q0 30 9 53q6 27 28 59q21 28 42 51q21 19 42 31q15 8 30 18q23 11 47 17q23 6 49 7q37 7 68 -2 q21 -4 47 -13q35 -13 66 -38q32 -25 53 -55q17 -27 28 -60.5t11 -63.5q2 -27 0 -50q-2 -28 -14 -61q-12 -28 -29 -59q-23 -39 -51 -62q-4 -2 -6 -4q2 -6 6 -8q19 -31 32 -72q11 -33 13 -49q2 -13 6 -24q2 -15 6 -36q6 -21 9 -34q2 -19 4 -39q2 -19 2 -37v-35v-33 q0 -17 2 -37v-38q2 -21 0 -43q0 -23 -1 -39t-1 -31q-2 -10 -2 -25v-16q0 -30 -23.5 -53t-55.5 -23t-54.5 23.5t-22.5 54.5v16q0 19 2 35q0 15 2 29v33q3 19 1.5 33t-1.5 38q-2 23 -2 43v33v28q0 19 -2 36q0 10 -2 18q-2 12 -6 31t-6 32q-4 15 -7 29q-2 11 -10 35 q-6 19 -12 29q-5 4 -8 9q-14 -8 -33 -19q-21 -15 -41 -28q-17 -10 -31 -21q-17 -13 -33 -28q-14 -10 -42 -40q-29 -31 -49 -53q-19 -23 -36 -45q-16 -25 -31.5 -52t-33.5 -65q-16 -37 -25 -58q-8 -25 -12 -42q-4 -19 -10 -44q-154 -109 -160 0q-2 21 -2 42q2 16 2 31.5v34.5 t-2 40v41v32q0 19 2 49v48v47q-2 23 -2 53t-1 72.5t-1 76.5v2q-2 0 -4 -2q-25 -6 -45 -8q-23 -2 -47 -2q-27 0 -58.5 6t-56.5 17q-25 8 -46.5 22t-43.5 33q-25 23 -39 49q-11 21 -20 45.5t-13 46.5q-6 27 -2 60zM260 729q2 -10 7 -22.5l9 -22.5q4 -4 11 -10q10 -10 19 -16.5 t21 -10.5q11 -4 29 -7t31 -3h27q8 3 20 4q6 2 15.5 8t15.5 15q6 8 9 14t3 14q2 12 4 21q0 12 -2 29v5q-7 13 -12 23q-4 8 -12 19q-11 10 -19 15q-6 5 -13 9l-13 6q-11 6 -19 15h-10q-13 -2 -22 -5q-11 -4 -30 -10q-14 -4 -20 -8q-7 -5 -18 -14q-11 -8 -15 -19 q-8 -10 -12 -21q-2 -6 -4 -13v-15zM889 729q4 -8 14 -21q17 -23 35 -38q25 -19 36 -29q17 -11 28.5 -17.5t22.5 -13.5l2 -2q21 13 34 23q6 4 14 18q13 21 18 37q4 13 4 18q2 13 0 29q0 11 -4 25t-10 24q-7 7 -16 17q-12 8 -25 12q-19 8 -30 10q-4 2 -13 0q-16 -2 -29 -4 q-8 -2 -14 -6q-10 -7 -20 -12q-9 -4 -19 -12q-9 -9 -18 -25q-6 -11 -10 -15v-14v-4z" />
<glyph unicode="&#xe2c;" horiz-adv-x="1731" d="M102 715q0 25 2 47q4 23 15.5 49.5t27.5 50.5q17 25 39 46q23 25 41 36q30 21 76 26q31 7 59 7t55 -7l19 -3q14 -2 31 -10l2 -2q25 -7 47 -21q17 -11 37 -26q21 -17 38 -40q17 -19 30 -36q16 -28 21 -56q7 -23 11 -49v-19q6 -14 4 -30l-8 -97q-4 -43 -7 -71 q-2 -28 -2 -55q-2 -23 -2 -60v-59v-55v-37q0 -19 2 -39q0 -26 2 -39v-37q0 -12 3 -33q0 -23 3 -38t5 -30q2 -10 9.5 -25.5t17.5 -27.5q6 -8 8 -12h2q17 3 22 5q7 4 15 9q10 10 22 29q17 23 27 43q10 21 19 34q8 21 13 38q7 15 15 37t12 35q3 13 7 26q4 15 8 39q6 23 9 41 q7 23 41 39.5t72 10t48 -39.5q11 -27 12 -51q2 -17 2 -35q0 -10 4 -30q2 -21 4 -33q2 -13 8 -29q2 -16 11 -35q8 -21 14 -32q7 -15 14 -32q8 -14 15 -22q8 -10 18 -20q9 -9 22 -20q15 -9 29 -17q11 -4 17 -6h3q7 4 17 10q17 11 27 20q8 10 12 16.5t6 12.5q2 15 6 43 q6 30 11 57q2 21 6 56q4 34 4 55q2 21 4 47q2 23 4 55q0 31 2 51v58q2 27 2 43v39v43v43q0 28 3 37q0 25 2 43v8q-15 -2 -30 -2h-38q-21 2 -51 7q-37 4 -64 11q-32 13 -66 44q-27 25 -42 45q-15 18 -25 34q-13 23 -23 54t-10 54.5t9 53.5q6 28 24 61t39 56q21 21 41 33 q19 13 47 22q32 13 55 15q19 2 35 2q18 0 47 -4q32 -7 61 -21q28 -15 57 -37q35 -28 52 -55q10 -21 18 -47q7 -23 13 -47q2 -10 4 -21l4 8q15 23 20 35l8 14q15 29 46 38t59.5 -6t37.5 -45.5t-5 -60.5l-8 -13q-9 -15 -23 -42q-21 -32 -43 -55q-21 -23 -39 -35 q-14 -12 -35 -23q-8 -6 -18 -11v-21q-2 -21 -2 -31q0 -17 -2 -35v-28q-2 -21 -2 -37v-41v-45v-37q0 -19 -2 -45v-58q-2 -25 -2 -57q-2 -35 -4 -60t-5 -44q-2 -23 -4 -62q-4 -36 -8 -63q-4 -23 -8 -55q-7 -39 -12 -59q-6 -27 -19.5 -50.5t-37.5 -48.5q-23 -23 -54 -43 q-32 -21 -55 -28q-28 -9 -61 -5q-33 3 -70 18q-28 15 -56 34q-25 18 -42 38q-15 15 -30 31q-12 19 -26 43q-12 21 -20 39q-3 4 -5 10q-6 -14 -14 -29q-15 -28 -37 -59q-25 -37 -51 -59q-27 -23 -51 -33q-25 -11 -55 -17q-45 -8 -81 4q-23 9 -45 27q-25 17 -44 47 q-17 23 -30 52t-19 51q-5 23 -9 47q-2 22 -4 49t-2 43v29q-2 18 -2 40q-2 25 -2 46v37v51v68q0 28 2 57v8q-25 -10 -51 -14q-33 -4 -60 -2q-25 2 -47 8l-36 12l-34 14q-36 13 -64 43q-19 19 -34 33q-18 21 -30 45q-14 27 -21 60q-4 27 -6 51zM257 721q0 -13 5 -29 q2 -11 4 -14q2 -6 8 -14l29 -29q7 -4 8 -6q21 -8 39 -14q11 -7 20 -9q6 -2 17 -2q8 -2 25 0q8 2 16 6q16 11 31 19q8 6 18 16q6 6 8 12q6 13 10 21q0 6 1 14t1 21q-2 14 -4 25q-2 4 -6 9q-7 13 -17 23q-6 10 -13 17q-13 10 -21 14q-6 4 -11 3l-11 5q-11 2 -19 8h-6 q-13 4 -27 4q-17 0 -39 -4q-4 0 -8 -2q-8 -4 -18 -16q-15 -14 -23 -25q-6 -10 -10 -21q-4 -12 -7 -17v-15zM1106 936q2 -6 4 -15q4 -12 6 -15q6 -11 15 -23q8 -9 24 -25q8 -9 14 -10q11 -4 28 -6q25 -2 40 -4h32q9 0 25 6h7v14v39q-2 17 -4 31q-5 18 -11 35q-2 10 -6 18 q-4 4 -11 8q-16 15 -28 21q-10 4 -21 6q-14 2 -20 2h-18q-4 -2 -15 -6q-14 -6 -23 -10q-4 -3 -11 -11q-6 -6 -13 -19q-8 -16 -12 -26q-2 -6 -2 -10z" />
<glyph unicode="&#xe2d;" horiz-adv-x="1138" d="M102 207v35v32q0 19 2 39l2 17v6q0 8 2 17q0 14 4 28q3 16 7 33q6 25 26 57q21 38 53 63q27 19 50 29q21 13 49 18q27 6 60 6q32 0 53 -4l13 -3q13 -2 25 -10l7 -2q16 -9 34 -17q23 -15 45 -37q23 -23 35 -45q11 -18 18.5 -40.5t12.5 -45.5q6 -23 4 -51q0 -23 -4 -53 q-7 -35 -24 -66q-19 -35 -44 -55q-17 -15 -33 -27q-27 -18 -55 -27q-23 -6 -53 -6q-27 0 -51.5 3t-50.5 10q-13 2 -25 8q0 -13 2 -25q2 -11 8 -24q4 -8 11 -15l10 -10q10 -6 26 -15q19 -10 38 -17q12 -7 28 -11q19 -6 36 -10q17 -5 40 -9t41 -6q23 -2 42 -2q17 -2 43 0 q31 2 40 2q17 2 38 4q21 0 35 2q15 2 35 7q21 2 37 6q8 2 19 8q6 2 15 13q13 12 21 22q4 8 13 25q8 18 14 42q7 31 10 43q2 13 4 25q2 13 4 35q4 27 6 45q0 16 2 27v26q-2 16 -2 35v28q0 15 -2 27q-2 15 -2 31q-2 12 -4 33q-2 25 -4 43v21q-2 14 -4 30.5t-6 36.5t-6 37 q-2 8 -6 22q-6 17 -13 29q-8 17 -14 28q-2 7 -11 17q-10 11 -24 22q-16 15 -30.5 23t-24.5 12q-10 7 -23 13q-17 4 -30 11q-13 5 -29 11q-13 4 -26 6q-17 4 -32 4q-16 2 -26 2t-25 -2q-17 -2 -30 -4t-29 -6q-13 -4 -31 -8q-10 -3 -25 -8q-14 -4 -24 -10q-16 -11 -35 -23 q-15 -8 -26 -21q-13 -8 -21 -18q-10 -12 -22 -31l-15 -20q-18 -27 -50 -33t-58.5 12.5t-31.5 50.5t11 58l17 21q16 25 30 42q17 21 40 39q20 17 42 31q21 15 41 24q23 15 47 23q25 11 44 15q12 2 30 8q21 4 39 8q18 2 39 4q23 4 41.5 4t40.5 -2q23 -2 47 -6q25 -5 49 -12 q21 -8 37 -15q15 -6 28 -12q15 -6 32 -13q18 -8 40.5 -22t46.5 -35q27 -23 47 -45q19 -25 30 -47q8 -12 15 -29q9 -21 17 -45q10 -25 14 -47q3 -16 7 -36q4 -23 6 -43q2 -19 4 -36q2 -16 2 -32q2 -10 3 -29q3 -23 5 -39q0 -16 2 -30q0 -15 2 -29v-39q0 -16 2 -31v-32 q-2 -19 -4 -41q-2 -19 -4.5 -45.5t-5.5 -45.5q-2 -17 -6 -32t-13 -47q-8 -35 -20 -66q-15 -30 -29 -51t-37 -43q-27 -28 -57 -44q-28 -14 -54 -19q-21 -5 -45 -9q-25 -4 -42 -6q-21 -2 -45 -4q-19 0 -29 -2q-15 -2 -49 -4q-37 -3 -62 0q-21 2 -43 4q-28 2 -57 6 q-28 6 -51 10q-21 7 -43 13q-25 8 -49 18q-19 8 -40 18q-25 13 -40 23q-23 15 -43 39q-25 25 -39 57q-12 31 -16 58q-5 21 -7 40t-2 35q-2 6 -2 17.5v13.5q-2 19 -2 35zM262 336q0 -8 2 -25v-6q10 -13 21 -22q4 -4 16 -11q15 -8 26 -10q17 -4 31 -6t31 -2q10 0 17 2l2 2 q12 8 24 18q4 3 8 13q6 8 6 16q2 14 2 29q2 10 0 19q-2 10 -6 21t-10 21q-2 5 -9 11q-6 6 -9 8q-11 6 -21 10l-17 8h-19q-15 0 -25 -2q-11 -2 -17 -6q-11 -5 -22 -14q-8 -6 -14.5 -17.5t-10.5 -17.5q-2 -9 -2 -16q-2 -13 -4 -23z" />
<glyph unicode="&#xe2e;" horiz-adv-x="1246" d="M102 176v43v45q0 25 2 53l2 25q0 11 4 20v15q2 27 7 51q8 34 32 70q23 28 47 49q27 21 53 33q28 15 60 20q36 6 72 0l22 -4q3 -2 5 -2h6q21 -5 41 -13q25 -6 47 -22q25 -16 42 -38q17 -21 30 -40q12 -23 17 -41q11 -25 13 -53q4 -28 0 -57t-17 -56q-10 -25 -24 -47 q-17 -25 -43 -47q-27 -22 -55 -33q-21 -8 -40 -12t-44 -4q-28 0 -52 5q-12 4 -33.5 7.5t-35.5 9.5q2 -14 6 -32q2 -12 10 -27q9 -17 18.5 -29t16.5 -18q8 -6 23 -15q16 -10 38 -22q19 -8 40 -16q19 -9 34 -13q21 -4 31 -4q12 -2 37 -4q21 -2 32 -1q19 0 41 -2q21 -2 44 -4 h32q13 0 27 2q17 4 31 5q14 4 32 12q13 5 23 13q15 10 28 25q13 12 25.5 30.5t18.5 36.5q10 23 18 46q6 18 8 32q4 23 6 37l4 20v26q3 11 3 21q-3 19 -1.5 45.5t1.5 39.5t-3 26v32q-2 17 -2 32q0 14 -2 28q0 12 -2 31t-2 32q0 15 -2 36q0 21 -2 34q0 13 -2 25q0 13 -4 43v2 h-4q-19 -8 -45 -21q-31 -14 -51 -20q-21 -8 -45 -12q-21 -6 -43 -10q-21 -5 -51 -9q-33 -6 -56 -6q-27 -2 -51 2q-16 2 -33 4q-21 2 -49 6q-30 5 -49 9q-23 6 -41 14q-16 9 -41 20q-29 17 -58 45q-28 27 -41 47q-14 23 -22 54q-10 31 -8 59q0 23 6 46q7 20 12 38 q12 28 42 58q25 25 51 40q23 13 43 21q22 13 46 18q19 4 54 14q45 11 76 11q23 2 43 0q20 0 40 -2q25 -2 49 -6q23 -7 56 -15q36 -10 57 -16q21 -8 50 -25q28 -14 47 -26q21 -12 43 -31q21 -19 41 -41q6 -8 14 -19q8 9 19 19q23 23 30 33l11 12q18 25 50.5 29t57 -16.5 t28.5 -53.5t-15 -57l-11 -13q-12 -14 -41 -42q-27 -29 -41 -41q-15 -13 -26 -23q2 -15 4 -28q4 -23 8 -52q2 -25 3 -41q2 -21 2 -36q3 -13 4 -33.5t1 -36.5q0 -11 2 -26q2 -21 2 -38q2 -15 2 -28v-29q2 -13 2 -31q2 -18 2 -36q0 -17 -2 -42v-36q2 -19 0 -37q0 -15 -2 -29 q0 -19 -4 -35q-2 -12 -7 -37q-4 -27 -15 -58q-9 -27 -19 -51q-13 -32 -33 -64t-45 -54q-23 -25 -47 -41q-27 -21 -58 -33q-27 -10 -51 -16q-23 -7 -45 -11q-25 -4 -44 -4q-21 0 -47 2q-25 0 -45 2q-21 2 -36 2q-21 0 -45 5q-23 2 -34 2q-17 2 -46 8q-30 4 -63 19 q-30 12 -57 26q-23 12 -44 25q-23 12 -38 26q-21 17 -41.5 42.5t-36.5 54.5q-16 32 -22 63q-7 25 -9 45q-4 23 -4 45zM266 346q2 -6 2 -8q2 -2 6 -8q8 -9 19 -17q12 -8 20 -12q4 -2 16 -6q21 -4 37 -8h10q11 0 18 2t18 4q4 2 7 8q11 7 15 12q6 10 10 21q4 10 5 18t1 18 q-2 9 -2 13q-4 8 -10 19q-6 10 -15 20q-4 6 -8 8q-4 4 -12 6t-14 4l-13 2q-6 0 -10 2l-14 3q-6 2 -14 0q-11 -3 -21 -7q-10 -6 -22 -14q-10 -9 -21 -22q-4 -7 -4 -9q-4 -14 -4 -27v-22zM334 852q0 -2 2 -8q2 -8 4 -12q4 -7 19 -21q14 -13 24 -18q18 -11 29 -17q6 -2 13 -4 q13 -2 34 -6q27 -2 43 -4q23 -2 42 -7q9 -2 19 0q15 0 39 5q28 4 47 8q18 4 37 8q17 2 28 9q15 4 41 16q27 11 44 18q11 6 24 13q-2 6 -6 8q-13 14 -24 26q-15 12 -27 21q-15 8 -35 19q-21 10 -33 15q-15 4 -41 13q-30 8 -49 12q-17 2 -28 4h-34q-16 3 -36 0q-14 0 -40 -6 l-51 -12q-12 -4 -22 -9q-14 -6 -29 -15q-10 -5 -20 -15q-4 -6 -6 -10q-4 -9 -6 -17t-2 -14z" />
<glyph unicode="&#xe2f;" horiz-adv-x="1172" d="M102 706q0 25 2 58q4 38 15 65q10 25 26 49q21 29 46 50q28 25 58 37q28 15 52 18q15 2 33 4q16 2 30 3t31 -1q27 2 47 -10l15 -9q18 -12 36 -26q19 -16 35 -36q12 -15 23 -30q16 -20 28 -44.5t16 -48.5q5 -23 3 -54q0 -23 -5 -45q0 -8 -2 -14q9 2 17 4q17 6 30 15 q15 6 29 13q19 9 35 19q15 8 29 19q13 8 28 22q17 14 38 35q19 21 30 37l25 30q11 17 18 31q27 37 81 30.5t71 -42.5q15 -27 18 -56q2 -14 4 -40.5t4 -44.5l4 -46v-43v-43v-40q3 -23 3 -44q2 -23 2 -55q2 -35 2 -56v-38v-41t2 -37v-33v-34q2 -17 1 -33t-1 -27.5t2 -28.5 q0 -17 2 -39q2 -25 2 -42q0 -19 2 -34v-32q0 -15 1 -32t1 -32v-40q0 -33 -23 -56t-54 -23t-55 23t-24 56v40v27q0 19 -2 31v31q-2 17 -1 36q0 17 -3 37q-2 23 -2 43q-2 21 -2 35v28q2 13 0 30v30v35q-2 19 -2 37v42v41q0 19 -2 52v52q-2 23 -4 42v49v43v25q-17 -19 -35 -33 q-23 -21 -42 -34t-40 -26q-19 -10 -36 -19q-21 -13 -42 -21q-21 -9 -39 -15.5t-42 -15.5q-23 -8 -47 -14q-23 -6 -46 -11q-26 -6 -58 -8q-28 -2 -47 -2h-17h-17h-21q-27 0 -53 2q-28 4 -55 14.5t-52 27.5q-28 19 -47 43q-16 20 -27 40.5t-19 42.5q-9 27 -13 55zM257 719 l5 -15q2 -10 8 -20l12 -20q5 -5 13 -9q8 -8 19 -11t22 -5q14 -3 28 -2q14 0 25 2q6 0 12 4q7 2 11 6q8 6 18 21l4 6q4 17 6 32t2 32q2 10 0 15q0 5 -4 13t-8 14q-11 15 -22 27q-7 8 -15 14q-6 6 -12 11h-3q-2 2 -4 2l-24 -4q-10 0 -21 -3q-6 -2 -16 -6q-13 -4 -23 -13 t-14 -17q-8 -13 -12 -23q-4 -6 -4 -21q-3 -19 -3 -30z" />
<glyph unicode="&#xe30;" horiz-adv-x="1000" d="M102 736q0 22 6 51q7 34 27 67q17 29 35 52q21 25 45 40q30 23 67 31q29 4 54 4q23 0 42 -2l15 -2q12 -2 24 -8q15 -4 23 -8q25 -8 48.5 -26t39.5 -42q14 -19 25 -39q10 -20 16 -45q9 -25 9 -54v-38q-2 -23 -13 -45q39 21 77 51q39 30 68 64l34 34q20 25 52.5 26t56 -20 t25.5 -53t-20 -57l-31 -35q-36 -40 -87.5 -80.5t-104.5 -69.5q-55 -30 -110 -41q-52 -10 -97 -8q-41 2 -90 8q-53 9 -85 21q-28 13 -51 26q-25 19 -43 43l-8 8q-21 23 -32 50q-11 25 -13 50q-4 22 -4 47zM110 162q2 23 11 47q8 23 18 42q12 25 33 50q21 23 41 41 q25 23 53 35q36 18 74 18h19h11q19 -2 38 -6q16 -4 30 -10q25 -9 47 -24q14 -11 29 -23q27 -19 41 -43q16 -21 25 -45q8 -23 9 -46q2 -16 4 -38q2 -29 0 -54q-2 -20 -6 -40q-2 -7 -4 -15q32 17 66 39q49 36 82 70l35 36q22 23 55 23t55.5 -22.5t22.5 -55t-23 -55.5l-34 -37 q-41 -41 -100 -83q-64 -47 -132 -70q-70 -25 -160 -21q-85 4 -127 21q-34 12 -59 26q-17 8 -31 19q-4 2 -6 4q-25 14 -49 40q-23 25 -35 47q-13 21 -18 42q-8 19 -13 41q-4 25 -2 47zM257 731q0 -10 3 -18q0 -7 2 -13q6 -4 12 -11q11 -5 22 -9t25 -8q15 -4 23 -4h6 q11 2 20 4q8 4 17 8q4 2 12 11q7 8 9 11q8 13 11 25q2 2 2 4v20q0 9 -2 17q-2 10 -5 17q-4 8 -11 16q-4 6 -9 9t-7 5q-9 2 -19 4l-11 4q-5 0 -9 2h-12q-11 0 -23 -2q-4 0 -6 -2q-11 -8 -20 -18t-19 -27q-6 -10 -6 -19q-5 -14 -5 -26zM266 141q2 -8 4 -14q2 -8 8 -16 q4 -7 11 -15l2 -2l20 -16l2 -2q4 -2 6 -2q8 -4 23 -6q19 -2 30 -4q9 0 19 2h4q8 4 20.5 15t20.5 19q2 11 2 23q2 11 0 24q-2 19 -2 33q-2 7 -4 13q-2 4 -4 7q-3 2 -7 7q-16 12 -28 20l-8 7q-9 2 -19 6h-2l-14 -2q-6 0 -14 2q-11 -6 -21 -17q-15 -10 -24 -23q-9 -10 -13 -17 q-6 -11 -8 -21q-4 -11 -4 -15v-6z" />
<glyph unicode="&#xe31;" horiz-adv-x="419" d="M-503 1325q-2 23 0 45q2 21 8 43q7 25 15 48q10 23 26 44q15 21 38 41q27 28 53 41q17 8 36 14q23 9 47 15q37 8 74 0l18 -4q2 0 9 -2q10 -2 16 -4l15 -5q16 -6 32 -16q19 -9 39 -20q30 -21 48 -49q8 -17 15 -33q9 -19 15 -39q6 -21 8 -39q2 -16 5 -37q0 -17 -3 -39 q-4 -28 -14 -55v-2q30 16 66 40q49 35 87 72l44 41q23 23 55.5 22t53.5 -24.5t20 -56.5t-23 -54l-43 -40q-47 -43 -103 -86q-61 -43 -121 -70q-61 -25 -118 -33q-51 -6 -88 -5q-51 -2 -102 20l-28 12h-1q-28 6 -54 21q-14 8 -26 14q-27 14 -51 43q-17 19 -29 35 q-21 27 -28 55q-9 23 -11 47zM-347 1338q0 -9 2 -15q2 -2 4 -6q10 -13 23 -26q6 -7 8 -9q15 -8 28 -16q4 0 9 -3q10 -2 23 -2q14 -2 26 -2q4 0 8 2q8 2 17 5q6 4 14 10t16 15l12 15q5 9 9 23q4 9 4 15q2 10 1 20t-1 18q-2 9 -4 19q-2 11 -6 16q-5 8 -11 19q-10 6 -19 10 q-10 6 -20 8l-10 5l-4 2l-21 4q-2 0 -8 -2q-17 -2 -28 -7q-11 -4 -21 -10q-4 -2 -10 -8q-14 -15 -21 -25q-8 -9 -10 -16q-4 -8 -6 -19q-2 -12 -4 -22v-18z" />
<glyph unicode="&#xe32;" horiz-adv-x="884" d="M61.5 749.5q-10.5 30.5 4.5 59.5l6 14q12 23 32 45q19 23 45 44q28 21 53 30q15 6 42 19q30 12 55 18q25 4 58 6q28 2 45 2q22 0 55 -8q19 -5 28 -7q19 -2 44.5 -9.5t53.5 -22.5q27 -15 52 -30q21 -17 39 -36q19 -18 36 -40q19 -25 32 -49q12 -25 19 -54q7 -23 13 -51 q8 -28 10 -47q5 -23 5 -41q2 -17 0 -33q0 -12 2 -25v-28v-41q2 -27 0 -46v-26v-27v-28q0 -17 -2 -31q0 -15 -2 -35q-3 -14 -3 -34q0 -25 -2 -49q-2 -21 -3 -38t-1 -34v-34v-26q2 -18 0 -34v-23q0 -15 -1 -30t-1 -32q0 -18 -2 -32l-2 -17q-2 -30 -27.5 -51t-57.5 -17.5 t-52.5 28t-18.5 57.5l3 14q2 12 2 27q0 14 1 27t1 26v30q2 11 0 21v32v37.5t1 38t3 39.5q2 21 2 44q0 27 2 47q2 17 2 28q2 11 2 21v28v29v33q2 12 0 35v37v28q-2 17 -2 33q2 13 0 24q0 9 -2 23q-2 15 -8 37q-4 23 -11 44q-4 14 -10 26q-6 10 -17 25q-10 12 -20 22 q-12 12 -27 23q-12 10 -26 16q-14 9 -29 12q-15 4 -22 6q-15 2 -42 8q-12 5 -17 5q-13 0 -36 -3q-23 -2 -36 -4q-11 -2 -27 -8q-22 -11 -39 -18q-6 -2 -20 -12q-15 -11 -23 -21q-8 -9 -10 -13l-7 -13q-14 -29 -44.5 -39t-59 4t-39 44.5z" />
<glyph unicode="&#xe33;" horiz-adv-x="908" d="M-503 1127v30q2 25 10 51q9 27 23 49q9 15 16 29q17 25 42.5 47.5t53.5 34.5q19 8 40 16q27 11 53 13q14 2 28 2l15 2q10 0 23 -2q12 -2 19 -4l15 -4q23 -7 43 -17q12 -8 25 -12q27 -13 49 -35q21 -21 34 -43q13 -18 23 -40q11 -25 15 -48q4 -17 5 -39q2 -28 -1 -53 q-2 -23 -8 -43q-7 -21 -17 -41q-13 -27 -32 -50q-17 -23 -38 -36q-21 -19 -51 -28q-23 -9 -41 -13q-25 -6 -45 -6q-16 -2 -37 0q-25 2 -45 6q-19 6 -43 17q-21 8 -36 15q-21 11 -42 30q-19 14 -34 32q-21 21 -33 43q-8 16 -16 39q-13 29 -13 58zM-348 1127q7 -13 13 -23 q2 -4 6 -11q11 -10 21 -19q11 -7 16 -11l25 -10q12 -7 20 -9q6 -2 16 -2q13 -2 21 0q6 0 15 2q12 2 24 7q4 2 8 6q8 6 17 14q6 9 8 14q6 10 7 21q5 8 5 19q2 8 0 17q0 15 -2 23q-3 7 -7 15q-4 12 -9 20q-4 8 -13 14l-6 7q-17 8 -31 14q-6 4 -14 7l-10 3l-9 -1q-12 0 -28 -2 q-4 0 -8 -3q-17 -6 -31 -12q-7 -2 -15.5 -10.5t-10.5 -12.5q-9 -15 -17 -28q-4 -6 -8 -15q-3 -6 -3 -10v-22v-2zM72 750.5q-7 31.5 9 58.5l12 18q16 27 41 49q25 23 56 37q23 12 40 21q19 8 43 19q30 12 62 17q27 4 51 7h39q18 0 49 -5q28 -4 44.5 -6.5t33.5 -6.5 q19 -6 43 -17q25 -10 47 -23q28 -14 53 -36q21 -21 35 -41q11 -17 20.5 -36t18.5 -38q12 -23 21 -58q6 -28 10 -55q4 -25 3 -40q2 -15 2 -30q0 -14 2 -30v-30v-26.5v-33.5q2 -25 2 -39v-39v-49v-45q0 -25 -4 -49q-2 -21 -2 -42q-2 -18 -1 -34v-43v-31q0 -17 -2 -37 q-2 -18 -2 -36q-2 -17 -2 -34q-2 -12 -2 -19q2 -17 0 -38q-2 -12 -2 -24v-12q-2 -33 -25.5 -55t-55.5 -20.5t-54.5 24.5t-20.5 57v14q0 15 1 31v18q0 17 2 37q0 15 3 32q2 17 2 34q2 16 2 28v35v41q0 19 2 41q2 25 4 47q2 18 2 35v47v49v37q0 10 -2 31v39v30q0 12 -1 24.5 t-1 25.5q0 14 -2 28q0 13 -2 31q-4 19 -9 39q-4 19 -9 28q-6 15 -15 29q-8 15 -14 24q-4 7 -13 15q-6 8 -15 12q-17 9 -36 17q-17 6 -26 7q-10 5 -22.5 7t-34.5 6q-19 2 -27 2h-29q-16 -2 -35 -4l-30 -8q-21 -9 -35 -16q-17 -6 -35 -17q-13 -6 -22 -16q-9 -7 -15 -16 l-10 -17q-17 -27 -48.5 -35t-59 9.5t-34.5 49z" />
<glyph unicode="&#xe34;" horiz-adv-x="66" d="M-793 1261q-4 27 0 54q4 18 11 41q6 23 14 41q9 23 23 44.5t30 38.5q15 15 31 30q18 16 38.5 30.5t41.5 24.5q27 15 51 20q21 4 45 6q25 4 43 4q23 0 51 -6q25 -6 46 -12q21 -8 43 -16q18 -9 32 -15q23 -10 45 -28q21 -17 44 -35q20 -21 34 -37q17 -19 32 -41 q19 -27 27 -46q5 -10 11 -19t12 -17q17 -21 27 -41q6 -14 16 -38l11 -23q12 -27 1.5 -55.5t-35.5 -42.5q-12 -11 -24 -15l-12 -4q-23 -9 -47 -11q-13 0 -23 -2q-15 0 -26 -2q-17 -2 -38 -2q-14 -2 -26 -2q-17 -2 -35 -2q-19 0 -35 2h-28h-62q-16 0 -35 2q-15 0 -30 1t-29 1 h-33h-36q-21 2 -42 9q-13 2 -24 4q-27 6 -53 21q-35 20 -56 53q-14 25 -22 47q-7 21 -9 38zM-638 1286q0 -8 1 -16q2 -4 6 -13q6 -2 8 -2q17 -4 32 -8q6 0 13 -2h27h33q18 0 34.5 -0.5t34.5 -0.5q15 -2 25 -2h62h37q12 -3 25 -3t24 3q16 0 32 2h21q-6 10 -11 17 q-10 17 -17 34q-2 6 -13 17q-10 17 -21 30q-12 12 -28 26q-15 14 -29 27q-11 6 -15 8q-14 6 -30 14q-15 6 -28 10q-15 4 -31 9q-15 4 -21 4q-9 0 -22 -2q-15 -2 -27 -4q-9 -3 -16 -7q-13 -8 -26.5 -16t-21.5 -16q-12 -11 -22 -23q-6 -6 -12.5 -14t-8.5 -18q-6 -15 -10 -30 q-4 -14 -5 -22v-2z" />
<glyph unicode="&#xe35;" horiz-adv-x="56" d="M-833 1198q-8 36 0 72q5 25 17 53q13 30 30 55q17 21 36 41q16 17 32 31q21 21 45 35q23 14 47 25q25 8 53 12q17 2 29 3q17 2 41 4q30 3 59 -4q26 -4 43 -9q25 -6 49.5 -19.5t48.5 -31.5q15 -13 27 -23q13 -8 29 -19q25 -17 48 -41l1 -2q2 -2 4 -2v17v32q2 23 2 34v26 v14q0 31 24 53.5t55.5 22.5t54 -24t22.5 -54v-14v-29t-2 -31v-34v-41v-38q0 -14 -2 -30q0 -23 -4 -47q-4 -27 -12 -53q-11 -30 -27 -53q-22 -30 -55 -46q-17 -10 -39 -16q-19 -6 -31 -10q-21 -6 -43 -8q-20 -3 -41 -3h-37h-34h-44q-21 3 -43 0h-47h-38q-19 0 -46 3 q-27 2 -49 4q-27 2 -47 8q-23 4 -43 13q-23 8 -43 19q-27 19 -45 45q-18 27 -25 60zM-681 1231q0 -2 2 -4q8 -6 14 -8q11 -5 23 -7t28 -4q21 -2 43 -4q23 -2 36 -2h34h49q27 2 47 0h44h36h31h27q8 2 14 4q4 0 6 2l-2 6q-9 11 -20 21q-21 19 -41 39q-12 12 -23 21 q-19 12 -34 22q-17 12 -36 29q-10 8 -20 13t-18 7q-15 4 -31 8h-21q-18 0 -29 -2q-12 -2 -32 -4q-8 -2 -17 -4q-10 -5 -20 -12q-10 -4 -18 -12q-15 -15 -31 -32q-12 -12 -23 -26q-6 -8 -10 -19q-6 -12 -8 -24v-8z" />
<glyph unicode="&#xe36;" horiz-adv-x="353" d="M-792 1315q2 27 11 51q6 16 16 35q9 19 20 37q13 21 29 38q15 21 35 38q18 14 37 26q17 12 35 25q27 15 59 25.5t57 13.5q21 2 41 0q21 0 41 -5q17 -2 33 -6q25 -4 47 -14q15 -9 28 -14q23 -10 50 -31q21 -19 37 -31q18 -15 34 -36q9 23 23 41q15 18 33 34q18 17 37 29 q25 17 51 24q25 9 51 9q29 0 56 -11q16 -6 45 -20q32 -14 57 -37q28 -23 47 -53q19 -31 27 -66q4 -25 7 -43q5 -25 5 -53q0 -37 -12 -68q-12 -28 -35 -53q-21 -21 -51 -39q-33 -21 -70 -26q-31 -8 -71 -6q-39 4 -62 7q-12 4 -23 9q-21 -19 -45 -22l-12 -3q-17 0 -33 -2 q-12 0 -27 -2t-33 -3t-36 -3q-8 0 -22 -2q-19 -2 -43 -2h-29q-25 -4 -47 -4h-35q-19 -2 -35 -2q-19 -2 -37 -2q-23 -3 -44.5 -1.5t-42.5 3.5t-42 6q-21 6 -43 14q-27 11 -55 33q-31 25 -45 59q-11 25 -15 49q-6 27 -4 54zM-636 1304q0 -6 2 -13q0 -9 4 -17q8 -6 12 -8 q11 -5 21 -7q15 -4 28 -6q17 -2 30 -2h28q18 2 35 4q19 0 39 2h43q14 0 29 2q25 2 49 2q16 0 24 2q14 0 29 3q12 0 30 2q-10 16 -20 31q-6 14 -20 34q-13 19 -25 31q-13 14 -20 23q-13 10 -32 24q-12 10 -19 12q-13 8 -30 15q-4 2 -10 4q-15 2 -28 4q-11 2 -23 4 q-11 0 -18 -2q-8 0 -24 -5t-24 -12q-17 -10 -30 -18q-13 -9 -25 -18q-11 -8 -16 -19q-8 -10 -17 -20q-6 -12 -12 -23q-4 -10 -8 -18q-2 -5 -2 -11zM-42 1354l2 -21q0 -2 2 -6v-15q5 -6 12 -13q2 -4 6 -6l15 -5q8 -2 31 -4q21 0 32 2t19 9q15 8 20 13q2 2 4 7v6q0 14 -2 23 q-2 16 -8 38q-2 13 -7 21q-6 9 -13 14q-11 10 -25 17q-21 10 -30 14q-5 0 -11 -2l-8 -4q-11 -8 -19 -17q-8 -6 -11 -12q-3 -2 -5 -10q-4 -10 -4 -23q-2 -14 0 -26z" />
<glyph unicode="&#xe37;" horiz-adv-x="334" d="M-840 1284q2 15 6 33q5 28 19 55q13 25 35 49q14 17 33 38q23 27 45 44q25 19 51 33q25 14 51 23q27 8 62 12q30 4 57 4q32 -2 55 -8q11 -2 31 -6q36 -6 65 -21q25 -13 49 -28q23 -17 49 -40q17 -16 36 -34v10q-2 19 -4 35q0 16 -2 39v20l-2 13q-5 32 15.5 57.5 t51.5 28.5t56.5 -16t29.5 -52l2 -12q2 -17 2 -36q2 -16 3 -31.5t1 -28.5q2 -19 2 -44q2 -21 2 -43q0 -27 -2 -63q-2 -37 -6 -62q-6 -27 -15 -53q-12 -33 -32 -58q-19 -23 -47 -40q-30 -21 -57 -26q-19 -5 -42 -7q-19 -2 -36 -4q-21 -2 -41 -2q-21 -2 -38 -2q-12 -2 -28 -2 q-17 -2 -36 0h-47.5t-45.5 2q-21 0 -41 2q-21 2 -41 4q-18 2 -41 4q-35 3 -65 14q-25 8 -47 21q-28 17 -52 45q-23 28 -32 65q-13 37 -9 68zM-684 1259l6 -12q4 -4 6 -5q11 -5 27 -11q9 -4 22 -4q25 -2 45 -4l38 -4q25 -3 40 -5h35h48q16 -2 26 0q14 0 29.5 1t33.5 1 q17 3 33 5q23 2 39 4q13 0 22 2q2 2 5 2q-3 2 -5 4q-23 27 -36 53q-11 15 -27 33q-21 21 -39 38q-19 17 -32 27q-15 11 -29 17q-11 4 -24 6q-28 5 -46 10q-7 0 -16 2q-19 0 -40 -2q-16 -2 -28 -6q-14 -5 -27.5 -12.5t-25.5 -16.5q-13 -10 -27 -26q-17 -21 -33 -37 q-10 -11 -14 -18q-2 -6 -4 -13q-2 -12 -2 -20v-9zM78 1301v37v38v43v51q0 30 2 64l2 29q3 32 27.5 52.5t55.5 19t53 -26.5t20 -56l-2 -29q-2 -28 -2 -53v-53v-41v-34q0 -19 1 -38.5t1 -44.5v-34v-29v-12q0 -32 -22.5 -55t-54.5 -23t-55.5 22.5t-23.5 55.5v12v23v38 q0 19 -2 44z" />
<glyph unicode="&#xe38;" horiz-adv-x="230" d="M-344 -415q0 23 6 45q7 28 22 54.5t42 49.5q23 21 51 36q25 13 49 23q39 15 80 13q31 -2 60 -8l18 -7q2 0 4 -2q6 -2 10 -4l15 -6q25 -13 47 -35q19 -20 30 -39q15 -23 23 -47q6 -21 8 -43q7 -12 7 -27l4 -53q4 -58 0 -129q-6 -65 -11 -119l-2 -53q-4 -30 -28.5 -52 t-56.5 -20t-52 26.5t-18 58.5l4 51q2 27 2 53q-6 0 -12 -2q-29 -8 -56 -8q-25 0 -47 4q-25 4 -51 14q-27 11 -53 31q-23 18 -44 40q-27 29 -36 58q-9 23 -13 45q-4 27 -2 52zM-191 -426q0 -6 3 -12q2 -11 4 -19q2 -2 6 -8q12 -13 25 -22q10 -9 16 -11q8 -4 16 -4q9 -2 21 -2 q11 0 20 4q10 2 17 4q2 3 6 7q8 6 15 16q6 11 8 16v2q2 13 2 27q0 13 -2 26q0 7 -2 15q-2 6 -4 8q-5 7 -11 15l-4 4l-8 1l-13 4q-12 4 -28 4q-6 0 -12 -2q-17 -6 -35 -13q-10 -6 -19 -15q-8 -6 -11 -13.5t-5 -11.5q-2 -12 -5 -20z" />
<glyph unicode="&#xe39;" horiz-adv-x="319" d="M-597 -442q4 28 15 57q12 32 30 55q12 17 34 37q26 23 48 33q17 9 39 15.5t43 10.5q36 7 74 -6q19 -6 41 -16l20 -8q26 -12 41 -40q15 -16 22 -28q13 -19 21 -38l12 -34q5 -14 7 -28q6 -12 8 -27v-16q2 -23 2 -41q0 -15 -2 -37v-41.5v-38.5v-39q0 -6 2 -12q2 -5 2 -8h1 q13 -2 27 -4h29q10 -2 22 0q17 0 33 2t31 2q8 0 19 1q8 2 16 5l4 4q4 10 6 25q4 14 6 28l4 42q2 18 5 36q0 21 2 32v26v20q0 11 -2 22q-3 17 -3 36q-2 16 -2 34v15q0 32 22.5 54.5t55.5 23.5t55.5 -22.5t22.5 -53.5v-17q0 -14 2 -29q0 -13 2 -24q2 -17 2 -31v-33v-30 q-2 -12 -4 -33q0 -23 -2 -43q-2 -21 -4 -41q-5 -25 -11 -51q-6 -25 -13 -46q-13 -30 -38 -55q-27 -27 -59 -37q-17 -6 -37 -10q-23 -4 -45 -4q-10 0 -23 -2q-18 0 -34 -2q-21 -2 -39 0q-16 0 -35 2q-21 2 -41 4q-30 6 -59 23q-39 23 -56 61q-8 21 -14 41q-4 23 -7 45 q-2 0 -5 -2q-25 -6 -53.5 -7t-53.5 5q-21 4 -39 10q-21 9 -43 21q-16 10 -33 22q-27 19 -43 46q-12 23 -20 45q-6 23 -8 49q-2 23 0 45zM-441 -457v-20q0 -8 2 -14q0 -5 4 -9q0 -2 2 -2q10 -8 20 -14q6 -5 12 -7q11 -4 25 -5q7 -2 15.5 -1t15.5 1q10 4 22 7q3 0 5 2q2 5 4 7 q6 10 10 21v6v24v8q-4 11 -8 23l-8 16q-5 2 -9 8l-10 9q-13 6 -22 10q-13 -4 -23 -6q-13 -4 -23 -9l-6 -6q-11 -10 -16 -16q-4 -4 -8 -14q-4 -13 -4 -19z" />
<glyph unicode="&#xe3a;" horiz-adv-x="194" d="M-262 -432q2 25 11 45q8 27 32 55q25 31 53 45q23 15 49 21q31 8 62 2l17 -4q5 0 11 -2q39 -9 68 -37q23 -21 37 -48q13 -23 16 -45q4 -16 4 -34q4 -23 0 -49q-6 -28 -20 -57q-16 -35 -46 -56q-25 -18 -55 -27q-27 -8 -51 -8q-25 -2 -47 4q-27 4 -57 23q-33 19 -58 51 q-18 30 -26 57q-6 31 0 64z" />
<glyph unicode="&#xe3f;" horiz-adv-x="1197" d="M102 408v61t2 65v74q-2 41 0 107v114q2 52 4 109q4 57 7 111q4 51 4 102q2 53 2 94l2 39q0 23 12 41q11 23 33 32l14 9q19 10 47 21q28 12 49 16t49 6q27 3 47 4q17 0 34 4q25 2 49 4t59 0h2v21q2 32 2 51v32q-2 17 -2 34v14q0 33 22.5 56.5t54.5 23.5t55.5 -22.5 t23.5 -55.5v-16q0 -15 2 -30v-37.5t-2 -55.5v-41q4 -2 8 -2q21 -9 39 -15q27 -8 59 -28q28 -15 47 -27q23 -15 43.5 -34t34.5 -42q15 -17 24 -35q17 -25 32 -61q16 -37 19 -62q5 -19 9 -32q4 -25 4 -49q0 -21 -2 -41q-2 -23 -11 -52q-8 -27 -13 -47q-6 -17 -15 -34 q-6 -19 -14 -33q-13 -23 -26 -41q-13 -19 -38 -41q-25 -23 -45 -41q-23 -17 -51 -33q-17 -11 -36 -18q16 -4 30 -10q36 -13 72 -36q30 -19 49.5 -33t38 -29t35.5 -32q14 -16 32 -34q25 -27 35 -51q10 -17 16 -36q9 -19 15 -34q6 -19 12 -41q9 -27 12 -45q2 -16 4 -33 q2 -19 2 -37q2 -23 -4 -49q-4 -23 -10 -41q-5 -21 -16 -47q-13 -35 -31 -60q-19 -25 -43 -43q-4 -4 -37 -28q-25 -21 -57 -42q-37 -22 -68 -32q-28 -10 -59 -17q-28 -6 -47 -10q-17 -4 -31 -5q-18 -4 -37 -6q-4 -3 -13 -3v-49v-72v-42q0 -31 -22 -55t-54 -24t-55.5 22.5 t-23.5 56.5v42v77v34q-6 -2 -15 -2q-27 0 -42 2q-15 0 -35 2q-21 2 -35 2q-17 2 -41 4q-28 5 -49 7t-37 6q-14 2 -29 5l-13 2q-35 11 -52 44q-7 10 -8 18l-2 14q-4 17 -6 33t-4 35q-2 15 -4 37q-5 28 -5 55q0 25 -2 35q0 17 -2 35q0 19 -1 46.5t-1 47.5v21.5v16.5v52v52 q-2 27 -2 55zM257 412q0 -28 1.5 -55t1.5 -53v-50v-39q0 -23 2 -49v-43q0 -17 2 -27q2 -17 2 -43q0 -23 2 -43q4 -25 4 -40q2 -9 2 -17q8 0 15 -2q19 -2 44.5 -4t42.5 -4q11 0 30 -2.5t34 -2.5q12 -2 30 -2q13 0 21 2q2 43 2 79v92v131q-2 80 -2 135q0 57 -2 108v40 q-23 2 -34 2q-27 2 -54 1t-55 -1q-25 -2 -53 -2q-19 -2 -36 -2v-56v-53zM257 680q11 0 38 2q15 0 30 2q21 2 43 5q21 4 40 5q14 2 38 7t45 7q0 28 2 47q2 49 4 95q2 45 5.5 109.5t3.5 107.5q0 45 2 87t4 95v17h-4q-27 2 -43.5 1t-32.5 -4q-25 -4 -49 -6q-19 -2 -43 -4 q-19 0 -29 -2q-9 -2 -26 -9q-5 0 -9 -3q0 -38 -2 -92q0 -54 -4 -107q-4 -57 -7 -111.5t-3 -101.5v-112q0 -19 -3 -35zM645 485q2 -51 2 -108q0 -58 2 -135v-131v-96v-64q4 0 10 2q17 4 35 6q16 4 41 11q23 4 41 9q17 6 39 21q27 17 44 28q21 19 38 31q6 5 12 13q5 8 10 24 q8 21 12.5 33t6.5 26q2 13 2 19v20q-2 11 -4 23q-2 10 -9 29l-10 35t-10 26q-4 12 -10 25q-4 4 -15 16q-14 17 -28 31q-10 12 -23.5 23.5t-28 21.5t-39.5 25q-22 14 -42 20q-25 11 -54 16q-10 2 -22 4v-4zM649 755q10 5 18 7q17 8 35 18q17 11 31 21q15 13 33 28 q16 17 22 25q7 9 11 16q6 11 9 23q7 15 13 30q4 13 10 34q4 18 7 28v23q0 8 -3 16q-2 14 -6 33q-2 12 -12 34q-9 25 -16 36q-10 16 -21 30q-8 10 -17.5 18.5t-18.5 15.5q-15 9 -42 23q-21 13 -30 17l-5 2q-2 -45 -4 -84q-2 -43 -2 -86t-3 -108.5t-5 -112.5q-2 -41 -4 -87z " />
<glyph unicode="&#xe40;" horiz-adv-x="769" d="M102 598v61v64q2 30 3 64t5 61q0 19 2 41v26q0 30 23.5 54t55.5 23t54.5 -24.5t22.5 -54.5v-26q-2 -28 -4 -55q-2 -21 -4 -52q0 -30 -3 -59v-62v-61q0 -28 3 -55q0 -29 2 -56v-51q0 -21 2 -41v-38q2 -21 2 -40q2 -18 4 -34q10 6 21 10q21 11 49 16q28 8 57 10q28 2 58 -2 q27 -2 51 -11t53 -30q32 -20 51 -44q17 -21 28 -43q11 -23 17 -48q8 -23 10 -45q5 -27 2 -59q-2 -31 -6 -56q-6 -28 -19 -55q-14 -30 -40 -55q-25 -25 -51 -37q-23 -10 -49 -19q-23 -4 -47.5 -6.5t-42.5 -2.5q-19 2 -42 5q-23 4 -46 12.5t-42 18.5q-16 9 -34 22 q-25 17 -46 44q-17 21 -28 43q-15 23 -21 43q-6 16 -12 37.5t-10 46.5q-2 21 -5 40.5t-3 34.5q0 13 -2 34q-2 23 -4 45q-2 20 -2 36q0 2 -3 37q-2 18 -4 43v45q-2 21 -2 43v45q-2 25 -2 53q-2 30 -2 64zM293 68q4 -15 6 -21t8 -19q8 -10 18 -24q7 -8 13 -12q12 -9 21 -15 q8 -4 18 -7.5t20 -3.5q13 -3 20 -5q8 0 22 2.5t26 4.5q10 2 18 5q4 4 12 10q4 4 7 9q4 8 6 18q2 17 4 35v31q-2 13 -6 24q-2 11 -7 19q-4 8 -10 17q-6 6 -17 11q-12 8 -21 11.5t-19 5.5q-11 2 -22 0q-15 0 -32 -4q-16 -5 -24 -9q-6 -4 -15.5 -8.5t-17.5 -15.5l-8 -8 q-4 -10 -9 -21q-6 -15 -9 -26z" />
<glyph unicode="&#xe41;" horiz-adv-x="1395" d="M102 864v39v12q2 32 25.5 54t55.5 22t54.5 -24.5t19.5 -54.5v-15v-27q3 -21 3 -45v-47v-47q0 -21 1 -43t1 -43q2 -21 4 -43q2 -25 2 -45q2 -25 2 -47q2 -21 2 -49q0 -27 2 -44v-36q2 -25 2 -33v-25q2 -11 2 -28q15 11 29 16q20 8 43 15q28 8 62 10q36 2 62 -4 q19 -4 40 -11q32 -12 62 -38q23 -21 38 -43q13 -23 23 -47q11 -21 16 -42q8 -25 10 -47q2 -16 2 -40q0 -29 -4 -56q-6 -27 -16 -53q-11 -23 -18 -37q-13 -28 -38 -47q-19 -19 -43 -33l-36 -18q-25 -9 -53 -11q-21 0 -43 2q-17 2 -31 2q-29 2 -56 13q-16 6 -34 12 q-30 11 -60 37q-22 21 -39 42q-17 22 -26 44q-9 19 -15 41q-4 21 -6 39q-2 16 -4 31l-4 30q-3 19 -4 47q-2 27 -4 40q-2 14 -2 32q-2 17 -4 28v34q-2 14 -2 26q-2 19 -2 37q0 13 -2 31v31q-2 21 -2 49t-2 49q0 21 -3 41q0 21 -2 42l-4 46q0 23 -2 47v49v47v47q0 21 -2 39z M301 62q2 -11 3 -23q3 -11 7 -18q2 -4 6 -11q8 -8 19 -20l10 -7q17 -6 32 -10q7 -4 15 -3q19 0 37 -2q12 -2 20 -2h3q7 4 17 9q9 4 15 10q2 2 4 2q6 13 13 30q4 10 6 22q2 10 2 23v26q-2 6 -4 14q-4 15 -11 29q-6 13 -12 22q-4 7 -14 17q-2 2 -4 2q-12 4 -25 8h-21 q-17 -2 -26 -4q-15 -4 -23 -8q-6 -2 -13 -8q-13 -13 -25 -24q-7 -9 -11 -15q-6 -12 -10 -25q-4 -10 -7 -18zM749 321v64q2 23 2 43v47v53v61q0 39 -2 68v64q2 28 2 59q2 31 2 58q2 28 2 45l2 14q2 33 27.5 53t57.5 17.5t52.5 -27.5t18.5 -57l-1 -15q-3 -10 -3 -34 q0 -28 -1 -58t-3 -61v-54q0 -28 2 -69v-67v-50v-47q0 -23 -2 -47v-58q2 -28 2 -47q13 9 24 15q25 15 62 24q43 13 82 6q29 -4 45 -8q23 -6 56 -26q34 -21 57 -43q23 -25 39 -61q14 -35 20 -70q2 -31 2 -49q0 -17 -2 -36q-2 -28 -14 -62q-13 -31 -29 -58q-19 -27 -45 -51.5 t-58 -41.5q-38 -20 -79 -19h-42q-25 0 -49 4q-32 6 -63 22q-29 16 -54 39q-28 23 -42 47q-13 17 -20 35q-9 18 -17 42q-6 23 -10 47q-2 21 -7 40q-2 17 -3 33t-3 33q-2 21 -2 40v39q0 19 -2 39q-2 25 -4 65zM923 59q4 -16 8 -31q3 -12 7 -18l10 -20q4 -5 15 -13 q10 -10 24 -18q8 -4 16 -6q13 -2 22 -2h40q4 0 10 2q13 8 25 19t18 22q9 12 15 27q4 14 3 20q2 14 2 27q0 6 -2 24q-2 12 -7 29q-5 13 -9 17q-6 6 -23 13q-14 9 -22 13q-8 2 -25 4q-4 2 -14 -2q-19 -4 -26 -11q-17 -8 -34 -19q-10 -7 -17 -17q-11 -10 -17 -17 q-6 -10 -13 -20l-6 -14v-9z" />
<glyph unicode="&#xe42;" horiz-adv-x="1346" d="M102 1257q2 19 6 38q4 21 11 43q4 12 6 24q6 18 12 41q9 23 16 41q8 21 17 36q12 21 42 55t48 48q14 12 29 23q14 10 30 20q19 11 49 27q32 14 53 23q17 4 36 10q21 4 40 7q17 4 35 7q19 4 44 6q28 4 49 4q23 -2 42 -4q23 -2 41 -6q17 -7 41 -14q23 -8 37 -15 q19 -8 39 -23q15 -10 45 -32q32 -27 55 -49q21 -21 45 -51q23 -25 40 -44q8 -8 14 -13q7 6 12 11l10 10q6 9 13 15l55 55q23 23 55.5 22t54 -24t21.5 -54t-23 -54l-42 -45q-4 -4 -9 -11l-23 -22q-22 -23 -36 -37q-37 -37 -90 -32q-41 2 -80 32q-25 19 -47 41q-19 23 -43 49 q-21 25 -37 41q-15 17 -41 35q-27 23 -39 31q-6 4 -12 5q-11 7 -29 13q-17 6 -24 8q-9 2 -21 4q-15 0 -26 3q-13 0 -32 -3q-21 -4 -34 -6q-17 -2 -31 -4q-15 -4 -27 -6q-16 -7 -30 -11q-10 -2 -33 -13t-35 -19t-23 -15q-12 -8 -21 -17q-9 -5 -28 -27q-20 -23 -25 -31 q-6 -10 -7 -19q-6 -12 -10 -28q-7 -18 -11 -31q-4 -19 -10 -37q-4 -12 -4 -20q-2 -13 -5 -23v-26q3 -7 3 -13q0 -2 2 -2q8 -4 27 -8q16 -2 20 -5h29q14 -2 40 -3q19 -2 32 -2h34h37q23 0 53 -4q25 -4 44 -8q14 -2 30 -4q19 -3 41 -7q10 0 18 -2q28 -2 56 -16q40 -21 59 -62 q11 -21 15 -47q6 -25 6 -45q2 -14 1 -36q2 -23 2 -45v-50v-28q0 -15 2 -28v-36v-37v-35q-2 -17 -2 -43v-45v-40v-89v-47q0 -23 -2 -62v-65v-8q21 9 42 14q28 10 55 8h8q13 2 25 0l14 -4q25 -4 49 -14q15 -8 33 -16q28 -15 53 -37q18 -18 33 -37q23 -31 30 -64q5 -21 5 -38 q2 -15 2 -33q0 -23 -2 -46q-5 -28 -16 -58q-13 -28 -31 -54q-19 -28 -39 -45q-25 -25 -53 -37q-25 -8 -56 -12q-28 -2 -60 1t-61 15q-27 11 -55 26q-25 15 -43 32q-28 21 -47 49q-20 30 -27 63q-6 28 -6 47q-2 9 -2 17l-2 18q0 19 -2 46q-2 32 -2 60q-2 27 -2 54t1 56.5 t1 66.5q2 34 2 61v43v89v40v45t2 47v34v34v29q-2 19 -2 28v39v42.5t-1 41t-1 33.5q-2 10 -4 23l-3 4q-10 2 -19 2q-13 2 -32 4q-23 2 -42 6q-15 5 -39 6q-19 4 -31 4h-35h-34q-23 0 -50 2q-23 4 -34 4h-22q-20 2 -51 8q-28 9 -49 15q-27 10 -51 32q-34 31 -43 68 q-6 19 -6 49q-2 30 -2 49zM812 59q0 -6 3 -16q0 -4 4 -11q4 -6 12 -11q15 -11 33 -23q14 -8 25 -13q12 -4 26 -6t25 0q10 0 14 2q2 2 5 4q8 9 17 21.5t15 25.5q4 13 6 17v23v26q-2 8 -2 15l-2 2q-8 10 -19 23q-6 4 -11 7q-17 8 -32 15q-6 2 -10 4h-2h-7h-15h-6 q-11 -4 -27 -11q-11 -4 -18 -12q-8 -6 -13 -14q-6 -8 -10 -21q-6 -14 -8 -28q-3 -12 -3 -19z" />
<glyph unicode="&#xe43;" horiz-adv-x="1283" d="M106 1329q-4 30 0 53q2 17 6 35q7 19 9 33q4 23 11 44.5t17 41.5q10 21 31 51q23 32 47 53q21 17 43 29q19 11 39 20q23 13 39 19q15 6 37 14q28 13 53 21q25 7 53 8h49q25 -2 49 -7q28 -6 49 -11q17 -4 34 -11q18 -6 38 -16q19 -9 34 -17q20 -10 49 -34q32 -29 55 -64 q19 -28 28 -51q13 -25 17 -45q4 -15 10 -41q9 -32 9 -55v-33q2 -23 0 -43v-28q-3 -15 -3 -29v-43t-2 -49q-2 -19 -3 -36.5t-3 -35.5q-2 -21 -4 -56q-4 -27 -4 -42q0 -23 -1 -48.5t-5 -54.5q-3 -25 -7 -69q-4 -47 -7 -83t-5 -73q-2 -36 -4 -74q0 -34 -2 -76q-3 -39 -6 -107 q-4 -67 -8 -106v-8q32 14 64 14l19 -2h13h21q28 0 59 -13q17 -7 35 -17q18 -11 36 -25q23 -17 41.5 -41.5t28.5 -50.5q6 -21 11.5 -44.5t7.5 -42.5q2 -20 -1 -45t-10 -48q-8 -29 -22 -54q-13 -16 -27 -34q-18 -21 -43 -38q-25 -16 -51.5 -25t-53.5 -11q-23 -2 -45 -2 q-25 0 -49 6q-14 4 -30 8q-28 9 -57 29q-27 18 -49.5 46t-33.5 51q-6 16 -12 34q-9 25 -10 51q-2 21 0 43q0 10 2 19v8q0 17 -2 47v72q0 43 2 86q5 38 8 106q4 64 6 102q2 39 4 74q0 37 2 78q5 39 7 76q4 34 6 82q4 47 8 75q2 25 3 45.5t1 39.5q0 25 5 59q4 30 4 49 q2 21 2.5 39.5t2.5 36.5q2 17 2 39v39q0 16 2 35q0 17 2 32v26q-2 21 -2 36q0 8 -4 24q-6 25 -9 37q0 7 -7 18q-6 13 -18 34q-11 16 -25 28q-16 14 -25 19q-12 6 -25 12q-10 4 -19 8q-15 7 -30 10q-10 2 -28 6q-19 2 -35 4h-31q-10 0 -22 -4q-13 -4 -31 -12q-25 -11 -40 -16 q-11 -4 -28 -13q-18 -8 -32 -16q-12 -7 -23 -14q-6 -6 -16 -21q-13 -19 -16 -29q-6 -12 -11 -24q-2 -4 -2 -8q7 4 11 6q28 15 58.5 21.5t60.5 6.5q32 0 64 -11q29 -13 56 -30q34 -23 52 -49q10 -18 20 -38q10 -21 16 -45q9 -28 11 -54q2 -23 -2 -47q-4 -23 -15 -49 q-15 -39 -49 -71q-32 -31 -70 -46q-34 -15 -61 -18q-28 -2 -58 2q-28 4 -68 18q-38 15 -66 33q-29 19 -54 49q-20 27 -35 56q-13 25 -20 44q-8 23 -12 41q-5 17 -7 34q-4 16 -4 38zM303 1219q2 -5 1 -5q11 -12 21 -18q11 -9 34 -16q23 -8 35 -9t20 -1q6 0 18 6q10 4 23 14 q8 11 10 14l5 21q2 4 2 10q-2 9 -3 18q-4 13 -10 25q-4 10 -11 19l-4 4q-12 8 -27 14q-8 2 -11 2q-9 0 -21 -2q-15 -5 -26 -11q-9 -4 -15 -7q-10 -13 -19 -25q-8 -11 -10 -17q-4 -8 -8 -18q-2 -8 -4 -18zM846 59q0 -4 2 -10q2 -10 8 -22q2 -4 10 -14q8 -11 16 -17 q7 -4 11 -4q16 -7 28 -9q6 -2 17 -2h23q8 2 17 5.5t17 7.5q6 6 13 12q6 9 12 15q2 4 2 9q4 11 4.5 23.5t0.5 20.5t-2.5 20t-6.5 23q-2 6 -6 12.5t-11 9.5q-8 6 -16 10q-13 6 -24 13h-21h-15h-16q-2 0 -6 -2q-16 -7 -25 -15q-6 -2 -12 -9q-9 -9 -10 -17q-4 -6 -8 -17v-2 q-2 -6 -2 -12v-2q-2 -15 0 -27z" />
<glyph unicode="&#xe44;" horiz-adv-x="1494" d="M117.5 1442.5q11.5 29.5 41 43t60.5 1.5l16 -7q21 -8 41 -17q25 -13 51 -34q23 -16 49 -38q17 -13 34 -29q4 14 11 35q8 27 21 51q10 21 23 43q14 30 38 64q28 32 48 51.5t42 33.5q28 19 64 27q28 9 57 11q25 0 60 -2q38 -3 61 -9q25 -8 45 -21q21 -12 49 -38 q33 -28 49 -58q15 -25 21 -42q6 -15 10 -30q7 -16 11 -30t7 -29q4 -17 9 -39q4 -21 6 -38q4 -17 6 -34q2 -18 4 -40q0 -19 2 -39q0 -17 2 -43q3 -28 3 -50q2 -21 2 -41q2 -25 4 -49v-53v-53q2 -32 4 -74q2 -49 0 -86v-65v-72v-78v-98v-101q-2 -27 -4 -53l20 4q16 6 41 6 q9 3 14 3h17q27 2 55 -7q23 -6 39 -12q22 -9 43 -22q25 -17 43 -39q17 -16 30 -41q15 -26 23.5 -47.5t12.5 -51.5q2 -27 0 -57q-2 -36 -11 -64q-8 -25 -23 -47q-10 -20 -28 -40q-21 -25 -45 -41q-20 -15 -45 -25q-28 -12 -58 -15q-23 -2 -38 -2q-21 0 -44.5 4.5t-49.5 14.5 q-25 8 -47 23q-27 15 -45 34q-21 19 -38 47q-19 29 -26 56q-6 19 -8 38q-6 27 -4 56q2 21 6 39v20q2 37 4 72q2 39 6 78q2 37 4 73v97v98v78v72v70q3 30 0 75q-2 53 -4 74v59q0 31 -1 51.5t-1 38.5l-4 46q0 21 -2 47q-2 30 -2 51q-2 19 -2 34q0 13 -2 23q-2 15 -5.5 31 t-7.5 37q-4 19 -6 29t-6 26q-4 11 -7 20q-4 13 -7 23q-4 9 -12 22q-5 8 -19 21q-19 17 -24 21q-4 2 -11 4q-6 2 -27 4h-40q-13 0 -28 -4q-10 -2 -15 -8q-13 -9 -24.5 -19.5t-28.5 -31.5t-23 -36q-13 -23 -23 -43q-9 -18 -14 -36q-8 -21 -14 -40q-5 -17 -11 -43 q-8 -28 -10 -45q-4 -14 -6 -30q-4 -16 -6 -27q-6 -34 -30.5 -45.5t-52 -3.5t-50.5 20t-25 19q-5 10 -20 41q-15 29 -31 47q-17 19 -35 35q-23 21 -43 34q-14 11 -25 17q-16 6 -30 12l-17 7q-28 12 -41.5 41.5t-2 59zM1048 64q2 -15 6 -27q2 -7 9 -16q8 -13 14 -19 q7 -6 14 -10q12 -9 27 -13q10 -4 20 -5.5t17 -1.5q10 0 25 1q6 0 11 2q8 4 19 10q6 5 12 13q9 10 15 19q4 8 8 17q2 9 1 25q2 19 0 29q0 10 -1 16q-4 9 -10 19q-9 15 -17 22q-4 6 -8 8q-11 7 -17 9q-7 4 -18 6q-10 -2 -23 -2l-17 2h-7q-10 -2 -27 -8q-10 -2 -18 -5 q-5 -2 -12 -8l-4 -4q-8 -15 -11 -22q-2 -4 -4 -12v-9q0 -10 -4 -18v-8q-2 -6 0 -10z" />
<glyph unicode="&#xe45;" horiz-adv-x="1021" d="M105 740q-3 32 16 57l16 20q23 27 41 43q17 14 37 29q21 12 40 23t38 20q21 8 34 14q17 4 45 13q30 8 51 10q21 4 44 3h37q27 0 49 -3q23 -4 40 -10q17 -4 34 -9q19 -6 38 -14q21 -11 39 -21q17 -10 31 -20q19 -10 41 -31q27 -23 53 -55q25 -33 40 -61.5t24 -47.5 q4 -17 8 -36q4 -15 8 -31q3 -16 5.5 -35.5t2.5 -40.5q2 -17 3 -36t3 -50v-57q-2 -21 -2 -39v-35v-39q0 -20 -2 -41q0 -19 -2 -39q0 -21 -2 -38q0 -17 -1 -35.5t-1 -32.5v-33q0 -18 -0.5 -38.5t-0.5 -41.5q2 -27 1 -51.5t0 -44.5q0 -25 -1 -49q0 -25 -3 -44q0 -16 -2 -34 q0 -15 -2 -30v-36q-2 -14 -2 -29.5v-23.5v-6v-5v-2v-2q0 -6 -2 -11v-21q-4 -35 -4 -57l-2 -25q-2 -33 -25.5 -54.5t-55.5 -19t-54.5 26t-20.5 55.5l3 25q0 25 4 59l1 31v6v31q0 15 2 30v31q2 21 2 39q2 17 4 35v35q2 23 2 43q-2 23 0 47q0 25 -2 49q0 25 2 49v37v29 q0 16 1 36.5t3 39.5v39q2 18 2 38q3 17 3 36v36v37q0 20 2 42v46q-2 28 -2 47q-3 19 -5 37q0 14 -2 27l-4 26q-2 15 -6 29q-2 11 -3 18q-4 8 -13 25q-10 19 -27 39q-15 20 -28 31q-19 14 -29 22l-26 16q-11 7 -21 13q-11 4 -21 6q-15 4 -28 8t-27 6q-11 2 -24 2h-33 q-10 0 -23 -2q-12 -2 -34 -6q-23 -7 -36 -10q-10 -4 -19 -8q-13 -6 -25 -15q-17 -8 -31 -16q-12 -9 -23 -16q-6 -8 -18 -23l-18 -21q-19 -25 -52 -28.5t-57.5 16.5t-27.5 52z" />
<glyph unicode="&#xe46;" horiz-adv-x="1320" d="M102 676q0 32 4 53q2 21 6 37q5 12 9 25q6 25 21 51t44 57q33 29 67 47q31 15 51 19q13 2 28 4q18 4 34 8q27 4 53 2q30 -2 58 -14q18 -8 37 -19q19 -10 39 -27q14 -10 28 -24l10 -6q0 2 2 2q25 27 52 43q22 12 47 23q29 10 59 12q39 4 68 -6q16 -6 35 -13q33 -12 58 -40 q16 -19 34 -48q19 -33 28 -65q6 -25 13 -55q4 -31 6 -44q4 -17 4 -41q2 -23 4 -38q2 -21 2 -41q0 -21 -2 -42q0 -18 -2 -38v-35v-93v-42q2 -19 2 -37.5v-36.5q2 -19 0 -39v-4q45 2 78 4h59q32 2 56 -20.5t25 -54t-21 -55t-54 -23.5l-59 -3q-35 -2 -82 -4q0 -8 -2 -18 q0 -17 -1 -30t-1 -32q-2 -15 -4 -37q-2 -18 -2 -40q-2 -23 -2 -43q0 -23 -1 -47.5t-3 -41.5q-2 -14 -2 -26q0 -16 -2 -33q0 -15 -3 -30q0 -15 -2 -28q0 -18 -4 -36l-2 -15q-8 -30 -34 -47.5t-57 -11.5t-50 32.5t-12 58.5l2 13q2 9 2 17q2 12 2 27q2 17 2 30q2 17 2 29 q2 15 2 31q2 14 2 38q2 23 2 44q0 23 3 47q2 25 4 47q0 21 2 37q2 14 2 25.5v25.5q0 4 2 8q-37 -2 -66 -2q-63 -2 -92 -2l-27 2q-30 0 -53 23.5t-22 55.5t25 54t57 22l26 -2q23 0 82 2q30 0 68 3v14q2 17 0 32v36t-2 32v51v93v43q2 19 2 39q2 16 2 33q0 15 -2 28q0 17 -2 39 q-2 21 -4 31q-2 13 -7 39q-4 21 -8 38q-4 15 -15 29q-8 15 -13 22q-13 7 -25 11q-2 0 -6 -2q-11 0 -20 -4q-13 -5 -23 -10q-6 -4 -17 -14q-15 -17 -22 -28q-10 -14 -21 -28q-12 -19 -45 -29.5t-63 -3.5q12 -19 19 -41q8 -23 9 -47q4 -28 0 -53q-2 -17 -5 -34q-4 -28 -17 -52 q-12 -22 -31 -47q-27 -37 -61 -50q-12 -6 -29 -10q-25 -8 -49 -11q-25 -3 -51.5 -0.5t-54.5 9.5q-23 6 -43 17q-23 10 -46 25q-28 18 -49 45q-19 22 -26 46q-11 23 -15 45q-4 25 -2 54q0 12 4 27q-6 25 -6 57zM260 565l4 -12t8 -15q4 -4 8 -6q13 -8 23 -11q13 -7 29 -11 q10 -4 21 -5t19 -1q9 2 15 4q10 4 21 8q8 13 11 20q4 9 6 15q3 14 5 27v11q-2 11 -5 17q-2 6 -4 11l-4 4q-8 6 -14 8l-20 8l-35 12h-12h-17l-12 -6q-13 -7 -18 -12q-11 -10 -19 -21q-4 -6 -7 -14.5t-3 -15.5q-3 -8 0 -15zM321 804h17q19 0 36 -1l13 -2q12 -2 25 -8l20 -8 q18 -7 37 -15q17 -8 33 -19q-5 6 -9 12.5t-8 10.5q-17 15 -30 25q-11 8 -19 12q-11 6 -21 10q-2 2 -7 2h-15q-15 -2 -27 -6q-17 -2 -30 -6q-7 -2 -15 -7z" />
<glyph unicode="&#xe47;" horiz-adv-x="345" d="M-633 1297v43v32q0 23 4 47q2 19 6 35q3 23 9 45q6 28 12 49q7 15 15 31q10 22 24 43q12 17 24.5 33t29 33.5t32.5 33.5q21 19 41 31q15 10 30 19.5t34 17.5q21 11 45 22q30 13 65 21q27 4 41 8q23 3 55 3q25 -3 38.5 -4t27.5 -1q13 -2 32 0q17 0 28 5l32 8q10 4 21 9 q16 9 30 21q6 4 15 17q16 25 28 45l14 22q19 27 51 34t58.5 -9.5t33.5 -48.5t-9 -60l-15 -23q-14 -23 -32 -49q-23 -32 -51 -53q-21 -17 -44 -28q-25 -17 -51 -25q-21 -7 -41 -13q-27 -6 -61 -7q-28 -2 -49 0q-17 0 -29 1t-35 3h-20q-12 -2 -37 -8q-19 -4 -33 -11 q-21 -8 -37 -16q-15 -9 -29 -16.5t-27 -14.5q-4 -4 -11 -12q-15 -13 -27.5 -26t-21 -26.5t-19.5 -25.5q-6 -9 -10 -16q-7 -15 -11 -27q-4 -9 -6 -22q-4 -19 -6 -33q-2 -19 -5 -39q-3 -13 -3 -23v-34v-30q3 -10 5 -15q2 -13 7 -25q4 -9 17 -26q6 -13 12 -19q0 -2 2 -2 q21 -5 39 -9q4 -2 12 0q9 2 15 7q12 8 24 18q23 23 45 37q28 17 61.5 13.5t57.5 -21.5q23 -17 37 -35q9 -10 31 -31q20 -19 34 -26q19 2 35 6q11 2 18 8q9 4 13 12q6 6 10 14h-10q-23 0 -47 2q-35 7 -64 21q-23 11 -43 24q-20 17 -36 36q-17 16 -29 32q-19 25 -26 62 q-7 30 -7 61q0 35 13 66q12 37 41 65q22 25 49 39q28 17 59 24q30 9 55 7q17 0 41 -2q37 -5 66 -18l16 -9q4 -4 8 -6q25 -6 41 -25l13 -14q17 -19 28 -41q11 -23 15 -47q4 -21 6 -43v-23q6 -25 6 -53q-2 -21 -4 -39q0 -14 -2 -29q-2 -19 -6 -36q-2 -17 -7 -33 q-6 -19 -12 -35q-6 -17 -17 -39q-12 -28 -30 -53q-23 -30 -53 -49q-28 -21 -66 -31q-28 -7 -61 -10q-47 -4 -90 20q-27 17 -62 47q-19 17 -31 29q-19 -14 -37 -27q-32 -21 -69 -28q-39 -6 -73 2q-23 4 -43 10q-41 9 -70 35q-21 21 -41 53q-19 28 -27 49q-8 19 -15 37 q-6 23 -10 52zM-108 1448q0 -12 2 -23q0 -4 2 -6q6 -8 15 -16q6 -8 15 -14q11 -9 23 -15q4 -2 13 -2q14 -2 28 -2h2q2 0 4 2q11 10 21 25q8 8 10 14q0 4 1 8q0 10 3 19v6q0 8 -3 17q-2 4 -1 7q-2 4 -8 10q-10 5 -17 7l-16 8q-2 2 -9 2q-16 2 -26 2q-6 0 -15.5 -2t-17.5 -6 q-11 -6 -18 -17q-4 -4 -6 -5q-2 -8 -2 -19z" />
<glyph unicode="&#xe48;" horiz-adv-x="66" d="M-192 1720v35v94.5t2 112.5l2 52q2 30 26 52.5t55.5 21.5t54.5 -25.5t21 -55.5l-2 -51q-3 -49 -3 -106v-95v-33q0 -32 -22.5 -55t-54 -23t-55.5 22.5t-24 53.5z" />
<glyph unicode="&#xe49;" horiz-adv-x="388" d="M-568 1884q1 33 9 62q11 23 25 47q13 18 31 42q23 28 49 45q28 19 63 30q37 12 68 10q19 -2 30 -4q23 -2 54 -15l21 -8q10 -4 18 -11q2 0 4 -2l14 -7q23 -12 44 -35q21 -19 32 -37q19 -27 24 -57q2 -13 4 -27v-7v-3v-6v-2v-2q2 -21 0 -47q-2 -23 -5 -51q-4 -25 -10 -58 q0 -10 -2 -21q30 21 63 47q62 49 113 103q49 51 57 63l10 15q19 27 51.5 31.5t58 -13.5t31 -50t-13.5 -59l-10 -13q-15 -19 -73 -81.5t-128 -118.5q-70 -55 -125 -87q-59 -35 -111 -49q-4 0 -10 -1.5t-23.5 1t-32.5 5.5t-32.5 9.5t-26.5 19.5t-9 33t11 47q7 9 11 18 q-19 -2 -35 -2q-25 0 -49 8q-21 5 -41 13q-27 12 -51 30q-19 15 -35 31q-23 21 -39 45q-18 27 -27 56q-8 30 -7 63zM-414 1880q0 -8 3 -15q2 -8 6 -13q6 -8 14 -17q13 -12 28 -23q8 -6 13 -8q13 -6 25 -7q4 -3 8 -3h16q8 3 19 6q10 2 19 8q4 2 10 10q8 11 10 15q4 8 6 17 q2 12 4 26v17v4q0 8 -2 15q-4 9 -14 17l-10 10l-15 9q-2 0 -4 2l-17 6q-10 4 -15 4q-13 2 -25 5q-2 -3 -11 -3q-10 -4 -20 -10q-10 -8 -18 -17q-11 -14 -19 -26q-6 -8 -8 -16q-3 -5 -3 -13z" />
<glyph unicode="&#xe4a;" horiz-adv-x="487" d="M-753 1861q2 33 4 62q2 30 6 51t10 42q8 20 19 38q8 17 16 33q15 23 43 49q25 25 47 39q27 21 57 31q23 8 43 10q20 4 38 6q21 2 40 2q31 0 70 -18q29 -15 51 -31q23 -18 43 -45q4 -6 9 -12q27 28 51 47q32 23 68 30q30 8 62.5 7t56 -8.5t52.5 -30.5q30 -21 55 -56 q23 -30 31 -51q6 -16 13 -33q6 -19 7 -41q4 -16 4 -34q2 -21 2 -39v-44q-2 -22 -2 -36h1t1 2q15 17 27 32q9 13 15 25q8 21 16 37q6 14 10 27q6 19 13 37q4 8 6 18l2 16q6 30 32.5 49t57.5 13.5t50.5 -32t12.5 -56.5l-2 -17q-4 -25 -12 -47q-7 -14 -13 -28q-6 -21 -15 -44 q-9 -18 -17 -38q-13 -25 -28 -49q-15 -19 -34 -41q-16 -21 -40.5 -47.5t-42 -45t-35.5 -35t-37 -28.5q-37 -30 -78 -29q-45 0 -67.5 43t-12.5 76q7 13 13 33q6 16 9 37q7 15 7 22q2 10 2 23q2 12 2 26q2 13 2 27.5t2 36.5v37v26q-2 13 -4 27q0 9 -4 14q-3 10 -7 21 q-4 6 -13 21q-9 12 -19 20q-8 6 -15 8q-4 2 -10 2q-11 0 -20 -2q-6 -2 -15 -8q-12 -11 -26 -24q-12 -15 -16 -21q-7 -9 -9 -17l-8 -20q-2 -10 -4 -31q-2 -2 -6.5 -5t-14 -12t-20 -17.5t-25 -17t-28 -12.5t-25.5 -2t-22 11q2 -5 2 -9q6 -18 10 -34q7 -25 6 -53q0 -25 -6 -45 q-4 -23 -14 -45q-11 -23 -25 -42q-19 -27 -45 -43q-21 -10 -43 -18q-27 -11 -51 -10q-25 -2 -55 2q-23 4 -45 10q-28 8 -57 23q-35 20 -58 53q-21 28 -31 63q-8 30 -8 60q-3 4 -3 6l-3 14q-6 21 -6 59zM-585 1784q-2 -8 1 -17.5t8 -17.5q2 -5 7 -6q10 -6 21 -8l32 -8 q12 -2 19 -2q4 2 10 4q8 2 15 6q4 6 7 14q4 6 4 12q2 6 2 17v10q-4 13 -8 24q-2 9 -5 15q0 2 -7 8q-6 6 -12 9l-8 2q-5 0 -11 2q-14 -2 -32 -4q-6 0 -17 -7q-10 -4 -15 -8q-4 -2 -6 -8q-2 -7 -3 -9q-2 -12 -2 -28zM-569 1997q4 0 10 2q17 0 31 2l16 2q17 2 38 -4h9 q28 -6 53 -21q21 -12 42 -32q17 -17 28 -34q-4 15 -9.5 34.5t-8.5 33.5q-6 15 -13.5 29t-17.5 29q-8 8 -15 14q-8 6 -21 13q-5 4 -9 4h-17q-14 -2 -26 -4q-10 -2 -23 -7l-16 -8q-13 -10 -30 -27q-13 -13 -17 -18z" />
<glyph unicode="&#xe4b;" horiz-adv-x="268" d="M-393 1858.5q0 31.5 22.5 55t55.5 23.5h37q30 0 92 2v7v47v10v79q0 31 24 55t55 23t54 -24.5t23 -55.5v-62v-11v-61v-2v-2q15 0 30 2h88q32 0 55 -23.5t24 -55.5t-22.5 -54.5t-54.5 -22.5h-90q-16 -2 -32 -2v-78v-51q0 -31 -23 -54.5t-55.5 -23.5t-55 23.5t-22.5 54.5v51 v76q-58 -2 -90 -2h-37q-30 0 -54 22.5t-24 54z" />
<glyph unicode="&#xe4c;" horiz-adv-x="294" d="M-508 1610q-2 25 4 49q7 23 15 43q10 27 30 51q4 4 8 10l17 17l11 8l4 4q5 4 11 8l2 2q33 25 68 44q35 18 87 30q47 10 104 19q47 4 106 17q54 13 84 30l40 20q28 15 58.5 5.5t44.5 -38t5.5 -59.5t-37.5 -45l-39 -21q-49 -27 -121 -43q-35 -8 -68 -14q13 -19 23 -39 q10 -27 15 -53q4 -23 2 -49q-2 -29 -9 -54q-8 -23 -23 -44q-12 -23 -34 -47q-27 -33 -55 -46q-19 -11 -38 -16q-25 -8 -47 -10q-19 -2 -38 -2q-29 0 -56 8l-28 8q-30 9 -59 33q-25 18 -42 40q-13 19 -22 38q-12 25 -19 51q-4 25 -4 45zM-352 1597q2 -4 4 -10q6 -11 12 -20 q4 -4 13 -10q4 -5 6 -5q17 -6 30 -10h7h22q7 2 12 4q10 2 21 9q4 2 8 8q13 14 19 22q4 8 5 14q2 7 2 15q2 10 0 20q0 6 -2.5 12.5t-6.5 11.5t-9 7l-14 11q-4 2 -6 6l-20 7q-4 2 -13 4q-16 0 -25 -2q-6 -2 -10 -3q-8 -6 -18 -12l-10 -11q-7 -4 -13 -12q-6 -7 -8 -11 q-4 -8 -6 -18v-12v-15z" />
<glyph unicode="&#xe4d;" horiz-adv-x="281" d="M-356 1333q2 31 10 58q9 18 17 40q8 19 19 34l270 -27q-17 0 -33 2h-35q-8 -2 -14.5 -4t-10.5 -7q-12 -8 -24 -20q-10 -10 -19 -20q-6 -9 -10 -19q-8 -19 -11 -30q-3 -7 -3 -13q0 -10 1.5 -19t4.5 -20q4 -8 11 -19.5t20 -21.5q15 -13 28 -22q6 -4 9 -4q12 -5 27 -7 q6 -2 12 -2q13 0 26 2q9 2 13 5q10 4 24 10q10 4 17.5 11t15.5 15q8 13 13 21q2 4 2 8q2 11 4 18v19q0 6 -2 19q-2 14 -6 28q-3 10 -7 19q-2 8 -8 16q-2 2 -6 8q-11 8 -21 14q-8 9 -18 13q-227 25 -270 27q6 10 11 18q15 20 36 39q17 17 32 28q25 21 54 32t61 11 q23 2 46.5 1t45.5 -3l19 -2q21 -1 40 -16q19 -8 36 -21q16 -12 32 -27q21 -18 35 -40q11 -17 19 -35.5t14 -42.5q6 -23 8 -43q4 -25 4 -43q0 -19 -2 -37q-2 -16 -6 -35q-4 -23 -15 -43q-10 -19 -26 -41q-16 -25 -38.5 -43t-49.5 -33q-23 -10 -37 -15q-23 -9 -47 -13 q-21 -2 -39 -4q-25 -2 -54 4q-23 4 -38 10q-27 9 -56 27q-20 14 -40 33q-27 23 -46.5 50t-27.5 54q-11 25 -14 49t-3 49zM-310 1465z" />
<glyph unicode="&#xe4e;" horiz-adv-x="0" d="M-604 1296q13 178 208 184q-61 63 -47.5 137.5t94.5 115.5t206 15q20 -7 33.5 -20t15.5 -23.5t-8.5 -18.5t-33.5 -8q-67 13 -124 -21t-51.5 -91.5t71.5 -63.5q27 -4 31.5 -22t2.5 -27q-3 -6 -10 -17.5t-35 -13.5q-194 -2 -198 -110q13 -66 87.5 -66t97.5 17l-19 -93 q-108 -42 -205 -12.5t-116 138.5z" />
<glyph unicode="&#xe4f;" horiz-adv-x="1077" d="M120 425q0 181 125.5 307t306.5 126q178 0 304.5 -127t126.5 -306q0 -180 -125.5 -305.5t-305.5 -125.5q-181 0 -306.5 126t-125.5 305zM273 425q0 -117 82 -198.5t197 -81.5q116 0 196 82.5t80 197.5q0 117 -80 197t-196 80q-115 0 -197 -80t-82 -197zM350 425 q0 84 58 143.5t144 59.5q84 0 143 -59.5t59 -143.5q0 -85 -58.5 -145.5t-143.5 -60.5q-86 0 -144 60.5t-58 145.5zM479 425q0 -30 21.5 -50.5t51.5 -20.5q28 0 49 20.5t21 50.5q0 28 -20.5 49t-49.5 21q-30 0 -51.5 -21t-21.5 -49z" />
<glyph unicode="&#xe50;" horiz-adv-x="1214" d="M102 285q0 16 2 32q0 15 2 29q0 21 4 39q5 15 7 29q4 19 8 36t10 34.5t12 34.5q6 18 14 34q9 21 21 36q11 17 22 32q13 14 25 30q17 17 39 35q21 19 36 33q17 12 30 21q18 14 38 24q17 8 38 14q19 7 36 13q21 6 41 10q15 4 33 5q23 5 45 7h41q21 0 40 -2t36 -7 q25 -4 55 -17l7 -2q14 0 24 -5l14 -4q21 -6 41 -14q17 -9 33 -20q19 -11 35 -23q12 -11 28 -23q25 -21 42 -45q8 -10 15 -18q11 -14 25 -29q15 -19 26 -32q17 -21 28 -42q10 -19 16 -34q9 -17 14 -37q8 -25 10 -47q2 -15 6 -31q7 -23 9 -49q2 -27 2 -43q2 -21 0 -38 q0 -14 -2 -40q-4 -31 -9 -49q-2 -15 -6 -31q-4 -20 -14 -48t-20 -49l-21 -42q-15 -25 -30 -49q-19 -25 -43 -47q-23 -23 -42 -37q-23 -19 -51 -33q-25 -13 -55 -20q-25 -8 -37 -13q-21 -4 -51 -8q-27 -2 -45 -2h-33q-17 0 -32 2t-41 8q-30 5 -50 11q-13 4 -26 9q-13 2 -23 4 q-17 5 -41 13q-27 8 -57 23q-29 14 -55.5 29.5t-49.5 31.5q-27 19 -49 43q-21 23 -36 47q-15 23 -27 47q-13 25 -23 47q-9 25 -16 49q-6 23 -10 44q-5 19 -9 43q-6 30 -6 51zM257 285q0 -6 5 -23q4 -23 8 -41q2 -14 8 -32q4 -19 11 -31q6 -17 14 -35q11 -17 20 -33 q9 -15 23 -28q11 -13 24 -21q17 -13 37.5 -25t42.5 -22q21 -11 37 -15q17 -6 31 -9q17 -4 31 -9q16 -4 29 -10q10 -2 28 -6q25 -4 34 -4q11 -3 19 -3h25q11 0 30 3q19 2 25 4q15 2 37 10q17 4 28 11q13 6 23 13q15 11 31 27q15 17 26 31t19 29q11 18 16 34q8 17 17 38 q6 18 8 28q4 14 6 27q2 10 4 30q2 27 2 39q3 8 0 21q0 14 -2 32q0 17 -4 31q-4 23 -8 43q-2 11 -4 23q-4 13 -9 20q-6 12 -12 25q-6 10 -12 18q-8 12 -21 27q-14 14 -25 26q-14 17 -26 35q-4 7 -10 11q-17 12 -28 22q-11 6 -21 14q-13 9 -23 13q-6 4 -12 6h-4q-21 -2 -39 6 l-22 10q-13 6 -19 6l-26 4q-15 2 -29 2h-26t-23 -2q-17 -4 -33 -6q-12 -4 -27 -8q-17 -5 -30 -8q-11 -4 -21 -10q-6 -2 -15 -8q-14 -11 -26 -21q-10 -9 -29 -22q-17 -15 -24 -25q-10 -13 -21 -24q-8 -11 -14 -19q-7 -8 -10 -17q-4 -12 -8 -22l-8.5 -25.5t-8.5 -28t-6 -28.5 q-4 -17 -6 -30q-2 -9 -4 -17q0 -17 -3 -29v-22z" />
<glyph unicode="&#xe51;" horiz-adv-x="1234" d="M102 305q0 16 4 35v20l2 23q4 30 15 57q6 19 12 35q7 16 18 42t23 46q15 23 28 41q13 17 27 33q15 19 32 36.5t36 30.5q19 15 45 32q25 14 43 24q21 12 43 20q20 11 40 17q23 8 50 14q23 6 54 10q34 4 59 4q23 -2 45 -6q21 -2 41 -6q25 -7 59 -19t53 -22q15 -6 28 -15 q23 -12 42 -26q15 -10 28 -21q13 -10 25 -18q25 -17 58 -57q27 -32 36 -48q13 -18 23 -38q11 -21 20 -51q8 -25 15 -41q6 -21 10 -42q6 -21 8 -40q5 -19 7 -35q4 -23 2 -53q0 -32 -4 -55q-5 -17 -7 -30q-4 -14 -8 -30q-4 -21 -10 -41q-7 -16 -17 -39q-8 -25 -16 -39 q-6 -16 -21 -40q-14 -28 -26 -47q-16 -23 -39 -46q-21 -23 -47 -41q-29 -21 -51 -32q-19 -9 -35 -17q-17 -6 -35 -13q-21 -6 -43 -10q-19 -4 -39 -5q-21 -2 -45 -2q-27 -2 -45 -2h-33h-43q-20 0 -49 2q-34 4 -59 9l-17 4q-30 11 -45.5 39.5t-7.5 58.5t37 46t59 6l17 -4 q8 -2 28 -4q27 -2 44 -2h32h37q16 0 39 2q21 0 37 2q12 0 25 2q10 2 22 7q12 4 23 7l28 14q10 5 27 17q17 13 28 24q13 13 19 23q10 15 20 35q12 23 18 33q5 12 13 30q8 19 12 34q5 12 7 24q4 14 6 27q4 14 5 30q2 8 2 25v28q-2 17 -6 34q-2 14 -5 28q-2 14 -6 27 q-7 19 -15 43q-8 20 -13 30q-4 10 -10 17q-8 12 -32 40q-15 21 -23 27q-17 13 -33 22q-12 13 -27 23q-8 7 -18 11q-14 8 -29 16q-10 7 -33.5 14.5t-37.5 9.5q-18 5 -35 7l-26 4q-11 0 -32 -4q-25 -2 -42 -7q-15 -4 -28 -8q-17 -6 -34 -14q-14 -4 -26 -12q-17 -10 -42 -25 q-18 -11 -30 -19q-6 -6 -12 -11q28 2 59 -9l23 -6q1 -2 7 -4q19 -2 34 -13l14 -8q21 -15 41 -34q17 -17 28 -35q11 -12 21 -27q10 -17 21 -37q10 -20 18 -42q4 -19 6 -34q4 -16 6 -36q2 -19 0 -39q0 -27 -6 -52q-6 -27 -20 -53q-10 -19 -25 -37q-19 -28 -49 -47 q-25 -16 -53 -25q-23 -6 -49 -9q-25 -2 -47 -2q-25 0 -46 2q-23 2 -49 9q-27 9 -51 23.5t-47 30.5q-25 20 -41 39q-17 21 -33 51q-13 23 -20 37q-11 21 -15 41q-6 25 -6 51zM257 293l5 -10q6 -13 18 -35q9 -14 15 -23l16 -16q14 -11 27.5 -17.5t25.5 -11.5q10 -2 19 -4h24 t28.5 2t27.5 5q8 4 14 8q2 2 4 3q8 11 16 23q2 6 5 13q2 10 2 19v23q0 11 -2 17q-3 12 -7 24q-2 6 -6 13q-4 10 -10 20q-9 13 -16 22q-6 9 -17 19q-8 8 -14 13l-4 4q-7 0 -11 2l-22 6q-8 2 -12 2q-13 0 -26 -2l-34 -8q-4 0 -6 -4q-10 -7 -17 -14t-13 -18q-7 -10 -17 -30 q-8 -17 -10 -27q-3 -8 -3 -12v-6z" />
<glyph unicode="&#xe52;" horiz-adv-x="1408" d="M114 1076q-10 30 5.5 58.5t45 38t58 -5t39.5 -44.5l4 -13q4 -12 8 -27q8 -19 17 -45q10 -30 12 -55q4 -21 6 -41q2 -19 6 -39q6 -25 8 -59q4 -39 8 -59q5 -25 7 -49q2 -29 2 -60v-74q-2 -43 0 -71.5t6 -55.5q4 -33 8 -69q5 -35 6 -83q2 -47 4 -77t4 -59q2 -28 6 -56 q4 -22 17 -55q8 -28 26 -53q10 -13 17 -21q12 -6 21.5 -10.5t23.5 -8.5q12 -4 39 -6q35 -4 55 -5q25 -2 50 -6q20 -3 42.5 -6t53.5 -7q28 -4 46 -4q23 -2 45 -2q23 0 47.5 1t45.5 1q19 0 47 2q27 2 41 6q14 2 29 6q13 5 28 12q13 6 25 21q17 17 24 32q11 19 15 29q2 7 6 23 q6 21 8 33q3 12 5 23l5 40q4 25 6 37q2 17 6 33q2 13 5 26q2 15 4 29q2 11 3 31.5t-1 31.5v36q-2 16 -4 28q-2 14 -5 31q-4 19 -6 37q-2 16 -6 34q-4 17 -9 35q-5 11 -11 16q-6 8 -23 21q-17 10 -28 17h-6q-15 -2 -28 -7.5t-21 -13.5q-5 -2 -7 -6q-8 -15 -14 -31 q0 -4 -2 -10t-9.5 -21.5t-19.5 -21.5t-32.5 -11.5t-47.5 9.5q-12 4 -22 11.5t-15.5 13t-8.5 13t-4 11.5t-1 9v6q-6 16 -10 26q-7 12 -16 25q-4 6 -6 8q-13 6 -32 16q-2 2 -4 2h-20t-20 -2q-9 -2 -28 -8q-16 -4 -24 -10q-10 -6 -25 -21q-12 -10 -19 -25q-5 -6 -7 -11 q7 0 17 2q32 2 55 0l14 -2q12 0 23 -7q17 0 32 -6l13 -6q27 -13 49 -35q14 -14 29 -31q21 -25 32 -47q7 -16 15 -38q8 -29 10 -60q0 -25 -4 -55q-6 -30 -17 -53q-14 -31 -40 -58q-23 -23 -49 -36q-25 -13 -48 -19q-27 -8 -51 -6h-37q-28 2 -55 10q-25 8 -58 26 q-32 23 -53 49q-19 23 -32 51q-15 33 -19 74q-2 23 0 41v2l-2 17q-2 17 -4 29q-4 21 -2 45v30q2 17 4 32q2 18 7 39.5t16 45.5q10 25 24 51q21 37 49 66q27 25 51 39q25 14 57 27q33 10 52 12q16 2 37 4h39q32 -2 68 -21q22 -12 38 -22q21 -13 41 -35q25 17 53 28 q32 15 70 19q45 6 84 -10q28 -11 58 -33q32 -23 53 -47q23 -27 37 -63q10 -29 16 -56q4 -23 9 -44q2 -17 5 -34q2 -19 4 -34q4 -21 4 -43q2 -17 2 -36q2 -20 0 -48.5t-4 -47.5q-2 -14 -4 -27q-2 -16 -5 -32q-2 -15 -5 -28q-2 -15 -6 -40q-4 -23 -6 -34q-2 -17 -6 -33 q-2 -14 -9 -39q-6 -28 -14 -49q-9 -17 -22 -41q-17 -30 -45 -62q-30 -34 -68 -53q-30 -16 -55 -25q-23 -6 -45 -9q-23 -4 -57 -8q-33 -3 -56 -3t-47.5 -1t-49.5 -1q-27 0 -51 2q-25 0 -59 7q-33 2 -55 4.5t-45 6.5q-21 4 -41 4q-23 5 -58 7q-40 4 -67 12q-25 8 -45 17 q-17 8 -33 15q-28 17 -63 64q-30 43 -49 95q-17 45 -23 81l-8 66q-3 33 -5 66q-2 30 -4 77q-2 45 -6 78q-2 31 -5 60q-7 32 -9 67t0 84v76q0 21 -2 39q-2 21 -4 41q-4 27 -8 63q-2 30 -7 51q-6 25 -8 49q-2 19 -6 38q-2 12 -8 30q-7 25 -12 39q-6 16 -10 33zM600 338 q2 -15 4 -23q6 -12 14 -20q5 -6 15 -12q15 -11 20 -11q6 -4 19 -4h30h6q6 2 17 6q6 5 12 11q7 6 7 8q4 8 5 18q2 12 2 25q-2 8 -4 15q-4 14 -8 21q-2 5 -6 11l-23 23q-2 4 -4 4l-10 5h-8l-14 2q-7 0 -25 -2q-7 0 -11 -1q-8 -4 -20 -14q-8 -7 -12 -15t-6 -17q-3 -12 0 -30z " />
<glyph unicode="&#xe53;" horiz-adv-x="1365" d="M102 429q0 24 2 46l8 46q3 20 9 44q6 25 14 54q11 30 20 51q13 25 29 45q17 23 54 53q34 30 61 47q23 14 45 25q28 14 55 20q29 8 56 6q25 -2 55 -9q36 -11 61 -28q19 -12 45 -38q33 -30 49 -64q11 -21 19 -36q11 14 20 30q13 19 34 39t53 41q34 23 85 33q43 6 67 5 t46 -7q16 -5 43 -15q36 -13 67 -35q31 -20 54 -49q20 -25 34.5 -46t22.5 -37.5t17 -34.5q10 -26 16 -58q2 -23 6 -38q2 -19 6 -38q4 -21 4 -43q2 -21 4 -47v-51q0 -25 -6 -47q-2 -19 -8 -44q-7 -23 -8 -36q-2 -17 -6 -35q-2 -14 -6 -33q-4 -23 -7 -36q-4 -15 -8 -29 q-2 -12 -6 -27q-4 -12 -8 -28q-5 -19 -9.5 -39t-10.5 -41q-7 -23 -15 -41l-6 -17q-11 -30 -40.5 -43.5t-59 -2t-43 41t-2.5 58.5l6 16q6 15 10 30q6 19 11 38.5t7 36.5q7 16 9 30q4 14 8 27q2 10 4 22q2 10 6 31q5 23 8 39q2 14 4 27q4 19 10 45q4 25 9 40q2 11 2 23v37 q-2 25 -2 45q-2 14 -5 29q-2 17 -6 32q-4 19 -8 43q-2 15 -4 21q-4 12 -10 22t-16.5 26t-24.5 34q-11 13 -22 22q-13 9 -27 13q-23 8 -35 12q-6 2 -14 2q-9 0 -31 -4q-19 -4 -29 -10q-17 -11 -28 -21t-15 -18q-10 -12 -19 -27l-13 -26q-6 -13 -13 -40q-10 -34 -16 -61 q-7 -25 -13 -47q-6 -25 -8 -35q-4 -28 -80 -23t-76 38q0 8 -2 14q-2 12 -4 25q-2 14 -6 32q-4 15 -10 38q-8 25 -12 44q-6 19 -13 37q-2 15 -8 29q-2 11 -10 26q-7 11 -18 23q-19 17 -29 24q-4 2 -12 4q-14 4 -23 4q-4 0 -12 -2q-9 -2 -19 -6q-19 -10 -34 -20 q-17 -8 -43 -33q-25 -21 -31 -28q-7 -9 -10 -19q-6 -13 -12 -32q-9 -23 -13 -40q-4 -21 -8 -37q-2 -16 -4 -34q-3 -19 -3 -35q0 -17 3 -47q0 -29 4 -47l4 -26q2 2 4 1q30 21 68 33q45 13 81 8l21 -4h11q8 -2 12 -2l12 -2q18 -4 41 -12q31 -13 53 -37q19 -17 35.5 -39.5 t28.5 -42.5q13 -21 18 -43q6 -21 12 -43q7 -27 5 -51q0 -21 -5 -45q-6 -27 -16 -52q-13 -23 -35 -49q-21 -25 -47 -43q-27 -19 -51 -26q-25 -10 -59 -10h-40q-25 0 -47 6q-19 4 -45 13q-25 13 -45 21q-25 15 -47 33q-22 23 -40 52q-19 28 -29 58q-3 13 -5 25q-2 4 -4 9 l-4 14q-8 21 -14 53q-6 29 -10 65l-8 60q-4 27 -9 50q-4 27 -6 64t-2 61zM311 88q0 -9 3 -17.5t9 -17.5q6 -10 15 -19q8 -6 14 -9q15 -8 33 -15q16 -8 25 -10h9h34h12q4 2 12 8q10 9 20 19q9 11 11 14q2 6 4 14q2 13 2 19q0 4 -2 14q-2 14 -6 27q-2 8 -9 16q-6 11 -16.5 25 t-17.5 24l-4 3q-4 2 -11 2l-12 2q-2 0 -6 2h-9l-20 2q-4 2 -14 -2q-17 -4 -28 -13q-13 -8 -23 -21q-11 -12 -13 -17q-6 -11 -8 -23q-4 -15 -4 -27z" />
<glyph unicode="&#xe54;" horiz-adv-x="1512" d="M104 305q-2 38 2 95q4 55 13 89q6 31 16 64q11 36 24 70q17 32 39 63q23 31 68 71q41 39 76 64q34 25 70 43q38 21 74 33.5t88 19.5q47 8 83 8q43 3 80 -4q37 -6 67 -15q25 -11 62 -28q34 -16 57 -24q19 -8 36 -12q25 -6 46 -13q11 -2 31 -4q12 0 19 2q14 5 24 11 q12 6 27 19q16 14 42 42q29 29 47 54q17 22 32 46q14 26 24 50l12 29q13 28 43.5 40.5t60.5 0t41 -43.5t-1 -59l-12 -29q-15 -32 -34 -66q-18 -34 -43 -64q-22 -29 -57 -66q-32 -35 -57 -55q-25 -19 -47 -34q-25 -14 -53 -22q-35 -12 -79 -10q-36 2 -64 10q-19 6 -40 11 q-27 8 -55 17q-27 11 -63 28q-32 16 -54 21q-17 7 -39 11q-21 4 -45 2q-28 0 -67 -6q-39 -7 -62.5 -14.5t-50.5 -22.5q-27 -14 -53 -33q-27 -21 -62 -51q-32 -28 -45 -47q-14 -19 -24 -39q-10 -23 -16 -47q-9 -30 -15 -55q-6 -23 -8 -66q-5 -45 -2 -76q2 -30 6 -57 q4 -23 12 -43q9 -23 21 -43q15 -23 41 -57q25 -31 43 -45q23 -17 45 -31q20 -13 44 -20q27 -9 56 -15q27 -6 50 -6q23 -2 55 0q34 2 55 4q13 2 20 4q17 9 34 15q6 4 21 13q13 11 19 19q13 15 21 25q4 6 5 14q7 12 13 33q4 15 8 24q-10 11 -19 21q-34 39 -55 68 q-23 30 -34 55l-9 18q-14 27 -4 57v27q2 31 17 66q14 30 30 57q19 31 48 54q30 27 67 38q34 13 66 15q25 0 44 -2l15 -2q6 -2 13 -4q25 -5 49 -17q27 -13 51 -33q19 -16 34 -33q23 -21 38 -49q10 -19 17 -39q11 -30 11 -59q2 -23 -4 -49q-4 -27 -14 -51q-10 -30 -29 -51 q-17 -23 -39 -40q-18 -12 -37.5 -23t-40.5 -18q19 -16 39 -30q51 -41 114 -86l68 -47q27 -19 32 -51.5t-13.5 -58t-50 -30.5t-57.5 12l-66 48q-70 47 -123 90q-19 15 -35 28q-8 -23 -21 -41q-10 -14 -28 -36q-23 -25 -51 -45q-28 -21 -49 -29q-15 -6 -33 -15 q-27 -12 -62 -15q-28 -5 -68 -7t-73 0q-32 2 -72 11q-36 6 -72 18q-38 14 -73 33q-32 19 -63 43q-33 27 -70 72q-33 40 -51.5 71t-32.5 67q-14 39 -21 79q-4 34 -8 71zM864 362q0 -6 2 -9q2 -2 8 -9q13 -12 23 -18q8 -7 18 -11q14 -6 29 -10q12 -5 23 -6h11q9 0 19 2 q6 3 11 4q12 6 19 14q7 4 13 11l6 12q4 11 6 20v21v6q-6 13 -12 23q-2 4 -6 10q-13 10 -26 22q-11 9 -19 13l-13 6l-11 2h-4q-9 2 -21 2q-6 0 -19 -6q-10 -2 -18 -8q-10 -11 -16 -21q-11 -15 -17 -32q-6 -13 -6 -19v-19z" />
<glyph unicode="&#xe55;" horiz-adv-x="1608" d="M102 297q0 35 1 57.5t3 47.5q4 21 6 42q7 25 21 62q13 34 24 57q15 23 29 43q15 19 31 37q16 21 34 39q21 19 52 43q29 21 49 35q25 18 49 31q29 14 52 20q16 4 42 10q33 8 56 13q23 2 40 2q23 0 51 -2q15 -2 28 -2q-19 18 -30 30q-18 25 -28 48q-10 25 -14 60 q-5 41 8 76q10 33 34 66q25 30 52 51q26 21 47 31q23 10 45 16q27 9 56 6q25 -2 51 -6q25 -4 43 -10q25 -4 46 -16q25 -10 62 -39q41 -33 59 -67q17 -28 24.5 -49t9.5 -42q4 -21 3.5 -44.5t-7.5 -59.5q-2 -11 -9 -25q13 4 24 8q19 8 54 21q28 10 43 16q13 7 20 12 q13 8 38 27q27 21 43 32q10 9 17 17l15 15q21 23 53.5 22.5t55 -22t23.5 -54.5t-22 -55l-12 -14q-19 -19 -39 -35q-16 -10 -40 -29q-27 -21 -43 -30q-19 -15 -42 -25q-21 -11 -57 -24q-35 -13 -53 -19q-21 -8 -41 -15q-21 -6 -55 -14q-35 -7 -62 -8q-23 -2 -44.5 -1t-49.5 8 h-8q-21 -7 -39 -11q-19 -4 -37 -8q-19 -2 -39 -4q-23 -4 -51 -4q-32 0 -53 4q-13 2 -25 4q-13 2 -26 2q-19 2 -43 4q-19 2 -32 2q-12 0 -26 -2q-12 -2 -35 -6q-27 -8 -43 -13q-6 -2 -19 -8q-14 -6 -30 -18q-19 -14 -47 -33q-23 -19 -35 -28q-13 -15 -24 -29q-15 -17 -25 -31 q-9 -12 -16 -25l-19 -38q-8 -21 -10 -34q-2 -16 -4 -34q-5 -17 -5 -33v-44q3 -28 5 -42q4 -21 10 -41q4 -16 10 -34q7 -19 19 -48q13 -25 20 -35q8 -10 19 -21q12 -10 24 -17q17 -11 44 -25q27 -15 42 -20.5t29 -10.5q18 -4 35 -8q15 -4 28 -4q25 0 53 -4q21 -2 34 -2 q8 0 16 2q16 4 31 6q8 4 16 6q9 4 22 13q11 6 25 18q13 10 22 25q15 18 25 36q13 21 18 33q2 5 4 8q-25 25 -42 46q-31 38 -41 66l-6 15q-5 17 -5 31q-4 19 -6 41q-4 37 4 74q11 32 30 63q18 32 46 57q23 21 43 33q17 11 35 20q25 13 51 21q25 4 48 4q21 0 40 -6 q23 -4 50 -19l8 -4q14 -4 26 -9l12 -11q21 -12 39 -29q23 -21 40 -49q16 -28 22 -64q4 -25 2 -62q0 -45 -14 -83q-14 -32 -33 -59t-41 -45q-28 -23 -59 -34q-5 -2 -9 -2q56 -45 128 -97l77 -54q27 -18 32 -50.5t-13.5 -58t-50 -31t-58.5 11.5l-78 55q-81 58 -141 109 q-8 6 -17 11q-4 -6 -8 -11q-15 -25 -32 -49q-21 -28 -45 -50q-25 -23 -47 -37q-23 -12 -44 -21q-19 -8 -39 -11q-18 -4 -30 -9q-25 -6 -51 -6q-23 -2 -55 2q-21 4 -40 4q-28 3 -55 9q-21 4 -43 10q-23 6 -46.5 15t-57.5 28q-35 19 -56 32q-23 15 -40 32q-23 20 -40 42 q-19 23 -37 64q-18 35 -26 62q-8 25 -14 49q-6 23 -11 45q-6 28 -8 67zM753 983q0 -9 2 -13t6 -11q9 -11 32 -31q20 -19 36 -29q23 -14 39 -25q12 -6 19 -10q12 -4 26 -7q2 0 4 -3q17 13 29 22q13 11 24 27q6 7 8 14q5 23 5 29.5v12.5q-3 10 -7 18q-2 8 -9 25q-6 8 -21 22 q-21 14 -29 18q-11 4 -18 7q-17 4 -40 8q-18 4 -28 4q-2 2 -6 0q-8 -2 -19 -6q-6 -4 -18 -15q-12 -8 -22 -22q-11 -12 -13 -21q-2 -4 0 -14zM862 353q2 -13 4 -21q4 -11 12 -23q4 -9 13 -14q8 -6 21 -12q14 -4 24 -6.5t20 -2.5q15 0 27 2q10 3 20 5q5 2 11 8q10 6 18 18 q6 10 12 25q4 10 4 28q0 25 -2 37q0 5 -2 11q-4 6 -8 9q-11 9 -16 13l-2 2h-2q-11 4 -17 6l-19 11q-6 4 -10 4q-6 2 -9 2q-5 0 -9 -1t-12 -5q-13 -7 -25 -15q-9 -6 -24 -19q-11 -10 -17 -20q-8 -12 -10 -25q-2 -8 -2 -17z" />
</font>
</defs>
</svg>
