<?xml version="1.0" standalone="no"?>
<!DOCTYPE svg PUBLIC "-//W3C//DTD SVG 1.1//EN" "http://www.w3.org/Graphics/SVG/1.1/DTD/svg11.dtd" >
<svg xmlns="http://www.w3.org/2000/svg" xmlns:xlink="http://www.w3.org/1999/xlink" version="1.1">
<metadata></metadata>
<defs>
<font id="namteng_2017regular" horiz-adv-x="0" >
<font-face units-per-em="2048" ascent="1638" descent="-410" />
<missing-glyph horiz-adv-x="651" />
<glyph unicode="&#xd;" horiz-adv-x="681" />
<glyph unicode=" "  horiz-adv-x="651" />
<glyph unicode="&#x09;" horiz-adv-x="651" />
<glyph unicode="&#xa0;" horiz-adv-x="651" />
<glyph unicode="!" horiz-adv-x="681" d="M227 1247q0 63 34 101t81 38t80 -37.5t33 -111.5q0 -25 -4 -68l-91 -811h-38l-89 811q-6 53 -6 78zM229 84q0 43 33 76t78 33t78 -33t33 -76q0 -47 -33 -80t-78 -33t-78 33t-33 80z" />
<glyph unicode="&#x22;" horiz-adv-x="835" d="M133 1266q0 63 26.5 91.5t71.5 28.5q43 0 73 -29.5t30 -76.5q0 -41 -27 -182l-53 -295h-43l-55 297q-23 121 -23 166zM498 1266q0 63 28.5 91.5t73.5 28.5q43 0 71.5 -28.5t28.5 -77.5q0 -86 -18 -184l-57 -293h-50l-53 293l-22 121q-2 25 -2 49z" />
<glyph unicode="#" horiz-adv-x="1024" d="M37 426v84h186l70 342h-256v80h274l92 454h82l-90 -454h336l98 454h82l-94 -454h170v-80h-184l-72 -342h256v-84h-272l-92 -455h-82l92 455h-340l-94 -455h-84l94 455h-172zM307 510h340l72 342h-340z" />
<glyph unicode="$" horiz-adv-x="1024" d="M109 51v283h43q12 -137 86.5 -210t224.5 -87v584q-225 139 -301 245q-53 76 -53 187q0 123 92 215t262 110v92h63v-92q82 -6 138 -18q29 -8 192 -70v-299h-39q-12 160 -81.5 232.5t-209.5 87.5v-508q252 -176 324 -259t72 -208q0 -137 -104.5 -242.5t-291.5 -122.5v-127 h-63v127q-94 4 -175 21.5t-179 58.5zM264 1116q0 -72 44 -135t155 -135v465q-100 -12 -149.5 -64.5t-49.5 -130.5zM526 37q74 12 115 37q55 35 88 91t33 122t-40 124t-196 167v-541z" />
<glyph unicode="%" horiz-adv-x="1705" d="M72 1018q0 104 40 193t109.5 132t143.5 43q135 0 208.5 -111.5t73.5 -256.5q0 -174 -84 -269.5t-201 -95.5q-80 0 -145 44t-105 130t-40 191zM231 1020q0 -139 23 -213q16 -55 51 -84q23 -18 53 -18q47 0 82 51q49 78 49 258q0 188 -49 266q-31 51 -80 51 q-51 0 -90 -60.5t-39 -250.5zM315 -55l988 1441h90l-990 -1441h-88zM1061 307q0 106 39 193.5t107.5 130.5t138.5 43q72 0 142.5 -45t108 -131t37.5 -191q0 -176 -85 -269t-199 -93q-74 0 -142.5 45t-107.5 128t-39 189zM1219 301q0 -178 47 -250q33 -51 82 -51q45 0 82 55 q47 72 47 250q0 188 -47 264q-33 52 -82 52t-84 -56q-45 -70 -45 -264z" />
<glyph unicode="&#x26;" horiz-adv-x="1593" d="M76 266q0 121 87 242t326 250q-47 104 -64 170.5t-17 128.5q0 170 127 260q98 70 223 69q119 0 193.5 -70.5t74.5 -172.5q0 -106 -72.5 -186t-257.5 -175q127 -227 267 -413q176 209 176 354q0 45 -31 82q-23 27 -64 31v36h420v-36q-86 -6 -128 -38t-130 -190.5 t-196 -298.5q88 -102 157.5 -144t141.5 -42q70 0 118 38t66 109l39 -26q-39 -141 -121 -208t-190 -67q-82 0 -166 44t-185 151q-125 -111 -224 -153t-212 -42q-166 0 -262 88t-96 209zM283 358q0 -106 68.5 -187t185.5 -81q63 0 121.5 24.5t158.5 106.5q-131 180 -182 263 t-113 206q-119 -68 -179 -150.5t-60 -181.5zM580 1135q0 -49 16.5 -109.5t67.5 -177.5q123 57 184 133t61 168q0 72 -44 119t-109 47q-88 0 -132 -60.5t-44 -119.5z" />
<glyph unicode="'" horiz-adv-x="368" d="M82 1266q0 63 25.5 91.5t70.5 28.5t75 -29.5t30 -76.5q0 -37 -27 -182l-53 -295h-45l-54 297q-23 123 -22 166z" />
<glyph unicode="(" horiz-adv-x="681" d="M84 492q0 309 152.5 565t400.5 364v-41q-125 -68 -204 -186.5t-118 -298.5t-39 -379q0 -213 33 -389q27 -137 64 -220t99.5 -160.5t164.5 -147.5v-37q-152 76 -254 178q-143 145 -221 342t-78 410z" />
<glyph unicode=")" horiz-adv-x="681" d="M45 -401q125 70 204 187.5t118 298.5t39 378q0 213 -33 389q-27 137 -64 220t-99.5 160.5t-164.5 147.5v41q154 -74 254 -176q143 -145 221 -341.5t78 -409.5q0 -311 -152.5 -566.5t-400.5 -365.5v37z" />
<glyph unicode="*" horiz-adv-x="1024" d="M145 840q0 25 20.5 52.5t61.5 45.5q27 10 123 31q61 12 121 39q-53 27 -129 41q-123 27 -152 47q-45 33 -45 80q0 27 22.5 49t51.5 22q35 0 72 -20.5t91.5 -84t111.5 -98.5q-4 68 -27 138q-35 98 -35 135q0 51 24.5 77.5t59.5 26.5q33 0 55.5 -26.5t22.5 -75.5 q0 -45 -26.5 -126t-32.5 -149q55 35 100 84q68 80 100.5 98.5t67.5 18.5q33 0 55.5 -22.5t22.5 -53.5q0 -37 -34 -65.5t-165 -56.5q-78 -18 -127 -39q51 -27 127 -41q121 -23 158 -55.5t37 -71.5q0 -31 -23 -52.5t-51 -21.5q-31 0 -68 20.5t-98 94.5q-41 49 -102 92 q2 -57 22 -125q37 -119 37 -162q0 -39 -23.5 -66.5t-52.5 -27.5q-37 0 -65 29q-23 20 -23 67t23.5 114.5t29.5 93.5t11 77q-59 -39 -103 -88q-74 -82 -110 -105q-25 -14 -54 -14q-35 0 -58.5 22.5t-23.5 51.5z" />
<glyph unicode="+" horiz-adv-x="1155" d="M37 639v84h498v496h79v-496h500v-84h-500v-498h-79v498h-498z" />
<glyph unicode="," horiz-adv-x="512" d="M111 82q0 47 36.5 83t92.5 36q66 0 117 -57.5t51 -153.5q0 -102 -71.5 -191.5t-225.5 -140.5v45q102 35 158.5 105.5t56.5 150.5q0 20 -9 33q-8 8 -14 8q-10 0 -47 -18q-18 -10 -39 -11q-49 0 -77.5 30t-28.5 81z" />
<glyph unicode="-" horiz-adv-x="681" d="M84 383v152h516v-152h-516z" />
<glyph unicode="." horiz-adv-x="512" d="M145 84q0 45 33 78t78 33q47 0 79 -33t32 -78q0 -47 -33 -80t-78 -33t-78 33t-33 80z" />
<glyph unicode="/" horiz-adv-x="569" d="M2 -29l492 1450h79l-489 -1450h-82z" />
<glyph unicode="0" horiz-adv-x="1024" d="M74 670q0 231 69.5 399t186.5 250q90 66 186 65q156 0 281 -159q154 -197 153 -535q0 -236 -67.5 -400.5t-173 -239.5t-203.5 -75q-195 0 -324 230q-108 193 -108 465zM270 645q0 -281 70 -457q55 -150 170 -149q53 0 111.5 48t87.5 163q47 172 47 485q0 231 -49 387 q-35 115 -93 162q-41 35 -100 35q-68 0 -121 -62q-72 -84 -97.5 -262t-25.5 -350z" />
<glyph unicode="1" horiz-adv-x="1024" d="M240 1223l329 161h33v-1144q0 -115 10.5 -142.5t40 -43t121.5 -17.5v-37h-510v37q96 2 124 16.5t39 39t11 147.5v731q0 147 -10 190q-6 33 -25.5 47.5t-44.5 14.5q-37 0 -102 -31z" />
<glyph unicode="2" horiz-adv-x="1024" d="M43 0v37q354 322 497.5 526.5t143.5 372.5q0 129 -79 212t-187 83q-100 0 -180 -58.5t-117 -171.5h-37q25 184 128 283.5t257 99.5q166 0 276.5 -106.5t110.5 -249.5q0 -102 -47 -207q-76 -162 -242 -342q-248 -272 -311 -327h354q109 0 153 8t79 31.5t59 68.5h37 l-94 -260h-801z" />
<glyph unicode="3" horiz-adv-x="1024" d="M84 84q0 29 22.5 50.5t57.5 21.5q25 0 49 -9q18 -4 77.5 -35.5t84.5 -37.5q37 -10 78 -11q102 0 178 79t76 188q0 78 -35 153q-27 55 -58 84q-43 41 -117.5 74t-154.5 33h-31v28q78 10 158 57.5t116 113t36 145.5q0 102 -64.5 165.5t-161.5 63.5q-154 0 -258 -166l-33 17 q57 137 146.5 211.5t220.5 74.5q164 0 250 -106q66 -80 65 -168q0 -150 -186 -307q125 -49 189.5 -140.5t64.5 -213.5q0 -176 -113 -306q-145 -168 -422 -168q-137 0 -186 34t-49 75z" />
<glyph unicode="4" horiz-adv-x="1024" d="M33 358v127l629 899h108v-884h182v-142h-182v-358h-164v358h-573zM129 500h477v674z" />
<glyph unicode="5" horiz-adv-x="1024" d="M98 109q0 29 22.5 50t57.5 21q27 0 46.5 -8t66.5 -41q76 -51 151 -51q117 0 206 88t89 215q0 123 -78.5 229.5t-218.5 163.5q-109 45 -297 53l260 527h486l-78 -170h-408l-90 -182q266 -39 420 -197q133 -135 133 -320q0 -106 -43 -197t-109.5 -155.5t-146.5 -103.5 q-115 -55 -235 -56q-123 0 -178.5 42t-55.5 92z" />
<glyph unicode="6" horiz-adv-x="1024" d="M88 532q0 182 72.5 346t209 291t260.5 171t230 44h58v-36q-131 -14 -215.5 -53.5t-165 -120t-135 -180t-89.5 -236.5q143 98 289 98q139 0 240.5 -111.5t101.5 -287.5q0 -170 -102 -312q-123 -170 -328 -170q-139 0 -235 93q-190 180 -191 464zM279 467q0 -96 34.5 -209 t106.5 -178q49 -47 123 -47q88 0 156.5 82t68.5 233q0 170 -68.5 295t-193.5 125q-37 0 -81 -15.5t-128 -68.5q-18 -135 -18 -217z" />
<glyph unicode="7" horiz-adv-x="1024" d="M76 1034l131 322h727v-37l-453 -1348h-112l405 1223h-373q-113 0 -161 -29q-84 -45 -136 -141z" />
<glyph unicode="8" horiz-adv-x="1024" d="M125 309q0 90 60.5 178.5t207.5 194.5q-162 133 -208 213t-46 166q0 133 101.5 228t271.5 95q164 0 264.5 -89t100.5 -203q0 -76 -54.5 -155t-224.5 -185q174 -137 231 -215q76 -102 76 -215q0 -143 -108.5 -245t-284.5 -102q-195 0 -301 121q-86 98 -86 213zM276 313 q0 -129 71 -205.5t179 -76.5q109 0 174.5 60.5t65.5 148.5q0 72 -39 129q-72 104 -287 276q-84 -70 -124 -152.5t-40 -179.5zM285 1128q0 -51 26.5 -103t73.5 -99l166 -135q119 106 150.5 169.5t31.5 141.5q0 104 -58.5 163.5t-160.5 59.5t-165.5 -58.5t-63.5 -138.5z" />
<glyph unicode="9" horiz-adv-x="1024" d="M82 897q0 178 100 317q123 170 322 170q168 0 287 -139q145 -170 145 -422q0 -225 -110.5 -420.5t-309.5 -324.5q-162 -106 -350 -107h-57v37q129 2 241.5 60.5t217 205t145.5 322.5q-158 -102 -285 -102q-143 0 -244.5 110.5t-101.5 292.5zM258 1001q0 -211 90 -329 q66 -86 160 -86q47 0 109.5 21.5t109.5 62.5q18 129 18 207q0 98 -32.5 209.5t-93 172t-138.5 60.5q-88 0 -155.5 -80t-67.5 -238z" />
<glyph unicode=":" horiz-adv-x="569" d="M176 84q0 45 33 78t78 33q47 0 79.5 -33t32.5 -78q0 -47 -32.5 -80t-79.5 -33q-45 0 -78 33t-33 80zM178 834q0 45 33 77.5t78 32.5q47 0 78.5 -32.5t31.5 -77.5q0 -47 -31.5 -79t-78.5 -32q-45 0 -78 31.5t-33 79.5z" />
<glyph unicode=";" horiz-adv-x="569" d="M141 82q0 47 38 83t91 36q68 0 119 -57.5t51 -153.5q0 -102 -71.5 -191.5t-227.5 -140.5v45q104 35 160.5 105.5t56.5 150.5q0 20 -10 33q-6 8 -12 8q-12 0 -49 -18q-18 -10 -37 -11q-49 0 -79 30t-30 81zM170 836q0 45 33 76.5t80 31.5q45 0 77.5 -31.5t32.5 -76.5 q0 -47 -32.5 -79t-77.5 -32q-47 0 -80 31.5t-33 79.5z" />
<glyph unicode="&#x3c;" horiz-adv-x="1155" d="M39 657v50l1075 464v-86l-926 -403l926 -406v-90z" />
<glyph unicode="=" horiz-adv-x="1155" d="M37 475v82h1079v-82h-1079zM37 801v82h1079v-82h-1079z" />
<glyph unicode="&#x3e;" horiz-adv-x="1155" d="M37 186v86l928 404l-928 405v90l1075 -469v-49z" />
<glyph unicode="?" horiz-adv-x="909" d="M92 1100q0 113 97.5 199.5t263.5 86.5q205 0 303 -118q72 -88 71 -197q0 -72 -32.5 -148.5t-122.5 -181.5q-145 -164 -178 -232.5t-39 -189.5h-41q6 127 30.5 209t102.5 230q59 113 76.5 173t17.5 124q0 127 -66.5 201.5t-164.5 74.5q-88 0 -138.5 -41t-50.5 -90 q0 -37 31 -90t31 -82q0 -37 -23.5 -61.5t-56.5 -24.5q-41 0 -76 42t-35 116zM330 84q0 47 31.5 80t78.5 33t80 -33t33 -80q0 -45 -34 -78t-79 -33q-47 0 -78.5 33t-31.5 78z" />
<glyph unicode="@" horiz-adv-x="1886" d="M96 444q0 264 124 492.5t348.5 356.5t473.5 128q207 0 374 -85t254 -249.5t87 -349.5q0 -182 -82 -362t-208 -262t-263 -82q-76 0 -113.5 35.5t-37.5 101.5q0 55 16 147q-147 -180 -236.5 -232t-156.5 -52q-72 0 -126 63.5t-54 167.5q0 145 94 325.5t250 293.5 q115 84 207 84q66 0 110.5 -35t61.5 -105l32 111l156 22l-117 -399q-63 -223 -77.5 -283.5t-14.5 -97.5q0 -31 21.5 -53.5t54.5 -22.5q72 0 174 74t176 238t74 342q0 170 -83 315.5t-233.5 222t-332.5 76.5q-231 0 -429 -122t-314 -352t-116 -478q0 -229 101.5 -417.5 t286 -285t397.5 -96.5q262 0 475 141.5t328 411.5h57q-88 -274 -325.5 -444t-540.5 -170q-238 0 -441.5 112.5t-317.5 319.5t-114 454zM653 293q0 -63 36 -102t79 -39q57 0 121.5 44t134.5 135t102 183q55 160 56 258q0 68 -36 107t-89 39q-76 0 -152 -80 q-113 -115 -192 -314q-59 -143 -60 -231z" />
<glyph unicode="A" horiz-adv-x="1478" d="M16 0v37q84 14 111 39q49 49 113 194l477 1116h35l471 -1128q57 -135 103 -175t130 -46v-37h-534v37q80 4 108.5 26.5t28.5 57.5q0 43 -39 137l-82 197h-526l-93 -215q-32 -76 -32 -115q0 -35 28.5 -58.5t126.5 -29.5v-37h-426zM442 528h467l-229 547z" />
<glyph unicode="B" horiz-adv-x="1366" d="M35 0v37h51q84 0 121 53q22 35 22 141v9v876q0 125 -28 160q-39 43 -115 43h-51v37h586q164 0 262 -25q150 -35 229.5 -127t79.5 -211q0 -100 -62.5 -181t-183.5 -120q141 -31 211 -96q96 -92 96 -225q0 -100 -63.5 -192.5t-175 -135.5t-340.5 -43h-639zM422 98 q113 -26 221 -26h8q180 0 275.5 80.5t95.5 201.5q0 78 -43 152t-140.5 116t-240.5 42q-61 0 -105 -2.5t-71 -8.5v-555zM422 745q37 -6 85 -10t103 -4q147 0 220 32t112 97.5t39 140.5q0 119 -96.5 203t-282.5 84q-100 0 -180 -20v-523z" />
<glyph unicode="C" horiz-adv-x="1366" d="M74 657q0 203 91 373t250.5 263t348.5 93q147 0 291 -71q41 -23 59 -23q27 0 47 21q27 27 37 73h35l31 -460h-31q-61 207 -177 298t-276 91q-135 0 -244.5 -68.5t-172 -218t-62.5 -373.5q0 -184 59.5 -319t178 -207t270.5 -72q131 0 232.5 56.5t222.5 224.5l30 -21 q-100 -180 -236 -264t-325 -84q-336 0 -520 250q-139 186 -139 438z" />
<glyph unicode="D" horiz-adv-x="1478" d="M35 0v37h51q86 0 123 55q20 33 20 148v876q0 127 -26 160q-39 43 -117 43h-51v37h553q303 0 461.5 -68.5t255 -230.5t96.5 -373q0 -283 -172 -471q-193 -213 -588 -213h-606zM422 98q123 -28 207 -28h6q231 0 385 162.5t154 443.5t-154 442.5t-393 161.5q-90 0 -205 -29 v-1153z" />
<glyph unicode="E" horiz-adv-x="1251" d="M43 0v37h47q47 0 90 22q33 16 44.5 48t11.5 133v880q0 129 -25 160q-37 39 -121 39h-47v37h1044l15 -297h-39q-20 106 -46 146t-77 63q-39 14 -139 14h-373v-537h297q117 0 156 35q53 47 57 162h39v-471h-39q-12 98 -27 127q-18 35 -59 55.5t-127 20.5h-297v-449 q0 -90 8 -109.5t27.5 -30.5t77.5 -11h229q115 0 167 16t99 64q63 61 127 186h41l-117 -340h-1044z" />
<glyph unicode="F" horiz-adv-x="1138" d="M33 0v37h49q84 0 121 49q24 32 24 145v9v876q0 102 -14 135q-8 27 -41 43q-43 25 -90 25h-49v37h1009l13 -297h-35q-27 94 -60.5 138t-85 64.5t-155.5 20.5h-299v-532h246q86 0 124.5 36.5t53.5 149.5h37v-461h-37q-2 80 -21.5 117t-54.5 55.5t-102 18.5h-246v-426 q0 -102 12 -136q10 -25 41 -43q43 -24 88 -24h4h49v-37h-581z" />
<glyph unicode="G" horiz-adv-x="1478" d="M158 999q102 195 280 301q150 86 353 86q74 0 134 -11t171 -52q55 -23 75 -23q18 0 32 17.5t18 68.5h36l35 -428h-35q-53 160 -137 242q-121 117 -311 117q-258 0 -393 -205q-115 -174 -115 -412q0 -195 76 -354.5t196.5 -234t249.5 -74.5q74 0 144.5 19.5t136.5 56.5 v391q0 102 -16.5 134t-48 48t-113.5 16v37h524v-37h-25q-78 0 -106 -53q-20 -37 -21 -145v-416q-115 -61 -227.5 -90t-249.5 -29q-393 0 -596 252q-153 187 -153 433q0 181 86 345z" />
<glyph unicode="H" horiz-adv-x="1478" d="M35 0v37h49q84 0 121 49q24 32 24 145v9v874q0 104 -14 137q-8 27 -41 43q-43 25 -90 25h-49v37h581v-37h-49q-49 0 -92 -23q-31 -16 -42 -49t-11 -133v-387h629v387q0 104 -13 137q-10 27 -43 43q-43 25 -90 25h-49v37h582v-37h-49q-47 0 -91 -23q-33 -16 -44 -49 t-11 -133v-874q0 -102 12 -136q10 -25 41 -43q43 -24 89 -24h4h49v-37h-582v37h49q82 0 121 49q25 33 25 154v413h-629v-413q0 -102 12 -136q10 -25 41 -43q41 -24 88 -24h4h49v-37h-581z" />
<glyph unicode="I" horiz-adv-x="681" d="M51 0v37h47q84 0 123 49q25 33 25 154v876q0 102 -15 135q-10 27 -41 43q-43 25 -92 25h-47v37h582v-37h-49q-84 0 -121 -49q-27 -33 -27 -154v-876q0 -102 15 -136q10 -25 41 -43q41 -24 88 -24h4h49v-37h-582z" />
<glyph unicode="J" horiz-adv-x="796" d="M43 123q0 47 25 74q32 30 72 30h3q33 0 58.5 -21.5t64.5 -111.5q23 -53 60 -53q27 0 50 32.5t23 116.5v926q0 102 -14 135q-8 27 -41 43q-43 25 -90 25h-49v37h579v-37h-49q-82 0 -121 -49q-22 -32 -22 -144v-10v-663q0 -154 -34 -248t-116 -165t-198 -71 q-94 0 -147.5 46t-53.5 108z" />
<glyph unicode="K" horiz-adv-x="1478" d="M35 0v37h47q84 0 123 49q22 32 22 144v10v876q0 102 -12 137q-10 25 -41 41q-45 25 -92 25h-47v37h577v-37h-47q-47 0 -90 -23q-31 -16 -43 -47.5t-12 -132.5v-416q20 20 137 127q297 272 358 365q27 39 27 70q0 23 -20.5 40t-69.5 17h-33v37h500v-37q-45 0 -81 -11.5 t-88 -43t-128 -101.5q-23 -20 -203 -205l-207 -206l500 -496q123 -125 210 -169t173 -50v-37h-643v37q57 0 83 19.5t26 43.5q0 25 -10.5 43.5t-61.5 69.5l-469 465v-438q0 -102 12 -136q10 -25 43 -43q41 -24 86 -24h4h47v-37h-577z" />
<glyph unicode="L" horiz-adv-x="1251" d="M41 0v37h51q86 0 123 55q20 33 21 150v874q0 127 -27 160q-39 43 -117 43h-51v37h614v-37h-18q-95 1 -133 -19q-42 -22 -59 -54t-17 -152v-852q0 -84 16 -115q12 -20 37 -30.5t156 -10.5h98q158 0 220.5 22.5t115 82t103.5 184.5l32 -6l-114 -369h-1051z" />
<glyph unicode="M" horiz-adv-x="1820" d="M35 0v37h47q86 0 123 51q20 33 20 148v884q0 90 -18 131q-14 29 -52 48.5t-120 19.5v37h383l491 -1061l486 1061h383v-37h-47q-86 0 -123 -51q-23 -33 -23 -148v-884q0 -125 29 -156q37 -43 117 -43h47v-37h-576v37h47q88 0 123 51q23 33 23 148v905l-525 -1141h-32 l-525 1141v-905q0 -125 29 -156q37 -43 117 -43h47v-37h-471z" />
<glyph unicode="N" horiz-adv-x="1478" d="M-27 1319v37h369l827 -1016v780q0 125 -26 158q-37 41 -119 41h-45v37h471v-37h-47q-86 0 -123 -51q-23 -33 -23 -148v-1143h-34l-895 1092v-833q0 -125 26 -156q39 -43 117 -43h49v-37h-473v37h47q88 0 123 51q23 33 23 148v942q-59 70 -89 91t-90 42q-29 8 -88 8z" />
<glyph unicode="O" horiz-adv-x="1478" d="M72 682q0 324 221 528q191 176 457 176q264 0 457.5 -200.5t193.5 -499.5q0 -309 -195.5 -513t-472.5 -204q-281 0 -471 199t-190 514zM301 686q0 -332 141 -510q111 -135 289 -135q190 0 315 148.5t125 469.5q0 348 -137 519q-110 137 -305 137q-180 0 -291 -135 q-137 -168 -137 -494z" />
<glyph unicode="P" horiz-adv-x="1138" d="M35 0v37h51q84 0 123 55q18 33 18 148v876q0 127 -26 160q-39 43 -115 43h-51v37h495q182 0 288 -38t177.5 -126t71.5 -211q0 -166 -109.5 -270.5t-310.5 -104.5q-49 0 -105 7.5t-122 21.5v-395q0 -127 29 -158q37 -45 114 -45h51v-37h-579zM420 692q53 -10 94 -15t70 -5 q104 0 180 81t76 208q0 88 -36 163.5t-102.5 113.5t-150.5 38q-51 0 -131 -21v-563z" />
<glyph unicode="Q" horiz-adv-x="1478" d="M72 682q0 303 197.5 503.5t475.5 200.5q266 0 461 -201.5t195 -506.5q0 -250 -138.5 -438t-361.5 -254q102 -176 221 -259t271 -96v-32q-139 6 -296 56t-297.5 139t-242.5 192q-143 57 -227 123q-123 96 -190.5 237t-67.5 336zM301 682q0 -330 141 -508 q111 -137 291 -137q188 0 303 137q135 162 135 477q0 244 -73 410q-57 129 -151.5 189.5t-213.5 60.5q-180 0 -293 -131q-139 -162 -139 -498z" />
<glyph unicode="R" horiz-adv-x="1366" d="M35 0v37h51q86 0 123 55q20 33 20 148v876q0 127 -26 160q-39 43 -117 43h-51v37h493q217 0 319.5 -32t174.5 -116t72 -200q0 -125 -82 -217.5t-252 -131.5l278 -389q96 -133 166 -177t180 -56v-37h-362l-459 635q-51 -2 -84 -2h-27.5t-29.5 2v-395q0 -127 27 -158 q39 -45 114 -45h53v-37h-581zM422 696h32.5h22.5q195 0 293 84t98 213q0 127 -79.5 207t-210.5 80q-57 0 -156 -18v-566z" />
<glyph unicode="S" horiz-adv-x="1138" d="M127 1030q0 145 112.5 250.5t284.5 105.5q109 0 230 -53q55 -24 78 -24h2q25 0 42 15t25 62h37v-468h-37q-16 135 -63 214.5t-133.5 127t-178.5 47.5q-102 0 -170.5 -63.5t-68.5 -143.5q0 -63 43 -115q61 -74 295 -199q190 -102 259.5 -156.5t106.5 -129t37 -154.5 q0 -154 -118.5 -265.5t-307.5 -111.5q-59 0 -110 8q-31 6 -129.5 37t-122.5 31q-27 0 -41.5 -14.5t-20.5 -61.5h-37v465h37q27 -145 71 -218t134 -121t199 -48q125 0 197.5 65.5t72.5 155.5q0 51 -27.5 102.5t-87.5 94.5q-39 31 -213 128t-246.5 155.5t-111.5 128t-39 153.5 z" />
<glyph unicode="T" horiz-adv-x="1251" d="M61 1038l17 318h1108l14 -318h-39q-10 84 -28 119q-31 59 -83.5 87t-136.5 28h-190v-1036q0 -125 27 -156q39 -43 116 -43h47v-37h-573v37h47q86 0 123 51q20 33 20 148v1036h-161q-96 0 -136 -15q-53 -20 -90 -73.5t-43 -145.5h-39z" />
<glyph unicode="U" horiz-adv-x="1478" d="M10 1319v37h588v-37h-53q-84 0 -119 -53q-27 -35 -27 -150v-592q0 -78 14.5 -180t53.5 -159.5t109.5 -94.5t175.5 -37q133 0 238.5 58.5t143 148.5t37.5 307v549q0 127 -26 160q-39 43 -117 43h-51v37h479v-37h-49q-82 0 -125 -68q-20 -31 -20 -143v-551 q0 -203 -40 -315.5t-159 -193.5t-324 -81q-221 0 -335.5 78t-163.5 207q-31 90 -31 334v530q0 125 -35 164t-113 39h-51z" />
<glyph unicode="V" horiz-adv-x="1478" d="M18 1319v37h553v-37q-94 -8 -121.5 -31.5t-27.5 -58.5q0 -51 47 -158l344 -795l320 787q47 115 47 160q0 29 -29 55.5t-98 38.5q-4 0 -17 2v37h418v-37q-72 -12 -108 -45q-53 -49 -95 -152l-473 -1153h-37l-508 1170q-39 90 -55 108q-25 33 -61.5 50.5t-98.5 21.5z" />
<glyph unicode="W" horiz-adv-x="1933" d="M27 1319v37h501v-37h-22q-53 0 -82 -23.5t-29 -58.5t45 -162l267 -760l225 648l-39 112l-33 92q-20 49 -47 88q-12 18 -33 31q-25 18 -49 27q-18 6 -59 6v37h526v-37h-35q-55 0 -81.5 -23.5t-26.5 -64.5q0 -51 45 -178l260 -738l258 748q45 123 45 172q0 23 -15.5 42 t-35.5 28q-39 14 -101 14v37h406v-37q-53 0 -86 -19.5t-64 -70.5q-18 -35 -61 -166l-379 -1094h-41l-307 867l-307 -867h-37l-404 1127q-45 125 -57 147q-18 39 -53 57.5t-94 18.5z" />
<glyph unicode="X" horiz-adv-x="1478" d="M14 0v37q51 6 88 20q63 27 118.5 71t127.5 134l322 406l-269 391q-109 158 -184.5 208t-173.5 52v37h627v-37q-80 -2 -110 -25.5t-30 -52.5q0 -37 48 -106l208 -312l240 305q43 53 52 74t9 41t-12 37q-14 20 -36.5 29.5t-96.5 9.5v37h481v-37q-57 -2 -92 -19 q-53 -23 -98 -61.5t-127 -142.5l-270 -344l290 -435q121 -180 180.5 -227t147.5 -53v-37h-582v37q59 2 86 12q23 8 36.5 26.5t13.5 39.5q0 23 -11 45q-6 16 -55 88l-229 348l-285 -365q-45 -57 -53 -76.5t-8 -39.5q0 -33 26.5 -53.5t102.5 -24.5v-37h-482z" />
<glyph unicode="Y" horiz-adv-x="1478" d="M18 1319v37h580v-37h-29q-47 0 -87 -21.5t-40 -66.5q0 -37 62 -129l282 -438l267 417q59 94 59 142q0 27 -14.5 49t-41 34.5t-79.5 12.5v37h473v-37h-27q-27 0 -77 -22.5t-91 -65.5t-100 -141l-328 -515v-339q0 -125 29 -156q39 -43 121 -43h43v-37h-576v37h48 q86 0 122 51q23 33 23 148v319l-373 569q-66 100 -89 125t-97 60q-20 10 -60 10z" />
<glyph unicode="Z" horiz-adv-x="1251" d="M27 0v37l868 1239h-432q-109 0 -158 -23.5t-73.5 -68.5t-47.5 -166h-37l27 338h1004l-891 -1274h557q127 0 195.5 56.5t121.5 226.5l33 -7l-64 -358h-1103z" />
<glyph unicode="[" horiz-adv-x="681" d="M168 -406v1792h440v-77h-291v-1637h291v-78h-440z" />
<glyph unicode="\" horiz-adv-x="569" d="M2 1421h82l489 -1450h-79z" />
<glyph unicode="]" horiz-adv-x="681" d="M76 -328h289v1637h-289v77h438v-1794h-438v80z" />
<glyph unicode="^" horiz-adv-x="960" d="M37 668l432 716h29l426 -716h-93l-350 585l-350 -585h-94z" />
<glyph unicode="_" horiz-adv-x="1024" d="M-16 -358h1058v-84h-1058v84z" />
<glyph unicode="`" horiz-adv-x="681" d="M119 1391h223l104 -347h-34z" />
<glyph unicode="a" horiz-adv-x="909" d="M74 217q0 68 28 117q41 68 142.5 127t339.5 145v37q0 137 -44 188.5t-126 51.5q-63 0 -101 -35q-39 -35 -39 -78l2 -57q0 -47 -23.5 -72t-59.5 -25q-37 0 -60.5 26t-23.5 71q0 86 88 157.5t245 71.5q123 0 201 -41q59 -31 86 -96q18 -43 19 -176v-312q0 -131 5 -160.5 t16 -38.5t28 -9q14 0 26 6q23 12 82 73v-57q-112 -149 -214 -149h-1q-49 0 -77.5 33.5t-28.5 115.5q-141 -109 -178 -125q-51 -24 -110 -24h-5q-94 0 -155.5 64.5t-61.5 170.5zM242 264q0 -72 43 -120t98 -48q76 1 201 101v350q-152 -61 -197 -86q-78 -43 -111.5 -91 t-33.5 -106z" />
<glyph unicode="b" horiz-adv-x="1024" d="M-4 1311l274 110h45v-663q133 184 287 184q141 0 245.5 -120t104.5 -328q0 -244 -161 -394q-139 -129 -310 -129q-80 0 -162.5 30t-168.5 87v948q0 158 -7.5 194t-24 48t-38.5 12q-29 0 -72 -14zM315 145q51 -49 105.5 -74.5t111.5 -25.5q90 0 169 100.5t79 290.5 q0 176 -78.5 270.5t-179.5 94.5q-53 0 -104 -27q-42 -21 -103 -80v-549z" />
<glyph unicode="c" horiz-adv-x="909" d="M70 457q0 217 129 351t309 134q133 0 220 -70.5t88 -148.5q0 -39 -24 -61.5t-69 -22.5q-59 0 -88 37q-18 20 -23.5 79.5t-40.5 90.5t-98 31q-98 0 -160 -74q-82 -98 -82 -260q0 -164 81 -290t218 -126q98 0 177 68q55 47 106 167l29 -14q-37 -180 -144.5 -278.5 t-238.5 -98.5q-158 0 -273.5 131t-115.5 355z" />
<glyph unicode="d" horiz-adv-x="1024" d="M68 420q0 197 123.5 360.5t320.5 163.5q121 0 199 -78v170q0 158 -7.5 194t-23.5 48t-41 12t-68 -14l-14 35l274 110h46v-1059q0 -160 7 -195.5t23.5 -50t38.5 -14.5q27 0 72 19l10 -35l-270 -115h-47v131q-68 -70 -131.5 -100.5t-137.5 -30.5q-150 0 -262 126t-112 323z M252 500q0 -203 87 -310.5t196 -107.5q92 0 176 90v473q-6 68 -36 124t-79 85t-96 29q-88 0 -158 -80q-90 -104 -90 -303z" />
<glyph unicode="e" horiz-adv-x="909" d="M76 446q0 236 120.5 367t303.5 131q154 0 253 -101.5t99 -271.5h-635q0 -205 100 -319q100 -117 236 -117q88 0 154.5 49t111.5 170l33 -20q-23 -137 -123 -250t-254 -113q-164 0 -281.5 129t-117.5 346zM217 629h424q-4 88 -20 125q-25 55 -74 86.5t-105 31.5 q-82 0 -147.5 -64t-77.5 -179z" />
<glyph unicode="f" horiz-adv-x="681" d="M80 844v71h176v62q0 135 44 230.5t135 153.5t204 58q104 0 192 -67q59 -45 60 -101q0 -31 -26.5 -57.5t-55.5 -26.5q-25 0 -50.5 16.5t-62.5 72t-67 73.5q-31 18 -70 19q-45 0 -76.5 -25t-46 -76t-14.5 -266v-66h235v-71h-235v-602q0 -127 29 -162q37 -43 98 -43h84v-37 h-547v37h41q39 0 71.5 19.5t45 53t12.5 132.5v602h-176z" />
<glyph unicode="g" horiz-adv-x="1024" d="M61 -252q0 25 11 49q16 37 69 103q8 10 103 108q-51 31 -72.5 55.5t-21.5 55.5q0 35 28.5 82t130.5 133q-84 41 -129 114.5t-45 161.5q0 137 102.5 234.5t262.5 97.5q131 0 227 -63h195q43 0 50 -2.5t9 -8.5q6 -10 6 -32q0 -25 -6 -35q-2 -6 -9 -9.5t-50 -3.5h-119 q55 -72 55 -184q0 -127 -98 -218t-262 -91q-70 0 -140 20q-45 -39 -60 -67.5t-15 -46.5t16 -33.5t66 -24.5q27 -4 139 -6q207 -6 266 -14q94 -12 149.5 -68.5t55.5 -138.5q0 -113 -107 -213q-156 -145 -405 -145q-195 0 -328 88q-74 49 -74 102zM205 -176q0 -47 57 -84 q100 -61 289 -62q180 0 265 63.5t85 135.5q0 51 -49 74q-53 23 -207 26q-225 7 -346 23q-47 -51 -70.5 -95t-23.5 -81zM309 655q0 -158 68 -245q51 -66 133 -66q76 0 124 57.5t48 178.5q0 160 -68 249q-51 66 -131 66q-74 0 -124 -59.5t-50 -180.5z" />
<glyph unicode="h" horiz-adv-x="1024" d="M12 1311l275 110h47v-669q111 123 175 156.5t130 33.5q78 0 134 -43t83 -133q18 -66 18 -236v-323q0 -86 15 -119q10 -25 33.5 -38t89.5 -13v-37h-451v37h21q63 0 88.5 19.5t36.5 56.5q2 16 2 94v323q0 152 -15.5 198t-49.5 69.5t-83 23.5t-101 -25.5t-126 -105.5v-483 q0 -94 10 -116.5t39 -38t98 -15.5v-37h-454v37q61 0 96 18q20 10 32.5 38t12.5 114v829q0 158 -8 194t-23.5 48t-42.5 12q-20 0 -67 -14z" />
<glyph unicode="i" horiz-adv-x="569" d="M59 831l277 111h45v-735q0 -86 12.5 -115t37 -42t87.5 -13v-37h-444v37q68 0 90 12t35.5 43t13.5 115v352q0 150 -8 195q-6 31 -21.5 44t-42.5 13t-67 -16zM195 1321q0 43 29.5 71.5t72.5 28.5t71.5 -28.5t28.5 -71.5q0 -41 -28.5 -71.5t-71.5 -30.5q-41 0 -71.5 30.5 t-30.5 71.5z" />
<glyph unicode="j" horiz-adv-x="569" d="M-158 -342q0 37 24.5 61.5t57.5 24.5q27 0 53 -12q18 -8 66.5 -51t81.5 -43q25 0 47.5 18t33.5 61t11 189v651q0 152 -8 195q-8 33 -23.5 46t-40.5 13q-29 0 -67 -16l-15 36l277 111h43v-922q0 -233 -100.5 -347.5t-259.5 -114.5q-92 0 -136.5 32.5t-44.5 67.5zM195 1321 q0 43 29.5 72.5t72.5 29.5t72.5 -29.5t29.5 -72.5t-29.5 -72.5t-72.5 -29.5t-72.5 29.5t-29.5 72.5z" />
<glyph unicode="k" horiz-adv-x="1024" d="M16 0v37q70 0 107 16q20 10 31 33q16 35 16 115v833q0 160 -7 196t-23.5 49t-43.5 13q-20 0 -61 -16l-19 35l273 110h47v-911l231 213q74 68 86 86q8 12 9 25q0 20 -16.5 34.5t-53.5 16.5v30h397v-30q-82 -2 -136 -25.5t-120 -83.5l-235 -217l235 -297q98 -123 131 -156 q49 -47 84 -61q27 -8 88 -8v-37h-444v37q37 0 50 10t13 31q0 23 -39 74l-280 358v-303q0 -90 12 -118t35 -40t100 -12v-37h-467z" />
<glyph unicode="l" horiz-adv-x="569" d="M61 1311l273 110h45v-1214q0 -86 12 -113.5t39 -42t96 -14.5v-37h-448v37q63 0 85.5 12t36 43t13.5 115v831q0 156 -7 192t-22.5 48t-40.5 12t-65 -14z" />
<glyph unicode="m" horiz-adv-x="1593" d="M16 831l277 111h43v-194q100 100 119 114q45 39 96 59.5t102 20.5q86 0 148.5 -49t83.5 -145q102 121 173.5 157.5t145.5 36.5t130.5 -37t88.5 -123q23 -57 23 -182v-393q0 -86 12 -119q10 -20 38 -35.5t87 -15.5v-37h-450v37h18q59 0 92 22q23 16 33 52q4 16 4 96v393 q0 113 -27 160q-39 63 -125 63q-53 0 -106 -26.5t-129 -98.5l-2 -12l2 -43v-436q0 -94 10 -116.5t39 -38t98 -15.5v-37h-462v37q76 0 104.5 17.5t40.5 54.5q4 16 4 98v393q0 113 -33 162q-45 63 -123 63q-55 0 -106 -28q-84 -43 -129 -99v-491q0 -90 12 -117t37 -40t100 -13 v-37h-452v37q61 0 86.5 13t38 43t12.5 114v350q0 152 -8 195q-6 33 -21.5 46t-42.5 13t-65 -16z" />
<glyph unicode="n" horiz-adv-x="1024" d="M12 831l277 111h43v-192q159 192 305 192h2q74 0 128 -37t87 -123q20 -59 20 -184v-391q0 -86 15 -119q10 -25 34.5 -38t92.5 -13v-37h-455v37h21q63 0 88.5 19.5t36.5 56.5q4 14 4 94v375q0 125 -33 181t-111 56q-119 0 -235 -129v-483q0 -92 10 -115q14 -29 39 -42 t98 -13v-37h-452v37h20q70 0 94.5 34.5t24.5 135.5v340q0 166 -7 201.5t-22.5 49t-42.5 13.5q-29 0 -67 -16z" />
<glyph unicode="o" horiz-adv-x="1024" d="M70 449q0 127 62.5 250.5t163.5 183t216 59.5q209 0 334 -158q106 -135 106 -309q0 -123 -58 -249t-161.5 -190.5t-230.5 -64.5q-207 0 -330 166q-102 139 -102 312zM256 532q0 -199 79 -344t210 -145q96 0 159.5 80t63.5 274q0 244 -106 385q-70 97 -181 97 q-53 0 -106 -32t-86 -111t-33 -204z" />
<glyph unicode="p" horiz-adv-x="1024" d="M-6 -401h24q55 0 95 20q18 12 28.5 37t10.5 125v864q0 90 -8.5 113.5t-26 36t-45.5 12.5q-25 0 -62 -14l-12 32l283 113h36v-213q72 121 143.5 169t149.5 48q139 0 232 -106q112 -132 112 -340q0 -242 -137 -398q-111 -127 -280 -127q-74 0 -129 23q-39 14 -91 59v-278 q0 -94 12.5 -120t40 -41t103.5 -15v-37h-479v37zM317 324q0 -111 11 -146q14 -57 68.5 -101t135.5 -44q100 0 162 78q82 102 82 286q0 209 -92 324q-63 78 -152 78q-49 0 -96 -25q-35 -18 -119 -108v-342z" />
<glyph unicode="q" horiz-adv-x="1024" d="M68 418q0 231 138 377.5t333 146.5q57 0 105 -15.5t85 -47.5q59 29 113 63h32v-1178q0 -88 12.5 -112.5t38 -38.5t99.5 -14v-37h-463v37h21q55 0 84 16q20 10 32.5 39t12.5 110v396q-92 -109 -160 -149t-141 -40q-133 0 -237.5 121t-104.5 326zM236 489q0 -184 81.5 -280 t196.5 -96q59 0 105.5 25.5t91.5 82.5v430q0 76 -19.5 119t-70 72.5t-113.5 29.5q-113 0 -192.5 -95t-79.5 -288z" />
<glyph unicode="r" horiz-adv-x="681" d="M12 831l279 111h41v-205q115 205 235 205q55 0 91 -32.5t36 -78.5q0 -39 -25.5 -65.5t-62.5 -26.5q-35 0 -78 35t-63 35q-18 0 -39 -21q-45 -41 -94 -135v-440q0 -76 18 -115q14 -27 47 -44t95 -17v-37h-469v37q70 0 104 20q25 16 35 52q6 18 6 98v354q0 160 -7 190.5 t-24.5 45t-44.5 14.5q-31 0 -69 -16z" />
<glyph unicode="s" horiz-adv-x="796" d="M100 678q0 113 78 188.5t201 75.5q53 0 131 -22q49 -14 68 -15q16 0 24 7.5t21 29.5h32v-311h-32q-37 147 -96.5 200.5t-151.5 53.5q-72 0 -115 -37t-43 -82q0 -57 33 -96q31 -41 127 -88l145 -70q203 -100 203 -262q0 -125 -94 -202t-211 -77q-84 0 -193 31 q-33 10 -55 10q-23 0 -35 -26h-33v327h33q29 -141 108 -211.5t177 -70.5q68 0 112 41t44 98q0 68 -49.5 115t-194 118.5t-189.5 131.5q-45 57 -45 143z" />
<glyph unicode="t" horiz-adv-x="569" d="M20 846v33q55 23 112.5 75t103.5 123q23 39 63 140h31v-302h215v-69h-215v-594q0 -88 25.5 -120t66.5 -32q33 0 63.5 20.5t46.5 61.5h39q-35 -98 -98 -147t-131 -49q-47 0 -91 25.5t-64.5 72.5t-20.5 145v617h-146z" />
<glyph unicode="u" horiz-adv-x="1024" d="M2 879v36h322v-612q0 -129 44 -169t107 -40q43 0 97.5 28t129.5 103v518q0 78 -28.5 106t-118.5 30v36h311v-555q0 -158 8.5 -193.5t24.5 -50t39 -14.5q31 0 70 19l14 -35l-274 -115h-46v195q-119 -127 -180 -161t-131 -34q-78 0 -134 45t-77.5 115t-21.5 199v407 q0 66 -14 91q-14 26 -42 40q-24 12 -82 11h-18z" />
<glyph unicode="v" horiz-adv-x="1024" d="M16 879v36h433v-36h-29q-39 0 -59.5 -18.5t-20.5 -51.5q0 -35 20 -84l213 -506l215 526q23 55 23 84q0 14 -8 25q-10 14 -27.5 19.5t-68.5 5.5v36h299v-36q-53 -4 -72 -21q-37 -31 -64 -100l-325 -787h-41l-328 774q-20 53 -40.5 77t-51.5 40q-16 8 -68 17z" />
<glyph unicode="w" horiz-adv-x="1478" d="M12 879v36h385v-36q-53 -4 -69.5 -18.5t-16.5 -43.5q0 -31 17 -76l196 -526l197 428l-51 135q-25 61 -64 84q-23 14 -82 17v36h437v-36q-72 -2 -103 -25q-20 -16 -20 -51q0 -20 8 -41l209 -526l192 505q20 55 21 86q0 20 -19.5 35t-77.5 17v36h289v-36q-88 -12 -129 -117 l-305 -791h-41l-229 586l-267 -586h-36l-295 770q-29 74 -56.5 99.5t-89.5 38.5z" />
<glyph unicode="x" horiz-adv-x="1024" d="M27 879v36h432v-36q-41 0 -58.5 -13.5t-17.5 -38.5q0 -23 37 -73q10 -16 33 -49l63 -105l76 105q72 98 72 124q0 20 -16.5 35t-55.5 15v36h309v-36q-47 -2 -84 -27q-49 -35 -135 -147l-125 -168l229 -328q84 -121 120 -145.5t93 -26.5v-37h-432v37q45 0 70 18 q18 14 18 37q0 25 -63 117l-133 197l-148 -197q-67 -89 -67 -108q0 -24 22.5 -43t67.5 -21v-37h-299v37q35 4 61 24q39 29 129 148l193 256l-174 252q-74 106 -115 134t-102 28z" />
<glyph unicode="y" horiz-adv-x="1024" d="M12 879v36h426v-36h-20q-45 0 -67.5 -19.5t-22.5 -48.5q0 -39 32 -109l224 -460l204 506q18 41 19 79q0 18 -8 27q-8 12 -24.5 18.5t-59.5 6.5v36h297v-36q-37 -4 -56.5 -15.5t-44.5 -46.5q-10 -12 -34 -76l-373 -913q-53 -133 -141.5 -201.5t-167.5 -68.5 q-59 0 -97.5 33.5t-38.5 78.5q0 41 28 66.5t75 25.5q33 0 90 -20q41 -16 49 -16q31 0 66.5 30.5t70.5 120.5l66 160l-330 690q-14 31 -47 78q-25 35 -41 47q-23 14 -74 27z" />
<glyph unicode="z" horiz-adv-x="909" d="M41 0v37l608 809h-301q-96 0 -125.5 -12.5t-50.5 -47.5q-27 -51 -31 -124h-39l7 253h768v-36l-615 -811h334q104 0 142 17t61 60q16 33 26 136h35l-10 -281h-809z" />
<glyph unicode="{" horiz-adv-x="983" d="M283 469v43q106 12 167.5 74.5t61.5 136.5q0 51 -23.5 146.5t-23.5 168.5q0 135 104.5 249t272.5 134v-35q-117 -27 -172.5 -90t-55.5 -141q0 -57 22.5 -154.5t22.5 -164.5q0 -100 -73.5 -195.5t-220.5 -146.5q145 -53 219.5 -150.5t74.5 -198.5q0 -68 -22.5 -165 t-22.5 -154q0 -78 55.5 -141.5t172.5 -92.5v-34q-168 23 -272.5 135t-104.5 250q0 72 23.5 168t23.5 147q0 74 -61.5 136.5t-167.5 74.5z" />
<glyph unicode="|" horiz-adv-x="409" d="M162 -442v1863h82v-1863h-82z" />
<glyph unicode="}" horiz-adv-x="983" d="M176 -408q119 29 173 92.5t54 141.5q0 57 -23.5 154.5t-23.5 162.5q0 102 75 197.5t222 146.5q-143 53 -220 150.5t-77 198.5q0 68 23.5 165t23.5 154q0 78 -54 141t-173 90v35q168 -20 272.5 -132.5t104.5 -252.5q0 -72 -22.5 -167t-22.5 -146q0 -74 60.5 -136.5 t166.5 -74.5v-43q-106 -12 -166.5 -74.5t-60.5 -136.5q0 -51 22.5 -147.5t22.5 -167.5q0 -135 -104.5 -249t-272.5 -136v34z" />
<glyph unicode="~" horiz-adv-x="1107" d="M43 399q6 135 74.5 207t161.5 72q43 0 90 -14q102 -29 272 -102t240 -73q74 0 125 48.5t61 138.5h43q-2 -131 -72.5 -205t-171.5 -74q-47 0 -99 15.5t-273 105.5q-154 66 -220 66q-70 0 -117.5 -43t-68.5 -142h-45z" />
<glyph unicode="&#xa2;" horiz-adv-x="1138" d="M133 696q0 279 121 422q102 119 283 135v156h122v-156q223 -23 312 -200q27 -55 39 -119l-185 -14q-14 90 -61 134t-105 56v-825q152 33 175 204l182 -12q-27 -211 -209 -301q-63 -31 -148 -39v-168h-122v168q-211 18 -314 176q-90 143 -90 383zM322 707.5 q0 -99.5 12 -177.5q39 -218 203 -247v829q-166 -25 -203 -227q-12 -78 -12 -177.5z" />
<glyph unicode="&#xa3;" horiz-adv-x="1138" d="M57 625v129h187v280q0 92 23.5 166t73.5 124t126 78t178 28q70 0 131.5 -14.5t111.5 -43.5t85 -72t53 -100l-174 -57q-10 31 -29.5 57.5t-46 44t-58.5 27.5t-69 10q-115 0 -170 -57.5t-55 -182.5v-288h407v-129h-407v-125q0 -57 -11.5 -109.5t-34 -98.5t-53 -82 t-71.5 -56h483q39 0 72 9t59.5 29.5t45 54.5t26.5 83l164 -19q-10 -80 -38 -138t-73 -97t-102 -57.5t-125 -18.5h-698v154q90 47 133 126.5t43 200.5v144h-187z" />
<glyph unicode="&#xa5;" horiz-adv-x="1138" d="M0 1409h199l370 -647l375 647h201l-422 -700h319v-125h-383v-154h383v-127h-383v-303h-178v303h-381v127h381l2 154h-383v125h322z" />
<glyph unicode="&#xa6;" horiz-adv-x="530" d="M182 344h166v-778h-166v778zM182 707v778h166v-778h-166z" />
<glyph unicode="&#xa9;" horiz-adv-x="1507" d="M31 707q0 100 25.5 192t72.5 173t113.5 146.5t146.5 112.5t172 73t193 26q150 0 281.5 -56.5t230 -155t155 -230t56.5 -281.5q0 -100 -26 -192.5t-73 -173.5t-112.5 -146.5t-146.5 -111.5t-173 -72.5t-192 -26.5q-98 0 -191.5 26.5t-173.5 72.5t-146.5 111.5 t-113.5 146.5t-72.5 173t-25.5 193zM125 707q0 -131 50 -246t135 -200t200 -134t244 -49q88 0 167.5 22.5t149.5 63.5t128 98t99 127t63.5 151t22.5 167t-22.5 166.5t-63.5 150.5t-99 127t-128 98t-149.5 63.5t-167.5 22.5q-129 0 -244 -49t-200 -135t-135 -199.5 t-50 -244.5zM369 709q0 98 23.5 176t72.5 133t121.5 85t171.5 30q76 0 131 -17.5t95 -47.5t67.5 -67.5t46.5 -76.5l-115 -33q-12 27 -30.5 51.5t-46 44t-63.5 30.5t-83 11q-70 0 -119 -23.5t-81 -64.5t-47 -100t-15 -131t16 -132.5t50 -103.5t84 -66.5t116 -23.5 q49 0 87 13.5t65.5 36t47 50t33.5 56.5l115 -35q-20 -43 -50 -83t-71 -72t-96 -51t-131 -19q-100 0 -175 31.5t-124 89t-72.5 136t-23.5 173.5z" />
<glyph unicode="&#xab;" horiz-adv-x="1138" d="M82 506v63l336 371h168v-31l-336 -372l338 -367v-29h-170zM547 506v63l338 371h168v-31l-338 -372l340 -367v-29h-170z" />
<glyph unicode="&#xad;" horiz-adv-x="681" d="M84 383v152h516v-152h-516z" />
<glyph unicode="&#xae;" horiz-adv-x="1507" d="M31 707q0 100 25.5 192t72.5 173t113.5 146.5t146.5 112.5t172 73t193 26q150 0 281.5 -56.5t230 -155t155 -230t56.5 -281.5q0 -100 -26 -192.5t-73 -173.5t-112.5 -146.5t-146.5 -111.5t-173 -72.5t-192 -26.5q-98 0 -191.5 26.5t-173.5 72.5t-146.5 111.5 t-113.5 146.5t-72.5 173t-25.5 193zM125 707q0 -131 50 -246t135 -200t200 -134t244 -49q88 0 167.5 22.5t149.5 63.5t128 98t99 127t63.5 151t22.5 167t-22.5 166.5t-63.5 150.5t-99 127t-128 98t-149.5 63.5t-167.5 22.5q-129 0 -244 -49t-200 -135t-135 -199.5 t-50 -244.5zM467 289v831h307q143 0 218 -63.5t75 -173.5q0 -102 -51 -164t-137 -80l221 -350h-146l-198 336h-162v-336h-127zM594 721h182q80 0 122 43t42 117q0 70 -47 105.5t-129 35.5h-170v-301z" />
<glyph unicode="&#xb0;" horiz-adv-x="817" d="M121 1145q0 59 22.5 111.5t62.5 91t91 60.5t111 22q59 0 111 -22t91 -60.5t61.5 -91t22.5 -111.5t-22.5 -111.5t-61.5 -90.5t-91 -60.5t-111 -22.5t-110.5 22.5t-91.5 60.5t-62.5 90t-22.5 112zM229 1145q0 -37 14.5 -70t38 -57.5t56.5 -38.5t70 -14q39 0 70.5 14 t56 38.5t38 57.5t13.5 70t-13.5 69.5t-38 57t-56.5 39t-70 14.5q-37 0 -70 -14.5t-56.5 -39t-38 -57t-14.5 -69.5z" />
<glyph unicode="&#xb6;" horiz-adv-x="1099" d="M80 1049q0 84 24.5 150.5t72.5 113.5t116.5 71.5t157.5 24.5h563v-102h-129v-1571h-113v1571h-217v-1571h-113v958q-80 0 -146.5 22.5t-114.5 66.5t-74.5 111t-26.5 155z" />
<glyph unicode="&#xb7;" horiz-adv-x="1363" d="M2 0l576 1409h217l565 -1409h-195l-161 412h-642l-161 -412h-199zM410 1571v127h548v-127h-548zM420 561h526l-180 465q-16 41 -30.5 82t-26 73.5t-18.5 55.5t-7 29q-2 -6 -9 -29t-19.5 -56.5t-27 -74.5t-28.5 -82z" />
<glyph unicode="&#xba;" horiz-adv-x="1478" d="M158 512v897h190v-881q0 -106 29 -181t80 -122t120.5 -68.5t151.5 -21.5t155.5 21.5t128 69.5t86 126t31.5 189v868h191v-879q0 -141 -47 -244.5t-127 -172t-187.5 -101t-228.5 -32.5q-117 0 -220 31.5t-182 96t-125 166t-46 238.5zM459 1530v184h166v-184h-166z M852 1530v184h164v-184h-164z" />
<glyph unicode="&#xbb;" horiz-adv-x="1138" d="M82 141v29l338 367l-336 372v31h168l336 -371v-63l-336 -365h-170zM549 141v29l338 367l-336 372v31h166l338 -371v-63l-338 -365h-168z" />
<glyph unicode="&#xd6;" horiz-adv-x="1591" d="M96 711q0 166 46 299t135.5 226t219.5 143.5t300 50.5q168 0 298 -51.5t219 -144.5t135 -226t46 -297t-48 -299.5t-138 -231.5t-220.5 -148t-293.5 -52q-174 0 -305.5 54t-218.5 152.5t-131 232.5t-44 292zM291 711q0 -127 31.5 -232.5t95 -182.5t159 -119t218.5 -42 q131 0 227 43t157.5 120t90 182.5t28.5 230.5q0 127 -31.5 231.5t-95 178t-157.5 113.5t-217 40q-127 0 -221.5 -40t-159 -113.5t-95 -178t-30.5 -231.5zM516 1530v184h164v-184h-164zM909 1530v184h164v-184h-164z" />
<glyph unicode="&#xd7;" horiz-adv-x="1193" d="M141 330l355 354l-353 352l105 103l350 -353l350 351l105 -105l-351 -348l353 -352l-103 -105l-352 353l-356 -355z" />
<glyph unicode="&#xe7;" horiz-adv-x="681" d="M66 440v181h552v-181h-552z" />
<glyph unicode="&#xf6;" horiz-adv-x="1138" d="M84 543q0 559 485 559q125 0 217.5 -35t150.5 -104.5t86 -175t28 -244.5q0 -285 -125 -424t-363 -139q-113 0 -202 33.5t-150 104t-94 176t-33 249.5zM272 543q0 -127 22.5 -209t60.5 -131t91.5 -69.5t114.5 -20.5q70 0 125 19.5t94 68.5t60.5 132t21.5 210 q0 125 -19.5 206.5t-57 131t-92 69t-122.5 19.5t-124 -20.5t-95 -70t-59.5 -131t-20.5 -204.5zM293 1219v184h166v-184h-166zM686 1219v184h164v-184h-164z" />
<glyph unicode="&#xf7;" horiz-adv-x="1122" d="M63 608v146h996v-146h-996zM477 223v183h168v-183h-168zM477 958v183h168v-183h-168z" />
<glyph unicode="&#xfc;" horiz-adv-x="1138" d="M137 360v721h180v-686q0 -78 12.5 -131t38 -86t68.5 -46t105 -13q66 0 117 22.5t86.5 65.5t56 105.5t20.5 142.5v626h180v-850v-71.5t1.5 -70.5t2.5 -58.5t3 -30.5h-170q-2 4 -3 26.5t-2.5 51t-2.5 58.5t-1 48h-4q-25 -47 -56.5 -85t-72.5 -64.5t-93 -40.5t-124 -14 q-88 0 -153.5 22.5t-107.5 68.5t-61.5 117.5t-19.5 171.5zM281 1219v184h163v-184h-163zM674 1219v184h164v-184h-164z" />
<glyph unicode="&#x101;" horiz-adv-x="1138" d="M86 301q0 109 41 177.5t106.5 107.5t149.5 53t170 16l244 4v60q0 68 -14.5 115t-43 75.5t-72.5 42t-104 13.5q-51 0 -93 -7.5t-72.5 -27t-50 -53t-25.5 -84.5l-189 18q10 63 39 116.5t80 92.5t129 60.5t186 21.5q205 0 308.5 -93.5t103.5 -271.5v-465q0 -80 20.5 -120.5 t79.5 -40.5q14 0 29.5 2t30.5 6v-113q-35 -8 -69 -12t-71 -4q-51 0 -88 13t-59.5 41t-34.5 69t-14 94h-6q-29 -51 -64 -93t-81 -72t-104 -46t-134 -16q-164 0 -246 86t-82 235zM270 299q0 -88 48.5 -136t136.5 -48q86 0 150.5 31.5t106.5 80.5t63.5 106.5t21.5 110.5v91 l-199 -5q-66 -2 -125 -10t-104 -32.5t-72 -69.5t-27 -119zM283 1237v127h548v-127h-548z" />
<glyph unicode="&#x112;" horiz-adv-x="1363" d="M168 0v1409h1069v-156h-879v-452h820v-154h-820v-491h920v-156h-1110zM428 1571v127h551v-127h-551z" />
<glyph unicode="&#x113;" horiz-adv-x="1138" d="M86 549q0 152 38 257t104.5 170.5t154.5 95.5t186 30q137 0 228.5 -44t146.5 -122t79 -182.5t24 -227.5v-22h-773q0 -86 17.5 -158t54.5 -123t94.5 -79.5t137.5 -28.5q117 0 187.5 47t94.5 119l158 -45q-16 -45 -47 -90.5t-82 -82t-128 -60t-183 -23.5q-240 0 -366 143 t-126 426zM276 641h584q-14 170 -86 249t-207 79q-45 0 -94 -14.5t-91 -51.5t-71.5 -100.5t-34.5 -161.5zM295 1237v127h549v-127h-549z" />
<glyph unicode="&#x192;" horiz-adv-x="1138" d="M190 -434l254 1325h-151l26 131h152l29 152q12 59 31.5 110t55.5 89t90 59.5t136 21.5q31 0 72 -5t76 -15l-31 -121q-16 4 -47 9t-62 5q-33 0 -55.5 -9t-38.5 -29.5t-28.5 -52.5t-20.5 -77l-27 -137h211l-24 -131h-213l-254 -1325h-181z" />
<glyph unicode="&#x2dc;" horiz-adv-x="681" d="M-23 1200q4 45 14.5 93t33 87t59.5 63.5t96 24.5q45 0 87 -18t81 -41t73 -41t64 -18q53 0 81 31.5t36 86.5h92q-4 -43 -14 -91t-31.5 -87t-58.5 -64.5t-98 -25.5q-41 0 -83 18.5t-81 41t-75 42t-67 19.5q-55 0 -81.5 -32t-36.5 -89h-91z" />
<glyph unicode="&#xe01;" horiz-adv-x="1263" d="M105.5 570q-3.5 40 11.5 81q10 33 22 58q14 27 33 49q16 25 37 45q20 20 45 41q23 18 41 33q23 16 53 34q35 18 64 27q25 8 55 16q31 8 59 15l54 8q31 4 61 6q29 0 53.5 -1t46.5 -3q25 -4 60 -14q33 -10 55 -19q25 -8 47 -18q23 -10 43 -21q25 -12 45 -30q16 -16 31 -35 q12 -14 22 -29q16 -18 29 -39q14 -20 27 -55q8 -27 16 -41q10 -23 17 -49q6 -18 8 -37q4 -18 8 -37q4 -18 4 -43q2 -16 4 -47t4 -51q2 -25 2 -47v-41q0 -20 -2 -45q0 -25 -1 -44.5t-3 -39.5v-43q-2 -31 -4 -50q0 -18 -2 -32q-2 -16 -4 -29q0 -12 -2 -31q0 -20 -2 -39 q-2 -16 -2 -26v-29v-14q0 -33 -23.5 -55.5t-55.5 -22.5t-54.5 23.5t-22.5 54.5v16v29q0 16 2 37q2 16 2 37q2 18 4 32q0 16 2 33q2 14 4 31q0 14 2 39q0 29 3 47q0 18 1 37.5t2 43t1 44.5v37q0 16 -2 34q0 20 -3.5 50t-3.5 51q-2 16 -4 28t-6 29q-2 14 -8 33q-2 12 -6 22 q-10 18 -21 50q-8 20 -14 30t-14 21q-12 14 -25 28q-6 10 -16 19q-4 4 -13 8q-14 8 -32 16q-16 6 -35 13q-18 8 -47 16q-25 6 -39 8q-16 2 -33 4h-39q-23 0 -43 -4q-27 -4 -51 -8q-20 -4 -47 -10q-25 -6 -45 -14q-16 -4 -37 -17q-23 -12 -35 -22q-16 -10 -35 -27 q-18 -14 -32 -31q-14 -14 -27 -28q-10 -14 -16 -29q-8 -14 -15 -35q-4 -12 -4 -20.5t5 -17.5t11 -15q12 -8 33 -17q31 -12 43 -16q18 -6 41 -12q29 -8 53.5 -31.5t24.5 -64.5q0 -18 -2 -37q-4 -16 -12 -52q-6 -29 -8 -38q-2 -12 -3 -25q-2 -16 -4 -33q-2 -18 -6 -49 q-2 -16 -4 -37q-2 -23 -2 -43v-49q0 -23 2 -49q0 -23 4 -43l4 -27q4 -31 -15 -57.5t-50 -31.5t-57.5 14.5t-30.5 52.5l-4 24q-4 31 -7 62q-2 29 -2 55.5v48.5q0 27 2 56t7 55q4 18 6 33q0 16 2 30q2 16 4 35q2 18 10 53q2 4 4 11q-23 6 -57 20q-45 18 -74 43 q-33 27 -51 63.5t-21.5 76.5z" />
<glyph unicode="&#xe02;" horiz-adv-x="1126" d="M102 709q0 25 2 51q4 27 13 51q8 25 20 47q12 23 33 47q25 29 49 47q29 23 66 33q29 8 57 12l20 2q15 0 31 -4h6l15 -2q16 -2 35 -8q20 -4 43.5 -14t42.5 -23q23 -14 43 -39q14 -18 26 -39q18 -27 25 -49q6 -20 10 -49q2 -27 0 -51v-12q2 -10 2 -21v-16q0 -20 -4 -43 q-2 -20 -4 -39q-4 -16 -6 -41q-4 -25 -6 -41q-2 -18 -3 -37q-2 -20 -4 -39q-2 -16 -2 -33.5t-2 -40.5v-36v-28.5v-29.5v-30.5t2 -40.5q0 -18 2 -46q2 -23 4 -32q2 -10 8.5 -27.5t12.5 -30.5q4 -10 12 -20q8 -14 19 -27l6 -6q6 -4 12 -6q12 -4 27 -8q18 -4 33 -6q10 -2 20 -2 q6 0 10 2q8 2 19 6q4 2 10 7t10 11q6 10 12 27q6 16 10.5 30.5t6.5 34.5q2 27 6 45q2 14 4 37q2 20 4 35q0 16 2 33q0 14 2 39v41v32t1 33t1 41v41q2 16 2 28.5v33.5v45v41v37q2 16 1 36.5t-3 32.5q0 14 -2 31q-2 18 -2 33v18l-2 12q-6 31 13.5 57.5t51 31t58.5 -15 t31 -50.5l2 -14q2 -16 2 -35q0 -10 1 -23.5t3 -32.5q2 -16 2 -38q2 -25 0 -48v-34v-39v-45v-36.5t-2 -29.5v-41q0 -27 -2 -41v-29v-35.5v-41.5q-2 -27 -2 -45q-2 -16 -3 -35t-3 -41q-4 -25 -6 -41t-7 -41q-2 -31 -8 -55.5t-18 -51.5q-10 -27 -25 -49q-16 -27 -39.5 -47 t-50.5 -33q-20 -8 -41 -12q-20 -6 -45 -8q-23 0 -47 4q-20 2 -45 8q-27 6 -47 15q-25 8 -45 22q-23 16 -41 41q-12 16 -25 33q-14 20 -24 43q-8 18 -19 45q-8 27 -12 47t-8 51q-2 31 -2 51q-2 29 -2 41v37v31v29.5v37.5q2 23 2 44q2 20 2 38q2 18 4 35q-6 -2 -10 -4 q-25 -6 -52 -8q-25 -2 -51 0q-31 2 -57 12q-25 8 -45 21q-18 10 -41 26q-25 18 -43 39q-18 20 -29 41q-10 18 -18 41q-12 29 -15 62zM258 717q0 -8 2 -15l10 -20q4 -6 11 -14q8 -8 20 -17q14 -10 25 -16q8 -4 18 -8q8 -4 21 -4q14 -2 24 -1t19 3q12 4 26 10q6 2 12 10 q12 12 19 23q8 12 14 24q2 6 4 10q0 10 1 23.5t-1 30.5q-2 14 -4 20q0 4 -4 10q-8 12 -18 25q-4 4 -8 6q-8 6 -19.5 11.5t-19.5 7.5q-10 2 -19 4l-12 2h-10h-11q-14 -2 -30 -6q-8 -2 -17 -9q-10 -8 -20 -20q-12 -14 -17.5 -24.5t-9.5 -20.5q-4 -12 -4 -21q-2 -12 -2 -24z " />
<glyph unicode="&#xe03;" horiz-adv-x="1376" d="M102 657v25q0 29 4 59q4 31 11 50q6 23 18 47q14 31 51 63q33 29 60 43q29 16 63 25q33 8 58 8q23 2 51 0q31 -2 59.5 -13.5t52.5 -27.5q12 -10 27 -25q6 6 12 13q35 29 74 37q27 6 57 6q41 0 74 -15q25 -12 45 -28q23 -18 43 -47q16 -27 26.5 -51.5t16.5 -59.5 q6 -33 6 -66q0 -29 -2 -47t-6 -41q-4 -18 -6 -34q-4 -14 -6 -31q-4 -14 -7 -28.5t-7 -29.5q-4 -12 -9 -34q-4 -23 -8 -39q-4 -12 -6 -27q-2 -16 -8 -37q-4 -20 -12 -45q-4 -23 -7 -33q-2 -10 -6 -28q-2 -18 -2 -29q-2 -12 -4 -35t-3 -45t-1 -39v-26q0 -8 2 -21l4 -16 q2 -6 6 -10q4 -6 15 -15q8 -6 12 -8q12 -6 29 -14q14 -6 26 -8q10 -4 23 -5q14 -2 26 -2t25 2q12 2 22 5q6 2 19 8q6 2 16 12q12 12 17 18q6 10 14 29q8 18 10 27q4 12 10 35q6 20 9 38q2 20 4 37q2 18 4 35q2 14 4 29q0 16 2 45q0 29 1 47t3 37v39q2 25 2 37v32q0 14 2 31 v27v43v38v31.5v28.5q0 10 -2 29q-2 23 -2 41v26q-2 14 -2 27v29l-2 14q0 33 22.5 56.5t54.5 23.5t55.5 -22.5t23.5 -53.5l2 -14v-27v-29q2 -14 2 -30q0 -10 2 -29q0 -23 2 -37v-30.5v-32.5v-39v-43v-35q-2 -16 -2 -29v-26q0 -16 -1 -42t-3 -44q0 -16 -2 -35q0 -16 -2 -45 q0 -29 -2 -47q0 -18 -2 -39q-2 -16 -5 -35q-2 -18 -6 -41q-4 -27 -10 -55q-8 -25 -12 -39q-4 -18 -17 -47q-12 -29 -26 -47q-14 -25 -41 -50q-29 -29 -58 -41q-25 -12 -43 -16q-18 -6 -41 -8q-23 -4 -45 -4q-20 0 -45 2q-27 4 -47 8q-23 6 -47 16q-20 10 -35 17 q-23 12 -47 33q-20 18 -35 36q-16 23 -26 47q-10 25 -15 48q-4 23 -4 41v35.5v43.5q2 27 4 52q2 23 5 36q2 12 5 34t5 36q2 16 10 45q6 23 10 41q4 16 8 29q2 16 7 33q2 14 8 36q4 25 8 39q4 12 7 26.5t5 29.5q4 12 6 24q2 14 7 35q2 16 4 29q2 10 2 30t-4 39 q-4 18 -7.5 28.5t-13.5 23.5q-6 8 -10 12q-6 4 -14 8h-5q-14 0 -26 -2q-2 -2 -8 -6q-12 -10 -19 -19q-6 -10 -12 -24q-2 -2 -15.5 -13.5t-37 -24.5t-43.5 -15q6 -18 8 -43q2 -27 0 -56q-4 -31 -17 -61q-14 -33 -34 -60q-23 -27 -45 -41q-23 -16 -50 -24q-25 -6 -57 -6 q-31 0 -55 4q-23 4 -47 14q-33 10 -62 35q-25 23 -43 47q-18 29 -28 64q-9 30 -7 65q0 6 -2 12zM260 639q0 -12 2 -23q2 -6 6 -12t15 -16q8 -6 14 -8q14 -4 25 -7q8 -2 24 -2h16q0 2 3 2q4 4 12 13q6 8 12 18q4 12 4 23q2 10 0 22v8q-4 8 -8 15q-6 8 -14 16l-6 6q-8 4 -19 8 l-4 3h-14q-6 -2 -17 -5q-8 -4 -18 -12q-16 -10 -27 -22h-2q-2 -12 -4 -27z" />
<glyph unicode="&#xe04;" horiz-adv-x="1183" d="M102 408v32v35q0 23 1 50.5t4.5 51t7.5 41.5q4 16 10 39q4 25 14 50q10 27 27 59q16 31 31 51q18 27 39 49q20 20 40 37q20 14 48 31q27 14 51 22q20 8 51 19q35 12 61 16q23 4 43.5 5t47.5 3h28q16 2 33.5 2t40.5 -4q29 -2 61 -12q20 -6 39 -12q37 -8 70 -33 q23 -16 41 -33q20 -18 43 -43q18 -23 35 -41q18 -23 37 -53q16 -29 24 -45t19 -43q10 -29 16 -53q4 -18 6 -33q2 -16 4 -45q4 -25 5 -41t1 -39q2 -23 2 -39t-1 -30.5t-1 -43.5q-2 -29 -3 -41t-1 -24v-37q0 -25 -2 -45q0 -18 -2 -41q0 -25 -2 -53q-2 -29 -2 -47 q-2 -16 -4 -35t-2 -33q0 -16 -2 -33q-2 -12 -4 -22q0 -18 -2 -33l-2 -12q-2 -33 -28 -53.5t-57.5 -17.5t-52 28.5t-16.5 58.5v12q2 12 4 29q0 14 2 29q2 12 2 24q2 14 3 34t3 36q0 16 2 43t3 49q2 27 2 47q2 16 2 39v35t1 26.5l3 43.5q0 29 2 43v26q0 12 -2 31v33 q-2 12 -4 39q-2 23 -4.5 33l-6.5 26q-2 14 -8 33q-8 20 -13 29.5t-18 31.5l-22 33q-16 18 -35 39q-14 16 -27 29q-14 12 -32 26q-6 4 -13 6q-25 6 -51 15q-14 4 -26 6q-16 2 -26.5 2t-21.5 -2h-40q-18 -2 -34 -3t-34 -3q-12 -2 -33 -11q-29 -10 -47 -16q-14 -6 -31 -14 q-16 -8 -26 -17q-12 -10 -25 -22q-12 -12 -20 -27q-12 -16 -25 -41q-12 -20 -16 -35q-8 -18 -13 -37q-4 -16 -7 -30.5t-5 -32.5q-2 -16 -2 -39q-2 -23 -2 -41v-35v-26q2 -12 2 -23q2 -16 4 -37q0 -16 2 -32q0 -8 2 -21q2 6 2 8q10 29 21 53q12 27 26 52q10 18 19 35l8 14 q10 18 29 31q18 29 51 52t65 36q35 10 70 10l21 -2q16 0 32 -8l21 -7q23 -10 43 -22q16 -8 31 -18q18 -12 43 -35q27 -27 43 -56t20 -59q4 -23 4 -45q-2 -23 -8 -53q-6 -33 -16 -58q-12 -29 -39 -59q-27 -31 -54 -47t-59.5 -25.5t-65.5 -5.5q-25 0 -49 6q-27 6 -49 14.5 t-47 24.5q-20 12 -39 29q-4 -16 -6 -35q-4 -23 -8 -45q-2 -20 -4 -31q0 -14 -2 -30q-2 -18 -2 -31q-2 -14 -4 -33q-2 -16 -5 -33q-2 -10 -4 -22q-4 -31 -21.5 -45.5t-39 -13.5t-43 8.5t-35.5 15.5t-16 10q-14 23 -21 47q-4 14 -8 27q-6 16 -12 35q-8 23 -15 59q-4 35 -8 53 q-2 18 -4 35q-2 20 -5 40t-5 40q0 14 -4 39q-6 31 -8 53q0 18 -2 37q0 14 -3 25q-2 16 -4 37zM475 330q0 -14 2 -21q0 -4 2 -6q8 -10 17 -20q6 -6 16 -13q12 -8 22.5 -12t24.5 -8q14 -2 29 -4q6 0 14 2t16 6q6 6 19 18q10 10 12 19q4 10 8 26q4 18 5 27q0 8 -3 16q0 4 -4 11 q-4 6 -14 16q-12 12 -20 16q-12 8 -25 17q-8 6 -18 10q-6 2 -11 2l-12 2h-6q-6 0 -10 -2q-8 -2 -23 -12q-12 -8 -16 -14q-8 -14 -15 -27q-4 -10 -6 -21q-4 -12 -4 -28z" />
<glyph unicode="&#xe05;" horiz-adv-x="1255" d="M102 518q0 27 2 51q2 23 5 39q2 16 6 35q2 23 8 43q4 18 8 31q2 14 8 33q6 18 17 43q10 25 22 45q12 25 35 47q20 23 45 41q20 14 36.5 23t35.5 16q16 8 35 14q18 4 34 8q25 6 50 4q25 0 49 -6q23 -6 46 -17.5t44 -27.5q14 -10 26 -20q14 -10 33 -25q8 -6 17 -14 q12 12 24 26q23 23 45 39q25 16 47 27q23 10 51 16q29 6 68 4q41 -2 74 -16t65 -47q25 -27 43 -53q16 -25 25 -43q10 -18 18 -48q6 -27 11 -45q2 -16 4 -34q2 -10 6 -41q2 -25 4 -44.5t3 -41t1 -39.5q0 -23 -2 -56q-2 -27 -2 -43q0 -20 -2 -39v-38q-2 -14 -2 -39 q-2 -27 -4 -45q0 -16 -2 -33q0 -16 -2 -41q-2 -23 -2 -37v-27q0 -16 -5 -47q-2 -29 -2 -49q-2 -23 -4 -43q-2 -16 -2 -31q-2 -14 -2 -28q-2 -14 -2 -29l-2 -14q-2 -33 -27.5 -53.5t-57.5 -17.5t-52.5 27.5t-17.5 57.5l2 14q2 12 2 23q0 14 2 31q0 16 2 39q2 16 4 34 q2 20 4 49t2 39v31t2 40.5t3 41.5t3 37q0 14 2 37q2 25 2 41q0 18 2 37v34q0 20 2 54q2 25 2 41t-1 33.5t-2 34t-5 40.5q-2 25 -4 41q-2 12 -4 27q-2 12 -8 30l-6 21q-4 8 -15 25q-10 14 -26 30l-17 15q-6 2 -18 2q-18 2 -29 0q-10 -4 -18 -7q-8 -4 -20.5 -12t-25 -21.5 t-20.5 -25.5q-10 -12 -14 -22q-4 -12 -6 -27q-2 -10 -33 -33.5t-66.5 -29t-58.5 39.5q-4 12 -12 27q-6 10 -17.5 24.5t-21.5 22.5q-16 12 -29 23q-12 8 -26 20q-8 6 -18.5 10t-16.5 7q-6 2 -15 2h-12q-10 -2 -22 -7q-10 -4 -19.5 -7t-20 -9t-22.5 -14t-20 -19 q-10 -10 -15 -18q-8 -14 -14 -31q-8 -16 -10 -26q-4 -14 -8 -25q-2 -12 -7 -31q-4 -14 -6 -28q-2 -18 -4 -33q-2 -14 -4 -33q-2 -18 -2 -37q0 -23 1 -55.5t2 -44.5t1 -25q2 -14 4 -37t4 -37t4 -27t5 -26q2 -16 6 -37q2 -8 2 -18l4 8q4 18 8 33q6 18 10 33q6 16 15 41 q8 18 14 34q8 20 18 43q10 20 23 41l6 7l8 16q18 33 56 59q29 23 55 35q19 8 33 12q6 2 10 5l14 4q29 8 57 6q14 -2 31 -4q20 -4 43 -13q20 -6 41 -16q23 -12 41 -29q18 -16 39 -41q20 -27 33 -55q14 -33 16 -70q4 -31 0 -57q-2 -23 -6 -41q-8 -27 -31 -59q-20 -27 -39 -43 q-20 -20 -47 -33q-20 -8 -39 -14q-23 -6 -53 -7q-25 -2 -49 3q-25 2 -47 6q-27 6 -53 18q-29 12 -49 27q-6 4 -11 8q-4 -12 -6 -23q-4 -16 -7 -30.5t-9 -34.5q-4 -18 -8 -33q-2 -10 -7 -24q-2 -16 -6 -33q-4 -20 -8 -37q-2 -14 -5 -26.5t-5 -22.5q-8 -37 -27.5 -51.5 t-42 -8.5t-43 17.5t-35.5 21.5l-14 13q-14 31 -22 65q-6 25 -11 37q-6 18 -10 35.5t-10 36.5q-4 16 -10 39q-8 31 -15 55q-4 23 -6 41q-4 18 -6 31q-2 16 -5 31.5t-5 33.5q-2 16 -4 41q-2 23 -2 37q-2 14 -3.5 29.5t-2.5 50.5t-1 59zM512 342q0 -4 2 -16q0 -10 4 -15 q2 -6 6 -12q8 -8 17 -14q6 -4 16 -9q14 -6 27 -8q16 -4 32 -6q12 -2 27 -2q10 2 14 2q8 2 17 6q4 2 8 6q6 6 16 21q4 4 7 8q2 8 4 19v26q-2 12 -4 19q-6 10 -15 22q-10 12 -16 19q-8 6 -15 8q-8 6 -18 8q-8 4 -14 4q-13 2 -21 4l-16 -4q-8 -2 -21 -8q-12 -6 -28 -19 q-10 -6 -13 -12q-2 0 -2 -2q-2 -6 -4 -10t-2 -6q-4 -14 -8 -29z" />
<glyph unicode="&#xe06;" horiz-adv-x="1406" d="M102 760q0 23 7 55q6 41 22 70.5t45 56.5q29 25 62 39q29 10 51 12q23 4 55 0q41 -2 72 -16q25 -12 55 -35q10 -8 21 -16l8 8q23 18 51 31q25 10 53 16q35 6 74 -4q29 -8 55 -23q31 -18 51 -45q18 -23 31 -55q10 -27 16 -55q6 -25 8.5 -41.5t2.5 -38.5q0 -18 1 -37.5 t1 -46.5v-45v-44.5t-1 -50t-1 -42.5v-39q-2 -18 -2 -37v-39q-2 -25 -2 -41t-2 -31q0 -8 -2 -20q12 -6 26 -17q14 -8 34.5 -22t33.5 -25q14 -10 39 -26q27 -20 45 -39q18 -16 39 -37q25 -23 36 -37q12 -12 27 -31q2 4 2 13q4 25 8 43q4 20 6 41q2 14 7 47q2 39 3 64.5t3 49.5 q0 25 4 52q2 23 2 53v51v38.5v45.5q2 25 2 39v47q0 29 -2 49v31q-2 14 -4 33q0 20 -2 34q0 12 -2 25q0 12 -2 25q-2 14 -2 28l-2 13q-4 33 16 57t52 28.5t57.5 -16t27.5 -53.5l2 -12q2 -12 4 -25q2 -16 2 -33q2 -14 2 -28q2 -12 3.5 -31t1.5 -33q2 -16 2 -37q2 -23 2 -55 v-47q0 -16 -2 -43v-41v-37v-55q-2 -37 -5 -66q-2 -23 -2 -45q-2 -25 -4 -51q0 -29 -4 -66q-2 -41 -6 -63q-2 -18 -6 -39q-4 -20 -8 -44l-6 -36q-4 -27 -21 -55q-18 -33 -45 -51q-39 -25 -86 -19q-39 4 -74 33q-20 16 -39 37q-16 18 -26 31q-10 10 -29 28q-23 20 -39 35 q-12 14 -33 29q-23 16 -34 24q-4 4 -11 8v-12q-2 -25 -4 -49q-4 -23 -6 -41q-6 -29 -26 -57q-18 -31 -48 -49q-25 -16 -55 -23q-25 -6 -59 -8h-60q-29 2 -53 8q-27 4 -57 18q-31 14 -51 31q-25 20 -46 58q-18 35 -26 81q-6 41 -5 65t5 46q6 27 22 57q14 29 29 48 q16 20 45 43q33 27 60 34q18 8 47.5 12.5t56.5 2.5q20 -2 43 -6q20 -2 43 -11q0 12 2 29v42t2 38v33q0 16 1 46.5t1 49.5v38.5v47.5q0 25 -1 43t-1 37q0 14 -1 23.5t-5 27.5q-4 16 -10 31q-4 10 -8 16q-2 2 -9 6q-10 6 -18 8h-2q-10 -2 -21 -6q-8 -4 -14 -8l-4 -4 q-6 -14 -12 -29q-25 -57 -95 -45q12 -14 25 -35q16 -25 23 -53q6 -23 6 -47q2 -27 -2 -55q-4 -27 -15 -51q-12 -35 -43 -62q-27 -23 -57 -35q-23 -8 -49 -12q-29 -6 -53 -6q-25 2 -43 6t-50 14q-39 16 -69 45q-31 33 -41 70q-8 27 -10 59q0 25 4 48v2q-4 20 -7 51 q-2 31 -3 50t-1 36zM264 580q2 -12 4 -21q2 -2 4 -6q6 -4 13 -8q18 -6 26 -8q4 -2 15 -2q8 0 20 2q14 4 25 8q4 0 8 4q4 10 6 21.5t0 19.5q0 12 -2 22q-2 4 -2 6q-4 6 -12 15q-6 6 -19 16q-6 4 -12 6q-4 2 -10 2h-11h-12q-6 -2 -14 -10q-10 -12 -17 -22q-4 -6 -6 -13 q0 -12 -4 -24v-8zM266 809q19 4 35 6h18l19 -2q27 -2 47 -8q6 -2 14 -6q-8 10 -22 20q-16 12 -27 17q-4 2 -16 4h-25q-6 -2 -16 -6q-6 -2 -12 -9q-8 -6 -13 -14q-2 0 -2 -2zM485 80q0 -8 4 -35q4 -20 11 -31l6 -12q6 -4 18 -10q14 -6 25 -8q12 -2 29 -4h43q23 2 32 4 q4 0 6 2q0 2 3 2q2 4 2 6q2 12 6 29q2 16 2 32q0 20 2 41v49v1v4q-16 6 -31 12q-16 4 -31 6q-14 4 -28 4q-8 2 -23 0q-10 -2 -16 -4l-15 -10q-14 -10 -18 -17q-6 -8 -14 -24q-8 -14 -11 -21q-2 -8 -2 -16z" />
<glyph unicode="&#xe07;" horiz-adv-x="825" d="M113 211q-8 31 8 58.5t48 35.5t59.5 -8t35.5 -47l8 -33q6 -25 13 -41l10 -20q2 -6 4 -13q4 -12 12 -26q10 -20 21 -41q10 -16 16 -27q8 -10 25 -26q14 -14 28 -25q16 -10 25 -12q4 -2 16 -2q16 0 33 2q18 2 29 4q2 2 6 4q2 0 4 4q8 12 14 22t11 23q4 16 9 34.5t7 41.5 q4 23 6 33q0 14 2 28q0 16 2 33q2 16 4 41q2 23 2 39q2 16 2 33v34v39t2 43v25q-20 -8 -45 -12q-25 -6 -49 -4q-18 0 -41 2q-18 2 -37 6q-16 2 -41 8q-25 8 -45 18t-43 27q-29 20 -47 45q-12 18 -22 39q-10 20 -19 47q-8 29 -10 66q0 33 6 65q6 35 21 64q14 29 35 51 q20 20 36 33q14 10 29 22q23 18 49 31q23 8 47 14q29 8 54 8h14h12q6 0 13 -2l14 -2q27 -4 53 -20q14 -6 29 -15q23 -12 45 -32q16 -16 33 -35q23 -25 32 -49q6 -14 13 -31q8 -20 12 -49q4 -25 4 -47v-2q6 -27 6 -56v-49v-47q0 -25 -1 -62.5t-1 -60.5q-2 -23 -2 -41v-37v-36 q0 -18 -1 -38t-3 -46q-2 -23 -4 -41q-2 -14 -2 -29q-2 -16 -4 -29q0 -18 -6 -47q-4 -31 -10.5 -54.5t-12.5 -45.5q-8 -25 -20 -47q-10 -18 -25 -39q-23 -31 -51 -47q-25 -16 -49 -23q-16 -4 -43 -6q-29 -4 -60 -4q-35 0 -63 10q-25 8 -56 29q-33 20 -57 47q-23 23 -37 39 q-14 18 -28 47q-14 25 -27 51q-12 27 -18 41l-7 17q-2 2 -2 6q-12 27 -22 63zM332 713q2 -14 4 -25q4 -14 8 -23.5t12 -17.5q2 -4 9 -8q12 -8 22 -14q8 -4 21 -9q14 -4 24 -6q12 -2 27 -4h26h17q8 2 14 6q4 2 10 9q12 10 19 20q8 10 14 25l8 24q2 10 2 19q0 12 2 22 q-2 2 -2 4q-2 12 -4 21q-4 12 -10 24q-2 2 -6 8l-23 23q-6 6 -14 10q-16 10 -31 19h-2l-8 2h-16q-6 0 -19 -4q-12 -2 -22 -7q-6 -4 -13 -8q-16 -12 -30 -24q-10 -6 -19 -17q-6 -6 -10 -14t-6 -23q-4 -16 -4 -32z" />
<glyph unicode="&#xe08;" horiz-adv-x="1185" d="M115 637l4 12q6 16 12 33q6 16 16 33q8 14 19 30q12 18 29 41q16 20 30.5 37t30.5 33q20 20 37 35q16 10 37 24q25 16 51 29q25 10 55 19q27 8 45 12q23 6 47 8q16 0 31 2q18 2 35 4q27 4 51 4q25 -2 53 -8q18 -4 33 -6q18 -2 37 -8q20 -6 51 -23q29 -14 53 -30 q25 -16 43 -33q18 -16 35 -33q18 -20 31 -41q10 -14 18 -27q12 -18 21 -41q8 -16 14 -34l15 -35q8 -20 14 -45q8 -25 14 -51q4 -27 8 -62q2 -31 5 -53q4 -31 2 -55q0 -14 -2.5 -36t-2.5 -36q-2 -20 -4 -41q-2 -16 -6 -33q-2 -16 -4 -33.5t-6 -35.5q-4 -20 -10 -52 q-8 -29 -13 -45q-4 -16 -10 -33q-6 -14 -8 -26q-6 -20 -12 -39q-4 -12 -8 -23q-6 -14 -13 -30q-8 -23 -26 -54q-4 -4 -11.5 -11t-29 -21.5t-41 -18.5t-41 6.5t-35.5 42.5q-8 20 -14 41q-2 10 -7 23q-4 14 -8 41q-6 23 -10 39t-8 35q-4 18 -10 32q-4 16 -13 41q-4 12 -8 23 q-14 -14 -33 -27q-27 -18 -59 -26q-27 -4 -53 -7q-25 0 -49 2q-31 2 -58 15q-23 10 -47 24q-25 16 -43 35l-29 29q-20 23 -34 47q-16 31 -21 66q-4 29 -1 58.5t13 59.5q12 35 39 68q23 29 54 51q29 20 55 33q29 12 57 18q29 4 60 0q14 0 26 -4l13 -4l24 -8q20 -6 41 -16 q27 -12 49 -37q14 -16 27 -35q18 -12 26 -31l9 -20q8 -23 20 -56q12 -35 17 -55q2 -8 4 -14q6 -12 16 -39q12 -27 16 -45q4 -14 7 -25q6 -18 12 -37q4 -16 10 -30q2 10 6 24q6 27 8 41q4 18 6.5 33.5t4.5 32.5q2 16 6 34q2 12 2 23q0 16 2 41t4 41q0 6 -2 18q-2 25 -6 58 q-2 29 -6 49q-4 18 -9 35q-6 18 -12 34q-8 20 -14 37q-6 14 -12 29q-2 8 -9 14q-8 14 -16 29q-6 8 -14 18q-12 10 -25 23q-12 10 -27 20q-16 10 -38 23q-18 8 -25 10q-8 4 -18 4q-16 4 -39 9q-14 2 -27 4q-12 0 -23 -2q-18 -2 -36 -5q-20 -4 -39 -4q-12 -2 -23 -4 q-14 -4 -39 -10q-20 -6 -37 -12q-14 -6 -26 -15q-16 -12 -27 -20q-8 -6 -20 -18q-14 -14 -26.5 -27.5t-27.5 -32.5q-10 -14 -18 -24q-8 -14 -14 -25q-4 -8 -9 -16q-4 -10 -8 -23l-4 -12q-10 -31 -38.5 -45.5t-59.5 -5t-45.5 39t-3.5 60.5zM459 342q0 -6 4 -10q4 -8 10 -15 q12 -14 25 -26l20 -15q12 -8 23 -12q4 -2 12 -4h27q12 0 24 2l8 4q6 4 13 10q8 8 16 21q4 6 6 12t2 13q2 8 2 18v25q-2 10 -4 22q0 6 -4 12q-4 8 -10 19q-4 8 -12 16q-2 4 -5 4q-10 4 -16 6q-8 3 -18 7q-4 0 -7 2l-18 4h-8q-10 -2 -21 -8q-12 -4 -26 -15q-14 -10 -25 -24 q-8 -10 -12 -21q-4 -14 -6 -25.5t0 -21.5z" />
<glyph unicode="&#xe09;" horiz-adv-x="1462" d="M107.5 732q-5.5 32 15.5 59l10 12q12 18 31 39q20 18 39 35q20 18 43 34q18 12 43 29q33 18 59 31q25 10 49 18q27 8 47 12q18 2 48 0q27 0 61 -4q31 -6 49 -8q20 -4 45 -8q35 -6 62 -18q18 -8 39 -19q25 -10 49 -26q20 -14 39 -29q18 -14 32 -29q16 -16 35 -39 q16 -20 29 -37q14 -20 29 -49q12 -31 18 -59q4 -16 8 -31q6 -18 11.5 -42.5t7.5 -48.5t2 -40v-27v-34q2 -18 2 -50q2 -33 0 -51q16 2 30 2q33 -2 62 -10q12 -4 31 -6q29 -4 55 -14q27 -10 57 -31q27 -20 49 -43q23 -27 39 -55q16 -31 25 -68q10 -41 6 -78q-4 -31 -14 -61 q-10 -31 -23 -58q-18 -35 -47 -59q-25 -20 -47 -33q-18 -6 -41 -14q-20 -6 -37 -10q-23 -4 -54.5 -5.5t-64.5 9.5q-29 8 -51 16q-27 12 -57 37q-39 33 -54 68q-8 20 -14 45q-4 23 -8 53q-6 33 -6 65q0 23 2 41q-25 -10 -43 -24q-23 -14 -39 -31q-20 -16 -39 -35 q-20 -18 -49 -47q-25 -27 -35 -41q-8 -12 -12 -20q-6 -16 -13 -29q-2 -6 -2 -12q-4 -27 -80.5 -22t-76.5 32v33q0 18 2 41v41q2 14 2 32v82q-27 -10 -57 -10q-23 -2 -46 0t-45 6q-27 6 -55 19q-25 12 -47 24q-33 18 -55 49q-20 29 -33 62q-10 33 -12 65q-2 33 2 56 q2 16 8 35q6 20 24 53q16 29 35 49q25 31 56 45q16 6 36 12q23 8 54 13q35 4 67 0l21 -5q16 -4 33 -14l32 -12q25 -12 47 -33q23 -18 37 -39q14 -20 25 -49q8 -23 14 -45q4 -18 6 -37q2 -6 2 -12l2 -21q2 -25 4 -53v-47v-35v-55q23 23 46 43t51 39q31 23 63 39q31 14 56 24 q8 4 18 8q0 6 2 11v28q2 14 0 41q0 31 -2 52v36v29q0 10 -1 25.5t-5 32t-8 28.5q-4 20 -11 43q-2 12 -10 27q-6 16 -12 24q-8 12 -23 29q-12 14 -22 27q-10 8 -23 18q-12 10 -25.5 19.5t-29.5 15.5q-18 10 -37 18q-10 4 -24 6q-23 4 -43 9q-23 4 -50 8q-23 2 -41 2 q-16 2 -22 0q-6 0 -21 -4q-16 -6 -34 -15q-16 -6 -35 -18q-25 -16 -45 -29q-12 -8 -25 -18q-14 -12 -26 -27q-14 -14 -23 -24l-10 -15q-18 -27 -51 -30.5t-57.5 15.5t-30 51zM266 385q0 -6 1 -16.5t5 -22.5t11 -20q4 -6 10 -9q14 -10 33 -18q12 -6 22 -8q12 -2 23 -2 q14 -2 30 0h9q8 4 12 8q6 4 16.5 16.5t14.5 22.5q2 6 4 8v23q0 8 -4 18q-2 14 -9 29q-4 10 -6 14q-4 6 -12 12q-6 6 -10 6q-8 4 -17 7l-12 4q-10 4 -20 10h-19q-16 -2 -24 -6q-10 -2 -21 -6l-2 -2q-8 -12 -18 -29q-8 -14 -11 -21q-4 -10 -6 -18zM1001 102q0 -23 5 -45 q4 -23 6 -39q4 -10 6 -18l8 -8q14 -12 23 -15q12 -6 28 -10q10 -4 23 -4q12 0 18 2q12 2 29 8q12 4 22 9q2 2 9 6q4 4 10 14q8 16 14 35q4 16 6 31q2 10 -2 24q-4 16 -10 27q-6 14 -16 24q-12 12 -25 23q-12 8 -22 12t-25 6q-27 4 -51 11q-8 2 -21 4q-14 0 -32 -2v-11 q0 -18 -1.5 -37.5t-1.5 -46.5z" />
<glyph unicode="&#xe0a;" horiz-adv-x="1300" d="M109 756q4 23 10 49q10 33 24 55q10 18 31 39q23 27 49 43q27 16 60 27q29 8 57 12q29 4 53 4l19 -2q14 0 28 -6h9q18 -2 38 -8q27 -6 52 -23q23 -14 43 -35q16 -20 30 -39q16 -23 25 -45q4 -16 10 -30q8 -23 15 -47q4 -23 4 -50q0 -23 -4 -45v-2v-14q0 -16 -5 -49 q-2 -27 -4 -45q-2 -20 -4 -39q-2 -16 -4 -35q-2 -23 -2 -39q-2 -16 -6 -41q-2 -23 -4 -39t-2 -33q-2 -16 -4 -31.5t-4 -29.5q-2 -12 -5 -33q-2 -20 -5 -41.5t-5 -44.5t-4 -37t-4 -32q-2 -16 -2 -35v-35q0 -4 2 -10v-4q25 -2 49 -9q14 -4 25 -4h35q20 0 43 -4h22q8 0 12 2 q6 2 12.5 7.5t8.5 9.5q4 8 6 18q2 23 4 43q2 18 2 45v43q0 12 -2 33q-2 25 -2 41q-2 16 -3 30.5t-1 28.5q-2 16 -3 28.5t-3 29.5q-2 16 -4 39q-2 18 -6 39q-4 25 -7 49q-2 16 -6 34q-6 25 -10 39q-2 12 -8 29q-8 23 -14 39q-4 12 -11 27q-6 14 -12 24q-6 14 -14 29 q-6 12 -13 22q-41 63 21 129q23 27 41 43q16 14 43 37q27 20 41 35q16 14 34.5 29.5t45.5 38.5t49 39q18 12 33 24q14 10 24 21q14 12 29 24l12 12q25 23 57.5 21t54 -25.5t19.5 -55.5t-24 -54l-15 -12q-14 -12 -26 -25q-16 -14 -35 -29q-18 -14 -39 -28q-16 -12 -41 -33 q-25 -20 -42 -35.5t-32 -28.5q-18 -16 -45 -37q-25 -23 -41 -36q-4 -4 -10 -11q6 -12 12 -22q6 -14 15 -31q8 -20 16 -39q6 -16 12 -39q8 -23 15 -41q4 -18 10 -43q6 -29 10 -55q2 -20 4 -41q4 -25 6 -49q2 -20 4 -37q2 -16 5 -31q2 -12 3 -27.5t2 -31.5t3 -33q0 -16 2 -39 q2 -27 2 -45v-45t-2 -57q-2 -25 -6 -49q-4 -35 -21 -68q-18 -35 -49 -61q-31 -25 -59 -33q-27 -8 -56 -10q-25 -2 -49 2q-14 2 -28 2h-37q-25 2 -54 8q-14 2 -32 4q-31 4 -56 16q-32 15 -55 52q-16 27 -22 51q-6 27 -7 51v37q0 27 2 49q2 18 5 35q2 14 4 37q4 23 6 44t6 42 q2 23 4 35t2 26q2 12 4 29q2 16 2 35q2 18 6 41q2 23 4 39q0 6 2 12l-16 -4q-35 -10 -63 -11q-27 0 -50.5 3.5t-52.5 13.5t-49 22q-18 10 -33.5 22.5t-38.5 33.5q-27 25 -41 47q-12 20 -20 41q-10 23 -14 59q-6 37 -2 68zM262 731q0 -6 2 -20q2 -16 4 -23q4 -8 11 -16 q4 -8 14 -19q16 -14 25.5 -21t19.5 -14q6 -4 20 -8q14 -6 24.5 -7t23.5 -1q10 0 26 6q20 4 35 13q10 4 14 8q6 4 11 12q8 12 12 23q2 6 4 14q2 12 2 22t-2 21q-2 10 -6 20q-2 4 -4 10.5t-4 11.5t-2 9q-2 4 -9 12q-6 10 -16 21q-6 6 -12 10q-4 2 -6 4q-10 2 -17 2l-12 2 q-11 0 -21 4l-10 2q-12 0 -27 -2q-16 -2 -34 -8q-12 -4 -23 -10q-8 -4 -16 -12q-10 -12 -15 -21q-2 -4 -4 -12q-6 -18 -8 -33z" />
<glyph unicode="&#xe0b;" horiz-adv-x="1511" d="M106 641v8v10v48q2 29 7 55q6 27 20 57q12 33 29 58q18 29 37 49q23 25 49 39q20 10 53 20q35 12 64 14h36q29 0 64 -14l45 -18q25 -12 47 -31l6 -4q10 8 19 12q29 16 59 23q31 6 59 2q27 -6 54 -19q27 -14 51 -41q25 -29 37 -69q6 -27 10 -54q4 -25 5 -40t1 -38.5 t-1 -41t-3 -33.5q-2 -12 -2 -23q-2 -16 -4 -37q-2 -16 -6 -38q-4 -23 -6 -37.5t-2 -28.5q-2 -14 -4.5 -36.5t-3.5 -36t-3 -38.5t-4 -53q-2 -27 -4 -49q-2 -23 -4 -45v-45q-2 -18 -2 -39q0 -20 -1 -36.5t-1 -36v-34.5q0 -8 2 -20q0 -4 2 -8q2 -2 6 -4q10 -4 17 -4 q10 -2 22 -2q16 0 31 2h33h32t35 2q16 2 27 4h4q2 14 2 26v33q-2 18 -2 37v33v41q-2 29 -2 49q-2 20 -2 37q-2 20 -2 39q-2 18 -4 41q-4 23 -7 45q-4 23 -6 41q0 14 -4 32q-6 27 -8 45q-2 12 -4 23q-4 12 -8 33q-4 14 -10 37q-4 16 -7 32q-2 8 -10 31l-14 41q-6 20 -10 41 q-6 33 6 68q8 29 39 61q23 27 45 49q20 23 45 47q27 27 43 39q12 12 30 29q18 16 41 35q18 16 33 28l15 15l10 14q4 6 10 10q4 2 14.5 13.5t17.5 17.5t13 12q23 23 55.5 22t54 -23.5t21.5 -55.5t-24 -55l-43 -43h-3l-6 -9q-12 -16 -30 -32q-14 -14 -37 -33q-20 -18 -39 -33 q-18 -18 -33 -29q-10 -10 -31 -32l-47 -47q-20 -18 -39 -41q-4 -4 -6 -9q0 -4 2 -6l15 -43q12 -33 16 -53q2 -12 4 -25q6 -20 10 -36q4 -20 8 -33q2 -16 7 -37q2 -12 6 -35q6 -29 8 -51q2 -16 4 -35q4 -23 6 -47q4 -27 4 -49q2 -14 4 -39q0 -20 1 -40.5t1 -47.5q2 -31 3 -49 v-31q0 -16 2 -31v-41q0 -29 -5 -57q-8 -41 -26 -70q-27 -39 -74 -47q-14 -4 -27 -6q-18 -4 -43 -6q-23 -2 -45 -2h-36h-29q-16 -2 -35 -2q-23 0 -43 4q-25 2 -51 12q-31 12 -55 31q-35 29 -45 70q-4 18 -6.5 37.5t-4.5 37.5v36t2 38v39q0 20 2 41v45q2 27 4.5 51.5t4.5 53.5 q2 27 4 47q2 25 4 39q0 14 2 38.5t4 38.5q2 16 4 31.5t6 40.5q2 23 4 39q2 14 4 25q0 16 2 34q2 10 4 23v30.5v26.5q-2 10 -4 29q-2 16 -6 33q-2 6 -4 8q-4 6 -8 6q-2 2 -6 4q-2 0 -6 -2q-2 0 -6 -2t-7 -6q-6 -6 -12 -21q-8 -12 -36.5 -29.5t-59.5 -17.5q10 -16 18 -32 q8 -23 13 -48q4 -23 4 -49q2 -33 -9 -65q-8 -33 -26 -60q-14 -18 -31 -41q-29 -35 -61 -49q-25 -12 -54 -16q-25 -4 -55 -6q-35 0 -65 6q-33 8 -62 24q-25 16 -53 43q-29 31 -41 62q-12 29 -17.5 65.5t-1.5 69.5zM260 623q0 -12 2 -31q2 -16 6 -25q2 -4 11 -14 q12 -12 20 -16q8 -6 18 -9q10 -2 25 -2q20 2 33 4q8 0 14 5l4 4q14 18 25 32q4 4 6 15q2 10 2 18q0 14 -2 25q-2 10 -4 18q-2 4 -6 8q-4 6 -13 15q-10 8 -18 12t-14 6t-13 2h-4l-28 -8l-13 -2q-4 -2 -10 -2q-2 -2 -6 -4q-12 -8 -19 -17q-6 -6 -10 -18q-4 -8 -6 -16zM383 844 q14 -2 31 -6q8 -5 16 -7q-10 4 -22 11q-6 2 -9 2h-16z" />
<glyph unicode="&#xe0c;" horiz-adv-x="1572" d="M109 639q-4 33 0 61q6 23 20 60t35 63q16 27 39 49q23 25 51 46q25 16 47 26q20 10 41 19q20 8 43 16q25 6 57 12q31 4 50 6q14 2 36 2q29 2 54 0q25 -4 45 -8q18 -4 45 -8q33 -8 55 -16q18 -6 37 -17q16 -8 43 -22q29 -16 47 -31q23 -16 47 -49q23 -31 37 -57 q14 -27 23 -50q4 -14 10 -28q6 -16 14 -43t12 -43q6 -20 10.5 -41t6.5 -43q2 -16 4 -35q2 -18 4 -43q4 -27 6 -45v-41v-45v-43q2 -20 2 -39v-27q8 -4 14 -8q14 -8 37 -20q23 -14 41 -27q14 -10 31 -23q14 -10 37 -26q23 -18 43 -35q23 -23 39 -41q8 -12 20 -25q6 -6 11 -14 q2 18 2 41q0 31 2 53v50q2 33 2 55v55q2 37 2 59q2 25 2 43q0 23 4 54q2 27 2 37v30v31v33v26q-2 16 -2 39v39v29q-2 16 -2 39q0 20 -2 31v30v29q0 12 -2 25v14q-2 33 20.5 56.5t54 24.5t55 -20.5t25.5 -54.5v-14q2 -16 2 -31v-25v-24q2 -14 2 -37q0 -20 3 -35v-39v-35v-32 q2 -16 2 -33v-35v-37v-24q0 -16 -5 -50q-2 -27 -2 -45q0 -23 -2 -47q0 -20 -2 -53v-57q0 -23 -2 -54v-51q-2 -23 -2 -53q0 -31 -2 -51q0 -23 -2 -41t-10 -60q-12 -61 -47 -92q-23 -20 -55.5 -24t-67.5 14q-29 20 -45 47q-6 10 -17 25q-12 16 -22 35q-8 12 -18 22 q-14 16 -25 31q-6 8 -19 18q-16 14 -34 29q-20 16 -35 27q-14 10 -27 18q-4 4 -10 6q0 -20 -2 -41.5t-4 -38.5q-2 -18 -6 -37q-4 -29 -14.5 -51t-29 -43.5t-46.5 -40.5q-37 -23 -78 -22q-39 -2 -78 14q-33 14 -66 41t-51 57q-18 33 -24 68l-4 -12q-8 -23 -25 -47 q-16 -25 -39 -44q-27 -20 -60.5 -32.5t-64.5 -14.5q-25 0 -45 2q-16 2 -37 7q-23 4 -41 8q-25 8 -53 26q-29 18 -51 39q-16 18 -31 37q-20 25 -31 53q-10 23 -14 45q-6 27 -6 52q0 16 2 30l-2 9q-4 20 -4 41v38q0 27 2 48q2 20 6 36q4 10 6 23q2 14 8 35q4 16 9.5 33.5 t9.5 31.5q4 12 10 31q8 29 31 61q0 2 2 5q-6 4 -15 8q-33 20 -55 65q-20 37 -24 72zM262 670q0 -4 1 -11.5t7 -19.5q2 -4 4 -6q8 -6 15 -8q10 -4 30 -11q14 -6 30 -15t31 -33.5t11 -55.5q-4 -39 -37 -74q-12 -12 -24 -30q-8 -16 -13 -25q-6 -18 -10 -33q-4 -10 -8 -24 q0 -6 -2 -13q10 4 22 6l17 2q12 5 26 3h5q20 2 45 0q27 -2 55 -13q25 -10 47 -24q20 -12 41 -33q20 -18 35 -39q12 -18 22 -41q10 -20 17 -43q4 -12 6 -25q8 23 20 43t37 46q31 29 56 40q20 8 39.5 13.5t48.5 7.5q20 2 38 2q0 14 -2 31v47v45v29q-2 16 -4 38q-4 27 -6 46 q-2 20 -2 38q-2 12 -4 25.5t-6 26.5q-6 16 -14 41q-6 23 -11 34q-8 18 -14 37q-2 8 -10 25q-8 14 -23 35q-12 16 -18 20q-8 6 -27 17q-25 12 -39 20l-24 12q-10 2 -29 6q-27 6 -45 11q-14 2 -31 4q-12 2 -26 0q-20 0 -37 -2q-12 0 -35 -4q-20 -4 -35 -9q-18 -6 -33 -10 q-14 -6 -26 -14q-14 -6 -33 -19q-12 -8 -25 -20q-12 -14 -24 -31q-8 -14 -17.5 -35.5t-11.5 -29.5zM279 72q0 -8 2 -17q2 -10 6 -22q4 -6 8 -13q10 -14 22 -26q8 -8 21 -17q8 -4 14 -6q10 -4 27 -6q16 -4 29 -6h20q6 0 15.5 4t13.5 8q8 4 10 11q4 6 6 8q4 12 6 24q4 10 4 23 q2 16 0 29q0 10 -4 18q-2 12 -8 22q-4 10 -10 17q-4 8 -12 16q-10 8 -21 15q-8 6 -18 10q-6 2 -11 2q-10 2 -14 0h-12q-9 -2 -17 0l-6 -2q-8 -2 -22 -8q-10 -4 -19 -11q-6 -4 -12 -14q-10 -14 -14 -22q-2 -10 -2 -17q-2 -10 -2 -20zM774 6q0 -6 2 -20t6 -20.5t17 -16.5 q16 -12 28 -19q8 -2 13 -2q6 4 10 9l6 9t2 9q4 16 6 31q0 14 2 32t2 35q2 18 2 35v12q-10 0 -20 -2q-18 0 -25 -2l-12 -4l-10 -10q-12 -12 -17 -19q-2 -4 -4 -14q-4 -12 -6 -22t-2 -21z" />
<glyph unicode="&#xe0d;" horiz-adv-x="1499" d="M106 647q-4 31 0 62q6 31 21.5 62.5t44.5 64.5q27 31 45 47q16 12 35 22q18 12 43 25q29 16 55 26q23 6 53 15q29 8 52 14q25 4 51 6q23 2 43 2q23 0 51 -2q37 -2 64 -8q16 -6 32 -10q25 -6 57.5 -23.5t53.5 -34.5q14 -12 27 -24q20 -16 36 -39q12 -18 27 -47 q10 -25 18 -39q8 -18 17 -37q6 -18 12 -47q8 -31 10 -55q0 -16 2 -35q2 -18 5 -35q2 -20 4 -49v-49v-37v-45q2 -27 2 -45v-35v-29q2 -23 2 -39v-32q0 -4 2 -13q2 -10 6 -16q4 -10 12 -23l4 -4q12 -6 35 -14q20 -8 29 -10l28 -4q8 -2 22.5 -2h25.5l18 6q20 8 33 18 q6 10 10 21q4 16 10 34q4 12 8 35q4 29 6.5 53.5t6.5 47.5q2 20 6 51q4 33 6 53q2 18 4 41v39v45q-2 27 -2 45q0 20 2 47v35q0 16 4 43v25q-2 18 -4 32q-2 23 0 45v21v14q-2 31 20.5 54.5t54.5 24.5t55.5 -20.5t25.5 -54.5v-14v-35q-2 -8 0 -18q2 -20 4 -37q0 -25 -2 -51 q-2 -18 -2 -29v-45q-2 -20 -2 -35q0 -16 2 -41v-51v-49q-2 -25 -4 -47q-2 -23 -7 -56q-4 -33 -7 -54t-7 -44q-2 -25 -6 -55q-4 -37 -12 -62q-6 -18 -13 -34q-6 -23 -18 -48q-20 -35 -55 -59q-25 -14 -58 -29q-37 -16 -63 -18h-41q-27 0 -47 4q-14 2 -29 4q-23 4 -57 19 q-37 12 -60 26q-35 20 -55 51q-12 20 -20 37q-10 20 -19 47q-8 29 -6 58v28t-2 31v39v31q0 18 -2 43v49v39v41q-2 25 -2 37q-2 18 -4 37.5t-4 37.5q0 12 -6 31q-4 18 -9 29l-8 24q-8 14 -20 37q-8 20 -15 29q-4 6 -10 10q-12 12 -24 23q-6 6 -25 14q-16 8 -25 12 q-20 4 -39 11q-8 2 -26 4h-43h-31q-14 -2 -29 -4q-18 -6 -45 -13q-27 -8 -45 -14q-12 -4 -28 -12q-23 -12 -35 -21q-12 -8 -25 -16q-6 -6 -22 -25q-14 -16 -20.5 -28.5t-8.5 -20.5v-16q2 -6 4 -11q2 -4 8 -10q12 -10 19 -12q16 -6 31 -12q25 -8 45 -25q27 -18 37 -52t-5 -67 q-12 -25 -37 -53q-14 -14 -22 -27q-8 -12 -14 -22q-4 -10 -9 -21q-4 -12 -12 -39q0 -4 -2 -6h2q16 10 33 15l12 2q25 4 47 4q16 -2 35 -4q20 -2 37 -6q25 -6 53 -23q25 -16 43 -35q18 -18 33 -39q16 -23 27 -49q12 -29 16 -53q4 -23 4 -41q2 -16 2 -35q0 -25 -4 -51 q-6 -31 -18 -55q-12 -25 -37 -52q-20 -23 -41 -36q-23 -14 -47 -23q-20 -6 -47 -10q-23 -4 -47 -4q-27 -2 -54 2q-23 6 -47 14q-27 10 -51 29q-27 16 -47 41t-33.5 47t-19.5 43q-8 23 -11 47q-2 16 -2 31v8l-4 14q-4 20 -4 49q-2 27 -2 45q0 20 2 43q2 25 6 45q2 18 4 31 q4 20 13 53q8 33 16 52q6 18 16 36q8 18 23 39q4 6 8 13q-23 12 -43 28q-37 29 -51 60q-14 29 -19 61zM297 53l4 -12t7 -15.5t16 -19.5q8 -10 18 -18q10 -6 20 -11q10 -4 21 -6q6 -2 16 -2q14 2 31 4q14 2 23 4q2 2 6 5q6 4 16 14q8 8 10 12t4 15q2 14 3 24v27q-2 8 -5 22 q-2 10 -6 19.5t-10 19.5q-8 10 -16 21q-6 6 -15 10l-8 4q-8 2 -19.5 3t-21.5 3q-6 -4 -12 -6l-14 -4q-4 0 -13 -6q-12 -8 -24 -19q-8 -8 -13 -18q-8 -12 -12 -29q-4 -16 -4 -26q-2 -6 -2 -15zM741 -305q0 33 4 59q8 33 35 68q23 29 43 45q20 14 51 29q35 14 60 16 q20 2 53 -4l25 -2q21 -5 37 -17q12 -4 26 -12q18 -12 35 -27q33 -25 47 -59q8 -20 13.5 -41.5t7.5 -42.5v-6q20 18 43 39l39 39q23 23 55.5 21.5t55 -24t21.5 -54t-24 -54.5l-39 -39q-43 -43 -90 -75q-51 -37 -94 -53.5t-88 -20.5q-39 -4 -62 -2q-8 2 -20 0h-17 q-20 -2 -36 6q-14 4 -27 6q-29 8 -53 25q-20 14 -39 32q-27 27 -39 54q-10 20 -15.5 40.5t-7.5 53.5zM897 -299q2 -14 2 -20q2 -6 6 -15l6 -6q10 -10 17 -16q4 -2 8 -2q12 -4 27 -7h32q2 2 4 5q8 12 17 24q4 10 6 14v15q0 8 -4 20q-2 8 -4 17q-10 8 -21 14q-4 2 -6 2l-14 4 l-12 4q-8 2 -15 2q-4 -2 -10 -4q-12 -4 -16 -8q-6 -6 -17 -18q-4 -4 -4 -7q-2 -6 -2 -18z" />
<glyph unicode="&#xe0e;" horiz-adv-x="1341" d="M104 84q2 27 11 51q6 23 20 47q16 33 43 56q23 20 45 32q16 10 39 21q37 20 70 22h14q8 0 19 -2q23 4 41 -2l12 -4q16 -6 33 -12q6 -4 12 -6v20v45q2 18 0 43v7.5v7.5v4q-20 4 -41 10q-31 10 -55 29q-27 18 -48 43q-18 25 -28 53q-10 27 -17 61q-6 39 -2 72q4 27 13 51 q8 27 20 49q12 20 35 52q27 33 49 53q20 16 47 33q23 14 51 28q31 16 62 25q29 8 69 16q41 8 74 12q35 6 68 5q31 -2 59 -9q23 -4 62 -12q45 -10 67.5 -18.5t44.5 -22.5q18 -10 37 -22q25 -16 51 -41q31 -29 47 -58q14 -20 27 -41q12 -23 29 -61q14 -37 22 -63.5t17 -51.5 q6 -27 10 -53q4 -25 6 -61q2 -37 2 -66v-55v-72q2 -45 0 -78q0 -37 -2 -74q-4 -31 -6 -73q-2 -45 -6 -74q-2 -29 -6 -72q-4 -18 -7 -61q-4 -41 -6 -68t-2 -49q-2 -25 -4 -46t-4 -49t-4 -48.5t-4 -38.5q-4 -16 -6 -40t-4 -38q-2 -10 -2 -22q-2 -41 -20.5 -58.5t-42 -14.5 t-46 12t-39.5 20l-16 12q-23 29 -35 43q-8 10 -23 22q-12 12 -32 31q-6 -12 -15 -22q-14 -20 -43 -50q-31 -31 -57 -47q-23 -16 -57 -34q-43 -20 -74 -27.5t-60 -3.5q-27 0 -61 10q-41 12 -65 29q-20 14 -39 30q-31 27 -47 72q-14 41 -13 74q2 31 13 63q12 37 34 64 q16 18 38 36.5t57 37.5q37 23 69 30q35 8 86 8q45 -2 72 -6q37 -4 84 -24q4 -2 10 -4q4 8 6 18q10 37 17 53l4 15q12 29 40.5 43t59.5 4t44 -40t3 -59l-4 -14q-4 -12 -14 -47q-10 -33 -17 -53q0 -4 -2 -10q10 -8 21 -19q14 -12 26 -22q2 12 2 28q4 27 5.5 47.5t2.5 44 t3 50.5t6 71.5t8 77.5q4 29 6 54.5t4 70.5t6 80q2 29 2 57q2 33 0 76v76v53q0 25 -2 55q-2 31 -4 49t-8 35q-4 20 -12 43t-21 56q-12 29 -18 43q-10 16 -23 32q-6 12 -22 27q-16 16 -29 25q-18 12 -33 20q-12 6 -22 10t-41 13q-39 6 -62 12q-16 2 -36 4q-16 0 -39 -2 q-27 -4 -64 -10q-35 -8 -55 -15q-18 -4 -35 -14q-23 -10 -43 -23q-16 -10 -29 -20q-8 -8 -24 -27q-16 -23 -23 -32q-4 -8 -8 -21q-4 -12 -6 -27q0 -8 2 -22q2 -18 8 -31q2 -10 8 -16q4 -6 11 -10q6 -4 16 -9q14 -4 35 -8q35 -6 67 -28q45 -37 45 -93v-45q2 -27 0 -47v-47 v-41q-2 -20 -2 -47q-2 -20 -4 -43q-2 -14 0 -31l2 -20q2 -12 -2 -27q2 -8 2 -18q0 -25 -4 -49q-2 -20 -12 -47q-10 -33 -29 -58q-10 -12 -22 -28q-20 -29 -53 -48q-29 -16 -58 -22q-25 -6 -49.5 -7t-52.5 3q-31 4 -60 14q-23 10 -45 23q-31 16 -51 39q-16 18 -31 38l-22 33 q-14 29 -19 66q-4 27 -2 51zM260 47q0 -2 2 -4q4 -8 12.5 -19.5t16.5 -21.5q4 -4 14 -8q14 -10 29 -14q8 -4 20 -7q16 -2 27.5 -1t21.5 3q4 0 11 5q6 4 8 8q14 16 24 30q2 2 5 11q6 14 8 24v17q0 8 -2 16q-2 4 -8 14q-10 14 -21 23q-12 10 -20 16t-17 11l-24 8l-5 2 q-6 -2 -10 -2h-10q-2 -2 -6 -2q-20 -12 -37 -21q-8 -6 -18 -14q-4 -4 -9 -10q-6 -12 -8 -21q-2 -8 -4 -18v-25zM549 -440q0 -6 4 -17q2 -4 4 -6q10 -10 21 -18q6 -2 20 -8q20 -4 33 -7q6 0 16 2t33 15q29 14 43 24q12 8 33 27q20 20 28 33q7 10 15 20q-8 4 -17 6 q-25 12 -39 15q-23 2 -57 4q-29 0 -41 -2q-14 -4 -35 -17q-23 -12 -32 -22q-10 -8 -19 -19q-2 -2 -6 -10q-4 -12 -4 -20z" />
<glyph unicode="&#xe0f;" horiz-adv-x="1359" d="M102 76q0 39 11 69q10 33 34 64q20 25 48 51q35 29 65 41q23 8 45 12q16 8 35 11h12q18 0 37 -2q18 -2 35 -5q16 -4 35 -10q4 -2 10 -4v4q0 25 2 43v31q0 25 2 41v6q-16 4 -33 10q-33 10 -51 21q-23 12 -43 30q-23 20 -37 48q-12 25 -16 57q-4 31 2 70q6 41 18 67 q10 20 25 39q12 18 26.5 34.5t38.5 41.5q29 27 56 43q20 16 41.5 28.5t46.5 24.5q27 16 69 27q37 10 60 16q27 4 55.5 6t54.5 0q25 0 50 -4q25 -2 59 -10q41 -10 72 -27q18 -10 37 -20q20 -10 40 -25q20 -12 48 -33q31 -25 47 -45q14 -16 26 -32q16 -20 27 -47 q10 -23 22 -60q10 -37 15 -63q6 -27 10 -52t8 -53q4 -29 6 -74q2 -25 2 -67q2 -27 2 -57q2 -31 0 -76q-2 -39 -2 -72q0 -27 -2 -55q-2 -29 -4 -53q0 -27 -4 -66q-4 -37 -6 -61q-2 -27 -4 -52.5t-4 -60.5q-4 -33 -6 -53q0 -23 -4 -45q-2 -18 -4.5 -37t-6.5 -45q-2 -29 -6 -45 q-2 -16 -3 -28.5t-5 -31.5q-2 -18 -2 -30q-2 -12 -4 -29q-2 -20 -6 -47q-4 -23 -6 -35q-4 -35 -22.5 -51.5t-40 -13.5t-43 11.5t-38.5 18.5l-14 8q-18 27 -31 49q-10 18 -24 46q-16 25 -37 63q-16 31 -27 45q-12 14 -24 27q-8 10 -19 18q-23 -23 -33 -39q-14 -23 -20 -39 q-10 -23 -19 -39q-6 -14 -14 -36q-10 -31 -20 -52q-16 -33 -39 -43t-43.5 -0.5t-39 22.5t-28.5 25l-10 15l-4 8q-10 -14 -23 -27q-37 -41 -73 -57q-31 -14 -62 -18q-35 -4 -78 4q-41 8 -69.5 21t-53.5 36q-25 20 -49 53q-33 45 -35 86q-2 25 2 51q2 27 11 50q10 27 32 57 q23 33 50 51q23 16 53 27q23 8 53 14q33 8 62 8q20 -2 41 -4q20 -4 51 -14t51 -23q4 -2 10 -6q20 47 31 68l12 22q14 29 45 39t59.5 -4t39 -45t-4.5 -59l-12 -23q-10 -20 -37 -84q23 33 54 64q33 33 55 47q49 29 100 4q25 -12 49 -35q20 -16 37 -35q16 -18 35 -39 q12 -16 29 -43q2 14 4 35q2 27 5 45.5t5 38.5q2 16 4 35q0 23 4 57q2 33 4 58.5t4 52.5t7 65q4 35 6 60q0 23 2 51q2 27 2 51q2 39 2 72q2 41 0 67q0 29 -2 56q0 27 -2 67q-2 37 -4 60q-4 25 -9 45q-4 25 -8 49q-4 20 -12 51q-8 27 -14 39q-4 10 -11 18q-8 12 -18 25 q-8 8 -25 21q-23 18 -36 26q-16 10 -33 19q-16 10 -37 22q-12 6 -31 10q-27 6 -43 9q-20 2 -39 2q-18 2 -36.5 1t-34.5 -6q-18 -4 -50 -12q-25 -6 -39 -14q-18 -10 -36.5 -20.5t-36.5 -24.5q-14 -10 -33 -27q-20 -18 -31 -31l-16 -20l-12 -20q-2 -6 -4 -21q-2 -16 -3 -27 q2 -4 3 -8l2 -2q6 -4 10 -6q10 -6 31 -12q23 -8 43 -15q51 -14 75 -55q20 -33 19 -72v-32q-2 -10 -2 -33v-41q-2 -12 -2 -31v-39t-2 -30q0 -14 2 -25v-31v-37l2 -24q0 -14 -4 -27q0 -2 2 -4q2 -29 0 -53q-4 -31 -15 -55q-8 -23 -24 -50q-16 -31 -39 -53q-29 -31 -58 -43 q-16 -6 -40 -12q-33 -8 -66 -6q-20 2 -41 2q-31 2 -59 14q-27 8 -50 23q-27 14 -51 34q-29 25 -45 56q-16 27 -24 55q-10 33 -11 74zM258 74q0 -16 2 -25q4 -12 12 -24q4 -8 13 -15q12 -12 24 -18t27 -12q10 -4 18 -5q18 -2 39 -2q8 -2 17 0q10 4 18 7l6 6q10 10 19 24 q10 16 12 27q2 6 4 14v27q-2 16 -4 26q0 6 -4 15.5t-8 15.5q-2 2 -7 6q-12 8 -18 11q-10 4 -18.5 7t-16.5 5q-10 2 -20 2q-4 2 -8 2q-10 -4 -19 -4l-14 -4q-6 0 -17 -4q-6 -2 -16 -13q-18 -16 -29 -28q-6 -10 -8 -19q-4 -8 -4 -22zM299 -444q4 -2 6 -7q14 -20 27 -30 q8 -8 18 -13.5t33 -9.5q16 -2 25 -2q8 2 20 6q8 6 23 21q20 23 30 43q9 18 19 41q-14 12 -23 16q-12 6 -28 12t-23 9q-10 0 -23 2q-8 0 -24 -4q-20 -4 -35 -11q-10 -2 -14 -6q-6 -6 -15 -16q-8 -10 -10 -17q-2 -8 -4 -18q0 -8 -2 -16z" />
<glyph unicode="&#xe10;" horiz-adv-x="1228" d="M106 -430q4 47 39 88q29 35 58 49q23 12 57 23q43 12 74 8q25 -2 47 -10q16 -6 37 -17q12 -6 26 -14q10 27 37 41t54 8q31 -8 48 -35.5t9 -58.5l-6 -27q-8 -31 -19 -55l-4 -8q12 -18 21 -37q4 -8 12 -17q8 -2 16 -2q6 2 13 7q23 12 30 20q41 41 103 23q-8 8 -17 16 q-20 25 -32 49q-10 25 -13 60q0 39 15 71q12 29 34 53q18 20 41 39q8 8 19 13q-18 14 -29 45q-4 16 -8 30q-4 12 -10 29q-6 20 -11.5 35.5t-9.5 28.5q-4 14 -10 30q-4 10 -8 21q-2 4 -4 6q-14 -14 -31 -27q-23 -14 -51 -24q-33 -14 -70 -17q-33 0 -65 6q-33 8 -74 31 q-39 23 -64 47q-23 20 -38 45q-20 31 -27 66q-4 25 -2 53q0 23 2 37q2 23 10 43q10 25 33 53q23 31 55 54q23 14 45 24q-18 0 -39 2q-23 2 -41 4q-20 4 -36 8q-20 4 -54 19q-61 29 -75 90q-8 39 -5 70q2 25 14.5 59.5t26.5 54.5q8 14 17 31q10 18 26 41q20 27 47 49 q29 27 68 45q37 18 62 25q18 6 34 8t31 4q16 2 43 4h41q20 0 55 -8q35 -6 58 -16q27 -8 57 -27q25 -14 55 -33q16 -8 25 -12q8 0 16 2q10 0 17 2l28 20q18 14 37 29l17 12q25 18 57.5 14.5t51 -29.5t14 -58.5t-28.5 -51.5l-19 -12q-16 -14 -34 -26q-18 -14 -39 -29 q-33 -20 -80 -27q-49 -6 -80 4q-20 6 -57 27q-33 18 -58 33q-20 12 -33.5 17t-35.5 9q-16 4 -23 4h-35q-20 -2 -31 -2q-10 -2 -22 -4q-10 -2 -23 -4q-8 -2 -30 -14q-20 -10 -35 -23q-14 -12 -23 -24q-12 -14 -18 -27q-10 -16 -19 -33q-6 -8 -12 -26t-8 -27v-2l18 -6 q8 -4 23 -6q14 -2 29.5 -3t31.5 -1h48h49q20 0 39 -2q18 0 34 -2q23 0 52 -4t47 -11q14 -2 28.5 -5t30.5 -5q20 -4 43 -12q27 -8 68 -38t57 -54q23 -31 27 -76q2 -29 4 -51q2 -23 2 -37q2 -18 2 -45q0 -29 -4 -51q0 -18 -2 -33v-37q-2 -20 -4 -55q-2 -33 -4 -60 q-2 -29 -7 -59q-4 -35 -14 -72q-12 -14 -31 -31h15q27 -2 51 -14l14 -4q12 -6 25 -16q6 -4 10 -9l20 -16q31 -25 46 -55q10 -20 16 -47q0 -2 2 -4q6 -10 8 -21l6 -16q8 -29 8 -56q0 -20 -4 -49q-2 -16 -2 -26q0 -23 -8 -62q-10 -41 -24 -65q-16 -29 -48 -54q-29 -23 -53 -32 q-27 -14 -63 -17q-33 -2 -64 2q-27 4 -49 10q-25 6 -47.5 18.5t-46.5 33.5q-10 -8 -21 -13q-51 -29 -90 -26q-23 0 -49 6q-43 8 -78 43q-12 14 -20 25q-14 -10 -31 -21q-23 -14 -41 -22t-35 -15q-29 -12 -69 -10q-33 2 -58 10q-33 8 -63 33q-29 25 -43 55q-12 27 -17 53 q-4 27 0 62zM260 -446v-21q2 -6 4 -10q0 -2 2 -4l4 -2q10 -2 27 -4h8q8 4 19 8q12 6 28 16q4 2 6 4q5 7 11 15q-10 12 -19 16q-16 6 -24 10q-2 0 -7 2q-6 -2 -16 -4q-18 -6 -27 -10l-12 -12zM449 236q0 -2 2 -7q8 -10 18 -20t33 -23q20 -12 30 -14t25 -2q10 0 18 4 q12 6 21 10q4 4 12 13q6 8 10 14q4 14 7 33q2 10 2 14q-2 8 -6 18q-6 12 -15 25q-2 4 -4 6q-14 12 -33 27q-2 2 -4 2l-8 2h-4q-8 0 -25 -2q-16 -2 -26 -6q-10 -2 -23 -11q-10 -8 -18 -18q-6 -8 -10 -14v-6q-2 -10 -2 -27q-2 -10 0 -18zM653 465q8 -6 15 -10q16 -14 28 -25 q25 -18 43 -49q13 -17 19 -33q4 -4 6 -8l14 -21q14 -27 27 -51q6 -12 10 -24q2 4 2 6q2 18 2 39v30q-2 14 -4 39q0 20 -4 45v5q-8 6 -20 16q-16 12 -27 16q-10 4 -19 6q-18 2 -35.5 6.5t-33.5 8.5q-8 2 -23 4zM807 -477q8 -8 17.5 -16.5t15.5 -10.5q8 -4 18 -8q12 -4 31 -6 q12 -2 24 0q10 0 15 2q4 2 12 8q-31 -4 -66 6q-31 8 -53 19q-8 2 -14 6zM852 -311v-2v-4q2 -2 4 -7q6 -6 10 -8q10 -6 21 -10q10 -6 26 -10q8 -2 13 0q4 0 8 2t8 6q6 10 12 22q2 2 2 5q0 4 -2 8q-2 8 -4 14l-6 6l-20 19l-9 2l-2 2q-6 -2 -14 -4q-10 -2 -16 -6l-21 -21 q-6 -8 -10 -14z" />
<glyph unicode="&#xe11;" horiz-adv-x="1671" d="M102 612q0 14 2 27q-2 4 -2 8v21q0 27 2 49q2 27 13 55q8 25 20.5 46.5t34.5 47.5q20 25 45 52q31 31 66 49q37 20 65 24q27 4 66 0q41 -4 71 -16q29 -12 54 -31q20 -14 41 -35q8 10 18 21q18 16 51 35q37 18 70 22q37 4 69 -6q31 -10 60 -35t47 -63q16 -35 23 -66 q4 -25 7 -47t5 -41v-48t-2 -52v-37q-2 -20 -2 -49q-2 -20 -2 -35q2 6 4 10q4 18 12 45q8 29 12 47q6 20 19 49q12 29 20 48q8 14 15 30q8 16 20 37q14 23 41 55.5t51 55.5q23 23 45 37q25 18 60 30q33 12 59 15q27 2 64 -2q51 -6 88 -35q31 -25 51 -58q18 -29 28 -57 q6 -20 13 -33q4 -16 12 -43q8 -31 12 -57q2 -20 4 -41q4 -23 7 -55q4 -33 4 -58q2 -23 2 -53q2 -31 2 -51q2 -23 2 -47v-53q-2 -31 0 -50v-41q-2 -16 -2 -43v-43v-38v-50v-43v-32v-29q-2 -12 0 -25v-14q2 -31 -20.5 -55.5t-54.5 -25.5t-55.5 21.5t-25.5 53.5v14q-2 16 0 33 v31v29.5v41.5v49.5v41.5v43q0 27 2 45v34q-2 20 0 52v53q0 18 -2 41q0 6 -2 51q0 33 -2 53q0 20 -2 49q-4 31 -6 50q-2 20 -6 41q-2 14 -6 34q-6 25 -11 35q-4 12 -12 33q-4 12 -12 24q-6 10 -15 17q-4 4 -12 4q-23 2 -31 2q-6 0 -22 -6q-14 -4 -23 -10q-12 -8 -28 -25 q-16 -14 -36 -37.5t-26 -38.5q-10 -14 -16 -28q-6 -12 -15 -27q-6 -12 -14 -37q-10 -23 -14 -37q-4 -16 -12 -43q-9 -28 -17 -59q-6 -18 -8 -29q-6 -23 -16 -59q-10 -35 -15 -58q-6 -20 -12 -43q-6 -25 -16 -51q-6 -23 -17 -59q-12 -39 -18 -64q-6 -23 -16.5 -56.5 t-16.5 -53.5t-12 -35q-2 -12 -4 -23l-4 -20l-3 -14q-4 -31 -30.5 -50.5t-57.5 -15.5q-29 4 -47 25.5t-20 50.5q-4 12 -2 26v13v26v33v33q0 14 2 31v34v175v43.5t2 44.5q0 18 2 39q0 20 2 49q2 27 2 45q0 20 2 49q0 29 2 47q0 20 2 41v44v40q-2 12 -4 30.5t-6 36.5 q-2 10 -8 27q-4 8 -11 12q-2 4 -6 4h-2q-6 0 -14 -6q-16 -6 -23 -12q-4 -4 -8 -10q-8 -14 -14 -25q-2 -6 -4 -14q-8 -35 -53.5 -50.5t-77.5 1.5v-2q8 -16 14 -39q8 -27 8 -53v-33q0 -20 -6 -43q-4 -20 -14 -39q-10 -23 -31 -49q-25 -29 -55 -45q-23 -12 -45 -21 q-27 -10 -52 -10q-20 -2 -47 0q-33 2 -57 14q-16 8 -39 21q-29 16 -49 37q-18 16 -31 34q-16 23 -26 60q-10 33 -11 65zM258 611.5q0 -9.5 4 -21.5q2 -8 4 -12q4 -8 13 -15q6 -6 16 -12q16 -8 27 -14h8q14 -2 20 -2t12 4q10 2 21 8q6 4 12 10q6 8 8 12q2 6 4.5 11.5 t2.5 11.5v29q0 4 -2 8q-2 12 -7 20h-2q-8 8 -16 15q-2 0 -4 2q-12 2 -25 4l-6 2h-12h-31q-12 -8 -26 -19q-8 -8 -13 -16l-6 -10q-2 -6 -2 -15.5zM352 827h2h4q8 0 17 -2l14 -2q12 -4 23 -6q29 -4 55 -22q10 -8 20 -15q-6 6 -14 15q-12 14 -24 24q-12 6 -23 12q-8 2 -27 5 q-18 2 -26 2q-6 -2 -17 -9q-2 0 -4 -2z" />
<glyph unicode="&#xe12;" horiz-adv-x="1687" d="M102 485v43q0 25 2 41q0 18 2 35q2 16 7 37q2 18 6 41q6 29 16 51q8 23 23 49q14 23 26 43q14 18 35 41q18 23 37.5 40.5t46.5 37.5q33 25 57 35q23 8 46 12q27 6 55 6q16 -2 35 -4q31 -4 55 -18q12 -6 27 -14q25 -12 45 -29q18 -14 39 -39q4 -6 12 -14q12 14 31 30 q25 25 45 35t47 21q27 10 48 14t56 4q37 0 70 -10q39 -10 65 -37q14 -16 39 -45q27 -33 37 -55q8 -16 14 -37q4 -16 13 -45q4 -25 8 -45.5t8 -44.5q6 -31 6 -54q2 -20 2 -39q2 -20 2 -51v-47q0 -20 -2 -51q-2 -29 -3 -46.5t1 -31.5v-43q0 -27 -2 -39v-37v-8q18 -12 41 -24 q23 -14 39 -25q20 -12 41 -31q20 -16 43 -41l39 -39q16 -18 33 -34q12 -12 24 -25q4 20 4 35q0 23 2 57q2 37 5 60q2 20 2 38v64t-2 59v47q-2 25 -3 62v47q-2 23 -2 51v43q0 12 -2 29q-4 25 -4 43v41v47v33q-2 16 -2 34v27v25l-2 16q-2 31 19.5 55.5t53.5 26.5t56.5 -19.5 t26.5 -52.5v-14q2 -16 2 -33v-31q0 -14 2 -28v-39v-47v-37t2 -27q4 -25 4 -43v-47t2 -47v-51q0 -37 1 -59.5t1 -47.5q2 -25 2 -63v-62.5t-2 -50.5q-2 -29 -4 -57q-2 -33 -2 -53q-2 -27 -6 -58q-4 -35 -10 -55q-10 -31 -35 -57q-35 -39 -84 -43q-45 0 -82 26q-23 16 -43 35 q-16 18 -33.5 35.5l-38.5 38.5q-18 18 -37 39q-16 16 -30 28q-12 10 -25 19l-4 2v-21q-2 -14 -4 -34q-2 -25 -8 -47q-8 -27 -27 -56q-25 -35 -68 -55q-39 -18 -79 -19q-29 0 -47 3q-16 2 -33 4q-25 4 -49 16q-29 14 -56 41q-23 23 -37 41q-16 25 -24 57q-4 25 -4 54 q0 31 2 51q4 18 8 37q4 12 10 24q-12 -18 -24 -39q-14 -23 -25 -37q-8 -18 -21.5 -39.5t-19.5 -33.5q-10 -14 -20 -31q-12 -18 -27 -35q-14 -20 -41 -41q-31 -23 -61 -31q-23 -6 -52 -10q-39 -4 -69 6q-29 8 -72 37q-41 29 -59 53q-16 23 -29 46q-10 20 -22 51 q-12 29 -21 47q-8 20 -16 45t-19 57q-10 39 -14 64q-2 18 -4 39q-4 23 -8 57q-4 37 -5 61q0 20 -2 39q-2 23 -2 45zM258 485q0 -16 2 -32q2 -23 2 -47q0 -18 4 -50q4 -33 6 -51q2 -23 4 -41q2 -14 11 -41q8 -31 16 -51q6 -18 12 -33q8 -18 21 -47q10 -25 18 -41 q6 -10 15 -22q6 -6 24 -19q18 -12 27 -16h6q16 2 29 4q2 2 8 6q10 8 16 14q8 10 17 23q8 12 14 25q8 10 20 32q10 16 21 37q8 14 18 31q-6 2 -14 4q-29 4 -51 14q-16 8 -37 17q-31 14 -55 43q-18 20 -31.5 43.5t-24.5 52.5q-10 35 -8 70q0 29 4 51q6 35 31 67q18 29 49 54 q33 27 68 41q29 10 51 14q25 4 51 2h4q20 2 39 -2l12 -6q14 -4 33 -10q18 -8 39 -21q27 -14 49 -41q18 -23 31 -43q12 -23 18 -47q6 -18 9 -37q4 -23 0 -51q-4 -25 -13 -49q-2 -8 -4 -17l-4 -12q-4 -18 -14 -41.5t-29 -60.5q-6 -10 -12 -23q20 29 59 55q39 27 62 35t43 11 q25 4 55 0q13 -3 27 -7v29v39q-2 18 -1 39.5t3 50.5q2 27 2 43v49q0 27 -2 43q0 16 -2 35q0 16 -5 39q-4 25 -7 40t-9 40q-4 23 -8 33q-2 10 -6 20q-4 6 -17 23q-16 18 -26 28h-2q-8 4 -25 4q-20 0 -28.5 -2t-22.5 -6q-16 -6 -25 -10q-4 -4 -16 -14t-18 -19q-8 -10 -19 -26 q-16 -25 -37 -45q-14 -16 -41.5 -24.5t-58.5 0.5t-47 38q-10 16 -25 41q-10 20 -22 33q-10 14 -17 18l-16 12q-18 8 -33 17q-12 0 -24 2q-6 0 -13 -2q-8 -2 -18 -6q-8 -2 -25 -15q-23 -16 -33 -26t-26 -27q-14 -18 -23 -31q-10 -12 -20 -30q-8 -16 -14 -29q-4 -10 -7 -25 q-4 -20 -8 -37q-2 -16 -4 -28q0 -10 -2 -23v-35v-43zM502 403q0 -6 4 -16q4 -14 9 -22.5t13 -18.5q4 -4 9 -6q16 -8 28 -12q6 -4 19 -6q14 -2 24 -3q10 2 21 9q8 4 16 10q8 8 19 20q8 12 12 21q4 12 4 22l2 11l-4 16q-2 6 -4 10q-4 8 -15 21q-4 4 -8 6q-10 6 -20 10 q-11 4 -21 8h-18q-8 2 -12 0q-8 0 -25 -6q-10 -4 -23 -16q-16 -10 -22 -23q-4 -4 -4 -6q-2 -12 -4 -29zM870 2q6 -8 19 -20q8 -8 14 -11q6 -4 10 -4q12 -2 23 -4h29q6 0 14 2q2 2 4 2q4 8 6 15q2 8 4 20q2 16 2 26.5t2 28.5v45v13q-6 2 -14 4q-12 2 -27 4q-8 2 -10 2l-12 -4 q-8 -4 -29 -17q-16 -12 -20 -18q-8 -12 -11 -16q-2 -12 -4 -21v-24v-23z" />
<glyph unicode="&#xe13;" horiz-adv-x="1705" d="M102 659q0 31 11 64q8 25 24 51q12 23 27 43q16 25 39 49q23 20 43 37q23 18 45 31q20 12 45 24q29 12 65 25q37 10 64 14t53 7q29 2 55 0q31 0 70 -9q35 -6 59 -12q37 -10 64 -29q20 -14 37.5 -29.5t42.5 -39.5q25 -25 39 -47q12 -18 24 -37q14 -23 29 -56 q14 -33 23 -59q8 -23 12 -45q8 -27 10 -53q4 -25 6 -60q2 -33 2 -53q2 -23 2 -47q0 -27 -2 -51q-2 -18 -4 -51q-2 -35 -2 -52q-2 -23 -2 -45q-2 -12 -2 -28q20 23 45 41q27 18 66 39q16 8 30 14q-2 10 -2 20q0 43 -2 68q0 27 -2 53q0 25 -2 59.5t-2 55.5q-2 20 -3 40.5 t-1 46.5v38v41q-2 29 -2 43v28q-2 23 -4 43q-2 23 -2 39l-2 15q0 33 22.5 56.5t54 24.5t55 -21.5t23.5 -55.5l2 -15q0 -12 2 -28q2 -20 3 -45q2 -25 2 -41q0 -12 2 -41v-43v-35t2 -43q0 -18 2 -39q0 -20 2 -56t2 -63q2 -25 2 -51q2 -23 2 -65h6q43 -2 72 -11q27 -6 51 -18 q14 -8 39 -19q31 -14 51 -28q23 -16 45 -39q25 -29 44.5 -73t19.5 -75q2 -18 2 -34q0 -25 -9 -56q-10 -33 -30 -63q-25 -37 -60 -58q-31 -16 -55 -24q-18 -4 -51 -8q-37 -4 -68 2q-33 8 -59 26q-23 18 -51 56q-29 35 -43 63q-12 27 -25 74q-10 41 -16 76q-2 6 -2 12 q-12 -6 -19 -12q-14 -10 -26 -23q-12 -12 -31 -41q-18 -31 -29 -51q-12 -27 -22 -49q-14 -29 -39 -60q-6 -2 -17.5 -8t-39 -14t-48 -7t-37 18.5t-14.5 56.5v26v27q2 16 2 37v36v33q2 14 2 31q2 14 4 29q0 14 2 39q0 27 2 47q2 16 2 32q0 23 2 60t5 59q2 16 2 35v39 q-2 20 -4 53q-2 29 -5 47q-2 18 -6 35q-6 20 -12 39q-4 16 -14 41q-10 23 -19 35q-10 16 -20 33q-8 10 -25 28q-18 18 -30.5 28.5t-24.5 20.5q-6 2 -14 4q-18 6 -50 11q-29 6 -47 6q-20 2 -41 0q-18 0 -37 -4q-16 -2 -43 -10t-43 -17l-36 -18q-12 -8 -25 -17 q-14 -10 -29 -26q-12 -12 -18 -23q-12 -18 -23 -37q-8 -14 -12 -24q-2 -4 -2 -8t4 -13q4 0 8 -2q20 -2 45 -4q61 -8 91 -57q16 -35 8 -71t-33 -56q-14 -12 -35 -31q-12 -10 -20 -27q-10 -18 -19 -34q-6 -18 -14 -52q-4 -16 -6 -28q8 4 16 6q29 8 53 10h17h14h10q14 -2 29 -2 q20 -2 41 -8q23 -8 45 -21q20 -12 43 -32t37 -43q12 -16 20 -33q8 -16 17 -37q10 -23 14 -43q6 -27 4 -53q0 -23 -9 -54.5t-24 -60.5q-18 -33 -42.5 -56.5t-51.5 -35.5q-25 -12 -51 -19q-27 -4 -47.5 -5t-48 2t-56.5 12q-29 10 -61 28q-33 20 -55 39q-27 23 -43 51 q-12 23 -21 43q-8 23 -12 54.5t2 60.5l-4 25q-8 41 -6 90q2 47 10 82q6 29 14 65q10 41 21 70q12 29 28 59q8 10 17 23q-16 6 -29 12q-41 25 -61 76q-14 37 -15 65zM281 49q2 -14 2 -18q4 -6 10 -19q2 -4 10 -10q10 -10 31 -22q20 -12 32.5 -16.5t24.5 -4.5q14 -2 22.5 -2 t22.5 2q10 4 17 6q4 2 11 9.5t11 17.5q8 14 12.5 29.5t6.5 21.5q0 4 -2 8q-2 6 -7 19q-6 14 -10 24q-4 8 -10 19q-4 6 -14 14q-12 10 -19 14q-6 2 -10 4q-6 2 -10 2q-12 2 -25 3h-12h-10q-6 0 -16.5 -3.5t-16.5 -7.5t-17 -14q-12 -10 -20 -21.5t-10 -17.5t-4 -16 q-2 -8 0 -21zM1288 168q2 -14 4 -29q4 -27 13 -61q8 -31 16 -45q6 -14 22 -35q14 -18 23 -25q0 -2 2 -2q6 0 14 2q20 2 31 4q6 2 17 9q4 2 8 8q8 10 10 18t2 13q0 12 -2 26q0 8 -8 25q-8 20 -15 26q-10 12 -18 17q-10 8 -29 16q-27 12 -45 21q-10 6 -20 8q-7 2 -25 4z" />
<glyph unicode="&#xe14;" horiz-adv-x="1245" d="M102 381v35q2 16 2 30v27q0 16 1 43t4 45q2 16 6 33q2 16 6 33q4 20 14 47q10 25 15 37q8 20 20 39q10 14 18 28q10 14 33 43q27 35 55 58q25 20 52 36q25 14 51 25q18 8 31 14q20 10 47 21q25 8 41 12q14 2 28 6q16 2 41 6q18 0 35 2q10 2 25 3q16 2 45 2q31 0 55 -5 q23 -2 39 -6q12 -4 29 -8q20 -4 39 -10q16 -6 36 -16q23 -12 39.5 -22.5t44.5 -33.5q27 -20 47 -37q20 -18 35 -34q16 -16 27.5 -35t21 -38.5t17.5 -45.5q8 -25 12 -43q2 -12 6 -27q6 -20 8 -41q4 -16 9 -39q4 -27 5 -48t1 -42v-37v-47q-2 -27 -2 -45q0 -20 -2 -39 q0 -16 -2 -45v-33q-2 -27 -2 -43t-2 -30v-37q-2 -16 -5 -37q-2 -16 -2 -27q0 -14 -2 -43q-2 -23 -2 -39t-2 -32v-25v-12q0 -33 -23.5 -55.5t-55 -22.5t-54 22.5t-22.5 55.5v12v33q2 14 2 33q2 18 4 45v30q2 16 4 39q0 20 2 35v25q2 18 2 34q0 18 2 48q0 25 2 41v36 q2 18 2 36t2 46v41v37q0 14 -1 28.5t-5 35.5q-2 25 -6 41l-4 24q-6 16 -8 35q-4 12 -9 29q-6 16 -11 26.5t-10 18.5t-13 16q-6 10 -21 23q-16 14 -41 32q-20 16 -29.5 22.5t-23.5 12.5q-16 8 -29 12q-8 2 -18 5q-14 4 -27 8q-12 2 -26 4t-33 2h-29q-14 -2 -29 -4 q-12 0 -32 -2q-14 -2 -25 -4q-10 -2 -22 -4q-10 -2 -29 -9q-16 -6 -25 -10q-16 -10 -41 -20q-16 -6 -32 -17q-16 -10 -33 -22q-14 -12 -31 -33q-18 -25 -27 -35l-16 -24q-4 -6 -6 -13q-4 -12 -14 -35q-6 -18 -9 -26q-4 -12 -4 -25q-2 -10 -4 -24t-4 -35v-35q0 -14 -1 -30.5 t-1 -32.5v-27q0 -14 1 -35.5t3 -36.5q0 -12 2 -26q2 -12 4 -27q4 -18 6 -35q2 -12 7 -33q4 -20 8 -32q4 -8 12 -31t14 -31q6 -12 17 -24q6 -10 18 -25q14 -14 33 -29q10 -12 16 -14q12 -6 25 -12q8 -4 22 -6q12 -2 17 -2q10 2 20 6q4 2 6 4q12 14 21.5 25.5t21.5 27.5 q10 12 25 33l16 24t19 31q-10 0 -23 2q-35 4 -65 17q-27 10 -45 22q-25 16 -49 43q-18 25 -31 47q-20 33 -25 70q-2 29 0 57q2 25 11 53q8 29 24 58t43 55q33 35 62 45q18 6 41 10q20 6 38 9q35 4 70 -7l16 -4q18 -2 31 -10l17 -8q23 -12 45 -31q23 -16 41 -39 q23 -25 34 -47q10 -23 15 -45q6 -23 8 -51q0 -31 -4 -62q-4 -23 -10 -38q-2 -12 -9 -23l-6 -12q-6 -10 -10 -23l-14 -33q-10 -16 -21 -38q-12 -29 -20 -43t-23 -41q-16 -27 -26 -43q-12 -20 -25 -37q-10 -14 -23.5 -32.5t-25.5 -33.5q-12 -16 -29 -33q-25 -29 -59 -43 q-29 -10 -56 -16q-35 -4 -73 4q-35 6 -58 16q-14 6 -30 15q-20 12 -49 37q-23 20 -43 41q-18 23 -33 41q-12 16 -21 32q-12 18 -24 50q-12 31 -19 49q-4 16 -10 41t-8 43q-2 16 -6 30l-4 36t-5 34q-2 16 -2 41q-2 25 -2 41zM510 352q0 -4 2 -8l18 -27l11 -10q10 -4 22 -10 q8 -4 23 -4q20 -4 30 -2h21q4 2 14 6q14 8 29 18q2 2 4 7q6 14 8 26t2 27q-2 12 -2 20q-2 6 -6 13q-2 4 -10 14q-10 12 -20.5 20.5t-20.5 14.5l-6 2q-6 2 -11 2l-20 6l-4 2q-12 -2 -27 -6l-16 -4q-2 -2 -6 -8q-14 -12 -21 -23q-6 -12 -10 -25q-4 -14 -4 -26q-2 -12 0 -25z " />
<glyph unicode="&#xe15;" horiz-adv-x="1331" d="M102 481v33q0 18 4 47q2 25 5 41q4 18 8 39q4 14 6 29q4 18 10 35q6 14 12 32q8 20 23 49q16 31 43 64q23 27 35 41q18 20 49 41q27 18 43 26q23 12 53 21q31 8 58 8q18 2 34 2q37 0 78 -22q23 -14 45 -29q25 -18 45 -41q12 -12 23 -25q16 20 35 35q23 18 55 37 q31 16 57 25q31 10 70 14q43 4 74 -2q37 -4 71 -25q33 -16 56 -36q29 -25 49 -62q16 -31 28 -61q10 -29 17 -47q2 -12 10 -33q8 -27 12 -49q2 -18 4 -37q2 -18 7 -45q2 -25 4 -37q4 -20 4 -43v-41q-2 -18 -2 -39v-37q-2 -14 -2 -31v-34v-39q-2 -12 -2 -25v-31q-2 -12 -2 -28 q0 -14 -2 -39q0 -25 -2 -43q0 -16 -3 -33q-2 -20 -4 -41q-4 -20 -6 -35q-2 -12 -4 -30q-4 -14 -4 -29q-2 -14 -4 -31q-2 -16 -2 -31l-2 -12q-2 -33 -27.5 -53.5t-57.5 -17t-52.5 29t-18.5 55.5l2 17q2 12 2 26q2 16 4 33q2 18 4 37q4 18 7 33q2 12 6 33q2 14 2 26q2 18 2 35 q2 14 2 37q2 23 2 39t2 31v26q0 14 2 27v33v39t2 30v38t2 40v29q0 12 -2 22q-4 18 -6 47t-4 43q-2 16 -4 31q-2 8 -6 25q-8 25 -15 41q-2 12 -10 34q-8 18 -18 39q-6 12 -15 19q-12 10 -28 18q-12 8 -23 8q-12 2 -33 0q-23 -2 -35 -6q-14 -4 -34 -16q-20 -10 -29 -17 l-14 -14q-8 -12 -13.5 -20.5t-9.5 -18.5q-6 -14 -14 -30q-14 -35 -49 -42.5t-66 6t-41 29.5q-10 18 -22 39q-6 14 -17 27q-8 12 -22 24q-12 12 -25 23q-16 10 -37 23h-24q-10 -2 -23 -7q-14 -2 -20 -6q-12 -6 -31 -18q-12 -8 -16 -15q-12 -12 -33 -38q-18 -20 -27 -37 q-10 -18 -14 -31q-6 -14 -10 -27q-2 -8 -4 -18q-4 -18 -9 -35q-4 -12 -4 -22q-2 -12 -6 -37q-2 -20 -2 -31v-29v-43q2 -25 2 -41t2 -32q0 -18 2 -35q2 -16 3 -32.5t5 -43.5q4 -25 7 -39q2 -14 6 -27q4 -16 8 -36q4 -14 10 -29q2 -12 6 -21q8 -14 19 -32q6 -12 20 -29 q16 -18 29.5 -28.5t32.5 -18.5q16 -10 28 -12q14 -4 30.5 -5.5t35.5 1.5q18 0 33 4q4 0 8 4q10 6 16 14q12 14 25 29q6 8 12 20q12 18 23 37q8 12 16 27h-33q-27 4 -55 12q-20 6 -39 12q-31 12 -57 37q-14 14 -33 37q-23 25 -35 49q-14 31 -17 65.5t7 69.5q8 29 24 60 q18 35 37 57q20 25 45 43q31 23 64 33q25 6 43 10q27 6 54.5 5t51.5 -9h4q14 0 25 -6l14 -4q20 -10 41 -25q18 -14 37 -33q16 -16 29 -34q12 -23 22 -45q8 -25 11 -52q2 -16 2 -30q0 -20 -5 -43q-4 -14 -8 -29v-10l-4 -17q-6 -25 -16 -49q-4 -14 -8 -24q-4 -20 -13 -43 q-8 -23 -16 -41.5t-18 -36.5q-2 -4 -15 -29q-10 -20 -22 -41q-10 -16 -21 -33q-14 -25 -31 -41q-10 -12 -22 -26q-16 -23 -41 -41q-29 -23 -66 -31q-27 -6 -59 -8q-31 -2 -58.5 0t-54.5 8q-29 8 -61 25q-33 14 -57.5 33.5t-51.5 48.5q-27 31 -43 59q-10 23 -18 37 q-8 18 -16 41q-6 20 -11 41q-6 18 -10 33q-4 20 -8 38q-2 18 -6 48q-4 29 -6 47t-3 36.5t-4 36.5q-2 18 -2 37q0 18 -1 44t-1 44zM522 341q0 -5 2 -7q4 -10 15 -23q12 -14 22 -24q16 -6 35 -11q14 -6 22 -6q14 -2 25 0q6 0 14 2q14 4 25 9l6 6q10 10 16.5 20t10.5 21 q4 14 6 23t2 16q0 10 -2 20q0 4 -2 6q-2 8 -6 15q-4 8 -13 16q-6 6 -14 12q-2 2 -6 4q-8 0 -14 2l-17 4q-4 2 -13 3.5t-15 -0.5q-14 -2 -31 -9q-6 -2 -15 -6l-18 -18q-8 -10 -18 -29q-10 -20 -15 -35q-2 -6 -2 -11z" />
<glyph unicode="&#xe16;" horiz-adv-x="1222" d="M102 666q0 43 15 77q12 25 26 48q12 23 29 43q16 23 37 40q18 16 37 33q25 18 65 39q39 18 68 29q29 8 59.5 15t61.5 11t55 5q25 2 49 2q27 0 72 -4.5t74 -10.5q25 -6 51 -16q25 -8 49 -19q31 -12 53 -28q18 -12 43 -31q29 -23 47 -45q16 -20 29 -41q10 -16 18 -29 q12 -20 21 -43q8 -18 16 -41q8 -25 13.5 -43t7.5 -39q4 -16 6 -30q2 -16 6 -35q2 -18 2 -47q2 -23 2 -35q2 -16 2 -37q2 -16 2 -33q2 -16 3 -34.5t1 -44.5v-43v-33q0 -20 -2 -39v-28.5v-35.5q0 -25 -2 -37v-38q0 -25 -2 -39t-2 -33q-2 -14 -2 -29v-28v-15q0 -31 -23.5 -54.5 t-55.5 -23.5t-54.5 24t-22.5 54v15v30q0 18 2 41q2 16 3 29q2 12 2 35v35q2 12 2 34v39.5v32.5q2 12 2 29v35v43q0 23 -2 38q0 14 -2 31q0 16 -2 37v29q-2 16 -5 49q0 16 -2 26q-2 14 -4 27q-2 16 -6 35q-2 14 -5 25.5t-9 27.5q-6 20 -12 35q-4 10 -11 20q-8 14 -18 31 q-8 12 -17 23q-6 8 -22 20q-20 16 -35 27q-8 6 -24 12q-20 8 -43 16q-16 6 -33 11q-18 4 -54 7t-53 3q-23 0 -45 -2q-23 0 -45 -2q-20 -4 -43 -8q-25 -6 -45 -13q-20 -8 -51 -22q-27 -12 -37 -21q-14 -12 -27 -22q-10 -10 -20 -23q-10 -14 -19 -28q-8 -12 -16 -29 q-2 -6 -2 -18v-13l12 -16q4 -4 11 -8q12 -6 24 -13q10 -2 19 -2q20 -2 43 -4q29 -4 59.5 -30.5t26.5 -69.5q-6 -49 -50 -80q-8 -6 -20 -16q-8 -8 -21 -29q-14 -20 -18 -33q-4 -14 -8 -31q-2 -8 -4 -14q25 8 47 12l18 2q3 3 9 3q16 2 30 0l15 -3q25 -4 49 -14q16 -8 30 -16 q18 -8 39 -25q18 -14 37 -33q29 -27 41 -57q6 -16 12 -37q6 -23 11 -47q4 -25 2 -51q-2 -25 -6 -49q-6 -23 -11 -39q-10 -29 -37 -62q-27 -31 -57 -47q-25 -14 -49 -20q-27 -8 -47 -12h-41q-29 0 -57 6q-18 6 -39 12q-39 10 -76 41q-29 27 -43 49q-14 20 -23 47 q-6 18 -12 39q-6 25 -8 44.5t0 41.5v10v11q-2 27 -2 47q-2 23 2 57q2 29 4 47q2 23 4 45q4 23 10 49q6 27 15 50q10 25 30 59q2 4 7 10q-18 8 -33 17q-29 16 -51 43q-18 23 -33 49q-16 35 -17 82zM322 61q0 -8 2 -18q4 -12 8 -27q4 -8 8 -14t16 -16q6 -6 11 -9q20 -6 39 -10 q10 -2 20 -2h23q6 0 16 4t22 11q6 2 13 10q4 6 8 10q2 10 4 23q4 14 4 26v19q-2 12 -6 24t-8 25l-4 4q-12 12 -23 20q-8 6 -14 11q-12 4 -27 12q-6 2 -10 2h-2l-16 -2q-10 -2 -25 -6q-8 -4 -19 -11q-10 -6 -14 -12q-8 -8 -14 -22q-8 -10 -10 -19v-4q0 -8 -2 -18v-11z" />
<glyph unicode="&#xe17;" horiz-adv-x="1449" d="M102 752q2 27 11 55q10 29 28 55q12 18 35 43q25 27 49 43q23 12 49 25q31 14 64 18q27 4 55 2q41 -2 70 -16l4 -2q25 -6 47 -19q20 -12 39 -26q20 -16 35 -37q14 -18 24 -37q12 -23 23 -49q8 -25 12 -47q2 -10 4 -23v-8l2 -31v-34q4 6 9 12q10 16 22 31q8 12 21 28 q12 18 24 39q18 27 43 53q23 20 41 37q20 16 41 27q12 8 25 14q14 8 30 17q23 12 47 18q20 4 37 8q16 2 33 4q20 2 41 0q18 0 43 -6t41 -12q29 -10 59 -37q18 -18 37 -35q25 -25 43 -57q16 -33 23 -57q4 -14 10 -37q6 -27 8 -47q4 -18 6 -37q2 -18 4 -45q2 -29 5 -54 q0 -18 2 -41q0 -20 2 -43q0 -20 -2 -59v-55v-39q0 -25 -2 -47q0 -23 -3 -54q-4 -27 -6 -43v-22v-30.5v-33.5q-2 -20 -3 -40.5t-2 -37t-1 -34.5v-31l-2 -14q0 -31 -23.5 -53.5t-55 -21.5t-54 25.5t-22.5 55.5l2 12v31q0 20 2 41q0 16 2 37q2 16 2 35v28v27q0 20 2 43 q2 16 4 43q2 25 2 41q2 20 2 43v43v24.5v30.5q2 33 2 51q-2 18 -2 39q-2 23 -2 43q-2 18 -4 43q-2 27 -4 45q-2 16 -4 33q-2 12 -7 31q-4 20 -8 35q-2 6 -10 22q-8 12 -14 19q-16 16 -33 32q-4 4 -8 6q-10 2 -23 7q-14 2 -22 4h-11q-12 -2 -20 -4q-12 -2 -27 -7 q-10 -2 -16 -6q-12 -6 -25 -12q-12 -8 -26 -14q-6 -4 -17 -13q-12 -10 -28 -26q-14 -14 -23 -29q-14 -20 -26 -41q-14 -20 -27 -35l-16 -24q-6 -8 -13 -19q-6 -10 -12 -22q-4 -12 -10 -27q-6 -14 -8 -22q-4 -16 -11 -35q-6 -14 -12 -31q-6 -12 -10 -33q-8 -25 -13 -41 q-4 -16 -9 -34.5t-7 -36.5q-6 -23 -12 -45q-4 -14 -8 -39q-4 -29 -11 -56l-4 -22q-2 -4 -2 -8q0 -14 -2 -31v-43v-33t2 -28l2 -29v-14.5t2 -14.5v-14q2 -31 -19.5 -55.5t-53 -26.5t-56 19.5t-26.5 54.5v14q0 4 -1 13.5t-1 13.5l-2 28q0 10 -2 29v43v47q2 20 2 39v37v33v15 v19q2 18 0 33q0 20 -2 39v51v58v53v6q-20 -8 -46 -12q-29 -6 -51 -4q-16 0 -51 6q-35 8 -59 16q-33 10 -60 29q-23 14 -45 35q-25 23 -39 47q-12 23 -22 47q-12 29 -15 65q-2 29 -2 50zM258 713q2 -10 4 -19q6 -12 12 -22q4 -6 13 -15q14 -12 26 -20q8 -6 21 -10 q16 -6 39 -11q23 -4 30 -4q4 0 19 2q8 0 16 4q10 6 21 17q12 12 20 22q6 8 8 15.5t5 17.5q4 16 4 27q0 10 -2 16q0 8 -7 23q-4 12 -10 22t-12 21q-4 6 -10 10q-6 6 -15 10q-8 4 -14 4l-2 2q-6 2 -10 2q-12 4 -25 11q-16 0 -31 -2q-12 0 -22 -7q-16 -6 -27 -12q-8 -6 -18 -16 q-14 -18 -23 -29q-4 -6 -6 -12q-4 -10 -4 -17v-30z" />
<glyph unicode="&#xe18;" horiz-adv-x="1124" d="M109 664q2 18 6 34q2 18 6 37q6 18 14 47q12 35 41 70q23 31 49 53q23 18 48.5 34.5t45.5 25.5q16 8 43 16q33 12 58 14q29 2 65 -4q23 -4 37 -6q33 -2 60 -12q18 -8 47 -25q35 -16 59 -41q16 -12 37 -26q10 -6 23 -15q8 8 14 15q18 20 37 41q25 27 47 45l16 12 q27 18 58.5 14t51 -29.5t15.5 -57.5t-29 -52l-18 -12q-10 -8 -25 -25q-20 -23 -38 -41q-23 -27 -54 -47q-29 -18 -61.5 -21t-63 11t-59.5 33q-29 18 -53 39q-12 12 -31 20q-20 12 -33 18q-6 0 -12 2q-23 2 -51 7q-16 4 -23 2q-8 0 -24 -6q-20 -6 -31 -11q-6 -4 -23 -14 q-18 -12 -34 -25q-12 -10 -27 -28q-10 -12 -14 -25q-6 -20 -11 -33q-2 -12 -5 -25.5t-5 -29.5l2 -3t2 -7q10 -2 19 -2h26q16 0 41 2q25 0 39 2h33q16 2 41 2q23 2 33 2q20 2 43 0q23 0 45 -2q18 -2 32 -2h25q12 -2 27 -2h35q18 -2 36 -6q20 -2 47 -11q33 -8 66 -28 q31 -18 53 -41q20 -20 39 -45t33 -51q12 -27 20 -52q6 -23 9 -41q2 -14 2 -30q2 -14 4 -30.5t4 -35.5q2 -18 4 -35q2 -20 4 -41q2 -25 2 -43t-4 -49q-4 -29 -6 -49q-4 -25 -10 -45q-8 -25 -29 -57q-18 -33 -39 -54q-25 -27 -57 -41q-29 -12 -56 -16q-14 -2 -36 -4l-46 -4 h-47h-49t-51 2q-20 2 -47 3t-49 1q-35 2 -68 12q-20 6 -41 13q-25 6 -47 16q-31 14 -53 35q-23 20 -39 47q-14 23 -25 51q-8 23 -14 49q-6 29 -8 49v31v31v35q2 18 3 39.5t1 40.5q2 18 2 43q2 25 6 47l4 18q6 31 34 49.5t58.5 11t49 -34t12.5 -57.5l-4 -18q-2 -12 -4 -27 q0 -20 -2 -41q0 -20 -2 -41q0 -20 -1.5 -34.5t-1.5 -30.5v-31v-24q0 -4 5 -21q4 -18 10 -33l8 -20q6 -8 12 -15q6 -4 11 -6q12 -6 28 -10q23 -6 45 -14q12 -4 25 -4q25 0 53.5 -2t50.5 -2q20 -2 41 -2h45h41q18 2 37 4q20 2 35 4q4 0 10 2q4 2 6 6q10 8 21 27q10 16 12 24 q4 10 6 23q2 16 4 41q4 25 4 36t-2 27q0 16 -2 33q-2 18 -5 36.5t-3 35.5l-4 32t-4 29q0 8 -4 18q-2 8 -8 23q-8 14 -18.5 27.5t-22.5 25.5q-10 10 -27 21q-14 8 -27 12q-18 6 -28 6q-12 2 -25 4h-22q-16 0 -31 2q-12 0 -28.5 1t-37.5 1q-20 2 -36 2q-16 2 -33 0h-31 q-25 -2 -41 -4q-16 0 -31.5 -1t-43 -2t-44.5 -1h-34q-23 2 -46 6q-16 4 -30 8q-29 6 -47.5 24.5t-22.5 29t-12 32.5q-18 51 -12 89z" />
<glyph unicode="&#xe19;" horiz-adv-x="1552" d="M102 694q0 23 4 45q2 20 7 37q4 27 18 53q8 18 19 35q12 20 30 41q20 23 45 39q20 12 47 23q23 10 50 16t55 8q37 4 67 -6l19 -4q18 -6 33 -20q10 -4 18 -9q18 -8 41 -24t41 -37q16 -20 29 -49q10 -20 14 -41q6 -20 8 -39q2 -16 4 -37q2 -6 2 -14l2 -19v-41q2 -41 2 -45 v-57q-2 -31 -1 -72t1 -67q2 -29 2 -56v-53v-48.5t-2 -43.5v-39q23 18 41 33q29 20 60 37q29 16 63 30q33 14 64 27q22 10 55 16q-2 45 0 72v55v70q2 39 4 59v37v35v41q2 25 2 49q2 18 2 31q0 14 2 35v30v41l2 15q2 33 27 53t56.5 18t53 -26.5t19.5 -55.5l-2 -16v-27v-41 q-2 -14 -2 -26q0 -18 -2 -43q-2 -18 -2 -39v-41v-33q0 -20 -2 -43q0 -23 -2 -59v-64v-59q-2 -18 -2 -45h34q29 -4 56 -8q31 -6 67 -21q43 -14 68 -33q20 -14 45 -43q29 -31 41 -57q6 -12 16 -35q18 -31 23 -55q4 -16 6 -35q2 -18 2 -37q0 -25 -8 -49q-6 -18 -14 -39 q-10 -18 -27 -43q-20 -29 -51 -55q-31 -25 -53.5 -36t-49.5 -15q-20 -4 -47 -6q-29 -2 -49 0q-27 4 -49 14q-20 8 -39 20q-29 18 -61 70q-31 47 -39 78q-6 25 -11 47q-4 23 -6 51q-2 25 -4 68v37l-2 -2q-29 -10 -59 -25q-27 -12 -52 -25q-20 -10 -40 -26q-23 -16 -58 -45 q-31 -27 -45 -45q-14 -16 -22 -33q-8 -16 -15 -29v-14l-2 -14q-2 -31 -25.5 -52.5t-56.5 -19.5t-55 29q-29 29 -20 67l2 12q0 8 2 17v31q0 18 2 32v29v45q2 23 2 37v45q2 6 2 49q2 18 2 40v44v47q0 27 -2 55v64q-20 -6 -39 -10q-18 -4 -39 -6q-16 -2 -41 -2q-29 0 -51 4 q-18 4 -43 14q-18 6 -37 12q-27 8 -52.5 27.5t-43.5 40.5q-14 20 -25.5 40.5t-19.5 47.5q-8 31 -9 59zM258 692q0 -4 2 -14q4 -12 8 -19q2 -6 8 -14q6 -4 15 -12l12 -6q18 -6 37 -15q14 -4 27 -6q6 -2 14 -2q16 0 31 2q10 0 22 2q4 2 17 8q10 4 16 11q4 4 10 12q6 14 10 23 q2 8 7 24q2 14 2 29q0 18 -2 26q0 8 -5 17q-2 10 -8 22q-2 6 -6 11q-4 6 -10 10q-10 8 -19 12q-12 6 -24 10l-14 6q-7 5 -13 9q-4 0 -6 -2q-16 0 -31 -5q-16 -4 -30 -8q-10 -6 -21 -10q-6 -4 -12 -12q-8 -8 -12 -17q-6 -10 -15 -24q-2 -6 -2 -10q-4 -14 -6 -35 q-2 -12 -2 -23zM1098 180q2 -25 2 -57q2 -39 4 -60.5t4 -37.5t8 -33q2 -10 19 -35q10 -18 18 -25q6 -4 10 -6t8 -2q6 -2 21 0q16 0 29 4q6 0 10 2q6 4 21.5 16.5t21.5 22.5q10 14 14 25q6 10 8 16v4q0 6 -2 17q0 10 -2 20q-2 6 -8 17q-12 23 -20 41q-4 6 -15 18 q-16 16 -24 25q-6 4 -25 10q-27 8 -45 12q-20 4 -43 6h-14z" />
<glyph unicode="&#xe1a;" horiz-adv-x="1343" d="M106 678q-4 29 0 55q2 29 12.5 63.5t24.5 59.5q14 29 37 51q20 18 47 35q29 16 58 27q25 6 47 12q30 4 63 0q16 2 33 -2l12 -2q23 -6 45 -21q18 -8 35 -20q23 -16 45 -39q20 -20 37 -43q20 -29 29 -57q6 -23 8 -43q4 -18 4 -39v-17v-28q0 -33 -2 -62t-4 -59.5t-2 -61.5 q-2 -29 -3 -56.5t-1 -65.5q-2 -43 -2 -64q0 -25 -1 -45t-3 -41q0 -20 -2 -37q-2 -16 -2 -31v-30v-37q0 -16 -3 -39v-37v-2q12 -4 31 -6q23 -2 33 -4q10 0 23 2q25 2 53 2h45q20 0 37.5 -1t33.5 -1q10 -2 21 -2h33q12 -2 27.5 -2h27.5h23q12 0 32 2q8 2 17 2q4 14 10 29 q6 12 10 26t6 27.5t2 29.5l4 46q2 20 3 53q0 33 -3 55q-2 27 -2 52.5v52.5v63q0 33 -2 51q0 25 -2 47q0 20 -2 37q-2 20 -4 49q-2 31 -2 52q0 14 -2 34q0 25 -2 43v23q-2 14 -4 35v28l-2 15q0 33 21.5 56.5t53 25.5t55.5 -19.5t26 -54.5l2 -14v-31q2 -12 2 -23q2 -16 2 -37 q2 -14 2 -36q2 -25 2 -45q0 -14 2 -41t4 -45q2 -23 2 -48q2 -20 2 -41q2 -25 2 -59v-65v-52q0 -23 2 -45q2 -27 2 -63q0 -37 -2 -64q-2 -25 -4 -45q-2 -25 -5 -46t-9 -43.5t-17 -43.5q-6 -16 -10 -29q-8 -25 -29 -49q-33 -39 -79 -43q-14 -2 -37 -4q-20 -2 -38 -3t-32 -1 h-33.5t-36.5 2h-18q-14 0 -31 2q-12 0 -28.5 1t-32.5 1h-43q-23 0 -41 -2q-27 -2 -47 -2q-16 2 -45 6q-27 4 -47 8q-37 6 -68 33q-39 31 -47 78q-2 20 -2 43v43q2 23 2 39v31v30q0 20 2 41q2 18 4 37q0 18 1 38t1 42q0 20 1 61.5t3 67.5v27q-29 -10 -55 -12q-23 -2 -49 -3 q-27 2 -51 7q-27 4 -56 14q-25 8 -47 20q-37 18 -59 48q-16 20 -27 47q-8 18 -16 39q-8 25 -11 57zM260 692q2 -14 6 -22q4 -16 8 -29q4 -4 9 -10q2 -2 6 -4l30 -15q14 -4 29 -6q14 -2 33 -4h27q8 2 22 8q18 6 29 13l2 4q6 10 12 24q6 12 10 29q4 16 4 29q0 14 -2 20 q0 10 -4 25q-2 4 -6 10q-8 12 -20 24q-10 12 -21 17q-12 10 -24 16l-2 2h-15l-20 4h-11l-32 -8q-10 -4 -21 -10q-14 -8 -20 -14q-6 -4 -10 -13q-4 -10 -10.5 -30.5t-8.5 -32.5v-27z" />
<glyph unicode="&#xe1b;" horiz-adv-x="1392" d="M104 719q2 27 9 55q6 39 22 68q14 25 37 53q23 29 49 47q23 16 49 29q33 16 64 18q20 2 39 0h16q11 0 23 -4q18 -2 32 -6q20 -4 43 -14q25 -10 50 -29q25 -20 41 -41q14 -20 24 -41q8 -18 16 -41t12.5 -45.5t4.5 -42.5q0 -8 -2 -14q2 -8 2 -17v-14v-35q0 -16 -2 -43v-51 q0 -25 -2 -55q0 -27 2 -70v-66t2 -43v-38.5v-34.5v-35v-32.5v-36t2 -40.5v-49q0 -16 2 -37v-16h6q18 0 37 -4q10 0 31.5 -2t34 -2h26.5q16 0 45 2h43q18 0 37 -2h19q12 -2 28 -2h31q14 0 32.5 -1t30.5 -1q10 0 29 2q12 2 23 2q4 14 8 34.5t6 41.5q2 23 2 79q0 41 2 78t4 72 q4 31 6 66.5t4 84.5t2 78q0 31 2 62v59q0 29 2 55q2 23 3.5 54.5t3.5 52.5v37v35q0 18 2 45v32v29v35q0 18 -2 33v39v37.5t-1 37t-1 31.5v14q0 33 23.5 55.5t55 22.5t54 -22.5t22.5 -55.5v-14v-31q2 -18 2 -36.5v-36.5v-33q2 -16 2 -41v-35v-24v-43q-2 -23 -2 -39v-39 q0 -18 -2 -39q0 -20 -1 -53t-3 -58q-2 -23 -2 -49v-57q-2 -31 -2 -60q0 -31 -2 -84t-5 -90t-5 -69q-2 -33 -4 -68q-2 -33 -2 -68q0 -61 -2 -88q-2 -33 -9 -63q-6 -31 -14 -53q-10 -33 -35 -60q-33 -37 -80 -43q-18 -4 -41 -6q-25 -2 -41 -2q-14 0 -34.5 1t-36.5 1h-27 q-16 0 -29 2q-18 0 -34 2h-19h-39q-29 0 -43 -2h-36.5t-42 2t-42.5 4q-8 2 -18 2q-16 0 -37 2q-23 2 -43 9q-27 6 -45 28.5t-24 46.5q-6 20 -7 41q0 12 -2 35q-2 25 -2 45v45q-2 23 -2 44.5v38v34.5v33v32v37q-2 20 -2 45v66q-2 31 -2 55q-20 -8 -47 -14q-29 -4 -53 -4 q-31 0 -60 10q-18 6 -28 10q-14 4 -31 11q-31 10 -57 30q-25 18 -43 41q-20 23 -31 43q-12 25 -19 58q-4 27 -2 55zM260 686q2 -6 2 -8q4 -6 12 -14q8 -10 19 -17q6 -6 10 -6q18 -6 33 -12q16 -4 35 -13h4q10 0 24 2q12 2 21 7q14 6 29 16q4 2 8 6q8 10 14 21q2 2 2 8 q4 12 4 24q2 12 2 25q0 6 -2 15.5t-6 21.5q-6 14 -10 24q-4 6 -10 17q-4 4 -11 10q-8 6 -16 10q-10 4 -16 6t-13 2h-14q-8 1 -16 3h-19q-2 0 -8 -5q-14 -4 -27 -14q-10 -6 -20 -20q-12 -14 -19 -27q-6 -8 -8 -20q-2 -18 -4 -37v-25z" />
<glyph unicode="&#xe1c;" horiz-adv-x="1241" d="M100 289v39v53q0 31 1 57.5t1 50.5q2 25 2 48q0 25 2 53q2 31 7 57q4 20 6 39q2 23 2 39l2 16q2 18 12 33q4 18 10 33q12 37 41 70q23 25 43 43q27 23 58 36q23 10 53 19q35 10 63 10l21 2q16 0 35 -6l14 -4q25 -6 47 -19q23 -12 43 -30l33 -33q16 -20 29 -43 q14 -23 22 -45q10 -25 12 -55q4 -27 5 -60q-2 -43 -15 -76q-12 -29 -31 -53q-16 -20 -36 -43q-31 -31 -66 -45q-23 -8 -49 -14q-25 -6 -55 -8q-31 0 -54 2t-47 10q-27 6 -53 18q0 -23 -2 -49v-55v-51v-35q2 -18 2 -33q2 -18 2 -37q2 -14 3 -26.5t5 -30.5q2 -16 6 -37 q4 -16 9 -33q6 -18 10 -33q4 -10 10 -22q8 -12 19 -27q8 -10 20 -22q8 -6 14 -8q10 -4 25 -7q8 -2 27 -2q14 2 24 9q10 4 19 14q16 20 26 39q8 16 15 29q6 14 10 28q6 18 14 39q4 12 8 25q2 14 6 32q4 16 5 29q2 29 19 40t40.5 6t46.5 -14t38 -18.5t15 -11.5q6 -25 8 -63 q4 -33 7 -45q0 -12 2 -24.5t4 -27.5q0 -4 6 -16q4 -12 10 -20q6 -10 14 -21q8 -10 17 -14q14 -10 33 -25q14 -8 26 -14q8 -4 19 -6q10 0 20 2t21 8q14 8 24 16q8 8 10 13q6 8 9 18q8 16 14 33q4 8 6 22q6 20 10 46t7 47q2 18 4 43t4 51q0 27 4 59q2 29 4 70q0 43 2 73 q2 29 2 56.5v50.5v53v49t-2 31v27.5t-2 29.5l-2 25q0 27 -2 37q0 20 2 41v14q4 31 29.5 51.5t56.5 17.5t52.5 -27.5t16.5 -57.5l-2 -15v-14q2 -12 2 -31q0 -16 3 -30q0 -16 2 -31q0 -16 1 -30.5t1 -33v-51.5v-57.5v-51t-2 -59t-2 -73.5q-2 -45 -7 -76q-2 -31 -4 -55 q0 -27 -2 -54t-4 -49q-4 -25 -8 -57q-6 -31 -10 -51q-6 -27 -17 -50l-12 -32q-8 -20 -20 -39q-12 -23 -37 -45q-25 -23 -54 -39q-31 -18 -67 -27q-35 -8 -72 -2q-35 4 -65 19q-25 12 -49 28q-18 14 -33 25q-23 16 -43 37q-16 20 -29 41q-12 -20 -27 -39q-29 -37 -67 -58 q-39 -20 -86 -22q-43 -4 -74 2q-25 6 -47 14q-31 12 -59 37q-23 23 -41 45q-16 23 -31 45q-12 25 -21 47q-6 16 -12 37q-8 27 -14 51q-4 20 -6 41q-4 20 -6.5 37t-2.5 35q-2 12 -4 35q0 18 -2 41zM285 692q0 -12 6 -24q6 -14 11 -21.5t12.5 -13.5t16.5 -10.5t19 -8.5 q16 -4 27 -4q10 -2 29 -2q14 2 26 4q14 2 29 9l8 8q14 14 25 26q6 10 10 21q2 6 4 18q0 23 -2 39q-2 12 -4 21q-4 10 -10 20t-15 19q-8 10 -16 18q-8 6 -17 10q-6 4 -12 6l-14 4l-6 -2q-12 0 -29 -4q-20 -6 -33 -12q-8 -2 -16 -10q-14 -12 -31 -31q-10 -12 -12 -20 q-6 -10 -6 -25q-2 -16 0 -35z" />
<glyph unicode="&#xe1d;" horiz-adv-x="1257" d="M102 369v43q0 20 1 40.5t1 53.5v61.5t1 45t4 42.5q0 25 4 54l2 26q0 16 10 33q2 8 4 18q8 29 25 56q10 16 26 41q25 33 53 51q20 12 44 22.5t49 18.5q39 12 71 8l17 -2q4 -2 10 -2q18 -4 35 -10q23 -6 43 -19q14 -10 30 -20q25 -18 46 -43q14 -18 24 -35q14 -23 21 -47 q8 -23 10 -43q2 -18 2 -37q2 -27 -2 -56.5t-15 -54.5q-10 -25 -24 -49q-14 -25 -35 -45q-25 -27 -53 -37q-20 -10 -49 -14q-27 -6 -56 -6q-29 -2 -55 0q-31 4 -55 14q-16 6 -31 12v-38q-2 -20 -2 -43v-35q0 -16 2 -39v-39q0 -18 2 -43q2 -27 4 -39q2 -16 2 -29q2 -12 4 -32 q2 -18 7 -39q4 -18 10 -35q4 -16 10 -27q4 -12 12 -28q4 -10 8 -19q4 -6 13 -12q12 -10 20 -15q8 -4 17 -6q10 -2 26 -4h2q8 4 17 13q12 12 22 26q12 18 25 39q12 23 20 39q8 20 15 35q2 6 4 10q2 14 4 29.5t6 40.5q4 20 6 32q2 35 20.5 46.5t42 3t46 -21.5t39.5 -26l14 -14 q8 -37 12 -57q4 -16 8 -39q2 -8 4 -17q0 -6 5 -14l2 -8q2 -4 2 -6q4 -16 14 -35q10 -23 18 -37q6 -12 15 -22q6 -6 16 -15q14 -10 27 -18q14 -6 24 -10q8 -2 23 -4q10 -2 16 0q10 2 23 8q10 4 18 12q10 14 23 33q12 20 18 39q8 14 10 26q4 20 9 41q4 14 6 31q2 23 8 59 q4 37 6 58q2 20 4 41q0 25 4 49q0 23 2 55v57q0 29 2 50v47v47q2 45 2 61v33v47q-2 27 -2 41q-2 18 -2 39v31v24v37v37v37.5v40.5q2 16 2 31q-2 16 -2 34v31q-2 23 -2 39v27q-2 14 -2 26v15q0 31 23.5 54t55.5 23t54.5 -23.5t22.5 -53.5v-15q0 -10 2 -22v-29q0 -12 2 -29 v-41q0 -18 2 -34q0 -18 -2 -39v-36v-34v-39v-35v-30v-27q0 -14 2 -27q0 -20 2 -51v-45v-39q0 -18 -2 -63v-45v-47q-2 -35 -2 -48v-61q-2 -37 -4 -63q-2 -25 -2 -46q-2 -25 -4 -51q-4 -23 -8 -59q-4 -35 -9 -55q-2 -27 -8 -52l-8 -36q-6 -27 -18 -56q-10 -27 -29 -57 q-18 -33 -41 -57q-27 -29 -62 -48q-33 -16 -63 -22q-35 -6 -70 0q-31 4 -53 12q-20 6 -45 21q-23 12 -45 28q-27 18 -45 41q-16 20 -31 45q-6 12 -14 29q-14 -23 -29 -41q-16 -27 -39 -49q-27 -27 -57 -41q-35 -16 -78 -16q-31 2 -53 8q-29 6 -55 18q-25 14 -50 35 q-29 25 -43 47q-10 16 -20 39q-8 18 -14 33q-6 16 -13 37q-8 25 -14 51q-6 27 -8 51q-4 25 -4 39q-2 12 -4 27q0 16 -2 43q-2 29 -5 51v39q-2 33 -2 39zM276 727q0 -10 3 -27q4 -16 6 -22q4 -6 10 -14q12 -14 24 -27q4 -4 7 -6q8 -4 18 -8q8 -2 18 -5q14 -2 33 0q16 0 33 3 q10 2 16 4l2 2q8 8 15 18q6 12 12 25q4 10 6 23.5t2 21.5q-2 16 -4 28q0 8 -2 15q-2 6 -4 10q-8 10 -18 23q-4 8 -9 10l-24 16q-4 2 -10 4q-8 2 -15 4l-10 2h-6q-2 0 -6 -2q-16 -4 -31 -10q-14 -8 -27 -14q-4 -2 -8 -8q-12 -20 -22 -35q-4 -6 -6 -15q-2 -8 -3 -16z" />
<glyph unicode="&#xe1e;" horiz-adv-x="1486" d="M104 717q-2 31 7 67q8 33 20 60q12 23 27 43q12 16 24 31q20 27 51 45q29 16 68 24q33 8 66 8q31 2 59 -2l23 -2q12 -2 26 -8l8 -2q31 -10 58 -39q16 -16 30 -37q12 -16 27 -37q12 -23 23 -45q8 -20 12 -41q4 -25 6 -51q0 -12 -2 -24q2 -12 0 -23l-6 -29q-4 -25 -6 -41 q-2 -23 -7 -49q-2 -25 -4 -49t-3 -48t-1 -54q-2 -37 -2 -58q-2 -18 -2 -37v-34v-35q0 -14 2 -37q0 -25 2 -39q0 -10 2 -20q2 -12 9 -37q4 -20 8 -35q6 -16 10 -29q2 -6 8 -20q8 -14 17 -25q6 -8 17 -19.5t17.5 -14.5t28.5 -11q4 0 8 -2q8 4 13 4q2 2 4 6q10 10 22 31 q10 18 17 31q6 12 12 28q6 20 12 37q4 14 10 37q6 25 11 43q4 18 6 33q2 6 2 12q2 18 4 41q2 14 2 25q0 27 78 20.5t78 -20.5q2 -20 2 -49q0 -27 -2 -45v-35q0 -14 2 -25q2 -16 4 -39q2 -18 4 -30q2 -8 8 -27q10 -23 20 -41q8 -14 19 -25q10 -12 16 -16q8 -6 21 -10 q14 -6 28 -8h7q2 2 6 4q12 10 26 32q16 20 21 33q6 16 11 35.5t11 52.5q4 31 7 56q2 29 4 57.5t4 54.5q2 27 4 68t2 63q2 20 0 51v58q0 20 -2 41q-2 23 -2 43q-2 27 -2 47q0 14 -2 45q-2 37 -2 51q0 10 -2 29q0 23 -2 39q-2 18 -3 35q-2 10 -2 28v12q-2 33 20.5 56.5 t54.5 25.5t55.5 -20.5t25.5 -52.5v-15q0 -16 1 -28.5t1 -26.5q2 -16 4 -41t2 -39q0 -12 2 -45q2 -37 2 -55q0 -14 2 -35q0 -25 2 -45t2 -45v-57q2 -35 0 -62q0 -20 -2 -65t-4 -70q-2 -27 -4 -56.5t-4 -58.5q-2 -31 -8 -69q-8 -37 -14 -66q-6 -27 -15 -49q-12 -31 -39.5 -71 t-56.5 -62q-35 -29 -72 -37q-31 -6 -67 0q-29 6 -53 16q-31 10 -54 27q-23 14 -45 37.5t-41 56.5q-2 -2 -2 -4q-16 -27 -31 -43q-20 -27 -47 -43q-25 -14 -55 -22q-43 -10 -92 6q-37 12 -57.5 23t-44.5 34q-25 20 -41 43q-14 23 -27 45q-12 25 -18 43q-6 12 -11 31 q-8 20 -14 49q-4 27 -8 45t-4 37q0 12 -2 37t-2 45v36.5v40t2 40.5q0 18 2 51v59q2 8 2 19q-12 -4 -23 -7q-27 -4 -49 -4q-23 -2 -50.5 2t-51.5 13q-29 10 -60 30q-25 16 -43 33q-20 18 -37.5 46t-25.5 53.5t-13 56.5zM260 729q2 -10 4 -18.5t9.5 -18.5t13.5 -16 q10 -10 24 -21q12 -6 19 -10q12 -4 26.5 -5t24.5 -1t29 2q12 2 20 6t19 12q8 6 12 13q8 10 12 20q6 10 8 21q2 8 2 16q0 10 -2 19q-2 10 -6 20t-10 18q-8 12 -19 25q-8 12 -18 23v2l-10 2l-10 2q-16 2 -35 2q-18 -2 -37 -6q-16 -4 -23 -9q-6 -4 -10 -6l-20 -28 q-8 -8 -13 -19q-4 -8 -8 -24q-2 -12 -2 -21z" />
<glyph unicode="&#xe1f;" horiz-adv-x="1521" d="M102 737q0 23 9 54q6 33 18 57q12 20 27 39q14 18 32 37q23 18 48 32q27 14 61 23q31 6 55 8q29 4 58 -2l18 -2q15 -4 29 -12q18 -6 32 -15q18 -10 38 -23t36 -30q25 -23 41 -55q10 -23 19 -41q8 -23 12 -55q4 -29 2 -56q0 -10 -2 -18v-8v-17q-2 -16 -4 -35q0 -20 -4 -45 q-4 -23 -9 -49q-4 -23 -6 -45q-2 -25 -4 -55v-51q0 -20 -2 -43q0 -20 -1 -38t-1 -43.5t1 -38.5t1 -28v-30q2 -10 4 -27q0 -14 4 -31q4 -18 13 -37q6 -18 10 -28q4 -6 12 -17q10 -14 23 -24q2 -2 12 -6l14 -7h15q4 0 8 2t10 7q12 8 17 12q8 10 16 24q10 20 22 39q6 12 17 39 q10 29 14 49q6 23 10 50q6 23 12.5 54.5t8.5 49.5q4 27 6 43q8 31 26.5 40t41 0t43 -22.5t34.5 -25.5l15 -12q2 -33 2 -56v-28q2 -23 2 -37q2 -12 4 -27q0 -12 4 -31q4 -16 10 -36q6 -23 8 -33q4 -8 9 -21q6 -12 18 -28q8 -16 16 -25q10 -12 23 -25q4 -4 12 -10 q14 -8 27 -14q2 0 6 -2q2 2 4 2q14 8 25.5 17.5t15.5 15.5q6 10 10 18q4 10 13.5 38t11.5 46q4 20 10 64q6 39 8 67q2 31 4 60q2 35 5 79q2 45 2 74v55q0 27 2 68v57q-2 25 -2 50v55q2 25 2 41t-2 33q0 18 -2 45q0 25 -1 41t-1 28q0 16 -3 39q0 25 3 49q2 16 0 35 q-2 25 -3 51v41t-2 33v37q2 12 2 24q-2 18 0 33v17q2 31 26 53t55.5 21t54 -25.5t20.5 -55.5v-14v-26q0 -16 -2 -33v-27q0 -18 2 -37v-39q0 -20 2 -41q2 -29 0 -57q-2 -18 -2 -37q2 -18 2 -31q0 -14 2 -32v-43q2 -25 2 -41q2 -18 2 -39q0 -20 -2 -51v-45q0 -23 2 -43v-68 q-2 -39 -2 -66v-59q0 -31 -2 -78q-4 -47 -4 -80q-2 -31 -4 -61q-4 -35 -10 -80t-10 -68q-4 -29 -16.5 -65.5t-20.5 -56.5q-10 -20 -23 -41q-16 -23 -43 -45q-27 -23 -59 -39q-41 -20 -78 -19q-27 2 -59 15q-25 10 -48 24q-29 16 -49 39q-12 14 -22 27q-16 18 -33 43 q-10 18 -18 34q-10 -16 -23 -36q-12 -23 -27 -39q-18 -25 -49 -45q-33 -23 -61 -31q-20 -4 -43 -6h-35q-27 4 -59 18q-37 16 -62 39q-14 16 -31 35q-20 25 -32 47q-10 20 -19 47q-10 27 -16 51q-6 27 -8 49q-2 20 -2 39q-2 18 -2 31q0 14 -1 29.5t-1 43t1 46t1 41.5 q2 20 2 39q0 20 2 55v37q-10 -2 -21 -2q-20 -2 -49 -4q-37 -4 -65.5 1t-51.5 15q-18 8 -39 21q-25 12 -47 32q-20 20 -37.5 48t-25.5 57q-8 25 -13 51q-4 29 -4 51zM258 733q0 -8 2 -22q2 -16 6 -31q4 -8 10.5 -18.5t12.5 -16.5q8 -8 16 -12q14 -8 25 -12q4 -2 16 -5 q10 -2 29 -2q27 2 43 4q8 2 18 5q4 2 10 8q12 12 23 26q6 4 8 15q4 20 4 30q2 14 0 31q-2 12 -4 19q-6 12 -12 28q-4 6 -8 8q-8 10 -18.5 17.5t-18.5 11.5q-10 6 -21 10l-14 4h-2q-6 2 -16 3q-14 -2 -35 -7q-14 -4 -21 -8q-10 -4 -16 -12q-10 -8 -16 -16t-11 -17 q-4 -4 -6 -18q-4 -14 -4 -23z" />
<glyph unicode="&#xe20;" horiz-adv-x="1359" d="M109 111q4 27 14 53q10 29 27.5 55.5t42.5 46.5q23 18 51 33q27 12 59 18l23 5q4 2 10 2q8 2 12 2h14q14 2 31 2q27 2 53 -4q8 -2 19 -5q4 23 8 43q6 35 21 66q2 8 6 16q-33 12 -62 29q-39 18 -65 47q-37 41 -41 111q-2 59 14 100q12 31 27 53q14 27 33 52q20 27 47 49 q25 23 51 39q29 18 57 30q25 12 68 25q47 16 78 20q29 2 61 2q29 0 61 3q41 0 74 -5q37 -8 70 -24q25 -10 53 -25q41 -20 64 -41l30 -30q16 -16 29 -33q14 -18 27 -41q12 -20 20 -41q8 -20 18 -51q8 -27 17 -45q8 -25 12 -52q4 -23 8 -43q4 -25 6 -47q0 -23 3 -57v-59 q0 -23 2 -43v-43q2 -23 2 -43v-39q0 -20 -2 -47t-3.5 -43.5t-3.5 -32.5q0 -12 -2 -25v-37q-2 -27 -2 -43q0 -12 -2 -24v-29v-29l-2 -14q0 -33 -24.5 -54.5t-56 -20.5t-53 26t-21.5 55l2 15v26v25q2 16 2 33q0 14 2 38v41q2 16 4 33q0 12 2 29q0 14 2 39q2 23 2 39v39 q0 20 -1 39.5t-1 39.5q-2 25 -2 50q0 23 -1 54.5t-1 49.5q-2 16 -4 33q-4 20 -6 39q-4 16 -11 32q-6 18 -14 46q-8 25 -14 38t-13 27l-14 21q-8 10 -18 20q-10 12 -23 23q-8 8 -29 18q-29 14 -51 25q-14 6 -28 10q-18 2 -43 2q-35 -2 -66 -2q-23 0 -41 -2t-51 -13 q-35 -12 -53 -20q-16 -6 -33 -16q-18 -12 -35 -27q-16 -14 -27 -29q-12 -14 -20 -30t-19 -37q-4 -8 -2 -33q0 -8 2 -14q8 -8 21 -15q20 -10 37.5 -16t40.5 -12q18 -2 34.5 -10.5t36 -30t21.5 -52.5q2 -41 -25 -83q-10 -16 -18 -36t-12 -40q-4 -23 -9 -47q-2 -23 -2 -45 q2 -23 4 -52l3 -28v-17q2 -14 4 -30q2 -31 0 -54q-2 -18 -9 -45q-6 -31 -16 -55q-12 -27 -33 -49q-16 -20 -39 -37q-20 -14 -47 -29q-35 -16 -67 -18q-20 -2 -47 0q-20 2 -41 6q-29 2 -58 14q-25 10 -45 23q-20 14 -39 33q-16 16 -30 37q-16 20 -29 45q-10 25 -15.5 60.5 t-0.5 68.5zM262 86q0 -10 1 -22.5t5 -18.5q2 -6 8 -16q10 -10 19 -21q6 -6 12 -10q8 -4 21 -10q10 -2 16 -4q18 -2 37 -4q12 -2 22 0q4 0 9 2q14 8 24 14q6 6 13 12q6 6 8 15q4 8 8 22q4 18 6 31q0 6 -1 18t-5 23q-4 12 -10 22q0 4 -9 11q-12 12 -24 18q-4 4 -8 4 q-6 2 -13 2q-14 -2 -26 -2l-15 -2h-6l-22 -4q-12 -4 -21 -8q-12 -4 -18 -13q-8 -6 -14.5 -14t-8.5 -18q-6 -12 -8 -27z" />
<glyph unicode="&#xe21;" horiz-adv-x="1269" d="M104 739q4 31 15 62q8 31 23.5 55.5t43.5 54.5q31 31 64 47q29 14 61 23q25 4 41 6q20 2 43 2q18 -2 31 -4q16 -2 43 -8l20 -6q23 0 43 -13l13 -8q18 -10 39 -30q23 -23 39 -50l18 -36q6 -18 12 -43q6 -29 9 -58v-16l4 -12q4 -20 4 -50q0 -20 -2 -49q-2 -23 -2 -49.5 v-54.5v-76v-70t-2 -49q-2 -14 -2 -24q37 -23 61 -37q27 -18 51 -41l35 -35l27 -27q14 -12 34 -34q18 -16 39 -35q23 -23 41 -43q8 -10 19 -25q4 20 8 51q6 37 8 62q2 23 4 45q2 23 6 57q2 31 5.5 70t3.5 65q0 31 2 62t4 53q0 25 2 61q2 35 2 52q2 16 2 32v33q0 14 -2 41 q-2 31 -2 51v35q-2 20 -2 51v13l-2 12q-2 31 19.5 55.5t53 26.5t56 -19.5t26.5 -52.5v-12q2 -14 2 -19q0 -29 2 -47v-43q0 -16 2 -43q2 -31 2 -49v-33q0 -16 -2 -34q0 -20 -2 -58q-2 -37 -2 -63q-2 -25 -4 -52.5t-2 -54.5q-2 -31 -4 -72.5t-6 -76.5q-2 -33 -4 -55 q-2 -23 -6 -50q-2 -25 -6 -61q-6 -41 -11 -66q-6 -23 -10 -43q-10 -33 -33 -63q-39 -51 -96 -49q-45 2 -84 35q-23 20 -43 45q-12 16 -25 30q-12 14 -28 31q-23 20 -43 41q-16 18 -29 29q-16 14 -33 30q-14 16 -32 33q-6 6 -15 12q-2 -12 -2 -22q-4 -25 -10 -45 q-4 -16 -10 -34.5t-11 -33.5q-8 -18 -18 -39q-14 -25 -39 -49q-29 -27 -69 -39q-33 -8 -68 -10q-29 -2 -45 -2q-25 2 -47 6q-23 6 -66 31q-45 25 -73 55q-31 37 -41 70q-6 23 -9 53q0 29 4 64q6 41 19 67q10 20 24 43q16 27 37 47q16 14 37 31q25 18 49 31q29 12 68 18 q35 2 61 2q27 -2 52 -4q8 -2 14 -2q2 8 2 16v68v41q-18 -8 -37 -14q-33 -10 -67 -11q-29 0 -56 4q-31 2 -57 15q-18 8 -35 16q-23 10 -45 27q-20 16 -37 39q-16 18 -31 39q-14 23 -24 45q-8 25 -13.5 54.5t-3.5 57.5zM260 727q0 -12 1 -23.5t5 -17.5q2 -8 10 -18 q8 -14 19 -25q6 -10 14 -16t15 -9q14 -8 30 -14q8 -2 17 -4q14 -2 32 -2q14 0 27 4q10 4 19 8q12 8 20 21q14 14 25 28q6 4 8 15q4 6 4 16q2 16 0 35q0 14 -4 27l-6 24q-4 8 -11 19q-2 6 -8 12q-8 6 -14 10q-4 2 -8 2l-23 6q-18 4 -24 6q-12 0 -25 3h-10q-10 -2 -29 -7 q-12 -2 -25 -8q-8 -4 -20 -18q-16 -14 -22.5 -24.5t-10.5 -24.5q-4 -12 -6 -25zM299 51q0 -8 2 -14q2 -4 8 -10q10 -12 33 -25q18 -10 29 -14q4 -2 10 -2q12 0 37 2q16 0 31 4q4 2 6 4q8 6 8 8q6 10 8 16q4 12 9 27.5t9 30.5q2 12 7 28q2 18 4 33q0 16 2 31v14q-14 4 -27 4 q-20 4 -39 5q-14 0 -37 -3q-16 -2 -20 -4q-10 -4 -21 -12q-14 -10 -24 -20q-6 -6 -12 -17q-8 -14 -15 -26q-2 -6 -6 -25q-2 -20 -2 -35z" />
<glyph unicode="&#xe22;" horiz-adv-x="1169" d="M102 604q0 18 2 39q0 20 2 37q0 20 5 41l2 16q2 10 4 19q2 14 6 28q4 27 14 52t21 43q14 23 39 45q16 14 41 30q27 18 59 29q31 10 62.5 12t62.5 -2l24 -4l5 -2q27 4 49 -8l12 -8q16 -8 35 -23q18 -14 35 -35q18 -20 30 -45q8 -16 17 -32q12 -27 16 -52q4 -20 6 -41 q0 -16 -2 -41q0 -29 -6 -55q-10 -37 -33 -67q-18 -25 -37 -41q-20 -20 -45 -35q-23 -12 -47 -23q-37 -14 -71 -14q-25 2 -43 4t-45 8q-23 4 -46 15q6 -12 15 -29q8 -16 18 -31q8 -12 21 -22q8 -6 18 -11q23 -8 37 -12q2 0 4 -2q4 2 8 2h13q12 2 34 4q12 0 43 -15.5t52.5 -44 t-9.5 -73.5q-23 -35 -67 -49l-21 -6q-2 -2 -4 -2q-12 -6 -22 -11.5t-23 -13.5q-10 -8 -22 -24q-12 -14 -17 -25q-6 -16 -9 -30.5t-3 -20.5t4 -21q2 -10 6 -16q4 -8 17 -21q8 -10 14 -12q14 -6 23 -10q14 -4 38 -12q20 -8 31 -11q10 -2 31 -2l26 -2q29 -2 46 -2q10 -2 32 -2 q23 0 54 2q29 2 38 4q12 2 25 4q10 2 29 7q12 4 28 14q23 14 37 29q14 12 25.5 27.5t17.5 27.5q6 16 10 27q4 12 7 24q4 14 8 33q4 18 8 35l4 28q2 16 4 43t2 47q2 20 2 46q2 23 2 45q0 18 1 37.5t1 46.5q-2 31 -2 51v65v25q-2 20 -2 45v39v35q-2 20 -2 34v29v12 q-2 33 20.5 56.5t54.5 24.5t55.5 -21.5t25.5 -54.5v-13v-28q0 -14 2 -33v-41v-39q0 -20 2 -35v-35v-65q0 -20 2 -49q0 -29 -1 -50.5t-1 -44.5q0 -20 -2 -45q-2 -23 -2 -43q0 -23 -2 -51q-2 -31 -4 -51t-8 -41q-2 -18 -9 -39q-4 -18 -8 -35q-4 -18 -10 -35q-6 -18 -16 -43 q-12 -29 -33 -56.5t-47 -51.5q-25 -20 -56 -41q-37 -25 -69 -35l-45 -10q-14 -2 -31 -6q-16 -2 -53 -4q-35 -2 -62 -2q-29 0 -45 2q-12 2 -35 2q-20 0 -36 2q-29 2 -48 6q-20 4 -51 14q-27 8 -39 12q-18 6 -41 19q-33 14 -61 45q-23 27 -37 49q-14 25 -22 60q-6 29 -7.5 51 t4 52t17.5 60q14 35 41 66q6 8 14 18q-18 10 -35 23q-27 23 -47 49q-16 25 -30 51q-12 25 -21 43q-10 23 -16 51q-6 29 -9 52q-2 14 -2 28q-2 18 -2 37zM272 729q0 -6 2 -14q2 -12 11 -27q4 -10 10 -20q6 -8 14 -13q12 -10 29 -18q10 -4 20 -6q14 -4 27 -6q12 0 29 -2 q4 0 8 2q16 8 29 14q8 4 16 12q10 8 18 21q4 6 7 10q2 14 4 29v26q0 8 -2 19q-2 4 -5 12q-8 16 -16 31q-4 6 -8 14q-8 6 -14.5 11.5t-12.5 9.5q-10 0 -18 2l-23 4q-14 2 -26.5 1t-24.5 -5t-22 -11q-14 -10 -25 -20q-6 -4 -8 -6q-4 -8 -9.5 -20.5t-7.5 -26t-2 -23.5z" />
<glyph unicode="&#xe23;" horiz-adv-x="1019" d="M102 631q0 20 2 55q4 37 15 64q6 20 10 36q8 20 16 39q10 23 25 41q16 25 63 58q45 33 68 41q20 8 41 12q20 4 41 6q14 2 31 4q23 2 49 2q29 0 51 -6q14 -4 35 -8q33 -8 53 -19q12 -6 27 -14q14 -8 41 -22q20 -14 43 -31q27 20 37 33q12 10 22 22l12 12q20 23 53 25 t57 -19.5t25 -54.5t-20 -57l-12 -12q-12 -14 -29 -29q-16 -16 -47 -41q-45 -35 -86 -39q-47 -4 -94 29q-23 14 -43 28q-23 12 -32 17.5t-26 13.5q-6 2 -16 6q-23 4 -39 8q-6 2 -16 3q-14 0 -27 -3q-18 -2 -35 -2l-20 -4q-8 -2 -19 -6q-10 -4 -34 -22q-20 -14 -29 -23 q-4 -6 -8 -14q-6 -10 -8 -23q-6 -12 -13 -35q-4 -14 -6 -32q-2 -23 -2 -33v-8q10 0 18 -2q18 -2 39 -2h54q35 0 59 2q27 2 51 0q29 0 51 -4q20 -4 41 -8.5t43 -10.5q23 -4 54 -14q41 -16 71 -45q25 -25 41 -53q16 -27 25 -50l8 -32q4 -14 8 -35q8 -31 8 -60q2 -23 0 -45 q-2 -23 -4 -43q-2 -18 -2 -34q-2 -16 -2 -33v-32.5t-2 -29.5v-12q0 -12 -4 -23q2 -23 0 -45q-2 -23 -12 -55q-10 -35 -25 -57q-18 -31 -43 -51q-25 -18 -53 -31q-23 -8 -41 -12q-27 -6 -55 -5q-25 0 -47 5q-18 2 -37 6q-25 6 -47 16q-23 8 -45 23q-27 14 -45 32 q-18 16 -33 35q-16 20 -26.5 44t-14.5 50q-6 27 -2 60q2 29 12 55q6 23 16 47q16 33 41 60q25 25 56 43q23 10 43 20q31 14 59 19q29 4 53 0l13 -3q2 -2 4 -2q10 0 18 -2l14 -4q20 -6 41 -16q8 -4 15 -8q2 14 0 26q0 10 -2 23q-6 20 -10 37q-2 10 -7 22q-2 6 -8 17.5 t-16 21.5q-6 4 -17 8q-20 8 -36 13q-18 4 -37 7t-35 7q-14 2 -31 2h-41q-25 -2 -61 -2h-64q-25 2 -47 4q-25 2 -43 6q-37 6 -67 37q-33 29 -43 70q-4 25 -7 45zM442 45q2 -6 5.5 -13t7.5 -12q6 -8 14 -16q8 -6 18 -12q14 -8 27 -15q12 -4 23 -6q14 -4 28 -6q12 -2 25 -4 q8 0 12 2q10 2 25 8q6 2 10 6q4 2 6 7q6 10 10 24q6 18 6 27q2 6 0 12q-2 14 -4 27q-2 12 -6 24q0 6 -4 11q-6 10 -18 22q-4 8 -9 10q-14 6 -26 13q-8 6 -17 8l-12 2q-4 2 -10 2l-12 2h-4q-4 0 -13 -4q-16 -8 -37 -21q-10 -4 -16 -12q-6 -6 -10 -14q-8 -18 -12 -31 q-4 -10 -5 -25q-2 -10 -2 -16z" />
<glyph unicode="&#xe24;" horiz-adv-x="1206" d="M113 561q-8 35 4 86q8 43 22 74t35 59q16 20 35 41q20 25 43 45q23 18 55 43q35 25 66 39q29 12 58.5 21.5t62.5 13.5q31 6 65 10q33 2 64 4q35 0 77 -6q43 -6 72 -14q25 -8 47 -16q29 -10 53 -27q18 -12 37 -27q14 -12 39 -28q27 -20 43 -37q18 -14 31 -31 q16 -20 29 -43q12 -20 20 -45q10 -25 16 -66q8 -37 11 -63q2 -25 6 -49q2 -25 4 -53q2 -25 2 -54v-65v-68v-57q-2 -27 -4 -53q0 -25 -2 -62q-2 -41 -2 -65q-2 -23 -2 -43q0 -23 -2 -45q0 -25 -2 -46q-2 -18 -3 -42.5t-1 -41.5q-2 -16 -2 -30v-30.5v-29.5q0 -20 -3 -41 q-2 -14 -2 -28q-2 -27 -2 -43q-2 -12 -2 -25v-33q-2 -14 -2 -26v-19l-4 -32q-4 -33 -8 -68l-2 -35q-4 -33 -29.5 -53.5t-56.5 -17t-52.5 29t-17.5 56.5l4 36q4 35 7 68l2 8q-2 12 0 23l2 14q0 12 2 25v26q0 16 2 35q0 12 2 39q0 16 2 35q2 14 2 27.5v29.5v31q0 18 1 35.5 t2 43t3 46.5q2 16 2 39q2 20 2 43t2 47q0 23 2 61q2 41 2 66q2 25 4 53v49v68v63q0 25 -2 47q-2 23 -4 43q-2 25 -4 52q-4 20 -8 53q-6 27 -10 37q-6 14 -13 26q-4 8 -8 15q-8 10 -18 18q-10 10 -33 27q-25 18 -43 32q-12 10 -25 19q-8 6 -20 10q-18 6 -39 12q-18 4 -49 11 q-31 4 -51 4q-25 -2 -54 -4q-27 -2 -53 -7q-23 -4 -43 -11t-41 -15q-16 -8 -39 -23q-27 -18 -41 -32q-16 -14 -28 -29q-16 -18 -31 -37q-8 -12 -16 -27q-6 -16 -13 -45q-2 -12 -4 -18q2 -4 8 -10q8 -12 21 -21q10 -6 18 -8q12 -2 33 -2h14.5t30 -6t35.5 -16.5t23.5 -32 t3.5 -52.5q-4 -23 -25 -59q-12 -25 -23 -45q-6 -12 -12 -27l8 4q29 8 64 9h4q16 2 31 -2l14 -4q12 -2 25 -5q29 -6 55 -20q18 -10 35 -23q20 -16 39 -38q16 -18 30 -43q14 -27 21 -54q8 -25 10 -45t2 -43q0 -20 -2 -39q-2 -23 -10 -49q-8 -27 -23 -49q-16 -25 -43 -47 q-20 -16 -39 -27q-25 -16 -49 -22q-20 -6 -49 -11q-33 -2 -59 3q-20 2 -41 8q-23 4 -43 10q-31 10 -56 31q-20 16 -41 41q-18 23 -30 45q-12 23 -23 49q-10 29 -12 59q-2 12 0 25q-2 6 -2 12l-2 19q-2 23 0 49q2 20 2 43q2 23 4 45q2 29 12 59q8 29 19 55q8 25 20 48 q-27 8 -53 24q-37 25 -62 57q-29 37 -34 72zM365 66q0 -10 4 -21q4 -12 10 -22l18 -27q8 -10 15 -16q2 -2 6 -3q14 -4 31 -8q16 -4 30 -6q6 -2 19 0q14 2 20 4q6 0 12 4q10 8 25 19l8 8q2 6 6 14q2 10 4 17v22q0 12 -1 22.5t-5 24.5q-2 10 -8 21q-6 10 -12 18q-6 6 -12 13 q-10 6 -21 12l-4 2q-17 2 -31 6l-22 2h-8q-14 -6 -27 -10q-6 -2 -21 -8q-4 -4 -8 -9q-10 -14 -18 -32q-8 -14 -10 -25q-2 -10 0 -22z" />
<glyph unicode="&#xe25;" horiz-adv-x="1169" d="M106.5 710.5q-4.5 32.5 16.5 57.5l10 12q10 14 23 29q14 18 31.5 36.5t37.5 37.5q23 20 39 30t37 23q23 12 45 22q20 10 43 19q25 10 43 16q20 6 43 11q25 2 43 2h39t41 -2h29q25 -2 51 -9q20 -4 37.5 -10t41 -16.5t40.5 -18.5q20 -10 41 -24q14 -12 30 -25 q16 -14 31 -27q20 -14 43 -40q18 -20 35 -39q18 -23 33 -47q16 -27 26 -54q8 -25 15 -45q4 -16 8 -43q6 -27 8 -53q4 -29 4 -53v-31v-32.5v-30.5v-9.5v-14.5v-15q0 -27 -2 -43v-34v-38t-2 -51q0 -29 -1 -51.5t-3 -45.5q0 -23 -4 -45q-2 -20 -3 -38.5t-3 -49.5t-6 -55 q-4 -39 -25 -70q-4 -6 -24.5 -16t-46 -15t-50 6t-35.5 46q-4 18 -6 35q-2 16 -4 37q-2 18 -4 34t-2 37q-2 18 -4 39q-2 18 -4 41q-2 20 -6 39q-4 18 -7 35q-4 16 -6 31q-2 12 -6 22q-4 16 -12 39q-6 18 -10 28.5t-9 20.5q-6 12 -12 23q-4 8 -18 26q-10 14 -21 23 q-10 8 -18 12q-10 6 -23 10q-16 6 -32 13q-14 4 -27 8q-10 4 -27 6q-20 4 -37 4q-14 2 -27.5 1t-27.5 -1q-12 -2 -24 -6q-16 -4 -31 -8q-14 -4 -37 -15q-20 -8 -29 -14q-10 -8 -20 -17.5t-19 -21.5q-8 -8 -12 -16h4q27 2 49 0l15 -2q10 0 20 -4q10 0 21 -2l14 -7 q18 -4 39 -14q23 -10 43 -24q25 -16 45 -39q16 -18 28.5 -38t22.5 -42q14 -33 17 -68q0 -27 -4.5 -50.5t-10.5 -45.5q-8 -23 -20 -43q-14 -23 -31 -41q-14 -14 -25 -27q-20 -23 -45 -35q-25 -14 -53 -20q-31 -6 -57 -4q-14 0 -33 2q-29 0 -57 10q-23 8 -42.5 19.5 t-39.5 29.5q-25 18 -45.5 45t-30.5 50q-10 18 -18 45q-8 31 -9 57q-4 14 -4 27v14v25q0 16 2 36q0 20 4 43t9 41q6 20 14 49q10 27 18 48q8 18 21 39q12 18 26 36q16 20 35 39t39 33q23 16 57 31q31 12 52 18q18 6 39 12q23 6 45 9q20 2 41.5 3t44.5 -1q20 -2 47 -6 q29 -4 49 -11q18 -6 35 -12q16 -4 33 -10q20 -8 40 -19q23 -12 46 -30q25 -20 47 -49q20 -27 30 -46q0 -2 4 -8v8.5v6.5v26v27v37q0 16 -2 35q-4 23 -8 43t-6 34q-4 12 -8 29q-4 12 -12 25q-10 14 -21 28q-14 16 -33 37q-14 16 -24 25q-14 10 -31 24q-14 10 -27 21 q-10 8 -18 12q-10 6 -27.5 13.5t-30 11.5t-26.5 6q-10 4 -20 4q-18 0 -33 2h-35h-35h-18q-12 -2 -25 -6q-10 -2 -26 -10q-20 -8 -39 -17q-14 -6 -31 -16q-18 -10 -29 -17q-8 -6 -20 -18q-16 -12 -29 -25q-12 -14 -22 -26q-12 -16 -23 -31l-10 -12q-20 -27 -53 -30 t-57.5 16.5t-29 52zM297 88q0 -6 2 -16q4 -16 8 -25q4 -6 14.5 -19.5t20.5 -21.5t18 -12t19 -8l12 -4q18 0 35 -2q4 0 12 2t13 4q2 2 6 4q10 12 24 26q6 8 13 19q4 6 6 12q2 8 4 18.5t2 22.5q0 2 -2 8q-8 12 -13.5 22.5t-15.5 18.5q-4 6 -12 13q-10 8 -21 12q-12 4 -20 8 l-14 4q-3 0 -7 2h-4l-16 2h-19l-12 -6t-18 -12q-12 -12 -21 -27q-8 -16 -11 -27.5t-3 -17.5z" />
<glyph unicode="&#xe26;" horiz-adv-x="1415" d="M103.5 59q-1.5 27 2.5 54t15 53q12 29 33 55q20 29 49 49q20 14 41 29q31 18 69 27q35 4 62 2l14 -2q4 0 12 -2q18 0 35 -5q14 -4 29 -8v4q8 33 29 76q14 35 30 60q-4 2 -8 2q-33 12 -61 32q-39 27 -60 68q-14 31 -18 61q-6 33 2 80q8 43 20 70q12 25 29 47q14 20 33 39 q18 16 33 29q18 16 47 32q27 16 51 29q23 10 45 18q27 10 51 15q20 6 45 10t47 6q25 2 62 2t59 -2q25 -2 45 -8q18 -4 37 -10q14 -6 31 -13q18 -8 43 -18q31 -12 49 -25q18 -10 41 -30q27 -23 55 -58q23 -31 35 -51t20 -41q10 -20 17 -43q4 -18 8 -35q6 -20 12 -51 t8.5 -53.5t4.5 -46.5q0 -23 1 -47.5t3 -48.5q2 -25 2 -62v-61v-54v-55q-2 -31 -4 -72t-2 -67q0 -33 -2 -53v-54q-2 -25 -2 -49q-2 -27 -5 -59q-2 -33 -2 -53v-39q0 -18 -2 -39q0 -16 -2 -43q-2 -23 -2 -37q-2 -16 -2 -29v-30q0 -25 -2 -46q0 -20 -2 -36v-19 q-2 -31 -25.5 -53.5t-55.5 -20t-54.5 26t-20.5 55.5v17q2 18 2 37q2 18 3 39v38q0 14 1 28.5t3 41.5q2 23 2 39q2 16 2 31v41t2 59q2 35 4 59q0 23 1 47.5t3 49.5v53q0 29 2 72q2 41 4 69v56v49v59q0 33 -2 55q-2 25 -3 50.5t-1 48.5q-2 20 -3 35.5t-6 41t-9 39.5 q-4 18 -11 35q-2 12 -7 23.5t-11 21.5q-6 12 -25 37q-18 23 -30 33q-16 14 -25 18q-8 4 -27 13q-23 10 -39 16t-30 10q-10 4 -21 8q-10 2 -22 5h-41q-31 0 -49 -2t-37 -5.5t-35 -7.5q-16 -2 -31 -8q-18 -6 -35 -14q-16 -8 -34 -21q-18 -10 -29 -18q-10 -8 -23 -21 q-10 -10 -18 -20q-6 -10 -12 -21q-4 -10 -9 -32l-2 -27q2 -10 7 -21q2 -2 6 -4q12 -10 26 -14q18 -8 47 -14l5 -2q74 -18 86 -82q6 -43 -21 -84q-10 -18 -24 -41q-12 -18 -27 -49q-14 -31 -19 -49q-4 -16 -4 -35q0 -23 2 -43q0 -20 4 -39l7 -25q2 -12 0 -24q4 -18 4 -37 q2 -20 2 -43q-2 -23 -6 -45q-6 -29 -19 -54q-14 -25 -39 -49q-20 -18 -39 -30q-18 -12 -45 -23q-29 -12 -53 -16q-20 -4 -43 -4q-23 2 -49 8q-20 4 -41 10q-27 8 -47 18q-16 8 -39 23q-27 18 -49 41q-25 29 -37 57q-12 23 -16 43t-5.5 47zM258 64.5q0 -11.5 2 -15.5 q2 -6 6 -16q2 -6 10 -15q8 -10 19 -16q16 -10 27 -14q8 -4 18 -8q18 -4 35 -9q10 -2 16 -4q8 0 15 2q6 0 16 6q12 4 20 11q8 4 19 14q6 4 6 8q4 4 4 10q2 12 4 25v20q-2 12 -4 25q-2 14 -6 25l-8 16l-4 4q-10 10 -23 19q-10 6 -20 14h-4q-8 2 -13 2h-12q-15 0 -29 4h-12 q-8 -2 -12 -4q-16 -10 -33 -23q-10 -8 -16 -16q-8 -12 -13 -23q-4 -10 -6 -20t-2 -21.5z" />
<glyph unicode="&#xe27;" horiz-adv-x="1003" d="M109 682l4 16q4 20 10 41q8 25 20 45q10 18 23 39q16 20 33 39q18 16 45 37q27 18 49 33q25 16 51 26q23 10 39 15q18 8 51 12q31 4 64 4q31 0 51 -2q27 -2 49 -6q25 -6 49 -16q23 -8 51 -21q35 -16 61.5 -36.5t45.5 -41.5q14 -16 26 -35q16 -23 29 -53q8 -23 17 -45 q6 -20 10 -43q8 -25 12 -53q2 -23 4 -38t2 -36q2 -20 2 -37v-110q0 -18 -2 -35q0 -14 -4 -43q-2 -16 -2 -25q0 -20 -1 -44.5t-2 -48t-3 -42.5q-2 -18 -4 -37q-2 -18 -6 -39q2 -10 2 -22q2 -31 -2 -60q-6 -29 -19 -57q-8 -18 -18 -39q-16 -29 -39 -53q-27 -29 -59 -43 q-18 -6 -41 -12q-27 -10 -58 -12.5t-61 3.5q-31 4 -56 15q-20 8 -45 20q-33 16 -55 37q-23 23 -39 49q-14 23 -24 47q-12 31 -15 68q-2 33 2 61q2 35 19 72q14 33 24 49q10 18 33 43q25 29 49 43q23 10 66 20.5t74 8.5h22q18 -2 37 -12q18 -4 41 -13q12 -4 22 -10v14 q3 23 5 39q2 23 2 33q2 10 2 25v110q0 12 -2 29q0 14 -2 25q0 16 -5 36q-2 18 -6 35q-4 18 -10 37q-6 16 -12 35q-6 12 -10 18q-8 10 -17 23q-6 8 -21.5 18.5t-33.5 20.5q-25 10 -43 18q-12 4 -25 8q-12 2 -24 2q-18 2 -45 3q-23 0 -41 -3q-16 -4 -21 -4q-12 -4 -31 -12 q-14 -6 -30 -16t-37 -25q-18 -12 -27 -22q-8 -8 -14 -19l-16 -24q-4 -8 -9 -19q-4 -12 -6 -24l-4 -17q-6 -31 -33.5 -49t-58.5 -11t-48.5 34.5t-10.5 58.5zM510 53q0 -12 2 -18q6 -12 14 -25q4 -10 13 -16q6 -6 18 -12q18 -8 33 -15q10 -4 24 -6q12 -2 24.5 -1t23.5 3 q16 6 28 10l4 4q8 8 13 17q8 18 16 35q4 8 6 18t0 23q-6 16 -4 34q0 4 -2 9q-6 12 -12 22q-4 6 -13 15q-10 8 -18 14q-6 4 -14 6q-10 4 -17.5 5t-13.5 3h-14q-13 0 -25 4q-6 0 -14 -2q-16 -4 -25 -6q-4 -4 -8 -10q-12 -12 -17.5 -20.5t-13.5 -28.5q-6 -14 -8 -27 q-2 -18 0 -35z" />
<glyph unicode="&#xe28;" horiz-adv-x="1370" d="M102 453v49q0 31 2 49q2 16 7 39q4 18 8 33q4 20 16 53q14 33 29 55q12 23 24.5 39t28.5 39q20 25 49 49q27 23 51 39q27 20 50 31q12 6 36 20q29 14 68 23q29 6 45 10q20 4 43 6t54.5 2t52.5 -2q18 -2 34.5 -5t34 -8l45.5 -13q29 -8 47 -17q14 -6 37 -14q31 -12 49 -23 q12 -8 27 -16q18 -12 35 -25l6 -6q12 18 35 53q18 29 26 45q10 16 17 33q10 23 16 37t14.5 35.5t12.5 32.5q2 12 8 32l6 21q10 31 38 46t58.5 6t46 -37.5t7.5 -59.5l-6 -21q-6 -20 -11 -32q-4 -16 -13 -42t-19 -44q0 -4 -6.5 -16.5t-8.5 -20.5q-10 -20 -22 -43t-35 -58 q-20 -33 -33 -51q-14 -20 -27 -39v-2q12 -23 21 -35q10 -20 24 -59q12 -39 15 -57q4 -16 6 -29q2 -16 6 -37q2 -18 4 -47q2 -27 4 -45q2 -23 0 -51v-43v-35q0 -18 -1 -45t-3 -43v-35q-2 -20 -2 -35v-28q0 -12 -2 -33v-47q0 -29 -2 -45q0 -20 -4 -39q-2 -16 -2 -27 q0 -14 -2 -31l-2 -12q-4 -33 -29.5 -52.5t-57.5 -15t-52.5 30t-16.5 56.5l2 14q2 12 2 22q2 14 4 33q2 14 2 29q2 14 2 41v45q2 23 3 37v26t2 37q0 23 2 41q0 14 1 37t1 39v35v45q2 23 0 39t-4 43q-2 25 -4.5 40t-4.5 28.5t-4 27.5q-2 8 -12 37q-4 14 -8 26l-12 -12l-19 -18 q-23 -23 -55.5 -24t-55 21.5t-23.5 55.5t21 55l19 19q16 16 31 28q-10 8 -21 15q-14 8 -24 16q-8 4 -25 10q-25 8 -41 17q-12 4 -33 10q-25 8 -38 11t-25.5 6t-26.5 3q-10 2 -32.5 2.5t-37.5 0.5q-14 -2 -26 -7q-16 -2 -45 -8q-18 -6 -31 -10q-20 -12 -37 -18 q-12 -6 -28 -19q-20 -14 -41 -33q-18 -14 -29 -28q-12 -16 -21.5 -29.5t-19.5 -30.5q-8 -14 -18 -35q-6 -18 -9 -26q-4 -12 -7 -28.5t-3 -29.5q-2 -10 -2 -32v-41q0 -20 2 -37v-29v-24q2 -14 4 -39q4 -29 6 -45t4 -33q2 -20 5 -37q2 4 3 12.5t1 10.5q2 16 6 34q4 20 10 43 q6 20 12 39q6 14 13 33q8 20 16 43q10 25 25 45q2 8 6 14q12 25 28 46q18 23 50 45q31 20 55 32q29 12 61 17q35 6 62 0h4q12 0 24 -2l13 -4q25 -8 47 -21q16 -10 35 -24q23 -16 38 -35q16 -16 29 -33q14 -20 24.5 -44t16.5 -44q4 -23 4 -49q0 -25 -2 -45t-10 -45 q-10 -27 -29 -52q-14 -18 -37 -38q-25 -20 -47 -35q-23 -12 -45 -19q-20 -6 -43 -8q-18 0 -44.5 2t-47.5 8q-23 4 -45 15q-27 8 -47 22q-16 8 -31 21v-13q-2 -16 -4 -34q0 -18 -1 -33t-5 -41v-17q-2 -14 -2 -26q0 -14 -2 -33q-2 -18 -4 -37l-4 -28q-2 -16 -6 -33 q-4 -29 -27 -49.5t-45 -26.5q-29 -8 -60.5 1t-50.5 34q-16 23 -30 63q-12 31 -21 62q-6 25 -10 39q-8 18 -12 36q-4 16 -8.5 37t-8.5 47q-6 29 -8 48q-2 16 -4 34q-4 20 -6 39q-2 16 -4 43q-4 27 -5 43q-2 20 -2 37v31q-2 12 -2 31zM504 387q0 -4 2 -15.5t4 -17.5 q4 -8 10 -22l8 -8q6 -8 17 -13q10 -6 22 -10q12 -6 25 -8q12 -4 26 -4q14 -2 23 -2q2 0 6 2q6 2 15 6q8 4 18 14q12 10 20 19q2 4 2 6q2 8 5 14v21q0 12 -2 20q0 6 -4.5 14.5t-8.5 14.5q-6 8 -16 18q-8 8 -19 17l-24 16l-8 4q-8 0 -15 2l-12 2q-4 0 -10 -2q-12 -2 -21 -4 q-10 -6 -28 -18q-14 -10 -19 -15l-4 -8q-2 -10 -8 -20q-4 -14 -4 -23z" />
<glyph unicode="&#xe29;" horiz-adv-x="1544" d="M102 702q0 27 4 54q4 29 17 57q10 27 27 51q14 25 34 45q18 18 38 33.5t38 26.5q29 14 62 18q20 2 43 2q27 2 51 -2l18 -4q8 0 19 -4l12 -4l12 -6q18 -8 37 -19q16 -10 33 -22q25 -18 43 -45q16 -23 26 -41q10 -20 17 -45q6 -20 8 -43q2 -4 2 -6q10 -20 8 -41l-2 -27 q-2 -25 -2 -49q-2 -25 -3 -52.5t-3 -54.5t-4 -63q-2 -43 -2 -68q-2 -23 -2 -44v-40v-39v-37v-32v-37v-37q-2 -16 -2 -37v-35q2 -23 2 -35q0 -10 2 -18h6q23 -2 39 -4h33q18 -2 32 0q16 0 31 2h35h31q12 0 35 -2h34h33q10 0 31 2q25 2 43 2q18 2 37 2h24q4 10 8 21 q6 18 11 32q2 20 6 39q2 18 4 37t4 41q0 16 2 41q-35 -6 -72 -6q-57 0 -92 6l-30 4q-18 2 -35 14q-2 0 -4 3q-14 4 -37 12q-29 10 -60 33q-31 25 -49 49q-23 29 -30 71q-8 37 -5 72q2 33 17 59q10 25 35 52t55 45q33 18 67.5 25.5t75.5 0.5q35 -6 64 -20l20 -8q18 -8 31 -21 l14 -14q18 -18 33 -37q4 -4 6 -8v2v37v32q-2 25 -2 41v35v37v29q-2 16 -2 28.5t-2 26.5q-2 20 -2 41l2 12q2 33 25.5 54.5t55.5 20.5t53.5 -25.5t21.5 -55.5l-2 -14q0 -8 2 -19q0 -14 2 -28q0 -12 2 -33v-39v-35v-35v-34q2 -23 2 -37v-41v-35q0 -16 2 -35v-26q2 4 6 6l39 26 q27 18 58.5 12t50 -31.5t12.5 -57t-31 -50.5l-39 -28q-43 -29 -100 -58q0 -18 -2 -45q-2 -37 -2 -59q-2 -27 -4 -49.5t-7 -44.5q-4 -20 -6 -41q-6 -27 -16 -58t-25 -55q-23 -41 -61 -57q-27 -10 -57 -13h-37q-14 0 -29 -2q-16 0 -39 -2q-27 -2 -43 -2h-33q-16 0 -39.5 1 t-35.5 1h-25h-25q-10 -2 -32 -2q-20 -2 -47 0q-25 0 -41 2q-12 0 -33 2q-33 0 -60 11q-37 12 -63 43q-27 31 -29 73q-2 18 -4 39q0 18 -2 35v47q0 20 2 37v35v35v32v34v40v46.5t2 49.5q2 23 2 62v8q-18 -8 -43 -14q-29 -4 -57 -2q-25 0 -53 6q-27 6 -47 10q-31 8 -60 25 q-27 16 -51 41q-25 27 -39 53q-12 25 -20 53q-8 29 -9 57zM258 707q0 -10 4 -21q2 -12 8 -22q4 -6 13 -17q10 -10 20 -16q6 -4 14 -6q16 -4 41 -9q20 -4 33 -6q8 0 17 2q10 2 18 4q6 4 18 11q8 6 15 12q8 10 18 25q4 8 6 16q4 16 6 29q0 10 -2 20q-2 16 -4 29q-2 8 -6 14 q-4 8 -12 19q-6 8 -10 12q-12 8 -23 14q-8 6 -16 8l-13 6l-12 3q-10 2 -22 0q-14 0 -31 -3h-2q-10 -6 -20.5 -13t-18.5 -15q-8 -10 -16 -23q-10 -14 -15 -26q-4 -10 -6 -21q-2 -14 -2 -26zM854 455q0 -8 2 -23q2 -6 4 -10q4 -6 17.5 -16.5t19.5 -12.5q16 -6 29 -8 q8 -4 18 -6h4t8 4q2 2 7 6q8 10 12 17q6 16 12 30q2 6 4 13q0 4 -2 8v4q-10 12 -20 22l-2 2l-19 9q-10 4 -24 8q-12 2 -20.5 0t-16.5 -6q-10 -6 -19 -17q-10 -10 -12 -16q-2 -2 -2 -8z" />
<glyph unicode="&#xe2a;" horiz-adv-x="1282" d="M107.5 753.5q-5.5 32.5 15.5 57.5l12 16q14 18 31 37q16 18 33.5 31.5t40.5 30.5q23 16 45 26q23 10 45 17q14 6 35 12q25 8 43 14q20 6 43 13q29 6 53 8h35q14 -2 28 -2q18 -2 60 -10q37 -6 59 -13q25 -6 47 -12q20 -8 41 -18q27 -10 51 -27q23 -14 43 -33q41 43 72 82 q47 57 76 94l31 39q18 25 50.5 29t57.5 -15.5t29 -52.5t-15 -57l-30 -39q-31 -39 -78 -96q-43 -53 -98 -109q8 -14 16 -33q12 -25 18 -45q4 -16 13 -36q6 -25 14 -62t8 -65q2 -25 2 -56t-2 -45q0 -10 2 -28v-35q0 -18 -2 -35q0 -16 -1 -39t-3 -39q-2 -12 -2 -27v-36.5 t-1 -36t-1 -31.5q-2 -10 -2 -21v-43v-55q-2 -23 -4 -51q-2 -27 -8 -45q-2 -2 -2 -5v-5q-6 -33 -15 -56q-8 -18 -46 -25t-73.5 6t-35.5 46q-2 10 -4 25q-2 18 -3 32q-2 6 -2 11q-2 18 -4 32t-4 29q-2 18 -4 35q-2 14 -4 31q-2 16 -6 41l-8 36q-4 12 -8 29q-6 16 -13 41 q-8 23 -16 43t-14.5 32.5t-18.5 28.5t-20 29q-8 10 -23 25q-6 8 -12 10q-10 6 -21 12q-14 6 -37 17q-20 10 -34 16h-4q-14 2 -31 2q-10 2 -23 0q-14 0 -28 -4q-20 -2 -37 -4q-10 -2 -21 -4l-20 -8q-12 -6 -31 -15q-12 -6 -29 -14q-10 -6 -22 -17.5t-17 -15.5q-6 -8 -10 -16 q8 2 19 4q29 8 51 8h14q16 0 33 -8l10 -2q20 -6 41 -15q25 -10 45 -26q18 -14 34.5 -31.5t31.5 -36.5q16 -23 28 -55q10 -27 13 -51q4 -25 4 -47q-2 -25 -8 -54q-6 -33 -23 -61q-14 -25 -37 -47q-23 -25 -46 -40t-48 -26q-31 -12 -59 -14q-23 -2 -50 2q-27 2 -49 10 q-23 8 -49 21q-29 14 -50 31.5t-38 35.5q-14 20 -29 45q-16 29 -24 56q-6 25 -6 59v12q-2 4 -2 11l-2 24q-2 33 0 56q0 16 2 32q2 23 10 54q6 25 14 49q8 25 17 43q6 16 14 32q10 18 23 35q14 20 38.5 42t51.5 38q23 12 43 21q16 8 30 14q18 8 39 12q20 6 41 10q14 2 33 5 q23 4 43 6q25 2 45 0q18 0 35 -2q31 -4 55 -15q12 -6 36 -17t36 -17q16 -6 31 -15q23 -12 49 -39q18 -20 30 -37q12 -14 27 -34q12 -16 23 -33v24q-2 20 -2 37q2 12 2 43q0 27 -2 45q0 16 -7 43q-4 29 -10 45q-6 23 -12 37q-2 6 -4 15q-2 0 -2 -2q-29 -18 -47 -31l-19 -12 q-27 -18 -58.5 -11.5t-49 32.5t-11 57.5t32.5 50.5l19 12q18 12 45 31q-6 6 -13 10q-16 10 -30 16q-16 8 -31 12q-12 4 -29 9q-20 4 -55 12q-31 6 -39 6q-12 0 -25 2h-22q-8 0 -21 -4q-20 -4 -34 -10q-18 -4 -39 -12q-23 -8 -41 -13q-10 -4 -23 -10q-12 -4 -26 -14 q-16 -12 -27 -21q-10 -8 -20 -18q-10 -12 -21 -25l-12 -16q-18 -25 -51 -30t-57.5 14.5t-30 52zM272 90q0 -12 2 -20q0 -6 7 -17q8 -14 16 -22q6 -8 14 -14.5t23 -14.5q16 -8 28 -12q10 -2 19.5 -4t17.5 0q4 0 13 2q10 4 20 11t21 17q10 12 14 21q4 6 6 14q4 14 4 25 q0 10 -2 20t-6 23q-2 10 -6 14q-8 10 -19 21q-8 10 -18 16q-4 4 -10 6q-8 4 -15 6l-14 2q-4 2 -10 4l-12 -4q-18 -4 -39 -10q-12 -4 -21 -8q-10 -6 -18 -16q-4 -4 -6 -11q-4 -8 -7 -18q-2 -14 -2 -31z" />
<glyph unicode="&#xe2b;" horiz-adv-x="1353" d="M106 760q2 33 15 61q10 23 26 45q16 25 39 45q23 23 45 35q20 12 50 21q25 10 43 14q16 2 32 6q23 2 52 0q33 -2 57 -14l12 -6q16 -6 27 -21q16 -10 31 -20q16 -14 34 -33q18 -20 33 -43q10 -20 21 -43q12 -31 12 -62q2 -18 2 -34q0 -2 -2 -6q2 -2 2 -5v-30q0 -33 -2 -64 v-53q0 -23 2 -57v-78q2 -45 2 -72q0 -20 2 -53v-6q16 23 33 43q25 29 57 61q33 35 53 51q18 16 39 33q20 16 43 29q8 6 17 12l-45 35q-33 29 -60 63q-27 37 -37 60q-10 29 -8 63q0 31 8 54q6 27 29 59q20 29 43 51q20 18 41 31q14 8 31 18q23 10 47 17q23 6 49 8q37 6 68 -2 q20 -4 47 -15q35 -12 65 -36q33 -25 53 -56q16 -27 27.5 -60.5t11.5 -64.5q2 -27 0 -49q-2 -29 -14 -61q-12 -29 -29 -60q-23 -39 -51 -61q-4 -2 -6 -4q2 -6 6 -8q18 -31 33 -72q10 -33 12 -49q2 -12 6 -25q2 -14 7 -35q6 -20 8 -34q2 -18 4 -39q2 -18 2 -37v-35v-33 q0 -16 2 -37v-39q2 -20 0 -43q0 -23 -1 -39t-1 -30q-2 -10 -2 -25v-16q0 -31 -23.5 -53.5t-55.5 -22.5t-54.5 23.5t-22.5 54.5v16q0 18 2 35q0 14 2 29v33q2 18 1 32.5t-1 38.5q-2 23 -2 43v33v29q0 18 -2 35q0 10 -2 18q-2 12 -6 31q-4 18 -6 32q-4 14 -6 29q-2 10 -11 35 q-6 18 -12 29q-4 4 -8 10q-14 -8 -33 -21q-20 -14 -41 -26q-16 -10 -30 -23q-16 -12 -33 -26q-14 -10 -43 -41t-49 -54q-18 -23 -35 -45q-16 -25 -31.5 -51.5t-34.5 -64.5q-16 -37 -24 -58q-8 -25 -13 -43q-4 -18 -10 -43q-154 -109 -160 0q-2 20 -2 41q2 16 2 31.5v35 t-2 40.5v41v32q0 18 2 50v47v47q-2 23 -2 53q0 31 -1 73t-1 77v2q-2 0 -4 -2q-25 -6 -45 -9q-23 -2 -47 -2q-27 0 -58.5 6.5t-56.5 16.5q-25 8 -46 22.5t-44 32.5q-25 23 -39 49q-10 20 -19 45t-13 47q-6 27 -3 60zM260 729q2 -10 7 -22.5l9 -22.5q4 -4 11 -10 q10 -10 19 -16.5t22 -10.5q10 -4 28.5 -7t30.5 -3h27q8 2 20 4q6 2 15.5 8t15.5 15q6 8 10 14q2 6 2 14q2 12 4 21q0 12 -2 28v7q-6 12 -12 22q-4 8 -12 18q-10 10 -19 17l-12 8l-14 6q-11 7 -19 15h-10q-12 -2 -23 -5q-10 -4 -28 -10q-14 -4 -21 -8q-6 -4 -18 -14 q-10 -8 -15 -19q-8 -10 -12 -20q-2 -6 -4 -15v-14zM889 729q4 -8 14 -20q16 -23 35 -39q25 -18 37 -29q16 -10 27.5 -17.5t23.5 -13.5l2 -2q20 12 33 23q6 4 14 18q12 20 19 37q4 12 4 19q2 12 0 28q0 10 -4 24.5t-11 24.5q-6 6 -16 17q-12 8 -25 12q-18 8 -30 10 q-4 2 -13 0q-16 -2 -28 -4q-8 -2 -15 -6l-20 -12q-8 -4 -18 -13q-8 -8 -19 -24q-6 -10 -10 -14v-15v-4z" />
<glyph unicode="&#xe2c;" horiz-adv-x="1732" d="M102 715q0 25 2 47q4 23 15.5 49.5t27.5 50.5q16 25 39 45q23 25 41 37q31 20 76 27q31 6 59 6q29 0 56 -6l18 -4q14 -2 31 -11l2 -2q25 -6 47 -20q16 -10 37 -27q20 -16 39 -39q16 -18 29 -37q16 -27 22 -55q6 -23 10 -49v-18q6 -14 4 -31l-8 -96q-4 -43 -6 -72t-2 -55 q-2 -23 -2 -60v-59v-55v-37q0 -18 2 -39q0 -25 2 -39v-37q0 -12 2 -33q0 -23 3 -38t5 -29q2 -10 9.5 -25.5t17.5 -28.5q6 -8 8 -12h2q16 2 23 4q6 4 14 10q10 10 23 29q16 23 26 43t19 35q8 20 14 37q6 14 14 37t13 35q2 12 6 26t8 39q6 23 10 41q6 23 40 39t72 10t48 -39 q10 -27 12 -51q2 -16 2 -35q0 -10 4 -30q2 -20 4 -33q2 -12 9 -29q2 -16 10 -35q8 -20 14 -33q6 -14 15 -30q8 -14 14 -23q8 -10 18 -20q8 -8 23 -21q14 -8 29 -16q10 -4 16 -6h4q6 4 16 10q16 10 27 20q8 10 12 16.5t6 12.5q2 14 7 43q6 31 10 57q2 20 6 56q4 35 4 55 q2 20 4 47q2 23 4 55q0 31 2 52v57q2 27 2 43v39v43v43q0 29 2 37q0 25 2 43v8q-14 -2 -28 -2h-39q-20 2 -51 6q-37 4 -64 12q-33 12 -65 43q-27 25 -43 45q-14 18 -25 35q-12 23 -22.5 53.5t-10.5 54t8 54.5q6 29 25 62q18 33 39 55q20 20 41 33q18 12 47 22q33 12 55 14 q18 2 35 3q18 0 47 -5q33 -6 62 -20t57 -37q35 -29 51 -55q10 -20 19 -47q6 -23 12 -47q2 -11 4 -21l4 8q14 23 21 35l8 14q14 29 45 38.5t59.5 -6t37.5 -46.5t-5 -59l-8 -15q-8 -14 -23 -41q-20 -33 -43 -55q-20 -23 -39 -35q-14 -12 -34 -22q-8 -6 -19 -13v-20 q-2 -20 -2 -31q0 -16 -2 -35v-28q-2 -20 -2 -36.5v-41.5v-45v-37q0 -18 -2 -45v-57q-2 -25 -2 -58q-2 -35 -4 -59q-2 -25 -4 -45q-2 -23 -4 -62q-4 -37 -9 -63q-4 -23 -8 -55q-6 -39 -12 -60q-6 -27 -19.5 -50t-37.5 -48q-23 -23 -54 -43q-33 -20 -55 -29q-29 -8 -61 -4 q-33 2 -70 19q-29 14 -55 32q-25 18 -43 39q-14 14 -29 31q-12 18 -27 43q-12 20 -20 39q-2 4 -4 10q-6 -14 -15 -29q-14 -29 -36 -59q-25 -37 -52 -59q-27 -23 -51 -33q-25 -10 -55 -16q-45 -8 -80 4q-23 8 -45 26q-25 16 -45 47q-16 23 -29.5 51.5t-19.5 51.5q-4 23 -8 47 q-2 23 -5 49q-2 27 -2 43v29q-2 18 -2 41q-2 25 -2 45v37v51v67q0 29 2 58v8q-25 -10 -51 -14q-33 -4 -59 -2q-25 2 -47 8q-18 6 -37 12q-16 6 -33 14q-37 12 -65 43l-33 33q-18 20 -31 45q-14 27 -20 60q-4 27 -7 51zM258 721q0 -12 4 -29q2 -10 4 -14q2 -6 8 -14l29 -29 q6 -4 8 -6q20 -8 39 -15q10 -6 21 -8q6 -2 16 -2q8 -2 25 0q8 2 16 6q16 10 31 19q8 6 18 16q6 6 8 12q6 12 11 21q0 6 1 14t1 21q-2 14 -4 24q-2 4 -7 11q-6 12 -16 22q-6 10 -14 16q-12 10 -21 15q-6 4 -10 4l-12 4q-11 2 -19 8h-6q-12 4 -27 4q-16 0 -38 -4q-4 0 -9 -2 q-8 -4 -18 -16q-14 -14 -23 -25q-6 -10 -10 -20q-4 -12 -6 -19v-14zM1106 936q2 -6 4 -14q4 -12 6 -17q6 -10 14 -22l25 -25q8 -8 14 -10q10 -4 29 -6q25 -2 39 -4h33q8 0 24 6h6v14v39q-2 16 -4 31q-4 18 -10 35q-2 10 -6 18q-4 4 -10 8q-16 14 -29 21q-10 4 -20 6 q-14 2 -21 2h-18q-4 -2 -15 -6q-14 -6 -22 -11q-4 -2 -12 -10q-6 -6 -13 -18q-8 -16 -12 -27q-2 -6 -2 -10z" />
<glyph unicode="&#xe2d;" horiz-adv-x="1138" d="M102 207v35v32q0 18 2 39l2 17v6q0 8 3 16q0 14 4 29q2 16 6 33q6 25 26 57q20 39 54 64q27 18 49 28q20 12 49 19q27 6 59 6q33 0 54 -4l14 -4q13 -3 25 -11l6 -2q16 -8 34 -16q23 -14 46 -37t34 -45q10 -18 18.5 -40.5t12.5 -45.5q6 -23 4 -51q0 -23 -4 -53 q-6 -35 -25 -66q-18 -35 -43 -55q-16 -14 -32 -27q-27 -18 -56 -27q-23 -6 -53 -6q-27 0 -51.5 3t-50.5 10q-12 2 -25 8q0 -12 2 -25q2 -10 8 -24q4 -8 11 -15l10 -10q10 -6 27 -14q18 -10 36 -19q12 -6 29 -10q18 -6 37 -10q16 -4 39 -8t41 -7q23 -2 43 -2q16 -2 43 0 q31 2 39 2q16 2 39 5q20 0 34 2t35 6q20 2 37 6q8 2 19 8q6 2 16 12q12 12 20 23q4 8 13 24q8 18 14 43q6 31 10 44l4 24t4 35q4 27 7 45q0 16 2 27v26q-2 16 -2 35v29q0 14 -2 26q-2 14 -2 31q-2 12 -5 33q-2 25 -4 43v20q-2 14 -4 30.5t-6 37.5q-4 20 -6 37q-2 8 -6 22 q-6 16 -12 29q-8 16 -15 29q-2 6 -10 16q-10 10 -25 23q-16 14 -30.5 22t-24.5 12q-10 6 -22 13q-16 4 -31 12q-12 4 -29 10q-12 4 -26 6q-16 4 -31 4q-16 2 -26.5 2t-24.5 -2q-16 -2 -31 -4q-12 -2 -29 -6q-12 -4 -30 -8q-10 -2 -25 -8q-14 -4 -25 -10q-16 -10 -34 -23 q-14 -8 -27 -20q-12 -8 -21 -19q-10 -12 -22 -31l-14 -20q-18 -27 -50 -33t-59 12.5t-32 50t12 58.5l16 20q16 25 31 43q16 20 39 39q20 16 43 31q20 14 41 25q23 14 47 22q25 10 43 15q12 2 30 8q20 4 39 8q18 2 39 4q23 4 41.5 4t40.5 -2q23 -2 47 -6q25 -4 49 -12 q20 -8 37 -15q14 -6 29 -12q14 -6 31 -12q18 -8 40.5 -22.5t47.5 -35.5q27 -23 47 -45q18 -25 28 -47q8 -12 17 -28q8 -20 16 -46q10 -25 15 -47q2 -16 6 -37q4 -23 6 -43q2 -18 4 -34t2 -33q2 -10 4 -29q2 -23 4 -39q0 -16 2 -30q0 -14 2 -29v-39q0 -16 2 -31v-32 q-2 -18 -4 -41q-2 -18 -4 -45t-6 -46q-2 -16 -6 -32q-4 -14 -12 -47q-8 -35 -21 -66q-14 -31 -29 -51q-14 -20 -36 -43q-27 -29 -58 -43q-27 -14 -53 -21q-20 -4 -45 -8t-43 -6q-20 -2 -45 -4q-18 0 -29 -2q-14 -2 -49 -4q-37 -2 -61 0q-20 2 -43 4q-29 2 -58 6 q-29 6 -51 10q-20 6 -43 13q-25 8 -49 18q-18 8 -39 18q-25 12 -41 23q-23 14 -43 39q-25 25 -39 57q-12 31 -16 58q-4 20 -6 40q-2 18 -3 35q-2 6 -2 17.5v13.5q-2 18 -2 35zM262 336q0 -8 2 -25v-6q10 -12 21 -22q4 -4 16 -11q14 -8 27 -10q16 -4 30.5 -6t30.5 -2 q10 0 17 2l2 2q12 8 24 18q4 2 8 13q6 8 6 16q2 14 3 29q2 10 0 18q-2 10 -6.5 21.5t-10.5 21.5q-2 4 -8 11q-6 6 -10 8q-10 6 -21 10l-16 8h-21q-14 0 -24 -2t-17 -6q-10 -4 -22 -14q-8 -6 -14.5 -17.5t-10.5 -17.5q-2 -8 -2 -17q-2 -12 -4 -22z" />
<glyph unicode="&#xe2e;" horiz-adv-x="1247" d="M102 176v43v45q0 25 2 53l2 25q0 10 5 20v15q2 27 6 51q8 35 33 70q23 29 47 49q27 20 53 33q29 14 59 20q37 6 72 0l22 -4q2 -2 5 -2h6q20 -4 41 -12q25 -6 47 -23q25 -16 43 -39q16 -20 28 -39q12 -23 19 -41q10 -25 12 -53q4 -29 0 -57.5t-16 -55.5q-10 -25 -25 -47 q-16 -25 -43 -47q-27 -23 -55 -33q-20 -8 -39.5 -12t-44.5 -4q-27 0 -51 4q-12 4 -34 8t-36 11q2 -14 6 -33q2 -12 10 -27q8 -16 18.5 -28.5t16.5 -18.5q8 -6 23 -14q16 -10 39 -23q18 -8 39 -16q18 -8 34 -12q20 -4 31 -5q12 -2 37 -4q20 -2 33 -2q18 0 41 -2q20 -2 43 -4 h33q12 0 26 2q16 4 31 6q14 4 33 13q12 4 22 12q14 10 29 25q12 12 24.5 30.5t18.5 36.5q10 23 18 45q6 18 8 33q4 23 7 37l4 20v27q2 10 2 20q-2 18 -1 45t1 40.5t-2 25.5v33q-2 16 -2 30t-2 29q0 12 -2 31q-2 18 -2 33q0 14 -3 34q0 20 -2 35q0 12 -2 25q0 12 -4 43v2h-4 q-18 -8 -45 -21q-31 -14 -51 -20q-20 -8 -45 -12q-20 -6 -43 -11q-20 -4 -51 -8q-33 -6 -56 -6q-27 -2 -51 2q-16 2 -33 4q-20 2 -49 6q-31 4 -49 9q-23 6 -41 14q-16 8 -41 20q-29 16 -57 45q-29 27 -41 48q-14 23 -23 53q-10 31 -8 59q0 23 6 45q6 20 13 39q12 29 41 57 q25 25 51 41q23 12 43 21q23 12 47 18q18 4 53 15q45 10 76 10q23 2 43 0q20 0 41 -2q25 -2 49 -6q23 -6 55 -15q37 -10 58 -16q20 -8 49 -25q29 -14 47 -26q20 -12 43 -31q20 -18 41 -41q6 -8 14 -18q8 8 19 18q23 23 30 33l11 12q18 25 51 29t57.5 -16.5t28.5 -53.5 t-17 -57l-10 -12q-12 -14 -41 -43q-27 -29 -41 -41t-26 -23q2 -14 4 -29q4 -23 8 -51q2 -25 4 -41q2 -20 2 -37q2 -12 3 -32.5t1 -36.5q0 -10 2 -27q2 -20 2 -37q2 -14 2 -28v-29q2 -12 2 -31q2 -18 2 -37q0 -16 -2 -41v-36q2 -18 0 -37q0 -14 -2 -29q0 -18 -4 -35 q-2 -12 -6 -37q-4 -27 -16 -57q-8 -27 -19 -51q-12 -33 -32.5 -64.5t-45.5 -54.5q-23 -25 -47 -41q-27 -20 -57 -33q-27 -10 -51 -16q-23 -6 -45 -10q-25 -4 -45 -4t-47 2q-25 0 -45 2t-35 2q-20 0 -45 4q-23 2 -35 2q-16 2 -45 8q-31 4 -64 18q-31 12 -57 27q-23 12 -43 25 q-23 12 -39 26q-20 16 -40.5 42t-37.5 55q-16 33 -22 63q-6 25 -9 45q-4 23 -4 45zM266 346q2 -6 2 -8q2 -2 6 -8q8 -8 19 -17q12 -8 20 -12q4 -2 17 -6q20 -4 37 -8h10q10 0 17 2t18 4q4 2 8 8q10 6 14 12q6 10 10 21q4 10 5.5 18t1.5 19q-2 8 -2 12q-4 8 -11 18 q-6 10 -14 21q-4 6 -8 8q-4 4 -13 6q-8 2 -14 4l-12 2q-6 0 -10 2l-15 2q-6 2 -14 0q-10 -2 -21 -6q-10 -6 -22 -14q-10 -8 -21 -23q-4 -6 -4 -8q-4 -14 -4 -27.5v-21.5zM334 852q0 -2 2 -8q2 -8 4 -13q4 -6 18 -20q14 -12 25 -18q18 -10 29 -17q6 -2 14 -4q12 -2 33 -6 q27 -2 43 -4q23 -2 43 -6q8 -2 18 0q14 0 39 4q29 4 47 8t37 8q16 2 29 8q14 4 41 17q27 10 43 18l24 12q-2 6 -6 9q-12 14 -24 26q-14 12 -27 21q-14 8 -35 18q-20 10 -33 17q-14 4 -41 12q-31 8 -49 12q-16 2 -28 4h-33q-16 2 -37 0q-12 0 -39 -6q-35 -8 -51 -12 q-12 -4 -23 -8q-14 -6 -28 -17q-10 -4 -21 -14q-4 -6 -6 -10q-4 -8 -6 -17q-2 -8 -2 -14z" />
<glyph unicode="&#xe2f;" horiz-adv-x="1173" d="M102 707q0 25 2 57q4 39 15 65q10 25 26 50q20 29 45 49q29 25 60 37q29 14 51 18q14 2 33 4q16 2 30.5 3t30.5 -1q27 2 47 -10l15 -8q18 -12 37 -27q18 -16 34 -37q12 -14 23 -28q16 -20 28.5 -45t16.5 -50q4 -23 2 -53q0 -23 -4 -45q0 -8 -2 -14l16 4q16 6 31 14 q14 6 29 15q18 8 34 18q14 8 29 18q12 8 29 23q16 14 37 35q18 20 30 37q14 18 25 30q10 16 18 31q27 37 81.5 31t70.5 -43q14 -27 18 -56q2 -14 4.5 -40.5t4.5 -45.5q2 -23 4 -45v-43v-43v-41q2 -23 2 -43q2 -23 2 -55q2 -35 2 -55v-39v-41t2 -37v-33v-35q2 -16 1 -32.5 t-1 -27.5t2 -28q0 -16 2 -39q2 -25 2 -43t2 -32v-33q0 -14 1 -31.5t1 -32.5v-40q0 -33 -22.5 -55.5t-54 -22.5t-55.5 22.5t-24 55.5v40v27q0 18 -2 31v31q-2 16 -2 36q0 16 -2 37q-2 23 -2 43q-2 20 -2 35v29q2 12 0 28v31v35q-2 18 -2 37v41.5v42.5q0 18 -2 51v51 q-2 23 -4 43v49v43v25q-16 -18 -35 -33q-23 -20 -42 -33.5t-40 -25.5q-18 -10 -37 -21q-20 -12 -41 -20q-20 -8 -38.5 -15.5t-42.5 -15.5q-23 -8 -48 -14q-23 -6 -45 -10q-25 -6 -57 -9q-29 -2 -47 -2h-18h-17h-20q-27 0 -54 2q-29 4 -55.5 14.5t-50.5 26.5q-29 18 -47 43 q-16 20 -27.5 41t-19.5 43q-8 27 -13 56zM258 719q2 -8 4 -14q2 -10 8 -20.5t13 -20.5q4 -4 12 -9q8 -8 19.5 -11t21.5 -5q14 -2 29 -2q14 0 24 2q6 0 12 4q6 2 11 6q8 6 18 21l4 6q4 16 6 31.5t2 31.5q2 10 0 17q0 4 -4 12t-8 14q-10 14 -22 27q-6 8 -15 14q-6 7 -12 11h-2 q-2 2 -4 2q-12 -2 -25 -5q-10 0 -20 -2q-6 -2 -17 -6q-12 -4 -22 -13t-15 -17q-8 -12 -12 -23q-4 -6 -4 -20q-2 -18 -2 -31z" />
<glyph unicode="&#xe30;" horiz-adv-x="1001" d="M102 735q0 23 7 51q6 35 26 68q16 29 35 51q20 25 45 41q31 23 68 31q29 4 53 4q23 0 43 -2l14 -2q13 -2 25 -8q14 -4 22 -8q25 -8 48.5 -25.5t39.5 -42.5q14 -18 25 -39q10 -20 16 -45q8 -25 9 -53v-39q-2 -23 -13 -45q39 20 78 51t68 63l32 35q20 25 53 26t57 -19.5 t26 -53.5t-21 -57l-31 -35q-37 -41 -88 -81t-104 -69q-55 -31 -111 -40q-51 -10 -96 -9q-41 2 -90 9q-53 8 -84 20q-29 12 -51 27q-25 18 -43 43l-8 8q-20 23 -33 49q-10 25 -13 49q-4 23 -4 47zM111 162q2 23 10 47q8 23 18 43q12 25 33 49q20 23 41 41q25 23 53 35 q37 18 74 18h18h13q18 -2 37 -6q16 -4 30 -10q25 -8 47 -25q14 -10 29 -22q27 -18 41 -43q16 -20 25 -45q8 -23 10 -45q2 -16 4 -39q2 -29 0 -54q-2 -20 -6 -40q-2 -6 -4 -15q33 16 65 39q49 37 82 70l35 37q23 23 55.5 22.5t55 -23t22.5 -55t-22 -55.5l-35 -37 q-41 -41 -101 -84q-63 -47 -131 -69q-70 -25 -159 -21q-86 4 -127 21q-35 12 -60 26q-16 8 -31 19q-4 2 -6 4q-25 14 -49 41q-23 25 -35 47q-12 20 -18 41q-8 18 -12 41q-4 25 -2 47zM258 731q0 -10 2 -18q0 -6 2 -13q6 -4 12 -12q10 -4 21.5 -8t26.5 -8q14 -4 22 -4h6 q10 2 21 4l16 8q4 2 12 10l9 12q8 12 12 25q2 2 2 4v21q0 8 -2 16q-2 10 -6 16q-4 8 -11 17q-4 6 -9 9t-7 5q-8 2 -18 4l-13 4q-4 0 -8 2h-12q-10 0 -23 -2q-4 0 -6 -2q-10 -8 -20 -18q-8 -10 -19 -27q-6 -10 -6 -18q-4 -14 -4 -27zM266 141q2 -8 4 -14q2 -8 9 -16l10 -15 l2 -2l20 -16l2 -2q4 -2 6 -2q8 -4 23 -6q18 -2 31 -5q8 0 18 3h4q8 4 20.5 15t20.5 19q2 10 2 23q2 10 0 24q-2 18 -2 33q-2 6 -4 13l-4 8l-6 6q-16 12 -29 20l-8 6q-8 2 -18 7h-2l-15 -2q-6 0 -14 2q-10 -6 -21 -17q-14 -10 -24 -22q-8 -10 -12 -19q-6 -10 -9 -20 q-4 -10 -4 -15v-6z" />
<glyph unicode="&#xe31;" horiz-adv-x="419" d="M-504 1325q-2 23 0 45q2 20 8 43q6 25 15 47q10 23 26 45q14 20 37 41q27 29 53 41q16 8 37 15q23 8 47 14q37 8 74 0l19 -4q2 0 8 -2q10 -2 16 -4l14 -4q16 -6 33 -17q18 -8 39 -20q31 -20 47 -49q8 -16 17 -33q8 -18 14 -39q6 -20 8 -39q2 -16 4 -37q0 -16 -2 -39 q-4 -29 -14 -55v-2q31 16 65 41q49 35 89 71l43 41q23 23 55.5 22t54 -24.5t20.5 -56.5t-24 -53l-43 -41q-47 -43 -102 -86q-61 -43 -121 -70q-61 -25 -119 -33q-51 -6 -88 -6q-51 -2 -102 21l-27 12h-2q-29 6 -53 20q-14 8 -27 15q-27 14 -51 43q-16 18 -29 35 q-20 27 -29 55q-8 23 -10 47zM-348 1337q0 -8 2 -14q2 -2 4 -6q10 -12 23 -27l8 -8l28 -16q4 0 9 -2q10 -2 22 -2q14 -2 27 -2q4 0 8 2l16 4q6 4 14.5 10t16.5 14q8 10 12 17q4 8 8 22q4 8 5 14q2 10 1 20.5t-1 18.5q-2 8 -5 19q-2 10 -6 16q-4 8 -10 19q-10 6 -18 10 q-10 6 -21 8l-10 4l-4 2l-21 4q-2 0 -8 -2q-16 -2 -28 -6q-10 -4 -21 -10q-4 -2 -10 -8q-14 -14 -21 -25q-8 -8 -10 -16q-4 -8 -6 -19q-2 -12 -4 -22v-19z" />
<glyph unicode="&#xe32;" horiz-adv-x="884" d="M61.5 749.5q-10.5 30.5 4.5 59.5l6 14q12 23 32 45q18 23 46 43q29 20 53 31q14 6 41 19q31 12 55 18q25 4 57 6q29 2 45 2q23 0 56 -8q18 -4 28 -6q18 -2 44 -10.5t55 -22.5q27 -14 51 -31q20 -16 39 -35q18 -18 37 -40q18 -25 30 -50t21 -53q6 -23 12 -51q8 -29 10 -47 q4 -23 4 -41q2 -16 0 -33q0 -12 3 -24v-29v-41q2 -27 0 -45v-27v-26v-29q0 -16 -3 -31q0 -14 -2 -35q-2 -14 -2 -34q0 -25 -2 -50q-2 -20 -3 -37.5t-1 -34v-32.5v-27q2 -18 0 -34v-23q0 -14 -1 -29.5t-1 -31.5q0 -18 -2 -33l-2 -17q-2 -31 -27.5 -51t-57.5 -17t-52.5 27.5 t-18.5 57.5l2 14q2 12 3 27q0 14 1 27.5t1 25.5v31q2 10 0 20v33v36.5t1 38t3 40.5q2 20 2 43q0 27 2 47q2 16 2 28q2 10 2 21v29v28v33q2 12 0 35v37v28q-2 16 -2 33q2 12 0 25q0 8 -2 22t-8 37q-4 23 -11 43q-4 14 -10 27q-6 10 -16 24q-10 12 -21 23q-12 12 -26 22 q-12 10 -27 17q-14 8 -29 12q-14 4 -22 6q-14 2 -41 8q-12 4 -19 4q-12 0 -34 -2q-23 -2 -37 -4q-10 -2 -27 -8q-23 -10 -39 -18q-6 -2 -20 -13q-14 -10 -23 -20q-8 -8 -10 -12l-6 -15q-14 -29 -45 -39t-59.5 4.5t-39 45z" />
<glyph unicode="&#xe33;" horiz-adv-x="909" d="M-504 1126v31q2 25 10 51q8 27 23 49q8 14 16 29q16 25 42 47.5t55 34.5q18 8 39 16q27 10 53 13q14 2 28 2l15 2q10 0 22 -2t21 -4l14 -4q23 -6 43 -17q12 -8 25 -12q27 -12 49 -35q20 -20 35 -43q12 -18 22 -41q10 -25 15 -47q4 -16 6 -39q2 -29 -2 -53q-2 -23 -9 -43 q-6 -20 -16 -41q-12 -27 -33 -49q-16 -23 -37 -37q-20 -18 -51 -29q-23 -8 -41 -12q-25 -6 -45 -6q-16 -2 -37 0q-25 2 -45 6q-18 6 -43 16q-20 8 -37 17q-20 10 -41 28q-18 14 -34 33q-20 20 -33 43q-8 16 -17 39q-12 29 -12 57zM-348 1126q6 -12 12 -22q2 -4 6 -10l21 -21 q10 -6 16 -10l25 -10q12 -6 20 -9q6 -2 17 -2q12 -2 20 0q6 0 14 2q12 2 25 7q4 2 8 6q8 6 17 14q6 8 8 14q6 10 8 21q4 8 4 18q2 8 0 19q0 14 -2 22q-2 6 -6 15q-4 12 -10 20q-4 8 -13 14l-6 7q-16 8 -31 14q-6 4 -14 6l-10 4l-8 -2q-12 0 -29 -2q-4 0 -8 -2 q-16 -6 -31 -12q-6 -2 -15 -10.5t-12 -12.5l-16 -28q-4 -6 -8 -15q-2 -6 -2 -10v-23v-2zM70.5 750.5q-7.5 31.5 9.5 58.5l12 18q16 27 41 50t55 36q23 12 41 21q18 8 43 18q31 12 62 19q27 4 51 6h39q18 0 49 -4q29 -4 45.5 -7t32.5 -8q18 -6 43 -16t47 -22q29 -14 53 -37 q20 -20 35 -41q10 -16 20.5 -36t18.5 -38q12 -23 20 -57q6 -29 11 -56q4 -25 4 -41q2 -14 2 -28t2 -31v-31v-25.5v-33.5q2 -25 2 -39v-39v-49v-45q0 -25 -4 -49q-2 -20 -2 -41q-2 -18 -2 -35v-43v-31q0 -16 -2 -37q-2 -18 -2 -37q-2 -16 -2 -32q-2 -12 -2 -21q2 -16 0 -37 q-2 -12 -2 -24v-12q-2 -33 -26 -54.5t-55.5 -20.5t-54 24.5t-20.5 56.5v14q0 14 2 31v18q0 16 2 37q0 14 2 33q2 16 2 33q2 16 2 28v35v41q0 18 2 41q2 25 4 47q2 18 2 35v47.5v48.5v37q0 10 -2 31v39v30q0 12 -1 24.5t-1 24.5q0 14 -2 29q0 12 -2 31q-4 18 -8 39 q-4 18 -10 28q-6 14 -15 29q-8 14 -14 25q-4 6 -12 14q-6 8 -17 12l-34 17q-16 6 -27 8q-10 4 -22.5 6t-34.5 6q-18 2 -27 2h-29q-16 -2 -35 -4q-14 -4 -30 -8q-20 -8 -35 -16q-16 -6 -35 -17q-12 -6 -22 -16q-8 -6 -15 -17l-10 -16q-16 -27 -48 -35t-59.5 9.5t-35 49z" />
<glyph unicode="&#xe34;" horiz-adv-x="67" d="M-793 1262q-4 27 0 53q4 18 11 41q6 23 14 41q8 23 22.5 44t30.5 40q14 14 31 28q18 16 38.5 30.5t41.5 25.5q27 14 51 20q20 4 45 6q25 4 43 4q23 0 51 -6q25 -6 45 -12q20 -8 43 -16q18 -8 33 -15q23 -10 45 -28q20 -16 43 -35q20 -20 35 -37q16 -18 33 -41 q18 -27 26 -45q4 -10 11 -21l12 -16q16 -20 27 -41q6 -14 16 -39l10 -22q12 -27 2 -56t-35 -43q-12 -10 -24 -14l-12 -4q-23 -8 -48 -10q-12 0 -22 -2q-14 0 -27 -2q-16 -2 -37 -3q-14 -2 -26 -2q-16 -2 -35 -2q-18 0 -35 2h-28h-62q-16 0 -35 2q-14 0 -29.5 1.5t-29.5 1.5 h-33h-37q-20 2 -41 8l-24 4q-27 6 -54 20q-35 20 -55 54q-14 25 -22 47q-6 20 -9 39zM-639 1286q0 -8 2 -16q2 -4 6 -13q6 -2 8 -2q16 -4 31 -8q6 0 14 -2h27h33q18 0 34.5 -1t34.5 -1q14 -2 25 -2h62h36q12 -2 25.5 -2t24.5 2q16 0 32 2h21q-6 10 -10 19q-10 16 -19 32 q-2 6 -12 19q-10 16 -21 28q-12 12 -28 27q-14 14 -29 27q-10 6 -14 8q-14 6 -31 14q-14 6 -29 10q-14 4 -30 9q-14 4 -21 4q-8 0 -22 -2t-27 -4q-8 -2 -16 -7q-12 -8 -25.5 -16t-22.5 -16q-12 -10 -22 -23q-6 -6 -12.5 -14t-8.5 -19q-6 -14 -10 -28t-6 -23v-2z" />
<glyph unicode="&#xe35;" horiz-adv-x="57" d="M-834 1198q-8 37 0 72q4 25 17 53q12 31 31 55q16 20 34 41q16 16 33 31q20 20 45 35q23 14 47 24q25 8 54 13q16 2 28 4q16 2 41 4q31 2 60 -4q25 -4 43 -10q25 -6 49 -19.5t49 -32.5q14 -12 27 -22q12 -8 28 -19q25 -16 47 -41l2 -2t4 -2v17v32q2 23 2 33v27v14 q0 31 24 53.5t55.5 22.5t54 -23.5t22.5 -54.5v-14v-29q0 -14 -2 -31v-34v-41v-37q0 -14 -2 -31q0 -23 -4 -47q-4 -27 -12 -53q-10 -31 -27 -54q-23 -31 -55 -45q-16 -10 -39 -16q-18 -6 -31 -10q-20 -6 -43 -8q-20 -2 -41 -2h-37h-35h-43q-20 2 -43 0h-47h-39q-18 0 -45 2 t-49 4q-27 2 -47 8q-23 4 -43 12q-23 8 -43 21q-27 18 -45 45t-25 59zM-682 1231q0 -2 2 -4q8 -6 14 -8q10 -4 22.5 -6.5t29.5 -4.5q20 -2 43 -4t34 -2h35h49q27 2 47 0h44h36h31h27q8 2 14 4q4 0 6 2l-2 6q-8 10 -20 21q-20 18 -41 39q-12 12 -23 20q-18 12 -35 23 q-16 12 -34 29q-10 8 -20.5 13t-18.5 7q-14 4 -31 8h-21q-18 0 -28 -2q-12 -2 -33 -4l-16 -4q-10 -4 -21 -12q-10 -4 -18 -13q-14 -14 -31 -30q-12 -12 -23 -27q-6 -8 -10 -18q-6 -12 -8 -25v-8z" />
<glyph unicode="&#xe36;" horiz-adv-x="354" d="M-793 1315q2 27 11 51q6 16 16 35q8 18 21 37q12 20 28 39q14 20 35 36q18 14 37 27q16 12 35 25q27 14 59.5 25.5t56.5 13.5q20 2 41 0q20 0 41 -5q16 -2 33 -6q25 -4 47 -14q14 -8 29 -14q23 -10 49 -31q20 -18 37 -31q19 -17 35 -37q8 23 22 41t33 35q18 16 37 29 q25 16 51 24q25 8 51 9q29 0 56 -11q16 -6 45 -20q33 -14 57 -37q29 -23 47 -53q18 -31 27 -66q4 -25 8 -43q4 -25 4 -53q0 -37 -12 -68q-12 -29 -35 -53q-20 -20 -51 -39q-33 -20 -70 -26q-31 -8 -72 -7q-39 4 -61 9q-12 4 -23 8q-20 -18 -45 -23l-12 -2q-16 0 -33 -2 q-12 0 -27.5 -2t-33 -3t-35.5 -3q-8 0 -22 -2q-18 -2 -43 -2h-29q-25 -4 -47 -4h-35q-18 -2 -35 -2q-18 -2 -37 -2q-23 -2 -44 -1t-44 3q-20 2 -41 6q-20 6 -43 14q-27 10 -55 33q-31 25 -45 59q-10 25 -14 50q-6 27 -5 53zM-637 1305q0 -6 2 -15q0 -8 4 -16q8 -6 13 -8 q10 -4 20 -6q14 -4 29 -7q16 -2 29.5 -2h27.5q18 2 35 4q18 0 39 2h43q14 0 28 3q25 2 50 2q16 0 24 2q14 0 29 2q13 0 31 2q-10 16 -21 30q-6 14 -20 35q-12 18 -25 31q-12 14 -20 22q-12 10 -31 25q-12 10 -21 12q-12 8 -28 15q-4 2 -11 4l-28 4q-10 2 -23 4q-10 0 -18 -2 q-8 0 -23.5 -5t-23.5 -11q-16 -10 -31 -19q-12 -8 -25 -18q-10 -8 -16 -19l-16 -20q-6 -12 -13 -23q-4 -10 -8 -18q-2 -4 -2 -10zM-43 1354l2 -21q0 -2 2 -6v-14q4 -6 12 -15q2 -4 7 -6q6 -2 14 -4t31 -4q20 0 32 2q10 2 19 8q14 8 20 15q2 2 4 6v6q0 14 -2 22q-2 16 -8 39 q-2 12 -6 21q-6 8 -14 14q-10 10 -25 17q-20 10 -31 14q-4 0 -10 -2l-8 -4q-10 -8 -19 -17q-8 -6 -12 -12q-2 -2 -4 -10q-4 -10 -4 -23q-2 -14 0 -26z" />
<glyph unicode="&#xe37;" horiz-adv-x="335" d="M-840 1284q2 14 6 33q4 29 19 55q12 25 35 49q14 16 32 37q23 27 46 45q25 18 51 33q25 14 51 23q27 8 61 12q31 4 58 4q33 -2 55 -8q10 -2 31 -6q37 -6 65 -21q25 -12 49 -29q23 -16 50 -38q16 -17 34 -35v10q-2 18 -4 35q0 16 -2 39v20l-2 12q-4 33 16.5 58.5t51.5 29 t56.5 -16t29.5 -52.5l2 -12q2 -16 2 -35q2 -16 3 -31.5t1 -30.5q2 -18 2 -43q2 -20 2 -43q0 -27 -2 -63q-2 -37 -6 -62q-6 -27 -14 -53q-12 -33 -33 -57q-18 -23 -47 -41q-31 -20 -58 -27q-18 -4 -41 -6l-36 -4q-20 -2 -41 -2q-20 -2 -37 -2q-12 -2 -29 -2q-16 -2 -37 0h-47 t-45 2q-20 0 -41 2q-20 2 -41 4q-18 2 -41 4q-35 2 -65 14q-25 8 -48 21q-29 16 -51 45q-23 29 -32 66q-12 37 -9 67zM-684 1260q4 -8 6 -13l6 -6q10 -4 27 -10q8 -4 22 -4q25 -2 45 -4q18 -2 37 -4q25 -2 41 -5h35h47q16 -2 27 0q14 0 29.5 1.5t33.5 1.5q16 2 33 4 q23 2 39 4q12 0 23 2q2 2 4 2l-4 4q-23 27 -37 53q-10 14 -27 33l-39 39q-18 16 -33 26q-14 10 -28 17q-10 4 -25 6q-27 4 -45 10q-6 0 -16 2q-18 0 -39 -2q-16 -2 -29 -6q-14 -4 -27.5 -12t-25.5 -17q-12 -10 -27 -26q-16 -20 -33 -37q-10 -10 -14 -19l-4 -12 q-2 -12 -2 -20v-8zM78 1300v37v39v43v51q0 31 2 64l2 29q2 33 26.5 53t56.5 18t53.5 -26.5t19.5 -55.5l-2 -28q-2 -29 -3 -54v-53v-41v-35q0 -18 1.5 -37.5t1.5 -43.5v-35v-29v-12q0 -33 -23 -55.5t-54.5 -22.5t-55 22.5t-23.5 55.5v12v23v38q0 18 -2 43z" />
<glyph unicode="&#xe38;" horiz-adv-x="231" d="M-344 -416q0 23 6 45q6 29 21.5 55.5t42.5 49.5q23 20 51 37q25 12 49 22q39 14 80 12q31 -2 59 -8l19 -6q2 0 4 -2q6 -2 10 -4l14 -6q25 -12 47 -35q18 -20 31 -39q14 -23 23 -47q6 -20 8 -43q6 -12 6 -27l4 -53q4 -57 0 -129q-6 -66 -10 -119l-2 -53 q-4 -31 -28.5 -52.5t-56.5 -19.5t-52.5 27t-18.5 57l4 52q2 27 2 53q-6 0 -12 -2q-29 -8 -55 -8q-25 0 -47 4q-25 4 -52 14t-53 31q-23 18 -43 41q-27 29 -37 57q-8 23 -12 45q-4 27 -2 51zM-190 -426q0 -6 2 -12q2 -10 4 -19q2 -2 6 -8q12 -12 24 -22q10 -8 17 -11 q8 -4 16 -4q8 -2 21 -2q10 0 20 4q10 2 17 4q2 2 6 7q8 6 14 16t8 16v2q2 12 2 27q0 12 -2 27q0 6 -2 14q-2 6 -4 8q-4 6 -10 14q-2 2 -4 5l-8 2l-13 4q-12 4 -28 4q-6 0 -13 -2q-16 -6 -35 -15q-10 -6 -18 -14q-8 -6 -11 -13t-5 -12q-2 -12 -4 -20z" />
<glyph unicode="&#xe39;" horiz-adv-x="319" d="M-598 -442q4 29 14 57q12 33 31 55q12 16 35 37q25 23 47 33q16 8 38.5 15t43.5 12q37 6 74 -7q18 -6 41 -16l20 -8q27 -12 41 -39q14 -16 23 -29q12 -18 20 -39l12 -32q4 -14 6 -29q6 -12 9 -27v-16q2 -23 2 -41q0 -14 -2 -37v-40.5v-39.5v-39q0 -6 2 -12q2 -4 2 -8h2 q12 -2 26 -4h29q10 -2 23 0q16 0 32 2t31 2q8 0 19 2l16 4l4 4q4 10 6 25q4 14 6 28q2 20 4 41q2 18 4 37q0 20 3 33v24v21q0 10 -3 22q-2 16 -2 35q-2 16 -2 35v14q0 33 22.5 55.5t55.5 23.5t55.5 -22.5t22.5 -54.5v-16q0 -14 2 -29q0 -12 2 -24q2 -16 2 -31v-33v-30 q-2 -12 -4 -33q0 -23 -2 -43t-4 -41q-4 -25 -10 -51q-6 -25 -15 -45q-12 -31 -36 -56q-27 -27 -60 -37q-16 -6 -37 -10q-23 -4 -45 -4q-10 0 -22 -2q-18 0 -35 -2q-20 -2 -39 0q-16 0 -35 2q-20 2 -41 4q-31 6 -59 23q-39 23 -56 61q-8 20 -14 41q-4 23 -6 45q-2 0 -6 -2 q-25 -6 -53.5 -7t-53.5 5q-20 4 -39 10q-20 8 -43 21q-16 10 -32 22q-27 18 -43 45q-12 23 -21 45q-6 23 -8 50q-2 23 0 45zM-442 -457v-20q0 -8 2 -15q0 -4 4 -8q0 -2 2 -2q10 -8 20 -14q6 -4 13 -6q10 -4 24 -6q6 -2 15.5 -1t15.5 1q10 4 22 8q2 0 5 2q2 4 4 6q6 10 10 20 v7v24v8q-4 10 -8 23q-4 8 -9 16q-4 2 -8 8l-10 9q-12 6 -22 10q-12 -4 -23 -6q-12 -4 -23 -8q-2 -2 -6 -7l-16 -16q-4 -4 -8 -14q-4 -12 -4 -19z" />
<glyph unicode="&#xe3a;" horiz-adv-x="194" d="M-262 -432q2 25 10 45q8 27 33 55q25 31 53 45q23 14 49 21q31 8 62 2l16 -4q6 0 12 -2q39 -8 68 -37q23 -20 37 -47q12 -23 16 -45q4 -16 4 -35q4 -23 0 -49q-6 -29 -20 -58q-16 -35 -45 -55q-25 -18 -56 -27q-27 -8 -51 -8q-25 -2 -47 4q-27 4 -57 23q-33 18 -58 51 q-18 31 -26 57q-6 31 0 64z" />
<glyph unicode="&#xe3f;" horiz-adv-x="1198" d="M102 408v61q0 33 2 66v73q-2 41 0 107v114q2 51 5 109q4 57 6 111q4 51 4 102q2 53 2 94l2 39q0 23 12 41q10 23 33 33l14 8q18 10 47 20q29 12 50 17q20 4 49 6q27 2 47 4q16 0 33 4q25 2 49 4t59 0h2v21q2 33 2 51v33q-2 16 -2 33v14q0 33 22.5 56.5t54.5 23.5 t55.5 -22.5t23.5 -55.5v-16q0 -14 2 -29v-38t-2 -56v-41q4 -2 8 -2q20 -8 39 -15q27 -8 59 -28q29 -14 47 -27q23 -14 43.5 -33.5t34.5 -42.5q14 -16 25 -35q16 -25 31 -61q16 -37 20 -61q4 -18 8 -33q4 -25 4 -49q0 -20 -2 -41q-2 -23 -10 -52q-8 -27 -14 -47 q-6 -16 -15 -34q-6 -18 -14 -33q-12 -23 -27 -41q-12 -18 -37 -41t-45 -41q-23 -16 -51 -33q-16 -10 -37 -18q16 -4 31 -11q37 -12 72 -34q31 -18 50 -32.5t37.5 -30t35.5 -32.5q14 -16 32 -34q25 -27 35 -52q10 -16 17 -34q8 -18 14 -35q6 -18 12 -41q8 -27 13 -45 q2 -16 4 -33q2 -18 2 -37q2 -23 -4 -49q-4 -23 -11 -41q-4 -20 -16 -47q-12 -35 -31 -59q-18 -25 -43 -43q-4 -4 -37 -29q-25 -20 -57 -41q-37 -23 -68 -33q-29 -10 -59 -16q-29 -6 -47 -11q-16 -4 -31 -6q-18 -4 -37 -6q-4 -2 -12 -2v-49v-72v-43q0 -31 -22.5 -54.5 t-54 -23.5t-55.5 23t-24 55v43v76v35q-6 -2 -14 -2q-27 0 -43 2q-14 0 -35 2q-20 2 -35 2q-16 2 -41 4q-29 4 -49 6t-37 6q-14 2 -28 7l-15 2q-35 10 -51 43q-6 10 -8 18l-2 14q-4 16 -6 33q-2 16 -4 35q-2 14 -4 37q-4 29 -4 55q0 25 -2 35q0 16 -3 35q0 18 -1 45.5 t-1 48.5v21.5v17.5v51v51q-2 27 -2 56zM258 412q0 -29 1 -55.5t1 -53.5v-49v-39q0 -23 2 -49v-43t2 -27q2 -16 2 -43q0 -23 2 -43q4 -25 4 -41q2 -8 2 -16q8 0 15 -2q18 -2 43.5 -4t44.5 -4q10 0 29.5 -2t33.5 -2q12 -2 31 -2q12 0 21 2q2 43 2 77v93v131q-2 80 -2 135 q0 57 -3 108v39q-23 2 -34 2q-27 2 -53.5 1t-55.5 -1q-25 -2 -53 -2q-18 -2 -35 -2v-55v-53zM258 680q10 0 37 2q14 0 31 2q20 2 43 4q20 4 39 6q14 2 38.5 7.5t45.5 7.5q0 27 2 47q2 49 4 94t5 109.5t3 107.5q0 45 2 87t4 95v17h-4q-27 2 -43 1t-33 -3q-25 -4 -49 -7 q-18 -2 -43 -4q-18 0 -29 -2q-8 -2 -26 -10q-4 0 -9 -2q0 -39 -2 -92q0 -53 -4 -107q-4 -57 -7 -111.5t-3 -101.5v-112q0 -18 -2 -35zM645 485q2 -51 2 -108t2 -135v-131v-97v-63q4 0 10 2q16 4 35 6q16 4 41 10q23 4 41 11q16 6 39 20q27 16 45 29q20 18 37 30q6 4 12 13 q4 8 11 24q8 20 12 32.5t6 27.5q2 12 2 18v21q-2 10 -4 22q-2 10 -8 29q-6 20 -10 35q-4 14 -11 26q-4 12 -10 25q-4 4 -14 16q-14 16 -29 31q-10 12 -23.5 23.5t-28 21.5t-38.5 25q-23 14 -43 20q-25 10 -53 16q-11 2 -23 4v-4zM649 756q10 4 19 6q16 8 34 18q16 10 31 21 q14 12 33 28q16 16 22 25q6 8 11 16q6 10 10 23q6 14 12 31q4 12 10 32q4 18 7 29v23q0 8 -2 16q-2 14 -7 33q-2 12 -12 35q-8 25 -16 34q-10 16 -21 31q-8 10 -17 18.5t-20 16.5q-14 8 -41 22q-20 12 -30 17l-4 2q-2 -45 -4 -84q-2 -43 -2 -86t-3.5 -108.5t-5.5 -112.5 q-2 -41 -4 -86z" />
<glyph unicode="&#xe40;" horiz-adv-x="770" d="M102 598v61v64q2 31 3 64.5t6 60.5q0 18 2 41v26q0 31 23.5 54.5t55 22.5t54 -24.5t22.5 -54.5v-26q-2 -29 -4 -56q-2 -20 -4 -51q0 -31 -2 -59v-62v-61q0 -29 2 -55q0 -29 2 -56v-51q0 -20 2 -41v-39q2 -20 2 -39q2 -18 4 -34q10 6 21 10q20 10 49 16q29 8 57 10 q29 2 58 -2q27 -2 51 -11t53 -30q33 -20 51 -45q16 -20 29 -43q10 -23 16 -47q8 -23 11 -45q4 -27 2 -59q-2 -31 -6 -55q-6 -29 -19 -56q-14 -31 -41 -55q-25 -25 -51 -37q-23 -10 -49 -18q-23 -4 -47.5 -7.5t-42.5 -3.5q-18 2 -41 7q-23 4 -46.5 12t-41.5 18q-16 8 -35 23 q-25 16 -45 43q-16 20 -29 43q-14 23 -20 43q-6 16 -12.5 37.5t-10.5 46.5q-2 20 -5 39.5t-3 36.5q0 12 -2 32q-2 23 -4 45q-2 20 -2 37q0 2 -2 37q-2 18 -4 43v45q-2 20 -3 43v45q-2 25 -2 54q-2 31 -2 63zM293 68l6 -21q2 -6 8 -18q8 -10 19 -25q6 -8 12 -12q12 -8 20 -15 q8 -4 18.5 -8t20.5 -4q12 -2 21 -4q8 0 21.5 2t25.5 4q10 2 18 6q4 4 13 11q4 4 6 8q4 8 6 18q2 16 4 35v31q-2 12 -6 24q-2 10 -6 19q-4 8 -11 16q-6 6 -16 12q-12 8 -21.5 11.5t-19.5 5.5t-22 0q-14 0 -31 -4q-16 -4 -25 -8q-6 -4 -15 -9.5t-17 -15.5q-6 -6 -9 -8 q-4 -10 -8 -21q-6 -14 -10 -26z" />
<glyph unicode="&#xe41;" horiz-adv-x="1396" d="M102 864v39v12q2 33 26 54.5t55.5 21.5t54 -24.5t20.5 -55.5v-14v-27q2 -20 2 -45v-47v-47q0 -20 1 -42.5t1 -43.5q2 -20 4 -43q2 -25 2 -45q2 -25 2 -47q2 -20 2 -49q0 -27 2 -43v-37q2 -25 2 -33v-24q3 -13 3 -29q14 10 28 16q20 8 43 15q29 8 62 10q37 2 63 -4 q18 -4 39 -10q33 -12 61 -39q23 -20 39 -43q12 -23 23 -47q10 -20 16 -41q8 -25 11 -48q2 -16 2 -41q0 -29 -4 -55q-6 -27 -17 -53q-10 -23 -18 -37q-12 -27 -37 -47q-18 -18 -43 -33q-20 -10 -37 -18q-25 -8 -53 -10q-20 0 -43 2q-16 2 -31 2q-29 2 -55 12q-16 6 -35 12 q-31 10 -60 37q-23 20 -38 41q-16 23 -27 45q-8 18 -14 41q-4 20 -7 39q-2 16 -4 31q-2 14 -4 30q-2 18 -4 48q-2 27 -4 38q-2 14 -2 33q-2 16 -4 29v33q-2 14 -2 26q-2 18 -2 37q0 12 -2 31v31q-2 20 -2 49t-2 49q0 20 -2 41q0 20 -2 43t-5 45q0 23 -2 47v49v47v47 q0 20 -2 39zM301 61q2 -10 4 -22q2 -10 6 -19q2 -4 6 -10q8 -8 19 -20l10 -6q16 -6 33 -11q6 -4 14 -4q18 0 37 -2q12 -2 21 -2h2q8 4 18 10q8 4 14 11q2 2 4 2q6 12 13 28q4 10 6 23q2 10 2 22v27q-2 6 -4 14q-4 14 -10 29q-6 12 -13 23q-4 6 -14 16q-2 2 -4 2q-12 4 -25 8 h-20q-16 -2 -27 -4q-14 -4 -22 -8q-6 -2 -15 -8q-12 -12 -24 -25q-6 -8 -10 -14q-6 -12 -11 -25q-4 -10 -6 -18zM750 322v63q2 23 2 43v47v53v62q0 39 -2 67v64q2 29 2 59q2 31 2 58q2 29 2 45l2 14q2 33 27.5 53.5t57 17.5t52 -28t18.5 -57l-2 -15q-2 -10 -2 -34 q0 -27 -1 -58t-3 -61v-53q0 -29 2 -70v-68v-49v-47q0 -23 -2 -47v-57q2 -30 2 -48q12 8 25 15q25 14 61 24q43 12 82 7q29 -4 45 -9q23 -6 56 -26q35 -20 57 -43q23 -25 39 -62q14 -35 20 -69q2 -31 2 -50q0 -16 -2 -34q-2 -29 -14 -64q-12 -31 -29 -57q-18 -27 -44.5 -51.5 t-57.5 -40.5q-39 -20 -80 -21h-41q-25 0 -49 4q-33 6 -64 23q-29 16 -53 39q-29 23 -43 47q-12 16 -20 35q-8 18 -17 43q-6 23 -10 47q-2 20 -6 39q-2 16 -3 32.5t-3 32.5q-2 20 -2 41v39q0 18 -2 39q-2 25 -4 66zM924 59q4 -16 8 -30q2 -12 6 -19l10 -20q4 -4 15 -13 q10 -10 24 -18q8 -4 17 -6q12 -2 22 -2h39q4 0 10 2q12 8 24.5 19.5t18.5 21.5q8 12 15 26q4 14 4 21q2 14 2 27q0 6 -2 24q-2 12 -9 29q-4 12 -8 16q-6 6 -22 15q-14 8 -23 12q-8 2 -24 4q-4 2 -15 -2q-18 -4 -26 -10q-16 -8 -33 -21q-10 -6 -19 -16q-10 -10 -16 -17 l-12 -20l-6 -14v-9z" />
<glyph unicode="&#xe42;" horiz-adv-x="1347" d="M102 1257q2 18 7 37q4 20 10 43q4 12 6 25q6 18 12 41q8 23 17 41q8 20 16 37q12 20 42 54t48 48q14 12 29 23q14 10 30 20q18 10 50 27q33 14 53 22q16 4 35 11q20 4 41 8q16 4 34 6q18 4 43 6q29 4 50 4q23 -2 43 -4q23 -2 41 -6q16 -6 41 -14q23 -8 36 -15 q18 -8 39 -22q14 -10 45 -33q33 -27 56 -49q20 -20 45 -51q23 -25 39 -43q8 -8 14 -15l12 12l11 11q6 8 12 14l55 55q23 23 55.5 22t54 -23.5t21.5 -54.5t-22 -54l-43 -45q-4 -4 -9 -11l-22 -22l-37 -37q-37 -37 -90 -33q-41 2 -80 33q-25 18 -47 41q-18 23 -43 49 q-20 25 -37 41q-14 16 -41 35q-27 23 -39 31q-6 4 -12 6q-10 6 -29 12q-16 6 -24 8t-21 4q-14 0 -26 2q-12 0 -31 -2q-20 -4 -35 -6q-16 -2 -31 -4q-14 -4 -26 -6q-16 -6 -31 -10q-10 -2 -33 -15q-23 -10 -35 -18t-22 -14q-12 -8 -23 -19q-8 -4 -26 -26q-20 -23 -25 -31 q-6 -10 -8 -19q-6 -12 -10 -28q-6 -18 -11 -31q-4 -18 -10 -37q-4 -12 -4 -20q-2 -12 -4 -23v-26q2 -6 2 -13q0 -2 2 -2q8 -4 27 -8q16 -2 20 -4h29q14 -2 41 -4q18 -2 31 -2h34h37q23 0 54 -4q25 -4 43 -8q14 -2 30 -5q18 -2 41 -6q10 0 19 -2q27 -2 55 -16q41 -20 59 -62 q10 -20 15 -47q6 -25 6 -45q2 -14 2 -37q2 -23 2 -45v-49v-29q0 -14 2 -26v-37v-36.5v-35.5q-2 -16 -2 -43v-45v-41v-88v-47q0 -23 -2 -61v-66v-8q20 8 41 14q29 10 55 8h8q12 2 25 0l14 -4q25 -4 49 -14q14 -8 33 -16q29 -14 53 -37q18 -18 33 -37q23 -31 31 -64 q4 -20 4 -38q2 -14 2 -33q0 -23 -2 -45q-4 -29 -16 -60q-12 -29 -31 -53q-18 -27 -39 -45q-25 -25 -53 -37q-25 -8 -56 -12q-29 -2 -60.5 1t-59.5 15q-27 10 -56 27q-25 14 -43 31q-29 20 -47 49q-20 31 -26 63q-6 27 -7 47q-2 8 -2 17l-2 18q0 18 -2 45q-2 33 -2 62 q-2 27 -2 53.5t1 56t1 66.5q2 35 2 61v43v88v41v45t2 47v34v34v29q-2 18 -2 28v39v42t-1 41.5t-1 33.5q-2 10 -4 23l-2 4q-10 2 -20 2q-12 2 -31 4q-23 2 -43 6q-14 4 -39 6q-18 4 -31 4h-35h-34q-23 0 -50 2q-23 4 -34 4h-21q-20 2 -51 8q-29 8 -49 15q-27 10 -51 33 q-35 31 -43 67q-6 18 -7 49q-2 31 -2 49zM813 59q0 -6 2 -16q0 -4 4 -10t12 -13q14 -10 33 -22q14 -8 25 -12q12 -4 26.5 -6.5t24.5 0.5q10 0 14 2l4 4q8 8 17.5 20t15.5 27q4 12 6 16v23v26q-2 8 -2 15l-2 2q-8 10 -18 22l-12 8q-16 8 -31 15q-6 2 -10 4h-2h-9h-14h-6 q-10 -4 -27 -10q-10 -4 -18 -13q-8 -6 -12 -14q-6 -8 -11 -21q-6 -14 -8 -28q-2 -12 -2 -19z" />
<glyph unicode="&#xe43;" horiz-adv-x="1284" d="M106 1329q-4 31 0 53q2 16 7 35q6 18 8 33q4 23 11 44.5t18 41.5q10 20 30 51q23 33 47 53q20 16 43 29q18 10 39 21q23 12 39 18q14 6 37 14q29 12 53 21q25 6 54 8h49q25 -2 49 -6q29 -6 49 -12q16 -4 33 -11q18 -6 39 -16q18 -8 32 -16q20 -10 50 -35q33 -29 55 -64 q18 -29 29 -51q12 -25 16 -45q4 -14 10 -41q8 -33 8 -55v-33q2 -23 0 -43v-29q-2 -14 -2 -28v-43t-2 -49q-2 -18 -3 -36t-3 -36q-2 -20 -4 -55q-4 -27 -4 -43q0 -23 -1 -48.5t-5 -54.5q-2 -25 -6 -70q-4 -47 -7.5 -82.5t-5.5 -72.5l-4 -74q0 -35 -2 -76q-2 -39 -6 -106 q-4 -68 -8 -107v-8q33 14 63 14l21 -2h12h21q29 0 59 -14q16 -6 35 -16q18 -10 37 -25q23 -16 41 -40.5t28 -51.5q6 -20 11.5 -44t7.5 -42q2 -20 -1 -46t-9 -48q-8 -29 -23 -53q-12 -16 -27 -35q-18 -20 -43 -37q-25 -16 -51 -25.5t-53 -11.5q-23 -2 -45 -2q-25 0 -49 6 q-14 4 -31 8q-29 8 -57 29q-27 18 -49.5 46t-32.5 50q-6 16 -13 35q-8 25 -10 51q-2 20 0 43q0 10 2 19v8q0 16 -2 47v72q0 43 2 86q4 39 8 106q4 63 7 103q2 39 4 73q0 37 2 78q4 39 6 76q4 35 6 82q4 47 8 76q2 25 3 45t1 39q0 25 4 59q4 31 4 49q2 20 3.5 38.5t3.5 37.5 q2 16 2 39v39q0 16 2 34q0 16 2 33v27q-2 20 -2 35q0 8 -4 24q-6 25 -11 37q0 6 -6 19q-6 12 -18 32q-10 16 -25 29q-16 14 -24 18q-12 6 -25 13l-20 8q-14 6 -29 10q-10 2 -29 6q-18 2 -35 4h-30q-10 0 -23 -4q-12 -4 -31 -12l-40 -16q-10 -4 -27 -13q-18 -8 -33 -16 q-12 -6 -22 -14q-6 -6 -17 -21q-12 -18 -16 -29q-6 -12 -10 -24q-2 -4 -2 -8q6 4 10 6q29 14 59.5 21.5t59.5 7.5q33 0 65 -13q29 -12 55 -28q35 -23 52 -50q10 -18 20 -39q10 -20 16 -45q8 -29 11 -53q2 -23 -2 -47q-4 -23 -15 -49q-14 -39 -49 -72q-33 -31 -69 -45 q-35 -14 -62 -18q-27 -2 -57 2q-29 4 -68 18t-67 33q-29 18 -54 49q-20 27 -34 55q-12 25 -21 46q-8 23 -12 40q-4 16 -6 33q-4 16 -5 39zM303 1219q2 -4 2 -5q10 -12 21 -18q10 -8 32 -16q23 -8 35.5 -9.5t20.5 -1.5q6 0 18 7q10 4 23 14q8 10 10 14l6 21q2 4 2 10 q-2 8 -4 18q-4 12 -10 25q-4 10 -10 18q-2 2 -5 4q-12 8 -26 15q-8 2 -12 2q-8 0 -21 -2q-14 -4 -27 -10q-8 -4 -14 -9q-10 -12 -18 -24q-8 -10 -11 -17q-4 -8 -8 -18q-2 -8 -4 -18zM846 59q0 -4 2 -10q2 -10 8 -22q2 -4 10 -15q8 -10 17 -16q6 -4 10 -4q16 -6 29 -8 q6 -2 16 -2h23q8 2 17 5t17 7q6 6 13 12q6 8 12 14q2 4 2 11q4 10 5 22.5t1 20.5t-3 20t-7 23q-2 6 -6 12t-11 10q-8 6 -16 11l-24 12h-21h-14h-17q-2 0 -6 -2q-16 -6 -24 -15q-6 -2 -13 -10q-8 -8 -10 -16q-4 -6 -8 -17v-2q-2 -6 -2 -12v-2q-2 -14 0 -27z" />
<glyph unicode="&#xe44;" horiz-adv-x="1495" d="M117.5 1443q11.5 30 41 43t60.5 1l17 -6q20 -8 40 -19q25 -12 52 -32q23 -16 49 -39q16 -12 33 -29q4 14 12 35q8 27 20 51q10 20 23 43q14 31 39 63q27 33 47 52.5t43 33.5q29 18 63 27q29 8 58 10q25 0 59 -2q39 -2 62 -8q25 -8 45 -20t49 -39q33 -29 49 -58 q14 -25 20 -43q6 -14 11 -28q6 -16 10 -31q4 -14 8 -29q4 -16 8 -39q4 -20 6 -39q4 -16 7 -32q2 -18 4 -41q0 -18 2 -39q0 -16 2 -43q2 -29 2 -49q2 -20 2 -41q2 -25 4 -49v-54v-53q2 -33 4 -74q2 -49 0 -86v-65v-72v-78v-98v-100l-4 -54l20 4q16 7 41 7q8 2 15 2h16 q27 2 55 -7q23 -6 39 -12q23 -8 43 -22q25 -16 43 -39q16 -16 31 -41q14 -25 22.5 -47.5t12.5 -51.5q2 -27 0 -57q-2 -37 -10 -63q-8 -25 -23 -47q-10 -20 -29 -41q-20 -25 -45 -41q-20 -14 -45 -25q-27 -12 -57 -14q-23 -2 -39 -2q-20 0 -44 4t-50 14q-25 8 -47 23 q-27 14 -45 34q-20 18 -37 48q-18 29 -27 55q-6 18 -8 39q-6 27 -4 55q2 20 6 39v20q2 37 4 72q2 39 6 78l4 74v96v98v78v72v69q2 31 0 76q-2 53 -4 74v59q0 31 -1 51.5t-1 38.5q-2 23 -4 45q0 20 -2 48q-2 31 -2 51q-2 18 -2 35q0 12 -2 22q-2 14 -5 30.5t-7 37.5 q-4 18 -6.5 28.5t-6.5 26.5q-4 10 -6 20q-4 12 -8 23q-4 8 -12 23q-4 8 -19 20q-18 16 -24 20l-10 5q-6 2 -27 4h-41q-12 0 -27 -4q-10 -2 -16 -9q-12 -8 -23.5 -18t-29.5 -33q-16 -20 -23 -35q-12 -23 -22 -43q-8 -18 -15 -37q-8 -20 -14 -38q-4 -16 -10 -43 q-8 -29 -11 -45q-4 -14 -6 -31q-4 -16 -6 -27q-6 -35 -30.5 -46t-52 -3t-50 20.5t-25.5 18.5q-4 10 -20 41q-14 29 -31 47q-16 18 -35 35q-23 20 -43 35q-14 10 -24 16q-16 6 -31 12l-16 6q-29 12 -42.5 42t-2 60zM1049 63q2 -14 6 -26q2 -6 8 -17q8 -12 14 -18t15 -10 q12 -8 26 -12q10 -4 20.5 -6.5t16.5 -2.5q10 0 25 2q6 0 12 2q8 4 18 11q6 4 13 12q8 10 14 18q4 8 8 19q2 8 2 24q2 18 0 29q0 10 -2 16q-4 8 -10 19q-8 14 -16 22q-4 6 -9 9q-10 6 -16 8q-8 4 -18 6q-10 -2 -23 -2l-18 2h-7q-10 -2 -26 -8q-10 -2 -19 -4q-4 -2 -12 -9 l-4 -4q-8 -14 -10 -22q-2 -4 -4 -12v-9q0 -10 -4 -18v-8q-2 -6 0 -11z" />
<glyph unicode="&#xe45;" horiz-adv-x="1021" d="M105.5 740.5q-3.5 31.5 15.5 56.5l16 20q23 27 41 43q16 14 37 29q20 12 39.5 23.5t38.5 19.5l35 14q16 4 45 12q31 8 51 11q20 4 43 4h37q27 0 49 -4q23 -4 41 -11q16 -4 33 -8q18 -6 39 -14q20 -10 39 -21q16 -10 30 -20q18 -10 41 -31q27 -23 53 -55 q25 -33 40.5 -61.5t23.5 -47.5q4 -16 8 -36q4 -14 8 -31q2 -16 5.5 -35.5t3.5 -40.5q2 -16 3 -35.5t3 -50.5v-57q-2 -20 -2 -39v-35v-39q0 -20 -2 -41q0 -18 -2 -39q0 -20 -3 -39q0 -16 -1 -34.5t-1 -32.5v-33q0 -18 -1 -38.5t-1 -41.5q2 -27 1 -51.5t1 -44.5q0 -25 -2 -49 q0 -25 -2 -43q0 -16 -2 -35q0 -14 -2 -31v-35q-2 -14 -2 -29.5v-23.5v-5v-5v-2v-2q0 -6 -2 -13v-20q-4 -35 -4 -57l-2 -25q-2 -33 -25.5 -54.5t-55.5 -19.5t-54.5 25.5t-20.5 56.5l2 25q0 25 4 59l3 31v6v31q0 14 2 30v31q2 20 2 39q2 16 4 35v35q2 23 2 43q-2 23 0 47 q0 25 -2 49q0 25 2 49v37v29q0 16 1 36.5t3 38.5v39q2 18 2 39q2 16 2 35v37v37q0 20 2 43v45q-2 29 -2 47q-2 18 -4 37q0 14 -2 27.5t-4 25.5q-2 14 -6 29q-2 10 -5 18q-4 8 -12 25q-10 18 -26 39q-14 20 -29 30q-18 14 -29 23q-12 8 -26 16q-10 6 -21 13q-10 4 -20 6 q-14 4 -29 8q-12 4 -27 6q-10 2 -24 2h-33q-10 0 -23 -2q-12 -2 -34 -6q-23 -6 -35 -10q-10 -4 -21 -8q-12 -6 -24 -15q-16 -8 -31 -16q-12 -8 -22 -17q-6 -8 -19 -22l-18 -21q-18 -25 -51 -28.5t-57.5 17t-28 52z" />
<glyph unicode="&#xe46;" horiz-adv-x="1320" d="M102 676q0 33 4 53q2 20 7 37q4 12 8 25q6 25 21.5 51t43.5 57q33 29 68 47q31 14 51 19q12 2 27 4q18 4 35 8q27 4 53 2q31 -2 57 -14q18 -8 37 -19q18 -10 39 -26q14 -10 29 -25l10 -6q0 2 2 2q25 27 51 43q23 12 47 22q29 10 60 13q39 4 67 -6q16 -6 35 -13 q33 -12 57 -41q16 -18 35 -47q18 -33 29 -65q6 -25 12 -56q4 -31 6 -43q4 -16 4 -41q2 -23 4 -39q2 -20 3 -40q0 -20 -3 -41q0 -18 -2 -39v-35v-92v-43q2 -18 2 -37v-37q2 -18 0 -39v-4q45 2 78 4h60q33 2 56.5 -20.5t24.5 -54t-21.5 -55.5t-53.5 -24l-60 -2q-35 -2 -81 -4 q0 -8 -3 -18q0 -16 -1 -29.5t-1 -32.5q-2 -14 -4 -36q-2 -18 -2 -41q-2 -23 -2 -43q0 -23 -1 -47.5t-3 -40.5q-2 -14 -2 -27q0 -16 -2 -33q0 -14 -2 -31q0 -14 -2 -26q0 -18 -4 -37l-2 -14q-8 -31 -35 -48.5t-57.5 -11.5t-49 33t-12.5 57l2 15q2 8 2 16q2 12 2 27q2 16 2 30 q2 16 2 29q2 14 2 31q2 14 3 39q2 23 2 43q0 23 2 47q2 25 4 47q0 20 2 37q2 14 2 25.5v25.5q0 4 2 8q-37 -2 -66 -2q-63 -2 -92 -2l-26 2q-31 0 -53.5 23.5t-21.5 55.5t24.5 54.5t56.5 22.5l26 -2q23 0 82 2q31 0 68 2v14q2 16 0 33v34.5t-2 32.5v52v92v43q2 18 2 39 q2 16 2 33q0 14 -2 28q0 16 -2 39q-2 20 -4 31q-2 12 -6 39q-4 20 -9 39q-4 14 -14 28q-8 14 -14 23q-12 6 -25 10q-2 0 -6 -2q-10 0 -21 -4q-12 -4 -22 -10q-6 -4 -16 -15q-14 -16 -23 -26q-10 -14 -20 -29q-12 -18 -45 -29.5t-64 -3.5q12 -18 18 -41q8 -23 11 -47 q4 -29 0 -53q-2 -16 -6 -35q-4 -27 -17 -51q-12 -23 -31 -47q-27 -37 -61 -49q-12 -6 -29 -11q-25 -8 -49 -12q-25 -2 -51.5 0t-54.5 10q-23 6 -43 17q-23 10 -45 24q-29 18 -50 45q-18 23 -26 48q-10 23 -15 45q-4 25 -2 53q0 12 5 26q-6 25 -7 58zM260 565l4 -12t8 -14 q4 -4 9 -7q12 -8 22 -12q12 -6 29 -10q10 -4 21.5 -5t19.5 -1q8 2 14 4q10 4 21 8q8 12 12 21q4 8 6 14q2 14 4 27v12q-2 10 -4 16t-4 10q-2 2 -4 5q-8 6 -15 8l-20 8l-35 12h-12h-17l-12 -6q-12 -6 -18 -12q-10 -10 -19 -21q-4 -6 -7 -14t-3 -16q-2 -8 0 -15zM322 805h16 q18 0 37 -2l12 -2q13 -2 25 -8l20 -9q18 -6 37 -14q16 -8 33 -18q-4 6 -8.5 12t-8.5 10q-16 14 -30 25q-10 8 -19 12q-10 6 -20 10q-2 2 -8 2h-15q-14 -2 -26 -6q-16 -2 -31 -6q-6 -2 -14 -6z" />
<glyph unicode="&#xe47;" horiz-adv-x="346" d="M-633 1296v43v33q0 23 4 47q2 18 6 35q2 23 9 45q6 29 12 49q6 14 14 31q10 23 25 43q12 16 24.5 32.5t28.5 34t33 33.5q20 18 41 31q14 10 29.5 19.5t33.5 17.5q20 10 45 22q31 12 66 21q27 4 41 8q23 2 55 2q25 -2 38 -3t28 -1q12 -2 32 0q16 0 27 4q16 4 33 8 q10 4 20 11q16 8 31 20q6 4 14 16q16 25 29 46l14 22q18 27 50 34t59 -9.5t34 -48t-10 -60.5l-14 -22q-14 -23 -33 -50q-23 -33 -51 -53q-20 -16 -43 -28q-25 -16 -51 -25q-20 -6 -41 -12q-27 -6 -61 -9q-29 -2 -50 0q-16 0 -28.5 1.5t-34.5 3.5h-21q-12 -2 -36 -9 q-18 -4 -33 -10q-20 -8 -37 -16q-14 -8 -28.5 -16.5t-26.5 -14.5q-4 -4 -13 -12q-14 -12 -26.5 -25.5t-21.5 -27t-19 -25.5q-6 -8 -10 -16q-6 -14 -11 -27q-4 -8 -6 -23q-4 -18 -6 -32q-2 -18 -6 -39q-2 -12 -2 -23v-35v-28q2 -10 4 -17q2 -12 8 -24q4 -8 16 -27 q6 -12 13 -18q0 -2 2 -2q20 -4 39 -9q4 -2 12 0t14 7q12 8 25 18q23 23 45 37q29 16 61.5 13t57.5 -21q23 -16 37 -35q8 -10 30 -31q20 -18 35 -26q18 2 35 6q10 2 18 8q8 4 13 12q6 6 10 14h-10q-23 0 -47 3q-35 6 -64 20q-23 10 -43 25q-20 16 -37 34q-16 16 -28 33 q-18 25 -27 62q-6 31 -6 61q0 35 12 66q12 37 41 65q23 25 49 39q29 16 60 25q31 8 55 6q16 0 41 -2q37 -4 65 -19l17 -8q4 -4 8 -6q25 -6 41 -25l12 -14q16 -18 29 -41q10 -23 14 -47q4 -20 6 -43v-23q6 -25 7 -53q-2 -20 -5 -39q0 -14 -2 -28q-2 -18 -6 -37q-2 -16 -6 -33 q-6 -18 -12 -35q-6 -16 -17 -39q-12 -29 -30 -53q-23 -31 -54 -49q-29 -20 -65 -31q-29 -6 -62 -10q-47 -4 -90 20q-27 16 -61 47q-18 16 -31 29q-18 -14 -37 -27q-33 -20 -69 -28q-39 -6 -74 2q-23 4 -43 10q-41 8 -70 35q-20 20 -41 53q-18 29 -26 49q-8 18 -15 37 q-6 23 -10 51zM-109 1448q0 -12 3 -23q0 -4 2 -6q6 -8 14 -16q6 -8 16 -14q10 -8 23 -15q4 -2 12 -2q14 -2 29 -2h2q2 0 4 2q10 10 20 25q8 8 11 14q0 4 2 8q0 10 2 19v6q0 8 -2 16q-2 4 -2 8q-3 5 -9 11q-10 4 -16 6l-16 8q-2 2 -9 2q-16 2 -26 2q-6 0 -15.5 -2t-17.5 -6 q-10 -6 -18 -16q-4 -4 -6 -7q-2 -8 -3 -18z" />
<glyph unicode="&#xe48;" horiz-adv-x="67" d="M-193 1720v35v95.5t3 111.5l2 51q2 31 25.5 53.5t55 21.5t54 -25.5t20.5 -55.5l-2 -51q-2 -49 -2 -107v-94v-33q0 -33 -22.5 -55t-54 -22t-55.5 22.5t-24 52.5z" />
<glyph unicode="&#xe49;" horiz-adv-x="389" d="M-568 1884.5q1 32.5 9 61.5q10 23 24 47q12 18 31 43q23 27 49 45q29 18 64 28q37 12 67 11q18 -2 31 -4q23 -2 53 -15l21 -8q10 -4 18 -10q2 0 4 -2l15 -8q23 -12 43 -35q20 -18 33 -37q18 -27 24 -57q2 -12 4 -27v-6v-4v-6v-3v-2q2 -20 0 -47q-2 -23 -6 -51 q-4 -25 -10 -57q0 -10 -2 -21q31 20 63 47q61 49 113 103q49 51 57 63l10 15q18 27 51 32t59 -13.5t31 -50.5t-14 -58l-10 -15q-14 -18 -72.5 -80.5t-128.5 -117.5t-124 -89q-59 -35 -111 -49q-4 0 -10 -1t-23.5 1t-33 5.5t-33 10.5t-26.5 19t-9 32.5t12 47.5q6 8 10 18 q-18 -2 -34 -2q-25 0 -50 9q-20 4 -41 12q-27 12 -51 31q-18 14 -35 30q-23 20 -39 45q-18 27 -26 56q-8 31 -7 63.5zM-414 1880q0 -8 2 -14q2 -8 6 -15q6 -8 15 -16q12 -12 26 -23q8 -6 15 -8q12 -6 24 -8q4 -2 9 -2h16q8 2 18 6q10 2 19 8q4 2 10 11q8 10 10 14q4 8 6 16 q2 12 5 27v16v4q0 8 -3 17q-4 8 -14 16l-10 10l-14 9q-3 0 -5 2l-16 6q-10 4 -16 4q-12 2 -25 4q-2 -2 -10 -2q-10 -4 -21 -10q-10 -8 -18 -17q-10 -14 -18 -26q-6 -8 -9 -17q-2 -4 -2 -12z" />
<glyph unicode="&#xe4a;" horiz-adv-x="487" d="M-754 1862q2 33 4 61q2 31 6.5 51.5t10.5 40.5q8 20 18 39q8 16 17 33q14 23 43 49q25 25 47 39q27 20 57 31q23 8 43 10q18 4 37 6q20 2 41 2q31 0 70 -18q29 -14 51 -31q23 -18 43 -45l8 -12q27 29 51 47q33 23 68 30q31 8 63.5 7.5t56 -9t52.5 -30.5q31 -20 55 -56 q23 -31 31 -51q6 -16 12 -33q6 -18 8 -41q4 -16 4 -34q2 -20 2 -39v-43q-2 -23 -2 -37h1t1 2q14 16 27 33q8 12 14 24q8 20 17 37q6 14 10 27q6 18 12 37q4 8 6 18l2 16q6 31 33 49.5t57.5 13.5t50 -31.5t13.5 -57.5l-2 -17q-4 -25 -12 -47q-6 -14 -13 -28q-6 -20 -16 -43 q-8 -18 -16 -39q-12 -25 -29 -49q-14 -18 -33 -41q-16 -20 -40.5 -47t-42 -45.5t-36 -35t-36.5 -28.5q-37 -31 -78 -29q-45 0 -67.5 43t-12.5 76q6 12 12 33q6 16 10 37q6 14 7 22q2 10 2 23q2 12 2 26q2 12 2 26.5t2 37.5v37v26q-2 12 -4 27q0 8 -4 14q-2 10 -7 21 q-4 6 -14 20q-8 12 -18 21q-8 6 -15 8q-4 2 -10 2q-10 0 -20 -2q-6 -2 -15 -8q-12 -10 -26 -25q-12 -14 -17 -20q-6 -8 -8 -17l-8 -20q-2 -10 -4 -31q-2 -2 -6 -5t-14.5 -12.5t-20.5 -17.5t-24.5 -16t-28 -12t-25.5 -2t-23 10q2 -4 3 -8q6 -18 10 -35q6 -25 6 -53 q0 -25 -6 -45q-4 -23 -15 -46q-10 -23 -24 -41q-18 -27 -45 -43q-20 -10 -43 -18q-27 -10 -51 -10q-25 -2 -56 2q-23 4 -45 10q-29 8 -57 23q-35 20 -57 53q-20 29 -31 63q-8 29 -8 60q-2 4 -2 6l-5 14q-6 20 -6 60zM-586 1784q-2 -8 1 -17.5t10 -17.5q2 -4 6 -6 q10 -6 20 -8q16 -4 33 -9q12 -2 18 -2q4 2 11 5q8 2 14 6q4 6 8 14q4 6 4 12q2 6 2 17v10l-8 24q-2 8 -6 15q0 2 -6 8t-13 8l-8 2q-4 0 -10 2q-14 -2 -33 -4q-6 0 -16 -6q-10 -4 -14 -8q-4 -2 -7 -8q-2 -6 -4 -9q-2 -12 -2 -28zM-569 1997q4 0 10 2q16 0 31 2l16 2 q17 2 37 -4h10q29 -6 53 -21q20 -12 41 -32q16 -16 29 -33q-4 14 -9 33.5t-9 33.5q-6 14 -13.5 28.5t-17.5 29.5q-8 8 -15 14q-8 6 -22 12q-4 4 -8 4h-17q-14 -2 -26 -4q-10 -2 -23 -6l-16 -8q-12 -10 -31 -27q-12 -12 -16 -18z" />
<glyph unicode="&#xe4b;" horiz-adv-x="268" d="M-393 1858.5q0 31.5 22.5 55t55.5 23.5h36q31 0 93 2v7v47v10v80q0 31 23.5 54.5t55 22.5t54 -25t22.5 -54v-64v-10v-61v-2v-2q14 0 31 2h88q33 0 55.5 -24t23.5 -55.5t-22.5 -54t-54.5 -22.5h-90q-16 -2 -33 -2v-78v-51q0 -31 -22.5 -54.5t-55 -23.5t-55 23.5 t-22.5 54.5v51v76q-57 -2 -91 -2h-36q-31 0 -54.5 22.5t-23.5 54z" />
<glyph unicode="&#xe4c;" horiz-adv-x="294" d="M-508 1610q-2 25 4 49q6 23 15 43q10 27 30 51q4 4 8 10l17 17l10 8l4 4l12 8l2 2q33 25 68 43t86 31q47 10 105 18q47 4 106 19q53 12 84 29l39 20q29 14 59.5 5t45 -37.5t5 -59.5t-37.5 -45l-39 -21q-49 -27 -121 -43q-35 -8 -68 -14q12 -18 23 -39q10 -27 14 -53 q4 -23 2 -49q-2 -29 -8 -54q-8 -23 -23 -45q-12 -23 -34 -47q-27 -33 -56 -45q-18 -10 -37 -16q-25 -8 -47 -10q-18 -2 -39 -3q-29 0 -55 9l-28 8q-31 8 -60 33q-25 18 -41 41q-12 18 -22 36q-12 25 -19 52q-4 25 -4 45zM-352 1597q2 -4 4 -10l12 -20q4 -4 12 -11q4 -4 7 -4 q16 -6 30 -10h6h23l12 4q10 2 21 8q4 2 8 9q12 14 18 22q4 8 6 14t3 15q2 10 0 20q0 6 -3.5 12.5t-7.5 11.5t-8 7l-14 10q-4 2 -6 6l-21 9q-4 2 -12 4q-16 0 -25 -2q-6 -2 -10 -4q-8 -6 -18 -13l-11 -10q-6 -4 -12 -12q-6 -6 -8 -11q-4 -8 -6 -18v-12v-15z" />
<glyph unicode="&#xe4d;" horiz-adv-x="282" d="M-356 1333q2 31 10 58q8 18 16 41q8 18 19 32l270 -26q-16 0 -33 2h-35q-8 -2 -14 -4t-10 -6q-12 -8 -25 -21q-10 -10 -18 -20q-6 -8 -10 -19q-8 -18 -13 -31q-2 -6 -2 -12q0 -10 1 -19.5t5 -19.5q4 -8 11.5 -19.5t19.5 -21.5q14 -12 29 -22q6 -4 8 -4q12 -4 27 -7 q6 -2 12 -2q12 0 27 2q8 2 12 5q10 4 24 10q10 4 17.5 11t15.5 15q8 12 12 21q2 4 3 8q2 10 4 19v18q0 6 -2 18q-2 14 -7 29q-2 10 -6 18q-2 8 -8 17q-2 2 -6 8q-10 8 -21 14q-8 8 -18 13q-227 25 -270 26q6 10 12 19q14 20 35 39q16 16 33 28q25 20 53 31.5t61 11.5 q23 2 46.5 1t45.5 -3l19 -2q23 -2 41 -16q18 -8 35 -21q16 -12 32 -26q20 -18 35 -41q10 -16 18.5 -34.5t14.5 -43.5q6 -23 8 -43q4 -25 4 -43t-2 -37q-2 -16 -6 -35q-4 -23 -14 -43q-10 -18 -27 -41q-16 -25 -38.5 -43t-49.5 -32q-23 -10 -37 -17q-23 -8 -47 -12 q-20 -2 -39 -4q-25 -2 -53 4q-23 4 -39 10q-27 8 -55 27q-20 14 -41 32q-27 23 -46.5 50.5t-27.5 54.5q-10 25 -13 49.5t-3 48.5zM-311 1464z" />
<glyph unicode="&#xe50;" horiz-adv-x="1214" d="M102 285q0 16 2 32q0 14 2 29q0 20 5 39q4 14 6 29q4 18 8 35.5t10 35t12 33.5q6 18 15 35q8 20 20 37q10 16 23 31q12 14 24 30q16 16 39 35q20 18 37 33q16 12 29 20q18 14 39 25q16 8 37 14q18 6 36 13q20 6 41 10q14 4 33 6q23 4 45 6h41q20 0 40 -2t36 -6 q25 -4 55 -19l6 -2q14 0 25 -4l14 -4q20 -6 41 -14q16 -8 33 -21q18 -10 35 -22q12 -10 29 -23q25 -20 41 -45q8 -10 16 -18q10 -14 24 -29q14 -18 27 -33q16 -20 27 -41q10 -18 16 -34q8 -16 14 -37q8 -25 11 -47q2 -14 6 -31q6 -23 8 -49q2 -27 2 -43q2 -20 0 -37 q0 -14 -2 -41q-4 -31 -8 -49q-2 -14 -6 -31q-4 -20 -14.5 -48t-20.5 -48q-8 -18 -21 -43q-14 -25 -30 -49q-18 -25 -43 -47q-23 -23 -41 -37q-23 -18 -52 -33q-25 -12 -55 -21q-25 -8 -37 -12q-20 -4 -51 -8q-27 -2 -45 -2h-33q-16 0 -32 2q-14 2 -41 8q-31 4 -50 10 q-12 4 -26 11q-12 2 -23 4q-16 4 -41 12q-27 8 -57 23q-29 14 -55.5 29.5t-48.5 31.5q-27 18 -50 43q-20 23 -36 47q-14 23 -27 47q-12 25 -23 47q-8 25 -16 49q-6 23 -10 43q-4 18 -8 43q-6 31 -7 52zM258 285q0 -6 4 -23q4 -23 8 -41q2 -14 9 -33q4 -18 10 -30 q6 -16 14 -35q10 -16 21 -33q8 -14 22 -29q10 -12 25 -20q16 -12 36.5 -24.5t43.5 -22.5q20 -10 36 -14q16 -6 31 -11q16 -4 31 -8q16 -4 29 -10q10 -2 28 -6q25 -4 35 -4q10 -2 18 -2h25q10 0 31 2q18 2 24 4q14 2 37 10q16 4 29 10q12 6 22 15q14 10 31 26 q14 16 25.5 30.5t19.5 29.5q10 18 17 34q8 16 16 37q6 18 8 29q4 14 6 27q2 10 4 30q2 27 2 39q2 8 0 21q0 14 -2 32q0 16 -4 31q-4 23 -8 43q-2 10 -4 23q-4 12 -8 20q-6 12 -12 25q-6 10 -13 18q-8 12 -20 27q-14 14 -25 26q-14 16 -26 35q-4 6 -11 10q-16 12 -28 23 q-10 6 -21 14q-12 8 -22 13q-6 4 -13 6h-4q-20 -2 -39 6l-22 10q-12 6 -19 6q-12 2 -26 4t-29 2h-27q-12 0 -22 -2q-16 -4 -33 -6q-12 -4 -26 -8q-16 -4 -31 -8q-10 -4 -21 -10q-6 -2 -14 -9q-14 -10 -27 -20q-10 -8 -28 -23q-16 -14 -25 -24q-10 -12 -20 -25 q-8 -10 -15 -18q-6 -8 -10 -17q-4 -12 -8 -22q-4 -12 -8 -25.5t-8.5 -28t-6.5 -28.5q-4 -16 -6 -31l-4 -16q0 -16 -2 -29v-22z" />
<glyph unicode="&#xe51;" horiz-adv-x="1234" d="M102 305q0 16 4 35v20l3 23q4 31 14 57q6 18 12 35q6 16 17.5 42t23.5 46q14 23 29 41q12 16 26 33q14 18 32 35.5t36 32.5q18 14 45 30q25 14 43 25q20 12 43 20q20 10 41 17q23 8 49 14q23 6 53 10q35 4 60 4q23 -2 45 -6q20 -2 41 -6q25 -6 59.5 -18.5t52.5 -22.5 q14 -6 29 -14q23 -12 41 -27q14 -10 29 -20q12 -10 24 -19q25 -16 58 -57q27 -33 37 -47q12 -18 22 -39q10 -20 21 -51q8 -25 14 -41q6 -20 10 -41q6 -20 8 -41q4 -18 6 -35q4 -23 3 -53q0 -33 -5 -56q-4 -16 -6 -28q-4 -14 -8 -31q-4 -20 -10 -41q-6 -16 -17 -39 q-8 -25 -16 -39q-6 -16 -20 -41q-14 -27 -27 -47q-16 -23 -39 -45q-20 -23 -47 -41q-29 -20 -51 -33q-18 -8 -35 -16q-16 -6 -35 -12q-20 -6 -43 -11q-18 -4 -39 -6q-20 -2 -45 -2q-27 -2 -45 -2h-33h-43q-20 0 -49 2q-35 4 -59 11l-17 4q-31 10 -46 38.5t-7 58.5t37 46 t59 6l17 -4q8 -2 28 -4q27 -2 43 -2h33h37q16 0 39 2q20 0 37 2q12 0 24 2q10 2 23 6q12 4 23 8q12 6 28 15q10 4 27 16q16 12 28 25q12 12 19 22q10 14 20 35q12 23 19 33q4 12 12 31q8 18 12 32q4 12 7 25q4 14 6 26q4 14 6 31q2 8 2 25v28q-2 16 -6 33q-2 14 -6 29 q-2 14 -7 27q-6 18 -14 43l-12 30t-10 17q-8 12 -33 41q-14 20 -23 26q-16 12 -32 23q-12 12 -27 22q-8 6 -19 10q-14 8 -28 17q-10 6 -34 14t-38 10q-18 4 -35 7q-12 2 -26 4q-10 0 -31 -4q-25 -2 -43 -7q-14 -4 -29 -8q-16 -6 -32 -14q-14 -4 -27 -12q-16 -10 -41 -25 q-18 -10 -31 -18q-6 -6 -12 -13q29 2 59 -8l23 -6q2 -2 8 -4q18 -2 33 -12l14 -9q20 -14 41 -34q16 -16 29 -35q10 -12 20 -27q10 -16 21 -37q10 -20 18 -43q4 -18 6 -32q4 -16 6 -37q2 -18 0 -39q0 -27 -6 -51q-6 -27 -20 -54q-10 -18 -25 -37q-18 -29 -49 -47 q-25 -16 -53 -24q-23 -6 -49 -10q-25 -2 -47 -3q-25 0 -45 3q-23 2 -50 10t-51 22.5t-47 30.5q-25 20 -41 39q-16 20 -33 51q-12 23 -20 37q-10 20 -14 41q-6 25 -7 51zM258 293q2 -6 4 -10q6 -12 19 -35q8 -14 14 -23l16 -16q14 -10 27.5 -17.5t26.5 -11.5q10 -2 18 -4 h24.5t29 2t26.5 4q8 4 14 8q2 2 4 5q8 10 17 22l4 12q2 10 2 21v22q0 10 -2 17q-2 12 -6 24q-2 6 -7 13q-4 10 -10 20q-8 12 -16 23q-6 8 -17 18q-8 8 -14 12l-4 4q-6 0 -10 3l-23 6q-8 2 -12 2q-12 0 -27 -2q-16 -4 -32 -9q-4 0 -7 -4q-10 -6 -17 -13t-13 -17t-17 -31 q-8 -16 -10 -27q-2 -8 -2 -12v-6z" />
<glyph unicode="&#xe52;" horiz-adv-x="1409" d="M115 1075q-10 31 5 59.5t45 38t58.5 -5t38.5 -45.5l4 -12q4 -12 8 -27q8 -18 17 -45q10 -31 12 -55q4 -20 6 -41q2 -18 6 -39q6 -25 9 -59q4 -39 8 -60q4 -25 6 -49q2 -29 2 -59v-74q-2 -43 0 -71.5t6 -55.5q4 -33 8 -69q4 -35 6 -82t5 -78q2 -31 4 -60t6 -55 q4 -23 16 -55q8 -29 27 -53q10 -12 16 -21q12 -6 21.5 -10t23.5 -8q12 -4 39 -7q35 -4 55 -6q25 -2 50 -6q20 -2 42.5 -5t53.5 -7q29 -4 47 -4q23 -2 45 -2q23 0 47.5 1t44.5 1q18 0 47 2q27 2 41 6q14 2 29 6q12 4 29 12q12 6 24 21q16 16 25 33q10 18 14 28q2 6 6 23 q6 20 8 33q2 12 4 22q2 16 7 41q4 25 6 37q2 16 6 33q2 12 4 26t4 29q2 10 3 30.5t-1 33.5v34q-2 16 -4 29q-2 14 -4 31q-4 18 -6 37q-2 16 -6 34q-4 16 -11 35q-4 10 -10 17q-6 8 -22 20q-16 10 -29 16h-6q-14 -2 -27.5 -7t-21.5 -13q-4 -2 -6 -6q-8 -14 -15 -31 q0 -4 -2 -10t-9 -21.5t-19.5 -21.5t-33 -11t-46.5 9q-12 4 -22.5 11t-15.5 13.5t-8.5 13.5t-4.5 11t-1 9v5q-6 16 -10 27q-6 12 -16 25q-4 6 -6 8q-12 6 -31 16q-2 2 -4 2h-21q-10 0 -20 -2q-8 -2 -27 -8q-16 -4 -24 -10q-10 -6 -25 -21q-12 -10 -20 -24q-4 -6 -7 -13 q6 0 17 2q33 2 55 0l15 -2q12 0 22 -6q16 0 33 -6l12 -6q27 -12 49 -35q14 -14 29 -31q20 -25 33 -47q6 -16 14 -39q8 -29 10 -59q0 -25 -4 -55q-6 -31 -16 -54q-14 -31 -41 -57q-23 -23 -49 -37q-25 -12 -47 -18q-27 -8 -52 -6h-36q-29 2 -56 10q-25 8 -57 27 q-33 23 -53 49q-18 23 -33 51q-14 33 -19 74q-2 23 0 41v2l-2 16q-2 16 -4 29q-4 20 -2 45v30q2 16 4 31q2 18 7.5 40t15.5 46q10 25 24 51q20 37 50 66q27 25 51 39q25 14 57 26q33 10 51 13q16 2 37 4h39q33 -2 68 -21q23 -12 39 -22q20 -12 41 -35q25 16 53 29 q33 14 69 18q45 6 84 -10q27 -10 58 -33q33 -23 53 -47q23 -27 37 -64q10 -29 16 -55q4 -23 8 -45q2 -16 7 -33q2 -18 4 -34q4 -20 4 -43q2 -16 2 -35q2 -20 0 -49t-4 -48q-2 -14 -4 -26q-2 -16 -7 -33q-2 -14 -4 -29q-2 -14 -6 -38q-4 -23 -6 -35q-2 -16 -6 -33 q-2 -14 -8 -39q-6 -29 -15 -49q-8 -16 -22 -41q-16 -31 -45 -62q-31 -35 -68 -53q-31 -16 -55 -24q-23 -6 -45 -11q-23 -4 -57 -8q-33 -2 -56 -2t-47 -1t-49 -1q-27 0 -51 2q-25 0 -60 6q-33 2 -55 5t-45 8q-20 4 -41 4q-23 4 -57 6q-41 4 -68 12q-25 8 -45 16q-16 8 -33 17 q-29 16 -63 63q-31 43 -49 95q-16 45 -23 81l-8 66l-4 66q-2 31 -4 77q-2 45 -6 78q-2 31 -6 60q-6 33 -8.5 67.5t-0.5 83.5v76q0 20 -2 39q-2 20 -4 41q-4 27 -8 63q-2 31 -6 51q-6 25 -8 50q-2 18 -6 37q-2 12 -9 30q-6 25 -12 39q-6 16 -10 33zM600 338q2 -14 4 -23 q6 -12 14 -20q4 -6 15 -12q14 -10 20 -11q6 -4 19 -4h30h7q6 2 16 6q6 4 12 11q6 6 6 8q4 8 7 18q2 12 2 25q-2 8 -4 14q-4 14 -9 23q-2 4 -6 10q-12 12 -22 23q-2 4 -4 4l-11 6h-8l-14 2q-6 0 -25 -2q-6 0 -10 -2q-8 -4 -21 -15q-8 -6 -12 -14t-6 -16q-2 -12 0 -31z" />
<glyph unicode="&#xe53;" horiz-adv-x="1366" d="M102 429.5q0 23.5 2 45.5q4 23 9 45q2 20 8 45t14 53q10 31 21 52q12 25 28 45q16 23 54 53q35 31 61 47q23 14 45 25q29 14 55 20q29 8 56 6q25 -2 55 -10q37 -10 61 -27q18 -12 45 -38q33 -31 50 -64q10 -20 18 -37q10 14 21 31q12 18 33.5 38.5t52.5 41.5q35 23 86 33 q43 6 66.5 5t45.5 -8q16 -4 43 -14q37 -12 68 -35q31 -20 53 -49q20 -25 34.5 -46t23 -37.5t16.5 -35.5q10 -25 16 -57q2 -23 6 -39q2 -18 6 -37q4 -20 5 -43q2 -20 4 -47v-51q0 -25 -7 -47q-2 -18 -8 -43q-6 -23 -8 -37q-2 -16 -6 -35q-2 -14 -6 -33q-4 -23 -6 -36 q-4 -14 -9 -29q-2 -12 -6 -27q-4 -12 -8 -28q-4 -18 -9 -39t-11 -41q-6 -23 -15 -41l-6 -17q-10 -31 -39.5 -44t-59.5 -1.5t-43 41t-3 58.5l6 16q6 14 10 31q6 18 11.5 37.5t7.5 35.5q6 16 8 31q4 14 8 27q2 10 4 22q2 10 6 31q4 23 8 39q2 14 4 27q4 18 11 45q4 25 8 41 q2 10 2 22v37q-2 25 -2 45q-2 14 -4 29q-2 16 -6 32q-4 18 -9 43q-2 14 -4 21q-4 12 -10 22.5t-16 25.5t-25 34q-10 12 -22 22q-12 8 -27 13q-23 8 -35 12q-6 2 -14 2t-31 -4q-18 -4 -29 -10q-16 -10 -27 -20.5t-16 -18.5q-10 -12 -18 -27q-6 -12 -14 -26q-6 -12 -13 -39 q-10 -35 -16 -62q-6 -25 -12 -47q-6 -25 -8 -35q-4 -29 -80 -23.5t-76 38.5q0 8 -2 14q-2 12 -4 25q-2 14 -6 32q-4 14 -11 37q-8 25 -12 45q-6 18 -12 37q-2 14 -8 29q-2 10 -11 26q-6 10 -18 23q-18 16 -29 24q-4 2 -12 5q-14 4 -23 4q-4 0 -12 -2t-18 -7q-18 -10 -35 -20 q-16 -8 -43 -33q-25 -20 -31 -28t-10 -19q-6 -12 -12 -33q-8 -23 -13 -39q-4 -20 -8 -36q-2 -16 -4 -35q-2 -18 -2 -35q0 -16 2 -47q0 -29 4 -47q2 -12 4 -27q2 2 4 2q31 20 68 33q45 12 82 8l20 -4h11q8 -2 12 -2l12 -2q18 -4 41 -12q31 -12 53 -37q18 -16 35 -39t29 -43 t18 -43q6 -20 13 -43q6 -27 4 -51q0 -20 -4 -45q-6 -27 -17 -52q-12 -23 -35 -49q-20 -25 -47 -43t-51 -26q-25 -10 -59 -11h-39q-25 0 -47 6q-18 4 -45 15q-25 12 -45 20q-25 14 -48 33q-23 23 -40 51q-18 29 -29 60l-4 24l-4 8l-4 15q-8 20 -15 53q-6 29 -10 66 q-4 31 -8 59q-4 27 -8 49q-4 27 -7 66q-2 37 -2 60.5zM311 88q0 -8 3 -17.5t10 -17.5q6 -10 14 -18q8 -6 14 -10q14 -8 33 -15q16 -8 25 -10h10h33h12q4 2 12 8q10 8 21 19q8 10 10 14q2 6 4 14q2 12 2 19q0 4 -2 14q-2 14 -6 27q-2 8 -8 16q-6 10 -16.5 24.5t-18.5 24.5 l-4 2q-4 2 -10 2l-13 2q-2 0 -6 2h-8l-21 2q-4 2 -14 -2q-16 -4 -29 -12q-12 -8 -22 -20t-12 -19q-6 -10 -9 -22q-4 -14 -4 -27z" />
<glyph unicode="&#xe54;" horiz-adv-x="1513" d="M104 305q-2 39 2 94t13 90q6 31 16 64q10 37 25 70q16 33 39 63q23 31 67 72q41 39 76 63q35 25 70 43q39 20 74.5 32.5t86.5 21.5q47 8 84 8q43 2 80 -4t68 -17q25 -10 61 -26q35 -16 58 -25q18 -8 34 -12q25 -6 48 -13q10 -2 30 -4q12 0 19 2q14 4 24 11q12 6 27 18 q16 14 43 43q29 29 47 53q16 23 31 47q14 25 24 50l13 28q12 29 42.5 41t60.5 0t41 -43t-1 -59l-12 -29q-14 -33 -33 -65q-18 -35 -43 -66q-23 -29 -57 -65q-33 -35 -58 -56q-25 -18 -47 -33q-25 -14 -53 -22q-35 -12 -78 -10q-37 2 -65 10q-18 6 -39 10q-27 8 -56 19 q-27 10 -63 26q-33 16 -53 23q-16 6 -39 10q-20 4 -45 2q-29 0 -68 -6t-62.5 -14.5t-50.5 -22.5t-53 -33q-27 -20 -61 -51q-33 -29 -45 -47q-14 -18 -25 -39q-10 -23 -16 -47q-8 -31 -15 -55q-6 -23 -8 -66q-4 -45 -2 -76t6 -57q4 -23 13 -43q8 -23 20 -43q14 -23 41 -57 q25 -31 43 -45q23 -16 45 -31q20 -12 45 -21q27 -8 55 -14q27 -6 50 -6q23 -2 55 0q35 2 55 4q12 2 21 4q16 8 32 14q6 4 23 15q12 10 18 18q12 14 21 25q4 6 6 14q6 12 12 33q4 14 8 24q-10 10 -18 21q-35 39 -55 68q-23 31 -35 55l-8 18q-14 27 -4 58v26q2 31 16 66 q14 31 31 57q18 31 47 53q31 27 67 39q35 12 66 15q25 0 45 -2l14 -3q7 -2 13 -4q25 -4 49 -16q27 -12 51 -33q18 -16 35 -33q23 -20 37 -49q10 -18 18 -39q10 -31 10 -59q2 -23 -4 -49q-4 -27 -14 -51q-10 -31 -29 -52q-16 -23 -39 -38q-18 -12 -37.5 -23.5t-40.5 -17.5 q18 -16 39 -31q51 -41 115 -86l68 -47q27 -18 32 -51t-13.5 -58.5t-50.5 -31t-58 13.5l-66 47q-70 47 -123 90q-18 14 -35 29q-8 -23 -20 -41q-10 -14 -29 -37q-23 -25 -51 -45q-29 -20 -49 -29q-14 -6 -33 -14q-27 -12 -61 -17q-29 -4 -68 -6q-41 -2 -74 0t-71 10 q-37 6 -72 19q-39 14 -74 33q-33 18 -63 43q-33 27 -70 71q-33 41 -51.5 72t-32.5 68q-14 39 -20 77q-4 35 -9 72zM864 362q0 -6 2 -10l8 -8q12 -12 23 -18q8 -6 18 -11q14 -6 29 -10q12 -4 23 -6h12q8 0 18 2q6 2 11 4q12 6 20 14q6 4 12 11q2 4 7 12q4 10 6 20v21v6 q-6 12 -13 23q-2 4 -6 10q-12 10 -26 22q-10 8 -19 13l-12 6l-12 2h-4q-8 2 -21 2q-6 0 -18 -6q-10 -2 -19 -8q-10 -10 -16 -21q-10 -14 -17 -33q-6 -12 -6 -18v-19z" />
<glyph unicode="&#xe55;" horiz-adv-x="1609" d="M102 297q0 35 1 57.5t3 46.5q4 20 7 43q6 25 20 62q12 35 25 57q14 23 28 43q14 18 31 37q16 20 35 39q20 18 51 43q29 20 49 35q25 18 49 31q29 14 52 20q16 4 43 10q33 8 55 13q23 2 41 2q23 0 51 -2q14 -2 27 -3q-18 18 -29 31q-18 25 -29 47q-10 25 -14 62 q-4 41 8 76q10 33 35 65q25 31 51 51q25 20 47 31q23 10 45 16q27 8 56 7q25 -2 51 -7q25 -4 43 -10q25 -4 47 -16q25 -10 61 -39q41 -33 60 -68q16 -29 23.5 -49t9.5 -41q4 -20 4 -43.5t-9 -60.5q-2 -11 -8 -25q12 4 25 8q18 8 53 21q29 10 43 16q12 6 21 12q12 8 36 27 q27 20 43 33q10 8 19 16l14 15q20 23 53 22.5t55.5 -22t23.5 -54t-21 -55.5l-12 -14q-18 -18 -39 -35q-16 -10 -41 -29q-27 -20 -43 -31q-18 -14 -41 -24q-20 -10 -58 -25q-35 -12 -53 -18q-20 -8 -41 -14q-20 -6 -55 -15q-35 -6 -62 -8q-23 -2 -44 -1t-50 7h-8 q-20 -6 -39 -10q-18 -4 -37 -8q-18 -2 -39 -4q-23 -4 -51 -4q-33 0 -53 4q-12 2 -25 4q-12 2 -26 2q-18 2 -43 4q-18 2 -31 2q-12 0 -27 -2q-12 -2 -34 -6q-27 -8 -43 -13q-6 -2 -19 -8q-14 -6 -31 -18q-18 -14 -47 -33q-23 -18 -35 -29l-24 -28q-14 -16 -25 -31 q-8 -12 -16 -25l-19 -38q-8 -20 -10 -33q-2 -16 -4 -35q-4 -16 -4 -32.5v-45.5q2 -27 4 -41q4 -20 10 -41q4 -16 11 -35q6 -18 18 -47q12 -25 21 -35q8 -10 18 -20q12 -10 25 -18q16 -10 43 -25q27 -14 42 -20.5t29 -10.5q18 -4 35 -8q14 -4 29 -4q25 0 53 -4q20 -2 33 -2 q8 0 16 2q16 4 31 6q8 4 16 6q8 4 23 12q10 6 24 19q12 10 23 24q14 18 24 37q12 20 19 33l4 8q-25 25 -43 45q-31 39 -41 68l-6 14q-4 16 -4 31q-4 18 -6 41q-4 37 4 74q10 33 28 63q18 33 47 57q23 20 43 33q16 10 35 21q25 12 52 20q25 4 47 4q20 0 41 -6q23 -4 49 -18 l8 -4q14 -4 27 -11l12 -10q20 -12 39 -29q23 -20 39 -49t22 -63q4 -25 2 -64q0 -45 -14 -82q-14 -33 -33 -59q-18 -27 -41 -45q-29 -23 -59 -35q-4 -2 -8 -2q55 -45 127 -96l77 -53q27 -18 32 -51t-13.5 -59t-50 -31t-58.5 12l-78 55q-80 57 -141 108q-8 6 -16 13 q-4 -6 -8 -13q-14 -25 -33 -49q-20 -29 -45 -49q-25 -23 -47 -37q-23 -12 -43 -20q-18 -8 -39 -13q-18 -4 -31 -8q-25 -6 -51 -6q-23 -2 -56 2q-20 4 -38 4q-29 2 -56 8q-20 4 -43 11q-23 6 -46 15t-58 28q-35 18 -55 33q-23 14 -41 30q-23 20 -39 43q-18 23 -37 64 q-18 35 -27 61q-8 25 -14 49q-6 23 -10 45q-6 29 -9 68zM754 983q0 -8 2 -12t6 -13q8 -10 31 -30q20 -18 36 -29q23 -14 39 -25q12 -6 19 -10q12 -4 26 -8q3 0 5 -2q16 12 28 23q12 10 25 26q6 6 8 15q4 23 4 28.5v11.5q-2 10 -6 19q-2 8 -10 24q-6 8 -21 23q-20 14 -28 18 q-10 4 -19 7q-16 4 -39 8q-18 4 -29 4q-2 2 -6 0q-8 -2 -18 -6q-6 -4 -19 -15q-12 -8 -22 -22q-10 -12 -12 -21q-2 -4 0 -14zM862 352q2 -12 4 -20q4 -10 13 -23q4 -8 12 -14t20 -12q14 -4 24.5 -6.5t20.5 -2.5q14 0 27 2q10 2 21 5q4 2 10 8q10 6 18 18q6 10 12 25 q4 10 5 28q0 25 -2 37q0 4 -3 11q-4 6 -8 10q-10 8 -16 12l-2 2h-2q-10 4 -17 6l-18 11q-6 4 -10 4q-6 2 -10 2t-8.5 -1t-12.5 -5q-12 -6 -25 -15l-24 -18q-10 -10 -17 -21q-8 -12 -10 -24q-2 -8 -2 -19z" />
<glyph unicode="&#xe56;" horiz-adv-x="1150" d="M117 1090q-10 31 3 60.5t44 39.5t59.5 -3t40.5 -44l12 -33q12 -37 27 -88q16 -53 33 -141q4 -29 10 -52q2 2 8 5q23 8 62 19t64.5 14t47.5 3q23 0 56 -2q27 -4 47 -6q25 -2 47 -6q29 -6 61 -22q27 -12 43 -21q18 -10 37 -22q16 -10 41 -31q20 -18 37 -31q23 -16 39 -37 q12 -16 25 -33q10 -14 20 -30t23 -41q10 -23 18 -39q8 -18 14 -39q6 -18 15 -49q6 -31 8 -51.5t2 -42.5q0 -18 -2 -41q0 -23 -4 -52q-4 -25 -6 -45q-2 -18 -7 -39q-2 -20 -8 -38q-4 -23 -16 -54q-12 -33 -25 -53q-8 -14 -16 -31q-12 -23 -31.5 -47t-36 -40.5t-32.5 -30.5 q-20 -14 -39 -25q-20 -10 -41 -18q-16 -8 -43 -17q-33 -12 -55.5 -15t-47.5 -5q-23 0 -45 2q-20 2 -41 4q-18 2 -42.5 6t-39.5 8q-16 2 -37 8q-23 6 -43 19q-16 8 -32.5 17t-30.5 18q-20 12 -43 32q-18 16 -41 39q-27 27 -49 51q-27 33 -39 68q-10 27 -14 51q-4 20 -7 45 q-2 20 -2 43q-2 18 -2 33l-2 19q-2 20 6 38q0 14 5 31q2 20 10 39q8 25 33 62q29 43 55 59q18 12 37 22q20 10 41 19q18 6 39 12q27 6 55 6q27 0 51 -6q23 -4 49 -12q23 -2 39 -14l14 -9q20 -14 39 -34q16 -18 31 -37q12 -20 22.5 -40t16.5 -40t10 -45t6 -47q0 -27 -8 -60 q-6 -33 -14 -57q-10 -29 -25 -49q-14 -25 -37 -47q-20 -20 -41 -35q-29 -18 -63 -25q-23 -6 -47 -6l8 -4q8 -4 19 -6q12 -4 22 -6q12 -2 33.5 -6.5t38.5 -6.5q16 -2 32 -2q14 -2 31 -2q12 0 23 2q10 2 28 9q25 10 39 14q12 6 23 10q10 6 18 12q10 8 18.5 17.5t22 26 t19.5 28.5q10 16 18 33q6 10 14 31q8 20 11 32q4 16 7 31.5t5 32.5q2 16 4 43q4 25 4 43q2 16 2 33q0 14 -2 26q0 10 -4 31q-6 23 -10 35q-4 14 -10 24q-6 14 -15 33q-10 18 -16 29q-6 12 -14.5 23.5t-18.5 23.5l-14 14q-16 12 -39 31q-18 14 -31 23q-12 8 -22 14 q-14 8 -35 18q-16 6 -29 8q-14 4 -31 7q-18 2 -47 4q-23 2 -37 2t-30 -2q-14 -2 -43 -10.5t-43 -12.5q-16 -8 -29 -14q-6 -2 -12 -6q-14 -37 -49 -47q-31 -10 -59.5 5t-39.5 46l-12 41q-14 47 -31 137q-14 82 -28 127q-12 47 -25 78zM301 305q0 -10 2 -26q0 -10 4 -21 q6 -10 12 -18q6 -10 23 -25q16 -16 33 -29q10 -8 26 -14q14 -8 23 -10q14 -2 31 -2q14 0 24 2q6 2 8 2q8 6 19 16q10 10 14 19q6 8 10 20q6 14 11 35q4 16 4 25l-4 24t-4 23q-4 10 -9.5 20t-11.5 21l-16 20q-2 4 -6 6l-21 6q-18 8 -31 11q-10 2 -20 2q-8 0 -16 -2 q-14 -4 -27 -9q-10 -4 -19 -8q-12 -6 -22 -12q-6 -6 -14 -21q-12 -16 -17 -24q-2 -8 -4 -16.5t-2 -14.5z" />
<glyph unicode="&#xe57;" horiz-adv-x="1552" d="M102 432v39q0 23 4 53q2 35 9 60l8 32q4 25 14 46q8 20 25 49q16 29 36.5 51t46 42.5t52.5 33.5q27 14 63 22q37 10 64 10q31 0 61 -10q23 -6 45 -18q25 -14 50 -39q23 -23 43 -51q16 -23 24 -41q4 6 6 8q20 25 47 51q31 31 56 45q29 14 63 21q39 4 74 -5q23 -8 41 -14 q18 -8 47 -26q41 -27 61 -68q12 -23 19 -35q8 -16 16 -35q10 -23 15 -49q4 -20 10 -51q4 -31 6 -57q0 -20 2 -43q2 -27 4 -66q2 -41 0 -68q-2 -23 -4 -45q-2 -20 -6 -51q-2 -31 -6 -49q-2 -16 -4 -33q-2 -18 -7 -37q-2 -16 -8 -38q-4 -20 -8 -33v-4q14 12 23 20 q14 12 28.5 28.5t34.5 43.5q20 25 29 41q10 18 22 39q10 20 23.5 51t21.5 51l13 39q6 23 10 57q6 41 8 64q4 25 6 49q2 20 3 53t1 49q0 18 -2 39v45q0 18 -2 43q0 25 -2 41q0 18 -2 33q0 12 -2 29q0 18 -2 41q0 20 -2 39l-4 45q-4 31 16.5 56.5t52 28.5t57 -17.5t28.5 -53.5 l6 -45q0 -20 2 -45q2 -20 2 -39q2 -18 2 -33q0 -12 2 -28t2 -43q2 -29 2 -52v-39q2 -23 2 -41q0 -23 -1 -60.5t-5 -63.5q-2 -23 -4 -48q-4 -27 -8 -67q-6 -47 -15 -76q-8 -29 -18 -55q-10 -25 -25.5 -59.5t-27.5 -59.5q-12 -23 -25 -45q-14 -25 -39 -57q-25 -33 -43 -54 q-20 -20 -39 -36q-18 -20 -48 -42t-50 -34t-39 -21q-16 -8 -31 -14q-33 -16 -76 -16q-31 2 -69.5 39.5t-12.5 89.5q6 10 11 20q6 16 12 35q6 14 12 39q8 23 11 33q4 14 8 34t8 33q2 14 4 29q2 18 4 37q2 16 6 43q4 29 6 49q2 18 2 37q2 18 0 53q-2 37 -4 59q0 25 -2 45 t-6 45q-2 27 -6 43q-2 10 -6 19q-4 12 -10 22q-8 14 -21 37q-2 4 -6 8q-16 10 -25 15q-8 4 -22 8q-2 0 -8 -2q-8 0 -13 -2q-6 -4 -20 -19q-18 -20 -35 -38q-12 -16 -18 -29q-8 -12 -15 -29q-6 -20 -12 -43q-6 -27 -16 -69q0 -2 1 -6.5t0 -15.5t-4 -20.5t-9.5 -21.5 t-18.5 -17t-30.5 -8.5t-45.5 7.5q-35 8 -49 26.5t-12 30.5l2 14q-4 23 -6 43q-2 18 -6 39q-2 20 -7 41q-2 18 -10 43q-4 23 -8 33q-4 8 -14 23q-12 18 -27 30q-8 10 -14 13q-8 6 -19 8q-6 2 -10 2q-8 0 -27 -4q-23 -6 -35 -12.5t-25 -16.5t-23.5 -21.5t-18.5 -27.5 q-12 -20 -16 -31q-4 -8 -7 -20q-4 -16 -8 -37q-4 -12 -6 -33q-2 -27 -2 -43v-37q0 -16 2 -37q0 -20 2 -43q2 -18 4 -43q6 4 17 8q18 8 36 15q25 6 48 6h30l19 2q19 0 37 -8q8 -2 14 -4l14 -6q25 -8 49 -27q18 -12 35 -27q23 -20 39 -41q12 -18 23 -41q12 -23 18 -51 q6 -25 8 -47q2 -23 0 -49q-4 -23 -10 -49q-8 -27 -18 -47q-12 -25 -37 -49q-25 -27 -51 -41q-27 -12 -52 -19q-25 -6 -53 -6q-23 0 -41 2q-23 2 -51 8q-31 8 -57 23q-29 16 -56 41q-29 27 -45 53q-14 27 -20 57q-4 20 -6 39v4q-4 6 -4 13l-5 16q-6 18 -10 41q-6 23 -10 45 q-4 25 -6 49q-4 25 -8 60q-4 37 -7 61q-2 25 -2 47q-2 25 -2 45zM309 70q2 -12 6 -27q0 -6 2 -12q4 -6 15 -15q12 -12 22.5 -17t22.5 -9q16 -4 26 -4q14 -2 29 -2q12 0 19 2q6 2 12 6q6 2 14 10l10 12q2 6 7 19q4 12 4 24q2 10 0 19q0 8 -4 22q-2 12 -7 21q-4 10 -10 18 q-4 4 -12 13q-14 10 -27 20q-6 4 -10 6l-14 4q-2 2 -6 4l-7 -2h-34h-5q-6 -2 -10 -4l-8 -8q-12 -16 -20 -31q-6 -12 -11 -26q-4 -12 -4 -21v-22z" />
</font>
</defs>
</svg>
