<?xml version="1.0" standalone="no"?>
<!DOCTYPE svg PUBLIC "-//W3C//DTD SVG 1.1//EN" "http://www.w3.org/Graphics/SVG/1.1/DTD/svg11.dtd" >
<svg xmlns="http://www.w3.org/2000/svg" xmlns:xlink="http://www.w3.org/1999/xlink" version="1.1">
<metadata></metadata>
<defs>
<font id="nk_ssmart3regular" horiz-adv-x="0" >
<font-face units-per-em="2048" ascent="1638" descent="-410" />
<missing-glyph horiz-adv-x="651" />
<glyph unicode="&#xd;" horiz-adv-x="681" />
<glyph unicode=" "  horiz-adv-x="651" />
<glyph unicode="&#x09;" horiz-adv-x="651" />
<glyph unicode="&#xa0;" horiz-adv-x="651" />
<glyph unicode="!" horiz-adv-x="675" d="M162 1477q0 8 37 24l207 94q37 10 38 11q16 0 17 -45v-969q0 -111 -55 -156l-97 -76l-14 7v1024q0 92 -47 92q-20 0 -42 -10.5t-30 -10.5q-14 4 -14 15zM238 133q0 12 12 17l131 59q25 12 49 12q51 1 51 -67q0 -98 -67 -134l-103 -49q-6 -4 -11 -4t-11 -2q-8 0 -8 8v15 q14 39 14 61q0 72 -35 72h-10q-12 0 -12 12z" />
<glyph unicode="&#x22;" horiz-adv-x="798" d="M90 1495q0 23 21 27l161 65q49 16 39 17q33 0 33 -43q0 -23 -72 -256q-6 -20 -20 -64.5t-31 -116.5q-6 -25 -12 -24q-14 0 -14 14v14q4 10 4 46q0 111 -29 208q-25 100 -53 101l-6 -4h-7q-14 0 -14 16zM455 1495q0 23 20 27l160 65q41 16 41 17q33 0 33 -43 q0 -23 -74 -256q-8 -16 -19.5 -60.5t-29.5 -120.5q-6 -25 -15 -24q-16 0 -16 14v14q4 10 4 46q0 106 -27 210q-23 98 -55 99l-6 -4h-6q-10 6 -10 16z" />
<glyph unicode="#" horiz-adv-x="1335" d="M104 604q0 14 25 23l111 39q49 16 110 16h99l43 254h-314q-16 0 -16 10t26 19l111 43q49 16 107 16h102l63 389q10 55 23 86l53 90q16 16 23 17q20 0 20 -19v-8l-98 -555h254l67 389q10 53 27 86l51 90q16 16 23 17q16 0 16 -19v-8l-94 -555h293q20 0 20 -10 q0 -12 -32 -25l-105 -41q-29 -12 -111 -12h-77l-43 -254h293q16 0 16 -8q0 -14 -29 -25l-108 -39q-49 -16 -107 -16h-82l-71 -422q-8 -55 -23 -84l-57 -92q-10 -18 -21 -19q-16 0 -16 19q0 8 4 10l94 588h-250l-71 -422q-10 -57 -27 -84l-55 -92q-12 -18 -23 -19 q-14 0 -14 19q0 8 4 10l94 588h-309q-18 0 -19 10zM537 682h254l40 254h-249z" />
<glyph unicode="$" horiz-adv-x="1112" d="M82 1161q0 145 118.5 258t323.5 160v86q0 18 1 33.5t5 27.5l33 72q6 16 12 17q10 0 11 -21v-201q41 2 72.5 4t46.5 2q59 0 114 -8t97 -22.5t69 -33.5t27 -40q0 -12 -23 -27l-108 -67q-18 -6 -19 -6q-20 0 -20 16q0 6 4 10v6q0 33 -98 62q-61 20 -162 20v-628 q51 -23 103 -44.5t108 -45.5q227 -99 227 -330q0 -150 -122 -272.5t-331 -178.5v-86q0 -39 -8 -61l-31 -72q-2 -12 -8 -12q-14 0 -14 16v205q-39 -4 -63.5 -5t-32.5 -1q-66 0 -124.5 9t-104.5 24.5t-73.5 36t-27.5 42.5q0 16 20 31l117 74q18 6 19 6q16 0 16 -16q0 -6 -2 -8 v-9q-4 -2 -4 -6q0 -35 115 -72q68 -23 145 -22v659q-428 147 -428 418zM250 1241q0 -113 60.5 -186.5t213.5 -147.5v602q-49 -8 -87 -14t-62 -12q-125 -104 -125 -242zM571 82q109 6 160 18q115 115 115 271q0 205 -199 311q-10 4 -76 37v-637z" />
<glyph unicode="%" horiz-adv-x="1626" d="M76 1190q0 221 162 334q111 76 223 75q125 0 209 -97t84 -240q0 -225 -166 -338q-113 -76 -223 -76q-61 0 -115.5 26.5t-93.5 73.5t-59.5 108.5t-20.5 133.5zM225 1245q0 -137 73 -231t179 -94h31q94 114 94 282q0 137 -73.5 231.5t-184.5 94.5q-12 0 -22 -4 q-96 -100 -97 -279zM276 -33q6 6 13 21q6 8 14 23.5t19 33.5l808 1382q72 117 127 152q72 43 86 43q13 0 13 -10q0 -2 -6 -8l-21 -33l-842 -1438q-29 -51 -63.5 -86t-63 -54.5t-48 -25.5t-25.5 -6q-10 0 -11 6zM874 328q0 225 160 331q113 76 223 76q125 0 209 -98.5 t84 -239.5q0 -225 -161 -338q-111 -76 -228 -75q-121 0 -204 99t-83 245zM1020 381q0 -70 19.5 -128t54 -102.5t82 -70t98.5 -25.5q20 0 31 4q94 103 94 279q0 139 -74 232.5t-184 93.5h-19q-102 -111 -102 -283z" />
<glyph unicode="&#x26;" horiz-adv-x="1454" d="M154 399q0 211 178 387q39 33 143 134q-137 231 -137 370q0 133 117 221t247 88q88 0 155 -60t67 -140q0 -47 -14.5 -87t-47.5 -86t-87 -99.5t-132 -122.5l377 -605q8 -6 12 -14t12 -20l7 -21q80 143 79 277q0 137 -61 231t-149 94h-25q-14 0 -14 10q0 12 14 17l102 51 q55 16 86 16h357q14 0 14 -10q0 -12 -14 -16l-144 -49q-57 -18 -96 -19q-47 0 -97 5t-106 12q219 -59 220 -314q0 -174 -134 -346l39 -59q106 -162 174 -162q27 0 50 8q4 0 6 4h6q10 0 10 -12q0 -14 -18 -21l-138 -55q-49 -23 -98 -22q-55 0 -110 88l-58 90 q-231 -178 -422 -178q-80 0 -147.5 30.5t-117.5 88t-77.5 133t-27.5 163.5zM315 520q0 -94 26 -174t70 -138t106.5 -91t131.5 -33q125 0 275 121l-17 16q-4 6 -26 43l-351 565q-4 12 -20 33l-10 23q-8 -14 -39 -39q-145 -137 -146 -326zM494 1366q0 -94 94 -266 q14 -20 26 -60l17 13l28 30q125 96 125 250q0 201 -186 201q-33 0 -45 -2q-59 -82 -59 -166z" />
<glyph unicode="'" horiz-adv-x="438" d="M90 1495q0 23 21 27l161 65q49 16 39 17q33 0 33 -43q0 -23 -72 -256q-6 -20 -20 -64.5t-31 -116.5q-6 -25 -12 -24q-14 0 -14 14v14q4 10 4 46q0 111 -29 208q-25 100 -53 101l-6 -4h-7q-14 0 -14 16z" />
<glyph unicode="(" horiz-adv-x="747" d="M121 610q0 479 250 817q100 133 344 312q4 4 10 4q12 0 12 -14q0 -8 -22 -23q-434 -338 -434 -997q0 -303 102 -605q111 -305 266 -452q20 -18 21 -27q0 -12 -27 -22l-72 -29q-23 -12 -45 -12q-57 0 -188 217q-217 348 -217 831z" />
<glyph unicode=")" horiz-adv-x="747" d="M6 -426q0 4 21 23q434 332 434 997q0 313 -107 608q-100 299 -264 449q-14 27 -14 26q0 6 24 23l72 33q27 10 43 10q61 0 191 -219q219 -347 219 -834q0 -479 -250 -813q-53 -72 -137 -146.5t-199 -156.5q-10 -10 -19 -12q-14 0 -14 12z" />
<glyph unicode="*" horiz-adv-x="1056" d="M88 1257l2 15l55 16q39 12 56 12q16 0 71 -12l172 -37q10 -2 26.5 -7t27.5 -9q-10 37 -11 98v221q0 29 6.5 34t45.5 16l36 8h17q29 0 29 -25v-20l-3 -221q0 -49 -20 -113q27 18 111 55l254 107l6 -13l-29 -39q-31 -47 -111 -81l-165 -72q-6 -4 -17.5 -7t-36.5 -9 q8 -4 19.5 -12.5t17.5 -10.5q6 -6 16.5 -17.5t22.5 -27.5l195 -205q20 -23 20 -31t-16 -24l-45 -47q-14 -8 -21 -8q-12 0 -33 22l-176 201q-35 43 -61 92l-19 -43l-36 -68l-146 -247l-10 4l-19 100q-4 2 -4 18q0 25 39 82l107 162q10 16 20.5 29.5t22.5 25.5q-12 0 -39 4.5 t-62 10.5z" />
<glyph unicode="+" horiz-adv-x="1105" d="M49 588v121h443v442h118v-442h447v-121h-447v-445h-118v445h-443z" />
<glyph unicode="," horiz-adv-x="542" d="M127 106l137 138q125 -82 125 -199q0 -145 -190 -356l-27 8q84 115 84 227q0 104 -129 182z" />
<glyph unicode="-" horiz-adv-x="618" d="M59 520l97 123h403l-100 -123h-400z" />
<glyph unicode="." horiz-adv-x="542" d="M137 106q25 27 57.5 66t75.5 92q25 -27 60 -66t80 -92q-27 -23 -61 -59.5t-79 -89.5q-23 27 -55.5 64.5t-77.5 84.5z" />
<glyph unicode="/" horiz-adv-x="743" d="M10 -209l617 1770l108 49l-620 -1770z" />
<glyph unicode="0" horiz-adv-x="1105" d="M68 680q0 172 43 340q49 205 129 313q102 111 168.5 175.5t99.5 86.5q16 14 80 15q221 0 348 -221q111 -189 111 -443q0 -487 -199 -747q-123 -164 -213 -203q-43 -16 -111 -16q-236 0 -358 235q-98 184 -98 465zM215 836q0 -289 96 -492q125 -250 359 -233q61 6 129 73 q104 193 104 568q0 262 -94 467q-117 248 -338 247q-61 0 -117 -49q-139 -240 -139 -581z" />
<glyph unicode="1" horiz-adv-x="1105" d="M209 1180v88l477 364v-1478q0 -199 -336 -457l-24 10q182 182 182 371v1323z" />
<glyph unicode="2" horiz-adv-x="1105" d="M59 0q25 49 88.5 132t167.5 196q233 264 316 385q156 223 155 387q0 141 -77 243q-88 111 -234 111q-156 0 -305 -287l-70 13q55 143 199 286q150 150 254 150q160 0 293 -133q129 -131 129 -314q0 -178 -289 -534q-104 -115 -206.5 -231.5t-207.5 -231.5h553q55 0 94 33 t78 65h23l-141 -270h-820z" />
<glyph unicode="3" horiz-adv-x="1105" d="M-10 -254q283 115 518 326q283 260 283 487q0 377 -426 397l370 482h-469q-57 0 -116 -49l-68 -70h-23l166 274h727l-442 -573q104 0 192.5 -32t153 -87t100 -132t35.5 -171q0 -311 -344 -575q-293 -223 -651 -304z" />
<glyph unicode="4" horiz-adv-x="1105" d="M-27 348l889 1284v-1128h90q66 0 166 82h17l-170 -238h-103v-194q0 -199 -336 -457l-26 10q182 182 182 371v270h-709zM178 504h504v735z" />
<glyph unicode="5" horiz-adv-x="1105" d="M-33 -254q287 115 527 326q291 254 290 487q0 432 -528 432h-52.5t-58.5 -2v449l142 155h497q55 0 94.5 33t77.5 64h23l-143 -252h-537v-375q33 4 63.5 5t63.5 1q272 0 415.5 -127t143.5 -344q0 -305 -350 -575q-297 -223 -662 -304z" />
<glyph unicode="6" horiz-adv-x="1105" d="M76 565q0 238 227 586q84 137 183.5 259t211.5 235l27 -19q-121 -141 -254 -381q-61 -115 -100 -206t-62 -165q195 205 344 205q162 0 273 -166q104 -160 104 -342q0 -152 -168 -362q-182 -231 -338 -232q-164 0 -299 162q-150 180 -149 426zM264 631q0 -172 103 -344 q102 -170 221 -170q131 0 203 139q63 121 63 252q0 139 -68 268q-77 158 -200 158q-141 0 -291 -150q-31 -63 -31 -153z" />
<glyph unicode="7" horiz-adv-x="1105" d="M84 1300l141 293h799q-498 -967 -459 -1431l-205 -201q16 137 62.5 314.5t120.5 404.5q166 473 338 758h-586q-102 0 -189 -138h-22z" />
<glyph unicode="8" horiz-adv-x="1105" d="M88 422q0 264 318 377q-272 119 -273 340q0 156 160 315q162 162 299 162t256 -117q121 -117 121 -250q0 -238 -316 -358q361 -121 361 -404q0 -139 -189 -327q-176 -180 -260 -180q-182 0 -325 126q-152 133 -152 316zM266 453q0 -125 115 -222q113 -94 246 -94 q39 0 77.5 20.5t71.5 56.5t52.5 83t19.5 96q0 150 -133 254q-35 27 -95.5 57.5t-148.5 65.5q-33 -16 -64.5 -45t-64.5 -76q-76 -102 -76 -196zM270 1262q0 -123 92.5 -216.5t229.5 -132.5q201 105 201 277q0 104 -97 194q-94 94 -192 95q-90 0 -166 -84q-68 -72 -68 -133z " />
<glyph unicode="9" horiz-adv-x="1105" d="M72 1036q0 147 176 363q174 217 332 217q162 0 299 -162q149 -180 149 -426q0 -238 -225 -586q-178 -276 -400 -493l-26 18q123 143 254 381q61 113 100 204t62 167q-195 -205 -344 -205q-160 0 -273 176q-104 162 -104 346zM248 1102q0 -139 67 -277q84 -166 201 -166 q141 0 291 150q33 61 33 154q0 172 -105 344q-100 170 -221 170q-125 0 -203 -131q-63 -113 -63 -244z" />
<glyph unicode=":" horiz-adv-x="542" d="M137 106q25 27 57.5 66t75.5 92q25 -27 60 -66t80 -92q-27 -23 -61 -59.5t-79 -89.5q-23 27 -55.5 64.5t-77.5 84.5zM137 891q25 27 57.5 65.5t75.5 90.5q25 -27 60 -66t80 -90q-27 -23 -61 -60.5t-79 -89.5q-23 27 -55.5 64t-77.5 86z" />
<glyph unicode=";" horiz-adv-x="542" d="M127 106l137 138q125 -82 125 -199q0 -145 -190 -356l-27 8q84 115 84 227q0 104 -129 182zM129 891q27 27 59.5 65.5t75.5 90.5q25 -27 59.5 -66t79.5 -90q-27 -23 -60.5 -60.5t-78.5 -89.5q-25 27 -56.5 64t-78.5 86z" />
<glyph unicode="&#x3c;" horiz-adv-x="1105" d="M94 588v121l930 438v-133l-770 -361l770 -366v-133z" />
<glyph unicode="=" horiz-adv-x="1105" d="M49 410v120h1008v-120h-1008zM49 768v119h1008v-119h-1008z" />
<glyph unicode="&#x3e;" horiz-adv-x="1105" d="M94 154v133l780 362l-780 365v133l930 -438v-121z" />
<glyph unicode="?" horiz-adv-x="819" d="M55 1319l150 174q88 41 192 41q145 0 245.5 -89t100.5 -245q0 -172 -168 -375q-170 -199 -169 -317q0 -47 10 -86l-168 -72q-4 10 -4 47q0 106 159 324q160 219 160 362q0 135 -76.5 225.5t-197.5 90.5q-129 0 -230 -86zM227 88q49 45 133 133q14 -16 48.5 -49t89.5 -84 q-45 -43 -80 -73.5t-58 -57.5q-23 27 -55.5 57.5t-77.5 73.5z" />
<glyph unicode="@" horiz-adv-x="1886" d="M143 641q0 473 310 754q246 227 669 227q152 0 274 -37t210 -105.5t135 -165.5t47 -214q0 -358 -469 -629q-150 -88 -205 -88q-47 0 -47 53q0 57 23 162q-23 -27 -44.5 -50.5t-44.5 -39.5q-154 -125 -276 -125q-195 0 -195 244q0 268 189 446q172 162 354 162 q41 0 101 -16l10 49h139l-90 -654q-4 -10 -4 -32q0 -35 33 -35q74 0 184 90q203 162 203 403q0 254 -155 387.5t-419 133.5q-332 0 -551 -195q-244 -219 -243 -623q0 -272 100 -471q123 -240 418 -239q231 0 534 112l13 -51q-326 -133 -603 -133q-301 0 -450.5 183.5 t-149.5 496.5zM680 680q0 -205 143 -205q117 0 269 162l69 485q-76 41 -243 41q-238 -156 -238 -483z" />
<glyph unicode="A" horiz-adv-x="2320" d="M-4 260q0 117 53 232q45 102 78 102q2 0 10 -14q2 -14 -31 -95q-30 -78 -30 -133q0 -170 252 -237q104 -27 188 -27q303 0 569 266q45 45 130 152.5t215 284.5q127 174 243 393q125 229 166 372q-82 2 -158 2q-716 0 -907 -137q-76 -55 -76 -164q0 -150 154 -409 q23 -33 22 -49l-4 -2q-39 0 -180 194q-153 216 -153 334q0 219 360 281q145 26 499 27q13 0 27 -1q641 0 668 -37q6 -6 6 -110q0 -266 -39 -1043q-2 -85 -2 -140.5t2 -80.5q10 -82 49 -82q45 0 168 125q29 29 43 29q10 0 11 -12q-1 -16 -15 -41q-18 -31 -45.5 -67t-64.5 -73 q-100 -100 -168 -104h-14q-92 0 -121 74q-25 64 -25 216q0 39 2 85l16 372l-393 -22q-96 -184 -311 -399q-419 -419 -756 -419q-29 0 -57 3q-381 43 -381 354zM1554 807l349 -21l34 664q-43 -84 -88 -169t-96 -169q-37 -55 -86 -133t-113 -172z" />
<glyph unicode="B" horiz-adv-x="1871" d="M-94 1257q0 193 227 293q162 76 416 88q174 11 205 11h4q45 -4 91 -5.5t91 -5.5q117 -12 219.5 -30.5t190.5 -44.5q246 -74 317 -185q55 -84 55 -172q0 -98 -61 -188q-23 -33 -53.5 -63.5t-67.5 -63.5q-16 -12 -27.5 -22.5t-17.5 -16.5q-10 -10 -16 -12q27 -14 49 -27.5 t49 -28.5q111 -80 199 -258q24 -55 24 -106q0 -166 -213 -303q-180 -117 -309 -117h-543q-170 0 -170 4l209 68q39 12 74 88q40 89 40 217q0 22 -1 45q-6 121 -9.5 239.5t-7.5 239.5q-12 256 -55 307q-1 1 -1 3q0 18 73 67q86 57 121 57q20 0 22 -12q39 -121 39 -438 q0 -459 -49 -613q-23 -72 -64 -112q-10 -6 -35.5 -24.5t-68.5 -47.5h403q389 0 390 221q0 74 -39 166q-55 135 -176 227q-25 23 -54.5 42.5t-56.5 41.5l65 56q43 33 72 62.5t53 53.5q68 86 68 177q0 55 -23 104q-154 344 -751 356q-25 1 -50 1q-266 0 -444 -80 q-254 -109 -254 -340v-7q0 -125 154 -346q-33 25 -62.5 49.5t-62.5 51.5q-143 143 -166 239q-12 43 -12 94z" />
<glyph unicode="C" horiz-adv-x="1351" d="M-35 715q0 82 8 164q37 307 211 520q166 190 408 250q55 12 145 12q252 0 402 -90q47 -31 47 -133q0 -94 -39 -232q-2 -23 -19 -22q-20 0 -20 33q0 145 -45 182q-115 86 -189 112q-106 43 -305 43q-399 0 -399 -636q0 -330 111 -551q145 -289 438 -289q160 0 272 72 q76 43 148 133q57 72 69 71q11 1 21 -26q4 -9 4 -20q0 -70 -158 -193q-190 -160 -383 -160q-272 0 -467 145q-260 203 -260 615z" />
<glyph unicode="D" horiz-adv-x="2048" d="M-76 1317q0 344 680 344q-18 0 46.5 -1t217.5 -5q614 -12 838 -205q180 -149 225 -559q10 -78 11 -150q0 -342 -187 -536q-188 -205 -549 -205h-618q-33 0 4 12q27 10 55.5 20.5t57.5 18.5q47 16 78.5 32.5t56.5 33.5q35 27 54 63.5t29.5 83.5t13.5 98.5t5 98.5 q10 103 13 213q2 66 2 137q0 47 -1 96l-26 308q0 24 59 79q63 57 101 58q25 0 34 -25q33 -98 33 -299q0 -76 -9 -211t-26 -332q-14 -166 -63 -245q-14 -23 -30.5 -43.5t-33.5 -42.5l418 -27q21 -1 40 -1q339 0 339 445q0 47 -4 97.5t-10 105.5q-51 465 -215 625 q-172 164 -645 205q-43 2 -82 4t-78 2q-682 0 -682 -427v-20q2 -135 123 -278l176 -205q2 -4 2 -10q0 -5 -4 -5q-25 0 -195 177q-199 209 -237 358q-16 72 -17 117z" />
<glyph unicode="E" horiz-adv-x="1134" d="M-29 879v46q0 300 74 457q49 102 105 123q88 43 149 66q127 51 201 61q210 27 210 29h-1q82 0 188 -45q45 -20 45 -143q0 -66 -16 -146q-10 -58 -16 -58q-2 0 -3 3q-4 23 -7 43t-9 43q-16 66 -68 104q-94 66 -276 66q-127 0 -221 -29q-86 -23 -131 -297 q-27 -173 -26 -234q0 -32 7 -32h670q8 0 24.5 10t33 21.5t30.5 20.5t22 9q16 0 19 -28q1 -6 1 -13q0 -38 -31 -78q-36 -46 -91 -47h-678q12 -217 57 -372q106 -361 355 -361h14q166 2 283 101q68 57 123 176q43 90 51 90q16 0 16 -33q0 -100 -133 -260q-158 -188 -371 -199 h-19q-211 0 -364 170q-215 244 -217 736z" />
<glyph unicode="F" horiz-adv-x="1839" d="M66 -160q0 104 67 219q66 96 92 97q2 0 2 -6q0 -10 -10 -29q-61 -121 -61 -187q0 -127 211 -200q160 -55 309 -56q225 0 368 105q168 119 173 356l6 686h-267q-39 0 -86 -41q-45 -41 -45 -29q0 15 66 93q72 82 100 82h250v389q0 -6 7 26.5t57 84.5q57 59 79 63h-436 q-489 0 -573 -94q-31 -33 -31 -76q0 -59 53 -143q33 -55 50.5 -88t21.5 -45q-14 6 -23.5 9t-23.5 7q-61 68 -117 166q-67 121 -67 199q0 123 116 184q85 50 196 50q12 0 25 -1q39 -2 95 -6q88 -4 276 -21q205 -12 352.5 -18t239.5 -6q45 0 76 1t47 5q68 12 123 98 q31 45 31 0q-33 -152 -99 -190q-61 -31 -248 -31h-45l-6 -563h217q27 0 70 28q41 33 45 33t4 -6q0 -16 -72 -88t-94 -72h-176l-4 -497q-6 -317 -293 -561q-279 -231 -600 -232q-211 0 -358 117q-90 72 -90 188z" />
<glyph unicode="G" horiz-adv-x="1413" d="M111 -365q0 172 129 420q110 206 144 206q6 0 9 -5q1 -1 1 -3q0 -22 -79 -171q-98 -193 -98 -299q0 -137 137 -189q139 -55 256 -55q98 0 179 34t140.5 95.5t91.5 144.5t32 181l6 780q-12 -27 -94 -117q-96 -102 -174 -157q-180 -119 -304 -119q-82 0 -145 55 q-102 90 -102 467q0 299 63 404q201 342 662 342q55 0 110 -5.5t119 -11.5q41 -4 41 -100q0 -72 -23 -134q-21 -59 -48 -59h-3q-8 0 -8 11q0 2 7 28.5t7 42.5q0 88 -155 107q-49 6 -93.5 9t-82.5 3q-254 0 -361 -123q-69 -77 -69 -400v-9q0 -414 108 -492q34 -24 77 -24h3 q121 0 297 178q45 45 87 94t85 94q94 55 178 55l10 -763v-10q0 -217 -243 -472q-263 -278 -553 -278h-2q-131 0 -252 63q-90 49 -90 182z" />
<glyph unicode="H" horiz-adv-x="2469" d="M193 1391q-3 18 -3 36q0 138 164 199q118 42 326 42q27 0 55 -1q344 -6 538.5 -17.5t242.5 -23.5q4 -88 4 -174.5t-4 -171.5q-6 -90 -13.5 -181t-13.5 -186h416l6 627q33 23 65.5 49.5t67.5 55.5l1 1q15 0 19 -593q4 -156 4 -275v-196v-160q6 -217 13 -252q16 -70 71 -70 q23 0 66 11q106 27 158 114q53 90 59 90q23 1 23 -32q0 -74 -111 -185q-123 -119 -270 -133q-14 -1 -26 -1q-112 0 -142 79q-17 59 -17 246v59l11 504l-443 -43l-102 -399q-6 -27 -23.5 -66t-50.5 -94q-94 -162 -201 -221q-176 -96 -436 -97q-203 0 -336 84q-12 4 -12 23 q0 20 13.5 42.5t33 42t42 34t42.5 14.5q14 0 19 -10q143 -156 325 -156q61 0 129 27q164 72 219 262q16 37 28.5 74t27.5 73q29 94 53 186.5t41 186.5q35 215 56.5 399.5t27.5 348.5q-23 14 -187 14q-500 0 -637 -55q-188 -78 -188 -254q0 -106 72 -248l78 -156q4 -10 4 -22 q0 -9 -5 -9q-14 0 -67 68q-68 88 -139 223q-78 154 -94 267z" />
<glyph unicode="I" horiz-adv-x="1677" d="M59 156q0 121 84 264q74 123 105 123q2 0 2 -4q0 -12 -12 -35q-16 -33 -35 -65.5t-33 -67.5q-34 -69 -34 -111q0 -8 1 -16q8 -74 195 -123q182 -45 389 -45q303 0 403 86q143 125 144 592q0 78 -5.5 166t-11.5 188q-6 86 -9 128t-3 44q0 121 57 180q23 29 72 68h-373 q-459 0 -518 -105q-18 -39 -18 -84q0 -49 26 -133q12 -33 23.5 -62.5t23.5 -60.5q-12 6 -22 9.5t-23 9.5q-61 68 -116 166q-66 123 -66 198q0 113 117 166q76 34 180 34q16 0 33 -1q4 2 26 2q77 0 373 -22q207 -16 316.5 -24.5t115.5 -8.5q17 0 17 -25q0 -14 -29 -141 q-27 -129 -27 -227q0 -78 11 -230q6 -76 9 -133t3 -92q0 -410 -172 -563q-156 -129 -399 -213q-229 -78 -443 -78q-248 0 -332 106q-45 61 -45 140z" />
<glyph unicode="J" horiz-adv-x="1599" d="M315 193q276 334 887 675q-2 16 -4 71.5t-2 152.5q0 227 29 280q10 18 28.5 40t35 41.5t28.5 32.5t12 15q0 14 -51 15q-76 0 -201 3t-301 9h-20q-80 0 -185 -27q-135 -35 -161 -94q-12 -25 -13 -64q0 -82 64 -229q10 -23 10 -39q0 -8 -6 -8q-10 0 -35 29 q-49 66 -78.5 109.5t-42.5 66.5q-61 108 -61 200q0 17 2 33q20 166 313 166q68 0 158 -10q2 1 9 1q40 0 239 -20q154 -16 260 -26t172 -17q16 0 16 -32q0 16 -9 -44.5t-26 -199.5q-6 -41 -6 -107v-35q2 -91 8 -225h1q5 0 59 35q16 12 35 6q14 -2 14 -22q0 -19 -25 -33 q-31 -18 -77 -47v-43t4 -66q4 -74 5 -139t1 -123q0 -379 -55 -583q-66 -229 -328 -402q-266 -176 -510 -176q-307 0 -410 195q-32 53 -32 128q0 208 249 507zM309 -201q0 -147 83 -231t229 -84q121 0 270 63q143 63 237 303q80 216 84 488q4 158 4 263q0 168 -10 202 q-82 -43 -156.5 -85t-142.5 -87q-322 -217 -460 -432t-138 -400z" />
<glyph unicode="K" horiz-adv-x="2209" d="M-51 1391q2 209 321 276q18 4 49 5t78 1q51 0 148.5 -3t245.5 -9q162 -10 280.5 -14.5t192.5 -8.5q20 0 20 -100q0 -88 -13.5 -232.5t-37.5 -349.5l235 117q143 74 236 223q88 145 88 274v17q0 2 80 25q78 23 88 33q-6 -23 -9 -42.5t-9 -41.5q-47 -127 -103 -228 q-84 -150 -168 -211q-61 -43 -155 -88q-33 -16 -66 -30.5t-68 -30.5l426 -686q102 -211 189 -211q80 0 135 84q55 88 59 88q13 0 17 -10q2 -3 2 -9q0 -31 -78 -129q-104 -133 -201 -135q-7 -1 -13 -1q-75 0 -140 85q-12 12 -42 58.5t-81 125.5l-432 676l-33 -493 q-20 -283 -193 -400q-150 -100 -434 -100q-215 0 -352 88q-12 2 -12 23q0 35 45 79q49 49 82 50q12 0 18 -6q143 -156 358 -156q72 0 140 26q133 57 153 318l95 1200q-29 20 -182 20q-43 0 -95 -2q-254 0 -416 -28q-313 -59 -313 -273q0 -104 76 -243q23 -37 45 -74t45 -74 q23 -33 22 -45q0 -4 -2 -4q-39 0 -176 205q-145 218 -145 355v16z" />
<glyph unicode="L" horiz-adv-x="1820" d="M76 -27q0 16 8 43q37 84 180 134q93 34 196 34q26 0 54 -2q35 27 61 51q72 72 107 181q38 106 38 282q0 77 -7 168q-13 160 -13 272q0 121 15 187q27 106 254 215q231 106 430 107q243 0 243 -178q0 -38 -10 -76q-49 -205 -123 -205q-27 0 -26 31q0 12 35 73 q38 58 38 103q0 63 -71 96q-135 59 -295 59q-303 0 -309 -205l10 -518q-6 -432 -76 -499q-39 -45 -78 -72q-61 -45 -129 -78q92 6 183 6q172 0 339 -22q76 -14 156 -18.5t164 -4.5q123 0 205 64q55 47 84 118q29 70 33 70l12 -41q2 -10 2 -20q0 -70 -80 -189 q-90 -133 -166 -159q-100 -29 -205 -29q-86 0 -354 55q-129 27 -250 41q-106 12 -203 12h-28q-51 -25 -168 -118q-59 -57 -137 -58q-119 0 -119 90z" />
<glyph unicode="M" horiz-adv-x="2926" d="M43 244q0 131 74 272q61 131 100 131q10 0 10 -12q0 -8 -57 -121q-55 -117 -55 -188q0 -160 217 -211q137 -37 243 -37q322 0 453 303l488 1141q6 27 -4.5 58.5t-34.5 35.5q-33 2 -69 4t-79 2q-350 0 -633 -74q-235 -63 -235 -185q0 -62 59 -161q10 -18 12 -22l-2 -2 q-16 0 -98 118q-84 133 -84 205q0 92 123 117q45 8 94 14t94 13q96 22 751 22h58q125 0 166 -41q63 -59 64 -209l190 -1030l455 1102q-1 4 -1 9q0 28 40 85q43 66 99 66h9q18 -4 23 -115q4 -33 4 -63.5v-63.5q0 -61 6 -208.5t19 -391.5q33 -596 71 -619q39 -16 70 -16 q117 0 168 217q10 37 28 37q27 0 27 -32q0 -12 -4 -29q-29 -117 -123 -248q-104 -143 -194 -144q-55 0 -95 54q-59 72 -67 268l-60 1051l-532 -1356q0 -1 -1 -1q-6 0 -46 156q-12 47 -21.5 92.5t-23.5 90.5l-199 1063l-493 -1151q-72 -164 -219.5 -252t-327.5 -88 q-23 0 -45.5 1t-44.5 5q-367 49 -367 338z" />
<glyph unicode="N" horiz-adv-x="2236" d="M-49 1300q20 156 178 228q96 49 336 94q139 27 303 27q295 0 451 -88q121 -61 282 -367l453 -834l26 967q2 213 174 260q92 23 148 23q39 0 39 -15q0 -32 -137 -61q-123 -25 -129 -221l-39 -1241l-64 -92l-645 1183l-108 -774q-41 -305 -185 -379q-170 -86 -385 -86 q-188 0 -330 88q-14 10 -14 27q0 20 13.5 40.5t33 39t41 31t37.5 12.5q12 0 23 -8q150 -150 321 -150q129 0 223 102q88 102 103 232l125 1005q-106 117 -119 130q-98 84 -225 98q-78 8 -150 8q-328 0 -547 -188q-102 -86 -102 -213q0 -104 78 -248q25 -39 48 -78l46 -78 q6 -20 6 -22q0 -8 -5 -8q-16 0 -83 81q-90 111 -152 232q-72 127 -72 211q0 17 3 32z" />
<glyph unicode="O" horiz-adv-x="1521" d="M143 1405q190 240 553 240q356 0 566 -267q176 -227 176 -547v-28q-25 -830 -744 -830h-2q-289 6 -497 232q-228 253 -228 621q0 354 176 579zM176 825v-30q0 -318 123 -523q143 -246 410 -252h12q491 0 520 783q1 31 1 62q0 316 -152 517q-150 207 -385 207 q-516 0 -529 -764z" />
<glyph unicode="P" horiz-adv-x="1996" d="M-39 1278q0 364 1008 364h6h4q528 0 758 -251q129 -139 129 -347q0 -242 -189 -323q-156 -63 -321 -64q-115 0 -170 19q6 -22 6 -66v-24q-2 -62 -8 -166q-14 -203 -43 -242q-66 -94 -193 -158q-197 -102 -350 -102q-178 0 -332 111q-10 6 -10 22t12.5 35.5t29.5 38 t36.5 32t32.5 13.5q10 0 16 -8q131 -150 342 -150q74 0 133 23q115 47 137 158q23 84 25 421q3 41 3 87q0 23 -1 48q-2 74 -4 158q-4 94 -4 152.5v75.5q0 188 45 243q80 94 131 123v3q-1 0 -10 -87q-6 -45 -6 -92t4 -92q8 -170 8 -485q70 -33 170 -33q366 0 366 303 q0 57 -12 100q-59 238 -293 367q-193 104 -393 104q-403 0 -598 -61q-299 -95 -299 -348v-17q6 -135 106 -254q43 -45 82 -87t82 -87q2 -4 2 -10q0 -3 -3 -3q-14 0 -93 58q-111 88 -192 185q-117 135 -140 235q-10 39 -10 78z" />
<glyph unicode="Q" horiz-adv-x="1560" d="M143 1405q190 240 553 240q360 0 559 -254q179 -223 179 -551v-11q-4 -608 -332 -770q130 -430 332 -430h4q31 0 74.5 36t58.5 69q18 45 39 45q12 0 12 -19q0 -16 -4 -26q-29 -94 -117 -164q-72 -64 -152 -64h-14q-244 12 -395 494q-66 -12 -116 -19.5t-89 -7.5 q-322 6 -536 222q-232 241 -232 631q0 354 176 579zM176 825q-2 -34 -2 -67q0 -310 137 -510q160 -225 418 -228h20q104 0 152 39q-98 348 -191 348q-6 0 -12 -1q-16 -2 -28.5 -4.5t-26.5 -2.5q-33 0 -33 11q0 39 187 61q7 1 13 1q131 0 237 -306q68 68 114 168 q84 197 88 502v8q0 304 -159 524q-164 221 -385 221q-496 0 -529 -764z" />
<glyph unicode="R" horiz-adv-x="2048" d="M-115 1290q0 360 807 361q55 0 113.5 -1t124.5 -5q170 -6 281.5 -17.5t170.5 -28.5q223 -59 328 -241q84 -150 84 -262q0 -78 -32.5 -163t-135.5 -149q-102 -63 -225 -63q66 -80 127 -162t127 -162q233 -299 305 -325q98 -33 98 -62q0 -14 -49 -14q-166 0 -209 24 q-94 45 -344 377q-227 305 -233 346q19 -1 38 -1q120 0 218 44q172 76 172 248q0 16 -1 33.5t-5 34.5q-41 264 -244 391q-156 101 -381 101q-22 0 -45 -1q-223 -6 -380 -25.5t-247 -45.5q-297 -90 -297 -320v-12q4 -160 111 -287q39 -41 79 -84t78 -84q2 -4 3 -10 q0 -44 -20 -44q-46 0 -198 232q-219 336 -219 377zM182 49q0 16 13.5 36.5t29 39t37 32t33.5 13.5q10 0 16 -8q131 -150 342 -150q76 0 133 23q92 33 121 182q6 27 14.5 124t20.5 267v393v69q0 259 14 273l73 73t79 77q0 16 -1 -23.5t-5 -134.5q-1 -78 -1 -134.5t1 -92.5 q10 -129 10 -266q0 -467 -76 -625q-80 -166 -149 -197q-201 -102 -361 -102q-182 0 -333 111q-10 6 -11 20z" />
<glyph unicode="S" horiz-adv-x="1351" d="M20 383q-2 16 -2 32q0 79 41 167q39 94 91 137q33 33 51 33q8 0 8 -9q0 -23 -33 -57q-61 -72 -61 -160q0 -172 211 -315q207 -139 489 -139q176 0 297 78q57 35 57 122q0 121 -106 271q-106 154 -264 233q-465 242 -465 486q0 356 379 387q117 10 194 10q246 0 246 -121 q0 -23 -8 -82q-6 -35 -8 -59.5t-7 -40.5q-2 -82 -22 -82q-18 0 -18 94q0 61 -82 121q-93 65 -211 65h-4q-260 0 -308 -71q-36 -54 -36 -114q0 -169 233 -302q309 -170 440 -291q189 -180 189 -385q0 -210 -211 -325q-177 -99 -413 -99h-23q-260 10 -433 109 q-193 113 -211 307z" />
<glyph unicode="T" horiz-adv-x="1456" d="M-88 1473q28 186 284 186h19q283 -14 501 -19.5t376 -5.5q193 0 243 11q47 6 86 69q29 45 29 0q-29 -125 -84 -160q-33 -20 -172 -32q-81 -7 -122 -7q-28 0 -38 3q0 20 -8 -35.5t-25 -188.5q-16 -131 -24 -249.5t-8 -221.5q0 -70 3 -129t9 -114q31 -225 39 -261 q39 -147 131 -147q23 0 33 4q90 18 159 127q53 87 71 87q2 0 3 -1q10 -2 10 -12q0 -27 -139 -199q-159 -198 -273 -198h-1q-152 0 -217 370q-23 125 -23 264q0 184 49 422q18 94 38 187.5t42 187.5q4 33 43 72q12 6 23.5 16t25.5 19h-628q-233 0 -308 -113q-16 -27 -16 -66 q0 -78 94 -237q96 -156 96 -172q0 -10 -6 -10q-39 0 -184 231q-132 220 -132 308q0 7 1 14z" />
<glyph unicode="U" horiz-adv-x="2351" d="M-90 1339q29 201 321 277q117 29 400 29q426 0 510 -41q-12 -174 -28.5 -407.5t-43.5 -539.5q-10 -92 -10 -180q0 -412 191 -411h14q248 12 450 383l58 1095q33 18 68.5 40t74.5 48q1 1 2 1q16 0 16 -203q0 -211 -18 -639q-4 -94 -7 -168t-5 -123q-4 -57 -5 -94v-24 q0 -259 84 -259q6 0 18.5 2t27.5 4q104 27 186 147q88 123 98 123q23 1 23 -28q0 -78 -144 -228q-160 -166 -305 -178q-7 -1 -14 -1q-109 0 -135 153q-7 33 -9 73q0 14 -1 29q0 30 2 64q8 -12 -150 -144q-180 -152 -317 -155h-24q-375 0 -376 501v61t2 79q49 829 105 929 q-23 12 -129 13q-365 0 -512 -51q-324 -109 -324 -316q0 -133 184 -354q37 -37 5 -37q-10 0 -27 16q-259 275 -259 472q0 22 3 42z" />
<glyph unicode="V" horiz-adv-x="1820" d="M-76 1479q0 180 340 188q103 3 190 3q368 0 476 -54q-123 -203 -123 -725q0 -55 1 -113.5t5 -120.5q27 -542 268 -542h4q238 6 369 544q29 125 39 254q2 43 2 72q0 49 -6 59q-49 109 -78 285q-17 105 -17 158q0 29 5 41q6 33 61 84q61 55 101 55q27 0 38 -29 q11 -27 11 -281v-44q-4 -74 -4 -129.5t-2 -91.5q-4 -41 -5 -74q6 -10 24.5 -40t49.5 -81q47 -66 47 -84q0 -6 -10 -14q-3 -1 -6 -1q-27 0 -66 44q-43 53 -51 53q-4 0 -4 -4q-27 -156 -106 -475q-37 -104 -76 -177t-74 -118q-121 -141 -323 -141q-205 0 -312 231 q-74 166 -88 414q-2 31 -2 64q0 91 12 196q16 143 52 317q66 303 108 354q-18 5 -105 5q-105 0 -311 -7q-299 -10 -299 -225q0 -117 86 -293q27 -41 49.5 -84t45.5 -88q8 -25 -2 -24q-29 0 -138 194q-106 199 -159 357q-16 55 -17 88z" />
<glyph unicode="W" horiz-adv-x="2766" d="M-106 1268q0 88 34 170q104 213 492 213q190 0 360 -64q182 -76 267 -203q195 -299 493 -1065l248 533l-121 299q-55 139 -55 244q0 123 71.5 188.5t182.5 65.5q98 0 149 -54q57 -55 57 -141q0 -13 -1 -27q-16 -139 -78 -319q-51 -160 -66 -160q-8 -8 322 -731 q133 176 186 518q34 195 34 277q0 37 -7 51q-25 51 -45.5 111.5t-40.5 132.5q-35 154 -35 209q0 18 6 24q51 43 109 87q45 35 81 35q10 0 19 -3q24 -10 24 -188v-15q0 -111 -8 -293q0 -39 -2 -67.5t-2 -48.5q0 -23 -4 -39q72 -121 72 -185q0 -14 -6 -14q-29 0 -68 61l-29 50 q0 -104 -41 -285q-14 -92 -35.5 -162t-43.5 -115q-33 -72 -83.5 -170t-119.5 -221l-379 803l-365 -803q-4 45 -34.5 141.5t-85.5 245.5q-61 166 -122 310.5t-124 271.5q-186 369 -342 520q-150 150 -348 150q-88 0 -179 -23q-221 -55 -221 -344q0 -70 14.5 -140.5t39 -134 t58.5 -114.5t73 -80q65 -48 65 -65q0 -2 -4 -3q-12 0 -84 46q-45 33 -91 82t-87 118q-100 164 -100 320zM1745 1446q0 -106 65 -266q59 -135 72 -136q10 0 55 123q45 145 45 240q0 70 -32 131q-46 74 -97 74q-53 0 -81 -62q-27 -51 -27 -104z" />
<glyph unicode="X" horiz-adv-x="2445" d="M88 -178q0 16 1 32.5t5 30.5q51 204 307 204q21 0 43 -1q87 3 245.5 3t389.5 -3l459 719l-399 565q-20 27 -46 61.5t-63 82.5q-71 77 -227 77h-4q-23 0 -63 -5t-60 -5q-27 0 -27 10q0 23 150 45q70 12 120 17.5t85 5.5q164 0 274 -166l356 -530l271 489q53 84 53 123 q0 6 1 9t-8 8t-33 10.5t-71 7.5q-92 6 -98 20q0 21 178 21q53 0 121 -2q35 8 35 -29q0 -27 -31 -88l-49 -90l-305 -559l434 -668q27 -41 57.5 -73.5t67.5 -59.5q29 -23 125 -39q88 -12 88 -25q0 -8 -16 -16q-19 -8 -142 -8h-54q-71 0 -83 4q-78 0 -123 45q-55 61 -92 111 l-373 569l-352 -637h164q18 0 106 33q27 8 62 55q37 45 43 45q8 0 8 -20q0 -18 -12.5 -43t-32 -49.5t-46 -45t-48.5 -30.5q-68 -33 -90 -33h-199q0 -55 -154 -225q-201 -219 -467 -275q-53 -10 -104 -10q-82 0 -151.5 27.5t-120 72.5t-78 105.5t-27.5 126.5zM150 -184 q0 -86 75 -144q85 -69 230 -69h4h3q282 0 562 397h-635q-113 0 -176 -55.5t-63 -128.5z" />
<glyph unicode="Y" horiz-adv-x="1611" d="M-133 1538q0 39 231 84q102 23 185 23q111 0 172 -62q16 -12 127 -166q55 -74 162.5 -286.5t273.5 -565.5l88 232q33 82 63.5 162.5t63.5 162.5q87 247 87 332q0 15 -3 25q-23 84 -127 108q-27 6 -75 11q-25 3 -56 3q-29 0 -62 -2q-63 0 -63 17q0 18 70 29q55 6 101 10 t85 4q272 0 272 -111q0 -25 -24 -102q-16 -45 -31.5 -84t-22.5 -68q-33 -121 -110.5 -340t-204.5 -544q-129 -332 -192.5 -498t-67.5 -172q-2 -10 -2 -27q0 -35 20.5 -68.5t55.5 -60t80 -44t94 -17.5q250 0 366 383q59 195 60 354q0 133 -39 234q-14 33 -31.5 62.5 t-40.5 61.5q-33 39 -26 46q5 3 10 3q44 0 129 -159q98 -183 108 -320q3 -34 3 -67q0 -287 -197 -475q-193 -182 -447 -183q-176 0 -272 101q-76 82 -76 196q0 106 53 207l244 482l-512 925q-102 193 -291 193q-78 0 -135 -21.5t-63 -21.5q-33 0 -33 14z" />
<glyph unicode="Z" horiz-adv-x="1767" d="M100 -137q0 78 84 209q88 127 426 143q125 80 248 272q27 43 67 116t95 177q-81 3 -136.5 3t-84.5 -3q-41 -4 -80 -49q-37 -41 -49 -35q-4 2 -4 9q0 33 53 94q54 65 79 65h1h114.5t159.5 -2q27 55 64 136t88 188q53 111 114 323l-682 15h-11q-120 0 -122 -86 q-4 -80 -14 -80q-25 0 -25 160q0 150 54 165q76 16 120 17q55 0 212 -11.5t409 -33.5q25 -4 51.5 -2t63.5 6q43 2 60.5 4t12.5 2q-31 -150 -155 -479q-29 -57 -70 -137t-92 -185q61 0 107.5 -1t76.5 -5q4 0 64 39q49 35 67 35q4 0 7 -2q2 -1 2 -4q0 -16 -64 -80 q-72 -70 -100 -70q-27 4 -77 4h-122l-160 -303q-72 -135 -227 -262q57 2 110 2q169 0 300 -24q104 -16 180 -32t129 -24q57 -14 104 -20q14 6 26.5 13t24.5 13q59 35 83 81t55 59q29 16 28 -19q0 -16 -16 -59q-43 -94 -121 -172q-74 -82 -133 -92q-11 -2 -29 -2 q-71 0 -243 38q-123 29 -205 45.5t-127 20.5q-60 4 -133 4q-133 0 -309 -14q-241 -199 -323 -199h-5q-20 4 -21 29z" />
<glyph unicode="[" horiz-adv-x="593" d="M156 -332v2116h338l-45 -64h-154v-1984h199l-45 -68h-293z" />
<glyph unicode="\" horiz-adv-x="743" d="M12 1610l109 -49l616 -1770l-102 49z" />
<glyph unicode="]" horiz-adv-x="593" d="M100 -332l45 66h154v1982h-199l45 68h293v-2116h-338z" />
<glyph unicode="^" horiz-adv-x="1185" d="M123 989l452 705h17l467 -705h-172l-332 504l-328 -504h-104z" />
<glyph unicode="_" horiz-adv-x="1138" d="M-66 -315l99 120h1169l-96 -120h-1172z" />
<glyph unicode="`" horiz-adv-x="1079" d="M328 1632q0 16 22 19l148 49q6 4 9 4t9 2q16 0 16 -16v-9q-12 -27 -12 -71q0 -117 162 -260q16 -17 16 -21q0 -16 -18 -16q-45 0 -199 137q-154 143 -153 182z" />
<glyph unicode="a" horiz-adv-x="995" d="M6 387q0 217 78 387q86 190 225 223q57 14 106.5 22.5t88.5 10.5q93 7 149 7q65 0 82 -9q-4 -182 -7 -364.5t-7 -370.5q0 -37 4 -76t33 -41q5 -1 11 -1q50 0 105 52q27 29 52.5 58.5t52.5 56.5q12 12 29 12q29 0 28 -28q0 -15 -12 -27q-45 -45 -89 -92t-89 -92 q-150 -141 -244 -142q-53 0 -53 164q0 152 10 174q-154 -305 -283 -338q-33 -6 -51 -6q-104 0 -164 127q-55 117 -55 293zM182 393q0 -270 101 -270q23 0 49 16q156 94 217 291q6 0 20 262q8 177 8 238q0 31 -2 33q-66 25 -144 25q-26 0 -54 -3q-82 -4 -139 -209 q-55 -190 -56 -383z" />
<glyph unicode="b" horiz-adv-x="829" d="M-309 1792q0 23 28 41q4 4 45 34.5t115 92.5q115 88 182 108q4 1 8 1q64 0 64 -261v-465q0 -115 -2 -202.5t-2 -145.5v-114q126 159 322 159h2h3q125 0 185 -77q51 -66 51 -254q0 -283 -82 -422q-188 -326 -395 -326q-37 0 -78 16q-182 74 -186 455q13 817 13 1170 q0 261 -7 268q-12 6 -23 6q-49 0 -172 -92q-27 -18 -45 -19q-27 0 -26 27zM121 383q0 -334 139 -354q27 -2 55.5 17.5t58 53t54.5 79.5t37 93q45 176 45 369q0 145 -29 256q-12 61 -98 61q-88 0 -168 -63q-88 -72 -88 -176v-69t-4 -101q-2 -55 -2 -97v-69z" />
<glyph unicode="c" horiz-adv-x="731" d="M-59 504q0 154 36 295q45 174 377 237q33 8 60.5 11.5t50.5 3.5q95 0 95 -65q0 -6 -1 -13q-6 -37 -16.5 -82t-16.5 -100q-2 -53 -18 -54q-20 0 -10 49q2 9 2 18q0 42 -39 75q-41 39 -129 39q-121 0 -127 -5q-29 -6 -62 -59q-37 -51 -37 -233q0 -199 50 -345 q61 -178 182 -200q12 -2 25 -2q75 0 169 82q43 43 85 81.5t85 81.5q23 23 50 23q18 0 18 -16t-27 -43q-39 -43 -77.5 -85t-79.5 -83q-154 -135 -316 -142h-4q-167 0 -254 166q-71 139 -71 359v6z" />
<glyph unicode="d" horiz-adv-x="962" d="M-29 397q0 227 80 402q88 197 230 209l235 22l-6 817q0 31 -25 31q-41 0 -114 -55q-76 -55 -99 -56q-29 0 -28 25q0 23 22 35q16 12 62.5 47t120.5 96q104 84 161 98q4 1 8 1q46 0 56 -136q2 -31 4 -69q1 -12 1 -25q0 -27 -3 -57l-6 -1250v-62q0 -265 32 -288 q12 -6 19 -6q20 0 48 14.5t55.5 36t52 47t36.5 48.5q20 33 50 32q27 0 26 -26q0 -25 -37 -56q-68 -84 -139 -157q-111 -119 -242 -142q-5 -1 -10 -1q-57 0 -57 176v6q0 141 6 155q-25 -45 -52.5 -91t-54.5 -91q-111 -156 -202 -156q-111 0 -174 127q-55 119 -56 299z M150 420q0 -291 98 -291q16 0 35 10q94 53 170 176q52 91 52 112q0 3 -1 5q6 224 11 356q3 73 3 119q0 37 -2 56q-57 28 -115 28q-56 0 -114 -26q-55 -25 -99 -201q-38 -162 -38 -335v-9z" />
<glyph unicode="e" horiz-adv-x="839" d="M-35 377q0 215 66.5 373.5t201.5 218.5q137 61 316 61q27 0 37 -2q100 -31 100 -119q0 -113 -170 -282q-152 -152 -373 -228q16 -299 205 -299q12 0 25.5 2t29.5 4q68 16 185 82q61 37 105 68t77 55q37 31 59 31q18 0 19 -20q0 -29 -35 -56q-53 -41 -101 -82t-102 -84 q-168 -121 -315 -127h-12q-318 0 -318 404zM139 471q94 20 297 160q117 84 117 178q-1 32 -21 55q-41 59 -184 60q-61 0 -100 -21q-63 -29 -92 -194q-12 -67 -16 -125q-2 -37 -2 -73q0 -20 1 -40z" />
<glyph unicode="f" horiz-adv-x="802" d="M-244 -666q0 6 6 7q-2 0 13.5 -3.5t42 -5.5t57.5 -5t57 -3q123 0 170.5 47t59.5 125q4 16 4 57v103l-6 1401h-176l4 67h172l12 590q6 258 123 338q205 135 340 135q90 0 139 -61q33 -43 41 -107q3 -21 3 -35q0 -25 -9 -26l-80 61q-86 63 -190 64q-51 0 -95 -12 q-113 -35 -116 -349l-2 -598h217l-4 -67h-217l10 -1399q0 -213 -78 -283q-82 -72 -182 -112q-114 -50 -198 -50q-15 0 -28 1q-23 6 -55 51q-35 53 -35 69z" />
<glyph unicode="g" horiz-adv-x="878" d="M10 354q0 215 68 394q72 199 192 247q94 35 267 45q27 1 52 1q95 0 154 -21q-6 -295 -9 -591t-9 -601q-4 -319 -20 -352q-41 -123 -140 -230q-106 -117 -227 -147q-33 -8 -66 -8q-166 0 -166 211q0 133 87 311q35 72 73.5 143.5t75.5 145.5q12 33 35 32q16 0 16 -16 t-10 -29q-23 -35 -50.5 -92t-62.5 -139q-88 -198 -88 -288v-11q0 -57 60.5 -100t140.5 -43q53 0 94 20q88 33 88 279v401q-2 100 -2 197.5v195.5q-16 -37 -43.5 -76.5t-70.5 -89.5q-123 -156 -222 -172q-13 -2 -25 -2q-88 0 -141 103q-51 100 -51 282zM178 432 q0 -306 91 -306q9 0 18 3q102 37 239 213q29 0 45 307q12 211 12 280q0 33 -3 34q-59 27 -142 28q-78 0 -135 -26q-53 -23 -88 -195q-16 -80 -26.5 -163t-10.5 -175z" />
<glyph unicode="h" horiz-adv-x="1046" d="M-209 1798q0 23 37 49q39 31 78 64t78 69q92 78 143 80h5q57 0 73 -84v-153q6 -16 6 -207q0 -115 -2 -293q0 -115 -2 -201t-2 -141v-113q55 57 153 111q117 55 211 55q68 0 121 -33q74 -45 74 -233v2q-1 0 -5 -73q-5 -83 -18 -261q-4 -47 -7 -90t-5 -90v-20q0 -80 29 -80 q104 0 221 155q25 37 55 37q25 0 25 -22q0 -23 -29 -50q-45 -43 -87 -84.5t-89 -85.5q-135 -127 -227 -129h-3q-77 0 -77 189q0 45 4 114.5t18 163.5q12 94 17.5 165t5.5 116q0 184 -76 215q-29 8 -61 8q-84 0 -166 -61q-84 -57 -84 -84q-10 -168 -10 -465q4 -129 4 -195.5 t2 -74.5l-174 -74l16 1800q0 94 -31 94q-8 0 -141 -94q-31 -18 -53 -18q-29 0 -27 22z" />
<glyph unicode="i" horiz-adv-x="569" d="M-133 831q4 14 27 27q45 29 92 58.5t92 56.5q113 67 159 67h1q51 0 55 -88v-63.5t-4 -63.5l-13 -577q0 -72 46 -72q88 0 202 143q29 35 51 35q23 0 23 -22q0 -27 -33 -56q-35 -39 -73.5 -77.5l-75.5 -75.5q-127 -119 -191 -135q-16 -3 -30 -3q-50 0 -78 38q-24 37 -24 98 q0 9 1 18l21 686q6 20 6 33q0 33 -39 33q-55 0 -170 -62q-18 -10 -33 -10q-12 0 -12 12zM27 1489q0 61 45 102t106 41q55 0 93 -39t38 -88v-9q0 -98 -133 -124q-18 -4 -34 -4q-44 0 -74 28q-42 38 -41 93z" />
<glyph unicode="j" horiz-adv-x="649" d="M20 846q-14 12 13 33q88 74 237 188q45 25 80 25q70 0 82 -107v-111l-29 -1046q-4 -53 -7 -98t-9 -88q-23 -195 -78 -269q-72 -102 -159 -137q-23 -10 -44 -10q-25 0 -24 14q0 23 41 35q78 29 92 336l45 1218q4 16 5 27.5t1 17.5q0 51 -41 52q-49 0 -164 -74 q-29 -20 -41 -6zM156 1489q0 61 46 102t107 41q55 0 92 -39t37 -88v-9q0 -98 -133 -124q-18 -4 -34 -4q-43 0 -73 28q-42 38 -42 93z" />
<glyph unicode="k" horiz-adv-x="1073" d="M-201 1794q0 39 23 53q2 0 158 125q111 92 163 92q66 0 66 -225q1 -1 1 -121t-1 -360v-471q29 33 69.5 62.5t86 50t94.5 34t94 13.5q111 0 162 -72q37 -51 37 -105q0 -96 -103 -196q-78 -88 -164 -127q14 -31 41 -76t62 -111q143 -215 211 -215q20 0 41 11 q106 59 184 155q23 31 45 33q20 0 21 -18q-1 -20 -21 -45q-23 -27 -61.5 -68t-94.5 -96q-123 -113 -170 -129q-25 -8 -38 -8q-51 0 -117 86l-273 442q84 25 166 96q104 94 105 189q0 59 -43 114.5t-99 55.5q-47 0 -113.5 -49.5t-125.5 -98.5l-6 -743l-172 -82l18 1814 q0 84 -33 84q-16 0 -127 -80q-44 -32 -66 -32h-1q-18 0 -19 18z" />
<glyph unicode="l" horiz-adv-x="503" d="M-209 1798q0 23 37 49q43 31 82 64t80 69q94 80 137 80q6 1 11 1q56 0 67 -79v1q-4 0 -4 -144l-2 -1403v-133t-4 -16q4 -111 38 -111q100 0 203 135q25 37 56 37q25 0 24 -22q0 -23 -29 -50l-81.5 -81.5t-77.5 -79.5q-117 -121 -201 -125h-7q-93 0 -93 254q0 27 1 58.5 t1 63t2 54t2 29.5l10 1345q0 94 -31 94q-8 0 -141 -94q-31 -18 -53 -18q-29 0 -27 22z" />
<glyph unicode="m" horiz-adv-x="1593" d="M-156 848q0 27 97 94q43 27 81.5 51.5t75.5 40.5q39 16 56 17q55 0 55 -93q0 -35 -10 -84q160 170 321 170q178 0 215 -174q29 37 64 66q96 72 235 92q16 2 49 2q133 0 181 -110q21 -48 21 -140q0 -19 -1 -39l-22 -426q-4 -27 -4.5 -54.5t-2.5 -51.5q-1 -8 0 -15 q0 -49 23 -55h5q70 0 271 170q25 18 39 19q10 0 11 -9q0 -14 -27 -47q-276 -299 -409 -299h-7q-47 6 -65 82q-13 51 -13 92v15l25 543q1 22 1 41q0 197 -91 200h-18q-136 0 -207 -84q-51 -53 -52 -108q-10 -393 -10 -682l-168 -84l6 721q0 139 -14 182q-23 72 -86 72 q-158 0 -264 -156q-4 -104 -5 -288.5t-7 -446.5l-166 -78l12 837q0 66 -23 66q-10 0 -27.5 -9t-39 -21.5t-43 -21.5t-33.5 -9q-29 0 -29 12z" />
<glyph unicode="n" horiz-adv-x="1130" d="M-68 854q0 14 25 31q39 25 107.5 68.5t162.5 99.5q20 6 48 -23t28 -106v-28.5t-4 -31.5q232 180 366 180h9q113 -4 145 -88q17 -43 18 -136q0 -14 -1 -29l-17 -482q-1 -19 -1 -36q0 -114 24 -117q5 -1 10 -1q51 0 117 54q27 25 51 48.5t49 47.5q37 29 55 29q16 0 17 -15 q0 -25 -35 -53l-176 -176q-119 -119 -186 -119q-8 0 -15 2q-63 10 -76 103q-4 23 -4 43t-2 43l19 624q1 17 1 33q0 80 -18 101q-17 31 -57 31q-28 0 -68 -15q-121 -45 -225 -121q0 -51 -3 -234.5t-9 -502.5l-170 -90l20 780q1 16 1 29q0 98 -38 98q6 0 -100 -49 q-30 -14 -47 -14q-21 0 -21 22z" />
<glyph unicode="o" horiz-adv-x="796" d="M-4 543q0 250 63 325q119 160 322 160q63 0 106 -24q68 -35 127 -201q61 -162 62 -344q0 -199 -84 -320q-16 -23 -44 -45t-67 -45q-115 -66 -241 -69h-7q-114 0 -178 186q-59 156 -59 377zM129 647q0 -186 53 -360q55 -176 123 -211q33 -17 62 -17q70 0 110 103 q37 108 37 231q0 186 -45 361q-49 186 -125 215q-12 5 -31 5t-43 -5q-45 -10 -59 -23q-82 -82 -82 -299z" />
<glyph unicode="p" horiz-adv-x="989" d="M-133 784q0 14 18 29q104 90 308 227q39 18 57 19q45 0 45 -113v-40.5t-2 -51.5q49 49 100 82q123 88 234 98q24 2 45 2q74 0 104 -28q39 -35 64 -144q14 -74 22 -156.5t8 -168.5v-11q0 -133 -24 -247q-37 -135 -82 -187q-55 -55 -195 -82q-85 -14 -158 -14t-135 14v-710 q0 -53 74 -54q25 0 55.5 8.5t59.5 18.5t55.5 18.5t38.5 8.5q39 0 33 -17q0 -16 -55 -45q-137 -70 -322 -127q-9 -3 -18 -3q-39 0 -60 61q-14 43 -14 116l16 1428q0 111 3 111q1 0 1 -1q-4 39 -26 39q-33 0 -195 -104q-12 -6 -22 -6q-33 0 -33 30zM295 129q86 -61 215 -61 q76 0 108 22q75 54 75 381q0 39 -1 82q-2 90 -6 153.5t-10 100.5q-18 139 -78 141q-15 2 -29 2q-151 0 -274 -192q5 -132 5 -289t-5 -340z" />
<glyph unicode="q" horiz-adv-x="819" d="M-35 416q0 541 283 592q55 12 124.5 17t151.5 5q18 0 54 -1t88 -5q4 0 4 -393q-6 -283 -11 -729q-2 -211 -2 -310v-93v1q0 -43 3.5 -96t9.5 -123q4 -33 55 -33q66 0 137 50q16 10 29 10q27 0 27 -23t-33 -43q-232 -133 -319 -133h-7q-51 4 -61 193q-4 49 -4 97v101 q0 821 6 822q-18 -51 -113 -172q-115 -139 -182 -166q-29 -12 -62 -13q-49 0 -82.5 34t-55 94.5t-31 141.5t-9.5 175zM143 430q0 -307 88 -307q16 0 41 16q197 143 220 299l12 518q-12 33 -123 33q-86 0 -131 -31q-41 -29 -78 -194q-29 -160 -29 -334z" />
<glyph unicode="r" horiz-adv-x="731" d="M-72 897q23 33 95 88q82 61 114 62q39 1 71 -49q30 -47 30 -133v-11q27 33 50 57.5t50 46.5q123 111 225 115q-8 -53 -12 -104t-12 -105q-45 6 -84 6q-68 0 -117 -18q-104 -39 -105 -131v-655l-178 -72l13 876q0 49 -29 50l-94 -41q-43 -10 -17 18z" />
<glyph unicode="s" horiz-adv-x="747" d="M33 176q0 23 22 105q10 45 29 45q10 0 10 -31q0 -8 -2 -21.5t-4 -29.5q-3 -11 -3 -20q0 -98 263 -113q61 -4 91 -5.5t22 -1.5q63 0 104 39q20 16 21 39q0 66 -281 267q-80 55 -139.5 108t-99.5 107q-23 27 -23 77q0 84 61 177q61 90 152 110q87 20 157 20q77 0 134 -24 q12 -5 12 -61q0 -51 -10 -144q-2 -51 -17 -51q-12 0 -12 51t-45 72q-41 22 -171 22h-11q-137 0 -150 -43q-4 -6 -4 -18q0 -92 172 -195q326 -196 353 -358q2 -12 2 -25q0 -87 -74 -174q-94 -104 -227 -106h-47q-186 0 -240 29q-47 31 -47 119q0 16 2 34z" />
<glyph unicode="t" horiz-adv-x="509" d="M-123 963l2 65h170l10 543l166 151l-8 -694h172l-2 -65h-170v-431v-242.5t-2 3.5q2 -128 47 -128q4 0 8 1q72 12 205 153q29 31 55 31q12 0 13 -12q0 -18 -33 -51q-39 -47 -78 -90t-78 -91q-116 -116 -187 -116h-1q-123 0 -123 136v17q0 41 8 338l4 482h-178z" />
<glyph unicode="u" horiz-adv-x="1056" d="M-123 852q0 23 39 45q35 27 101.5 69t160.5 101q16 8 31 8q29 0 29 -78v-82t-5 -84q3 -63 3 -148q0 -42 -1 -90q-2 -144 -8 -339q0 -170 78 -170q66 0 180 61q117 66 117 115l12 559q0 68 -59 68q-29 0 -65.5 -17.5t-51.5 -17.5q-16 0 -16 10q0 8 27 35q55 55 210 162 q39 16 60 16q57 0 57 -119v-31.5t-2 -39.5q-4 -31 -4 -50.5v-27.5l-12 -496q-1 -16 -1 -30q0 -131 49 -131h1q12 0 35 12q45 23 94 71l72 72q27 20 43 21q18 0 18 -21q0 -19 -29 -39q-39 -41 -77.5 -81t-77.5 -81q-125 -125 -205 -131h-7q-49 0 -69 82q-2 16 -4 38t-2 46 q-35 -23 -97.5 -51.5t-146.5 -67.5q-91 -32 -155 -32h-4q-140 0 -140 224v9l17 565v19q0 82 -33 82q-23 0 -94 -41q-23 -14 -43 -15q-25 0 -25 21z" />
<glyph unicode="v" horiz-adv-x="903" d="M-150 1001q0 23 250 33h25q129 0 129 -19l-78 -511q0 -104 20.5 -176t73.5 -129q61 -72 146 -72q23 0 37 2q72 14 129 219q45 176 45 289q0 29 -2 33q-154 201 -154 260q0 12 6 18q94 127 209 127q10 0 19.5 -1t19.5 -11t14 -32.5t4 -67.5q0 -37 -4 -88.5t-10 -116.5 q-4 -33 -7 -55.5t-7 -38.5q-2 -20 -2 -33q29 -51 71 -92q31 -31 31 -35q-6 -6 -16 -10q-4 -1 -7 -1q-39 0 -90 78h-1q-6 0 -58 -184q-104 -393 -272 -397h-11q-165 0 -272 180q-65 109 -65 290v5q0 293 114 455q1 1 1 2q0 12 -89 12q-92 0 -131 -16q-12 -4 -24 -56 q-16 -49 -21 -49q-10 0 -23 188z" />
<glyph unicode="w" horiz-adv-x="1468" d="M-121 864q0 37 197 148q51 28 68 28h1q55 0 115 -110q63 -121 71 -121h1q113 133 262 225q16 10 31 10q61 0 112 -141q16 -35 32.5 -90t39.5 -127q76 98 121 150q98 106 194 168q54 36 91 36h2q93 0 126 -272q18 -170 19 -291q0 -172 -39 -250q-43 -90 -127 -166 q-100 -94 -199 -94h-12q-123 10 -256 475q-27 -37 -69 -111.5t-97 -187.5q-88 -182 -114 -182q-35 0 -50 43q-16 74 -25 115t-14 47q-16 59 -28.5 113.5t-28.5 107.5q-72 254 -143.5 387t-108.5 133q-8 0 -26.5 -10t-39 -19.5t-42 -19.5t-33.5 -10q-31 0 -31 16zM350 737 q72 -150 127 -348q38 -133 43 -133q2 0 185 264q1 -3 2 -3q3 0 -80 241q-51 155 -72 155q-78 0 -205 -176zM836 608q23 -66 44 -130t44 -130q94 -260 151 -276q10 -4 25 -4h1q60 0 89 120q6 33 11 91.5t5 150.5q0 94 -3 175t-13 142.5t-26.5 97.5t-45.5 36q-51 0 -160 -111 q-88 -96 -122 -162z" />
<glyph unicode="x" horiz-adv-x="1163" d="M-12 862q0 29 67 86q106 88 205 103q11 1 22 1q104 0 148 -106q18 -49 51 -121.5t78 -171.5q115 299 195 342q70 35 215 52h7q42 0 42 -74q0 -63 -45 -64q-16 1 -30 1q-102 0 -150 -25q-205 -113 -205 -291q0 -15 117 -223q135 -217 196 -226h7q82 0 192 127q25 27 45 27 q16 0 16 -16q1 -18 -22 -43q-238 -272 -277 -273q-147 0 -352 449q-66 -152 -184 -289q-121 -133 -180 -133h-3q-53 6 -84 94q-32 66 -32 135q0 37 12 37t33 -39q18 -39 127 -39q78 0 166 101q110 124 110 182q0 10 -199 438q-23 59 -71 60q-39 0 -94 -50q-75 -65 -106 -65 h-1q-16 0 -16 14z" />
<glyph unicode="y" horiz-adv-x="935" d="M-145 829q0 25 61 56q16 6 53 31.5t99 72.5q82 59 118 59q5 0 9 -1q23 -2 30 -43q3 -12 3 -32t-3 -48q-4 -37 -6 -57.5t-2 -26.5q0 -354 -8 -615q-1 -18 -1 -34q0 -130 58 -130q16 0 27 5q193 55 293 174l6 741q55 37 166 78v-25q0 -101 -6 -604q-8 -342 -12 -502 l-3 -144v1q0 -139 -39 -246q-100 -274 -503 -393q-35 -14 -72 -14q-139 0 -139 198q0 49 10 105q16 96 49 186t84 170q49 82 78 82q6 0 6 -12q0 -31 -39 -82q-92 -124 -92 -283q0 -24 2 -49q8 -133 233 -133q250 0 254 287q18 427 18 514q0 22 -1 22l-393 -164 q-158 0 -158 170v23.5t4 28.5q4 76 7 226t9 386q0 90 -26 90q2 0 2 -1q0 -6 -90 -54q-41 -23 -70 -23q-16 0 -16 10z" />
<glyph unicode="z" horiz-adv-x="956" d="M-16 774q0 23 5 83.5t11 160.5q6 29 127 29q43 0 107.5 -5.5t154.5 -11.5q231 -12 285 -18q102 -8 102 -47q0 -16 -41 -123q-121 -309 -393 -631q119 -2 217 -57q98 -53 156 -60q19 -2 36 -2q129 0 195 117q27 45 43 45q12 0 12 -21q0 -68 -81 -157q-89 -98 -146 -121 q-31 -14 -72 -14q-88 0 -237 86q-139 88 -166 88q-6 0 -111 -86q-94 -80 -153 -80q-41 0 -41 57q0 43 22 111q16 59 99 71q106 23 133 45q29 23 64.5 62t80.5 102q88 123 137 224q63 137 64 202q0 47 -31 51q-185 33 -312 33q-103 0 -167 -22q-33 -14 -41 -72 q-4 -72 -23 -94q-12 -18 -20 -18q-16 0 -16 67v6z" />
<glyph unicode="{" horiz-adv-x="839" d="M61 682q115 76 154 154q33 61 33 270v307q0 219 51 291q66 88 221 88h238q55 0 55 -14q0 -12 -70 -39q-29 -10 -135 -19q-104 -4 -139 -30q-59 -39 -59 -191v-299q0 -205 -17 -260q-49 -147 -209 -227q125 -39 175.5 -114t50.5 -185v-459q0 -117 41 -163t143 -46h149 q49 0 50 -18q0 -20 -56 -37q-96 -25 -200 -25h-60q-229 0 -229 250v199q0 246 -10 315q-6 70 -39 133q-61 86 -138 119z" />
<glyph unicode="|" horiz-adv-x="1028" d="M455 -526v2230h125v-2230h-125z" />
<glyph unicode="}" horiz-adv-x="839" d="M29 -322q0 12 65 39q49 16 139 23q109 6 138 27q59 39 59 190v299q0 203 19 260q49 147 204 232q-117 33 -170 115.5t-53 180.5v457q0 121 -38 165t-144 44h-154q-49 0 -49 19q0 31 117 49q43 6 78.5 10t64.5 4h60q229 0 229 -252v-197q0 -127 2 -206.5t6 -112.5 q8 -66 45 -129q51 -88 133 -121q-127 -84 -149 -153q-37 -61 -37 -271v-307q0 -215 -55 -291q-61 -86 -217 -86h-238q-55 0 -55 12z" />
<glyph unicode="~" horiz-adv-x="1280" d="M117 553q164 231 336 231q78 0 223 -53q143 -49 198 -49q137 0 240 133l39 -18q-139 -227 -334 -228q-43 0 -231 66q-123 41 -201 41q-76 0 -127 -41q-10 -8 -34.5 -34t-65.5 -69z" />
<glyph unicode="&#xa2;" horiz-adv-x="1138" d="M133 696q0 279 121 422q102 119 283 135v156h122v-156q223 -23 312 -200q27 -55 39 -119l-185 -14q-14 90 -61 134t-105 56v-825q152 33 175 204l182 -12q-27 -211 -209 -301q-63 -31 -148 -39v-168h-122v168q-211 18 -314 176q-90 143 -90 383zM322 707.5 q0 -99.5 12 -177.5q39 -218 203 -247v829q-166 -25 -203 -227q-12 -78 -12 -177.5z" />
<glyph unicode="&#xa3;" horiz-adv-x="1138" d="M57 625v129h187v280q0 92 23.5 166t73.5 124t126 78t178 28q70 0 131.5 -14.5t111.5 -43.5t85 -72t53 -100l-174 -57q-10 31 -29.5 57.5t-46 44t-58.5 27.5t-69 10q-115 0 -170 -57.5t-55 -182.5v-288h407v-129h-407v-125q0 -57 -11.5 -109.5t-34 -98.5t-53 -82 t-71.5 -56h483q39 0 72 9t59.5 29.5t45 54.5t26.5 83l164 -19q-10 -80 -38 -138t-73 -97t-102 -57.5t-125 -18.5h-698v154q90 47 133 126.5t43 200.5v144h-187z" />
<glyph unicode="&#xa5;" horiz-adv-x="1138" d="M0 1409h199l370 -647l375 647h201l-422 -700h319v-125h-383v-154h383v-127h-383v-303h-178v303h-381v127h381l2 154h-383v125h322z" />
<glyph unicode="&#xa6;" horiz-adv-x="530" d="M182 344h166v-778h-166v778zM182 707v778h166v-778h-166z" />
<glyph unicode="&#xa9;" horiz-adv-x="1507" d="M31 707q0 100 25.5 192t72.5 173t113.5 146.5t146.5 112.5t172 73t193 26q150 0 281.5 -56.5t230 -155t155 -230t56.5 -281.5q0 -100 -26 -192.5t-73 -173.5t-112.5 -146.5t-146.5 -111.5t-173 -72.5t-192 -26.5q-98 0 -191.5 26.5t-173.5 72.5t-146.5 111.5 t-113.5 146.5t-72.5 173t-25.5 193zM125 707q0 -131 50 -246t135 -200t200 -134t244 -49q88 0 167.5 22.5t149.5 63.5t128 98t99 127t63.5 151t22.5 167t-22.5 166.5t-63.5 150.5t-99 127t-128 98t-149.5 63.5t-167.5 22.5q-129 0 -244 -49t-200 -135t-135 -199.5 t-50 -244.5zM369 709q0 98 23.5 176t72.5 133t121.5 85t171.5 30q76 0 131 -17.5t95 -47.5t67.5 -67.5t46.5 -76.5l-115 -33q-12 27 -30.5 51.5t-46 44t-63.5 30.5t-83 11q-70 0 -119 -23.5t-81 -64.5t-47 -100t-15 -131t16 -132.5t50 -103.5t84 -66.5t116 -23.5 q49 0 87 13.5t65.5 36t47 50t33.5 56.5l115 -35q-20 -43 -50 -83t-71 -72t-96 -51t-131 -19q-100 0 -175 31.5t-124 89t-72.5 136t-23.5 173.5z" />
<glyph unicode="&#xab;" horiz-adv-x="1138" d="M82 506v63l336 371h168v-31l-336 -372l338 -367v-29h-170zM547 506v63l338 371h168v-31l-338 -372l340 -367v-29h-170z" />
<glyph unicode="&#xad;" horiz-adv-x="618" d="M59 520l97 123h403l-100 -123h-400z" />
<glyph unicode="&#xae;" horiz-adv-x="1781" d="M16 834q0 354 254 606q252 254 615 254q358 0 610 -254q252 -252 252 -606q0 -362 -252 -615q-250 -250 -610 -250q-367 0 -615 250q-254 252 -254 615zM188 836q0 -287 201 -494q205 -205 496 -205q289 0 487 205q201 207 201 494q0 285 -201 485q-199 205 -487 205 q-291 0 -496 -205q-201 -201 -201 -485zM553 342v979h430q354 0 354 -266q0 -260 -282 -287l282 -426h-190l-270 412h-156v-412h-168zM721 901h231q219 0 219 154q0 119 -215 119h-235v-273z" />
<glyph unicode="&#xb0;" horiz-adv-x="817" d="M121 1145q0 59 22.5 111.5t62.5 91t91 60.5t111 22q59 0 111 -22t91 -60.5t61.5 -91t22.5 -111.5t-22.5 -111.5t-61.5 -90.5t-91 -60.5t-111 -22.5t-110.5 22.5t-91.5 60.5t-62.5 90t-22.5 112zM229 1145q0 -37 14.5 -70t38 -57.5t56.5 -38.5t70 -14q39 0 70.5 14 t56 38.5t38 57.5t13.5 70t-13.5 69.5t-38 57t-56.5 39t-70 14.5q-37 0 -70 -14.5t-56.5 -39t-38 -57t-14.5 -69.5z" />
<glyph unicode="&#xb6;" horiz-adv-x="1099" d="M80 1049q0 84 24.5 150.5t72.5 113.5t116.5 71.5t157.5 24.5h563v-102h-129v-1571h-113v1571h-217v-1571h-113v958q-80 0 -146.5 22.5t-114.5 66.5t-74.5 111t-26.5 155z" />
<glyph unicode="&#xbb;" horiz-adv-x="1138" d="M82 141v29l338 367l-336 372v31h168l336 -371v-63l-336 -365h-170zM549 141v29l338 367l-336 372v31h166l338 -371v-63l-338 -365h-168z" />
<glyph unicode="&#xd6;" horiz-adv-x="1591" d="M96 711q0 166 46 299t135.5 226t219.5 143.5t300 50.5q168 0 298 -51.5t219 -144.5t135 -226t46 -297t-48 -299.5t-138 -231.5t-220.5 -148t-293.5 -52q-174 0 -305.5 54t-218.5 152.5t-131 232.5t-44 292zM291 711q0 -127 31.5 -232.5t95 -182.5t159 -119t218.5 -42 q131 0 227 43t157.5 120t90 182.5t28.5 230.5q0 127 -31.5 231.5t-95 178t-157.5 113.5t-217 40q-127 0 -221.5 -40t-159 -113.5t-95 -178t-30.5 -231.5zM516 1530v184h164v-184h-164zM909 1530v184h164v-184h-164z" />
<glyph unicode="&#xd7;" horiz-adv-x="1193" d="M141 330l355 354l-353 352l105 103l350 -353l350 351l105 -105l-351 -348l353 -352l-103 -105l-352 353l-356 -355z" />
<glyph unicode="&#xdc;" horiz-adv-x="1478" d="M158 512v897h190v-881q0 -106 29 -181t80 -122t120.5 -68.5t151.5 -21.5t155.5 21.5t128 69.5t86 126t31.5 189v868h191v-879q0 -141 -47 -244.5t-127 -172t-187.5 -101t-228.5 -32.5q-117 0 -220 31.5t-182 96t-125 166t-46 238.5zM459 1530v184h166v-184h-166z M852 1530v184h164v-184h-164z" />
<glyph unicode="&#xf6;" horiz-adv-x="1138" d="M84 543q0 559 485 559q125 0 217.5 -35t150.5 -104.5t86 -175t28 -244.5q0 -285 -125 -424t-363 -139q-113 0 -202 33.5t-150 104t-94 176t-33 249.5zM272 543q0 -127 22.5 -209t60.5 -131t91.5 -69.5t114.5 -20.5q70 0 125 19.5t94 68.5t60.5 132t21.5 210 q0 125 -19.5 206.5t-57 131t-92 69t-122.5 19.5t-124 -20.5t-95 -70t-59.5 -131t-20.5 -204.5zM293 1219v184h166v-184h-166zM686 1219v184h164v-184h-164z" />
<glyph unicode="&#xf7;" horiz-adv-x="1122" d="M63 608v146h996v-146h-996zM477 223v183h168v-183h-168zM477 958v183h168v-183h-168z" />
<glyph unicode="&#xfc;" horiz-adv-x="1138" d="M137 360v721h180v-686q0 -78 12.5 -131t38 -86t68.5 -46t105 -13q66 0 117 22.5t86.5 65.5t56 105.5t20.5 142.5v626h180v-850v-71.5t1.5 -70.5t2.5 -58.5t3 -30.5h-170q-2 4 -3 26.5t-2.5 51t-2.5 58.5t-1 48h-4q-25 -47 -56.5 -85t-72.5 -64.5t-93 -40.5t-124 -14 q-88 0 -153.5 22.5t-107.5 68.5t-61.5 117.5t-19.5 171.5zM281 1219v184h163v-184h-163zM674 1219v184h164v-184h-164z" />
<glyph unicode="&#x100;" horiz-adv-x="1363" d="M2 0l576 1409h217l565 -1409h-195l-161 412h-642l-161 -412h-199zM410 1571v127h548v-127h-548zM420 561h526l-180 465q-16 41 -30.5 82t-26 73.5t-18.5 55.5t-7 29q-2 -6 -9 -29t-19.5 -56.5t-27 -74.5t-28.5 -82z" />
<glyph unicode="&#x101;" horiz-adv-x="1138" d="M86 301q0 109 41 177.5t106.5 107.5t149.5 53t170 16l244 4v60q0 68 -14.5 115t-43 75.5t-72.5 42t-104 13.5q-51 0 -93 -7.5t-72.5 -27t-50 -53t-25.5 -84.5l-189 18q10 63 39 116.5t80 92.5t129 60.5t186 21.5q205 0 308.5 -93.5t103.5 -271.5v-465q0 -80 20.5 -120.5 t79.5 -40.5q14 0 29.5 2t30.5 6v-113q-35 -8 -69 -12t-71 -4q-51 0 -88 13t-59.5 41t-34.5 69t-14 94h-6q-29 -51 -64 -93t-81 -72t-104 -46t-134 -16q-164 0 -246 86t-82 235zM270 299q0 -88 48.5 -136t136.5 -48q86 0 150.5 31.5t106.5 80.5t63.5 106.5t21.5 110.5v91 l-199 -5q-66 -2 -125 -10t-104 -32.5t-72 -69.5t-27 -119zM283 1237v127h548v-127h-548z" />
<glyph unicode="&#x112;" horiz-adv-x="1363" d="M168 0v1409h1069v-156h-879v-452h820v-154h-820v-491h920v-156h-1110zM428 1571v127h551v-127h-551z" />
<glyph unicode="&#x113;" horiz-adv-x="1138" d="M86 549q0 152 38 257t104.5 170.5t154.5 95.5t186 30q137 0 228.5 -44t146.5 -122t79 -182.5t24 -227.5v-22h-773q0 -86 17.5 -158t54.5 -123t94.5 -79.5t137.5 -28.5q117 0 187.5 47t94.5 119l158 -45q-16 -45 -47 -90.5t-82 -82t-128 -60t-183 -23.5q-240 0 -366 143 t-126 426zM276 641h584q-14 170 -86 249t-207 79q-45 0 -94 -14.5t-91 -51.5t-71.5 -100.5t-34.5 -161.5zM295 1237v127h549v-127h-549z" />
<glyph unicode="&#x192;" horiz-adv-x="1138" d="M190 -434l254 1325h-151l26 131h152l29 152q12 59 31.5 110t55.5 89t90 59.5t136 21.5q31 0 72 -5t76 -15l-31 -121q-16 4 -47 9t-62 5q-33 0 -55.5 -9t-38.5 -29.5t-28.5 -52.5t-20.5 -77l-27 -137h211l-24 -131h-213l-254 -1325h-181z" />
<glyph unicode="&#x2dc;" horiz-adv-x="681" d="M-23 1200q4 45 14.5 93t33 87t59.5 63.5t96 24.5q45 0 87 -18t81 -41t73 -41t64 -18q53 0 81 31.5t36 86.5h92q-4 -43 -14 -91t-31.5 -87t-58.5 -64.5t-98 -25.5q-41 0 -83 18.5t-81 41t-75 42t-67 19.5q-55 0 -81.5 -32t-36.5 -89h-91z" />
<glyph unicode="&#x1000;" horiz-adv-x="2097" d="M8 463q0 221 143.5 362.5t364.5 141.5q274 0 463 -213q143 225 467 213q233 -8 380.5 -139.5t147.5 -360.5q0 -164 -112.5 -303t-272.5 -164q-94 -12 -94 82q0 57 74 82q221 78 221 299q0 156 -94 248t-250 92q-287 0 -373 -258v-25q0 -377 -287 -475q-12 -4 -28 -4 q-78 0 -78 82q0 57 57 78q172 57 172 319q0 119 -143 205q-123 78 -250 78q-156 0 -250 -92.5t-94 -247.5q0 -102 63.5 -194.5t161.5 -108.5q70 -12 70 -82q0 -98 -94 -82q-160 25 -267 168q-98 131 -98 299z" />
<glyph unicode="&#x1001;" horiz-adv-x="1191" d="M41 295q0 246 324 246q131 0 274 -55.5t225 -145.5q37 70 37 168q0 315 -332 315q-57 0 -178 -43t-166 -43q-78 0 -78 86q0 57 58 74q90 29 180 57q106 33 184 33q221 0 356.5 -129t135.5 -350q0 -233 -135 -356q-8 -25 -41 -37q-152 -115 -430 -115q-139 0 -267 78 q-147 86 -147 217zM205 295q0 -53 102 -94q86 -37 148 -37q201 0 303 61q-41 66 -185 111q-119 37 -221 37q-86 0 -98 -4q-49 -16 -49 -74z" />
<glyph unicode="&#x1002;" horiz-adv-x="1187" d="M16 446q0 225 164 391.5t389 166.5q242 0 381.5 -162t139.5 -408q0 -254 -189 -352q-29 -16 -123 -37q-82 -4 -82 90q0 4 20.5 26.5t20.5 26.5q74 16 131.5 92t57.5 154q0 176 -92.5 291t-264.5 115q-156 0 -272.5 -119t-116.5 -275q0 -197 217 -303q45 -20 45 -69 q0 -86 -77 -86q-25 0 -41 8q-307 152 -308 450z" />
<glyph unicode="&#x1003;" horiz-adv-x="2088" d="M-205 840q0 254 279 254q127 0 215 -74t88 -201q0 -57 -86 -221t-86 -172q0 -127 98 -209t229 -82q164 0 262.5 104.5t98.5 268.5q0 229 -127 291q-45 20 -45 69q0 86 78 86q119 0 192 -155q57 -119 66 -258q16 -20 16 -54q0 -139 108.5 -235t252.5 -96q360 0 360 409 q0 139 -94 243.5t-234 104.5q-53 0 -65 -16q-33 -41 -66 -41q-74 0 -73 90q0 131 204 131q213 0 352.5 -149.5t139.5 -362.5q0 -233 -111 -397q-127 -193 -348 -193q-131 0 -284.5 76t-227.5 178q-139 -258 -455 -258q-201 0 -346 129t-145 326q0 82 86 238l86 155 q0 111 -139 111q-115 0 -115 -90q0 -37 29 -74l28 -37q16 -20 17 -49q0 -82 -82 -82q-41 0 -66 33l-28 37q-61 78 -62 172z" />
<glyph unicode="&#x1004;" horiz-adv-x="1073" d="M16 496q0 225 133.5 368.5t358.5 143.5q295 0 430 -299q8 -16 8 -37q0 -78 -86 -78q-45 0 -69 49q-90 201 -283 201q-152 0 -240 -96.5t-88 -251.5q0 -356 299 -357q254 0 344 180q25 45 70 46q86 0 86 -78q0 -20 -8 -41q-139 -270 -492 -271q-217 0 -344 156 q-119 143 -119 365z" />
<glyph unicode="&#x1005;" horiz-adv-x="1204" d="M12 475q0 242 168 385q156 139 402 139q217 0 360 -131t143 -348q0 -270 -151.5 -409.5t-425.5 -139.5q-102 0 -209 70q-8 4 -176 135q-29 16 -37 57q-74 86 -74 242zM172 475q0 -90 41 -139q49 -16 53 -66l13 -12l12 -8q16 8 33 8q127 25 127 209q0 82 -29 143 q-37 82 -111 82q-41 0 -86 -20q-53 -82 -53 -197zM442 819q168 -94 168 -352q0 -238 -151 -328q25 -4 49 -4q418 0 418 385q0 147 -96.5 231.5t-247.5 84.5q-74 0 -140 -17z" />
<glyph unicode="&#x1006;" horiz-adv-x="2093" d="M41 295q0 246 324 246q131 0 274 -55.5t225 -145.5q37 70 37 168q0 315 -332 315q-57 0 -178 -43t-166 -43q-78 0 -78 86q0 57 58 74q90 29 180 57q106 33 184 33q295 0 422 -213q127 123 193 152q135 78 356 78q53 0 115 -29q147 -33 241.5 -168t94.5 -291 q0 -250 -131 -397.5t-377 -147.5q-131 0 -274.5 74t-221.5 180q-25 -41 -61 -73q-8 -25 -41 -37q-152 -115 -430 -115q-139 0 -267 78q-147 86 -147 217zM205 295q0 -53 102 -94q86 -37 148 -37q201 0 303 61q-41 66 -185 111q-119 37 -221 37q-86 0 -98 -4q-49 -16 -49 -74 zM1061 467q0 -135 147 -238q135 -94 275 -94q344 0 344 381q0 168 -135 266q12 0 -54 29q-20 4 -69 20q-25 8 -29 9q-139 0 -246 -41q-12 -12 -32 -21h-5q-16 -20 -65 -37q-127 -102 -131 -274z" />
<glyph unicode="&#x1007;" horiz-adv-x="1183" d="M16 422q0 246 156 409.5t401 163.5q221 0 357 -131q78 -74 155 -352q0 -78 -12 -197q-20 -90 -69 -159q49 -61 159 -95q82 -25 82 -86q0 -78 -82 -77q-156 0 -282 155q-57 -25 -127 -24q-119 0 -207 92t-88 211q0 111 84 190.5t194 79.5q94 0 168 -16q-70 246 -332 245 q-180 0 -286.5 -114.5t-106.5 -294.5q0 -164 172 -217q57 -16 58 -74q0 -86 -78 -86q-127 0 -221.5 123t-94.5 254zM623 332q0 -49 41 -94t90 -45q25 0 45 8q-4 37 24.5 61.5t65.5 20.5q25 49 33 127q-78 29 -185 28q-41 0 -77.5 -32.5t-36.5 -73.5z" />
<glyph unicode="&#x1008;" horiz-adv-x="1640" d="M12 475q0 242 168 385q156 139 402 139q217 0 360 -131t143 -348q0 -270 -151.5 -409.5t-425.5 -139.5q-102 0 -209 70q-8 4 -176 135q-29 16 -37 57q-74 86 -74 242zM172 475q0 -90 41 -139q49 -16 53 -66l13 -12l12 -8q16 8 33 8q127 25 127 209q0 82 -29 143 q-37 82 -111 82q-41 0 -86 -20q-53 -82 -53 -197zM299 -705q-12 414 233 582q152 102 345 103q147 0 147 -123q0 -86 -86 -78q-446 37 -446 -451q0 -61 12 -102q70 -242 287 -242q397 0 417 475l13 267q12 258 4 450q-25 631 -37 705q-16 106 90 106q82 0 90 -82 q25 -246 41 -717q4 -119 -4 -364l-12 -365q-8 -295 -156 -467q-160 -193 -446 -192q-213 0 -350.5 141t-141.5 354zM442 819q168 -94 168 -352q0 -238 -151 -328q25 -4 49 -4q418 0 418 385q0 147 -96.5 231.5t-247.5 84.5q-74 0 -140 -17z" />
<glyph unicode="&#x1009;" horiz-adv-x="2179" d="M-20 -475q0 659 36 770q4 70 86 70q45 0 70 -46q90 -180 344 -180q299 0 299 357q0 156 -88 252t-240 96q-193 0 -282 -201q-25 -49 -70 -49q-86 0 -86 78q0 20 8 37q135 299 430 299q225 0 358.5 -143.5t133.5 -368.5q0 -221 -119 -365q-127 -156 -344 -156 q-213 0 -348 99q-4 -66 -4 -549q0 -430 340 -471q33 -4 1061 -4v-8q336 61 336 348q0 168 -117 254t-289 86q-102 0 -184 -55.5t-82 -153.5q0 -152 94 -152q82 0 82 -82t-82 -82q-119 0 -193 103q-66 90 -65 213q0 168 135 274q123 98 295 99q246 0 407.5 -131t161.5 -373 q0 -209 -139 -344.5t-352 -167.5q-16 -4 -123 8q-131 0 -541 -8l-409 -8q-250 29 -385 213t-135 442z" />
<glyph unicode="&#x100a;" horiz-adv-x="2097" d="M-20 -496q0 541 24 709v4q4 37 12 57q4 70 86 70q29 0 70 -45v-4q16 -20 61 -66q111 -86 332 -86q156 0 254.5 86t98.5 242q0 168 -113 268.5t-285 100.5q-168 0 -311 -107q-20 -16 -49 -16q-82 0 -82 82q0 41 33 65q184 139 409 140q221 0 379 -129.5t178 -346.5 q16 -20 17 -49q0 -131 114 -213q160 -115 238 -114q147 0 251.5 100t104.5 248q0 184 -155 282q-135 86 -328 86q-82 0 -82 82t82 82q258 0 442 -135q205 -147 205 -397q0 -217 -151.5 -364.5t-368.5 -147.5q-238 0 -426 233q-135 -242 -455 -241q-254 0 -393 77l-4 -4 q-4 -66 -4 -549q0 -389 282 -458q66 -16 1037 -17q98 0 192 74t94 168q0 70 -57 127q-57 45 -110 90q-49 20 -95 20q-164 0 -192 -106q-16 -57 -78 -57q-86 0 -86 65q0 131 119 201q98 61 237 61q66 0 131 -20h25q25 0 49 -17q242 -152 242 -364q0 -176 -145.5 -301 t-325.5 -125l-975 4q-254 25 -397 217q-131 176 -131 438z" />
<glyph unicode="&#x100b;" horiz-adv-x="1175" d="M33 438q0 242 133 387.5t371 145.5q283 0 417 -156q20 -25 21 -53q0 -82 -82 -82q29 0 29 8q0 16 -123 57q-176 61 -262 62q-340 0 -340 -369q0 -279 327 -278q45 0 139.5 16.5t139.5 16.5q238 -8 237 -295q0 -197 -331 -197q-70 0 -203 12.5t-203 12.5q-82 0 -82 -33 q0 -78 53 -103q29 -12 123 -12q82 0 221 8q164 12 218 13q197 8 221 -160q0 -12 41 -311q57 -172 303 -172q111 0 176 98q61 86 61 201q0 168 -82 167q25 0 -57 -16q-98 -20 -98 66q0 115 155 114q246 1 246 -331q0 -184 -110.5 -323.5t-290.5 -139.5q-262 0 -387 127 t-158 393q-4 29 4 63.5t8 46.5q0 29 -61 29q-70 0 -205 -18.5t-205 -18.5q-340 0 -340 279q0 197 246 196q70 0 203 -12t203 -12q119 0 168 33q0 131 -74 131q-45 0 -139.5 -16.5t-139.5 -16.5q-209 0 -350 118.5t-141 323.5z" />
<glyph unicode="&#x100c;" horiz-adv-x="1159" d="M-20 -729q0 213 241 364q25 16 49 17q94 0 95 -98q0 -45 -46 -74q-156 -98 -155 -209q0 -94 94 -168t193 -74q418 0 417 475q0 483 -4 549q-135 -98 -348 -98q-238 0 -371 139t-133 381q0 246 143.5 379t389.5 133q295 0 430 -299q8 -16 8 -37q0 -78 -86 -78 q-45 0 -70 50q-90 201 -282 200q-369 0 -369 -348q0 -356 340 -356q254 0 344 180q25 45 70 45q82 0 86 -70q37 -111 37 -770q0 -287 -156 -467q-164 -193 -446 -192q-180 0 -325.5 125t-145.5 301z" />
<glyph unicode="&#x100d;" horiz-adv-x="1167" d="M4 -66q0 213 180 213q41 0 125 -4t125 -4q442 0 443 230q0 422 -345 422q-152 0 -344 -168q-25 -20 -53 -21q-78 0 -78 82q0 33 29 57q233 209 446 209q254 0 386 -168q119 -152 118 -413q0 -389 -602 -389q-41 0 -125 4t-125 4h-16q-4 -16 -4 -54q0 -78 155 -77 q66 0 199 22.5t199 22.5h98q119 0 119 -164q0 -25 -4 -78t-4 -78q0 -143 61 -340q90 -287 291 -286q143 0 231 83.5t88 227.5q0 213 -106 213q-78 0 -78 82q0 78 78 78q266 0 266 -373q0 -209 -135 -340t-344 -131q-291 0 -422 332q-57 147 -70 196q-20 86 -20 258 q0 29 4 80t4 80h-57q-66 0 -199 -22.5t-199 -22.5q-315 0 -315 237z" />
<glyph unicode="&#x100e;" horiz-adv-x="1183" d="M-205 840q0 254 279 254q127 0 215 -74t88 -201q0 -57 -86 -221t-86 -172q0 -127 98 -209t229 -82q164 0 262.5 104.5t98.5 268.5q0 229 -127 291q-45 20 -45 69q0 86 78 86q25 0 41 -8q217 -106 217 -438q0 -233 -145.5 -385t-379.5 -152q-201 0 -346 129t-145 326 q0 82 86 238l86 155q0 111 -139 111q-115 0 -115 -90q0 -37 29 -74l28 -37q16 -20 17 -49q0 -82 -82 -82q-41 0 -66 33l-28 37q-61 78 -62 172z" />
<glyph unicode="&#x100f;" horiz-adv-x="2289" d="M25 463q0 262 184 414q172 143 438 143q176 0 320 -148q57 41 127 41q74 0 139 -65q115 164 393 164q258 0 397.5 -158t139.5 -420q0 -217 -133.5 -348t-350.5 -131q-193 0 -192 147q0 66 57 66l135 -49q319 0 320 315q0 414 -373 414q-262 0 -291 -172q74 -197 74 -381 q0 -381 -291 -381q-283 0 -282 446q0 209 36 328v37q-66 131 -225 131q-201 0 -323 -94q-135 -102 -136 -299q0 -221 226 -332q45 -20 45 -70q0 -86 -78 -86q-20 0 -41 9q-315 160 -315 479zM999 360q0 -139 9 -176q25 -106 110 -106q127 0 127 217q0 123 -53 295 q-25 20 -25 61q-33 74 -65 94q-33 0 -53 -20q4 -29 -5 -49q-45 -115 -45 -316z" />
<glyph unicode="&#x1010;" horiz-adv-x="2097" d="M8 442q0 356 258 467q135 78 357 78q53 0 114 -29q168 -41 267 -208q29 33 69 81q152 135 393 136q221 0 364.5 -141.5t143.5 -362.5q0 -168 -98 -299q-106 -143 -266 -168q-94 -16 -94 82q0 57 73 82q221 78 221 303q0 156 -94 248t-250 92q-152 0 -315 -135 q-78 -66 -78 -131v-37q0 -225 -141 -364.5t-367 -139.5q-201 0 -368 123q-188 131 -189 323zM172 442q0 -119 143 -204q123 -78 250 -78q156 0 250 92t94 248q0 168 -135 266q-33 -4 -65 16l-33 21l-25 8q-25 12 -28 12q-139 0 -246 -41q-12 -12 -33 -20h-4q-16 -20 -66 -37 q-102 -82 -102 -283z" />
<glyph unicode="&#x1011;" horiz-adv-x="2097" d="M8 438q0 356 258 467q135 78 357 78q53 0 114 -29q160 -37 258 -192q61 94 172 143q135 78 357 78q53 0 114 -29q147 -33 241.5 -167.5t94.5 -290.5q0 -225 -141 -364.5t-367 -139.5q-287 0 -471 221q-139 -221 -430 -221q-201 0 -368 123q-188 131 -189 323zM172 438 q0 -119 143 -205q123 -78 250 -77q156 0 250 92t94 248q0 168 -135 266q-33 -4 -65 16l-33 21l-25 8q-25 12 -28 12q-139 0 -246 -41q-12 -12 -33 -20h-4q-16 -20 -66 -37q-102 -82 -102 -283zM1073 438q0 -119 144 -205q123 -78 249 -77q156 0 250 92t94 248 q0 168 -135 266q-33 -4 -65 16l-33 21l-25 8q-25 12 -28 12q-139 0 -246 -41q-12 -12 -33 -20h-4q-16 -20 -65 -37q-102 -82 -103 -283z" />
<glyph unicode="&#x1012;" horiz-adv-x="1208" d="M16 406q0 98 65.5 159.5t164.5 61.5q61 0 112.5 -53.5t51.5 -114.5q0 -78 -82 -78q-53 0 -74 53q-4 12 -21 33q-53 -4 -53 -61q0 -98 96.5 -168t198.5 -70q135 0 270 49q180 66 181 184q0 106 -152 160q-8 4 -237 78q-61 29 -62 66q0 33 148 118l143 82q0 37 -229 37h-82 q-45 -8 -58 -45q12 -25 13 -45q0 -53 -70 -53q-123 0 -123 119q0 61 41 112t102 68q33 8 168 8q446 0 418 -209q-8 -49 -74 -98q-57 -33 -110 -70q323 -95 323 -328q0 -201 -217 -307q-172 -86 -393 -86q-172 0 -315.5 115t-143.5 283z" />
<glyph unicode="&#x1013;" horiz-adv-x="1196" d="M8 442q0 356 258 467q135 78 357 78q53 0 114 -29q147 -33 241.5 -167.5t94.5 -290.5q0 -225 -139 -364.5t-365 -139.5q-33 -25 -73 -16q-111 25 -164 65q-66 29 -131 74q-193 135 -193 323zM172 442q0 -74 74 -147q20 127 108 221t211 94q274 0 320 -245q24 61 24 135 q0 168 -135 266q-33 -4 -65 16l-33 21l-25 8q-25 12 -28 12q-139 0 -246 -41q-12 -12 -33 -20h-4q-16 -20 -66 -37q-102 -82 -102 -283zM401 233q0 -29 17 -45q70 -29 147 -28q86 0 156 28q-12 29 -4 62q12 24 12 53q0 143 -164 143q-66 0 -115 -71.5t-49 -141.5z" />
<glyph unicode="&#x1014;" horiz-adv-x="1073" d="M-16 209q0 238 286 237q254 0 295 -327q254 53 254 119q0 115 -160 176l-303 118q-160 90 -159 246q0 119 94 205t213 86q274 0 274 -192q0 -193 -188 -193q-66 0 -66 86q0 61 62 74q29 8 28 33q-25 29 -110 28q-49 0 -96.5 -39t-47.5 -88q0 -90 160 -155l303 -123 q160 -98 160 -262q0 -213 -405 -291q0 -106 -14.5 -317.5t-14.5 -317.5q0 -180 45 -250q12 -25 12 -45q0 -82 -86 -82q-41 0 -65 37q-70 106 -70 369q0 98 14.5 292.5t14.5 292.5q-37 -4 -66 -4q-143 0 -246 70q-119 78 -118 217zM147 209q0 -53 78 -90q66 -33 123 -33 q17 0 58 4q-20 193 -136 193q-123 0 -123 -74z" />
<glyph unicode="&#x1015;" horiz-adv-x="1196" d="M25 455q0 172 12 221q16 70 115 180q29 33 77 33q98 0 99 -70q0 -20 -17 -41q-111 -131 -123 -168q-4 -12 -4 -155q0 -127 119 -209q106 -78 238 -78q172 0 268 102.5t96 274.5q0 242 -143 274q-61 16 -62 74q0 102 99 82q135 -29 209 -164q61 -114 61 -266 q0 -242 -143.5 -389.5t-384.5 -147.5q-201 0 -353 123q-164 131 -163 324z" />
<glyph unicode="&#x1016;" horiz-adv-x="1196" d="M25 455q0 172 12 221q16 70 115 180q29 33 77 33q98 0 99 -70q0 -20 -17 -41q-111 -131 -123 -168q-4 -12 -4 -155q0 -127 119 -209q106 -78 238 -78q168 0 266 98q-143 25 -229 121t-86 240q0 233 233 348q41 20 78 0q131 -33 205 -168q61 -115 61 -262 q0 -242 -143.5 -389.5t-384.5 -147.5q-201 0 -353 123q-164 131 -163 324zM655 627q0 -201 238 -209q12 61 12 127q0 233 -135 270q-115 -66 -115 -188z" />
<glyph unicode="&#x1017;" horiz-adv-x="1187" d="M0 545q0 201 143 315q25 20 50 21q16 0 32 -9q82 8 90 -77q12 -123 37 -148q33 -45 131 -45q184 0 189 229q-20 25 -21 54q0 86 78 86q135 0 242 -189q94 -164 94 -311q0 -229 -147.5 -360t-380.5 -131q-242 0 -389.5 159.5t-147.5 405.5zM164 545q0 -164 106.5 -283 t266.5 -119q364 0 364 328q0 139 -82 246q-66 -279 -336 -279q-250 0 -311 205q-8 -25 -8 -98z" />
<glyph unicode="&#x1018;" horiz-adv-x="2088" d="M-41 360q0 82 86 82q41 0 66 -41q152 -258 381 -258q176 0 301 104.5t125 276.5q0 152 -148 250q-131 90 -291 90q-139 0 -291 -123q-25 -20 -53 -20q-82 0 -82 82q0 37 29 61q197 164 397 164q315 0 500 -221q139 246 467 246q209 0 368.5 -139.5t159.5 -344.5 q0 -262 -135 -425.5t-393 -176.5q-86 -4 -86 82q0 78 78 82q373 20 372 438q0 131 -114.5 225.5t-249.5 94.5t-238 -70q-115 -78 -118 -205q0 -20 -13 -41q4 -25 4 -49q0 -242 -172 -393t-417 -151q-319 0 -521 339q-12 20 -12 41z" />
<glyph unicode="&#x1019;" horiz-adv-x="1187" d="M0 545q0 193 143 315q25 20 50 21q86 0 86 -86q0 -33 -47.5 -76t-51.5 -55q-16 -25 -16 -119q0 -127 82 -238q25 123 112.5 213t206.5 90t211 -69.5t113 -184.5q12 53 12 115q0 266 -196 340q-53 20 -54 74q0 86 78 86q135 0 242 -189q94 -164 94 -311 q0 -229 -147.5 -360t-380.5 -131q-12 -4 -41 0l-13 4q-201 20 -342 188t-141 373zM401 233q0 -61 111 -90h25q114 0 192 33q-16 20 -16 45q0 12 8 39t8 43q0 143 -164 143q-66 0 -115 -71.5t-49 -141.5z" />
<glyph unicode="&#x101a;" horiz-adv-x="2097" d="M8 504q0 164 104.5 301t260.5 162q94 12 94 -82q0 -66 -70 -78q-94 -16 -159.5 -110.5t-65.5 -192.5q0 -156 94 -248t250 -92q127 0 250 78q143 86 143 204q0 131 -41 201q-37 57 -155 131q-33 20 -33 62q0 86 78 86q16 0 28 -8q287 -94 287 -472v-24q86 -262 373 -262 q156 0 250 92t94 248q0 225 -221 303q-74 25 -74 82q0 94 94 82q160 -25 272.5 -166t112.5 -305q0 -225 -149.5 -358.5t-378.5 -141.5q-324 -12 -467 213q-188 -209 -463 -209q-225 0 -366.5 139.5t-141.5 364.5z" />
<glyph unicode="&#x101b;" horiz-adv-x="1097" d="M-41 463q0 238 127 397q139 176 369 176q221 0 374.5 -139t153.5 -356q0 -324 -29 -693q-12 -156 0 -315q12 -164 13 -213q0 -156 49 -209q33 -33 205 -49q127 -12 196 70q20 25 21 49q0 25 -29 69q-53 0 -53 78q0 82 119 82q106 0 139 -168q12 -53 -8.5 -131t-57.5 -115 q-111 -106 -327 -98q-229 8 -323.5 100.5t-94.5 321.5q0 49 -12 209q-12 156 0 311q29 369 28 701q0 147 -106.5 239t-257.5 92q-250 0 -316 -262q184 -16 324 -123q156 -119 155 -294q0 -229 -233 -230q-131 0 -180 45q-111 53 -178.5 188.5t-67.5 266.5zM123 446 q4 -8 4 -20q16 -49 25 -94q45 -119 98 -160q29 0 49 -20h4q8 -4 33 -25h49q70 0 70 66q0 111 -115 184q-94 61 -217 69z" />
<glyph unicode="&#x101c;" horiz-adv-x="1980" d="M25 451q0 242 149.5 389t390.5 147q418 0 496 -487q53 -319 385 -320q352 0 352 332q0 180 -108.5 282.5t-288.5 102.5h-66q-82 0 -82 78q0 82 82 82h29q25 4 37 4q246 0 401.5 -151.5t155.5 -397.5q0 -238 -135 -365t-377 -127q-324 0 -451 209q-4 4 -135 385 q-74 209 -295 209q-233 0 -332 -172q-33 -98 -35.5 -175t14.5 -137t50 -107.5t70 -84.5q16 -4 49 -20q53 0 16 129q8 41 19.5 61.5t26 25.5t29.5 -1t32 -18l31 -31q63 -131 18 -250q-66 -76 -176 -76q-33 0 -66 17h-8q-33 -8 -61 20q-123 123 -160 189q-57 102 -57 258z" />
<glyph unicode="&#x101d;" horiz-adv-x="1196" d="M8 442q0 356 258 467q135 78 357 78q53 0 114 -29q147 -33 241.5 -167.5t94.5 -290.5q0 -225 -141 -364.5t-367 -139.5q-201 0 -368 123q-188 131 -189 323zM172 442q0 -119 143 -204q123 -78 250 -78q156 0 250 92t94 248q0 168 -135 266q-33 -4 -65 16l-33 21l-25 8 q-25 12 -28 12q-139 0 -246 -41q-12 -12 -33 -20h-4q-16 -20 -66 -37q-102 -82 -102 -283z" />
<glyph unicode="&#x101e;" horiz-adv-x="2097" d="M-66 365q0 98 103 98q41 0 61 -37q78 -131 135 -176q111 -86 332 -86q156 0 254.5 86t98.5 242q0 168 -113 268t-285 100q-168 0 -311 -106q-20 -16 -49 -17q-82 0 -82 82q0 41 33 66q184 139 409 139q221 0 379 -129t178 -346q16 -20 17 -49q0 -369 352 -369 q164 0 260 110.5t96 278.5q0 184 -155 283q-135 86 -328 86q-82 0 -82 82t82 82q258 0 442 -135q205 -148 205 -398q0 -242 -141.5 -397.5t-378.5 -155.5q-270 0 -426 193q-61 -111 -180 -140q-82 -20 -275 -20q-283 0 -426 98q-78 53 -192 221q-12 16 -13 46z" />
<glyph unicode="&#x101f;" horiz-adv-x="2084" d="M20 614q0 98 78 213q82 131 172 131q86 0 86 -77q0 -41 -110 -144q-66 -61 -66 -123q0 -238 104.5 -346t342.5 -108q147 0 229 147q70 119 70 279q0 111 -94.5 180.5t-208.5 69.5q-82 0 -82 82q0 78 82 77q242 0 381 -176q143 188 450 189q233 0 368.5 -155.5 t135.5 -393.5q0 -176 -121 -307.5t-297 -131.5q-66 0 -65 86q0 57 61 74q262 61 262 279q0 168 -90 278.5t-254 110.5q-377 0 -364 -283q0 -20 -9 -37q-16 -213 -127 -360q-127 -168 -327 -168q-606 0 -607 614z" />
<glyph unicode="&#x1020;" horiz-adv-x="1073" d="M0 -770q0 295 33 401q70 225 295 226q49 0 145 -6.5t145 -6.5q291 0 291 107q0 94 -102 94q-29 0 -88.5 -12.5t-87.5 -12.5q-614 0 -615 418q0 246 156 389.5t406 143.5q168 0 389 -127q41 -25 41 -70q0 -86 -78 -86q-25 0 -45 8q-197 111 -307 111q-397 0 -398 -369 q0 -254 451 -254q29 0 88 12.5t88 12.5q266 0 266 -258q0 -270 -442 -270q-49 0 -151.5 6t-151.5 6q-123 0 -156 -185q-8 -45 -8 -278q0 -250 332 -250q156 0 274 70q139 82 139 225q0 82 -118 82q-16 0 -70 -41q-33 -25 -57 -25q-61 0 -62 74q0 70 59.5 113t129.5 43 q119 0 200.5 -65.5t81.5 -180.5q0 -221 -184 -348q-160 -111 -393 -111q-496 0 -496 414z" />
<glyph unicode="&#x1021;" horiz-adv-x="2097" d="M16 406q0 98 65.5 159.5t164.5 61.5q61 0 112.5 -53.5t51.5 -114.5q0 -78 -82 -78q-53 0 -74 53q-4 12 -21 33q-53 -4 -53 -61q0 -98 96.5 -168t198.5 -70q135 0 270 49q180 66 181 184q0 106 -152 160q-8 4 -237 78q-61 29 -62 66q0 33 148 118l143 82q0 37 -229 37h-82 q-45 -8 -58 -45q12 -25 13 -45q0 -53 -70 -53q-123 0 -123 119q0 61 41 112t102 68q33 8 168 8q446 0 418 -209q-8 -49 -74 -98q-57 -33 -110 -70q111 -33 172 -70q147 381 561 381q233 0 360 -180q115 -159 115 -401q0 -193 -98 -336q-111 -164 -295 -164t-184 201 q0 287 360 422q25 8 45 4q-61 295 -303 295q-168 0 -282.5 -96.5t-151.5 -260.5q25 -53 24 -123q0 -201 -217 -307q-172 -86 -393 -86q-172 0 -315.5 115t-143.5 283zM1556 123h21q209 0 229 307q-250 -98 -250 -270v-37z" />
<glyph unicode="&#x1022;" horiz-adv-x="2105" d="M-205 225q0 94 62 172l28 37q25 33 66 33q82 0 82 -82q0 -29 -17 -49l-28 -37q-29 -37 -29 -74q0 -90 115 -90q139 0 139 111l-86 155q-86 156 -86 238q0 197 145.5 326t345.5 129q315 0 455 -258q74 102 227.5 178t284.5 76q221 0 348 -193q111 -164 111 -397 q0 -213 -139.5 -362.5t-352.5 -149.5q-205 0 -204 131q0 90 73 90q33 0 66 -41q12 -16 65 -16q139 0 233.5 104t94.5 244q0 410 -360 409q-143 0 -252 -96t-109 -235q0 -33 -16 -54q-8 -139 -66 -258q-74 -156 -192 -155q-78 0 -78 86q0 49 45 69q127 61 127 291 q0 164 -98.5 268.5t-262.5 104.5q-131 0 -229 -82t-98 -209q0 -8 86 -172t86 -221q0 -127 -88 -201t-215 -74q-279 0 -279 254z" />
<glyph unicode="&#x1023;" horiz-adv-x="2101" d="M8 463q0 221 143.5 362.5t364.5 141.5q274 0 463 -213q143 225 467 213q233 -8 380.5 -139.5t147.5 -360.5q0 -172 -114 -311q-119 -152 -287 -156q147 -53 237.5 -182t90.5 -289v-94q0 -57 -5 -90v-9q0 -324 148 -323q201 0 201 209q0 111 -58 110q-29 -29 -65 -28 q-94 0 -94 82q0 37 49 65l4 8q41 37 106 37q221 0 221 -274q0 -164 -100 -268.5t-264 -104.5q-311 0 -311 487q0 -25 4 9v184q0 143 -100.5 239.5t-243.5 96.5q-319 0 -357 -230q25 -82 25 -172q0 -82 -82 -81q-82 0 -82 81q0 49 -20 148q-66 188 -263 188q-328 0 -327 -282 q0 -16 10 -47t10 -48q0 -82 -86 -81q-98 0 -98 176q0 217 135 331.5t356 114.5q201 0 324 -139q143 205 455 205q66 0 127 -17q-25 25 -25 70q0 57 74 82q221 78 221 299q0 156 -94 248t-250 92q-287 0 -373 -258v-25q0 -377 -287 -475q-12 -4 -28 -4q-78 0 -78 82 q0 57 57 78q172 57 172 319q0 119 -143 205q-123 78 -250 78q-156 0 -250 -92.5t-94 -247.5q0 -102 63.5 -194.5t161.5 -108.5q70 -12 70 -82q0 -98 -94 -82q-160 25 -267 168q-98 131 -98 299z" />
<glyph unicode="&#x1024;" horiz-adv-x="2310" d="M0 -885q0 20 12 41q131 307 394 422q197 86 585 86q676 0 676 -344q0 -152 -164 -197q-41 -12 -69.5 14.5t-28.5 67.5q0 57 57 74q41 12 41 41q0 180 -512 180q-270 0 -495 -65q-324 -94 -324 -279q0 -16 8 -37q168 -152 754 -151q123 0 366.5 22.5t366.5 22.5 q328 0 365 135v1270q0 209 -95 413q-70 4 -135 17q172 -135 172 -381q0 -102 -41 -1348q-16 -41 -57 -41q8 0 -61 13q-45 8 -41 139q16 541 16 1233q0 156 -94 248t-250 92q-287 0 -373 -258v-25q0 -377 -287 -475q-12 -4 -28 -4q-78 0 -78 82q0 57 57 78q172 57 172 319 q0 119 -143 205q-123 78 -250 78q-156 0 -250 -92.5t-94 -247.5q0 -102 63.5 -194.5t161.5 -108.5q70 -12 70 -82q0 -98 -94 -82q-160 25 -267 168q-98 131 -98 299q0 221 143.5 362.5t364.5 141.5q274 0 463 -213q143 225 467 213q20 0 61 -4q-242 156 -241 450 q0 209 147.5 346t360.5 137q319 0 569 -131q180 -94 410 -319q32 -33 32 -82q0 -98 -69 -98q-20 0 -41 16q-221 217 -406 320q-238 131 -495 131q-139 0 -244 -92.5t-105 -227.5q0 -287 402 -377q238 4 311 -192q37 -98 53 -418q8 -160 9 -1241q0 -82 -21 -107 q-82 -229 -512 -229q-123 0 -366.5 -20.5t-366.5 -20.5q-401 0 -692 90q-78 25 -127 58q-49 8 -66 65q-49 49 -49 94z" />
<glyph unicode="&#x1025;" horiz-adv-x="1249" d="M-20 -453q0 659 36 770q4 70 86 70q45 0 70 -45q90 -180 344 -180q299 0 299 356q0 156 -88 252t-240 96q-193 0 -282 -200q-25 -49 -70 -50q-86 0 -86 78q0 20 8 37q135 299 430 299q225 0 358.5 -143.5t133.5 -368.5q0 -221 -119 -364q-127 -156 -344 -156 q-213 0 -348 98q-4 -66 -4 -549q0 -475 418 -475q98 0 192 74t94 168q0 111 -155 209q-45 29 -45 74q0 98 94 98q25 0 49 -17q242 -151 242 -364q0 -176 -145.5 -301t-325.5 -125q-283 0 -447 192q-156 180 -155 467z" />
<glyph unicode="&#x1026;" horiz-adv-x="1249" d="M-41 1522q0 229 188 376q172 135 410 136q238 0 410 -136q188 -147 188 -376q0 -225 -192 -357q-168 -115 -406 -114q-238 0 -405 114q-193 131 -193 357zM-20 -453q0 659 36 770q4 70 86 70q45 0 70 -45q90 -180 344 -180q299 0 299 356q0 156 -88 252t-240 96 q-193 0 -282 -200q-25 -49 -70 -50q-86 0 -86 78q0 20 8 37q135 299 430 299q225 0 358.5 -143.5t133.5 -368.5q0 -221 -119 -364q-127 -156 -344 -156q-213 0 -348 98q-4 -66 -4 -549q0 -475 418 -475q98 0 192 74t94 168q0 111 -155 209q-45 29 -45 74q0 98 94 98 q25 0 49 -17q242 -151 242 -364q0 -176 -145.5 -301t-325.5 -125q-283 0 -447 192q-156 180 -155 467zM131 1522q0 -172 164 -267q-4 25 -4 54q0 135 119 213q102 66 245 65q201 0 312 -168q16 50 16 103q0 168 -127 266t-299 98q-168 0 -291 -98q-135 -106 -135 -266z M451 1309q0 -49 24 -74q12 -8 70 -37h12q192 0 311 94q-16 8 -32 33q-61 102 -181 102q-70 0 -127 -24q-78 -33 -77 -94z" />
<glyph unicode="&#x1027;" horiz-adv-x="1146" d="M0 508q0 221 137 350t359 129q82 0 184 -33l180 -57q53 -16 58 -66q25 -37 0 -81q-53 -98 -172 -158t-238 -60q-180 0 -311 140q-33 -70 -33 -164q0 -98 37 -168q82 90 225 145.5t274 55.5q320 0 320 -246q0 -131 -148 -217q-127 -78 -266 -78q-74 0 -225.5 43t-224.5 84 q-12 12 -21 25q-135 119 -135 356zM307 225q102 -61 299 -61q66 0 152 37q102 41 102 94q0 57 -49 74q-12 4 -98 4q-102 0 -221 -37q-143 -45 -185 -111zM311 786q78 -94 197 -94q127 0 221 78q-147 53 -233 53q-106 0 -185 -37z" />
<glyph unicode="&#x1028;" horiz-adv-x="1249" d="M-20 -313v811q0 215 153.5 367.5t366.5 152.5t368 -152q61 -63 99 -135q51 -104 53 -231q2 -213 -152 -367q-147 -145 -348 -153q-31 -2 -53 2q-113 23 -172 159q-8 27 -14 64q8 66 43 88q59 39 186 86q92 41 92 78v16q0 53 -59 86q-39 10 -65.5 7t-52.5 -51t-26 -67.5 t7 -60.5q-14 -31 -41 -35h-15q-55 4 -74 62l-6 45v8q0 90 109 184q59 43 129 43q125 0 205 -141q14 -41 12 -90q-20 -193 -295 -246q-12 -27 41 -78q12 -2 32.5 -2t45.5 4q117 14 205 105q106 106 106 254q0 94 -45 170q-31 53 -82 98q-102 88 -233 88q-145 0 -252 -106.5 t-107 -251.5v-811q0 -145 106.5 -253t252.5 -108q147 0 253.5 104.5t106.5 256.5q0 82 82 82q80 0 80 -82q0 -221 -152.5 -373t-369.5 -152q-213 0 -366.5 156t-153.5 369z" />
<glyph unicode="&#x1029;" horiz-adv-x="2519" d="M-25 -631q0 152 13 430l12 279q4 61 0 155l-4 148l-21 815q-8 336 127 520q152 205 480 205l1007 -4q197 0 365 -82q209 -98 209 -274q0 -156 -127 -156q-78 0 -78 61q0 20 20 58l21 37q0 152 -402 192q-41 4 -1015 4q-250 0 -344 -160q-74 -123 -74 -389l-4 -823 q0 -127 -10.5 -387t-10.5 -395v-234q0 -373 455 -373h1012q492 0 491 517q0 369 -143 368q-12 0 -45 -8q-4 -78 -82 -78q-70 0 -82 70q-8 8 -8 24q4 29 49 82q66 74 168 74q307 0 307 -532q0 -680 -655 -680h-1012q-618 0 -619 536zM190 205l103 96q68 -76 184 -141 q109 -51 215 -51q113 0 201 65q82 68 125 150t43 182q0 113 -66 201q-51 72 -138 115.5t-181 43.5q-113 0 -213 -63q-92 -80 -92 -96l14 -35q25 -31 66 -37l36 10l68 -123l-53 -24l-51 -2q-39 0 -55.5 3t-57.5 26.5t-70 74.5q-33 45 -32 100q0 53 40.5 113.5t108.5 97.5 q133 92 293 93q127 0 237.5 -54.5t194.5 -174.5t84 -279v-39q0 -20 -6 -47q0 -47 41 -117l20 -23q53 -76 137 -118.5t181 -42.5q115 0 215 69q156 109 155 314q0 117 -59 206.5t-118.5 128.5t-129.5 39q-63 0 -135 -35.5t-154 -97.5l-90 103q66 66 173.5 117t203.5 51 q109 0 198 -53.5t163 -168.5q86 -133 86 -295q0 -129 -53.5 -233t-176.5 -191.5t-286 -87.5q-266 0 -420 220l-21 30q-51 -92 -139 -157q-66 -47 -139 -72q-39 -10 -75 -16.5t-77 -6.5q-135 0 -265 62.5t-233 169.5z" />
<glyph unicode="&#x102a;" horiz-adv-x="4698" d="M25 508q0 221 137 350t358 129q61 0 365 -90q57 -16 57 -74q0 -86 -78 -86q-49 0 -167.5 43t-176.5 43q-332 0 -332 -315q0 -98 37 -168q82 90 225.5 145.5t274.5 55.5q319 0 319 -246q0 -131 -147 -217q-127 -78 -266 -78q-274 0 -426 115q-33 12 -45 37 q-135 119 -135 356zM332 225q102 -61 299 -61q66 0 151 37q103 41 103 94q0 57 -49 74q-12 4 -99 4q-102 0 -221 -37q-143 -45 -184 -111zM1202 -631q0 152 12 430l13 279q4 61 0 155l-4 148l-21 815q-8 336 127 520q152 205 479 205l1008 -4q197 0 365 -82 q209 -98 208 -274q0 -156 -127 -156q-78 0 -77 61q0 20 20 58l21 37q0 152 -402 192q-41 4 -1016 4q-250 0 -344 -160q-74 -123 -73 -389l-5 -823q0 -127 -10 -387t-10 -395v-234q0 -373 455 -373h1011q492 0 492 517q0 369 -143 368q-12 0 -46 -8q-4 -78 -81 -78 q-70 0 -82 70q-8 8 -9 24q4 29 50 82q66 74 168 74q307 0 307 -532q0 -680 -656 -680h-1011q-618 0 -619 536zM1417 205l103 96q68 -76 184 -141q109 -51 215 -51q113 0 201 65q82 68 125 150t43 182q0 113 -66 201q-51 72 -138 115.5t-181 43.5q-113 0 -213 -63 q-92 -80 -93 -96l15 -35q25 -31 65 -37l37 10l68 -123l-53 -24l-52 -2q-39 0 -55 3t-57 26.5t-70 74.5q-33 45 -33 100q0 53 41 113.5t109 97.5q133 92 293 93q127 0 237.5 -54.5t194.5 -174.5t84 -279v-39q0 -20 -6 -47q0 -47 41 -117l20 -23q53 -76 137 -118.5t180 -42.5 q115 0 216 69q156 109 155 314q0 117 -59.5 206.5t-118.5 128.5t-129 39q-63 0 -135 -35.5t-154 -97.5l-90 103q66 66 173.5 117t203.5 51q109 0 197.5 -53.5t162.5 -168.5q86 -133 86 -295q0 -129 -53 -233t-176 -191.5t-287 -87.5q-266 0 -420 220l-20 30 q-51 -92 -139 -157q-66 -47 -140 -72q-39 -10 -74.5 -16.5t-76.5 -6.5q-135 0 -265 62.5t-233 169.5zM3324 590q98 512 598 512q233 0 360 -180q115 -160 115 -402q0 -184 -90 -327q-98 -160 -274 -173q-41 -33 -91 -4q-111 66 -114 181l-8 24h8q0 106 94 221q29 33 61 33 q82 0 82 -82q0 -29 -20 -53q-57 -70 -58 -127q0 -20 5 -29h12q115 0 180 115q53 94 53 221q0 172 -69 287q-82 135 -246 135q-176 0 -291 -102.5t-147 -278.5q-12 -66 -78 -65q-37 0 -63.5 28.5t-18.5 65.5zM3422 1569q0 213 147.5 348t360.5 135q319 0 569 -131 q180 -94 410 -319q33 -33 33 -82q0 -98 -70 -99q-20 0 -41 17q-221 217 -405 319q-238 131 -496 131q-139 0 -243.5 -92t-104.5 -227q0 -328 524 -398q41 -4 74 -47t33 -84q0 -53 -58 -53q-307 0 -503 135q-229 156 -230 447z" />
<glyph unicode="&#x102b;" horiz-adv-x="1501" d="M12 518q0 31 2 60.5t11 54.5l122 -21q-8 -23 -9 -45t-1 -49q0 -25 1 -47.5t9 -42.5l-122 -22q-12 47 -13 112zM82 248l100 74q49 -83 129 -134l-69 -102q-98 63 -160 162zM82 791q31 49 71 89t89 70l69 -102q-80 -49 -129 -131zM145 1491q0 242 201 393q180 139 430 139 q328 0 463 -213q106 -172 107 -520q0 106 -13 -319q-4 -143 13 -312q8 -86 0 -282q-8 -193 20 -271q4 -16 4 -28q0 -78 -86 -78q-61 0 -85.5 90t-41.5 442q-8 180 -8 148v8q0 98 16.5 297t16.5 297q0 287 -62 406q-90 172 -344 172q-184 0 -319 -91q-152 -102 -152 -278 q0 -115 86 -205t201 -90t115 45q0 82 81 82q78 0 78 -82q0 -98 -84 -151.5t-190 -53.5q-180 0 -313.5 137.5t-133.5 317.5zM410 12l20 123q25 -8 47.5 -9t44.5 -1q23 0 45.5 1t44.5 9l21 -123q-61 -12 -111 -12q-51 0 -112 12zM410 1028q61 14 112 14q50 0 111 -14l-21 -125 q-23 6 -45 9t-45 3t-45 -3t-47 -9zM733 188q82 51 131 134l97 -74q-59 -98 -156 -162zM733 848l72 102q49 -31 88 -70.5t68 -88.5l-97 -74q-51 82 -131 131zM899 428q12 43 12 90q0 49 -12 94l121 21q12 -54 12 -115q0 -59 -12 -112z" />
<glyph unicode="&#x102c;" horiz-adv-x="2347" d="M12 518q0 31 2 60.5t11 54.5l122 -21q-8 -23 -9 -45t-1 -49q0 -25 1 -47.5t9 -42.5l-122 -22q-12 47 -13 112zM82 248l100 74q49 -83 129 -134l-69 -102q-98 63 -160 162zM82 791q31 49 71 89t89 70l69 -102q-80 -49 -129 -131zM410 12l20 123q25 -8 47.5 -9t44.5 -1 q23 0 45.5 1t44.5 9l21 -123q-61 -12 -111 -12q-51 0 -112 12zM410 1028q61 14 112 14q50 0 111 -14l-21 -125q-23 6 -45 9t-45 3t-45 -3t-47 -9zM733 188q82 51 131 134l97 -74q-59 -98 -156 -162zM733 848l72 102q49 -31 88 -70.5t68 -88.5l-97 -74q-51 82 -131 131z M899 428q12 43 12 90q0 49 -12 94l121 21q12 -54 12 -115q0 -59 -12 -112zM1085 494q98 512 598 512q233 0 361 -181q115 -159 115 -401q0 -184 -91 -328q-98 -160 -274 -172q-41 -33 -90 -4q-111 66 -115 180l-8 25h8q0 106 94 221q29 33 62 33q82 0 82 -82q0 -29 -21 -53 q-57 -70 -57 -127q0 -20 4 -29h12q115 0 181 115q53 94 53 221q0 172 -70 287q-82 135 -246 135q-176 0 -290.5 -102.5t-147.5 -278.5q-12 -66 -78 -66q-37 0 -63.5 29t-18.5 66z" />
<glyph unicode="&#x102d;" horiz-adv-x="1183" d="M-29 1376q0 229 189 377q172 135 409 135q238 0 410 -135q188 -148 188 -377q0 -225 -192 -356q-168 -115 -406 -115t-405 115q-193 131 -193 356zM12 518q0 31 2 60.5t11 54.5l122 -21q-8 -23 -9 -45t-1 -49q0 -25 1 -47.5t9 -42.5l-122 -22q-12 47 -13 112zM82 248 l100 74q49 -83 129 -134l-69 -102q-98 63 -160 162zM82 791q31 49 71 89t89 70l69 -102q-80 -49 -129 -131zM143 1376q0 -164 140 -250q115 -74 286 -73q172 0 287 73q139 86 139 250q0 168 -127 266.5t-299 98.5q-168 0 -290 -99q-135 -106 -136 -266zM410 12l20 123 q25 -8 47.5 -9t44.5 -1q23 0 45.5 1t44.5 9l21 -123q-61 -12 -111 -12q-51 0 -112 12zM410 1028q61 14 112 14q50 0 111 -14l-21 -125q-23 6 -45 9t-45 3t-45 -3t-47 -9zM733 188q82 51 131 134l97 -74q-59 -98 -156 -162zM733 848l72 102q49 -31 88 -70.5t68 -88.5l-97 -74 q-51 82 -131 131zM899 428q12 43 12 90q0 49 -12 94l121 21q12 -54 12 -115q0 -59 -12 -112z" />
<glyph unicode="&#x102e;" horiz-adv-x="1191" d="M-29 1376q0 229 189 377q172 135 409 135q238 0 410 -135q188 -148 188 -377q0 -225 -192 -356q-168 -115 -406 -115t-405 115q-193 131 -193 356zM12 518q0 31 2 60.5t11 54.5l122 -21q-8 -23 -9 -45t-1 -49q0 -25 1 -47.5t9 -42.5l-122 -22q-12 47 -13 112zM82 248 l100 74q49 -83 129 -134l-69 -102q-98 63 -160 162zM82 791q31 49 71 89t89 70l69 -102q-80 -49 -129 -131zM143 1376q0 -172 164 -266q-4 25 -4 53q0 135 119 213q102 66 246 66q201 0 311 -168q16 49 16 102q0 168 -127 266.5t-299 98.5q-168 0 -290 -99 q-135 -106 -136 -266zM410 12l20 123q25 -8 47.5 -9t44.5 -1q23 0 45.5 1t44.5 9l21 -123q-61 -12 -111 -12q-51 0 -112 12zM410 1028q61 14 112 14q50 0 111 -14l-21 -125q-23 6 -45 9t-45 3t-45 -3t-47 -9zM463 1163q0 -49 24 -73q12 -8 70 -37h12q193 0 312 94 q-16 8 -33 33q-61 102 -180 102q-70 0 -127 -25q-78 -33 -78 -94zM733 188q82 51 131 134l97 -74q-59 -98 -156 -162zM733 848l72 102q49 -31 88 -70.5t68 -88.5l-97 -74q-51 82 -131 131zM899 428q12 43 12 90q0 49 -12 94l121 21q12 -54 12 -115q0 -59 -12 -112z" />
<glyph unicode="&#x102f;" horiz-adv-x="1183" d="M12 518q0 31 2 60.5t11 54.5l122 -21q-8 -23 -9 -45t-1 -49q0 -25 1 -47.5t9 -42.5l-122 -22q-6 23 -9.5 51t-3.5 61zM82 248l100 74q49 -83 129 -134l-69 -102q-98 66 -160 162zM82 791q62 96 160 159l69 -102q-80 -49 -129 -131zM393 -461q0 336 25 504q12 82 90 82 q106 0 90 -107q-16 -102 -25 -229q-4 -57 0 -151l5 -99q20 -475 417 -475q98 0 192.5 74t94.5 168v57q-8 4 -25 21q-45 37 -45 73q0 98 95 99q12 -4 49 -17q110 -40 110 -233q0 -176 -145 -301t-326 -125q-283 0 -446 192q-156 180 -156 467zM410 12l20 123q25 -8 47.5 -9 t44.5 -1q23 0 45 1t45 9l21 -123q-61 -12 -111 -12q-51 0 -112 12zM410 1028q31 6 58.5 10t53.5 4q14 0 42 -4t69 -10l-21 -125q-23 6 -45 9t-45 3t-45 -3t-47 -9zM733 188q80 50 131 134l97 -74q-59 -98 -156 -162zM733 848l72 102q97 -61 156 -159l-97 -74 q-51 80 -131 131zM899 428q12 43 12 90q0 49 -12 94l121 21q12 -54 12 -115q0 -59 -12 -112z" />
<glyph unicode="&#x1030;" horiz-adv-x="1212" d="M12 518q0 31 2 60.5t11 54.5l122 -21q-8 -23 -9 -45t-1 -49q0 -25 1 -47.5t9 -42.5l-122 -22q-6 23 -9.5 51t-3.5 61zM82 248l100 74q49 -83 129 -134l-69 -102q-98 66 -160 162zM82 791q62 96 160 159l69 -102q-80 -49 -129 -131zM309 -27h135v-1038h-135v1038zM410 12 l20 123q25 -8 47.5 -9t44.5 -1q23 0 45 1t45 9l21 -123q-61 -12 -111 -12q-51 0 -112 12zM410 1028q31 6 58.5 10t53.5 4q14 0 42 -4t69 -10l-21 -125q-23 6 -45 9t-45 3t-45 -3t-47 -9zM582 -27h137v-591q16 -57 36.5 -95.5t67.5 -85.5q80 -86 185 -116q66 -16 91 -21.5 t107 -5.5q225 20 369 106q147 78 147 197q0 61 -55 141l117 74q37 -61 55.5 -117.5t18.5 -109.5q0 -184 -211 -316q-190 -113 -426 -112q-113 0 -169.5 9t-121.5 36q-117 41 -205 139q-51 49 -86 117q-33 55 -53 129l-4 14v608zM733 188q80 50 131 134l97 -74 q-59 -98 -156 -162zM733 848l72 102q97 -61 156 -159l-97 -74q-51 80 -131 131zM899 428q12 43 12 90q0 49 -12 94l121 21q12 -54 12 -115q0 -59 -12 -112z" />
<glyph unicode="&#x1031;" horiz-adv-x="2299" d="M0 508q0 221 137 350t359 129q61 0 364 -90q57 -16 58 -74q0 -86 -78 -86q-49 0 -168 43t-176 43q-332 0 -332 -315q0 -98 37 -168q82 90 225 145.5t274 55.5q320 0 320 -246q0 -131 -148 -217q-127 -78 -266 -78q-274 0 -426 115q-33 12 -45 37q-135 119 -135 356z M307 225q102 -61 299 -61q66 0 152 37q102 41 102 94q0 57 -49 74q-12 4 -98 4q-102 0 -221 -37q-143 -45 -185 -111zM1079 518q0 31 2 60.5t9 54.5l120 -21q-4 -23 -6 -45t-2 -49q0 -25 2 -47.5t6 -42.5l-120 -22q-10 47 -11 112zM1147 248l100 74q47 -83 129 -134 l-69 -102q-98 63 -160 162zM1147 791q31 49 69.5 89t90.5 70l69 -102q-82 -49 -129 -131zM1475 12l20 123q25 -8 47.5 -9t44.5 -1q25 0 47.5 1t44.5 9l21 -123q-63 -12 -113 -12q-49 0 -112 12zM1475 1028q63 14 112 14q50 0 113 -14l-21 -125q-23 6 -45 9t-47 3 q-23 0 -45 -3t-47 -9zM1800 188q80 51 127 134l101 -74q-61 -98 -160 -162zM1800 848l68 102q51 -31 90 -70.5t70 -88.5l-101 -74q-47 82 -127 131zM1964 428q10 43 10 90q0 49 -10 94l123 21q10 -54 10 -115q0 -59 -10 -112z" />
<glyph unicode="&#x1032;" horiz-adv-x="1191" d="M12 518q0 31 2 60.5t11 54.5l122 -21q-8 -23 -9 -45t-1 -49q0 -25 1 -47.5t9 -42.5l-122 -22q-12 47 -13 112zM82 248l100 74q49 -83 129 -134l-69 -102q-98 63 -160 162zM82 791q31 49 71 89t89 70l69 -102q-80 -49 -129 -131zM174 1583q0 35 23.5 61.5t58.5 26.5 q29 0 51 -18l500 -383q25 -20 29 -64q0 -35 -24 -59.5t-58 -24.5q-29 0 -49 17l-500 383q-25 20 -31 61zM410 12l20 123q25 -8 47.5 -9t44.5 -1q23 0 45.5 1t44.5 9l21 -123q-61 -12 -111 -12q-51 0 -112 12zM410 1028q61 14 112 14q50 0 111 -14l-21 -125q-23 6 -45 9 t-45 3t-45 -3t-47 -9zM733 188q82 51 131 134l97 -74q-59 -98 -156 -162zM733 848l72 102q49 -31 88 -70.5t68 -88.5l-97 -74q-51 82 -131 131zM899 428q12 43 12 90q0 49 -12 94l121 21q12 -54 12 -115q0 -59 -12 -112z" />
<glyph unicode="&#x1033;" horiz-adv-x="1183" d="M12 518q0 31 2 60.5t11 54.5l122 -21q-8 -23 -9 -45t-1 -49q0 -25 1 -47.5t9 -42.5l-122 -22q-12 47 -13 112zM82 248l100 74q49 -83 129 -134l-69 -102q-98 63 -160 162zM82 791q31 49 71 89t89 70l69 -102q-80 -49 -129 -131zM92 1497q-2 174 120 297t294 127 q174 2 295 -123t125 -301q2 -178 -120 -296t-300 -122q-168 -2 -290 121t-124 297zM254 1499q-2 -106 72.5 -183t179.5 -77q109 0 182.5 75.5t75.5 184.5q2 104 -75 181t-183 79q-102 4 -176 -73.5t-76 -186.5zM362 1503q-2 59 40 100.5t104 43.5q61 2 104 -41.5t43 -102.5 q4 -61 -41 -104t-106 -45q-61 -4 -101 42t-43 107zM410 12l20 123q25 -8 47.5 -9t44.5 -1q23 0 45.5 1t44.5 9l21 -123q-61 -12 -111 -12q-51 0 -112 12zM410 1028q61 14 112 14q50 0 111 -14l-21 -125q-23 6 -45 9t-45 3t-45 -3t-47 -9zM473 1503q-2 -39 33 -39 q37 -2 37 39q2 31 -37 33q-31 0 -33 -33zM733 188q82 51 131 134l97 -74q-59 -98 -156 -162zM733 848l72 102q49 -31 88 -70.5t68 -88.5l-97 -74q-51 82 -131 131zM899 428q12 43 12 90q0 49 -12 94l121 21q12 -54 12 -115q0 -59 -12 -112z" />
<glyph unicode="&#x1034;" horiz-adv-x="1191" d="M12 518q0 31 2 60.5t11 54.5l122 -21q-8 -23 -9 -45t-1 -49q0 -25 1 -47.5t9 -42.5l-122 -22q-12 47 -13 112zM82 248l100 74q49 -83 129 -134l-69 -102q-98 63 -160 162zM82 791q31 49 71 89t89 70l69 -102q-80 -49 -129 -131zM174 1206q4 43 29 64l499 383q23 18 52 18 q35 0 58.5 -26.5t23.5 -61.5q-6 -41 -31 -61l-500 -383q-20 -16 -49 -17q-35 0 -58.5 24.5t-23.5 59.5zM410 12l20 123q25 -8 47.5 -9t44.5 -1q23 0 45.5 1t44.5 9l21 -123q-61 -12 -111 -12q-51 0 -112 12zM410 1028q61 14 112 14q50 0 111 -14l-21 -125q-23 6 -45 9t-45 3 t-45 -3t-47 -9zM733 188q82 51 131 134l97 -74q-59 -98 -156 -162zM733 848l72 102q49 -31 88 -70.5t68 -88.5l-97 -74q-51 82 -131 131zM899 428q12 43 12 90q0 49 -12 94l121 21q12 -54 12 -115q0 -59 -12 -112z" />
<glyph unicode="&#x1035;" horiz-adv-x="1191" d="M12 518q0 31 2 60.5t9 54.5l122 -21q-6 -23 -7 -45t-1 -49q0 -25 1 -47.5t7 -42.5l-122 -22q-4 23 -7.5 51t-3.5 61zM76 1559q12 197 143 305t328 96q55 -4 317 -100q53 -18 49 -68q-4 -76 -73 -72q-45 2 -148.5 47t-154.5 48q-297 18 -316 -265q-4 -86 29 -153 q74 76 206 117.5t246 33.5q287 -16 275 -237q-8 -117 -143 -185q-121 -61 -244 -53q-244 14 -375 121q-29 20 -39 39q-113 115 -100 326zM82 248l100 74q23 -41 54.5 -75t72.5 -59l-67 -102q-98 66 -160 162zM82 791q31 49 70 88.5t90 70.5l67 -102q-41 -25 -72.5 -56.5 t-54.5 -74.5zM332 1290q92 -61 266 -73q59 -2 137 28q92 31 94 76q2 51 -34 68q-10 6 -93 10q-90 6 -196 -17q-129 -35 -174 -92zM410 12l20 123q23 -8 45.5 -9t46.5 -1q23 0 45 1t45 9l21 -123q-61 -12 -111 -12q-51 0 -112 12zM410 1028q31 6 58.5 10t53.5 4q14 0 42 -4 t69 -10l-21 -125q-23 6 -45 9t-45 3q-25 0 -47 -3t-45 -9zM733 188q82 52 129 134l99 -74q-59 -98 -158 -162zM733 848l70 102q51 -31 90 -70.5t68 -88.5l-99 -74q-51 82 -129 131zM899 428q12 43 12 90q0 49 -12 94l121 21q4 -27 7 -55.5t3 -59.5q0 -29 -3 -57.5t-7 -54.5z " />
<glyph unicode="&#x1036;" horiz-adv-x="1191" d="M12 518q0 31 2 60.5t11 54.5l122 -21q-8 -23 -9 -45t-1 -49q0 -25 1 -47.5t9 -42.5l-122 -22q-12 47 -13 112zM82 248l100 74q49 -83 129 -134l-69 -102q-98 63 -160 162zM82 791q31 49 71 89t89 70l69 -102q-80 -49 -129 -131zM295 1386q-2 86 59.5 146.5t149.5 62.5 q88 4 150.5 -59.5t66.5 -149.5q4 -90 -62.5 -153.5t-154.5 -65.5q-88 -4 -147.5 62.5t-61.5 156.5zM410 12l20 123q25 -8 47.5 -9t44.5 -1q23 0 45.5 1t44.5 9l21 -123q-61 -12 -111 -12q-51 0 -112 12zM410 1028q61 14 112 14q50 0 111 -14l-21 -125q-23 6 -45 9t-45 3 t-45 -3t-47 -9zM457 1386q-2 -55 47 -57q53 -2 55 57q2 45 -55 48q-45 2 -47 -48zM733 188q82 51 131 134l97 -74q-59 -98 -156 -162zM733 848l72 102q49 -31 88 -70.5t68 -88.5l-97 -74q-51 82 -131 131zM899 428q12 43 12 90q0 49 -12 94l121 21q12 -54 12 -115 q0 -59 -12 -112z" />
<glyph unicode="&#x1037;" horiz-adv-x="1212" d="M12 518q0 31 2 60.5t11 54.5l122 -21q-8 -23 -9 -45t-1 -49q0 -25 1 -47.5t9 -42.5l-122 -22q-12 47 -13 112zM82 248l100 74q49 -83 129 -134l-69 -102q-98 63 -160 162zM82 791q31 49 71 89t89 70l69 -102q-80 -49 -129 -131zM375 -375q0 82 52 129t136 47 q80 0 137.5 -55t57.5 -131q0 -78 -58.5 -139.5t-136.5 -61.5t-133 64.5t-55 146.5zM410 12l20 123q25 -8 47.5 -9t44.5 -1q23 0 45.5 1t44.5 9l21 -123q-61 -12 -111 -12q-51 0 -112 12zM410 1028q61 14 112 14q50 0 111 -14l-21 -125q-23 6 -45 9t-45 3t-45 -3t-47 -9z M516 -371q0 -72 47 -71q55 0 55 57q0 49 -55 49q-47 0 -47 -35zM733 188q82 51 131 134l97 -74q-59 -98 -156 -162zM733 848l72 102q49 -31 88 -70.5t68 -88.5l-97 -74q-51 82 -131 131zM899 428q12 43 12 90q0 49 -12 94l121 21q12 -54 12 -115q0 -59 -12 -112z" />
<glyph unicode="&#x1038;" horiz-adv-x="512" d="M35 262q0 92 64.5 157.5t156.5 65.5t156.5 -65.5t64.5 -157.5t-64.5 -156.5t-156.5 -64.5t-156.5 64.5t-64.5 156.5zM35 748q0 92 64.5 156.5t156.5 64.5t156.5 -64.5t64.5 -156.5t-64.5 -157t-156.5 -65t-156.5 64.5t-64.5 157.5zM170 262q0 -37 20.5 -57.5t65.5 -26.5 q37 0 57.5 20.5t28.5 63.5q0 39 -20.5 59.5t-65.5 26.5q-37 0 -57.5 -20.5t-28.5 -65.5zM170 748q0 -37 20.5 -57.5t65.5 -28.5q37 0 57.5 20.5t28.5 65.5q0 37 -20.5 57t-65.5 29q-37 0 -57.5 -20.5t-28.5 -65.5z" />
<glyph unicode="&#x1039;" horiz-adv-x="2541" d="M2 20v312h123v-312h-123zM2 -49h123v-309h-123v309zM2 399v310h123v-310h-123zM2 -446h123v-187h184v-123h-141h-82q-55 -2 -84 -2v312zM2 780v310h123v-310h-123zM2 1159v309h307v-120h-184v-189h-123zM399 -633h308v-123h-308v123zM399 1348v122h308v-122h-308z M608 518q0 31 2 60.5t8 54.5l123 -21q-6 -23 -7 -45t-1 -49q0 -25 1 -47.5t7 -42.5l-123 -22q-10 47 -10 112zM678 248l100 74q47 -83 127 -134l-67 -102q-98 63 -160 162zM678 791q31 49 69.5 89t90.5 70l67 -102q-80 -49 -127 -131zM799 -633h305v-123h-305v123zM799 1348 v122h305v-122h-305zM891 -281h184v164h107v-164h155v-104h-155v-166h-107v166h-184v104zM1006 12l20 123q23 -8 45.5 -9t46.5 -1q23 0 45.5 1t44.5 9l21 -123q-61 -12 -111 -12q-51 0 -112 12zM1006 1028q61 14 112 14q50 0 111 -14l-21 -125q-23 6 -45 9t-45 3 q-25 0 -47 -3t-45 -9zM1196 -633h305v-123h-305v123zM1196 1348v122h305v-122h-305zM1329 188q82 51 129 134l98 -74q-59 -98 -157 -162zM1329 848l70 102q51 -31 89.5 -70.5t67.5 -88.5l-98 -74q-49 82 -129 131zM1495 428q12 43 12 90q0 49 -12 94l121 21q10 -54 10 -115 q0 -59 -10 -112zM1593 -633h308v-123h-308v123zM1593 1348v122h308v-122h-308zM1663 -764l84 8h244v123h180v187h123v-144q0 -27 2 -82t2 -84zM1991 1348v122h307v-163q0 -25 -2 -74t-2 -74h-123v189h-180zM2171 20v312h123v-312h-123zM2171 -49h123v-309h-123v309z M2171 399v310h123v-310h-123zM2171 780v310h123v-310h-123z" />
<glyph unicode="&#x103a;" horiz-adv-x="1200" d="M-143 1413q0 213 147.5 348t360.5 135q319 0 569 -131q180 -94 409 -319q33 -33 33 -82q0 -98 -69 -98q-20 0 -41 16q-221 217 -406 320q-238 131 -495 131q-139 0 -244 -92.5t-105 -227.5q0 -328 525 -397q41 -4 73.5 -47t32.5 -84q0 -53 -57 -54q-307 0 -504 136 q-229 156 -229 446zM12 518q0 31 2 60.5t11 54.5l122 -21q-8 -23 -9 -45t-1 -49q0 -25 1 -47.5t9 -42.5l-122 -22q-6 23 -9.5 51t-3.5 61zM82 248l100 74q49 -83 129 -134l-69 -102q-98 66 -160 162zM82 791q62 96 160 159l69 -102q-80 -49 -129 -131zM410 12l20 123 q25 -8 47.5 -9t44.5 -1q23 0 45 1t45 9l21 -123q-61 -12 -111 -12q-51 0 -112 12zM410 1028q31 6 58.5 10t53.5 4q14 0 42 -4t69 -10l-21 -125q-23 6 -45 9t-45 3t-45 -3t-47 -9zM733 188q80 50 131 134l97 -74q-59 -98 -156 -162zM733 848l72 102q97 -61 156 -159l-97 -74 q-51 80 -131 131zM899 428q12 43 12 90q0 49 -12 94l121 21q12 -54 12 -115q0 -59 -12 -112z" />
<glyph unicode="&#x103b;" horiz-adv-x="1585" d="M12 518q0 31 2 60.5t11 54.5l122 -21q-8 -23 -9 -45t-1 -49q0 -25 1 -47.5t9 -42.5l-122 -22q-6 23 -9.5 51t-3.5 61zM82 248l100 74q49 -83 129 -134l-69 -102q-98 66 -160 162zM82 791q62 96 160 159l69 -102q-80 -49 -129 -131zM244 -512q0 270 141 410 q123 123 317 122q129 0 232 -126q96 -133 96 -267q10 -115 -68.5 -209t-187.5 -94q-51 0 -106.5 34t-102.5 99l109 82q61 -78 117 -78q37 0 61.5 41t40.5 125q10 66 -66 172q-74 94 -125 84q-154 0 -233 -71q-88 -88 -88 -324q0 -109 32.5 -180.5t137.5 -188.5 q41 -45 123 -75.5t174 -30.5q76 0 134 17.5t99 68.5q31 20 62 117l47 163v1536h137v-1554l-4 -10q-10 -33 -16 -72q-18 -61 -31 -98q-31 -113 -100 -174q-57 -61 -146 -99q-96 -35 -184 -34q-240 0 -389 149q-111 111 -162 221.5t-51 243.5zM410 12l20 123q25 -8 47.5 -9 t44.5 -1q23 0 45 1t45 9l21 -123q-61 -12 -111 -12q-51 0 -112 12zM410 1028q31 6 58.5 10t53.5 4q14 0 42 -4t69 -10l-21 -125q-23 6 -45 9t-45 3t-45 -3t-47 -9zM733 188q80 50 131 134l97 -74q-59 -98 -156 -162zM733 848l72 102q97 -61 156 -159l-97 -74 q-51 80 -131 131zM899 428q12 43 12 90q0 49 -12 94l121 21q12 -54 12 -115q0 -59 -12 -112z" />
<glyph unicode="&#x103c;" horiz-adv-x="1613" d="M-25 -631q0 152 13 430l12 279q4 61 0 155l-4 148l-21 815q-16 725 607 725q213 0 397 -74q242 -98 242 -286q0 -156 -127 -156q-78 0 -78 61q0 20 20 58l21 37q0 98 -201 155q-143 41 -274 41q-250 0 -344 -160q-74 -123 -74 -389l-4 -823q0 -127 -10.5 -387t-10.5 -395 v-234q0 -373 525 -373q492 0 491 517q0 369 -143 368q-12 0 -45 -8q-4 -78 -82 -78q-70 0 -82 70q-8 8 -8 24q4 29 49 82q66 74 168 74q307 0 307 -532q0 -680 -655 -680q-688 0 -689 536zM291 518q0 31 2 60.5t10 54.5l123 -21q-8 -23 -9 -45t-1 -49q0 -25 1 -47.5t9 -42.5 l-123 -22q-12 47 -12 112zM362 248l101 74q23 -41 55.5 -75t71.5 -59l-70 -102q-96 63 -158 162zM362 791q58 98 158 159l70 -102q-39 -25 -72 -56.5t-55 -74.5zM690 12l21 123q23 -8 45 -9t45 -1t45 1t47 9l20 -123q-61 -12 -112 -12q-49 0 -111 12zM690 1028q41 6 68.5 10 t42.5 4q27 0 54 -4t58 -10l-20 -125q-49 12 -92 12q-47 0 -90 -12zM1012 188q80 52 129 134l100 -74q-59 -98 -158 -162zM1012 848l71 102q97 -61 158 -159l-100 -74q-49 82 -129 131zM1180 428q4 23 6 45.5t2 44.5q0 25 -2 48.5t-6 45.5l118 21q13 -35 13 -115 q0 -78 -13 -112z" />
<glyph unicode="&#x103d;" horiz-adv-x="1241" d="M-86 -557q0 258 192.5 426t454.5 168t454.5 -168t192.5 -426t-192.5 -426t-454.5 -168t-454.5 168t-192.5 426zM12 518q0 31 2 60.5t11 54.5l122 -21q-8 -23 -9 -45t-1 -49q0 -25 1 -47.5t9 -42.5l-122 -22q-12 47 -13 112zM78 -557q0 -188 147.5 -309t335.5 -121 q193 0 338 121t145 309q0 193 -143 311.5t-340 118.5q-188 0 -335.5 -121t-147.5 -309zM82 248l100 74q49 -83 129 -134l-69 -102q-98 63 -160 162zM82 791q31 49 71 89t89 70l69 -102q-80 -49 -129 -131zM410 12l20 123q25 -8 47.5 -9t44.5 -1q23 0 45.5 1t44.5 9l21 -123 q-61 -12 -111 -12q-51 0 -112 12zM410 1028q61 14 112 14q50 0 111 -14l-21 -125q-23 6 -45 9t-45 3t-45 -3t-47 -9zM733 188q82 51 131 134l97 -74q-59 -98 -156 -162zM733 848l72 102q49 -31 88 -70.5t68 -88.5l-97 -74q-51 82 -131 131zM899 428q12 43 12 90q0 49 -12 94 l121 21q12 -54 12 -115q0 -59 -12 -112z" />
<glyph unicode="&#x103e;" horiz-adv-x="1191" d="M-381 -729q0 197 111 233l49 17q94 0 94 -99q0 -37 -45 -73q-16 -16 -25 -21v-57q0 -94 94.5 -168t192.5 -74q397 0 418 475l4 99q4 94 0 151q-8 127 -25 230q-16 106 91 106q78 0 90 -82q24 -168 24 -504q0 -287 -155 -467q-164 -193 -447 -192q-180 0 -325.5 125 t-145.5 301zM12 518q0 31 2 60.5t11 54.5l122 -21q-8 -23 -9 -45t-1 -49q0 -25 1 -47.5t9 -42.5l-122 -22q-6 23 -9.5 51t-3.5 61zM82 248l100 74q49 -83 129 -134l-69 -102q-98 66 -160 162zM82 791q62 96 160 159l69 -102q-80 -49 -129 -131zM410 12l20 123q25 -8 47.5 -9 t44.5 -1q23 0 45 1t45 9l21 -123q-61 -12 -111 -12q-51 0 -112 12zM410 1028q31 6 58.5 10t53.5 4q14 0 42 -4t69 -10l-21 -125q-23 6 -45 9t-45 3t-45 -3t-47 -9zM733 188q80 50 131 134l97 -74q-59 -98 -156 -162zM733 848l72 102q97 -61 156 -159l-97 -74 q-51 80 -131 131zM899 428q12 43 12 90q0 49 -12 94l121 21q12 -54 12 -115q0 -59 -12 -112z" />
<glyph unicode="&#x103f;" horiz-adv-x="3043" d="M-66 344q0 98 103 98q41 0 61 -36q78 -131 135 -177q111 -86 332 -86q156 0 254.5 86t98.5 242q0 168 -113 268.5t-285 100.5q-168 0 -311 -107q-20 -16 -49 -16q-82 0 -82 82q0 41 33 65q184 139 409 140q221 0 379 -129.5t178 -346.5q16 -20 17 -49q0 -131 114 -213 q102 -74 238 -73q106 0 206.5 65.5t137.5 163.5q-4 29 -4 61q0 29 16 49q-16 168 -172 259q-131 78 -311 77q-82 0 -82 82t82 82q258 0 442 -135q205 -147 205 -397q0 -45 -12 -90q45 -266 393 -267q406 0 406 451q0 164 -102.5 278.5t-266.5 114.5q-49 0 -70 -4 q-37 -12 -69.5 14.5t-32.5 63.5q0 90 172 90q242 0 387 -155.5t145 -401.5q0 -287 -143 -450.5t-426 -163.5q-369 0 -496 196q-131 -147 -405 -147q-270 0 -426 192q-135 -242 -455 -241q-283 0 -426 98q-78 53 -192 221q-12 16 -13 45z" />
<glyph unicode="&#x1040;" horiz-adv-x="1196" d="M8 442q0 356 258 467q135 78 357 78q53 0 114 -29q147 -33 241.5 -167.5t94.5 -290.5q0 -225 -141 -364.5t-367 -139.5q-201 0 -368 123q-188 131 -189 323zM172 442q0 -119 143 -204q123 -78 250 -78q156 0 250 92t94 248q0 168 -135 266q-33 -4 -65 16l-33 21l-25 8 q-25 12 -28 12q-139 0 -246 -41q-12 -12 -33 -20h-4q-16 -20 -66 -37q-102 -82 -102 -283z" />
<glyph unicode="&#x1041;" horiz-adv-x="1236" d="M-152 524q0 82 86 82q41 0 66 -41q123 -217 238 -307q147 -115 368 -115q156 0 254 86t98 242q0 168 -112.5 268.5t-284.5 100.5q-168 0 -311 -107q-20 -16 -49 -16q-82 0 -82 82q0 41 33 65q184 139 409 140q246 0 403.5 -145.5t157.5 -387.5q0 -225 -145.5 -358 t-370.5 -133q-287 0 -479 159q-131 106 -266 344q-12 20 -13 41z" />
<glyph unicode="&#x1042;" horiz-adv-x="1183" d="M-213 -508q0 184 172 418q25 33 66 33q82 0 81 -82q0 -25 -16 -49q-139 -193 -139 -320q0 -209 121 -334t329 -125q20 0 41 4l9 13q12 0 49 4q102 57 135 57q16 0 24 -4q221 115 209 418l-24 717q-20 594 -37 704q-16 106 90 107q82 0 90 -82q66 -639 66 -1446 q0 -287 -156 -467q-164 -193 -446 -193q-16 0 -25 5h-25q-279 0 -446.5 172t-167.5 450z" />
<glyph unicode="&#x1043;" horiz-adv-x="1183" d="M8 295q0 86 70 86q57 0 110 -53l29 -29q147 -147 381 -147q143 0 235.5 77.5t92.5 216.5q0 152 -102.5 260.5t-254.5 108.5q-213 0 -376 -164q-25 -25 -58 -24q-82 0 -82 82q0 33 25 57q213 213 491 213q217 0 369 -158t152 -375q0 -209 -139.5 -333.5t-352.5 -124.5 q-250 0 -397 110q127 -348 168 -532l73 -332q49 -217 111 -291q20 -25 20 -53q0 -82 -81 -82q-37 0 -70 41q-86 102 -131 311l-78 357l-131 385q-74 217 -74 393z" />
<glyph unicode="&#x1044;" horiz-adv-x="1183" d="M8 446q0 217 151.5 375t368.5 158q279 0 492 -213q25 -25 24 -57q0 -82 -81 -82q-33 0 -58 24q-164 164 -377 164q-152 0 -254 -108.5t-102 -260.5q0 -139 92 -216.5t236 -77.5q233 0 381 147l28 29q53 53 111 53q70 0 70 -86q0 -176 -74 -393l-131 -385l-78 -357 q-45 -209 -131 -311q-33 -41 -70 -41q-82 0 -82 82q0 29 21 53q53 66 106 291l78 332q33 139 168 532q-147 -111 -397 -110q-213 0 -352.5 125t-139.5 333z" />
<glyph unicode="&#x1045;" horiz-adv-x="1183" d="M-254 -651q-4 86 82 86q78 0 82 -78q8 -188 156 -291q131 -94 327 -94q549 0 549 508q0 111 -26.5 336t-26.5 336q0 49 10 145t10 145q0 397 -344 398q-246 0 -364 -185q193 -20 315 -110q152 -111 152 -287q0 -115 -72 -180.5t-186 -65.5q25 0 -107 25q-45 8 -57 53 q-111 45 -182.5 172t-71.5 254q0 238 172 369q156 119 401 119q238 0 373 -162t135 -404q0 -49 -12 -151.5t-12 -151.5q0 -111 28.5 -327.5t28.5 -327.5q0 -672 -713 -672q-258 0 -438 139q-193 147 -209 402zM176 496l8 -111q61 -135 144 -147q25 -4 57 -37l25 -25 q94 0 94 82q0 106 -115 172q-90 53 -213 66z" />
<glyph unicode="&#x1046;" horiz-adv-x="1241" d="M-8 1081q0 352 168 561q184 229 528 230q254 0 450.5 -164t225.5 -414q8 -90 -82 -90q-74 0 -82 74q-20 188 -169.5 309t-342.5 121q-512 0 -532 -582q4 61 12 62q8 -8 16 -58q25 -156 25 -245q0 -61 -6 -178t-6 -179q0 -188 49 -290q33 -70 205 -107q131 -29 237 -29 q127 0 201 119q61 102 61 238q0 61 -98 61q-12 0 -55 -16.5t-68 -16.5q-20 0 -55 4.5t-56 4.5q-291 0 -290 282q0 111 82 193t192 82q98 0 182 -70t84 -168q0 -102 -65 -139q33 8 49 8q262 0 262 -225q0 -201 -110 -353q-123 -168 -316 -167q-479 0 -590 229 q-61 127 -61 336q0 57 6 174t6 174q0 94 -29 258q-8 45 -16 45q-12 0 -12 -74zM492 778q0 -82 57 -106q16 -8 127 -17l53 -4q8 1 45 13h-8q-86 0 -86 81q0 25 12 46q25 37 -12 67.5t-78 30.5q-111 0 -110 -111z" />
<glyph unicode="&#x1047;" horiz-adv-x="1187" d="M-25 496q0 213 177 352q164 131 380 131q250 0 399.5 -153.5t149.5 -403.5q0 -184 -213 -651t-213 -598q0 -139 156 -238q37 -25 37 -65q0 -86 -82 -87q-90 0 -184 152q-90 139 -90 238q0 131 213 598t213 651q0 393 -386 393q-152 0 -266 -82q-127 -90 -127 -237 q0 -123 70 -215.5t188 -92.5q82 0 82 -82t-82 -81q-188 0 -305 139t-117 332z" />
<glyph unicode="&#x1048;" horiz-adv-x="1187" d="M0 483q0 209 159.5 365t368.5 156q246 0 399.5 -156t153.5 -402q0 -139 -57 -258q-61 -131 -180 -184q-20 -4 -37 -4q-78 0 -78 82q0 20 71.5 92t80.5 92q37 82 37 180q0 180 -104.5 289t-285.5 109q-164 0 -278 -144q131 -29 225 -184q86 -139 86 -283q0 -266 -233 -266 q-49 0 -70 45q-258 115 -258 471zM168 483q0 -143 49 -209q33 -53 164 -127q20 25 20 86q0 90 -57 193q-66 119 -147 119h-21q-8 -29 -8 -62z" />
<glyph unicode="&#x1049;" horiz-adv-x="1241" d="M-8 -254q0 78 20 160q37 152 37 274q0 57 -6 174t-6 174q0 209 61 336q111 229 590 230q193 0 316 -168q111 -152 110 -353q0 -225 -262 -225q-20 0 -49 8q66 -41 65 -139q0 -98 -84 -167.5t-182 -69.5q-111 0 -192.5 81.5t-81.5 192.5q0 283 290 283q20 0 55.5 4t55.5 4 q25 0 68 -16.5t55 -16.5q98 0 98 61q0 135 -61 238q-74 119 -201 119q-106 0 -237 -29q-172 -37 -205 -106q-49 -102 -49 -291q0 -61 6 -178t6 -179q0 -70 -26.5 -200.5t-26.5 -200.5q0 -627 532 -627q193 0 342.5 121t169.5 309q8 74 82 74q90 0 82 -90 q-29 -250 -225.5 -413.5t-450.5 -163.5q-344 0 -528 229q-168 209 -168 561zM492 254q0 -111 110 -111q41 0 78 31t12 68q-12 20 -12 45q0 82 86 82h8q-33 12 -45 12q-20 0 -55 -4t-56 -4q-127 0 -126 -119z" />
<glyph unicode="&#x104a;" horiz-adv-x="503" d="M117 57v883q0 82 82 82q80 0 80 -82v-883q0 -82 -80 -82q-82 0 -82 82z" />
<glyph unicode="&#x104b;" horiz-adv-x="778" d="M102 86v811q0 82 82 82q78 0 78 -82v-811q0 -82 -78 -82q-82 0 -82 82zM389 86v811q0 82 82 82q78 0 78 -82v-811q0 -82 -78 -82q-82 0 -82 82z" />
<glyph unicode="&#x104c;" horiz-adv-x="1073" d="M-94 1413q0 209 147.5 346t360.5 137q319 0 569 -131q180 -94 410 -319q32 -33 32 -82q0 -102 -69 -98q-20 0 -41 16q-221 217 -406 320q-238 131 -495 131q-139 0 -243.5 -92.5t-104.5 -227.5q0 -328 524 -397q53 -8 86 -70q381 -98 381 -508q0 -418 -615 -418 q-29 0 -88 12.5t-88 12.5q-102 0 -102 -94q0 -106 291 -107q49 0 145 6.5t145 6.5q225 0 295 -226q33 -106 33 -401q0 -414 -495 -414q-233 0 -394 111q-184 127 -184 348q0 115 82 180.5t201 65.5q70 0 129 -43t59 -113q0 -74 -61 -74q-25 0 -58 25q-53 41 -69 41 q-119 0 -119 -82q0 -143 139 -225q119 -70 275 -70q332 0 331 250q0 233 -8 278q-33 184 -156 185q-49 0 -151 -6t-152 -6q-442 0 -442 270q0 258 266 258q29 0 88.5 -12.5t87.5 -12.5q451 0 451 254q0 369 -397 369q-102 0 -308 -111q-4 0 -24.5 -14t-28.5 -14 q-78 0 -78 73q0 82 127 148q16 4 41 16l13 8q-332 152 -332 500z" />
<glyph unicode="&#x104d;" horiz-adv-x="1392" d="M-41 463q0 238 127 397q139 176 369 176q49 0 90 -4q-201 156 -201 422q0 213 147.5 348t360.5 135q307 0 541 -114q201 -98 438 -336q33 -33 33 -82q0 -98 -66 -98q-20 0 -41 16q-225 217 -409 319q-238 131 -496 132q-131 0 -237.5 -94.5t-106.5 -225.5 q0 -287 397 -377q238 4 312 -192q37 -98 53 -418q4 -78 4 -1303q12 -20 8 -49q0 -25 -8 -49v-49q-8 -8 -45 -29q-66 -66 -213 -78q41 4 -234 5h-110q-66 0 -103 -5h-16q-557 0 -557 324q0 188 121 323.5t305 135.5q164 0 246 -108.5t82 -276.5q0 -78 -82 -78q-78 0 -78 78 q0 221 -168 221q-106 0 -184 -92t-78 -203q0 -160 397 -160h225l99 -4q193 -8 229 37v1352q16 139 -29 323q-16 70 -65 90q-74 4 -139 21q147 -131 147 -352q0 -106 -12 -303q-16 -209 -17 -308l-4 -508q8 -20 8 -40v-177q0 -78 -77 -77q-82 0 -82 77v127q-4 29 -9 303 q-4 242 0 295q29 381 29 611q0 164 -127 254q-106 78 -278 77q-250 0 -316 -262q184 -16 324 -123q156 -119 155 -294q0 -229 -233 -230q-131 0 -180 45q-111 53 -178.5 188.5t-67.5 266.5zM123 446q4 -8 4 -20q16 -49 25 -94q45 -119 98 -160q29 0 49 -20h4q8 -4 33 -25h49 q70 0 70 66q0 111 -115 184q-94 61 -217 69z" />
<glyph unicode="&#x104e;" horiz-adv-x="1114" d="M16 496q0 225 133.5 368.5t358.5 143.5q295 0 430 -299q8 -16 8 -37q0 -78 -86 -78q-45 0 -69 49q-90 201 -283 201q-152 0 -240 -96.5t-88 -251.5q0 -356 299 -357q254 0 344 180q25 53 90 54q98 0 82 -94q-29 -160 -28 -365q-1 -315 114 -991q16 -98 -82 -99 q-70 0 -81 66q-115 631 -115 1024q0 86 4 143q-131 -82 -328 -82q-217 0 -344 156q-119 143 -119 365z" />
<glyph unicode="&#x104f;" horiz-adv-x="1638" d="M0 508q0 262 242 389q188 98 315 98q106 0 213 -45q-262 156 -262 463q0 213 145.5 348t362.5 135q307 0 540 -114q201 -98 439 -336q33 -33 33 -82q0 -98 -66 -98q-20 0 -41 16q-225 217 -410 320q-238 131 -495 131q-131 0 -237.5 -94.5t-106.5 -225.5q0 -287 397 -377 q238 4 311 -192q37 -98 54 -418q4 -78 4 -385q-74 -53 -119 -53q-41 0 -41 53q0 164 -4 377q16 139 -29 323q-16 70 -65 90q-25 4 -50 5q94 -70 95 -365q0 -66 6 -199t6 -198q0 -82 -78 -82q-74 0 -90 110v181q-4 33 -4 86v94q-4 41 -4 8q0 172 -21 217q-16 0 -40.5 14.5 t-32.5 14.5l-29 -17q-37 -20 -61 -12q-135 -156 -369 -156q-180 0 -311 140q-33 -70 -33 -164q0 -98 37 -168q82 90 225 145.5t274 55.5q319 0 320 -246q0 -131 -148 -217q-127 -78 -266 -78q-74 0 -225.5 43t-224.5 84q-12 12 -21 25q-135 119 -135 356zM307 225 q102 -61 299 -61q66 0 152 37q102 41 102 94q0 57 -49 74q-12 4 -98 4q-102 0 -221 -37q-143 -45 -185 -111zM311 786q78 -94 197 -94q127 0 221 78q-57 53 -233 53q-106 0 -185 -37zM844 909q33 -20 90 -90q12 33 37 45q-66 20 -127 45z" />
<glyph unicode="&#x1050;" horiz-adv-x="1249" d="M16 446q0 225 164 391.5t389 166.5q242 0 381.5 -162t139.5 -408q0 -254 -189 -352q-29 -16 -123 -37q-82 -4 -82 90q0 4 20.5 26.5t20.5 26.5q74 16 131.5 92t57.5 154q0 176 -92.5 291t-264.5 115q-156 0 -272.5 -119t-116.5 -275q0 -197 217 -303q45 -20 45 -69 q0 -86 -77 -86q-25 0 -41 8q-307 152 -308 450zM387 465q-6 125 141 137q130 0 142 -135q0 -141 -142 -145q-133 -2 -141 143zM479 465q0 -37 49 -49q41 0 45 49q0 35 -45 47q-37 0 -49 -47z" />
<glyph unicode="&#x1051;" horiz-adv-x="1249" d="M16 545q0 299 308 450q16 8 41 9q78 0 77 -86q0 -49 -45 -70q-217 -106 -217 -303q0 -156 117 -274.5t272 -118.5q172 0 264.5 114.5t92.5 290.5q0 78 -57.5 153.5t-131.5 92.5q0 4 -20.5 26.5t-20.5 26.5q0 94 82 90q94 -20 123 -37q189 -98 189 -352 q0 -246 -139.5 -407.5t-381.5 -161.5q-225 0 -389 165.5t-164 391.5zM387 549q-6 125 141 141q130 0 142 -137q0 -143 -142 -145q-133 -2 -141 141zM479 549q0 -37 49 -49q41 0 45 49q0 37 -45 49q-37 0 -49 -49z" />
<glyph unicode="&#x1052;" horiz-adv-x="1347" d="M0 508q0 332 217 438q16 8 41 8q78 0 78 -86q0 -49 -45 -69q-127 -61 -127 -291q0 -164 98 -268.5t262 -104.5q131 0 229.5 82t98.5 209q0 8 -86 172t-86 221q0 127 88 201t215 74q279 0 279 -254q0 -94 -62 -172l-29 -37q-25 -33 -65 -33q-82 0 -82 82q0 29 16 49l29 37 q29 37 29 74q0 90 -115 90q-139 0 -139 -111l86 -155q86 -156 86 -238q0 -197 -145.5 -326t-346.5 -129q-233 0 -378.5 152t-145.5 385z" />
<glyph unicode="&#x1053;" horiz-adv-x="1249" d="M18 848q-2 86 76 139q70 51 158 55q92 2 163.5 -70.5t67.5 -164.5q-2 -117 -125 -207q-25 -18 -114 -53q-27 -12 -37 -24.5t-33 -67.5q33 -127 135.5 -207t231.5 -84q111 -2 216 70.5t132 173.5v55q-2 10 -29 57q-4 12 -74 39q-51 18 -81 41q-115 84 -123 207 q-6 92 66.5 161.5t166.5 73.5q78 2 158 -57q74 -55 76 -137t-80 -84q-80 -2 -82 84q0 27 -35 35q-35 6 -72 -14.5t-39 -55.5q2 -63 140 -121l32 -16q39 -14 70 -49q72 -49 61 -217q0 -12 -4 -35q-41 -156 -187 -263.5t-312 -109.5q-176 -2 -316.5 106.5t-197.5 280.5l-7 19 q-16 145 64 219q35 31 102 65q131 49 140 121q0 35 -39 54.5t-76 15.5q-25 -8 -29 -35q0 -82 -82 -84q-80 -2 -82 84z" />
<glyph unicode="&#x1054;" horiz-adv-x="1191" d="M41 479q0 233 135 357q8 25 41 36q152 115 430 115q139 0 266 -78q147 -86 148 -217q0 -246 -324 -246q-131 0 -274.5 55.5t-224.5 145.5q-37 -70 -37 -168q0 -315 331 -315q57 0 178 43t167 43q78 0 77 -86q0 -57 -57 -74q-90 -29 -180 -57q-106 -33 -185 -33 q-221 0 -356 129t-135 350zM344 762q41 -66 184 -111q119 -37 222 -37q86 0 98 4q49 16 49 74q0 53 -102 94q-86 37 -148 37q-201 0 -303 -61z" />
<glyph unicode="&#x1055;" horiz-adv-x="1849" d="M4 520q-4 141 59.5 264t186.5 185q20 37 72 37q88 41 188 41q242 2 403 -162q29 -29 48 -62q39 -57 38 -102q0 -39 -18 -49q-141 -145 -307 -144q-61 0 -129 21q-195 53 -273 237q-121 -113 -108 -260q14 -154 117.5 -259t255.5 -103q111 4 182 55q41 29 129 135 q8 20 29 35q31 19 45 19q35 -2 82 -56q35 -39 73 -82q106 -109 256 -106q109 4 183 55q41 29 129 135q8 20 28 35q31 18 45 19q82 -2 82 -82q0 -31 -16 -56l-2 -2l-4 -6h-2l-37 -49q-43 -51 -58 -66q-133 -143 -348 -143q-221 0 -372 148q-31 37 -33 41l-43 -46 q-133 -143 -348 -143q-221 0 -372 147.5t-161 368.5zM416 874q57 -180 254 -180q82 0 151 51l-28 31q-117 113 -281 111q-47 0 -96 -13z" />
<glyph unicode="&#x1056;" horiz-adv-x="2146" d="M12 518q0 31 2 60.5t11 54.5l122 -21q-8 -23 -9 -45t-1 -49q0 -25 1 -47.5t9 -42.5l-122 -22q-12 47 -13 112zM82 248l100 74q49 -83 129 -134l-69 -102q-98 63 -160 162zM82 791q31 49 71 89t89 70l69 -102q-80 -49 -129 -131zM410 12l20 123q25 -8 47.5 -9t44.5 -1 q23 0 45.5 1t44.5 9l21 -123q-61 -12 -111 -12q-51 0 -112 12zM410 1028q61 14 112 14q50 0 111 -14l-21 -125q-23 6 -45 9t-45 3t-45 -3t-47 -9zM733 188q82 51 131 134l97 -74q-59 -98 -156 -162zM733 848l72 102q49 -31 88 -70.5t68 -88.5l-97 -74q-51 82 -131 131z M899 428q12 43 12 90q0 49 -12 94l121 21q12 -54 12 -115q0 -59 -12 -112zM1092 162q-10 10 70.5 50t74.5 52q121 -121 244 -119q106 0 216.5 69t133.5 167q-4 20 0 43q0 80 -70 102q-106 45 -119 54q-115 84 -118 206q-2 133 135 211q41 20 102 21q90 0 160 -43 q84 -53 82 -135q0 -86 -82 -82q-80 2 -80 82q-4 27 -41 26q-41 0 -67 -12q-49 -31 -50 -59q6 -74 134 -123q74 -29 100 -62q55 -39 68 -135q14 -68 -7 -104q-41 -164 -185 -276.5t-312 -110.5q-242 2 -389 178z" />
<glyph unicode="&#x1057;" horiz-adv-x="3108" d="M12 518q0 31 2 60.5t11 54.5l122 -21q-8 -23 -9 -45t-1 -49q0 -25 1 -47.5t9 -42.5l-122 -22q-12 47 -13 112zM82 248l100 74q49 -83 129 -134l-69 -102q-98 63 -160 162zM82 791q31 49 71 89t89 70l69 -102q-80 -49 -129 -131zM410 12l20 123q25 -8 47.5 -9t44.5 -1 q23 0 45.5 1t44.5 9l21 -123q-61 -12 -111 -12q-51 0 -112 12zM410 1028q61 14 112 14q50 0 111 -14l-21 -125q-23 6 -45 9t-45 3t-45 -3t-47 -9zM733 188q82 51 131 134l97 -74q-59 -98 -156 -162zM733 848l72 102q49 -31 88 -70.5t68 -88.5l-97 -74q-51 82 -131 131z M899 428q12 43 12 90q0 49 -12 94l121 21q12 -54 12 -115q0 -59 -12 -112zM1075 395q-4 23 33 45.5t74 22.5q35 0 47 -21q16 -37 35 -71q35 -76 65 -107q104 -104 248 -104q150 0 258 110q37 40 68 140q14 43 25 95t87 64q39 4 61.5 -18.5t22.5 -36.5q10 -143 112.5 -249.5 t250.5 -104.5q109 2 216 68.5t134 166.5q-2 23 0 41q0 82 -70 103q-109 47 -121 55q-115 86 -116 209q-8 133 135 207q43 23 102 22q90 0 160 -45q86 -51 82 -133q-2 -88 -82 -82q-80 2 -80 82q-2 29 -41 29q-41 0 -65 -17q-53 -27 -54 -59q8 -70 138 -123q68 -27 100 -61 q53 -37 68 -134q12 -68 -9 -104q-41 -162 -187 -275.5t-310 -111.5q-287 2 -443 252q-166 -252 -442 -252q-211 0 -360 152q-111 111 -142 245z" />
<glyph unicode="&#x1058;" horiz-adv-x="1212" d="M12 518q0 31 2 60.5t11 54.5l122 -21q-8 -23 -9 -45t-1 -49q0 -25 1 -47.5t9 -42.5l-122 -22q-12 47 -13 112zM82 248l100 74q49 -83 129 -134l-69 -102q-98 63 -160 162zM82 791q31 49 71 89t89 70l69 -102q-80 -49 -129 -131zM98 -451q-2 162 131 269q119 102 289 102 q238 0 361 -178q20 -53 28 -94q4 -55 -14 -74q-125 -92 -264 -94q-233 -4 -338 205q-49 -57 -51 -136q-4 -104 88 -165q80 -57 190 -60q117 -4 238 105q16 37 57 39q25 0 51 -25q14 -12 23 -51q-12 -29 -49 -82q-123 -123 -320 -127q-172 -4 -295 98.5t-125 267.5zM408 -238 q55 -143 217 -143q78 0 153 49h-22q-4 2 -21 23q-88 88 -217 88q-55 -1 -110 -17zM410 12l20 123q25 -8 47.5 -9t44.5 -1q23 0 45.5 1t44.5 9l21 -123q-61 -12 -111 -12q-51 0 -112 12zM410 1028q61 14 112 14q50 0 111 -14l-21 -125q-23 6 -45 9t-45 3t-45 -3t-47 -9z M733 188q82 51 131 134l97 -74q-59 -98 -156 -162zM733 848l72 102q49 -31 88 -70.5t68 -88.5l-97 -74q-51 82 -131 131zM899 428q12 43 12 90q0 49 -12 94l121 21q12 -54 12 -115q0 -59 -12 -112z" />
<glyph unicode="&#x1059;" horiz-adv-x="1249" d="M12 518q0 31 2 60.5t11 54.5l122 -21q-8 -23 -9 -45t-1 -49q0 -25 1 -47.5t9 -42.5l-122 -22q-12 47 -13 112zM82 248l100 74q49 -83 129 -134l-69 -102q-98 63 -160 162zM82 791q31 49 71 89t89 70l69 -102q-80 -49 -129 -131zM90 -449q-4 162 127 271q125 100 291 100 q240 0 362 -180q23 -51 27 -94q4 -37 -23 -64q-137 -102 -253 -104q-236 -4 -340 207q-47 -57 -50 -136q-2 -104 88 -165q80 -59 189 -62q121 -2 240 105q18 37 59 41q23 0 53 -29q18 -49 107 -82q78 -35 139 -35q121 -2 242 105q18 37 57 41q27 0 49 -27q17 -12 27 -51 q-12 -29 -49 -82q-127 -123 -326 -127q-172 -2 -297 112q-109 -109 -301 -112q-170 -2 -293 100.5t-125 267.5zM393 -240q57 -154 232 -153q47 0 133 41l-37 43q-129 90 -213 90q-49 0 -115 -21zM410 12l20 123q25 -8 47.5 -9t44.5 -1q23 0 45.5 1t44.5 9l21 -123 q-61 -12 -111 -12q-51 0 -112 12zM410 1028q61 14 112 14q50 0 111 -14l-21 -125q-23 6 -45 9t-45 3t-45 -3t-47 -9zM733 188q82 51 131 134l97 -74q-59 -98 -156 -162zM733 848l72 102q49 -31 88 -70.5t68 -88.5l-97 -74q-51 82 -131 131zM899 428q12 43 12 90q0 49 -12 94 l121 21q12 -54 12 -115q0 -59 -12 -112z" />
<glyph unicode="&#x105a;" horiz-adv-x="1249" d="M16 496q0 225 133.5 368.5t358.5 143.5q295 0 430 -299q8 -16 8 -37q0 -78 -86 -78q-45 0 -69 49q-90 201 -283 201q-152 0 -240 -96.5t-88 -251.5q0 -356 299 -357q254 0 344 180q25 45 70 46q86 0 86 -78q0 -20 -8 -41q-139 -270 -492 -271q-217 0 -344 156 q-119 143 -119 365zM94 -330q6 188 203 273q74 30 158 30h118q80 0 193 -67q78 -63 88 -99q41 -59 41 -174v-313h20q80 -4 80 -14q23 -29 23 -54v-14q0 -47 -37 -63q-4 -6 -127 -6h-18q-33 4 -76 34q-29 23 -29 70v395q0 57 -63 109q-82 41 -209 41h-8q-125 -4 -172 -117v-2 q23 6 63 6h6q113 0 156 -84q23 -39 22 -74q0 -31 -34 -67q-51 -39 -132 -39q-106 0 -190 53q-49 47 -53 70q-23 25 -23 106zM266 -362q-2 -41 43 -70q37 -16 82 -17q35 4 35 23v2q0 29 -47 49q-37 13 -113 13z" />
<glyph unicode="&#x105b;" horiz-adv-x="1497" d="M-123 -449q0 33 25 58q23 14 57 20q37 0 86 -61q33 -45 70 -96q68 -86 104 -93q27 6 49 46l324 561q-43 -6 -82 -6q-227 0 -377.5 153.5t-150.5 366.5q0 215 153.5 368.5t368.5 153.5q201 0 368 -143q31 -27 68 -113q45 -94 45 -174q0 -57 -35 -127q94 -135 94 -166 q0 -35 -24.5 -58.5t-58.5 -23.5q-37 0 -74 45q-20 37 -47 78q-94 -59 -244 -53q-102 6 -179 81.5t-77 163.5q0 90 77 148.5t173 58.5q123 0 235 -123q-4 88 -61 142q-115 104 -258 104q-152 0 -257.5 -106.5t-105.5 -251.5q0 -150 106.5 -259.5t266.5 -109.5q113 0 178 53 q27 18 51 19q78 0 78 -82q0 -61 -84 -100q10 -20 11 -58v-538l342 -97v1602q0 74 77 76q78 6 78 -76v-1700q0 -82 -65 -82q-23 0 -33 6l-498 133q-57 16 -57 76v318l-191 -334q-63 -109 -170 -125q-35 -4 -106 37q-53 33 -90 65l-139 174q-14 23 -21 49zM504 535 q-12 -35 20.5 -60.5t77.5 -28.5q88 -4 141 27q-88 106 -161 107q-66 0 -78 -45z" />
<glyph unicode="&#x105c;" horiz-adv-x="1249" d="M-20 500q0 219 149.5 368.5t366.5 149.5t369.5 -151.5t154.5 -366.5q2 -213 -152.5 -366.5t-371.5 -153.5q-209 0 -362.5 153.5t-153.5 366.5zM139 504q0 -150 106.5 -257.5t250.5 -107.5q150 0 256 107.5t106 257.5q0 145 -106.5 249.5t-255.5 104.5 q-152 0 -254.5 -102.5t-102.5 -251.5zM307 514q0 82 52.5 130t136.5 48q80 0 138 -56t58 -130q0 -78 -59.5 -139.5t-136.5 -61.5q-78 0 -133.5 63.5t-55.5 145.5zM449 516q0 -70 47 -70q55 1 55 58q0 47 -55 47q-47 0 -47 -35z" />
<glyph unicode="&#x105d;" horiz-adv-x="1249" d="M-20 514q0 135 71.5 271.5t192.5 220.5q23 16 45 16q35 0 57.5 -26.5t22.5 -59.5q0 -39 -35 -68q-90 -57 -141.5 -156.5t-51.5 -197.5q0 -59 19 -117q131 156 344 156q209 0 340 -158q20 59 20 119q0 236 -196 354q-37 29 -37 68q0 31 22.5 56.5t57.5 25.5q20 0 43 -12 q127 -76 199.5 -210t72.5 -282q0 -135 -57 -246v-628q0 -227 -150 -355q-121 -109 -266 -108q-63 0 -127 20q-141 37 -201 139q-59 78 -57 201q0 135 139 230q98 53 193.5 50t150 -53.5t66.5 -123.5q8 -74 -19.5 -127.5t-73.5 -72t-118 -3.5q-76 16 -86 71q0 70 76 58 q45 -16 75.5 -7t26.5 56q-10 61 -109.5 62t-145.5 -59t-30 -120q10 -72 82 -123q78 -37 154 -37q94 0 168 72q90 84 90 230v438q-131 -98 -303 -98q-246 0 -406 192q-23 18 -30 47q-88 123 -88 295zM246 248q106 -111 258 -111q143 0 252 111q-98 141 -252 141 q-158 0 -258 -141z" />
<glyph unicode="&#x105e;" horiz-adv-x="1183" d="M-17.5 -637q-62.5 184 74.5 322q135 104 398 112v99q0 86 84 84q80 -4 79 -84v-103q338 -41 422 -229q45 -80 -34 -127q-76 -10 -117 78q-70 111 -271 120v-98q8 -317 -292 -360q-281 2 -343.5 186zM12 518q0 31 2 60.5t11 54.5l122 -21q-8 -23 -9 -45t-1 -49 q0 -25 1 -47.5t9 -42.5l-122 -22q-12 47 -13 112zM82 248l100 74q49 -83 129 -134l-69 -102q-98 63 -160 162zM82 791q31 49 71 89t89 70l69 -102q-80 -49 -129 -131zM156 -603q49 -69 166 -59q137 44 133 191v106q-236 -8 -285 -79q-63 -90 -14 -159zM410 12l20 123 q25 -8 47.5 -9t44.5 -1q23 0 45.5 1t44.5 9l21 -123q-61 -12 -111 -12q-51 0 -112 12zM410 1028q61 14 112 14q50 0 111 -14l-21 -125q-23 6 -45 9t-45 3t-45 -3t-47 -9zM733 188q82 51 131 134l97 -74q-59 -98 -156 -162zM733 848l72 102q49 -31 88 -70.5t68 -88.5l-97 -74 q-51 82 -131 131zM899 428q12 43 12 90q0 49 -12 94l121 21q12 -54 12 -115q0 -59 -12 -112z" />
<glyph unicode="&#x105f;" horiz-adv-x="1183" d="M-35 -535q-6 137 76 222q106 117 338 110q41 -2 80 -6v105q0 80 80 84q84 2 84 -84v-203v-2q-2 -63 -97 -51q-72 10 -147 10q-88 -4 -141.5 -25.5t-84 -61.5t-26.5 -98q31 -123 375 -122q209 6 276.5 44t110.5 83q35 29 84 20q80 -23 59 -80q-29 -61 -78 -102 q-121 -121 -452 -127q-199 0 -293 26q-215 59 -244 258zM12 518q0 31 2 60.5t11 54.5l122 -21q-8 -23 -9 -45t-1 -49q0 -25 1 -47.5t9 -42.5l-122 -22q-12 47 -13 112zM82 248l100 74q49 -83 129 -134l-69 -102q-98 63 -160 162zM82 791q31 49 71 89t89 70l69 -102 q-80 -49 -129 -131zM410 12l20 123q25 -8 47.5 -9t44.5 -1q23 0 45.5 1t44.5 9l21 -123q-61 -12 -111 -12q-51 0 -112 12zM410 1028q61 14 112 14q50 0 111 -14l-21 -125q-23 6 -45 9t-45 3t-45 -3t-47 -9zM733 188q82 51 131 134l97 -74q-59 -98 -156 -162zM733 848l72 102 q49 -31 88 -70.5t68 -88.5l-97 -74q-51 82 -131 131zM899 428q12 43 12 90q0 49 -12 94l121 21q12 -54 12 -115q0 -59 -12 -112z" />
<glyph unicode="&#x1060;" horiz-adv-x="1183" d="M-49 -473q-14 90 72 119q63 -18 274 40t424 332q29 74 106 56q68 -31 47 -99q-68 -158 -254 -299t-479 -190q53 -133 355.5 -140.5t451.5 248.5q25 61 74 56q72 -6 72 -82q-166 -381 -525.5 -387t-502.5 141q-100 86 -115 205zM12 518q0 31 2 60.5t9 54.5l122 -21 q-6 -23 -7 -45t-1 -49q0 -25 1 -47.5t7 -42.5l-122 -22q-10 47 -11 112zM82 248l100 74q47 -83 127 -134l-67 -102q-98 63 -160 162zM82 791q31 49 71 89t89 70l67 -102q-80 -49 -127 -131zM410 12l20 123q23 -8 46.5 -9t45.5 -1q23 0 45.5 1t44.5 9l21 -123 q-61 -12 -111 -12q-51 0 -112 12zM410 1028q61 14 112 14q50 0 111 -14l-21 -125q-23 6 -45 9t-45 3t-46 -3t-46 -9zM733 188q82 51 129 134l99 -74q-59 -98 -158 -162zM733 848l70 102q51 -31 90 -70.5t68 -88.5l-99 -74q-49 82 -129 131zM899 428q12 43 12 90q0 49 -12 94 l121 21q12 -54 12 -115q0 -59 -12 -112z" />
<glyph unicode="&#x1061;" horiz-adv-x="1128" d="M-395 -737q0 197 110 233l49 17q94 0 95 -99q0 -37 -45 -73q-16 -16 -25 -21v-57q0 -94 94 -168t193 -74q397 0 418 475l4 98q4 94 0 152q-8 127 -25 229q-16 106 90 107q78 0 90 -82q25 -168 25 -504q0 -287 -156 -467q-164 -193 -446 -192q-180 0 -325.5 125 t-145.5 301zM-41 504q0 238 127 397q139 176 369 176q221 0 374.5 -139t153.5 -356q0 -324 -29 -693q-12 -156 0 -315q12 -164 13 -213q0 -156 49 -209q33 -33 205 -49q127 -12 196 70q20 25 21 49q0 25 -29 69q-53 0 -53 78q0 82 119 82q106 0 139 -168q12 -53 -8.5 -131 t-57.5 -115q-111 -106 -327 -98q-229 8 -323.5 100.5t-94.5 321.5q0 49 -12 209q-12 156 0 311q29 369 28 701q0 147 -106.5 239t-257.5 92q-250 0 -316 -262q184 -16 324 -123q156 -119 155 -295q0 -229 -233 -229q-131 0 -180 45q-111 53 -178.5 188.5t-67.5 266.5z M123 487q4 -8 4 -20q16 -49 25 -94q45 -119 98 -160q29 0 49 -20h4q8 -4 33 -25h49q70 -1 70 65q0 111 -115 185q-94 61 -217 69z" />
<glyph unicode="&#x1062;" horiz-adv-x="1683" d="M0 518q0 23 15 37t38 14t40.5 -14t17.5 -37t-16.5 -41t-41.5 -18q-23 0 -38 17.5t-15 41.5zM35 326q0 25 17.5 41t35.5 16q27 0 44.5 -16.5t17.5 -40.5q0 -10 -5.5 -20.5t-12.5 -18.5t-18.5 -14.5t-25.5 -6.5q-18 0 -37 21q-16 18 -16 39zM35 696q0 10 5 20.5t12 18.5 t17.5 14.5t18.5 6.5q27 0 44.5 -18.5t17.5 -41.5t-17.5 -40t-44.5 -17q-18 0 -35.5 17.5t-17.5 39.5zM141 188q0 25 14.5 39.5t39.5 14.5q20 0 38.5 -16.5t18.5 -37.5q0 -20 -17.5 -37.5t-39.5 -17.5q-25 0 -39.5 17.5t-14.5 37.5zM141 838q0 20 14.5 37.5t39.5 17.5 q20 0 38.5 -16.5t18.5 -38.5q0 -27 -18.5 -41.5t-38.5 -14.5q-25 0 -39.5 14.5t-14.5 41.5zM281 94q0 27 15.5 42.5t35.5 15.5q27 0 43 -15.5t16 -42.5q0 -10 -4 -20.5t-12 -18.5t-19.5 -13t-23.5 -5q-20 0 -35.5 17.5t-15.5 39.5zM281 928q0 20 14 38.5t37 18.5 q12 0 23.5 -5t19.5 -13.5t12 -18.5t4 -20q0 -27 -16 -41.5t-43 -14.5q-20 0 -35.5 16.5t-15.5 39.5zM459 63q0 23 16 38.5t39 15.5t38 -16.5t15 -37.5q0 -23 -17.5 -40t-35.5 -17q-23 0 -39 16.5t-16 40.5zM459 956q0 25 16 42.5t39 17.5t38 -16.5t15 -43.5 q0 -20 -17.5 -34.5t-35.5 -14.5q-23 0 -39 14.5t-16 34.5zM616 94q0 27 16.5 42.5t43.5 15.5q20 0 36.5 -15.5t16.5 -42.5q0 -10 -4 -20.5t-11 -18.5t-17.5 -13t-20.5 -5q-27 0 -43.5 17.5t-16.5 39.5zM616 928q0 10 5.5 20t12.5 18.5t18.5 13.5t23.5 5q10 0 19.5 -5 t17.5 -13.5t12 -18.5t4 -20q0 -27 -16.5 -41.5t-36.5 -14.5q-27 0 -43.5 16.5t-16.5 39.5zM760 188q0 25 16.5 39.5t36.5 14.5q25 0 40 -16.5t15 -37.5q0 -20 -14 -37.5t-41 -17.5q-20 0 -36.5 17.5t-16.5 37.5zM760 838q0 20 16.5 37.5t36.5 17.5q25 0 40 -16.5t15 -38.5 q0 -27 -15 -41.5t-40 -14.5q-20 0 -36.5 14.5t-16.5 41.5zM862 326q0 25 15.5 41t42.5 16q18 0 36.5 -16.5t18.5 -40.5q0 -20 -19 -39q-18 -20 -36 -21q-27 0 -42.5 18.5t-15.5 41.5zM862 696q0 20 16.5 40t41.5 20q18 0 36 -19q18 -20 19 -41q0 -23 -18.5 -40t-36.5 -17 q-27 0 -42.5 17.5t-15.5 39.5zM901 518q0 23 16.5 37t36.5 14q25 0 40.5 -14t15.5 -37t-15.5 -41t-40.5 -18q-20 0 -36.5 17.5t-16.5 41.5zM1147 887q31 35 59.5 67.5t59.5 42.5h137v-993h-137v821l-47 -43z" />
<glyph unicode="&#x1063;" horiz-adv-x="2617" d="M20 567q0 25 17.5 42.5t44.5 17.5q25 0 43 -17.5t18 -42.5q0 -27 -18.5 -45t-42.5 -18q-27 0 -44.5 18.5t-17.5 44.5zM59 354q0 29 19.5 46.5t42.5 17.5q29 0 47 -17.5t18 -46.5q0 -23 -18 -43t-47 -20q-23 0 -42.5 20.5t-19.5 42.5zM59 768q0 23 19.5 43t42.5 20 q29 0 47 -20t18 -43q0 -27 -18 -45t-47 -18q-23 0 -42.5 18t-19.5 45zM178 199q0 29 17.5 46t44.5 17q25 0 43 -17.5t18 -45.5q0 -23 -18.5 -41.5t-42.5 -18.5q-27 0 -44.5 18.5t-17.5 41.5zM178 924q0 23 17.5 41t44.5 18q25 0 43 -18.5t18 -40.5q0 -29 -18 -46.5 t-43 -17.5q-27 0 -44.5 17.5t-17.5 46.5zM334 96q0 29 17 46.5t40 17.5q29 0 47.5 -17.5t18.5 -46.5q0 -23 -18.5 -43t-47.5 -20q-23 0 -40 20.5t-17 42.5zM334 1026q0 23 17.5 43.5t39.5 20.5q29 0 47.5 -20.5t18.5 -43.5q0 -29 -18.5 -46t-47.5 -17q-23 0 -40 17t-17 46z M530 61q0 25 17.5 42.5t44.5 17.5q25 0 43 -17.5t18 -42.5q0 -27 -18.5 -45t-42.5 -18q-27 0 -44.5 18.5t-17.5 44.5zM530 1057q0 29 17.5 46t44.5 17q25 0 43 -17.5t18 -45.5q0 -23 -18.5 -41.5t-42.5 -18.5q-27 0 -44.5 18.5t-17.5 41.5zM709 96q0 29 18 46.5t47 17.5 q23 0 40 -17.5t17 -46.5q0 -23 -17 -43t-40 -20q-29 0 -47 20.5t-18 42.5zM709 1026q0 23 18 43.5t47 20.5q23 0 40 -20.5t17 -43.5q0 -29 -17 -46t-40 -17q-29 0 -47 17t-18 46zM864 199q0 29 18.5 46t43.5 17q27 0 44 -17.5t17 -45.5q0 -23 -17.5 -41.5t-43.5 -18.5 q-25 0 -43.5 18.5t-18.5 41.5zM864 924q0 23 18.5 41t43.5 18q27 0 44 -18.5t17 -40.5q0 -29 -17 -46.5t-44 -17.5q-25 0 -43.5 17.5t-18.5 46.5zM979 354q0 29 18 46.5t47 17.5q23 0 42.5 -17.5t19.5 -46.5q0 -23 -19.5 -43t-42.5 -20q-29 0 -47 20.5t-18 42.5zM979 768 q0 23 18.5 43t46.5 20q23 0 42.5 -20t19.5 -43q0 -27 -19.5 -45t-42.5 -18q-29 0 -47 18t-18 45zM1022 567q0 25 18 42.5t43 17.5q27 0 44.5 -17.5t17.5 -42.5q0 -27 -17.5 -45t-44.5 -18q-25 0 -43 18.5t-18 44.5zM1298 786q27 66 56.5 107t66.5 78q170 164 420 164 t410 -164q162 -160 162 -412q0 -129 -41 -232.5t-123 -185.5q-162 -162 -408 -161q-219 0 -371 114q0 -193 -1 -433.5t-1 -496.5h-168v1151l160 74q25 -51 42.5 -73.5t43.5 -51.5q117 -111 295 -110q174 0 285 116q117 117 117 289q0 170 -117 285q-115 117 -285 117 q-172 0 -293 -115q-27 -27 -45 -53.5t-43 -75.5q-53 25 -81.5 38t-80.5 31z" />
<glyph unicode="&#x1064;" horiz-adv-x="1871" d="M20 567q0 25 17.5 42.5t44.5 17.5q25 0 43 -17.5t18 -42.5q0 -27 -18.5 -45t-42.5 -18q-27 0 -44.5 18.5t-17.5 44.5zM59 354q0 29 19.5 46.5t42.5 17.5q29 0 47 -17.5t18 -46.5q0 -23 -18 -43t-47 -20q-23 0 -42.5 20.5t-19.5 42.5zM59 768q0 23 19.5 43t42.5 20 q29 0 47 -20t18 -43q0 -27 -18 -45t-47 -18q-23 0 -42.5 18t-19.5 45zM178 199q0 29 17.5 46t44.5 17q25 0 43 -17.5t18 -45.5q0 -23 -18.5 -41.5t-42.5 -18.5q-27 0 -44.5 18.5t-17.5 41.5zM178 924q0 23 17.5 41t44.5 18q25 0 43 -18.5t18 -40.5q0 -29 -18 -46.5 t-43 -17.5q-27 0 -44.5 17.5t-17.5 46.5zM334 96q0 29 17 46.5t40 17.5q29 0 47.5 -17.5t18.5 -46.5q0 -23 -18.5 -43t-47.5 -20q-23 0 -40 20.5t-17 42.5zM334 1026q0 23 17.5 43.5t39.5 20.5q29 0 47.5 -20.5t18.5 -43.5q0 -29 -18.5 -46t-47.5 -17q-23 0 -40 17t-17 46z M530 61q0 25 17.5 42.5t44.5 17.5q25 0 43 -17.5t18 -42.5q0 -27 -18.5 -45t-42.5 -18q-27 0 -44.5 18.5t-17.5 44.5zM530 1057q0 29 17.5 46t44.5 17q25 0 43 -17.5t18 -45.5q0 -23 -18.5 -41.5t-42.5 -18.5q-27 0 -44.5 18.5t-17.5 41.5zM612 -23q-35 0 33 0h-33zM709 96 q0 29 18 46.5t47 17.5q23 0 40 -17.5t17 -46.5q0 -23 -17 -43t-40 -20q-29 0 -47 20.5t-18 42.5zM709 1026q0 23 18 43.5t47 20.5q23 0 40 -20.5t17 -43.5q0 -29 -17 -46t-40 -17q-29 0 -47 17t-18 46zM864 199q0 29 18.5 46t43.5 17q27 0 44 -17.5t17 -45.5 q0 -23 -17.5 -41.5t-43.5 -18.5q-25 0 -43.5 18.5t-18.5 41.5zM864 924q0 23 18.5 41t43.5 18q27 0 44 -18.5t17 -40.5q0 -29 -17 -46.5t-44 -17.5q-25 0 -43.5 17.5t-18.5 46.5zM979 354q0 29 18 46.5t47 17.5q23 0 42.5 -17.5t19.5 -46.5q0 -23 -19.5 -43t-42.5 -20 q-29 0 -47 20.5t-18 42.5zM979 768q0 23 18.5 43t46.5 20q23 0 42.5 -20t19.5 -43q0 -27 -19.5 -45t-42.5 -18q-29 0 -47 18t-18 45zM1022 567q0 25 18 42.5t43 17.5q27 0 44.5 -17.5t17.5 -42.5q0 -27 -17.5 -45t-44.5 -18q-25 0 -43 18.5t-18 44.5zM1210 969v176h457v-993 h285v-172q-127 0 -227.5 -1.5t-229.5 -1.5l-2 992h-283z" />
<glyph unicode="&#x1065;" horiz-adv-x="1333" d="M0 799q31 63 61.5 106t67.5 78q170 164 424 164q250 0 414 -164q162 -162 161 -418q0 -254 -163 -422q-164 -164 -412 -163q-266 0 -426 161q-72 68 -125 178l166 74q20 -51 38.5 -73.5t45.5 -51.5q119 -113 301 -112q174 0 285 116q121 119 120 293q0 172 -120 289 q-111 117 -285 117q-178 0 -299 -115q-51 -53 -86 -129q-55 23 -84 36t-84 36z" />
<glyph unicode="&#x1066;" horiz-adv-x="1372" d="M0 551q0 299 164 475q37 37 77 63.5t105 59.5q23 -57 37 -86t33 -82q-47 -25 -77 -43t-50 -39q-115 -131 -115 -348q0 -178 119 -291q119 -117 297 -117q172 0 289 117t116 291q0 211 -116 344q-27 23 -56.5 44.5t-83.5 45.5l86 160q106 -49 179 -121q164 -186 163 -473 q0 -242 -143 -399q0 -215 -1 -424t-1 -430q-4 -98 -143 -132h-560v172h531v685q-115 -53 -260 -54q-254 0 -424 164q-166 162 -166 418z" />
<glyph unicode="&#x1067;" horiz-adv-x="1923" d="M20 567q0 25 17.5 42.5t44.5 17.5q25 0 43 -17.5t18 -42.5q0 -27 -18.5 -45t-42.5 -18q-27 0 -44.5 18.5t-17.5 44.5zM59 354q0 29 19.5 46.5t42.5 17.5q29 0 47 -17.5t18 -46.5q0 -23 -18 -43t-47 -20q-23 0 -42.5 20.5t-19.5 42.5zM59 768q0 23 19.5 43t42.5 20 q29 0 47 -20t18 -43q0 -27 -18 -45t-47 -18q-23 0 -42.5 18t-19.5 45zM178 199q0 29 17.5 46t44.5 17q25 0 43 -17.5t18 -45.5q0 -23 -18.5 -41.5t-42.5 -18.5q-27 0 -44.5 18.5t-17.5 41.5zM178 924q0 23 17.5 41t44.5 18q25 0 43 -18.5t18 -40.5q0 -29 -18 -46.5 t-43 -17.5q-27 0 -44.5 17.5t-17.5 46.5zM334 96q0 29 17 46.5t40 17.5q29 0 47.5 -17.5t18.5 -46.5q0 -23 -18.5 -43t-47.5 -20q-23 0 -40 20.5t-17 42.5zM334 1026q0 23 17.5 43.5t39.5 20.5q29 0 47.5 -20.5t18.5 -43.5q0 -29 -18.5 -46t-47.5 -17q-23 0 -40 17t-17 46z M530 61q0 25 17.5 42.5t44.5 17.5q25 0 43 -17.5t18 -42.5q0 -27 -18.5 -45t-42.5 -18q-27 0 -44.5 18.5t-17.5 44.5zM530 1057q0 29 17.5 46t44.5 17q25 0 43 -17.5t18 -45.5q0 -23 -18.5 -41.5t-42.5 -18.5q-27 0 -44.5 18.5t-17.5 41.5zM709 96q0 29 18 46.5t47 17.5 q23 0 40 -17.5t17 -46.5q0 -23 -17 -43t-40 -20q-29 0 -47 20.5t-18 42.5zM709 1026q0 23 18 43.5t47 20.5q23 0 40 -20.5t17 -43.5q0 -29 -17 -46t-40 -17q-29 0 -47 17t-18 46zM864 199q0 29 18.5 46t43.5 17q27 0 44 -17.5t17 -45.5q0 -23 -17.5 -41.5t-43.5 -18.5 q-25 0 -43.5 18.5t-18.5 41.5zM864 924q0 23 18.5 41t43.5 18q27 0 44 -18.5t17 -40.5q0 -29 -17 -46.5t-44 -17.5q-25 0 -43.5 17.5t-18.5 46.5zM979 354q0 29 18 46.5t47 17.5q23 0 42.5 -17.5t19.5 -46.5q0 -23 -19.5 -43t-42.5 -20q-29 0 -47 20.5t-18 42.5zM979 768 q0 23 18.5 43t46.5 20q23 0 42.5 -20t19.5 -43q0 -27 -19.5 -45t-42.5 -18q-29 0 -47 18t-18 45zM1022 567q0 25 18 42.5t43 17.5q27 0 44.5 -17.5t17.5 -42.5q0 -27 -17.5 -45t-44.5 -18q-25 0 -43 18.5t-18 44.5zM1290 193q0 43 17.5 81.5t46 66.5t68.5 45t85 17 q37 0 43 -2q0 162 -1 345.5t-1 396.5h170v-397.5v-256v-160v-86v-37.5v-13q0 -45 -17.5 -85t-45 -69t-66.5 -46.5t-82 -17.5q-90 0 -153.5 64t-63.5 154zM1427 193q0 -33 24 -56.5t56 -23.5q33 0 57.5 23.5t24.5 56.5t-24.5 57t-57.5 24t-56.5 -24t-23.5 -57z" />
<glyph unicode="&#x1068;" horiz-adv-x="1978" d="M20 567q0 25 17.5 42.5t44.5 17.5q25 0 43 -17.5t18 -42.5q0 -27 -18.5 -45t-42.5 -18q-27 0 -44.5 18.5t-17.5 44.5zM59 354q0 29 19.5 46.5t42.5 17.5q29 0 47 -17.5t18 -46.5q0 -23 -18 -43t-47 -20q-23 0 -42.5 20.5t-19.5 42.5zM59 768q0 23 19.5 43t42.5 20 q29 0 47 -20t18 -43q0 -27 -18 -45t-47 -18q-23 0 -42.5 18t-19.5 45zM178 199q0 29 17.5 46t44.5 17q25 0 43 -17.5t18 -45.5q0 -23 -18.5 -41.5t-42.5 -18.5q-27 0 -44.5 18.5t-17.5 41.5zM178 924q0 23 17.5 41t44.5 18q25 0 43 -18.5t18 -40.5q0 -29 -18 -46.5 t-43 -17.5q-27 0 -44.5 17.5t-17.5 46.5zM334 96q0 29 17 46.5t40 17.5q29 0 47.5 -17.5t18.5 -46.5q0 -23 -18.5 -43t-47.5 -20q-23 0 -40 20.5t-17 42.5zM334 1026q0 23 17.5 43.5t39.5 20.5q29 0 47.5 -20.5t18.5 -43.5q0 -29 -18.5 -46t-47.5 -17q-23 0 -40 17t-17 46z M530 61q0 25 17.5 42.5t44.5 17.5q25 0 43 -17.5t18 -42.5q0 -27 -18.5 -45t-42.5 -18q-27 0 -44.5 18.5t-17.5 44.5zM530 1057q0 29 17.5 46t44.5 17q25 0 43 -17.5t18 -45.5q0 -23 -18.5 -41.5t-42.5 -18.5q-27 0 -44.5 18.5t-17.5 41.5zM709 96q0 29 18 46.5t47 17.5 q23 0 40 -17.5t17 -46.5q0 -23 -17 -43t-40 -20q-29 0 -47 20.5t-18 42.5zM709 1026q0 23 18 43.5t47 20.5q23 0 40 -20.5t17 -43.5q0 -29 -17 -46t-40 -17q-29 0 -47 17t-18 46zM864 199q0 29 18.5 46t43.5 17q27 0 44 -17.5t17 -45.5q0 -23 -17.5 -41.5t-43.5 -18.5 q-25 0 -43.5 18.5t-18.5 41.5zM864 924q0 23 18.5 41t43.5 18q27 0 44 -18.5t17 -40.5q0 -29 -17 -46.5t-44 -17.5q-25 0 -43.5 17.5t-18.5 46.5zM979 354q0 29 18 46.5t47 17.5q23 0 42.5 -17.5t19.5 -46.5q0 -23 -19.5 -43t-42.5 -20q-29 0 -47 20.5t-18 42.5zM979 768 q0 23 18.5 43t46.5 20q23 0 42.5 -20t19.5 -43q0 -27 -19.5 -45t-42.5 -18q-29 0 -47 18t-18 45zM1022 567q0 25 18 42.5t43 17.5q27 0 44.5 -17.5t17.5 -42.5q0 -27 -17.5 -45t-44.5 -18q-25 0 -43 18.5t-18 44.5zM1237 -20v174h365q0 127 2 289.5t2 332.5h168v-796h-537z M1454 1085q0 43 17.5 83t47 69t69.5 46t85 17q43 0 83 -17t67.5 -46t45 -69t17.5 -83q0 -45 -16.5 -84.5t-45 -69.5t-68.5 -47.5t-83 -17.5q-45 0 -85 17.5t-69.5 47.5t-47 69.5t-17.5 84.5zM1593 1085q0 -33 23.5 -56t56.5 -23t58.5 23.5t25.5 55.5q0 33 -25.5 58.5 t-58.5 25.5t-56.5 -25.5t-23.5 -58.5z" />
<glyph unicode="&#x1069;" horiz-adv-x="1988" d="M20 567q0 25 17.5 42.5t44.5 17.5q25 0 43 -17.5t18 -42.5q0 -27 -18.5 -45t-42.5 -18q-27 0 -44.5 18.5t-17.5 44.5zM59 354q0 29 19.5 46.5t42.5 17.5q29 0 47 -17.5t18 -46.5q0 -23 -18 -43t-47 -20q-23 0 -42.5 20.5t-19.5 42.5zM59 768q0 23 19.5 43t42.5 20 q29 0 47 -20t18 -43q0 -27 -18 -45t-47 -18q-23 0 -42.5 18t-19.5 45zM178 199q0 29 17.5 46t44.5 17q25 0 43 -17.5t18 -45.5q0 -23 -18.5 -41.5t-42.5 -18.5q-27 0 -44.5 18.5t-17.5 41.5zM178 924q0 23 17.5 41t44.5 18q25 0 43 -18.5t18 -40.5q0 -29 -18 -46.5 t-43 -17.5q-27 0 -44.5 17.5t-17.5 46.5zM334 96q0 29 17 46.5t40 17.5q29 0 47.5 -17.5t18.5 -46.5q0 -23 -18.5 -43t-47.5 -20q-23 0 -40 20.5t-17 42.5zM334 1026q0 23 17.5 43.5t39.5 20.5q29 0 47.5 -20.5t18.5 -43.5q0 -29 -18.5 -46t-47.5 -17q-23 0 -40 17t-17 46z M530 61q0 25 17.5 42.5t44.5 17.5q25 0 43 -17.5t18 -42.5q0 -27 -18.5 -45t-42.5 -18q-27 0 -44.5 18.5t-17.5 44.5zM530 1057q0 29 17.5 46t44.5 17q25 0 43 -17.5t18 -45.5q0 -23 -18.5 -41.5t-42.5 -18.5q-27 0 -44.5 18.5t-17.5 41.5zM709 96q0 29 18 46.5t47 17.5 q23 0 40 -17.5t17 -46.5q0 -23 -17 -43t-40 -20q-29 0 -47 20.5t-18 42.5zM709 1026q0 23 18 43.5t47 20.5q23 0 40 -20.5t17 -43.5q0 -29 -17 -46t-40 -17q-29 0 -47 17t-18 46zM864 199q0 29 18.5 46t43.5 17q27 0 44 -17.5t17 -45.5q0 -23 -17.5 -41.5t-43.5 -18.5 q-25 0 -43.5 18.5t-18.5 41.5zM864 924q0 23 18.5 41t43.5 18q27 0 44 -18.5t17 -40.5q0 -29 -17 -46.5t-44 -17.5q-25 0 -43.5 17.5t-18.5 46.5zM979 354q0 29 18 46.5t47 17.5q23 0 42.5 -17.5t19.5 -46.5q0 -23 -19.5 -43t-42.5 -20q-29 0 -47 20.5t-18 42.5zM979 768 q0 23 18.5 43t46.5 20q23 0 42.5 -20t19.5 -43q0 -27 -19.5 -45t-42.5 -18q-29 0 -47 18t-18 45zM1022 567q0 25 18 42.5t43 17.5q27 0 44.5 -17.5t17.5 -42.5q0 -27 -17.5 -45t-44.5 -18q-25 0 -43 18.5t-18 44.5zM1251 1036q98 59 201 60q72 0 133.5 -26t105.5 -70 t68.5 -106.5t24.5 -133.5q-4 -61 -25.5 -117.5t-53.5 -105t-69 -92.5t-73 -83q-20 -20 -46 -53t-47 -53q-14 -18 -17 -31.5t1 -21.5t22.5 -17.5t57.5 -11.5q12 2 28.5 6t34.5 56h146q-6 -86 -33 -125t-62.5 -59.5t-72.5 -26t-66 -5.5q-123 0 -185 59.5t-62 139.5t45 146.5 t106 130.5l17 18q25 27 49 52.5t44.5 53t36 62.5t23.5 80q-6 55 -41 96t-90 41q-45 0 -96 -35z" />
<glyph unicode="&#x106a;" horiz-adv-x="1980" d="M20 567q0 25 17.5 42.5t44.5 17.5q25 0 43 -17.5t18 -42.5q0 -27 -18.5 -45t-42.5 -18q-27 0 -44.5 18.5t-17.5 44.5zM59 354q0 29 19.5 46.5t42.5 17.5q29 0 47 -17.5t18 -46.5q0 -23 -18 -43t-47 -20q-23 0 -42.5 20.5t-19.5 42.5zM59 768q0 23 19.5 43t42.5 20 q29 0 47 -20t18 -43q0 -27 -18 -45t-47 -18q-23 0 -42.5 18t-19.5 45zM178 199q0 29 17.5 46t44.5 17q25 0 43 -17.5t18 -45.5q0 -23 -18.5 -41.5t-42.5 -18.5q-27 0 -44.5 18.5t-17.5 41.5zM178 924q0 23 17.5 41t44.5 18q25 0 43 -18.5t18 -40.5q0 -29 -18 -46.5 t-43 -17.5q-27 0 -44.5 17.5t-17.5 46.5zM334 96q0 29 17 46.5t40 17.5q29 0 47.5 -17.5t18.5 -46.5q0 -23 -18.5 -43t-47.5 -20q-23 0 -40 20.5t-17 42.5zM334 1026q0 23 17.5 43.5t39.5 20.5q29 0 47.5 -20.5t18.5 -43.5q0 -29 -18.5 -46t-47.5 -17q-23 0 -40 17t-17 46z M530 61q0 25 17.5 42.5t44.5 17.5q25 0 43 -17.5t18 -42.5q0 -27 -18.5 -45t-42.5 -18q-27 0 -44.5 18.5t-17.5 44.5zM530 1057q0 29 17.5 46t44.5 17q25 0 43 -17.5t18 -45.5q0 -23 -18.5 -41.5t-42.5 -18.5q-27 0 -44.5 18.5t-17.5 41.5zM709 96q0 29 18 46.5t47 17.5 q23 0 40 -17.5t17 -46.5q0 -23 -17 -43t-40 -20q-29 0 -47 20.5t-18 42.5zM709 1026q0 23 18 43.5t47 20.5q23 0 40 -20.5t17 -43.5q0 -29 -17 -46t-40 -17q-29 0 -47 17t-18 46zM864 199q0 29 18.5 46t43.5 17q27 0 44 -17.5t17 -45.5q0 -23 -17.5 -41.5t-43.5 -18.5 q-25 0 -43.5 18.5t-18.5 41.5zM864 924q0 23 18.5 41t43.5 18q27 0 44 -18.5t17 -40.5q0 -29 -17 -46.5t-44 -17.5q-25 0 -43.5 17.5t-18.5 46.5zM979 354q0 29 18 46.5t47 17.5q23 0 42.5 -17.5t19.5 -46.5q0 -23 -19.5 -43t-42.5 -20q-29 0 -47 20.5t-18 42.5zM979 768 q0 23 18.5 43t46.5 20q23 0 42.5 -20t19.5 -43q0 -27 -19.5 -45t-42.5 -18q-29 0 -47 18t-18 45zM1022 567q0 25 18 42.5t43 17.5q27 0 44.5 -17.5t17.5 -42.5q0 -27 -17.5 -45t-44.5 -18q-25 0 -43 18.5t-18 44.5zM1206 270l183 -2q10 -53 37.5 -77.5t66.5 -24.5 q43 0 74.5 31.5t38.5 81.5q0 207 -1 421.5t-1 444.5h172v-879q0 -59 -23.5 -111.5t-61.5 -90t-90.5 -60t-132.5 -22.5q-37 0 -88 20.5t-88 57t-60.5 86t-25.5 124.5z" />
<glyph unicode="&#x106b;" horiz-adv-x="1980" d="M20 567q0 25 17.5 42.5t44.5 17.5q25 0 43 -17.5t18 -42.5q0 -27 -18.5 -45t-42.5 -18q-27 0 -44.5 18.5t-17.5 44.5zM59 354q0 29 19.5 46.5t42.5 17.5q29 0 47 -17.5t18 -46.5q0 -23 -18 -43t-47 -20q-23 0 -42.5 20.5t-19.5 42.5zM59 768q0 23 19.5 43t42.5 20 q29 0 47 -20t18 -43q0 -27 -18 -45t-47 -18q-23 0 -42.5 18t-19.5 45zM178 199q0 29 17.5 46t44.5 17q25 0 43 -17.5t18 -45.5q0 -23 -18.5 -41.5t-42.5 -18.5q-27 0 -44.5 18.5t-17.5 41.5zM178 924q0 23 17.5 41t44.5 18q25 0 43 -18.5t18 -40.5q0 -29 -18 -46.5 t-43 -17.5q-27 0 -44.5 17.5t-17.5 46.5zM334 96q0 29 17 46.5t40 17.5q29 0 47.5 -17.5t18.5 -46.5q0 -23 -18.5 -43t-47.5 -20q-23 0 -40 20.5t-17 42.5zM334 1026q0 23 17.5 43.5t39.5 20.5q29 0 47.5 -20.5t18.5 -43.5q0 -29 -18.5 -46t-47.5 -17q-23 0 -40 17t-17 46z M530 61q0 25 17.5 42.5t44.5 17.5q25 0 43 -17.5t18 -42.5q0 -27 -18.5 -45t-42.5 -18q-27 0 -44.5 18.5t-17.5 44.5zM530 1057q0 29 17.5 46t44.5 17q25 0 43 -17.5t18 -45.5q0 -23 -18.5 -41.5t-42.5 -18.5q-27 0 -44.5 18.5t-17.5 41.5zM709 96q0 29 18 46.5t47 17.5 q23 0 40 -17.5t17 -46.5q0 -23 -17 -43t-40 -20q-29 0 -47 20.5t-18 42.5zM709 1026q0 23 18 43.5t47 20.5q23 0 40 -20.5t17 -43.5q0 -29 -17 -46t-40 -17q-29 0 -47 17t-18 46zM864 199q0 29 18.5 46t43.5 17q27 0 44 -17.5t17 -45.5q0 -23 -17.5 -41.5t-43.5 -18.5 q-25 0 -43.5 18.5t-18.5 41.5zM864 924q0 23 18.5 41t43.5 18q27 0 44 -18.5t17 -40.5q0 -29 -17 -46.5t-44 -17.5q-25 0 -43.5 17.5t-18.5 46.5zM979 354q0 29 18 46.5t47 17.5q23 0 42.5 -17.5t19.5 -46.5q0 -23 -19.5 -43t-42.5 -20q-29 0 -47 20.5t-18 42.5zM979 768 q0 23 18.5 43t46.5 20q23 0 42.5 -20t19.5 -43q0 -27 -19.5 -45t-42.5 -18q-29 0 -47 18t-18 45zM1022 567q0 25 18 42.5t43 17.5q27 0 44.5 -17.5t17.5 -42.5q0 -27 -17.5 -45t-44.5 -18q-25 0 -43 18.5t-18 44.5zM1206 856q2 76 25.5 125t60.5 86t88.5 57.5t108.5 20.5 q59 0 111.5 -22.5t90.5 -60.5t61.5 -90t23.5 -112v-878h-172q0 229 1 444t1 422q-6 49 -38 81t-75 32q-39 0 -66.5 -25t-37.5 -78z" />
<glyph unicode="&#x106c;" horiz-adv-x="2066" d="M20 567q0 25 17.5 42.5t44.5 17.5q25 0 43 -17.5t18 -42.5q0 -27 -18.5 -45t-42.5 -18q-27 0 -44.5 18.5t-17.5 44.5zM59 354q0 29 19.5 46.5t42.5 17.5q29 0 47 -17.5t18 -46.5q0 -23 -18 -43t-47 -20q-23 0 -42.5 20.5t-19.5 42.5zM59 768q0 23 19.5 43t42.5 20 q29 0 47 -20t18 -43q0 -27 -18 -45t-47 -18q-23 0 -42.5 18t-19.5 45zM178 199q0 29 17.5 46t44.5 17q25 0 43 -17.5t18 -45.5q0 -23 -18.5 -41.5t-42.5 -18.5q-27 0 -44.5 18.5t-17.5 41.5zM178 924q0 23 17.5 41t44.5 18q25 0 43 -18.5t18 -40.5q0 -29 -18 -46.5 t-43 -17.5q-27 0 -44.5 17.5t-17.5 46.5zM334 96q0 29 17 46.5t40 17.5q29 0 47.5 -17.5t18.5 -46.5q0 -23 -18.5 -43t-47.5 -20q-23 0 -40 20.5t-17 42.5zM334 1026q0 23 17.5 43.5t39.5 20.5q29 0 47.5 -20.5t18.5 -43.5q0 -29 -18.5 -46t-47.5 -17q-23 0 -40 17t-17 46z M530 61q0 25 17.5 42.5t44.5 17.5q25 0 43 -17.5t18 -42.5q0 -27 -18.5 -45t-42.5 -18q-27 0 -44.5 18.5t-17.5 44.5zM530 1057q0 29 17.5 46t44.5 17q25 0 43 -17.5t18 -45.5q0 -23 -18.5 -41.5t-42.5 -18.5q-27 0 -44.5 18.5t-17.5 41.5zM709 96q0 29 18 46.5t47 17.5 q23 0 40 -17.5t17 -46.5q0 -23 -17 -43t-40 -20q-29 0 -47 20.5t-18 42.5zM709 1026q0 23 18 43.5t47 20.5q23 0 40 -20.5t17 -43.5q0 -29 -17 -46t-40 -17q-29 0 -47 17t-18 46zM864 199q0 29 18.5 46t43.5 17q27 0 44 -17.5t17 -45.5q0 -23 -17.5 -41.5t-43.5 -18.5 q-25 0 -43.5 18.5t-18.5 41.5zM864 924q0 23 18.5 41t43.5 18q27 0 44 -18.5t17 -40.5q0 -29 -17 -46.5t-44 -17.5q-25 0 -43.5 17.5t-18.5 46.5zM979 354q0 29 18 46.5t47 17.5q23 0 42.5 -17.5t19.5 -46.5q0 -23 -19.5 -43t-42.5 -20q-29 0 -47 20.5t-18 42.5zM979 768 q0 23 18.5 43t46.5 20q23 0 42.5 -20t19.5 -43q0 -27 -19.5 -45t-42.5 -18q-29 0 -47 18t-18 45zM1022 567q0 25 18 42.5t43 17.5q27 0 44.5 -17.5t17.5 -42.5q0 -27 -17.5 -45t-44.5 -18q-25 0 -43 18.5t-18 44.5zM1282 268v877h174l-2 -864q6 -49 38 -81t75 -32 q39 0 68.5 24.5t39.5 79.5l187 2q-6 -80 -30 -129t-61.5 -85.5t-89 -57t-108.5 -20.5q-59 0 -112.5 22.5t-92.5 61t-62.5 91t-23.5 111.5z" />
<glyph unicode="&#x106d;" horiz-adv-x="1988" d="M20 567q0 25 17.5 42.5t44.5 17.5q25 0 43 -17.5t18 -42.5q0 -27 -18.5 -45t-42.5 -18q-27 0 -44.5 18.5t-17.5 44.5zM59 354q0 29 19.5 46.5t42.5 17.5q29 0 47 -17.5t18 -46.5q0 -23 -18 -43t-47 -20q-23 0 -42.5 20.5t-19.5 42.5zM59 768q0 23 19.5 43t42.5 20 q29 0 47 -20t18 -43q0 -27 -18 -45t-47 -18q-23 0 -42.5 18t-19.5 45zM178 199q0 29 17.5 46t44.5 17q25 0 43 -17.5t18 -45.5q0 -23 -18.5 -41.5t-42.5 -18.5q-27 0 -44.5 18.5t-17.5 41.5zM178 924q0 23 17.5 41t44.5 18q25 0 43 -18.5t18 -40.5q0 -29 -18 -46.5 t-43 -17.5q-27 0 -44.5 17.5t-17.5 46.5zM334 96q0 29 17 46.5t40 17.5q29 0 47.5 -17.5t18.5 -46.5q0 -23 -18.5 -43t-47.5 -20q-23 0 -40 20.5t-17 42.5zM334 1026q0 23 17.5 43.5t39.5 20.5q29 0 47.5 -20.5t18.5 -43.5q0 -29 -18.5 -46t-47.5 -17q-23 0 -40 17t-17 46z M530 61q0 25 17.5 42.5t44.5 17.5q25 0 43 -17.5t18 -42.5q0 -27 -18.5 -45t-42.5 -18q-27 0 -44.5 18.5t-17.5 44.5zM530 1057q0 29 17.5 46t44.5 17q25 0 43 -17.5t18 -45.5q0 -23 -18.5 -41.5t-42.5 -18.5q-27 0 -44.5 18.5t-17.5 41.5zM709 96q0 29 18 46.5t47 17.5 q23 0 40 -17.5t17 -46.5q0 -23 -17 -43t-40 -20q-29 0 -47 20.5t-18 42.5zM709 1026q0 23 18 43.5t47 20.5q23 0 40 -20.5t17 -43.5q0 -29 -17 -46t-40 -17q-29 0 -47 17t-18 46zM864 199q0 29 18.5 46t43.5 17q27 0 44 -17.5t17 -45.5q0 -23 -17.5 -41.5t-43.5 -18.5 q-25 0 -43.5 18.5t-18.5 41.5zM864 924q0 23 18.5 41t43.5 18q27 0 44 -18.5t17 -40.5q0 -29 -17 -46.5t-44 -17.5q-25 0 -43.5 17.5t-18.5 46.5zM979 354q0 29 18 46.5t47 17.5q23 0 42.5 -17.5t19.5 -46.5q0 -23 -19.5 -43t-42.5 -20q-29 0 -47 20.5t-18 42.5zM979 768 q0 23 18.5 43t46.5 20q23 0 42.5 -20t19.5 -43q0 -27 -19.5 -45t-42.5 -18q-29 0 -47 18t-18 45zM1022 567q0 25 18 42.5t43 17.5q27 0 44.5 -17.5t17.5 -42.5q0 -27 -17.5 -45t-44.5 -18q-25 0 -43 18.5t-18 44.5zM1251 80l105 172q51 -35 96 -35q55 0 90 41t41 96 q-8 45 -23.5 80t-36 62.5t-45 53t-48.5 52.5l-17 19q-61 63 -106 129.5t-45 146.5t62 139.5t185 59.5q29 0 66 -5.5t72.5 -27t62.5 -60t33 -122.5h-146q-18 51 -34.5 55t-28.5 6q-39 -2 -57.5 -11t-22.5 -17.5t-1 -21.5t17 -32q20 -20 46 -53t47 -53q37 -39 73.5 -83 t68.5 -92.5t53.5 -104.5t25.5 -118q0 -72 -24.5 -134t-68.5 -106t-105.5 -70t-133.5 -26q-102 0 -201 60z" />
<glyph unicode="&#x106e;" horiz-adv-x="2566" d="M0 565q0 254 166 418q170 164 424 164q213 0 364 -119q31 45 95.5 81t138.5 36q70 0 133 -35t96 -78q68 51 164 83t203 32q252 0 416 -164q162 -162 161 -418q0 -254 -163 -422q-164 -164 -414 -163q-82 0 -176 18l55 168q41 -6 64.5 -8t56.5 -2q178 0 289 116 q119 119 118 293q0 172 -118 289q-111 117 -289 117q-176 0 -297 -115l-8 -8q8 -25 15 -70t12 -90t7.5 -86t2.5 -65q0 -90 -11.5 -162t-35 -133.5t-59.5 -121t-95 -138.5l-150 110q51 70 82 115t51.5 93t31.5 105.5t11 135.5q0 23 -2 61.5t-6 82.5t-11 86t-17 71 q-14 49 -43 82.5t-70 33.5q-39 0 -67.5 -25.5t-37.5 -58.5q80 -131 80 -309q0 -291 -163 -473q-35 -37 -75 -65.5t-106 -55.5q-27 51 -41 77t-43 81q55 25 83 45.5t57 46.5q117 131 116 344q0 172 -116 289q-115 117 -289 117q-176 0 -297 -115q-119 -117 -119 -291 q0 -217 115 -348q25 -27 51.5 -43t77.5 -41q-23 -55 -37 -82.5t-33 -81.5q-115 49 -184 121q-164 176 -164 475z" />
<glyph unicode="&#x106f;" horiz-adv-x="2289" d="M0 551q0 299 164 475q37 37 77 63.5t105 59.5q25 -57 38 -86t32 -82q-45 -25 -76 -43t-51 -39q-113 -131 -113 -348q0 -178 117 -291q123 -117 297 -117t289 117q119 117 118 291q0 213 -118 344q-25 23 -54.5 44.5t-83.5 45.5l82 160q109 -49 181 -121q18 -20 34.5 -43 t18.5 -25l26 27q170 164 424 164q252 0 416 -164q162 -162 162 -418q0 -244 -143 -401q0 -219 -1.5 -431t-1.5 -438q-4 -98 -141 -131q-68 0 -132 1t-150 1v179h253v688q-115 -53 -262 -53q-82 0 -176 18l55 168q41 -6 65 -8t56 -2q178 0 289 116q119 119 119 293 q0 172 -119 289q-111 117 -289 117q-176 0 -297 -115q-43 -47 -69 -92q14 -47 20 -101.5t6 -111.5q0 -256 -161 -418q-164 -164 -416 -164q-254 0 -424 164q-166 162 -166 418z" />
<glyph unicode="&#x1070;" horiz-adv-x="2289" d="M0 553q2 72 21.5 109.5t49 56t59.5 19.5t50 1q16 0 21.5 -1t11.5 3q47 2 76.5 34t29.5 75q0 45 -31.5 74.5t-74.5 29.5t-96 -53l-103 164q49 41 95.5 58.5t99.5 17.5q59 0 112.5 -22.5t91.5 -61.5t61.5 -91.5t23.5 -111.5t-23.5 -112.5t-61.5 -92.5t-91.5 -62.5 t-112.5 -23.5q-8 0 -21.5 1t-11.5 1v-12q0 -178 117 -291q123 -117 297 -117t289 117q119 117 118 291q0 213 -118 344q-25 23 -54.5 45.5t-83.5 46.5l84 158q106 -49 179 -121q164 -186 163 -473q0 -106 -28 -199q10 -20 29.5 -46.5t41.5 -47.5q59 -55 134 -86t163 -31 q174 0 289 117q119 117 119 291t-119 293q-115 117 -289 117q-57 0 -121 -11l-55 164q59 16 97 19.5t79 3.5q250 0 414 -166q164 -164 164 -420q0 -242 -143 -399q0 -215 -1.5 -424t-1.5 -433q-4 -98 -141 -131q-68 0 -132 1t-150 1v179h253v678q-115 -53 -262 -54 q-254 0 -424 164l-41 41q-2 -2 -14 -15.5t-22 -23.5q-164 -164 -416 -164q-254 0 -424 164q-166 162 -166 418z" />
<glyph unicode="&#x1071;" horiz-adv-x="1349" d="M20 567q0 25 17.5 42.5t44.5 17.5q25 0 43 -17.5t18 -42.5q0 -27 -18.5 -45t-42.5 -18q-27 0 -44.5 18.5t-17.5 44.5zM59 354q0 29 19.5 46.5t42.5 17.5q29 0 47 -17.5t18 -46.5q0 -23 -18 -43t-47 -20q-23 0 -42.5 20.5t-19.5 42.5zM59 768q0 23 19.5 43t42.5 20 q29 0 47 -20t18 -43q0 -27 -18 -45t-47 -18q-23 0 -42.5 18t-19.5 45zM123 1655q0 43 17.5 83t47 68.5t69.5 46t85 17.5q43 0 83 -17.5t68.5 -46t46 -68.5t17.5 -83q0 -45 -17.5 -85t-46 -70t-68.5 -47t-83 -17q-45 0 -85 17t-69.5 47t-47 70t-17.5 85zM178 199 q0 29 17.5 46t44.5 17q25 0 43 -17.5t18 -45.5q0 -23 -18.5 -41.5t-42.5 -18.5q-27 0 -44.5 18.5t-17.5 41.5zM178 924q0 23 17.5 41t44.5 18q25 0 43 -18.5t18 -40.5q0 -29 -18 -46.5t-43 -17.5q-27 0 -44.5 17.5t-17.5 46.5zM262 1655q0 -33 23.5 -56.5t56.5 -23.5 t58.5 23.5t25.5 56.5t-25.5 58.5t-58.5 25.5t-56.5 -25.5t-23.5 -58.5zM334 96q0 29 17 46.5t40 17.5q29 0 47.5 -17.5t18.5 -46.5q0 -23 -18.5 -43t-47.5 -20q-23 0 -40 20.5t-17 42.5zM334 1026q0 23 17.5 43.5t39.5 20.5q29 0 47.5 -20.5t18.5 -43.5q0 -29 -18.5 -46 t-47.5 -17q-23 0 -40 17t-17 46zM530 61q0 25 17.5 42.5t44.5 17.5q25 0 43 -17.5t18 -42.5q0 -27 -18.5 -45t-42.5 -18q-27 0 -44.5 18.5t-17.5 44.5zM530 1057q0 29 17.5 46t44.5 17q25 0 43 -17.5t18 -45.5q0 -23 -18.5 -41.5t-42.5 -18.5q-27 0 -44.5 18.5t-17.5 41.5z M612 1655q0 43 17.5 83t46.5 68.5t69.5 46t85.5 17.5q43 0 83 -17.5t68 -46t45 -68.5t17 -83q0 -45 -16 -85t-45 -70t-69 -47t-83 -17q-45 0 -85.5 17t-69.5 47t-46.5 70t-17.5 85zM709 96q0 29 18 46.5t47 17.5q23 0 40 -17.5t17 -46.5q0 -23 -17 -43t-40 -20 q-29 0 -47 20.5t-18 42.5zM709 1026q0 23 18 43.5t47 20.5q23 0 40 -20.5t17 -43.5q0 -29 -17 -46t-40 -17q-29 0 -47 17t-18 46zM752 1655q0 -33 23.5 -56.5t55.5 -23.5q33 0 58.5 23.5t25.5 56.5t-25.5 58.5t-58.5 25.5t-56 -25.5t-23 -58.5zM864 199q0 29 18.5 46 t43.5 17q27 0 44 -17.5t17 -45.5q0 -23 -17.5 -41.5t-43.5 -18.5q-25 0 -43.5 18.5t-18.5 41.5zM864 924q0 23 18.5 41t43.5 18q27 0 44 -18.5t17 -40.5q0 -29 -17 -46.5t-44 -17.5q-25 0 -43.5 17.5t-18.5 46.5zM979 354q0 29 18 46.5t47 17.5q23 0 42.5 -17.5t19.5 -46.5 q0 -23 -19.5 -43t-42.5 -20q-29 0 -47 20.5t-18 42.5zM979 768q0 23 18.5 43t46.5 20q23 0 42.5 -20t19.5 -43q0 -27 -19.5 -45t-42.5 -18q-29 0 -47 18t-18 45zM1022 567q0 25 18 42.5t43 17.5q27 0 44.5 -17.5t17.5 -42.5q0 -27 -17.5 -45t-44.5 -18q-25 0 -43 18.5 t-18 44.5z" />
<glyph unicode="&#x1072;" horiz-adv-x="1349" d="M20 567q0 25 17.5 42.5t44.5 17.5q25 0 43 -17.5t18 -42.5q0 -27 -18.5 -45t-42.5 -18q-27 0 -44.5 18.5t-17.5 44.5zM59 354q0 29 19.5 46.5t42.5 17.5q29 0 47 -17.5t18 -46.5q0 -23 -18 -43t-47 -20q-23 0 -42.5 20.5t-19.5 42.5zM59 768q0 23 19.5 43t42.5 20 q29 0 47 -20t18 -43q0 -27 -18 -45t-47 -18q-23 0 -42.5 18t-19.5 45zM170 1640q0 182 125 306q127 127 309 127q180 0 303 -127q53 -53 90 -134l-151 -83q-18 45 -31.5 62t-30.5 36q-72 74 -184 74q-119 0 -189.5 -72t-70.5 -189q0 -113 70.5 -183.5t183.5 -70.5 q109 0 184 70q20 18 43 60l154 -93q-27 -35 -41 -54t-33 -36q-123 -129 -301 -129q-184 0 -307 127q-123 121 -123 309zM178 199q0 29 17.5 46t44.5 17q25 0 43 -17.5t18 -45.5q0 -23 -18.5 -41.5t-42.5 -18.5q-27 0 -44.5 18.5t-17.5 41.5zM178 924q0 23 17.5 41t44.5 18 q25 0 43 -18.5t18 -40.5q0 -29 -18 -46.5t-43 -17.5q-27 0 -44.5 17.5t-17.5 46.5zM334 96q0 29 17 46.5t40 17.5q29 0 47.5 -17.5t18.5 -46.5q0 -23 -18.5 -43t-47.5 -20q-23 0 -40 20.5t-17 42.5zM334 1026q0 23 17.5 43.5t39.5 20.5q29 0 47.5 -20.5t18.5 -43.5 q0 -29 -18.5 -46t-47.5 -17q-23 0 -40 17t-17 46zM530 61q0 25 17.5 42.5t44.5 17.5q25 0 43 -17.5t18 -42.5q0 -27 -18.5 -45t-42.5 -18q-27 0 -44.5 18.5t-17.5 44.5zM530 1057q0 29 17.5 46t44.5 17q25 0 43 -17.5t18 -45.5q0 -23 -18.5 -41.5t-42.5 -18.5 q-27 0 -44.5 18.5t-17.5 41.5zM709 96q0 29 18 46.5t47 17.5q23 0 40 -17.5t17 -46.5q0 -23 -17 -43t-40 -20q-29 0 -47 20.5t-18 42.5zM709 1026q0 23 18 43.5t47 20.5q23 0 40 -20.5t17 -43.5q0 -29 -17 -46t-40 -17q-29 0 -47 17t-18 46zM864 199q0 29 18.5 46t43.5 17 q27 0 44 -17.5t17 -45.5q0 -23 -17.5 -41.5t-43.5 -18.5q-25 0 -43.5 18.5t-18.5 41.5zM864 924q0 23 18.5 41t43.5 18q27 0 44 -18.5t17 -40.5q0 -29 -17 -46.5t-44 -17.5q-25 0 -43.5 17.5t-18.5 46.5zM979 354q0 29 18 46.5t47 17.5q23 0 42.5 -17.5t19.5 -46.5 q0 -23 -19.5 -43t-42.5 -20q-29 0 -47 20.5t-18 42.5zM979 768q0 23 18.5 43t46.5 20q23 0 42.5 -20t19.5 -43q0 -27 -19.5 -45t-42.5 -18q-29 0 -47 18t-18 45zM1022 567q0 25 18 42.5t43 17.5q27 0 44.5 -17.5t17.5 -42.5q0 -27 -17.5 -45t-44.5 -18q-25 0 -43 18.5 t-18 44.5z" />
<glyph unicode="&#x1073;" horiz-adv-x="1349" d="M-68 1440l674 549q94 -82 175 -146.5t162 -128t162 -128t175 -144.5l-27 -133l-647 469l-649 -469zM20 567q0 25 17.5 42.5t44.5 17.5q25 0 43 -17.5t18 -42.5q0 -27 -18.5 -45t-42.5 -18q-27 0 -44.5 18.5t-17.5 44.5zM59 354q0 29 19.5 46.5t42.5 17.5q29 0 47 -17.5 t18 -46.5q0 -23 -18 -43t-47 -20q-23 0 -42.5 20.5t-19.5 42.5zM59 768q0 23 19.5 43t42.5 20q29 0 47 -20t18 -43q0 -27 -18 -45t-47 -18q-23 0 -42.5 18t-19.5 45zM178 199q0 29 17.5 46t44.5 17q25 0 43 -17.5t18 -45.5q0 -23 -18.5 -41.5t-42.5 -18.5q-27 0 -44.5 18.5 t-17.5 41.5zM178 924q0 23 17.5 41t44.5 18q25 0 43 -18.5t18 -40.5q0 -29 -18 -46.5t-43 -17.5q-27 0 -44.5 17.5t-17.5 46.5zM334 96q0 29 17 46.5t40 17.5q29 0 47.5 -17.5t18.5 -46.5q0 -23 -18.5 -43t-47.5 -20q-23 0 -40 20.5t-17 42.5zM334 1026q0 23 17.5 43.5 t39.5 20.5q29 0 47.5 -20.5t18.5 -43.5q0 -29 -18.5 -46t-47.5 -17q-23 0 -40 17t-17 46zM530 61q0 25 17.5 42.5t44.5 17.5q25 0 43 -17.5t18 -42.5q0 -27 -18.5 -45t-42.5 -18q-27 0 -44.5 18.5t-17.5 44.5zM530 1057q0 29 17.5 46t44.5 17q25 0 43 -17.5t18 -45.5 q0 -23 -18.5 -41.5t-42.5 -18.5q-27 0 -44.5 18.5t-17.5 41.5zM709 96q0 29 18 46.5t47 17.5q23 0 40 -17.5t17 -46.5q0 -23 -17 -43t-40 -20q-29 0 -47 20.5t-18 42.5zM709 1026q0 23 18 43.5t47 20.5q23 0 40 -20.5t17 -43.5q0 -29 -17 -46t-40 -17q-29 0 -47 17t-18 46z M864 199q0 29 18.5 46t43.5 17q27 0 44 -17.5t17 -45.5q0 -23 -17.5 -41.5t-43.5 -18.5q-25 0 -43.5 18.5t-18.5 41.5zM864 924q0 23 18.5 41t43.5 18q27 0 44 -18.5t17 -40.5q0 -29 -17 -46.5t-44 -17.5q-25 0 -43.5 17.5t-18.5 46.5zM979 354q0 29 18 46.5t47 17.5 q23 0 42.5 -17.5t19.5 -46.5q0 -23 -19.5 -43t-42.5 -20q-29 0 -47 20.5t-18 42.5zM979 768q0 23 18.5 43t46.5 20q23 0 42.5 -20t19.5 -43q0 -27 -19.5 -45t-42.5 -18q-29 0 -47 18t-18 45zM1022 567q0 25 18 42.5t43 17.5q27 0 44.5 -17.5t17.5 -42.5q0 -27 -17.5 -45 t-44.5 -18q-25 0 -43 18.5t-18 44.5z" />
<glyph unicode="&#x1074;" horiz-adv-x="1349" d="M20 567q0 25 17.5 42.5t44.5 17.5q25 0 43 -17.5t18 -42.5q0 -27 -18.5 -45t-42.5 -18q-27 0 -44.5 18.5t-17.5 44.5zM59 354q0 29 19.5 46.5t42.5 17.5q29 0 47 -17.5t18 -46.5q0 -23 -18 -43t-47 -20q-23 0 -42.5 20.5t-19.5 42.5zM59 768q0 23 19.5 43t42.5 20 q29 0 47 -20t18 -43q0 -27 -18 -45t-47 -18q-23 0 -42.5 18t-19.5 45zM172 1679q0 180 125 306q29 29 57.5 47t81.5 45l51 -154q-29 -18 -42 -30.5t-29 -24.5q-72 -72 -72 -189q0 -55 19.5 -101t52.5 -81t79 -53.5t101 -18.5q115 0 185.5 69t74.5 185q0 111 -70 187 q-16 14 -26 23t-45 28l73 158q49 -27 75 -47.5t48 -42.5q119 -125 119 -306q0 -176 -125 -307q-127 -129 -303 -129q-180 0 -307 127q-123 123 -123 309zM178 199q0 29 17.5 46t44.5 17q25 0 43 -17.5t18 -45.5q0 -23 -18.5 -41.5t-42.5 -18.5q-27 0 -44.5 18.5t-17.5 41.5z M178 924q0 23 17.5 41t44.5 18q25 0 43 -18.5t18 -40.5q0 -29 -18 -46.5t-43 -17.5q-27 0 -44.5 17.5t-17.5 46.5zM334 96q0 29 17 46.5t40 17.5q29 0 47.5 -17.5t18.5 -46.5q0 -23 -18.5 -43t-47.5 -20q-23 0 -40 20.5t-17 42.5zM334 1026q0 23 17.5 43.5t39.5 20.5 q29 0 47.5 -20.5t18.5 -43.5q0 -29 -18.5 -46t-47.5 -17q-23 0 -40 17t-17 46zM530 61q0 25 17.5 42.5t44.5 17.5q25 0 43 -17.5t18 -42.5q0 -27 -18.5 -45t-42.5 -18q-27 0 -44.5 18.5t-17.5 44.5zM530 1057q0 29 17.5 46t44.5 17q25 0 43 -17.5t18 -45.5 q0 -23 -18.5 -41.5t-42.5 -18.5q-27 0 -44.5 18.5t-17.5 41.5zM709 96q0 29 18 46.5t47 17.5q23 0 40 -17.5t17 -46.5q0 -23 -17 -43t-40 -20q-29 0 -47 20.5t-18 42.5zM709 1026q0 23 18 43.5t47 20.5q23 0 40 -20.5t17 -43.5q0 -29 -17 -46t-40 -17q-29 0 -47 17t-18 46z M864 199q0 29 18.5 46t43.5 17q27 0 44 -17.5t17 -45.5q0 -23 -17.5 -41.5t-43.5 -18.5q-25 0 -43.5 18.5t-18.5 41.5zM864 924q0 23 18.5 41t43.5 18q27 0 44 -18.5t17 -40.5q0 -29 -17 -46.5t-44 -17.5q-25 0 -43.5 17.5t-18.5 46.5zM979 354q0 29 18 46.5t47 17.5 q23 0 42.5 -17.5t19.5 -46.5q0 -23 -19.5 -43t-42.5 -20q-29 0 -47 20.5t-18 42.5zM979 768q0 23 18.5 43t46.5 20q23 0 42.5 -20t19.5 -43q0 -27 -19.5 -45t-42.5 -18q-29 0 -47 18t-18 45zM1022 567q0 25 18 42.5t43 17.5q27 0 44.5 -17.5t17.5 -42.5q0 -27 -17.5 -45 t-44.5 -18q-25 0 -43 18.5t-18 44.5z" />
<glyph unicode="&#x1075;" horiz-adv-x="1329" d="M-72 254q0 94 62 172l28 37q25 33 66 33q82 0 82 -82q0 -29 -16 -49l-29 -37q-29 -37 -29 -74q0 -90 115 -90q139 0 139 110q-129 115 -172 342q0 170 145.5 299t346.5 129q279 0 419 -200q19 -27 35 -58q23 -37 40.5 -84t28.5 -98t16 -100t3 -90q-8 -139 -65 -258 q-74 -156 -193 -156q-78 0 -78 86q0 49 46 70q127 61 126 290q-18 225 -116.5 330t-261.5 105q-131 0 -229.5 -82t-98.5 -209q0 -8 86 -133t86 -183q0 -127 -88 -200.5t-215 -73.5q-279 0 -279 254z" />
<glyph unicode="&#x1076;" horiz-adv-x="1191" d="M41 295q0 246 324 246q131 0 274 -55.5t225 -145.5q37 70 37 168q0 315 -332 315q-100 -238 -228 -210t-227.5 147t-52.5 155q63 119 203 -61q121 -170 199 86q29 47 98 61q229 -14 364.5 -143t135.5 -350q0 -233 -135 -356q-8 -25 -41 -37q-152 -115 -430 -115 q-139 0 -267 78q-147 86 -147 217zM205 295q0 -53 102 -94q86 -37 148 -37q201 0 303 61q-41 66 -185 111q-119 37 -221 37q-86 0 -98 -4q-49 -16 -49 -74z" />
<glyph unicode="&#x1077;" horiz-adv-x="1232" d="M-168 176q0 94 62 172l28 37q25 33 66 33q82 0 82 -82q0 -29 -17 -49l-28 -37q-29 -37 -29 -74q0 -90 115 -90q139 0 139 111l-86 155q-86 156 -86 238q0 197 145.5 325.5t345.5 128.5q279 0 420 -200q19 -27 35 -58q23 -37 40 -84t28.5 -98t16.5 -100t3 -90 q-8 -139 -65 -258q-74 -156 -193 -156q-287 -18 -305.5 265.5t399.5 293.5q-18 113 -116.5 217.5t-262.5 104.5q-131 0 -229 -82t-98 -209q0 -8 86 -172t86 -221q0 -127 -88 -201t-215 -74q-279 0 -279 254zM715 182q78 -84 148.5 -29.5t96 132t15.5 153.5q-160 12 -245 -82 t-15 -174z" />
<glyph unicode="&#x1078;" horiz-adv-x="2097" d="M8 463q0 221 143.5 362.5t364.5 141.5q242 0 393 -136q41 -49 70 -81q98 168 266 208q61 29 115 29q221 0 356 -78q258 -111 258 -467q0 -193 -188 -323q-168 -123 -369 -123q-225 0 -366.5 139t-141.5 365v37q0 66 -78 131q-164 135 -315 135q-156 0 -250 -92.5 t-94 -247.5q0 -225 221 -303q74 -25 74 -82q0 -98 -94 -82q-160 25 -267 168q-98 131 -98 299zM1073 500q0 -156 94.5 -248t249.5 -92q127 0 250 78q143 86 143 204q0 201 -102 283q-49 16 -66 37h-4q-20 8 -32 20q-106 41 -246 41q-4 0 -29 -12l-24 -8l-33 -21 q-33 -20 -66 -16q-135 -98 -135 -266z" />
<glyph unicode="&#x1079;" horiz-adv-x="2097" d="M8 463q0 221 143.5 362.5t364.5 141.5q242 0 393 -136q41 -49 70 -81q98 168 266 208q61 29 115 29q221 0 356 -78q258 -111 258 -467q0 -193 -188 -323q-168 -123 -369 -123q-225 0 -366.5 139t-141.5 365v37q0 66 -78 131q-164 135 -315 135q-156 0 -250 -92.5 t-102 -167.5q483 33 525 -261t-316 -286q-160 25 -267 168q-98 131 -98 299zM162 410q14 -66 59 -141.5t136.5 -110.5t166.5 24q51 92 -11 168t-351 60zM1073 500q0 -156 94.5 -248t249.5 -92q127 0 250 78q143 86 143 204q0 201 -102 283q-49 16 -66 37h-4q-20 8 -32 20 q-106 41 -246 41q-4 0 -29 -12l-24 -8l-33 -21q-33 -20 -66 -16q-135 -98 -135 -266z" />
<glyph unicode="&#x107a;" horiz-adv-x="1980" d="M25 438q0 242 149.5 389.5t390.5 147.5q418 0 496 -488q135 -330 385 -319q352 0 352 332q0 180 -108.5 282.5t-288.5 102.5h-66q-82 0 -82 78q0 82 82 81h29q25 4 37 5q246 0 401.5 -152t155.5 -397q0 -238 -135 -365t-377 -127q-201 1 -336 103l4 -623q4 -475 418 -475 q98 0 192.5 73.5t94.5 168.5v57q-8 4 -25 20q-45 37 -45 74q0 98 94 98q12 -4 49 -16q111 -41 111 -233q0 -176 -145.5 -301t-325.5 -125q-283 0 -447 192q-156 180 -155 467q0 432 2 735q2 162 -72 379q-74 209 -295 209q-233 0 -307 -122t-74 -210v-41q0 -156 148 -303 q16 -4 49 -20q74 0 74 102q0 45 -19 88q-23 49 -22.5 85t16.5 56.5t43 25.5t57 -9q88 -111 88 -246q0 -111 -65.5 -186.5t-175.5 -75.5q-33 0 -66 16h-8q-33 -8 -61 21q-123 123 -160 188q-57 102 -57 258z" />
<glyph unicode="&#x107b;" horiz-adv-x="2097" d="M8 442q0 356 258 467q135 78 357 78q53 0 114 -29q168 -41 267 -208q29 33 69 81q152 135 393 136q221 0 364.5 -141.5t143.5 -362.5q0 -168 -98 -299q-106 -143 -266 -168q-358 -8 -316.5 285.5t525.5 261.5q-8 76 -102.5 168t-250.5 92q-152 0 -315 -135 q-78 -66 -78 -131v-37q0 -225 -141 -364.5t-367 -139.5q-201 0 -368 123q-188 131 -189 323zM172 442q0 -119 143 -204q123 -78 250 -78q156 0 250 92t94 248q0 168 -135 266q-33 -4 -65 16l-33 21l-25 8q-25 12 -28 12q-139 0 -246 -41q-12 -12 -33 -20h-4q-16 -20 -66 -37 q-102 -82 -102 -283zM1458 182q76 -59 167 -24t136.5 110.5t59.5 141.5q-289 16 -351.5 -60t-11.5 -168z" />
<glyph unicode="&#x107c;" horiz-adv-x="2011" d="M20 295q0 246 324 246q131 0 274.5 -55.5t225.5 -145.5q37 70 37 168q0 315 -332 315q-57 0 -178 -43t-166 -43q-78 0 -78 86q0 57 57 74q90 29 181 57q106 33 184 33q221 0 356 -129q16 -14 28.5 -28.5t22.5 -30.5q27 41 112 123t306 82q78 0 217 -9q123 -31 230 -123 q57 -16 57 -73q0 -86 -78 -86q-45 0 -206.5 63.5t-219.5 63.5q-332 0 -332 -316q0 -98 37 -168q82 90 225.5 145.5t274.5 55.5q324 0 324 -246q0 -131 -148 -217q-127 -78 -266 -78q-279 0 -430 115q-33 12 -41 37q-24 22 -49 59q-27 -43 -64 -75q-8 -25 -41 -37 q-152 -115 -430 -115q-139 0 -266 78q-147 86 -148 217zM184 295q0 -53 103 -94q86 -37 147 -37q201 0 303 61q-41 66 -184 111q-119 37 -221 37q-86 0 -99 -4q-49 -16 -49 -74zM1186 242q102 -61 303 -62q61 0 147 37q102 41 103 94q0 57 -49 74q-12 4 -99 4 q-102 0 -221 -37q-143 -44 -184 -110z" />
<glyph unicode="&#x107d;" horiz-adv-x="2158" d="M-162 840q0 254 279 254q127 0 215 -74t88 -201q0 -57 -113.5 -221t-113.5 -172q0 -127 98 -209t229 -82q164 0 260 66q147 98 219 280v41q0 221 107.5 370.5t388.5 164.5q182 16 365 -90q57 -16 57 -74q0 -86 -78 -86q-49 0 -168 43t-176 43q-332 -55 -332 -371 q0 -98 37 -168q82 90 225.5 145.5t274.5 55.5q319 0 319 -246q0 -131 -147 -217q-127 -78 -266 -78q-274 0 -426 115q-33 12 -45 37q-53 47 -86 115q-213 -309 -529 -310q-201 0 -346 129t-145 326q0 82 141 238l86 155q0 111 -139 111q-115 0 -115 -90q0 -37 29 -74l28 -37 q16 -20 17 -49q0 -82 -82 -82q-41 0 -66 33l-28 37q-61 78 -62 172zM1307 240q102 -61 299 -62q66 0 151 37q103 41 103 94q0 57 -50 74q-12 4 -98 4q-102 0 -221 -37q-143 -45 -184 -110z" />
<glyph unicode="&#x107e;" horiz-adv-x="2170" d="M-162 840q0 254 279 254q127 0 215 -74t88 -201q0 -57 -113.5 -221t-113.5 -172q0 -127 98 -209t229 -82q164 0 260 66q147 98 219 280v41q0 221 107.5 370.5t388.5 164.5q182 16 365 -90q57 -16 57 -74q0 -86 -78 -86q-49 0 -168 43t-176 43q-332 -55 -332 -371 q0 -98 37 -168q82 90 225.5 145.5t274.5 55.5q319 0 319 -246q0 -131 -147 -217q-127 -78 -266 -78q-56 0 -107 4q20 -168 21 -421q0 -287 -156 -467q-164 -193 -446 -193q-180 0 -326 125t-146 301q0 197 111 234l49 16q94 0 94 -98q0 -37 -45 -74q-16 -16 -24 -21v-57 q0 -94 94 -168t193 -74q397 0 417 476l4 98q4 94 0 151q-6 104 -22 211q-78 27 -137 72q-33 12 -45 37q-53 47 -86 115q-213 -309 -529 -310q-201 0 -346 129t-145 326q0 82 141 238l86 155q0 111 -139 111q-115 0 -115 -90q0 -37 29 -74l28 -37q16 -20 17 -49 q0 -82 -82 -82q-41 0 -66 33l-28 37q-61 78 -62 172zM1307 240q102 -61 299 -62q66 0 151 37q103 41 103 94q0 57 -50 74q-12 4 -98 4q-102 0 -221 -37q-143 -45 -184 -110z" />
<glyph unicode="&#x107f;" horiz-adv-x="1177" d="M20 545q0 147 62 262q74 135 205 168q37 20 78 0q233 -115 233 -348q0 -143 -86 -239.5t-229 -121.5q98 -98 266 -98q131 0 237 78q119 82 119 209q0 143 -4 155q-12 37 -123 168q-16 20 -16 41q0 70 98 70q49 0 78 -33q98 -111 115 -180q12 -49 12 -221 q0 -193 -164 -324q-152 -123 -352 -123q-242 0 -385.5 147.5t-143.5 389.5zM184 545q0 -66 13 -127q238 8 237 209q0 123 -115 188q-135 -37 -135 -270z" />
<glyph unicode="&#x1080;" horiz-adv-x="1988" d="M41 295q0 246 324 246q131 0 274 -55.5t225 -145.5q37 70 37 168q0 315 -332 315q-57 0 -178 -43t-166 -43q-78 0 -78 86q0 57 58 74q90 29 180 57q106 33 184 33q221 0 356.5 -129t135.5 -350q0 -84 -19 -154q-8 -14 43 -55q164 -135 316 -135q156 0 250 92t94 248 q0 225 -221 303q-74 25 -74 82q0 98 94 82q160 -25 266 -168q98 -131 99 -299q0 -221 -143.5 -362.5t-364.5 -141.5q-242 0 -393 135q-31 37 -43 47l-39 -30q-8 -25 -41 -37q-152 -115 -430 -115q-139 0 -267 78q-147 86 -147 217zM205 295q0 -53 102 -94q86 -37 148 -37 q201 0 303 61q-41 66 -185 111q-119 37 -221 37q-86 0 -98 -4q-49 -16 -49 -74z" />
<glyph unicode="&#x1081;" horiz-adv-x="1226" d="M-463 -645q0 197 111 233l49 17q94 0 94 -99q0 -37 -45 -73q-16 -16 -25 -21v-57q0 -94 94.5 -168t192.5 -74q397 0 418 475l4 99q4 94 0 151q-8 127 -8 162q-47 -29 -72 -29q-49 0 -69 45q-258 115 -258 471q0 209 159.5 365t368.5 156q246 0 399.5 -156t153.5 -401 q-18 -221 -27 -304q-92 -74 -155 29q18 176 18 275q0 180 -104.5 288.5t-284.5 108.5q-164 0 -279 -143q131 -29 226 -185q86 -139 96 -266q16 -330 16 -666q0 -287 -155 -467q-164 -193 -447 -192q-180 0 -325.5 125t-145.5 301zM190 487q0 -143 50 -208q33 -53 163 -127 q21 25 21 86q0 90 -57 192q-66 119 -148 119h-20q-8 -29 -9 -62z" />
<glyph unicode="&#x1082;" horiz-adv-x="1212" d="M-88 -573q0 -213 147.5 -348.5t360.5 -135.5q319 0 569 131q180 94 410 320q33 33 33 82q0 98 -70 98q-20 0 -41 -16q-221 -217 -406 -320q-238 -131 -495 -131q-139 0 -243.5 92t-104.5 228q0 328 524 397q41 4 73.5 47t32.5 84q0 53 -57 53q-307 0 -504 -135 q-229 -156 -229 -446zM16 526q0 23 16.5 37.5t39.5 14.5t40 -14.5t17 -37.5t-16.5 -41t-40.5 -18q-23 0 -39.5 17.5t-16.5 41.5zM53 334q0 27 16.5 42t36.5 15q27 0 44.5 -15.5t17.5 -41.5q0 -23 -17.5 -41.5t-44.5 -18.5q-20 0 -36 19q-16 20 -17 41zM53 705 q0 20 17.5 39.5t35.5 19.5q27 0 44.5 -18.5t17.5 -40.5q0 -23 -17.5 -40.5t-44.5 -17.5q-20 0 -36.5 17.5t-16.5 40.5zM160 195q0 55 53 55q20 0 37.5 -16.5t17.5 -38.5q0 -20 -16 -37t-39 -17q-25 0 -39 16.5t-14 37.5zM160 846q0 20 14 36.5t39 16.5q20 0 37.5 -15.5 t17.5 -37.5q0 -27 -17.5 -42.5t-37.5 -15.5q-53 0 -53 58zM299 102q0 27 15.5 42.5t35.5 15.5q27 0 43.5 -15.5t16.5 -42.5q0 -20 -16.5 -39.5t-43.5 -19.5q-20 0 -35.5 18.5t-15.5 40.5zM299 936q0 20 14.5 38.5t36.5 18.5q27 0 43.5 -18.5t16.5 -38.5q0 -27 -16.5 -41 t-43.5 -14q-20 0 -35.5 16t-15.5 39zM477 72q0 23 16 37t39 14t38.5 -15.5t15.5 -35.5q0 -23 -17.5 -41.5t-36.5 -18.5q-23 0 -39 17.5t-16 42.5zM477 965q0 27 16 42t39 15t38.5 -15.5t15.5 -41.5q0 -20 -17.5 -36t-36.5 -16q-23 0 -39 14.5t-16 37.5zM635 102 q0 27 16 42.5t43 15.5q20 0 37 -15.5t17 -42.5q0 -20 -15.5 -39.5t-38.5 -19.5q-27 0 -43 18.5t-16 40.5zM635 936q0 20 17.5 38.5t41.5 18.5q20 0 37 -18.5t17 -38.5q0 -27 -17 -41t-37 -14q-27 0 -43 16t-16 39zM778 195q0 27 15 41t38 14t39.5 -16.5t16.5 -38.5 q0 -20 -15.5 -37t-40.5 -17q-23 0 -38 16.5t-15 37.5zM778 846q0 20 15.5 36.5t37.5 16.5q23 0 39.5 -15.5t16.5 -37.5q0 -27 -16.5 -42.5t-39.5 -15.5t-38 15.5t-15 42.5zM881 334q0 57 57 57q20 0 37.5 -15.5t17.5 -41.5q0 -23 -18 -41t-37 -19q-29 0 -43 18.5t-14 41.5z M881 705q0 20 16 39.5t41 19.5q18 0 37 -21q18 -18 18 -38q0 -23 -17.5 -40.5t-37.5 -17.5q-29 0 -43 17.5t-14 40.5zM920 526q0 23 15 37.5t38 14.5t39 -14.5t16 -37.5t-16.5 -41t-38.5 -18q-23 0 -38 17.5t-15 41.5z" />
<glyph unicode="&#x1083;" horiz-adv-x="1525" d="M6 526q0 23 16 37.5t39 14.5t40.5 -13.5t17.5 -38.5q0 -23 -16.5 -40t-41.5 -17q-23 0 -39 16.5t-16 40.5zM43 334q0 27 17.5 42t35.5 15q27 0 44.5 -15.5t17.5 -41.5q0 -20 -17.5 -40t-44.5 -20q-20 0 -37 21q-16 18 -16 39zM43 707q0 10 4 19t12.5 18.5t17.5 14.5t19 5 q27 0 44.5 -19.5t17.5 -37.5q0 -25 -17.5 -42.5t-44.5 -17.5q-18 0 -35.5 17.5t-17.5 42.5zM150 197q0 25 13 39t38 14q23 0 40 -16.5t17 -36.5t-17.5 -38t-39.5 -18q-25 0 -38 16.5t-13 39.5zM150 848q0 18 13 35.5t38 17.5q23 0 40 -16.5t17 -36.5q0 -27 -17 -42t-40 -15 q-25 0 -38 15t-13 42zM287 102q0 27 16.5 42.5t36.5 15.5q27 0 43 -15.5t16 -42.5q0 -10 -5 -19t-12 -18.5t-18.5 -14.5t-23.5 -5q-20 0 -36.5 18.5t-16.5 38.5zM287 938q0 18 15 36.5t38 18.5q27 0 43 -18.5t16 -36.5q0 -27 -16 -41t-43 -14q-20 0 -36.5 16t-16.5 39z M467 72q0 23 16 38t39 15t37 -16.5t14 -36.5q0 -23 -16 -40.5t-35 -17.5q-23 0 -39 16.5t-16 41.5zM467 965q0 27 16 43t39 16t37 -16.5t14 -42.5q0 -20 -16 -35t-35 -15q-23 0 -39 14.5t-16 35.5zM625 102q0 27 16 42.5t41 15.5q20 0 36.5 -15.5t16.5 -42.5q0 -10 -4 -20 t-11 -18.5t-16.5 -13.5t-21.5 -5q-25 0 -41 18.5t-16 38.5zM625 938q0 8 4 18.5t12 18.5t19.5 13t21.5 5t20.5 -5t17.5 -13t11 -18.5t4 -18.5q0 -27 -16.5 -41t-36.5 -14q-25 0 -41 16t-16 39zM768 197q0 25 15 39t38 14q25 0 40.5 -16.5t15.5 -36.5t-15.5 -38t-40.5 -18 q-23 0 -38 16.5t-15 39.5zM768 848q0 18 15.5 35.5t37.5 17.5q25 0 40.5 -16.5t15.5 -36.5q0 -27 -15.5 -42t-40.5 -15q-23 0 -38 15t-15 42zM848 989q74 66 342 35q104 -20 88 -127q6 -139 6 -229q-4 -139 0 -525l4 -639q4 -475 418 -475q98 0 192.5 74t94.5 168v57 q-8 4 -25 21q-45 37 -45 73q0 98 94 99q12 -4 49 -17q111 -40 111 -233q0 -176 -145.5 -301t-325.5 -125q-283 0 -446 192q-156 180 -156 467q0 225 5 423t8 363t2 294t-15 215q-4 23 -22.5 34t-46 17t-58.5 13t-57.5 20.5t-47 38t-24.5 67.5zM870 334q0 27 14.5 42t41.5 15 q20 0 37.5 -15.5t17.5 -41.5q0 -18 -16 -39q-16 -20 -39 -21q-27 0 -41.5 19.5t-14.5 40.5zM870 707q0 10 4.5 19t12.5 18.5t18 14.5t21 5q20 0 39 -19q16 -18 16 -38q0 -25 -17.5 -42.5t-37.5 -17.5q-27 0 -41.5 17.5t-14.5 42.5zM909 526q0 23 15.5 37.5t38.5 14.5 t39 -13.5t16 -38.5q0 -23 -16.5 -40t-38.5 -17q-23 0 -38.5 16.5t-15.5 40.5z" />
<glyph unicode="&#x1084;" horiz-adv-x="2287" d="M16 401q0 233 324 328q-53 37 -111 70q-66 49 -73 98q-29 209 417 209q135 0 168 -8q61 -16 102.5 -67.5t41.5 -112.5q0 -119 -123 -119q-70 0 -70 53q0 20 13 45q-12 37 -58 45h-82q-229 0 -229 -37l143 -82q147 -86 148 -118q0 -37 -62 -66q-229 -74 -237 -78 q-152 -53 -152 -160q0 -119 180 -184q135 -49 271 -49q102 0 198 70q74 53 176 147q31 51 66 68.5t60.5 7.5t37 -42t-5.5 -77q-94 -121 -217 -219q-143 -115 -315 -115q-221 0 -394 86q-217 106 -217 307zM1094 539q0 23 16 37t41 14q23 0 39 -14.5t16 -36.5 q0 -23 -16 -41.5t-39 -18.5q-25 0 -41 17.5t-16 42.5zM1128 344q0 29 18 43t38 14q27 0 43 -14t16 -43q0 -20 -15.5 -38.5t-43.5 -18.5q-20 0 -37 18q-18 18 -19 39zM1128 717q0 16 19 39q18 18 37 18q27 0 43 -18.5t16 -38.5q0 -25 -16 -41.5t-43 -16.5q-20 0 -38 17.5 t-18 40.5zM1237 207q0 27 16 40t39 13t38.5 -15.5t15.5 -37.5q0 -23 -17.5 -38t-36.5 -15q-23 0 -39 15t-16 38zM1237 858q0 20 16.5 36.5t38.5 16.5q23 0 38.5 -15t15.5 -38q0 -27 -15.5 -42t-38.5 -15t-39 15t-16 42zM1374 115q0 27 16.5 41t36.5 14q27 0 43.5 -14.5 t16.5 -40.5q0 -23 -16.5 -41.5t-43.5 -18.5q-20 0 -36.5 18.5t-16.5 41.5zM1374 948q0 20 17.5 39t35.5 19q27 0 43.5 -18.5t16.5 -39.5q0 -27 -16.5 -41t-43.5 -14q-20 0 -36.5 16.5t-16.5 38.5zM1554 84q0 23 15.5 37t40.5 14q20 0 37.5 -15.5t17.5 -35.5q0 -25 -16.5 -42 t-38.5 -17q-25 0 -40.5 17t-15.5 42zM1554 977q0 27 15.5 42t40.5 15q20 0 37.5 -15t17.5 -42q0 -23 -16.5 -37t-38.5 -14q-25 0 -40.5 14t-15.5 37zM1712 115q0 27 16.5 41t43.5 14q20 0 36.5 -14.5t16.5 -40.5q0 -23 -16.5 -41.5t-36.5 -18.5q-27 0 -43.5 18.5t-16.5 41.5 zM1712 948q0 20 16.5 39t43.5 19q20 0 36.5 -18.5t16.5 -39.5q0 -27 -16.5 -41t-36.5 -14q-27 0 -43.5 16.5t-16.5 38.5zM1853 207q0 27 16.5 40t39.5 13q25 0 40 -15.5t15 -37.5q0 -20 -15.5 -36.5t-39.5 -16.5q-23 0 -39.5 15t-16.5 38zM1853 858q0 20 16.5 36.5 t39.5 16.5q25 0 40 -15t15 -38q0 -27 -15 -42t-40 -15q-23 0 -39.5 15t-16.5 42zM1958 344q0 29 16 43t43 14q20 0 37 -14t17 -43q0 -18 -19 -39q-16 -18 -35 -18q-27 0 -43 18.5t-16 38.5zM1958 717q0 20 15.5 38.5t43.5 18.5q20 0 37 -18.5t17 -38.5q0 -25 -17 -41.5 t-37 -16.5q-27 0 -43 17.5t-16 40.5zM1997 539q0 23 14 37t37 14q25 0 41 -14.5t16 -36.5q0 -23 -15 -41.5t-42 -18.5q-23 0 -37 17.5t-14 42.5z" />
<glyph unicode="&#x1085;" horiz-adv-x="1243" d="M16 537q0 20 16.5 34.5t39.5 14.5t40 -14.5t17 -34.5q0 -25 -16.5 -43.5t-40.5 -18.5q-23 0 -39.5 17.5t-16.5 44.5zM53 342q0 27 16.5 42t36.5 15q27 0 44.5 -15t17.5 -42q0 -10 -5 -20.5t-13.5 -18.5t-18.5 -13t-25 -5q-20 0 -36 16q-16 20 -17 41zM53 717q0 8 5 18 t12.5 18.5t16.5 13.5t19 5q27 0 44.5 -18.5t17.5 -36.5q0 -29 -17.5 -45.5t-44.5 -16.5q-20 0 -36.5 17.5t-16.5 44.5zM94 1354q0 176 246 248q-43 27 -84 51q-51 39 -57 73q-20 160 317 160q102 0 125 -6q49 -12 79 -51t30 -86q0 -90 -93 -90q-51 0 -51 41q0 16 8 32 q-8 31 -45 37h-59q-174 0 -174 -30l108 -60q111 -66 111 -90q0 -29 -45 -51q-174 -55 -180 -59q-115 -39 -115 -119q0 -90 137 -142q100 -35 203 -34q78 0 152 51q41 31 194 149l105 -43q-156 -145 -211 -192q-109 -86 -240 -86q-168 0 -297 63q-164 80 -164 234zM160 205 q0 25 14 39t39 14q20 0 37.5 -16.5t17.5 -36.5t-16 -37.5t-39 -17.5q-25 0 -39 16t-14 39zM160 854q0 20 14 37.5t39 17.5q20 0 37.5 -16t17.5 -39q0 -25 -17.5 -40t-37.5 -15q-25 0 -39 15t-14 40zM299 111q0 27 15.5 42t35.5 15q29 0 44.5 -15.5t15.5 -41.5 q0 -20 -15.5 -39t-44.5 -19q-20 0 -35.5 17.5t-15.5 40.5zM299 944q0 20 14.5 40t36.5 20q29 0 44.5 -19.5t15.5 -40.5q0 -25 -15.5 -39t-44.5 -14q-20 0 -35.5 16.5t-15.5 36.5zM477 80q0 23 16 37t39 14t38.5 -15.5t15.5 -35.5q0 -23 -17.5 -40t-36.5 -17q-23 0 -39 16 t-16 41zM477 973q0 27 16 42t39 15t38.5 -15.5t15.5 -41.5q0 -18 -17.5 -33.5t-36.5 -15.5q-23 0 -39 15t-16 34zM635 111q0 27 16 42t43 15q20 0 37 -15.5t17 -41.5q0 -10 -4.5 -20.5t-11.5 -19t-17 -13.5t-21 -5q-27 0 -43 17.5t-16 40.5zM635 944q0 10 4 20.5t13.5 18.5 t19.5 14.5t22 6.5q10 0 19.5 -6.5t16.5 -13.5t12.5 -18.5t5.5 -21.5q0 -25 -17 -39t-37 -14q-27 0 -43 16.5t-16 36.5zM778 205q0 25 16.5 39t36.5 14q27 0 41.5 -16.5t14.5 -36.5t-14.5 -37.5t-41.5 -17.5q-20 0 -36.5 16t-16.5 39zM778 854q0 20 16.5 37.5t36.5 17.5 q27 0 41.5 -16t14.5 -39q0 -25 -14.5 -40t-41.5 -15q-20 0 -36.5 15t-16.5 40zM881 342q0 27 15 42t42 15q18 0 36.5 -15t18.5 -42q0 -20 -18 -41q-18 -16 -37 -16q-27 0 -42 18.5t-15 38.5zM881 717q0 8 4 18t12 18.5t18.5 13.5t22.5 5q18 0 37 -18q18 -20 18 -37 q0 -29 -18.5 -45.5t-36.5 -16.5q-27 0 -42 17.5t-15 44.5zM920 537q0 20 15 34.5t38 14.5t39 -14.5t16 -34.5q0 -25 -16.5 -43.5t-38.5 -18.5q-23 0 -38 17.5t-15 44.5z" />
<glyph unicode="&#x1086;" horiz-adv-x="1234" d="M16 516q0 23 16.5 36t39.5 13t40 -13t17 -36q0 -25 -16.5 -42t-40.5 -17q-23 0 -39.5 16t-16.5 43zM53 322q0 27 16.5 43t36.5 16q27 0 44.5 -16.5t17.5 -42.5q0 -18 -17.5 -38t-44.5 -20q-18 0 -36 19q-16 20 -17 39zM53 694q0 20 17.5 39t35.5 19q27 0 44.5 -17.5 t17.5 -40.5q0 -25 -17.5 -41t-44.5 -16q-20 0 -36.5 17.5t-16.5 39.5zM160 184q0 54 53 54q20 0 37.5 -15.5t17.5 -38.5q0 -20 -16 -37.5t-39 -17.5q-25 0 -39 17.5t-14 37.5zM160 836q0 20 14 36.5t39 16.5q20 0 37.5 -15.5t17.5 -37.5q0 -27 -17.5 -42.5t-37.5 -15.5 q-53 0 -53 58zM299 90q0 29 15.5 43t35.5 14q27 0 43.5 -14t16.5 -43q0 -18 -16.5 -37.5t-43.5 -19.5q-20 0 -35.5 17.5t-15.5 39.5zM299 926q0 20 14.5 38.5t36.5 18.5q27 0 43.5 -19.5t16.5 -37.5q0 -27 -16.5 -41.5t-43.5 -14.5q-20 0 -35.5 16.5t-15.5 39.5zM326 1022 q66 76 106.5 128t63.5 83q20 31 35.5 59.5t29.5 57.5t22.5 54.5t14.5 47.5q4 10 6 19.5t4 15.5q2 8 2 12q-25 -4 -41 -7t-24 -3q-72 16 -117 62t-45 124q0 84 53 137q55 55 133 56q80 0 133 -56q52 -53 56 -135q2 -88 -27 -174t-76 -166q-23 -41 -48 -75.5t-54 -67.5 q-29 -31 -84 -74t-143 -98zM477 59q0 23 16 38.5t39 15.5t38.5 -15.5t15.5 -38.5t-17.5 -40t-36.5 -17q-23 0 -39 17.5t-16 39.5zM477 952q0 27 16 43.5t39 16.5t38.5 -15.5t15.5 -44.5q0 -20 -17.5 -34.5t-36.5 -14.5q-23 0 -39 14.5t-16 34.5zM518 1669q0 -59 57 -59 q63 4 64 59q-1 62 -64 62q-57 0 -57 -62zM635 90q0 29 16 43t43 14q20 0 37 -14t17 -43q0 -20 -15.5 -38.5t-38.5 -18.5q-27 0 -43 17.5t-16 39.5zM635 926q0 18 17.5 37.5t41.5 19.5q20 0 37 -18.5t17 -38.5q0 -27 -17 -41.5t-37 -14.5q-27 0 -43 16.5t-16 39.5zM778 184 q0 27 15 40.5t38 13.5t39.5 -15.5t16.5 -38.5q0 -20 -15.5 -37.5t-40.5 -17.5q-23 0 -38 17.5t-15 37.5zM778 836q0 20 15.5 36.5t37.5 16.5q23 0 39.5 -15.5t16.5 -37.5q0 -27 -16.5 -42.5t-39.5 -15.5t-38 15.5t-15 42.5zM881 322q0 27 14 43t43 16q20 0 37.5 -16.5 t17.5 -42.5q0 -18 -18 -39q-18 -18 -37 -19q-29 0 -43 18.5t-14 39.5zM881 694q0 20 16 39t41 19q18 0 37 -19q18 -18 18 -39q0 -25 -17.5 -41t-37.5 -16q-29 0 -43 17.5t-14 39.5zM920 516q0 23 15 36t38 13t39 -13t16 -36q0 -25 -16.5 -42t-38.5 -17q-23 0 -38 16t-15 43z " />
<glyph unicode="&#x1087;" horiz-adv-x="616" d="M-135 -502q100 92 155.5 151.5t73.5 88.5q20 29 36.5 58.5t33.5 62.5q14 29 24.5 57.5t20.5 56.5q10 37 -8 31q-12 -4 -23.5 -4h-21.5q-72 16 -115 60t-43 124q0 41 11 75t40 63q55 59 135 59q78 0 131 -57q27 -29 41.5 -62t16.5 -76q2 -88 -27 -165.5t-76 -155.5 q-45 -78 -104 -144q-29 -35 -102.5 -90t-198.5 -133zM129 176q0 -57 59 -57q63 4 64 57q-1 62 -64 62q-59 0 -59 -62z" />
<glyph unicode="&#x1088;" horiz-adv-x="512" d="M35 262q0 92 64.5 157.5t156.5 65.5t156.5 -65.5t64.5 -157.5q4 -57 4 -94q0 -61 -5 -91t-32 -67q-4 -6 -8 -10q-12 -27 -51 -66q-72 -72 -231 -129q-25 -10 -88 -26q47 63 95 128.5t95 133.5q-92 0 -156.5 64.5t-64.5 156.5zM35 748q0 92 64.5 156.5t156.5 64.5 t156.5 -64.5t64.5 -156.5t-64.5 -157t-156.5 -65t-156.5 64.5t-64.5 157.5zM170 262q0 -37 20.5 -57.5t65.5 -26.5q37 0 57.5 20.5t28.5 63.5q0 39 -20.5 59.5t-65.5 26.5q-37 0 -57.5 -20.5t-28.5 -65.5zM170 748q0 -37 20.5 -57.5t65.5 -28.5q37 0 57.5 20.5t28.5 65.5 q0 37 -20.5 57t-65.5 29q-37 0 -57.5 -20.5t-28.5 -65.5z" />
<glyph unicode="&#x1089;" horiz-adv-x="512" d="M35 262q0 92 64.5 157.5t156.5 65.5t156.5 -65.5t64.5 -157.5t-64.5 -156.5t-156.5 -64.5t-156.5 64.5t-64.5 156.5zM170 262q0 -37 20.5 -57.5t65.5 -26.5q37 0 57.5 20.5t28.5 63.5q0 39 -20.5 59.5t-65.5 26.5q-37 0 -57.5 -20.5t-28.5 -65.5z" />
<glyph unicode="&#x108a;" horiz-adv-x="778" d="M37 252q0 92 65.5 157.5t157.5 65.5t156.5 -65.5t64.5 -157.5q66 45 132.5 93t129.5 99q-23 -82 -43 -133q-51 -127 -112 -188q-39 -37 -52.5 -46t-23.5 -11q-31 -20 -66.5 -29.5t-87.5 -9.5q-72 4 -98 4q-92 0 -157.5 64.5t-65.5 156.5zM37 731q0 92 65.5 156.5 t157.5 64.5t156.5 -64.5t64.5 -156.5q66 43 132.5 91.5t129.5 99.5q-23 -82 -43 -134q-51 -127 -112 -188q-39 -37 -52.5 -45t-23.5 -12q-31 -20 -66.5 -28.5t-87.5 -8.5q-72 2 -98 2q-92 0 -157.5 65.5t-65.5 157.5zM174 252q6 -43 26.5 -63.5t59.5 -20.5q43 6 63.5 26.5 t20.5 57.5q-6 45 -26.5 65.5t-57.5 20.5q-45 -6 -65.5 -26.5t-20.5 -59.5zM174 731q6 -45 26.5 -65.5t59.5 -20.5q43 6 63.5 26.5t20.5 59.5q-6 43 -26.5 63.5t-57.5 20.5q-45 -6 -65.5 -26.5t-20.5 -57.5z" />
<glyph unicode="&#x108b;" horiz-adv-x="1769" d="M16 528q0 23 15.5 36.5t40.5 13.5q23 0 39 -13.5t16 -36.5t-16.5 -41t-38.5 -18q-25 0 -40.5 17.5t-15.5 41.5zM51 336q0 27 17.5 41t37.5 14q27 0 43.5 -14.5t16.5 -40.5q0 -23 -16.5 -41.5t-43.5 -18.5q-23 0 -36 19q-18 18 -19 41zM51 707q0 20 17.5 39.5t37.5 19.5 q27 0 43.5 -19.5t16.5 -39.5q0 -23 -16.5 -40.5t-43.5 -17.5q-20 0 -37.5 17.5t-17.5 40.5zM160 197q0 55 51 55q23 0 40 -16.5t17 -38.5q0 -20 -17.5 -37t-39.5 -17q-25 0 -38 16.5t-13 37.5zM160 848q0 20 13 36.5t38 16.5q23 0 40 -15.5t17 -37.5q0 -29 -17 -43t-40 -14 q-51 0 -51 57zM297 102q0 27 15.5 43.5t35.5 16.5q29 0 44.5 -16.5t15.5 -43.5q0 -20 -15.5 -38.5t-44.5 -18.5q-20 0 -35.5 17.5t-15.5 39.5zM297 938q0 20 14.5 38.5t36.5 18.5q29 0 44.5 -18.5t15.5 -38.5q-1 -55 -60 -55q-20 0 -35.5 16t-15.5 39zM475 74q0 20 16 35.5 t41 15.5q20 0 36 -15.5t16 -35.5q0 -25 -17.5 -42.5t-34.5 -17.5q-25 0 -41 17.5t-16 42.5zM475 965q0 27 16 43t41 16q20 0 36 -15.5t16 -43.5q0 -20 -17.5 -35t-34.5 -15q-25 0 -41 14.5t-16 35.5zM633 102q0 27 16 43.5t43 16.5q23 0 38 -16.5t15 -43.5q0 -20 -15 -38.5 t-38 -18.5q-27 0 -43 17.5t-16 39.5zM633 938q0 20 17.5 38.5t41.5 18.5q23 0 38 -18.5t15 -38.5q0 -29 -15 -42t-38 -13q-27 0 -43 16t-16 39zM776 197q0 27 15 41t38 14q25 0 41.5 -16.5t16.5 -38.5q0 -20 -15.5 -37t-42.5 -17q-23 0 -38 16.5t-15 37.5zM776 848 q0 20 15.5 36.5t37.5 16.5q25 0 41.5 -15.5t16.5 -37.5q0 -29 -16.5 -43t-41.5 -14q-23 0 -38 14t-15 43zM879 336q0 55 57 55q20 0 37.5 -14.5t17.5 -40.5q0 -20 -18 -41q-16 -18 -37 -19q-29 0 -43 18.5t-14 41.5zM879 707q0 20 17 39.5t40 19.5q20 0 37 -21 q18 -18 18 -38q0 -23 -17.5 -40.5t-37.5 -17.5q-29 0 -43 17.5t-14 40.5zM918 528q0 23 16 36.5t39 13.5t38 -13.5t15 -36.5t-15.5 -41t-37.5 -18q-23 0 -39 17.5t-16 41.5zM1157 567q0 39 15.5 74t41 60.5t61.5 41t77 15.5q39 0 73.5 -15.5t60 -41t41 -60.5t15.5 -74 q0 -41 -15.5 -76.5t-41 -62.5t-60 -42t-73.5 -15q-82 0 -138 57q-57 63 -57 139zM1280 567q0 -29 20.5 -49t51.5 -20q29 0 50 20.5t21 48.5q0 31 -20.5 52.5t-50.5 21.5q-29 0 -50.5 -21.5t-21.5 -52.5z" />
<glyph unicode="&#x108c;" horiz-adv-x="2263" d="M23 528q0 23 15 36.5t40 13.5q23 0 40 -13.5t17 -36.5t-17.5 -41t-39.5 -18q-25 0 -40 17.5t-15 41.5zM59 336q0 27 17 41t37 14q27 0 43 -14.5t16 -40.5q0 -23 -16.5 -41.5t-42.5 -18.5q-18 0 -37 19q-16 20 -17 41zM59 707q0 20 16.5 39.5t37.5 19.5q27 0 43 -19.5 t16 -39.5q0 -23 -16 -40.5t-43 -17.5q-20 0 -37 17.5t-17 40.5zM166 197q0 55 51 55q23 0 40 -16.5t17 -38.5q0 -20 -16 -37t-41 -17q-23 0 -37 16.5t-14 37.5zM166 848q0 20 14.5 36.5t36.5 16.5q23 0 40 -15.5t17 -37.5q0 -29 -17 -43t-40 -14q-51 0 -51 57zM303 102 q0 27 16.5 43.5t36.5 16.5q27 0 43.5 -16.5t16.5 -43.5q0 -20 -16.5 -38.5t-43.5 -18.5q-20 0 -36.5 17.5t-16.5 39.5zM303 938q0 20 15.5 38.5t37.5 18.5q27 0 43.5 -18.5t16.5 -38.5q0 -29 -16.5 -42t-43.5 -13q-20 0 -36.5 16t-16.5 39zM483 74q0 20 16.5 35.5t39.5 15.5 t38 -15.5t15 -35.5q0 -25 -17.5 -42.5t-35.5 -17.5q-23 0 -39.5 17.5t-16.5 42.5zM483 965q0 27 16.5 43t39.5 16t38 -15.5t15 -43.5q0 -20 -17.5 -35t-35.5 -15q-23 0 -39.5 14.5t-16.5 35.5zM641 102q0 27 16 43.5t43 16.5q20 0 37 -16.5t17 -43.5q0 -20 -15.5 -38.5 t-38.5 -18.5q-27 0 -43 17.5t-16 39.5zM641 938q0 20 17.5 38.5t41.5 18.5q20 0 37 -18.5t17 -38.5q0 -29 -17 -42t-37 -13q-27 0 -43 16t-16 39zM782 197q0 27 16.5 41t39.5 14t39 -16.5t16 -38.5q0 -20 -14.5 -37t-40.5 -17q-23 0 -39.5 16.5t-16.5 37.5zM782 848 q0 20 16.5 36.5t39.5 16.5t39 -15.5t16 -37.5q0 -29 -16 -43t-39 -14t-39.5 14t-16.5 43zM887 336q0 55 55 55q23 0 40 -14.5t17 -40.5q0 -20 -18 -41q-18 -18 -39 -19q-27 0 -41 18.5t-14 41.5zM887 707q0 20 16.5 39.5t38.5 19.5q20 0 39 -21q18 -18 18 -38 q0 -23 -17 -40.5t-40 -17.5q-27 0 -41 17.5t-14 40.5zM926 528q0 23 15 36.5t38 13.5t39 -13.5t16 -36.5t-16.5 -41t-38.5 -18q-23 0 -38 17.5t-15 41.5zM1159 555q0 39 15.5 73t42 59.5t61.5 40.5t76 15q39 2 73.5 -13t61.5 -41.5t41 -61.5t14 -72q0 -41 -14 -77t-41 -62.5 t-61.5 -42t-73.5 -15.5q-82 0 -137 58q-58 61 -58 139zM1284 555q0 -29 20.5 -50.5t49.5 -21.5q31 0 52 20.5t21 51.5t-22.5 51.5t-50.5 20.5q-29 0 -49.5 -20.5t-20.5 -51.5zM1655 555q0 39 14 73t41 59.5t61.5 40.5t75.5 15q41 2 76 -13t60.5 -41.5t40 -61.5t14.5 -72 q0 -82 -54.5 -139.5t-136.5 -57.5t-137 57.5t-55 139.5zM1778 555q0 -29 20.5 -50.5t48.5 -21.5q29 0 52.5 20.5t23.5 51.5t-23.5 51.5t-52.5 20.5t-49 -20.5t-20 -51.5z" />
<glyph unicode="&#x108d;" horiz-adv-x="1245" d="M6 522q0 23 16 36t39 13t40.5 -13t17.5 -36q0 -25 -16.5 -42t-41.5 -17q-23 0 -39 16.5t-16 42.5zM43 328q0 27 16.5 42t36.5 15q27 0 44.5 -15.5t17.5 -41.5q0 -20 -17.5 -39t-44.5 -19q-18 0 -37 19q-16 20 -16 39zM43 700q0 18 17.5 38t35.5 20q27 0 44.5 -18.5 t17.5 -39.5q0 -25 -17.5 -42t-44.5 -17q-20 0 -36.5 18.5t-16.5 40.5zM106 -117h881v-151h-225.5t-214.5 -2h-441v153zM150 190q0 54 53 54q20 0 37.5 -15.5t17.5 -38.5q0 -20 -16.5 -37.5t-38.5 -17.5q-25 0 -39 17.5t-14 37.5zM150 842q0 20 14 36.5t39 16.5 q20 0 37.5 -15.5t17.5 -37.5q0 -27 -17.5 -42.5t-37.5 -15.5q-53 0 -53 58zM289 96q0 27 15.5 42.5t35.5 15.5q27 0 43 -15.5t16 -42.5q0 -18 -16 -37.5t-43 -19.5q-20 0 -35.5 17.5t-15.5 39.5zM289 932q0 20 14 38.5t37 18.5q27 0 43 -19.5t16 -37.5q0 -27 -16 -41 t-43 -14q-20 0 -35.5 16t-15.5 39zM467 66q0 23 16 38t39 15t38 -15.5t15 -37.5q0 -23 -17 -40.5t-36 -17.5q-23 0 -39 17.5t-16 40.5zM467 958q0 27 16 43.5t39 16.5t38 -15.5t15 -44.5q0 -20 -17 -34.5t-36 -14.5q-23 0 -39 14.5t-16 34.5zM625 96q0 27 16 42.5t43 15.5 q20 0 36.5 -15.5t16.5 -42.5q0 -20 -15 -38.5t-38 -18.5q-27 0 -43 17.5t-16 39.5zM625 932q0 18 17 37.5t42 19.5q20 0 36.5 -18.5t16.5 -38.5q0 -27 -16.5 -41t-36.5 -14q-27 0 -43 16t-16 39zM768 190q0 27 15 40.5t38 13.5q25 0 40.5 -15.5t15.5 -38.5 q0 -20 -15.5 -37.5t-40.5 -17.5q-23 0 -38 17.5t-15 37.5zM768 842q0 20 15.5 36.5t37.5 16.5q25 0 40.5 -15.5t15.5 -37.5q0 -27 -15.5 -42.5t-40.5 -15.5q-23 0 -38 15.5t-15 42.5zM870 328q1 57 58 57q20 0 37.5 -15.5t17.5 -41.5q0 -20 -18 -39q-18 -18 -37 -19 q-27 0 -42.5 17.5t-15.5 40.5zM870 700q0 20 17.5 39t40.5 19q18 0 37 -19q18 -23 18 -39q0 -25 -17.5 -42t-37.5 -17q-27 0 -42.5 18.5t-15.5 40.5zM909 522q0 23 15.5 36t38.5 13t39 -13t16 -36q0 -25 -16.5 -42t-38.5 -17q-23 0 -38.5 16.5t-15.5 42.5z" />
<glyph unicode="&#x108e;" horiz-adv-x="1196" d="M8 516q0 188 193 324q66 45 131 73q53 41 164 66q41 8 73 -16q225 0 364.5 -139.5t139.5 -364.5q0 -156 -94 -291t-242 -168q-61 -29 -114 -29q-221 0 -357 78q-258 111 -258 467zM172 516q0 -201 102 -283q49 -16 66 -36h4q20 -8 33 -21q106 -41 246 -41q4 0 28 12l25 9 l33 20q33 20 65 17q135 98 135 266q0 74 -24 135q-45 -246 -320 -246q-123 0 -211 94.5t-108 221.5q-74 -74 -74 -148zM401 725q0 -70 49.5 -141.5t114.5 -71.5q164 0 164 143q0 29 -12 54q-8 33 4 61q-70 29 -156 29q-78 0 -147 -29q-16 -16 -17 -45z" />
<glyph unicode="&#x108f;" horiz-adv-x="1777" d="M14 510q0 23 15.5 37t40.5 14q20 0 37.5 -14.5t17.5 -36.5q0 -23 -16.5 -41t-38.5 -18q-25 0 -40.5 17t-15.5 42zM49 317q0 27 17.5 42.5t37.5 15.5q27 0 43.5 -15.5t16.5 -42.5q0 -20 -16.5 -39.5t-43.5 -19.5q-23 0 -36 18q-18 18 -19 41zM49 688q0 20 17.5 40t37.5 20 q27 0 43.5 -18.5t16.5 -41.5t-16.5 -40t-43.5 -17q-20 0 -37.5 17.5t-17.5 39.5zM158 178q0 55 51 55q23 0 40 -16t17 -39q0 -20 -17.5 -36.5t-39.5 -16.5q-25 0 -38 16.5t-13 36.5zM158 829q0 20 13 38t38 18q23 0 40 -16.5t17 -39.5q0 -27 -17 -42t-40 -15q-51 0 -51 57z M295 86q0 27 15.5 42t35.5 15q59 0 60 -57q0 -20 -15.5 -38.5t-44.5 -18.5q-20 0 -35.5 17t-15.5 40zM295 920q0 20 14.5 39.5t36.5 19.5q29 0 44.5 -19.5t15.5 -39.5q-1 -56 -60 -56q-20 0 -35.5 16.5t-15.5 39.5zM473 55q0 23 16 37t39 14t38.5 -14t15.5 -37t-16.5 -39 t-37.5 -16q-23 0 -39 15.5t-16 39.5zM473 948q0 27 16 42.5t39 15.5t38.5 -15.5t15.5 -42.5q0 -20 -16.5 -35.5t-37.5 -15.5q-23 0 -39 14.5t-16 36.5zM631 86q0 27 16 42t43 15q23 0 38 -15t15 -42q0 -20 -15 -38.5t-38 -18.5q-27 0 -43 17t-16 40zM631 920q0 20 17.5 39.5 t41.5 19.5q23 0 38 -19.5t15 -39.5q0 -27 -15 -41.5t-38 -14.5q-27 0 -43 16.5t-16 39.5zM774 178q0 27 15 41t38 14q25 0 41.5 -16t16.5 -39q0 -20 -15.5 -36.5t-42.5 -16.5q-23 0 -38 16.5t-15 36.5zM774 829q0 20 15.5 38t37.5 18q25 0 41.5 -16.5t16.5 -39.5 q0 -27 -16.5 -42t-41.5 -15q-23 0 -38 15.5t-15 41.5zM877 317q0 58 57 58q20 0 37.5 -15.5t17.5 -42.5q0 -20 -18 -41q-16 -18 -37 -18q-29 0 -43 18.5t-14 40.5zM877 688q0 23 17 41.5t40 18.5q18 0 37 -21q18 -18 18 -39q0 -23 -17.5 -40t-37.5 -17q-29 0 -43 17.5 t-14 39.5zM915 510q0 23 16.5 37t39.5 14t38 -14.5t15 -36.5q0 -23 -15.5 -41t-37.5 -18q-23 0 -39.5 17t-16.5 42zM1167 797q0 86 57.5 139t137.5 53q86 2 141.5 -53t55.5 -139q0 -82 -55.5 -139.5t-141.5 -57.5q-82 0 -138.5 57.5t-56.5 139.5zM1176 207q2 82 57 137 q51 55 129 55q80 0 135 -57q55 -55 55 -137q0 -84 -45 -125q-41 -41 -114 -64q-10 0 -22.5 2t-22.5 7q-29 6 -11 -31q10 -29 20.5 -57.5t24.5 -59.5q16 -33 32 -61.5t36 -57.5q37 -59 233 -239q-244 156 -305 223q-29 33 -54.5 67.5t-47.5 73.5q-45 78 -73.5 157t-26.5 167z M1284 797q0 -29 24.5 -50.5t53.5 -21.5t50.5 21.5t21.5 50.5q0 35 -19.5 54t-52.5 19q-31 0 -54.5 -19.5t-23.5 -53.5zM1294 197q0 -59 64 -58q57 0 57 58q0 59 -57 59q-63 0 -64 -59z" />
<glyph unicode="&#x1090;" horiz-adv-x="1099" d="M35 518q0 266 221 424q133 92 293 92q266 0 424 -221q92 -133 92 -295q0 -268 -221 -420q-133 -94 -297 -94q-270 0 -420 221q-92 133 -92 293zM170 512q0 -113 66 -211q51 -72 138 -115t179 -43q117 0 204 59.5t131 143.5t44 180q0 113 -68 211q-51 72 -138 116t-183 44 q-113 0 -211 -63q-70 -49 -121 -138q-41 -82 -41 -184z" />
<glyph unicode="&#x1091;" horiz-adv-x="1099" d="M375 887q31 35 60.5 67.5t60.5 42.5h135v-993h-135v821l-50 -43z" />
<glyph unicode="&#x1092;" horiz-adv-x="1099" d="M45 834q0 10 6 30q45 41 76 54.5t74 13.5q10 -6 22.5 -78t16.5 -76q31 -25 67 27q25 39 27 49q72 119 112.5 149.5t102.5 30.5q266 0 424 -221q47 -70 67 -141q18 -37 -20 -129q-51 -123 -187.5 -189.5t-265.5 -169.5q-86 -66 -137 -123q-4 -4 -40 -39.5t-58 -35.5 q-41 -1 -92 75q-4 6 -16.5 46t-12.5 57q0 27 14 45q6 6 47 -7.5t45 -11.5q68 72 164 144q127 96 222.5 129t133 95.5t37.5 123.5q0 45 -10 55q-51 72 -138 116t-183 44q-37 0 -57.5 -110.5t-55.5 -131.5q-92 -66 -119.5 -74t-109.5 -8q-31 27 -43 45q-51 53 -72 84 q-4 14 -22.5 60.5t-18.5 71.5z" />
<glyph unicode="&#x1093;" horiz-adv-x="1361" d="M61 4q27 51 76 246l62 246q33 160 67 323q51 184 164 185q51 -20 73.5 -34t49.5 -28q-98 0 -139 -139q-29 -162 -37 -190.5t-8 -53.5q0 -63 26 -63q92 33 203 32q92 0 165 -21.5t169 -70.5q55 -27 99 -62.5t83 -78.5t51.5 -68.5t12.5 -83.5q0 -68 -43 -112.5t-117 -44.5 q-35 0 -86 18q-37 12 -37 23q0 8 69.5 45t69.5 82q0 14 -10 34q-25 43 -102 95q-47 31 -72 49q-51 33 -114.5 48t-135.5 15q-53 0 -132 -13t-117 -30.5t-63.5 -161t-68.5 -186.5h-158z" />
<glyph unicode="&#x1094;" horiz-adv-x="1361" d="M61 4q127 238 205 389q92 174 103 201q96 236 123 276q86 143 204 144q25 -10 35 -17q41 -25 47 -41q27 -45 45 -82q33 -70 51 -122q2 -10 48 -174q27 -102 57 -172q18 -84 47 -161t76 -132q10 -10 112 -68q45 -25 46 -35q-21 -6 -35 -6q-47 0 -83 -4t-71 -6 q-74 0 -119 63q-16 25 -41 93q-35 90 -65 182q-78 262 -125 391q-41 51 -80 102q-139 -317 -238.5 -528t-183.5 -293h-158z" />
<glyph unicode="&#x1095;" horiz-adv-x="1099" d="M35 281q0 61 8 95t39 60q72 66 158 86l155 31q61 0 142 8t102 8q145 0 242 -20q31 -6 67 -21q0 59 -6 83t-37 79q-55 92 -144 149.5t-171 57.5q-43 0 -43 35q0 27 26 67q4 8 17 21q127 0 254 -78q246 -163 246 -444q0 -37 -5.5 -76t-19.5 -84q-25 -76 -82 -137 q-88 -102 -208 -151.5t-267 -49.5q-88 0 -166 16q-76 25 -141 62q-92 76 -105 86q-61 61 -61 117zM174 332l4 -51q43 -51 64 -66l75 -47q35 -18 113 -31l62 -10q137 0 237 57.5t137 147.5q14 23 15 41q0 37 -76 63q-37 14 -109 15q-72 0 -176 -15.5t-209 -29.5l-39 -3 q-68 -20 -78 -30.5t-13 -20.5t-7 -20z" />
<glyph unicode="&#x1096;" horiz-adv-x="1099" d="M35 778q0 55 61 117q16 12 31 27q37 31 74 57q66 39 141 61q78 18 166 19q147 0 267 -50.5t208 -152.5q57 -61 82 -135q10 -45 17.5 -81t7.5 -81q0 -279 -246 -442q-127 -80 -254 -80q-12 20 -21 31q-23 39 -22 59q0 33 43 33q82 0 171 58t144 151q43 78 43 159 q-53 -20 -126.5 -30.5t-182.5 -10.5q-51 0 -132 9.5t-112 9.5l-155 31q-86 20 -158 84q-27 25 -37 67.5t-10 89.5zM174 727q10 -31 20.5 -41t77.5 -31l39 -4q102 -12 220 -27.5t165 -15.5q72 0 109 13q76 29 76 65q-1 6 -15 41q-37 88 -136 146.5t-238 58.5l-62 -10 q-25 -4 -55.5 -9.5t-57.5 -21.5l-75 -47q-12 -10 -29.5 -27.5t-34.5 -38.5z" />
<glyph unicode="&#x1097;" horiz-adv-x="1099" d="M131 872q23 80 59 105l72 37h49l430 4l109 -21q45 -14 96 -51q123 -82 123 -205l-10 -69q-8 -20 -86 -74q-209 -147 -283 -225q-55 -55 -110 -137q-37 -55 -78 -127q55 -2 207.5 3t210.5 3q37 -49 55 -70q-8 -12 -10 -27l-740 -18q66 98 107 160q133 193 258 315 q82 78 260 180q76 41 78 58q10 39 0 59q-20 27 -51 52.5t-58 39.5q-4 0 -10 2q-27 14 -678 6z" />
<glyph unicode="&#x1098;" horiz-adv-x="1099" d="M76 446q23 61 71 111q20 12 51 27.5t74 33.5q-57 37 -67 95q-6 70 22.5 139.5t89.5 114.5q117 78 256 77q25 0 25 -75q0 -61 -25 -62q-82 0 -163 -51q-35 -23 -51.5 -62.5t-6.5 -60.5q16 -20 33 -41q25 -20 38 -38.5t52 -35.5q16 -14 49 -19t69 -12t46 -7q20 0 41.5 9 t64.5 24.5t60.5 32t34.5 46.5q6 4 13 19.5t13 36.5q-10 57 -26 67q-27 25 -52.5 43.5t-54.5 26.5q-23 12 19 73q22 35 51 41q82 -37 135 -92q35 -31 50.5 -67.5t15.5 -71.5q0 -61 -48 -119q-10 -8 -41 -41q-49 -51 -75 -51q102 -76 157 -164q43 -76 43 -147 q0 -61 -23.5 -104.5t-64.5 -65.5q-158 -80 -334 -80q-111 0 -208 32.5t-179 94.5q-156 139 -155 323zM225 446q0 -143 113 -235q109 -82 280 -82q63 0 129 17.5t127 48.5q27 14 27 41q0 35 -41 81q-16 21 -82 76q-10 10 -51 30.5t-63.5 24t-73.5 20.5t-72 17h-74 q-70 0 -98.5 -5t-85.5 -25z" />
<glyph unicode="&#x1099;" horiz-adv-x="1099" d="M76 446q23 61 71 111q20 12 51 27.5t74 33.5q-57 37 -67 95q-6 70 22.5 139.5t89.5 114.5q117 78 256 77q55 0 115 -12t115 -33q82 -37 135 -92q35 -31 50.5 -67.5t15.5 -71.5q0 -61 -48 -119q-10 -8 -41 -41q-49 -51 -75 -51q102 -76 157 -164q43 -76 43 -147 q0 -61 -23.5 -104.5t-64.5 -65.5q-158 -80 -334 -80q-29 55 -28 100q-1 33 28 33q63 0 129 17.5t127 48.5q27 14 27 41q0 35 -41 81q-16 20 -82 76q-10 10 -51 30.5t-63.5 24t-73.5 20.5t-72 17h-74q-70 0 -98.5 -5t-85.5 -25l-35 -9q0 -143 113 -235q25 -23 47 -47 q20 -10 -23 -96q-8 -12 -24 -41q-25 10 -58.5 48t-48.5 48q-156 139 -155 323zM352 733q16 -20 33 -41q25 -20 38 -38.5t52 -35.5q16 -14 49 -19t69 -12t46 -7q20 0 42 9t77 29q31 10 48 27t34 47q6 4 13 19.5t13 36.5q-10 57 -26 67q-27 25 -52.5 43.5t-54.5 26.5 q-33 16 -65.5 19t-94.5 3q-82 0 -163 -51q-35 -23 -51.5 -62.5t-6.5 -60.5z" />
<glyph unicode="&#x109a;" horiz-adv-x="1748" d="M6 508q0 23 16 36t39 13t40.5 -13.5t17.5 -35.5q0 -23 -17.5 -41t-40.5 -18t-39 17t-16 42zM43 315q0 27 16.5 42.5t36.5 15.5q27 0 44.5 -15.5t17.5 -42.5q0 -20 -17.5 -39.5t-44.5 -19.5q-18 0 -37 18q-16 23 -16 41zM43 686q0 20 17.5 39.5t35.5 19.5q27 0 44.5 -18 t17.5 -41t-17.5 -40t-44.5 -17q-20 0 -36.5 17.5t-16.5 39.5zM150 176q0 55 51 55q23 0 40 -16t17 -39q0 -20 -16.5 -36.5t-40.5 -16.5q-23 0 -37 16.5t-14 36.5zM150 827q0 20 14 37t37 17t40 -15.5t17 -38.5q0 -27 -17 -42t-40 -15q-51 0 -51 57zM289 84q0 27 15.5 42 t35.5 15q27 0 43 -15t16 -42q0 -23 -16 -40t-43 -17q-20 0 -35.5 17t-15.5 40zM289 918q0 20 14 38.5t37 18.5q27 0 43 -18.5t16 -38.5q0 -27 -16 -41.5t-43 -14.5q-20 0 -35.5 16.5t-15.5 39.5zM467 53q0 23 16 37t39 14t38 -14t15 -37q0 -25 -17 -39t-36 -14 q-23 0 -39 14.5t-16 38.5zM467 944q0 29 16 44.5t39 15.5t38 -15.5t15 -44.5q0 -20 -17 -33.5t-36 -13.5q-23 0 -39 13.5t-16 33.5zM625 84q0 57 59 57q20 0 36.5 -15t16.5 -42q0 -23 -15 -40t-38 -17q-29 0 -44 17t-15 40zM625 918q0 20 17 38.5t42 18.5q20 0 36.5 -18.5 t16.5 -38.5q0 -27 -16.5 -41.5t-36.5 -14.5q-29 0 -44 16.5t-15 39.5zM768 176q0 29 15 42t38 13q25 0 40.5 -16t15.5 -39q0 -20 -14.5 -36.5t-41.5 -16.5q-23 0 -38 16.5t-15 36.5zM768 827q0 20 15.5 37t37.5 17q25 0 40.5 -15.5t15.5 -38.5q0 -27 -15.5 -42t-40.5 -15 q-23 0 -38 15.5t-15 41.5zM870 315q1 58 58 58q20 0 36.5 -15.5t16.5 -42.5q0 -18 -16 -41q-18 -18 -37 -18q-29 0 -43.5 18.5t-14.5 40.5zM870 686q0 20 17.5 39.5t40.5 19.5q18 0 37 -20q16 -20 16 -39q0 -23 -16.5 -40t-36.5 -17q-29 0 -43.5 17.5t-14.5 39.5zM909 508 q0 23 15.5 36t38.5 13t39 -13.5t16 -35.5q0 -23 -16.5 -41t-38.5 -18q-23 0 -38.5 17t-15.5 42zM1165 784q-2 82 58 138q59 59 137 55q82 -2 136 -54.5t54 -138.5q0 -84 -54 -138t-136 -54t-137.5 54t-57.5 138zM1286 784q0 -29 22.5 -48t51.5 -19t52.5 19.5t23.5 47.5 q0 35 -22.5 55.5t-53.5 20.5q-29 0 -51.5 -20.5t-22.5 -55.5z" />
<glyph unicode="&#x109b;" horiz-adv-x="1728" d="M23 518q0 23 16 37t39 14t40 -13t17 -38q0 -23 -16.5 -40t-40.5 -17q-23 0 -39 16.5t-16 40.5zM59 326q0 27 17 42t37 15q27 0 43 -15.5t16 -41.5q0 -20 -16.5 -40t-42.5 -20q-23 0 -37 21q-16 20 -17 39zM59 696q0 23 16.5 41.5t37.5 18.5q27 0 43 -18.5t16 -41.5 t-16 -39t-43 -16q-20 0 -37 16.5t-17 38.5zM166 188q0 54 51 54q23 0 40 -15.5t17 -38.5q0 -20 -16 -37.5t-41 -17.5q-23 0 -37 16.5t-14 38.5zM166 840q0 20 14.5 36.5t36.5 16.5q23 0 40 -15.5t17 -37.5q0 -27 -17 -42.5t-40 -15.5q-51 0 -51 58zM303 94q0 27 16.5 42.5 t36.5 15.5q27 0 43.5 -15.5t16.5 -42.5q0 -20 -16.5 -38.5t-43.5 -18.5q-20 0 -36.5 17.5t-16.5 39.5zM303 930q0 20 15.5 37.5t37.5 17.5q27 0 43.5 -17.5t16.5 -37.5q0 -27 -16.5 -41.5t-43.5 -14.5q-20 0 -36.5 16.5t-16.5 39.5zM483 63q0 23 16.5 38.5t39.5 15.5 t38 -15.5t15 -38.5t-17.5 -41t-35.5 -18q-23 0 -39.5 18.5t-16.5 40.5zM483 956q0 27 16.5 43.5t39.5 16.5t38 -15.5t15 -44.5q0 -20 -17.5 -34.5t-35.5 -14.5q-23 0 -39.5 14.5t-16.5 34.5zM641 94q0 27 16 42.5t43 15.5q20 0 37 -15.5t17 -42.5q0 -20 -15.5 -38.5 t-38.5 -18.5q-27 0 -43 17.5t-16 39.5zM641 930q0 18 17.5 36.5t41.5 18.5q20 0 37 -17.5t17 -37.5q0 -27 -17 -41.5t-37 -14.5q-27 0 -43 16.5t-16 39.5zM784 188q0 27 15.5 40.5t38.5 13.5t39 -15.5t16 -38.5q0 -20 -15.5 -37.5t-39.5 -17.5q-23 0 -38.5 16.5t-15.5 38.5z M784 840q0 20 15.5 36.5t38.5 16.5t39 -15.5t16 -37.5q0 -27 -16 -42.5t-39 -15.5t-38.5 15.5t-15.5 42.5zM887 326q0 57 55 57q23 0 40 -15.5t17 -41.5q0 -20 -18 -39q-18 -20 -39 -21q-27 0 -41 19.5t-14 40.5zM887 696q0 23 16.5 41.5t38.5 18.5q20 0 39 -19 q18 -23 18 -41q0 -23 -17 -39t-40 -16q-27 0 -41 16.5t-14 38.5zM926 518q0 23 15 37t38 14t39 -13t16 -38q0 -23 -16.5 -40t-38.5 -17q-23 0 -38 16.5t-15 40.5zM991 322q100 94 157.5 152t78.5 85q20 29 36.5 58.5t30.5 62.5t24.5 60.5t18.5 56.5q18 53 -8 47 q-25 -6 -43 -6q-72 18 -117 61q-45 45 -45 127q0 80 56 135q57 57 133 58q78 0 133 -56q53 -55 55 -135q2 -88 -27.5 -174t-74.5 -168q-41 -74 -103 -141q-29 -33 -103.5 -88.5t-201.5 -134.5zM1262 1020q2 -61 57 -64q59 0 59 64q0 57 -59 57t-57 -57z" />
<glyph unicode="&#x109c;" horiz-adv-x="2156" d="M20 512q0 23 16.5 36t39.5 13t40 -13t17 -36q0 -25 -16.5 -42t-40.5 -17q-23 0 -39.5 16t-16.5 43zM57 317q0 27 17 43.5t37 16.5q29 0 45 -16.5t16 -43.5q0 -20 -16.5 -38.5t-44.5 -18.5q-20 0 -35 19q-18 20 -19 38zM57 690q0 20 17.5 39t36.5 19q29 0 45 -17.5 t16 -40.5q0 -25 -16 -41t-45 -16q-20 0 -37 17.5t-17 39.5zM166 180q0 56 49 56q23 0 40 -16.5t17 -39.5q0 -20 -16 -36.5t-41 -16.5q-23 0 -36 16.5t-13 36.5zM166 831q0 20 13.5 37t35.5 17q23 0 40 -15.5t17 -38.5q0 -27 -17 -42t-40 -15q-49 0 -49 57zM301 86 q0 29 16.5 44t36.5 15q27 0 43.5 -15t16.5 -44q0 -20 -16.5 -38.5t-43.5 -18.5q-20 0 -36.5 17t-16.5 40zM301 922q0 18 15.5 37.5t37.5 19.5q27 0 43.5 -18.5t16.5 -38.5q0 -27 -16.5 -41.5t-43.5 -14.5q-20 0 -36.5 16.5t-16.5 39.5zM481 55q0 23 16.5 38.5t39.5 15.5 t38 -15.5t15 -38.5t-17.5 -39t-35.5 -16q-23 0 -39.5 16.5t-16.5 38.5zM481 948q0 27 16.5 43.5t39.5 16.5t38 -15.5t15 -44.5q0 -20 -17.5 -34.5t-35.5 -14.5q-23 0 -39.5 14.5t-16.5 34.5zM639 86q0 29 16 44t43 15q20 0 37 -15t17 -44q0 -20 -15.5 -38.5t-38.5 -18.5 q-27 0 -43 17t-16 40zM639 922q0 18 17.5 37.5t41.5 19.5q20 0 37 -18.5t17 -38.5q0 -27 -17 -41.5t-37 -14.5q-27 0 -43 16.5t-16 39.5zM782 180q0 27 15.5 41.5t38.5 14.5t40 -16.5t17 -39.5q0 -20 -16.5 -36.5t-40.5 -16.5q-23 0 -38.5 16.5t-15.5 36.5zM782 831 q0 20 15.5 37t38.5 17t40 -15.5t17 -38.5q0 -27 -17 -42t-40 -15t-38.5 15.5t-15.5 41.5zM885 317q0 27 14 43.5t41 16.5q23 0 40 -16.5t17 -43.5q0 -18 -18 -38q-16 -18 -39 -19q-27 0 -41 18.5t-14 38.5zM885 690q0 20 16.5 39t38.5 19q20 0 39 -19q18 -18 18 -39 q0 -25 -17 -41t-40 -16q-27 0 -41 17.5t-14 39.5zM924 512q0 23 15 36t38 13q25 0 40 -13t15 -36q0 -25 -15.5 -42t-39.5 -17q-23 0 -38 16t-15 43zM1112 209q0 78 53 131q27 27 59.5 41t75.5 14q88 4 175.5 -24.5t164.5 -75.5q41 -23 76 -49.5t70 -55.5q33 -29 89 -100.5 t134 -187.5q-94 96 -152.5 147t-87.5 72q-55 39 -118 69q-59 27 -115 43q-55 16 -47 -10q4 -12 4 -22.5v-18.5q-18 -72 -61 -116q-43 -45 -129 -46q-82 0 -136 54q-55 55 -55 135zM1112 795q0 82 53 131q53 51 135 53q88 2 175.5 -26.5t164.5 -73.5q80 -45 146 -105 q33 -29 88 -101.5t135 -199.5q-184 197 -240 234q-70 45 -118 67q-31 16 -59.5 25.5t-55.5 19.5q-55 16 -47 -8q4 -12 4 -23.5v-21.5q-18 -72 -61 -119q-23 -23 -54.5 -34t-74.5 -11q-80 0 -136 55q-55 55 -55 138zM1253 213q0 -31 13.5 -43t42.5 -12q61 2 61 55 q0 61 -61 61q-56 0 -56 -61zM1253 799q0 -59 56 -60q61 2 61 60q0 63 -61 63q-56 0 -56 -63z" />
<glyph unicode="&#x109d;" horiz-adv-x="1226" d="M16 526q0 23 16.5 36t39.5 13t40 -13t17 -36q0 -25 -16.5 -42t-40.5 -17q-23 0 -39.5 16.5t-16.5 42.5zM53 332q0 27 16.5 42t36.5 15q27 0 44.5 -15.5t17.5 -41.5q0 -20 -17.5 -39t-44.5 -19q-18 0 -36 19q-16 20 -17 39zM53 705q0 18 17.5 37.5t35.5 19.5 q27 0 44.5 -18.5t17.5 -38.5q0 -25 -17.5 -42.5t-44.5 -17.5q-20 0 -36.5 18.5t-16.5 41.5zM160 195q0 53 53 53q20 0 37.5 -15.5t17.5 -37.5q0 -20 -16 -38t-39 -18q-25 0 -39 17.5t-14 38.5zM160 846q0 20 14 36.5t39 16.5q20 0 37.5 -15.5t17.5 -37.5q0 -27 -17.5 -42.5 t-37.5 -15.5q-53 0 -53 58zM299 100q0 27 15.5 42.5t35.5 15.5q27 0 43.5 -15.5t16.5 -42.5q0 -18 -16.5 -37.5t-43.5 -19.5q-20 0 -35.5 17.5t-15.5 39.5zM299 936q0 20 14.5 38.5t36.5 18.5q27 0 43.5 -19.5t16.5 -37.5q0 -29 -16.5 -42t-43.5 -13q-20 0 -35.5 16 t-15.5 39zM412 1614q4 70 24.5 114t55.5 78q35 35 80.5 53.5t99.5 18.5q53 0 100 -20.5t82 -55.5t55.5 -82t20.5 -100v-596h-156l4 586q-6 45 -35.5 72.5t-68.5 27.5q-35 0 -62 -20.5t-37 -71.5zM477 70q0 23 16 38t39 15t38.5 -15.5t15.5 -37.5q0 -23 -17.5 -40.5 t-36.5 -17.5q-23 0 -39 17.5t-16 40.5zM477 963q0 27 16 43t39 16t38.5 -15.5t15.5 -43.5q0 -20 -17.5 -35t-36.5 -15q-23 0 -39 14.5t-16 35.5zM635 100q0 27 16 42.5t43 15.5q20 0 37 -15.5t17 -42.5q0 -20 -15.5 -38.5t-38.5 -18.5q-27 0 -43 17.5t-16 39.5zM635 936 q0 18 17.5 37.5t41.5 19.5q20 0 37 -18.5t17 -38.5q0 -29 -17 -42t-37 -13q-27 0 -43 16t-16 39zM778 195q0 27 15 40t38 13t39.5 -15.5t16.5 -37.5q0 -20 -15.5 -38t-40.5 -18q-23 0 -38 17.5t-15 38.5zM778 846q0 20 15.5 36.5t37.5 16.5q23 0 39.5 -15.5t16.5 -37.5 q0 -27 -16.5 -42.5t-39.5 -15.5t-38 15.5t-15 42.5zM881 332q0 57 57 57q20 0 37.5 -15.5t17.5 -41.5q0 -20 -18 -39q-18 -18 -37 -19q-29 0 -43 17.5t-14 40.5zM881 705q0 20 16 38.5t41 18.5q18 0 37 -19q18 -23 18 -38q0 -25 -17.5 -42.5t-37.5 -17.5q-29 0 -43 18.5 t-14 41.5zM920 526q0 23 15 36t38 13t39 -13t16 -36q0 -25 -16.5 -42t-38.5 -17q-23 0 -38 16.5t-15 42.5z" />
<glyph unicode="&#x109e;" horiz-adv-x="972" d="M8 1155q326 -31 309 -137q-25 -139 -26 -182q-4 -139 0 -525l4 -639q4 -475 418 -475q98 0 192 74t94 168v57q-8 4 -24 21q-45 37 -45 73q0 98 94 99q12 -4 49 -17q111 -40 111 -233q0 -176 -145.5 -301t-325.5 -125q-283 0 -447 192q-156 180 -155 467q2 1202 26 1299 q-227 23 -129 184zM10 1548q0 45 17.5 85t47 70t69.5 46t85 16q43 0 83 -17t69 -46t46 -69t17 -85t-17 -84t-46 -68.5t-69 -46t-83 -16.5q-45 0 -85 16.5t-69.5 46t-47 68.5t-17.5 84zM150 1548q0 -33 23.5 -55.5t55.5 -22.5q33 0 58.5 23t25.5 55q0 37 -25.5 59.5 t-58.5 22.5t-56 -21.5t-23 -60.5z" />
<glyph unicode="&#x109f;" horiz-adv-x="1392" d="M-41 463q0 238 127 397q139 176 369 176q49 0 90 -4q-201 156 -201 422q0 213 147.5 348t360.5 135q307 0 541 -114q201 -98 438 -336q33 -33 33 -82q0 -98 -66 -98q-20 0 -41 16q-225 217 -409 319q-238 131 -496 132q-131 0 -237.5 -94.5t-106.5 -225.5 q0 -287 397 -377q238 4 312 -192q37 -98 53 -418q4 -78 4 -1303q12 -20 8 -49q0 -25 -8 -49v-49q-8 -8 -47 -78q-360 -203 -387 266v127q-4 29 -9 303q-4 242 0 295q29 381 29 611q0 164 -127 254q-106 78 -278 77q-250 0 -316 -262q184 -16 324 -123q156 -119 155 -294 q0 -229 -233 -230q-131 0 -180 45q-111 53 -178.5 188.5t-67.5 266.5zM123 446q4 -8 4 -20q16 -49 25 -94q45 -119 98 -160q29 0 49 -20h4q8 -4 33 -25h49q70 0 70 66q0 111 -115 184q-94 61 -217 69zM877 893q147 -131 147 -352q0 -106 -12 -303q-16 -209 -17 -308l-4 -508 q8 -20 8 -40v-177q0 -164 111 -98v1352q16 139 -29 323q-16 70 -65 90q-74 4 -139 21z" />
</font>
</defs>
</svg>
