<?xml version="1.0" standalone="no"?>
<!DOCTYPE svg PUBLIC "-//W3C//DTD SVG 1.1//EN" "http://www.w3.org/Graphics/SVG/1.1/DTD/svg11.dtd" >
<svg xmlns="http://www.w3.org/2000/svg" xmlns:xlink="http://www.w3.org/1999/xlink" version="1.1">
<metadata></metadata>
<defs>
<font id="shan_wanhairegular" horiz-adv-x="0" >
<font-face units-per-em="2048" ascent="1638" descent="-410" />
<missing-glyph horiz-adv-x="515" />
<glyph unicode="&#xd;" horiz-adv-x="515" />
<glyph unicode=" "  horiz-adv-x="515" />
<glyph unicode="&#x09;" horiz-adv-x="515" />
<glyph unicode="&#xa0;" horiz-adv-x="515" />
<glyph unicode="!" horiz-adv-x="455" d="M101 100q0 53 37 89.5t90 36.5t89.5 -36.5t36.5 -89.5q0 -52 -36.5 -88.5t-89.5 -36.5t-90 37t-37 88zM136 1316h184l-25 -927h-140z" />
<glyph unicode="&#x22;" horiz-adv-x="797" d="M138 1456h180l-35 -523h-110zM477 1456h180l-32 -523h-114z" />
<glyph unicode="#" horiz-adv-x="1277" d="M93 397v132h191l36 267h-191v133h206l52 384h143l-46 -384h372l47 384h148l-47 -384h177v-133h-198l-33 -267h190v-132h-201l-54 -397h-148l57 397h-379l-48 -397h-148l48 397h-174zM433 529h372l35 267h-374z" />
<glyph unicode="$" horiz-adv-x="1011" d="M122 151l68 119q117 -93 291 -94q115 0 185 54t70 142q0 137 -232 235q-351 149 -351 348q0 117 77.5 201.5t221.5 113.5v205h146v-203q138 -17 265 -88l-74 -121q-90 77 -259 77q-94 0 -159 -46t-65 -126q0 -112 253 -223q182 -80 256 -162t74 -205q0 -115 -82 -208 t-229 -123v-201h-148v196q-191 17 -308 109z" />
<glyph unicode="%" horiz-adv-x="1912" d="M111 938q0 403 321 402q325 1 325 -402q0 -400 -325 -401q-321 0 -321 401zM261 938q0 -266 171 -266q177 0 177 266q0 272 -177 272q-171 0 -171 -272zM445 -25l843 1341h151l-844 -1341h-150zM1150 381q0 399 323 400q328 -1 328 -400q0 -404 -328 -403 q-323 0 -323 403zM1300 381q0 -269 173 -268q178 -1 178 268q0 272 -178 272q-173 0 -173 -272z" />
<glyph unicode="&#x26;" horiz-adv-x="1338" d="M98 366q0 245 271 392q-108 141 -108 264q0 142 100 240.5t255 98.5q135 0 221 -80.5t86 -205.5q0 -215 -326 -366q134 -149 370 -377q145 189 164 396h131q-38 -291 -189 -489q138 -125 232 -207l-135 -70l-192 175q-224 -162 -448 -162q-187 0 -309.5 115t-122.5 276z M259 378q0 -119 84 -194t210 -75q187 0 322 116q0 8 -414 429q-203 -115 -202 -276zM416 1033q0 -84 109 -218q252 126 252 252q0 168 -169 168q-87 0 -139.5 -59t-52.5 -143z" />
<glyph unicode="'" horiz-adv-x="458" d="M138 1456h180l-35 -523h-110z" />
<glyph unicode="(" horiz-adv-x="655" d="M125 650q0 436 318 817h184q-345 -377 -345 -817q0 -418 343 -804h-175q-325 337 -325 804z" />
<glyph unicode=")" horiz-adv-x="659" d="M31 1467h172q328 -351 328 -809q0 -456 -325 -812h-172q341 406 341 812q0 410 -344 809z" />
<glyph unicode="*" horiz-adv-x="944" d="M111 966v128l287 -23l-179 224l125 74l127 -248l127 248l126 -74l-180 -224l288 23v-125l-288 24l180 -223l-126 -74l-127 247l-127 -247l-125 74l179 223z" />
<glyph unicode="+" horiz-adv-x="1151" d="M82 440v136h415v424h159v-424h415v-136h-415v-440h-159v440h-415z" />
<glyph unicode="," horiz-adv-x="464" d="M71 -229q144 86 168 206q-136 9 -136 132q0 55 38 93t91 38q55 0 93 -41t38 -105q0 -271 -243 -392z" />
<glyph unicode="-" horiz-adv-x="616" d="M36 440v134h543v-134h-543z" />
<glyph unicode="." horiz-adv-x="467" d="M107 100q0 53 36.5 89.5t89.5 36.5t90 -36.5t37 -89.5q0 -52 -37 -88.5t-90 -36.5t-89.5 37t-36.5 88z" />
<glyph unicode="/" horiz-adv-x="743" d="M-85 -78l738 1439h161l-740 -1439h-159z" />
<glyph unicode="0" horiz-adv-x="1044" d="M79 650q0 280 116 477t321 197q214 0 329.5 -197t115.5 -477q0 -281 -115.5 -478t-329.5 -197q-205 0 -321 197t-116 478zM241 650q0 -237 69 -387t209 -150q142 0 211 150t69 387q0 236 -69 386.5t-208 150.5q-143 0 -212 -150.5t-69 -386.5z" />
<glyph unicode="1" horiz-adv-x="1041" d="M198 1029l345 292q91 0 92 -126v-1069h205v-126h-574v126h206v956l-183 -155z" />
<glyph unicode="2" horiz-adv-x="1041" d="M68 0q20 114 46 190q71 87 443 434q232 218 232 359q0 193 -227 193q-222 0 -264 -247l-150 37q18 168 136 265q111 90 281 90q167 0 276.5 -98.5t109.5 -248.5q0 -134 -144 -305q-89 -103 -299 -287q-188 -166 -239 -242h719l-30 -140h-890z" />
<glyph unicode="3" horiz-adv-x="1041" d="M73 89l70 129q120 -86 277 -86q149 0 258 94.5t109 220.5q0 93 -60 157.5t-150 64.5q-107 0 -197 -77l-66 108q131 75 238 173q129 120 128 197q0 118 -162 117q-103 0 -191 -66t-121 -147l-112 57q50 131 167 210.5t265 79.5q131 0 218 -67.5t87 -181.5 q0 -109 -183 -268q146 -27 222 -120t76 -231q0 -214 -152.5 -344.5t-402.5 -130.5q-187 0 -318 111z" />
<glyph unicode="4" horiz-adv-x="1041" d="M79 297q0 339 219.5 684.5t505.5 369.5v-920h178l-17 -134h-161v-297h-162v297h-563zM237 431h405v708q-149 -96 -257.5 -294t-147.5 -414z" />
<glyph unicode="5" horiz-adv-x="1041" d="M73 91l67 116q151 -94 286 -94q148 0 254.5 98t106.5 248q0 125 -81 192.5t-216 67.5q-137 0 -177 -91l-96 -7l46 695h647l-27 -135h-465l-22 -346q62 26 130 27q181 0 302 -113t121 -287q0 -215 -151 -349.5t-392 -134.5q-204 0 -333 113z" />
<glyph unicode="6" horiz-adv-x="1044" d="M101 470q0 318 211 562.5t542 308.5l14 -122q-171 -46 -332 -171.5t-252 -325.5q119 119 267 118q164 0 276 -124t112 -304q0 -185 -111 -309.5t-284 -124.5q-193 0 -318 134t-125 358zM276 412q0 -121 76 -208t186 -87q104 0 180 90t76 205q0 116 -75.5 205t-180.5 89 q-111 0 -186.5 -85.5t-75.5 -208.5z" />
<glyph unicode="7" horiz-adv-x="1038" d="M79 1181l38 135h853l-23 -140q-214 -268 -307 -515q-108 -284 -108 -661h-164q21 770 406 1181h-695z" />
<glyph unicode="8" horiz-adv-x="1044" d="M88 366q0 111 61.5 203.5t172.5 144.5q-193 103 -192 263q0 150 110.5 248.5t281.5 98.5q170 0 280.5 -98.5t110.5 -248.5q0 -160 -192 -263q112 -52 173.5 -144.5t61.5 -203.5q0 -180 -118 -284t-319 -104q-198 0 -314.5 104t-116.5 284zM241 359q0 -114 78.5 -180 t202.5 -66q123 0 201 66t78 180q0 106 -72 192.5t-207 95.5q-137 -9 -209 -95.5t-72 -192.5zM281 985q0 -144 238 -209q243 65 243 209q0 87 -66.5 146t-173.5 59t-174 -58.5t-67 -146.5z" />
<glyph unicode="9" horiz-adv-x="1044" d="M101 887q0 185 111 309.5t285 124.5q193 0 317.5 -135t124.5 -358q0 -319 -211 -563t-540 -309l-15 124q165 44 335.5 179t265.5 331q-119 -131 -283 -131t-277 123.5t-113 304.5zM247 887q0 -115 75 -204.5t180 -89.5q111 0 187 85t76 209q0 121 -76.5 207.5 t-186.5 86.5q-104 0 -179.5 -89t-75.5 -205z" />
<glyph unicode=":" horiz-adv-x="467" d="M107 100q0 53 36.5 89.5t89.5 36.5t90 -36.5t37 -89.5q0 -52 -37 -88.5t-90 -36.5t-89.5 37t-36.5 88zM107 790q0 52 36.5 89t89.5 37t90 -37t37 -89q0 -53 -37 -90t-90 -37t-89.5 37t-36.5 90z" />
<glyph unicode=";" horiz-adv-x="464" d="M71 -229q144 86 168 206q-136 9 -136 132q0 55 38 93t91 38q55 0 93 -41t38 -105q0 -271 -243 -392zM103 790q0 52 36.5 89t89.5 37t90 -37t37 -89q0 -53 -37 -90t-90 -37t-89.5 37t-36.5 90z" />
<glyph unicode="&#x3c;" horiz-adv-x="1151" d="M101 472v105l949 493v-158l-751 -388l751 -389v-157z" />
<glyph unicode="=" horiz-adv-x="1151" d="M131 272v132h893v-132h-893zM131 625v128h893v-128h-893z" />
<glyph unicode="&#x3e;" horiz-adv-x="1151" d="M101 -22v157l756 392l-756 385v158l949 -493v-105z" />
<glyph unicode="?" horiz-adv-x="788" d="M68 1237q156 98 311 98q156 0 250 -82.5t94 -222.5q0 -148 -183 -332q-128 -128 -130 -261q0 -44 17 -110h-143q-25 77 -25 118q0 134 152.5 310.5t152.5 269.5q0 168 -204 168q-124 0 -230 -78zM241 100q0 53 37 89.5t89 36.5q54 0 90.5 -36.5t36.5 -89.5 q0 -52 -36.5 -88.5t-90.5 -36.5q-52 0 -89 37t-37 88z" />
<glyph unicode="@" horiz-adv-x="1586" d="M85 363q0 313 218.5 520.5t548.5 207.5q282 0 463 -169t181 -434q0 -221 -159 -353q-142 -116 -327 -116l-17 110q-141 -126 -306 -126q-118 0 -200 66t-82 166q0 296 556 311q0 229 -210 230q-112 0 -198 -56l-40 83q126 73 284 73q144 0 221 -95.5t77 -259.5v-292 q0 -65 4 -97h43q102 28 171 130t69 220q0 219 -148 365.5t-396 146.5q-279 0 -453 -177.5t-174 -444.5q0 -233 155 -386.5t382 -153.5q173 0 339 86l45 -95q-187 -88 -392 -89q-272 0 -459 177q-196 180 -196 452zM527 249q0 -140 162 -140q106 0 187 46q93 53 93 136v165 q-442 -17 -442 -207z" />
<glyph unicode="A" horiz-adv-x="1237" d="M-3 0l553 1335h139l550 -1335h-173l-178 446h-546l-174 -446h-171zM400 579h427l-208 588z" />
<glyph unicode="B" horiz-adv-x="1090" d="M141 18v1275q162 40 303 40h7q505 0 505 -345q0 -173 -177 -283q230 -109 230 -327q0 -394 -585 -394q-125 0 -283 34zM301 128q55 -11 147 -11q186 0 295.5 66.5t109.5 191.5q0 139 -135 207q-99 49 -247 49h-170v-503zM301 761h207q126 0 207.5 60t81.5 164 q0 210 -346 210q-59 0 -150 -9v-425z" />
<glyph unicode="C" horiz-adv-x="1191" d="M73 655q0 299 154 482q170 198 476 198h3q236 0 422 -78l-49 -124q-161 68 -367 68q-264 0 -387 -194q-90 -142 -90 -357q0 -200 100 -347q125 -188 351 -188h2q235 0 399 81l42 -130q-197 -85 -476 -85q-263 0 -421.5 186t-158.5 488z" />
<glyph unicode="D" horiz-adv-x="1270" d="M141 15v1280q311 35 423 35q338 0 501 -202q131 -163 131 -442q0 -300 -144 -479q-176 -218 -544 -218q-115 0 -367 26zM301 133q100 -10 240 -10q277 0 403 197q90 145 90 366q0 509 -479 509q-78 0 -254 -17v-1045z" />
<glyph unicode="E" horiz-adv-x="986" d="M141 0v1316h776v-135h-616v-420h548v-133h-548v-493h616v-135h-776z" />
<glyph unicode="F" horiz-adv-x="986" d="M141 0v1316h804v-135h-644v-437h603v-132h-603v-612h-160z" />
<glyph unicode="G" horiz-adv-x="1256" d="M73 655q0 299 154 482q170 198 476 198h3q236 0 422 -78l-49 -124q-161 68 -367 68q-264 0 -387 -194q-90 -142 -90 -357q0 -200 100 -347q125 -188 351 -188h2q167 0 295 47v392h-336v131h496v-653l-83 22q-163 -73 -407 -73q-263 0 -421.5 186t-158.5 488z" />
<glyph unicode="H" horiz-adv-x="1306" d="M141 0v1316h160v-550h706v550h159v-1316h-159v634h-706v-634h-160z" />
<glyph unicode="I" horiz-adv-x="441" d="M141 0v1316h160v-1316h-160z" />
<glyph unicode="J" horiz-adv-x="772" d="M-17 24l41 129q74 -44 186 -44q136 0 198 81.5t62 276.5v849h160v-876q0 -465 -420 -465q-107 0 -227 49z" />
<glyph unicode="K" horiz-adv-x="1128" d="M141 0v1316h160v-599l646 620l151 -39l-571 -547l622 -713l-151 -56l-579 663l-118 -116v-529h-160z" />
<glyph unicode="L" horiz-adv-x="989" d="M141 0v1316h160v-1181h652v-135h-812z" />
<glyph unicode="M" horiz-adv-x="1588" d="M82 0l94 1316h171l449 -1123l447 1123h171l94 -1316h-153l-76 1062l-431 -1062h-106l-432 1062l-74 -1062h-154z" />
<glyph unicode="N" horiz-adv-x="1306" d="M141 0v1316h163l703 -1074v1074h159v-1316h-155l-710 1101v-1101h-160z" />
<glyph unicode="O" horiz-adv-x="1433" d="M73 655q0 290 179.5 487.5t464.5 197.5t464.5 -197.5t179.5 -487.5q0 -291 -179.5 -487t-464.5 -196t-464.5 196t-179.5 487zM229 658q0 -232 134 -390.5t354 -158.5t353 158.5t133 390.5t-133 390t-353 158t-354 -158t-134 -390z" />
<glyph unicode="P" horiz-adv-x="1074" d="M141 0v1298q194 32 348 32q243 0 380.5 -109t137.5 -280q0 -189 -153 -306t-406 -117q-63 0 -147 10v-528h-160zM301 670q102 -17 167 -17q379 0 379 279q0 263 -358 263h-3q-96 0 -185 -9v-516z" />
<glyph unicode="Q" horiz-adv-x="1430" d="M73 655q0 290 179.5 487.5t464.5 197.5t464.5 -197.5t179.5 -487.5q0 -221 -104 -382.5t-292 -226.5v-25q231 -58 404 -84l-51 -135q-205 55 -525 158q-15 6 -76 12q-285 0 -464.5 196t-179.5 487zM229 658q0 -232 134 -390.5t354 -158.5t353 158.5t133 390.5t-133 390 t-353 158t-354 -158t-134 -390z" />
<glyph unicode="R" horiz-adv-x="1088" d="M141 0v1295q194 35 353 35q235 0 372.5 -99.5t137.5 -267.5q0 -225 -227 -329q114 -77 170 -209.5t100 -424.5h-160q-75 580 -355 580h-231v-580h-160zM301 709h224q325 0 325 243q0 241 -356 241q-113 0 -193 -10v-474z" />
<glyph unicode="S" horiz-adv-x="1004" d="M54 90l68 143q153 -116 341 -116h3q140 0 221.5 62t81.5 168q0 174 -276 263q-388 124 -389 378q0 153 122 252.5t318 99.5t333 -84l-68 -125q-134 67 -268 67q-124 0 -200.5 -56.5t-76.5 -138.5q0 -161 274 -250q217 -69 304.5 -159t87.5 -238q0 -170 -136 -275.5 t-340 -105.5q-218 0 -400 115z" />
<glyph unicode="T" horiz-adv-x="1161" d="M11 1181v135h1140v-135h-488v-1181h-159v1181h-493z" />
<glyph unicode="U" horiz-adv-x="1335" d="M141 560v756h162v-756q0 -450 364 -451q364 0 364 451v756h163v-756q0 -585 -527 -585q-526 0 -526 585z" />
<glyph unicode="V" horiz-adv-x="1156" d="M-3 1316h172l409 -1108l410 1108h172l-507 -1316h-150z" />
<glyph unicode="W" horiz-adv-x="1692" d="M-11 1316h175l266 -1088l337 1088h157l336 -1088l267 1088h175l-364 -1316h-150l-342 1110l-342 -1110h-150z" />
<glyph unicode="X" horiz-adv-x="1159" d="M-3 0l490 675l-471 641h195l374 -527l365 527h198l-470 -641l487 -675h-190l-390 546l-396 -546h-192z" />
<glyph unicode="Y" horiz-adv-x="1074" d="M-17 1316h184l374 -607l371 607h182l-475 -737v-579h-156v576z" />
<glyph unicode="Z" horiz-adv-x="1244" d="M76 0v100l875 1081h-827l27 135h1018v-103l-875 -1078h915l-31 -135h-1102z" />
<glyph unicode="[" horiz-adv-x="638" d="M131 -216v1678h425v-129h-276v-1423h276v-126h-425z" />
<glyph unicode="\" horiz-adv-x="720" d="M-62 1335h163l717 -1410h-161z" />
<glyph unicode="]" horiz-adv-x="638" d="M85 -90h278v1423h-278v129h425v-1678h-425v126z" />
<glyph unicode="^" horiz-adv-x="1145" d="M91 426l428 901h133l426 -901h-163l-331 720l-330 -720h-163z" />
<glyph unicode="_" horiz-adv-x="1035" d="M0 -359h1036v-131h-1036v131z" />
<glyph unicode="`" horiz-adv-x="618" d="M125 1309l170 45l198 -305h-144z" />
<glyph unicode="a" horiz-adv-x="1008" d="M73 252q0 347 637 355q-30 227 -240 227q-153 0 -326 -67l-17 142q182 54 352 54q389 0 389 -400v-317q0 -107 36 -239l-147 -31l-29 129q-151 -130 -325 -130h-3q-141 0 -233 75t-94 202zM235 269q0 -156 174 -156q94 0 188 44q112 56 112 137v176q-473 -8 -474 -201z " />
<glyph unicode="b" horiz-adv-x="1201" d="M141 0q10 129 10 246v1148h159v-567q144 144 350 144q202 0 335 -138t133 -345q0 -224 -138.5 -368.5t-342.5 -144.5t-347 140q0 -91 -7 -115h-152zM310 353q0 -112 90 -176t234 -64q160 0 248.5 100.5t88.5 274.5q0 154 -88.5 254.5t-238.5 100.5q-121 0 -227.5 -81 t-106.5 -191v-218z" />
<glyph unicode="c" horiz-adv-x="953" d="M73 472q0 223 135 361t358 138q188 0 316 -79l-55 -130q-125 78 -267 78q-147 0 -236 -102t-89 -266q0 -165 89.5 -265.5t235.5 -100.5q143 0 267 78l55 -130q-126 -79 -316 -79q-223 0 -358 138.5t-135 358.5z" />
<glyph unicode="d" horiz-adv-x="1201" d="M73 488q0 207 133.5 345t333.5 138q207 0 350 -144v567h159v-1148q0 -117 11 -246h-153q-5 23 -5 115q-144 -140 -348 -140q-203 0 -342 144.5t-139 368.5zM229 488q0 -174 89.5 -274.5t250.5 -100.5q143 0 232 64t89 176v218q0 111 -106.5 191.5t-226.5 80.5 q-149 0 -238.5 -100.5t-89.5 -254.5z" />
<glyph unicode="e" horiz-adv-x="1077" d="M73 453q0 235 143 381q140 137 358 137q423 0 432 -524h-777q11 -163 110.5 -247.5t256.5 -84.5q159 0 351 70l18 -137q-197 -73 -380 -73q-223 0 -367.5 133t-144.5 345zM239 579h611q-15 122 -94 193t-199 71q-115 0 -205.5 -70.5t-112.5 -193.5z" />
<glyph unicode="f" horiz-adv-x="693" d="M49 806v129h162q0 479 362 479h2q115 0 188 -55l-45 -119q-88 39 -145 39h-3q-203 0 -203 -344h272v-129h-272v-806h-159v806h-159z" />
<glyph unicode="g" horiz-adv-x="913" d="M91 612q0 151 101 247t243 96h394v-103h-176q89 -34 119 -105q24 -57 24 -113q0 -163 -89 -257t-256 -94q-60 0 -123 20q-20 -20 -20 -45q0 -49 208 -106q285 -80 285 -287q0 -127 -92.5 -206t-270.5 -79q-149 0 -301 90l56 125q142 -84 255 -84q90 0 150.5 43t60.5 103 q0 90 -162 156q-117 48 -224 105.5t-107 147.5q0 44 27 117q-101 109 -102 229zM239 618q0 -88 62.5 -147t149.5 -59q104 0 158.5 59.5t54.5 146.5q0 88 -62.5 149t-150.5 61q-87 0 -149.5 -60.5t-62.5 -149.5z" />
<glyph unicode="h" horiz-adv-x="1167" d="M141 0v1394h160v-574q140 140 331 140q187 0 292 -116t105 -315v-529h-160v526q0 129 -71 214t-192 85q-122 0 -213.5 -85.5t-91.5 -189.5v-550h-160z" />
<glyph unicode="i" horiz-adv-x="441" d="M91 1224q0 53 36.5 89t89.5 36q52 0 89 -36t37 -89t-37 -90t-89 -37q-53 0 -89.5 37t-36.5 90zM141 0v935h160v-935h-160z" />
<glyph unicode="j" horiz-adv-x="461" d="M-135 -269q186 14 240.5 87t54.5 297v820h160v-893q0 -426 -438 -436zM114 1224q0 53 36.5 89t88.5 36t88.5 -36t36.5 -89t-36.5 -90t-88.5 -37q-53 0 -89 37t-36 90z" />
<glyph unicode="k" horiz-adv-x="927" d="M141 0v1394h160v-813l436 373l171 -30l-420 -372l491 -539l-163 -40l-439 489l-76 -64v-398h-160z" />
<glyph unicode="l" horiz-adv-x="579" d="M141 482v912h160v-873q0 -219 68 -310q61 -79 191 -90l-18 -143q-401 22 -401 504z" />
<glyph unicode="m" horiz-adv-x="1762" d="M119 938h149q16 -41 16 -128q54 76 141.5 114.5t172.5 38.5q180 0 296 -162q153 162 360 162q160 0 264.5 -122t104.5 -320v-521h-159v518q0 132 -61 218q-70 95 -183 95q-95 0 -178 -75t-83 -163v-593h-159v566q0 265 -222 265h-2q-98 0 -187.5 -88t-89.5 -183v-560 h-160v691q0 174 -20 247z" />
<glyph unicode="n" horiz-adv-x="1164" d="M119 938h149q16 -41 16 -128q147 153 333 153q187 0 298.5 -115t111.5 -317v-531h-160v531q0 300 -274 300q-102 0 -198 -90t-96 -181v-560h-160v691q0 174 -20 247z" />
<glyph unicode="o" horiz-adv-x="1136" d="M73 472q0 210 140.5 354.5t355.5 144.5q214 0 354.5 -144.5t140.5 -354.5q0 -209 -140.5 -351.5t-354.5 -142.5q-215 0 -355.5 143t-140.5 351zM229 472q0 -153 95 -258t245 -105q148 0 242.5 105t94.5 258q0 155 -94.5 260t-242.5 105q-150 0 -245 -104.5t-95 -260.5z " />
<glyph unicode="p" horiz-adv-x="1191" d="M131 952h157l20 -112q158 131 343 131q203 0 335 -137.5t132 -340.5q0 -229 -140.5 -373.5t-348.5 -144.5q-194 0 -328 125v-500h-160v1035q0 233 -10 317zM301 389q0 -113 93.5 -194.5t228.5 -81.5q160 0 250.5 102t90.5 275q0 149 -93 251t-236 102q-117 0 -225.5 -92 t-108.5 -205v-157z" />
<glyph unicode="q" horiz-adv-x="1191" d="M73 493q0 203 132 340.5t335 137.5q185 0 342 -131l21 112h156q-10 -84 -10 -317v-1035h-159v500q-134 -125 -324 -125h-3q-209 0 -349.5 144.5t-140.5 373.5zM226 490q0 -173 91 -275t252 -102q134 0 227.5 81.5t93.5 194.5v157q0 113 -109 205t-224 92 q-143 0 -237 -102t-94 -251z" />
<glyph unicode="r" horiz-adv-x="670" d="M107 949h141q27 -45 28 -164q40 85 117 131.5t154 46.5q55 0 82 -7v-134q-14 3 -57 3q-274 0 -274 -327v-498h-160v621q0 225 -31 328z" />
<glyph unicode="s" horiz-adv-x="809" d="M73 62l62 125q108 -74 243 -74q204 0 204 141q0 109 -197 172q-272 84 -272 256q0 117 90.5 197.5t246.5 80.5q160 0 265 -76l-58 -112q-90 68 -213 68h-4q-77 0 -128.5 -40.5t-51.5 -102.5q0 -78 210 -151q268 -92 268 -283q0 -128 -99 -208t-270 -80q-140 0 -296 87z " />
<glyph unicode="t" horiz-adv-x="706" d="M25 806v129h191v263l159 68v-331h305v-129h-305v-512q0 -179 118 -179q72 0 150 27l17 -132q-85 -35 -175 -35q-125 0 -197 84t-72 232v515h-191z" />
<glyph unicode="u" horiz-adv-x="1151" d="M141 423v512h160v-495q0 -325 250 -325q103 0 203.5 79t100.5 187v554h159v-689q0 -96 57 -237l-154 -30q-25 60 -52 169q-175 -173 -338 -173q-386 0 -386 448z" />
<glyph unicode="v" horiz-adv-x="975" d="M-11 935h165l334 -745l332 745h166l-434 -935h-129z" />
<glyph unicode="w" horiz-adv-x="1320" d="M-11 935h164l147 -740l293 740h135l294 -740l147 740h164l-234 -935h-136l-303 779l-302 -779h-136z" />
<glyph unicode="x" horiz-adv-x="938" d="M-31 0l406 479l-382 456h191l285 -341l285 341h191l-382 -456l406 -479h-192l-310 371l-306 -371h-192z" />
<glyph unicode="y" horiz-adv-x="984" d="M-11 935h173l337 -717l319 717h174l-431 -921q-176 -368 -480 -436l-39 130q244 55 365 354z" />
<glyph unicode="z" horiz-adv-x="984" d="M57 0v94l644 709h-614l30 132h796v-103l-640 -700h659l-23 -132h-852z" />
<glyph unicode="{" horiz-adv-x="698" d="M85 501v130q173 5 174 110q0 60 -20 184.5t-20 174.5q0 278 328 278h56v-129h-65q-162 0 -171 -155q40 -237 40 -344q0 -59 -33 -111t-102 -72q135 -55 135 -189q0 -103 -40 -342q6 -157 171 -157h65v-125h-56q-328 0 -328 277q0 55 20 180t20 175q0 108 -174 115z" />
<glyph unicode="|" horiz-adv-x="483" d="M170 -465v1921h142v-1921h-142z" />
<glyph unicode="}" horiz-adv-x="698" d="M104 -121h65q170 0 171 146q0 65 -19.5 181t-19.5 172q0 134 134 189q-68 20 -101 72t-33 111q0 61 19.5 178.5t19.5 177.5q0 143 -171 143h-65v129h56q328 0 329 -278q0 -50 -20.5 -174.5t-20.5 -184.5q0 -105 175 -110v-130q-174 -6 -175 -115q0 -51 20.5 -175.5 t20.5 -179.5q0 -278 -329 -277h-56v125z" />
<glyph unicode="~" horiz-adv-x="1164" d="M62 404v43q0 121 71.5 191.5t176.5 70.5q74 0 298 -83t279 -83q95 0 104 166h134v-37q0 -126 -67.5 -197t-175.5 -71q-66 0 -294 86.5t-278 86.5q-105 0 -111 -173h-137z" />
<glyph unicode="&#xa1;" horiz-adv-x="659" d="M204 939q0 38 9.5 63.5t27 41t39.5 22.5t48 7t49 -7t40 -22.5t26.5 -41t9.5 -63.5t-9.5 -64.5t-26.5 -41.5t-39.5 -22.5t-49.5 -7.5q-26 0 -48 7.5t-39.5 22.5t-27 41.5t-9.5 64.5zM214 -355l69 1016h91l70 -1016h-230z" />
<glyph unicode="&#xa2;" horiz-adv-x="1107" d="M156 715q0 147 31.5 250t87.5 166.5t130.5 96.5t159.5 41v144h98v-144q57 -4 113.5 -18t102 -38.5t74.5 -61.5t29 -81q0 -70 -43.5 -97.5t-132.5 -27.5q0 42 -9 78t-26 65.5t-43.5 49.5t-64.5 28v-879q40 0 81.5 6t79.5 15t70 20t56 22v-109q-51 -27 -125.5 -48 t-161.5 -23v-170h-98v174q-89 9 -165 43t-130 98.5t-84 163.5t-30 236zM348 717q0 -178 52.5 -283.5t164.5 -134.5v867q-48 -10 -87.5 -36.5t-68.5 -80t-45 -134.5t-16 -198z" />
<glyph unicode="&#xa3;" horiz-adv-x="1107" d="M96 667v92h184q-15 30 -28 69t-23.5 79.5t-17.5 83t-7 84.5q0 85 28 151.5t80 113t127 70.5t169 24t161.5 -17t109.5 -47.5t60.5 -70.5t18.5 -87q0 -63 -42.5 -96t-114.5 -33q0 46 -8.5 91.5t-29.5 80t-60.5 57t-102.5 22.5q-115 0 -168.5 -66.5t-53.5 -188.5 q0 -48 8 -91t19 -84.5t25 -78.5t25 -66h337v-92h-308q13 -50 26 -101.5t13 -110.5q0 -85 -48 -150.5t-127 -117.5l5 -10q42 20 76 28.5t68 8.5q40 0 87.5 -11.5t94 -26t90 -26.5t71.5 -12q34 0 64.5 10t57 27.5t48 38t38.5 41.5v-128q-17 -24 -40.5 -50.5t-56 -47.5 t-72.5 -34.5t-89 -13.5q-50 0 -97 13.5t-96 30.5t-98.5 31t-102.5 14q-66 0 -123 -19.5t-120 -48.5l-26 -12v104l35 23q38 21 74 53t65.5 73.5t47 91t17.5 109.5q0 57 -14.5 113t-34.5 110h-221z" />
<glyph unicode="&#xa4;" horiz-adv-x="1107" d="M127 366l128 131q-32 44 -48 98.5t-16 113.5q0 60 16 113t51 99l-131 129l83 85l129 -131q46 31 99 50t114 19q59 0 112 -19t97 -50l134 133l83 -87l-130 -129q33 -46 51 -99t18 -113q0 -59 -18 -114t-51 -98l130 -131l-81 -83l-133 131q-47 -31 -99.5 -49.5 t-112.5 -18.5q-59 0 -113 17t-98 51l-131 -131zM301 709q0 -52 20 -98t54.5 -81t79 -55t97.5 -20q55 0 101 20t79.5 55t53.5 81t20 98q0 53 -20 100t-53.5 81t-80 54t-100.5 20q-53 0 -97.5 -20t-79 -54t-54.5 -81t-20 -100z" />
<glyph unicode="&#xa5;" horiz-adv-x="1107" d="M10 1330v83h481v-83h-13q-60 0 -87 -18.5t-27 -58.5q0 -23 8 -53t24 -63l95 -211q14 -30 27.5 -66.5t25.5 -71t22 -63.5t16 -50q4 10 13 31t20 46t23 50t21 46l114 241q23 52 35 96.5t12 65.5q0 40 -28 59.5t-93 19.5h-6v83h404v-83h-18q-25 0 -43 -6.5t-34 -24.5 t-34 -47.5t-39 -75.5l-242 -501h246v-93h-278v-138h278v-94h-278v-125q0 -48 13 -75t35 -42t51.5 -20t63.5 -5h45v-83h-608v83h46q31 0 61 4t52 18t34.5 40.5t14.5 70.5v134h-276v94h276v138h-276v93h239l-270 551q-14 29 -26.5 49t-28.5 32.5t-36.5 17.5t-49.5 5h-5z" />
<glyph unicode="&#xa6;" horiz-adv-x="962" d="M396 317h176v-793h-176v793zM396 713v792h176v-792h-176z" />
<glyph unicode="&#xa7;" horiz-adv-x="1076" d="M155 746q0 75 32 131t85 90q-35 45 -54.5 98t-19.5 125q0 75 27.5 133.5t76 99t116.5 61.5t145 21q81 0 141 -17t100.5 -47t60 -70.5t19.5 -87.5q0 -63 -38 -92t-102 -29q0 46 -9.5 89.5t-33 78t-58.5 55t-89 20.5q-98 0 -153 -49t-55 -142q0 -54 19.5 -89t58.5 -63.5 t96.5 -55t133.5 -63.5q84 -40 145 -81t100.5 -85t58 -93.5t18.5 -107.5q0 -35 -10 -71.5t-26.5 -67.5t-37.5 -60t-44 -53q26 -38 43.5 -85.5t17.5 -109.5q0 -79 -22 -143.5t-67.5 -111t-117.5 -73t-174 -26.5q-77 0 -139 14t-107 44.5t-68.5 72.5t-23.5 98q0 40 12.5 66 t31.5 42.5t40.5 23t39.5 6.5q0 -53 13 -101.5t41 -86t71.5 -60.5t102.5 -23q122 0 182 53.5t60 145.5q0 44 -10.5 75.5t-46.5 64.5t-105 72t-186 96q-78 38 -134.5 78.5t-90.5 85t-50 95t-16 109.5zM281 796q0 -40 13.5 -71.5t46.5 -62t89 -62t141 -73.5q59 -30 117 -60.5 t106 -72.5q16 23 26.5 50.5t10.5 62.5q0 33 -9.5 63t-37.5 60.5t-77.5 64.5t-128.5 74q-71 32 -133.5 65t-113.5 74q-22 -19 -36 -46t-14 -66z" />
<glyph unicode="&#xa8;" horiz-adv-x="1142" d="M281 1362q0 32 8 53t21.5 33.5t32 18.5t39.5 6q22 0 40 -6t31.5 -18.5t22 -33.5t8.5 -53q0 -29 -8.5 -51t-22 -35t-31 -19t-40.5 -6q-44 0 -72.5 25t-28.5 86zM657 1362q0 32 8 53t22 33.5t32 18.5t39 6t39.5 -6t32 -18.5t22 -33.5t8.5 -53q0 -29 -8.5 -51t-22 -35 t-31.5 -19t-40 -6q-44 0 -72.5 25t-28.5 86z" />
<glyph unicode="&#xa9;" horiz-adv-x="1672" d="M109 707q0 101 26.5 194t73 173t112.5 147.5t146.5 115t174 73.5t193.5 26q101 0 194 -26t173.5 -73.5t147.5 -115t115 -147.5t73.5 -173t25.5 -194q0 -100 -25.5 -193.5t-73.5 -173.5t-115 -146.5t-147.5 -114.5t-173 -73t-194.5 -25q-100 0 -193.5 25t-174 73 t-146.5 114.5t-112.5 146.5t-73 173.5t-26.5 193.5zM218 707q0 -85 21.5 -164.5t62.5 -148t97 -124.5t124.5 -96.5t147.5 -62.5t164 -22t164.5 22t149 62.5t125.5 96.5t95.5 124.5t62.5 147.5t23 165q0 85 -23 164t-62.5 148.5t-95.5 125.5t-125.5 96t-148.5 62.5t-165 22.5 q-85 0 -164 -22.5t-147.5 -62.5t-124.5 -96t-97 -125.5t-62.5 -148.5t-21.5 -164zM449 709q0 97 27 176.5t81.5 137.5t133 91t182.5 33q70 0 120 -11.5t84 -30t51 -44.5t17 -55q0 -21 -11.5 -39.5t-29 -30.5t-42.5 -18t-53 -6q0 28 -7.5 55t-23.5 48.5t-43 35t-66 13.5 q-70 0 -119 -23t-79.5 -69t-44.5 -112t-14 -151q0 -172 66 -264t193 -92q46 0 84.5 11.5t69 30.5t53.5 43.5t36 49.5q12 -8 20.5 -24.5t8.5 -37.5q0 -27 -19 -55t-56 -52t-93 -38t-130 -14q-98 0 -173 32t-124 90t-74 139.5t-25 180.5z" />
<glyph unicode="&#xaa;" horiz-adv-x="756" d="M70 954q0 99 77.5 146t239.5 54l85 4v57q0 30 -3.5 55t-13 42.5t-29 27.5t-52.5 10q-30 0 -49 -11t-28.5 -28.5t-13 -42.5t-3.5 -53q-76 0 -116.5 20t-40.5 66q0 33 20.5 57t55.5 37.5t81 20.5t98 7q66 0 114 -11t81 -36.5t48.5 -66t15.5 -99.5v-302q0 -44 19 -60.5 t67 -16.5v-67h-193l-35 92h-9q-18 -20 -39 -39t-47 -32.5t-56.5 -23t-67.5 -9.5q-96 0 -151 52t-55 150zM241 952q0 -61 26 -85t66 -24q33 0 59 12t43.5 32.5t27 49t9.5 65.5v93l-60 -3q-48 -2 -80.5 -11.5t-52 -27.5t-29 -42.5t-9.5 -58.5z" />
<glyph unicode="&#xab;" horiz-adv-x="1096" d="M99 571v76l465 403v-159l-320 -283l320 -284v-159zM528 572v72l442 380v-153l-305 -263l305 -263v-152z" />
<glyph unicode="&#xac;" horiz-adv-x="1107" d="M129 650v116h849v-523h-118v407h-731z" />
<glyph unicode="&#xad;" horiz-adv-x="616" d="M36 440v134h543v-134h-543z" />
<glyph unicode="&#xae;" horiz-adv-x="1672" d="M109 707q0 101 26.5 194t73 173t112.5 147.5t146.5 115t174 73.5t193.5 26q101 0 194 -26t173.5 -73.5t147.5 -115t115 -147.5t73.5 -173t25.5 -194q0 -100 -25.5 -193.5t-73.5 -173.5t-115 -146.5t-147.5 -114.5t-173 -73t-194.5 -25q-100 0 -193.5 25t-174 73 t-146.5 114.5t-112.5 146.5t-73 173.5t-26.5 193.5zM218 707q0 -85 21.5 -164.5t62.5 -148t97 -124.5t124.5 -96.5t147.5 -62.5t164 -22t164.5 22t149 62.5t125.5 96.5t95.5 124.5t62.5 147.5t23 165q0 85 -23 164t-62.5 148.5t-95.5 125.5t-125.5 96t-148.5 62.5t-165 22.5 q-85 0 -164 -22.5t-147.5 -62.5t-124.5 -96t-97 -125.5t-62.5 -148.5t-21.5 -164zM461 280v66h27q19 0 35.5 2t31 10t21 21t8.5 37v580q-2 24 -8.5 37.5t-21 21t-31 9.5t-35.5 2h-27v69h357q340 0 340 -236q0 -48 -16 -83.5t-40.5 -61t-57 -43.5t-66.5 -30l176 -283 q10 -16 19 -25.5t22 -16t29.5 -8.5t40.5 -2v-66h-210l-218 368h-104v-232q2 -23 9.5 -36.5t21 -21.5t30 -10t35.5 -2h29v-66h-397zM733 723h83q53 0 89 10.5t57.5 31.5t30.5 55t9 77q0 44 -11 74.5t-33.5 49t-58.5 27.5t-89 9h-77v-334z" />
<glyph unicode="&#xaf;" horiz-adv-x="908" d="M-10 1505v116h929v-116h-929z" />
<glyph unicode="&#xb0;" horiz-adv-x="791" d="M94 1112q0 64 24 118.5t64.5 95t95.5 64t116 23.5q63 0 118 -23.5t95.5 -64t64.5 -95t24 -118.5q0 -62 -24 -115.5t-64.5 -94t-95.5 -64.5t-118 -24q-62 0 -116.5 24t-95 64.5t-64.5 94t-24 115.5zM214 1112q0 -38 13.5 -70.5t38.5 -57t58 -39t70 -14.5q40 0 72.5 14.5 t57 39t38.5 57.5t14 70q0 41 -14 73.5t-38.5 57t-57 39.5t-72.5 15q-38 0 -70.5 -15t-57.5 -39.5t-38.5 -57t-13.5 -73.5z" />
<glyph unicode="&#xb1;" horiz-adv-x="1107" d="M129 0v117h849v-117h-849zM129 650v116h364v365h119v-365h366v-116h-366v-367h-119v367h-364z" />
<glyph unicode="&#xb2;" horiz-adv-x="791" d="M83 567v88l252 226q44 40 73.5 80.5t46.5 81t25.5 81t8.5 79.5q0 33 -5.5 60.5t-20 48t-36.5 32t-55 11.5q-35 0 -60 -14.5t-41 -38.5t-23 -55.5t-7 -64.5q-67 0 -105 16.5t-38 68.5q0 35 17.5 66t52 52.5t85.5 35t119 13.5q138 0 216.5 -55t78.5 -159q0 -47 -10.5 -87.5 t-36 -80.5t-67 -84t-102.5 -97l-210 -180h288q45 0 63 24.5t23 57.5l9 41h67l-6 -247h-602z" />
<glyph unicode="&#xb3;" horiz-adv-x="791" d="M79 717q0 43 25 70t66 27q0 -30 10.5 -60.5t31 -55.5t52 -39.5t75.5 -14.5q81 0 128 40.5t47 131.5q0 68 -50 109.5t-160 41.5h-65v81h65q39 0 70.5 12.5t55 34t38 53.5t14.5 72q0 65 -26.5 100t-87.5 35q-38 0 -62.5 -14.5t-40.5 -38.5t-21.5 -55.5t-5.5 -64.5 q-34 0 -61.5 4t-46 13t-29 25.5t-10.5 42.5q0 35 18 66t53.5 52.5t87 35t118.5 13.5q66 0 120 -14.5t92.5 -38.5t59.5 -61t21 -83q0 -43 -16.5 -78t-43.5 -60.5t-64.5 -44.5t-77.5 -30v-10q40 -7 81.5 -18.5t76.5 -34t57 -58.5t22 -89q0 -72 -33 -122t-83.5 -81t-112.5 -44 t-123 -13q-130 0 -197.5 45t-67.5 118z" />
<glyph unicode="&#xb4;" horiz-adv-x="1142" d="M378 1199v27q22 27 45.5 63.5t46.5 76t43.5 79t37.5 72.5h210v-21q-19 -25 -54.5 -64.5t-79 -82t-89 -82t-85.5 -68.5h-75z" />
<glyph unicode="&#xb5;" horiz-adv-x="1217" d="M170 -239q0 60 3 127.5t7 150t9.5 183t5.5 224.5v616h185v-666q0 -66 10 -118.5t33 -90.5t60.5 -59t94.5 -21q56 0 100.5 24t75 65.5t47.5 101t17 129.5v635h186v-807q0 -44 12 -76t30 -53t39.5 -32t42.5 -11h7v-83h-107q-82 0 -128 40.5t-65 117.5h-8 q-24 -40 -50.5 -72.5t-59 -56t-73.5 -36t-93 -12.5q-83 0 -143 30.5t-100 84.5q3 -83 8 -152t21 -121.5t46.5 -84t84.5 -40.5q0 -39 -7.5 -71t-25 -54t-43.5 -35.5t-61 -13.5q-31 0 -60.5 11.5t-51 39t-35.5 73.5t-14 113z" />
<glyph unicode="&#xb6;" horiz-adv-x="1221" d="M79 1153q0 79 17.5 144t54 110.5t93.5 71.5t141 26h756v-84h-27q-33 0 -62.5 -5t-51.5 -19.5t-35 -43.5t-13 -75v-1272q0 -48 13 -75t35 -42.5t51.5 -20t62.5 -4.5h27v-83h-310v1622h-187v-1622h-309v83h26q33 0 62.5 4.5t51.5 20t35 42.5t13 75v758h-141 q-87 0 -146 31.5t-93 85.5t-49 124t-15 148z" />
<glyph unicode="&#xb7;" horiz-adv-x="494" d="M123 705q0 38 9.5 64.5t26.5 41t39.5 21.5t48.5 7t49 -7t40 -21.5t26.5 -41.5t9.5 -64q0 -38 -9.5 -64t-26.5 -41.5t-39.5 -22t-49.5 -6.5q-26 0 -48.5 6.5t-39.5 22t-26.5 41.5t-9.5 64z" />
<glyph unicode="&#xb8;" horiz-adv-x="659" d="M119 -353q36 -8 71 -11.5t63 -3.5q58 0 89.5 30t31.5 80q0 58 -42.5 88t-106.5 34l42 153h94l-20 -85q97 -7 144 -54.5t47 -126.5q0 -105 -67 -166t-193 -61q-16 0 -35 2t-40 4.5t-41 7.5t-37 9v100z" />
<glyph unicode="&#xb9;" horiz-adv-x="791" d="M83 1275q24 3 46 6.5t54.5 16.5t82 41.5t126.5 83.5h99v-712q0 -25 7 -40.5t18 -23t25.5 -10t32.5 -2.5h91v-66h-542v66h109q17 0 32.5 2.5t26 10t16.5 22.5t6 41v570h-9q-23 -24 -41 -40.5t-35.5 -27t-34.5 -15t-38 -4.5q-32 0 -52 22.5t-20 58.5z" />
<glyph unicode="&#xba;" horiz-adv-x="785" d="M70 1089q0 170 82 252t244 82q74 0 133 -20.5t100.5 -62.5t64.5 -104.5t23 -146.5q0 -170 -82.5 -253.5t-242.5 -83.5q-153 0 -237.5 83.5t-84.5 253.5zM241 1089q0 -129 33.5 -193.5t119.5 -64.5q83 0 117.5 64.5t34.5 193.5q0 126 -35 188t-119 62t-117.5 -62 t-33.5 -188z" />
<glyph unicode="&#xbb;" horiz-adv-x="1098" d="M127 193v152l305 263l-305 263v153l444 -380v-72zM534 165v159l319 284l-319 283v159l465 -403v-76z" />
<glyph unicode="&#xbc;" horiz-adv-x="1662" d="M19 1275q24 3 46 6.5t55 16.5t82 41.5t129 83.5h96v-712q0 -25 7.5 -40.5t18 -23t26.5 -10t31 -2.5h92v-66h-543v66h109q18 0 33 2.5t26 10t16.5 22.5t5.5 41v570h-8q-23 -24 -41.5 -40.5t-34.5 -27t-33.5 -15t-40.5 -4.5q-32 0 -52 22.5t-20 58.5zM416 0l706 1413h129 l-705 -1413h-130zM899 251v60l370 547h159v-521h189v-86h-189v-109q0 -23 7 -39t18.5 -23t26 -9.5t31.5 -2.5h39v-68h-436v68h56q16 0 30.5 2.5t25.5 9.5t18 23t7 39v109h-352zM1016 337h235v224q0 31 2.5 70.5t7.5 75.5q-8 -15 -16 -31.5t-13 -23.5z" />
<glyph unicode="&#xbd;" horiz-adv-x="1662" d="M19 1275q24 3 46 6.5t55 16.5t82 41.5t129 83.5h96v-712q0 -25 7.5 -40.5t18 -23t26.5 -10t31 -2.5h92v-66h-543v66h109q18 0 33 2.5t26 10t16.5 22.5t5.5 41v570h-8q-23 -24 -41.5 -40.5t-34.5 -27t-33.5 -15t-40.5 -4.5q-32 0 -52 22.5t-20 58.5zM376 0l707 1413h129 l-705 -1413h-131zM982 0v89l252 226q44 40 73 80.5t47 82t26 82t8 77.5q0 34 -6 62t-20 47.5t-36.5 30.5t-54.5 11q-35 0 -60 -14.5t-41 -37.5t-22.5 -53.5t-6.5 -65.5q-68 0 -105.5 16.5t-37.5 67.5q0 38 16.5 67.5t51.5 52t86 34.5t119 12q138 0 216.5 -54.5t78.5 -157.5 q0 -47 -11 -87.5t-36 -81t-66.5 -84t-102.5 -98.5l-209 -179h287q46 0 63.5 24.5t23.5 56.5l8 41h67l-6 -247h-602z" />
<glyph unicode="&#xbe;" horiz-adv-x="1662" d="M79 717q0 43 25 70t66 27q0 -30 10.5 -60.5t31 -55.5t52 -39.5t75.5 -14.5q81 0 128 40.5t47 131.5q0 68 -50 109.5t-160 41.5h-65v81h65q39 0 70.5 12.5t55 34t38 53.5t14.5 72q0 65 -26.5 100t-87.5 35q-38 0 -62.5 -14.5t-40.5 -38.5t-21.5 -55.5t-5.5 -64.5 q-34 0 -61.5 4t-46 13t-29 25.5t-10.5 42.5q0 35 18 66t53.5 52.5t87 35t118.5 13.5q66 0 120 -14.5t92.5 -38.5t59.5 -61t21 -83q0 -43 -16.5 -78t-43.5 -60.5t-64.5 -44.5t-77.5 -30v-10q40 -7 81.5 -18.5t76.5 -34t57 -58.5t22 -89q0 -72 -33 -122t-83.5 -81t-112.5 -44 t-123 -13q-130 0 -197.5 45t-67.5 118zM455 0l707 1413h129l-705 -1413h-131zM899 251v60l370 547h159v-521h189v-86h-189v-109q0 -23 7 -39t18.5 -23t26 -9.5t31.5 -2.5h39v-68h-436v68h56q16 0 30.5 2.5t25.5 9.5t18 23t7 39v109h-352zM1016 337h235v224q0 31 2.5 70.5 t7.5 75.5q-8 -15 -16 -31.5t-13 -23.5z" />
<glyph unicode="&#xbf;" horiz-adv-x="1118" d="M121 406q0 116 87 209q79 87 195 127q92 32 79 166v182h156v-209q0 -131 -66 -192q-43 -42 -174 -105q-54 -24 -84.5 -81t-30.5 -119q0 -122 89 -191q81 -66 193 -66q253 11 285 210l157 118q5 -255 -157 -382q-121 -95 -287 -95q-199 0 -312 113q-130 119 -130 315z M471 1339q0 49 29.5 74.5t74.5 25.5q49 0 78 -36t29 -64q0 -47 -29 -74t-78 -27q-45 0 -74.5 36.5t-29.5 64.5z" />
<glyph unicode="&#xc0;" horiz-adv-x="1290" d="M35 0l602 1398h54l550 -1398h-196l-139 427h-532l-140 -427h-199zM394 1823v20h212q13 -31 34 -70.5t45 -79.5t47.5 -76.5t46.5 -64.5v-26h-76q-40 28 -86 67.5t-89.5 82t-79.5 82.5t-54 65zM434 584h418l-204 491z" />
<glyph unicode="&#xc1;" horiz-adv-x="1311" d="M35 0l602 1398h54l550 -1398h-196l-139 427h-532l-140 -427h-199zM434 584h418l-204 491zM519 1517v26q21 26 45.5 63t47 77t43 79.5t36.5 71.5h212v-20q-18 -25 -54.5 -65t-79 -82.5t-89 -82t-86.5 -67.5h-75z" />
<glyph unicode="&#xc2;" horiz-adv-x="1285" d="M35 0l602 1398h54l550 -1398h-196l-139 427h-532l-140 -427h-199zM388 1478v27q23 26 51 63t56 76.5t52 79t40 72.5h188q16 -32 39.5 -72t51 -79.5t55 -76.5t51.5 -63v-27h-77q-57 33 -114.5 82t-101.5 96q-46 -47 -102 -95.5t-111 -82.5h-78zM434 584h418l-204 491z" />
<glyph unicode="&#xc3;" horiz-adv-x="1306" d="M35 0l602 1398h54l550 -1398h-196l-139 427h-532l-140 -427h-199zM346 1517q2 47 15 88.5t39 73.5t64.5 52t91.5 20q55 0 97.5 -20t80 -43.5t69 -42.5t62.5 -19q30 0 48 9t27.5 23.5t13.5 33.5t8 40h88q-3 -46 -15.5 -87.5t-37.5 -74.5t-62.5 -53t-91.5 -20 q-53 0 -96.5 20t-80 43t-69 42.5t-65.5 19.5q-29 0 -47 -8.5t-28 -22.5t-14.5 -33t-6.5 -41h-90zM434 584h418l-204 491z" />
<glyph unicode="&#xc4;" horiz-adv-x="1135" d="M4 0l468 1391h218l469 -1391h-177l-128 394h-553l-128 -394h-169zM294 1577v165h171v-165h-171zM347 534h461l-231 706zM685 1577v165h172v-165h-172z" />
<glyph unicode="&#xc5;" horiz-adv-x="1135" d="M-10 0l453 1341q-74 41 -114.5 104t-40.5 142q0 118 81 196t200 78q118 0 199 -78.5t81 -195.5q0 -77 -42.5 -140.5t-113.5 -102.5l453 -1344h-178l-128 394h-553l-128 -394h-169zM334 533h461l-231 710zM408 1585q0 -74 45.5 -123t115.5 -49q69 0 114.5 49t45.5 123 q0 73 -44.5 121.5t-115.5 48.5t-116 -48.5t-45 -121.5z" />
<glyph unicode="&#xc6;" horiz-adv-x="1747" d="M-38 0l563 1391h1157v-147h-678v-406h630v-148h-630v-543h678v-147h-845v528h-494l-206 -528h-175zM397 666h440v589h-200z" />
<glyph unicode="&#xc7;" horiz-adv-x="1147" d="M64 694q0 175 44.5 305.5t128.5 226.5q83 92 196.5 141.5t254.5 49.5q70 0 132 -10.5t114 -25.5q46 -15 93 -36t87 -44v-211h-2q-21 21 -60.5 53t-95.5 65q-55 29 -119.5 48.5t-150.5 19.5q-92 0 -174.5 -38t-144.5 -111q-61 -75 -94.5 -185t-33.5 -248q0 -146 35.5 -252 t97.5 -180q60 -72 141.5 -108.5t172.5 -36.5q83 0 153.5 20t125.5 52q53 29 91.5 60t57.5 51v-208q-41 -19 -81.5 -39t-98.5 -39q-8 -3 -21.5 -6.5t-28.5 -6.5q2 -23 4 -45.5t2 -48.5q0 -138 -75 -223t-208 -85q-35 0 -81 6t-77 14v136h-3q21 -10 59 -22t78 -12 q92 0 136.5 40.5t44.5 126.5q0 18 -0.5 37t-1.5 53q-26 -2 -41 -2.5t-36 -0.5q-136 0 -250 45.5t-197 135.5q-82 90 -128 226t-46 312z" />
<glyph unicode="&#xc8;" horiz-adv-x="1072" d="M153 0v1391h862v-147h-694v-406h646v-148h-646v-543h694v-147h-862zM391 1928h205l161 -334h-121z" />
<glyph unicode="&#xc9;" horiz-adv-x="1072" d="M153 0v1391h862v-147h-694v-406h646v-148h-646v-543h694v-147h-862zM488 1594l161 334h205l-245 -334h-121z" />
<glyph unicode="&#xca;" horiz-adv-x="1072" d="M153 0v1391h862v-147h-694v-406h646v-148h-646v-543h694v-147h-862zM281 1589l206 339h203l204 -339h-129l-179 249l-180 -249h-125z" />
<glyph unicode="&#xcb;" horiz-adv-x="1072" d="M153 0v1391h862v-147h-694v-406h646v-148h-646v-543h694v-147h-862zM345 1596v165h171v-165h-171zM737 1596v165h170v-165h-170z" />
<glyph unicode="&#xcc;" horiz-adv-x="708" d="M97 0v125h181v1141h-181v125h530v-125h-181v-1141h181v-125h-530zM196 1928h204l161 -334h-121z" />
<glyph unicode="&#xcd;" horiz-adv-x="708" d="M97 0v125h181v1141h-181v125h530v-125h-181v-1141h181v-125h-530zM234 1594l160 334h205l-244 -334h-121z" />
<glyph unicode="&#xce;" horiz-adv-x="708" d="M53 1589l206 339h203l204 -339h-129l-179 249l-181 -249h-124zM97 0v125h181v1141h-181v125h530v-125h-181v-1141h181v-125h-530z" />
<glyph unicode="&#xcf;" horiz-adv-x="708" d="M78 1596v165h171v-165h-171zM97 0v125h181v1141h-181v125h530v-125h-181v-1141h181v-125h-530zM469 1596v165h172v-165h-172z" />
<glyph unicode="&#xd0;" horiz-adv-x="1336" d="M48 676v111h124v611h460q133 0 197 -22q390 -95 391 -677q0 -699 -545 -699h-503v676h-124zM363 160h269q239 0 316 157q81 127 81 380q0 268 -86 390q-105 147 -339 147h-241v-447h191v-111h-191v-516z" />
<glyph unicode="&#xd1;" horiz-adv-x="1281" d="M153 0v1391h251l582 -1148v1148h157v-1391h-196l-639 1247v-1247h-155zM307 1589q6 132 69 202.5t153 70.5q47 0 86 -17t79 -51q41 -39 75 -59.5t64 -20.5q51 0 73.5 46.5t24.5 107.5h113q-9 -134 -67 -205t-156 -71q-47 0 -87 17t-79 54q-43 40 -73.5 61t-64.5 21 q-52 0 -72 -46.5t-24 -109.5h-114z" />
<glyph unicode="&#xd2;" horiz-adv-x="1355" d="M73 696q0 176 43 309t123 228q80 91 193.5 139.5t253.5 48.5q141 0 255 -50t191 -138q80 -91 124 -227t44 -310q0 -170 -42.5 -307t-125.5 -230q-84 -96 -197 -142t-249 -46q-141 0 -254 47.5t-193 140.5q-81 93 -123.5 228.5t-42.5 308.5zM248 696q0 -281 119.5 -431.5 t319.5 -150.5t318.5 150.5t118.5 431.5q0 142 -30 250.5t-87 181.5q-57 75 -138 112t-182 37q-105 0 -183 -36t-139 -113q-57 -74 -87 -184t-30 -248zM470 1928h205l161 -334h-120z" />
<glyph unicode="&#xd3;" horiz-adv-x="1355" d="M73 696q0 176 43 309t123 228q80 91 193.5 139.5t253.5 48.5q141 0 255 -50t191 -138q80 -91 124 -227t44 -310q0 -170 -42.5 -307t-125.5 -230q-84 -96 -197 -142t-249 -46q-141 0 -254 47.5t-193 140.5q-81 93 -123.5 228.5t-42.5 308.5zM248 696q0 -281 119.5 -431.5 t319.5 -150.5t318.5 150.5t118.5 431.5q0 142 -30 250.5t-87 181.5q-57 75 -138 112t-182 37q-105 0 -183 -36t-139 -113q-57 -74 -87 -184t-30 -248zM535 1594l161 334h205l-245 -334h-121z" />
<glyph unicode="&#xd4;" horiz-adv-x="1355" d="M73 696q0 176 43 309t123 228q80 91 193.5 139.5t253.5 48.5q141 0 255 -50t191 -138q80 -91 124 -227t44 -310q0 -170 -42.5 -307t-125.5 -230q-84 -96 -197 -142t-249 -46q-141 0 -254 47.5t-193 140.5q-81 93 -123.5 228.5t-42.5 308.5zM248 696q0 -281 119.5 -431.5 t319.5 -150.5t318.5 150.5t118.5 431.5q0 142 -30 250.5t-87 181.5q-57 75 -138 112t-182 37q-105 0 -183 -36t-139 -113q-57 -74 -87 -184t-30 -248zM372 1589l205 339h204l204 -339h-128l-181 249l-179 -249h-125z" />
<glyph unicode="&#xd5;" horiz-adv-x="1355" d="M73 696q0 176 43 309t123 228q80 91 193.5 139.5t253.5 48.5q141 0 255 -50t191 -138q80 -91 124 -227t44 -310q0 -170 -42.5 -307t-125.5 -230q-84 -96 -197 -142t-249 -46q-141 0 -254 47.5t-193 140.5q-81 93 -123.5 228.5t-42.5 308.5zM248 696q0 -281 119.5 -431.5 t319.5 -150.5t318.5 150.5t118.5 431.5q0 142 -30 250.5t-87 181.5q-57 75 -138 112t-182 37q-105 0 -183 -36t-139 -113q-57 -74 -87 -184t-30 -248zM307 1589q6 132 69 202.5t153 70.5q47 0 86 -17t79 -51q41 -39 75 -59.5t64 -20.5q51 0 73.5 46.5t24.5 107.5h113 q-9 -134 -67 -205t-156 -71q-47 0 -87 17t-79 54q-43 40 -73.5 61t-64.5 21q-52 0 -72 -46.5t-24 -109.5h-114z" />
<glyph unicode="&#xd6;" horiz-adv-x="1355" d="M73 696q0 176 43 309t123 228q80 91 193.5 139.5t253.5 48.5q141 0 255 -50t191 -138q80 -91 124 -227t44 -310q0 -170 -42.5 -307t-125.5 -230q-84 -96 -197 -142t-249 -46q-141 0 -254 47.5t-193 140.5q-81 93 -123.5 228.5t-42.5 308.5zM248 696q0 -281 119.5 -431.5 t319.5 -150.5t318.5 150.5t118.5 431.5q0 142 -30 250.5t-87 181.5q-57 75 -138 112t-182 37q-105 0 -183 -36t-139 -113q-57 -74 -87 -184t-30 -248zM405 1596v165h170v-165h-170zM796 1596v165h170v-165h-170z" />
<glyph unicode="&#xd7;" horiz-adv-x="1392" d="M201 204l407 404l-407 403l101 92l394 -397l394 397l101 -92l-407 -403l407 -404l-101 -90l-394 396l-394 -396z" />
<glyph unicode="&#xd8;" horiz-adv-x="1355" d="M64 696q0 345 168 535t445 190q106 0 189.5 -25.5t166.5 -82.5l112 165h116l-155 -228q89 -99 137.5 -233t48.5 -321q0 -346 -168 -535.5t-447 -189.5q-103 0 -191 27t-168 81l-127 -190h-117l173 256q-90 97 -136.5 234t-46.5 317zM238 696q0 -129 24.5 -230t78.5 -186 l605 906q-57 49 -123 70t-145 21q-202 0 -321 -148.5t-119 -432.5zM405 208q63 -51 124.5 -72.5t148.5 -21.5q200 0 319.5 150t119.5 432q0 132 -25.5 235t-78.5 184z" />
<glyph unicode="&#xd9;" horiz-adv-x="1258" d="M135 521v870h168v-870q0 -98 12.5 -166.5t50.5 -123.5q40 -59 106.5 -89t163.5 -30q90 0 160.5 30t108.5 89q38 56 50.5 123t12.5 162v875h169v-870q0 -146 -29.5 -249t-101.5 -175q-66 -64 -154 -95t-216 -31q-123 0 -213.5 31.5t-154.5 94.5q-72 73 -102.5 173.5 t-30.5 250.5zM386 1928h206l160 -334h-120z" />
<glyph unicode="&#xda;" horiz-adv-x="1258" d="M135 521v870h168v-870q0 -98 12.5 -166.5t50.5 -123.5q40 -59 106.5 -89t163.5 -30q90 0 160.5 30t108.5 89q38 56 50.5 123t12.5 162v875h169v-870q0 -146 -29.5 -249t-101.5 -175q-66 -64 -154 -95t-216 -31q-123 0 -213.5 31.5t-154.5 94.5q-72 73 -102.5 173.5 t-30.5 250.5zM568 1594l160 334h205l-245 -334h-120z" />
<glyph unicode="&#xdb;" horiz-adv-x="1258" d="M135 521v870h168v-870q0 -98 12.5 -166.5t50.5 -123.5q40 -59 106.5 -89t163.5 -30q90 0 160.5 30t108.5 89q38 56 50.5 123t12.5 162v875h169v-870q0 -146 -29.5 -249t-101.5 -175q-66 -64 -154 -95t-216 -31q-123 0 -213.5 31.5t-154.5 94.5q-72 73 -102.5 173.5 t-30.5 250.5zM324 1589l205 339h205l204 -339h-129l-179 249l-181 -249h-125z" />
<glyph unicode="&#xdc;" horiz-adv-x="1258" d="M135 521v870h168v-870q0 -98 12.5 -166.5t50.5 -123.5q40 -59 106.5 -89t163.5 -30q90 0 160.5 30t108.5 89q38 56 50.5 123t12.5 162v875h169v-870q0 -146 -29.5 -249t-101.5 -175q-66 -64 -154 -95t-216 -31q-123 0 -213.5 31.5t-154.5 94.5q-72 73 -102.5 173.5 t-30.5 250.5zM382 1596v165h171v-165h-171zM774 1596v165h171v-165h-171z" />
<glyph unicode="&#xdd;" horiz-adv-x="1082" d="M7 1391h186l369 -632l375 632h175l-468 -774v-617h-168v597zM460 1594l160 334h205l-244 -334h-121z" />
<glyph unicode="&#xde;" horiz-adv-x="1081" d="M146 0v1391h168v-255h176q125 0 215.5 -21.5t152.5 -62.5q76 -49 119.5 -127t43.5 -189q0 -85 -32.5 -163.5t-87.5 -130.5q-73 -70 -174.5 -103.5t-242.5 -33.5h-170v-305h-168zM314 443h139q115 0 189 20t119 64q43 41 63.5 91t20.5 113q0 70 -25.5 123t-81.5 89 q-47 28 -108.5 40.5t-147.5 12.5h-168v-553z" />
<glyph unicode="&#xdf;" horiz-adv-x="1280" d="M46 0v83h26q33 0 62.5 5t51.5 20t35 42t13 75v742h-161v95h161v58q0 109 32.5 183.5t90 121t136 66.5t168.5 20q123 0 205 -34.5t132 -103t71 -169.5t23 -232h-144q-105 0 -154.5 -39.5t-49.5 -120.5q0 -30 10 -54.5t34 -47.5t63.5 -45.5t98.5 -51.5q76 -33 122 -71.5 t73.5 -80t38 -85t10.5 -87.5q0 -75 -22.5 -134t-66 -97.5t-105 -57.5t-140.5 -19q-70 0 -127.5 12.5t-98.5 39t-62 66t-21 92.5q0 40 11.5 66t28.5 42t37 21.5t35 5.5q0 -51 10 -96.5t33 -80t60 -54.5t92 -20q73 0 119.5 44.5t46.5 135.5q0 33 -7.5 61t-29.5 54t-59 52.5 t-97 55.5q-61 31 -108.5 61t-79 66.5t-47.5 83t-16 109.5q0 60 19.5 109t60.5 85t102 55t144 19q0 92 -13.5 159.5t-43 111t-76 64t-114.5 20.5q-59 0 -104.5 -19.5t-75.5 -54t-44.5 -85t-14.5 -113.5v-1149h-374z" />
<glyph unicode="&#xe0;" horiz-adv-x="1002" d="M65 298q0 106 45 181t142 119q88 40 208.5 55.5t269.5 23.5v44q0 65 -20.5 105.5t-55.5 62.5q-36 22 -87 29.5t-104 7.5q-63 0 -147 -18.5t-166 -52.5h1v164q42 11 133 28.5t180 17.5q107 0 180.5 -17t132.5 -60q56 -43 83 -109.5t27 -163.5v-715h-157v122 q-38 -27 -74.5 -55.5t-68.5 -46.5q-47 -24 -90 -36.5t-121 -12.5q-64 0 -120.5 23.5t-99.5 67.5q-42 42 -66.5 104t-24.5 132zM215 1567h205l160 -333h-121zM229 308q0 -94 54.5 -143.5t156.5 -49.5q86 0 156 37t134 94v309q-75 -6 -172.5 -16t-157.5 -29 q-74 -22 -122.5 -69.5t-48.5 -132.5z" />
<glyph unicode="&#xe1;" horiz-adv-x="1002" d="M65 298q0 106 45 181t142 119q88 40 208.5 55.5t269.5 23.5v44q0 65 -20.5 105.5t-55.5 62.5q-36 22 -87 29.5t-104 7.5q-63 0 -147 -18.5t-166 -52.5h1v164q42 11 133 28.5t180 17.5q107 0 180.5 -17t132.5 -60q56 -43 83 -109.5t27 -163.5v-715h-157v122 q-38 -27 -74.5 -55.5t-68.5 -46.5q-47 -24 -90 -36.5t-121 -12.5q-64 0 -120.5 23.5t-99.5 67.5q-42 42 -66.5 104t-24.5 132zM229 308q0 -94 54.5 -143.5t156.5 -49.5q86 0 156 37t134 94v309q-75 -6 -172.5 -16t-157.5 -29q-74 -22 -122.5 -69.5t-48.5 -132.5zM349 1234 l160 333h206l-246 -333h-120z" />
<glyph unicode="&#xe2;" horiz-adv-x="1002" d="M65 298q0 106 45 181t142 119q88 40 208.5 55.5t269.5 23.5v44q0 65 -20.5 105.5t-55.5 62.5q-36 22 -87 29.5t-104 7.5q-63 0 -147 -18.5t-166 -52.5h1v164q42 11 133 28.5t180 17.5q107 0 180.5 -17t132.5 -60q56 -43 83 -109.5t27 -163.5v-715h-157v122 q-38 -27 -74.5 -55.5t-68.5 -46.5q-47 -24 -90 -36.5t-121 -12.5q-64 0 -120.5 23.5t-99.5 67.5q-42 42 -66.5 104t-24.5 132zM199 1229l206 338h203l204 -338h-129l-179 249l-181 -249h-124zM229 308q0 -94 54.5 -143.5t156.5 -49.5q86 0 156 37t134 94v309 q-75 -6 -172.5 -16t-157.5 -29q-74 -22 -122.5 -69.5t-48.5 -132.5z" />
<glyph unicode="&#xe3;" horiz-adv-x="1002" d="M65 298q0 106 45 181t142 119q88 40 208.5 55.5t269.5 23.5v44q0 65 -20.5 105.5t-55.5 62.5q-36 22 -87 29.5t-104 7.5q-63 0 -147 -18.5t-166 -52.5h1v164q42 11 133 28.5t180 17.5q107 0 180.5 -17t132.5 -60q56 -43 83 -109.5t27 -163.5v-715h-157v122 q-38 -27 -74.5 -55.5t-68.5 -46.5q-47 -24 -90 -36.5t-121 -12.5q-64 0 -120.5 23.5t-99.5 67.5q-42 42 -66.5 104t-24.5 132zM136 1247q6 133 69 204t154 71q46 0 85.5 -18t78.5 -52q41 -38 75.5 -58t63.5 -20q52 0 74 45.5t23 106.5h114q-9 -134 -67.5 -204.5 t-154.5 -70.5q-48 0 -88 17t-78 53q-43 40 -74.5 61t-64.5 21q-52 0 -72.5 -46t-24.5 -110h-113zM229 308q0 -94 54.5 -143.5t156.5 -49.5q86 0 156 37t134 94v309q-75 -6 -172.5 -16t-157.5 -29q-74 -22 -122.5 -69.5t-48.5 -132.5z" />
<glyph unicode="&#xe4;" horiz-adv-x="1002" d="M65 298q0 106 45 181t142 119q88 40 208.5 55.5t269.5 23.5v44q0 65 -20.5 105.5t-55.5 62.5q-36 22 -87 29.5t-104 7.5q-63 0 -147 -18.5t-166 -52.5h1v164q42 11 133 28.5t180 17.5q107 0 180.5 -17t132.5 -60q56 -43 83 -109.5t27 -163.5v-715h-157v122 q-38 -27 -74.5 -55.5t-68.5 -46.5q-47 -24 -90 -36.5t-121 -12.5q-64 0 -120.5 23.5t-99.5 67.5q-42 42 -66.5 104t-24.5 132zM218 1236v165h171v-165h-171zM229 308q0 -94 54.5 -143.5t156.5 -49.5q86 0 156 37t134 94v309q-75 -6 -172.5 -16t-157.5 -29 q-74 -22 -122.5 -69.5t-48.5 -132.5zM610 1236v165h171v-165h-171z" />
<glyph unicode="&#xe5;" horiz-adv-x="1002" d="M56 298q0 106 45 181t142 119q88 40 208.5 55.5t269.5 23.5v44q0 65 -20.5 105.5t-55.5 62.5t-86 29.5t-105 7.5q-50 0 -100.5 -9.5t-82.5 -17.5q-44 -12 -78.5 -24.5t-51.5 -19.5h1v164q36 10 103 22t193 22q-123 49 -175.5 116.5t-52.5 157.5q0 117 81 196t198 79 q120 0 200.5 -78.5t80.5 -196.5q0 -91 -55.5 -161.5t-183.5 -115.5q121 -16 176.5 -41t91.5 -62q40 -43 60 -101t20 -141v-715h-158v122q-38 -27 -74 -55t-69 -47q-47 -24 -89.5 -36.5t-121.5 -12.5q-64 0 -120 23.5t-100 67.5q-43 42 -67 104t-24 132zM220 308 q0 -94 54 -143.5t157 -49.5q86 0 156 37t134 94v309q-74 -6 -172 -16t-158 -29q-73 -22 -122 -69.5t-49 -132.5zM330 1336q0 -75 45 -124t114 -49q70 0 115.5 49t45.5 124q0 72 -44.5 121t-116.5 49q-70 0 -114.5 -49t-44.5 -121z" />
<glyph unicode="&#xe6;" horiz-adv-x="1690" d="M56 291q0 119 48.5 187.5t137.5 107.5q85 36 217 48.5t286 15.5v65q0 64 -21 106.5t-61 66.5q-35 21 -85 30.5t-113 9.5q-79 0 -170 -25t-144 -48h-2v164q39 10 135.5 29t181.5 19q149 0 241.5 -45t148.5 -138q70 86 162 135.5t201 49.5q208 0 313.5 -124.5t105.5 -347.5 v-68h-746q0 -120 29 -198.5t82 -128.5q51 -48 116 -69t141 -21q63 0 122 13.5t102 33.5q49 22 83 43t53 37h-3v-178q-25 -9 -71 -28t-83 -28q-52 -15 -93.5 -22t-107.5 -7q-150 0 -256.5 48t-182.5 152q-27 -25 -67.5 -63.5t-85.5 -62.5q-61 -36 -125.5 -56.5t-167.5 -20.5 q-135 0 -228 89t-93 229zM219 302q0 -93 56.5 -140t165.5 -47q88 0 178 42.5t158 113.5q-19 55 -29.5 116t-10.5 142q-99 -3 -189.5 -8.5t-162.5 -25.5q-72 -19 -119 -65t-47 -128zM893 647h593q-5 68 -20.5 119.5t-46.5 90.5q-31 38 -84 61t-124 23q-76 0 -127 -21t-92 -61 q-40 -39 -64 -91t-35 -121z" />
<glyph unicode="&#xe7;" horiz-adv-x="881" d="M57 518q0 137 37 237t98 168q61 67 152.5 104t195.5 37q86 0 166 -24.5t138 -53.5v-185h3q-16 15 -46.5 36t-74.5 43q-38 19 -89 33.5t-100 14.5q-142 0 -228.5 -107.5t-86.5 -302.5q0 -192 83.5 -299t231.5 -107q90 0 170.5 36.5t139.5 91.5h-3v-184q-21 -9 -56 -24.5 t-71 -26.5q1 -23 3 -47.5t2 -50.5q0 -138 -75 -223t-207 -85q-35 0 -82 6t-77 14v136h-2q21 -10 58.5 -22t77.5 -12q93 0 137 40.5t44 126.5q0 18 -0.5 37.5t-1.5 52.5q-22 0 -31 -0.5t-23 -0.5q-107 0 -196 33t-152 99q-64 67 -99.5 169t-35.5 240z" />
<glyph unicode="&#xe8;" horiz-adv-x="1004" d="M66 513q0 255 133 405.5t346 150.5q97 0 171.5 -28t129.5 -87q56 -59 85.5 -145t29.5 -212v-87h-734q0 -198 96 -298t264 -100q60 0 116.5 13t103.5 34q50 22 83.5 43t53.5 37h-3v-178q-25 -9 -72 -28t-82 -28q-52 -15 -93.5 -22t-104.5 -7q-249 0 -386 139.5t-137 397.5 zM226 628h580q-2 83 -17 136.5t-46 91.5q-32 42 -83 63.5t-125 21.5q-73 0 -124 -22.5t-94 -63.5q-42 -44 -63 -96t-28 -131zM269 1567h204l161 -333h-121z" />
<glyph unicode="&#xe9;" horiz-adv-x="1004" d="M66 513q0 255 133 405.5t346 150.5q97 0 171.5 -28t129.5 -87q56 -59 85.5 -145t29.5 -212v-87h-734q0 -198 96 -298t264 -100q60 0 116.5 13t103.5 34q50 22 83.5 43t53.5 37h-3v-178q-25 -9 -72 -28t-82 -28q-52 -15 -93.5 -22t-104.5 -7q-249 0 -386 139.5t-137 397.5 zM226 628h580q-2 83 -17 136.5t-46 91.5q-32 42 -83 63.5t-125 21.5q-73 0 -124 -22.5t-94 -63.5q-42 -44 -63 -96t-28 -131zM458 1234l160 333h205l-244 -333h-121z" />
<glyph unicode="&#xea;" horiz-adv-x="1004" d="M66 513q0 255 133 405.5t346 150.5q97 0 171.5 -28t129.5 -87q56 -59 85.5 -145t29.5 -212v-87h-734q0 -198 96 -298t264 -100q60 0 116.5 13t103.5 34q50 22 83.5 43t53.5 37h-3v-178q-25 -9 -72 -28t-82 -28q-52 -15 -93.5 -22t-104.5 -7q-249 0 -386 139.5t-137 397.5 zM226 628h580q-2 83 -17 136.5t-46 91.5q-32 42 -83 63.5t-125 21.5q-73 0 -124 -22.5t-94 -63.5q-42 -44 -63 -96t-28 -131zM237 1229l205 338h204l204 -338h-129l-180 249l-179 -249h-125z" />
<glyph unicode="&#xeb;" horiz-adv-x="1004" d="M66 513q0 255 133 405.5t346 150.5q97 0 171.5 -28t129.5 -87q56 -59 85.5 -145t29.5 -212v-87h-734q0 -198 96 -298t264 -100q60 0 116.5 13t103.5 34q50 22 83.5 43t53.5 37h-3v-178q-25 -9 -72 -28t-82 -28q-52 -15 -93.5 -22t-104.5 -7q-249 0 -386 139.5t-137 397.5 zM226 628h580q-2 83 -17 136.5t-46 91.5q-32 42 -83 63.5t-125 21.5q-73 0 -124 -22.5t-94 -63.5q-42 -44 -63 -96t-28 -131zM262 1236v165h171v-165h-171zM654 1236v165h170v-165h-170z" />
<glyph unicode="&#xec;" horiz-adv-x="428" d="M7 1567h205l160 -333h-121zM135 0v1039h159v-1039h-159z" />
<glyph unicode="&#xed;" horiz-adv-x="428" d="M116 1234l161 333h205l-245 -333h-121zM135 0v1039h159v-1039h-159z" />
<glyph unicode="&#xee;" horiz-adv-x="410" d="M-52 1229l155 338h203l156 -338h-121l-139 259l-136 -259h-118zM126 0v1039h158v-1039h-158z" />
<glyph unicode="&#xef;" horiz-adv-x="422" d="M-36 1236v165h159v-165h-159zM132 0v1039h158v-1039h-158zM300 1236v165h159v-165h-159z" />
<glyph unicode="&#xf0;" horiz-adv-x="1042" d="M55 448q0 215 126.5 335t301.5 120q92 0 161 -24t168 -88q-36 132 -100 236t-145 175l-247 -152l-51 77l228 137q-89 74 -159.5 110.5t-147.5 75.5v5h267q32 -25 72.5 -54t82.5 -62l200 122l51 -76l-182 -107q131 -131 214.5 -295t83.5 -390q0 -302 -126 -462t-344 -160 q-199 0 -326.5 121.5t-127.5 355.5zM220 446q0 -173 78.5 -259t211.5 -86q63 0 119.5 22t98.5 75q45 59 68.5 140t23.5 225q0 30 -1.5 56.5t-4.5 58.5q-75 48 -148.5 68t-151.5 20q-124 0 -209 -78.5t-85 -241.5z" />
<glyph unicode="&#xf1;" horiz-adv-x="1068" d="M132 0v1039h159v-130q93 84 169.5 122t160.5 38q152 0 238 -100t86 -292v-677h-160v592q0 74 -6.5 138.5t-28.5 103.5q-23 43 -64 64t-111 21q-68 0 -140 -36.5t-144 -97.5v-785h-159zM159 1247q6 133 69 204t154 71q46 0 85.5 -18t78.5 -52q41 -38 75 -58t64 -20 q52 0 74 45.5t24 106.5h113q-9 -134 -67 -204.5t-155 -70.5q-48 0 -88 17t-78 53q-43 40 -74 61t-65 21q-52 0 -72 -46t-24 -110h-114z" />
<glyph unicode="&#xf2;" horiz-adv-x="1036" d="M64 519q0 261 127.5 405.5t336.5 144.5t335.5 -144t126.5 -406q0 -264 -126.5 -406t-335.5 -142q-217 0 -340.5 147t-123.5 401zM228 519q0 -202 78 -308.5t222 -106.5q142 0 219.5 104.5t77.5 310.5q0 209 -77 312t-220 103q-144 0 -222 -103t-78 -312zM251 1567h205 l160 -333h-120z" />
<glyph unicode="&#xf3;" horiz-adv-x="1036" d="M64 519q0 261 127.5 405.5t336.5 144.5t335.5 -144t126.5 -406q0 -264 -126.5 -406t-335.5 -142q-217 0 -340.5 147t-123.5 401zM228 519q0 -202 78 -308.5t222 -106.5q142 0 219.5 104.5t77.5 310.5q0 209 -77 312t-220 103q-144 0 -222 -103t-78 -312zM438 1234 l160 333h205l-244 -333h-121z" />
<glyph unicode="&#xf4;" horiz-adv-x="1036" d="M64 519q0 261 127.5 405.5t336.5 144.5t335.5 -144t126.5 -406q0 -264 -126.5 -406t-335.5 -142q-217 0 -340.5 147t-123.5 401zM222 1229l205 338h205l203 -338h-128l-180 249l-180 -249h-125zM228 519q0 -202 78 -308.5t222 -106.5q142 0 219.5 104.5t77.5 310.5 q0 209 -77 312t-220 103q-144 0 -222 -103t-78 -312z" />
<glyph unicode="&#xf5;" horiz-adv-x="1036" d="M64 519q0 261 127.5 405.5t336.5 144.5t335.5 -144t126.5 -406q0 -264 -126.5 -406t-335.5 -142q-217 0 -340.5 147t-123.5 401zM159 1247q6 133 69 204t154 71q46 0 85.5 -18t78.5 -52q41 -38 75 -58t64 -20q52 0 74 45.5t24 106.5h113q-9 -134 -67 -204.5t-155 -70.5 q-48 0 -88 17t-78 53q-43 40 -74 61t-65 21q-52 0 -72 -46t-24 -110h-114zM228 519q0 -202 78 -308.5t222 -106.5q142 0 219.5 104.5t77.5 310.5q0 209 -77 312t-220 103q-144 0 -222 -103t-78 -312z" />
<glyph unicode="&#xf6;" horiz-adv-x="1036" d="M64 519q0 261 127.5 405.5t336.5 144.5t335.5 -144t126.5 -406q0 -264 -126.5 -406t-335.5 -142q-217 0 -340.5 147t-123.5 401zM228 519q0 -202 78 -308.5t222 -106.5q142 0 219.5 104.5t77.5 310.5q0 209 -77 312t-220 103q-144 0 -222 -103t-78 -312zM246 1236v165 h172v-165h-172zM638 1236v165h171v-165h-171z" />
<glyph unicode="&#xf7;" horiz-adv-x="1398" d="M152 542v151h1094v-151h-1094zM595 16v242h207v-242h-207zM595 959v240h207v-240h-207z" />
<glyph unicode="&#xf8;" horiz-adv-x="1027" d="M40 -139l153 238q-72 77 -109 180.5t-37 239.5q0 261 127 405t336 144q70 0 132 -19t123 -58l105 164h95l-139 -214q72 -78 109 -179.5t37 -242.5q0 -264 -126 -405.5t-336 -141.5q-73 0 -134.5 19t-123.5 58l-118 -188h-94zM208 519q0 -93 14 -163t50 -137l420 657 q-41 30 -84 44t-98 14q-144 0 -223 -105t-79 -310zM327 165q45 -33 85.5 -47t97.5 -14q143 0 222 104.5t79 310.5q0 94 -14 165.5t-49 135.5z" />
<glyph unicode="&#xf9;" horiz-adv-x="1068" d="M131 362v677h159v-593q0 -84 6 -141t28 -100q23 -44 63.5 -64t112.5 -20q68 0 143.5 38t141.5 95v785h159v-1039h-159v130q-97 -86 -170 -122.5t-162 -36.5q-67 0 -126 21.5t-103 69.5q-45 49 -69 122t-24 178zM271 1567h205l160 -333h-121z" />
<glyph unicode="&#xfa;" horiz-adv-x="1068" d="M131 362v677h159v-593q0 -84 6 -141t28 -100q23 -44 63.5 -64t112.5 -20q68 0 143.5 38t141.5 95v785h159v-1039h-159v130q-97 -86 -170 -122.5t-162 -36.5q-67 0 -126 21.5t-103 69.5q-45 49 -69 122t-24 178zM438 1234l160 333h205l-244 -333h-121z" />
<glyph unicode="&#xfb;" horiz-adv-x="1068" d="M131 362v677h159v-593q0 -84 6 -141t28 -100q23 -44 63.5 -64t112.5 -20q68 0 143.5 38t141.5 95v785h159v-1039h-159v130q-97 -86 -170 -122.5t-162 -36.5q-67 0 -126 21.5t-103 69.5q-45 49 -69 122t-24 178zM230 1229l205 338h204l204 -338h-128l-181 249l-179 -249 h-125z" />
<glyph unicode="&#xfc;" horiz-adv-x="1068" d="M131 362v677h159v-593q0 -84 6 -141t28 -100q23 -44 63.5 -64t112.5 -20q68 0 143.5 38t141.5 95v785h159v-1039h-159v130q-97 -86 -170 -122.5t-162 -36.5q-67 0 -126 21.5t-103 69.5q-45 49 -69 122t-24 178zM261 1236v165h171v-165h-171zM653 1236v165h170v-165h-170z " />
<glyph unicode="&#xfd;" horiz-adv-x="938" d="M19 1039h173l296 -802l294 802h164l-562 -1429h-168l185 432zM383 1234l160 333h205l-244 -333h-121z" />
<glyph unicode="&#xfe;" horiz-adv-x="1057" d="M132 -390v1845h159v-538q81 72 160 112t174 40q176 0 276 -141.5t100 -380.5q0 -262 -124.5 -415t-312.5 -153q-77 0 -137 17.5t-136 63.5v-450h-159zM291 182q76 -38 126.5 -50t116.5 -12q143 0 222 104t79 304q0 184 -59 287.5t-195 103.5q-78 0 -150 -34.5t-140 -91.5 v-611z" />
<glyph unicode="&#xff;" horiz-adv-x="938" d="M19 1039h173l296 -802l294 802h164l-562 -1429h-168l185 432zM218 1236v165h170v-165h-170zM609 1236v165h171v-165h-171z" />
<glyph unicode="&#x131;" horiz-adv-x="485" d="M18 691v42q209 65 246 170h45v-692q0 -163 96 -163h42v-48h-417v48h43q95 0 95 163v406q0 74 -105 74h-45z" />
<glyph unicode="&#x2c6;" horiz-adv-x="1052" d="M170 1117l283 436h145l284 -436h-70l-286 262l-286 -262h-70z" />
<glyph unicode="&#x2c7;" horiz-adv-x="1052" d="M170 1553h70l286 -262l286 262h70l-284 -436h-145z" />
<glyph unicode="&#x2c9;" horiz-adv-x="1052" d="M261 1199v159h531v-159h-531z" />
<glyph unicode="&#x2d8;" horiz-adv-x="1052" d="M225 1457h62q19 -94 88.5 -138t198.5 -44q128 0 196.5 43.5t88.5 138.5h61q-24 -170 -112.5 -259t-233.5 -89q-146 0 -235.5 89t-113.5 259z" />
<glyph unicode="&#x2d9;" horiz-adv-x="1052" d="M367 1309q0 7 4.5 15.5t13.5 15.5l87 94q8 7 17 10.5t18 3.5q8 0 16 -3.5t16 -10.5l91 -97q5 -7 8.5 -14t3.5 -17q-2 -11 -5 -19t-10 -16l-92 -97q-14 -13 -19 -16t-9 -3q-12 0 -20.5 3t-14.5 11l-95 110q-4 5 -7 12t-3 18z" />
<glyph unicode="&#x2da;" horiz-adv-x="966" d="M250 1239q0 93 63 156.5t155 63.5q95 0 159 -64t64 -156q0 -93 -63.5 -157t-159.5 -64q-92 0 -155 64t-63 157zM344 1239q0 -52 36 -88t88 -36q53 0 88.5 36t35.5 88q0 50 -36.5 86.5t-87.5 36.5t-87.5 -36.5t-36.5 -86.5z" />
<glyph unicode="&#x2db;" horiz-adv-x="966" d="M254 -334q0 87 68.5 179t185.5 155h56q-81 -71 -127 -136.5t-46 -128.5q0 -55 31.5 -86.5t84.5 -31.5q45 0 78 18t58 56l31 -18q-41 -73 -103 -112t-137 -39q-79 0 -129.5 41t-50.5 103z" />
<glyph unicode="&#x2dc;" horiz-adv-x="1052" d="M192 1119q23 152 79 227.5t151 75.5q54 -2 132 -35q74 -31 131 -31h4q42 0 67.5 27t42.5 94h63q-22 -148 -79 -220.5t-149 -72.5h-5q-58 0 -132 32q-77 35 -133 35q-45 0 -70 -28.5t-39 -103.5h-63z" />
<glyph unicode="&#x2dd;" horiz-adv-x="1052" d="M147 1090l196 371q33 61 62 85.5t62 24.5q39 0 66.5 -26t27.5 -63q0 -22 -14.5 -48.5t-41.5 -55.5l-278 -288h-80zM516 1090l196 371q31 61 60.5 85.5t63.5 24.5q38 0 65.5 -26t27.5 -63q0 -22 -15 -48.5t-42 -55.5l-278 -288h-78z" />
<glyph unicode="&#xe01;" horiz-adv-x="1270" d="M113 601l2 35q31 121 140 218q155 136 397 136q487 0 487 -418v-513q0 -60 -77 -60t-78 60v535q0 154 -94 215t-254 61q-95 0 -163 -24q-177 -62 -221 -202q30 -14 54.5 -24.5t55.5 -28.5q22 20 43 40t35.5 29t26.5 9q16 0 51 -38l11 -19q9 -16 9 -26q0 -15 -17 -23 q-41 -21 -66 -73t-25 -97v-335q0 -55 -79 -59q-73 0 -73 55q-4 81 -4 166q0 49 4 180q2 56 28 96q-76 34 -107.5 49.5t-49.5 20.5l-21 16q-15 7 -15 19z" />
<glyph unicode="&#xe02;" horiz-adv-x="1140" d="M67 785q0 45 31 103t66 73.5t59.5 25t60.5 13.5t66 4q166 0 254 -101q65 -75 65 -166q0 -129 -136 -251q-92 -91 -92 -194q0 -22 9 -59t55.5 -71.5t118.5 -34.5q121 0 169.5 43t48.5 126v639q0 63 76 63q79 0 79 -63v-639q-12 -185 -114 -251q-83 -55 -259 -55 q-157 0 -248.5 72.5t-94.5 196.5v22q0 104 79 197q13 15 97 84q98 82 99 179q0 55 -90 139q5 -41 5 -74q0 -104 -73 -158q-55 -40 -133 -40q-86 0 -144 56q-54 50 -54 121zM167 792q0 -34 27 -60.5t71 -26.5q61 0 95 38q26 31 26 66q0 31 -21.5 59.5t-69.5 28.5 q-25 0 -51 -14q-43 -10 -60 -39t-17 -52z" />
<glyph unicode="&#xe03;" horiz-adv-x="1220" d="M71 716q0 152 127 229q75 45 156 45q30 0 70.5 -11t91.5 -90q0 45 8 56t29 24t44.5 17t36.5 4q54 0 109 -29q99 -53 100 -186q0 -79 -34.5 -138t-123 -133.5t-115.5 -121.5t-27 -103q0 -50 36.5 -100t137.5 -50l21 1q124 0 174 67q28 39 29 110v619q0 61 76 60 q77 0 77 -60v-619q0 -136 -88.5 -226.5t-272.5 -90.5q-163 0 -254 82q-87 78 -94 201v9q0 174 206 315q71 58 100.5 102.5t29.5 85.5q0 38 -29 67q-23 11 -47 11q-73 0 -73 -65q-1 -12 -17.5 -22.5t-41.5 -10.5q-46 0 -54 37.5t-42.5 55t-74.5 17.5q-42 0 -78 -18t-52 -85 q48 17 80 17q58 0 105 -37.5t47 -101.5q0 -58 -47 -98t-119 -40q-108 0 -166 65q-41 44 -41 139zM187 652q0 -31 28 -51.5t69 -20.5q40 0 68.5 19t28.5 53q0 78 -97 78q-41 0 -69 -20t-28 -58z" />
<glyph unicode="&#xe04;" horiz-adv-x="1211" d="M113 57v476q0 213 130 335t373 122q225 0 351 -128q44 -39 81 -120t37 -209v-476q0 -60 -77 -60t-77 60v479q0 169 -86 248q-79 70 -229 70q-162 0 -255.5 -77t-93.5 -244v-68q49 50 81.5 84.5t74 63t89 49.5t104.5 21q85 0 144 -54.5t59 -127.5q0 -75 -58.5 -128.5 t-144.5 -53.5q-120 0 -189 121q-160 -139 -160 -336v-47q0 -60 -79 -60q-29 0 -52 15t-23 45zM511 501q0 -36 31.5 -62t73.5 -26q39 0 71.5 25.5t32.5 62.5q0 36 -32.5 62.5t-71.5 26.5q-43 0 -74 -27t-31 -62z" />
<glyph unicode="&#xe05;" horiz-adv-x="1207" d="M113 57v595q0 313 313 344q31 0 47 -17.5t36 -41.5q64 -76 127 -76q41 0 69 16.5t65 56.5q44 57 77 57q14 0 30 -5q20 -6 56 -16t71 -32t60 -60t25 -95v-726q0 -60 -77 -60t-77 60v747q0 17 -12.5 28t-53.5 27q-102 -123 -230 -123q-79 0 -148 45q-52 32 -81 74 q-88 -14 -115.5 -68.5t-27.5 -134.5v-209q81 104 140 143q124 80 213 82q68 0 134.5 -49.5t66.5 -132.5q0 -78 -59.5 -131.5t-143.5 -53.5q-133 0 -190 108q-59 -23 -110 -128.5t-51 -181.5v-42q0 -60 -77 -60t-77 60zM510 486q0 -44 32 -69.5t76 -25.5q42 0 73 25.5 t31 69.5q0 33 -31 60.5t-73 27.5q-45 0 -76.5 -27t-31.5 -61z" />
<glyph unicode="&#xe06;" horiz-adv-x="1347" d="M83 726q0 135 113 212q65 46 146 45q99 0 140 -59q0 -29 7 -30q5 0 21 27q40 63 117 62q88 0 145.5 -60.5t57.5 -145.5q0 -51 -17 -87t-52 -65q-86 -78 -108 -115.5t-22 -73.5v-70q24 -16 46.5 -36t50.5 -43q22 -15 52 -42.5t62.5 -51t61 -42.5t51.5 -21q6 0 17 -3t17 -3 q14 0 33.5 9t37 36t17.5 89v655q0 58 77 58q71 0 71 -58v-655q0 -132 -67 -208q-57 -67 -156 -67q-88 0 -177.5 52t-194.5 158q-21 -99 -75 -153q-50 -50 -143 -50h-14q-76 1 -138 66.5t-62 163.5q0 122 83 190q60 51 128 50q36 0 80 -14q9 80 25 120.5t60 71.5 q97 75 110 108.5t13 48.5q0 17 -10.5 35t-28 27t-34.5 9q-58 0 -58 -77v-6q0 -8 -18 -20t-40 -12q-43 0 -54 41q-5 33 -40.5 57.5t-67.5 24.5l-16 -1q-80 -11 -90 -93q33 6 60 6q66 0 109.5 -35.5t43.5 -103.5q0 -55 -46 -96.5t-117 -41.5q-49 0 -106 29q-48 24 -74.5 76 t-26.5 112zM191 647q0 -32 28.5 -53t70.5 -21q44 0 72 20.5t28 53.5q0 80 -100 80q-43 0 -71 -23t-28 -57zM326 218q0 -32 20.5 -68.5t71.5 -36.5q79 0 88 105q0 118 -86 118q-93 0 -94 -118z" />
<glyph unicode="&#xe07;" horiz-adv-x="973" d="M69 523v13q0 56 74 56q80 -2 80 -60l-1 -20q0 -122 106 -252q96 -122 211 -122q90 0 125 46.5t35 149.5v286q-46 -9 -83 -9q-79 0 -137 54t-58 130q0 78 61 131.5t147 53.5q131 0 189 -79q32 -47 33 -140v-427q0 -197 -115 -288q-65 -54 -160 -54q-80 0 -136 21 q-168 66 -269.5 208t-101.5 302zM521 795q0 -36 31 -63t77 -27q42 0 73 26.5t31 63.5q0 41 -31.5 66.5t-72.5 25.5q-46 0 -77 -26t-31 -66z" />
<glyph unicode="&#xe08;" horiz-adv-x="1139" d="M72 652l1 19q51 149 181 233t328 84q450 0 450 -376l-3 -410q0 -198 -197 -207l-27 -1q-179 0 -204 155l-30 205q-27 -42 -53.5 -48t-50.5 -6q-83 0 -142.5 53t-59.5 131q0 71 59.5 125.5t142.5 54.5q203 0 227 -182l6 -58q6 -33 11.5 -85t22.5 -143q9 -72 72 -76l14 -1 q33 0 45.5 30t12.5 53v377q0 144 -52 201q-69 74 -246 74q-164 0 -269 -77q-71 -55 -94 -139q-10 -48 -71 -48l-17 1q-4 1 -18.5 6.5t-26.5 21t-12 33.5zM361 484q0 -44 32 -69.5t74 -25.5t75 25.5t33 69.5q0 34 -32.5 60.5t-75.5 26.5q-42 0 -74 -26.5t-32 -60.5z" />
<glyph unicode="&#xe09;" horiz-adv-x="1302" d="M67 749q0 27 39 70q159 170 506 171q267 0 377 -105t110 -323v-159q116 -64 116 -203q0 -88 -57 -150.5t-135 -62.5q-149 0 -204 145q-68 -66 -128 -105.5t-131 -39.5q-125 0 -175.5 65.5t-52.5 210.5q-40 -8 -52 -9q-87 0 -148.5 56.5t-61.5 133.5q0 75 61.5 131 t148.5 56q94 0 154 -60q54 -56 54 -120v-218q0 -70 19.5 -86.5t38.5 -16.5q23 0 67.5 22t147.5 121q39 34 82 73t102 63v153q0 142 -73 217t-260 75q-171 0 -299 -56q-74 -34 -99 -75q-24 -35 -69 -36q-25 0 -51.5 18t-26.5 44zM173 444q0 -40 30 -64t77 -24q43 0 74.5 24 t31.5 64t-32 65.5t-74 25.5q-48 0 -77.5 -25.5t-29.5 -65.5zM940 200q0 -38 22.5 -69t60.5 -31q39 0 63.5 31t24.5 69q0 42 -24.5 74t-63.5 32t-61 -33t-22 -73z" />
<glyph unicode="&#xe0a;" horiz-adv-x="1113" d="M67 777q0 42 29 98.5t108 86.5q1 0 31 9t59 10.5t44 1.5q114 0 187 -40q93 -49 131 -149q80 62 172 142q76 66 107 119q6 29 18 38.5t30 9.5q22 0 43.5 -6.5t36.5 -18t15 -41.5q0 -39 -51 -94.5t-127 -112.5q-42 -31 -85 -81q166 -54 166 -206v-270q0 -210 -160 -264 q-56 -19 -201 -19q-152 0 -246 69.5t-94 210.5q0 108 82 203q15 18 82 73q104 87 104 172q0 65 -99 156q21 -78 21 -116q0 -42 -24.5 -73t-77.5 -60q-42 -24 -106 -25q-85 0 -143 54q-52 48 -52 123zM163 779q0 -34 27 -60.5t68 -26.5q62 0 94 39q27 30 27 68 q0 33 -23.5 57.5t-73.5 24.5q-47 0 -83 -31t-36 -71zM441 293q0 -24 10 -61.5t57.5 -72.5t118.5 -35q121 0 165.5 44.5t44.5 125.5v235q-6 125 -159 183q-12 -64 -48 -117t-99 -111q-90 -89 -90 -191z" />
<glyph unicode="&#xe0b;" horiz-adv-x="1229" d="M71 712q0 147 127 228q70 45 155 44q31 0 71.5 -10t49.5 -25q54 0 54.5 1t22 13.5t44.5 16.5t35 4q74 0 144 -53q47 -36 74 -122q161 161 206 253q0 19 15 32.5t39 13.5q18 0 39.5 -7t35.5 -20.5t14 -50.5l-1 -10q-19 -57 -85.5 -129.5t-147.5 -149.5q74 -33 103.5 -81 t29.5 -124v-249q0 -161 -79 -229t-288 -68q-160 0 -251 80t-93 204l-1 18q0 151 202 303q72 58 99.5 98.5t27.5 80.5q0 39 -33 66q-9 4 -21.5 10.5t-24.5 6.5q-63 0 -63 -64q0 -10 -17.5 -21t-42.5 -11q-44 0 -50.5 36t-39 53.5t-79.5 17.5q-109 0 -122 -103q43 19 77 20 q57 0 101 -37t44 -101q0 -57 -47 -97.5t-115 -40.5q-111 0 -169 66q-40 43 -40 137zM181 644q0 -34 29 -53.5t68 -19.5q41 0 69 19t28 54q0 78 -97 78q-40 0 -68.5 -21t-28.5 -57zM541 279q0 -52 39 -104.5t143 -52.5h10q74 0 121.5 20t67.5 52t20 108v227q0 96 -116 155 q-16 -53 -49.5 -94.5t-91.5 -88.5q-93 -78 -118.5 -123.5t-25.5 -98.5z" />
<glyph unicode="&#xe0c;" horiz-adv-x="1785" d="M113 597q0 50 39 123q67 124 194.5 196t301.5 72q488 0 488 -416v-247q60 -77 139.5 -136t132.5 -59q47 0 77.5 30t30.5 117v660q0 21 21.5 36t56.5 15q78 0 78 -58v-653q0 -165 -94 -238q-61 -47 -170 -47q-112 0 -262 139q-64 -141 -206 -141q-79 0 -134 60 q-59 63 -59 154q0 90 57.5 151.5t135.5 61.5h40v177q0 274 -345 274q-159 0 -270 -76q-85 -61 -114 -148q29 -16 54 -27t55 -28l83 72q12 8 22 8q7 0 18 -8.5t32.5 -32.5t21.5 -40q0 -14 -20 -27q-90 -84 -90 -177q0 -19 3 -41h35q74 0 127.5 -52t53.5 -123 q0 -75 -53.5 -126.5t-127.5 -51.5q-42 0 -77.5 14.5t-62 47.5t-38.5 68t-12 121q0 157 5 180q8 41 43 79q-85 30 -119.5 47t-53.5 23l-22 12q-15 5 -15 15zM367 168q0 -40 28 -63.5t70 -23.5q41 0 68 24t27 63q0 32 -27 58t-68 26q-42 0 -70 -25t-28 -59zM856 204 q0 -42 24.5 -72t59.5 -30q39 0 64.5 30t25.5 72q0 40 -26 71.5t-64 31.5q-35 0 -59.5 -32t-24.5 -71z" />
<glyph unicode="&#xe0d;" horiz-adv-x="1822" d="M115 611l2 33q41 150 181.5 251t337.5 101q251 0 363 -110t112 -295l-1 -229q0 -127 43 -167q48 -49 178 -49q134 0 178.5 50t44.5 167v574q0 63 73 63q32 0 54.5 -17.5t22.5 -45.5v-574q0 -187 -85.5 -265t-287.5 -78q-215 0 -297 87q-72 76 -72 256v249q0 263 -338 263 q-98 0 -167 -25q-162 -59 -208 -196q48 -18 105 -50q23 17 44.5 37t35.5 28t25 8t29 -14q36 -31 36 -60q0 -16 -16 -28q-47 -40 -67.5 -76t-20.5 -81q0 -21 5 -47h32q72 0 124.5 -51.5t52.5 -121.5q0 -73 -52.5 -122t-124.5 -49q-78 0 -128.5 52t-54.5 124q-2 34 -2 136 l2 76q0 55 49 99q-86 31 -120.5 46t-52.5 22l-21 10q-14 7 -14 19zM362 198q0 -36 27.5 -61.5t67.5 -25.5q41 0 68.5 25t27.5 62q0 36 -28 59t-68 23t-67.5 -23t-27.5 -59zM960 -218q0 66 50 114t127 48t128.5 -48t51.5 -114q0 -50 -50 -118q176 7 252 60t76 147l-1 24 q0 30 62 35l12 1q44 0 45 -43v-8q0 -96 -53 -169.5t-165 -108.5t-217 -35q-23 0 -79 5.5t-115 35t-91.5 74.5t-32.5 100zM1039 -218q0 -41 32 -62t66 -21q44 0 71 25t27 58q0 31 -27.5 56.5t-70.5 25.5q-36 0 -67 -25t-31 -57z" />
<glyph unicode="&#xe0e;" horiz-adv-x="1253" d="M63 202q0 68 54.5 119.5t135.5 51.5q21 0 51 -11v56q2 10 6 41.5t30 55.5q-77 35 -110 49.5t-45 22.5q-17 10 -23 11q-16 11 -16 26q0 46 35 113q61 118 190 191t296 73q479 0 479 -409v-837q0 -40 -88 -138q-84 -93 -123 -94q-7 0 -11.5 3.5t-33.5 20.5t-68 42t-79 46.5 t-80 34.5q-60 -140 -189 -151l-29 -2q-89 0 -148.5 49t-59.5 118q0 72 59 119.5t149 47.5q62 0 126 -29v88q0 41 56 40q62 0 61 -37q6 -25 6 -134q115 -48 222 -117q53 42 80 91v867q0 262 -340 262q-151 0 -264 -75q-76 -51 -112 -145q29 -15 55 -26t53 -26q55 51 72 63 t29 12q11 0 23 -10q9 -9 20 -19t20 -27t9 -26q0 -14 -16 -21q-43 -17 -67 -69t-24 -93v-208q0 -111 -79 -152q-59 -30 -122 -31q-81 0 -135.5 50.5t-54.5 122.5zM150 202q0 -36 31 -61.5t72 -25.5q40 0 70.5 25t30.5 62q0 38 -30.5 60t-70.5 22t-71.5 -22.5t-31.5 -59.5z M336 -316q0 -33 29.5 -58.5t79.5 -25.5q44 0 75.5 24.5t31.5 59.5q0 36 -31.5 61t-75.5 25q-50 0 -79.5 -25t-29.5 -61z" />
<glyph unicode="&#xe0f;" horiz-adv-x="1241" d="M63 194q0 66 53.5 117.5t130.5 51.5q20 0 51 -10q4 29 4 53q0 64 30 100q-73 32 -104 46t-46 23t-22 10q-15 10 -15 20q0 55 46 133q69 123 222 195q103 49 248 48q470 0 470 -402v-828q0 -48 -61 -125.5t-66 -81.5q-17 -7 -29 -13.5t-21 -6.5q-10 0 -21 9 q-85 63 -145 140q-93 -132 -131 -132q-20 0 -34.5 10t-38 37t-66.5 58q-74 -129 -210 -129q-85 0 -145.5 48.5t-60.5 116.5q0 71 60.5 118t145.5 47q59 0 129 -28v89q0 41 54 40q64 0 64 -39q4 -23 4 -75l-2 -81q51 -29 102 -79q50 27 90 102q17 20 32 20q14 0 31 -15 q30 -45 65 -76q14 -13 51 -32q47 32 53 65v862q0 266 -333 266q-163 0 -262 -74q-79 -60 -109 -143q28 -17 53.5 -27t53.5 -28q27 32 57 54t46 22q11 0 46 -39q20 -15 21 -39q0 -14 -17 -21q-44 -23 -66.5 -75t-22.5 -90v-202q0 -69 -28.5 -107t-80 -56.5t-92.5 -18.5 q-77 0 -130.5 50.5t-53.5 121.5zM150 194q0 -38 28.5 -61.5t68.5 -23.5q44 0 73 23.5t29 61.5q0 35 -29 58.5t-73 23.5q-40 0 -68.5 -23.5t-28.5 -58.5zM204 -318q0 -34 29.5 -58t74.5 -24q47 0 77.5 23.5t30.5 58.5q0 38 -30.5 60.5t-77.5 22.5q-45 0 -74.5 -23t-29.5 -60z " />
<glyph unicode="&#xe10;" horiz-adv-x="1140" d="M75 -338q0 62 53 105t132 43q40 0 58 -8.5t48 -15.5q5 16 6.5 31.5t1.5 36.5t4 25q8 7 60 7q24 0 36 -4t12 -23q0 -77 -16 -143q23 -22 40.5 -40.5t47.5 -50.5q35 35 49 56q8 10 13 10q16 0 32 -24q5 0 14 -10q12 -20 46 -48.5t67 -38.5l7 -1q27 0 57.5 42.5t39.5 115.5 q-43 -16 -81 -16q-66 0 -112.5 37.5t-46.5 94.5q0 53 46.5 91t112.5 38q50 0 93 -22t64 -65.5t21 -115.5q0 -119 -50 -190q-55 -77 -132 -77q-16 0 -57 8.5t-108 84.5q-23 -27 -35 -34.5t-23 -21.5q-23 -21 -31 -22q-5 0 -16 11q-30 24 -94 93q-66 -103 -174 -104 q-78 0 -131.5 43.5t-53.5 101.5zM83 722q0 53 41 100q61 81 179.5 132.5t256.5 51.5q216 0 356 -79q51 -28 81 -60t30 -65q0 -13 -29 -33.5t-47 -20.5q-17 0 -53 35q-45 44 -137 77.5t-202 33.5q-103 0 -234 -57q-107 -50 -107 -99l1 -9q7 -30 44 -30q26 0 148 22 q77 13 175 13q68 0 145 -17.5t127 -48t81.5 -81t31.5 -121.5v-230q-2 -95 -70 -160t-174 -65q-76 0 -139 27q-96 40 -107 127q-2 14 -15 42q-61 -32 -111 -33q-81 0 -139 53t-58 124q0 73 58 123.5t139 50.5q111 0 167 -60q32 -36 53 -103l52 -185q18 -47 50.5 -51.5 t53.5 -4.5l19 1q83 6 83 85v246q0 84 -55.5 122.5t-170.5 38.5q-41 0 -187 -12q-81 -13 -147 -13q-63 0 -96 8q-43 12 -68.5 45t-25.5 80zM161 -338q0 -30 31.5 -51.5t67.5 -21.5q40 0 68.5 21.5t28.5 51.5q0 38 -29.5 57.5t-67.5 19.5q-35 0 -67 -19.5t-32 -57.5zM251 351 q0 -40 31 -63.5t73 -23.5t71.5 23.5t29.5 63.5q0 38 -30 64t-71 26q-42 0 -73 -26t-31 -64zM714 -157q0 -34 27 -52.5t61 -18.5q39 0 66.5 18t27.5 53q0 28 -28 49.5t-66 21.5q-35 0 -61.5 -21.5t-26.5 -49.5z" />
<glyph unicode="&#xe11;" horiz-adv-x="1461" d="M65 734q0 140 108 215q63 44 136 44q87 0 137 -70q65 70 132 70q63 0 109 -29q41 -26 64.5 -68.5t23.5 -94.5q0 -34 -14 -75q-17 -50 -48.5 -81t-64.5 -62t-59.5 -73.5t-26.5 -120.5l-3 -197q0 -30 -19 -31q-4 0 -19 5l-16 5q96 -24 124 -24q26 0 51.5 34t65.5 176 q15 34 28 81q35 139 102 298q56 131 119 190.5t152 59.5q100 0 155 -67.5t55 -169.5v-690q0 -58 -78 -58q-76 0 -76 58v690q0 85 -56 85q-35 0 -61 -35q-77 -97 -165 -407q-53 -173 -77 -227q-41 -94 -100.5 -134.5t-144.5 -40.5q-66 0 -117 42q-74 60 -74 160v188 q0 69 39.5 143.5t102.5 116.5q108 76 108 151q0 38 -22 61q-29 29 -66 29q-83 0 -83 -63v-10q0 -35 -33 -35q-20 0 -28 13t-8 21q-3 38 -39 57.5t-77 19.5q-68 0 -101 -31.5t-44 -98.5q50 32 103 33q151 0 158 -134v-6q0 -53 -48.5 -92.5t-120.5 -39.5q-91 0 -146 77 q-39 51 -38 142zM158 654q0 -33 29 -53.5t70 -20.5q39 0 66.5 20t27.5 54q0 78 -94 78q-41 0 -70 -21t-29 -57z" />
<glyph unicode="&#xe12;" horiz-adv-x="1845" d="M113 386v256q0 156 85.5 251.5t236.5 106.5l32 1q17 0 32 -17q86 -97 178 -97q50 0 74 10q49 19 108 89q9 12 24 13q15 0 41 -8q266 -63 265 -206v-449q171 -196 268 -196q59 0 87 36t28 112v645q0 28 21.5 46.5t56.5 18.5q30 0 53.5 -17t23.5 -48v-645q0 -285 -270 -285 q-68 0 -132 46.5t-139 111.5q-25 -80 -62.5 -123t-119.5 -43q-78 0 -129 61q-56 67 -56 152q0 93 58 159q52 61 127 61h31v368q-7 6 -30 25t-85 39q-117 -101 -242 -102q-67 0 -136 26.5t-107 72.5q-151 -15 -168 -203v-268q0 -151 42 -214q31 -45 100 -52l26 -2 q143 0 194 228q-29 -5 -47 -5q-77 0 -131.5 48.5t-54.5 119.5q0 68 54.5 117t131.5 49q82 0 137.5 -56t55.5 -170q0 -170 -100 -314.5t-241 -144.5q-152 0 -225 78q-96 101 -96 318zM483 509q0 -34 28.5 -60t70.5 -26q43 0 69 26.5t26 59.5q0 31 -26 57t-69 26 q-42 0 -70.5 -26t-28.5 -57zM917 204q0 -39 24 -70.5t59 -31.5q38 0 60 32t22 70q0 41 -22.5 72t-59.5 31q-35 0 -59 -31t-24 -72z" />
<glyph unicode="&#xe13;" horiz-adv-x="2036" d="M115 590l2 35q41 147 181.5 251.5t350.5 104.5q490 0 490 -419l-1 -275q0 -72 19.5 -106.5t91.5 -40.5h13q68 0 136.5 37t124.5 89t91.5 103.5t37.5 65.5v484q0 60 80 59q75 0 75 -59v-526q53 0 88.5 -64.5t35.5 -128.5q0 -90 -57 -151.5t-137 -61.5q-162 0 -188 151 q-70 -70 -155 -113q-81 -41 -144 -41q-136 0 -202 79.5t-66 223.5v298q0 153 -93 215t-251 62q-160 0 -273 -79q-79 -58 -115 -149q57 -18 112 -52q49 48 73 63.5t42 15.5q24 0 56 -48q7 -12 7 -21q0 -19 -19 -40q-92 -64 -92 -155q0 -23 6 -51h32q76 0 129.5 -53.5 t53.5 -127.5q0 -72 -53.5 -123.5t-129.5 -51.5q-82 0 -133.5 54t-55.5 129q-2 30 -2 137l2 75q0 61 50 107q-140 52 -178 71l-21 8q-14 8 -14 19zM366 165q0 -38 29.5 -62t71.5 -24q41 0 69.5 24.5t28.5 61.5q0 36 -28.5 61.5t-69.5 25.5q-42 0 -71.5 -25t-29.5 -62z M1650 200q0 -40 24 -70t63 -30q35 0 59 30t24 70q0 39 -20.5 71t-62.5 32q-39 0 -63 -30t-24 -73z" />
<glyph unicode="&#xe14;" horiz-adv-x="1245" d="M89 472q6 232 150 380.5t381 148.5q236 0 377 -123.5t141 -330.5v-488q0 -60 -78 -60q-72 0 -71 60v488q0 149 -98.5 232t-270.5 83q-198 0 -299 -132q-83 -111 -83 -277v-27q9 -142 73 -223t172 -81q223 0 230 213q-51 -25 -95 -26q-87 0 -144.5 53t-57.5 130 q0 74 57.5 128.5t144.5 54.5q71 0 134 -49q68 -55 97 -155q8 -27 8 -100q0 -91 -38 -176.5t-122.5 -145t-213.5 -59.5q-180 0 -287 127t-107 355zM511 492q0 -40 31.5 -64t75.5 -24t75 24t31 64q0 38 -31 63.5t-75 25.5t-75.5 -26t-31.5 -63z" />
<glyph unicode="&#xe15;" horiz-adv-x="1255" d="M113 381v263q0 145 92 246q84 92 207 108q52 0 69.5 -11.5t43.5 -36.5q55 -54 135 -54q40 0 69 13t68 40q33 32 54.5 41.5t46.5 9.5q81 -7 157 -72q66 -59 66 -143v-724q0 -60 -77 -60q-75 0 -75 60v715q0 55 -78 85q-111 -102 -231 -103q-63 0 -126 26t-105 73 q-68 -7 -116 -61.5t-48 -141.5v-273q0 -197 106 -244q48 -22 102 -22q62 0 133 39q81 45 81 134l-1 23q-55 -18 -92 -18q-85 0 -144 53.5t-59 127.5q0 78 59 132t144 54q72 0 123 -27q71 -42 94.5 -107.5t23.5 -157.5q0 -137 -62 -228q-107 -150 -306 -150q-162 0 -244 79 q-111 104 -110 312zM489 474q0 -39 29.5 -64t75.5 -25q45 0 77 25.5t32 63.5q0 42 -32 67t-77 25q-46 0 -75.5 -25t-29.5 -67z" />
<glyph unicode="&#xe16;" horiz-adv-x="1267" d="M113 595l3 39q39 148 185 255t354 107q497 0 497 -427v-518q0 -61 -80 -61q-79 0 -79 61v543q0 276 -348 276q-164 0 -276 -76q-86 -59 -114 -149q27 -17 53.5 -28t55.5 -31q50 49 72 65.5t36 16.5t51 -40l10 -18q11 -17 11 -29q0 -15 -17 -20q-42 -23 -68 -74.5 t-26 -98.5v-54q33 13 64 13q79 0 132 -57t53 -122q0 -43 -19 -78q-55 -100 -166 -100q-112 0 -172 74q-53 68 -52 189q0 146 12.5 178t41.5 68q-148 53 -177 66l-20 10q-17 10 -17 20zM392 168q0 -41 30.5 -65t74.5 -24q40 0 68.5 24.5t28.5 64.5q0 36 -29 61t-68 25 q-44 0 -74.5 -24.5t-30.5 -61.5z" />
<glyph unicode="&#xe17;" horiz-adv-x="1346" d="M67 802q0 79 60.5 132.5t143.5 53.5q225 0 225 -219v-332q59 179 123 287q52 85 117 153t119 87t109 19q104 0 177 -75.5t73 -206.5v-657q-1 -57 -81 -57q-72 0 -71 63v647q0 70 -34 108t-85 38q-96 0 -207 -176q-187 -301 -240 -615q0 -62 -73 -62q-78 0 -78 61l-2 589 q-45 -21 -84 -22q-62 0 -115 38q-77 56 -77 146zM165 802q0 -41 33.5 -65.5t72.5 -24.5q47 0 79.5 24.5t32.5 65.5q0 39 -33 66.5t-79 27.5q-39 0 -72.5 -28t-33.5 -66z" />
<glyph unicode="&#xe18;" horiz-adv-x="1179" d="M95 690q0 68 51 132q62 78 181 128.5t268 50.5q286 0 423 -114q62 -54 62 -104q0 -24 -21.5 -41t-44.5 -17q-26 0 -78 51q-80 82 -348 82q-141 0 -245 -52t-104 -101v-6q6 -49 54 -49q43 0 152 21q77 13 152 13q162 0 297 -56q67 -30 102.5 -88.5t35.5 -129.5v-143 q-4 -277 -433 -277q-203 0 -301 53q-128 67 -128 232v104q0 60 76 60q75 0 75 -56v-95q0 -100 85 -135q76 -31 193 -31q130 0 204.5 40.5t74.5 143.5v94q0 78 -48.5 110t-98 36.5t-79.5 4.5q-43 0 -105 -7q-195 -21 -235 -21q-134 0 -180 62q-36 47 -37 105z" />
<glyph unicode="&#xe19;" horiz-adv-x="1482" d="M67 797q0 76 57.5 129.5t144.5 53.5q119 0 172 -64q47 -57 47 -153v-410q0 -121 72 -174q52 -38 171 -37q115 0 171 38t80 88t40 101t58 86v467q0 60 77 59q76 0 76 -59v-446q46 0 62 -9q66 -33 85 -135q7 -46 7 -106q0 -92 -52 -164t-142 -72q-70 0 -111 30t-76 103 q-25 -26 -43 -47q-72 -86 -232 -86q-389 0 -389 363v283q-49 -22 -89 -23q-66 0 -126 50t-60 134zM162 797q0 -39 32.5 -64.5t74.5 -25.5q44 0 76 25.5t32 64.5q0 40 -32.5 65t-75.5 25q-42 0 -74.5 -25.5t-32.5 -64.5zM1094 233q0 -29 7 -48q25 -72 88 -76q42 0 67.5 35 t25.5 87q0 126 -98 126q-41 0 -65.5 -33.5t-24.5 -90.5z" />
<glyph unicode="&#xe1a;" horiz-adv-x="1331" d="M67 802q0 79 59.5 132.5t144.5 53.5q129 0 178 -63q43 -53 43 -156q0 -150 3 -230t3 -119v-57q0 -131 63 -179t209 -48q171 0 226.5 51.5t55.5 182.5v556q0 29 23 43.5t54 14.5q79 0 80 -58v-556q0 -204 -104.5 -292t-334.5 -88q-216 0 -321.5 89t-105.5 291v270 q-47 -21 -85 -22q-61 0 -115 38q-76 57 -76 146zM165 802q0 -41 32 -65.5t74 -24.5q43 0 76.5 24.5t33.5 65.5q0 39 -33.5 67.5t-76.5 28.5t-74.5 -29t-31.5 -67z" />
<glyph unicode="&#xe1b;" horiz-adv-x="1300" d="M67 795q0 78 57.5 131.5t144.5 53.5q122 0 177 -64q42 -49 42 -155q0 -147 2 -226.5t2 -119.5v-53q0 -130 63.5 -181.5t206.5 -51.5q169 0 225.5 54t56.5 182v876q0 58 74 58q79 0 79 -58v-876q0 -202 -103 -288.5t-332 -86.5q-216 0 -318 88t-102 287v264 q-47 -16 -85 -17q-73 0 -131.5 50.5t-58.5 132.5zM162 795q0 -39 32.5 -64.5t74.5 -25.5q44 0 76 25.5t32 64.5q0 42 -32.5 67t-75.5 25q-42 0 -74.5 -25.5t-32.5 -66.5z" />
<glyph unicode="&#xe1c;" horiz-adv-x="1282" d="M113 292v469q0 223 234 223q86 0 148 -53.5t62 -131.5q0 -76 -62 -130.5t-148 -54.5q-33 0 -82 21v-350q0 -161 124 -161q107 0 147 94q11 25 20 95v196q0 32 23.5 53.5t55.5 21.5q31 0 53 -20t22 -55q21 -378 21 -419q-1 0 -5 35t-4 78q0 24 4 24q3 0 12.5 -21 t42.5 -52.5t93 -31.5q54 0 91.5 33.5t37.5 136.5v632q0 58 77 57q75 0 75 -57v-632q0 -302 -281 -302q-149 0 -238 147q-96 -147 -244 -147q-280 0 -279 302zM243 799q0 -41 31.5 -65.5t72.5 -24.5q47 0 77.5 24.5t30.5 65.5q0 39 -31 66t-77 27q-42 0 -73 -27.5t-31 -65.5z " />
<glyph unicode="&#xe1d;" horiz-adv-x="1298" d="M113 296v475q0 112 63 169.5t176 57.5q86 0 147.5 -56.5t61.5 -135.5q0 -76 -61.5 -130.5t-147.5 -54.5q-35 0 -85 19v-353q0 -160 125 -160q102 0 141 79q18 36 27 112v194q0 32 24 55t58 23q29 0 52 -23t23 -55q0 -193 2 -223.5t19.5 -66t50.5 -67t93 -31.5q55 0 92 34 t37 138v963q0 61 80 61q75 0 75 -61v-963q0 -306 -284 -306q-154 0 -240 151q-96 -151 -246 -151q-284 0 -283 306zM246 806q0 -41 31 -65.5t75 -24.5t76 24.5t32 65.5q0 40 -32.5 68t-75.5 28q-45 0 -75.5 -28.5t-30.5 -67.5z" />
<glyph unicode="&#xe1e;" horiz-adv-x="1533" d="M67 806q0 79 59.5 135.5t147.5 56.5q119 0 176 -70q48 -57 48 -154v-487q0 -59 27 -109.5t100 -50.5q107 0 147 81q26 54 26 111v533q0 34 20 57.5t54 23.5q31 0 55 -24t24 -57v-533q0 -89 43 -142t121 -53q129 0 129 172v641q0 30 23 46.5t52 16.5q81 0 81 -63v-641 q0 -306 -285 -306q-153 0 -243 150q-94 -150 -245 -150q-282 0 -282 306v348q-46 -20 -85 -20q-64 0 -122 42q-71 53 -71 140zM165 806q0 -41 33.5 -65.5t75.5 -24.5q44 0 76.5 24.5t32.5 65.5q0 42 -33 69t-76 27q-42 0 -75.5 -27t-33.5 -69z" />
<glyph unicode="&#xe1f;" horiz-adv-x="1538" d="M67 804q0 78 59.5 132t147.5 54q120 0 175 -66q47 -56 47 -153v-484q0 -160 127 -160q105 0 144 77q27 55 28 113v533q0 33 20.5 56t54.5 23q32 0 55.5 -23t23.5 -56v-533q0 -83 41.5 -138t121.5 -55q128 0 128 170v961q0 60 77 60q79 0 79 -60v-961q0 -304 -284 -304 q-151 0 -242 151q-92 -151 -245 -151q-128 0 -205 71t-77 233v348q-46 -21 -84 -22q-64 0 -123 46q-69 53 -69 138zM165 804q0 -42 33.5 -66t75.5 -24q40 0 73.5 24t33.5 66q0 39 -33.5 68t-73.5 29q-42 0 -75.5 -29t-33.5 -68z" />
<glyph unicode="&#xe20;" horiz-adv-x="1301" d="M63 165q0 71 56.5 123.5t139.5 52.5q8 0 49 -10q0 28 1.5 35t1.5 19t4.5 43t23.5 60l-151 67q-18 14 -24 16q-15 8 -15 19q0 25 12 58q58 152 195 242t327 90q488 0 488 -416v-512q0 -60 -77 -60t-77 60v533q0 153 -96.5 214t-248.5 61q-164 0 -273 -81 q-76 -56 -113 -144q32 -13 57 -26.5t53 -24.5q18 13 41 34q40 40 68 40q12 0 31 -19.5t27.5 -38.5t8.5 -27q0 -11 -14 -22q-53 -21 -72.5 -73.5t-19.5 -91.5v-210q0 -109 -82 -157q-51 -29 -125 -29q-82 0 -139 50.5t-57 124.5zM156 165q0 -41 31 -65t72 -24q40 0 70.5 24.5 t30.5 64.5q0 34 -31 59.5t-70 25.5q-41 0 -72 -25t-31 -60z" />
<glyph unicode="&#xe21;" horiz-adv-x="1297" d="M88 806q0 77 60 135.5t151 58.5q125 0 191 -72q55 -62 54 -154v-363q54 -34 178 -137q96 -90 123.5 -107t51.5 -19l31 -4q16 0 36.5 10.5t40.5 40.5t20 92v650q0 63 76 63q32 0 55.5 -17t23.5 -46l-2 -669q0 -133 -70 -212q-62 -69 -176 -69q-82 0 -143 41 q-95 65 -175 150q-38 41 -89 83l1 -43q0 -109 -52 -168.5t-146 -59.5h-10q-51 1 -95 23q-107 56 -107 203q0 41 10 89q12 63 68.5 110t131.5 47q29 0 61 -8v181q-48 -15 -88 -16q-91 0 -151 54.5t-60 132.5zM188 806q0 -41 32.5 -65.5t78.5 -24.5q42 0 74.5 24.5t32.5 65.5 q0 40 -32.5 67.5t-74.5 27.5q-47 0 -79 -27.5t-32 -67.5zM231 219q0 -31 22 -69.5t69 -38.5q56 0 72.5 30t23.5 77q0 123 -94 123q-93 0 -93 -122z" />
<glyph unicode="&#xe22;" horiz-adv-x="1277" d="M105 709q0 132 109 227q80 71 177 71h8q87 -1 148.5 -54.5t61.5 -131.5q0 -79 -61 -133t-148 -54q-73 0 -148 51q3 -89 64.5 -132t160.5 -43q121 0 224 58q23 11 45 11q32 0 48 -19t16 -44q0 -39 -48 -65q-135 -59 -273 -59l-42 1q-38 -57 -37 -106q0 -77 76.5 -124.5 t212.5 -47.5q164 0 235 53q65 49 65 181v586q0 63 79 63q75 0 75 -61v-586q0 -197 -98 -283t-356 -86q-240 0 -358 108q-35 31 -59 85t-24 105q0 74 42 146q-99 42 -147 117.5t-48 165.5zM291 821q0 -41 32.5 -68t76.5 -27t76 27.5t32 67.5q0 38 -32 65t-76 27t-76.5 -27 t-32.5 -65z" />
<glyph unicode="&#xe23;" horiz-adv-x="1164" d="M66 662q0 47 7 71q38 118 187.5 192.5t344.5 74.5q111 0 197 -28q136 -42 202.5 -112t66.5 -103q0 -23 -25.5 -42t-60.5 -19q-29 0 -47 21q-38 61 -123.5 103t-213.5 42q-227 0 -351 -106q-53 -45 -52 -86q0 -19 20 -38.5t45 -19.5l14 1q21 5 89.5 23t130 25.5t98.5 7.5 q91 0 141.5 -17t94.5 -62q71 -72 71 -209v-177q0 -89 -52 -151.5t-180 -62.5q-87 0 -146.5 53t-59.5 131q0 92 97 149q49 28 99 29q40 0 87 -21v84q3 7 3 18q0 54 -34.5 80t-81.5 26q-4 0 -22.5 -1t-62.5 -9t-107 -18q-54 -9 -105 -19.5t-99 -10.5q-83 0 -127.5 46 t-44.5 135zM564 174q0 -44 32 -68.5t74 -24.5q44 0 76 25t32 68q0 35 -32 62.5t-76 27.5q-42 0 -74 -27t-32 -63z" />
<glyph unicode="&#xe24;" horiz-adv-x="1216" d="M113.5 603q-0.5 11 1.5 36q11 42 42.5 99.5t93 111.5t156 94t227.5 40q249 0 360 -109t111 -298v-920q0 -26 -20 -41t-53 -15q-31 0 -51.5 15t-20.5 41v943q0 148 -92.5 208t-248.5 60q-90 0 -153 -22t-109.5 -54.5t-72 -67.5t-35.5 -76q29 -16 52.5 -26t57.5 -28 q17 21 36.5 40t34.5 26q28 18 43 5t32 -32q4 -6 9 -16t8 -20t1 -17.5t-13 -9.5q-49 -25 -70 -77t-21 -88v-55q29 13 38 13.5t20 0.5q77 0 128 -51t51 -121q0 -71 -51 -121.5t-128 -50.5q-56 0 -97 21t-65 52t-32.5 63.5t-8.5 57.5q-5 27 -6.5 58t1.5 59q0 34 5 74 q0 13 6.5 43.5t44.5 57.5q-147 58 -175 67q-18 11 -23 12q-13 7 -13.5 18zM384 192q0 -36 26 -61t67 -25q42 0 69.5 25t27.5 61t-28 60t-69 24t-67 -24t-26 -60z" />
<glyph unicode="&#xe25;" horiz-adv-x="1239" d="M109 649q11 72 56.5 131.5t113 105.5t152.5 70.5t181 24.5q286 0 417 -136q102 -102 102 -251v-549q0 -33 -21.5 -47t-56.5 -14q-31 3 -52 15t-21 46v100q0 23 -12 79t-45.5 115.5t-100.5 104t-181 52.5q-70 4 -123 -7t-89.5 -34.5t-53.5 -54t-30 -97.5q68 35 113 36 q43 0 80 -15.5t64 -39t44 -55.5t17 -66q0 -72 -59.5 -122.5t-145.5 -50.5h-40.5t-63 13t-64.5 44t-57 86q-22 57 -24 112.5t7 105t30.5 91.5t41.5 63q119 136 362 124q104 -5 178 -37t152 -104v124q0 90 -57 146q-43 43 -122.5 66t-188.5 23q-64 0 -126 -16t-113.5 -47.5 t-85.5 -73t-49 -91.5q-7 -29 -32.5 -38.5t-56.5 -2.5q-55 12 -40 71zM355 163q0 -42 30 -64.5t73 -22.5q44 0 76.5 22.5t32.5 64.5q0 35 -32.5 59t-76.5 24t-73.5 -24t-29.5 -59z" />
<glyph unicode="&#xe26;" horiz-adv-x="1287" d="M60 196q0 71 55.5 123t134.5 52q10 0 18.5 -2.5t32.5 -2.5q4 23 4 52q0 10 5 40t31 56q-81 33 -112 48t-45 21q-15 10 -23 13q-16 9 -16.5 21t5.5 33q8 44 41 103.5t95 114.5t155 94t230 39q252 0 367 -110.5t115 -303.5v-927q0 -29 -21.5 -43t-53.5 -14t-55 14t-23 43 v952q0 153 -94.5 211.5t-248.5 58.5q-87 0 -151.5 -21.5t-112 -54t-72 -68t-40.5 -76.5q29 -15 55 -26.5t54 -28.5q17 20 40.5 38t37.5 31q25 15 41 1.5t35 -33.5q8 -10 16.5 -31t-13.5 -31q-25 -11 -42.5 -32t-28.5 -45.5t-16 -46.5t-5 -40v-210q0 -61 -22 -98t-56.5 -55.5 t-70.5 -25.5t-56 -7q-79 0 -134.5 50.5t-55.5 123.5zM151 196q0 -38 31.5 -62.5t67.5 -24.5q44 0 74.5 24.5t30.5 62.5t-30.5 61t-74.5 23q-36 0 -67.5 -23.5t-31.5 -60.5z" />
<glyph unicode="&#xe27;" horiz-adv-x="1100" d="M67 628q2 68 35 132t94.5 117.5t144.5 86t183 32.5q144 0 232.5 -39.5t138 -100.5t67 -136.5t17.5 -144.5v-368q0 -92 -51.5 -154.5t-179.5 -62.5q-88 0 -147.5 53t-59.5 131q0 49 27.5 87.5t68.5 62t86.5 29t102.5 -19.5v259q0 41 -9 85.5t-40 83t-92.5 63.5t-160.5 25 q-71 0 -126 -20t-95.5 -55t-61.5 -76t-21 -75q-2 -30 -24.5 -44t-56.5 -13q-33 1 -52.5 15t-19.5 47zM640 174q0 -45 31.5 -67t76.5 -22q41 0 74 22t33 67q0 35 -32.5 63.5t-74.5 28.5q-47 0 -77.5 -28t-30.5 -64z" />
<glyph unicode="&#xe28;" horiz-adv-x="1234" d="M115 57v474q0 204 118 321q130 135 382 134q160 0 284 -75q50 29 100.5 81.5t77.5 103.5q16 23 39 22.5t55 -19.5q30 -11 39 -34.5t2 -44.5q-33 -54 -91.5 -113t-118.5 -98q35 -55 56.5 -121.5t21.5 -156.5v-474q0 -27 -22.5 -42.5t-54.5 -15.5q-34 0 -56 15t-22 43v476 q0 91 -22 151t-62 97t-97.5 52.5t-128.5 15.5q-76 0 -137 -15.5t-109.5 -54t-75.5 -97.5t-27 -151v-65q49 47 81.5 81t73 63t89 50.5t105.5 21.5q83 0 142 -55t59 -126q0 -75 -58.5 -128.5t-142.5 -53.5q-62 0 -108.5 31t-80.5 90q-78 -70 -119 -153t-41 -181v-49 q0 -27 -21.5 -42.5t-55.5 -15.5q-31 0 -52.5 15t-21.5 43zM510 501q0 -40 30.5 -65t74.5 -25q36 0 69 25t33 65q0 34 -32.5 59.5t-69.5 25.5q-45 0 -75 -26t-30 -59z" />
<glyph unicode="&#xe29;" horiz-adv-x="1421" d="M69 813q0 79 60 133.5t149 54.5q228 0 228 -225v-404q0 -134 65 -191t213 -57q156 0 218.5 52.5t70.5 174.5q-79 -10 -104 -10q-63 0 -108 8q-156 30 -208 83.5t-57 121.5v10q0 65 47 114t135 57h13q69 0 123 -46t58 -112q0 -22 -5.5 -47t-69.5 -59q72 -4 104 -4 q26 0 73 4v464q0 65 79 65q80 0 80 -65v-406q74 59 97 104q43 82 52.5 91.5t18.5 9.5q16 0 51 -20t35 -48q0 -12 -10 -26q-66 -167 -242 -253v-10q0 -209 -108 -298t-343 -89q-218 0 -327.5 88.5t-109.5 293.5v275q-48 -23 -88 -23q-7 0 -33.5 3t-65 25.5t-65 64t-26.5 96.5 zM167 813q0 -44 33.5 -70t77.5 -26q43 0 77 26.5t34 69.5q0 40 -34.5 64.5t-76.5 24.5q-44 0 -77.5 -24.5t-33.5 -64.5zM688 561q3 -36 33 -55.5t65 -19.5q45 0 70 22t25 50l-1 12q0 34 -28 56.5t-67 22.5q-43 -2 -70 -26t-27 -57v-5z" />
<glyph unicode="&#xe2a;" horiz-adv-x="1314" d="M104 633q0 26 16 71q41 120 177.5 203t315.5 83q218 0 359 -87q117 74 181 188q14 21 35 21t54 -20q45 -16 45 -57q0 -27 -62.5 -101.5t-145.5 -128.5q58 -98 58 -207v-553q-1 -61 -79 -61q-72 6 -72 61v102q0 91 -58 196q-88 150 -285 157h-22q-84 0 -141 -19t-87.5 -53 t-47.5 -122q68 36 116 37q77 0 143 -56q61 -54 61 -124q0 -71 -60.5 -122t-143.5 -51q-61 0 -86 7q-112 33 -157 172q-12 35 -12 92q0 167 102 270t298 103l46 -1q104 -4 179 -36t155 -104v124q0 109 -92 174t-281 65q-132 0 -243 -67q-104 -62 -132 -165q-14 -44 -64 -44 q-70 0 -70 53zM355 163q0 -38 29.5 -62.5t76.5 -24.5q41 0 75 24.5t34 62.5t-34 61t-75 23q-47 0 -76.5 -23.5t-29.5 -60.5z" />
<glyph unicode="&#xe2b;" horiz-adv-x="1336" d="M67 813q0 79 60.5 133t146.5 54q116 0 175 -69q49 -58 49 -155v-332q72 96 125.5 151t170.5 94q-59 27 -67.5 53.5t-8.5 56.5q0 83 69.5 145t184.5 62q113 0 180 -61.5t67 -145.5q0 -94 -89 -165q47 -44 68 -90t21 -115v-368q0 -60 -76 -60q-77 0 -77 60v377q0 43 -22 78 q-42 71 -131 71q-72 0 -154 -56q-96 -65 -171.5 -200.5t-91.5 -272.5q0 -63 -75 -63q-79 0 -79 62v578q-42 -12 -76 -12q-76 0 -137.5 54.5t-61.5 135.5zM167 813q0 -38 30.5 -67t76.5 -29q44 0 76.5 29.5t32.5 66.5q0 39 -33 64.5t-76 25.5q-46 0 -76.5 -25.5t-30.5 -64.5z M849 799q0 -52 37.5 -74.5t87.5 -22.5q54 0 86.5 27t32.5 70q0 39 -33 67t-88 28q-61 0 -92 -28.5t-31 -66.5z" />
<glyph unicode="&#xe2c;" horiz-adv-x="1597" d="M67 811q0 77 59.5 132t144.5 55q114 0 176 -70q49 -58 49 -150v-493q0 -158 124 -158q56 0 89.5 23.5t51 53t21 61.5t7.5 48v310q0 29 21 51.5t55 22.5q33 0 55 -22.5t22 -51.5q21 -459 21 -522v-9q-1 0 -5 42t-4 70q0 23 4 23q2 0 11.5 -21t42.5 -52.5t94 -31.5 q54 0 91 33.5t37 136.5v565l-31 -1q-112 0 -172 44q-96 63 -96 175v12q6 77 64 126.5t131 49.5l21 -1q185 -14 229 -239q72 60 96 100q12 20 25 21q11 0 41 -25t30 -46q0 -49 -82 -117q-28 -24 -107 -61l2 -603q0 -302 -279 -302q-152 0 -241 147q-92 -147 -242 -147 q-280 0 -280 302v353q-47 -18 -85 -18q-72 0 -131.5 53t-59.5 131zM165 811q0 -41 32 -67.5t74 -26.5q44 0 76 26.5t32 67.5q0 36 -32.5 63.5t-75.5 27.5t-74.5 -27t-31.5 -64zM1055 1058q0 -41 44 -72q27 -16 95 -16l42 1v22q0 71 -28 105.5t-55 40.5h-8q-43 0 -66.5 -25 t-23.5 -56z" />
<glyph unicode="&#xe2d;" horiz-adv-x="1290" d="M123 636q0 33 33 100q59 113 185.5 182.5t295.5 69.5q250 0 390.5 -121t140.5 -311v-129q0 -237 -126 -341q-116 -95 -348 -96l-30 -1q-283 0 -375 232q-18 46 -18 125q0 128 73 228t192 100q92 -5 137 -52t45 -113q0 -68 -52 -115.5t-127 -47.5q-63 0 -126 62 q-11 -41 -12 -75q0 -67 42 -121q74 -99 251 -99q133 0 197 35q128 72 128 270v125q0 151 -101.5 233t-280.5 82q-294 0 -380 -230q-5 -23 -24.5 -38.5t-51.5 -15.5q-30 0 -44 21.5t-14 40.5zM440 509q0 -32 29.5 -57.5t69.5 -25.5q43 0 71 25.5t28 57.5q0 31 -28 57.5 t-71 26.5q-40 0 -69.5 -26.5t-29.5 -57.5z" />
<glyph unicode="&#xe2e;" horiz-adv-x="1203" d="M103 769q0 96 125 161q115 60 299 60q112 0 223.5 -22.5t162.5 -65.5q81 77 104 161q6 18 16 23t32 5q30 0 62 -16.5t32 -44.5q0 -9 -4 -22q-41 -122 -152 -203q75 -93 75 -276v-143q0 -207 -126 -304q-117 -91 -342 -92l-44 -1q-198 0 -306 93q-83 72 -84 198l1 35 q4 105 76 183.5t176 78.5q74 0 127 -46.5t53 -112.5q0 -62 -53 -110t-127 -48q-26 0 -57 7t-66 49q-6 -34 -6 -59q0 -62 55 -97q83 -51 241 -51q182 3 259 69.5t77 207.5v126q0 124 -48 226q-64 -51 -138 -70t-155.5 -28.5t-155.5 -9.5q-95 0 -145 4q-65 5 -108 21.5 t-61 44.5t-18 69zM253 794q0 -44 202 -44q143 0 219 20.5t122 62.5q-22 24 -49 34q-92 34 -222 34q-124 0 -198 -29.5t-74 -73.5v-4zM337 418q0 -34 26 -56.5t66 -22.5t68 22t28 57t-28.5 58.5t-67.5 23.5q-40 0 -66 -23.5t-26 -58.5z" />
<glyph unicode="&#xe2f;" horiz-adv-x="1133" d="M84 799q0 76 59.5 128.5t143.5 52.5q86 0 143.5 -52.5t57.5 -128.5q0 -72 -70 -140q91 -14 163 1.5t133 53.5t104.5 95t58.5 140q4 26 29.5 31.5t58.5 -3.5q22 -10 32.5 -21t13.5 -22.5t1 -21.5t-5 -18v-5v-835q0 -26 -21 -40.5t-54 -14.5q-27 0 -46.5 14t-19.5 41v610 q-104 -84 -199.5 -115.5t-194.5 -31.5q-65 0 -134 17.5t-125.5 54.5t-92.5 88t-36 122zM180 799q0 -40 33 -65t74 -25q43 0 74.5 25t31.5 65t-31.5 64t-74.5 24q-41 0 -74 -24.5t-33 -63.5z" />
<glyph unicode="&#xe30;" horiz-adv-x="1153" d="M115 247q0 72 59 126.5t140 54.5q87 0 145 -54.5t58 -126.5q0 -52 -39 -120q66 0 125.5 4.5t117.5 27.5t103 74.5t64 139.5q7 25 30.5 34.5t55.5 3.5q29 -5 44.5 -22t9.5 -45q-48 -234 -303 -312q-92 -29 -201 -27.5t-200.5 29.5t-150 81.5t-58.5 131.5zM115 795 q0 71 59 127t140 56q87 0 145 -56t58 -127q0 -56 -41 -120q68 0 127.5 5t117.5 29t103 73.5t64 138.5q8 28 31 36t55 2q29 -6 44.5 -22.5t9.5 -41.5q-48 -239 -302 -314q-93 -30 -202 -29t-200.5 30t-150 82t-58.5 131zM210 247q0 -43 32 -66.5t72 -23.5q46 0 77 24t31 66 q0 35 -30.5 62t-77.5 27q-42 0 -73 -26.5t-31 -62.5zM210 820q0 -42 31.5 -68t72.5 -26q47 0 77.5 26t30.5 68q0 36 -30.5 62t-77.5 26q-42 0 -73 -25.5t-31 -62.5z" />
<glyph unicode="&#xe31;" d="M-778 1374q0 68 54 118t133 50q77 0 129 -50t52 -118q0 -23 -7 -47.5t-111 -53.5q131 -9 212 -4t163.5 28.5t159 73.5t121.5 144q7 19 25.5 24t42.5 -9q28 -11 36.5 -23t2.5 -41q-28 -96 -115.5 -161.5t-201.5 -104.5t-237 -46.5t-225 15.5t-168 75t-66 130zM-690 1374 q0 -35 29.5 -60t69.5 -25t68.5 25.5t28.5 59.5q0 40 -29 62t-68 22q-40 0 -69.5 -22.5t-29.5 -61.5z" />
<glyph unicode="&#xe32;" horiz-adv-x="1090" d="M99 772q58 96 173.5 162.5t256.5 66.5q88 0 163 -28t130 -75.5t86.5 -114t31.5 -147.5l28 -575q-28 -30 -49.5 -46t-56.5 -16q-32 0 -54.5 15t-22.5 43v579q0 89 -65 154.5t-198 65.5q-55 0 -101 -15t-83 -41t-64.5 -54t-41.5 -50q-15 -30 -45.5 -31t-58.5 18 q-61 33 -29 89z" />
<glyph unicode="&#xe33;" horiz-adv-x="1034" d="M-571 1339q0 40 19.5 77.5t52.5 64.5t76.5 45.5t91.5 18.5q46 0 88.5 -14.5t75 -43.5t53.5 -66t21 -82q0 -93 -69.5 -151t-168.5 -58q-106 0 -173 59t-67 150zM-463 1339q0 -56 41.5 -79t90.5 -23q51 0 91 23.5t40 78.5q0 43 -32 71t-99 28q-69 0 -100.5 -29t-31.5 -70z M52 762q54 94 170 159t255 65q87 0 159.5 -25.5t127 -73.5t85.5 -113.5t31 -142.5v-572q0 -28 -21 -44t-53 -16q-33 0 -56 14t-23 44v574q0 86 -63 150t-195 64q-49 0 -97 -15.5t-85.5 -40.5t-65 -52t-41.5 -52q-13 -28 -43 -29t-62 19q-58 32 -23 87z" />
<glyph unicode="&#xe34;" d="M-1162 1187q-12 42 5.5 59.5t30.5 22.5q44 20 82.5 61t89 80t122 68.5t180.5 29.5q94 0 168.5 -34.5t129.5 -80t93 -89t68 -59.5q18 -9 19.5 -35.5t-15.5 -54.5q-15 -23 -24.5 -23.5t-14.5 3.5q-105 21 -215.5 29.5t-222 9.5t-219.5 -7t-203 -19q-19 -6 -44.5 6t-29.5 33 zM-1048 1232q232 32 381 30.5t347 -43.5q-56 46 -76 70.5t-54 53.5t-83 46t-119 17q-58 0 -102.5 -13.5t-83 -35.5t-68 -45.5t-142.5 -79.5z" />
<glyph unicode="&#xe35;" d="M-1160 1190q-13 42 5.5 61t30.5 24q46 16 84 58.5t87.5 84t120.5 70t182 28.5q88 0 149 -27.5t141 -77.5v207q0 28 18 39.5t54 11.5q41 0 55.5 -10.5t14.5 -40.5v-343q47 -22 58 -47.5t-11 -65.5q-11 -23 -23.5 -24.5t-20.5 -0.5q-101 21 -212 29.5t-224 9.5t-222.5 -7 t-210.5 -19q-20 -6 -45.5 5t-30.5 35zM-1046 1232q239 35 388 33t369 -47q-77 50 -97.5 75t-57 53t-87.5 47t-121 19q-58 0 -103.5 -15t-79.5 -37t-63 -46t-148 -82z" />
<glyph unicode="&#xe36;" d="M-1164 1226q3 13 10 22.5t15 16t13 8.5q48 20 85.5 62.5t87 83t118.5 69t178 28.5q48 0 99.5 -11t108.5 -41q-3 88 43 128.5t119 40.5q76 0 124 -48t48 -120q0 -61 -30.5 -97.5t-101.5 -57.5q31 -27 43.5 -43t28.5 -22q17 -10 14.5 -41t-20.5 -52q-12 -15 -19.5 -15.5 t-17.5 0.5q-100 21 -212.5 29.5t-225.5 9.5t-222.5 -7t-207.5 -19q-19 -6 -44.5 6.5t-31.5 33.5q-5 23 -2 36zM-1031 1235q222 32 369.5 30t354.5 -47q-63 50 -84 74t-57 53t-88 48t-123 19q-58 0 -100 -15t-78.5 -38t-66 -46t-127.5 -78zM-370 1472q0 -39 25 -64.5 t58 -25.5q38 0 61 25.5t23 64.5q0 31 -23 55.5t-61 24.5q-33 0 -58 -23.5t-25 -56.5z" />
<glyph unicode="&#xe37;" horiz-adv-x="1" d="M-1140 1190q-12 39 6 57.5t32 22.5q44 19 81 60.5t85 82t117 69t178 28.5h32.5t45.5 -6v106q0 18 15 32.5t43 14.5q32 0 47 -14.5t15 -32.5v-143q18 -16 49 -32t68 -46v221q0 18 14 32.5t46 14.5q36 0 50 -14.5t14 -32.5v-335q49 -35 49 -61.5t-11 -49.5 q-8 -23 -24 -25.5t-22 -1.5q-100 21 -210.5 29.5t-221 9.5t-218.5 -7t-206 -19q-19 -6 -44.5 4t-29.5 36zM-1032 1231q239 33 384.5 31.5t357.5 -44.5q-71 48 -92.5 72t-55 53t-84 46t-121.5 17q-59 0 -99.5 -13.5t-76 -35.5t-63.5 -45.5t-150 -80.5z" />
<glyph unicode="&#xe38;" horiz-adv-x="1" d="M-542 -305q0 75 58.5 129t143.5 54q89 0 146.5 -54t57.5 -129v-358q0 -30 -19.5 -45t-55.5 -15q-31 0 -53 15.5t-22 44.5v175q-26 0 -35.5 -0.5t-18.5 -0.5q-85 0 -143.5 52.5t-58.5 131.5zM-445 -305q0 -39 31 -66t74 -27q47 0 78.5 27t31.5 66q0 36 -31.5 63t-78.5 27 q-44 0 -74.5 -27t-30.5 -63z" />
<glyph unicode="&#xe39;" d="M-878 -303q0 75 58.5 129.5t144.5 54.5q81 0 141 -49l61 -49q0 -80 1 -119t1 -85v-85v-42q0 -74 99 -75q39 0 61.5 15.5t22.5 63.5v346q0 31 21.5 45t53.5 14q34 0 53.5 -13.5t19.5 -45.5v-366q0 -99 -64 -132t-178 -33q-36 0 -79.5 6.5t-80.5 25t-59 46t-22 69.5v97 q-26 0 -35.5 -2t-16.5 -2q-86 0 -144.5 53t-58.5 133zM-782 -303q0 -41 31.5 -68t75.5 -27q46 0 77 27t31 68q0 36 -31.5 64t-76.5 28q-44 0 -75.5 -28t-31.5 -64z" />
<glyph unicode="&#xe3a;" d="M-398 -260q0 47 39 83t105 36q60 0 101 -36.5t41 -82.5q0 -50 -41.5 -87.5t-100.5 -37.5q-66 0 -105 38t-39 87z" />
<glyph unicode="&#xe3f;" horiz-adv-x="1116" d="M90 339v387q0 88 30.5 149.5t81.5 102t118 64.5t153 33v133q0 33 13.5 52t46.5 19q29 0 43 -20t14 -51v-131q92 -7 165.5 -33t129.5 -67t88.5 -98.5t32.5 -129.5q0 -138 -139 -218q81 -46 110 -104.5t29 -126.5q0 -124 -97 -216q-19 -19 -51 -36t-67.5 -27.5t-73 -16 t-68.5 -5.5h-59v-108q0 -48 -17.5 -60t-39.5 -12q-31 0 -45.5 18t-14.5 54v108q-87 2 -152.5 23t-116 62t-82.5 104.5t-32 150.5zM229 345q0 -57 19 -96.5t52.5 -65t74.5 -36t81 -17.5h17v331h-46q-49 0 -65 22t-16 48q0 39 20 54.5t61 15.5h46v331q-55 -7 -97 -19 t-75.5 -37t-52.5 -63.5t-19 -90.5v-377zM590 130h59q44 0 80 11t67 31t49.5 53t18.5 75q0 161 -226 161h-48v-331zM590 601h48q88 -8 157 32t69 125q0 43 -23.5 74.5t-60 53t-81.5 33t-109 17.5v-335z" />
<glyph unicode="&#xe40;" horiz-adv-x="680" d="M168 212v735q0 31 23 46.5t56 15.5t55 -15.5t22 -46.5v-587q48 7 81 7q90 0 150 -55t60 -134q0 -76 -60 -132t-150 -56q-23 0 -64 6t-80 31t-66 68t-27 117zM297 178q0 -44 32.5 -68.5t75.5 -24.5q48 0 79 24.5t31 68.5q0 39 -31 66.5t-79 27.5q-43 0 -75.5 -27 t-32.5 -67z" />
<glyph unicode="&#xe41;" horiz-adv-x="1247" d="M168 207v714q0 29 20.5 44t54.5 15q33 0 55.5 -15t22.5 -44v-574q45 11 78 11q83 0 144 -55t61 -129q0 -78 -60.5 -131t-144.5 -53q-27 0 -65.5 6t-75 30.5t-63.5 66t-27 114.5zM287 174q0 -45 34.5 -69t77.5 -24q44 0 75 24.5t31 68.5q0 35 -31 63.5t-75 28.5t-78 -27.5 t-34 -64.5zM752 207v714q0 29 21.5 44t57.5 15q30 0 51 -15t21 -44v-574q49 11 81 11q88 0 145.5 -55t57.5 -129q0 -78 -57 -131t-146 -53q-22 0 -63 6t-78.5 30.5t-64 66t-26.5 114.5zM879 174q0 -44 31 -68.5t74 -24.5q44 0 76.5 24.5t32.5 68.5q0 35 -32.5 63.5 t-76.5 28.5t-74.5 -28t-30.5 -64z" />
<glyph unicode="&#xe42;" horiz-adv-x="832" d="M-128 1549q-18 81 18.5 144t107 108t170.5 67t211 15q114 -8 193.5 -42t128.5 -74t74.5 -79t35.5 -54q14 -22 6 -45.5t-38 -42.5q-22 -11 -50.5 -2.5t-46.5 31.5q-8 18 -29 47t-59 58t-93 50t-129 28q-56 7 -114 1.5t-105 -20.5t-85 -36t-51 -47q-29 -41 -8 -82t78 -37 h82t68 -5t58.5 -20t56.5 -39q42 -54 42 -108.5v-118.5v-901q43 11 71 11q87 0 146 -55t59 -129q0 -76 -58.5 -129t-146.5 -53q-101 0 -160.5 53t-59.5 186v1048q2 25 -0.5 53.5t-15.5 50.5t-39.5 35.5t-69.5 5.5q-41 -8 -81 1.5t-75.5 25t-61 42t-30.5 58.5zM359 172 q0 -42 33 -66.5t73 -24.5q45 0 76.5 24.5t31.5 66.5q0 35 -31.5 63.5t-76.5 28.5q-42 0 -74 -28t-32 -64z" />
<glyph unicode="&#xe43;" horiz-adv-x="849" d="M-6.5 1492q-16.5 52 0.5 135q24 108 138 170t268 66q63 2 123 -12t114 -42t95 -73t61 -109q25 -70 16.5 -128.5t-33.5 -104t-61 -76.5t-66 -54q-24 -16 -55.5 -30t-61.5 -32t-52 -40.5t-22 -52.5v-766q42 11 71 11q87 0 146.5 -54t59.5 -128q0 -78 -59.5 -130t-146.5 -52 q-103 0 -163 52t-60 187v897q0 49 28.5 84.5t70.5 66.5t87 54t76 44q76 50 103.5 97.5t12.5 105.5q-16 69 -68.5 108.5t-121 53.5t-141 5t-260.5 -81q173 28 206.5 15.5t56.5 -37t36 -55t13 -56.5q0 -76 -59 -126t-148 -58q-25 0 -68.5 13.5t-81.5 46.5t-54.5 85zM93 1531 q0 -39 32.5 -64t72.5 -25q48 0 78.5 25t30.5 64q0 40 -31 67t-78 27q-40 0 -72.5 -27.5t-32.5 -66.5zM426 172q0 -44 30.5 -67.5t72.5 -23.5q46 0 76.5 23.5t30.5 67.5q0 35 -30 63.5t-77 28.5q-44 0 -73.5 -28t-29.5 -64z" />
<glyph unicode="&#xe44;" horiz-adv-x="892" d="M-190 1821q5 29 25 40t48 10q139 -8 217 -60t129 -170q35 121 118.5 163.5t180.5 38.5q62 -2 118 -24t99 -64t67 -101.5t24 -141.5q0 -51 -27 -90t-67 -68.5t-84.5 -53.5t-80.5 -48q-55 -38 -83.5 -70.5t-28.5 -102.5v-728q40 12 68 12q90 0 152 -56.5t62 -132.5 q0 -78 -61.5 -132.5t-152.5 -54.5q-103 0 -165 54.5t-62 191.5v860q0 79 36 138.5t88 87.5q8 9 49 33t87.5 54t86.5 56t61 32q2 78 -25 129.5t-72.5 80.5t-106 25t-116.5 -37q-51 -31 -78.5 -82.5t-25.5 -109.5q0 -29 -12 -38.5t-46 -13.5q-32 -2 -44.5 7t-19.5 39 q-6 71 -36.5 123.5t-76 84.5t-96.5 51t-103 19q-50 0 -46 49zM427 174q0 -45 34 -69t72 -24q46 0 79.5 24t33.5 69q0 40 -33.5 66.5t-79.5 26.5q-40 0 -73 -26.5t-33 -66.5z" />
<glyph unicode="&#xe45;" horiz-adv-x="1001" d="M67 715.5q-7 20.5 8 45.5q25 45 69 86t98.5 70.5t119 46.5t130.5 17q84 0 157.5 -25t126.5 -72.5t81 -110.5t28 -140v-960q0 -32 -20 -45t-50 -13q-33 0 -55 13t-22 42v963q0 86 -65 148t-191 62q-56 0 -99.5 -16t-80.5 -39.5t-60.5 -51t-34.5 -48.5q-17 -27 -46.5 -27.5 t-55.5 14.5q-31 20 -38 40.5z" />
<glyph unicode="&#xe46;" horiz-adv-x="1159" d="M85 766q-1 36 13.5 73t40.5 65t61.5 47t73.5 29q101 18 194.5 -1.5t152.5 -98.5q21 45 45.5 64.5t56.5 28t66 10t68 -4.5q182 -47 182 -279v-1037q0 -29 -21.5 -43t-52.5 -14q-33 0 -52.5 14t-19.5 43v1037q0 84 -21.5 113.5t-50.5 42.5q-40 14 -77 -0.5t-67 -36.5 q11 -28 17 -38q3 -14 8 -25.5t13 -25.5q3 -11 1.5 -28.5t-35.5 -29.5q-23 -9 -44.5 -1.5t-30.5 37.5q-23 67 -62.5 117t-186.5 68q100 -51 112 -77t14 -46q5 -77 -52 -128t-141 -51q-82 0 -142 51t-63 125zM185 766q0 -39 30.5 -63t74.5 -24t74 24t30 63q0 38 -30 65t-74 27 t-74.5 -27t-30.5 -65z" />
<glyph unicode="&#xe47;" horiz-adv-x="1" d="M-945 1362q-4 34 8 75.5t43.5 79t85.5 66t136 45.5q146 21 237.5 44t141.5 42.5t71 32t21 11.5q23 13 36 23t30 0q24 -9 31.5 -27.5t-3.5 -40.5q-7 -14 -24 -31t-71.5 -41t-163 -52.5t-299.5 -62.5q-91 -12 -139.5 -61t-43.5 -104q2 -31 27 -58t69 -44l105 150 q16 20 32 27t33 -4q31 -22 16 -55q-2 -1 -12 -18.5t-18 -24.5q17 -36 53 -52.5t110 -40.5q-23 42 -27 52.5t-4 13.5q0 63 48.5 104.5t114.5 41.5q65 0 111.5 -41.5t46.5 -104.5q0 -56 -46 -96t-111 -44q-38 -2 -86 1t-97 12t-89 26t-73 56l-67 -93h-31q-78 0 -137.5 55 t-64.5 138zM-392 1307q0 -30 24.5 -52.5t66.5 -22.5q34 0 62.5 22t28.5 53q0 34 -28.5 56.5t-62.5 22.5q-42 0 -66.5 -23t-24.5 -56z" />
<glyph unicode="&#xe48;" d="M-372 1786v259q0 58 89 58q70 0 79 -58h-9q0 -318 -70 -318q-89 0 -89 59z" />
<glyph unicode="&#xe49;" d="M-666 1808q-3 20 8.5 30t34.5 15l52 7q29 12 57.5 36t54.5 68q-91 -4 -127.5 26.5t-41.5 76.5q-4 49 33.5 89t108.5 45q82 6 122 -31t44 -97q2 -28 -7 -57t-26 -52.5t-35 -41t-17 -49.5q8 5 57 14t105.5 39t108 91.5t61.5 160.5q0 34 49 34q47 2 56.5 -5t7.5 -27 q-16 -211 -178 -310.5t-473 -125.5q-19 -2 -36 20t-19 44zM-557 2071q0 -27 29 -47.5t61 -15.5q27 0 53 20.5t26 51.5q-9 31 -33.5 50.5t-57.5 16.5q-30 -6 -57 -22.5t-21 -53.5z" />
<glyph unicode="&#xe4a;" d="M-840 1887q19 94 94 139.5t156 43.5q43 0 84 -13t72 -71q28 56 58 67.5t69 12.5q48 2 97 -19.5t90 -91.5q36 70 53.5 110.5t27.5 62.5q3 24 18.5 33t36.5 3q20 -4 28.5 -22t5.5 -35q-8 -34 -35 -91.5t-59 -120.5t-67 -120t-59 -85q-13 -17 -33.5 -17.5t-35.5 14.5 q-15 13 -18 32t18 37q0 4 9 14t19 32t17.5 45.5t4.5 44.5q-7 58 -46.5 77.5t-70.5 14.5q-78 -15 -70 -96q1 -19 -12 -35t-32 -18q-21 -4 -34 8.5t-18 35.5q-6 59 -46 86.5t-86 27.5t-89 -27t-65 -97q65 27 95 27q56 0 95.5 -34.5t38.5 -83.5q-1 -53 -32.5 -79t-75 -29.5 t-87 9.5t-67.5 36q-30 36 -42.5 81t-6.5 91zM-744 1777q0 -25 25.5 -45.5t55.5 -20.5q36 0 58.5 20.5t22.5 45.5q0 31 -23 51t-58 20q-30 0 -55.5 -19t-25.5 -52z" />
<glyph unicode="&#xe4b;" horiz-adv-x="1" d="M-463 1782q0 46 46 46h117v123q0 44 48 43q52 0 51 -43v-123h114q44 0 43 -46q0 -41 -43 -40h-114v-117q0 -46 -51 -45q-48 0 -48 45v117h-117q-47 0 -46 40q0 46 46 46h117v123q0 44 48 43q52 0 51 -43v-123h114q44 0 43 -46q0 -41 -43 -40h-114v-117q1 -45 -51 -45 q-48 0 -48 45v117h-117q-47 0 -46 40z" />
<glyph unicode="&#xe4c;" d="M-644 1673q0 34 13 64.5t37.5 57t58.5 43.5t74 21q123 13 195.5 33.5t116.5 46.5q49 22 68 49q8 18 23 15t39 -13q23 -12 33 -24t1 -29q-35 -38 -80.5 -64t-93 -41.5t-92 -23t-154.5 -7.5q96 -40 110 -69t14 -60q0 -62 -51 -107t-131 -45q-74 0 -126.5 45t-54.5 108z M-561 1672q0 -34 30.5 -60.5t67.5 -26.5q43 0 72 26.5t29 60.5t-30 59t-71 25q-36 0 -67 -25t-31 -59z" />
<glyph unicode="&#xe4d;" d="M-521 1352q0 40 19 78t51 67.5t74 44t93 14.5q49 0 91.5 -12.5t75 -41.5t52.5 -67.5t20 -82.5q0 -94 -67.5 -150t-171.5 -56t-170.5 58t-66.5 148zM-418 1352q0 -57 40.5 -80t93.5 -23q54 0 94.5 23t40.5 80q0 43 -32.5 72.5t-102.5 29.5q-64 0 -99 -31.5t-35 -70.5z" />
<glyph unicode="&#xe4e;" horiz-adv-x="1" d="M-637 1334q12 170 237 177q-82 84 -69.5 154.5t91 110.5t203.5 14q17 -6 28 -17t12 -15t-4.5 -8t-21.5 -4q-76 13 -141 -26t-59 -108.5t87 -77.5q17 -3 20.5 -15.5t2.5 -16.5q-1 -5 -6.5 -13t-27.5 -10q-214 -2 -219 -130q17 -82 102.5 -82t83.5 -1l-10 -51 q-100 -41 -195.5 -12t-113.5 131z" />
<glyph unicode="&#xe4f;" horiz-adv-x="1095" d="M127 427q0 182 126.5 308.5t308.5 126.5q179 0 307.5 -127.5t128.5 -307.5t-128 -307.5t-308 -127.5q-181 0 -308 127t-127 308zM258 427q0 -126 89 -215.5t215 -89.5q128 0 215 90t87 215q0 128 -87.5 215.5t-214.5 87.5q-126 0 -215 -87.5t-89 -215.5zM366 427 q0 82 56.5 139.5t139.5 57.5q81 0 138.5 -57.5t57.5 -139.5t-57.5 -141t-138.5 -59q-83 0 -139.5 59t-56.5 141zM472 427q0 -38 26.5 -63t63.5 -25q35 0 61 25t26 63q0 34 -26 61t-61 27q-38 0 -64 -27t-26 -61z" />
<glyph unicode="&#xe50;" horiz-adv-x="1266" d="M101 403q0 90 32 169.5t95.5 135t158.5 87t230 31.5q131 0 229 -31.5t161.5 -87t94 -135t30.5 -169.5q0 -188 -125 -307.5t-388 -119.5q-268 0 -393 119.5t-125 307.5zM266 403q0 -131 87.5 -215t267.5 -84q176 0 264.5 84t88.5 215q0 129 -89 212t-266 83 q-180 0 -266.5 -83.5t-86.5 -211.5z" />
<glyph unicode="&#xe51;" horiz-adv-x="1307" d="M117 343q-9 86 20.5 171t95.5 155t169.5 112.5t245.5 42.5q119 0 220.5 -32t177.5 -94t119.5 -152t43.5 -205q0 -181 -94.5 -327t-255.5 -212q-22 -9 -51 4t-41 36q-11 23 -1 47.5t43 38.5q123 56 193 162t70 251q0 80 -33 143t-89 111.5t-134 73.5t-168 25 q-100 0 -178.5 -26.5t-130 -73.5t-78 -108t-23.5 -132q6 -48 26.5 -89.5t51.5 -74t71 -52t226 -19.5q-175 35 -197 72.5t-22 58.5q0 92 65 141.5t157 49.5q40 0 82.5 -13t73 -38t47.5 -58t17 -82q0 -39 -16 -74t-44 -61q-62 -62 -167 -84t-210.5 2t-187 99.5t-94.5 210.5z M492 248q0 -54 39 -73t83 -19q47 0 84 24t37 68q0 46 -36.5 72t-84.5 26q-51 0 -86.5 -28t-35.5 -70z" />
<glyph unicode="&#xe52;" horiz-adv-x="1557" d="M-19.5 1178.5q8.5 24.5 29.5 37.5q26 15 52 8.5t40 -30.5q74 -116 111.5 -273.5t56.5 -313t20 -284.5t-1 -210h913q60 0 95.5 61t49 137.5t5.5 156t-35 128.5q-24 41 -60.5 55.5t-83.5 7.5q-58 -4 -82 -51.5t-24 -121.5q0 -34 -12.5 -50t-45.5 -16q-40 0 -52 16.5 t-14 48.5q-2 86 -61.5 134t-131.5 55t-137 -24t-114 -160q58 59 87 66t50 9q83 7 143.5 -44.5t60.5 -134.5q0 -80 -59.5 -131t-146.5 -51q-69 0 -120 29.5t-79.5 80t-33 118t12.5 137.5q29 106 103 160.5t189 69.5q89 6 167 -20.5t127 -107.5q40 71 75.5 91t72.5 27 q75 12 148.5 -20t119.5 -108q24 -39 36.5 -103t12.5 -139.5t-13 -151t-47 -135t-82 -96.5t-121 -37h-990q-23 0 -41.5 18t-18.5 44l2 57q2 56 0 147t-7 207.5t-24.5 234t-52 229t-85.5 194.5q-13 24 -4.5 48.5zM513 385q0 -57 39.5 -75.5t80.5 -18.5q51 0 85.5 25.5 t34.5 68.5t-34 68.5t-86 25.5q-47 0 -83.5 -26.5t-36.5 -67.5z" />
<glyph unicode="&#xe53;" horiz-adv-x="1505" d="M118 461q9 106 62 194.5t145 136.5q45 27 112.5 35t134.5 -3.5t124.5 -40t100.5 -98.5q60 72 120 103t129 33q55 9 109.5 -6t100 -46t78.5 -76.5t47 -105.5q24 -75 25 -156t-8 -155.5t-26 -138t-35 -102.5q-19 -40 -40 -46t-54 -2q-38 6 -47 22.5t1 44.5q13 44 29 102 t27 120t12 129t-16 137q-13 49 -39 77.5t-56.5 43.5t-56 17.5t-43.5 2.5q-53 -5 -99.5 -30.5t-62.5 -93.5q30 -71 44 -176.5t-10 -244.5q-4 -25 -21.5 -45.5t-60.5 -17.5q-49 6 -61 29t-8 51q17 108 6 210t-49 177.5t-104 121t-158 34.5q-79 -11 -126.5 -54.5t-72 -97 t-27 -110.5t19.5 -116q33 46 72 63.5t74 17.5q47 0 89.5 -17.5t74 -43.5t49.5 -63t18 -81q0 -89 -66.5 -146.5t-164.5 -57.5q-84 0 -143.5 42.5t-95.5 109.5t-48 151t-5 166zM285 194q0 -59 40.5 -79t82.5 -20q51 0 88 25t37 74q0 44 -36.5 70.5t-88.5 26.5q-49 0 -86 -28 t-37 -69z" />
<glyph unicode="&#xe54;" horiz-adv-x="1544" d="M115.5 445.5q7.5 73.5 48.5 145.5t122.5 136.5t228.5 112.5q59 19 139.5 44.5t167 52t174.5 57t163 58t127 57.5t72 58q14 21 39 28t49 -5q26 -11 32 -39t-6 -47q-42 -63 -129.5 -113.5t-209.5 -96.5t-270.5 -90.5t-305.5 -98.5q-173 -58 -248.5 -161.5t-55.5 -218.5 q4 -42 28.5 -78t60 -65t81.5 -47t102 -18h487q-210 38 -255 65t-84.5 69.5t-65.5 88t-23 98.5q0 34 18 68t49 60t71.5 41.5t83.5 15.5q45 0 85.5 -15t70.5 -38.5t49 -56.5t19 -77q0 -57 -39.5 -106.5t-156.5 -49.5q54 -54 110 -76.5t121 -37.5t128.5 -27t108.5 -15 q57 -5 57 -65q0 -29 -22.5 -46.5t-47.5 -13.5h-152q-87 0 -238.5 1t-395.5 1q-76 0 -141.5 22t-116.5 62t-86 95.5t-43 126.5q-8 65 -0.5 138.5zM687 434q0 -53 39.5 -74t79.5 -21q51 0 86 24.5t35 70.5q0 41 -33.5 68t-87.5 27q-47 0 -83 -28.5t-36 -66.5z" />
<glyph unicode="&#xe55;" horiz-adv-x="1447" d="M114 298q-6 60 1 131t46 139.5t118.5 131.5t218.5 109h48q-66 44 -79 78.5t-13 64.5q0 75 55.5 129.5t128.5 54.5q36 0 71 -16.5t61 -44t38.5 -65.5t0.5 -108q102 36 180.5 60t143 51t113.5 56.5t65 52.5q13 20 38 27t47 -3q25 -9 31 -36.5t-6 -49.5q-40 -58 -123 -105.5 t-202 -92.5t-262 -87.5t-297 -97.5q-166 -57 -237.5 -155t-52.5 -210q4 -42 27 -77t58.5 -61.5t79.5 -44.5t96 -18h442q-171 39 -215.5 65.5t-83.5 65.5t-62.5 85t-20.5 94q0 32 17.5 65t46.5 59t68 40t81 14q44 0 82 -13.5t67.5 -38t48.5 -55.5t19 -72q0 -55 -38.5 -102.5 t-152.5 -47.5q52 -52 106.5 -75t116.5 -36t125 -25t101 -14q54 -7 54 -63q0 -28 -19.5 -45t-46.5 -13h-144q-84 0 -231 1t-382 1q-74 0 -137 21t-112 58.5t-81.5 92.5t-42.5 125zM550 947q0 -35 25 -61.5t63 -26.5q36 0 62.5 26.5t26.5 61.5t-26.5 62.5t-62.5 27.5 q-38 0 -63 -27.5t-25 -62.5zM666 418q0 -52 36 -73t79 -21q50 0 84.5 24.5t34.5 69.5q0 42 -34 66.5t-85 24.5q-47 0 -81 -27t-34 -64z" />
<glyph unicode="&#xe56;" horiz-adv-x="1229" d="M-98 1159q9 24 31 35q30 11 55.5 9t43.5 -38q30 -60 63.5 -128.5t68 -129.5t64 -111.5t59.5 -91.5l49 29q94 39 199.5 57.5t204 3.5t185 -60t142.5 -135q50 -76 61 -169.5t-21 -185t-110.5 -160.5t-214.5 -94q-65 -12 -161 -15.5t-183.5 16t-147.5 72t-66 150.5 q-2 40 14.5 75.5t47.5 62t72.5 42.5t86.5 16t83.5 -15t69.5 -41.5t48 -60t17 -80.5q0 -22 -16.5 -59.5t-166.5 -72.5q229 -8 318 32t140 109t52 155t-57 172q-52 73 -135 100t-177.5 23.5t-182.5 -32t-151 -71.5q-27 -22 -49.5 -8.5t-35.5 28.5q-27 39 -69 104t-84 138.5 t-81 149.5t-62 131q-13 24 -4 48zM321 212q0 -49 39.5 -69.5t78.5 -20.5q51 0 86.5 24.5t35.5 65.5q0 47 -33.5 72t-88.5 25q-48 0 -83 -28t-35 -69z" />
<glyph unicode="&#xe57;" horiz-adv-x="1913" d="M103 403q9 107 55.5 197t133 148.5t207.5 50.5q89 -6 141.5 -31t107.5 -90q46 66 97 93.5t105 33.5q69 6 144 -12t128.5 -64.5t76 -127t-14.5 -286.5q89 153 114 281t64 265q25 81 58.5 145t68.5 110t60 74t41 38q21 17 51.5 25t49.5 -7q26 -15 37.5 -40.5t-0.5 -45.5 q-9 -12 -34.5 -30.5t-57 -54.5t-69 -93.5t-60.5 -148.5q-28 -75 -49.5 -174t-52 -208t-84 -222t-144.5 -219q-18 -23 -45.5 -32t-64.5 4q-28 7 -40 27.5t12 67.5q10 14 24.5 66t24 117.5t9.5 139t-22.5 134t-72.5 99.5t-141 31q-54 -5 -96 -57.5t-42 -147.5q0 -23 -20 -41 t-56 -18q-40 0 -59 18t-20 42q-2 102 -56.5 149.5t-125.5 49.5q-60 0 -111.5 -29.5t-84.5 -76t-49 -111.5t3 -161q52 59 99 81.5t103 22.5q45 0 85 -16t72 -42t51 -62t19 -80q0 -63 -36 -112q-26 -48 -71.5 -68.5t-98.5 -20.5q-134 0 -214 61.5t-119.5 156t-30.5 201.5z M321 178q0 -56 42 -75.5t83 -19.5q50 0 87 23t37 72q0 47 -35.5 71.5t-88.5 24.5q-49 0 -87 -27.5t-38 -68.5z" />
<glyph unicode="&#xe58;" horiz-adv-x="1531" d="M117 317q-9 62 4 137.5t62 149t135 135.5t223 91q93 22 219 62t245 84.5t214 91.5t117 99q18 34 43 36t48 -13q23 -12 30.5 -37t-3.5 -48q-27 -50 -92.5 -99.5t-156 -95.5t-187.5 -82.5t-187 -64t-159 -45.5t-99 -25q-94 -22 -161.5 -61.5t-104 -90t-53 -107t-7.5 -112.5 q14 -88 76 -141t149 -70l170 318q12 24 36 36.5t53 -5.5q28 -14 35.5 -40t-4.5 -51l-26 -55q16 -54 50 -94t73.5 -69.5t81.5 -46.5t170 -26q-125 49 -136.5 82.5t-11.5 57.5q0 78 64.5 136.5t154.5 58.5q45 0 85.5 -16t72.5 -42.5t49 -61t17 -76.5q3 -69 -40 -119 t-112.5 -79t-160 -36t-171.5 11q-161 34 -266 174l-93 -185q-128 -12 -215 28.5t-135 100.5t-70.5 119t-25.5 86zM1064 210q0 -52 40.5 -72.5t77.5 -20.5q51 0 88.5 25.5t37.5 67.5q0 47 -36.5 73t-89.5 26q-43 0 -80.5 -27.5t-37.5 -71.5z" />
<glyph unicode="&#xe59;" horiz-adv-x="1771" d="M104 459.5q10 88.5 60 166.5t148 129q73 30 151 36t148.5 -10.5t124 -44.5t98.5 -83q42 88 94.5 117t107.5 35q31 4 74.5 -1t83 -20t71.5 -40t53 -86q62 64 104 103.5t78.5 90t66 124t44.5 186.5q9 47 40.5 53.5t54.5 -0.5q48 -24 44 -80q-12 -94 -47 -179t-88 -159.5 t-112.5 -140t-120.5 -120.5q-23 -22 -49 -24.5t-51 6.5q-29 7 -43 26t-21 37q-13 55 -57.5 75.5t-92.5 13.5q-50 -5 -81 -37.5t-35 -104.5q48 -85 88 -198t40 -276q0 -39 -21.5 -53t-51.5 -14q-26 0 -48 12t-22 58q0 108 -21 194.5t-55 152t-76 114.5t-82 73 q-88 54 -176.5 60.5t-157.5 -22.5q-74 -36 -103.5 -98t-33 -126t15 -119t58.5 -114q17 112 78.5 159.5t148.5 47.5q47 0 86.5 -15t71.5 -41t49.5 -62.5t17.5 -80.5q0 -88 -63.5 -140.5t-161.5 -57.5q-103 -4 -186 37t-140 110t-85 155.5t-18 175zM411 176q0 -59 40.5 -77 t77.5 -18q53 0 89 23.5t36 71.5q0 42 -35 68t-90 26q-42 0 -80 -27t-38 -67z" />
<glyph unicode="&#xe5a;" horiz-adv-x="1670" d="M127 804q0 78 59 132t142 54q89 0 147.5 -53.5t58.5 -132.5q0 -69 -69 -140q90 -12 162.5 4t133.5 53.5t106 97t58 141.5q7 24 32 31.5t61 -6.5q21 -7 30 -18t13 -24t1 -22.5t-6 -18.5v-239q72 8 126.5 30.5t98.5 58.5t75 88.5t42 119.5q4 24 31.5 31.5t60.5 -6.5 q24 -7 34 -18t12.5 -24t1 -23t-3.5 -18v-848q0 -26 -22 -40.5t-54 -14.5q-26 0 -47 14t-21 41v618q-89 -74 -165 -105.5t-169 -40.5v-472q0 -26 -19 -40.5t-54 -14.5q-27 0 -46 14t-19 41v618q-107 -88 -203.5 -118t-194.5 -30q-68 0 -137.5 16t-126.5 53t-93 89.5 t-36 121.5zM224 804q0 -36 33 -62t71 -26q47 0 78.5 26.5t31.5 61.5q0 42 -31.5 68t-78.5 26q-39 0 -71.5 -26t-32.5 -68z" />
<glyph unicode="&#xe5b;" horiz-adv-x="2545" d="M177.5 552.5q0.5 107.5 34 204t101 164.5t181.5 77q97 6 166 -38.5t112 -115.5t55.5 -155.5t-1 -156.5t-56 -117.5t-110.5 -45.5q-72 0 -123 51t-51 138q0 40 12.5 74.5t32.5 62.5t49.5 41t83.5 6q-4 36 -23.5 64.5t-52 46t-80.5 15t-99 -43.5q-42 -33 -65 -82.5 t-33 -105.5t-9 -113.5t7 -103.5q16 -101 75.5 -166t138 -86.5t164.5 -3.5t156 85q59 52 88 124.5t45.5 151.5t20 157t3.5 125q29 -11 73.5 -49.5t79 -85.5t59.5 -102.5t44 -156.5q49 118 67 211.5t21 149.5q16 -10 48 -42.5t57 -73t44 -84.5t35 -118q31 55 46.5 87.5 t30.5 69.5t27 75t12 44q48 -34 88 -91t78 -171q34 75 50.5 129.5t22.5 102.5q88 -80 219 -130.5t276 -62.5q0 1 -68 -13t-141 -18t-138.5 7t-112.5 54q-14 -59 -28 -90.5t-33.5 -58t-41.5 -42.5t-43 -19q-4 1 -11 15t-16.5 39t-23.5 61t-49 103q-27 -64 -43 -102t-37 -69.5 t-39.5 -51.5t-37.5 -22q-12 0 -28 29.5t-30.5 69t-28 79.5t-47.5 68q-16 -61 -30 -109t-33.5 -91.5t-43.5 -71.5t-52 -31q-14 0 -25 28.5t-22 74t-24.5 95t-62.5 95.5q-7 -69 -24.5 -120t-45 -104.5t-60 -102t-62.5 -75.5q-86 -68 -195.5 -89t-213 8t-183 105t-108.5 197 q-19 89 -18.5 196.5zM567 558q0 -44 24 -75.5t59 -31.5q41 0 60.5 32t19.5 75t-20 74.5t-60 31.5q-35 0 -59 -31.5t-24 -74.5z" />
<glyph unicode="&#x1000;" horiz-adv-x="1915" d="M100 449q0 189 129 325t323 136q136 0 247 -69t145 -145q30 69 140 141.5t245 72.5q186 0 321 -127t135 -324q0 -195 -129.5 -327t-318.5 -132q-71 0 -115.5 15.5t-44.5 66.5q0 15 13.5 37t43.5 22q10 0 22 -2l38 -9h43q134 0 227 93t93 236q0 128 -93.5 225t-234.5 97 q-125 0 -223 -96.5t-98 -235.5q0 -132 -59.5 -242.5t-150.5 -165.5q-68 -43 -114 -43q-52 0 -51 62q0 52 47 67q82 29 140 121t58 211q0 132 -96 227t-230 95q-125 0 -223.5 -96.5t-98.5 -235.5q0 -107 53 -195.5t146 -127.5q35 -12 40 -60q0 -63 -76 -63h-8 q-122 38 -203.5 162.5t-81.5 283.5z" />
<glyph unicode="&#x1001;" horiz-adv-x="1092" d="M88 269l3 48q0 32 41 67q97 80 239 80q124 0 236 -69.5t149 -148.5q15 14 43.5 75.5t28.5 122.5q0 134 -92 234t-224 100q-185 0 -288 -177l-19 -18q-21 -14 -45 -14q-59 0 -59 61l3 30l8 8q57 111 164 175.5t236 64.5q181 0 314 -139.5t133 -324.5q0 -176 -132.5 -310 t-329.5 -134q-135 0 -242.5 67t-166.5 202zM219 299q26 -61 106 -122q84 -49 172 -49q107 0 175 45q-36 73 -122 128t-175 55q-101 0 -156 -57z" />
<glyph unicode="&#x1002;" horiz-adv-x="1123" d="M91 463q0 191 124.5 316.5t337.5 125.5q185 0 315.5 -123t130.5 -313q0 -122 -29 -199q-58 -153 -224 -252h-29q-25 0 -43.5 18t-18.5 40q0 20 12 40l24 20q77 43 129 130q47 97 47 203q0 123 -93.5 215t-220.5 92q-144 0 -246 -99q-83 -79 -83 -214q0 -208 174 -333 l11 -9l15 -37q0 -52 -65 -69l-35 4l-10 9q-100 77 -165 188q-58 119 -58 247z" />
<glyph unicode="&#x1003;" horiz-adv-x="1867" d="M85 673q0 89 64 153t153 64t151 -67t62 -150q0 -88 -67 -151.5t-151 -63.5q-24 0 -45 -22t-21 -61q0 -40 30 -95t84 -95q86 -64 188 -64q130 0 228.5 93t98.5 228q0 109 -54.5 204t-143.5 129q-36 11 -48 63q0 66 56 66l19 -2q103 -30 199 -147q101 -141 102 -303 q0 -134 91 -232.5t230 -98.5q130 0 228.5 93t98.5 228q0 129 -93 229.5t-225 100.5l-45 -3l-35 -7q-9 -4 -17 -4q-12 0 -32.5 10t-31.5 47q0 49 51 70l65 13l43 2q178 0 313.5 -136.5t135.5 -321.5q0 -186 -129.5 -317.5t-326.5 -131.5q-135 0 -241 68.5t-143 145.5 q-18 -41 -65 -85q-136 -129 -329 -129q-161 0 -262 78.5t-168 237.5l-11 71q0 89 61 149.5t144 60.5q28 0 58 25t30 58q0 36 -23 62t-60 26q-36 0 -61.5 -21.5t-25.5 -61.5q0 -47 -54 -66l-13 -2q-31 0 -54 41z" />
<glyph unicode="&#x1004;" horiz-adv-x="1092" d="M91 446q0 186 128 325t319 139q128 0 234.5 -63.5t167.5 -181.5l9 -34q0 -24 -19 -42t-42 -18q-21 0 -40 12l-22 21q-40 81 -115 129t-173 48q-124 0 -220.5 -97.5t-96.5 -237.5q0 -124 97 -220t235 -96q195 0 287 192l11 11q23 23 47 23q58 0 63 -64v-22 q-56 -122 -164 -196t-244 -74q-189 0 -325.5 128.5t-136.5 317.5z" />
<glyph unicode="&#x1005;" horiz-adv-x="1129" d="M94 452q0 188 128.5 324t322.5 136q192 0 322 -130q135 -129 135 -321q0 -193 -132 -325q-128 -133 -317 -133t-325 128q-134 129 -134 321zM224 452q0 -58 20 -112.5t50 -86.5q42 28 86 94q18 35 27 62t9 63q0 63 -29 111.5t-85 83.5q-78 -81 -78 -215zM379 177 q60 -45 174 -45q133 0 226 93t93 236q0 133 -95 226q-96 95 -232 96q-54 0 -98 -17q-23 -3 -40 -15l-14 -8q140 -85 140 -274q0 -187 -154 -292z" />
<glyph unicode="&#x1006;" horiz-adv-x="1852" d="M88 269l3 48q0 32 41 67q97 80 239 80q124 0 236 -69.5t149 -148.5q15 14 43.5 75.5t28.5 122.5q0 134 -92 234t-224 100q-185 0 -288 -177l-19 -18q-21 -14 -45 -14q-59 0 -59 61l3 30l8 8q57 111 164 175.5t236 64.5q119 0 228 -64.5t152 -152.5q32 70 143.5 144.5 t247.5 74.5q185 0 320.5 -127t135.5 -324q0 -195 -129.5 -327t-319.5 -132q-135 0 -247.5 67t-146.5 144q-31 -70 -146.5 -140.5t-252.5 -70.5q-135 0 -242.5 67t-166.5 202zM219 299q26 -61 106 -122q84 -49 172 -49q107 0 175 45q-36 73 -122 128t-175 55q-101 0 -156 -57 zM961 449q0 -133 93.5 -226t235.5 -93q134 0 226.5 93t92.5 236q0 128 -93.5 225t-232.5 97q-125 0 -223.5 -96.5t-98.5 -235.5z" />
<glyph unicode="&#x1007;" horiz-adv-x="1139" d="M94 452q0 188 128.5 324t322.5 136q124 0 236 -67.5t166 -166.5l33 6q80 0 141.5 -58t61.5 -157l-8 -34q-10 -29 -51 -35q-28 0 -55 25l-17 44q0 32 -20 56q-19 20 -40 27l1 -11q0 -45 -39 -107.5t-123 -88.5l-41 -13h-33q-62 0 -120.5 38.5t-82.5 97.5l-17 56v33 q0 63 40 120q35 51 92 79q-13 4 -31 9q-26 8 -50.5 13t-42.5 5q-131 0 -226 -99t-95 -232q0 -134 93 -227t236 -93q76 0 127 26t104 78q31 27 70 28q45 0 56 -48q0 -66 -115 -139.5t-242 -73.5q-188 0 -323.5 126t-135.5 323zM658 554l7 -35q21 -67 94 -67l35 6q69 22 69 96 l-7 34q-22 69 -97 69l-33 -7q-68 -22 -68 -96zM658 760q1 0 1 -1q6 3 11 5z" />
<glyph unicode="&#x1008;" horiz-adv-x="1392" d="M94 452q0 188 128.5 324t322.5 136q192 0 322 -130q135 -129 135 -321q0 -194 -132 -325q-71 -75 -162 -108q-22 -11 -43 -13q-34 -8 -73 -11q-115 -27 -198 -115q-122 -127 -121 -318q0 -182 126.5 -313t308.5 -140q182 9 309 140t127 313q0 12 -1 1317h2q2 13 20 23 q20 11 49 12q29 0 50 -23t14 -29v-1300q0 -237 -168 -408.5t-406 -171.5h-7q-234 9 -396 173t-162 407t161 407q35 34 71 60q-78 31 -143 93q-134 129 -134 321zM224 452q0 -58 20 -112.5t50 -86.5q42 28 86 94q18 35 27 62t9 63q0 63 -29 111.5t-85 83.5q-78 -81 -78 -215z M379 177q60 -45 174 -45q133 0 226 93t93 236q0 133 -95 226q-96 95 -232 96q-54 0 -98 -17q-23 -3 -40 -15l-14 -8q140 -85 140 -274q0 -187 -154 -292z" />
<glyph unicode="&#x1009;" horiz-adv-x="1092" d="M97 69v222q0 39 52 66l49 -9l23 -24q33 -82 109.5 -137t177.5 -55q142 0 236.5 93t94.5 224q0 134 -92 234t-224 100q-184 0 -289 -178l-18 -18q-21 -14 -44 -14q-61 0 -60 61l4 31l7 9q57 108 164 173t236 65q181 0 314 -139.5t133 -323.5q0 -182 -138 -314t-324 -132 q-85 0 -171 38q-73 32 -100 52v-702q0 -119 52 -188t158 -69h459v5h44q101 0 168 86q31 42 32 82v27q1 17 1 35q0 187 -208 300q307 -5 335 -336l-3 -27q-11 -130 -105.5 -217.5t-219.5 -87.5h7l-91 -6h-419q-166 0 -257.5 109t-91.5 287v678h-1z" />
<glyph unicode="&#x100a;" horiz-adv-x="1857" d="M101 639l12 37q139 234 395 234q182 0 318.5 -126t136.5 -335q0 -131 92 -225t239 -94q133 0 225.5 93t92.5 236q0 132 -95.5 227t-230.5 95q-58 0 -105 -18q-14 -5 -28 -5q-48 0 -65 62q0 30 41 59q78 31 157 31q186 0 321 -127.5t135 -323.5q0 -188 -127 -323.5 t-321 -135.5q-136 0 -248.5 68t-146.5 143q-31 -67 -143 -139t-241 -72q-161 0 -252 68v-61h-4v-616q0 -119 50.5 -188t153.5 -69l508 2l471 3q99 0 164 86q29 42 29 82v27q2 17 2 35q0 187 -202 300q299 -5 326 -336l-2 -27q-12 -130 -104.5 -217.5t-212.5 -87.5l-451 -3 l-528 -3q-162 0 -250.5 109t-88.5 287v818l6 -91v86l-2 5q-19 28 -20 64q0 64 61 64q24 0 53 -32q40 -81 115 -128t178 -47q134 0 226.5 93t92.5 236q0 132 -95.5 227t-230.5 95q-168 0 -275 -160q-19 -49 -68 -48q-60 0 -64 66z" />
<glyph unicode="&#x100b;" horiz-adv-x="1029" d="M93 456q0 177 123.5 302t307.5 125q89 0 180.5 -40.5t156.5 -111.5l21 -25l12 -18l1 -4l4 -7l-4 -1q10 -15 10 -33q0 -26 -22 -47t-50 -21q-40 0 -57 40l-1 2l1 3l-17 20q-90 109 -235 109q-129 0 -214.5 -85.5t-85.5 -207.5q0 -123 91 -212.5t209 -89.5q149 0 235 99 q18 25 50 26h26q67 0 67 -68v-229q0 -38 -27 -57q-103 -72 -134 -89q-93 -55 -195 -55l-23 1q-151 2 -250 58v-84q117 -69 255 -71h28q133 0 183 42l53 44q27 21 54 21q57 0 56 -74v-64h2v-230q10 -156 97.5 -235t221.5 -79q53 0 108 4q111 16 184 181q20 -155 -80 -234 q-39 -38 -119 -59q-53 -16 -140 -16q-156 0 -276 111t-120 302v11h-6v182h-3q-98 -38 -218 -37h-27q-194 2 -359 105q-28 19 -28 58v264q0 75 58 75q27 0 56 -32q103 -111 271 -111h13q101 0 204 80l30 23v70q-107 -68 -247 -68q-175 0 -305 129q-126 133 -126 308z" />
<glyph unicode="&#x100c;" horiz-adv-x="1108" d="M100 449q0 185 128 324t319 139q127 0 234.5 -63.5t167.5 -181.5l9 -34q0 -23 -18.5 -41.5t-42.5 -18.5q-21 0 -40 12l-22 21q-40 81 -115 129t-173 48q-124 0 -220.5 -97t-96.5 -237q0 -124 97 -220.5t235 -96.5q194 0 288 192l10 12q23 23 48 23q62 0 62 -68l1 -272 l1 -805l-7 -69q0 -38 -53 -85q-30 -29 -83.5 -43.5t-92.5 -14.5h-382q-117 0 -197 89q-20 20 -44 97l-10 61q0 100 65 165q69 54 162 54q169 0 248 -81l11 -18l44 -82q70 -66 -129 61q-69 27 -143 16.5t-101 -46t-27 -85.5l6 -30l16 -23q41 -46 99 -46h382q55 0 90 28 q9 7 17 47l-4 50v834q-3 -5 -101 -54q-90 -35 -176 -36q-189 0 -325.5 128.5t-136.5 317.5z" />
<glyph unicode="&#x100d;" horiz-adv-x="1046" d="M94 649q0 18 9 34l-2 1l4 12l35 42q60 67 150.5 111t193.5 44q184 0 314 -123.5t130 -311.5q0 -182 -131 -315q-137 -131 -313 -131q-155 0 -251 82v-138q89 -62 215 -61h21q65 3 142 29l138 47q11 2 18.5 4t15.5 2q59 0 59 -70v-65h-3v-408q10 -156 98 -235t222 -79 q52 0 107 4q111 16 184 182q20 -155 -80 -235q-39 -38 -119 -60q-53 -15 -140 -15q-156 0 -276 111t-120 302v11h-6v399h-1q-81 -41 -234 -53q-190 2 -272 59l-61 34q-40 29 -40 61v288q0 68 64 68h28q32 0 52 -26q86 -101 239 -101q123 0 216.5 89.5t93.5 219.5 q0 119 -88.5 209t-221.5 90q-151 0 -239 -111l-18 -21l1 -2l-1 -3q-22 -42 -60 -41q-27 0 -50 21t-23 49z" />
<glyph unicode="&#x100e;" horiz-adv-x="1092" d="M91 395q0 138 141 192q113 50 120 105q0 18 -23 40t-50 22q-20 0 -36.5 -9t-16.5 -24q0 -69 -68 -69q-67 0 -67 69q0 76 60.5 120t135.5 44q76 0 137.5 -57t61.5 -137v-5q-6 -104 -106 -176q-15 -9 -96 -45q-21 -7 -34 -23t-25 -49l-2 -11l2 -34q21 -81 108 -146 q92 -61 185 -61q135 0 227.5 95t92.5 225q0 205 -158 302q-30 24 -30 57q0 26 19 48t48 22q24 0 57 -24q91 -68 147 -173t56 -232q0 -185 -131.5 -321.5t-327.5 -136.5q-139 0 -263.5 94t-158.5 222q0 18 -2 31q-3 24 -3 45z" />
<glyph unicode="&#x100f;" horiz-adv-x="2101" d="M100 449q0 190 128.5 325.5t323.5 135.5q182 0 288 -100q10 27 68 67q25 11 57 22t60 11q75 0 138 -33q47 -26 75 -76q61 50 118 73q39 22 81 29t91 7q187 0 320 -130q134 -134 134 -321q0 -185 -136 -323q-134 -136 -313 -136l-93 7q-48 22 -48 69l18 51l57 9l68 -6 q131 0 224 98q93 104 93 231q0 133 -96 225q-96 95 -228 96q-82 0 -154 -40q-54 -28 -118 -116l-34 -118l-9 -76q0 -39 31 -124q5 -26 9 -49.5t10 -49.5q0 -85 -69 -147q-70 -60 -144 -60q-88 0 -159.5 54.5t-71.5 147.5q0 58 34 145l15 76q0 36 -34 133l-13 48l-7 45 q-44 58 -113 94.5t-149 36.5q-129 0 -226 -100q-95 -97 -95 -231q0 -133 94 -226t235 -93l57 3q27 0 48.5 -19.5t21.5 -47.5q0 -34 -42 -59l-83 -7q-190 0 -326 130q-136 127 -136 319zM943 688q0 -19 34 -147q20 -84 21 -120q-1 -35 -33 -135q-13 -40 -13 -84q0 -32 29 -53 t63 -21q27 0 56.5 23t29.5 55q0 50 -31 134l-17 88q0 60 24 141.5t24 123.5q0 38 -30 63t-70 25q-36 0 -61.5 -23.5t-25.5 -69.5z" />
<glyph unicode="&#x1010;" horiz-adv-x="1888" d="M100 449q0 189 129 325t323 136q136 0 247 -69t145 -145q30 69 140 141.5t245 72.5q186 0 321 -127t135 -324q0 -195 -129.5 -327t-319.5 -132l-96 10q-61 0 -61 66q0 64 56 64l103 -10q133 0 226 93t93 236q0 128 -93.5 225t-234.5 97q-125 0 -223 -96t-98 -236 q0 -188 -133 -318.5t-315 -130.5q-189 0 -324.5 126.5t-135.5 322.5zM230 449q0 -133 93.5 -226t236.5 -93q133 0 225.5 93t92.5 236q0 132 -96 227t-230 95q-125 0 -223.5 -96.5t-98.5 -235.5z" />
<glyph unicode="&#x1011;" horiz-adv-x="1888" d="M100 449q0 189 129 325t323 136q136 0 247 -69t145 -145q30 68 140 141t245 73q192 0 324 -131q133 -129 132 -320q0 -195 -129 -326q-130 -133 -319 -133q-135 0 -247.5 68t-145.5 143q-32 -67 -144.5 -139t-239.5 -72q-189 0 -326 129q-134 128 -134 320zM230 449 q0 -133 93.5 -226t236.5 -93q133 0 225.5 93t92.5 236q0 132 -95 225q-96 96 -231 97q-130 0 -226 -101q-96 -97 -96 -231zM1008 449q0 -133 93 -226t236 -93q134 0 227 93t93 236q-1 132 -96 225q-95 96 -232 97q-130 0 -225 -101q-96 -97 -96 -231z" />
<glyph unicode="&#x1012;" horiz-adv-x="1119" d="M107 223l17 32l37 38q41 -5 54 -16l21 -15q20 -69 96 -100q86 -30 240 -30q149 0 218 35q88 46 88 139q0 51 -67 77l-107 31q-19 3 -36 19q-20 20 -20 55q0 39 39 52l25 2q80 8 118 35q43 28 43 96q0 36 -87 74q-95 41 -219 41q-146 0 -235.5 -31t-89.5 -99q0 -18 23 -47 l47 -51l4 -39l-9 -34q-18 -17 -49 -22h-30q-40 31 -73 80q-45 68 -44 113q0 141 147 209q113 53 309 53q190 0 307 -57q133 -56 133 -190q0 -84 -34 -134.5t-51 -59.5q13 -5 49 -53q40 -47 40 -120q0 -165 -135 -243q-105 -60 -304 -60q-112 0 -183.5 10.5t-130.5 39.5 q-101 52 -151 170z" />
<glyph unicode="&#x1013;" horiz-adv-x="1114" d="M94 428q0 190 128.5 325t322.5 135q192 0 323 -131q134 -129 134 -320q0 -193 -132 -325q-128 -134 -317 -134q-188 0 -324 128q-135 130 -135 322zM225 428q0 -72 27 -133q131 128 288 128q42 0 86 -10t121 -48q45 -22 93 -80q32 69 33 152q0 134 -94 225 q-98 95 -234 95q-130 0 -226 -99q-94 -97 -94 -230zM322 201q54 -46 108.5 -66t116.5 -20q57 0 112 18q51 22 104 67q-46 52 -93 68t-73 19q-28 5 -52 5q-126 0 -223 -91z" />
<glyph unicode="&#x1014;" horiz-adv-x="1119" d="M88 255q0 109 57 172t151 63l49 -4q131 -23 215 -108q85 -84 85 -176v-76q97 0 166 35q70 29 70 89q0 65 -26.5 99.5t-102.5 73.5l-238 85q-62 30 -99 52t-54 34q-67 51 -67 127q0 80 81 135q80 55 169 54q112 0 176 -33q73 -31 115 -81l10 -11q10 -18 10 -40 q0 -26 -21 -47l-34 -14q-25 0 -48 14l-19 13q-20 26 -67.5 46.5t-121.5 20.5q-43 0 -81 -16t-38 -41q0 -23 33 -46l107 -45l240 -87q106 -62 156 -126t50 -171q0 -113 -122 -183q-114 -67 -244 -67v-924l-3 -26q-12 -44 -64 -44q-45 0 -59 48l-5 20v923q-151 0 -271 53 q-155 71 -155 209zM219 261q0 -67 102 -109q91 -29 193 -29v79q0 45 -52 89.5t-140 64.5l-12 2h-10q-36 0 -58.5 -22.5t-22.5 -74.5z" />
<glyph unicode="&#x1015;" horiz-adv-x="1129" d="M100 449q0 206 107 329l86 89l39 10q22 0 54 -23l15 -44l-22 -45l-66 -68q-35 -35 -57.5 -101.5t-22.5 -146.5q0 -173 150 -269q75 -49 179 -48q124 0 221.5 93t97.5 219q0 116 -49 205l-40 59l-70 67q-15 22 -15 42q0 38 45 57h48l65 -44q75 -92 112 -184t37 -202 q0 -161 -126 -302.5t-326 -141.5q-242 0 -385 201q-77 108 -77 248z" />
<glyph unicode="&#x1016;" horiz-adv-x="1123" d="M100 449q0 142 55 250t173 197l37 9q23 0 54 -22l10 -22l5 -22l-11 -35l-15 -15q-90 -67 -133 -148q-42 -88 -42 -192q0 -78 25 -129.5t75 -100.5q21 -17 46.5 -33.5t55.5 -31.5q58 -22 127 -22q105 0 189.5 64.5t105.5 139.5q-117 11 -208.5 110.5t-91.5 224.5 q0 143 124 213q6 12 53 19h20q111 -64 187 -183q12 -24 25 -56.5t25 -75.5q7 -38 12 -70.5t5 -73.5q0 -173 -128 -310q-58 -60 -142 -102q-81 -32 -176 -32q-42 0 -84 4t-95 23q-119 47 -201 157.5t-82 264.5zM665 671q0 -39 16 -77t47.5 -71t75.5 -56.5t72 -26.5l5 39 q0 46 -10 86q-12 42 -42 92q-52 81 -129 126l7 -8q-42 -28 -42 -104z" />
<glyph unicode="&#x1017;" horiz-adv-x="1114" d="M91 446q0 275 228 447l37 10q23 0 55 -23l13 -41q0 -63 32 -92.5t76 -29.5q41 0 79 30t45 75q-5 5 -5 13q0 44 50 65h43q120 -55 187.5 -182t67.5 -276q0 -181 -122.5 -311.5t-323.5 -130.5q-210 0 -336 116.5t-126 329.5zM224 446q0 -146 86 -235q97 -81 243 -81 q126 0 220 89.5t94 222.5q0 98 -34 184t-83 119q-9 -43 -73 -94.5t-139 -51.5q-70 0 -129 40.5t-73 94.5q-31 -26 -76 -114q-35 -80 -36 -174z" />
<glyph unicode="&#x1018;" horiz-adv-x="1847" d="M106 257q0 71 62 70q29 0 62 -42q36 -68 110.5 -111.5t169.5 -43.5q134 0 226.5 93t92.5 236q0 132 -95 227t-230 95q-167 0 -274 -158q-17 -27 -59 -38q-65 0 -65 67q0 17 10 37q41 85 152 153t236 68q136 0 247 -69t143 -145q31 69 141.5 141.5t246.5 72.5 q185 0 320.5 -127.5t135.5 -323.5q0 -188 -127 -323.5t-323 -135.5l-53 3q-34 0 -77.5 15t-43.5 64q0 21 18 40.5t54 19.5l15 -1l46 -9l43 -2q132 0 224.5 93t92.5 236q0 132 -95.5 227t-229.5 95q-126 0 -224.5 -96.5t-98.5 -235.5q0 -192 -138 -320.5t-311 -128.5 q-121 0 -221.5 53t-167.5 158z" />
<glyph unicode="&#x1019;" horiz-adv-x="1108" d="M91 449q0 206 112 334l75 72l37 10q22 0 54 -22l11 -24l3 -20l-10 -36l-14 -15l-58 -52l-36 -56q-41 -87 -41 -191q0 -86 23 -130q0 7 40 41q100 84 248 84q187 0 310 -129q1 1 14 45.5t13 83.5q0 116 -49 205l-40 58q-16 22 -43 38l-20 20q-15 22 -15 43q0 36 45 57h45 q40 -23 82 -71l54 -73q74 -119 74 -277q0 -86 -35.5 -165t-97.5 -141t-144 -100t-175 -38q-101 0 -174.5 30t-148.5 96q-139 134 -139 323zM311 232l36 -37q18 -16 57 -31l73 -25l77 -7q63 0 127 26.5t97 69.5q-26 38 -95.5 73t-144.5 35q-73 0 -136.5 -32.5t-90.5 -71.5z " />
<glyph unicode="&#x101a;" horiz-adv-x="1904" d="M100 452q0 323 282 445l30 6q58 0 57 -67q0 -34 -35 -59l-83 -52q-51 -39 -86 -113.5t-35 -159.5q0 -124 90 -223t232 -99h45q16 0 29.5 2t26.5 6.5t33 10.5q43 18 98 65q94 95 94 228q0 109 -54 204t-144 129q-36 11 -47 63q0 66 55 66l20 -2q103 -30 198 -147 q101 -141 102 -303q0 -134 91 -232.5t230 -98.5q130 0 229 93t99 228q0 129 -93.5 229.5t-225.5 100.5l-44 -3l-37 -7q-8 -4 -16 -4q-47 0 -64 57q0 49 51 70l66 13l42 2q178 0 313.5 -136.5t135.5 -321.5q0 -186 -129.5 -317.5t-326.5 -131.5q-135 0 -241 68.5t-144 145.5 q-31 -70 -145 -146q-52 -30 -108 -45.5t-139 -15.5q-223 0 -363 187q-88 118 -89 265z" />
<glyph unicode="&#x101b;" horiz-adv-x="1098" d="M76 452q0 188 128.5 324t322.5 136q175 0 318 -128q139 -124 138 -312l3 -942l-3 9q21 -227 65 -296q58 -102 174 -112q23 0 67 7q126 2 192 96q60 112 60 204q0 89 -55 247q-49 87 -184 229q347 -199 356 -515q0 -166 -118 -294q-81 -92 -196 -106q-40 -6 -79 -6 q-218 0 -315 165q-83 111 -92 375l-4 928q0 133 -96 226q-96 95 -231 96q-131 0 -226 -100q-95 -98 -95 -231l1 -57l6 -22l5 -10l46 24l78 10q120 0 214 -96q98 -97 98 -216l-10 -77l-109 -5q-195 0 -326 128q-133 134 -133 321zM265 268q26 -45 96 -87q84 -52 170 -51l10 1 q-4 38 -64 98t-134 60l-52 -7z" />
<glyph unicode="&#x101c;" horiz-adv-x="1888" d="M100 449q0 189 129 325t323 136q168 0 303 -111q153 -128 153 -350q0 -123 97 -221t232 -98q134 0 227 93t93 236q0 128 -93.5 225t-232.5 97l-40 -6q-16 0 -28.5 -3t-23.5 -3q-64 0 -64 62q0 41 41 63l63 14l50 2q186 0 321 -127t135 -324q0 -195 -129.5 -327 t-318.5 -132q-171 0 -312.5 124t-141.5 315q0 139 -96 240.5t-235 101.5q-125 0 -223.5 -96.5t-98.5 -235.5q0 -133 93.5 -226t236.5 -93q42 0 70 9q10 2 20 2q50 0 65 -61q0 -57 -66 -70l-88 -10q-190 0 -325.5 126.5t-135.5 322.5z" />
<glyph unicode="&#x101d;" horiz-adv-x="1129" d="M103 452q0 188 128.5 324t323.5 136q192 0 321 -130q135 -129 135 -321q0 -193 -132 -325q-128 -133 -317 -133t-325 128q-134 129 -134 321zM233 452q0 -134 93 -227t236 -93q133 0 226 93t93 236q0 133 -95 226q-96 95 -231 96q-131 0 -227 -100q-95 -98 -95 -231z" />
<glyph unicode="&#x101e;" horiz-adv-x="1852" d="M120 639l11 37q139 234 394 234q184 0 320 -126.5t136 -334.5q0 -131 92 -225t238 -94q134 0 226.5 93t92.5 236q0 128 -93 225t-234 97q-57 0 -105 -18q-14 -5 -28 -5q-48 0 -65 62q0 30 43 59q77 31 155 31q186 0 321 -127t135 -324q0 -195 -129.5 -327t-318.5 -132 q-135 0 -247.5 68t-145.5 143q-32 -67 -144.5 -139t-241.5 -72q-161 0 -293 99l-86 97l-8 13q-18 28 -18 64q0 64 60 64q24 0 53 -32q40 -81 115 -128t177 -47q134 0 227 93t93 236q0 132 -96 227t-231 95q-165 0 -275 -160q-18 -49 -68 -48q-59 0 -62 66z" />
<glyph unicode="&#x101f;" horiz-adv-x="1838" d="M77 452q0 141 55.5 249t172.5 198l37 9q22 0 53 -23l12 -22l3 -20l-12 -36l-14 -15q-90 -68 -133 -148q-43 -88 -42 -192q0 -148 88 -236q95 -82 241 -82q126 0 222 92q92 88 93 220q0 76 -8 111q-8 49 -36 96q-41 85 -133 132l-20 21q-24 34 -11 64q12 22 40 35h45 q150 -71 197 -193q1 2 44.5 47.5t97 79.5t114 52.5t126.5 18.5q188 0 318 -138q136 -141 136 -333q0 -182 -139 -312q-141 -130 -329 -130q-89 0 -139 24l-26 10q-36 25 -36 60q0 22 10 41.5t53 23.5l37 -6l20 -8q35 -14 81 -14q136 0 234 89q102 88 102 222 q0 135 -95.5 237t-226.5 102q-133 0 -228.5 -96t-95.5 -229q0 -189 -124 -319.5t-323 -130.5q-211 0 -336 117.5t-125 331.5z" />
<glyph unicode="&#x1020;" horiz-adv-x="1104" d="M92 444q0 187 128.5 316t321.5 129q92 0 188 -41.5t162 -116.5l24 -27l11 -18l7 -11l-5 -1q8 -16 8 -34q0 -28 -22.5 -49.5t-51.5 -21.5q-43 0 -59 41l-2 2l2 3l-19 21q-93 114 -243 113q-131 0 -222 -86t-91 -219q0 -127 92 -222q96 -92 221 -92q163 0 236 102 q23 24 62 27h78q70 0 70 -68v-249q0 -38 -29 -59l-57 -41q-152 -107 -337 -108h-24q-156 2 -259 63v-415q0 -119 52 -188t159 -69h76v5h135q102 0 178 105q21 23 21 62v28q2 17 2 35q0 187 -172 285q272 -8 300 -320l-3 -29q-12 -130 -107 -217t-219 -87h-29v-6h-182 q-166 0 -257.5 109t-91.5 287v-26h-5v586q0 77 60 77q27 0 58 -28q123 -117 285 -121h17q151 0 260 83l38 25v130q-130 -120 -315 -119q-185 0 -317.5 134t-132.5 321z" />
<glyph unicode="&#x1021;" horiz-adv-x="1850" d="M80 223l16 32l38 38q41 -5 54 -16l21 -15q20 -69 95 -100q86 -30 240 -30q149 0 218 35q88 46 89 139q0 51 -67 77l-108 31q-19 3 -35 19q-20 20 -21 55q0 39 40 52l24 2q81 8 119 35q43 28 43 96q0 36 -88 74q-95 41 -219 41q-146 0 -235 -31t-89 -99q0 -18 22 -47 l48 -51l4 -39l-9 -34q-18 -17 -50 -22h-28q-41 31 -74 80q-45 68 -45 113q0 141 147 209q113 53 309 53q76 0 147 -11.5t129.5 -34t100 -60t43.5 -43.5q39 42 130 89q56 24 110.5 40t112.5 16q188 0 323 -140q136 -136 136 -327q0 -193 -138 -322q-143 -134 -331 -134l-70 7 q-30 0 -43 4l-59 21l11 34l-3 14v18q0 122 88 210t211 88q56 0 101.5 -16t76.5 -37l15 40l8 75q0 138 -94 234q-94 97 -232 98q-118 0 -217 -72q-73 -48 -136 -143q-24 -69 -64 -89q12 -5 49 -53q40 -47 39 -120q0 -165 -134 -243q-105 -60 -305 -60q-112 0 -182.5 10.5 t-131.5 39.5q-101 52 -150 170zM1275 126l28 -3q153 0 241 101q-36 29 -105 29q-65 0 -109.5 -41t-54.5 -86z" />
<glyph unicode="&#x1022;" horiz-adv-x="1911" d="M92 161q0 72 72 72q73 0 73 -72q0 -20 32 -31q30 -8 51 2q50 31 50 60q-7 58 -127 108q-65 23 -93 57q-25 15 -47 76q-18 49 -8 115q2 12 2 19.5v12.5q34 132 169 231q133 99 282 99q204 0 347 -140q33 -33 60 -70q45 62 113 111q133 101 297 101q191 0 321 -130 q136 -129 136 -321q0 -194 -131 -325q-130 -133 -317 -133q-90 0 -157 23q-57 11 -57 63q0 22 19.5 45.5t61.5 23.5q72 -26 133 -26q133 0 226 93t93 236q0 133 -95 226q-96 95 -232 96q-121 0 -216 -68q-81 -60 -127 -157q8 -61 8 -126q0 -68 -16.5 -131.5t-44.5 -119.5 t-72.5 -104t-98.5 -81q-25 -11 -38 -11q-31 0 -51.5 22t-20.5 50q0 35 33 61q168 100 177 314q0 137 -98 235q-99 107 -253 108q-99 0 -197 -72q-92 -67 -116 -152q2 -15 -1 -27.5t1 -19.5q13 -38 25.5 -53t38.5 -22q38 -17 63 -28t39 -21q106 -73 113 -182q1 -80 -62 -144 q-67 -65 -151 -65q-41 0 -77.5 13t-67.5 35t-47.5 55t-16.5 69z" />
<glyph unicode="&#x1023;" horiz-adv-x="1938" d="M82 466q0 203 137 345q138 145 337 145q273 -3 406 -233q146 220 396 220q204 0 340 -145q136 -144 136 -345q0 -303 -228 -442q-24 -12 -37 -12q-30 0 -51 24t-21 48q0 40 31 60q158 98 158 322q0 142 -94 241q-92 103 -234 104q-123 0 -220 -89q-91 -92 -104 -219 q1 -20 1 -55.5v-89.5q0 -20 -10 -56q-8 -63 -67 -63q-35 0 -59.5 25.5t-15.5 65.5q5 29 5 40v25t-2 51q-3 10 -3 20q0 11 0.5 20.5t2.5 19.5q-12 135 -106 224q-92 94 -224 94t-231 -102q-96 -104 -96 -243q0 -44 12.5 -88.5t35 -88.5t54.5 -81.5t72 -63.5q32 -22 32 -57 q0 -32 -21 -54t-51 -22q-16 0 -43 8q-111 77 -174 202q-64 124 -64 245zM282 -289q0 139 105 224q108 83 271 83q200 0 304 -116q107 109 295 109q286 -3 374 -277q6 -32 7 -115.5t-5 -218.5l157 16q76 6 76 -72q0 -77 -76 -77h-238q-51 0 -52 158v168q0 74 -10 101 q-58 167 -233 168q-204 4 -223 -135v-16q0 -71 -9 -106q-5 -58 -67 -58q-35 0 -59.5 22t-15.5 62q3 11 3 17v33q-3 13 -3 21q0 9 3 30q-22 137 -228 142q-102 0 -166 -43.5t-64 -119.5q0 -106 49 -173q17 -23 17 -46q0 -76 -77 -76q-64 0 -106 122q-29 93 -29 173z" />
<glyph unicode="&#x1024;" horiz-adv-x="2222" d="M73 449q0 189 129 325t322 136q136 0 247.5 -69t145.5 -145q30 69 140 141.5t245 72.5q192 0 323 -131q134 -129 134 -320l3 -620l2 -531q0 -119 -103 -207q-105 -91 -233 -92h-1082q-53 0 -100.5 18.5t-86 50.5t-62.5 77.5t-24 99.5q0 135 129 222q139 94 389 94 q147 0 270 -65q101 -53 169 -137l4 -24q0 -38 -18.5 -48.5t-38.5 -17.5l-39 3q-58 60 -149 109q-53 23 -107.5 36.5t-108.5 13.5q-189 0 -289 -66q-78 -50 -78 -120q0 -43 43 -78.5t97 -35.5h1082q77 0 140 51q59 51 59 121v1177q0 119 -95 203q-93 87 -230 88 q-130 0 -225 -101q-96 -97 -97 -231q0 -172 -99 -303q-81 -113 -200 -145q-76 -16 -76 59q0 52 48 67q82 29 142 124q56 99 56 208q0 132 -95 225q-97 96 -232 97q-130 0 -225 -101q-96 -97 -96 -231q0 -107 52.5 -195.5t145.5 -127.5q35 -12 41 -60q0 -67 -84 -63 q-123 39 -207 168q-78 130 -78 278zM1220 1422q0 214 144.5 353t331.5 147q36 0 67 5q102 -7 220 -47q195 -76 299 -167q177 -125 329 -438q-181 208 -275 284q-113 84 -291.5 154t-305.5 70q-135 0 -263 -96q-107 -92 -107 -260q0 -148 109 -272.5t263 -140.5q12 0 24 1v-5 q31 -1 60 -11q188 -54 227 -344v-1555q0 -80 -57 -92q-72 0 -72 84v1553q-14 104 -53 164t-107 69h-18v12h-16q-102 0 -199 50q-129 65 -219.5 198t-90.5 284z" />
<glyph unicode="&#x1025;" horiz-adv-x="1092" d="M97 69v222q0 39 52 66l49 -9l23 -24q33 -82 109.5 -137t177.5 -55q142 0 236.5 93t94.5 224q0 134 -92 234t-224 100q-184 0 -289 -178l-18 -18q-21 -14 -44 -14q-61 0 -60 61l4 31l7 9q57 108 164 173t236 65q181 0 314 -139.5t133 -323.5q0 -182 -138 -314t-324 -132 q-85 0 -171 38q-73 32 -100 52v-702q0 -119 52 -188t158 -69h213v5h44q102 0 169 86q30 42 30 82v27q2 17 2 35q-20 161 -325 279q425 16 453 -315l-3 -27q-12 -130 -107 -217.5t-219 -87.5h8l-75 -5v-1h-190q-166 0 -257.5 109t-91.5 287v678h-1z" />
<glyph unicode="&#x1026;" horiz-adv-x="1129" d="M31 1414q0 211 144.5 359t353.5 148q208 0 352.5 -150t144.5 -357q0 -206 -146.5 -352.5t-350.5 -149.5q-127 0 -238.5 62.5t-178.5 170.5q-80 125 -81 269zM106 69v222q0 39 52 66l49 -9l23 -24q33 -82 109.5 -137t177.5 -55q142 0 237 93t95 224q0 134 -92.5 234 t-224.5 100q-184 0 -289 -178l-18 -18q-21 -14 -44 -14q-61 0 -60 61l4 31l7 9q57 108 164.5 173t235.5 65q181 0 314 -139.5t133 -323.5q0 -182 -137.5 -314t-324.5 -132q-85 0 -171 38q-73 32 -100 52v-702q0 -119 52 -188t158 -69h213v5h44q102 0 169 86q30 42 30 82v27 q2 17 3 35q-20 161 -326 279q425 16 453 -315l-3 -27q-12 -130 -107 -217.5t-219 -87.5h8l-75 -5v-1h-190q-166 0 -257.5 109t-91.5 287v678h-1zM174 1414q0 -87 35 -151q126 134 326 134q186 0 327 -134q32 64 32 151q0 150 -105.5 259.5t-253.5 109.5q-158 0 -259.5 -106 t-101.5 -263zM275 1164q100 -115 260 -115t262 117q-108 120 -262 120q-160 0 -260 -122z" />
<glyph unicode="&#x1027;" horiz-adv-x="1019" d="M73 446q0 190 129 326q131 139 318 138q131 0 234 -64q106 -62 168 -181l9 -34q0 -35 -26 -50q-78 -86 -182 -86q-105 0 -195 88q-83 91 -83 189q-84 -15 -163 -112q-79 -95 -79 -214q0 -120 80 -207t179 -102v-2q0 117 83 201q81 80 192 80q103 0 171 -68q19 -10 35 -47 v-31q-56 -122 -164.5 -196t-244.5 -74q-189 0 -325 128.5t-136 317.5zM551 777q0 -76 49 -125.5t116 -49.5q45 0 79 27q-26 56 -99 104t-145 48v-4zM571 130q63 0 131 47.5t105 113.5q-22 17 -73 17q-64 0 -113.5 -48.5t-49.5 -124.5v-5z" />
<glyph unicode="&#x1028;" horiz-adv-x="1056" d="M70 -298v767q0 179 137 313q138 136 322 136q173 0 315 -118q128 -107 127 -236q0 -67 -34 -121q-32 -35 -73 -57l7 -6q62 -70 62 -158q0 -90 -65 -163q-67 -59 -163 -59q-50 0 -98 22q-14 4 -26 16l-2 2q-9 5 -17 11l5 5q-6 10 -6 22q0 23 19.5 40t46.5 17q14 0 26 -4 l8 8q20 -11 44 -11q41 0 70 28q28 25 28 66q0 15 -8.5 32t-23 31.5t-31 23t-31.5 8.5l-17 -1l-53 -30q-13 -11 -19 -25h-7q-2 -19 -18 -35q-17 -18 -42 -18q-24 0 -42 18q-17 18 -17 43h-3q17 81 91 143l21 13l76 21q50 15 79.5 26t46 22.5t24 21t9.5 21.5l-2 21 q0 65 -92 148q-88 82 -215 82q-128 0 -229 -95q-99 -92 -99 -224l1 -769q0 -134 91 -232q94 -97 229 -98q133 0 228 97q97 93 98 225q0 68 69 68q62 0 61 -68q0 -187 -133 -320q-134 -132 -323 -131q-182 0 -318 138q-134 143 -134 323z" />
<glyph unicode="&#x1029;" horiz-adv-x="2184" d="M91 -628v2146q0 164 108.5 278.5t269.5 114.5h1138q165 0 276 -109.5t111 -275.5v-152q0 -66 -71 -66q-67 0 -67 66v152q0 109 -70 177.5t-179 68.5h-1138q-68 0 -100 -15q-22 -11 -69 -56q-73 -70 -73 -183v-202l1 -335l1 -1609q0 -119 60.5 -187.5t174.5 -68.5h1227 q109 0 191 103q22 24 22 63v29q3 16 3 34q0 187 -383 663q489 -350 519 -698l-3 -29q-13 -129 -114 -216.5t-235 -87.5h-1227q-178 0 -275.5 109t-97.5 286zM365 639l12 37q138 234 395 234q182 0 319 -126.5t137 -334.5q0 -131 91 -225t237 -94q134 0 227 93t93 236 q0 128 -93.5 225t-233.5 97q-58 0 -104 -18q-15 -5 -29 -5q-49 0 -65 62q0 30 42 59q78 31 156 31q185 0 320.5 -127t135.5 -324q0 -195 -129.5 -327t-319.5 -132q-135 0 -247.5 68t-145.5 143q-31 -67 -143.5 -139t-240.5 -72q-161 0 -293 99l-88 97l-8 13q-18 28 -18 64 q0 64 61 64q24 0 54 -32q39 -81 113.5 -128t178.5 -47q133 0 225.5 93t92.5 236q0 132 -95.5 227t-229.5 95q-166 0 -275 -160q-18 -49 -69 -48q-58 0 -63 66z" />
<glyph unicode="&#x102a;" horiz-adv-x="4127" d="M73 444q0 189 129 326q131 139 318 138q131 0 234 -65q106 -61 168 -180l9 -34q0 -33 -36 -56q-34 -12 -66 8l-21 21q-42 85 -119 130q-74 46 -169 46q-124 0 -221 -98q-96 -95 -96 -236q0 -69 21 -118t51 -80q39 74 154 145q118 73 234 73q138 0 247 -90q16 -15 28 -53 q0 -30 6 -49q-57 -125 -165.5 -198.5t-244.5 -73.5q-186 0 -324 126q-137 130 -137 318zM360 173q67 -45 174 -45q92 0 171 51.5t108 118.5q-21 20 -67 40l-44 14l-47 4q-92 0 -176 -54t-119 -129zM1084 -628v2146q0 164 108.5 278.5t269.5 114.5h1138q165 0 276 -109.5 t111 -275.5v-152q0 -66 -71 -66q-67 0 -67 66v152q0 109 -70 177.5t-179 68.5h-1138q-68 0 -100 -15q-22 -11 -69 -56q-73 -70 -73 -183v-202l1 -335l1 -1609q0 -119 60 -187.5t175 -68.5h1227q109 0 190 103q22 24 23 63v29q3 16 3 34q0 187 -384 663q489 -350 520 -698 l-4 -29q-12 -129 -113 -216.5t-235 -87.5h-1227q-178 0 -275.5 109t-97.5 286zM1403 639l12 37q138 234 395 234q182 0 319 -126.5t137 -334.5q0 -131 91 -225t237 -94q134 0 227 93t93 236q0 128 -93.5 225t-233.5 97q-58 0 -104 -18q-15 -5 -28 -5q-49 0 -65 62 q0 30 41 59q78 31 156 31q185 0 321 -127t136 -324q0 -195 -130 -327t-320 -132q-135 0 -247 68t-146 143q-31 -67 -143 -139t-241 -72q-161 0 -293 99l-87 97l-8 13q-18 28 -19 64q0 64 61 64q24 0 54 -32q39 -81 113.5 -128t178.5 -47q133 0 225.5 93t92.5 236 q0 132 -95 227t-230 95q-166 0 -275 -160q-18 -49 -69 -48q-58 0 -63 66zM3013 539v29q48 142 183 243q133 101 297 101q191 0 321 -130q136 -129 136 -321q0 -194 -131 -325q-129 -133 -318 -133q-89 0 -156 23q-56 11 -56 63q0 22 19 45.5t62 23.5q71 -26 131 -26 q134 0 227 93t93 236q0 133 -96 226q-95 95 -230 96q-122 -9 -211.5 -77t-144.5 -177l-13 -23l-36 -27l-54 18zM3104 1409q0 223 150.5 367.5t350.5 144.5q29 0 60 5q106 -7 220 -49q209 -71 317 -165q182 -129 339 -456q-188 217 -284 296q-117 96 -301.5 169t-315.5 73 q-147 0 -279 -92q-129 -114 -129 -289q0 -161 126.5 -295t284.5 -134q50 0 85 14q18 10 30 10q49 0 49 -55q0 -44 -35 -68q-68 -28 -141 -28q-105 0 -206 51q-133 67 -227 206t-94 295z" />
<glyph unicode="&#x102b;" horiz-adv-x="359" d="M-411 1219v122q0 79 26 142.5t71 106.5t103 65.5t126 22.5q64 0 123 -22.5t102.5 -66t73.5 -104t30 -137.5v-1603l-3 -29q-13 -44 -74 -43q-28 0 -55 26l-9 46v1603q0 44 -16.5 79.5t-41.5 61.5t-59 40.5t-71 14.5q-79 0 -136.5 -52.5t-57.5 -150.5v-121l-8 -27 q-16 -41 -57 -40q-24 0 -47 25z" />
<glyph unicode="&#x102c;" horiz-adv-x="860" d="M-165 539v29q48 142 182 243q133 101 297 101q192 0 322 -130q136 -129 136 -321q0 -194 -131 -325q-129 -133 -319 -133q-89 0 -156 23q-56 11 -55 63q0 22 19 45.5t62 23.5q72 -26 130 -26q134 0 227.5 93t93.5 236q0 133 -97 226q-94 95 -230 96q-122 -9 -211.5 -77 t-144.5 -177l-13 -23l-35 -27l-55 18z" />
<glyph unicode="&#x102d;" horiz-adv-x="5" d="M-1054 1413q0 210 144 358t350 148q208 0 352.5 -150t144.5 -356q0 -205 -145.5 -353t-351.5 -148h-5q-202 0 -345.5 145.5t-143.5 355.5zM-912 1418q0 -148 103 -254.5t250 -106.5q149 0 252.5 106.5t103.5 254.5q0 147 -105 255t-251 108q-154 0 -253.5 -103.5 t-99.5 -259.5z" />
<glyph unicode="&#x102e;" horiz-adv-x="12" d="M-1070 1414q0 211 144 359t353 148q208 0 352.5 -150t144.5 -357q0 -206 -146.5 -352.5t-350.5 -149.5q-127 0 -238.5 62.5t-179.5 170.5q-79 125 -79 269zM-936 1414q0 -87 34 -151q127 134 326 134q187 0 327 -134q32 64 32 151q0 150 -105.5 259.5t-253.5 109.5 q-158 0 -259 -106t-101 -263zM-827 1164q100 -115 260 -115t262 117q-108 120 -262 120q-160 0 -260 -122z" />
<glyph unicode="&#x102f;" horiz-adv-x="22" d="M-604 -443q0 22 1 46h1q7 172 51 308q13 67 59 67q36 0 56 -34.5t20 -46.5l-1 -33l-35 -122q-14 -91 -17 -167v-13q0 -209 133.5 -329t346.5 -120l44 1q64 4 161 59q179 101 282 133q-116 -130 -275.5 -230.5t-267.5 -100.5q-139 0 -273.5 76t-218.5 197q-67 96 -67 309z " />
<glyph unicode="&#x1030;" horiz-adv-x="28" d="M-796 -487q0 221 71 420q20 58 65 58q42 0 69.5 -39t27.5 -78q0 -20 -9 -38q-86 -168 -86 -400q0 -185 70 -325q10 -22 10 -46q0 -65 -73 -65q-35 0 -49 25q-34 62 -61 175q-34 147 -35 313zM-520 -588q0 208 150 430q25 39 60 38q34 0 53 -35t19 -66q0 -34 -19 -55 q-129 -151 -128 -312q0 -132 87 -210.5t221 -78.5q70 0 245 41q138 29 461 268q-148 -202 -295 -301q-100 -67 -172 -89q-135 -43 -249 -43q-193 0 -313 111t-120 302z" />
<glyph unicode="&#x1031;" horiz-adv-x="1019" d="M73 444q0 189 129 326q131 139 318 138q131 0 234 -65q106 -61 168 -180l9 -34q0 -33 -36 -56q-34 -12 -66 8l-21 21q-42 85 -119 130q-74 46 -169 46q-124 0 -221 -98q-96 -95 -96 -236q0 -69 21 -118t51 -80q39 74 154 145q118 73 234 73q138 0 247 -90q16 -15 28 -53 q0 -30 6 -49q-57 -125 -165.5 -198.5t-244.5 -73.5q-186 0 -324 126q-137 130 -137 318zM360 173q67 -45 174 -45q92 0 171 51.5t108 118.5q-21 20 -67 40l-44 14l-47 4q-92 0 -176 -54t-119 -129z" />
<glyph unicode="&#x1032;" horiz-adv-x="31" d="M-757 1387q45 90 44 111q1 2 19 36q245 -107 368 -199q218 -161 403 -545q-258 298 -382 388q-167 123 -452 209z" />
<glyph unicode="&#x1033;" horiz-adv-x="7" d="M-1054 1413q0 210 144 358t350 148q208 0 352.5 -150t144.5 -356q0 -205 -145.5 -353t-351.5 -148h-5q-202 0 -345.5 145.5t-143.5 355.5zM-912 1418q0 -148 103 -254.5t250 -106.5q149 0 252.5 106.5t103.5 254.5q0 147 -105 255t-251 108q-154 0 -253.5 -103.5 t-99.5 -259.5zM-686 1410q0 27 9.5 51.5t28 43t42.5 29t52 10.5q27 0 51 -10.5t42 -29t29 -42.5t11 -52q0 -27 -11 -51t-29 -42.5t-42 -29t-51 -10.5q-28 0 -52 10.5t-42.5 29t-28 42.5t-9.5 51zM-641 1410q0 -18 6.5 -33t18.5 -28t28 -20t34 -7t33.5 7t28 20t19.5 28t7 33 t-7 34t-19.5 28t-27.5 19t-34 7q-18 0 -34 -7t-28 -19t-18.5 -28t-6.5 -34z" />
<glyph unicode="&#x1034;" d="M-1141 790q186 384 404 545q123 91 368 199q18 -35 18 -36q0 -21 46 -111q-286 -86 -453 -209q-124 -90 -383 -388z" />
<glyph unicode="&#x1035;" horiz-adv-x="8" d="M-1007 1409q0 206 141 353q141 150 345 150q142 0 254 -71q116 -65 182 -194l10 -38q0 -35 -39 -60q-38 5 -71 28l-24 22q-45 75 -128 124q-80 49 -184 48q-135 0 -250 -105q-94 -95 -103 -257q9 -75 32 -128t55 -87q42 81 168 158q128 79 254 80q148 0 269 -99 q15 -16 29 -58q0 -33 7 -53q-62 -126 -180 -210.5t-266 -84.5q-201 0 -352 137q-149 140 -149 345zM-694 1114q72 -49 179 -58q109 0 195 52t118 142q-23 23 -74 44l-48 15l-50 5q-100 0 -191.5 -59t-128.5 -141z" />
<glyph unicode="&#x1036;" horiz-adv-x="7" d="M-769 1277q0 73 50 121t120 48q69 0 118.5 -48t49.5 -121q0 -33 -13 -63t-36.5 -53.5t-53.5 -38t-65 -14.5q-38 0 -68.5 14.5t-53 38t-35.5 53.5t-13 63zM-661 1272q0 -23 17 -39.5t46 -16.5q25 0 42.5 16.5t17.5 39.5q0 24 -17.5 43t-42.5 19q-28 0 -45.5 -19t-17.5 -43 z" />
<glyph unicode="&#x1037;" horiz-adv-x="14" d="M-764 -302q0 74 49.5 120.5t119.5 46.5t119.5 -46.5t49.5 -120.5q0 -33 -13 -63.5t-36.5 -54t-54 -37t-65.5 -13.5q-36 0 -67 13.5t-53.5 37t-35.5 54t-13 63.5zM-657 -308q0 -22 17 -39t46 -17q25 0 43 16.5t18 39.5q0 26 -18 44t-43 18q-28 0 -45.5 -18t-17.5 -44z" />
<glyph unicode="&#x1038;" horiz-adv-x="547" d="M95 181q0 69 50 116.5t120 47.5t119.5 -47.5t49.5 -116.5q0 -35 -13 -65.5t-36 -52.5t-53.5 -35t-66.5 -13t-67.5 13t-53.5 35t-35.5 52.5t-13.5 65.5zM95 773q0 70 50 116.5t120 46.5t119.5 -46t49.5 -117q0 -34 -13 -64.5t-36 -53t-53.5 -36.5t-66.5 -14t-67.5 14 t-53.5 36.5t-35.5 53t-13.5 64.5zM203 766q0 -22 17 -38t46 -16q25 0 42.5 16t17.5 38q0 24 -17.5 42.5t-42.5 18.5q-28 0 -45.5 -18.5t-17.5 -42.5zM208 181q0 -25 17 -42t46 -17q25 0 42.5 17t17.5 42q0 23 -17.5 39.5t-42.5 16.5q-28 0 -45.5 -16.5t-17.5 -39.5z" />
<glyph unicode="&#x1039;" horiz-adv-x="8" d="M-783 -429l2 138h211v228l138 -4v-224h204l-1 -138h-203v-165l-1 -24h-127q-12 6 -12 19l2 7v163h-213z" />
<glyph unicode="&#x103a;" horiz-adv-x="5" d="M-877 1428q0 210 141 346t323 144q35 0 65 3q99 -7 215 -45q189 -75 290 -164q173 -122 321 -429q-177 205 -268 278q-109 83 -283.5 151t-297.5 68q-132 0 -257 -93q-104 -91 -104 -256q0 -144 106 -266.5t256 -138.5q48 0 81 12q16 10 29 10q46 0 46 -52q0 -40 -34 -63 q-63 -27 -133 -27q-99 0 -194 48q-126 63 -214 194t-88 280z" />
<glyph unicode="&#x103b;" horiz-adv-x="328" d="M-857 -423q0 160 134 308t319 148l5 -29q-136 -55 -235 -186.5t-99 -249.5q0 -172 104 -302t284 -139q180 9 307 139t127 311q0 12 -1 1311h2q2 13 21 23q19 11 47 12q29 0 50 -23t15 -29v-1294q0 -235 -167.5 -406t-404.5 -171h-7q-242 9 -371.5 181t-129.5 396z" />
<glyph unicode="&#x103c;" horiz-adv-x="335" d="M86 13h1v1603q0 164 108.5 278.5t269.5 114.5h388q165 0 276 -109.5t111 -275.5v-152q0 -66 -71 -66q-67 0 -67 66v152q0 109 -70 178t-179 69h-388q-67 0 -100 -16q-21 -11 -69 -55q-73 -70 -73 -184l-8 -969l10 970l-3 -482v-1553q9 -181 132 -311.5t360 -139.5 q219 18 318.5 135t99.5 307q9 136 -90 267.5t-236 185.5l4 31q188 0 326.5 -148t148.5 -327q0 -242 -130 -405t-393 -173h-118q-219 0 -389 172q-169 170 -169 406v431z" />
<glyph unicode="&#x103d;" horiz-adv-x="11" d="M-1045 -508q0 209 144 357t350 148q208 0 352.5 -149.5t144.5 -355.5q0 -205 -145.5 -353t-351.5 -148h-5q-202 0 -345.5 145.5t-143.5 355.5zM-903 -504q0 -147 103 -253.5t250 -106.5q149 0 252.5 106.5t103.5 253.5q0 148 -105 256t-251 108q-154 0 -253.5 -104 t-99.5 -260z" />
<glyph unicode="&#x103e;" horiz-adv-x="10" d="M-1515 -722q122 -41 283 -105q97 -36 214 -51q203 0 337.5 115.5t134.5 324.5v13h-1q-3 76 -18 167l-34 122l-1 33q0 12 19.5 46.5t56.5 34.5q46 0 59 -67q44 -136 50 -308h1q1 -23 1 -46q0 -213 -66 -309q-84 -121 -228 -183.5t-264 -71.5q-107 9 -258.5 82t-285.5 203z " />
<glyph unicode="&#x103f;" horiz-adv-x="2659" d="M93 639l10 37q142 234 396 234q181 0 318.5 -126t137.5 -335q0 -131 92 -225t238 -94q133 0 225.5 93t92.5 236q0 132 -95.5 227t-231.5 95q-57 0 -104 -18q-14 -5 -28 -5q-48 0 -65 62q0 30 41 59q78 31 156 31q186 0 321.5 -127.5t135.5 -323.5q0 -44 -6 -84 q46 -108 137.5 -175.5t212.5 -67.5q130 0 228.5 92t98.5 229q0 143 -93.5 236.5t-226.5 93.5q-60 0 -131 -27q-42 0 -61.5 23.5t-19.5 46.5q0 52 56 62q66 24 156 24q184 0 317 -130t133 -329q0 -181 -130.5 -315.5t-328.5 -134.5q-125 0 -229.5 57.5t-178.5 153.5 q-137 -214 -382 -214q-136 0 -248.5 68t-146.5 143q-31 -67 -143 -139t-241 -72q-161 0 -294 99l-85 97l-8 13q-19 28 -20 64q0 64 61 64q24 0 53 -32q41 -81 116 -128t177 -47q134 0 226.5 93t92.5 236q0 132 -95.5 227t-230.5 95q-165 0 -275 -160q-18 -49 -68 -48 q-60 0 -63 66z" />
<glyph unicode="&#x1040;" horiz-adv-x="1134" d="M112 452q0 188 128.5 324t323.5 136q192 0 321 -130q135 -129 135 -321q0 -193 -132 -325q-128 -133 -317 -133t-325 128q-135 129 -134 321zM242 452q0 -134 93 -227t236 -93q133 0 226 93t93 236q0 133 -95 226q-96 95 -231 96q-131 0 -226 -100q-95 -98 -96 -231z" />
<glyph unicode="&#x1041;" horiz-adv-x="1082" d="M100 273v30q0 29 50 54l49 -9l23 -24q32 -81 108 -136.5t179 -55.5q142 0 236 93t94 224q0 134 -91.5 234t-224.5 100q-181 0 -289 -178l-17 -18q-22 -14 -45 -14q-60 0 -59 61l4 31l7 9q57 108 163.5 173t235.5 65q182 0 314.5 -139.5t132.5 -323.5q0 -181 -136 -313.5 t-325 -132.5q-136 0 -243.5 68t-165.5 202z" />
<glyph unicode="&#x1042;" horiz-adv-x="1092" d="M70 -309q0 67 61 79q70 0 70 -79q0 -134 92.5 -227.5t235.5 -93.5q132 0 226 97q92 92 93 233v1138l9 35q15 30 56 30q34 0 58 -35l9 -29v-1137q0 -194 -131 -325q-133 -137 -320 -136q-194 0 -325 131q-134 129 -134 319z" />
<glyph unicode="&#x1043;" horiz-adv-x="1077" d="M91 273v30q0 29 50 54l49 -9l23 -24q32 -81 107.5 -136.5t179.5 -55.5q142 0 236 93t94 224q0 134 -91.5 234t-223.5 100q-182 0 -290 -178l-17 -18q-22 -14 -45 -14q-60 0 -60 61l4 31l8 9q57 108 163.5 173t236.5 65q181 0 313.5 -139.5t132.5 -323.5 q0 -181 -136.5 -313.5t-325.5 -132.5l-64 1q-11 0 -11 -3q0 -5 27 -17l482 -656v-31q0 -23 -13 -42.5t-39 -19.5q-13 0 -29 5l-27 13l-722 984z" />
<glyph unicode="&#x1044;" horiz-adv-x="1092" d="M100 452q0 185 128 324.5t319 139.5q126 0 234 -65t168 -181l9 -34q0 -24 -18.5 -42t-42.5 -18q-21 0 -40 11l-22 22q-40 81 -115 128.5t-173 47.5q-124 0 -220.5 -96.5t-96.5 -236.5q0 -125 97 -221.5t235 -96.5q95 0 169 51.5t119 140.5l10 11q22 24 46 24q59 0 64 -64 v-22l-16 -34l-718 -985l-25 -12q-12 -6 -26 -6q-46 0 -56 59v34l498 678l3 1l-67 -6q-190 0 -326.5 129.5t-136.5 318.5z" />
<glyph unicode="&#x1045;" horiz-adv-x="1123" d="M97 -315q0 85 65 85q66 0 66 -85q0 -133 93 -226t236 -93q132 0 225 94.5t93 234.5v774q0 127 -94.5 220.5t-226.5 93.5q-157 0 -209 -71q-35 -14 -36 -22q0 -5 21 -5q89 0 158 -71.5t69 -160.5q0 -88 -68 -157t-165 -69q-94 0 -161 72q-66 67 -66 162l10 61 q21 162 145 276t302 114q185 0 320.5 -127t135.5 -324v-766q0 -185 -127.5 -322t-325.5 -137q-188 0 -324 127.5t-136 321.5zM230 431q4 -31 32.5 -52.5t61.5 -21.5q36 0 69 29t33 67q0 39 -29.5 71t-66.5 32q-66 0 -96 -62v-28q0 -23 -4 -35z" />
<glyph unicode="&#x1046;" horiz-adv-x="1139" d="M109 446v770q0 187 127 323.5t325 136.5q187 0 321.5 -128t134.5 -324q0 -66 -62 -66q-68 0 -68 66q0 134 -95.5 228t-230.5 94q-133 0 -228.5 -95t-95.5 -233l2 -772q0 -132 93.5 -225t236.5 -93q125 0 216 77.5t91 151.5l2 22q-4 19 -51 49l-107 41l-47 7l-50 24 q-98 73 -99 196l-1 20q0 76 65 139t159 63q62 0 118 -32t81 -84t25 -109q0 -102 -63 -160l-3 -3q111 -57 111 -178q0 -120 -133.5 -236t-313.5 -116q-187 0 -323.5 124t-136.5 322zM653 693q0 -35 25 -64l53 -30l19 -2q29 0 61 26t32 70q0 32 -29.5 63.5t-68.5 31.5 q-32 0 -67 -29q-25 -32 -25 -66z" />
<glyph unicode="&#x1047;" horiz-adv-x="1129" d="M103 452q0 188 128.5 324t323.5 136q184 0 318 -128q138 -126 138 -323q0 -199 -61 -427l-60 -207l-59 -216q-29 -119 -29 -200q0 -40 44 -42q16 0 28 12q11 9 11 46l20 32q23 24 50 24q34 0 57 -34l6 -26q0 -81 -51.5 -131.5t-120.5 -50.5q-66 0 -120.5 46t-54.5 124 q0 32 3.5 65t9.5 71q6 35 10 58t6.5 35.5t7.5 28.5t13 40l41 155l78 276q43 148 43 292l-2 28q0 134 -95 227q-96 95 -231 96q-131 0 -227 -100q-95 -98 -95 -231q0 -107 67 -193l9 -14l7 -24q0 -64 -70 -64q-38 0 -54 31q-88 118 -89 264z" />
<glyph unicode="&#x1048;" horiz-adv-x="1123" d="M109 461q0 173 128 311q58 60 142 101q82 32 177 32q42 0 83.5 -4t94.5 -23q119 -47 201 -157.5t82 -264.5q0 -142 -55 -250t-173 -197l-37 -9q-23 0 -53 22l-11 23l-4 21l10 35l16 16q90 67 133 147q42 89 41 192q0 78 -25 130t-74 100q-20 16 -46 32.5t-57 32.5 q-58 21 -126 22q-105 0 -189.5 -64t-105.5 -139q116 -11 208 -111.5t92 -224.5q0 -143 -125 -214q-6 -11 -53 -18h-20q-111 64 -187 184q-12 24 -24.5 56t-24.5 75q-7 36 -12.5 70t-5.5 74zM237 426q0 -46 9 -85q12 -42 42 -93q52 -82 130 -125l-7 7q41 28 41 104 q0 39 -15.5 77.5t-47.5 71.5t-75.5 55.5t-72.5 26.5z" />
<glyph unicode="&#x1049;" horiz-adv-x="1129" d="M106 -298v767q0 179 137 313q138 136 323 136q172 0 314 -118q127 -107 127 -236q0 -67 -34 -121q-32 -35 -73 -57l7 -6q62 -70 62 -158q0 -90 -65 -163q-68 -59 -163 -59q-83 0 -157 61q-62 71 -62 158q0 113 96 193l22 13l76 21q50 15 79 26t46 22.5t24.5 21t9.5 21.5 l-2 21q0 65 -92 148q-88 82 -215 82q-128 0 -230 -95q-98 -92 -99 -224l1 -769q0 -134 92 -232q94 -97 229 -98q133 0 228 97q97 93 97 225q0 68 69 68q62 0 62 -68q0 -187 -134 -320q-134 -132 -322 -131q-182 0 -319 138q-134 143 -134 323zM649 222q0 -39 27.5 -66.5 t64.5 -27.5q41 0 69 28q29 25 29 66q0 15 -8.5 32t-22.5 31.5t-31 23t-32 8.5l-16 -1l-54 -30q-26 -23 -26 -64z" />
<glyph unicode="&#x104a;" horiz-adv-x="469" d="M144 68v805q0 73 75 73q72 0 72 -73v-805q0 -74 -72 -74q-75 0 -75 74z" />
<glyph unicode="&#x104b;" horiz-adv-x="744" d="M135 68v805q0 73 75 73q72 0 72 -73v-805q0 -74 -72 -74q-75 0 -75 74zM436 68v805q0 73 75 73q74 0 74 -73v-805q0 -74 -74 -74q-75 0 -75 74z" />
<glyph unicode="&#x104c;" horiz-adv-x="1098" d="M60 1420q0 219 147 361t336 150q38 0 68 5q103 -8 224 -48q197 -77 303 -171q180 -126 333 -447q-186 213 -279 291q-114 86 -296 157t-310 71q-145 0 -275 -98q-109 -94 -109 -267q0 -150 115.5 -281t270.5 -140q50 0 85 13q17 9 30 9q48 0 47 -54q0 -42 -35 -66 q-66 -27 -138 -27q-103 0 -202 50q-131 66 -223 202t-92 290zM92 444q0 187 128.5 316t321.5 129q92 0 188 -41.5t162 -116.5l24 -27l11 -18l7 -11l-5 -1q8 -16 8 -34q0 -28 -22.5 -49.5t-51.5 -21.5q-43 0 -59 41l-2 2l2 3l-19 21q-93 114 -243 113q-131 0 -222 -86 t-91 -219q0 -127 92 -222q96 -92 221 -92q163 0 236 102q23 24 62 27h78q70 0 70 -68v-221q0 -38 -29 -59l-57 -42q-152 -107 -337 -107h-24q-159 1 -262 64v-197h-140v341q0 77 60 77q27 0 58 -29q123 -117 285 -120h17q151 0 260 83l38 24v103q-130 -120 -315 -119 q-185 0 -317.5 134t-132.5 321zM139 -237l140 1v-364q0 -119 51.5 -188t122.5 -69l13 5h246q102 0 178 105q21 23 21 63v27q2 17 2 34q0 188 -209 302q310 12 338 -337l-3 -27q-12 -130 -107.5 -217.5t-219.5 -87.5h-39v-6h-183q-167 0 -259 109t-92 287v363z" />
<glyph unicode="&#x104d;" horiz-adv-x="1409" d="M63 -760q0 103 87 175q86 65 202 65q45 0 61 -6q101 -15 184 -79q69 -50 137 -125l4 -26q0 -36 -20 -47t-41 -19l-40 4q-66 69 -117 106q-59 41 -139 59l-36 4q-54 0 -102 -32q-41 -32 -40 -79q0 -43 45.5 -78t103.5 -35h567q82 0 150 52q62 49 61 118v161l1 -1v1177 q-15 104 -54.5 163t-109.5 68h-18v13l-16 -1q-104 0 -204 50q-132 64 -224.5 196.5t-92.5 282.5q0 212 148 350t339 146q38 0 68 5q104 -7 226 -48q198 -74 305 -163q180 -125 336 -437q-186 207 -281 283q-116 83 -298.5 152.5t-311.5 69.5q-138 0 -269 -95 q-109 -92 -109 -260q0 -146 111 -269.5t268 -139.5q13 0 25 1v-4q32 -1 62 -12q191 -54 231 -341v-1190h4v-155q0 -119 -99 -211t-248 -93h-567q-55 0 -106.5 18.5t-91.5 51t-65.5 78t-25.5 97.5zM103 414q0 181 128.5 312.5t323.5 131.5q175 0 317 -124q139 -120 139 -300 l3 -894q-1 -28 -32 -56q-20 -13 -40 -13q-61 0 -61 62v891q0 127 -95 217q-96 91 -231 91q-131 0 -227 -95q-95 -95 -95 -223l1 -55l6 -21l5 -11l46 24l78 10q119 0 214 -92q98 -94 98 -210l-10 -73l-108 -6q-195 0 -327 123q-133 130 -133 311zM292 236q26 -44 96 -84 q84 -49 171 -49h10q-4 36 -64.5 94t-134.5 58l-53 -5z" />
<glyph unicode="&#x104e;" horiz-adv-x="1098" d="M100 449q0 184 134 325q131 139 313 138q128 0 235.5 -64.5t164.5 -173.5l7 -9l4 -31q0 -45 -35.5 -56.5t-67.5 9.5l-19 18q-54 88 -128 133t-161 45q-132 0 -223 -100q-94 -100 -94 -234q0 -131 96 -224q93 -93 236 -93q95 0 172 50q82 61 115 142l24 24l48 9 q52 -27 51 -66v-1204l7 9v-36l-10 -29q-23 -34 -59 -35q-62 9 -61 50l-3 17v30l-6 -10v1016q-21 -21 -106.5 -58.5t-171.5 -37.5q-187 0 -325 133q-137 131 -137 313z" />
<glyph unicode="&#x104f;" horiz-adv-x="1613" d="M100 446q0 190 129 326q131 139 318 138q197 0 304 -113q9 13 53.5 38t93.5 25q73 0 125 -43.5t52 -128.5v-617l-2 -30q-14 -44 -66 -44q-28 0 -55 26l-9 46v619q0 15 -13 29q-8 11 -33 13q-19 0 -35 -10.5t-21 -32.5l8 -23l9 -33q0 -35 -25 -50q-78 -86 -183 -86 t-194 88q-83 91 -84 189q-84 -15 -163 -112q-79 -95 -79 -214q0 -120 79.5 -207t180.5 -102v-2q0 117 83 201q81 80 191 80q103 0 172 -68q19 -10 34 -47v-31q-56 -122 -164 -196t-244 -74q-189 0 -325.5 128.5t-136.5 317.5zM578 777q0 -76 49 -125.5t116 -49.5q45 0 79 27 q-26 56 -99.5 104t-144.5 48v-4zM598 130q63 0 131 47.5t105 113.5q-22 17 -73 17q-64 0 -113.5 -48.5t-49.5 -124.5v-5zM646 1439q0 198 138.5 326t318.5 136q34 0 63 3q98 -6 211 -43q186 -70 286 -163q161 -114 315 -395q-174 194 -265 262q-106 78 -277.5 142.5 t-292.5 64.5q-129 0 -252 -89q-102 -85 -102 -240q0 -136 104.5 -250t250.5 -131q13 0 24 1v-4q30 -1 58 -10q179 -50 226 -317v-663q0 -73 -55 -84q-77 0 -77 76v662q-14 96 -51.5 151t-102.5 63h-17v12h-17q-97 0 -189 46q-124 59 -210.5 182t-86.5 262z" />
<glyph unicode="&#x1050;" horiz-adv-x="1053" d="M100 428q0 141 77 248q142 201 385 201q199 0 325.5 -141.5t126.5 -302.5q0 -109 -37 -201.5t-112 -184.5l-65 -44h-48q-46 19 -45 57q0 20 15 42l70 67l40 59q49 89 49 205q0 126 -98 219t-221 93q-103 0 -179 -48q-150 -95 -150 -269q0 -80 22.5 -146t57.5 -102l66 -68 l22 -45l-15 -44q-32 -23 -54 -23l-39 10l-86 89q-106 123 -107 329zM436 405q0 55 39 94t94 39q54 0 93 -39.5t39 -93.5q0 -56 -39 -94.5t-93 -38.5q-55 0 -94 38.5t-39 94.5zM497 404q0 -28 20.5 -48t51.5 -20q27 0 48 19.5t21 48.5q0 30 -21 50t-48 20q-30 0 -51 -20 t-21 -50z" />
<glyph unicode="&#x1051;" horiz-adv-x="1053" d="M100 449q0 206 107 329l86 89l39 10q22 0 54 -23l15 -44l-22 -45l-66 -68q-35 -35 -57.5 -101.5t-22.5 -146.5q0 -173 150 -269q75 -49 179 -48q124 0 221.5 93t97.5 219q0 116 -49 205l-40 59l-70 67q-15 22 -15 42q0 38 45 57h48l65 -44q75 -92 112 -184t37 -202 q0 -161 -126 -302.5t-326 -141.5q-242 0 -385 201q-77 108 -77 248zM436 472q0 56 39 94.5t94 38.5q54 0 93 -38.5t39 -94.5q0 -55 -39 -94t-93 -39q-55 0 -94 39.5t-39 93.5zM497 473q0 -30 20.5 -50t51.5 -20q27 0 48 20t21 50q0 28 -21 48t-48 20q-30 0 -51 -19.5 t-21 -48.5z" />
<glyph unicode="&#x1052;" horiz-adv-x="1159" d="M101 485q0 141 65 257q56 100 143 166q45 34 70 35q30 0 51 -23t21 -51q0 -35 -33 -62q-168 -104 -169 -322q0 -140 99 -241.5t244 -101.5q99 0 198 65q92 69 115 156l-1 12q0 8 1.5 14.5t1.5 9.5q0 9 -11 36q-14 31 -30 41q-20 11 -86.5 39.5t-107.5 83.5t-45 126v4 q0 81 63 145t148 64q49 0 90 -17q121 -50 120 -159q0 -74 -72 -74q-73 0 -73 74q0 13 -15.5 24.5t-40.5 11.5q-23 0 -49.5 -22.5t-26.5 -44.5q7 -60 126 -112q81 -31 114 -79q38 -57 37 -124q0 -24 -5 -52l-1 -31q-35 -134 -167.5 -236.5t-282.5 -102.5q-204 0 -347.5 145.5 t-143.5 345.5z" />
<glyph unicode="&#x1053;" horiz-adv-x="1158" d="M92 413q0 44 17.5 88.5t40.5 60.5q28 33 93 57q120 52 127 112q0 19 -25 43t-52 24q-21 0 -38.5 -10.5t-17.5 -25.5q0 -74 -73 -74q-72 0 -72 74q0 81 66 128.5t143 47.5q82 0 147.5 -62.5t65.5 -146.5v-4q-4 -67 -44 -123t-107 -86q-82 -35 -93.5 -44.5t-24 -33.5 t-12.5 -39q0 -3 1.5 -9.5t1.5 -14.5l-1 -12q23 -87 116 -156q98 -65 197 -65h6v3l22 -2l20 2v-3h6q99 0 199 65q90 69 116 156l-1 12q0 8 1 14.5t1 9.5q0 8 -12 35q-14 32 -28 40q-22 12 -88 41t-108 85t-45 125v4q0 81 63 145t149 64q83 0 149 -51q62 -48 61 -125 q0 -74 -71 -74q-73 0 -73 74q0 13 -16.5 24.5t-40.5 11.5q-23 0 -50 -22.5t-27 -44.5q7 -60 127 -112q48 -18 76 -42q75 -62 75 -163q0 -23 -5 -50q-2 -11 -2 -31q-33 -132 -164.5 -235.5t-285.5 -103.5l-26 1l-28 -1q-148 0 -281.5 100t-169.5 239q0 20 -2 31q-3 25 -3 49z " />
<glyph unicode="&#x1054;" horiz-adv-x="1019" d="M73 463q0 190 137 319q139 127 324 126q136 0 244.5 -73.5t165.5 -197.5q-6 -19 -6 -51q-13 -38 -28 -53q-109 -90 -247 -90q-117 0 -234 73q-116 70 -154 145q-29 -30 -50.5 -79.5t-21.5 -118.5q0 -141 96 -235q97 -98 221 -98q95 0 169 45q77 45 119 131l21 20 q31 20 66 10q35 -23 36 -56l-9 -35q-61 -119 -168 -179q-103 -66 -234 -66q-188 0 -318 139q-129 136 -129 324zM360 734q35 -76 119 -129t176 -53l47 5l44 13q46 19 67 40q-29 66 -107.5 118.5t-171.5 52.5q-107 0 -174 -47z" />
<glyph unicode="&#x1055;" horiz-adv-x="1518" d="M73 463q0 190 137 319q139 127 324 126q136 0 244.5 -73.5t165.5 -197.5q-6 -19 -6 -51q-12 -38 -28 -53q-109 -90 -247 -90q-117 0 -234 73q-116 70 -154 145q-29 -30 -50.5 -79.5t-21.5 -118.5q0 -141 96 -235q97 -98 221 -98q95 0 169 45q77 45 119 131l21 20 q31 20 66 10q35 -24 36 -55q19 -28 43 -53q97 -98 221 -98q96 0 170 45q78 45 118 131l23 20q30 20 64 10q36 -23 37 -56l-9 -35q-62 -119 -168 -179q-102 -66 -235 -66q-188 0 -317 139q-8 8 -15 17q-47 -56 -109 -90q-103 -66 -234 -66q-188 0 -318 139q-129 136 -129 324 zM360 734q35 -76 119 -129t176 -53l47 5l44 13q46 19 67 40q-29 66 -107.5 118.5t-171.5 52.5q-107 0 -174 -47z" />
<glyph unicode="&#x1056;" horiz-adv-x="800" d="M-140 207q0 31 23 52t50 21q28 0 50 -20l6 6q10 -11 22 -23q98 -101 242 -101q100 0 199 65q91 69 116 156q-2 16 0.5 28t-0.5 20q-15 39 -26.5 53.5t-37.5 23.5q-39 18 -63.5 28.5t-41.5 20.5q-105 76 -111 188q-2 82 63 148q66 65 150 65q41 0 77.5 -13.5t67.5 -36 t48 -55.5t17 -71q0 -74 -72 -74q-73 0 -73 74q0 20 -33 32q-29 8 -52 -2q-48 -31 -48 -61q6 -60 127 -112q63 -24 92 -57q25 -16 47 -79q19 -50 7 -119q-2 -11 -2 -18.5v-12.5q-34 -134 -168 -239q-133 -100 -283 -100q-204 0 -347 145q-7 9 -15 17l2 2l-11 -6q-6 9 -12 17 q-10 25 -10 38z" />
<glyph unicode="&#x1057;" horiz-adv-x="1868" d="M102 380h4q1 23 23 41q20 17 50 17t52 -17q19 -17 21 -39h2q24 -77 86 -139q98 -101 243 -101q99 0 198 65q52 39 82 82q-1 2 -2 3h3q4 6 7 10h16q5 11 14 19q21 23 54 24q31 0 53 -24q9 -8 15 -19h2q0 -1 -1 -2h1q18 -27 44 -53q98 -99 242 -99q99 0 198 64 q91 70 115 156q-1 16 1.5 28t-1.5 20q-14 39 -25 54t-38 24q-39 16 -64 27t-40 21q-105 76 -112 188q-2 81 63 148q66 66 150 66q41 0 78 -13t68 -36t47 -56.5t16 -71.5q0 -74 -71 -74q-73 0 -73 74q0 20 -32 33q-29 8 -53 -3q-49 -31 -49 -61q7 -60 127 -112q64 -23 93 -56 q25 -17 47 -80q19 -50 7 -118q-2 -13 -2 -19.5v-12.5q-34 -134 -167 -238q-133 -101 -283 -101q-204 0 -348 145q-10 12 -20 23q-33 -38 -78 -73q-132 -100 -282 -100q-204 0 -347 145q-105 106 -134 241z" />
<glyph unicode="&#x1058;" horiz-adv-x="2" d="M-896 -389q0 170 114 285q118 117 282 116q207 0 328 -176l3 -37l-5 -33q-33 -81 -102.5 -112.5t-148.5 -31.5q-93 0 -180.5 39t-123.5 81q-10 -16 -22.5 -53.5t-12.5 -77.5q0 -109 77 -187q74 -73 190 -73q70 0 126 29q66 45 93 93l23 21q39 16 62 3q36 -20 37 -60 l-9 -32q-57 -87 -141 -137t-191 -50q-170 0 -285 118q-115 119 -114 275zM-658 -174q30 -35 98 -65q17 -8 34 -14t33 -11l69 -6l49 4l37 13q36 22 44 35q-40 48 -87 70q-49 27 -119 27q-97 0 -158 -53z" />
<glyph unicode="&#x1059;" horiz-adv-x="104" d="M-985 -389q0 170 114 285q118 117 283 116q206 0 326 -176l4 -37l-6 -33q-33 -81 -101.5 -112.5t-148.5 -31.5q-93 0 -181 39t-123 81q-10 -16 -22.5 -53.5t-12.5 -77.5q0 -109 77 -187q73 -73 190 -73q71 0 126 29q66 45 94 93l21 21q39 16 63 3q33 -18 37 -50 q9 -12 20 -23q74 -73 191 -73q70 0 126 29q65 45 93 93l22 21q39 16 64 3q36 -20 36 -60l-9 -32q-58 -87 -142 -137t-190 -50q-167 0 -280 113q-38 -36 -81 -63q-83 -50 -191 -50q-170 0 -285 118q-115 119 -114 275zM-746 -174q29 -35 97 -65q18 -8 34.5 -14t32.5 -11 l70 -6l48 4l37 13q36 22 44 35q-40 48 -86 70q-49 27 -119 27q-98 0 -158 -53z" />
<glyph unicode="&#x105a;" horiz-adv-x="1095" d="M74 446q0 186 128 325t319 139q128 0 234.5 -63.5t167.5 -181.5l9 -34q0 -24 -19 -42t-42 -18q-21 0 -41 12l-21 21q-40 81 -115.5 129t-172.5 48q-124 0 -220.5 -97.5t-96.5 -237.5q0 -124 96.5 -220t234.5 -96q194 0 288 192l10 11q23 23 48 23q58 0 63 -64v-22 q-56 -122 -164.5 -196t-244.5 -74q-189 0 -325 128.5t-136 317.5zM311 -282q0 80 71 144t172 64q102 0 182 -60q72 -58 72 -148q0 -41 -36 -113l-57 -93q-39 -58 -39 -98q0 -18 8 -27.5t14.5 -9.5t34.5 -26q11 -3 19 -15l3 -3l-1 -1q9 -16 9 -39q0 -25 -11.5 -42t-27.5 -17 q-9 0 -17 5q-99 22 -132.5 62.5t-33.5 113.5q0 70 42 148l12 21l-4 -1l63 101q13 25 13 34q0 35 -31.5 58t-79.5 23q-47 0 -75 -23.5t-28 -57.5l5 -14l5 -25q4 -8 4 -18q0 -7 -2 -14v-13l-9 -1l-10 -9q-20 -15 -50 -15q-26 0 -45 11h-12q-27 61 -28 98zM690 -619q1 -1 2 -1z M693 -620v-1v1z" />
<glyph unicode="&#x105b;" horiz-adv-x="1516" d="M94 452q0 188 128.5 324t322.5 136q124 0 236 -67.5t166 -166.5l33 6q80 0 141.5 -58t61.5 -157l-8 -34q-10 -29 -51 -35q-28 0 -55 25l-17 44q0 32 -20 56q-19 20 -40 27l1 -11q0 -45 -39 -107.5t-123 -88.5l-41 -13h-33q-62 0 -120.5 38.5t-82.5 97.5l-17 56v33 q0 63 40 120q35 51 92 79q-13 4 -31 9q-26 8 -50.5 13t-42.5 5q-131 0 -226 -99t-95 -232q0 -134 93 -227t236 -93q76 0 127 26t104 78q31 27 70 28q45 0 56 -48q0 -66 -115 -139.5t-242 -73.5q-188 0 -323.5 126t-135.5 323zM266 -429q0 243 162 405.5t358 162.5l4 -122 q-146 0 -268.5 -127t-122.5 -319q0 -182 127.5 -313t308.5 -140q181 9 308.5 140t127.5 313q0 12 -1 1317h2q2 13 21 23q19 11 48 12q29 0 49.5 -23t15.5 -29v-1300q0 -237 -168 -408.5t-407 -171.5h-7q-234 9 -396 173t-162 407zM658 554l7 -35q21 -67 94 -67l35 6 q69 22 69 96l-7 34q-22 69 -97 69l-33 -7q-68 -22 -68 -96zM658 760q1 0 1 -1q6 3 11 5z" />
<glyph unicode="&#x105c;" horiz-adv-x="1123" d="M103 452q0 188 128.5 324t323.5 136q192 0 321 -130q135 -129 135 -321q0 -193 -132 -325q-128 -133 -317 -133t-325 128q-134 129 -134 321zM233 452q0 -134 93 -227t236 -93q133 0 226 93t93 236q0 133 -95 226q-96 95 -231 96q-131 0 -227 -100q-95 -98 -95 -231z M421 455q0 58 40 98t96 40q57 0 96.5 -40t39.5 -98q0 -56 -39.5 -97t-96.5 -41q-56 0 -96 41t-40 97zM484 456q0 -30 20.5 -51t52.5 -21q29 0 50.5 21t21.5 51t-21.5 50.5t-50.5 20.5q-31 0 -52 -20t-21 -51z" />
<glyph unicode="&#x105d;" horiz-adv-x="1108" d="M89 -667q38 332 336 336q-208 -114 -208 -300q0 -18 2 -35v-27q0 -40 21 -63q76 -104 178 -105l16 -5h242q100 0 149.5 69t49.5 188v1093l131 -2v-1091q0 -177 -86.5 -286.5t-243.5 -109.5h-171v6h-87q-125 0 -220 87.5t-106 217.5zM91 449q0 206 112 334l75 72l37 10 q22 0 54 -22l11 -24l3 -20l-10 -36l-14 -15l-58 -52l-36 -56q-41 -87 -41 -191q0 -86 23 -130q0 7 40 41q100 84 248 84q187 0 310 -129q1 1 14 45.5t13 83.5q0 116 -49 205l-40 58q-16 22 -43 38l-20 20q-15 22 -15 43q0 36 45 57h45q40 -23 82 -71l54 -73q74 -119 74 -277 q0 -86 -35.5 -165t-97.5 -141t-144 -100t-175 -38q-101 0 -174.5 30t-148.5 96q-139 134 -139 323zM311 232l36 -37q18 -16 57 -31l73 -25l77 -7q63 0 127 26.5t97 69.5q-26 38 -95.5 73t-144.5 35q-73 0 -136.5 -32.5t-90.5 -71.5z" />
<glyph unicode="&#x105e;" d="M-953 -463q-8 95 71 194q53 54 162.5 90t242.5 61v107h151v-83q43 6 107 17l116 -110l-217 -42q0 -102 -3 -176t-9.5 -120t-14 -73.5t-17.5 -40.5q-49 -73 -114.5 -97.5t-139.5 -22.5q-69 -2 -126 13.5t-99.5 50.5t-70.5 92.5t-39 139.5zM-811 -449q16 -98 64.5 -139 t125.5 -43q128 0 147 179v186h-3q-58 -16 -93.5 -23t-57.5 -12.5t-33.5 -9t-20.5 -6.5q-59 -21 -96 -51.5t-33 -80.5z" />
<glyph unicode="&#x105f;" d="M-968 -439q0 59 32 112.5t90 97.5q58 36 136.5 59.5t157.5 23.5q30 0 54 -3.5t43 -5.5l2 133h146v-249l-80 -45q-36 17 -80.5 25.5t-88.5 8.5q-118 0 -190.5 -44.5t-72.5 -110.5q0 -34 18.5 -63t53.5 -52t80.5 -32t101.5 -9q69 0 127.5 19.5t96.5 52.5l117 -91 q-9 -9 -21 -19t-26 -19q-61 -44 -132 -65.5t-153 -21.5q-85 0 -158.5 22t-131.5 63q-59 42 -90.5 95.5t-31.5 117.5z" />
<glyph unicode="&#x1060;" d="M-1082 -747l530 706h163l-418 -583h585v-123h-860z" />
<glyph unicode="&#x1061;" horiz-adv-x="1098" d="M-431 -722q122 -41 283 -105q97 -36 214 -51q203 0 337 115.5t134 324.5v13h-1q-3 76 -17 167l-34 122l-1 33q0 12 19.5 46.5t56.5 34.5q45 0 58 -67q44 -136 51 -308h1q1 -23 1 -46q0 -213 -67 -309q-83 -121 -227 -183.5t-265 -71.5q-107 9 -258 82t-285 203zM76 452 q0 188 128.5 324t322.5 136q175 0 318 -128q139 -124 138 -312l3 -942l-3 9q21 -227 65 -296q58 -102 174 -112q23 0 67 7q126 2 192 96q60 112 60 204q0 89 -55 247q-49 87 -184 229q347 -199 356 -515q0 -166 -118 -294q-81 -92 -196 -106q-40 -6 -79 -6q-218 0 -315 165 q-83 111 -92 375l-4 928q0 133 -96 226q-96 95 -231 96q-131 0 -226 -100q-95 -98 -95 -231l1 -57l6 -22l5 -10l46 24l78 10q120 0 214 -96q98 -97 98 -216l-10 -77l-109 -5q-195 0 -326 128q-133 134 -133 321zM265 268q26 -45 96 -87q84 -52 170 -51l10 1q-4 38 -64 98 t-134 60l-52 -7z" />
<glyph unicode="&#x1062;" horiz-adv-x="523" d="M25 863q1 27 26 55l45 15h75q50 0 101 -15q36 -8 77 -52q30 -29 46 -81l11 -92v-652l-22 -26q-31 -34 -66 -34q-28 0 -47 32l-13 26v657l-3 48q-1 13 -18 28q-26 29 -72 29h-68l-39 8q-27 14 -33 54z" />
<glyph unicode="&#x1063;" horiz-adv-x="1078" d="M91 -904l6 -9v1204q0 39 52 66l49 -9l23 -24q33 -81 115 -142q78 -51 172 -50q142 0 236 93q95 93 95 224q0 134 -93 234q-91 99 -223 100q-87 0 -161.5 -45t-127.5 -133l-18 -18q-32 -21 -68 -9.5t-36 56.5l4 31l7 9q57 108 164 173t236 65q181 0 313 -138 q134 -141 134 -325q0 -182 -137 -313q-139 -133 -325 -133q-85 0 -171 37.5t-108 58.5v-1016l-5 10v-30l-3 -17q0 -41 -62 -50q-35 0 -58 35l-10 29v36z" />
<glyph unicode="&#x1064;" horiz-adv-x="469" d="M-24 799v135h324v-795h153v-134h-291v794h-186z" />
<glyph unicode="&#x1065;" horiz-adv-x="1019" d="M73 273v30q0 29 50 54l48 -9l24 -24q32 -81 114 -142q77 -51 173 -50q142 0 236 93t94 224q0 134 -92 234q-91 99 -223 100q-87 0 -161.5 -45t-128.5 -133l-17 -18q-33 -21 -69 -9.5t-36 56.5l4 31l7 9q57 108 164 173t237 65q181 0 313 -138q133 -141 133 -325 q0 -182 -136 -313q-140 -133 -325 -133q-136 0 -243.5 68t-165.5 202z" />
<glyph unicode="&#x1066;" horiz-adv-x="1129" d="M98 -667q38 332 336 336q-208 -114 -208 -300q0 -18 2 -35v-27q0 -40 21 -63q76 -104 178 -105l16 -5h242q100 0 149.5 69t49.5 188v748q-126 -139 -322 -139q-242 0 -385 201q-77 108 -77 248q0 206 107 329l86 89l39 10q22 0 54 -23l15 -44l-22 -45l-66 -68 q-35 -35 -57.5 -101.5t-22.5 -146.5q0 -173 150 -269q75 -49 179 -48q124 0 221.5 93t97.5 219q0 116 -49 205l-40 59l-70 67q-15 22 -15 42q0 38 45 57h48l65 -44q75 -92 112 -184q29 -76 36 -164h2v-1091q0 -177 -86 -286.5t-244 -109.5h-171v6h-87q-125 0 -219.5 87.5 t-106.5 217.5z" />
<glyph unicode="&#x1067;" horiz-adv-x="610" d="M101 202q0 90 61.5 149.5t144.5 59.5q33 0 64 -13v524h137v-720q0 -81 -58.5 -140.5t-142.5 -59.5q-83 0 -144.5 59t-61.5 141zM219 197q0 -85 86 -85t86 85t-86 85t-86 -85z" />
<glyph unicode="&#x1068;" horiz-adv-x="612" d="M25 52q5 40 33 52l39 9h68q46 0 72 29q17 14 18 27l3 50v532l13 25q19 33 47 33q34 0 66 -34l22 -27v-527l-11 -91q-16 -52 -46 -81q-41 -45 -77 -53q-51 -15 -101 -15h-75l-45 15q-26 29 -26 56zM147 1177q0 75 53.5 128t127.5 53q76 0 127.5 -54.5t51.5 -126.5 t-51 -125.5t-128 -53.5q-74 0 -127.5 51.5t-53.5 127.5zM266 1183q0 -66 66 -66q64 0 64 66q0 62 -64 62q-66 0 -66 -62z" />
<glyph unicode="&#x1069;" horiz-adv-x="623" d="M108 874q17 9 36 15q7 4 16 5q1 1 2 1q28 8 53 12q61 10 116 -4t96.5 -44.5t70.5 -75.5t34 -105q4 -28 -4 -68.5t-21 -86.5v1l-52 -138q-36 -102 -30 -161q-4 -40 24.5 -58.5t65.5 -27.5l-7 -10q20 -22 20 -51t-20.5 -51t-50.5 -22q-26 0 -47 19q-15 4 -28 11 q-25 14 -47 42q-19 29 -28.5 59.5t-16.5 72.5q-5 49 3.5 101.5t28.5 103.5l10 32l55 162q0 4 1 5t1 4q0 4 0.5 4t-0.5 2q9 19 9 34q-9 60 -55 92t-110 23q-29 -6 -51 -14l-3 4q-6 -1 -11 -1q-24 0 -40.5 20t-16.5 47q0 17 6 33z" />
<glyph unicode="&#x106a;" horiz-adv-x="633" d="M46 223q0 23 20 40.5t49 17.5t50 -17q16 -14 19 -33h8v-6q0 -35 29 -62.5t61 -27.5q38 0 68 27.5t30 62.5v612q-5 8 -5 19q0 21 19.5 35.5t45.5 14.5q27 0 46.5 -14.5t19.5 -35.5v-1h3v-624q0 -99 -69 -165t-163 -66q-93 0 -161 66q-62 59 -68 144q-2 7 -2 13z" />
<glyph unicode="&#x106b;" horiz-adv-x="644" d="M72 683q0 6 2 13q6 86 68 144q68 66 161 66q94 0 163.5 -65.5t69.5 -165.5v-623h-4v-2q0 -20 -19 -35t-46 -15t-46.5 14.5t-19.5 35.5q0 9 6 18v613q0 35 -30.5 63t-67.5 28q-31 0 -61 -27.5t-30 -63.5v-6h-8q-2 -18 -18 -33q-21 -16 -51 -16q-28 0 -48.5 16t-20.5 41z " />
<glyph unicode="&#x106c;" horiz-adv-x="632" d="M90 231v624h4v1q0 21 19 35.5t46 14.5q26 0 45.5 -14.5t19.5 -35.5q0 -10 -5 -19v-612q0 -35 31 -62.5t67 -27.5q31 0 61 27.5t30 62.5v6h8q2 18 18 33q21 17 51 17q28 0 48.5 -17.5t20.5 -40.5q0 -6 -2 -13q-6 -85 -68 -144q-68 -66 -162 -66t-163 66t-69 165z" />
<glyph unicode="&#x106d;" horiz-adv-x="623" d="M65 13l70 130q27 -7 64 -7q77 0 125 41.5t48 101.5q0 13 -8 28q0 2 -1 3t-1 4q0 2 -1 3.5t-1 3.5l-86 153l-21 35q-27 47 -42 98t-15 101q0 43 6 75t24 62q20 36 49.5 53.5t78.5 23.5l92 -111q-44 -16 -74 -37.5t-21 -61.5q0 -60 57 -158l77 -129v3q23 -41 37 -82t14 -70 q0 -57 -26.5 -107.5t-72.5 -89t-107 -61t-133 -22.5q-70 0 -132 17z" />
<glyph unicode="&#x106e;" horiz-adv-x="2170" d="M73 456q0 202 132 326q123 124 329 123q86 0 159 -25q76 25 171 25q191 0 317 -129q21 -20 40 -43q36 42 85 78q134 101 297 101q192 0 322 -130q136 -129 136 -321q0 -194 -131 -325q-129 -133 -318 -133q-89 0 -157 23q-55 11 -55 63q0 22 19.5 45.5t61.5 23.5 q72 -26 131 -26q134 0 227 93t93 236q0 133 -96 226q-95 95 -231 96q-121 -9 -211 -77q-59 -46 -102 -109q18 -63 18 -136q0 -84 -13.5 -149.5t-52.5 -127.5q-65 -107 -188 -181h-28q-34 0 -58 35q-12 32 8 64l24 21q77 44 129 132q18 40 32.5 95t14.5 111q0 125 -93 219 t-221 94h-9q126 -125 125 -313q0 -84 -13.5 -149.5t-50.5 -127.5q-66 -107 -188 -181h-29q-34 0 -58 35q-12 32 8 64l24 21q77 44 129 132q19 40 33 95t14 111q0 125 -93.5 219t-221.5 94q-139 0 -234 -90q-40 -35 -71 -100q-23 -52 -23 -128q0 -108 41 -190t133 -149 l10 -10l16 -38q0 -27 -14 -43t-51 -26l-35 4l-10 9q-100 79 -165 191q-58 121 -58 252z" />
<glyph unicode="&#x106f;" horiz-adv-x="1838" d="M77 452q0 141 55.5 249t172.5 198l37 9q22 0 53 -23l12 -22l3 -20l-12 -36l-14 -15q-90 -68 -133 -148q-43 -88 -42 -192q0 -148 88 -236q95 -82 241 -82q126 0 222 92q92 88 93 220q0 76 -8 111q-8 49 -36 96q-41 85 -133 132l-20 21q-24 34 -11 64q12 22 40 35h45 q150 -71 197 -193q1 2 44.5 47.5t97 79.5t114 52.5t126.5 18.5q188 0 318 -138q121 -125 134 -290h9v-1091q0 -177 -86 -286.5t-242 -109.5h-173v6h-86q-125 0 -219.5 87.5t-106.5 217.5l-2 27q36 332 335 336q-209 -114 -209 -300q0 -18 2 -35v-27q0 -40 23 -63 q75 -104 177 -105l16 -5h243q100 0 149 69t49 188v752l-16 -16q-141 -130 -329 -130q-89 0 -139 24l-26 10q-36 25 -36 60q0 22 10 41.5t53 23.5l37 -6l20 -8q35 -14 81 -14q136 0 234 89q102 88 102 222q0 135 -95.5 237t-226.5 102q-133 0 -228.5 -96t-95.5 -229 q0 -189 -124 -319.5t-323 -130.5q-211 0 -336 117.5t-125 331.5z" />
<glyph unicode="&#x1070;" horiz-adv-x="1867" d="M85 673q0 89 64 153t153 64t151 -67t62 -150q0 -88 -67 -151.5t-151 -63.5q-24 0 -45 -22t-21 -61q0 -40 30 -95t84 -95q86 -64 188 -64q130 0 228.5 93t98.5 228q0 109 -54.5 204t-143.5 129q-36 11 -48 63q0 66 56 66l19 -2q103 -30 199 -147q101 -141 102 -303 q0 -134 91 -232.5t230 -98.5q130 0 228.5 93t98.5 228q0 129 -93 229.5t-225 100.5l-45 -3l-35 -7q-9 -4 -17 -4q-12 0 -32.5 10t-31.5 47q0 49 51 70l65 13l43 2q178 0 314 -136q121 -123 134 -282h4v-1091q0 -177 -86 -286.5t-242 -109.5h-173v6h-86q-125 0 -219.5 87.5 t-106.5 217.5l-2 27q36 332 335 336q-209 -114 -209 -300q0 -18 2 -35v-27q0 -40 23 -63q75 -104 177 -105l16 -5h243q100 0 149 69t49 188v737l-3 -3q-130 -132 -326 -132q-135 0 -241 68.5t-143 145.5q-18 -41 -65 -85q-136 -129 -329 -129q-161 0 -262 78.5t-168 237.5 l-11 71q0 89 61 149.5t144 60.5q28 0 58 25t30 58q0 36 -23 62t-60 26q-36 0 -61.5 -21.5t-25.5 -61.5q0 -47 -54 -66l-13 -2q-31 0 -54 41z" />
<glyph unicode="&#x1071;" d="M-997 1306q0 34 16 65t40.5 54t57 35.5t67.5 12.5q65 0 118 -56q48 -56 48 -123q0 -66 -53 -119q-56 -49 -126 -49q-66 0 -117 55t-51 125zM-876 1300q0 -19 14.5 -33.5t38.5 -18.5q15 0 40 13q8 10 12 39q0 17 -12 34q-13 13 -39 18q-44 0 -54 -52zM-541 1306 q0 34 16 65t40.5 54t57 35.5t66.5 12.5q65 0 118 -56q49 -56 48 -123q1 -66 -52 -119q-56 -49 -127 -49q-66 0 -116.5 55t-50.5 125zM-421 1300q0 -19 14.5 -33.5t38.5 -18.5q15 0 41 13q8 10 12 39q0 17 -11 34q-14 13 -41 18q-44 0 -54 -52z" />
<glyph unicode="&#x1072;" d="M-988 1386q0 199 137 347.5t341 148.5q136 0 249.5 -68t178.5 -195l10 -36q0 -25 -20 -44.5t-45 -19.5q-22 0 -42 13l-24 22q-43 87 -123.5 137.5t-183.5 50.5q-132 0 -235 -103.5t-103 -252.5q0 -132 103 -234.5t250 -102.5q207 0 307 205l12 10q25 25 49 26 q63 0 68 -68v-25q-60 -129 -175.5 -208.5t-260.5 -79.5q-201 0 -347 137.5t-146 339.5z" />
<glyph unicode="&#x1073;" d="M-1279 1014l10 21l561 458l5 -4l4 4l562 -458l10 -21q17 -46 -4 -84l-34 -8l-30 3l-20 7l-488 398l-488 -398l-21 -7l-29 -3l-34 8q-21 39 -4 84z" />
<glyph unicode="&#x1074;" horiz-adv-x="2" d="M-1270 1402q-17 46 4 84l34 7l30 -3l20 -6l489 -398l487 398l20 6l30 3l34 -7q21 -39 4 -84l-10 -22l-561 -458l-4 5l-6 -5l-561 458z" />
<glyph unicode="&#x1075;" horiz-adv-x="1135" d="M92 161q0 73 72 73q73 0 73 -73q0 -20 32 -31q30 -8 51 2q50 31 50 61q-7 58 -127 109q-65 23 -93 55q-25 17 -47 78q-18 50 -8 116q2 13 2 20v12q34 132 169 233q133 100 282 101q204 0 347 -143q144 -144 144 -340q0 -68 -16 -132t-48.5 -120.5t-77 -105t-98.5 -81.5 q-25 -11 -38 -11q-31 0 -51.5 22t-20.5 51q0 35 33 61q168 101 168 316q0 138 -98 237t-244 100q-99 0 -197 -65q-92 -66 -116 -153q2 -14 -1 -26.5t1 -20.5q13 -36 25.5 -51.5t38.5 -23.5q38 -17 63 -28t39 -21q106 -74 113 -183q1 -81 -62 -145q-67 -66 -151 -66 q-41 0 -77.5 13t-67.5 35t-47.5 55.5t-16.5 69.5z" />
<glyph unicode="&#x1076;" horiz-adv-x="1019" d="M36 717q0 39 12.5 72t34 62t53.5 43.5t68 14.5q70 0 70 -64q0 -68 -70 -68q-20 0 -31 -30q-8 -27 2 -47q30 -45 58 -45q57 6 107 117q23 58 54 83q15 25 75 44q47 18 113 6q12 -2 18.5 -2h12.5v-13q107 -30 195 -120q133 -141 133 -326q0 -181 -137 -313 q-134 -131 -325 -131q-135 0 -242.5 67t-166.5 202l3 48q0 21 28 55q46 44 114 69q65 23 139 23q123 0 235 -69.5t149 -148.5q15 14 43.5 75.5t28.5 122.5q0 134 -93 234q-75 82 -178 97v3h-1q-36 -12 -51 -23t-23 -35q-16 -34 -26.5 -57t-19.5 -38q-72 -95 -179 -102 q-77 -2 -141 57q-62 60 -62 137zM201 299q26 -61 106 -122q83 -50 172 -49q107 0 175 45q-11 21 -43.5 58.5t-73 65t-87 43.5t-93.5 16q-55 0 -92 -14.5t-64 -42.5z" />
<glyph unicode="&#x1077;" horiz-adv-x="1019" d="M43 152q0 70 65 70q66 0 66 -70q0 -20 32 -30q27 -8 46 3q46 29 46 56q-7 57 -117 107q-59 23 -85 55q-23 15 -42 75q-18 48 -6 112q2 12 2 19v12h11q32 108 123 195q140 133 324 133q182 0 313 -137q132 -133 132 -324q0 -137 -67.5 -244.5t-201.5 -164.5l-48 2 q-22 0 -56 29q-43 45 -69 114q-23 64 -23 137q0 124 69.5 236t147.5 150q-12 14 -74 43t-123 29q-134 0 -234 -94q-81 -75 -97 -177h-3v-1q12 -36 23 -50.5t36 -23.5q33 -16 56.5 -27t36.5 -20q97 -72 104 -178q2 -77 -58 -140t-136 -63q-39 0 -72.5 12.5t-62 34.5 t-43.5 53.5t-15 66.5zM596 306q0 -56 14 -93t44 -65q60 26 121 107q51 83 50 173q0 106 -46 174q-21 -11 -58 -43.5t-65 -73t-44 -86.5t-16 -93z" />
<glyph unicode="&#x1078;" horiz-adv-x="1833" d="M73 459q0 191 134 320q131 132 322 131q137 0 246.5 -73t141.5 -141q33 76 144 145t246 69q195 0 323.5 -136t128.5 -325q0 -193 -134 -320q-135 -129 -325 -129q-160 0 -294 112q-155 135 -155 337q0 134 -95 231q-97 100 -227 101q-135 0 -231 -97q-95 -93 -95 -225 q0 -143 93 -236t225 -93l83 9q76 11 76 -63q0 -66 -61 -66l-46 -5l-50 -5q-191 0 -318 133q-132 132 -132 326zM980 459q0 -143 94 -236t226 -93q144 0 236.5 93t92.5 226q0 134 -95 231q-96 100 -227 101q-135 0 -230 -97q-97 -93 -97 -225z" />
<glyph unicode="&#x1079;" horiz-adv-x="1833" d="M73 459q0 191 134 320q131 132 322 131q137 0 246.5 -73t141.5 -141q33 76 144 145t246 69q195 0 323.5 -136t128.5 -325q0 -193 -134 -320q-136 -129 -325 -129q-160 0 -294 112q-155 135 -155 337q0 134 -95 231q-97 100 -227 101q-135 0 -231 -97q-95 -93 -95 -225 q0 -62 16 -113q72 34 169 34q118 0 226 -81q106 -97 142 -197q-38 -46 -86 -69q-14 -23 -51 -23l-46 -5l-50 -5q-191 0 -318 133q-132 132 -132 326zM298 240q17 -40 70 -80q56 -32 114 -32q71 0 115 29q-7 14 -28.5 38.5t-48 43t-57.5 29.5t-62 11q-36 0 -60 -9.5 t-43 -29.5zM980 459q0 -143 94 -236t226 -93q144 0 236.5 93t92.5 226q0 134 -95 231q-96 100 -227 101q-135 0 -230 -97q-97 -93 -97 -225z" />
<glyph unicode="&#x107a;" horiz-adv-x="1899" d="M76 452q0 188 128.5 324t322.5 136q192 0 322 -130q135 -129 134 -321v-75q54 -108 144.5 -176.5t210.5 -77.5q136 0 231 96q96 92 97 225q0 143 -93.5 236.5t-227.5 93.5q-60 0 -131 -27q-42 0 -62 23.5t-20 46.5q0 52 56 62q68 24 157 24q190 0 319 -133 q131 -131 131 -326q0 -191 -136 -320q-132 -130 -323 -130q-163 0 -297 100q-30 23 -56 53q0 -54 -1 -118h2v-647q0 -119 49.5 -188t149.5 -69h242l17 5q102 0 177 105q22 23 22 63v27q1 17 1 35q0 187 -207 300q298 -5 335 -336l-3 -27q-11 -130 -106 -217.5t-219 -87.5 h-86v-6h-173q-157 0 -242.5 109t-85.5 287v602h-1v468q0 133 -96 226q-96 95 -231 96q-131 0 -226 -100q-95 -98 -95 -231q0 -134 92.5 -227t235.5 -93q60 0 112 19q0 1 1 1q20 19 49 19t49 -19.5t20 -47.5q0 -25 -18 -45l2 -2q-94 -54 -215 -54q-189 0 -324 128 q-134 129 -134 321z" />
<glyph unicode="&#x107b;" horiz-adv-x="1833" d="M73 449q0 189 128.5 325t322.5 136q135 0 246.5 -69t146.5 -145q29 69 139 141.5t246 72.5q192 0 322 -131q135 -129 135 -320q0 -195 -132 -326q-128 -133 -319 -133l-49 5l-46 5q-35 0 -52 23q-46 23 -85 69q35 99 142 197q109 81 227 81q95 0 167 -34q17 52 17 113 q0 132 -95 225q-96 96 -232 97q-130 0 -226 -101q-95 -97 -96 -231q0 -203 -154 -337q-133 -112 -294 -112q-190 0 -325 129q-134 128 -134 320zM203 449q0 -133 93 -226t236 -93q132 0 225.5 93t93.5 236q-1 132 -96 225q-96 96 -231 97q-130 0 -226 -101q-95 -97 -95 -231 zM1234 157q45 -29 115 -29q60 0 114 32q54 41 71 80q-18 19 -43 29t-61 10q-30 0 -61 -11t-57.5 -29.5t-48.5 -43t-29 -38.5z" />
<glyph unicode="&#x107c;" horiz-adv-x="1842" d="M71 269l3 48q0 21 29 55q47 44 118 69q66 23 142 23q129 0 244.5 -69.5t155.5 -148.5q13 14 48 75.5t35 122.5q0 134 -107 234q-93 99 -231 100q-88 0 -165 -44.5t-133 -132.5l-17 -18q-35 -22 -72 -10.5t-37 57.5l4 30l7 8q59 111 170 175.5t243 64.5q189 0 325 -138 q45 -46 75 -95q28 49 73 95q135 139 324 138q134 0 245 -64.5t168 -175.5l9 -8l4 -30q0 -46 -36.5 -57.5t-71.5 10.5l-19 18q-55 88 -132 132.5t-167 44.5q-137 0 -230 -100q-105 -100 -106 -234q0 -61 34 -122t48 -76q40 79 156 148.5t244 69.5q76 0 143 -23 q71 -25 118 -69q28 -33 29 -55l3 -48q-61 -135 -172 -202t-252 -67q-197 0 -336 131q-47 43 -77 91q-31 -48 -78 -91q-137 -131 -334 -131q-141 0 -252.5 67t-171.5 202zM206 299q27 -61 110 -122q86 -50 179 -49q109 0 179 45q-11 22 -45 59t-75.5 64.5t-89.5 43.5t-96 16 q-57 0 -95 -14.5t-67 -42.5zM1142 173q69 -46 178 -45q91 0 180 49q82 61 109 122q-29 28 -67 42.5t-95 14.5q-48 0 -96.5 -16t-89.5 -43.5t-75.5 -65t-43.5 -58.5z" />
<glyph unicode="&#x107d;" horiz-adv-x="1848" d="M92 741q0 36 16 69.5t46 55t65.5 34.5t76.5 13q81 0 146 -64q63 -64 62 -144q-7 -108 -110 -182q-15 -10 -39 -20.5t-62 -28.5q-25 -7 -36.5 -22t-25.5 -53q-3 -7 -0.5 -18.5t0.5 -26.5q23 -85 113 -152q95 -63 193 -63q139 0 236 89q106 107 106 243h5q8 171 128 299 q131 139 318 138q131 0 233 -65q107 -61 169 -180l9 -34q0 -33 -36 -56q-34 -12 -66 8l-22 21q-41 85 -117 130q-74 46 -170 46q-124 0 -221 -98q-87 -86 -95 -211h1q0 -18 -2 -36q2 -62 21 -107q20 -50 51 -80q39 74 154 145q118 73 234 73q137 0 248 -90q15 -15 28 -53 q0 -30 5 -49q-57 -125 -165 -198.5t-245 -73.5q-186 0 -324 126q-47 43 -77 94q-28 -45 -69 -85q-139 -141 -337 -141q-147 0 -275 99q-130 99 -165 230v12.5t-2 19.5q-10 67 8 114q20 62 45 77q27 32 91 57q117 51 124 109q0 27 -48 59q-22 10 -51 2q-30 -10 -31 -32 q0 -71 -71 -71q-70 0 -70 71zM1170 173q67 -45 174 -45q92 0 171.5 51.5t108.5 118.5q-22 20 -68 40l-44 14l-48 4q-90 0 -174.5 -54t-119.5 -129z" />
<glyph unicode="&#x107e;" horiz-adv-x="1848" d="M92 741q0 36 16 69.5t46 55t65.5 34.5t76.5 13q81 0 146 -64q63 -64 62 -144q-7 -108 -110 -182q-15 -10 -39 -20.5t-62 -28.5q-25 -7 -36.5 -22t-25.5 -53q-3 -7 -0.5 -18.5t0.5 -26.5q23 -85 113 -161q95 -63 193 -63q139 0 236 98q106 107 106 243h5q8 171 128 299 q131 139 318 138q131 0 233 -65q107 -61 169 -180l9 -34q0 -33 -36 -56q-34 -12 -66 8l-22 21q-41 85 -117 130q-74 46 -170 46q-124 0 -221 -98q-87 -86 -95 -211h1q0 -18 -2 -36q2 -62 21 -107q20 -50 51 -80q39 74 154 145q118 73 234 73q137 0 248 -90q15 -15 28 -53 q0 -30 5 -49q-57 -125 -165 -198.5t-245 -73.5q-149 0 -269 82l-17 -140l-73 -592h3q-25 -181 -155 -275q-133 -95 -288 -77q-86 11 -137 33q-76 31 -110 73q-90 90 -52 242q53 -173 161 -202q55 -10 107 -17q133 -16 229 53q92 64 111 186h2l76 617l25 216q-8 11 -14 21 q-28 -45 -69 -85q-139 -141 -337 -141q-147 0 -275 99q-130 99 -165 230v12.5t-2 19.5q-10 67 8 114q20 62 45 77q27 32 91 57q117 51 124 109q0 27 -48 59q-22 10 -51 2q-30 -10 -31 -32q0 -71 -71 -71q-70 0 -70 71zM1170 173q67 -45 174 -45q92 0 171.5 51.5t108.5 118.5 q-22 20 -68 40l-44 14l-48 4q-90 0 -174.5 -54t-119.5 -129z" />
<glyph unicode="&#x107f;" horiz-adv-x="1053" d="M73 444q0 41 5 74t13 70q12 43 25 75.5t25 56.5q75 120 185 183h22q46 -7 52 -19q125 -70 125 -213q0 -125 -92 -224.5t-209 -110.5q21 -75 105.5 -139.5t190.5 -64.5q69 0 127 22q30 15 55.5 31.5t46.5 33.5q50 49 75 100.5t25 129.5q0 103 -42 192q-43 81 -134 148 l-15 15l-10 35l4 22l11 22q30 22 53 22l36 -9q119 -89 173.5 -197t54.5 -250q0 -154 -81.5 -264.5t-200.5 -157.5q-53 -19 -94.5 -23t-83.5 -4q-95 0 -176 32q-84 42 -142 102q-129 137 -129 310zM201 479l4 -39q28 3 71.5 26.5t76 56.5t48.5 71.5t16 76.5q0 77 -43 104l8 8 q-79 -45 -131 -126q-29 -51 -40 -92q-10 -41 -10 -86z" />
<glyph unicode="&#x1080;" horiz-adv-x="1820" d="M70 269l3 48q0 21 28 55q46 44 114 69q65 23 139 23q123 0 235 -69.5t149 -148.5q15 14 43.5 75.5t28.5 122.5q0 134 -93 234q-91 99 -223 100q-86 0 -161 -44.5t-127 -132.5l-19 -18q-32 -22 -68 -10.5t-36 57.5l3 30l8 8q56 111 163.5 175.5t236.5 64.5q181 0 314 -138 q133 -141 133 -326q0 -35 -6 -69q54 -101 139 -165q90 -69 211 -78q136 0 232 96q95 92 95 225q0 143 -93.5 236.5t-225.5 93.5q-61 0 -133 -27q-42 0 -61.5 23.5t-19.5 46.5q0 52 57 62q67 24 157 24q189 0 317 -133q131 -131 131 -326q0 -191 -136 -320 q-131 -130 -321 -130q-164 0 -298 100q-66 51 -112 112q-28 -45 -70 -84q-134 -131 -325 -131q-135 0 -242.5 67t-166.5 202zM201 299q26 -61 106 -122q83 -50 172 -49q107 0 175 45q-11 22 -43.5 59t-73 64.5t-87 43.5t-93.5 16q-55 0 -92 -14.5t-64 -42.5z" />
<glyph unicode="&#x1081;" horiz-adv-x="1118" d="M-326 -654q52 -173 159 -202q56 -10 107 -17q133 -16 229 53q92 64 111 186h2l76 617l3 21l-6 -1h-10q-111 63 -186 183q-12 24 -25 56t-25 75q-8 36 -13 70.5t-5 73.5q0 174 129 311q58 61 142 101q81 32 176 32q42 0 83.5 -3.5t94.5 -23.5q120 -46 201.5 -157 t81.5 -265q0 -61 -10 -117q1 -6 1 -14q0 -22 -19.5 -37.5t-45.5 -15.5t-45.5 15.5t-19.5 37.5v1l-10 1q17 62 17 129q0 78 -25 130t-75 100q-21 17 -46 33.5t-56 31.5q-58 22 -127 23q-106 0 -190 -64.5t-106 -138.5q117 -12 209 -112.5t92 -223.5q0 -60 -20 -105l-20 -73 l-6 -2l-12 -113l-73 -592h2q-25 -181 -154 -275q-133 -95 -288 -77q-86 11 -137 33q-77 31 -111 73q-90 90 -50 242zM219 426q0 -46 9 -85q9 -42 36 -93q46 -82 116 -125l-7 7q39 29 39 105q0 38 -15 76.5t-43 71.5t-67.5 55.5t-64.5 26.5z" />
<glyph unicode="&#x1082;" horiz-adv-x="1" d="M-1045 -508q0 209 144 357t350 148q120 0 218 -49q21 -2 37 -20q4 -3 8 -5l-3 -3q11 -18 11 -42q0 -28 -16 -49.5t-40 -21.5q-19 0 -34 15l-6 -9q-77 47 -174 47q-154 0 -253.5 -104t-99.5 -260q0 -147 103 -253.5t250 -106.5q149 0 253 107q52 54 78 117h5q4 11 16 21 q21 15 51 15q29 0 52 -15q10 -10 16 -21h9q-2 -8 -5 -16v-2q0 -17 -10 -29q-36 -95 -114 -174q-146 -148 -352 -148h-5q-202 0 -345.5 145.5t-143.5 355.5z" />
<glyph unicode="&#x1083;" horiz-adv-x="453" d="M-39 850l11 20q7 10 19 20l24 16h56q31 0 53 -4t43 -11t40 -16t40 -32q20 -26 37 -72l10 -106l2 -643l1 -621h3q3 -124 87 -199q87 -79 221 -79q52 0 109 4q111 16 182 181q20 -154 -80 -235q-38 -36 -117 -58q-53 -15 -141 -16q-155 0 -276 111q-117 107 -120 291h1 l-1 596l-2 700q-7 49 -27.5 62t-64.5 13h-58l-27 25q-7 12 -12 21.5t-13 31.5z" />
<glyph unicode="&#x1084;" horiz-adv-x="1056" d="M80 306q0 73 40 120q36 48 49 53q-17 9 -50.5 59.5t-33.5 134.5q0 134 131 190q120 57 308 57q197 0 309 -53q147 -68 147 -209q0 -45 -44 -113q-32 -49 -73 -80h-29q-32 4 -49 22l-10 34l3 39l48 51q22 28 23 47q0 68 -89 99t-236 31q-124 0 -219 -41q-88 -38 -88 -74 q0 -68 45 -96q39 -26 118 -35l24 -2q40 -14 39 -52q0 -34 -20 -55q-15 -16 -36 -19l-107 -31q-68 -26 -68 -77q0 -93 90 -139q69 -35 218 -35q153 0 239 30q75 30 96 100l22 15q11 11 53 16l37 -38l16 -32q-49 -119 -149 -170q-62 -28 -132.5 -39t-181.5 -11q-201 0 -306 60 q-134 78 -134 243z" />
<glyph unicode="&#x1085;" d="M-873 1462q0 118 116 172q132 45 264 45q108 0 238 -40q135 -62 134 -183q0 -83 -39.5 -118.5t-136.5 -70.5l-29 18l-24 17l-14 26l14 46l20 20l65 26q15 29 16 36q0 46 -54 67q-60 21 -82 21q-13 6 -58 6h-50q-103 0 -181 -26q-69 -41 -69 -62q0 -35 33 -58 q54 -27 99 -33l19 -7l22 -21l10 -16q11 -31 -23 -66l-23 -17q-71 -21 -103 -47q-34 -34 -34 -67q0 -47 74 -76q53 -24 161 -24l92 6l83 16q70 42 70 62l19 25q23 22 48 22q28 -4 49 -31l13 -16q0 -131 -132 -174q-121 -42 -242 -42l-71 2l-61 10q-62 17 -108 39 q-123 86 -123 183q0 56 34 111q39 56 54 64l-16 11l-31 23l-7 10q-36 45 -36 111z" />
<glyph unicode="&#x1086;" d="M-653 1472q0 87 61.5 146.5t157.5 59.5q89 0 154 -59.5t65 -146.5q0 -46 -20 -118.5t-80 -155.5t-136.5 -146.5t-121.5 -92.5q21 39 58 96l61 117l42 97h-49q-78 3 -130 53q-50 50 -55 102q-7 21 -7 48zM-530 1472q0 -33 29.5 -60t66.5 -27q39 0 64 27t25 60q0 38 -25 63 t-64 25q-38 0 -67 -25t-29 -63z" />
<glyph unicode="&#x1087;" horiz-adv-x="508" d="M71 186q0 70 51 120.5t124 50.5q71 0 122 -51t51 -120q0 -33 -15 -106.5t-64 -144.5t-94 -106.5t-141 -87.5q55 78 83 127t38 79l17 66h3q-14 0 -24 4q-54 0 -101 43q-33 40 -46 87q-4 18 -4 39zM180 191q0 -25 17.5 -42.5t45.5 -17.5q25 0 42.5 17t17.5 43q0 23 -17 39 t-43 16q-28 0 -45.5 -16t-17.5 -39z" />
<glyph unicode="&#x1088;" horiz-adv-x="533" d="M67 736q0 66 55 117.5t127 51.5q33 0 65.5 -15.5t55.5 -41t36 -59t13 -66.5q0 -65 -57 -119q-56 -50 -125 -49q-66 0 -121 54q-49 56 -49 127zM71 186q0 70 51 120.5t124 50.5q71 0 122 -51t51 -120q0 -33 -15 -111t-64 -144.5t-94 -102t-141 -87.5q55 78 83 127t38 79 l17 66h3q-14 0 -24 4q-54 0 -101 43q-33 40 -46 87q-4 18 -4 39zM180 181q0 -25 17.5 -42t45.5 -17q25 0 42.5 17t17.5 42q0 23 -17 39.5t-43 16.5q-28 0 -45.5 -16.5t-17.5 -39.5zM180 728q0 -25 17.5 -42.5t45.5 -17.5q25 0 42.5 17.5t17.5 42.5q0 23 -17 39t-43 16 q-28 0 -45.5 -16t-17.5 -39z" />
<glyph unicode="&#x1089;" horiz-adv-x="527" d="M67 203q0 66 55 117t127 51q33 0 65.5 -15t55.5 -40.5t36 -59t13 -66.5q0 -65 -57 -120q-56 -49 -125 -49q-66 0 -121 55q-49 56 -49 127zM190 197q0 -18 15 -40q8 -9 38 -14q17 0 35 13q13 13 18 41q0 43 -53 52q-20 0 -34 -14t-19 -38z" />
<glyph unicode="&#x108a;" horiz-adv-x="794" d="M73 165q0 74 50.5 125.5t120.5 51.5q20 0 39 -4q48 -12 86 -46q45 -47 45 -102q4 -9 4 -25v4l65 18q30 10 79 37t127 83q-52 -95 -87 -140t-102 -95t-145 -64t-111 -14q-70 0 -120.5 50t-50.5 121zM73 726q0 74 50.5 124.5t120.5 50.5q20 0 39 -3q48 -13 86 -45 q45 -48 45 -104q4 -9 4 -23v4l65 17q30 9 79 36.5t127 83.5q-52 -94 -87 -139.5t-102 -95t-145 -64t-111 -14.5q-70 0 -120.5 50.5t-50.5 121.5zM178 732q0 -26 19 -44.5t44 -18.5q27 0 45 18.5t18 44.5q0 28 -18 47t-45 19q-25 0 -44 -19t-19 -47zM185 165 q0 -26 18.5 -44.5t43.5 -18.5q27 0 45 18.5t18 44.5q0 27 -18 46t-45 19q-25 0 -43.5 -18.5t-18.5 -46.5z" />
<glyph unicode="&#x108b;" horiz-adv-x="508" d="M67 506q0 65 55 116.5t127 51.5q33 0 65.5 -15.5t55.5 -41t36 -59t13 -66.5q0 -65 -57 -120q-56 -49 -125 -49q-66 0 -121 55q-49 56 -49 128zM190 497q0 -20 17 -45q9 -9 42 -16q19 0 40 15q14 14 20 46q0 49 -60 59q-22 0 -37.5 -16.5t-21.5 -42.5z" />
<glyph unicode="&#x108c;" horiz-adv-x="991" d="M67 506q0 65 55 116.5t127 51.5q33 0 65.5 -15.5t55.5 -41t36 -59t13 -66.5q0 -65 -57 -120q-56 -49 -125 -49q-66 0 -121 55q-49 56 -49 128zM180 507q0 -20 19 -45q9 -10 43 -17q21 0 41 15q16 16 21 47q0 52 -62 62q-23 0 -39 -16.5t-23 -45.5zM539 506q0 65 55 116.5 t127 51.5q34 0 65.5 -15.5t54.5 -41t36 -59t13 -66.5q0 -65 -57 -120q-57 -49 -125 -49q-65 0 -122 55q-47 56 -47 128zM658 503q0 -21 17 -45q10 -11 46 -17q20 0 39 14q16 16 23 48q0 51 -62 62q-23 0 -40 -16.5t-23 -45.5z" />
<glyph unicode="&#x108d;" d="M-935 -116h817v-134h-817v134z" />
<glyph unicode="&#x108e;" horiz-adv-x="1053" d="M76 439q0 192 135 321q136 128 323 128q190 0 318 -133q131 -131 131 -325q0 -192 -133 -321q-131 -132 -323 -131q-195 0 -323 135.5t-128 325.5zM207 439q0 -133 94 -230q97 -99 226 -100q135 0 233 95q94 92 95 226q0 84 -33 151q-47 -58 -93 -79q-78 -38 -122 -48 t-85 -10q-157 0 -288 128q-27 -61 -27 -133zM304 667q97 -92 223 -92q23 0 52 4q25 4 72 19.5t94 68.5q-54 45 -104 67q-55 17 -112 17q-63 0 -117 -19.5t-108 -64.5z" />
<glyph unicode="&#x108f;" horiz-adv-x="523" d="M65 189q0 69 50 120t122 51q73 0 124.5 -51t51.5 -120q0 -21 -4 -40q-12 -47 -46 -86q-47 -44 -102 -44q-9 -4 -24 -4h4l17 -65q10 -30 37 -78.5t83 -126.5q-95 51 -140 86.5t-94.5 102t-64 145t-14.5 110.5zM67 736q0 66 55 117.5t127 51.5q33 0 65.5 -15.5t55.5 -41 t36 -59t13 -66.5q0 -65 -57 -119q-56 -50 -125 -49q-66 0 -121 54q-49 56 -49 127zM180 181q0 -25 17.5 -42t45.5 -17q25 0 42.5 17t17.5 42q0 23 -17 39.5t-43 16.5q-28 0 -45.5 -16.5t-17.5 -39.5zM180 728q0 -25 17.5 -42.5t45.5 -17.5q25 0 42.5 17.5t17.5 42.5 q0 23 -17 39t-43 16q-28 0 -45.5 -16t-17.5 -39z" />
<glyph unicode="&#x1090;" horiz-adv-x="1235" d="M101 732q0 149 42 287.5t107 243.5q73 100 171 163.5t197 63.5q206 0 357 -227q76 -109 117 -242t41 -289q0 -157 -41 -291t-117 -242q-151 -218 -357 -218q-109 0 -201 54.5t-167 163.5q-149 218 -149 533zM279 732q0 -124 22 -233.5t76 -195.5v2q97 -174 241 -174 q71 0 129 44t108 128q56 88 78.5 196.5t22.5 232.5q0 117 -27 225.5t-76 192.5q-48 90 -108.5 139t-126.5 49q-70 0 -131.5 -49t-107.5 -139q-48 -84 -74 -192.5t-26 -225.5z" />
<glyph unicode="&#x1091;" horiz-adv-x="820" d="M101 1316q0 22 24 46h-2l346 109q39 -6 63 -21t24 -48v-1194l78 73h24q26 -12 44.5 -35.5t18.5 -58.5v2l-9 -48l-195 -134q-10 -14 -43 -14q-78 0 -78 93v1195l-215 -63q-80 8 -80 98z" />
<glyph unicode="&#x1092;" horiz-adv-x="1137" d="M101 1374q0 43 35 72q5 4 17 5.5t21 7.5l42 -9l66 -122q133 152 328 152q92 0 167.5 -24.5t138.5 -72.5q122 -97 121 -278q0 -70 -42.5 -161t-110.5 -181l-454 -576l108 29q13 -1 30.5 -9t27.5 -23q14 -18 22 -35.5t8 -32.5q0 -23 -21.5 -39.5t-60.5 -27.5l-303 -56 q-41 3 -62.5 15.5t-21.5 40.5q13 42 22.5 61t17.5 26l42 60q33 42 105.5 131t203.5 256l174 222q56 76 99 155t43 128q0 254 -260 254q-43 0 -84 -17t-73 -53q-68 -76 -68 -159q0 -63 33 -115v3q12 -23 -6 -43h3l-41 -29l-29 -8q-47 5 -85 109q-35 80 -74 164t-76 166z" />
<glyph unicode="&#x1093;" horiz-adv-x="1113" d="M55 67l19 54l565 1228l-140 -63q-87 8 -87 70q0 34 28.5 44t66.5 22l251 58q31 -5 54.5 -17.5t27.5 -33.5l-252 -545q51 0 93.5 -40.5t77.5 -109.5q56 -143 95 -239.5t67 -166t45 -119.5t38 -93q3 -18 4 -28.5t5 -16.5q0 -39 -23.5 -51.5t-53.5 -17.5q-53 0 -81 53 l-131 343q-129 336 -180 336q-11 0 -41 -36l-306 -657q-29 -67 -96 -51q-61 12 -46 79v-2z" />
<glyph unicode="&#x1094;" horiz-adv-x="1137" d="M113 76l232 1220l85 135l30.5 30.5t27.5 18.5q17 3 30 -8.5t16 -30.5l18 -77l87 -271v3q32 -98 50.5 -168t26.5 -113q18 -65 38 -135t36 -136l82 -311l28 88q22 56 51.5 94t57.5 27q15 -3 28 -14t20 -22q16 -28 9 -61q-15 -44 -36 -91.5t-35 -89.5l-63 -132 q-21 -40 -66 -39q-76 0 -92 47l-267 1003h-33l-85 -313l-68 -345l-52 -228v2l-21 -56l-15 -45q-27 -56 -64 -56l-35 5q-32 27 -21 69z" />
<glyph unicode="&#x1095;" horiz-adv-x="1188" d="M101 433q0 65 21 130t56 124q31 42 76.5 71.5t91 50t87 35t70.5 22.5q62 18 131.5 37t140.5 33v547q46 -33 77.5 -58.5t79.5 -53.5v-405q32 8 83 18.5t91 16.5q31 -36 51.5 -57.5t33 -35t20 -19.5t13.5 -11l-282 -65q0 -164 -2 -276.5t-7.5 -185t-14 -113t-20.5 -60.5 q-16 -38 -53.5 -69.5t-83.5 -55t-95.5 -38.5t-94.5 -15q-38 0 -81 5.5t-87 20.5h3q-42 13 -77 33t-63 38q-84 81 -124.5 164.5t-40.5 171.5zM257 351q2 -42 32.5 -79t85.5 -76q40 -25 86.5 -40t86.5 -15q34 0 74 10.5t65 32.5q20 12 65 75v4q23 27 28 80t5 106l-7 316 q-95 -22 -155.5 -35.5t-93.5 -22.5t-50.5 -12.5t-25.5 -7.5q-38 -14 -70 -35t-57 -40q-48 -67 -64.5 -131t-4.5 -130z" />
<glyph unicode="&#x1096;" horiz-adv-x="1081" d="M101 1048q0 92 40 176t125 159q28 19 63 41t77 35h-3q45 13 87.5 18.5t80.5 5.5q46 0 95 -13.5t95 -37.5t83.5 -57t53.5 -67q12 -23 20.5 -62.5t14 -113t7.5 -184.5t2 -277l282 -63q-6 -10 -13.5 -16t-20 -18t-32.5 -33.5t-52 -55.5q-41 5 -91.5 14.5t-82.5 17.5v-404 q-48 -26 -80 -52.5t-77 -60.5v545q-71 16 -140.5 33.5t-131.5 39.5q-28 7 -70 21.5t-87.5 36.5t-90.5 52t-77 71q-35 56 -56 121.5t-21 127.5zM257 1133q-11 -68 5.5 -132.5t63.5 -126.5q24 -23 57 -43.5t70 -31.5q8 -6 25.5 -10t50.5 -13t93 -22t156 -35l7 316 q0 52 -4.5 105.5t-28.5 83.5v2q-45 66 -65 76q-25 18 -64.5 29t-74.5 11q-41 0 -87 -14.5t-86 -35.5q-55 -43 -85.5 -80t-32.5 -79z" />
<glyph unicode="&#x1097;" horiz-adv-x="1120" d="M77 1404q0 71 87 71h800q66 0 73 -40l-11 -45l-17 -48h4l-679 -1199h637q35 -4 56 -19t21 -50q-6 -48 -28 -60t-49 -16h-797q-66 -5 -66 54q0 25 31 71l273 473q102 177 212 368.5t216 373.5h-676q-87 0 -87 66z" />
<glyph unicode="&#x1098;" horiz-adv-x="1084" d="M67 428q0 55 38 133t103 176q29 39 80 109t134 167l-42 57q-77 99 -151 205t-162 205h215l249 -339l252 339h200q-51 -58 -133.5 -169.5t-215.5 -295.5l256 -322q48 -63 76.5 -128.5t28.5 -136.5q0 -195 -131 -310q-130 -120 -333 -120q-210 0 -336 118q-66 57 -97 133 t-31 179zM235 461q0 -141 76 -242q38 -45 93.5 -70.5t126.5 -25.5q60 0 116.5 24.5t100.5 71.5q76 95 76 228q0 40 -40.5 107t-107.5 144l-145 172l-152 -172q-72 -79 -108 -141.5t-36 -95.5z" />
<glyph unicode="&#x1099;" horiz-adv-x="1114" d="M95 1041q0 107 33.5 184.5t97.5 136.5q64 61 148 92.5t191 31.5q203 0 335 -128q130 -116 130 -317q0 -146 -152 -329l-206 -247q109 -145 173.5 -232t100 -134.5t53.5 -67.5t31 -33h-214l-251 334q-60 -81 -124 -168t-125 -166h-213l353 465q-122 147 -196.5 246 t-103.5 146v-2q-61 108 -61 188zM269 1019q0 -35 38 -95t109 -142l149 -174q87 99 144.5 172t92.5 121t47 78t12 47q0 140 -78 232q-40 45 -94.5 67t-123.5 22q-146 0 -220 -93q-76 -86 -76 -235z" />
<glyph unicode="&#x109a;" horiz-adv-x="543" d="M76 736q0 66 55.5 117.5t127.5 51.5q33 0 65 -15.5t54.5 -41t36 -59t13.5 -66.5q0 -65 -57 -119q-56 -50 -126 -49q-65 0 -120 54q-49 56 -49 127zM199 728q0 -20 16 -44q10 -10 43 -17q20 0 38 15q16 14 21 46q1 48 -59 59q-21 0 -37 -16t-22 -43z" />
<glyph unicode="&#x109b;" horiz-adv-x="532" d="M98 850q0 69 51.5 120t124.5 51q71 0 121.5 -51t50.5 -120q0 -33 -14.5 -97.5t-64.5 -136t-94.5 -116t-139.5 -94.5q55 78 82.5 126.5t37.5 78.5l18 64h3q-14 0 -25 5q-54 0 -101 44q-33 40 -46 86q-4 18 -4 40zM210 847q0 -28 18 -45.5t46 -17.5q26 0 44.5 17.5 t18.5 45.5q0 26 -18.5 44.5t-44.5 18.5q-27 0 -45.5 -18.5t-18.5 -44.5z" />
<glyph unicode="&#x109c;" horiz-adv-x="805" d="M77 178q0 71 51 122t119 51q35 0 112.5 -15.5t144.5 -64.5t102.5 -94t86.5 -139q-78 56 -127 83t-78 36l-65 17v4q0 -14 -5 -23q0 -56 -45 -103q-38 -32 -85 -46q-18 -3 -41 -3q-68 0 -119 50.5t-51 124.5zM77 738q0 72 51 122t119 50q35 0 112.5 -14t144.5 -63.5 t102.5 -95t86.5 -140.5q-78 56 -127 83.5t-78 37.5l-65 16v4q0 -14 -5 -23q0 -56 -45 -103q-38 -33 -85 -45q-18 -4 -41 -4q-68 0 -119 51t-51 124zM189 174q0 -28 18.5 -47t44.5 -19q29 0 47 19t18 47q0 27 -18 45.5t-47 18.5q-26 0 -44.5 -18t-18.5 -46zM189 735 q0 -29 18.5 -48t44.5 -19q29 0 47 19t18 48q0 27 -18 45.5t-47 18.5q-26 0 -44.5 -18.5t-18.5 -45.5z" />
<glyph unicode="&#x109d;" d="M-781 1427q0 69 22 113t57 77.5t81.5 52t99.5 18.5q54 0 102 -19.5t83 -56t56.5 -83.5t21.5 -101v-490h-130q0 104 1 239.5t1 240.5q-6 56 -43.5 91.5t-86.5 35.5q-47 0 -80.5 -28.5t-40.5 -88.5z" />
<glyph unicode="&#x109e;" horiz-adv-x="508" d="M-2 850l10 20q7 10 19 20l25 16h55q31 0 53 -4t43 -11t40.5 -16t40.5 -32q20 -26 36 -72l11 -106l2 -643l1 -621h2q4 -124 88 -199q87 -79 221 -79q52 0 108 4q111 16 183 181q20 -154 -80 -235q-38 -36 -118 -58q-54 -15 -141 -16q-155 0 -276 111q-117 107 -119 291h1 l-1 596l-2 700q-7 49 -28 62t-65 13h-57l-28 25q-7 12 -12 21.5t-12 31.5zM6 1224q0 36 16.5 68t42 56t58.5 37t70 13q67 0 123 -60q49 -57 49 -126q0 -68 -56 -124q-57 -51 -131 -51q-67 0 -119.5 56.5t-52.5 130.5zM131 1219q0 -22 15 -36.5t40 -19.5q16 0 41 15 q8 9 13 41q0 16 -12 34q-15 13 -42 19q-46 0 -55 -53z" />
<glyph unicode="&#x109f;" horiz-adv-x="1508" d="M101 454q0 188 131.5 320t308.5 132q174 0 317 -134q86 -91 120 -246v-2q12 -52 13 -108v-1187q0 -28 19 -59q15 -27 53 -34q40 1 59 34q16 31 26 59v83h3v1322q-14 104 -52.5 163t-106.5 68h-19v13l-15 -1q-102 0 -198 50q-129 64 -218.5 196.5t-89.5 282.5 q0 212 143.5 350t331.5 146q35 0 65 5q102 -7 220 -48q192 -74 296 -163q176 -125 326 -437q-181 207 -273 283q-113 83 -290 152.5t-303 69.5q-134 0 -260 -95q-107 -92 -108 -260q0 -146 108.5 -269.5t261.5 -139.5q11 0 24 1v-4q31 -1 59 -12q187 -54 235 -341v-1348h-9 v-67q0 -71 -47 -138q-56 -88 -169 -98q-109 9 -169 98q-45 68 -35 138v1251q-25 119 -102 192q-92 99 -216 100q-123 0 -214 -90.5t-91 -227.5q0 -128 89 -213q93 -98 208 -98q50 0 67.5 10t36.5 10q66 0 66 -70q0 -49 -51 -66t-115 -17q-173 0 -309 130q-127 130 -127 314z " />
</font>
</defs>
</svg>
