<?xml version="1.0" standalone="no"?>
<!DOCTYPE svg PUBLIC "-//W3C//DTD SVG 1.1//EN" "http://www.w3.org/Graphics/SVG/1.1/DTD/svg11.dtd" >
<svg xmlns="http://www.w3.org/2000/svg" xmlns:xlink="http://www.w3.org/1999/xlink" version="1.1">
<metadata></metadata>
<defs>
<font id="yunghkio_popregular" horiz-adv-x="0" >
<font-face units-per-em="2048" ascent="1638" descent="-410" />
<missing-glyph horiz-adv-x="512" />
<glyph unicode="&#x1039;&#x1000;" horiz-adv-x="1466" d="M-156 -444q0 -166 113 -293q70 -63 145 -90l45 127q-47 23 -88 59q-78 88 -77 197q0 117 78.5 194.5t189.5 77.5t191.5 -78t80.5 -194q0 -109 -80 -189q-47 -51 -110 -61l45 -133q119 43 192.5 118.5t85.5 210.5l4 41v11v6q0 113 76 194q76 80 187 80t188.5 -79 t77.5 -187q0 -109 -78 -185.5t-188 -76.5q-82 0 -148 47l-69 -117q96 -61 217 -61q164 0 279.5 114.5t115.5 278.5q0 166 -116 282.5t-279 116.5q-111 -8 -197 -52t-135 -130q-20 31 -53 59q-117 123 -287 123t-288 -120.5t-118 -290.5zM102 471q0 39 33 53q14 6 27 6 q39 0 53 -32q6 -12 6 -27q0 -39 -33 -53q-14 -6 -26 -6q-39 0 -53 32q-7 13 -7 27zM160 258q0 39 35 53q12 6 24 6q39 0 55 -32q6 -14 7 -27q0 -39 -35 -53q-12 -6 -27 -6q-37 0 -53 32q-6 13 -6 27zM160 684q0 39 35 53q12 6 24 6q39 0 55 -32q6 -12 7 -27q0 -39 -35 -53 q-12 -6 -27 -6q-37 0 -53 32q-6 13 -6 27zM317 102q0 37 33 54q12 6 27 6q39 0 53 -35q6 -12 6 -25q0 -39 -33 -55q-12 -4 -26 -4q-39 0 -53 33q-7 12 -7 26zM317 840q0 39 33 55q12 4 27 4q39 0 53 -33q6 -12 6 -26q0 -37 -33 -54q-12 -6 -26 -6q-39 0 -53 33q-7 13 -7 27z M530 45q0 39 35 53q12 6 27 6q37 0 53 -32q6 -14 6 -27q0 -39 -35 -53q-12 -6 -24 -6q-39 0 -55 32q-7 13 -7 27zM530 897q0 39 35 53q12 6 27 6q37 0 53 -32q6 -12 6 -27q0 -39 -35 -53q-12 -6 -24 -6q-39 0 -55 32q-7 13 -7 27zM745 102q0 37 33 54q12 6 27 6q39 0 53 -35 q6 -12 6 -25q0 -39 -33 -55q-12 -4 -26 -4q-39 0 -53 33q-7 12 -7 26zM745 840q0 39 33 55q12 4 27 4q39 0 53 -33q6 -12 6 -26q0 -37 -33 -54q-12 -6 -26 -6q-39 0 -53 33q-7 13 -7 27zM901 258q0 39 35 53q12 6 27 6q37 0 53 -32q6 -14 6 -27q0 -39 -35 -53q-10 -6 -24 -6 q-39 0 -56 32q-6 13 -6 27zM901 684q0 39 35 53q12 6 27 6q37 0 53 -32q6 -12 6 -27q0 -39 -35 -53q-10 -6 -24 -6q-39 0 -56 32q-6 13 -6 27zM961 471q0 37 32 53q12 6 27 6q39 0 53 -32q6 -12 6 -27q0 -39 -32 -53q-14 -6 -27 -6q-39 0 -53 32q-6 13 -6 27z" />
<glyph unicode="&#x1039;&#x1001;" horiz-adv-x="1181" d="M102 471q0 39 33 53q14 6 27 6q39 0 53 -32q6 -12 6 -27q0 -39 -33 -53q-14 -6 -26 -6q-39 0 -53 32q-7 13 -7 27zM160 258q0 39 35 53q12 6 24 6q39 0 55 -32q6 -14 7 -27q0 -39 -35 -53q-12 -6 -27 -6q-37 0 -53 32q-6 13 -6 27zM160 684q0 39 35 53q12 6 24 6 q39 0 55 -32q6 -12 7 -27q0 -39 -35 -53q-12 -6 -27 -6q-37 0 -53 32q-6 13 -6 27zM223 -561q0 43 16.5 81t45 67.5t66.5 46t83 16.5q47 0 87 -16.5t70 -46t47 -67.5t17 -81q0 -35 -11 -64.5t-30 -58.5q88 8 152 70q41 41 58.5 86t17.5 96q0 104 -74 178q-78 72 -182 72 q-47 0 -88 -14.5t-76 -39.5l-113 105q61 49 130 75.5t147 26.5q174 0 291 -116h-3q123 -121 123 -287q0 -168 -123 -289h3q-119 -119 -291 -119q-162 0 -301 125l-2 2q-31 35 -45.5 70t-14.5 82zM317 102q0 37 33 54q12 6 27 6q39 0 53 -35q6 -12 6 -25q0 -39 -33 -55 q-12 -4 -26 -4q-39 0 -53 33q-7 12 -7 26zM317 840q0 39 33 55q12 4 27 4q39 0 53 -33q6 -12 6 -26q0 -37 -33 -54q-12 -6 -26 -6q-39 0 -53 33q-7 13 -7 27zM365 -557q0 -29 22.5 -53.5t48.5 -24.5q35 0 57.5 24.5t22.5 53.5q0 33 -22.5 55.5t-57.5 22.5q-27 0 -49 -22.5 t-22 -55.5zM530 45q0 39 35 53q12 6 27 6q37 0 53 -32q6 -14 6 -27q0 -39 -35 -53q-12 -6 -24 -6q-39 0 -55 32q-7 13 -7 27zM530 897q0 39 35 53q12 6 27 6q37 0 53 -32q6 -12 6 -27q0 -39 -35 -53q-12 -6 -24 -6q-39 0 -55 32q-7 13 -7 27zM745 102q0 37 33 54q12 6 27 6 q39 0 53 -35q6 -12 6 -25q0 -39 -33 -55q-12 -4 -26 -4q-39 0 -53 33q-7 12 -7 26zM745 840q0 39 33 55q12 4 27 4q39 0 53 -33q6 -12 6 -26q0 -37 -33 -54q-12 -6 -26 -6q-39 0 -53 33q-7 13 -7 27zM901 258q0 39 35 53q12 6 27 6q37 0 53 -32q6 -14 6 -27q0 -39 -35 -53 q-10 -6 -24 -6q-39 0 -56 32q-6 13 -6 27zM901 684q0 39 35 53q12 6 27 6q37 0 53 -32q6 -12 6 -27q0 -39 -35 -53q-10 -6 -24 -6q-39 0 -56 32q-6 13 -6 27zM961 471q0 37 32 53q12 6 27 6q39 0 53 -32q6 -12 6 -27q0 -39 -32 -53q-14 -6 -27 -6q-39 0 -53 32q-6 13 -6 27z " />
<glyph unicode="&#x1039;&#x1002;" horiz-adv-x="1181" d="M102 471q0 39 33 53q14 6 27 6q39 0 53 -32q6 -12 6 -27q0 -39 -33 -53q-14 -6 -26 -6q-39 0 -53 32q-7 13 -7 27zM160 258q0 39 35 53q12 6 24 6q39 0 55 -32q6 -14 7 -27q0 -39 -35 -53q-12 -6 -27 -6q-37 0 -53 32q-6 13 -6 27zM160 684q0 39 35 53q12 6 24 6 q39 0 55 -32q6 -12 7 -27q0 -39 -35 -53q-12 -6 -27 -6q-37 0 -53 32q-6 13 -6 27zM176 -465q0 84 32 158t86 129t127 87t157 32t157.5 -32t129 -87t87 -129t31.5 -158q0 -135 -77 -237.5t-197 -143.5l-54 146q78 25 127 89t49 150q0 51 -19 98.5t-54 81t-81 54t-97 20.5 q-53 0 -99.5 -20.5t-80 -54t-54 -81t-20.5 -98.5q0 -86 52 -152.5t130 -88.5l-59 -146q-121 41 -197 144.5t-76 238.5zM317 102q0 37 33 54q12 6 27 6q39 0 53 -35q6 -12 6 -25q0 -39 -33 -55q-12 -4 -26 -4q-39 0 -53 33q-7 12 -7 26zM317 840q0 39 33 55q12 4 27 4 q39 0 53 -33q6 -12 6 -26q0 -37 -33 -54q-12 -6 -26 -6q-39 0 -53 33q-7 13 -7 27zM530 45q0 39 35 53q12 6 27 6q37 0 53 -32q6 -14 6 -27q0 -39 -35 -53q-12 -6 -24 -6q-39 0 -55 32q-7 13 -7 27zM530 897q0 39 35 53q12 6 27 6q37 0 53 -32q6 -12 6 -27q0 -39 -35 -53 q-12 -6 -24 -6q-39 0 -55 32q-7 13 -7 27zM745 102q0 37 33 54q12 6 27 6q39 0 53 -35q6 -12 6 -25q0 -39 -33 -55q-12 -4 -26 -4q-39 0 -53 33q-7 12 -7 26zM745 840q0 39 33 55q12 4 27 4q39 0 53 -33q6 -12 6 -26q0 -37 -33 -54q-12 -6 -26 -6q-39 0 -53 33q-7 13 -7 27z M901 258q0 39 35 53q12 6 27 6q37 0 53 -32q6 -14 6 -27q0 -39 -35 -53q-10 -6 -24 -6q-39 0 -56 32q-6 13 -6 27zM901 684q0 39 35 53q12 6 27 6q37 0 53 -32q6 -12 6 -27q0 -39 -35 -53q-10 -6 -24 -6q-39 0 -56 32q-6 13 -6 27zM961 471q0 37 32 53q12 6 27 6 q39 0 53 -32q6 -12 6 -27q0 -39 -32 -53q-14 -6 -27 -6q-39 0 -53 32q-6 13 -6 27z" />
<glyph unicode="&#x1039;&#x1003;" horiz-adv-x="1386" d="M-176 -424v-6q0 -166 115.5 -282.5t281.5 -116.5t283 116q8 10 16 21l2 -2q18 18 33 41q20 -33 49 -62q119 -117 283 -116q166 0 281.5 116.5t115.5 280.5q0 168 -115.5 283.5t-281.5 115.5h-4l-21 -135q12 2 25 2q111 0 187.5 -78t76.5 -188q0 -106 -77 -185t-187 -79 q-111 0 -187 80q-78 76 -77 184q0 18 -2 35h-3q-10 147 -116 268q-74 72 -166 100l-47 -127q68 -16 119 -69q78 -96 77 -203q0 -111 -76.5 -188.5t-187.5 -77.5q-109 0 -186 78q-63 63 -76 145h4q199 59 191 217l-4 35q-6 53 -21 76q-25 68 -117 102l-67 10q-72 -8 -107 -26 l35 -134l33 21l53 2q55 4 66 -70q0 -80 -74 -98l-123 -35zM102 471q0 39 33 53q14 6 27 6q39 0 53 -32q6 -12 6 -27q0 -39 -33 -53q-14 -6 -26 -6q-39 0 -53 32q-7 13 -7 27zM160 258q0 39 35 53q12 6 24 6q39 0 55 -32q6 -14 7 -27q0 -39 -35 -53q-12 -6 -27 -6 q-37 0 -53 32q-6 13 -6 27zM160 684q0 39 35 53q12 6 24 6q39 0 55 -32q6 -12 7 -27q0 -39 -35 -53q-12 -6 -27 -6q-37 0 -53 32q-6 13 -6 27zM317 102q0 37 33 54q12 6 27 6q39 0 53 -35q6 -12 6 -25q0 -39 -33 -55q-12 -4 -26 -4q-39 0 -53 33q-7 12 -7 26zM317 840 q0 39 33 55q12 4 27 4q39 0 53 -33q6 -12 6 -26q0 -37 -33 -54q-12 -6 -26 -6q-39 0 -53 33q-7 13 -7 27zM530 45q0 39 35 53q12 6 27 6q37 0 53 -32q6 -14 6 -27q0 -39 -35 -53q-12 -6 -24 -6q-39 0 -55 32q-7 13 -7 27zM530 897q0 39 35 53q12 6 27 6q37 0 53 -32 q6 -12 6 -27q0 -39 -35 -53q-12 -6 -24 -6q-39 0 -55 32q-7 13 -7 27zM745 102q0 37 33 54q12 6 27 6q39 0 53 -35q6 -12 6 -25q0 -39 -33 -55q-12 -4 -26 -4q-39 0 -53 33q-7 12 -7 26zM745 840q0 39 33 55q12 4 27 4q39 0 53 -33q6 -12 6 -26q0 -37 -33 -54q-12 -6 -26 -6 q-39 0 -53 33q-7 13 -7 27zM901 258q0 39 35 53q12 6 27 6q37 0 53 -32q6 -14 6 -27q0 -39 -35 -53q-10 -6 -24 -6q-39 0 -56 32q-6 13 -6 27zM901 684q0 39 35 53q12 6 27 6q37 0 53 -32q6 -12 6 -27q0 -39 -35 -53q-10 -6 -24 -6q-39 0 -56 32q-6 13 -6 27zM961 471 q0 37 32 53q12 6 27 6q39 0 53 -32q6 -12 6 -27q0 -39 -32 -53q-14 -6 -27 -6q-39 0 -53 32q-6 13 -6 27z" />
<glyph unicode="&#x1039;&#x1004;" horiz-adv-x="1181" d="M102 471q0 39 33 53q14 6 27 6q39 0 53 -32q6 -12 6 -27q0 -39 -33 -53q-14 -6 -26 -6q-39 0 -53 32q-7 13 -7 27zM160 258q0 39 35 53q12 6 24 6q39 0 55 -32q6 -14 7 -27q0 -39 -35 -53q-12 -6 -27 -6q-37 0 -53 32q-6 13 -6 27zM160 684q0 39 35 53q12 6 24 6 q39 0 55 -32q6 -12 7 -27q0 -39 -35 -53q-12 -6 -27 -6q-37 0 -53 32q-6 13 -6 27zM184 -434q0 170 117 287q119 117 287 116q168 0 286 -119q37 -39 70 -96l-117 -110q-25 59 -63 98q-39 37 -81 56.5t-95 19.5q-100 0 -178 -74q-72 -76 -72 -178t72 -178q74 -74 178 -74 q102 0 176 74q18 18 33.5 44.5t29.5 57.5l117 -113q-20 -51 -72 -98h2q-117 -117 -286 -117q-168 0 -287 117q-12 12 -24.5 28t-22.5 36q-35 47 -51.5 103t-18.5 120zM317 102q0 37 33 54q12 6 27 6q39 0 53 -35q6 -12 6 -25q0 -39 -33 -55q-12 -4 -26 -4q-39 0 -53 33 q-7 12 -7 26zM317 840q0 39 33 55q12 4 27 4q39 0 53 -33q6 -12 6 -26q0 -37 -33 -54q-12 -6 -26 -6q-39 0 -53 33q-7 13 -7 27zM530 45q0 39 35 53q12 6 27 6q37 0 53 -32q6 -14 6 -27q0 -39 -35 -53q-12 -6 -24 -6q-39 0 -55 32q-7 13 -7 27zM530 897q0 39 35 53 q12 6 27 6q37 0 53 -32q6 -12 6 -27q0 -39 -35 -53q-12 -6 -24 -6q-39 0 -55 32q-7 13 -7 27zM745 102q0 37 33 54q12 6 27 6q39 0 53 -35q6 -12 6 -25q0 -39 -33 -55q-12 -4 -26 -4q-39 0 -53 33q-7 12 -7 26zM745 840q0 39 33 55q12 4 27 4q39 0 53 -33q6 -12 6 -26 q0 -37 -33 -54q-12 -6 -26 -6q-39 0 -53 33q-7 13 -7 27zM901 258q0 39 35 53q12 6 27 6q37 0 53 -32q6 -14 6 -27q0 -39 -35 -53q-10 -6 -24 -6q-39 0 -56 32q-6 13 -6 27zM901 684q0 39 35 53q12 6 27 6q37 0 53 -32q6 -12 6 -27q0 -39 -35 -53q-10 -6 -24 -6 q-39 0 -56 32q-6 13 -6 27zM961 471q0 37 32 53q12 6 27 6q39 0 53 -32q6 -12 6 -27q0 -39 -32 -53q-14 -6 -27 -6q-39 0 -53 32q-6 13 -6 27z" />
<glyph unicode="&#x1039;&#x1005;" horiz-adv-x="1181" d="M102 471q0 39 33 53q14 6 27 6q39 0 53 -32q6 -12 6 -27q0 -39 -33 -53q-14 -6 -26 -6q-39 0 -53 32q-7 13 -7 27zM160 258q0 39 35 53q12 6 24 6q39 0 55 -32q6 -14 7 -27q0 -39 -35 -53q-12 -6 -27 -6q-37 0 -53 32q-6 13 -6 27zM160 684q0 39 35 53q12 6 24 6 q39 0 55 -32q6 -12 7 -27q0 -39 -35 -53q-12 -6 -27 -6q-37 0 -53 32q-6 13 -6 27zM190 -434q0 82 30 151.5t85 128.5q121 117 283 117q168 0 282 -115q117 -116 117 -282q0 -164 -117 -281q-115 -119 -282 -119q-166 0 -283 119v-2q-115 119 -115 283zM317 102q0 37 33 54 q12 6 27 6q39 0 53 -35q6 -12 6 -25q0 -39 -33 -55q-12 -4 -26 -4q-39 0 -53 33q-7 12 -7 26zM317 840q0 39 33 55q12 4 27 4q39 0 53 -33q6 -12 6 -26q0 -37 -33 -54q-12 -6 -26 -6q-39 0 -53 33q-7 13 -7 27zM338 -438q0 -29 22.5 -48.5t47.5 -19.5q29 0 52 19.5t23 48.5 q0 37 -23 57.5t-52 20.5q-25 0 -47.5 -20.5t-22.5 -57.5zM446 -641q31 -23 67 -33t75 -10q96 0 174 74q74 78 74 176q0 96 -74 174q-78 74 -174 74q-72 0 -137 -39q59 -12 102 -58h-2q65 -61 65 -149q0 -90 -65 -152h2q-43 -45 -107 -57zM530 45q0 39 35 53q12 6 27 6 q37 0 53 -32q6 -14 6 -27q0 -39 -35 -53q-12 -6 -24 -6q-39 0 -55 32q-7 13 -7 27zM530 897q0 39 35 53q12 6 27 6q37 0 53 -32q6 -12 6 -27q0 -39 -35 -53q-12 -6 -24 -6q-39 0 -55 32q-7 13 -7 27zM745 102q0 37 33 54q12 6 27 6q39 0 53 -35q6 -12 6 -25q0 -39 -33 -55 q-12 -4 -26 -4q-39 0 -53 33q-7 12 -7 26zM745 840q0 39 33 55q12 4 27 4q39 0 53 -33q6 -12 6 -26q0 -37 -33 -54q-12 -6 -26 -6q-39 0 -53 33q-7 13 -7 27zM901 258q0 39 35 53q12 6 27 6q37 0 53 -32q6 -14 6 -27q0 -39 -35 -53q-10 -6 -24 -6q-39 0 -56 32q-6 13 -6 27z M901 684q0 39 35 53q12 6 27 6q37 0 53 -32q6 -12 6 -27q0 -39 -35 -53q-10 -6 -24 -6q-39 0 -56 32q-6 13 -6 27zM961 471q0 37 32 53q12 6 27 6q39 0 53 -32q6 -12 6 -27q0 -39 -32 -53q-14 -6 -27 -6q-39 0 -53 32q-6 13 -6 27z" />
<glyph unicode="&#x1039;&#x1006;" horiz-adv-x="1431" d="M-72 -582q0 45 17.5 84t46 69t68.5 47t85 17q94 0 155.5 -61t61.5 -156q0 -63 -30 -108q72 10 123 69q25 29 42 69t27 81q4 20 4 47t-2 45q-4 35 -23.5 64.5t-47.5 56.5q-39 31 -84 48t-92 17q-100 0 -181 -69l-94 123q117 104 285 104q98 0 173 -40t134 -126 q10 12 20.5 26.5t20.5 27.5q123 119 289 118q164 0 286 -118q117 -123 117 -285q0 -166 -117 -285v2q-121 -121 -286 -121q-166 0 -289 117q-6 6 -14.5 15.5t-18.5 23.5q-66 -86 -152.5 -123t-193.5 -39q-131 0 -223 62q-106 72 -107 198zM59 -582q0 -35 23.5 -60.5 t58.5 -25.5q70 0 86 82q-2 35 -24.5 55.5t-57.5 30.5q-39 -2 -63.5 -24.5t-22.5 -57.5zM102 471q0 39 33 53q14 6 27 6q39 0 53 -32q6 -12 6 -27q0 -39 -33 -53q-14 -6 -26 -6q-39 0 -53 32q-7 13 -7 27zM160 258q0 39 35 53q12 6 24 6q39 0 55 -32q6 -14 7 -27 q0 -39 -35 -53q-12 -6 -27 -6q-37 0 -53 32q-6 13 -6 27zM160 684q0 39 35 53q12 6 24 6q39 0 55 -32q6 -12 7 -27q0 -39 -35 -53q-12 -6 -27 -6q-37 0 -53 32q-6 13 -6 27zM317 102q0 37 33 54q12 6 27 6q39 0 53 -35q6 -12 6 -25q0 -39 -33 -55q-12 -4 -26 -4 q-39 0 -53 33q-7 12 -7 26zM317 840q0 39 33 55q12 4 27 4q39 0 53 -33q6 -12 6 -26q0 -37 -33 -54q-12 -6 -26 -6q-39 0 -53 33q-7 13 -7 27zM530 45q0 39 35 53q12 6 27 6q37 0 53 -32q6 -14 6 -27q0 -39 -35 -53q-12 -6 -24 -6q-39 0 -55 32q-7 13 -7 27zM530 897 q0 39 35 53q12 6 27 6q37 0 53 -32q6 -12 6 -27q0 -39 -35 -53q-12 -6 -24 -6q-39 0 -55 32q-7 13 -7 27zM674 -403q-4 -31 0 -60q10 -88 71 -149q74 -74 179 -74q104 0 178 74q74 78 74 180q0 53 -19.5 96t-54.5 82v-2q-78 74 -178 74q-99 0 -179 -76q-63 -63 -71 -145z M745 102q0 37 33 54q12 6 27 6q39 0 53 -35q6 -12 6 -25q0 -39 -33 -55q-12 -4 -26 -4q-39 0 -53 33q-7 12 -7 26zM745 840q0 39 33 55q12 4 27 4q39 0 53 -33q6 -12 6 -26q0 -37 -33 -54q-12 -6 -26 -6q-39 0 -53 33q-7 13 -7 27zM901 258q0 39 35 53q12 6 27 6 q37 0 53 -32q6 -14 6 -27q0 -39 -35 -53q-10 -6 -24 -6q-39 0 -56 32q-6 13 -6 27zM901 684q0 39 35 53q12 6 27 6q37 0 53 -32q6 -12 6 -27q0 -39 -35 -53q-10 -6 -24 -6q-39 0 -56 32q-6 13 -6 27zM961 471q0 37 32 53q12 6 27 6q39 0 53 -32q6 -12 6 -27q0 -39 -32 -53 q-14 -6 -27 -6q-39 0 -53 32q-6 13 -6 27z" />
<glyph unicode="&#x1039;&#x1007;" horiz-adv-x="1181" d="M102 471q0 39 33 53q14 6 27 6q39 0 53 -32q6 -12 6 -27q0 -39 -33 -53q-14 -6 -26 -6q-39 0 -53 32q-7 13 -7 27zM160 258q0 39 35 53q12 6 24 6q39 0 55 -32q6 -14 7 -27q0 -39 -35 -53q-12 -6 -27 -6q-37 0 -53 32q-6 13 -6 27zM160 684q0 39 35 53q12 6 24 6 q39 0 55 -32q6 -12 7 -27q0 -39 -35 -53q-12 -6 -27 -6q-37 0 -53 32q-6 13 -6 27zM197 -428q0 82 29.5 151.5t82.5 129.5q123 117 285 116q162 0 283 -116q29 -35 47 -60.5t24 -48.5h6q14 -66 64 -115v2q43 -43 104 -61l-41 -150q-102 33 -170 103h4l-6 6q-8 -8 -10 -12 q-68 -61 -149 -62q-90 0 -151.5 60.5t-61.5 150.5q0 88 61 150q6 4 3 2t1 2h-8q-102 0 -172 -74v2q-76 -76 -76 -176q0 -104 76 -176q35 -37 79 -55.5t93 -18.5q94 0 168 68l108 -107q-123 -111 -276 -110q-164 0 -285 114q-53 59 -82.5 129t-29.5 156zM317 102q0 37 33 54 q12 6 27 6q39 0 53 -35q6 -12 6 -25q0 -39 -33 -55q-12 -4 -26 -4q-39 0 -53 33q-7 12 -7 26zM317 840q0 39 33 55q12 4 27 4q39 0 53 -33q6 -12 6 -26q0 -37 -33 -54q-12 -6 -26 -6q-39 0 -53 33q-7 13 -7 27zM530 45q0 39 35 53q12 6 27 6q37 0 53 -32q6 -14 6 -27 q0 -39 -35 -53q-12 -6 -24 -6q-39 0 -55 32q-7 13 -7 27zM530 897q0 39 35 53q12 6 27 6q37 0 53 -32q6 -12 6 -27q0 -39 -35 -53q-12 -6 -24 -6q-39 0 -55 32q-7 13 -7 27zM684 -340q0 -27 21.5 -47.5t48.5 -20.5q12 0 26.5 6.5t24.5 14.5q16 14 20 33q-6 12 -10 28.5 t-8 32.5l-23 23q-22 6 -30 6q-27 0 -48.5 -19.5t-21.5 -56.5zM745 102q0 37 33 54q12 6 27 6q39 0 53 -35q6 -12 6 -25q0 -39 -33 -55q-12 -4 -26 -4q-39 0 -53 33q-7 12 -7 26zM745 840q0 39 33 55q12 4 27 4q39 0 53 -33q6 -12 6 -26q0 -37 -33 -54q-12 -6 -26 -6 q-39 0 -53 33q-7 13 -7 27zM901 258q0 39 35 53q12 6 27 6q37 0 53 -32q6 -14 6 -27q0 -39 -35 -53q-10 -6 -24 -6q-39 0 -56 32q-6 13 -6 27zM901 684q0 39 35 53q12 6 27 6q37 0 53 -32q6 -12 6 -27q0 -39 -35 -53q-10 -6 -24 -6q-39 0 -56 32q-6 13 -6 27zM961 471 q0 37 32 53q12 6 27 6q39 0 53 -32q6 -12 6 -27q0 -39 -32 -53q-14 -6 -27 -6q-39 0 -53 32q-6 13 -6 27z" />
<glyph unicode="&#x1039;&#x1008;" horiz-adv-x="1392" d="M102 471q0 39 33 53q14 6 27 6q39 0 53 -32q6 -12 6 -27q0 -39 -33 -53q-14 -6 -26 -6q-39 0 -53 32q-7 13 -7 27zM160 258q0 39 35 53q12 6 24 6q39 0 55 -32q6 -14 7 -27q0 -39 -35 -53q-12 -6 -27 -6q-37 0 -53 32q-6 13 -6 27zM160 684q0 39 35 53q12 6 24 6 q39 0 55 -32q6 -12 7 -27q0 -39 -35 -53q-12 -6 -27 -6q-37 0 -53 32q-6 13 -6 27zM190 -434q0 82 30 151.5t85 128.5q121 117 283 117q168 0 282 -115q117 -116 117 -282q0 -164 -117 -281q-115 -119 -282 -119q-166 0 -283 119v-2q-115 119 -115 283zM317 102q0 37 33 54 q12 6 27 6q39 0 53 -35q6 -12 6 -25q0 -39 -33 -55q-12 -4 -26 -4q-39 0 -53 33q-7 12 -7 26zM317 840q0 39 33 55q12 4 27 4q39 0 53 -33q6 -12 6 -26q0 -37 -33 -54q-12 -6 -26 -6q-39 0 -53 33q-7 13 -7 27zM338 -438q0 -29 22.5 -48.5t47.5 -19.5q29 0 52 19.5t23 48.5 q0 37 -23 57.5t-52 20.5q-25 0 -47.5 -20.5t-22.5 -57.5zM446 -641q31 -23 67 -33t75 -10q96 0 174 74q74 78 74 176q0 96 -74 174q-78 74 -174 74q-72 0 -137 -39q59 -12 102 -58h-2q65 -61 65 -149q0 -90 -65 -152h2q-43 -45 -107 -57zM530 45q0 39 35 53q12 6 27 6 q37 0 53 -32q6 -14 6 -27q0 -39 -35 -53q-12 -6 -24 -6q-39 0 -55 32q-7 13 -7 27zM530 897q0 39 35 53q12 6 27 6q37 0 53 -32q6 -12 6 -27q0 -39 -35 -53q-12 -6 -24 -6q-39 0 -55 32q-7 13 -7 27zM694 -733l158 90q14 -35 44 -47t83 -12q66 4 105.5 24.5t43.5 97.5v1504 h162v-1540q0 -244 -227 -246h-154q-170 10 -215 129zM745 102q0 37 33 54q12 6 27 6q39 0 53 -35q6 -12 6 -25q0 -39 -33 -55q-12 -4 -26 -4q-39 0 -53 33q-7 12 -7 26zM745 840q0 39 33 55q12 4 27 4q39 0 53 -33q6 -12 6 -26q0 -37 -33 -54q-12 -6 -26 -6q-39 0 -53 33 q-7 13 -7 27zM901 258q0 39 35 53q12 6 27 6q37 0 53 -32q6 -14 6 -27q0 -39 -35 -53q-10 -6 -24 -6q-39 0 -56 32q-6 13 -6 27zM901 684q0 39 35 53q12 6 27 6q37 0 53 -32q6 -12 6 -27q0 -39 -35 -53q-10 -6 -24 -6q-39 0 -56 32q-6 13 -6 27zM961 471q0 37 32 53 q12 6 27 6q39 0 53 -32q6 -12 6 -27q0 -39 -32 -53q-14 -6 -27 -6q-39 0 -53 32q-6 13 -6 27z" />
<glyph unicode="&#x1039;&#x1009;" horiz-adv-x="1333" d="M-49 -184l141 -62q35 29 82 49.5t119 24.5q82 0 140.5 -35t58.5 -78q0 -45 -58.5 -78.5t-140.5 -33.5q-59 0 -113.5 23.5t-105.5 64.5l-103 -70v-227q0 -100 86 -162.5t232 -62.5h612q145 0 237.5 59t90.5 164v43h-172q0 -27 -14.5 -50.5t-38 -42t-54 -28.5t-63.5 -10 h-592q-66 0 -114 29.5t-48 66.5v82q37 -12 76 -16.5t84 -4.5q72 0 139.5 19.5t122.5 54.5q89 53 109 180q0 53 -31 98.5t-84 82.5q-55 35 -119.5 53t-136.5 18q-121 -6 -202 -46t-140 -105zM102 471q0 39 33 53q14 6 27 6q39 0 53 -32q6 -12 6 -27q0 -39 -33 -53 q-14 -6 -26 -6q-39 0 -53 32q-7 13 -7 27zM160 258q0 39 35 53q12 6 24 6q39 0 55 -32q6 -14 7 -27q0 -39 -35 -53q-12 -6 -27 -6q-37 0 -53 32q-6 13 -6 27zM160 684q0 39 35 53q12 6 24 6q39 0 55 -32q6 -12 7 -27q0 -39 -35 -53q-12 -6 -27 -6q-37 0 -53 32q-6 13 -6 27z M317 102q0 37 33 54q12 6 27 6q39 0 53 -35q6 -12 6 -25q0 -39 -33 -55q-12 -4 -26 -4q-39 0 -53 33q-7 12 -7 26zM317 840q0 39 33 55q12 4 27 4q39 0 53 -33q6 -12 6 -26q0 -37 -33 -54q-12 -6 -26 -6q-39 0 -53 33q-7 13 -7 27zM530 45q0 39 35 53q12 6 27 6q37 0 53 -32 q6 -14 6 -27q0 -39 -35 -53q-12 -6 -24 -6q-39 0 -55 32q-7 13 -7 27zM530 897q0 39 35 53q12 6 27 6q37 0 53 -32q6 -12 6 -27q0 -39 -35 -53q-12 -6 -24 -6q-39 0 -55 32q-7 13 -7 27zM745 102q0 37 33 54q12 6 27 6q39 0 53 -35q6 -12 6 -25q0 -39 -33 -55q-12 -4 -26 -4 q-39 0 -53 33q-7 12 -7 26zM745 840q0 39 33 55q12 4 27 4q39 0 53 -33q6 -12 6 -26q0 -37 -33 -54q-12 -6 -26 -6q-39 0 -53 33q-7 13 -7 27zM901 258q0 39 35 53q12 6 27 6q37 0 53 -32q6 -14 6 -27q0 -39 -35 -53q-10 -6 -24 -6q-39 0 -56 32q-6 13 -6 27zM901 684 q0 39 35 53q12 6 27 6q37 0 53 -32q6 -12 6 -27q0 -39 -35 -53q-10 -6 -24 -6q-39 0 -56 32q-6 13 -6 27zM961 471q0 37 32 53q12 6 27 6q39 0 53 -32q6 -12 6 -27q0 -39 -32 -53q-14 -6 -27 -6q-39 0 -53 32q-6 13 -6 27z" />
<glyph unicode="&#x1039;&#x100a;" horiz-adv-x="1347" d="M-49 -184l141 -62q35 29 82 49.5t119 24.5q80 0 138 -34t61 -77v-2v-4q0 -2 -1.5 -3t-1.5 -3v-2q-10 -41 -65 -70.5t-131 -29.5q-59 0 -113.5 23.5t-105.5 64.5l-103 -70v-227q0 -100 86 -162.5t232 -62.5h612q145 0 237.5 59t90.5 164v43h-172q0 -27 -14.5 -50.5 t-38 -42t-54 -28.5t-63.5 -10h-592q-66 0 -114 29.5t-48 66.5v82q37 -12 76 -16.5t84 -4.5q72 0 139.5 19.5t122.5 54.5l25 19q57 -45 135 -69t149 -24q68 0 132.5 18.5t117.5 53.5t85 85t32 97q0 51 -28.5 97.5t-88.5 83.5q-53 35 -115.5 53t-134.5 18q-66 0 -129 -17.5 t-131 -49.5l119 -109q35 23 71.5 30t69.5 7q39 0 76 -9t63.5 -25.5t43 -37t16.5 -41.5q0 -23 -16.5 -43t-43 -35.5t-63.5 -24.5t-76 -9q-84 0 -142 33.5t-58 78.5v11q0 4 -1 8t-1 8q-8 45 -37 83t-76 71q-55 35 -119.5 53t-136.5 18q-121 -6 -202 -46t-140 -105zM102 471 q0 39 33 53q14 6 27 6q39 0 53 -32q6 -12 6 -27q0 -39 -33 -53q-14 -6 -26 -6q-39 0 -53 32q-7 13 -7 27zM160 258q0 39 35 53q12 6 24 6q39 0 55 -32q6 -14 7 -27q0 -39 -35 -53q-12 -6 -27 -6q-37 0 -53 32q-6 13 -6 27zM160 684q0 39 35 53q12 6 24 6q39 0 55 -32 q6 -12 7 -27q0 -39 -35 -53q-12 -6 -27 -6q-37 0 -53 32q-6 13 -6 27zM317 102q0 37 33 54q12 6 27 6q39 0 53 -35q6 -12 6 -25q0 -39 -33 -55q-12 -4 -26 -4q-39 0 -53 33q-7 12 -7 26zM317 840q0 39 33 55q12 4 27 4q39 0 53 -33q6 -12 6 -26q0 -37 -33 -54q-12 -6 -26 -6 q-39 0 -53 33q-7 13 -7 27zM530 45q0 39 35 53q12 6 27 6q37 0 53 -32q6 -14 6 -27q0 -39 -35 -53q-12 -6 -24 -6q-39 0 -55 32q-7 13 -7 27zM530 897q0 39 35 53q12 6 27 6q37 0 53 -32q6 -12 6 -27q0 -39 -35 -53q-12 -6 -24 -6q-39 0 -55 32q-7 13 -7 27zM745 102 q0 37 33 54q12 6 27 6q39 0 53 -35q6 -12 6 -25q0 -39 -33 -55q-12 -4 -26 -4q-39 0 -53 33q-7 12 -7 26zM745 840q0 39 33 55q12 4 27 4q39 0 53 -33q6 -12 6 -26q0 -37 -33 -54q-12 -6 -26 -6q-39 0 -53 33q-7 13 -7 27zM901 258q0 39 35 53q12 6 27 6q37 0 53 -32 q6 -14 6 -27q0 -39 -35 -53q-10 -6 -24 -6q-39 0 -56 32q-6 13 -6 27zM901 684q0 39 35 53q12 6 27 6q37 0 53 -32q6 -12 6 -27q0 -39 -35 -53q-10 -6 -24 -6q-39 0 -56 32q-6 13 -6 27zM961 471q0 37 32 53q12 6 27 6q39 0 53 -32q6 -12 6 -27q0 -39 -32 -53q-14 -6 -27 -6 q-39 0 -53 32q-6 13 -6 27z" />
<glyph unicode="&#x1039;&#x100b;" horiz-adv-x="1333" d="M102 471q0 39 33 53q14 6 27 6q39 0 53 -32q6 -12 6 -27q0 -39 -33 -53q-14 -6 -26 -6q-39 0 -53 32q-7 13 -7 27zM160 258q0 39 35 53q12 6 24 6q39 0 55 -32q6 -14 7 -27q0 -39 -35 -53q-12 -6 -27 -6q-37 0 -53 32q-6 13 -6 27zM160 684q0 39 35 53q12 6 24 6 q39 0 55 -32q6 -12 7 -27q0 -39 -35 -53q-12 -6 -27 -6q-37 0 -53 32q-6 13 -6 27zM240 -301q2 -41 16 -78t37 -70q10 -12 19.5 -21t19.5 -17q106 -76 239 -76q41 0 74 3t62 13q61 27 105 64t56 90l-118 82q-14 -31 -29.5 -48.5t-26.5 -25.5q-20 -16 -53 -28.5t-70 -12.5 q-70 0 -119 38t-49 87t49.5 88t118.5 39q76 0 123 -43q16 -12 30.5 -27.5t29.5 -38.5l127 88q-23 29 -40.5 49.5t-33.5 34.5q-51 37 -107.5 55.5t-128.5 18.5q-66 0 -123 -19.5t-108 -54.5q-47 -39 -73.5 -88t-26.5 -102zM291 -506q137 -90 299 -90q117 0 213 55l119 -63 v-123h108v-135h-268l-2 147q-35 -10 -80 -15t-90 -5q-70 0 -135.5 13t-116.5 34h2l-49 18v164zM317 102q0 37 33 54q12 6 27 6q39 0 53 -35q6 -12 6 -25q0 -39 -33 -55q-12 -4 -26 -4q-39 0 -53 33q-7 12 -7 26zM317 840q0 39 33 55q12 4 27 4q39 0 53 -33q6 -12 6 -26 q0 -37 -33 -54q-12 -6 -26 -6q-39 0 -53 33q-7 13 -7 27zM530 45q0 39 35 53q12 6 27 6q37 0 53 -32q6 -14 6 -27q0 -39 -35 -53q-12 -6 -24 -6q-39 0 -55 32q-7 13 -7 27zM530 897q0 39 35 53q12 6 27 6q37 0 53 -32q6 -12 6 -27q0 -39 -35 -53q-12 -6 -24 -6q-39 0 -55 32 q-7 13 -7 27zM745 102q0 37 33 54q12 6 27 6q39 0 53 -35q6 -12 6 -25q0 -39 -33 -55q-12 -4 -26 -4q-39 0 -53 33q-7 12 -7 26zM745 840q0 39 33 55q12 4 27 4q39 0 53 -33q6 -12 6 -26q0 -37 -33 -54q-12 -6 -26 -6q-39 0 -53 33q-7 13 -7 27zM901 258q0 39 35 53 q12 6 27 6q37 0 53 -32q6 -14 6 -27q0 -39 -35 -53q-10 -6 -24 -6q-39 0 -56 32q-6 13 -6 27zM901 684q0 39 35 53q12 6 27 6q37 0 53 -32q6 -12 6 -27q0 -39 -35 -53q-10 -6 -24 -6q-39 0 -56 32q-6 13 -6 27zM961 471q0 37 32 53q12 6 27 6q39 0 53 -32q6 -12 6 -27 q0 -39 -32 -53q-14 -6 -27 -6q-39 0 -53 32q-6 13 -6 27z" />
<glyph unicode="&#x1039;&#x100c;" horiz-adv-x="1542" d="M-193 -412q0 160 101 273q49 51 117.5 77.5t152.5 22.5h31v-162h-21q-88 -4 -155 -67q-68 -68 -68 -156v-37q0 -47 18.5 -87t49 -69.5t74 -46t92.5 -16.5h438q-29 47 -42 102.5t-13 114.5q0 182 127 305h-2q14 14 29.5 27.5t33.5 26.5q127 72 240 71q180 0 303 -123 q127 -125 127 -307q0 -176 -129 -301h2q-41 -41 -105 -76l-114 123q66 29 104 70q82 78 82 184q0 109 -82 191q-78 78 -188 77q-104 0 -187 -77q-80 -80 -80 -191q0 -109 80 -184h-2q43 -39 109 -70l-117 -121h-625q-162 0 -270 103q-111 104 -111 266v57zM102 471 q0 39 33 53q14 6 27 6q39 0 53 -32q6 -12 6 -27q0 -39 -33 -53q-14 -6 -26 -6q-39 0 -53 32q-7 13 -7 27zM160 258q0 39 35 53q12 6 24 6q39 0 55 -32q6 -14 7 -27q0 -39 -35 -53q-12 -6 -27 -6q-37 0 -53 32q-6 13 -6 27zM160 684q0 39 35 53q12 6 24 6q39 0 55 -32 q6 -12 7 -27q0 -39 -35 -53q-12 -6 -27 -6q-37 0 -53 32q-6 13 -6 27zM317 102q0 37 33 54q12 6 27 6q39 0 53 -35q6 -12 6 -25q0 -39 -33 -55q-12 -4 -26 -4q-39 0 -53 33q-7 12 -7 26zM317 840q0 39 33 55q12 4 27 4q39 0 53 -33q6 -12 6 -26q0 -37 -33 -54q-12 -6 -26 -6 q-39 0 -53 33q-7 13 -7 27zM530 45q0 39 35 53q12 6 27 6q37 0 53 -32q6 -14 6 -27q0 -39 -35 -53q-12 -6 -24 -6q-39 0 -55 32q-7 13 -7 27zM530 897q0 39 35 53q12 6 27 6q37 0 53 -32q6 -12 6 -27q0 -39 -35 -53q-12 -6 -24 -6q-39 0 -55 32q-7 13 -7 27zM745 102 q0 37 33 54q12 6 27 6q39 0 53 -35q6 -12 6 -25q0 -39 -33 -55q-12 -4 -26 -4q-39 0 -53 33q-7 12 -7 26zM745 840q0 39 33 55q12 4 27 4q39 0 53 -33q6 -12 6 -26q0 -37 -33 -54q-12 -6 -26 -6q-39 0 -53 33q-7 13 -7 27zM901 258q0 39 35 53q12 6 27 6q37 0 53 -32 q6 -14 6 -27q0 -39 -35 -53q-10 -6 -24 -6q-39 0 -56 32q-6 13 -6 27zM901 684q0 39 35 53q12 6 27 6q37 0 53 -32q6 -12 6 -27q0 -39 -35 -53q-10 -6 -24 -6q-39 0 -56 32q-6 13 -6 27zM961 471q0 37 32 53q12 6 27 6q39 0 53 -32q6 -12 6 -27q0 -39 -32 -53q-14 -6 -27 -6 q-39 0 -53 32q-6 13 -6 27z" />
<glyph unicode="&#x1039;&#x100d;" horiz-adv-x="1333" d="M102 471q0 39 33 53q14 6 27 6q39 0 53 -32q6 -12 6 -27q0 -39 -33 -53q-14 -6 -26 -6q-39 0 -53 32q-7 13 -7 27zM160 258q0 39 35 53q12 6 24 6q39 0 55 -32q6 -14 7 -27q0 -39 -35 -53q-12 -6 -27 -6q-37 0 -53 32q-6 13 -6 27zM160 684q0 39 35 53q12 6 24 6 q39 0 55 -32q6 -12 7 -27q0 -39 -35 -53q-12 -6 -27 -6q-37 0 -53 32q-6 13 -6 27zM279 -195q23 29 40 49.5t33 34.5q51 37 107.5 55.5t128.5 18.5q66 0 123 -19.5t108 -54.5q47 -39 74 -88t27 -102q-2 -41 -16.5 -78t-37.5 -70q-10 -12 -19 -21t-20 -17q-106 -76 -239 -76 q-41 0 -74 3t-61 13v-28q59 -20 137 -21q117 0 213 55l119 -63v-123h108v-135h-268l-2 147q-35 -10 -80 -15t-90 -5q-70 0 -135.5 13t-116.5 34h2l-49 18v277l119 82q14 -31 29.5 -48.5t25.5 -25.5q20 -16 53 -28.5t70 -12.5q70 0 119 38t49 87t-49.5 88t-118.5 39 q-76 0 -123 -43q-16 -12 -30.5 -27.5t-28.5 -38.5zM317 102q0 37 33 54q12 6 27 6q39 0 53 -35q6 -12 6 -25q0 -39 -33 -55q-12 -4 -26 -4q-39 0 -53 33q-7 12 -7 26zM317 840q0 39 33 55q12 4 27 4q39 0 53 -33q6 -12 6 -26q0 -37 -33 -54q-12 -6 -26 -6q-39 0 -53 33 q-7 13 -7 27zM530 45q0 39 35 53q12 6 27 6q37 0 53 -32q6 -14 6 -27q0 -39 -35 -53q-12 -6 -24 -6q-39 0 -55 32q-7 13 -7 27zM530 897q0 39 35 53q12 6 27 6q37 0 53 -32q6 -12 6 -27q0 -39 -35 -53q-12 -6 -24 -6q-39 0 -55 32q-7 13 -7 27zM745 102q0 37 33 54 q12 6 27 6q39 0 53 -35q6 -12 6 -25q0 -39 -33 -55q-12 -4 -26 -4q-39 0 -53 33q-7 12 -7 26zM745 840q0 39 33 55q12 4 27 4q39 0 53 -33q6 -12 6 -26q0 -37 -33 -54q-12 -6 -26 -6q-39 0 -53 33q-7 13 -7 27zM901 258q0 39 35 53q12 6 27 6q37 0 53 -32q6 -14 6 -27 q0 -39 -35 -53q-10 -6 -24 -6q-39 0 -56 32q-6 13 -6 27zM901 684q0 39 35 53q12 6 27 6q37 0 53 -32q6 -12 6 -27q0 -39 -35 -53q-10 -6 -24 -6q-39 0 -56 32q-6 13 -6 27zM961 471q0 37 32 53q12 6 27 6q39 0 53 -32q6 -12 6 -27q0 -39 -32 -53q-14 -6 -27 -6 q-39 0 -53 32q-6 13 -6 27z" />
<glyph unicode="&#x1039;&#x100e;" horiz-adv-x="1181" d="M102 471q0 39 33 53q14 6 27 6q39 0 53 -32q6 -12 6 -27q0 -39 -33 -53q-14 -6 -26 -6q-39 0 -53 32q-7 13 -7 27zM160 258q0 39 35 53q12 6 24 6q39 0 55 -32q6 -14 7 -27q0 -39 -35 -53q-12 -6 -27 -6q-37 0 -53 32q-6 13 -6 27zM160 684q0 39 35 53q12 6 24 6 q39 0 55 -32q6 -12 7 -27q0 -39 -35 -53q-12 -6 -27 -6q-37 0 -53 32q-6 13 -6 27zM217 -418v-8q0 -86 29.5 -156.5t85.5 -130.5q117 -117 286 -116q164 0 285 116h-2q121 121 121 287q0 168 -119 301q-39 35 -82 61.5t-96 43.5l-55 -146q39 -10 69.5 -27.5t55.5 -39.5v2 q35 -47 54 -94.5t19 -100.5q0 -100 -73 -178q-78 -74 -177 -74q-104 0 -178 74q-29 27 -45 59.5t-22 69.5q198 61 188 221l-4 37q-4 23 -8 43t-12 33q-10 35 -42 62.5t-77 43.5l-74 10q-72 -10 -115 -32l39 -152q8 4 19.5 13.5t21.5 13.5l51 2q43 2 54 -60q-4 -72 -64 -86 l-129 -34zM317 102q0 37 33 54q12 6 27 6q39 0 53 -35q6 -12 6 -25q0 -39 -33 -55q-12 -4 -26 -4q-39 0 -53 33q-7 12 -7 26zM317 840q0 39 33 55q12 4 27 4q39 0 53 -33q6 -12 6 -26q0 -37 -33 -54q-12 -6 -26 -6q-39 0 -53 33q-7 13 -7 27zM530 45q0 39 35 53q12 6 27 6 q37 0 53 -32q6 -14 6 -27q0 -39 -35 -53q-12 -6 -24 -6q-39 0 -55 32q-7 13 -7 27zM530 897q0 39 35 53q12 6 27 6q37 0 53 -32q6 -12 6 -27q0 -39 -35 -53q-12 -6 -24 -6q-39 0 -55 32q-7 13 -7 27zM745 102q0 37 33 54q12 6 27 6q39 0 53 -35q6 -12 6 -25q0 -39 -33 -55 q-12 -4 -26 -4q-39 0 -53 33q-7 12 -7 26zM745 840q0 39 33 55q12 4 27 4q39 0 53 -33q6 -12 6 -26q0 -37 -33 -54q-12 -6 -26 -6q-39 0 -53 33q-7 13 -7 27zM901 258q0 39 35 53q12 6 27 6q37 0 53 -32q6 -14 6 -27q0 -39 -35 -53q-10 -6 -24 -6q-39 0 -56 32q-6 13 -6 27z M901 684q0 39 35 53q12 6 27 6q37 0 53 -32q6 -12 6 -27q0 -39 -35 -53q-10 -6 -24 -6q-39 0 -56 32q-6 13 -6 27zM961 471q0 37 32 53q12 6 27 6q39 0 53 -32q6 -12 6 -27q0 -39 -32 -53q-14 -6 -27 -6q-39 0 -53 32q-6 13 -6 27z" />
<glyph unicode="&#x1039;&#xf8ff;" horiz-adv-x="1419" d="M-133 -428q0 164 115 283q117 117 284 116q111 0 193 -49q27 25 60.5 35t70.5 10t70.5 -11t60.5 -34q45 27 93 38t101 11q82 0 153 -29.5t130 -84.5q119 -119 119 -285q0 -168 -117 -287q-117 -117 -295 -116v151q106 0 185 74q74 78 73 178q0 96 -73 174q-78 74 -175 74 q-66 0 -120 -33q10 -47 -7 -102q-2 -4 -3 -9.5t-7 -13.5q0 -2 -1 -2t-1 -2v-4q-16 -39 -16 -84q0 -27 4 -49.5t12 -44.5l10 -23q16 -63 9 -110q-14 -76 -56 -113q-33 -29 -70.5 -46.5t-78.5 -17.5q-39 0 -74 15.5t-63 40.5q-49 43 -62 125q-6 61 19 135q8 23 12 43t4 45 q0 41 -16 80h2l-6 16l-9 17q-23 47 -8 104q-27 16 -58.5 24.5t-64.5 8.5q-96 0 -174 -74q-74 -74 -74 -174q0 -104 74 -178q78 -74 184 -74v-151q-182 0 -294 118q-115 121 -115 285zM102 471q0 39 33 53q14 6 27 6q39 0 53 -32q6 -12 6 -27q0 -39 -33 -53q-14 -6 -26 -6 q-39 0 -53 32q-7 13 -7 27zM160 258q0 39 35 53q12 6 24 6q39 0 55 -32q6 -14 7 -27q0 -39 -35 -53q-12 -6 -27 -6q-37 0 -53 32q-6 13 -6 27zM160 684q0 39 35 53q12 6 24 6q39 0 55 -32q6 -12 7 -27q0 -39 -35 -53q-12 -6 -27 -6q-37 0 -53 32q-6 13 -6 27zM317 102 q0 37 33 54q12 6 27 6q39 0 53 -35q6 -12 6 -25q0 -39 -33 -55q-12 -4 -26 -4q-39 0 -53 33q-7 12 -7 26zM317 840q0 39 33 55q12 4 27 4q39 0 53 -33q6 -12 6 -26q0 -37 -33 -54q-12 -6 -26 -6q-39 0 -53 33q-7 13 -7 27zM530 45q0 39 35 53q12 6 27 6q37 0 53 -32 q6 -14 6 -27q0 -39 -35 -53q-12 -6 -24 -6q-39 0 -55 32q-7 13 -7 27zM530 897q0 39 35 53q12 6 27 6q37 0 53 -32q6 -12 6 -27q0 -39 -35 -53q-12 -6 -24 -6q-39 0 -55 32q-7 13 -7 27zM539 -227v-56q35 -80 34 -147q0 -43 -10 -86t-24 -78v-35q0 -23 16 -40t39 -17 q27 0 43 17.5t16 39.5v33q-43 74 -43 158q0 74 43 151v60q0 23 -18.5 40t-40.5 17q-23 0 -39 -17.5t-16 -39.5zM745 102q0 37 33 54q12 6 27 6q39 0 53 -35q6 -12 6 -25q0 -39 -33 -55q-12 -4 -26 -4q-39 0 -53 33q-7 12 -7 26zM745 840q0 39 33 55q12 4 27 4q39 0 53 -33 q6 -12 6 -26q0 -37 -33 -54q-12 -6 -26 -6q-39 0 -53 33q-7 13 -7 27zM901 258q0 39 35 53q12 6 27 6q37 0 53 -32q6 -14 6 -27q0 -39 -35 -53q-10 -6 -24 -6q-39 0 -56 32q-6 13 -6 27zM901 684q0 39 35 53q12 6 27 6q37 0 53 -32q6 -12 6 -27q0 -39 -35 -53q-10 -6 -24 -6 q-39 0 -56 32q-6 13 -6 27zM961 471q0 37 32 53q12 6 27 6q39 0 53 -32q6 -12 6 -27q0 -39 -32 -53q-14 -6 -27 -6q-39 0 -53 32q-6 13 -6 27z" />
<glyph unicode="&#x1039;&#x1010;" horiz-adv-x="1433" d="M-129 -438q0 170 117 286q119 117 286 117q166 0 287 -117q10 -10 20.5 -21t20.5 -28q8 14 18.5 25.5t24.5 23.5h-2q119 117 287 117t284 -117q117 -117 117 -286q0 -168 -117 -287q-117 -117 -299 -117l-22 158q18 -4 25.5 -5t11.5 -1q53 0 96 19.5t80 54.5 q74 78 74 178t-74 180v-2q-37 35 -80 54.5t-96 19.5q-98 0 -178 -76q-35 -37 -54.5 -80t-19.5 -96q0 -168 -117 -287q-121 -117 -287 -117q-168 0 -286 117q-117 119 -117 287zM23 -438q0 -100 73 -178q78 -74 178 -74q98 0 177 74q74 78 73 178q0 100 -73 180v-2 q-79 74 -177 74q-100 0 -178 -74v2q-74 -80 -73 -180zM102 471q0 39 33 53q14 6 27 6q39 0 53 -32q6 -12 6 -27q0 -39 -33 -53q-14 -6 -26 -6q-39 0 -53 32q-7 13 -7 27zM160 258q0 39 35 53q12 6 24 6q39 0 55 -32q6 -14 7 -27q0 -39 -35 -53q-12 -6 -27 -6q-37 0 -53 32 q-6 13 -6 27zM160 684q0 39 35 53q12 6 24 6q39 0 55 -32q6 -12 7 -27q0 -39 -35 -53q-12 -6 -27 -6q-37 0 -53 32q-6 13 -6 27zM317 102q0 37 33 54q12 6 27 6q39 0 53 -35q6 -12 6 -25q0 -39 -33 -55q-12 -4 -26 -4q-39 0 -53 33q-7 12 -7 26zM317 840q0 39 33 55 q12 4 27 4q39 0 53 -33q6 -12 6 -26q0 -37 -33 -54q-12 -6 -26 -6q-39 0 -53 33q-7 13 -7 27zM530 45q0 39 35 53q12 6 27 6q37 0 53 -32q6 -14 6 -27q0 -39 -35 -53q-12 -6 -24 -6q-39 0 -55 32q-7 13 -7 27zM530 897q0 39 35 53q12 6 27 6q37 0 53 -32q6 -12 6 -27 q0 -39 -35 -53q-12 -6 -24 -6q-39 0 -55 32q-7 13 -7 27zM745 102q0 37 33 54q12 6 27 6q39 0 53 -35q6 -12 6 -25q0 -39 -33 -55q-12 -4 -26 -4q-39 0 -53 33q-7 12 -7 26zM745 840q0 39 33 55q12 4 27 4q39 0 53 -33q6 -12 6 -26q0 -37 -33 -54q-12 -6 -26 -6 q-39 0 -53 33q-7 13 -7 27zM901 258q0 39 35 53q12 6 27 6q37 0 53 -32q6 -14 6 -27q0 -39 -35 -53q-10 -6 -24 -6q-39 0 -56 32q-6 13 -6 27zM901 684q0 39 35 53q12 6 27 6q37 0 53 -32q6 -12 6 -27q0 -39 -35 -53q-10 -6 -24 -6q-39 0 -56 32q-6 13 -6 27zM961 471 q0 37 32 53q12 6 27 6q39 0 53 -32q6 -12 6 -27q0 -39 -32 -53q-14 -6 -27 -6q-39 0 -53 32q-6 13 -6 27z" />
<glyph unicode="&#x1039;&#x1011;" horiz-adv-x="1427" d="M-129 -434q0 164 115 282q119 119 286 119q82 0 156 -32.5t139 -94.5q6 -8 13.5 -17t15.5 -20q25 35 39 50q121 115 287 114q166 0 286 -117q117 -117 117 -284q0 -168 -117 -287q-121 -117 -286 -117q-80 0 -153 31t-132 86q-23 20 -41 47q-10 -14 -20.5 -25.5 t-20.5 -21.5h2q-121 -117 -285 -117q-170 0 -286 117q-115 121 -115 287zM23 -434q0 -104 73 -178q78 -74 176 -74q100 0 174 74q63 63 74 147v2q4 27 0 57q-10 86 -74 150v-2q-74 74 -174 74q-98 0 -176 -74v2q-74 -78 -73 -178zM102 471q0 39 33 53q14 6 27 6q39 0 53 -32 q6 -12 6 -27q0 -39 -33 -53q-14 -6 -26 -6q-39 0 -53 32q-7 13 -7 27zM160 258q0 39 35 53q12 6 24 6q39 0 55 -32q6 -14 7 -27q0 -39 -35 -53q-12 -6 -27 -6q-37 0 -53 32q-6 13 -6 27zM160 684q0 39 35 53q12 6 24 6q39 0 55 -32q6 -12 7 -27q0 -39 -35 -53q-12 -6 -27 -6 q-37 0 -53 32q-6 13 -6 27zM317 102q0 37 33 54q12 6 27 6q39 0 53 -35q6 -12 6 -25q0 -39 -33 -55q-12 -4 -26 -4q-39 0 -53 33q-7 12 -7 26zM317 840q0 39 33 55q12 4 27 4q39 0 53 -33q6 -12 6 -26q0 -37 -33 -54q-12 -6 -26 -6q-39 0 -53 33q-7 13 -7 27zM530 45 q0 39 35 53q12 6 27 6q37 0 53 -32q6 -14 6 -27q0 -39 -35 -53q-12 -6 -24 -6q-39 0 -55 32q-7 13 -7 27zM530 897q0 39 35 53q12 6 27 6q37 0 53 -32q6 -12 6 -27q0 -39 -35 -53q-12 -6 -24 -6q-39 0 -55 32q-7 13 -7 27zM672 -406q-2 -33 0 -59q10 -86 71 -147h-2 q80 -74 181 -74q98 0 176 74q74 78 73 178q0 53 -19 96t-54 82v-2q-78 74 -176 74q-101 0 -181 -74q-59 -63 -69 -148zM745 102q0 37 33 54q12 6 27 6q39 0 53 -35q6 -12 6 -25q0 -39 -33 -55q-12 -4 -26 -4q-39 0 -53 33q-7 12 -7 26zM745 840q0 39 33 55q12 4 27 4 q39 0 53 -33q6 -12 6 -26q0 -37 -33 -54q-12 -6 -26 -6q-39 0 -53 33q-7 13 -7 27zM901 258q0 39 35 53q12 6 27 6q37 0 53 -32q6 -14 6 -27q0 -39 -35 -53q-10 -6 -24 -6q-39 0 -56 32q-6 13 -6 27zM901 684q0 39 35 53q12 6 27 6q37 0 53 -32q6 -12 6 -27q0 -39 -35 -53 q-10 -6 -24 -6q-39 0 -56 32q-6 13 -6 27zM961 471q0 37 32 53q12 6 27 6q39 0 53 -32q6 -12 6 -27q0 -39 -32 -53q-14 -6 -27 -6q-39 0 -53 32q-6 13 -6 27z" />
<glyph unicode="&#x1039;&#x1012;" horiz-adv-x="1181" d="M102 471q0 39 33 53q14 6 27 6q39 0 53 -32q6 -12 6 -27q0 -39 -33 -53q-14 -6 -26 -6q-39 0 -53 32q-7 13 -7 27zM160 258q0 39 35 53q12 6 24 6q39 0 55 -32q6 -14 7 -27q0 -39 -35 -53q-12 -6 -27 -6q-37 0 -53 32q-6 13 -6 27zM160 684q0 39 35 53q12 6 24 6 q39 0 55 -32q6 -12 7 -27q0 -39 -35 -53q-12 -6 -27 -6q-37 0 -53 32q-6 13 -6 27zM217 -283l131 -84q12 31 32.5 63t47.5 62v-2q61 57 162 58q29 0 66.5 -13.5t64.5 -25.5q-55 -8 -103 -56h3q-66 -59 -66 -155q0 -94 63 -158q47 -43 107 -55q-59 -39 -135 -39 q-100 0 -162 57v-2q-53 59 -80 127l-129 -92q18 -72 111 -158q96 -84 260 -84q170 0 284 115q27 27 47.5 55.5t32.5 59.5q23 82 -15 107.5t-124 8.5q-23 -18 -47 -18q-31 0 -54.5 20.5t-23.5 49.5q0 39 23.5 59.5t54.5 20.5q29 0 49 -21h-2l6 -8q20 -6 36.5 -8t31.5 -2 q106 0 67 133q-12 33 -32.5 60.5t-49.5 55.5v-2q-115 119 -284 119q-166 0 -260 -86q-92 -88 -113 -162zM317 102q0 37 33 54q12 6 27 6q39 0 53 -35q6 -12 6 -25q0 -39 -33 -55q-12 -4 -26 -4q-39 0 -53 33q-7 12 -7 26zM317 840q0 39 33 55q12 4 27 4q39 0 53 -33 q6 -12 6 -26q0 -37 -33 -54q-12 -6 -26 -6q-39 0 -53 33q-7 13 -7 27zM530 45q0 39 35 53q12 6 27 6q37 0 53 -32q6 -14 6 -27q0 -39 -35 -53q-12 -6 -24 -6q-39 0 -55 32q-7 13 -7 27zM530 897q0 39 35 53q12 6 27 6q37 0 53 -32q6 -12 6 -27q0 -39 -35 -53q-12 -6 -24 -6 q-39 0 -55 32q-7 13 -7 27zM745 102q0 37 33 54q12 6 27 6q39 0 53 -35q6 -12 6 -25q0 -39 -33 -55q-12 -4 -26 -4q-39 0 -53 33q-7 12 -7 26zM745 840q0 39 33 55q12 4 27 4q39 0 53 -33q6 -12 6 -26q0 -37 -33 -54q-12 -6 -26 -6q-39 0 -53 33q-7 13 -7 27zM901 258 q0 39 35 53q12 6 27 6q37 0 53 -32q6 -14 6 -27q0 -39 -35 -53q-10 -6 -24 -6q-39 0 -56 32q-6 13 -6 27zM901 684q0 39 35 53q12 6 27 6q37 0 53 -32q6 -12 6 -27q0 -39 -35 -53q-10 -6 -24 -6q-39 0 -56 32q-6 13 -6 27zM961 471q0 37 32 53q12 6 27 6q39 0 53 -32 q6 -12 6 -27q0 -39 -32 -53q-14 -6 -27 -6q-39 0 -53 32q-6 13 -6 27z" />
<glyph unicode="&#x1039;&#x1013;" horiz-adv-x="1181" d="M102 471q0 39 33 53q14 6 27 6q39 0 53 -32q6 -12 6 -27q0 -39 -33 -53q-14 -6 -26 -6q-39 0 -53 32q-7 13 -7 27zM160 258q0 39 35 53q12 6 24 6q39 0 55 -32q6 -14 7 -27q0 -39 -35 -53q-12 -6 -27 -6q-37 0 -53 32q-6 13 -6 27zM160 684q0 39 35 53q12 6 24 6 q39 0 55 -32q6 -12 7 -27q0 -39 -35 -53q-12 -6 -27 -6q-37 0 -53 32q-6 13 -6 27zM188 -432q0 82 30 152.5t85 129.5q123 119 287 119q168 0 284 -116h-2q121 -115 121 -285q0 -168 -121 -287h2q-117 -117 -284 -117q-168 0 -287 117q-55 59 -85 130t-30 157zM317 102 q0 37 33 54q12 6 27 6q39 0 53 -35q6 -12 6 -25q0 -39 -33 -55q-12 -4 -26 -4q-39 0 -53 33q-7 12 -7 26zM317 840q0 39 33 55q12 4 27 4q39 0 53 -33q6 -12 6 -26q0 -37 -33 -54q-12 -6 -26 -6q-39 0 -53 33q-7 13 -7 27zM340 -432q0 -37 10 -70t27 -61q12 55 59 102h-2 q61 61 152 62q86 0 147 -62q27 -25 43.5 -52.5t20.5 -64.5q43 66 43 146q0 100 -74 178v-2q-37 35 -80 54.5t-96 19.5q-98 0 -176 -74v2q-35 -39 -54.5 -82t-19.5 -96zM520 -618q0 -12 7.5 -24.5t15.5 -23.5l32 -18h31l37 18q8 10 15.5 22.5t7.5 25.5q0 37 -23.5 57 t-52.5 20q-27 0 -48.5 -20.5t-21.5 -56.5zM530 45q0 39 35 53q12 6 27 6q37 0 53 -32q6 -14 6 -27q0 -39 -35 -53q-12 -6 -24 -6q-39 0 -55 32q-7 13 -7 27zM530 897q0 39 35 53q12 6 27 6q37 0 53 -32q6 -12 6 -27q0 -39 -35 -53q-12 -6 -24 -6q-39 0 -55 32q-7 13 -7 27z M745 102q0 37 33 54q12 6 27 6q39 0 53 -35q6 -12 6 -25q0 -39 -33 -55q-12 -4 -26 -4q-39 0 -53 33q-7 12 -7 26zM745 840q0 39 33 55q12 4 27 4q39 0 53 -33q6 -12 6 -26q0 -37 -33 -54q-12 -6 -26 -6q-39 0 -53 33q-7 13 -7 27zM901 258q0 39 35 53q12 6 27 6 q37 0 53 -32q6 -14 6 -27q0 -39 -35 -53q-10 -6 -24 -6q-39 0 -56 32q-6 13 -6 27zM901 684q0 39 35 53q12 6 27 6q37 0 53 -32q6 -12 6 -27q0 -39 -35 -53q-10 -6 -24 -6q-39 0 -56 32q-6 13 -6 27zM961 471q0 37 32 53q12 6 27 6q39 0 53 -32q6 -12 6 -27q0 -39 -32 -53 q-14 -6 -27 -6q-39 0 -53 32q-6 13 -6 27z" />
<glyph unicode="&#x1039;&#x1014;" horiz-adv-x="1181" d="M102 471q0 39 33 53q14 6 27 6q39 0 53 -32q6 -12 6 -27q0 -39 -33 -53q-14 -6 -26 -6q-39 0 -53 32q-7 13 -7 27zM160 258q0 39 35 53q12 6 24 6q39 0 55 -32q6 -14 7 -27q0 -39 -35 -53q-12 -6 -27 -6q-37 0 -53 32q-6 13 -6 27zM160 684q0 39 35 53q12 6 24 6 q39 0 55 -32q6 -12 7 -27q0 -39 -35 -53q-12 -6 -27 -6q-37 0 -53 32q-6 13 -6 27zM190 -549q0 45 16.5 83t46.5 66.5t68.5 45t81.5 16.5q92 0 155 -60.5t58 -150.5v-129q61 14 117 68v-2q70 72 60 108l-211 127q-63 39 -121 62q-53 23 -53 98q0 39 14 73.5t39.5 60.5 t59.5 40t73 14q74 0 129 -55q16 -14 26.5 -32.5t18.5 -39.5l-125 -51q-6 18 -14 27h2q-18 14 -37 14q-23 0 -36 -12t-13 -21q0 -16 59 -51l6 -6h-4l355 -188q0 -156 -121 -275q-47 -45 -104.5 -73.5t-119.5 -38.5v-27h-139v29q-55 10 -111.5 40.5t-97.5 69.5q-10 4 -14 12 l-2 7q-61 61 -62 151zM317 102q0 37 33 54q12 6 27 6q39 0 53 -35q6 -12 6 -25q0 -39 -33 -55q-12 -4 -26 -4q-39 0 -53 33q-7 12 -7 26zM317 840q0 39 33 55q12 4 27 4q39 0 53 -33q6 -12 6 -26q0 -37 -33 -54q-12 -6 -26 -6q-39 0 -53 33q-7 13 -7 27zM340 -555 q0 -27 22 -49l13 -12q39 -39 110 -56v117q0 37 -23 56.5t-52 19.5q-27 0 -48.5 -19.5t-21.5 -56.5zM530 45q0 39 35 53q12 6 27 6q37 0 53 -32q6 -14 6 -27q0 -39 -35 -53q-12 -6 -24 -6q-39 0 -55 32q-7 13 -7 27zM530 897q0 39 35 53q12 6 27 6q37 0 53 -32q6 -12 6 -27 q0 -39 -35 -53q-12 -6 -24 -6q-39 0 -55 32q-7 13 -7 27zM745 102q0 37 33 54q12 6 27 6q39 0 53 -35q6 -12 6 -25q0 -39 -33 -55q-12 -4 -26 -4q-39 0 -53 33q-7 12 -7 26zM745 840q0 39 33 55q12 4 27 4q39 0 53 -33q6 -12 6 -26q0 -37 -33 -54q-12 -6 -26 -6 q-39 0 -53 33q-7 13 -7 27zM901 258q0 39 35 53q12 6 27 6q37 0 53 -32q6 -14 6 -27q0 -39 -35 -53q-10 -6 -24 -6q-39 0 -56 32q-6 13 -6 27zM901 684q0 39 35 53q12 6 27 6q37 0 53 -32q6 -12 6 -27q0 -39 -35 -53q-10 -6 -24 -6q-39 0 -56 32q-6 13 -6 27zM961 471 q0 37 32 53q12 6 27 6q39 0 53 -32q6 -12 6 -27q0 -39 -32 -53q-14 -6 -27 -6q-39 0 -53 32q-6 13 -6 27z" />
<glyph unicode="&#x1039;&#x1015;" horiz-adv-x="1181" d="M102 471q0 39 33 53q14 6 27 6q39 0 53 -32q6 -12 6 -27q0 -39 -33 -53q-14 -6 -26 -6q-39 0 -53 32q-7 13 -7 27zM160 258q0 39 35 53q12 6 24 6q39 0 55 -32q6 -14 7 -27q0 -39 -35 -53q-12 -6 -27 -6q-37 0 -53 32q-6 13 -6 27zM160 684q0 39 35 53q12 6 24 6 q39 0 55 -32q6 -12 7 -27q0 -39 -35 -53q-12 -6 -27 -6q-37 0 -53 32q-6 13 -6 27zM188 -426q0 164 115 301q39 35 83 61.5t97 43.5l58 -146q-76 -18 -129 -67v2q-72 -94 -72 -195q0 -100 74 -178q78 -74 176 -74q53 0 96 19.5t80 54.5q74 74 74 178q0 102 -74 195v-2 q-25 23 -55.5 40t-67.5 27l53 146q53 -16 96.5 -42t79.5 -61l2 -2q119 -133 119 -301t-121 -287h2q-117 -117 -284 -116q-168 0 -287 116q-55 59 -85 130t-30 157zM317 102q0 37 33 54q12 6 27 6q39 0 53 -35q6 -12 6 -25q0 -39 -33 -55q-12 -4 -26 -4q-39 0 -53 33 q-7 12 -7 26zM317 840q0 39 33 55q12 4 27 4q39 0 53 -33q6 -12 6 -26q0 -37 -33 -54q-12 -6 -26 -6q-39 0 -53 33q-7 13 -7 27zM530 45q0 39 35 53q12 6 27 6q37 0 53 -32q6 -14 6 -27q0 -39 -35 -53q-12 -6 -24 -6q-39 0 -55 32q-7 13 -7 27zM530 897q0 39 35 53 q12 6 27 6q37 0 53 -32q6 -12 6 -27q0 -39 -35 -53q-12 -6 -24 -6q-39 0 -55 32q-7 13 -7 27zM745 102q0 37 33 54q12 6 27 6q39 0 53 -35q6 -12 6 -25q0 -39 -33 -55q-12 -4 -26 -4q-39 0 -53 33q-7 12 -7 26zM745 840q0 39 33 55q12 4 27 4q39 0 53 -33q6 -12 6 -26 q0 -37 -33 -54q-12 -6 -26 -6q-39 0 -53 33q-7 13 -7 27zM901 258q0 39 35 53q12 6 27 6q37 0 53 -32q6 -14 6 -27q0 -39 -35 -53q-10 -6 -24 -6q-39 0 -56 32q-6 13 -6 27zM901 684q0 39 35 53q12 6 27 6q37 0 53 -32q6 -12 6 -27q0 -39 -35 -53q-10 -6 -24 -6 q-39 0 -56 32q-6 13 -6 27zM961 471q0 37 32 53q12 6 27 6q39 0 53 -32q6 -12 6 -27q0 -39 -32 -53q-14 -6 -27 -6q-39 0 -53 32q-6 13 -6 27z" />
<glyph unicode="&#x1039;&#x1016;" horiz-adv-x="1181" d="M102 471q0 39 33 53q14 6 27 6q39 0 53 -32q6 -12 6 -27q0 -39 -33 -53q-14 -6 -26 -6q-39 0 -53 32q-7 13 -7 27zM160 258q0 39 35 53q12 6 24 6q39 0 55 -32q6 -14 7 -27q0 -39 -35 -53q-12 -6 -27 -6q-37 0 -53 32q-6 13 -6 27zM160 684q0 39 35 53q12 6 24 6 q39 0 55 -32q6 -12 7 -27q0 -39 -35 -53q-12 -6 -27 -6q-37 0 -53 32q-6 13 -6 27zM197 -428q0 164 114 301q39 35 83 61.5t98 42.5l57 -145q-76 -18 -129 -68v3q-72 -94 -72 -195q0 -100 74 -178q78 -74 176 -74q53 0 96 19.5t80 54.5q74 74 74 178q0 16 -2 32.5t-6 30.5 q-43 -31 -97 -30q-78 0 -131 53t-53 129q0 39 14.5 73t39 59.5t58.5 39.5t72 14q72 0 129 -53q18 -18 41 -50t42.5 -75t32.5 -98t13 -125q0 -168 -120 -287h2q-117 -117 -285 -116q-168 0 -287 116q-55 59 -84.5 130t-29.5 157zM317 102q0 37 33 54q12 6 27 6q39 0 53 -35 q6 -12 6 -25q0 -39 -33 -55q-12 -4 -26 -4q-39 0 -53 33q-7 12 -7 26zM317 840q0 39 33 55q12 4 27 4q39 0 53 -33q6 -12 6 -26q0 -37 -33 -54q-12 -6 -26 -6q-39 0 -53 33q-7 13 -7 27zM530 45q0 39 35 53q12 6 27 6q37 0 53 -32q6 -14 6 -27q0 -39 -35 -53q-12 -6 -24 -6 q-39 0 -55 32q-7 13 -7 27zM530 897q0 39 35 53q12 6 27 6q37 0 53 -32q6 -12 6 -27q0 -39 -35 -53q-12 -6 -24 -6q-39 0 -55 32q-7 13 -7 27zM682 -213q0 -25 16.5 -43t44.5 -18q25 0 45.5 18t20.5 43q0 29 -20.5 47.5t-45.5 18.5q-29 0 -45 -18.5t-16 -47.5zM745 102 q0 37 33 54q12 6 27 6q39 0 53 -35q6 -12 6 -25q0 -39 -33 -55q-12 -4 -26 -4q-39 0 -53 33q-7 12 -7 26zM745 840q0 39 33 55q12 4 27 4q39 0 53 -33q6 -12 6 -26q0 -37 -33 -54q-12 -6 -26 -6q-39 0 -53 33q-7 13 -7 27zM901 258q0 39 35 53q12 6 27 6q37 0 53 -32 q6 -14 6 -27q0 -39 -35 -53q-10 -6 -24 -6q-39 0 -56 32q-6 13 -6 27zM901 684q0 39 35 53q12 6 27 6q37 0 53 -32q6 -12 6 -27q0 -39 -35 -53q-10 -6 -24 -6q-39 0 -56 32q-6 13 -6 27zM961 471q0 37 32 53q12 6 27 6q39 0 53 -32q6 -12 6 -27q0 -39 -32 -53q-14 -6 -27 -6 q-39 0 -53 32q-6 13 -6 27z" />
<glyph unicode="&#x1039;&#x1017;" horiz-adv-x="1181" d="M102 471q0 39 33 53q14 6 27 6q39 0 53 -32q6 -12 6 -27q0 -39 -33 -53q-14 -6 -26 -6q-39 0 -53 32q-7 13 -7 27zM160 258q0 39 35 53q12 6 24 6q39 0 55 -32q6 -14 7 -27q0 -39 -35 -53q-12 -6 -27 -6q-37 0 -53 32q-6 13 -6 27zM160 684q0 39 35 53q12 6 24 6 q39 0 55 -32q6 -12 7 -27q0 -39 -35 -53q-12 -6 -27 -6q-37 0 -53 32q-6 13 -6 27zM188 -430q0 -168 117 -287q119 -117 287 -117q164 0 287 117q121 121 120 287q0 172 -118 293q-92 88 -211 112v-217q0 -37 -23.5 -58.5t-54.5 -21.5q-27 0 -48.5 21.5t-21.5 58.5v217 q-129 -25 -217 -112q-117 -123 -117 -293zM317 102q0 37 33 54q12 6 27 6q39 0 53 -35q6 -12 6 -25q0 -39 -33 -55q-12 -4 -26 -4q-39 0 -53 33q-7 12 -7 26zM317 840q0 39 33 55q12 4 27 4q39 0 53 -33q6 -12 6 -26q0 -37 -33 -54q-12 -6 -26 -6q-39 0 -53 33q-7 13 -7 27z M340 -430q0 41 9 72.5t28 62.5q16 -61 57 -106q68 -61 154 -62q82 0 149 62q27 27 44.5 54.5t21.5 63.5q20 -33 31.5 -69.5t11.5 -77.5q0 -102 -74 -178q-74 -74 -180 -74q-98 0 -178 76v-2q-74 80 -74 178zM530 45q0 39 35 53q12 6 27 6q37 0 53 -32q6 -14 6 -27 q0 -39 -35 -53q-12 -6 -24 -6q-39 0 -55 32q-7 13 -7 27zM530 897q0 39 35 53q12 6 27 6q37 0 53 -32q6 -12 6 -27q0 -39 -35 -53q-12 -6 -24 -6q-39 0 -55 32q-7 13 -7 27zM745 102q0 37 33 54q12 6 27 6q39 0 53 -35q6 -12 6 -25q0 -39 -33 -55q-12 -4 -26 -4 q-39 0 -53 33q-7 12 -7 26zM745 840q0 39 33 55q12 4 27 4q39 0 53 -33q6 -12 6 -26q0 -37 -33 -54q-12 -6 -26 -6q-39 0 -53 33q-7 13 -7 27zM901 258q0 39 35 53q12 6 27 6q37 0 53 -32q6 -14 6 -27q0 -39 -35 -53q-10 -6 -24 -6q-39 0 -56 32q-6 13 -6 27zM901 684 q0 39 35 53q12 6 27 6q37 0 53 -32q6 -12 6 -27q0 -39 -35 -53q-10 -6 -24 -6q-39 0 -56 32q-6 13 -6 27zM961 471q0 37 32 53q12 6 27 6q39 0 53 -32q6 -12 6 -27q0 -39 -32 -53q-14 -6 -27 -6q-39 0 -53 32q-6 13 -6 27z" />
<glyph unicode="&#x1039;&#x1018;" horiz-adv-x="1417" d="M-96 -238q20 51 69 101q59 55 130 84.5t155 29.5q162 0 285 -116l43 -51q8 14 18 26t23 25q123 117 286 116q170 0 285 -118v2q117 -117 117 -285t-117 -287v2q-115 -119 -285 -118q-139 0 -245 82l82 127q76 -57 163 -58q96 0 174 74q74 74 74 178q0 100 -74 178v-2 q-78 74 -174 74q-102 0 -180 -74v2q-72 -78 -71 -178q0 -168 -117 -287q-121 -117 -287 -116q-166 0 -285 116q-35 37 -69 99l116 110q27 -63 64 -100q78 -74 174 -74q98 0 176 74q74 78 74 178q0 53 -19.5 96t-54.5 82v-2q-78 74 -176 74q-96 0 -174 -74v2 q-35 -37 -64 -104zM102 471q0 39 33 53q14 6 27 6q39 0 53 -32q6 -12 6 -27q0 -39 -33 -53q-14 -6 -26 -6q-39 0 -53 32q-7 13 -7 27zM160 258q0 39 35 53q12 6 24 6q39 0 55 -32q6 -14 7 -27q0 -39 -35 -53q-12 -6 -27 -6q-37 0 -53 32q-6 13 -6 27zM160 684q0 39 35 53 q12 6 24 6q39 0 55 -32q6 -12 7 -27q0 -39 -35 -53q-12 -6 -27 -6q-37 0 -53 32q-6 13 -6 27zM317 102q0 37 33 54q12 6 27 6q39 0 53 -35q6 -12 6 -25q0 -39 -33 -55q-12 -4 -26 -4q-39 0 -53 33q-7 12 -7 26zM317 840q0 39 33 55q12 4 27 4q39 0 53 -33q6 -12 6 -26 q0 -37 -33 -54q-12 -6 -26 -6q-39 0 -53 33q-7 13 -7 27zM530 45q0 39 35 53q12 6 27 6q37 0 53 -32q6 -14 6 -27q0 -39 -35 -53q-12 -6 -24 -6q-39 0 -55 32q-7 13 -7 27zM530 897q0 39 35 53q12 6 27 6q37 0 53 -32q6 -12 6 -27q0 -39 -35 -53q-12 -6 -24 -6q-39 0 -55 32 q-7 13 -7 27zM745 102q0 37 33 54q12 6 27 6q39 0 53 -35q6 -12 6 -25q0 -39 -33 -55q-12 -4 -26 -4q-39 0 -53 33q-7 12 -7 26zM745 840q0 39 33 55q12 4 27 4q39 0 53 -33q6 -12 6 -26q0 -37 -33 -54q-12 -6 -26 -6q-39 0 -53 33q-7 13 -7 27zM901 258q0 39 35 53 q12 6 27 6q37 0 53 -32q6 -14 6 -27q0 -39 -35 -53q-10 -6 -24 -6q-39 0 -56 32q-6 13 -6 27zM901 684q0 39 35 53q12 6 27 6q37 0 53 -32q6 -12 6 -27q0 -39 -35 -53q-10 -6 -24 -6q-39 0 -56 32q-6 13 -6 27zM961 471q0 37 32 53q12 6 27 6q39 0 53 -32q6 -12 6 -27 q0 -39 -32 -53q-14 -6 -27 -6q-39 0 -53 32q-6 13 -6 27z" />
<glyph unicode="&#x1039;&#x1019;" horiz-adv-x="1181" d="M102 471q0 39 33 53q14 6 27 6q39 0 53 -32q6 -12 6 -27q0 -39 -33 -53q-14 -6 -26 -6q-39 0 -53 32q-7 13 -7 27zM160 258q0 39 35 53q12 6 24 6q39 0 55 -32q6 -14 7 -27q0 -39 -35 -53q-12 -6 -27 -6q-37 0 -53 32q-6 13 -6 27zM160 684q0 39 35 53q12 6 24 6 q39 0 55 -32q6 -12 7 -27q0 -39 -35 -53q-12 -6 -27 -6q-37 0 -53 32q-6 13 -6 27zM188 -426q0 160 125 313q61 59 170 93l56 -146q-74 -18 -127 -67v2q-72 -94 -72 -195q0 -41 10 -76t27 -63q12 66 63 106h-2q63 63 154 64q88 0 151 -64h-2q49 -43 62 -106q41 59 41 139 q0 53 -20.5 100t-57.5 95q-23 23 -53.5 39t-71.5 26l55 146q106 -33 181 -103v-2q119 -133 118 -301q0 -168 -121 -289h3q-121 -117 -285 -116q-170 0 -287 116q-117 119 -117 289zM317 102q0 37 33 54q12 6 27 6q39 0 53 -35q6 -12 6 -25q0 -39 -33 -55q-12 -4 -26 -4 q-39 0 -53 33q-7 12 -7 26zM317 840q0 39 33 55q12 4 27 4q39 0 53 -33q6 -12 6 -26q0 -37 -33 -54q-12 -6 -26 -6q-39 0 -53 33q-7 13 -7 27zM524 -614q0 -25 23 -52v2q10 -10 31 -14q23 -6 47 0q8 2 20 14q25 25 25 50q0 35 -21.5 55t-52.5 20q-27 0 -49.5 -20.5 t-22.5 -54.5zM530 45q0 39 35 53q12 6 27 6q37 0 53 -32q6 -14 6 -27q0 -39 -35 -53q-12 -6 -24 -6q-39 0 -55 32q-7 13 -7 27zM530 897q0 39 35 53q12 6 27 6q37 0 53 -32q6 -12 6 -27q0 -39 -35 -53q-12 -6 -24 -6q-39 0 -55 32q-7 13 -7 27zM745 102q0 37 33 54 q12 6 27 6q39 0 53 -35q6 -12 6 -25q0 -39 -33 -55q-12 -4 -26 -4q-39 0 -53 33q-7 12 -7 26zM745 840q0 39 33 55q12 4 27 4q39 0 53 -33q6 -12 6 -26q0 -37 -33 -54q-12 -6 -26 -6q-39 0 -53 33q-7 13 -7 27zM901 258q0 39 35 53q12 6 27 6q37 0 53 -32q6 -14 6 -27 q0 -39 -35 -53q-10 -6 -24 -6q-39 0 -56 32q-6 13 -6 27zM901 684q0 39 35 53q12 6 27 6q37 0 53 -32q6 -12 6 -27q0 -39 -35 -53q-10 -6 -24 -6q-39 0 -56 32q-6 13 -6 27zM961 471q0 37 32 53q12 6 27 6q39 0 53 -32q6 -12 6 -27q0 -39 -32 -53q-14 -6 -27 -6 q-39 0 -53 32q-6 13 -6 27z" />
<glyph unicode="&#x1039;&#x101a;" horiz-adv-x="1423" d="M-156 -418q0 168 115 295q68 63 145 90l46 -127q-47 -25 -91 -59q-78 -88 -77 -199q0 -115 79.5 -193.5t188.5 -78.5q113 0 193.5 79t80.5 193q0 111 -82 189q-47 53 -108 63l45 133q117 -43 191.5 -119.5t86.5 -212.5l5 -41v-10v-6q0 -111 75 -194q78 -80 187 -80 q113 0 190.5 78.5t77.5 187.5t-78 186.5t-190 77.5q-82 0 -148 -47l-69 115q96 63 217 63q166 0 281.5 -114.5t115.5 -280.5t-115.5 -282.5t-281.5 -116.5q-111 8 -197 52t-135 130q-20 -31 -53 -60q-117 -123 -289 -122q-170 0 -288 120.5t-118 290.5zM102 471q0 39 33 53 q14 6 27 6q39 0 53 -32q6 -12 6 -27q0 -39 -33 -53q-14 -6 -26 -6q-39 0 -53 32q-7 13 -7 27zM160 258q0 39 35 53q12 6 24 6q39 0 55 -32q6 -14 7 -27q0 -39 -35 -53q-12 -6 -27 -6q-37 0 -53 32q-6 13 -6 27zM160 684q0 39 35 53q12 6 24 6q39 0 55 -32q6 -12 7 -27 q0 -39 -35 -53q-12 -6 -27 -6q-37 0 -53 32q-6 13 -6 27zM317 102q0 37 33 54q12 6 27 6q39 0 53 -35q6 -12 6 -25q0 -39 -33 -55q-12 -4 -26 -4q-39 0 -53 33q-7 12 -7 26zM317 840q0 39 33 55q12 4 27 4q39 0 53 -33q6 -12 6 -26q0 -37 -33 -54q-12 -6 -26 -6 q-39 0 -53 33q-7 13 -7 27zM530 45q0 39 35 53q12 6 27 6q37 0 53 -32q6 -14 6 -27q0 -39 -35 -53q-12 -6 -24 -6q-39 0 -55 32q-7 13 -7 27zM530 897q0 39 35 53q12 6 27 6q37 0 53 -32q6 -12 6 -27q0 -39 -35 -53q-12 -6 -24 -6q-39 0 -55 32q-7 13 -7 27zM745 102 q0 37 33 54q12 6 27 6q39 0 53 -35q6 -12 6 -25q0 -39 -33 -55q-12 -4 -26 -4q-39 0 -53 33q-7 12 -7 26zM745 840q0 39 33 55q12 4 27 4q39 0 53 -33q6 -12 6 -26q0 -37 -33 -54q-12 -6 -26 -6q-39 0 -53 33q-7 13 -7 27zM901 258q0 39 35 53q12 6 27 6q37 0 53 -32 q6 -14 6 -27q0 -39 -35 -53q-10 -6 -24 -6q-39 0 -56 32q-6 13 -6 27zM901 684q0 39 35 53q12 6 27 6q37 0 53 -32q6 -12 6 -27q0 -39 -35 -53q-10 -6 -24 -6q-39 0 -56 32q-6 13 -6 27zM961 471q0 37 32 53q12 6 27 6q39 0 53 -32q6 -12 6 -27q0 -39 -32 -53q-14 -6 -27 -6 q-39 0 -53 32q-6 13 -6 27z" />
<glyph unicode="&#x1039;&#x101b;" horiz-adv-x="1181" d="M102 471q0 39 33 53q14 6 27 6q39 0 53 -32q6 -12 6 -27q0 -39 -33 -53q-14 -6 -26 -6q-39 0 -53 32q-7 13 -7 27zM160 258q0 39 35 53q12 6 24 6q39 0 55 -32q6 -14 7 -27q0 -39 -35 -53q-12 -6 -27 -6q-37 0 -53 32q-6 13 -6 27zM160 684q0 39 35 53q12 6 24 6 q39 0 55 -32q6 -12 7 -27q0 -39 -35 -53q-12 -6 -27 -6q-37 0 -53 32q-6 13 -6 27zM266 -358q0 135 88 229q100 94 236 94q139 0 229 -90q49 -47 68.5 -104.5t15.5 -128.5v-357h117v-145h-268v328q-10 -66 -62.5 -107t-120.5 -41q-16 0 -34.5 2t-32.5 10l2 -2 q-88 18 -150 80q-45 47 -66.5 106.5t-21.5 125.5zM317 102q0 37 33 54q12 6 27 6q39 0 53 -35q6 -12 6 -25q0 -39 -33 -55q-12 -4 -26 -4q-39 0 -53 33q-7 12 -7 26zM317 840q0 39 33 55q12 4 27 4q39 0 53 -33q6 -12 6 -26q0 -37 -33 -54q-12 -6 -26 -6q-39 0 -53 33 q-7 13 -7 27zM424 -358v-15.5t2 -15.5q4 8 14 18q51 52 129 52q68 0 120 -43.5t63 -108.5v113q0 33 -12.5 62.5t-35 53t-52 36.5t-62.5 13q-35 0 -64.5 -14t-50.5 -37q-51 -45 -51 -114zM530 45q0 39 35 53q12 6 27 6q37 0 53 -32q6 -14 6 -27q0 -39 -35 -53q-12 -6 -24 -6 q-39 0 -55 32q-7 13 -7 27zM530 897q0 39 35 53q12 6 27 6q37 0 53 -32q6 -12 6 -27q0 -39 -35 -53q-12 -6 -24 -6q-39 0 -55 32q-7 13 -7 27zM541 -506q0 -10 10 -18t22 -8t23.5 8t11.5 18q0 16 -11.5 26.5t-23.5 10.5t-22 -10t-10 -27zM745 102q0 37 33 54q12 6 27 6 q39 0 53 -35q6 -12 6 -25q0 -39 -33 -55q-12 -4 -26 -4q-39 0 -53 33q-7 12 -7 26zM745 840q0 39 33 55q12 4 27 4q39 0 53 -33q6 -12 6 -26q0 -37 -33 -54q-12 -6 -26 -6q-39 0 -53 33q-7 13 -7 27zM901 258q0 39 35 53q12 6 27 6q37 0 53 -32q6 -14 6 -27q0 -39 -35 -53 q-10 -6 -24 -6q-39 0 -56 32q-6 13 -6 27zM901 684q0 39 35 53q12 6 27 6q37 0 53 -32q6 -12 6 -27q0 -39 -35 -53q-10 -6 -24 -6q-39 0 -56 32q-6 13 -6 27zM961 471q0 37 32 53q12 6 27 6q39 0 53 -32q6 -12 6 -27q0 -39 -32 -53q-14 -6 -27 -6q-39 0 -53 32q-6 13 -6 27z " />
<glyph unicode="&#x1039;&#x101c;" horiz-adv-x="1454" d="M-109 -436q0 170 117 286q117 117 287 117q166 0 287 -117q117 -117 116 -286q0 -100 74 -178q78 -74 178 -74q98 0 176 74q74 78 74 178t-74 180v-2q-78 74 -176 74q-45 0 -84 -14.5t-80 -43.5l-65 140q104 70 229 69q164 0 285 -117q117 -117 117 -286 q0 -168 -117 -287q-121 -117 -285 -117q-168 0 -286 117q-113 117 -117 279l-2 8q0 100 -74 180v-2q-78 74 -176 74q-100 0 -178 -74v2q-74 -80 -74 -180t74 -178q78 -74 178 -74q80 0 156 53l63 -141q-100 -63 -219 -64q-170 0 -287 117q-117 119 -117 287zM102 471 q0 39 33 53q14 6 27 6q39 0 53 -32q6 -12 6 -27q0 -39 -33 -53q-14 -6 -26 -6q-39 0 -53 32q-7 13 -7 27zM160 258q0 39 35 53q12 6 24 6q39 0 55 -32q6 -14 7 -27q0 -39 -35 -53q-12 -6 -27 -6q-37 0 -53 32q-6 13 -6 27zM160 684q0 39 35 53q12 6 24 6q39 0 55 -32 q6 -12 7 -27q0 -39 -35 -53q-12 -6 -27 -6q-37 0 -53 32q-6 13 -6 27zM317 102q0 37 33 54q12 6 27 6q39 0 53 -35q6 -12 6 -25q0 -39 -33 -55q-12 -4 -26 -4q-39 0 -53 33q-7 12 -7 26zM317 840q0 39 33 55q12 4 27 4q39 0 53 -33q6 -12 6 -26q0 -37 -33 -54q-12 -6 -26 -6 q-39 0 -53 33q-7 13 -7 27zM530 45q0 39 35 53q12 6 27 6q37 0 53 -32q6 -14 6 -27q0 -39 -35 -53q-12 -6 -24 -6q-39 0 -55 32q-7 13 -7 27zM530 897q0 39 35 53q12 6 27 6q37 0 53 -32q6 -12 6 -27q0 -39 -35 -53q-12 -6 -24 -6q-39 0 -55 32q-7 13 -7 27zM745 102 q0 37 33 54q12 6 27 6q39 0 53 -35q6 -12 6 -25q0 -39 -33 -55q-12 -4 -26 -4q-39 0 -53 33q-7 12 -7 26zM745 840q0 39 33 55q12 4 27 4q39 0 53 -33q6 -12 6 -26q0 -37 -33 -54q-12 -6 -26 -6q-39 0 -53 33q-7 13 -7 27zM901 258q0 39 35 53q12 6 27 6q37 0 53 -32 q6 -14 6 -27q0 -39 -35 -53q-10 -6 -24 -6q-39 0 -56 32q-6 13 -6 27zM901 684q0 39 35 53q12 6 27 6q37 0 53 -32q6 -12 6 -27q0 -39 -35 -53q-10 -6 -24 -6q-39 0 -56 32q-6 13 -6 27zM961 471q0 37 32 53q12 6 27 6q39 0 53 -32q6 -12 6 -27q0 -39 -32 -53q-14 -6 -27 -6 q-39 0 -53 32q-6 13 -6 27z" />
<glyph unicode="&#x1039;&#x101e;" horiz-adv-x="1417" d="M-96 -246l116 -110q27 63 64 100q78 74 174 74q98 0 176 -74q74 -78 74 -178q0 -53 -19.5 -96t-54.5 -82v2q-78 -74 -176 -74q-96 0 -174 74v-2q-35 37 -64 104l-116 -113q20 -53 69 -100q59 -55 130 -85t155 -30q162 0 285 117l43 51q8 -14 18 -26.5t23 -24.5 q123 -117 286 -117q170 0 285 119v-2q117 117 117 285q0 166 -117 287v-3q-115 119 -285 119q-139 0 -245 -82l82 -127q76 57 163 58q96 0 174 -74q74 -74 74 -178q0 -102 -74 -178v2q-78 -74 -174 -74q-102 0 -180 74v-2q-72 78 -71 178q0 166 -117 287q-121 117 -287 116 q-166 0 -285 -116q-35 -37 -69 -99zM102 471q0 39 33 53q14 6 27 6q39 0 53 -32q6 -12 6 -27q0 -39 -33 -53q-14 -6 -26 -6q-39 0 -53 32q-7 13 -7 27zM160 258q0 39 35 53q12 6 24 6q39 0 55 -32q6 -14 7 -27q0 -39 -35 -53q-12 -6 -27 -6q-37 0 -53 32q-6 13 -6 27z M160 684q0 39 35 53q12 6 24 6q39 0 55 -32q6 -12 7 -27q0 -39 -35 -53q-12 -6 -27 -6q-37 0 -53 32q-6 13 -6 27zM317 102q0 37 33 54q12 6 27 6q39 0 53 -35q6 -12 6 -25q0 -39 -33 -55q-12 -4 -26 -4q-39 0 -53 33q-7 12 -7 26zM317 840q0 39 33 55q12 4 27 4 q39 0 53 -33q6 -12 6 -26q0 -37 -33 -54q-12 -6 -26 -6q-39 0 -53 33q-7 13 -7 27zM530 45q0 39 35 53q12 6 27 6q37 0 53 -32q6 -14 6 -27q0 -39 -35 -53q-12 -6 -24 -6q-39 0 -55 32q-7 13 -7 27zM530 897q0 39 35 53q12 6 27 6q37 0 53 -32q6 -12 6 -27q0 -39 -35 -53 q-12 -6 -24 -6q-39 0 -55 32q-7 13 -7 27zM745 102q0 37 33 54q12 6 27 6q39 0 53 -35q6 -12 6 -25q0 -39 -33 -55q-12 -4 -26 -4q-39 0 -53 33q-7 12 -7 26zM745 840q0 39 33 55q12 4 27 4q39 0 53 -33q6 -12 6 -26q0 -37 -33 -54q-12 -6 -26 -6q-39 0 -53 33q-7 13 -7 27z M901 258q0 39 35 53q12 6 27 6q37 0 53 -32q6 -14 6 -27q0 -39 -35 -53q-10 -6 -24 -6q-39 0 -56 32q-6 13 -6 27zM901 684q0 39 35 53q12 6 27 6q37 0 53 -32q6 -12 6 -27q0 -39 -35 -53q-10 -6 -24 -6q-39 0 -56 32q-6 13 -6 27zM961 471q0 37 32 53q12 6 27 6 q39 0 53 -32q6 -12 6 -27q0 -39 -32 -53q-14 -6 -27 -6q-39 0 -53 32q-6 13 -6 27z" />
<glyph unicode="&#x1039;&#x101f;" horiz-adv-x="1181" d="M-133 -434q0 168 115 301q78 72 178 102l57 -141q-80 -23 -127 -70v2q-72 -94 -72 -194q0 -102 74 -176t174 -74q53 0 96.5 19.5t79.5 54.5q74 74 74 176q0 100 -76 194v-2q-51 49 -123 70l56 141q100 -31 174 -100l2 -2q14 -16 25.5 -30.5t21.5 -31.5l2 2 q10 10 17.5 22.5t17.5 23.5q121 115 285 114q164 0 282 -114q117 -117 117 -285t-119 -285q-123 -117 -293 -119l-24 158q18 -4 25 -5t12 -1q100 2 174 76q76 76 75 176q0 98 -75 174q-74 74 -174 74q-98 0 -177 -74q-35 -35 -52 -72t-21 -78v-26q0 -84 -29 -154.5 t-90 -130.5h2q-117 -117 -285 -117t-284 119v-2q-115 119 -115 285zM102 471q0 39 33 53q14 6 27 6q39 0 53 -32q6 -12 6 -27q0 -39 -33 -53q-14 -6 -26 -6q-39 0 -53 32q-7 13 -7 27zM160 258q0 39 35 53q12 6 24 6q39 0 55 -32q6 -14 7 -27q0 -39 -35 -53q-12 -6 -27 -6 q-37 0 -53 32q-6 13 -6 27zM160 684q0 39 35 53q12 6 24 6q39 0 55 -32q6 -12 7 -27q0 -39 -35 -53q-12 -6 -27 -6q-37 0 -53 32q-6 13 -6 27zM317 102q0 37 33 54q12 6 27 6q39 0 53 -35q6 -12 6 -25q0 -39 -33 -55q-12 -4 -26 -4q-39 0 -53 33q-7 12 -7 26zM317 840 q0 39 33 55q12 4 27 4q39 0 53 -33q6 -12 6 -26q0 -37 -33 -54q-12 -6 -26 -6q-39 0 -53 33q-7 13 -7 27zM530 45q0 39 35 53q12 6 27 6q37 0 53 -32q6 -14 6 -27q0 -39 -35 -53q-12 -6 -24 -6q-39 0 -55 32q-7 13 -7 27zM530 897q0 39 35 53q12 6 27 6q37 0 53 -32 q6 -12 6 -27q0 -39 -35 -53q-12 -6 -24 -6q-39 0 -55 32q-7 13 -7 27zM745 102q0 37 33 54q12 6 27 6q39 0 53 -35q6 -12 6 -25q0 -39 -33 -55q-12 -4 -26 -4q-39 0 -53 33q-7 12 -7 26zM745 840q0 39 33 55q12 4 27 4q39 0 53 -33q6 -12 6 -26q0 -37 -33 -54q-12 -6 -26 -6 q-39 0 -53 33q-7 13 -7 27zM901 258q0 39 35 53q12 6 27 6q37 0 53 -32q6 -14 6 -27q0 -39 -35 -53q-10 -6 -24 -6q-39 0 -56 32q-6 13 -6 27zM901 684q0 39 35 53q12 6 27 6q37 0 53 -32q6 -12 6 -27q0 -39 -35 -53q-10 -6 -24 -6q-39 0 -56 32q-6 13 -6 27zM961 471 q0 37 32 53q12 6 27 6q39 0 53 -32q6 -12 6 -27q0 -39 -32 -53q-14 -6 -27 -6q-39 0 -53 32q-6 13 -6 27z" />
<glyph unicode="&#x1039;&#x1021;" horiz-adv-x="1425" d="M-131 -537l139 37q88 -186 254 -186q29 0 63.5 10t61.5 25q-39 8 -66.5 24.5t-52.5 42.5q-59 109 -59 162q0 70 63 146q29 29 54.5 46t56.5 25q-74 33 -121 33q-82 0 -148.5 -45t-93.5 -125l-147 45q43 125 154 203q106 74 235 74q104 0 250 -78q25 -18 47.5 -40 t38.5 -44q10 16 18.5 25.5t18.5 19.5q119 117 287 117t284 -117q117 -117 117 -285q0 -166 -119 -289q-109 -104 -250 -116q-10 -2 -22 -2h-23q-43 0 -82 16t-68.5 45t-46 67.5t-16.5 84.5q0 45 16.5 83.5t46 67.5t68.5 45.5t82 16.5q82 0 150 -62q29 -27 44 -52.5t19 -60.5 q23 33 36 72t13 84q0 53 -19 96t-54 82v-2q-37 35 -80 54.5t-96 19.5q-98 0 -179 -76q-59 -63 -71 -139h-117l-63 25q-29 18 -46 18q-18 -4 -34.5 -10t-26.5 -17v2q-2 0 -2 -4l-18 -39l-7 -10q2 -33 26.5 -58.5t57.5 -25.5q6 0 18.5 5t31.5 14q43 23 65 22q86 0 86 -86 l-6 -43q-115 -238 -375 -237q-143 0 -245.5 76.5t-147.5 217.5zM102 471q0 39 33 53q14 6 27 6q39 0 53 -32q6 -12 6 -27q0 -39 -33 -53q-14 -6 -26 -6q-39 0 -53 32q-7 13 -7 27zM160 258q0 39 35 53q12 6 24 6q39 0 55 -32q6 -14 7 -27q0 -39 -35 -53q-12 -6 -27 -6 q-37 0 -53 32q-6 13 -6 27zM160 684q0 39 35 53q12 6 24 6q39 0 55 -32q6 -12 7 -27q0 -39 -35 -53q-12 -6 -27 -6q-37 0 -53 32q-6 13 -6 27zM317 102q0 37 33 54q12 6 27 6q39 0 53 -35q6 -12 6 -25q0 -39 -33 -55q-12 -4 -26 -4q-39 0 -53 33q-7 12 -7 26zM317 840 q0 39 33 55q12 4 27 4q39 0 53 -33q6 -12 6 -26q0 -37 -33 -54q-12 -6 -26 -6q-39 0 -53 33q-7 13 -7 27zM530 45q0 39 35 53q12 6 27 6q37 0 53 -32q6 -14 6 -27q0 -39 -35 -53q-12 -6 -24 -6q-39 0 -55 32q-7 13 -7 27zM530 897q0 39 35 53q12 6 27 6q37 0 53 -32 q6 -12 6 -27q0 -39 -35 -53q-12 -6 -24 -6q-39 0 -55 32q-7 13 -7 27zM745 102q0 37 33 54q12 6 27 6q39 0 53 -35q6 -12 6 -25q0 -39 -33 -55q-12 -4 -26 -4q-39 0 -53 33q-7 12 -7 26zM745 840q0 39 33 55q12 4 27 4q39 0 53 -33q6 -12 6 -26q0 -37 -33 -54q-12 -6 -26 -6 q-39 0 -53 33q-7 13 -7 27zM844 -623q0 -27 21.5 -47t47.5 -20q29 0 52.5 20.5t23.5 46.5q0 37 -23.5 57.5t-52.5 20.5q-27 0 -48 -20.5t-21 -57.5zM901 258q0 39 35 53q12 6 27 6q37 0 53 -32q6 -14 6 -27q0 -39 -35 -53q-10 -6 -24 -6q-39 0 -56 32q-6 13 -6 27zM901 684 q0 39 35 53q12 6 27 6q37 0 53 -32q6 -12 6 -27q0 -39 -35 -53q-10 -6 -24 -6q-39 0 -56 32q-6 13 -6 27zM961 471q0 37 32 53q12 6 27 6q39 0 53 -32q6 -12 6 -27q0 -39 -32 -53q-14 -6 -27 -6q-39 0 -53 32q-6 13 -6 27z" />
<glyph unicode="&#x1039;&#x1050;" horiz-adv-x="1181" d="M102 471q0 39 33 53q14 6 27 6q39 0 53 -32q6 -12 6 -27q0 -39 -33 -53q-14 -6 -26 -6q-39 0 -53 32q-7 13 -7 27zM160 258q0 39 35 53q12 6 24 6q39 0 55 -32q6 -14 7 -27q0 -39 -35 -53q-12 -6 -27 -6q-37 0 -53 32q-6 13 -6 27zM160 684q0 39 35 53q12 6 24 6 q39 0 55 -32q6 -12 7 -27q0 -39 -35 -53q-12 -6 -27 -6q-37 0 -53 32q-6 13 -6 27zM176 -465q0 84 32 158t86 129t127 87t157 32t157.5 -32t129 -87t87 -129t31.5 -158q0 -135 -77 -237.5t-197 -143.5l-54 146q78 25 127 89t49 150q0 51 -19 98.5t-54 81t-81 54t-97 20.5 q-53 0 -99.5 -20.5t-80 -54t-54 -81t-20.5 -98.5q0 -86 52 -152.5t130 -88.5l-59 -146q-121 41 -197 144.5t-76 238.5zM317 102q0 37 33 54q12 6 27 6q39 0 53 -35q6 -12 6 -25q0 -39 -33 -55q-12 -4 -26 -4q-39 0 -53 33q-7 12 -7 26zM317 840q0 39 33 55q12 4 27 4 q39 0 53 -33q6 -12 6 -26q0 -37 -33 -54q-12 -6 -26 -6q-39 0 -53 33q-7 13 -7 27zM483 -463q0 -41 30 -71.5t73 -30.5q41 0 72.5 30.5t31.5 71.5q0 45 -31.5 75t-72.5 30q-43 0 -73 -30t-30 -75zM530 45q0 39 35 53q12 6 27 6q37 0 53 -32q6 -14 6 -27q0 -39 -35 -53 q-12 -6 -24 -6q-39 0 -55 32q-7 13 -7 27zM530 897q0 39 35 53q12 6 27 6q37 0 53 -32q6 -12 6 -27q0 -39 -35 -53q-12 -6 -24 -6q-39 0 -55 32q-7 13 -7 27zM745 102q0 37 33 54q12 6 27 6q39 0 53 -35q6 -12 6 -25q0 -39 -33 -55q-12 -4 -26 -4q-39 0 -53 33q-7 12 -7 26z M745 840q0 39 33 55q12 4 27 4q39 0 53 -33q6 -12 6 -26q0 -37 -33 -54q-12 -6 -26 -6q-39 0 -53 33q-7 13 -7 27zM901 258q0 39 35 53q12 6 27 6q37 0 53 -32q6 -14 6 -27q0 -39 -35 -53q-10 -6 -24 -6q-39 0 -56 32q-6 13 -6 27zM901 684q0 39 35 53q12 6 27 6 q37 0 53 -32q6 -12 6 -27q0 -39 -35 -53q-10 -6 -24 -6q-39 0 -56 32q-6 13 -6 27zM961 471q0 37 32 53q12 6 27 6q39 0 53 -32q6 -12 6 -27q0 -39 -32 -53q-14 -6 -27 -6q-39 0 -53 32q-6 13 -6 27z" />
<glyph unicode="&#x1039;&#x1051;" horiz-adv-x="1181" d="M102 471q0 39 33 53q14 6 27 6q39 0 53 -32q6 -12 6 -27q0 -39 -33 -53q-14 -6 -26 -6q-39 0 -53 32q-7 13 -7 27zM160 258q0 39 35 53q12 6 24 6q39 0 55 -32q6 -14 7 -27q0 -39 -35 -53q-12 -6 -27 -6q-37 0 -53 32q-6 13 -6 27zM160 684q0 39 35 53q12 6 24 6 q39 0 55 -32q6 -12 7 -27q0 -39 -35 -53q-12 -6 -27 -6q-37 0 -53 32q-6 13 -6 27zM188 -426q0 164 115 301q39 35 83 61.5t97 43.5l58 -146q-76 -18 -129 -67v2q-72 -94 -72 -195q0 -100 74 -178q78 -74 176 -74q53 0 96 19.5t80 54.5q74 74 74 178q0 102 -74 195v-2 q-25 23 -55.5 40t-67.5 27l53 146q53 -16 96.5 -42t79.5 -61l2 -2q119 -133 119 -301t-121 -287h2q-117 -117 -284 -116q-168 0 -287 116q-55 59 -85 130t-30 157zM317 102q0 37 33 54q12 6 27 6q39 0 53 -35q6 -12 6 -25q0 -39 -33 -55q-12 -4 -26 -4q-39 0 -53 33 q-7 12 -7 26zM317 840q0 39 33 55q12 4 27 4q39 0 53 -33q6 -12 6 -26q0 -37 -33 -54q-12 -6 -26 -6q-39 0 -53 33q-7 13 -7 27zM498 -422q0 -41 29.5 -71.5t72.5 -30.5q41 0 73 30.5t32 71.5q0 45 -32 75t-73 30q-43 0 -72.5 -30t-29.5 -75zM530 45q0 39 35 53q12 6 27 6 q37 0 53 -32q6 -14 6 -27q0 -39 -35 -53q-12 -6 -24 -6q-39 0 -55 32q-7 13 -7 27zM530 897q0 39 35 53q12 6 27 6q37 0 53 -32q6 -12 6 -27q0 -39 -35 -53q-12 -6 -24 -6q-39 0 -55 32q-7 13 -7 27zM745 102q0 37 33 54q12 6 27 6q39 0 53 -35q6 -12 6 -25q0 -39 -33 -55 q-12 -4 -26 -4q-39 0 -53 33q-7 12 -7 26zM745 840q0 39 33 55q12 4 27 4q39 0 53 -33q6 -12 6 -26q0 -37 -33 -54q-12 -6 -26 -6q-39 0 -53 33q-7 13 -7 27zM901 258q0 39 35 53q12 6 27 6q37 0 53 -32q6 -14 6 -27q0 -39 -35 -53q-10 -6 -24 -6q-39 0 -56 32q-6 13 -6 27z M901 684q0 39 35 53q12 6 27 6q37 0 53 -32q6 -12 6 -27q0 -39 -35 -53q-10 -6 -24 -6q-39 0 -56 32q-6 13 -6 27zM961 471q0 37 32 53q12 6 27 6q39 0 53 -32q6 -12 6 -27q0 -39 -32 -53q-14 -6 -27 -6q-39 0 -53 32q-6 13 -6 27z" />
<glyph unicode="&#x1039;&#x105a;" horiz-adv-x="1134" d="M102 471q0 39 33 53q14 6 27 6q39 0 53 -32q6 -12 6 -27q0 -39 -33 -53q-14 -6 -26 -6q-39 0 -53 32q-7 13 -7 27zM160 258q0 39 35 53q12 6 24 6q39 0 55 -32q6 -14 7 -27q0 -39 -35 -53q-12 -6 -27 -6q-37 0 -53 32q-6 13 -6 27zM160 684q0 39 35 53q12 6 24 6 q39 0 55 -32q6 -12 7 -27q0 -39 -35 -53q-12 -6 -27 -6q-37 0 -53 32q-6 13 -6 27zM315 -260q0 43 18.5 81t51.5 67.5t78 47t98 17.5t100.5 -16.5t82 -45t54 -66.5t19.5 -81q0 -27 -10 -55.5t-27 -61.5l-57 -92q-37 -59 -37 -102q0 -25 16 -33l-8 2q2 0 5 -2t6 -2 q12 -2 57 -31l-82 -94q-78 8 -109 59q-27 45 -26 103q0 72 45 149l12 23l-2 -2l62 104q4 8 8 17.5t4 15.5q0 35 -32 58.5t-79 23.5t-76.5 -24.5t-29.5 -59.5l6 -12q6 -16 7 -36t1 -36l-129 -12q-27 61 -27 96zM317 102q0 37 33 54q12 6 27 6q39 0 53 -35q6 -12 6 -25 q0 -39 -33 -55q-12 -4 -26 -4q-39 0 -53 33q-7 12 -7 26zM317 840q0 39 33 55q12 4 27 4q39 0 53 -33q6 -12 6 -26q0 -37 -33 -54q-12 -6 -26 -6q-39 0 -53 33q-7 13 -7 27zM530 45q0 39 35 53q12 6 27 6q37 0 53 -32q6 -14 6 -27q0 -39 -35 -53q-12 -6 -24 -6q-39 0 -55 32 q-7 13 -7 27zM530 897q0 39 35 53q12 6 27 6q37 0 53 -32q6 -12 6 -27q0 -39 -35 -53q-12 -6 -24 -6q-39 0 -55 32q-7 13 -7 27zM745 102q0 37 33 54q12 6 27 6q39 0 53 -35q6 -12 6 -25q0 -39 -33 -55q-12 -4 -26 -4q-39 0 -53 33q-7 12 -7 26zM745 840q0 39 33 55 q12 4 27 4q39 0 53 -33q6 -12 6 -26q0 -37 -33 -54q-12 -6 -26 -6q-39 0 -53 33q-7 13 -7 27zM901 258q0 39 35 53q12 6 27 6q37 0 53 -32q6 -14 6 -27q0 -39 -35 -53q-10 -6 -24 -6q-39 0 -56 32q-6 13 -6 27zM901 684q0 39 35 53q12 6 27 6q37 0 53 -32q6 -12 6 -27 q0 -39 -35 -53q-10 -6 -24 -6q-39 0 -56 32q-6 13 -6 27zM961 471q0 37 32 53q12 6 27 6q39 0 53 -32q6 -12 6 -27q0 -39 -32 -53q-14 -6 -27 -6q-39 0 -53 32q-6 13 -6 27z" />
<glyph unicode="&#x1039;&#x105b;" horiz-adv-x="1392" d="M102 471q0 39 33 53q14 6 27 6q39 0 53 -32q6 -12 6 -27q0 -39 -33 -53q-14 -6 -26 -6q-39 0 -53 32q-7 13 -7 27zM160 258q0 39 35 53q12 6 24 6q39 0 55 -32q6 -14 7 -27q0 -39 -35 -53q-12 -6 -27 -6q-37 0 -53 32q-6 13 -6 27zM160 684q0 39 35 53q12 6 24 6 q39 0 55 -32q6 -12 7 -27q0 -39 -35 -53q-12 -6 -27 -6q-37 0 -53 32q-6 13 -6 27zM197 -428q0 82 29.5 151.5t82.5 129.5q123 117 285 116q162 0 283 -116q29 -35 47 -60.5t24 -48.5h6q14 -66 64 -115v2q43 -43 104 -61l-41 -150q-102 33 -170 103h4l-6 6q-8 -8 -10 -12 q-68 -61 -149 -62q-90 0 -151.5 60.5t-61.5 150.5q0 88 61 150q6 4 3 2t1 2h-8q-102 0 -172 -74v2q-76 -76 -76 -176q0 -104 76 -176q35 -37 79 -55.5t93 -18.5q94 0 168 68l90 -2q14 -35 44 -47.5t83 -12.5q66 4 105.5 24.5t43.5 98.5v1503h162v-1540q0 -244 -227 -245 h-154q-92 6 -147 43q-82 -39 -168 -39q-164 0 -285 114q-53 59 -82.5 129t-29.5 156zM317 102q0 37 33 54q12 6 27 6q39 0 53 -35q6 -12 6 -25q0 -39 -33 -55q-12 -4 -26 -4q-39 0 -53 33q-7 12 -7 26zM317 840q0 39 33 55q12 4 27 4q39 0 53 -33q6 -12 6 -26q0 -37 -33 -54 q-12 -6 -26 -6q-39 0 -53 33q-7 13 -7 27zM530 45q0 39 35 53q12 6 27 6q37 0 53 -32q6 -14 6 -27q0 -39 -35 -53q-12 -6 -24 -6q-39 0 -55 32q-7 13 -7 27zM530 897q0 39 35 53q12 6 27 6q37 0 53 -32q6 -12 6 -27q0 -39 -35 -53q-12 -6 -24 -6q-39 0 -55 32q-7 13 -7 27z M684 -340q0 -27 21.5 -47.5t48.5 -20.5q12 0 26.5 6.5t24.5 14.5q16 14 20 33q-6 12 -10 28.5t-8 32.5l-23 23q-22 6 -30 6q-27 0 -48.5 -19.5t-21.5 -56.5zM745 102q0 37 33 54q12 6 27 6q39 0 53 -35q6 -12 6 -25q0 -39 -33 -55q-12 -4 -26 -4q-39 0 -53 33q-7 12 -7 26z M745 840q0 39 33 55q12 4 27 4q39 0 53 -33q6 -12 6 -26q0 -37 -33 -54q-12 -6 -26 -6q-39 0 -53 33q-7 13 -7 27zM901 258q0 39 35 53q12 6 27 6q37 0 53 -32q6 -14 6 -27q0 -39 -35 -53q-10 -6 -24 -6q-39 0 -56 32q-6 13 -6 27zM901 684q0 39 35 53q12 6 27 6 q37 0 53 -32q6 -12 6 -27q0 -39 -35 -53q-10 -6 -24 -6q-39 0 -56 32q-6 13 -6 27zM961 471q0 37 32 53q12 6 27 6q39 0 53 -32q6 -12 6 -27q0 -39 -32 -53q-14 -6 -27 -6q-39 0 -53 32q-6 13 -6 27z" />
<glyph unicode="&#x1039;&#x105c;" horiz-adv-x="1181" d="M102 471q0 39 33 53q14 6 27 6q39 0 53 -32q6 -12 6 -27q0 -39 -33 -53q-14 -6 -26 -6q-39 0 -53 32q-7 13 -7 27zM160 258q0 39 35 53q12 6 24 6q39 0 55 -32q6 -14 7 -27q0 -39 -35 -53q-12 -6 -27 -6q-37 0 -53 32q-6 13 -6 27zM160 684q0 39 35 53q12 6 24 6 q39 0 55 -32q6 -12 7 -27q0 -39 -35 -53q-12 -6 -27 -6q-37 0 -53 32q-6 13 -6 27zM190 -455q0 -84 32 -157.5t86 -129t127 -87t157 -31.5t157.5 31.5t129 87t87 129t31.5 157.5t-31.5 158t-87 128t-129 86t-157.5 32t-157 -32t-127 -86t-86 -128t-32 -158zM317 102 q0 37 33 54q12 6 27 6q39 0 53 -35q6 -12 6 -25q0 -39 -33 -55q-12 -4 -26 -4q-39 0 -53 33q-7 12 -7 26zM317 840q0 39 33 55q12 4 27 4q39 0 53 -33q6 -12 6 -26q0 -37 -33 -54q-12 -6 -26 -6q-39 0 -53 33q-7 13 -7 27zM340 -459q0 51 20.5 97.5t54.5 81t80 54t99 19.5 q51 0 97 -19.5t81 -54t54.5 -81t19.5 -97.5q0 -53 -19.5 -99t-54.5 -80t-81 -54.5t-97 -20.5q-53 0 -99 20.5t-80 54.5t-54.5 80t-20.5 99zM430 -457q0 70 48 119t118 49q68 0 116 -49t48 -119q0 -68 -48 -116t-116 -48q-70 0 -118 48.5t-48 115.5zM526 -457q0 -29 20.5 -49 t49.5 -20t50.5 20.5t21.5 48.5q0 31 -21.5 51.5t-50.5 20.5t-49.5 -20.5t-20.5 -51.5zM530 45q0 39 35 53q12 6 27 6q37 0 53 -32q6 -14 6 -27q0 -39 -35 -53q-12 -6 -24 -6q-39 0 -55 32q-7 13 -7 27zM530 897q0 39 35 53q12 6 27 6q37 0 53 -32q6 -12 6 -27q0 -39 -35 -53 q-12 -6 -24 -6q-39 0 -55 32q-7 13 -7 27zM745 102q0 37 33 54q12 6 27 6q39 0 53 -35q6 -12 6 -25q0 -39 -33 -55q-12 -4 -26 -4q-39 0 -53 33q-7 12 -7 26zM745 840q0 39 33 55q12 4 27 4q39 0 53 -33q6 -12 6 -26q0 -37 -33 -54q-12 -6 -26 -6q-39 0 -53 33q-7 13 -7 27z M901 258q0 39 35 53q12 6 27 6q37 0 53 -32q6 -14 6 -27q0 -39 -35 -53q-10 -6 -24 -6q-39 0 -56 32q-6 13 -6 27zM901 684q0 39 35 53q12 6 27 6q37 0 53 -32q6 -12 6 -27q0 -39 -35 -53q-10 -6 -24 -6q-39 0 -56 32q-6 13 -6 27zM961 471q0 37 32 53q12 6 27 6 q39 0 53 -32q6 -12 6 -27q0 -39 -32 -53q-14 -6 -27 -6q-39 0 -53 32q-6 13 -6 27z" />
<glyph unicode="&#x1039;&#x1075;" horiz-adv-x="1181" d="M102 471q0 39 33 53q14 6 27 6q39 0 53 -32q6 -12 6 -27q0 -39 -33 -53q-14 -6 -26 -6q-39 0 -53 32q-7 13 -7 27zM160 258q0 39 35 53q12 6 24 6q39 0 55 -32q6 -14 7 -27q0 -39 -35 -53q-12 -6 -27 -6q-37 0 -53 32q-6 13 -6 27zM160 684q0 39 35 53q12 6 24 6 q39 0 55 -32q6 -12 7 -27q0 -39 -35 -53q-12 -6 -27 -6q-37 0 -53 32q-6 13 -6 27zM217 -438q0 86 29.5 156.5t85.5 129.5q117 117 286 117q164 0 285 -117h-2q121 -121 121 -286q0 -168 -119 -301q-39 -35 -82 -61.5t-96 -43.5l-55 146q39 10 69.5 27.5t55.5 39.5v-2 q35 47 54 94t19 101q0 100 -73 178q-78 74 -177 74q-104 0 -178 -74q-29 -27 -45 -59.5t-22 -69.5q198 -61 188 -221l-4 -37q-4 -23 -8 -43.5t-12 -32.5q-10 -35 -42 -62.5t-77 -43.5l-74 -11q-72 10 -115 33l39 152q8 -4 19.5 -13.5t21.5 -13.5l51 -2q43 -2 54 59 q-4 72 -64 86l-129 35l-4 58v8zM317 102q0 37 33 54q12 6 27 6q39 0 53 -35q6 -12 6 -25q0 -39 -33 -55q-12 -4 -26 -4q-39 0 -53 33q-7 12 -7 26zM317 840q0 39 33 55q12 4 27 4q39 0 53 -33q6 -12 6 -26q0 -37 -33 -54q-12 -6 -26 -6q-39 0 -53 33q-7 13 -7 27zM530 45 q0 39 35 53q12 6 27 6q37 0 53 -32q6 -14 6 -27q0 -39 -35 -53q-12 -6 -24 -6q-39 0 -55 32q-7 13 -7 27zM530 897q0 39 35 53q12 6 27 6q37 0 53 -32q6 -12 6 -27q0 -39 -35 -53q-12 -6 -24 -6q-39 0 -55 32q-7 13 -7 27zM745 102q0 37 33 54q12 6 27 6q39 0 53 -35 q6 -12 6 -25q0 -39 -33 -55q-12 -4 -26 -4q-39 0 -53 33q-7 12 -7 26zM745 840q0 39 33 55q12 4 27 4q39 0 53 -33q6 -12 6 -26q0 -37 -33 -54q-12 -6 -26 -6q-39 0 -53 33q-7 13 -7 27zM901 258q0 39 35 53q12 6 27 6q37 0 53 -32q6 -14 6 -27q0 -39 -35 -53q-10 -6 -24 -6 q-39 0 -56 32q-6 13 -6 27zM901 684q0 39 35 53q12 6 27 6q37 0 53 -32q6 -12 6 -27q0 -39 -35 -53q-10 -6 -24 -6q-39 0 -56 32q-6 13 -6 27zM961 471q0 37 32 53q12 6 27 6q39 0 53 -32q6 -12 6 -27q0 -39 -32 -53q-14 -6 -27 -6q-39 0 -53 32q-6 13 -6 27z" />
<glyph unicode="&#x1039;&#x1076;" horiz-adv-x="1181" d="M102 471q0 39 33 53q14 6 27 6q39 0 53 -32q6 -12 6 -27q0 -39 -33 -53q-14 -6 -26 -6q-39 0 -53 32q-7 13 -7 27zM160 258q0 39 35 53q12 6 24 6q39 0 55 -32q6 -14 7 -27q0 -39 -35 -53q-12 -6 -27 -6q-37 0 -53 32q-6 13 -6 27zM160 684q0 39 35 53q12 6 24 6 q39 0 55 -32q6 -12 7 -27q0 -39 -35 -53q-12 -6 -27 -6q-37 0 -53 32q-6 13 -6 27zM229 -565q0 43 16.5 82t45 67.5t66.5 45t83 16.5q94 0 156.5 -61.5t62.5 -149.5q0 -68 -41 -125q90 8 154 72q76 76 76 184q0 100 -76 176q-72 68 -158 74q-16 -78 -66 -114t-132 -38 q-98 10 -139 59.5t-41 126.5q0 45 16 111l145 -10q-16 -66 -16 -92q0 -51 39 -64q31 2 49 39t12 117q53 14 109 16h16q160 -6 275 -117q123 -119 123 -284q0 -86 -31 -158t-90 -133q-119 -119 -293 -119q-158 0 -283 113q-10 4 -18 12q-59 70 -60 154zM317 102q0 37 33 54 q12 6 27 6q39 0 53 -35q6 -12 6 -25q0 -39 -33 -55q-12 -4 -26 -4q-39 0 -53 33q-7 12 -7 26zM317 840q0 39 33 55q12 4 27 4q39 0 53 -33q6 -12 6 -26q0 -37 -33 -54q-12 -6 -26 -6q-39 0 -53 33q-7 13 -7 27zM369 -561q0 -31 23.5 -52.5t51.5 -21.5q33 0 55.5 21.5 t22.5 52.5q0 33 -22.5 55.5t-55.5 22.5q-29 0 -52 -22.5t-23 -55.5zM530 45q0 39 35 53q12 6 27 6q37 0 53 -32q6 -14 6 -27q0 -39 -35 -53q-12 -6 -24 -6q-39 0 -55 32q-7 13 -7 27zM530 897q0 39 35 53q12 6 27 6q37 0 53 -32q6 -12 6 -27q0 -39 -35 -53q-12 -6 -24 -6 q-39 0 -55 32q-7 13 -7 27zM745 102q0 37 33 54q12 6 27 6q39 0 53 -35q6 -12 6 -25q0 -39 -33 -55q-12 -4 -26 -4q-39 0 -53 33q-7 12 -7 26zM745 840q0 39 33 55q12 4 27 4q39 0 53 -33q6 -12 6 -26q0 -37 -33 -54q-12 -6 -26 -6q-39 0 -53 33q-7 13 -7 27zM901 258 q0 39 35 53q12 6 27 6q37 0 53 -32q6 -14 6 -27q0 -39 -35 -53q-10 -6 -24 -6q-39 0 -56 32q-6 13 -6 27zM901 684q0 39 35 53q12 6 27 6q37 0 53 -32q6 -12 6 -27q0 -39 -35 -53q-10 -6 -24 -6q-39 0 -56 32q-6 13 -6 27zM961 471q0 37 32 53q12 6 27 6q39 0 53 -32 q6 -12 6 -27q0 -39 -32 -53q-14 -6 -27 -6q-39 0 -53 32q-6 13 -6 27z" />
<glyph unicode="&#x1039;&#x1078;" horiz-adv-x="1433" d="M-129 -438q0 -168 117 -287q117 -117 299 -117l22 158q-18 -4 -25.5 -5t-11.5 -1q-53 0 -96 19.5t-80 54.5q-74 78 -73 178q0 100 73 180v-2q37 35 80 54.5t96 19.5q98 0 179 -76q35 -37 54 -80t19 -96q0 -168 117 -287q119 -117 287 -117q166 0 286 117q117 119 117 287 q0 170 -117 286q-121 117 -286 117q-168 0 -287 -117q-10 -10 -20.5 -21t-20.5 -28q-8 14 -18.5 25.5t-24.5 23.5h2q-121 117 -287 117q-168 0 -284 -117q-117 -117 -117 -286zM102 471q0 39 33 53q14 6 27 6q39 0 53 -32q6 -12 6 -27q0 -39 -33 -53q-14 -6 -26 -6 q-39 0 -53 32q-7 13 -7 27zM160 258q0 39 35 53q12 6 24 6q39 0 55 -32q6 -14 7 -27q0 -39 -35 -53q-12 -6 -27 -6q-37 0 -53 32q-6 13 -6 27zM160 684q0 39 35 53q12 6 24 6q39 0 55 -32q6 -12 7 -27q0 -39 -35 -53q-12 -6 -27 -6q-37 0 -53 32q-6 13 -6 27zM317 102 q0 37 33 54q12 6 27 6q39 0 53 -35q6 -12 6 -25q0 -39 -33 -55q-12 -4 -26 -4q-39 0 -53 33q-7 12 -7 26zM317 840q0 39 33 55q12 4 27 4q39 0 53 -33q6 -12 6 -26q0 -37 -33 -54q-12 -6 -26 -6q-39 0 -53 33q-7 13 -7 27zM530 45q0 39 35 53q12 6 27 6q37 0 53 -32 q6 -14 6 -27q0 -39 -35 -53q-12 -6 -24 -6q-39 0 -55 32q-7 13 -7 27zM530 897q0 39 35 53q12 6 27 6q37 0 53 -32q6 -12 6 -27q0 -39 -35 -53q-12 -6 -24 -6q-39 0 -55 32q-7 13 -7 27zM678 -438q0 100 74 180v-2q78 74 176 74q100 0 178 -74v2q74 -80 74 -180t-74 -178 q-78 -74 -178 -74q-98 0 -176 74q-74 78 -74 178zM745 102q0 37 33 54q12 6 27 6q39 0 53 -35q6 -12 6 -25q0 -39 -33 -55q-12 -4 -26 -4q-39 0 -53 33q-7 12 -7 26zM745 840q0 39 33 55q12 4 27 4q39 0 53 -33q6 -12 6 -26q0 -37 -33 -54q-12 -6 -26 -6q-39 0 -53 33 q-7 13 -7 27zM901 258q0 39 35 53q12 6 27 6q37 0 53 -32q6 -14 6 -27q0 -39 -35 -53q-10 -6 -24 -6q-39 0 -56 32q-6 13 -6 27zM901 684q0 39 35 53q12 6 27 6q37 0 53 -32q6 -12 6 -27q0 -39 -35 -53q-10 -6 -24 -6q-39 0 -56 32q-6 13 -6 27zM961 471q0 37 32 53 q12 6 27 6q39 0 53 -32q6 -12 6 -27q0 -39 -32 -53q-14 -6 -27 -6q-39 0 -53 32q-6 13 -6 27z" />
<glyph unicode="&#x1039;&#x107c;" horiz-adv-x="1400" d="M-96 -569q0 43 16.5 81.5t45 68.5t67.5 46.5t84 16.5q94 0 155 -62q63 -63 64 -151q0 -72 -43 -123q90 10 153 69q66 66 78 152q-2 6 -2 15.5v17.5v16t2 12q-8 41 -26.5 79t-48.5 69h2q-39 35 -84 54.5t-101 19.5q-90 0 -166 -58l-108 109q119 100 274 100 q168 0 291 -117q14 -14 25.5 -26.5t19.5 -22.5q10 12 20.5 25.5t18.5 23.5q61 57 134 87t159 30q158 0 274 -100l-108 -109q-76 57 -166 58q-104 0 -182 -74q-63 -61 -74 -150v-57q4 -41 22.5 -79t53.5 -73q29 -29 69.5 -48t81.5 -23q-39 53 -39 123q0 86 62 151 q61 61 155 62q45 0 84 -16.5t68 -46.5t46 -68.5t17 -81.5q0 -84 -61 -152l-2 -2q-135 -123 -301 -123q-168 0 -291 117h-2q-14 14 -39 49q-10 -14 -20.5 -24.5l-24.5 -24.5q-123 -117 -291 -117q-166 0 -303 123q-59 70 -59 154zM45 -563q0 -31 22.5 -53.5t51.5 -22.5 q33 0 56.5 22.5t23.5 53.5t-23.5 53.5t-56.5 22.5q-29 0 -51.5 -22.5t-22.5 -53.5zM102 471q0 39 33 53q14 6 27 6q39 0 53 -32q6 -12 6 -27q0 -39 -33 -53q-14 -6 -26 -6q-39 0 -53 32q-7 13 -7 27zM160 258q0 39 35 53q12 6 24 6q39 0 55 -32q6 -14 7 -27q0 -39 -35 -53 q-12 -6 -27 -6q-37 0 -53 32q-6 13 -6 27zM160 684q0 39 35 53q12 6 24 6q39 0 55 -32q6 -12 7 -27q0 -39 -35 -53q-12 -6 -27 -6q-37 0 -53 32q-6 13 -6 27zM317 102q0 37 33 54q12 6 27 6q39 0 53 -35q6 -12 6 -25q0 -39 -33 -55q-12 -4 -26 -4q-39 0 -53 33q-7 12 -7 26z M317 840q0 39 33 55q12 4 27 4q39 0 53 -33q6 -12 6 -26q0 -37 -33 -54q-12 -6 -26 -6q-39 0 -53 33q-7 13 -7 27zM530 45q0 39 35 53q12 6 27 6q37 0 53 -32q6 -14 6 -27q0 -39 -35 -53q-12 -6 -24 -6q-39 0 -55 32q-7 13 -7 27zM530 897q0 39 35 53q12 6 27 6q37 0 53 -32 q6 -12 6 -27q0 -39 -35 -53q-12 -6 -24 -6q-39 0 -55 32q-7 13 -7 27zM745 102q0 37 33 54q12 6 27 6q39 0 53 -35q6 -12 6 -25q0 -39 -33 -55q-12 -4 -26 -4q-39 0 -53 33q-7 12 -7 26zM745 840q0 39 33 55q12 4 27 4q39 0 53 -33q6 -12 6 -26q0 -37 -33 -54q-12 -6 -26 -6 q-39 0 -53 33q-7 13 -7 27zM901 258q0 39 35 53q12 6 27 6q37 0 53 -32q6 -14 6 -27q0 -39 -35 -53q-10 -6 -24 -6q-39 0 -56 32q-6 13 -6 27zM901 684q0 39 35 53q12 6 27 6q37 0 53 -32q6 -12 6 -27q0 -39 -35 -53q-10 -6 -24 -6q-39 0 -56 32q-6 13 -6 27zM961 471 q0 37 32 53q12 6 27 6q39 0 53 -32q6 -12 6 -27q0 -39 -32 -53q-14 -6 -27 -6q-39 0 -53 32q-6 13 -6 27zM1004 -563q0 -31 22.5 -53.5t52.5 -22.5q31 0 54.5 22.5t23.5 53.5t-23.5 53.5t-54.5 22.5t-53 -22.5t-22 -53.5z" />
<glyph unicode="&#x1039;&#x107d;" horiz-adv-x="1474" d="M-68 -434q0 -84 33 -156q51 -90 105 -137q121 -102 292 -102q100 0 179.5 43t136.5 120q10 -14 18.5 -23t22.5 -24q123 -117 293 -116q161 -1 282 110q10 4 19 12q59 66 59 154q0 43 -16.5 81t-45 66.5t-66.5 46t-83 17.5t-85 -17.5t-68.5 -46t-46 -66.5t-17.5 -81 q0 -37 8.5 -66.5t30.5 -58.5q-43 4 -81 21.5t-73 52.5q-23 25 -40 55.5t-27 59.5v-3q-8 27 -8 68q0 98 75 178h-2q80 74 185 74q90 0 166 -59l108 108q-117 100 -274 100q-164 0 -291 -116q-121 -117 -121 -285q0 -14 1 -29.5t3 -29.5q-14 -66 -69 -121q-84 -74 -179 -74 q-55 0 -101 19.5t-87 54.5q-76 74 -76 178q0 88 43 147q18 -66 76.5 -106.5t130.5 -40.5q43 0 79 16.5t68 44.5q63 57 64 150q0 135 -133 197l-41 -119q35 -41 35 -68q0 -37 -21.5 -64.5t-58.5 -27.5q-63 0 -84 64q0 8 -2 16t-2 16l22 76q0 53 -71 78l-15 2l-53 -18 q-197 -182 -197 -371zM102 471q0 39 33 53q14 6 27 6q39 0 53 -32q6 -12 6 -27q0 -39 -33 -53q-14 -6 -26 -6q-39 0 -53 32q-7 13 -7 27zM160 258q0 39 35 53q12 6 24 6q39 0 55 -32q6 -14 7 -27q0 -39 -35 -53q-12 -6 -27 -6q-37 0 -53 32q-6 13 -6 27zM160 684q0 39 35 53 q12 6 24 6q39 0 55 -32q6 -12 7 -27q0 -39 -35 -53q-12 -6 -27 -6q-37 0 -53 32q-6 13 -6 27zM317 102q0 37 33 54q12 6 27 6q39 0 53 -35q6 -12 6 -25q0 -39 -33 -55q-12 -4 -26 -4q-39 0 -53 33q-7 12 -7 26zM317 840q0 39 33 55q12 4 27 4q39 0 53 -33q6 -12 6 -26 q0 -37 -33 -54q-12 -6 -26 -6q-39 0 -53 33q-7 13 -7 27zM530 45q0 39 35 53q12 6 27 6q37 0 53 -32q6 -14 6 -27q0 -39 -35 -53q-12 -6 -24 -6q-39 0 -55 32q-7 13 -7 27zM530 897q0 39 35 53q12 6 27 6q37 0 53 -32q6 -12 6 -27q0 -39 -35 -53q-12 -6 -24 -6q-39 0 -55 32 q-7 13 -7 27zM745 102q0 37 33 54q12 6 27 6q39 0 53 -35q6 -12 6 -25q0 -39 -33 -55q-12 -4 -26 -4q-39 0 -53 33q-7 12 -7 26zM745 840q0 39 33 55q12 4 27 4q39 0 53 -33q6 -12 6 -26q0 -37 -33 -54q-12 -6 -26 -6q-39 0 -53 33q-7 13 -7 27zM901 258q0 39 35 53 q12 6 27 6q37 0 53 -32q6 -14 6 -27q0 -39 -35 -53q-10 -6 -24 -6q-39 0 -56 32q-6 13 -6 27zM901 684q0 39 35 53q12 6 27 6q37 0 53 -32q6 -12 6 -27q0 -39 -35 -53q-10 -6 -24 -6q-39 0 -56 32q-6 13 -6 27zM961 471q0 37 32 53q12 6 27 6q39 0 53 -32q6 -12 6 -27 q0 -39 -32 -53q-14 -6 -27 -6q-39 0 -53 32q-6 13 -6 27zM1081 -549q0 33 21.5 54.5t54.5 21.5q31 0 53.5 -21.5t22.5 -54.5q0 -31 -22.5 -52.5t-53.5 -21.5q-33 0 -54.5 21.5t-21.5 52.5z" />
<glyph unicode="&#x100a;&#x1039;&#x100a;" horiz-adv-x="2689" d="M156 242l118 114q25 -57 72 -106q90 -92 217 -92q129 0 219 92t90 217q0 129 -90 220t-219 91q-127 0 -217 -92q-47 -47 -72 -104l-118 110q31 55 80 105q135 137 327 137q195 0 331 -136t136 -331q0 -125 90 -217t221 -92q127 0 217.5 92t90.5 217q0 129 -90.5 220 t-217.5 91q-111 0 -192 -65l-84 131q119 90 276 90q193 0 329 -136t136 -331v-2q0 -129 90 -219q92 -90 218 -90q129 0 220 90t91 221q0 125 -91 215t-220 90h-27l22 160h5q195 0 330.5 -136.5t135.5 -328.5q0 -195 -136 -331t-330 -136q-195 0 -330 135q-33 33 -58 70 l-2 -4q-25 -33 -55 -64q-135 -135 -328 -135q-195 0 -329 135q-35 35 -60 72q-25 -37 -59 -72q-135 -135 -330 -135q-143 0 -254 74v-512q0 -117 73 -194t183 -77h1596q104 0 182 76t80 182v13h157v-25q6 -182 -109.5 -291.5t-295.5 -109.5h-1620q-176 0 -287.5 117.5 t-111.5 295.5v691z" />
<glyph unicode="&#x100b;&#x1039;&#x100b;" horiz-adv-x="1128" d="M106 467q0 195 136.5 331t330.5 136q193 0 328 -137q49 -49 80 -105l-119 -110q-25 57 -71 104q-90 92 -218 92q-129 0 -219 -91t-90 -220q0 -125 90 -217t219 -92q127 0 218 92q47 49 71 106l119 -112q-27 -55 -80 -107q-135 -135 -328 -135q-195 0 -329 135 q-35 35 -60 72q-74 111 -78 258zM145 -137l103 125l53 -29q117 -59 256 -59q186 0 326 102l141 -88v-621h168v-155h-320l-4 674q-141 -70 -313 -70q-199 0 -358 88zM262 -471q2 -29 11.5 -53.5t25.5 -46.5q12 -16 27 -27q72 -51 163 -51q29 0 51.5 1t43.5 9q41 18 70.5 44 t39.5 63l-82 55q-10 -23 -20 -34t-19 -17q-14 -10 -35.5 -18.5t-48.5 -8.5q-47 0 -80.5 24.5t-33.5 59.5t33.5 61.5t80.5 26.5q55 0 84 -29q25 -18 41 -45l88 60q10 6 6.5 14t-15 16.5t-24 15.5t-18.5 11q-66 51 -162 51q-88 0 -157 -51q-33 -27 -51.5 -60.5t-18.5 -70.5z M297 -616q92 -62 205 -62q82 0 147 37l82 -43v-84h74v-94h-184l-3 102q-23 -6 -54.5 -10t-61.5 -4q-47 0 -92 9t-80 24h2l-35 12v113z" />
<glyph unicode="&#x100b;&#x1039;&#x100c;" horiz-adv-x="1136" d="M102 -563q0 100 72 169.5t170 69.5q35 0 66 -8l-48 -141h-16q-31 0 -58.5 -24.5t-27.5 -65.5q0 -37 27 -62q18 -16 39 -22h39h505v459q-143 -70 -315 -70q-199 0 -358 88l-52 33l99 135l57 -39q117 -59 256 -59q186 0 328 102l141 -88v-717h-649q-16 -2 -33 -2 q-98 0 -170 69.5t-72 172.5zM106 467q0 195 136.5 331t330.5 136q193 0 328 -137q49 -49 80 -105l-119 -110q-25 57 -71 104q-90 92 -218 92q-129 0 -219 -91t-90 -220q0 -125 90 -217t219 -92q127 0 218 92q47 49 71 106l119 -112q-27 -55 -80 -107q-135 -135 -328 -135 q-195 0 -329 135q-35 35 -60 72q-74 111 -78 258z" />
<glyph unicode="&#x100d;&#x1039;&#x100d;" horiz-adv-x="1128" d="M145 -137v381l119 112q25 -57 72 -106q90 -92 217 -92q129 0 219 92t90 217q0 129 -90 220t-219 91q-127 0 -217 -92q-47 -47 -72 -104l-119 110q31 55 80 105q135 137 328 137q195 0 331 -136t136 -331q-4 -147 -78 -258q-25 -37 -59 -72q-135 -135 -330 -135 q-141 0 -252 72v-115q117 -59 256 -59q186 0 326 102l141 -88v-619h168v-155h-320l-4 672q-141 -70 -313 -70q-199 0 -358 88zM276 -397q16 20 28.5 34.5t23.5 24.5q70 51 164 51q88 0 161 -51q33 -29 52.5 -62.5t19.5 -70.5q-2 -29 -12.5 -54.5t-26.5 -47.5 q-6 -10 -13 -16.5t-14 -12.5q-72 -51 -167 -51q-29 0 -51.5 1t-43.5 9v-21q41 -14 97 -14q78 0 149 39l82 -43v-86h76v-94h-187l-2 102q-25 -6 -56.5 -10t-61.5 -4q-47 0 -94.5 9t-82.5 24h2l-34 12v192l84 58q10 -23 20 -34t19 -17q14 -10 36.5 -19.5t47.5 -9.5 q49 0 83.5 26.5t34.5 61.5t-34.5 61.5t-83.5 26.5q-55 0 -84 -29q-12 -10 -22.5 -20t-20.5 -27z" />
<glyph unicode="&#x100e;&#x1039;&#x100d;" horiz-adv-x="1136" d="M102 467v8l4 60l144 40q88 20 88 115q-12 86 -78 82l-61 -4l-39 -23l-41 156q41 20 125 31l80 -12q106 -41 135 -119q16 -27 24 -90l4 -41q10 -184 -223 -252h-4q14 -96 88 -170q92 -92 219 -92q129 0 219.5 91t90.5 220q0 125 -93 238q-59 61 -139 81l55 148 q109 -33 195 -117q139 -158 139 -350q0 -195 -137 -331t-330 -136q-195 0 -330 136t-135 331zM422 453q27 47 41 61q55 55 127 55q37 0 67.5 -14t59.5 -41q53 -57 53 -139q0 -33 -8 -59.5t-21 -51.5q-4 -10 -10 -16t-10 -12q-59 -55 -131 -56q-23 0 -40.5 2t-33.5 11v-33 q31 -14 76 -15q63 0 115 41l65 -47v-901h59v-100h-204l-2 921q-10 -4 -12.5 -7t-2.5 -5t-3 -3t-15 -1q-39 0 -74 10t-63 25h2l-29 12v215l66 62q8 -23 16 -36.5t14 -19.5q25 -29 66 -28q39 0 65.5 27.5t26.5 64.5q0 35 -26.5 63.5t-65.5 28.5q-41 0 -66 -31 q-10 -10 -18 -21.5t-14 -27.5z" />
<glyph unicode="&#xf8ff;&#x1039;&#x100d;" horiz-adv-x="2263" d="M102 475q0 145 82 256q141 203 385 203q186 -6 351 -117q66 121 202 121q139 0 201 -125q29 16 49 33q131 88 289 88q252 0 399 -203q84 -113 84 -264q0 -248 -211 -389q-125 -80 -272 -80q-76 0 -143 22l49 138q16 -2 30 -6q41 -8 64 -9q104 0 190 54q147 92 148 270 q0 98 -64 184q-98 137 -260 137q-137 0 -274 -100q-6 -8 -51 -65v-2l-2 -25q-43 -70 -43 -139q0 -68 43 -142l2 -20v-68q0 -96 -65.5 -160.5t-162.5 -64.5q-94 0 -161.5 64.5t-67.5 160.5v70l4 18q43 74 43 152q0 57 -43 133l-4 18q-8 14 -41 62q-10 12 -64 47 q-92 68 -204 68q-174 0 -277 -144q-55 -78 -55 -176q0 -172 141 -266q96 -63 211 -64q14 0 50 7.5t53 7.5q8 0 16 -2l22 -129q-45 -27 -141 -27q-154 0 -295 90q-207 135 -207 383zM403 -516q0 129 109 237h-2q49 47 120.5 77t147.5 30q55 -2 109.5 -19.5t99.5 -39.5 q16 -8 24.5 -14.5t16.5 -10.5h-2l16 -12v2q51 -59 79 -119.5t28 -130.5q0 -43 -8 -84t-31 -82h88q23 43 33 88t10 80q0 61 -20.5 121.5t-59.5 113.5l80 109h510v117h160v-250l-543 -6q16 -47 26.5 -102.5t10.5 -102.5q0 -76 -20.5 -149.5t-51.5 -131.5l-10 -20v4l-4 -8h-393 l-97 96q63 31 91 55q27 27 45 68t18 84t-16.5 80t-45 64.5t-65.5 43t-78 15.5t-80 -15.5t-68.5 -43t-47 -64.5t-17.5 -80q0 -47 20.5 -86t55.5 -66q20 -23 74 -55l-103 -104q-31 18 -59.5 36.5t-44.5 32.5h2q-53 53 -80 110.5t-27 131.5zM1040 227q0 -33 25 -58.5t57 -25.5 q35 0 58.5 26t23.5 58v43q-51 88 -51 187q0 94 51 184v72q0 35 -25.5 58.5t-56.5 23.5t-56.5 -23.5t-25.5 -58.5v-72q43 -94 43 -174q0 -104 -43 -195v-45z" />
<glyph unicode="&#x1020;&#x1039;&#x1020;" horiz-adv-x="1128" d="M102 -86l142 88q141 -102 327 -102q139 0 256 59v115q-111 -72 -252 -72q-195 0 -329 135q-35 35 -60 72q-74 111 -77 258q0 195 136 331t330 136q193 0 328 -137q49 -49 80 -105l-119 -110q-25 57 -71 104q-90 92 -218 92q-129 0 -219 -91t-90 -220q0 -125 90 -217 t219 -92q127 0 218 92q47 49 71 106l119 -112v-381l-51 -33q-160 -88 -359 -88q-172 0 -315 70v-459h545q20 6 39 22q27 25 26 62q0 41 -27.5 65.5t-58.5 24.5h-16l-47 141q31 8 65 8q98 0 170 -69.5t72 -169.5q0 -102 -71.5 -172t-170.5 -70q-16 0 -32 2h-650v717z M307 -420q0 29 15.5 56.5t42.5 50.5q53 41 127 41q78 0 131 -41q4 -4 14 -10.5t18.5 -12.5t12.5 -12t-4 -12l-72 -48q-16 25 -33 35q-23 25 -67 25q-39 0 -66 -21.5t-27 -50.5t27 -48t66 -19q23 0 40 6t27 14l15.5 15.5t15.5 27.5l67 -45q-2 -2 -2 -6v-82h72v-78h-149v84 q-6 0 -11 -4q-16 -6 -34.5 -7t-40.5 -1q-74 0 -134 41q-10 6 -20 20q-29 37 -31 82z" />
<glyph unicode="&#x1051;&#x1039;&#x100d;" horiz-adv-x="1136" d="M102 467q0 193 134 350q88 84 196 117l57 -148q-82 -20 -143 -81q-88 -113 -88 -238q0 -129 91 -220t218 -91q129 0 219.5 91t90.5 220q0 125 -93 238q-59 61 -139 81l55 148q109 -33 195 -117q139 -158 139 -350q0 -195 -137 -331t-330 -136q-195 0 -330 136t-135 331z M145 -137l103 125l53 -29q117 -59 256 -59q186 0 326 102l141 -88v-621h168v-155h-320l-4 674q-141 -70 -313 -70q-199 0 -358 88zM475 455q0 39 26.5 63.5t61.5 24.5q33 0 59.5 -24.5t26.5 -63.5q0 -35 -26.5 -59.5t-59.5 -24.5q-35 0 -61.5 24.5t-26.5 59.5z" />
<glyph unicode="&#x1051;&#x1039;&#x100c;" horiz-adv-x="1136" d="M102 467q0 193 134 350q88 84 196 117l57 -148q-82 -20 -143 -81q-88 -113 -88 -238q0 -129 91 -220t218 -91q129 0 219.5 91t90.5 220q0 125 -93 238q-59 61 -139 81l55 148q109 -33 195 -117q139 -158 139 -350q0 -195 -137 -331t-330 -136q-195 0 -330 136t-135 331z M102 -563q0 100 72 169.5t170 69.5q35 0 66 -8l-48 -141h-16q-31 0 -58.5 -24.5t-27.5 -65.5q0 -37 27 -62q18 -16 39 -22h39h505v459q-143 -70 -315 -70q-199 0 -358 88l-52 33l99 135l57 -39q117 -59 256 -59q186 0 328 102l141 -88v-717h-649q-16 -2 -33 -2 q-98 0 -170 69.5t-72 172.5zM475 455q0 39 26.5 63.5t61.5 24.5q33 0 59.5 -24.5t26.5 -63.5q0 -35 -26.5 -59.5t-59.5 -24.5q-35 0 -61.5 24.5t-26.5 59.5z" />
<glyph unicode="&#x1081;&#x1030;" horiz-adv-x="1134" d="M-113 -606l88 127l232 -170l323 649q-45 0 -86 16q-117 29 -206 119q-135 137 -136 332q0 193 135.5 329t329.5 136q193 0 329 -136.5t136 -328.5q0 -109 -43 -199l-133 88q18 51 18 111q0 125 -89 217t-218 92q-127 0 -218 -92t-91 -217q0 -92 45 -164q16 59 64 107 q72 70 170 69q98 0 168.5 -69.5t70.5 -169.5q0 -74 -35 -129l-491 -969zM446 233q0 -39 31 -66.5t66 -27.5q39 0 69.5 28t30.5 66q0 47 -30.5 75t-69.5 28q-35 0 -66 -27.5t-31 -75.5zM670 -78h153v-784h-153v784zM924 -78h153v-647h183v-137h-336v784z" />
<glyph unicode="&#x1081;&#x103d;" horiz-adv-x="1134" d="M-113 -594l88 127l232 -170l323 637q-45 0 -86 16q-117 29 -206 119q-135 137 -136 332q0 193 135.5 329t329.5 136q193 0 329 -136.5t136 -328.5q0 -109 -43 -199l-133 88q18 51 18 111q0 125 -89 217t-218 92q-127 0 -218 -92t-91 -217q0 -92 45 -164q16 59 64 107 q72 70 170 69q98 0 168.5 -69.5t70.5 -169.5q0 -74 -35 -129l-491 -957zM446 233q0 -39 31 -66.5t66 -27.5q39 0 69.5 28t30.5 66q0 47 -30.5 75t-69.5 28q-35 0 -66 -27.5t-31 -75.5zM518 -442q0 -84 32 -158t86 -129t127 -87t157 -32t157.5 32t129 87t87 129t31.5 158 t-31.5 157.5t-87 128t-129 86t-157.5 31.5t-157 -31.5t-127 -86t-86 -128t-32 -157.5zM668 -446q0 51 20.5 97t54 81t79.5 54t100 19q51 0 97 -19t81 -54t54.5 -81t19.5 -97q0 -53 -19.5 -99.5t-54.5 -80t-81 -54t-97 -20.5q-53 0 -99.5 20.5t-80 54t-54 80t-20.5 99.5z" />
<glyph unicode="&#x1081;&#x1082;" horiz-adv-x="1134" d="M-113 -594l88 127l232 -170l323 637q-45 0 -86 16q-117 29 -206 119q-135 137 -136 332q0 193 135.5 329t329.5 136q193 0 329 -136.5t136 -328.5q0 -109 -43 -199l-133 88q18 51 18 111q0 125 -89 217t-218 92q-127 0 -218 -92t-91 -217q0 -92 45 -164q16 59 64 107 q72 70 170 69q98 0 168.5 -69.5t70.5 -169.5q0 -74 -35 -129l-491 -957zM446 233q0 -39 31 -66.5t66 -27.5q39 0 69.5 28t30.5 66q0 47 -30.5 75t-69.5 28q-35 0 -66 -27.5t-31 -75.5zM541 -442q0 -84 31.5 -158t86 -129t127 -87t156.5 -32t158 32t129 87t87 129t32 158 l-152 -4q0 -53 -19.5 -99.5t-54.5 -80t-81 -54t-97 -20.5q-53 0 -99 20.5t-80 54t-54.5 79.5t-20.5 100q0 51 20.5 97t54.5 81t80 54t99 19l-2 156q-84 0 -156.5 -31.5t-127 -86t-86 -128t-31.5 -157.5z" />
<glyph unicode="&#x1062;&#x103a;" horiz-adv-x="1630" d="M102 471q0 39 33 53q14 6 27 6q39 0 53 -32q6 -12 6 -27q0 -39 -33 -53q-14 -6 -26 -6q-39 0 -53 32q-7 13 -7 27zM160 258q0 39 35 53q12 6 24 6q39 0 55 -32q6 -14 7 -27q0 -39 -35 -53q-12 -6 -27 -6q-37 0 -53 32q-6 13 -6 27zM160 684q0 39 35 53q12 6 24 6 q39 0 55 -32q6 -12 7 -27q0 -39 -35 -53q-12 -6 -27 -6q-37 0 -53 32q-6 13 -6 27zM317 102q0 37 33 54q12 6 27 6q39 0 53 -35q6 -12 6 -25q0 -39 -33 -55q-12 -4 -26 -4q-39 0 -53 33q-7 12 -7 26zM317 840q0 39 33 55q12 4 27 4q39 0 53 -33q6 -12 6 -26q0 -37 -33 -54 q-12 -6 -26 -6q-39 0 -53 33q-7 13 -7 27zM530 45q0 39 35 53q12 6 27 6q37 0 53 -32q6 -14 6 -27q0 -39 -35 -53q-12 -6 -24 -6q-39 0 -55 32q-7 13 -7 27zM530 897q0 39 35 53q12 6 27 6q37 0 53 -32q6 -12 6 -27q0 -39 -35 -53q-12 -6 -24 -6q-39 0 -55 32q-7 13 -7 27z M745 102q0 37 33 54q12 6 27 6q39 0 53 -35q6 -12 6 -25q0 -39 -33 -55q-12 -4 -26 -4q-39 0 -53 33q-7 12 -7 26zM745 840q0 39 33 55q12 4 27 4q39 0 53 -33q6 -12 6 -26q0 -37 -33 -54q-12 -6 -26 -6q-39 0 -53 33q-7 13 -7 27zM901 258q0 39 35 53q12 6 27 6 q37 0 53 -32q6 -14 6 -27q0 -39 -35 -53q-10 -6 -24 -6q-39 0 -56 32q-6 13 -6 27zM901 684q0 39 35 53q12 6 27 6q37 0 53 -32q6 -12 6 -27q0 -39 -35 -53q-10 -6 -24 -6q-39 0 -56 32q-6 13 -6 27zM961 471q0 37 32 53q12 6 27 6q39 0 53 -32q6 -12 6 -27q0 -39 -32 -53 q-14 -6 -27 -6q-39 0 -53 32q-6 13 -6 27zM1018 1364q0 150 106.5 257.5t259.5 107.5q150 0 256.5 -108t106.5 -257l-158 -2q0 84 -60.5 146.5t-146.5 62.5q-88 0 -148 -62.5t-60 -146.5q0 -86 60 -148.5t148 -62.5l2 -154q-154 0 -260 107.5t-106 259.5zM1180 778v156h348 v-934h-160v778h-188z" />
<glyph unicode="&#x1004;&#x103a;&#x1039;" horiz-adv-x="1181" d="M102 471q0 39 33 53q14 6 27 6q39 0 53 -32q6 -12 6 -27q0 -39 -33 -53q-14 -6 -26 -6q-39 0 -53 32q-7 13 -7 27zM160 258q0 39 35 53q12 6 24 6q39 0 55 -32q6 -14 7 -27q0 -39 -35 -53q-12 -6 -27 -6q-37 0 -53 32q-6 13 -6 27zM160 684q0 39 35 53q12 6 24 6 q39 0 55 -32q6 -12 7 -27q0 -39 -35 -53q-12 -6 -27 -6q-37 0 -53 32q-6 13 -6 27zM317 102q0 37 33 54q12 6 27 6q39 0 53 -35q6 -12 6 -25q0 -39 -33 -55q-12 -4 -26 -4q-39 0 -53 33q-7 12 -7 26zM317 840q0 39 33 55q12 4 27 4q39 0 53 -33q6 -12 6 -26q0 -37 -33 -54 q-12 -6 -26 -6q-39 0 -53 33q-7 13 -7 27zM354 1233q0 119 92 188q-18 25 -32.5 57.5t-14.5 63.5q0 39 15.5 73t41 59.5t59.5 40t71 14.5q76 0 121 -41q23 -29 41 -62t28 -72l-153 -36q0 43 -15 53h2q-4 2 -10 4t-16 2q-14 0 -24.5 -11.5t-10.5 -23.5q0 -8 7 -20.5 t17.5 -23.5t22.5 -19.5t25 -8.5h88l2 -139h-88q-18 0 -40 -9t-39.5 -23.5t-28.5 -33t-11 -36.5q0 -33 23.5 -58.5t58.5 -25.5q39 0 57 22q10 12 19.5 29.5t13.5 40.5l143 -31q-14 -76 -51 -121q-33 -39 -81 -62.5t-101 -23.5q-47 0 -89 18.5t-74 50.5t-50.5 74t-18.5 91z M530 45q0 39 35 53q12 6 27 6q37 0 53 -32q6 -14 6 -27q0 -39 -35 -53q-12 -6 -24 -6q-39 0 -55 32q-7 13 -7 27zM530 897q0 39 35 53q12 6 27 6q37 0 53 -32q6 -12 6 -27q0 -39 -35 -53q-12 -6 -24 -6q-39 0 -55 32q-7 13 -7 27zM745 102q0 37 33 54q12 6 27 6q39 0 53 -35 q6 -12 6 -25q0 -39 -33 -55q-12 -4 -26 -4q-39 0 -53 33q-7 12 -7 26zM745 840q0 39 33 55q12 4 27 4q39 0 53 -33q6 -12 6 -26q0 -37 -33 -54q-12 -6 -26 -6q-39 0 -53 33q-7 13 -7 27zM901 258q0 39 35 53q12 6 27 6q37 0 53 -32q6 -14 6 -27q0 -39 -35 -53q-10 -6 -24 -6 q-39 0 -56 32q-6 13 -6 27zM901 684q0 39 35 53q12 6 27 6q37 0 53 -32q6 -12 6 -27q0 -39 -35 -53q-10 -6 -24 -6q-39 0 -56 32q-6 13 -6 27zM961 471q0 37 32 53q12 6 27 6q39 0 53 -32q6 -12 6 -27q0 -39 -32 -53q-14 -6 -27 -6q-39 0 -53 32q-6 13 -6 27z" />
<glyph unicode="&#x102d;&#x1036;" horiz-adv-x="1181" d="M102 471q0 39 33 53q14 6 27 6q39 0 53 -32q6 -12 6 -27q0 -39 -33 -53q-14 -6 -26 -6q-39 0 -53 32q-7 13 -7 27zM160 258q0 39 35 53q12 6 24 6q39 0 55 -32q6 -14 7 -27q0 -39 -35 -53q-12 -6 -27 -6q-37 0 -53 32q-6 13 -6 27zM160 684q0 39 35 53q12 6 24 6 q39 0 55 -32q6 -12 7 -27q0 -39 -35 -53q-12 -6 -27 -6q-37 0 -53 32q-6 13 -6 27zM219 1364q0 150 106.5 257.5t260.5 107.5q150 0 256 -107.5t106 -257.5q0 -152 -106.5 -259.5t-255.5 -107.5q-154 0 -260.5 107.5t-106.5 259.5zM317 102q0 37 33 54q12 6 27 6 q39 0 53 -35q6 -12 6 -25q0 -39 -33 -55q-12 -4 -26 -4q-39 0 -53 33q-7 12 -7 26zM317 840q0 39 33 55q12 4 27 4q39 0 53 -33q6 -12 6 -26q0 -37 -33 -54q-12 -6 -26 -6q-39 0 -53 33q-7 13 -7 27zM375 1362q0 -86 60.5 -148.5t148.5 -62.5q86 0 146.5 62.5t60.5 148.5 q0 84 -60.5 146.5t-146.5 62.5q-88 0 -148.5 -62.5t-60.5 -146.5zM530 45q0 39 35 53q12 6 27 6q37 0 53 -32q6 -14 6 -27q0 -39 -35 -53q-12 -6 -24 -6q-39 0 -55 32q-7 13 -7 27zM530 897q0 39 35 53q12 6 27 6q37 0 53 -32q6 -12 6 -27q0 -39 -35 -53q-12 -6 -24 -6 q-39 0 -55 32q-7 13 -7 27zM745 102q0 37 33 54q12 6 27 6q39 0 53 -35q6 -12 6 -25q0 -39 -33 -55q-12 -4 -26 -4q-39 0 -53 33q-7 12 -7 26zM745 840q0 39 33 55q12 4 27 4q39 0 53 -33q6 -12 6 -26q0 -37 -33 -54q-12 -6 -26 -6q-39 0 -53 33q-7 13 -7 27zM901 258 q0 39 35 53q12 6 27 6q37 0 53 -32q6 -14 6 -27q0 -39 -35 -53q-10 -6 -24 -6q-39 0 -56 32q-6 13 -6 27zM901 684q0 39 35 53q12 6 27 6q37 0 53 -32q6 -12 6 -27q0 -39 -35 -53q-10 -6 -24 -6q-39 0 -56 32q-6 13 -6 27zM961 471q0 37 32 53q12 6 27 6q39 0 53 -32 q6 -12 6 -27q0 -39 -32 -53q-14 -6 -27 -6q-39 0 -53 32q-6 13 -6 27zM1018 1360q0 86 60.5 147.5t146.5 61.5q84 0 143 -61.5t59 -147.5q0 -84 -59 -144.5t-143 -60.5q-86 0 -146.5 60.5t-60.5 144.5zM1139 1360q0 -35 24.5 -60.5t61.5 -25.5q35 0 61.5 25.5t26.5 60.5 q0 39 -26.5 63.5t-61.5 24.5q-37 0 -61.5 -24.5t-24.5 -63.5z" />
<glyph unicode="&#x103a;&#x103a;" horiz-adv-x="1181" d="M102 471q0 39 33 53q14 6 27 6q39 0 53 -32q6 -12 6 -27q0 -39 -33 -53q-14 -6 -26 -6q-39 0 -53 32q-7 13 -7 27zM113 1436q47 119 148 190.5t245 87.5q16 2 33.5 3t33.5 1q184 0 330 -86q182 -117 205 -379h-147q-29 166 -148 255t-311 102q-76 -2 -147 -18.5 t-122 -47.5q-53 -39 -104 -119zM133 1251q0 88 62 166q20 25 41 41q51 43 115.5 66.5t142.5 23.5q80 0 146.5 -19.5t125.5 -58.5q113 -76 113 -194v-25l-140 2q0 55 -63 105q-61 57 -166 61q-25 0 -52.5 -3t-58.5 -13q-63 -20 -86 -57q-31 -43 -30 -78q0 -35 19.5 -70 t41.5 -45q25 -10 69 -25.5t97 -17.5v-127q-78 2 -144.5 23.5t-117.5 56.5q-53 41 -84 88t-31 100zM160 258q0 39 35 53q12 6 24 6q39 0 55 -32q6 -14 7 -27q0 -39 -35 -53q-12 -6 -27 -6q-37 0 -53 32q-6 13 -6 27zM160 684q0 39 35 53q12 6 24 6q39 0 55 -32q6 -12 7 -27 q0 -39 -35 -53q-12 -6 -27 -6q-37 0 -53 32q-6 13 -6 27zM317 102q0 37 33 54q12 6 27 6q39 0 53 -35q6 -12 6 -25q0 -39 -33 -55q-12 -4 -26 -4q-39 0 -53 33q-7 12 -7 26zM317 840q0 39 33 55q12 4 27 4q39 0 53 -33q6 -12 6 -26q0 -37 -33 -54q-12 -6 -26 -6 q-39 0 -53 33q-7 13 -7 27zM530 45q0 39 35 53q12 6 27 6q37 0 53 -32q6 -14 6 -27q0 -39 -35 -53q-12 -6 -24 -6q-39 0 -55 32q-7 13 -7 27zM530 897q0 39 35 53q12 6 27 6q37 0 53 -32q6 -12 6 -27q0 -39 -35 -53q-12 -6 -24 -6q-39 0 -55 32q-7 13 -7 27zM745 102 q0 37 33 54q12 6 27 6q39 0 53 -35q6 -12 6 -25q0 -39 -33 -55q-12 -4 -26 -4q-39 0 -53 33q-7 12 -7 26zM745 840q0 39 33 55q12 4 27 4q39 0 53 -33q6 -12 6 -26q0 -37 -33 -54q-12 -6 -26 -6q-39 0 -53 33q-7 13 -7 27zM901 258q0 39 35 53q12 6 27 6q37 0 53 -32 q6 -14 6 -27q0 -39 -35 -53q-10 -6 -24 -6q-39 0 -56 32q-6 13 -6 27zM901 684q0 39 35 53q12 6 27 6q37 0 53 -32q6 -12 6 -27q0 -39 -35 -53q-10 -6 -24 -6q-39 0 -56 32q-6 13 -6 27zM961 471q0 37 32 53q12 6 27 6q39 0 53 -32q6 -12 6 -27q0 -39 -32 -53q-14 -6 -27 -6 q-39 0 -53 32q-6 13 -6 27z" />
<glyph unicode="&#x101b;&#x103a;&#x1039;" horiz-adv-x="1181" d="M102 471q0 39 33 53q14 6 27 6q39 0 53 -32q6 -12 6 -27q0 -39 -33 -53q-14 -6 -26 -6q-39 0 -53 32q-7 13 -7 27zM160 258q0 39 35 53q12 6 24 6q39 0 55 -32q6 -14 7 -27q0 -39 -35 -53q-12 -6 -27 -6q-37 0 -53 32q-6 13 -6 27zM160 684q0 39 35 53q12 6 24 6 q39 0 55 -32q6 -12 7 -27q0 -39 -35 -53q-12 -6 -27 -6q-37 0 -53 32q-6 13 -6 27zM229 1362q0 74 27 138.5t76 117.5q109 109 262 108q72 0 139.5 -27.5t116.5 -76.5q55 -53 83 -120.5t23 -139.5v-105h-149v105q0 80 -66 145h2q-33 31 -68.5 47.5t-80.5 16.5 q-82 0 -150 -64q-59 -66 -59 -145q0 -43 10 -74q14 23 33 45q59 59 143 60q41 0 78 -16.5t64.5 -44t43 -63.5t15.5 -77q0 -43 -15.5 -80t-43 -62.5t-64.5 -41t-78 -15.5q-43 0 -73 13h2q-96 25 -166 94q-104 104 -105 262zM317 102q0 37 33 54q12 6 27 6q39 0 53 -35 q6 -12 6 -25q0 -39 -33 -55q-12 -4 -26 -4q-39 0 -53 33q-7 12 -7 26zM317 840q0 39 33 55q12 4 27 4q39 0 53 -33q6 -12 6 -26q0 -37 -33 -54q-12 -6 -26 -6q-39 0 -53 33q-7 13 -7 27zM526 1188q0 -18 16.5 -33.5t32.5 -15.5q20 0 38 15t18 34q0 27 -18 42t-38 15 q-16 0 -32.5 -15.5t-16.5 -41.5zM530 45q0 39 35 53q12 6 27 6q37 0 53 -32q6 -14 6 -27q0 -39 -35 -53q-12 -6 -24 -6q-39 0 -55 32q-7 13 -7 27zM530 897q0 39 35 53q12 6 27 6q37 0 53 -32q6 -12 6 -27q0 -39 -35 -53q-12 -6 -24 -6q-39 0 -55 32q-7 13 -7 27zM745 102 q0 37 33 54q12 6 27 6q39 0 53 -35q6 -12 6 -25q0 -39 -33 -55q-12 -4 -26 -4q-39 0 -53 33q-7 12 -7 26zM745 840q0 39 33 55q12 4 27 4q39 0 53 -33q6 -12 6 -26q0 -37 -33 -54q-12 -6 -26 -6q-39 0 -53 33q-7 13 -7 27zM901 258q0 39 35 53q12 6 27 6q37 0 53 -32 q6 -14 6 -27q0 -39 -35 -53q-10 -6 -24 -6q-39 0 -56 32q-6 13 -6 27zM901 684q0 39 35 53q12 6 27 6q37 0 53 -32q6 -12 6 -27q0 -39 -35 -53q-10 -6 -24 -6q-39 0 -56 32q-6 13 -6 27zM961 471q0 37 32 53q12 6 27 6q39 0 53 -32q6 -12 6 -27q0 -39 -32 -53q-14 -6 -27 -6 q-39 0 -53 32q-6 13 -6 27z" />
<glyph unicode="&#x1039;&#x1010;&#x103d;" horiz-adv-x="1181" d="M102 471q0 39 33 53q14 6 27 6q39 0 53 -32q6 -12 6 -27q0 -39 -33 -53q-14 -6 -26 -6q-39 0 -53 32q-7 13 -7 27zM104 -301q0 117 78 195q80 74 191 73q59 0 104 -19.5t86 -53.5l10 -9v-6l13 15q74 74 188 73q57 0 103.5 -19.5t87.5 -53.5q41 -41 58 -90.5t17 -104.5 q0 -57 -17 -104.5t-58 -88.5l-31 -24q43 -55 43 -129q0 -84 -59.5 -144.5t-143.5 -60.5q-86 0 -146.5 60.5t-60.5 144.5q0 86 60.5 147.5t146.5 63.5h8q25 2 48.5 13t41.5 28q37 41 37 94q0 29 -11 52.5t-28 41.5v-2q-43 43 -96 43t-92 -39q-18 -20 -30.5 -43.5t-12.5 -52.5 q0 -57 -17.5 -104.5t-58.5 -88.5q-41 -35 -86 -54t-104 -19q-53 0 -102.5 18.5t-88.5 54.5q-78 78 -78 193zM160 258q0 39 35 53q12 6 24 6q39 0 55 -32q6 -14 7 -27q0 -39 -35 -53q-12 -6 -27 -6q-37 0 -53 32q-6 13 -6 27zM160 684q0 39 35 53q12 6 24 6q39 0 55 -32 q6 -12 7 -27q0 -39 -35 -53q-12 -6 -27 -6q-37 0 -53 32q-6 13 -6 27zM238 -301q0 -29 11 -52.5t30 -41.5q20 -16 42.5 -28.5t51.5 -12.5t52.5 12t41.5 31v-2q16 18 27.5 41.5t11.5 52.5t-11.5 51.5t-27.5 42.5v-2q-43 43 -94 43q-53 0 -92 -37q-20 -23 -31.5 -46t-11.5 -52 zM317 102q0 37 33 54q12 6 27 6q39 0 53 -35q6 -12 6 -25q0 -39 -33 -55q-12 -4 -26 -4q-39 0 -53 33q-7 12 -7 26zM317 840q0 39 33 55q12 4 27 4q39 0 53 -33q6 -12 6 -26q0 -37 -33 -54q-12 -6 -26 -6q-39 0 -53 33q-7 13 -7 27zM530 45q0 39 35 53q12 6 27 6 q37 0 53 -32q6 -14 6 -27q0 -39 -35 -53q-12 -6 -24 -6q-39 0 -55 32q-7 13 -7 27zM530 897q0 39 35 53q12 6 27 6q37 0 53 -32q6 -12 6 -27q0 -39 -35 -53q-12 -6 -24 -6q-39 0 -55 32q-7 13 -7 27zM688 -647q0 -35 24.5 -60.5t61.5 -25.5q35 0 61.5 25.5t26.5 60.5 q0 39 -26.5 63.5t-61.5 24.5q-37 0 -61.5 -24.5t-24.5 -63.5zM745 102q0 37 33 54q12 6 27 6q39 0 53 -35q6 -12 6 -25q0 -39 -33 -55q-12 -4 -26 -4q-39 0 -53 33q-7 12 -7 26zM745 840q0 39 33 55q12 4 27 4q39 0 53 -33q6 -12 6 -26q0 -37 -33 -54q-12 -6 -26 -6 q-39 0 -53 33q-7 13 -7 27zM901 258q0 39 35 53q12 6 27 6q37 0 53 -32q6 -14 6 -27q0 -39 -35 -53q-10 -6 -24 -6q-39 0 -56 32q-6 13 -6 27zM901 684q0 39 35 53q12 6 27 6q37 0 53 -32q6 -12 6 -27q0 -39 -35 -53q-10 -6 -24 -6q-39 0 -56 32q-6 13 -6 27zM961 471 q0 37 32 53q12 6 27 6q39 0 53 -32q6 -12 6 -27q0 -39 -32 -53q-14 -6 -27 -6q-39 0 -53 32q-6 13 -6 27z" />
<glyph unicode="&#x103e;&#x102d;&#x102f;" d="M-948 -725h184v647h154v-784h-338v137zM-934 1364q0 150 106.5 257.5t260.5 107.5q150 0 256 -107.5t106 -257.5q0 -152 -106.5 -259.5t-255.5 -107.5q-154 0 -260.5 107.5t-106.5 259.5zM-784 1362q0 -86 60 -148.5t149 -62.5q86 0 146 62.5t60 148.5q0 84 -60 146.5 t-146 62.5q-88 0 -148.5 -62.5t-60.5 -146.5zM-510 -78h154v-647h182v-137h-336v784z" />
<glyph unicode="&#x103e;&#x103a;" d="M-905 1364q0 150 106.5 257.5t259.5 107.5q150 0 256.5 -108t106.5 -257l-158 -2q0 84 -60.5 146.5t-146.5 62.5q-88 0 -148.5 -62.5t-60.5 -146.5q0 -86 60.5 -148.5t148.5 -62.5l2 -154q-154 0 -260 107.5t-106 259.5zM-829 -725h184v647h151v-784h-335v137z" />
<glyph unicode="&#x103b;&#x103d;" horiz-adv-x="1447" d="M102 471q0 39 33 53q14 6 27 6q39 0 53 -32q6 -12 6 -27q0 -39 -33 -53q-14 -6 -26 -6q-39 0 -53 32q-7 13 -7 27zM160 258q0 39 35 53q12 6 24 6q39 0 55 -32q6 -14 7 -27q0 -39 -35 -53q-12 -6 -27 -6q-37 0 -53 32q-6 13 -6 27zM160 684q0 39 35 53q12 6 24 6 q39 0 55 -32q6 -12 7 -27q0 -39 -35 -53q-12 -6 -27 -6q-37 0 -53 32q-6 13 -6 27zM190 -455q0 -84 32 -157.5t86 -129t127 -87t157 -31.5t157.5 31.5t129 87t87 129t31.5 157.5t-31.5 158t-87 128t-129 86t-157.5 32t-157 -32t-127 -86t-86 -128t-32 -158zM317 102 q0 37 33 54q12 6 27 6q39 0 53 -35q6 -12 6 -25q0 -39 -33 -55q-12 -4 -26 -4q-39 0 -53 33q-7 12 -7 26zM317 840q0 39 33 55q12 4 27 4q39 0 53 -33q6 -12 6 -26q0 -37 -33 -54q-12 -6 -26 -6q-39 0 -53 33q-7 13 -7 27zM340 -459q0 51 20.5 97.5t54.5 81t80 54t99 19.5 q51 0 97 -19.5t81 -54t54.5 -81t19.5 -97.5q0 -53 -19.5 -99t-54.5 -80t-81 -54.5t-97 -20.5q-53 0 -99 20.5t-80 54.5t-54.5 80t-20.5 99zM530 45q0 39 35 53q12 6 27 6q37 0 53 -32q6 -14 6 -27q0 -39 -35 -53q-12 -6 -24 -6q-39 0 -55 32q-7 13 -7 27zM530 897 q0 39 35 53q12 6 27 6q37 0 53 -32q6 -12 6 -27q0 -39 -35 -53q-12 -6 -24 -6q-39 0 -55 32q-7 13 -7 27zM745 102q0 37 33 54q12 6 27 6q39 0 53 -35q6 -12 6 -25q0 -39 -33 -55q-12 -4 -26 -4q-39 0 -53 33q-7 12 -7 26zM745 840q0 39 33 55q12 4 27 4q39 0 53 -33 q6 -12 6 -26q0 -37 -33 -54q-12 -6 -26 -6q-39 0 -53 33q-7 13 -7 27zM805 -731l446 -121q6 -6 33 -6q61 0 62 70v1728h-140v-1632l-307 80zM901 258q0 39 35 53q12 6 27 6q37 0 53 -32q6 -14 6 -27q0 -39 -35 -53q-10 -6 -24 -6q-39 0 -56 32q-6 13 -6 27zM901 684 q0 39 35 53q12 6 27 6q37 0 53 -32q6 -12 6 -27q0 -39 -35 -53q-10 -6 -24 -6q-39 0 -56 32q-6 13 -6 27zM961 471q0 37 32 53q12 6 27 6q39 0 53 -32q6 -12 6 -27q0 -39 -32 -53q-14 -6 -27 -6q-39 0 -53 32q-6 13 -6 27z" />
<glyph unicode="&#x103b;&#x103e;" horiz-adv-x="1447" d="M102 471q0 39 33 53q14 6 27 6q39 0 53 -32q6 -12 6 -27q0 -39 -33 -53q-14 -6 -26 -6q-39 0 -53 32q-7 13 -7 27zM160 258q0 39 35 53q12 6 24 6q39 0 55 -32q6 -14 7 -27q0 -39 -35 -53q-12 -6 -27 -6q-37 0 -53 32q-6 13 -6 27zM160 684q0 39 35 53q12 6 24 6 q39 0 55 -32q6 -12 7 -27q0 -39 -35 -53q-12 -6 -27 -6q-37 0 -53 32q-6 13 -6 27zM281.5 -486.5q-27.5 97.5 25.5 185.5l131 -76l-4 -6q-18 -33 -6 -74t41 -57q35 -18 75 -10t62 41l152 256l26 -219l-53 -91l-6 -10q-53 -88 -149.5 -111.5t-182.5 25.5q-84 49 -111.5 146.5 zM317 102q0 37 33 54q12 6 27 6q39 0 53 -35q6 -12 6 -25q0 -39 -33 -55q-12 -4 -26 -4q-39 0 -53 33q-7 12 -7 26zM317 840q0 39 33 55q12 4 27 4q39 0 53 -33q6 -12 6 -26q0 -37 -33 -54q-12 -6 -26 -6q-39 0 -53 33q-7 13 -7 27zM530 45q0 39 35 53q12 6 27 6 q37 0 53 -32q6 -14 6 -27q0 -39 -35 -53q-12 -6 -24 -6q-39 0 -55 32q-7 13 -7 27zM530 897q0 39 35 53q12 6 27 6q37 0 53 -32q6 -12 6 -27q0 -39 -35 -53q-12 -6 -24 -6q-39 0 -55 32q-7 13 -7 27zM745 102q0 37 33 54q12 6 27 6q39 0 53 -35q6 -12 6 -25q0 -39 -33 -55 q-12 -4 -26 -4q-39 0 -53 33q-7 12 -7 26zM745 840q0 39 33 55q12 4 27 4q39 0 53 -33q6 -12 6 -26q0 -37 -33 -54q-12 -6 -26 -6q-39 0 -53 33q-7 13 -7 27zM756 -70h143v-542l307 -80v1626h140v-1722q0 -70 -62 -70q-27 0 -33 6l-446 121q-49 12 -49 65v596zM901 258 q0 39 35 53q12 6 27 6q37 0 53 -32q6 -14 6 -27q0 -39 -35 -53q-10 -6 -24 -6q-39 0 -56 32q-6 13 -6 27zM901 684q0 39 35 53q12 6 27 6q37 0 53 -32q6 -12 6 -27q0 -39 -35 -53q-10 -6 -24 -6q-39 0 -56 32q-6 13 -6 27zM961 471q0 37 32 53q12 6 27 6q39 0 53 -32 q6 -12 6 -27q0 -39 -32 -53q-14 -6 -27 -6q-39 0 -53 32q-6 13 -6 27z" />
<glyph unicode="&#x103b;&#x103d;&#x103e;" horiz-adv-x="1447" d="M-218 -486.5q28 -97.5 112 -146.5q86 -49 182 -25.5t149 111.5l6 10l54 91l-27 219l-152 -256q-23 -33 -62.5 -41t-74.5 10q-29 16 -41 57t6 74l5 6l-132 76q-53 -88 -25 -185.5zM102 471q0 39 33 53q14 6 27 6q39 0 53 -32q6 -12 6 -27q0 -39 -33 -53q-14 -6 -26 -6 q-39 0 -53 32q-7 13 -7 27zM160 258q0 39 35 53q12 6 24 6q39 0 55 -32q6 -14 7 -27q0 -39 -35 -53q-12 -6 -27 -6q-37 0 -53 32q-6 13 -6 27zM160 684q0 39 35 53q12 6 24 6q39 0 55 -32q6 -12 7 -27q0 -39 -35 -53q-12 -6 -27 -6q-37 0 -53 32q-6 13 -6 27zM190 -455 q0 -84 32 -157.5t86 -129t127 -87t157 -31.5t157.5 31.5t129 87t87 129t31.5 157.5t-31.5 158t-87 128t-129 86t-157.5 32t-157 -32t-127 -86t-86 -128t-32 -158zM317 102q0 37 33 54q12 6 27 6q39 0 53 -35q6 -12 6 -25q0 -39 -33 -55q-12 -4 -26 -4q-39 0 -53 33 q-7 12 -7 26zM317 840q0 39 33 55q12 4 27 4q39 0 53 -33q6 -12 6 -26q0 -37 -33 -54q-12 -6 -26 -6q-39 0 -53 33q-7 13 -7 27zM340 -459q0 51 20.5 97.5t54.5 81t80 54t99 19.5q51 0 97 -19.5t81 -54t54.5 -81t19.5 -97.5q0 -53 -19.5 -99t-54.5 -80t-81 -54.5t-97 -20.5 q-53 0 -99 20.5t-80 54.5t-54.5 80t-20.5 99zM530 45q0 39 35 53q12 6 27 6q37 0 53 -32q6 -14 6 -27q0 -39 -35 -53q-12 -6 -24 -6q-39 0 -55 32q-7 13 -7 27zM530 897q0 39 35 53q12 6 27 6q37 0 53 -32q6 -12 6 -27q0 -39 -35 -53q-12 -6 -24 -6q-39 0 -55 32 q-7 13 -7 27zM745 102q0 37 33 54q12 6 27 6q39 0 53 -35q6 -12 6 -25q0 -39 -33 -55q-12 -4 -26 -4q-39 0 -53 33q-7 12 -7 26zM745 840q0 39 33 55q12 4 27 4q39 0 53 -33q6 -12 6 -26q0 -37 -33 -54q-12 -6 -26 -6q-39 0 -53 33q-7 13 -7 27zM805 -731l446 -121 q6 -6 33 -6q61 0 62 70v1728h-140v-1632l-307 80zM901 258q0 39 35 53q12 6 27 6q37 0 53 -32q6 -14 6 -27q0 -39 -35 -53q-10 -6 -24 -6q-39 0 -56 32q-6 13 -6 27zM901 684q0 39 35 53q12 6 27 6q37 0 53 -32q6 -12 6 -27q0 -39 -35 -53q-10 -6 -24 -6q-39 0 -56 32 q-6 13 -6 27zM961 471q0 37 32 53q12 6 27 6q39 0 53 -32q6 -12 6 -27q0 -39 -32 -53q-14 -6 -27 -6q-39 0 -53 32q-6 13 -6 27z" />
<glyph unicode="&#x103d;&#x103e;" horiz-adv-x="1181" d="M-218 -486.5q28 -97.5 112 -146.5q86 -49 182 -25.5t149 111.5l6 10l54 91l-27 219l-152 -256q-23 -33 -62.5 -41t-74.5 10q-29 16 -41 57t6 74l5 6l-132 76q-53 -88 -25 -185.5zM102 471q0 39 33 53q14 6 27 6q39 0 53 -32q6 -12 6 -27q0 -39 -33 -53q-14 -6 -26 -6 q-39 0 -53 32q-7 13 -7 27zM160 258q0 39 35 53q12 6 24 6q39 0 55 -32q6 -14 7 -27q0 -39 -35 -53q-12 -6 -27 -6q-37 0 -53 32q-6 13 -6 27zM160 684q0 39 35 53q12 6 24 6q39 0 55 -32q6 -12 7 -27q0 -39 -35 -53q-12 -6 -27 -6q-37 0 -53 32q-6 13 -6 27zM190 -455 q0 -84 32 -157.5t86 -129t127 -87t157 -31.5t157.5 31.5t129 87t87 129t31.5 157.5t-31.5 158t-87 128t-129 86t-157.5 32t-157 -32t-127 -86t-86 -128t-32 -158zM317 102q0 37 33 54q12 6 27 6q39 0 53 -35q6 -12 6 -25q0 -39 -33 -55q-12 -4 -26 -4q-39 0 -53 33 q-7 12 -7 26zM317 840q0 39 33 55q12 4 27 4q39 0 53 -33q6 -12 6 -26q0 -37 -33 -54q-12 -6 -26 -6q-39 0 -53 33q-7 13 -7 27zM340 -459q0 51 20.5 97.5t54.5 81t80 54t99 19.5q51 0 97 -19.5t81 -54t54.5 -81t19.5 -97.5q0 -53 -19.5 -99t-54.5 -80t-81 -54.5t-97 -20.5 q-53 0 -99 20.5t-80 54.5t-54.5 80t-20.5 99zM530 45q0 39 35 53q12 6 27 6q37 0 53 -32q6 -14 6 -27q0 -39 -35 -53q-12 -6 -24 -6q-39 0 -55 32q-7 13 -7 27zM530 897q0 39 35 53q12 6 27 6q37 0 53 -32q6 -12 6 -27q0 -39 -35 -53q-12 -6 -24 -6q-39 0 -55 32 q-7 13 -7 27zM745 102q0 37 33 54q12 6 27 6q39 0 53 -35q6 -12 6 -25q0 -39 -33 -55q-12 -4 -26 -4q-39 0 -53 33q-7 12 -7 26zM745 840q0 39 33 55q12 4 27 4q39 0 53 -33q6 -12 6 -26q0 -37 -33 -54q-12 -6 -26 -6q-39 0 -53 33q-7 13 -7 27zM901 258q0 39 35 53 q12 6 27 6q37 0 53 -32q6 -14 6 -27q0 -39 -35 -53q-10 -6 -24 -6q-39 0 -56 32q-6 13 -6 27zM901 684q0 39 35 53q12 6 27 6q37 0 53 -32q6 -12 6 -27q0 -39 -35 -53q-10 -6 -24 -6q-39 0 -56 32q-6 13 -6 27zM961 471q0 37 32 53q12 6 27 6q39 0 53 -32q6 -12 6 -27 q0 -39 -32 -53q-14 -6 -27 -6q-39 0 -53 32q-6 13 -6 27z" />
<glyph unicode="&#x103c;&#x103d;" horiz-adv-x="2195" d="M102 -449v1778q0 176 110 286.5t288 110.5h1216q86 0 178.5 -46t139.5 -115q59 -92 57 -224v-211l-158 3v194q0 104 -62.5 174t-168.5 70l-1192 2q-117 0 -185.5 -69.5t-68.5 -186.5v-1753q0 -117 72.5 -194t183.5 -77h862q-43 53 -66.5 119.5t-23.5 138.5q0 84 32 158 t86 128t127 86t157 32t157.5 -32t129 -86t87 -128t31.5 -158t-31.5 -157.5t-87 -129t-129.5 -87t-157 -31.5h-3l3 -8h-1184q-176 0 -288 117.5t-112 295.5zM731 471q0 39 35 53q12 6 27 6q37 0 53 -32q6 -12 6 -27q0 -39 -33 -53q-14 -6 -26 -6q-39 0 -56 32q-6 13 -6 27z M791 258q0 39 32 53q12 6 27 6q37 0 53 -32q6 -14 6 -27q0 -39 -32 -53q-12 -6 -27 -6q-39 0 -55 32q-4 13 -4 27zM791 684q0 39 32 53q12 6 27 6q37 0 53 -32q6 -12 6 -27q0 -39 -32 -53q-12 -6 -27 -6q-39 0 -55 32q-4 13 -4 27zM946 102q0 37 35 54q12 6 27 6 q37 0 53 -35q6 -12 6 -25q0 -39 -35 -55q-12 -4 -24 -4q-39 0 -56 33q-6 12 -6 26zM946 840q0 39 35 55q12 4 27 4q37 0 53 -33q6 -12 6 -26q0 -37 -35 -54q-12 -6 -24 -6q-39 0 -56 33q-6 13 -6 27zM1161 45q0 39 33 53q12 6 27 6q39 0 53 -32q6 -14 6 -27q0 -39 -33 -53 q-12 -6 -26 -6q-39 0 -54 32q-6 13 -6 27zM1161 897q0 39 33 53q12 6 27 6q39 0 53 -32q6 -12 6 -27q0 -39 -33 -53q-12 -6 -26 -6q-39 0 -54 32q-6 13 -6 27zM1374 102q0 37 35 54q12 6 27 6q37 0 53 -35q6 -12 6 -25q0 -39 -35 -55q-12 -4 -24 -4q-39 0 -56 33 q-6 12 -6 26zM1374 840q0 39 35 55q12 4 27 4q37 0 53 -33q6 -12 6 -26q0 -37 -35 -54q-12 -6 -24 -6q-39 0 -56 33q-6 13 -6 27zM1434 -453q0 -53 20.5 -99t54 -80t79.5 -54.5t100 -20.5q51 0 97 20.5t81 54.5t54 80t19 99q0 51 -19 97.5t-54 81t-81 54t-97 19.5 q-53 0 -99.5 -19.5t-80 -54t-54 -81t-20.5 -97.5zM1532 258q0 39 33 53q12 6 26 6q39 0 56 -32q4 -14 4 -27q0 -39 -33 -53q-12 -6 -27 -6q-37 0 -53 32q-6 13 -6 27zM1532 684q0 39 33 53q12 6 26 6q39 0 56 -32q4 -12 4 -27q0 -39 -33 -53q-12 -6 -27 -6q-37 0 -53 32 q-6 13 -6 27zM1589 471q0 37 33 53q14 6 27 6q39 0 55 -32q6 -12 6 -27q0 -39 -35 -53q-14 -6 -26 -6q-37 0 -54 32q-6 13 -6 27z" />
<glyph unicode="&#x103c;&#x103d;&#x103e;" horiz-adv-x="256" d="M102 -449v1778q0 176 110 286.5t288 110.5h1216q86 0 178.5 -46t139.5 -115q59 -92 57 -224v-211l-158 3v194q0 104 -62.5 174t-168.5 70l-1192 2q-117 0 -185.5 -69.5t-68.5 -186.5v-1753q0 -117 72.5 -194t183.5 -77h862q-45 57 -67 121q-47 -55 -119 -71 q-96 -25 -182 24q-84 49 -112 146.5t26 185.5l131 -76l-4 -6q-18 -33 -6 -74t40 -57q35 -18 75 -10t63 41l75 129q14 68 51 124t88.5 97t116 64.5t136.5 23.5q84 0 157.5 -32t129 -86t87 -128t31.5 -158t-31.5 -157.5t-87 -129t-129.5 -87t-157 -31.5h-3l3 -8h-1184 q-176 0 -288 117.5t-112 295.5zM1434 -453q0 -53 20.5 -99t54 -80t79.5 -54.5t100 -20.5q51 0 97 20.5t81 54.5t54 80t19 99q0 51 -19 97.5t-54 81t-81 54t-97 19.5q-53 0 -99.5 -19.5t-80 -54t-54 -81t-20.5 -97.5z" />
<glyph unicode="&#x103c;&#x103e;" horiz-adv-x="256" d="M102 -449v1778q0 176 110 286.5t288 110.5h1216q86 0 178.5 -46t139.5 -115q59 -92 57 -224v-211l-158 3v194q0 104 -62.5 174t-168.5 70l-1192 2q-117 0 -185.5 -69.5t-68.5 -186.5v-1753q0 -117 72.5 -194t183.5 -77h1159q104 0 182 76t80 182v449h158v-461 q10 -180 -107.5 -290.5t-297.5 -110.5h-1184q-176 0 -288 117.5t-112 295.5zM1350 -377h184v299h152v-457h-336v158z" />
<glyph unicode="&#x103a;&#xaa70;" d="M-905 1364q0 150 106.5 257.5t259.5 107.5q150 0 256.5 -108t106.5 -257l-158 -2q0 84 -60.5 146.5t-146.5 62.5q-88 0 -148.5 -62.5t-60.5 -146.5q0 -86 60.5 -148.5t148.5 -62.5l2 -154q-154 0 -260 107.5t-106 259.5zM-686 1360q0 66 43 108.5t111 42.5q61 0 104 -44 t43 -107l-86 -4q0 63 -66 63q-63 0 -63 -63z" />
<glyph unicode="&#xd;" horiz-adv-x="681" />
<glyph unicode=" "  horiz-adv-x="512" />
<glyph unicode="&#x09;" horiz-adv-x="512" />
<glyph unicode="&#xa0;" horiz-adv-x="512" />
<glyph unicode="!" horiz-adv-x="681" d="M227 1247q0 63 34 101t81 38t80 -37.5t33 -111.5q0 -25 -4 -68l-91 -811h-38l-89 811q-6 53 -6 78zM229 84q0 43 33 76t78 33t78 -33t33 -76q0 -47 -33 -80t-78 -33t-78 33t-33 80z" />
<glyph unicode="&#x22;" horiz-adv-x="835" d="M133 1266q0 63 26.5 91.5t71.5 28.5q43 0 73 -29.5t30 -76.5q0 -41 -27 -182l-53 -295h-43l-55 297q-23 121 -23 166zM498 1266q0 63 28.5 91.5t73.5 28.5q43 0 71.5 -28.5t28.5 -77.5q0 -86 -18 -184l-57 -293h-50l-53 293l-22 121q-2 25 -2 49z" />
<glyph unicode="#" horiz-adv-x="1024" d="M37 426v84h186l70 342h-256v80h274l92 454h82l-90 -454h336l98 454h82l-94 -454h170v-80h-184l-72 -342h256v-84h-272l-92 -455h-82l92 455h-340l-94 -455h-84l94 455h-172zM307 510h340l72 342h-340z" />
<glyph unicode="$" horiz-adv-x="1024" d="M109 51v283h43q12 -137 86.5 -210t224.5 -87v584q-225 139 -301 245q-53 76 -53 187q0 123 92 215t262 110v92h63v-92q82 -6 138 -18q29 -8 192 -70v-299h-39q-12 160 -81.5 232.5t-209.5 87.5v-508q252 -176 324 -259t72 -208q0 -137 -104.5 -242.5t-291.5 -122.5v-127 h-63v127q-94 4 -175 21.5t-179 58.5zM264 1116q0 -72 44 -135t155 -135v465q-100 -12 -149.5 -64.5t-49.5 -130.5zM526 37q74 12 115 37q55 35 88 91t33 122t-40 124t-196 167v-541z" />
<glyph unicode="%" horiz-adv-x="1705" d="M72 1018q0 104 40 193t109.5 132t143.5 43q135 0 208.5 -111.5t73.5 -256.5q0 -174 -84 -269.5t-201 -95.5q-80 0 -145 44t-105 130t-40 191zM231 1020q0 -139 23 -213q16 -55 51 -84q23 -18 53 -18q47 0 82 51q49 78 49 258q0 188 -49 266q-31 51 -80 51 q-51 0 -90 -60.5t-39 -250.5zM315 -55l988 1441h90l-990 -1441h-88zM1061 307q0 106 39 193.5t107.5 130.5t138.5 43q72 0 142.5 -45t108 -131t37.5 -191q0 -176 -85 -269t-199 -93q-74 0 -142.5 45t-107.5 128t-39 189zM1219 301q0 -178 47 -250q33 -51 82 -51q45 0 82 55 q47 72 47 250q0 188 -47 264q-33 52 -82 52t-84 -56q-45 -70 -45 -264z" />
<glyph unicode="&#x26;" horiz-adv-x="1593" d="M76 266q0 121 87 242t326 250q-47 104 -64 170.5t-17 128.5q0 170 127 260q98 70 223 69q119 0 193.5 -70.5t74.5 -172.5q0 -106 -72.5 -186t-257.5 -175q127 -227 267 -413q176 209 176 354q0 45 -31 82q-23 27 -64 31v36h420v-36q-86 -6 -128 -38t-130 -190.5 t-196 -298.5q88 -102 157.5 -144t141.5 -42q70 0 118 38t66 109l39 -26q-39 -141 -121 -208t-190 -67q-82 0 -166 44t-185 151q-125 -111 -224 -153t-212 -42q-166 0 -262 88t-96 209zM283 358q0 -106 68.5 -187t185.5 -81q63 0 121.5 24.5t158.5 106.5q-131 180 -182 263 t-113 206q-119 -68 -179 -150.5t-60 -181.5zM580 1135q0 -49 16.5 -109.5t67.5 -177.5q123 57 184 133t61 168q0 72 -44 119t-109 47q-88 0 -132 -60.5t-44 -119.5z" />
<glyph unicode="'" horiz-adv-x="368" d="M82 1266q0 63 25.5 91.5t70.5 28.5t75 -29.5t30 -76.5q0 -37 -27 -182l-53 -295h-45l-54 297q-23 123 -22 166z" />
<glyph unicode="(" horiz-adv-x="681" d="M84 492q0 309 152.5 565t400.5 364v-41q-125 -68 -204 -186.5t-118 -298.5t-39 -379q0 -213 33 -389q27 -137 64 -220t99.5 -160.5t164.5 -147.5v-37q-152 76 -254 178q-143 145 -221 342t-78 410z" />
<glyph unicode=")" horiz-adv-x="681" d="M45 -401q125 70 204 187.5t118 298.5t39 378q0 213 -33 389q-27 137 -64 220t-99.5 160.5t-164.5 147.5v41q154 -74 254 -176q143 -145 221 -341.5t78 -409.5q0 -311 -152.5 -566.5t-400.5 -365.5v37z" />
<glyph unicode="*" horiz-adv-x="1024" d="M145 840q0 25 20.5 52.5t61.5 45.5q27 10 123 31q61 12 121 39q-53 27 -129 41q-123 27 -152 47q-45 33 -45 80q0 27 22.5 49t51.5 22q35 0 72 -20.5t91.5 -84t111.5 -98.5q-4 68 -27 138q-35 98 -35 135q0 51 24.5 77.5t59.5 26.5q33 0 55.5 -26.5t22.5 -75.5 q0 -45 -26.5 -126t-32.5 -149q55 35 100 84q68 80 100.5 98.5t67.5 18.5q33 0 55.5 -22.5t22.5 -53.5q0 -37 -34 -65.5t-165 -56.5q-78 -18 -127 -39q51 -27 127 -41q121 -23 158 -55.5t37 -71.5q0 -31 -23 -52.5t-51 -21.5q-31 0 -68 20.5t-98 94.5q-41 49 -102 92 q2 -57 22 -125q37 -119 37 -162q0 -39 -23.5 -66.5t-52.5 -27.5q-37 0 -65 29q-23 20 -23 67t23.5 114.5t29.5 93.5t11 77q-59 -39 -103 -88q-74 -82 -110 -105q-25 -14 -54 -14q-35 0 -58.5 22.5t-23.5 51.5z" />
<glyph unicode="+" horiz-adv-x="1155" d="M37 639v84h498v496h79v-496h500v-84h-500v-498h-79v498h-498z" />
<glyph unicode="," horiz-adv-x="512" d="M111 82q0 47 36.5 83t92.5 36q66 0 117 -57.5t51 -153.5q0 -102 -71.5 -191.5t-225.5 -140.5v45q102 35 158.5 105.5t56.5 150.5q0 20 -9 33q-8 8 -14 8q-10 0 -47 -18q-18 -10 -39 -11q-49 0 -77.5 30t-28.5 81z" />
<glyph unicode="-" horiz-adv-x="681" d="M84 383v152h516v-152h-516z" />
<glyph unicode="." horiz-adv-x="512" d="M145 84q0 45 33 78t78 33q47 0 79 -33t32 -78q0 -47 -33 -80t-78 -33t-78 33t-33 80z" />
<glyph unicode="/" horiz-adv-x="569" d="M2 -29l492 1450h79l-489 -1450h-82z" />
<glyph unicode="0" horiz-adv-x="1024" d="M74 670q0 231 69.5 399t186.5 250q90 66 186 65q156 0 281 -159q154 -197 153 -535q0 -236 -67.5 -400.5t-173 -239.5t-203.5 -75q-195 0 -324 230q-108 193 -108 465zM270 645q0 -281 70 -457q55 -150 170 -149q53 0 111.5 48t87.5 163q47 172 47 485q0 231 -49 387 q-35 115 -93 162q-41 35 -100 35q-68 0 -121 -62q-72 -84 -97.5 -262t-25.5 -350z" />
<glyph unicode="1" horiz-adv-x="1024" d="M240 1223l329 161h33v-1144q0 -115 10.5 -142.5t40 -43t121.5 -17.5v-37h-510v37q96 2 124 16.5t39 39t11 147.5v731q0 147 -10 190q-6 33 -25.5 47.5t-44.5 14.5q-37 0 -102 -31z" />
<glyph unicode="2" horiz-adv-x="1024" d="M43 0v37q354 322 497.5 526.5t143.5 372.5q0 129 -79 212t-187 83q-100 0 -180 -58.5t-117 -171.5h-37q25 184 128 283.5t257 99.5q166 0 276.5 -106.5t110.5 -249.5q0 -102 -47 -207q-76 -162 -242 -342q-248 -272 -311 -327h354q109 0 153 8t79 31.5t59 68.5h37 l-94 -260h-801z" />
<glyph unicode="3" horiz-adv-x="1024" d="M84 84q0 29 22.5 50.5t57.5 21.5q25 0 49 -9q18 -4 77.5 -35.5t84.5 -37.5q37 -10 78 -11q102 0 178 79t76 188q0 78 -35 153q-27 55 -58 84q-43 41 -117.5 74t-154.5 33h-31v28q78 10 158 57.5t116 113t36 145.5q0 102 -64.5 165.5t-161.5 63.5q-154 0 -258 -166l-33 17 q57 137 146.5 211.5t220.5 74.5q164 0 250 -106q66 -80 65 -168q0 -150 -186 -307q125 -49 189.5 -140.5t64.5 -213.5q0 -176 -113 -306q-145 -168 -422 -168q-137 0 -186 34t-49 75z" />
<glyph unicode="4" horiz-adv-x="1024" d="M33 358v127l629 899h108v-884h182v-142h-182v-358h-164v358h-573zM129 500h477v674z" />
<glyph unicode="5" horiz-adv-x="1024" d="M98 109q0 29 22.5 50t57.5 21q27 0 46.5 -8t66.5 -41q76 -51 151 -51q117 0 206 88t89 215q0 123 -78.5 229.5t-218.5 163.5q-109 45 -297 53l260 527h486l-78 -170h-408l-90 -182q266 -39 420 -197q133 -135 133 -320q0 -106 -43 -197t-109.5 -155.5t-146.5 -103.5 q-115 -55 -235 -56q-123 0 -178.5 42t-55.5 92z" />
<glyph unicode="6" horiz-adv-x="1024" d="M88 532q0 182 72.5 346t209 291t260.5 171t230 44h58v-36q-131 -14 -215.5 -53.5t-165 -120t-135 -180t-89.5 -236.5q143 98 289 98q139 0 240.5 -111.5t101.5 -287.5q0 -170 -102 -312q-123 -170 -328 -170q-139 0 -235 93q-190 180 -191 464zM279 467q0 -96 34.5 -209 t106.5 -178q49 -47 123 -47q88 0 156.5 82t68.5 233q0 170 -68.5 295t-193.5 125q-37 0 -81 -15.5t-128 -68.5q-18 -135 -18 -217z" />
<glyph unicode="7" horiz-adv-x="1024" d="M76 1034l131 322h727v-37l-453 -1348h-112l405 1223h-373q-113 0 -161 -29q-84 -45 -136 -141z" />
<glyph unicode="8" horiz-adv-x="1024" d="M125 309q0 90 60.5 178.5t207.5 194.5q-162 133 -208 213t-46 166q0 133 101.5 228t271.5 95q164 0 264.5 -89t100.5 -203q0 -76 -54.5 -155t-224.5 -185q174 -137 231 -215q76 -102 76 -215q0 -143 -108.5 -245t-284.5 -102q-195 0 -301 121q-86 98 -86 213zM276 313 q0 -129 71 -205.5t179 -76.5q109 0 174.5 60.5t65.5 148.5q0 72 -39 129q-72 104 -287 276q-84 -70 -124 -152.5t-40 -179.5zM285 1128q0 -51 26.5 -103t73.5 -99l166 -135q119 106 150.5 169.5t31.5 141.5q0 104 -58.5 163.5t-160.5 59.5t-165.5 -58.5t-63.5 -138.5z" />
<glyph unicode="9" horiz-adv-x="1024" d="M82 897q0 178 100 317q123 170 322 170q168 0 287 -139q145 -170 145 -422q0 -225 -110.5 -420.5t-309.5 -324.5q-162 -106 -350 -107h-57v37q129 2 241.5 60.5t217 205t145.5 322.5q-158 -102 -285 -102q-143 0 -244.5 110.5t-101.5 292.5zM258 1001q0 -211 90 -329 q66 -86 160 -86q47 0 109.5 21.5t109.5 62.5q18 129 18 207q0 98 -32.5 209.5t-93 172t-138.5 60.5q-88 0 -155.5 -80t-67.5 -238z" />
<glyph unicode=":" horiz-adv-x="569" d="M176 84q0 45 33 78t78 33q47 0 79.5 -33t32.5 -78q0 -47 -32.5 -80t-79.5 -33q-45 0 -78 33t-33 80zM178 834q0 45 33 77.5t78 32.5q47 0 78.5 -32.5t31.5 -77.5q0 -47 -31.5 -79t-78.5 -32q-45 0 -78 31.5t-33 79.5z" />
<glyph unicode=";" horiz-adv-x="569" d="M141 82q0 47 38 83t91 36q68 0 119 -57.5t51 -153.5q0 -102 -71.5 -191.5t-227.5 -140.5v45q104 35 160.5 105.5t56.5 150.5q0 20 -10 33q-6 8 -12 8q-12 0 -49 -18q-18 -10 -37 -11q-49 0 -79 30t-30 81zM170 836q0 45 33 76.5t80 31.5q45 0 77.5 -31.5t32.5 -76.5 q0 -47 -32.5 -79t-77.5 -32q-47 0 -80 31.5t-33 79.5z" />
<glyph unicode="&#x3c;" horiz-adv-x="1155" d="M39 657v50l1075 464v-86l-926 -403l926 -406v-90z" />
<glyph unicode="=" horiz-adv-x="1155" d="M37 475v82h1079v-82h-1079zM37 801v82h1079v-82h-1079z" />
<glyph unicode="&#x3e;" horiz-adv-x="1155" d="M37 186v86l928 404l-928 405v90l1075 -469v-49z" />
<glyph unicode="?" horiz-adv-x="909" d="M92 1100q0 113 97.5 199.5t263.5 86.5q205 0 303 -118q72 -88 71 -197q0 -72 -32.5 -148.5t-122.5 -181.5q-145 -164 -178 -232.5t-39 -189.5h-41q6 127 30.5 209t102.5 230q59 113 76.5 173t17.5 124q0 127 -66.5 201.5t-164.5 74.5q-88 0 -138.5 -41t-50.5 -90 q0 -37 31 -90t31 -82q0 -37 -23.5 -61.5t-56.5 -24.5q-41 0 -76 42t-35 116zM330 84q0 47 31.5 80t78.5 33t80 -33t33 -80q0 -45 -34 -78t-79 -33q-47 0 -78.5 33t-31.5 78z" />
<glyph unicode="@" horiz-adv-x="1886" d="M96 444q0 264 124 492.5t348.5 356.5t473.5 128q207 0 374 -85t254 -249.5t87 -349.5q0 -182 -82 -362t-208 -262t-263 -82q-76 0 -113.5 35.5t-37.5 101.5q0 55 16 147q-147 -180 -236.5 -232t-156.5 -52q-72 0 -126 63.5t-54 167.5q0 145 94 325.5t250 293.5 q115 84 207 84q66 0 110.5 -35t61.5 -105l32 111l156 22l-117 -399q-63 -223 -77.5 -283.5t-14.5 -97.5q0 -31 21.5 -53.5t54.5 -22.5q72 0 174 74t176 238t74 342q0 170 -83 315.5t-233.5 222t-332.5 76.5q-231 0 -429 -122t-314 -352t-116 -478q0 -229 101.5 -417.5 t286 -285t397.5 -96.5q262 0 475 141.5t328 411.5h57q-88 -274 -325.5 -444t-540.5 -170q-238 0 -441.5 112.5t-317.5 319.5t-114 454zM653 293q0 -63 36 -102t79 -39q57 0 121.5 44t134.5 135t102 183q55 160 56 258q0 68 -36 107t-89 39q-76 0 -152 -80 q-113 -115 -192 -314q-59 -143 -60 -231z" />
<glyph unicode="A" horiz-adv-x="1478" d="M16 0v37q84 14 111 39q49 49 113 194l477 1116h35l471 -1128q57 -135 103 -175t130 -46v-37h-534v37q80 4 108.5 26.5t28.5 57.5q0 43 -39 137l-82 197h-526l-93 -215q-32 -76 -32 -115q0 -35 28.5 -58.5t126.5 -29.5v-37h-426zM442 528h467l-229 547z" />
<glyph unicode="B" horiz-adv-x="1366" d="M35 0v37h51q84 0 121 53q22 35 22 141v9v876q0 125 -28 160q-39 43 -115 43h-51v37h586q164 0 262 -25q150 -35 229.5 -127t79.5 -211q0 -100 -62.5 -181t-183.5 -120q141 -31 211 -96q96 -92 96 -225q0 -100 -63.5 -192.5t-175 -135.5t-340.5 -43h-639zM422 98 q113 -26 221 -26h8q180 0 275.5 80.5t95.5 201.5q0 78 -43 152t-140.5 116t-240.5 42q-61 0 -105 -2.5t-71 -8.5v-555zM422 745q37 -6 85 -10t103 -4q147 0 220 32t112 97.5t39 140.5q0 119 -96.5 203t-282.5 84q-100 0 -180 -20v-523z" />
<glyph unicode="C" horiz-adv-x="1366" d="M74 657q0 203 91 373t250.5 263t348.5 93q147 0 291 -71q41 -23 59 -23q27 0 47 21q27 27 37 73h35l31 -460h-31q-61 207 -177 298t-276 91q-135 0 -244.5 -68.5t-172 -218t-62.5 -373.5q0 -184 59.5 -319t178 -207t270.5 -72q131 0 232.5 56.5t222.5 224.5l30 -21 q-100 -180 -236 -264t-325 -84q-336 0 -520 250q-139 186 -139 438z" />
<glyph unicode="D" horiz-adv-x="1478" d="M35 0v37h51q86 0 123 55q20 33 20 148v876q0 127 -26 160q-39 43 -117 43h-51v37h553q303 0 461.5 -68.5t255 -230.5t96.5 -373q0 -283 -172 -471q-193 -213 -588 -213h-606zM422 98q123 -28 207 -28h6q231 0 385 162.5t154 443.5t-154 442.5t-393 161.5q-90 0 -205 -29 v-1153z" />
<glyph unicode="E" horiz-adv-x="1251" d="M43 0v37h47q47 0 90 22q33 16 44.5 48t11.5 133v880q0 129 -25 160q-37 39 -121 39h-47v37h1044l15 -297h-39q-20 106 -46 146t-77 63q-39 14 -139 14h-373v-537h297q117 0 156 35q53 47 57 162h39v-471h-39q-12 98 -27 127q-18 35 -59 55.5t-127 20.5h-297v-449 q0 -90 8 -109.5t27.5 -30.5t77.5 -11h229q115 0 167 16t99 64q63 61 127 186h41l-117 -340h-1044z" />
<glyph unicode="F" horiz-adv-x="1138" d="M33 0v37h49q84 0 121 49q24 32 24 145v9v876q0 102 -14 135q-8 27 -41 43q-43 25 -90 25h-49v37h1009l13 -297h-35q-27 94 -60.5 138t-85 64.5t-155.5 20.5h-299v-532h246q86 0 124.5 36.5t53.5 149.5h37v-461h-37q-2 80 -21.5 117t-54.5 55.5t-102 18.5h-246v-426 q0 -102 12 -136q10 -25 41 -43q43 -24 88 -24h4h49v-37h-581z" />
<glyph unicode="G" horiz-adv-x="1478" d="M158 999q102 195 280 301q150 86 353 86q74 0 134 -11t171 -52q55 -23 75 -23q18 0 32 17.5t18 68.5h36l35 -428h-35q-53 160 -137 242q-121 117 -311 117q-258 0 -393 -205q-115 -174 -115 -412q0 -195 76 -354.5t196.5 -234t249.5 -74.5q74 0 144.5 19.5t136.5 56.5 v391q0 102 -16.5 134t-48 48t-113.5 16v37h524v-37h-25q-78 0 -106 -53q-20 -37 -21 -145v-416q-115 -61 -227.5 -90t-249.5 -29q-393 0 -596 252q-153 187 -153 433q0 181 86 345z" />
<glyph unicode="H" horiz-adv-x="1478" d="M35 0v37h49q84 0 121 49q24 32 24 145v9v874q0 104 -14 137q-8 27 -41 43q-43 25 -90 25h-49v37h581v-37h-49q-49 0 -92 -23q-31 -16 -42 -49t-11 -133v-387h629v387q0 104 -13 137q-10 27 -43 43q-43 25 -90 25h-49v37h582v-37h-49q-47 0 -91 -23q-33 -16 -44 -49 t-11 -133v-874q0 -102 12 -136q10 -25 41 -43q43 -24 89 -24h4h49v-37h-582v37h49q82 0 121 49q25 33 25 154v413h-629v-413q0 -102 12 -136q10 -25 41 -43q41 -24 88 -24h4h49v-37h-581z" />
<glyph unicode="I" horiz-adv-x="681" d="M51 0v37h47q84 0 123 49q25 33 25 154v876q0 102 -15 135q-10 27 -41 43q-43 25 -92 25h-47v37h582v-37h-49q-84 0 -121 -49q-27 -33 -27 -154v-876q0 -102 15 -136q10 -25 41 -43q41 -24 88 -24h4h49v-37h-582z" />
<glyph unicode="J" horiz-adv-x="796" d="M43 123q0 47 25 74q32 30 72 30h3q33 0 58.5 -21.5t64.5 -111.5q23 -53 60 -53q27 0 50 32.5t23 116.5v926q0 102 -14 135q-8 27 -41 43q-43 25 -90 25h-49v37h579v-37h-49q-82 0 -121 -49q-22 -32 -22 -144v-10v-663q0 -154 -34 -248t-116 -165t-198 -71 q-94 0 -147.5 46t-53.5 108z" />
<glyph unicode="K" horiz-adv-x="1478" d="M35 0v37h47q84 0 123 49q22 32 22 144v10v876q0 102 -12 137q-10 25 -41 41q-45 25 -92 25h-47v37h577v-37h-47q-47 0 -90 -23q-31 -16 -43 -47.5t-12 -132.5v-416q20 20 137 127q297 272 358 365q27 39 27 70q0 23 -20.5 40t-69.5 17h-33v37h500v-37q-45 0 -81 -11.5 t-88 -43t-128 -101.5q-23 -20 -203 -205l-207 -206l500 -496q123 -125 210 -169t173 -50v-37h-643v37q57 0 83 19.5t26 43.5q0 25 -10.5 43.5t-61.5 69.5l-469 465v-438q0 -102 12 -136q10 -25 43 -43q41 -24 86 -24h4h47v-37h-577z" />
<glyph unicode="L" horiz-adv-x="1251" d="M41 0v37h51q86 0 123 55q20 33 21 150v874q0 127 -27 160q-39 43 -117 43h-51v37h614v-37h-18q-95 1 -133 -19q-42 -22 -59 -54t-17 -152v-852q0 -84 16 -115q12 -20 37 -30.5t156 -10.5h98q158 0 220.5 22.5t115 82t103.5 184.5l32 -6l-114 -369h-1051z" />
<glyph unicode="M" horiz-adv-x="1820" d="M35 0v37h47q86 0 123 51q20 33 20 148v884q0 90 -18 131q-14 29 -52 48.5t-120 19.5v37h383l491 -1061l486 1061h383v-37h-47q-86 0 -123 -51q-23 -33 -23 -148v-884q0 -125 29 -156q37 -43 117 -43h47v-37h-576v37h47q88 0 123 51q23 33 23 148v905l-525 -1141h-32 l-525 1141v-905q0 -125 29 -156q37 -43 117 -43h47v-37h-471z" />
<glyph unicode="N" horiz-adv-x="1478" d="M-27 1319v37h369l827 -1016v780q0 125 -26 158q-37 41 -119 41h-45v37h471v-37h-47q-86 0 -123 -51q-23 -33 -23 -148v-1143h-34l-895 1092v-833q0 -125 26 -156q39 -43 117 -43h49v-37h-473v37h47q88 0 123 51q23 33 23 148v942q-59 70 -89 91t-90 42q-29 8 -88 8z" />
<glyph unicode="O" horiz-adv-x="1478" d="M72 682q0 324 221 528q191 176 457 176q264 0 457.5 -200.5t193.5 -499.5q0 -309 -195.5 -513t-472.5 -204q-281 0 -471 199t-190 514zM301 686q0 -332 141 -510q111 -135 289 -135q190 0 315 148.5t125 469.5q0 348 -137 519q-110 137 -305 137q-180 0 -291 -135 q-137 -168 -137 -494z" />
<glyph unicode="P" horiz-adv-x="1138" d="M35 0v37h51q84 0 123 55q18 33 18 148v876q0 127 -26 160q-39 43 -115 43h-51v37h495q182 0 288 -38t177.5 -126t71.5 -211q0 -166 -109.5 -270.5t-310.5 -104.5q-49 0 -105 7.5t-122 21.5v-395q0 -127 29 -158q37 -45 114 -45h51v-37h-579zM420 692q53 -10 94 -15t70 -5 q104 0 180 81t76 208q0 88 -36 163.5t-102.5 113.5t-150.5 38q-51 0 -131 -21v-563z" />
<glyph unicode="Q" horiz-adv-x="1478" d="M72 682q0 303 197.5 503.5t475.5 200.5q266 0 461 -201.5t195 -506.5q0 -250 -138.5 -438t-361.5 -254q102 -176 221 -259t271 -96v-32q-139 6 -296 56t-297.5 139t-242.5 192q-143 57 -227 123q-123 96 -190.5 237t-67.5 336zM301 682q0 -330 141 -508 q111 -137 291 -137q188 0 303 137q135 162 135 477q0 244 -73 410q-57 129 -151.5 189.5t-213.5 60.5q-180 0 -293 -131q-139 -162 -139 -498z" />
<glyph unicode="R" horiz-adv-x="1366" d="M35 0v37h51q86 0 123 55q20 33 20 148v876q0 127 -26 160q-39 43 -117 43h-51v37h493q217 0 319.5 -32t174.5 -116t72 -200q0 -125 -82 -217.5t-252 -131.5l278 -389q96 -133 166 -177t180 -56v-37h-362l-459 635q-51 -2 -84 -2h-27.5t-29.5 2v-395q0 -127 27 -158 q39 -45 114 -45h53v-37h-581zM422 696h32.5h22.5q195 0 293 84t98 213q0 127 -79.5 207t-210.5 80q-57 0 -156 -18v-566z" />
<glyph unicode="S" horiz-adv-x="1138" d="M127 1030q0 145 112.5 250.5t284.5 105.5q109 0 230 -53q55 -24 78 -24h2q25 0 42 15t25 62h37v-468h-37q-16 135 -63 214.5t-133.5 127t-178.5 47.5q-102 0 -170.5 -63.5t-68.5 -143.5q0 -63 43 -115q61 -74 295 -199q190 -102 259.5 -156.5t106.5 -129t37 -154.5 q0 -154 -118.5 -265.5t-307.5 -111.5q-59 0 -110 8q-31 6 -129.5 37t-122.5 31q-27 0 -41.5 -14.5t-20.5 -61.5h-37v465h37q27 -145 71 -218t134 -121t199 -48q125 0 197.5 65.5t72.5 155.5q0 51 -27.5 102.5t-87.5 94.5q-39 31 -213 128t-246.5 155.5t-111.5 128t-39 153.5 z" />
<glyph unicode="T" horiz-adv-x="1251" d="M61 1038l17 318h1108l14 -318h-39q-10 84 -28 119q-31 59 -83.5 87t-136.5 28h-190v-1036q0 -125 27 -156q39 -43 116 -43h47v-37h-573v37h47q86 0 123 51q20 33 20 148v1036h-161q-96 0 -136 -15q-53 -20 -90 -73.5t-43 -145.5h-39z" />
<glyph unicode="U" horiz-adv-x="1478" d="M10 1319v37h588v-37h-53q-84 0 -119 -53q-27 -35 -27 -150v-592q0 -78 14.5 -180t53.5 -159.5t109.5 -94.5t175.5 -37q133 0 238.5 58.5t143 148.5t37.5 307v549q0 127 -26 160q-39 43 -117 43h-51v37h479v-37h-49q-82 0 -125 -68q-20 -31 -20 -143v-551 q0 -203 -40 -315.5t-159 -193.5t-324 -81q-221 0 -335.5 78t-163.5 207q-31 90 -31 334v530q0 125 -35 164t-113 39h-51z" />
<glyph unicode="V" horiz-adv-x="1478" d="M18 1319v37h553v-37q-94 -8 -121.5 -31.5t-27.5 -58.5q0 -51 47 -158l344 -795l320 787q47 115 47 160q0 29 -29 55.5t-98 38.5q-4 0 -17 2v37h418v-37q-72 -12 -108 -45q-53 -49 -95 -152l-473 -1153h-37l-508 1170q-39 90 -55 108q-25 33 -61.5 50.5t-98.5 21.5z" />
<glyph unicode="W" horiz-adv-x="1933" d="M27 1319v37h501v-37h-22q-53 0 -82 -23.5t-29 -58.5t45 -162l267 -760l225 648l-39 112l-33 92q-20 49 -47 88q-12 18 -33 31q-25 18 -49 27q-18 6 -59 6v37h526v-37h-35q-55 0 -81.5 -23.5t-26.5 -64.5q0 -51 45 -178l260 -738l258 748q45 123 45 172q0 23 -15.5 42 t-35.5 28q-39 14 -101 14v37h406v-37q-53 0 -86 -19.5t-64 -70.5q-18 -35 -61 -166l-379 -1094h-41l-307 867l-307 -867h-37l-404 1127q-45 125 -57 147q-18 39 -53 57.5t-94 18.5z" />
<glyph unicode="X" horiz-adv-x="1478" d="M14 0v37q51 6 88 20q63 27 118.5 71t127.5 134l322 406l-269 391q-109 158 -184.5 208t-173.5 52v37h627v-37q-80 -2 -110 -25.5t-30 -52.5q0 -37 48 -106l208 -312l240 305q43 53 52 74t9 41t-12 37q-14 20 -36.5 29.5t-96.5 9.5v37h481v-37q-57 -2 -92 -19 q-53 -23 -98 -61.5t-127 -142.5l-270 -344l290 -435q121 -180 180.5 -227t147.5 -53v-37h-582v37q59 2 86 12q23 8 36.5 26.5t13.5 39.5q0 23 -11 45q-6 16 -55 88l-229 348l-285 -365q-45 -57 -53 -76.5t-8 -39.5q0 -33 26.5 -53.5t102.5 -24.5v-37h-482z" />
<glyph unicode="Y" horiz-adv-x="1478" d="M18 1319v37h580v-37h-29q-47 0 -87 -21.5t-40 -66.5q0 -37 62 -129l282 -438l267 417q59 94 59 142q0 27 -14.5 49t-41 34.5t-79.5 12.5v37h473v-37h-27q-27 0 -77 -22.5t-91 -65.5t-100 -141l-328 -515v-339q0 -125 29 -156q39 -43 121 -43h43v-37h-576v37h48 q86 0 122 51q23 33 23 148v319l-373 569q-66 100 -89 125t-97 60q-20 10 -60 10z" />
<glyph unicode="Z" horiz-adv-x="1251" d="M27 0v37l868 1239h-432q-109 0 -158 -23.5t-73.5 -68.5t-47.5 -166h-37l27 338h1004l-891 -1274h557q127 0 195.5 56.5t121.5 226.5l33 -7l-64 -358h-1103z" />
<glyph unicode="[" horiz-adv-x="681" d="M168 -406v1792h440v-77h-291v-1637h291v-78h-440z" />
<glyph unicode="\" horiz-adv-x="569" d="M2 1421h82l489 -1450h-79z" />
<glyph unicode="]" horiz-adv-x="681" d="M76 -328h289v1637h-289v77h438v-1794h-438v80z" />
<glyph unicode="^" horiz-adv-x="960" d="M37 668l432 716h29l426 -716h-93l-350 585l-350 -585h-94z" />
<glyph unicode="_" horiz-adv-x="1024" d="M-16 -358h1058v-84h-1058v84z" />
<glyph unicode="`" horiz-adv-x="681" d="M119 1391h223l104 -347h-34z" />
<glyph unicode="a" horiz-adv-x="909" d="M74 217q0 68 28 117q41 68 142.5 127t339.5 145v37q0 137 -44 188.5t-126 51.5q-63 0 -101 -35q-39 -35 -39 -78l2 -57q0 -47 -23.5 -72t-59.5 -25q-37 0 -60.5 26t-23.5 71q0 86 88 157.5t245 71.5q123 0 201 -41q59 -31 86 -96q18 -43 19 -176v-312q0 -131 5 -160.5 t16 -38.5t28 -9q14 0 26 6q23 12 82 73v-57q-112 -149 -214 -149h-1q-49 0 -77.5 33.5t-28.5 115.5q-141 -109 -178 -125q-51 -24 -110 -24h-5q-94 0 -155.5 64.5t-61.5 170.5zM242 264q0 -72 43 -120t98 -48q76 1 201 101v350q-152 -61 -197 -86q-78 -43 -111.5 -91 t-33.5 -106z" />
<glyph unicode="b" horiz-adv-x="1024" d="M-4 1311l274 110h45v-663q133 184 287 184q141 0 245.5 -120t104.5 -328q0 -244 -161 -394q-139 -129 -310 -129q-80 0 -162.5 30t-168.5 87v948q0 158 -7.5 194t-24 48t-38.5 12q-29 0 -72 -14zM315 145q51 -49 105.5 -74.5t111.5 -25.5q90 0 169 100.5t79 290.5 q0 176 -78.5 270.5t-179.5 94.5q-53 0 -104 -27q-42 -21 -103 -80v-549z" />
<glyph unicode="c" horiz-adv-x="909" d="M70 457q0 217 129 351t309 134q133 0 220 -70.5t88 -148.5q0 -39 -24 -61.5t-69 -22.5q-59 0 -88 37q-18 20 -23.5 79.5t-40.5 90.5t-98 31q-98 0 -160 -74q-82 -98 -82 -260q0 -164 81 -290t218 -126q98 0 177 68q55 47 106 167l29 -14q-37 -180 -144.5 -278.5 t-238.5 -98.5q-158 0 -273.5 131t-115.5 355z" />
<glyph unicode="d" horiz-adv-x="1024" d="M68 420q0 197 123.5 360.5t320.5 163.5q121 0 199 -78v170q0 158 -7.5 194t-23.5 48t-41 12t-68 -14l-14 35l274 110h46v-1059q0 -160 7 -195.5t23.5 -50t38.5 -14.5q27 0 72 19l10 -35l-270 -115h-47v131q-68 -70 -131.5 -100.5t-137.5 -30.5q-150 0 -262 126t-112 323z M252 500q0 -203 87 -310.5t196 -107.5q92 0 176 90v473q-6 68 -36 124t-79 85t-96 29q-88 0 -158 -80q-90 -104 -90 -303z" />
<glyph unicode="e" horiz-adv-x="909" d="M76 446q0 236 120.5 367t303.5 131q154 0 253 -101.5t99 -271.5h-635q0 -205 100 -319q100 -117 236 -117q88 0 154.5 49t111.5 170l33 -20q-23 -137 -123 -250t-254 -113q-164 0 -281.5 129t-117.5 346zM217 629h424q-4 88 -20 125q-25 55 -74 86.5t-105 31.5 q-82 0 -147.5 -64t-77.5 -179z" />
<glyph unicode="f" horiz-adv-x="681" d="M80 844v71h176v62q0 135 44 230.5t135 153.5t204 58q104 0 192 -67q59 -45 60 -101q0 -31 -26.5 -57.5t-55.5 -26.5q-25 0 -50.5 16.5t-62.5 72t-67 73.5q-31 18 -70 19q-45 0 -76.5 -25t-46 -76t-14.5 -266v-66h235v-71h-235v-602q0 -127 29 -162q37 -43 98 -43h84v-37 h-547v37h41q39 0 71.5 19.5t45 53t12.5 132.5v602h-176z" />
<glyph unicode="g" horiz-adv-x="1024" d="M61 -252q0 25 11 49q16 37 69 103q8 10 103 108q-51 31 -72.5 55.5t-21.5 55.5q0 35 28.5 82t130.5 133q-84 41 -129 114.5t-45 161.5q0 137 102.5 234.5t262.5 97.5q131 0 227 -63h195q43 0 50 -2.5t9 -8.5q6 -10 6 -32q0 -25 -6 -35q-2 -6 -9 -9.5t-50 -3.5h-119 q55 -72 55 -184q0 -127 -98 -218t-262 -91q-70 0 -140 20q-45 -39 -60 -67.5t-15 -46.5t16 -33.5t66 -24.5q27 -4 139 -6q207 -6 266 -14q94 -12 149.5 -68.5t55.5 -138.5q0 -113 -107 -213q-156 -145 -405 -145q-195 0 -328 88q-74 49 -74 102zM205 -176q0 -47 57 -84 q100 -61 289 -62q180 0 265 63.5t85 135.5q0 51 -49 74q-53 23 -207 26q-225 7 -346 23q-47 -51 -70.5 -95t-23.5 -81zM309 655q0 -158 68 -245q51 -66 133 -66q76 0 124 57.5t48 178.5q0 160 -68 249q-51 66 -131 66q-74 0 -124 -59.5t-50 -180.5z" />
<glyph unicode="h" horiz-adv-x="1024" d="M12 1311l275 110h47v-669q111 123 175 156.5t130 33.5q78 0 134 -43t83 -133q18 -66 18 -236v-323q0 -86 15 -119q10 -25 33.5 -38t89.5 -13v-37h-451v37h21q63 0 88.5 19.5t36.5 56.5q2 16 2 94v323q0 152 -15.5 198t-49.5 69.5t-83 23.5t-101 -25.5t-126 -105.5v-483 q0 -94 10 -116.5t39 -38t98 -15.5v-37h-454v37q61 0 96 18q20 10 32.5 38t12.5 114v829q0 158 -8 194t-23.5 48t-42.5 12q-20 0 -67 -14z" />
<glyph unicode="i" horiz-adv-x="569" d="M59 831l277 111h45v-735q0 -86 12.5 -115t37 -42t87.5 -13v-37h-444v37q68 0 90 12t35.5 43t13.5 115v352q0 150 -8 195q-6 31 -21.5 44t-42.5 13t-67 -16zM195 1321q0 43 29.5 71.5t72.5 28.5t71.5 -28.5t28.5 -71.5q0 -41 -28.5 -71.5t-71.5 -30.5q-41 0 -71.5 30.5 t-30.5 71.5z" />
<glyph unicode="j" horiz-adv-x="569" d="M-158 -342q0 37 24.5 61.5t57.5 24.5q27 0 53 -12q18 -8 66.5 -51t81.5 -43q25 0 47.5 18t33.5 61t11 189v651q0 152 -8 195q-8 33 -23.5 46t-40.5 13q-29 0 -67 -16l-15 36l277 111h43v-922q0 -233 -100.5 -347.5t-259.5 -114.5q-92 0 -136.5 32.5t-44.5 67.5zM195 1321 q0 43 29.5 72.5t72.5 29.5t72.5 -29.5t29.5 -72.5t-29.5 -72.5t-72.5 -29.5t-72.5 29.5t-29.5 72.5z" />
<glyph unicode="k" horiz-adv-x="1024" d="M16 0v37q70 0 107 16q20 10 31 33q16 35 16 115v833q0 160 -7 196t-23.5 49t-43.5 13q-20 0 -61 -16l-19 35l273 110h47v-911l231 213q74 68 86 86q8 12 9 25q0 20 -16.5 34.5t-53.5 16.5v30h397v-30q-82 -2 -136 -25.5t-120 -83.5l-235 -217l235 -297q98 -123 131 -156 q49 -47 84 -61q27 -8 88 -8v-37h-444v37q37 0 50 10t13 31q0 23 -39 74l-280 358v-303q0 -90 12 -118t35 -40t100 -12v-37h-467z" />
<glyph unicode="l" horiz-adv-x="569" d="M61 1311l273 110h45v-1214q0 -86 12 -113.5t39 -42t96 -14.5v-37h-448v37q63 0 85.5 12t36 43t13.5 115v831q0 156 -7 192t-22.5 48t-40.5 12t-65 -14z" />
<glyph unicode="m" horiz-adv-x="1593" d="M16 831l277 111h43v-194q100 100 119 114q45 39 96 59.5t102 20.5q86 0 148.5 -49t83.5 -145q102 121 173.5 157.5t145.5 36.5t130.5 -37t88.5 -123q23 -57 23 -182v-393q0 -86 12 -119q10 -20 38 -35.5t87 -15.5v-37h-450v37h18q59 0 92 22q23 16 33 52q4 16 4 96v393 q0 113 -27 160q-39 63 -125 63q-53 0 -106 -26.5t-129 -98.5l-2 -12l2 -43v-436q0 -94 10 -116.5t39 -38t98 -15.5v-37h-462v37q76 0 104.5 17.5t40.5 54.5q4 16 4 98v393q0 113 -33 162q-45 63 -123 63q-55 0 -106 -28q-84 -43 -129 -99v-491q0 -90 12 -117t37 -40t100 -13 v-37h-452v37q61 0 86.5 13t38 43t12.5 114v350q0 152 -8 195q-6 33 -21.5 46t-42.5 13t-65 -16z" />
<glyph unicode="n" horiz-adv-x="1024" d="M12 831l277 111h43v-192q159 192 305 192h2q74 0 128 -37t87 -123q20 -59 20 -184v-391q0 -86 15 -119q10 -25 34.5 -38t92.5 -13v-37h-455v37h21q63 0 88.5 19.5t36.5 56.5q4 14 4 94v375q0 125 -33 181t-111 56q-119 0 -235 -129v-483q0 -92 10 -115q14 -29 39 -42 t98 -13v-37h-452v37h20q70 0 94.5 34.5t24.5 135.5v340q0 166 -7 201.5t-22.5 49t-42.5 13.5q-29 0 -67 -16z" />
<glyph unicode="o" horiz-adv-x="1024" d="M70 449q0 127 62.5 250.5t163.5 183t216 59.5q209 0 334 -158q106 -135 106 -309q0 -123 -58 -249t-161.5 -190.5t-230.5 -64.5q-207 0 -330 166q-102 139 -102 312zM256 532q0 -199 79 -344t210 -145q96 0 159.5 80t63.5 274q0 244 -106 385q-70 97 -181 97 q-53 0 -106 -32t-86 -111t-33 -204z" />
<glyph unicode="p" horiz-adv-x="1024" d="M-6 -401h24q55 0 95 20q18 12 28.5 37t10.5 125v864q0 90 -8.5 113.5t-26 36t-45.5 12.5q-25 0 -62 -14l-12 32l283 113h36v-213q72 121 143.5 169t149.5 48q139 0 232 -106q112 -132 112 -340q0 -242 -137 -398q-111 -127 -280 -127q-74 0 -129 23q-39 14 -91 59v-278 q0 -94 12.5 -120t40 -41t103.5 -15v-37h-479v37zM317 324q0 -111 11 -146q14 -57 68.5 -101t135.5 -44q100 0 162 78q82 102 82 286q0 209 -92 324q-63 78 -152 78q-49 0 -96 -25q-35 -18 -119 -108v-342z" />
<glyph unicode="q" horiz-adv-x="1024" d="M68 418q0 231 138 377.5t333 146.5q57 0 105 -15.5t85 -47.5q59 29 113 63h32v-1178q0 -88 12.5 -112.5t38 -38.5t99.5 -14v-37h-463v37h21q55 0 84 16q20 10 32.5 39t12.5 110v396q-92 -109 -160 -149t-141 -40q-133 0 -237.5 121t-104.5 326zM236 489q0 -184 81.5 -280 t196.5 -96q59 0 105.5 25.5t91.5 82.5v430q0 76 -19.5 119t-70 72.5t-113.5 29.5q-113 0 -192.5 -95t-79.5 -288z" />
<glyph unicode="r" horiz-adv-x="681" d="M12 831l279 111h41v-205q115 205 235 205q55 0 91 -32.5t36 -78.5q0 -39 -25.5 -65.5t-62.5 -26.5q-35 0 -78 35t-63 35q-18 0 -39 -21q-45 -41 -94 -135v-440q0 -76 18 -115q14 -27 47 -44t95 -17v-37h-469v37q70 0 104 20q25 16 35 52q6 18 6 98v354q0 160 -7 190.5 t-24.5 45t-44.5 14.5q-31 0 -69 -16z" />
<glyph unicode="s" horiz-adv-x="796" d="M100 678q0 113 78 188.5t201 75.5q53 0 131 -22q49 -14 68 -15q16 0 24 7.5t21 29.5h32v-311h-32q-37 147 -96.5 200.5t-151.5 53.5q-72 0 -115 -37t-43 -82q0 -57 33 -96q31 -41 127 -88l145 -70q203 -100 203 -262q0 -125 -94 -202t-211 -77q-84 0 -193 31 q-33 10 -55 10q-23 0 -35 -26h-33v327h33q29 -141 108 -211.5t177 -70.5q68 0 112 41t44 98q0 68 -49.5 115t-194 118.5t-189.5 131.5q-45 57 -45 143z" />
<glyph unicode="t" horiz-adv-x="569" d="M20 846v33q55 23 112.5 75t103.5 123q23 39 63 140h31v-302h215v-69h-215v-594q0 -88 25.5 -120t66.5 -32q33 0 63.5 20.5t46.5 61.5h39q-35 -98 -98 -147t-131 -49q-47 0 -91 25.5t-64.5 72.5t-20.5 145v617h-146z" />
<glyph unicode="u" horiz-adv-x="1024" d="M2 879v36h322v-612q0 -129 44 -169t107 -40q43 0 97.5 28t129.5 103v518q0 78 -28.5 106t-118.5 30v36h311v-555q0 -158 8.5 -193.5t24.5 -50t39 -14.5q31 0 70 19l14 -35l-274 -115h-46v195q-119 -127 -180 -161t-131 -34q-78 0 -134 45t-77.5 115t-21.5 199v407 q0 66 -14 91q-14 26 -42 40q-24 12 -82 11h-18z" />
<glyph unicode="v" horiz-adv-x="1024" d="M16 879v36h433v-36h-29q-39 0 -59.5 -18.5t-20.5 -51.5q0 -35 20 -84l213 -506l215 526q23 55 23 84q0 14 -8 25q-10 14 -27.5 19.5t-68.5 5.5v36h299v-36q-53 -4 -72 -21q-37 -31 -64 -100l-325 -787h-41l-328 774q-20 53 -40.5 77t-51.5 40q-16 8 -68 17z" />
<glyph unicode="w" horiz-adv-x="1478" d="M12 879v36h385v-36q-53 -4 -69.5 -18.5t-16.5 -43.5q0 -31 17 -76l196 -526l197 428l-51 135q-25 61 -64 84q-23 14 -82 17v36h437v-36q-72 -2 -103 -25q-20 -16 -20 -51q0 -20 8 -41l209 -526l192 505q20 55 21 86q0 20 -19.5 35t-77.5 17v36h289v-36q-88 -12 -129 -117 l-305 -791h-41l-229 586l-267 -586h-36l-295 770q-29 74 -56.5 99.5t-89.5 38.5z" />
<glyph unicode="x" horiz-adv-x="1024" d="M27 879v36h432v-36q-41 0 -58.5 -13.5t-17.5 -38.5q0 -23 37 -73q10 -16 33 -49l63 -105l76 105q72 98 72 124q0 20 -16.5 35t-55.5 15v36h309v-36q-47 -2 -84 -27q-49 -35 -135 -147l-125 -168l229 -328q84 -121 120 -145.5t93 -26.5v-37h-432v37q45 0 70 18 q18 14 18 37q0 25 -63 117l-133 197l-148 -197q-67 -89 -67 -108q0 -24 22.5 -43t67.5 -21v-37h-299v37q35 4 61 24q39 29 129 148l193 256l-174 252q-74 106 -115 134t-102 28z" />
<glyph unicode="y" horiz-adv-x="1024" d="M12 879v36h426v-36h-20q-45 0 -67.5 -19.5t-22.5 -48.5q0 -39 32 -109l224 -460l204 506q18 41 19 79q0 18 -8 27q-8 12 -24.5 18.5t-59.5 6.5v36h297v-36q-37 -4 -56.5 -15.5t-44.5 -46.5q-10 -12 -34 -76l-373 -913q-53 -133 -141.5 -201.5t-167.5 -68.5 q-59 0 -97.5 33.5t-38.5 78.5q0 41 28 66.5t75 25.5q33 0 90 -20q41 -16 49 -16q31 0 66.5 30.5t70.5 120.5l66 160l-330 690q-14 31 -47 78q-25 35 -41 47q-23 14 -74 27z" />
<glyph unicode="z" horiz-adv-x="909" d="M41 0v37l608 809h-301q-96 0 -125.5 -12.5t-50.5 -47.5q-27 -51 -31 -124h-39l7 253h768v-36l-615 -811h334q104 0 142 17t61 60q16 33 26 136h35l-10 -281h-809z" />
<glyph unicode="{" horiz-adv-x="983" d="M283 469v43q106 12 167.5 74.5t61.5 136.5q0 51 -23.5 146.5t-23.5 168.5q0 135 104.5 249t272.5 134v-35q-117 -27 -172.5 -90t-55.5 -141q0 -57 22.5 -154.5t22.5 -164.5q0 -100 -73.5 -195.5t-220.5 -146.5q145 -53 219.5 -150.5t74.5 -198.5q0 -68 -22.5 -165 t-22.5 -154q0 -78 55.5 -141.5t172.5 -92.5v-34q-168 23 -272.5 135t-104.5 250q0 72 23.5 168t23.5 147q0 74 -61.5 136.5t-167.5 74.5z" />
<glyph unicode="|" horiz-adv-x="409" d="M162 -442v1863h82v-1863h-82z" />
<glyph unicode="}" horiz-adv-x="983" d="M176 -408q119 29 173 92.5t54 141.5q0 57 -23.5 154.5t-23.5 162.5q0 102 75 197.5t222 146.5q-143 53 -220 150.5t-77 198.5q0 68 23.5 165t23.5 154q0 78 -54 141t-173 90v35q168 -20 272.5 -132.5t104.5 -252.5q0 -72 -22.5 -167t-22.5 -146q0 -74 60.5 -136.5 t166.5 -74.5v-43q-106 -12 -166.5 -74.5t-60.5 -136.5q0 -51 22.5 -147.5t22.5 -167.5q0 -135 -104.5 -249t-272.5 -136v34z" />
<glyph unicode="~" horiz-adv-x="1107" d="M43 399q6 135 74.5 207t161.5 72q43 0 90 -14q102 -29 272 -102t240 -73q74 0 125 48.5t61 138.5h43q-2 -131 -72.5 -205t-171.5 -74q-47 0 -99 15.5t-273 105.5q-154 66 -220 66q-70 0 -117.5 -43t-68.5 -142h-45z" />
<glyph unicode="&#xa1;" horiz-adv-x="681" d="M227 -291q0 25 6 68l89 811h38l89 -811q6 -53 6 -78q0 -63 -34 -102t-79 -39q-47 0 -81 37.5t-34 113.5zM231 862q0 47 33 80t78 33q47 0 79 -33t32 -80q0 -45 -33 -76.5t-78 -31.5t-78 31.5t-33 76.5z" />
<glyph unicode="&#xa2;" horiz-adv-x="1024" d="M129 453q0 254 158 389q119 104 272 104q20 0 62 -4l139 383h71l-145 -401q102 -45 139 -86q47 -55 47 -115q0 -41 -23.5 -63.5t-70.5 -22.5q-53 0 -86 39q-16 20 -24 82q-4 31 -19 63l-227 -631q55 -37 94 -51q29 -10 70 -10q59 0 115.5 25.5t85 60.5t83.5 147l29 -14 q-45 -186 -162 -291q-90 -82 -221 -82q-82 0 -162 35l-141 -389h-72l156 426q-82 78 -117 156q-51 109 -51 250zM289 535q0 -74 17.5 -137.5t64.5 -147.5l223 614q-29 12 -62 13q-102 0 -161 -74q-82 -100 -82 -268z" />
<glyph unicode="&#xa3;" horiz-adv-x="1024" d="M61 104q0 68 46.5 112t117.5 44q16 0 38 -2t46 -4q2 25 3 44t1 32q0 88 -20 329h-195v95h195q-14 150 -14 198q0 123 49 224.5t136 154.5t185 53q125 0 188.5 -68.5t63.5 -135.5q0 -31 -23.5 -56.5t-54.5 -25.5q-37 0 -61 39q-12 16 -16.5 76.5t-32.5 86.5q-31 29 -88 29 q-78 0 -130.5 -62.5t-52.5 -217.5q0 -72 13 -187q8 -76 10 -108h258v-95h-258q2 -47 2 -67q0 -94 -14.5 -174t-49.5 -185q197 -63 226 -69q51 -12 100 -12q84 0 136.5 38.5t74.5 120.5l37 -8q-20 -162 -103 -245t-184 -83q-68 0 -123 25t-202 135q-41 -80 -87.5 -120 t-99.5 -40q-51 0 -84 35t-33 94zM119 113q0 -37 19.5 -57.5t43.5 -20.5q33 0 65 30.5t52 106.5q-23 14 -44.5 21.5t-41.5 7.5q-45 0 -69.5 -24.5t-24.5 -63.5z" />
<glyph unicode="&#xa4;" horiz-adv-x="1024" d="M27 254l143 143q-100 117 -100 283q0 158 100 283l-143 141l57 57l145 -141q51 45 131 72.5t154 27.5q70 0 146 -25.5t135 -74.5l143 141l57 -57l-143 -141q102 -131 102 -281q0 -154 -102 -285l143 -143l-57 -55l-143 143q-135 -104 -271 -104q-88 0 -172 30.5 t-123 73.5l-145 -143zM150 678q0 -147 106 -254t256 -107q147 0 254.5 107.5t107.5 255.5q0 90 -49 178t-135 135t-178 47q-152 0 -257 -106.5t-105 -255.5z" />
<glyph unicode="&#xa5;" horiz-adv-x="1024" d="M2 352v74h424v143l-14 35h-410v74h377l-213 496q-37 88 -73 115.5t-91 29.5v37h442v-37q-72 -6 -96 -23.5t-24 -40.5q0 -16 18 -59l213 -518l213 504q20 51 20 75q0 20 -20 41q-14 12 -63 17q-10 0 -27 4v37h346v-37q-61 0 -88 -25q-43 -35 -86 -131l-213 -485h387v-74 h-420l-6 -14v-164h426v-74h-426v-108q0 -113 10 -144q8 -20 33 -37q39 -23 86 -22h41v-41h-514v41h31q70 0 104 27q25 18 33 57q4 18 4 119v108h-424z" />
<glyph unicode="&#xa6;" horiz-adv-x="409" d="M162 299h82v-741h-82v741zM162 680v741h82v-741h-82z" />
<glyph unicode="&#xa7;" horiz-adv-x="1024" d="M156 504q0 92 54 181t167 159q-68 74 -95.5 134t-27.5 124q0 117 82 199.5t201 82.5q111 0 182.5 -67.5t71.5 -153.5q0 -39 -27 -67q-18 -23 -53 -23q-33 0 -55.5 23.5t-22.5 54.5q0 14 8 53q4 23 4 43q0 41 -28.5 67.5t-79.5 26.5q-72 0 -123.5 -51t-51.5 -123 q0 -63 27 -106q45 -70 152 -148q201 -145 274 -260q53 -82 53 -172t-53 -181t-168 -161q70 -76 96.5 -132t26.5 -122q0 -121 -82 -202.5t-203 -81.5q-106 0 -177.5 68.5t-71.5 156.5q0 37 23.5 62.5t53.5 25.5q31 0 52.5 -23.5t21.5 -64.5q0 -27 -7 -59.5t-7 -49.5 q0 -29 24 -49q39 -29 95 -28q68 0 122 52t54 111q0 63 -31 111q-47 76 -174 172q-188 139 -256 246q-51 82 -51 172zM258 590q0 -70 37 -129q51 -80 197 -191q70 -53 122 -100q154 92 154 219q0 66 -44 136.5t-181 176.5q-82 64 -133 109q-152 -90 -152 -221z" />
<glyph unicode="&#xa8;" horiz-adv-x="681" d="M57 1229q0 45 32 76.5t77 31.5t76.5 -31.5t31.5 -76.5t-31.5 -77t-76.5 -32t-77 32t-32 77zM410 1229q0 45 31.5 76.5t76.5 31.5t77 -31.5t32 -76.5t-32 -77t-77 -32t-76.5 32t-31.5 77z" />
<glyph unicode="&#xa9;" horiz-adv-x="1556" d="M70 678q0 184 95 355t265 262t348 91t348 -91t266.5 -262t96.5 -355t-94.5 -353t-263 -262.5t-353.5 -93.5q-184 0 -353 93.5t-262 262.5t-93 353zM131 678q0 -168 85 -321.5t239.5 -239.5t322.5 -86t322.5 86t239.5 239.5t85 321.5q0 170 -87 324.5t-241.5 238.5 t-318.5 84t-318.5 -84t-241.5 -238.5t-87 -324.5zM319 672q0 193 140.5 328t357.5 135q47 0 78 -6.5t109 -30.5q25 -8 36 -8q16 0 26.5 8t23.5 37h38l21 -281h-39q-37 119 -114.5 177.5t-188.5 58.5q-82 0 -145.5 -34t-106.5 -91q-29 -43 -49.5 -114t-20.5 -151 q0 -211 91.5 -311t240.5 -100q195 0 311 162l37 -21q-139 -203 -383 -203q-199 0 -331 130t-132 315z" />
<glyph unicode="&#xaa;" horiz-adv-x="565" d="M-6 911q0 43 22 76q29 47 107 94q51 31 217 99q0 109 -26.5 142.5t-80.5 33.5q-47 0 -70.5 -21.5t-23.5 -66.5t-16.5 -65.5t-40.5 -20.5q-23 0 -39 16t-16 43q0 55 56 99t177 44q92 0 141.5 -30.5t62.5 -64.5t13 -109v-217q0 -53 2 -62q4 -12 13 -20q6 -6 12 -7 q14 0 57 31v-49q-72 -51 -97.5 -62.5t-49.5 -11.5q-27 0 -46.5 20.5t-27.5 76.5q-63 -45 -116.5 -69t-98.5 -24q-53 0 -92 38t-39 87zM133 958q0 -35 25.5 -60.5t62.5 -25.5q23 0 52.5 11.5t66.5 31.5v228q-121 -41 -164 -89t-43 -96z" />
<glyph unicode="&#xab;" horiz-adv-x="1024" d="M63 465l388 469h57l-244 -469l244 -473h-57zM508 465l393 469h60l-244 -469l244 -473h-60z" />
<glyph unicode="&#xac;" horiz-adv-x="1155" d="M37 797v82h1079v-408h-80v326h-999z" />
<glyph unicode="&#xad;" horiz-adv-x="681" d="M84 383v152h516v-152h-516z" />
<glyph unicode="&#xae;" horiz-adv-x="1556" d="M70 678q0 184 95 355t265 262t348 91t348 -91t266.5 -262t96.5 -355t-94.5 -353t-263 -262.5t-353.5 -93.5q-184 0 -353 93.5t-262 262.5t-93 353zM131 678q0 -168 85 -321.5t239.5 -239.5t322.5 -86t322.5 86t239.5 239.5t85 321.5q0 170 -87 324.5t-241.5 238.5 t-318.5 84t-318.5 -84t-241.5 -238.5t-87 -324.5zM375 250v33q47 0 67.5 11t28.5 34q6 14 6 92v522q0 76 -2 88q-6 23 -25.5 35t-64.5 12v37h387q145 0 221 -65.5t76 -157.5q0 -78 -51 -135.5t-170 -87.5l209 -297q37 -53 67 -74q18 -12 54 -14v-33h-185l-295 403h-75v-309 q6 -33 28.5 -47t89.5 -14v-33h-366zM623 696q119 0 173 23.5t82.5 64.5t28.5 95q0 82 -56 136t-144 54q-37 0 -84 -14v-359z" />
<glyph unicode="&#xaf;" horiz-adv-x="1024" d="M-16 1462v84h1058v-84h-1058z" />
<glyph unicode="&#xb0;" horiz-adv-x="819" d="M98 1077q0 129 89.5 219t218.5 90t218 -90t89 -219q0 -127 -90.5 -217t-216.5 -90q-127 0 -217.5 90t-90.5 217zM182 1079q0 -92 64.5 -157.5t159.5 -65.5q92 0 157.5 65.5t65.5 157.5t-65.5 158t-157.5 66q-94 0 -159 -66t-65 -158z" />
<glyph unicode="&#xb1;" horiz-adv-x="1124" d="M23 141v80h497v418h-497v84h497v496h80v-496h502v-84h-502v-418h502v-80h-1079z" />
<glyph unicode="&#xb2;" horiz-adv-x="614" d="M20 664v28q246 193 328 314q49 74 49 143q0 61 -41 102t-104 41q-57 0 -100 -28.5t-66 -87.5h-43q12 98 75.5 153t166.5 55q104 0 170.5 -58t66.5 -130q0 -66 -47 -141q-76 -117 -295 -295h187q86 0 114.5 12t48.5 43h45l-61 -151h-494z" />
<glyph unicode="&#xb3;" horiz-adv-x="614" d="M43 713q0 16 17.5 30.5t41.5 14.5q29 0 82.5 -24.5t89.5 -24.5q57 0 97.5 39.5t40.5 93.5q0 45 -27 86t-70 55q-59 25 -106 25h-31v26q78 0 130 47t52 109q0 49 -32.5 79.5t-87.5 30.5q-84 0 -148 -88l-37 17q35 74 80 108q66 47 150 47q92 0 145 -46t53 -101 q0 -68 -104 -156q72 -25 107.5 -74t35.5 -108q0 -102 -85 -176t-247 -74q-84 0 -120 25q-27 16 -27 39z" />
<glyph unicode="&#xb4;" horiz-adv-x="681" d="M236 1044l106 347h223l-295 -347h-34z" />
<glyph unicode="&#xb5;" horiz-adv-x="1179" d="M133 -334q0 47 31 166q18 80 20 105q12 102 13 178v75v725h163v-532q0 -145 19 -199q12 -39 47 -64.5t76 -25.5q119 0 235 135v686h166v-653q0 -100 8 -131q6 -25 23.5 -38t36.5 -13q27 0 45 22q25 31 37 103h41q-8 -121 -62.5 -177.5t-136.5 -56.5q-78 0 -119 60 q-31 43 -39 131q-86 -102 -160.5 -146.5t-152.5 -44.5q-53 0 -92 23q-29 14 -64 63v-47q0 -78 33 -237q14 -61 14 -105q0 -49 -28.5 -79.5t-65.5 -30.5t-62.5 28.5t-25.5 79.5z" />
<glyph unicode="&#xb6;" horiz-adv-x="927" d="M-14 981q0 111 43 180q57 96 154.5 145.5t252.5 49.5h496v-56h-133v-1742h-74v1742h-186v-1742h-72v1042q-193 8 -287 51t-144 131t-50 199z" />
<glyph unicode="&#xb7;" horiz-adv-x="512" d="M145 678q0 47 33 78.5t78 31.5q47 0 79 -31.5t32 -78.5q0 -45 -33 -78t-78 -33t-78 33t-33 78z" />
<glyph unicode="&#xb8;" horiz-adv-x="681" d="M186 -340q29 -4 50 -4q51 0 85.5 34t34.5 77q0 29 -23.5 51t-56.5 22q-10 0 -26 -2l110 178h62l-51 -79q63 -16 94 -54.5t31 -91.5q0 -72 -59.5 -126t-155.5 -54q-37 0 -95 6v43z" />
<glyph unicode="&#xb9;" horiz-adv-x="614" d="M135 1296l207 88h35v-591q0 -61 6 -74q4 -10 14 -14q16 -8 80 -9v-32h-325v32q63 0 79 6q12 6 17.5 16.5t5.5 74.5v372q0 72 -4 95q-4 16 -11.5 22t-19.5 6q-20 0 -67 -18z" />
<glyph unicode="&#xba;" horiz-adv-x="634" d="M29 1075q0 137 83 223t212 86q125 0 205.5 -85t80.5 -207q0 -125 -89 -215.5t-210 -90.5q-119 0 -200.5 82t-81.5 207zM170 1153q0 -160 70 -258q39 -57 102 -57q55 0 93 45t38 141q0 156 -72 256q-43 61 -104 61q-53 0 -90 -45t-37 -143z" />
<glyph unicode="&#xbb;" horiz-adv-x="1024" d="M63 -8l244 471l-244 471h60l393 -471l-393 -471h-60zM516 -8l244 471l-244 471h57l388 -471l-388 -471h-57z" />
<glyph unicode="&#xbc;" horiz-adv-x="1536" d="M133 1296l207 88h35v-591q0 -61 6 -74q4 -10 14 -14q16 -8 80 -9v-32h-325v32q63 0 79 6q12 6 17.5 16.5t5.5 74.5v372q0 72 -4 95q-4 16 -11.5 22t-19.5 6q-20 0 -67 -18zM268 -53l934 1437h90l-934 -1437h-90zM934 143v72l375 467h84v-459h108v-80h-108v-184h-117v184 h-342zM1016 223h260v318z" />
<glyph unicode="&#xbd;" horiz-adv-x="1536" d="M133 1296l207 88h35v-591q0 -61 6 -74q4 -10 14 -14q16 -8 80 -9v-32h-325v32q63 0 79 6q12 6 17.5 16.5t5.5 74.5v372q0 72 -4 95q-4 16 -11.5 22t-19.5 6q-20 0 -67 -18zM244 -53l936 1437h88l-934 -1437h-90zM938 -10q248 193 330 313q49 74 49 143q0 61 -41 102.5 t-105 41.5q-57 0 -100 -30t-65 -89h-45q14 98 77.5 154.5t163.5 56.5q106 0 173 -59.5t67 -128.5q0 -68 -47 -144q-76 -115 -295 -293h186q86 0 115 11.5t49 44.5h43l-59 -154h-496v31z" />
<glyph unicode="&#xbe;" horiz-adv-x="1536" d="M43 713q0 16 16.5 30.5t40.5 14.5q29 0 82.5 -24.5t89.5 -24.5q57 0 97.5 39.5t40.5 93.5q0 72 -56.5 120t-177.5 46v26q78 0 130 47t52 109q0 49 -32.5 79.5t-87.5 30.5q-84 0 -148 -88l-37 17q35 74 80 108q66 47 150 47q92 0 145 -46t53 -101q0 -68 -104 -156 q72 -25 107.5 -74t35.5 -108q0 -102 -85 -176t-247 -74q-84 0 -120 25q-25 16 -25 39zM256 -53l936 1437h86l-932 -1437h-90zM934 143v72l375 467h84v-459h108v-80h-108v-184h-115v184h-344zM1018 223h260v318z" />
<glyph unicode="&#xbf;" horiz-adv-x="909" d="M88 -125q0 82 31 152q43 98 149.5 222t136 191.5t35.5 186.5h39q-4 -125 -23.5 -198t-102.5 -247t-83 -288q0 -131 66.5 -204t171.5 -73q86 0 136 42t50 89q0 33 -30.5 86t-30.5 84q0 35 23.5 58.5t56.5 23.5q41 0 75.5 -42t34.5 -110q0 -115 -97 -202.5t-265 -87.5 q-170 0 -271.5 93t-101.5 224zM342 864q0 45 32 78t79 33q45 0 77.5 -33t32.5 -78q0 -47 -32.5 -78.5t-77.5 -31.5q-47 0 -79 31.5t-32 78.5z" />
<glyph unicode="&#xc0;" horiz-adv-x="1478" d="M16 0v37q84 14 111 39q49 49 113 194l477 1116h35l471 -1128q57 -135 103 -175t130 -46v-37h-534v37q80 4 108.5 26.5t28.5 57.5q0 43 -39 137l-82 197h-526l-93 -215q-33 -78 -32 -117q0 -33 28.5 -56.5t126.5 -29.5v-37h-426zM442 528h467l-229 547zM512 1796h223 l107 -344h-35z" />
<glyph unicode="&#xc1;" horiz-adv-x="1478" d="M16 0v37q84 14 111 39q49 49 113 194l477 1116h35l471 -1128q57 -135 103 -175t130 -46v-37h-534v37q80 4 108.5 26.5t28.5 57.5q0 43 -39 137l-82 197h-526l-93 -215q-33 -78 -32 -117q0 -33 28.5 -56.5t126.5 -29.5v-37h-426zM442 528h467l-229 547zM631 1452l104 344 h223l-294 -344h-33z" />
<glyph unicode="&#xc2;" horiz-adv-x="1478" d="M16 0v37q84 14 111 39q49 49 113 194l477 1116h35l471 -1128q57 -135 103 -175t130 -46v-37h-534v37q80 4 108.5 26.5t28.5 57.5q0 43 -39 137l-82 197h-526l-93 -215q-33 -78 -32 -117q0 -33 28.5 -56.5t126.5 -29.5v-37h-426zM442 528h467l-229 547zM455 1462l188 330 h184l191 -330h-33l-272 213l-230 -213h-28z" />
<glyph unicode="&#xc3;" horiz-adv-x="1478" d="M16 0v37q84 14 111 39q49 49 113 194l477 1116h35l471 -1128q57 -135 103 -175t130 -46v-37h-534v37q80 4 108.5 26.5t28.5 57.5q0 43 -39 137l-82 197h-526l-93 -215q-33 -78 -32 -117q0 -33 28.5 -56.5t126.5 -29.5v-37h-426zM418 1464q4 137 56 198.5t130 61.5 q41 0 76 -14q45 -16 128 -70.5t122 -54.5q33 0 57.5 26.5t36.5 112.5h33q0 -94 -25.5 -148t-72 -85t-93.5 -31q-80 0 -196 80q-63 43 -85 52.5t-42 9.5q-41 0 -66 -35q-10 -19 -28 -103h-31zM442 528h467l-229 547z" />
<glyph unicode="&#xc4;" horiz-adv-x="1478" d="M16 0v37q84 14 111 39q49 49 113 194l477 1116h35l471 -1128q57 -135 103 -175t130 -46v-37h-534v37q80 4 108.5 26.5t28.5 57.5q0 43 -39 137l-82 197h-526l-93 -215q-33 -78 -32 -117q0 -33 28.5 -56.5t126.5 -29.5v-37h-426zM442 528h467l-229 547zM451 1599 q0 45 30.5 77t75.5 32q47 0 79 -31.5t32 -77.5q0 -45 -33 -76.5t-76 -31.5q-45 0 -76.5 31.5t-31.5 76.5zM803 1599q0 45 31.5 77t76.5 32t77 -31.5t32 -77.5q0 -45 -32 -76.5t-77 -31.5t-76.5 31.5t-31.5 76.5z" />
<glyph unicode="&#xc5;" horiz-adv-x="1478" d="M16 0v37q84 14 111 39q49 49 113 194l477 1116h35l471 -1128q57 -135 103 -175t130 -46v-37h-534v37q80 4 108.5 26.5t28.5 57.5q0 43 -39 137l-82 197h-526l-93 -215q-33 -78 -32 -117q0 -33 28.5 -56.5t126.5 -29.5v-37h-426zM442 528h467l-229 547zM541 1509 q0 80 55 136.5t135 56.5t136.5 -56.5t56.5 -136.5t-56.5 -135t-136.5 -55t-135 55.5t-55 134.5zM608 1509q0 -49 36 -84.5t87 -35.5t87 35.5t36 84.5q0 51 -36 87t-87 36t-87 -35.5t-36 -87.5z" />
<glyph unicode="&#xc6;" horiz-adv-x="1820" d="M-25 0v37q45 2 77 19.5t69 64.5t92 153l414 770q76 143 75 193q0 33 -26 51q-35 25 -146 31v37h1110l17 -297h-35q-12 102 -49 155q-29 39 -80 58q-29 10 -135 10h-332v-537h258q115 0 162 43t55 154h35v-471h-35q-12 100 -32.5 135t-67.5 56q-25 12 -117 12h-258v-451 q0 -90 7 -107.5t29.5 -29.5t80.5 -12h180q111 0 169 18.5t114 69.5q74 68 120 180h37l-106 -342h-1018v37h49q84 0 123 49q25 33 25 154v284h-398l-123 -231q-70 -133 -69 -174q0 -29 29.5 -52.5t125.5 -29.5v-37h-426zM477 598h359v684z" />
<glyph unicode="&#xc7;" horiz-adv-x="1366" d="M74 657q0 203 91 373t250.5 263t348.5 93q147 0 291 -71q41 -23 59 -23q27 0 47 21q27 27 37 73h35l31 -460h-31q-61 207 -177 298t-276 91q-135 0 -244.5 -68.5t-172 -218t-62.5 -373.5q0 -184 59.5 -319t178 -207t270.5 -72q131 0 232.5 56.5t222.5 224.5l30 -21 q-100 -180 -236 -264t-325 -84q-336 0 -520 250q-139 186 -139 438zM524 -340q29 -4 47 -4q51 0 86 34t35 77q0 29 -22.5 51t-57.5 22q-10 0 -24 -2l110 178h60l-49 -79q61 -16 93 -54.5t32 -91.5q0 -72 -60.5 -126t-155.5 -54q-37 0 -94 6v43z" />
<glyph unicode="&#xc8;" horiz-adv-x="1251" d="M43 0v37h47q47 0 90 22q33 16 44.5 48t11.5 133v880q0 129 -25 160q-37 39 -121 39h-47v37h1044l15 -297h-39q-20 106 -46 146t-77 63q-39 14 -139 14h-373v-537h297q117 0 156 35q53 47 57 162h39v-471h-39q-12 98 -27 127q-18 35 -59 55.5t-127 20.5h-297v-449 q0 -90 8 -109.5t27.5 -30.5t77.5 -11h229q115 0 167 16t99 64q63 61 127 186h41l-117 -340h-1044zM406 1796h223l106 -344h-35z" />
<glyph unicode="&#xc9;" horiz-adv-x="1251" d="M43 0v37h47q47 0 90 22q33 16 44.5 48t11.5 133v880q0 129 -25 160q-37 39 -121 39h-47v37h1044l15 -297h-39q-20 106 -46 146t-77 63q-39 14 -139 14h-373v-537h297q117 0 156 35q53 47 57 162h39v-471h-39q-12 98 -27 127q-18 35 -59 55.5t-127 20.5h-297v-449 q0 -90 8 -109.5t27.5 -30.5t77.5 -11h229q115 0 167 16t99 64q63 61 127 186h41l-117 -340h-1044zM524 1452l105 344h225l-297 -344h-33z" />
<glyph unicode="&#xca;" horiz-adv-x="1251" d="M43 0v37h47q47 0 90 22q33 16 44.5 48t11.5 133v880q0 129 -25 160q-37 39 -121 39h-47v37h1044l15 -297h-39q-20 106 -46 146t-77 63q-39 14 -139 14h-373v-537h297q117 0 156 35q53 47 57 162h39v-471h-39q-12 98 -27 127q-18 35 -59 55.5t-127 20.5h-297v-449 q0 -90 8 -109.5t27.5 -30.5t77.5 -11h229q115 0 167 16t99 64q63 61 127 186h41l-117 -340h-1044zM348 1462l189 330h184l190 -330h-30l-275 213l-227 -213h-31z" />
<glyph unicode="&#xcb;" horiz-adv-x="1251" d="M43 0v37h47q47 0 90 22q33 16 44.5 48t11.5 133v880q0 129 -25 160q-37 39 -121 39h-47v37h1044l15 -297h-39q-20 106 -46 146t-77 63q-39 14 -139 14h-373v-537h297q117 0 156 35q53 47 57 162h39v-471h-39q-12 98 -27 127q-18 35 -59 55.5t-127 20.5h-297v-449 q0 -90 8 -109.5t27.5 -30.5t77.5 -11h229q115 0 167 16t99 64q63 61 127 186h41l-117 -340h-1044zM344 1599q0 45 32 77t77 32t76.5 -31.5t31.5 -77.5q0 -45 -31.5 -76.5t-76.5 -31.5t-77 31.5t-32 76.5zM696 1599q0 45 32 77t77 32t76.5 -31.5t31.5 -77.5 q0 -45 -31.5 -76.5t-76.5 -31.5t-77 31.5t-32 76.5z" />
<glyph unicode="&#xcc;" horiz-adv-x="681" d="M51 0v37h47q84 0 123 49q25 33 25 154v876q0 102 -15 135q-10 27 -41 43q-43 25 -92 25h-47v37h582v-37h-49q-84 0 -121 -49q-27 -33 -27 -154v-876q0 -102 15 -136q10 -25 41 -43q43 -25 92 -24h49v-37h-582zM119 1796h223l107 -344h-35z" />
<glyph unicode="&#xcd;" horiz-adv-x="681" d="M51 0v37h47q84 0 123 49q25 33 25 154v876q0 102 -15 135q-10 27 -41 43q-43 25 -92 25h-47v37h582v-37h-49q-84 0 -121 -49q-27 -33 -27 -154v-876q0 -102 15 -136q10 -25 41 -43q43 -25 92 -24h49v-37h-582zM236 1452l106 344h223l-295 -344h-34z" />
<glyph unicode="&#xce;" horiz-adv-x="681" d="M51 0v37h47q84 0 123 49q25 33 25 154v876q0 102 -15 135q-10 27 -41 43q-43 25 -92 25h-47v37h582v-37h-49q-84 0 -121 -49q-27 -33 -27 -154v-876q0 -102 15 -136q10 -25 41 -43q43 -25 92 -24h49v-37h-582zM59 1462l191 330h182l191 -330h-31l-273 213l-229 -213h-31z " />
<glyph unicode="&#xcf;" horiz-adv-x="681" d="M51 0v37h47q84 0 123 49q25 33 25 154v876q0 102 -15 135q-10 27 -41 43q-43 25 -92 25h-47v37h582v-37h-49q-84 0 -121 -49q-27 -33 -27 -154v-876q0 -102 15 -136q10 -25 41 -43q43 -25 92 -24h49v-37h-582zM57 1599q0 45 32 77t77 32t76.5 -31.5t31.5 -77.5 q0 -45 -31.5 -76.5t-76.5 -31.5t-77 31.5t-32 76.5zM410 1599q0 45 31.5 77t76.5 32t77 -31.5t32 -77.5q0 -45 -32 -76.5t-77 -31.5t-76.5 31.5t-31.5 76.5z" />
<glyph unicode="&#xd0;" horiz-adv-x="1478" d="M35 0v37h51q86 0 123 55q20 33 20 148v438h-194v74h194v364q0 127 -26 160q-39 43 -117 43h-51v37h553q313 0 464.5 -72t250 -229.5t98.5 -368.5q0 -287 -184.5 -486.5t-577.5 -199.5h-604zM424 100q127 -29 213 -28q229 0 383 162.5t154 443.5t-154 442.5t-391 161.5 q-90 0 -205 -29v-501h391v-74h-391v-578z" />
<glyph unicode="&#xd1;" horiz-adv-x="1478" d="M-27 1319v37h369l827 -1016v780q0 125 -26 158q-37 41 -119 41h-45v37h471v-37h-47q-86 0 -123 -51q-23 -33 -23 -148v-1143h-34l-895 1092v-833q0 -125 26 -156q39 -43 117 -43h49v-37h-473v37h47q88 0 123 51q23 33 23 148v942q-59 70 -89 91t-90 42q-29 8 -88 8z M416 1464q4 137 57 198.5t131 61.5q41 0 76 -14q45 -16 127 -70.5t123 -54.5q31 0 55.5 26.5t38.5 112.5h31q2 -94 -23.5 -148t-73 -85t-94.5 -31q-78 0 -194 80q-63 43 -86 52.5t-43 9.5q-41 0 -66 -35q-10 -19 -26 -103h-33z" />
<glyph unicode="&#xd2;" horiz-adv-x="1478" d="M72 682q0 324 221 528q191 176 457 176q264 0 457.5 -200.5t193.5 -499.5q0 -309 -195.5 -513t-472.5 -204q-281 0 -471 199t-190 514zM301 686q0 -332 141 -510q111 -135 289 -135q190 0 315 148.5t125 469.5q0 348 -137 519q-110 137 -305 137q-180 0 -291 -135 q-137 -168 -137 -494zM512 1796h221l107 -344h-35z" />
<glyph unicode="&#xd3;" horiz-adv-x="1478" d="M72 682q0 324 221 528q191 176 457 176q264 0 457.5 -200.5t193.5 -499.5q0 -309 -195.5 -513t-472.5 -204q-281 0 -471 199t-190 514zM301 686q0 -332 141 -510q111 -135 289 -135q190 0 315 148.5t125 469.5q0 348 -137 519q-110 137 -305 137q-180 0 -291 -135 q-137 -168 -137 -494zM629 1452l104 344h223l-294 -344h-33z" />
<glyph unicode="&#xd4;" horiz-adv-x="1478" d="M72 682q0 324 221 528q191 176 457 176q264 0 457.5 -200.5t193.5 -499.5q0 -309 -195.5 -513t-472.5 -204q-281 0 -471 199t-190 514zM301 686q0 -332 141 -510q111 -135 289 -135q190 0 315 148.5t125 469.5q0 348 -137 519q-110 137 -305 137q-180 0 -291 -135 q-137 -168 -137 -494zM453 1462l188 330h184l191 -330h-33l-272 213l-230 -213h-28z" />
<glyph unicode="&#xd5;" horiz-adv-x="1478" d="M72 682q0 324 221 528q191 176 457 176q264 0 457.5 -200.5t193.5 -499.5q0 -309 -195.5 -513t-472.5 -204q-281 0 -471 199t-190 514zM301 686q0 -332 141 -510q111 -135 289 -135q190 0 315 148.5t125 469.5q0 348 -137 519q-110 137 -305 137q-180 0 -291 -135 q-137 -168 -137 -494zM414 1464q4 137 57 198.5t131 61.5q41 0 76 -14q45 -16 127 -70.5t123 -54.5q31 0 55.5 26.5t38.5 112.5h31q2 -94 -23.5 -148t-73 -85t-94.5 -31q-78 0 -194 80q-63 43 -86 52.5t-43 9.5q-41 0 -66 -35q-11 -19 -27 -103h-32z" />
<glyph unicode="&#xd6;" horiz-adv-x="1478" d="M72 682q0 324 221 528q191 176 457 176q264 0 457.5 -200.5t193.5 -499.5q0 -309 -195.5 -513t-472.5 -204q-281 0 -471 199t-190 514zM301 686q0 -332 141 -510q111 -135 289 -135q190 0 315 148.5t125 469.5q0 348 -137 519q-110 137 -305 137q-180 0 -291 -135 q-137 -168 -137 -494zM449 1599q0 45 31.5 77t74.5 32q47 0 79 -31.5t32 -77.5q0 -45 -33 -76.5t-76 -31.5q-45 0 -76.5 31.5t-31.5 76.5zM801 1599q0 45 31.5 77t76.5 32t77 -31.5t32 -77.5q0 -45 -32 -76.5t-77 -31.5t-76.5 31.5t-31.5 76.5z" />
<glyph unicode="&#xd7;" horiz-adv-x="1155" d="M166 328l352 354l-352 350l57 60l352 -353l353 353l55 -58l-350 -352l352 -354l-55 -58l-355 355l-354 -355z" />
<glyph unicode="&#xd8;" horiz-adv-x="1478" d="M74 692q0 293 195.5 493.5t471.5 200.5q228 1 406 -149l131 164l57 -45l-133 -166q104 -115 151.5 -230.5t47.5 -273.5q0 -342 -244 -555q-188 -162 -414 -162q-102 0 -215.5 37t-197.5 107l-129 -160l-60 47l133 164q-201 207 -200 528zM301 696q0 -229 74 -407l688 846 q-117 182 -328 182q-92 0 -145 -23q-76 -31 -135 -96q-78 -88 -116 -215t-38 -287zM416 217q53 -82 116 -121q88 -55 197 -55q106 0 173 31.5t125 97.5t100 185.5t42 299.5q0 123 -18 230q-12 76 -49 178z" />
<glyph unicode="&#xd9;" horiz-adv-x="1478" d="M10 1319v37h588v-37h-53q-84 0 -119 -53q-27 -35 -27 -150v-592q0 -78 14.5 -180t53.5 -159.5t109.5 -94.5t175.5 -37q133 0 238.5 58.5t143 148.5t37.5 307v549q0 127 -26 160q-39 43 -117 43h-51v37h479v-37h-49q-82 0 -125 -68q-20 -31 -20 -143v-551 q0 -203 -40 -315.5t-159 -193.5t-324 -81q-221 0 -335.5 78t-163.5 207q-31 90 -31 334v530q0 125 -35 164t-113 39h-51zM561 1796h223l107 -344h-35z" />
<glyph unicode="&#xda;" horiz-adv-x="1478" d="M10 1319v37h588v-37h-53q-84 0 -119 -53q-27 -35 -27 -150v-592q0 -78 14.5 -180t53.5 -159.5t109.5 -94.5t175.5 -37q133 0 238.5 58.5t143 148.5t37.5 307v549q0 127 -26 160q-39 43 -117 43h-51v37h479v-37h-49q-82 0 -125 -68q-20 -31 -20 -143v-551 q0 -203 -40 -315.5t-159 -193.5t-324 -81q-221 0 -335.5 78t-163.5 207q-31 90 -31 334v530q0 125 -35 164t-113 39h-51zM631 1452l104 344h226l-295 -344h-35z" />
<glyph unicode="&#xdb;" horiz-adv-x="1478" d="M10 1319v37h588v-37h-53q-84 0 -119 -53q-27 -35 -27 -150v-592q0 -78 14.5 -180t53.5 -159.5t109.5 -94.5t175.5 -37q133 0 238.5 58.5t143 148.5t37.5 307v549q0 127 -26 160q-39 43 -117 43h-51v37h479v-37h-49q-82 0 -125 -68q-20 -31 -20 -143v-551 q0 -203 -40 -315.5t-159 -193.5t-324 -81q-221 0 -335.5 78t-163.5 207q-31 90 -31 334v530q0 125 -35 164t-113 39h-51zM502 1462l188 330h184l191 -330h-31l-272 213l-230 -213h-30z" />
<glyph unicode="&#xdc;" horiz-adv-x="1478" d="M10 1319v37h588v-37h-53q-84 0 -119 -53q-27 -35 -27 -150v-592q0 -78 14.5 -180t53.5 -159.5t109.5 -94.5t175.5 -37q133 0 238.5 58.5t143 148.5t37.5 307v549q0 127 -26 160q-39 43 -117 43h-51v37h479v-37h-49q-82 0 -125 -68q-20 -31 -20 -143v-551 q0 -203 -40 -315.5t-159 -193.5t-324 -81q-221 0 -335.5 78t-163.5 207q-31 90 -31 334v530q0 125 -35 164t-113 39h-51zM500 1599q0 45 30.5 77t75.5 32q47 0 79 -31.5t32 -77.5q0 -45 -33 -76.5t-76 -31.5q-45 0 -76.5 31.5t-31.5 76.5zM852 1599q0 45 32 77t77 32 t75.5 -31.5t30.5 -77.5q0 -45 -30.5 -76.5t-75.5 -31.5t-77 31.5t-32 76.5z" />
<glyph unicode="&#xdd;" horiz-adv-x="1478" d="M18 1319v37h580v-37h-29q-47 0 -87 -21.5t-40 -66.5q0 -37 62 -129l282 -438l267 417q59 94 59 142q0 27 -14.5 49t-41 34.5t-79.5 12.5v37h473v-37h-27q-27 0 -77 -22.5t-91 -65.5t-100 -141l-328 -515v-339q0 -125 29 -156q39 -43 121 -43h43v-37h-576v37h48 q86 0 122 51q23 33 23 148v319l-373 569q-66 100 -89 125t-97 60q-20 10 -60 10zM668 1452l104 344h223l-295 -344h-32z" />
<glyph unicode="&#xde;" horiz-adv-x="1138" d="M37 0v37h37q94 0 133 55q20 29 20 148v868q0 115 -11 141.5t-49 48t-91 21.5h-39v37h577v-37h-41q-43 0 -94 -23q-29 -14 -44 -49t-15 -135v-63h74q150 0 225 -13q106 -18 178 -64t118 -122t46 -170q0 -78 -30 -143.5t-79 -111.5t-110.5 -74.5t-159.5 -41.5 q-37 -6 -193 -6h-69v-59q0 -129 34.5 -168t118.5 -39h41v-37h-577zM420 375h45q121 0 188 28q90 37 133 109t43 166q0 74 -30.5 137.5t-80.5 98t-114 49.5q-39 8 -135 8h-49v-596z" />
<glyph unicode="&#xdf;" horiz-adv-x="1024" d="M35 0v37q59 4 84.5 20.5t37 44t11.5 123.5v742q0 248 92 352q92 102 264 102q162 0 257.5 -91t95.5 -232q0 -106 -56 -180q-39 -55 -137 -97q135 -41 204.5 -139t69.5 -260q0 -174 -91 -304t-244 -130q-86 0 -139.5 48t-53.5 114q0 41 21.5 63.5t58.5 22.5 q39 0 60.5 -21.5t21.5 -56.5q0 -16 -4 -33q-6 -25 -6 -37q0 -16 16 -31q14 -14 41 -14q59 0 98 53q51 70 51 215q0 209 -73.5 331t-220.5 132v57q104 0 159.5 62.5t55.5 208.5q0 135 -53.5 194.5t-139.5 59.5q-82 0 -132 -63.5t-50 -256.5v-1036h-299z" />
<glyph unicode="&#xe0;" horiz-adv-x="909" d="M74 217q0 68 28 117q41 68 142.5 127t339.5 145v37q0 137 -44 188.5t-126 51.5q-63 0 -101 -35q-39 -35 -39 -78l2 -57q0 -47 -23.5 -72t-59.5 -25q-37 0 -60.5 26t-23.5 71q0 86 88 157.5t245 71.5q123 0 201 -41q59 -31 86 -96q18 -43 19 -176v-312q0 -131 5 -160.5 t16 -38.5t28 -9q14 0 26 6q23 12 82 73v-57q-113 -150 -215 -149q-49 0 -77.5 33.5t-28.5 115.5q-141 -109 -178 -125q-53 -25 -115 -24q-94 0 -155.5 64.5t-61.5 170.5zM242 264q0 -72 43 -120t98 -48q76 1 201 101v350q-152 -61 -197 -86q-78 -43 -111.5 -91t-33.5 -106z M260 1391h223l107 -347h-35z" />
<glyph unicode="&#xe1;" horiz-adv-x="909" d="M74 217q0 68 28 117q41 68 142.5 127t339.5 145v37q0 137 -44 188.5t-126 51.5q-63 0 -101 -35q-39 -35 -39 -78l2 -57q0 -47 -23.5 -72t-59.5 -25q-37 0 -60.5 26t-23.5 71q0 86 88 157.5t245 71.5q123 0 201 -41q59 -31 86 -96q18 -43 19 -176v-312q0 -131 5 -160.5 t16 -38.5t28 -9q14 0 26 6q23 12 82 73v-57q-113 -150 -215 -149q-49 0 -77.5 33.5t-28.5 115.5q-141 -109 -178 -125q-53 -25 -115 -24q-94 0 -155.5 64.5t-61.5 170.5zM242 264q0 -72 43 -120t98 -48q76 1 201 101v350q-152 -61 -197 -86q-78 -43 -111.5 -91t-33.5 -106z M352 1044l107 347h223l-295 -347h-35z" />
<glyph unicode="&#xe2;" horiz-adv-x="909" d="M74 217q0 68 28 117q41 68 142.5 127t339.5 145v37q0 137 -44 188.5t-126 51.5q-63 0 -101 -35q-39 -35 -39 -78l2 -57q0 -47 -23.5 -72t-59.5 -25q-37 0 -60.5 26t-23.5 71q0 86 88 157.5t245 71.5q123 0 201 -41q59 -31 86 -96q18 -43 19 -176v-312q0 -131 5 -160.5 t16 -38.5t28 -9q14 0 26 6q23 12 82 73v-57q-113 -150 -215 -149q-49 0 -77.5 33.5t-28.5 115.5q-141 -109 -178 -125q-53 -25 -115 -24q-94 0 -155.5 64.5t-61.5 170.5zM176 1055l191 329h184l188 -329h-30l-273 213l-229 -213h-31zM242 264q0 -72 43 -120t98 -48 q76 1 201 101v350q-152 -61 -197 -86q-78 -43 -111.5 -91t-33.5 -106z" />
<glyph unicode="&#xe3;" horiz-adv-x="909" d="M74 217q0 68 28 117q41 68 142.5 127t339.5 145v37q0 137 -44 188.5t-126 51.5q-63 0 -101 -35q-39 -35 -39 -78l2 -57q0 -47 -23.5 -72t-59.5 -25q-37 0 -60.5 26t-23.5 71q0 86 88 157.5t245 71.5q123 0 201 -41q59 -31 86 -96q18 -43 19 -176v-312q0 -131 5 -160.5 t16 -38.5t28 -9q14 0 26 6q23 12 82 73v-57q-113 -150 -215 -149q-49 0 -77.5 33.5t-28.5 115.5q-141 -109 -178 -125q-53 -25 -115 -24q-94 0 -155.5 64.5t-61.5 170.5zM139 1098q4 137 57.5 197.5t131.5 60.5q41 0 73 -13q45 -18 128 -72t122 -54q33 0 57.5 27.5 t39.5 111.5h30q0 -92 -25.5 -147.5t-71.5 -85t-93 -29.5q-78 0 -197 80q-61 43 -83.5 52t-43.5 9q-41 0 -65 -37q-11 -16 -29 -100h-31zM242 264q0 -72 43 -120t98 -48q76 1 201 101v350q-152 -61 -197 -86q-78 -43 -111.5 -91t-33.5 -106z" />
<glyph unicode="&#xe4;" horiz-adv-x="909" d="M74 217q0 68 28 117q41 68 142.5 127t339.5 145v37q0 137 -44 188.5t-126 51.5q-63 0 -101 -35q-39 -35 -39 -78l2 -57q0 -47 -23.5 -72t-59.5 -25q-37 0 -60.5 26t-23.5 71q0 86 88 157.5t245 71.5q123 0 201 -41q59 -31 86 -96q18 -43 19 -176v-312q0 -131 5 -160.5 t16 -38.5t28 -9q14 0 26 6q23 12 82 73v-57q-113 -150 -215 -149q-49 0 -77.5 33.5t-28.5 115.5q-141 -109 -178 -125q-53 -25 -115 -24q-94 0 -155.5 64.5t-61.5 170.5zM172 1229q0 45 32 76.5t77 31.5q47 0 77.5 -31.5t30.5 -76.5t-31.5 -77t-74.5 -32q-45 0 -78 32 t-33 77zM242 264q0 -72 43 -120t98 -48q76 1 201 101v350q-152 -61 -197 -86q-78 -43 -111.5 -91t-33.5 -106zM524 1229q0 45 33 76.5t78 31.5t75.5 -31.5t30.5 -76.5t-30.5 -77t-75.5 -32t-78 32t-33 77z" />
<glyph unicode="&#xe5;" horiz-adv-x="909" d="M74 217q0 68 28 117q41 68 142.5 127t339.5 145v37q0 137 -44 188.5t-126 51.5q-63 0 -101 -35q-39 -35 -39 -78l2 -57q0 -47 -23.5 -72t-59.5 -25q-37 0 -60.5 26t-23.5 71q0 86 88 157.5t245 71.5q123 0 201 -41q59 -31 86 -96q18 -43 19 -176v-312q0 -131 5 -160.5 t16 -38.5t28 -9q14 0 26 6q23 12 82 73v-57q-113 -150 -215 -149q-49 0 -77.5 33.5t-28.5 115.5q-141 -109 -178 -125q-53 -25 -115 -24q-94 0 -155.5 64.5t-61.5 170.5zM242 264q0 -72 43 -120t98 -48q76 1 201 101v350q-152 -61 -197 -86q-78 -43 -111.5 -91t-33.5 -106z M266 1235q0 80 56.5 135t136.5 55t135 -55t55 -135t-55 -136.5t-135 -56.5t-136.5 56.5t-56.5 136.5zM336 1235q0 -49 36 -86t87 -37t86 37t35 86q0 51 -35 87t-86 36t-87 -36t-36 -87z" />
<glyph unicode="&#xe6;" horiz-adv-x="1366" d="M74 201q0 88 43 148.5t170 125.5q156 80 276 123v90q0 109 -40 154t-107 45q-66 0 -103 -33q-39 -33 -39 -74q0 -84 -8 -108.5t-26.5 -37.5t-44.5 -13q-39 0 -60 22q-31 33 -31 74q0 51 37 103t116 88t183 36q123 0 186.5 -36t84.5 -87q47 59 100 86q72 37 168 37 q143 0 234.5 -97t91.5 -280h-572v-73q0 -201 72 -286t184 -85q96 0 176 59q49 39 107 160l33 -23q-37 -162 -156 -270q-86 -78 -215 -78q-109 0 -184 47q-37 25 -111 113q-12 -8 -55 -43q-59 -45 -78 -57q-47 -27 -100.5 -43.5t-108.5 -16.5q-94 0 -158.5 66.5t-64.5 163.5z M242 258q0 -80 47 -129t112 -49q39 0 83 20.5t126 83.5q-20 45 -33.5 118t-13.5 140v90q-135 -43 -248 -129q-74 -57 -73 -145zM733 633h379q-2 125 -53 182t-131 57t-136.5 -62t-58.5 -177z" />
<glyph unicode="&#xe7;" horiz-adv-x="909" d="M70 457q0 217 129 351t309 134q133 0 220 -70.5t87 -148.5q0 -39 -23.5 -61.5t-68.5 -22.5q-59 0 -88 37q-18 20 -23.5 79.5t-40.5 90.5t-98 31q-98 0 -160 -74q-82 -98 -82 -260q0 -164 81 -290t218 -126q98 0 177 68q55 47 106 167l29 -14q-37 -180 -144.5 -278.5 t-238.5 -98.5q-158 0 -273.5 131t-115.5 355zM297 -340q27 -4 47 -4q51 0 86 34t35 77q0 29 -22.5 51t-57.5 22q-10 0 -27 -2l111 178h61l-51 -79q63 -16 94 -54.5t31 -91.5q0 -72 -59.5 -126t-155.5 -54q-37 0 -92 6v43z" />
<glyph unicode="&#xe8;" horiz-adv-x="909" d="M76 446q0 236 120.5 367t303.5 131q154 0 253 -101.5t99 -271.5h-635q0 -205 100 -319q100 -117 236 -117q88 0 154.5 49t111.5 170l33 -20q-23 -137 -123 -250t-254 -113q-164 0 -281.5 129t-117.5 346zM217 629h424q-4 88 -20 125q-25 55 -74 86.5t-105 31.5 q-82 0 -147.5 -64t-77.5 -179zM285 1391h223l106 -347h-34z" />
<glyph unicode="&#xe9;" horiz-adv-x="909" d="M76 446q0 236 120.5 367t303.5 131q154 0 253 -101.5t99 -271.5h-635q0 -205 100 -319q100 -117 236 -117q88 0 154.5 49t111.5 170l33 -20q-23 -137 -123 -250t-254 -113q-164 0 -281.5 129t-117.5 346zM217 629h424q-4 88 -20 125q-25 55 -74 86.5t-105 31.5 q-82 0 -147.5 -64t-77.5 -179zM367 1044l104 347h223l-295 -347h-32z" />
<glyph unicode="&#xea;" horiz-adv-x="909" d="M76 446q0 236 120.5 367t303.5 131q154 0 253 -101.5t99 -271.5h-635q0 -205 100 -319q100 -117 236 -117q88 0 154.5 49t111.5 170l33 -20q-23 -137 -123 -250t-254 -113q-164 0 -281.5 129t-117.5 346zM213 1055l190 329h185l188 -329h-31l-272 213l-229 -213h-31z M217 629h424q-4 88 -20 125q-25 55 -74 86.5t-105 31.5q-82 0 -147.5 -64t-77.5 -179z" />
<glyph unicode="&#xeb;" horiz-adv-x="909" d="M76 446q0 236 120.5 367t303.5 131q154 0 253 -101.5t99 -271.5h-635q0 -205 100 -319q100 -117 236 -117q88 0 154.5 49t111.5 170l33 -20q-23 -137 -123 -250t-254 -113q-164 0 -281.5 129t-117.5 346zM211 1229q0 45 30.5 76.5t75.5 31.5q47 0 78 -31.5t31 -76.5 t-32 -77t-75 -32q-45 0 -76.5 32t-31.5 77zM217 629h424q-4 88 -20 125q-25 55 -74 86.5t-105 31.5q-82 0 -147.5 -64t-77.5 -179zM561 1229q0 45 33 76.5t78 31.5t75.5 -31.5t30.5 -76.5t-30.5 -77t-75.5 -32t-78 32t-33 77z" />
<glyph unicode="&#xec;" horiz-adv-x="569" d="M59 831l277 111h43v-735q0 -86 13.5 -115t38 -42t87.5 -13v-37h-444v37q68 0 90 12t35.5 43t13.5 115v352q0 150 -8 195q-6 31 -21.5 44t-42.5 13t-67 -16zM78 1391h223l107 -347h-35z" />
<glyph unicode="&#xed;" horiz-adv-x="569" d="M59 831l277 111h43v-735q0 -86 13.5 -115t38 -42t87.5 -13v-37h-444v37q68 0 90 12t35.5 43t13.5 115v352q0 150 -8 195q-6 31 -21.5 44t-42.5 13t-67 -16zM170 1044l104 347h226l-295 -347h-35z" />
<glyph unicode="&#xee;" horiz-adv-x="569" d="M14 1055l189 329h184l191 -329h-31l-275 213l-229 -213h-29zM59 831l277 111h43v-735q0 -86 13.5 -115t38 -42t87.5 -13v-37h-444v37q68 0 90 12t35.5 43t13.5 115v352q0 150 -8 195q-6 31 -21.5 44t-42.5 13t-67 -16z" />
<glyph unicode="&#xef;" horiz-adv-x="569" d="M2 1229q0 45 32 76.5t77 31.5q47 0 77.5 -31.5t30.5 -76.5t-31.5 -77t-74.5 -32q-45 0 -78 32t-33 77zM59 831l277 111h43v-735q0 -86 13.5 -115t38 -42t87.5 -13v-37h-444v37q68 0 90 12t35.5 43t13.5 115v352q0 150 -8 195q-6 31 -21.5 44t-42.5 13t-67 -16zM354 1229 q0 45 33 76.5t78 31.5t75.5 -31.5t30.5 -76.5t-30.5 -77t-75.5 -32t-78 32t-33 77z" />
<glyph unicode="&#xf0;" horiz-adv-x="1024" d="M68 440q0 211 139 367q117 129 280 129q49 0 88 -14q31 -10 82 -45q-79 163 -188 292l-248 -135l-28 56l233 131q-68 68 -100.5 95t-87.5 62l26 43q119 -59 248 -153l248 139l35 -55l-230 -131q190 -164 286.5 -363t96.5 -385q0 -137 -57 -254t-160.5 -182.5 t-230.5 -65.5q-180 0 -306 134.5t-126 334.5zM254 518q0 -135 40 -249.5t108.5 -170t144.5 -55.5q92 0 154.5 79t62.5 255q0 225 -79 361t-206 136q-96 0 -160.5 -80.5t-64.5 -275.5z" />
<glyph unicode="&#xf1;" horiz-adv-x="1024" d="M12 831l277 111h43v-192q160 193 307 192q74 0 128 -37t87 -123q20 -59 20 -184v-391q0 -86 15 -119q10 -25 34.5 -38t92.5 -13v-37h-455v37h21q63 0 88.5 19.5t36.5 56.5q4 14 4 94v375q0 125 -33 181t-111 56q-119 0 -235 -129v-483q0 -92 10 -115q14 -29 39 -42 t98 -13v-37h-452v37h20q70 0 94.5 34.5t24.5 135.5v340q0 166 -7 201.5t-22.5 49t-42.5 13.5q-29 0 -67 -16zM193 1098q4 137 57 197.5t131 60.5q41 0 76 -13q45 -18 127 -72t123 -54q31 0 55 27.5t39 111.5h30q2 -92 -23.5 -147.5t-72.5 -85t-94 -29.5q-78 0 -195 80 q-63 43 -84.5 52t-44.5 9q-41 0 -63 -37q-13 -16 -29 -100h-32z" />
<glyph unicode="&#xf2;" horiz-adv-x="1024" d="M70 449q0 127 62.5 250.5t163.5 183t216 59.5q209 0 334 -158q106 -135 106 -309q0 -123 -58 -249t-161.5 -190.5t-230.5 -64.5q-207 0 -330 166q-102 139 -102 312zM256 532q0 -199 79 -344t210 -145q96 0 159.5 80t63.5 274q0 244 -106 385q-70 97 -181 97 q-53 0 -106 -32t-86 -111t-33 -204zM301 1391h223l107 -347h-35z" />
<glyph unicode="&#xf3;" horiz-adv-x="1024" d="M70 449q0 127 62.5 250.5t163.5 183t216 59.5q209 0 334 -158q106 -135 106 -309q0 -123 -58 -249t-161.5 -190.5t-230.5 -64.5q-207 0 -330 166q-102 139 -102 312zM256 532q0 -199 79 -344t210 -145q96 0 159.5 80t63.5 274q0 244 -106 385q-70 97 -181 97 q-53 0 -106 -32t-86 -111t-33 -204zM393 1044l107 347h223l-295 -347h-35z" />
<glyph unicode="&#xf4;" horiz-adv-x="1024" d="M70 449q0 127 62.5 250.5t163.5 183t216 59.5q209 0 334 -158q106 -135 106 -309q0 -123 -58 -249t-161.5 -190.5t-230.5 -64.5q-207 0 -330 166q-102 139 -102 312zM242 1055l188 329h184l191 -329h-31l-272 213l-230 -213h-30zM256 532q0 -199 79 -344t210 -145 q96 0 159.5 80t63.5 274q0 244 -106 385q-70 97 -181 97q-53 0 -106 -32t-86 -111t-33 -204z" />
<glyph unicode="&#xf5;" horiz-adv-x="1024" d="M70 449q0 127 62.5 250.5t163.5 183t216 59.5q209 0 334 -158q106 -135 106 -309q0 -123 -58 -249t-161.5 -190.5t-230.5 -64.5q-207 0 -330 166q-102 139 -102 312zM193 1098q4 137 56 197.5t132 60.5q41 0 74 -13q45 -18 128 -72t122 -54q33 0 57 27.5t39 111.5h30 q0 -92 -25.5 -147.5t-71.5 -85t-93 -29.5q-80 0 -197 80q-61 43 -83.5 52t-43.5 9q-41 0 -65 -37q-11 -16 -29 -100h-30zM256 532q0 -199 79 -344t210 -145q96 0 159.5 80t63.5 274q0 244 -106 385q-70 97 -181 97q-53 0 -106 -32t-86 -111t-33 -204z" />
<glyph unicode="&#xf6;" horiz-adv-x="1024" d="M70 449q0 127 62.5 250.5t163.5 183t216 59.5q209 0 334 -158q106 -135 106 -309q0 -123 -58 -249t-161.5 -190.5t-230.5 -64.5q-207 0 -330 166q-102 139 -102 312zM225 1229q0 45 32 76.5t77 31.5q47 0 77.5 -31.5t30.5 -76.5t-31.5 -77t-74.5 -32q-45 0 -78 32t-33 77 zM256 532q0 -199 79 -344t210 -145q96 0 159.5 80t63.5 274q0 244 -106 385q-70 97 -181 97q-53 0 -106 -32t-86 -111t-33 -204zM578 1229q0 45 31.5 76.5t76.5 31.5t77 -31.5t32 -76.5t-32 -77t-77 -32t-76.5 32t-31.5 77z" />
<glyph unicode="&#xf7;" horiz-adv-x="1124" d="M23 639v84h1079v-84h-1079zM473 367q0 37 25.5 62.5t62.5 25.5t62.5 -26t25.5 -62q0 -35 -25.5 -61.5t-62.5 -26.5q-35 0 -61.5 26.5t-26.5 61.5zM473 987q0 37 25.5 62.5t62.5 25.5t62.5 -25.5t25.5 -62.5q0 -35 -25.5 -60.5t-62.5 -25.5t-62.5 25.5t-25.5 60.5z" />
<glyph unicode="&#xf8;" horiz-adv-x="1024" d="M39 -25l141 160q-51 61 -78.5 151.5t-27.5 168.5q0 119 60.5 239.5t162.5 184t223 63.5q82 0 148.5 -26t138.5 -85l131 148l47 -43l-135 -152q106 -135 106 -313q0 -117 -58 -244t-160.5 -191.5t-229.5 -64.5q-84 0 -147.5 26t-139.5 89l-135 -154zM260 532 q0 -125 39 -262l406 449q-51 90 -100.5 124t-117.5 34q-98 0 -162.5 -80t-64.5 -265zM330 205q51 -92 99 -127t118 -35q98 0 160.5 80t62.5 278q0 121 -39 252z" />
<glyph unicode="&#xf9;" horiz-adv-x="1024" d="M2 879v36h322v-612q0 -129 44 -169t107 -40q43 0 97.5 28t129.5 103v518q0 78 -28.5 106t-118.5 30v36h311v-555q0 -158 8.5 -193.5t24.5 -50t39 -14.5q31 0 70 19l14 -35l-274 -115h-46v195q-119 -127 -180 -161t-131 -34q-78 0 -134 45t-77.5 115t-21.5 199v407 q0 66 -14.5 91.5t-42 39t-99.5 11.5zM307 1391h223l107 -347h-37z" />
<glyph unicode="&#xfa;" horiz-adv-x="1024" d="M2 879v36h322v-612q0 -129 44 -169t107 -40q43 0 97.5 28t129.5 103v518q0 78 -28.5 106t-118.5 30v36h311v-555q0 -158 8.5 -193.5t24.5 -50t39 -14.5q31 0 70 19l14 -35l-274 -115h-46v195q-119 -127 -180 -161t-131 -34q-78 0 -134 45t-77.5 115t-21.5 199v407 q0 66 -14.5 91.5t-42 39t-99.5 11.5zM371 1044l104 347h223l-295 -347h-32z" />
<glyph unicode="&#xfb;" horiz-adv-x="1024" d="M2 879v36h322v-612q0 -129 44 -169t107 -40q43 0 97.5 28t129.5 103v518q0 78 -28.5 106t-118.5 30v36h311v-555q0 -158 8.5 -193.5t24.5 -50t39 -14.5q31 0 70 19l14 -35l-274 -115h-46v195q-119 -127 -180 -161t-131 -34q-78 0 -134 45t-77.5 115t-21.5 199v407 q0 66 -14.5 91.5t-42 39t-99.5 11.5zM233 1055l191 329h182l191 -329h-31l-272 213l-230 -213h-31z" />
<glyph unicode="&#xfc;" horiz-adv-x="1024" d="M2 879v36h322v-612q0 -129 44 -169t107 -40q43 0 97.5 28t129.5 103v518q0 78 -28.5 106t-118.5 30v36h311v-555q0 -158 8.5 -193.5t24.5 -50t39 -14.5q31 0 70 19l14 -35l-274 -115h-46v195q-119 -127 -180 -161t-131 -34q-78 0 -134 45t-77.5 115t-21.5 199v407 q0 66 -14.5 91.5t-42 39t-99.5 11.5zM225 1229q0 45 32 76.5t77 31.5q47 0 77.5 -31.5t30.5 -76.5t-31.5 -77t-74.5 -32q-45 0 -78 32t-33 77zM578 1229q0 45 31.5 76.5t76.5 31.5t77 -31.5t32 -76.5t-32 -77t-77 -32t-76.5 32t-31.5 77z" />
<glyph unicode="&#xfd;" horiz-adv-x="1024" d="M12 879v36h426v-36h-20q-45 0 -67.5 -19.5t-22.5 -48.5q0 -39 32 -109l224 -460l204 506q18 41 19 79q0 18 -8 27q-8 12 -24.5 18.5t-59.5 6.5v36h297v-36q-37 -4 -56.5 -15.5t-44.5 -46.5q-10 -12 -34 -76l-373 -913q-53 -133 -141.5 -201.5t-167.5 -68.5 q-59 0 -97.5 33.5t-38.5 78.5q0 41 28 66.5t75 25.5q33 0 90 -20q41 -16 49 -16q31 0 66.5 30.5t70.5 120.5l66 160l-330 690q-14 31 -47 78q-25 35 -41 47q-23 14 -74 27zM403 1044l105 347h223l-295 -347h-33z" />
<glyph unicode="&#xfe;" horiz-adv-x="1024" d="M-6 -399h24q55 -2 95 20q18 10 28.5 35t10.5 125v1347q0 90 -8.5 115t-26 36t-45.5 11q-25 0 -62 -14l-12 33l283 112h36v-696q72 121 143.5 169t149.5 48q139 0 232 -106q113 -133 112 -344q0 -238 -137 -394q-111 -127 -280 -127q-74 0 -129 23q-39 14 -91 59v-278 q0 -94 12.5 -119t40 -40t103.5 -15v-37h-479v37zM317 324q0 -111 11 -146q14 -57 68.5 -101t135.5 -44q100 0 162 78q82 102 82 286q0 209 -92 324q-63 78 -152 78q-49 0 -96 -25q-35 -18 -119 -108v-342z" />
<glyph unicode="&#xff;" horiz-adv-x="1024" d="M12 879v36h426v-36h-20q-45 0 -67.5 -19.5t-22.5 -48.5q0 -39 32 -109l224 -460l204 506q18 41 19 79q0 18 -8 27q-8 12 -24.5 18.5t-59.5 6.5v36h297v-36q-37 -4 -56.5 -15.5t-44.5 -46.5q-10 -12 -34 -76l-373 -913q-53 -133 -141.5 -201.5t-167.5 -68.5 q-59 0 -97.5 33.5t-38.5 78.5q0 41 28 66.5t75 25.5q33 0 90 -20q41 -16 49 -16q31 0 66.5 30.5t70.5 120.5l66 160l-330 690q-14 31 -47 78q-25 35 -41 47q-23 14 -74 27zM264 1229q0 45 32 76.5t77 31.5t76.5 -31.5t31.5 -76.5t-31.5 -77t-76.5 -32t-77 32t-32 77z M616 1229q0 45 32 76.5t77 31.5t77 -31.5t32 -76.5t-32 -77t-77 -32t-77 32t-32 77z" />
<glyph unicode="&#x152;" horiz-adv-x="1820" d="M76 676q0 258 139 454q170 238 494 238q23 0 194 -6q139 -6 266 -6h473l13 -297h-33q-23 117 -43 147q-25 41 -76 64q-33 12 -143 12h-256v-534h182q117 0 164 47t47 147h39v-471h-39q-8 123 -50 163t-161 40h-182v-449q0 -80 10 -104.5t33 -36.5q14 -8 78 -8h102 q121 0 168 13t98 58q76 68 129 193h41l-108 -340h-486h-170q-12 0 -168 -10q-106 -6 -145 -6q-168 0 -307 86t-221 249.5t-82 356.5zM305 668q0 -156 42 -301.5t135 -228.5t227 -83q76 0 122 25.5t63 72t17 187.5v702q0 129 -18.5 171t-52.5 63q-49 29 -127 29 q-123 0 -218.5 -74t-142.5 -224.5t-47 -338.5z" />
<glyph unicode="&#x153;" horiz-adv-x="1478" d="M68 442q0 229 122.5 364.5t298.5 135.5q109 0 188 -44t126 -114q57 86 122.5 123t159.5 37q147 0 238 -98q92 -100 88 -273h-549q-2 -25 -2 -38q0 -94 34 -195.5t100.5 -152t144.5 -50.5q80 0 141 51.5t98 165.5l33 -16q-37 -193 -126 -280t-214 -87q-96 0 -164.5 47.5 t-103.5 114.5q-63 -80 -142 -121t-178 -41q-176 0 -295.5 129t-119.5 342zM254 539q0 -258 102 -406q61 -90 154 -90q88 0 146.5 73.5t58.5 262.5q0 231 -67.5 370.5t-194.5 139.5q-35 0 -85.5 -26.5t-76.5 -92.5q-37 -82 -37 -231zM862 639h352q0 70 -24 133 q-18 47 -61.5 76t-90.5 29q-66 0 -118 -59.5t-58 -178.5z" />
<glyph unicode="&#x160;" horiz-adv-x="1138" d="M127 1030q0 145 112.5 250.5t284.5 105.5q109 0 230 -53q57 -25 80 -24q25 0 42 15t25 62h37v-468h-37q-16 135 -63 214.5t-133.5 127t-178.5 47.5q-102 0 -170.5 -63.5t-68.5 -143.5q0 -63 43 -115q61 -74 295 -199q190 -102 259.5 -156.5t106.5 -129t37 -154.5 q0 -154 -118.5 -265.5t-307.5 -111.5q-59 0 -110 8q-31 6 -129.5 37t-122.5 31q-27 0 -41.5 -14.5t-20.5 -61.5h-37v465h37q27 -145 71 -218t134 -121t199 -48q125 0 197.5 65.5t72.5 155.5q0 51 -27.5 102.5t-87.5 94.5q-39 31 -213 128t-246.5 155.5t-111.5 128t-39 153.5 zM283 1792h30l275 -211l227 211h31l-189 -330h-184z" />
<glyph unicode="&#x161;" horiz-adv-x="796" d="M100 678q0 113 78 188.5t201 75.5q53 0 131 -22q49 -14 68 -15q16 0 24 7.5t21 29.5h32v-311h-32q-37 147 -96.5 200.5t-151.5 53.5q-72 0 -115 -37t-43 -82q0 -57 33 -96q31 -41 127 -88l145 -70q203 -100 203 -262q0 -125 -94 -202t-211 -77q-84 0 -193 31 q-33 10 -55 10q-23 0 -35 -26h-33v327h33q29 -141 108 -211.5t177 -70.5q68 0 112 41t44 98q0 68 -49.5 115t-194 118.5t-189.5 131.5q-45 57 -45 143zM117 1384h30l275 -210l227 210h31l-188 -329h-185z" />
<glyph unicode="&#x178;" horiz-adv-x="1478" d="M18 1319v37h580v-37h-29q-47 0 -87 -21.5t-40 -66.5q0 -37 62 -129l282 -438l267 417q59 94 59 142q0 27 -14.5 49t-41 34.5t-79.5 12.5v37h473v-37h-27q-27 0 -77 -22.5t-91 -65.5t-100 -141l-328 -515v-339q0 -125 29 -156q39 -43 121 -43h43v-37h-576v37h48 q86 0 122 51q23 33 23 148v319l-373 569q-66 100 -89 125t-97 60q-20 10 -60 10zM475 1599q0 45 32 77t77 32t76.5 -31.5t31.5 -77.5q0 -45 -31.5 -76.5t-76.5 -31.5t-77 31.5t-32 76.5zM827 1599q0 45 32 77t77 32t76.5 -31.5t31.5 -77.5q0 -45 -31.5 -76.5t-76.5 -31.5 t-77 31.5t-32 76.5z" />
<glyph unicode="&#x192;" horiz-adv-x="1024" d="M2 -326q0 39 23.5 63.5t54.5 24.5q25 0 44 -17t19 -38q0 -23 -14 -39q-8 -10 -8 -18t6 -14.5t18 -6.5q20 0 37 11q31 16 59.5 63t59.5 176q6 23 86 416q6 35 123 514h-176l14 65q98 8 124 16.5t42 31.5q27 35 61 135q72 211 140 270q66 59 147 59q61 0 99 -32.5t38 -77.5 q0 -37 -20.5 -57.5t-46.5 -20.5q-27 0 -45.5 17.5t-18.5 37.5q0 16 11.5 35t11.5 27q0 10 -10 18q-8 8 -27 8q-31 0 -57 -24q-35 -33 -45 -84q-27 -121 -66 -359h178l-16 -65h-174q-51 -268 -172 -709q-94 -340 -205 -448q-84 -82 -172 -82q-57 0 -90 29.5t-33 74.5z" />
<glyph unicode="&#x2c6;" horiz-adv-x="681" d="M59 1055l191 329h182l191 -329h-31l-273 213l-229 -213h-31z" />
<glyph unicode="&#x2dc;" horiz-adv-x="681" d="M23 1098q4 137 56 197.5t132 60.5q41 0 74 -13q45 -18 128 -72t122 -54q33 0 57 27.5t39 111.5h31q0 -92 -26 -147.5t-72 -85t-93 -29.5q-80 0 -197 80q-61 43 -83.5 52t-43.5 9q-41 0 -65 -37q-11 -16 -29 -100h-30z" />
<glyph unicode="&#x1000;" horiz-adv-x="1908" d="M102 469q0 193 135.5 329t329.5 136q193 0 328 -135q33 -33 57 -70q25 37 56 70q139 135 331 135q193 0 330 -136t137 -329q0 -195 -137 -331t-330 -136q-82 0 -153 25l57 145q45 -14 96 -14q129 0 219.5 91t90.5 220q0 125 -90.5 217t-219.5 92t-221 -92 q-76 -78 -88 -182q-2 -39 0 -72q-12 -164 -78 -250q-25 -39 -57 -67q-78 -78 -174 -113l-49 148q63 23 134 106.5t71 212.5q0 125 -90.5 217t-219.5 92q-127 0 -218 -92t-91 -217q0 -129 71.5 -213t135.5 -106l-47 -150q-100 33 -208 153.5t-108 315.5z" />
<glyph unicode="&#x1001;" horiz-adv-x="1136" d="M135 317q0 98 70.5 170t171.5 72q104 0 176 -71.5t72 -170.5q0 -92 -64 -159q131 2 219 90q94 94 94 225q0 127 -93 219t-226 92q-113 0 -195 -65l-112 112q127 109 307 109q199 0 339 -137t140 -330q0 -197 -140 -335t-339 -138q-192 0 -350 145q-70 74 -70 172z M299 324q0 -41 30.5 -72t71.5 -31q43 0 74 31t31 72q0 43 -31 73.5t-74 30.5q-41 0 -71.5 -30.5t-30.5 -73.5z" />
<glyph unicode="&#x1002;" horiz-adv-x="1136" d="M102 467q0 195 135.5 331t329.5 136q193 0 330 -136t137 -331q0 -192 -139 -350q-86 -84 -195 -117l-55 147q80 20 139 82q92 113 93 238q0 129 -90.5 220t-219.5 91q-127 0 -218 -91t-91 -220q0 -125 88 -238q61 -61 143 -82l-57 -147q-109 33 -196 117 q-133 158 -134 350z" />
<glyph unicode="&#x1003;" horiz-adv-x="1908" d="M102 467v8l4 60l144 40q88 20 88 115q-12 86 -78 82l-61 -4l-39 -23l-41 156q41 20 125 31l80 -12q106 -41 135 -119q16 -27 24 -90l4 -41q10 -184 -223 -252h-4q14 -96 88 -170q92 -92 219 -92q129 0 219.5 91t90.5 220q0 125 -93 238q-59 61 -139 81l55 148 q109 -33 195 -117q139 -158 139 -350q0 -27 -2 -51q14 -96 86 -168q92 -92 221 -92t219.5 92t90.5 217q0 129 -90.5 220t-219.5 91q-51 0 -96 -14l-57 145q72 25 153 25q193 0 330 -136.5t137 -330.5q0 -193 -137 -329t-330 -136t-331 135q-31 31 -56 68q-8 -14 -20 -27 l-4 -8v2q-14 -16 -31 -35q-137 -135 -330 -135q-195 0 -330 136t-135 331z" />
<glyph unicode="&#x1004;" horiz-adv-x="1136" d="M106 467q0 195 136.5 331t330.5 136q193 0 328 -137q49 -49 80 -105l-119 -110q-25 57 -71 104q-90 92 -218 92q-129 0 -219 -91t-90 -220q0 -125 90 -217t219 -92q127 0 218 92q47 49 71 106l119 -112q-27 -55 -80 -107q-135 -135 -328 -135q-195 0 -329 135 q-35 35 -60 72q-74 111 -78 258z" />
<glyph unicode="&#x1005;" horiz-adv-x="1136" d="M102 469q0 193 135.5 329t329.5 136q193 0 330 -136t137 -329q0 -195 -137 -331t-330 -136q-195 0 -330 136t-135 331zM256 465q0 -39 30.5 -66.5t65.5 -27.5q39 0 70 27.5t31 66.5q0 47 -31 74.5t-70 27.5q-35 0 -65.5 -27.5t-30.5 -74.5zM369 229q84 -72 198 -71 q129 0 219.5 91t90.5 220q0 125 -90.5 217t-219.5 92q-111 0 -194 -69q82 -8 143 -68q72 -70 72 -170q0 -102 -72 -172q-63 -61 -147 -70z" />
<glyph unicode="&#x1006;" horiz-adv-x="1908" d="M131 317q0 98 70.5 170t171.5 72q104 0 176 -71.5t72 -170.5q0 -92 -64 -159q131 2 219 90q94 94 94 225q0 127 -93 219t-226 92q-113 0 -195 -65l-112 112q127 109 307 109q199 0 338 -137q37 -35 63 -74q25 35 58 68q135 137 329 137q193 0 330 -136t137 -329 q0 -195 -137 -331t-330 -136q-195 0 -329 135q-35 35 -60 72q-27 -37 -61 -72q-139 -137 -338 -137q-193 0 -350 145q-70 74 -70 172zM295 324q0 -41 30.5 -72t71.5 -31q43 0 74 31t31 72q0 43 -31 73.5t-74 30.5q-41 0 -71.5 -30.5t-30.5 -73.5zM1030 469q0 -129 91 -220 t218 -91q129 0 219.5 91t90.5 220q0 125 -90.5 217t-219.5 92q-127 0 -219 -92q-84 -86 -90 -199v-14v-4z" />
<glyph unicode="&#x1007;" horiz-adv-x="1136" d="M102 467q0 193 135.5 329t329.5 136q193 0 328 -135q80 -82 86 -138l-127 -57q-20 35 -70 82q-88 92 -217 92q-127 0 -218 -92t-91 -217q0 -129 91 -220t218 -91q117 0 199 75l113 -110q-131 -121 -312 -121q-195 0 -330 136t-135 331zM510 580q0 100 71.5 169.5 t170.5 69.5q98 0 169.5 -69.5t71.5 -169.5q0 -102 -71.5 -172t-169.5 -70t-170 69.5t-72 172.5zM662 573q0 -39 30.5 -66.5t65.5 -27.5q39 0 69.5 28t30.5 66q0 47 -30.5 75t-69.5 28q-35 0 -65.5 -27.5t-30.5 -75.5zM827 662h162q20 -74 78 -134q53 -53 121 -75l-43 -152 q-104 33 -189 117q-104 104 -129 244z" />
<glyph unicode="&#x1008;" horiz-adv-x="1372" d="M102 469q0 193 135.5 329t329.5 136q193 0 330 -136t137 -329q0 -195 -137 -332q-29 -27 -59 -49l2 -668q4 -74 35.5 -98t103.5 -24q66 4 105.5 24.5t43.5 97.5v1504h162v-1540q0 -244 -227 -246h-154q-231 12 -231 229l-2 645l6 2q-55 -12 -115 -12q-195 0 -330 136 t-135 331zM256 465q0 -39 30.5 -66.5t65.5 -27.5q39 0 70 27.5t31 66.5q0 47 -31 74.5t-70 27.5q-35 0 -65.5 -27.5t-30.5 -74.5zM369 229q84 -72 198 -71q129 0 219.5 91t90.5 220q0 125 -90.5 217t-219.5 92q-111 0 -194 -69q82 -8 143 -68q72 -70 72 -170 q0 -102 -72 -172q-63 -61 -147 -70z" />
<glyph unicode="&#x1009;" horiz-adv-x="1136" d="M156 242l118 114q25 -57 72 -106q90 -92 217 -92q129 0 219 92t90 217q0 129 -90 220t-219 91q-127 0 -217 -92q-47 -47 -72 -104l-118 110q31 55 80 105q135 137 327 137q195 0 331 -136t136 -331q0 -125 -78 -258q-25 -37 -59 -72q-135 -135 -330 -135q-143 0 -254 74 v-512q0 -117 73 -194t183 -77h811q104 0 182 76t80 182v13h158v-25q6 -182 -109.5 -291.5t-295.5 -109.5h-836q-176 0 -287.5 117.5t-111.5 295.5v691z" />
<glyph unicode="&#x100a;" horiz-adv-x="1908" d="M156 242l118 114q25 -57 72 -106q90 -92 217 -92q129 0 219 92t90 217q0 129 -90 220t-219 91q-127 0 -217 -92q-47 -47 -72 -104l-118 110q31 55 80 105q135 137 327 137q195 0 331 -136t136 -331q0 -125 90 -217t221 -92q127 0 217.5 92t90.5 217q0 129 -90.5 220 t-217.5 91q-111 0 -192 -65l-84 131q119 90 276 90q193 0 329 -136t136 -331q0 -193 -136 -329t-329 -136q-195 0 -329 135q-35 35 -60 72q-25 -37 -59 -72q-135 -135 -330 -135q-143 0 -254 74v-512q0 -117 73 -194t183 -77h811q104 0 182 76t80 182v13h158v-25 q6 -182 -109.5 -291.5t-295.5 -109.5h-836q-176 0 -287.5 117.5t-111.5 295.5v691z" />
<glyph unicode="&#x100b;" horiz-adv-x="1136" d="M102 467q0 195 136.5 331t330.5 136q193 0 328 -137q49 -49 80 -105l-119 -110q-25 57 -72 104q-90 92 -217 92q-129 0 -219 -91t-90 -220q0 -125 90 -217t219 -92q127 0 217 92q47 49 72 106l119 -112v-365l-51 -33q-160 -88 -359 -88q-172 0 -315 70l-2 -92 q143 -68 325 -68q135 0 250 39l148 -104v-310h168v-155h-322v397q-115 -25 -246 -24q-199 0 -358 67v2l-94 49v301l117 88q141 -102 327 -102q139 0 256 53v105q-111 -72 -252 -72q-195 0 -329 135q-35 35 -60 72q-74 111 -78 258z" />
<glyph unicode="&#x100c;" horiz-adv-x="1079" d="M102 467q0 195 136.5 331t330.5 136q193 0 328 -137q49 -49 80 -105l-119 -110q-25 57 -72 104q-90 92 -217 92q-129 0 -219 -91t-90 -220q0 -125 90 -217t219 -92q127 0 217 92q47 49 72 106l119 -114v-691q0 -178 -111.5 -295.5t-287.5 -117.5h-64q-180 0 -296 109.5 t-109 291.5v25h157v-13q2 -106 80 -182t182 -76h39q111 0 183.5 77t72.5 194v512q-111 -74 -254 -74q-195 0 -329 135q-35 35 -60 72q-78 133 -78 258z" />
<glyph unicode="&#x100d;" horiz-adv-x="1128" d="M145 -137v381l119 112q25 -57 72 -106q90 -92 217 -92q129 0 219 92t90 217q0 129 -90 220t-219 91q-127 0 -217 -92q-47 -47 -72 -104l-119 110q31 55 80 105q135 137 328 137q195 0 331 -136t136 -331q-4 -147 -78 -258q-25 -37 -59 -72q-135 -135 -330 -135 q-141 0 -252 72v-115q117 -59 256 -59q186 0 326 102l141 -88v-619h168v-155h-320l-4 672q-141 -70 -313 -70q-199 0 -358 88z" />
<glyph unicode="&#x100e;" horiz-adv-x="1136" d="M102 467v8l4 60l144 40q88 20 88 115q-12 86 -78 82l-61 -4l-39 -23l-41 156q41 20 125 31l80 -12q106 -41 135 -119q16 -27 24 -90l4 -41q10 -184 -223 -252h-4q14 -96 88 -170q92 -92 219 -92q129 0 219.5 91t90.5 220q0 125 -93 238q-59 61 -139 81l55 148 q109 -33 195 -117q139 -158 139 -350q0 -195 -137 -331t-330 -136q-195 0 -330 136t-135 331z" />
<glyph unicode="&#x1010;" horiz-adv-x="1908" d="M102 471q0 193 135.5 329t329.5 136q193 0 328 -135q33 -33 57 -70q25 37 56 70q139 135 331 135q193 0 330 -136t137 -329q0 -195 -137 -331t-330 -136q-82 0 -153 25l57 145q45 -14 96 -14q129 0 219.5 91t90.5 220q0 125 -90.5 217t-219.5 92t-221 -92 q-76 -78 -88 -182q-2 -39 0 -72q14 -86 -78 -225q-25 -39 -57 -68q-135 -137 -328 -137q-195 0 -330 136t-135 331zM258 471q0 -129 91 -220t218 -91q129 0 219.5 91t90.5 220q0 125 -90.5 217t-219.5 92q-127 0 -218 -92t-91 -217z" />
<glyph unicode="&#x1011;" horiz-adv-x="1908" d="M102 471q0 193 135.5 329t329.5 136q193 0 328 -135q33 -33 57 -70q25 37 56 70q139 135 331 135q193 0 330 -136t137 -329q0 -195 -137 -331t-330 -136t-331 137q-31 29 -56 68q-25 -39 -57 -68q-135 -137 -328 -137q-195 0 -330 136t-135 331zM258 471q0 -129 91 -220 t218 -91q129 0 217 92q78 76 90 182q2 33 0 72q-12 104 -90 182q-88 92 -217 92q-127 0 -218 -92t-91 -217zM1030 434q12 -106 88 -182q92 -92 221 -92t219.5 91t90.5 220q0 125 -90.5 217t-219.5 92t-221 -92q-76 -78 -88 -182q-2 -39 0 -72z" />
<glyph unicode="&#x1012;" horiz-adv-x="1136" d="M147 655q20 78 128 178.5t300 100.5q195 0 330 -137q63 -63 96 -140q53 -174 -141 -125q-2 4 -6 9q-31 29 -68 28q-39 0 -70.5 -28.5t-31.5 -77.5q0 -39 32 -67.5t70 -28.5q35 0 64 24q88 16 130 -10.5t19 -108.5q-33 -74 -94 -135q-135 -135 -330 -135q-193 0 -299 97.5 t-126 172.5l133 95q23 -66 93 -137.5t199 -71.5q109 0 193 65q-84 8 -147 70q-74 72 -74 176t74 174q61 61 143 70q-82 66 -189 65q-129 0 -199.5 -72.5t-92.5 -136.5z" />
<glyph unicode="&#x1013;" horiz-adv-x="1136" d="M102 465q0 193 136 330t329 137q195 0 331 -137.5t136 -329.5q0 -195 -136 -330t-331 -135q-193 0 -329 135t-136 330zM258 465q0 -111 70 -195q8 82 67 144q70 71 170 71q102 0 172 -71q61 -63 70 -148q72 84 72 199q0 129 -91.5 219t-220.5 90q-125 0 -217 -90 t-92 -219zM469 250q0 -35 27.5 -65.5t74.5 -30.5q39 0 67 30.5t28 65.5q0 39 -28 69.5t-67 30.5q-47 0 -74.5 -30.5t-27.5 -69.5z" />
<glyph unicode="&#x1014;" horiz-adv-x="1136" d="M141 328q0 100 72 169.5t170 69.5t170 -69.5t68 -169.5v-166q90 18 159 86q90 92 68 143l-248 150q-88 53 -144.5 75.5t-56.5 106.5q0 86 60.5 147.5t146.5 61.5q84 0 144 -62q31 -33 45 -69l-123 -49q-6 14 -17 22q-20 20 -49 21q-31 0 -50 -19.5t-19 -32.5 q0 -29 69 -69l10 -8l412 -217q0 -174 -137 -312q-117 -115 -270 -131l-3 -813h-139v815q-141 23 -248 129q-6 6 -14 13l-4 6q-72 70 -72 172zM293 322q0 -39 31 -68l12 -12q59 -53 153 -74v154q0 47 -30.5 74.5t-69.5 27.5q-35 0 -65.5 -27.5t-30.5 -74.5z" />
<glyph unicode="&#x1015;" horiz-adv-x="1136" d="M106 467q0 193 134 350q88 84 196 117l58 -148q-82 -20 -144 -81q-88 -113 -88 -238q0 -129 91 -220t218 -91q129 0 219.5 91t90.5 220q0 125 -93 238q-59 61 -139 81l56 148q108 -33 194 -117q139 -158 139 -350q0 -195 -137 -331t-330 -136q-195 0 -330 136t-135 331z " />
<glyph unicode="&#x1016;" horiz-adv-x="1136" d="M102 467q0 193 134 350q88 84 196 117l57 -148q-82 -20 -143 -81q-88 -113 -88 -238q0 -129 91 -220t218 -91q129 0 219.5 91t90.5 220q0 47 -15 92q-53 -41 -123 -41q-86 0 -146.5 60.5t-60.5 144.5q0 86 60.5 147.5t146.5 61.5q84 0 144 -62q45 -47 98 -146t53 -257 q0 -195 -137 -331t-330 -136q-195 0 -330 136t-135 331zM653 723q0 -35 24.5 -60.5t61.5 -25.5q35 0 61.5 25.5t26.5 60.5q0 39 -26.5 63.5t-61.5 24.5q-37 0 -61.5 -24.5t-24.5 -63.5z" />
<glyph unicode="&#x1017;" horiz-adv-x="1136" d="M102 467q0 195 136 336q100 102 233 127v-244q0 -47 30.5 -74.5t65.5 -27.5q39 0 70 27.5t31 74.5v244q129 -27 229 -127q137 -141 137 -336q0 -193 -137 -329t-330 -136q-195 0 -330 136t-135 329zM258 467q0 -125 91 -217t218 -92q129 0 219.5 92t90.5 217 q0 117 -74 203q-4 -94 -72 -160q-72 -70 -170 -70t-170 70q-63 61 -72 145q-61 -80 -61 -188z" />
<glyph unicode="&#x1018;" horiz-adv-x="1908" d="M156 244l118 110q25 -57 72 -104q90 -92 217 -92q129 0 219 91t90 220q0 125 -90 217t-219 92q-127 0 -217 -92q-47 -49 -72 -106l-118 112q27 55 80 107q135 135 327 135q195 0 330 -135q34 -35 59 -72q25 37 60 72q135 135 329 135q193 0 329 -136t136 -329 q0 -195 -136 -331t-329 -136q-158 0 -276 90l84 131q82 -66 192 -65q127 0 217.5 91t90.5 220q0 125 -90.5 217t-217.5 92q-131 0 -221 -92t-90 -217q0 -195 -136 -331t-331 -136q-193 0 -327 137q-49 49 -80 105z" />
<glyph unicode="&#x1019;" horiz-adv-x="1136" d="M106 467q0 193 134 350q88 84 196 117l58 -148q-82 -20 -144 -81q-88 -113 -88 -238q0 -111 66 -193q8 78 67 140q70 72 170 71q102 0 172 -71q61 -63 70 -148l-6 -10q80 88 80 211q0 125 -93 238q-59 61 -139 81l56 148q108 -33 194 -117q139 -158 139 -350 q0 -195 -137 -331t-330 -136q-195 0 -330 136t-135 331zM469 250q0 -35 27 -66q18 -20 45 -28h30h21q25 6 45 28q29 31 29 66q0 39 -28 69.5t-67 30.5q-47 0 -74.5 -30.5t-27.5 -69.5z" />
<glyph unicode="&#x101a;" horiz-adv-x="1908" d="M102 465q0 195 107.5 315.5t208.5 153.5l47 -150q-63 -23 -135 -106.5t-72 -212.5q0 -125 91 -217t218 -92q129 0 219.5 92t90.5 217q0 129 -71 213t-134 106l49 148q96 -35 174 -113q33 -29 57 -67q66 -86 78 -250q-2 -33 0 -72q12 -104 88 -182q92 -92 221 -92 t219.5 92t90.5 217q0 129 -90.5 220t-219.5 91q-51 0 -96 -14l-57 145q72 25 153 25q193 0 330 -136.5t137 -330.5q0 -193 -137 -329t-330 -136t-331 135q-31 33 -56 70q-25 -37 -57 -70q-135 -135 -328 -135q-195 0 -330 136t-135 329z" />
<glyph unicode="&#x101b;" horiz-adv-x="1136" d="M102 469q0 193 135.5 329t329.5 136q193 0 330 -136t127 -329v-1194h178v-137h-325v1331q0 125 -90.5 217t-219.5 92q-127 0 -218 -92t-91 -217q0 -92 45 -164q16 59 64 107q72 70 170 69q98 0 169.5 -69.5t71.5 -169.5q0 -102 -71.5 -172t-169.5 -70q-49 0 -93 16 q-117 31 -206 121q-135 137 -136 332zM446 236q0 -39 31 -67t66 -28q39 0 69.5 28t30.5 67q0 47 -30.5 74.5t-69.5 27.5q-35 0 -66 -27.5t-31 -74.5z" />
<glyph unicode="&#x101c;" horiz-adv-x="1908" d="M102 469q0 195 135.5 331t329.5 136q193 0 328 -137q33 -29 57 -68q74 -102 78 -225q-2 -33 0 -72q12 -104 88 -182q92 -92 221 -92t219.5 92t90.5 217q0 129 -90.5 220t-219.5 91q-51 0 -96 -14l-57 145q72 25 153 25q193 0 330 -136t137 -331q0 -193 -137 -329 t-330 -136t-331 135q-31 33 -56 70q-66 96 -75 260q0 129 -90.5 220t-219.5 91q-127 0 -218 -91t-91 -220q0 -125 91 -217t218 -92q53 0 101 16l57 -145q-74 -27 -158 -27q-195 0 -330 136t-135 329z" />
<glyph unicode="&#x101d;" horiz-adv-x="1136" d="M102 469q0 193 135.5 329t329.5 136q193 0 330 -136t137 -329q0 -195 -137 -331t-330 -136q-195 0 -330 136t-135 331zM258 469q0 -129 91 -220t218 -91q129 0 219.5 91t90.5 220q0 125 -90.5 217t-219.5 92q-127 0 -218 -92t-91 -217z" />
<glyph unicode="&#x101e;" horiz-adv-x="1908" d="M156 244l118 112q25 -57 72 -106q90 -92 217 -92q129 0 219 92t90 217q0 129 -90 220t-219 91q-127 0 -217 -92q-47 -47 -72 -104l-118 110q31 55 80 105q135 137 327 137q195 0 331 -136t136 -331q0 -125 90 -217t221 -92q127 0 217.5 92t90.5 217q0 129 -90.5 220 t-217.5 91q-111 0 -192 -65l-84 131q119 90 276 90q193 0 329 -136t136 -331q0 -193 -136 -329t-329 -136q-195 0 -329 135q-35 35 -60 72q-25 -37 -59 -72q-135 -135 -330 -135q-193 0 -327 135q-53 51 -80 107z" />
<glyph unicode="&#x101f;" horiz-adv-x="1908" d="M102 467q0 193 134 350q88 84 196 117l57 -148q-82 -20 -143 -81q-88 -113 -88 -238q0 -129 91 -220t218 -91q129 0 219.5 91t90.5 220q0 125 -93 238q-59 61 -139 81l55 148q109 -33 195 -117q37 -43 63 -86q23 35 56 68q137 135 329 135q190 0 326.5 -136t136.5 -329 q0 -195 -136 -331t-327 -138h-6l-22 158q14 -2 28 -2q127 2 217.5 93t90.5 220q0 125 -90.5 217t-217.5 92q-129 0 -219 -92q-80 -80 -90 -188v-31q0 -195 -137 -331t-330 -136q-195 0 -330 136t-135 331z" />
</font>
</defs>
</svg>
