<?xml version="1.0" standalone="no"?>
<!DOCTYPE svg PUBLIC "-//W3C//DTD SVG 1.1//EN" "http://www.w3.org/Graphics/SVG/1.1/DTD/svg11.dtd" >
<svg xmlns="http://www.w3.org/2000/svg" xmlns:xlink="http://www.w3.org/1999/xlink" version="1.1">
<metadata></metadata>
<defs>
<font id="yunghkio_unicoderegular" horiz-adv-x="0" >
<font-face units-per-em="2048" ascent="1638" descent="-410" />
<missing-glyph horiz-adv-x="512" />
<glyph unicode="&#x1081;&#x1030;" horiz-adv-x="1262" d="M-32 -606l88 126l230 -169l322 645l-65 4q-154 13 -257 157q-99 136 -99 296q0 209 127 342t337 133q209 0 342 -127.5t133 -336.5q0 -113 -45 -202l-112 80l13 62l5 67q9 120 -104 223q-92 84 -232 84q-133 0 -221 -98.5t-88 -236.5q0 -105 71 -191q13 68 75 116.5 t133 48.5q93 0 157.5 -62t64.5 -155q0 -56 -30 -108l-484 -950zM536 196q0 -88 88 -88q86 0 86 88q0 86 -86 86q-88 0 -88 -86zM780 -66h155v-788h-155v788zM1034 -66h154v-648h183v-137h-337v785z" />
<glyph unicode="&#x1081;&#x103d;" horiz-adv-x="1262" d="M-32 -606l88 126l230 -169l322 645l-65 4q-154 13 -257 157q-99 136 -99 296q0 209 127 342t337 133q209 0 342 -127.5t133 -336.5q0 -113 -45 -202l-112 80l13 62l5 67q9 120 -104 223q-92 84 -232 84q-133 0 -221 -98.5t-88 -236.5q0 -105 71 -191q13 68 75 116.5 t133 48.5q93 0 157.5 -62t64.5 -155q0 -56 -30 -108l-484 -950zM536 196q0 -88 88 -88q86 0 86 88q0 86 -86 86q-88 0 -88 -86zM600 -500q0 162 118.5 279t279.5 117q162 0 282 -117t120 -279q0 -165 -118.5 -283t-283.5 -118q-161 0 -279.5 118t-118.5 283zM739 -505 q0 -112 74.5 -188.5t184.5 -76.5t190.5 74t80.5 184q0 114 -74.5 191.5t-187.5 77.5q-101 0 -184.5 -81t-83.5 -181z" />
<glyph unicode="&#x1081;&#x1082;" horiz-adv-x="1262" d="M-32 -606l88 126l230 -169l322 645l-65 4q-154 13 -257 157q-99 136 -99 296q0 209 127 342t337 133q209 0 342 -127.5t133 -336.5q0 -113 -45 -202l-112 80l13 62l5 67q9 120 -104 223q-92 84 -232 84q-133 0 -221 -98.5t-88 -236.5q0 -105 71 -191q13 68 75 116.5 t133 48.5q93 0 157.5 -62t64.5 -155q0 -56 -30 -108l-484 -950zM536 196q0 -88 88 -88q86 0 86 88q0 86 -86 86q-88 0 -88 -86zM612 -476q0 163 114 275.5t273 112.5h7v-122h-11q-108 0 -187 -77.5t-79 -188.5q0 -110 79 -187.5t187 -77.5q112 0 190 77.5t78 187.5h123 q0 -159 -113 -273t-274 -114q-159 0 -273 114t-114 273z" />
<glyph unicode="&#x103a;&#x103a;" horiz-adv-x="1203" d="M106 471q0 38 34 54q13 6 26 6q38 0 54 -34q6 -12 6 -26q0 -38 -33 -54q-14 -6 -27 -6q-38 0 -54 34q-6 12 -6 26zM164 258q0 38 34 54q12 6 26 6q38 0 54 -34q6 -14 6 -26q0 -38 -34 -54q-12 -6 -26 -6q-38 0 -54 33q-6 13 -6 27zM164 684q0 38 34 54q12 6 26 6 q38 0 54 -34q6 -12 6 -26q0 -38 -34 -54q-12 -6 -26 -6q-38 0 -54 34q-6 12 -6 26zM255 1361q0 153 106.5 260t257.5 107q152 0 259 -108q104 -106 104 -257h-140q0 92 -65 157q-66 66 -158 66t-157 -65.5t-65 -159.5q0 -93 65 -157t157 -64v-142q-151 0 -257.5 107 t-106.5 256zM321 102q0 38 34 54q12 6 26 6q38 0 54 -34q6 -14 6 -26q0 -38 -34 -54q-12 -6 -26 -6q-38 0 -54 33q-6 13 -6 27zM321 840q0 38 34 54q12 6 26 6q38 0 54 -34q6 -12 6 -26q0 -38 -34 -54q-12 -6 -26 -6q-38 0 -54 34q-6 12 -6 26zM458 1356q0 70 48.5 117.5 t116.5 47.5t115 -49t47 -116v-6h-94v1q0 67 -70 67q-69 0 -69 -67q0 -71 69 -71q8 0 15 1l-3 -88h-10q-68 0 -116.5 47t-48.5 116zM535 45q0 38 34 54q12 6 26 6q38 0 54 -34q6 -14 6 -26q0 -38 -34 -54q-12 -6 -26 -6q-38 0 -54 33q-6 13 -6 27zM535 897q0 38 34 54 q12 6 26 6q38 0 54 -34q6 -12 6 -26q0 -38 -34 -54q-12 -6 -26 -6q-38 0 -54 34q-6 12 -6 26zM749 102q0 38 34 54q12 6 26 6q38 0 54 -34q6 -14 6 -26q0 -38 -34 -54q-12 -6 -26 -6q-38 0 -54 33q-6 13 -6 27zM749 840q0 38 34 54q12 6 26 6q38 0 54 -34q6 -12 6 -26 q0 -38 -34 -54q-12 -6 -26 -6q-38 0 -54 34q-6 12 -6 26zM906 258q0 38 34 54q12 6 26 6q38 0 54 -34q6 -14 6 -26q0 -38 -34 -54q-12 -6 -26 -6q-38 0 -54 33q-6 13 -6 27zM906 684q0 38 34 54q12 6 26 6q38 0 54 -34q6 -12 6 -26q0 -38 -34 -54q-12 -6 -26 -6 q-38 0 -54 34q-6 12 -6 26zM964 471q0 37 33 54q13 6 27 6q38 0 54 -34q6 -12 6 -26q0 -38 -34 -54q-14 -6 -26 -6q-38 0 -54 34q-6 12 -6 26z" />
<glyph unicode="&#x103b;&#x103d;" horiz-adv-x="1439" d="M86 471q0 38 34 54q13 6 26 6q38 0 54 -34q6 -12 6 -26q0 -38 -33 -54q-14 -6 -27 -6q-38 0 -54 34q-6 12 -6 26zM144 258q0 38 34 54q12 6 26 6q38 0 54 -34q6 -14 6 -26q0 -38 -34 -54q-12 -6 -26 -6q-38 0 -54 33q-6 13 -6 27zM144 684q0 38 34 54q12 6 26 6 q38 0 54 -34q6 -12 6 -26q0 -38 -34 -54q-12 -6 -26 -6q-38 0 -54 34q-6 12 -6 26zM223 -491q0 162 118.5 279t279.5 117q162 0 282 -117t120 -279q0 -83 -30 -154l162 -43v1596h140v-1692q0 -70 -61 -70q-27 0 -34 7l-290 78l-5 -5q-119 -118 -284 -118q-161 0 -279.5 118 t-118.5 283zM301 102q0 38 34 54q12 6 26 6q38 0 54 -34q6 -14 6 -26q0 -38 -34 -54q-12 -6 -26 -6q-38 0 -54 33q-6 13 -6 27zM301 840q0 38 34 54q12 6 26 6q38 0 54 -34q6 -12 6 -26q0 -38 -34 -54q-12 -6 -26 -6q-38 0 -54 34q-6 12 -6 26zM362 -496q0 -112 74.5 -188.5 t184.5 -76.5t190.5 74t80.5 184q0 114 -74.5 191.5t-187.5 77.5q-101 0 -184.5 -81t-83.5 -181zM515 45q0 38 34 54q12 6 26 6q38 0 54 -34q6 -14 6 -26q0 -38 -34 -54q-12 -6 -26 -6q-38 0 -54 33q-6 13 -6 27zM515 897q0 38 34 54q12 6 26 6q38 0 54 -34q6 -12 6 -26 q0 -38 -34 -54q-12 -6 -26 -6q-38 0 -54 34q-6 12 -6 26zM729 102q0 38 34 54q12 6 26 6q38 0 54 -34q6 -14 6 -26q0 -38 -34 -54q-12 -6 -26 -6q-38 0 -54 33q-6 13 -6 27zM729 840q0 38 34 54q12 6 26 6q38 0 54 -34q6 -12 6 -26q0 -38 -34 -54q-12 -6 -26 -6 q-38 0 -54 34q-6 12 -6 26zM886 258q0 38 34 54q12 6 26 6q38 0 54 -34q6 -14 6 -26q0 -38 -34 -54q-12 -6 -26 -6q-38 0 -54 33q-6 13 -6 27zM886 684q0 38 34 54q12 6 26 6q38 0 54 -34q6 -12 6 -26q0 -38 -34 -54q-12 -6 -26 -6q-38 0 -54 34q-6 12 -6 26zM944 471 q0 37 33 54q13 6 27 6q38 0 54 -34q6 -12 6 -26q0 -38 -34 -54q-14 -6 -26 -6q-38 0 -54 34q-6 12 -6 26z" />
<glyph unicode="&#x1039;&#x1010;" horiz-adv-x="1686" d="M89 -496q0 166 118.5 283.5t283.5 117.5q168 0 284 -117q29 -31 51 -62q21 31 50 62q119 117 284 117q168 0 285.5 -117.5t117.5 -283.5q0 -169 -117.5 -286.5t-285.5 -117.5h-4l-20 136q13 -2 24 -2q112 0 190.5 79t78.5 191q0 107 -78.5 186t-190.5 79q-111 0 -189 -78 q-77 -78 -77 -187q0 -169 -117.5 -286.5t-285.5 -117.5q-165 0 -283.5 117.5t-118.5 286.5zM225 -496q0 -112 78 -191t188 -79q111 0 189 79t78 191q0 107 -78 186t-189 79q-110 0 -188 -79t-78 -186zM336 471q0 38 34 54q13 6 26 6q38 0 54 -34q6 -12 6 -26q0 -38 -33 -54 q-14 -6 -27 -6q-38 0 -54 34q-6 12 -6 26zM394 258q0 38 34 54q12 6 26 6q38 0 54 -34q6 -14 6 -26q0 -38 -34 -54q-12 -6 -26 -6q-38 0 -54 33q-6 13 -6 27zM394 684q0 38 34 54q12 6 26 6q38 0 54 -34q6 -12 6 -26q0 -38 -34 -54q-12 -6 -26 -6q-38 0 -54 34q-6 12 -6 26z M551 102q0 38 34 54q12 6 26 6q38 0 54 -34q6 -14 6 -26q0 -38 -34 -54q-12 -6 -26 -6q-38 0 -54 33q-6 13 -6 27zM551 840q0 38 34 54q12 6 26 6q38 0 54 -34q6 -12 6 -26q0 -38 -34 -54q-12 -6 -26 -6q-38 0 -54 34q-6 12 -6 26zM765 45q0 38 34 54q12 6 26 6q38 0 54 -34 q6 -14 6 -26q0 -38 -34 -54q-12 -6 -26 -6q-38 0 -54 33q-6 13 -6 27zM765 897q0 38 34 54q12 6 26 6q38 0 54 -34q6 -12 6 -26q0 -38 -34 -54q-12 -6 -26 -6q-38 0 -54 34q-6 12 -6 26zM979 102q0 38 34 54q12 6 26 6q38 0 54 -34q6 -14 6 -26q0 -38 -34 -54q-12 -6 -26 -6 q-38 0 -54 33q-6 13 -6 27zM979 840q0 38 34 54q12 6 26 6q38 0 54 -34q6 -12 6 -26q0 -38 -34 -54q-12 -6 -26 -6q-38 0 -54 34q-6 12 -6 26zM1136 258q0 38 34 54q12 6 26 6q38 0 54 -34q6 -14 6 -26q0 -38 -34 -54q-12 -6 -26 -6q-38 0 -54 33q-6 13 -6 27zM1136 684 q0 38 34 54q12 6 26 6q38 0 54 -34q6 -12 6 -26q0 -38 -34 -54q-12 -6 -26 -6q-38 0 -54 34q-6 12 -6 26zM1194 471q0 37 33 54q13 6 27 6q38 0 54 -34q6 -12 6 -26q0 -38 -34 -54q-14 -6 -26 -6q-38 0 -54 34q-6 12 -6 26z" />
<glyph unicode="&#x1039;&#x1011;" horiz-adv-x="1638" d="M66 -497q0 167 117 284t284 117q166 0 283 -117q28 -28 49 -60q22 32 49 60q119 117 285 117q165 0 283.5 -117t118.5 -284q0 -168 -118.5 -285t-283.5 -117q-166 0 -285 118q-27 25 -49 59q-21 -34 -49 -59q-117 -118 -283 -118q-167 0 -284 117t-117 285zM205 -496 q0 -112 78 -191t188 -79q111 0 189 79t78 191q0 107 -78 186t-189 79q-110 0 -188 -79t-78 -186zM316 471q0 38 34 54q13 6 26 6q38 0 54 -34q6 -12 6 -26q0 -38 -33 -54q-14 -6 -27 -6q-38 0 -54 34q-6 12 -6 26zM374 258q0 38 34 54q12 6 26 6q38 0 54 -34q6 -14 6 -26 q0 -38 -34 -54q-12 -6 -26 -6q-38 0 -54 33q-6 13 -6 27zM374 684q0 38 34 54q12 6 26 6q38 0 54 -34q6 -12 6 -26q0 -38 -34 -54q-12 -6 -26 -6q-38 0 -54 34q-6 12 -6 26zM531 102q0 38 34 54q12 6 26 6q38 0 54 -34q6 -14 6 -26q0 -38 -34 -54q-12 -6 -26 -6 q-38 0 -54 33q-6 13 -6 27zM531 840q0 38 34 54q12 6 26 6q38 0 54 -34q6 -12 6 -26q0 -38 -34 -54q-12 -6 -26 -6q-38 0 -54 34q-6 12 -6 26zM745 45q0 38 34 54q12 6 26 6q38 0 54 -34q6 -14 6 -26q0 -38 -34 -54q-12 -6 -26 -6q-38 0 -54 33q-6 13 -6 27zM745 897 q0 38 34 54q12 6 26 6q38 0 54 -34q6 -12 6 -26q0 -38 -34 -54q-12 -6 -26 -6q-38 0 -54 34q-6 12 -6 26zM867 -467q-2 -33 0 -62q10 -91 75 -156q79 -81 191 -81q111 0 189 79t78 190q0 108 -78 187t-189 79q-112 0 -191 -79q-65 -68 -75 -157zM959 102q0 38 34 54 q12 6 26 6q38 0 54 -34q6 -14 6 -26q0 -38 -34 -54q-12 -6 -26 -6q-38 0 -54 33q-6 13 -6 27zM959 840q0 38 34 54q12 6 26 6q38 0 54 -34q6 -12 6 -26q0 -38 -34 -54q-12 -6 -26 -6q-38 0 -54 34q-6 12 -6 26zM1116 258q0 38 34 54q12 6 26 6q38 0 54 -34q6 -14 6 -26 q0 -38 -34 -54q-12 -6 -26 -6q-38 0 -54 33q-6 13 -6 27zM1116 684q0 38 34 54q12 6 26 6q38 0 54 -34q6 -12 6 -26q0 -38 -34 -54q-12 -6 -26 -6q-38 0 -54 34q-6 12 -6 26zM1174 471q0 37 33 54q13 6 27 6q38 0 54 -34q6 -12 6 -26q0 -38 -34 -54q-14 -6 -26 -6 q-38 0 -54 34q-6 12 -6 26z" />
<glyph unicode="&#x1039;&#x1015;" horiz-adv-x="1219" d="M106 471q0 38 34 54q13 6 26 6q38 0 54 -34q6 -12 6 -26q0 -38 -33 -54q-14 -6 -27 -6q-38 0 -54 34q-6 12 -6 26zM164 258q0 38 34 54q12 6 26 6q38 0 54 -34q6 -14 6 -26q0 -38 -34 -54q-12 -6 -26 -6q-38 0 -54 33q-6 13 -6 27zM164 684q0 38 34 54q12 6 26 6 q38 0 54 -34q6 -12 6 -26q0 -38 -34 -54q-12 -6 -26 -6q-38 0 -54 34q-6 12 -6 26zM169 -485q0 171 119 292q78 75 175 103l49 -130q-72 -18 -126 -72q-78 -82 -78 -193q0 -114 80.5 -195.5t192.5 -81.5q115 0 195 81.5t80 195.5q0 111 -82 193q-51 54 -122 72l47 130 q97 -28 174 -103q123 -121 123 -292q0 -173 -121.5 -293.5t-293.5 -120.5q-171 0 -291.5 120.5t-120.5 293.5zM321 102q0 38 34 54q12 6 26 6q38 0 54 -34q6 -14 6 -26q0 -38 -34 -54q-12 -6 -26 -6q-38 0 -54 33q-6 13 -6 27zM321 840q0 38 34 54q12 6 26 6q38 0 54 -34 q6 -12 6 -26q0 -38 -34 -54q-12 -6 -26 -6q-38 0 -54 34q-6 12 -6 26zM535 45q0 38 34 54q12 6 26 6q38 0 54 -34q6 -14 6 -26q0 -38 -34 -54q-12 -6 -26 -6q-38 0 -54 33q-6 13 -6 27zM535 897q0 38 34 54q12 6 26 6q38 0 54 -34q6 -12 6 -26q0 -38 -34 -54q-12 -6 -26 -6 q-38 0 -54 34q-6 12 -6 26zM749 102q0 38 34 54q12 6 26 6q38 0 54 -34q6 -14 6 -26q0 -38 -34 -54q-12 -6 -26 -6q-38 0 -54 33q-6 13 -6 27zM749 840q0 38 34 54q12 6 26 6q38 0 54 -34q6 -12 6 -26q0 -38 -34 -54q-12 -6 -26 -6q-38 0 -54 34q-6 12 -6 26zM906 258 q0 38 34 54q12 6 26 6q38 0 54 -34q6 -14 6 -26q0 -38 -34 -54q-12 -6 -26 -6q-38 0 -54 33q-6 13 -6 27zM906 684q0 38 34 54q12 6 26 6q38 0 54 -34q6 -12 6 -26q0 -38 -34 -54q-12 -6 -26 -6q-38 0 -54 34q-6 12 -6 26zM964 471q0 37 33 54q13 6 27 6q38 0 54 -34 q6 -12 6 -26q0 -38 -34 -54q-14 -6 -26 -6q-38 0 -54 34q-6 12 -6 26z" />
<glyph unicode="&#x1039;&#x1019;" horiz-adv-x="1219" d="M106 471q0 38 34 54q13 6 26 6q38 0 54 -34q6 -12 6 -26q0 -38 -33 -54q-14 -6 -27 -6q-38 0 -54 34q-6 12 -6 26zM164 258q0 38 34 54q12 6 26 6q38 0 54 -34q6 -14 6 -26q0 -38 -34 -54q-12 -6 -26 -6q-38 0 -54 33q-6 13 -6 27zM164 684q0 38 34 54q12 6 26 6 q38 0 54 -34q6 -12 6 -26q0 -38 -34 -54q-12 -6 -26 -6q-38 0 -54 34q-6 12 -6 26zM195 -485q0 258 263 377l40 -125q-77 -30 -123.5 -100.5t-46.5 -155.5q0 -36 48 -157q8 78 75 139t143 61q85 0 146 -56t79 -144q53 72 53 157q0 169 -187 262l32 125q133 -43 208 -144.5 t75 -242.5q0 -182 -105.5 -293t-285.5 -111q-186 0 -300 111t-114 297zM321 102q0 38 34 54q12 6 26 6q38 0 54 -34q6 -14 6 -26q0 -38 -34 -54q-12 -6 -26 -6q-38 0 -54 33q-6 13 -6 27zM321 840q0 38 34 54q12 6 26 6q38 0 54 -34q6 -12 6 -26q0 -38 -34 -54 q-12 -6 -26 -6q-38 0 -54 34q-6 12 -6 26zM504 -672l29 -67q30 -24 67 -24q38 0 64.5 27.5t26.5 66.5q0 37 -30 63.5t-67 26.5l-65 -26q-25 -31 -25 -67zM535 45q0 38 34 54q12 6 26 6q38 0 54 -34q6 -14 6 -26q0 -38 -34 -54q-12 -6 -26 -6q-38 0 -54 33q-6 13 -6 27z M535 897q0 38 34 54q12 6 26 6q38 0 54 -34q6 -12 6 -26q0 -38 -34 -54q-12 -6 -26 -6q-38 0 -54 34q-6 12 -6 26zM749 102q0 38 34 54q12 6 26 6q38 0 54 -34q6 -14 6 -26q0 -38 -34 -54q-12 -6 -26 -6q-38 0 -54 33q-6 13 -6 27zM749 840q0 38 34 54q12 6 26 6 q38 0 54 -34q6 -12 6 -26q0 -38 -34 -54q-12 -6 -26 -6q-38 0 -54 34q-6 12 -6 26zM906 258q0 38 34 54q12 6 26 6q38 0 54 -34q6 -14 6 -26q0 -38 -34 -54q-12 -6 -26 -6q-38 0 -54 33q-6 13 -6 27zM906 684q0 38 34 54q12 6 26 6q38 0 54 -34q6 -12 6 -26q0 -38 -34 -54 q-12 -6 -26 -6q-38 0 -54 34q-6 12 -6 26zM964 471q0 37 33 54q13 6 27 6q38 0 54 -34q6 -12 6 -26q0 -38 -34 -54q-14 -6 -26 -6q-38 0 -54 34q-6 12 -6 26z" />
<glyph unicode="&#x1039;&#x101c;" horiz-adv-x="1644" d="M76 -497q0 167 118 284t283 117q168 0 285 -117t117 -284q0 -111 77.5 -189.5t188.5 -78.5t189.5 78.5t78.5 189.5q0 108 -78.5 187t-189.5 79q-91 0 -161 -53l-58 123q97 65 219 65q167 0 284.5 -117t117.5 -284q0 -168 -117.5 -285t-284.5 -117q-165 0 -283 118 q-117 116 -117 281l-1 3q0 108 -78 187t-189 79q-110 0 -188 -79t-78 -187q0 -111 78 -189.5t188 -78.5q90 0 156 48l55 -124q-94 -58 -211 -58q-165 0 -283 117t-118 285zM366 471q0 38 34 54q13 6 26 6q38 0 54 -34q6 -12 6 -26q0 -38 -33 -54q-14 -6 -27 -6q-38 0 -54 34 q-6 12 -6 26zM424 258q0 38 34 54q12 6 26 6q38 0 54 -34q6 -14 6 -26q0 -38 -34 -54q-12 -6 -26 -6q-38 0 -54 33q-6 13 -6 27zM424 684q0 38 34 54q12 6 26 6q38 0 54 -34q6 -12 6 -26q0 -38 -34 -54q-12 -6 -26 -6q-38 0 -54 34q-6 12 -6 26zM581 102q0 38 34 54 q12 6 26 6q38 0 54 -34q6 -14 6 -26q0 -38 -34 -54q-12 -6 -26 -6q-38 0 -54 33q-6 13 -6 27zM581 840q0 38 34 54q12 6 26 6q38 0 54 -34q6 -12 6 -26q0 -38 -34 -54q-12 -6 -26 -6q-38 0 -54 34q-6 12 -6 26zM795 45q0 38 34 54q12 6 26 6q38 0 54 -34q6 -14 6 -26 q0 -38 -34 -54q-12 -6 -26 -6q-38 0 -54 33q-6 13 -6 27zM795 897q0 38 34 54q12 6 26 6q38 0 54 -34q6 -12 6 -26q0 -38 -34 -54q-12 -6 -26 -6q-38 0 -54 34q-6 12 -6 26zM1009 102q0 38 34 54q12 6 26 6q38 0 54 -34q6 -14 6 -26q0 -38 -34 -54q-12 -6 -26 -6 q-38 0 -54 33q-6 13 -6 27zM1009 840q0 38 34 54q12 6 26 6q38 0 54 -34q6 -12 6 -26q0 -38 -34 -54q-12 -6 -26 -6q-38 0 -54 34q-6 12 -6 26zM1166 258q0 38 34 54q12 6 26 6q38 0 54 -34q6 -14 6 -26q0 -38 -34 -54q-12 -6 -26 -6q-38 0 -54 33q-6 13 -6 27zM1166 684 q0 38 34 54q12 6 26 6q38 0 54 -34q6 -12 6 -26q0 -38 -34 -54q-12 -6 -26 -6q-38 0 -54 34q-6 12 -6 26zM1224 471q0 37 33 54q13 6 27 6q38 0 54 -34q6 -12 6 -26q0 -38 -34 -54q-14 -6 -26 -6q-38 0 -54 34q-6 12 -6 26z" />
<glyph unicode="&#x1039;&#x101e;" horiz-adv-x="1628" d="M82 -302q27 51 69 92q117 118 285 118t286.5 -118t118.5 -285q0 -111 78 -190.5t191 -79.5q109 0 187 79.5t78 190.5q0 109 -78 188t-187 79q-96 0 -166 -56l-74 115q102 77 240 77q167 0 284.5 -118t117.5 -285q0 -169 -117.5 -286.5t-284.5 -117.5q-168 0 -287 118 q-29 27 -51 61q-21 -34 -51 -61q-117 -118 -285 -118t-285 118q-45 42 -69 92l103 96q22 -49 62 -91q79 -81 189 -81q112 0 190 79.5t78 190.5q0 109 -78 188t-190 79q-110 0 -189 -79q-40 -42 -62 -91zM296 471q0 38 34 54q13 6 26 6q38 0 54 -34q6 -12 6 -26 q0 -38 -33 -54q-14 -6 -27 -6q-38 0 -54 34q-6 12 -6 26zM354 258q0 38 34 54q12 6 26 6q38 0 54 -34q6 -14 6 -26q0 -38 -34 -54q-12 -6 -26 -6q-38 0 -54 33q-6 13 -6 27zM354 684q0 38 34 54q12 6 26 6q38 0 54 -34q6 -12 6 -26q0 -38 -34 -54q-12 -6 -26 -6 q-38 0 -54 34q-6 12 -6 26zM511 102q0 38 34 54q12 6 26 6q38 0 54 -34q6 -14 6 -26q0 -38 -34 -54q-12 -6 -26 -6q-38 0 -54 33q-6 13 -6 27zM511 840q0 38 34 54q12 6 26 6q38 0 54 -34q6 -12 6 -26q0 -38 -34 -54q-12 -6 -26 -6q-38 0 -54 34q-6 12 -6 26zM725 45 q0 38 34 54q12 6 26 6q38 0 54 -34q6 -14 6 -26q0 -38 -34 -54q-12 -6 -26 -6q-38 0 -54 33q-6 13 -6 27zM725 897q0 38 34 54q12 6 26 6q38 0 54 -34q6 -12 6 -26q0 -38 -34 -54q-12 -6 -26 -6q-38 0 -54 34q-6 12 -6 26zM939 102q0 38 34 54q12 6 26 6q38 0 54 -34 q6 -14 6 -26q0 -38 -34 -54q-12 -6 -26 -6q-38 0 -54 33q-6 13 -6 27zM939 840q0 38 34 54q12 6 26 6q38 0 54 -34q6 -12 6 -26q0 -38 -34 -54q-12 -6 -26 -6q-38 0 -54 34q-6 12 -6 26zM1096 258q0 38 34 54q12 6 26 6q38 0 54 -34q6 -14 6 -26q0 -38 -34 -54 q-12 -6 -26 -6q-38 0 -54 33q-6 13 -6 27zM1096 684q0 38 34 54q12 6 26 6q38 0 54 -34q6 -12 6 -26q0 -38 -34 -54q-12 -6 -26 -6q-38 0 -54 34q-6 12 -6 26zM1154 471q0 37 33 54q13 6 27 6q38 0 54 -34q6 -12 6 -26q0 -38 -34 -54q-14 -6 -26 -6q-38 0 -54 34 q-6 12 -6 26z" />
<glyph unicode="&#x1039;&#x1075;" horiz-adv-x="1219" d="M106 471q0 38 34 54q13 6 26 6q38 0 54 -34q6 -12 6 -26q0 -38 -33 -54q-14 -6 -27 -6q-38 0 -54 34q-6 12 -6 26zM149 -558q-10 19 8 105q72 358 469 358q165 0 276 -141q109 -132 109 -299q0 -222 -244 -357l-62 126q77 31 159 196l3 51q0 117 -76 208.5t-189 91.5 q-131 0 -203 -57q-56 -50 -114 -180q201 -59 192 -218l-4 -35q-6 -54 -20 -77q-24 -67 -116 -102l-69 -10q-72 8 -108 27l36 132l33 -18l54 -3q55 -5 66 69q0 82 -76 98zM164 258q0 38 34 54q12 6 26 6q38 0 54 -34q6 -14 6 -26q0 -38 -34 -54q-12 -6 -26 -6q-38 0 -54 33 q-6 13 -6 27zM164 684q0 38 34 54q12 6 26 6q38 0 54 -34q6 -12 6 -26q0 -38 -34 -54q-12 -6 -26 -6q-38 0 -54 34q-6 12 -6 26zM321 102q0 38 34 54q12 6 26 6q38 0 54 -34q6 -14 6 -26q0 -38 -34 -54q-12 -6 -26 -6q-38 0 -54 33q-6 13 -6 27zM321 840q0 38 34 54 q12 6 26 6q38 0 54 -34q6 -12 6 -26q0 -38 -34 -54q-12 -6 -26 -6q-38 0 -54 34q-6 12 -6 26zM535 45q0 38 34 54q12 6 26 6q38 0 54 -34q6 -14 6 -26q0 -38 -34 -54q-12 -6 -26 -6q-38 0 -54 33q-6 13 -6 27zM535 897q0 38 34 54q12 6 26 6q38 0 54 -34q6 -12 6 -26 q0 -38 -34 -54q-12 -6 -26 -6q-38 0 -54 34q-6 12 -6 26zM749 102q0 38 34 54q12 6 26 6q38 0 54 -34q6 -14 6 -26q0 -38 -34 -54q-12 -6 -26 -6q-38 0 -54 33q-6 13 -6 27zM749 840q0 38 34 54q12 6 26 6q38 0 54 -34q6 -12 6 -26q0 -38 -34 -54q-12 -6 -26 -6 q-38 0 -54 34q-6 12 -6 26zM906 258q0 38 34 54q12 6 26 6q38 0 54 -34q6 -14 6 -26q0 -38 -34 -54q-12 -6 -26 -6q-38 0 -54 33q-6 13 -6 27zM906 684q0 38 34 54q12 6 26 6q38 0 54 -34q6 -12 6 -26q0 -38 -34 -54q-12 -6 -26 -6q-38 0 -54 34q-6 12 -6 26zM964 471 q0 37 33 54q13 6 27 6q38 0 54 -34q6 -12 6 -26q0 -38 -34 -54q-14 -6 -26 -6q-38 0 -54 34q-6 12 -6 26z" />
<glyph unicode="&#x1039;&#x1076;" horiz-adv-x="1219" d="M106 471q0 38 34 54q13 6 26 6q38 0 54 -34q6 -12 6 -26q0 -38 -33 -54q-14 -6 -27 -6q-38 0 -54 34q-6 12 -6 26zM164 258q0 38 34 54q12 6 26 6q38 0 54 -34q6 -14 6 -26q0 -38 -34 -54q-12 -6 -26 -6q-38 0 -54 33q-6 13 -6 27zM164 684q0 38 34 54q12 6 26 6 q38 0 54 -34q6 -12 6 -26q0 -38 -34 -54q-12 -6 -26 -6q-38 0 -54 34q-6 12 -6 26zM203 -256q0 77 17 82v6l132 -11l-11 -39q-3 -7 -5 -18q-5 -17 -5 -29q0 -29 21 -51t50 -22q30 0 52 23q18 17 20 46q4 19 4 46v48q0 34 12 51q10 10 77 10h24q164 0 284 -111.5t124 -246.5 t-46 -225.5t-143 -155.5t-281 -65q-271 0 -296 231q0 105 82 166q14 14 35 20q42 21 93 21q23 0 45 -4q63 -12 105 -66q26 -33 36 -71q27 -85 -15 -158q59 0 169 77q69 76 69 192q0 202 -247 268q-20 -157 -131 -193q-35 -16 -76 -16q-36 0 -69 11q-63 14 -112 98l-1 17 q-13 31 -13 69zM321 102q0 38 34 54q12 6 26 6q38 0 54 -34q6 -14 6 -26q0 -38 -34 -54q-12 -6 -26 -6q-38 0 -54 33q-6 13 -6 27zM321 840q0 38 34 54q12 6 26 6q38 0 54 -34q6 -12 6 -26q0 -38 -34 -54q-12 -6 -26 -6q-38 0 -54 34q-6 12 -6 26zM341 -684q0 -39 28.5 -67 t68.5 -28t69 28t29 67q0 41 -29 71t-69 30t-68.5 -30t-28.5 -71zM535 45q0 38 34 54q12 6 26 6q38 0 54 -34q6 -14 6 -26q0 -38 -34 -54q-12 -6 -26 -6q-38 0 -54 33q-6 13 -6 27zM535 897q0 38 34 54q12 6 26 6q38 0 54 -34q6 -12 6 -26q0 -38 -34 -54q-12 -6 -26 -6 q-38 0 -54 34q-6 12 -6 26zM749 102q0 38 34 54q12 6 26 6q38 0 54 -34q6 -14 6 -26q0 -38 -34 -54q-12 -6 -26 -6q-38 0 -54 33q-6 13 -6 27zM749 840q0 38 34 54q12 6 26 6q38 0 54 -34q6 -12 6 -26q0 -38 -34 -54q-12 -6 -26 -6q-38 0 -54 34q-6 12 -6 26zM906 258 q0 38 34 54q12 6 26 6q38 0 54 -34q6 -14 6 -26q0 -38 -34 -54q-12 -6 -26 -6q-38 0 -54 33q-6 13 -6 27zM906 684q0 38 34 54q12 6 26 6q38 0 54 -34q6 -12 6 -26q0 -38 -34 -54q-12 -6 -26 -6q-38 0 -54 34q-6 12 -6 26zM964 471q0 37 33 54q13 6 27 6q38 0 54 -34 q6 -12 6 -26q0 -38 -34 -54q-14 -6 -26 -6q-38 0 -54 34q-6 12 -6 26z" />
<glyph unicode="&#x1039;&#x1077;" horiz-adv-x="1219" d="M106 471q0 38 34 54q13 6 26 6q38 0 54 -34q6 -12 6 -26q0 -38 -33 -54q-14 -6 -27 -6q-38 0 -54 34q-6 12 -6 26zM164 258q0 38 34 54q12 6 26 6q38 0 54 -34q6 -14 6 -26q0 -38 -34 -54q-12 -6 -26 -6q-38 0 -54 33q-6 13 -6 27zM164 684q0 38 34 54q12 6 26 6 q38 0 54 -34q6 -12 6 -26q0 -38 -34 -54q-12 -6 -26 -6q-38 0 -54 34q-6 12 -6 26zM166 -559q-12 17 8 107q75 356 466 356q166 0 277 -141q109 -129 109 -298q0 -132 -70 -239q-77 -124 -204 -124q-78 0 -133.5 53t-55.5 128q0 83 55.5 129t140.5 46q50 0 73 -22l45 -64 q27 34 27 91q0 121 -75 215q-80 102 -198 102q-251 0 -330 -236q191 -57 191 -217q0 -13 -2 -35q-24 -185 -206 -185q-72 5 -107 24l37 133l33 -20q10 -3 54 -3q57 0 63 69q0 81 -72 99zM321 102q0 38 34 54q12 6 26 6q38 0 54 -34q6 -14 6 -26q0 -38 -34 -54q-12 -6 -26 -6 q-38 0 -54 33q-6 13 -6 27zM321 840q0 38 34 54q12 6 26 6q38 0 54 -34q6 -12 6 -26q0 -38 -34 -54q-12 -6 -26 -6q-38 0 -54 34q-6 12 -6 26zM535 45q0 38 34 54q12 6 26 6q38 0 54 -34q6 -14 6 -26q0 -38 -34 -54q-12 -6 -26 -6q-38 0 -54 33q-6 13 -6 27zM535 897 q0 38 34 54q12 6 26 6q38 0 54 -34q6 -12 6 -26q0 -38 -34 -54q-12 -6 -26 -6q-38 0 -54 34q-6 12 -6 26zM680 -724q0 -64 72 -64q63 0 63 71q0 64 -72 64q-63 0 -63 -71zM749 102q0 38 34 54q12 6 26 6q38 0 54 -34q6 -14 6 -26q0 -38 -34 -54q-12 -6 -26 -6q-38 0 -54 33 q-6 13 -6 27zM749 840q0 38 34 54q12 6 26 6q38 0 54 -34q6 -12 6 -26q0 -38 -34 -54q-12 -6 -26 -6q-38 0 -54 34q-6 12 -6 26zM906 258q0 38 34 54q12 6 26 6q38 0 54 -34q6 -14 6 -26q0 -38 -34 -54q-12 -6 -26 -6q-38 0 -54 33q-6 13 -6 27zM906 684q0 38 34 54 q12 6 26 6q38 0 54 -34q6 -12 6 -26q0 -38 -34 -54q-12 -6 -26 -6q-38 0 -54 34q-6 12 -6 26zM964 471q0 37 33 54q13 6 27 6q38 0 54 -34q6 -12 6 -26q0 -38 -34 -54q-14 -6 -26 -6q-38 0 -54 34q-6 12 -6 26z" />
<glyph unicode="&#x1039;&#x1078;" horiz-adv-x="1638" d="M75 -496q0 166 117 283t283 117q167 0 284 -117q27 -30 51 -61q21 31 50 61q118 117 284 117t283.5 -117t117.5 -283q0 -168 -117.5 -285.5t-283.5 -117.5t-284 117.5t-118 285.5q0 107 -77.5 186t-189.5 79q-109 0 -187 -79t-78 -186q0 -112 76 -189q67 -69 156 -78 v-134q-147 10 -252 116q-115 117 -115 285zM326 471q0 38 34 54q13 6 26 6q38 0 54 -34q6 -12 6 -26q0 -38 -33 -54q-14 -6 -27 -6q-38 0 -54 34q-6 12 -6 26zM384 258q0 38 34 54q12 6 26 6q38 0 54 -34q6 -14 6 -26q0 -38 -34 -54q-12 -6 -26 -6q-38 0 -54 33q-6 13 -6 27 zM384 684q0 38 34 54q12 6 26 6q38 0 54 -34q6 -12 6 -26q0 -38 -34 -54q-12 -6 -26 -6q-38 0 -54 34q-6 12 -6 26zM541 102q0 38 34 54q12 6 26 6q38 0 54 -34q6 -14 6 -26q0 -38 -34 -54q-12 -6 -26 -6q-38 0 -54 33q-6 13 -6 27zM541 840q0 38 34 54q12 6 26 6 q38 0 54 -34q6 -12 6 -26q0 -38 -34 -54q-12 -6 -26 -6q-38 0 -54 34q-6 12 -6 26zM755 45q0 38 34 54q12 6 26 6q38 0 54 -34q6 -14 6 -26q0 -38 -34 -54q-12 -6 -26 -6q-38 0 -54 33q-6 13 -6 27zM755 897q0 38 34 54q12 6 26 6q38 0 54 -34q6 -12 6 -26q0 -38 -34 -54 q-12 -6 -26 -6q-38 0 -54 34q-6 12 -6 26zM878 -496q0 -112 77.5 -190.5t188.5 -78.5q110 0 188 78.5t78 190.5q0 107 -78 186t-188 79q-111 0 -188.5 -79t-77.5 -186zM969 102q0 38 34 54q12 6 26 6q38 0 54 -34q6 -14 6 -26q0 -38 -34 -54q-12 -6 -26 -6q-38 0 -54 33 q-6 13 -6 27zM969 840q0 38 34 54q12 6 26 6q38 0 54 -34q6 -12 6 -26q0 -38 -34 -54q-12 -6 -26 -6q-38 0 -54 34q-6 12 -6 26zM1126 258q0 38 34 54q12 6 26 6q38 0 54 -34q6 -14 6 -26q0 -38 -34 -54q-12 -6 -26 -6q-38 0 -54 33q-6 13 -6 27zM1126 684q0 38 34 54 q12 6 26 6q38 0 54 -34q6 -12 6 -26q0 -38 -34 -54q-12 -6 -26 -6q-38 0 -54 34q-6 12 -6 26zM1184 471q0 37 33 54q13 6 27 6q38 0 54 -34q6 -12 6 -26q0 -38 -34 -54q-14 -6 -26 -6q-38 0 -54 34q-6 12 -6 26z" />
<glyph unicode="&#x1039;&#x107b;" horiz-adv-x="1581" d="M85 -523q0 -169 136 -286q114 -93 218 -93q188 0 312 123q106 103 106 200q0 141 -19 188q0 74 91 123q77 43 154 43q96 0 168.5 -62t96.5 -159q16 -52 16 -88q0 -82 -79 -183q0 70 -49 121t-118 51l-41 -4q-146 -37 -146 -168l9 -60q13 -55 66.5 -92t109.5 -37 q167 0 262.5 101.5t95.5 269.5q0 180 -103 300q-111 130 -288 130q-209 0 -310 -156q-110 138 -300 138q-181 0 -284.5 -109t-103.5 -291zM202 -509q0 108 75.5 190.5t187.5 82.5q110 0 191 -78t81 -188q0 -113 -75 -193t-189 -80q-115 0 -193 75.5t-78 190.5zM286 471 q0 38 34 54q13 6 26 6q38 0 54 -34q6 -12 6 -26q0 -38 -33 -54q-14 -6 -27 -6q-38 0 -54 34q-6 12 -6 26zM344 258q0 38 34 54q12 6 26 6q38 0 54 -34q6 -14 6 -26q0 -38 -34 -54q-12 -6 -26 -6q-38 0 -54 33q-6 13 -6 27zM344 684q0 38 34 54q12 6 26 6q38 0 54 -34 q6 -12 6 -26q0 -38 -34 -54q-12 -6 -26 -6q-38 0 -54 34q-6 12 -6 26zM501 102q0 38 34 54q12 6 26 6q38 0 54 -34q6 -14 6 -26q0 -38 -34 -54q-12 -6 -26 -6q-38 0 -54 33q-6 13 -6 27zM501 840q0 38 34 54q12 6 26 6q38 0 54 -34q6 -12 6 -26q0 -38 -34 -54q-12 -6 -26 -6 q-38 0 -54 34q-6 12 -6 26zM715 45q0 38 34 54q12 6 26 6q38 0 54 -34q6 -14 6 -26q0 -38 -34 -54q-12 -6 -26 -6q-38 0 -54 33q-6 13 -6 27zM715 897q0 38 34 54q12 6 26 6q38 0 54 -34q6 -12 6 -26q0 -38 -34 -54q-12 -6 -26 -6q-38 0 -54 34q-6 12 -6 26zM929 102 q0 38 34 54q12 6 26 6q38 0 54 -34q6 -14 6 -26q0 -38 -34 -54q-12 -6 -26 -6q-38 0 -54 33q-6 13 -6 27zM929 840q0 38 34 54q12 6 26 6q38 0 54 -34q6 -12 6 -26q0 -38 -34 -54q-12 -6 -26 -6q-38 0 -54 34q-6 12 -6 26zM1024 -723q8 87 83 85q87 -3 85 -85 q-4 -84 -85 -84q-83 11 -83 84zM1086 258q0 38 34 54q12 6 26 6q38 0 54 -34q6 -14 6 -26q0 -38 -34 -54q-12 -6 -26 -6q-38 0 -54 33q-6 13 -6 27zM1086 684q0 38 34 54q12 6 26 6q38 0 54 -34q6 -12 6 -26q0 -38 -34 -54q-12 -6 -26 -6q-38 0 -54 34q-6 12 -6 26z M1144 471q0 37 33 54q13 6 27 6q38 0 54 -34q6 -12 6 -26q0 -38 -34 -54q-14 -6 -26 -6q-38 0 -54 34q-6 12 -6 26z" />
<glyph unicode="&#x1039;&#x107c;" horiz-adv-x="1591" d="M93 -641q0 86 62.5 148t149.5 62q90 0 151.5 -60t61.5 -150q0 -70 -41 -123q90 0 154 76q53 62 73 157v56q9 101 -75 172.5t-188 71.5q-107 0 -183 -69l-85 110q112 99 280 99q197 0 320 -185q118 185 319 185q134 0 214 -55q26 -11 67 -44l-84 -110q-82 69 -186 69 q-54 0 -179 -71q-76 -72 -84 -173l2 -34v-22q0 -84 69 -151.5t157 -81.5q-40 53 -40 123q0 86 63 148t149 62q88 0 150.5 -62t62.5 -148t-110 -197l-35 -19l-62 -26q-54 -15 -121 -15l-78 7l-63 10q-135 43 -211 146q-33 -53 -214 -146l-139 -17q-131 0 -222 60 q-105 72 -105 197zM207 -641q0 -37 28 -68.5t67 -31.5q84 0 99 95q0 79 -94 98l-68 -29zM276 471q0 38 34 54q13 6 26 6q38 0 54 -34q6 -12 6 -26q0 -38 -33 -54q-14 -6 -27 -6q-38 0 -54 34q-6 12 -6 26zM334 258q0 38 34 54q12 6 26 6q38 0 54 -34q6 -14 6 -26 q0 -38 -34 -54q-12 -6 -26 -6q-38 0 -54 33q-6 13 -6 27zM334 684q0 38 34 54q12 6 26 6q38 0 54 -34q6 -12 6 -26q0 -38 -34 -54q-12 -6 -26 -6q-38 0 -54 34q-6 12 -6 26zM491 102q0 38 34 54q12 6 26 6q38 0 54 -34q6 -14 6 -26q0 -38 -34 -54q-12 -6 -26 -6 q-38 0 -54 33q-6 13 -6 27zM491 840q0 38 34 54q12 6 26 6q38 0 54 -34q6 -12 6 -26q0 -38 -34 -54q-12 -6 -26 -6q-38 0 -54 34q-6 12 -6 26zM705 45q0 38 34 54q12 6 26 6q38 0 54 -34q6 -14 6 -26q0 -38 -34 -54q-12 -6 -26 -6q-38 0 -54 33q-6 13 -6 27zM705 897 q0 38 34 54q12 6 26 6q38 0 54 -34q6 -12 6 -26q0 -38 -34 -54q-12 -6 -26 -6q-38 0 -54 34q-6 12 -6 26zM919 102q0 38 34 54q12 6 26 6q38 0 54 -34q6 -14 6 -26q0 -38 -34 -54q-12 -6 -26 -6q-38 0 -54 33q-6 13 -6 27zM919 840q0 38 34 54q12 6 26 6q38 0 54 -34 q6 -12 6 -26q0 -38 -34 -54q-12 -6 -26 -6q-38 0 -54 34q-6 12 -6 26zM1076 258q0 38 34 54q12 6 26 6q38 0 54 -34q6 -14 6 -26q0 -38 -34 -54q-12 -6 -26 -6q-38 0 -54 33q-6 13 -6 27zM1076 684q0 38 34 54q12 6 26 6q38 0 54 -34q6 -12 6 -26q0 -38 -34 -54 q-12 -6 -26 -6q-38 0 -54 34q-6 12 -6 26zM1134 471q0 37 33 54q13 6 27 6q38 0 54 -34q6 -12 6 -26q0 -38 -34 -54q-14 -6 -26 -6q-38 0 -54 34q-6 12 -6 26zM1142 -646q0 -36 33.5 -65.5t70.5 -29.5q39 0 65.5 29.5t26.5 70.5q0 35 -32 64t-68 29q-35 0 -65.5 -32 t-30.5 -66z" />
<glyph unicode="&#x1039;&#x107d;" horiz-adv-x="1654" d="M115 -513q0 183 189 357l53 16l6 -2q64 -20 64 -65q0 -5 -22 -75l5 -37q17 -69 92 -69q41 0 66 30t25 71q0 34 -36 68l38 101q114 -54 114 -180q0 -83 -59 -140t-140 -57q-73 0 -128 43t-69 112q-59 -64 -59 -166q0 -109 80 -184.5t190 -75.5q102 0 182 76t80 180 q0 168 108.5 290.5t271.5 122.5q115 0 281 -98l-85 -109q-79 68 -182 68q-110 0 -186 -79t-76 -189q0 -208 225 -259q-38 52 -38 122q0 85 63.5 146.5t146.5 61.5q88 0 149.5 -61.5t61.5 -146.5t-107 -195l-97 -47q-57 -13 -120 -13h-22l-118 18q-104 54 -210 161 q-116 -179 -322 -179q-167 0 -282 101q-52 43 -101 131q-32 71 -32 151zM336 471q0 38 34 54q13 6 26 6q38 0 54 -34q6 -12 6 -26q0 -38 -33 -54q-14 -6 -27 -6q-38 0 -54 34q-6 12 -6 26zM394 258q0 38 34 54q12 6 26 6q38 0 54 -34q6 -14 6 -26q0 -38 -34 -54 q-12 -6 -26 -6q-38 0 -54 33q-6 13 -6 27zM394 684q0 38 34 54q12 6 26 6q38 0 54 -34q6 -12 6 -26q0 -38 -34 -54q-12 -6 -26 -6q-38 0 -54 34q-6 12 -6 26zM551 102q0 38 34 54q12 6 26 6q38 0 54 -34q6 -14 6 -26q0 -38 -34 -54q-12 -6 -26 -6q-38 0 -54 33q-6 13 -6 27z M551 840q0 38 34 54q12 6 26 6q38 0 54 -34q6 -12 6 -26q0 -38 -34 -54q-12 -6 -26 -6q-38 0 -54 34q-6 12 -6 26zM765 45q0 38 34 54q12 6 26 6q38 0 54 -34q6 -14 6 -26q0 -38 -34 -54q-12 -6 -26 -6q-38 0 -54 33q-6 13 -6 27zM765 897q0 38 34 54q12 6 26 6q38 0 54 -34 q6 -12 6 -26q0 -38 -34 -54q-12 -6 -26 -6q-38 0 -54 34q-6 12 -6 26zM979 102q0 38 34 54q12 6 26 6q38 0 54 -34q6 -14 6 -26q0 -38 -34 -54q-12 -6 -26 -6q-38 0 -54 33q-6 13 -6 27zM979 840q0 38 34 54q12 6 26 6q38 0 54 -34q6 -12 6 -26q0 -38 -34 -54q-12 -6 -26 -6 q-38 0 -54 34q-6 12 -6 26zM1136 258q0 38 34 54q12 6 26 6q38 0 54 -34q6 -14 6 -26q0 -38 -34 -54q-12 -6 -26 -6q-38 0 -54 33q-6 13 -6 27zM1136 684q0 38 34 54q12 6 26 6q38 0 54 -34q6 -12 6 -26q0 -38 -34 -54q-12 -6 -26 -6q-38 0 -54 34q-6 12 -6 26zM1194 471 q0 37 33 54q13 6 27 6q38 0 54 -34q6 -12 6 -26q0 -38 -34 -54q-14 -6 -26 -6q-38 0 -54 34q-6 12 -6 26zM1212 -646q0 -36 33.5 -65.5t70.5 -29.5q39 0 65.5 29.5t26.5 70.5q0 35 -32 64t-68 29q-35 0 -65.5 -32t-30.5 -66z" />
<glyph unicode="&#x1039;&#x107f;" horiz-adv-x="1214" d="M106 471q0 38 34 54q13 6 26 6q38 0 54 -34q6 -12 6 -26q0 -38 -33 -54q-14 -6 -27 -6q-38 0 -54 34q-6 12 -6 26zM164 258q0 38 34 54q12 6 26 6q38 0 54 -34q6 -14 6 -26q0 -38 -34 -54q-12 -6 -26 -6q-38 0 -54 33q-6 13 -6 27zM164 684q0 38 34 54q12 6 26 6 q38 0 54 -34q6 -12 6 -26q0 -38 -34 -54q-12 -6 -26 -6q-38 0 -54 34q-6 12 -6 26zM180 -490q0 191 133 326l7 4q44 60 130 60q113 0 160 -91q18 -36 18 -82q0 -101 -93 -155q-36 -24 -82 -24q-74 0 -130 58l-16 -87q0 -122 84 -197.5t208 -75.5q81 0 161 58q103 75 103 226 q0 175 -159 256l49 120q114 -54 185.5 -160.5t71.5 -226.5q0 -184 -116 -299t-301 -115q-179 0 -296 114.5t-117 290.5zM321 102q0 38 34 54q12 6 26 6q38 0 54 -34q6 -14 6 -26q0 -38 -34 -54q-12 -6 -26 -6q-38 0 -54 33q-6 13 -6 27zM321 840q0 38 34 54q12 6 26 6 q38 0 54 -34q6 -12 6 -26q0 -38 -34 -54q-12 -6 -26 -6q-38 0 -54 34q-6 12 -6 26zM386 -279q0 -22 21.5 -44.5t40.5 -22.5q24 0 46 19.5t22 41.5q0 23 -19 45.5t-44 22.5q-21 0 -44 -20t-23 -42zM535 45q0 38 34 54q12 6 26 6q38 0 54 -34q6 -14 6 -26q0 -38 -34 -54 q-12 -6 -26 -6q-38 0 -54 33q-6 13 -6 27zM535 897q0 38 34 54q12 6 26 6q38 0 54 -34q6 -12 6 -26q0 -38 -34 -54q-12 -6 -26 -6q-38 0 -54 34q-6 12 -6 26zM749 102q0 38 34 54q12 6 26 6q38 0 54 -34q6 -14 6 -26q0 -38 -34 -54q-12 -6 -26 -6q-38 0 -54 33q-6 13 -6 27z M749 840q0 38 34 54q12 6 26 6q38 0 54 -34q6 -12 6 -26q0 -38 -34 -54q-12 -6 -26 -6q-38 0 -54 34q-6 12 -6 26zM906 258q0 38 34 54q12 6 26 6q38 0 54 -34q6 -14 6 -26q0 -38 -34 -54q-12 -6 -26 -6q-38 0 -54 33q-6 13 -6 27zM906 684q0 38 34 54q12 6 26 6 q38 0 54 -34q6 -12 6 -26q0 -38 -34 -54q-12 -6 -26 -6q-38 0 -54 34q-6 12 -6 26zM964 471q0 37 33 54q13 6 27 6q38 0 54 -34q6 -12 6 -26q0 -38 -34 -54q-14 -6 -26 -6q-38 0 -54 34q-6 12 -6 26z" />
<glyph unicode="&#x100b;&#x1039;&#x100b;" horiz-adv-x="1243" d="M189 475q0 208 137.5 349t342.5 141q228 0 383 -189q23 -26 27 -46l-103 -88q-17 9 -28 27q-78 137 -277 137q-142 0 -240 -94.5t-98 -236.5q0 -140 98 -241t238 -101q167 0 266 119l39 23h58l56 -54l2 -61l-144 -108q-14 -9 -30 -18q-96 -49 -247 -49q-200 0 -340 145 t-140 345zM271 35l146 -46v-14q129 -74 288 -76q170 -5 233 44l83 66l97 -45v-522h146v-150h-13h-230l-49 56v444q-106 -49 -269 -45q-222 5 -405 129l-27 45v114zM416 -462q0 68 74 120q37 23 81.5 35.5t97.5 12.5q60 0 110.5 -17.5t90.5 -47.5q8 -6 16 -15.5t11 -22.5 l-87 -48q-17 8 -30.5 15.5t-18.5 12.5l2 -1q-26 28 -93 28q-48 0 -80 -20q-33 -24 -33 -52q0 -17 8.5 -29.5t24.5 -23.5q35 -23 79 -23q56 0 97 30l30 13h52l62 -40l-87 -70l-10 -2q-4 -2 -10 -4t-10 -4q-25 -8 -57 -12t-67 -4q-106 0 -179 51q-74 51 -74 118zM449 -595 l124 -46q23 -8 51.5 -13t58.5 -5q63 -2 81 8l54 27l87 -26v-107h66v-95h-164l-43 33v68q-20 -2 -41 -2.5t-44 -0.5q-112 1 -207 43l-23 26v90z" />
<glyph unicode="&#x100b;&#x1039;&#x100c;" horiz-adv-x="1214" d="M120 447q0 193 136 329t329 136t329 -136q79 -82 113 -179l-155 -16q-21 36 -70 83q-88 91 -217 91q-127 0 -217.5 -91.5t-90.5 -216.5q0 -129 90.5 -220.5t217.5 -91.5q129 0 217 93q47 47 73 81l152 -14q-34 -99 -113 -178q-136 -137 -329 -137t-329 136t-136 331z M140 -606q0 159 156 159q30 0 56 -4v-157q-11 0 -32 8q-22 9 -27 9q-14 0 -14 -17q0 -52 39 -52h385q100 0 134.5 38.5t34.5 141.5v280q-120 -68 -273 -71q-142 -4 -236 39q-39 20 -110 68v170l28 -19q95 -68 148 -88q69 -30 168 -28q169 5 316 154l97 -43l4 -462 q2 -322 -311 -322h-385q-84 0 -131 56t-47 140z" />
<glyph unicode="&#x100d;&#x1039;&#x100d;" horiz-adv-x="1305" d="M215 -103v318l51 51h58l39 -23q95 -114 256 -114q138 0 230.5 97.5t92.5 237.5q0 142 -90.5 238t-232.5 96q-88 0 -153 -54q-31 -30 -128 -106q-3 -6 -5 -8l-103 100q174 212 389 212h9q199 0 327 -139t128 -339q0 -198 -133 -341t-331 -143q-150 0 -263 76v-112 q70 -54 118 -68t141 -9q144 9 284 118l88 -52l9 -621h135h15v-139q-9 -2 -15 -2h-223l-52 49l-9 557q-129 -59 -271 -59q-166 0 -275 86l-64 50zM348 -413q53 97 179 102q91 -5 147 -54q57 -49 59 -129q2 -71 -62 -126q-62 -56 -142 -56q-54 3 -90 24v-37q34 -19 90 -19 q113 0 166 50q25 0 33 -25l3 -89l104 -2l7 -79l-202 6l-3 75q-66 -19 -110 -19q-52 0 -176 61v151l80 42q25 -46 96 -46q97 0 97 89q0 79 -95 88q-67 0 -90 -40z" />
<glyph unicode="&#x100d;&#x1039;&#x100e;" horiz-adv-x="1223" d="M124 518l144 41q88 22 88 116q-12 84 -77 80l-62 -5l-39 -20l-41 153q41 22 125 31l80 -11q107 -41 135 -119q17 -27 24 -90l4 -41q11 -184 -223 -251q67 -152 133 -211q83 -67 236 -67q42 0 80 11v36q-55 -16 -92 -16q-44 0 -147 51v126l66 36q21 -39 81 -39q81 0 81 75 q0 66 -79 73q-57 0 -76 -33l-76 27q44 82 150 86q76 -4 123 -45q48 -41 49 -108q2 -60 -52 -106q-51 -47 -118 -47q-46 3 -76 20v-31q29 -16 76 -16q94 0 139 42q20 0 27 -21v-73q34 23 63 59q89 107 89 242l-4 60q-95 195 -185 228l73 147q283 -158 283 -414 q0 -199 -126 -350q-83 -105 -191 -143l1 -110l87 -2l6 -66l-169 5l-2 156q-26 -4 -54 -4q-461 0 -545 416q-21 100 -9 122z" />
<glyph unicode="&#x100f;&#x1039;&#x100d;" horiz-adv-x="2440" d="M178 458q0 148 84 263q144 201 394 201q189 0 356 -116q67 125 209 125q140 0 205 -129q29 18 49 34q133 92 294 92q258 0 409 -207q86 -117 86 -270q0 -255 -216 -397q-126 -82 -279 -82q-77 0 -144 21l49 142q16 -2 31 -6q41 -9 64 -9q108 0 196 54q148 94 148 277 q0 99 -63 187q-101 140 -266 140q-139 0 -281 -103q-5 -8 -50 -67v-2l-4 -25q-43 -72 -43 -140q0 -71 45 -146l2 -20v-70q0 -97 -68.5 -163.5t-163.5 -66.5q-97 0 -166.5 66.5t-69.5 163.5v72l4 18q43 77 43 156q0 56 -43 134l-4 19q-9 15 -41 63q-11 13 -65 49 q-95 62 -210 62q-178 0 -282 -140q-56 -79 -56 -180q0 -176 144 -271q99 -65 215 -65q15 0 51.5 7.5t53.5 7.5q7 0 16 -2l25 -133q-47 -27 -146 -27q-157 0 -301 92q-211 138 -211 391zM431 -461q0 173 120.5 284t294.5 111q172 0 296 -115.5t124 -287.5q0 -130 -66 -228h98 q46 61 58.5 102.5t7.5 122.5q-7 125 -102 247l45 76l539 8v67v13h121q2 -8 2 -13v-144l-43 -45l-483 -8q51 -112 51 -235q0 -144 -75 -239l-43 -55l-38 -19h-276l-44 44v50l20 34q99 83 99 222q0 120 -84.5 200.5t-206.5 80.5q-123 0 -206.5 -78.5t-83.5 -202.5 q0 -76 47 -132q26 -27 92 -112q5 -2 7 -4l-87 -89q-184 151 -184 337v8zM1137 205q0 -33 24 -59t60 -26q34 0 57.5 26t23.5 59v45q-51 88 -51 191q0 95 51 187v75q0 34 -25.5 57.5t-55.5 23.5q-34 0 -59 -23.5t-25 -57.5v-75q43 -95 43 -177q0 -109 -43 -199v-47z" />
<glyph unicode="&#x1039;&#x1000;" horiz-adv-x="1686" d="M89 -496q0 166 118.5 283.5t283.5 117.5q168 0 284 -117q29 -31 51 -62q21 31 50 62q119 117 284 117q168 0 285.5 -117.5t117.5 -283.5q0 -169 -117.5 -286.5t-285.5 -117.5h-4l-20 136q13 -2 24 -2q112 0 190.5 79t78.5 191q0 107 -78.5 186t-190.5 79q-111 0 -189 -78 q-77 -78 -77 -187q0 -169 -117 -316q-61 -61 -134 -90l-53 124q50 20 90 61q78 109 78 221q0 107 -78 186t-189 79q-110 0 -188 -79t-78 -186q0 -132 78 -211q43 -43 95 -62l-52 -125q-76 30 -138 92q-119 117 -119 306zM336 471q0 38 34 54q13 6 26 6q38 0 54 -34 q6 -12 6 -26q0 -38 -33 -54q-14 -6 -27 -6q-38 0 -54 34q-6 12 -6 26zM394 258q0 38 34 54q12 6 26 6q38 0 54 -34q6 -14 6 -26q0 -38 -34 -54q-12 -6 -26 -6q-38 0 -54 33q-6 13 -6 27zM394 684q0 38 34 54q12 6 26 6q38 0 54 -34q6 -12 6 -26q0 -38 -34 -54q-12 -6 -26 -6 q-38 0 -54 34q-6 12 -6 26zM551 102q0 38 34 54q12 6 26 6q38 0 54 -34q6 -14 6 -26q0 -38 -34 -54q-12 -6 -26 -6q-38 0 -54 33q-6 13 -6 27zM551 840q0 38 34 54q12 6 26 6q38 0 54 -34q6 -12 6 -26q0 -38 -34 -54q-12 -6 -26 -6q-38 0 -54 34q-6 12 -6 26zM765 45 q0 38 34 54q12 6 26 6q38 0 54 -34q6 -14 6 -26q0 -38 -34 -54q-12 -6 -26 -6q-38 0 -54 33q-6 13 -6 27zM765 897q0 38 34 54q12 6 26 6q38 0 54 -34q6 -12 6 -26q0 -38 -34 -54q-12 -6 -26 -6q-38 0 -54 34q-6 12 -6 26zM979 102q0 38 34 54q12 6 26 6q38 0 54 -34 q6 -14 6 -26q0 -38 -34 -54q-12 -6 -26 -6q-38 0 -54 33q-6 13 -6 27zM979 840q0 38 34 54q12 6 26 6q38 0 54 -34q6 -12 6 -26q0 -38 -34 -54q-12 -6 -26 -6q-38 0 -54 34q-6 12 -6 26zM1136 258q0 38 34 54q12 6 26 6q38 0 54 -34q6 -14 6 -26q0 -38 -34 -54 q-12 -6 -26 -6q-38 0 -54 33q-6 13 -6 27zM1136 684q0 38 34 54q12 6 26 6q38 0 54 -34q6 -12 6 -26q0 -38 -34 -54q-12 -6 -26 -6q-38 0 -54 34q-6 12 -6 26zM1194 471q0 37 33 54q13 6 27 6q38 0 54 -34q6 -12 6 -26q0 -38 -34 -54q-14 -6 -26 -6q-38 0 -54 34 q-6 12 -6 26z" />
<glyph unicode="&#x1039;&#x1001;" horiz-adv-x="1219" d="M106 471q0 38 34 54q13 6 26 6q38 0 54 -34q6 -12 6 -26q0 -38 -33 -54q-14 -6 -27 -6q-38 0 -54 34q-6 12 -6 26zM164 258q0 38 34 54q12 6 26 6q38 0 54 -34q6 -14 6 -26q0 -38 -34 -54q-12 -6 -26 -6q-38 0 -54 33q-6 13 -6 27zM164 684q0 38 34 54q12 6 26 6 q38 0 54 -34q6 -12 6 -26q0 -38 -34 -54q-12 -6 -26 -6q-38 0 -54 34q-6 12 -6 26zM236 -623q0 83 59.5 143t144.5 60q86 0 146 -60t60 -143q0 -76 -52 -134q108 2 182 76q80 78 80 187q0 107 -78.5 184t-190.5 77q-92 0 -163 -54l-94 93q107 93 257 93q166 0 284.5 -115 t118.5 -278t-118.5 -279t-284.5 -116q-161 0 -277 112q-7 4 -15 11q-59 60 -59 143zM321 102q0 38 34 54q12 6 26 6q38 0 54 -34q6 -14 6 -26q0 -38 -34 -54q-12 -6 -26 -6q-38 0 -54 33q-6 13 -6 27zM321 840q0 38 34 54q12 6 26 6q38 0 54 -34q6 -12 6 -26q0 -38 -34 -54 q-12 -6 -26 -6q-38 0 -54 34q-6 12 -6 26zM357 -616q0 -36 25 -61.5t61 -25.5t61.5 25.5t25.5 61.5q0 35 -25.5 60t-61.5 25t-61 -25t-25 -60zM535 45q0 38 34 54q12 6 26 6q38 0 54 -34q6 -14 6 -26q0 -38 -34 -54q-12 -6 -26 -6q-38 0 -54 33q-6 13 -6 27zM535 897 q0 38 34 54q12 6 26 6q38 0 54 -34q6 -12 6 -26q0 -38 -34 -54q-12 -6 -26 -6q-38 0 -54 34q-6 12 -6 26zM749 102q0 38 34 54q12 6 26 6q38 0 54 -34q6 -14 6 -26q0 -38 -34 -54q-12 -6 -26 -6q-38 0 -54 33q-6 13 -6 27zM749 840q0 38 34 54q12 6 26 6q38 0 54 -34 q6 -12 6 -26q0 -38 -34 -54q-12 -6 -26 -6q-38 0 -54 34q-6 12 -6 26zM906 258q0 38 34 54q12 6 26 6q38 0 54 -34q6 -14 6 -26q0 -38 -34 -54q-12 -6 -26 -6q-38 0 -54 33q-6 13 -6 27zM906 684q0 38 34 54q12 6 26 6q38 0 54 -34q6 -12 6 -26q0 -38 -34 -54q-12 -6 -26 -6 q-38 0 -54 34q-6 12 -6 26zM964 471q0 37 33 54q13 6 27 6q38 0 54 -34q6 -12 6 -26q0 -38 -34 -54q-14 -6 -26 -6q-38 0 -54 34q-6 12 -6 26z" />
<glyph unicode="&#x1039;&#x1002;" horiz-adv-x="1219" d="M106 471q0 38 34 54q13 6 26 6q38 0 54 -34q6 -12 6 -26q0 -38 -33 -54q-14 -6 -27 -6q-38 0 -54 34q-6 12 -6 26zM164 258q0 38 34 54q12 6 26 6q38 0 54 -34q6 -14 6 -26q0 -38 -34 -54q-12 -6 -26 -6q-38 0 -54 33q-6 13 -6 27zM164 684q0 38 34 54q12 6 26 6 q38 0 54 -34q6 -12 6 -26q0 -38 -34 -54q-12 -6 -26 -6q-38 0 -54 34q-6 12 -6 26zM169 -504q0 -171 119 -292q78 -75 175 -103l49 130q-72 18 -126 72q-78 82 -78 193q0 114 80.5 195.5t192.5 81.5q115 0 195 -81.5t80 -195.5q0 -111 -82 -193q-51 -54 -122 -72l47 -130 q97 28 174 103q123 121 123 292q0 173 -121.5 293.5t-293.5 120.5q-171 0 -291.5 -120.5t-120.5 -293.5zM321 102q0 38 34 54q12 6 26 6q38 0 54 -34q6 -14 6 -26q0 -38 -34 -54q-12 -6 -26 -6q-38 0 -54 33q-6 13 -6 27zM321 840q0 38 34 54q12 6 26 6q38 0 54 -34 q6 -12 6 -26q0 -38 -34 -54q-12 -6 -26 -6q-38 0 -54 34q-6 12 -6 26zM535 45q0 38 34 54q12 6 26 6q38 0 54 -34q6 -14 6 -26q0 -38 -34 -54q-12 -6 -26 -6q-38 0 -54 33q-6 13 -6 27zM535 897q0 38 34 54q12 6 26 6q38 0 54 -34q6 -12 6 -26q0 -38 -34 -54q-12 -6 -26 -6 q-38 0 -54 34q-6 12 -6 26zM749 102q0 38 34 54q12 6 26 6q38 0 54 -34q6 -14 6 -26q0 -38 -34 -54q-12 -6 -26 -6q-38 0 -54 33q-6 13 -6 27zM749 840q0 38 34 54q12 6 26 6q38 0 54 -34q6 -12 6 -26q0 -38 -34 -54q-12 -6 -26 -6q-38 0 -54 34q-6 12 -6 26zM906 258 q0 38 34 54q12 6 26 6q38 0 54 -34q6 -14 6 -26q0 -38 -34 -54q-12 -6 -26 -6q-38 0 -54 33q-6 13 -6 27zM906 684q0 38 34 54q12 6 26 6q38 0 54 -34q6 -12 6 -26q0 -38 -34 -54q-12 -6 -26 -6q-38 0 -54 34q-6 12 -6 26zM964 471q0 37 33 54q13 6 27 6q38 0 54 -34 q6 -12 6 -26q0 -38 -34 -54q-14 -6 -26 -6q-38 0 -54 34q-6 12 -6 26z" />
<glyph unicode="&#x1039;&#x1003;" horiz-adv-x="1686" d="M106 -477l6 64l31 47l31 7h18l25 -2q26 -10 57 -10q74 0 87 80q11 83 -59 96l-85 -15l-55 -29l-45 104q81 58 197 58q74 0 124 -55q48 -111 48 -146q0 -133 -108 -179q-39 -28 -147 -28q0 -142 102 -212q55 -37 82 -45q21 -12 85 -12l57 7l54 21q45 14 90 56 q83 73 83 189q0 109 -50 170q-37 49 -145 110q41 78 41 103l-8 5q130 -32 220.5 -140.5t84.5 -235.5v-60l-9 -49l-14 -27q16 -71 107 -125q68 -39 141 -39q106 0 190 85t84 194q0 119 -71 201q-77 88 -193 81l-72 -4l-28 -16l-70 105q59 46 170 46q179 0 292.5 -106 t113.5 -286q0 -184 -123.5 -307.5t-308.5 -123.5q-162 0 -315 158q-19 -29 -69 -64q-155 -77 -244 -77q-189 0 -300 106q-116 112 -102 300zM336 471q0 38 34 54q13 6 26 6q38 0 54 -34q6 -12 6 -26q0 -38 -33 -54q-14 -6 -27 -6q-38 0 -54 34q-6 12 -6 26zM394 258 q0 38 34 54q12 6 26 6q38 0 54 -34q6 -14 6 -26q0 -38 -34 -54q-12 -6 -26 -6q-38 0 -54 33q-6 13 -6 27zM394 684q0 38 34 54q12 6 26 6q38 0 54 -34q6 -12 6 -26q0 -38 -34 -54q-12 -6 -26 -6q-38 0 -54 34q-6 12 -6 26zM551 102q0 38 34 54q12 6 26 6q38 0 54 -34 q6 -14 6 -26q0 -38 -34 -54q-12 -6 -26 -6q-38 0 -54 33q-6 13 -6 27zM551 840q0 38 34 54q12 6 26 6q38 0 54 -34q6 -12 6 -26q0 -38 -34 -54q-12 -6 -26 -6q-38 0 -54 34q-6 12 -6 26zM765 45q0 38 34 54q12 6 26 6q38 0 54 -34q6 -14 6 -26q0 -38 -34 -54q-12 -6 -26 -6 q-38 0 -54 33q-6 13 -6 27zM765 897q0 38 34 54q12 6 26 6q38 0 54 -34q6 -12 6 -26q0 -38 -34 -54q-12 -6 -26 -6q-38 0 -54 34q-6 12 -6 26zM979 102q0 38 34 54q12 6 26 6q38 0 54 -34q6 -14 6 -26q0 -38 -34 -54q-12 -6 -26 -6q-38 0 -54 33q-6 13 -6 27zM979 840 q0 38 34 54q12 6 26 6q38 0 54 -34q6 -12 6 -26q0 -38 -34 -54q-12 -6 -26 -6q-38 0 -54 34q-6 12 -6 26zM1136 258q0 38 34 54q12 6 26 6q38 0 54 -34q6 -14 6 -26q0 -38 -34 -54q-12 -6 -26 -6q-38 0 -54 33q-6 13 -6 27zM1136 684q0 38 34 54q12 6 26 6q38 0 54 -34 q6 -12 6 -26q0 -38 -34 -54q-12 -6 -26 -6q-38 0 -54 34q-6 12 -6 26zM1194 471q0 37 33 54q13 6 27 6q38 0 54 -34q6 -12 6 -26q0 -38 -34 -54q-14 -6 -26 -6q-38 0 -54 34q-6 12 -6 26z" />
<glyph unicode="&#x1004;&#x103a;&#x1039;" horiz-adv-x="1219" d="M106 471q0 38 34 54q13 6 26 6q38 0 54 -34q6 -12 6 -26q0 -38 -33 -54q-14 -6 -27 -6q-38 0 -54 34q-6 12 -6 26zM164 258q0 38 34 54q12 6 26 6q38 0 54 -34q6 -14 6 -26q0 -38 -34 -54q-12 -6 -26 -6q-38 0 -54 33q-6 13 -6 27zM164 684q0 38 34 54q12 6 26 6 q38 0 54 -34q6 -12 6 -26q0 -38 -34 -54q-12 -6 -26 -6q-38 0 -54 34q-6 12 -6 26zM321 102q0 38 34 54q12 6 26 6q38 0 54 -34q6 -14 6 -26q0 -38 -34 -54q-12 -6 -26 -6q-38 0 -54 33q-6 13 -6 27zM321 840q0 38 34 54q12 6 26 6q38 0 54 -34q6 -12 6 -26q0 -38 -34 -54 q-12 -6 -26 -6q-38 0 -54 34q-6 12 -6 26zM345 1237q0 47 20 85.5t58 70.5v-1l11 9q-3 2 -5.5 5.5t-5.5 5.5q-38 32 -58 71t-20 84q0 48 20 86.5t58 70.5v-1q76 64 186 64q51 0 99 -17.5t86 -46.5q77 -63 77 -156q0 -10 -1 -25t-3 -30l-124 15q3 23 3.5 29.5t0.5 10.5 q0 23 -9.5 42.5t-30.5 35.5q-44 35 -98 35q-30 0 -54.5 -9t-46.5 -26q-40 -32 -40 -78q0 -45 40 -77q40 -35 97 -35h11l33 -1v-111q-22 2 -29 2.5t-11 0.5q-30 0 -54.5 -8t-46.5 -26q-40 -32 -40 -75q0 -45 40 -77q43 -34 101 -34q54 0 100 34q10 7 19.5 20t16.5 31l117 -34 q-16 -34 -33 -57.5t-36 -40.5q-77 -62 -184 -62q-54 0 -101 16t-85 48t-58 71.5t-20 84.5zM535 45q0 38 34 54q12 6 26 6q38 0 54 -34q6 -14 6 -26q0 -38 -34 -54q-12 -6 -26 -6q-38 0 -54 33q-6 13 -6 27zM535 897q0 38 34 54q12 6 26 6q38 0 54 -34q6 -12 6 -26 q0 -38 -34 -54q-12 -6 -26 -6q-38 0 -54 34q-6 12 -6 26zM749 102q0 38 34 54q12 6 26 6q38 0 54 -34q6 -14 6 -26q0 -38 -34 -54q-12 -6 -26 -6q-38 0 -54 33q-6 13 -6 27zM749 840q0 38 34 54q12 6 26 6q38 0 54 -34q6 -12 6 -26q0 -38 -34 -54q-12 -6 -26 -6 q-38 0 -54 34q-6 12 -6 26zM906 258q0 38 34 54q12 6 26 6q38 0 54 -34q6 -14 6 -26q0 -38 -34 -54q-12 -6 -26 -6q-38 0 -54 33q-6 13 -6 27zM906 684q0 38 34 54q12 6 26 6q38 0 54 -34q6 -12 6 -26q0 -38 -34 -54q-12 -6 -26 -6q-38 0 -54 34q-6 12 -6 26zM964 471 q0 37 33 54q13 6 27 6q38 0 54 -34q6 -12 6 -26q0 -38 -34 -54q-14 -6 -26 -6q-38 0 -54 34q-6 12 -6 26z" />
<glyph unicode="&#x1039;&#x1005;" horiz-adv-x="1219" d="M106 471q0 38 34 54q13 6 26 6q38 0 54 -34q6 -12 6 -26q0 -38 -33 -54q-14 -6 -27 -6q-38 0 -54 34q-6 12 -6 26zM164 258q0 38 34 54q12 6 26 6q38 0 54 -34q6 -14 6 -26q0 -38 -34 -54q-12 -6 -26 -6q-38 0 -54 33q-6 13 -6 27zM164 684q0 38 34 54q12 6 26 6 q38 0 54 -34q6 -12 6 -26q0 -38 -34 -54q-12 -6 -26 -6q-38 0 -54 34q-6 12 -6 26zM192 -505q3 184 116 296t296 109q159 -3 273.5 -124.5t110.5 -281.5q-3 -165 -119.5 -282t-280.5 -111q-166 2 -280 118l-88 126l-20 69zM316 -498q0 -100 106 -100q99 -3 99 104 q4 99 -102 100q-101 2 -103 -104zM321 102q0 38 34 54q12 6 26 6q38 0 54 -34q6 -14 6 -26q0 -38 -34 -54q-12 -6 -26 -6q-38 0 -54 33q-6 13 -6 27zM321 840q0 38 34 54q12 6 26 6q38 0 54 -34q6 -12 6 -26q0 -38 -34 -54q-12 -6 -26 -6q-38 0 -54 34q-6 12 -6 26z M456 -727q65 -46 141 -46q102 -2 185.5 84t85.5 189q3 116 -71 192.5t-190 78.5q-82 0 -143 -39q79 -10 133 -84q44 -59 53 -144q-1 -194 -194 -231zM535 45q0 38 34 54q12 6 26 6q38 0 54 -34q6 -14 6 -26q0 -38 -34 -54q-12 -6 -26 -6q-38 0 -54 33q-6 13 -6 27zM535 897 q0 38 34 54q12 6 26 6q38 0 54 -34q6 -12 6 -26q0 -38 -34 -54q-12 -6 -26 -6q-38 0 -54 34q-6 12 -6 26zM749 102q0 38 34 54q12 6 26 6q38 0 54 -34q6 -14 6 -26q0 -38 -34 -54q-12 -6 -26 -6q-38 0 -54 33q-6 13 -6 27zM749 840q0 38 34 54q12 6 26 6q38 0 54 -34 q6 -12 6 -26q0 -38 -34 -54q-12 -6 -26 -6q-38 0 -54 34q-6 12 -6 26zM906 258q0 38 34 54q12 6 26 6q38 0 54 -34q6 -14 6 -26q0 -38 -34 -54q-12 -6 -26 -6q-38 0 -54 33q-6 13 -6 27zM906 684q0 38 34 54q12 6 26 6q38 0 54 -34q6 -12 6 -26q0 -38 -34 -54q-12 -6 -26 -6 q-38 0 -54 34q-6 12 -6 26zM964 471q0 37 33 54q13 6 27 6q38 0 54 -34q6 -12 6 -26q0 -38 -34 -54q-14 -6 -26 -6q-38 0 -54 34q-6 12 -6 26z" />
<glyph unicode="&#x1039;&#x1006;" horiz-adv-x="1686" d="M158 -637q0 86 62.5 149t150.5 63q90 0 151.5 -60.5t61.5 -151.5q0 -70 -41 -123q90 0 154 77q53 62 73 157v2v40q0 27 2 55q-9 77 -76 133q-85 70 -189 70q-108 0 -183 -68l-86 110q113 99 281 99q194 0 316 -178q23 36 52 67q120 118 288 118q167 0 285 -119.5 t118 -286.5q0 -166 -118 -285t-285 -119q-168 0 -288 119q-23 20 -41 48l-6 -9q-33 -53 -215 -147l-139 -18q-132 0 -223 61q-105 72 -105 197zM273 -637q0 -37 27.5 -68t66.5 -31q85 0 99 94q0 80 -93 99l-69 -29zM336 471q0 38 34 54q13 6 26 6q38 0 54 -34q6 -12 6 -26 q0 -38 -33 -54q-14 -6 -27 -6q-38 0 -54 34q-6 12 -6 26zM394 258q0 38 34 54q12 6 26 6q38 0 54 -34q6 -14 6 -26q0 -38 -34 -54q-12 -6 -26 -6q-38 0 -54 33q-6 13 -6 27zM394 684q0 38 34 54q12 6 26 6q38 0 54 -34q6 -12 6 -26q0 -38 -34 -54q-12 -6 -26 -6 q-38 0 -54 34q-6 12 -6 26zM551 102q0 38 34 54q12 6 26 6q38 0 54 -34q6 -14 6 -26q0 -38 -34 -54q-12 -6 -26 -6q-38 0 -54 33q-6 13 -6 27zM551 840q0 38 34 54q12 6 26 6q38 0 54 -34q6 -12 6 -26q0 -38 -34 -54q-12 -6 -26 -6q-38 0 -54 34q-6 12 -6 26zM765 45 q0 38 34 54q12 6 26 6q38 0 54 -34q6 -14 6 -26q0 -38 -34 -54q-12 -6 -26 -6q-38 0 -54 33q-6 13 -6 27zM765 897q0 38 34 54q12 6 26 6q38 0 54 -34q6 -12 6 -26q0 -38 -34 -54q-12 -6 -26 -6q-38 0 -54 34q-6 12 -6 26zM907 -453q2 -34 2 -73q10 -84 74 -148 q78 -78 192 -78q110 0 188 78t78 190t-78 190t-188 78q-114 0 -192 -78q-67 -66 -76 -159zM979 102q0 38 34 54q12 6 26 6q38 0 54 -34q6 -14 6 -26q0 -38 -34 -54q-12 -6 -26 -6q-38 0 -54 33q-6 13 -6 27zM979 840q0 38 34 54q12 6 26 6q38 0 54 -34q6 -12 6 -26 q0 -38 -34 -54q-12 -6 -26 -6q-38 0 -54 34q-6 12 -6 26zM1136 258q0 38 34 54q12 6 26 6q38 0 54 -34q6 -14 6 -26q0 -38 -34 -54q-12 -6 -26 -6q-38 0 -54 33q-6 13 -6 27zM1136 684q0 38 34 54q12 6 26 6q38 0 54 -34q6 -12 6 -26q0 -38 -34 -54q-12 -6 -26 -6 q-38 0 -54 34q-6 12 -6 26zM1194 471q0 37 33 54q13 6 27 6q38 0 54 -34q6 -12 6 -26q0 -38 -34 -54q-14 -6 -26 -6q-38 0 -54 34q-6 12 -6 26z" />
<glyph unicode="&#x1039;&#x1007;" horiz-adv-x="1219" d="M106 471q0 38 34 54q13 6 26 6q38 0 54 -34q6 -12 6 -26q0 -38 -33 -54q-14 -6 -27 -6q-38 0 -54 34q-6 12 -6 26zM164 258q0 38 34 54q12 6 26 6q38 0 54 -34q6 -14 6 -26q0 -38 -34 -54q-12 -6 -26 -6q-38 0 -54 33q-6 13 -6 27zM164 684q0 38 34 54q12 6 26 6 q38 0 54 -34q6 -12 6 -26q0 -38 -34 -54q-12 -6 -26 -6q-38 0 -54 34q-6 12 -6 26zM184 -504q0 168 114 283.5t284 115.5q156 0 281 -112q92 -83 92 -212q0 -48 -30 -106q63 -90 71 -119l-93 -58q-13 10 -27.5 33t-35.5 50q-61 -38 -147 -38t-158 44q-80 48 -80 127 q0 29 10 57q42 116 180 116q97 0 189 -94q-11 75 -48 108q-93 79 -202 79q-114 0 -196.5 -80t-82.5 -194q0 -119 82.5 -198.5t203.5 -79.5q85 0 137 36q5 5 12 10l67 -101q-2 -2 -4 -3q-81 -64 -217 -64q-167 0 -284.5 115t-117.5 285zM321 102q0 38 34 54q12 6 26 6 q38 0 54 -34q6 -14 6 -26q0 -38 -34 -54q-12 -6 -26 -6q-38 0 -54 33q-6 13 -6 27zM321 840q0 38 34 54q12 6 26 6q38 0 54 -34q6 -12 6 -26q0 -38 -34 -54q-12 -6 -26 -6q-38 0 -54 34q-6 12 -6 26zM535 45q0 38 34 54q12 6 26 6q38 0 54 -34q6 -14 6 -26q0 -38 -34 -54 q-12 -6 -26 -6q-38 0 -54 33q-6 13 -6 27zM535 897q0 38 34 54q12 6 26 6q38 0 54 -34q6 -12 6 -26q0 -38 -34 -54q-12 -6 -26 -6q-38 0 -54 34q-6 12 -6 26zM580 -489q0 -32 59 -49q72 -24 129 9q-68 87 -126 87q-62 0 -62 -47zM749 102q0 38 34 54q12 6 26 6q38 0 54 -34 q6 -14 6 -26q0 -38 -34 -54q-12 -6 -26 -6q-38 0 -54 33q-6 13 -6 27zM749 840q0 38 34 54q12 6 26 6q38 0 54 -34q6 -12 6 -26q0 -38 -34 -54q-12 -6 -26 -6q-38 0 -54 34q-6 12 -6 26zM906 258q0 38 34 54q12 6 26 6q38 0 54 -34q6 -14 6 -26q0 -38 -34 -54q-12 -6 -26 -6 q-38 0 -54 33q-6 13 -6 27zM906 684q0 38 34 54q12 6 26 6q38 0 54 -34q6 -12 6 -26q0 -38 -34 -54q-12 -6 -26 -6q-38 0 -54 34q-6 12 -6 26zM964 471q0 37 33 54q13 6 27 6q38 0 54 -34q6 -12 6 -26q0 -38 -34 -54q-14 -6 -26 -6q-38 0 -54 34q-6 12 -6 26z" />
<glyph unicode="&#x1039;&#x1008;" horiz-adv-x="1439" d="M86 471q0 38 34 54q13 6 26 6q38 0 54 -34q6 -12 6 -26q0 -38 -33 -54q-14 -6 -27 -6q-38 0 -54 34q-6 12 -6 26zM144 258q0 38 34 54q12 6 26 6q38 0 54 -34q6 -14 6 -26q0 -38 -34 -54q-12 -6 -26 -6q-38 0 -54 33q-6 13 -6 27zM144 684q0 38 34 54q12 6 26 6 q38 0 54 -34q6 -12 6 -26q0 -38 -34 -54q-12 -6 -26 -6q-38 0 -54 34q-6 12 -6 26zM223 -491q0 162 118.5 279t279.5 117q162 0 282 -117t120 -279q0 -83 -30 -154l162 -43v1596h140v-1692q0 -70 -61 -70q-27 0 -34 7l-290 78l-5 -5q-119 -118 -284 -118q-161 0 -279.5 118 t-118.5 283zM301 102q0 38 34 54q12 6 26 6q38 0 54 -34q6 -14 6 -26q0 -38 -34 -54q-12 -6 -26 -6q-38 0 -54 33q-6 13 -6 27zM301 840q0 38 34 54q12 6 26 6q38 0 54 -34q6 -12 6 -26q0 -38 -34 -54q-12 -6 -26 -6q-38 0 -54 34q-6 12 -6 26zM338 -504q0 -100 106 -100 q99 -3 99 104q4 99 -102 100q-101 2 -103 -104zM478 -733q65 -46 141 -46q102 -2 185.5 84t85.5 189q3 116 -71 192.5t-190 78.5q-82 0 -143 -39q79 -10 133 -84q44 -59 53 -144q-1 -194 -194 -231zM515 45q0 38 34 54q12 6 26 6q38 0 54 -34q6 -14 6 -26q0 -38 -34 -54 q-12 -6 -26 -6q-38 0 -54 33q-6 13 -6 27zM515 897q0 38 34 54q12 6 26 6q38 0 54 -34q6 -12 6 -26q0 -38 -34 -54q-12 -6 -26 -6q-38 0 -54 34q-6 12 -6 26zM729 102q0 38 34 54q12 6 26 6q38 0 54 -34q6 -14 6 -26q0 -38 -34 -54q-12 -6 -26 -6q-38 0 -54 33q-6 13 -6 27z M729 840q0 38 34 54q12 6 26 6q38 0 54 -34q6 -12 6 -26q0 -38 -34 -54q-12 -6 -26 -6q-38 0 -54 34q-6 12 -6 26zM886 258q0 38 34 54q12 6 26 6q38 0 54 -34q6 -14 6 -26q0 -38 -34 -54q-12 -6 -26 -6q-38 0 -54 33q-6 13 -6 27zM886 684q0 38 34 54q12 6 26 6 q38 0 54 -34q6 -12 6 -26q0 -38 -34 -54q-12 -6 -26 -6q-38 0 -54 34q-6 12 -6 26zM944 471q0 37 33 54q13 6 27 6q38 0 54 -34q6 -12 6 -26q0 -38 -34 -54q-14 -6 -26 -6q-38 0 -54 34q-6 12 -6 26z" />
<glyph unicode="&#x1039;&#x100b;" horiz-adv-x="1219" d="M106 471q0 38 34 54q13 6 26 6q38 0 54 -34q6 -12 6 -26q0 -38 -33 -54q-14 -6 -27 -6q-38 0 -54 34q-6 12 -6 26zM164 258q0 38 34 54q12 6 26 6q38 0 54 -34q6 -14 6 -26q0 -38 -34 -54q-12 -6 -26 -6q-38 0 -54 33q-6 13 -6 27zM164 684q0 38 34 54q12 6 26 6 q38 0 54 -34q6 -12 6 -26q0 -38 -34 -54q-12 -6 -26 -6q-38 0 -54 34q-6 12 -6 26zM321 102q0 38 34 54q12 6 26 6q38 0 54 -34q6 -14 6 -26q0 -38 -34 -54q-12 -6 -26 -6q-38 0 -54 33q-6 13 -6 27zM321 840q0 38 34 54q12 6 26 6q38 0 54 -34q6 -12 6 -26q0 -38 -34 -54 q-12 -6 -26 -6q-38 0 -54 34q-6 12 -6 26zM349 -305q0 107 74 184q72 74 178 74q60 0 110.5 -26.5t90.5 -72.5q8 -9 15.5 -24t11.5 -35l-87 -73q-17 11 -30.5 23t-17.5 20l1 -1q-26 42 -93 42q-25 0 -44 -8t-35 -23q-33 -33 -33 -80t33 -81q34 -34 78 -34q58 0 96 46l31 19 h52l61 -61l-87 -106l-9 -5q-4 -3 -9.5 -6t-10.5 -5q-25 -11 -57 -17.5t-67 -6.5q-105 0 -178 76q-37 39 -55.5 83.5t-18.5 97.5zM382 -508l123 -70q23 -12 51.5 -19.5t58.5 -8.5q63 -3 81 12l55 42l86 -40v-164h66v-145h-164l-43 50v105q-20 -4 -41 -5t-44 0 q-56 1 -107 17.5t-99 48.5l-23 40v137zM535 45q0 38 34 54q12 6 26 6q38 0 54 -34q6 -14 6 -26q0 -38 -34 -54q-12 -6 -26 -6q-38 0 -54 33q-6 13 -6 27zM535 897q0 38 34 54q12 6 26 6q38 0 54 -34q6 -12 6 -26q0 -38 -34 -54q-12 -6 -26 -6q-38 0 -54 34q-6 12 -6 26z M749 102q0 38 34 54q12 6 26 6q38 0 54 -34q6 -14 6 -26q0 -38 -34 -54q-12 -6 -26 -6q-38 0 -54 33q-6 13 -6 27zM749 840q0 38 34 54q12 6 26 6q38 0 54 -34q6 -12 6 -26q0 -38 -34 -54q-12 -6 -26 -6q-38 0 -54 34q-6 12 -6 26zM906 258q0 38 34 54q12 6 26 6 q38 0 54 -34q6 -14 6 -26q0 -38 -34 -54q-12 -6 -26 -6q-38 0 -54 33q-6 13 -6 27zM906 684q0 38 34 54q12 6 26 6q38 0 54 -34q6 -12 6 -26q0 -38 -34 -54q-12 -6 -26 -6q-38 0 -54 34q-6 12 -6 26zM964 471q0 37 33 54q13 6 27 6q38 0 54 -34q6 -12 6 -26q0 -38 -34 -54 q-14 -6 -26 -6q-38 0 -54 34q-6 12 -6 26z" />
<glyph unicode="&#x1039;&#x100c;" horiz-adv-x="1870" d="M117 -282q0 178 244 178q87 0 135 -25q144 -69 144 -221q0 -70 -37 -141q-19 -46 -51 -67l-102 83q4 5 9 10q43 46 43 107q0 58 -36 93.5t-97 35.5q-46 0 -88 -20q-29 -16 -29 -33v-335q0 -93 37 -123.5t130 -30.5h524q-72 104 -72 242q0 181 136 304q126 116 310 116 q186 0 313 -116.5t127 -303.5q0 -202 -158 -327l-39 -30l-9 -7l-82 110q10 4 19 8q136 106 136 246q0 131 -87.5 212.5t-219.5 81.5q-126 0 -218 -83t-92 -211q0 -152 101 -221q27 -19 27 -51q0 -34 -30.5 -67.5t-62.5 -33.5h-623q-302 0 -302 285v335zM446 471q0 38 34 54 q13 6 26 6q38 0 54 -34q6 -12 6 -26q0 -38 -33 -54q-14 -6 -27 -6q-38 0 -54 34q-6 12 -6 26zM504 258q0 38 34 54q12 6 26 6q38 0 54 -34q6 -14 6 -26q0 -38 -34 -54q-12 -6 -26 -6q-38 0 -54 33q-6 13 -6 27zM504 684q0 38 34 54q12 6 26 6q38 0 54 -34q6 -12 6 -26 q0 -38 -34 -54q-12 -6 -26 -6q-38 0 -54 34q-6 12 -6 26zM661 102q0 38 34 54q12 6 26 6q38 0 54 -34q6 -14 6 -26q0 -38 -34 -54q-12 -6 -26 -6q-38 0 -54 33q-6 13 -6 27zM661 840q0 38 34 54q12 6 26 6q38 0 54 -34q6 -12 6 -26q0 -38 -34 -54q-12 -6 -26 -6 q-38 0 -54 34q-6 12 -6 26zM875 45q0 38 34 54q12 6 26 6q38 0 54 -34q6 -14 6 -26q0 -38 -34 -54q-12 -6 -26 -6q-38 0 -54 33q-6 13 -6 27zM875 897q0 38 34 54q12 6 26 6q38 0 54 -34q6 -12 6 -26q0 -38 -34 -54q-12 -6 -26 -6q-38 0 -54 34q-6 12 -6 26zM1089 102 q0 38 34 54q12 6 26 6q38 0 54 -34q6 -14 6 -26q0 -38 -34 -54q-12 -6 -26 -6q-38 0 -54 33q-6 13 -6 27zM1089 840q0 38 34 54q12 6 26 6q38 0 54 -34q6 -12 6 -26q0 -38 -34 -54q-12 -6 -26 -6q-38 0 -54 34q-6 12 -6 26zM1246 258q0 38 34 54q12 6 26 6q38 0 54 -34 q6 -14 6 -26q0 -38 -34 -54q-12 -6 -26 -6q-38 0 -54 33q-6 13 -6 27zM1246 684q0 38 34 54q12 6 26 6q38 0 54 -34q6 -12 6 -26q0 -38 -34 -54q-12 -6 -26 -6q-38 0 -54 34q-6 12 -6 26zM1304 471q0 37 33 54q13 6 27 6q38 0 54 -34q6 -12 6 -26q0 -38 -34 -54 q-14 -6 -26 -6q-38 0 -54 34q-6 12 -6 26z" />
<glyph unicode="&#x1039;&#x100f;" horiz-adv-x="1870" d="M90 -509q0 182 123 296q122 112 306 112q118 0 242 -89q28 89 177 89q143 0 173 -89q111 89 273 89q163 0 277 -121q112 -121 112 -292q0 -158 -118 -271q-120 -114 -275 -114v122q106 0 184 78q77 77 77 183q0 117 -76 200q-77 80 -189 80q-65 0 -117 -19t-89 -55.5 t-56 -88.5t-19 -117q0 -53 27 -121q26 -65 26 -96q0 -170 -210 -168q-216 1 -216 160q0 30 27 105q26 71 26 127q0 111 -74 198q-77 87 -178 88q-136 2 -215 -73q-80 -76 -80 -211q0 -119 83 -197q85 -80 212 -80l6 -119q-188 0 -313 109q-126 108 -126 285zM446 471 q0 38 34 54q13 6 26 6q38 0 54 -34q6 -12 6 -26q0 -38 -33 -54q-14 -6 -27 -6q-38 0 -54 34q-6 12 -6 26zM504 258q0 38 34 54q12 6 26 6q38 0 54 -34q6 -14 6 -26q0 -38 -34 -54q-12 -6 -26 -6q-38 0 -54 33q-6 13 -6 27zM504 684q0 38 34 54q12 6 26 6q38 0 54 -34 q6 -12 6 -26q0 -38 -34 -54q-12 -6 -26 -6q-38 0 -54 34q-6 12 -6 26zM661 102q0 38 34 54q12 6 26 6q38 0 54 -34q6 -14 6 -26q0 -38 -34 -54q-12 -6 -26 -6q-38 0 -54 33q-6 13 -6 27zM661 840q0 38 34 54q12 6 26 6q38 0 54 -34q6 -12 6 -26q0 -38 -34 -54q-12 -6 -26 -6 q-38 0 -54 34q-6 12 -6 26zM854 -278q0 -24 30 -101q29 -75 29 -135q0 -36 -28 -111q-29 -74 -29 -108q0 -53 76 -55q88 -3 88 59q0 37 -26 107q-25 71 -25 108q0 49 28 125q26 78 26 111q0 53 -85 53q-87 0 -84 -53zM875 45q0 38 34 54q12 6 26 6q38 0 54 -34q6 -14 6 -26 q0 -38 -34 -54q-12 -6 -26 -6q-38 0 -54 33q-6 13 -6 27zM875 897q0 38 34 54q12 6 26 6q38 0 54 -34q6 -12 6 -26q0 -38 -34 -54q-12 -6 -26 -6q-38 0 -54 34q-6 12 -6 26zM1089 102q0 38 34 54q12 6 26 6q38 0 54 -34q6 -14 6 -26q0 -38 -34 -54q-12 -6 -26 -6 q-38 0 -54 33q-6 13 -6 27zM1089 840q0 38 34 54q12 6 26 6q38 0 54 -34q6 -12 6 -26q0 -38 -34 -54q-12 -6 -26 -6q-38 0 -54 34q-6 12 -6 26zM1246 258q0 38 34 54q12 6 26 6q38 0 54 -34q6 -14 6 -26q0 -38 -34 -54q-12 -6 -26 -6q-38 0 -54 33q-6 13 -6 27zM1246 684 q0 38 34 54q12 6 26 6q38 0 54 -34q6 -12 6 -26q0 -38 -34 -54q-12 -6 -26 -6q-38 0 -54 34q-6 12 -6 26zM1304 471q0 37 33 54q13 6 27 6q38 0 54 -34q6 -12 6 -26q0 -38 -34 -54q-14 -6 -26 -6q-38 0 -54 34q-6 12 -6 26z" />
<glyph unicode="&#x1039;&#x1012;" horiz-adv-x="1219" d="M106 471q0 38 34 54q13 6 26 6q38 0 54 -34q6 -12 6 -26q0 -38 -33 -54q-14 -6 -27 -6q-38 0 -54 34q-6 12 -6 26zM164 258q0 38 34 54q12 6 26 6q38 0 54 -34q6 -14 6 -26q0 -38 -34 -54q-12 -6 -26 -6q-38 0 -54 33q-6 13 -6 27zM164 684q0 38 34 54q12 6 26 6 q38 0 54 -34q6 -12 6 -26q0 -38 -34 -54q-12 -6 -26 -6q-38 0 -54 34q-6 12 -6 26zM195 -622l122 32q92 -185 260 -185q82 0 152 52q-84 9 -139 73q-56 96 -56 151q0 71 61.5 138.5t133.5 74.5q-100 48 -152 48q-84 0 -154.5 -46t-97.5 -122l-127 38q43 115 149 189t228 74 q109 0 242 -74q102 -73 136 -184l4 -23q0 -69 -84 -69l-63 25q-27 20 -51 20q-46 -10 -68 -31q-9 -18 -20 -44q-2 -7 -6 -14q0 -38 26.5 -67.5t64.5 -29.5q16 0 57 22t59 22q79 0 79 -74l-7 -39q-113 -236 -367 -236q-140 0 -240 73.5t-142 205.5zM321 102q0 38 34 54 q12 6 26 6q38 0 54 -34q6 -14 6 -26q0 -38 -34 -54q-12 -6 -26 -6q-38 0 -54 33q-6 13 -6 27zM321 840q0 38 34 54q12 6 26 6q38 0 54 -34q6 -12 6 -26q0 -38 -34 -54q-12 -6 -26 -6q-38 0 -54 34q-6 12 -6 26zM535 45q0 38 34 54q12 6 26 6q38 0 54 -34q6 -14 6 -26 q0 -38 -34 -54q-12 -6 -26 -6q-38 0 -54 33q-6 13 -6 27zM535 897q0 38 34 54q12 6 26 6q38 0 54 -34q6 -12 6 -26q0 -38 -34 -54q-12 -6 -26 -6q-38 0 -54 34q-6 12 -6 26zM749 102q0 38 34 54q12 6 26 6q38 0 54 -34q6 -14 6 -26q0 -38 -34 -54q-12 -6 -26 -6 q-38 0 -54 33q-6 13 -6 27zM749 840q0 38 34 54q12 6 26 6q38 0 54 -34q6 -12 6 -26q0 -38 -34 -54q-12 -6 -26 -6q-38 0 -54 34q-6 12 -6 26zM906 258q0 38 34 54q12 6 26 6q38 0 54 -34q6 -14 6 -26q0 -38 -34 -54q-12 -6 -26 -6q-38 0 -54 33q-6 13 -6 27zM906 684 q0 38 34 54q12 6 26 6q38 0 54 -34q6 -12 6 -26q0 -38 -34 -54q-12 -6 -26 -6q-38 0 -54 34q-6 12 -6 26zM964 471q0 37 33 54q13 6 27 6q38 0 54 -34q6 -12 6 -26q0 -38 -34 -54q-14 -6 -26 -6q-38 0 -54 34q-6 12 -6 26z" />
<glyph unicode="&#x1039;&#x1013;" horiz-adv-x="1219" d="M106 471q0 38 34 54q13 6 26 6q38 0 54 -34q6 -12 6 -26q0 -38 -33 -54q-14 -6 -27 -6q-38 0 -54 34q-6 12 -6 26zM164 258q0 38 34 54q12 6 26 6q38 0 54 -34q6 -14 6 -26q0 -38 -34 -54q-12 -6 -26 -6q-38 0 -54 33q-6 13 -6 27zM164 684q0 38 34 54q12 6 26 6 q38 0 54 -34q6 -12 6 -26q0 -38 -34 -54q-12 -6 -26 -6q-38 0 -54 34q-6 12 -6 26zM175 -491q3 159 124.5 273.5t281.5 110.5q165 -3 282 -119.5t111 -280.5q-2 -166 -118 -280l-126 -88l-69 -20l-81 -8q-184 3 -296 116t-109 296zM304 -488q0 -82 39 -143q10 79 84 133 q59 44 144 53q194 -1 231 -194q46 65 46 141q2 102 -84 185.5t-189 85.5q-116 3 -192.5 -71t-78.5 -190zM321 102q0 38 34 54q12 6 26 6q38 0 54 -34q6 -14 6 -26q0 -38 -34 -54q-12 -6 -26 -6q-38 0 -54 33q-6 13 -6 27zM321 840q0 38 34 54q12 6 26 6q38 0 54 -34 q6 -12 6 -26q0 -38 -34 -54q-12 -6 -26 -6q-38 0 -54 34q-6 12 -6 26zM469 -676q-2 -101 104 -103q100 0 100 106q3 99 -104 99q-99 4 -100 -102zM535 45q0 38 34 54q12 6 26 6q38 0 54 -34q6 -14 6 -26q0 -38 -34 -54q-12 -6 -26 -6q-38 0 -54 33q-6 13 -6 27zM535 897 q0 38 34 54q12 6 26 6q38 0 54 -34q6 -12 6 -26q0 -38 -34 -54q-12 -6 -26 -6q-38 0 -54 34q-6 12 -6 26zM749 102q0 38 34 54q12 6 26 6q38 0 54 -34q6 -14 6 -26q0 -38 -34 -54q-12 -6 -26 -6q-38 0 -54 33q-6 13 -6 27zM749 840q0 38 34 54q12 6 26 6q38 0 54 -34 q6 -12 6 -26q0 -38 -34 -54q-12 -6 -26 -6q-38 0 -54 34q-6 12 -6 26zM906 258q0 38 34 54q12 6 26 6q38 0 54 -34q6 -14 6 -26q0 -38 -34 -54q-12 -6 -26 -6q-38 0 -54 33q-6 13 -6 27zM906 684q0 38 34 54q12 6 26 6q38 0 54 -34q6 -12 6 -26q0 -38 -34 -54q-12 -6 -26 -6 q-38 0 -54 34q-6 12 -6 26zM964 471q0 37 33 54q13 6 27 6q38 0 54 -34q6 -12 6 -26q0 -38 -34 -54q-14 -6 -26 -6q-38 0 -54 34q-6 12 -6 26z" />
<glyph unicode="&#x1039;&#x1014;" horiz-adv-x="1219" d="M106 471q0 38 34 54q13 6 26 6q38 0 54 -34q6 -12 6 -26q0 -38 -33 -54q-14 -6 -27 -6q-38 0 -54 34q-6 12 -6 26zM164 258q0 38 34 54q12 6 26 6q38 0 54 -34q6 -14 6 -26q0 -38 -34 -54q-12 -6 -26 -6q-38 0 -54 33q-6 13 -6 27zM164 684q0 38 34 54q12 6 26 6 q38 0 54 -34q6 -12 6 -26q0 -38 -34 -54q-12 -6 -26 -6q-38 0 -54 34q-6 12 -6 26zM237 -624q0 82 56.5 140t138.5 58q70 0 153 -56q105 -75 127 -238q91 21 91 99q0 84 -82 139q-19 10 -149 46q-161 42 -161 167q0 70 50 114t124 44q59 0 79.5 -12t70.5 -44q20 -24 28 -45 l-68 -68q-14 6 -27 18q-32 31 -38 31q-16 10 -45 10q-65 0 -69 -40q0 -49 99 -75q42 -9 86 -22q48 -13 76 -31q60 -37 97.5 -101.5t37.5 -134.5q0 -92 -74 -155q-41 -38 -126 -53v-55h-109v43q-138 -6 -237 40q-129 55 -129 181zM321 102q0 38 34 54q12 6 26 6q38 0 54 -34 q6 -14 6 -26q0 -38 -34 -54q-12 -6 -26 -6q-38 0 -54 33q-6 13 -6 27zM321 840q0 38 34 54q12 6 26 6q38 0 54 -34q6 -12 6 -26q0 -38 -34 -54q-12 -6 -26 -6q-38 0 -54 34q-6 12 -6 26zM327 -617q0 -71 102 -99q73 -20 159 -18q-3 14 -10 42q-50 150 -160 150 q-37 0 -64 -21t-27 -54zM535 45q0 38 34 54q12 6 26 6q38 0 54 -34q6 -14 6 -26q0 -38 -34 -54q-12 -6 -26 -6q-38 0 -54 33q-6 13 -6 27zM535 897q0 38 34 54q12 6 26 6q38 0 54 -34q6 -12 6 -26q0 -38 -34 -54q-12 -6 -26 -6q-38 0 -54 34q-6 12 -6 26zM749 102 q0 38 34 54q12 6 26 6q38 0 54 -34q6 -14 6 -26q0 -38 -34 -54q-12 -6 -26 -6q-38 0 -54 33q-6 13 -6 27zM749 840q0 38 34 54q12 6 26 6q38 0 54 -34q6 -12 6 -26q0 -38 -34 -54q-12 -6 -26 -6q-38 0 -54 34q-6 12 -6 26zM906 258q0 38 34 54q12 6 26 6q38 0 54 -34 q6 -14 6 -26q0 -38 -34 -54q-12 -6 -26 -6q-38 0 -54 33q-6 13 -6 27zM906 684q0 38 34 54q12 6 26 6q38 0 54 -34q6 -12 6 -26q0 -38 -34 -54q-12 -6 -26 -6q-38 0 -54 34q-6 12 -6 26zM964 471q0 37 33 54q13 6 27 6q38 0 54 -34q6 -12 6 -26q0 -38 -34 -54q-14 -6 -26 -6 q-38 0 -54 34q-6 12 -6 26z" />
<glyph unicode="&#x1039;&#x1016;" horiz-adv-x="1219" d="M106 471q0 38 34 54q13 6 26 6q38 0 54 -34q6 -12 6 -26q0 -38 -33 -54q-14 -6 -27 -6q-38 0 -54 34q-6 12 -6 26zM164 258q0 38 34 54q12 6 26 6q38 0 54 -34q6 -14 6 -26q0 -38 -34 -54q-12 -6 -26 -6q-38 0 -54 33q-6 13 -6 27zM164 684q0 38 34 54q12 6 26 6 q38 0 54 -34q6 -12 6 -26q0 -38 -34 -54q-12 -6 -26 -6q-38 0 -54 34q-6 12 -6 26zM165 -480q0 -184 116 -299t301 -115q179 0 296 114.5t117 290.5q0 191 -133 326l-7 4q-44 60 -130 60q-113 0 -160 -91q-18 -36 -18 -82q0 -101 93 -155q36 -24 82 -24q74 0 130 58l16 -87 q0 -122 -84 -197.5t-208 -75.5q-81 0 -161 58q-103 75 -103 226q0 175 159 256l-49 120q-114 -54 -185.5 -160.5t-71.5 -226.5zM321 102q0 38 34 54q12 6 26 6q38 0 54 -34q6 -14 6 -26q0 -38 -34 -54q-12 -6 -26 -6q-38 0 -54 33q-6 13 -6 27zM321 840q0 38 34 54 q12 6 26 6q38 0 54 -34q6 -12 6 -26q0 -38 -34 -54q-12 -6 -26 -6q-38 0 -54 34q-6 12 -6 26zM535 45q0 38 34 54q12 6 26 6q38 0 54 -34q6 -14 6 -26q0 -38 -34 -54q-12 -6 -26 -6q-38 0 -54 33q-6 13 -6 27zM535 897q0 38 34 54q12 6 26 6q38 0 54 -34q6 -12 6 -26 q0 -38 -34 -54q-12 -6 -26 -6q-38 0 -54 34q-6 12 -6 26zM659 -284q0 23 19 45.5t44 22.5q21 0 44 -20t23 -42t-21.5 -44.5t-40.5 -22.5q-24 0 -46 19.5t-22 41.5zM749 102q0 38 34 54q12 6 26 6q38 0 54 -34q6 -14 6 -26q0 -38 -34 -54q-12 -6 -26 -6q-38 0 -54 33 q-6 13 -6 27zM749 840q0 38 34 54q12 6 26 6q38 0 54 -34q6 -12 6 -26q0 -38 -34 -54q-12 -6 -26 -6q-38 0 -54 34q-6 12 -6 26zM906 258q0 38 34 54q12 6 26 6q38 0 54 -34q6 -14 6 -26q0 -38 -34 -54q-12 -6 -26 -6q-38 0 -54 33q-6 13 -6 27zM906 684q0 38 34 54 q12 6 26 6q38 0 54 -34q6 -12 6 -26q0 -38 -34 -54q-12 -6 -26 -6q-38 0 -54 34q-6 12 -6 26zM964 471q0 37 33 54q13 6 27 6q38 0 54 -34q6 -12 6 -26q0 -38 -34 -54q-14 -6 -26 -6q-38 0 -54 34q-6 12 -6 26z" />
<glyph unicode="&#x1039;&#x1017;" horiz-adv-x="1219" d="M106 471q0 38 34 54q13 6 26 6q38 0 54 -34q6 -12 6 -26q0 -38 -33 -54q-14 -6 -27 -6q-38 0 -54 34q-6 12 -6 26zM164 258q0 38 34 54q12 6 26 6q38 0 54 -34q6 -14 6 -26q0 -38 -34 -54q-12 -6 -26 -6q-38 0 -54 33q-6 13 -6 27zM164 684q0 38 34 54q12 6 26 6 q38 0 54 -34q6 -12 6 -26q0 -38 -34 -54q-12 -6 -26 -6q-38 0 -54 34q-6 12 -6 26zM192 -499q-4 -162 112.5 -281t276.5 -120q165 -2 283 111t121 281q2 166 -109 288l-124 93l-68 22q5 -169 4 -226q0 -100 -104 -98q-100 0 -98 107q0 34 -7 212q-102 -28 -171 -95 q-114 -111 -116 -294zM318 -508q0 86 42 144q7 -80 78 -135q62 -50 146 -61q191 -6 235 192q41 -69 40 -147q0 -102 -90 -183.5t-189 -79.5q-116 2 -190 78.5t-72 191.5zM321 102q0 38 34 54q12 6 26 6q38 0 54 -34q6 -14 6 -26q0 -38 -34 -54q-12 -6 -26 -6q-38 0 -54 33 q-6 13 -6 27zM321 840q0 38 34 54q12 6 26 6q38 0 54 -34q6 -12 6 -26q0 -38 -34 -54q-12 -6 -26 -6q-38 0 -54 34q-6 12 -6 26zM535 45q0 38 34 54q12 6 26 6q38 0 54 -34q6 -14 6 -26q0 -38 -34 -54q-12 -6 -26 -6q-38 0 -54 33q-6 13 -6 27zM535 897q0 38 34 54 q12 6 26 6q38 0 54 -34q6 -12 6 -26q0 -38 -34 -54q-12 -6 -26 -6q-38 0 -54 34q-6 12 -6 26zM749 102q0 38 34 54q12 6 26 6q38 0 54 -34q6 -14 6 -26q0 -38 -34 -54q-12 -6 -26 -6q-38 0 -54 33q-6 13 -6 27zM749 840q0 38 34 54q12 6 26 6q38 0 54 -34q6 -12 6 -26 q0 -38 -34 -54q-12 -6 -26 -6q-38 0 -54 34q-6 12 -6 26zM906 258q0 38 34 54q12 6 26 6q38 0 54 -34q6 -14 6 -26q0 -38 -34 -54q-12 -6 -26 -6q-38 0 -54 33q-6 13 -6 27zM906 684q0 38 34 54q12 6 26 6q38 0 54 -34q6 -12 6 -26q0 -38 -34 -54q-12 -6 -26 -6 q-38 0 -54 34q-6 12 -6 26zM964 471q0 37 33 54q13 6 27 6q38 0 54 -34q6 -12 6 -26q0 -38 -34 -54q-14 -6 -26 -6q-38 0 -54 34q-6 12 -6 26z" />
<glyph unicode="&#x1039;&#x1018;" horiz-adv-x="1686" d="M136 -308l103 -96q22 49 62 91q79 81 189 81q112 0 190 -79.5t78 -190.5q0 -109 -78 -188t-190 -79q-110 0 -189 79q-40 42 -62 91l-103 -96q27 -51 69 -92q117 -118 285 -118t286.5 118t118.5 285q0 111 78 190.5t191 79.5q109 0 187 -79.5t78 -190.5q0 -109 -78 -188 t-187 -79q-96 0 -166 56l-74 -115q102 -77 240 -77q167 0 284.5 118t117.5 285q0 169 -117.5 286.5t-284.5 117.5q-168 0 -287 -118q-29 -27 -51 -61q-21 34 -51 61q-117 118 -285 118t-285 -118q-45 -42 -69 -92zM336 471q0 38 34 54q13 6 26 6q38 0 54 -34q6 -12 6 -26 q0 -38 -33 -54q-14 -6 -27 -6q-38 0 -54 34q-6 12 -6 26zM394 258q0 38 34 54q12 6 26 6q38 0 54 -34q6 -14 6 -26q0 -38 -34 -54q-12 -6 -26 -6q-38 0 -54 33q-6 13 -6 27zM394 684q0 38 34 54q12 6 26 6q38 0 54 -34q6 -12 6 -26q0 -38 -34 -54q-12 -6 -26 -6 q-38 0 -54 34q-6 12 -6 26zM551 102q0 38 34 54q12 6 26 6q38 0 54 -34q6 -14 6 -26q0 -38 -34 -54q-12 -6 -26 -6q-38 0 -54 33q-6 13 -6 27zM551 840q0 38 34 54q12 6 26 6q38 0 54 -34q6 -12 6 -26q0 -38 -34 -54q-12 -6 -26 -6q-38 0 -54 34q-6 12 -6 26zM765 45 q0 38 34 54q12 6 26 6q38 0 54 -34q6 -14 6 -26q0 -38 -34 -54q-12 -6 -26 -6q-38 0 -54 33q-6 13 -6 27zM765 897q0 38 34 54q12 6 26 6q38 0 54 -34q6 -12 6 -26q0 -38 -34 -54q-12 -6 -26 -6q-38 0 -54 34q-6 12 -6 26zM979 102q0 38 34 54q12 6 26 6q38 0 54 -34 q6 -14 6 -26q0 -38 -34 -54q-12 -6 -26 -6q-38 0 -54 33q-6 13 -6 27zM979 840q0 38 34 54q12 6 26 6q38 0 54 -34q6 -12 6 -26q0 -38 -34 -54q-12 -6 -26 -6q-38 0 -54 34q-6 12 -6 26zM1136 258q0 38 34 54q12 6 26 6q38 0 54 -34q6 -14 6 -26q0 -38 -34 -54 q-12 -6 -26 -6q-38 0 -54 33q-6 13 -6 27zM1136 684q0 38 34 54q12 6 26 6q38 0 54 -34q6 -12 6 -26q0 -38 -34 -54q-12 -6 -26 -6q-38 0 -54 34q-6 12 -6 26zM1194 471q0 37 33 54q13 6 27 6q38 0 54 -34q6 -12 6 -26q0 -38 -34 -54q-14 -6 -26 -6q-38 0 -54 34 q-6 12 -6 26z" />
<glyph unicode="&#x1039;&#x1021;" horiz-adv-x="1686" d="M150 -630l120 32q90 -182 255 -182q80 0 149 51q-82 9 -136 71q-55 95 -55 149q0 70 60.5 136t130.5 73q-98 47 -149 47q-83 0 -152 -45t-96 -120l-124 38q42 112 146 185t224 73q107 0 238 -73q46 -31 77 -75q35 44 87 79q131 92 262.5 69.5t210 -86t122.5 -163 t6 -277.5q-50 -253 -280 -232q-102 22 -145 109q-9 17 -14 38q-13 41 -3 86q6 24 15 43q22 59 82 86q38 19 79 21q86 8 149 -42q12 53 -42 169q-61 81 -172 104q-197 38 -310 -183h-3q-21 -17 -66 -17l-62 25q-26 19 -50 19q-45 -9 -67 -30q-9 -18 -20 -43q-2 -7 -6 -14 q0 -38 26.5 -66.5t63.5 -28.5q15 0 55.5 21.5t57.5 21.5q79 0 79 -73l-8 -38q-111 -232 -360 -232q-137 0 -235 72t-140 202zM336 471q0 38 34 54q13 6 26 6q38 0 54 -34q6 -12 6 -26q0 -38 -33 -54q-14 -6 -27 -6q-38 0 -54 34q-6 12 -6 26zM394 258q0 38 34 54q12 6 26 6 q38 0 54 -34q6 -14 6 -26q0 -38 -34 -54q-12 -6 -26 -6q-38 0 -54 33q-6 13 -6 27zM394 684q0 38 34 54q12 6 26 6q38 0 54 -34q6 -12 6 -26q0 -38 -34 -54q-12 -6 -26 -6q-38 0 -54 34q-6 12 -6 26zM551 102q0 38 34 54q12 6 26 6q38 0 54 -34q6 -14 6 -26q0 -38 -34 -54 q-12 -6 -26 -6q-38 0 -54 33q-6 13 -6 27zM551 840q0 38 34 54q12 6 26 6q38 0 54 -34q6 -12 6 -26q0 -38 -34 -54q-12 -6 -26 -6q-38 0 -54 34q-6 12 -6 26zM765 45q0 38 34 54q12 6 26 6q38 0 54 -34q6 -14 6 -26q0 -38 -34 -54q-12 -6 -26 -6q-38 0 -54 33q-6 13 -6 27z M765 897q0 38 34 54q12 6 26 6q38 0 54 -34q6 -12 6 -26q0 -38 -34 -54q-12 -6 -26 -6q-38 0 -54 34q-6 12 -6 26zM979 102q0 38 34 54q12 6 26 6q38 0 54 -34q6 -14 6 -26q0 -38 -34 -54q-12 -6 -26 -6q-38 0 -54 33q-6 13 -6 27zM979 840q0 38 34 54q12 6 26 6 q38 0 54 -34q6 -12 6 -26q0 -38 -34 -54q-12 -6 -26 -6q-38 0 -54 34q-6 12 -6 26zM1136 258q0 38 34 54q12 6 26 6q38 0 54 -34q6 -14 6 -26q0 -38 -34 -54q-12 -6 -26 -6q-38 0 -54 33q-6 13 -6 27zM1136 684q0 38 34 54q12 6 26 6q38 0 54 -34q6 -12 6 -26q0 -38 -34 -54 q-12 -6 -26 -6q-38 0 -54 34q-6 12 -6 26zM1185 -670q-8 -34 14.5 -67.5t60.5 -38.5q40 -10 73.5 12t41.5 60q7 34 -15.5 67t-59.5 40q-40 9 -72.5 -12t-42.5 -61zM1194 471q0 37 33 54q13 6 27 6q38 0 54 -34q6 -12 6 -26q0 -38 -34 -54q-14 -6 -26 -6q-38 0 -54 34 q-6 12 -6 26z" />
<glyph unicode="&#x103b;&#x103e;" horiz-adv-x="1439" d="M86 471q0 38 34 54q13 6 26 6q38 0 54 -34q6 -12 6 -26q0 -38 -33 -54q-14 -6 -27 -6q-38 0 -54 34q-6 12 -6 26zM144 258q0 38 34 54q12 6 26 6q38 0 54 -34q6 -14 6 -26q0 -38 -34 -54q-12 -6 -26 -6q-38 0 -54 33q-6 13 -6 27zM144 684q0 38 34 54q12 6 26 6 q38 0 54 -34q6 -12 6 -26q0 -38 -34 -54q-12 -6 -26 -6q-38 0 -54 34q-6 12 -6 26zM213 -512l82 118l148 -102l264 384v33h144v-529l306 -80v1596h140v-1692q0 -70 -61 -70q-27 0 -34 7l-446 119q-49 14 -49 66v297l-228 -330zM301 102q0 38 34 54q12 6 26 6q38 0 54 -34 q6 -14 6 -26q0 -38 -34 -54q-12 -6 -26 -6q-38 0 -54 33q-6 13 -6 27zM301 840q0 38 34 54q12 6 26 6q38 0 54 -34q6 -12 6 -26q0 -38 -34 -54q-12 -6 -26 -6q-38 0 -54 34q-6 12 -6 26zM515 45q0 38 34 54q12 6 26 6q38 0 54 -34q6 -14 6 -26q0 -38 -34 -54q-12 -6 -26 -6 q-38 0 -54 33q-6 13 -6 27zM515 897q0 38 34 54q12 6 26 6q38 0 54 -34q6 -12 6 -26q0 -38 -34 -54q-12 -6 -26 -6q-38 0 -54 34q-6 12 -6 26zM729 102q0 38 34 54q12 6 26 6q38 0 54 -34q6 -14 6 -26q0 -38 -34 -54q-12 -6 -26 -6q-38 0 -54 33q-6 13 -6 27zM729 840 q0 38 34 54q12 6 26 6q38 0 54 -34q6 -12 6 -26q0 -38 -34 -54q-12 -6 -26 -6q-38 0 -54 34q-6 12 -6 26zM886 258q0 38 34 54q12 6 26 6q38 0 54 -34q6 -14 6 -26q0 -38 -34 -54q-12 -6 -26 -6q-38 0 -54 33q-6 13 -6 27zM886 684q0 38 34 54q12 6 26 6q38 0 54 -34 q6 -12 6 -26q0 -38 -34 -54q-12 -6 -26 -6q-38 0 -54 34q-6 12 -6 26zM944 471q0 37 33 54q13 6 27 6q38 0 54 -34q6 -12 6 -26q0 -38 -34 -54q-14 -6 -26 -6q-38 0 -54 34q-6 12 -6 26z" />
<glyph unicode="&#x103c;&#x103d;" horiz-adv-x="1562" d="M84 -430v1773q0 177 110 287.5t288 110.5h559q86 0 178.5 -46t139.5 -115q58 -93 58 -224h-144q0 104 -63 173.5t-169 69.5h-559q-117 0 -185.5 -69.5t-68.5 -186.5v-1773q0 -116 72 -193.5t184 -77.5h240q-58 93 -58 209q0 162 118.5 279t279.5 117q162 0 282 -117 t120 -279q0 -165 -118.5 -283t-283.5 -118q-105 0 -192 50h-388q-177 0 -288.5 117.5t-111.5 295.5zM406 471q0 38 34 54q13 6 26 6q38 0 54 -34q6 -12 6 -26q0 -38 -33 -54q-14 -6 -27 -6q-38 0 -54 34q-6 12 -6 26zM464 258q0 38 34 54q12 6 26 6q38 0 54 -34q6 -14 6 -26 q0 -38 -34 -54q-12 -6 -26 -6q-38 0 -54 33q-6 13 -6 27zM464 684q0 38 34 54q12 6 26 6q38 0 54 -34q6 -12 6 -26q0 -38 -34 -54q-12 -6 -26 -6q-38 0 -54 34q-6 12 -6 26zM621 102q0 38 34 54q12 6 26 6q38 0 54 -34q6 -14 6 -26q0 -38 -34 -54q-12 -6 -26 -6 q-38 0 -54 33q-6 13 -6 27zM621 840q0 38 34 54q12 6 26 6q38 0 54 -34q6 -12 6 -26q0 -38 -34 -54q-12 -6 -26 -6q-38 0 -54 34q-6 12 -6 26zM805 -497q0 -112 74.5 -188.5t184.5 -76.5t190.5 74t80.5 184q0 114 -74.5 191.5t-187.5 77.5q-101 0 -184.5 -81t-83.5 -181z M835 45q0 38 34 54q12 6 26 6q38 0 54 -34q6 -14 6 -26q0 -38 -34 -54q-12 -6 -26 -6q-38 0 -54 33q-6 13 -6 27zM835 897q0 38 34 54q12 6 26 6q38 0 54 -34q6 -12 6 -26q0 -38 -34 -54q-12 -6 -26 -6q-38 0 -54 34q-6 12 -6 26zM1049 102q0 38 34 54q12 6 26 6 q38 0 54 -34q6 -14 6 -26q0 -38 -34 -54q-12 -6 -26 -6q-38 0 -54 33q-6 13 -6 27zM1049 840q0 38 34 54q12 6 26 6q38 0 54 -34q6 -12 6 -26q0 -38 -34 -54q-12 -6 -26 -6q-38 0 -54 34q-6 12 -6 26zM1206 258q0 38 34 54q12 6 26 6q38 0 54 -34q6 -14 6 -26q0 -38 -34 -54 q-12 -6 -26 -6q-38 0 -54 33q-6 13 -6 27zM1206 684q0 38 34 54q12 6 26 6q38 0 54 -34q6 -12 6 -26q0 -38 -34 -54q-12 -6 -26 -6q-38 0 -54 34q-6 12 -6 26zM1264 471q0 37 33 54q13 6 27 6q38 0 54 -34q6 -12 6 -26q0 -38 -34 -54q-14 -6 -26 -6q-38 0 -54 34 q-6 12 -6 26z" />
<glyph unicode="&#x103d;&#x103e;" horiz-adv-x="1224" d="M-193 -626l77 113l151 -103l286 406q118 117 279 117q162 0 282 -117t120 -279q0 -165 -118.5 -283t-283.5 -118q-161 0 -279 118q-71 70 -99 157l-138 -201zM106 471q0 38 34 54q13 6 26 6q38 0 54 -34q6 -12 6 -26q0 -38 -33 -54q-14 -6 -27 -6q-38 0 -54 34 q-6 12 -6 26zM164 258q0 38 34 54q12 6 26 6q38 0 54 -34q6 -14 6 -26q0 -38 -34 -54q-12 -6 -26 -6q-38 0 -54 33q-6 13 -6 27zM164 684q0 38 34 54q12 6 26 6q38 0 54 -34q6 -12 6 -26q0 -38 -34 -54q-12 -6 -26 -6q-38 0 -54 34q-6 12 -6 26zM321 102q0 38 34 54 q12 6 26 6q38 0 54 -34q6 -14 6 -26q0 -38 -34 -54q-12 -6 -26 -6q-38 0 -54 33q-6 13 -6 27zM321 840q0 38 34 54q12 6 26 6q38 0 54 -34q6 -12 6 -26q0 -38 -34 -54q-12 -6 -26 -6q-38 0 -54 34q-6 12 -6 26zM342 -496q0 -112 74.5 -188.5t184.5 -76.5t190.5 74t80.5 184 q0 114 -74.5 191.5t-187.5 77.5q-101 0 -184.5 -81t-83.5 -181zM535 45q0 38 34 54q12 6 26 6q38 0 54 -34q6 -14 6 -26q0 -38 -34 -54q-12 -6 -26 -6q-38 0 -54 33q-6 13 -6 27zM535 897q0 38 34 54q12 6 26 6q38 0 54 -34q6 -12 6 -26q0 -38 -34 -54q-12 -6 -26 -6 q-38 0 -54 34q-6 12 -6 26zM749 102q0 38 34 54q12 6 26 6q38 0 54 -34q6 -14 6 -26q0 -38 -34 -54q-12 -6 -26 -6q-38 0 -54 33q-6 13 -6 27zM749 840q0 38 34 54q12 6 26 6q38 0 54 -34q6 -12 6 -26q0 -38 -34 -54q-12 -6 -26 -6q-38 0 -54 34q-6 12 -6 26zM906 258 q0 38 34 54q12 6 26 6q38 0 54 -34q6 -14 6 -26q0 -38 -34 -54q-12 -6 -26 -6q-38 0 -54 33q-6 13 -6 27zM906 684q0 38 34 54q12 6 26 6q38 0 54 -34q6 -12 6 -26q0 -38 -34 -54q-12 -6 -26 -6q-38 0 -54 34q-6 12 -6 26zM964 471q0 37 33 54q13 6 27 6q38 0 54 -34 q6 -12 6 -26q0 -38 -34 -54q-14 -6 -26 -6q-38 0 -54 34q-6 12 -6 26z" />
<glyph unicode="&#x1039;&#x1004;" horiz-adv-x="1219" d="M106 471q0 38 34 54q13 6 26 6q38 0 54 -34q6 -12 6 -26q0 -38 -33 -54q-14 -6 -27 -6q-38 0 -54 34q-6 12 -6 26zM164 258q0 38 34 54q12 6 26 6q38 0 54 -34q6 -14 6 -26q0 -38 -34 -54q-12 -6 -26 -6q-38 0 -54 33q-6 13 -6 27zM164 684q0 38 34 54q12 6 26 6 q38 0 54 -34q6 -12 6 -26q0 -38 -34 -54q-12 -6 -26 -6q-38 0 -54 34q-6 12 -6 26zM188 -518q0 171 120.5 291.5t293.5 120.5q171 0 292 -119q75 -78 103 -175l-130 -49q-18 72 -72 126q-82 78 -193 78q-114 0 -195.5 -80.5t-81.5 -192.5q0 -115 81.5 -195t195.5 -80 q111 0 193 82q54 51 72 122l130 -47q-28 -97 -103 -174q-121 -123 -292 -123q-173 0 -293.5 121.5t-120.5 293.5zM321 102q0 38 34 54q12 6 26 6q38 0 54 -34q6 -14 6 -26q0 -38 -34 -54q-12 -6 -26 -6q-38 0 -54 33q-6 13 -6 27zM321 840q0 38 34 54q12 6 26 6q38 0 54 -34 q6 -12 6 -26q0 -38 -34 -54q-12 -6 -26 -6q-38 0 -54 34q-6 12 -6 26zM535 45q0 38 34 54q12 6 26 6q38 0 54 -34q6 -14 6 -26q0 -38 -34 -54q-12 -6 -26 -6q-38 0 -54 33q-6 13 -6 27zM535 897q0 38 34 54q12 6 26 6q38 0 54 -34q6 -12 6 -26q0 -38 -34 -54q-12 -6 -26 -6 q-38 0 -54 34q-6 12 -6 26zM749 102q0 38 34 54q12 6 26 6q38 0 54 -34q6 -14 6 -26q0 -38 -34 -54q-12 -6 -26 -6q-38 0 -54 33q-6 13 -6 27zM749 840q0 38 34 54q12 6 26 6q38 0 54 -34q6 -12 6 -26q0 -38 -34 -54q-12 -6 -26 -6q-38 0 -54 34q-6 12 -6 26zM906 258 q0 38 34 54q12 6 26 6q38 0 54 -34q6 -14 6 -26q0 -38 -34 -54q-12 -6 -26 -6q-38 0 -54 33q-6 13 -6 27zM906 684q0 38 34 54q12 6 26 6q38 0 54 -34q6 -12 6 -26q0 -38 -34 -54q-12 -6 -26 -6q-38 0 -54 34q-6 12 -6 26zM964 471q0 37 33 54q13 6 27 6q38 0 54 -34 q6 -12 6 -26q0 -38 -34 -54q-14 -6 -26 -6q-38 0 -54 34q-6 12 -6 26z" />
<glyph unicode="&#x1039;&#x101f;" horiz-adv-x="1686" d="M87 -495q0 167 116 284q53 51 111 79l57 -124q-38 -18 -70 -51q-78 -80 -78 -188q0 -112 78 -191t189 -79t189 79t78 191q0 108 -79 188q-34 33 -76 55l56 123q62 -28 116 -82q29 -30 51 -61q21 31 50 61q119 118 285 118q168 0 285.5 -117.5t117.5 -284.5 q0 -169 -117.5 -286.5t-285.5 -117.5h-4l-20 136q13 -2 24 -2q111 0 190 79t79 191q0 108 -79 187t-190 79q-112 0 -189 -78q-78 -78 -78 -188q0 -169 -117.5 -286.5t-285.5 -117.5q-166 0 -284.5 117.5t-118.5 286.5zM336 471q0 38 34 54q13 6 26 6q38 0 54 -34 q6 -12 6 -26q0 -38 -33 -54q-14 -6 -27 -6q-38 0 -54 34q-6 12 -6 26zM394 258q0 38 34 54q12 6 26 6q38 0 54 -34q6 -14 6 -26q0 -38 -34 -54q-12 -6 -26 -6q-38 0 -54 33q-6 13 -6 27zM394 684q0 38 34 54q12 6 26 6q38 0 54 -34q6 -12 6 -26q0 -38 -34 -54q-12 -6 -26 -6 q-38 0 -54 34q-6 12 -6 26zM551 102q0 38 34 54q12 6 26 6q38 0 54 -34q6 -14 6 -26q0 -38 -34 -54q-12 -6 -26 -6q-38 0 -54 33q-6 13 -6 27zM551 840q0 38 34 54q12 6 26 6q38 0 54 -34q6 -12 6 -26q0 -38 -34 -54q-12 -6 -26 -6q-38 0 -54 34q-6 12 -6 26zM765 45 q0 38 34 54q12 6 26 6q38 0 54 -34q6 -14 6 -26q0 -38 -34 -54q-12 -6 -26 -6q-38 0 -54 33q-6 13 -6 27zM765 897q0 38 34 54q12 6 26 6q38 0 54 -34q6 -12 6 -26q0 -38 -34 -54q-12 -6 -26 -6q-38 0 -54 34q-6 12 -6 26zM979 102q0 38 34 54q12 6 26 6q38 0 54 -34 q6 -14 6 -26q0 -38 -34 -54q-12 -6 -26 -6q-38 0 -54 33q-6 13 -6 27zM979 840q0 38 34 54q12 6 26 6q38 0 54 -34q6 -12 6 -26q0 -38 -34 -54q-12 -6 -26 -6q-38 0 -54 34q-6 12 -6 26zM1136 258q0 38 34 54q12 6 26 6q38 0 54 -34q6 -14 6 -26q0 -38 -34 -54 q-12 -6 -26 -6q-38 0 -54 33q-6 13 -6 27zM1136 684q0 38 34 54q12 6 26 6q38 0 54 -34q6 -12 6 -26q0 -38 -34 -54q-12 -6 -26 -6q-38 0 -54 34q-6 12 -6 26zM1194 471q0 37 33 54q13 6 27 6q38 0 54 -34q6 -12 6 -26q0 -38 -34 -54q-14 -6 -26 -6q-38 0 -54 34 q-6 12 -6 26z" />
<glyph unicode="&#x1039;&#x101a;" horiz-adv-x="1686" d="M89 -501q0 -166 118.5 -283.5t283.5 -117.5q168 0 284 117q29 31 51 62q21 -31 50 -62q119 -117 284 -117q168 0 285.5 117.5t117.5 283.5q0 169 -117.5 286.5t-285.5 117.5h-4l-20 -136q13 2 24 2q112 0 190.5 -79t78.5 -191q0 -107 -78.5 -186t-190.5 -79 q-111 0 -189 78q-77 78 -77 187q0 169 -117 316q-61 61 -134 90l-53 -124q50 -20 90 -61q78 -109 78 -221q0 -107 -78 -186t-189 -79q-110 0 -188 79t-78 186q0 132 78 211q43 43 95 62l-52 125q-76 -30 -138 -92q-119 -117 -119 -306zM336 471q0 38 34 54q13 6 26 6 q38 0 54 -34q6 -12 6 -26q0 -38 -33 -54q-14 -6 -27 -6q-38 0 -54 34q-6 12 -6 26zM394 258q0 38 34 54q12 6 26 6q38 0 54 -34q6 -14 6 -26q0 -38 -34 -54q-12 -6 -26 -6q-38 0 -54 33q-6 13 -6 27zM394 684q0 38 34 54q12 6 26 6q38 0 54 -34q6 -12 6 -26q0 -38 -34 -54 q-12 -6 -26 -6q-38 0 -54 34q-6 12 -6 26zM551 102q0 38 34 54q12 6 26 6q38 0 54 -34q6 -14 6 -26q0 -38 -34 -54q-12 -6 -26 -6q-38 0 -54 33q-6 13 -6 27zM551 840q0 38 34 54q12 6 26 6q38 0 54 -34q6 -12 6 -26q0 -38 -34 -54q-12 -6 -26 -6q-38 0 -54 34q-6 12 -6 26z M765 45q0 38 34 54q12 6 26 6q38 0 54 -34q6 -14 6 -26q0 -38 -34 -54q-12 -6 -26 -6q-38 0 -54 33q-6 13 -6 27zM765 897q0 38 34 54q12 6 26 6q38 0 54 -34q6 -12 6 -26q0 -38 -34 -54q-12 -6 -26 -6q-38 0 -54 34q-6 12 -6 26zM979 102q0 38 34 54q12 6 26 6q38 0 54 -34 q6 -14 6 -26q0 -38 -34 -54q-12 -6 -26 -6q-38 0 -54 33q-6 13 -6 27zM979 840q0 38 34 54q12 6 26 6q38 0 54 -34q6 -12 6 -26q0 -38 -34 -54q-12 -6 -26 -6q-38 0 -54 34q-6 12 -6 26zM1136 258q0 38 34 54q12 6 26 6q38 0 54 -34q6 -14 6 -26q0 -38 -34 -54 q-12 -6 -26 -6q-38 0 -54 33q-6 13 -6 27zM1136 684q0 38 34 54q12 6 26 6q38 0 54 -34q6 -12 6 -26q0 -38 -34 -54q-12 -6 -26 -6q-38 0 -54 34q-6 12 -6 26zM1194 471q0 37 33 54q13 6 27 6q38 0 54 -34q6 -12 6 -26q0 -38 -34 -54q-14 -6 -26 -6q-38 0 -54 34 q-6 12 -6 26z" />
<glyph unicode="&#x1039;&#x101b;" horiz-adv-x="1219" d="M106 471q0 38 34 54q13 6 26 6q38 0 54 -34q6 -12 6 -26q0 -38 -33 -54q-14 -6 -27 -6q-38 0 -54 34q-6 12 -6 26zM164 258q0 38 34 54q12 6 26 6q38 0 54 -34q6 -14 6 -26q0 -38 -34 -54q-12 -6 -26 -6q-38 0 -54 33q-6 13 -6 27zM164 684q0 38 34 54q12 6 26 6 q38 0 54 -34q6 -12 6 -26q0 -38 -34 -54q-12 -6 -26 -6q-38 0 -54 34q-6 12 -6 26zM232 -342q0 125 76 205t202 80t205 -77q80 -76 80 -200l-5 -434h115v-82h-201l7 516h4q-2 2 -4 3q6 72 -62 134q-55 50 -139 50q-80 0 -132.5 -59t-52.5 -142q0 -63 42 -114q8 41 45.5 70 t79.5 29q56 0 94.5 -37.5t38.5 -92.5q0 -34 -18 -65l-46 -48l-77 -10l-39 3q-92 7 -154 94q-59 81 -59 177zM321 102q0 38 34 54q12 6 26 6q38 0 54 -34q6 -14 6 -26q0 -38 -34 -54q-12 -6 -26 -6q-38 0 -54 33q-6 13 -6 27zM321 840q0 38 34 54q12 6 26 6q38 0 54 -34 q6 -12 6 -26q0 -38 -34 -54q-12 -6 -26 -6q-38 0 -54 34q-6 12 -6 26zM441 -496q0 -52 53 -52q52 0 52 52t-52 52q-53 0 -53 -52zM535 45q0 38 34 54q12 6 26 6q38 0 54 -34q6 -14 6 -26q0 -38 -34 -54q-12 -6 -26 -6q-38 0 -54 33q-6 13 -6 27zM535 897q0 38 34 54 q12 6 26 6q38 0 54 -34q6 -12 6 -26q0 -38 -34 -54q-12 -6 -26 -6q-38 0 -54 34q-6 12 -6 26zM749 102q0 38 34 54q12 6 26 6q38 0 54 -34q6 -14 6 -26q0 -38 -34 -54q-12 -6 -26 -6q-38 0 -54 33q-6 13 -6 27zM749 840q0 38 34 54q12 6 26 6q38 0 54 -34q6 -12 6 -26 q0 -38 -34 -54q-12 -6 -26 -6q-38 0 -54 34q-6 12 -6 26zM906 258q0 38 34 54q12 6 26 6q38 0 54 -34q6 -14 6 -26q0 -38 -34 -54q-12 -6 -26 -6q-38 0 -54 33q-6 13 -6 27zM906 684q0 38 34 54q12 6 26 6q38 0 54 -34q6 -12 6 -26q0 -38 -34 -54q-12 -6 -26 -6 q-38 0 -54 34q-6 12 -6 26zM964 471q0 37 33 54q13 6 27 6q38 0 54 -34q6 -12 6 -26q0 -38 -34 -54q-14 -6 -26 -6q-38 0 -54 34q-6 12 -6 26z" />
<glyph unicode="&#x1039;&#x100e;" horiz-adv-x="1219" d="M106 471q0 38 34 54q13 6 26 6q38 0 54 -34q6 -12 6 -26q0 -38 -33 -54q-14 -6 -27 -6q-38 0 -54 34q-6 12 -6 26zM149 -435q-10 -19 8 -105q72 -358 469 -358q165 0 276 141q109 132 109 299q0 222 -244 357l-62 -126q77 -31 159 -196l3 -51q0 -117 -76 -208.5 t-189 -91.5q-131 0 -203 57q-56 50 -114 180q201 59 192 218l-4 35q-6 54 -20 77q-24 67 -116 102l-69 10q-72 -8 -108 -27l36 -132l33 18l54 3q55 5 66 -69q0 -82 -76 -98zM164 258q0 38 34 54q12 6 26 6q38 0 54 -34q6 -14 6 -26q0 -38 -34 -54q-12 -6 -26 -6 q-38 0 -54 33q-6 13 -6 27zM164 684q0 38 34 54q12 6 26 6q38 0 54 -34q6 -12 6 -26q0 -38 -34 -54q-12 -6 -26 -6q-38 0 -54 34q-6 12 -6 26zM321 102q0 38 34 54q12 6 26 6q38 0 54 -34q6 -14 6 -26q0 -38 -34 -54q-12 -6 -26 -6q-38 0 -54 33q-6 13 -6 27zM321 840 q0 38 34 54q12 6 26 6q38 0 54 -34q6 -12 6 -26q0 -38 -34 -54q-12 -6 -26 -6q-38 0 -54 34q-6 12 -6 26zM535 45q0 38 34 54q12 6 26 6q38 0 54 -34q6 -14 6 -26q0 -38 -34 -54q-12 -6 -26 -6q-38 0 -54 33q-6 13 -6 27zM535 897q0 38 34 54q12 6 26 6q38 0 54 -34 q6 -12 6 -26q0 -38 -34 -54q-12 -6 -26 -6q-38 0 -54 34q-6 12 -6 26zM749 102q0 38 34 54q12 6 26 6q38 0 54 -34q6 -14 6 -26q0 -38 -34 -54q-12 -6 -26 -6q-38 0 -54 33q-6 13 -6 27zM749 840q0 38 34 54q12 6 26 6q38 0 54 -34q6 -12 6 -26q0 -38 -34 -54q-12 -6 -26 -6 q-38 0 -54 34q-6 12 -6 26zM906 258q0 38 34 54q12 6 26 6q38 0 54 -34q6 -14 6 -26q0 -38 -34 -54q-12 -6 -26 -6q-38 0 -54 33q-6 13 -6 27zM906 684q0 38 34 54q12 6 26 6q38 0 54 -34q6 -12 6 -26q0 -38 -34 -54q-12 -6 -26 -6q-38 0 -54 34q-6 12 -6 26zM964 471 q0 37 33 54q13 6 27 6q38 0 54 -34q6 -12 6 -26q0 -38 -34 -54q-14 -6 -26 -6q-38 0 -54 34q-6 12 -6 26z" />
<glyph unicode="&#x1039;&#x100d;" horiz-adv-x="1219" d="M106 471q0 38 34 54q13 6 26 6q38 0 54 -34q6 -12 6 -26q0 -38 -33 -54q-14 -6 -27 -6q-38 0 -54 34q-6 12 -6 26zM164 258q0 38 34 54q12 6 26 6q38 0 54 -34q6 -14 6 -26q0 -38 -34 -54q-12 -6 -26 -6q-38 0 -54 33q-6 13 -6 27zM164 684q0 38 34 54q12 6 26 6 q38 0 54 -34q6 -12 6 -26q0 -38 -34 -54q-12 -6 -26 -6q-38 0 -54 34q-6 12 -6 26zM321 102q0 38 34 54q12 6 26 6q38 0 54 -34q6 -14 6 -26q0 -38 -34 -54q-12 -6 -26 -6q-38 0 -54 33q-6 13 -6 27zM321 840q0 38 34 54q12 6 26 6q38 0 54 -34q6 -12 6 -26q0 -38 -34 -54 q-12 -6 -26 -6q-38 0 -54 34q-6 12 -6 26zM356 -246q70 128 237 135q120 -7 195 -72q75 -64 78 -170q2 -94 -82 -167q-82 -74 -188 -74q-72 4 -120 31v-49q46 -25 120 -25q149 0 219 67q34 0 44 -34l4 -117l138 -3l9 -105l-267 8l-4 100q-88 -26 -146 -26q-69 0 -233 81v200 l106 56q33 -61 127 -61q128 0 128 118q0 104 -125 116q-89 0 -120 -53zM535 45q0 38 34 54q12 6 26 6q38 0 54 -34q6 -14 6 -26q0 -38 -34 -54q-12 -6 -26 -6q-38 0 -54 33q-6 13 -6 27zM535 897q0 38 34 54q12 6 26 6q38 0 54 -34q6 -12 6 -26q0 -38 -34 -54q-12 -6 -26 -6 q-38 0 -54 34q-6 12 -6 26zM749 102q0 38 34 54q12 6 26 6q38 0 54 -34q6 -14 6 -26q0 -38 -34 -54q-12 -6 -26 -6q-38 0 -54 33q-6 13 -6 27zM749 840q0 38 34 54q12 6 26 6q38 0 54 -34q6 -12 6 -26q0 -38 -34 -54q-12 -6 -26 -6q-38 0 -54 34q-6 12 -6 26zM906 258 q0 38 34 54q12 6 26 6q38 0 54 -34q6 -14 6 -26q0 -38 -34 -54q-12 -6 -26 -6q-38 0 -54 33q-6 13 -6 27zM906 684q0 38 34 54q12 6 26 6q38 0 54 -34q6 -12 6 -26q0 -38 -34 -54q-12 -6 -26 -6q-38 0 -54 34q-6 12 -6 26zM964 471q0 37 33 54q13 6 27 6q38 0 54 -34 q6 -12 6 -26q0 -38 -34 -54q-14 -6 -26 -6q-38 0 -54 34q-6 12 -6 26z" />
<glyph unicode="&#x1039;&#x1080;" horiz-adv-x="1686" d="M152 -639q0 44 11 73q15 61 74 104t122 43q79 0 138.5 -59.5t59.5 -137.5q0 -61 -19 -89q-13 -20 -68 -69l42 -6q109 0 187.5 79.5t78.5 187.5q0 111 -78.5 189t-187.5 78q-176 0 -250 -166l-108 93q22 46 146 151l116 40l98 17q166 0 279.5 -113t113.5 -279l-17 -105 l32 -41l40 -41q91 -80 194 -80q116 0 190.5 84.5t74.5 206.5q0 89 -42 126l-34 42q-69 65 -172 76q-134 0 -200 -61l-51 77l-20 31q80 91 271 91q59 0 225 -98q143 -116 143 -297q0 -178 -106 -291t-279 -113q-199 0 -326 148q-136 -153 -308 -153q-161 0 -304 104 q-66 72 -66 158zM253 -617q0 -43 28.5 -74.5t70.5 -31.5q40 0 72.5 31t32.5 71t-28.5 71t-70.5 31q-43 0 -74 -29t-31 -69zM336 471q0 38 34 54q13 6 26 6q38 0 54 -34q6 -12 6 -26q0 -38 -33 -54q-14 -6 -27 -6q-38 0 -54 34q-6 12 -6 26zM394 258q0 38 34 54q12 6 26 6 q38 0 54 -34q6 -14 6 -26q0 -38 -34 -54q-12 -6 -26 -6q-38 0 -54 33q-6 13 -6 27zM394 684q0 38 34 54q12 6 26 6q38 0 54 -34q6 -12 6 -26q0 -38 -34 -54q-12 -6 -26 -6q-38 0 -54 34q-6 12 -6 26zM551 102q0 38 34 54q12 6 26 6q38 0 54 -34q6 -14 6 -26q0 -38 -34 -54 q-12 -6 -26 -6q-38 0 -54 33q-6 13 -6 27zM551 840q0 38 34 54q12 6 26 6q38 0 54 -34q6 -12 6 -26q0 -38 -34 -54q-12 -6 -26 -6q-38 0 -54 34q-6 12 -6 26zM765 45q0 38 34 54q12 6 26 6q38 0 54 -34q6 -14 6 -26q0 -38 -34 -54q-12 -6 -26 -6q-38 0 -54 33q-6 13 -6 27z M765 897q0 38 34 54q12 6 26 6q38 0 54 -34q6 -12 6 -26q0 -38 -34 -54q-12 -6 -26 -6q-38 0 -54 34q-6 12 -6 26zM979 102q0 38 34 54q12 6 26 6q38 0 54 -34q6 -14 6 -26q0 -38 -34 -54q-12 -6 -26 -6q-38 0 -54 33q-6 13 -6 27zM979 840q0 38 34 54q12 6 26 6 q38 0 54 -34q6 -12 6 -26q0 -38 -34 -54q-12 -6 -26 -6q-38 0 -54 34q-6 12 -6 26zM1136 258q0 38 34 54q12 6 26 6q38 0 54 -34q6 -14 6 -26q0 -38 -34 -54q-12 -6 -26 -6q-38 0 -54 33q-6 13 -6 27zM1136 684q0 38 34 54q12 6 26 6q38 0 54 -34q6 -12 6 -26q0 -38 -34 -54 q-12 -6 -26 -6q-38 0 -54 34q-6 12 -6 26zM1194 471q0 37 33 54q13 6 27 6q38 0 54 -34q6 -12 6 -26q0 -38 -34 -54q-14 -6 -26 -6q-38 0 -54 34q-6 12 -6 26z" />
<glyph unicode="&#x1039;&#x1022;" horiz-adv-x="1686" d="M106 -500l6 -64l31 -47l31 -7h18l25 2q26 10 57 10q74 0 87 -80q11 -83 -59 -96l-85 15l-55 29l-45 -104q81 -58 197 -58q74 0 124 55q48 111 48 146q0 133 -108 179q-39 28 -147 28q0 142 102 212q55 37 82 45q21 12 85 12l57 -7l54 -21q45 -14 90 -56q83 -73 83 -189 q0 -109 -50 -170q-37 -49 -145 -110q41 -78 41 -103l-8 -5q130 32 220.5 140.5t84.5 235.5v60l-9 49l-14 27q16 71 107 125q68 39 141 39q106 0 190 -85t84 -194q0 -119 -71 -201q-77 -88 -193 -81l-72 4l-28 16l-70 -105q59 -46 170 -46q179 0 292.5 106t113.5 286 q0 184 -123.5 307.5t-308.5 123.5q-162 0 -315 -158q-19 29 -69 64q-155 77 -244 77q-189 0 -300 -106q-116 -112 -102 -300zM336 471q0 38 34 54q13 6 26 6q38 0 54 -34q6 -12 6 -26q0 -38 -33 -54q-14 -6 -27 -6q-38 0 -54 34q-6 12 -6 26zM394 258q0 38 34 54q12 6 26 6 q38 0 54 -34q6 -14 6 -26q0 -38 -34 -54q-12 -6 -26 -6q-38 0 -54 33q-6 13 -6 27zM394 684q0 38 34 54q12 6 26 6q38 0 54 -34q6 -12 6 -26q0 -38 -34 -54q-12 -6 -26 -6q-38 0 -54 34q-6 12 -6 26zM551 102q0 38 34 54q12 6 26 6q38 0 54 -34q6 -14 6 -26q0 -38 -34 -54 q-12 -6 -26 -6q-38 0 -54 33q-6 13 -6 27zM551 840q0 38 34 54q12 6 26 6q38 0 54 -34q6 -12 6 -26q0 -38 -34 -54q-12 -6 -26 -6q-38 0 -54 34q-6 12 -6 26zM765 45q0 38 34 54q12 6 26 6q38 0 54 -34q6 -14 6 -26q0 -38 -34 -54q-12 -6 -26 -6q-38 0 -54 33q-6 13 -6 27z M765 897q0 38 34 54q12 6 26 6q38 0 54 -34q6 -12 6 -26q0 -38 -34 -54q-12 -6 -26 -6q-38 0 -54 34q-6 12 -6 26zM979 102q0 38 34 54q12 6 26 6q38 0 54 -34q6 -14 6 -26q0 -38 -34 -54q-12 -6 -26 -6q-38 0 -54 33q-6 13 -6 27zM979 840q0 38 34 54q12 6 26 6 q38 0 54 -34q6 -12 6 -26q0 -38 -34 -54q-12 -6 -26 -6q-38 0 -54 34q-6 12 -6 26zM1136 258q0 38 34 54q12 6 26 6q38 0 54 -34q6 -14 6 -26q0 -38 -34 -54q-12 -6 -26 -6q-38 0 -54 33q-6 13 -6 27zM1136 684q0 38 34 54q12 6 26 6q38 0 54 -34q6 -12 6 -26q0 -38 -34 -54 q-12 -6 -26 -6q-38 0 -54 34q-6 12 -6 26zM1194 471q0 37 33 54q13 6 27 6q38 0 54 -34q6 -12 6 -26q0 -38 -34 -54q-14 -6 -26 -6q-38 0 -54 34q-6 12 -6 26z" />
<glyph unicode="&#xd;" horiz-adv-x="682" />
<glyph unicode=" "  horiz-adv-x="512" />
<glyph unicode="&#x09;" horiz-adv-x="512" />
<glyph unicode="&#xa0;" horiz-adv-x="512" />
<glyph unicode="!" horiz-adv-x="682" d="M228 1248q0 63 33.5 101t80.5 38t79.5 -38t32.5 -113q0 -24 -4 -67l-90 -810h-38l-88 810q-6 53 -6 79zM229 83q0 45 32.5 77.5t78.5 32.5t78.5 -32.5t32.5 -77.5q0 -46 -32.5 -78.5t-78.5 -32.5t-78.5 32.5t-32.5 78.5z" />
<glyph unicode="&#x22;" horiz-adv-x="836" d="M133 1265q0 64 26.5 93t71.5 29q44 0 73 -29.5t29 -78.5q0 -39 -26 -181l-54 -295h-43l-55 296q-22 122 -22 166zM498 1266q0 63 28 92t74 29q43 0 71.5 -29t28.5 -78q0 -85 -19 -184l-57 -293h-48l-54 292l-22 121q-2 25 -2 50z" />
<glyph unicode="#" horiz-adv-x="1024" d="M37 427v82h187l69 343h-256v80h275l91 455h83l-91 -455h337l97 455h83l-95 -455h170v-80h-185l-70 -343h255v-82h-272l-93 -455h-81l91 455h-339l-95 -455h-83l93 455h-171zM308 509h339l72 343h-341z" />
<glyph unicode="$" horiz-adv-x="1024" d="M108 51v283h44q11 -137 86 -210t224 -87v584q-225 139 -300 246q-53 76 -53 185q0 123 91.5 215t261.5 111v92h64v-92q82 -5 138 -19q29 -7 192 -69v-299h-39q-13 159 -82.5 232.5t-208.5 87.5v-508q252 -176 323.5 -259.5t71.5 -207.5q0 -138 -104.5 -243t-290.5 -121 v-128h-64v128q-94 4 -175 21.5t-179 57.5zM265 1117q0 -73 44 -136.5t153 -135.5v465q-100 -12 -148.5 -63.5t-48.5 -129.5zM526 37q75 13 115 37q56 35 88.5 91.5t32.5 120.5q0 66 -39.5 125t-196.5 167v-541z" />
<glyph unicode="%" horiz-adv-x="1706" d="M72 1018q0 105 40 193.5t109.5 132t142.5 43.5q135 0 209.5 -112t74.5 -257q0 -174 -84 -269t-202 -95q-79 0 -145 43.5t-105.5 129.5t-39.5 191zM231 1019q0 -139 22 -212q17 -55 53 -85q21 -18 52 -18q48 0 82 52q50 77 50 257q0 190 -49 267q-32 51 -80 51 q-51 0 -90.5 -60t-39.5 -252zM315 -56l988 1443h89l-988 -1443h-89zM1060 308q0 105 39.5 192t108 130t138.5 43q71 0 141.5 -45t109 -131t38.5 -189q0 -177 -85 -270.5t-201 -93.5q-73 0 -141.5 45t-108 128.5t-39.5 190.5zM1219 301q0 -179 46 -250q34 -51 82 -51 q46 0 82 55q48 73 48 251q0 188 -48 263q-33 51 -82 51q-48 0 -83 -54q-45 -70 -45 -265z" />
<glyph unicode="&#x26;" horiz-adv-x="1593" d="M75 267q0 121 87 241.5t327 249.5q-47 104 -64 170.5t-17 127.5q0 171 126 261q98 70 223 70q119 0 194 -70.5t75 -173.5q0 -106 -72.5 -186t-256.5 -175q127 -226 265 -414q176 210 176 354q0 46 -30 82q-22 27 -63 32v37h420v-37q-87 -7 -128.5 -38.5t-129.5 -190.5 t-198 -297q89 -104 159 -145.5t141 -41.5q69 0 117 37.5t68 110.5l37 -27q-37 -141 -119 -208t-191 -67q-82 0 -166.5 44.5t-184.5 150.5q-124 -110 -223.5 -152.5t-212.5 -42.5q-165 0 -262 88t-97 210zM282 359q0 -107 69 -188t186 -81q63 0 121.5 25t159.5 107 q-132 180 -183 263t-112 206q-120 -69 -180.5 -152t-60.5 -180zM579 1135q0 -49 17 -109.5t67 -178.5q124 59 185.5 134t61.5 167q0 72 -44.5 119t-110.5 47q-87 0 -131.5 -60.5t-44.5 -118.5z" />
<glyph unicode="'" horiz-adv-x="369" d="M81 1265q0 64 26 93t71 29t74.5 -29.5t29.5 -77.5q0 -37 -26 -182l-54 -295h-44l-54 296q-23 123 -23 166z" />
<glyph unicode="(" horiz-adv-x="682" d="M84 491q0 310 153 565.5t399 365.5v-42q-123 -68 -202 -186t-118 -299t-39 -378q0 -214 33 -389q26 -138 63 -221.5t99.5 -160.5t163.5 -147v-37q-151 76 -252 178q-144 145 -222 342t-78 409z" />
<glyph unicode=")" horiz-adv-x="682" d="M46 -401q123 69 202.5 186.5t118 299t38.5 378.5q0 213 -33 389q-25 138 -62.5 221t-99.5 160t-164 147v42q152 -75 253 -177q143 -146 221 -342.5t78 -409.5q0 -310 -152.5 -565.5t-399.5 -365.5v37z" />
<glyph unicode="*" horiz-adv-x="1024" d="M145 839q0 25 20.5 52.5t61.5 45.5q27 12 123 32q62 13 121 38q-54 27 -129 42q-123 26 -152 47q-45 33 -45 80q0 27 22.5 49.5t52.5 22.5q33 0 70 -21t92 -84.5t112 -98.5q-4 69 -28 137q-34 98 -34 135q0 52 24.5 79t60.5 27q31 0 54 -27t23 -77q0 -45 -26.5 -125.5 t-32.5 -148.5q55 35 99 85q68 79 101 98t67 19q33 0 55.5 -22.5t22.5 -53.5q0 -37 -33 -66t-165 -58q-77 -17 -128 -39q52 -27 127 -41q121 -22 158.5 -55t37.5 -72q0 -30 -22.5 -52t-52.5 -22t-66.5 21t-98.5 94q-41 49 -102 92q2 -57 23 -124q36 -118 36 -161 q0 -40 -24 -67.5t-51 -27.5q-37 0 -67 29q-21 21 -21 67q0 48 23 115.5t29 93t11 75.5q-59 -39 -103 -87q-73 -82 -110 -104q-26 -16 -54 -16q-34 0 -58 23t-24 51z" />
<glyph unicode="+" horiz-adv-x="1155" d="M37 640v82h498v497h80v-497h500v-82h-500v-499h-80v499h-498z" />
<glyph unicode="," horiz-adv-x="512" d="M110 81q0 49 37.5 84t91.5 35q66 0 117.5 -57.5t51.5 -152.5q0 -103 -71.5 -191.5t-226.5 -139.5v44q103 34 159.5 105.5t56.5 151.5q0 19 -9 32q-7 9 -14 9q-11 0 -48 -20q-18 -9 -38 -9q-49 0 -78 29t-29 80z" />
<glyph unicode="-" horiz-adv-x="682" d="M83 384v151h517v-151h-517z" />
<glyph unicode="." horiz-adv-x="512" d="M145 83q0 47 32.5 79t78.5 32q47 0 79 -32.5t32 -78.5t-32.5 -78.5t-78.5 -32.5t-78.5 32.5t-32.5 78.5z" />
<glyph unicode="/" horiz-adv-x="569" d="M3 -28l491 1450h80l-491 -1450h-80z" />
<glyph unicode="0" horiz-adv-x="1024" d="M74 670q0 232 70 399.5t186 249.5q90 65 186 65q156 0 280 -159q155 -197 155 -534q0 -236 -68 -401t-173.5 -239.5t-203.5 -74.5q-194 0 -323 229q-109 193 -109 465zM270 645q0 -280 69 -457q57 -149 170 -149q54 0 112 48.5t88 162.5q46 172 46 485q0 232 -48 387 q-36 115 -93 163q-41 33 -99 33q-68 0 -121 -61q-72 -83 -98 -261t-26 -351z" />
<glyph unicode="1" horiz-adv-x="1024" d="M240 1223l330 161h33v-1145q0 -114 9.5 -142t39.5 -43t122 -17v-37h-510v37q96 2 124 16.5t39 39t11 146.5v732q0 148 -10 190q-7 32 -25.5 47t-44.5 15q-37 0 -103 -31z" />
<glyph unicode="2" horiz-adv-x="1024" d="M44 0v37q353 322 497 526t144 373q0 129 -79 212t-189 83q-100 0 -179.5 -58.5t-117.5 -171.5h-37q25 185 128.5 284t258.5 99q165 0 275.5 -106t110.5 -250q0 -103 -48 -206q-74 -162 -240 -343q-249 -272 -311 -328h354q108 0 151.5 8t78.5 32.5t61 69.5h37l-95 -261 h-800z" />
<glyph unicode="3" horiz-adv-x="1024" d="M83 83q0 29 23.5 51t56.5 22q25 0 51 -8q17 -5 77 -36.5t83 -37.5q37 -11 79 -11q102 0 177.5 79t75.5 187q0 79 -35 154q-26 56 -57 85q-43 40 -118 72.5t-153 32.5h-32v30q79 10 158.5 57t115.5 113t36 145q0 103 -64.5 166.5t-160.5 63.5q-155 0 -259 -166l-33 16 q58 137 146.5 211.5t220.5 74.5q163 0 250 -106q66 -79 66 -169q0 -148 -186 -306q125 -49 189 -140t64 -214q0 -176 -112 -305q-146 -168 -423 -168q-137 0 -186.5 34t-49.5 73z" />
<glyph unicode="4" horiz-adv-x="1024" d="M32 358v128l629 898h110v-884h182v-142h-182v-358h-165v358h-574zM130 500h476v673z" />
<glyph unicode="5" horiz-adv-x="1024" d="M98 109q0 28 23 49.5t58 21.5q26 0 45.5 -8t66.5 -41q75 -52 152 -52q117 0 205.5 88.5t88.5 215.5q0 123 -79 229.5t-218 164.5q-109 45 -297 52l260 527h486l-78 -170h-408l-89 -182q265 -39 420 -197q133 -136 133 -320q0 -107 -43.5 -198t-109.5 -155t-147 -103 q-115 -55 -236 -55q-122 0 -177.5 41.5t-55.5 91.5z" />
<glyph unicode="6" horiz-adv-x="1024" d="M88 532q0 182 73 346t208.5 291t259.5 171t231 44h58v-37q-132 -13 -215.5 -52.5t-165 -120.5t-135 -180.5t-89.5 -236.5q144 99 289 99q139 0 241 -112t102 -288q0 -170 -103 -310q-124 -170 -328 -170q-139 0 -236 92q-190 179 -190 464zM278 466q0 -96 35.5 -208.5 t105.5 -178.5q51 -47 124 -47q87 0 155.5 82t68.5 234q0 171 -68 296t-193 125q-38 0 -81.5 -16t-128.5 -69q-18 -135 -18 -218z" />
<glyph unicode="7" horiz-adv-x="1024" d="M76 1035l130 321h727v-38l-452 -1346h-112l405 1221h-373q-113 0 -161 -27q-84 -46 -135 -142z" />
<glyph unicode="8" horiz-adv-x="1024" d="M124 309q0 90 60.5 178.5t208.5 195.5q-161 132 -207.5 212t-46.5 166q0 132 102 227.5t271 95.5q164 0 264 -89t100 -203q0 -76 -54 -155t-225 -186q176 -136 233 -214q76 -102 76 -215q0 -143 -109 -244.5t-286 -101.5q-193 0 -301 121q-86 97 -86 212zM277 314 q0 -129 70.5 -206.5t179.5 -77.5q108 0 173 61t65 148q0 72 -38 129q-71 106 -287 277q-83 -70 -123 -152.5t-40 -178.5zM284 1129q0 -52 26.5 -104t75.5 -99l164 -136q120 108 152 170.5t32 141.5q0 105 -59 164.5t-161 59.5t-166 -59t-64 -138z" />
<glyph unicode="9" horiz-adv-x="1024" d="M81 898q0 178 102 317q123 169 321 169q167 0 286 -138q146 -171 146 -422q0 -226 -111 -421.5t-309 -324.5q-161 -106 -351 -106h-57v37q130 2 242 60.5t216.5 204.5t145.5 321q-157 -101 -284 -101q-143 0 -245 110.5t-102 293.5zM259 1001q0 -211 89 -330 q65 -86 160 -86q46 0 109 22t111 62q18 130 18 208q0 97 -33 209.5t-93.5 172.5t-137.5 60q-89 0 -156 -80t-67 -238z" />
<glyph unicode=":" horiz-adv-x="569" d="M176 83q0 46 32.5 79t78.5 33q47 0 79.5 -33t32.5 -79t-33 -78.5t-79 -32.5t-78.5 32.5t-32.5 78.5zM178 833q0 46 32.5 78.5t78.5 32.5t78.5 -32.5t32.5 -78.5t-32.5 -78.5t-78.5 -32.5t-78.5 32.5t-32.5 78.5z" />
<glyph unicode=";" horiz-adv-x="569" d="M142 81q0 49 37.5 84t91.5 35q66 0 117.5 -57.5t51.5 -152.5q0 -103 -71.5 -191.5t-226.5 -139.5v44q103 34 159.5 105.5t56.5 151.5q0 19 -9 32q-7 9 -14 9q-11 0 -48 -20q-18 -9 -38 -9q-49 0 -78 29t-29 80zM171 835q0 46 32.5 78t78.5 32t78.5 -32t32.5 -78 t-32.5 -78.5t-78.5 -32.5t-78.5 32.5t-32.5 78.5z" />
<glyph unicode="&#x3c;" horiz-adv-x="1155" d="M39 657v49l1076 466v-87l-926 -402l926 -406v-90z" />
<glyph unicode="=" horiz-adv-x="1155" d="M37 475v82h1079v-82h-1079zM37 801v82h1079v-82h-1079z" />
<glyph unicode="&#x3e;" horiz-adv-x="1155" d="M37 187v86l927 402l-927 406v91l1076 -470v-49z" />
<glyph unicode="?" horiz-adv-x="909" d="M92 1100q0 113 97 200t263 87q206 0 303 -120q72 -88 72 -195q0 -73 -32.5 -150t-123.5 -181q-145 -164 -177.5 -232.5t-39.5 -188.5h-41q7 126 31.5 208.5t101.5 229.5q60 113 78 173.5t18 122.5q0 127 -67.5 202t-165.5 75q-87 0 -137 -41t-50 -89q0 -37 30 -91t30 -82 q0 -36 -23 -60.5t-56 -24.5q-42 0 -76.5 41.5t-34.5 115.5zM329 84q0 47 32.5 79.5t78.5 32.5q47 0 79.5 -32.5t32.5 -79.5q0 -46 -33 -78.5t-79 -32.5t-78.5 32.5t-32.5 78.5z" />
<glyph unicode="@" horiz-adv-x="1886" d="M97 444q0 264 124 492.5t347.5 357t474.5 128.5q207 0 373.5 -85.5t253.5 -250t87 -349.5q0 -183 -81.5 -362.5t-207.5 -261.5t-263 -82q-76 0 -114.5 36t-38.5 101q0 56 18 147q-148 -179 -237 -232t-157 -53q-71 0 -126 63.5t-55 169.5q0 145 94.5 325t250.5 293 q115 83 206 83q67 0 111.5 -34.5t60.5 -103.5l33 110l157 22l-117 -399q-65 -224 -79 -284t-14 -96q0 -32 21.5 -54t53.5 -22q73 0 175.5 73t175.5 237t73 342q0 171 -82.5 316t-233 222.5t-332.5 77.5q-231 0 -429 -122.5t-313.5 -352.5t-115.5 -478q0 -230 101.5 -418 t285.5 -284.5t396 -96.5q263 0 475.5 141t328.5 412h58q-90 -274 -327 -444t-540 -170q-238 0 -442 112.5t-317 319t-113 454.5zM653 293q0 -63 35.5 -102.5t79.5 -39.5q58 0 122 44t134 135.5t102 183.5q56 159 56 259q0 66 -36.5 105t-88.5 39q-75 0 -152 -79 q-113 -116 -193 -313q-59 -144 -59 -232z" />
<glyph unicode="A" horiz-adv-x="1479" d="M16 0v37q85 15 110 39q51 48 113 195l477 1116h35l472 -1128q57 -136 103.5 -176.5t129.5 -45.5v-37h-535v37q81 4 109.5 27t28.5 56q0 44 -40 139l-82 195h-525l-92 -214q-34 -79 -34 -118q0 -31 29.5 -54.5t127.5 -30.5v-37h-427zM443 528h466l-230 548z" />
<glyph unicode="B" horiz-adv-x="1366" d="M34 0v37h51q85 0 122 54q23 35 23 149v876q0 126 -29 159q-39 44 -116 44h-51v37h586q164 0 263 -24q150 -36 229 -127.5t79 -210.5q0 -102 -62 -182.5t-183 -119.5q141 -30 211 -96q97 -92 97 -225q0 -101 -64 -193.5t-175.5 -135t-340.5 -42.5h-640zM422 98 q116 -27 229 -27q181 0 276 81.5t95 201.5q0 79 -43 152t-140 115t-240 42q-62 0 -106 -2t-71 -7v-556zM422 746q37 -7 84.5 -10.5t104.5 -3.5q146 0 219.5 31.5t112.5 96.5t39 142q0 119 -97 203t-283 84q-100 0 -180 -22v-521z" />
<glyph unicode="C" horiz-adv-x="1366" d="M74 657q0 203 91 373t250.5 263.5t348.5 93.5q147 0 290 -72q42 -22 60 -22q27 0 47 19q26 27 37 75h35l31 -461h-31q-62 207 -177 298t-276 91q-135 0 -244 -68.5t-171.5 -218.5t-62.5 -373q0 -184 59 -319t177.5 -207t270.5 -72q132 0 233 56.5t222 224.5l31 -20 q-102 -181 -238 -265t-323 -84q-337 0 -522 250q-138 186 -138 438z" />
<glyph unicode="D" horiz-adv-x="1479" d="M35 0v37h51q86 0 122 55q22 33 22 148v876q0 127 -28 159q-39 44 -116 44h-51v37h552q304 0 462.5 -69t255 -230t96.5 -372q0 -283 -172 -473q-193 -212 -588 -212h-606zM422 98q127 -28 213 -28q232 0 385 163t153 442q0 281 -153 443t-393 162q-90 0 -205 -29v-1153z " />
<glyph unicode="E" horiz-adv-x="1251" d="M42 0v37h48q48 0 91 23q32 16 43.5 48t11.5 131v881q0 129 -26 159q-36 40 -120 40h-48v37h1045l15 -297h-39q-21 107 -46.5 147t-75.5 61q-40 15 -141 15h-372v-536h298q116 0 155 35q52 46 58 162h37v-472h-37q-14 99 -28 127q-18 35 -59 55t-126 20h-298v-447 q0 -90 8 -109.5t28 -31t76 -11.5h230q115 0 167 16t100 63q62 62 127 187h40l-117 -340h-1045z" />
<glyph unicode="F" horiz-adv-x="1139" d="M33 0v37h48q84 0 122 49q24 32 24 154v876q0 103 -13 136q-10 25 -41 43q-43 24 -92 24h-48v37h1009l13 -298h-35q-26 95 -60.5 139.5t-85 64.5t-156.5 20h-299v-533h247q85 0 124.5 37.5t52.5 148.5h37v-459h-37q-1 79 -20.5 116t-54 55.5t-102.5 18.5h-247v-426 q0 -103 13 -136q10 -25 42 -43q44 -24 92 -24h49v-37h-582z" />
<glyph unicode="G" horiz-adv-x="1479" d="M72 657q0 179 86 343q102 195 280 300q149 87 352 87q74 0 134.5 -12t171.5 -53q56 -21 75 -21t32.5 17.5t16.5 68.5h37l35 -428h-35q-53 160 -137 241q-121 117 -311 117q-259 0 -394 -205q-113 -173 -113 -412q0 -194 75 -354t196.5 -234.5t249.5 -74.5q75 0 145 19 t135 56v392q0 102 -15.5 133.5t-48 48t-114.5 16.5v38h525v-38h-25q-78 0 -107 -52q-20 -37 -20 -146v-415q-115 -62 -227 -91t-249 -29q-393 0 -597 252q-153 189 -153 436z" />
<glyph unicode="H" horiz-adv-x="1479" d="M35 0v37h48q84 0 122 49q24 32 24 154v875q0 104 -13 137q-10 25 -41 43q-44 24 -92 24h-48v37h581v-37h-49q-48 0 -91 -23q-31 -16 -43 -48.5t-12 -132.5v-388h630v388q0 104 -13 137q-10 25 -42 43q-43 24 -91 24h-48v37h580v-37h-48q-48 0 -91 -23 q-32 -16 -43.5 -48.5t-11.5 -132.5v-875q0 -103 13 -136q10 -25 41 -43q44 -24 92 -24h48v-37h-580v37h48q83 0 121 49q25 32 25 154v413h-630v-413q0 -103 13 -136q10 -25 42 -43q43 -24 91 -24h49v-37h-581z" />
<glyph unicode="I" horiz-adv-x="682" d="M51 0v37h48q84 0 122 49q24 32 24 154v876q0 103 -13 136q-10 25 -41 43q-44 24 -92 24h-48v37h581v-37h-49q-83 0 -121 -49q-25 -32 -25 -154v-876q0 -103 13 -136q10 -25 42 -43q43 -24 91 -24h49v-37h-581z" />
<glyph unicode="J" horiz-adv-x="797" d="M42 122q0 49 25 74q33 31 77 31q32 0 57.5 -21t64.5 -112q23 -54 59 -54q27 0 50.5 33t23.5 117v926q0 103 -13 136q-10 25 -42 43q-43 24 -91 24h-49v37h581v-37h-49q-83 0 -121 -49q-24 -32 -24 -154v-663q0 -153 -33.5 -248t-115.5 -165.5t-198 -70.5q-94 0 -148 46.5 t-54 106.5z" />
<glyph unicode="K" horiz-adv-x="1479" d="M34 0v37h48q84 0 122 49q24 32 24 154v876q0 103 -13 137q-10 24 -41 42q-44 24 -92 24h-48v37h578v-37h-46q-47 0 -91 -23q-31 -16 -43 -48t-12 -132v-415q20 19 137 127q297 272 359 363q27 40 27 70q0 23 -21 40.5t-71 17.5h-31v37h498v-37q-44 -1 -80 -12t-88 -42.5 t-128 -101.5q-22 -20 -203 -205l-207 -206l500 -497q123 -123 210 -167.5t174 -50.5v-37h-645v37q58 0 83.5 19.5t25.5 43.5t-9.5 43t-62.5 71l-468 463v-437q0 -103 13 -136q10 -25 42 -43q43 -24 91 -24h46v-37h-578z" />
<glyph unicode="L" horiz-adv-x="1251" d="M41 0v37h51q86 0 123 56q21 32 21 148v875q0 127 -28 159q-39 44 -116 44h-51v37h614v-37h-10q-99 0 -141 -20q-44 -21 -60 -53t-16 -153v-852q0 -83 16 -114q12 -21 37 -31t156 -10h99q156 0 219 23t115 81.5t104 184.5l33 -7l-116 -368h-1050z" />
<glyph unicode="M" horiz-adv-x="1821" d="M34 0v37h48q86 0 122 52q22 32 22 146v886q0 90 -20 130q-14 29 -51.5 48.5t-120.5 19.5v37h384l492 -1061l484 1061h384v-37h-47q-87 0 -123 -52q-22 -32 -22 -146v-886q0 -125 28 -156q37 -42 117 -42h47v-37h-576v37h48q87 0 122 52q22 32 22 146v906l-523 -1141h-33 l-524 1141v-906q0 -125 27 -156q37 -42 117 -42h48v-37h-472z" />
<glyph unicode="N" horiz-adv-x="1479" d="M-27 1319v37h368l829 -1017v782q0 125 -28 156q-37 42 -117 42h-47v37h472v-37h-48q-86 0 -122 -52q-22 -32 -22 -146v-1143h-36l-894 1092v-835q0 -125 27 -156q38 -42 117 -42h48v-37h-472v37h47q87 0 123 52q22 32 22 146v943q-59 69 -89.5 91t-89.5 41q-29 9 -88 9z " />
<glyph unicode="O" horiz-adv-x="1479" d="M72 683q0 323 220 527q191 177 457 177q264 0 457.5 -200.5t193.5 -500.5q0 -309 -195 -513t-472 -204q-280 0 -470.5 199t-190.5 515zM301 687q0 -332 142 -511q109 -136 288 -136q191 0 315.5 149t124.5 470q0 348 -137 519q-110 136 -304 136q-182 0 -292 -135 q-137 -168 -137 -492z" />
<glyph unicode="P" horiz-adv-x="1139" d="M34 0v37h51q86 0 123 56q20 31 20 147v876q0 128 -27 159q-39 44 -116 44h-51v37h497q182 0 287 -37.5t177 -126.5t72 -211q0 -166 -109.5 -270t-309.5 -104q-49 0 -106 7t-122 21v-395q0 -128 28 -159q38 -44 115 -44h52v-37h-581zM420 692q53 -10 94 -15t70 -5 q104 0 179.5 80.5t75.5 208.5q0 88 -36 163.5t-102 113t-150 37.5q-51 0 -131 -19v-564z" />
<glyph unicode="Q" horiz-adv-x="1479" d="M72 681q0 304 197 505t477 201q266 0 460.5 -201.5t194.5 -508.5q0 -249 -138.5 -437t-360.5 -255q102 -176 220.5 -259t269.5 -95v-32q-138 5 -295 55.5t-297.5 140t-242.5 190.5q-144 58 -228 123q-122 97 -189.5 238.5t-67.5 334.5zM301 681q0 -329 142 -507 q110 -137 291 -137q188 0 303 137q135 162 135 478q0 243 -74 409q-57 128 -151.5 188.5t-212.5 60.5q-182 0 -293 -130q-140 -163 -140 -499z" />
<glyph unicode="R" horiz-adv-x="1366" d="M35 0v37h51q86 0 123 56q21 31 21 147v876q0 128 -28 159q-39 44 -116 44h-51v37h494q216 0 318.5 -31.5t174 -116t71.5 -201.5q0 -125 -81.5 -217t-252.5 -130l280 -389q96 -134 165 -178t180 -56v-37h-362l-459 634q-51 -2 -83 -2q-13 0 -28 0.5t-31 1.5v-394 q0 -128 28 -159q38 -44 114 -44h53v-37h-581zM421 697q19 0 33 -0.5t23 -0.5q194 0 292.5 84t98.5 214q0 127 -79.5 206.5t-210.5 79.5q-58 0 -157 -19v-564z" />
<glyph unicode="S" horiz-adv-x="1139" d="M128 1030q0 146 112 251.5t285 105.5q108 0 229 -53q56 -25 79 -25q26 0 42.5 15.5t26.5 62.5h37v-469h-37q-18 135 -64.5 215t-132.5 127t-178 47q-104 0 -172 -63.5t-68 -144.5q0 -62 43 -113q62 -75 295 -200q190 -102 259.5 -156.5t107 -128.5t37.5 -155 q0 -154 -119.5 -265.5t-307.5 -111.5q-59 0 -111 9q-31 5 -128.5 36.5t-123.5 31.5q-25 0 -39.5 -15t-21.5 -62h-37v465h37q26 -146 70 -218.5t134.5 -120.5t198.5 -48q125 0 197.5 66t72.5 156q0 50 -27.5 101t-85.5 95q-39 30 -213 127.5t-247.5 155.5t-111.5 128t-38 154 z" />
<glyph unicode="T" horiz-adv-x="1251" d="M62 1038l16 318h1107l15 -318h-38q-11 84 -30 120q-31 58 -82.5 85.5t-135.5 27.5h-191v-1036q0 -125 27 -156q38 -42 117 -42h47v-37h-575v37h48q86 0 122 52q22 32 22 146v1036h-163q-95 0 -135 -14q-52 -19 -89 -73t-44 -146h-38z" />
<glyph unicode="U" horiz-adv-x="1479" d="M11 1319v37h586v-37h-52q-84 0 -120 -53q-25 -36 -25 -150v-591q0 -79 14.5 -181t52.5 -159t109.5 -94t175.5 -37q133 0 238 58t143.5 148.5t38.5 306.5v549q0 127 -28 159q-39 44 -116 44h-51v37h480v-37h-51q-80 0 -123 -67q-21 -31 -21 -144v-550q0 -204 -40.5 -316.5 t-159 -193t-322.5 -80.5q-222 0 -337 77t-163 207q-32 89 -32 334v530q0 125 -34.5 164t-111.5 39h-51z" />
<glyph unicode="V" horiz-adv-x="1479" d="M18 1319v37h554v-37q-94 -9 -122 -32t-28 -59q0 -50 46 -156l345 -795l320 785q47 116 47 161q0 29 -29 55.5t-98 37.5q-5 1 -17 3v37h418v-37q-72 -13 -109 -46q-53 -49 -94 -150l-473 -1154h-37l-508 1169q-39 90 -55 110q-25 31 -61.5 48.5t-98.5 22.5z" />
<glyph unicode="W" horiz-adv-x="1933" d="M27 1319v37h502v-37h-24q-53 0 -81 -24t-28 -58q0 -35 44 -161l267 -761l225 647l-40 114l-32 91q-21 50 -47 88q-13 19 -32 32q-25 18 -50 26q-19 6 -60 6v37h528v-37h-36q-56 0 -82 -24t-26 -65q0 -51 45 -178l260 -737l258 747q44 124 44 172q0 23 -14.5 43t-36.5 28 q-38 14 -99 14v37h405v-37q-53 0 -86 -19t-63 -71q-20 -35 -63 -167l-378 -1093h-40l-309 867l-307 -867h-36l-403 1126q-45 126 -57 149q-20 38 -54.5 56.5t-93.5 18.5z" />
<glyph unicode="X" horiz-adv-x="1479" d="M15 0v37q51 5 88 21q62 26 118 70t128 135l320 404l-267 391q-109 159 -185 208.5t-175 52.5v37h627v-37q-80 -3 -109.5 -26t-29.5 -51q0 -37 48 -108l208 -311l241 305q42 54 51.5 74t9.5 41t-12 37q-15 21 -38 29.5t-95 9.5v37h481v-37q-57 -3 -93 -18q-54 -23 -99 -62 t-127 -144l-269 -344l291 -434q121 -180 179.5 -227.5t148.5 -52.5v-37h-582v37q58 1 86 12q21 9 34.5 27.5t13.5 37.5q0 23 -9 46q-7 17 -55 88l-230 348l-284 -364q-45 -58 -54 -77.5t-9 -40.5q0 -32 27 -53t103 -24v-37h-481z" />
<glyph unicode="Y" horiz-adv-x="1479" d="M19 1319v37h580v-37h-30q-47 0 -86.5 -22t-39.5 -66q0 -36 61 -130l283 -437l266 418q60 94 60 140q0 28 -14.5 50t-41.5 34.5t-81 12.5v37h473v-37h-26q-26 0 -76 -23t-91 -66t-101 -140l-327 -515v-340q0 -125 28 -156q38 -42 120 -42h44v-37h-576v37h48q86 0 122 52 q22 32 22 146v321l-372 568q-66 100 -89.5 125t-97.5 60q-20 10 -58 10z" />
<glyph unicode="Z" horiz-adv-x="1251" d="M26 0v37l870 1238h-434q-108 0 -156.5 -23.5t-74 -68t-46.5 -166.5h-38l28 339h1003l-891 -1274h556q128 0 196.5 56t121.5 227l33 -6l-64 -359h-1104z" />
<glyph unicode="[" horiz-adv-x="682" d="M168 -406v1793h440v-79h-290v-1636h290v-78h-440z" />
<glyph unicode="\" horiz-adv-x="569" d="M3 1422h80l490 -1450h-80z" />
<glyph unicode="]" horiz-adv-x="682" d="M75 -328h290v1636h-290v79h440v-1794h-440v79z" />
<glyph unicode="^" horiz-adv-x="961" d="M37 667l431 717h30l425 -717h-92l-350 586l-350 -586h-94z" />
<glyph unicode="_" horiz-adv-x="1024" d="M-17 -358h1059v-84h-1059v84z" />
<glyph unicode="`" horiz-adv-x="682" d="M118 1390h223l106 -345h-35z" />
<glyph unicode="a" horiz-adv-x="909" d="M73 217q0 67 30 116q41 68 142.5 128t337.5 146v36q0 137 -43.5 188t-126.5 51q-63 0 -100 -34q-38 -34 -38 -78l2 -58q0 -46 -23.5 -71t-61.5 -25q-37 0 -60.5 26t-23.5 71q0 86 88 158t247 72q122 0 200 -41q59 -31 87 -97q18 -43 18 -176v-311q0 -131 5 -160.5 t16.5 -39.5t26.5 -10q16 0 28 7q21 13 81 73v-56q-112 -150 -214 -150q-49 0 -78 34t-30 116q-141 -109 -177 -126q-54 -25 -115 -25q-95 0 -156.5 65t-61.5 171zM241 264q0 -72 43 -119.5t99 -47.5q76 0 200 100v349q-151 -60 -195 -85q-79 -44 -113 -92t-34 -105z" />
<glyph unicode="b" horiz-adv-x="1024" d="M-5 1310l275 112h45v-664q133 185 287 185q141 0 246 -120.5t105 -329.5q0 -244 -162 -393q-139 -128 -310 -128q-80 0 -162.5 29t-168.5 87v949q0 156 -7.5 192t-23.5 49t-40 13q-28 0 -70 -16zM315 146q51 -50 105.5 -75.5t111.5 -25.5q91 0 169.5 100t78.5 291 q0 176 -78.5 270.5t-178.5 94.5q-53 0 -106 -27q-40 -20 -102 -80v-548z" />
<glyph unicode="c" horiz-adv-x="909" d="M70 457q0 216 128.5 351t308.5 135q135 0 222 -71.5t87 -148.5q0 -38 -24.5 -61.5t-68.5 -23.5q-59 0 -89 38q-17 21 -22.5 80t-40.5 90q-35 30 -97 30q-100 0 -161 -74q-81 -98 -81 -259q0 -164 80.5 -289.5t217.5 -125.5q98 0 176 67q55 46 107 167l29 -14 q-37 -181 -145 -278.5t-239 -97.5q-156 0 -272 131t-116 354z" />
<glyph unicode="d" horiz-adv-x="1024" d="M68 420q0 197 124 360.5t319 163.5q121 0 200 -77v169q0 157 -7.5 193t-23.5 49t-40 13q-26 0 -69 -16l-13 35l273 112h45v-1059q0 -161 7.5 -196.5t24 -49.5t38.5 -14q27 0 72 17l11 -35l-272 -113h-46v131q-67 -70 -131 -100.5t-138 -30.5q-150 0 -262 125.5 t-112 322.5zM251 499q0 -202 88 -309.5t196 -107.5q91 0 176 91v472q-6 68 -36 124t-79.5 84.5t-96.5 28.5q-88 0 -157 -79q-91 -104 -91 -304z" />
<glyph unicode="e" horiz-adv-x="909" d="M76 446q0 235 120.5 366.5t302.5 131.5q154 0 253 -101.5t99 -271.5h-633q-1 -204 99 -320t235 -116q90 0 156.5 49.5t111.5 169.5l31 -20q-21 -137 -122 -249.5t-253 -112.5q-165 0 -282.5 128.5t-117.5 345.5zM218 629h424q-5 88 -21 124q-25 56 -74.5 88t-103.5 32 q-83 0 -148.5 -64.5t-76.5 -179.5z" />
<glyph unicode="f" horiz-adv-x="682" d="M79 844v72h178v60q0 137 44 232t134.5 153.5t203.5 58.5q105 0 193 -68q58 -45 58 -101q0 -30 -26 -56.5t-56 -26.5q-23 0 -48.5 16.5t-62.5 71t-68 73.5t-69 19q-46 0 -78 -24.5t-46 -76t-14 -265.5v-66h236v-72h-236v-602q0 -128 28 -162q37 -44 99 -44h83v-36h-547v36 h41q40 0 73 20t45.5 54t12.5 132v602h-178z" />
<glyph unicode="g" horiz-adv-x="1024" d="M61 -251q0 24 11 48q17 37 70 103q7 9 102 108q-52 31 -73.5 55.5t-21.5 55.5q0 35 28.5 82t131.5 133q-84 41 -129 114.5t-45 162.5q0 136 102.5 234t262.5 98q131 0 227 -64h194q43 0 50 -2.5t10 -8.5q6 -9 6 -32q0 -26 -5 -36q-3 -5 -10.5 -8t-50.5 -3h-119 q56 -72 56 -184q0 -128 -98 -219t-263 -91q-68 0 -139 20q-44 -38 -59.5 -66.5t-15.5 -48.5q0 -17 16.5 -33t64.5 -23q28 -4 140 -7q206 -5 267 -14q93 -13 148.5 -69t55.5 -138q0 -113 -106 -212q-156 -146 -407 -146q-193 0 -326 87q-75 50 -75 104zM204 -176 q0 -48 58 -84q100 -62 289 -62q180 0 265.5 63.5t85.5 135.5q0 52 -51 74q-52 22 -206 26q-225 6 -346 23q-47 -51 -71 -95t-24 -81zM309 655q0 -158 68 -245q52 -66 132 -66q76 0 125 57t49 179q0 159 -69 249q-51 66 -131 66q-74 0 -124 -59t-50 -181z" />
<glyph unicode="h" horiz-adv-x="1024" d="M13 1310l274 112h46v-670q111 122 176 156.5t130 34.5q78 0 134 -43t83 -135q19 -64 19 -234v-324q0 -87 14 -119q10 -24 34 -38t88 -14v-36h-450v36h21q64 0 89 19.5t35 57.5q3 16 3 94v324q0 150 -15.5 197t-49.5 70.5t-82 23.5q-49 0 -102 -26t-127 -105v-484 q0 -94 10.5 -117t39 -38.5t98.5 -15.5v-36h-454v36q61 0 96 19q20 10 32 38t12 114v829q0 157 -7.5 193t-23 49t-41.5 13q-21 0 -68 -16z" />
<glyph unicode="i" horiz-adv-x="569" d="M60 831l276 112h44v-736q0 -86 12.5 -114.5t37 -42.5t89.5 -14v-36h-445v36q67 0 90 13t36.5 43t13.5 115v353q0 149 -9 193q-7 32 -22 44.5t-41 12.5q-28 0 -68 -15zM195 1321q0 42 29.5 71.5t72.5 29.5q42 0 71.5 -29.5t29.5 -71.5t-29.5 -72t-71.5 -30t-72 30t-30 72z " />
<glyph unicode="j" horiz-adv-x="569" d="M-157 -341q0 35 24.5 60t57.5 25q26 0 53 -13q17 -7 65.5 -50.5t81.5 -43.5q24 0 47 18.5t34 62t11 188.5v652q0 151 -9 194q-7 33 -22 45.5t-41 12.5q-28 0 -68 -15l-14 36l276 112h43v-922q0 -235 -100 -349t-260 -114q-91 0 -135 33t-44 68zM194 1320q0 43 30 73 t72 30q43 0 73 -30t30 -73q0 -42 -30 -72t-73 -30q-42 0 -72 30t-30 72z" />
<glyph unicode="k" horiz-adv-x="1024" d="M17 0v36q70 0 105 17q21 11 32 34q15 33 15 114v834q0 159 -7 194.5t-23 49t-42 13.5q-21 0 -63 -17l-17 35l272 112h46v-912l233 213q74 68 86 86q8 12 8 24q0 20 -16.5 34.5t-54.5 16.5v32h398v-32q-82 -2 -136.5 -25t-119.5 -82l-235 -217l235 -297q98 -123 132 -156 q48 -47 84 -61q25 -10 87 -10v-36h-445v36q38 1 51.5 11.5t13.5 29.5q0 23 -40 74l-281 359v-304q0 -89 12.5 -117t35.5 -40t100 -13v-36h-466z" />
<glyph unicode="l" horiz-adv-x="569" d="M61 1310l273 112h45v-1215q0 -86 12.5 -114t38.5 -42.5t97 -14.5v-36h-449v36q63 0 86 13t36 43t13 115v832q0 155 -7 190.5t-22.5 48.5t-39.5 13q-26 0 -66 -16z" />
<glyph unicode="m" horiz-adv-x="1593" d="M17 831l276 112h43v-195q100 100 118 115q45 38 97 59t103 21q86 0 148 -50t83 -145q103 120 174 157.5t146 37.5q73 0 129.5 -37.5t89.5 -122.5q22 -58 22 -182v-394q0 -86 13 -118q10 -22 37 -37.5t88 -15.5v-36h-452v36h19q59 0 92 23q23 16 33 51q4 17 4 97v394 q0 112 -27 158q-39 64 -125 64q-53 0 -106.5 -26.5t-129.5 -98.5l-2 -11l2 -43v-437q0 -94 10.5 -117t39.5 -38.5t99 -15.5v-36h-463v36q76 0 104.5 18t39.5 54q5 17 5 99v394q0 112 -33 161q-44 64 -123 64q-54 0 -107 -29q-83 -44 -128 -99v-491q0 -90 12.5 -117t37 -40.5 t99.5 -13.5v-36h-453v36q63 0 88 13.5t38 43t13 114.5v350q0 151 -9 195q-7 33 -22 45.5t-41 12.5q-28 0 -67 -15z" />
<glyph unicode="n" horiz-adv-x="1024" d="M12 831l276 112h43v-194q161 194 307 194q75 0 129 -37.5t86 -123.5q22 -60 22 -184v-391q0 -87 14 -118q11 -25 35.5 -39t90.5 -14v-36h-453v36h19q64 0 89.5 19.5t35.5 57.5q4 15 4 94v375q0 125 -32.5 181.5t-109.5 56.5q-119 0 -237 -130v-483q0 -93 11 -115 q14 -29 38.5 -42.5t99.5 -13.5v-36h-453v36h20q70 0 94.5 35.5t24.5 135.5v340q0 165 -7.5 201t-23 49t-41.5 13q-28 0 -67 -15z" />
<glyph unicode="o" horiz-adv-x="1024" d="M69 449q0 126 62.5 250.5t164.5 184t216 59.5q208 0 334 -158q107 -135 107 -310q0 -123 -59 -249t-162.5 -190t-230.5 -64q-207 0 -329 165q-103 139 -103 312zM255 533q0 -200 79.5 -345t209.5 -145q97 0 160 80t63 275q0 244 -105 384q-71 96 -181 96 q-53 0 -106.5 -31.5t-86.5 -110.5t-33 -203z" />
<glyph unicode="p" horiz-adv-x="1024" d="M-7 -401h25h5q52 0 89 21q19 11 29.5 35.5t10.5 124.5v866q0 89 -8 113t-25.5 36t-47.5 12q-24 0 -61 -14l-12 32l282 114h38v-214q71 121 142.5 169.5t150.5 48.5q138 0 230 -108q113 -132 113 -344q0 -237 -136 -392q-112 -127 -282 -127q-74 0 -128 21q-40 15 -90 60 v-279q0 -94 11.5 -119.5t40 -40.5t103.5 -15v-37h-480v37zM318 324q0 -111 9 -146q14 -58 68.5 -102t137.5 -44q100 0 162 78q81 102 81 287q0 210 -92 323q-64 78 -152 78q-48 0 -95 -24q-36 -18 -119 -108v-342z" />
<glyph unicode="q" horiz-adv-x="1024" d="M68 417q0 233 138 379.5t333 146.5q57 0 105 -16t86 -48q58 28 111 64h34v-1178q0 -88 12 -113t37.5 -39t99.5 -14v-37h-462v37h19q56 0 85 16q20 11 32 39.5t12 110.5v394q-91 -108 -159 -147.5t-141 -39.5q-133 0 -237.5 121t-104.5 324zM236 490q0 -185 81.5 -281 t196.5 -96q59 0 105 25.5t91 83.5v430q0 75 -19.5 118t-69.5 73t-113 30q-112 0 -192 -95t-80 -288z" />
<glyph unicode="r" horiz-adv-x="682" d="M13 831l277 112h42v-206q115 206 236 206q55 0 91 -33.5t36 -77.5q0 -39 -26 -66t-62 -27q-35 0 -78.5 34.5t-64.5 34.5q-18 0 -39 -20q-45 -41 -93 -135v-439q0 -76 19 -115q13 -27 46 -45t95 -18v-36h-469v36q70 0 104 22q25 16 35 51q5 17 5 97v355q0 160 -6.5 190.5 t-24 44.5t-43.5 14q-31 0 -70 -15z" />
<glyph unicode="s" horiz-adv-x="797" d="M100 678q0 113 77.5 189t200.5 76q54 0 131 -23q51 -15 68 -15q16 0 25 7t21 31h33v-312h-33q-38 147 -97.5 200t-151.5 53q-70 0 -113 -37t-43 -82q0 -56 32 -96q31 -41 126 -87l146 -71q203 -99 203 -261q0 -125 -94.5 -201.5t-211.5 -76.5q-84 0 -192 30 q-33 10 -54 10q-23 0 -36 -26h-33v327h33q28 -140 107 -211t177 -71q69 0 112.5 40.5t43.5 97.5q0 69 -48.5 116t-193.5 119t-190 130q-45 57 -45 144z" />
<glyph unicode="t" horiz-adv-x="569" d="M20 846v33q55 22 112.5 74.5t102.5 124.5q23 38 64 139h31v-301h214v-70h-214v-594q0 -89 25.5 -120t65.5 -31q33 0 64 20.5t48 60.5h39q-35 -98 -99 -147.5t-132 -49.5q-46 0 -90 25.5t-65 73t-21 146.5v616h-145z" />
<glyph unicode="u" horiz-adv-x="1024" d="M2 879v37h321v-613q0 -128 44.5 -168t107.5 -40q43 0 97.5 27t129.5 103v519q0 78 -28.5 105.5t-118.5 29.5v37h312v-555q0 -159 7.5 -194.5t24 -49.5t38.5 -14q31 0 70 17l14 -35l-274 -113h-45v194q-118 -128 -180 -161t-131 -33q-77 0 -133.5 44.5t-78.5 114.5 t-22 198v409q0 65 -14 90q-13 24 -41 38q-26 13 -90 13h-10z" />
<glyph unicode="v" horiz-adv-x="1024" d="M17 879v37h431v-37h-28q-39 0 -59.5 -19t-20.5 -51q0 -35 21 -83l213 -506l214 525q23 56 23 85q0 14 -8 23q-11 15 -28 20.5t-69 5.5v37h299v-37q-52 -4 -72 -21q-35 -30 -63 -100l-325 -786h-41l-327 773q-22 54 -42 77.5t-51 39.5q-17 9 -67 17z" />
<glyph unicode="w" horiz-adv-x="1479" d="M13 879v37h384v-37q-53 -4 -69.5 -19t-16.5 -43q0 -31 17 -75l196 -527l197 429l-52 135q-24 60 -63 83q-22 14 -82 17v37h436v-37q-72 -3 -102 -26q-20 -16 -20 -51q0 -20 8 -41l208 -526l193 507q20 54 20 86q0 19 -19.5 34t-76.5 17v37h289v-37q-87 -13 -128 -118 l-306 -789h-41l-229 585l-267 -585h-37l-294 770q-29 73 -57 98.5t-88 38.5z" />
<glyph unicode="x" horiz-adv-x="1024" d="M27 879v37h431v-37q-41 0 -57.5 -14t-16.5 -37q0 -24 35 -74q11 -16 33 -50l65 -104l75 104q72 99 72 125q0 21 -17 35.5t-55 14.5v37h310v-37q-49 -3 -85 -27q-49 -34 -134 -148l-125 -167l228 -328q84 -121 120 -145.5t93 -27.5v-36h-432v36q45 0 70 20q19 14 19 37 t-64 116l-134 196l-147 -196q-68 -91 -68 -108q0 -24 22.5 -43.5t67.5 -21.5v-36h-299v36q36 5 63 25q38 29 128 148l192 255l-174 252q-74 108 -114.5 135.5t-101.5 27.5z" />
<glyph unicode="y" horiz-adv-x="1024" d="M12 879v37h427v-37h-21q-45 0 -67.5 -19.5t-22.5 -48.5q0 -39 33 -108l223 -462l205 506q17 41 17 81q0 18 -7 27q-8 11 -25 17.5t-60 6.5v37h298v-37q-37 -4 -57 -16t-44 -45q-9 -14 -34 -77l-373 -914q-54 -133 -141.5 -201t-168.5 -68q-59 0 -97 34t-38 78 q0 42 27.5 67.5t75.5 25.5q33 0 90 -22q40 -15 50 -15q30 0 65.5 31t71.5 120l65 159l-329 691q-15 31 -48 77q-25 35 -41 47q-23 16 -74 28z" />
<glyph unicode="z" horiz-adv-x="909" d="M41 0v36l608 810h-300q-97 0 -127 -12.5t-49 -47.5q-27 -50 -31 -124h-40l6 254h768v-37l-614 -812h334q105 0 142.5 17.5t60.5 61.5q16 32 27 135h34l-11 -281h-808z" />
<glyph unicode="{" horiz-adv-x="983" d="M283 470v41q107 14 167.5 76t60.5 135q0 53 -23 148t-23 168q0 136 104.5 249t271.5 135v-35q-117 -28 -171.5 -91.5t-54.5 -139.5q0 -59 22.5 -155.5t22.5 -164.5q0 -101 -74 -196t-221 -147q144 -53 219.5 -150t75.5 -198q0 -68 -22.5 -164.5t-22.5 -155.5 q0 -76 54.5 -139.5t171.5 -92.5v-35q-167 23 -271.5 135.5t-104.5 249.5q0 72 23 167.5t23 148.5q0 72 -60.5 134.5t-167.5 76.5z" />
<glyph unicode="|" horiz-adv-x="410" d="M161 -442v1864h83v-1864h-83z" />
<glyph unicode="}" horiz-adv-x="983" d="M177 -407q117 29 171.5 92t54.5 140q0 59 -23 155.5t-23 163.5q0 102 74.5 197t221.5 147q-144 53 -220 150t-76 198q0 68 23 164.5t23 155.5q0 76 -54.5 139.5t-171.5 91.5v35q167 -22 271.5 -134.5t104.5 -250.5q0 -72 -23 -167t-23 -148q0 -72 60.5 -134.5 t167.5 -76.5v-41q-107 -14 -167.5 -76.5t-60.5 -134.5q0 -53 23 -148.5t23 -167.5q0 -136 -104.5 -249t-271.5 -136v35z" />
<glyph unicode="~" horiz-adv-x="1108" d="M44 400q6 135 74 206.5t160 71.5q44 0 90 -14q104 -30 273.5 -102.5t238.5 -72.5q75 0 126 48t60 138h45q-4 -130 -74 -203.5t-171 -73.5q-46 0 -99 15.5t-274 105.5q-154 64 -219 64q-70 0 -118 -43t-68 -140h-44z" />
<glyph unicode="&#xa1;" horiz-adv-x="682" d="M228 -290q0 24 5 67l89 810h38l89 -810q5 -53 5 -79q0 -63 -33.5 -101.5t-79.5 -38.5q-47 0 -80 38t-33 114zM232 863q0 46 32 78.5t78 32.5q47 0 79 -32.5t32 -78.5t-32.5 -78t-78.5 -32t-78 32t-32 78z" />
<glyph unicode="&#xa2;" horiz-adv-x="1024" d="M129 452q0 254 157 390q120 105 273 105q20 0 61 -4l140 383h72l-145 -402q101 -45 138 -87q48 -54 48 -115q0 -39 -24 -62t-70 -23q-55 0 -86 38q-18 22 -26 82q-4 31 -17 65l-228 -631q56 -38 94 -51q28 -10 69 -10q61 0 117 25.5t85 60t83 146.5l30 -13 q-47 -188 -163 -292q-90 -81 -221 -81q-81 0 -162 35l-142 -390h-70l155 427q-81 76 -117 154q-51 110 -51 250zM289 535q0 -75 17.5 -138t63.5 -147l223 615q-28 12 -60 12q-102 0 -162 -74q-82 -100 -82 -268z" />
<glyph unicode="&#xa3;" horiz-adv-x="1024" d="M61 105q0 67 46 111.5t118 44.5q17 0 38 -2t47 -6q2 26 2.5 45t0.5 32q0 88 -21 329h-194v95h194q-13 149 -13 199q0 122 49 223t135.5 154.5t185.5 53.5q126 0 189.5 -68t63.5 -136q0 -32 -24.5 -57t-53.5 -25q-38 0 -63 38q-11 18 -15 77.5t-34 87.5q-31 28 -87 28 q-79 0 -130.5 -62t-51.5 -218q0 -73 12 -187q7 -75 10 -108h258v-95h-258q1 -46 1 -68q0 -94 -13.5 -174t-48.5 -184q196 -63 224 -69q52 -12 102 -12q83 0 135 38.5t76 121.5l36 -9q-21 -161 -103.5 -244t-183.5 -83q-68 0 -123 24.5t-203 135.5q-40 -80 -86.5 -120 t-99.5 -40q-50 0 -83.5 34.5t-33.5 94.5zM118 112q0 -36 19.5 -57t45.5 -21q33 0 64.5 31t50.5 107q-22 14 -43 21t-42 7q-45 0 -70 -24.5t-25 -63.5z" />
<glyph unicode="&#xa4;" horiz-adv-x="1024" d="M27 253l144 145q-102 117 -102 282q0 157 102 283l-144 141l56 57l146 -142q52 45 132 73.5t153 28.5q69 0 145.5 -26t134.5 -76l143 142l58 -57l-144 -141q103 -132 103 -281q0 -154 -103 -284l144 -145l-58 -55l-143 143q-134 -103 -270 -103q-88 0 -171.5 30.5 t-123.5 72.5l-146 -143zM150 677q0 -147 106 -253t255 -106t256 107t107 254q0 91 -49 179t-135 135t-178 47q-151 0 -256.5 -106.5t-105.5 -256.5z" />
<glyph unicode="&#xa5;" horiz-adv-x="1024" d="M2 352v73h424v144l-15 36h-409v73h377l-213 496q-37 87 -72.5 115t-91.5 29v38h442v-38q-72 -5 -96.5 -23t-24.5 -39q0 -16 18 -59l214 -519l213 504q21 50 21 75q0 21 -21 41q-14 13 -64 17q-9 0 -27 3v38h346v-38q-60 0 -87 -23q-43 -35 -86 -132l-214 -485h387v-73 h-419l-7 -16v-164h426v-73h-426v-108q0 -112 11 -143q9 -22 34 -38q37 -22 85 -22h41v-41h-515v41h32q70 0 104 26q24 19 33 57q4 19 4 120v108h-424z" />
<glyph unicode="&#xa6;" horiz-adv-x="410" d="M161 300h83v-742h-83v742zM161 680v742h83v-742h-83z" />
<glyph unicode="&#xa7;" horiz-adv-x="1024" d="M156 504q0 92 54 181.5t167 157.5q-67 74 -95.5 135t-28.5 124q0 117 82 199.5t202 82.5q110 0 181.5 -67t71.5 -153q0 -39 -26 -69q-19 -21 -53 -21t-56 23t-22 54q0 15 8 53q5 23 5 43q0 41 -29 68t-80 27q-73 0 -123.5 -51t-50.5 -124q0 -64 27 -106q45 -70 151 -147 q201 -145 275 -260q52 -82 52 -172q0 -91 -53 -182t-168 -160q70 -77 96.5 -133t26.5 -121q0 -122 -82 -204t-202 -82q-108 0 -179.5 68.5t-71.5 156.5q0 37 23.5 62.5t54.5 25.5t53 -23.5t22 -63.5q0 -27 -8 -59.5t-8 -49.5q0 -29 25 -48q39 -30 95 -30q67 0 121.5 52 t54.5 113q0 62 -31 111q-48 75 -174 170q-188 140 -256 247q-51 81 -51 172zM258 590q0 -70 37 -129q52 -81 197 -191q70 -53 122 -101q153 93 153 220q0 65 -44 135.5t-181 177.5q-82 63 -133 110q-151 -91 -151 -222z" />
<glyph unicode="&#xa8;" horiz-adv-x="682" d="M57 1228q0 45 31.5 77t76.5 32q46 0 77.5 -32t31.5 -77t-32 -76.5t-76 -31.5q-45 0 -77 31.5t-32 76.5zM409 1228q0 45 32 77t77 32t76.5 -32t31.5 -77t-31.5 -76.5t-76.5 -31.5t-77 31.5t-32 76.5z" />
<glyph unicode="&#xa9;" horiz-adv-x="1556" d="M69 678q0 185 95.5 355.5t265.5 262t348 91.5q179 0 349 -91.5t265.5 -262t95.5 -355.5q0 -184 -94 -353t-263 -262.5t-353 -93.5t-352.5 93.5t-262.5 262.5t-94 353zM131 678q0 -168 85.5 -322t239.5 -240t322 -86t322.5 86t240 240t85.5 322q0 169 -87 324.5 t-242 239.5t-319 84q-163 0 -318 -84t-242 -239.5t-87 -324.5zM320 672q0 192 140 327.5t358 135.5q46 0 76.5 -6t108.5 -32q25 -8 37 -8q16 0 27 8.5t22 36.5h40l20 -280h-39q-36 119 -114.5 177.5t-188.5 58.5q-82 0 -146 -34t-105 -91q-30 -43 -50 -114t-20 -150 q0 -212 91 -312.5t240 -100.5q195 0 312 162l37 -19q-139 -203 -383 -203q-200 0 -331.5 129.5t-131.5 314.5z" />
<glyph unicode="&#xaa;" horiz-adv-x="565" d="M-6 911q0 44 22 77q30 46 107 93q52 31 217 99q0 109 -26.5 142.5t-79.5 33.5q-48 0 -71 -21.5t-23 -67.5q0 -45 -16.5 -65.5t-41.5 -20.5q-23 0 -39.5 17t-16.5 43q0 55 56.5 99t177.5 44q92 0 141.5 -31t63 -64t13.5 -109v-218q0 -53 2 -61q3 -13 11 -20q7 -6 13 -6 q14 0 58 30v-48q-73 -53 -98 -63.5t-51 -10.5q-25 0 -44.5 20.5t-28.5 74.5q-63 -45 -117 -68t-98 -23q-53 0 -92 38t-39 86zM133 958q0 -34 25.5 -60t63.5 -26q22 0 51.5 11t66.5 33v226q-120 -40 -163.5 -88t-43.5 -96z" />
<glyph unicode="&#xab;" horiz-adv-x="1024" d="M64 464l387 470h57l-244 -470l244 -472h-57zM508 464l394 470h58l-243 -470l243 -472h-58z" />
<glyph unicode="&#xac;" horiz-adv-x="1155" d="M36 797v81h1080v-406h-79v325h-1001z" />
<glyph unicode="&#xad;" horiz-adv-x="682" d="M83 384v151h517v-151h-517z" />
<glyph unicode="&#xae;" horiz-adv-x="1556" d="M69 678q0 185 95.5 355.5t265.5 262t348 91.5q179 0 349 -91.5t265.5 -262t95.5 -355.5q0 -184 -94 -353t-263 -262.5t-353 -93.5t-352.5 93.5t-262.5 262.5t-94 353zM131 678q0 -168 85.5 -322t239.5 -240t322 -86t322.5 86t240 240t85.5 322q0 169 -87 324.5 t-242 239.5t-319 84q-163 0 -318 -84t-242 -239.5t-87 -324.5zM374 249v33q48 0 68 11.5t29 33.5q7 16 7 93v523q0 74 -3 87q-7 23 -25.5 35.5t-63.5 12.5v36h386q145 0 221 -65.5t76 -158.5q0 -76 -51.5 -133.5t-170.5 -88.5l209 -298q38 -53 68 -73q19 -12 53 -15v-33 h-184l-294 405h-76v-309q6 -33 28.5 -48t89.5 -15v-33h-367zM623 697q118 0 172.5 23t83.5 64.5t29 94.5q0 81 -56.5 136t-144.5 55q-38 0 -84 -16v-357z" />
<glyph unicode="&#xaf;" horiz-adv-x="1024" d="M-17 1462v84h1059v-84h-1059z" />
<glyph unicode="&#xb0;" horiz-adv-x="819" d="M98 1078q0 128 89.5 218t217.5 90q129 0 218.5 -90t89.5 -218q0 -127 -90 -217t-218 -90q-127 0 -217 90t-90 217zM182 1079q0 -92 65 -157.5t158 -65.5q92 0 157.5 65.5t65.5 157.5q0 93 -65 158t-158 65t-158 -65t-65 -158z" />
<glyph unicode="&#xb1;" horiz-adv-x="1124" d="M23 141v81h498v418h-498v82h498v497h80v-497h500v-82h-500v-418h501v-81h-1079z" />
<glyph unicode="&#xb2;" horiz-adv-x="614" d="M20 664v29q247 192 328 313q50 74 50 143q0 61 -41.5 102.5t-104.5 41.5q-57 0 -100 -29.5t-65 -88.5h-45q14 98 77.5 153.5t164.5 55.5q106 0 172.5 -58t66.5 -130q0 -66 -48 -141q-75 -117 -295 -295h186q87 0 115.5 12t48.5 44h45l-61 -152h-494z" />
<glyph unicode="&#xb3;" horiz-adv-x="614" d="M44 712q0 17 16.5 31t42.5 14q28 0 81 -24t91 -24q56 0 96 39.5t40 92.5q0 45 -26.5 86t-68.5 57q-60 23 -107 23h-30v28q77 0 129.5 47t52.5 108q0 49 -33 80t-88 31q-85 0 -147 -88l-38 16q36 74 81 108q64 47 149 47q92 0 145 -46t53 -101q0 -68 -105 -155 q72 -26 108.5 -74.5t36.5 -107.5q0 -103 -85.5 -177t-246.5 -74q-84 0 -121 24q-26 17 -26 39z" />
<glyph unicode="&#xb4;" horiz-adv-x="682" d="M236 1045l105 345h224l-295 -345h-34z" />
<glyph unicode="&#xb5;" horiz-adv-x="1180" d="M134 -333q0 46 29 165q20 80 22 104q12 103 12 179q0 5 -1 75v726h164v-533q0 -145 18 -198q13 -40 48 -65t76 -25q118 0 236 134v687h165v-654q0 -100 8 -131q7 -24 24 -37.5t36 -13.5q26 0 44 22q26 31 37 102h42q-9 -121 -63 -176.5t-135 -55.5q-78 0 -120 58 q-30 43 -38 132q-87 -102 -162 -146t-152 -44q-53 0 -92 21q-28 16 -63 64q-1 -31 -1 -46q0 -79 34 -239q13 -61 13 -104q0 -48 -28 -79t-66 -31q-37 0 -62 29t-25 80z" />
<glyph unicode="&#xb6;" horiz-adv-x="928" d="M-14 981q0 110 43 180q58 96 154.5 145.5t252.5 49.5h495v-55h-133v-1743h-72v1743h-187v-1743h-73v1043q-191 8 -285.5 50.5t-144.5 131t-50 198.5z" />
<glyph unicode="&#xb7;" horiz-adv-x="512" d="M145 678q0 46 32.5 78.5t78.5 32.5q47 0 79 -32.5t32 -78.5t-32.5 -78.5t-78.5 -32.5t-78.5 32.5t-32.5 78.5z" />
<glyph unicode="&#xb8;" horiz-adv-x="682" d="M187 -340q28 -4 48 -4q51 0 86 33.5t35 76.5q0 30 -23 52t-57 22q-10 0 -26 -2l111 178h60l-50 -79q63 -16 94 -54t31 -92q0 -72 -60 -126.5t-155 -54.5q-37 0 -94 7v43z" />
<glyph unicode="&#xb9;" horiz-adv-x="614" d="M136 1297l205 87h35v-592q0 -60 6 -74q5 -9 16 -14q16 -8 79 -8v-32h-325v32q64 0 80 7q12 5 17 16t5 73v374q0 71 -5 94q-3 16 -10.5 22.5t-19.5 6.5q-20 0 -67 -20z" />
<glyph unicode="&#xba;" horiz-adv-x="635" d="M29 1075q0 138 82.5 223.5t212.5 85.5q124 0 205.5 -84.5t81.5 -208.5t-89 -214t-211 -90q-118 0 -200 81.5t-82 206.5zM170 1153q0 -159 69 -258q39 -57 102 -57q57 0 94.5 44.5t37.5 140.5q0 157 -71 256q-44 62 -106 62q-52 0 -89 -45t-37 -143z" />
<glyph unicode="&#xbb;" horiz-adv-x="1024" d="M64 -8l243 470l-243 472h58l394 -472l-394 -470h-58zM516 -8l244 470l-244 472h57l387 -472l-387 -470h-57z" />
<glyph unicode="&#xbc;" horiz-adv-x="1536" d="M134 1297l205 87h35v-592q0 -60 6 -74q5 -9 16 -14q16 -8 79 -8v-32h-325v32q64 0 80 7q12 5 17 16t5 73v374q0 71 -5 94q-3 16 -10.5 22.5t-19.5 6.5q-20 0 -67 -20zM268 -54l935 1438h89l-934 -1438h-90zM933 143v73l376 465h84v-457h108v-81h-108v-183h-117v183h-343z M1016 224h260v316z" />
<glyph unicode="&#xbd;" horiz-adv-x="1536" d="M134 1297l205 87h35v-592q0 -60 6 -74q5 -9 16 -14q16 -8 79 -8v-32h-325v32q64 0 80 7q12 5 17 16t5 73v374q0 71 -5 94q-3 16 -10.5 22.5t-19.5 6.5q-20 0 -67 -20zM244 -54l935 1438h89l-935 -1438h-89zM939 -10q247 192 328 313q50 74 50 143q0 61 -41.5 102.5 t-104.5 41.5q-57 0 -100 -29.5t-65 -88.5h-45q14 97 77.5 153t164.5 56q106 0 172.5 -58.5t66.5 -129.5q0 -66 -48 -142q-75 -116 -295 -294h187q86 0 114.5 11.5t48.5 44.5h45l-61 -153h-494v30z" />
<glyph unicode="&#xbe;" horiz-adv-x="1536" d="M42 712q0 17 16.5 31t42.5 14q28 0 81 -24t91 -24q56 0 96 39.5t40 92.5q0 72 -56.5 120t-175.5 46v28q77 0 129.5 47t52.5 108q0 49 -33 80t-88 31q-85 0 -147 -88l-38 16q36 74 81 108q64 47 149 47q92 0 145 -46t53 -101q0 -68 -105 -155q72 -26 108.5 -74.5 t36.5 -107.5q0 -103 -85.5 -177t-246.5 -74q-84 0 -121 24q-26 17 -26 39zM256 -54l935 1438h86l-931 -1438h-90zM933 143v73l376 465h84v-457h108v-81h-108v-183h-116v183h-344zM1017 224h260v316z" />
<glyph unicode="&#xbf;" horiz-adv-x="909" d="M89 -125q0 83 29 152q43 98 150 221.5t137 191.5t36 186h39q-5 -124 -24.5 -196.5t-102 -246.5t-82.5 -289q0 -132 66 -204t170 -72q87 0 137 41t50 90q0 31 -31 84.5t-31 85.5q0 34 24 57.5t57 23.5q41 0 76 -41.5t35 -110.5q0 -115 -97.5 -202.5t-266.5 -87.5 q-170 0 -270.5 93.5t-100.5 223.5zM341 864q0 46 32.5 78.5t78.5 32.5t78.5 -32.5t32.5 -78.5t-32.5 -78.5t-78.5 -32.5t-78.5 32.5t-32.5 78.5z" />
<glyph unicode="&#xc0;" horiz-adv-x="1479" d="M16 0v37q85 15 110 39q51 48 113 195l477 1116h35l472 -1128q57 -136 103.5 -176.5t129.5 -45.5v-37h-535v37q81 4 109.5 27t28.5 56q0 44 -40 139l-82 195h-525l-92 -214q-34 -79 -34 -118q0 -31 29.5 -54.5t127.5 -30.5v-37h-427zM443 528h466l-230 548zM513 1797h223 l106 -345h-35z" />
<glyph unicode="&#xc1;" horiz-adv-x="1479" d="M16 0v37q85 15 110 39q51 48 113 195l477 1116h35l472 -1128q57 -136 103.5 -176.5t129.5 -45.5v-37h-535v37q81 4 109.5 27t28.5 56q0 44 -40 139l-82 195h-525l-92 -214q-34 -79 -34 -118q0 -31 29.5 -54.5t127.5 -30.5v-37h-427zM443 528h466l-230 548zM630 1452 l105 345h224l-295 -345h-34z" />
<glyph unicode="&#xc2;" horiz-adv-x="1479" d="M16 0v37q85 15 110 39q51 48 113 195l477 1116h35l472 -1128q57 -136 103.5 -176.5t129.5 -45.5v-37h-535v37q81 4 109.5 27t28.5 56q0 44 -40 139l-82 195h-525l-92 -214q-34 -79 -34 -118q0 -31 29.5 -54.5t127.5 -30.5v-37h-427zM443 528h466l-230 548zM454 1462 l189 331h184l190 -331h-31l-273 213l-229 -213h-30z" />
<glyph unicode="&#xc3;" horiz-adv-x="1479" d="M16 0v37q85 15 110 39q51 48 113 195l477 1116h35l472 -1128q57 -136 103.5 -176.5t129.5 -45.5v-37h-535v37q81 4 109.5 27t28.5 56q0 44 -40 139l-82 195h-525l-92 -214q-34 -79 -34 -118q0 -31 29.5 -54.5t127.5 -30.5v-37h-427zM417 1465q4 137 57 198t131 61 q41 0 75 -13q45 -17 127.5 -71.5t122.5 -54.5q32 0 56.5 27t38.5 112h31q1 -93 -24.5 -147.5t-72 -85t-93.5 -30.5q-79 0 -196 80q-63 43 -85 52t-43 9q-41 0 -65 -36q-11 -17 -28 -101h-32zM443 528h466l-230 548z" />
<glyph unicode="&#xc4;" horiz-adv-x="1479" d="M16 0v37q85 15 110 39q51 48 113 195l477 1116h35l472 -1128q57 -136 103.5 -176.5t129.5 -45.5v-37h-535v37q81 4 109.5 27t28.5 56q0 44 -40 139l-82 195h-525l-92 -214q-34 -79 -34 -118q0 -31 29.5 -54.5t127.5 -30.5v-37h-427zM443 528h466l-230 548zM450 1599 q0 45 31.5 77t76.5 32q46 0 77.5 -32t31.5 -77t-32 -76.5t-76 -31.5q-45 0 -77 31.5t-32 76.5zM802 1599q0 45 32 77t77 32t76.5 -32t31.5 -77t-31.5 -76.5t-76.5 -31.5t-77 31.5t-32 76.5z" />
<glyph unicode="&#xc5;" horiz-adv-x="1479" d="M16 0v37q85 15 110 39q51 48 113 195l477 1116h35l472 -1128q57 -136 103.5 -176.5t129.5 -45.5v-37h-535v37q81 4 109.5 27t28.5 56q0 44 -40 139l-82 195h-525l-92 -214q-34 -79 -34 -118q0 -31 29.5 -54.5t127.5 -30.5v-37h-427zM443 528h466l-230 548zM540 1510 q0 79 55.5 135t135.5 56t136 -56t56 -135q0 -80 -56 -136t-136 -56q-79 0 -135 56t-56 136zM609 1510q0 -50 35.5 -86t86.5 -36t86.5 36t35.5 86q0 51 -35.5 86.5t-86.5 35.5t-86.5 -35.5t-35.5 -86.5z" />
<glyph unicode="&#xc6;" horiz-adv-x="1821" d="M-24 0v37q44 1 75.5 19t68.5 65t94 153l412 771q77 143 77 193q0 32 -27 50q-34 25 -146 31v37h1111l15 -298h-34q-13 103 -50 157q-27 39 -78 57q-29 10 -136 10h-331v-536h257q115 0 162 43t55 154h36v-471h-36q-12 100 -32.5 134.5t-68.5 55.5q-23 11 -116 11h-257 v-449q0 -91 7 -108.5t29 -29.5t79 -12h182q109 0 168 18t114 70q73 68 120 179h38l-108 -341h-1018v37h51q83 0 122 49q24 32 24 153v286h-396l-124 -233q-70 -132 -70 -173q0 -28 30.5 -51.5t126.5 -30.5v-37h-426zM478 598h357v684z" />
<glyph unicode="&#xc7;" horiz-adv-x="1366" d="M74 657q0 203 91 373t250.5 263.5t348.5 93.5q147 0 290 -72q42 -22 60 -22q27 0 47 19q26 27 37 75h35l31 -461h-31q-62 207 -177 298t-276 91q-135 0 -244 -68.5t-171.5 -218.5t-62.5 -373q0 -184 59 -319t177.5 -207t270.5 -72q132 0 233 56.5t222 224.5l31 -20 q-102 -181 -238 -265t-323 -84q-337 0 -522 250q-138 186 -138 438zM524 -340q28 -4 48 -4q51 0 86 33.5t35 76.5q0 30 -23 52t-57 22q-10 0 -26 -2l111 178h60l-50 -79q63 -16 94 -54t31 -92q0 -72 -60 -126.5t-155 -54.5q-37 0 -94 7v43z" />
<glyph unicode="&#xc8;" horiz-adv-x="1251" d="M42 0v37h48q48 0 91 23q32 16 43.5 48t11.5 131v881q0 129 -26 159q-36 40 -120 40h-48v37h1045l15 -297h-39q-21 107 -46.5 147t-75.5 61q-40 15 -141 15h-372v-536h298q116 0 155 35q52 46 58 162h37v-472h-37q-14 99 -28 127q-18 35 -59 55t-126 20h-298v-447 q0 -90 8 -109.5t28 -31t76 -11.5h230q115 0 167 16t100 63q62 62 127 187h40l-117 -340h-1045zM406 1797h223l106 -345h-35z" />
<glyph unicode="&#xc9;" horiz-adv-x="1251" d="M42 0v37h48q48 0 91 23q32 16 43.5 48t11.5 131v881q0 129 -26 159q-36 40 -120 40h-48v37h1045l15 -297h-39q-21 107 -46.5 147t-75.5 61q-40 15 -141 15h-372v-536h298q116 0 155 35q52 46 58 162h37v-472h-37q-14 99 -28 127q-18 35 -59 55t-126 20h-298v-447 q0 -90 8 -109.5t28 -31t76 -11.5h230q115 0 167 16t100 63q62 62 127 187h40l-117 -340h-1045zM524 1452l105 345h224l-295 -345h-34z" />
<glyph unicode="&#xca;" horiz-adv-x="1251" d="M42 0v37h48q48 0 91 23q32 16 43.5 48t11.5 131v881q0 129 -26 159q-36 40 -120 40h-48v37h1045l15 -297h-39q-21 107 -46.5 147t-75.5 61q-40 15 -141 15h-372v-536h298q116 0 155 35q52 46 58 162h37v-472h-37q-14 99 -28 127q-18 35 -59 55t-126 20h-298v-447 q0 -90 8 -109.5t28 -31t76 -11.5h230q115 0 167 16t100 63q62 62 127 187h40l-117 -340h-1045zM348 1462l189 331h184l190 -331h-31l-273 213l-229 -213h-30z" />
<glyph unicode="&#xcb;" horiz-adv-x="1251" d="M42 0v37h48q48 0 91 23q32 16 43.5 48t11.5 131v881q0 129 -26 159q-36 40 -120 40h-48v37h1045l15 -297h-39q-21 107 -46.5 147t-75.5 61q-40 15 -141 15h-372v-536h298q116 0 155 35q52 46 58 162h37v-472h-37q-14 99 -28 127q-18 35 -59 55t-126 20h-298v-447 q0 -90 8 -109.5t28 -31t76 -11.5h230q115 0 167 16t100 63q62 62 127 187h40l-117 -340h-1045zM344 1599q0 45 31.5 77t76.5 32q46 0 77.5 -32t31.5 -77t-32 -76.5t-76 -31.5q-45 0 -77 31.5t-32 76.5zM696 1599q0 45 32 77t77 32t76.5 -32t31.5 -77t-31.5 -76.5 t-76.5 -31.5t-77 31.5t-32 76.5z" />
<glyph unicode="&#xcc;" horiz-adv-x="682" d="M51 0v37h48q84 0 122 49q24 32 24 154v876q0 103 -13 136q-10 25 -41 43q-44 24 -92 24h-48v37h581v-37h-49q-83 0 -121 -49q-25 -32 -25 -154v-876q0 -103 13 -136q10 -25 42 -43q43 -24 91 -24h49v-37h-581zM119 1797h223l106 -345h-35z" />
<glyph unicode="&#xcd;" horiz-adv-x="682" d="M51 0v37h48q84 0 122 49q24 32 24 154v876q0 103 -13 136q-10 25 -41 43q-44 24 -92 24h-48v37h581v-37h-49q-83 0 -121 -49q-25 -32 -25 -154v-876q0 -103 13 -136q10 -25 42 -43q43 -24 91 -24h49v-37h-581zM236 1452l105 345h224l-295 -345h-34z" />
<glyph unicode="&#xce;" horiz-adv-x="682" d="M51 0v37h48q84 0 122 49q24 32 24 154v876q0 103 -13 136q-10 25 -41 43q-44 24 -92 24h-48v37h581v-37h-49q-83 0 -121 -49q-25 -32 -25 -154v-876q0 -103 13 -136q10 -25 42 -43q43 -24 91 -24h49v-37h-581zM60 1462l189 331h184l190 -331h-31l-273 213l-229 -213h-30z " />
<glyph unicode="&#xcf;" horiz-adv-x="682" d="M51 0v37h48q84 0 122 49q24 32 24 154v876q0 103 -13 136q-10 25 -41 43q-44 24 -92 24h-48v37h581v-37h-49q-83 0 -121 -49q-25 -32 -25 -154v-876q0 -103 13 -136q10 -25 42 -43q43 -24 91 -24h49v-37h-581zM57 1599q0 45 31.5 77t76.5 32q46 0 77.5 -32t31.5 -77 t-32 -76.5t-76 -31.5q-45 0 -77 31.5t-32 76.5zM409 1599q0 45 32 77t77 32t76.5 -32t31.5 -77t-31.5 -76.5t-76.5 -31.5t-77 31.5t-32 76.5z" />
<glyph unicode="&#xd0;" horiz-adv-x="1479" d="M35 0v37h51q86 0 123 56q21 32 21 147v438h-195v74h195v364q0 127 -28 159q-39 44 -116 44h-51v37h552q315 0 466 -71.5t249 -229t98 -368.5q0 -287 -183.5 -487t-576.5 -200h-605zM423 100q127 -28 213 -28q231 0 384 163t153 442q0 281 -153 443t-392 162 q-90 0 -205 -29v-501h393v-74h-393v-578z" />
<glyph unicode="&#xd1;" horiz-adv-x="1479" d="M-27 1319v37h368l829 -1017v782q0 125 -28 156q-37 42 -117 42h-47v37h472v-37h-48q-86 0 -122 -52q-22 -32 -22 -146v-1143h-36l-894 1092v-835q0 -125 27 -156q38 -42 117 -42h48v-37h-472v37h47q87 0 123 52q22 32 22 146v943q-59 69 -89.5 91t-89.5 41q-29 9 -88 9z M416 1465q4 137 57 198t131 61q41 0 75 -13q45 -17 127.5 -71.5t122.5 -54.5q32 0 56.5 27t38.5 112h31q1 -93 -24.5 -147.5t-72 -85t-93.5 -30.5q-79 0 -196 80q-63 43 -85 52t-43 9q-41 0 -65 -36q-11 -17 -28 -101h-32z" />
<glyph unicode="&#xd2;" horiz-adv-x="1479" d="M72 683q0 323 220 527q191 177 457 177q264 0 457.5 -200.5t193.5 -500.5q0 -309 -195 -513t-472 -204q-280 0 -470.5 199t-190.5 515zM301 687q0 -332 142 -511q109 -136 288 -136q191 0 315.5 149t124.5 470q0 348 -137 519q-110 136 -304 136q-182 0 -292 -135 q-137 -168 -137 -492zM511 1797h223l106 -345h-35z" />
<glyph unicode="&#xd3;" horiz-adv-x="1479" d="M72 683q0 323 220 527q191 177 457 177q264 0 457.5 -200.5t193.5 -500.5q0 -309 -195 -513t-472 -204q-280 0 -470.5 199t-190.5 515zM301 687q0 -332 142 -511q109 -136 288 -136q191 0 315.5 149t124.5 470q0 348 -137 519q-110 136 -304 136q-182 0 -292 -135 q-137 -168 -137 -492zM628 1452l105 345h224l-295 -345h-34z" />
<glyph unicode="&#xd4;" horiz-adv-x="1479" d="M72 683q0 323 220 527q191 177 457 177q264 0 457.5 -200.5t193.5 -500.5q0 -309 -195 -513t-472 -204q-280 0 -470.5 199t-190.5 515zM301 687q0 -332 142 -511q109 -136 288 -136q191 0 315.5 149t124.5 470q0 348 -137 519q-110 136 -304 136q-182 0 -292 -135 q-137 -168 -137 -492zM452 1462l189 331h184l190 -331h-31l-273 213l-229 -213h-30z" />
<glyph unicode="&#xd5;" horiz-adv-x="1479" d="M72 683q0 323 220 527q191 177 457 177q264 0 457.5 -200.5t193.5 -500.5q0 -309 -195 -513t-472 -204q-280 0 -470.5 199t-190.5 515zM301 687q0 -332 142 -511q109 -136 288 -136q191 0 315.5 149t124.5 470q0 348 -137 519q-110 136 -304 136q-182 0 -292 -135 q-137 -168 -137 -492zM414 1465q4 137 57 198t131 61q41 0 75 -13q45 -17 127.5 -71.5t122.5 -54.5q32 0 56.5 27t38.5 112h31q1 -93 -24.5 -147.5t-72 -85t-93.5 -30.5q-79 0 -196 80q-63 43 -85 52t-43 9q-41 0 -65 -36q-11 -17 -28 -101h-32z" />
<glyph unicode="&#xd6;" horiz-adv-x="1479" d="M72 683q0 323 220 527q191 177 457 177q264 0 457.5 -200.5t193.5 -500.5q0 -309 -195 -513t-472 -204q-280 0 -470.5 199t-190.5 515zM301 687q0 -332 142 -511q109 -136 288 -136q191 0 315.5 149t124.5 470q0 348 -137 519q-110 136 -304 136q-182 0 -292 -135 q-137 -168 -137 -492zM448 1599q0 45 31.5 77t76.5 32q46 0 77.5 -32t31.5 -77t-32 -76.5t-76 -31.5q-45 0 -77 31.5t-32 76.5zM800 1599q0 45 32 77t77 32t76.5 -32t31.5 -77t-31.5 -76.5t-76.5 -31.5t-77 31.5t-32 76.5z" />
<glyph unicode="&#xd7;" horiz-adv-x="1155" d="M165 328l353 353l-352 352l58 58l352 -352l352 352l56 -57l-352 -352l354 -354l-57 -58l-354 354l-353 -353z" />
<glyph unicode="&#xd8;" horiz-adv-x="1479" d="M73 692q0 294 196 494.5t472 200.5q227 0 406 -149l131 162l58 -44l-133 -167q104 -113 151 -229t47 -273q0 -343 -244 -555q-188 -163 -413 -163q-103 0 -216.5 37.5t-197.5 105.5l-129 -159l-59 47l132 164q-201 207 -201 528zM302 697q0 -231 73 -408l688 846 q-116 181 -327 181q-93 0 -147 -22q-75 -30 -134 -96q-79 -88 -116 -215t-37 -286zM416 217q54 -82 116 -120q89 -56 198 -56q105 0 172 31.5t125.5 97.5t100.5 186t42 300q0 123 -18 228q-14 77 -51 179z" />
<glyph unicode="&#xd9;" horiz-adv-x="1479" d="M11 1319v37h586v-37h-52q-84 0 -120 -53q-25 -36 -25 -150v-591q0 -79 14.5 -181t52.5 -159t109.5 -94t175.5 -37q133 0 238 58t143.5 148.5t38.5 306.5v549q0 127 -28 159q-39 44 -116 44h-51v37h480v-37h-51q-80 0 -123 -67q-21 -31 -21 -144v-550q0 -204 -40.5 -316.5 t-159 -193t-322.5 -80.5q-222 0 -337 77t-163 207q-32 89 -32 334v530q0 125 -34.5 164t-111.5 39h-51zM562 1797h223l106 -345h-35z" />
<glyph unicode="&#xda;" horiz-adv-x="1479" d="M11 1319v37h586v-37h-52q-84 0 -120 -53q-25 -36 -25 -150v-591q0 -79 14.5 -181t52.5 -159t109.5 -94t175.5 -37q133 0 238 58t143.5 148.5t38.5 306.5v549q0 127 -28 159q-39 44 -116 44h-51v37h480v-37h-51q-80 0 -123 -67q-21 -31 -21 -144v-550q0 -204 -40.5 -316.5 t-159 -193t-322.5 -80.5q-222 0 -337 77t-163 207q-32 89 -32 334v530q0 125 -34.5 164t-111.5 39h-51zM631 1452l105 345h224l-295 -345h-34z" />
<glyph unicode="&#xdb;" horiz-adv-x="1479" d="M11 1319v37h586v-37h-52q-84 0 -120 -53q-25 -36 -25 -150v-591q0 -79 14.5 -181t52.5 -159t109.5 -94t175.5 -37q133 0 238 58t143.5 148.5t38.5 306.5v549q0 127 -28 159q-39 44 -116 44h-51v37h480v-37h-51q-80 0 -123 -67q-21 -31 -21 -144v-550q0 -204 -40.5 -316.5 t-159 -193t-322.5 -80.5q-222 0 -337 77t-163 207q-32 89 -32 334v530q0 125 -34.5 164t-111.5 39h-51zM502 1462l189 331h184l190 -331h-31l-273 213l-229 -213h-30z" />
<glyph unicode="&#xdc;" horiz-adv-x="1479" d="M11 1319v37h586v-37h-52q-84 0 -120 -53q-25 -36 -25 -150v-591q0 -79 14.5 -181t52.5 -159t109.5 -94t175.5 -37q133 0 238 58t143.5 148.5t38.5 306.5v549q0 127 -28 159q-39 44 -116 44h-51v37h480v-37h-51q-80 0 -123 -67q-21 -31 -21 -144v-550q0 -204 -40.5 -316.5 t-159 -193t-322.5 -80.5q-222 0 -337 77t-163 207q-32 89 -32 334v530q0 125 -34.5 164t-111.5 39h-51zM499 1599q0 45 31.5 77t76.5 32q46 0 77.5 -32t31.5 -77t-32 -76.5t-76 -31.5q-45 0 -77 31.5t-32 76.5zM851 1599q0 45 32 77t77 32t76.5 -32t31.5 -77t-31.5 -76.5 t-76.5 -31.5t-77 31.5t-32 76.5z" />
<glyph unicode="&#xdd;" horiz-adv-x="1479" d="M19 1319v37h580v-37h-30q-47 0 -86.5 -22t-39.5 -66q0 -36 61 -130l283 -437l266 418q60 94 60 140q0 28 -14.5 50t-41.5 34.5t-81 12.5v37h473v-37h-26q-26 0 -76 -23t-91 -66t-101 -140l-327 -515v-340q0 -125 28 -156q38 -42 120 -42h44v-37h-576v37h48q86 0 122 52 q22 32 22 146v321l-372 568q-66 100 -89.5 125t-97.5 60q-20 10 -58 10zM667 1452l105 345h224l-295 -345h-34z" />
<glyph unicode="&#xde;" horiz-adv-x="1139" d="M36 0v37h38q93 0 133 56q20 28 20 147v868q0 114 -11 140.5t-48.5 48.5t-91.5 22h-40v37h578v-37h-40q-44 0 -94 -23q-30 -14 -45 -49t-15 -134v-65h74q150 0 224 -12q108 -19 179.5 -64.5t117 -121.5t45.5 -170q0 -77 -29 -142.5t-78 -112.5t-111 -75t-161 -41 q-36 -5 -191 -5h-70v-61q0 -129 34.5 -167.5t118.5 -38.5h41v-37h-578zM420 375h44q122 0 190 28q90 38 133 109t43 165q0 75 -31 138t-81.5 98.5t-112.5 48.5q-40 8 -137 8h-48v-595z" />
<glyph unicode="&#xdf;" horiz-adv-x="1024" d="M35 0v36q60 5 85.5 21t36 44.5t10.5 123.5v741q0 249 93 353q93 103 264 103q162 0 257 -91.5t95 -233.5q0 -106 -54 -180q-40 -54 -137 -96q135 -40 204 -139t69 -260q0 -174 -91 -304.5t-244 -130.5q-87 0 -139.5 48t-52.5 114q0 42 21.5 64.5t57.5 22.5 q39 0 60.5 -21.5t21.5 -57.5q0 -16 -4 -33q-6 -24 -6 -35q0 -18 15 -32t41 -14q60 0 99 53q51 70 51 216q0 208 -73.5 330t-221.5 132v57q106 0 160.5 62.5t54.5 208.5q0 134 -52.5 194t-139.5 60q-81 0 -132 -64t-51 -255v-1037h-298z" />
<glyph unicode="&#xe0;" horiz-adv-x="909" d="M73 217q0 67 30 116q41 68 142.5 128t337.5 146v36q0 137 -43.5 188t-126.5 51q-63 0 -100 -34q-38 -34 -38 -78l2 -58q0 -46 -23.5 -71t-61.5 -25q-37 0 -60.5 26t-23.5 71q0 86 88 158t247 72q122 0 200 -41q59 -31 87 -97q18 -43 18 -176v-311q0 -131 5 -160.5 t16.5 -39.5t26.5 -10q16 0 28 7q21 13 81 73v-56q-112 -150 -214 -150q-49 0 -78 34t-30 116q-141 -109 -177 -126q-54 -25 -115 -25q-95 0 -156.5 65t-61.5 171zM241 264q0 -72 43 -119.5t99 -47.5q76 0 200 100v349q-151 -60 -195 -85q-79 -44 -113 -92t-34 -105z M260 1390h223l106 -345h-35z" />
<glyph unicode="&#xe1;" horiz-adv-x="909" d="M73 217q0 67 30 116q41 68 142.5 128t337.5 146v36q0 137 -43.5 188t-126.5 51q-63 0 -100 -34q-38 -34 -38 -78l2 -58q0 -46 -23.5 -71t-61.5 -25q-37 0 -60.5 26t-23.5 71q0 86 88 158t247 72q122 0 200 -41q59 -31 87 -97q18 -43 18 -176v-311q0 -131 5 -160.5 t16.5 -39.5t26.5 -10q16 0 28 7q21 13 81 73v-56q-112 -150 -214 -150q-49 0 -78 34t-30 116q-141 -109 -177 -126q-54 -25 -115 -25q-95 0 -156.5 65t-61.5 171zM241 264q0 -72 43 -119.5t99 -47.5q76 0 200 100v349q-151 -60 -195 -85q-79 -44 -113 -92t-34 -105z M353 1045l105 345h224l-295 -345h-34z" />
<glyph unicode="&#xe2;" horiz-adv-x="909" d="M73 217q0 67 30 116q41 68 142.5 128t337.5 146v36q0 137 -43.5 188t-126.5 51q-63 0 -100 -34q-38 -34 -38 -78l2 -58q0 -46 -23.5 -71t-61.5 -25q-37 0 -60.5 26t-23.5 71q0 86 88 158t247 72q122 0 200 -41q59 -31 87 -97q18 -43 18 -176v-311q0 -131 5 -160.5 t16.5 -39.5t26.5 -10q16 0 28 7q21 13 81 73v-56q-112 -150 -214 -150q-49 0 -78 34t-30 116q-141 -109 -177 -126q-54 -25 -115 -25q-95 0 -156.5 65t-61.5 171zM177 1054l189 331h184l190 -331h-31l-273 213l-229 -213h-30zM241 264q0 -72 43 -119.5t99 -47.5 q76 0 200 100v349q-151 -60 -195 -85q-79 -44 -113 -92t-34 -105z" />
<glyph unicode="&#xe3;" horiz-adv-x="909" d="M73 217q0 67 30 116q41 68 142.5 128t337.5 146v36q0 137 -43.5 188t-126.5 51q-63 0 -100 -34q-38 -34 -38 -78l2 -58q0 -46 -23.5 -71t-61.5 -25q-37 0 -60.5 26t-23.5 71q0 86 88 158t247 72q122 0 200 -41q59 -31 87 -97q18 -43 18 -176v-311q0 -131 5 -160.5 t16.5 -39.5t26.5 -10q16 0 28 7q21 13 81 73v-56q-112 -150 -214 -150q-49 0 -78 34t-30 116q-141 -109 -177 -126q-54 -25 -115 -25q-95 0 -156.5 65t-61.5 171zM139 1097q4 137 57 198t131 61q41 0 75 -13q45 -17 127.5 -71.5t122.5 -54.5q32 0 56.5 27t38.5 112h31 q1 -93 -24.5 -147.5t-72 -85t-93.5 -30.5q-79 0 -196 80q-63 43 -85 52t-43 9q-41 0 -65 -36q-11 -17 -28 -101h-32zM241 264q0 -72 43 -119.5t99 -47.5q76 0 200 100v349q-151 -60 -195 -85q-79 -44 -113 -92t-34 -105z" />
<glyph unicode="&#xe4;" horiz-adv-x="909" d="M73 217q0 67 30 116q41 68 142.5 128t337.5 146v36q0 137 -43.5 188t-126.5 51q-63 0 -100 -34q-38 -34 -38 -78l2 -58q0 -46 -23.5 -71t-61.5 -25q-37 0 -60.5 26t-23.5 71q0 86 88 158t247 72q122 0 200 -41q59 -31 87 -97q18 -43 18 -176v-311q0 -131 5 -160.5 t16.5 -39.5t26.5 -10q16 0 28 7q21 13 81 73v-56q-112 -150 -214 -150q-49 0 -78 34t-30 116q-141 -109 -177 -126q-54 -25 -115 -25q-95 0 -156.5 65t-61.5 171zM173 1228q0 45 31.5 77t76.5 32q46 0 77.5 -32t31.5 -77t-32 -76.5t-76 -31.5q-45 0 -77 31.5t-32 76.5z M241 264q0 -72 43 -119.5t99 -47.5q76 0 200 100v349q-151 -60 -195 -85q-79 -44 -113 -92t-34 -105zM525 1228q0 45 32 77t77 32t76.5 -32t31.5 -77t-31.5 -76.5t-76.5 -31.5t-77 31.5t-32 76.5z" />
<glyph unicode="&#xe5;" horiz-adv-x="909" d="M73 217q0 67 30 116q41 68 142.5 128t337.5 146v36q0 137 -43.5 188t-126.5 51q-63 0 -100 -34q-38 -34 -38 -78l2 -58q0 -46 -23.5 -71t-61.5 -25q-37 0 -60.5 26t-23.5 71q0 86 88 158t247 72q122 0 200 -41q59 -31 87 -97q18 -43 18 -176v-311q0 -131 5 -160.5 t16.5 -39.5t26.5 -10q16 0 28 7q21 13 81 73v-56q-112 -150 -214 -150q-49 0 -78 34t-30 116q-141 -109 -177 -126q-54 -25 -115 -25q-95 0 -156.5 65t-61.5 171zM241 264q0 -72 43 -119.5t99 -47.5q76 0 200 100v349q-151 -60 -195 -85q-79 -44 -113 -92t-34 -105z M267 1235q0 79 55.5 135t135.5 56t136 -56t56 -135q0 -80 -56 -136t-136 -56q-79 0 -135 56t-56 136zM336 1235q0 -50 35.5 -86t86.5 -36t86.5 36t35.5 86q0 51 -35.5 86.5t-86.5 35.5t-86.5 -35.5t-35.5 -86.5z" />
<glyph unicode="&#xe6;" horiz-adv-x="1366" d="M73 201q0 87 43.5 148t170.5 126q156 80 276 122v92q0 108 -40 152.5t-107 44.5q-66 0 -103 -32q-38 -33 -38 -73q0 -84 -8.5 -109t-26.5 -38t-45 -13q-39 0 -60 23q-30 32 -30 72q0 52 36.5 104t115 88t183.5 36q124 0 187 -35.5t83 -87.5q48 60 101 87q71 36 168 36 q144 0 234.5 -97t90.5 -280h-570q-1 -51 -1 -74q0 -201 72 -286t184 -85q97 0 176 61q50 39 107 159l32 -22q-36 -162 -155 -270q-86 -78 -215 -78q-108 0 -185 47q-36 23 -111 113q-12 -9 -55 -43q-58 -47 -78 -58q-47 -27 -100 -43t-109 -16q-94 0 -158.5 66.5 t-64.5 162.5zM241 258q0 -79 47.5 -129t113.5 -50q39 0 82.5 20.5t125.5 84.5q-21 45 -34 117.5t-13 141.5v89q-135 -42 -248 -128q-74 -57 -74 -146zM734 632h378q-2 126 -53.5 183.5t-131.5 57.5t-135.5 -62.5t-57.5 -178.5z" />
<glyph unicode="&#xe7;" horiz-adv-x="909" d="M70 457q0 216 128.5 351t308.5 135q135 0 222 -71.5t87 -148.5q0 -38 -24.5 -61.5t-68.5 -23.5q-59 0 -89 38q-17 21 -22.5 80t-40.5 90q-35 30 -97 30q-100 0 -161 -74q-81 -98 -81 -259q0 -164 80.5 -289.5t217.5 -125.5q98 0 176 67q55 46 107 167l29 -14 q-37 -181 -145 -278.5t-239 -97.5q-156 0 -272 131t-116 354zM296 -340q28 -4 48 -4q51 0 86 33.5t35 76.5q0 30 -23 52t-57 22q-10 0 -26 -2l111 178h60l-50 -79q63 -16 94 -54t31 -92q0 -72 -60 -126.5t-155 -54.5q-37 0 -94 7v43z" />
<glyph unicode="&#xe8;" horiz-adv-x="909" d="M76 446q0 235 120.5 366.5t302.5 131.5q154 0 253 -101.5t99 -271.5h-633q-1 -204 99 -320t235 -116q90 0 156.5 49.5t111.5 169.5l31 -20q-21 -137 -122 -249.5t-253 -112.5q-165 0 -282.5 128.5t-117.5 345.5zM218 629h424q-5 88 -21 124q-25 56 -74.5 88t-103.5 32 q-83 0 -148.5 -64.5t-76.5 -179.5zM285 1390h223l106 -345h-35z" />
<glyph unicode="&#xe9;" horiz-adv-x="909" d="M76 446q0 235 120.5 366.5t302.5 131.5q154 0 253 -101.5t99 -271.5h-633q-1 -204 99 -320t235 -116q90 0 156.5 49.5t111.5 169.5l31 -20q-21 -137 -122 -249.5t-253 -112.5q-165 0 -282.5 128.5t-117.5 345.5zM218 629h424q-5 88 -21 124q-25 56 -74.5 88t-103.5 32 q-83 0 -148.5 -64.5t-76.5 -179.5zM366 1045l105 345h224l-295 -345h-34z" />
<glyph unicode="&#xea;" horiz-adv-x="909" d="M76 446q0 235 120.5 366.5t302.5 131.5q154 0 253 -101.5t99 -271.5h-633q-1 -204 99 -320t235 -116q90 0 156.5 49.5t111.5 169.5l31 -20q-21 -137 -122 -249.5t-253 -112.5q-165 0 -282.5 128.5t-117.5 345.5zM214 1054l189 331h184l190 -331h-31l-273 213l-229 -213 h-30zM218 629h424q-5 88 -21 124q-25 56 -74.5 88t-103.5 32q-83 0 -148.5 -64.5t-76.5 -179.5z" />
<glyph unicode="&#xeb;" horiz-adv-x="909" d="M76 446q0 235 120.5 366.5t302.5 131.5q154 0 253 -101.5t99 -271.5h-633q-1 -204 99 -320t235 -116q90 0 156.5 49.5t111.5 169.5l31 -20q-21 -137 -122 -249.5t-253 -112.5q-165 0 -282.5 128.5t-117.5 345.5zM210 1228q0 45 31.5 77t76.5 32q46 0 77.5 -32t31.5 -77 t-32 -76.5t-76 -31.5q-45 0 -77 31.5t-32 76.5zM218 629h424q-5 88 -21 124q-25 56 -74.5 88t-103.5 32q-83 0 -148.5 -64.5t-76.5 -179.5zM562 1228q0 45 32 77t77 32t76.5 -32t31.5 -77t-31.5 -76.5t-76.5 -31.5t-77 31.5t-32 76.5z" />
<glyph unicode="&#xec;" horiz-adv-x="569" d="M60 831l276 112h43v-736q0 -86 13 -114.5t37.5 -42.5t89.5 -14v-36h-445v36q67 0 90 13t36.5 43t13.5 115v353q0 149 -9 193q-7 32 -22 44.5t-41 12.5q-28 0 -68 -15zM78 1390h223l106 -345h-35z" />
<glyph unicode="&#xed;" horiz-adv-x="569" d="M60 831l276 112h43v-736q0 -86 13 -114.5t37.5 -42.5t89.5 -14v-36h-445v36q67 0 90 13t36.5 43t13.5 115v353q0 149 -9 193q-7 32 -22 44.5t-41 12.5q-28 0 -68 -15zM170 1045l105 345h224l-295 -345h-34z" />
<glyph unicode="&#xee;" horiz-adv-x="569" d="M14 1054l189 331h184l190 -331h-31l-273 213l-229 -213h-30zM60 831l276 112h43v-736q0 -86 13 -114.5t37.5 -42.5t89.5 -14v-36h-445v36q67 0 90 13t36.5 43t13.5 115v353q0 149 -9 193q-7 32 -22 44.5t-41 12.5q-28 0 -68 -15z" />
<glyph unicode="&#xef;" horiz-adv-x="569" d="M3 1228q0 45 31.5 77t76.5 32q46 0 77.5 -32t31.5 -77t-32 -76.5t-76 -31.5q-45 0 -77 31.5t-32 76.5zM60 831l276 112h43v-736q0 -86 13 -114.5t37.5 -42.5t89.5 -14v-36h-445v36q67 0 90 13t36.5 43t13.5 115v353q0 149 -9 193q-7 32 -22 44.5t-41 12.5q-28 0 -68 -15z M355 1228q0 45 32 77t77 32t76.5 -32t31.5 -77t-31.5 -76.5t-76.5 -31.5t-77 31.5t-32 76.5z" />
<glyph unicode="&#xf0;" horiz-adv-x="1024" d="M68 441q0 211 138 365q118 129 282 129q49 0 88 -13q31 -10 81 -46q-80 165 -188 293l-247 -135l-30 55l233 132q-66 67 -99.5 94.5t-88.5 63.5l27 43q120 -60 247 -155l249 139l34 -55l-229 -130q190 -165 287 -363.5t97 -383.5q0 -139 -57.5 -255.5t-161.5 -181.5 t-231 -65q-179 0 -305 133.5t-126 335.5zM253 518q0 -136 40.5 -250.5t109.5 -170t144 -55.5q91 0 154 79t63 256q0 225 -79 361t-206 136q-96 0 -161 -81t-65 -275z" />
<glyph unicode="&#xf1;" horiz-adv-x="1024" d="M12 831l276 112h43v-194q161 194 307 194q75 0 129 -37.5t86 -123.5q22 -60 22 -184v-391q0 -87 14 -118q11 -25 35.5 -39t90.5 -14v-36h-453v36h19q64 0 89.5 19.5t35.5 57.5q4 15 4 94v375q0 125 -32.5 181.5t-109.5 56.5q-119 0 -237 -130v-483q0 -93 11 -115 q14 -29 38.5 -42.5t99.5 -13.5v-36h-453v36h20q70 0 94.5 35.5t24.5 135.5v340q0 165 -7.5 201t-23 49t-41.5 13q-28 0 -67 -15zM193 1097q4 137 57 198t131 61q41 0 75 -13q45 -17 127.5 -71.5t122.5 -54.5q32 0 56.5 27t38.5 112h31q1 -93 -24.5 -147.5t-72 -85 t-93.5 -30.5q-79 0 -196 80q-63 43 -85 52t-43 9q-41 0 -65 -36q-11 -17 -28 -101h-32z" />
<glyph unicode="&#xf2;" horiz-adv-x="1024" d="M69 449q0 126 62.5 250.5t164.5 184t216 59.5q208 0 334 -158q107 -135 107 -310q0 -123 -59 -249t-162.5 -190t-230.5 -64q-207 0 -329 165q-103 139 -103 312zM255 533q0 -200 79.5 -345t209.5 -145q97 0 160 80t63 275q0 244 -105 384q-71 96 -181 96 q-53 0 -106.5 -31.5t-86.5 -110.5t-33 -203zM301 1390h223l106 -345h-35z" />
<glyph unicode="&#xf3;" horiz-adv-x="1024" d="M69 449q0 126 62.5 250.5t164.5 184t216 59.5q208 0 334 -158q107 -135 107 -310q0 -123 -59 -249t-162.5 -190t-230.5 -64q-207 0 -329 165q-103 139 -103 312zM255 533q0 -200 79.5 -345t209.5 -145q97 0 160 80t63 275q0 244 -105 384q-71 96 -181 96 q-53 0 -106.5 -31.5t-86.5 -110.5t-33 -203zM394 1045l105 345h224l-295 -345h-34z" />
<glyph unicode="&#xf4;" horiz-adv-x="1024" d="M69 449q0 126 62.5 250.5t164.5 184t216 59.5q208 0 334 -158q107 -135 107 -310q0 -123 -59 -249t-162.5 -190t-230.5 -64q-207 0 -329 165q-103 139 -103 312zM242 1054l189 331h184l190 -331h-31l-273 213l-229 -213h-30zM255 533q0 -200 79.5 -345t209.5 -145 q97 0 160 80t63 275q0 244 -105 384q-71 96 -181 96q-53 0 -106.5 -31.5t-86.5 -110.5t-33 -203z" />
<glyph unicode="&#xf5;" horiz-adv-x="1024" d="M69 449q0 126 62.5 250.5t164.5 184t216 59.5q208 0 334 -158q107 -135 107 -310q0 -123 -59 -249t-162.5 -190t-230.5 -64q-207 0 -329 165q-103 139 -103 312zM192 1097q4 137 57 198t131 61q41 0 75 -13q45 -17 127.5 -71.5t122.5 -54.5q32 0 56.5 27t38.5 112h31 q1 -93 -24.5 -147.5t-72 -85t-93.5 -30.5q-79 0 -196 80q-63 43 -85 52t-43 9q-41 0 -65 -36q-11 -17 -28 -101h-32zM255 533q0 -200 79.5 -345t209.5 -145q97 0 160 80t63 275q0 244 -105 384q-71 96 -181 96q-53 0 -106.5 -31.5t-86.5 -110.5t-33 -203z" />
<glyph unicode="&#xf6;" horiz-adv-x="1024" d="M69 449q0 126 62.5 250.5t164.5 184t216 59.5q208 0 334 -158q107 -135 107 -310q0 -123 -59 -249t-162.5 -190t-230.5 -64q-207 0 -329 165q-103 139 -103 312zM226 1228q0 45 31.5 77t76.5 32q46 0 77.5 -32t31.5 -77t-32 -76.5t-76 -31.5q-45 0 -77 31.5t-32 76.5z M255 533q0 -200 79.5 -345t209.5 -145q97 0 160 80t63 275q0 244 -105 384q-71 96 -181 96q-53 0 -106.5 -31.5t-86.5 -110.5t-33 -203zM578 1228q0 45 32 77t77 32t76.5 -32t31.5 -77t-31.5 -76.5t-76.5 -31.5t-77 31.5t-32 76.5z" />
<glyph unicode="&#xf7;" horiz-adv-x="1124" d="M23 640v82h1078v-82h-1078zM474 367q0 36 25.5 62t62.5 26t62.5 -26t25.5 -62t-26 -62t-62 -26t-62 26t-26 62zM474 988q0 36 25.5 61.5t62.5 25.5q36 0 61.5 -25.5t25.5 -61.5t-25.5 -61.5t-62.5 -25.5q-36 0 -61.5 25.5t-25.5 61.5z" />
<glyph unicode="&#xf8;" horiz-adv-x="1024" d="M39 -24l141 159q-50 62 -78 152t-28 168q0 119 60.5 240t162.5 184.5t224 63.5q82 0 148.5 -26t136.5 -85l133 147l46 -43l-135 -152q106 -135 106 -312q0 -118 -58 -244.5t-160.5 -191t-230.5 -64.5q-83 0 -147 25.5t-139 88.5l-135 -153zM260 532q0 -124 39 -262 l405 449q-51 89 -100.5 123.5t-115.5 34.5q-98 0 -163 -80t-65 -265zM329 204q51 -92 100 -126.5t118 -34.5q99 0 161.5 80t62.5 279q0 121 -39 252z" />
<glyph unicode="&#xf9;" horiz-adv-x="1024" d="M2 879v37h321v-613q0 -128 44.5 -168t107.5 -40q43 0 97.5 27t129.5 103v519q0 78 -28.5 105.5t-118.5 29.5v37h312v-555q0 -159 7.5 -194.5t24 -49.5t38.5 -14q31 0 70 17l14 -35l-274 -113h-45v194q-118 -128 -180 -161t-131 -33q-77 0 -133.5 44.5t-78.5 114.5 t-22 198v409q0 65 -14 90t-41.5 38.5t-99.5 12.5zM307 1390h223l106 -345h-35z" />
<glyph unicode="&#xfa;" horiz-adv-x="1024" d="M2 879v37h321v-613q0 -128 44.5 -168t107.5 -40q43 0 97.5 27t129.5 103v519q0 78 -28.5 105.5t-118.5 29.5v37h312v-555q0 -159 7.5 -194.5t24 -49.5t38.5 -14q31 0 70 17l14 -35l-274 -113h-45v194q-118 -128 -180 -161t-131 -33q-77 0 -133.5 44.5t-78.5 114.5 t-22 198v409q0 65 -14 90t-41.5 38.5t-99.5 12.5zM370 1045l105 345h224l-295 -345h-34z" />
<glyph unicode="&#xfb;" horiz-adv-x="1024" d="M2 879v37h321v-613q0 -128 44.5 -168t107.5 -40q43 0 97.5 27t129.5 103v519q0 78 -28.5 105.5t-118.5 29.5v37h312v-555q0 -159 7.5 -194.5t24 -49.5t38.5 -14q31 0 70 17l14 -35l-274 -113h-45v194q-118 -128 -180 -161t-131 -33q-77 0 -133.5 44.5t-78.5 114.5 t-22 198v409q0 65 -14 90t-41.5 38.5t-99.5 12.5zM234 1054l189 331h184l190 -331h-31l-273 213l-229 -213h-30z" />
<glyph unicode="&#xfc;" horiz-adv-x="1024" d="M2 879v37h321v-613q0 -128 44.5 -168t107.5 -40q43 0 97.5 27t129.5 103v519q0 78 -28.5 105.5t-118.5 29.5v37h312v-555q0 -159 7.5 -194.5t24 -49.5t38.5 -14q31 0 70 17l14 -35l-274 -113h-45v194q-118 -128 -180 -161t-131 -33q-77 0 -133.5 44.5t-78.5 114.5 t-22 198v409q0 65 -14 90t-41.5 38.5t-99.5 12.5zM226 1228q0 45 31.5 77t76.5 32q46 0 77.5 -32t31.5 -77t-32 -76.5t-76 -31.5q-45 0 -77 31.5t-32 76.5zM578 1228q0 45 32 77t77 32t76.5 -32t31.5 -77t-31.5 -76.5t-76.5 -31.5t-77 31.5t-32 76.5z" />
<glyph unicode="&#xfd;" horiz-adv-x="1024" d="M12 879v37h427v-37h-21q-45 0 -67.5 -19.5t-22.5 -48.5q0 -39 33 -108l223 -462l205 506q17 41 17 81q0 18 -7 27q-8 11 -25 17.5t-60 6.5v37h298v-37q-37 -4 -57 -16t-44 -45q-9 -14 -34 -77l-373 -914q-54 -133 -141.5 -201t-168.5 -68q-59 0 -97 34t-38 78 q0 42 27.5 67.5t75.5 25.5q33 0 90 -22q40 -15 50 -15q30 0 65.5 31t71.5 120l65 159l-329 691q-15 31 -48 77q-25 35 -41 47q-23 16 -74 28zM403 1045l105 345h224l-295 -345h-34z" />
<glyph unicode="&#xfe;" horiz-adv-x="1024" d="M-7 -399l25 -1q55 -1 94 21q19 11 29.5 35.5t10.5 123.5v1349q0 89 -8 113.5t-25.5 36.5t-47.5 12q-24 0 -61 -15l-12 32l282 114h38v-697q71 121 142.5 169.5t150.5 48.5q138 0 230 -108q113 -132 113 -344q0 -237 -136 -392q-112 -127 -282 -127q-74 0 -128 21 q-40 15 -90 60v-279q0 -93 11.5 -118t40 -40t103.5 -15v-38h-480v38zM318 324q0 -111 9 -146q14 -58 68.5 -102t137.5 -44q100 0 162 78q81 102 81 287q0 210 -92 323q-64 78 -152 78q-48 0 -95 -24q-36 -18 -119 -108v-342z" />
<glyph unicode="&#xff;" horiz-adv-x="1024" d="M12 879v37h427v-37h-21q-45 0 -67.5 -19.5t-22.5 -48.5q0 -39 33 -108l223 -462l205 506q17 41 17 81q0 18 -7 27q-8 11 -25 17.5t-60 6.5v37h298v-37q-37 -4 -57 -16t-44 -45q-9 -14 -34 -77l-373 -914q-54 -133 -141.5 -201t-168.5 -68q-59 0 -97 34t-38 78 q0 42 27.5 67.5t75.5 25.5q33 0 90 -22q40 -15 50 -15q30 0 65.5 31t71.5 120l65 159l-329 691q-15 31 -48 77q-25 35 -41 47q-23 16 -74 28zM264 1228q0 45 31.5 77t76.5 32q46 0 77.5 -32t31.5 -77t-32 -76.5t-76 -31.5q-45 0 -77 31.5t-32 76.5zM616 1228q0 45 32 77 t77 32t76.5 -32t31.5 -77t-31.5 -76.5t-76.5 -31.5t-77 31.5t-32 76.5z" />
<glyph unicode="&#x152;" horiz-adv-x="1821" d="M75 676q0 258 141 455q169 237 493 237q23 0 194 -7q140 -5 267 -5h473l12 -298h-32q-24 118 -43 149q-25 40 -77 62q-33 13 -143 13h-256v-535h183q115 0 163 47.5t47 148.5h39v-472h-39q-9 123 -51 162.5t-159 39.5h-183v-448q0 -80 10 -104t33 -37q15 -8 77 -8h104 q120 0 167.5 13t98.5 59q75 68 129 192h40l-108 -340h-485q-141 0 -171 -1q-12 0 -167 -9q-108 -6 -145 -6q-169 0 -308.5 85.5t-221.5 250t-82 356.5zM305 668q0 -155 42 -301t135.5 -229t226.5 -83q76 0 122 25.5t63.5 71.5t17.5 188v702q0 130 -18.5 171.5t-53.5 61.5 q-50 29 -127 29q-124 0 -218.5 -73t-142 -223.5t-47.5 -339.5z" />
<glyph unicode="&#x153;" horiz-adv-x="1479" d="M67 443q0 229 123.5 364.5t299.5 135.5q107 0 186 -44t126 -114q59 85 124 122t159 37q147 0 239 -99t87 -272h-548q-2 -25 -2 -38q0 -94 33.5 -196t99.5 -152t145 -50q80 0 141.5 51t97.5 167l33 -17q-36 -193 -125.5 -279.5t-214.5 -86.5q-97 0 -165.5 47t-103.5 114 q-62 -80 -141.5 -120.5t-176.5 -40.5q-176 0 -296.5 128.5t-120.5 342.5zM254 539q0 -258 102 -406q62 -90 153 -90q89 0 147.5 74t58.5 261q0 233 -67.5 371.5t-194.5 138.5q-36 0 -85.5 -26.5t-76.5 -90.5q-37 -83 -37 -232zM863 638h351q1 70 -24 134q-18 48 -61 76.5 t-90 28.5q-67 0 -118.5 -60t-57.5 -179z" />
<glyph unicode="&#x160;" horiz-adv-x="1139" d="M128 1030q0 146 112 251.5t285 105.5q108 0 229 -53q56 -25 79 -25q26 0 42.5 15.5t26.5 62.5h37v-469h-37q-18 135 -64.5 215t-132.5 127t-178 47q-104 0 -172 -63.5t-68 -144.5q0 -62 43 -113q62 -75 295 -200q190 -102 259.5 -156.5t107 -128.5t37.5 -155 q0 -154 -119.5 -265.5t-307.5 -111.5q-59 0 -111 9q-31 5 -128.5 36.5t-123.5 31.5q-25 0 -39.5 -15t-21.5 -62h-37v465h37q26 -146 70 -218.5t134.5 -120.5t198.5 -48q125 0 197.5 66t72.5 156q0 50 -27.5 101t-85.5 95q-39 30 -213 127.5t-247.5 155.5t-111.5 128t-38 154 zM283 1793h31l273 -212l229 212h30l-189 -331h-184z" />
<glyph unicode="&#x161;" horiz-adv-x="797" d="M100 678q0 113 77.5 189t200.5 76q54 0 131 -23q51 -15 68 -15q16 0 25 7t21 31h33v-312h-33q-38 147 -97.5 200t-151.5 53q-70 0 -113 -37t-43 -82q0 -56 32 -96q31 -41 126 -87l146 -71q203 -99 203 -261q0 -125 -94.5 -201.5t-211.5 -76.5q-84 0 -192 30 q-33 10 -54 10q-23 0 -36 -26h-33v327h33q28 -140 107 -211t177 -71q69 0 112.5 40.5t43.5 97.5q0 69 -48.5 116t-193.5 119t-190 130q-45 57 -45 144zM117 1385h31l273 -212l229 212h30l-189 -331h-184z" />
<glyph unicode="&#x178;" horiz-adv-x="1479" d="M19 1319v37h580v-37h-30q-47 0 -86.5 -22t-39.5 -66q0 -36 61 -130l283 -437l266 418q60 94 60 140q0 28 -14.5 50t-41.5 34.5t-81 12.5v37h473v-37h-26q-26 0 -76 -23t-91 -66t-101 -140l-327 -515v-340q0 -125 28 -156q38 -42 120 -42h44v-37h-576v37h48q86 0 122 52 q22 32 22 146v321l-372 568q-66 100 -89.5 125t-97.5 60q-20 10 -58 10zM475 1599q0 45 31.5 77t76.5 32q46 0 77.5 -32t31.5 -77t-32 -76.5t-76 -31.5q-45 0 -77 31.5t-32 76.5zM827 1599q0 45 32 77t77 32t76.5 -32t31.5 -77t-31.5 -76.5t-76.5 -31.5t-77 31.5t-32 76.5z " />
<glyph unicode="&#x17d;" horiz-adv-x="1251" d="M26 0v37l870 1238h-434q-108 0 -156.5 -23.5t-74 -68t-46.5 -166.5h-38l28 339h1003l-891 -1274h556q128 0 196.5 56t121.5 227l33 -6l-64 -359h-1104zM360 1793h31l273 -212l229 212h30l-189 -331h-184z" />
<glyph unicode="&#x17e;" horiz-adv-x="909" d="M41 0v36l608 810h-300q-97 0 -127 -12.5t-49 -47.5q-27 -50 -31 -124h-40l6 254h768v-37l-614 -812h334q105 0 142.5 17.5t60.5 61.5q16 32 27 135h34l-11 -281h-808zM189 1385h31l273 -212l229 212h30l-189 -331h-184z" />
<glyph unicode="&#x192;" horiz-adv-x="1024" d="M2 -326q0 39 23.5 64t53.5 25q26 0 45.5 -18t19.5 -38q0 -22 -14 -38q-10 -12 -10 -19q0 -8 7 -14.5t18 -6.5q20 0 37 10q30 17 59 64t60 177q6 22 86 415q7 35 123 514h-177l15 66q99 7 124.5 15.5t42.5 31.5q26 34 60 134q73 212 140 272q66 59 147 59q62 0 99.5 -33 t37.5 -79q0 -35 -20 -56t-48 -21q-26 0 -44.5 17.5t-18.5 38.5q0 16 11 34.5t11 26.5q0 11 -9 19q-9 7 -26 7q-32 0 -58 -24q-35 -33 -46 -84q-27 -121 -64 -358h178l-17 -66h-174q-52 -269 -172 -708q-94 -341 -205 -449q-84 -83 -173 -83q-56 0 -89 30.5t-33 74.5z" />
<glyph unicode="&#x2c6;" horiz-adv-x="682" d="M60 1054l189 331h184l190 -331h-31l-273 213l-229 -213h-30z" />
<glyph unicode="&#x2dc;" horiz-adv-x="682" d="M22 1097q4 137 57 198t131 61q41 0 75 -13q45 -17 127.5 -71.5t122.5 -54.5q32 0 56.5 27t38.5 112h31q1 -93 -24.5 -147.5t-72 -85t-93.5 -30.5q-79 0 -196 80q-63 43 -85 52t-43 9q-41 0 -65 -36q-11 -17 -28 -101h-32z" />
<glyph unicode="&#x1000;" horiz-adv-x="1928" d="M122 447q0 193 137 329t329 136q194 0 329 -136q33 -35 59 -71q24 36 58 71q137 136 329 136q194 0 330 -136t136 -329q0 -195 -136 -331t-330 -136q-142 0 -256 76l80 135q77 -56 176 -56q129 0 220 91.5t91 220.5q0 125 -91 216.5t-220 91.5t-219 -91q-90 -90 -90 -215 v-10v-7l-2 -47l-9 -50l-13 -47l-9 -22l-23 -47l-22 -32q-26 -39 -59 -70q-81 -83 -184 -117l-53 148q70 24 126 80q91 90 91 219q0 125 -90.5 216.5t-218.5 91.5t-218.5 -91.5t-90.5 -216.5q0 -129 91 -219q45 -45 99 -69l-50 -150q-88 36 -163 108q-134 135 -134 330z" />
<glyph unicode="&#x1001;" horiz-adv-x="1016" d="M67 309q0 95 69 164.5t168 69.5q100 0 169.5 -69.5t69.5 -164.5q0 -90 -61 -156q126 2 212 88q93 90 93 217q0 125 -91.5 214t-220.5 89q-108 0 -189 -63l-110 108q125 108 299 108q192 0 329.5 -133.5t137.5 -322.5q0 -190 -137.5 -324t-329.5 -134q-187 0 -322 129 q-9 6 -18 13q-68 70 -68 167zM207 316q0 -41 29.5 -71t70.5 -30q42 0 71.5 30t29.5 71q0 40 -29.5 69.5t-71.5 29.5q-41 0 -70.5 -29.5t-29.5 -69.5z" />
<glyph unicode="&#x1002;" horiz-adv-x="1176" d="M120 426q0 193 136 329.5t329 136.5t330 -136.5t137 -329.5q0 -192 -138 -329q-87 -86 -196 -117l-54 149q80 17 138 80q92 90 92 217q0 131 -90 221t-219 90q-127 0 -217.5 -90t-90.5 -221q0 -127 88 -217q61 -63 142 -80l-56 -149q-109 31 -197 117q-134 137 -134 329z " />
<glyph unicode="&#x1003;" horiz-adv-x="1980" d="M122 473l7 75l36 54l37 8h21l29 -2q30 -11 66 -11q86 0 101 93q13 97 -68 112l-99 -18l-65 -34l-52 122q95 67 230 67q86 0 144 -64q56 -129 56 -170q0 -155 -126 -209q-45 -32 -171 -32q0 -165 119 -247q64 -43 95 -52q25 -14 99 -14l66 8l63 24q53 17 105 65 q97 85 97 221q0 126 -58 198q-43 56 -169 128q48 91 48 119l-10 6q152 -37 257.5 -163.5t98.5 -274.5v-69l-11 -57l-16 -32q18 -83 124 -146q79 -45 165 -45q123 0 221 99t98 226q0 139 -83 234q-90 103 -225 95l-84 -5l-32 -19l-82 123q69 53 198 53q209 0 341 -123.5 t132 -333.5q0 -214 -144 -358t-359 -144q-189 0 -367 185q-22 -34 -80 -75q-181 -90 -284 -90q-221 0 -350 124q-135 130 -119 349z" />
<glyph unicode="&#x1004;" horiz-adv-x="1115" d="M120 447q0 193 136 329t329 136t329 -136q79 -82 113 -179l-155 -16q-21 36 -70 83q-88 91 -217 91q-127 0 -217.5 -91.5t-90.5 -216.5q0 -129 90.5 -220.5t217.5 -91.5q129 0 217 93q47 47 73 81l152 -14q-34 -99 -113 -178q-136 -137 -329 -137t-329 136t-136 331z" />
<glyph unicode="&#x1005;" horiz-adv-x="1146" d="M97 443q4 213 135 343.5t344 127.5q185 -4 318 -145t129 -328q-4 -191 -139.5 -327t-326.5 -129q-192 2 -325 137l-103 146l-23 81zM241 451q0 -116 124 -116q115 -4 115 120q4 115 -119 117q-118 2 -120 -121zM404 185q76 -54 164 -54q119 -2 216 98t99 220 q3 134 -83 223t-221 91q-95 0 -166 -45q92 -11 155 -97q51 -69 62 -168q-2 -225 -226 -268z" />
<glyph unicode="&#x1006;" horiz-adv-x="1863" d="M120 277q0 99 72 171t173 72q104 0 174.5 -69.5t70.5 -173.5q0 -81 -47 -142q104 0 178 88q61 72 84 181v2v47q0 31 2 63q-10 88 -88 153q-97 81 -217 81q-124 0 -211 -79l-99 127q130 114 324 114q223 0 363 -205q27 41 60 77q138 136 332 136q192 0 328 -137.5 t136 -329.5q0 -191 -136 -328.5t-328 -137.5q-194 0 -332 137q-26 24 -47 56l-7 -11q-38 -61 -247 -169l-160 -20q-152 0 -257 70q-121 83 -121 227zM252 277q0 -43 32 -79t77 -36q97 0 114 109q0 92 -108 114l-79 -34zM982 488q3 -39 3 -84q11 -97 85 -170q90 -90 221 -90 q126 0 216 90t90 219q0 128 -90 218t-216 90q-131 0 -221 -90q-77 -76 -88 -183z" />
<glyph unicode="&#x1007;" horiz-adv-x="1288" d="M174 455q0 196 133.5 331.5t332.5 135.5q183 0 329 -131q108 -97 108 -248q0 -57 -36 -124q74 -106 83 -140l-108 -67q-16 11 -32.5 38t-41.5 59q-72 -45 -172 -45q-101 0 -185 52q-94 56 -94 148q0 34 12 67q49 136 211 136q113 0 221 -110q-13 88 -56 126 q-109 93 -237 93q-133 0 -229.5 -94t-96.5 -227q0 -139 96.5 -232.5t238.5 -93.5q99 0 160 43q6 6 14 11l78 -118l-4 -4q-95 -74 -254 -74q-196 0 -333.5 134.5t-137.5 333.5zM638 473q0 -38 69 -58q84 -28 151 11q-80 101 -148 101q-72 0 -72 -54z" />
<glyph unicode="&#x1008;" horiz-adv-x="1428" d="M97 443q4 213 135 343.5t344 127.5q185 -4 318 -145t129 -328q-4 -191 -140 -329q-34 -31 -72 -58l2 -662l309 -82v1595h142v-1689q0 -70 -63 -70q-27 0 -34 7l-449 119q-47 14 -47 66l-2 655q-54 -11 -112 -8q-192 2 -325 137l-103 146l-23 81zM241 451q0 -116 124 -116 q115 -4 115 120q4 115 -119 117q-118 2 -120 -121zM404 185q76 -54 164 -54q119 -2 216 98t99 220q3 134 -83 223t-221 91q-95 0 -166 -45q92 -11 155 -97q51 -69 62 -168q-2 -225 -226 -268z" />
<glyph unicode="&#x1009;" horiz-adv-x="1863" d="M120 223l119 110q25 -56 72 -105q91 -93 218 -93q129 0 219 91.5t90 220.5q0 125 -90 216.5t-219 91.5q-127 0 -218 -91q-47 -49 -72 -105l-119 110q31 59 80 107q135 136 329 136t330.5 -136t136.5 -329q0 -129 -79 -260q-25 -39 -59 -70q-135 -137 -329 -137 q-142 0 -252 72l-2 -480q0 -115 71 -194t185 -79h834q104 0 182 77.5t82 182.5l2 116h136l4 -116q11 -178 -107 -288.5t-299 -110.5h-834q-177 0 -288.5 117t-111.5 295v630q-7 10 -11 21z" />
<glyph unicode="&#x100a;" horiz-adv-x="1863" d="M120 669q31 59 80 107q135 136 329 136t330.5 -136t136.5 -329q0 -129 90 -220.5t221 -91.5q126 0 216 91.5t90 220.5q0 125 -90 216.5t-216 91.5q-111 0 -192 -65l-85 133q118 89 277 89q193 0 328.5 -136t135.5 -329q0 -195 -135.5 -331t-328.5 -136q-194 0 -331 137 q-34 31 -59 70q-25 -39 -59 -70q-135 -137 -329 -137q-142 0 -252 72l-2 -480q0 -115 71 -194t185 -79l834 -4q104 0 182 74t82 180l2 118h136l4 -118q11 -177 -107 -287.5t-299 -110.5l-834 9q-177 0 -288.5 117t-111.5 295v630q-7 10 108 131q25 -56 72 -105 q91 -93 218 -93q129 0 219 91.5t90 220.5q0 125 -90 216.5t-219 91.5q-127 0 -218 -91q-47 -49 -72 -105z" />
<glyph unicode="&#x100b;" horiz-adv-x="1243" d="M189 475q0 208 137.5 349t342.5 141q228 0 383 -189q23 -26 27 -46l-103 -88q-17 9 -28 27q-78 137 -277 137q-142 0 -240 -94.5t-98 -236.5q0 -140 98 -241t238 -101q167 0 266 119l39 23h58l56 -54v-277l-20 -41q-129 -99 -182 -129q-97 -49 -217 -45q-168 0 -282 71 v-75q129 -74 288 -76q170 -5 233 44l83 66l97 -45v-402h133h13v-150h-13h-230l-49 56v324q-106 -49 -269 -45q-222 5 -405 129l-27 45v316l105 43q134 -152 325 -154q116 -5 271 115l4 61q-101 -67 -277 -67q-200 0 -340 145t-140 345z" />
<glyph unicode="&#x100c;" horiz-adv-x="1251" d="M200 -570q0 95 28 146q73 156 238 156q77 0 153 -39q50 -22 73 -56l-90 -110q-5 4 -11 9q-50 47 -116 47q-62 0 -101 -39.5t-39 -104.5q0 -50 21 -95q18 -32 36 -32h363q101 0 134 40t33 141v568q-113 -79 -262 -79q-196 0 -329 147q-126 137 -126 337q0 201 126.5 338.5 t328.5 137.5q219 0 354 -172l33 -42l7 -10l-119 -88q-4 10 -9 21q-115 147 -266 147q-142 0 -230 -95t-88 -237q0 -137 90 -237t228 -100q165 0 239 110q21 29 56 29q36 0 72.5 -33t36.5 -68v-674q0 -327 -309 -327h-363q-192 0 -192 264z" />
<glyph unicode="&#x100d;" horiz-adv-x="1305" d="M215 -103v318l51 51h58l39 -23q95 -114 256 -114q138 0 230.5 97.5t92.5 237.5q0 142 -90.5 238t-232.5 96q-88 0 -153 -54q-31 -30 -128 -106q-3 -6 -5 -8l-103 100q174 212 389 212h9q199 0 327 -139t128 -339q0 -198 -133 -341t-331 -143q-150 0 -263 76v-112 q70 -54 118 -68t141 -9q144 9 284 118l88 -52l9 -621h135h15v-139q-9 -2 -15 -2h-223l-52 49l-9 557q-129 -59 -271 -59q-166 0 -275 86l-64 50z" />
<glyph unicode="&#x100e;" horiz-adv-x="1223" d="M124 518l144 41q88 22 88 116q-12 84 -77 80l-62 -5l-39 -20l-41 153q41 22 125 31l80 -11q107 -41 135 -119q17 -27 24 -90l4 -41q11 -184 -223 -251q67 -152 133 -211q83 -67 236 -67q131 0 219.5 107t88.5 242l-4 60q-95 195 -185 228l73 147q283 -158 283 -414 q0 -199 -126 -350q-130 -164 -322 -164q-461 0 -545 416q-21 100 -9 122z" />
<glyph unicode="&#x100f;" horiz-adv-x="2440" d="M178 458q0 148 84 263q144 201 394 201q189 0 356 -116q67 125 209 125q140 0 205 -129q29 18 49 34q133 92 294 92q258 0 409 -207q86 -117 86 -270q0 -255 -216 -397q-126 -82 -279 -82q-77 0 -144 21l49 142q16 -2 31 -6q41 -9 64 -9q108 0 196 54q148 94 148 277 q0 99 -63 187q-101 140 -266 140q-139 0 -281 -103q-5 -8 -50 -67v-2l-4 -25q-43 -72 -43 -140q0 -71 45 -146l2 -20v-70q0 -97 -68.5 -163.5t-163.5 -66.5q-97 0 -166.5 66.5t-69.5 163.5v72l4 18q43 77 43 156q0 56 -43 134l-4 19q-9 15 -41 63q-11 13 -65 49 q-95 62 -210 62q-178 0 -282 -140q-56 -79 -56 -180q0 -176 144 -271q99 -65 215 -65q15 0 51.5 7.5t53.5 7.5q7 0 16 -2l25 -133q-47 -27 -146 -27q-157 0 -301 92q-211 138 -211 391zM1137 205q0 -33 24 -59t60 -26q34 0 57.5 26t23.5 59v45q-51 88 -51 191q0 95 51 187 v75q0 34 -25.5 57.5t-55.5 23.5q-34 0 -59 -23.5t-25 -57.5v-75q43 -95 43 -177q0 -109 -43 -199v-47z" />
<glyph unicode="&#x1010;" horiz-adv-x="1933" d="M122 447q0 193 137 329t329 136q194 0 329 -136q33 -35 59 -71q24 36 58 71q137 136 329 136q194 0 330 -136t136 -329q0 -195 -136 -331t-330 -136h-5l-23 157q15 -2 28 -2q129 0 220 91.5t91 220.5q0 125 -91 216.5t-220 91.5t-219 -91q-90 -90 -90 -217 q0 -195 -136 -331t-330 -136q-192 0 -329 136t-137 331zM279 447q0 -129 90.5 -220.5t218.5 -91.5t218.5 91.5t90.5 220.5q0 125 -90.5 216.5t-218.5 91.5t-218.5 -91.5t-90.5 -216.5z" />
<glyph unicode="&#x1011;" horiz-adv-x="1935" d="M120 447q0 193 136 329t329 136t329 -136q32 -32 57 -69q25 37 56 69q138 136 331 136q192 0 329.5 -136t137.5 -329q0 -195 -137.5 -331t-329.5 -136q-193 0 -331 137q-31 29 -56 68q-25 -39 -57 -68q-136 -137 -329 -137t-329 136t-136 331zM277 447 q0 -129 90.5 -220.5t217.5 -91.5q129 0 217 93q79 76 90 182q2 33 0 72q-11 103 -90 182q-88 91 -217 91q-127 0 -217.5 -91.5t-90.5 -216.5zM1049 410q12 -106 88 -182q91 -93 221 -93q129 0 219.5 91.5t90.5 220.5q0 125 -90.5 216.5t-219.5 91.5q-130 0 -221 -91 q-76 -79 -88 -182q-2 -39 0 -72z" />
<glyph unicode="&#x1012;" horiz-adv-x="1135" d="M133 304l144 38q108 -218 306 -218q97 0 180 61q-99 11 -164 86q-66 114 -66 178q0 84 72.5 163.5t157.5 88.5q-118 56 -180 56q-99 0 -182 -54t-115 -144l-149 45q50 135 175 222.5t269 87.5q129 0 286 -87q120 -86 160 -217l5 -27q0 -82 -99 -82l-75 30q-31 23 -60 23 q-54 -11 -80 -36q-11 -22 -24 -52q-2 -8 -7 -17q0 -45 31.5 -79.5t76.5 -34.5q18 0 66.5 26t69.5 26q94 0 94 -88l-9 -45q-133 -279 -433 -279q-164 0 -282 86.5t-168 242.5z" />
<glyph unicode="&#x1013;" horiz-adv-x="1146" d="M95 437q-5 191 132.5 331t326.5 142q194 2 333.5 -131.5t142.5 -331.5q2 -195 -129 -339l-146 -110l-80 -26l-94 -11q-214 -2 -349 129t-137 347zM243 447q0 -101 50 -170q8 95 92 160q73 59 172 72q225 7 277 -227q49 81 47 173q0 121 -106 217t-223 94 q-137 -3 -224 -93t-85 -226zM441 228q2 -120 127 -120q115 2 112 131q0 117 -123 115q-118 0 -116 -126z" />
<glyph unicode="&#x1014;" horiz-adv-x="1294" d="M185 268q0 108 75 184.5t183 76.5q93 0 202 -74q139 -99 168 -315q120 29 120 131q0 112 -108 184q-25 14 -197 61q-213 56 -213 221q0 92 66.5 150.5t163.5 58.5q78 0 105.5 -16t92.5 -58q27 -32 38 -59l-90 -90q-19 7 -36 23q-43 41 -50 41q-22 13 -60 13 q-86 0 -91 -52q0 -65 131 -99q56 -13 113 -30q64 -17 101 -40q79 -50 128.5 -135t49.5 -178q0 -122 -97 -205q-54 -50 -167 -70l-2 -816h-144l2 800q-183 -7 -313 53q-171 73 -171 240zM304 277q0 -94 135 -131q97 -26 210 -24q-4 18 -13 56q-66 198 -212 198q-48 0 -84 -28 t-36 -71z" />
<glyph unicode="&#x1015;" horiz-adv-x="1176" d="M120 447q0 193 134 329q88 84 197 116l56 -146q-81 -21 -142 -82q-88 -92 -88 -217q0 -129 90.5 -220.5t217.5 -91.5q129 0 219 91.5t90 220.5q0 125 -92 217q-58 61 -138 82l54 146q109 -32 196 -116q138 -136 138 -329q0 -195 -137 -331t-330 -136t-329 136t-136 331z " />
<glyph unicode="&#x1016;" horiz-adv-x="1142" d="M120 449q0 136 81 257t209 182l56 -136q-184 -92 -184 -290q0 -172 120 -257q92 -65 183 -65q138 0 235 85.5t97 223.5l-23 99q-60 -66 -144 -66q-52 0 -94 27q-106 61 -106 176q0 52 22 93q54 103 178 103q99 0 151 -68l7 -4q153 -153 153 -370q0 -200 -133 -329.5 t-337 -129.5q-208 0 -339.5 130.5t-131.5 338.5zM678 671q0 -24 26 -46.5t51 -22.5q23 0 46.5 25.5t23.5 50.5t-26.5 47.5t-48.5 22.5q-29 0 -50.5 -25t-21.5 -52z" />
<glyph unicode="&#x1017;" horiz-adv-x="1146" d="M95 434q2 216 137 347q81 79 201 112q8 -210 8 -250q-2 -126 116 -126q123 -2 123 115q1 68 -5 267l80 -26l146 -110q131 -144 129 -339q-3 -198 -142.5 -331.5t-333.5 -131.5q-189 2 -326.5 142t-132.5 331zM243 424q-2 -136 85 -226t224 -93q117 -2 223 94t106 217 q2 92 -47 173q-52 -234 -277 -227q-99 13 -172 72q-84 65 -92 160q-50 -69 -50 -170z" />
<glyph unicode="&#x1018;" horiz-adv-x="1863" d="M120 221l119 110q25 -56 72 -103q91 -93 218 -93q129 0 219 91.5t90 220.5q0 125 -90 216.5t-219 91.5q-127 0 -218 -91q-47 -49 -72 -107l-119 112q28 56 80 107q135 136 329 136t329 -136q34 -35 59 -71q25 36 59 71q137 136 331 136q193 0 328.5 -136t135.5 -329 q0 -195 -135.5 -331t-328.5 -136q-159 0 -277 89l85 131q81 -65 192 -65q126 0 216 91.5t90 220.5q0 125 -90 216.5t-216 91.5q-131 0 -221 -91.5t-90 -216.5q0 -195 -136.5 -331t-330.5 -136t-329 137q-49 48 -80 104z" />
<glyph unicode="&#x1019;" horiz-adv-x="1160" d="M120 455q0 300 306 439l47 -146q-90 -34 -144 -116t-54 -181q0 -43 56 -183q9 91 87 162t167 71q98 0 169 -65.5t93 -167.5q61 83 61 183q0 196 -218 304l38 146q155 -50 242 -168t87 -282q0 -212 -123 -341.5t-332 -129.5q-217 0 -349.5 129.5t-132.5 345.5zM480 237 l34 -78q34 -28 77 -28q45 0 76 32.5t31 77.5q0 43 -35 74t-78 31l-76 -30q-29 -37 -29 -79z" />
<glyph unicode="&#x101a;" horiz-adv-x="1928" d="M122 447q0 193 134 329q75 71 163 105l50 -148q-54 -23 -99 -69q-91 -92 -91 -217q0 -129 90.5 -220.5t218.5 -91.5t218.5 91.5t90.5 220.5q0 125 -91 217q-56 54 -126 77l53 151q103 -36 184 -116q33 -35 59 -71l22 -34l23 -45l9 -22l13 -47l9 -50l2 -47v-9v-10 q0 -125 90 -213q90 -93 219 -93t220 91.5t91 220.5q0 125 -91 216.5t-220 91.5q-99 0 -176 -54l-80 135q114 76 256 76q194 0 330 -136t136 -329q0 -195 -136 -331t-330 -136q-192 0 -329 137q-34 31 -58 70q-26 -39 -59 -70q-135 -137 -329 -137q-192 0 -329 136t-137 331z " />
<glyph unicode="&#x101b;" horiz-adv-x="1262" d="M187 453q0 209 127 342t337 133q209 0 342 -128q133 -127 133 -334l-8 -1207h191v-138h-335l13 1345h6q-4 3 -6 5q9 120 -104 223q-92 84 -232 84q-133 0 -221 -98.5t-88 -236.5q0 -105 71 -191q13 68 75 116.5t133 48.5q93 0 157.5 -62t64.5 -155q0 -56 -30 -108 l-78 -79l-127 -17l-65 4q-154 13 -257 157q-99 136 -99 296zM536 196q0 -88 88 -88q86 0 86 88q0 86 -86 86q-88 0 -88 -86z" />
<glyph unicode="&#x101c;" horiz-adv-x="1935" d="M122 447q0 193 137 329t329 136q194 0 330 -136t136 -329q0 -129 90 -220.5t219 -91.5t220 91.5t91 220.5q0 125 -91 216.5t-220 91.5q-106 0 -187 -61l-67 142q112 76 254 76q194 0 330 -136t136 -329q0 -195 -136 -331t-330 -136q-192 0 -329 137q-135 135 -135 326 l-2 4q0 125 -90.5 216.5t-218.5 91.5t-218.5 -91.5t-90.5 -216.5q0 -129 90.5 -220.5t218.5 -91.5q104 0 180 56l64 -144q-109 -67 -244 -67q-192 0 -329 136t-137 331z" />
<glyph unicode="&#x101d;" horiz-adv-x="1146" d="M120 447q0 193 136 329t329 136t330 -136t137 -329q0 -195 -137 -331t-330 -136t-329 136t-136 331zM277 447q0 -129 90.5 -220.5t217.5 -91.5q129 0 219 91.5t90 220.5q0 125 -90 216.5t-219 91.5q-127 0 -217.5 -91.5t-90.5 -216.5z" />
<glyph unicode="&#x101e;" horiz-adv-x="1863" d="M120 223l119 110q25 -56 72 -105q91 -93 218 -93q129 0 219 91.5t90 220.5q0 125 -90 216.5t-219 91.5q-127 0 -218 -91q-47 -49 -72 -105l-119 110q31 59 80 107q135 136 329 136t330.5 -136t136.5 -329q0 -129 90 -220.5t221 -91.5q126 0 216 91.5t90 220.5 q0 125 -90 216.5t-216 91.5q-111 0 -192 -65l-85 133q118 89 277 89q193 0 328.5 -136t135.5 -329q0 -195 -135.5 -331t-328.5 -136q-194 0 -331 137q-34 31 -59 70q-25 -39 -59 -70q-135 -137 -329 -137t-329 137q-52 48 -80 106z" />
<glyph unicode="&#x101f;" horiz-adv-x="1933" d="M122 447q0 193 134 329q62 58 129 91l66 -144q-45 -20 -81 -59q-91 -92 -91 -217q0 -129 90.5 -220.5t218.5 -91.5t218.5 91.5t90.5 220.5q0 125 -91 217q-40 39 -88 64l64 142q72 -32 135 -94q33 -35 59 -71q24 36 58 71q137 136 329 136q194 0 330 -136t136 -329 q0 -195 -136 -331t-330 -136h-5l-23 157q15 -2 28 -2q129 0 220 91.5t91 220.5q0 125 -91 216.5t-220 91.5t-219 -91q-90 -90 -90 -217q0 -195 -136 -331t-330 -136q-192 0 -329 136t-137 331z" />
<glyph unicode="&#x1020;" horiz-adv-x="1268" d="M140 462q0 202 140.5 342t345.5 140q253 0 421 -221q0 -2 2 -5l-112 -73l-6 6q-136 144 -293 147q-140 0 -249.5 -100.5t-109.5 -235.5q0 -138 93.5 -238t231.5 -100q126 0 232 97q47 47 86 47q15 0 43 -2t42 -2l52 -55v-270l-23 -40q-137 -101 -198 -131 q-94 -43 -236 -39q-153 3 -273 71v-280q0 -103 34.5 -141.5t134.5 -38.5h385q39 0 39 52q0 17 -14 17q-5 0 -27 -9q-21 -8 -32 -8v157q26 4 56 4q156 0 156 -159q0 -84 -47 -140t-131 -56h-385q-313 0 -311 322l4 462l97 43q147 -149 316 -154q99 -2 168 28q53 20 148 88 v108q-122 -117 -316 -117q-200 0 -332 143t-132 341z" />
<glyph unicode="&#x1021;" horiz-adv-x="1863" d="M133 304l144 38q108 -218 306 -218q97 0 180 61q-99 11 -164 86q-66 114 -66 178q0 84 72.5 163.5t157.5 88.5q-118 56 -180 56q-99 0 -182 -54t-115 -144l-149 45q50 135 175 222.5t269 87.5q129 0 286 -87q55 -38 92 -90q43 52 105 95q157 110 315 83t252.5 -103.5 t147.5 -196t7 -333.5q-60 -304 -337 -278q-122 26 -174 131q-11 20 -16 45q-16 50 -4 104q7 29 18 51q27 71 99 104q45 23 94 25q104 9 179 -51q15 64 -50 204q-73 97 -207 124q-236 46 -372 -219h-4q-25 -21 -79 -21l-75 30q-31 23 -60 23q-54 -11 -80 -36q-11 -22 -24 -52 q-2 -8 -7 -17q0 -45 31.5 -79.5t76.5 -34.5q18 0 66.5 26t69.5 26q94 0 94 -88l-9 -45q-133 -279 -433 -279q-164 0 -282 86.5t-168 242.5zM1376 256q-9 -41 18 -81t72 -46q48 -12 88.5 14t49.5 72q9 41 -18 80.5t-72 48.5q-48 10 -87 -15t-51 -73z" />
<glyph unicode="&#x1022;" horiz-adv-x="1980" d="M122 447q-16 217 119 348q129 125 350 125q103 0 284 -88q58 -43 80 -80q178 187 367 187q215 0 359 -144t144 -358q0 -209 -132 -333t-341 -124q-129 0 -198 56l82 119l32 -18l84 -4q135 -9 225 95q83 96 83 234q0 123 -98 224t-221 101q-86 0 -165 -46 q-106 -63 -124 -144l16 -34l11 -54v-72q7 -149 -98.5 -274t-257.5 -163l10 2q0 34 -48 122q126 70 169 128q58 75 58 199q0 132 -97 220q-52 47 -105 66l-63 22l-66 9q-74 0 -99 -16q-31 -6 -95 -49q-119 -84 -119 -248q126 0 171 -31q126 -52 126 -209q0 -41 -56 -170 q-58 -65 -144 -65q-135 0 -230 67l52 122l65 -34l99 -18q81 16 68 113q-15 94 -101 94q-36 0 -66 -11l-29 -4h-21l-37 9l-36 56z" />
<glyph unicode="&#x1023;" horiz-adv-x="1928" d="M122 447q0 193 137 329t329 136q194 0 329 -136q33 -35 59 -71q24 36 58 71q137 136 329 136q194 0 330 -136t136 -329q0 -195 -136 -331t-330 -136q-142 0 -256 76l80 135q77 -56 176 -56q129 0 220 91.5t91 220.5q0 125 -91 216.5t-220 91.5t-219 -91q-90 -90 -90 -215 v-10v-7l-2 -47l-9 -50l-13 -47l-9 -22l-23 -47l-22 -32q-26 -39 -59 -70q-81 -83 -184 -117l-53 148q70 24 126 80q91 90 91 219q0 125 -90.5 216.5t-218.5 91.5t-218.5 -91.5t-90.5 -216.5q0 -129 91 -219q45 -45 99 -69l-50 -150q-88 36 -163 108q-134 135 -134 330z M191 -494q5 190 138 322q137 136 254 136q193 0 331 -136q32 -33 57 -69q25 36 59 69q137 136 328 136q134 0 271 -136q133 -132 138 -319v-3h-159v3q-2 121 -90 209q-29 91 -160 91q-126 0 -218 -91q-88 -88 -91 -209v-7v-9v-2h-157v8v10q-2 121 -90 209q-90 91 -219 91 q-52 0 -144 -91q-88 -90 -90 -212v-7q0 -6 -158 -11v11v7zM1575 -860l40 391h154l-21 -264l165 12v-139h-338z" />
<glyph unicode="&#x1024;" horiz-adv-x="2629" d="M135 441q0 -137 70 -267q70 -122 178 -199l113 92q-14 23 -41 53q-88 82 -122 144q-45 76 -45 177q0 150 101.5 259t250.5 109q144 0 241 -98t106 -242q2 -41 4 -50q-9 -228 -166 -322q-8 -2 -12 -7l95 -122q212 138 232 428q0 39 0 25v20q0 156 97.5 263t256.5 107 q144 0 244 -101.5t100 -245.5v-1094q0 -98 -86 -98h-1389q-30 0 -52 68q-23 56 -23 92q0 41 16 72q85 126 336 126q325 0 619 -79l29 152q-312 80 -648 80q-205 0 -336 -87q-147 -100 -147 -268q0 -108 48 -198q59 -111 158 -111h1419q209 0 209 251v1094q0 219 -143 355 t-361 136q-294 0 -428 -230q-149 234 -419 234q-216 8 -360.5 -147.5t-144.5 -370.5zM1703 1406q0 157 110.5 268.5t269.5 111.5q245 0 370 -200q25 -38 36 -72l-126 -65v2q-20 90 -106 144q-77 50 -174 50q-101 0 -162.5 -69t-61.5 -170q0 -192 254 -374q138 -97 172 -127 q71 -73 88 -195v4v-9l4 -1588h-161v1561q0 14 -26 85q-10 26 -86 93q-27 25 -223 180q-178 142 -178 370z" />
<glyph unicode="&#x1025;" horiz-adv-x="1167" d="M120 223l119 110q25 -56 72 -105q91 -93 218 -93q129 0 219 91.5t90 220.5q0 125 -90 216.5t-219 91.5q-127 0 -218 -91q-47 -49 -72 -105l-119 110q31 59 80 107q135 136 329 136t330.5 -136t136.5 -329q0 -129 -79 -260q-25 -39 -59 -70q-135 -137 -329 -137 q-142 0 -252 72l-2 -480q0 -115 71 -194t185 -79l60 5q103 0 180.5 76.5t82.5 180.5l2 117h135l5 -117q11 -176 -107.5 -287.5t-297.5 -111.5l-60 -2q-177 0 -288.5 117t-111.5 295v630q-7 10 -11 21z" />
<glyph unicode="&#x1026;" horiz-adv-x="1167" d="M120 223l119 110q25 -56 72 -105q91 -93 218 -93q129 0 219 91.5t90 220.5q0 125 -90 216.5t-219 91.5q-127 0 -218 -91q-47 -49 -72 -105l-119 110q31 59 80 107q135 136 329 136t330.5 -136t136.5 -329q0 -129 -79 -260q-25 -39 -59 -70q-135 -137 -329 -137 q-142 0 -252 72l-2 -480q0 -115 71 -194t185 -79l60 5q103 0 180.5 76.5t82.5 180.5l2 117h135l5 -117q11 -176 -107.5 -287.5t-297.5 -111.5l-60 -2q-177 0 -288.5 117t-111.5 295v630q-7 10 -11 21zM205 1369q0 145 107 251t251 106q151 0 258 -105t107 -254 q0 -146 -103 -252l-115 -83l-59 -18l-75 -7q-163 0 -267 99.5t-104 262.5zM335 1367q0 -69 37 -121q4 67 67 115q52 40 124 49q167 0 200 -164q37 59 37 121q0 88 -73.5 158t-163.5 70q-97 0 -162.5 -65.5t-65.5 -162.5zM491 1206q0 -77 79 -77q75 0 75 81q0 74 -82 74 q-72 0 -72 -78z" />
<glyph unicode="&#x1027;" horiz-adv-x="1236" d="M140 410v61q0 209 140.5 342t355.5 133q211 0 357 -148q86 -93 86 -151q0 -28 -15 -50q-107 -133 -294 -133q-272 0 -378 246q-113 -102 -113 -257q0 -163 108 -259q48 113 151.5 178t227.5 65q180 0 288 -133q23 -27 23 -50q0 -60 -88 -148q-144 -149 -359 -149 q-200 0 -342 127q-148 125 -148 326zM520 122q56 -19 116 -19q173 0 267 136q-71 49 -148 49q-170 0 -235 -166zM527 782q64 -167 234 -167q77 0 144 47q-114 136 -269 136q-60 0 -109 -16z" />
<glyph unicode="&#x1029;" horiz-adv-x="2347" d="M84 -430v1773q0 177 110 287.5t288 110.5h1259q86 0 178.5 -46t139.5 -115q58 -93 58 -224h-144q0 104 -63 173.5t-169 69.5h-1259q-117 0 -185.5 -69.5t-68.5 -186.5v-1773q0 -116 72 -193.5t184 -77.5h1278q104 0 181.5 76.5t79.5 181.5l4 114h136l4 -114 q11 -179 -107 -289.5t-298 -110.5h-1278q-177 0 -288.5 117.5t-111.5 295.5zM439 223l122 110q22 -56 69 -105q93 -93 219 -93q131 0 221 91.5t90 220.5q0 125 -90 216.5t-221 91.5q-126 0 -219 -91q-47 -49 -69 -105l-122 110q34 59 81 107q138 136 329 136 q194 0 330.5 -136t136.5 -329h2q0 -129 91 -220.5t218 -91.5q128 0 219 91.5t91 220.5q0 125 -91 216.5t-219 91.5q-109 0 -189 -65l-86 133q117 89 275 89q194 0 330 -136t136 -329q0 -195 -136 -331t-330 -136t-329 137q-34 31 -59 70q-25 -39 -59 -70 q-137 -137 -331 -137q-191 0 -329 137q-47 48 -81 106z" />
<glyph unicode="&#x102a;" horiz-adv-x="4204" d="M86 437q0 189 136.5 323t329.5 134q171 0 297 -107l-108 -109q-83 63 -189 63q-131 0 -221 -89t-90 -215t90 -214q88 -88 212 -90q-61 65 -61 155q0 97 69.5 164.5t169.5 67.5q99 0 168.5 -67.5t69.5 -164.5t-67 -166q-11 -8 -17 -14q-136 -128 -323 -128 q-193 0 -329.5 134t-136.5 323zM619 293q0 -41 29.5 -70t69.5 -29q41 0 70 29t29 70q0 42 -29 71.5t-70 29.5q-40 0 -69.5 -29.5t-29.5 -71.5zM1092 -430v1775q0 175 110.5 285.5t289.5 110.5h1259q85 0 177.5 -46t137.5 -115q61 -93 61 -224h-142q0 106 -64 174.5 t-170 68.5h-1259q-120 0 -188 -68.5t-68 -185.5v-1775q0 -116 71 -193.5t187 -77.5h1277q106 0 183 76.5t81 181.5l2 116h135l7 -116q7 -176 -109 -288t-299 -112h-1277q-178 0 -290 117.5t-112 295.5zM1451 223l119 112q25 -58 72 -107q91 -91 219 -91q126 0 217 90.5 t91 219.5q0 127 -91 217.5t-217 90.5q-128 0 -219 -91q-47 -47 -72 -105l-119 110q32 59 79 107q138 136 331 136q194 0 330.5 -136t136.5 -329q0 -129 89.5 -219.5t218.5 -90.5q128 0 218.5 90.5t90.5 219.5q0 127 -90.5 217.5t-218.5 90.5q-108 0 -190 -63l-85 131 q119 89 275 89q193 0 329.5 -136t136.5 -329q0 -195 -136.5 -331t-329.5 -136q-192 0 -329 137q-34 31 -59 70q-25 -39 -58 -70q-135 -137 -329 -137q-193 0 -331 137q-49 50 -79 106zM3263 766q134 137 329 137q191 0 327 -137.5t136 -328.5q0 -194 -136 -330.5 t-327 -136.5q-4 0 -8 2l-20 159q13 -2 28 -2q125 0 216.5 90t91.5 218t-91.5 219.5t-216.5 91.5q-129 0 -238 -92zM3285 1356q0 151 107 258.5t258 107.5t256 -109q109 -106 109 -255h-142q0 93 -66 156q-65 68 -157 68q-93 0 -158 -65.5t-65 -160.5q0 -92 65 -157.5 t158 -65.5v-140q-151 0 -258 107.5t-107 255.5z" />
<glyph unicode="&#x102b;" horiz-adv-x="1588" d="M106 471q0 38 34 54q13 6 26 6q38 0 54 -34q6 -12 6 -26q0 -38 -33 -54q-14 -6 -27 -6q-38 0 -54 34q-6 12 -6 26zM164 258q0 38 34 54q12 6 26 6q38 0 54 -34q6 -14 6 -26q0 -38 -34 -54q-12 -6 -26 -6q-38 0 -54 33q-6 13 -6 27zM164 684q0 38 34 54q12 6 26 6 q38 0 54 -34q6 -12 6 -26q0 -38 -34 -54q-12 -6 -26 -6q-38 0 -54 34q-6 12 -6 26zM321 102q0 38 34 54q12 6 26 6q38 0 54 -34q6 -14 6 -26q0 -38 -34 -54q-12 -6 -26 -6q-38 0 -54 33q-6 13 -6 27zM321 840q0 38 34 54q12 6 26 6q38 0 54 -34q6 -12 6 -26q0 -38 -34 -54 q-12 -6 -26 -6q-38 0 -54 34q-6 12 -6 26zM535 45q0 38 34 54q12 6 26 6q38 0 54 -34q6 -14 6 -26q0 -38 -34 -54q-12 -6 -26 -6q-38 0 -54 33q-6 13 -6 27zM535 897q0 38 34 54q12 6 26 6q38 0 54 -34q6 -12 6 -26q0 -38 -34 -54q-12 -6 -26 -6q-38 0 -54 34q-6 12 -6 26z M661 1401v38q0 72 54 153q117 169 318 169h2q190 0 293 -113.5t103 -308.5v-1361h-144v1361l-4 62l-13 56l-43 86q-77 73 -192 73h-2q-126 0 -201 -107q-27 -28 -31 -70l-2 -34zM749 102q0 38 34 54q12 6 26 6q38 0 54 -34q6 -14 6 -26q0 -38 -34 -54q-12 -6 -26 -6 q-38 0 -54 33q-6 13 -6 27zM749 840q0 38 34 54q12 6 26 6q38 0 54 -34q6 -12 6 -26q0 -38 -34 -54q-12 -6 -26 -6q-38 0 -54 34q-6 12 -6 26zM906 258q0 38 34 54q12 6 26 6q38 0 54 -34q6 -14 6 -26q0 -38 -34 -54q-12 -6 -26 -6q-38 0 -54 33q-6 13 -6 27zM906 684 q0 38 34 54q12 6 26 6q38 0 54 -34q6 -12 6 -26q0 -38 -34 -54q-12 -6 -26 -6q-38 0 -54 34q-6 12 -6 26zM964 471q0 37 33 54q13 6 27 6q38 0 54 -34q6 -12 6 -26q0 -38 -34 -54q-14 -6 -26 -6q-38 0 -54 34q-6 12 -6 26z" />
<glyph unicode="&#x102c;" horiz-adv-x="2205" d="M106 471q0 38 34 54q13 6 26 6q38 0 54 -34q6 -12 6 -26q0 -38 -33 -54q-14 -6 -27 -6q-38 0 -54 34q-6 12 -6 26zM164 258q0 38 34 54q12 6 26 6q38 0 54 -34q6 -14 6 -26q0 -38 -34 -54q-12 -6 -26 -6q-38 0 -54 33q-6 13 -6 27zM164 684q0 38 34 54q12 6 26 6 q38 0 54 -34q6 -12 6 -26q0 -38 -34 -54q-12 -6 -26 -6q-38 0 -54 34q-6 12 -6 26zM321 102q0 38 34 54q12 6 26 6q38 0 54 -34q6 -14 6 -26q0 -38 -34 -54q-12 -6 -26 -6q-38 0 -54 33q-6 13 -6 27zM321 840q0 38 34 54q12 6 26 6q38 0 54 -34q6 -12 6 -26q0 -38 -34 -54 q-12 -6 -26 -6q-38 0 -54 34q-6 12 -6 26zM535 45q0 38 34 54q12 6 26 6q38 0 54 -34q6 -14 6 -26q0 -38 -34 -54q-12 -6 -26 -6q-38 0 -54 33q-6 13 -6 27zM535 897q0 38 34 54q12 6 26 6q38 0 54 -34q6 -12 6 -26q0 -38 -34 -54q-12 -6 -26 -6q-38 0 -54 34q-6 12 -6 26z M749 102q0 38 34 54q12 6 26 6q38 0 54 -34q6 -14 6 -26q0 -38 -34 -54q-12 -6 -26 -6q-38 0 -54 33q-6 13 -6 27zM749 840q0 38 34 54q12 6 26 6q38 0 54 -34q6 -12 6 -26q0 -38 -34 -54q-12 -6 -26 -6q-38 0 -54 34q-6 12 -6 26zM906 258q0 38 34 54q12 6 26 6 q38 0 54 -34q6 -14 6 -26q0 -38 -34 -54q-12 -6 -26 -6q-38 0 -54 33q-6 13 -6 27zM906 684q0 38 34 54q12 6 26 6q38 0 54 -34q6 -12 6 -26q0 -38 -34 -54q-12 -6 -26 -6q-38 0 -54 34q-6 12 -6 26zM964 471q0 37 33 54q13 6 27 6q38 0 54 -34q6 -12 6 -26q0 -38 -34 -54 q-14 -6 -26 -6q-38 0 -54 34q-6 12 -6 26zM1188 698q26 37 59 70q135 135 329 135t330 -136.5t136 -329.5q0 -194 -136 -329.5t-330 -135.5h-5l-22 159h27q128 0 219.5 90t91.5 216q0 131 -91.5 221t-219.5 90q-126 0 -218 -90q-90 -90 -90 -219v-2q-104 298 -80 261z" />
<glyph unicode="&#x102d;" horiz-adv-x="1208" d="M106 471q0 38 34 54q13 6 26 6q38 0 54 -34q6 -12 6 -26q0 -38 -33 -54q-14 -6 -27 -6q-38 0 -54 34q-6 12 -6 26zM164 258q0 38 34 54q12 6 26 6q38 0 54 -34q6 -14 6 -26q0 -38 -34 -54q-12 -6 -26 -6q-38 0 -54 33q-6 13 -6 27zM164 684q0 38 34 54q12 6 26 6 q38 0 54 -34q6 -12 6 -26q0 -38 -34 -54q-12 -6 -26 -6q-38 0 -54 34q-6 12 -6 26zM224 1363q0 151 106.5 258t258.5 107q151 0 257.5 -107t106.5 -258t-106.5 -258t-257.5 -107q-152 0 -258.5 107t-106.5 258zM321 102q0 38 34 54q12 6 26 6q38 0 54 -34q6 -14 6 -26 q0 -38 -34 -54q-12 -6 -26 -6q-38 0 -54 33q-6 13 -6 27zM321 840q0 38 34 54q12 6 26 6q38 0 54 -34q6 -12 6 -26q0 -38 -34 -54q-12 -6 -26 -6q-38 0 -54 34q-6 12 -6 26zM370 1363q0 -90 63.5 -155.5t155.5 -65.5q90 0 154 65.5t64 155.5t-64 155.5t-154 65.5 q-92 0 -155.5 -65.5t-63.5 -155.5zM535 45q0 38 34 54q12 6 26 6q38 0 54 -34q6 -14 6 -26q0 -38 -34 -54q-12 -6 -26 -6q-38 0 -54 33q-6 13 -6 27zM535 897q0 38 34 54q12 6 26 6q38 0 54 -34q6 -12 6 -26q0 -38 -34 -54q-12 -6 -26 -6q-38 0 -54 34q-6 12 -6 26zM749 102 q0 38 34 54q12 6 26 6q38 0 54 -34q6 -14 6 -26q0 -38 -34 -54q-12 -6 -26 -6q-38 0 -54 33q-6 13 -6 27zM749 840q0 38 34 54q12 6 26 6q38 0 54 -34q6 -12 6 -26q0 -38 -34 -54q-12 -6 -26 -6q-38 0 -54 34q-6 12 -6 26zM906 258q0 38 34 54q12 6 26 6q38 0 54 -34 q6 -14 6 -26q0 -38 -34 -54q-12 -6 -26 -6q-38 0 -54 33q-6 13 -6 27zM906 684q0 38 34 54q12 6 26 6q38 0 54 -34q6 -12 6 -26q0 -38 -34 -54q-12 -6 -26 -6q-38 0 -54 34q-6 12 -6 26zM964 471q0 37 33 54q13 6 27 6q38 0 54 -34q6 -12 6 -26q0 -38 -34 -54q-14 -6 -26 -6 q-38 0 -54 34q-6 12 -6 26z" />
<glyph unicode="&#x102e;" horiz-adv-x="1219" d="M106 471q0 38 34 54q13 6 26 6q38 0 54 -34q6 -12 6 -26q0 -38 -33 -54q-14 -6 -27 -6q-38 0 -54 34q-6 12 -6 26zM164 258q0 38 34 54q12 6 26 6q38 0 54 -34q6 -14 6 -26q0 -38 -34 -54q-12 -6 -26 -6q-38 0 -54 33q-6 13 -6 27zM164 684q0 38 34 54q12 6 26 6 q38 0 54 -34q6 -12 6 -26q0 -38 -34 -54q-12 -6 -26 -6q-38 0 -54 34q-6 12 -6 26zM229 1369q0 145 108.5 249t252.5 104q149 0 256 -103t107 -252q0 -146 -102 -252l-115 -83l-60 -18l-75 -10q-164 0 -268 101t-104 264zM321 102q0 38 34 54q12 6 26 6q38 0 54 -34 q6 -14 6 -26q0 -38 -34 -54q-12 -6 -26 -6q-38 0 -54 33q-6 13 -6 27zM321 840q0 38 34 54q12 6 26 6q38 0 54 -34q6 -12 6 -26q0 -38 -34 -54q-12 -6 -26 -6q-38 0 -54 34q-6 12 -6 26zM362 1367q0 -71 37 -121q4 67 67 112q52 43 124 52q166 0 200 -164q37 56 37 121 q0 88 -74.5 158t-162.5 70q-97 0 -162.5 -65.5t-65.5 -162.5zM515 1206q0 -77 82 -77q72 0 72 81q0 74 -79 74q-75 0 -75 -78zM535 45q0 38 34 54q12 6 26 6q38 0 54 -34q6 -14 6 -26q0 -38 -34 -54q-12 -6 -26 -6q-38 0 -54 33q-6 13 -6 27zM535 897q0 38 34 54q12 6 26 6 q38 0 54 -34q6 -12 6 -26q0 -38 -34 -54q-12 -6 -26 -6q-38 0 -54 34q-6 12 -6 26zM749 102q0 38 34 54q12 6 26 6q38 0 54 -34q6 -14 6 -26q0 -38 -34 -54q-12 -6 -26 -6q-38 0 -54 33q-6 13 -6 27zM749 840q0 38 34 54q12 6 26 6q38 0 54 -34q6 -12 6 -26q0 -38 -34 -54 q-12 -6 -26 -6q-38 0 -54 34q-6 12 -6 26zM906 258q0 38 34 54q12 6 26 6q38 0 54 -34q6 -14 6 -26q0 -38 -34 -54q-12 -6 -26 -6q-38 0 -54 33q-6 13 -6 27zM906 684q0 38 34 54q12 6 26 6q38 0 54 -34q6 -12 6 -26q0 -38 -34 -54q-12 -6 -26 -6q-38 0 -54 34q-6 12 -6 26z M964 471q0 37 33 54q13 6 27 6q38 0 54 -34q6 -12 6 -26q0 -38 -34 -54q-14 -6 -26 -6q-38 0 -54 34q-6 12 -6 26z" />
<glyph unicode="&#x102f;" horiz-adv-x="1214" d="M106 471q0 38 34 54q13 6 26 6q38 0 54 -34q6 -12 6 -26q0 -38 -33 -54q-14 -6 -27 -6q-38 0 -54 34q-6 12 -6 26zM164 258q0 38 34 54q12 6 26 6q38 0 54 -34q6 -14 6 -26q0 -38 -34 -54q-12 -6 -26 -6q-38 0 -54 33q-6 13 -6 27zM164 684q0 38 34 54q12 6 26 6 q38 0 54 -34q6 -12 6 -26q0 -38 -34 -54q-12 -6 -26 -6q-38 0 -54 34q-6 12 -6 26zM321 102q0 38 34 54q12 6 26 6q38 0 54 -34q6 -14 6 -26q0 -38 -34 -54q-12 -6 -26 -6q-38 0 -54 33q-6 13 -6 27zM321 840q0 38 34 54q12 6 26 6q38 0 54 -34q6 -12 6 -26q0 -38 -34 -54 q-12 -6 -26 -6q-38 0 -54 34q-6 12 -6 26zM535 45q0 38 34 54q12 6 26 6q38 0 54 -34q6 -14 6 -26q0 -38 -34 -54q-12 -6 -26 -6q-38 0 -54 33q-6 13 -6 27zM535 897q0 38 34 54q12 6 26 6q38 0 54 -34q6 -12 6 -26q0 -38 -34 -54q-12 -6 -26 -6q-38 0 -54 34q-6 12 -6 26z M541 -77h153v-648h183v-137h-336v785zM749 102q0 38 34 54q12 6 26 6q38 0 54 -34q6 -14 6 -26q0 -38 -34 -54q-12 -6 -26 -6q-38 0 -54 33q-6 13 -6 27zM749 840q0 38 34 54q12 6 26 6q38 0 54 -34q6 -12 6 -26q0 -38 -34 -54q-12 -6 -26 -6q-38 0 -54 34q-6 12 -6 26z M906 258q0 38 34 54q12 6 26 6q38 0 54 -34q6 -14 6 -26q0 -38 -34 -54q-12 -6 -26 -6q-38 0 -54 33q-6 13 -6 27zM906 684q0 38 34 54q12 6 26 6q38 0 54 -34q6 -12 6 -26q0 -38 -34 -54q-12 -6 -26 -6q-38 0 -54 34q-6 12 -6 26zM964 471q0 37 33 54q13 6 27 6 q38 0 54 -34q6 -12 6 -26q0 -38 -34 -54q-14 -6 -26 -6q-38 0 -54 34q-6 12 -6 26z" />
<glyph unicode="&#x1030;" horiz-adv-x="1214" d="M106 471q0 38 34 54q13 6 26 6q38 0 54 -34q6 -12 6 -26q0 -38 -33 -54q-14 -6 -27 -6q-38 0 -54 34q-6 12 -6 26zM164 258q0 38 34 54q12 6 26 6q38 0 54 -34q6 -14 6 -26q0 -38 -34 -54q-12 -6 -26 -6q-38 0 -54 33q-6 13 -6 27zM164 684q0 38 34 54q12 6 26 6 q38 0 54 -34q6 -12 6 -26q0 -38 -34 -54q-12 -6 -26 -6q-38 0 -54 34q-6 12 -6 26zM321 102q0 38 34 54q12 6 26 6q38 0 54 -34q6 -14 6 -26q0 -38 -34 -54q-12 -6 -26 -6q-38 0 -54 33q-6 13 -6 27zM321 840q0 38 34 54q12 6 26 6q38 0 54 -34q6 -12 6 -26q0 -38 -34 -54 q-12 -6 -26 -6q-38 0 -54 34q-6 12 -6 26zM402 -77h155v-788h-155v788zM535 45q0 38 34 54q12 6 26 6q38 0 54 -34q6 -14 6 -26q0 -38 -34 -54q-12 -6 -26 -6q-38 0 -54 33q-6 13 -6 27zM535 897q0 38 34 54q12 6 26 6q38 0 54 -34q6 -12 6 -26q0 -38 -34 -54q-12 -6 -26 -6 q-38 0 -54 34q-6 12 -6 26zM656 -77h154v-648h183v-137h-337v785zM749 102q0 38 34 54q12 6 26 6q38 0 54 -34q6 -14 6 -26q0 -38 -34 -54q-12 -6 -26 -6q-38 0 -54 33q-6 13 -6 27zM749 840q0 38 34 54q12 6 26 6q38 0 54 -34q6 -12 6 -26q0 -38 -34 -54q-12 -6 -26 -6 q-38 0 -54 34q-6 12 -6 26zM906 258q0 38 34 54q12 6 26 6q38 0 54 -34q6 -14 6 -26q0 -38 -34 -54q-12 -6 -26 -6q-38 0 -54 33q-6 13 -6 27zM906 684q0 38 34 54q12 6 26 6q38 0 54 -34q6 -12 6 -26q0 -38 -34 -54q-12 -6 -26 -6q-38 0 -54 34q-6 12 -6 26zM964 471 q0 37 33 54q13 6 27 6q38 0 54 -34q6 -12 6 -26q0 -38 -34 -54q-14 -6 -26 -6q-38 0 -54 34q-6 12 -6 26z" />
<glyph unicode="&#x1031;" horiz-adv-x="2189" d="M67 458q0 189 135.5 322.5t328.5 133.5q174 0 301 -108l-111 -108q-81 63 -190 63q-127 0 -217.5 -89t-90.5 -214q0 -127 90 -217q89 -86 209 -88q-58 66 -58 156q0 95 70 164.5t169 69.5q97 0 168 -69.5t71 -164.5q0 -97 -70 -167q-10 -7 -18 -13q-136 -129 -323 -129 q-193 0 -328.5 134t-135.5 324zM602 316q0 -41 28 -71t71 -30q40 0 69.5 30t29.5 71q0 40 -29.5 69.5t-69.5 29.5q-43 0 -71 -29.5t-28 -69.5zM1056 471q0 38 34 54q13 6 26 6q38 0 54 -34q6 -12 6 -26q0 -38 -33 -54q-14 -6 -27 -6q-38 0 -54 34q-6 12 -6 26zM1114 258 q0 38 34 54q12 6 26 6q38 0 54 -34q6 -14 6 -26q0 -38 -34 -54q-12 -6 -26 -6q-38 0 -54 33q-6 13 -6 27zM1114 684q0 38 34 54q12 6 26 6q38 0 54 -34q6 -12 6 -26q0 -38 -34 -54q-12 -6 -26 -6q-38 0 -54 34q-6 12 -6 26zM1271 102q0 38 34 54q12 6 26 6q38 0 54 -34 q6 -14 6 -26q0 -38 -34 -54q-12 -6 -26 -6q-38 0 -54 33q-6 13 -6 27zM1271 840q0 38 34 54q12 6 26 6q38 0 54 -34q6 -12 6 -26q0 -38 -34 -54q-12 -6 -26 -6q-38 0 -54 34q-6 12 -6 26zM1485 45q0 38 34 54q12 6 26 6q38 0 54 -34q6 -14 6 -26q0 -38 -34 -54 q-12 -6 -26 -6q-38 0 -54 33q-6 13 -6 27zM1485 897q0 38 34 54q12 6 26 6q38 0 54 -34q6 -12 6 -26q0 -38 -34 -54q-12 -6 -26 -6q-38 0 -54 34q-6 12 -6 26zM1699 102q0 38 34 54q12 6 26 6q38 0 54 -34q6 -14 6 -26q0 -38 -34 -54q-12 -6 -26 -6q-38 0 -54 33 q-6 13 -6 27zM1699 840q0 38 34 54q12 6 26 6q38 0 54 -34q6 -12 6 -26q0 -38 -34 -54q-12 -6 -26 -6q-38 0 -54 34q-6 12 -6 26zM1856 258q0 38 34 54q12 6 26 6q38 0 54 -34q6 -14 6 -26q0 -38 -34 -54q-12 -6 -26 -6q-38 0 -54 33q-6 13 -6 27zM1856 684q0 38 34 54 q12 6 26 6q38 0 54 -34q6 -12 6 -26q0 -38 -34 -54q-12 -6 -26 -6q-38 0 -54 34q-6 12 -6 26zM1914 471q0 37 33 54q13 6 27 6q38 0 54 -34q6 -12 6 -26q0 -38 -34 -54q-14 -6 -26 -6q-38 0 -54 34q-6 12 -6 26z" />
<glyph unicode="&#x1032;" horiz-adv-x="1203" d="M106 471q0 38 34 54q13 6 26 6q38 0 54 -34q6 -12 6 -26q0 -38 -33 -54q-14 -6 -27 -6q-38 0 -54 34q-6 12 -6 26zM164 258q0 38 34 54q12 6 26 6q38 0 54 -34q6 -14 6 -26q0 -38 -34 -54q-12 -6 -26 -6q-38 0 -54 33q-6 13 -6 27zM164 684q0 38 34 54q12 6 26 6 q38 0 54 -34q6 -12 6 -26q0 -38 -34 -54q-12 -6 -26 -6q-38 0 -54 34q-6 12 -6 26zM183 1717l88 106l707 -593l-90 -104zM321 102q0 38 34 54q12 6 26 6q38 0 54 -34q6 -14 6 -26q0 -38 -34 -54q-12 -6 -26 -6q-38 0 -54 33q-6 13 -6 27zM321 840q0 38 34 54q12 6 26 6 q38 0 54 -34q6 -12 6 -26q0 -38 -34 -54q-12 -6 -26 -6q-38 0 -54 34q-6 12 -6 26zM535 45q0 38 34 54q12 6 26 6q38 0 54 -34q6 -14 6 -26q0 -38 -34 -54q-12 -6 -26 -6q-38 0 -54 33q-6 13 -6 27zM535 897q0 38 34 54q12 6 26 6q38 0 54 -34q6 -12 6 -26q0 -38 -34 -54 q-12 -6 -26 -6q-38 0 -54 34q-6 12 -6 26zM749 102q0 38 34 54q12 6 26 6q38 0 54 -34q6 -14 6 -26q0 -38 -34 -54q-12 -6 -26 -6q-38 0 -54 33q-6 13 -6 27zM749 840q0 38 34 54q12 6 26 6q38 0 54 -34q6 -12 6 -26q0 -38 -34 -54q-12 -6 -26 -6q-38 0 -54 34q-6 12 -6 26z M906 258q0 38 34 54q12 6 26 6q38 0 54 -34q6 -14 6 -26q0 -38 -34 -54q-12 -6 -26 -6q-38 0 -54 33q-6 13 -6 27zM906 684q0 38 34 54q12 6 26 6q38 0 54 -34q6 -12 6 -26q0 -38 -34 -54q-12 -6 -26 -6q-38 0 -54 34q-6 12 -6 26zM964 471q0 37 33 54q13 6 27 6 q38 0 54 -34q6 -12 6 -26q0 -38 -34 -54q-14 -6 -26 -6q-38 0 -54 34q-6 12 -6 26z" />
<glyph unicode="&#x1033;" d="M106 471q0 38 34 54q13 6 26 6q38 0 54 -34q6 -12 6 -26q0 -38 -33 -54q-14 -6 -27 -6q-38 0 -54 34q-6 12 -6 26zM164 258q0 38 34 54q12 6 26 6q38 0 54 -34q6 -14 6 -26q0 -38 -34 -54q-12 -6 -26 -6q-38 0 -54 33q-6 13 -6 27zM164 684q0 38 34 54q12 6 26 6 q38 0 54 -34q6 -12 6 -26q0 -38 -34 -54q-12 -6 -26 -6q-38 0 -54 34q-6 12 -6 26zM224 1363q0 151 106.5 258t258.5 107q151 0 257.5 -107t106.5 -258t-106.5 -258t-257.5 -107q-152 0 -258.5 107t-106.5 258zM321 102q0 38 34 54q12 6 26 6q38 0 54 -34q6 -14 6 -26 q0 -38 -34 -54q-12 -6 -26 -6q-38 0 -54 33q-6 13 -6 27zM321 840q0 38 34 54q12 6 26 6q38 0 54 -34q6 -12 6 -26q0 -38 -34 -54q-12 -6 -26 -6q-38 0 -54 34q-6 12 -6 26zM370 1363q0 -90 63.5 -155.5t155.5 -65.5q90 0 154 65.5t64 155.5t-64 155.5t-154 65.5 q-92 0 -155.5 -65.5t-63.5 -155.5zM433 1358q0 65 43 108t109 43q62 0 105 -44t43 -107q0 -60 -43 -104t-105 -44q-66 0 -109 43t-43 105zM519 1354q0 -63 62 -63q66 0 66 63t-66 63q-62 0 -62 -63zM535 45q0 38 34 54q12 6 26 6q38 0 54 -34q6 -14 6 -26q0 -38 -34 -54 q-12 -6 -26 -6q-38 0 -54 33q-6 13 -6 27zM535 897q0 38 34 54q12 6 26 6q38 0 54 -34q6 -12 6 -26q0 -38 -34 -54q-12 -6 -26 -6q-38 0 -54 34q-6 12 -6 26zM749 102q0 38 34 54q12 6 26 6q38 0 54 -34q6 -14 6 -26q0 -38 -34 -54q-12 -6 -26 -6q-38 0 -54 33q-6 13 -6 27z M749 840q0 38 34 54q12 6 26 6q38 0 54 -34q6 -12 6 -26q0 -38 -34 -54q-12 -6 -26 -6q-38 0 -54 34q-6 12 -6 26zM906 258q0 38 34 54q12 6 26 6q38 0 54 -34q6 -14 6 -26q0 -38 -34 -54q-12 -6 -26 -6q-38 0 -54 33q-6 13 -6 27zM906 684q0 38 34 54q12 6 26 6 q38 0 54 -34q6 -12 6 -26q0 -38 -34 -54q-12 -6 -26 -6q-38 0 -54 34q-6 12 -6 26zM964 471q0 37 33 54q13 6 27 6q38 0 54 -34q6 -12 6 -26q0 -38 -34 -54q-14 -6 -26 -6q-38 0 -54 34q-6 12 -6 26z" />
</font>
</defs>
</svg>
